<svg width="534" height="442" viewBox="0 0 534 442" fill="none" xmlns="http://www.w3.org/2000/svg">
<path d="M0 0H534V442H0V0Z" fill="#1381D8"/>
<g filter="url(#filter0_d)">
<rect x="141.902" y="84.627" width="322.312" height="272.431" rx="3.83705" fill="white"/>
</g>
<rect x="381.24" y="287.92" width="23.9816" height="23.9816" rx="2.39816" stroke="#1E1E1E" stroke-width="2.87779"/>
<path d="M389.395 305.666V294.155L398.987 299.911L389.395 305.666Z" fill="#1E1E1E"/>
<rect x="289.15" y="287.92" width="23.9816" height="23.9816" rx="2.39816" stroke="#1E1E1E" stroke-width="2.87779"/>
<path d="M306.897 301.829L303.06 297.033L299.223 301.829V288.399H306.897V301.829Z" fill="#1E1E1E" stroke="#1E1E1E" stroke-width="1.91853"/>
<circle cx="209.051" cy="299.911" r="13.9093" stroke="#1E1E1E" stroke-width="2.87779"/>
<path d="M206.177 298.666L214.715 292.939L211.936 302.01L203.387 307.676L206.177 298.666Z" fill="#1E1E1E"/>
<rect x="370.207" y="184.799" width="46.0446" height="46.0446" fill="white"/>
<path d="M406.61 196.606V214.316L399.969 220.957" stroke="#1E1E1E" stroke-width="3.32053"/>
<rect x="395.539" y="196.606" width="11.0684" height="11.0684" fill="#1E1E1E"/>
<path d="M388.899 196.606V214.316L382.258 220.957" stroke="#1E1E1E" stroke-width="3.32053"/>
<rect x="377.832" y="196.606" width="11.0684" height="11.0684" fill="#1E1E1E"/>
<rect x="289.15" y="195.83" width="23.9816" height="23.9816" rx="2.39816" stroke="#1E1E1E" stroke-width="2.87779"/>
<path d="M289.629 215.495L296.779 210.898C297.461 210.459 298.346 210.497 298.988 210.992L302.158 213.438C302.899 214.01 303.946 213.963 304.633 213.327L312.651 205.902" stroke="#1E1E1E" stroke-width="2.87779" stroke-linecap="round" stroke-linejoin="bevel"/>
<line x1="214.647" y1="223.173" x2="214.647" y2="194.182" stroke="#1E1E1E" stroke-width="2.87779"/>
<line x1="206.12" y1="223.173" x2="206.12" y2="194.182" stroke="#1E1E1E" stroke-width="2.87779"/>
<line x1="221.203" y1="193.912" x2="204.15" y2="193.912" stroke="#1E1E1E" stroke-width="2.87779"/>
<path d="M203.562 201.852V209.663C199.863 208.986 197.06 205.746 197.06 201.852C197.06 197.958 199.863 194.719 203.562 194.042V201.852Z" fill="#1E1E1E" stroke="#1E1E1E" stroke-width="2.87779"/>
<rect x="61.3242" y="84.6299" width="61.3929" height="61.3929" rx="3.83705" fill="white"/>
<path d="M91.5432 105.733V126.837M80.5117 115.806H101.616" stroke="#3E58E1" stroke-width="2.87779"/>
<rect x="163.967" y="108.609" width="278.186" height="44.1261" rx="2.87779" stroke="#3E58E1" stroke-width="1.91853"/>
<path d="M404.742 142.184L412.416 135.469" stroke="#1E1E1E" stroke-width="2.87779"/>
<circle cx="419.13" cy="129.713" r="9.113" stroke="#1E1E1E" stroke-width="2.87779"/>
<defs>
<filter id="filter0_d" x="97.5022" y="44.6668" width="411.113" height="361.231" filterUnits="userSpaceOnUse" color-interpolation-filters="sRGB">
<feFlood flood-opacity="0" result="BackgroundImageFix"/>
<feColorMatrix in="SourceAlpha" type="matrix" values="0 0 0 0 0 0 0 0 0 0 0 0 0 0 0 0 0 0 127 0"/>
<feOffset dy="4.44002"/>
<feGaussianBlur stdDeviation="22.2001"/>
<feColorMatrix type="matrix" values="0 0 0 0 0.0980392 0 0 0 0 0.117647 0 0 0 0 0.137255 0 0 0 0.1 0"/>
<feBlend mode="normal" in2="BackgroundImageFix" result="effect1_dropShadow"/>
<feBlend mode="normal" in="SourceGraphic" in2="effect1_dropShadow" result="shape"/>
</filter>
</defs>
</svg>
