<svg width="534" height="442" viewBox="0 0 534 442" fill="none" xmlns="http://www.w3.org/2000/svg">
<path d="M0 0H534V442H0V0Z" fill="#1381D8"/>
<path d="M76 62.9764C76 61.3325 77.5792 60 79.5276 60H453.451C455.401 60 456.979 61.3325 456.979 62.9764V440.979H76V62.9764Z" fill="white"/>
<path d="M295.979 95.0693H260.91V107.822H295.979V95.0693Z" fill="#E2E4E7"/>
<path d="M340.613 95.0693H305.544V107.822H340.613V95.0693Z" fill="#E2E4E7"/>
<path d="M385.247 95.0693H350.177V107.822H385.247V95.0693Z" fill="#E2E4E7"/>
<path d="M429.88 95.0693H393.217V107.822H429.88V95.0693Z" fill="#E2E4E7"/>
<path d="M115.851 115.792C123.775 115.792 130.198 109.369 130.198 101.446C130.198 93.5223 123.775 87.0991 115.851 87.0991C107.928 87.0991 101.505 93.5223 101.505 101.446C101.505 109.369 107.928 115.792 115.851 115.792Z" fill="#1E1E1E"/>
<path d="M456.979 144.485H76V345.336H456.979V144.485Z" fill="#E2E4E7"/>
<path d="M248.158 374.029H76V440.979H248.158V374.029Z" fill="#E2E4E7"/>
<path d="M334.237 257.663H128.604V283.168H334.237V257.663Z" fill="white"/>
<path d="M192.366 294.326H128.604V308.673H192.366V294.326Z" fill="white"/>
<path d="M405.969 386.781H270.475V399.534H405.969V386.781Z" fill="#E2E4E7"/>
<path d="M405.969 407.504H270.475V420.256H405.969V407.504Z" fill="#E2E4E7"/>
<path d="M338.71 428.227H270.475V440.979H338.71V428.227Z" fill="#E2E4E7"/>
</svg>
