<svg xmlns="http://www.w3.org/2000/svg" viewBox="0 0 96 96"><path d="M16 41v28h2V40h-2v1zm1.134-11.795c-.916 0-1.633.76-1.633 1.727 0 .984.677 1.727 1.573 1.727.98 0 1.665-.71 1.665-1.728 0-.984-.69-1.727-1.604-1.727zM40.21 27h-.003c-10.213 0-17.075 8.568-17.075 21.237 0 10.25 5.088 20.62 16.455 20.62 7.848 0 17.013-5.532 17.013-21.165 0-6.307-1.62-11.625-4.688-15.286C48.978 28.902 44.932 27 40.21 27zm-.57 39.654c-8.71 0-14.337-7.322-14.337-18.655 0-11.24 5.876-18.504 14.97-18.504 6.822 0 14.11 4.83 14.11 18.38 0 12.972-7.404 18.778-14.742 18.778zm31.6-20.466l-.503-.24c-4.747-2.262-8.178-3.895-8.178-8.468 0-3.145 2.426-8.134 8.937-8.134 2.896 0 5.45.883 6.34 1.51l.49.348.89-1.94-.34-.238c-1.277-.896-3.873-1.854-7.33-1.854-6.545 0-11.296 4.386-11.296 10.43 0 5.82 4.558 8.245 9.635 10.41 6.06 2.582 8.42 5.336 8.42 9.825 0 5.602-4.99 8.948-9.813 8.948-2.884 0-6.105-1.273-7.878-2.457L60.122 64l-.928 2.075.312.24c1.896 1.456 5.58 2.513 8.756 2.513 7.32 0 12.236-4.52 12.236-11.25.002-5.76-3.252-8.445-9.257-11.39z" fill="#FFF"/></svg>