<svg xmlns="http://www.w3.org/2000/svg" viewBox="0 0 96 96"><path d="M28 32.003C19.163 32.003 12 39.165 12 48S19.164 63.997 28 63.997c8.834 0 15.996-7.162 15.996-15.997S36.834 32.003 28 32.003zm3.588 5.51c.59-1.022 1.896-1.373 2.917-.783 1.022.59 1.37 1.896.78 2.917-.588 1.02-1.894 1.37-2.916.78-1.02-.588-1.37-1.894-.782-2.915zm-3.59 1.21c.86 0 1.69.118 2.48.336.138.857.647 1.648 1.46 2.117.81.467 1.75.514 2.56.208 1.58 1.553 2.608 3.665 2.758 6.018l-3.043.045c-.28-3.187-2.955-5.686-6.214-5.686-.94 0-1.83.21-2.63.58l-1.483-2.66c1.24-.613 2.635-.96 4.11-.96zM17.12 50.135c-1.18 0-2.135-.956-2.135-2.136 0-1.18.956-2.136 2.136-2.136 1.18 0 2.137.956 2.137 2.136 0 1.18-.956 2.136-2.136 2.136zm1.895.19c.674-.55 1.106-1.388 1.106-2.326 0-.94-.43-1.776-1.105-2.326.578-2.236 1.968-4.144 3.837-5.393l1.56 2.616C22.81 44.026 21.76 45.89 21.76 48s1.048 3.975 2.652 5.104l-1.56 2.616c-1.87-1.25-3.26-3.158-3.837-5.394zm15.49 8.943c-1.02.59-2.327.24-2.916-.783-.59-1.02-.24-2.326.78-2.916 1.022-.588 2.328-.238 2.918.783.59 1.022.24 2.327-.783 2.916zm-.006-4.654c-.813-.307-1.75-.26-2.562.207-.812.47-1.32 1.26-1.46 2.118-.79.22-1.62.34-2.48.34-1.477 0-2.872-.348-4.112-.962l1.484-2.66c.798.372 1.69.58 2.628.58 3.26 0 5.933-2.497 6.213-5.685l3.045.045c-.15 2.353-1.177 4.465-2.756 6.018zM68 32c-8.834 0-16 7.158-16 15.99v12.38c0 2.007 1.63 3.63 3.636 3.63h12.37c8.833-.003 15.993-7.165 15.993-16 0-8.836-7.164-16-16-16zm6.126 7.436c-.506 0-.555-.097-1.296-.097-2.186 0-3.83 1.77-3.83 3.957v3.444c0 .31-.017.26.292.26h2.604c.97 0 1.754 1.027 1.754 2 0 .977-.792 2-1.772 2H69v3.776c0 4.147-3.496 7.51-7.643 7.51-.63 0-1.143-.072-1.726-.224-.848-.222-1.576-.92-1.576-1.728 0-.98.694-1.69 1.756-1.69.506 0 .587.096 1.328.096 2.186 0 3.862-1.77 3.862-3.957V51.34c0-.31-.064-.34-.373-.34h-2.604c-.97 0-1.754-1.026-1.754-1.998 0-.98.79-2.002 1.772-2.002H65v-3.698c0-4.147 3.456-7.51 7.603-7.51.63 0 1.123.072 1.705.224.85.222 1.567.92 1.567 1.728 0 .98-.687 1.692-1.75 1.692z" fill="#FFF"/></svg>