<svg xmlns="http://www.w3.org/2000/svg" viewBox="0 0 96 96"><path d="M25 34.08c-2.055 0-4 1.654-4 3.693v16.59c0 2.04 1.944 3.693 4 3.693s4-1.653 4-3.692v-16.59c0-2.04-1.944-3.693-4-3.693zm6 .92v29.54c0 1.146.457 2.46 1.612 2.46H37v8.837c0 2.04 1.945 3.692 4 3.692 2.056 0 4-1.654 4-3.693V67h6v8.837c0 2.04 1.944 3.692 4 3.692s4-1.654 4-3.693V67h4.36c1.155 0 1.64-1.315 1.64-2.46V35H31zm25.423-14.9l2.996-4.14c.06-.086-.028-.226-.2-.348-.172-.12-.362-.135-.424-.048l-3.09 4.334c-2.09-.812-4.628-1.313-7.72-1.322-3.11-.01-5.658.48-7.753 1.28l-3.057-4.278c-.062-.087-.252-.058-.423.062-.173.122-.262.29-.2.376l2.96 4.034C30.885 23.83 30.632 33 30.632 33H65.34s-.354-9.088-8.917-12.9zM40.37 27.79c-1.155 0-2.09-.927-2.09-2.07 0-1.146.935-2.073 2.09-2.073 1.152 0 2.088.928 2.088 2.072 0 1.143-.935 2.07-2.09 2.07zm15.233 0c-1.154 0-2.09-.927-2.09-2.07 0-1.146.936-2.073 2.09-2.073 1.153 0 2.09.928 2.09 2.072 0 1.143-.937 2.07-2.09 2.07zM71 34.08c-2.056 0-4 1.654-4 3.693v16.59c0 2.04 1.944 3.693 4 3.693s4-1.653 4-3.692v-16.59c0-2.04-1.944-3.693-4-3.693z" fill="#FFF"/></svg>