<?xml version="1.0" encoding="UTF-8"?><svg width="73px" height="73px" viewBox="0 0 73 73" version="1.1" xmlns="http://www.w3.org/2000/svg" xmlns:xlink="http://www.w3.org/1999/xlink"><defs><path d="M0.058,36.9657 C0.058,56.8617 16.186,72.9897 36.082,72.9897 C55.976,72.9897 72.105,56.8617 72.105,36.9657 C72.105,17.0707 55.976,0.9427 36.082,0.9427 C16.186,0.9427 0.058,17.0707 0.058,36.9657 Z" id="path-1"></path></defs><g id="Blogger" stroke="none" stroke-width="1" fill="none" fill-rule="evenodd"><g id="Blogger-icon"><mask id="mask-2" fill="white"><use xlink:href="#path-1"></use></mask><use id="Clip-2" fill="#24D8B9" xlink:href="#path-1"></use><polygon id="Fill-1" fill="#24D8B9" mask="url(#mask-2)" points="-2 76.6667 78.667 76.6667 78.667 -4.0003 -2 -4.0003"></polygon><path d="M25.8949,54.7974 L31.5199,45.1094" id="Stroke-3" stroke="#FFFFFF" stroke-width="0.8" stroke-linecap="round" mask="url(#mask-2)"></path><polygon id="Fill-4" fill="#FFFFFF" mask="url(#mask-2)" points="46.9281 -2.5068 31.5531 24.7012 48.9281 34.2852 64.3241 7.4102"></polygon><polygon id="Fill-5" fill-opacity="0.5" fill="#FFFFFF" mask="url(#mask-2)" points="31.5531 24.7012 26.6781 51.2842 28.5431 52.2742 48.9281 34.2842"></polygon><polygon id="Fill-6" fill="#FFFFFF" mask="url(#mask-2)" points="28.5199 41.0855 26.6779 51.2845 28.5429 52.2745 36.3529 45.4135"></polygon><path d="M22.8866,55.9932 L0.3866,55.9932" id="Stroke-7" stroke-opacity="0.5" stroke="#FFFFFF" stroke-linecap="round" mask="url(#mask-2)"></path></g></g></svg>