<?xml version="1.0" encoding="UTF-8"?><svg width="72px" height="72px" viewBox="0 0 72 72" version="1.1" xmlns="http://www.w3.org/2000/svg" xmlns:xlink="http://www.w3.org/1999/xlink"><defs><circle id="path-1" cx="36" cy="36" r="36"></circle><path d="M14,50 L14,52.9587014 C14,53.4365482 13.9725072,53.607641 13.9123779,53.7929424 C13.8522485,53.9782438 13.7594827,54.1387461 13.6289367,54.2833486 C13.4983907,54.4279512 13.3638645,54.5371816 12.9498143,54.7757189 L8.24878811,57.4840149 C7.53096317,57.8975592 6.61380722,57.6508909 6.20026296,56.933066 C6.06906001,56.7053255 6,56.4471085 6,56.1842779 L6,50 L4,50 C4,39.3333333 2.66666667,29 0,19 L0,0 L20,0 L20,19 C17.3333333,29 16,39.3333333 16,50 L14,50 Z" id="path-3"></path></defs><g id="Premium-/-Lower-tier" stroke="none" stroke-width="1" fill="none" fill-rule="evenodd"><g id="blue-personal-icon"><mask id="mask-2" fill="white"><use xlink:href="#path-1"></use></mask><use id="bg" fill="#B987DF" xlink:href="#path-1"></use><path d="M-4,54 L28,54 L24.3228854,57.6771146 C24.1178126,57.8821874 23.8338112,57.9881294 23.5445315,57.9674665 L-4,56 L-4,54 Z" id="line" fill-opacity="0.5" fill="#FFFFFF" mask="url(#mask-2)"></path><g id="icon" mask="url(#mask-2)"><g transform="translate(40.500000, 28.205771) rotate(30.000000) translate(-40.500000, -28.205771) translate(30.500000, -0.794229)" id="pen"><g transform="translate(0.000000, 0.000000)"><mask id="mask-4" fill="white"><use xlink:href="#path-3"></use></mask><use id="shape" fill="#D4B3EB" xlink:href="#path-3"></use><rect id="alt" fill="#FFFFFF" mask="url(#mask-4)" x="-4" y="22" width="28" height="28"></rect></g></g></g></g></g></svg>