<?xml version="1.0" encoding="utf-8"?>
<!-- Generator: Adobe Illustrator 19.0.1, SVG Export Plug-In . SVG Version: 6.00 Build 0)  -->
<svg version="1.1" id="Layer_1" xmlns="http://www.w3.org/2000/svg" xmlns:xlink="http://www.w3.org/1999/xlink" x="0px" y="0px"
	 viewBox="-243 333.9 124 127.1" style="enable-background:new -243 333.9 124 127.1;" xml:space="preserve">
<style type="text/css">
	.st0{fill:#D3DEE6;}
	.st1{clip-path:url(#SVGID_2_);}
	.st2{fill:#FFFFFF;}
	.st3{fill:#485567;}
	.st4{fill:#91AEC2;}
	.st5{fill:#B1C6D4;}
	.st6{clip-path:url(#SVGID_4_);}
	.st7{fill:none;}
	.st8{fill:#546170;}
	.st9{fill:#78DCFA;}
	.st10{clip-path:url(#SVGID_6_);}
	.st11{fill:#668EAA;}
	.st12{fill:#4F748E;}
	.st13{fill:#C8D7E1;}
	.st14{fill:#00AADC;}
	.st15{fill:#0087BE;}
</style>
<circle class="st0" cx="-181" cy="397" r="62"/>
<g>
	<g>
		<defs>
			<circle id="SVGID_1_" cx="-181" cy="397" r="62"/>
		</defs>
		<clipPath id="SVGID_2_">
			<use xlink:href="#SVGID_1_"  style="overflow:visible;"/>
		</clipPath>
		<g class="st1">
			<path class="st2" d="M-181.1,401.2H-202l13.7,24.7c0-4,3.2-7.2,7.2-7.2h0.1c4,0,7.2,3.2,7.2,7.2l-7.2,13.3l21-37.9h-20.9
				L-181.1,401.2L-181.1,401.2z"/>
			<path class="st3" d="M-188.3,426l7.3,13.2L-188.3,426z"/>
			<polygon class="st3" points="-188.3,426 -181,439.2 -173.7,426 			"/>
			<polygon class="st2" points="-160,401.2 -159.9,401.2 -159.9,401.2 			"/>
			<rect x="-202.1" y="401.2" class="st2" width="0" height="0.1"/>
			<path class="st2" d="M-180.9,401.2h20.9c-5.8,0-10.5-4.7-10.5-10.5C-170.4,396.5-175.1,401.2-180.9,401.2z"/>
			<rect x="-170.4" y="390.8" class="st2" width="0" height="20.9"/>
			<polygon class="st2" points="-202,401.2 -181.1,401.2 -181.1,401.2 			"/>
			<path class="st4" d="M-191.6,387.7v3.1c0,5.8,4.7,10.5,10.5,10.5h0.2c5.8,0,10.5-4.7,10.5-10.5v-3.1H-191.6L-191.6,387.7z"/>
			<polygon class="st4" points="-181.1,401.2 -180.9,401.2 -180.9,401.2 			"/>
			<polygon class="st3" points="-188.3,426 -188.3,426 -188.3,426 			"/>
			<path class="st3" d="M-173.7,426c0-4-3.2-7.2-7.2-7.2h-0.1c-4,0-7.2,3.2-7.2,7.2l0,0H-173.7z"/>
			<polygon class="st2" points="-191.6,329.3 -191.6,383.3 -191.6,387.7 -191.6,387.7 			"/>
			<path class="st2" d="M-202,401.2h20.9c-5.8,0-10.5-4.7-10.5-10.5C-191.6,396.5-196.3,401.2-202,401.2z"/>
			<rect x="-191.6" y="329.3" class="st4" width="21.1" height="58.3"/>
			<rect x="-202.2" y="329.3" class="st5" width="0.1" height="71.9"/>
			<path class="st5" d="M-202.1,383.3v-54l0,0v71.9h0.1c5.8,0,10.5-4.7,10.5-10.5v-3.1v-4.4L-202.1,383.3L-202.1,383.3z"/>
			<rect x="-202.1" y="329.3" class="st5" width="10.6" height="53.9"/>
			<polygon class="st3" points="-159.9,383.3 -159.9,383.3 -159.9,401.2 -159.8,401.2 -159.8,329.3 -159.9,329.3 			"/>
			<path class="st3" d="M-170.4,383.3v-54l0,0v58.3v3.1c0,5.8,4.7,10.5,10.5,10.5h0.1v-17.9H-170.4z"/>
			<rect x="-159.9" y="329.3" class="st3" width="0" height="53.9"/>
			<rect x="-170.4" y="329.3" class="st3" width="10.6" height="53.9"/>
		</g>
	</g>
</g>
<circle class="st0" cx="-181" cy="396.9" r="62"/>
<g>
	<g>
		<defs>
			<circle id="SVGID_3_" cx="-181" cy="396.9" r="62"/>
		</defs>
		<clipPath id="SVGID_4_">
			<use xlink:href="#SVGID_3_"  style="overflow:visible;"/>
		</clipPath>
		<g class="st6">
			<path class="st7" d="M-157.8,404.8c0-9.4-5.6-17.4-13.5-21.1v-12h-19.3v12.1c-8,3.7-13.5,11.7-13.5,21.1c0,4.9,1.5,9.4,4.1,13.1
				l0,0c15.4,22.4,15.4,22.4,17,24.8h4c1.6-2.4,1.6-2.4,17-24.8l0,0C-159.4,414.2-157.8,409.7-157.8,404.8z"/>
			<path class="st2" d="M-185.6,408.7c0-2.5,2-4.6,4.6-4.6v-32.4h-9.6v12.1c-8,3.7-13.5,11.7-13.5,21.1c0,4.9,1.5,9.4,4.1,13.1l0,0
				c15.4,22.4,15.4,22.4,17,24.8h0.3V413C-184.4,412.3-185.6,410.6-185.6,408.7z"/>
			<path class="st5" d="M-157.8,404.8c0-9.4-5.6-17.4-13.5-21.1v-12h-9.7v32.5c2.5,0,4.6,2,4.6,4.6c0,1.9-1.2,3.5-2.9,4.2v29.8h0.3
				c1.6-2.4,1.6-2.4,17-24.8l0,0C-159.4,414.2-157.8,409.7-157.8,404.8z"/>
			<polygon class="st0" points="-182.7,442.8 -182.7,443.8 -179.3,443.8 -179.3,442.8 -181,442.8 			"/>
			<path class="st3" d="M-165.3,366.9h-31.5c-3.2,0-5.8,2.6-5.8,5.8v0.2c0,3.2,2.6,5.8,5.8,5.8h31.5c3.2,0,5.8-2.6,5.8-5.8v-0.1
				C-159.4,369.5-162,366.9-165.3,366.9z"/>
			<path class="st8" d="M-181,366.9h-15.8c-3.2,0-5.8,2.6-5.8,5.8v0.2c0,3.2,2.6,5.8,5.8,5.8h15.8V366.9z"/>
			<polygon class="st0" points="-180.9,418.9 -180.9,418.5 -180.9,418.7 			"/>
			<polygon class="st0" points="-181,418.9 -180.9,418.7 -181,418.5 			"/>
			<path class="st8" d="M-203.2,329.3c1.3,8.6,3.2,17.1,5.7,25.6l5,19.1h11.5v-44.7H-203.2z"/>
			<path class="st3" d="M-181,374h11.5l5-19.1c2.5-8.4,4.4-17,5.7-25.6H-181V374z"/>
			<rect x="-181" y="329.3" class="st3" width="0" height="44.7"/>
		</g>
	</g>
</g>
<circle class="st9" cx="-181" cy="396.9" r="62"/>
<g>
	<g>
		<defs>
			<circle id="SVGID_5_" cx="-181" cy="396.9" r="62"/>
		</defs>
		<clipPath id="SVGID_6_">
			<use xlink:href="#SVGID_5_"  style="overflow:visible;"/>
		</clipPath>
		<g class="st10">
			<g>
				<path class="st7" d="M-157.7,331.9c-0.1,0.7-0.1,1.4-0.2,2.1C-157.8,333.3-157.7,332.6-157.7,331.9z"/>
				<path class="st7" d="M-200,369.1c-0.6-4.8-1.2-10-1.9-15.5C-201.3,359.1-200.6,364.2-200,369.1z"/>
				<path class="st7" d="M-158.2,337.4c0,0.1,0,0.1,0,0.2C-158.3,337.6-158.2,337.5-158.2,337.4z"/>
				<path class="st7" d="M-159.9,352.4c0,0.1,0,0.1,0,0.2C-159.9,352.5-159.9,352.4-159.9,352.4z"/>
				<path class="st7" d="M-161.9,369L-161.9,369c0.2-1.7,0.4-3.3,0.6-4.9c0.1-1.1,0.3-2.2,0.4-3.3c0-0.4,0.1-0.8,0.1-1.1
					c-0.4,3.4-0.8,6.7-1.2,9.9C-161.9,369.4-161.9,369.2-161.9,369z"/>
				<path class="st11" d="M-185.5,428.3h-1.9v3.8l4.4,10.8c0.4,0.9,1.2,1.4,2.1,1.4v-16H-185.5z"/>
				<path class="st8" d="M-174.5,428.3h2.7H-174.5z"/>
				<path class="st8" d="M-202.5,347.9c-0.4-3.8-0.9-7.8-1.3-12C-203.4,340.1-203,344.1-202.5,347.9z"/>
				<polygon class="st8" points="-185.5,428.3 -181,428.3 -181,428.3 -181,428.3 				"/>
				<path class="st3" d="M-170.7,423.6C-170.7,423.7-170.7,423.7-170.7,423.6c0.1-0.4,0.2-0.9,0.3-1.5l0,0
					C-170.5,422.7-170.6,423.2-170.7,423.6z"/>
				<path class="st3" d="M-170.3,421.6L-170.3,421.6c0.1-0.6,0.3-1.2,0.4-1.9v0.1C-170,420.4-170.1,421-170.3,421.6z"/>
				<path class="st3" d="M-169.8,419.6L-169.8,419.6C-169.8,419.5-169.8,419.5-169.8,419.6L-169.8,419.6z"/>
				<path class="st3" d="M-166.9,403.9L-166.9,403.9c0.1-0.7,0.3-1.6,0.4-2.4c0,0.2-0.1,0.3-0.1,0.5
					C-166.7,402.6-166.8,403.3-166.9,403.9z"/>
				<path class="st3" d="M-167.6,407.6L-167.6,407.6c-0.2,1-0.3,1.9-0.5,2.7v0.1c0.3-1.4,0.5-3,0.8-4.6c0,0.2-0.1,0.5-0.1,0.7
					C-167.4,406.9-167.5,407.2-167.6,407.6z"/>
				<path class="st3" d="M-169.7,418.8c0,0.1,0,0.1,0,0.2c0.1-0.4,0.2-0.9,0.3-1.3l0,0C-169.5,418-169.6,418.4-169.7,418.8z"/>
				<path class="st3" d="M-168.5,412.8C-168.5,412.8-168.5,412.9-168.5,412.8c0.1-0.7,0.3-1.5,0.4-2.4v0.1
					C-168.2,411.3-168.4,412.1-168.5,412.8z"/>
				<path class="st3" d="M-169,415.1C-169,415.1-169,415.2-169,415.1c0.1-0.6,0.2-1.3,0.4-2c0,0,0,0,0,0.1
					C-168.7,413.8-168.8,414.5-169,415.1z"/>
				<path class="st3" d="M-169.4,417.3v0.1c0.1-0.6,0.2-1.2,0.4-1.9l0,0C-169.1,416.1-169.3,416.7-169.4,417.3z"/>
				<path class="st3" d="M-171.1,425.3C-171.1,425.3-171.1,425.4-171.1,425.3c0.1-0.4,0.2-0.8,0.3-1.3l0,0
					C-170.9,424.5-171,424.9-171.1,425.3z"/>
				<path class="st3" d="M-171.7,427.7L-171.7,427.7c0.1-0.4,0.3-1.2,0.5-2.1l0,0C-171.4,426.5-171.5,427.2-171.7,427.7z"/>
				<path class="st3" d="M-159.1,345.6c0-0.2,0-0.3,0.1-0.5C-159,345.3-159,345.5-159.1,345.6C-159.1,345.7-159.1,345.7-159.1,345.6
					z"/>
				<path class="st3" d="M-171.7,428v-0.1l0,0V428z"/>
				<path class="st3" d="M-157.9,334.3c0-0.1,0-0.2,0-0.2c0.1-0.7,0.1-1.4,0.2-2.1c0-0.1,0-0.3,0-0.4
					C-157.7,332.4-157.8,333.4-157.9,334.3z"/>
				<path class="st3" d="M-158.2,337.2c0,0.1,0,0.1,0,0.2c0.1-1.1,0.2-2.3,0.4-3.4c0,0.1,0,0.2,0,0.2
					C-158,335.3-158.1,336.3-158.2,337.2z"/>
				<path class="st3" d="M-162.1,370.5c-0.7,5.2-1.3,10-1.9,14.4c0,0.1,0,0.1,0,0.2v0.1c-0.9,6.1-1.7,11.4-2.5,16.1c0,0,0,0,0,0.1
					c1.4-8.3,2.9-18.8,4.6-31.8c0,0.1,0,0.3-0.1,0.4C-162,370.2-162,370.4-162.1,370.5z"/>
				<path class="st3" d="M-160.6,358.6c-0.5,4.2-1,8.2-1.5,12c0-0.2,0-0.4,0.1-0.6c0-0.1,0-0.3,0.1-0.4c0.4-3.1,0.8-6.4,1.2-9.9
					c0-0.3,0.1-0.5,0.1-0.8C-160.6,358.8-160.6,358.7-160.6,358.6z"/>
				<path class="st3" d="M-158.4,338.6c0-0.3,0.1-0.6,0.1-0.9c0-0.1,0-0.1,0-0.2s0-0.1,0-0.2C-158.3,337.7-158.3,338.1-158.4,338.6z
					"/>
				<path class="st3" d="M-159.1,345.2c0,0.2,0,0.3-0.1,0.5c0,0.1,0,0.1,0,0.2c-0.2,2.1-0.5,4.2-0.7,6.3c0,0.1,0,0.2,0,0.3
					c0.5-4.7,1.1-9.6,1.6-14.7c0,0.3-0.1,0.6-0.1,0.9C-158.6,340.8-158.8,343-159.1,345.2z"/>
				<path class="st3" d="M-159.9,352.6v-0.1c0-0.1,0-0.1,0-0.2s0-0.2,0-0.3C-159.9,352.2-159.9,352.4-159.9,352.6z"/>
				<path class="st3" d="M-160.6,358.6c0,0.1,0,0.3,0,0.4c0,0.3-0.1,0.5-0.1,0.8c0.3-2.3,0.6-4.7,0.8-7.2v0.1
					C-160.1,354.7-160.4,356.6-160.6,358.6z"/>
				<path class="st3" d="M-169.9,419.8c-0.1,0.6-0.3,1.2-0.4,1.8C-170.1,421-170,420.4-169.9,419.8z"/>
				<polygon class="st3" points="-174.5,428.3 -171.8,428.3 -171.8,428.3 -171.8,428.3 				"/>
				<path class="st3" d="M-170.4,422.2c-0.1,0.5-0.2,1-0.3,1.5C-170.6,423.2-170.5,422.7-170.4,422.2z"/>
				<path class="st3" d="M-171.8,428.3L-171.8,428.3C-171.8,428.2-171.8,428.2-171.8,428.3C-171.8,428.2-171.8,428.3-171.8,428.3z"
					/>
				<path class="st3" d="M-171.8,428L-171.8,428c0-0.1,0-0.1,0-0.2C-171.7,427.9-171.7,428-171.8,428z"/>
				<path class="st3" d="M-170.8,424c-0.1,0.5-0.2,0.9-0.3,1.3C-171,424.9-170.9,424.5-170.8,424z"/>
				<path class="st3" d="M-169.7,418.8c0.1-0.4,0.2-0.7,0.2-1.1C-169.5,418-169.6,418.4-169.7,418.8z"/>
				<path class="st3" d="M-164,384.9c0.6-4.4,1.3-9.2,1.9-14.4c0,0.2,0,0.3-0.1,0.5C-162.8,376.1-163.4,380.7-164,384.9z"/>
				<path class="st3" d="M-171.7,427.7c0.1-0.4,0.3-1.2,0.5-2.1c-0.1,0.4-0.2,0.8-0.3,1.1C-171.5,427.1-171.6,427.4-171.7,427.7z"/>
				<path class="st3" d="M-159.9,352.6c-0.2,2-0.5,4-0.7,5.9C-160.4,356.6-160.1,354.7-159.9,352.6z"/>
				<path class="st3" d="M-159.1,345.8c-0.2,2.1-0.5,4.2-0.7,6.3C-159.6,350-159.4,347.9-159.1,345.8z"/>
				<path class="st3" d="M-158.4,338.6c-0.2,2.2-0.5,4.5-0.7,6.6C-158.8,343-158.6,340.8-158.4,338.6z"/>
				<path class="st3" d="M-157.9,334.3c-0.1,1-0.2,2-0.3,3C-158.1,336.3-158,335.3-157.9,334.3z"/>
				<path class="st3" d="M-164.1,385.2c-0.9,6.1-1.7,11.4-2.5,16.1C-165.7,396.6-164.9,391.3-164.1,385.2z"/>
				<path class="st3" d="M-168.6,413.2c-0.1,0.7-0.3,1.3-0.4,2C-168.8,414.5-168.7,413.8-168.6,413.2z"/>
				<path class="st3" d="M-168.1,410.5c-0.1,0.8-0.3,1.6-0.4,2.3C-168.4,412.1-168.2,411.3-168.1,410.5z"/>
				<path class="st3" d="M-166.6,402c-0.1,0.6-0.2,1.3-0.3,1.9C-166.8,403.3-166.7,402.6-166.6,402z"/>
				<path class="st3" d="M-167.6,407.7c-0.2,0.9-0.3,1.8-0.5,2.7C-167.9,409.5-167.7,408.6-167.6,407.7z"/>
				<path class="st3" d="M-169,415.5c-0.1,0.6-0.2,1.2-0.3,1.8C-169.3,416.7-169.1,416.1-169,415.5z"/>
				<path class="st12" d="M-181,444.3c0.9,0,1.7-0.5,2.1-1.4l4.4-10.8v-3.8h-6.5V444.3z"/>
				<polygon class="st4" points="-177.9,428.3 -181,428.3 -181,428.3 -174.5,428.3 -174.5,428.3 				"/>
				<polygon class="st4" points="-177.9,428.3 -174.5,428.3 -174.5,428.3 -174.9,428.3 				"/>
				<path class="st2" d="M-190.1,428.3c0,0-0.9-3.1-2.3-10.4C-191,425.1-190.1,428.3-190.1,428.3h2.6l0,0H-190.1z"/>
				<path class="st2" d="M-192.4,417.8c-0.7-3.6-1.6-8.3-2.6-14.2C-194,409.5-193.1,414.2-192.4,417.8z"/>
				<path class="st2" d="M-197.1,390.4c-0.4-2.5-0.7-5.1-1.1-7.9C-197.8,385.3-197.5,387.9-197.1,390.4z"/>
				<path class="st2" d="M-196,397.4c-0.4-2.2-0.7-4.6-1.1-7C-196.7,392.9-196.4,395.2-196,397.4z"/>
				<polygon class="st2" points="-187.4,428.3 -187.4,428.3 -185.5,428.3 				"/>
				<path class="st2" d="M-187.4,428.3v-10h6.4v-47.2h-18.8c0.5,4,1,7.9,1.5,11.4c0.4,2.8,0.8,5.4,1.1,7.9c0.4,2.5,0.7,4.8,1.1,7
					c0.3,2.2,0.7,4.3,1,6.2c1,5.8,1.9,10.5,2.6,14.2c1.5,7.3,2.3,10.4,2.3,10.4h2.8V428.3z"/>
				<polygon class="st2" points="-181,418.3 -187.4,418.3 -187.4,428.3 -185.5,428.3 -181,428.3 				"/>
				<path class="st5" d="M-167,404c-0.1,0.6-0.2,1.2-0.3,1.8C-167.2,405.2-167.1,404.6-167,404z"/>
				<path class="st5" d="M-166.5,401.4L-166.5,401.4v0.1V401.4z"/>
				<path class="st5" d="M-168.1,410.4L-168.1,410.4L-168.1,410.4z"/>
				<path class="st5" d="M-168.5,412.9c0,0.1,0,0.1,0,0.2C-168.6,413-168.5,413-168.5,412.9z"/>
				<path class="st5" d="M-171.1,425.4c0,0.1,0,0.1,0,0.2C-171.1,425.5-171.1,425.4-171.1,425.4z"/>
				<path class="st5" d="M-170.8,424c0-0.1,0-0.1,0-0.2v-0.1C-170.7,423.8-170.8,423.9-170.8,424L-170.8,424z"/>
				<path class="st5" d="M-170.3,421.6c0,0.2-0.1,0.4-0.1,0.5C-170.3,422-170.3,421.8-170.3,421.6z"/>
				<path class="st5" d="M-169.8,419.6L-169.8,419.6C-169.8,419.6-169.9,419.6-169.8,419.6C-169.9,419.7-169.8,419.6-169.8,419.6z"
					/>
				<path class="st5" d="M-171.7,427.7L-171.7,427.7c0,0,0,0.1,0,0.2C-171.7,427.8-171.7,427.8-171.7,427.7z"/>
				<path class="st5" d="M-171.8,428.3L-171.8,428.3L-171.8,428.3z"/>
				<path class="st5" d="M-171.8,428C-171.8,428.1-171.8,428.1-171.8,428C-171.8,428.1-171.8,428.1-171.8,428z"/>
				<path class="st5" d="M-169.7,419L-169.7,419c0,0.1-0.1,0.3-0.1,0.5C-169.8,419.3-169.8,419.2-169.7,419z"/>
				<path class="st5" d="M-169,415.2c0,0.1,0,0.2-0.1,0.3C-169,415.4-169,415.3-169,415.2z"/>
				<path class="st5" d="M-169.4,417.6c0-0.1,0-0.1,0-0.2C-169.4,417.5-169.4,417.5-169.4,417.6L-169.4,417.6z"/>
				<rect x="-181" y="371.1" class="st5" width="0" height="47.3"/>
				<polygon class="st5" points="-181,428.3 -181,428.3 -181,428.3 -181,418.3 -181,418.3 				"/>
				<path class="st5" d="M-166.6,402c0-0.2,0.1-0.3,0.1-0.5v-0.1c0,0,0,0,0-0.1C-166.5,401.5-166.6,401.8-166.6,402z"/>
				<path class="st5" d="M-169,415.5L-169,415.5c0-0.1,0-0.2,0.1-0.3c0,0,0,0,0-0.1C-169,415.3-169,415.4-169,415.5z"/>
				<path class="st5" d="M-168.6,413.2C-168.6,413.1-168.6,413.1-168.6,413.2c0-0.1,0-0.2,0-0.3v-0.1
					C-168.5,412.9-168.6,413-168.6,413.2z"/>
				<path class="st5" d="M-168.1,410.5C-168.1,410.5-168.1,410.4-168.1,410.5C-168.1,410.4-168.1,410.4-168.1,410.5
					c0-0.1,0-0.2,0-0.2C-168.1,410.4-168.1,410.4-168.1,410.5z"/>
				<path class="st5" d="M-171.7,427.9L-171.7,427.9c0-0.1,0-0.1,0-0.2l0,0C-171.7,427.8-171.7,427.8-171.7,427.9z"/>
				<path class="st5" d="M-167.6,407.7C-167.6,407.6-167.6,407.6-167.6,407.7c0.1-0.4,0.1-0.8,0.2-1.2c0-0.2,0.1-0.5,0.1-0.7
					c0.1-0.6,0.2-1.2,0.3-1.8c0,0,0,0,0-0.1C-167.2,405.2-167.4,406.5-167.6,407.7z"/>
				<path class="st5" d="M-171.1,425.6C-171.1,425.6-171.1,425.5-171.1,425.6c0-0.1,0-0.1,0-0.2l0,0
					C-171.1,425.4-171.1,425.5-171.1,425.6z"/>
				<path class="st5" d="M-169.4,417.6L-169.4,417.6c0-0.1,0-0.2,0-0.3v-0.1C-169.4,417.4-169.4,417.5-169.4,417.6z"/>
				<path class="st5" d="M-164,385.1c0-0.1,0-0.1,0-0.2C-164,385-164,385.1-164,385.1C-164.1,385.2-164,385.2-164,385.1z"/>
				<path class="st5" d="M-169.9,419.8L-169.9,419.8v-0.2l0,0v-0.1c0-0.2,0.1-0.4,0.1-0.5s0-0.1,0-0.2
					C-169.7,419.1-169.8,419.5-169.9,419.8z"/>
				<path class="st5" d="M-170.8,424L-170.8,424c0-0.1,0.1-0.2,0.1-0.3c0,0,0,0,0-0.1C-170.7,423.8-170.8,423.9-170.8,424z"/>
				<path class="st5" d="M-170.4,422.2L-170.4,422.2c0-0.2,0.1-0.4,0.1-0.6l0,0C-170.3,421.8-170.3,422-170.4,422.2z"/>
				<path class="st13" d="M-171.7,427.7c0.1-0.3,0.2-0.6,0.3-1.1c0.1-0.3,0.2-0.7,0.3-1.1c0-0.1,0-0.1,0.1-0.2
					c0.1-0.4,0.2-0.8,0.3-1.3c0-0.1,0.1-0.3,0.1-0.4c0.1-0.4,0.2-0.9,0.3-1.5c0-0.2,0.1-0.4,0.1-0.6c0.1-0.6,0.2-1.2,0.4-1.8
					c0.1-0.3,0.1-0.7,0.2-1c0.1-0.4,0.2-0.7,0.2-1.1c0-0.1,0-0.2,0.1-0.4c0.1-0.6,0.2-1.1,0.3-1.8c0-0.1,0-0.3,0.1-0.4
					c0.1-0.6,0.2-1.3,0.4-2c0-0.1,0-0.2,0.1-0.3c0.1-0.7,0.3-1.5,0.4-2.3c0-0.1,0-0.1,0-0.2c0.2-0.9,0.3-1.7,0.5-2.7
					c0.2-1.2,0.4-2.4,0.6-3.7c0.1-0.6,0.2-1.3,0.3-1.9c0-0.2,0.1-0.4,0.1-0.7c0.8-4.7,1.6-10,2.5-16.1c0-0.1,0-0.2,0-0.3
					c0.6-4.3,1.2-8.9,1.9-13.9H-181v47.3h6.5v10h2.6l0,0l0,0v-0.1c0,0,0,0,0-0.1c0,0,0-0.1,0-0.2
					C-171.7,427.8-171.7,427.8-171.7,427.7z"/>
				<path class="st5" d="M-181,428.3h3.1H-181z"/>
				<polygon class="st13" points="-177.9,428.3 -174.9,428.3 -174.5,428.3 -174.5,418.3 -181,418.3 -181,428.3 				"/>
			</g>
			<path class="st14" d="M-204.4,330.2c0.2,2,0.4,3.9,0.6,5.8c0.4,4.2,0.9,8.2,1.3,12c0.2,1.9,0.4,3.8,0.6,5.6
				c0.6,5.5,1.3,10.7,1.9,15.5c0.1,0.7,0.2,1.3,0.3,2h18.7v-40.9H-204.4z"/>
			<path class="st15" d="M-181,371.1h18.8c0-0.2,0-0.3,0.1-0.5c0.5-3.8,1-7.8,1.5-12c0.2-1.9,0.5-3.9,0.7-5.9c0-0.2,0-0.4,0.1-0.6
				c0.2-2,0.5-4.1,0.7-6.3c0-0.2,0-0.4,0.1-0.6c0.2-2.2,0.5-4.4,0.7-6.6c0-0.4,0.1-0.9,0.1-1.3c0.1-1,0.2-2,0.3-3
				c0.1-0.9,0.2-1.9,0.3-2.8c0-0.4,0.1-0.9,0.1-1.3H-181V371.1z"/>
		</g>
	</g>
</g>
</svg>
