<?xml version="1.0" encoding="utf-8"?>
<!-- Generator: Adobe Illustrator 19.0.1, SVG Export Plug-In . SVG Version: 6.00 Build 0)  -->
<svg version="1.1" id="Layer_1" xmlns="http://www.w3.org/2000/svg" xmlns:xlink="http://www.w3.org/1999/xlink" x="0px" y="0px"
	 viewBox="-243 333.9 124 127.1" style="enable-background:new -243 333.9 124 127.1;" xml:space="preserve">
<style type="text/css">
	.st0{fill:#D3DEE6;}
	.st1{clip-path:url(#SVGID_2_);}
	.st2{fill:#FFFFFF;}
	.st3{fill:#485567;}
	.st4{fill:#91AEC2;}
	.st5{fill:#B1C6D4;}
	.st6{fill:#78DCFA;}
	.st7{clip-path:url(#SVGID_4_);}
	.st8{fill:none;}
	.st9{fill:#E9EFF3;}
	.st10{fill:#0087BE;}
	.st11{fill:#00AADC;}
</style>
<circle class="st0" cx="-181" cy="397" r="62"/>
<g>
	<g>
		<defs>
			<circle id="SVGID_1_" cx="-181" cy="397" r="62"/>
		</defs>
		<clipPath id="SVGID_2_">
			<use xlink:href="#SVGID_1_"  style="overflow:visible;"/>
		</clipPath>
		<g class="st1">
			<path class="st2" d="M-181.1,401.2H-202l13.7,24.7c0-4,3.2-7.2,7.2-7.2h0.1c4,0,7.2,3.2,7.2,7.2l-7.2,13.3l21-37.9h-20.9
				L-181.1,401.2L-181.1,401.2z"/>
			<path class="st3" d="M-188.3,426l7.3,13.2L-188.3,426z"/>
			<polygon class="st3" points="-188.3,426 -181,439.2 -173.7,426 			"/>
			<polygon class="st2" points="-160,401.2 -159.9,401.2 -159.9,401.2 			"/>
			<rect x="-202.1" y="401.2" class="st2" width="0" height="0.1"/>
			<path class="st2" d="M-180.9,401.2h20.9c-5.8,0-10.5-4.7-10.5-10.5C-170.4,396.5-175.1,401.2-180.9,401.2z"/>
			<rect x="-170.4" y="390.8" class="st2" width="0" height="20.9"/>
			<polygon class="st2" points="-202,401.2 -181.1,401.2 -181.1,401.2 			"/>
			<path class="st4" d="M-191.6,387.7v3.1c0,5.8,4.7,10.5,10.5,10.5h0.2c5.8,0,10.5-4.7,10.5-10.5v-3.1H-191.6L-191.6,387.7z"/>
			<polygon class="st4" points="-181.1,401.2 -180.9,401.2 -180.9,401.2 			"/>
			<polygon class="st3" points="-188.3,426 -188.3,426 -188.3,426 			"/>
			<path class="st3" d="M-173.7,426c0-4-3.2-7.2-7.2-7.2h-0.1c-4,0-7.2,3.2-7.2,7.2l0,0H-173.7z"/>
			<polygon class="st2" points="-191.6,329.3 -191.6,383.3 -191.6,387.7 -191.6,387.7 			"/>
			<path class="st2" d="M-202,401.2h20.9c-5.8,0-10.5-4.7-10.5-10.5C-191.6,396.5-196.3,401.2-202,401.2z"/>
			<rect x="-191.6" y="329.3" class="st4" width="21.1" height="58.3"/>
			<rect x="-202.2" y="329.3" class="st5" width="0.1" height="71.9"/>
			<path class="st5" d="M-202.1,383.3v-54l0,0v71.9h0.1c5.8,0,10.5-4.7,10.5-10.5v-3.1v-4.4L-202.1,383.3L-202.1,383.3z"/>
			<rect x="-202.1" y="329.3" class="st5" width="10.6" height="53.9"/>
			<polygon class="st3" points="-159.9,383.3 -159.9,383.3 -159.9,401.2 -159.8,401.2 -159.8,329.3 -159.9,329.3 			"/>
			<path class="st3" d="M-170.4,383.3v-54l0,0v58.3v3.1c0,5.8,4.7,10.5,10.5,10.5h0.1v-17.9H-170.4z"/>
			<rect x="-159.9" y="329.3" class="st3" width="0" height="53.9"/>
			<rect x="-170.4" y="329.3" class="st3" width="10.6" height="53.9"/>
		</g>
	</g>
</g>
<circle class="st6" cx="-181" cy="396.9" r="62"/>
<g>
	<g>
		<defs>
			<circle id="SVGID_3_" cx="-181" cy="396.9" r="62"/>
		</defs>
		<clipPath id="SVGID_4_">
			<use xlink:href="#SVGID_3_"  style="overflow:visible;"/>
		</clipPath>
		<g class="st7">
			<path class="st8" d="M-157.8,404.8c0-9.4-5.6-17.4-13.5-21.1v-12h-19.3v12.1c-8,3.7-13.5,11.7-13.5,21.1c0,4.9,1.5,9.4,4.1,13.1
				l0,0c15.4,22.4,15.4,22.4,17,24.8h4c1.6-2.4,1.6-2.4,17-24.8l0,0C-159.4,414.2-157.8,409.7-157.8,404.8z"/>
			<path class="st2" d="M-185.6,408.7c0-2.5,2-4.6,4.6-4.6v-32.4h-9.6v12.1c-8,3.7-13.5,11.7-13.5,21.1c0,4.9,1.5,9.4,4.1,13.1l0,0
				c15.4,22.4,15.4,22.4,17,24.8h0.3V413C-184.4,412.3-185.6,410.6-185.6,408.7z"/>
			<path class="st9" d="M-157.8,404.8c0-9.4-5.6-17.4-13.5-21.1v-12h-9.7v32.5c2.5,0,4.6,2,4.6,4.6c0,1.9-1.2,3.5-2.9,4.2v29.8h0.3
				c1.6-2.4,1.6-2.4,17-24.8l0,0C-159.4,414.2-157.8,409.7-157.8,404.8z"/>
			<polygon class="st0" points="-182.7,442.8 -182.7,443.8 -179.3,443.8 -179.3,442.8 -181,442.8 			"/>
			<path class="st10" d="M-165.3,366.9h-31.5c-3.2,0-5.8,2.6-5.8,5.8v0.2c0,3.2,2.6,5.8,5.8,5.8h31.5c3.2,0,5.8-2.6,5.8-5.8v-0.1
				C-159.4,369.5-162,366.9-165.3,366.9z"/>
			<path class="st11" d="M-181,366.9h-15.8c-3.2,0-5.8,2.6-5.8,5.8v0.2c0,3.2,2.6,5.8,5.8,5.8h15.8V366.9z"/>
			<polygon class="st0" points="-180.9,418.9 -180.9,418.5 -180.9,418.7 			"/>
			<polygon class="st0" points="-181,418.9 -180.9,418.7 -181,418.5 			"/>
			<path class="st11" d="M-203.2,329.3c1.3,8.6,3.2,17.1,5.7,25.6l5,19.1h11.5v-44.7H-203.2z"/>
			<path class="st10" d="M-181,374h11.5l5-19.1c2.5-8.4,4.4-17,5.7-25.6H-181V374z"/>
			<rect x="-181" y="329.3" class="st3" width="0" height="44.7"/>
		</g>
	</g>
</g>
</svg>
