<?xml version="1.0" encoding="utf-8"?>
<!-- Generator: Adobe Illustrator 18.0.0, SVG Export Plug-In . SVG Version: 6.00 Build 0)  -->
<!DOCTYPE svg PUBLIC "-//W3C//DTD SVG 1.1//EN" "http://www.w3.org/Graphics/SVG/1.1/DTD/svg11.dtd">
<svg version="1.1" id="Layer_1" xmlns="http://www.w3.org/2000/svg" xmlns:xlink="http://www.w3.org/1999/xlink" x="0px" y="0px"
	 viewBox="0 0 124 127.1" enable-background="new 0 0 124 127.1" xml:space="preserve">
<circle fill="#D3DEE6" cx="62" cy="63.1" r="62"/>
<g>
	<defs>
		<circle id="SVGID_3_" cx="62" cy="63.1" r="62"/>
	</defs>
	<clipPath id="SVGID_2_">
		<use xlink:href="#SVGID_3_"  overflow="visible"/>
	</clipPath>
	<g clip-path="url(#SVGID_2_)">
		<path fill="#FFFFFF" d="M61.9,67.3H41l13.7,24.7c0-4,3.2-7.2,7.2-7.2h0.1c4,0,7.2,3.2,7.2,7.2L62,105.3l21-37.9H62.1H61.9z"/>
		<polygon fill="#485567" points="54.7,92.1 62,105.3 54.7,92.1 		"/>
		<polygon fill="#485567" points="54.7,92.1 62,105.3 69.3,92.1 		"/>
		<rect x="83" y="67.3" fill="#FFFFFF" width="0.1" height="0"/>
		<rect x="40.9" y="67.3" fill="#FFFFFF" width="0" height="0.1"/>
		<path fill="#FFFFFF" d="M62.1,67.3H83c-5.8,0-10.5-4.7-10.5-10.5C72.6,62.6,67.9,67.3,62.1,67.3z"/>
		<rect x="72.6" y="56.9" fill="#FFFFFF" width="0" height="20.9"/>
		<rect x="41" y="67.3" fill="#FFFFFF" width="20.9" height="0"/>
		<path fill="#91AEC2" d="M51.4,53.8v3.1c0,5.8,4.7,10.5,10.5,10.5h0.2c5.8,0,10.5-4.7,10.5-10.5v-3.1H51.4L51.4,53.8z"/>
		<rect x="61.9" y="67.3" fill="#91AEC2" width="0.2" height="0"/>
		<rect x="54.7" y="92.1" fill="#485567" width="0" height="0"/>
		<path fill="#485567" d="M69.3,92.1c0-4-3.2-7.2-7.2-7.2h-0.1c-4,0-7.2,3.2-7.2,7.2l0,0H69.3z"/>
		<polygon fill="#FFFFFF" points="51.4,-4.6 51.4,49.4 51.4,53.8 51.4,53.8 51.4,-4.6 		"/>
		<path fill="#FFFFFF" d="M41,67.3h20.9c-5.8,0-10.5-4.7-10.5-10.5C51.4,62.6,46.7,67.3,41,67.3z"/>
		<rect x="51.4" y="-4.6" fill="#91AEC2" width="21.1" height="58.3"/>
		<rect x="40.8" y="-4.6" fill="#B1C6D4" width="0.1" height="71.9"/>
		<path fill="#B1C6D4" d="M40.9,49.4V-4.6h0v71.9H41c5.8,0,10.5-4.7,10.5-10.5v-3.1v-4.4H40.9z"/>
		<rect x="40.9" y="-4.6" fill="#B1C6D4" width="10.6" height="53.9"/>
		<polygon fill="#485567" points="83.1,49.4 83.1,49.4 83.1,67.3 83.2,67.3 83.2,-4.6 83.1,-4.6 		"/>
		<path fill="#485567" d="M72.6,49.4V-4.6h0v58.3v3.1c0,5.8,4.7,10.5,10.5,10.5h0.1V49.4H72.6z"/>
		<rect x="83.1" y="-4.6" fill="#485567" width="0" height="53.9"/>
		<rect x="72.6" y="-4.6" fill="#485567" width="10.6" height="53.9"/>
	</g>
</g>
<circle fill="#D3DEE6" cx="62" cy="63" r="62"/>
<g>
	<defs>
		<circle id="SVGID_1_" cx="62" cy="63" r="62"/>
	</defs>
	<clipPath id="SVGID_4_">
		<use xlink:href="#SVGID_1_"  overflow="visible"/>
	</clipPath>
	<g clip-path="url(#SVGID_4_)">
		<path fill="none" d="M85.2,70.9c0-9.4-5.6-17.4-13.5-21.1V37.8H52.4v12.1c-8,3.7-13.5,11.7-13.5,21.1c0,4.9,1.5,9.4,4.1,13.1h0
			c15.4,22.4,15.4,22.4,17,24.8H64c1.6-2.4,1.6-2.4,17-24.8h0C83.6,80.3,85.2,75.8,85.2,70.9z"/>
		<path fill="#FFFFFF" d="M57.4,74.8c0-2.5,2-4.6,4.6-4.6V37.8h-9.6v12.1c-8,3.7-13.5,11.7-13.5,21.1c0,4.9,1.5,9.4,4.1,13.1h0
			c15.4,22.4,15.4,22.4,17,24.8h0.3V79.1C58.6,78.4,57.4,76.7,57.4,74.8z"/>
		<path fill="#B1C6D4" d="M85.2,70.9c0-9.4-5.6-17.4-13.5-21.1V37.8H62v32.5c2.5,0,4.6,2,4.6,4.6c0,1.9-1.2,3.5-2.9,4.2v29.8H64
			c1.6-2.4,1.6-2.4,17-24.8h0C83.6,80.3,85.2,75.8,85.2,70.9z"/>
		<polygon fill="#D3DEE6" points="60.3,108.9 60.3,109.9 63.7,109.9 63.7,108.9 62,108.9 		"/>
		<path fill="#485567" d="M77.7,33H46.2c-3.2,0-5.8,2.6-5.8,5.8V39c0,3.2,2.6,5.8,5.8,5.8h31.5c3.2,0,5.8-2.6,5.8-5.8v-0.1
			C83.6,35.6,81,33,77.7,33z"/>
		<path fill="#546170" d="M62,33H46.2c-3.2,0-5.8,2.6-5.8,5.8V39c0,3.2,2.6,5.8,5.8,5.8H62V33z"/>
		<polygon fill="#D3DEE6" points="62.1,85 62.1,84.6 62.1,84.8 		"/>
		<polygon fill="#D3DEE6" points="62,85 62.1,84.8 62,84.6 		"/>
		<path fill="#546170" d="M39.8-4.6C41.1,4,43,12.5,45.5,21l5,19.1H62V-4.6H39.8z"/>
		<path fill="#485567" d="M62,40.1h11.5l5-19.1c2.5-8.4,4.4-17,5.7-25.6H62V40.1z"/>
		<rect x="62" y="-4.6" fill="#485567" width="0" height="44.7"/>
	</g>
</g>
</svg>
