<?xml version="1.0" encoding="UTF-8"?><svg width="72px" height="72px" viewBox="0 0 72 72" version="1.1" xmlns="http://www.w3.org/2000/svg" xmlns:xlink="http://www.w3.org/1999/xlink"><defs><circle id="path-1" cx="36" cy="36" r="36"></circle><path d="M43.1075342,6.30550459 L37.9564805,3.40642202 L32.8054268,0.50733945 C32.8054268,0.50733945 5.01875659,25.7293578 0.448103267,58.1990826 L5.3089568,60.953211 L10.1698103,63.7073394 C35.7074289,43.0513761 43.1075342,6.30550459 43.1075342,6.30550459 Z" id="path-3"></path></defs><g id="Personal" stroke="none" stroke-width="1" fill="none" fill-rule="evenodd"><mask id="mask-2" fill="white"><use xlink:href="#path-1"></use></mask><use id="bg" fill="#00A6F4" xlink:href="#path-1"></use><g id="plans_personal" mask="url(#mask-2)"><g transform="translate(-23.000000, -26.000000)"><g id="Group" stroke-width="1" fill="none" transform="translate(46.000000, 0.000000)"><g id="Path" transform="translate(9.346154, 0.000000)"><mask id="mask-4" fill="white"><use xlink:href="#path-3"></use></mask><use id="Mask" fill="#FFFFFF" xlink:href="#path-3"></use><path d="M7.69030558,34.3026316 C4.42555321,40.6081362 1.66865121,47.5659343 3.55271368e-15,55.0310719 L12.8413593,62.3512554 C18.3551633,57.1329068 22.9258166,51.1173105 26.6984194,45.1017141 L7.69030558,34.3026316 Z" fill="#90C7F9" mask="url(#mask-4)"></path></g><path d="M11.6805585,59.2137615 C11.6805585,59.2137615 1.81375132,61.4605505 2.53925184,72.6220183 C2.53925184,72.9844037 2.6118019,74.2165138 2.53925184,74.8688073 C2.46670179,75.5211009 1.81375132,76.2458716 0.652950474,76.3908257 C-1.52355111,76.753211 3.70005269,80.6669725 9.28640674,77.9853211 C13.2041096,76.1009174 18.6453635,70.5201835 17.847313,62.6926606 L11.6805585,59.2137615 Z" id="Path" fill="#FFFFFF"></path></g><path d="M11.7528699,81 C11.7528699,81 67.9023468,81 45.8800845,83.293393 C23.9307435,85.6584546 -21.4263665,81.3583427 11.7528699,81 Z" id="Path" fill-opacity="0.5" fill="#FFFFFF"></path></g></g></g></svg>