<svg xmlns="http://www.w3.org/2000/svg" xmlns:xlink="http://www.w3.org/1999/xlink" width="76" height="76" viewbox="0 0 76 76"><defs><circle id="a" cx="38" cy="38" r="38"/><path id="c" d="M0 0h76v76H0z"/><path d="M.143 36.247l9.484 23.71a1 1 0 0 0 1.857 0l9.484-23.71a2 2 0 0 0 .143-.743V0H0v35.504a2 2 0 0 0 .143.743z" id="e"/></defs><g fill="none" fill-rule="evenodd"><mask id="b" fill="#fff"><use xlink:href="#a"/></mask><use fill="#676D73" xlink:href="#a"/><rect fill="#52585E" mask="url(#b)" x="-2.111" y="57" width="29.556" height="1.056" rx=".528"/><g mask="url(#b)"><g transform="rotate(30 37.998 37.994)"><mask id="d" fill="#fff"><use xlink:href="#c"/></mask><g mask="url(#d)"><g transform="translate(27.444 -2.111)"><mask id="f" fill="#fff"><use xlink:href="#e"/></mask><use fill="#3F4448" xlink:href="#e"/><path fill="#494E53" mask="url(#f)" d="M-33.778 0h44.333v44.333h-44.333z"/><path d="M9.503 0h2.111v24.351c0 4.012.418 5.467 1.202 6.934a8.178 8.178 0 0 0 3.403 3.402c1.34.716 2.67 1.127 5.948 1.193v16.898H-1.056V35.88c3.284-.066 4.614-.476 5.955-1.193a8.178 8.178 0 0 0 3.402-3.402c.785-1.467 1.202-2.922 1.202-6.934V0z" fill="#AAAFB4" mask="url(#f)"/></g></g></g></g></g></svg>
