<svg xmlns="http://www.w3.org/2000/svg" xmlns:xlink="http://www.w3.org/1999/xlink" width="76" height="76" viewbox="0 0 76 76"><defs><circle id="a" cx="38" cy="38" r="38"/><path id="c" d="M0 0h76v76H0z"/><path d="M14.778 52.778V55.9c0 .504-.03.685-.093.88a1.404 1.404 0 0 1-.299.518c-.138.153-.28.268-.717.52l-4.962 2.859a1.583 1.583 0 0 1-2.374-1.372v-6.528h-2.11c0-11.26-1.408-22.167-4.223-32.722V0h21.111v20.056C18.296 30.61 16.89 41.519 16.89 52.778h-2.111z" id="e"/></defs><g fill="none" fill-rule="evenodd"><mask id="b" fill="#fff"><use xlink:href="#a"/></mask><use fill="#FFAA15" xlink:href="#a"/><path d="M-4.222 57h33.778l-3.9 3.9a1 1 0 0 1-.778.29l-29.1-2.079V57z" fill="#FFC944" mask="url(#b)"/><g mask="url(#b)"><g transform="rotate(30 38 38)"><mask id="d" fill="#fff"><use xlink:href="#c"/></mask><g mask="url(#d)"><g transform="translate(27.444 -2.111)"><mask id="f" fill="#fff"><use xlink:href="#e"/></mask><use fill="#FFE57F" xlink:href="#e"/><path fill="#FFF" mask="url(#f)" d="M-4.222 23.222h29.556v29.556H-4.222z"/></g></g></g></g></g></svg>
