<svg xmlns="http://www.w3.org/2000/svg" xmlns:xlink="http://www.w3.org/1999/xlink" width="76" height="76" viewbox="0 0 76 76"><defs><circle id="a" cx="38" cy="38" r="38"/><path id="c" d="M0 0h76v76H0z"/><path d="M5.566 32.789C3.82 24.107 2.11 7.325 2.11 4.222V0h21.111v4.222c0 3.103-1.71 19.885-3.454 28.567 2.786 2.121 4.096 5.582 3.454 9.433-.966 5.796-7.389 15.834-9.5 19h-2.11c-2.112-3.166-8.445-12.666-9.5-19-.643-3.851.667-7.312 3.454-9.433zm8.039 11.787a2.534 2.534 0 1 0-1.876 0l.621 12.432a.317.317 0 0 0 .633 0l.622-12.432z" id="e"/></defs><g fill="none" fill-rule="evenodd"><mask id="b" fill="#fff"><use xlink:href="#a"/></mask><use fill="#AE69DC" xlink:href="#a"/><path d="M0 57h31.667C8.444 58.378 5.63 63.998 23.222 73.86 7.741 73.86 0 68.24 0 57z" fill="#7532A9" mask="url(#b)"/><g mask="url(#b)"><g transform="rotate(30 38 38)"><mask id="d" fill="#fff"><use xlink:href="#c"/></mask><g mask="url(#d)"><g transform="translate(25.333 -4.222)"><mask id="f" fill="#fff"><use xlink:href="#e"/></mask><use fill="#FFF" xlink:href="#e"/><path fill="#E3B8F7" mask="url(#f)" d="M0 0h25.333v27.444H0z"/></g></g></g></g></g></svg>
