<?xml version="1.0" encoding="UTF-8" standalone="no"?>
<svg width="48px" height="48px" viewBox="0 0 48 48" version="1.1" xmlns="http://www.w3.org/2000/svg" xmlns:xlink="http://www.w3.org/1999/xlink">
    <defs>
        <path id="path-1" d="M0.119391549,23.994862 C0.119391549,10.7839099 10.8289352,0.0745014085 24.0398873,0.0745014085 C37.2507042,0.0745014085 47.9602479,10.7839099 47.9602479,23.994862 C47.9602479,37.2056789 37.2507042,47.9152225 24.0398873,47.9152225 C10.8289352,47.9152225 0.119391549,37.2056789 0.119391549,23.994862"></path>
    </defs>
    <g id="Page-1" stroke="none" stroke-width="1" fill="none" fill-rule="evenodd">
        <g id="Imported-Layers-Copy-4">
            <path d="M0.119391549,23.994862 C0.119391549,10.7839099 10.8289352,0.0745014085 24.0398873,0.0745014085 C37.2507042,0.0745014085 47.9602479,10.7839099 47.9602479,23.994862 C47.9602479,37.2056789 37.2507042,47.9152225 24.0398873,47.9152225 C10.8289352,47.9152225 0.119391549,37.2056789 0.119391549,23.994862" id="Fill-1" fill="#EBF0F1"></path>
            <path d="M24.3634479,5.83409577 L27.8378366,7.1052169 L24.3634479,8.16703099 L24.3634479,5.83409577" id="Fill-2" fill="#23A1CA"></path>
            <path d="M23.7163268,5.83409577 L24.3634479,5.83409577 L24.3634479,17.7593239 L23.7163268,17.7593239 L23.7163268,5.83409577 Z" id="Fill-3" fill="#212B35"></path>
            <path d="M24.0398873,8.73329577 L17.706862,18.4159099 L30.3727775,18.4159099 L24.0398873,8.73329577" id="Fill-4" fill="#212B35"></path>
            <path d="M17.706862,17.6059944 L30.3727775,17.6059944 L30.3727775,35.2087437 L17.706862,35.2087437 L17.706862,17.6059944 Z" id="Fill-5" fill="#4F6D80"></path>
            <path d="M19.8686197,20.5876732 L19.8686197,15.115538 L16.2807887,15.115538 L16.2807887,16.9998423 C16.2807887,18.9813634 17.8870986,20.5876732 19.8686197,20.5876732" id="Fill-6" fill="#4F6D80"></path>
            <path d="M28.1787042,20.5876732 L28.1787042,15.115538 L31.7665352,15.115538 L31.7665352,16.9998423 C31.7665352,18.9813634 30.1602254,20.5876732 28.1787042,20.5876732" id="Fill-7" fill="#4F6D80"></path>
            <path d="M22.2298141,15.115538 L25.8176451,15.115538 L25.8176451,20.5876732 L22.2298141,20.5876732 L22.2298141,15.115538 Z" id="Fill-8" fill="#4F6D80"></path>
            <path d="M22.2298141,22.8344789 C22.2298141,21.834862 23.0401352,21.0244056 24.0398873,21.0244056 C25.0395042,21.0244056 25.8499606,21.834862 25.8499606,22.8344789 C25.8499606,23.834231 25.0395042,24.6446873 24.0398873,24.6446873 C23.0401352,24.6446873 22.2298141,23.834231 22.2298141,22.8344789" id="Fill-9" fill="#222D32"></path>
            <path d="M13.3503549,22.8344789 L15.7189859,22.8344789 L15.7189859,28.9594141 L13.3503549,28.9594141 L13.3503549,22.8344789 Z" id="Fill-10" fill="#64869A"></path>
            <path d="M11.3797859,26.7958986 L11.3797859,26.7958986 C10.0716169,26.7958986 9.01115493,25.7353014 9.01115493,24.4271324 L9.01115493,22.8344789 L11.3797859,22.8344789 L11.3797859,26.7958986" id="Fill-11" fill="#64869A"></path>
            <path d="M10.1954704,25.1617352 L17.706862,25.1617352 L17.706862,35.2087437 L10.1954704,35.2087437 L10.1954704,25.1617352 Z" id="Fill-12" fill="#64869A"></path>
            <path d="M13.9512338,27.9925183 L13.9512338,27.9925183 C13.2970817,27.9925183 12.7667831,28.5226817 12.7667831,29.1768338 L12.7667831,32.3780958 L15.1355493,32.3780958 L15.1355493,29.1768338 C15.1355493,28.5226817 14.6052507,27.9925183 13.9512338,27.9925183" id="Fill-13" fill="#222D32"></path>
            <path d="M32.3606535,22.8344789 L34.7292845,22.8344789 L34.7292845,28.9594141 L32.3606535,28.9594141 L32.3606535,22.8344789 Z" id="Fill-14" fill="#64869A"></path>
            <path d="M36.6998535,26.7958986 L36.6998535,26.7958986 C38.0080225,26.7958986 39.0684845,25.7353014 39.0684845,24.4271324 L39.0684845,22.8344789 L36.6998535,22.8344789 L36.6998535,26.7958986" id="Fill-15" fill="#64869A"></path>
            <path d="M30.3727775,25.1617352 L37.884169,25.1617352 L37.884169,35.2087437 L30.3727775,35.2087437 L30.3727775,25.1617352 Z" id="Fill-16" fill="#64869A"></path>
            <path d="M34.1285408,27.9925183 L34.1285408,27.9925183 C34.7825577,27.9925183 35.3128563,28.5226817 35.3128563,29.1768338 L35.3128563,32.3780958 L32.9442254,32.3780958 L32.9442254,29.1768338 C32.9442254,28.5226817 33.4743887,27.9925183 34.1285408,27.9925183" id="Fill-17" fill="#222D32"></path>
            <path d="M24.0398873,27.7352113 L24.0398873,27.7352113 C22.4925296,27.7352113 21.2383099,28.989431 21.2383099,30.5367887 L21.2383099,35.2087437 L26.8414648,35.2087437 L26.8414648,30.5367887 C26.8414648,28.989431 25.5871099,27.7352113 24.0398873,27.7352113" id="Fill-18" fill="#222D32"></path>
            <path d="M23.5375775,5.33178592 C23.5375775,5.05433239 23.7624338,4.82947606 24.0398873,4.82947606 C24.3172056,4.82947606 24.5421972,5.05433239 24.5421972,5.33178592 C24.5421972,5.60923944 24.3172056,5.83409577 24.0398873,5.83409577 C23.7624338,5.83409577 23.5375775,5.60923944 23.5375775,5.33178592" id="Fill-19" fill="#212B35"></path>
            <g id="Group-22">
                <mask id="mask-2" fill="white">
                    <use xlink:href="#path-1"></use>
                </mask>
                <g id="Clip-21"></g>
                <path d="M71.3105577,54.4113127 C59.5566423,41.6853634 42.7293296,33.7152 24.0398873,33.7152 C5.35044507,33.7152 -11.4770028,41.6853634 -23.2307831,54.4113127 L71.3105577,54.4113127" id="Fill-20" fill="#61B87C" mask="url(#mask-2)"></path>
            </g>
        </g>
    </g>
</svg>
