<?xml version="1.0" encoding="UTF-8" standalone="no"?>
<svg width="1151px" height="845px" viewBox="0 0 1151 845" version="1.1" xmlns="http://www.w3.org/2000/svg" xmlns:xlink="http://www.w3.org/1999/xlink" xmlns:sketch="http://www.bohemiancoding.com/sketch/ns">
    <!-- Generator: Sketch 3.5.2 (25235) - http://www.bohemiancoding.com/sketch -->
    <title>install jetpack graphic</title>
    <desc>Created with Sketch.</desc>
    <defs></defs>
    <g id="Page-1" stroke="none" stroke-width="1" fill="none" fill-rule="evenodd" sketch:type="MSPage">
        <g id="install-jetpack-graphic" sketch:type="MSArtboardGroup">
            <rect id="Rectangle-29" fill="#C8D7E1" sketch:type="MSShapeGroup" x="0" y="0" width="1151" height="65" rx="10"></rect>
            <rect id="Rectangle-25" fill="#8DC358" sketch:type="MSShapeGroup" x="-2" y="47" width="1156.10619" height="197.845342"></rect>
            <rect id="Rectangle-26" fill="#F3F3F3" sketch:type="MSShapeGroup" x="-0.405370779" y="244.845342" width="1154.51156" height="606.935908"></rect>
            <rect id="Rectangle-27" fill="#FFFFFF" sketch:type="MSShapeGroup" x="30" y="314.997674" width="912.020499" height="391.749541"></rect>
            <g id="Group" sketch:type="MSLayerGroup" transform="translate(889.000000, 479.000000)">
                <rect id="Rectangle-28" fill="#0087BE" sketch:type="MSShapeGroup" x="0" y="262" width="238" height="74" rx="10"></rect>
                <path d="M39.515625,308 L39.515625,288.011719 L43.7539062,288.011719 L43.7539062,308 L39.515625,308 Z M62.5664062,308 L58.3964844,308 L58.3964844,299.072266 C58.3964844,297.969396 58.2005228,297.142255 57.8085938,296.59082 C57.4166647,296.039385 56.792322,295.763672 55.9355469,295.763672 C54.7688744,295.763672 53.9257838,296.153316 53.40625,296.932617 C52.8867162,297.711918 52.6269531,299.003897 52.6269531,300.808594 L52.6269531,308 L48.4570312,308 L48.4570312,292.714844 L51.6425781,292.714844 L52.203125,294.669922 L52.4355469,294.669922 C52.9003929,293.931637 53.540686,293.373374 54.3564453,292.995117 C55.1722046,292.61686 56.0996042,292.427734 57.1386719,292.427734 C58.9160245,292.427734 60.2649694,292.908524 61.1855469,293.870117 C62.1061244,294.831711 62.5664062,296.219392 62.5664062,298.033203 L62.5664062,308 Z M77.5234375,303.460938 C77.5234375,305.028654 76.9788466,306.222652 75.8896484,307.042969 C74.8004503,307.863285 73.1712348,308.273438 71.0019531,308.273438 C69.8899684,308.273438 68.9420612,308.198243 68.1582031,308.047852 C67.374345,307.89746 66.6406284,307.676434 65.9570312,307.384766 L65.9570312,303.939453 C66.7317747,304.304038 67.6044873,304.609374 68.5751953,304.855469 C69.5459033,305.101564 70.4003869,305.224609 71.1386719,305.224609 C72.6517003,305.224609 73.4082031,304.787114 73.4082031,303.912109 C73.4082031,303.583983 73.3079437,303.317384 73.1074219,303.112305 C72.9069,302.907226 72.5605493,302.674806 72.0683594,302.415039 C71.5761694,302.155272 70.919926,301.852215 70.0996094,301.505859 C68.9238222,301.013669 68.0602241,300.557945 67.5087891,300.138672 C66.957354,299.719399 66.5563164,299.238609 66.3056641,298.696289 C66.0550118,298.153969 65.9296875,297.486332 65.9296875,296.693359 C65.9296875,295.33528 66.4560494,294.284834 67.5087891,293.541992 C68.5615287,292.79915 70.0540268,292.427734 71.9863281,292.427734 C73.8274832,292.427734 75.6184809,292.828772 77.359375,293.630859 L76.1015625,296.638672 C75.3359337,296.310545 74.620446,296.041668 73.9550781,295.832031 C73.2897102,295.622395 72.6106805,295.517578 71.9179688,295.517578 C70.6874938,295.517578 70.0722656,295.850257 70.0722656,296.515625 C70.0722656,296.889325 70.2705058,297.212889 70.6669922,297.486328 C71.0634785,297.759767 71.9316339,298.165362 73.2714844,298.703125 C74.4655008,299.1862 75.340492,299.637368 75.8964844,300.056641 C76.4524767,300.475914 76.8626289,300.958982 77.1269531,301.505859 C77.3912774,302.052737 77.5234375,302.704423 77.5234375,303.460938 L77.5234375,303.460938 Z M87.2167969,304.951172 C87.9459672,304.951172 88.8209584,304.791668 89.8417969,304.472656 L89.8417969,307.576172 C88.8027292,308.041018 87.5267003,308.273438 86.0136719,308.273438 C84.3456948,308.273438 83.1311887,307.851892 82.3701172,307.008789 C81.6090457,306.165686 81.2285156,304.90105 81.2285156,303.214844 L81.2285156,295.845703 L79.2324219,295.845703 L79.2324219,294.082031 L81.5292969,292.6875 L82.7324219,289.460938 L85.3984375,289.460938 L85.3984375,292.714844 L89.6777344,292.714844 L89.6777344,295.845703 L85.3984375,295.845703 L85.3984375,303.214844 C85.3984375,303.807295 85.564777,304.24479 85.8974609,304.527344 C86.2301449,304.809897 86.6699191,304.951172 87.2167969,304.951172 L87.2167969,304.951172 Z M102.638672,308 L101.832031,305.921875 L101.722656,305.921875 C101.02083,306.805994 100.298506,307.418944 99.5556641,307.760742 C98.8128218,308.102541 97.844407,308.273438 96.6503906,308.273438 C95.1829354,308.273438 94.0276735,307.854171 93.1845703,307.015625 C92.3414671,306.177079 91.9199219,304.983081 91.9199219,303.433594 C91.9199219,301.81119 92.487299,300.614913 93.6220703,299.844727 C94.7568416,299.07454 96.4680875,298.648438 98.7558594,298.566406 L101.408203,298.484375 L101.408203,297.814453 C101.408203,296.264966 100.615242,295.490234 99.0292969,295.490234 C97.8079366,295.490234 96.3724041,295.859371 94.7226562,296.597656 L93.3417969,293.78125 C95.1009203,292.860672 97.0514216,292.400391 99.1933594,292.400391 C101.244151,292.400391 102.816401,292.847001 103.910156,293.740234 C105.003912,294.633468 105.550781,295.991527 105.550781,297.814453 L105.550781,308 L102.638672,308 Z M101.408203,300.917969 L99.7949219,300.972656 C98.5826762,301.009115 97.6803415,301.227863 97.0878906,301.628906 C96.4954397,302.02995 96.1992188,302.640621 96.1992188,303.460938 C96.1992188,304.636725 96.8736912,305.224609 98.2226562,305.224609 C99.1888069,305.224609 99.9612601,304.946617 100.540039,304.390625 C101.118818,303.834633 101.408203,303.096359 101.408203,302.175781 L101.408203,300.917969 Z M114.013672,308 L109.84375,308 L109.84375,286.726562 L114.013672,286.726562 L114.013672,308 Z M122.558594,308 L118.388672,308 L118.388672,286.726562 L122.558594,286.726562 L122.558594,308 Z M152.267578,308 L146.880859,308 L138.185547,292.878906 L138.0625,292.878906 C138.235678,295.549493 138.322266,297.454421 138.322266,298.59375 L138.322266,308 L134.535156,308 L134.535156,288.011719 L139.880859,288.011719 L148.5625,302.982422 L148.658203,302.982422 C148.521484,300.384753 148.453125,298.548182 148.453125,297.472656 L148.453125,288.011719 L152.267578,288.011719 L152.267578,308 Z M160.292969,300.330078 C160.292969,301.843107 160.541339,302.986975 161.038086,303.761719 C161.534833,304.536462 162.343744,304.923828 163.464844,304.923828 C164.576828,304.923828 165.376625,304.538741 165.864258,303.768555 C166.35189,302.998369 166.595703,301.852221 166.595703,300.330078 C166.595703,298.81705 166.349612,297.682295 165.857422,296.925781 C165.365232,296.169267 164.558599,295.791016 163.4375,295.791016 C162.325515,295.791016 161.52344,296.166988 161.03125,296.918945 C160.53906,297.670902 160.292969,298.807935 160.292969,300.330078 L160.292969,300.330078 Z M170.861328,300.330078 C170.861328,302.818372 170.205085,304.764316 168.892578,306.167969 C167.580072,307.571622 165.752616,308.273438 163.410156,308.273438 C161.942701,308.273438 160.648443,307.952152 159.527344,307.30957 C158.406244,306.666989 157.544925,305.744147 156.943359,304.541016 C156.341794,303.337885 156.041016,301.934253 156.041016,300.330078 C156.041016,297.83267 156.692702,295.891283 157.996094,294.505859 C159.299486,293.120436 161.131499,292.427734 163.492188,292.427734 C164.959643,292.427734 166.253901,292.746742 167.375,293.384766 C168.496099,294.02279 169.357419,294.938796 169.958984,296.132812 C170.56055,297.326829 170.861328,298.725903 170.861328,300.330078 L170.861328,300.330078 Z M186.310547,308 L185.134766,302.654297 L183.548828,295.900391 L183.453125,295.900391 L180.664062,308 L176.179688,308 L171.832031,292.714844 L175.988281,292.714844 L177.751953,299.482422 C178.034507,300.694668 178.321613,302.367177 178.613281,304.5 L178.695312,304.5 C178.731771,303.807288 178.891275,302.708992 179.173828,301.205078 L179.392578,300.042969 L181.279297,292.714844 L185.873047,292.714844 L187.664062,300.042969 C187.700521,300.243491 187.757487,300.539712 187.834961,300.931641 C187.912435,301.32357 187.98763,301.740558 188.060547,302.182617 C188.133464,302.624677 188.199544,303.057615 188.258789,303.481445 C188.318034,303.905276 188.352213,304.24479 188.361328,304.5 L188.443359,304.5 C188.525391,303.843747 188.671223,302.943691 188.880859,301.799805 C189.090496,300.655919 189.240885,299.883466 189.332031,299.482422 L191.164062,292.714844 L195.251953,292.714844 L190.849609,308 L186.310547,308 Z" id="Install-Now" fill="#FFFFFF" sketch:type="MSShapeGroup"></path>
                <path d="M243,169.078409 L187.988696,224.002195 L162.782609,249.168182 L82.5652174,169.078409 L107.771304,143.912423 L144.956522,181.038482 L144.956522,142.381818 C144.956522,83.5069364 96.9686957,35.5954545 38,35.5954545 L38,0 C116.755652,0 180.608696,63.7514591 180.608696,142.381818 L180.608696,181.038482 L217.793913,143.912423 L243,169.078409 L243,169.078409 Z" id="Shape" fill="#D94F4F" sketch:type="MSShapeGroup" transform="translate(140.500000, 124.584091) scale(-1, 1) translate(-140.500000, -124.584091) "></path>
            </g>
            <path d="M1161.5,45.5 L-28.468487,45.5" id="Line" stroke="#F3F6F8" stroke-linecap="square" sketch:type="MSShapeGroup"></path>
            <circle id="Oval-1" stroke="#FFFFFF" fill="#D94F4F" sketch:type="MSShapeGroup" cx="22" cy="23" r="8"></circle>
            <circle id="Oval-1-Copy" stroke="#FFFFFF" fill="#F0B849" sketch:type="MSShapeGroup" cx="46" cy="23" r="8"></circle>
            <circle id="Oval-1-Copy-2" stroke="#FFFFFF" fill="#4AB866" sketch:type="MSShapeGroup" cx="70" cy="23" r="8"></circle>
            <path d="M46.5449219,203.558594 C45.314447,203.558594 44.2421921,203.429689 43.328125,203.171875 L43.328125,198.636719 C44.2656297,198.871095 45.1210899,198.988281 45.8945312,198.988281 C47.0898497,198.988281 47.9453099,198.616215 48.4609375,197.87207 C48.9765651,197.127926 49.234375,195.964852 49.234375,194.382812 L49.234375,170.300781 L54.6835938,170.300781 L54.6835938,194.347656 C54.6835938,197.347671 53.9980537,199.632805 52.6269531,201.203125 C51.2558525,202.773445 49.228529,203.558594 46.5449219,203.558594 L46.5449219,203.558594 Z M68.8691406,179.792969 C67.7324162,179.792969 66.8418001,180.153317 66.1972656,180.874023 C65.5527312,181.59473 65.1835942,182.617181 65.0898438,183.941406 L72.6132812,183.941406 C72.5898436,182.617181 72.244144,181.59473 71.5761719,180.874023 C70.9081998,180.153317 70.0058651,179.792969 68.8691406,179.792969 L68.8691406,179.792969 Z M69.625,196.351562 C66.4609217,196.351562 63.9882902,195.478524 62.2070312,193.732422 C60.4257723,191.986319 59.5351562,189.513688 59.5351562,186.314453 C59.5351562,183.021468 60.3583902,180.475595 62.0048828,178.676758 C63.6513754,176.877921 65.9277198,175.978516 68.8339844,175.978516 C71.611342,175.978516 73.7734298,176.769523 75.3203125,178.351562 C76.8671952,179.933602 77.640625,182.119127 77.640625,184.908203 L77.640625,187.509766 L64.9667969,187.509766 C65.0253909,189.033211 65.4765583,190.222652 66.3203125,191.078125 C67.1640667,191.933598 68.3476486,192.361328 69.8710938,192.361328 C71.0546934,192.361328 72.1738229,192.238282 73.2285156,191.992188 C74.2832084,191.746093 75.3847599,191.353518 76.5332031,190.814453 L76.5332031,194.962891 C75.5956984,195.431643 74.5937553,195.780272 73.5273438,196.008789 C72.4609322,196.237306 71.1601639,196.351562 69.625,196.351562 L69.625,196.351562 Z M90.2792969,192.080078 C91.2168016,192.080078 92.3417903,191.875002 93.6542969,191.464844 L93.6542969,195.455078 C92.3183527,196.052737 90.6777441,196.351562 88.7324219,196.351562 C86.5878799,196.351562 85.0263721,195.809576 84.0478516,194.725586 C83.069331,193.641596 82.5800781,192.015636 82.5800781,189.847656 L82.5800781,180.373047 L80.0136719,180.373047 L80.0136719,178.105469 L82.9667969,176.3125 L84.5136719,172.164062 L87.9414062,172.164062 L87.9414062,176.347656 L93.4433594,176.347656 L93.4433594,180.373047 L87.9414062,180.373047 L87.9414062,189.847656 C87.9414062,190.609379 88.1552713,191.171873 88.5830078,191.535156 C89.0107443,191.898439 89.5761684,192.080078 90.2792969,192.080078 L90.2792969,192.080078 Z M108.419922,196.351562 C106.111317,196.351562 104.300788,195.51368 102.988281,193.837891 L102.707031,193.837891 C102.894532,195.478524 102.988281,196.427733 102.988281,196.685547 L102.988281,204.648438 L97.6269531,204.648438 L97.6269531,176.347656 L101.986328,176.347656 L102.742188,178.896484 L102.988281,178.896484 C104.242194,176.951162 106.099597,175.978516 108.560547,175.978516 C110.880871,175.978516 112.697259,176.874991 114.009766,178.667969 C115.322272,180.460946 115.978516,182.951156 115.978516,186.138672 C115.978516,188.236339 115.670902,190.058586 115.055664,191.605469 C114.440427,193.152351 113.564459,194.330074 112.427734,195.138672 C111.29101,195.94727 109.955086,196.351562 108.419922,196.351562 L108.419922,196.351562 Z M106.837891,180.267578 C105.513665,180.267578 104.546878,180.674801 103.9375,181.489258 C103.328122,182.303715 103.011719,183.648428 102.988281,185.523438 L102.988281,186.103516 C102.988281,188.212901 103.301755,189.724605 103.928711,190.638672 C104.555667,191.552739 105.548821,192.009766 106.908203,192.009766 C109.310559,192.009766 110.511719,190.029317 110.511719,186.068359 C110.511719,184.134756 110.215823,182.684575 109.624023,181.717773 C109.032224,180.750972 108.103522,180.267578 106.837891,180.267578 L106.837891,180.267578 Z M132.888672,196 L131.851562,193.328125 L131.710938,193.328125 C130.808589,194.464849 129.879888,195.252927 128.924805,195.692383 C127.969722,196.131838 126.724617,196.351562 125.189453,196.351562 C123.302725,196.351562 121.817388,195.812505 120.733398,194.734375 C119.649409,193.656245 119.107422,192.121104 119.107422,190.128906 C119.107422,188.042958 119.836907,186.504888 121.295898,185.514648 C122.75489,184.524409 124.955063,183.976563 127.896484,183.871094 L131.306641,183.765625 L131.306641,182.904297 C131.306641,180.912099 130.28712,179.916016 128.248047,179.916016 C126.677727,179.916016 124.832042,180.39062 122.710938,181.339844 L120.935547,177.71875 C123.197277,176.53515 125.705064,175.943359 128.458984,175.943359 C131.095716,175.943359 133.11718,176.517572 134.523438,177.666016 C135.929695,178.814459 136.632812,180.560535 136.632812,182.904297 L136.632812,196 L132.888672,196 Z M131.306641,186.894531 L129.232422,186.964844 C127.67382,187.011719 126.513676,187.292966 125.751953,187.808594 C124.990231,188.324221 124.609375,189.10937 124.609375,190.164062 C124.609375,191.675789 125.476554,192.431641 127.210938,192.431641 C128.453131,192.431641 129.446285,192.074222 130.19043,191.359375 C130.934574,190.644528 131.306641,189.695318 131.306641,188.511719 L131.306641,186.894531 Z M150.132812,196.351562 C144.015594,196.351562 140.957031,192.994174 140.957031,186.279297 C140.957031,182.939436 141.789054,180.387704 143.453125,178.624023 C145.117196,176.860343 147.501938,175.978516 150.607422,175.978516 C152.880871,175.978516 154.919913,176.423824 156.724609,177.314453 L155.142578,181.462891 C154.298824,181.123045 153.513676,180.844728 152.787109,180.62793 C152.060543,180.411132 151.333988,180.302734 150.607422,180.302734 C147.818345,180.302734 146.423828,182.283183 146.423828,186.244141 C146.423828,190.08791 147.818345,192.009766 150.607422,192.009766 C151.638677,192.009766 152.593746,191.872072 153.472656,191.59668 C154.351567,191.321288 155.230464,190.890628 156.109375,190.304688 L156.109375,194.892578 C155.242183,195.443362 154.366215,195.824218 153.481445,196.035156 C152.596675,196.246095 151.480475,196.351562 150.132812,196.351562 L150.132812,196.351562 Z M165.8125,185.3125 L168.150391,182.324219 L173.652344,176.347656 L179.699219,176.347656 L171.894531,184.873047 L180.173828,196 L173.986328,196 L168.326172,188.037109 L166.023438,189.882812 L166.023438,196 L160.662109,196 L160.662109,168.648438 L166.023438,168.648438 L166.023438,180.847656 L165.742188,185.3125 L165.8125,185.3125 Z M203.271484,175.978516 C205.591808,175.978516 207.408197,176.88378 208.720703,178.694336 C210.03321,180.504892 210.689453,182.986312 210.689453,186.138672 C210.689453,189.384782 210.012702,191.898429 208.65918,193.679688 C207.305657,195.460946 205.462902,196.351562 203.130859,196.351562 C200.822254,196.351562 199.011725,195.51368 197.699219,193.837891 L197.330078,193.837891 L196.433594,196 L192.337891,196 L192.337891,168.648438 L197.699219,168.648438 L197.699219,175.011719 C197.699219,175.820317 197.628907,177.115225 197.488281,178.896484 L197.699219,178.896484 C198.953131,176.951162 200.810535,175.978516 203.271484,175.978516 L203.271484,175.978516 Z M201.548828,180.267578 C200.224603,180.267578 199.257816,180.674801 198.648438,181.489258 C198.039059,182.303715 197.722656,183.648428 197.699219,185.523438 L197.699219,186.103516 C197.699219,188.212901 198.012692,189.724605 198.639648,190.638672 C199.266605,191.552739 200.259759,192.009766 201.619141,192.009766 C202.720709,192.009766 203.596676,191.502935 204.24707,190.489258 C204.897464,189.475581 205.222656,188.001963 205.222656,186.068359 C205.222656,184.134756 204.894535,182.684575 204.238281,181.717773 C203.582028,180.750972 202.685553,180.267578 201.548828,180.267578 L201.548828,180.267578 Z M211.585938,176.347656 L217.457031,176.347656 L221.166016,187.404297 C221.482423,188.365239 221.699218,189.501947 221.816406,190.814453 L221.921875,190.814453 C222.050782,189.607416 222.302732,188.470708 222.677734,187.404297 L226.316406,176.347656 L232.064453,176.347656 L223.75,198.513672 C222.988277,200.564463 221.901374,202.099604 220.489258,203.119141 C219.077141,204.138677 217.427744,204.648438 215.541016,204.648438 C214.61523,204.648438 213.707036,204.548829 212.816406,204.349609 L212.816406,200.095703 C213.460941,200.248048 214.164059,200.324219 214.925781,200.324219 C215.875005,200.324219 216.704098,200.034183 217.413086,199.454102 C218.122074,198.874021 218.675779,197.998053 219.074219,196.826172 L219.390625,195.859375 L211.585938,176.347656 Z M269.681641,196 L263.476562,196 L259.996094,182.5 C259.867187,182.019529 259.647462,181.026375 259.336914,179.520508 C259.026366,178.014641 258.847656,177.003909 258.800781,176.488281 C258.730468,177.121097 258.554689,178.137688 258.273438,179.538086 C257.992186,180.938484 257.775391,181.937497 257.623047,182.535156 L254.160156,196 L247.972656,196 L241.416016,170.300781 L246.777344,170.300781 L250.064453,184.328125 C250.638675,186.917982 251.054686,189.1621 251.3125,191.060547 C251.382813,190.392575 251.543944,189.358405 251.795898,187.958008 C252.047853,186.55761 252.285155,185.470707 252.507812,184.697266 L256.251953,170.300781 L261.402344,170.300781 L265.146484,184.697266 C265.310548,185.3418 265.515624,186.326165 265.761719,187.650391 C266.007814,188.974616 266.195312,190.111323 266.324219,191.060547 C266.441407,190.14648 266.628905,189.006843 266.886719,187.641602 C267.144533,186.27636 267.378905,185.171879 267.589844,184.328125 L270.859375,170.300781 L276.220703,170.300781 L269.681641,196 Z M282.583984,186.138672 C282.583984,188.083994 282.903317,189.554683 283.541992,190.550781 C284.180667,191.54688 285.220696,192.044922 286.662109,192.044922 C288.091804,192.044922 289.120114,191.54981 289.74707,190.55957 C290.374027,189.569331 290.6875,188.095713 290.6875,186.138672 C290.6875,184.19335 290.371097,182.73438 289.738281,181.761719 C289.105466,180.789058 288.068367,180.302734 286.626953,180.302734 C285.197258,180.302734 284.166019,180.786128 283.533203,181.75293 C282.900387,182.719731 282.583984,184.181631 282.583984,186.138672 L282.583984,186.138672 Z M296.171875,186.138672 C296.171875,189.337907 295.328133,191.839835 293.640625,193.644531 C291.953117,195.449228 289.603531,196.351562 286.591797,196.351562 C284.705069,196.351562 283.041023,195.938481 281.599609,195.112305 C280.158196,194.286129 279.050785,193.099617 278.277344,191.552734 C277.503902,190.005852 277.117188,188.201182 277.117188,186.138672 C277.117188,182.927718 277.95507,180.43165 279.630859,178.650391 C281.306649,176.869132 283.662094,175.978516 286.697266,175.978516 C288.583994,175.978516 290.24804,176.388668 291.689453,177.208984 C293.130867,178.029301 294.238277,179.207024 295.011719,180.742188 C295.78516,182.277351 296.171875,184.076162 296.171875,186.138672 L296.171875,186.138672 Z M311.570312,175.978516 C312.296879,175.978516 312.900388,176.031249 313.380859,176.136719 L312.976562,181.164062 C312.542967,181.046874 312.015628,180.988281 311.394531,180.988281 C309.683585,180.988281 308.350591,181.42773 307.395508,182.306641 C306.440425,183.185551 305.962891,184.416008 305.962891,185.998047 L305.962891,196 L300.601562,196 L300.601562,176.347656 L304.662109,176.347656 L305.453125,179.652344 L305.716797,179.652344 C306.326175,178.550776 307.149409,177.663089 308.186523,176.989258 C309.223638,176.315426 310.351556,175.978516 311.570312,175.978516 L311.570312,175.978516 Z M322.451172,196.351562 C320.142567,196.351562 318.329108,195.455087 317.010742,193.662109 C315.692376,191.869132 315.033203,189.384782 315.033203,186.208984 C315.033203,182.986312 315.704095,180.475595 317.045898,178.676758 C318.387702,176.877921 320.236316,175.978516 322.591797,175.978516 C325.064465,175.978516 326.951165,176.939444 328.251953,178.861328 L328.427734,178.861328 C328.158202,177.396477 328.023438,176.089849 328.023438,174.941406 L328.023438,168.648438 L333.402344,168.648438 L333.402344,196 L329.289062,196 L328.251953,193.451172 L328.023438,193.451172 C326.804681,195.384775 324.947278,196.351562 322.451172,196.351562 L322.451172,196.351562 Z M324.332031,192.080078 C325.703132,192.080078 326.708005,191.681645 327.34668,190.884766 C327.985355,190.087887 328.333984,188.734385 328.392578,186.824219 L328.392578,186.244141 C328.392578,184.134755 328.067386,182.623051 327.416992,181.708984 C326.766598,180.794917 325.708992,180.337891 324.244141,180.337891 C323.048822,180.337891 322.12012,180.844721 321.458008,181.858398 C320.795895,182.872075 320.464844,184.345693 320.464844,186.279297 C320.464844,188.2129 320.798825,189.663081 321.466797,190.629883 C322.134769,191.596685 323.089838,192.080078 324.332031,192.080078 L324.332031,192.080078 Z M344.880859,182.394531 L346.673828,182.394531 C348.349618,182.394531 349.603511,182.06348 350.435547,181.401367 C351.267582,180.739255 351.683594,179.775397 351.683594,178.509766 C351.683594,177.232415 351.334964,176.289066 350.637695,175.679688 C349.940426,175.070309 348.847664,174.765625 347.359375,174.765625 L344.880859,174.765625 L344.880859,182.394531 Z M357.185547,178.316406 C357.185547,181.082045 356.321298,183.197258 354.592773,184.662109 C352.864249,186.12696 350.406266,186.859375 347.21875,186.859375 L344.880859,186.859375 L344.880859,196 L339.431641,196 L339.431641,170.300781 L347.640625,170.300781 C350.757828,170.300781 353.127922,170.971673 354.750977,172.313477 C356.374032,173.65528 357.185547,175.656237 357.185547,178.316406 L357.185547,178.316406 Z M372.583984,175.978516 C373.310551,175.978516 373.91406,176.031249 374.394531,176.136719 L373.990234,181.164062 C373.556638,181.046874 373.0293,180.988281 372.408203,180.988281 C370.697257,180.988281 369.364263,181.42773 368.40918,182.306641 C367.454097,183.185551 366.976562,184.416008 366.976562,185.998047 L366.976562,196 L361.615234,196 L361.615234,176.347656 L365.675781,176.347656 L366.466797,179.652344 L366.730469,179.652344 C367.339847,178.550776 368.163081,177.663089 369.200195,176.989258 C370.23731,176.315426 371.365228,175.978516 372.583984,175.978516 L372.583984,175.978516 Z M385.380859,179.792969 C384.244135,179.792969 383.353519,180.153317 382.708984,180.874023 C382.06445,181.59473 381.695313,182.617181 381.601562,183.941406 L389.125,183.941406 C389.101562,182.617181 388.755863,181.59473 388.087891,180.874023 C387.419919,180.153317 386.517584,179.792969 385.380859,179.792969 L385.380859,179.792969 Z M386.136719,196.351562 C382.97264,196.351562 380.500009,195.478524 378.71875,193.732422 C376.937491,191.986319 376.046875,189.513688 376.046875,186.314453 C376.046875,183.021468 376.870109,180.475595 378.516602,178.676758 C380.163094,176.877921 382.439439,175.978516 385.345703,175.978516 C388.123061,175.978516 390.285149,176.769523 391.832031,178.351562 C393.378914,179.933602 394.152344,182.119127 394.152344,184.908203 L394.152344,187.509766 L381.478516,187.509766 C381.53711,189.033211 381.988277,190.222652 382.832031,191.078125 C383.675785,191.933598 384.859367,192.361328 386.382812,192.361328 C387.566412,192.361328 388.685542,192.238282 389.740234,191.992188 C390.794927,191.746093 391.896479,191.353518 393.044922,190.814453 L393.044922,194.962891 C392.107417,195.431643 391.105474,195.780272 390.039062,196.008789 C388.972651,196.237306 387.671883,196.351562 386.136719,196.351562 L386.136719,196.351562 Z M412.222656,190.164062 C412.222656,192.179698 411.522468,193.714838 410.12207,194.769531 C408.721673,195.824224 406.626967,196.351562 403.837891,196.351562 C402.408196,196.351562 401.189458,196.254884 400.181641,196.061523 C399.173823,195.868163 398.230473,195.583986 397.351562,195.208984 L397.351562,190.779297 C398.347661,191.248049 399.46972,191.640623 400.717773,191.957031 C401.965827,192.273439 403.064448,192.431641 404.013672,192.431641 C405.958994,192.431641 406.931641,191.869146 406.931641,190.744141 C406.931641,190.322264 406.802736,189.979494 406.544922,189.71582 C406.287108,189.452147 405.8418,189.153322 405.208984,188.819336 C404.576169,188.48535 403.732427,188.095705 402.677734,187.650391 C401.166008,187.017575 400.055668,186.431643 399.34668,185.892578 C398.637692,185.353513 398.122072,184.735355 397.799805,184.038086 C397.477537,183.340817 397.316406,182.482427 397.316406,181.462891 C397.316406,179.716788 397.993157,178.366216 399.34668,177.411133 C400.700202,176.45605 402.619128,175.978516 405.103516,175.978516 C407.470715,175.978516 409.773426,176.494135 412.011719,177.525391 L410.394531,181.392578 C409.410151,180.970701 408.490239,180.625001 407.634766,180.355469 C406.779293,180.085936 405.906254,179.951172 405.015625,179.951172 C403.433586,179.951172 402.642578,180.378902 402.642578,181.234375 C402.642578,181.714846 402.897458,182.130858 403.407227,182.482422 C403.916995,182.833986 405.033195,183.355465 406.755859,184.046875 C408.291023,184.667972 409.416012,185.248044 410.130859,185.787109 C410.845707,186.326175 411.373045,186.947262 411.712891,187.650391 C412.052736,188.353519 412.222656,189.191401 412.222656,190.164062 L412.222656,190.164062 Z M430.117188,190.164062 C430.117188,192.179698 429.416999,193.714838 428.016602,194.769531 C426.616204,195.824224 424.521498,196.351562 421.732422,196.351562 C420.302727,196.351562 419.083989,196.254884 418.076172,196.061523 C417.068354,195.868163 416.125004,195.583986 415.246094,195.208984 L415.246094,190.779297 C416.242192,191.248049 417.364252,191.640623 418.612305,191.957031 C419.860358,192.273439 420.95898,192.431641 421.908203,192.431641 C423.853525,192.431641 424.826172,191.869146 424.826172,190.744141 C424.826172,190.322264 424.697267,189.979494 424.439453,189.71582 C424.181639,189.452147 423.736331,189.153322 423.103516,188.819336 C422.4707,188.48535 421.626958,188.095705 420.572266,187.650391 C419.060539,187.017575 417.950199,186.431643 417.241211,185.892578 C416.532223,185.353513 416.016603,184.735355 415.694336,184.038086 C415.372069,183.340817 415.210938,182.482427 415.210938,181.462891 C415.210938,179.716788 415.887689,178.366216 417.241211,177.411133 C418.594733,176.45605 420.513659,175.978516 422.998047,175.978516 C425.365246,175.978516 427.667958,176.494135 429.90625,177.525391 L428.289062,181.392578 C427.304683,180.970701 426.38477,180.625001 425.529297,180.355469 C424.673824,180.085936 423.800786,179.951172 422.910156,179.951172 C421.328117,179.951172 420.537109,180.378902 420.537109,181.234375 C420.537109,181.714846 420.79199,182.130858 421.301758,182.482422 C421.811526,182.833986 422.927726,183.355465 424.650391,184.046875 C426.185555,184.667972 427.310543,185.248044 428.025391,185.787109 C428.740238,186.326175 429.267576,186.947262 429.607422,187.650391 C429.947267,188.353519 430.117188,189.191401 430.117188,190.164062 L430.117188,190.164062 Z M433.544922,193.486328 C433.544922,192.501948 433.808591,191.757815 434.335938,191.253906 C434.863284,190.749997 435.630854,190.498047 436.638672,190.498047 C437.611333,190.498047 438.364255,190.755857 438.897461,191.271484 C439.430667,191.787112 439.697266,192.525386 439.697266,193.486328 C439.697266,194.412114 439.427737,195.141599 438.888672,195.674805 C438.349607,196.20801 437.599614,196.474609 436.638672,196.474609 C435.654292,196.474609 434.892581,196.21387 434.353516,195.692383 C433.81445,195.170896 433.544922,194.435552 433.544922,193.486328 L433.544922,193.486328 Z M452.546875,196.351562 C446.429657,196.351562 443.371094,192.994174 443.371094,186.279297 C443.371094,182.939436 444.203117,180.387704 445.867188,178.624023 C447.531258,176.860343 449.916,175.978516 453.021484,175.978516 C455.294933,175.978516 457.333975,176.423824 459.138672,177.314453 L457.556641,181.462891 C456.712886,181.123045 455.927738,180.844728 455.201172,180.62793 C454.474606,180.411132 453.748051,180.302734 453.021484,180.302734 C450.232408,180.302734 448.837891,182.283183 448.837891,186.244141 C448.837891,190.08791 450.232408,192.009766 453.021484,192.009766 C454.05274,192.009766 455.007808,191.872072 455.886719,191.59668 C456.765629,191.321288 457.644527,190.890628 458.523438,190.304688 L458.523438,194.892578 C457.656246,195.443362 456.780278,195.824218 455.895508,196.035156 C455.010738,196.246095 453.894538,196.351562 452.546875,196.351562 L452.546875,196.351562 Z M467.347656,186.138672 C467.347656,188.083994 467.666989,189.554683 468.305664,190.550781 C468.944339,191.54688 469.984368,192.044922 471.425781,192.044922 C472.855476,192.044922 473.883786,191.54981 474.510742,190.55957 C475.137698,189.569331 475.451172,188.095713 475.451172,186.138672 C475.451172,184.19335 475.134769,182.73438 474.501953,181.761719 C473.869137,180.789058 472.832038,180.302734 471.390625,180.302734 C469.96093,180.302734 468.929691,180.786128 468.296875,181.75293 C467.664059,182.719731 467.347656,184.181631 467.347656,186.138672 L467.347656,186.138672 Z M480.935547,186.138672 C480.935547,189.337907 480.091805,191.839835 478.404297,193.644531 C476.716788,195.449228 474.367203,196.351562 471.355469,196.351562 C469.468741,196.351562 467.804695,195.938481 466.363281,195.112305 C464.921868,194.286129 463.814457,193.099617 463.041016,191.552734 C462.267574,190.005852 461.880859,188.201182 461.880859,186.138672 C461.880859,182.927718 462.718742,180.43165 464.394531,178.650391 C466.070321,176.869132 468.425766,175.978516 471.460938,175.978516 C473.347666,175.978516 475.011712,176.388668 476.453125,177.208984 C477.894538,178.029301 479.001949,179.207024 479.775391,180.742188 C480.548832,182.277351 480.935547,184.076162 480.935547,186.138672 L480.935547,186.138672 Z M502.960938,196 L497.599609,196 L497.599609,184.521484 C497.599609,183.103509 497.362307,182.040043 496.887695,181.331055 C496.413084,180.622067 495.666021,180.267578 494.646484,180.267578 C493.275384,180.267578 492.2793,180.771479 491.658203,181.779297 C491.037106,182.787114 490.726562,184.445301 490.726562,186.753906 L490.726562,196 L485.365234,196 L485.365234,176.347656 L489.460938,176.347656 L490.181641,178.861328 L490.480469,178.861328 C491.007815,177.95898 491.769526,177.252932 492.765625,176.743164 C493.761724,176.233396 494.90429,175.978516 496.193359,175.978516 C499.13478,175.978516 501.126948,176.939444 502.169922,178.861328 L502.644531,178.861328 C503.171878,177.947261 503.948237,177.238284 504.973633,176.734375 C505.999029,176.230466 507.156244,175.978516 508.445312,175.978516 C510.671886,175.978516 512.35644,176.549799 513.499023,177.692383 C514.641607,178.834967 515.212891,180.666003 515.212891,183.185547 L515.212891,196 L509.833984,196 L509.833984,184.521484 C509.833984,183.103509 509.596682,182.040043 509.12207,181.331055 C508.647459,180.622067 507.900396,180.267578 506.880859,180.267578 C505.568353,180.267578 504.586917,180.736323 503.936523,181.673828 C503.28613,182.611333 502.960938,184.099599 502.960938,186.138672 L502.960938,196 Z" id="Jetpack-by-WordPress" fill="#FFFFFF" sketch:type="MSShapeGroup"></path>
            <path d="M449.453125,28 L445.09375,16.609375 L445.023438,16.609375 C445.105469,17.5117233 445.146484,18.5839782 445.146484,19.8261719 L445.146484,28 L443.766602,28 L443.766602,15.1503906 L446.016602,15.1503906 L450.085938,25.75 L450.15625,25.75 L454.260742,15.1503906 L456.493164,15.1503906 L456.493164,28 L454.999023,28 L454.999023,19.7207031 C454.999023,18.7714796 455.040039,17.7402399 455.12207,16.6269531 L455.051758,16.6269531 L450.657227,28 L449.453125,28 Z M458.268555,18.3671875 L459.833008,18.3671875 L461.942383,23.8603516 C462.405276,25.1142641 462.692382,26.0195285 462.803711,26.5761719 L462.874023,26.5761719 C462.950196,26.2773423 463.109862,25.7661169 463.353027,25.0424805 C463.596193,24.318844 464.391595,22.0937686 465.739258,18.3671875 L467.303711,18.3671875 L463.164062,29.3359375 C462.753904,30.4199273 462.274905,31.1889626 461.727051,31.6430664 C461.179196,32.0971702 460.50684,32.3242188 459.709961,32.3242188 C459.264646,32.3242188 458.825197,32.2744146 458.391602,32.1748047 L458.391602,31.0058594 C458.713869,31.0761722 459.074217,31.1113281 459.472656,31.1113281 C460.474614,31.1113281 461.189451,30.5488338 461.617188,29.4238281 L462.15332,28.0527344 L458.268555,18.3671875 Z M484.978516,28 L483.501953,28 L480.90918,19.3955078 C480.786132,19.0146465 480.648438,18.5341826 480.496094,17.9541016 C480.343749,17.3740205 480.264648,17.0253912 480.258789,16.9082031 C480.129882,17.6816445 479.924806,18.5283157 479.643555,19.4482422 L477.129883,28 L475.65332,28 L472.234375,15.1503906 L473.816406,15.1503906 L475.84668,23.0869141 C476.127931,24.2002009 476.333007,25.2080033 476.461914,26.1103516 C476.620118,25.0380806 476.854491,23.9892629 477.165039,22.9638672 L479.467773,15.1503906 L481.049805,15.1503906 L483.466797,23.0341797 C483.748048,23.9423874 483.985351,24.9677677 484.178711,26.1103516 C484.29004,25.2783162 484.500975,24.2646544 484.811523,23.0693359 L486.833008,15.1503906 L488.415039,15.1503906 L484.978516,28 Z M498.162109,23.1748047 C498.162109,24.745125 497.766606,25.971187 496.975586,26.8530273 C496.184566,27.7348677 495.091804,28.1757812 493.697266,28.1757812 C492.835933,28.1757812 492.071292,27.9736348 491.40332,27.5693359 C490.735348,27.165037 490.219728,26.5849647 489.856445,25.8291016 C489.493162,25.0732384 489.311523,24.1884816 489.311523,23.1748047 C489.311523,21.6044843 489.704098,20.381352 490.489258,19.5053711 C491.274418,18.6293902 492.364251,18.1914062 493.758789,18.1914062 C495.106452,18.1914062 496.177242,18.639644 496.971191,19.5361328 C497.765141,20.4326217 498.162109,21.6455002 498.162109,23.1748047 L498.162109,23.1748047 Z M490.823242,23.1748047 C490.823242,24.4052796 491.069333,25.3427702 491.561523,25.9873047 C492.053713,26.6318392 492.777339,26.9541016 493.732422,26.9541016 C494.687505,26.9541016 495.412595,26.633304 495.907715,25.9916992 C496.402835,25.3500944 496.650391,24.411139 496.650391,23.1748047 C496.650391,21.9501892 496.402835,21.0200227 495.907715,20.3842773 C495.412595,19.748532 494.681645,19.4306641 493.714844,19.4306641 C492.759761,19.4306641 492.039065,19.7441375 491.552734,20.3710938 C491.066404,20.99805 490.823242,21.932611 490.823242,23.1748047 L490.823242,23.1748047 Z M505.114258,18.1914062 C505.541994,18.1914062 505.92578,18.2265621 506.265625,18.296875 L506.063477,19.6503906 C505.665037,19.5624996 505.313478,19.5185547 505.008789,19.5185547 C504.229488,19.5185547 503.562991,19.8349578 503.009277,20.4677734 C502.455564,21.1005891 502.178711,21.8886672 502.178711,22.8320312 L502.178711,28 L500.719727,28 L500.719727,18.3671875 L501.923828,18.3671875 L502.09082,20.1513672 L502.161133,20.1513672 C502.518556,19.5244109 502.949216,19.0410173 503.453125,18.7011719 C503.957034,18.3613264 504.510739,18.1914062 505.114258,18.1914062 L505.114258,18.1914062 Z M514.263672,26.7080078 L514.18457,26.7080078 C513.510739,27.6865283 512.502936,28.1757812 511.161133,28.1757812 C509.901361,28.1757812 508.92139,27.7451215 508.221191,26.8837891 C507.520993,26.0224566 507.170898,24.7978595 507.170898,23.2099609 C507.170898,21.6220624 507.522457,20.3886763 508.225586,19.5097656 C508.928714,18.630855 509.90722,18.1914062 511.161133,18.1914062 C512.46778,18.1914062 513.469723,18.6660109 514.166992,19.6152344 L514.28125,19.6152344 L514.219727,18.9208984 L514.18457,18.2441406 L514.18457,14.3242188 L515.643555,14.3242188 L515.643555,28 L514.457031,28 L514.263672,26.7080078 Z M511.345703,26.9541016 C512.341802,26.9541016 513.063963,26.6831082 513.512207,26.1411133 C513.960451,25.5991184 514.18457,24.7246154 514.18457,23.5175781 L514.18457,23.2099609 C514.18457,21.8447197 513.957522,20.8706084 513.503418,20.2875977 C513.049314,19.7045869 512.324224,19.4130859 511.328125,19.4130859 C510.472652,19.4130859 509.817873,19.7456021 509.36377,20.4106445 C508.909666,21.0756869 508.682617,22.0146424 508.682617,23.2275391 C508.682617,24.458014 508.908201,25.3867156 509.359375,26.0136719 C509.810549,26.6406281 510.472652,26.9541016 511.345703,26.9541016 L511.345703,26.9541016 Z M527.104492,18.8945312 C527.104492,20.195319 526.660649,21.1957973 525.772949,21.8959961 C524.885249,22.5961949 523.615243,22.9462891 521.962891,22.9462891 L520.451172,22.9462891 L520.451172,28 L518.957031,28 L518.957031,15.1503906 L522.288086,15.1503906 C525.499039,15.1503906 527.104492,16.398425 527.104492,18.8945312 L527.104492,18.8945312 Z M520.451172,21.6630859 L521.795898,21.6630859 C523.120124,21.6630859 524.078122,21.4492209 524.669922,21.0214844 C525.261722,20.5937479 525.557617,19.9082078 525.557617,18.9648438 C525.557617,18.1152301 525.2793,17.482424 524.722656,17.0664062 C524.166013,16.6503885 523.298834,16.4423828 522.121094,16.4423828 L520.451172,16.4423828 L520.451172,21.6630859 Z M533.96875,18.1914062 C534.396487,18.1914062 534.780272,18.2265621 535.120117,18.296875 L534.917969,19.6503906 C534.519529,19.5624996 534.16797,19.5185547 533.863281,19.5185547 C533.08398,19.5185547 532.417483,19.8349578 531.86377,20.4677734 C531.310056,21.1005891 531.033203,21.8886672 531.033203,22.8320312 L531.033203,28 L529.574219,28 L529.574219,18.3671875 L530.77832,18.3671875 L530.945312,20.1513672 L531.015625,20.1513672 C531.373049,19.5244109 531.803708,19.0410173 532.307617,18.7011719 C532.811526,18.3613264 533.365231,18.1914062 533.96875,18.1914062 L533.96875,18.1914062 Z M540.630859,28.1757812 C539.207024,28.1757812 538.0835,27.7421918 537.260254,26.875 C536.437008,26.0078082 536.025391,24.8037186 536.025391,23.2626953 C536.025391,21.7099532 536.407711,20.4765671 537.172363,19.5625 C537.937016,18.6484329 538.963861,18.1914062 540.25293,18.1914062 C541.459967,18.1914062 542.415036,18.5883749 543.118164,19.3823242 C543.821293,20.1762735 544.172852,21.2236263 544.172852,22.5244141 L544.172852,23.4472656 L537.537109,23.4472656 C537.566406,24.5781307 537.852048,25.4365205 538.394043,26.0224609 C538.936038,26.6084014 539.699214,26.9013672 540.683594,26.9013672 C541.720708,26.9013672 542.746089,26.6845725 543.759766,26.2509766 L543.759766,27.5517578 C543.244138,27.7744152 542.75635,27.9340815 542.296387,28.0307617 C541.836423,28.1274419 541.281253,28.1757812 540.630859,28.1757812 L540.630859,28.1757812 Z M540.235352,19.4130859 C539.46191,19.4130859 538.845217,19.6650365 538.385254,20.1689453 C537.925291,20.6728541 537.654297,21.3701127 537.572266,22.2607422 L542.608398,22.2607422 C542.608398,21.3408157 542.403322,20.6362329 541.993164,20.1469727 C541.583006,19.6577124 540.997074,19.4130859 540.235352,19.4130859 L540.235352,19.4130859 Z M552.874023,25.3720703 C552.874023,26.2685592 552.540042,26.9599585 551.87207,27.4462891 C551.204098,27.9326196 550.266608,28.1757812 549.05957,28.1757812 C547.78222,28.1757812 546.786136,27.9736348 546.071289,27.5693359 L546.071289,26.2158203 C546.534182,26.4501965 547.030759,26.634765 547.561035,26.7695312 C548.091311,26.9042975 548.602537,26.9716797 549.094727,26.9716797 C549.856449,26.9716797 550.442381,26.8500989 550.852539,26.6069336 C551.262697,26.3637683 551.467773,25.9931666 551.467773,25.4951172 C551.467773,25.1201153 551.305177,24.7993177 550.97998,24.5327148 C550.654784,24.2661119 550.020513,23.9511737 549.077148,23.5878906 C548.18066,23.2539046 547.543459,22.9624036 547.165527,22.7133789 C546.787596,22.4643542 546.506349,22.1816422 546.321777,21.8652344 C546.137206,21.5488265 546.044922,21.1709006 546.044922,20.7314453 C546.044922,19.9462851 546.364255,19.3266624 547.00293,18.8725586 C547.641605,18.4184548 548.517573,18.1914062 549.630859,18.1914062 C550.667974,18.1914062 551.681636,18.4023416 552.671875,18.8242188 L552.15332,20.0107422 C551.186519,19.6123027 550.310551,19.4130859 549.525391,19.4130859 C548.833981,19.4130859 548.312502,19.5214833 547.960938,19.7382812 C547.609373,19.9550792 547.433594,20.2539043 547.433594,20.6347656 C547.433594,20.8925794 547.499511,21.1123038 547.631348,21.2939453 C547.763184,21.4755868 547.975584,21.6484367 548.268555,21.8125 C548.561525,21.9765633 549.124019,22.2138656 549.956055,22.5244141 C551.098639,22.9404318 551.870603,23.3593729 552.271973,23.78125 C552.673342,24.2031271 552.874023,24.7333952 552.874023,25.3720703 L552.874023,25.3720703 Z M561.460938,25.3720703 C561.460938,26.2685592 561.126956,26.9599585 560.458984,27.4462891 C559.791012,27.9326196 558.853522,28.1757812 557.646484,28.1757812 C556.369134,28.1757812 555.37305,27.9736348 554.658203,27.5693359 L554.658203,26.2158203 C555.121096,26.4501965 555.617673,26.634765 556.147949,26.7695312 C556.678225,26.9042975 557.189451,26.9716797 557.681641,26.9716797 C558.443363,26.9716797 559.029295,26.8500989 559.439453,26.6069336 C559.849611,26.3637683 560.054688,25.9931666 560.054688,25.4951172 C560.054688,25.1201153 559.892091,24.7993177 559.566895,24.5327148 C559.241698,24.2661119 558.607427,23.9511737 557.664062,23.5878906 C556.767574,23.2539046 556.130373,22.9624036 555.752441,22.7133789 C555.37451,22.4643542 555.093263,22.1816422 554.908691,21.8652344 C554.72412,21.5488265 554.631836,21.1709006 554.631836,20.7314453 C554.631836,19.9462851 554.951169,19.3266624 555.589844,18.8725586 C556.228519,18.4184548 557.104487,18.1914062 558.217773,18.1914062 C559.254888,18.1914062 560.26855,18.4023416 561.258789,18.8242188 L560.740234,20.0107422 C559.773433,19.6123027 558.897465,19.4130859 558.112305,19.4130859 C557.420895,19.4130859 556.899416,19.5214833 556.547852,19.7382812 C556.196287,19.9550792 556.020508,20.2539043 556.020508,20.6347656 C556.020508,20.8925794 556.086425,21.1123038 556.218262,21.2939453 C556.350098,21.4755868 556.562499,21.6484367 556.855469,21.8125 C557.148439,21.9765633 557.710933,22.2138656 558.542969,22.5244141 C559.685553,22.9404318 560.457518,23.3593729 560.858887,23.78125 C561.260256,24.2031271 561.460938,24.7333952 561.460938,25.3720703 L561.460938,25.3720703 Z M575.980469,24.5810547 C575.980469,25.7119197 575.570317,26.5937468 574.75,27.2265625 C573.929683,27.8593782 572.816413,28.1757812 571.410156,28.1757812 C569.886711,28.1757812 568.714848,27.9794942 567.894531,27.5869141 L567.894531,26.1455078 C568.421878,26.3681652 568.996091,26.5439447 569.617188,26.6728516 C570.238284,26.8017585 570.853513,26.8662109 571.462891,26.8662109 C572.458989,26.8662109 573.208982,26.677248 573.712891,26.2993164 C574.216799,25.9213848 574.46875,25.3955112 574.46875,24.7216797 C574.46875,24.276365 574.379395,23.9116225 574.200684,23.6274414 C574.021972,23.3432603 573.723147,23.0810559 573.304199,22.8408203 C572.885252,22.6005847 572.248051,22.3281265 571.392578,22.0234375 C570.19726,21.595701 569.343264,21.0888701 568.830566,20.5029297 C568.317869,19.9169893 568.061523,19.1523485 568.061523,18.2089844 C568.061523,17.218745 568.43359,16.430667 569.177734,15.8447266 C569.921879,15.2587861 570.906244,14.9658203 572.130859,14.9658203 C573.40821,14.9658203 574.583002,15.200193 575.655273,15.6689453 L575.189453,16.9697266 C574.128901,16.5244118 573.097661,16.3017578 572.095703,16.3017578 C571.304684,16.3017578 570.686526,16.471678 570.241211,16.8115234 C569.795896,17.1513689 569.573242,17.6230439 569.573242,18.2265625 C569.573242,18.6718772 569.655273,19.0366197 569.819336,19.3208008 C569.983399,19.6049819 570.260252,19.8657215 570.649902,20.1030273 C571.039553,20.3403332 571.635738,20.6025376 572.438477,20.8896484 C573.78614,21.3701196 574.713376,21.8857394 575.220215,22.4365234 C575.727053,22.9873074 575.980469,23.702144 575.980469,24.5810547 L575.980469,24.5810547 Z M579.847656,28 L578.388672,28 L578.388672,18.3671875 L579.847656,18.3671875 L579.847656,28 Z M578.265625,15.7568359 C578.265625,15.4228499 578.347655,15.1782234 578.511719,15.0229492 C578.675782,14.867675 578.880858,14.7900391 579.126953,14.7900391 C579.361329,14.7900391 579.563476,14.8691398 579.733398,15.0273438 C579.903321,15.1855477 579.988281,15.4287093 579.988281,15.7568359 C579.988281,16.0849626 579.903321,16.329589 579.733398,16.4907227 C579.563476,16.6518563 579.361329,16.7324219 579.126953,16.7324219 C578.880858,16.7324219 578.675782,16.6518563 578.511719,16.4907227 C578.347655,16.329589 578.265625,16.0849626 578.265625,15.7568359 L578.265625,15.7568359 Z M586.052734,26.9716797 C586.310548,26.9716797 586.559569,26.9526369 586.799805,26.9145508 C587.04004,26.8764647 587.230468,26.8369143 587.371094,26.7958984 L587.371094,27.9121094 C587.21289,27.9882816 586.979982,28.0512693 586.672363,28.1010742 C586.364745,28.1508792 586.087892,28.1757812 585.841797,28.1757812 C583.978506,28.1757812 583.046875,27.1943458 583.046875,25.2314453 L583.046875,19.5009766 L581.666992,19.5009766 L581.666992,18.7978516 L583.046875,18.1914062 L583.662109,16.1347656 L584.505859,16.1347656 L584.505859,18.3671875 L587.300781,18.3671875 L587.300781,19.5009766 L584.505859,19.5009766 L584.505859,25.1699219 C584.505859,25.7500029 584.643553,26.1953109 584.918945,26.5058594 C585.194337,26.8164078 585.572263,26.9716797 586.052734,26.9716797 L586.052734,26.9716797 Z M593.365234,28.1757812 C591.941399,28.1757812 590.817875,27.7421918 589.994629,26.875 C589.171383,26.0078082 588.759766,24.8037186 588.759766,23.2626953 C588.759766,21.7099532 589.142086,20.4765671 589.906738,19.5625 C590.671391,18.6484329 591.698236,18.1914062 592.987305,18.1914062 C594.194342,18.1914062 595.149411,18.5883749 595.852539,19.3823242 C596.555668,20.1762735 596.907227,21.2236263 596.907227,22.5244141 L596.907227,23.4472656 L590.271484,23.4472656 C590.300781,24.5781307 590.586423,25.4365205 591.128418,26.0224609 C591.670413,26.6084014 592.433589,26.9013672 593.417969,26.9013672 C594.455083,26.9013672 595.480464,26.6845725 596.494141,26.2509766 L596.494141,27.5517578 C595.978513,27.7744152 595.490725,27.9340815 595.030762,28.0307617 C594.570798,28.1274419 594.015628,28.1757812 593.365234,28.1757812 L593.365234,28.1757812 Z M592.969727,19.4130859 C592.196285,19.4130859 591.579592,19.6650365 591.119629,20.1689453 C590.659666,20.6728541 590.388672,21.3701127 590.306641,22.2607422 L595.342773,22.2607422 C595.342773,21.3408157 595.137697,20.6362329 594.727539,20.1469727 C594.317381,19.6577124 593.731449,19.4130859 592.969727,19.4130859 L592.969727,19.4130859 Z M612.4375,18.8945312 C612.4375,20.195319 611.993657,21.1957973 611.105957,21.8959961 C610.218257,22.5961949 608.94825,22.9462891 607.295898,22.9462891 L605.78418,22.9462891 L605.78418,28 L604.290039,28 L604.290039,15.1503906 L607.621094,15.1503906 C610.832047,15.1503906 612.4375,16.398425 612.4375,18.8945312 L612.4375,18.8945312 Z M605.78418,21.6630859 L607.128906,21.6630859 C608.453132,21.6630859 609.41113,21.4492209 610.00293,21.0214844 C610.59473,20.5937479 610.890625,19.9082078 610.890625,18.9648438 C610.890625,18.1152301 610.612307,17.482424 610.055664,17.0664062 C609.499021,16.6503885 608.631842,16.4423828 607.454102,16.4423828 L605.78418,16.4423828 L605.78418,21.6630859 Z M616.366211,28 L614.907227,28 L614.907227,14.3242188 L616.366211,14.3242188 L616.366211,28 Z M620.831055,18.3671875 L620.831055,24.6162109 C620.831055,25.4013711 621.009764,25.9873028 621.367188,26.3740234 C621.724611,26.7607441 622.284176,26.9541016 623.045898,26.9541016 C624.053716,26.9541016 624.790525,26.6787137 625.256348,26.1279297 C625.72217,25.5771457 625.955078,24.6777406 625.955078,23.4296875 L625.955078,18.3671875 L627.414062,18.3671875 L627.414062,28 L626.209961,28 L625.999023,26.7080078 L625.919922,26.7080078 C625.621092,27.1826196 625.206546,27.5458972 624.67627,27.7978516 C624.145993,28.0498059 623.541019,28.1757812 622.861328,28.1757812 C621.689447,28.1757812 620.812015,27.8974637 620.229004,27.3408203 C619.645993,26.7841769 619.354492,25.8935608 619.354492,24.6689453 L619.354492,18.3671875 L620.831055,18.3671875 Z M638.391602,18.3671875 L638.391602,19.2900391 L636.607422,19.5009766 C636.771485,19.7060557 636.917968,19.9741194 637.046875,20.3051758 C637.175782,20.6362321 637.240234,21.0097635 637.240234,21.4257812 C637.240234,22.3691453 636.917972,23.1220675 636.273438,23.6845703 C635.628903,24.2470731 634.744146,24.5283203 633.619141,24.5283203 C633.33203,24.5283203 633.062501,24.504883 632.810547,24.4580078 C632.18945,24.7861345 631.878906,25.1992163 631.878906,25.6972656 C631.878906,25.9609388 631.987304,26.1557611 632.204102,26.2817383 C632.4209,26.4077155 632.792966,26.4707031 633.320312,26.4707031 L635.025391,26.4707031 C636.068365,26.4707031 636.869626,26.6904275 637.429199,27.1298828 C637.988772,27.5693381 638.268555,28.2080036 638.268555,29.0458984 C638.268555,30.11231 637.840825,30.9252902 636.985352,31.4848633 C636.129879,32.0444364 634.881844,32.3242188 633.241211,32.3242188 C631.981439,32.3242188 631.010257,32.0898461 630.327637,31.6210938 C629.645016,31.1523414 629.303711,30.4902387 629.303711,29.6347656 C629.303711,29.0488252 629.491209,28.5419943 629.866211,28.1142578 C630.241213,27.6865213 630.768551,27.3964851 631.448242,27.2441406 C631.202147,27.1328119 630.995606,26.9599621 630.828613,26.7255859 C630.66162,26.4912098 630.578125,26.2187516 630.578125,25.9082031 C630.578125,25.5566389 630.671874,25.2490248 630.859375,24.9853516 C631.046876,24.7216784 631.342771,24.4667981 631.74707,24.2207031 C631.249021,24.015624 630.843263,23.6669946 630.529785,23.1748047 C630.216307,22.6826147 630.05957,22.1201204 630.05957,21.4873047 C630.05957,20.4326119 630.375973,19.6196318 631.008789,19.0483398 C631.641605,18.4770479 632.53808,18.1914062 633.698242,18.1914062 C634.202151,18.1914062 634.656248,18.2499994 635.060547,18.3671875 L638.391602,18.3671875 Z M630.709961,29.6171875 C630.709961,30.1386745 630.929685,30.5341783 631.369141,30.8037109 C631.808596,31.0732435 632.438472,31.2080078 633.258789,31.2080078 C634.483405,31.2080078 635.390134,31.0249042 635.979004,30.6586914 C636.567874,30.2924786 636.862305,29.7959016 636.862305,29.1689453 C636.862305,28.6474583 636.701173,28.2856455 636.378906,28.0834961 C636.056639,27.8813466 635.4502,27.7802734 634.55957,27.7802734 L632.810547,27.7802734 C632.148434,27.7802734 631.632814,27.938475 631.263672,28.2548828 C630.894529,28.5712906 630.709961,29.0253877 630.709961,29.6171875 L630.709961,29.6171875 Z M631.500977,21.4521484 C631.500977,22.1259799 631.691404,22.6357405 632.072266,22.9814453 C632.453127,23.3271502 632.983395,23.5 633.663086,23.5 C635.086921,23.5 635.798828,22.8086007 635.798828,21.4257812 C635.798828,19.9785084 635.078132,19.2548828 633.636719,19.2548828 C632.951168,19.2548828 632.42383,19.4394513 632.054688,19.8085938 C631.685545,20.1777362 631.500977,20.7255823 631.500977,21.4521484 L631.500977,21.4521484 Z M641.828125,28 L640.369141,28 L640.369141,18.3671875 L641.828125,18.3671875 L641.828125,28 Z M640.246094,15.7568359 C640.246094,15.4228499 640.328124,15.1782234 640.492188,15.0229492 C640.656251,14.867675 640.861327,14.7900391 641.107422,14.7900391 C641.341798,14.7900391 641.543944,14.8691398 641.713867,15.0273438 C641.88379,15.1855477 641.96875,15.4287093 641.96875,15.7568359 C641.96875,16.0849626 641.88379,16.329589 641.713867,16.4907227 C641.543944,16.6518563 641.341798,16.7324219 641.107422,16.7324219 C640.861327,16.7324219 640.656251,16.6518563 640.492188,16.4907227 C640.328124,16.329589 640.246094,16.0849626 640.246094,15.7568359 L640.246094,15.7568359 Z M651.513672,28 L651.513672,21.7685547 C651.513672,20.9833945 651.334963,20.3974629 650.977539,20.0107422 C650.620115,19.6240215 650.060551,19.4306641 649.298828,19.4306641 C648.291011,19.4306641 647.552737,19.7031223 647.083984,20.2480469 C646.615232,20.7929715 646.380859,21.6923765 646.380859,22.9462891 L646.380859,28 L644.921875,28 L644.921875,18.3671875 L646.108398,18.3671875 L646.345703,19.6855469 L646.416016,19.6855469 C646.714845,19.2109351 647.133786,18.843263 647.672852,18.5825195 C648.211917,18.321776 648.812497,18.1914062 649.474609,18.1914062 C650.634771,18.1914062 651.50781,18.4711886 652.09375,19.0307617 C652.67969,19.5903348 652.972656,20.4853454 652.972656,21.7158203 L652.972656,28 L651.513672,28 Z M660.865234,28 L660.865234,15.1503906 L662.359375,15.1503906 L662.359375,28 L660.865234,28 Z M672.255859,28 L672.255859,21.7685547 C672.255859,20.9833945 672.07715,20.3974629 671.719727,20.0107422 C671.362303,19.6240215 670.802738,19.4306641 670.041016,19.4306641 C669.033198,19.4306641 668.294924,19.7031223 667.826172,20.2480469 C667.35742,20.7929715 667.123047,21.6923765 667.123047,22.9462891 L667.123047,28 L665.664062,28 L665.664062,18.3671875 L666.850586,18.3671875 L667.087891,19.6855469 L667.158203,19.6855469 C667.457033,19.2109351 667.875974,18.843263 668.415039,18.5825195 C668.954104,18.321776 669.554684,18.1914062 670.216797,18.1914062 C671.376959,18.1914062 672.249997,18.4711886 672.835938,19.0307617 C673.421878,19.5903348 673.714844,20.4853454 673.714844,21.7158203 L673.714844,28 L672.255859,28 Z M682.925781,25.3720703 C682.925781,26.2685592 682.5918,26.9599585 681.923828,27.4462891 C681.255856,27.9326196 680.318365,28.1757812 679.111328,28.1757812 C677.833978,28.1757812 676.837894,27.9736348 676.123047,27.5693359 L676.123047,26.2158203 C676.58594,26.4501965 677.082517,26.634765 677.612793,26.7695312 C678.143069,26.9042975 678.654294,26.9716797 679.146484,26.9716797 C679.908207,26.9716797 680.494139,26.8500989 680.904297,26.6069336 C681.314455,26.3637683 681.519531,25.9931666 681.519531,25.4951172 C681.519531,25.1201153 681.356935,24.7993177 681.031738,24.5327148 C680.706541,24.2661119 680.07227,23.9511737 679.128906,23.5878906 C678.232417,23.2539046 677.595217,22.9624036 677.217285,22.7133789 C676.839354,22.4643542 676.558106,22.1816422 676.373535,21.8652344 C676.188964,21.5488265 676.09668,21.1709006 676.09668,20.7314453 C676.09668,19.9462851 676.416012,19.3266624 677.054688,18.8725586 C677.693363,18.4184548 678.56933,18.1914062 679.682617,18.1914062 C680.719732,18.1914062 681.733393,18.4023416 682.723633,18.8242188 L682.205078,20.0107422 C681.238276,19.6123027 680.362309,19.4130859 679.577148,19.4130859 C678.885739,19.4130859 678.36426,19.5214833 678.012695,19.7382812 C677.661131,19.9550792 677.485352,20.2539043 677.485352,20.6347656 C677.485352,20.8925794 677.551269,21.1123038 677.683105,21.2939453 C677.814942,21.4755868 678.027342,21.6484367 678.320312,21.8125 C678.613283,21.9765633 679.175777,22.2138656 680.007812,22.5244141 C681.150396,22.9404318 681.922361,23.3593729 682.32373,23.78125 C682.7251,24.2031271 682.925781,24.7333952 682.925781,25.3720703 L682.925781,25.3720703 Z M688.410156,26.9716797 C688.66797,26.9716797 688.916991,26.9526369 689.157227,26.9145508 C689.397462,26.8764647 689.58789,26.8369143 689.728516,26.7958984 L689.728516,27.9121094 C689.570312,27.9882816 689.337404,28.0512693 689.029785,28.1010742 C688.722166,28.1508792 688.445314,28.1757812 688.199219,28.1757812 C686.335928,28.1757812 685.404297,27.1943458 685.404297,25.2314453 L685.404297,19.5009766 L684.024414,19.5009766 L684.024414,18.7978516 L685.404297,18.1914062 L686.019531,16.1347656 L686.863281,16.1347656 L686.863281,18.3671875 L689.658203,18.3671875 L689.658203,19.5009766 L686.863281,19.5009766 L686.863281,25.1699219 C686.863281,25.7500029 687.000975,26.1953109 687.276367,26.5058594 C687.551759,26.8164078 687.929685,26.9716797 688.410156,26.9716797 L688.410156,26.9716797 Z M697.577148,28 L697.287109,26.6289062 L697.216797,26.6289062 C696.736326,27.2324249 696.257327,27.6411122 695.779785,27.8549805 C695.302244,28.0688487 694.706058,28.1757812 693.991211,28.1757812 C693.036128,28.1757812 692.2876,27.92969 691.745605,27.4375 C691.203611,26.94531 690.932617,26.2451217 690.932617,25.3369141 C690.932617,23.3915918 692.488266,22.3720708 695.599609,22.2783203 L697.234375,22.2255859 L697.234375,21.6279297 C697.234375,20.8720665 697.071779,20.3139666 696.746582,19.9536133 C696.421385,19.5932599 695.901371,19.4130859 695.186523,19.4130859 C694.383785,19.4130859 693.475591,19.6591772 692.461914,20.1513672 L692.013672,19.0351562 C692.488284,18.7773425 693.008298,18.575196 693.57373,18.4287109 C694.139163,18.2822258 694.706052,18.2089844 695.274414,18.2089844 C696.422857,18.2089844 697.273923,18.4638646 697.827637,18.9736328 C698.38135,19.483401 698.658203,20.3007756 698.658203,21.4257812 L698.658203,28 L697.577148,28 Z M694.28125,26.9716797 C695.189458,26.9716797 695.902829,26.7226587 696.421387,26.2246094 C696.939944,25.72656 697.199219,25.0293014 697.199219,24.1328125 L697.199219,23.2626953 L695.740234,23.3242188 C694.580072,23.3652346 693.743655,23.5454086 693.230957,23.8647461 C692.718259,24.1840836 692.461914,24.6806607 692.461914,25.3544922 C692.461914,25.8818386 692.62158,26.2832017 692.940918,26.5585938 C693.260256,26.8339858 693.707028,26.9716797 694.28125,26.9716797 L694.28125,26.9716797 Z M703.123047,28 L701.664062,28 L701.664062,14.3242188 L703.123047,14.3242188 L703.123047,28 Z M707.675781,28 L706.216797,28 L706.216797,14.3242188 L707.675781,14.3242188 L707.675781,28 Z" id="My-WordPress-Site-Pl" fill="#668EAA" sketch:type="MSShapeGroup"></path>
        </g>
    </g>
</svg>