<svg width="200px" height="47px" viewBox="0 0 454 38" version="1.1" xmlns="http://www.w3.org/2000/svg" xmlns:xlink="http://www.w3.org/1999/xlink">
	<g id="Page-1" stroke="none" stroke-width="1" fill="none" fill-rule="evenodd">
		<g id="Group-2" transform="translate(-1566.000000, -2042.000000)">
			<g id="Page-1-Copy-3" transform="translate(1566.000000, 2042.000000)">
				<path d="M9.7987171,13.073991 C9.19265649,12.6827354 8.50475559,12.5156951 7.70625968,12.5156951 L3.96372484,12.5156951 L3.96372484,18.7656951 L7.62441938,18.7656951 C8.39416058,18.7656951 9.16611369,18.6535874 9.7434196,18.2634529 C10.5131608,17.7892377 10.9820836,16.9237668 10.9820836,15.6412556 C10.9820836,14.3845291 10.5131608,13.5482063 9.7987171,13.073991 L9.7987171,13.073991 Z M8.22937403,9 C9.7987171,9 11.3680602,9.30717489 12.7162132,10.4237668 C14.1196638,11.5952915 15,13.4080717 15,15.6412556 C15,17.9282511 14.0367175,19.8251121 12.5237779,20.9977578 C11.2032736,22.0302691 9.71577085,22.2802691 8.22937403,22.2802691 L3.96372484,22.2802691 L3.96372484,27.5818386 C3.96372484,27.8049327 3.79783234,28 3.55120549,28 L0.440168104,28 C0.192435302,28 0,27.8049327 0,27.5818386 L0,9.41928251 C0,9.19618834 0.192435302,9 0.440168104,9 L8.22937403,9 Z" id="Fill-1" fill="#8CC258"></path>
				<path d="M29.0137794,12.6634522 C25.6670341,12.6634522 23.1977622,15.2144538 23.1977622,18.5267206 C23.1977622,21.8651627 25.6670341,24.3627232 29.0137794,24.3627232 C32.3605247,24.3627232 34.8022378,21.8378968 34.8022378,18.5267206 C34.8022378,15.2144538 32.3605247,12.6634522 29.0137794,12.6634522 M29.0137794,28 C23.4171306,28 19,24.2536594 19,18.5267206 C19,12.7997819 23.4171306,9 29.0137794,9 C34.6104283,9 39,12.8259572 39,18.5267206 C39,24.2263934 34.6104283,28 29.0137794,28" id="Fill-3" fill="#8CC258"></path>
				<path d="M67.6300659,9.47212595 C67.7147199,9.13840099 67.9393355,9 68.3321304,9 L71.6189663,9 C72.0399793,9 72.0399793,9.36051225 71.956454,9.58373965 L66.2541548,27.5825648 C66.1424114,27.8883863 65.9448852,28 65.5803083,28 L62.0406388,28 C61.6760619,28 61.4503177,27.8883863 61.3656636,27.5825648 L57.5178533,16.4446337 L57.4614172,16.4446337 L53.8100043,27.5825648 C53.6971322,27.8883863 53.5007348,28 53.1350291,28 L49.5682703,28 C49.2036934,28 49.0061672,27.8883863 48.8932951,27.5825648 L43.0510345,9.58373965 C42.9663805,9.36051225 42.9392911,9 43.3603041,9 L46.6753581,9 C47.039935,9 47.2927685,9.13840099 47.3774226,9.47212595 L51.3369764,22.9438994 L51.3934124,22.9438994 L55.5516211,9.47212595 C55.6633644,9.13840099 55.8891087,9 56.2536856,9 L58.6973668,9 C59.0912905,9 59.2865593,9.13840099 59.3994314,9.47212595 L63.7822555,22.9438994 L63.8386916,22.9438994 L67.6300659,9.47212595 Z" id="Fill-5" fill="#8CC258"></path>
				<path d="M88.5655097,9 C88.8106629,9 89,9.19506726 89,9.41928251 L89,12.1535874 C89,12.3766816 88.8106629,12.5717489 88.5655097,12.5717489 L78.9224515,12.5717489 L78.9224515,16.6726457 L87.1482176,16.6726457 C87.36601,16.6726457 87.557536,16.867713 87.557536,17.0908072 L87.557536,19.7970852 C87.557536,20.0482063 87.36601,20.2443946 87.1482176,20.2443946 L78.9224515,20.2443946 L78.9224515,24.4573991 L88.5655097,24.4573991 C88.8106629,24.4573991 89,24.6244395 89,24.8755605 L89,27.5818386 C89,27.8049327 88.8106629,28 88.5655097,28 L75.4366792,28 C75.191526,28 75,27.8049327 75,27.5818386 L75,9.41928251 C75,9.19506726 75.191526,9 75.4366792,9 L88.5655097,9 Z" id="Fill-7" fill="#8CC258"></path>
				<path d="M98.0088136,12.4035874 L98.0088136,18.0112108 L101.905774,18.0112108 C102.935941,18.0112108 103.770365,17.9282511 104.356475,17.5381166 C105.023119,17.1188341 105.496257,16.3374439 105.496257,15.2219731 C105.496257,14.1065022 105.079046,13.3800448 104.439246,12.9338565 C103.826291,12.543722 103.074639,12.4035874 102.240215,12.4035874 L98.0088136,12.4035874 Z M105.747927,20.8576233 L109.868594,27.2746637 C110.062099,27.6087444 110.090063,28 109.616924,28 L106.138294,28 C105.747927,28 105.525339,27.9439462 105.330715,27.5818386 L101.600415,21.4159193 L98.0088136,21.4159193 L98.0088136,27.5818386 C98.0088136,27.8049327 97.8421526,28 97.5916017,28 L94.4451752,28 C94.1957429,28 94,27.8049327 94,27.5818386 L94,9.41816143 C94,9.19506726 94.1957429,9 94.4451752,9 L102.574656,9 C104.412401,9 106.082367,9.33520179 107.361966,10.2836323 C108.753419,11.3161435 109.560998,13.1020179 109.560998,15.1659193 C109.560998,16.9798206 108.893235,18.5975336 107.445856,19.8251121 C106.888828,20.2993274 106.3318,20.6065022 105.747927,20.8576233 L105.747927,20.8576233 Z" id="Fill-9" fill="#8CC258"></path>
				<path d="M128.56551,9 C128.810663,9 129,9.19506726 129,9.41928251 L129,12.1535874 C129,12.3766816 128.810663,12.5717489 128.56551,12.5717489 L118.922452,12.5717489 L118.922452,16.6726457 L127.148218,16.6726457 C127.36601,16.6726457 127.557536,16.867713 127.557536,17.0908072 L127.557536,19.7970852 C127.557536,20.0482063 127.36601,20.2443946 127.148218,20.2443946 L118.922452,20.2443946 L118.922452,24.4573991 L128.56551,24.4573991 C128.810663,24.4573991 129,24.6244395 129,24.8755605 L129,27.5818386 C129,27.8049327 128.810663,28 128.56551,28 L115.436679,28 C115.191526,28 115,27.8049327 115,27.5818386 L115,9.41928251 C115,9.19506726 115.191526,9 115.436679,9 L128.56551,9 Z" id="Fill-11" fill="#8CC258"></path>
				<path d="M137.861335,24.6244395 L140.650675,24.6244395 C142.016794,24.6244395 143.277331,24.4013453 144.323468,23.8710762 C146.254135,22.8665919 147.057862,20.9136771 147.057862,18.4865471 C147.057862,16.5336323 146.54826,15.1378924 145.66373,14.161435 C144.564801,12.9338565 142.821598,12.3766816 140.730401,12.3766816 L137.861335,12.3766816 L137.861335,24.6244395 Z M146.924266,26.6334081 C145.047468,27.720852 142.929336,28 140.917866,28 L134.428798,28 C134.188542,28 134,27.8049327 134,27.5818386 L134,9.41928251 C134,9.19506726 134.188542,9 134.428798,9 L141.266937,9 C144.082134,9 146.682933,9.55829596 148.801065,11.9013453 C150.141327,13.3800448 151,15.529148 151,18.4865471 C151,21.9181614 149.820267,24.9304933 146.924266,26.6334081 L146.924266,26.6334081 Z" id="Fill-13" fill="#8CC258"></path>
				<path d="M174.675544,20.2997817 C174.126221,20.0206502 173.41144,19.9645997 172.341475,19.9645997 L169.953356,19.9645997 L169.953356,24.7356186 L172.890797,24.7356186 C173.521746,24.7356186 174.152695,24.6795681 174.647967,24.4564871 C175.416798,24.1213051 175.965017,23.5081126 175.965017,22.335536 C175.965017,21.4712372 175.58005,20.7179185 174.675544,20.2997817 M173.632052,12.7105434 C173.191932,12.4045076 172.643713,12.2655024 172.066814,12.2655024 L169.953356,12.2655024 L169.953356,16.7282436 L171.819729,16.7282436 C172.313899,16.7282436 172.918374,16.7013393 173.44012,16.449112 C174.043492,16.1419553 174.482509,15.5287628 174.482509,14.5243377 C174.482509,13.6600389 174.152695,13.0737507 173.632052,12.7105434 M173.741254,28 L166.439017,28 C166.193035,28 166,27.8038232 166,27.5807422 L166,9.41925777 C166,9.19617677 166.193035,9 166.439017,9 L172.09439,9 C173.659628,9 175.278916,9.19617677 176.651119,10.2006018 C177.722187,11.0088501 178.463442,12.2094519 178.463442,13.8270694 C178.463442,15.7518438 177.640561,17.1744056 176.129373,17.8716738 L176.129373,17.9837749 C178.792153,18.6249926 180,20.3558322 180,22.8668948 C180,26.4092867 176.870627,28 173.741254,28" id="Fill-15" fill="#8CC258"></path>
				<path d="M197.033192,9.41925777 C197.206066,9.14012626 197.3801,9 197.7827,9 L201.566209,9 C202.02914,9 202.114997,9.33518202 201.855106,9.69838929 L194.54914,20.1047259 L194.54914,27.5807422 C194.54914,27.8038232 194.34842,28 194.116375,28 L190.824803,28 C190.593917,28 190.390877,27.8038232 190.390877,27.5807422 L190.390877,20.0767007 L183.144083,9.69838929 C182.885352,9.33518202 182.971209,9 183.43298,9 L187.215329,9 C187.590083,9 187.764117,9.11210101 187.936992,9.41925777 L192.470009,16.115051 L197.033192,9.41925777 Z" id="Fill-17" fill="#8CC258"></path>
				<g id="Group-21" transform="translate(232.000000, 0.000000)">
					<mask id="mask-2" fill="white">
						<polygon id="path-1" points="0.0293941176 38 37.5834529 38 37.5834529 0.445941176 0.0293941176 0.445941176"></polygon>
					</mask>
					<g id="Clip-20"></g>
					<path d="M27.1613941,19.7615647 L19.8206882,32.4792706 L19.8206882,14.8383294 L25.7185118,16.3393294 C27.2150412,16.7204471 27.9336882,18.4248588 27.1613941,19.7615647 L27.1613941,19.7615647 Z M18.0749235,23.6073882 L12.1771,22.1063882 C10.6805706,21.7252706 9.96192353,20.0208588 10.7342176,18.6841529 L18.0749235,5.96644706 L18.0749235,23.6073882 Z M18.8058647,0.445270588 C8.43633529,0.445270588 0.0293941176,8.85221176 0.0293941176,19.2228588 C0.0293941176,29.5935059 8.43633529,38.0004471 18.8058647,38.0004471 C29.1765118,38.0004471 37.5834529,29.5935059 37.5834529,19.2228588 C37.5834529,8.85221176 29.1765118,0.445270588 18.8058647,0.445270588 L18.8058647,0.445270588 Z" id="Fill-19" fill="#8CC258" mask="url(#mask-2)"></path>
				</g>
				<path d="M299,12.7324741 C299,10.1182714 296.774664,8 294.03094,8 L286.478109,8 L293.476357,13.9111448 L293.476357,21.3111954 C293.476357,22.6266363 293.225336,23.5829164 292.765324,24.2200657 C292.179218,24.8983573 291.300058,25.2575183 290.169877,25.2575183 C288.828371,25.2575183 287.732049,24.8538792 286.462931,23.8975992 L286.462931,23.8964872 C286.208406,23.7052312 285.90718,23.4628254 285.637478,23.2004043 L283,27.4213798 C283.141273,27.5414708 283.283713,27.6548901 283.426153,27.7616376 C283.428488,27.7627496 283.874489,28.0774324 283.874489,28.0774324 C285.82195,29.3795299 288.034442,30 290.211909,30 C292.974314,30 295.359603,29.3217084 296.949796,27.6882487 C298.288967,26.3327774 299,24.380187 299,21.6692444 L299,18.5780136 L299,18.5780136 L299,12.7324741 Z" id="Fill-22" fill="#8CC258"></path>
				<polygon id="Fill-24" fill="#8CC258" points="331 8 331 12.8122884 337.816906 12.8122884 337.816906 30 343.181969 30 343.181969 12.8122884 350 12.8122884 350 8"></polygon>
				<path d="M367.653705,18.3935586 C367.000189,18.8380943 366.153516,18.9994359 365.384106,18.9994359 L362.076821,18.9994359 L362.076821,12.6507 L365.461369,12.6507 C366.26941,12.6507 367.268464,12.7725524 367.923053,13.4190471 C368.461747,13.9448177 368.807284,14.7131648 368.807284,15.7647059 C368.807284,17.0588235 368.384484,17.9478948 367.653705,18.3935586 M372.07701,10.2644238 C370.691642,8.80896456 368.731095,8 366.076253,8 L357,8 L357,30 L362.076821,30 L362.076821,23.6095184 L365.807979,23.6095184 C368.307221,23.6095184 370.346105,22.9630237 371.769032,21.6282886 C373.191958,20.2935535 374,18.2717062 374,15.7647059 C374,13.5408995 373.345411,11.6397764 372.07701,10.2644238" id="Fill-26" fill="#8CC258"></path>
				<path d="M395.641171,19.0405863 L387.358829,19.0405863 L387.358829,17.327066 C387.358829,15.9715946 387.76547,14.935254 388.414511,14.1780136 C389.185883,13.3407127 390.323119,12.9426333 391.459223,12.9426333 C392.678014,12.9426333 393.77334,13.3017943 394.585489,14.1780136 C395.235662,14.935254 395.641171,15.9715946 395.641171,17.327066 L395.641171,19.0405863 Z M398.401574,10.630882 C396.858829,9.11640131 394.585489,8 391.459223,8 C388.414511,8 386.141171,9.11640131 384.598426,10.630882 C382.852927,12.3444023 382,14.8551933 382,17.1269143 L382,30 L387.358829,30 L387.358829,23.5840283 L395.641171,23.5840283 L395.641171,30 L401,30 L401,17.1269143 C401,14.8551933 400.147073,12.3444023 398.401574,10.630882 L398.401574,10.630882 Z" id="Fill-28" fill="#8CC258"></path>
				<polygon id="Fill-30" fill="#8CC258" points="323 12.7716689 323 8 307 8 307 30 323 30 323 25.2678223 312.017362 25.2678223 312.017362 21.3051595 321.441352 21.3051595 321.441352 16.5729818 312.017362 16.5729818 312.017362 12.7716689"></polygon>
				<polygon id="Fill-32" fill="#8CC258" points="444.950006 17.6651964 453.76578 8 446.997261 8 440.131149 15.8452149 440.131149 8 435 8 435 30 440.131149 30 440.131149 22.9231716 441.451889 21.4665094 445.951946 27.6677608 447.644618 30 454 30"></polygon>
				<polygon id="Fill-34" fill="#8CC258" points="427 27 427 27 427.126 27.258"></polygon>
				<path d="M427.155727,28.4578517 C427.162349,28.4545636 427.170074,28.4512754 427.176696,28.4468912 C427.459224,28.3055002 427.762721,28.1454763 428,27.9964129 L425.873316,23.6691909 C425.647072,23.8018135 425.431866,23.9190913 425.227695,24.0243125 C425.116229,24.0813073 425.004763,24.1383021 424.89109,24.1931048 C424.870121,24.2029693 424.851359,24.2117377 424.831494,24.2216022 C423.62744,24.7926465 422.296468,25.206955 420.787814,25.206955 C418.967937,25.206955 417.345609,24.5789159 416.278404,23.4784775 C415.130634,22.417497 414.458527,20.8468513 414.458527,18.960542 C414.458527,17.3888003 415.012546,16.0143483 415.921933,14.915006 C417.029972,13.5789159 418.730658,12.7535871 420.866171,12.7535871 C422.087883,12.7535871 423.052451,12.9673177 424.075511,13.3761459 C424.135107,13.4002591 424.199117,13.4276604 424.262024,13.4539657 C424.372386,13.5 424.482749,13.5471303 424.595318,13.5986449 C424.641671,13.6194699 424.689126,13.6402949 424.736582,13.6633121 C424.810525,13.6972898 424.885572,13.7334595 424.959514,13.7696293 C425.203415,13.8880032 425.456145,14.0195297 425.722119,14.1718812 L427.774861,9.8906935 C427.367623,9.61229574 426.878717,9.36458749 426.440579,9.16729773 C424.927509,8.46582304 423.136327,8 420.628892,8 C417.227521,8 414.063429,9.45336788 411.926812,11.7320646 C410.106935,13.6567358 409,16.1327222 409,18.960542 C409,22.3791351 410.265857,25.1291351 412.32191,27.0527102 C414.379066,28.9784775 417.267251,30 420.550534,30 C423.311803,30 425.336954,29.3686728 427.059712,28.5049821 C427.091717,28.4896373 427.122618,28.4742925 427.155727,28.4578517" id="Fill-36" fill="#8CC258"></path>
			</g>
		</g>
	</g>
</svg>