<?xml version="1.0" encoding="utf-8"?>
<!-- Generator: Adobe Illustrator 22.0.1, SVG Export Plug-In . SVG Version: 6.00 Build 0)  -->
<!DOCTYPE svg PUBLIC "-//W3C//DTD SVG 1.1//EN" "http://www.w3.org/Graphics/SVG/1.1/DTD/svg11.dtd">
<svg version="1.1" id="Layer_1" xmlns="http://www.w3.org/2000/svg" xmlns:xlink="http://www.w3.org/1999/xlink" x="0px" y="0px"
	 viewBox="0 0 200 47" style="enable-background:new 0 0 200 47;" xml:space="preserve">
<style type="text/css">
	.st0{display:none;}
	.st1{display:inline;}
	.st2{fill:#8CC258;}
	.st3{fill:#FFFFFF;filter:url(#Adobe_OpacityMaskFilter);}
	.st4{mask:url(#mask-2_1_);fill:#8CC258;}
	.st5{fill:#00BE28;}
</style>
<g id="Page-1" class="st0">
	<g id="Group-2" transform="translate(-1566.000000, -2042.000000)" class="st1">
		<g id="Page-1-Copy-3" transform="translate(1566.000000, 2042.000000)">
			<path id="Fill-1" class="st2" d="M4.3,20.9c-0.3-0.2-0.6-0.2-0.9-0.2H1.7v2.8h1.6c0.3,0,0.7,0,0.9-0.2C4.6,23,4.8,22.6,4.8,22
				C4.8,21.5,4.6,21.1,4.3,20.9L4.3,20.9z M3.6,19.1c0.7,0,1.4,0.1,2,0.6c0.6,0.5,1,1.3,1,2.3c0,1-0.4,1.8-1.1,2.4
				c-0.6,0.5-1.2,0.6-1.9,0.6H1.7v2.3c0,0.1-0.1,0.2-0.2,0.2H0.2c-0.1,0-0.2-0.1-0.2-0.2v-8c0-0.1,0.1-0.2,0.2-0.2H3.6z"/>
			<path id="Fill-3" class="st2" d="M12.8,20.7c-1.5,0-2.6,1.1-2.6,2.6c0,1.5,1.1,2.6,2.6,2.6s2.5-1.1,2.5-2.6
				C15.3,21.8,14.3,20.7,12.8,20.7 M12.8,27.5c-2.5,0-4.4-1.7-4.4-4.2s1.9-4.2,4.4-4.2s4.4,1.7,4.4,4.2
				C17.2,25.8,15.2,27.5,12.8,27.5"/>
			<path id="Fill-5" class="st2" d="M29.8,19.3c0-0.1,0.1-0.2,0.3-0.2h1.4c0.2,0,0.2,0.2,0.1,0.3l-2.5,7.9c0,0.1-0.1,0.2-0.3,0.2
				h-1.6c-0.2,0-0.3,0-0.3-0.2l-1.7-4.9h0l-1.6,4.9c0,0.1-0.1,0.2-0.3,0.2h-1.6c-0.2,0-0.2,0-0.3-0.2L19,19.4c0-0.1,0-0.3,0.1-0.3
				h1.5c0.2,0,0.3,0.1,0.3,0.2l1.7,5.9h0l1.8-5.9c0-0.1,0.1-0.2,0.3-0.2h1.1c0.2,0,0.3,0.1,0.3,0.2l1.9,5.9h0L29.8,19.3z"/>
			<path id="Fill-7" class="st2" d="M39,19.1c0.1,0,0.2,0.1,0.2,0.2v1.2c0,0.1-0.1,0.2-0.2,0.2h-4.2v1.8h3.6c0.1,0,0.2,0.1,0.2,0.2
				v1.2c0,0.1-0.1,0.2-0.2,0.2h-3.6v1.9H39c0.1,0,0.2,0.1,0.2,0.2v1.2c0,0.1-0.1,0.2-0.2,0.2h-5.8c-0.1,0-0.2-0.1-0.2-0.2v-8
				c0-0.1,0.1-0.2,0.2-0.2H39z"/>
			<path id="Fill-9" class="st2" d="M43.2,20.6v2.5h1.7c0.5,0,0.8,0,1.1-0.2c0.3-0.2,0.5-0.5,0.5-1c0-0.5-0.2-0.8-0.5-1
				c-0.3-0.2-0.6-0.2-1-0.2H43.2z M46.6,24.3l1.8,2.8c0.1,0.1,0.1,0.3-0.1,0.3h-1.5c-0.2,0-0.3,0-0.4-0.2l-1.6-2.7h-1.6v2.7
				c0,0.1-0.1,0.2-0.2,0.2h-1.4c-0.1,0-0.2-0.1-0.2-0.2v-8c0-0.1,0.1-0.2,0.2-0.2h3.6c0.8,0,1.5,0.1,2.1,0.6c0.6,0.5,1,1.2,1,2.2
				c0,0.8-0.3,1.5-0.9,2.1C47.1,24.1,46.8,24.2,46.6,24.3L46.6,24.3z"/>
			<path id="Fill-11" class="st2" d="M56.6,19.1c0.1,0,0.2,0.1,0.2,0.2v1.2c0,0.1-0.1,0.2-0.2,0.2h-4.2v1.8H56
				c0.1,0,0.2,0.1,0.2,0.2v1.2c0,0.1-0.1,0.2-0.2,0.2h-3.6v1.9h4.2c0.1,0,0.2,0.1,0.2,0.2v1.2c0,0.1-0.1,0.2-0.2,0.2h-5.8
				c-0.1,0-0.2-0.1-0.2-0.2v-8c0-0.1,0.1-0.2,0.2-0.2H56.6z"/>
			<path id="Fill-13" class="st2" d="M60.7,26H62c0.6,0,1.2-0.1,1.6-0.3c0.9-0.4,1.2-1.3,1.2-2.4c0-0.9-0.2-1.5-0.6-1.9
				c-0.5-0.5-1.3-0.8-2.2-0.8h-1.3V26z M64.7,26.9c-0.8,0.5-1.8,0.6-2.6,0.6h-2.9c-0.1,0-0.2-0.1-0.2-0.2v-8c0-0.1,0.1-0.2,0.2-0.2
				h3c1.2,0,2.4,0.2,3.3,1.3c0.6,0.7,1,1.6,1,2.9C66.5,24.8,66,26.1,64.7,26.9L64.7,26.9z"/>
			<path id="Fill-15" class="st2" d="M76.9,24.1c-0.2-0.1-0.6-0.1-1-0.1h-1.1V26h1.3c0.3,0,0.6,0,0.8-0.1c0.3-0.1,0.6-0.4,0.6-0.9
				C77.5,24.6,77.3,24.3,76.9,24.1 M76.5,20.7c-0.2-0.1-0.4-0.2-0.7-0.2h-0.9v2h0.8c0.2,0,0.5,0,0.7-0.1c0.3-0.1,0.5-0.4,0.5-0.8
				C76.9,21.1,76.7,20.9,76.5,20.7 M76.5,27.5h-3.2c-0.1,0-0.2-0.1-0.2-0.2v-8c0-0.1,0.1-0.2,0.2-0.2h2.5c0.7,0,1.4,0.1,2,0.5
				c0.5,0.4,0.8,0.9,0.8,1.6c0,0.8-0.4,1.5-1,1.8v0c1.2,0.3,1.7,1,1.7,2.2C79.3,26.8,77.9,27.5,76.5,27.5"/>
			<path id="Fill-17" class="st2" d="M86.8,19.3c0.1-0.1,0.2-0.2,0.3-0.2h1.7c0.2,0,0.2,0.1,0.1,0.3L85.7,24v3.3
				c0,0.1-0.1,0.2-0.2,0.2h-1.5c-0.1,0-0.2-0.1-0.2-0.2V24l-3.2-4.6c-0.1-0.2-0.1-0.3,0.1-0.3h1.7c0.2,0,0.2,0,0.3,0.2l2,2.9
				L86.8,19.3z"/>
			<g id="Group-21" transform="translate(232.000000, 0.000000)">
				<g id="Clip-20">
				</g>
				<defs>
					<filter id="Adobe_OpacityMaskFilter" filterUnits="userSpaceOnUse" x="-129.8" y="15.3" width="16.5" height="16.5">
						<feColorMatrix  type="matrix" values="1 0 0 0 0  0 1 0 0 0  0 0 1 0 0  0 0 0 1 0"/>
					</filter>
				</defs>
				<mask maskUnits="userSpaceOnUse" x="-129.8" y="15.3" width="16.5" height="16.5" id="mask-2_1_">
					<polygon id="path-1_1_" class="st3" points="-129.8,31.9 -113.2,31.9 -113.2,15.3 -129.8,15.3 					"/>
				</mask>
				<path id="Fill-19" class="st4" d="M-117.8,23.8l-3.2,5.6v-7.8l2.6,0.7C-117.8,22.5-117.5,23.2-117.8,23.8L-117.8,23.8z
					 M-121.8,25.5l-2.6-0.7c-0.7-0.2-1-0.9-0.6-1.5l3.2-5.6V25.5z M-121.5,15.3c-4.6,0-8.3,3.7-8.3,8.3s3.7,8.3,8.3,8.3
					c4.6,0,8.3-3.7,8.3-8.3S-116.9,15.3-121.5,15.3L-121.5,15.3z"/>
			</g>
			<path id="Fill-22" class="st2" d="M131.7,20.7c0-1.2-1-2.1-2.2-2.1h-3.3l3.1,2.6v3.3c0,0.6-0.1,1-0.3,1.3
				c-0.3,0.3-0.6,0.5-1.1,0.5c-0.6,0-1.1-0.2-1.6-0.6v0c-0.1-0.1-0.2-0.2-0.4-0.3l-1.2,1.9c0.1,0.1,0.1,0.1,0.2,0.1
				c0,0,0.2,0.1,0.2,0.1c0.9,0.6,1.8,0.8,2.8,0.8c1.2,0,2.3-0.3,3-1c0.6-0.6,0.9-1.5,0.9-2.7v-1.4l0,0V20.7z"/>
			<polygon id="Fill-24" class="st2" points="145.8,18.7 145.8,20.8 148.8,20.8 148.8,28.3 151.2,28.3 151.2,20.8 154.2,20.8 
				154.2,18.7 			"/>
			<path id="Fill-26" class="st2" d="M162,23.2c-0.3,0.2-0.7,0.3-1,0.3h-1.5v-2.8h1.5c0.4,0,0.8,0.1,1.1,0.3c0.2,0.2,0.4,0.6,0.4,1
				C162.5,22.6,162.3,23,162,23.2 M163.9,19.7c-0.6-0.6-1.5-1-2.6-1h-4v9.7h2.2v-2.8h1.6c1.1,0,2-0.3,2.6-0.9s1-1.5,1-2.6
				C164.8,21.1,164.5,20.3,163.9,19.7"/>
			<path id="Fill-28" class="st2" d="M174.3,23.5h-3.6v-0.8c0-0.6,0.2-1.1,0.5-1.4c0.3-0.4,0.8-0.5,1.3-0.5c0.5,0,1,0.2,1.4,0.5
				c0.3,0.3,0.5,0.8,0.5,1.4V23.5z M175.5,19.8c-0.7-0.7-1.7-1.2-3.1-1.2c-1.3,0-2.3,0.5-3,1.2c-0.8,0.8-1.1,1.9-1.1,2.9v5.7h2.4
				v-2.8h3.6v2.8h2.4v-5.7C176.7,21.7,176.3,20.6,175.5,19.8L175.5,19.8z"/>
			<polygon id="Fill-30" class="st2" points="142.3,20.8 142.3,18.7 135.2,18.7 135.2,28.3 142.3,28.3 142.3,26.3 137.5,26.3 
				137.5,24.5 141.6,24.5 141.6,22.4 137.5,22.4 137.5,20.8 			"/>
			<polygon id="Fill-32" class="st2" points="196,22.9 199.9,18.7 196.9,18.7 193.9,22.1 193.9,18.7 191.6,18.7 191.6,28.3 
				193.9,28.3 193.9,25.2 194.5,24.6 196.5,27.3 197.2,28.3 200,28.3 			"/>
			<polygon id="Fill-34" class="st2" points="188.1,27 188.1,27 188.2,27.1 			"/>
			<path id="Fill-36" class="st2" d="M188.2,27.7C188.2,27.7,188.2,27.7,188.2,27.7c0.1-0.1,0.3-0.1,0.4-0.2l-0.9-1.9
				c-0.1,0.1-0.2,0.1-0.3,0.2c0,0-0.1,0.1-0.1,0.1c0,0,0,0,0,0c-0.5,0.3-1.1,0.4-1.8,0.4c-0.8,0-1.5-0.3-2-0.8
				c-0.5-0.5-0.8-1.2-0.8-2c0-0.7,0.2-1.3,0.6-1.8c0.5-0.6,1.2-1,2.2-1c0.5,0,1,0.1,1.4,0.3c0,0,0.1,0,0.1,0c0,0,0.1,0,0.1,0.1
				c0,0,0,0,0.1,0c0,0,0.1,0,0.1,0c0.1,0.1,0.2,0.1,0.3,0.2l0.9-1.9c-0.2-0.1-0.4-0.2-0.6-0.3c-0.7-0.3-1.5-0.5-2.6-0.5
				c-1.5,0-2.9,0.6-3.8,1.6c-0.8,0.8-1.3,1.9-1.3,3.2c0,1.5,0.6,2.7,1.5,3.6c0.9,0.8,2.2,1.3,3.6,1.3
				C186.5,28.3,187.4,28.1,188.2,27.7C188.1,27.7,188.2,27.7,188.2,27.7"/>
		</g>
	</g>
</g>
<g id="powered_by_sm">
	<g>
		<g class="st0">
			<path class="st1" d="M66.7,28.1l-1.5-5c-0.1-0.4-0.3-1.2-0.6-2.4h-0.1c-0.2,1.1-0.4,1.9-0.6,2.4l-1.6,5h-1.7l-2.5-9h1.5
				c0.6,2.2,1,3.9,1.3,5c0.3,1.1,0.5,2,0.5,2.4h0.1l0.1-0.5c0.2-0.8,0.3-1.4,0.5-1.9l1.6-5.1h1.6l1.5,5.1c0.1,0.2,0.1,0.4,0.2,0.6
				c0.1,0.2,0.1,0.4,0.2,0.6s0.1,0.4,0.1,0.6c0,0.2,0.1,0.4,0.1,0.5h0.1c0-0.4,0.2-1.3,0.6-2.7l1.3-4.8h1.5l-2.5,9H66.7z"/>
			<path class="st1" d="M72.4,16.7c0-0.3,0.1-0.6,0.2-0.7c0.2-0.1,0.4-0.2,0.6-0.2c0.2,0,0.4,0.1,0.6,0.2s0.3,0.4,0.3,0.7
				c0,0.3-0.1,0.6-0.3,0.7c-0.2,0.2-0.4,0.2-0.6,0.2c-0.2,0-0.5-0.1-0.6-0.2C72.5,17.3,72.4,17,72.4,16.7z M74,28.1h-1.5v-9H74V28.1
				z"/>
			<path class="st1" d="M79.8,27.1c0.2,0,0.4,0,0.7-0.1c0.3,0,0.4-0.1,0.6-0.1V28c-0.1,0.1-0.3,0.1-0.6,0.2
				c-0.3,0.1-0.6,0.1-0.9,0.1c-1.8,0-2.6-0.9-2.6-2.8v-5.2h-1.3v-0.7L77,19l0.6-1.9h0.9v2.1H81v1.1h-2.6v5.2c0,0.5,0.1,0.9,0.4,1.2
				C79.1,26.9,79.4,27.1,79.8,27.1z"/>
			<path class="st1" d="M89,28.1v-5.7c0-0.7-0.2-1.3-0.5-1.6c-0.3-0.4-0.8-0.5-1.5-0.5c-0.9,0-1.6,0.3-2,0.8
				c-0.4,0.5-0.6,1.3-0.6,2.5v4.6h-1.5V15.4h1.5v3.7c0,0.5,0,0.9-0.1,1.3h0.1c0.3-0.4,0.6-0.8,1.1-1c0.5-0.2,1-0.4,1.7-0.4
				c1.1,0,1.9,0.3,2.5,0.8c0.5,0.5,0.8,1.4,0.8,2.5v5.8H89z"/>
		</g>
		<g>
			<g>
				<path d="M134,32.3c-0.4-0.6-0.8-1.2-1.1-1.8c2-1.2,2.6-2.1,2.6-3.9V16.3h-2.3v-2h4.9v11.8C138.1,29.1,137.3,30.8,134,32.3z"/>
				<path d="M154.5,25.3c0,1,0.7,1.1,1.2,1.1c0.5,0,1.2-0.2,1.7-0.3v1.9c-0.7,0.2-1.5,0.4-2.6,0.4c-1.3,0-2.7-0.5-2.7-2.7v-5.4h-1.3
					v-1.9h1.3v-2.8h2.4v2.8h3.1v1.9h-3.1V25.3z"/>
				<path d="M159.5,33.3V18.3h2.3v0.9c0.9-0.7,2-1.2,3.2-1.2c2.2,0,3.9,1.5,3.9,4.8c0,3.3-1.9,5.4-5,5.4c-0.8,0-1.4-0.1-2-0.2v5.2
					H159.5z M164.4,20.1c-0.7,0-1.6,0.3-2.4,1.1v5.1c0.5,0.1,1.1,0.2,1.8,0.2c1.7,0,2.7-1.1,2.7-3.3C166.5,21,165.8,20.1,164.4,20.1
					z"/>
				<path d="M178.5,28.1h-2.3V27h-0.1c-0.8,0.6-1.8,1.3-3.2,1.3c-1.3,0-2.6-0.9-2.6-2.8c0-2.5,2.1-3,3.6-3.2l2.1-0.3v-0.3
					c0-1.3-0.5-1.7-1.8-1.7c-0.6,0-2,0.2-3.2,0.7l-0.2-2c1-0.4,2.5-0.6,3.7-0.6c2.4,0,3.9,0.9,3.9,3.8V28.1z M176.1,23.6l-2,0.3
					c-0.6,0.1-1.2,0.4-1.2,1.3c0,0.8,0.5,1.2,1.1,1.2c0.7,0,1.5-0.4,2.1-0.9V23.6z"/>
				<path d="M188.5,27.8c-1,0.3-1.9,0.6-3,0.6c-3.6,0-5.1-2.1-5.1-5.1c0-3.2,2-5.2,5.2-5.2c1.2,0,1.9,0.2,2.8,0.5v2.1
					c-0.7-0.3-1.7-0.6-2.7-0.6c-1.5,0-2.7,0.8-2.7,3.1c0,2.5,1.3,3.3,2.9,3.3c0.8,0,1.6-0.2,2.7-0.6V27.8z"/>
				<path d="M193.1,22.5c0.2-0.2,0.4-0.5,3.4-4.2h3.1l-4,4.6l4.3,5.1h-3.2l-3.8-4.6v4.6h-2.4V14.3h2.4V22.5z"/>
				<path d="M148.9,27.8c-1.3,0.4-2.3,0.6-3.6,0.6c-3.1,0-5-1.5-5-5.2c0-2.7,1.6-5.1,4.8-5.1c3.1,0,4.2,2.2,4.2,4.2
					c0,0.7,0,1-0.1,1.4h-6.3c0.1,2.1,1.3,2.6,3.1,2.6c1,0,1.9-0.2,2.9-0.6V27.8z M146.7,22.1c0-1.2-0.4-2.2-1.7-2.2
					c-1.2,0-2,0.9-2.1,2.2H146.7z"/>
			</g>
			<path class="st5" d="M112.9,9.7c-7.6,0-13.8,6.2-13.8,13.8s6.2,13.8,13.8,13.8s13.8-6.2,13.8-13.8S120.5,9.7,112.9,9.7z
				 M111.5,26.3h-6.9l6.9-13.8V26.3z M114.3,34.6V20.7h6.9L114.3,34.6z"/>
		</g>
	</g>
	<g>
		<path d="M8.6,19.7c0,1.2-0.4,2.2-1.3,2.8c-0.8,0.7-2,1-3.5,1H2.4v4.7H0.9v-12h3.2C7.1,16.2,8.6,17.4,8.6,19.7z M2.4,22.2h1.2
			c1.2,0,2.1-0.2,2.6-0.6c0.5-0.4,0.8-1,0.8-1.9C7,19,6.8,18.4,6.3,18c-0.5-0.4-1.3-0.6-2.3-0.6H2.4V22.2z"/>
		<path d="M18.5,23.7c0,1.5-0.4,2.6-1.1,3.5c-0.7,0.8-1.8,1.2-3.1,1.2c-0.8,0-1.5-0.2-2.2-0.6c-0.6-0.4-1.1-0.9-1.5-1.6
			c-0.3-0.7-0.5-1.5-0.5-2.5c0-1.5,0.4-2.6,1.1-3.4c0.7-0.8,1.8-1.2,3.1-1.2c1.3,0,2.3,0.4,3,1.3C18.2,21.1,18.5,22.2,18.5,23.7z
			 M11.7,23.7c0,1.1,0.2,2,0.7,2.6c0.4,0.6,1.1,0.9,2,0.9c0.9,0,1.5-0.3,2-0.9c0.4-0.6,0.7-1.5,0.7-2.6c0-1.1-0.2-2-0.7-2.6
			c-0.5-0.6-1.1-0.9-2-0.9C12.6,20.3,11.7,21.4,11.7,23.7z"/>
		<path d="M27.9,28.2l-1.5-5.1c-0.1-0.4-0.4-1.2-0.6-2.4h-0.1c-0.2,1.1-0.4,1.9-0.6,2.4l-1.6,5.1h-1.7l-2.5-9h1.5
			c0.6,2.2,1,3.9,1.3,5.1c0.3,1.2,0.5,2,0.5,2.5h0.1l0.1-0.5c0.2-0.8,0.3-1.4,0.5-1.9l1.6-5.1h1.6l1.6,5.1c0.1,0.2,0.1,0.4,0.2,0.6
			c0.1,0.2,0.1,0.4,0.2,0.6c0.1,0.2,0.1,0.4,0.1,0.6c0,0.2,0.1,0.4,0.1,0.5h0.1c0-0.4,0.2-1.3,0.6-2.7l1.3-4.8h1.5l-2.5,9H27.9z"/>
		<path d="M37.5,28.4c-1.4,0-2.4-0.4-3.2-1.2c-0.8-0.8-1.2-1.9-1.2-3.4c0-1.4,0.4-2.6,1.1-3.5c0.7-0.9,1.7-1.3,2.9-1.3
			c1.1,0,2,0.4,2.7,1.1s1,1.7,1,3V24h-6.2c0,1,0.3,1.8,0.8,2.3s1.2,0.8,2.1,0.8c0.5,0,0.9,0,1.4-0.1c0.4-0.1,0.9-0.3,1.5-0.5v1.3
			c-0.5,0.2-1,0.4-1.4,0.5C38.6,28.3,38.1,28.4,37.5,28.4z M37.1,20.2c-0.7,0-1.3,0.2-1.7,0.7c-0.4,0.5-0.7,1.1-0.7,1.9h4.6
			c0-0.8-0.2-1.5-0.6-1.9C38.3,20.4,37.8,20.2,37.1,20.2z"/>
		<path d="M47.2,19c0.4,0,0.8,0,1.1,0.1l-0.2,1.4c-0.3-0.1-0.7-0.1-1-0.1c-0.5,0-0.9,0.1-1.3,0.4c-0.4,0.3-0.7,0.6-1,1.1
			c-0.2,0.5-0.3,1-0.3,1.5v4.8H43v-9h1.2l0.2,1.7h0.1c0.3-0.6,0.8-1.1,1.2-1.4C46.1,19.2,46.6,19,47.2,19z"/>
		<path d="M53.4,28.4c-1.4,0-2.4-0.4-3.2-1.2c-0.8-0.8-1.2-1.9-1.2-3.4c0-1.4,0.4-2.6,1.1-3.5c0.7-0.9,1.7-1.3,2.9-1.3
			c1.1,0,2,0.4,2.7,1.1s1,1.7,1,3V24h-6.2c0,1,0.3,1.8,0.8,2.3s1.2,0.8,2.1,0.8c0.5,0,0.9,0,1.4-0.1c0.4-0.1,0.9-0.3,1.5-0.5v1.3
			c-0.5,0.2-1,0.4-1.4,0.5C54.6,28.3,54,28.4,53.4,28.4z M53.1,20.2c-0.7,0-1.3,0.2-1.7,0.7c-0.4,0.5-0.7,1.1-0.7,1.9h4.6
			c0-0.8-0.2-1.5-0.6-1.9C54.3,20.4,53.8,20.2,53.1,20.2z"/>
		<path d="M62.1,28.4c-1.2,0-2.1-0.4-2.7-1.2c-0.6-0.8-1-2-1-3.4c0-1.5,0.3-2.6,1-3.5c0.6-0.8,1.6-1.2,2.7-1.2
			c1.2,0,2.1,0.4,2.8,1.3H65c0-0.1,0-0.3-0.1-0.7c0-0.3,0-0.6,0-0.7v-3.6h1.5v12.8h-1.2L65,27h-0.1C64.3,27.9,63.4,28.4,62.1,28.4z
			 M62.4,27.1c0.9,0,1.6-0.2,2-0.7c0.4-0.5,0.6-1.3,0.6-2.4v-0.3c0-1.3-0.2-2.2-0.6-2.7c-0.4-0.5-1.1-0.8-2-0.8
			c-0.8,0-1.4,0.3-1.8,0.9c-0.4,0.6-0.6,1.5-0.6,2.6c0,1.1,0.2,2,0.6,2.5C61,26.9,61.6,27.1,62.4,27.1z"/>
		<path d="M77.6,19c1.2,0,2.1,0.4,2.8,1.2c0.6,0.8,1,2,1,3.4c0,1.5-0.3,2.6-1,3.5s-1.6,1.2-2.7,1.2c-0.6,0-1.2-0.1-1.6-0.3
			s-0.9-0.5-1.2-1h-0.1c-0.2,0.7-0.3,1-0.3,1.1h-1.1V15.4h1.5v3.1c0,0.6,0,1.2-0.1,1.9h0.1C75.4,19.5,76.4,19,77.6,19z M77.4,20.3
			c-0.9,0-1.6,0.3-2,0.8s-0.6,1.4-0.6,2.6v0.1c0,1.2,0.2,2.1,0.6,2.6c0.4,0.5,1.1,0.8,2,0.8c0.8,0,1.4-0.3,1.8-0.9
			c0.4-0.6,0.6-1.5,0.6-2.6c0-1.1-0.2-2-0.6-2.6C78.8,20.5,78.2,20.3,77.4,20.3z"/>
		<path d="M82,19.2h1.6l1.9,5.1c0.4,1.1,0.7,1.9,0.8,2.5h0.1c0-0.2,0.2-0.6,0.3-1.1c0.2-0.6,0.3-1,0.4-1.3l1.8-5.1h1.6l-3.9,10.3
			c-0.4,1-0.8,1.7-1.3,2.1c-0.5,0.4-1.2,0.6-1.9,0.6c-0.4,0-0.8,0-1.2-0.1v-1.2c0.3,0.1,0.6,0.1,1,0.1c0.5,0,0.9-0.1,1.2-0.4
			c0.3-0.3,0.6-0.7,0.8-1.2l0.5-1.2L82,19.2z"/>
	</g>
</g>
</svg>
