<svg xmlns="http://www.w3.org/2000/svg" version="1.1" id="poweredby" x="0" y="0" viewBox="0 0 200 47" xml:space="preserve" enable-background="new 0 0 200 47" width="180" height="42"><style type="text/css">.st0{fill:#00BE28;}</style><path d="M133.2 14.3h4.9v11.8c0 3-0.8 4.7-4.1 6.2 -0.4-0.6-0.8-1.2-1.1-1.8 2-1.2 2.6-2.1 2.6-3.9V16.3h-2.3V14.3zM154.5 15.6H152v2.8h-1.3v1.9h1.3v5.4c0 2.2 1.5 2.7 2.7 2.7 1 0 1.8-0.2 2.6-0.4v-1.9c-0.5 0.1-1.2 0.3-1.7 0.3s-1.2-0.1-1.2-1.1v-5h3.1v-1.9h-3.1V15.6zM169 22.9c0 3.3-1.9 5.4-5 5.4 -0.8 0-1.4-0.1-2-0.2v5.2h-2.4V18.3h2.3v0.9c0.9-0.7 2-1.2 3.2-1.2C167.2 18.1 169 19.6 169 22.9zM166.5 23.1c0-2.1-0.7-3-2.1-3 -0.7 0-1.6 0.3-2.4 1.1v5.1c0.5 0.1 1.1 0.2 1.8 0.2C165.5 26.4 166.5 25.3 166.5 23.1zM178.5 21.8v6.3h-2.3V27h-0.1c-0.8 0.6-1.8 1.3-3.2 1.3 -1.3 0-2.6-0.9-2.6-2.8 0-2.5 2.1-3 3.6-3.2l2.1-0.3v-0.3c0-1.3-0.5-1.7-1.8-1.7 -0.6 0-2 0.2-3.2 0.7l-0.2-2c1-0.4 2.5-0.6 3.7-0.6C177 18.1 178.5 19 178.5 21.8zM176.1 23.6l-2 0.3c-0.6 0.1-1.2 0.4-1.2 1.3 0 0.8 0.5 1.2 1.1 1.2 0.7 0 1.5-0.4 2.1-0.9V23.6zM182.9 23.1c0-2.3 1.3-3.1 2.7-3.1 1 0 2 0.3 2.7 0.6v-2.1c-0.8-0.3-1.6-0.5-2.8-0.5 -3.2 0-5.2 2-5.2 5.2 0 3 1.4 5.1 5.1 5.1 1.2 0 2-0.2 3-0.6v-2c-1.1 0.4-2 0.6-2.7 0.6C184.1 26.4 182.9 25.6 182.9 23.1zM195.7 23l4-4.6h-3.1c-3 3.7-3.2 4-3.4 4.2v-8.2h-2.4v13.8h2.4v-4.6l3.8 4.6h3.2L195.7 23zM149.2 22.3c0 0.7 0 1-0.1 1.4h-6.3c0.1 2.1 1.3 2.6 3.1 2.6 1 0 1.9-0.2 2.9-0.6v2c-1.3 0.4-2.3 0.6-3.6 0.6 -3.1 0-5-1.5-5-5.2 0-2.7 1.6-5.1 4.8-5.1C148.1 18.1 149.2 20.2 149.2 22.3zM146.7 22.1c0-1.2-0.4-2.2-1.7-2.2 -1.2 0-2 0.9-2.1 2.2H146.7z"/><path class="st0" d="M112.9 9.7c-7.6 0-13.8 6.2-13.8 13.8s6.2 13.8 13.8 13.8 13.8-6.2 13.8-13.8S120.5 9.7 112.9 9.7zM111.5 26.3h-6.9l6.9-13.8V26.3zM114.3 34.6V20.7h6.9L114.3 34.6z"/><path d="M4.1 16.2H0.9v12h1.5v-4.7h1.4c1.5 0 2.7-0.3 3.5-1 0.8-0.7 1.3-1.6 1.3-2.8C8.6 17.4 7.1 16.2 4.1 16.2zM6.2 21.6c-0.5 0.4-1.4 0.6-2.6 0.6H2.4v-4.8h1.5c1.1 0 1.8 0.2 2.3 0.6C6.8 18.4 7 19 7 19.8 7 20.6 6.7 21.3 6.2 21.6zM14.4 19c-1.3 0-2.4 0.4-3.1 1.2 -0.7 0.8-1.1 2-1.1 3.4 0 0.9 0.2 1.8 0.5 2.5 0.3 0.7 0.8 1.3 1.5 1.6 0.6 0.4 1.4 0.6 2.2 0.6 1.3 0 2.3-0.4 3.1-1.2 0.7-0.8 1.1-2 1.1-3.5 0-1.4-0.4-2.6-1.1-3.4C16.7 19.4 15.7 19 14.4 19zM16.3 26.3c-0.4 0.6-1.1 0.9-2 0.9 -0.9 0-1.5-0.3-2-0.9 -0.4-0.6-0.7-1.5-0.7-2.6 0-2.3 0.9-3.4 2.6-3.4 0.9 0 1.5 0.3 2 0.9 0.5 0.6 0.7 1.4 0.7 2.6C17 24.8 16.8 25.7 16.3 26.3zM30.7 19.2h1.5l-2.5 9h-1.7l-1.5-5.1c-0.1-0.4-0.4-1.2-0.6-2.4h-0.1c-0.2 1.1-0.4 1.9-0.6 2.4l-1.6 5.1h-1.7l-2.5-9h1.5c0.6 2.2 1 3.9 1.3 5.1 0.3 1.2 0.5 2 0.5 2.5h0.1l0.1-0.5c0.2-0.8 0.3-1.4 0.5-1.9l1.6-5.1h1.6l1.6 5.1c0.1 0.2 0.1 0.4 0.2 0.6 0.1 0.2 0.1 0.4 0.2 0.6 0.1 0.2 0.1 0.4 0.1 0.6 0 0.2 0.1 0.4 0.1 0.5h0.1c0-0.4 0.2-1.3 0.6-2.7L30.7 19.2zM37.1 19c-1.2 0-2.2 0.4-2.9 1.3 -0.7 0.9-1.1 2-1.1 3.5 0 1.4 0.4 2.6 1.2 3.4 0.8 0.8 1.8 1.2 3.2 1.2 0.6 0 1.1 0 1.6-0.1 0.4-0.1 0.9-0.2 1.4-0.5v-1.3c-0.6 0.2-1.1 0.4-1.5 0.5 -0.4 0.1-0.9 0.1-1.4 0.1 -0.9 0-1.6-0.3-2.1-0.8S34.7 25 34.7 24h6.2v-0.9c0-1.3-0.3-2.2-1-3C39.2 19.4 38.3 19 37.1 19zM34.7 22.8c0.1-0.8 0.3-1.4 0.7-1.9s1-0.7 1.7-0.7c0.7 0 1.2 0.2 1.6 0.7 0.4 0.4 0.6 1.1 0.6 1.9H34.7zM47.2 19c0.4 0 0.8 0 1.1 0.1l-0.2 1.4c-0.3-0.1-0.7-0.1-1-0.1 -0.5 0-0.9 0.1-1.3 0.4 -0.4 0.3-0.7 0.6-1 1.1s-0.3 1-0.3 1.5v4.8H43v-9h1.2l0.2 1.7h0.1c0.3-0.6 0.8-1.1 1.2-1.4C46.1 19.2 46.6 19 47.2 19zM53.1 19c-1.2 0-2.2 0.4-2.9 1.3 -0.7 0.9-1.1 2-1.1 3.5 0 1.4 0.4 2.6 1.2 3.4 0.8 0.8 1.8 1.2 3.2 1.2 0.6 0 1.1 0 1.6-0.1 0.4-0.1 0.9-0.2 1.4-0.5v-1.3c-0.6 0.2-1.1 0.4-1.5 0.5 -0.4 0.1-0.9 0.1-1.4 0.1 -0.9 0-1.6-0.3-2.1-0.8S50.7 25 50.6 24h6.2v-0.9c0-1.3-0.3-2.2-1-3C55.1 19.4 54.2 19 53.1 19zM50.7 22.8c0.1-0.8 0.3-1.4 0.7-1.9 0.4-0.5 1-0.7 1.7-0.7 0.7 0 1.2 0.2 1.6 0.7 0.4 0.4 0.6 1.1 0.6 1.9H50.7zM64.9 19c0 0.1 0 0.3 0 0.7 0 0.3 0 0.6 0.1 0.7h-0.1c-0.7-0.9-1.6-1.3-2.8-1.3 -1.2 0-2.1 0.4-2.7 1.2s-1 2-1 3.5c0 1.5 0.3 2.6 1 3.4 0.6 0.8 1.6 1.2 2.7 1.2 1.2 0 2.2-0.5 2.8-1.4H65l0.2 1.2h1.2V15.4h-1.5V19zM65 24c0 1.1-0.2 1.9-0.6 2.4 -0.4 0.5-1.1 0.7-2 0.7 -0.8 0-1.4-0.3-1.8-0.9 -0.4-0.6-0.6-1.4-0.6-2.5 0-1.1 0.2-2 0.6-2.6 0.4-0.6 1-0.9 1.8-0.9 0.9 0 1.6 0.3 2 0.8s0.6 1.4 0.6 2.7V24zM77.6 19c-1.3 0-2.2 0.4-2.8 1.3h-0.1c0.1-0.6 0.1-1.2 0.1-1.9v-3.1h-1.5v12.8h1.1c0-0.1 0.1-0.5 0.3-1.1h0.1c0.3 0.4 0.7 0.8 1.2 1 0.5 0.2 1 0.3 1.6 0.3 1.2 0 2.1-0.4 2.7-1.2 0.7-0.8 1-2 1-3.5 0-1.5-0.3-2.6-1-3.4C79.7 19.4 78.8 19 77.6 19zM79.2 26.3c-0.4 0.6-1 0.9-1.8 0.9 -0.9 0-1.6-0.3-2-0.8 -0.4-0.5-0.6-1.4-0.6-2.6v-0.1c0-1.2 0.2-2.1 0.6-2.6 0.4-0.5 1-0.8 2-0.8 0.8 0 1.4 0.3 1.8 0.9 0.4 0.6 0.6 1.4 0.6 2.6C79.8 24.8 79.6 25.7 79.2 26.3zM90.5 19.2l-3.9 10.3c-0.4 1-0.8 1.7-1.3 2.1 -0.5 0.4-1.2 0.6-1.9 0.6 -0.4 0-0.8 0-1.2-0.1v-1.2c0.3 0.1 0.6 0.1 1 0.1 0.5 0 0.9-0.1 1.2-0.4s0.6-0.7 0.8-1.2l0.5-1.2L82 19.2h1.6l1.9 5.1c0.4 1.1 0.7 1.9 0.8 2.5h0.1c0-0.2 0.2-0.6 0.3-1.1 0.2-0.6 0.3-1 0.4-1.3l1.8-5.1H90.5z"/></svg>