<svg width="145" height="27" viewBox="0 0 145 27" fill="none" xmlns="http://www.w3.org/2000/svg">
<path d="M11.512 9.64052H9.65343L8.43288 7.352H3.00976L1.83082 9.64052H0L4.99315 0.40319H6.43562L11.512 9.64052ZM7.75326 6.08984L5.67278 2.20627L3.66165 6.08984H7.75326Z" fill="black"/>
<path d="M24.4927 5.79857C24.4927 8.0871 23.0225 10.0011 19.5411 10.0011C16.2262 10.0011 14.6867 8.19806 14.6867 5.79857V0.40319H16.4065V5.82631C16.4065 7.5323 17.53 8.54481 19.666 8.54481C21.8574 8.54481 22.7589 7.5323 22.7589 5.82631V0.40319H24.4927V5.79857Z" fill="black"/>
<path d="M38.3203 1.84566H34.2842V9.64052H32.5504V1.84566H28.5143V0.40319H38.3203V1.84566Z" fill="black"/>
<path d="M52.4655 5.1883C52.4655 7.64326 50.3434 10.0011 47.0563 10.0011C43.783 10.0011 41.6609 7.64326 41.6609 5.1883V4.88316C41.6609 2.38658 43.783 0.0703125 47.0563 0.0703125C50.3434 0.0703125 52.4655 2.38658 52.4655 4.88316V5.1883ZM50.7179 5.13282V4.9109C50.7179 3.12168 49.4141 1.52665 47.0563 1.52665C44.6984 1.52665 43.4085 3.12168 43.4085 4.9109V5.13282C43.4085 6.92203 44.6984 8.54481 47.0563 8.54481C49.4141 8.54481 50.7179 6.92203 50.7179 5.13282Z" fill="black"/>
<path d="M69.507 9.64052H67.7733V2.3311L67.3156 3.13555L63.4459 9.64052H62.5998L58.7717 3.13555L58.314 2.3311V9.64052H56.6219V0.40319H59.0214L62.6692 6.74172L63.0991 7.51843L63.5291 6.74172L67.1353 0.40319H69.507V9.64052Z" fill="black"/>
<path d="M84.6133 9.64052H82.7547L81.5342 7.352H76.111L74.9321 9.64052H73.1013L78.0944 0.40319H79.5369L84.6133 9.64052ZM80.8545 6.08984L78.774 2.20627L76.7629 6.08984H80.8545Z" fill="black"/>
<path d="M96.2703 1.84566H92.2342V9.64052H90.5005V1.84566H86.4643V0.40319H96.2703V1.84566Z" fill="black"/>
<path d="M109.688 1.84566H105.652V9.64052H103.918V1.84566H99.8818V0.40319H109.688V1.84566Z" fill="black"/>
<path d="M115.588 9.64052H113.854V0.40319H115.588V9.64052Z" fill="black"/>
<path d="M130.143 1.91501L129.061 3.01073C128.229 2.24788 127.009 1.52665 125.358 1.52665C122.889 1.52665 121.502 3.21877 121.502 4.98025V5.16056C121.502 6.90816 122.903 8.54481 125.483 8.54481C127.023 8.54481 128.299 7.8097 129.103 7.06073L130.143 8.15645C129.131 9.15508 127.411 10.0011 125.372 10.0011C121.877 10.0011 119.755 7.72648 119.755 5.22991V4.92477C119.755 2.42819 122.071 0.0703125 125.455 0.0703125C127.411 0.0703125 129.186 0.888635 130.143 1.91501Z" fill="black"/>
<path d="M9.34829 18.8457H2.84332V21.4948H7.68391V22.8679H2.84332V26.6405H1.12346V17.4032H9.34829V18.8457Z" fill="black"/>
<path d="M23.4092 22.1883C23.4092 24.6433 21.2871 27.0011 18 27.0011C14.7267 27.0011 12.6046 24.6433 12.6046 22.1883V21.8832C12.6046 19.3866 14.7267 17.0703 18 17.0703C21.2871 17.0703 23.4092 19.3866 23.4092 21.8832V22.1883ZM21.6616 22.1328V21.9109C21.6616 20.1217 20.3578 18.5266 18 18.5266C15.6421 18.5266 14.3522 20.1217 14.3522 21.9109V22.1328C14.3522 23.922 15.6421 25.5448 18 25.5448C20.3578 25.5448 21.6616 23.922 21.6616 22.1328Z" fill="black"/>
<path d="M37.0942 26.6405H35.5269C35.0553 26.6405 34.8473 25.9886 34.7918 25.1564L34.7363 24.2133C34.6809 23.2979 34.3064 22.9095 32.5726 22.9095H29.2993V26.6405H27.5656V17.4032H32.6004C35.3744 17.4032 36.6226 18.5128 36.6226 19.9414C36.6226 20.9539 36.1095 21.9109 34.3064 22.2438C36.1095 22.3825 36.4978 23.2008 36.5117 24.2826L36.5256 25.0455C36.5394 25.6835 36.6504 26.1412 37.0942 26.5989V26.6405ZM34.875 20.2743V20.1633C34.875 19.4975 34.3341 18.8457 32.85 18.8457H29.2993V21.6196H33.0026C34.2786 21.6196 34.875 21.0094 34.875 20.2743Z" fill="black"/>
<path d="M58.2063 26.6405H56.3478L55.1272 24.352H49.7041L48.5252 26.6405H46.6943L51.6875 17.4032H53.13L58.2063 26.6405ZM54.4476 23.0898L52.3671 19.2063L50.356 23.0898H54.4476Z" fill="black"/>
<path d="M71.2338 26.6405H70.1242L69.8607 25.3922C68.973 26.4186 67.7109 27.0011 66.1436 27.0011C62.8703 27.0011 60.7482 24.7542 60.7482 22.1883V22.0219C60.7482 19.4005 63.0645 17.0703 66.4487 17.0703C68.5292 17.0703 70.2213 17.9302 71.1367 18.915L70.0549 20.0107C69.2227 19.2479 67.9328 18.5266 66.4348 18.5266C63.855 18.5266 62.4958 20.1772 62.4958 21.9802V22.1328C62.4958 23.9359 63.9521 25.5448 66.31 25.5448C68.0992 25.5448 69.3753 24.4491 69.3753 23.3395V23.2424H66.5319V21.8693H71.2338V26.6405Z" fill="black"/>
<path d="M84.0057 26.6405H75.6144V17.4032H84.0057V18.8457H77.3482V21.2174H82.4661V22.6183H77.3482V25.1981H84.0057V26.6405Z" fill="black"/>
<path d="M98.0526 26.6405H96.5547L90.549 20.4546L89.9665 19.8027V26.6405H88.2328V17.4032H89.8971L95.7225 23.5753L96.3189 24.241V17.4032H98.0526V26.6405Z" fill="black"/>
<path d="M112.608 18.915L111.526 20.0107C110.694 19.2479 109.474 18.5266 107.823 18.5266C105.354 18.5266 103.967 20.2188 103.967 21.9802V22.1606C103.967 23.9082 105.368 25.5448 107.948 25.5448C109.487 25.5448 110.764 24.8097 111.568 24.0607L112.608 25.1564C111.596 26.1551 109.876 27.0011 107.837 27.0011C104.342 27.0011 102.22 24.7265 102.22 22.2299V21.9248C102.22 19.4282 104.536 17.0703 107.92 17.0703C109.876 17.0703 111.651 17.8886 112.608 18.915Z" fill="black"/>
<path d="M118.373 26.6405H116.639V17.4032H118.373V26.6405Z" fill="black"/>
<path d="M131.486 26.6405H123.094V17.4032H131.486V18.8457H124.828V21.2174H129.946V22.6183H124.828V25.1981H131.486V26.6405Z" fill="black"/>
<path d="M144.867 24.0469C144.867 25.8499 142.897 27.0011 140.151 27.0011C138.279 27.0011 136.545 26.488 135.116 25.8083L135.754 24.4352C137.211 25.1564 138.75 25.5864 140.234 25.5864C142.232 25.5864 143.119 24.9345 143.119 24.2272C143.119 22.0219 135.38 23.4921 135.38 20.1078C135.38 18.388 137.238 17.0703 140.165 17.0703C141.982 17.0703 143.674 17.7083 144.714 18.388L143.771 19.553C142.911 18.9982 141.496 18.485 140.109 18.485C138.306 18.485 137.114 19.0953 137.114 19.8859C137.114 21.897 144.867 20.5517 144.867 24.0469Z" fill="black"/>
</svg>
