<svg width="168" height="18" viewBox="0 0 168 18" fill="none" xmlns="http://www.w3.org/2000/svg">
<g clip-path="url(#clip0_10579_13610)">
<path d="M10.2366 18C4.40722 18 0.625977 13.7251 0.625977 9.27573V8.72427C0.625977 4.19953 4.40722 0 10.2366 0C16.066 0 19.8797 4.19953 19.8797 8.72427V9.27573C19.8797 13.7251 16.0985 18 10.2366 18ZM16.7611 8.77141C16.7611 5.52867 14.4442 2.64415 10.2366 2.64415C6.02907 2.64415 3.74921 5.53339 3.74921 8.77141V9.17675C3.74921 12.4195 6.06615 15.3606 10.2366 15.3606C14.4071 15.3606 16.7611 12.4195 16.7611 9.17675V8.77141Z" fill="#24A3E0"/>
<path d="M10.6174 6.20884L7.78751 10.6676C7.61547 10.9385 7.55626 11.2678 7.62291 11.5831C7.68957 11.8984 7.87662 12.1738 8.14293 12.3488L8.1471 12.3512C8.279 12.4378 8.42638 12.4972 8.58083 12.5259C8.73528 12.5545 8.89378 12.552 9.04726 12.5184C9.20075 12.4848 9.34622 12.4207 9.47538 12.3299C9.60453 12.2391 9.71484 12.1234 9.8 11.9892L12.6304 7.53044C12.8022 7.25954 12.8613 6.9303 12.7945 6.61512C12.7278 6.29994 12.5407 6.02462 12.2745 5.84969L12.2703 5.84686C12.1384 5.76023 11.991 5.70088 11.8366 5.67219C11.6821 5.6435 11.5237 5.64603 11.3702 5.67965C11.2167 5.71326 11.0712 5.77729 10.942 5.86809C10.8129 5.95889 10.7026 6.07468 10.6174 6.20884Z" fill="#021B24"/>
</g>
<path d="M44.3917 15.5398H41.7521L40.0187 12.2896H32.3167L30.6424 15.5398H28.0422L35.1336 2.42088H37.1822L44.3917 15.5398ZM39.0535 10.4971L36.0988 4.98163L33.2425 10.4971H39.0535Z" fill="#021B24"/>
<path d="M62.8934 15.5398H61.3176L60.9433 13.767C59.6826 15.2246 57.8901 16.052 55.6642 16.052C51.0155 16.052 48.0017 12.8609 48.0017 9.21672V8.98035C48.0017 5.2574 51.2912 1.94812 56.0976 1.94812C59.0523 1.94812 61.4555 3.1694 62.7555 4.56797L61.2191 6.12412C60.0372 5.04072 58.2053 4.01642 56.0779 4.01642C52.414 4.01642 50.4836 6.3605 50.4836 8.92125V9.13793C50.4836 11.6987 52.5519 13.9837 55.9006 13.9837C58.4417 13.9837 60.2539 12.4275 60.2539 10.8517V10.7138H56.2158V8.76367H62.8934V15.5398Z" fill="#021B24"/>
<path d="M81.0322 15.5398H69.1148V2.42088H81.0322V4.46948H71.5771V7.83786H78.8457V9.82737H71.5771V13.4912H81.0322V15.5398Z" fill="#021B24"/>
<path d="M100.982 15.5398H98.8543L90.3251 6.75446L89.4977 5.82865V15.5398H87.0355V2.42088H89.3992L97.6725 11.1865L98.5195 12.132V2.42088H100.982V15.5398Z" fill="#021B24"/>
<path d="M121.654 4.56797L120.117 6.12412C118.935 5.04072 117.202 4.01642 114.858 4.01642C111.352 4.01642 109.382 6.41959 109.382 8.92125V9.17733C109.382 11.6593 111.371 13.9837 115.035 13.9837C117.222 13.9837 119.034 12.9397 120.176 11.876L121.654 13.4321C120.216 14.8504 117.773 16.052 114.878 16.052C109.914 16.052 106.9 12.8215 106.9 9.27582V8.84246C106.9 5.2968 110.189 1.94812 114.996 1.94812C117.773 1.94812 120.295 3.11031 121.654 4.56797Z" fill="#021B24"/>
<path d="M129.84 15.5398H127.378V2.42088H129.84V15.5398Z" fill="#021B24"/>
<path d="M148.464 15.5398H136.546V2.42088H148.464V4.46948H139.008V7.83786H146.277V9.82737H139.008V13.4912H148.464V15.5398Z" fill="#021B24"/>
<path d="M167.468 11.8563C167.468 14.417 164.671 16.052 160.77 16.052C158.111 16.052 155.649 15.3231 153.62 14.3579L154.526 12.4078C156.594 13.4321 158.781 14.0428 160.888 14.0428C163.725 14.0428 164.986 13.117 164.986 12.1123C164.986 8.98035 153.994 11.0683 153.994 6.26201C153.994 3.81944 156.634 1.94812 160.79 1.94812C163.37 1.94812 165.774 2.85423 167.251 3.81944L165.911 5.47408C164.69 4.68616 162.681 3.95733 160.711 3.95733C158.15 3.95733 156.456 4.82405 156.456 5.94684C156.456 8.80306 167.468 6.89235 167.468 11.8563Z" fill="#021B24"/>
<defs>
<clipPath id="clip0_10579_13610">
<rect width="19.3585" height="18" fill="white" transform="translate(0.532715)"/>
</clipPath>
</defs>
</svg>
