<svg width="274" height="294" viewBox="0 0 274 294" fill="none" xmlns="http://www.w3.org/2000/svg">
<g clip-path="url(#clip0_6818_64308)">
<path d="M215.352 128.835C219.087 120.364 216.234 110.018 209.012 105.844L178.918 88.4519C171.696 84.2779 156.823 84.3799 145.867 88.6779L100.21 106.587C89.2537 110.885 77.2327 121.332 73.4987 129.803L57.9357 165.104C54.2007 173.575 57.0537 183.921 64.2757 188.095L94.3697 205.487C101.592 209.661 116.465 209.559 127.421 205.261L173.078 187.352C184.034 183.054 196.054 172.607 199.789 164.136L215.352 128.835Z" stroke="#5AB7E8" stroke-width="0.1982" stroke-miterlimit="10"/>
<path d="M217.556 130.952C221.666 122.269 219.125 111.395 211.909 106.788L181.839 87.5886C174.623 82.9816 159.452 82.5466 148.126 86.6216L100.928 103.606C89.6022 107.682 76.9722 118.121 72.8612 126.804L55.7332 162.987C51.6232 171.67 54.1642 182.544 61.3802 187.151L91.4502 206.35C98.6662 210.957 113.837 211.392 125.163 207.317L172.361 190.333C183.687 186.257 196.317 175.818 200.428 167.135L217.556 130.952Z" stroke="#5AB7E8" stroke-width="0.2043" stroke-miterlimit="10"/>
<path d="M219.727 133.235C224.228 124.345 222.024 112.933 214.829 107.874L184.848 86.794C177.653 81.735 162.198 80.731 150.502 84.562L101.765 100.527C90.0691 104.358 76.8181 114.766 72.3171 123.656L53.5611 160.701C49.0601 169.591 51.2641 181.004 58.4591 186.062L88.4401 207.142C95.6351 212.201 111.09 213.205 122.786 209.374L171.523 193.409C183.219 189.578 196.47 179.17 200.971 170.28L219.727 133.235Z" stroke="#5AB7E8" stroke-width="0.2106" stroke-miterlimit="10"/>
<path d="M221.86 135.693C226.767 126.602 224.925 114.641 217.768 109.113L187.944 86.0776C180.787 80.5496 165.061 78.9426 152.998 82.5056L102.728 97.3536C90.6653 100.917 76.7803 111.271 71.8743 120.362L51.4283 158.246C46.5223 167.337 48.3633 179.298 55.5203 184.826L85.3443 207.861C92.5013 213.389 108.227 214.996 120.29 211.433L170.56 196.585C182.623 193.022 196.508 182.668 201.414 173.577L221.86 135.693Z" stroke="#5AB7E8" stroke-width="0.2172" stroke-miterlimit="10"/>
<path d="M223.948 138.328C229.275 129.042 227.824 116.524 220.722 110.509L191.129 85.444C184.027 79.429 168.048 77.184 155.619 80.455L103.826 94.085C91.3968 97.356 76.8688 107.63 71.5418 116.915L49.3418 155.61C44.0148 164.896 45.4658 177.414 52.5678 183.429L82.1608 208.494C89.2628 214.509 105.242 216.754 117.671 213.483L169.464 199.853C181.893 196.582 196.421 186.308 201.748 177.023L223.948 138.328Z" stroke="#5AB7E8" stroke-width="0.2239" stroke-miterlimit="10"/>
<path d="M225.982 141.147C231.745 131.674 230.711 118.589 223.683 112.069L194.397 84.8997C187.369 78.3797 171.153 75.4617 158.362 78.4147L105.059 90.7217C92.2685 93.6747 77.0865 103.842 71.3235 113.315L47.3055 152.791C41.5425 162.264 42.5765 175.349 49.6045 181.869L78.8905 209.038C85.9185 215.558 102.134 218.476 114.925 215.523L168.228 203.216C181.019 200.263 196.201 190.096 201.964 180.623L225.982 141.147Z" stroke="#5AB7E8" stroke-width="0.2308" stroke-miterlimit="10"/>
<path d="M227.958 144.155C234.173 134.503 233.584 120.843 226.649 113.8L197.75 84.4524C190.815 77.4094 174.382 73.7824 161.233 76.3914L106.437 87.2654C93.2867 89.8744 77.4437 99.9074 71.2287 109.559L45.3307 149.781C39.1157 159.433 39.7047 173.093 46.6397 180.136L75.5377 209.484C82.4727 216.527 98.9057 220.154 112.055 217.545L166.851 206.671C180.001 204.062 195.844 194.029 202.059 184.377L227.958 144.155Z" stroke="#5AB7E8" stroke-width="0.238" stroke-miterlimit="10"/>
<path d="M229.865 147.359C236.547 137.537 236.432 123.295 229.611 115.711L201.186 84.1076C194.365 76.5236 177.736 72.1506 164.233 74.3886L107.965 83.7166C94.4619 85.9546 77.9479 95.8226 71.2659 105.646L43.4229 146.577C36.7409 156.399 36.8559 170.641 43.6769 178.225L72.1019 209.828C78.9229 217.412 95.5519 221.785 109.055 219.547L165.323 210.219C178.826 207.981 195.34 198.113 202.022 188.29L229.865 147.359Z" stroke="#5AB7E8" stroke-width="0.2454" stroke-miterlimit="10"/>
<path d="M231.695 150.764C238.859 140.781 239.249 125.951 232.563 117.808L204.701 83.8745C198.015 75.7315 181.213 70.5735 167.363 72.4135L109.65 80.0785C95.7996 81.9175 78.6076 91.5905 71.4436 101.574L41.5926 143.172C34.4286 153.155 34.0386 167.985 40.7246 176.128L68.5866 210.061C75.2726 218.204 92.0746 223.362 105.925 221.522L163.638 213.857C177.488 212.018 194.68 202.345 201.844 192.362L231.695 150.764Z" stroke="#5AB7E8" stroke-width="0.253" stroke-miterlimit="10"/>
<path d="M233.441 154.375C241.102 144.243 242.028 128.819 235.5 120.099L208.295 83.7609C201.767 75.0409 184.816 69.0609 170.627 70.4719L111.499 76.3539C97.3096 77.7649 79.4326 87.2099 71.7716 97.3419L39.8486 139.562C32.1876 149.694 31.2616 165.118 37.7896 173.838L64.9946 210.176C71.5226 218.896 88.4736 224.876 102.663 223.465L161.791 217.583C175.98 216.172 193.857 206.727 201.518 196.595L233.441 154.375Z" stroke="#5AB7E8" stroke-width="0.2608" stroke-miterlimit="10"/>
<path d="M235.092 158.198C243.265 147.929 244.759 131.905 238.412 122.59L211.963 83.7723C205.616 74.4573 188.543 67.6153 174.022 68.5693L113.515 72.5423C98.9954 73.4963 80.4274 82.6783 72.2544 92.9473L38.1964 135.739C30.0234 146.008 28.5294 162.032 34.8764 171.347L61.3254 210.165C67.6724 219.48 84.7454 226.322 99.2664 225.368L159.773 221.395C174.293 220.441 192.861 211.259 201.034 200.99L235.092 158.198Z" stroke="#5AB7E8" stroke-width="0.2689" stroke-miterlimit="10"/>
<path d="M236.64 162.239C245.341 151.846 247.435 135.219 241.294 125.291L215.704 83.9182C209.563 73.9902 192.396 66.2472 177.554 66.7112L115.708 68.6482C100.867 69.1132 81.6048 77.9972 72.9038 88.3902L36.6478 131.7C27.9468 142.093 25.8528 158.72 31.9938 168.648L57.5838 210.021C63.7248 219.949 80.8918 227.692 95.7338 227.228L157.58 225.291C172.421 224.826 191.683 215.942 200.384 205.549L236.64 162.239Z" stroke="#5AB7E8" stroke-width="0.2772" stroke-miterlimit="10"/>
<path d="M238.075 166.501C247.318 155.998 250.046 138.765 244.137 128.206L219.514 84.2051C213.605 73.6461 196.374 64.9611 181.222 64.9061L118.083 64.6741C102.931 64.6181 82.9721 73.1661 73.7291 83.6701L35.2131 127.439C25.9701 137.942 23.2421 155.175 29.1511 165.734L53.7741 209.735C59.6831 220.294 76.9141 228.979 92.0661 229.034L155.205 229.266C170.357 229.322 190.316 220.774 199.559 210.27L238.075 166.501Z" stroke="#5AB7E8" stroke-width="0.2858" stroke-miterlimit="10"/>
<path d="M239.387 170.989C249.187 160.391 252.582 142.55 246.932 131.343L223.389 84.6418C217.739 73.4348 200.476 63.7668 185.027 63.1588L120.647 60.6218C105.197 60.0128 84.5385 68.1858 74.7385 78.7848L33.9015 122.949C24.1015 133.547 20.7065 151.388 26.3565 162.595L49.8995 209.295C55.5495 220.502 72.8125 230.17 88.2615 230.778L152.642 233.315C168.091 233.924 188.75 225.751 198.55 215.152L239.387 170.989Z" stroke="#5AB7E8" stroke-width="0.2947" stroke-miterlimit="10"/>
<path d="M240.563 175.709C250.934 165.032 255.032 146.584 249.67 134.711L227.324 85.2375C221.962 73.3655 204.701 62.6735 188.968 61.4775L123.405 56.4965C107.671 55.3015 86.3135 63.0585 75.9425 73.7355L32.7255 118.227C22.3545 128.904 18.2565 147.353 23.6185 159.226L45.9645 208.7C51.3265 220.572 68.5875 231.264 84.3205 232.46L149.883 237.441C165.617 238.636 186.975 230.879 197.346 220.202L240.563 175.709Z" stroke="#5AB7E8" stroke-width="0.3038" stroke-miterlimit="10"/>
<path d="M241.596 180.667C252.553 169.929 257.389 150.872 252.343 138.317L231.317 86.0006C226.271 73.4466 209.05 61.6886 193.048 59.8716L126.365 52.3026C110.363 50.4866 88.3064 57.7856 77.3494 68.5236L31.6915 113.271C20.7345 124.009 15.8985 143.066 20.9445 155.621L41.9705 207.937C47.0165 220.491 64.2374 232.249 80.2394 234.066L146.922 241.635C162.924 243.451 184.981 236.152 195.938 225.414L241.596 180.667Z" stroke="#5AB7E8" stroke-width="0.3132" stroke-miterlimit="10"/>
<path d="M242.473 185.865C254.029 175.085 259.639 155.421 254.941 142.168L235.362 86.9412C230.663 73.6882 213.52 60.8222 197.266 58.3492L129.533 48.0452C113.279 45.5722 90.5252 52.3692 78.9702 63.1502L30.8162 108.073C19.2602 118.853 13.6502 138.517 18.3482 151.77L37.9272 206.997C42.6262 220.25 59.7692 233.116 76.0232 235.589L143.756 245.893C160.01 248.366 182.764 241.569 194.319 230.788L242.473 185.865Z" stroke="#5AB7E8" stroke-width="0.3229" stroke-miterlimit="10"/>
<path d="M243.182 191.308C255.35 180.505 261.772 160.239 257.452 146.271L239.452 88.0661C235.132 74.0981 218.108 60.0811 201.621 56.9161L132.915 43.7271C116.427 40.5621 92.981 46.8111 80.813 57.6131L30.106 102.628C17.938 113.431 11.516 133.697 15.836 147.665L33.836 205.87C38.156 219.838 55.18 233.855 71.667 237.02L140.373 250.209C156.861 253.374 180.307 247.125 192.475 236.323L243.182 191.308Z" stroke="#5AB7E8" stroke-width="0.3329" stroke-miterlimit="10"/>
<path d="M243.711 196.999C256.505 186.196 263.775 165.331 259.868 150.633L243.585 89.3865C239.677 74.6885 222.816 59.4775 206.114 55.5825L136.518 39.3545C119.817 35.4605 95.6839 41.1135 82.8909 51.9165L29.5779 96.9364C16.7839 107.739 9.51393 128.604 13.4209 143.302L29.7039 204.549C33.6119 219.247 50.4729 234.458 67.1749 238.353L136.771 254.581C153.472 258.475 177.605 252.822 190.398 242.019L243.711 196.999Z" stroke="#5AB7E8" stroke-width="0.3432" stroke-miterlimit="10"/>
<path d="M244.048 202.946C257.48 192.164 265.637 170.708 262.175 155.265L247.751 90.9127C244.29 75.4697 227.636 59.0207 210.743 54.3597L140.348 34.9357C123.455 30.2747 98.6444 35.2817 85.2124 46.0637L29.2414 90.9917C15.8094 101.774 7.65239 123.23 11.1144 138.673L25.5384 203.025C28.9994 218.468 45.6534 234.917 62.5464 239.578L132.941 259.002C149.834 263.663 174.645 258.656 188.077 247.874L244.048 202.946Z" stroke="#5AB7E8" stroke-width="0.3539" stroke-miterlimit="10"/>
<path d="M244.18 209.148C258.261 198.412 267.344 176.372 264.364 160.17L251.946 92.6531C248.966 76.4511 232.569 58.7211 215.507 53.2551L144.411 30.4751C127.35 25.0081 101.869 29.3191 87.7876 40.0551L29.1086 84.7911C15.0276 95.5271 5.94462 117.567 8.92462 133.769L21.3426 201.286C24.3226 217.488 40.7196 235.218 57.7816 240.684L128.878 263.464C145.939 268.931 171.42 264.62 185.501 253.884L244.18 209.148Z" stroke="#5AB7E8" stroke-width="0.3648" stroke-miterlimit="10"/>
<path d="M244.093 215.607C258.835 204.943 268.883 182.328 266.421 165.353L256.162 94.6145C253.7 77.6385 237.609 58.5865 220.405 52.2755L148.713 25.9765C131.509 19.6655 105.371 23.2265 90.6283 33.8915L29.1963 78.3295C14.4543 88.9935 4.40628 111.608 6.86828 128.583L17.1273 199.322C19.5893 216.298 35.6803 235.35 52.8843 241.661L124.576 267.96C141.78 274.271 167.918 270.711 182.661 260.046L244.093 215.607Z" stroke="#5AB7E8" stroke-width="0.3761" stroke-miterlimit="10"/>
<path d="M243.775 222.33C259.189 211.764 270.24 188.587 268.334 170.825L260.391 96.8109C258.485 79.0489 242.754 58.6299 225.435 51.4339L153.26 21.4489C135.94 14.2529 109.158 17.0109 93.744 27.5769L29.513 71.6069C14.1 82.1729 3.04904 105.35 4.95504 123.111L12.898 197.125C14.804 214.887 30.535 235.306 47.854 242.502L120.028 272.487C137.348 279.683 164.13 276.925 179.544 266.359L243.775 222.33Z" stroke="#5AB7E8" stroke-width="0.3878" stroke-miterlimit="10"/>
<path d="M243.211 229.318C259.306 218.879 271.402 195.153 270.09 176.593L264.625 99.2528C263.314 80.6928 247.999 58.8638 230.593 50.7438L158.059 16.9048C140.653 8.78481 113.242 10.6818 97.148 21.1208L30.078 64.6208C13.983 75.0598 1.88698 98.7858 3.19898 117.346L8.66398 194.686C9.97498 213.246 25.29 235.075 42.696 243.195L115.23 277.034C132.636 285.154 160.047 283.257 176.141 272.818L243.211 229.318Z" stroke="#5AB7E8" stroke-width="0.3998" stroke-miterlimit="10"/>
<path d="M242.387 236.571C259.172 226.289 272.352 202.028 271.676 182.66L268.857 101.948C268.181 82.5791 253.34 59.2981 235.879 50.2111L163.115 12.3471C145.653 3.26109 117.633 4.23909 100.848 14.5211L30.9018 57.3681C14.1168 67.6501 0.936777 91.9101 1.61278 111.279L4.43178 191.991C5.10778 211.36 19.9488 234.641 37.4098 243.728L110.174 281.592C127.636 290.678 155.656 289.7 172.441 279.418L242.387 236.571Z" stroke="#5AB7E8" stroke-width="0.4122" stroke-miterlimit="10"/>
<path d="M241.288 244.09C258.771 233.996 273.076 209.219 273.076 189.031V104.904C273.076 84.7164 258.771 59.9394 241.288 49.8454L168.433 7.78339C150.95 -2.31061 122.34 -2.31061 104.857 7.78339L32.0009 49.8464C14.5169 59.9404 0.211914 84.7174 0.211914 104.905V189.032C0.211914 209.22 14.5169 233.997 31.9999 244.091L104.856 286.154C122.339 296.248 150.949 296.248 168.432 286.154L241.288 244.09Z" stroke="#5AB7E8" stroke-width="0.425" stroke-miterlimit="10"/>
</g>
<defs>
<clipPath id="clip0_6818_64308">
<rect width="273.289" height="293.937" fill="white"/>
</clipPath>
</defs>
</svg>
