<svg
	width="198"
	height="30"
	viewBox="0 0 198 30"
	fill="none"
	xmlns="http://www.w3.org/2000/svg"
>
	<g clip-path="url(#clip0_6011_8140)">
		<path
			d="M44.1636 2.24792C44.1636 1.36944 44.6028 1.20972 45.1618 1.20972H53.6272C60.7748 1.20972 63.0908 3.16632 63.0908 9.47539V10.1542C63.0908 16.5831 60.655 18.4199 53.6272 18.4199H47.7174V28.9616C47.7573 29.4807 47.398 29.92 46.8789 29.9998H46.7591C45.9205 29.9998 44.1636 29.7602 44.1636 29.2811V2.24792ZM47.7174 4.36425V15.2654H53.6272C58.339 15.2654 59.497 14.2671 59.497 10.1542V9.47539C59.497 5.36252 58.339 4.36425 53.6272 4.36425H47.7174Z"
			fill="#040047"
		/>
		<path
			d="M74.431 11.1926C72.0751 11.1926 69.8789 12.0711 69.8789 12.3905V29.0017C69.9189 29.4809 69.5994 29.8802 69.1602 29.9601H68.9605C68.2418 29.9601 66.6445 29.8004 66.6445 29.3212V10.993C66.6445 9.67525 69.8789 8.23774 74.3112 8.23774C75.2696 8.23774 77.905 8.19781 77.905 9.27594C77.905 10.8332 77.5456 11.4721 77.1064 11.4721C76.188 11.3124 75.3095 11.2325 74.431 11.1926Z"
			fill="#040047"
		/>
		<path
			d="M88.6866 29.96C82.2577 29.96 80.0615 27.4044 80.0615 20.4165V15.3853C80.0615 10.2741 82.657 8.27759 87.7682 8.27759H88.2873C93.7179 8.27759 95.7543 10.3141 95.7543 14.2273V15.1856C95.7543 19.8974 93.7578 21.4547 83.2959 21.4547C83.2959 25.5277 84.8133 27.2048 89.3654 27.2048C91.4817 27.2048 93.7179 26.6058 94.9158 26.6058C95.3151 26.6058 95.5946 26.8454 95.5946 28.5624C95.5946 29.0017 95.4349 29.1614 94.9956 29.2812C92.9192 29.7204 90.8029 29.96 88.6866 29.96ZM92.5599 14.1474C92.5599 11.9512 91.2022 10.7932 88.0077 10.7932C85.2525 10.7932 83.3358 11.6318 83.3358 15.2655V18.8592C91.3619 18.8592 92.5599 18.1804 92.5599 14.946V14.1474Z"
			fill="#040047"
		/>
		<path
			d="M105.298 27.045C108.372 27.045 110.129 26.3661 110.129 24.3696C110.129 19.6178 99.7474 20.696 99.7474 13.4685C99.7474 9.07609 103.301 8.23755 106.895 8.23755C108.732 8.19762 110.569 8.31741 112.405 8.55699C112.964 8.63686 113.084 8.9563 113.084 9.39554C113.084 10.7532 112.645 11.5119 112.246 11.5119C110.728 11.3122 109.211 11.1924 107.694 11.1924C104.779 11.1924 103.022 11.7515 103.022 13.5883C103.022 17.6612 113.444 16.7827 113.444 24.2897C113.444 28.8019 110.129 29.9599 105.857 29.9599C103.78 29.9599 101.744 29.8002 99.7075 29.4408C99.2283 29.2811 99.1484 29.1213 99.1484 28.8019C99.1484 27.005 99.8273 26.6456 100.107 26.6456H100.267C101.904 26.9252 103.581 27.045 105.298 27.045Z"
			fill="#040047"
		/>
		<path
			d="M122.707 27.045C125.782 27.045 127.539 26.3661 127.539 24.3696C127.539 19.6178 117.157 20.696 117.157 13.4685C117.157 9.07609 120.711 8.23755 124.305 8.23755C126.141 8.19762 127.978 8.31741 129.815 8.55699C130.374 8.63686 130.494 8.9563 130.494 9.39554C130.494 10.7532 130.055 11.5119 129.655 11.5119C128.138 11.3122 126.621 11.1924 125.103 11.1924C122.188 11.1924 120.431 11.7914 120.431 13.5883C120.431 17.6612 130.853 16.8227 130.853 24.3297C130.853 28.8418 127.539 29.9998 123.266 29.9998C121.19 29.9998 119.154 29.8401 117.077 29.4807C116.598 29.321 116.518 29.1613 116.518 28.8418C116.518 27.045 117.197 26.6856 117.476 26.6856H117.636C119.313 26.9252 121.03 27.045 122.707 27.045Z"
			fill="#040047"
		/>
		<path
			d="M149.262 27.8038C149.262 28.6822 145.588 29.96 141.515 29.96C136.164 29.96 133.888 28.0434 133.888 23.4912C133.888 19.3784 135.485 17.4218 140.317 17.4218C142.234 17.4617 144.15 17.7412 146.027 18.3402V14.8662C146.027 12.111 144.789 11.0728 140.916 11.0728C139.199 11.1127 137.482 11.2724 135.805 11.5519C135.086 11.5519 134.966 9.87485 134.966 9.59533C134.966 9.11616 135.086 8.95644 135.326 8.87658C136.124 8.59706 138.88 8.19775 141.715 8.19775C146.746 8.19775 149.222 9.51547 149.222 14.7065L149.262 27.8038ZM146.067 20.8957C145.788 20.6162 142.873 19.9374 141.076 19.9374C138.36 19.9374 137.163 20.6562 137.163 23.7308C137.163 26.526 138.4 27.4444 141.595 27.4444C143.192 27.4444 145.748 26.9652 146.067 26.5659V20.8957Z"
			fill="#040047"
		/>
		<path
			d="M156.529 10.0745C158.406 8.91653 160.522 8.27764 162.718 8.27764C167.829 8.27764 168.588 11.8315 168.588 15.5051V22.8524C168.588 26.7257 167.43 29.9601 161.041 29.9601C159.045 29.9601 156.01 29.8403 153.933 28.842C153.374 28.6024 153.175 28.243 153.175 27.5243V0.650856C153.175 0.171686 154.772 0.0119629 155.611 0.0119629C156.21 0.0119629 156.529 0.411271 156.529 1.13003V10.0745ZM156.529 26.4461C156.529 26.6857 158.805 27.125 161.001 27.125C165.114 27.125 165.314 24.8888 165.314 22.8124V15.585C165.314 13.5086 165.114 11.2325 161.96 11.2325C159.444 11.2325 156.609 12.4704 156.529 13.0693V26.4461Z"
			fill="#040047"
		/>
		<path
			d="M180.327 28.5624C180.327 29.8402 177.812 29.9201 176.853 29.9201C173.898 29.9201 172.301 28.4426 172.301 24.5693V0.610871C172.301 0.0917705 174.058 0.0119089 174.697 0.0119089C175.136 -0.0679526 175.576 0.291424 175.655 0.730663V24.1301C175.655 25.8471 176.015 26.8853 177.692 26.8853C178.331 26.8454 178.93 26.7655 179.529 26.6457C179.968 26.6058 180.327 28.0034 180.327 28.5624Z"
			fill="#040047"
		/>
		<path
			d="M190.55 29.96C184.121 29.96 181.965 27.4044 181.965 20.4165V15.3853C181.965 10.2741 184.56 8.27759 189.671 8.27759H190.191C195.621 8.27759 197.658 10.3141 197.658 14.2273V15.1856C197.658 19.8974 195.661 21.4547 185.199 21.4547C185.199 25.5277 186.717 27.2048 191.309 27.2048C193.425 27.2048 195.661 26.6058 196.859 26.6058C197.258 26.6058 197.538 26.8454 197.538 28.5624C197.538 29.0017 197.378 29.1614 196.939 29.2812C194.783 29.7204 192.666 29.96 190.55 29.96ZM194.383 14.1474C194.383 11.9512 193.026 10.7932 189.831 10.7932C187.076 10.7932 185.159 11.6318 185.159 15.2655V18.8592C193.185 18.8592 194.383 18.1804 194.383 14.946V14.1474Z"
			fill="#040047"
		/>
		<path
			d="M14.7744 7.39917H10.4619V15.3055H14.7744C18.2085 15.3055 19.0071 14.5867 19.0071 11.5919V11.1127C19.0071 8.11792 18.1686 7.39917 14.7744 7.39917Z"
			fill="#040047"
		/>
		<path
			d="M0 1.09009V29.96H18.488L28.87 19.578V1.09009H0ZM21.6425 11.5919C21.6425 16.2638 19.8855 17.5815 14.7744 17.5815H10.4619V25.2083C10.5018 25.5677 10.2622 25.927 9.8629 25.967H9.74311C9.14415 25.967 7.86637 25.8072 7.86637 25.4479V5.84185C7.86637 5.20296 8.18581 5.08317 8.58512 5.08317H14.7744C19.9654 5.08317 21.6425 6.52068 21.6425 11.0728V11.5919Z"
			fill="#040047"
		/>
	</g>
	<defs>
		<clipPath id="clip0_6011_8140">
			<rect width="197.657" height="30" fill="white" />
		</clipPath>
	</defs>
</svg>
