<svg width="318" height="32" viewBox="0 0 318 32" fill="none" xmlns="http://www.w3.org/2000/svg">
<g clip-path="url(#clip0_6836_79520)">
<path d="M87.1072 7.35876H98.5538V10.349H90.6119V14.0145H98.1037V17.037H90.6119V21.1848H99.0683L98.7146 24.1751H87.1072V7.35876ZM100.322 11.8603H103.505V13.5644C103.988 12.857 104.567 12.3104 105.21 11.9889C105.885 11.6673 106.592 11.5066 107.3 11.5066C108.682 11.5066 109.743 11.8603 110.418 12.5998C111.094 13.3072 111.415 14.4647 111.415 16.0402V24.1429H108.136V16.4904C108.136 15.6222 107.975 15.0435 107.653 14.7219C107.332 14.4004 106.882 14.2396 106.335 14.2396C105.917 14.2396 105.531 14.3039 105.242 14.4325C104.952 14.5612 104.663 14.7541 104.406 14.9792C104.181 15.2042 103.988 15.4615 103.827 15.783C103.698 16.0724 103.602 16.4261 103.602 16.7797V24.1751H100.322V11.8603ZM114.277 14.4325H112.348V11.8603H114.277V8.61275H117.557V11.8924H120.386V14.4647H117.557V20.1237C117.557 20.7668 117.685 21.2169 117.942 21.442C118.2 21.6671 118.553 21.7635 118.971 21.7635C119.196 21.7635 119.421 21.7635 119.614 21.7314C119.839 21.6992 120.065 21.6671 120.29 21.6028L120.772 24.0143C120.322 24.1429 119.872 24.2394 119.421 24.3037C119.003 24.368 118.585 24.4001 118.2 24.4001C116.849 24.4001 115.852 24.0786 115.177 23.4355C114.534 22.7925 114.213 21.6992 114.213 20.188V14.4325H114.277ZM132.733 20.3166C132.508 21.6992 131.961 22.7603 131.061 23.4677C130.193 24.1751 128.907 24.5287 127.203 24.5287C125.177 24.5287 123.634 23.95 122.605 22.8246C121.576 21.6992 121.061 20.0916 121.061 18.0337C121.061 17.0048 121.222 16.0724 121.511 15.2685C121.801 14.4647 122.219 13.7573 122.765 13.2107C123.312 12.6319 123.955 12.2139 124.727 11.9567C125.466 11.6673 126.302 11.5066 127.235 11.5066C129.132 11.5066 130.514 12.0532 131.479 13.1142C132.444 14.2075 132.926 15.6544 132.926 17.4871V18.8054H124.405C124.437 19.8022 124.695 20.5739 125.145 21.1205C125.627 21.6671 126.334 21.9565 127.267 21.9565C128.553 21.9565 129.325 21.4099 129.582 20.3166H132.733ZM129.711 16.6511C129.711 15.8151 129.486 15.1399 129.068 14.6898C128.65 14.2075 128.006 13.9824 127.138 13.9824C126.688 13.9824 126.302 14.0467 125.981 14.2075C125.659 14.3361 125.37 14.529 125.145 14.7862C124.92 15.0113 124.759 15.3007 124.63 15.6222C124.502 15.9438 124.437 16.2653 124.405 16.6511H129.711ZM134.63 11.8603H137.813V13.5644C138.231 12.9213 138.714 12.439 139.292 12.1175C139.871 11.796 140.482 11.6352 141.125 11.6352C141.447 11.6352 141.704 11.6352 141.897 11.6673C142.09 11.6673 142.283 11.6995 142.443 11.7316L142.058 14.7219C141.672 14.6255 141.222 14.5933 140.675 14.5933C140.321 14.5933 139.968 14.6255 139.646 14.7219C139.325 14.7862 139.035 14.947 138.746 15.2042C138.456 15.4615 138.263 15.7508 138.103 16.0402C137.974 16.3618 137.91 16.6833 137.91 17.0048V24.1429H134.63V11.8603ZM143.794 11.8603H146.977V13.4679C147.91 12.1496 149.196 11.4744 150.835 11.4744C152.54 11.4744 153.826 12.0532 154.662 13.2107C155.498 14.3682 155.916 15.9759 155.916 17.9694C155.916 18.934 155.787 19.8343 155.53 20.6382C155.305 21.442 154.951 22.1172 154.469 22.696C154.019 23.2748 153.472 23.6928 152.797 24.0143C152.154 24.3358 151.382 24.4966 150.578 24.4966C149.967 24.4966 149.356 24.4001 148.746 24.1751C148.135 23.95 147.588 23.532 147.041 22.8568V28.6766H143.762V11.8603H143.794ZM147.041 18.098C147.041 18.9019 147.106 19.545 147.234 20.0273C147.363 20.5096 147.588 20.8954 147.877 21.1848C148.199 21.4742 148.52 21.6671 148.81 21.7635C149.131 21.8279 149.453 21.8922 149.807 21.8922C150.16 21.8922 150.514 21.8279 150.835 21.6671C151.157 21.5385 151.446 21.3134 151.671 21.024C151.929 20.7025 152.122 20.3166 152.25 19.8343C152.379 19.352 152.475 18.7733 152.475 18.0659C152.475 17.3585 152.411 16.7476 152.25 16.2653C152.122 15.783 151.961 15.3971 151.704 15.0756C151.479 14.7541 151.189 14.529 150.868 14.4325C150.546 14.3039 150.225 14.2075 149.871 14.2075C149.453 14.2075 149.099 14.2718 148.81 14.3682C148.52 14.4647 148.231 14.6576 147.942 14.8827C147.62 15.1721 147.395 15.5579 147.234 16.0081C147.106 16.4582 147.009 17.037 147.009 17.7444V18.098H147.041ZM157.716 11.8603H160.9V13.5644C161.318 12.9213 161.8 12.439 162.379 12.1175C162.957 11.796 163.568 11.6352 164.211 11.6352C164.533 11.6352 164.79 11.6352 164.983 11.6673C165.176 11.6673 165.369 11.6995 165.53 11.7316L165.144 14.7219C164.758 14.6255 164.308 14.5933 163.761 14.5933C163.408 14.5933 163.054 14.6255 162.732 14.7219C162.411 14.7862 162.089 14.947 161.832 15.2042C161.543 15.4615 161.35 15.7508 161.189 16.0402C161.06 16.3618 160.996 16.6833 160.996 17.0048V24.1429H157.716V11.8603ZM166.912 11.8603H170.192V24.1429H166.912V11.8603ZM166.848 7.35876H170.224V10.3169H166.848V7.35876ZM174.79 20.2523C174.886 20.9597 175.176 21.442 175.658 21.6671C176.14 21.8922 176.687 21.9886 177.362 21.9886C178.134 21.9886 178.713 21.8922 179.034 21.6992C179.388 21.5063 179.549 21.1848 179.549 20.7346C179.549 20.4131 179.452 20.1559 179.227 19.8986C179.034 19.6736 178.616 19.5128 178.037 19.4163L176.333 19.127C174.854 18.9019 173.729 18.4839 172.989 17.9373C172.282 17.3585 171.896 16.4904 171.896 15.3328C171.896 14.7219 172.025 14.2075 172.282 13.7252C172.539 13.2429 172.925 12.857 173.375 12.5355C173.857 12.2139 174.404 11.9567 175.047 11.796C175.69 11.603 176.43 11.5066 177.201 11.5066C178.166 11.5066 179.002 11.603 179.645 11.8281C180.288 12.021 180.835 12.2783 181.253 12.5998C181.671 12.9213 181.992 13.3072 182.185 13.7895C182.41 14.2396 182.571 14.7219 182.667 15.2364L179.742 15.6222C179.613 15.0435 179.356 14.6576 179.002 14.3682C178.648 14.111 178.102 13.9824 177.298 13.9824C176.848 13.9824 176.494 14.0145 176.205 14.111C175.915 14.1753 175.69 14.2718 175.529 14.3682C175.369 14.4647 175.24 14.5933 175.176 14.7541C175.111 14.8827 175.079 15.0435 175.079 15.1399C175.079 15.5258 175.208 15.8151 175.433 16.0081C175.69 16.1688 176.172 16.3296 176.88 16.4582L178.423 16.7154C179.291 16.8441 179.999 17.037 180.577 17.2621C181.156 17.4871 181.574 17.7444 181.928 18.098C182.282 18.4196 182.507 18.7733 182.635 19.2234C182.764 19.6736 182.86 20.1559 182.86 20.7668C182.86 21.9243 182.41 22.8568 181.542 23.5641C180.674 24.2394 179.324 24.5931 177.459 24.5931C176.719 24.5931 176.012 24.5287 175.336 24.368C174.693 24.2394 174.082 24.0143 173.536 23.6928C173.021 23.3712 172.603 22.9211 172.25 22.3745C171.928 21.8279 171.735 21.1205 171.671 20.3166H174.79V20.2523ZM195.336 20.3166C195.111 21.6992 194.564 22.7603 193.664 23.4677C192.796 24.1751 191.51 24.5287 189.806 24.5287C187.78 24.5287 186.237 23.95 185.208 22.8246C184.179 21.6992 183.664 20.0916 183.664 18.0337C183.664 17.0048 183.825 16.0724 184.114 15.2685C184.404 14.4647 184.822 13.7573 185.368 13.2107C185.915 12.6319 186.558 12.2139 187.33 11.9567C188.069 11.6673 188.905 11.5066 189.838 11.5066C191.703 11.5066 193.117 12.0532 194.082 13.1142C195.047 14.2075 195.529 15.6544 195.529 17.4871V18.8054H186.976C187.008 19.8022 187.265 20.5739 187.716 21.1205C188.198 21.6671 188.905 21.9565 189.838 21.9565C191.124 21.9565 191.896 21.4099 192.153 20.3166H195.336ZM192.314 16.6511C192.314 15.8151 192.088 15.1399 191.67 14.6898C191.252 14.2075 190.609 13.9824 189.741 13.9824C189.291 13.9824 188.905 14.0467 188.584 14.2075C188.262 14.3361 187.973 14.529 187.748 14.7862C187.523 15.0113 187.362 15.3007 187.233 15.6222C187.105 15.9438 187.04 16.2653 187.008 16.6511H192.314ZM200.545 7.35876H204.5L207.201 19.0305L209.966 7.45523H213.663L216.525 19.0305L219.065 7.35876H222.827L218.294 24.1429H214.885L211.734 11.7316L208.712 24.1429H205.4L200.545 7.35876ZM228.454 24.5287C226.493 24.5287 224.949 23.95 223.856 22.8246C222.763 21.6992 222.248 20.0916 222.248 17.9694C222.248 16.9727 222.377 16.0724 222.666 15.2685C222.956 14.4647 223.374 13.7573 223.92 13.2107C224.467 12.6319 225.142 12.2139 225.882 11.9246C226.654 11.6352 227.49 11.4744 228.454 11.4744C229.419 11.4744 230.287 11.6352 231.026 11.9246C231.798 12.2139 232.441 12.6641 232.988 13.2107C233.534 13.7573 233.952 14.4325 234.242 15.2685C234.531 16.0724 234.66 16.9727 234.66 17.9694C234.66 18.9983 234.499 19.8986 234.21 20.7346C233.92 21.5385 233.502 22.2137 232.956 22.7925C232.409 23.3712 231.766 23.7892 230.994 24.0786C230.223 24.368 229.387 24.5287 228.454 24.5287ZM228.454 21.8922C229.387 21.8922 230.094 21.5706 230.544 20.8954C231.026 20.2202 231.251 19.2556 231.251 18.0016C231.251 16.7476 231.026 15.783 230.544 15.1399C230.094 14.4968 229.387 14.1432 228.454 14.1432C227.522 14.1432 226.814 14.4647 226.332 15.1399C225.882 15.783 225.657 16.7476 225.657 18.0016C225.657 19.2556 225.882 20.2523 226.332 20.9276C226.782 21.5706 227.49 21.8922 228.454 21.8922ZM236.428 11.8603H239.611V13.5644C240.029 12.9213 240.512 12.439 241.09 12.1175C241.669 11.796 242.28 11.6352 242.923 11.6352C243.245 11.6352 243.502 11.6352 243.695 11.6673C243.888 11.6673 244.081 11.6995 244.241 11.7316L243.856 14.7219C243.47 14.6255 243.02 14.5933 242.473 14.5933C242.119 14.5933 241.766 14.6255 241.444 14.7219C241.123 14.7862 240.801 14.947 240.544 15.2042C240.254 15.4615 240.062 15.7508 239.901 16.0402C239.772 16.3618 239.708 16.6833 239.708 17.0048V24.1429H236.428V11.8603ZM253.502 22.5352C252.569 23.8535 251.283 24.5287 249.708 24.5287C247.971 24.5287 246.685 23.95 245.849 22.7925C245.013 21.6349 244.595 20.0273 244.595 17.9694C244.595 17.0048 244.724 16.1367 244.949 15.365C245.206 14.5612 245.56 13.8859 246.01 13.3072C246.46 12.7284 247.007 12.2783 247.682 11.9567C248.325 11.6352 249.097 11.4744 249.901 11.4744C250.511 11.4744 251.122 11.5709 251.701 11.796C252.312 12.021 252.891 12.439 253.405 13.0499V7.35876H256.685V24.1429H253.502V22.5352ZM253.437 17.873C253.437 17.1013 253.373 16.4582 253.212 16.0081C253.084 15.5258 252.891 15.1399 252.569 14.8505C252.28 14.5612 251.958 14.4004 251.637 14.3039C251.315 14.2075 250.994 14.1753 250.64 14.1753C250.286 14.1753 249.933 14.2396 249.611 14.4004C249.29 14.529 249 14.7541 248.775 15.0435C248.55 15.3328 248.357 15.7187 248.196 16.2331C248.068 16.7154 247.971 17.2942 247.971 17.9694C247.971 18.709 248.036 19.3199 248.164 19.8343C248.293 20.3166 248.486 20.7346 248.743 21.024C248.968 21.3134 249.257 21.5385 249.579 21.6671C249.901 21.7957 250.222 21.86 250.576 21.86C251.347 21.86 251.991 21.6349 252.505 21.1848C252.827 20.8632 253.052 20.5096 253.18 20.0594C253.341 19.6093 253.405 19.0305 253.405 18.3231V17.873H253.437ZM259.161 7.35876H265.141C266.427 7.35876 267.489 7.51953 268.324 7.80891C269.16 8.0983 269.836 8.48414 270.318 8.96644C270.832 9.44874 271.154 9.99535 271.347 10.6384C271.54 11.2493 271.668 11.9246 271.668 12.5998C271.668 13.3393 271.572 14.0467 271.347 14.7219C271.154 15.3971 270.8 15.9759 270.318 16.5225C269.836 17.037 269.16 17.4228 268.357 17.7122C267.553 18.0016 266.492 18.1624 265.238 18.1624H262.601V24.1429H259.161V7.35876ZM265.141 15.2364C265.752 15.2364 266.267 15.1721 266.653 15.0435C267.071 14.9148 267.392 14.7541 267.617 14.529C267.842 14.3039 268.003 14.0467 268.099 13.7252C268.196 13.4036 268.228 13.0499 268.228 12.6641C268.228 12.2783 268.196 11.9246 268.099 11.6352C268.003 11.3458 267.842 11.0886 267.617 10.8957C267.392 10.7027 267.071 10.542 266.653 10.4134C266.267 10.3169 265.752 10.2526 265.141 10.2526H262.633V15.2364C262.633 15.2364 265.141 15.2364 265.141 15.2364ZM273.019 11.8603H276.202V13.5644C276.62 12.9213 277.102 12.439 277.681 12.1175C278.26 11.796 278.871 11.6352 279.514 11.6352C279.835 11.6352 280.093 11.6352 280.286 11.6673C280.479 11.6673 280.671 11.6995 280.832 11.7316L280.446 14.7219C280.061 14.6255 279.61 14.5933 279.064 14.5933C278.71 14.5933 278.356 14.6255 278.035 14.7219C277.713 14.7862 277.392 14.947 277.135 15.2042C276.845 15.4615 276.652 15.7508 276.491 16.0402C276.363 16.3618 276.299 16.6833 276.299 17.0048V24.1429H273.019V11.8603ZM292.793 20.3166C292.568 21.6992 292.022 22.7603 291.121 23.4677C290.253 24.1751 288.967 24.5287 287.263 24.5287C285.237 24.5287 283.694 23.95 282.665 22.8246C281.636 21.6992 281.122 20.0916 281.122 18.0337C281.122 17.0048 281.282 16.0724 281.572 15.2685C281.861 14.4647 282.279 13.7573 282.826 13.2107C283.372 12.6319 284.015 12.2139 284.787 11.9567C285.527 11.6673 286.363 11.5066 287.295 11.5066C289.192 11.5066 290.575 12.0532 291.539 13.1142C292.504 14.2075 292.986 15.6544 292.986 17.4871V18.8054H284.466C284.498 19.8022 284.755 20.5739 285.205 21.1205C285.687 21.6671 286.395 21.9565 287.327 21.9565C288.613 21.9565 289.385 21.4099 289.642 20.3166C289.642 20.3166 292.793 20.3166 292.793 20.3166ZM289.771 16.6511C289.771 15.8151 289.546 15.1399 289.128 14.6898C288.71 14.2075 288.067 13.9824 287.199 13.9824C286.748 13.9824 286.363 14.0467 286.041 14.2075C285.72 14.3361 285.43 14.529 285.205 14.7862C284.98 15.0113 284.819 15.3007 284.691 15.6222C284.562 15.9438 284.498 16.2653 284.466 16.6511H289.771ZM297.07 20.2523C297.166 20.9597 297.456 21.442 297.938 21.6671C298.42 21.8922 298.967 21.9886 299.642 21.9886C300.414 21.9886 300.992 21.8922 301.314 21.6992C301.668 21.5063 301.828 21.1848 301.828 20.7346C301.828 20.4131 301.732 20.1559 301.507 19.8986C301.314 19.6736 300.896 19.5128 300.317 19.4163L298.613 19.127C297.134 18.9019 296.009 18.4839 295.269 17.9373C294.562 17.3585 294.176 16.4904 294.176 15.3328C294.176 14.7219 294.305 14.2075 294.562 13.7252C294.819 13.2429 295.205 12.857 295.655 12.5355C296.137 12.2139 296.684 11.9567 297.327 11.796C297.97 11.603 298.71 11.5066 299.481 11.5066C300.446 11.5066 301.282 11.603 301.925 11.8281C302.568 12.021 303.115 12.2783 303.533 12.5998C303.951 12.9213 304.272 13.3072 304.465 13.7895C304.69 14.2396 304.851 14.7219 304.947 15.2364L302.021 15.6222C301.893 15.0435 301.636 14.6576 301.282 14.3682C300.928 14.111 300.382 13.9824 299.578 13.9824C299.128 13.9824 298.774 14.0145 298.485 14.111C298.195 14.1753 297.97 14.2718 297.809 14.3682C297.649 14.4647 297.52 14.5933 297.456 14.7541C297.391 14.8827 297.359 15.0435 297.359 15.1399C297.359 15.5258 297.488 15.8151 297.713 16.0081C297.97 16.1688 298.452 16.3296 299.16 16.4582L300.703 16.7154C301.571 16.8441 302.279 17.037 302.857 17.2621C303.436 17.4871 303.854 17.7444 304.208 18.098C304.562 18.4196 304.787 18.7733 304.915 19.2234C305.044 19.6736 305.14 20.1559 305.14 20.7668C305.14 21.9243 304.69 22.8568 303.822 23.5641C302.954 24.2394 301.603 24.5931 299.739 24.5931C298.999 24.5931 298.292 24.5287 297.616 24.368C296.973 24.2394 296.362 24.0143 295.816 23.6928C295.301 23.3712 294.851 22.9211 294.53 22.3745C294.208 21.8279 294.015 21.1205 293.951 20.3166H297.07V20.2523ZM308.999 20.2523C309.095 20.9597 309.385 21.442 309.867 21.6671C310.349 21.8922 310.896 21.9886 311.571 21.9886C312.343 21.9886 312.921 21.8922 313.243 21.6992C313.597 21.5063 313.757 21.1848 313.757 20.7346C313.757 20.4131 313.661 20.1559 313.436 19.8986C313.243 19.6736 312.825 19.5128 312.246 19.4163L310.542 19.127C309.063 18.9019 307.938 18.4839 307.198 17.9373C306.491 17.3585 306.105 16.4904 306.105 15.3328C306.105 14.7219 306.234 14.2075 306.491 13.7252C306.748 13.2429 307.134 12.857 307.584 12.5355C308.066 12.2139 308.613 11.9567 309.256 11.796C309.899 11.603 310.639 11.5066 311.41 11.5066C312.375 11.5066 313.211 11.603 313.854 11.8281C314.497 12.021 315.044 12.2783 315.462 12.5998C315.88 12.9213 316.201 13.3072 316.394 13.7895C316.619 14.2396 316.78 14.7219 316.876 15.2364L313.95 15.6222C313.822 15.0435 313.565 14.6576 313.211 14.3682C312.857 14.111 312.311 13.9824 311.507 13.9824C311.057 13.9824 310.703 14.0145 310.413 14.111C310.124 14.1753 309.899 14.2718 309.738 14.3682C309.577 14.4647 309.449 14.5933 309.385 14.7541C309.32 14.8827 309.288 15.0435 309.288 15.1399C309.288 15.5258 309.417 15.8151 309.642 16.0081C309.899 16.1688 310.381 16.3296 311.089 16.4582L312.632 16.7154C313.5 16.8441 314.208 17.037 314.786 17.2621C315.365 17.4871 315.783 17.7444 316.137 18.098C316.491 18.4196 316.716 18.7733 316.844 19.2234C316.973 19.6736 317.069 20.1559 317.069 20.7668C317.069 21.9243 316.619 22.8568 315.751 23.5641C314.883 24.2394 313.532 24.5931 311.7 24.5931C310.96 24.5931 310.253 24.5287 309.577 24.368C308.934 24.2394 308.324 24.0143 307.777 23.6928C307.262 23.3712 306.844 22.9211 306.491 22.3745C306.169 21.8279 305.976 21.1205 305.912 20.3166H308.999V20.2523Z" fill="#13191E"/>
<path d="M79.3911 0.220337H78.748V29.255H79.3911V0.220337Z" fill="#13191E"/>
<path d="M16.5945 0.220947C7.88091 0.220947 0.807129 7.29473 0.807129 16.0083C0.807129 24.7219 7.88091 31.7957 16.5945 31.7957C25.3081 31.7957 32.3819 24.7219 32.3819 16.0083C32.3819 7.29473 25.3081 0.220947 16.5945 0.220947ZM2.38265 16.0083C2.38265 13.9505 2.8328 11.9891 3.60449 10.2207L10.3567 28.7733C5.69447 26.4582 2.38265 21.6352 2.38265 16.0083ZM16.5945 30.2202C15.2119 30.2202 13.8615 30.0273 12.5753 29.6414L16.8196 17.2623L21.1925 29.2234C21.2246 29.2877 21.2568 29.3521 21.2889 29.4164C19.8099 29.9308 18.2665 30.2202 16.5945 30.2202ZM18.5559 9.35255C19.424 9.28824 20.1636 9.22394 20.1636 9.22394C20.9031 9.12748 20.8388 8.0021 20.0671 8.06641C20.0671 8.06641 17.752 8.22718 16.273 8.22718C14.8904 8.22718 12.5432 8.06641 12.5432 8.06641C11.8036 8.0021 11.675 9.19178 12.4467 9.22394C12.4467 9.22394 13.1862 9.3204 13.9258 9.35255L16.1122 15.4296L13.0255 24.7219L7.91306 9.35255C8.7812 9.28824 9.52074 9.22394 9.52074 9.22394C10.2603 9.12748 10.196 8.0021 9.42428 8.06641C9.42428 8.06641 7.10922 8.22718 5.63016 8.22718C5.34078 8.22718 5.0514 8.22718 4.69771 8.19502C7.23784 4.3366 11.6107 1.79647 16.5624 1.79647C20.26 1.79647 23.6361 3.21123 26.1441 5.52628C26.0798 5.52628 26.0477 5.52628 25.9512 5.52628C24.5686 5.52628 23.5718 6.74811 23.5718 8.06641C23.5718 9.22394 24.2471 10.2529 24.9544 11.4104C25.4689 12.3428 26.112 13.5968 26.112 15.3331C26.112 16.5549 25.7583 18.0983 25.0187 19.9311L23.6361 24.6255L18.5559 9.35255ZM23.7648 28.291L28.1055 15.7511C28.9093 13.7254 29.1987 12.1178 29.1987 10.6708C29.1987 10.1564 29.1665 9.67409 29.1022 9.22394C30.2276 11.2496 30.8385 13.5647 30.8385 16.0405C30.8064 21.2494 27.9447 25.8473 23.7648 28.291Z" fill="#13191E"/>
<path d="M58.6838 7.23059H64.6644C65.9505 7.23059 67.0116 7.39136 67.8476 7.68074C68.6836 7.97012 69.3588 8.35596 69.8411 8.83827C70.3556 9.32057 70.6771 9.86718 70.87 10.5103C71.0629 11.1212 71.1916 11.7964 71.1916 12.4716C71.1916 13.2111 71.0951 13.9185 70.87 14.5937C70.6771 15.269 70.3234 15.8477 69.8411 16.3943C69.3588 16.9088 68.6836 17.2946 67.8798 17.584C67.0759 17.8734 66.0148 18.0342 64.7609 18.0342H62.1243V24.0147H58.6838V7.23059ZM64.6322 15.1082C65.2432 15.1082 65.7576 15.0439 66.1435 14.9153C66.5615 14.7867 66.883 14.6259 67.1081 14.4008C67.3331 14.1758 67.4939 13.9185 67.5904 13.597C67.6868 13.2755 67.719 12.9218 67.719 12.5359C67.719 12.1501 67.6868 11.7964 67.5904 11.507C67.4939 11.2176 67.3331 10.9604 67.1081 10.7675C66.883 10.5746 66.5615 10.4138 66.1435 10.2852C65.7576 10.1887 65.2432 10.1244 64.6322 10.1244H62.1243V15.1082H64.6322Z" fill="#13191E"/>
<path d="M36.1123 7.23059H40.035L44.1185 19.0952L48.2985 7.23059H52.0605L45.7584 24.0147H42.4466L36.1123 7.23059Z" fill="#13191E"/>
<path fill-rule="evenodd" clip-rule="evenodd" d="M56.401 7.23059H54.0216L52.8962 10.253V24.0147H56.401V7.23059Z" fill="#13191E"/>
</g>
<defs>
<clipPath id="clip0_6836_79520">
<rect width="316.444" height="32" fill="white" transform="translate(0.777832)"/>
</clipPath>
</defs>
</svg>
