<svg xmlns="http://www.w3.org/2000/svg" viewBox="0 0 300 300"><style>.st0{display:none}.st1,.st5{display:inline}.st5{fill:#78b6e3}.st6,.st7,.st8{display:inline;fill:#507ebf}.st7,.st8{fill:#699fc7}.st8{fill:#466ea7}.st13{fill:#fff}</style><g id="Layer_1" class="st0"><g class="st1"><path d="M197.7 111.7c1.6-.2 3.1-.2 4.5 0 .8-1.9 1-5.1.2-8.6-1.1-5.2-2.6-8.4-5.6-7.9-3.1.5-3.2 4.3-2.1 9.5.7 3 1.8 5.5 3 7zM169.7 110.5c-4.8-2.1-10.5-1.4-15 1.8-1.5 1.1-2.8 2.6-2.6 3.5.1.3.3.5.8.6 1.2.1 5.4-2 10.3-2.3 3.4-.2 6.3.9 8.4 1.8 2.2 1 3.5 1.6 4.1 1 .3-.3.2-1-.3-1.9-1.2-1.7-3.4-3.5-5.7-4.5zM167.1 118.4c-2.8.4-4.4 1.4-5.4 2.3-.9.8-1.4 1.6-1.4 2.2 0 .3.1.4.2.5.1.1.3.2.5.2.6 0 2.1-.6 2.1-.6 4-1.4 6.6-1.2 9.2-1 1.4.2 2.1.2 2.4-.2.1-.1.2-.4-.1-.9-.7-1.2-3.5-3-7.5-2.5z"/><ellipse transform="rotate(-63.832 190.146 125.014)" cx="190.1" cy="125" rx="2.8" ry="3.9"/><ellipse transform="matrix(.01694 -.9999 .9999 .01694 77.238 319.777)" cx="201.2" cy="120.6" rx="3.9" ry="2.8"/><path d="M94.3 155.3c-.4.1-.9.2-1.5.2-1.2 0-2.1-.5-2.7-1.4-.7-1.1-.7-2.7.1-4.6.1-.3.2-.5.4-.8 1.3-2.8 3.4-7.5 1-12-1.8-3.4-4.7-5.5-8.2-5.9-3.4-.4-6.8.8-9 3.2-3.5 3.8-4 9-3.3 10.9.2.7.6.9.9.9.6.1 1.5-.4 2-1.8 0-.1.1-.3.2-.5.2-.8.7-2.2 1.4-3.4.9-1.4 2.3-2.4 3.9-2.7 1.7-.4 3.4 0 4.8.9 2.4 1.6 3.4 4.6 2.3 7.4-.5 1.5-1.4 4.3-1.2 6.6.4 4.7 3.3 6.6 5.8 6.8 2.5.1 4.3-1.3 4.7-2.3.3-.6 0-1-.1-1.1-.3-.7-.9-.5-1.5-.4z"/><path d="M48.6 126.6l7.2 6.1c-1.9 4.9-2.6 10.4-2 16.4.8 7.7 4.7 15 11.2 20.7 6.1 5.4 14.1 8.8 21.9 8.8 12.9 29.6 42.2 47.8 76.7 48.8 36.9 1.1 68-16.2 81-47.4.9-2.2 4.5-12 4.5-20.7s-4.9-12.4-8.1-12.4c-.1-.3-.7-2.6-1.6-5.4-.9-2.7-1.7-4.7-1.7-4.7 3.4-5.1 3.5-9.7 3-12.3-.5-3.2-1.8-6-4.5-8.8-2.7-2.8-8.2-5.8-16-7.9-.9-.2-3.8-1.1-4.1-1.1 0-.2-.2-9.6-.4-13.7-.1-2.9-.4-7.5-1.8-12-1.7-6.1-4.6-11.5-8.3-14.9C215.6 55.6 222 44 221.9 34c0-19.2-23.6-25-52.5-12.9l-6.1 2.6s-11.1-10.9-11.3-11c-33.1-28.9-136.4 86-103.4 113.9zm41.1 43.7c-1.1.2-2.3.3-3.4.2-11.2-.3-23.2-10.3-24.4-22.3-1.3-13.2 5.4-23.3 17.3-25.7 1.4-.3 3.1-.5 5-.4 6.7.4 16.5 5.5 18.8 20 2 13-1.2 26.1-13.3 28.2zm105.6-94.8c.3 0 1-.3 2.5-.2 1.5.1 2.9.5 4.2 1.3 4.9 3.2 5.6 11.1 5.8 16.9.1 3.3.5 11.2.7 13.5.3 5.2 1.7 6 4.5 6.9 1.6.5 3 .9 5.1 1.5 6.5 1.8 10.3 3.7 12.7 6 1.4 1.5 2.1 3 2.3 4.5.8 5.6-4.3 12.4-17.8 18.7-14.7 6.8-32.5 8.5-44.8 7.2-.9-.1-4.3-.5-4.3-.5-9.9-1.3-15.5 11.4-9.6 20.1 3.8 5.6 14.2 9.3 24.6 9.3 23.8 0 42.1-10.2 48.9-18.9.2-.3.2-.3.5-.8s.1-.8-.4-.5c-5.6 3.8-30.3 18.9-56.7 14.4 0 0-3.2-.5-6.1-1.7-2.3-.9-7.2-3.1-7.8-8.2 21.3 6.6 34.8.4 34.8.4.2-.1.4-.4.4-.7 0-.3-.3-.6-.7-.6 0 0-17.5 2.6-34-3.5 1.8-5.8 6.6-3.7 13.8-3.2 13 .8 24.7-1.1 33.3-3.6 7.5-2.1 17.3-6.4 24.9-12.4 2.6 5.7 3.5 11.9 3.5 11.9s2-.4 3.7.7c1.6 1 2.7 3 1.9 8.2-1.6 9.7-5.7 17.6-12.7 24.9-4.2 4.6-9.4 8.5-15.2 11.4-3.1 1.6-6.4 3.1-9.9 4.2-26.2 8.6-53-.8-61.6-21-.7-1.5-1.3-3.1-1.7-4.8-3.7-13.3-.6-29.3 9.2-39.3.6-.6 1.2-1.4 1.2-2.3 0-.8-.5-1.6-.9-2.2-3.4-5-15.3-13.4-12.9-29.8 1.7-11.7 12-20 21.6-19.5.8 0 1.6.1 2.4.1 4.1.2 7.8.8 11.2.9 5.7.2 10.9-.6 16.9-5.7 2-1.7 3.7-3.1 6.5-3.6zm-34.7 85.9zm9-115.5c.4 0 .5.4.3.7-1.3 1-2.7 2.4-3.8 3.8-.2.2 0 .6.3.6 6 0 14.5 2.1 20 5.3.4.2.1.9-.3.8-8.4-1.9-22.1-3.4-36.3.1-12.7 3.1-22.4 7.9-29.5 13-.4.3-.8-.2-.5-.5 8.2-9.5 18.3-17.7 27.3-22.3.3-.2.6.2.5.5-.7 1.3-2.1 4.1-2.5 6.2-.1.3.3.6.6.4 5.5-3.9 15.3-8 23.9-8.6zM68 69.8c23-32.9 59.1-57.8 75.8-53.3 2.7.8 11.7 11.2 11.7 11.2s-16.7 9.3-32.2 22.2c-20.8 16.1-36.6 39.4-46 64.8-7.4 1.4-14 5.6-18 11.5-2.4-2-6.8-5.9-7.6-7.4-6.4-12.2 6.9-35.7 16.3-49zM72.5 261.7c-4.1 0-6.1 3.2-7 5.3-.5 1.2-.7 2.1-1.1 2.1-.6 0-.2-.8-.6-2.5-.6-2.3-2.5-4.8-6.6-4.8-4.3 0-6.1 3.6-7 5.6-.6 1.4-.6 1.7-1.1 1.7-.7 0-.1-1.1.2-2.3.6-2.5.1-4.4.1-4.4h-6.8v25.5H52v-12.7c0-2.5 1-5.7 2.8-5.7 2.1 0 2.5 1.6 2.5 4.5v13.8h9.3v-12.7c0-2.2.9-5.7 2.9-5.7 2.1 0 2.5 2.2 2.5 4.5v13.8h9v-15c0-6.5-2.3-11-8.5-11zM229.5 261.7c-4.1 0-6.1 3.2-7 5.3-.5 1.2-.7 2.1-1.1 2.1-.6 0-.2-1-.6-2.5-.7-2.3-2.4-4.8-6.6-4.8-4.3 0-6.1 3.6-7 5.6-.6 1.4-.6 1.7-1.1 1.7-.7 0-.1-1.1.2-2.3.6-2.5.1-4.4.1-4.4h-6.8v25.5h9.2v-12.7c0-2.5 1-5.7 2.8-5.7 2.1 0 2.5 1.6 2.5 4.5v13.8h9.3v-12.7c0-2.2.9-5.7 2.9-5.7 2.1 0 2.5 2.2 2.5 4.5v13.8h9.1v-15c0-6.5-2.3-11-8.4-11zM96.8 261.7c-7.1 0-12.2 2.6-12.2 2.6v7.7s5.6-3.2 10.2-3.2c3.6 0 4.1 2 3.9 3.6 0 0-1-.3-4.2-.3-7.5 0-11.3 3.4-11.3 8.9 0 5.2 4.3 7.4 7.9 7.4 5.3 0 7.6-3.5 8.3-5.2.5-1.2.6-1.9 1-1.9.5 0 .3.6.3 1.7 0 2 .1 3.6.4 4.8h7v-12.5c-.1-7.9-2.9-13.6-11.3-13.6zm-2.2 20.1c-2.2.5-3.4-.2-3.4-1.6 0-2 2.1-2.8 5-2.8 1.3 0 2.5.1 2.5.1.1.9-1.8 3.8-4.1 4.3zM123.2 254.6h9.2v33.2h-9.2zM142.6 275.1c0-2.3 2.1-4.4 6-4.4 4.3 0 7.7 2 8.4 2.5v-8.9s-2.7-2.6-9.4-2.6c-7 0-12.8 4.1-12.8 12.9s5.3 13.7 12.8 13.7c5.9 0 9.4-3.2 9.4-3.2v-8.4c-1.1.6-4.2 2.8-8.4 2.8-4.4 0-6-2-6-4.4zM175.8 261.7c-5.4 0-7.4 5.1-7.8 6-.4.9-.6 1.4-1 1.4-.6 0-.2-1.1.1-1.8.4-1.3 1.3-4.7 1.3-8.9 0-2.8-.4-3.8-.4-3.8h-8v33.2h9.2v-12.7c0-2.1.8-5.7 3.2-5.7 1.9 0 2.5 1.4 2.5 4.3v14h9.2v-13.5c.2-6.4-.9-12.5-8.3-12.5zM187.3 262.4v25.4h9.2v-25.4s-1.6.9-4.6.9-4.6-.9-4.6-.9z"/><ellipse cx="191.9" cy="258.1" rx="5.7" ry="3.7"/><path d="M111 262.4v25.4h9.2v-25.4s-1.6.9-4.6.9c-3.1 0-4.6-.9-4.6-.9z"/><ellipse cx="115.5" cy="258.1" rx="5.7" ry="3.7"/><path d="M256.3 261.7c-4.8 0-6.9 3.6-7.9 5.6-.6 1.3-.6 1.7-1.1 1.7-.7 0-.1-1.1.2-2.3.6-2.5.1-4.4.1-4.4h-6.8v32.5h9.2v-10.3c1.1 1.9 3.1 3.8 6.2 3.8 6.7 0 10-5.7 10-13.3.3-8.6-3.8-13.3-9.9-13.3zm-2.5 20.6c-2.1 0-3.7-2.7-3.7-6.4 0-3.6 1.6-6.4 3.6-6.4 2.6 0 3.7 2.4 3.7 6.4 0 4.2-1 6.4-3.6 6.4z"/></g></g><g id="Layer_2"><path d="M46.2 90.5c3-1.7 6.1-3.3 9.1-5 17.5-9.8 35-19.7 52.6-29.5.4-.2.8-.4 1.3-.7 0 .4.1.7.1 1v101.6c.1 10.8 4.8 19.1 14.2 24.6 13.7 8.1 27.5 16 41.2 24 3.5 2.1 7.1 4.1 10.8 6.3-.3.2-.5.4-.8.6-20 11.5-40.1 23-60.1 34.5-.6.4-1 .3-1.6 0-17.7-10.3-35.5-20.5-53.2-30.9-7.9-4.7-12.4-11.7-13.5-20.9 0-.4-.1-.8-.2-1.2.1-34.8.1-69.6.1-104.4z"/><path d="M183.8 55.2c3.3 1.9 6.6 3.9 9.9 5.8 14.5 8.4 29.1 16.8 43.6 25.3 9.3 5.4 14.1 13.7 14.1 24.4.1 33.8 0 67.5.1 101.3 0 .7-.3 1.1-.9 1.5-20.4 11.4-40.7 22.8-61 34.3-.3.1-.5.3-1.1.6v-4.7-.5-80.1c0-6 .1-11.9-.1-17.9-.2-10.4-4.7-18.5-13.7-23.8-17-10.1-34.2-19.9-51.3-29.9-.4-.2-.8-.5-1.3-.8 1.9-1.1 3.8-2.2 5.6-3.2C146 76.9 164.2 66.4 182.5 56c.4-.2.8-.5 1.1-.8h.2z"/></g><g id="Layer_3" class="st0"><path d="M231.2 245.5H64.4c-5 0-9.1-4.1-9.1-9.1V130.5c0-5 4.1-9.1 9.1-9.1h166.8c5 0 9.1 4.1 9.1 9.1v105.9c0 5-4.1 9.1-9.1 9.1z" fill="#3296d3"/><linearGradient id="SVGID_1_" gradientUnits="userSpaceOnUse" x1="207.673" y1="257.181" x2="132.728" y2="113.537"><stop offset="0" stop-color="#507ebf" stop-opacity="0"/><stop offset=".246" stop-color="#4d79b8" stop-opacity=".246"/><stop offset=".592" stop-color="#456da6" stop-opacity=".592"/><stop offset=".995" stop-color="#375888" stop-opacity=".995"/><stop offset="1" stop-color="#375888"/></linearGradient><path d="M225.4 245.5h-77l-93-93.3v-15.9c0-8.2 6.7-14.9 14.9-14.9h155.1c8.2 0 14.9 6.7 14.9 14.9v94.3c0 8.2-6.7 14.9-14.9 14.9z" opacity=".47" fill="url(#SVGID_1_)"/><path d="M224.6 201.2l-.3-1.5h-26.8v10.6h16.3c-.5 2-1.2 4-2.8 5.5-3 3-7 4.6-11.3 4.6-4.5 0-9-1.8-12.1-5-6.3-6.4-6.2-16.8.2-23.2 6.2-6.3 16.5-6.4 22.9-.3l1.3 1.2 7.5-7.7-1.4-1.3c-5.1-4.7-11.8-7.3-18.7-7.3h-.1c-7.3 0-14.1 2.8-19.3 7.9-5.3 5.2-8.2 12-8.2 19.3 0 7.1 2.8 13.7 7.9 18.7 5.3 5.1 12.5 8.1 20 8.2h.3c7.1 0 13.6-2.6 18.2-7.2 4.3-4.3 6.9-10.7 6.9-16.9-.1-1.8-.1-3.7-.5-5.6z" fill="#f1f1f2"/><path class="st5" d="M103.1 59.5l-9 68.8H40.5l15-57.4s3.1-11.4 14-11.4h33.6z"/><path class="st6" d="M147.8 59.5v68.8H94.2l8.9-68.8z"/><path class="st5" d="M201.5 128.3h-53.7V59.5H193z"/><path class="st6" d="M255.1 128.3h-53.7L193 59.5h33.2c10.9 0 14 11.4 14 11.4l14.9 57.4z"/><path class="st7" d="M94.2 128.3c0 14.8-12 26.7-26.8 26.7s-26.8-12-26.8-26.7h53.6z"/><path class="st8" d="M147.8 128.3c0 14.8-12 26.7-26.8 26.7s-26.8-12-26.8-26.7h53.6z"/><path class="st7" d="M201.5 128.3c0 14.8-12 26.7-26.8 26.7s-26.8-12-26.8-26.7h53.6z"/><path class="st8" d="M255.1 128.3c0 14.8-12 26.7-26.8 26.7s-26.8-12-26.8-26.7h53.6z"/></g><g id="Layer_4" class="st0"><g class="st1"><g id="Layer_x0020_1"><path d="M136.6 92.9c0-25.5-20.7-46.2-46.2-46.2S44.1 67.4 44.1 92.9c0 23.1 16.9 42.2 39 45.7v-32.3H71.4V92.9h11.7V82.7c0-11.6 6.9-18 17.5-18 5.1 0 10.4.9 10.4.9V77h-5.8c-5.7 0-7.5 3.6-7.5 7.2v8.7h12.8l-2 13.4H97.6v32.3c22.1-3.5 39-22.6 39-45.7z" fill="#4d77ba"/><path d="M108.4 106.3l2-13.4H97.6v-8.7c0-3.7 1.8-7.2 7.5-7.2h5.8V65.6s-5.3-.9-10.4-.9c-10.6 0-17.5 6.4-17.5 18v10.2H71.4v13.4h11.7v32.3c2.4.4 4.8.6 7.2.6 2.5 0 4.9-.2 7.2-.6v-32.3h10.9z" fill="#fefefe"/></g><path d="M189.5 132.4c36 0 55.7-29.8 55.7-55.7 0-.8 0-1.7-.1-2.5 3.8-2.8 7.1-6.2 9.8-10.1-3.6 1.6-7.4 2.6-11.2 3.1 4.1-2.4 7.1-6.3 8.6-10.8-3.8 2.3-8 3.9-12.4 4.8-7.4-7.9-19.8-8.3-27.7-.9-5.1 4.8-7.2 11.9-5.7 18.7-15.7-.8-30.4-8.2-40.3-20.5-5.2 8.9-2.5 20.4 6.1 26.1-3.1-.1-6.2-.9-8.9-2.5v.2c0 9.3 6.6 17.3 15.7 19.2-2.9.8-5.9.9-8.8.3 2.6 8 9.9 13.4 18.3 13.6-6.9 5.4-15.5 8.4-24.3 8.4-1.6 0-3.1-.1-4.7-.3 8.8 5.9 19.3 8.9 29.9 8.9" fill="#1da1f2"/><path d="M124.8 247.3H60.4c-6.6 0-12-5.4-12-12V171c0-6.6 5.4-12 12-12h64.5c6.6 0 12 5.4 12 12v64.4c-.1 6.5-5.5 11.9-12.1 11.9z" fill="#0a66c2"/><path class="st13" d="M123.8 204.9c-.3-8.7-7.3-14.7-16-14.8-5.3-.1-9.4 2.3-13.4 5.9-.2-1.6-.3-2.8-.4-4.1H81.6v42.2h13.3c0-6-.1-11.9 0-17.7 0-2.5.1-5.1.6-7.5.8-3.8 4.4-6.5 8-6.3 3.4.2 5.9 2.3 6.2 6.6.5 6.4.4 12.8.5 19.3v5.7h13.6c.1-10.2.4-19.7 0-29.3zM61.5 234h13v-42.3h-13V234zM68.1 170.3c-4.3 0-8.2 3.9-8.1 8.1.1 4.2 3.8 7.9 8 7.9 4.3 0 8.2-3.9 8.1-8.1-.1-4.2-3.8-7.9-8-7.9z"/><path d="M208.9 243.6c-12.4 0-21.7-6.4-21.7-21.7v-24.5h-11.3v-13.3c12.4-3.2 17.6-13.9 18.2-23.2H207v21h15.1v15.4H207v21.3c0 6.4 3.2 8.6 8.4 8.6h7.3v16.2h-13.8z"/></g></g></svg>