<svg width="268" height="280" viewBox="0 0 268 280" fill="none" xmlns="http://www.w3.org/2000/svg">
<g clip-path="url(#clip0_8783_9714)">
<path d="M-168.976 359.65V341.269H-138.341V323.501H-107.094V306.039H-76.7655V287.965H-45.5183V269.584H-14.8837V251.816H16.0572V233.436H46.9982V215.361H77.9391V197.899H182.709" stroke="white" stroke-width="1.83807" stroke-linecap="round"/>
<path d="M149.345 61.8359L142.039 54.5298" stroke="white" stroke-width="1.83807" stroke-linecap="round"/>
<path d="M164.869 59.6553V42.8887" stroke="white" stroke-width="1.83807" stroke-linecap="round"/>
<path d="M179.693 61.8359L187 54.5298" stroke="white" stroke-width="1.83807" stroke-linecap="round"/>
<path d="M88.9208 61.8359L81.6147 54.5298" stroke="white" stroke-width="1.83807" stroke-linecap="round"/>
<path d="M104.444 59.6553V42.8887" stroke="white" stroke-width="1.83807" stroke-linecap="round"/>
<path d="M119.269 61.8359L126.575 54.5298" stroke="white" stroke-width="1.83807" stroke-linecap="round"/>
<path d="M119.377 132.898L163.942 69.2341L208.952 133.535L164.388 197.199L119.377 132.898Z" fill="#5AB7E8"/>
<path d="M104.569 196.131L60.306 132.898L104.123 70.3025L148.386 133.535L104.569 196.131Z" stroke="white" stroke-width="1.22538"/>
</g>
<defs>
<clipPath id="clip0_8783_9714">
<rect width="266.521" height="280" fill="white" transform="translate(0.739746)"/>
</clipPath>
</defs>
</svg>
