<svg width="657" height="456" viewBox="0 0 657 456" fill="none" xmlns="http://www.w3.org/2000/svg">
<g clip-path="url(#clip0_8619_25890)">
<rect x="-222.477" width="878.954" height="457" rx="6.24479" fill="#F6F7F7"/>
<path d="M693.906 -253.032L-247.009 290.205" stroke="#98DBFF" stroke-width="2.23085" stroke-linecap="round" stroke-linejoin="round" stroke-dasharray="0.06 7.25"/>
<path d="M693.906 -81.2822L-247.009 461.955" stroke="#98DBFF" stroke-width="2.23085" stroke-linecap="round" stroke-linejoin="round" stroke-dasharray="0.06 7.25"/>
<path d="M693.906 90.4668L-247.009 633.704" stroke="#98DBFF" stroke-width="2.23085" stroke-linecap="round" stroke-linejoin="round" stroke-dasharray="0.06 7.25"/>
<path d="M693.908 262.217L-247.009 805.456" stroke="#98DBFF" stroke-width="2.23085" stroke-linecap="round" stroke-linejoin="round" stroke-dasharray="0.06 7.25"/>
<path d="M693.906 433.968L-247.009 977.205" stroke="#98DBFF" stroke-width="2.23085" stroke-linecap="round" stroke-linejoin="round" stroke-dasharray="0.06 7.25"/>
<path d="M-247.007 -253.032L693.908 290.205" stroke="#98DBFF" stroke-width="2.23085" stroke-linecap="round" stroke-linejoin="round" stroke-dasharray="0.06 7.25"/>
<path d="M-247.007 -81.2822L693.908 461.955" stroke="#98DBFF" stroke-width="2.23085" stroke-linecap="round" stroke-linejoin="round" stroke-dasharray="0.06 7.25"/>
<path d="M-247.007 90.4668L693.908 633.704" stroke="#98DBFF" stroke-width="2.23085" stroke-linecap="round" stroke-linejoin="round" stroke-dasharray="0.06 7.25"/>
<path d="M-247.009 262.217L693.908 805.456" stroke="#98DBFF" stroke-width="2.23085" stroke-linecap="round" stroke-linejoin="round" stroke-dasharray="0.06 7.25"/>
<path d="M-247.007 433.968L693.908 977.205" stroke="#98DBFF" stroke-width="2.23085" stroke-linecap="round" stroke-linejoin="round" stroke-dasharray="0.06 7.25"/>
<path d="M71.2087 275.812L223.659 187.847L376.109 275.812L223.659 363.778L71.2087 275.812Z" fill="#104E30"/>
<path d="M71.2087 223.944L223.659 135.979L376.109 223.944L223.659 311.91L71.2087 223.944Z" fill="#022836"/>
<path opacity="0.5" d="M71.2085 171.375L223.659 83.4092L376.109 171.375L223.659 259.34L71.2085 171.375Z" fill="#F4B1FF"/>
</g>
<defs>
<clipPath id="clip0_8619_25890">
<rect x="-222.477" width="878.954" height="457" rx="6.24479" fill="white"/>
</clipPath>
</defs>
</svg>
