<svg width="307" height="299" viewBox="0 0 307 299" fill="none" xmlns="http://www.w3.org/2000/svg">
<circle cx="83.4531" cy="197.287" r="41.663" fill="#53DC81"/>
<circle cx="154.832" cy="132.648" r="70.4595" stroke="white" stroke-width="1.83807"/>
<path d="M68.1824 47.2616H61.396L68.6799 47.6403C82.8186 48.3755 91.9232 62.9424 86.3888 75.9737C94.8012 59.3867 111.451 48.5734 130.025 47.6333L137.37 47.2616H129.735C115.826 47.2616 106.585 32.8649 112.377 20.2188C103.892 36.8169 86.8233 47.2616 68.1824 47.2616Z" stroke="white" stroke-width="1.83807" stroke-linejoin="round"/>
<path d="M187.832 237.206L146.099 237.206L193.988 238.215C208.043 238.511 217.364 252.895 211.893 265.844L198.655 297.177L210.517 272.168C220.207 251.739 240.609 238.541 263.215 238.078L305.86 237.206L258.335 237.206C243.822 237.206 234.194 222.165 240.271 208.985L253.304 180.721L240.893 204.837C230.664 224.713 210.185 237.206 187.832 237.206Z" stroke="white" stroke-width="1.83807" stroke-linejoin="round"/>
<path d="M31.2629 216.731H27.0854L31.554 216.958C39.4726 217.362 44.5519 225.549 41.3959 232.822C46.2183 223.515 55.6233 217.472 66.0926 216.954L70.5865 216.731H65.9173C58.1248 216.731 52.9735 208.633 56.2761 201.575C51.4111 210.891 41.7724 216.731 31.2629 216.731Z" stroke="white" stroke-width="1.83807" stroke-linejoin="round"/>
</svg>
