<svg xmlns="http://www.w3.org/2000/svg" viewBox="0 0 274.7 161.7"><path fill="#C8D8E1" d="M143.4 92.6s2.7.5 7.5 1.6 11.6 2.8 19.6 5.2c4 1.2 8.3 2.7 12.8 4.5 2.2.9 4.5 1.9 6.8 3s4.5 2.4 6.7 3.9c4.2 3.2 8.5 6.4 12.9 9.7 4.4 3.2 9.5 5.7 15 6.7 5.4 1 11.2.5 16.1-2 1.2-.6 2.3-1.4 3.3-2.2 1-.9 1.8-1.9 2.4-3.1 1.3-2.3 1.7-5 1.3-7.5-.7-5.1-4.5-9.3-9-10.6-2.2-.6-4.6-.6-6.7 0-2.1.6-4 1.7-5.1 3.4-1.1 1.7-1.3 3.7-1 5.5.4 1.8 1 3.6 2.2 4.7 1.2 1.2 2.7 1.7 4.1 1.7 1.4.1 2.8-.3 3.8-.9 1-.6 1.8-1.4 2.2-2.2.4-.8.5-1.7.4-2.3-.1-.6-.2-1.1-.3-1.4-.1-.3-.2-.5-.2-.5h.1s.1.2.2.5.3.8.4 1.5c.1.7.1 1.5-.4 2.4-.4.9-1.1 1.8-2.2 2.4-1.1.7-2.5 1-4 1s-3.2-.6-4.5-1.8c-1.3-1.2-2-3-2.4-4.9-.2-1-.3-2-.1-3 .1-1 .5-2.1 1.1-3 1.2-1.9 3.3-3.2 5.5-3.8 2.2-.6 4.7-.6 7.1 0 2.4.6 4.6 2.2 6.3 4.1 1.7 2 2.9 4.5 3.2 7.1.3 2.7-.1 5.5-1.5 8-.7 1.2-1.5 2.3-2.6 3.3-1.1.9-2.2 1.7-3.5 2.3-5 2.5-11 3-16.5 2-5.6-1.1-10.7-3.6-15.2-6.9-4.4-3.3-8.7-6.6-12.9-9.8-2.1-1.5-4.4-2.8-6.6-3.9-2.2-1.1-4.5-2.1-6.7-3-4.4-1.8-8.7-3.3-12.7-4.5-8-2.5-14.8-4.2-19.5-5.3-4.6-1.3-7.4-1.8-7.4-1.9zM170.8 72.6s-2.9-.5-7.8-1.7c-5-1.2-12-2.9-20.4-5.5-4.2-1.3-8.6-2.8-13.3-4.8-4.6-2-9.4-4.3-13.7-7.7-2.2-1.6-4.4-3.3-6.6-5-2.3-1.7-4.4-3.5-6.9-5-4.8-3-10.3-5.2-16.1-5.5-2.9-.2-5.8.1-8.5.9s-5.4 2-7.4 3.9-3.3 4.5-3.7 7.2c-.4 2.7.2 5.5 1.5 7.8.6 1.2 1.4 2.2 2.4 3.1.9.9 2 1.7 3.1 2.2 2.3 1 4.9 1.2 7.3.9 2.4-.3 4.7-1.1 6.6-2.4 1.9-1.3 3.3-3.1 3.6-5.2.3-2.1-.3-4.1-1.3-5.8-.5-.8-1.1-1.6-1.7-2.2-.7-.6-1.4-1.1-2.2-1.4-1.6-.7-3.3-.7-4.7-.2-1.4.4-2.7 1.2-3.5 2-.9.8-1.5 1.8-1.8 2.7-.3.9-.3 1.8-.3 2.4 0 .3.1.6.1.9.1.3.1.5.2.6.1.3.2.5.2.5h-.1s-.1-.2-.2-.5c-.1-.2-.1-.4-.2-.6-.1-.3-.1-.6-.2-.9-.1-.7-.1-1.6.2-2.5.3-1 .8-2 1.7-2.9.9-.9 2.1-1.8 3.6-2.2 1.5-.5 3.3-.5 5 .2.8.3 1.7.8 2.4 1.5s1.3 1.4 1.9 2.3c1 1.7 1.8 3.9 1.4 6.2-.3 2.3-1.9 4.3-3.8 5.7-2 1.4-4.4 2.3-6.9 2.6-2.5.3-5.3.2-7.8-.9-1.3-.6-2.3-1.4-3.3-2.4s-1.9-2.1-2.5-3.3c-1.4-2.5-1.9-5.4-1.5-8.3.4-2.9 1.8-5.6 3.9-7.6 2.2-2 4.9-3.2 7.8-4 2.8-.8 5.8-1 8.7-.8 5.9.4 11.5 2.6 16.3 5.7 2.4 1.5 4.6 3.4 6.9 5.1 2.2 1.7 4.4 3.4 6.6 5 4.2 3.4 9 5.7 13.6 7.7 4.6 1.9 9.1 3.5 13.2 4.8 8.3 2.6 15.4 4.4 20.3 5.6 5 1.2 7.9 1.8 7.9 1.8zM168.6 122.4c-4.7-1.6-9.5-2.8-14.4-3.7-4.9-.9-9.8-1.5-14.8-1.6-5-.1-9.9.2-14.8 1.3-2.4.5-4.8 1.2-7.1 2.1-1.2.5-2.3 1-3.4 1.5l-3.3 1.8c-4.3 2.4-9.1 4.2-14 5-4.9.8-10.1.4-14.7-1.7-4.6-2-8.5-5.5-11-10-2.5-4.4-3.5-9.5-3.4-14.5 0-2.5.3-5 1-7.4.7-2.4 1.7-4.8 3.2-6.8 1.5-2.1 3.4-3.8 5.5-5.2 2.1-1.4 4.5-2.3 6.9-2.9 4.9-1.2 10.1-1.2 14.9.3 2.4.8 4.7 1.9 6.7 3.5s3.7 3.6 4.8 5.8c1.2 2.3 1.9 4.7 2.2 7.2.2 1.3.2 2.5.3 3.8 0 1.3-.1 2.6-.5 3.8-.7 2.5-2.1 4.7-4 6.4-1.9 1.7-4.2 2.9-6.6 3.7-2.4.8-5 1.1-7.5 1.1-2.5-.1-5.1-.6-7.4-1.7-2.3-1.1-4.4-2.8-5.7-5-1.3-2.2-1.9-4.8-1.9-7.3-.1-.9 0-1.8.1-2.7.1-.9.3-1.8.6-2.7.5-1.7 1.5-3.4 2.8-4.6 1.4-1.2 3.1-2 4.9-2.3.9-.2 1.8-.2 2.7-.2.9 0 1.8.1 2.7.3 1.8.4 3.4 1.4 4.5 2.9s1.6 3.3 1.5 5.1c0 1.8-.6 3.6-1.6 5.1-1 1.5-2.5 2.7-4.3 3.1v-.1c1.7-.4 3.2-1.6 4.2-3.1s1.4-3.3 1.4-5c0-1.8-.5-3.5-1.6-4.9-1-1.4-2.6-2.3-4.3-2.7-.9-.1-1.8-.1-2.6-.1-.9 0-1.8.1-2.6.3-1.7.3-3.4 1-4.6 2.2-1.3 1.2-2.2 2.7-2.7 4.4-.3.8-.4 1.7-.5 2.6-.1.9-.1 1.8 0 2.6 0 2.4.6 4.9 1.9 6.9 1.3 2.1 3.2 3.7 5.4 4.7 4.4 2 9.7 2 14.3.5 2.3-.8 4.5-1.9 6.3-3.5 1.8-1.6 3.2-3.7 3.8-6 .3-1.2.5-2.3.5-3.6 0-1.2-.1-2.5-.2-3.7-.3-2.4-1-4.8-2.1-7s-2.7-4.1-4.6-5.6c-1.9-1.5-4.1-2.6-6.5-3.4-4.7-1.5-9.8-1.5-14.5-.4-2.4.6-4.7 1.5-6.8 2.8-2.1 1.3-3.9 3-5.3 5s-2.4 4.3-3.1 6.6c-.6 2.4-.9 4.8-1 7.3-.1 4.9.9 9.9 3.3 14.2 2.3 4.3 6.2 7.8 10.7 9.8 4.5 2 9.6 2.4 14.5 1.7s9.6-2.5 13.9-4.9l3.3-1.8c1.1-.6 2.3-1.1 3.4-1.5 2.3-.9 4.7-1.6 7.2-2.1 4.9-1 9.9-1.3 14.9-1.2 5 .1 9.9.7 14.8 1.7 4.8.9 9.6 2.1 14.3 3.8z" opacity=".4"/><g opacity=".6"><path fill="#FFF" d="M41.11 115.13l34.37-12.588 8.184 22.348-34.368 12.587z"/><path fill="#CCCED0" d="M45.602 117.212l27.794-10.18 5.777 15.775-27.794 10.18z"/><path fill="#FFF" d="M60.5 129.7c-.9-2.6.5-5.2 3.2-6.1 2.6-1 5.4-.1 6.4 2.6"/><path fill="#204A69" d="M60.5 129.7s0-.1-.1-.2c0-.1-.1-.2-.2-.5-.1-.2-.1-.5-.2-.8v-1c.1-.4.2-.8.4-1.2.2-.4.5-.7.8-1.1.3-.3.7-.6 1.1-.9.4-.3.8-.5 1.3-.7.4-.2.9-.3 1.4-.4.5-.1 1-.1 1.5 0s.9.2 1.3.4.7.4 1 .7c.3.3.5.5.7.8.2.3.3.5.4.7.1.2.1.4.2.5v.2s0-.1-.1-.2-.1-.2-.2-.4-.3-.4-.4-.6l-.7-.7c-.5-.4-1.3-.8-2.1-.9-.4-.1-.9-.1-1.3 0-.5 0-.9.1-1.4.2-.4.1-.9.3-1.3.6s-.7.6-1 .9c-.5.7-.8 1.5-1 2.1-.1.3-.1.7-.1.9v.7c0 .2.1.4.1.5-.1.3-.1.4-.1.4z"/><g><ellipse transform="rotate(-19.183 63.57 122.34)" fill="#EDE4D7" cx="63.6" cy="122.3" rx="2.8" ry="2.2"/><path fill="#EDE4D7" d="M61.3 121.1c-.1 0-.1 0-.1.1v.2h-.1s0 .1-.1.1v.1c.1.1 0 0 0 .1h-.1s0 .1-.1.1v.1c.1 0 .1.1 0 .1V122.3c-.1 0-.1.1-.1.2 0 0 .1.1 0 .1.1 0 0 .1 0 .1v.1s.1.1 0 .1.1.1 0 .1c0 .1 0 .2.1.3v.1c.1 0 0 .1 0 .2 0 0 0 .1.1.1s0 0 0 .1v.1l.1.1h.1v.1c0 .1.1.1.1.1h.1c0 .1.1.2.2.1 0 .1 0 .1.1 0-.1.1.1.3.2.2h.1v.1h.2v-.1.1h.1s0 .1.1-.1v.1h.2v-.1.1h.7c0-.1.1 0 .1-.1h.1v-.1c.2.1.2-.1.4 0 0-.1 0-.1-.1-.1v.2s.1 0 .1-.1c0 0 0-.1.1-.1 0 .1 0 0 .1 0 0 0 .1 0 0 0l.1-.1c-.1-.1 0-.1 0-.1v.1h.1l.1-.1c.1 0 .1-.1.2-.1v-.1h.1l.1-.1-.1-.1.1.1v-.1l.1.1h.1c.1 0 .1-.2.2-.2 0-.1 0-.1.1-.1 0 0 0-.1.1-.1 0 0 0-.1.1-.1s.1-.1.1-.1v-.1c0-.1.1-.1.2-.2 0 0 0-.1.1-.1v-.1s.1-.1 0-.2v-.1c0-.1.1-.2.1-.3v-.2-.4c0-.1 0-.2.1-.2h-.1c-.1 0-.1 0-.2.1V121.7h.1v.4s.1.1-.1.1c-.1.1-.1.1 0 .2V122.7s0 .1-.1.1v.1h-.1s0 .1-.1.2c0 .1-.1.1-.2.2-.1 0 0 .1-.1.1 0 0-.1.1-.2.1v.1c-.1 0-.2 0-.2.1h-.1v.1c-.1-.1-.1 0-.1.1h-.1s0 .1-.1.1-.1.1-.1 0c0 0-.1 0-.1.1v.1s0-.1-.1-.1l-.2.2v-.1c-.1 0-.1.1-.1 0v.1-.1.1c-.2-.1-.4.1-.5 0v.2s0-.3-.1-.1H63v0c-.1 0-.1.1-.2 0v.2-.1s0 .1-.1.1h-.1-.1-.1-.1l-.1-.1s-.1.1-.1 0v.1H62v-.1h-.2-.1s-.1 0-.1-.1l-.1-.1h-.1s-.1-.1-.1 0c0-.1-.1-.1-.1-.1h-.1c-.1 0-.1-.1-.2-.2v-.1h-.1c0-.1-.1-.1-.1-.2 0 0-.1 0-.1-.1s-.1-.1-.1-.2 0-.1-.1-.2v-.1s-.1-.1-.1-.2.1-.3 0-.4c0 0 .1 0 0-.1h.1s0-.1.1-.1v-.1-.1l-.1-.1c.1 0 0-.1.1-.1s.1-.1.1-.2v-.1c.1 0 .1-.1.1-.1h.1s0-.1.1-.1l.1-.1s.1-.1.2-.1.1 0 .2-.1c.1.1.1 0 .1 0 .1 0 .1-.2.2-.2s.3 0 .3-.1h.1s0-.1.1-.1h.2c.1-.1.2-.1.3-.1v-.2.1h.7s.1-.1.1 0H63.8s.1-.1.2 0h.1c0 .1 0 0 .1-.1v0c0 .1.1.2.2.1v.1h.2s0 .1 0 0c.1-.1.1 0 .1.1 0 0 0 .1.1 0v.1s.1 0 .1.1.1.1.1.1c0 .1.1.1.1.1l.1.1v.1c.1 0 .1.1.1.2h.1c.1 0 .1 0 .3-.1l.1-.1s0-.1 0 0v-.2l-.1-.1h-.2c.2-.1.1-.1 0-.1 0 0 .1 0 .1-.1h-.1v-.1s0-.1-.1 0v-.1-.2s-.1 0-.1-.1c-.1 0 0 0 0 0v-.1c-.1 0-.1-.1-.2-.1v.1c-.1.1-.1-.1-.3 0v-.1s0-.1-.1 0c0-.1 0-.1-.1-.1h-.1v0s0 .1-.1.1v0c0-.1-.1 0-.2 0 0 0 0-.2-.1-.2-.1.1 0 .3 0 .4 0-.1 0-.3-.1-.3 0 .1-.1.2-.1.2v.1c0-.1 0-.2-.1-.1 0 0-.1-.1-.1 0 0 0 0 .1 0 0v.1l-.1.1v-.1-.1h-.1-.1s0-.1 0 0v0h-.1v-.1c0 .1-.1 0-.1.1v-.1c0 .1 0 .1-.1.1 0 0-.1 0 0 .1l-.1.1v-.1c0 .1 0 .1-.1 0 0-.1-.1-.1-.1-.1s-.1 0-.1.1v.1c-.1-.1-.1 0-.1 0h-.1c0 .1-.1.1-.2.1v.1s0 .1-.1 0H62c-.1 0-.1.1-.1.1s0 .1.1.1c0-.1-.1-.1-.1-.1v.1h-.1c-.1-.1 0 0 0 0h-.1l-.1.1c0 .1 0 .1-.1.1l-.1-.1s0 .1-.1.2c.1 0 .1 0 0 0zm1.5 3.3v.1h-.1c.1.1.1 0 .1-.1 0 .1 0 .1 0 0z"/><ellipse transform="rotate(-19.183 63.047 120.812)" fill="#37443D" cx="63" cy="120.8" rx="1.2" ry=".9"/><path fill="#37443D" d="M62.1 120.3s-.1 0 0 0c-.1 0-.1 0 0 0-.1 0-.1 0 0 0-.1.1-.1.1 0 .1-.1 0-.1 0 0-.1l-.1.1s0 .1 0 0v.2c-.1 0 0 0 0 .1v.2c-.1 0 0 0 0 0s0 .1.1.1 0 .1 0 .1 0 .1 0 0l.1.1s0 .1.1 0c0 .1 0 .2.1.1h.1v.1h.2v-.1h.1v.1h.2c0-.1 0 0 .1 0 .1.1.1 0 .2 0v-.1h.1v-.1c0 .1 0 0 0 0 0-.1 0 0 0 0v.1h.1v-.1-.1.1l.1.1c.1 0 0-.1.1-.1h.1v-.1l.1-.1v-.1-.1l.1-.1v-.1-.2-.1h-.1v.1h.1v.2h-.1v.2h-.1v.1s0 .1-.1.1v.1h-.1-.1c0-.1 0 0 0 0h-.1v0l-.1.1v-.1s0 .1-.1 0v.1c-.1-.1-.2 0-.2 0v.1c0-.1 0 0 0 0v-.1 0s0 .1-.1 0v.2-.1.1h-.1v-.1h-.1-.1v-.1h-.1l-.1-.1v-.1-.1-.1s-.1 0-.1-.1.1-.1 0-.2h.1s-.1-.1 0-.1h.1c.1 0 0 0 .1-.1H62.9s.1 0 .1-.1c0 .1 0 0 .1 0 0 0 0-.1.1-.1s.1 0 .1-.1h.1s.1 0 .1-.1v-.1.1h.2s0-.1 0 0h.1s.1-.1.1 0v0c0 .1 0 .1.1 0v.1h.1v.1h.1s.1 0 0 .1H64.5v-.1-.1h-.1c.1-.1.1-.1 0-.1h.1-.1v-.1h-.1v-.1h-.1c-.1.1-.1 0-.1 0s0-.1 0 0v-.1H64v.1c0-.1-.1 0-.1 0v-.1.1-.1.1c0 .1 0 .1 0 0l-.1-.1v.1c0 .1 0 0 0 0 0-.1 0 0 0 0 0 .1 0 .1-.1 0v.1h-.1s0 .1-.1 0v.1s0-.1-.1-.1c-.1-.1 0 0 0 0-1.2.4-1.3.4-1.3.5 0-.1 0-.1 0 0 0-.1 0-.1 0 0zm.6 1.3s0 .1 0 0v0c0 .1 0 0 0 0z"/><ellipse transform="rotate(-19.183 60.39 119.2)" fill="#37443D" cx="60.4" cy="119.2" rx=".5" ry=".7"/><path fill="#37443D" d="M60.7 118.6s-.1 0 0 0c-.1 0-.1 0 0 0-.1-.1-.1 0 0 0-.1-.1-.1 0-.1-.1h-.1s-.1 0 0 0h-.1v.1h0c.1 0 0 0 0 0-.1.1 0 .1-.1.1h.1c-.1 0 0 0 0 0 .1 0 0 0 0 0v.1h.1l-.1.1s.1 0 0 .1v.1l.1.1h.1l.1.1v-.1 0h-.1s0-.1 0 0c.1 0 0 0 0 0h-.1.1-.1.1s-.1 0 0 0h-.1c.1-.1 0-.1 0-.1h-.1c.1 0 0 0 0 0h.1s-.1 0 0 0h-.2.1c.1 0 0 0 0 0v-.1s0 .1.1 0v.1s.1-.1 0 0c0 .1 0 0 0 0s0 .1 0 0c-.1 0 0 0 0 0h.1v.1s-.1 0 0 .1v.1h.1-.1s.1 0 0 0c0 0 .1 0 0 0h-.1.1c-.1 0-.1 0 0 0h-.1c.1 0 0 0 0 0-.1 0 0 0 0 0 0 .1 0 .1.1.2h.1l-.1-.1c.1.1.1.1 0 0v.1-.1-.1h.1v-.1c-.1-.1 0 0 0-.1h-.1.1c.1 0 0 0 0-.1h.1-.2.2-.1-.1.2-.1.1-.1c-.1 0-.1 0 0 0 0 0 .1 0 .1-.1h-.1c-.1 0 0 0 0 0 .1 0 0 0 0 0-.1 0-.1 0 0 0h-.1-.1s.1 0 .1-.1c.1-.1 0 0 0 0l.1-.3c.1.1.1.1 0 0 0 .1 0 .1 0 0 0 .1 0 0 0 0zm-.7.4s-.1 0 0 0h-.1.1c-.1 0-.1 0 0 0z"/><ellipse transform="rotate(-19.183 63.84 117.998)" fill="#37443D" cx="63.8" cy="118" rx=".5" ry=".7"/><path fill="#37443D" d="M64.1 117.4s.1 0 0 0c0-.1 0 0 0 0-.1-.1-.1 0-.1-.1h-.1s-.1 0 0 0h-.1v.1h0c.1 0 0 0 0 0-.1.1 0 .1-.1.1h.1c-.1 0 0 0 0 0 .1 0 0 0 0 0v.1h.1l-.1.1s.1 0 0 .1v.1l.1.1h.1l.1.1v-.1 0H64s0-.1 0 0c.1 0 0 0 0 0h-.1.1-.1.1s-.1 0 0 0h-.1c.1-.1 0-.1 0-.1h-.1c.1 0 0 0 0 0h.1s-.1 0 0 0h-.2.1c.1 0 0 0 0 0v-.1s0 .1.1 0v.1s.1-.1 0 0c0 .1 0 0 0 0s0 .1 0 0c-.1 0 0 0 0 0h.1v.1s-.1 0 0 .1v.1h.1-.1s.1 0 0 0c0 0 .1 0 0 0h-.1.1c-.1 0-.1 0 0 0h-.1c.1 0 0 0 0 0-.1 0 0 0 0 0 0 .1 0 .1.1.2h.1l-.1-.1c.1.1.1.1 0 0v.1-.1-.1h.1v-.1c-.1-.1 0 0 0-.1H64h.1c.1 0 0 0 0-.1h.1-.2.2-.1-.1.2-.1.1-.1c-.1 0-.1 0 0 0 0 0 .1 0 .1-.1h-.1c-.1 0 0 0 0 0 .1 0 0 0 0 0-.1 0-.1 0 0 0H64h-.1s.1 0 .1-.1c.1-.1 0 0 0 0l.1-.3c.1.1.1.1 0 0 .1.1.1.1 0 0 .1 0 .1 0 0 0 .1 0 .1 0 0 0 0 .1 0 0 0 0 .1 0 0 0 0 0zm-.7.4h-.1.1zM63.7 123.5c.1 0 0 0 0 0 .1-.1 0-.1.1-.1v-.1s0-.1 0 0c.1 0 .1-.1.1-.1v-.1h-.1.1c-.1 0 0 0 0 0 .1-.1 0-.1 0-.1h-.1c.1 0 0 0 0 0-.1 0 0 0 0 0h.1v-.1h-.1-.1.1s-.1 0 0-.1c-.1 0 0 0 0 0v-.1-.1-.1-.1h0v.1s.1 0 0 .1v.4h.1c-.1 0 0 0 0 0h0l.1.1h-.1s.1 0 0 0h.1c-.1.1 0 .1 0 .2h.1c-.1 0 0 0 0 0s-.2.1-.1 0h0s.1 0 0 0h.2-.1 0c-.1 0 0 0 0 .1v.4-.1.1s-.1 0 0 .1H64s.1.1 0 .1c0 0-.1 0 0 0-.1-.1 0 0 0 0v.1h-.1-.1-.1v.1-.1s0 .1 0 0c0 0 0 .1 0 0v-.1.1c0-.1 0-.1 0 0v-.1c0 .1 0 0 0 0 0-.1 0 0 0 0h-.1c0 .1 0 .1-.1.2v.2l.1-.1v.2-.1s0 .1 0 0v-.1.1h.1c0-.1 0 0 .1-.1v-.1.1c0-.1 0-.1 0 0l.1.1v-.1c0 .1 0 0 0 0 0-.1 0-.1 0 0v-.1h.1l-.1-.1s0 .1.1.1c.1.1 0 0 0 0l-.3-.7-.1.1.1-.1c-.1.1 0 .1 0 0-.1.1 0 .1 0 0 0 .1 0 .1 0 0 0 .1 0 .1 0 0 0 .1 0 0 0 0zm-.1-1.1h0zM64.3 123.2c-.1 0-.1 0 0 0-.1-.1-.1-.1 0 0-.1 0-.1 0 0 0-.1 0-.1 0 0 0-.1 0-.1 0 0 0-.1-.1-.1 0 0 0h-.1c0 .1 0 0 0 0 0-.1 0 0 0 0 0-.1 0 0 0 0v-.1s0-.1 0 0c.1 0 .1-.1.1-.1v-.1h-.1.1c-.1 0 0 0 0 0 .1-.1 0-.1 0-.1h-.1c.1 0 0 0 0 0-.1 0 0 0 0 0h.1v-.1h-.1-.1.1s-.1 0 0-.1c-.1 0 0 0 0 0v-.1-.1-.1-.1h0v.1s.1 0 0 .1v.4h.1c-.1 0 0 0 0 0h0l.1.1h-.1s.1 0 0 0h.1c-.1.1 0 .1 0 .2h.1c-.1 0 0 0 0 0s-.2.1-.1 0h0s.1 0 0 0h.2-.1 0c-.1 0 0 0 0 .1v.4l.1.1h.1s0 .1.1.1v0c0 .1 0 0 0 0 0 .1 0 0 .1 0 0 .1 0 0 0 0h.1s0 .1.1 0c0 .1 0 0 0 0l.1-.1h.2s.1 0 .1-.1v-.1.1s0-.1 0 0h.1v-.1l.1.1h.1c0-.1 0 0 0 0h.1v-.1-.1c-.1 0-.1 0-.2-.1h-.1-.1l.1.1c-.1-.1-.1 0-.1 0h-.1.1-.1c.1.1 0 0 0 .1h-.1l.1.1-.1-.1V123.8l-.1-.1c0 .1.1.1.2.2l-.2-.2c0 .1.1.1.1.1l-.1-.1s0 .1.1.1v-.1-.1.1-.1.1c0 .1 0 .1 0 0 0 0 0-.1-.1-.1v.1c0 .1 0 0 0 0 0-.1 0 0 0 0 0 .1 0 .1 0 0v.1c0-.1 0 0 0 0l-.9-.6zm-.9-.7s.1 0 0 0h0c.1 0 0 0 0 0z"/><path fill="#FFF" d="M64.9 114.9c-1.3-.7-2.9-.8-4.5-.3-1.5.6-2.6 1.7-3.2 3.1 0 0-3 2.4-1 6.2l1.5-1.6c1.3 2.4 4 3.9 6.6 2.9 2.6-1 3.7-4.1 3.1-6.7l2.1.5c-.7-3.9-4-4.2-4.6-4.1z"/><path fill="#204A69" d="M64.7 115c-.6-.3-1.3-.4-2-.5-.7 0-1.5.1-2.2.3-.2.1-.4.1-.5.2-.2.1-.3.2-.5.3-.3.2-.6.4-.9.7-.5.5-1 1.1-1.2 1.8-.1.1-.2.2-.3.1-.1 0-.1-.1-.1-.2l.4.2-.6.6c-.2.2-.3.4-.5.7-.3.5-.5 1-.5 1.5-.2 1.1.1 2.2.6 3.1l-.4-.1 1.5-1.6c.1-.1.2-.1.3 0v.1c.6 1.1 1.5 2.1 2.7 2.6l.9.3c.3.1.6.1.9.1.3 0 .6 0 .9-.1.3-.1.6-.1.9-.2.3-.1.6-.3.8-.4.3-.2.5-.4.7-.6.4-.5.8-1 1-1.6.5-1.2.6-2.5.3-3.8 0-.1.1-.3.2-.3h.1l2.1.6-.3.3c-.1-.3-.1-.5-.2-.8-.1-.3-.2-.5-.3-.7-.1-.2-.3-.5-.4-.7-.2-.2-.3-.4-.5-.6l-.3-.3c-.1-.1-.2-.2-.3-.2-.2-.1-.5-.3-.7-.4-.2-.1-.5-.2-.8-.3-.3-.1-.5-.1-.8-.1zm.4-.2h.7c.3.1.6.1.8.2.3.1.5.2.8.4.1.1.3.1.4.2l.3.3.6.6c.2.2.4.5.5.7.1.3.3.5.4.8.1.3.2.6.2.8 0 .1 0 .2-.1.3h-.1l-2.1-.5.3-.3c.3 1.4.2 2.8-.4 4.1-.3.6-.6 1.2-1.1 1.8-.2.3-.5.5-.8.7-.3.2-.6.4-.9.5-.7.3-1.4.4-2.1.3-.4 0-.7-.1-1-.2-.3-.1-.7-.2-1-.4-1.3-.6-2.3-1.6-2.9-2.9l.4.1-1.5 1.6c-.1.1-.2.1-.3 0v-.1c-.6-1-.9-2.2-.7-3.4.1-.6.3-1.2.6-1.7.1-.3.3-.5.5-.7l.6-.6c.1-.1.3-.1.3 0l.1.1-.5-.1c.3-.7.8-1.4 1.4-1.9.3-.3.6-.5.9-.7.2-.1.3-.2.5-.3.2-.1.4-.2.6-.2.7-.3 1.6-.4 2.4-.3.4 0 .8.1 1.2.2.4.1.8.3 1.1.5l-.1.1z"/><ellipse transform="rotate(-20.116 62.557 120.245)" fill="#FFF" cx="62.6" cy="120.2" rx="1.3" ry="1"/><path fill="#204A69" d="M63.8 119.8s.1.1 0 .3c0 .2-.1.5-.4.8-.1.1-.3.3-.5.3-.2.1-.4.2-.6.2-.2 0-.5 0-.7-.1-.2-.1-.5-.3-.6-.5-.1-.3-.1-.6 0-.8.1-.2.3-.4.5-.6l.6-.3c.2-.1.4 0 .6 0 .4.1.6.3.8.4.3.2.3.3.3.3zm0 0s0-.1-.2-.2c-.1-.1-.4-.2-.7-.1-.1 0-.3.1-.5.1-.2.1-.3.1-.5.2-.3.2-.6.5-.5.9.1.3.5.5.9.5.2 0 .4-.1.6-.1.2-.1.3-.1.5-.2.3-.2.4-.5.4-.7v-.4z"/><path fill="#204A69" d="M63 121.1s.2.2.3.5c.1.1.1.3.1.4v.2c0 .1-.1.2-.2.2s-.1 0-.1-.1l-.1-.1c-.1-.1-.1-.2-.2-.4l-.2-.6c0-.1.1-.2.2-.2s.2 0 .2.1z"/><path fill="#204A69" d="M61 122.8h1.5c.2 0 .4 0 .6-.2.1-.2.2-.5.1-.7 0-.1 0-.1.1-.1h.1c.4.1.9.1 1.2 0 .1 0 .2-.1.3-.1.1-.1.2-.1.2-.2.2-.1.3-.3.4-.5v.4c0 .1-.1.3-.1.4l-.3.3c-.1.1-.2.2-.4.2-.3.1-.6.1-.8 0-.3-.1-.5-.2-.7-.3l.2-.1c0 .3-.1.5-.2.8-.1.3-.4.5-.7.6-.3.1-.6 0-.8-.1-.1 0-.3-.1-.4-.2-.1 0-.1-.1-.2-.1s-.1 0-.1-.1c-.1 0-.1 0 0 0-.1 0-.1 0 0 0z"/><ellipse transform="rotate(-20.116 60.04 118.81)" fill="#204A69" cx="60" cy="118.8" rx=".5" ry=".7"/><ellipse transform="rotate(-20.116 63.34 117.6)" fill="#204A69" cx="63.3" cy="117.6" rx=".5" ry=".7"/><g><path fill="#FFF" d="M57.2 117.8s-.4 1.6.4 3.3"/><path fill="#204A69" d="M57.4 117.9s-.1.2-.1.5-.1.7 0 1.1c0 .8.3 1.7.3 1.7s-.4-.8-.6-1.6c-.1-.4-.1-.9-.1-1.2v-.6c0-.1.1-.2.3-.2s.2.1.2.3z"/></g><g><path fill="#FFF" d="M64.9 114.9s1.3 1 1.8 2.8"/><path fill="#204A69" d="M65 114.8l.4.4c.2.3.5.6.7 1 .4.8.6 1.6.6 1.6s-.3-.8-.8-1.5c-.3-.3-.5-.6-.8-.8-.2-.2-.4-.3-.4-.3-.1-.1-.1-.2-.1-.3s.3-.2.4-.1c0-.1 0-.1 0 0z"/></g></g></g><g opacity=".5"><path fill="#FFF" d="M229.187 59.887l33.557 7.568-4.928 21.85-33.557-7.567z"/><path fill="#CCCED0" d="M231.68 63.832l27.216 6.138-3.476 15.413-27.216-6.138z"/><path fill="#FFF" d="M240.1 74.3l-7.6-1.7s-.7-1.8.7-2.5 2.1.7 2.1.7.5-3 2.8-2.4c2.9.7 1.9 3.1 1.9 3.1s2.3-.1 2.1 1.9c0 0 0 .7-.6 1.3l-1.4-.4z"/><path fill="#204A69" d="M240 74.5c-1.3-.2-2.6-.5-3.8-.8l-3.8-.8c-.1 0-.2-.1-.2-.2-.1-.2-.1-.5-.2-.7v-.7c0-.3.1-.5.3-.7.1-.2.3-.4.6-.6.1-.1.2-.1.3-.2.1 0 .2-.1.4-.1.3-.1.5-.1.8 0 .3.1.5.2.7.4.2.2.3.4.4.6l-.5.1c.1-.4.2-.7.4-1.1.2-.3.4-.7.6-1 .1-.1.3-.3.5-.4.2-.1.4-.2.6-.2.2-.1.4-.1.6-.1.2 0 .4 0 .6.1l.5.1c.2.1.4.1.5.2.2.1.3.2.5.3.2.1.3.3.4.4.1.2.2.4.3.5.1.2.1.4.1.6 0 .4 0 .8-.2 1.1l-.2-.3h.6c.2 0 .4.1.6.2.2.1.4.2.6.4.2.1.3.3.4.6.1.2.1.4.1.7 0 .2 0 .4-.1.6-.1.4-.3.8-.6 1.1h-.1l-1.7-.1zm.6-.2l1 .1h-.1c.2-.3.4-.6.5-1v-.5c0-.2-.1-.3-.1-.5-.1-.3-.4-.5-.7-.6-.3-.1-.7-.2-1.1-.2-.1 0-.3-.1-.3-.2v-.1c.1-.3.2-.6.1-.9 0-.2 0-.3-.1-.5-.1-.1-.1-.3-.2-.4l-.3-.3c-.1-.1-.3-.2-.4-.3-.1-.1-.3-.1-.4-.2l-.5-.1c-.1 0-.3-.1-.5 0-.2 0-.3 0-.5.1-.1 0-.3.1-.4.2-.1.1-.2.2-.4.3-.4.5-.7 1.1-.8 1.7 0 .2-.2.2-.3.2-.1 0-.2-.1-.2-.2-.1-.2-.2-.3-.3-.5-.1-.1-.3-.2-.5-.3-.2-.1-.4 0-.5 0-.1 0-.2 0-.3.1-.1 0-.2.1-.3.1-.3.2-.5.5-.6.9-.1.4 0 .8.1 1.2l-.2-.2 3.8.9c1.3.3 2.5.6 3.8.9l.7.3z"/><g><ellipse transform="rotate(-77.29 251.415 75.287)" fill="#FFF" cx="251.4" cy="75.3" rx="3.9" ry="3.9"/><path fill="#204A69" d="M255.2 76.2s0 .1-.1.3c0 .2-.1.4-.3.7-.2.3-.4.7-.7 1-.3.3-.8.7-1.3.9-.6.2-1.2.3-1.9.3-.2 0-.3-.1-.5-.1-.2-.1-.3-.1-.5-.2-.3-.1-.7-.3-.9-.6-.6-.5-1-1.1-1.3-1.8-.3-.7-.4-1.5-.2-2.3.1-.4.2-.8.4-1.1.2-.3.4-.7.7-1 .6-.6 1.3-.9 2-1.1.7-.2 1.5-.1 2.2.2.7.2 1.2.6 1.6 1.1.4.5.6 1 .8 1.4.2.5.2.9.2 1.2 0 .3 0 .6-.1.8 0 .2-.1.3-.1.3zm0-.1v-.3-.8c0-.7-.4-1.6-1.2-2.4-.4-.4-.9-.7-1.5-.9-.6-.2-1.3-.2-1.9-.1-.7.1-1.3.4-1.8.9s-.9 1.1-1.1 1.8c-.1.3-.1.7-.1 1.1 0 .4.1.7.2 1.1.3.7.7 1.3 1.3 1.7.3.2.6.3.9.4.1.1.3.1.5.1.1 0 .3.1.5.1.6 0 1.2 0 1.7-.2 1-.3 1.7-1.1 2.1-1.6.2-.3.3-.5.3-.7.1-.1.1-.2.1-.2z"/></g><g><path fill="#FFF" d="M250.9 81.5l-10-2.2s-.9-2.4.9-3.3c1.9-.9 2.7 1 2.7 1s.7-3.9 3.7-3.2c3.8.9 2.5 4 2.5 4s3-.2 2.8 2.4c0 0 0 1-.8 1.7l-1.8-.4z"/><path fill="#204A69" d="M250.9 81.5c-.8-.2-1.7-.4-2.5-.5l-2.5-.5c-.8-.2-1.7-.3-2.5-.5s-1.7-.4-2.5-.6c-.1 0-.1-.1-.1-.1-.2-.6-.3-1.2-.2-1.8l.3-.9c.2-.3.4-.5.6-.6.3-.2.5-.3.8-.3.1 0 .3-.1.5-.1s.3 0 .5.1c.3.1.6.3.8.5.2.2.4.5.5.7h-.2c.2-.9.5-1.8 1.2-2.6.2-.2.3-.3.6-.5.2-.1.4-.2.7-.3l.4-.1h.4c.3 0 .5 0 .7.1l.7.2c.2.1.5.2.7.3.2.1.4.2.6.4.2.2.4.4.5.6.1.2.2.4.3.7.1.2.1.5.1.7 0 .5-.1 1-.2 1.5l-.2-.3c.3 0 .6 0 .8.1.3 0 .5.1.8.2.3.1.5.3.7.5.2.2.4.4.5.7.1.3.1.5.2.8 0 .3 0 .5-.1.8-.1.5-.4 1-.8 1.4h-.1l-2-.6zm0-.1l1.9.3h-.1c.3-.4.6-.8.6-1.3.1-.2 0-.5 0-.7 0-.2-.1-.5-.2-.7-.1-.2-.2-.4-.4-.5-.2-.2-.4-.3-.6-.3-.2-.1-.5-.1-.7-.2-.2 0-.5-.1-.7 0-.1 0-.3-.1-.3-.2v-.1c.1-.4.2-.8.2-1.3 0-.2-.1-.4-.1-.6l-.3-.6c-.1-.2-.2-.3-.4-.5-.1-.1-.3-.3-.5-.4l-.6-.3-.7-.2c-.2 0-.4-.1-.6-.1h-.3l-.3.1c-.2.1-.4.1-.6.2-.2.1-.3.2-.5.4-.6.6-1 1.5-1.2 2.4 0 .1-.1.1-.1.1s-.1 0-.1-.1c-.2-.5-.6-1-1.2-1.1-.1 0-.3-.1-.4-.1h-.4c-.3.1-.5.2-.8.3l-.6.6c-.2.2-.2.5-.3.8-.1.6.1 1.1.3 1.7l-.1-.1c.8.2 1.7.3 2.5.5s1.7.4 2.5.6l2.5.7c.9.4 1.7.5 2.6.7z"/></g></g><g opacity=".35"><path fill="#D8DEE4" d="M227.2 34.1s-4.4 4.5-9-1.2c-4.4-5.3-7.5-6.4-11.3-6-2.9.2 12-9.8 20-.3-.1 0 3.4 4.1.3 7.5z"/><path fill="#4F758E" d="M226.8 34.7c-.3.3-.8.6-1.6 1-.7.3-1.7.6-2.8.4-1.1-.1-2.3-.7-3.2-1.6-1-.9-1.8-2.1-2.8-3.1-1-1.1-2.2-2.1-3.5-2.9-1.4-.8-3-1.3-4.6-1.3h-1.7c-.1 0-.2 0-.3-.1-.1 0-.1-.1-.1-.2v-.2c.1-.4.3-.5.5-.6.7-.6 1.4-1 2.2-1.4 1.6-.8 3.2-1.4 4.9-1.8 1.7-.4 3.4-.6 5-.4 1.6.1 3.2.5 4.6 1.2 1.4.7 2.5 1.6 3.3 2.6.9 1 1.5 2.1 1.7 3.2.3 1 .3 2 0 2.8-.2.7-.6 1.3-.8 1.6-.3.3-.4.5-.4.5l-.4.3zm.6-1c0-.1 0-.1 0 0 .3-.4.6-.9.8-1.6.2-.7.2-1.6-.1-2.6-.3-1-.8-2-1.7-3-.9-.9-1.9-1.8-3.2-2.5-1.3-.7-2.8-1.1-4.4-1.2-3.2-.2-6.6.6-9.6 2.2-.7.4-1.5.8-2.1 1.4-.1.1-.3.3-.3.4v-.1h1.5c1.7 0 3.4.5 4.9 1.4 1.4.9 2.6 1.9 3.6 3s1.8 2.2 2.8 3.1c.9.8 2 1.4 3 1.5 1 .1 1.9-.1 2.5-.3.7-.3 1.2-.6 1.5-.8.3-.2.5-.4.5-.4l.3-.5z"/><path fill="#D8DEE4" d="M215 26.1s11.1 2 15.4 9.3"/><path fill="#4F758E" d="M215 26.1s1.1.2 2.8.7c.8.2 1.8.5 2.8.9l1.5.6c.5.2 1 .5 1.6.8l1.5.9c.5.3 1 .6 1.4 1 .4.4.9.6 1.2 1 .3.4.7.7 1 1 .3.3.5.7.7.9.2.3.4.6.5.8.2.4.4.7.4.7s-.2-.2-.5-.6c-.2-.2-.3-.4-.6-.7-.2-.3-.5-.5-.8-.8-.3-.3-.7-.6-1-.9-.3-.3-.8-.6-1.2-1-.4-.3-.9-.6-1.3-1-.5-.3-1-.6-1.4-.9-.5-.3-1-.6-1.5-.8-.5-.2-1-.5-1.5-.7-1-.4-1.9-.8-2.8-1-1.7-.6-2.8-.9-2.8-.9z"/><path fill="#D8DEE4" d="M222 25.3l1.2 3.7"/><path fill="#4F758E" d="M222 25.3l.8 1.8c.1.2.2.4.3.7.1.2.1.4.1.6v.6s-.2-.2-.3-.5c-.1-.2-.2-.4-.2-.6-.1-.2-.1-.5-.2-.7-.3-.9-.5-1.9-.5-1.9z"/><g><path fill="#D8DEE4" d="M217.5 29.2l2.9-1.4"/><path fill="#4F758E" d="M217.5 29.2s.7-.5 1.4-.9c.2-.1.3-.2.5-.3.2-.1.3-.1.5-.2.3-.1.5-.1.5-.1s-.1.2-.4.4c-.1.1-.3.2-.4.3-.2.1-.4.1-.6.2-.7.4-1.5.6-1.5.6z"/></g><g><path fill="#D8DEE4" d="M221.1 32.4l4.3-2.1"/><path fill="#4F758E" d="M221.1 32.4s1-.6 2.1-1.2c.3-.2.5-.3.8-.4.3-.1.5-.2.7-.3l.8-.2s-.2.2-.6.5c-.2.1-.4.3-.7.4-.3.1-.5.2-.8.3-1.1.5-2.3.9-2.3.9z"/></g></g><g opacity=".35"><path fill="#D8DEE4" d="M14.9 105.7s.1-4.3-5-3.7c-4.7.5-6.7-.5-8.4-2.5C.2 98 2.6 110 11 109.2c.1-.1 3.8-.4 3.9-3.5z"/><path fill="#4F758E" d="M14.8 106.1v-.4s0-.1-.1-.4c0-.3-.1-.6-.3-1.1-.2-.4-.5-.9-1.1-1.3-.5-.4-1.3-.7-2.1-.7-.8-.1-1.8.1-2.8.1-1 0-2.1 0-3.2-.3s-2.2-.8-3.1-1.7l-.6-.6-.1-.1-.1-.1c.1 0 .1 0 .1-.1v.3c0 .5.2 1.1.4 1.7.7 2.2 2 4.2 3.6 5.6.8.7 1.7 1.2 2.7 1.5.9.3 1.9.4 2.7.3.8 0 1.6-.3 2.2-.6.6-.3 1-.8 1.3-1.2.3-.3.4-.7.5-.9zm.2-1v1c0 .3-.1.7-.4 1.2-.2.5-.7 1-1.4 1.4-.6.4-1.5.7-2.4.7-.9.1-1.9 0-2.9-.3s-2-.9-2.8-1.6c-1.7-1.5-3-3.6-3.7-5.9-.2-.6-.3-1.1-.4-1.8 0-.2 0-.3.1-.6l.1-.1h.2c.1 0 .2.1.2.1l.1.1.1.1.6.6c.8.8 1.8 1.3 2.8 1.6 1 .2 2.1.3 3.1.3s1.9-.2 2.9-.1c.9.1 1.8.3 2.4.8.6.5 1 1.1 1.2 1.6.1.2.2.6.2.9z"/><path fill="#D8DEE4" d="M5.2 103.7s6.3 4.3 11.9 2.9"/><path fill="#4F758E" d="M5.2 103.7s.7.4 1.7.9c.5.2 1.2.5 1.8.8.7.3 1.4.5 2.2.7.4.1.8.2 1.1.2.4 0 .7.1 1.1.2.4 0 .7.1 1 .1.3 0 .6.1.9 0h.8c.2 0 .4 0 .6-.1h.5s-.2.1-.5.2c-.2 0-.4.1-.6.2-.2 0-.5.1-.8.1h-1c-.3 0-.7 0-1.1-.1-.4 0-.7-.1-1.1-.2-.4-.1-.8-.2-1.1-.3-.8-.2-1.5-.5-2.2-.8-.7-.3-1.3-.6-1.8-.9-.9-.5-1.5-.9-1.5-1z"/><path fill="#D8DEE4" d="M8.2 107.5l2.3-1.2"/><path fill="#4F758E" d="M8.2 107.5s.5-.4 1.1-.8c.1-.1.3-.2.4-.3.1-.1.3-.1.4-.1.3-.1.4 0 .4 0s-.1.2-.3.3c-.1.1-.2.2-.3.2-.1.1-.3.1-.5.2-.6.3-1.2.5-1.2.5z"/><g><path fill="#D8DEE4" d="M7.9 103.4l.7 2.1"/><path fill="#4F758E" d="M7.9 103.4s.3.5.5 1c.1.1.1.2.2.4 0 .1.1.2.1.4v.4l-.3-.3c-.1-.1-.1-.2-.2-.3 0-.1-.1-.3-.1-.4-.2-.6-.3-1.2-.2-1.2z"/></g><g><path fill="#D8DEE4" d="M11.2 103.6l1 3.1"/><path fill="#4F758E" d="M11.2 103.6s.4.7.7 1.5c.1.2.2.4.3.5.1.2.1.4.1.5v.5s-.2-.2-.3-.4c-.1-.1-.2-.3-.2-.5-.1-.2-.1-.4-.1-.6-.4-.7-.6-1.5-.5-1.5z"/></g></g><g opacity=".35"><path fill="#D8DEE4" d="M135.7 94s.1-5-5.8-4.4c-5.5.6-7.8-.6-9.7-2.9-1.5-1.8 1.3 12.2 11.1 11.3 0 0 4.2-.3 4.4-4z"/><path fill="#4F758E" d="M135.6 94.4V94s0-.2-.1-.5-.2-.8-.4-1.3-.6-1.1-1.2-1.6-1.5-.8-2.5-.8c-1-.1-2.1.1-3.3.1-1.2 0-2.5 0-3.7-.3-1.3-.3-2.5-1-3.5-2-.2-.2-.5-.5-.7-.8l-.1-.1-.1-.1s.1 0 .1-.1v.4c0 .6.2 1.3.4 1.9.8 2.6 2.3 5 4.2 6.6 1 .8 2 1.4 3.1 1.8 1.1.4 2.2.5 3.2.4 1 0 1.9-.3 2.6-.7.7-.4 1.2-.9 1.5-1.4.3-.3.4-.7.5-1.1zm.2-1l-.1.6v.5c0 .3-.1.8-.4 1.4-.3.6-.8 1.1-1.6 1.6-.7.4-1.7.8-2.8.8-1 .1-2.2 0-3.4-.4-1.2-.4-2.3-1-3.3-1.9-2-1.7-3.5-4.2-4.3-6.8-.2-.7-.4-1.3-.4-2.1 0-.2 0-.3.1-.7l.1-.1h.2c.1 0 .2.1.2.1l.1.1.1.1c.2.3.4.5.7.7.9.9 2.1 1.5 3.3 1.8 1.2.3 2.4.4 3.6.3 1.1 0 2.3-.2 3.3-.1 1.1.1 2 .4 2.7.9.7.5 1.1 1.2 1.4 1.8.4.6.5 1 .5 1.4z"/><path fill="#D8DEE4" d="M124.4 91.7s7.9 5 14.3 3.3"/><path fill="#4F758E" d="M124.4 91.7s.8.5 2.1 1.1c.6.3 1.4.6 2.2.9.4.2.8.3 1.3.4.4.1.9.3 1.3.4.5.1.9.2 1.4.3.5.1.9.2 1.3.2s.8.1 1.2.1c.4 0 .8.1 1.1 0h1c.3 0 .5-.1.7-.1.4 0 .6-.1.6-.1s-.2.1-.6.2c-.2.1-.4.1-.7.2-.3 0-.6.1-1 .1h-1.2c-.4 0-.8-.1-1.3-.1-.9-.1-1.8-.3-2.7-.6-.5-.2-.9-.3-1.3-.4-.4-.2-.9-.3-1.3-.5-.8-.3-1.6-.7-2.2-1-1.1-.6-1.9-1.1-1.9-1.1z"/><path fill="#D8DEE4" d="M126 94.6l2-1"/><path fill="#4F758E" d="M126 94.5s.4-.3.9-.6c.1-.1.2-.2.3-.2.1-.1.2-.1.3-.1h.4s-.1.2-.2.3c-.1.1-.2.2-.3.2-.1.1-.3.1-.4.1-.4.2-.9.4-1 .3z"/><g><path fill="#D8DEE4" d="M129.8 91.7l.6 2.8"/><path fill="#4F758E" d="M129.8 91.7s.3.7.5 1.3c.1.2.1.3.2.5v.5c0 .3-.1.5-.1.5s-.1-.1-.3-.4c-.1-.1-.1-.3-.2-.4 0-.2 0-.3-.1-.5v-1.5z"/></g><g><path fill="#D8DEE4" d="M130.1 96.7l2.5-1.5"/><path fill="#4F758E" d="M130.1 96.6s.6-.5 1.1-.9c.1-.1.3-.2.4-.3.1-.1.3-.1.4-.2.3-.1.5-.1.5-.1s-.1.2-.3.4c-.1.1-.2.2-.4.3-.1.1-.3.1-.5.2-.5.4-1.2.7-1.2.6z"/></g></g><g opacity=".35"><path fill="#D8DEE4" d="M42.3 74.3s-3.9.3-3.6-6.2c0 0 5.7 2.9 3.6 6.2z"/><path fill="#4F758E" d="M42.3 74.3c-.7 0-1.4-.2-1.9-.6-.1-.1-.3-.2-.4-.3l-.3-.4c-.1-.1-.2-.3-.3-.4-.1-.1-.2-.3-.2-.5-.2-.3-.2-.6-.3-1l-.1-.5c0-.2-.1-.3-.1-.5 0-.3-.1-.7-.1-1v-1.3l.3.1c.6.3 1.2.7 1.7 1.1.3.2.5.4.8.7.2.2.5.5.7.8.1.1.2.3.3.4.1.2.2.3.3.5l.2.5c.1.2.1.4.1.5v.5c0 .2 0 .3-.1.5s-.1.3-.2.5l-.4.4zm0-.1l.2-.5c.1-.1.1-.3.1-.5s.1-.3 0-.5c0-.2 0-.3-.1-.5 0-.2-.1-.3-.1-.5l-.2-.4c-.1-.1-.2-.3-.3-.4-.1-.1-.2-.3-.3-.4-.2-.3-.4-.5-.7-.7-.2-.2-.5-.4-.7-.6-.5-.4-1.1-.8-1.6-1.1l.3-.2v2c0 .2 0 .3.1.5l.1.5c.1.3.1.6.3.9.1.1.1.3.2.5.1.1.2.3.2.4l.3.4c.1.1.2.2.4.3.5.6 1.1.8 1.8.8z"/><path fill="#D8DEE4" d="M42.7 74.1s-2.2-3.3 3.7-6.2c0 .1.2 6.4-3.7 6.2z"/><path fill="#4F758E" d="M42.7 74.1c-.4-.6-.5-1.3-.4-2 0-.2.1-.3.1-.5l.2-.5c.1-.2.2-.3.2-.5.1-.2.2-.3.3-.4.2-.3.5-.5.7-.8l.4-.3c.1-.1.3-.2.4-.3l.9-.6.9-.5.3-.2v.3c0 .7 0 1.4-.1 2-.1.3-.1.7-.2 1-.1.3-.2.7-.3 1-.1.2-.1.3-.2.5-.1.1-.2.3-.3.4l-.3.4c-.1.1-.3.2-.4.3-.1.1-.3.2-.5.3-.2.1-.3.1-.5.2-.2 0-.3.1-.5.1l-.7.1zm0 0l.5-.1c.2 0 .3-.1.5-.1.2-.1.3-.1.4-.2.1-.1.3-.2.4-.3l.3-.3.3-.4c.1-.1.2-.3.2-.4.1-.1.1-.3.2-.4l.3-.9c.1-.3.2-.6.2-1 .1-.6.2-1.3.2-2l.3.2-.9.5c-.3.2-.6.3-.8.5-.1.1-.3.2-.4.3l-.4.2c-.2.2-.5.4-.7.7-.1.1-.2.2-.3.4-.1.1-.2.3-.2.4l-.2.5c0 .2-.1.3-.1.5-.2.6-.1 1.3.2 1.9z"/><path fill="#D8DEE4" d="M42.1 74.5s-2.2-3.3-7.1 1c0 .1 5.8 2.7 7.1-1z"/><path fill="#4F758E" d="M42.1 74.5c-.4-.5-1-.9-1.6-1-.2 0-.3 0-.5-.1h-.5c-.2 0-.3 0-.5.1-.2 0-.3.1-.5.1-.3.1-.6.2-.9.4l-.4.2c-.1.1-.3.2-.4.3-.3.2-.5.4-.8.6l-.8.6v-.3c.6.2 1.2.4 1.9.6.3.1.6.1 1 .2.3 0 .6.1 1 .1h1l.5-.1c.1 0 .3-.1.4-.2.2 0 .3-.2.4-.2.1-.1.2-.2.4-.3.1-.1.2-.2.3-.4v-.6zm0 0l-.2.5c0 .2-.2.3-.3.4-.1.1-.2.3-.3.4-.1.1-.3.3-.4.3-.2.1-.3.2-.5.2l-.5.2c-.2 0-.3.1-.5.1h-.5c-.3 0-.7 0-1-.1-.3 0-.7-.1-1-.2-.7-.2-1.3-.4-1.9-.7l-.3-.1.2-.2.8-.6.9-.6c.1-.1.3-.2.5-.2l.5-.2c.3-.1.6-.3 1-.3.2 0 .3-.1.5-.1h1c.2 0 .3.1.5.1.5.2 1.1.6 1.5 1.1z"/><g><path fill="#D8DEE4" d="M42.3 74.3s3.4 2.1-.8 7.1c0 0-2.8-5.7.8-7.1z"/><path fill="#4F758E" d="M42.3 74.2c.6.4 1 1 1.2 1.6.1.2.1.3.1.5v1c0 .2-.1.3-.1.5-.1.3-.2.7-.3 1l-.2.6c-.1.2-.1.3-.2.5-.2.3-.3.6-.5.9l-.6.8-.2.3-.1-.3c-.3-.6-.6-1.2-.8-1.9-.1-.3-.2-.7-.2-1-.1-.3-.1-.7-.1-1v-.5c0-.2 0-.3.1-.5l.1-.5c.1-.2.2-.3.2-.5.1-.2.2-.3.3-.4.1-.1.2-.3.4-.4.1-.1.3-.2.4-.3l.5-.4zm0 .1l-.4.3c-.1.1-.3.2-.4.3-.1.1-.2.2-.3.4-.1.1-.2.3-.2.4 0 .2-.1.3-.2.4l-.1.5v1c0 .3.1.6.1 1 .1.3.1.6.2 1 .2.6.4 1.3.6 1.9h-.3l.6-.8c.2-.3.4-.6.6-.8.1-.1.2-.3.2-.4l.2-.4c.1-.3.3-.6.3-.9 0-.2.1-.3.1-.5s0-.3.1-.5v-.5c0-.2 0-.3-.1-.5-.1-.9-.5-1.5-1-1.9z"/></g><g><path fill="#D8DEE4" d="M42.3 74.2s.6 3.9 6.9 2c0 .1-4.2-4.7-6.9-2z"/><path fill="#4F758E" d="M42.3 74.2c.2.6.6 1.2 1.1 1.6.1.1.3.2.4.3l.4.2c.2.1.3.1.5.1.2.1.3.1.5.1.3.1.7 0 1 .1h.5c.2 0 .3 0 .5-.1.3-.1.7-.1 1-.2l1-.3-.2.4c-.4-.5-.9-.9-1.5-1.3-.3-.2-.5-.4-.8-.6-.3-.2-.6-.3-.8-.5-.1-.1-.3-.2-.4-.2-.2-.1-.3-.1-.5-.2l-.5-.1H44c-.2 0-.3 0-.5.1-.2 0-.3.1-.5.1-.1.1-.3.1-.4.2l-.3.3zm0 0l.4-.4c.1-.1.3-.2.4-.3.2-.1.3-.2.5-.2s.3-.1.5-.1h.5l.5.1c.2 0 .3.1.5.1s.3.1.5.2c.3.1.6.3.9.5.3.2.6.4.8.6.5.4 1 .9 1.5 1.4l.2.2-.3.1-1 .2c-.3.1-.7.1-1 .2h-1c-.3 0-.7 0-1-.1-.2 0-.3-.1-.5-.1-.2-.1-.3-.1-.5-.2l-.5-.2c-.1-.1-.3-.2-.4-.3-.5-.4-.9-1-1-1.7z"/></g><ellipse transform="rotate(-71.505 42.06 73.983)" fill="#005184" cx="42.1" cy="74" rx="1.2" ry="1.2"/></g><g opacity=".35"><path fill="#D8DEE4" d="M15.6 138.3s1.8-2.7 5.8.7c0 .1-4.7 2.3-5.8-.7z"/><path fill="#4F758E" d="M15.5 138.3c.3-.5.8-.8 1.3-1 .3-.1.6-.1.8-.1h.4c.1 0 .3.1.4.1.3 0 .5.2.8.3.3.1.5.2.8.4.2.2.5.3.7.5l.7.5.3.2-.3.2c-.5.3-1 .5-1.6.6-.3.1-.6.1-.8.2-.3 0-.6.1-.9.1h-.4c-.1 0-.3 0-.4-.1l-.4-.1c-.1-.1-.3-.1-.4-.2l-.3-.3-.3-.3c-.1-.1-.2-.2-.2-.4l-.2-.6zm.1 0l.2.3.3.3c.1.1.2.2.3.2.1.1.2.2.3.2.1 0 .2.1.4.1l.4.1h.8c.5 0 1-.1 1.6-.2.5-.1 1-.3 1.5-.5v.3l-.6-.5c-.2-.2-.4-.3-.7-.5-.2-.1-.5-.3-.7-.4-.3-.1-.5-.2-.8-.3-.1 0-.3-.1-.4-.1-.1 0-.3 0-.4-.1-.3 0-.5 0-.8.1-.6.3-1.1.6-1.4 1z"/><path fill="#D8DEE4" d="M15.5 138.7s3.2.2 2.2 5.5c-.1-.1-4.3-3.1-2.2-5.5z"/><path fill="#4F758E" d="M15.5 138.6c.6.1 1.1.3 1.5.7.2.2.4.4.5.7.1.1.1.3.2.4.1.1.1.3.1.4.1.3.1.6.2.8v.8c0 .3 0 .6-.1.8l-.1.8v.3l-.3-.2c-.5-.3-.9-.7-1.3-1.1l-.6-.6c-.2-.2-.3-.5-.5-.7-.1-.1-.1-.3-.2-.4-.1-.1-.1-.3-.2-.4l-.1-.4v-.4c0-.1 0-.3.1-.4 0-.1.1-.3.1-.4.1-.1.1-.3.2-.4l.5-.3zm0 .1l-.2.3c-.1.1-.1.2-.1.4 0 .1-.1.2-.1.4v.4c0 .1 0 .3.1.4l.1.4c0 .1.1.2.2.4 0 .1.1.2.2.3.3.4.6.9 1 1.2.4.4.8.8 1.2 1.1l-.3.1.1-.8c0-.3.1-.5.1-.8v-.8c0-.3 0-.5-.1-.8 0-.1 0-.3-.1-.4-.1-.1-.1-.3-.1-.4-.1-.2-.3-.5-.4-.7-.6-.3-1.1-.6-1.6-.7z"/><path fill="#D8DEE4" d="M15.5 138s3.2.2 2.9-5.1c0 0-4.6 2.5-2.9 5.1z"/><path fill="#4F758E" d="M15.5 138c.5 0 1.1-.2 1.5-.6.2-.2.4-.4.5-.6.1-.1.1-.2.2-.3.1-.1.1-.2.2-.4s.1-.5.2-.8c0-.3.1-.5.1-.8v-1.6l.3.2c-.4.3-.9.6-1.3 1-.4.3-.8.7-1.1 1.1-.1.1-.2.2-.2.3-.1.1-.1.2-.2.3l-.2.3c0 .1-.1.2-.1.4-.1.1 0 .3 0 .4v.4c0 .1 0 .3.1.4v.3zm0 .1l-.2-.4c-.1-.1-.1-.3-.2-.4 0-.1-.1-.3-.1-.4v-.4c0-.1 0-.3.1-.4l.1-.4c.1-.1.1-.3.2-.4.1-.1.2-.2.2-.4l.6-.6.6-.6c.4-.3.9-.7 1.4-.9l.3-.1v1.1c0 .3 0 .6-.1.8 0 .3-.1.6-.1.8-.1.3-.1.5-.3.8-.1.1-.1.3-.2.4-.1.1-.1.2-.2.4l-.6.6c-.4.3-.9.5-1.5.5z"/><g><path fill="#D8DEE4" d="M15.6 138.3s-3 1.1-4.3-4.1c0 0 5.1 1 4.3 4.1z"/><path fill="#4F758E" d="M15.6 138.3c-.5.2-1.1.2-1.7 0-.3-.1-.5-.2-.8-.4l-.3-.3-.3-.3c-.2-.2-.3-.5-.5-.7-.1-.2-.3-.5-.4-.8-.1-.3-.2-.5-.3-.8l-.2-.8-.1-.2h.3c.6.1 1.1.2 1.6.4.3.1.5.2.8.4.2.1.5.3.7.5l.3.3.3.3.3.4c.1.1.1.3.2.4.1.1.1.3.1.4V138.3zm0 0v-.4-.4c0-.1 0-.3-.1-.4-.1-.1-.1-.2-.2-.3-.1-.1-.1-.2-.2-.3l-.3-.3-.3-.3c-.1-.1-.2-.1-.3-.2-.4-.3-.9-.5-1.4-.7-.5-.2-1-.4-1.5-.5l.2-.2.2.8c.1.3.2.5.3.8.1.3.2.5.3.7.1.2.3.5.4.7l.3.3.3.3c.2.2.4.3.7.4.5.1 1 .1 1.6 0z"/></g><g><path fill="#D8DEE4" d="M15.6 138.3s-2.9-1.5-4.7 3.5c-.1 0 5.1-.3 4.7-3.5z"/><path fill="#4F758E" d="M15.6 138.4c-.5-.2-1.1-.2-1.6-.1-.3.1-.5.2-.7.3-.1.1-.2.2-.3.2l-.3.3c-.2.2-.3.4-.5.6-.1.2-.3.5-.4.7-.1.2-.2.5-.4.7l-.3.8-.2-.3c.5-.1 1.1-.2 1.6-.3.5-.1 1-.3 1.5-.5.1-.1.2-.1.3-.2.1-.1.2-.1.3-.2l.3-.3c.1-.1.2-.2.2-.3.1-.1.1-.2.2-.3.1-.1.1-.2.1-.4 0-.1.1-.3.1-.4l.1-.3zm0-.1l.1.4v.4c0 .1 0 .3-.1.4-.1.1-.1.3-.2.4-.1.1-.2.3-.2.4l-.3.3-.3.3c-.1.1-.2.2-.4.2-.3.1-.5.3-.8.4-.3.1-.5.2-.8.3-.6.1-1.1.2-1.7.2h-.3l.1-.3.3-.7c.1-.3.3-.5.4-.7.1-.2.3-.5.5-.7l.6-.6.3-.3c.1-.1.2-.2.4-.2.3-.1.5-.2.8-.3.5-.2 1.1-.1 1.6.1z"/></g><ellipse transform="rotate(-34.178 15.87 138.284)" fill="#204A69" cx="15.9" cy="138.3" rx=".9" ry=".9"/></g><path fill="#46799A" d="M120 155.3l-23.7.1 35.7-37.2s11.7-13.9 23.3-.9l-35.3 38z"/><path fill="#204A69" d="M149.8 17.1s-3.1 14.3 2.5 23.7l6.3-1.2-5.8-17.7-3-4.8z"/><path fill="#BBC9D5" d="M163.4 131s30.1 8.1 48.4 1.6c0 0-2.5-10.6-2.7-37.7l5.8-.1c-.5-44.7-30.8-45.5-30.8-45.5L164 62c-15.3 10.4-14.4 32.7-14.4 32.7l13.7-.3s-.4.7 1.6 3.6c2.1 2.9 2.5 17.8-1.5 33z"/><path fill="#CCCED0" d="M183.3 41c3.5-5.5 3.6-13.3-.3-20.2-5.3-9.2-16-13-23.9-8.5-7.9 4.5-9.9 15.7-4.6 24.9 4.1 7.1 11.4 11 18.1 10.3-.4 6.5-3.1 14.4-3.1 14.4l11 6.3 9.9-18.7c-3.3-.8-5.7-5.1-7.1-8.5z"/><ellipse transform="rotate(-19.248 154.675 32.777)" fill="#204A69" cx="154.7" cy="32.8" rx="1" ry="1.6"/><ellipse transform="rotate(-19.248 163.64 30.887)" fill="#204A69" cx="163.6" cy="30.9" rx="1" ry="1.6"/><path fill="#FFF" d="M169 59.9c1 .7 1.8 1.6 2.6 2.5l2.5 2.6 5 5.3-1.1.1c1.7-3.1 3.4-6.2 5.2-9.2 1.8-3 3.4-6.2 5.5-9 .1-.1.2-.1.3 0 .1.1.1.2.1.2-1.3 3.3-3.1 6.3-4.7 9.4-1.7 3.1-3.4 6.2-5.1 9.2-.2.3-.6.4-.9.3-.1 0-.1-.1-.2-.1l-4.9-5.3-2.5-2.7c-.8-.9-1.7-1.8-2.3-2.8-.1-.2-.1-.5.1-.6 0 0 .2 0 .4.1z"/><path fill="#204A69" d="M149.5 26.1s-2.9-18 12.1-23.6c15.1-5.6 25.6 8.5 27 18.2 2.1 14.8 7.8 20.9 14.8 25.3 7.1 4.4 3.2 16.6 3.2 16.6s-3.6-4.6-15-8.9c-.6-.2-3.1-1.3-4.2-2.2-4.9-4.1-6.9-7.4-7-16.6 0 0 3.7-2.4 2.4-7.7 0 0-12.7 8.3-26.7-10.7 0-.1-.8 5.7-6.6 9.6z"/><path fill="#204A69" d="M155.4 28.6s-.1.1-.2.1h-.5c-.2 0-.4 0-.7.1-.3 0-.5.1-.8.2-.2.1-.5.2-.7.3-.2.1-.4.3-.5.4-.2.1-.3.2-.4.3-.1.1-.2.1-.2.1-.1 0-.2 0-.3-.1v-.3c0-.2.1-.4.2-.6l.3-.3c.1-.1.2-.2.4-.3.3-.2.6-.4.9-.5.6-.3 1.3-.3 1.8-.3.2 0 .5 0 .6.1l.2.2c.1.1.1.4-.1.6zM159.4 33.6s.2.3.4.7c.2.4.5 1 .7 1.5.2.6.5 1.1.6 1.6.1.4.2.7.2.7 0 .2-.1.4-.3.4-.1 0-.3 0-.3-.1 0 0-.2-.3-.4-.7-.2-.4-.5-1-.7-1.5-.2-.6-.4-1.1-.6-1.6-.1-.4-.2-.7-.2-.7 0-.2.1-.4.2-.4.1-.1.3 0 .4.1zM159.4 26.7s0-.2.1-.3c.1-.1.3-.3.6-.4.5-.3 1.2-.6 1.9-.6h1.1c.3 0 .6.1.9.2.3.1.4.2.6.3l.2.2c.1.1.1.2 0 .3h-.1s-.1 0-.3.1h-.6c-.2 0-.5-.1-.8-.1h-.9c-.3 0-.6.1-.9.2-.3.1-.5.2-.7.3-.2.1-.3.2-.5.3h-.2c-.1.1-.3.1-.5 0s0-.4.1-.5z"/><path fill="#969CA1" d="M119.1 38.6c-.1-.3 0-.4.3-.4l22.7 5.2c.3.1.7 0 .9-.2l3.8-3.2c.2-.2.6-.4.9-.4l24.8-5.2c.3-.1.6.1.7.4l14.2 35.4c.1.3 0 .5-.3.6l-23.5 3c-.3 0-.7.2-.9.5l-3.1 3.3c-.2.2-.6.4-.9.3L135.3 74c-.3 0-.6-.3-.7-.6l-15.5-34.8z"/><path fill="#204A69" d="M156.7 74.9c-.8-1.2-1.3-2.5-2-3.8l-1.8-3.9-3.6-7.8-3.6-7.8-1.8-3.9c-.3-.7-.6-1.3-.9-2-.3-.7-.6-1.3-.9-2-.1-.2 0-.3.1-.5 1-.8 2-1.6 3.1-2.3.1-.1.2 0 .2 0v.2c-.9.9-1.8 1.8-2.8 2.7l.1-.5c.3.6.6 1.3 1 1.9.3.6.6 1.3.9 1.9l1.8 3.9 3.6 7.8 3.6 7.8 1.8 3.9c.6 1.3 1.2 2.6 1.6 4 .1.2 0 .4-.2.4 0 .2-.1.1-.2 0zM161.6 71.2s-.3-.4-.7-1.1c-.4-.7-1-1.7-1.6-3-.3-.6-.7-1.3-1-2.1-.3-.7-.6-1.5-.9-2.4-.3-.8-.7-1.7-1-2.5-.4-.8-.8-1.7-1.3-2.5s-.9-1.6-1.3-2.5l-1.2-2.4c-.8-1.6-1.4-3.1-2-4.4-.5-1.3-.9-2.4-1.2-3.2-.3-.8-.4-1.2-.4-1.2v-.1h.1s.3.4.7 1.1c.4.7 1 1.7 1.7 3 .7 1.2 1.4 2.7 2.1 4.3.4.8.7 1.6 1.1 2.5.4.9.7 1.7 1 2.6.3.9.7 1.8 1.1 2.6.4.8.8 1.6 1.3 2.4.4.8.9 1.5 1.2 2.2.4.7.7 1.4 1 2.1.6 1.3 1 2.4 1.3 3.2 0 .9.1 1.4 0 1.4.1 0 .1 0 0 0 .1 0 .1 0 0 0zM157.8 47.7c.4.8.9 1.7 1.3 2.5.4.9.9 1.7 1.3 2.6l-.5-.3 3.3-.8 1.6-.4c.5-.1 1.1-.2 1.6-.4l6.6-1.4-.6 1.2c-.2-.5-.4-1-.6-1.4l-.6-1.5L170 45l.9.5c-1.1.2-2.2.5-3.3.7l-3.3.6-3.3.6c-1 0-2.1.2-3.2.3zm-.1 0l13-3.1s.1 0 .1.1l2.4 5.8s0 .1-.1.1l-13.2 2.5h-.1l-2.1-5.4z"/><path fill="#7C848B" d="M142.2 42.5c-.9-.1-1.7-.4-2.6-.7l-2.5-.8-5.1-1.7-5-1.7c-1.7-.6-3.4-1.1-5-1.8l.5-.1c-.4.4-.9.7-1.3 1.1-.4.4-.9.7-1.4 1l-.2-.2c.4-.4.7-.9 1.1-1.3l1.2-1.2.2-.2.3.1c1.7.5 3.4 1.1 5.1 1.6l5.1 1.7 5 1.7 2.5.9c.8.3 1.7.5 2.5 1l-.4.6zM143.4 41.5c-.8-.2-1.5-.6-2.2-1l-2.1-1.1-4.2-2.2-4.2-2.3c-1.4-.8-2.8-1.5-4.2-2.3l.7-.4c0 .6-.1 1.2-.2 1.7-.1.6-.2 1.2-.3 1.7h-.3c-.1-.6-.1-1.2-.1-1.7v-2.4l.7.3c1.4.7 2.8 1.5 4.2 2.2l4.2 2.2 4.2 2.3 2.1 1.1c.7.4 1.4.7 2 1.3l-.3.6zM131.1 29.9s.3.1.7.3c.4.2.9.7 1.6 1.1 1.3.9 3.1 2.2 4.8 3.4.9.6 1.7 1.3 2.5 1.9.8.6 1.6 1.2 2.2 1.7 1.3 1 2 1.8 2 1.8l-.2.3s-1-.4-2.4-1.3c-.7-.4-1.4-1-2.3-1.6-.8-.6-1.7-1.2-2.6-1.8-1.8-1.3-3.5-2.5-4.8-3.5-.6-.5-1.2-.9-1.6-1.2-.4-.3-.5-.6-.5-.6l.6-.5z"/><path fill="#46799A" d="M211 127.4s7 20.2-8.6 28.7-50.7-19.9-50.7-19.9L125.6 156l-21.4-.4 35.7-35.5s9-10.5 19-4.1c16.4 10.4 52.1 11.4 52.1 11.4z"/><path fill="#204A69" d="M103.8 155.4c3.1-3.3 6.4-6.4 9.6-9.6l9.7-9.5 19.4-18.9-.1.1c1.1-1.2 2.4-2.1 3.8-2.8 1.4-.7 3-1.1 4.5-1.2 1.6-.1 3.1.1 4.6.5 1.5.4 2.9 1 4.3 1.7s2.6 1.5 3.9 2.2c1.3.6 2.7 1.2 4 1.7 2.7 1 5.6 1.9 8.4 2.6 2.9.7 5.7 1.4 8.6 1.9l8.7 1.5c2.9.4 5.9.8 8.8 1.1 2.9.3 5.9.6 8.8.7.1 0 .2.1.2.2s-.1.2-.2.2c-3 .1-6 0-8.9-.2-3-.2-5.9-.5-8.9-.9-2.9-.4-5.9-.8-8.8-1.3-2.9-.5-5.8-1.2-8.7-1.9-2.9-.7-5.8-1.6-8.6-2.6-1.4-.5-2.8-1.1-4.1-1.8-1.4-.7-2.6-1.5-3.9-2.2-2.5-1.3-5.4-2.2-8.2-2-1.4.1-2.8.5-4 1.1-1.2.6-2.5 1.5-3.3 2.4L124 137.2l-9.7 9.4c-3.3 3.1-6.5 6.3-9.9 9.3-.2.1-.4.1-.6 0-.2-.2-.2-.4 0-.5z"/><path fill="#204A69" d="M126.4 155.2l.3-.3.9-.9c.8-.7 2-1.6 3.4-2.8 1.4-1.1 3-2.5 4.8-3.9 1.8-1.4 3.6-2.9 5.5-4.4 1.9-1.5 3.8-3 5.5-4.4 1.8-1.4 3.4-2.7 4.8-3.8 1.4-1.1 2.7-2 3.5-2.6.9-.6 1.4-.9 1.4-.9.1-.1.2 0 .3.1.1.1 0 .2 0 .3l-1.2 1.2c-.8.7-1.9 1.7-3.3 2.9s-3 2.5-4.8 3.9c-1.8 1.4-3.6 2.9-5.5 4.4-1.9 1.5-3.8 3-5.5 4.4-1.8 1.4-3.4 2.7-4.8 3.8-1.4 1.1-2.6 2.1-3.4 2.7-.4.3-.8.5-1 .7l-.4.2c-.2.1-.5 0-.6-.2-.1-.1 0-.3.1-.4z"/><path fill="#204A69" d="M152 135.1s.4.2 1.1.6c.6.4 1.5 1.1 2.6 1.9 2.2 1.6 5.1 3.6 8 5.7 1.5 1 2.9 2 4.3 3 1.4.9 2.7 1.8 3.8 2.5 1.1.7 2 1.4 2.6 1.9.6.5 1 .8 1 .8.1.1.1.2 0 .3-.1.1-.2.1-.2.1s-.4-.2-1.1-.5c-.7-.3-1.7-.8-2.9-1.5s-2.5-1.5-3.9-2.4c-1.4-.9-2.9-1.9-4.4-2.9-1.5-1-2.9-2.1-4.3-3.1-1.3-1-2.6-1.9-3.7-2.7-1.1-.8-2-1.5-2.6-2-.6-.5-.9-.9-.9-.9-.1-.2-.1-.5.1-.6.3-.2.4-.2.5-.2zM194.9 136s.1 0 .1.1l.3.3c.2.3.5.7.9 1.2s.9 1 1.5 1.6c.6.5 1.2 1.1 1.9 1.6.3.3.7.5 1 .7.3.2.7.4 1 .6.3.2.7.4 1 .5.3.2.6.3.9.4.3.1.5.3.8.4l.6.3c.3.2.5.3.5.3.1.1.1.2 0 .3 0 .1-.1.1-.2.1h-.6c-.2 0-.4 0-.7-.1-.3 0-.6-.1-.9-.2-.3-.1-.7-.2-1-.4-.4-.2-.7-.3-1.1-.5-.4-.2-.8-.4-1.1-.6-.4-.2-.8-.5-1.1-.8-.4-.3-.7-.5-1.1-.8l-.9-.9c-.6-.6-1.1-1.2-1.5-1.7-.4-.5-.7-1-.9-1.4-.1-.2-.1-.3-.2-.5V136.2c0-.3.3-.4.5-.4.1.1.2.1.3.2z"/><path fill="#CCCED0" d="M177 29.6s-.2-4.7 3.3-4.5c3.6.3 4.9 10.3-2.2 11.4l-1.1-6.9zM200.3 103.2l-.1-8.2 14-.1c0 19.9-8.9 20.1-8.9 20.1-21.8 3.4-29.1-34.9-29.1-34.9-11.7-.8-11.1-13.4-11.1-13.4s-.1-2.6 2-3.4c2.3-.8 2.5 1.2 2.5 1.2.9 4.4 7.4 7.5 9 7.3 1.4-.2 1.6-.2 1.6-.2l2.6-.3s.8 2.2-.1 7.2c0 0 .6 3.4 3.5 5.6 4.3 2.9 13.2 6.3 14.1 19.1z"/><path fill="#204A69" d="M180.8 36.1c.2 1.5.5 3 .8 4.4.4 1.4.9 2.9 1.5 4.2 1.2 2.7 3.1 5.1 5.4 6.9 1.2.9 2.5 1.6 3.8 2.2.7.3 1.4.5 2.1.7.7.2 1.5.4 2.2.7 1.5.5 3 1.1 4.3 2 1.4.8 2.6 1.8 3.8 2.8 2.3 2.2 4.1 4.8 5.5 7.6 1.4 2.8 2.3 5.8 3 8.9 1.4 6.1 1.8 12.3 1.9 18.4 0 .4-.3.6-.6.6-2.5 0-5 0-7.5-.1h-1.9c-.6 0-1.3-.1-1.9-.1-1.3-.1-2.5-.1-3.8-.3-.1 0-.2-.1-.2-.2s.1-.2.2-.2c1.3-.1 2.5-.2 3.8-.3.6 0 1.3-.1 1.9-.1h1.9c2.5-.1 5 0 7.5-.1l-.5.9c-.1-6.1-.6-12.2-2-18.1-.7-2.9-1.6-5.8-2.9-8.6-1.3-2.7-3-5.2-5.2-7.3-1.1-1-2.3-1.9-3.5-2.7-1.3-.8-2.7-1.4-4-1.8-.7-.3-1.5-.4-2.2-.7-.8-.2-1.5-.5-2.2-.8-1.5-.6-2.9-1.4-4.1-2.4-2.5-1.9-4.5-4.6-5.8-7.4-.7-1.4-1.2-2.9-1.5-4.5-.3-1.5-.6-3.1-.5-4.7 0-.2.2-.4.4-.4.1.1.3.2.3.5zM169.3 63.2s.1.2.3.5c.1.2.1.4.2.6.1.2.2.5.4.8.1.3.3.6.5.9.2.3.4.6.7.9.2.3.5.6.8.9.3.3.6.6.9.8.3.2.7.5 1 .7.4.2.7.4 1 .6.4.2.7.4 1 .5.3.1.6.3.9.4.3.1.6.3.8.4l.6.3c.3.2.5.3.5.3.1 0 .1.2.1.2 0 .1-.1.1-.1.1h-.6c-.4-.1-1-.1-1.6-.3-.3-.1-.7-.2-1-.4-.4-.2-.7-.3-1.1-.5-.4-.2-.7-.4-1.1-.6-.4-.2-.7-.5-1.1-.8-.3-.3-.7-.6-1-.9-.3-.3-.6-.6-.9-1-.3-.3-.5-.7-.7-1-.2-.3-.4-.7-.5-1-.3-.6-.5-1.2-.6-1.6-.1-.4 0-.7 0-.7 0-.2.1-.4.3-.4.1 0 .3.1.3.3zM183 70.8c.5 1.3.7 2.6.7 3.9 0 .7 0 1.3-.1 2-.1.3-.1.7-.2 1-.1.3-.2.7-.3 1v-.3c.1.6.4 1.2.6 1.7.3.6.6 1.1 1 1.6s.9.9 1.4 1.3c.5.4 1.1.8 1.6 1.1 2.3 1.4 4.7 2.8 6.7 4.7 2 1.9 3.6 4.3 4.6 6.9.5 1.3.9 2.6 1.2 3.9.3 1.3.5 2.7.5 4.1 0 .1-.1.2-.2.2s-.2-.1-.2-.1l-.5-2c-.2-.7-.3-1.3-.5-1.9-.3-1.3-.8-2.5-1.3-3.8-1-2.4-2.5-4.7-4.4-6.5-1.9-1.8-4.3-3.1-6.5-4.6-.6-.4-1.1-.7-1.7-1.2-.6-.4-1.1-.9-1.5-1.5l-1.2-1.8c-.3-.6-.6-1.3-.7-2.1V78.1l.3-.9c.1-.3.1-.6.2-.9.1-.6.1-1.2.1-1.9 0-1.3-.2-2.5-.4-3.8 0-.2.1-.3.3-.4.3.4.5.5.5.6zM166 63.9s.1.1.2.4c.1.2.1.6.2 1 .2.8.6 1.9 1.1 2.8.2.5.5 1 .8 1.4.2.2.3.4.4.6.2.2.3.3.4.5l.4.4.3.3.3.3c.1.1 0 .1 0 .2h-.1s-.1 0-.4-.1c-.1 0-.3-.1-.5-.2s-.3-.2-.5-.3c-.4-.3-.7-.7-1.1-1.1-.2-.2-.3-.5-.5-.7-.1-.3-.3-.5-.4-.8-.3-.5-.5-1.1-.7-1.6-.2-.5-.3-1-.4-1.4-.1-.4-.2-.8-.2-1 0-.3.1-.4.1-.4.1-.2.3-.2.4-.2.1-.2.1-.2.2-.1z"/><path fill="#CCCED0" d="M163.8 96.1l-.9-1.8h-7.3l.3 1.8c-.5-2.5-1-2.7-4.2-7.2-.2-.3-.8-1.4-1.4-2-1.3-1.2-2-2.6-1.5-6.6.5-3.2-.8-3.9-.8-3.9l-2.6-1.2s-6.9-2.7-7-7.3c0-2.4-3.6-2.4-3.6.7 0 0-.9 8.9 7.7 11.6 0 0-.8 33.2 14.4 33.2 0 0 8.8.7 8.8-9.8l-1.9-7.5z"/><path fill="#204A69" d="M156.3 105.5s0-.2.1-.5c0-.2.1-.4.1-.6 0-.2.1-.5.1-.8.1-.3.1-.6.1-.9.1-.3.1-.7.1-1.1 0-.8 0-1.7-.2-2.6-.4-1.9-1.3-4-2.7-6.1-.7-1-1.5-2.1-2.3-3.1-.8-1.1-1.6-2.2-2.3-3.4-.7-1.2-1.2-2.6-1.2-4.1 0-.7.1-1.4.1-2v-1.8c-.1-.6-.2-1.2-.4-1.6-.1-.1-.1-.2-.2-.2l-.2-.1c-.3-.1-.6-.2-.8-.3-1.1-.5-2.1-1-2.9-1.6-1.8-1.1-3-2.4-3.7-3.4-.4-.5-.6-.9-.7-1.2-.1-.3-.2-.5-.2-.5 0-.1 0-.2.1-.2s.2 0 .2.1c0 0 .1.1.3.4.2.3.4.6.8 1.1.4.4.9.9 1.5 1.4.6.5 1.4 1 2.2 1.5.8.5 1.8 1 2.9 1.4.3.1.5.2.8.3l.2.1c.2.1.3.1.4.2.2.2.3.3.4.5.4.7.5 1.3.6 2 .2 1.3 0 2.7 0 3.9 0 1.2.5 2.4 1.1 3.6 1.3 2.3 3.1 4.3 4.5 6.5 1.4 2.1 2.5 4.4 2.8 6.5.2 1 .2 2 .2 2.9 0 .9-.1 1.6-.3 2.2-.1.6-.3 1.1-.4 1.3-.1.3-.2.5-.2.5-.1.2-.3.3-.4.2-.4-.2-.5-.4-.5-.5zM164.2 81.9s-.1.6-.3 1.6c-.2 1-.5 2.5-.6 4.3-.1 1.8.1 3.9.7 6 .2.5.3 1.1.6 1.6.1.3.2.5.3.8l.3.8c.2.5.4 1.2.6 1.8.2.6.3 1.2.4 1.8.2 1.2.4 2.5.5 3.7.1 1.2.2 2.4.2 3.6v3.4c0 1.1-.1 2.1-.2 3-.1.9-.2 1.8-.3 2.5-.1.7-.2 1.4-.4 1.9-.2 1.1-.4 1.7-.4 1.7 0 .1-.1.2-.3.1-.1 0-.2-.1-.2-.2v-.4-1.2c.1-1.1.1-2.6.2-4.4.1-1.8.2-4 .1-6.2 0-1.1-.1-2.3-.2-3.5-.1-1.2-.3-2.4-.5-3.5-.1-.6-.3-1.2-.4-1.7-.2-.6-.3-1.1-.5-1.7l-.3-.8c-.1-.3-.2-.6-.3-.8-.2-.6-.4-1.1-.6-1.7-.7-2.3-.8-4.5-.7-6.4.1-1.9.4-3.5.7-4.5.2-.5.3-.9.5-1.2.1-.3.2-.4.2-.4.1-.2.4-.3.6-.1.2-.2.3-.1.3.1zM135.3 65.6s.1.1.1.4c0 .2 0 .6.1 1 0 .4.1.9.2 1.4.1.5.2 1.1.4 1.6.1.3.2.5.3.8.1.3.2.5.4.7.1.2.3.4.4.6.2.2.3.3.4.5.2.1.3.3.4.4l.3.3.3.3c.1.1.1.1 0 .2h-.1s-.2 0-.4-.1c-.1 0-.3-.1-.5-.2l-.6-.3c-.2-.2-.4-.3-.6-.5-.2-.2-.3-.4-.5-.7-.1-.3-.3-.5-.4-.8-.1-.3-.3-.6-.3-.9-.2-.6-.3-1.2-.4-1.7-.1-.6-.2-1.1-.2-1.5 0-.5-.1-.8 0-1.1 0-.3.1-.4.1-.4.1-.2.3-.2.4-.1.2 0 .2.1.2.1z"/><g><path fill="#FFF" d="M37.9 158.4s11.1-2.6 25.5-5c-.4-.6-1.8-2.4-2.3-3.1 0 0 2.4-.1 5 1.6 0 0-.4-3.8 2.4-7.2 0 0 .7 5.8 1.9 6.9 0 0 1.5-.9 2.7-4 0 0 .5 1.8.4 4.3 14-1.9 22.9-4 35.8-3.7l-.4-2s1.9-.1 2.9 1.5c0 0 .7-3.1 4.6-4.3l-1 4.9c4.7.4 10.4 1.2 16.5 2.4 27.9 5.3 54.3-3 102.3 3.6l.3-2.6 1.9 3.1 3.9-4.6-.9 5c6.3 1 13 2.3 20.1 4"/><path fill="#C8D8E1" d="M37.9 158.3c8.5-2 17-3.6 25.5-5.1l-.1.2-2.3-3.1-.1-.2h.2c.9 0 1.8.2 2.6.5s1.7.7 2.4 1.2l-.2.1c0-.7 0-1.3.1-2 .1-.6.2-1.3.5-1.9.2-.6.5-1.2.8-1.8.1-.3.3-.6.5-.8.2-.3.4-.5.6-.8l.2-.3v.4c.2 1.2.4 2.4.6 3.5.1.6.3 1.2.5 1.7.1.3.2.6.3.8.1.1.1.3.2.4.1.1.2.2.2.3h-.2c.1-.1.3-.2.4-.4l.4-.4c.3-.3.5-.6.7-1 .4-.7.8-1.4 1-2.2l.2-.5.1.5c.2.7.3 1.4.4 2.2.1.7.1 1.5 0 2.2l-.2-.2c6-.8 11.9-1.9 17.8-2.7 1.5-.2 3-.4 4.5-.5 1.5-.2 3-.3 4.5-.4 1.5-.1 3-.2 4.5-.2h4.5l-.3.3-.4-2-.1-.3h.8c.2 0 .3 0 .5.1l.9.3c.6.3 1 .7 1.3 1.2l-.5.1c.1-.3.2-.6.3-.8.1-.3.3-.5.4-.7.3-.5.7-.9 1.1-1.3.4-.4.9-.7 1.4-1 .5-.3 1-.5 1.6-.7l.5-.1-.1.5-1 4.9-.3-.3c5 .4 9.9 1.2 14.8 2.1 1.2.2 2.4.4 3.7.6 1.2.2 2.5.4 3.7.6 2.5.3 4.9.6 7.4.7 2.5.2 4.9.2 7.4.3 2.5 0 5 0 7.4-.1 2.5-.1 5-.1 7.4-.2l7.4-.3 7.4-.2c2.5 0 5-.1 7.5-.1s5-.1 7.5 0c2.5 0 5 0 7.5.2 2.5.1 5 .2 7.4.4 2.5.2 5 .3 7.4.6 2.5.3 5 .4 7.4.8l7.4.9-.3.3.3-2.6.1-.8.4.7 1.8 3.2h-.4l3.9-4.6.5-.6-.1.8-.9 5-.2-.2c6.8 1.1 13.5 2.5 20.1 4.2v.1c-6.7-1.5-13.4-2.8-20.1-3.8h-.2v-.2l.8-5 .4.2-3.9 4.6-.2.3-.2-.3-1.9-3.1.5-.1-.2 2.6v.3h-.3l-7.4-.9c-2.5-.3-4.9-.5-7.4-.7-2.5-.2-4.9-.3-7.4-.5s-5-.2-7.4-.3c-2.5-.1-5-.1-7.4-.2-2.5-.1-5 0-7.4 0-2.5 0-5 .1-7.4.1l-7.4.2c-5 .2-9.9.4-14.9.4-2.5.1-5 0-7.5 0-2.5-.1-5-.1-7.5-.3-2.5-.1-5-.4-7.4-.7-1.2-.2-2.5-.4-3.7-.6-1.2-.2-2.5-.4-3.7-.6-4.9-.9-9.8-1.7-14.7-2.1h-.3l.1-.3 1-4.9.4.3c-.5.2-1 .3-1.5.6-.5.2-.9.6-1.3.9-.4.3-.7.8-1 1.2-.1.2-.3.4-.4.7-.1.2-.2.5-.3.7l-.2.6-.3-.5c-.3-.4-.7-.8-1.1-1.1-.2-.1-.5-.2-.7-.3-.3-.1-.5-.1-.8-.1l.2-.3.4 2 .1.3h-4.8c-1.5 0-3 .1-4.5.2s-3 .2-4.5.4-3 .3-4.5.5c-6 .8-11.9 1.8-17.8 2.6h-.2v-.2-2.1l-.3-2.1h.3c-.3.8-.6 1.5-1.1 2.2-.2.4-.5.7-.7 1-.1.2-.3.3-.4.5-.2.1-.3.3-.5.4l-.1.1-.1-.1c-.1-.1-.2-.3-.3-.4-.1-.1-.2-.3-.2-.4l-.3-.9c-.2-.6-.3-1.2-.5-1.8-.3-1.2-.5-2.4-.6-3.6l.3.1c-.2.3-.4.5-.6.8-.2.3-.4.5-.5.8-.3.6-.6 1.1-.8 1.8-.4 1.2-.6 2.5-.5 3.8v.3l-.2-.1c-.7-.5-1.5-.9-2.3-1.2-.8-.3-1.7-.5-2.6-.5l.1-.2 2.3 3.1.1.1h-.2c-8.5.9-17.1 2.5-25.5 4.3z"/></g><g opacity=".35"><path fill="#D8DEE4" d="M251.9 135.6s.4-6.3 7.7-4.9c6.8 1.3 9.9.1 12.6-2.6 2.1-2.1-3 15.2-15.2 13-.1 0-5.3-.8-5.1-5.5z"/><path fill="#4F758E" d="M251.8 135c.1-.4.2-1 .6-1.7.3-.7.9-1.5 1.9-2.1.9-.6 2.2-.9 3.5-.9 1.3 0 2.7.4 4.2.6 1.5.2 3 .2 4.6 0 1.6-.3 3.1-.9 4.4-2 .3-.3.6-.5.9-.8l.1-.1.1-.1c.1 0 .1-.1.3-.1.1 0 .1 0 .2.1.1 0 .1.1.1.1.1.4.1.5.1.8-.1.9-.4 1.7-.8 2.5-.7 1.6-1.6 3.1-2.6 4.5s-2.2 2.6-3.6 3.6c-1.3 1-2.8 1.6-4.3 2-1.5.3-2.9.3-4.2.1-1.3-.2-2.5-.7-3.4-1.3-.9-.6-1.5-1.4-1.8-2.1-.3-.7-.4-1.3-.4-1.7v-.6l.1-.8zm.2 1.1v.1c0 .4.1 1 .5 1.6.3.7.9 1.4 1.8 1.9.9.6 1.9 1 3.2 1.2 1.3.2 2.7.2 4.1-.2 1.4-.3 2.8-1 4.1-1.9 2.6-1.9 4.7-4.7 6-7.9.3-.8.6-1.6.7-2.4v-.5s.1.1.1 0l-.1.1-.1.1c-.3.3-.6.6-1 .9-1.3 1.1-3 1.8-4.6 2.1-1.6.3-3.2.2-4.7 0s-2.9-.5-4.1-.6c-1.3 0-2.4.2-3.2.8-.8.5-1.4 1.3-1.7 1.9-.3.6-.5 1.2-.6 1.6-.1.4-.1.6-.1.6l-.3.6z"/><path fill="#D8DEE4" d="M266.3 134s-9.8 5.6-17.7 2.7"/><path fill="#4F758E" d="M266.3 134s-1 .6-2.6 1.3c-.8.3-1.7.7-2.8 1.1-.5.2-1.1.3-1.6.5s-1.1.3-1.7.4c-.6.1-1.1.2-1.7.3-.6.1-1.1.2-1.7.2-.5 0-1.1.1-1.6 0s-1-.1-1.4-.2l-1.2-.3-.9-.3c-.5-.2-.7-.3-.7-.3s.3.1.8.2c.2 0 .5.1.9.2.3 0 .7.1 1.2.1.4.1.9 0 1.4.1h1.5c.5 0 1.1-.1 1.6-.1.6-.1 1.1-.2 1.7-.2.6-.1 1.1-.2 1.7-.4.5-.1 1.1-.3 1.6-.4 1-.3 2-.7 2.8-1 1.7-.7 2.7-1.2 2.7-1.2z"/><path fill="#D8DEE4" d="M261.5 139.1l-3.3-2.1"/><path fill="#4F758E" d="M261.5 139.1s-.9-.4-1.7-.9l-.6-.3c-.2-.1-.4-.3-.5-.4-.3-.3-.4-.5-.4-.5s.3 0 .6.2l.6.3c.2.1.4.3.6.4.6.6 1.4 1.2 1.4 1.2z"/><g><path fill="#D8DEE4" d="M262.5 133.2l-1.4 3"/><path fill="#4F758E" d="M262.5 133.2s-.2.8-.5 1.6c-.1.2-.1.4-.2.6-.1.2-.2.3-.3.5-.2.3-.4.4-.4.4s0-.2.1-.5c0-.2.1-.3.2-.5s.2-.3.3-.5c.3-.9.7-1.6.8-1.6z"/></g><g><path fill="#D8DEE4" d="M257.6 133.1l-2 4.4"/><path fill="#4F758E" d="M257.6 133.1s-.4 1.1-.8 2.3c-.1.3-.2.6-.3.8-.1.3-.3.5-.4.7-.2.4-.5.6-.5.6s0-.3.1-.8c.1-.2.1-.5.3-.7.1-.3.3-.5.4-.8.6-1.1 1.2-2.1 1.2-2.1z"/></g></g></svg>