<svg id="Layer_1" xmlns="http://www.w3.org/2000/svg" viewBox="0 0 214.8 84.3"><style>.st0{opacity:0.25;} .st1{fill:none;} .st2{fill:#969CA1;} .st3{opacity:0.3;} .st4{fill:#FFFFFF;} .st5{fill:#CCCED0;} .st6{fill:#204A69;} .st7{fill:#EDE4D7;} .st8{fill:#37443D;} .st9{fill:#D8DEE4;} .st10{fill:#4F758E;} .st11{opacity:0.35;}</style><g class="st0"><path class="st2" d="M78.2 30.6c.4.4 1 .6 1.4.4.5-.2.9-.7 1-1.2.1-.5-.2-1-.6-1.3-.4-.3-1-.5-1.5-.5s-1 .1-1.4.5c-.4.3-.7.8-.9 1.3-.4 1-.5 2.1.1 2.9.3.4.7.8 1.2 1 .2.1.5.2.7.3.2.1.5.1.8.1 1.1.1 2.2 0 3-.6.8-.6 1.2-1.6 1.3-2.7V30v-.8c0-.5-.1-1.1-.3-1.5-.3-1-1-1.8-1.9-2.3-.9-.4-2-.6-3-.4-2.1.4-3.9 1.8-4.5 3.8-.7 2-.3 4.3.4 6.3.2.5.4 1 .6 1.6.2.5.4 1 .7 1.4.5.9 1.2 1.8 2 2.6 1.6 1.5 3.7 2.4 5.8 2.6 2.2.2 4.4-.1 6.5-.7 2.1-.6 4.2-1.4 6.2-2.4s3.9-2.1 5.8-3.3c1.9-1.2 3.7-2.5 5.5-3.9 1.8-1.3 3.5-2.8 5.4-4 1.9-1.2 4-2.2 6.1-2.9 2.2-.7 4.4-1.1 6.6-1.3 2-.3 3.9-.3 5.8-.2 1.9.1 3.9.3 5.8.6s3.8.7 5.7 1.1l2.8.7 2.8.9c.9.3 1.8.6 2.7 1 .9.3 1.8.7 2.7 1.1l2.7 1.1c.9.4 1.7.8 2.6 1.3 1.8.8 3.4 1.8 5.1 2.7 1.7.9 3.3 1.9 5.1 2.7 3.4 1.7 7 3.1 10.7 4.1 3.7 1 7.5 1.5 11.3 1.5 3.8 0 7.6-.7 11.2-2 1.8-.6 3.6-1.4 5.3-2.3 1.7-.9 3.3-1.9 4.9-3.1h.1v.1c-3 2.4-6.4 4.4-10 5.7-3.6 1.4-7.5 2.1-11.4 2.3-3.9.1-7.8-.4-11.5-1.3-3.8-.9-7.4-2.3-10.9-4-1.8-.8-3.4-1.8-5.1-2.8-1.7-.9-3.3-1.9-5.1-2.7-.9-.4-1.7-.9-2.6-1.2l-2.6-1.1c-.9-.4-1.8-.7-2.7-1.1-.9-.3-1.8-.7-2.7-1l-2.7-.9-2.8-.8c-1.9-.5-3.7-.9-5.6-1.2-1.9-.3-3.8-.5-5.7-.6-1.9-.1-3.8-.1-5.7.1-2.2.1-4.4.5-6.5 1.1-2.1.6-4.1 1.6-6 2.7-1.9 1.1-3.6 2.6-5.4 3.9-1.8 1.3-3.6 2.6-5.5 3.8-3.8 2.4-7.7 4.6-12.1 5.9-2.2.6-4.4 1-6.7.8-2.3-.2-4.6-1-6.3-2.6-1.7-1.6-2.9-3.7-3.5-5.8-.7-2.1-1.1-4.5-.4-6.9.4-1.1 1.1-2.2 2-2.9.9-.7 2-1.2 3.2-1.5 1.2-.2 2.4-.1 3.5.5 1.1.5 1.9 1.6 2.3 2.8.2.6.3 1.1.3 1.7v1.8c-.1 1.2-.6 2.4-1.6 3.1-1 .7-2.3.8-3.5.7-.3 0-.6-.1-.9-.2-.3-.1-.6-.2-.8-.4-.5-.3-1-.7-1.3-1.2-.3-.5-.5-1.1-.5-1.7 0-.6.2-1.2.4-1.7s.6-1 1.1-1.4c.5-.4 1.1-.5 1.7-.5.6 0 1.2.2 1.6.6.2.2.4.4.6.7.1.3.2.6.1.9-.1.6-.6 1-1.1 1.3-.9.3-1.6.1-1.9-.4-.1 0-.1 0 0 0 0-.1 0-.1 0 0zM115.7 71.6l.4-.4c.3-.2.7-.5 1.5-.5.7.1 1.5.5 2 1.4.3.4.4 1 .3 1.6-.1.6-.5 1.2-1 1.6-1 .9-2.5 1.2-4.1.8-.8-.2-1.5-.7-2-1.4-.3-.3-.5-.7-.7-1.1-.2-.4-.4-.8-.5-1.2-.3-.9-.4-1.8-.2-2.8.2-1 .7-1.9 1.5-2.6.8-.7 1.6-1.3 2.7-1.6 1-.2 2.1-.3 3.2-.3 1.1.1 2.3.4 3.3 1.1 1 .7 1.7 1.7 2.1 2.9.4 1.2.5 2.4.5 3.6 0 1.2-.2 2.5-.6 3.7-.4 1.2-1 2.4-2 3.3-1 .9-2.3 1.5-3.6 1.7-1.3.2-2.7.2-4-.1-1.3-.4-2.5-.9-3.6-1.8-2.2-1.6-3.6-4.3-3.9-7-.3-2.8.2-5.6 1-8.2.4-1.3.9-2.7 1.7-3.9.8-1.2 1.8-2.2 3-3 2.4-1.6 5.3-2.3 8.2-2.4 2.9-.1 5.7.2 8.5.7 2.8.6 5.5 1.5 8.1 2.4 5.2 2 10.2 4.3 14.9 6.9 4.7 2.6 9 5.3 13.1 8.1 1 .7 2 1.4 3 2 1 .6 2 1.2 3 1.6 2 .9 4.1 1.6 6.2 1.9 4.1.6 8-.2 11.1-1.7 3.1-1.4 5.4-3.4 7.2-5 1.8-1.7 3-3.2 3.8-4.3.8-1.1 1.1-1.7 1.1-1.7h.1v.1s-.3.6-1.1 1.7c-.7 1.1-1.9 2.7-3.6 4.5-1.7 1.8-4.1 3.8-7.2 5.3-3.1 1.5-7.2 2.5-11.5 1.9-2.1-.3-4.3-.9-6.5-1.8-1.1-.5-2.1-1-3.2-1.6-1-.6-2-1.3-3-2-4-2.8-8.4-5.4-13-8-4.6-2.6-9.6-5-14.7-7-2.6-1-5.2-1.9-8-2.6-2.7-.6-5.5-1-8.3-.9-2.8.1-5.6.6-8 2.2-2.4 1.5-3.9 4-4.6 6.7-.8 2.6-1.3 5.4-.9 8.1.2 1.3.5 2.6 1.2 3.8.7 1.1 1.6 2.1 2.6 2.9 2.1 1.5 4.8 2.2 7.2 1.6 1.2-.2 2.3-.8 3.2-1.6.8-.8 1.4-1.8 1.8-3 .3-1.1.5-2.3.5-3.4s-.1-2.3-.5-3.3c-.3-1-1-1.9-1.8-2.5-.8-.6-1.8-.9-2.8-1-1-.1-2 0-3 .2-.8.2-1.7.8-2.4 1.4-.7.6-1.1 1.4-1.3 2.2-.2.8-.1 1.7.1 2.5s.6 1.6 1 2.1c.5.6 1.1 1 1.7 1.2 1.3.4 2.8.1 3.7-.6 1-.7 1.2-1.9.7-2.7-.5-.8-1.2-1.3-1.8-1.3-.6-.1-1.1.2-1.4.4-.2.1-.3.3-.4.2.1.1.1.1 0 0z"/><path class="st2" d="M38.9 57.9c-.1-1.2-.5-2.4-1.4-3.2-.9-.8-2.3-.7-3.3-.2-1 .6-1.7 1.6-2 2.8-.3 1.1-.1 2.4.6 3.2.7.9 1.8 1.4 3 1.6.6.1 1.2.2 1.7.2.6 0 1.2 0 1.7-.1 1.1-.2 2.2-.8 3.1-1.5.8-.8 1.5-1.8 1.8-2.9.3-1.1.4-2.3.1-3.4-.3-1.1-.9-2.1-1.7-2.9-.8-.8-1.9-1.3-3-1.7-1.1-.4-2.3-.5-3.5-.6-1.2-.1-2.3.1-3.5.4-1.1.3-2.1.9-3 1.6-.8.8-1.5 1.8-1.9 2.8-.5 1-.8 2.2-1 3.3 0 1.9.5 3.9 1.4 5.6.9 1.7 2.3 3.2 3.8 4.4 3.1 2.4 6.9 3.9 10.7 5 3.8 1.1 7.8 1.6 11.8 1.8 4 .2 8 0 11.9-.5 4-.5 7.9-1.3 11.7-2.5 3.8-1.2 7.5-2.8 10.8-5 1.7-1.1 3.1-2.4 4.6-3.8l4.3-4.1c2.9-2.8 5.9-5.5 9.1-7.9 3.2-2.5 6.6-4.7 10.2-6.5 1.8-.9 3.7-1.7 5.6-2.3 1.9-.7 3.9-1.2 5.9-1.5 2-.4 4-.6 6-.7h1.5c.6 0 1 .1 1.6.1 1 .1 2 .3 3 .5 4 .8 7.8 2 11.5 3.8 3.7 1.7 7 4 10.1 6.6 3.1 2.6 6.1 5.2 9.3 7.5 1.6 1.1 3.3 2.2 5.2 2.9 1.8.7 3.8 1.2 5.7.8 1.9-.3 3.7-1.5 5-2.9 1.4-1.5 2.4-3.2 3.3-5h.1v.1c-.9 1.8-1.9 3.6-3.2 5.1-1.3 1.5-3.1 2.7-5.1 3.1-2 .4-4.1 0-6-.8-1.9-.8-3.6-1.8-5.3-2.9-3.3-2.3-6.4-4.9-9.5-7.4-3.1-2.5-6.4-4.7-10-6.4-3.6-1.6-7.4-2.9-11.3-3.6-1-.2-2-.3-2.9-.4-.5 0-1-.1-1.4-.1h-1.5c-2 .1-3.9.3-5.9.7-3.9.7-7.7 2-11.2 3.8-3.6 1.7-6.9 3.9-10.1 6.3-3.2 2.4-6.1 5.1-9.1 7.8L93.8 63c-1.5 1.3-3 2.7-4.7 3.8-3.4 2.2-7.2 3.7-11 4.9-3.8 1.2-7.8 2-11.8 2.4-4 .5-8 .6-12 .4-4-.2-8-.7-11.9-1.7-3.9-1-7.7-2.4-11-4.9-1.6-1.2-3.1-2.7-4.1-4.5-1-1.8-1.6-3.9-1.6-5.9.1-1.3.5-2.5 1-3.6s1.3-2.2 2.2-3.1c.9-.9 2.1-1.5 3.3-1.8 1.2-.3 2.5-.4 3.8-.4 1.2.1 2.5.3 3.7.7 1.2.4 2.3 1 3.3 1.9.9.9 1.6 2 1.9 3.3.3 1.3.2 2.6-.1 3.8-.4 1.2-1.1 2.3-2.1 3.2-1 .8-2.2 1.4-3.4 1.6-.6-.1-1.3-.1-1.8-.1-.6 0-1.2-.1-1.9-.3-1.2-.3-2.4-.8-3.2-1.9-.8-1-.9-2.5-.6-3.7.4-1.2 1.2-2.3 2.3-2.9 1.1-.6 2.6-.6 3.6.3.8.9 1.2 2.2 1.2 3.4.1 0 .1 0 0 0zM181.1 21s-.7-1.4-2.1-3.6c-.7-1.1-1.6-2.5-2.7-3.9-1.1-1.5-2.4-3.1-4-4.6-1.6-1.6-3.5-3.1-5.7-4.4-2.2-1.2-4.8-2.2-7.6-2.2-1.4 0-2.8.1-4.2.5-1.4.4-2.8.9-3.9 1.8-2.4 1.7-4.6 3.9-5.7 6.7-1.1 2.8-.7 5.9.8 8.3.6 1.3 1.7 2.2 2.9 2.9 1.2.7 2.6 1 3.9 1 2.7 0 5.3-1 6.9-2.8.8-.9 1.2-2 1.3-3.1.1-1.1-.2-2.2-.6-3.2-.4-1-1-1.8-1.8-2.4-.8-.5-1.7-.8-2.6-.7-1.8 0-3.2.8-4.1 1.7-.9.9-1.3 1.9-1.4 2.6 0 .3-.1.6 0 .8v.4h-.1v-.3-.8c0-.7.3-1.8 1.3-2.8.9-1 2.4-2 4.4-2.1 1 0 2.1.1 3 .7 1 .6 1.7 1.6 2.1 2.7.5 1.1.8 2.3.8 3.6 0 1.3-.6 2.7-1.5 3.8-.9 1.1-2.1 1.8-3.5 2.4-1.3.5-2.8.8-4.3.8-3 0-6.1-1.6-7.6-4.4-.7-1.3-1.2-2.9-1.3-4.4-.1-1.6.2-3.1.8-4.6.6-1.4 1.5-2.7 2.6-3.8 1-1.1 2.2-2.1 3.4-2.9 1.2-.9 2.6-1.5 4-1.9 1.4-.4 2.9-.7 4.3-.7 2.9-.1 5.7.7 8 2s4.2 2.9 5.8 4.6c1.6 1.6 2.9 3.3 3.9 4.8s1.9 2.9 2.5 4.1c1.6 2 2.1 3.4 2 3.4.1 0 .1.1 0 0 .1.1 0 .1 0 0z"/></g><g class="st3"><path class="st4" d="M124.62 55.548l19.436-7.12 4.608 12.584-19.437 7.118z"/><path class="st5" d="M127.09 56.772l15.682-5.743 3.267 8.92-15.683 5.743z"/><path class="st4" d="M135.5 63.8c-.5-1.5.3-2.9 1.8-3.5 1.5-.5 3-.1 3.6 1.5"/><path class="st6" d="M135.5 63.8s-.1-.1-.2-.3c-.1-.2-.2-.6-.1-1.1 0-.2.1-.5.2-.7.1-.2.3-.4.5-.6.4-.3.9-.6 1.4-.9.2-.1.5-.2.8-.3.3 0 .6-.1.9 0 .6.1 1.1.3 1.4.7.3.3.5.7.5.9.1.2.1.4.1.4s-.1-.1-.2-.3c-.1-.2-.4-.4-.7-.6-.3-.2-.7-.4-1.1-.4-.5-.1-.9-.1-1.5 0-.2.1-.5.1-.7.3-.2.1-.4.3-.5.5-.2.4-.4.8-.5 1.2-.1.4-.1.7-.1.9-.2.1-.2.2-.2.3z"/><g><ellipse transform="rotate(-19.183 137.25 59.605)" class="st7" cx="137.2" cy="59.6" rx="1.6" ry="1.3"/><path class="st7" d="M135.9 58.8c-.1 0-.1 0 0 0-.1.1-.1.1 0 0-.1.1-.1.1 0 .2h-.1v.1s.1.1 0 .1c.1.1 0 0 0 .1h-.1v.1c.1 0 .1.1 0 .1v.1c-.1 0-.1.1-.1.1s.1.1 0 .1c.1 0 0 0 0 .1 0 0-.1 0 0 .1 0 0 .1 0 0 0s.1 0 0 .1c-.1 0 0 0 0 0 0 .1 0 .1.1.2h-.1v.1c.1 0 0 .1 0 .1s0 .1.1 0c.1 0 0 0 0 0l.1.1h.1v.1s0 .1.1.1h.1c-.1.1 0 .1.1 0 0 .1 0 .1.1 0-.1.1 0 .3.1.2h.1v.1h.1V61v.2h.1v-.1.1h.1v-.1.1h.1s0-.1 0 0h.1c0-.1 0 0 0 0h.1c0-.1.1 0 .1 0v-.1c.1.2.1 0 .2.1 0-.1 0-.1-.1-.2v.2h.1v-.1c.1.1 0 0 0 0-.1-.2 0-.1 0-.1v.1s.1 0 .1-.1v-.1l.1.1v-.1l-.1-.1c0 .1.1.1.1.1s0-.1-.1-.1c.1.2.1.1.1.1h.1c.1 0 0-.1.1-.1-.1-.1 0-.1 0-.1v-.1h.2s-.1-.1 0-.1l.1-.1v-.1-.1-.1-.1l.1-.1v-.1-.2c0-.1.1-.1.1-.1h-.1c-.1 0-.2 0-.2.1v.1h.1v.2s.1.1-.1.1c-.1 0-.1 0 0 .1V60.4h-.1v.1s0 .1-.1.1v.1h-.1-.1-.1s0 .1.1.1c-.1-.1-.1 0 0 .1v-.1h-.1s0 .1.1.1c0 0 0-.1-.1-.1l-.1.1c0-.1 0-.1-.1-.1 0 0 0 .1-.1 0v.1-.1.1c-.1-.2-.2 0-.3-.1v.2s-.1-.3 0-.1h-.1v-.1s-.1.1-.1 0v.2-.2.1h-.1-.1v0s0 .1 0 0v.1h-.1v-.1-.1s0-.1-.1 0v-.1h-.1l-.1-.1h-.1c.1-.1-.1 0-.1-.1 0 0-.1 0 0 0v-.1-.1s.1-.1 0-.1c0 0-.1 0-.1-.1s.1-.1 0-.2c0 0 .1 0 0 0h.2l-.1-.1c.1 0 0-.1.1 0 .1 0 0 0 .1-.1.1 0 0-.1.1-.1h.1v-.1h.1s0-.1.1 0c.1 0 .1 0 .1-.1.1.1.1 0 .1 0 .1 0 0-.1.1-.2.1 0 .2 0 .2-.1h.1V59l.1.1c.1-.1.1 0 .1-.1v-.3V59h.4s0-.2 0 0h.2s.1-.1.1 0c0 0 0-.1 0 0v-.1 0c0 .1 0 .2.1.1v.1s0 .1 0 0c.1-.1.1 0 .1 0s0 .1.1 0c0 0 .1 0 0 0-.1.1 0 .1 0 .1l.1.1v.2s.1 0 .1.1h0c.1-.1.2 0 .3-.1 0 0 .1 0 .1-.1 0 0 .1 0 0 0v-.1l-.1-.1-.2.1c.2-.2.1-.1 0-.1 0 0 .1 0 .1-.1h-.1c.1-.1.1-.1 0-.1h-.1v-.1c.1-.1 0-.1 0-.1h-.1c-.1.1 0 0 0 0v-.1l-.1-.1v.1c-.1.1-.1 0-.2 0v-.1s0-.1-.1 0v0h-.1v0c0-.1-.1 0-.1.1v-.2c0 .1 0 .3-.1.4v-.4c0 .1-.1.2-.1.2v-.1s0-.1 0 0c0 0 0 .1 0 0V58.8s0-.1 0 0v-.1c0 .1 0 0-.1.1v-.1V58.9c0 .1 0 .1 0 0s-.1-.2-.1-.2v.2c-.1-.1 0 0-.1 0 0 .1 0 .1-.1.1v.1s0 .1 0 0c-.1-.1-.1 0-.1 0s0 .1-.1.1c0 .1.1.1.1.2l-.1-.1v.1c-.1-.1 0 0 0 0-.1-.1 0 0 0 0h-.1v.1c-.8-.7-.9-.8-1-.7v-.1.1c.1.1.1.1 0 0zm.9 1.9v0z"/><ellipse transform="rotate(-19.183 136.955 58.744)" class="st8" cx="136.9" cy="58.7" rx=".7" ry=".5"/><path class="st8" d="M136.3 58.4s0 .1 0 0c0 .1 0 .1 0 0 0 .1 0 .1 0 0-.1.1 0 .1-.1.1.1 0 0 0 0 0s.1 0 0 0v.1c.1 0 0 0 0 0 0 .1 0 .1 0 0 0 .1 0 0 0 0-.1.1 0 .2 0 .1v.1h.1v-.1.1c0-.1 0 0 0 0v-.1c.1.1.1 0 .1.1v-.1 0c0 .1 0 0 0 0-.1-.1 0-.1 0-.1v.1h.1v-.1l-.1-.1s0 .1.1.1v-.1l.1.1c.1 0 0-.1.1 0 0-.1 0 0 0 0h.2l.1-.1v-.1s0-.1.1-.1H136.9h-.1-.1v.1s-.1 0 0 0v.1c-.1-.1 0 0 0 0v0s0 .1 0 0v-.1.1c-.1-.1-.1 0-.1-.1v.1s0 .1 0 0v.2-.1 0s0 .1 0 0v0c0-.1 0 0 0 0 0-.1 0 0 0 0h-.1s.1 0 0-.1h.1s-.1-.1-.1 0c.1 0 0 0 0 0 .1 0 0 0 0 0 .1 0 0 0 0 0s.1 0 0 0c.1.1 0 0 0 0v-.1h.1s.1.1.1 0h.1v-.2.1s0-.1 0 0c0 0 0-.1 0 0v-.1 0c0 .1 0 .1 0 0v.1c0-.1 0 0 0 0 0 .1 0 0 0 0h.1c.1 0 .1 0 .2-.1h.1v-.1l-.1.1c.1-.1.1-.1 0-.1l.1-.1h-.1v-.1h-.1v-.1h-.1c-.1.1 0 0-.1 0v-.1s0-.1 0 0v-.1.1c0-.1 0 0-.1.1v-.1.1s0 .1 0 0v-.1 0s0-.1 0 0v.1-.1.2c0 .1 0 .1 0 0s-.1-.1-.1-.1v.1c0 .1 0 0 0 0 0-.1 0 0 0 0 0 .1 0 .1 0 0v.1h-.1s0 .1 0 0c0 0 0 .1.1.1l-.1-.1c-.1-.1 0 0 0 0l-.2.4.1-.1-.1.1c.1-.1.1-.1 0 0 .1 0 .1 0 0 0 .1 0 .1-.1 0 0 .1-.1.1 0 0 0 .1 0 .1 0 0 0zm.5.7c0 .1 0 .1 0 0v.1c-.1.1-.1 0 0-.1-.1.1-.1.1 0 0z"/><ellipse transform="rotate(-19.183 135.457 57.834)" class="st8" cx="135.4" cy="57.8" rx=".3" ry=".4"/><path class="st8" d="M135.7 57.5c0-.1-.1-.1 0 0-.1-.1-.1 0 0 0-.1 0-.1-.1 0 0-.1-.1-.1 0 0 0-.1-.1-.1 0 0 0-.1-.1-.1-.1 0 0h-.1c-.1-.1 0-.1.1 0l-.1-.1s0 .1 0 0c0 .1 0 0 0 0-.1 0-.1 0 0 0-.1 0 0 0 0 0-.1-.1-.2 0-.1 0h-.1 0c.1 0 0 0 0 0h.1l-.1.1h.1c-.1 0 0 0 0 0 .1-.1.1 0 .1 0h-.1.1l.1-.1h-.1.1l-.1.1s.1 0 0 0c.1 0 0 0 0 0v.1h.1s0 .1.1.1V57.4v0h-.1c.1-.1 0 0 0 0h-.1.1-.1.1s-.1 0 0 0h0c.1 0 0-.1.1-.1h-.1-.1.1s-.1 0 0 0h-.2.1s-.1 0 0 0h-.1.1c.1 0 0 0 0 0v-.1s0 .1 0 0v.1s.1-.1 0-.1c0 .1 0 0 0 0 0 .1 0 0 0 0 0 .1 0 0 0 0-.1.1 0 0 0 0h.1s-.1.1 0 0h-.1.2-.1s.1 0 0 0c0 0 .1 0 0 0h.1c-.1 0-.1 0 0 0h-.1c.1 0 0 0 0 0-.1 0 0 0 0 0v.1c0 .1 0 .1.1.2v.1h.1l-.1-.1c.1.1.1.1 0 0l.1.1v-.1-.1h.1l-.1-.1h.1s.1 0 0 0h-.1.1-.3.3-.1-.1.1s-.1 0 0 0h-.1.2s.1 0 0 0h-.1.1-.1-.1c-.1 0-.1 0 0 0s.1-.1.1-.1h-.1c-.1 0 0 0 0 0 .1 0 0 0 0 0-.1 0-.1 0 0 0h-.1s-.1 0-.1.1c.1 0 .1 0 .1-.1v.3c.1 0 0 0 0 0-.1 0 0 0 0 0-.1 0-.1 0 0 0zm-.4.2s-.1 0 0 0h-.1.1c-.1 0 0 0 0 0z"/><ellipse transform="rotate(-19.183 137.4 57.158)" class="st8" cx="137.4" cy="57.2" rx=".3" ry=".4"/><path class="st8" d="M137.6 56.8c0-.1-.1 0 0 0 0-.1-.1 0 0 0-.1-.1-.1 0 0 0h-.1s0-.1.1 0l-.1-.1s0 .1 0 0c0 .1 0 0 0 0-.1 0-.1 0 0 0-.1 0 0 0 0 0-.1-.1-.2 0-.1 0h-.1 0c.1 0 0 0 0 0h.1l-.1.1h.1c-.1 0 0 0 0 0 .1-.1.1 0 .1 0h-.1.1l.1-.1h-.1.1l-.1.1s.1 0 0 0c.1 0 0 0 0 0v.1h.1s0 .1.1.1V56.7v0h-.1c.1-.1 0 0 0 0h-.1.1-.1.1s-.1 0 0 0h0c.1 0 0-.1.1-.1h-.1-.1.1s-.1 0 0 0h-.2.1s-.1 0 0 0h-.1.1c.1 0 0 0 0 0v-.1s0 .1 0 0v.1s.1-.1 0-.1c0 .1 0 0 0 0 0 .1 0 0 0 0 0 .1 0 0 0 0-.1.1 0 0 0 0h.1s-.1.1 0 0h-.1.2-.1s.1 0 0 0c0 0 .1 0 0 0h.1c-.1 0-.1 0 0 0h-.1c.1 0 0 0 0 0-.1 0 0 0 0 0v.1c0 .1 0 .1.1.2v.1h.1l-.1-.1c.1.1.1.1 0 0l.1.1v-.1-.1h.1l-.1-.1h.1s.1 0 0 0h-.1.1-.3.3-.1-.1.1s-.1 0 0 0h-.1.2s.1 0 0 0h-.1.1-.1-.1c-.1 0-.1 0 0 0s.1-.1.1-.1h-.1c-.1 0 0 0 0 0 .1 0 0 0 0 0-.1 0-.1 0 0 0h-.1s-.1 0-.1.1c.1 0 .1 0 .1-.1v.3c.1 0 0 .1 0 0 0 0 .1 0 0 0 0 .1 0 0 0 0zm-.4.2h-.1.1zM137.3 60.3c.1 0 .1 0 0 0 .1 0 .1 0 0 0 .1 0 .1 0 0 0 .1 0 .1 0 0 0 .1 0 0-.1 0 0 .1 0 .1 0 0 0v-.1c.1 0 .1 0 0 .1l.1-.1s-.1 0 0 0c-.1 0 0 0 0 0 .1 0 .1 0 0 0 .1 0 0 0 0 0 .1 0 .2-.1.1-.1h-.1-.1.1c-.1 0 0 0 0 0h-.1l.1-.1h-.1 0c.1 0 0 0 0 0h-.1.1s-.1 0 0 0c-.1 0 0 0 0 0 .1 0 0 0 0 0h-.1v-.1-.1l.1-.1h-.1l-.2.1h.1s.1 0 0 0h.1c-.1 0 0 0 0 0h0s.1 0 0 0h-.1.1c-.1.1 0 .1-.1.1h.1.1s-.2.1-.1 0h0s.1 0 0 0h.2-.1.1s.1 0 0 0h.1c-.1 0 0 0 0 0-.1 0 0 0 0 0v-.1h.1s-.1 0 0 .1h-.1l.1.1c-.1 0 0 0 0 0-.1 0 0 0 0 0-.1 0 0 0 0 0s-.1 0 0 0c-.1-.1 0 0 0 0v.1s-.1 0 0 0c0 0 0-.1 0 0v.2-.1s0 .1 0 0c0 0 0 .1 0 0v.1c0-.1 0-.1 0 0v-.1c0 .1 0 0 0 0 0-.1 0 0 0 0 0 .1 0 .1-.1.2v.2l.1-.1c-.1.2 0 .1 0 .1v.1-.1.2c0-.1 0 0 0 0 0-.1 0 0 .1-.1v.1s0 .1 0 0v-.1V60.5 60.7s0-.1 0 0v-.1.2s0 .1 0 0v-.1-.1c0-.1 0-.1 0 0s.1.1.1.1v-.1c0-.1 0 0 0 0 0 .1 0 0 0 0 0-.1 0-.1 0 0v-.1s0-.1-.1-.1l.1.1c-.6-.2-.6-.2-.5-.2 0 .2 0 .1 0 0 0 .1 0 .1 0 0 0 0 0 .1 0 0 0 .1.1.1 0 0 .1.1 0 .1 0 0 .1 0 0 0 0 0zm-.1-.6h0z"/><path class="st8" d="M137.6 60s0 .1 0 0c-.1.1 0 0 0 0-.1.1-.1 0 0 0h-.1c0 .1 0 .1 0 0-.1 0 0 0 0 0 .1 0 .1 0 0 0 .1 0 0 0 0 0 .1 0 .2-.1.1-.1h-.1-.1.1c-.1 0 0 0 0 0h-.1l.1-.1h-.1 0c.1 0 0 0 0 0h-.1.1s-.1 0 0 0c-.1 0 0 0 0 0 .1 0 0 0 0 0h-.1v-.1-.1l.1-.1h-.1l-.2.1h.1s.1 0 0 0h.1c-.1 0 0 0 0 0h0s.1 0 0 0h-.1.1c-.1.1 0 .1-.1.1h.1.1s-.2.1-.1 0h0s.1 0 0 0h.2-.1.1s.1 0 0 0h.1c-.1 0 0 0 0 0-.1 0 0 0 0 0s0 .1.1.1h.1s0 .1.1 0v0c0 .1 0 0 0 0 0 .1 0 0 0 0 0 .1 0 0 0 0s0 .1 0 0v.1s0-.1.1-.1c0 0 .1.1.1 0 0 0 0 .1.1 0h.1s0-.1-.1-.2v.1s-.1-.1 0 0c0 0 0-.1 0 0l.1.1v-.1c.1.1.1.1 0 0h.1c-.1-.1 0 0 0 0 .1 0 0 0 0 0-.1 0-.1 0-.2-.1h-.1-.1l.1.1c-.2-.1-.1-.1-.1 0h-.1l.1.1h-.1l.1.1h-.1c.1.1 0 0 0 .1 0 0-.1-.1-.1 0l.1.1-.1-.1v.1s0 .1.1.1v-.1.1l-.1-.1c.1.1.1.2.2.2 0 0-.1-.2-.2-.2l.2-.1v.1l-.1-.1s0 .1 0 0c0 0 0 .1.1.1V60v.1-.1.2c0 .1 0 .1 0 0v-.1.1c0 .1 0 0 0 0 0-.1 0 0 0 0 0 .1 0 .1 0 0v.1c0-.1 0-.1 0 0v.1l-.4-.4c.1.1.1.1 0 0 .1.1.1.1 0 0 .1.1.1.1 0 0 .1 0 .1 0 0 0 .1.1.1.1 0 0 .1 0 .1.1 0 0 .1.1.1.1 0 0 .1-.1.1.1 0 0 .1 0 .1 0 0 0 .1.1.1 0 0 0 .1 0 .1 0 0 0 .1 0 0 0 0 0 0 .1 0 .1 0 0zm-.5-.3h0z"/><path class="st4" d="M138 55.4c-.8-.4-1.7-.5-2.5-.2-.9.3-1.5 1-1.8 1.7 0 0-1.7 1.3-.6 3.5l.8-.9c.7 1.4 2.2 2.2 3.7 1.7 1.5-.5 2.1-2.3 1.8-3.8l1.2.3c-.4-2.1-2.3-2.3-2.6-2.3z"/><path class="st6" d="M137.9 55.6c-.4-.2-.8-.3-1.2-.3-.4 0-.8 0-1.2.2-.4.1-.7.4-1 .6-.3.3-.5.6-.7 1-.1.1-.2.2-.3.1-.1 0-.2-.1-.2-.2l.4.2c-.2.2-.4.4-.5.7-.1.3-.2.5-.3.8-.1.6.1 1.2.3 1.7l-.5-.1.8-.9c.1-.1.3-.1.4 0l.1.1c.3.6.8 1.1 1.5 1.4.3.1.6.2 1 .2.3 0 .7 0 1-.2.2-.1.3-.1.5-.2.1-.1.3-.2.4-.3.2-.2.4-.5.6-.9.3-.6.3-1.4.2-2.1 0-.1.1-.3.2-.3h.1l1.2.3-.3.3c-.1-.6-.4-1.1-.8-1.5-.2-.2-.5-.4-.7-.5-.1-.1-.3-.1-.4-.1H137.9c.1 0 0 0 0 0zm.2-.4h.5c.2 0 .3.1.5.1.3.1.6.3.9.5.5.5.8 1.1 1 1.8 0 .1-.1.3-.2.3h-.1l-1.2-.3.3-.3c.2.8.1 1.6-.2 2.4-.2.4-.4.7-.7 1-.1.2-.3.3-.5.4-.2.1-.4.2-.5.3-.4.2-.8.2-1.2.2-.4 0-.8-.1-1.2-.3-.7-.4-1.3-1-1.7-1.7l.5.1-.8.9c-.1.1-.3.1-.4 0 0 0 0-.1-.1-.1-.2-.3-.3-.6-.4-1-.1-.3-.1-.7 0-1.1.1-.4.2-.7.4-1 .2-.3.4-.6.7-.8.1-.1.3-.1.4 0 0 0 .1.1.1.2l-.5-.1c.2-.4.5-.8.8-1.1.3-.3.7-.6 1.2-.7.4-.2.9-.2 1.4-.2.1.2.6.3 1 .5z"/><g><ellipse transform="rotate(-20.116 136.666 58.43)" class="st4" cx="136.7" cy="58.4" rx=".8" ry=".5"/><path class="st6" d="M137.6 58.1v.2c0 .2-.1.4-.3.5-.1.1-.2.2-.3.2-.1 0-.1.1-.2.1s-.1 0-.2.1h-.5c-.2-.1-.3-.2-.4-.4-.1-.2 0-.4.1-.6.1-.2.2-.3.3-.4.3-.2.5-.2.8-.2.2 0 .4.1.6.2 0 .2.1.3.1.3zm-.4.1s0-.2-.3-.1c-.1 0-.3.1-.4.2-.1.1-.1.1-.1.2v.1s0 .1.1.1.1.1.2.1h.2c.1 0 .2-.1.2-.1 0-.2.1-.3.1-.5 0 .1 0 .1 0 0z"/></g><g><path class="st6" d="M137 58.9s.2.1.2.3c0 .1.1.2.1.2v.1c0 .1-.2.2-.3.2l-.1-.1s-.1-.1-.1-.2c-.1-.1 0-.3 0-.3-.1-.2 0-.3.2-.2 0-.1 0-.1 0 0z"/></g><g><path class="st6" d="M135.9 59.8c0-.1 0-.1 0 0H136.5c.1 0 .1-.1.2-.1v-.3c0-.2.1-.3.3-.3h.1c.1 0 .2.1.3.1h.3c.1 0 .3-.2.4-.4 0-.1.2-.1.3-.1.1 0 .1.1.1.2 0 .2-.1.3-.2.5s-.3.3-.4.3c-.2.1-.4.1-.5 0-.2 0-.3-.1-.5-.1l.4-.3c0 .2 0 .4-.1.6-.1.2-.4.3-.6.3h-.5c-.1 0-.2-.1-.2-.1l-.1-.1h-.1c-.1 0-.1-.1-.1-.1-.1-.1-.1-.2 0-.3.1 0 .2.1.3.2z"/></g><ellipse transform="rotate(-20.116 135.247 57.62)" class="st6" cx="135.2" cy="57.6" rx=".3" ry=".4"/><ellipse transform="rotate(-20.116 137.106 56.94)" class="st6" cx="137.1" cy="56.9" rx=".3" ry=".4"/></g><g><path class="st4" d="M58.326 51.12l18.924 4.27-2.772 12.29-18.924-4.268z"/><path class="st5" d="M59.664 53.37l15.315 3.454-1.96 8.682-15.314-3.454z"/><path class="st4" d="M64.5 59.3l-4.3-1s-.4-1 .4-1.4c.8-.4 1.2.4 1.2.4s.3-1.7 1.6-1.4c1.7.4 1.1 1.7 1.1 1.7s1.3-.1 1.2 1c0 0 0 .4-.3.7h-.9z"/><path class="st6" d="M64.4 59.4l-4.3-.9c-.1 0-.1-.1-.2-.2-.1-.3-.2-.6-.1-.9 0-.3.2-.6.5-.8.1 0 .2-.1.2-.1s.1-.1.2-.1h.5c.2 0 .3.1.4.3.1.1.2.2.3.4l-.5.1c0-.2.1-.4.2-.6.1-.2.2-.4.4-.6.2-.2.4-.3.6-.4h.8l.3.1c.1 0 .2.1.3.1.2.1.4.3.5.5.1.2.2.5.2.7 0 .2 0 .5-.1.7l-.2-.3c.3 0 .5 0 .8.1.2.1.5.3.6.6.2.5.1 1.1-.3 1.5-.1.1-.1.1-.2.1l-.9-.3zm.1-.3l.8.1-.2.1c.2-.2.3-.7.2-1 0-.2-.2-.3-.3-.3-.2-.1-.4-.1-.5-.1-.1 0-.3-.1-.3-.2v-.1c0-.1.1-.3.1-.5s-.1-.3-.1-.4c-.1-.1-.2-.2-.4-.3-.1 0-.1-.1-.2-.1l-.3-.1h-.4c-.1 0-.3.1-.4.2-.2.2-.4.6-.4.9 0 .2-.2.3-.3.2-.1 0-.2-.1-.2-.2s-.1-.2-.2-.2c-.1-.1-.1-.1-.2-.1H61h-.1c-.1 0-.1 0-.1.1-.2.1-.2.2-.3.4 0 .2 0 .4.1.6l-.4-.1 4.3 1.1z"/><g><ellipse transform="rotate(-77.29 70.857 59.793)" class="st4" cx="70.9" cy="59.8" rx="2.2" ry="2.2"/><path class="st6" d="M73 60.3s0 .2-.2.6c-.1.3-.5.9-1.1 1.2-.3.2-.7.2-1.1.2-.1 0-.2 0-.3-.1-.1 0-.2-.1-.3-.1-.2-.1-.4-.2-.5-.4-.6-.6-1-1.5-.9-2.4.1-.5.3-.9.6-1.3.3-.3.8-.6 1.2-.7.4-.1.9-.1 1.3.1s.7.4 1 .7c.4.6.5 1.2.5 1.6-.1.4-.2.6-.2.6zm0 0s.1-.2 0-.6c0-.4-.3-.9-.7-1.2-.2-.2-.5-.3-.8-.4-.3-.1-.7-.1-1-.1-.3.1-.7.2-1 .5-.3.2-.5.6-.6 1-.1.4-.1.8 0 1.2.1.4.4.7.8.9.2.1.3.2.5.2.1 0 .2 0 .3.1h.2c.3 0 .6 0 .9-.1.6-.1 1-.5 1.2-.8.1-.5.2-.7.2-.7z"/></g><g><path class="st4" d="M70.5 63.3L64.9 62s-.5-1.3.5-1.9c1.1-.5 1.5.6 1.5.6s.4-2.2 2.1-1.8c2.2.5 1.4 2.3 1.4 2.3s1.7-.1 1.6 1.4c0 0 0 .5-.4.9l-1.1-.2z"/><path class="st6" d="M70.5 63.5l-5.6-1.2c-.1 0-.1-.1-.2-.2-.1-.4-.2-.7-.1-1.1 0-.4.3-.8.6-1 .1 0 .2-.1.3-.1.1 0 .2-.1.3-.1.2 0 .4-.1.6 0 .2.1.4.2.5.3.1.1.3.3.4.5l-.5.1c.1-.3.1-.5.3-.8.1-.3.3-.5.5-.7.2-.2.5-.4.8-.5.2 0 .3-.1.5-.1s.3 0 .5.1l.4.1c.1.1.3.1.4.2.3.1.5.3.7.6.2.3.3.6.3.9 0 .3 0 .6-.1.9l-.2-.3c.3 0 .6 0 1 .2.3.1.6.4.8.7.1.3.1.7.1 1-.1.3-.2.6-.5.9 0 .1-.1.1-.2.1l-1.6-.5zm.1-.4l1.1.2-.2.1c.2-.2.3-.4.3-.7 0-.2 0-.5-.1-.7-.1-.2-.3-.3-.5-.4-.2-.1-.5-.1-.7-.1-.1 0-.3-.1-.3-.2v-.1c.1-.2.1-.4.1-.7 0-.2-.1-.4-.2-.6-.1-.2-.3-.3-.5-.4-.1-.1-.2-.1-.3-.1l-.3-.2h-.6c-.2.1-.4.2-.5.3-.3.3-.5.8-.6 1.2 0 .2-.2.3-.3.2-.1 0-.2-.1-.2-.2s-.1-.2-.2-.3c-.1-.1-.2-.2-.3-.2H66s-.1 0-.2.1c-.1 0-.1.1-.2.1-.2.1-.4.4-.4.6 0 .3 0 .6.1.8H65l5.6 1.3z"/></g></g><g><path class="st4" d="M6.045 64.38l16.713 6.126-3.993 10.89L2.053 75.27z"/><path class="st5" d="M7.056 66.56l13.52 4.957-2.822 7.7-13.52-4.958z"/><path class="st4" d="M9.378 72.198l5.54 2.03-1.24 3.38-5.54-2.03z"/><ellipse transform="rotate(-69.867 12.335 72.96)" class="st4" cx="12.3" cy="73" rx=".8" ry="3"/><path class="st6" d="M15.3 74.1s-.1.1-.1.2c-.1.1-.3.1-.5.1-.4 0-.9 0-1.5-.2-.6-.1-1.3-.3-2-.7-.4-.2-.7-.3-1.1-.5-.2-.1-.4-.2-.5-.4-.1-.1-.2-.2-.2-.3-.1-.1-.2-.2-.1-.6v-.1l.1-.1c.1-.1.2-.1.2-.1.1 0 .3-.1.4-.1h.7l1.2.3c.7.2 1.4.5 2 .8.5.3 1 .6 1.3.8.1.1.2.3.3.4-.1.4-.2.5-.2.5zm-.3-.2c0-.1-.1-.2-.2-.3-.2-.2-.6-.5-1.2-.7-.5-.2-1.2-.5-1.9-.7-.4-.1-.7-.2-1.1-.2h-.5c-.2 0-.3 0-.3.1.1-.2 0-.1.1 0 0 .1.1.1.2.2s.3.2.4.3c.3.2.6.4 1 .6.7.3 1.3.6 1.9.7.6.1 1.1.2 1.4.2 0-.1.1-.1.2-.2-.1.1 0 0 0 0z"/><path class="st6" d="M9.7 72s-.2.9-.6 1.8c-.2.5-.3.9-.5 1.2-.1.3-.3.5-.3.5-.1.1-.2.1-.3.1v-.1s.1-.2.2-.6c.1-.3.3-.8.4-1.3.3-.9.8-1.8.8-1.8 0-.1.2-.1.3-.1v.3zM15.3 73.7l-.6 2c-.2.5-.4 1-.5 1.4l-.3.6c-.1.1-.2.1-.3.1-.1 0-.1-.1-.1-.2l.2-.6c.1-.4.3-.9.5-1.4l.8-2c0-.1.2-.1.3-.1v.2z"/><path class="st6" d="M8.5 73.9s.1-.1.3-.2c.1 0 .2-.1.4-.1s.4.1.6.2c.2.2.3.4.3.6.1.2.1.4.2.6 0 .1 0 .1 0 0h.2l.6-.3c.2-.1.5-.2.8-.2.3 0 .6.2.8.4.2.2.2.4.3.6l.3.3c.2.1.4.1.5.1.1-.1.2-.1.2-.1.1-.1.2-.1.3-.1.1.1.1.2.1.3 0 0-.1.2-.3.3-.2.1-.6.2-1 0-.2-.1-.3-.3-.5-.5-.1-.2-.2-.4-.3-.5-.1-.1-.2-.2-.3-.2-.1 0-.3.1-.5.1l-.6.3c-.1 0-.3.1-.5.1-.3-.1-.4-.3-.4-.4-.1-.2-.1-.4-.2-.6 0-.2-.1-.3-.2-.4-.1-.2-.4-.1-.5-.1-.2 0-.2.1-.2.1-.1.1-.2 0-.3-.1-.2 0-.2-.1-.1-.2z"/><g><path class="st4" d="M12.7 72s-.8-.6.1-1.4c.4-.4.5-.8.5-.8s1.3 1.6-.6 2.2z"/><path class="st6" d="M12.7 72.1c-.2-.1-.3-.3-.4-.6-.1-.2 0-.5.1-.7.1-.2.3-.4.4-.5.1-.2.2-.3.3-.5 0-.1.2-.2.3-.2 0 0 .1 0 .1.1.2.2.3.4.4.7.1.2.2.6.1.8 0 .1-.1.3-.2.4l-.3.3c-.2.1-.5.2-.8.2zm0-.1l.5-.5c.1-.1.1-.2.2-.2 0-.1.1-.2.1-.2v-.5c0-.2-.1-.4-.2-.5l.4-.1c-.1.2-.2.4-.4.6l-.4.4c-.1.1-.2.3-.2.5-.2.2-.1.4 0 .5z"/></g></g></g><g class="st0"><path class="st9" d="M163.1 10.5s-2.2-2-4.3.8c-1.9 2.6-3.4 3.2-5.2 3.1-1.4 0 5.9 4.3 9.5-.3 0 0 1.6-2 0-3.6z"/><path class="st10" d="M163.3 10.8l-.2-.2s-.3-.3-.9-.5c-.3-.1-.7-.2-1.2-.1s-.9.3-1.4.8c-.4.4-.8 1-1.3 1.5s-1 1.1-1.7 1.5c-.7.4-1.5.7-2.3.8h-.6-.2c-.1 0 .1 0 0-.1l.1.1c.3.2.7.4 1 .6 1.5.7 3.1 1 4.6.8 1.5-.2 2.7-1 3.5-1.9.8-.9 1-2 .7-2.6.2-.3 0-.5-.1-.7zm-.1-.3s.4.3.6 1c.3.7.1 1.9-.7 2.9-.4.5-.9 1-1.5 1.3-.6.4-1.4.6-2.1.7-1.6.2-3.2-.1-4.8-.8-.4-.2-.7-.4-1.1-.6-.1-.1-.2-.1-.2-.3 0 0 0-.2.1-.2s.1-.1.2-.1h.8c.8 0 1.5-.3 2.1-.7.6-.4 1.1-.9 1.6-1.5.5-.5.8-1.1 1.3-1.5.5-.4 1-.7 1.5-.8.5-.1 1 0 1.3.1.4.1.6.3.8.4l.1.1z"/><path class="st9" d="M157.6 14.6s5.2-1.2 7.1-4.7"/><path class="st10" d="M157.6 14.6s.5-.1 1.3-.4c.8-.3 1.8-.8 2.7-1.3.4-.3.9-.6 1.3-1 .4-.3.7-.7 1-1 .3-.3.5-.6.6-.8.1-.2.2-.3.2-.3s-.1.1-.2.3c-.1.2-.3.5-.5.9-.1.2-.3.3-.4.5-.1.2-.4.3-.5.5-.4.3-.9.6-1.3.9-1 .6-2 1-2.8 1.2-.9.4-1.4.5-1.4.5z"/><path class="st9" d="M160.9 14.8l.5-1.7"/><path class="st10" d="M160.9 14.8s.1-.5.1-.9c0-.2.1-.5.2-.6.1-.2.2-.3.2-.3v.3c0 .2-.1.4-.2.6-.1.5-.3 1-.3.9z"/><g><path class="st9" d="M158.7 13.1l1.4.6"/><path class="st10" d="M158.7 13.1l.8.2c.2 0 .4.1.5.2l.2.2h-.3c-.2 0-.3-.1-.5-.2-.4-.2-.7-.4-.7-.4z"/></g><g><path class="st9" d="M160.3 11.5l2.1.9"/><path class="st10" d="M160.3 11.5s.5.2 1.1.4c.3.1.5.2.7.3.2.1.3.2.3.2h-.4c-.2 0-.5-.2-.7-.3l-1-.6z"/></g></g><g class="st0"><path class="st9" d="M101.4 60.4s.2 3.3-3.7 3.1c-3.7-.2-5.2.7-6.4 2.3-.9 1.2.4-8.2 7-7.9 0 0 2.9 0 3.1 2.5z"/><path class="st10" d="M101.5 60.8c0 .2 0 .5-.2.9-.1.4-.4.9-.8 1.2-.5.4-1.1.6-1.8.7-.7.1-1.5 0-2.2 0-.8 0-1.6.1-2.4.3-.8.2-1.6.7-2.2 1.3-.1.2-.3.3-.4.5l-.1.1-.1.2s-.1.1-.2.1-.2 0-.2-.1c-.1-.2-.1-.3-.1-.4 0-.5.1-.9.2-1.4.5-1.8 1.4-3.5 2.7-4.7.6-.6 1.4-1.1 2.1-1.4.8-.3 1.5-.4 2.2-.4 1.4 0 2.6.7 3 1.4.2.4.3.7.3.9v.3l.2.5zm-.2-.7c0-.2-.1-.5-.4-.8-.2-.3-.6-.7-1.1-.9-.5-.2-1.1-.4-1.8-.4-1.3 0-2.9.5-4.1 1.7-1.2 1.2-2.1 2.8-2.6 4.6-.1.4-.2.9-.2 1.3v.2c0-.1-.1 0-.1 0l.1-.1v-.1c.1-.2.3-.4.5-.5.6-.7 1.4-1.2 2.3-1.4.8-.3 1.7-.3 2.5-.4.8 0 1.5.1 2.2 0 .7-.1 1.2-.3 1.6-.6.4-.3.6-.8.8-1.1.1-.4.2-.7.2-.9v-.3l.1-.3z"/><path class="st9" d="M93.9 62.3s4.8-3.6 9.1-2.7"/><path class="st10" d="M93.9 62.3s.5-.4 1.3-.9 1.9-1.1 3-1.5c.6-.2 1.2-.4 1.7-.5.3 0 .6-.1.8-.1h.8c.5 0 .8.1 1.1.1.3.1.4.1.4.1h-1.5c-.2 0-.5 0-.7.1-.3 0-.5.1-.8.1-.3 0-.6.1-.9.2-.3.1-.6.2-.9.2-1.2.4-2.3.9-3 1.4-.8.4-1.3.8-1.3.8z"/><path class="st9" d="M96.1 59.3l1.9.8"/><path class="st10" d="M96.1 59.2s.5.2 1 .3c.2.1.5.2.6.3.2.1.3.2.3.2h-.3c-.2 0-.4-.2-.6-.3-.6-.2-1-.4-1-.5z"/><g><path class="st9" d="M96 62.4l.5-1.6"/><path class="st10" d="M96 62.4s.1-.4.1-.9c0-.2.1-.4.2-.6l.2-.2v.3c0 .2-.1.4-.2.6-.1.4-.3.8-.3.8z"/></g><g><path class="st9" d="M98.6 62.2l.7-2.5"/><path class="st10" d="M98.6 62.1s.1-.6.3-1.3c.1-.3.1-.6.2-.8l.2-.4v.4c0 .2-.1.5-.2.8-.3.8-.5 1.4-.5 1.3z"/></g></g><g class="st0"><path class="st9" d="M167.3 53.5s0-2.7-3.2-2.4c-3 .3-4.3-.3-5.4-1.6-.8-1 .7 6.7 6.1 6.2.1 0 2.4-.2 2.5-2.2z"/><path class="st10" d="M167.2 53.8v-.3s0-.4-.2-1c-.1-.3-.3-.6-.7-.9-.3-.3-.8-.4-1.4-.5-.5 0-1.1.1-1.8.1s-1.4 0-2.1-.2c-.7-.2-1.4-.5-2-1.1l-.4-.4s0-.1 0 0h0v.2c0 .3.1.7.2 1.1.5 1.4 1.3 2.7 2.3 3.6 1 .9 2.4 1.3 3.5 1.2 1.1 0 1.9-.6 2.2-1.1.3-.3.4-.5.4-.7zm.2-.3s.1.4-.2 1c-.3.6-1.2 1.2-2.4 1.3-.6.1-1.2 0-1.9-.2-.6-.2-1.3-.5-1.8-1-1.1-.9-1.9-2.3-2.4-3.7-.1-.4-.2-.7-.2-1.1 0-.1 0-.2.1-.4 0 0 .1-.1.2-.1s.1.1.1.1h.1l.1.1c.1.1.2.3.4.4.5.5 1.2.8 1.8 1 .7.2 1.3.2 2 .2.6 0 1.2-.1 1.8-.1.6 0 1.1.2 1.5.5.4.3.6.7.8 1 .1.3.2.6.2.8l-.2.2z"/><path class="st9" d="M161.1 52.3s4.1 2.8 7.6 1.8"/><path class="st10" d="M161.1 52.2s.4.3 1.1.6c.7.3 1.6.7 2.6 1 .5.1 1 .2 1.4.3.5.1.9.1 1.3.1h1.2s-.1 0-.3.1c-.2.1-.5.1-.9.2h-.6c-.2 0-.4 0-.7-.1l-1.5-.3c-1-.3-1.9-.7-2.5-1.1-.7-.4-1.1-.7-1.1-.8z"/><path class="st9" d="M163 54.7l1.5-.8"/><path class="st10" d="M163 54.6s.3-.3.7-.5c.2-.1.4-.2.5-.3h.3l-.2.2c-.1.1-.3.2-.5.3-.4.2-.8.4-.8.3z"/><g><path class="st9" d="M162.8 52.1l.5 1.3"/><path class="st10" d="M162.8 52s.2.3.3.6c.1.2.2.3.2.5v.2l-.2-.2c-.1-.1-.1-.3-.2-.5s-.1-.5-.1-.6z"/></g><g><path class="st9" d="M164.9 52.2l.7 2"/><path class="st10" d="M164.9 52.2l.4 1c.1.2.2.5.2.7v.3s-.1-.1-.2-.3c-.1-.2-.2-.4-.2-.7l-.2-1z"/></g></g><g class="st0"><path class="st9" d="M103 49.5s-.6-2.4-3.3-1.4c-2.5.9-3.8.6-5-.2-.9-.7 2.1 5.7 6.7 4.1 0 0 2-.7 1.6-2.5z"/><path class="st10" d="M103 49.8l-.1-.3s-.1-.3-.4-.8c-.2-.2-.4-.5-.8-.6-.4-.2-.8-.2-1.3-.1s-1 .3-1.6.5c-.6.2-1.2.3-1.9.3s-1.4-.2-2-.5c-.1-.1-.3-.2-.4-.3 0 0-.1 0 0 0h-.1c-.1 0 .1 0 .1-.1v.2c.1.3.3.6.4.9.7 1.1 1.7 2.1 2.8 2.7 1.1.6 2.3.6 3.3.3.9-.3 1.6-.9 1.7-1.5.3-.3.3-.5.3-.7zm0-.3s.1.3 0 1c-.1.6-.8 1.4-1.8 1.7-.5.2-1.1.3-1.7.2-.6 0-1.2-.2-1.8-.5-1.2-.6-2.2-1.6-2.9-2.8-.2-.3-.4-.6-.5-.9 0-.1-.1-.2 0-.3 0 0 .1-.1.2-.1h.4c.1.1.3.2.4.3.6.3 1.2.5 1.8.5.6 0 1.2-.1 1.8-.3.5-.1 1.1-.4 1.6-.5.5-.1 1-.1 1.5.1.4.2.7.5.9.7.2.3.3.5.3.6l-.2.3z"/><path class="st9" d="M97.3 49.8s4.2 1.5 7.1-.1"/><path class="st10" d="M97.3 49.8s.4.1 1.1.3c.7.1 1.6.3 2.5.3.9 0 1.8-.1 2.4-.3.3-.1.6-.2.8-.2.2-.1.3-.1.3-.1s-.1.1-.3.2l-.8.4c-.2.1-.3.1-.5.2s-.4.1-.6.1c-.4.1-.9.1-1.4 0-.9-.1-1.8-.2-2.5-.4-.6-.3-1-.4-1-.5z"/><path class="st9" d="M99.5 51.5l1.1-1"/><path class="st10" d="M99.5 51.5s.2-.3.5-.6c.1-.2.3-.3.4-.3.1-.1.2-.1.2-.1s0 .1-.1.2l-.4.4-.6.4z"/><g><path class="st9" d="M98.7 49.3l.7 1.1"/><path class="st10" d="M98.7 49.3s.2.2.4.5c.1.1.2.2.2.4v.2s-.1 0-.2-.1c0-.1-.1-.3-.1-.4-.2-.3-.3-.6-.3-.6z"/></g><g><path class="st9" d="M100.6 48.9l1 1.6"/><path class="st10" d="M100.6 48.9s.3.4.6.7c.2.2.3.4.4.5.1.2.1.3.1.3l-.2-.2c-.1-.1-.3-.3-.4-.5-.3-.3-.5-.8-.5-.8z"/></g></g><g class="st11"><ellipse transform="rotate(-80.51 15.302 58.084)" class="st4" cx="15.3" cy="58.1" rx="1.4" ry="1.9"/><path class="st4" d="M17.4 58.4v.1c0 .1 0 .3-.1.4-.2.3-.6.6-1.1.7-.3.1-.6.1-.9.1-.2 0-.3 0-.5-.1-.2 0-.3-.1-.5-.2-.3-.1-.6-.3-.9-.6-.2-.3-.4-.7-.3-1.2.1-.4.4-.8.7-1 .3-.2.7-.3 1-.3.3 0 .7 0 1 .1.3.1.6.2.8.4.5.3.7.8.7 1.1v.4c0 .1 0 .1.1.1zm-.3 0s0-.2-.1-.4-.3-.5-.7-.7c-.2-.1-.4-.2-.6-.2-.3-.1-.5-.1-.8 0-.3 0-.5.1-.7.2-.2.2-.3.3-.4.6 0 .2.1.4.2.6.2.2.4.4.6.5.1.1.2.1.4.1.1 0 .3.1.4.1h.7c.4-.1.7-.3.8-.5l.2-.2c-.1-.1-.1-.1 0-.1zM16.9 59.2l3.1-6.8"/><path class="st4" d="M16.7 59.1s0-.1.1-.3c.1-.2.2-.5.3-.8.3-.6.7-1.5 1.1-2.3.4-.8.8-1.7 1.1-2.3.3-.6.7-1 .7-1h.1v.1s-.1.5-.3 1.1c-.3.6-.7 1.5-1 2.3-.4.9-.8 1.7-1.1 2.3-.2.3-.3.6-.4.8-.1.2-.2.3-.2.3-.1.1-.2.1-.3 0-.1-.1-.1-.1-.1-.2z"/><g><path class="st4" d="M19.7 52.9l2.4 1.8M19.8 52.7h.2c.1 0 .2.1.3.2.2.2.6.4.9.6.3.2.6.5.8.7.2.2.3.4.3.4 0 .1 0 .1-.1.2 0 0-.2 0-.5-.1-.2-.2-.6-.4-.9-.6-.3-.2-.6-.5-.8-.7-.1-.1-.2-.2-.3-.2 0-.1-.1-.2-.1-.2 0-.1.1-.2.2-.3z"/></g><g><path class="st4" d="M18.9 54.5l2.5 1.8M19.1 54.3h.2c.1 0 .2.1.3.2.2.2.6.4.9.6.3.2.6.5.8.7.2.2.3.4.3.4 0 .1 0 .1-.1.2 0 0-.2 0-.5-.1-.2-.2-.6-.4-.9-.6-.3-.2-.6-.5-.8-.7-.1-.1-.2-.2-.3-.2 0-.1-.1-.2-.1-.2-.1-.1 0-.3.2-.3z"/></g></g><g class="st11"><ellipse transform="rotate(-34.583 93.803 16.897)" class="st4" cx="93.8" cy="16.9" rx="1.5" ry="1.1"/><path class="st4" d="M95.2 16c.1.1.2.2.2.4.1.3 0 .7-.2 1.1-.1.2-.3.4-.5.5-.1.1-.2.2-.3.2-.1.1-.2.1-.4.2-.3.1-.6.1-.9.1-.3 0-.7-.2-.9-.5-.2-.3-.2-.7-.2-1 .1-.3.2-.6.4-.8.2-.2.4-.4.6-.5.2-.1.4-.2.7-.2.4-.1.8.1 1 .2.4.1.4.3.5.3zm-.3.1s-.1-.1-.3-.1c-.2-.1-.4-.1-.7 0-.1 0-.3.1-.5.2s-.3.2-.4.4c-.1.2-.2.3-.3.5 0 .2 0 .3.1.5.2.2.6.3 1 .2.1 0 .2-.1.3-.1.1-.1.2-.1.2-.2.1-.1.3-.2.3-.4.2-.3.2-.5.2-.6v-.2c.1-.1 0-.1.1-.2zM95.3 16.7l-1.9-5.5"/><path class="st4" d="M95.1 16.7l-.2-.2c-.1-.1-.1-.4-.2-.6-.2-.5-.5-1.2-.7-1.9-.2-.7-.5-1.4-.6-1.9-.1-.5-.1-.9-.1-.9 0-.1.1-.1.1-.1h.1s.3.3.5.8.4 1.2.7 1.9c.3.7.5 1.4.6 1.9.1.3.2.5.2.6v.3c-.1.1-.2.2-.4.1 0 .1 0 0 0 0z"/><g><ellipse transform="rotate(-34.583 98.628 15.212)" class="st4" cx="98.6" cy="15.2" rx="1.5" ry="1.1"/><path class="st4" d="M100 14.3c.1.1.2.2.2.4.1.3 0 .7-.2 1.1-.1.2-.3.4-.5.5-.1.1-.2.2-.3.2-.1.1-.2.1-.4.2-.3.1-.6.1-.9.1-.3 0-.6-.2-.9-.5-.2-.3-.2-.7-.1-1 .1-.3.2-.6.4-.8.2-.2.4-.4.6-.5.2-.1.4-.2.7-.2.4-.1.8.1 1 .2.3.2.3.3.4.3zm-.2.1s-.1-.1-.3-.1c-.2-.1-.4-.1-.7 0-.1 0-.3.1-.5.2s-.3.2-.4.4c-.1.2-.2.3-.3.5 0 .2 0 .3.1.5.1.1.2.2.4.2s.4 0 .6-.1c.1 0 .2-.1.3-.1.1-.1.2-.1.2-.2.1-.1.3-.2.3-.4.2-.3.2-.5.2-.6v-.2l.1-.1zM100.1 15l-1.9-5.5"/><path class="st4" d="M99.9 15l-.2-.2c-.1-.1-.1-.4-.2-.6-.2-.5-.5-1.2-.7-1.9-.2-.7-.5-1.4-.6-1.9-.1-.5-.1-.9-.1-.9 0-.1.1-.1.1-.1h.1s.3.3.5.8.4 1.2.7 1.9c.3.7.5 1.4.6 1.9.1.3.2.5.2.6v.3c0 .1-.2.2-.4.1.1.1 0 .1 0 0z"/></g><g><path class="st4" d="M93.1 11.9l5.8-2M93 11.7l.2-.2c.2-.1.4-.1.7-.2.5-.2 1.3-.5 2-.7.7-.2 1.5-.5 2-.7.6-.1 1-.1 1-.1.1 0 .1 0 .1.1v.1s-.3.3-.8.5-1.3.5-2 .7c-.7.3-1.5.5-2 .7-.3.1-.5.2-.7.2h-.3c-.2 0-.3-.1-.2-.4 0 .1 0 .1 0 0z"/></g><g><path class="st4" d="M93.5 13.2l5.8-2M93.4 13l.2-.2c.2-.1.4-.1.7-.2.5-.2 1.3-.5 2-.7.7-.2 1.5-.5 2-.7.6-.1 1-.1 1-.1.1 0 .1 0 .1.1v.1s-.3.3-.8.5-1.3.5-2 .7c-.7.3-1.5.5-2 .7-.3.1-.5.2-.7.2h-.3c-.2 0-.2-.1-.2-.4 0 .1 0 .1 0 0z"/></g></g><g class="st0"><path class="st9" d="M205.8 50.1s-.7-1.6 2.1-2.3c-.1 0-.5 2.7-2.1 2.3z"/><path class="st10" d="M205.7 50.2c-.1-.3-.1-.6 0-.9.1-.3.3-.5.5-.8.4-.4 1-.6 1.6-.8l.2-.1v.2c-.1.6-.2 1.2-.6 1.7-.2.2-.4.5-.7.6-.1 0-.2 0-.2.1h-.2c-.3.1-.4 0-.6 0zm.1-.1h.4c.1 0 .1 0 .2-.1.1 0 .1 0 .2-.1.2-.1.4-.4.5-.6.3-.5.5-1 .6-1.6l.2.1c-.6.1-1.1.3-1.5.7-.2.2-.4.4-.5.7-.2.4-.2.7-.1.9z"/><path class="st9" d="M205.9 50.3s1.1-1.4 3 .7c0 0-2.6.9-3-.7z"/><path class="st10" d="M205.9 50.3c.2-.2.5-.4.8-.5.3-.1.6 0 .9.1.6.2 1.1.6 1.5 1l.1.1-.2.1c-.6.2-1.2.4-1.8.3-.3 0-.6-.1-.9-.3-.1 0-.1-.1-.2-.2s-.1-.1-.1-.2c-.1-.1-.1-.3-.1-.4zm0 0c.1.1.1.3.2.3 0 .1.1.1.1.1.1 0 .1.1.2.1.2.1.5.2.8.2.6 0 1.1-.1 1.7-.2v.2c-.4-.4-.8-.8-1.4-1-.3-.1-.5-.2-.8-.1-.3.1-.6.2-.8.4z"/><path class="st9" d="M205.6 50.1s1-1.4-1.4-2.8c0 0-.3 2.8 1.4 2.8z"/><path class="st10" d="M205.6 50.1c.1-.2.2-.5.2-.8 0-.3-.2-.5-.3-.8-.3-.5-.8-.8-1.3-1.1l.2-.1c0 .6 0 1.1.2 1.7.1.3.2.5.4.7 0 .1.1.1.1.1s.1.1.2.1c0 .1.2.1.3.2zm0 0h-.4c-.1 0-.2 0-.2-.1-.1 0-.1-.1-.2-.1-.3-.2-.4-.5-.5-.8-.2-.6-.2-1.2-.1-1.8v-.2l.1.1c.5.3 1 .7 1.3 1.2.2.3.3.5.3.8 0 .4-.1.7-.3.9z"/><g><path class="st9" d="M205.7 50.1s-.4 1.7-3 .7c0 0 1.9-2 3-.7z"/><path class="st10" d="M205.8 50.1c-.1.3-.3.5-.5.7-.2.2-.5.3-.8.3-.6.1-1.2-.1-1.8-.3l-.2-.1.1-.1c.4-.5.9-.8 1.5-1 .3-.1.6-.2.9-.1.1 0 .2.1.2.1.1 0 .1.1.2.1l.4.4zm-.1 0c-.1-.1-.2-.2-.4-.2-.1 0-.1-.1-.2-.1h-.2c-.3 0-.5 0-.8.2-.5.2-1 .6-1.4.9v-.2c.5.2 1.1.4 1.7.3.3 0 .6-.1.8-.2.2-.2.4-.4.5-.7z"/></g><g><path class="st9" d="M205.8 50.1s-1.5.8.1 3.1c0 .1 1.4-2.3-.1-3.1z"/><path class="st10" d="M205.8 50.2c-.2.2-.4.4-.5.7-.1.3-.1.6 0 .8.1.6.4 1.1.8 1.5h-.2c.2-.5.5-1.1.5-1.6v-.8c0-.1-.1-.1-.1-.2s-.1-.1-.1-.2c-.2-.1-.3-.1-.4-.2zm0-.1c.1.1.3.1.4.2.1 0 .1.1.2.2 0 .1.1.1.1.2.2.3.2.6.2.9-.1.6-.3 1.2-.6 1.7l-.1.2-.1-.2c-.3-.5-.6-1-.7-1.6 0-.3 0-.6.1-.9 0-.3.2-.5.5-.7z"/></g><g><ellipse transform="translate(-.204 .848)" class="st6" cx="205.8" cy="50" rx=".5" ry=".5"/></g></g><g class="st0"><path class="st9" d="M123.3 42.7s.6-2 3.8-.6c-.1.1-2.6 2.3-3.8.6z"/><path class="st10" d="M123.3 42.7c.1-.3.4-.6.7-.8.3-.2.7-.3 1-.3.7 0 1.4.2 2.1.5l.2.1-.1.1c-.5.5-1.2.9-1.9 1.1-.4.1-.7.1-1.1 0-.1 0-.2-.1-.3-.1-.1 0-.2-.1-.2-.2-.2 0-.3-.2-.4-.4zm0 0c.1.1.2.2.4.3.1 0 .1.1.2.1s.2.1.2.1c.3.1.7 0 1-.1.6-.2 1.2-.6 1.8-1v.2c-.6-.3-1.3-.6-2-.5-.3 0-.7.1-1 .2-.2.2-.5.4-.6.7z"/><path class="st9" d="M123.3 43s2.1-.4 2.3 3c0 0-3.2-1.2-2.3-3z"/><path class="st10" d="M123.3 43c.4-.1.7 0 1.1.2.3.2.6.5.8.8.4.6.5 1.4.6 2.1v.2l-.2-.1c-.7-.2-1.3-.6-1.9-1.1-.3-.3-.5-.6-.6-1v-.3-.3c0-.2.1-.4.2-.5zm0 0c0 .2-.1.3-.1.5v.3c0 .1 0 .2.1.2.1.3.3.6.6.8.5.5 1.1.8 1.8 1.1l-.2.1c0-.7-.2-1.4-.5-2-.2-.3-.4-.6-.7-.8-.3-.2-.7-.3-1-.2z"/><path class="st9" d="M123.2 42.6s2-.4.9-3.7c0 0-2.5 2.3-.9 3.7z"/><path class="st10" d="M123.2 42.6c.3-.1.6-.3.8-.6.2-.3.3-.6.3-1 .1-.7-.1-1.4-.4-2h.2c-.4.5-.9 1.1-1.2 1.7-.1.3-.2.6-.2 1v.2c0 .1 0 .2.1.2.2.2.3.3.4.5zm0 0c-.1-.1-.3-.2-.4-.4-.1-.1-.1-.2-.1-.2 0-.1-.1-.2-.1-.3-.1-.4 0-.8.1-1.1.3-.7.7-1.3 1.3-1.8l.1-.1.1.2c.2.7.4 1.4.3 2.1 0 .4-.2.7-.4 1-.2.3-.6.5-.9.6z"/><g><path class="st9" d="M123.3 42.7s-1.7 1.2-3.4-1.8c0 0 3.4-.2 3.4 1.8z"/><path class="st10" d="M123.3 42.7c-.3.2-.7.3-1 .3-.4 0-.7-.2-1-.4-.6-.4-1-1-1.4-1.6l-.1-.2h.2c.7-.1 1.5 0 2.2.2.3.1.7.3.9.6.1.1.1.2.2.2.1.1.1.2.1.3-.1.3-.1.4-.1.6zm0 0c0-.2-.1-.3-.1-.5 0-.1-.1-.2-.1-.2l-.2-.2c-.2-.2-.5-.4-.9-.5-.6-.2-1.4-.3-2-.3l.1-.2c.3.6.7 1.2 1.3 1.6.3.2.6.4.9.4.3.2.7.1 1-.1z"/></g><g><path class="st9" d="M123.3 42.7s-2-.4-2.3 3c0 0 3.1-1.1 2.3-3z"/><path class="st10" d="M123.3 42.8c-.3 0-.7 0-1 .2-.3.2-.5.5-.7.8-.3.6-.5 1.3-.5 2l-.2-.1c.6-.3 1.3-.6 1.8-1.1.3-.2.5-.5.6-.8 0-.1 0-.2.1-.2v-.2c0-.3-.1-.5-.1-.6zm0-.1c.1.2.2.3.2.5v.6c-.1.4-.3.7-.6 1-.5.5-1.2.9-1.9 1.1l-.2.1v-.2c.1-.7.2-1.4.6-2.1.2-.3.5-.6.8-.8.4-.2.7-.2 1.1-.2z"/></g><g><ellipse transform="rotate(-49.937 123.477 42.674)" class="st6" cx="123.5" cy="42.7" rx=".6" ry=".6"/></g></g><g class="st11"><path class="st4" d="M41.6 72.7s-.7 1.3-1.5 2.5c-.4.6-.8 1.2-1.1 1.7-.3.4-.5.7-.5.7l-.3-.2s.2-.3.4-.8c.3-.5.7-1.1 1.1-1.7.8-1.2 1.7-2.4 1.7-2.4l.2.2z"/><path class="st4" d="M44.8 75.3V75c0-.1-.1-.2-.2-.2-.1-.1-.1-.1-.2-.1h-.3l-1.4-.2c-.3-.1-.6-.3-.7-.7v-.3-.3c.1-.2.1-.3.3-.4.1-.1.3-.2.5-.2h.5l.8.1-.2.1.1-.1h.1l.6.1h.5c.1 0 .3-.1.3-.3v-.2c0-.1 0-.1-.1-.2l-.3-.3h-.6l-1.3-.1-.8-.1.6-.3c.1 0 .1-.2.2-.3l.2-.3.4-.7.2-.3c.1-.1.1-.1.1-.2 0-.2-.1-.4-.2-.4-.1-.1-.2-.1-.2-.1-.1 0-.2 0-.2.1l-.2.2-.2.3-.4.7-.2.3-.1.2s0 .1-.1.2l-.2.5-.3-.5-.8-1.6-.2-.3c0-.1 0-.1-.1-.1l-.1-.1c-.1-.1-.3-.1-.4 0h-.3.3c-.1.1-.2.3-.2.5v.1l.1.2.2.4.1.2-.1.1v-.3l.4.8.2.4s.1.2.1.3v.3c0 .2-.1.4-.2.6l-.2.2-.1.1c-.1 0-.1 0-.2.1-.4.1-.9-.1-1.1-.4l-.7-1.2s0-.1-.1-.1c0 0 0-.1-.1-.1s-.1-.1-.2-.1h-.2c-.1 0-.2.1-.2.1-.1.1-.2.2-.2.4 0 .1 0 .1.1.2l.2.3.7 1.2.1.1-.1.1v-.2l1.3 2.3-.2-.1 2.8.4 1.4.2h.3c.1 0 .2 0 .2-.1.4-.3.5-.5.5-.6zm.4 0c0 .3-.2.6-.5.7-.1.1-.3.1-.4.1h-.4l-1.4-.2-2.8-.3h-.1l-.1-.1-1.3-2.2-.1-.1.1-.1v.2l-.7-1.3-.2-.3c-.1-.1-.1-.3-.1-.4 0-.3.1-.6.4-.8.1-.1.3-.2.4-.2h.5c.2 0 .3.1.4.2l.2.2c0 .1.1.1.1.2l.7 1.2c.1.2.3.2.5.2h.2l.1-.1c.1-.1.1-.2.1-.2v-.1c0-.1 0-.1-.1-.1l-.2-.4-.4-.8-.1-.2.1-.2v.3l-.4-.5-.1-.2c-.1-.1-.1-.2-.1-.3-.1-.4.1-.9.5-1.1h.3-.3c.3-.2.7-.2 1 0 .1 0 .1.1.2.2s.1.2.2.2l.2.4.7 1.4h-.5c0-.1 0-.1.1-.2l.1-.2.2-.3.5-.7.2-.3c.1-.1.2-.3.4-.4.2-.1.3-.1.5-.1s.4.1.5.2c.3.2.5.6.5.9 0 .2-.1.4-.2.5l-.2.3-.5.7-.2.3c-.1.1-.1.2-.3.3l-.2-.4 1.3.2h.3c.1 0 .2 0 .3.1.3.1.5.3.6.5.1.1.1.3.1.4 0 .1 0 .3-.1.4-.1.3-.4.5-.6.5h-.7l-.6-.1.2-.1v.1h-.1l-.8-.1h-.3c-.1 0-.2.1-.2.1l-.2.2v.2c0 .2.2.3.4.4l1.4.2c.1 0 .2 0 .4.1.2 0 .3.1.4.2.1.1.2.2.3.4-.1.1-.1.3-.1.4z"/><path class="st4" d="M41 73.6s-.5 1-1.1 1.9c-.3.5-.6.9-.8 1.3l-.4.6-.3-.2s.1-.3.3-.6c.2-.4.5-.8.8-1.3l1.2-1.8.3.1z"/></g><g class="st11"><path class="st4" d="M74.1 78.6s.5.7.9 1.5c.2.4.4.8.5 1.1.1.3.2.5.2.5l-.4.2s-.1-.2-.3-.5c-.2-.3-.4-.7-.6-1.1-.4-.8-.7-1.6-.7-1.6l.4-.1z"/><path class="st4" d="M76.3 77.9h-.1-.1s-.1 0-.1.1h-.2l-.5.7c-.2.2-.4.3-.6.2-.1 0-.1 0-.2-.1-.1 0-.1-.1-.1-.1-.1-.1-.1-.2-.2-.3V78c0-.1.1-.2.2-.3l.3-.4v.2l-.1-.1.1-.1.2-.3h.1v-.1-.2l-.1-.1h-.1c-.1 0-.1 0-.2.1l-.1.3-.5.6-.4-.1s0-.1-.1-.2l-.1-.2-.2-.4-.1-.2c0-.1 0 0-.1-.1h-.2l-.1.1v.2l.1.2.2.4.1.2.1.1.1.1.3.4h-1.8l-.1.1-.2.3.2-.3c0 .1 0 .1.1.1H72.4l.1.2-.3-.2h1c.1 0 .1.1.2.1.1.1.2.2.2.3v.4c-.1.3-.4.5-.6.5h-.8-.1-.1v.2s0 .1.1.1H73.3l.1.1-.2-.1h1.5l-.2.1 1-1.3.5-.7c0-.1.1-.1.1-.2v-.1c.2.3.2.2.2.2zm.2-.4c.2.1.3.3.2.5 0 .1 0 .2-.1.3-.1.1-.1.1-.1.2l-.5.7-1 1.3-.1.1H73.2l-.1-.1.2.1h-1c-.1 0-.2 0-.3-.1-.2-.1-.3-.3-.4-.5v-.3c0-.1.1-.2.2-.3.1-.1.2-.1.3-.2h1.1c.1 0 .1-.1.1-.1s0-.1-.1-.1h-1l-.1-.2.3.2H71.8c-.3-.1-.5-.4-.5-.7l.2-.3-.2.3c0-.3.2-.5.4-.6.1 0 .1-.1.2-.1h1.3l-.3.4-.1-.1v-.1l-.1-.2-.2-.4-.1-.2c0-.1-.1-.2-.1-.3 0-.1 0-.3.1-.4l.3-.3c.2-.1.5-.1.7.1.1.1.2.2.2.3l.1.2.2.4.1.2c0 .1.1.1.1.3l-.4-.1.5-.6.1-.1c0-.1.1-.1.1-.2.1-.1.3-.2.5-.2.1 0 .2 0 .3.1.1 0 .2.1.2.2.1.2.1.4.1.6 0 .1-.1.2-.1.2l-.1.1-.3.2v-.2l.1.1-.1.1-.3.4-.1.1v.1c0 .2.2.2.4.1l.5-.7.1-.2c.1-.1.2-.1.3-.2h.3c.1.1.2.2.3.2z"/><path class="st4" d="M74.4 79.2s.4.5.7 1.1c.1.3.3.6.4.8.1.2.1.4.1.4l-.4.2s-.1-.1-.2-.3c-.1-.2-.3-.5-.4-.8-.4-.6-.6-1.2-.6-1.2l.4-.2z"/></g></svg>