<?xml version="1.0" encoding="utf-8"?>
<!-- Generator: Adobe Illustrator 21.0.0, SVG Export Plug-In . SVG Version: 6.00 Build 0)  -->
<!DOCTYPE svg PUBLIC "-//W3C//DTD SVG 1.1//EN" "http://www.w3.org/Graphics/SVG/1.1/DTD/svg11.dtd">
<svg version="1.1" id="Layer_1" xmlns="http://www.w3.org/2000/svg" xmlns:xlink="http://www.w3.org/1999/xlink" x="0px" y="0px"
	 viewBox="0 0 160 160" style="enable-background:new 0 0 160 160;" xml:space="preserve">
<style type="text/css">
	.st0{fill:#A8BECE;}
</style>
<path class="st0" d="M56.4,121.6h-5c-0.3,0-0.5-0.2-0.5-0.5s0.2-0.5,0.5-0.5h4.5v-4.5c0-0.3,0.2-0.5,0.5-0.5s0.5,0.2,0.5,0.5v5
	C56.9,121.3,56.6,121.6,56.4,121.6z M46.4,121.6h-5c-0.3,0-0.5-0.2-0.5-0.5s0.2-0.5,0.5-0.5h5c0.3,0,0.5,0.2,0.5,0.5
	S46.6,121.6,46.4,121.6z M36.4,121.6H33c-0.3,0-0.5-0.2-0.5-0.5v-1.6c0-0.3,0.2-0.5,0.5-0.5s0.5,0.2,0.5,0.5v1.1h2.9
	c0.3,0,0.5,0.2,0.5,0.5S36.6,121.6,36.4,121.6z M33,114.9c-0.3,0-0.5-0.2-0.5-0.5v-5c0-0.3,0.2-0.5,0.5-0.5s0.5,0.2,0.5,0.5v5
	C33.5,114.7,33.3,114.9,33,114.9z M56.4,111.6c-0.3,0-0.5-0.2-0.5-0.5v-5c0-0.3,0.2-0.5,0.5-0.5s0.5,0.2,0.5,0.5v5
	C56.9,111.3,56.6,111.6,56.4,111.6z M33,104.9c-0.3,0-0.5-0.2-0.5-0.5v-5c0-0.3,0.2-0.5,0.5-0.5s0.5,0.2,0.5,0.5v5
	C33.5,104.7,33.3,104.9,33,104.9z M56.4,101.6c-0.3,0-0.5-0.2-0.5-0.5v-5c0-0.3,0.2-0.5,0.5-0.5s0.5,0.2,0.5,0.5v5
	C56.9,101.3,56.6,101.6,56.4,101.6z M33,94.9c-0.3,0-0.5-0.2-0.5-0.5v-5c0-0.3,0.2-0.5,0.5-0.5s0.5,0.2,0.5,0.5v5
	C33.5,94.7,33.3,94.9,33,94.9z M56.4,91.6c-0.3,0-0.5-0.2-0.5-0.5v-5c0-0.3,0.2-0.5,0.5-0.5s0.5,0.2,0.5,0.5v5
	C56.9,91.3,56.6,91.6,56.4,91.6z M33,84.9c-0.3,0-0.5-0.2-0.5-0.5v-5c0-0.3,0.2-0.5,0.5-0.5s0.5,0.2,0.5,0.5v5
	C33.5,84.7,33.3,84.9,33,84.9z M56.4,81.6c-0.3,0-0.5-0.2-0.5-0.5v-5c0-0.3,0.2-0.5,0.5-0.5s0.5,0.2,0.5,0.5v5
	C56.9,81.3,56.6,81.6,56.4,81.6z M33,74.9c-0.3,0-0.5-0.2-0.5-0.5v-5c0-0.3,0.2-0.5,0.5-0.5s0.5,0.2,0.5,0.5v5
	C33.5,74.7,33.3,74.9,33,74.9z M56.4,71.6c-0.3,0-0.5-0.2-0.5-0.5v-5c0-0.3,0.2-0.5,0.5-0.5s0.5,0.2,0.5,0.5v5
	C56.9,71.3,56.6,71.6,56.4,71.6z M33,64.9c-0.3,0-0.5-0.2-0.5-0.5v-2.5c0-0.3,0.2-0.5,0.5-0.5h2.5c0.3,0,0.5,0.2,0.5,0.5
	s-0.2,0.5-0.5,0.5h-2v2C33.5,64.7,33.3,64.9,33,64.9z M55.5,62.4h-5c-0.3,0-0.5-0.2-0.5-0.5s0.2-0.5,0.5-0.5h5
	c0.3,0,0.5,0.2,0.5,0.5S55.8,62.4,55.5,62.4z M45.5,62.4h-5c-0.3,0-0.5-0.2-0.5-0.5s0.2-0.5,0.5-0.5h5c0.3,0,0.5,0.2,0.5,0.5
	S45.8,62.4,45.5,62.4z M127.1,121.6h-5c-0.3,0-0.5-0.2-0.5-0.5s0.2-0.5,0.5-0.5h4.5v-1.5c0-0.3,0.2-0.5,0.5-0.5s0.5,0.2,0.5,0.5v2
	C127.6,121.3,127.4,121.6,127.1,121.6z M117.1,121.6h-5c-0.3,0-0.5-0.2-0.5-0.5s0.2-0.5,0.5-0.5h5c0.3,0,0.5,0.2,0.5,0.5
	S117.4,121.6,117.1,121.6z M107.1,121.6h-5c-0.3,0-0.5-0.2-0.5-0.5s0.2-0.5,0.5-0.5h5c0.3,0,0.5,0.2,0.5,0.5
	S107.4,121.6,107.1,121.6z M97.1,121.6h-5c-0.3,0-0.5-0.2-0.5-0.5s0.2-0.5,0.5-0.5h5c0.3,0,0.5,0.2,0.5,0.5S97.4,121.6,97.1,121.6z
	 M87.1,121.6h-5c-0.3,0-0.5-0.2-0.5-0.5s0.2-0.5,0.5-0.5h5c0.3,0,0.5,0.2,0.5,0.5S87.4,121.6,87.1,121.6z M77.1,121.6h-5
	c-0.3,0-0.5-0.2-0.5-0.5s0.2-0.5,0.5-0.5h5c0.3,0,0.5,0.2,0.5,0.5S77.4,121.6,77.1,121.6z M69.9,118.8c-0.3,0-0.5-0.2-0.5-0.5v-5
	c0-0.3,0.2-0.5,0.5-0.5s0.5,0.2,0.5,0.5v5C70.4,118.6,70.2,118.8,69.9,118.8z M127.1,114.6c-0.3,0-0.5-0.2-0.5-0.5v-5
	c0-0.3,0.2-0.5,0.5-0.5s0.5,0.2,0.5,0.5v5C127.6,114.3,127.4,114.6,127.1,114.6z M69.9,108.8c-0.3,0-0.5-0.2-0.5-0.5v-5
	c0-0.3,0.2-0.5,0.5-0.5s0.5,0.2,0.5,0.5v5C70.4,108.6,70.2,108.8,69.9,108.8z M127.1,104.6c-0.3,0-0.5-0.2-0.5-0.5v-5
	c0-0.3,0.2-0.5,0.5-0.5s0.5,0.2,0.5,0.5v5C127.6,104.3,127.4,104.6,127.1,104.6z M69.9,98.8c-0.3,0-0.5-0.2-0.5-0.5v-5
	c0-0.3,0.2-0.5,0.5-0.5s0.5,0.2,0.5,0.5v5C70.4,98.6,70.2,98.8,69.9,98.8z M127.1,94.6c-0.3,0-0.5-0.2-0.5-0.5v-5
	c0-0.3,0.2-0.5,0.5-0.5s0.5,0.2,0.5,0.5v5C127.6,94.3,127.4,94.6,127.1,94.6z M69.9,88.8c-0.3,0-0.5-0.2-0.5-0.5v-1
	c0-0.3,0.2-0.5,0.5-0.5h4c0.3,0,0.5,0.2,0.5,0.5s-0.2,0.5-0.5,0.5h-3.5v0.5C70.4,88.6,70.2,88.8,69.9,88.8z M123.9,87.8h-5
	c-0.3,0-0.5-0.2-0.5-0.5s0.2-0.5,0.5-0.5h5c0.3,0,0.5,0.2,0.5,0.5S124.2,87.8,123.9,87.8z M113.9,87.8h-5c-0.3,0-0.5-0.2-0.5-0.5
	s0.2-0.5,0.5-0.5h5c0.3,0,0.5,0.2,0.5,0.5S114.2,87.8,113.9,87.8z M103.9,87.8h-5c-0.3,0-0.5-0.2-0.5-0.5s0.2-0.5,0.5-0.5h5
	c0.3,0,0.5,0.2,0.5,0.5S104.2,87.8,103.9,87.8z M93.9,87.8h-5c-0.3,0-0.5-0.2-0.5-0.5s0.2-0.5,0.5-0.5h5c0.3,0,0.5,0.2,0.5,0.5
	S94.2,87.8,93.9,87.8z M83.9,87.8h-5c-0.3,0-0.5-0.2-0.5-0.5s0.2-0.5,0.5-0.5h5c0.3,0,0.5,0.2,0.5,0.5S84.2,87.8,83.9,87.8z
	 M127.1,72.9h-5c-0.3,0-0.5-0.2-0.5-0.5s0.2-0.5,0.5-0.5h4.5V67c0-0.3,0.2-0.5,0.5-0.5s0.5,0.2,0.5,0.5v5.4
	C127.6,72.6,127.4,72.9,127.1,72.9z M117.1,72.9h-5c-0.3,0-0.5-0.2-0.5-0.5s0.2-0.5,0.5-0.5h5c0.3,0,0.5,0.2,0.5,0.5
	S117.4,72.9,117.1,72.9z M107.1,72.9h-5c-0.3,0-0.5-0.2-0.5-0.5s0.2-0.5,0.5-0.5h5c0.3,0,0.5,0.2,0.5,0.5S107.4,72.9,107.1,72.9z
	 M97.1,72.9h-5c-0.3,0-0.5-0.2-0.5-0.5s0.2-0.5,0.5-0.5h5c0.3,0,0.5,0.2,0.5,0.5S97.4,72.9,97.1,72.9z M87.1,72.9h-5
	c-0.3,0-0.5-0.2-0.5-0.5s0.2-0.5,0.5-0.5h5c0.3,0,0.5,0.2,0.5,0.5S87.4,72.9,87.1,72.9z M77.1,72.9h-5c-0.3,0-0.5-0.2-0.5-0.5
	s0.2-0.5,0.5-0.5h5c0.3,0,0.5,0.2,0.5,0.5S77.4,72.9,77.1,72.9z M69.9,70.1c-0.3,0-0.5-0.2-0.5-0.5v-5c0-0.3,0.2-0.5,0.5-0.5
	s0.5,0.2,0.5,0.5v5C70.4,69.9,70.2,70.1,69.9,70.1z M127.1,62.5c-0.1,0-0.2,0-0.3-0.1h-4.6c-0.3,0-0.5-0.2-0.5-0.5s0.2-0.5,0.5-0.5
	h4.9c0.3,0,0.5,0.2,0.5,0.5V62C127.6,62.3,127.4,62.5,127.1,62.5z M117.2,62.4h-5c-0.3,0-0.5-0.2-0.5-0.5s0.2-0.5,0.5-0.5h5
	c0.3,0,0.5,0.2,0.5,0.5S117.5,62.4,117.2,62.4z M107.2,62.4h-5c-0.3,0-0.5-0.2-0.5-0.5s0.2-0.5,0.5-0.5h5c0.3,0,0.5,0.2,0.5,0.5
	S107.5,62.4,107.2,62.4z M97.2,62.4h-5c-0.3,0-0.5-0.2-0.5-0.5s0.2-0.5,0.5-0.5h5c0.3,0,0.5,0.2,0.5,0.5S97.5,62.4,97.2,62.4z
	 M87.2,62.4h-5c-0.3,0-0.5-0.2-0.5-0.5s0.2-0.5,0.5-0.5h5c0.3,0,0.5,0.2,0.5,0.5S87.5,62.4,87.2,62.4z M77.2,62.4h-5
	c-0.3,0-0.5-0.2-0.5-0.5s0.2-0.5,0.5-0.5h5c0.3,0,0.5,0.2,0.5,0.5S77.5,62.4,77.2,62.4z M16.5,134.9c-0.4-28-0.7-56.1-0.8-84.1
	l-0.1-10.5V35c0-0.9,0.1-1.9,0.4-2.9c0.3-0.9,0.8-1.8,1.3-2.6c1.2-1.6,2.9-2.7,4.9-3.2c1-0.2,2-0.2,2.8-0.2h13.1L80.2,26l42.1-0.1
	h13.1c0.8,0,1.9,0,2.9,0.2c2,0.4,3.7,1.6,5,3.2c0.6,0.8,1.1,1.7,1.4,2.7c0.3,0.9,0.4,2,0.4,2.9v15.8l-0.1,84.1c0,0.5-0.4,1-1,1
	l-58.7-0.2L56,135.5l-29.3-0.2c-0.2,0-0.4-0.2-0.4-0.4s0.2-0.4,0.4-0.4l29.3-0.2l29.3-0.1L144,134l-1,1l-0.1-84.1V35.1
	c0-0.8-0.1-1.5-0.3-2.3c-0.2-0.7-0.6-1.4-1-2c-0.9-1.2-2.2-2.1-3.7-2.4c-0.7-0.2-1.4-0.2-2.4-0.2h-13.1l-42.1-0.1L38.2,28H25.1
	c-0.9,0-1.6,0-2.4,0.2c-1.5,0.3-2.8,1.2-3.8,2.4c-0.5,0.6-0.8,1.3-1.1,2c-0.2,0.8-0.3,1.5-0.3,2.3v15.8c0,28-0.2,56.1-0.5,84.1
	c0,0.1-0.1,0.2-0.2,0.2C16.6,135.1,16.5,135,16.5,134.9L16.5,134.9z M150.2,46.9c-11.7,0.6-23.3,0.7-35,0.8l-17.5,0.1H80.2l-35-0.2
	c-11.7-0.1-23.3-0.2-35-0.6c-0.2,0-0.4-0.2-0.4-0.4s0.2-0.4,0.4-0.4c11.7-0.4,23.3-0.5,35-0.6l35-0.2h17.5l17.5,0.1
	c11.7,0.1,23.3,0.3,35,0.8c0.1,0,0.2,0.1,0.2,0.2C150.4,46.8,150.3,46.9,150.2,46.9z M69.2,118.5c-0.1,0-0.2,0-0.2-0.1
	c-0.2-0.1-0.3-0.4-0.2-0.7c0.8-1.5,1.8-3,2.8-4.2c0.2-0.2,0.5-0.2,0.7-0.1c0.2,0.2,0.2,0.5,0.1,0.7c-1,1.2-1.9,2.6-2.7,4.1
	C69.5,118.4,69.3,118.5,69.2,118.5z M104.2,112h-0.3c-0.3,0-0.5-0.2-0.5-0.5s0.2-0.5,0.5-0.5h0.4c1.4,0,2.7-0.4,4.1-1.2
	c0.2-0.1,0.5-0.1,0.7,0.2c0.1,0.2,0.1,0.5-0.2,0.7C107.3,111.6,105.7,112,104.2,112z M99,111.2h-0.2c-1.3-0.4-2.5-0.9-3.7-1.4
	l-1-0.4c-0.3-0.1-0.4-0.4-0.3-0.7c0.1-0.3,0.4-0.4,0.7-0.3l1,0.4c1.2,0.5,2.4,1,3.6,1.4c0.3,0.1,0.4,0.4,0.3,0.6
	C99.4,111,99.2,111.2,99,111.2z M75.5,110.8c-0.1,0-0.3-0.1-0.4-0.2c-0.2-0.2-0.1-0.5,0.1-0.7c1.4-1.1,2.9-2,4.4-2.6
	c0.3-0.1,0.5,0,0.7,0.3c0.1,0.3,0,0.5-0.3,0.7c-1.4,0.6-2.9,1.4-4.2,2.5C75.8,110.8,75.5,110.8,75.5,110.8z M89.6,107.7
	c-1.7-0.4-3.2-0.5-4.9-0.5c-0.3,0-0.5-0.2-0.5-0.5s0.2-0.5,0.5-0.5c1.7,0,3.4,0.2,5,0.6c0.3,0.1,0.4,0.3,0.4,0.6
	C90,107.6,89.8,107.7,89.6,107.7z M112.6,107.7c-0.1,0-0.3-0.1-0.4-0.2c-0.2-0.2-0.2-0.5,0.1-0.7l0.5-0.5l3.3-2.8
	c0.2-0.2,0.5-0.1,0.7,0.1s0.1,0.5-0.1,0.7c-1.2,0.9-2.2,1.8-3.3,2.7l-0.5,0.5C112.8,107.6,112.7,107.7,112.6,107.7z M120.7,101.9
	c-0.2,0-0.4-0.1-0.5-0.3c-0.1-0.3,0-0.5,0.3-0.7c1.6-0.7,3.2-1.1,5-1.3c0.3,0,0.5,0.2,0.5,0.4c0,0.3-0.2,0.5-0.4,0.5
	c-1.6,0.2-3.1,0.6-4.7,1.2C120.8,101.9,120.8,101.9,120.7,101.9z"/>
</svg>
