<svg viewBox="0 0 315 129" xmlns="http://www.w3.org/2000/svg"><g fill="none" fill-rule="evenodd"><path d="m156.63 50.227c.80309-.18007 1.6062-.21269 2.4093-.20767.80309.011293 1.6062.054585 2.4093.20642.053385.010039.089362.065251.079497.12297-.006963.045174-.040039.078427-.079497.086583-.80309.15183-1.6062.19513-2.4093.20579-.80309.0056467-1.6062-.027606-2.4093-.20705-.052805-.011921-.086461-.067761-.076016-.12486.008124-.042664.039459-.074035.076016-.082191" fill="#c3c4c7"/><path d="m179.65 68.698c.80309-.17944 1.6062-.21269 2.4093-.20705.80309.010666 1.6062.053958 2.4093.20642.053385.010039.089362.064624.079497.12235-.006963.045174-.040038.079054-.079497.086583-.80309.15183-1.6062.19513-2.4093.20579-.80309.0056467-1.6062-.026979-2.4093-.20705-.052805-.011921-.08646-.067761-.076015-.12486.008123-.042664.039458-.074035.076015-.082191" fill="#c3c4c7"/><path d="m121.83 58.258c.80309-.18007 1.6062-.21269 2.4093-.20705.80309.010666 1.6062.053958 2.4093.20579.053385.010039.089362.065251.079497.12297-.006963.045174-.040039.078427-.079497.086583-.80309.15183-1.6062.19513-2.4093.20579-.80309.0056467-1.6062-.027606-2.4093-.20705-.052805-.011921-.087041-.067761-.076016-.12486.008124-.042664.038878-.074035.076016-.082191" fill="#c3c4c7"/><path d="m229.09 111.13h58.96v-50.163h-58.96z" fill="#98c6d9"/><path d="m235.6 72.111v17.261h26.253v-24.101h-19.412c-3.7781 0-6.8402 3.0627-6.8402 6.8402" fill="#dcdcde"/><path d="m267.02 108.31h15.49v-43.039h-15.49z" fill="#dcdcde"/><path d="m269.27 84.34h11.19v-16.302h-11.19z" fill="#fff"/><path d="m280.8 31.162h.068692l13.733 20.696h-.006615v3.2071c0 3.1636-2.4957 5.7592-5.6565 5.8839-.28259.011605-.57853.017408-.88955.017408h-58.961v-9.1085l.006034-20.696.000233-5.4653h51.381l.3245 5.4653z" fill="#3895ba"/><path d="m281.32 93.251h17.215" fill="#fff"/><path d="m286.54 110.55h6.77" fill="#fff"/><path d="m170.78 111.07h58.25v-84.58h-58.25z" fill="#dcdcde"/><path d="m206.64 83.309h-25.938c-2.6066 0-4.7193-2.1128-4.7193-4.7193v-25.938h30.657v30.657z" fill="#98c6d9"/><path d="m175.98 49.557h48.36v-9.864h-48.36z" fill="#fff"/><path d="m209.64 88.822h14.7v-36.17h-14.7z" fill="#98c6d9"/><path d="m170.57 88.822h59.358" fill="#fff"/><path d="m170.57 88.435c2.4731-.27099 4.9462-.17582 7.4199-.20542l7.4199-.024371c4.9462-.0058027 9.893-.056286 14.839-.023791l14.84.048743c4.9462-.0029013 9.893.063249 14.839.39806v.38704c-4.9462.33482-9.893.40155-14.839.39864l-14.84.048743c-4.9462.032495-9.893-.017988-14.839-.024371l-7.4199-.024371c-2.4737-.029594-4.9468.066151-7.4199-.20542v-.7735z" fill="#187aa2"/><path d="m229.03 94.238h-20.608" fill="#fff"/><path d="m229.03 94.625c-.8588.27621-1.717.17234-2.5758.20542l-2.5764.024371c-1.717.0092843-3.4346.048162-5.1516.032495-1.7176.0023211-3.4352-.02147-5.1522-.050483-1.7176-.016248-3.4352-.058027-5.1522-.40503v-.38704c1.717-.34758 3.4346-.38878 5.1522-.40503 1.717-.029594 3.4346-.053385 5.1522-.051064 1.717-.015667 3.4346.023211 5.1516.032495l2.5764.024952c.8588.032495 1.717-.071373 2.5758.20542v.7735z" fill="#187aa2"/><path d="m208.42 98.88h20.608" fill="#fff"/><path d="m208.42 98.493c.8588-.27621 1.717-.17234 2.5758-.20542l2.5764-.024371c1.717-.0098646 3.4346-.048162 5.1522-.032495 1.717-.0029013 3.4346.02147 5.1516.050484 1.7176.016248 3.4352.057447 5.1522.40503v.38704c-1.717.34758-3.4346.38878-5.1522.40503-1.717.029013-3.4346.053385-5.1516.050483-1.7176.016248-3.4352-.02263-5.1522-.032495l-2.5764-.024371c-.8588-.032495-1.717.070793-2.5758-.20542v-.7735z" fill="#187aa2"/><path d="m208.42 103.52h20.608" fill="#fff"/><path d="m208.42 103.14c.8588-.27621 1.717-.17234 2.5758-.20542l2.5764-.024371c1.717-.009864 3.4346-.048162 5.1522-.032495 1.717-.002901 3.4346.02147 5.1516.050483 1.7176.016248 3.4352.057447 5.1522.40503v.38704c-1.717.34758-3.4346.38878-5.1522.40503-1.717.029013-3.4346.053385-5.1516.050483-1.7176.016248-3.4352-.02263-5.1522-.032495l-2.5764-.024371c-.8588-.032495-1.717.070793-2.5758-.20542v-.7735z" fill="#187aa2"/><path d="m186.98 69.22-2.6791-1.3039c1.9631-5.6733 6.1822-5.8294 6.1822-5.8294l1.5325 1.0288 1.5557-1.0288c3.5199.87331 4.7565 5.2207 4.7565 6.6081l-2.6327.70677.22456 6.0673h-9.2669l.32727-6.2489z" fill="#fff"/><path d="m102.17 111.03v-69.137l14.66-24.059 17.42 25.718 36.61.277v67.201z" fill="#004e6e"/><path d="m112.33 93.247h8.57v-22.51h-8.57z" fill="#3895ba"/><path d="m137.55 68.018v43.212h12.16 12.16v-43.212z" fill="#3895ba"/><path d="m116.61 35.747c-.7439.0092843-4.2864.28433-4.2864 4.6752v15.231h4.2864 4.2864v-15.231c0-4.3909-3.5425-4.6659-4.2864-4.6752" fill="#3895ba"/><path d="m142.04 111.23h15.35v-30.999h-15.35z" fill="#98c6d9"/><path d="m95.576 43.579 21.534-34.0338 9.37 13.7058 44.38-.023v20.639l-36.91-.114-16.84-25.718-15.52 25.544z" fill="#3895ba"/><path d="m200.43 26.49h32.781c-5.1267-4.207-8.5445-26.112-8.5445-26.112l-24.236-.35571v-.0023211l-.077175.0011605-.077176-.0011605v.0023211l-24.236.35571s-3.4178 21.905-8.545 26.112h32.781" fill="#004e6e"/><path d="m137.15 69.774c0-6.9563 5.6396-12.596 12.596-12.596 6.9563 0 12.596 5.6402 12.596 12.596v3.4961h-25.192z" fill="#dcdcde"/><path d="m162.92 111.3c-2.201.21992-4.4019.21818-6.6029.23095l-6.6029.038878-6.6029-.038878c-2.2004-.012766-4.4013-.010445-6.6023-.23095v-.14507c2.201-.2205 4.4019-.21818 6.6023-.23095l6.6029-.038878 6.6029.038878c2.201.012766 4.4019.011025 6.6029.23095z" fill="#fff"/><path d="m152.85 65.715c.37195-.52456.43578-1.6764-.32205-2.4325-1.0497-1.0485-2.787-2.1447-2.787-2.1447s-.23501.61915-1.428.94584c-1.6938.46364-1.3543 1.6097-1.3543 1.6097-.86634.4793-1.2337 1.3787-.57679 2.0217" fill="#3895ba"/><path d="m145.99 65.904.89013 3.2437c.15435.56112.66383.9499 1.2458.9499h3.1236c.58027 0 1.0892-.38646 1.2447-.94526l.90464-3.2483" fill="#98c6d9"/><path d="m146.42 65.931c-.4294-.34642-.65454-1.0404-.37601-1.6224.27215-.57621.83443-.90232 1.3625-1.0718.53559-.17524 1.106-.22108 1.6224-.25996.5176-.041199 1.0306-.13404 1.5563-.2234l.053965.16538c-.48801.24139-1.0178.39052-1.5586.47988-.54081.073114-1.041.1265-1.5174.30464-.46886.15667-.91044.40967-1.1257.79845-.22166.3853-.17872.89652.051064 1.3758l-.068472.053385z" fill="#98c6d9"/><path d="m145.45 65.59c.34874-.1381.6969-.08646 1.0456-.10271l1.0456-.012186c.69748-.0046422 1.3944-.024371 2.0919-.016248.69748-.0011606 1.3944.010445 2.0913.025532.69748.0081238 1.3944.028433 2.0919.20251v.19323c-.69748.1735-1.3944.19439-2.0919.20251-.6969.014507-1.3938.026692-2.0913.025532-.69748.0081238-1.3944-.011605-2.0919-.016248l-1.0456-.012186c-.34874-.016828-.6969.035396-1.0456-.10271v-.38704z" fill="#004e6e"/><path d="m152.47 62.904c.075435.32727-.051063.70155-.27969.9557-.22689.26112-.51122.45261-.81006.58549-.60464.24603-1.2366.37834-1.8673.30058l-.018568-.17292c.58201-.21354 1.1681-.31393 1.6805-.57505.25532-.12186.49845-.25996.69748-.44042.20484-.1793.3557-.3853.51122-.66383l.08646.010445z" fill="#98c6d9"/><g fill="#dcdcde"><path d="m141.34 73.126c0 1.1594-.94004 2.0994-2.0994 2.0994s-2.0994-.94004-2.0994-2.0994c0-1.16.94004-2.0994 2.0994-2.0994s2.0994.93946 2.0994 2.0994"/><path d="m145.54 73.126c0 1.1594-.94004 2.0994-2.0994 2.0994s-2.0994-.94004-2.0994-2.0994c0-1.16.94004-2.0994 2.0994-2.0994s2.0994.93946 2.0994 2.0994"/><path d="m149.74 73.126c0 1.1594-.94004 2.0994-2.0994 2.0994s-2.0994-.94004-2.0994-2.0994c0-1.16.94004-2.0994 2.0994-2.0994s2.0994.93946 2.0994 2.0994"/><path d="m153.94 73.126c0 1.1594-.94004 2.0994-2.0994 2.0994s-2.0994-.94004-2.0994-2.0994c0-1.16.94004-2.0994 2.0994-2.0994s2.0994.93946 2.0994 2.0994"/><path d="m158.14 73.126c0 1.1594-.94004 2.0994-2.0994 2.0994s-2.0994-.94004-2.0994-2.0994c0-1.16.94004-2.0994 2.0994-2.0994s2.0994.93946 2.0994 2.0994"/><path d="m162.34 73.126c0 1.1594-.94004 2.0994-2.0994 2.0994s-2.0988-.94004-2.0988-2.0994c0-1.16.93946-2.0994 2.0988-2.0994s2.0994.93946 2.0994 2.0994"/></g><path d="m.083862 110.65 19.672-.19555 19.672-.094003 39.344-.17756 78.687-.073114 78.687.094004 39.344.12824 19.672.070792 19.672.13114c.093264.000581.16838.10503.16796.23327-.000422.12708-.075539.23037-.16796.23095l-19.672.13172-19.672.070212-39.344.12824-78.687.094584-78.687-.073694-39.344-.17756-19.672-.094003-19.672-.19555c-.046843-.00058-.084402-.052805-.08398-.11663.00042201-.06383.037981-.11489.08398-.11547" fill="#c3c4c7"/><path d="m148.34 106.47c2.4975-.43984 3.2675 2.3547 3.2675 2.3547" stroke="#98c6d9" stroke-linecap="round" stroke-linejoin="round"/><path d="m273.02 75.71c-.53211-.38298-.92785-.88433-1.3613-1.3532-.40677-.49149-.83443-.96557-1.1797-1.511-.017408-.027273-.009284-.063249.017988-.081238.02205-.013926.050484-.011025.069052.0052224.49439.41547.90638.90232 1.3398 1.3712.40619.49265.84951.9528 1.1576 1.5308.007543.014507.002321.032495-.012186.040038-.010445.0058027-.02263.0046422-.031334-.0017408" fill="#dcdcde"/><path d="m273.45 75.57c-.52166-.39632-.90464-.90754-1.3259-1.3874-.39342-.50251-.80832-.98762-1.1396-1.5418-.016828-.027853-.007543-.06383.02031-.080657.02263-.013346.050483-.0098646.069052.0069632.48278.42824.88259.92553 1.3033 1.406.39342.50251.82456.97369 1.1176 1.5603.006963.014507.00116.032495-.013346.039458-.010445.0052224-.022631.0040619-.031335-.0029013" fill="#dcdcde"/><path d="m273.84 79.235v.33205c0 .16327.22921.29536.51122.29536h2.176" fill="#fff"/><path d="m273.86 79.235.030755.19555c.011025.06499.012185.14159.038878.15319.053965.049903.16422.08704.2704.095744.20716.0092843.50658-.0098645.75493-.013346.52108.016248 1.0422.0040619 1.5632.10619.031914.006383.052804.037718.046421.069632-.004642.024371-.023791.04236-.046421.046422-.52108.10271-1.0422.090522-1.5632.10677-.27157-.017408-.49613.008704-.80599-.044681-.14158-.04236-.3058-.10387-.38124-.28839-.034236-.10735.00174-.16886.003481-.23153l.030754-.19555c.002321-.015667.017408-.026692.033656-.024371.012766.0017408.022631.012186.024371.024371" fill="#c3c4c7"/><path d="m271.82 75.69c1.4675-1.8812 3.5037-.12418 5.6414-.45087" fill="#fff"/><path d="m271.79 75.672c.24487-.44275.68124-.80773 1.2012-.9441.52108-.12476 1.0491-.071373 1.5441.015087.98878.20309 1.9253.48627 2.91.43868.032495-.0017408.059768.02263.061509.055126.00116.027853-.017408.052224-.044101.059768-.49497.12592-1.0178.10677-1.5162.039458-.50077-.070213-.98762-.18917-1.4698-.26983-.47872-.089362-.96209-.15319-1.4176-.055126-.46015.0853-.8559.36035-1.2232.6969-.011606.011025-.030755.0098645-.04178-.0017409-.008704-.0098645-.009864-.023211-.004062-.034236" fill="#c3c4c7"/><path d="m278.06 75.127c-.13346-.63598-1.4733-1.1048-2.8329-.52108" fill="#fff"/><path d="m278.04 75.133c-.13926-.21876-.3354-.34294-.56054-.43694-.21876-.10329-.46538-.15377-.71141-.1764-.49845-.069052-.99632.031334-1.5093.13984-.031915.0069632-.06383-.012186-.071373-.0441-.005803-.024371.005803-.049323.024951-.062669.46073-.30116 1.0335-.40271 1.5894-.35977.27853.031915.55416.10851.8089.24255.24139.13578.49497.37776.48627.6853-.000581.016828-.013927.029594-.030755.029013-.009864 0-.018568-.0052224-.023791-.013346l-.002321-.0034817z" fill="#c3c4c7"/><path d="m279.01 75.69v.57273c0 1.6207-1.5725 2.9344-3.5129 2.9344h-.30232c-1.9398 0-3.513-1.3137-3.513-2.9344v-.57273h6.4097" fill="#fff"/><path d="m279.04 75.69c.019149.47524.069052.98182-.10213 1.4611-.16248.47234-.45377.89942-.82746 1.2337-.74449.67833-1.7785.9853-2.7638.96325-.98414.026692-2.0234-.26112-2.7911-.93191-.38356-.33075-.69226-.75783-.86982-1.2395-.18511-.48801-.16016-1.019-.15667-1.4866-.00058-.084719.069052-.15377.15377-.15435 1.0683.0040619 2.1366.0092844 3.2048.029594 1.0683.016248 2.136.026692 3.2042.066731.031915.0011606.056866.027853.055706.059768-.001161.030754-.025532.055126-.055706.056286-1.0683.040039-2.136.049903-3.2042.066731-1.0683.02031-2.1366.025532-3.2048.029014l.15377-.15377c.00116.49323-.015667.95106.15029 1.3764.15899.42534.44216.79845.78336 1.1031.694.61451 1.6387.89303 2.5764.87679.93714.02089 1.8876-.23907 2.6048-.84487.35106-.30232.65164-.67427.82514-1.1095.18046-.43462.18801-.91683.20542-1.4019.00058-.016248.013926-.028433.030174-.027853.015087.0005803.027273.012766.027853.027853" fill="#c3c4c7"/><g transform="translate(27 38)"><g transform="translate(2.2812 .70504)"><path d="m6.8612 12.648c.60469-.010938.88516-.094531 1.4891-.29609 2.4875-.83281 3.6875-2.9812 3.5914-5.4008-.027344-.68438 1.1594-1.1453.92344-1.85-.30547-.9125-1.9266-.84922-2.7477-2.6023-.92031-1.9664-3.3555-2.4688-5.6352-1.7062-3.1914 1.068-4.9133 4.5219-3.8453 7.7133" fill="#fff"/><path d="m6.8612 12.648c.60469-.010938.88516-.094531 1.4891-.29609 2.4875-.83281 3.6875-2.9812 3.5914-5.4008-.027344-.68438 1.1594-1.1453.92344-1.85-.30547-.9125-1.9266-.84922-2.7477-2.6023-.92031-1.9664-3.3555-2.4688-5.6352-1.7062-3.1914 1.068-4.9133 4.5219-3.8453 7.7133" stroke="#004e6e" stroke-linecap="round" stroke-linejoin="round"/></g><path d="m8.4794 5.7327c.88828 2.2203.66641 5.9211-1.6281 6.8094-2.2945.88828-3.9336-3.3313-3.9336-3.3313z" fill="#187aa2"/><g transform="translate(.71875 37.424)"><path d="m1.3466.54c-1.9984 15.431-.31953 48.404-.31953 48.404h7.5477l.66641-27.644" fill="#004e6e"/><path d="m1.3466.54c-1.9984 15.431-.31953 48.404-.31953 48.404h7.5477l.66641-27.644" stroke="#004e6e" stroke-width=".735"/></g><path d="m1.7445 85.591c2.2945.074219 9.25.51797 10.287.88828 1.0359.37031 1.1094.51719-.14844.81328-1.2578.29609-10.138 0-10.138 0v-1.7016z" fill="#004e6e"/><path d="m1.7445 85.591c2.2945.074219 9.25.51797 10.287.88828 1.0359.37031 1.1094.51719-.14844.81328-1.2578.29609-10.138 0-10.138 0v-1.7016z" stroke="#004e6e" stroke-width=".735"/><path d="m14.401 37.631s.82578 11.695 1.2211 23.758c.33125 10.087-.87891 20.733-.77734 24.979h-8.2148c.11094-24.646-4.7859-34.859-4.5641-48.404" fill="#3895ba"/><path d="m47.835 87.472c-.97812.33828-4.1078.94062-5.0539 1.2508-.77266.25391-.58906 1.3922.22422 1.3922h8.4211c.97031 0 1.7156-.85938 1.5789-1.8203l-.1375-.95469-5.0328.13203z" fill="#3895ba"/><path d="m2.0655 37.964 12.446-.33281-.18516-7.6242-2.8859-1.5531 3.5148-6.8094-2.3312-2.4422-3.5383-3.6555c-3.6398-.84766-7.2312 1.6641-7.6281 5.3797-.90234 8.4516.60781 17.038.60781 17.038z" fill="#3895ba"/><path d="m10.293 27.861.555 40.411h5.218l-.777-37.968z" fill="#98c6d9"/><g transform="translate(8.5312 10.861)"><path d="m.31852 15.335c4.8844 4.2188 9.6586 5.4398 11.656 3.7734 2.9844-2.4883-2.3125-12.326-2.6641-13.765-1.2211-4.9961-3.9961-4.9953-4.6625-4.4398s.66641 3.6625.66641 3.6625l1.2211 6.6617" fill="#fff"/><path d="m.31852 15.335c4.8844 4.2188 9.6586 5.4398 11.656 3.7734 2.9844-2.4883-2.3125-12.326-2.6641-13.765-1.2211-4.9961-3.9961-4.9953-4.6625-4.4398s.66641 3.6625.66641 3.6625l1.2211 6.6617" stroke="#004e6e" stroke-linecap="round" stroke-linejoin="round"/></g><path d="m12.18 19.424 4.5516 4.3305" stroke="#004e6e" stroke-linecap="round" stroke-linejoin="round"/><path d="m6.6293 85.591c2.2945.074219 9.25.51797 10.287.88828 1.0359.37031 1.1102.96172-.14844 1.2578-1.2578.29609-10.138 0-10.138 0v-2.1461z" fill="#3895ba"/><g stroke-linecap="round" stroke-linejoin="round"><path d="m10.186 13.501-.6714 2.036-.5164-2.108z" stroke="#004e6e"/><path d="m12.402 37.41c-3.775 1.6648-11.102.77734-11.102.77734" stroke="#98c6d9"/><path d="m16.695 48.658c-1.2391.22734-2.7461.14609-4.2406-.075781" stroke="#fff"/><path d="m6.3066 15.747c1.9641-.66719-2.2953-2.9305-2.5508-1.4094-.25547 1.5211.875 1.9781 2.5508 1.4094z" stroke="#98c6d9"/><path d="m7.1847 15.427s2.4422.33359 3.6633 1.5547" stroke="#98c6d9"/><path d="m2.5216 9.766 12.212-8.3258" stroke="#98c6d9"/><path d="m12.734 9.5821c.54375.046875.99766-.13281.99766-.13281" stroke="#004e6e"/></g><path d="m12.207 7.0251c-.18984.035156-.37188-.090625-.40703-.27969l-.10625-.58125c-.035156-.18984.090625-.37188.28047-.40703.18906-.034375.37109.091406.40625.28047l.10625.58125c.035156.18984-.089844.37188-.27969.40625" fill="#004e6e"/><path d="m49.731 29.116h-4.739l-.781-10.76h5.52z" fill="#c3c4c7"/><g transform="translate(54.625 27.268)"><path d="m.046953.34164c2.3688-.29609 8.7336 7.6977 9.918 10.806 1.1836 3.1078-6.5133 4.8844-6.5133 4.8844" fill="#c3c4c7"/><path d="m.046953.34164c2.3688-.29609 8.7336 7.6977 9.918 10.806 1.1836 3.1078-6.5133 4.8844-6.5133 4.8844" stroke="#004e6e" stroke-linecap="round" stroke-linejoin="round"/></g><g transform="translate(51.5 64.768)"><path d="m11.474 1.43s4.4828 8.5453 3.8367 16.627l-.73984 2.1477-14.159-19.505" fill="#c3c4c7"/><path d="m11.474 1.43s4.4828 8.5453 3.8367 16.627l-.73984 2.1477-14.159-19.505" stroke="#004e6e" stroke-linecap="round" stroke-linejoin="round"/></g><g transform="translate(45.25 62.424)"><path d="m.68859 2.2684s.99922 20.205 2.1094 23.647l4.2188-.11094c.22188-7.1055 2.6641-16.209 2.8859-25.312" fill="#c3c4c7"/><path d="m.68859 2.2684s.99922 20.205 2.1094 23.647l4.2188-.11094c.22188-7.1055 2.6641-16.209 2.8859-25.312" stroke="#004e6e" stroke-linecap="round" stroke-linejoin="round"/></g><g transform="translate(43.688 23.361)"><path d="m.56688.18984c1.0242.24766 2.1664-.088281 2.1664-.088281.067188-.0023438.1.071094.048438.10859l-1.7867 1.8992-.47188-2.0336" fill="#004e6e"/><path d="m.56688.18984c1.0242.24766 2.1664-.088281 2.1664-.088281.067188-.0023438.1.071094.048438.10859l-1.7867 1.8992-.47188-2.0336" stroke="#004e6e" stroke-width=".876"/></g><g transform="translate(38.219 10.861)"><path d="m7.2541.44086c-2.4008-.11562-4.6078 1.0289-4.9609 3.1719-.31406 1.9094-1.8914 2.2891-1.9375 3.25-.035938.74219 1.2312.86328 1.3906 1.5305.56328 2.3539 2.3023 4.0969 4.9219 4.2227.63672.030469.92812.034375 1.5141-.11875" fill="#c3c4c7"/><path d="m7.2541.44086c-2.4008-.11562-4.6078 1.0289-4.9609 3.1719-.31406 1.9094-1.8914 2.2891-1.9375 3.25-.035938.74219 1.2312.86328 1.3906 1.5305.56328 2.3539 2.3023 4.0969 4.9219 4.2227.63672.030469.92812.034375 1.5141-.11875" stroke="#004e6e" stroke-linecap="round" stroke-linejoin="round"/></g><path d="m41.693 19.76c-.32188.75156-1.1273 1.0742-1.1273 1.0742" stroke="#004e6e" stroke-linecap="round" stroke-linejoin="round"/><path d="m41.344 17.343c.19297 0 .34922-.15625.34922-.34922v-.59062c0-.19297-.15625-.34922-.34922-.34922s-.34922.15625-.34922.34922v.59062c0 .19297.15625.34922.34922.34922" fill="#004e6e"/><path d="m44.495 26.166c6.5312-2.0719 9.3336-.56641 11.823 3.2195 4.0523 6.1617 1.7391 7.6977 3.2195 13.323 1.4797 5.625 4.9406 8.0516 4.2742 24.094h-18.762s-1.7758-18.488-1.2211-23.872" fill="#3895ba"/><path d="m63.903 82.722s4.3562 7.6516 5.8195 7.3336c.87969-.19141-.51562-3.9125-.97969-5.657-.32344-1.2156-.59375-2.0148-1.8453-1.8883l-2.9945.21172z" fill="#3895ba"/><g transform="translate(31.188 23.361)"><path d="m9.4967 9.577s-1.2883-.94609-2.2797-2.6898c-1.5-2.6406-5.2891-7.1617-6.232-5.9695-.94375 1.1914.725 5.3578 2.1461 6.0688 1.0359 3.3305 6.4016 14.612 9.6211 13.717 3.2195-.89453 5.7727-17.996 1.332-17.773-4.4406.22344-4.7734 10.049-4.7734 10.049" fill="#c3c4c7"/><path d="m9.4967 9.577s-1.2883-.94609-2.2797-2.6898c-1.5-2.6406-5.2891-7.1617-6.232-5.9695-.94375 1.1914.725 5.3578 2.1461 6.0688 1.0359 3.3305 6.4016 14.612 9.6211 13.717 3.2195-.89453 5.7727-17.996 1.332-17.773-4.4406.22344-4.7734 10.049-4.7734 10.049" stroke="#004e6e" stroke-linecap="round" stroke-linejoin="round"/></g><path d="m56.378 22.009c-.47031-.7625-1.0438-1.4047-1.6711-1.9109-.56797-.45938-.94844-1.0992-1.0578-1.8211-.15156-.99922-.50078-1.9672-.97578-2.6578-.65859-.95781-1.7914-1.6961-2.9734-2-1.0734-1.9047-2.0422-2.1844-3.3914-2.5891-2.2203-.66641-4.293.59219-4.293.59219-.29531 2.4625.67344 5.2297 2.9805 5.3852-.40078 1.8773.68359 4.4492 2.7766 5.0625-.22344 1.4156.11016 3.0859 1.0484 4.6047 1.7203 2.7875 4.807 4.0023 6.8945 2.7148 2.0867-1.2891 2.3836-4.593.6625-7.3805" fill="#004e6e"/><path d="m33.649 27.959-2.4422-6.9469c-.1375-.39062.067188-.81797.45781-.95547l3.3516-1.1789c.39062-.13672.81797.06875.95547.45859l2.443 6.9469c.13672.39062-.067969.81875-.45859.95625l-3.3516 1.1781c-.38984.1375-.81797-.067969-.95547-.45859" fill="#3895ba"/><path d="m37.563 25.818-3.541 1.245-2.127-6.048 3.541-1.244z" fill="#fff"/><path d="m35.429 19.751-3.541 1.245.297.841 3.539-1.245z" fill="#004e6e"/><g transform="translate(34.312 26.486)"><path d="m1.6232 1.5452s-.65078-1.5727-.90625-1.3344c-.55234.51641.11484 2.6719.11484 2.6719" fill="#c3c4c7"/><path d="m1.6232 1.5452s-.65078-1.5727-.90625-1.3344c-.55234.51641.11484 2.6719.11484 2.6719" stroke="#004e6e" stroke-linecap="round" stroke-linejoin="round"/></g></g></g></svg>
