<svg width="46" height="46" viewBox="0 0 46 46" fill="none" xmlns="http://www.w3.org/2000/svg">
<g filter="url(#filter0_b_3057_1008)">
<rect width="46" height="46" rx="4" fill="black" fill-opacity="0.7"/>
</g>
<path fill-rule="evenodd" clip-rule="evenodd" d="M14.9999 15C13.5272 15 12.3333 16.1939 12.3333 17.6667V28.3333C12.3333 29.8061 13.5272 31 14.9999 31H30.9999C32.4727 31 33.6666 29.8061 33.6666 28.3333V17.6667C33.6666 16.1939 32.4727 15 30.9999 15H14.9999ZM14.3333 18.2218V28.3333C14.3333 28.7015 14.6317 29 14.9999 29H30.9999C31.3681 29 31.6666 28.7015 31.6666 28.3333V18.2218L22.9999 25.6504L14.3333 18.2218ZM30.0189 17H15.981L22.9999 23.0163L30.0189 17Z" fill="white"/>
<defs>
<filter id="filter0_b_3057_1008" x="-5" y="-5" width="56" height="56" filterUnits="userSpaceOnUse" color-interpolation-filters="sRGB">
<feFlood flood-opacity="0" result="BackgroundImageFix"/>
<feGaussianBlur in="BackgroundImageFix" stdDeviation="2.5"/>
<feComposite in2="SourceAlpha" operator="in" result="effect1_backgroundBlur_3057_1008"/>
<feBlend mode="normal" in="SourceGraphic" in2="effect1_backgroundBlur_3057_1008" result="shape"/>
</filter>
</defs>
</svg>
