<svg width="46" height="46" viewBox="0 0 46 46" fill="none" xmlns="http://www.w3.org/2000/svg">
<g filter="url(#filter0_b_2996_4535)">
<rect width="46" height="46" rx="4" fill="black" fill-opacity="0.7"/>
</g>
<path fill-rule="evenodd" clip-rule="evenodd" d="M11.3333 22.9999C11.3333 16.5566 16.5567 11.3333 23 11.3333C29.4433 11.3333 34.6666 16.5566 34.6666 22.9999C34.6666 29.4432 29.4433 34.6666 23 34.6666C16.5567 34.6666 11.3333 29.4432 11.3333 22.9999ZM14.3566 18.6666C15.5567 16.2776 17.7181 14.4547 20.3332 13.7058C19.7138 14.4246 19.181 15.2736 18.746 16.2069C18.3925 16.9654 18.098 17.7906 17.871 18.6666H14.3566ZM13.6168 20.6666C13.4316 21.4138 13.3333 22.1954 13.3333 22.9999C13.3333 23.8044 13.4316 24.586 13.6168 25.3333H17.4842C17.3851 24.5778 17.3333 23.7973 17.3333 22.9999C17.3333 22.2024 17.3851 21.4219 17.4842 20.6666H13.6168ZM19.5036 20.6666C19.3926 21.4122 19.3333 22.1934 19.3333 22.9999C19.3333 23.8064 19.3926 24.5877 19.5036 25.3333H26.4964C26.6073 24.5877 26.6667 23.8064 26.6667 23C26.6667 22.1935 26.6073 21.4122 26.4963 20.6666H19.5036ZM28.5158 20.6666C28.6149 21.422 28.6667 22.2025 28.6667 23C28.6667 23.7974 28.6149 24.5779 28.5158 25.3333H32.3832C32.5684 24.586 32.6666 23.8044 32.6666 22.9999C32.6666 22.1954 32.5684 21.4138 32.3832 20.6666H28.5158ZM31.6433 18.6666H28.129C27.902 17.7906 27.6075 16.9654 27.254 16.207C26.819 15.2737 26.2861 14.4246 25.6666 13.7057C28.2818 14.4547 30.4432 16.2775 31.6433 18.6666ZM26.0525 18.6666H19.9474C20.1201 18.0927 20.3255 17.5523 20.5588 17.0518C21.2193 15.6347 22.0773 14.5895 22.9999 13.9767C23.9226 14.5895 24.7807 15.6348 25.4412 17.0519C25.6745 17.5524 25.8799 18.0928 26.0525 18.6666ZM14.3566 27.3333H17.871C18.1104 28.2572 18.425 29.1247 18.8047 29.9171C19.2282 30.8006 19.741 31.6066 20.3334 32.2941C17.7182 31.5452 15.5567 29.7223 14.3566 27.3333ZM26.0526 27.3333H19.9474C20.1322 27.9474 20.3545 28.5232 20.6083 29.0527C21.2632 30.4192 22.1014 31.4263 23.0001 32.0231C23.9227 31.4103 24.7807 30.3651 25.4412 28.948C25.6745 28.4475 25.8799 27.9071 26.0526 27.3333ZM27.254 29.793C27.6075 29.0345 27.902 28.2093 28.129 27.3333H31.6433C30.4432 29.7223 28.2818 31.5451 25.6667 32.2941C26.2861 31.5752 26.819 30.7262 27.254 29.793Z" fill="white"/>
<defs>
<filter id="filter0_b_2996_4535" x="-5" y="-5" width="56" height="56" filterUnits="userSpaceOnUse" color-interpolation-filters="sRGB">
<feFlood flood-opacity="0" result="BackgroundImageFix"/>
<feGaussianBlur in="BackgroundImageFix" stdDeviation="2.5"/>
<feComposite in2="SourceAlpha" operator="in" result="effect1_backgroundBlur_2996_4535"/>
<feBlend mode="normal" in="SourceGraphic" in2="effect1_backgroundBlur_2996_4535" result="shape"/>
</filter>
</defs>
</svg>
