<svg width="46" height="46" viewBox="0 0 46 46" fill="none" xmlns="http://www.w3.org/2000/svg">
<g filter="url(#filter0_b_2996_4021)">
<rect width="46" height="46" rx="4" fill="black" fill-opacity="0.7"/>
</g>
<path fill-rule="evenodd" clip-rule="evenodd" d="M21 12.3334L21 17.6667H25V12.3334H27V17.6667H29C29.7364 17.6667 30.3333 18.2637 30.3333 19V24.3334L26.3333 29.6667V32.3334C26.3333 33.0698 25.7364 33.6667 25 33.6667H21C20.2636 33.6667 19.6667 33.0698 19.6667 32.3334V29.6667L15.6667 24.3334V19C15.6667 18.2637 16.2636 17.6667 17 17.6667H19L19 12.3334H21ZM21.6667 29V31.6667H24.3333V29L28.3333 23.6667V19.6667H17.6667V23.6667L21.6667 29Z" fill="white"/>
<defs>
<filter id="filter0_b_2996_4021" x="-5" y="-5" width="56" height="56" filterUnits="userSpaceOnUse" color-interpolation-filters="sRGB">
<feFlood flood-opacity="0" result="BackgroundImageFix"/>
<feGaussianBlur in="BackgroundImageFix" stdDeviation="2.5"/>
<feComposite in2="SourceAlpha" operator="in" result="effect1_backgroundBlur_2996_4021"/>
<feBlend mode="normal" in="SourceGraphic" in2="effect1_backgroundBlur_2996_4021" result="shape"/>
</filter>
</defs>
</svg>
