<svg width="46" height="46" viewBox="0 0 46 46" fill="none" xmlns="http://www.w3.org/2000/svg">
<g filter="url(#filter0_b_2996_5645)">
<rect width="46" height="46" rx="4" fill="black" fill-opacity="0.7"/>
</g>
<path fill-rule="evenodd" clip-rule="evenodd" d="M37 23C37 15.286 30.714 9 23 9C15.272 9 9 15.286 9 23C9 30.728 15.272 37 23 37C30.714 37 37 30.728 37 23ZM19.892 30.518L15.118 17.708C15.888 17.68 16.756 17.596 16.756 17.596C17.456 17.512 17.372 16.014 16.672 16.042C16.672 16.042 14.642 16.196 13.354 16.196C13.102 16.196 12.836 16.196 12.542 16.182C14.768 12.766 18.618 10.554 23 10.554C26.262 10.554 29.23 11.772 31.47 13.83C30.518 13.676 29.16 14.376 29.16 16.042C29.16 16.9492 29.6431 17.7275 30.1862 18.6027L30.1862 18.6027C30.2634 18.727 30.3417 18.8532 30.42 18.982C30.91 19.836 31.19 20.886 31.19 22.426C31.19 24.512 29.23 29.426 29.23 29.426L24.988 17.708C25.744 17.68 26.136 17.47 26.136 17.47C26.836 17.4 26.752 15.72 26.052 15.762C26.052 15.762 24.036 15.93 22.72 15.93C21.502 15.93 19.458 15.762 19.458 15.762C18.758 15.72 18.674 17.442 19.374 17.47L20.662 17.582L22.426 22.356L19.892 30.518ZM33.4046 22.9187L33.374 23C32.3596 25.6706 31.3528 28.3642 30.3481 31.0524L30.3479 31.0528L30.3478 31.0532L30.3469 31.0555C29.9931 32.0021 29.6395 32.948 29.286 33.892C33.024 31.736 35.446 27.606 35.446 23C35.446 20.844 34.956 18.856 33.976 17.05C34.3972 20.2839 33.7502 22.0012 33.4046 22.9187ZM17.54 34.326C13.368 32.31 10.554 27.942 10.554 23C10.554 21.18 10.876 19.528 11.562 17.974C11.9812 19.1222 12.4003 20.2711 12.8196 21.4203L12.8201 21.4216L12.8202 21.422C14.3893 25.7228 15.9603 30.0288 17.54 34.326ZM26.794 34.816L23.182 25.044C22.5165 27.0072 21.8461 28.9703 21.1737 30.9393C20.7144 32.2842 20.2542 33.6318 19.794 34.984C20.802 35.292 21.894 35.446 23 35.446C24.33 35.446 25.59 35.222 26.794 34.816Z" fill="white"/>
<defs>
<filter id="filter0_b_2996_5645" x="-5" y="-5" width="56" height="56" filterUnits="userSpaceOnUse" color-interpolation-filters="sRGB">
<feFlood flood-opacity="0" result="BackgroundImageFix"/>
<feGaussianBlur in="BackgroundImageFix" stdDeviation="2.5"/>
<feComposite in2="SourceAlpha" operator="in" result="effect1_backgroundBlur_2996_5645"/>
<feBlend mode="normal" in="SourceGraphic" in2="effect1_backgroundBlur_2996_5645" result="shape"/>
</filter>
</defs>
</svg>
