<svg enable-background="new 0 0 300 336.3" viewBox="0 0 300 336.3" xmlns="http://www.w3.org/2000/svg"><path d="m43.7 334.5v-248.9h249v250.4z" fill="#f6f7f7"/><path d="m42.6 85.8v-17.6c0-6.1 6.6-11.1 14.8-11.1h219.4c8.2 0 14.8 5 14.8 11.1v17.6z" fill="#fff"/><path d="m291.7 80c-.6 0-1-.5-1-1v-2.8c0-.6.5-1 1-1 .6 0 1 .5 1 1v2.8c0 .6-.4 1-1 1zm-249.1-3.4c-.6 0-1-.5-1-1v-5.3c0-.6.5-1 1-1 .6 0 1 .5 1 1v5.3c0 .5-.4 1-1 1zm249.1-4.7c-.6 0-1-.5-1-1v-2.6c0-.8-.1-1.6-.4-2.3-.2-.5.1-1.1.7-1.3.5-.2 1.1.1 1.3.7.3 1 .5 2 .5 3v2.6c-.1.4-.5.9-1.1.9zm-248.5-5.8c-.1 0-.3 0-.4-.1-.5-.2-.8-.8-.6-1.4.7-1.7 1.9-3.3 3.5-4.6.4-.4 1.1-.3 1.5.1s.3 1.1-.1 1.5c-1.3 1.1-2.3 2.4-2.9 3.8-.2.4-.5.7-1 .7zm245.2-3.8c-.3 0-.5-.1-.7-.3-1.2-1.1-2.6-1.9-4.2-2.6-.5-.2-.8-.8-.6-1.4.2-.5.8-.8 1.4-.6 1.8.7 3.5 1.7 4.8 3 .4.4.5 1 .1 1.5-.3.3-.6.4-.8.4zm-237.4-3c-.4 0-.8-.3-1-.7-.2-.5.1-1.1.6-1.3 1.7-.6 3.6-1 5.5-1.1.6 0 1.1.4 1.1 1s-.4 1.1-1 1.1c-1.7.1-3.4.4-4.9 1zm227.7-1c-.7-.1-1.3-.1-1.9-.1h-3.4c-.6 0-1-.5-1-1 0-.6.5-1 1-1h3.4c.7 0 1.3 0 2 .1.6.1 1 .6.9 1.1 0 .5-.4.9-1 .9zm-10.6-.1h-5.3c-.6 0-1-.5-1-1 0-.6.5-1 1-1h5.3c.6 0 1 .5 1 1 .1.5-.4 1-1 1zm-10.6 0h-5.3c-.6 0-1-.5-1-1 0-.6.5-1 1-1h5.3c.6 0 1 .5 1 1 .1.5-.4 1-1 1zm-10.6 0h-5.3c-.6 0-1-.5-1-1 0-.6.5-1 1-1h5.3c.6 0 1 .5 1 1 .1.5-.4 1-1 1zm-10.6 0h-5.3c-.6 0-1-.5-1-1 0-.6.5-1 1-1h5.3c.6 0 1 .5 1 1 .1.5-.4 1-1 1zm-10.6 0h-5.3c-.6 0-1-.5-1-1 0-.6.5-1 1-1h5.3c.6 0 1 .5 1 1 .1.5-.4 1-1 1zm-10.6 0h-5.3c-.6 0-1-.5-1-1 0-.6.5-1 1-1h5.3c.6 0 1 .5 1 1 .1.5-.4 1-1 1zm-10.6 0h-5.3c-.6 0-1-.5-1-1 0-.6.5-1 1-1h5.3c.6 0 1 .5 1 1 .1.5-.4 1-1 1zm-10.5 0h-5.3c-.6 0-1-.5-1-1 0-.6.5-1 1-1h5.3c.6 0 1 .5 1 1s-.5 1-1 1zm-10.6 0h-5.3c-.6 0-1-.5-1-1 0-.6.5-1 1-1h5.3c.6 0 1 .5 1 1s-.5 1-1 1zm-10.6 0h-5.3c-.6 0-1-.5-1-1 0-.6.5-1 1-1h5.3c.6 0 1 .5 1 1s-.5 1-1 1zm-10.6 0h-5.3c-.6 0-1-.5-1-1 0-.6.5-1 1-1h5.3c.6 0 1 .5 1 1s-.5 1-1 1zm-10.6 0h-5.3c-.6 0-1-.5-1-1 0-.6.5-1 1-1h5.3c.6 0 1 .5 1 1s-.5 1-1 1zm-10.6 0h-5.3c-.6 0-1-.5-1-1 0-.6.5-1 1-1h5.3c.6 0 1 .5 1 1s-.5 1-1 1zm-10.6 0h-5.3c-.6 0-1-.5-1-1 0-.6.5-1 1-1h5.3c.6 0 1 .5 1 1s-.5 1-1 1zm-10.6 0h-5.3c-.6 0-1-.5-1-1 0-.6.5-1 1-1h5.3c.6 0 1 .5 1 1s-.5 1-1 1zm-10.6 0h-5.3c-.6 0-1-.5-1-1 0-.6.5-1 1-1h5.3c.6 0 1 .5 1 1s-.5 1-1 1zm-10.6 0h-5.3c-.6 0-1-.5-1-1 0-.6.5-1 1-1h5.3c.6 0 1 .5 1 1s-.5 1-1 1zm-10.6 0h-5.3c-.6 0-1-.5-1-1 0-.6.5-1 1-1h5.3c.6 0 1 .5 1 1s-.5 1-1 1zm-10.6 0h-5.3c-.6 0-1-.5-1-1 0-.6.5-1 1-1h5.3c.6 0 1 .5 1 1s-.4 1-1 1zm-10.6 0h-5.3c-.6 0-1-.5-1-1 0-.6.5-1 1-1h5.3c.6 0 1 .5 1 1s-.4 1-1 1zm211.5 28.6h-5.1c-.6 0-1-.5-1-1 0-.6.5-1 1-1h5.1c.6 0 1 .5 1 1 0 .6-.5 1-1 1zm-10.3 0h-5.1c-.6 0-1-.5-1-1 0-.6.5-1 1-1h5.1c.6 0 1 .5 1 1 .1.6-.4 1-1 1zm-10.2 0h-5.1c-.6 0-1-.5-1-1 0-.6.5-1 1-1h5.1c.6 0 1 .5 1 1 .1.6-.4 1-1 1zm-10.2 0h-5.1c-.6 0-1-.5-1-1 0-.6.5-1 1-1h5.1c.6 0 1 .5 1 1 0 .6-.4 1-1 1zm-10.2 0h-5.1c-.6 0-1-.5-1-1 0-.6.5-1 1-1h5.1c.6 0 1 .5 1 1 0 .6-.4 1-1 1zm-10.2 0h-5.2c-.6 0-1-.5-1-1 0-.6.5-1 1-1h5.1c.6 0 1 .5 1 1 .1.6-.4 1-.9 1zm-10.3 0h-5.1c-.6 0-1-.5-1-1 0-.6.5-1 1-1h5.1c.6 0 1 .5 1 1 .1.6-.4 1-1 1zm-10.2 0h-5.1c-.6 0-1-.5-1-1 0-.6.5-1 1-1h5.1c.6 0 1 .5 1 1 .1.6-.4 1-1 1zm-10.2 0h-5.1c-.6 0-1-.5-1-1 0-.6.5-1 1-1h5.1c.6 0 1 .5 1 1 0 .6-.4 1-1 1zm-10.2 0h-5.1c-.6 0-1-.5-1-1 0-.6.5-1 1-1h5.1c.6 0 1 .5 1 1 0 .6-.5 1-1 1zm-10.3 0h-5.1c-.6 0-1-.5-1-1 0-.6.5-1 1-1h5.1c.6 0 1 .5 1 1 .1.6-.4 1-1 1zm-10.2 0h-5.1c-.6 0-1-.5-1-1 0-.6.5-1 1-1h5.1c.6 0 1 .5 1 1 .1.6-.4 1-1 1zm-10.2 0h-5.1c-.6 0-1-.5-1-1 0-.6.5-1 1-1h5.1c.6 0 1 .5 1 1 0 .6-.4 1-1 1zm-10.2 0h-5.1c-.6 0-1-.5-1-1 0-.6.5-1 1-1h5.1c.6 0 1 .5 1 1 0 .6-.5 1-1 1zm-10.3 0h-5.1c-.6 0-1-.5-1-1 0-.6.5-1 1-1h5.1c.6 0 1 .5 1 1 .1.6-.4 1-1 1zm-10.2 0h-5.1c-.6 0-1-.5-1-1 0-.6.5-1 1-1h5.1c.6 0 1 .5 1 1 .1.6-.4 1-1 1zm-10.2 0h-5.1c-.6 0-1-.5-1-1 0-.6.5-1 1-1h5.1c.6 0 1 .5 1 1 0 .6-.4 1-1 1zm-10.2 0h-5.1c-.6 0-1-.5-1-1 0-.6.5-1 1-1h5.1c.6 0 1 .5 1 1 0 .6-.4 1-1 1zm-10.2 0h-5.1c-.6 0-1-.5-1-1 0-.6.5-1 1-1h5.1c.6 0 1 .5 1 1 0 .6-.5 1-1 1zm-10.3 0h-5.1c-.6 0-1-.5-1-1 0-.6.5-1 1-1h5.1c.6 0 1 .5 1 1 .1.6-.4 1-1 1zm-10.2 0h-5.1c-.6 0-1-.5-1-1 0-.6.5-1 1-1h5.1c.6 0 1 .5 1 1 .1.6-.4 1-1 1zm-10.2 0h-5.1c-.6 0-1-.5-1-1 0-.6.5-1 1-1h5.1c.6 0 1 .5 1 1 0 .6-.4 1-1 1zm-10.2 0h-1.8c-.6 0-1-.5-1-1 0-.6.5-1 1-1h1.8c.6 0 1 .5 1 1 0 .6-.5 1-1 1z" fill="#dcdcde"/><path d="m271.8 118.2c0 2.3-1.9 4.2-4.2 4.2h-85.5c-2.3 0-4.2-1.9-4.2-4.2v-14.9c0-2.3 1.9-4.2 4.2-4.2h85.5c2.3 0 4.2 1.9 4.2 4.2z" fill="#fff"/><path d="m92.9 52.2s10.9-10.2 22.5-5.7l2 10.4-26-.9c-.1 0 .5-3 1.5-3.8z" fill="#3895ba"/><path d="m113.7 97.9c0 1.7-1.4 3.1-3.1 3.1h-52.6c-1.7 0-3.1-1.4-3.1-3.1v-21.2c0-1.7 1.4-3.1 3.1-3.1h52.5c1.7 0 3.1 1.4 3.1 3.1z" fill="#bedae6"/><path d="m123 89.8-4.8 4.2-5.9-4.8-4.4-.5.2-.8.5-1.2 5.2-1.4 9.6-1.7.9 6.1z" fill="#c3c4c7"/><path d="m113 90.1c.6 3-7.6 1-8.1 1.9-1.2 2.1 8.7 9.2 14.5.6m1.6-59.1s1.1 11.7 4.2 13.9l-14.4 2.4v-8.3s10.2-8 10.2-8z" fill="#c3c4c7"/><path d="m125.1 115.4h-57.7v69.3h-.3v149.2h15.3l49.1.3 15 .3v-199.2c.1-11-9.6-19.9-21.4-19.9z" fill="#fff"/><path d="m219.7 186.4s.2.7.4 1.8c.2 1.2.4 2.9.6 4.9s.5 4.4.7 7 .5 5.3.6 8c.1 1.4.1 2.7.2 4.1.1 1.3 0 2.7.1 4v3.7c0 1.2-.1 2.3-.2 3.3s-.2 2-.3 2.8-.2 1.6-.4 2.1c-.3 1.2-.4 1.8-.4 1.8 0 .1-.1.1-.2.1s-.1-.1-.1-.2c0 0 0-.7.1-1.9.1-.6.1-1.3.2-2.1 0-.8.1-1.8.1-2.8s.1-2.1.1-3.3v-3.7c0-1.3 0-2.6-.1-3.9s-.1-2.7-.2-4.1c-.2-2.7-.3-5.4-.5-8-.2-2.5-.4-4.9-.7-7-.2-2-.4-3.7-.5-4.9s-.1-1.9-.1-1.9c0-.2.2-.3.4-.3.1.3.2.4.2.5z" fill="#004e6e"/><path d="m47.1 85.9h-4.5c-.6 0-1-.5-1-1v-3.4c0-.6.5-1 1-1 .6 0 1 .5 1 1v2.3h3.5c.6 0 1 .5 1 1 .1.6-.4 1.1-1 1.1z" fill="#dcdcde"/><path d="m2.6 334.2 33.4-170.5h43l-27.8 170.5" fill="#fff"/><path d="m2.2 334.1c1.3-7.1 2.7-14.2 4-21.3l4.2-21.3 8.4-42.6 16.7-85.2.1-.4h44l-.1.6-13.9 85.1-7.1 42.6-3.5 21.3-3.6 21.3-.3-.1 3.3-21.3 3.4-21.3 6.8-42.6 13.9-85.2.5.6h-43l.5-.4-16.7 85.1-8.4 42.6-4.2 21.4c-1.4 7.1-2.8 14.2-4.3 21.3z" fill="#bedae6"/><path d="m30.1 180.9s2.9 0 7.2-.1c4.3 0 10 0 15.7-.1h15.7c4.3 0 7.2.1 7.2.1v.7s-2.9.1-7.2.1h-7.3c-2.7 0-5.5.1-8.4 0-5.7 0-11.4-.1-15.7-.1-4.3-.1-7.2-.1-7.2-.1zm-3.6 19.8s2.9 0 7.2-.1c4.3 0 10.1 0 15.9-.1h15.9c4.3 0 7.2.1 7.2.1v.7s-2.9.1-7.2.1h-7.4c-2.7 0-5.6.1-8.5 0-5.8 0-11.5-.1-15.9-.1-4.3-.1-7.2-.1-7.2-.1zm-3.1 20.6s2.9 0 7.2-.1c4.3 0 10.1 0 15.9-.1h15.9c4.3 0 7.2.1 7.2.1v.7s-2.9.1-7.2.1h-7.4c-2.7 0-5.6.1-8.5 0-5.8 0-11.5-.1-15.9-.1-4.3-.1-7.2-.1-7.2-.1zm-4.1 20.5s2.9 0 7.2-.1c4.3 0 10.1 0 15.9-.1h15.9c4.3 0 7.2.1 7.2.1v.7s-2.9.1-7.2.1h-7.4c-2.7 0-5.6.1-8.5 0-5.8 0-11.5-.1-15.9-.1-4.3-.1-7.2-.1-7.2-.1zm-3.1 20.6s2.9 0 7.2-.1c4.3 0 10.1 0 15.9-.1h15.9c4.3 0 7.2.1 7.2.1v.7s-2.9.1-7.2.1h-7.4c-2.7 0-5.6.1-8.5 0-5.8 0-11.5-.1-15.9-.1-4.3-.1-7.2-.1-7.2-.1s0-.5 0-.5zm-4.1 20.5s2.9 0 7.2-.1c4.3 0 10.1 0 15.9-.1h15.9c4.3 0 7.2.1 7.2.1v.7s-2.9.1-7.2.1h-7.4c-2.7 0-5.6.1-8.5 0-5.8 0-11.5-.1-15.9-.1-4.3-.1-7.2-.1-7.2-.1s0-.5 0-.5zm-4.1 20.5s2.9 0 7.2-.1c4.3 0 10.1 0 15.9-.1h15.9c4.3 0 7.2.1 7.2.1v.7s-2.9.1-7.2.1h-7.4c-2.7 0-5.6.1-8.5 0-5.8 0-11.5-.1-15.9-.1-4.3-.1-7.2-.1-7.2-.1s0-.5 0-.5zm-3.1 20.6s2.9 0 7.2-.1c4.3 0 10.1 0 15.9-.1h15.9c4.3 0 7.2.1 7.2.1v.7s-2.9.1-7.2.1h-7.4c-2.7 0-5.6.1-8.5 0-5.8 0-11.5-.1-15.9-.1-4.3-.1-7.2-.1-7.2-.1s0-.5 0-.5z" fill="#bedae6"/><path d="m235.2 152.4s7.7-13.5 9.6-13.1l.1 7.3c2.5-.8 4.5-2.7 5.5-5.1 2.4-4.4 9.1 1.3 0 9.8-9.4 5-12.4 7.7-12.4 7.7m-33.9 1.8v11.1l-10.5-.6v-7.3s-8.8-2.5-7.3-13l1.2-6m-31.7 32.1-5.1-4.7 4.3-11 3.8-.7.9 11.2z" fill="#a7aaad"/><path d="m152.4 174.1c-.1 0-.2 0-.2-.1-6.4-3.3-6.5-9.2-4.6-13.2 1.1-2.4 2.7-3.8 3.9-3.3.6.2.7 1.2.9 3.4.1 1.8.3 4.5 1.1 5 .1.1.3.1.6 0 .6-.2.6-1.4.4-2.8-.1-1.3-.3-2.8.9-3 .5-.1 1 .1 1.5.6 1.5 1.3 3.2 5.1 3.2 9.4 0 .3-.2.5-.5.5s-.5-.2-.5-.5c0-3.8-1.5-7.5-2.8-8.6-.3-.2-.5-.3-.7-.3s-.1 1.3-.1 1.9c.2 1.5.3 3.4-1.1 3.9-.7.2-1.2 0-1.5-.2-1.3-.8-1.4-3.5-1.6-5.8-.1-.9-.1-2.1-.3-2.5-.5-.1-1.7.9-2.5 2.8-1.7 3.6-1.6 8.9 4.2 11.9.3.1.4.4.2.7-.1.1-.3.2-.5.2z" fill="#004e6e"/><circle cx="148.2" cy="147.4" fill="#3895ba" r="18.6"/><path d="m221 109.7h76.3v36.2h-76.3z" fill="#98c6d9"/><path d="m194.1 169.1c-.3 0-.5-.2-.5-.5l-.5-4.2c-4.9-1-6.1-4.7-6.9-8.8-1.5-6.8 1.3-14.9 8.3-16.6 5.4-1.3 10.2.7 11.7 4.8 1.5 4.2 2.9 8.1 2.9 9.5 0 .3-.2.5-.5.5s-.5-.2-.5-.5c0-1.4-1.8-6.2-2.9-9.2-1.3-3.6-5.6-5.3-10.5-4.1-6.4 1.5-8.9 9-7.5 15.4.8 4 1.9 7.3 6.5 8 .2 0 .4.2.4.5l.5 4.6c.1.3-.2.6-.5.6z" fill="#004e6e"/><path d="m154.3 166.5c-3.2 1-2-8.1-3-8.4-2.4-1-8.8 10.4 1.1 15.5" fill="#a7aaad"/><path d="m152.4 174.1c-.1 0-.2 0-.2-.1-6.4-3.3-6.5-9.2-4.6-13.2 1.1-2.4 2.7-3.8 3.9-3.3.6.2.7 1.2.9 3.4.1 1.8.3 4.5 1.1 5 .1.1.3.1.6 0s.6.1.7.3c.1.3-.1.6-.3.7-.7.2-1.2 0-1.5-.2-1.3-.8-1.4-3.5-1.6-5.8-.1-.9-.1-2.1-.3-2.5-.5 0-1.7.9-2.5 2.8-1.7 3.6-1.6 8.9 4.2 11.9.3.1.4.4.2.7-.2.2-.4.3-.6.3z" fill="#004e6e"/><path d="m181.9 198.6c.5 23.1 3.2 31.2 3.2 31.2s19.3 5.9 35.6.2c0 0 2-15.2-1.3-43.5 13.8-7.1 26-29.1 26-29.1l-8.1-8.4c-4 7.9-15.8 19.7-24.7 21.9-.2-.1-.4-.2-.6-.2-2.9-1-19.2-2.2-23.1-.5-2.5 1-4.2 1.9-5.3 2.9-4.5 3.5-8.7 7.2-12.6 11.3l-9.4-14.7-8.4 6s7.2 26.5 18.3 25.9c3.6-.4 7.1-1.4 10.4-3" fill="#c3c4c7"/><path d="m237.9 149.8c2-1.7 5.5-12.1 6.9-10.5l.1 7.3c1.5-.3 2.8-1 3.8-2.1" fill="#a7aaad"/><path d="m237.9 150.3c-.1 0-.3-.1-.4-.2-.2-.2-.2-.5.1-.7.7-.6 1.9-3 2.9-5 1.8-3.6 2.8-5.6 3.9-5.7.3 0 .6.1.8.3.1.1.1.2.1.3l.1 6.7c1.1-.3 2.1-1 2.9-1.8.2-.2.5-.2.7 0s.2.5 0 .7c-1.1 1.2-2.5 2-4.1 2.3-.2 0-.3 0-.4-.1s-.2-.2-.2-.4l-.1-6.8c-.7.7-2 3.3-2.9 5-1.2 2.4-2.3 4.6-3.2 5.4.1-.1 0 0-.2 0zm5.2 5.4c-.3 0-.5-.2-.5-.5s.2-.5.5-.5c1.2 0 7.9-3.8 11-9.8.1-.3.5-.4.7-.2.3.1.4.4.2.7-3.2 6.3-10.2 10.3-11.9 10.3z" fill="#004e6e"/><path d="m186.7 145.3c-1.3 4.1 4.1 3.4 4.1 3.4l-.8 7.6c0 1.8 1 3.4 2.6 4.3 2.3 1.3 5.7 3.4 10.1 2.4 8.8-2 8.6-22 2.2-24.4-7.3-2.7-14.7-4-18.2 6.7z" fill="#004e6e"/><path d="m184.9 155.3c-.4 0-.7-.1-.9-.3-1.1-.7-1.5-2.7-1.3-4.3.2-1.9 1.4-2.9 2.4-3.2.6-.1 1.1.1 1.4.5.1.2.1.6-.2.7-.2.2-.6.1-.7-.2 0 0-.2 0-.5.1-.5.2-1.1.8-1.4 1.8h.2l8.1 2.7c.3.1.4.4.3.7s-.4.4-.7.3l-8.1-2.7c0 1.2.3 2.3.8 2.7.3.2.7.1 1.3-.2.2-.2.6-.1.7.2.2.2.1.6-.2.7-.3.4-.8.5-1.2.5z" fill="#004e6e"/><path d="m190.4 144.6s-5.5-9.9-.6-12.9c4.1-2.5 8.3 6.1 8.3 6.1z" fill="#c3c4c7"/><path d="m105.8 326.3c-.7-4.6-1.7-11.3-3-19.2-2.6-15.9-6.2-37.1-9.7-58.3s-7.1-42.4-9.7-58.2c-1.3-7.9-2.4-14.6-3.2-19.2s-1.4-7.3-1.4-7.3l-.7.1s.3 2.7 1.1 7.3c.7 4.6 1.9 11.3 3.2 19.2 2.7 15.9 6.2 37.1 9.7 58.2 3.5 21.2 7.1 42.4 9.8 58.2 1.4 7.9 2.5 14.5 3.4 19.2.9 4.6 1.4 7.3 1.4 7.3l.3-.1c-.2.1-.6-2.5-1.2-7.2zm-45.2-19.2c-2.6-15.9-6.2-37.1-9.7-58.3s-7.1-42.4-9.7-58.2c-1.3-7.9-2.4-14.6-3.2-19.2s-1.4-7.3-1.4-7.3l-.7.1s.3 2.7 1.1 7.3c.7 4.6 1.9 11.3 3.2 19.2 2.7 15.9 6.2 37.1 9.7 58.2 3.5 21.2 7.1 42.4 9.8 58.2 1.4 7.9 2.5 14.5 3.4 19.2.9 4.6 1.4 7.3 1.4 7.3l.3-.1s-.4-2.7-1.1-7.3c-.8-4.5-1.8-11.1-3.1-19.1z" fill="#bedae6"/><path d="m190 156.3s-.1 9.3-3.9 10.6 16.9 12.9 27.4 2.2c0 0 2-3.4-2-3.3-3.8.1 6.4-6.3-.3-15.8z" fill="#004e6e"/><path d="m192.3 134.8c-8.3 3.6 2.7 25.7 16 20.3s-2.6-26.2-16-20.3z" fill="#c3c4c7"/><path d="m190.5 136.2s2.3-6.6 10-6.2c7.6.4 10 3.8 12.3 7.7 1.3 2.2 1.7 7 .6 11-1 3.7-3.1 6.6-6.3 6.5-6.6-.4-16.6-19-16.6-19z" fill="#c3c4c7"/><path d="m209.9 143.2c-.5-1.3-.8-2.6-1.3-3.8-.4-1.3-.9-2.5-1.5-3.8-.6-1.2-1.2-2.4-2-3.5s-1.7-2.1-2.8-2.4h.1l-5.4-.1.3-.8c.4.3.6.5.9.8s.6.5.8.8c.5.6 1 1.1 1.5 1.7s.9 1.2 1.4 1.9c.2.3.4.6.6 1 .2.3.4.7.6 1 .4.7.7 1.4 1 2.1s.6 1.4.8 2.2c.2.7.4 1.5.6 2.2s.2 1.5.3 2.3h-.3c-.2-.7-.3-1.5-.6-2.2l-.3-1.1c-.1-.4-.3-.7-.4-1.1-.2-.7-.6-1.4-.9-2.1s-.7-1.3-1-2c-.2-.3-.4-.6-.6-1l-.6-.9c-.4-.6-.9-1.2-1.3-1.8-.5-.6-1-1.1-1.5-1.7l-.8-.8c-.3-.2-.6-.5-.8-.7l-1.1-.8h1.4l5.4.1h.2c1.5.5 2.5 1.7 3.3 2.8.8 1.2 1.4 2.4 2 3.7s1.1 2.6 1.5 3.9.9 2.6 1 4z" fill="#f6f7f7"/><path d="m124.2 26.4c.2 12.1-6.9 15.6-9.6 16.2-5 1.1-12.3-5.5-14.7-15.3 0 0-6.8-18 14.2-17.2 8.2.4 10.1 16.3 10.1 16.3z" fill="#c3c4c7"/><g fill="#004e6e"><path d="m99.5 24s.3.9.8 2.3c.5 1.5 1.1 3.6 2.2 6 .5 1.2 1.2 2.5 2 3.8s1.8 2.5 3 3.6 2.6 1.9 4.2 2.3c1.6.3 3.3.1 4.9-.6 1.5-.7 2.9-1.8 3.9-3.1 1.1-1.3 1.8-2.8 2.4-4.4 1.1-3.1 1.3-6.2 1.3-8.8s-.3-4.9-.5-6.4c-.1-.8-.2-1.4-.3-1.8s-.1-.6-.1-.6c0-.1.1-.2.1-.2.1 0 .2 0 .2.1 0 0 .3.9.7 2.4.2.8.4 1.7.5 2.8.2 1.1.3 2.3.3 3.7.1 2.7-.1 5.9-1.2 9.2-.6 1.6-1.4 3.3-2.5 4.7s-2.6 2.7-4.4 3.4c-1.7.8-3.7 1.1-5.5.7-1.9-.4-3.5-1.4-4.8-2.6s-2.3-2.5-3.1-3.9c-.8-1.3-1.5-2.7-2-3.9-1.1-2.5-1.8-4.7-2.2-6.2s-.5-2.4-.5-2.4c0-.2.1-.4.3-.4.1 0 .3.1.3.3z"/><path d="m106.5 10.5c-7.7 1.8-12.1 6.9-9.7 9.5 2.1 2.3 14.8-5.4 18.7-2.9 2.5 1.6 3.5 6 3.9 9 .2 1.7 1.6 3.1 3.3 3.3l2 .5c1.9-11.3 1.9-24.2-18.2-19.4zm3.7 17.1s.1.3.3.8.4 1.1.5 1.7c.2.6.3 1.3.4 1.8s.1.8.1.8c0 .2-.2.4-.4.4s-.3-.1-.4-.2c0 0-.1-.3-.3-.8s-.3-1.1-.5-1.7c-.1-.6-.2-1.3-.3-1.8s-.1-.8-.1-.8c0-.1.1-.3.3-.3.3 0 .3 0 .4.1z"/><path d="m105.8 31.4c-.6.1-1-.2-1.2-.6l-.4-1.5c-.1-.5.2-1 .7-1.1h.1c.5-.1 1 .2 1.1.7l.4 1.5c.1.4-.2.9-.7 1zm9.4-2.3c-.6.1-1-.2-1.2-.6l-.4-1.5c-.1-.5.2-1 .7-1.1h.1c.5-.1 1 .2 1.1.7l.4 1.5c.1.4-.2.9-.7 1z"/><path d="m111.8 38.3c-.7 0-1.3-.2-1.7-.6-.2-.2-.2-.5-.1-.7.2-.2.5-.2.7-.1.4.3 1.1.4 1.7.2s1-.5 1.2-1c.1-.3.4-.4.7-.3s.4.4.3.7c-.3.8-.9 1.4-1.9 1.6-.2.2-.5.2-.9.2zm.9-16.6s0-.1.1-.1c.1-.1.3-.2.5-.3s.4-.2.7-.2.5-.1.8-.1c.6 0 1.1.1 1.5.3s.6.4.6.4c.1.1.1.4 0 .5s-.3.1-.4.1c0 0-.2-.1-.5-.1-.3-.1-.8-.1-1.2-.1-.5 0-.9.1-1.2.1-.2 0-.3.1-.3.1-.1 0-.2.1-.2.1-.2.1-.4 0-.5-.2 0-.2 0-.4.1-.5zm-7.8 2.5h-.2c-.1 0-.2 0-.3.1-.3.1-.7.2-1.2.4-.4.2-.8.4-1.1.6s-.4.3-.4.3c-.1.1-.4.2-.5 0-.1-.1-.1-.2-.1-.4 0 0 .1-.3.4-.6s.7-.7 1.2-.9c.2-.1.5-.2.8-.3s.5-.1.7-.1.4 0 .6.1c.1 0 .2.1.2.1.2.1.2.3.1.5.1.1-.1.2-.2.2z"/></g><path d="m96 20.3c-1.3-14.8 24.7-20.5 28.7-3.9" fill="#3895ba"/><g fill="#c3c4c7"><path d="m89.8 21.5s2.2-.5 5.6-1.1c1.7-.3 3.7-.6 5.8-.9s4.4-.7 6.6-1c4.5-.6 9-1.3 12.4-1.8s5.7-.7 5.7-.7c.2 0 .4.1.4.3s-.1.3-.3.4c0 0-2.2.4-5.6 1-3.4.5-7.9 1.2-12.4 1.9-2.3.3-4.5.6-6.6.9s-4.1.6-5.8.8c-3.4.4-5.7.6-5.7.6-.1 0-.2-.1-.2-.2-.1-.1 0-.2.1-.2zm21.7-3.3c-7.1-1.1-18.9-2.9-21.7 3.6"/><path d="m111.5 18.4s-1.5 0-3.7-.3c-1.1-.1-2.4-.2-3.7-.3-1.4-.1-2.8-.2-4.2-.1-.7 0-1.4.1-2.1.1-.7.1-1.4.2-2 .3-.3.1-.6.2-.9.2l-.9.3c-.3.1-.5.2-.8.4-.2.1-.5.2-.7.4-.4.3-.8.5-1.1.9-.3.3-.6.5-.7.8-.3.5-.5.8-.5.8v.1c-.1.2-.3.2-.5.1-.1-.1-.2-.3-.1-.4 0 0 .2-.3.5-1 .1-.3.4-.6.7-1s.8-.7 1.2-1.1c.2-.2.5-.3.8-.5s.6-.3.9-.4.6-.2.9-.4c.3-.1.7-.2 1-.3.7-.2 1.4-.3 2.1-.4s1.5-.2 2.2-.2c1.5 0 3 .1 4.4.2s2.7.3 3.7.5l1.5.3c.4.1.8.2 1.1.3.6.2 1 .3 1 .3.1 0 .2.2.2.3-.1 0-.2.1-.3.1z"/><path d="m88.2 53.6s-3.6 6.3 1.6 7.8c5.1 1.5 6.5 1.1 7.4-.5 1.5-2.6.1-4.1 2.2-1.8s4.5 1.8 4.1-1.3-2.6-4.3-7-4.7c-4.5-.3-6.9-1.1-8.3.5z"/></g><path d="m88.4 53.9c-.3.8-.6 1.5-.7 2.3-.1.4-.1.8-.2 1.2 0 .4 0 .8.1 1.1 0 .2.1.3.2.5s.1.3.3.5c.2.3.5.6.7.8.3.2.6.4 1 .6.4.1.7.3 1.1.4l1.2.3c.4.1.8.1 1.2.2.8 0 1.6-.1 2.2-.4.3-.1.6-.3.9-.6.3-.2.5-.5.7-.8l.2-.5.2-.5c.1-.4.1-.8.2-1.2v-.1c.1-.3.4-.5.7-.5.1 0 .3.1.3.2.4.5.8 1 1.3 1.4.2.2.5.4.7.5.3.2.5.3.8.4s.5.1.7 0 .4-.2.6-.4l.2-.2.1-.1c.1-.1.1-.2.1-.3.1-.2.1-.5.1-.8s-.1-.6-.2-.8c-.1-.3-.2-.5-.4-.8l-.2-.4-.3-.3c-.2-.2-.4-.4-.7-.6-.2-.2-.5-.4-.8-.5-.3-.2-.6-.3-.9-.4l-.9-.3-1-.2c-.1 0-.2-.1-.1-.2 0-.1.1-.1.2-.1h1c.3.1.7.1 1 .2.7.2 1.3.5 1.9.9.3.2.6.4.8.7l.4.4.3.5c.2.3.4.6.5 1s.2.7.2 1.1 0 .8-.1 1.2c-.1.2-.1.4-.3.6l-.2.3-.2.2c-.3.3-.7.5-1.1.7-.4.1-.9.1-1.3 0s-.7-.3-1.1-.5l-.9-.6-1.5-1.5 1-.3c-.1.5-.1.9-.2 1.4l.2.4-.3.7c-.2.4-.5.8-.9 1.1s-.8.6-1.2.8c-1 .3-1.9.4-2.8.4-.4 0-.9-.1-1.3-.2l-1.3-.3c-.4-.1-.8-.3-1.3-.5-.4-.2-.8-.5-1.2-.8s-.7-.6-1-1.1c-.2-.2-.3-.4-.3-.6-.1-.2-.2-.4-.2-.7-.1-.5-.2-.9-.2-1.4s.1-.9.2-1.4c.1-.4.3-.9.4-1.3.2-.4.4-.8.7-1.1.1-.1.3-.2.5 0 .2 0 .2.2.2.3z" fill="#004e6e"/><path d="m103 55.6s0-.1.1-.2.2-.1.3-.3c.3-.2.6-.6.9-1 .2-.2.3-.4.5-.6s.3-.4.4-.5c.3-.3.6-.4.6-.4.1 0 .3 0 .3.1 0 0 .1.4-.1.8s-.5.9-.8 1.3c-.4.5-.8.8-1.2 1.1-.2.1-.4.2-.5.3h-.3c-.2.1-.4 0-.4-.2-.1-.2 0-.4.2-.4z" fill="#004e6e"/><path d="m170.4 200.9s.4-.1 1.2-.2 1.9-.1 3.2-.4c1.3-.2 2.8-.6 4.3-1.2.8-.3 1.5-.7 2.2-1.2s1.4-1 2-1.6 1.1-1.3 1.6-2 .9-1.5 1.2-2.2c.4-.7.6-1.5.9-2.2l.6-2.1c.3-1.3.6-2.4.7-3.2s.2-1.2.2-1.2c0-.1.1-.2.2-.1.1 0 .1.1.1.2v1.3c0 .4 0 .9-.1 1.4 0 .6-.1 1.2-.3 1.9-.3 1.4-.7 2.9-1.4 4.5-.4.8-.8 1.6-1.3 2.4s-1.1 1.5-1.7 2.2-1.4 1.3-2.2 1.8-1.6.9-2.4 1.2c-1.6.6-3.2 1-4.6 1.2s-2.5.3-3.3.3-1.3-.1-1.3-.1c-.2 0-.3-.2-.3-.4.3-.2.4-.3.5-.3z" fill="#004e6e"/><path d="m109.3 45.4s15-1.4 27.2 1.2c0 0 7.5 1.3 9.5 5.6 2.4 4.9 12.9 20.8 3.6 27.4-9.9 7-26.4 14.4-26.4 14.4l-4.2-11.1 18.4-10.1s1.4-.8.9-2.6c-1-3.1-4-12.8-4-12.8l-26.8-.7z" fill="#3895ba"/><path d="m110.7 45.3s-6.5 6.3 1 6.3 12-6.5 12-6.5-1.8-3.8-2-5.9l-4.3 4.7z" fill="#c3c4c7"/><path d="m133.5 54.8c.4.7.6 1.4.9 2.1l.7 2.2 1.5 4.3c1 2.9 1.9 5.8 2.8 8.7.1.3 0 .5-.3.6-1.4.7-2.7 1.5-4.1 2.2s-2.8 1.4-4.2 1.9c-.1 0-.2 0-.2-.1s0-.2.1-.2c1.3-.9 2.6-1.7 3.9-2.5s2.7-1.5 4.1-2.2l-.3.7c-1-2.9-2-5.8-2.9-8.6l-1.4-4.3-.7-2.2c-.2-.7-.5-1.4-.5-2.2 0-.2.1-.4.3-.4.1-.2.3-.1.3 0z" fill="#004e6e"/><path d="m196.6 56c-.2-1.8-.2-3.6-.2-5.4v-16.8h27.9v.5c0 3.6 0 7.1-.1 10.7 0 3.6-.1 7.1-.3 10.7h-.3c-.2-3.6-.3-7.1-.3-10.7-.1-3.6 0-7.1-.1-10.7l.5.5c-8.9 0-17.9.1-26.8 0l.6-.6v16.2c0 1.8 0 3.6-.2 5.4h-.7z" fill="#bedae6"/><path d="m197 38.9.9 1.2c.3.4.6.8 1 1.3s.9 1 1.6 1.4c.6.5 1.4.8 2.2 1.1.8.2 1.7.2 2.6-.1.5-.1.9-.4 1.3-.6l1.2-.9c.8-.6 2-1.6 3.5-1.2.7.2 1.2.7 1.6 1.2s.6 1 .9 1.5c.5 1 .9 1.9 1.4 2.8s1 1.7 1.5 2.4c.6.7 1.2 1.1 1.9 1.4s1.4.4 2 .3c.6 0 1.2-.1 1.6-.2.5-.1.8-.2 1-.3s.4-.1.4-.1l.1.3s-.1.1-.4.2l-1 .5c-.5.2-1 .3-1.7.4s-1.5 0-2.4-.2c-.9-.3-1.7-.9-2.3-1.6-.7-.7-1.2-1.6-1.7-2.5s-.9-1.9-1.4-2.8-1.1-1.8-1.8-2c-.4-.1-.8-.1-1.2.2l-.6.3-.6.5c-.5.3-.9.7-1.4 1-.5.2-1 .5-1.5.7-1.1.4-2.2.3-3.2.1-1-.3-1.9-.7-2.5-1.3-.7-.5-1.2-1.1-1.7-1.6-.4-.5-.8-1-1.1-1.4-.5-.8-.7-1.4-.7-1.4z" fill="#bedae6"/><path d="m196.6 39c-.7.1-1.3.1-2 .1h-.4l-.1-.4c-.2-1.2-.2-2.3-.2-3.5.1-1.2.2-2.3.5-3.5.5-2.3 1.4-4.5 3-6.3.8-.9 1.6-1.7 2.6-2.4s2-1.2 3.1-1.6 2.2-.7 3.4-.9c1.1-.2 2.3-.3 3.5-.3s2.3 0 3.5.2 2.3.4 3.4.8c2.2.7 4.3 2 5.9 3.8s2.6 4 3.1 6.2c.3 1.1.5 2.3.5 3.4.1 1.2.1 2.3-.1 3.5v.3h-.3c-.7 0-1.5-.1-2.2-.1v-.3c.7-.1 1.5-.1 2.2-.1l-.3.3c0-1.1 0-2.2-.1-3.3s-.3-2.2-.6-3.3c-.6-2.1-1.6-4.1-3-5.8-1.4-1.6-3.3-2.8-5.4-3.5-1-.4-2.1-.6-3.2-.7s-2.2-.2-3.3-.1c-1.1 0-2.2.1-3.3.3-1.1.1-2.1.5-3.2.8-1 .4-2 .9-2.9 1.5s-1.7 1.3-2.4 2.2c-1.4 1.7-2.3 3.7-2.8 5.9-.2 1.1-.4 2.2-.4 3.3s0 2.2.1 3.3l-.5-.4c.7 0 1.3.1 2 .1v.5z" fill="#bedae6"/><path d="m99.8 77.8h13.9v12.8h-13.9z" fill="#bedae6"/><path d="m113.9 89.4s0 .1.1.3c0 .3 0 .8-.4 1.2s-.9.6-1.4.7c-.6.2-1.2.2-1.9.3s-1.4.1-2.2.1-1.6 0-2.3.1c-.2 0-.4.1-.5.1l.1-.1v-.1.2s0 .1.1.3c.1.1.1.3.2.4.4.6 1.1 1.1 1.8 1.6 1.4.9 3 1.4 4.6 1.5 1.5.1 2.9-.4 4-1 .3-.2.5-.3.8-.5.2-.2.4-.3.6-.5.4-.3.7-.6 1-.9l.6-.6.2-.2c.1-.1.2-.1.2 0 .1.1.1.1 0 .2 0 0-.1.1-.2.3s-.2.5-.5.8c-.2.3-.5.7-.9 1.1s-.9.8-1.5 1.2c-1.2.8-2.8 1.3-4.6 1.2-1.8 0-3.6-.6-5.1-1.6-.8-.5-1.5-1.1-2.1-1.9-.1-.2-.3-.4-.4-.7 0-.1-.1-.3-.1-.4v-.6c0-.1 0-.1.1-.2v-.1c.1-.1.1-.1.1-.2.1-.2.2-.2.3-.3s.2-.1.2-.1c.3-.1.5-.1.7-.1.9-.1 1.7-.1 2.4-.1s1.5 0 2.1-.1c1.3-.1 2.3-.4 2.7-.7.2-.1.2-.3.3-.4v-.3c0-.2.1-.4.3-.4.4.2.6.4.6.5z" fill="#004e6e"/><path d="m113.6 84.9s0-.1.1-.2.3-.1.5-.1c.4-.1.9-.2 1.4-.3s1-.1 1.4-.1.7.2.7.2c.1.1.1.2.1.3 0 0-.2.3-.6.4s-.9.2-1.4.3-1 .1-1.4.2c-.2 0-.4.1-.5 0-.1 0-.2-.1-.2-.1-.2-.1-.2-.3-.1-.6z" fill="#004e6e"/><path d="m216.2 252.9c-.3 0-.5-.2-.5-.5s.2-.5.5-.6l7.6-.8c.3 0 .5.2.6.5 0 .3-.2.5-.5.6z" fill="#3895ba"/><path d="m207.1 257.3c-.3 0-.5.2-.5.5 0 25.1-2.8 34.8-3.4 36.6l-15.8-.2c-2.5-6.3-4.6-35.7-1.2-57.1 0-.3-.1-.6-.4-.6s-.6.1-.6.4c-3.5 21.8-1.2 52.3 1.4 57.9.1.2.3.3.5.3l16.5.3c.2 0 .4-.1.5-.3.1-.3 3.6-8.9 3.6-37.3-.1-.3-.3-.5-.6-.5zm15.5-8.1c.3 0 .5-.3.5-.6l-1.5-18.2c0-.3-.3-.5-.6-.5s-.5.3-.5.6l1.5 18.2c.1.3.3.5.6.5zm-1.4 7.9h.2c.2 0 .4 0 .6-.1l1.4-.4c.3-.1.4-.4.4-.6-.1-.3-.4-.4-.6-.4l-1.3.4h-.4c-1.9.1-3.4-1.4-3.5-3.2 0-.3-.3-.5-.5-.5-.3 0-.5.3-.5.5-.1 2.4 1.9 4.3 4.2 4.3zm3 2.6c-.1-.3-.3-.5-.6-.4s-.5.3-.4.6c0 .2 4.5 22.1 2.2 34.8h-15.2c-.3 0-.5.2-.5.5s.2.5.5.5h15.6c.2 0 .5-.2.5-.4 2.5-12.9-2.1-35.4-2.1-35.6z" fill="#3895ba"/><path d="m230.9 331.2c-2.1-1.1-8.2-2.3-8.9-3.7-1.3-2.6 2.6-31.1 2.6-31.1l-15.1 1.5s1 21.3 4.4 35.2l17.6.3c-.1-.1 1.5-1.1-.6-2.2zm-44.3-2.9c-.7 1.4-6.8 2.6-8.9 3.7s-.5 2.1-.5 2.1l20.1-.3c3.4-13.9 4.4-36.6 4.4-36.6l-14.3 1.5s.5 27-.8 29.6z" fill="#a7aaad"/><path d="m187.8 298.7c0-.3-.2-.5-.5-.5s-.5.2-.5.5c0 2.8.2 6 .5 9.3.5 6.9.9 14.1-.2 17.7-.1.3.1.6.3.6h.2c.2 0 .4-.1.5-.4 1.1-3.7.7-11 .2-18-.2-3.3-.4-6.5-.5-9.2zm22.1-.9c0-.3-.3-.5-.6-.5s-.5.3-.5.6c1.8 17.4 4.4 35 4.4 35.2 0 .3.3.4.5.4h.1c.3 0 .5-.3.4-.6.1-.1-2.4-17.7-4.3-35.1z" fill="#004e6e"/></svg>
