<svg width="228" height="235" viewBox="0 0 228 235" fill="none" xmlns="http://www.w3.org/2000/svg">
<path d="M224 0H4C1.79086 0 0 1.55828 0 3.48052V63.5195C0 65.4417 1.79086 67 4 67H224C226.209 67 228 65.4417 228 63.5195V3.48052C228 1.55828 226.209 0 224 0Z" fill="#F0F4F7"/>
<path d="M224 84H4C1.79086 84 0 85.7909 0 88V147C0 149.209 1.79086 151 4 151H224C226.209 151 228 149.209 228 147V88C228 85.7909 226.209 84 224 84Z" fill="#F0F4F7"/>
<path d="M224 168H4C1.79086 168 0 169.791 0 172V231C0 233.209 1.79086 235 4 235H224C226.209 235 228 233.209 228 231V172C228 169.791 226.209 168 224 168Z" fill="#F0F4F7"/>
<path d="M14.12 25H15.87C16.038 25 16.15 24.93 16.15 24.818V24.79C16.15 24.552 15.604 24.524 15.604 24.02V21.626H17.046C19.608 21.626 21.134 20.436 21.134 18.294C21.134 15.97 19.062 15.06 16.724 15.06H14.12C13.938 15.06 13.826 15.116 13.826 15.228V15.27C13.826 15.522 14.344 15.578 14.344 16.04V24.02C14.344 24.524 13.826 24.552 13.826 24.79V24.818C13.826 24.93 13.938 25 14.12 25ZM16.108 21.052C15.772 21.052 15.604 20.87 15.604 20.548V16.082C15.604 15.788 15.716 15.634 15.968 15.634H16.724C18.334 15.634 19.832 16.558 19.832 18.602C19.832 20.142 18.754 21.052 17.046 21.052H16.108ZM25.4532 18.14C24.5852 18.14 23.9412 18.616 23.6332 19.512V18.392C23.6332 18.182 23.5352 18.07 23.2692 18.196L22.2052 18.672C22.0792 18.742 21.9952 18.826 21.9952 18.924V18.952C21.9952 19.218 22.5552 19.232 22.5552 19.764V24.02C22.5552 24.51 22.0372 24.524 22.0372 24.776V24.832C22.0372 24.944 22.1352 25 22.3172 25H24.0532C24.2352 25 24.3332 24.944 24.3332 24.832V24.776C24.3332 24.524 23.7452 24.51 23.7452 24.02V20.828C23.7452 19.778 24.1652 18.896 24.9352 18.896C25.8032 18.896 25.4532 19.876 26.1812 19.876C26.5732 19.876 26.7412 19.582 26.7412 19.218C26.7412 18.63 26.2932 18.14 25.4532 18.14ZM30.7742 25.14C32.7482 25.14 34.0782 23.628 34.0782 21.696C34.0782 19.736 32.6222 18.14 30.5222 18.14C28.6042 18.14 27.1202 19.596 27.1202 21.542C27.1202 23.446 28.5482 25.14 30.7742 25.14ZM30.9422 24.678C29.4022 24.678 28.3662 22.942 28.3662 21.15C28.3662 19.582 29.1922 18.602 30.3822 18.602C31.8102 18.602 32.8462 20.156 32.8462 22.116C32.8462 23.684 32.0342 24.678 30.9422 24.678Z" fill="#0675C4"/>
<path d="M17.41 109.14C19.37 109.14 20.994 108.104 20.994 106.424C20.994 102.196 15.002 104.632 15.002 101.37C15.002 100.306 15.758 99.48 17.172 99.48C19.748 99.48 19.216 101.776 20.266 101.776C20.644 101.776 20.84 101.552 20.84 101.216C20.84 100.25 19.594 98.934 17.214 98.934C14.988 98.934 13.728 100.11 13.728 101.664C13.728 105.864 19.706 103.232 19.706 106.718C19.706 107.824 18.796 108.594 17.466 108.594C14.652 108.594 15.002 106.158 13.994 106.116C13.644 106.116 13.462 106.354 13.462 106.676C13.462 107.53 14.666 109.14 17.41 109.14ZM24.4872 109.14C25.6072 109.14 26.2792 108.3 26.2792 107.432C26.2792 107.18 25.9432 107.166 25.8592 107.376C25.8032 107.852 25.4392 108.216 24.8232 108.216C24.3052 108.216 23.9412 107.81 23.9412 107.04V102.84H25.8732C25.9852 102.84 26.0832 102.756 26.0832 102.63V102.49C26.0832 102.378 25.9852 102.28 25.8732 102.28H23.9412L23.9272 100.95C23.9272 100.768 23.8712 100.67 23.7032 100.67H23.5632C23.4372 100.67 23.3392 100.768 23.3252 100.95C23.2552 101.748 22.9332 102.28 22.2612 102.28H21.7572C21.6172 102.28 21.5472 102.364 21.5472 102.49V102.63C21.5472 102.756 21.6312 102.84 21.7572 102.84H22.6812V107.026C22.6812 108.454 23.4092 109.14 24.4872 109.14ZM33.8888 102.728V102.686C33.8888 102.56 33.8188 102.49 33.6788 102.448L32.7128 102.196C32.4328 102.098 32.2788 102.224 32.2788 102.434V103.19C31.8168 102.574 31.0608 102.14 30.1508 102.14C28.2748 102.14 26.8608 103.582 26.8608 105.626C26.8608 107.754 28.3868 109.14 30.0948 109.14C30.9628 109.14 31.8028 108.748 32.2648 107.992V108.776C32.2648 108.902 32.3628 109 32.4888 109H33.6788C33.8048 109 33.8748 108.944 33.8748 108.846V108.804C33.8748 108.566 33.3568 108.524 33.3568 108.02V103.568C33.3568 103.022 33.8888 102.938 33.8888 102.728ZM30.3888 108.678C28.9888 108.664 28.0368 107.124 28.0648 105.206C28.0788 103.638 28.9188 102.588 30.1368 102.588C31.2708 102.588 32.1668 103.652 32.1668 104.548V106.662C32.1668 108.006 31.1868 108.678 30.3888 108.678ZM38.4825 102.14C37.6145 102.14 36.9705 102.616 36.6625 103.512V102.392C36.6625 102.182 36.5645 102.07 36.2985 102.196L35.2345 102.672C35.1085 102.742 35.0245 102.826 35.0245 102.924V102.952C35.0245 103.218 35.5845 103.232 35.5845 103.764V108.02C35.5845 108.51 35.0665 108.524 35.0665 108.776V108.832C35.0665 108.944 35.1645 109 35.3465 109H37.0825C37.2645 109 37.3625 108.944 37.3625 108.832V108.776C37.3625 108.524 36.7745 108.51 36.7745 108.02V104.828C36.7745 103.778 37.1945 102.896 37.9645 102.896C38.8325 102.896 38.4825 103.876 39.2105 103.876C39.6025 103.876 39.7705 103.582 39.7705 103.218C39.7705 102.63 39.3225 102.14 38.4825 102.14ZM42.8485 109.14C43.9685 109.14 44.6405 108.3 44.6405 107.432C44.6405 107.18 44.3045 107.166 44.2205 107.376C44.1645 107.852 43.8005 108.216 43.1845 108.216C42.6665 108.216 42.3025 107.81 42.3025 107.04V102.84H44.2345C44.3465 102.84 44.4445 102.756 44.4445 102.63V102.49C44.4445 102.378 44.3465 102.28 44.2345 102.28H42.3025L42.2885 100.95C42.2885 100.768 42.2325 100.67 42.0645 100.67H41.9245C41.7985 100.67 41.7005 100.768 41.6865 100.95C41.6165 101.748 41.2945 102.28 40.6225 102.28H40.1185C39.9785 102.28 39.9085 102.364 39.9085 102.49V102.63C39.9085 102.756 39.9925 102.84 40.1185 102.84H41.0425V107.026C41.0425 108.454 41.7705 109.14 42.8485 109.14ZM50.9341 107.026C50.6401 107.698 49.9681 108.244 48.9041 108.244C47.6721 108.244 46.7761 107.404 46.4681 106.088C47.1541 106.144 47.9381 106.186 48.8341 106.018C50.1501 105.752 51.0321 104.968 51.0321 104.002C51.0321 102.798 49.9681 102.126 48.5681 102.14C46.6221 102.154 45.2221 103.554 45.2221 105.584C45.2221 107.712 46.6361 109.14 48.5821 109.14C50.3041 109.14 51.1721 107.978 51.3541 107.138C51.3821 106.872 51.0601 106.83 50.9341 107.026ZM48.3581 102.616C49.2261 102.616 49.8281 103.19 49.8421 104.002C49.8561 104.898 49.3801 105.332 48.5961 105.5C47.8541 105.654 47.0141 105.626 46.3841 105.584C46.3701 105.416 46.3561 105.248 46.3561 105.08C46.3561 103.722 47.1541 102.616 48.3581 102.616ZM55.7091 102.14C54.8411 102.14 54.1971 102.616 53.8891 103.512V102.392C53.8891 102.182 53.7911 102.07 53.5251 102.196L52.4611 102.672C52.3351 102.742 52.2511 102.826 52.2511 102.924V102.952C52.2511 103.218 52.8111 103.232 52.8111 103.764V108.02C52.8111 108.51 52.2931 108.524 52.2931 108.776V108.832C52.2931 108.944 52.3911 109 52.5731 109H54.3091C54.4911 109 54.5891 108.944 54.5891 108.832V108.776C54.5891 108.524 54.0011 108.51 54.0011 108.02V104.828C54.0011 103.778 54.4211 102.896 55.1911 102.896C56.0591 102.896 55.7091 103.876 56.4371 103.876C56.8291 103.876 56.9971 103.582 56.9971 103.218C56.9971 102.63 56.5491 102.14 55.7091 102.14Z" fill="#0675C4"/>
<path d="M14.12 193H15.884C16.052 193 16.164 192.944 16.164 192.832V192.804C16.164 192.538 15.618 192.524 15.618 192.02V188.646H18.208C18.684 188.646 18.726 189.43 19.006 189.43H19.09C19.202 189.43 19.272 189.332 19.272 189.192V187.47C19.272 187.316 19.202 187.232 19.09 187.232H19.006C18.726 187.232 18.684 188.058 18.208 188.058H15.618V184.082C15.618 183.774 15.772 183.634 16.024 183.634H18.908C19.65 183.634 19.972 185.048 20.42 185.048H20.476C20.616 185.048 20.7 184.95 20.658 184.768L20.322 183.382C20.28 183.172 20.196 183.06 19.972 183.06H14.078C13.924 183.06 13.826 183.116 13.826 183.228V183.256C13.826 183.522 14.344 183.522 14.344 184.04V192.02C14.344 192.524 13.826 192.538 13.826 192.804V192.832C13.826 192.944 13.952 193 14.12 193ZM24.2501 186.14C23.3821 186.14 22.7381 186.616 22.4301 187.512V186.392C22.4301 186.182 22.3321 186.07 22.0661 186.196L21.0021 186.672C20.8761 186.742 20.7921 186.826 20.7921 186.924V186.952C20.7921 187.218 21.3521 187.232 21.3521 187.764V192.02C21.3521 192.51 20.8341 192.524 20.8341 192.776V192.832C20.8341 192.944 20.9321 193 21.1141 193H22.8501C23.0321 193 23.1301 192.944 23.1301 192.832V192.776C23.1301 192.524 22.5421 192.51 22.5421 192.02V188.828C22.5421 187.778 22.9621 186.896 23.7321 186.896C24.6001 186.896 24.2501 187.876 24.9781 187.876C25.3701 187.876 25.5381 187.582 25.5381 187.218C25.5381 186.63 25.0901 186.14 24.2501 186.14ZM31.6431 191.026C31.3491 191.698 30.6771 192.244 29.6131 192.244C28.3811 192.244 27.4851 191.404 27.1771 190.088C27.8631 190.144 28.6471 190.186 29.5431 190.018C30.8591 189.752 31.7411 188.968 31.7411 188.002C31.7411 186.798 30.6771 186.126 29.2771 186.14C27.3311 186.154 25.9311 187.554 25.9311 189.584C25.9311 191.712 27.3451 193.14 29.2911 193.14C31.0131 193.14 31.8811 191.978 32.0631 191.138C32.0911 190.872 31.7691 190.83 31.6431 191.026ZM29.0671 186.616C29.9351 186.616 30.5371 187.19 30.5511 188.002C30.5651 188.898 30.0891 189.332 29.3051 189.5C28.5631 189.654 27.7231 189.626 27.0931 189.584C27.0791 189.416 27.0651 189.248 27.0651 189.08C27.0651 187.722 27.8631 186.616 29.0671 186.616ZM38.6021 191.026C38.3081 191.698 37.6361 192.244 36.5721 192.244C35.3401 192.244 34.4441 191.404 34.1361 190.088C34.8221 190.144 35.6061 190.186 36.5021 190.018C37.8181 189.752 38.7001 188.968 38.7001 188.002C38.7001 186.798 37.6361 186.126 36.2361 186.14C34.2901 186.154 32.8901 187.554 32.8901 189.584C32.8901 191.712 34.3041 193.14 36.2501 193.14C37.9721 193.14 38.8401 191.978 39.0221 191.138C39.0501 190.872 38.7281 190.83 38.6021 191.026ZM36.0261 186.616C36.8941 186.616 37.4961 187.19 37.5101 188.002C37.5241 188.898 37.0481 189.332 36.2641 189.5C35.5221 189.654 34.6821 189.626 34.0521 189.584C34.0381 189.416 34.0241 189.248 34.0241 189.08C34.0241 187.722 34.8221 186.616 36.0261 186.616Z" fill="#0675C4"/>
<rect x="13" y="37" width="199" height="6" rx="3" fill="#D7DFE5"/>
<rect x="13" y="49" width="168" height="6" rx="3" fill="#D7DFE5"/>
<rect x="13" y="205" width="199" height="6" rx="3" fill="#D7DFE5"/>
<rect x="13" y="217" width="168" height="6" rx="3" fill="#D7DFE5"/>
<rect x="13" y="121" width="199" height="6" rx="3" fill="#D7DFE5"/>
<rect x="13" y="133" width="168" height="6" rx="3" fill="#D7DFE5"/>
<g filter="url(#filter0_b_234_23452)">
<path fill-rule="evenodd" clip-rule="evenodd" d="M206.957 26.9792C207.442 26.8648 207.741 26.2931 208.189 26.0648C208.637 25.8359 209.235 25.9887 209.609 25.6453C209.982 25.3403 209.982 24.7309 210.281 24.3498C210.58 23.9687 211.178 23.8165 211.364 23.397C211.589 22.9398 211.327 22.3682 211.402 21.911C211.514 21.4154 212 21.0343 212 20.5387C212 20.0054 211.552 19.6243 211.402 19.0904C211.29 18.5948 211.551 18.0231 211.327 17.5659C211.141 17.1087 210.543 16.9942 210.207 16.5748C209.908 16.1936 209.908 15.5836 209.534 15.2792C209.161 14.9742 208.563 15.1271 208.152 14.8981C207.704 14.7076 207.443 14.1359 206.957 14.0214C206.509 13.907 206.023 14.2881 205.538 14.2881C205.015 14.2881 204.529 13.907 204.043 14.0214C203.558 14.1359 203.259 14.7076 202.811 14.9358C202.363 15.1648 201.765 15.0119 201.391 15.3553C201.018 15.6604 201.018 16.2697 200.719 16.6508C200.42 17.032 199.822 17.1841 199.636 17.6036C199.411 18.0608 199.673 18.6325 199.598 19.0897C199.486 19.5853 199 19.9664 199 20.462C199 20.9952 199.448 21.3764 199.598 21.9103C199.71 22.4059 199.449 22.9776 199.673 23.4348C199.859 23.892 200.457 24.0064 200.793 24.4259C201.092 24.807 201.092 25.4171 201.466 25.7214C201.839 26.0264 202.437 25.8736 202.848 26.0642C203.296 26.2931 203.557 26.8648 204.043 26.9786C204.491 27.093 204.977 26.7119 205.462 26.7119C205.985 26.7119 206.471 27.093 206.957 26.9786V26.9792Z" fill="#0675C4"/>
</g>
<path d="M211.949 101.878C211.868 101.822 211.786 101.764 211.699 101.7C211.455 101.523 211.228 101.341 211.043 101.176C210.816 100.972 210.649 100.784 210.549 100.619C210.45 100.454 210.37 100.214 210.314 99.907C210.269 99.6614 210.238 99.3684 210.219 99.0547C210.213 98.9536 210.209 98.8545 210.207 98.7617C210.207 98.7142 210.174 98.6709 210.129 98.6543C210.083 98.6378 210.032 98.6543 210.001 98.6915L206.955 102.495C206.926 102.532 206.922 102.582 206.944 102.623C206.965 102.66 207.004 102.683 207.045 102.683C207.05 102.683 207.054 102.683 207.06 102.683L211.903 102.09C211.963 102.082 212.006 102.031 212.002 101.969C212 101.929 211.978 101.896 211.947 101.878H211.949Z" fill="#D52D82"/>
<path d="M205.602 105.177C205.586 105.134 205.543 105.105 205.497 105.105C205.452 105.097 205.408 105.132 205.39 105.175L203.52 109.685C203.512 109.699 203.504 109.713 203.502 109.73C203.495 109.767 203.508 109.804 203.535 109.831C203.561 109.86 203.601 109.872 203.638 109.864C203.656 109.86 203.673 109.854 203.685 109.841L203.706 109.831C203.782 109.794 203.863 109.755 203.947 109.718C204.211 109.594 204.48 109.486 204.723 109.402C205.014 109.303 205.258 109.251 205.45 109.245C205.64 109.241 205.879 109.286 206.182 109.391C206.409 109.472 206.671 109.583 206.956 109.726C207.051 109.775 207.14 109.821 207.226 109.866C207.243 109.874 207.262 109.878 207.28 109.878C207.307 109.878 207.336 109.868 207.357 109.85C207.392 109.817 207.404 109.767 207.387 109.722L205.602 105.177V105.177Z" fill="#D52D82"/>
<path d="M205.404 101.702C205.42 101.746 205.463 101.774 205.509 101.774C205.556 101.774 205.598 101.746 205.614 101.704L207.486 97.1972C207.496 97.1827 207.502 97.1662 207.504 97.1497C207.511 97.1126 207.498 97.0754 207.469 97.0486C207.443 97.0218 207.403 97.0094 207.366 97.0176C207.35 97.0218 207.333 97.028 207.319 97.0403L207.292 97.0527C207.218 97.0878 207.139 97.127 207.057 97.1642C206.79 97.288 206.522 97.3973 206.281 97.4778C205.99 97.5769 205.746 97.6285 205.556 97.6347C205.366 97.6409 205.127 97.5934 204.824 97.4881C204.597 97.4077 204.335 97.2962 204.05 97.1538C203.963 97.1084 203.881 97.0672 203.802 97.0259L203.78 97.0135C203.738 96.9908 203.685 96.997 203.65 97.03C203.614 97.063 203.602 97.1126 203.619 97.158L205.404 101.702V101.702Z" fill="#D52D82"/>
<path d="M204.058 104.255C204.036 104.214 203.99 104.193 203.945 104.197L199.099 104.79C199.039 104.798 198.996 104.849 199 104.911C199.002 104.951 199.025 104.984 199.056 105.002C199.136 105.058 199.219 105.116 199.306 105.18C199.549 105.357 199.776 105.539 199.962 105.704C200.189 105.908 200.356 106.096 200.455 106.261C200.554 106.426 200.635 106.665 200.69 106.975C200.736 107.223 200.767 107.514 200.785 107.825C200.792 107.926 200.796 108.025 200.798 108.118C200.798 108.166 200.831 108.209 200.876 108.226C200.889 108.23 200.901 108.232 200.913 108.232C200.948 108.232 200.981 108.217 201.004 108.188L204.05 104.385C204.079 104.348 204.083 104.298 204.06 104.257L204.058 104.255Z" fill="#D52D82"/>
<path d="M211.838 104.992L207.04 104.237C206.993 104.228 206.947 104.251 206.925 104.29C206.9 104.329 206.904 104.381 206.931 104.418L209.853 108.335C209.853 108.335 209.859 108.345 209.863 108.349C209.886 108.376 209.917 108.389 209.948 108.389C209.973 108.389 210 108.38 210.02 108.362C210.051 108.337 210.066 108.298 210.061 108.261C210.07 108.168 210.078 108.071 210.088 107.968C210.125 107.629 210.165 107.365 210.214 107.134C210.282 106.82 210.359 106.587 210.447 106.424C210.54 106.255 210.701 106.071 210.943 105.865C211.122 105.71 211.345 105.547 211.622 105.363C211.71 105.306 211.795 105.252 211.877 105.2C211.919 105.176 211.939 105.126 211.929 105.081C211.919 105.035 211.882 104.996 211.834 104.99L211.838 104.992Z" fill="#D52D82"/>
<path d="M199.166 101.888L203.966 102.644C203.966 102.644 203.978 102.644 203.984 102.644C204.024 102.644 204.063 102.623 204.084 102.588C204.108 102.549 204.106 102.497 204.077 102.46L201.147 98.5368C201.118 98.4976 201.069 98.4831 201.023 98.4955C200.978 98.5079 200.945 98.5512 200.941 98.5987C200.932 98.6978 200.924 98.8009 200.914 98.9103C200.877 99.2508 200.837 99.515 200.788 99.744C200.72 100.058 200.645 100.289 200.555 100.454C200.462 100.623 200.301 100.807 200.059 101.013C199.88 101.168 199.657 101.333 199.38 101.515C199.292 101.572 199.207 101.626 199.125 101.678C199.083 101.702 199.063 101.752 199.073 101.797C199.083 101.843 199.12 101.88 199.168 101.888H199.166Z" fill="#D52D82"/>
<path d="M204.5 190.453L209.135 193.25L207.905 187.978L212 184.43L206.607 183.973L204.5 179L202.392 183.973L197 184.43L201.095 187.978L199.865 193.25L204.5 190.453Z" fill="#EBCEE0"/>
<defs>
<filter id="filter0_b_234_23452" x="177.142" y="-7.85798" width="56.716" height="56.716" filterUnits="userSpaceOnUse" color-interpolation-filters="sRGB">
<feFlood flood-opacity="0" result="BackgroundImageFix"/>
<feGaussianBlur in="BackgroundImage" stdDeviation="10.929"/>
<feComposite in2="SourceAlpha" operator="in" result="effect1_backgroundBlur_234_23452"/>
<feBlend mode="normal" in="SourceGraphic" in2="effect1_backgroundBlur_234_23452" result="shape"/>
</filter>
</defs>
</svg>
