<svg fill="none" height="20" viewBox="0 0 123 20" width="123" xmlns="http://www.w3.org/2000/svg" xmlns:xlink="http://www.w3.org/1999/xlink"><clipPath id="a"><path d="m0 0h122.48v20h-122.48z"/></clipPath><g clip-path="url(#a)" fill="#101517"><path d="m10 0c-1.97781 0-3.91121.586489-5.5557 1.6853-1.64449 1.09882-2.92621 2.6606-3.683091 4.48786-.75687618 1.82726-.95491 3.83794-.569057 5.77774.385852 1.9398 1.338258 3.7216 2.736788 5.1202 1.39852 1.3985 3.18035 2.3509 5.12016 2.7367 1.93981.3859 3.9505.1879 5.7777-.569 1.8273-.7569 3.3891-2.0386 4.4879-3.6831s1.6853-3.5779 1.6853-5.55571c-.0029-2.65127-1.0574-5.19312-2.9321-7.06785-1.8748-1.87473-4.4166-2.92923485-7.0679-2.93214zm-8.99024 9.99999c-.00089-1.26066.26424-2.50733.77805-3.65853l4.28902 11.75124c-1.51938-.7369-2.80052-1.8868-3.69666-3.3181-.89615-1.4312-1.37109-3.086-1.37041-4.77461zm8.99024 8.99141c-.85987 0-1.71531-.1232-2.54024-.3658l2.69754-7.839 2.7695 7.5707c.018.0425.0396.0833.0647.122-.9608.3394-1.9725.5127-2.9915.5121zm1.239-13.20726c.5415-.02805 1.0281-.08536 1.0281-.08536.4878-.05732.428-.76952-.0561-.74025 0 0-1.4573.11342-2.39636.11342-.88415 0-2.36829-.11342-2.36829-.11342-.48781-.02927-.54147.71098-.05732.74025 0 0 .45854.05731.94268.08536l1.40122 3.8378-1.96829 5.90126-3.27317-9.73906c.54146-.02805 1.02805-.08536 1.02805-.08536.4878-.05732.42805-.76952-.05732-.74025 0 0-1.4561.11342-2.39512.11342-.16951 0-.36586 0-.57927-.01098.7148-1.08786 1.65737-2.00747 2.76252-2.69524s2.34651-1.12728 3.63822-1.28813c1.29175-.160857 2.60295-.03922 3.84305.3565 1.24.39573 2.3794 1.05608 3.3391 1.93541-.039 0-.0768-.00732-.1158-.00732-.8842 0-1.5098.76951-1.5098 1.59634 0 .74025.4269 1.36707.883 2.10854.3414.59878.7402 1.36707.7402 2.47926 0 .76997-.2276 1.73867-.6829 2.90607l-.8976 2.9964zm3.2805 11.98656 2.7464-7.94022c.5134-1.28171.6841-2.30732.6841-3.21951.0007-.30916-.0197-.618-.061-.92439 1.1237 2.05617 1.4003 4.46972.7709 6.72682-.6293 2.257-2.1149 4.1792-4.1404 5.3573z"/><path d="m88.5186 9.89878c0-.5378.583-.74634 1.2098-.74634.6682.01271 1.3313.11777 1.9707.31219v-1.46341c-.6847-.19195-1.3939-.28235-2.1049-.26829-1.7073 0-2.8975.80609-2.8975 2.12073 0 2.55364 3.5244 1.89634 3.5244 3.13654 0 .6098-.5525.7757-1.3598.7757-.5671 0-1.478-.2208-2.1353-.4488v1.4536c.6604.2627 1.3625.4048 2.0731.4195 1.6573 0 3.2403-.4878 3.2403-2.2707 0-2.4634-3.5244-1.8219-3.5244-3.01584zm9.2891 1.49752c0-1.65728.9109-2.22557 1.9865-2.22557.6778.01962 1.3468.15618 1.9778.40366v-1.49756c-.643-.23313-1.324-.34958-2.0082-.3439-2.3415 0-3.7878 1.42805-3.7878 3.74507 0 2.1952 1.0463 3.7037 3.689 3.7037.752-.0071 1.497-.1437 2.202-.4037v-1.4634c-.806.3134-1.425.433-1.9776.433-1.1647 0-2.0732-.5378-2.0732-2.3598zm-50.683-2.32557h-.0597v-1.15853h-1.6476v7.0939h1.7622v-4.2268c.5524-1.04515 1.2195-1.38906 2.3451-1.38906h.1793v-1.5378c-.1587-.01823-.3183-.0284-.478-.03049-.9561 0-1.6135.37439-2.1061 1.25488zm22.1037.0061h-.0598v-1.16463h-1.6426v7.0939h1.7621v-4.2268c.5525-1.04515 1.2196-1.38906 2.3452-1.38906h.1792v-1.5378c-.1587-.01828-.3182-.02846-.478-.03049-.9561 0-1.6134.37439-2.1061 1.25488zm50.9976-1.34146c-.761 0-1.628.41829-2.42.94024l-.208.13537c-.373-.79147-1.121-1.07561-1.942-1.07561-.762 0-1.628.3878-2.419.91097v-.73171h-1.673v7.09387h1.778v-5.09509c.656-.43292 1.358-.70243 1.866-.70243.583 0 .941.31341.941 1.31462v4.4805h1.762v-5.07805c.658-.43293 1.36-.71707 1.867-.71707.582 0 .941.31341.941 1.31462v4.4805h1.762v-4.8988c0-1.37437-.821-2.37437-2.255-2.37437zm-13.667 6.03053c-1.149 0-1.761-.7464-1.761-2.3 0-1.5537.612-2.30492 1.761-2.30492s1.747.74756 1.747 2.30002c0 1.5524-.596 2.3-1.747 2.3zm0-6.03785c-2.439 0-3.584 1.56829-3.584 3.73295 0 2.1646 1.15 3.7195 3.584 3.7195s3.585-1.5537 3.585-3.7195c0-2.16588-1.166-3.73295-3.585-3.73295zm-24.455 2.17073c0-.5378.5817-.74634 1.2098-.74634.6681.01271 1.3313.11777 1.9707.31219v-1.46341c-.6851-.19195-1.3947-.28234-2.1061-.26829-1.7073 0-2.8963.80609-2.8963 2.12073 0 2.55364 3.5243 1.89634 3.5243 3.13654 0 .6098-.5524.7757-1.3597.7757-.5671 0-1.4781-.2208-2.1354-.4488v1.4536c.6604.2627 1.3626.4048 2.0732.4195 1.6585 0 3.2415-.4878 3.2415-2.2707 0-2.4634-3.5244-1.8219-3.5244-3.01584zm-7.6488.78052c.1037-.9854.6415-1.61223 1.522-1.61223.9414 0 1.2256.74634 1.2256 1.61223zm1.5378-2.94149c-2.2707 0-3.45 1.76219-3.45 3.68899 0 2.6427 1.3878 3.7634 3.6415 3.7634.8878.004 1.7706-.1322 2.6158-.4036v-1.4634c-.739.2707-1.4061.4341-2.1231.4341-1.3134 0-2.1951-.3585-2.2378-1.911h4.5402c.0415-.3468.0615-.6958.0598-1.0451 0-1.49388-.7915-3.06218-3.0488-3.06218zm-13.2463 2.33049h-1.3927v-3.59025h1.3976c1.1353 0 1.7073.62805 1.7073 1.74756s-.522 1.83659-1.7073 1.83659zm-.0098-5.0683h-3.2646v10.0061h1.8817v-3.4805h1.3829c2.1354 0 3.6891-1.15 3.6891-3.29999 0-2.15-1.5476-3.22561-3.6891-3.22561zm-7.2073 7.9598c-.5671.5231-1.1049.8061-1.6719.8061-.9756 0-1.5988-.6415-1.5988-2.15 0-1.6281.7768-2.47931 2.1207-2.47931.3937.00515.7833.08116 1.15.22439zm0-5.06224c-.4361-.10103-.8816-.1562-1.3293-.16463-2.439 0-3.7634 1.62805-3.7634 4.00247 0 2.3744 1.3293 3.45 2.8976 3.45.8317-.0272 1.6327-.3204 2.2854-.8366v.6573h1.6719v-10.0061h-1.7622zm-15.1219 5.86834c-1.15 0-1.7622-.7464-1.7622-2.3 0-1.5537.6231-2.30492 1.767-2.30492s1.7476.74756 1.7476 2.30002c0 1.5524-.5976 2.3-1.7476 2.3zm.0048-6.03785c-2.439 0-3.5841 1.56829-3.5841 3.73295 0 2.1646 1.15 3.7195 3.5841 3.7195 2.4342 0 3.5842-1.5537 3.5842-3.7195 0-2.16588-1.1646-3.73295-3.5842-3.73295zm52.7952 7.27805h1.7683v-1.8207h-1.7683zm-57.9744-10.0061-1.9939 7.661-1.9939-7.661h-2.0122l.4683 1.64146-1.7549 6.27924-1.9098-7.9207h-1.9353l2.7207 10.0061h2.1098l1.6292-5.35 1.5268 5.35h2.1098l2.8549-10.0061z"/></g></svg>