<svg enable-background="new 0 0 240 160" viewBox="0 0 240 160" xmlns="http://www.w3.org/2000/svg"><g clip-rule="evenodd" fill-rule="evenodd"><path d="m70 20h170v140h-170z" fill="#f6f6f6"/><path d="m0 20h70v140h-70z" fill="#e9e9e9"/><path d="m0 86h70v16h-70z" fill="#636d75"/><path d="m7 91h55v6h-55z" fill="#fff"/><path d="m7 75h37v6h-37zm0 32h29v6h-29zm0 16h45v6h-45z" fill="#969ca1"/><circle cx="35.5" cy="45.5" fill="#b0b5b8" r="16.5"/><path d="m90 36h130v107h-130z" fill="#fff"/><path d="m163 48h42c1.7 0 3 1.3 3 3v10c0 1.7-1.3 3-3 3h-42c-1.7 0-3-1.3-3-3v-10c0-1.7 1.3-3 3-3z" fill="#005fb7"/><path d="m0 0h240v20h-240z" fill="#1a1a1a"/></g></svg>
