<svg xmlns="http://www.w3.org/2000/svg" viewBox="0 0 160 160"><defs><style>.cls-1{fill:#a8bece;}.cls-2{fill:none;stroke:#a8bece;stroke-linecap:round;stroke-linejoin:round;stroke-dasharray:5 5;}</style></defs><title>Artboard 1</title><path class="cls-1" d="M37.71 122c8.2-.2 16.4-.4 24.6-.5l24.6-.3s16.4-.1 24.6-.1l24.6-.1-1.1 1.1-.2-10.5c-.1-3.5-.2-7-.1-10.5v-21.1l.1-42.2 1 1-49-.2-24.5-.2-24.5-.2.5-.5-.1 7.4a.4.4 0 1 1-.8 0l-.1-7.4a.47.47 0 0 1 .5-.5l24.5-.2h24.4l49-.2a1 1 0 0 1 1 1l.1 42.2v21.1c0 7 .2 14.1.3 21.1a1.11 1.11 0 0 1-1.1 1.1l-24.6-.1c-8.2 0-16.4 0-24.6-.1s-16.4-.1-24.6-.3-16.4-.3-24.6-.5a.22.22 0 0 1-.2-.2.37.37 0 0 0 .3-.1zm.8-47.86v-1.89a16.57 16.57 0 0 0-.4-3.83.31.31 0 0 0-.22-.28.24.24 0 0 0-.13 0 .26.26 0 0 0-.22 0 .25.25 0 0 0-.12.23 16.45 16.45 0 0 0-.42 3.86c-.1 1.31-.1 2.53-.1 3.83 0 .63 0 1.25.06 1.88.06 1.85.11 3.76.34 5.62a.46.46 0 0 0 .45.45.45.45 0 0 0 .45-.41 38.17 38.17 0 0 0 .35-5.39c0-.71 0-1.42.05-2.15l-.09-1.92z"/><path class="cls-2" d="M31 112.05h96.2s-3.6-22.2-15.1-25.3c-10.1-2.75-14.1 3.4-22.49 3.4-6.7 0-9.3-15.8-22.1-15.8-24.1-.1-36.51 37.7-36.51 37.7z"/><circle class="cls-2" cx="109.61" cy="62.95" r="8.6"/><path class="cls-1" d="M23.21 62.05l5-.1a.4.4 0 0 1 0 .8l-5-.1a.32.32 0 0 1-.3-.3c-.1-.2.09-.3.3-.3zm7.6-2.4a16.23 16.23 0 0 1 2.2-4.6c.1-.2.4-.2.6-.1s.2.4.1.6a16.25 16.25 0 0 0-2.1 4.4.55.55 0 0 1-.5.3q-.45-.3-.3-.6zm6.19-7.9a5.69 5.69 0 0 1 2.6-.4 7.51 7.51 0 0 1 2.6.5c.2.1.4.4.3.6s-.4.4-.6.3a6.35 6.35 0 0 0-4.5-.1.45.45 0 0 1-.6-.3c-.19-.3.01-.5.2-.6zm8.61 3.7a.88.88 0 0 0 .7.1 4.33 4.33 0 0 1 1.2-.5 8 8 0 0 1 2.6-.3.5.5 0 0 1 0 1 8.52 8.52 0 0 0-2.3.3 5.36 5.36 0 0 0-1.1.5 1.73 1.73 0 0 1-1.7-.1.6.6 0 0 1 .6-1zm9.2 1.55a5.81 5.81 0 0 1 .9 2.5 11.33 11.33 0 0 1 .1 2.6.46.46 0 0 1-.5.4.43.43 0 0 1-.4-.4 8 8 0 0 0-1-4.6c-.1-.2-.1-.5.1-.6s.7-.1.8.1zm5.3 5h3.7a.32.32 0 0 1 .3.3.27.27 0 0 1-.3.3h-3.7a.43.43 0 0 1-.4-.4c.1 0 .2-.2.4-.2z"/></svg>