<svg width="120" height="24" viewBox="0 0 120 24" fill="none" xmlns="http://www.w3.org/2000/svg">
<path d="M44.1777 0.759766H48.6924L56.3689 14.6434L64.0453 0.759766H68.4623V23.5719H64.7793V6.08919L58.047 18.1939H54.593L47.8607 6.08919V23.5719H44.1777V0.759766Z" fill="black"/>
<path d="M80.3438 23.9784C78.7738 24.011 77.2237 23.6206 75.8565 22.8488C74.5757 22.1061 73.529 21.0195 72.8345 19.7122C72.0923 18.2959 71.7197 16.7155 71.7501 15.1168C71.7175 13.5033 72.0814 11.9068 72.8102 10.4666C73.4795 9.16106 74.498 8.0666 75.7531 7.30568C77.0617 6.53044 78.5605 6.13478 80.0815 6.16388C81.5364 6.10655 82.9736 6.49396 84.2027 7.27398C85.4313 8.054 86.3933 9.19016 86.9601 10.5309C87.6203 12.0618 87.9425 13.7178 87.9043 15.3847V16.3958H75.4148C75.5651 17.654 76.1527 18.8188 77.0752 19.6879C78.0159 20.5026 79.2306 20.9304 80.4745 20.8844C81.443 20.907 82.4063 20.7406 83.3106 20.3941C84.141 20.0436 84.8984 19.5406 85.5434 18.9113L87.4991 21.3048C85.5538 23.0872 83.1686 23.9776 80.3438 23.9754M83.0335 10.4453C82.6352 10.0479 82.1592 9.73782 81.6346 9.53413C81.1103 9.33087 80.5492 9.2388 79.9872 9.26399C79.4235 9.25183 78.8632 9.35346 78.3399 9.56236C77.8165 9.7717 77.3405 10.0844 76.941 10.4818C76.0819 11.3639 75.5351 12.5031 75.3844 13.7252H84.3494C84.2396 12.3346 83.8 11.2453 83.0304 10.4575" fill="black"/>
<path d="M92.356 9.59375H88.9531V6.57877H92.3438V1.59375H95.8956V6.57877H101.047V9.59375H95.9078V17.2341C95.9078 18.5054 96.1249 19.4118 96.5597 19.9538C96.9944 20.4958 97.7384 20.7677 98.7925 20.7699C99.1903 20.7733 99.5881 20.7538 99.9838 20.7121C100.31 20.6734 100.669 20.6218 101.059 20.5566V23.5382C100.613 23.6711 100.158 23.7727 99.6971 23.8426C99.1707 23.9195 98.6391 23.9573 98.1071 23.9551C94.2708 23.9551 92.3529 21.8591 92.3529 17.6667L92.356 9.59375Z" fill="black"/>
<path d="M119.574 23.5614H116.086V21.1831C115.485 22.0586 114.672 22.7674 113.723 23.2447C112.709 23.7407 111.591 23.9892 110.463 23.9696C109.05 23.9944 107.662 23.5944 106.479 22.8213C105.297 22.0339 104.349 20.9416 103.737 19.6604C103.054 18.2241 102.714 16.6489 102.744 15.0589C102.718 13.4693 103.068 11.8958 103.764 10.4669C104.392 9.18264 105.359 8.09469 106.561 7.32118C107.787 6.54941 109.212 6.15288 110.661 6.17894C111.742 6.16157 112.812 6.39262 113.789 6.85517C114.7 7.29599 115.489 7.95397 116.086 8.77047V6.58719H119.574V23.5614ZM116.022 12.5164C115.671 11.5865 115.043 10.787 114.222 10.2263C113.383 9.66038 112.389 9.36679 111.377 9.3859C109.856 9.3859 108.645 9.89317 107.743 10.9081C106.841 11.9236 106.39 13.3029 106.39 15.0467C106.39 16.7948 106.825 18.1794 107.694 19.2004C108.563 20.2219 109.742 20.7292 111.231 20.7231C112.271 20.7401 113.293 20.4452 114.164 19.8767C115.008 19.3303 115.658 18.532 116.022 17.5957V12.5164Z" fill="black"/>
<path d="M4.36367 15.7959C4.36367 9.92139 7.29441 3.91922 10.788 3.91922C12.6799 3.91922 14.2608 5.01281 16.6825 8.4873C14.3828 12.0139 12.9908 14.2245 12.9908 14.2245C9.92937 19.0241 8.86922 20.099 7.16324 20.099C5.40862 20.099 4.36671 18.5581 4.36671 15.8111M24.5509 13.6187L22.4184 10.086C21.846 9.1544 21.2957 8.29664 20.7676 7.51271C22.6777 4.56808 24.2495 3.10011 26.1227 3.10011C30.0128 3.10011 33.129 8.82519 33.129 15.8597C33.129 18.5399 32.2517 20.096 30.4302 20.096C28.6847 20.096 27.853 18.9446 24.5388 13.6156M19.0008 5.06754C16.1192 1.41325 13.7127 0.00304182 10.828 0.00304182C4.95173 0.00304182 0.449219 7.64995 0.449219 15.7412C0.449219 20.8052 2.88657 24 7.00472 24C9.95978 24 12.0827 22.608 15.8603 16.0061L18.5196 11.3103C18.8992 11.9192 19.2992 12.5789 19.7196 13.2895L21.4895 16.268C24.9409 22.0539 26.8632 23.997 30.3451 23.997C34.3446 23.997 36.5683 20.7596 36.5683 15.5887C36.5683 7.11705 31.9624 0 26.3694 0C23.4087 0 21.0934 2.22932 18.9978 5.0645" fill="black"/>
</svg>
