<svg width="164" height="24" viewBox="0 0 164 24" fill="none" xmlns="http://www.w3.org/2000/svg">
<mask id="mask0_6836_79642" style="mask-type:luminance" maskUnits="userSpaceOnUse" x="0" y="0" width="165" height="24">
<path d="M164.002 0H0.491943V24H164.002V0Z" fill="white"/>
</mask>
<g mask="url(#mask0_6836_79642)">
<g style="mix-blend-mode:multiply">
<path d="M5.83726 4.24601L0.519043 23.65H5.40598L8.42445 21.3503L8.71189 23.65H13.5988L14.3175 23.0751H14.7487L15.1799 23.65H25.2413L27.9722 21.6377L27.6847 23.65H32.4279L36.0212 21.0628L35.4463 23.65H40.3332L45.5077 19.7692L52.1196 6.11457L53.2695 15.3135L50.9696 23.5063H56.4315L60.4559 20.4879C60.4559 20.4879 61.6058 23.2188 63.9056 23.5063C64.4802 23.65 65.6301 23.65 65.6301 23.65C66.4931 23.65 66.9242 23.65 67.6422 23.5063C68.6487 23.3625 69.0798 23.0751 70.0863 22.6439C71.3797 22.069 73.1041 20.9191 73.1041 20.9191L72.5296 23.5063H77.7038L80.2913 21.7815L79.8602 23.5063H91.0709L93.8018 21.494L94.3772 23.5063H100.558L105.444 19.6255L103.145 8.9892L110.044 0.365227H104.294L101.277 2.6649L101.851 0.365227H95.9582L94.8083 1.37131C94.8083 1.37131 93.946 0.940108 93.6584 0.652668C93.2272 0.50891 92.365 0.508909 92.365 0.508909H82.5911L81.1535 1.65875C81.1535 1.65875 80.1471 0.652667 78.8537 0.365227C76.6981 -0.20973 76.267 0.0777097 75.2605 0.0777097C73.3918 0.0777097 71.3797 0.940109 71.3797 0.940109V0.508909H65.3432L62.3246 2.95234L62.1811 0.508909H56.2873L54.2752 1.94627L54.8505 0.508909H49.6763L47.0888 2.37746L46.9453 0.508909H41.6269L39.6146 2.09002L39.4709 0.508909H24.6663L23.9477 0.940109L24.0914 0.508909H18.917L16.9047 1.94627L16.6172 0.365227H10.8679L5.83726 4.24601Z" fill="black" stroke="black" stroke-width="0.672691" stroke-miterlimit="3.864"/>
<path d="M114.787 0.510173L110.331 4.10344L104.869 23.795H110.187L115.218 20.0579L115.937 17.9019C115.937 17.9019 116.942 17.9019 117.518 17.9019C118.092 17.9019 118.955 17.6144 118.955 17.6144C118.955 17.6144 118.38 20.0579 119.099 21.4952C119.961 23.3638 121.685 23.795 123.698 23.9383C125.566 24.0826 126.573 23.9383 128.297 23.3638C129.878 22.7888 132.035 21.3515 132.035 21.3515C132.035 21.3515 133.041 22.6451 133.903 23.22C134.909 23.795 135.628 23.795 136.778 23.9383C138.647 24.0826 139.652 23.9383 141.377 23.22C143.246 22.5014 146.264 20.3454 146.264 20.3454L145.402 23.795H150.433L155.319 20.0579L158.769 7.98431L162.937 4.53464L163.944 0.797614H152.445L151.295 1.66001C151.295 1.66001 150.433 1.08505 149.858 0.797614C148.564 0.222658 147.845 0.222656 146.408 0.222656C144.683 0.222656 143.677 0.510175 142.096 1.22881C141.09 1.66001 139.94 2.80985 139.94 2.80985C139.94 2.80985 139.221 1.37257 138.359 0.941373C136.778 0.222658 135.772 0.222656 134.047 0.222656C132.466 0.222656 131.604 0.510175 130.31 1.08506C129.16 1.51625 127.435 2.80985 127.435 2.80985C127.435 2.80985 126.86 1.80377 126.429 1.37257C126.142 0.941374 124.992 0.653856 124.992 0.653856L114.787 0.510173Z" fill="black" stroke="black" stroke-width="0.672691" stroke-miterlimit="3.864"/>
<path d="M11.0093 0.941406L6.12231 19.0518H9.85942L12.8778 8.84674L14.0277 19.0518H18.1959L23.3704 0.941406H19.6333L17.0461 9.70914L16.04 0.941406H11.0093Z" fill="white"/>
<path d="M24.9526 0.941406L20.0657 19.0518H29.552L30.7019 15.8897H25.3838L26.6774 11.4339H31.5643L32.5704 8.27178H27.6835L28.9771 4.24723H34.2952L33.2891 19.0518H37.4574L42.2006 8.84674L41.1945 19.0518H45.2189L53.9864 0.941406H50.1063L45.6501 9.99658L46.5123 0.941406H42.3443L38.1761 9.85289L39.0385 0.941406H24.9526Z" fill="white"/>
<path d="M24.9526 0.941406L20.0657 19.0518H29.552L30.7019 15.8897H25.3838L26.6774 11.4339H31.5643L32.5704 8.27178H27.6835L28.9771 4.24723H34.2952L33.2891 19.0518H37.4574L42.2006 8.84674L41.1945 19.0518H45.2189L53.9864 0.941406H50.1063L45.6501 9.99658L46.5123 0.941406H42.3443L38.1761 9.85289L39.0385 0.941406H24.9526Z" stroke="black" stroke-width="0.282033" stroke-miterlimit="3.864"/>
<path d="M11.0093 0.941406L6.12231 19.0518H9.85942L12.8778 8.84674L14.0277 19.0518H18.1959L23.3704 0.941406H19.6333L17.0461 9.70914L16.04 0.941406H11.0093Z" stroke="black" stroke-width="0.282033" stroke-miterlimit="3.864"/>
<path d="M68.5059 4.24602L65.3431 16.0321C65.3431 16.0321 65.0561 17.4695 65.4873 18.3319C65.7749 18.7631 66.0618 18.9068 66.493 19.1943C67.356 19.7692 67.9305 19.7692 68.937 19.913C70.0869 20.0567 70.6615 20.0568 71.668 19.7692C72.5302 19.6255 73.1048 19.4818 73.967 19.1943C74.6858 18.9068 74.9735 18.6194 75.5481 18.1882C76.2668 17.6133 77.1299 16.3197 77.1299 16.3197C77.1299 16.3197 78.8543 10.2829 78.8543 10.4266L80.1477 5.97081C80.0043 5.97081 80.8665 3.81482 80.5788 2.80867C80.1477 1.08387 79.142 0.652676 78.4232 0.652676C77.1299 0.365235 76.8422 0.365234 75.8357 0.365234C75.1169 0.365234 74.6858 0.365235 74.1112 0.508917C73.1048 0.652675 72.6737 0.796435 71.8114 1.22763C71.2361 1.51507 70.9492 1.65883 70.518 2.09003C69.3681 2.66498 68.5059 4.24602 68.5059 4.24602Z" fill="white"/>
<path d="M57.0057 0.941406L58.4433 11.7214L56.4312 19.1955H60.5989L62.6111 12.0089L70.0851 1.08509H65.7732L61.7488 7.55314L61.3177 1.08509H57.0057V0.941406Z" fill="white"/>
<path d="M73.1029 4.67847L70.0851 14.8836C70.0851 14.8836 69.9409 15.4585 70.0851 15.746C70.2285 16.0335 70.372 16.1771 70.5162 16.1771C70.8031 16.3209 70.9473 16.3209 71.3785 16.3209C71.8096 16.3209 71.953 16.3209 72.3842 16.0335C72.6718 15.8897 72.6718 15.746 72.8153 15.4585C72.9595 15.3148 72.8153 14.8836 72.9595 15.0273L75.2593 6.69078L75.5462 5.25343C75.5462 5.25343 75.6904 4.82223 75.6904 4.67847C75.6904 4.53479 75.5462 4.39103 75.5462 4.39103C75.4028 4.10352 75.1151 4.10352 74.8282 4.10352C74.5405 4.10352 74.3971 4.10359 74.1094 4.24727C73.8217 4.24727 73.6783 4.39103 73.5341 4.53479C73.2472 4.39103 73.1029 4.67847 73.1029 4.67847Z" fill="black" stroke="black" stroke-width="0.282033" stroke-miterlimit="3.864"/>
<path d="M82.7354 0.941406L77.7046 19.0518H82.0166L84.1722 11.7214H86.0409C86.0409 11.7214 86.6155 11.8651 86.7597 12.1526C86.9031 12.2963 86.7597 12.7275 86.7597 12.7275L85.0344 19.1955H89.6341L91.5028 12.4401C91.5028 12.4401 91.7905 11.5777 91.5028 11.1465C91.3593 10.859 91.2151 10.859 90.9274 10.7153C90.6405 10.5715 90.2094 10.4278 90.2094 10.4278C90.2094 10.4278 90.9274 10.1403 91.3593 9.85289C91.7904 9.56538 91.9339 9.56538 92.2216 9.27794C92.365 9.13418 92.6527 8.84674 92.6527 8.84674L94.0903 3.95979C94.0903 3.95979 94.2337 3.38484 94.0903 2.95364C93.9461 2.6662 93.9461 2.37876 93.6584 2.09124C93.3715 1.8038 93.2273 1.66005 92.9404 1.51629C92.7962 1.37261 92.5092 1.37261 92.5092 1.37261" fill="white"/>
<path d="M86.6151 4.24727L85.3218 8.41558H87.6216C87.6216 8.41558 88.0527 8.27182 88.1962 8.12806C88.4838 7.84062 88.4838 7.69686 88.6273 7.26567C88.7715 6.83447 88.915 6.54702 88.915 6.11583C89.0584 5.68463 89.2026 5.39719 89.2026 4.82223C89.2026 4.67847 89.2026 4.39103 89.0584 4.24727C88.915 4.10359 88.915 4.10352 88.7715 4.10352C88.6273 4.10352 88.3404 4.10352 88.3404 4.10352L86.6151 4.24727Z" fill="black" stroke="black" stroke-width="0.282033" stroke-miterlimit="3.864"/>
<path d="M96.2457 0.941406L90.9272 19.0518H95.6711L98.1144 11.0027L99.552 19.0518H104.439L102.426 8.99049L108.894 0.941406H104.439L98.9766 6.97818L100.701 0.941406H96.2457Z" fill="white"/>
<path d="M96.2457 0.941406L90.9272 19.0518H95.6711L98.1144 11.0027L99.552 19.0518H104.439L102.426 8.99049L108.894 0.941406H104.439L98.9766 6.97818L100.701 0.941406H96.2457Z" stroke="black" stroke-width="0.282033" stroke-miterlimit="3.864"/>
<path d="M82.7354 0.941406L77.7046 19.0518H82.0166L84.1722 11.7214H86.0409C86.0409 11.7214 86.6155 11.8651 86.7597 12.1526C86.9031 12.2963 86.7597 12.7275 86.7597 12.7275L85.0344 19.1955H89.6341L91.5028 12.4401C91.5028 12.4401 91.7905 11.5777 91.5028 11.1465C91.3593 10.859 91.2151 10.859 90.9274 10.7153C90.6405 10.5715 90.2094 10.4278 90.2094 10.4278C90.2094 10.4278 90.9274 10.1403 91.3593 9.85289C91.7904 9.56538 91.9339 9.56538 92.2216 9.27794C92.365 9.13418 92.6527 8.84674 92.6527 8.84674L94.0903 3.95979C94.0903 3.95979 94.2337 3.38484 94.0903 2.95364C93.9461 2.6662 93.9461 2.37876 93.6584 2.09124C93.3715 1.8038 93.2273 1.66005 92.9404 1.51629C92.7962 1.37261 92.5092 1.37261 92.5092 1.37261L82.7354 0.941406Z" stroke="black" stroke-width="0.282033" stroke-miterlimit="3.864"/>
<path d="M68.5059 4.24602L65.3431 16.0321C65.3431 16.0321 65.0561 17.4695 65.4873 18.3319C65.7749 18.7631 66.0618 18.9068 66.493 19.1943C67.356 19.7692 67.9305 19.7692 68.937 19.913C70.0869 20.0567 70.6615 20.0568 71.668 19.7692C72.5302 19.6255 73.1048 19.4818 73.967 19.1943C74.6858 18.9068 74.9735 18.6194 75.5481 18.1882C76.2668 17.6133 77.1299 16.3197 77.1299 16.3197C77.1299 16.3197 78.8543 10.2829 78.8543 10.4266L80.1477 5.97081C80.0043 5.97081 80.8665 3.81482 80.5788 2.80867C80.1477 1.08387 79.142 0.652676 78.4232 0.652676C77.1299 0.365235 76.8422 0.365234 75.8357 0.365234C75.1169 0.365234 74.6858 0.365235 74.1112 0.508917C73.1048 0.652675 72.6737 0.796435 71.8114 1.22763C71.2361 1.51507 70.9492 1.65883 70.518 2.09003C69.3681 2.66498 68.5059 4.24602 68.5059 4.24602Z" stroke="black" stroke-width="0.282033" stroke-miterlimit="3.864"/>
<path d="M57.0057 0.941406L58.4433 11.7214L56.4312 19.1955H60.5989L62.6111 12.0089L70.0851 1.08509H65.7732L61.7488 7.55314L61.3177 1.08509H57.0057V0.941406Z" stroke="black" stroke-width="0.282033" stroke-miterlimit="3.864"/>
<path d="M115.364 0.941406L110.333 19.0518H114.502L116.227 13.5899C116.227 13.5899 119.533 13.7337 120.395 13.5899C121.114 13.4462 121.545 13.3025 122.12 13.015C122.838 12.5838 123.269 12.4401 123.701 11.7214C123.988 11.2902 124.132 11.0027 124.276 10.5715C125.282 8.27178 126.145 4.24723 126.145 4.24723C126.145 4.24723 126.432 3.5286 126.288 2.95364C126.145 2.6662 126.288 2.37876 126.145 2.09124C126 1.8038 125.857 1.66005 125.569 1.37261C125.282 1.08509 125.138 1.08509 124.707 0.941406H124.564" fill="white"/>
<path d="M118.813 4.24651L117.087 10.1395C117.087 10.1395 117.375 10.2833 117.519 10.2833C117.806 10.427 117.95 10.2833 118.237 10.2833C118.525 10.2833 118.813 10.2833 119.1 10.1395C119.531 9.99577 119.818 9.70833 120.106 9.42089C120.394 9.13337 120.394 8.84593 120.537 8.41473C120.825 7.55234 121.256 6.11499 121.256 6.11499C121.256 6.11499 121.399 5.68379 121.399 5.25259C121.399 4.96515 121.544 4.67763 121.256 4.39019C121.112 4.24643 120.968 4.24643 120.825 4.10275C120.249 3.95899 118.813 4.24651 118.813 4.24651Z" fill="black" stroke="black" stroke-width="0.282033" stroke-miterlimit="3.864"/>
<path d="M127.003 3.67074L123.41 16.0318C123.41 16.0318 123.267 17.6129 123.841 18.3316C124.129 18.7628 124.416 18.9064 124.848 19.194C125.71 19.7689 126.285 19.7689 127.291 19.9126C128.441 20.0564 129.016 20.0564 130.022 19.9126C130.884 19.7689 131.459 19.6252 132.322 19.3377C133.04 19.0502 133.328 18.7628 133.903 18.1878C134.621 17.6128 135.34 16.3192 135.34 16.3192C135.34 16.3192 137.065 10.4262 137.065 10.5699L138.359 5.82672C138.215 5.82672 138.933 4.24569 138.646 3.23954C138.502 2.66458 138.502 2.08962 138.071 1.94594C137.64 1.65842 137.209 1.37098 136.634 1.08354C135.771 0.796103 135.34 0.796102 134.334 0.652344C133.328 0.652344 132.753 0.652345 131.89 0.796027C131.172 0.939785 130.741 1.08354 130.022 1.37098C129.16 1.6585 128.728 1.94594 128.01 2.5209C127.722 2.80834 127.003 3.67074 127.003 3.67074Z" fill="white"/>
<path d="M131.031 5.10894L128.3 14.7391C128.3 14.7391 128.012 15.889 128.588 16.0327C128.875 16.1764 129.306 16.3202 129.737 16.1764C130.169 16.1764 130.456 15.889 130.743 15.889C131.319 15.6015 131.319 14.8828 131.319 15.0266L133.618 6.69005L134.05 5.2527C134.05 5.2527 134.336 4.8215 133.905 4.24654C133.762 4.10286 133.474 3.9591 133.043 3.9591C132.468 3.81534 132.037 4.10286 131.605 4.24654C131.319 4.3903 131.031 5.10894 131.031 5.10894Z" fill="black" stroke="black" stroke-width="0.282033" stroke-miterlimit="3.864"/>
<path d="M152.589 0.941406L151.727 4.10348H154.602L150.433 19.1955H154.602L158.77 4.39099H161.788L162.794 1.08509H152.589V0.941406Z" fill="white"/>
<path d="M146.12 7.12098H150.289C150.289 7.12098 150.577 6.11483 150.72 5.39619C150.863 4.82123 151.008 4.39004 151.008 3.81508C151.008 3.09644 151.008 2.66524 150.577 1.94652C150.289 1.51532 150.145 1.37165 149.714 1.08413C149.282 0.796689 148.996 0.796688 148.42 0.65293C147.846 0.509248 147.558 0.509171 146.983 0.509171C146.265 0.509171 145.833 0.365489 145.115 0.509171C144.684 0.509171 144.539 0.65293 144.108 0.796688C143.677 0.94037 143.246 0.940447 142.815 1.08413C142.239 1.22789 141.953 1.51533 141.521 1.80285C141.09 2.09029 140.803 2.23396 140.515 2.66524C140.227 2.95268 139.94 3.24012 139.653 3.67132C139.365 4.10252 139.365 4.39003 139.222 4.82123C139.077 5.25243 139.077 5.39611 138.934 5.82731C138.934 6.40227 138.79 6.68978 138.934 7.12098C139.077 7.55218 139.077 7.69586 139.365 8.12706C139.796 8.98946 140.084 9.27698 140.658 9.99562C141.09 10.5706 141.234 10.858 141.665 11.2892C142.096 11.7204 142.384 12.0079 142.671 12.4391C142.958 12.7266 143.102 12.8703 143.246 13.1578C143.389 13.4452 143.534 13.7327 143.677 14.0202C143.677 14.4514 143.677 14.5951 143.677 15.0263C143.534 15.3138 143.534 15.4575 143.246 15.745C142.958 16.0324 142.815 16.1761 142.384 16.1761C141.953 16.1761 141.665 16.1762 141.377 16.0324C141.09 15.8887 140.946 15.745 140.803 15.6012C140.658 15.3138 140.658 15.17 140.658 14.8826C140.658 14.5951 140.803 14.4514 140.803 14.0202C140.803 13.7327 140.946 13.3015 140.946 13.3015H136.491C136.491 13.3015 136.346 13.7327 136.203 13.8764C136.06 14.3076 136.06 14.4514 135.915 14.8826C135.772 15.4575 135.628 15.8887 135.628 16.4637C135.628 17.0385 135.628 17.326 135.915 17.7572C136.06 18.1885 136.203 18.3321 136.491 18.7633C136.778 19.0509 137.065 19.1945 137.496 19.3383C138.215 19.6257 138.646 19.7695 139.365 19.9133C140.227 20.0569 140.658 20.0569 141.521 19.9133C142.384 19.7695 142.958 19.7695 143.821 19.4821C144.539 19.1945 144.827 19.0509 145.402 18.6197C145.977 18.1885 146.265 18.0447 146.696 17.4697C147.127 16.8948 147.414 16.6074 147.701 16.0324C147.989 15.3138 148.132 15.0263 148.277 14.1639C148.42 13.3015 148.42 12.7266 148.277 11.8642C148.132 11.2892 147.846 10.858 147.558 10.2831C147.127 9.56441 146.696 9.27697 146.265 8.70202C145.689 8.12706 145.258 7.83962 144.684 7.12098C144.252 6.68978 143.965 6.54602 143.821 5.97107C143.677 5.53987 143.534 5.25243 143.534 4.67747C143.534 4.39003 143.677 4.24627 143.821 3.95883C143.965 3.81507 144.108 3.81508 144.396 3.67132C144.684 3.67132 144.827 3.52764 145.115 3.52764C145.402 3.52764 145.546 3.67132 145.833 3.81508C145.977 3.95884 146.12 4.10252 146.12 4.39003C146.12 4.67747 146.12 4.82123 146.12 5.10867C146.12 5.39611 146.12 5.53987 145.977 5.97107C146.265 6.68978 146.12 7.12098 146.12 7.12098Z" fill="white"/>
<path d="M146.12 7.12098H150.289C150.289 7.12098 150.577 6.11483 150.72 5.39619C150.863 4.82123 151.008 4.39004 151.008 3.81508C151.008 3.09644 151.008 2.66524 150.577 1.94652C150.289 1.51532 150.145 1.37165 149.714 1.08413C149.282 0.796689 148.996 0.796688 148.42 0.65293C147.846 0.509248 147.558 0.509171 146.983 0.509171C146.265 0.509171 145.833 0.365489 145.115 0.509171C144.684 0.509171 144.539 0.65293 144.108 0.796688C143.677 0.94037 143.246 0.940447 142.815 1.08413C142.239 1.22789 141.953 1.51533 141.521 1.80285C141.09 2.09029 140.803 2.23404 140.515 2.66524C140.227 2.95268 139.94 3.24012 139.653 3.67132C139.365 4.10252 139.365 4.39003 139.222 4.82123C139.077 5.25243 139.077 5.39611 138.934 5.82731C138.934 6.40227 138.79 6.68978 138.934 7.12098C139.077 7.55218 139.077 7.69586 139.365 8.12706C139.796 8.98946 140.084 9.27698 140.658 9.99562C141.09 10.5706 141.234 10.858 141.665 11.2892C142.096 11.7204 142.384 12.0079 142.671 12.4391C142.958 12.7266 143.102 12.8703 143.246 13.1578C143.389 13.4452 143.534 13.7327 143.677 14.0202C143.677 14.4514 143.677 14.5951 143.677 15.0263C143.534 15.3138 143.534 15.4575 143.246 15.745C142.958 16.0324 142.815 16.1761 142.384 16.1761C141.953 16.1761 141.665 16.1762 141.377 16.0324C141.09 15.8887 140.946 15.745 140.803 15.6012C140.658 15.3138 140.658 15.17 140.658 14.8826C140.658 14.5951 140.803 14.4514 140.803 14.0202C140.803 13.7327 140.946 13.3015 140.946 13.3015H136.491C136.491 13.3015 136.346 13.7327 136.203 13.8764C136.06 14.3076 136.06 14.4514 135.915 14.8826C135.772 15.4575 135.628 15.8887 135.628 16.4637C135.628 17.0385 135.628 17.326 135.915 17.7572C136.06 18.1885 136.203 18.3321 136.491 18.7633C136.778 19.0509 137.065 19.1945 137.496 19.3383C138.215 19.6257 138.646 19.7695 139.365 19.9133C140.227 20.0569 140.658 20.0569 141.521 19.9133C142.384 19.7695 142.958 19.7695 143.821 19.4821C144.539 19.1945 144.827 19.0509 145.402 18.6197C145.977 18.1885 146.265 18.0447 146.696 17.4697C147.127 16.8948 147.414 16.6074 147.701 16.0324C147.989 15.3138 148.132 15.0263 148.277 14.1639C148.42 13.3015 148.42 12.7266 148.277 11.8642C148.132 11.2892 147.846 10.858 147.558 10.2831C147.127 9.56441 146.696 9.27697 146.265 8.70202C145.689 8.12706 145.258 7.83962 144.684 7.12098C144.252 6.68978 143.965 6.54602 143.821 5.97107C143.677 5.53987 143.534 5.25243 143.534 4.67747C143.534 4.39003 143.677 4.24627 143.821 3.95883C143.965 3.81507 144.108 3.81508 144.396 3.67132C144.684 3.67132 144.827 3.52764 145.115 3.52764C145.402 3.52764 145.546 3.67132 145.833 3.81508C145.977 3.95884 146.12 4.10252 146.12 4.39003C146.12 4.67747 146.12 4.82123 146.12 5.10867C146.12 5.39611 146.12 5.53987 145.977 5.97107C146.265 6.68978 146.12 7.12098 146.12 7.12098Z" stroke="black" stroke-width="0.282033" stroke-miterlimit="3.864"/>
<path d="M127.003 3.67074L123.41 16.0318C123.41 16.0318 123.267 17.6129 123.841 18.3316C124.129 18.7628 124.416 18.9064 124.848 19.194C125.71 19.7689 126.285 19.7689 127.291 19.9126C128.441 20.0564 129.016 20.0564 130.022 19.9126C130.884 19.7689 131.459 19.6252 132.322 19.3377C133.04 19.0502 133.328 18.7628 133.903 18.1878C134.621 17.6128 135.34 16.3192 135.34 16.3192C135.34 16.3192 137.065 10.4262 137.065 10.5699L138.359 5.82672C138.215 5.82672 138.933 4.24569 138.646 3.23954C138.502 2.66458 138.502 2.08962 138.071 1.94594C137.64 1.65842 137.209 1.37098 136.634 1.08354C135.771 0.796103 135.34 0.796102 134.334 0.652344C133.328 0.652344 132.753 0.652345 131.89 0.796027C131.172 0.939785 130.741 1.08354 130.022 1.37098C129.16 1.6585 128.728 1.94594 128.01 2.5209C127.722 2.80834 127.003 3.67074 127.003 3.67074Z" stroke="black" stroke-width="0.282033" stroke-miterlimit="3.864"/>
<path d="M115.364 0.941406L110.333 19.0518H114.502L116.227 13.5899C116.227 13.5899 119.533 13.7337 120.395 13.5899C121.114 13.4462 121.545 13.3025 122.12 13.015C122.838 12.5838 123.269 12.4401 123.701 11.7214C123.988 11.2902 124.132 11.0027 124.276 10.5715C125.282 8.27178 126.145 4.24723 126.145 4.24723C126.145 4.24723 126.432 3.5286 126.288 2.95364C126.145 2.6662 126.288 2.37876 126.145 2.09124C126 1.8038 125.857 1.66005 125.569 1.37261C125.282 1.08509 125.138 1.08509 124.707 0.941406H124.564H115.364Z" stroke="black" stroke-width="0.282033" stroke-miterlimit="3.864"/>
<path d="M152.589 0.941406L151.727 4.10348H154.602L150.433 19.1955H154.602L158.77 4.39099H161.788L162.794 1.08509H152.589V0.941406Z" stroke="black" stroke-width="0.282033" stroke-miterlimit="3.864"/>
</g>
</g>
</svg>
