<svg width="97" height="24" viewBox="0 0 97 24" fill="none" xmlns="http://www.w3.org/2000/svg">
<path d="M63.5594 13.8958C63.2833 13.8958 63.1736 13.5776 63.4881 13.2155C64.4939 12.5008 64.8896 12.2802 64.9439 12.253C65.5925 12.253 64.3505 13.8958 63.5594 13.8958ZM96.5839 10.3039C96.5265 10.2553 96.4685 10.2174 96.4111 10.1843C96.3978 10.1744 96.3859 10.1642 96.3701 10.1543C95.8655 9.82958 95.3137 9.97411 95.3137 9.97411C95.3137 9.97411 95.4175 10.1628 94.9041 10.5817C94.8722 10.6077 94.849 10.6303 94.8297 10.6515C94.815 10.6634 94.8006 10.6756 94.7859 10.6877C92.9177 12.2083 90.4269 13.4147 87.8301 13.9235C88.6702 13.4299 90.6597 11.5507 89.2772 10.537C88.4711 9.94583 87.0424 10.2055 85.6941 10.8823C85.8502 10.6303 86.221 10.0938 86.0717 9.44887C85.9223 8.80398 84.6871 8.6173 84.0018 8.86055C83.9789 9.52722 83.8723 9.88191 83.756 10.0284C80.7324 12.6869 76.7759 14.0991 76.4521 13.7758C76.1885 13.5131 77.0738 12.4767 77.3677 12.0632C77.6126 11.7181 77.6191 11.2984 77.4452 10.9819C77.1736 10.4878 76.6656 10.4586 75.7277 10.6634C74.4312 10.8843 73.5111 10.4207 72.7363 9.24126C72.3562 8.66284 71.4321 8.7788 70.9567 9.09559C71.0749 9.46923 71.0429 9.84712 70.9309 10.2295C70.135 12.0723 67.7334 12.085 66.8249 11.4596C66.6953 11.0738 66.3545 10.3613 65.6686 10.2567C63.5486 9.9331 62.82 11.2322 62.4724 11.6282C61.7195 12.4869 56.6212 14.7155 55.4296 13.7481C54.5524 13.0368 55.2898 10.4473 56.9637 7.85418C59.4454 3.93931 60.57 3.98513 60.9665 4.38111C61.2118 4.62606 61.4519 5.16884 60.953 6.12854C60.917 6.19755 60.8814 6.26232 60.8461 6.32568C59.9887 7.73086 59.6547 7.6593 59.6547 7.6593C59.3747 8.50359 59.7331 8.96407 59.9981 9.17564C60.2846 9.45763 60.6964 9.36147 60.8223 9.31819C61.2426 9.17394 61.5028 8.80624 61.7438 8.43288C62.9436 6.5743 63.6918 3.61998 61.7263 2.55167C60.3191 1.78682 57.9506 2.81952 55.3297 7.06108C53.0016 10.8283 52.3431 13.7954 54.0218 15.2014C56.0651 16.9126 60.3598 14.6546 61.7724 14.0013C61.7333 14.2867 61.8439 15.7179 63.2633 15.6375C65.0797 15.5309 66.2034 13.9673 66.6863 13.1694C67.3939 13.579 70.4948 14.1662 72.376 11.3442C72.5782 11.5153 73.7113 12.3381 75.2214 12.3381C74.6871 13.3145 74.0001 14.4858 75.0158 15.2891C76.4399 16.4148 81.3202 13.7037 82.7417 12.8682C81.9339 14.3362 80.5287 17.6556 79.1108 20.5992C78.527 21.8112 77.7133 23.4404 78.57 23.8734C79.2356 24.2098 80.2346 23.8624 80.3856 22.9904C80.5825 21.8497 81.6856 18.6677 82.4682 16.9454C83.9557 13.6421 85.293 11.9308 87.5515 11.9308C87.4115 12.2001 87.3691 12.412 86.6187 13.1607C85.8001 13.9775 84.886 13.9308 84.9327 14.8122C84.9598 15.3312 85.4927 15.4772 85.6412 15.5176C86.8192 15.8347 90.0805 14.8673 91.3759 14.3944C92.8659 13.8505 94.892 12.856 96.391 11.9014C97.0984 11.4509 97.1655 10.7949 96.5839 10.3039ZM45.6708 6.98556C44.4167 7.07833 42.8989 7.49412 42.3363 8.75193C41.8705 9.79196 42.2376 10.8883 43.2148 12.1195C43.8416 12.8835 44.4152 13.5346 44.5782 13.7116C44.1273 13.8067 43.1453 13.7725 42.1595 13.5923C42.1559 13.5914 42.1513 13.5909 42.1471 13.59C41.9222 13.5484 41.6974 13.4987 41.4785 13.4418C40.9218 13.2662 40.7691 13.0424 40.7691 13.0424L40.6876 13.1018C40.6876 13.0996 40.6876 13.0981 40.6876 13.0981L40.7691 13.0424C40.3923 13.0942 40.0789 13.3558 39.8569 13.6443C39.6349 13.9331 39.4063 14.4917 39.6001 14.7599C39.7653 14.9884 40.0928 15.1137 40.7167 15.1349C41.6813 15.1802 44.2795 15.5233 45.2397 15.6305C45.9811 15.7136 46.4795 15.1765 46.6251 14.8229C46.8214 14.352 46.6192 13.8324 46.3703 13.5453C45.1374 12.1229 43.4106 10.5692 44.0374 9.27039C44.3245 8.675 45.7112 8.79493 46.1692 8.93069C47.1464 9.22146 47.6312 8.8679 47.8532 8.21396C47.9964 7.79365 47.7409 6.83282 45.6708 6.98556ZM20.2622 8.62295C20.4375 8.79804 20.063 9.19261 19.7335 9.40644C18.8293 9.9925 17.9188 10.3325 17.2694 10.5723C17.9742 9.13038 20.0155 8.28015 20.2622 8.62295ZM41.2123 11.7705C41.7053 11.495 41.9024 10.9248 41.5082 10.4524C41.1139 9.98062 40.3341 10.0199 39.9862 10.2301C39.6951 10.4052 39.3574 10.7081 38.3539 10.7599C37.4091 10.8085 37.0293 10.4035 36.4325 10.4035C35.765 10.4035 35.4957 10.8713 34.6692 11.8994C34.2483 12.423 33.3019 13.6271 32.8689 13.6271C32.5021 13.6271 32.362 12.5721 32.362 11.2C32.362 10.5766 32.0871 10.0708 31.3766 10.1181C30.7852 10.1574 30.6865 10.9248 30.3776 11.2848C29.4516 12.3622 28.7071 13.4149 28.3289 13.4149C27.8631 13.4149 27.6835 12.3975 27.6835 11.6132C27.6835 11.6132 27.8286 10.3741 26.7048 10.1574C26.2164 10.0638 25.7087 10.3342 25.7087 10.3342C25.755 10.4281 25.7689 10.5248 25.7596 10.6215C25.6173 11.1411 24.6406 11.883 24.6406 11.883C23.5958 12.6479 21.5101 13.9925 19.6289 14.0921C17.4312 14.2086 17.0465 13.0554 16.9698 12.5517C18.8638 11.8573 20.1264 11.0653 20.9433 10.4329C21.8102 9.76198 22.3824 9.01866 22.332 8.29118C22.2633 7.30602 21.3684 6.94992 20.6587 6.94992C19.1311 6.94992 16.5954 7.60754 15.376 10.9525C15.1138 11.0368 14.4915 11.041 14.1595 10.955C13.7171 10.8399 13.7242 10.6507 13.7242 10.6507C13.3101 10.7576 13.1313 10.9598 12.9857 11.3182C12.7523 11.8918 13.0606 12.3857 13.5341 12.6484C13.8769 12.8388 14.4189 12.9596 15.1845 12.8696C15.292 13.8833 15.966 15.7331 19.5641 15.5934C22.4217 15.4825 25.7666 13.1352 26.067 12.9516C26.194 13.5374 26.5974 15.6384 27.8122 15.6384C29.2714 15.6384 30.7679 13.4636 30.7679 13.4636C30.7679 13.4636 31.1486 15.6525 32.6149 15.6525C33.8382 15.6525 35.3735 13.7507 35.7565 13.2978C36.0752 12.9208 36.6938 12.1964 37.0321 12.1964C37.363 12.1401 38.0187 12.5783 39.8979 12.2038C39.9401 12.1953 40.7892 12.0069 41.2123 11.7705ZM17.9177 1.21335C18.0492 0.8663 17.9352 0.444095 17.7197 0.282618C17.0035 -0.253602 16.3538 0.0457351 15.8679 0.576976C15.2982 1.2004 14.558 2.55251 14.2449 3.05768C11.3675 7.69946 9.17432 12.66 9.17432 12.66C9.17432 12.66 8.41284 10.35 8.30746 8.51463C8.20798 6.78446 8.12895 5.13264 8.05468 4.32341C8.03061 3.99955 7.89365 3.49298 7.32654 3.30743C6.88932 3.16459 6.25204 3.10859 5.80529 3.27377C5.76942 3.82617 5.7458 4.09318 5.51525 4.74627C5.28519 5.39908 3.80189 8.28043 3.54979 8.72846C2.25975 11.0218 0.558181 13.8743 0.459156 14.0581C0.111652 14.7002 -0.370063 15.5759 0.455734 15.8853C1.28133 16.195 2.00513 16.0298 2.36172 15.5026C2.43054 15.4011 2.52501 15.211 2.52501 15.211C2.52501 15.211 2.28541 15.0141 2.79914 13.8174C2.95176 13.5012 3.13392 13.1327 3.33765 12.7262C3.37716 12.6541 3.41826 12.5797 3.46097 12.5033C3.52252 12.3936 3.56568 12.2977 3.5986 12.2092C4.44576 10.539 5.57409 8.38565 6.58091 6.49708C6.57318 7.59622 6.66562 8.95615 6.81643 9.94413C7.04627 11.8712 7.51936 12.6841 7.6956 14.2208C7.66039 15.2594 7.76329 15.4384 8.5214 15.6474C9.23033 15.8426 9.64328 15.6469 9.90944 14.9932C10.9333 12.4128 13.8766 6.48605 16.3764 3.27066C16.6381 2.93436 17.6309 1.96872 17.9177 1.21335Z" fill="#13191E"/>
</svg>
