<svg width="81" height="24" viewBox="0 0 81 24" fill="none" xmlns="http://www.w3.org/2000/svg">
<mask id="mask0_6836_79629" style="mask-type:luminance" maskUnits="userSpaceOnUse" x="0" y="0" width="81" height="24">
<path d="M80.5484 0H0.705078V24H80.5484V0Z" fill="white"/>
</mask>
<g mask="url(#mask0_6836_79629)">
<path d="M12.7014 0.0390625C6.09559 0.0390625 0.740234 5.39521 0.740234 12.0022C0.740234 18.6095 6.09559 23.965 12.7014 23.965C19.3078 23.965 24.663 18.6095 24.663 12.0022C24.663 5.39568 19.3078 0.0396684 12.7013 0.0396684L12.7014 0.0390625ZM18.1867 17.2934C17.9724 17.6448 17.5127 17.7563 17.1612 17.5405C14.3529 15.8248 10.8175 15.4363 6.65389 16.3876C6.25269 16.4791 5.85275 16.2277 5.76136 15.8262C5.66952 15.4248 5.91991 15.0248 6.32208 14.9334C10.8784 13.8922 14.7868 14.3405 17.9398 16.2677C18.291 16.4834 18.4023 16.9419 18.1867 17.2934ZM19.6505 14.0359C19.3809 14.4748 18.8066 14.6134 18.3683 14.3434C15.153 12.3668 10.252 11.7944 6.44909 12.949C5.95586 13.098 5.43497 12.8199 5.28528 12.3275C5.13675 11.8342 5.41485 11.3142 5.90719 11.1642C10.2511 9.84593 15.6515 10.4845 19.3436 12.7538C19.7824 13.0238 19.9207 13.5979 19.6505 14.0359ZM19.7763 10.6439C15.9214 8.3538 9.56111 8.14324 5.88046 9.26053C5.28942 9.4398 4.66438 9.10608 4.4853 8.51495C4.30617 7.92349 4.63956 7.29878 5.23102 7.11909C9.45613 5.83623 16.4799 6.0841 20.9183 8.71937C21.4511 9.03497 21.6253 9.72167 21.3096 10.2527C20.9952 10.7844 20.3068 10.9597 19.7772 10.6439H19.7763ZM33.2826 11.0828C31.2175 10.5902 30.85 10.2445 30.85 9.51809C30.85 8.8318 31.496 8.36996 32.4573 8.36996C33.3884 8.36996 34.311 8.72067 35.2793 9.44268C35.3082 9.46453 35.345 9.47324 35.3808 9.46751C35.4181 9.46211 35.4493 9.44222 35.4707 9.41236L36.4791 7.99065C36.5205 7.93211 36.5094 7.8514 36.4535 7.80664C35.3007 6.88193 34.0041 6.43239 32.4871 6.43239C30.2576 6.43239 28.6992 7.77082 28.6992 9.68581C28.6992 11.7394 30.0433 12.4665 32.3656 13.0278C34.3413 13.4831 34.6752 13.8645 34.6752 14.5463C34.6752 15.3019 34.0013 15.772 32.9156 15.772C31.7103 15.772 30.7261 15.3648 29.626 14.4134C29.599 14.3891 29.5617 14.3791 29.5277 14.3805C29.4905 14.3834 29.4574 14.4005 29.4346 14.4277L28.3038 15.7734C28.2562 15.8305 28.2623 15.9134 28.3163 15.962C29.5962 17.1048 31.17 17.7077 32.87 17.7077C35.2723 17.7077 36.8247 16.3948 36.8247 14.362C36.8293 12.6467 35.8024 11.6966 33.2868 11.0846L33.2826 11.0828ZM42.2609 9.04568C41.22 9.04568 40.3658 9.45596 39.6602 10.2966V9.35037C39.6602 9.27567 39.6001 9.21479 39.526 9.21479H37.6761C37.602 9.21479 37.5419 9.27567 37.5419 9.35037V19.865C37.5419 19.9391 37.602 20.0005 37.6761 20.0005H39.526C39.6001 20.0005 39.6602 19.9391 39.6602 19.865V16.5462C40.3658 17.3362 41.22 17.7234 42.2609 17.7234C44.1966 17.7234 46.156 16.2334 46.156 13.3849C46.1588 10.5359 44.1994 9.04554 42.2623 9.04554L42.2609 9.04568ZM44.0052 13.3849C44.0052 14.8348 43.1123 15.8477 41.8324 15.8477C40.5684 15.8477 39.6145 14.7891 39.6145 13.3849C39.6145 11.9807 40.5684 10.9224 41.8324 10.9224C43.0909 10.9222 44.0052 11.9578 44.0052 13.3849ZM51.1768 9.04568C48.6841 9.04568 46.7317 10.9651 46.7317 13.416C46.7317 15.8405 48.6715 17.7391 51.1465 17.7391C53.6476 17.7391 55.6061 15.8262 55.6061 13.3849C55.6061 10.952 53.6607 9.04568 51.1768 9.04568ZM51.1768 15.862C49.8513 15.862 48.8513 14.7962 48.8513 13.3842C48.8513 11.9658 49.8168 10.9365 51.1465 10.9365C52.4809 10.9365 53.4865 12.0018 53.4865 13.4152C53.4865 14.8334 52.5149 15.862 51.1768 15.862ZM60.9278 9.21479H58.8925V7.13395C58.8925 7.05939 58.8324 6.99851 58.7583 6.99851H56.9084C56.8343 6.99851 56.7728 7.05939 56.7728 7.13395V9.21479H55.8846C55.8101 9.21479 55.75 9.27567 55.75 9.35037V10.9399C55.75 11.0145 55.8101 11.0755 55.8846 11.0755H56.7728V15.1891C56.7728 16.8505 57.6 17.6934 59.2325 17.6934C59.8952 17.6934 60.4453 17.5562 60.9637 17.262C61.0065 17.2391 61.0321 17.1934 61.0321 17.1448V15.6305C61.0321 15.5848 61.0079 15.5405 60.9679 15.5162C60.9278 15.4905 60.878 15.4891 60.8365 15.5105C60.4807 15.6891 60.1365 15.772 59.7508 15.772C59.1579 15.772 58.8925 15.5019 58.8925 14.8991V11.0762H60.9278C61.0023 11.0762 61.0619 11.0154 61.0619 10.9407V9.35121C61.0647 9.2765 61.0051 9.21568 60.9292 9.21568L60.9278 9.21479ZM68.0179 9.22294V8.96738C68.0179 8.21552 68.3067 7.88023 68.9522 7.88023C69.3379 7.88023 69.6476 7.9568 69.9946 8.07254C70.0374 8.08595 70.0821 8.07924 70.1161 8.05367C70.152 8.0281 70.172 7.98707 70.172 7.94366V6.38507C70.172 6.3255 70.1348 6.27282 70.0761 6.25522C69.7105 6.14623 69.2419 6.03436 68.5396 6.03436C66.8326 6.03436 65.9286 6.99637 65.9286 8.81536V9.20678H65.0399C64.9659 9.20678 64.9044 9.26765 64.9044 9.34222V10.9399C64.9044 11.0145 64.9659 11.0755 65.0399 11.0755H65.9286V17.4191C65.9286 17.4948 65.9896 17.5548 66.0641 17.5548H67.9122C67.9881 17.5548 68.0482 17.4948 68.0482 17.4191V11.0759H69.7748L72.4202 17.4191C72.1203 18.0848 71.8245 18.2177 71.4217 18.2177C71.0961 18.2177 70.7519 18.1205 70.4021 17.9277C70.3691 17.9105 70.329 17.9077 70.295 17.9176C70.2591 17.9305 70.2289 17.9563 70.2149 17.9905L69.5875 19.3662C69.5577 19.4318 69.5833 19.5078 69.6462 19.5418C70.3006 19.8962 70.8902 20.0476 71.6201 20.0476C72.9856 20.0476 73.7411 19.4104 74.4053 17.6991L77.6134 9.40808C77.6306 9.36639 77.625 9.31921 77.5994 9.28223C77.5747 9.24553 77.5337 9.22336 77.489 9.22336H75.564C75.5054 9.22336 75.4537 9.26011 75.4355 9.31423L73.4626 14.9477L71.3034 9.3105C71.2833 9.25811 71.233 9.22336 71.1776 9.22336L68.0179 9.22294ZM63.9072 9.21479H62.0577C61.9832 9.21479 61.9222 9.27567 61.9222 9.35037V17.4191C61.9222 17.4948 61.9832 17.5548 62.0577 17.5548H63.9072C63.9817 17.5548 64.0432 17.4948 64.0432 17.4191V9.35093C64.0432 9.27622 63.9831 9.2154 63.9072 9.2154V9.21479ZM62.9934 5.54066C62.2603 5.54066 61.6665 6.1338 61.6665 6.86652C61.6665 7.59966 62.2603 8.19354 62.9934 8.19354C63.726 8.19354 64.3185 7.59966 64.3185 6.86652C64.3185 6.13394 63.7246 5.54066 62.9934 5.54066ZM79.1932 11.8092C78.462 11.8092 77.8919 11.2214 77.8919 10.5075C77.8919 9.79367 78.4689 9.1991 79.2002 9.1991C79.9319 9.1991 80.5015 9.78678 80.5015 10.5001C80.5015 11.2139 79.9244 11.8092 79.1932 11.8092ZM79.2002 9.32853C78.5332 9.32853 78.0293 9.85851 78.0293 10.5075C78.0293 11.1562 78.5304 11.6791 79.1932 11.6791C79.8601 11.6791 80.3646 11.1495 80.3646 10.5001C80.3646 9.85138 79.8629 9.32853 79.2002 9.32853ZM79.4889 10.6339L79.8574 11.1494H79.5462L79.2146 10.6765H78.9305V11.1494H78.6706V9.7831H79.2789C79.5975 9.7831 79.8061 9.94551 79.8061 10.219C79.8075 10.4429 79.6776 10.5798 79.4903 10.6339H79.4889ZM79.2691 10.0175H78.9305V10.4496H79.2691C79.4372 10.4496 79.5388 10.367 79.5388 10.2334C79.5388 10.0928 79.4372 10.0175 79.2691 10.0175Z" fill="black"/>
</g>
</svg>
