<svg width="248" height="148" viewBox="0 0 248 148" fill="none" xmlns="http://www.w3.org/2000/svg">
<g clip-path="url(#clip0_2683_64556)">
<path d="M150.74 81.2449H5.35156L8.96261 77.9625H148.538L203.35 28.2441H209.17L150.74 81.2449Z" fill="#8BBECE"/>
<path d="M150.74 90.5076H5.35156L8.96261 87.2326H148.538L203.35 37.5068H209.17L150.74 90.5076Z" fill="url(#paint0_linear_2683_64556)"/>
<path d="M148.296 77.9625H1.38829C1.24031 77.9621 1.09591 77.9172 0.97402 77.8336C0.852131 77.75 0.758447 77.6317 0.705272 77.4941C0.652097 77.3566 0.641909 77.2062 0.676042 77.0628C0.710176 76.9194 0.787037 76.7896 0.896544 76.6905L63.5614 19.8444C63.6978 19.7208 63.876 19.653 64.0604 19.6543H210.924C211.072 19.6547 211.217 19.6996 211.338 19.7832C211.46 19.8668 211.554 19.9851 211.607 20.1226C211.66 20.2602 211.671 20.4106 211.636 20.554C211.602 20.6974 211.525 20.8272 211.416 20.9263L148.751 77.7724C148.626 77.8862 148.465 77.9534 148.296 77.9625Z" stroke="#003B62" stroke-width="1.8" stroke-linecap="round" stroke-linejoin="round"/>
<path d="M51.9273 42.7441H102.576L45.9223 61.2998H31.6523L51.9273 42.7441Z" fill="url(#paint1_linear_2683_64556)"/>
<path d="M202.609 37.5068H210.924C211.072 37.5072 211.217 37.5522 211.338 37.6357C211.46 37.7193 211.554 37.8377 211.607 37.9752C211.66 38.1128 211.671 38.2631 211.636 38.4065C211.602 38.5499 211.525 38.6797 211.416 38.7788L148.751 95.625C148.617 95.7468 148.441 95.8146 148.259 95.815H1.38829C1.24031 95.8146 1.09591 95.7697 0.97402 95.6861C0.852131 95.6025 0.758447 95.4842 0.705272 95.3467C0.652097 95.2091 0.641909 95.0588 0.676042 94.9154C0.710176 94.7719 0.787037 94.6422 0.896544 94.543L9.70397 86.5527" stroke="#003B62" stroke-width="1.8" stroke-linecap="round" stroke-linejoin="round"/>
<path d="M114.974 42.0899L103.965 52.0906H136.016L129.567 57.398H98.0932L92.9556 62.084H114.974L101.409 74.6433C101.311 74.6908 101.203 74.7158 101.094 74.7164H24.7679C24.6009 74.7188 24.438 74.6644 24.3063 74.5621C24.1745 74.4598 24.0817 74.3158 24.0432 74.1539C24.0047 73.992 24.0228 73.8219 24.0945 73.6716C24.1662 73.5213 24.2873 73.3999 24.4376 73.3274L37.5877 62.084H82.3793L104.398 42.0899H80.9114L92.9556 31.9941H178.321L165.666 42.0899H114.974Z" fill="url(#paint2_linear_2683_64556)"/>
<path d="M192.327 23.4632L186.221 28.2442H108.664L115.506 22.1489C115.609 22.0992 115.722 22.0742 115.837 22.0758L192.048 22.0742C192.211 22.0828 192.366 22.1451 192.49 22.2514C192.613 22.3576 192.697 22.5017 192.729 22.6609C192.761 22.8201 192.739 22.9853 192.666 23.1306C192.593 23.2759 192.474 23.3929 192.327 23.4632Z" fill="url(#paint3_linear_2683_64556)"/>
<path d="M186.427 31.9941L188.489 30.1153L63.5488 29.6475L60.9727 31.9941H186.427Z" fill="#8BBECE"/>
<path d="M203.342 28.2441H210.917C211.065 28.2445 211.209 28.2894 211.331 28.373C211.453 28.4566 211.547 28.5749 211.6 28.7125C211.653 28.85 211.663 29.0004 211.629 29.1438C211.595 29.2872 211.518 29.417 211.409 29.5162L148.744 86.3623C148.609 86.4841 148.434 86.5519 148.252 86.5523H1.38829C1.24031 86.552 1.09591 86.507 0.97402 86.4234C0.852131 86.3398 0.758447 86.2215 0.705272 86.084C0.652097 85.9464 0.641909 85.796 0.676042 85.6526C0.710176 85.5092 0.787037 85.3794 0.896544 85.2803L8.97001 77.9698" stroke="#003B62" stroke-width="1.8" stroke-linecap="round" stroke-linejoin="round"/>
<path d="M103 43L81.0188 65H29L50.9739 43H103Z" stroke="#003B62" stroke-width="1.8" stroke-linecap="round" stroke-linejoin="round" stroke-dasharray="3.6 3.6"/>
<path d="M190.559 28.2441L186.427 31.9944H60.9727L65.1048 28.2441H190.559Z" stroke="#003B62" stroke-width="1.8" stroke-linecap="round" stroke-linejoin="round"/>
<path d="M156.674 61L151.507 65.686H91L96.167 61H156.674Z" stroke="#003B62" stroke-width="1.8" stroke-linecap="round" stroke-linejoin="round"/>
<path d="M70.5381 1.24412C70.7198 1.08667 70.9523 1 71.1928 1H126.318C127.244 1 127.673 2.14971 126.973 2.75587L88.4619 36.113C88.2802 36.2705 88.0477 36.3571 87.8072 36.3571H32.6819C31.756 36.3571 31.3273 35.2074 32.0272 34.6013L70.5381 1.24412Z" fill="white" stroke="#003A5F" stroke-width="1.8" stroke-miterlimit="10" stroke-linecap="round" stroke-linejoin="round"/>
<path d="M73.3489 1.64258H120.553L56.0888 30.5711H39.8516L73.3489 1.64258Z" fill="url(#paint4_linear_2683_64556)"/>
<path d="M57.8525 21.3101C57.7009 21.3917 57.7325 21.7484 57.8979 21.763L89.3249 22.0142L84.7204 14.3702L80.7428 15.7817L76.7065 10.5527C76.7065 10.5527 61.0822 19.5434 57.8525 21.3101Z" fill="white" stroke="#003A5F" stroke-width="1.8" stroke-miterlimit="10" stroke-linecap="round" stroke-linejoin="round"/>
<path d="M75.0353 11.7389L80.1791 18.3742L85.8844 16.4418L89.3241 22.0143L57.8517 21.3102" fill="#003B62"/>
<path d="M88.5319 12.155C88.914 13.2406 90.1207 13.5281 91.2274 12.7971C92.334 12.0661 92.9214 10.5934 92.5394 9.50773C92.1573 8.42208 90.9506 8.13459 89.8439 8.8656C88.7373 9.59661 88.1499 11.0693 88.5319 12.155Z" fill="white" stroke="#003B62" stroke-width="1.8" stroke-miterlimit="10" stroke-linecap="round" stroke-linejoin="round"/>
<path d="M131.704 45.9156C131.986 47.4331 131.254 49.1141 129.583 50.6172C127.922 52.1102 125.423 53.3321 122.473 53.8803C119.524 54.4284 116.753 54.186 114.666 53.3893C112.566 52.5872 111.279 51.2815 110.997 49.7639C110.715 48.2463 111.447 46.5654 113.119 45.0623C114.78 43.5692 117.278 42.3474 120.228 41.7992C123.178 41.251 125.949 41.4935 128.035 42.2902C130.135 43.0923 131.422 44.398 131.704 45.9156Z" fill="#EFEFEF" stroke="#003B62" stroke-width="1.5"/>
<path d="M147.814 45.9156C148.096 47.4331 147.364 49.1141 145.692 50.6172C144.031 52.1102 141.532 53.3321 138.583 53.8803C135.633 54.4284 132.862 54.186 130.776 53.3893C128.675 52.5872 127.388 51.2815 127.106 49.7639C126.824 48.2463 127.556 46.5654 129.228 45.0623C130.889 43.5692 133.388 42.3474 136.338 41.7992C139.287 41.251 142.058 41.4935 144.144 42.2902C146.245 43.0923 147.532 44.398 147.814 45.9156Z" fill="#003B62" stroke="#003B62" stroke-width="1.5"/>
<path d="M162.857 45.9156C163.139 47.4331 162.407 49.1141 160.735 50.6172C159.074 52.1102 156.575 53.3321 153.626 53.8803C150.676 54.4284 147.905 54.186 145.819 53.3893C143.718 52.5872 142.431 51.2815 142.149 49.7639C141.867 48.2463 142.599 46.5654 144.271 45.0623C145.932 43.5692 148.431 42.3474 151.38 41.7992C154.33 41.251 157.101 41.4935 159.187 42.2902C161.288 43.0923 162.575 44.398 162.857 45.9156Z" fill="#8BBECE" stroke="#003B62" stroke-width="1.5"/>
</g>
<defs>
<linearGradient id="paint0_linear_2683_64556" x1="5.35156" y1="64.0072" x2="209.17" y2="64.0072" gradientUnits="userSpaceOnUse">
<stop stop-color="#EAEAEA"/>
<stop offset="1" stop-color="#F0F0F0"/>
</linearGradient>
<linearGradient id="paint1_linear_2683_64556" x1="87.9339" y1="40.6534" x2="57.7494" y2="77.4795" gradientUnits="userSpaceOnUse">
<stop stop-color="#ECECEC"/>
<stop offset="1" stop-color="#F2F2F2"/>
</linearGradient>
<linearGradient id="paint2_linear_2683_64556" x1="26071.9" y1="29216.5" x2="61052.1" y2="29216.5" gradientUnits="userSpaceOnUse">
<stop stop-color="#EAEAEA"/>
<stop offset="1" stop-color="#F0F0F0"/>
</linearGradient>
<linearGradient id="paint3_linear_2683_64556" x1="25287.7" y1="3999.01" x2="35846.6" y2="3999.01" gradientUnits="userSpaceOnUse">
<stop stop-color="#EAEAEA"/>
<stop offset="1" stop-color="#F0F0F0"/>
</linearGradient>
<linearGradient id="paint4_linear_2683_64556" x1="103.892" y1="-1.61698" x2="56.2215" y2="40.8313" gradientUnits="userSpaceOnUse">
<stop stop-color="#ECECEC"/>
<stop offset="1" stop-color="#F2F2F2"/>
</linearGradient>
<clipPath id="clip0_2683_64556">
<rect width="248" height="148" fill="white"/>
</clipPath>
</defs>
</svg>
