<svg width="160" height="212" viewBox="0 0 160 212" fill="none" xmlns="http://www.w3.org/2000/svg">
<g clip-path="url(#clip0)">
<path d="M76.1805 189.635C76.1805 189.635 77.6422 197.245 75.8493 204.248C75.8493 204.248 65.5887 205.894 59.8572 207.422C54.1256 208.958 21.5438 213.292 14.293 209.955C7.04219 206.619 3.21877 204.81 2.36192 201.847C1.50507 198.884 -0.367032 190.79 1.50507 175.686C3.37718 160.582 6.53096 140.14 8.74148 132.326C10.952 124.512 15.3492 110.088 20.4039 106.995C27.0522 102.928 35.8311 99.5305 43.2746 94.7493C63.0002 117.5 93.863 94.7493 114 114.5C126.19 126.456 138.197 146.448 152.562 184.031C152.562 184.031 156.537 197.87 147.997 201.149C139.458 204.428 126.591 202.55 126.591 202.55C126.591 202.55 115.401 190.675 109.569 189.965C104.687 189.376 91.1933 188.343 84.4681 188.386C83.1505 188.393 82.092 188.444 81.4152 188.544C80.2127 188.724 77.887 189.061 77.1453 189.211C76.9077 189.262 76.5405 188.329 75.6117 187.769C74.5964 187.159 18.6636 175.449 16.9571 184.296C41.6401 180.5 76.2165 193.387 76.1805 189.635Z" fill="#A7D6C7"/>
<path d="M50.9352 66.0769L50.928 57.1939C50.928 57.1939 48.8326 57.9832 47.371 56.5983C45.9093 55.2135 43.0723 52.1425 45.1244 49.5738C46.0605 48.397 48.8182 49.05 48.8182 49.05C48.8182 49.05 50.7623 42.7645 49.6247 40.1957C48.4942 37.6342 46.4493 35.5103 46.5213 34.2403C46.5933 32.9702 47.479 32.8841 48.4582 32.7765C49.4375 32.6761 50.4743 30.3226 51.5112 30.0571C52.5481 29.7916 54.6074 29.6553 55.1474 28.1915C55.6874 26.7278 55.7666 24.0012 57.8764 23.7429C59.9861 23.4846 62.391 25.1492 64.0183 23.9653C65.6456 22.7742 65.8472 21.7338 66.6321 22.0567C67.4169 22.3796 69.7786 23.5563 71.1179 23.2191C72.4572 22.8747 75.0277 20.4925 75.8558 22.3006C76.6838 24.1088 78.5055 27.3161 82.653 26.247C86.8076 25.1779 86.4908 20.4566 86.4908 20.4566C93.9998 11.5 80.9998 2.49994 74.4998 5.50002C71.9517 6.6761 70.469 8.71789 68.2441 8.20127C63.4998 6.46486 57.8764 4.50004 53.9622 13.3074C53.9622 13.3074 41.9998 11.4999 42.445 22.0978C40.4391 22.2465 32.5669 21.4999 32.5525 28.6579C32.5525 28.6579 30.2772 31.1334 32.5669 33.2142C32.5669 33.2142 27.3705 37.3239 32.4124 41.0803C32.4124 41.0803 32.2213 43.7403 33.575 45.6346C33.575 45.6346 27.7714 53.7641 37.564 55.1705C37.564 55.1705 36.2679 64.1754 46.0893 63.7377C46.0893 63.7377 48.163 65.962 50.9352 66.0769Z" fill="#02395C"/>
<path d="M30.9999 50.0001C30.4998 47.0001 31.2998 38.3 38.4998 41.5C45.6998 44.7 36.6666 48.6667 30.9999 50.0001Z" fill="#02395C"/>
<path d="M37.5 58.5001C38.3333 61.8334 42.2 68.2001 51 67.0001C59.8 65.8001 45.6667 60.8334 37.5 58.5001Z" fill="#02395C"/>
<path d="M45.5002 94.5001C45.5002 94.5001 46.8964 97.7216 54.3632 99.1495C63.0002 102.5 77.0002 103.5 86.5278 97.169C94.0594 94.715 77.6575 90.0704 78.5828 74.9141C88.5002 74.9141 87.587 63.5001 87.587 45.2864C86.1658 38.2479 79.7336 37.8216 79.7336 26.4603C77.634 27.8686 75.41 21.0809 74.1932 21.7051C72.9835 22.3222 70.4129 22.7742 68.7497 22.028C67.0864 21.2746 66.6327 21.454 65.3871 22.6379C64.1414 23.829 62.3773 23.3482 60.1524 23.2119C57.9274 23.0756 56.1201 22.8675 55.4793 25.8094C54.8385 28.7512 53.24 29.0741 51.2527 29.8706C49.2653 30.667 49.323 32.2384 47.7965 32.6187C46.27 32.999 44.3907 33.6017 45.9316 35.6179C47.4724 37.6342 50.6766 41.0783 48.8189 49.0643C48.8189 49.0643 44.0379 47.9378 43.6418 51.4752C43.2458 55.0055 44.9019 59.4254 50.2878 59.2891C50.2878 59.2891 52.1527 77.2344 51.7063 81.3817C51.2527 85.5146 51.6782 89.829 45.5002 94.5001Z" fill="#C98577"/>
<path d="M75.1456 53.2489C77.6339 53.2489 79.9106 51.6328 79.9106 51.6328C77.5002 47.0001 74.6479 41.8029 74.6479 41.8029" stroke="#02395C" stroke-width="1.4" stroke-miterlimit="10" stroke-linecap="round" stroke-linejoin="round"/>
<path d="M76.1807 192.222C76.1807 192.222 77.1815 197.879 76.1807 203.232C76.1807 203.232 82.1642 205.37 87.1829 205.033C92.2016 204.696 95.3626 204.071 97.7963 205.822C100.237 207.573 106.782 209.242 108.618 208.955C110.455 208.668 111.146 207.35 111.146 207.35C111.146 207.35 115.084 209.515 117.093 209.414C119.102 209.314 119.347 208.054 119.347 208.054C119.347 208.054 122.069 210.106 123.336 209.689C124.603 209.273 124.798 208.168 124.157 206.59C125.19 207.668 128.5 209 128.492 208.19C127.138 206.69 123.336 201.5 114.422 195.071C109.461 192.524 107.841 192.208 103.744 191.856C99.6468 191.505 78.3192 190.249 76.1807 192.222Z" fill="#C98577"/>
<path d="M82.9708 26.2328C82.9708 26.2328 82.4524 33.0923 86.0886 36.7158C89.7248 40.3393 91.0209 43.4462 91.0209 48.4904C91.0209 53.5346 91.9281 67.7775 88.5511 70.8844C80.7247 78.0848 67.1755 76.5138 59.251 70.8844" stroke="#02395C" stroke-width="1.4" stroke-miterlimit="10" stroke-linecap="round" stroke-linejoin="round"/>
<path d="M51.0009 66.7443C47.0478 66.1846 46.5006 63.7163 46.5006 63.7163C46.5006 63.7163 41.9211 64.0822 40.0418 62.2167C36.9745 59.1744 38.1625 55.1275 38.1625 55.1275C38.1625 55.1275 33.4895 55.7661 32.1142 51.8413C30.7389 47.9164 33.5831 45.6275 33.5831 45.6275C32.0278 43.7978 33.4111 42.0686 33.4111 42.0686C33.4111 42.0686 30.8397 42.0686 30.3789 38.0504C29.9181 34.0323 32.575 33.2071 32.575 33.2071C30.0117 31.0187 32.575 27.4526 32.575 27.4526C30.3789 19.8755 37.7953 19.8755 37.7953 19.8755C36.5 12.0001 44.237 10.5413 48.1495 10.6481C47.6887 6.17077 53.1898 6.72326 53.1898 6.72326C57.2652 -1.99994 67.1226 4.25498 68.7715 4.25498C70.4203 4.25498 74.4526 0.143558 79.8601 0.782155C89 1.00006 93.0156 13.7245 88.7526 16.948C86.0956 18.9571 86.5565 21.1455 86.0956 23.4344C85.6348 25.7162 82.4306 27.3593 79.2192 26.2256C76.0151 25.0919 76.1015 22.3366 75.0934 21.7841C74.0853 21.2388 73.7181 22.2433 72.5301 22.4227C71.342 22.6021 69.8731 22.6954 67.9506 21.5976C66.0281 20.4998 66.4817 22.1429 64.6528 23.1474C62.8167 24.152 59.4325 22.6021 57.2652 23.1474C55.0979 23.6927 55.6739 27.0723 54.2986 28.6293C52.9234 30.1792 51.0008 28.7226 49.352 31.1837C47.7031 33.6448 46.5078 32.095 45.687 33.5587C44.8589 35.0225 47.5231 37.6701 48.8047 40.2245C50.0864 42.7789 48.8047 49.2653 48.8047 49.2653C48.8047 49.2653 42.5692 46.7971 43.7644 53.7427C44.9597 60.6883 50.2736 58.9448 50.2736 58.9448C50.2736 58.9448 52.5993 79.9324 51.1017 84.6106C49.4168 89.8557 47.5273 93.1798 45 94.5001C45 94.5001 52.8524 101.401 68.0309 102.118C83.2093 102.836 89.595 95.2946 89.595 95.2946C77.5919 88.6288 78.5496 75.9815 78.5496 75.9815" stroke="#02395C" stroke-width="1.4" stroke-miterlimit="10" stroke-linecap="round" stroke-linejoin="round"/>
<path d="M17.2008 183.562C26 179 41.5166 180.34 53.6781 182.614C65.8396 184.889 76.0929 188.156 76.0929 188.156C77.7994 195.726 76.0929 203.951 76.0929 203.951C70 203.951 62.6066 207.652 41.7038 210.306C20.8082 212.954 12.4485 211.44 4.27609 204.624C-3.89637 197.807 5.46415 147.623 8.18591 135.899C10.9077 124.175 14.3927 110.036 23.3212 105.473C30.1455 101.985 38.6028 98.7406 45 94.5001" stroke="#02395C" stroke-width="1.4" stroke-miterlimit="10" stroke-linecap="round" stroke-linejoin="round"/>
<path d="M38.3102 151.329C38.3102 151.329 36.3242 167 36.3242 180.648" stroke="#02395C" stroke-width="1.4" stroke-miterlimit="10" stroke-linecap="round" stroke-linejoin="round"/>
<path d="M76.5 203C76.5 203 82.4952 205.04 86.5562 205.04C90.6172 205.04 94.5991 204.093 96.3272 205.04C102.5 207.351 108 210.5 111.138 207.351" stroke="#02395C" stroke-width="1.4" stroke-miterlimit="10" stroke-linecap="round" stroke-linejoin="round"/>
<path d="M99.7832 201.735C99.7832 201.735 107.912 204.782 109.209 205.815C110.505 206.848 114.393 209.12 116.387 209.378C118.375 209.637 119.498 209.517 119.325 207.795" stroke="#02395C" stroke-width="1.4" stroke-miterlimit="10" stroke-linecap="round" stroke-linejoin="round"/>
<path d="M105.882 197.98C105.882 197.98 109.85 200.103 111.801 201C113.752 201.904 120.693 209.156 122.5 209.5C124.307 209.845 125.374 208.8 123.567 206.023C121.759 203.246 120.154 201.998 117.72 199.781C115.286 197.563 111.801 195.411 111.801 195.411" stroke="#02395C" stroke-width="1.4" stroke-miterlimit="10" stroke-linecap="round" stroke-linejoin="round"/>
<path d="M122.5 204.5C123.471 205.766 130.795 211 128.844 206.392C128.009 204.418 118.166 194.672 114.839 192.735C111.512 190.79 109.633 188.853 101.763 188.781C94.5915 188.716 81.9692 187.525 77.0801 188.96" stroke="#02395C" stroke-width="1.4" stroke-miterlimit="10" stroke-linecap="round" stroke-linejoin="round"/>
<path d="M158.121 195.411C159.266 193.026 158.627 188.355 156.907 182.5C152.612 167.887 142.197 145.538 134.749 133.711C111 96.0001 107.92 107.107 86.7002 93.4003" stroke="#02395C" stroke-width="1.4" stroke-miterlimit="10" stroke-linecap="round" stroke-linejoin="round"/>
<path d="M96 188.5C96 188.5 117.453 177.514 126.101 175.44C134.749 173.367 140.667 174.44 140.667 174.44" stroke="#02395C" stroke-width="1.4" stroke-miterlimit="10" stroke-linecap="round" stroke-linejoin="round"/>
<path d="M119.939 168.728C119.939 168.728 121 170 123.562 176.122" stroke="#02395C" stroke-width="1.4" stroke-miterlimit="10" stroke-linecap="round" stroke-linejoin="round"/>
<path d="M75.3525 39.0406C75.3525 39.0406 81.4513 32.4322 84.0938 35.7831" stroke="#02395C" stroke-width="1.4" stroke-miterlimit="10" stroke-linecap="round" stroke-linejoin="round"/>
<path d="M68.7497 40.0308C68.7497 40.0308 59.8716 36.8019 57.3154 42.0112" stroke="#02395C" stroke-width="1.4" stroke-miterlimit="10" stroke-linecap="round" stroke-linejoin="round"/>
<path d="M66.0472 40.9288C66.1631 39.8451 65.4076 38.8764 64.3597 38.7651C63.3118 38.6537 62.3683 39.442 62.2524 40.5256C62.1365 41.6093 62.892 42.578 63.9399 42.6893C64.9878 42.8007 65.9313 42.0124 66.0472 40.9288Z" fill="#02395C"/>
<path d="M83.4309 36.9917C83.5388 35.9829 82.8313 35.0807 81.8506 34.9765C80.8699 34.8723 79.9874 35.6057 79.8795 36.6145C79.7716 37.6233 80.4791 38.5255 81.4598 38.6297C82.4405 38.7338 83.323 38.0005 83.4309 36.9917Z" fill="#02395C"/>
<path d="M83.3164 31.973C83.3164 31.973 80.4506 28.493 76.1304 30.459" stroke="#02395C" stroke-width="1.4" stroke-miterlimit="10" stroke-linecap="round" stroke-linejoin="round"/>
<path d="M55.4795 37.6271C55.4795 37.6271 56.61 33.1067 62.4207 32.7766" stroke="#02395C" stroke-width="1.4" stroke-miterlimit="10" stroke-linecap="round" stroke-linejoin="round"/>
<path d="M77.344 62.1983C77.344 62.1983 71.667 65.6995 68.8154 60.957" stroke="#02395C" stroke-width="1.4" stroke-miterlimit="10" stroke-linecap="round" stroke-linejoin="round"/>
<path d="M65.5016 52.6846C70.2994 51.6587 73.1398 45.9556 71.8457 39.9463C70.5517 33.9371 65.6134 29.8974 60.8156 30.9233C56.0178 31.9493 53.1774 37.6524 54.4714 43.6616C55.7654 49.6708 60.7038 53.7105 65.5016 52.6846Z" stroke="#02395C" stroke-width="1.4" stroke-miterlimit="10" stroke-linecap="round" stroke-linejoin="round"/>
<path d="M88.254 48.8197C93.0518 47.7938 95.8922 42.0907 94.5982 36.0815C93.3042 30.0723 88.3658 26.0325 83.568 27.0585C78.7702 28.0844 75.9299 33.7875 77.2239 39.7967C78.5179 45.8059 83.4563 49.8457 88.254 48.8197Z" stroke="#02395C" stroke-width="1.4" stroke-miterlimit="10" stroke-linecap="round" stroke-linejoin="round"/>
<path d="M54.817 44.9458L46.5293 47.658" stroke="#02395C" stroke-width="1.4" stroke-miterlimit="10" stroke-linecap="round" stroke-linejoin="round"/>
<path d="M44.5 34.0001C47.5 34.1667 56 33.5001 56 24.5001C56 16.2539 49.1667 27.5001 44.5 34.0001Z" fill="#02395C"/>
</g>
<path d="M75 22C69.4 25.6 62.3333 24.5 59.5 23.5L63 19.5C69.3333 18.8333 80.6 18.4 75 22Z" fill="#02395C"/>
<defs>
<clipPath id="clip0">
<rect width="159.453" height="212" fill="white"/>
</clipPath>
</defs>
</svg>
