<svg height="24" width="24" viewBox="1.2 10.8 169.6 169.6" xmlns="http://www.w3.org/2000/svg">
    <path
        d="m43.6 49.4c23.4 0 42.4 19 42.4 42.4v3.9h-80.9c-2.1 0-3.8-1.7-3.9-3.9 0-23.4 19-42.4 42.4-42.4z"
        fill="#f6bc04"
    />
    <path
        d="m132.2 53.2c0 23.4-19 42.4-42.4 42.4h-3.8v-80.9c0-2.1 1.7-3.9 3.8-3.9 23.5 0 42.4 19 42.4 42.4z"
        fill="#ea4335"
    />
    <path
        d="m128.4 141.9c-23.4 0-42.4-19-42.4-42.4v-3.9h80.9c2.1 0 3.9 1.7 3.9 3.8 0 23.5-19 42.5-42.4 42.5z"
        fill="#4285f4"
    />
    <path
        d="m39.8 138c0-23.4 19-42.4 42.4-42.4h3.8v80.9c0 2.1-1.7 3.8-3.9 3.9-23.4 0-42.3-19-42.3-42.4z"
        fill="#34a853"
    />
</svg>
