<svg viewBox="0 0 96 96" xmlns="http://www.w3.org/2000/svg"><path d="m95 48h-37l-7 3-3 7v15h25l22.7-23.3c.2-.2.3-.4.3-.7 0-.5-.5-1-1-1z" fill="#4285f4"/><path d="m48 38v-15h-25l-22.7 23.3c-.2.2-.3.4-.3.7 0 .5.5 1 1 1h37l7-3z" fill="#ffbc00"/><path d="m48 38v-15h-25l22 22" fill="#ff9800"/><path d="m49.7.3c-.2-.2-.4-.3-.7-.3-.5 0-1 .5-1 1v37l3 7 7 3h15v-25z" fill="#db4437"/><path d="m51 45 7 3h15v-25" fill="#ad1457"/><path d="m51 51-3 7v15h25" fill="#3367d6"/><path d="m38 48h-15v25l23.3 22.7c.2.2.4.3.7.3.5 0 1-.5 1-1v-37l-3-7z" fill="#8bc34a"/><path d="m23 48v25l22-22-7-3" fill="#0f9d58"/></svg>