<svg width="96" height="96" xmlns="http://www.w3.org/2000/svg" xml:space="preserve" version="1.1">

 <g>
  <title>Layer 1</title>
  <g stroke="null" id="svg_1">
   <g stroke="null" id="svg_2">
    <path stroke="null" id="svg_3" fill="#E01E5A" d="m25.3658,59.02737c0,4.61384 -3.76906,8.3829 -8.3829,8.3829c-4.61384,0 -8.3829,-3.76906 -8.3829,-8.3829c0,-4.61384 3.76906,-8.3829 8.3829,-8.3829l8.3829,0l0,8.3829z" class="st0"/>
    <path stroke="null" id="svg_4" fill="#E01E5A" d="m29.58974,59.02737c0,-4.61384 3.76906,-8.3829 8.3829,-8.3829s8.3829,3.76906 8.3829,8.3829l0,20.98974c0,4.61384 -3.76906,8.3829 -8.3829,8.3829s-8.3829,-3.76906 -8.3829,-8.3829l0,-20.98974z" class="st0"/>
   </g>
   <g stroke="null" id="svg_5">
    <path stroke="null" id="svg_6" fill="#36C5F0" d="m37.97264,25.36581c-4.61384,0 -8.3829,-3.76906 -8.3829,-8.3829c0,-4.61384 3.76906,-8.3829 8.3829,-8.3829s8.3829,3.76906 8.3829,8.3829l0,8.3829l-8.3829,0z" class="st1"/>
    <path stroke="null" id="svg_7" fill="#36C5F0" d="m37.97264,29.58975c4.61384,0 8.3829,3.76906 8.3829,8.3829s-3.76906,8.3829 -8.3829,8.3829l-20.98974,0c-4.61384,0 -8.3829,-3.76906 -8.3829,-8.3829s3.76906,-8.3829 8.3829,-8.3829l20.98974,0z" class="st1"/>
   </g>
   <g stroke="null" id="svg_8">
    <path stroke="null" id="svg_9" fill="#2EB67D" d="m71.6342,37.97265c0,-4.61384 3.76906,-8.3829 8.3829,-8.3829c4.61384,0 8.3829,3.76906 8.3829,8.3829s-3.76906,8.3829 -8.3829,8.3829l-8.3829,0l0,-8.3829z" class="st2"/>
    <path stroke="null" id="svg_10" fill="#2EB67D" d="m67.41026,37.97265c0,4.61384 -3.76906,8.3829 -8.3829,8.3829c-4.61384,0 -8.3829,-3.76906 -8.3829,-8.3829l0,-20.98974c0,-4.61384 3.76906,-8.3829 8.3829,-8.3829c4.61384,0 8.3829,3.76906 8.3829,8.3829l0,20.98974z" class="st2"/>
   </g>
   <g stroke="null" id="svg_11">
    <path stroke="null" id="svg_12" fill="#ECB22E" d="m59.02736,71.63421c4.61384,0 8.3829,3.76906 8.3829,8.3829c0,4.61384 -3.76906,8.3829 -8.3829,8.3829c-4.61384,0 -8.3829,-3.76906 -8.3829,-8.3829l0,-8.3829l8.3829,0z" class="st3"/>
    <path stroke="null" id="svg_13" fill="#ECB22E" d="m59.02736,67.41027c-4.61384,0 -8.3829,-3.76906 -8.3829,-8.3829c0,-4.61384 3.76906,-8.3829 8.3829,-8.3829l20.98974,0c4.61384,0 8.3829,3.76906 8.3829,8.3829c0,4.61384 -3.76906,8.3829 -8.3829,8.3829l-20.98974,0z" class="st3"/>
   </g>
  </g>
 </g>
</svg>