<svg width="103" height="19" viewBox="0 0 103 19" fill="none" xmlns="http://www.w3.org/2000/svg">
<g id="Bloomberg">
<mask id="mask0_26_4150" style="mask-type:luminance" maskUnits="userSpaceOnUse" x="0" y="0" width="103" height="19">
<path id="clip0_489_1184" d="M102.656 0.0461426H0.497559V18.7463H102.656V0.0461426Z" fill="white"/>
</mask>
<g mask="url(#mask0_26_4150)">
<g id="Group">
<path id="Vector" d="M0.498047 0.0461426H7.98753C9.41411 0.0461426 10.484 0.399716 11.2766 0.989008C12.1484 1.69616 12.6239 2.71759 12.6239 3.97475C12.6239 5.42832 12.0295 6.3319 10.8407 6.88191V6.96048C12.4258 7.47121 13.3372 8.88549 13.3372 10.5748C13.3372 12.1855 12.7031 13.4427 11.6728 14.2284C10.801 14.857 9.69149 15.132 8.18568 15.132H0.498047V0.0461426ZM7.23462 5.93905C8.02717 5.93905 8.62156 5.50689 8.62156 4.60331C8.62156 3.73904 8.02717 3.30688 7.19501 3.30688H4.61925V5.89976H7.23462V5.93905ZM7.59126 11.7927C8.5027 11.7927 9.17635 11.2427 9.17635 10.2605C9.17635 9.1998 8.46306 8.72835 7.59126 8.72835H4.65887V11.8319H7.59126V11.7927Z" fill="white"/>
<path id="Vector_2" d="M14.0098 0.0461426H17.9329V15.1713H14.0098V0.0461426Z" fill="white"/>
<path id="Vector_3" d="M18.7219 9.79829C18.7219 6.38042 20.9411 4.10181 24.3886 4.10181C27.8361 4.10181 30.0156 6.4197 30.0156 9.79829C30.0156 13.2162 27.8361 15.4948 24.3886 15.4948C20.9411 15.4948 18.7219 13.2162 18.7219 9.79829ZM26.0926 9.79829C26.0926 7.91255 25.4981 6.73398 24.3094 6.73398C23.1205 6.73398 22.5658 7.91255 22.5658 9.79829C22.5658 11.684 23.1205 12.9019 24.3094 12.9019C25.4981 12.8626 26.0926 11.684 26.0926 9.79829Z" fill="white"/>
<path id="Vector_4" d="M30.4543 9.79829C30.4543 6.38042 32.6735 4.10181 36.121 4.10181C39.5685 4.10181 41.7085 6.38042 41.7085 9.79829C41.7085 13.2162 39.5289 15.4948 36.0814 15.4948C32.6735 15.4948 30.4543 13.2162 30.4543 9.79829ZM37.8249 9.79829C37.8249 7.91255 37.2305 6.73398 36.0418 6.73398C34.8528 6.73398 34.2982 7.91255 34.2982 9.79829C34.2982 11.684 34.8528 12.9019 36.0418 12.9019C37.2305 12.8626 37.8249 11.684 37.8249 9.79829Z" fill="white"/>
<path id="Vector_5" d="M42.502 4.36921H46.1475V5.97995H46.2267C46.94 4.7228 47.9306 4.05493 49.5157 4.05493C50.9028 4.05493 51.933 4.7228 52.4482 5.90138H52.5275C53.3992 4.48709 54.5486 4.05493 55.8957 4.05493C58.4318 4.05493 59.5019 5.90138 59.5019 8.37641V15.1336H55.6977V9.04428C55.6977 7.94425 55.3411 7.23712 54.3898 7.23712C53.4389 7.23712 52.9635 8.10142 52.9635 9.27999V15.1336H49.1592V9.04428C49.1592 7.94425 48.8024 7.23712 47.8514 7.23712C46.9004 7.23712 46.4251 8.10142 46.4251 9.27999V15.1336H42.502V4.36921Z" fill="white"/>
<path id="Vector_6" d="M64.296 13.7177H64.2564V15.132H60.6106V0.0461426H64.4149V5.46762H64.4941C65.2074 4.52475 66.198 4.01405 67.5851 4.01405C70.3192 4.01405 71.9043 6.44977 71.9043 9.71054C71.9043 13.3642 70.2004 15.4856 67.3474 15.4856C66.1584 15.4856 64.9301 14.9356 64.296 13.7177ZM67.9812 9.67125C67.9812 7.94266 67.3474 6.80337 66.198 6.80337C65.0094 6.80337 64.296 7.94266 64.296 9.67125C64.296 11.3998 65.049 12.5391 66.198 12.5391C67.3474 12.5391 67.9812 11.4391 67.9812 9.67125Z" fill="white"/>
<path id="Vector_7" d="M72.3459 9.75141C72.3459 6.37283 74.6048 4.05493 77.8542 4.05493C79.4789 4.05493 80.7075 4.56566 81.6584 5.46925C82.9266 6.68711 83.4812 8.57284 83.4416 10.7729H76.1502C76.3087 12.1086 76.9428 12.8158 78.0921 12.8158C78.7655 12.8158 79.36 12.5014 79.5977 11.7943H83.2831C82.6491 14.2693 80.7074 15.4872 77.973 15.4872C74.6047 15.4479 72.3459 13.1693 72.3459 9.75141ZM76.1502 8.61212H79.6376C79.5581 7.31569 78.8451 6.64782 77.9334 6.64782C76.8636 6.60854 76.2691 7.35498 76.1502 8.61212Z" fill="white"/>
<path id="Vector_8" d="M87.7603 6.2096H87.8395C88.6321 4.71671 89.6623 4.12744 90.9701 4.12744C91.287 4.12744 91.4851 4.16673 91.6042 4.2453V7.54531H91.5247C89.2662 7.15246 87.9584 8.21318 87.9584 10.6489V15.1668H84.1145V4.36315H87.7603V6.2096Z" fill="white"/>
<path id="Vector_9" d="M91.9955 15.1726H95.6806C95.8391 15.6441 96.3147 16.0762 97.2261 16.0762C98.4547 16.0762 98.8904 15.3298 98.8904 14.1905V13.4048H98.8112C98.2167 14.1119 97.3846 14.6226 96.1959 14.6226C93.8579 14.6226 91.7971 12.8941 91.7971 9.51544C91.7971 6.41182 93.4614 4.01538 95.9978 4.01538C97.4638 4.01538 98.3356 4.60468 98.93 5.50827H99.0093V4.32966H102.655V13.6798C102.655 15.4084 102.061 16.7441 101.149 17.5298C100.198 18.3548 98.8508 18.7084 97.3053 18.7084C94.3731 18.7477 92.352 17.5691 91.9955 15.1726ZM99.0489 9.3583C99.0489 8.02256 98.4151 6.92255 97.3053 6.92255C96.2355 6.92255 95.5618 7.86542 95.5618 9.3583C95.5618 10.8119 96.2355 11.8333 97.3053 11.8333C98.3755 11.8333 99.0489 10.7726 99.0489 9.3583Z" fill="white"/>
</g>
</g>
</g>
</svg>
