<svg width="56" height="27" viewBox="0 0 56 27" fill="none" xmlns="http://www.w3.org/2000/svg">
<path id="CNN" d="M19.0077 17.8887V5.37968C19.0077 0.671963 25.0926 -1.58832 28.312 3.88255C28.546 4.27731 33.6161 13.0114 33.6161 13.0114V5.37968C33.6161 0.671963 39.6984 -1.58832 42.9175 3.88255C43.1514 4.27731 48.2217 13.0114 48.2217 13.0114V0.783077H51.2568V21.3128C51.2645 21.4516 51.2253 21.5889 51.1449 21.7025C51.0649 21.816 50.9487 21.8992 50.8154 21.9385C50.4938 22.0263 50.1547 21.8274 49.906 21.4064C49.8564 21.3245 47.2743 16.8858 44.7947 12.5962L40.245 4.76269C39.6076 3.68081 38.6572 3.49074 37.9818 3.67496C37.5928 3.78383 37.2506 4.01904 37.01 4.34353C36.769 4.66801 36.643 5.06338 36.6513 5.4674V21.3128C36.6586 21.4515 36.6188 21.5886 36.5387 21.702C36.4587 21.8155 36.3428 21.8988 36.2098 21.9385C35.8854 22.0263 35.546 21.8274 35.3005 21.4064C35.2566 21.3333 32.8619 17.2074 30.5489 13.219C27.6015 8.13706 25.6658 4.80365 25.6365 4.75392C24.9991 3.66911 24.0459 3.48197 23.3645 3.66619C22.9751 3.77497 22.6328 4.01006 22.3915 4.33448C22.1501 4.65894 22.0234 5.05434 22.0312 5.45863V20.9707C22.018 21.177 21.9299 21.3714 21.7834 21.5174C21.637 21.6633 21.4422 21.7507 21.2358 21.7631H13.3614C11.1404 21.7631 9.01026 20.8808 7.43976 19.3103C5.86924 17.7397 4.98695 15.6097 4.98695 13.3886C4.98695 11.1676 5.86924 9.03752 7.43976 7.46699C9.01026 5.89646 11.1404 5.01418 13.3614 5.01418H17.4551V8.04349H13.3965C11.9789 8.04349 10.6193 8.60662 9.6169 9.60905C8.6145 10.6115 8.05134 11.971 8.05134 13.3886C8.05134 14.8063 8.6145 16.1658 9.6169 17.1682C10.6193 18.1706 11.9789 18.7338 13.3965 18.7338H18.1714C18.2822 18.7346 18.392 18.7132 18.4944 18.6709C18.5968 18.6286 18.6897 18.5663 18.7677 18.4875C18.8456 18.4088 18.907 18.3152 18.9482 18.2124C18.9895 18.1095 19.0097 17.9995 19.0077 17.8887ZM55.491 21.4122C55.491 26.1199 49.406 28.3802 46.1866 22.9123C45.9557 22.5175 40.8824 13.7804 40.8824 13.7804V21.4122C40.8824 26.1199 34.8004 28.3802 31.581 22.9123C31.3472 22.5175 26.2769 13.7804 26.2769 13.7804V20.9765C26.2769 24.2427 24.3382 26.0117 21.306 26.0117H13.3673C10.0217 26.0117 6.81323 24.6827 4.44758 22.3171C2.08193 19.9514 0.75293 16.7429 0.75293 13.3974C0.75293 10.0519 2.08193 6.84337 4.44758 4.47772C6.81323 2.11208 10.0217 0.783077 13.3673 0.783077H17.4609V3.81237H13.3673C12.1085 3.81237 10.8621 4.06031 9.69921 4.54201C8.53632 5.02368 7.47968 5.72971 6.58961 6.61978C5.69957 7.50982 4.99355 8.56646 4.51184 9.72939C4.03017 10.8923 3.78224 12.1387 3.78224 13.3974C3.78224 14.6561 4.03017 15.9025 4.51184 17.0654C4.99355 18.2283 5.69957 19.285 6.58961 20.1751C7.47968 21.0651 8.53632 21.7711 9.69921 22.2528C10.8621 22.7345 12.1085 22.9824 13.3673 22.9824H21.2358C21.7641 22.972 22.2678 22.7577 22.6416 22.3844C23.0155 22.0111 23.2305 21.5077 23.2417 20.9795V5.4674C23.2342 5.32898 23.2738 5.19212 23.3539 5.07902C23.4341 4.96595 23.5502 4.88333 23.6833 4.84458C24.0049 4.75686 24.3441 4.95568 24.5926 5.37674L29.5021 13.836C32.356 18.7572 34.2302 21.9882 34.2538 22.0233C34.8939 23.1052 35.8474 23.2953 36.5286 23.1082C36.918 22.999 37.2598 22.7633 37.5002 22.4382C37.7405 22.113 37.8659 21.717 37.8561 21.3128V5.47031C37.8482 5.33229 37.8868 5.19555 37.9656 5.08208C38.0447 4.96862 38.1596 4.88498 38.2918 4.84458C38.6106 4.75686 38.9466 4.95568 39.1925 5.37674L43.7422 13.2161L48.8563 22.0321C49.3563 22.8801 50.0523 23.1812 50.6575 23.1812C50.8166 23.1813 50.9751 23.1596 51.1284 23.1169C51.5226 23.0108 51.87 22.7753 52.1147 22.4481C52.359 22.1209 52.4862 21.7211 52.4764 21.3128V0.783077H55.4996L55.491 21.4122Z" fill="white"/>
</svg>
