<svg width="126" height="19" viewBox="0 0 126 19" fill="none" xmlns="http://www.w3.org/2000/svg">
<path id="Vector" fill-rule="evenodd" clip-rule="evenodd" d="M65.1367 1.80877L65.3973 2.59029L61.6199 3.43694L65.2671 0.375977H65.3973L65.1367 1.80877ZM8.67181 17.6997C9.1277 17.5043 9.51849 17.2438 9.84412 16.9182L11.4071 14.3131H11.5375V18.2859H11.4071L9.90931 17.4392C9.18123 18.0583 8.25987 18.4038 7.30424 18.4161C4.30841 18.4161 0.986816 16.2669 0.986816 12.4244C0.986816 8.64708 4.37347 6.4979 7.23905 6.4979C8.14473 6.50583 9.01956 6.82812 9.7139 7.40967L11.2769 6.62815H11.4071V10.3404H11.2769L9.51849 7.86556C9.22636 7.53257 8.86545 7.26695 8.46066 7.08704C8.05587 6.90713 7.61678 6.81723 7.17386 6.82353C4.24316 6.82353 3.59189 9.36348 3.59189 12.3593C3.59189 15.4203 4.30835 17.9602 7.23905 17.9602C7.69494 17.9602 8.15083 17.8951 8.54159 17.6997H8.67181ZM20.6552 6.43277C17.8548 6.43277 14.5984 8.77734 14.5984 12.3593C14.5984 16.0064 17.8548 18.351 20.6552 18.351C23.4557 18.351 26.7771 16.0064 26.7771 12.3593C26.7771 8.77734 23.5208 6.43277 20.6552 6.43277ZM20.6552 17.9602C17.8548 17.9602 17.1383 15.5505 17.1383 12.3593C17.1383 9.23322 17.9199 6.82353 20.6552 6.82353C23.4557 6.82353 24.172 9.23322 24.172 12.3593C24.172 15.5505 23.5208 17.9602 20.6552 17.9602ZM38.7603 6.88866H37.2626V6.62815H40.5839V6.95378H39.2164V18.2859H39.086L30.7499 6.88866V17.7648H32.1826V18.0905H28.9263V17.7648H30.2288V6.95378H28.9263V6.56302H33.4852L38.6953 14.1177V6.95378L38.7603 6.88866ZM48.3341 6.62815H43.124V6.95378H44.6218V17.83H43.124V18.1556H48.3341C50.9392 18.1556 55.2375 17.0484 55.2375 12.2942C55.2375 7.60505 50.9392 6.62815 48.3341 6.62815ZM48.2037 17.83H46.9012V6.95378H48.2037C51.2647 6.95378 52.6324 9.10297 52.6324 12.3593C52.6324 15.6157 51.2647 17.83 48.2037 17.83ZM61.2291 17.83H65.5927C66.4394 16.7879 67.1558 15.5505 67.5465 14.3131H67.7418V18.2207H57.3867V17.83H58.9497V6.95378H57.3867V6.56302H67.4161V9.62398H67.2859C67.2859 9.62398 66.309 7.60505 65.1367 6.88866H61.2291V11.7732H63.4435C64.0948 11.1219 64.5507 10.4055 64.9414 9.55886H65.0717V14.3782H64.9414C64.5686 13.5425 64.0627 12.7727 63.4435 12.0988H61.2291V17.83ZM83.5026 6.95378H84.9353V14.1177L79.7252 6.62815H75.0361V6.95378H76.4688V17.83H75.0361V18.1556H78.2924V17.83H76.9899V6.95378L85.261 18.351H85.326V6.95378H86.8239V6.56302H83.5026V6.88866V6.95378ZM94.1181 6.23739H94.3135L99.5237 17.7648H100.956V18.0905H95.551V17.7648H97.0488L95.095 13.6618H91.3828L89.5592 17.7648H90.8618V18.0905H87.8008V17.7648H89.1686L94.1181 6.23739ZM93.2716 9.36348L91.5782 13.3362H95.095L93.2716 9.36348ZM109.162 11.3824L106.883 10.6009C105.711 10.2101 104.799 9.68911 104.799 8.64708C104.799 7.4748 105.776 6.69328 107.339 6.69328C107.717 6.67945 108.093 6.74802 108.442 6.89422C108.79 7.04043 109.103 7.26076 109.358 7.53993L111.051 10.0147H111.181V6.36764H111.051L109.488 7.14916C108.89 6.6374 108.126 6.35976 107.339 6.36764C106.637 6.32728 105.94 6.49804 105.336 6.8579C104.732 7.21776 104.25 7.75021 103.952 8.38657C103.757 8.84246 103.627 9.29835 103.627 9.75424C103.627 11.3824 104.799 12.2942 106.102 12.7501L108.381 13.5967C109.684 14.0526 110.465 14.5736 110.465 15.7459C110.465 16.9182 109.618 17.8951 107.665 17.8951C106.688 17.8951 105.711 17.5043 105.059 16.9182L103.301 14.1177H103.106V18.0905H103.301L104.734 17.3089C105.58 17.9602 106.492 18.2859 107.534 18.2859C110.009 18.2859 111.702 16.5274 111.702 14.5736C111.702 12.6198 110.66 11.8383 109.162 11.3824ZM114.373 10.2101V6.69328H125.184V10.2101H125.053C124.497 9.0568 123.82 7.96533 123.035 6.95378H120.95V17.83H122.839V18.1556H116.782V17.83H118.671V6.95378H116.587C115.804 7.96695 115.127 9.05816 114.568 10.2101H114.438H114.373Z" fill="white"/>
</svg>
