<svg width="65" height="27" viewBox="0 0 65 27" fill="none" xmlns="http://www.w3.org/2000/svg">
<g id="Disney">
<mask id="mask0_26_4142" style="mask-type:luminance" maskUnits="userSpaceOnUse" x="0" y="0" width="65" height="27">
<path id="clip0_112_1204" d="M64.0638 0.187256H0.214844V26.605H64.0638V0.187256Z" fill="white"/>
</mask>
<g mask="url(#mask0_26_4142)">
<g id="Group">
<path id="Vector" d="M55.3955 11.6755C54.3162 11.9246 51.466 12.0629 51.466 12.0629L51.1153 13.1883C51.1153 13.1883 52.5267 13.0684 53.5598 13.1699C53.5598 13.1699 53.892 13.1422 53.9288 13.5388C53.9473 13.9448 53.9012 14.3691 53.9012 14.3691C53.9012 14.3691 53.8734 14.6181 53.5323 14.6827C53.1355 14.7473 50.4603 14.8672 50.4603 14.8672L50.0268 16.3247C50.0268 16.3247 49.87 16.6568 50.2299 16.5645C50.5618 16.4723 53.3662 15.9372 53.7352 16.011C54.1226 16.1033 54.5655 16.6383 54.4362 17.118C54.2887 17.6991 51.4842 19.4887 49.7871 19.3688C49.7871 19.3688 48.8922 19.4241 48.145 18.2157C47.4255 17.0626 48.394 14.8949 48.394 14.8949C48.394 14.8949 47.9604 13.8802 48.2833 13.5112C48.2833 13.5112 48.4679 13.3544 49.0214 13.3082L49.7132 11.8877C49.7132 11.8877 48.9292 11.9338 48.4679 11.3619C48.0436 10.8084 48.0068 10.5685 48.3386 10.421C48.6893 10.2365 51.9363 9.65532 54.1687 9.72911C54.1687 9.72911 54.9527 9.63686 55.6447 10.9929C55.6447 10.9929 55.9583 11.5464 55.4048 11.6755H55.3955ZM46.9826 17.1364C46.7061 17.8098 45.9404 18.5201 45.018 18.0866C44.077 17.6438 42.5917 14.6181 42.5917 14.6181C42.5917 14.6181 42.0385 13.4927 41.9277 13.5296C41.9277 13.5296 41.8078 13.3082 41.7432 14.5443C41.651 15.7712 41.7617 18.1604 41.2542 18.5386C40.7931 18.9076 40.2396 18.7507 39.926 18.3172C39.6675 17.8836 39.5568 16.8413 39.7046 15.024C39.8707 13.2068 40.2857 11.2696 40.8114 10.67C41.365 10.0612 41.8078 10.504 41.9738 10.67C41.9738 10.67 42.6842 11.3157 43.8834 13.2252L44.0863 13.5758C44.0863 13.5758 45.1748 15.393 45.2855 15.3838C45.2855 15.3838 45.3777 15.476 45.4515 15.4022C45.5622 15.3746 45.5252 14.7842 45.5252 14.7842C45.5252 14.7842 45.3223 12.8193 44.3077 9.4985C44.3077 9.4985 44.1601 9.07416 44.2616 8.66829C44.3538 8.2993 44.7505 8.48379 44.7505 8.48379C44.7505 8.48379 46.2816 9.22176 47.029 11.7124C47.7668 14.203 47.2687 16.463 46.9919 17.1364H46.9826ZM39.4739 10.7438C39.3264 11.0021 39.2618 11.3619 38.6254 11.4633C38.6254 11.4633 32.4449 11.8969 32.1403 12.3304C32.1403 12.3304 31.9375 12.5887 32.2696 12.6533C32.62 12.7271 34.0223 12.9116 34.6863 12.9485C35.4059 12.9485 37.8226 12.9669 38.7083 14.0554C38.7083 14.0554 39.2157 14.572 39.1972 15.7435C39.1786 16.9427 38.9665 17.3671 38.4961 17.8006C38.0072 18.2065 33.8192 20.0883 31.1164 17.2102C31.1164 17.2102 29.8804 15.8265 31.55 14.7749C31.55 14.7749 32.7492 14.037 35.8209 14.8949C35.8209 14.8949 36.7434 15.227 36.7066 15.5683C36.6512 15.9372 35.9409 16.3062 34.9077 16.2878C33.9116 16.2601 33.1735 15.7804 33.321 15.8635C33.4595 15.9096 32.2418 15.2731 31.8636 15.7066C31.4946 16.1125 31.5868 16.3523 31.956 16.6014C32.8785 17.1364 36.5037 16.9427 37.5829 15.7343C37.5829 15.7343 38.0165 15.2454 37.3615 14.8488C36.7158 14.4798 34.8341 14.2491 34.1052 14.2215C33.4134 14.1846 30.8214 14.2215 30.4339 13.5481C30.4339 13.5481 30.065 13.0684 30.4707 11.7585C30.895 10.3748 33.9116 9.83981 35.2213 9.72911C35.2213 9.72911 38.819 9.58151 39.4925 10.3195C39.4925 10.3195 39.5846 10.4855 39.4739 10.7346V10.7438ZM29.2715 18.8522C28.8379 19.1751 27.9155 19.0367 27.648 18.6677C27.3898 18.3449 27.2976 17.0719 27.3437 15.0701C27.4083 13.0223 27.4359 10.5132 27.8972 10.1073C28.3583 9.71067 28.6351 10.0612 28.8194 10.3287C29.004 10.6054 29.244 10.9098 29.2808 11.5464C29.3361 12.1921 29.4929 15.5129 29.4929 15.5129C29.4929 15.5129 29.6958 18.5386 29.2808 18.8522H29.2715ZM30.194 8.05946C28.9211 8.49301 28.054 8.35466 27.3159 8.03178C26.993 8.61293 26.7994 8.78821 26.5595 8.8251C26.1905 8.862 25.8677 8.27163 25.8216 8.08713C25.7478 7.94878 25.5725 7.69969 25.7847 7.137C25.0651 6.49127 25.0098 5.62416 25.1389 5.04304C25.305 4.36039 26.5227 1.79597 30.2125 1.49156C30.2125 1.49156 32.0204 1.36242 32.3342 2.32177H32.3895C32.3895 2.32177 34.142 2.32177 34.1052 3.88995C34.1052 5.45813 32.1681 7.41373 30.194 8.08713V8.05946ZM31.836 3.59477C30.6736 3.77926 28.884 5.32899 28.0262 6.61119C29.3454 6.85104 31.6514 6.75879 32.6846 4.67405C32.6846 4.67405 33.1735 3.36414 31.836 3.59477ZM26.7348 4.60946C26.3659 5.20907 26.3473 5.56884 26.5227 5.80866C26.9562 5.16293 27.7219 4.14825 28.8748 3.35493C27.9894 3.44717 27.2422 3.81616 26.7348 4.60946ZM58.1629 18.7876C57.3143 20.8724 56.5947 22.9848 56.1797 26.1488C56.1797 26.1488 56.0875 26.767 55.5801 26.5638C55.0726 26.3795 54.2426 25.5493 54.058 24.3777C53.8734 22.8465 54.5562 20.2636 55.949 17.2933C55.5433 16.6475 55.2572 15.6882 55.4879 14.3414C55.4879 14.3414 55.8569 11.8508 58.3475 9.59997C58.3475 9.59997 58.6425 9.3509 58.8086 9.43393C59.0117 9.52618 58.9286 10.3195 58.7625 10.7254C58.615 11.1128 57.5079 13.0315 57.5079 13.0315C57.5079 13.0315 56.8161 14.3414 57.0097 15.3653C58.3197 13.3544 61.2992 9.27709 63.1441 10.5685C64.3158 11.3988 64.3158 14.0739 63.4394 15.6236C62.7476 16.8505 60.792 19.3872 58.1814 18.7969L58.1629 18.7876ZM62.0188 12.5242C61.3363 13.2621 60.1185 14.6643 59.1592 16.5645C60.1739 16.4538 61.1609 15.8911 61.4653 15.6052C61.9542 15.1716 63.0798 14.0001 62.9044 12.4504C62.9044 12.4504 62.7937 11.6386 62.0188 12.5242ZM20.6927 19.8761C17.4272 20.8724 14.3462 20.4112 12.6673 19.9684C12.6212 20.651 12.5474 20.937 12.4367 21.0477C12.3075 21.1953 11.2375 21.8041 10.6471 20.937C10.3888 20.5219 10.2597 19.7747 10.1859 19.0921C6.40381 17.3763 4.65113 14.8488 4.59578 14.7565C4.50353 14.6643 3.64567 13.7695 4.50353 12.6625C5.30607 11.6663 7.96275 10.6608 10.3427 10.2641C10.4349 8.23473 10.6563 6.66655 10.9423 5.97471C11.2836 5.1445 11.7172 5.88247 12.1046 6.43594C12.4182 6.85104 12.612 8.63139 12.6304 10.052C14.1801 9.97817 15.121 10.0889 16.846 10.421C19.1153 10.8084 20.6281 11.9707 20.5082 13.2806C20.3975 14.572 19.2167 15.107 18.7555 15.1439C18.2943 15.1808 17.5563 14.8395 17.5563 14.8395C17.0398 14.5997 17.5102 14.3783 18.1098 14.12C18.774 13.7972 18.6264 13.4743 18.6264 13.4743C18.3865 12.7363 15.4439 12.2474 12.5197 12.2474C12.5197 13.8617 12.5843 16.5368 12.6304 18.0958C14.6783 18.4832 16.2095 18.4002 16.2095 18.4002C16.2095 18.4002 23.6815 18.1881 23.8936 13.419C24.1242 8.64061 16.4217 4.06522 10.7486 2.62618C5.08469 1.14103 1.87454 2.19263 1.5978 2.331C1.29339 2.47859 1.57012 2.53394 1.57012 2.53394C1.57012 2.53394 1.87454 2.58006 2.42801 2.76456C2.98148 2.94905 2.53871 3.22579 2.53871 3.22579C1.57012 3.55785 0.490849 3.36414 0.278684 2.92137C0.0665185 2.48782 0.417053 2.09116 0.83216 1.51001C1.21959 0.910412 1.66237 0.928861 1.66237 0.928861C8.67305 -1.51565 17.2335 2.86602 17.2335 2.86602C25.2404 6.90639 26.6056 11.657 26.458 13.502C26.3288 15.3192 25.6278 18.391 20.6927 19.8854V19.8761ZM5.28764 13.2806C4.49432 13.6496 5.04779 14.2399 5.04779 14.2399C6.54217 15.8358 8.36863 16.8412 10.1213 17.4685C10.3243 14.7012 10.3058 13.7141 10.3058 12.3212C7.59377 12.5057 6.02561 12.9485 5.28764 13.2806Z" fill="white"/>
</g>
</g>
</g>
</svg>
