<svg width="114" height="29" viewBox="0 0 114 29" fill="none" xmlns="http://www.w3.org/2000/svg">
<path id="Vector" d="M74.8618 16.6159C74.5386 16.6159 74.4101 16.2434 74.7784 15.8195C75.956 14.9824 76.4193 14.7242 76.4829 14.6926C77.2419 14.6926 75.7881 16.6159 74.8618 16.6159ZM113.528 12.4104C113.46 12.3535 113.393 12.3089 113.325 12.2703C113.31 12.2586 113.296 12.2469 113.278 12.2352C112.687 11.8549 112.04 12.0241 112.04 12.0241C112.04 12.0241 112.162 12.245 111.561 12.7357C111.524 12.766 111.496 12.7926 111.474 12.8173C111.457 12.8314 111.44 12.8455 111.422 12.8596C109.235 14.6402 106.319 16.0525 103.278 16.6481C104.262 16.0705 106.592 13.8701 104.973 12.6833C104.029 11.9911 102.356 12.295 100.777 13.0875C100.961 12.7926 101.395 12.1642 101.22 11.4093C101.045 10.6543 99.5989 10.4355 98.7961 10.7205C98.7693 11.501 98.6448 11.9164 98.5087 12.0879C94.9685 15.2004 90.3362 16.8539 89.957 16.4755C89.6483 16.1676 90.6846 14.9545 91.0286 14.4702C91.3158 14.066 91.3234 13.5746 91.1197 13.2042C90.8018 12.6256 90.2067 12.5915 89.1089 12.8314C87.5908 13.0899 86.5135 12.5471 85.6065 11.1662C85.1614 10.4889 84.0791 10.6248 83.5228 10.9955C83.6612 11.4329 83.6238 11.8754 83.4923 12.3232C82.5607 14.4809 79.7485 14.4957 78.6848 13.7634C78.5334 13.3119 78.1341 12.4775 77.3313 12.3551C74.8489 11.9762 73.9958 13.4973 73.5891 13.9608C72.7073 14.9662 66.7383 17.5756 65.3431 16.4431C64.3162 15.61 65.1795 12.5782 67.1394 9.54198C70.045 4.95835 71.3614 5.01207 71.826 5.47583C72.1131 5.76249 72.3943 6.39803 71.8101 7.52154C71.7677 7.60264 71.7263 7.67818 71.685 7.75236C70.6812 9.39786 70.2901 9.31411 70.2901 9.31411C69.9622 10.3025 70.3815 10.8415 70.6918 11.0893C71.0276 11.4196 71.5098 11.3069 71.6568 11.2564C72.1492 11.0875 72.4539 10.6567 72.7361 10.2195C74.1405 8.04356 75.0165 4.5845 72.7152 3.33361C71.068 2.43827 68.2948 3.6474 65.2259 8.61339C62.5004 13.0244 61.7295 16.4981 63.6949 18.1444C66.0873 20.1481 71.1157 17.5044 72.7695 16.7393C72.7235 17.0736 72.8533 18.7491 74.5151 18.655C76.6415 18.5303 77.9572 16.6997 78.5225 15.7655C79.3514 16.245 82.982 16.9324 85.1846 13.6283C85.4214 13.8288 86.7477 14.792 88.5158 14.792C87.8905 15.9352 87.0861 17.3065 88.2753 18.2471C89.9427 19.5652 95.6567 16.391 97.3208 15.4126C96.3753 17.1313 94.7301 21.0179 93.0696 24.4645C92.3864 25.8834 91.4337 27.7908 92.4364 28.298C93.216 28.6918 94.3857 28.2852 94.5622 27.2641C94.793 25.9284 96.0845 22.2029 97.0009 20.1864C98.7421 16.3186 100.308 14.3152 102.953 14.3152C102.788 14.6306 102.739 14.8784 101.86 15.7551C100.902 16.7116 99.8317 16.6569 99.8863 17.6886C99.9181 18.2965 100.542 18.4675 100.716 18.5146C102.095 18.8861 105.914 17.7535 107.43 17.1996C109.175 16.5627 111.547 15.3983 113.302 14.2809C114.13 13.7533 114.209 12.9851 113.528 12.4104ZM53.9169 8.5251C52.4486 8.63363 50.6718 9.12051 50.0132 10.5932C49.4677 11.8111 49.8976 13.0947 51.0418 14.5362C51.7756 15.4307 52.4472 16.1928 52.638 16.4003C52.1101 16.5114 50.9603 16.4713 49.8059 16.2604C49.8019 16.2596 49.7962 16.2588 49.7916 16.2577C49.528 16.2091 49.2651 16.1508 49.0087 16.0843C48.357 15.8788 48.1782 15.6166 48.1782 15.6166L48.0828 15.6863C48.0828 15.6836 48.0828 15.682 48.0828 15.682L48.1782 15.6166C47.7367 15.6772 47.3701 15.9836 47.1102 16.3216C46.8502 16.6595 46.5826 17.3134 46.8095 17.6275C47.0025 17.895 47.3864 18.0418 48.1169 18.0665C49.2458 18.1197 52.2879 18.5215 53.4122 18.647C54.2802 18.7441 54.8641 18.1155 55.0343 17.7014C55.2644 17.1499 55.0277 16.5417 54.7362 16.2056C53.2927 14.5402 51.2709 12.721 52.0045 11.2003C52.3406 10.5033 53.9646 10.6437 54.5008 10.8027C55.6446 11.1428 56.2126 10.729 56.4725 9.96345C56.6401 9.47124 56.3411 8.34614 53.9169 8.5251ZM24.1678 10.4421C24.3731 10.6471 23.9349 11.1091 23.549 11.3595C22.4904 12.0459 21.4243 12.4437 20.6638 12.7247C21.4892 11.0364 23.879 10.0408 24.1678 10.4421ZM48.6971 14.1275C49.274 13.8049 49.5048 13.1372 49.0432 12.5844C48.5815 12.0318 47.6688 12.0778 47.2615 12.3237C46.9207 12.529 46.5253 12.8835 45.3504 12.9441C44.2439 13.001 43.7995 12.5269 43.1007 12.5269C42.3192 12.5269 42.0036 13.0747 41.0363 14.2785C40.5432 14.8915 39.4351 16.3011 38.9284 16.3011C38.4985 16.3011 38.3349 15.0659 38.3349 13.4595C38.3349 12.7295 38.0127 12.1376 37.1812 12.1929C36.4887 12.2389 36.3731 13.1372 36.0112 13.5589C34.9273 14.8202 34.0556 16.053 33.6129 16.053C33.0673 16.053 32.8569 14.8617 32.8569 13.9432C32.8569 13.9432 33.0269 12.4923 31.7113 12.2389C31.1394 12.1291 30.5448 12.4458 30.5448 12.4458C30.599 12.5556 30.6152 12.6689 30.6046 12.7822C30.4379 13.3906 29.2944 14.2591 29.2944 14.2591H29.2947C28.0715 15.1547 25.629 16.7289 23.4264 16.8457C20.8534 16.9821 20.4029 15.6318 20.3131 15.042C22.5305 14.2291 24.009 13.3018 24.9653 12.5615C25.9803 11.776 26.6504 10.9056 26.5914 10.0536C26.5111 8.90031 25.4631 8.48338 24.6321 8.48338C22.8435 8.48338 19.8748 9.25347 18.4471 13.1696C18.14 13.2685 17.4114 13.2734 17.0229 13.1725C16.5049 13.0377 16.5131 12.8165 16.5131 12.8165C16.0281 12.9415 15.8188 13.1784 15.6483 13.598C15.3752 14.2695 15.7361 14.8478 16.2905 15.1555C16.6918 15.3783 17.3265 15.5195 18.2227 15.4142C18.3487 16.6013 19.138 18.7669 23.3506 18.6034C26.6964 18.4736 30.6128 15.7254 30.9644 15.5105C31.113 16.1963 31.5853 18.656 33.0077 18.656C34.7163 18.656 36.4685 16.1099 36.4685 16.1099C36.4685 16.1099 36.9139 18.6728 38.631 18.6728C40.0633 18.6728 41.8609 16.446 42.3093 15.9158C42.6822 15.4743 43.4067 14.6261 43.8025 14.6261C44.1899 14.5604 44.9579 15.0733 47.1579 14.6348C47.2075 14.625 48.2017 14.4043 48.6971 14.1275ZM21.423 1.76683C21.577 1.3605 21.4435 0.866162 21.1911 0.677093C20.3527 0.0492637 19.5919 0.399742 19.0231 1.02172C18.3559 1.75167 17.4893 3.33467 17.1226 3.92608C13.7539 9.3609 11.186 15.1691 11.186 15.1691C11.186 15.1691 10.2944 12.4644 10.171 10.3155C10.0545 8.28951 9.96196 6.35551 9.875 5.40831C9.84681 5.02909 9.68646 4.43584 9.02248 4.2186C8.51056 4.05133 7.76441 3.98592 7.24134 4.17922C7.19935 4.82595 7.17169 5.13867 6.90176 5.90343C6.63239 6.6677 4.89569 10.0411 4.60053 10.5658C3.09011 13.251 1.09786 16.5907 0.981919 16.8058C0.575066 17.5578 0.011052 18.5829 0.977926 18.9454C1.94454 19.3078 2.79202 19.1145 3.20951 18.497C3.29008 18.3782 3.4007 18.1559 3.4007 18.1559C3.4007 18.1559 3.12016 17.9253 3.72166 16.5239C3.90034 16.1538 4.11361 15.7222 4.35215 15.2464C4.39842 15.1619 4.44657 15.0749 4.49654 14.9856C4.5686 14.8572 4.61914 14.7447 4.65769 14.641C5.64956 12.6854 6.97064 10.1642 8.14946 7.95311C8.14042 9.24016 8.24864 10.8325 8.42522 11.9892C8.69433 14.2453 9.24823 15.197 9.45458 16.9964C9.41335 18.2122 9.53383 18.422 10.4215 18.6667C11.2514 18.8954 11.7351 18.6661 12.0467 17.9006C13.2455 14.8795 16.6915 7.94036 19.6185 4.17551C19.9245 3.78169 21.0872 2.65127 21.423 1.76683Z" fill="white"/>
</svg>
