<svg width="86" height="23" viewBox="0 0 86 23" fill="none" xmlns="http://www.w3.org/2000/svg">
<path id="Vector" fill-rule="evenodd" clip-rule="evenodd" d="M7.98855 5.14792C7.54452 5.1476 7.11036 5.01672 6.74014 4.77157C6.36992 4.52642 6.07994 4.17782 5.90631 3.76915C5.73268 3.36048 5.68301 2.90978 5.76355 2.47312C5.84408 2.03646 6.05127 1.63312 6.35926 1.31328C6.66726 0.993436 7.06253 0.771216 7.49584 0.674266C7.92915 0.577316 8.38141 0.609915 8.79634 0.768008C9.21126 0.9261 9.57054 1.20271 9.82948 1.56341C10.0884 1.92412 10.2356 2.353 10.2527 2.7967V5.14792H7.98855ZM39.3382 0.880884H43.0827V18.994H39.4253V0.880884H39.3382ZM27.4079 17.6878L28.4529 15.1624C29.6721 16.0332 31.1524 16.4686 32.7199 16.4686C33.8519 16.4686 34.4615 16.0332 34.4615 15.4237C34.4615 14.6399 33.5907 14.4657 32.2845 14.2045C30.2816 13.7691 27.7562 13.2466 27.7562 10.3729C27.7562 8.02165 29.8462 6.28 32.7199 6.28C34.4615 6.28 36.2032 6.71541 37.5094 7.67332L36.4645 10.2858C35.3324 9.41496 33.852 8.97955 32.5457 8.97955C31.6749 8.97955 31.0654 9.41496 31.0654 9.93746C31.0654 10.6341 32.1104 10.8954 33.3295 11.2437C35.3324 11.7662 37.8577 12.4629 37.9448 15.1624C37.9448 17.5136 35.8549 19.2553 32.9812 19.2553C30.8041 19.2553 28.8883 18.7328 27.4079 17.6878ZM68.5108 14.2045C67.9883 15.1624 66.9433 15.8591 65.8984 15.8591C65.3383 15.8857 64.7814 15.7617 64.2855 15.4999C63.7897 15.2381 63.3732 14.8481 63.0793 14.3706C62.7855 13.8931 62.625 13.3455 62.6148 12.785C62.6045 12.2244 62.7449 11.6713 63.0211 11.1834C63.2973 10.6954 63.6992 10.2905 64.1851 10.0108C64.671 9.73101 65.2231 9.5867 65.7838 9.59286C66.3444 9.59902 66.8931 9.75543 67.3728 10.0458C67.8524 10.3361 68.2454 10.7498 68.5108 11.2437L71.4715 9.50205C70.7555 8.25803 69.6496 7.28454 68.3248 6.73211C67 6.17967 65.5301 6.07906 64.1424 6.44582C62.7546 6.81257 61.5264 7.62628 60.6475 8.76112C59.7686 9.89597 59.2879 11.2887 59.28 12.7241C59.2879 14.1595 59.7686 15.5522 60.6475 16.6871C61.5264 17.8219 62.7546 18.6356 64.1424 19.0024C65.5301 19.3691 67 19.2685 68.3248 18.7161C69.6496 18.1637 70.7555 17.1902 71.4715 15.9461L68.5108 14.2045ZM72.865 0.880884V18.994H76.6094V13.5949L80.9635 18.994H85.7531L80.1798 12.5499L85.4047 6.45416H80.7894L76.6094 11.5049V0.880884H72.952H72.865ZM51.2685 15.8591C51.8392 15.8532 52.3998 15.7072 52.9009 15.4339C53.402 15.1606 53.8283 14.7683 54.1422 14.2916V11.2437C53.8283 10.767 53.402 10.3747 52.9009 10.1014C52.3998 9.82803 51.8392 9.68203 51.2685 9.67621C50.5842 9.84095 49.9752 10.2312 49.5397 10.784C49.1041 11.3369 48.8673 12.0203 48.8673 12.7241C48.8673 13.4279 49.1041 14.1113 49.5397 14.6642C49.9752 15.217 50.5842 15.6072 51.2685 15.772V15.8591ZM54.1422 8.02165V6.54124H57.8867V18.994H54.1422V17.5136C53.5327 18.5586 52.0522 19.2553 50.4847 19.2553C47.2627 19.2553 44.6502 16.2945 44.6502 12.7241C44.6502 9.15372 47.2627 6.28 50.4847 6.28C52.0522 6.28 53.5327 6.97666 54.1422 8.02165ZM4.59231 14.2916C4.59231 14.7394 4.45948 15.1771 4.21069 15.5495C3.9619 15.9218 3.60827 16.212 3.19455 16.3834C2.78083 16.5547 2.3256 16.5996 1.8864 16.5122C1.4472 16.4249 1.04383 16.2092 0.727182 15.8926C0.410536 15.5759 0.194911 15.1725 0.107549 14.7333C0.0201861 14.2941 0.0650187 13.8388 0.236386 13.4251C0.407754 13.0114 0.697881 12.6578 1.07022 12.409C1.44255 12.1602 1.88039 12.0274 2.32819 12.0274H4.59231V14.2916ZM8.07561 12.0274C7.47512 12.0274 6.89921 12.266 6.4746 12.6906C6.04999 13.1152 5.81149 13.6911 5.81149 14.2916V19.9519C5.81149 20.5524 6.04999 21.1283 6.4746 21.5529C6.89921 21.9775 7.47512 22.2161 8.07561 22.2161C8.6761 22.2161 9.25201 21.9775 9.67662 21.5529C10.1012 21.1283 10.3397 20.5524 10.3397 19.9519V14.2916C10.3397 12.9853 9.29476 12.0274 8.07561 12.0274ZM10.3397 8.54414C10.3397 7.32499 9.29476 6.28 8.07561 6.28H2.32819C1.7277 6.28 1.15179 6.51854 0.727182 6.94315C0.302572 7.36776 0.0639648 7.94365 0.0639648 8.54414C0.0639648 9.14463 0.302572 9.72052 0.727182 10.1451C1.15179 10.5697 1.7277 10.8083 2.32819 10.8083H8.07561C9.29476 10.8083 10.3397 9.85038 10.3397 8.54414ZM17.2193 8.54414C17.2193 8.09633 17.352 7.65859 17.6008 7.28625C17.8496 6.91391 18.2032 6.62371 18.6169 6.45234C19.0306 6.28098 19.4859 6.23614 19.9251 6.3235C20.3643 6.41086 20.7678 6.6265 21.0844 6.94315C21.401 7.25979 21.6167 7.66323 21.704 8.10243C21.7914 8.54163 21.7466 8.99687 21.5752 9.41059C21.4038 9.82431 21.1136 10.1779 20.7413 10.4267C20.3689 10.6755 19.9312 10.8083 19.4834 10.8083H17.2193V8.54414ZM13.736 10.8083C15.0422 10.8083 16.0872 9.85038 16.0872 8.54414V2.7967C16.0872 2.18466 15.8441 1.59769 15.4113 1.16492C14.9785 0.732144 14.3915 0.489014 13.7794 0.489014C13.1674 0.489014 12.5805 0.732144 12.1477 1.16492C11.7149 1.59769 11.4718 2.18466 11.4718 2.7967V8.54414C11.4718 9.85038 12.5168 10.8083 13.736 10.8083ZM13.736 17.7749C14.1838 17.7749 14.6215 17.9077 14.9938 18.1565C15.3662 18.4052 15.6564 18.7589 15.8278 19.1726C15.9991 19.5863 16.044 20.0415 15.9566 20.4807C15.8692 20.9199 15.6536 21.3234 15.337 21.64C15.0203 21.9567 14.6169 22.1723 14.1777 22.2597C13.7385 22.347 13.2832 22.3022 12.8695 22.1308C12.4558 21.9595 12.1022 21.6693 11.8534 21.2969C11.6046 20.9246 11.4718 20.4868 11.4718 20.039V17.6007H13.736V17.7749ZM11.4718 14.2916C11.4718 15.5107 12.5168 16.5557 13.736 16.5557H19.4834C20.0839 16.5557 20.6598 16.3172 21.0844 15.8926C21.509 15.468 21.7475 14.8921 21.7475 14.2916C21.7475 13.6911 21.509 13.1152 21.0844 12.6906C20.6598 12.266 20.0839 12.0274 19.4834 12.0274H13.736C13.1355 12.0274 12.5596 12.266 12.135 12.6906C11.7103 13.1152 11.4718 13.6911 11.4718 14.2916Z" fill="white"/>
</svg>
