<svg width="135" height="20" viewBox="0 0 135 20" fill="none" xmlns="http://www.w3.org/2000/svg">
<g id="Vector">
<path d="M25.6969 0.947266H38.2954V7.24654H25.6969V13.5458H38.2954V19.8451H19.3976V7.24654H13.1761V19.8451H6.79901V7.24654H0.499756V1.02503H19.3976V7.24654H25.6969V1.02503V0.947266Z" fill="white"/>
<path d="M76.091 12.0682V16.7343V16.8121H78.8907V11.8349C78.8907 9.65737 78.0353 8.41307 76.1688 8.41307C75.4234 8.42166 74.7058 8.69763 74.1468 9.19076V5.38009L71.3471 6.46885V16.6566H74.1468V11.9904C74.1468 10.9794 74.4579 10.6684 75.08 10.6684C75.6244 10.6684 76.091 10.9017 76.091 12.0682Z" fill="white"/>
<path d="M50.894 16.7343V8.41307H54.0047V5.69116H44.7502V8.3353H47.7832V16.7343H50.894Z" fill="white"/>
<path d="M56.2599 13.3903H61.1594V12.9237C61.1594 9.81291 59.7596 8.25753 57.5043 8.25753C55.249 8.25753 53.6159 9.81291 53.6159 12.6126C53.6159 15.179 55.0157 16.9676 57.5043 16.9676C58.7119 16.9997 59.902 16.6751 60.9261 16.0344L59.8374 14.168C59.0597 14.5568 58.4375 14.7123 57.6598 14.7123C56.8821 14.7123 56.3377 14.3235 56.2599 13.3903Z" fill="white"/>
<path d="M66.4477 16.8899C63.9591 16.8899 62.5593 15.3345 62.5593 12.5348H62.637C62.637 10.0462 63.8036 8.25753 66.5255 8.25753C68.0808 8.25753 68.9363 8.95746 69.6362 10.124L67.692 11.6794C67.3032 10.9794 67.0699 10.5906 66.4477 10.5906C65.7478 10.5906 65.3589 11.2905 65.3589 12.6126C65.3589 13.9347 65.7478 14.5568 66.5255 14.5568C67.0699 14.5568 67.4586 14.2457 67.9253 13.468L69.714 14.8679C68.7807 16.3455 67.8476 16.8899 66.4477 16.8899Z" fill="white"/>
<path d="M85.7343 16.8899C82.468 16.8899 80.6794 14.4013 80.6794 11.2128C80.6794 7.63539 82.7791 5.53563 85.7343 5.53563C88.3785 5.53563 89.545 6.70216 90.3227 8.72415L87.523 9.89068C87.1342 8.80192 86.7453 8.17977 85.7343 8.17977C84.49 8.17977 83.9457 9.50184 83.9457 11.2128C83.9457 12.8459 84.49 14.168 85.8121 14.168C86.7453 14.168 87.1341 13.6236 87.7563 12.6126L90.4005 13.9347C89.6228 15.49 88.3785 16.8899 85.7343 16.8899Z" fill="white"/>
<path d="M97.3218 11.6015L97.3219 11.6016L97.9441 8.56861C97.633 8.41307 97.2441 8.25753 96.622 8.25753C96.2984 8.26145 95.9793 8.3326 95.6848 8.46649C95.3902 8.60037 95.1267 8.79405 94.9111 9.03522V8.41307H92.0336V16.7343H94.9111V12.2237C94.9111 11.2128 95.2222 10.8239 95.9999 10.8239C96.5442 10.8239 96.933 11.2127 97.3218 11.6015Z" fill="white"/>
<path d="M104.01 16.7343V16.19V16.1122C103.543 16.5788 102.921 16.8899 101.988 16.8899C100.122 16.8899 99.2661 15.7233 99.2661 13.468V8.49084H102.144V13.157C102.144 14.2457 102.532 14.479 103.077 14.479C103.621 14.479 104.01 14.168 104.01 13.157V8.41307H106.887V16.7343H104.01Z" fill="white"/>
<path d="M113.731 11.9904V16.7343H116.531V11.6794C116.531 9.50184 115.675 8.25753 113.887 8.25753C112.953 8.25753 112.331 8.56861 111.787 8.95746V8.41307H108.987V16.6566H111.787V11.9904C111.787 10.9794 112.098 10.6684 112.72 10.6684C113.342 10.6684 113.731 10.9017 113.731 11.9904Z" fill="white"/>
<path d="M122.052 16.8899C119.642 16.8899 118.164 15.3345 118.164 12.5348H118.242C118.242 10.0462 119.486 8.25753 122.13 8.25753C123.763 8.25753 124.541 8.95746 125.319 10.124L123.297 11.6794C122.908 10.9794 122.675 10.5906 122.052 10.5906C121.352 10.5906 120.964 11.2905 120.964 12.6126C120.964 13.9347 121.352 14.5568 122.13 14.5568C122.752 14.5568 123.063 14.2457 123.53 13.468L125.396 14.8679C124.385 16.3455 123.608 16.8899 122.052 16.8899Z" fill="white"/>
<path d="M131.774 12.0682V16.7343V16.8121H134.573V11.8349C134.573 9.65737 133.718 8.41307 131.929 8.41307C130.996 8.41307 130.374 8.80192 129.829 9.19076V5.38009L127.03 6.46885V16.6566H129.829V11.9904C129.829 10.9794 130.14 10.6684 130.762 10.6684C131.385 10.6684 131.774 10.9017 131.774 12.0682Z" fill="white"/>
</g>
</svg>
