<svg width="63" height="19" viewBox="0 0 63 19" fill="none" xmlns="http://www.w3.org/2000/svg">
<g id="Mask group">
<mask id="mask0_26_4137" style="mask-type:alpha" maskUnits="userSpaceOnUse" x="0" y="0" width="63" height="19">
<g id="Group">
<path id="Vector" d="M62.215 0.231934H0V18.5602H62.215V0.231934Z" fill="white"/>
</g>
</mask>
<g mask="url(#mask0_26_4137)">
<g id="Group_2">
<path id="Vector_2" d="M0.0839844 0.316099H16.0581V3.9313H15.7218V1.57721H9.50027V17.9717H11.2658V18.5602H5.04429V17.9717H6.72578V1.57721H0.4202V3.9313H0.0839844V0.232024V0.316099ZM16.8147 0.316099H23.0362V0.736471H21.3547V17.9717H23.0362V18.5602H16.8147V17.9717H18.5803V0.736471H16.8147V0.316099ZM28.5851 0.232024H29.7622L35.6474 14.2724L41.5326 0.232024H42.6256L45.9886 17.9717H47.586V18.5602H41.1122V17.9717H42.7937L40.7759 6.62168L35.5633 18.5602H34.3022L29.2577 6.62168L27.0718 17.9717H28.6693V18.5602H23.7929V17.9717H25.3063L28.6693 0.232024H28.5851ZM48.0904 0.232024H61.8786V3.84722H61.7104L61.6264 1.66129L52.5463 1.57721V8.72354H60.1972L60.4493 7.04205H60.7856C60.7022 8.55424 60.7022 10.0699 60.7856 11.5821H60.4493L60.1972 9.90058H52.5463V17.2991H61.8786V14.861H62.2149V18.5602H48.0904V17.9717H49.94V0.736471H48.0904V0.147949V0.232024Z" fill="white"/>
</g>
</g>
</g>
</svg>
