<svg xmlns="http://www.w3.org/2000/svg" viewBox="0 0 1600 1168"><defs><style>.cls-1{fill:#6F93AD}.cls-2{fill:#CCCED0}.cls-3{fill:#fff}.cls-4{fill:#CCCED0}.cls-5{fill:#E1E2E2}.cls-6{fill:#016087}.cls-7{fill:#46799A}.cls-8{fill:none}</style></defs><title>jetpack-apps</title><g id="jetpack-apps"><path class="cls-1" d="M743 898.41h401.13V1076H743z"/><path class="cls-2" d="M441.92 85.5h1027.84v832.09H392.09V135.42a49.92 49.92 0 0 1 49.83-49.92z"/><path class="cls-3" d="M481.49 186.67h894v629.85h-894z"/><path class="cls-1" d="M1396.39 820.28c-78.44 7.81-156.78 6.7-235.12 6.9h-235l-234.61-2.74c-78.34-1.12-156.68-.91-234.92-9.64v-5.08c78.44-7.71 156.78-6.59 235.12-6.9h235l234.61 3.18c78.34 1.22 156.68 1 234.92 10.15zm-129.89 265a1130.86 1130.86 0 0 1-158.81 6.9H948.48c-53.07 0-106.14-1.32-159.22-2.54a1129.82 1129.82 0 0 1-159.51-9.64v-5.07A1144.19 1144.19 0 0 1 789 1068h159.17c53.08 0 106.25 1.82 159.52 2.64a1145.76 1145.76 0 0 1 159.12 10.14z"/><path class="cls-3" d="M1385.73 865.94a99.62 99.62 0 0 1-34.09 9.54 327.24 327.24 0 0 1-34.4 2.64h-34.4a151.08 151.08 0 0 1-34.71-4.47 4.25 4.25 0 0 1-2.94-5.25 4.37 4.37 0 0 1 2.64-2.84 151.46 151.46 0 0 1 34.2-7.31c11.46-1.22 22.83-2.23 34.3-2.84a325.43 325.43 0 0 1 34.5 0 96.63 96.63 0 0 1 34.7 6.8 2.22 2.22 0 0 1 1.23 2.9 2.68 2.68 0 0 1-1.03.83z"/><circle class="cls-4" cx="248.1" cy="468.97" r="19.99"/><circle class="cls-2" cx="248.1" cy="383.63" r="19.99"/><circle class="cls-4" cx="248.1" cy="292.71" r="19.99"/><circle class="cls-4" cx="329.89" cy="292.71" r="19.99"/><path class="cls-5" d="M1170.1 706.22H694.49V356.13h507.37v318.43a31.76 31.76 0 0 1-31.76 31.66z"/><path class="cls-6" d="M747.15 276.68h402.05a52.67 52.67 0 0 1 52.66 52.32v37H694.49v-37a52.65 52.65 0 0 1 52.66-52.32z"/><path class="cls-3" d="M728.89 552.28a310 310 0 0 1 123.59-6 626 626 0 0 1 119.74 28.1A703.94 703.94 0 0 1 1085 623.32c35.52 20.29 71 42.72 96.61 77.93a6.7 6.7 0 0 1-10.15 8.22v-.61A205.13 205.13 0 0 0 1128 670.5a465.93 465.93 0 0 0-50.74-30.44 765.65 765.65 0 0 0-111.62-46.27 683.67 683.67 0 0 0-115.68-29c-10.15-1.42-19.69-2.23-29.53-3.45s-19.69-.71-29.53-1.42-19.59.82-29.43 1.12-19.28 3.15-28.92 4.67h-.3a6.8 6.8 0 0 1-3-13.19zm-514.18 541.17a40.59 40.59 0 0 1-40.59-40.59V591.65a40.59 40.59 0 0 1 40.59-40.58h213.1a40.58 40.58 0 0 1 40.59 40.58v461.51a40.59 40.59 0 0 1-40.59 40.59H252.06"/><path class="cls-5" d="M174.83 640H468.2v363.89H174.83z"/><path class="cls-2" d="M1122 489.88a48.54 48.54 0 0 1-32.37 18.57 50.73 50.73 0 0 1-36.73-9.34 50.23 50.23 0 0 1-10.2-70.3c.18-.25.37-.49.56-.73a49.92 49.92 0 0 1 89.29 26.18 50.68 50.68 0 0 1-10.55 35.62zm-10.15-8.33a33.67 33.67 0 1 0-23.44 12.59 35.1 35.1 0 0 0 22.94-12.89zM406.4 831.85a49.16 49.16 0 0 1-32.4 18.57A50.31 50.31 0 0 1 326.51 771c.25-.33.49-.66.74-1a50 50 0 0 1 89.8 25.77 50.75 50.75 0 0 1-10.65 36.08zm-10.65-8.43a33.07 33.07 0 0 0 6.69-25.67 33.66 33.66 0 1 0-30 38.66 34.61 34.61 0 0 0 23.31-12.99z"/><path class="cls-6" d="M178.59 640h285.85v65.55H178.59z"/><path class="cls-3" d="M209.44 915.26a180.57 180.57 0 0 1 72-10.86 255.51 255.51 0 0 1 71 12.58 215.77 215.77 0 0 1 65.14 33.59 141.33 141.33 0 0 1 44.86 58.35 6.9 6.9 0 0 1-3.86 8.83 6.79 6.79 0 0 1-8.42-3 148 148 0 0 0-44.14-48.6 219.67 219.67 0 0 0-59.47-30 276.26 276.26 0 0 0-66.06-13.29 199.72 199.72 0 0 0-66.57 5 6.74 6.74 0 0 1-4.18-12.86z"/><path class="cls-7" d="M214.71 1098.52a45.75 45.75 0 0 1-42.82-28.72 42.41 42.41 0 0 1-2.94-14.2v-12.48l-.71-24-1.52-98.23-1.93-195.59-.79-97.82v-36.84a49.89 49.89 0 0 1 2.63-15.32 51.45 51.45 0 0 1 46.89-34.91l195.94-.61h18.37a33.71 33.71 0 0 1 7.81.61 50.74 50.74 0 0 1 28 13.5A52.49 52.49 0 0 1 478.55 581a77.51 77.51 0 0 1 1.11 14.51v110c0 65.25 0 130.4-1 195.64l-1.22 97.62-.51 48.91v6.32a43.73 43.73 0 0 1-.81 7.31 45.6 45.6 0 0 1-4.77 14 47.59 47.59 0 0 1-34.5 25 72.77 72.77 0 0 1-13.6.71h-24.46l-48.91-.71-97.82-1.63a5.07 5.07 0 1 1 0-10.14l97.82-1.53 48.91-.71h24.45a54.42 54.42 0 0 0 10.66-.81 32.14 32.14 0 0 0 9.1-3.49 32.88 32.88 0 0 0 13.19-13.9 31.79 31.79 0 0 0 2.85-9.13 25.34 25.34 0 0 0 0-4.77v-6l-.21-49.42-.61-97.62c-.81-65.24-.61-130.39-.91-195.64v-97.73a157.16 157.16 0 0 0-.71-22 28.73 28.73 0 0 0-8.39-14.79 28.16 28.16 0 0 0-15.33-7.51 31.72 31.72 0 0 0-4.36 0h-18.26l-195.55-1a29.21 29.21 0 0 0-27.39 20.3 32 32 0 0 0-1.63 8.72v36.43l-.81 97.82L183 920.84l-1.52 98.23v36.33a31.92 31.92 0 0 0 1.93 10.14 34.89 34.89 0 0 0 31.35 22.83 5.08 5.08 0 1 1 0 10.15z"/></g><g id="clear_rectangle" data-name="clear rectangle"><path id="Layer_4" data-name="Layer 4" class="cls-8" d="M0 0h1600v1168H0z"/></g></svg>