<svg xmlns="http://www.w3.org/2000/svg" xmlns:xlink="http://www.w3.org/1999/xlink" version="1.1" id="Layer_1" x="0px" y="0px" viewBox="0 0 415 100" style="enable-background:new 0 0 415 100;" xml:space="preserve">
<style type="text/css">
	.st0{fill:#EF7E19;}
	.st1{fill:#F6B881;}
	.st2{fill:#CCCCCC;}
</style>
<g>
	<g id="logo-orangeAsset-2">
		<rect id="Rectangle" x="74.5" y="32.1" class="st0" width="19" height="65.5"/>
		<rect x="107.8" y="1.2" class="st0" width="19" height="96.4"/>
		<rect x="141.1" y="1.2" class="st0" width="19" height="96.4"/>
		<path id="Path" class="st0" d="M84.1,0c-6.3,0-11.4,5.1-11.4,11.4s5.1,11.4,11.4,11.4s11.4-5.1,11.4-11.4c0-3-1.2-5.9-3.4-8.1    C90,1.2,87.1,0,84.1,0"/>
		<path class="st1" d="M25,26.8V2l25.4,18.7c5.3,3.9,8.9,9.5,10.3,15.9c-5.7-6.8-13.4-9.7-18.6-9.8L25,26.8z"/>
		<path id="Shape" class="st0" d="M41.7,75c-0.2,3-2.7,5.3-5.7,5.3H19.8V49.1H36c3,0,5.5,2.3,5.7,5.3L41.7,75z M19.9,32.1V1.2H1    v96.4h39.6c5.3,0,10.5-2.1,14.3-5.9c3.8-3.8,5.9-8.9,5.9-14.3V52.3c0-11.1-9-20.1-20.2-20.1H19.9z"/>
		<path class="st2" d="M214.3,99.5c-19.4,0-24.2-12.1-24.2-22.8V53.2c0-13,6.9-22.9,24-22.9c16.8,0,22.8,8,22.8,18.8v5.5h-9.9V50    c0-6.4-3.3-11.3-12.6-11.3c-10.8,0-14,5.7-14,14.5v21.8c0,8.7,3.6,15.7,14.2,15.7c9.3,0,12.6-4.4,12.6-10.9v-4.4h9.9v4.8    C236.9,91.2,230.3,99.5,214.3,99.5z"/>
		<path class="st2" d="M271.1,99.5c-19.1,0-24.6-11.1-24.6-23.6V54.3c0-11.5,5.9-24,25.4-24s24.8,12.1,24.8,23.4v22    C296.7,87.1,291.9,99.5,271.1,99.5z M271.9,90.8c11.3,0,14.6-6.9,14.6-15.7V54.3c0-8.2-2.9-15.2-14.6-15.2    c-11.3,0-15.2,6.9-15.2,15.6V75C256.7,84.8,260.4,90.8,271.9,90.8z"/>
		<path class="st2" d="M308,97.6V32.2h9l0.3,9.1c2.9-5.6,9.2-10.9,19.3-10.9c10.3,0,15.6,5.3,17.8,11.5c3.9-7.3,11.5-11.7,19.7-11.5    c14.7,0,19.1,10.5,19.1,20.7v46.5h-10V53.8c0-8.1-2.1-14.6-11.9-14.6c-4-0.2-7.9,1.2-10.8,3.9s-4.7,6.5-4.8,10.5v44.1h-10.2V52.8    c0-7.1-2.1-13.7-11.9-13.7c-4-0.2-7.9,1.3-10.8,4c-2.9,2.7-4.7,6.5-4.8,10.4v44.1H308z"/>
		<circle id="Oval" class="st2" cx="176.5" cy="92.5" r="7.1"/>
	</g>
</g>
</svg>
