<svg xmlns="http://www.w3.org/2000/svg" width="190" height="190" fill="none"><g clip-path="url(#a)"><path fill="#fff" d="M0 0h190v190H0z"/><path fill="#F6F7F7" d="M0 0h190.764v125.68H0z"/><path fill="#F6F7F7" d="M0 0h120.069v89.771H0z"/><mask id="b" width="121" height="90" x="0" y="0" maskUnits="userSpaceOnUse" style="mask-type:alpha"><path fill="#fff" d="M0 0h120.069v89.771H0z"/></mask><g fill="#DCDCDE" mask="url(#b)"><circle cx="79.672" cy="78.55" r="40.397"/><circle cx="-1.122" cy="78.55" r="40.397"/><circle cx="79.672" cy="-2.244" r="40.397"/><circle cx="-1.122" cy="-2.244" r="40.397"/></g><path fill="#fff" fill-rule="evenodd" d="M157.644 71.817c-.66 0-1.29-1.097-1.756-1.563l-9.987-9.987a1.122 1.122 0 0 0-1.587 0l-9.986 9.987c-.467.466-1.097 1.563-1.756 1.563H21.321c-.62 0-1.122.503-1.122 1.122v153.733c0 .62.502 1.122 1.122 1.122h148.122c.62 0 1.122-.502 1.122-1.122V72.939c0-.62-.502-1.122-1.122-1.122h-11.799Z" clip-rule="evenodd"/><path fill="#D93A2E" fill-opacity=".08" d="M20 114h150.367v36H20z"/><path stroke="#DCDCDE" stroke-width="8.977" d="M74.061 96.504h76.306M74.061 168.321h76.306"/><g clip-path="url(#c)"><path fill="#DCDCDE" d="m48.252 89.77 5.61 5.612-10.667 10.668a1.984 1.984 0 0 1-.014-2.789l-.003-.003a1.981 1.981 0 0 1-2.799.03 1.978 1.978 0 0 1-.03-2.798l-.009-.009a1.984 1.984 0 0 1-2.755-.041l10.667-10.67Zm8.513-.464-2.438-2.437a2.244 2.244 0 0 0-3.173 0l-1.78 1.78 5.611 5.61 1.78-1.78a2.244 2.244 0 0 0 0-3.173ZM37.03 103.237v3.366h3.366a3.365 3.365 0 0 0-3.366-3.366Z"/></g><path fill="#000" d="M76.84 134.011h3.875c.894 0 1.672-.178 2.332-.535a3.817 3.817 0 0 0 1.552-1.507c.374-.649.561-1.409.561-2.28v-.017c0-.865-.187-1.622-.561-2.271a3.82 3.82 0 0 0-1.552-1.508c-.66-.362-1.438-.543-2.332-.543H76.84v2.095h3.235c.76 0 1.35.193 1.771.578.421.386.631.939.631 1.657v.018c0 .719-.21 1.274-.63 1.666-.422.385-1.012.578-1.772.578H76.84v2.069ZM75.517 138h2.647v-12.65h-2.647V138Zm11.629 0h2.56v-5.392c0-.455.093-.847.28-1.174.193-.328.465-.579.816-.754.356-.176.774-.263 1.253-.263a4.828 4.828 0 0 1 1.166.14v-2.235a2.443 2.443 0 0 0-.438-.079 3.504 3.504 0 0 0-.509-.035c-.62 0-1.14.146-1.56.438-.415.286-.701.692-.86 1.218h-.148v-1.507h-2.56V138Zm11.638.202c.993 0 1.844-.199 2.551-.597a4.029 4.029 0 0 0 1.639-1.727c.38-.753.57-1.651.57-2.691v-.017c0-1.041-.193-1.935-.578-2.683a4.108 4.108 0 0 0-1.64-1.727c-.707-.403-1.554-.605-2.542-.605-.976 0-1.82.202-2.534.605a4.103 4.103 0 0 0-1.64 1.727c-.385.748-.578 1.642-.578 2.683v.017c0 1.04.19 1.938.57 2.691a4.03 4.03 0 0 0 1.64 1.727c.712.398 1.56.597 2.542.597Zm0-2.008c-.45 0-.836-.117-1.157-.351-.316-.239-.558-.584-.728-1.034-.164-.45-.246-.991-.246-1.622v-.017c0-.632.085-1.169.255-1.614.17-.45.412-.794.727-1.034.322-.24.705-.359 1.149-.359.456 0 .841.119 1.157.359.316.24.558.584.728 1.034.169.445.254.982.254 1.614v.017c0 .631-.085 1.172-.254 1.622-.164.45-.406.795-.728 1.034-.316.234-.701.351-1.157.351Zm6.641 1.806h2.56v-5.812c0-.369.07-.696.21-.982.146-.292.348-.52.605-.684.257-.164.549-.245.877-.245.333 0 .616.064.85.192.24.129.421.316.544.561.128.24.192.532.192.877V138h2.56v-5.918c0-.35.068-.66.202-.929a1.56 1.56 0 0 1 .587-.64c.257-.158.558-.236.903-.236.357 0 .652.064.886.192.239.129.418.325.535.588.116.257.175.578.175.964V138h2.56v-6.619c0-.66-.129-1.23-.386-1.709a2.667 2.667 0 0 0-1.078-1.123c-.468-.263-1.02-.394-1.657-.394-.45 0-.871.073-1.263.219a3.026 3.026 0 0 0-1.008.623c-.28.268-.494.584-.64.946h-.158a2.496 2.496 0 0 0-.578-.964 2.467 2.467 0 0 0-.912-.614 3.168 3.168 0 0 0-1.183-.21c-.632 0-1.184.152-1.657.456a2.474 2.474 0 0 0-1.017 1.262h-.149v-1.516h-2.56V138Zm20.79.202c.994 0 1.844-.199 2.551-.597a4.031 4.031 0 0 0 1.64-1.727c.38-.753.57-1.651.57-2.691v-.017c0-1.041-.193-1.935-.579-2.683a4.106 4.106 0 0 0-1.639-1.727c-.708-.403-1.555-.605-2.543-.605-.976 0-1.82.202-2.533.605a4.102 4.102 0 0 0-1.64 1.727c-.385.748-.578 1.642-.578 2.683v.017c0 1.04.19 1.938.57 2.691a4.023 4.023 0 0 0 1.639 1.727c.713.398 1.56.597 2.542.597Zm0-2.008c-.45 0-.836-.117-1.157-.351-.316-.239-.558-.584-.728-1.034-.163-.45-.245-.991-.245-1.622v-.017c0-.632.085-1.169.254-1.614.17-.45.412-.794.728-1.034.321-.24.704-.359 1.148-.359.456 0 .842.119 1.157.359.316.24.559.584.728 1.034.17.445.254.982.254 1.614v.017c0 .631-.084 1.172-.254 1.622-.164.45-.406.795-.728 1.034-.315.234-.701.351-1.157.351Zm10.63 1.85c.251 0 .488-.012.71-.035.222-.024.412-.05.57-.079v-1.903a62.75 62.75 0 0 0-.342.036c-.105.005-.24.008-.403.008-.427 0-.739-.099-.938-.298-.199-.204-.298-.523-.298-.955v-4.533h1.981v-1.928h-1.981v-2.306h-2.586v2.306h-1.482v1.928h1.482v5.111c0 .941.257 1.619.771 2.034.514.409 1.353.614 2.516.614Zm7.369.158c.701 0 1.309-.088 1.823-.263.52-.182.953-.415 1.298-.702.35-.286.625-.593.824-.92.204-.333.342-.652.412-.956l.026-.096-2.385.009-.026.052c-.058.123-.169.26-.333.412a2.16 2.16 0 0 1-.631.386c-.263.111-.582.166-.956.166-.461 0-.859-.102-1.192-.306-.333-.205-.59-.5-.771-.886-.182-.386-.272-.847-.272-1.385v-1.034c0-.561.09-1.035.272-1.421.187-.391.438-.686.753-.885a1.996 1.996 0 0 1 1.096-.307c.415 0 .778.099 1.087.298.316.193.561.482.737.868.175.386.263.868.263 1.447v1.025l1.201-1.516h-6.663v1.604h7.899v-.798c0-.976-.187-1.826-.561-2.551a3.986 3.986 0 0 0-1.578-1.683c-.684-.403-1.493-.605-2.429-.605-.935 0-1.75.207-2.445.622a4.15 4.15 0 0 0-1.605 1.745c-.374.754-.561 1.642-.561 2.665v.009c0 1.028.19 1.92.57 2.674.38.748.921 1.323 1.622 1.727.707.403 1.549.605 2.525.605Z"/><circle cx="145.317" cy="23.004" r="2.805" fill="#646970"/><circle cx="145.317" cy="33.103" r="2.805" fill="#646970"/><circle cx="145.317" cy="43.202" r="2.805" fill="#646970"/><g clip-path="url(#d)"><path fill="#DCDCDE" d="M54.765 157.589H39.118a2.232 2.232 0 0 0-2.236 2.235v15.647a2.236 2.236 0 0 0 2.236 2.236h15.647A2.237 2.237 0 0 0 57 175.471v-15.647a2.233 2.233 0 0 0-2.235-2.235Zm0 17.882H39.118v-15.647h15.647v15.647Zm-11.177-2.235h-2.235v-5.588h2.235v5.588Zm4.47 0h-2.234v-11.177h2.235v11.177Zm4.471 0h-2.235v-7.824h2.235v7.824Z"/></g><path fill="url(#e)" d="M56 133.339a7.786 7.786 0 0 1-.686 3.191 8.304 8.304 0 0 1-1.953 2.709 9.091 9.091 0 0 1-2.92 1.809 9.484 9.484 0 0 1-1.594.452l.243-.13s2.101-1.206 2.518-3.909c.196-2.412-1.8-3.467-1.8-3.467s-1.013 1.288-2.454 1.288c-2.265 0-1.854-3.782-1.854-3.782s-3.435 1.776-3.435 5.644c0 2.417 2.428 4.2 2.428 4.2v.005a8.596 8.596 0 0 1-.935-.306 9.108 9.108 0 0 1-2.919-1.809 8.382 8.382 0 0 1-1.953-2.709 7.79 7.79 0 0 1-.686-3.192c0-3.711 4.318-7.309 4.318-7.309s.412 2.823 2.518 2.823c3.959 0 2.518-6.347 2.518-6.347s3.6 2.116 4.682 7.756c1.44-.707 1.8-2.823 1.8-2.823S56 130.256 56 133.365"/></g><defs><clipPath id="a"><path fill="#fff" d="M0 0h190v190H0z"/></clipPath><clipPath id="c"><path fill="#fff" d="M33.664 83.038h26.931v26.931h-26.93z"/></clipPath><clipPath id="d"><path fill="#fff" d="M33.53 154.235h26.822v26.823H33.53z"/></clipPath><linearGradient id="e" x1="47" x2="47" y1="122.5" y2="141.5" gradientUnits="userSpaceOnUse"><stop stop-color="#E94338"/><stop offset="1" stop-color="#FFB800"/></linearGradient></defs></svg>