<svg width="170" height="170" viewBox="0 0 170 170" fill="none" xmlns="http://www.w3.org/2000/svg">
<g clip-path="url(#clip0_4526_36471)">
<rect width="170" height="170" fill="white"/>
<rect width="170" height="112" fill="#F6F7F7"/>
<rect width="107" height="80" fill="#B8E6BF"/>
<mask id="mask0_4526_36471" style="mask-type:alpha" maskUnits="userSpaceOnUse" x="0" y="0" width="107" height="80">
<rect width="107" height="80" fill="#3857E9"/>
</mask>
<g mask="url(#mask0_4526_36471)">
<circle cx="71" cy="70" r="36" fill="#09B585"/>
<circle cx="-1" cy="70" r="36" fill="#09B585"/>
<circle cx="71" cy="-2" r="36" fill="#09B585"/>
<circle cx="-1" cy="-2" r="36" fill="#09B585"/>
</g>
<mask id="path-8-outside-1_4526_36471" maskUnits="userSpaceOnUse" x="17" y="52.4141" width="136" height="152" fill="black">
<rect fill="white" x="17" y="52.4141" width="136" height="152"/>
<path fill-rule="evenodd" clip-rule="evenodd" d="M140.485 64.0001C139.897 64.0001 139.335 63.022 138.92 62.6065L130.02 53.707C129.63 53.3164 128.997 53.3164 128.606 53.707L119.707 62.6065C119.291 63.022 118.729 64.0001 118.142 64.0001H19C18.4477 64.0001 18 64.4478 18 65.0001V202C18 202.552 18.4477 203 19 203H151C151.552 203 152 202.552 152 202V65.0001C152 64.4478 151.552 64.0001 151 64.0001H140.485Z"/>
</mask>
<path fill-rule="evenodd" clip-rule="evenodd" d="M140.485 64.0001C139.897 64.0001 139.335 63.022 138.92 62.6065L130.02 53.707C129.63 53.3164 128.997 53.3164 128.606 53.707L119.707 62.6065C119.291 63.022 118.729 64.0001 118.142 64.0001H19C18.4477 64.0001 18 64.4478 18 65.0001V202C18 202.552 18.4477 203 19 203H151C151.552 203 152 202.552 152 202V65.0001C152 64.4478 151.552 64.0001 151 64.0001H140.485Z" fill="white"/>
<path d="M130.02 53.707L130.727 52.9998V52.9998L130.02 53.707ZM128.606 53.707L127.899 52.9998V52.9998L128.606 53.707ZM129.313 54.4141L138.213 63.3136L139.627 61.8993L130.727 52.9998L129.313 54.4141ZM129.313 54.4141L130.727 52.9998C129.946 52.2188 128.68 52.2188 127.899 52.9998L129.313 54.4141ZM120.414 63.3136L129.313 54.4141L127.899 52.9998L119 61.8993L120.414 63.3136ZM19 65.0001H118.142V63.0001H19V65.0001ZM19 65.0001V65.0001V63.0001C17.8954 63.0001 17 63.8955 17 65.0001H19ZM19 202V65.0001H17V202H19ZM19 202H19H17C17 203.105 17.8954 204 19 204V202ZM151 202H19V204H151V202ZM151 202V202V204C152.105 204 153 203.105 153 202H151ZM151 65.0001V202H153V65.0001H151ZM151 65.0001H153C153 63.8955 152.105 63.0001 151 63.0001V65.0001ZM140.485 65.0001H151V63.0001H140.485V65.0001ZM119 61.8993C118.85 62.049 118.703 62.2325 118.589 62.3743C118.462 62.5333 118.354 62.6688 118.244 62.7915C118.133 62.916 118.055 62.9852 118.006 63.0186C117.955 63.054 118.009 63.0001 118.142 63.0001V65.0001C118.569 65.0001 118.913 64.8239 119.145 64.6629C119.38 64.4999 119.579 64.2987 119.733 64.1267C119.889 63.9529 120.037 63.7659 120.15 63.6247C120.277 63.4663 120.356 63.3717 120.414 63.3136L119 61.8993ZM138.213 63.3136C138.271 63.3717 138.35 63.4663 138.477 63.6247C138.59 63.7659 138.737 63.9529 138.893 64.1267C139.047 64.2987 139.246 64.4999 139.481 64.6629C139.714 64.8239 140.058 65.0001 140.485 65.0001V63.0001C140.618 63.0001 140.671 63.054 140.62 63.0186C140.572 62.9852 140.494 62.916 140.382 62.7915C140.272 62.6688 140.165 62.5333 140.037 62.3743C139.924 62.2325 139.777 62.049 139.627 61.8993L138.213 63.3136Z" fill="url(#paint0_linear_4526_36471)" fill-opacity="0.5" mask="url(#path-8-outside-1_4526_36471)"/>
<rect x="18" y="102" width="134" height="32" fill="#3B52E5" fill-opacity="0.1"/>
<g clip-path="url(#clip1_4526_36471)">
<path fill-rule="evenodd" clip-rule="evenodd" d="M46.7591 128.5H37.1733C35.1032 126.495 32.5894 120.911 34.9602 117.141C35.795 115.813 36.7748 114.977 37.7017 114.185C39.4067 112.73 40.9325 111.427 41.047 107.5C45.4713 109.75 48.3795 114.267 49.0017 115.799C49.8955 118 51.499 122.534 46.7591 128.5ZM40.8969 115.666C38.1927 117.645 34.1465 122.563 40.6366 128.499H43.8817C49.5605 122.563 43.8817 117.369 43.8817 117.369C43.8817 117.369 45.5042 122.563 42.2591 122.563C39.8254 122.563 39.004 118.387 40.8969 115.666Z" fill="#3857E9"/>
</g>
<path d="M66 86L134 86" stroke="#DCDCDE" stroke-width="8"/>
<path d="M66 150L134 150" stroke="#DCDCDE" stroke-width="8"/>
<g clip-path="url(#clip2_4526_36471)">
<path d="M43 79.9997L48 84.9997L38.493 94.5067C38.164 94.1776 37.9782 93.732 37.976 93.2667C37.9737 92.8013 38.1552 92.3539 38.481 92.0217L38.478 92.0187C38.1509 92.353 37.7043 92.5437 37.2366 92.5487C36.7689 92.5538 36.3183 92.3728 35.984 92.0457C35.6497 91.7186 35.459 91.272 35.454 90.8043C35.4489 90.3366 35.6299 89.886 35.957 89.5517L35.949 89.5437C35.6152 89.8575 35.1724 90.0292 34.7142 90.0225C34.2561 90.0158 33.8185 89.8312 33.494 89.5077L43 79.9997ZM50.586 79.5857L48.414 77.4137C48.0389 77.0388 47.5303 76.8281 47 76.8281C46.4697 76.8281 45.9611 77.0388 45.586 77.4137L44 78.9997L49 83.9997L50.586 82.4137C50.9609 82.0386 51.1716 81.53 51.1716 80.9997C51.1716 80.4694 50.9609 79.9608 50.586 79.5857ZM33 91.9997V94.9997H36C36 94.2041 35.6839 93.441 35.1213 92.8784C34.5587 92.3158 33.7956 91.9997 33 91.9997Z" fill="#DCDCDE"/>
</g>
<path d="M66.9375 124H71.9297C74.3359 124 75.8281 122.766 75.8281 120.789V120.773C75.8281 119.297 74.6953 118.188 73.125 118.07V118.023C74.3672 117.859 75.3047 116.805 75.3047 115.57V115.555C75.3047 113.82 73.9688 112.727 71.8438 112.727H66.9375V124ZM71.2344 114.477C72.3359 114.477 72.9844 114.992 72.9844 115.891V115.906C72.9844 116.883 72.2734 117.438 70.9453 117.438H69.2969V114.477H71.2344ZM71.2266 119.039C72.6719 119.039 73.4219 119.594 73.4219 120.625V120.641C73.4219 121.688 72.6797 122.242 71.3281 122.242H69.2969V119.039H71.2266ZM77.4113 124H79.6925V112.727H77.4113V124ZM84.1038 124.133C85.2053 124.133 86.0959 123.609 86.5725 122.75H86.6194V124H88.9006V118.258C88.9006 116.57 87.5022 115.453 85.3381 115.453C83.1272 115.453 81.7991 116.562 81.6741 118.109L81.6663 118.203H83.7522L83.7678 118.133C83.8772 117.594 84.3928 117.195 85.2444 117.195C86.135 117.195 86.6194 117.656 86.6194 118.398V118.914L84.5491 119.039C82.4709 119.172 81.2913 120.062 81.2913 121.586V121.602C81.2913 123.078 82.4241 124.133 84.1038 124.133ZM83.5491 121.484V121.469C83.5491 120.875 84.01 120.5 84.8928 120.445L86.6194 120.336V120.938C86.6194 121.812 85.8694 122.469 84.8459 122.469C84.0569 122.469 83.5491 122.102 83.5491 121.484ZM90.5541 124H97.4681V122.281H93.4134V122.234L97.3744 117.07V115.625H90.6166V117.344H94.765V117.383L90.5541 122.703V124ZM102.84 124.172C105.231 124.172 106.387 122.758 106.645 121.523L106.668 121.438H104.575L104.559 121.484C104.395 121.953 103.825 122.469 102.887 122.469C101.723 122.469 100.997 121.688 100.973 120.352H106.739V119.648C106.739 117.117 105.2 115.453 102.747 115.453C100.293 115.453 98.7231 117.156 98.7231 119.82V119.828C98.7231 122.508 100.278 124.172 102.84 124.172ZM102.786 117.156C103.731 117.156 104.411 117.758 104.551 118.914H100.997C101.145 117.781 101.848 117.156 102.786 117.156Z" fill="black"/>
<circle cx="129.5" cy="20.5" r="2.5" fill="#646970"/>
<circle cx="129.5" cy="29.5" r="2.5" fill="#646970"/>
<circle cx="129.5" cy="38.5" r="2.5" fill="#646970"/>
<g clip-path="url(#clip3_4526_36471)">
<path d="M49 141H35C34.4696 141 33.9609 141.211 33.5858 141.586C33.2107 141.961 33 142.47 33 143V157C33 157.53 33.2107 158.039 33.5858 158.414C33.9609 158.789 34.4696 159 35 159H49C49.5304 159 50.0391 158.789 50.4142 158.414C50.7893 158.039 51 157.53 51 157V143C51 142.47 50.7893 141.961 50.4142 141.586C50.0391 141.211 49.5304 141 49 141ZM49 157H35V143H49V157ZM39 155H37V150H39V155ZM43 155H41V145H43V155ZM47 155H45V148H47V155Z" fill="#DCDCDE"/>
</g>
</g>
<defs>
<linearGradient id="paint0_linear_4526_36471" x1="85" y1="53.4141" x2="85" y2="170.5" gradientUnits="userSpaceOnUse">
<stop stop-color="#636363"/>
<stop offset="1" stop-color="#CCCDCF" stop-opacity="0"/>
</linearGradient>
<clipPath id="clip0_4526_36471">
<rect width="170" height="170" fill="white"/>
</clipPath>
<clipPath id="clip1_4526_36471">
<rect width="24" height="24" fill="white" transform="translate(30 106)"/>
</clipPath>
<clipPath id="clip2_4526_36471">
<rect width="24" height="24" fill="white" transform="translate(30 74)"/>
</clipPath>
<clipPath id="clip3_4526_36471">
<rect width="24" height="24" fill="white" transform="translate(30 138)"/>
</clipPath>
</defs>
</svg>
