<svg width="308" height="203" fill="none" xmlns="http://www.w3.org/2000/svg"><g filter="url(#filter0_d)"><path d="M10 10a4 4 0 014-4h280a4 4 0 014 4v174H10V10z" fill="#fff"/><path d="M14 6.5h280a3.5 3.5 0 013.5 3.5v173.5h-287V10A3.5 3.5 0 0114 6.5z" stroke="#dcdcde"/></g><rect x="31" y="27" width="248" height="42" rx="2" fill="#f6f7f7"/><rect x="31" y="136" width="248" height="42" rx="2" fill="#f6f7f7"/><path d="M163.933 145h-17.866c-1.734 0-3.067 1.333-3.067 3.067v17.866c0 1.734 1.333 3.067 3.067 3.067h17.866c1.734 0 3.067-1.333 3.067-3.067v-17.866c0-1.734-1.333-3.067-3.067-3.067zM165 165.933c0 .534-.533 1.067-1.067 1.067h-17.866c-.534 0-1.067-.533-1.067-1.067v-17.866c0-.534.533-1.067 1.067-1.067h17.866c.534 0 1.067.533 1.067 1.067v17.866zM152.333 161l6.667-4-6.667-4v8z" fill="#101517"/><rect x="31" y="81" width="124" height="42" rx="2" fill="#f6f7f7"/><rect x="167" y="81" width="112" height="42" rx="2" fill="#f6f7f7"/><path d="M232.333 90h-18.666A2.675 2.675 0 00211 92.667v18.666c0 1.467 1.2 2.667 2.667 2.667h18.666c1.467 0 2.667-1.2 2.667-2.667V92.667C235 91.2 233.8 90 232.333 90zm-18.666 2h18.666c.4 0 .667.267.667.667v11.2L229 100c-.4-.4-1.067-.4-1.333 0l-4.8 4.667L219 102c-.4-.267-.8-.267-1.067 0l-4.8 3.467v-12.8c-.133-.4.134-.667.534-.667zm18.666 20h-18.666c-.4 0-.667-.267-.667-.667v-3.2l5.467-4 4 2.534c.4.266.933.266 1.2-.134l4.666-4.533 4.667 4.533v4.8c0 .4-.267.667-.667.667zm-128.6-20.867h-11.2V91l-1.2.267c-3.066.533-5.333 3.2-5.333 6.4s2.267 5.866 5.333 6.4l.934.133v8.267h2V93.133h3.866v19.334h2V93.133h3.6v-2zM164.333 36h-18.666A2.675 2.675 0 00143 38.667v18.666C143 58.8 144.2 60 145.667 60h18.666C165.8 60 167 58.8 167 57.333V38.667C167 37.2 165.8 36 164.333 36zm-18.666 2h18.666c.4 0 .667.267.667.667v11.2L161 46c-.4-.4-1.067-.4-1.333 0l-4.8 4.667L151 48c-.4-.267-.8-.267-1.067 0l-4.8 3.467v-12.8c-.133-.4.134-.667.534-.667zm18.666 20h-18.666c-.4 0-.667-.267-.667-.667v-3.2l5.467-4 4 2.534c.4.266.933.266 1.2-.134L160.333 48 165 52.533v4.8c0 .4-.267.667-.667.667z" fill="#101517"/><path fill="url(#paint0_linear)" d="M10 114h288v89H10z"/><defs><linearGradient id="paint0_linear" x1="154" y1="114" x2="154" y2="203" gradientUnits="userSpaceOnUse"><stop stop-color="#fff" stop-opacity="0"/><stop offset=".745" stop-color="#fff"/></linearGradient><filter id="filter0_d" x="0" y="0" width="308" height="198" filterUnits="userSpaceOnUse" color-interpolation-filters="sRGB"><feFlood flood-opacity="0" result="BackgroundImageFix"/><feColorMatrix in="SourceAlpha" values="0 0 0 0 0 0 0 0 0 0 0 0 0 0 0 0 0 0 127 0"/><feOffset dy="4"/><feGaussianBlur stdDeviation="5"/><feColorMatrix values="0 0 0 0 0 0 0 0 0 0 0 0 0 0 0 0 0 0 0.1 0"/><feBlend in2="BackgroundImageFix" result="effect1_dropShadow"/><feBlend in="SourceGraphic" in2="effect1_dropShadow" result="shape"/></filter></defs></svg>