<svg width="280" height="180" fill="none" xmlns="http://www.w3.org/2000/svg"><path d="M0 4a4 4 0 014-4h272a4 4 0 014 4v176H0V4z" fill="#fff"/><path d="M0 4a4 4 0 014-4h272a4 4 0 014 4v176H0V4z" fill="#fff"/><rect x="16" y="15" width="248" height="42" rx="2" fill="#F4F4F4"/><rect x="16" y="124" width="248" height="42" rx="2" fill="#F4F4F4"/><path d="M148.933 133h-17.866c-1.734 0-3.067 1.333-3.067 3.067v17.866c0 1.734 1.333 3.067 3.067 3.067h17.866c1.734 0 3.067-1.333 3.067-3.067v-17.866c0-1.734-1.333-3.067-3.067-3.067zM150 153.933c0 .534-.533 1.067-1.067 1.067h-17.866c-.534 0-1.067-.533-1.067-1.067v-17.866c0-.534.533-1.067 1.067-1.067h17.866c.534 0 1.067.533 1.067 1.067v17.866zM137.333 149l6.667-4-6.667-4v8z" fill="#000"/><rect x="16" y="69" width="124" height="42" rx="2" fill="#F4F4F4"/><rect x="152" y="69" width="112" height="42" rx="2" fill="#F4F4F4"/><path d="M217.333 78h-18.666A2.675 2.675 0 00196 80.667v18.666c0 1.467 1.2 2.667 2.667 2.667h18.666c1.467 0 2.667-1.2 2.667-2.667V80.667C220 79.2 218.8 78 217.333 78zm-18.666 2h18.666c.4 0 .667.267.667.667v11.2L214 88c-.4-.4-1.067-.4-1.333 0l-4.8 4.667L204 90c-.4-.267-.8-.267-1.067 0l-4.8 3.467v-12.8c-.133-.4.134-.667.534-.667zm18.666 20h-18.666c-.4 0-.667-.267-.667-.667v-3.2l5.467-4 4 2.534c.4.266.933.266 1.2-.134L213.333 90 218 94.533v4.8c0 .4-.267.667-.667.667zM88.733 79.133h-11.2V79l-1.2.267c-3.066.533-5.333 3.2-5.333 6.4s2.267 5.866 5.333 6.4l.934.133v8.267h2V81.133h3.866v19.334h2V81.133h3.6v-2zM149.333 24h-18.666A2.675 2.675 0 00128 26.667v18.666C128 46.8 129.2 48 130.667 48h18.666C150.8 48 152 46.8 152 45.333V26.667C152 25.2 150.8 24 149.333 24zm-18.666 2h18.666c.4 0 .667.267.667.667v11.2L146 34c-.4-.4-1.067-.4-1.333 0l-4.8 4.667L136 36c-.4-.267-.8-.267-1.067 0l-4.8 3.467v-12.8c-.133-.4.134-.667.534-.667zm18.666 20h-18.666c-.4 0-.667-.267-.667-.667v-3.2l5.467-4 4 2.534c.4.266.933.266 1.2-.134L145.333 36 150 40.533v4.8c0 .4-.267.667-.667.667z" fill="#000"/><rect x="16" y="92" width="248" height="88" rx="2" fill="url(#paint0_linear)"/><defs><linearGradient id="paint0_linear" x1="140" y1="92" x2="140" y2="180" gradientUnits="userSpaceOnUse"><stop stop-color="#fff" stop-opacity="0"/><stop offset=".745" stop-color="#fff"/></linearGradient></defs></svg>
