<svg width="393" height="268" fill="none" xmlns="http://www.w3.org/2000/svg"><g filter="url(#filter0_d)"><rect x="10" y="10" width="373" height="238" rx="5" fill="#fff"/><rect x="10.5" y="10.5" width="372" height="237" rx="4.5" stroke="#DDD"/></g><path fill="#F4F4F4" d="M26.893 22.468H370.46v55.414H26.893zM26.893 88.965h182.866v55.414H26.893z"/><mask id="a" maskUnits="userSpaceOnUse" x="111" y="104" width="19" height="23"><path d="M122.472 117.774v8.75h-2.343v-8.75h-1.171v-.028a6.049 6.049 0 0 1-2.634-.335 6.365 6.365 0 0 1-2.284-1.44 6.885 6.885 0 0 1-1.546-2.301 7.26 7.26 0 0 1-.547-2.771c0-.954.186-1.897.547-2.77a6.885 6.885 0 0 1 1.546-2.301 6.365 6.365 0 0 1 2.284-1.44 6.064 6.064 0 0 1 2.634-.336v-.028h10.541v2.5h-2.343v20h-2.342v-20h-2.342v11.25z" fill="#fff"/></mask><g mask="url(#a)"><path d="M122.472 117.774v8.75h-2.343v-8.75h-1.171v-.028a6.049 6.049 0 0 1-2.634-.335 6.365 6.365 0 0 1-2.284-1.44 6.885 6.885 0 0 1-1.546-2.301 7.26 7.26 0 0 1-.547-2.771c0-.954.186-1.897.547-2.77a6.885 6.885 0 0 1 1.546-2.301 6.365 6.365 0 0 1 2.284-1.44 6.064 6.064 0 0 1 2.634-.336v-.028h10.541v2.5h-2.343v20h-2.342v-20h-2.342v11.25z" fill="#1D2327"/><path fill-rule="evenodd" clip-rule="evenodd" d="M107.246 100.274h27.783v25.902h-27.783v-25.902z" fill="#50575E"/></g><path fill="#F4F4F4" d="M222.227 88.965h148.232v55.414H222.227z"/><path d="M211.201 39.487h-19.713c-1.205 0-2.19 1.352-2.19 3v18c0 1.651.986 3 2.19 3h19.713c1.205 0 2.19-1.35 2.19-3v-18c0-1.65-.987-3-2.19-3zm0 21h-19.713v-18h19.713v18z" fill="#50575E"/><path d="M204.083 49.987l-3.833 6.766-2.739-4.517-3.832 6.751h15.332l-4.928-9zM308.551 105.811h-19.712c-1.206 0-2.191 1.351-2.191 3v18c0 1.651.987 3 2.191 3h19.712c1.206 0 2.19-1.352 2.19-3v-18c0-1.652-.986-3-2.19-3zm0 21h-19.712v-18h19.712v18z" fill="#50575E"/><path d="M301.434 116.311l-3.834 6.765-2.739-4.517-3.832 6.752h15.332l-4.927-9z" fill="#50575E"/><path fill="#F4F4F4" d="M26.893 155.462H370.46v59.57H26.893z"/><path d="M211.201 177.297h-19.713c-1.205 0-2.19 1.351-2.19 3v18c0 1.651.986 3 2.19 3h19.713c1.205 0 2.19-1.351 2.19-3v-18c0-1.651-.987-3-2.19-3zm0 21h-19.713v-18h19.713v18z" fill="#50575E"/><path d="M198.174 195.297v-12l7.608 6.13-7.608 5.87z" fill="#50575E"/><path fill="#fff" d="M10.239 223h373v45h-373z"/><path fill="url(#paint0_linear)" d="M10.239 153h373v99h-373z"/><defs><filter id="filter0_d" x="0" y="0" width="393" height="258" filterUnits="userSpaceOnUse" color-interpolation-filters="sRGB"><feFlood flood-opacity="0" result="BackgroundImageFix"/><feColorMatrix in="SourceAlpha" values="0 0 0 0 0 0 0 0 0 0 0 0 0 0 0 0 0 0 127 0"/><feOffset/><feGaussianBlur stdDeviation="5"/><feColorMatrix values="0 0 0 0 0 0 0 0 0 0 0 0 0 0 0 0 0 0 0.1 0"/><feBlend in2="BackgroundImageFix" result="effect1_dropShadow"/><feBlend in="SourceGraphic" in2="effect1_dropShadow" result="shape"/></filter><linearGradient id="paint0_linear" x1="196.739" y1="214.681" x2="198.161" y2="152.849" gradientUnits="userSpaceOnUse"><stop stop-color="#fff"/><stop offset="1" stop-color="#fff" stop-opacity="0"/><stop offset="1" stop-color="#fff" stop-opacity=".208"/></linearGradient></defs></svg>