<svg width="394" height="258" fill="none" xmlns="http://www.w3.org/2000/svg"><g filter="url(#filter0_d)"><rect x="10.239" y="10" width="373" height="238" rx="5" fill="#fff"/><rect x="10.739" y="10.5" width="372" height="237" rx="4.5" stroke="#DDD"/></g><path fill="#F4F4F4" d="M27.132 22.468h343.567v55.414H27.132zM27.132 88.965h182.866v55.414H27.132z"/><mask id="a" maskUnits="userSpaceOnUse" x="112" y="104" width="18" height="23"><path d="M122.711 117.774v8.75h-2.342v-8.75h-1.172v-.028a6.049 6.049 0 01-2.634-.335 6.373 6.373 0 01-2.284-1.44 6.885 6.885 0 01-1.546-2.301 7.277 7.277 0 01-.546-2.771c0-.954.186-1.897.546-2.77a6.885 6.885 0 011.546-2.301 6.373 6.373 0 012.284-1.44 6.064 6.064 0 012.634-.336v-.028h10.541v2.5h-2.342v20h-2.343v-20h-2.342v11.25z" fill="#fff"/></mask><g mask="url(#a)"><path d="M122.711 117.774v8.75h-2.342v-8.75h-1.172v-.028a6.049 6.049 0 01-2.634-.335 6.373 6.373 0 01-2.284-1.44 6.885 6.885 0 01-1.546-2.301 7.277 7.277 0 01-.546-2.771c0-.954.186-1.897.546-2.77a6.885 6.885 0 011.546-2.301 6.373 6.373 0 012.284-1.44 6.064 6.064 0 012.634-.336v-.028h10.541v2.5h-2.342v20h-2.343v-20h-2.342v11.25z" fill="#1D2327"/><path fill-rule="evenodd" clip-rule="evenodd" d="M107.485 100.274h27.784v25.902h-27.784v-25.902z" fill="#50575E"/></g><path fill="#F4F4F4" d="M222.466 88.965h148.232v55.414H222.466z"/><path d="M211.44 39.487h-19.713c-1.205 0-2.19 1.352-2.19 3v18c0 1.651.987 3 2.19 3h19.713c1.205 0 2.19-1.35 2.19-3v-18c0-1.65-.986-3-2.19-3zm0 21h-19.713v-18h19.713v18z" fill="#50575E"/><path d="M204.323 49.987l-3.834 6.766-2.739-4.517-3.832 6.751h15.332l-4.927-9zM308.79 105.811h-19.712c-1.206 0-2.19 1.351-2.19 3v18c0 1.651.986 3 2.19 3h19.712c1.206 0 2.191-1.352 2.191-3v-18c0-1.652-.987-3-2.191-3zm0 21h-19.712v-18h19.712v18z" fill="#50575E"/><path d="M301.673 116.311l-3.834 6.765-2.738-4.517-3.832 6.752H306.6l-4.927-9z" fill="#50575E"/><path fill="#F4F4F4" d="M27.239 155h343v80h-343z"/><path d="M211.44 177.297h-19.713c-1.205 0-2.19 1.351-2.19 3v18c0 1.651.987 3 2.19 3h19.713c1.205 0 2.19-1.351 2.19-3v-18c0-1.651-.986-3-2.19-3zm0 21h-19.713v-18h19.713v18z" fill="#50575E"/><path d="M198.413 195.297v-12l7.608 6.13-7.608 5.87z" fill="#50575E"/><defs><filter id="filter0_d" x=".239" y="0" width="393" height="258" filterUnits="userSpaceOnUse" color-interpolation-filters="sRGB"><feFlood flood-opacity="0" result="BackgroundImageFix"/><feColorMatrix in="SourceAlpha" values="0 0 0 0 0 0 0 0 0 0 0 0 0 0 0 0 0 0 127 0"/><feOffset/><feGaussianBlur stdDeviation="5"/><feColorMatrix values="0 0 0 0 0 0 0 0 0 0 0 0 0 0 0 0 0 0 0.1 0"/><feBlend in2="BackgroundImageFix" result="effect1_dropShadow"/><feBlend in="SourceGraphic" in2="effect1_dropShadow" result="shape"/></filter></defs></svg>
