<svg height="132" viewBox="0 0 206 132" width="206" xmlns="http://www.w3.org/2000/svg" xmlns:xlink="http://www.w3.org/1999/xlink"><mask id="a" fill="#fff"><path d="m191.813.2775v2.262h-191.4738326v-2.262z" fill="#fff" fill-rule="evenodd"/></mask><mask id="b" fill="#fff"><path d="m0 131.604h205.813v-131.604h-205.813z" fill="#fff" fill-rule="evenodd"/></mask><g fill="none" fill-rule="evenodd"><path d="m.5323 1.2085c15.907-.551 31.814-.667 47.723-.805l47.721-.126c31.816.12 63.63.051 95.446.731.22.005.395.188.391.409-.005.215-.178.387-.391.392-31.816.678-63.63.61-95.446.73l-47.721-.126c-15.909-.138-31.816-.254-47.723-.805-.11-.004-.197-.096-.193-.207.004-.105.089-.189.193-.193" fill="#f6f7f7" mask="url(#a)" transform="translate(14 128.604)"/><path d="m55.6593 130.0127 1.093-86.751v-4.361c0-3.808 3.087-6.896 6.894-6.896h101.991c3.807 0 6.893 3.088 6.893 6.896v91.14h-105.333" fill="#c3c4c7"/><path d="m161.7208 95.5449h-92.904v-22.729c0-6.795 5.509-12.305 12.305-12.305h80.599z" fill="#187aa2"/><path d="m127.0812 130.0127h-58.265v-11.812c0-6.795 5.509-12.305 12.306-12.305h45.959z" fill="#3895ba"/><path d="m161.7208 130.0127h-24.546v-11.812c0-6.795 5.51-12.305 12.307-12.305h12.239z" fill="#3895ba"/><path d="m56.7325 50.0674v-6.245-5.177c0-4.52 3.087-8.185 6.895-8.185h102.007c3.809 0 6.896 3.665 6.896 8.185v11.422z" fill="#3895ba"/><path d="m175.7032 50.0635c-10.215.809-20.429.749-30.644.797l-30.643.135-30.644-.135c-10.214-.048-20.428.013-30.642-.797v-.5c10.214-.81 20.428-.749 30.642-.796l30.644-.135 30.643.135c10.215.047 20.429-.012 30.644.796z" fill="#004e6e"/><path d="m142.1427 99.3721h23.404c7.345 3.279 15.171 5.962 15.171 5.962s-2.222-2.123-3.389-5.962h3.97c3.331 0 6.032-2.7 6.032-6.031v-11.085c0-3.331-2.701-6.031-6.032-6.031h-39.156c-3.33 0-6.03 2.7-6.03 6.031v11.085c0 3.331 2.7 6.031 6.03 6.031" fill="#fff"/><g fill="#c3c4c7"><path d="m142.1437 99.5713c-2.23.033-4.431-1.231-5.52-3.206-.538-.979-.83-2.118-.804-3.227l-.023-3.224-.036-6.448c-.002-1.041-.071-2.227.344-3.307.363-1.083 1.034-2.053 1.9-2.798.872-.73 1.937-1.259 3.071-1.437 1.166-.171 2.2-.081 3.284-.117l6.449-.047 12.897-.053 12.898-.029 3.225-.006 1.625.003c.586.009 1.169.11 1.734.269 2.265.662 4.084 2.616 4.563 4.935.116.562.159 1.197.149 1.72l-.002 1.613-.005 3.223c-.017 2.172.024 4.251-.039 6.498-.2 2.349-1.76 4.514-3.929 5.431-.542.22-1.104.404-1.687.472-.59.089-1.165.07-1.685.071l-3.224-.006.506-.684c.327 1.066.763 2.1 1.306 3.074.271.487.572.957.896 1.409.319.445.682.897 1.04 1.259l.013.013c.2.203.2.531-.004.732-.145.143-.355.183-.536.12-5.142-1.816-10.221-3.776-15.194-6.023l.191.041c-7.8-.056-15.602-.154-23.403-.371zm0-.3c7.801-.217 15.603-.314 23.403-.37.066-.001.127.013.183.036l.01.005c4.966 2.156 10.033 4.121 15.146 5.901l-.525.866c-.456-.458-.814-.911-1.17-1.4-.349-.484-.673-.985-.963-1.506-.584-1.039-1.053-2.14-1.406-3.278-.086-.277.069-.573.347-.659.051-.016.109-.024.16-.024l3.224-.006c.554-.002 1.06.01 1.532-.066.488-.056.955-.216 1.407-.398 1.808-.774 3.099-2.587 3.259-4.537.047-2.05.008-4.272.016-6.4l-.004-3.223-.002-1.613c.01-.551-.027-.993-.119-1.485-.39-1.916-1.898-3.546-3.773-4.1-.469-.132-.953-.218-1.442-.226l-1.598-.011-3.225-.007-12.898-.028-12.897-.053-6.449-.048c-1.061.018-2.191-.079-3.153.064-.996.145-1.933.602-2.709 1.238-.77.65-1.372 1.501-1.702 2.456-.376.95-.324 1.972-.333 3.067l-.036 6.448-.022 3.224c-.04 1.044.204 2.059.679 2.974.963 1.83 2.971 3.048 5.06 3.06z"/><path d="m169.5138 88.292c0 1.067.865 1.933 1.933 1.933 1.067 0 1.932-.866 1.932-1.933 0-1.068-.865-1.934-1.932-1.934-1.068 0-1.933.866-1.933 1.934"/><path d="m159.8888 88.292c0 1.067.865 1.933 1.933 1.933 1.067 0 1.932-.866 1.932-1.933 0-1.068-.865-1.934-1.932-1.934-1.068 0-1.933.866-1.933 1.934"/><path d="m150.2638 88.292c0 1.067.865 1.933 1.933 1.933 1.067 0 1.932-.866 1.932-1.933 0-1.068-.865-1.934-1.932-1.934-1.068 0-1.933.866-1.933 1.934"/></g><path d="m79.5079 131.042h-45.46l-.091-28.952h45.459z" fill="#fff"/><path d="m79.3663 130.9707v-.069l-.38-28.81.43.429c-15.154.126-30.306.084-45.459.135l.565-.568.031 28.952-.505-.504 22.58.146zm.283.142h-.071l-22.65.291-22.88.144c-.278.002-.504-.222-.506-.499v-.005l-.152-28.952c-.002-.311.249-.565.561-.567h.006c15.153.05 30.305.009 45.459.134h.008c.235.002.424.195.422.43z" fill="#c3c4c7"/><path d="m35.7169 104.8799 20.461 12.391 21.648-13.206" fill="#fff"/><path d="m35.7687 104.794c1.788.896 3.537 1.856 5.277 2.83 1.731.991 3.464 1.977 5.169 3.009l5.137 3.061c1.72 1.009 3.402 2.079 5.104 3.116l-.558.001 10.867-6.534c3.625-2.173 7.283-4.292 10.958-6.383.096-.055.218-.022.273.075.052.092.023.209-.065.266-3.541 2.31-7.099 4.593-10.691 6.822l-10.782 6.673c-.175.108-.393.099-.559.001-1.707-1.029-3.435-2.025-5.125-3.081l-5.094-3.133c-1.704-1.034-3.381-2.114-5.061-3.187-1.669-1.092-3.33-2.197-4.954-3.365-.044-.032-.054-.095-.022-.14.029-.041.083-.052.126-.031" fill="#c3c4c7"/><path d="m20.29 131.042h6.562v-49.947h-6.562z" fill="#fff" mask="url(#b)"/><path d="m26.7111 130.9697v-.069l-.28-25.007c-.103-8.294-.095-16.534-.128-24.799l.549.549-6.563.016.566-.565-.055 24.974-.08 12.486c-.023 4.163-.109 8.325-.173 12.487l-.258-.258zm.283.142-.071.002-6.634.186c-.138.004-.253-.105-.257-.243l-.001-.002v-.013c-.064-4.162-.151-8.324-.173-12.487l-.08-12.486-.054-24.974c-.001-.313.251-.565.562-.566h.003l6.563.016c.302-.001.548.243.549.545v.005c-.033 8.384-.025 16.793-.128 25.147z" fill="#c3c4c7" mask="url(#b)"/><path d="m2.5695 100.2754 89.302-92.573" fill="#fff" mask="url(#b)"/><path d="m2.4972 100.2061c7.244-7.905 14.645-15.66 22.036-23.423l22.28-23.186 22.384-23.087c7.51-7.65 14.953-15.363 22.53-22.947.079-.078.206-.078.284 0 .076.077.077.2.005.279-7.307 7.844-14.748 15.56-22.122 23.34l-22.266 23.2-22.371 23.099c-7.492 7.666-14.976 15.34-22.615 22.864-.04.039-.103.038-.142-.001-.037-.038-.038-.099-.003-.138" fill="#c3c4c7" mask="url(#b)"/><path d="m29.6935 79.8037c0 3.287-2.664 5.952-5.952 5.952-3.287 0-5.952-2.665-5.952-5.952 0-3.288 2.665-5.952 5.952-5.952 3.288 0 5.952 2.664 5.952 5.952" fill="#fff" mask="url(#b)"/><path d="m29.4943 79.8037c-.053-1.514-.738-2.948-1.806-3.947-1.071-.999-2.513-1.55-3.947-1.519-1.433.025-2.839.61-3.834 1.632-1.002 1.012-1.568 2.42-1.553 3.834-.001 1.412.555 2.817 1.559 3.828.993 1.017 2.397 1.614 3.828 1.621 1.432.036 2.869-.512 3.941-1.509 1.084-.983 1.777-2.409 1.912-3.94zm.3 0c.145 1.59-.444 3.261-1.575 4.477-1.127 1.219-2.787 1.952-4.478 1.977-1.69.019-3.383-.666-4.589-1.865-1.212-1.189-1.938-2.88-1.929-4.589.005-1.708.72-3.396 1.934-4.584 1.205-1.194 2.896-1.89 4.584-1.855 1.689.02 3.343.752 4.471 1.967 1.148 1.201 1.745 2.863 1.681 4.472z" fill="#c3c4c7" mask="url(#b)"/><path d="m46.1251 131.042h-45.56v-.314c0-3.542 2.872-6.415 6.414-6.415h32.732c3.543 0 6.414 2.873 6.414 6.415z" fill="#fff" mask="url(#b)"/><path d="m46.0177 130.9707-.034-.07c-.055-.116-.064-.103-.07-.273l-.026-.404c-.02-.269-.077-.533-.126-.797-.133-.52-.305-1.032-.563-1.503-.498-.948-1.258-1.752-2.153-2.321-.902-.563-1.942-.896-2.999-.931-1.076-.023-2.218.012-3.325.016l-13.376.127-13.377.038c-1.1.011-2.26-.011-3.313.026-1.022.045-2.014.391-2.867.943-1.716 1.127-2.754 3.123-2.661 5.22l-.562-.561 22.593.109 11.374.153zm.263.141-.084.002-11.258.227-11.406.153-22.967.11c-.303.002-.55-.238-.561-.538l-.001-.024c-.039-1.155.2-2.423.763-3.49.551-1.081 1.399-2.004 2.412-2.665 1.02-.653 2.207-1.055 3.417-1.103 1.174-.034 2.245-.004 3.373-.009l13.377.038 13.376.127c1.123.019 2.212.004 3.362.051 1.175.059 2.316.472 3.287 1.115.963.652 1.761 1.552 2.269 2.592.265.516.436 1.073.561 1.635.045.284.095.57.11.857l.016.431c.012.094-.009.325-.046.491z" fill="#c3c4c7" mask="url(#b)"/><path d="m88.716 14.7373-2.43-4.35c-1.719-2.852-1.069-6.398 1.454-7.919l2.084-1.256c2.524-1.521 5.963-.442 7.683 2.411l2.43 4.349" fill="#fff" mask="url(#b)"/><path d="m88.629 14.7861c-.719-1.042-1.398-2.105-2.063-3.176-.338-.534-.67-1.053-.995-1.649-.308-.596-.522-1.243-.652-1.908-.246-1.336-.039-2.768.606-4.001.322-.617.771-1.176 1.317-1.621.577-.457 1.107-.748 1.648-1.076.551-.312 1.05-.655 1.724-.948.647-.274 1.351-.41 2.045-.407 1.389.008 2.756.483 3.811 1.336.531.421 1.007.906 1.396 1.454.406.566.652 1.136.949 1.694.587 1.119 1.139 2.257 1.696 3.391.049.099.008.22-.09.268-.093.045-.204.012-.258-.073-.673-1.067-1.351-2.132-1.995-3.214-.325-.538-.649-1.097-.998-1.545-.364-.465-.799-.867-1.272-1.208-.946-.679-2.092-1.07-3.224-1.047-.566.008-1.124.129-1.633.358-.482.215-1.03.588-1.567.911-.528.336-1.12.638-1.532.966-.438.342-.806.778-1.077 1.274-.545.989-.745 2.184-.57 3.334.074.576.219 1.152.456 1.694l.826 1.666c.564 1.131 1.115 2.27 1.627 3.429.021.051-.001.111-.052.133-.045.02-.097.004-.123-.035" fill="#c3c4c7" mask="url(#b)"/><path d="m92.8527 38.9668-4.389-7.279c-4.269-7.083-2.717-15.846 3.466-19.575l5.108-3.078c6.183-3.728 14.657-1.008 18.926 6.074l4.389 7.28" fill="#fff" mask="url(#b)"/><path d="m92.7667 39.0186c-1.566-2.319-3.09-4.664-4.591-7.022-1.51-2.416-2.483-5.224-2.611-8.112-.136-2.877.529-5.834 2.089-8.31.776-1.236 1.773-2.338 2.94-3.225.581-.455 1.221-.816 1.803-1.177l1.795-1.083c1.224-.703 2.337-1.464 3.681-2.119 1.329-.618 2.768-.985 4.222-1.095 2.916-.221 5.842.568 8.318 2.034 2.481 1.475 4.535 3.616 5.965 6.086 1.402 2.418 2.786 4.846 4.147 7.29.054.096.018.217-.078.272-.092.051-.208.021-.265-.066-1.525-2.344-3.026-4.702-4.511-7.071-1.431-2.326-3.4-4.315-5.758-5.653-2.337-1.351-5.062-2.058-7.733-1.831-1.332.111-2.639.457-3.842 1.028-1.166.575-2.371 1.395-3.562 2.094-1.167.739-2.461 1.414-3.511 2.179-1.065.797-1.981 1.79-2.701 2.916-1.445 2.254-2.095 4.992-1.988 7.688.1 2.704.901 5.381 2.296 7.736 1.384 2.428 2.748 4.87 4.067 7.337.025.049.007.11-.041.136-.046.025-.103.01-.131-.032" fill="#c3c4c7" mask="url(#b)"/><path d="m90.0929 40.6484 32.088-19.345" fill="#fff" mask="url(#b)"/><path d="m90.0412 40.5625c2.532-1.848 5.176-3.51 7.814-5.181l7.99-4.89c5.379-3.172 10.709-6.426 16.232-9.359.098-.051.219-.014.271.083.048.091.018.203-.065.26-5.172 3.515-10.538 6.709-15.854 9.985l-8.055 4.782c-2.709 1.552-5.413 3.115-8.229 4.491-.05.024-.111.004-.135-.046-.022-.044-.007-.097.031-.125" fill="#c3c4c7" mask="url(#b)"/><path d="m83.3663 85.3731 9.085-13.394 10.39 13.394z" fill="#3895ba" mask="url(#b)"/></g></svg>
