<svg width="40" height="19" viewBox="0 0 40 19" fill="none" xmlns="http://www.w3.org/2000/svg">
<path d="M36.2656 8.78021L31.6183 7.7034L30.7884 7.37207L9.46063 7.53773V17.8088L36.2656 17.8917V8.78021Z" fill="white"/>
<path d="M27.5519 16.8976C27.8008 16.0693 27.7179 15.241 27.3029 14.744C26.888 14.247 26.3071 13.9157 25.5602 13.8329L11.1203 13.6672C11.0374 13.6672 10.9544 13.5844 10.8714 13.5844C10.7884 13.5015 10.7884 13.4187 10.8714 13.3359C10.9544 13.1702 11.0373 13.0874 11.2033 13.0874L25.7262 12.9217C27.4689 12.8389 29.2946 11.4307 29.9585 9.77412L30.7884 7.6205C30.7884 7.53767 30.8714 7.45484 30.7884 7.37201C29.8755 3.1476 26.0581 0 21.5768 0C17.4274 0 13.8589 2.65061 12.6141 6.37803C11.7842 5.79821 10.7884 5.46688 9.62656 5.54971C7.63486 5.71538 6.05809 7.372 5.80913 9.35996C5.72614 9.85695 5.80913 10.3539 5.89212 10.8509C2.6556 10.9338 0 13.5844 0 16.8976C0 17.229 -1.26753e-06 17.4775 0.0829863 17.8088C0.0829863 17.9744 0.248961 18.0573 0.331948 18.0573H26.971C27.1369 18.0573 27.3029 17.9744 27.3029 17.8088L27.5519 16.8976Z" fill="#F48220"/>
<path d="M32.1162 7.62061H31.7012C31.6182 7.62061 31.5353 7.70344 31.4523 7.78627L30.8713 9.77422C30.6224 10.6025 30.7054 11.4309 31.1203 11.9278C31.5353 12.4248 32.1162 12.7562 32.8631 12.839L35.9336 13.0047C36.0166 13.0047 36.0996 13.0875 36.1826 13.0875C36.2655 13.1703 36.2655 13.2531 36.1826 13.336C36.0996 13.5016 36.0166 13.5845 35.8506 13.5845L32.6971 13.7501C30.9543 13.833 29.1286 15.2411 28.4647 16.8977L28.2987 17.6432C28.2157 17.726 28.2987 17.8917 28.4647 17.8917H39.4191C39.5851 17.8917 39.668 17.8089 39.668 17.6432C39.834 16.9806 40 16.2351 40 15.4896C40 11.1824 36.4315 7.62061 32.1162 7.62061Z" fill="#FAAE3F"/>
</svg>
