<svg height="1100" viewBox="0 0 1400 1100" width="1400" xmlns="http://www.w3.org/2000/svg"><g fill="none" fill-rule="evenodd"><path d="m0 0h1400v1100h-1400z" fill="#fff"/><g transform="translate(110 821)"><path d="m97.69 220.81c-2.161907-15.572757-7.0499176-30.642995-14.44-44.52-7.35-13.87-17-26.69-26.83-40.2l-.06-.09c-1.9235349-2.673929-1.6504885-6.342759.6476681-8.702495 2.2981567-2.359737 5.9584866-2.729679 8.6823319-.877505 14.952117 10.444906 27.0835218 24.431581 35.31 40.71 8.4 16.34 12.74 35.56 10.08 53.87-.482087 3.323852-3.331369 5.789691-6.69 5.789691s-6.2079127-2.465839-6.69-5.789691zm72.12-42.48c-1.72-14.28-5.8-28.09-10.39-41.55-4.750287-13.373755-10.722174-26.2816-17.84-38.56-6.306532-10.8678096-13.419844-21.2469612-21.28-31.05 11.170963-11.2001756 14.469941-28.0387608 8.351247-42.6262873-6.118693-14.58752656-20.442908-24.0341172-36.261247-23.9137127-10.5705751.10545721-20.669613 4.39098702-28.09 11.92-14.9473486 15.1685972-14.768264 39.5823132.4 54.53l.63.61c7.3288494 6.7732877 17.0971184 10.2748475 27.06 9.7 5.4200838.4274863 10.865038-.418365 15.9-2.47 5.72 10.74 11.46 21.33 16.59 32.18 5.87 12 11.1 24.19 15.85 36.51 4.580277 12.331446 8.289391 24.969165 11.1 37.82 2.710235 12.859683 4.319393 25.926983 4.81 39.06v.09c.146896 3.465496 2.903607 6.251727 6.367341 6.435528 3.463735.1838 6.499832-2.29504 7.012659-5.725528 1.940308-14.259295 1.869619-28.720355-.21-42.96zm-98.35-137.7c.3198579-5.4334258 2.6219722-10.5607004 6.47-14.41 3.8640396-3.7242803 9.0439285-5.7696354 14.41-5.69 10.64 0 20.35 9.1 20.58 20.1.93 10.92-8.21 22-20.58 23.34-12.43-1-21.68-12.27-20.87-23.33z" fill="#ccced0" fill-rule="nonzero"/><path d="m6.92 214.19c96.88-1.073333 193.76-1.88 290.64-2.42l290.64-.83 290.64.49 145.31 1 145.31 1.75c3.70031 0 6.7 2.999692 6.7 6.7s-2.99969 6.7-6.7 6.7l-145.31 1.75-145.31 1-290.64.49-290.64-.82c-96.88-.4-193.76-1.206667-290.64-2.42-3.70030782 0-6.7-2.999692-6.7-6.7s2.99969218-6.7 6.7-6.7z" fill="#969ca1"/></g><path d="m677.574812 661.792682c-.199604 59.999259.279445 119.998519.489029 179.976659.628753 59.97814 1.237545 119.977399 2.774495 179.976659.13887 7.60788 3.093797 13.62393 6.691721 13.62393s6.552851-6.01605 6.691721-13.62393c1.51699-59.99926 2.115801-119.998519 2.764514-179.976659.219565-59.97814.698614-119.9774.48903-179.976659-.159683-31.847547-.179644-63.695095-.279446-95.563762l-19.301698.950358c-.129742 31.551881-.149703 63.082642-.319366 94.613404z" fill="#ccced0" transform="matrix(.99254615 -.12186934 .12186934 .99254615 -92.468177 89.757523)"/><g transform="translate(290 173)"><path d="m8.26 71.33 666.38-70.39 36.79 348.26c.50125 4.782392-2.967875 9.066203-7.75 9.57l-666.38 70.4-36.79-348.27c-.24355377-2.2956199.43524952-4.5939213 1.88694649-6.3888489 1.45169696-1.7949277 3.5572532-2.9393034 5.85305351-3.1811511z" fill="#46799a"/><path d="m59 109h545v182h-545z" fill="#46799a"/><text fill="#fff" font-family="NotoSans-Bold, Noto Sans" font-size="127" font-weight="bold" transform="matrix(.9945219 -.10452846 .10452846 .9945219 -20.426209 37.884746)"><tspan x="158.061905" y="196.820015">.BLOG</tspan></text></g></g></svg>