<svg xmlns="http://www.w3.org/2000/svg" viewBox="0 0 1600 1168"><defs><style>.cls-1{fill:#fff}.cls-2{fill:#CCCED0}.cls-3{fill:#204A69}.cls-4{fill:#E1E2E2}.cls-5{fill:#016087}.cls-6{fill:none}</style></defs><title>jetpack-dashboard</title><g id="jetpack-dashboard"><g id="Layer_2" data-name="Layer 2"><g id="Layer_1-2" data-name="Layer 1-2"><path class="cls-1" d="M213.72 1094.35V171.53a69.87 69.87 0 0 1 69.88-69.88h1032.93a69.88 69.88 0 0 1 69.75 69.88v922.82z"/><path class="cls-2" d="M211.1 1097.1l-4.83-190.32-3.92-193.57c-1.57-130.62-3.66-260.46-3.92-391.86v-146a91.74 91.74 0 0 1 3.79-28.48 85.57 85.57 0 0 1 61.92-58.65 119.11 119.11 0 0 1 27.56-2.35h508.37l387.28-2h121.08a117.16 117.16 0 0 1 28.09 2.35 87.3 87.3 0 0 1 50 32.4 85 85 0 0 1 13.71 26.91 96.41 96.41 0 0 1 3.14 14.76 119.57 119.57 0 0 1 .78 15v144.62l-1.57 774.44v16.2h-16.33c-197.23 0-395.12 0-591.7-2.87-98.36-1.18-196.71-2-293.89-4.18s-194.07-3.92-289.56-6.4zm5.36-5.36q150-3.91 296.64-6.4c98.22-2.22 195.92-3 292.32-4.18 194.23-2.35 387.16-2.22 580.86-2.87l-16.06 16.06-1.44-774.44V175.32a69.68 69.68 0 0 0 0-9.8 49.13 49.13 0 0 0-1.83-8.75 53.58 53.58 0 0 0-8.23-15.81 50.31 50.31 0 0 0-29.52-19.33 301.77 301.77 0 0 0-44.28-1.57h-97.57l-387.28-1.56-387.29-.79H291.7a79.17 79.17 0 0 0-20.38 1.44 54.09 54.09 0 0 0-39.19 36.44 59.13 59.13 0 0 0-2.74 19.73v143.94c0 127.35-2.35 255-3.92 383.1l-4.7 193.06z"/><path class="cls-3" d="M1444.54 285.3c-107.37 10.58-214.87 9.79-322.24 10.45l-322.23 1.7-322.37-1.7c-107.37 0-214.87 0-322.24-10.45v-6.53c107.37-10.58 214.87-9.8 322.24-10.45l322.37-1.57 322 1.57c107.37.65 214.87 0 322.24 10.45z"/><path class="cls-4" d="M548 571.88h718.41v202.46H548zm0 254.7h718.41v162.49H548z"/><path class="cls-5" d="M1227.19 630.65v104.5h-90.13z"/><path class="cls-2" d="M628.69 435h637v86.2H547.32v-5.49a80.85 80.85 0 0 1 81-80.72zm742.18-78.64H221.42V291h1149.45z"/><path class="cls-5" d="M430.41 1087.82h-209V356.35h209z"/></g></g></g><g id="clear_rectangle" data-name="clear rectangle"><path id="Layer_4" data-name="Layer 4" class="cls-6" d="M0 0h1600v1168H0z"/></g></svg>