<svg width="416" height="241" viewBox="0 0 416 241" fill="none" xmlns="http://www.w3.org/2000/svg">
<g clip-path="url(#clip0_2212_48980)">
<rect width="416" height="240" fill="#3858e9"/>
<rect opacity="0.2" width="347.1" height="85.9933" rx="2" transform="matrix(-0.953605 -0.301059 -0.301059 0.953605 251.886 236.498)" fill="white"/>
<rect opacity="0.2" x="145.959" y="55.498" width="347.1" height="85.9933" rx="2" transform="rotate(-17.5212 145.959 55.498)" fill="white"/>
<rect x="38.8687" y="47" width="549.132" height="271" rx="10.188" fill="#1E1E1E"/>
<rect x="59.1045" y="64.498" width="9.98261" height="9.98261" rx="4.99131" fill="#FF5F57"/>
<rect x="59.3125" y="64.706" width="9.56667" height="9.56667" rx="4.78334" stroke="black" stroke-opacity="0.2" stroke-width="0.415942"/>
<rect x="75.7422" y="64.498" width="9.98261" height="9.98261" rx="4.99131" fill="#FEBC2E"/>
<rect x="75.9502" y="64.706" width="9.56667" height="9.56667" rx="4.78334" stroke="black" stroke-opacity="0.2" stroke-width="0.415942"/>
<rect x="92.3799" y="64.498" width="9.98261" height="9.98261" rx="4.99131" fill="#28C840"/>
<rect x="92.5879" y="64.706" width="9.56667" height="9.56667" rx="4.78334" stroke="black" stroke-opacity="0.2" stroke-width="0.415942"/>
<line x1="288.951" y1="153.015" x2="288.951" y2="172.015" stroke="#3858E9"/>
<path opacity="0.5" d="M68.517 104.789H61.5944V103.967H64.6518V95.8746H64.5473L61.5665 97.7968V96.7382L64.6587 94.7394H65.5989V103.967H68.517V104.789Z" fill="white"/>
<path opacity="0.5" d="M61.7058 118.552C61.7058 116.845 62.9664 115.606 64.6935 115.606C66.4555 115.606 67.6674 116.734 67.6674 118.377C67.6674 119.401 67.2356 120.181 65.6686 121.985L63.1544 124.889V125.001H67.8345V125.864H61.7476V125.258L65.195 121.233C66.4277 119.777 66.7132 119.241 66.7132 118.391C66.7132 117.207 65.9123 116.441 64.6726 116.441C63.4469 116.441 62.646 117.27 62.646 118.552V118.593H61.7058V118.552Z" fill="white"/>
<path opacity="0.5" d="M63.5374 142.162V141.34H64.603C65.773 141.34 66.6157 140.518 66.6157 139.376C66.6157 138.262 65.8148 137.517 64.6309 137.517C63.4539 137.517 62.6739 138.227 62.5555 139.397H61.6013C61.7406 137.719 62.9176 136.681 64.6796 136.681C66.3859 136.681 67.6256 137.76 67.6256 139.258C67.6256 140.476 67.0057 141.34 65.9402 141.619V141.723C67.2634 141.911 68.0574 142.865 68.0574 144.258C68.0574 145.93 66.6575 147.148 64.7493 147.148C62.841 147.148 61.4969 146.034 61.4063 144.37H62.3187C62.444 145.547 63.3982 146.313 64.7214 146.313C66.1839 146.313 67.0893 145.533 67.0893 144.279C67.0893 142.984 66.1491 142.162 64.6657 142.162H63.5374Z" fill="white"/>
<path d="M66.0795 168.015V165.793H61.469V165.062L65.0139 157.965H65.9889L62.4719 164.909V164.978H66.0795V161.956H66.95V164.943H68.5449V165.793H66.9361V168.015H66.0795Z" fill="white"/>
<path opacity="0.5" d="M64.6657 189.292C62.8828 189.292 61.6083 188.171 61.4899 186.492H62.4022C62.5137 187.648 63.4817 188.456 64.7493 188.456C66.1282 188.456 67.0406 187.46 67.0406 185.97C67.0406 184.465 66.1143 183.442 64.7493 183.442C63.7812 183.442 62.9664 183.894 62.5555 184.653H61.671L62.1933 179.04H67.4445V179.897H62.9385L62.639 183.449H62.7435C63.2658 182.864 63.9623 182.571 64.8259 182.571C66.6854 182.571 67.9877 183.964 67.9877 185.949C67.9877 187.941 66.6436 189.292 64.6657 189.292Z" fill="white"/>
<path opacity="0.5" d="M68.0434 207.003C68.0434 208.974 66.6784 210.374 64.7562 210.374C62.8828 210.374 61.5038 208.974 61.5038 207.066C61.5038 205.91 61.8938 204.865 62.841 203.479L65.1393 200.115H66.2466L63.426 204.071C63.1196 204.517 63.1823 204.419 63.1405 204.503L63.231 204.573C63.5026 204.169 64.2687 203.834 64.9164 203.834C66.7202 203.834 68.0434 205.179 68.0434 207.003ZM64.7771 209.552C66.1143 209.552 67.1381 208.466 67.1381 207.059C67.1381 205.652 66.1143 204.566 64.7771 204.566C63.4399 204.566 62.4162 205.652 62.4162 207.059C62.4162 208.466 63.4399 209.552 64.7771 209.552Z" fill="white"/>
<path opacity="0.5" d="M62.4649 231.24L67.1102 222.124V222.047H61.5387V221.191H68.0852V222.082L63.4817 231.24H62.4649Z" fill="white"/>
<path opacity="0.5" d="M86.5977 105.479H85.7132C84.1392 105.479 83.6517 104.984 83.6517 103.368V101.801C83.6517 100.736 82.9762 100.025 81.3047 100.234V99.2941C82.9762 99.5031 83.6517 98.7927 83.6517 97.7271V96.1601C83.6517 94.5444 84.1392 94.0499 85.7132 94.0499H86.5977V94.7394H85.8037C84.7382 94.7394 84.5292 94.9901 84.5292 96.2298V98.0545C84.5292 99.0364 83.784 99.6981 82.3145 99.712V99.8165C83.784 99.8304 84.5292 100.492 84.5292 101.474V103.299C84.5292 104.538 84.7382 104.789 85.8037 104.789H86.5977V105.479Z" fill="white"/>
<path opacity="0.5" d="M101.142 120.153H100.097V115.815H101.142V120.153ZM103.649 120.153H102.59V115.815H103.649V120.153ZM107.723 125.864V118.364H108.594V119.715H108.684C109.095 118.768 109.973 118.238 111.136 118.238C112.772 118.238 113.657 119.206 113.657 120.989V125.864H112.744V121.219C112.744 119.749 112.152 119.06 110.892 119.06C109.548 119.06 108.635 120.014 108.635 121.407V125.864H107.723ZM118.845 125.997C117.404 125.997 116.45 125.105 116.45 123.747C116.45 122.431 117.39 121.644 119.047 121.567L121.22 121.47V120.759C121.22 119.68 120.6 119.095 119.451 119.095C118.504 119.095 117.849 119.499 117.64 120.223H116.735C116.874 119.102 118.003 118.301 119.451 118.301C121.151 118.301 122.139 119.192 122.139 120.718V125.871H121.262V124.687H121.164C120.809 125.53 119.98 125.997 118.845 125.997ZM119.068 125.189C120.28 125.189 121.22 124.353 121.22 123.273V122.229L119.11 122.319C117.989 122.368 117.39 122.87 117.39 123.747C117.39 124.639 118.03 125.189 119.068 125.189ZM131.876 120.481V125.864H131.019V120.69C131.019 119.61 130.657 119.06 129.954 119.06C129.215 119.06 128.77 119.729 128.77 120.843V125.864H127.913V120.683C127.913 119.61 127.551 119.06 126.84 119.06C126.088 119.06 125.629 119.736 125.629 120.843V125.864H124.772V118.364H125.601V119.366H125.698C125.893 118.67 126.443 118.238 127.133 118.238C127.85 118.238 128.359 118.656 128.519 119.366H128.616C128.818 118.684 129.452 118.238 130.225 118.238C131.319 118.238 131.876 118.997 131.876 120.481ZM139.321 124.012H140.226C139.975 125.21 138.833 125.99 137.322 125.99C135.302 125.99 134.132 124.743 134.132 122.605V121.511C134.132 119.534 135.358 118.238 137.217 118.238C139.154 118.238 140.261 119.52 140.261 121.762V122.354H135.045V122.612C135.045 124.179 135.929 125.175 137.322 125.175C138.346 125.175 139.091 124.743 139.321 124.012ZM137.217 119.046C135.859 119.046 135.045 120 135.045 121.602H139.335C139.335 120.007 138.541 119.046 137.217 119.046ZM145.227 120.153H144.182V115.815H145.227V120.153ZM147.734 120.153H146.675V115.815H147.734V120.153ZM154.775 120.481C154.141 120.481 153.619 119.958 153.619 119.325C153.619 118.691 154.141 118.169 154.775 118.169C155.409 118.169 155.931 118.691 155.931 119.325C155.931 119.958 155.409 120.481 154.775 120.481ZM154.775 125.864C154.141 125.864 153.619 125.342 153.619 124.708C153.619 124.074 154.141 123.552 154.775 123.552C155.409 123.552 155.931 124.074 155.931 124.708C155.931 125.342 155.409 125.864 154.775 125.864ZM171.677 120.153H170.633V115.815H171.677V120.153ZM174.185 120.153H173.126V115.815H174.185V120.153ZM185.237 118.364L183.58 125.864H182.639L181.274 119.638H181.184L179.812 125.864H178.872L177.214 118.364H178.12L179.31 124.729H179.394L180.759 118.364H181.692L183.057 124.729H183.141L184.332 118.364H185.237ZM190.043 125.99C188.107 125.99 186.867 124.694 186.867 122.675V121.56C186.867 119.541 188.107 118.245 190.043 118.245C191.979 118.245 193.218 119.541 193.218 121.56V122.675C193.218 124.694 191.979 125.99 190.043 125.99ZM190.043 119.06C188.65 119.06 187.779 120.056 187.779 121.679V122.556C187.779 124.179 188.65 125.175 190.043 125.175C191.436 125.175 192.306 124.179 192.306 122.556V121.679C192.306 120.056 191.436 119.06 190.043 119.06ZM198.504 122.493V125.126H200.886V125.864H196.046V125.126H197.592V119.102H195.893V118.364H198.484V120.272H198.581C198.839 118.935 199.828 118.176 201.29 118.176C201.722 118.176 202.147 118.238 202.384 118.343V119.339C202.035 119.213 201.555 119.13 201.151 119.13C199.535 119.13 198.504 120.439 198.504 122.493ZM207.342 125.99C205.601 125.99 204.417 124.708 204.417 122.835V121.393C204.417 119.52 205.601 118.238 207.342 118.238C208.429 118.238 209.251 118.684 209.606 119.471H209.731V115.376H210.643V125.864H209.773V124.785H209.648C209.209 125.572 208.408 125.99 207.342 125.99ZM207.544 125.175C208.881 125.175 209.752 124.172 209.752 122.619V121.616C209.752 120.063 208.881 119.06 207.544 119.06C206.2 119.06 205.33 120.07 205.33 121.616V122.619C205.33 124.165 206.2 125.175 207.544 125.175ZM216.828 118.238C218.569 118.238 219.753 119.52 219.753 121.393V122.835C219.753 124.708 218.569 125.99 216.828 125.99C215.741 125.99 214.92 125.544 214.564 124.757H214.439V128.406H213.527V118.364H214.397V119.443H214.523C214.961 118.656 215.762 118.238 216.828 118.238ZM216.626 119.06C215.289 119.06 214.418 120.063 214.418 121.616V122.619C214.418 124.172 215.289 125.175 216.626 125.175C217.97 125.175 218.841 124.165 218.841 122.619V121.616C218.841 120.07 217.97 119.06 216.626 119.06ZM224.955 122.493V125.126H227.337V125.864H222.497V125.126H224.043V119.102H222.344V118.364H224.934V120.272H225.032C225.29 118.935 226.279 118.176 227.741 118.176C228.173 118.176 228.598 118.238 228.835 118.343V119.339C228.486 119.213 228.006 119.13 227.602 119.13C225.986 119.13 224.955 120.439 224.955 122.493ZM236.307 124.012H237.213C236.962 125.21 235.82 125.99 234.309 125.99C232.289 125.99 231.119 124.743 231.119 122.605V121.511C231.119 119.534 232.345 118.238 234.204 118.238C236.14 118.238 237.248 119.52 237.248 121.762V122.354H232.031V122.612C232.031 124.179 232.916 125.175 234.309 125.175C235.332 125.175 236.078 124.743 236.307 124.012ZM234.204 119.046C232.846 119.046 232.031 120 232.031 121.602H236.321C236.321 120.007 235.527 119.046 234.204 119.046ZM240.326 120.314C240.326 119.081 241.405 118.238 242.986 118.238C244.456 118.238 245.493 118.997 245.654 120.181H244.755C244.595 119.45 243.913 118.997 242.958 118.997C241.914 118.997 241.245 119.499 241.245 120.279C241.245 120.933 241.656 121.296 242.68 121.532L243.697 121.769C245.138 122.11 245.793 122.744 245.793 123.803C245.793 125.126 244.672 125.99 242.965 125.99C241.343 125.99 240.235 125.217 240.096 123.984H241.043C241.238 124.757 241.963 125.21 243.007 125.21C244.128 125.21 244.846 124.68 244.846 123.859C244.846 123.176 244.449 122.814 243.425 122.57L242.318 122.305C240.981 121.992 240.326 121.337 240.326 120.314ZM249.143 120.314C249.143 119.081 250.222 118.238 251.803 118.238C253.273 118.238 254.31 118.997 254.471 120.181H253.572C253.412 119.45 252.73 118.997 251.775 118.997C250.731 118.997 250.062 119.499 250.062 120.279C250.062 120.933 250.473 121.296 251.497 121.532L252.514 121.769C253.955 122.11 254.61 122.744 254.61 123.803C254.61 125.126 253.489 125.99 251.782 125.99C250.16 125.99 249.052 125.217 248.913 123.984H249.86C250.055 124.757 250.779 125.21 251.824 125.21C252.945 125.21 253.663 124.68 253.663 123.859C253.663 123.176 253.266 122.814 252.242 122.57L251.135 122.305C249.798 121.992 249.143 121.337 249.143 120.314ZM260.578 125.864C259.945 125.864 259.422 125.342 259.422 124.708C259.422 124.074 259.945 123.552 260.578 123.552C261.212 123.552 261.735 124.074 261.735 124.708C261.735 125.342 261.212 125.864 260.578 125.864ZM272.418 120.571H271.513C271.359 119.68 270.531 119.06 269.507 119.06C268.079 119.06 267.285 120.014 267.285 121.734V122.493C267.285 124.214 268.079 125.168 269.507 125.168C270.531 125.168 271.359 124.548 271.513 123.657H272.418C272.223 125.063 271.081 125.99 269.528 125.99C267.557 125.99 266.373 124.736 266.373 122.647V121.581C266.373 119.492 267.557 118.238 269.528 118.238C271.081 118.238 272.223 119.164 272.418 120.571ZM278.212 125.99C276.276 125.99 275.037 124.694 275.037 122.675V121.56C275.037 119.541 276.276 118.245 278.212 118.245C280.149 118.245 281.388 119.541 281.388 121.56V122.675C281.388 124.694 280.149 125.99 278.212 125.99ZM278.212 119.06C276.82 119.06 275.949 120.056 275.949 121.679V122.556C275.949 124.179 276.82 125.175 278.212 125.175C279.605 125.175 280.476 124.179 280.476 122.556V121.679C280.476 120.056 279.605 119.06 278.212 119.06ZM290.581 120.481V125.864H289.725V120.69C289.725 119.61 289.362 119.06 288.659 119.06C287.921 119.06 287.475 119.729 287.475 120.843V125.864H286.618V120.683C286.618 119.61 286.256 119.06 285.546 119.06C284.794 119.06 284.334 119.736 284.334 120.843V125.864H283.478V118.364H284.306V119.366H284.404C284.599 118.67 285.149 118.238 285.838 118.238C286.556 118.238 287.064 118.656 287.224 119.366H287.322C287.524 118.684 288.158 118.238 288.931 118.238C290.024 118.238 290.581 118.997 290.581 120.481ZM295.115 120.153H294.07V115.815H295.115V120.153ZM297.622 120.153H296.564V115.815H297.622V120.153ZM303.981 128.128H303.062L303.967 123.726H305.304L303.981 128.128Z" fill="white"/>
<path opacity="0.5" d="M100.952 141.229H99.9074V136.89H100.952V141.229ZM103.459 141.229H102.401V136.89H103.459V141.229ZM113.523 141.646H112.617C112.464 140.755 111.635 140.135 110.612 140.135C109.184 140.135 108.39 141.089 108.39 142.81V143.569C108.39 145.289 109.184 146.243 110.612 146.243C111.635 146.243 112.464 145.623 112.617 144.732H113.523C113.328 146.139 112.186 147.065 110.633 147.065C108.662 147.065 107.478 145.811 107.478 143.722V142.656C107.478 140.567 108.662 139.313 110.633 139.313C112.186 139.313 113.328 140.24 113.523 141.646ZM119.317 147.065C117.381 147.065 116.141 145.769 116.141 143.75V142.635C116.141 140.616 117.381 139.32 119.317 139.32C121.253 139.32 122.493 140.616 122.493 142.635V143.75C122.493 145.769 121.253 147.065 119.317 147.065ZM119.317 140.135C117.924 140.135 117.054 141.131 117.054 142.754V143.631C117.054 145.254 117.924 146.25 119.317 146.25C120.71 146.25 121.581 145.254 121.581 143.631V142.754C121.581 141.131 120.71 140.135 119.317 140.135ZM125.167 146.939V139.439H126.038V140.79H126.128C126.539 139.843 127.417 139.313 128.58 139.313C130.217 139.313 131.101 140.281 131.101 142.064V146.939H130.189V142.294C130.189 140.825 129.597 140.135 128.336 140.135C126.992 140.135 126.08 141.089 126.08 142.482V146.939H125.167ZM135.913 146.939V140.212H133.894V139.439H135.913V138.575C135.913 137.245 136.847 136.542 138.63 136.542C139.159 136.542 139.946 136.59 140.245 136.639V137.405C139.848 137.356 139.138 137.322 138.63 137.322C137.446 137.322 136.826 137.76 136.826 138.603V139.439H140.245V140.212H136.826V146.939H135.913ZM145.907 137.454C145.434 137.454 145.044 137.064 145.044 136.59C145.044 136.117 145.434 135.727 145.907 135.727C146.381 135.727 146.771 136.117 146.771 136.59C146.771 137.064 146.381 137.454 145.907 137.454ZM149.034 146.939H142.913V146.201H145.552V140.177H142.899V139.439H146.465V146.201H149.034V146.939ZM154.362 149.753C152.705 149.753 151.583 149.015 151.416 147.817H152.329C152.496 148.499 153.311 148.952 154.376 148.952C155.783 148.952 156.57 148.214 156.57 146.891V145.86H156.445C156.082 146.626 155.261 147.065 154.181 147.065C152.44 147.065 151.256 145.783 151.256 143.91V142.468C151.256 140.595 152.44 139.313 154.181 139.313C155.268 139.313 156.089 139.759 156.445 140.546H156.57V139.439H157.482V146.939C157.482 148.715 156.333 149.753 154.362 149.753ZM152.168 143.694C152.168 145.24 153.039 146.25 154.383 146.25C155.72 146.25 156.591 145.247 156.591 143.694V142.691C156.591 141.138 155.72 140.135 154.383 140.135C153.039 140.135 152.168 141.145 152.168 142.691V143.694ZM162.671 141.229H161.626V136.89H162.671V141.229ZM165.178 141.229H164.119V136.89H165.178V141.229ZM172.219 141.556C171.585 141.556 171.063 141.034 171.063 140.4C171.063 139.766 171.585 139.244 172.219 139.244C172.853 139.244 173.375 139.766 173.375 140.4C173.375 141.034 172.853 141.556 172.219 141.556ZM172.219 146.939C171.585 146.939 171.063 146.417 171.063 145.783C171.063 145.15 171.585 144.627 172.219 144.627C172.853 144.627 173.375 145.15 173.375 145.783C173.375 146.417 172.853 146.939 172.219 146.939ZM192.499 147.629H191.615C190.041 147.629 189.554 147.134 189.554 145.519V143.952C189.554 142.886 188.878 142.176 187.207 142.385V141.445C188.878 141.653 189.554 140.943 189.554 139.878V138.311C189.554 136.695 190.041 136.2 191.615 136.2H192.499V136.89H191.706C190.64 136.89 190.431 137.14 190.431 138.38V140.205C190.431 141.187 189.686 141.848 188.216 141.862V141.967C189.686 141.981 190.431 142.642 190.431 143.624V145.449C190.431 146.689 190.64 146.939 191.706 146.939H192.499V147.629Z" fill="white"/>
<path d="M118.41 162.304H117.365V157.965H118.41V162.304ZM120.917 162.304H119.858V157.965H120.917V162.304ZM127.296 168.147C125.855 168.147 124.9 167.256 124.9 165.897C124.9 164.581 125.841 163.794 127.498 163.718L129.671 163.62V162.91C129.671 161.83 129.051 161.245 127.902 161.245C126.955 161.245 126.3 161.649 126.091 162.373H125.186C125.325 161.252 126.454 160.451 127.902 160.451C129.601 160.451 130.59 161.343 130.59 162.868V168.022H129.713V166.838H129.615C129.26 167.68 128.431 168.147 127.296 168.147ZM127.519 167.339C128.731 167.339 129.671 166.503 129.671 165.424V164.379L127.561 164.47C126.44 164.519 125.841 165.02 125.841 165.897C125.841 166.789 126.481 167.339 127.519 167.339ZM140.041 168.015H133.919V167.276H136.559V158.264H133.905V157.526H137.471V167.276H140.041V168.015ZM148.858 168.015H142.736V167.276H145.376V158.264H142.722V157.526H146.288V167.276H148.858V168.015ZM154.409 168.14C152.473 168.14 151.233 166.845 151.233 164.825V163.711C151.233 161.691 152.473 160.396 154.409 160.396C156.345 160.396 157.585 161.691 157.585 163.711V164.825C157.585 166.845 156.345 168.14 154.409 168.14ZM154.409 161.21C153.016 161.21 152.145 162.206 152.145 163.829V164.707C152.145 166.329 153.016 167.325 154.409 167.325C155.802 167.325 156.672 166.329 156.672 164.707V163.829C156.672 162.206 155.802 161.21 154.409 161.21ZM167.237 160.514L165.58 168.015H164.639L163.274 161.788H163.184L161.812 168.015H160.872L159.214 160.514H160.12L161.31 166.879H161.394L162.759 160.514H163.692L165.057 166.879H165.141L166.332 160.514H167.237ZM175.727 163.968H168.359V163.16H175.727V163.968ZM181.194 160.389C182.935 160.389 184.119 161.67 184.119 163.543V164.985C184.119 166.859 182.935 168.14 181.194 168.14C180.107 168.14 179.286 167.694 178.931 166.907H178.805V170.557H177.893V160.514H178.763V161.593H178.889C179.327 160.806 180.128 160.389 181.194 160.389ZM180.992 161.21C179.655 161.21 178.784 162.213 178.784 163.766V164.769C178.784 166.322 179.655 167.325 180.992 167.325C182.336 167.325 183.207 166.315 183.207 164.769V163.766C183.207 162.22 182.336 161.21 180.992 161.21ZM192.943 168.015H186.821V167.276H189.461V158.264H186.807V157.526H190.373V167.276H192.943V168.015ZM201.46 160.514V168.015H200.59V166.664H200.499C200.088 167.611 199.211 168.14 198.048 168.14C196.411 168.14 195.527 167.172 195.527 165.389V160.514H196.439V165.159C196.439 166.629 197.031 167.318 198.292 167.318C199.636 167.318 200.548 166.364 200.548 164.971V160.514H201.46ZM207.088 170.828C205.43 170.828 204.309 170.09 204.142 168.892H205.054C205.221 169.575 206.036 170.027 207.102 170.027C208.508 170.027 209.295 169.289 209.295 167.966V166.935H209.17C208.808 167.701 207.986 168.14 206.907 168.14C205.166 168.14 203.982 166.859 203.982 164.985V163.543C203.982 161.67 205.166 160.389 206.907 160.389C207.993 160.389 208.815 160.834 209.17 161.621H209.295V160.514H210.208V168.015C210.208 169.791 209.059 170.828 207.088 170.828ZM204.894 164.769C204.894 166.315 205.764 167.325 207.109 167.325C208.446 167.325 209.316 166.322 209.316 164.769V163.766C209.316 162.213 208.446 161.21 207.109 161.21C205.764 161.21 204.894 162.22 204.894 163.766V164.769ZM216.267 158.529C215.793 158.529 215.403 158.139 215.403 157.666C215.403 157.192 215.793 156.802 216.267 156.802C216.74 156.802 217.13 157.192 217.13 157.666C217.13 158.139 216.74 158.529 216.267 158.529ZM219.394 168.015H213.272V167.276H215.912V161.252H213.258V160.514H216.824V167.276H219.394V168.015ZM221.978 168.015V160.514H222.848V161.865H222.939C223.35 160.918 224.227 160.389 225.39 160.389C227.027 160.389 227.911 161.357 227.911 163.14V168.015H226.999V163.369C226.999 161.9 226.407 161.21 225.146 161.21C223.802 161.21 222.89 162.165 222.89 163.557V168.015H221.978ZM231.143 162.464C231.143 161.231 232.222 160.389 233.803 160.389C235.273 160.389 236.31 161.148 236.471 162.332H235.572C235.412 161.6 234.73 161.148 233.775 161.148C232.731 161.148 232.062 161.649 232.062 162.429C232.062 163.084 232.473 163.446 233.497 163.683L234.514 163.92C235.955 164.261 236.61 164.895 236.61 165.953C236.61 167.276 235.489 168.14 233.782 168.14C232.16 168.14 231.052 167.367 230.913 166.134H231.86C232.055 166.907 232.779 167.36 233.824 167.36C234.945 167.36 235.663 166.831 235.663 166.009C235.663 165.326 235.266 164.964 234.242 164.72L233.135 164.456C231.798 164.142 231.143 163.488 231.143 162.464ZM241.847 162.304H240.803V157.965H241.847V162.304ZM244.354 162.304H243.296V157.965H244.354V162.304ZM251.395 162.631C250.762 162.631 250.239 162.109 250.239 161.475C250.239 160.841 250.762 160.319 251.395 160.319C252.029 160.319 252.552 160.841 252.552 161.475C252.552 162.109 252.029 162.631 251.395 162.631ZM251.395 168.015C250.762 168.015 250.239 167.492 250.239 166.859C250.239 166.225 250.762 165.702 251.395 165.702C252.029 165.702 252.552 166.225 252.552 166.859C252.552 167.492 252.029 168.015 251.395 168.015ZM271.676 168.704H270.791C269.217 168.704 268.73 168.21 268.73 166.594V165.027C268.73 163.961 268.054 163.251 266.383 163.46V162.52C268.054 162.729 268.73 162.018 268.73 160.953V159.386C268.73 157.77 269.217 157.275 270.791 157.275H271.676V157.965H270.882C269.816 157.965 269.607 158.216 269.607 159.455V161.28C269.607 162.262 268.862 162.924 267.393 162.938V163.042C268.862 163.056 269.607 163.718 269.607 164.7V166.524C269.607 167.764 269.816 168.015 270.882 168.015H271.676V168.704Z" fill="white"/>
<path opacity="0.5" d="M118.642 183.379H117.597V179.04H118.642V183.379ZM121.149 183.379H120.09V179.04H121.149V183.379ZM131.213 183.797H130.307C130.154 182.905 129.325 182.286 128.301 182.286C126.874 182.286 126.08 183.24 126.08 184.96V185.719C126.08 187.439 126.874 188.393 128.301 188.393C129.325 188.393 130.154 187.774 130.307 186.882H131.213C131.017 188.289 129.875 189.215 128.322 189.215C126.351 189.215 125.167 187.962 125.167 185.872V184.807C125.167 182.717 126.351 181.464 128.322 181.464C129.875 181.464 131.017 182.39 131.213 183.797ZM137.007 189.215C135.071 189.215 133.831 187.92 133.831 185.9V184.786C133.831 182.766 135.071 181.471 137.007 181.471C138.943 181.471 140.183 182.766 140.183 184.786V185.9C140.183 187.92 138.943 189.215 137.007 189.215ZM137.007 182.286C135.614 182.286 134.743 183.282 134.743 184.904V185.782C134.743 187.404 135.614 188.4 137.007 188.4C138.4 188.4 139.27 187.404 139.27 185.782V184.904C139.27 183.282 138.4 182.286 137.007 182.286ZM149.376 183.706V189.09H148.519V183.915C148.519 182.836 148.157 182.286 147.454 182.286C146.715 182.286 146.27 182.954 146.27 184.068V189.09H145.413V183.908C145.413 182.836 145.051 182.286 144.34 182.286C143.588 182.286 143.129 182.961 143.129 184.068V189.09H142.272V181.589H143.101V182.592H143.198C143.393 181.896 143.943 181.464 144.633 181.464C145.35 181.464 145.859 181.882 146.019 182.592H146.116C146.318 181.91 146.952 181.464 147.725 181.464C148.819 181.464 149.376 182.223 149.376 183.706ZM154.975 181.464C156.716 181.464 157.9 182.745 157.9 184.619V186.06C157.9 187.934 156.716 189.215 154.975 189.215C153.889 189.215 153.067 188.769 152.712 187.982H152.586V191.632H151.674V181.589H152.545V182.669H152.67C153.109 181.882 153.91 181.464 154.975 181.464ZM154.773 182.286C153.436 182.286 152.565 183.288 152.565 184.842V185.844C152.565 187.397 153.436 188.4 154.773 188.4C156.117 188.4 156.988 187.391 156.988 185.844V184.842C156.988 183.295 156.117 182.286 154.773 182.286ZM163.458 189.215C161.522 189.215 160.282 187.92 160.282 185.9V184.786C160.282 182.766 161.522 181.471 163.458 181.471C165.394 181.471 166.634 182.766 166.634 184.786V185.9C166.634 187.92 165.394 189.215 163.458 189.215ZM163.458 182.286C162.065 182.286 161.194 183.282 161.194 184.904V185.782C161.194 187.404 162.065 188.4 163.458 188.4C164.851 188.4 165.721 187.404 165.721 185.782V184.904C165.721 183.282 164.851 182.286 163.458 182.286ZM169.656 183.539C169.656 182.306 170.736 181.464 172.317 181.464C173.786 181.464 174.824 182.223 174.984 183.407H174.086C173.925 182.676 173.243 182.223 172.289 182.223C171.244 182.223 170.575 182.724 170.575 183.504C170.575 184.159 170.986 184.521 172.01 184.758L173.027 184.995C174.469 185.336 175.123 185.97 175.123 187.028C175.123 188.352 174.002 189.215 172.296 189.215C170.673 189.215 169.566 188.442 169.426 187.209H170.374C170.569 187.982 171.293 188.435 172.337 188.435C173.459 188.435 174.176 187.906 174.176 187.084C174.176 186.402 173.779 186.039 172.755 185.796L171.648 185.531C170.311 185.218 169.656 184.563 169.656 183.539ZM183.272 187.237H184.177C183.926 188.435 182.784 189.215 181.273 189.215C179.253 189.215 178.083 187.969 178.083 185.83V184.737C178.083 182.759 179.309 181.464 181.168 181.464C183.104 181.464 184.212 182.745 184.212 184.988V185.58H178.995V185.837C178.995 187.404 179.88 188.4 181.273 188.4C182.297 188.4 183.042 187.969 183.272 187.237ZM181.168 182.272C179.81 182.272 178.995 183.226 178.995 184.828H183.286C183.286 183.233 182.492 182.272 181.168 182.272ZM189.554 185.719V188.352H191.935V189.09H187.095V188.352H188.641V182.327H186.942V181.589H189.533V183.497H189.63C189.888 182.16 190.877 181.401 192.339 181.401C192.771 181.401 193.196 181.464 193.433 181.568V182.564C193.085 182.439 192.604 182.355 192.2 182.355C190.584 182.355 189.554 183.665 189.554 185.719ZM202.41 185.044H195.042V184.236H202.41V185.044ZM207.682 179.604C207.208 179.604 206.818 179.214 206.818 178.741C206.818 178.267 207.208 177.877 207.682 177.877C208.156 177.877 208.546 178.267 208.546 178.741C208.546 179.214 208.156 179.604 207.682 179.604ZM210.809 189.09H204.687V188.352H207.327V182.327H204.673V181.589H208.239V188.352H210.809V189.09ZM213.393 189.09V181.589H214.263V182.94H214.354C214.765 181.993 215.642 181.464 216.805 181.464C218.442 181.464 219.327 182.432 219.327 184.215V189.09H218.414V184.445C218.414 182.975 217.822 182.286 216.562 182.286C215.217 182.286 214.305 183.24 214.305 184.633V189.09H213.393ZM222.558 183.539C222.558 182.306 223.637 181.464 225.218 181.464C226.688 181.464 227.726 182.223 227.886 183.407H226.987C226.827 182.676 226.145 182.223 225.191 182.223C224.146 182.223 223.477 182.724 223.477 183.504C223.477 184.159 223.888 184.521 224.912 184.758L225.929 184.995C227.37 185.336 228.025 185.97 228.025 187.028C228.025 188.352 226.904 189.215 225.198 189.215C223.575 189.215 222.467 188.442 222.328 187.209H223.275C223.47 187.982 224.195 188.435 225.239 188.435C226.361 188.435 227.078 187.906 227.078 187.084C227.078 186.402 226.681 186.039 225.657 185.796L224.55 185.531C223.213 185.218 222.558 184.563 222.558 183.539ZM232.817 179.639H233.729V181.589H236.87V182.362H233.729V186.896C233.729 187.822 234.37 188.324 235.561 188.324C236.076 188.324 236.626 188.303 236.87 188.268V189.048C236.647 189.09 235.944 189.132 235.512 189.132C233.708 189.132 232.817 188.4 232.817 186.924V182.362H230.797V181.589H232.817V179.639ZM242.149 189.222C240.707 189.222 239.753 188.331 239.753 186.973C239.753 185.656 240.693 184.869 242.351 184.793L244.524 184.695V183.985C244.524 182.905 243.904 182.32 242.755 182.32C241.808 182.32 241.153 182.724 240.944 183.449H240.039C240.178 182.327 241.306 181.526 242.755 181.526C244.454 181.526 245.443 182.418 245.443 183.943V189.097H244.566V187.913H244.468C244.113 188.756 243.284 189.222 242.149 189.222ZM242.372 188.414C243.584 188.414 244.524 187.579 244.524 186.499V185.454L242.414 185.545C241.292 185.594 240.693 186.095 240.693 186.973C240.693 187.864 241.334 188.414 242.372 188.414ZM254.894 189.09H248.772V188.352H251.412V179.34H248.758V178.601H252.324V188.352H254.894V189.09ZM263.711 189.09H257.589V188.352H260.229V179.34H257.575V178.601H261.141V188.352H263.711V189.09ZM271.441 187.237H272.347C272.096 188.435 270.954 189.215 269.443 189.215C267.423 189.215 266.253 187.969 266.253 185.83V184.737C266.253 182.759 267.479 181.464 269.338 181.464C271.274 181.464 272.382 182.745 272.382 184.988V185.58H267.165V185.837C267.165 187.404 268.05 188.4 269.443 188.4C270.466 188.4 271.212 187.969 271.441 187.237ZM269.338 182.272C267.98 182.272 267.165 183.226 267.165 184.828H271.455C271.455 183.233 270.661 182.272 269.338 182.272ZM277.723 185.719V188.352H280.105V189.09H275.265V188.352H276.811V182.327H275.112V181.589H277.702V183.497H277.8C278.058 182.16 279.047 181.401 280.509 181.401C280.941 181.401 281.366 181.464 281.602 181.568V182.564C281.254 182.439 280.774 182.355 280.37 182.355C278.754 182.355 277.723 183.665 277.723 185.719ZM286.164 183.379H285.119V179.04H286.164V183.379ZM288.671 183.379H287.613V179.04H288.671V183.379ZM295.712 183.706C295.079 183.706 294.556 183.184 294.556 182.55C294.556 181.916 295.079 181.394 295.712 181.394C296.346 181.394 296.869 181.916 296.869 182.55C296.869 183.184 296.346 183.706 295.712 183.706ZM295.712 189.09C295.079 189.09 294.556 188.568 294.556 187.934C294.556 187.3 295.079 186.778 295.712 186.778C296.346 186.778 296.869 187.3 296.869 187.934C296.869 188.568 296.346 189.09 295.712 189.09ZM312.169 179.639H313.082V181.589H316.223V182.362H313.082V186.896C313.082 187.822 313.722 188.324 314.913 188.324C315.429 188.324 315.979 188.303 316.223 188.268V189.048C316 189.09 315.296 189.132 314.865 189.132C313.061 189.132 312.169 188.4 312.169 186.924V182.362H310.15V181.589H312.169V179.639ZM321.808 185.719V188.352H324.19V189.09H319.35V188.352H320.896V182.327H319.196V181.589H321.787V183.497H321.885C322.142 182.16 323.131 181.401 324.594 181.401C325.026 181.401 325.451 181.464 325.687 181.568V182.564C325.339 182.439 324.859 182.355 324.455 182.355C322.839 182.355 321.808 183.665 321.808 185.719ZM333.947 181.589V189.09H333.077V187.739H332.986C332.575 188.686 331.698 189.215 330.535 189.215C328.898 189.215 328.013 188.247 328.013 186.464V181.589H328.926V186.234C328.926 187.704 329.518 188.393 330.778 188.393C332.122 188.393 333.035 187.439 333.035 186.046V181.589H333.947ZM341.977 187.237H342.883C342.632 188.435 341.49 189.215 339.978 189.215C337.959 189.215 336.789 187.969 336.789 185.83V184.737C336.789 182.759 338.014 181.464 339.874 181.464C341.81 181.464 342.917 182.745 342.917 184.988V185.58H337.701V185.837C337.701 187.404 338.585 188.4 339.978 188.4C341.002 188.4 341.747 187.969 341.977 187.237ZM339.874 182.272C338.516 182.272 337.701 183.226 337.701 184.828H341.991C341.991 183.233 341.197 182.272 339.874 182.272Z" fill="white"/>
<path opacity="0.5" d="M99.2132 210.855V210.165H100.007C101.073 210.165 101.282 209.914 101.282 208.675V206.85C101.282 205.868 102.027 205.206 103.496 205.192V205.088C102.027 205.074 101.282 204.412 101.282 203.43V201.606C101.282 200.366 101.073 200.115 100.007 200.115H99.2132V199.426H100.098C101.672 199.426 102.159 199.92 102.159 201.536V203.103C102.159 204.169 102.835 204.879 104.506 204.67V205.61C102.835 205.401 102.159 206.112 102.159 207.177V208.744C102.159 210.36 101.672 210.855 100.098 210.855H99.2132ZM109.994 212.428H109.075L109.98 208.027H111.317L109.994 212.428Z" fill="white"/>
<path opacity="0.5" d="M100.91 225.529H99.8649V221.191H100.91V225.529ZM103.417 225.529H102.358V221.191H103.417V225.529ZM110.103 227.869V230.502H112.484V231.24H107.644V230.502H109.19V224.478H107.491V223.74H110.082V225.648H110.179C110.437 224.311 111.426 223.552 112.888 223.552C113.32 223.552 113.745 223.614 113.982 223.719V224.715C113.634 224.589 113.153 224.506 112.749 224.506C111.133 224.506 110.103 225.815 110.103 227.869ZM121.455 229.388H122.36C122.109 230.586 120.967 231.366 119.456 231.366C117.436 231.366 116.266 230.119 116.266 227.981V226.887C116.266 224.91 117.492 223.614 119.351 223.614C121.288 223.614 122.395 224.896 122.395 227.138V227.73H117.179V227.988C117.179 229.555 118.063 230.551 119.456 230.551C120.48 230.551 121.225 230.119 121.455 229.388ZM119.351 224.422C117.993 224.422 117.179 225.376 117.179 226.978H121.469C121.469 225.383 120.675 224.422 119.351 224.422ZM127.757 223.614C128.823 223.614 129.624 224.032 130.063 224.819H130.188V223.74H131.059V233.782H130.146V230.133H130.021C129.666 230.92 128.844 231.366 127.757 231.366C126.016 231.366 124.832 230.084 124.832 228.211V226.769C124.832 224.896 126.016 223.614 127.757 223.614ZM127.959 224.436C126.615 224.436 125.745 225.446 125.745 226.992V227.995C125.745 229.541 126.615 230.551 127.959 230.551C129.297 230.551 130.167 229.548 130.167 227.995V226.992C130.167 225.439 129.297 224.436 127.959 224.436ZM139.876 223.74V231.24H139.005V229.889H138.915C138.504 230.836 137.626 231.366 136.463 231.366C134.826 231.366 133.942 230.398 133.942 228.615V223.74H134.854V228.385C134.854 229.854 135.446 230.544 136.707 230.544C138.051 230.544 138.963 229.59 138.963 228.197V223.74H139.876ZM145.865 221.755C145.391 221.755 145.001 221.365 145.001 220.891C145.001 220.418 145.391 220.027 145.865 220.027C146.339 220.027 146.729 220.418 146.729 220.891C146.729 221.365 146.339 221.755 145.865 221.755ZM148.992 231.24H142.87V230.502H145.51V224.478H142.856V223.74H146.422V230.502H148.992V231.24ZM154.188 227.869V230.502H156.569V231.24H151.729V230.502H153.275V224.478H151.576V223.74H154.167V225.648H154.264C154.522 224.311 155.511 223.552 156.973 223.552C157.405 223.552 157.83 223.614 158.067 223.719V224.715C157.718 224.589 157.238 224.506 156.834 224.506C155.218 224.506 154.188 225.815 154.188 227.869ZM165.54 229.388H166.445C166.194 230.586 165.052 231.366 163.541 231.366C161.521 231.366 160.351 230.119 160.351 227.981V226.887C160.351 224.91 161.577 223.614 163.436 223.614C165.372 223.614 166.48 224.896 166.48 227.138V227.73H161.263V227.988C161.263 229.555 162.148 230.551 163.541 230.551C164.565 230.551 165.31 230.119 165.54 229.388ZM163.436 224.422C162.078 224.422 161.263 225.376 161.263 226.978H165.553C165.553 225.383 164.76 224.422 163.436 224.422ZM175.861 227.194H168.492V226.386H175.861V227.194ZM180.659 231.366C178.918 231.366 177.734 230.084 177.734 228.211V226.769C177.734 224.896 178.918 223.614 180.659 223.614C181.746 223.614 182.568 224.06 182.923 224.847H183.048V220.752H183.96V231.24H183.09V230.161H182.965C182.526 230.948 181.725 231.366 180.659 231.366ZM180.861 230.551C182.198 230.551 183.069 229.548 183.069 227.995V226.992C183.069 225.439 182.198 224.436 180.861 224.436C179.517 224.436 178.647 225.446 178.647 226.992V227.995C178.647 229.541 179.517 230.551 180.861 230.551ZM191.99 229.388H192.896C192.645 230.586 191.503 231.366 189.992 231.366C187.972 231.366 186.802 230.119 186.802 227.981V226.887C186.802 224.91 188.028 223.614 189.887 223.614C191.823 223.614 192.931 224.896 192.931 227.138V227.73H187.714V227.988C187.714 229.555 188.599 230.551 189.992 230.551C191.015 230.551 191.761 230.119 191.99 229.388ZM189.887 224.422C188.529 224.422 187.714 225.376 187.714 226.978H192.004C192.004 225.383 191.21 224.422 189.887 224.422ZM195.34 223.74H196.315L198.586 230.244H198.669L200.933 223.74H201.915L199.115 231.24H198.14L195.34 223.74ZM206.713 225.529H205.669V221.191H206.713V225.529ZM209.22 225.529H208.162V221.191H209.22V225.529ZM216.261 225.857C215.628 225.857 215.105 225.334 215.105 224.701C215.105 224.067 215.628 223.545 216.261 223.545C216.895 223.545 217.418 224.067 217.418 224.701C217.418 225.334 216.895 225.857 216.261 225.857ZM216.261 231.24C215.628 231.24 215.105 230.718 215.105 230.084C215.105 229.45 215.628 228.928 216.261 228.928C216.895 228.928 217.418 229.45 217.418 230.084C217.418 230.718 216.895 231.24 216.261 231.24ZM236.542 231.93H235.657C234.083 231.93 233.596 231.435 233.596 229.819V228.252C233.596 227.187 232.92 226.477 231.249 226.685V225.745C232.92 225.954 233.596 225.244 233.596 224.178V222.611C233.596 220.996 234.083 220.501 235.657 220.501H236.542V221.191H235.748C234.682 221.191 234.473 221.441 234.473 222.681V224.506C234.473 225.488 233.728 226.149 232.259 226.163V226.268C233.728 226.282 234.473 226.943 234.473 227.925V229.75C234.473 230.99 234.682 231.24 235.748 231.24H236.542V231.93Z" fill="white"/>
<rect opacity="0.1" x="54.8687" y="152.5" width="368" height="20" rx="2" fill="url(#paint0_linear_2212_48980)"/>
</g>
<rect x="-0.5" y="-0.5" width="417" height="241" stroke="#DDDDDD"/>
<defs>
<linearGradient id="paint0_linear_2212_48980" x1="148.869" y1="172.5" x2="422.869" y2="172.5" gradientUnits="userSpaceOnUse">
<stop stop-color="white" stop-opacity="0.54"/>
<stop offset="1" stop-color="white" stop-opacity="0"/>
</linearGradient>
<clipPath id="clip0_2212_48980">
<rect width="416" height="240" fill="white"/>
</clipPath>
</defs>
</svg>
