<svg width="260" height="150" viewBox="0 0 260 150" fill="none" xmlns="http://www.w3.org/2000/svg">
<ellipse cx="130" cy="74.8944" rx="63" ry="62.9115" fill="#BBE0FA"/>
<path d="M74.7914 38.1402L75.4593 36.8154C75.6078 36.5946 75.3109 36.3738 75.0883 36.4474L73.7525 37.1834L72.6394 36.153C72.4167 36.0058 72.1941 36.153 72.1941 36.3738L72.491 37.8458L71.2294 38.5817C71.0068 38.7289 71.081 39.0233 71.3036 39.0969L72.7136 39.2441L73.0104 40.7897C73.0846 41.0105 73.3815 41.0841 73.5299 40.8633L74.1978 39.3913L75.7562 39.6121C75.9788 39.6121 76.1272 39.3177 75.9788 39.1705L74.7914 38.1402Z" fill="#68DE86"/>
<path d="M195.685 27.3563L196.205 26.3995C196.279 26.2523 196.131 26.0315 195.908 26.1787L194.943 26.6939L194.127 25.9579C193.979 25.8107 193.756 25.9579 193.83 26.1051L194.053 27.2091L193.088 27.7243C192.94 27.7979 192.94 28.0923 193.162 28.0923L194.201 28.1659L194.424 29.3435C194.424 29.5643 194.721 29.5643 194.795 29.4171L195.24 28.3131L196.427 28.4603C196.65 28.4603 196.724 28.2395 196.576 28.0923L195.685 27.3563Z" fill="#F0C930"/>
<path d="M97.1131 150C97.7279 150 98.2263 149.506 98.2263 148.896C98.2263 148.286 97.7279 147.792 97.1131 147.792C96.4984 147.792 96 148.286 96 148.896C96 149.506 96.4984 150 97.1131 150Z" fill="#C475BD"/>
<path d="M157.113 133.024C157.728 133.024 158.226 132.53 158.226 131.92C158.226 131.31 157.728 130.816 157.113 130.816C156.498 130.816 156 131.31 156 131.92C156 132.53 156.498 133.024 157.113 133.024Z" fill="#1ED15A"/>
<path d="M161.113 2.20795C161.728 2.20795 162.226 1.71369 162.226 1.10398C162.226 0.494267 161.728 0 161.113 0C160.498 0 160 0.494267 160 1.10398C160 1.71369 160.498 2.20795 161.113 2.20795Z" fill="#C475BD"/>
<path d="M36.1131 97.0747C36.7279 97.0747 37.2263 96.5804 37.2263 95.9707C37.2263 95.361 36.7279 94.8667 36.1131 94.8667C35.4984 94.8667 35 95.361 35 95.9707C35 96.5804 35.4984 97.0747 36.1131 97.0747Z" fill="#F7A8C3"/>
<path d="M211.304 109.685L213.258 106.133C213.625 105.487 212.892 104.841 212.159 105.272L208.251 107.21L204.831 104.519C204.22 104.088 203.366 104.519 203.488 105.164L204.343 109.147L200.434 111.085C199.702 111.408 199.946 112.269 200.801 112.376L205.075 112.699L205.93 116.897C206.052 117.543 207.152 117.651 207.396 117.005L209.35 113.13L214.113 113.668C214.846 113.776 215.335 112.915 214.724 112.484L211.304 109.685Z" fill="white"/>
<path d="M34.3108 42.7723C35.2975 43.3482 36.9239 43.4519 37.5636 42.9797L45.1969 40.3885C46.3788 39.9508 46.8233 40.4922 46.086 41.4712L41.5644 47.8519C40.827 48.8309 40.5342 50.3512 40.9788 50.8926L42.9627 57.6881C43.3096 58.7363 42.6699 59.2085 41.6832 58.6325L35.2212 55.1424C34.2345 54.5665 32.6081 54.4628 31.9684 54.935L24.335 57.5263C23.1532 57.9639 22.7087 57.4226 23.446 56.4436L27.9676 50.0629C28.7049 49.0839 28.9978 47.5635 28.5532 47.0222L26.5693 40.2266C26.2224 39.1785 26.8621 38.7063 27.8487 39.2822L34.3108 42.7723Z" fill="#F0C930"/>
<path d="M60.9516 121.09L62.0489 119.368C62.1708 119.064 61.805 118.76 61.4393 118.861L59.3666 119.875L57.5378 118.456C57.294 118.253 56.8063 118.456 56.8063 118.76L57.294 120.786L55.2213 121.698C54.8556 121.901 54.9775 122.306 55.3433 122.306L57.6597 122.509L58.1474 124.637C58.2694 124.94 58.757 125.042 59.0009 124.738L59.9762 122.813L62.5366 123.117C62.9023 123.117 63.1462 122.711 62.9023 122.509L60.9516 121.09Z" fill="#D6B4E0"/>
<path d="M214.693 35.0775C213.88 34.6623 212.661 34.6623 212.255 35.0775L206.973 37.5688C206.16 37.984 205.754 37.5688 206.16 36.7383L208.598 31.3406C209.004 30.5101 209.004 29.2645 208.598 28.8493L206.16 23.0363C205.754 22.2059 206.16 21.7906 206.973 22.2059L212.255 24.6971C213.067 25.1124 214.286 25.1124 214.693 24.6971L219.975 22.2059C220.787 21.7906 221.194 22.2059 220.787 23.0363L218.35 28.4341C217.537 29.2645 217.537 30.5101 217.943 31.3406L220.381 36.7383C220.787 37.5688 220.381 37.984 219.568 37.5688L214.693 35.0775Z" fill="#D48FC8"/>
<path d="M82.0959 101.398H78" stroke="#2C3338"/>
<path d="M158.487 101.188H172.574" stroke="#2C3338"/>
<path d="M174.542 101.188H178.31" stroke="#2C3338"/>
<path d="M180.034 101.188L182 101.188" stroke="#2C3338"/>
<rect x="123.338" y="91.041" width="16.3809" height="7.21207" fill="#2D3338"/>
<path d="M91.3867 52C91.3867 46.7533 95.64 42.5 100.887 42.5H157.782C163.029 42.5 167.282 46.7533 167.282 52V101.11H91.3867V52Z" fill="#E9EFF5" stroke="#2C3338"/>
<path d="M90.8867 58.9106L167.36 58.9107" stroke="#2C3338"/>
<path d="M99.5768 51.1475C99.5768 51.9784 98.9037 52.6515 98.074 52.6515C97.2444 52.6515 96.5713 51.9784 96.5713 51.1475C96.5713 50.3166 97.2444 49.6436 98.074 49.6436C98.9037 49.6436 99.5768 50.3166 99.5768 51.1475Z" fill="white" stroke="#2C3338"/>
<path d="M105.806 51.1475C105.806 51.9784 105.133 52.6515 104.303 52.6515C103.474 52.6515 102.801 51.9784 102.801 51.1475C102.801 50.3166 103.474 49.6436 104.303 49.6436C105.133 49.6436 105.806 50.3166 105.806 51.1475Z" fill="white" stroke="#2C3338"/>
<path d="M112.035 51.1475C112.035 51.9784 111.362 52.6515 110.532 52.6515C109.703 52.6515 109.03 51.9784 109.03 51.1475C109.03 50.3166 109.703 49.6436 110.532 49.6436C111.362 49.6436 112.035 50.3166 112.035 51.1475Z" fill="white" stroke="#2C3338"/>
<path d="M101.116 101.398H83.916" stroke="#2C3338"/>
<path d="M91.3088 59.334H167.359V101.188H91.3088V59.334Z" fill="white"/>
<path d="M167.571 67.7891C174.753 73.7078 186.288 86.8557 174.965 92.098C160.811 98.6509 151.093 76.6671 137.362 76.8785" stroke="#2C3338"/>
<path d="M91.0973 71.5933C85.6048 74.6231 74.5868 84.042 81.8022 91.6746C89.1959 99.4957 100.604 87.2355 119.194 81.951" stroke="#2C3338"/>
<path d="M119.102 81.8218C118.156 78.754 121.161 77.1708 122.782 76.7627L125.485 82.6807C123.791 83.4367 120.049 84.8896 119.102 81.8218Z" stroke="#2C3338"/>
<path d="M137.512 76.7182C137.575 79.9282 134.249 80.6192 132.578 80.5634L131.615 74.1286C133.451 73.8702 137.449 73.5082 137.512 76.7182Z" stroke="#2C3338"/>
<path d="M128.7 76.2437L132.064 75.8208" stroke="#2C3338"/>
<line y1="-0.5" x2="3.30126" y2="-0.5" transform="matrix(-0.768026 -0.640419 0.63995 -0.768416 120.251 73.2847)" stroke="#2C3338"/>
<line y1="-0.5" x2="3.89837" y2="-0.5" transform="matrix(-0.216802 -0.976215 0.976159 -0.217059 125.742 70.3252)" stroke="#2C3338"/>
<line y1="-0.5" x2="1.74341" y2="-0.5" transform="matrix(-0.242394 -0.970178 0.970107 -0.242677 124.476 65.252)" stroke="#2C3338"/>
<path d="M130.907 70.2748L131.957 65.6755" stroke="#2C3338"/>
<line y1="-0.5" x2="4.16405" y2="-0.5" transform="matrix(-0.405928 0.913905 -0.913718 -0.406349 124.053 88.0815)" stroke="#2C3338"/>
<line y1="-0.5" x2="3.07831" y2="-0.5" transform="matrix(0.274564 0.961569 -0.961479 0.274879 130.39 87.2363)" stroke="#2C3338"/>
<line y1="-0.5" x2="1.33713" y2="-0.5" transform="matrix(0.316051 0.948742 -0.948624 0.316404 131.658 91.4634)" stroke="#2C3338"/>
<line y1="-0.5" x2="4.81839" y2="-0.5" transform="matrix(0.789168 0.614178 -0.613703 0.789537 135.461 84.2759)" stroke="#2C3338"/>
<path d="M129.335 79.415L132.26 78.9922" stroke="#2C3338"/>
</svg>
