<svg width="163" height="122" viewBox="0 0 163 122" fill="none" xmlns="http://www.w3.org/2000/svg">
<path d="M0.5 55.1541C0.5 55.4302 0.723858 55.6541 1 55.6541H161.01C161.286 55.6541 161.51 55.4302 161.51 55.1541V43.1952C161.51 41.4386 160.647 39.7816 159.161 38.5786C157.678 37.3779 155.686 36.7158 153.625 36.7158H8.38506C6.32398 36.7158 4.33136 37.3779 2.8484 38.5786C1.36259 39.7816 0.5 41.4386 0.5 43.1952V55.1541Z" fill="white" stroke="#2C3338" stroke-linecap="round" stroke-linejoin="round"/>
<path d="M161.009 43.1952V55.1541H9.96875L37.5937 37.2158H153.624C155.583 37.2158 157.461 37.8458 158.846 38.9672C160.231 40.0885 161.009 41.6094 161.009 43.1952Z" fill="#E9EFF5"/>
<path d="M10.6869 49.4138C12.4702 49.4138 13.9158 47.9682 13.9158 46.1849C13.9158 44.4017 12.4702 42.9561 10.6869 42.9561C8.90363 42.9561 7.45801 44.4017 7.45801 46.1849C7.45801 47.9682 8.90363 49.4138 10.6869 49.4138Z" fill="#FFABAF" stroke="#E65054" stroke-linecap="round" stroke-linejoin="round"/>
<path d="M22.8851 49.4138C24.6684 49.4138 26.114 47.9682 26.114 46.1849C26.114 44.4017 24.6684 42.9561 22.8851 42.9561C21.1019 42.9561 19.6562 44.4017 19.6562 46.1849C19.6562 47.9682 21.1019 49.4138 22.8851 49.4138Z" fill="#F2D76B" stroke="#C08C00" stroke-linecap="round" stroke-linejoin="round"/>
<path d="M35.0834 49.4138C36.8667 49.4138 38.3123 47.9682 38.3123 46.1849C38.3123 44.4017 36.8667 42.9561 35.0834 42.9561C33.3001 42.9561 31.8545 44.4017 31.8545 46.1849C31.8545 47.9682 33.3001 49.4138 35.0834 49.4138Z" fill="#68DE86" stroke="#00A32A" stroke-linecap="round" stroke-linejoin="round"/>
<rect x="0.5" y="55.3721" width="161.01" height="28.9837" fill="white" stroke="#2C3338"/>
<rect x="34.2246" y="60.3945" width="122.263" height="18.9383" fill="white" stroke="#72AEE6" stroke-linejoin="round"/>
<rect x="34.9414" y="61.1123" width="120.828" height="17.5032" fill="white" stroke="#135E96"/>
<rect x="41.1816" y="67.3521" width="73.9058" height="5.02274" fill="#2C3338"/>
<path d="M9.83038 64.4824L5.66406 68.7876M5.66406 68.7876L9.83038 73.0928M5.66406 68.7876H14.2744" stroke="#A7AAAD" stroke-width="2" stroke-linecap="round" stroke-linejoin="round"/>
<path d="M24.1003 64.4824L28.2666 68.7876M28.2666 68.7876L24.1003 73.0928M28.2666 68.7876H19.6562" stroke="#A7AAAD" stroke-width="2" stroke-linecap="round" stroke-linejoin="round"/>
</svg>
