<svg width="260" height="150" viewBox="0 0 260 150" fill="none" xmlns="http://www.w3.org/2000/svg">
<ellipse cx="130" cy="74.8946" rx="63" ry="62.9115" fill="#BBE0FA"/>
<path d="M61.7585 106.56H196.241" stroke="#2C3338" stroke-linecap="round" stroke-linejoin="round"/>
<path d="M54 106.56H58.3103" stroke="#2C3338" stroke-linecap="round" stroke-linejoin="round"/>
<path d="M199.69 106.56H204" stroke="#2C3338" stroke-linecap="round" stroke-linejoin="round"/>
<path d="M134.88 94.6967H122.984V101.846H134.88V94.6967Z" fill="white"/>
<path d="M134.88 94.6967H122.984V101.846H134.88V94.6967Z" stroke="#2C3338" stroke-linecap="round" stroke-linejoin="round"/>
<path d="M144.397 106.612H113.466C113.466 105.348 113.968 104.136 114.86 103.242C115.752 102.348 116.963 101.846 118.225 101.846H139.639C140.899 101.85 142.107 102.354 142.999 103.247C143.89 104.14 144.393 105.349 144.397 106.612Z" fill="white" stroke="#2C3338" stroke-linecap="round" stroke-linejoin="round"/>
<path d="M161.053 39.8868H96.8802C95.3026 39.8868 93.7896 40.5145 92.6741 41.6318C91.5586 42.7491 90.9319 44.2644 90.9319 45.8445V85.1647H167.001V45.8445C166.996 44.2658 166.368 42.7531 165.254 41.6368C164.139 40.5205 162.629 39.8914 161.053 39.8868Z" fill="#DCDCDE"/>
<path d="M161.053 39.8868H96.8802C95.3026 39.8868 93.7896 40.5145 92.6741 41.6318C91.5586 42.7491 90.9319 44.2644 90.9319 45.8445V85.1647H167.001V45.8445C166.996 44.2658 166.368 42.7531 165.254 41.6368C164.139 40.5205 162.629 39.8914 161.053 39.8868V39.8868Z" stroke="#2C3338" stroke-linecap="round" stroke-linejoin="round"/>
<path d="M161.053 94.6966C162.63 94.6966 164.143 94.0689 165.259 92.9516C166.374 91.8343 167.001 90.319 167.001 88.7389V85.1644H90.8631V88.7389C90.8607 89.5278 91.0152 90.3092 91.3176 91.0377C91.6201 91.7661 92.0643 92.4268 92.6244 92.9814C93.1846 93.536 93.8494 93.9733 94.5801 94.2678C95.3108 94.5623 96.0927 94.708 96.8803 94.6966H161.053Z" fill="white" stroke="#2C3338" stroke-linecap="round" stroke-linejoin="round"/>
<path d="M128.932 90.9147C129.475 90.9147 129.915 90.474 129.915 89.9304C129.915 89.3868 129.475 88.9461 128.932 88.9461C128.389 88.9461 127.949 89.3868 127.949 89.9304C127.949 90.474 128.389 90.9147 128.932 90.9147Z" stroke="#2C3338" stroke-linecap="round" stroke-linejoin="round"/>
<path d="M199.79 106.543H155.174C154.572 106.543 153.995 106.304 153.57 105.879C153.145 105.453 152.906 104.876 152.906 104.274V73.2702H202.059V104.274C202.059 104.876 201.82 105.453 201.394 105.879C200.969 106.304 200.392 106.543 199.79 106.543Z" fill="#E6F2E8" stroke="#2C3338"/>
<path d="M199.79 66.4644H155.174C154.573 66.4644 153.996 66.7034 153.57 67.1289C153.145 67.5543 152.906 68.1313 152.906 68.733V73.2702H202.059V68.733C202.059 68.1313 201.82 67.5543 201.394 67.1289C200.969 66.7034 200.392 66.4644 199.79 66.4644Z" fill="white" stroke="#2C3338" stroke-linecap="round" stroke-linejoin="round"/>
<path d="M156.308 71.0016C156.935 71.0016 157.443 70.4937 157.443 69.8673C157.443 69.2408 156.935 68.733 156.308 68.733C155.682 68.733 155.174 69.2408 155.174 69.8673C155.174 70.4937 155.682 71.0016 156.308 71.0016Z" fill="#FFABAF" stroke="#E65054" stroke-linecap="round" stroke-linejoin="round"/>
<path d="M160.089 71.0016C160.716 71.0016 161.224 70.4937 161.224 69.8673C161.224 69.2408 160.716 68.733 160.089 68.733C159.463 68.733 158.955 69.2408 158.955 69.8673C158.955 70.4937 159.463 71.0016 160.089 71.0016Z" fill="#F2D76B" stroke="#C08C00" stroke-linecap="round" stroke-linejoin="round"/>
<path d="M163.87 71.0016C164.497 71.0016 165.005 70.4937 165.005 69.8673C165.005 69.2408 164.497 68.733 163.87 68.733C163.244 68.733 162.736 69.2408 162.736 69.8673C162.736 70.4937 163.244 71.0016 163.87 71.0016Z" fill="#68DE86" stroke="#00A32A" stroke-linecap="round" stroke-linejoin="round"/>
<path d="M197.521 80.076C198.774 80.076 199.79 79.0603 199.79 77.8074C199.79 76.5545 198.774 75.5388 197.521 75.5388C196.268 75.5388 195.253 76.5545 195.253 77.8074C195.253 79.0603 196.268 80.076 197.521 80.076Z" fill="white" stroke="#8C8F94" stroke-linecap="round" stroke-linejoin="round"/>
<path d="M182.398 97.4888C183.602 97.4888 184.756 97.0108 185.607 96.1599C186.457 95.309 186.935 94.1549 186.935 92.9516V83.8772C186.938 82.6329 186.685 81.4013 186.192 80.2589C185.698 79.1166 184.975 78.0879 184.067 77.2369C183.16 76.3858 182.086 75.7306 180.915 75.3118C179.743 74.8931 178.498 74.7198 177.256 74.8028C174.92 75.0088 172.749 76.0907 171.178 77.8314C169.607 79.5721 168.753 81.8427 168.787 84.1872V92.9516C168.787 94.1549 169.265 95.309 170.116 96.1599C170.966 97.0108 172.12 97.4888 173.324 97.4888H182.398Z" fill="#1D2327" stroke="#101517" stroke-linecap="round" stroke-linejoin="round"/>
<path d="M185.307 98.961C187.385 100.901 188.766 103.21 189.203 106.165H166.517C166.954 103.21 168.335 100.901 170.413 98.961C172.492 97.0213 175.131 95.9561 177.86 95.9561C180.589 95.9561 183.229 97.0213 185.307 98.961Z" fill="#D6DAFF"/>
<path d="M189.203 105.787C188.766 102.832 187.385 100.901 185.307 98.961C183.229 97.0213 180.589 95.9561 177.86 95.9561C175.131 95.9561 172.492 97.0213 170.413 98.961C168.335 100.901 166.954 102.832 166.517 105.787" stroke="#4550E5" stroke-linecap="round" stroke-linejoin="round"/>
<path d="M183.153 98.0886C183.153 97.7087 183.078 97.3324 182.933 96.9814C182.787 96.6305 182.574 96.3117 182.305 96.0434C182.036 95.775 181.716 95.5624 181.365 95.4177C181.014 95.2729 180.637 95.199 180.257 95.2H175.463C175.083 95.199 174.706 95.2729 174.355 95.4177C174.004 95.5624 173.684 95.775 173.415 96.0434C173.146 96.3117 172.933 96.6305 172.787 96.9814C172.642 97.3324 172.567 97.7087 172.567 98.0886C172.567 98.4264 172.626 98.7615 172.741 99.0793L174.079 102.762L177.86 100.493L181.641 102.762L182.98 99.0793C183.094 98.7615 183.153 98.4264 183.153 98.0886Z" fill="#D6DAFF" stroke="#4550E5" stroke-linecap="round" stroke-linejoin="round"/>
<path d="M180.507 97.8468L177.86 100.493L175.213 97.8468V93.6877H180.507V97.8468Z" fill="#9B6726" stroke="#543100" stroke-linecap="round" stroke-linejoin="round"/>
<path d="M177.86 101.25V106.543" stroke="#4550E5" stroke-linecap="round" stroke-linejoin="round"/>
<path d="M185.423 86.5239V84.6334C185.423 84.4519 185.423 84.2855 185.423 84.1116C183.72 84.974 181.772 85.2245 179.907 84.8211C178.041 84.4176 176.371 83.3848 175.177 81.8959C175.02 82.8743 174.518 83.7642 173.762 84.4049C173.006 85.0456 172.046 85.3949 171.055 85.3896C170.801 85.3873 170.548 85.3619 170.299 85.314V86.5239C169.898 86.5239 169.513 86.6832 169.23 86.9669C168.946 87.2505 168.787 87.6352 168.787 88.0363C168.787 88.4374 168.946 88.8221 169.23 89.1057C169.513 89.3893 169.898 89.5487 170.299 89.5487H170.39C170.668 91.3302 171.574 92.9535 172.944 94.126C174.314 95.2984 176.058 95.9427 177.861 95.9427C179.664 95.9427 181.408 95.2984 182.778 94.126C184.148 92.9535 185.054 91.3302 185.332 89.5487H185.423C185.824 89.5487 186.209 89.3893 186.492 89.1057C186.776 88.8221 186.935 88.4374 186.935 88.0363C186.935 87.6352 186.776 87.2505 186.492 86.9669C186.209 86.6832 185.824 86.5239 185.423 86.5239Z" fill="#9B6726" stroke="#543100" stroke-linecap="round" stroke-linejoin="round"/>
<path d="M175.577 91.666C176.192 92.2434 177.003 92.5649 177.846 92.5649C178.689 92.5649 179.5 92.2434 180.115 91.666" stroke="black" stroke-linecap="round" stroke-linejoin="round"/>
<path d="M182.02 87.28C181.925 87.0575 181.767 86.8677 181.566 86.7343C181.364 86.6009 181.128 86.5298 180.886 86.5298C180.644 86.5298 180.407 86.6009 180.206 86.7343C180.004 86.8677 179.846 87.0575 179.751 87.28" stroke="#1F1200" stroke-linecap="round" stroke-linejoin="round"/>
<path d="M175.971 87.28C175.876 87.0575 175.718 86.8677 175.516 86.7343C175.315 86.6009 175.078 86.5298 174.836 86.5298C174.594 86.5298 174.358 86.6009 174.156 86.7343C173.955 86.8677 173.797 87.0575 173.702 87.28" stroke="#1F1200" stroke-linecap="round" stroke-linejoin="round"/>
<path d="M173.513 90.683C174.035 90.683 174.458 90.2598 174.458 89.7378C174.458 89.2157 174.035 88.7925 173.513 88.7925C172.991 88.7925 172.568 89.2157 172.568 89.7378C172.568 90.2598 172.991 90.683 173.513 90.683Z" fill="#BA8A4E"/>
<path d="M182.209 90.683C182.731 90.683 183.154 90.2598 183.154 89.7378C183.154 89.2157 182.731 88.7925 182.209 88.7925C181.687 88.7925 181.264 89.2157 181.264 89.7378C181.264 90.2598 181.687 90.683 182.209 90.683Z" fill="#BA8A4E"/>
<rect x="68.8518" y="106.558" width="7.12883" height="28.5154" rx="1" transform="rotate(-90 68.8518 106.558)" fill="#9D6E00" stroke="#361F00"/>
<rect x="71.228" y="99.429" width="5.9407" height="28.5154" rx="1" transform="rotate(-90 71.228 99.429)" fill="#3C434A" stroke="#101517"/>
<rect x="68.8518" y="93.4882" width="5.9407" height="28.5154" rx="1" transform="rotate(-90 68.8518 93.4882)" fill="white" stroke="#2C3338"/>
<rect x="72.4163" y="99.429" width="3.56442" height="7.12885" fill="#F2D76B" stroke="#361F00"/>
<rect x="74.7925" y="93.4882" width="2.37628" height="5.94072" fill="#A7AAAD" stroke="#101517"/>
<rect x="72.4163" y="87.5475" width="2.37628" height="5.9407" fill="#A7AAAD" stroke="#2C3338"/>
<rect x="90.2383" y="99.429" width="3.56443" height="7.12885" fill="#F2D76B" stroke="#361F00"/>
<rect x="93.8027" y="93.4882" width="2.37628" height="5.94072" fill="#A7AAAD" stroke="#101517"/>
<rect x="91.4265" y="87.5475" width="2.37628" height="5.9407" fill="#A7AAAD" stroke="#2C3338"/>
<path fill-rule="evenodd" clip-rule="evenodd" d="M131 104.742L131 119.93C131 120.427 130.552 120.829 130 120.829C129.447 120.829 129 120.427 129 119.93L129 104.742C129 104.245 129.447 103.843 130 103.843C130.552 103.843 131 104.245 131 104.742ZM130 39.9432C129.448 39.9432 129 39.5405 129 39.0438L129 6.89038C129 6.39365 129.448 5.99098 130 5.99098C130.552 5.99098 131 6.39365 131 6.89038L131 39.0438C131 39.5405 130.552 39.9432 130 39.9432Z" fill="#F0C930"/>
<path fill-rule="evenodd" clip-rule="evenodd" d="M160.781 104.607L176.39 119.841C176.78 120.222 176.78 120.839 176.39 121.219C176 121.6 175.368 121.6 174.978 121.219L159.369 105.985C158.979 105.604 158.979 104.987 159.369 104.607C159.759 104.226 160.391 104.226 160.781 104.607ZM96.7906 43.5284C96.4007 43.909 95.7684 43.909 95.3785 43.5284L82.146 30.6131C81.7561 30.2325 81.7561 29.6154 82.146 29.2348C82.536 28.8542 83.1682 28.8542 83.5581 29.2348L96.7906 42.1501C97.1806 42.5307 97.1806 43.1478 96.7906 43.5284ZM79.7619 26.9079C79.372 27.2885 78.7398 27.2885 78.3498 26.9079L74.6271 23.2744C74.2371 22.8938 74.2371 22.2767 74.6271 21.8961C75.017 21.5155 75.6493 21.5155 76.0392 21.8961L79.7619 25.5296C80.1519 25.9102 80.1519 26.5273 79.7619 26.9079ZM180.582 123.933L184.706 127.958C185.096 128.339 185.096 128.956 184.706 129.336C184.316 129.717 183.684 129.717 183.294 129.336L179.17 125.311C178.78 124.93 178.78 124.313 179.17 123.933C179.56 123.552 180.192 123.552 180.582 123.933Z" fill="#F0C930"/>
<path fill-rule="evenodd" clip-rule="evenodd" d="M83.6366 131.315C83.2122 130.973 83.1534 130.359 83.5051 129.943L87.6661 125.022C88.0179 124.606 88.6472 124.546 89.0716 124.888C89.496 125.23 89.5549 125.844 89.2031 126.26L85.0421 131.181C84.6903 131.597 84.061 131.657 83.6366 131.315ZM90.7392 122.916C90.3148 122.574 90.2559 121.96 90.6077 121.544L100.413 109.948C100.765 109.532 101.394 109.472 101.818 109.814C102.243 110.156 102.302 110.77 101.95 111.186L92.1446 122.782C91.7928 123.198 91.1636 123.258 90.7392 122.916ZM159.917 41.1061C159.493 40.7642 159.434 40.1498 159.786 39.7338L175.261 21.4327C175.613 21.0167 176.242 20.9566 176.666 21.2984C177.091 21.6403 177.15 22.2547 176.798 22.6708L161.323 40.9718C160.971 41.3879 160.342 41.448 159.917 41.1061Z" fill="#F0C930"/>
<path d="M74.7914 38.1402L75.4593 36.8154C75.6078 36.5946 75.3109 36.3738 75.0883 36.4474L73.7525 37.1834L72.6394 36.153C72.4167 36.0058 72.1941 36.153 72.1941 36.3738L72.491 37.8458L71.2294 38.5817C71.0068 38.7289 71.081 39.0233 71.3036 39.0969L72.7136 39.2441L73.0104 40.7897C73.0846 41.0105 73.3815 41.0841 73.5299 40.8633L74.1978 39.3913L75.7562 39.6121C75.9788 39.6121 76.1272 39.3177 75.9788 39.1705L74.7914 38.1402Z" fill="#68DE86"/>
<path d="M195.685 27.3565L196.205 26.3997C196.279 26.2525 196.131 26.0317 195.908 26.1789L194.943 26.6941L194.127 25.9581C193.979 25.8109 193.756 25.9581 193.83 26.1053L194.053 27.2093L193.088 27.7245C192.94 27.7981 192.94 28.0925 193.162 28.0925L194.201 28.1661L194.424 29.3437C194.424 29.5644 194.721 29.5644 194.795 29.4173L195.24 28.3133L196.427 28.4605C196.65 28.4605 196.724 28.2397 196.576 28.0925L195.685 27.3565Z" fill="#F0C930"/>
<path d="M97.1131 150C97.7279 150 98.2263 149.506 98.2263 148.896C98.2263 148.286 97.7279 147.792 97.1131 147.792C96.4984 147.792 96 148.286 96 148.896C96 149.506 96.4984 150 97.1131 150Z" fill="#C475BD"/>
<path d="M157.113 133.024C157.728 133.024 158.226 132.53 158.226 131.92C158.226 131.31 157.728 130.816 157.113 130.816C156.498 130.816 156 131.31 156 131.92C156 132.53 156.498 133.024 157.113 133.024Z" fill="#1ED15A"/>
<path d="M161.113 2.20795C161.728 2.20795 162.226 1.71369 162.226 1.10398C162.226 0.494267 161.728 0 161.113 0C160.498 0 160 0.494267 160 1.10398C160 1.71369 160.498 2.20795 161.113 2.20795Z" fill="#C475BD"/>
<path d="M36.1131 97.0745C36.7279 97.0745 37.2263 96.5802 37.2263 95.9705C37.2263 95.3608 36.7279 94.8665 36.1131 94.8665C35.4984 94.8665 35 95.3608 35 95.9705C35 96.5802 35.4984 97.0745 36.1131 97.0745Z" fill="#F7A8C3"/>
<path d="M211.304 109.686L213.258 106.133C213.625 105.487 212.892 104.842 212.159 105.272L208.251 107.21L204.831 104.519C204.22 104.088 203.366 104.519 203.488 105.165L204.343 109.147L200.434 111.085C199.702 111.408 199.946 112.269 200.801 112.377L205.075 112.7L205.93 116.898C206.052 117.543 207.152 117.651 207.396 117.005L209.35 113.13L214.113 113.668C214.846 113.776 215.335 112.915 214.724 112.484L211.304 109.686Z" fill="white"/>
<path d="M34.3108 42.7723C35.2975 43.3482 36.9239 43.4519 37.5636 42.9797L45.1969 40.3885C46.3788 39.9508 46.8233 40.4922 46.086 41.4712L41.5644 47.8519C40.827 48.8309 40.5342 50.3512 40.9788 50.8926L42.9627 57.6881C43.3096 58.7363 42.6699 59.2085 41.6832 58.6325L35.2212 55.1424C34.2345 54.5665 32.6081 54.4628 31.9684 54.935L24.335 57.5263C23.1532 57.9639 22.7087 57.4226 23.446 56.4436L27.9676 50.0629C28.7049 49.0839 28.9978 47.5635 28.5532 47.0222L26.5693 40.2266C26.2224 39.1785 26.8621 38.7063 27.8487 39.2822L34.3108 42.7723Z" fill="#F0C930"/>
<path d="M60.9516 121.09L62.0489 119.368C62.1708 119.064 61.805 118.76 61.4393 118.861L59.3666 119.874L57.5378 118.456C57.294 118.253 56.8063 118.456 56.8063 118.76L57.294 120.786L55.2213 121.698C54.8556 121.901 54.9775 122.306 55.3433 122.306L57.6597 122.509L58.1474 124.636C58.2694 124.94 58.757 125.042 59.0009 124.738L59.9762 122.813L62.5366 123.117C62.9023 123.117 63.1462 122.711 62.9023 122.509L60.9516 121.09Z" fill="#D6B4E0"/>
<path d="M214.693 35.0777C213.88 34.6625 212.661 34.6625 212.255 35.0777L206.973 37.569C206.16 37.9842 205.754 37.569 206.16 36.7386L208.598 31.3408C209.004 30.5104 209.004 29.2647 208.598 28.8495L206.16 23.0365C205.754 22.2061 206.16 21.7909 206.973 22.2061L212.255 24.6974C213.067 25.1126 214.286 25.1126 214.693 24.6974L219.975 22.2061C220.787 21.7909 221.194 22.2061 220.787 23.0365L218.35 28.4343C217.537 29.2647 217.537 30.5104 217.943 31.3408L220.381 36.7386C220.787 37.569 220.381 37.9842 219.568 37.569L214.693 35.0777Z" fill="#D48FC8"/>
</svg>
