<svg width="260" height="150" viewBox="0 0 260 150" fill="none" xmlns="http://www.w3.org/2000/svg">
	<ellipse cx="130" cy="74.8946" rx="63" ry="62.9115" fill="#BBE0FA"/>
	<path d="M55.5 66.6991C55.5 66.9752 55.7239 67.1991 56 67.1991H204.009C204.285 67.1991 204.509 66.9752 204.509 66.6991V55.9023C204.509 54.2949 203.7 52.7849 202.318 51.6928C200.939 50.6029 199.089 50.0039 197.178 50.0039H62.8312C60.92 50.0039 59.0699 50.6029 57.6908 51.6928C56.3088 52.7849 55.5 54.2949 55.5 55.9023V66.6991Z" fill="white" stroke="#2C3338" stroke-linecap="round" stroke-linejoin="round"/>
	<path d="M204.009 55.9023V66.6991H64.2964L89.8495 50.5039H197.178C198.989 50.5039 200.727 51.0727 202.008 52.0851C203.289 53.0975 204.009 54.4706 204.009 55.9023Z" fill="#E9EFF5"/>
	<path d="M64.9604 61.5158C66.6099 61.5158 67.9471 60.2107 67.9471 58.6007C67.9471 56.9907 66.6099 55.6855 64.9604 55.6855C63.3108 55.6855 61.9736 56.9907 61.9736 58.6007C61.9736 60.2107 63.3108 61.5158 64.9604 61.5158Z" fill="#FFABAF" stroke="#E65054" stroke-linecap="round" stroke-linejoin="round"/>
	<path d="M76.2436 61.5158C77.8931 61.5158 79.2303 60.2107 79.2303 58.6007C79.2303 56.9907 77.8931 55.6855 76.2436 55.6855C74.594 55.6855 73.2568 56.9907 73.2568 58.6007C73.2568 60.2107 74.594 61.5158 76.2436 61.5158Z" fill="#F2D76B" stroke="#C08C00" stroke-linecap="round" stroke-linejoin="round"/>
	<path d="M87.5268 61.5158C89.1763 61.5158 90.5135 60.2107 90.5135 58.6007C90.5135 56.9907 89.1763 55.6855 87.5268 55.6855C85.8772 55.6855 84.54 56.9907 84.54 58.6007C84.54 60.2107 85.8772 61.5158 87.5268 61.5158Z" fill="#68DE86" stroke="#00A32A" stroke-linecap="round" stroke-linejoin="round"/>
	<rect x="55.5" y="66.8457" width="149.009" height="26.2645" fill="white" stroke="#2C3338"/>
	<rect x="87.3584" y="72.0293" width="111.841" height="15.8996" fill="white" stroke="#055D9C"/>
	<rect x="93.168" y="77.7109" width="68.3629" height="4.53463" fill="#2C3338"/>
	<path d="M64.1678 75.1191L60.314 79.006M60.314 79.006L64.1678 82.8928M60.314 79.006H68.2786" stroke="#A7AAAD" stroke-width="2" stroke-linecap="round" stroke-linejoin="round"/>
	<path d="M77.3674 75.1191L81.2212 79.006M81.2212 79.006L77.3674 82.8928M81.2212 79.006H73.2566" stroke="#A7AAAD" stroke-width="2" stroke-linecap="round" stroke-linejoin="round"/>
	<path fill-rule="evenodd" clip-rule="evenodd" d="M131 104.742L131 119.93C131 120.427 130.552 120.829 130 120.829C129.447 120.829 129 120.427 129 119.93L129 104.742C129 104.245 129.447 103.843 130 103.843C130.552 103.843 131 104.245 131 104.742ZM130 39.9432C129.447 39.9432 129 39.5405 129 39.0438L129 6.89035C129 6.39362 129.447 5.99095 130 5.99095C130.552 5.99095 131 6.39362 131 6.89035L131 39.0438C131 39.5405 130.552 39.9432 130 39.9432Z" fill="#F0C930"/>
	<path fill-rule="evenodd" clip-rule="evenodd" d="M160.781 104.607L176.39 119.841C176.78 120.222 176.78 120.839 176.39 121.219C176 121.6 175.368 121.6 174.978 121.219L159.369 105.985C158.979 105.604 158.979 104.987 159.369 104.607C159.759 104.226 160.391 104.226 160.781 104.607ZM96.7906 43.5283C96.4007 43.909 95.7684 43.909 95.3785 43.5283L82.146 30.6131C81.7561 30.2325 81.7561 29.6154 82.146 29.2348C82.536 28.8542 83.1682 28.8542 83.5581 29.2348L96.7906 42.1501C97.1806 42.5307 97.1806 43.1477 96.7906 43.5283ZM79.7619 26.9079C79.372 27.2885 78.7398 27.2885 78.3498 26.9079L74.6271 23.2744C74.2371 22.8938 74.2371 22.2767 74.6271 21.8961C75.017 21.5155 75.6493 21.5155 76.0392 21.8961L79.7619 25.5296C80.1519 25.9102 80.1519 26.5273 79.7619 26.9079ZM180.582 123.933L184.706 127.958C185.096 128.339 185.096 128.956 184.706 129.336C184.316 129.717 183.684 129.717 183.294 129.336L179.17 125.311C178.78 124.93 178.78 124.313 179.17 123.933C179.56 123.552 180.192 123.552 180.582 123.933Z" fill="#F0C930"/>
	<path fill-rule="evenodd" clip-rule="evenodd" d="M83.6366 131.315C83.2122 130.973 83.1534 130.359 83.5051 129.943L87.6661 125.022C88.0179 124.606 88.6472 124.546 89.0716 124.888C89.496 125.23 89.5549 125.844 89.2031 126.26L85.0421 131.181C84.6903 131.597 84.061 131.657 83.6366 131.315ZM90.7392 122.916C90.3148 122.574 90.2559 121.96 90.6077 121.544L100.413 109.948C100.765 109.532 101.394 109.472 101.818 109.814C102.243 110.156 102.302 110.77 101.95 111.186L92.1446 122.782C91.7928 123.198 91.1636 123.258 90.7392 122.916ZM159.917 41.1061C159.493 40.7642 159.434 40.1498 159.786 39.7338L175.261 21.4327C175.613 21.0167 176.242 20.9566 176.666 21.2984C177.091 21.6403 177.15 22.2547 176.798 22.6708L161.323 40.9718C160.971 41.3879 160.342 41.448 159.917 41.1061Z" fill="#F0C930"/>
	<path d="M74.7912 38.1402L75.4591 36.8154C75.6075 36.5946 75.3107 36.3738 75.088 36.4474L73.7523 37.1834L72.6391 36.153C72.4165 36.0058 72.1939 36.153 72.1939 36.3738L72.4907 37.8458L71.2291 38.5817C71.0065 38.7289 71.0807 39.0233 71.3034 39.0969L72.7133 39.2441L73.0102 40.7897C73.0844 41.0105 73.3812 41.0841 73.5296 40.8633L74.1975 39.3913L75.7559 39.6121C75.9786 39.6121 76.127 39.3177 75.9786 39.1705L74.7912 38.1402Z" fill="#68DE86"/>
	<path d="M195.685 27.3565L196.205 26.3997C196.279 26.2525 196.13 26.0317 195.908 26.1789L194.943 26.6941L194.127 25.9581C193.978 25.8109 193.756 25.9581 193.83 26.1053L194.053 27.2093L193.088 27.7245C192.939 27.7981 192.939 28.0925 193.162 28.0925L194.201 28.1661L194.424 29.3437C194.424 29.5644 194.72 29.5644 194.795 29.4173L195.24 28.3133L196.427 28.4605C196.65 28.4605 196.724 28.2397 196.576 28.0925L195.685 27.3565Z" fill="#F0C930"/>
	<path d="M97.1131 150C97.7279 150 98.2263 149.506 98.2263 148.896C98.2263 148.286 97.7279 147.792 97.1131 147.792C96.4984 147.792 96 148.286 96 148.896C96 149.506 96.4984 150 97.1131 150Z" fill="#C475BD"/>
	<path d="M157.113 133.024C157.728 133.024 158.226 132.53 158.226 131.92C158.226 131.31 157.728 130.816 157.113 130.816C156.498 130.816 156 131.31 156 131.92C156 132.53 156.498 133.024 157.113 133.024Z" fill="#1ED15A"/>
	<path d="M161.113 2.20795C161.728 2.20795 162.226 1.71369 162.226 1.10398C162.226 0.494267 161.728 0 161.113 0C160.498 0 160 0.494267 160 1.10398C160 1.71369 160.498 2.20795 161.113 2.20795Z" fill="#C475BD"/>
	<path d="M36.1131 97.0745C36.7279 97.0745 37.2263 96.5802 37.2263 95.9705C37.2263 95.3608 36.7279 94.8665 36.1131 94.8665C35.4984 94.8665 35 95.3608 35 95.9705C35 96.5802 35.4984 97.0745 36.1131 97.0745Z" fill="#F7A8C3"/>
	<path d="M211.304 109.686L213.258 106.133C213.625 105.487 212.892 104.842 212.159 105.272L208.251 107.21L204.831 104.519C204.22 104.088 203.366 104.519 203.488 105.165L204.343 109.147L200.434 111.085C199.702 111.408 199.946 112.269 200.801 112.377L205.075 112.7L205.93 116.898C206.052 117.543 207.152 117.651 207.396 117.005L209.35 113.13L214.113 113.668C214.846 113.776 215.335 112.915 214.724 112.484L211.304 109.686Z" fill="white"/>
	<path d="M34.3108 42.7723C35.2975 43.3482 36.9239 43.4519 37.5636 42.9797L45.1969 40.3885C46.3788 39.9508 46.8233 40.4922 46.086 41.4712L41.5644 47.8519C40.827 48.8309 40.5342 50.3512 40.9788 50.8926L42.9627 57.6881C43.3096 58.7363 42.6699 59.2085 41.6832 58.6325L35.2212 55.1424C34.2345 54.5665 32.6081 54.4628 31.9684 54.935L24.335 57.5263C23.1532 57.9639 22.7087 57.4226 23.446 56.4436L27.9676 50.0629C28.7049 49.0839 28.9978 47.5635 28.5532 47.0222L26.5693 40.2266C26.2224 39.1785 26.8621 38.7063 27.8487 39.2822L34.3108 42.7723Z" fill="#F0C930"/>
	<path d="M60.9516 121.09L62.0489 119.368C62.1708 119.064 61.805 118.76 61.4393 118.861L59.3666 119.874L57.5378 118.456C57.294 118.253 56.8063 118.456 56.8063 118.76L57.294 120.786L55.2213 121.698C54.8556 121.901 54.9775 122.306 55.3433 122.306L57.6597 122.509L58.1474 124.636C58.2694 124.94 58.757 125.042 59.0009 124.738L59.9762 122.813L62.5366 123.117C62.9023 123.117 63.1462 122.711 62.9023 122.509L60.9516 121.09Z" fill="#D6B4E0"/>
	<path d="M214.693 35.0777C213.88 34.6625 212.661 34.6625 212.255 35.0777L206.973 37.569C206.16 37.9842 205.754 37.569 206.16 36.7386L208.598 31.3408C209.005 30.5104 209.005 29.2647 208.598 28.8495L206.16 23.0365C205.754 22.2061 206.16 21.7909 206.973 22.2061L212.255 24.6974C213.068 25.1126 214.287 25.1126 214.693 24.6974L219.975 22.2061C220.788 21.7909 221.194 22.2061 220.788 23.0365L218.35 28.4343C217.537 29.2647 217.537 30.5104 217.943 31.3408L220.381 36.7386C220.788 37.569 220.381 37.9842 219.569 37.569L214.693 35.0777Z" fill="#D48FC8"/>
</svg>
