<svg width="150" height="87" viewBox="0 0 150 87" fill="none" xmlns="http://www.w3.org/2000/svg">
<path d="M5.9076 85.6704H0" stroke="#2C3338"/>
<path d="M116.087 85.3667H136.406" stroke="#2C3338"/>
<path d="M139.244 85.3667H144.679" stroke="#2C3338"/>
<path d="M147.165 85.3667L150 85.3667" stroke="#2C3338"/>
<rect x="65.3906" y="70.7324" width="23.6263" height="10.402" fill="#2D3338"/>
<path d="M19.0864 9.99999C19.0864 4.75329 23.3397 0.5 28.5864 0.5H119.493C124.74 0.5 128.993 4.75329 128.993 10V85.4755H19.0864V9.99999Z" fill="#E6F2E8" stroke="#2C3338"/>
<path d="M18.5864 24.3901L128.884 24.3901" stroke="#2C3338"/>
<path d="M31.3416 13.1936C31.3416 14.514 30.2719 15.5839 28.953 15.5839C27.6341 15.5839 26.5645 14.514 26.5645 13.1936C26.5645 11.8731 27.6341 10.8032 28.953 10.8032C30.2719 10.8032 31.3416 11.8731 31.3416 13.1936Z" fill="white" stroke="#2C3338"/>
<path d="M40.325 13.1931C40.325 14.5135 39.2553 15.5834 37.9364 15.5834C36.6175 15.5834 35.5479 14.5135 35.5479 13.1931C35.5479 11.8726 36.6175 10.8027 37.9364 10.8027C39.2553 10.8027 40.325 11.8726 40.325 13.1931Z" fill="white" stroke="#2C3338"/>
<path d="M49.3093 13.1931C49.3093 14.5135 48.2396 15.5834 46.9208 15.5834C45.6019 15.5834 44.5322 14.5135 44.5322 13.1931C44.5322 11.8726 45.6019 10.8027 46.9208 10.8027C48.2396 10.8027 49.3093 11.8726 49.3093 13.1931Z" fill="white" stroke="#2C3338"/>
<path d="M33.3393 85.6704H8.53174" stroke="#2C3338"/>
<path d="M19.1958 25.001H128.884V85.3667H19.1958V25.001Z" fill="white"/>
<path d="M129.189 37.1963C139.548 45.7329 156.184 64.6963 139.853 72.2572C119.439 81.7084 105.423 50.0012 85.6182 50.306" stroke="#2C3338"/>
<path d="M18.8921 42.6826C10.9702 47.0525 -4.92106 60.6375 5.4858 71.646C16.1498 82.9265 32.603 65.2436 59.4156 57.6216" stroke="#2C3338"/>
<path d="M59.2808 57.4352C57.9156 53.0105 62.2506 50.727 64.5888 50.1384L68.4868 58.674C66.0439 59.7643 60.646 61.8599 59.2808 57.4352Z" stroke="#2C3338"/>
<path d="M85.8348 50.0742C85.9254 54.704 81.1287 55.7005 78.719 55.6201L77.3289 46.3391C79.9777 45.9664 85.7441 45.4443 85.8348 50.0742Z" stroke="#2C3338"/>
<path d="M73.126 49.3896L77.9772 48.7798" stroke="#2C3338"/>
<line y1="-0.5" x2="4.76143" y2="-0.5" transform="matrix(-0.768026 -0.640419 0.63995 -0.768416 60.938 45.1221)" stroke="#2C3338"/>
<line y1="-0.5" x2="5.62264" y2="-0.5" transform="matrix(-0.216802 -0.976215 0.976159 -0.217059 68.8594 40.854)" stroke="#2C3338"/>
<line y1="-0.5" x2="2.51452" y2="-0.5" transform="matrix(-0.242394 -0.970178 0.970107 -0.242677 67.0312 33.5366)" stroke="#2C3338"/>
<path d="M76.307 40.7807L77.8214 34.1471" stroke="#2C3338"/>
<line y1="-0.5" x2="6.00583" y2="-0.5" transform="matrix(-0.405928 0.913905 -0.913718 -0.406349 66.4224 66.4639)" stroke="#2C3338"/>
<line y1="-0.5" x2="4.43986" y2="-0.5" transform="matrix(0.274564 0.961569 -0.961479 0.274879 75.563 65.2446)" stroke="#2C3338"/>
<line y1="-0.5" x2="1.92855" y2="-0.5" transform="matrix(0.316051 0.948742 -0.948624 0.316404 77.3906 71.3418)" stroke="#2C3338"/>
<line y1="-0.5" x2="6.94959" y2="-0.5" transform="matrix(0.789168 0.614178 -0.613703 0.789537 82.8745 60.9756)" stroke="#2C3338"/>
<path d="M74.04 53.9639L78.2595 53.354" stroke="#2C3338"/>
</svg>
