<svg width="392" height="211" viewBox="0 0 392 211" fill="none" xmlns="http://www.w3.org/2000/svg">
<g clip-path="url(#clip0_440_30855)">
<rect width="457" height="425" fill="#3858E9"/>
<path d="M161 141V78C161 76.075 161.685 74.4271 163.056 73.0562C164.427 71.6854 166.075 71 168 71H224C225.925 71 227.573 71.6854 228.944 73.0562C230.315 74.4271 231 76.075 231 78V120C231 121.925 230.315 123.573 228.944 124.944C227.573 126.315 225.925 127 224 127H175L161 141Z" fill="white"/>
<path fill-rule="evenodd" clip-rule="evenodd" d="M209.548 99.2258C209.548 91.7606 203.465 85.6774 196 85.6774C188.521 85.6774 182.452 91.7606 182.452 99.2258C182.452 106.704 188.521 112.774 196 112.774C203.465 112.774 209.548 106.704 209.548 99.2258ZM192.992 106.501L188.372 94.1044C189.117 94.0773 189.957 93.9961 189.957 93.9961C190.635 93.9148 190.554 92.4651 189.876 92.4922C189.876 92.4922 187.912 92.6412 186.665 92.6412C186.421 92.6412 186.164 92.6412 185.879 92.6277C188.034 89.3219 191.759 87.1812 196 87.1812C199.157 87.1812 202.029 88.3599 204.197 90.3515C203.275 90.2025 201.961 90.8799 201.961 92.4922C201.961 93.3701 202.429 94.1234 202.954 94.9703C203.029 95.0905 203.105 95.2127 203.181 95.3373C203.655 96.1638 203.926 97.1799 203.926 98.6703C203.926 100.689 202.029 105.444 202.029 105.444L197.924 94.1044C198.655 94.0773 199.035 93.8741 199.035 93.8741C199.712 93.8064 199.631 92.1806 198.954 92.2212C198.954 92.2212 197.003 92.3838 195.729 92.3838C194.55 92.3838 192.572 92.2212 192.572 92.2212C191.895 92.1806 191.814 93.847 192.491 93.8741L193.737 93.9825L195.445 98.6025L192.992 106.501ZM206.069 99.147L206.039 99.2258C205.058 101.81 204.083 104.417 203.111 107.019C202.768 107.936 202.426 108.852 202.083 109.766C205.701 107.68 208.045 103.683 208.045 99.2258C208.045 97.1393 207.57 95.2154 206.622 93.4677C207.03 96.5972 206.403 98.2591 206.069 99.147ZM190.716 110.186C186.679 108.235 183.955 104.008 183.955 99.2257C183.955 97.4644 184.267 95.8657 184.931 94.3618C185.337 95.4735 185.743 96.5858 186.149 97.6984L186.149 97.6989C187.667 101.861 189.187 106.028 190.716 110.186ZM199.672 110.661L196.176 101.204C195.532 103.104 194.883 105.004 194.233 106.909C193.788 108.211 193.343 109.515 192.897 110.823C193.873 111.121 194.93 111.27 196 111.27C197.287 111.27 198.506 111.054 199.672 110.661Z" fill="#3858E9"/>
</g>
<defs>
<clipPath id="clip0_440_30855">
<rect width="392" height="211" fill="white"/>
</clipPath>
</defs>
</svg>
