<svg width="233" height="64" viewBox="0 0 233 64" fill="none" xmlns="http://www.w3.org/2000/svg">
<g clip-path="url(#clip0_3965_114880)">
<path d="M48.8477 20.9746H56.752C64.4482 20.9746 70.8965 24.3079 70.8965 33.0829C70.8965 40.8663 64.5814 45.0496 57.4509 45.0496H48.8477V20.9746ZM54.1144 40.1413H56.8518C61.7525 40.1413 65.43 38.2746 65.43 32.7996C65.43 28.0746 61.6776 25.8663 57.2262 25.8663H54.0978L54.1144 40.1413Z" fill="#2C3338"/>
<path d="M73.6338 28.5249H78.7009V31.1666H78.7674C79.8491 29.1583 81.2635 28.1083 83.4934 28.1083C84.0529 28.0935 84.612 28.1495 85.1574 28.2749V32.9333C84.4562 32.7171 83.7278 32.6021 82.9942 32.5916C79.1418 32.5916 78.6676 34.8333 78.6676 38.1333V45.0333H73.6338V28.5249Z" fill="#2C3338"/>
<path d="M102.356 42.1912C101.517 43.217 100.46 44.0424 99.2627 44.6075C98.0651 45.1726 96.7569 45.4631 95.4331 45.4579C90.366 45.4579 86.2808 42.0579 86.2808 36.7829C86.2808 31.5079 90.3328 28.1079 95.4331 28.1079C100.159 28.1079 103.129 31.5079 103.129 36.7829V38.3829H91.4061C91.5487 39.2886 92.0142 40.1119 92.7164 40.7002C93.4186 41.2886 94.3098 41.6022 95.2251 41.5829C95.9466 41.577 96.6551 41.39 97.2859 41.0392C97.9167 40.6884 98.4496 40.1848 98.8361 39.5746L102.356 42.1912ZM98.0623 34.9162C98.0725 34.5045 97.9993 34.0949 97.8472 33.7123C97.695 33.3296 97.4671 32.9818 97.1771 32.6898C96.8871 32.3977 96.541 32.1676 96.1598 32.0132C95.7785 31.8587 95.37 31.7832 94.9588 31.7912C94.0725 31.7384 93.2009 32.0362 92.5317 32.6207C91.8626 33.2052 91.4493 34.0296 91.3811 34.9162H98.0623Z" fill="#2C3338"/>
<path d="M115.934 42.9748H115.868C115.287 43.8019 114.503 44.466 113.593 44.9037C112.683 45.3413 111.675 45.538 110.667 45.4748C107.597 45.4748 104.843 43.7081 104.843 40.3748C104.843 34.6581 111.732 34.5414 115.951 34.5414C115.943 34.1302 115.851 33.7248 115.682 33.3502C115.512 32.9756 115.268 32.6395 114.964 32.3627C114.661 32.0858 114.304 31.8738 113.915 31.7398C113.527 31.6057 113.116 31.5524 112.706 31.5831C111.91 31.5849 111.124 31.7629 110.405 32.1043C109.686 32.4457 109.051 32.9422 108.546 33.5581L105.842 30.7664C107.833 29.0031 110.415 28.0568 113.072 28.1164C118.979 28.1164 120.56 31.1414 120.56 36.6498V45.0498H115.901L115.934 42.9748ZM114.686 37.8081C113.13 37.8081 109.694 37.9414 109.694 40.1914C109.694 41.4164 110.975 41.9914 112.09 41.9914C114.087 41.9914 115.943 40.9414 115.943 38.8998V37.8331H114.695L114.686 37.8081Z" fill="#2C3338"/>
<path d="M123.772 28.5249H128.639V30.7666H128.706C129.19 29.9311 129.891 29.2431 130.735 28.7763C131.58 28.3095 132.535 28.0815 133.498 28.1166C135.795 28.1166 137.659 29.0666 138.565 31.0749C139.038 30.1178 139.786 29.3244 140.713 28.7971C141.64 28.2697 142.703 28.0327 143.766 28.1166C148.225 28.1166 149.59 31.2833 149.59 35.2916V45.0499H144.523V35.4249C144.523 33.8916 143.949 32.5999 142.293 32.5999C139.963 32.5999 139.223 34.2666 139.223 36.3083V45.0499H134.139V36.3083C134.139 35.0833 134.206 32.5999 131.876 32.5999C129.238 32.5999 128.839 34.6749 128.839 36.8166V45.0499H123.772V28.5249Z" fill="#2C3338"/>
<path d="M152.785 20.9746H158.052V29.9496H168.286V20.9746H173.553V45.0496H168.286V34.6496H158.052V45.0496H152.785V20.9746Z" fill="#2C3338"/>
<path d="M184.943 28.1167C190.01 28.1167 194.095 31.5167 194.095 36.7917C194.095 42.0667 190.043 45.4667 184.943 45.4667C179.843 45.4667 175.791 42.0667 175.791 36.7917C175.791 31.5167 179.843 28.1167 184.943 28.1167ZM184.943 40.975C187.439 40.975 188.995 39.3084 188.995 36.8084C188.995 34.3084 187.472 32.6417 184.943 32.6417C182.413 32.6417 180.891 34.3084 180.891 36.8084C180.891 39.3084 182.413 40.975 184.943 40.975Z" fill="#2C3338"/>
<path d="M205.677 33.3915C205.33 32.9459 204.884 32.5878 204.374 32.3462C203.864 32.1045 203.304 31.9859 202.74 31.9999C201.908 31.9999 200.885 32.3749 200.885 33.3582C200.885 35.8082 209.43 33.7332 209.43 40.0249C209.43 44.2415 205.378 45.4665 201.867 45.4665C199.57 45.4665 197.033 44.8915 195.418 43.2249L198.489 39.7915C198.9 40.354 199.439 40.8105 200.061 41.1235C200.683 41.4364 201.37 41.5969 202.066 41.5915C203.215 41.5915 204.363 41.2832 204.363 40.3999C204.363 37.7499 195.818 39.9915 195.818 33.7332C195.818 29.8582 199.262 28.1582 202.707 28.1582C204.87 28.1582 207.267 28.6999 208.789 30.3332L205.677 33.3915Z" fill="#2C3338"/>
<path d="M223 32.6082H218.54V38.1165C218.54 39.8832 218.74 41.1748 220.937 41.1748C221.656 41.2255 222.375 41.0602 223 40.6998V44.9498C221.857 45.3224 220.658 45.4944 219.456 45.4582C216.078 45.4582 213.482 44.0665 213.482 40.4582V32.6082H210.237V28.5248H213.482V23.6665H218.549V28.5665H223V32.6082Z" fill="#2C3338"/>
<path d="M39.7952 39.4998C37.2574 40.9255 34.3839 41.6421 31.4749 41.5748C29.3737 41.5498 27.298 41.1105 25.3664 40.2819C23.4347 39.4534 21.6849 38.2519 20.2169 36.746C18.7489 35.2401 17.5915 33.4593 16.8107 31.5054C16.0299 29.5515 15.641 27.4626 15.6663 25.3581C15.7394 22.4951 16.5972 19.7074 18.1458 17.2998C15.7308 18.6393 13.7082 20.5888 12.2791 22.9543C10.85 25.3199 10.0643 28.019 10.0002 30.7831C9.9749 32.8876 10.3638 34.9765 11.1446 36.9304C11.9254 38.8843 13.0828 40.6651 14.5508 42.171C16.0188 43.6769 17.7686 44.8784 19.7002 45.7069C21.6319 46.5355 23.7076 46.9748 25.8088 46.9998C28.5888 47.0622 31.3378 46.4045 33.7896 45.0906C36.2414 43.7766 38.3129 41.8509 39.8035 39.4998" fill="#2C3338"/>
<path d="M31.3334 39.725H31.6329C33.9546 39.725 36.2406 39.1526 38.2892 38.0583C39.523 35.9367 40.1784 33.5274 40.1896 31.0721C40.2008 28.6168 39.5675 26.2017 38.3531 24.0688C37.1388 21.9359 35.386 20.1601 33.2705 18.9195C31.155 17.6789 28.7511 17.0169 26.2996 17C23.9706 16.9995 21.6799 17.5932 19.6434 18.725C18.3643 20.7994 17.6633 23.1791 17.6132 25.6167C17.571 29.308 18.9913 32.8655 21.563 35.51C24.1347 38.1544 27.6481 39.6701 31.3334 39.725Z" fill="#101517"/>
</g>
<defs>
<clipPath id="clip0_3965_114880">
<rect width="213" height="30" fill="white" transform="translate(10 17)"/>
</clipPath>
</defs>
</svg>
