<svg width="128" height="128" viewBox="0 0 128 128" fill="none" xmlns="http://www.w3.org/2000/svg">
<path fill-rule="evenodd" clip-rule="evenodd" d="M64 15.25C35.8335 15.25 14 35.882 14 63.75C14 78.3267 19.974 90.9228 29.7028 99.623C30.5195 100.354 31.0125 101.378 31.046 102.474L31.3183 111.368C31.4053 114.205 34.3357 116.051 36.9317 114.905L46.856 110.524C47.6972 110.153 48.64 110.084 49.5265 110.328C54.087 111.582 58.9408 112.25 64 112.25C92.1665 112.25 114 91.618 114 63.75C114 35.882 92.1665 15.25 64 15.25" fill="url(#paint0_radial)"/>
<path fill-rule="evenodd" clip-rule="evenodd" d="M33.9752 77.9336L48.6627 54.6316C50.999 50.9246 56.002 50.0016 59.5075 52.6306L71.1892 61.3918C72.261 62.1958 73.7357 62.1916 74.803 61.3816L90.5797 49.4081C92.6855 47.8101 95.4342 50.3301 94.025 52.5663L79.3375 75.8686C77.001 79.5753 71.998 80.4986 68.4927 77.8693L56.8107 69.1078C55.739 68.3041 54.2642 68.3083 53.197 69.1183L37.4202 81.0918C35.3145 82.6898 32.5657 80.1698 33.9752 77.9336" fill="white"/>
<defs>
<radialGradient id="paint0_radial" cx="0" cy="0" r="1" gradientUnits="userSpaceOnUse" gradientTransform="translate(33.2474 114.715) rotate(-57.0915) scale(108.96)">
<stop stop-color="#0099FF"/>
<stop offset="0.609754" stop-color="#A033FF"/>
<stop offset="0.934823" stop-color="#FF5280"/>
<stop offset="1" stop-color="#FF7061"/>
</radialGradient>
</defs>
</svg>
