<svg id="Layer_1" data-name="Layer 1" xmlns="http://www.w3.org/2000/svg" viewBox="0 0 691.94 209.01"><defs><style>.cls-1,.cls-24,.cls-26,.cls-29,.cls-6,.cls-8{fill:#fff;}.cls-19,.cls-2,.cls-27{fill:#c3c4c7;}.cls-3{fill:#f6f7f7;}.cls-10,.cls-21,.cls-25,.cls-28,.cls-4,.cls-9{fill:none;}.cls-4{stroke:#c3c4c7;stroke-width:0.88px;}.cls-20,.cls-26,.cls-4{stroke-miterlimit:10;}.cls-18,.cls-20,.cls-5{fill:#004e6e;}.cls-10,.cls-25,.cls-6{stroke:#c3c4c7;}.cls-10,.cls-18,.cls-19,.cls-21,.cls-24,.cls-25,.cls-27,.cls-28,.cls-29,.cls-6,.cls-8,.cls-9{stroke-linecap:round;stroke-linejoin:round;}.cls-7{fill:#c3c4c7;}.cls-18,.cls-19,.cls-20,.cls-21,.cls-27,.cls-28,.cls-8,.cls-9{stroke:#004e6e;}.cls-11{fill:#dcdcde;}.cls-12{fill:#3895ba;}.cls-13{opacity:0.26;}.cls-14{fill:#8e9196;}.cls-15{fill:#3895ba;}.cls-16{fill:#187aa2;}.cls-17{fill:#004e6e;}.cls-18,.cls-19,.cls-21{stroke-width:2px;}.cls-20{stroke-width:0.88px;}.cls-22{fill:#3895ba;}.cls-23{fill:#646970;}.cls-24{stroke:#3895ba;stroke-width:1.66px;}.cls-25{stroke-width:1.45px;}.cls-26{stroke:#004e6e;}.cls-28{stroke-width:1.11px;}.cls-29{stroke:#3895ba;}.cls-30{fill:#004e6e;}.cls-31{fill:#e6f1f5;}</style></defs><title>get-apps-banner</title><path class="cls-1" d="M396.49,146.14c6.81-.61,11.79-8,12.79-19.09s-5.56-27.11-16.39-22.14-9.31,39.77,0,40.4" transform="translate(-13.86 -16.71)"/><path class="cls-2" d="M396.47,146a10.4,10.4,0,0,0,5.58-2.67,16.22,16.22,0,0,0,3.65-5,32.49,32.49,0,0,0,2.85-12.21,30.67,30.67,0,0,0-2.15-12.27,20.71,20.71,0,0,0-3-5.34,9.46,9.46,0,0,0-4.74-3.32,7.91,7.91,0,0,0-5.61.72,9.63,9.63,0,0,0-3.87,4.34,33.38,33.38,0,0,0-2.91,12.15,50.36,50.36,0,0,0,.62,12.67,25.22,25.22,0,0,0,1.82,6,10,10,0,0,0,1.67,2.58,4.19,4.19,0,0,0,2.54,1.39.32.32,0,0,1,0,.64,4.8,4.8,0,0,1-3.1-1.44,10.89,10.89,0,0,1-2-2.72,25.79,25.79,0,0,1-2.16-6.22,48.93,48.93,0,0,1-1-13,43.13,43.13,0,0,1,.86-6.51,27.12,27.12,0,0,1,2.1-6.31,11.32,11.32,0,0,1,4.58-5.14,10.84,10.84,0,0,1,3.34-1.09,8.77,8.77,0,0,1,3.57.18,11.26,11.26,0,0,1,5.67,3.94,21.73,21.73,0,0,1,3.29,5.84,31.75,31.75,0,0,1,1.71,6.4,29.85,29.85,0,0,1,.36,6.61,38.54,38.54,0,0,1-1,6.5,25.94,25.94,0,0,1-2.34,6.16,16.85,16.85,0,0,1-4.15,5.14,10.59,10.59,0,0,1-6.09,2.36.16.16,0,0,1,0-.32Z" transform="translate(-13.86 -16.71)"/><line class="cls-1" x1="383.2" y1="100.45" x2="382.79" y2="143.97"/><path class="cls-3" d="M397.27,117.16A91.72,91.72,0,0,1,398,128l.05,5.44,0,5.44q-.09,5.44-.26,10.88c-.12,3.63-.3,7.25-.68,10.87a.4.4,0,0,1-.8,0c-.31-3.63-.42-7.26-.48-10.88s-.06-7.25,0-10.88l.07-5.44L396,128a91.62,91.62,0,0,1,.91-10.87.2.2,0,0,1,.4,0Z" transform="translate(-13.86 -16.71)"/><path class="cls-1" d="M338.76,188.18S427.08,130.53,564.94,126" transform="translate(-13.86 -16.71)"/><path class="cls-2" d="M338.7,188.1q3.11-2,6.32-3.88c2.12-1.27,4.28-2.47,6.44-3.67l3.25-1.78,3.3-1.69c2.21-1.11,4.38-2.3,6.61-3.35,4.47-2.11,8.88-4.34,13.43-6.28l6.78-3c2.26-1,4.57-1.89,6.86-2.82l6.88-2.75c2.29-.93,4.64-1.71,7-2.57l7-2.52c1.16-.41,2.32-.85,3.49-1.24l3.53-1.14c4.71-1.5,9.4-3.07,14.12-4.51l14.27-4,3.57-1,3.6-.86,7.21-1.73,7.21-1.73,1.8-.43,1.82-.36,3.64-.71,14.55-2.85c1.21-.26,2.43-.44,3.65-.62l3.66-.55,7.33-1.09c9.75-1.64,19.61-2.38,29.44-3.43l3.69-.37c1.23-.12,2.47-.15,3.7-.23l7.4-.39,14.8-.73a.2.2,0,0,1,0,.4h0l-14.77,1-7.39.46c-1.23.09-2.46.12-3.69.25l-3.68.4c-9.8,1.12-19.64,1.93-29.36,3.64-4.87.79-9.76,1.42-14.61,2.3l-14.52,2.85-3.63.71-1.81.36-1.8.43-7.19,1.72L455.3,142l-3.6.86-3.56,1-14.24,4c-4.72,1.44-9.39,3-14.09,4.5l-3.52,1.13c-1.17.39-2.32.83-3.48,1.24l-7,2.51c-2.31.86-4.66,1.63-6.94,2.56L392,162.56c-2.28.94-4.6,1.77-6.86,2.76l-6.79,2.92c-4.56,1.89-9,4.06-13.47,6.12-2.24,1-4.42,2.19-6.63,3.27L355,179.29,351.71,181c-2.19,1.14-4.37,2.29-6.51,3.51s-4.29,2.43-6.39,3.72a.1.1,0,0,1-.14,0A.1.1,0,0,1,338.7,188.1Z" transform="translate(-13.86 -16.71)"/><path class="cls-1" d="M338.87,165.75c13.43,5.28,21.5,9.18,21.5,9.18" transform="translate(-13.86 -16.71)"/><path class="cls-2" d="M338.9,165.66a48.35,48.35,0,0,1,5.58,1.8c1.82.7,3.63,1.42,5.43,2.19a105.06,105.06,0,0,1,10.54,5.1.2.2,0,0,1,.07.27.2.2,0,0,1-.25.09c-3.66-1.36-7.21-2.95-10.81-4.42-1.8-.75-3.58-1.53-5.37-2.3s-3.56-1.59-5.27-2.55a.1.1,0,0,1,.07-.19Z" transform="translate(-13.86 -16.71)"/><path class="cls-1" d="M149.13,147.85c28.76-11.4,62.14-12,93.76-7.87" transform="translate(-13.86 -16.71)"/><path class="cls-2" d="M149.09,147.76a118.82,118.82,0,0,1,22.71-7.11,171,171,0,0,1,23.62-3.16,215.68,215.68,0,0,1,23.82-.1c7.93.45,15.84,1.18,23.68,2.4a.2.2,0,0,1-.05.4c-7.87-.85-15.76-1.58-23.67-1.83a223,223,0,0,0-23.7.26,173.49,173.49,0,0,0-23.49,3,159.63,159.63,0,0,0-22.84,6.31.1.1,0,0,1-.07-.19Z" transform="translate(-13.86 -16.71)"/><path class="cls-1" d="M373.29,163c5.38-.65,9.16-6.65,9.68-15.46s-5.07-21.37-13.54-17.16-6.41,31.77,1,32" transform="translate(-13.86 -16.71)"/><path class="cls-2" d="M373.28,162.89a8.25,8.25,0,0,0,4.36-2.25,12.87,12.87,0,0,0,2.77-4.09,25.78,25.78,0,0,0,2-9.75,24.34,24.34,0,0,0-2-9.68,16.43,16.43,0,0,0-2.55-4.16,7.51,7.51,0,0,0-3.84-2.52,6.27,6.27,0,0,0-4.43.71,7.65,7.65,0,0,0-3,3.53,26.49,26.49,0,0,0-2,9.71,40,40,0,0,0,.8,10,20,20,0,0,0,1.59,4.73,7.93,7.93,0,0,0,1.39,2,3.32,3.32,0,0,0,2.05,1,.26.26,0,0,1,0,.51,3.81,3.81,0,0,1-2.49-1.06,8.64,8.64,0,0,1-1.64-2.1,20.47,20.47,0,0,1-1.86-4.88,38.83,38.83,0,0,1-1.08-10.31,34.23,34.23,0,0,1,.52-5.19,21.52,21.52,0,0,1,1.51-5.06,9,9,0,0,1,3.51-4.19,8.6,8.6,0,0,1,2.62-.95,7,7,0,0,1,2.83.06,8.94,8.94,0,0,1,4.6,3,17.25,17.25,0,0,1,2.76,4.55,25.19,25.19,0,0,1,1.52,5,23.69,23.69,0,0,1,.45,5.23A30.58,30.58,0,0,1,383,152a20.58,20.58,0,0,1-1.71,4.94,13.37,13.37,0,0,1-3.17,4.18,8.41,8.41,0,0,1-4.77,2,.13.13,0,0,1,0-.25Z" transform="translate(-13.86 -16.71)"/><line class="cls-1" x1="359.18" y1="123.31" x2="359.92" y2="157.84"/><path class="cls-3" d="M373.24,140a58,58,0,0,1,1,8.61l.2,4.31.11,4.32q.06,4.32,0,8.63c0,2.88-.11,5.76-.4,8.64a.4.4,0,0,1-.8,0c-.41-2.87-.62-5.74-.77-8.62s-.25-5.75-.34-8.63l-.07-4.32v-4.32a58.12,58.12,0,0,1,.62-8.65.2.2,0,0,1,.4,0Z" transform="translate(-13.86 -16.71)"/><path class="cls-3" d="M705.61,196.52l-43.21.34-43.21.16-86.42.31-172.84.13-172.84-.16-86.42-.22-43.21-.12-43.21-.23a.4.4,0,0,1,0-.8l43.21-.23,43.21-.12,86.42-.22,172.84-.16,172.84.13,86.42.31,43.21.16,43.21.34a.2.2,0,0,1,0,.4Z" transform="translate(-13.86 -16.71)"/><path class="cls-3" d="M443.61,35.52c3.32-.07,6.64-.17,10-.2l10-.12-.41.31a38.66,38.66,0,0,1,4.19-9.13,18,18,0,0,1,7.35-6.92c6.58-2.89,14.79,1.57,16.29,8.53a6.57,6.57,0,0,1,0,2.7A3.86,3.86,0,0,1,489.42,33a4.53,4.53,0,0,1-2.69.73,4.48,4.48,0,0,1-1.39-.22,2.62,2.62,0,0,1-1.27-.85,3,3,0,0,1-.37-2.87,6.47,6.47,0,0,1,1.37-2.32,10.11,10.11,0,0,1,4.36-2.81,12,12,0,0,1,5.11-.55,8.14,8.14,0,0,1,4.83,1.9,8.38,8.38,0,0,1,2.55,4.5,14.4,14.4,0,0,1,.25,5.11l-.42-.48,10.83.08c3.61,0,7.22.1,10.83.14a.2.2,0,0,1,0,.4c-3.61,0-7.22.13-10.83.14L501.76,36a.42.42,0,0,1-.42-.42v-.07a13.57,13.57,0,0,0-.31-4.76,7.43,7.43,0,0,0-2.31-4,7.22,7.22,0,0,0-4.27-1.64,10.94,10.94,0,0,0-4.68.52,9.07,9.07,0,0,0-3.89,2.53,5.41,5.41,0,0,0-1.14,1.93,2,2,0,0,0,.18,1.86,2.34,2.34,0,0,0,1.83.66,3.43,3.43,0,0,0,2-.54c1.13-.78,1.35-2.47,1-4a11,11,0,0,0-5.63-7.2,12,12,0,0,0-4.53-1.34,9.48,9.48,0,0,0-4.59.76,17,17,0,0,0-6.93,6.51,38.28,38.28,0,0,0-4.21,8.82v0a.42.42,0,0,1-.4.29l-10-.12c-3.32,0-6.64-.14-10-.2a.1.1,0,0,1,0-.2Z" transform="translate(-13.86 -16.71)"/><path class="cls-1" d="M684.12,200.12s4.38-31.64,9-36.18c-7.82,6.7-16.7,25.49-16.7,36.18" transform="translate(-13.86 -16.71)"/><path class="cls-2" d="M684,200.11q.48-4.67,1.19-9.32c.47-3.1,1-6.18,1.61-9.26s1.31-6.13,2.15-9.17c.42-1.52.88-3,1.43-4.52a13,13,0,0,1,2.33-4.31l.77.84a37.13,37.13,0,0,0-6.38,7.67,77.38,77.38,0,0,0-8.58,18.21,38.45,38.45,0,0,0-1.92,9.87.2.2,0,0,1-.2.2.2.2,0,0,1-.2-.2,35.62,35.62,0,0,1,1.56-10.1,69.32,69.32,0,0,1,3.56-9.58,73.05,73.05,0,0,1,4.88-9,37.85,37.85,0,0,1,6.54-7.95.57.57,0,0,1,.79.81l0,0a12.3,12.3,0,0,0-2.1,3.89c-.55,1.44-1,2.92-1.43,4.42-.85,3-1.55,6-2.2,9.08s-1.26,6.11-1.86,9.18l-1.73,9.22a.1.1,0,0,1-.12.08A.1.1,0,0,1,684,200.11Z" transform="translate(-13.86 -16.71)"/><path class="cls-1" d="M676.29,199.68s-1.07-24.86,3.48-29.15C672,176.92,667,191.16,668,200.32" transform="translate(-13.86 -16.71)"/><path class="cls-2" d="M676.19,199.68c-.22-2.48-.33-5-.37-7.45s0-5,.11-7.46a68.71,68.71,0,0,1,.76-7.45,28.89,28.89,0,0,1,.83-3.7,8.58,8.58,0,0,1,1.86-3.51l.75.85a27.16,27.16,0,0,0-5.29,6.09,40.19,40.19,0,0,0-3.71,7.26,44.8,44.8,0,0,0-2.32,7.83,31,31,0,0,0-.62,8.14.2.2,0,0,1-.18.22.2.2,0,0,1-.22-.17A28.23,28.23,0,0,1,668,192a42.8,42.8,0,0,1,2.18-8.05,40.85,40.85,0,0,1,3.73-7.48,27.48,27.48,0,0,1,5.47-6.39.57.57,0,0,1,.77.83l0,0a7.65,7.65,0,0,0-1.58,3,27.83,27.83,0,0,0-.83,3.55,70.36,70.36,0,0,0-.82,7.33c-.2,2.46-.28,4.93-.37,7.41s-.13,5-.16,7.43a.1.1,0,0,1-.1.1A.1.1,0,0,1,676.19,199.68Z" transform="translate(-13.86 -16.71)"/><path class="cls-4" d="M65.92,199.59c0-22.88-.38-35.2-15.05-49.26" transform="translate(-13.86 -16.71)"/><path class="cls-3" d="M43.62,183.23A13.23,13.23,0,0,0,52.7,187a12.14,12.14,0,0,0,4.7-1,13.25,13.25,0,0,0,4-2.66l-.33,1.72a15.65,15.65,0,0,0-4-5,12,12,0,0,0-5.67-2.53,11.8,11.8,0,0,0-6.22,1,4.72,4.72,0,0,0-1.26.69,2.91,2.91,0,0,0-.8,1.11,3.42,3.42,0,0,0,.24,3Zm-.62.57A4.1,4.1,0,0,1,41.64,180a4.44,4.44,0,0,1,.92-2.08,6.25,6.25,0,0,1,1.67-1.39,12.32,12.32,0,0,1,7.56-1.93,13.75,13.75,0,0,1,7.28,2.93,16.2,16.2,0,0,1,4.83,6.26l0,0a1.48,1.48,0,0,1-.35,1.67,16,16,0,0,1-5.14,3.21,12.43,12.43,0,0,1-5.88.88A13.79,13.79,0,0,1,42.79,184Z" transform="translate(-13.86 -16.71)"/><path class="cls-3" d="M40.7,166.55a12.62,12.62,0,0,0,8.61,3,11.46,11.46,0,0,0,4.31-1.07,12.12,12.12,0,0,0,3.59-2.56L57,167.5a14.47,14.47,0,0,0-3.93-4.32,11.45,11.45,0,0,0-5.38-2.06A11.16,11.16,0,0,0,42,162.31a4.35,4.35,0,0,0-1.14.67,2.59,2.59,0,0,0-.69,1,3,3,0,0,0,.37,2.71Zm-.55.54a3.7,3.7,0,0,1-1.45-3.37,3.9,3.9,0,0,1,.74-1.91,5.66,5.66,0,0,1,1.47-1.32,11.57,11.57,0,0,1,6.91-2,13.13,13.13,0,0,1,6.9,2.35,15,15,0,0,1,4.8,5.45l0,0a1.3,1.3,0,0,1-.24,1.52,14.63,14.63,0,0,1-4.6,3.1,11.77,11.77,0,0,1-5.4,1A13.08,13.08,0,0,1,40,167.27Z" transform="translate(-13.86 -16.71)"/><path class="cls-3" d="M43.57,144.14a7.88,7.88,0,0,0,3.4,4.58,7.2,7.2,0,0,0,2.61,1,7.6,7.6,0,0,0,2.76-.06l-.66.73a9,9,0,0,0-.52-3.61,7.15,7.15,0,0,0-2.07-2.95,7,7,0,0,0-3.38-1.39,2.71,2.71,0,0,0-.82,0,1.61,1.61,0,0,0-.72.29,1.89,1.89,0,0,0-.76,1.53Zm-.47.09a2.31,2.31,0,0,1,.43-2.25,2.43,2.43,0,0,1,1.05-.73,3.53,3.53,0,0,1,1.22-.16,7.25,7.25,0,0,1,4.29,1.36,8.2,8.2,0,0,1,2.75,3.63,9.33,9.33,0,0,1,.58,4.5v0a.81.81,0,0,1-.66.71,9.17,9.17,0,0,1-3.46,0,7.38,7.38,0,0,1-3.15-1.36,8.17,8.17,0,0,1-3.2-5.68Z" transform="translate(-13.86 -16.71)"/><path class="cls-3" d="M66.95,173.33l.17,0,.34,0,.69,0a13,13,0,0,0,1.38-.09,12.92,12.92,0,0,0,7.2-3.27,10.58,10.58,0,0,0,2.87-4.2,11,11,0,0,0,.6-2.44,1.85,1.85,0,0,0-.58-1.48,1.9,1.9,0,0,0-1.51-.54,12.53,12.53,0,0,0-2.57.41,10.71,10.71,0,0,0-7.47,6.57A16.71,16.71,0,0,0,67.3,171a13.93,13.93,0,0,0-.25,1.39l-.08.71,0,.32C66.82,173.27,66.9,173.34,66.95,173.33Zm-.48.65a1.26,1.26,0,0,1-.12-.32l-.05-.18-.1-.37-.13-.74a14.31,14.31,0,0,1-.15-1.51,13.15,13.15,0,0,1,.28-3.07,10.89,10.89,0,0,1,3.06-5.55A13.29,13.29,0,0,1,74.78,159a15.4,15.4,0,0,1,3.14-.55A4.69,4.69,0,0,1,83,163.66a13.39,13.39,0,0,1-.87,3.16,12.47,12.47,0,0,1-3.81,5.13,13.34,13.34,0,0,1-5.68,2.6,12.26,12.26,0,0,1-3.08.24,14.45,14.45,0,0,1-1.52-.15l-.75-.14-.38-.09-.19-.05h0Z" transform="translate(-13.86 -16.71)"/><path class="cls-3" d="M60.25,157.11l.13,0,.26-.09.52-.2a10.49,10.49,0,0,0,1-.49A10.79,10.79,0,0,0,63.95,155a11,11,0,0,0,2.59-3.44,9,9,0,0,0,.93-4.09,5.24,5.24,0,0,0-.28-1.87,2,2,0,0,0-1-1,1.91,1.91,0,0,0-1.41-.06,2.47,2.47,0,0,0-.34.15L64,145a10.08,10.08,0,0,0-.85.61,8.8,8.8,0,0,0-2.62,3.23,9.28,9.28,0,0,0-.89,4.14,14.62,14.62,0,0,0,.22,2.25c.06.38.13.76.23,1.14l.16.56.07.25C60.14,157.11,60.21,157.14,60.25,157.11Zm-.16.65a1,1,0,0,1-.19-.21l-.09-.12-.18-.25-.32-.53a12.11,12.11,0,0,1-.57-1.11,11.27,11.27,0,0,1-.73-2.43,9.37,9.37,0,0,1,.56-5.2,11.06,11.06,0,0,1,3.09-4.21,12.41,12.41,0,0,1,1-.77l.55-.34a4.76,4.76,0,0,1,.72-.33,4.06,4.06,0,0,1,3.13.12,4.35,4.35,0,0,1,2.18,2.28,7.31,7.31,0,0,1,.4,2.83,10.56,10.56,0,0,1-1.36,5.08,10.9,10.9,0,0,1-3.46,3.72,9.8,9.8,0,0,1-2.22,1.13,11.49,11.49,0,0,1-1.18.36l-.6.12-.31,0-.16,0h0Z" transform="translate(-13.86 -16.71)"/><path class="cls-3" d="M66.18,199.59A80.93,80.93,0,0,0,67,186.18a67.12,67.12,0,0,0-1.41-13.51A40.76,40.76,0,0,0,60.4,160a41.42,41.42,0,0,0-9.18-10,.52.52,0,0,0-.71.74,72.06,72.06,0,0,1,7.74,10.57,39.44,39.44,0,0,1,4.51,12,91.28,91.28,0,0,1,1.66,13c.31,4.4.55,8.84,1.24,13.3a.26.26,0,0,0,.51,0Z" transform="translate(-13.86 -16.71)"/><circle class="cls-1" cx="295.4" cy="2.26" r="2.26"/><path class="cls-5" d="M172.24,82.35c5.44-2.22,16.6,18.25,16.6,18.25l11.28-18.37,6.31,2.54s-5.79,25.84-16.86,26.92-19.92-15.39-19.92-15.39S165.23,85.22,172.24,82.35Z" transform="translate(-13.86 -16.71)"/><path class="cls-6" d="M187.14,131.09c6.31,12,7.33,16.9,6.31,23.82s-7.73,15.87-7.73,15.87" transform="translate(-13.86 -16.71)"/><path class="cls-7" d="M168.55,82.18c-1.76,10.31-2.17,29.78-2.17,29.78l19.13.81s3.66-22.39,1.63-26.46" transform="translate(-13.86 -16.71)"/><path class="cls-6" d="M189.65,70.4c1.68,14-4.75,18.8-6.92,16" transform="translate(-13.86 -16.71)"/><path class="cls-8" d="M190.94,51.11a6,6,0,0,1,2.81,4.32c.43,3.33,3.13,4.08,3.15,5.75,0,1.29-2.18,1.42-2.5,2.56a9,9,0,0,1-8.78,7" transform="translate(-13.86 -16.71)"/><path class="cls-9" d="M191.38,64.5a3.91,3.91,0,0,0,1.89,1.93" transform="translate(-13.86 -16.71)"/><rect class="cls-5" x="191.57" y="58.11" width="1.21" height="2.23" rx="0.42" ry="0.42" transform="translate(-11.65 -23.48) rotate(2.03)"/><path class="cls-5" d="M172.48,77.07c5.44-2.22,16.6,18.25,16.6,18.25l21.28,1.77,3.09,7.43s-12.56.81-23.63,1.89S169.9,91,169.9,91,165.47,79.94,172.48,77.07Z" transform="translate(-13.86 -16.71)"/><path class="cls-6" d="M167.4,110.94c-5.09,12.62.82,84.87.82,84.87h14.65s7.32-69.4,2.24-84.06" transform="translate(-13.86 -16.71)"/><path class="cls-10" d="M190.3,50.66c-3.59,3.08-3.93,10.57-4.61,13.84-.88,4.19-2.24,8,1.47,8.25" transform="translate(-13.86 -16.71)"/><path class="cls-6" d="M171.49,70.6c-3.85-8.33.34-22.24,9.33-24,3-.59,6.64.83,8.33,1.41" transform="translate(-13.86 -16.71)"/><polyline class="cls-10" points="152.11 153.67 142.54 166.49 154.35 179.11"/><path class="cls-9" d="M218.75,94.54s1.57-1.85.95-2-2.46,2.31-2.46,2.31" transform="translate(-13.86 -16.71)"/><path class="cls-8" d="M214.94,102.54c3.78-2,14.49-8.78,12.93-10.32s-6.5,2.4-8.61,2.66-5.09.56-7.75,3.61" transform="translate(-13.86 -16.71)"/><path class="cls-6" d="M178.5,63.48c0,3.85,1.54,7.11,3.27,7.88" transform="translate(-13.86 -16.71)"/><line class="cls-10" x1="156.18" y1="103.6" x2="160.25" y2="111.33"/><path class="cls-6" d="M173.12,62.68c-2.56,9.36-.87,22.43,9,20.9" transform="translate(-13.86 -16.71)"/><path class="cls-7" d="M197.76,46h34.89a0,0,0,0,1,0,0V76a0,0,0,0,1,0,0H193.76a0,0,0,0,1,0,0V50A4,4,0,0,1,197.76,46Z"/><polyline class="cls-11" points="197.18 72.73 197.18 53.75 229.53 53.75 229.53 72.73 198.93 72.73"/><polyline class="cls-12" points="197.18 53.66 197.18 49.21 229.53 49.21 229.53 53.66 198.93 53.66"/><polyline class="cls-1" points="227.07 58.35 227.07 72.73 217.36 72.73 217.36 56.75 227.07 56.75"/><polyline class="cls-1" points="213.51 72.71 199.86 72.71 199.86 65.39 214.89 65.39 214.89 72.71"/><g class="cls-13"><path class="cls-14" d="M217.68,89.43H216v-1.6a.51.51,0,0,1,.51-.51h1.18Z" transform="translate(-13.86 -16.71)"/><path class="cls-14" d="M220.57,89.43h-1.69V87.06a.51.51,0,0,1,.51-.51h1.18Z" transform="translate(-13.86 -16.71)"/><path class="cls-14" d="M223.46,89.43h-1.69V86a.51.51,0,0,1,.51-.51h1.18Z" transform="translate(-13.86 -16.71)"/><path class="cls-14" d="M225,89.43h1.69v-4a.54.54,0,0,0-.54-.54H225Z" transform="translate(-13.86 -16.71)"/></g><polyline class="cls-1" points="213.51 63.15 199.86 63.15 199.86 56.66 214.89 56.66 214.89 63.15"/><path class="cls-7" d="M239,83.62a1.92,1.92,0,0,0-2.18,1.48,3.21,3.21,0,0,1-2.3,1.27,1.68,1.68,0,0,0-1.43,1.69h6Z" transform="translate(-13.86 -16.71)"/><polyline class="cls-15" points="219.69 63.07 222.14 59.4 224.95 63.01"/><path class="cls-16" d="M189.6,75.81h47.16a0,0,0,0,1,0,0v.45a2.12,2.12,0,0,1-2.12,2.12H191.31a1.71,1.71,0,0,1-1.71-1.71v-.86a0,0,0,0,1,0,0Z"/><path class="cls-17" d="M229.94,93.8h-5.8a1.28,1.28,0,0,1-1.28-1.28h8.37A1.28,1.28,0,0,1,229.94,93.8Z" transform="translate(-13.86 -16.71)"/><path class="cls-2" d="M223.82,79.86a9.11,9.11,0,0,1-.23-1.37c0-.46-.09-.92-.12-1.38a27.59,27.59,0,0,1-.08-2.76.07.07,0,0,1,.13,0,27.54,27.54,0,0,1,.32,2.75c0,.46.06.92.08,1.38a9.11,9.11,0,0,1,0,1.39,0,0,0,0,1-.07,0Z" transform="translate(-13.86 -16.71)"/><path class="cls-2" d="M223.82,79.87a6.18,6.18,0,0,1-.63-1c-.18-.33-.36-.67-.53-1s-.33-.69-.49-1a10.34,10.34,0,0,1-.43-1.06.07.07,0,0,1,.12-.06,10.34,10.34,0,0,1,.6,1l.54,1c.17.34.34.68.5,1a6.18,6.18,0,0,1,.39,1.08,0,0,0,0,1,0,0Z" transform="translate(-13.86 -16.71)"/><path class="cls-2" d="M223.83,79.88A10,10,0,0,1,222.7,79c-.35-.33-.7-.66-1-1-.67-.69-1.37-1.36-2-2.11a.07.07,0,0,1,.09-.09c.77.6,1.45,1.28,2.15,1.94.35.34.68.68,1,1a10,10,0,0,1,.94,1.11,0,0,0,0,1,0,0Z" transform="translate(-13.86 -16.71)"/><path class="cls-2" d="M223.84,79.89a5.22,5.22,0,0,1-1-.27l-1-.38-1-.42a8.7,8.7,0,0,1-.93-.48.07.07,0,0,1,0-.12,8.7,8.7,0,0,1,1,.31l1,.37,1,.41a5.22,5.22,0,0,1,.92.52,0,0,0,0,1,0,0Z" transform="translate(-13.86 -16.71)"/><path class="cls-2" d="M225.25,74.92A7.87,7.87,0,0,1,225,76.2c-.1.42-.2.83-.32,1.24a23.78,23.78,0,0,1-.8,2.44.07.07,0,0,1-.13,0,23.76,23.76,0,0,1,.57-2.5c.11-.41.23-.82.36-1.23a7.87,7.87,0,0,1,.47-1.2,0,0,0,0,1,.06,0Z" transform="translate(-13.86 -16.71)"/><path class="cls-2" d="M227,75.76a8,8,0,0,1-.67,1.11c-.25.35-.5.7-.76,1a24.06,24.06,0,0,1-1.65,2,.07.07,0,0,1-.11-.08,24.06,24.06,0,0,1,1.46-2.13c.26-.34.52-.68.79-1a8,8,0,0,1,.88-.95,0,0,0,0,1,.05,0Z" transform="translate(-13.86 -16.71)"/><path class="cls-2" d="M227.83,77.4a6.46,6.46,0,0,1-.92.73c-.32.22-.65.43-1,.64l-1,.6a10.78,10.78,0,0,1-1,.54.07.07,0,0,1-.07-.11,10.79,10.79,0,0,1,.94-.7l1-.64c.33-.21.66-.41,1-.6a6.46,6.46,0,0,1,1.06-.51,0,0,0,0,1,0,.06Z" transform="translate(-13.86 -16.71)"/><path class="cls-17" d="M244.5,70.44c-2.87.28-5.74.28-8.61.31l-8.61.09h-8.61c-2.87,0-5.74,0-8.61-.22v-.17c2.87-.28,5.74-.28,8.61-.31l8.61-.09h8.61c2.87,0,5.74,0,8.61.22Z" transform="translate(-13.86 -16.71)"/><path class="cls-9" d="M209,75.78s1.65-1.77,1.89-1.17-2,2.71-2,2.71" transform="translate(-13.86 -16.71)"/><path class="cls-8" d="M201.53,80.48c1.57-4,7.06-15.4,8.77-14s-1.64,6.74-1.65,8.86,0,5.12-2.7,8.11" transform="translate(-13.86 -16.71)"/><polygon class="cls-2" points="262.68 64.69 253.69 64.69 252.2 44.27 262.68 44.27 262.68 64.69"/><path class="cls-18" d="M285.92,78.54C290.41,78,302.49,93.15,304.74,99s-12.36,9.27-12.36,9.27" transform="translate(-13.86 -16.71)"/><path class="cls-19" d="M301.67,151.77S310.18,168,309,183.33l-1.4,4.07-26.87-37" transform="translate(-13.86 -16.71)"/><path class="cls-19" d="M269.34,148.92s1.9,38.35,4,44.88l8-.21c.42-13.48,5.06-30.76,5.48-48" transform="translate(-13.86 -16.71)"/><path class="cls-1" d="M247.23,66.73" transform="translate(-13.86 -16.71)"/><path class="cls-20" d="M266.15,70.84a9.16,9.16,0,0,0,4.11-.17c.13,0,.19.13.09.21L267,74.48l-.9-3.86" transform="translate(-13.86 -16.71)"/><path class="cls-19" d="M268.46,47.59c-4.56-.22-8.75,2-9.41,6-.6,3.62-3.59,4.34-3.68,6.17-.07,1.41,2.34,1.64,2.64,2.9,1.07,4.47,4.37,7.78,9.34,8a7.84,7.84,0,0,0,2.87-.23" transform="translate(-13.86 -16.71)"/><path class="cls-21" d="M261.29,63.64a4.29,4.29,0,0,1-2.14,2" transform="translate(-13.86 -16.71)"/><rect class="cls-5" x="259.96" y="56.61" width="1.32" height="2.45" rx="0.52" ry="0.52" transform="translate(507.38 98.96) rotate(-180)"/><path class="cls-15" d="M266.61,75.8c12.4-3.93,17.71-1.08,22.44,6.11,7.69,11.69,3.3,14.61,6.11,25.28s9.38,15.28,8.11,45.73H267.66s-3.37-35.09-2.32-45.31" transform="translate(-13.86 -16.71)"/><path class="cls-15" d="M272.94,192.15c-1.86.64-7.8,1.78-9.59,2.37a1.35,1.35,0,0,0,.43,2.64h16a3,3,0,0,0,3-3.46l-.26-1.81Z" transform="translate(-13.86 -16.71)"/><path class="cls-15" d="M303.44,183.14s8.27,14.52,11,13.92c1.67-.36-1-7.43-1.86-10.74-.61-2.31-1.13-3.82-3.5-3.58Z" transform="translate(-13.86 -16.71)"/><path class="cls-19" d="M259.37,88.65A17.66,17.66,0,0,1,255,83.55c-2.85-5-10-13.59-11.83-11.33s1.38,10.17,4.07,11.52c2,6.32,12.15,27.73,18.26,26s11-34.16,2.53-33.73S259,95.11,259,95.11" transform="translate(-13.86 -16.71)"/><path class="cls-5" d="M289.16,67.91A14.34,14.34,0,0,0,286,64.28a5.5,5.5,0,0,1-2-3.46,12.49,12.49,0,0,0-1.85-5,10,10,0,0,0-5.64-3.8c-2-3.62-3.88-4.15-6.44-4.91a11.13,11.13,0,0,0-8.15,1.12c-.56,4.67,1.28,9.93,5.66,10.22-.76,3.56,1.3,8.45,5.27,9.61a13.08,13.08,0,0,0,2,8.74c3.27,5.29,9.12,7.6,13.09,5.15S292.42,73.2,289.16,67.91Z" transform="translate(-13.86 -16.71)"/><path class="cls-22" d="M111.91,221.49c4.3.1,17.52,1,19.46,1.64s2.15,1-.31,1.54-19.26,0-19.26,0v-3.18Z" transform="translate(-13.86 -16.71)"/><path class="cls-22" d="M121.24,221.49c4.3.1,17.52,1,19.46,1.64s2.15,1.84-.31,2.36-19.26,0-19.26,0v-4h.1Z" transform="translate(-13.86 -16.71)"/><path class="cls-8" d="M125.4,84.58a7.83,7.83,0,0,0,2.82-.56c4.71-1.58,7-5.64,6.8-10.24-.05-1.3,2.19-2.17,1.75-3.5-.57-1.73-3.65-1.61-5.2-4.93-1.74-3.73-6.36-4.68-10.67-3.24a11.54,11.54,0,0,0-7.29,14.61h0" transform="translate(-13.86 -16.71)"/><path class="cls-23" d="M124.15,70.14c1.68,4.21,1.26,11.27-3.07,12.9s-7.45-6.31-7.45-6.31Z" transform="translate(-13.86 -16.71)"/><path class="cls-22" d="M112,131.2c-3.79,29.24-.6,91.71-.6,91.71h14.28l1.26-52.38" transform="translate(-13.86 -16.71)"/><path class="cls-24" d="M135.37,130.57s1.57,22.16,2.32,45c.62,19.11-1.67,39.28-1.48,48H120.65c.22-47.34-9.07-66.69-8.65-92.35" transform="translate(-13.86 -16.71)"/><path class="cls-16" d="M110.85,98.93c-1.71,16,1.15,32.28,1.15,32.28l23.56-.64-.35-14.44-5.44-2.94,6.66-12.9L132,95.66l-6.71-6.92a11.82,11.82,0,0,0-14.45,10.19Z" transform="translate(-13.86 -16.71)"/><path class="cls-8" d="M124.85,108.91c9.22,8,18.3,10.31,22.09,7.17,5.65-4.71-4.38-23.36-5.05-26.08-2.32-9.47-7.57-9.47-8.83-8.41s1.26,6.93,1.26,6.93l2.32,12.6" transform="translate(-13.86 -16.71)"/><line class="cls-9" x1="117.3" y1="79.37" x2="125.92" y2="87.58"/><polyline class="cls-9" points="112.25 72.01 111.27 68.01 113.52 68.15"/><path class="cls-25" d="M131.58,130.16c-7.17,3.16-21,1.48-21,1.48" transform="translate(-13.86 -16.71)"/><path class="cls-24" d="M135.57,135.71a25.61,25.61,0,0,1-5,6.31" transform="translate(-13.86 -16.71)"/><line class="cls-10" x1="99" y1="61.08" x2="122.13" y2="45.3"/><path class="cls-9" d="M132.22,77.43a4.61,4.61,0,0,0,1.88-.26" transform="translate(-13.86 -16.71)"/><rect class="cls-5" x="129.91" y="70.03" width="1.32" height="2.43" rx="0.66" ry="0.66" transform="translate(-24.59 8.06) rotate(-10.41)"/><line class="cls-1" x1="613.62" y1="154.6" x2="617.69" y2="188.02"/><path class="cls-3" d="M627.68,171.28a55.2,55.2,0,0,1,1.82,8.26l.61,4.16.53,4.18q.47,4.18.86,8.37c.25,2.8.45,5.6.44,8.43a.4.4,0,0,1-.79.1c-.69-2.74-1.17-5.51-1.59-8.29s-.81-5.55-1.17-8.34L627.9,184l-.4-4.19a55.2,55.2,0,0,1-.21-8.45.2.2,0,0,1,.4,0Z" transform="translate(-13.86 -16.71)"/><path class="cls-1" d="M493.13,136.76c-16.77,2.4-30.37,10.87-32.05,18.75s-2.26,9.81-2.26,9.81" transform="translate(-13.86 -16.71)"/><path class="cls-3" d="M493.16,137a84.63,84.63,0,0,0-11.64,3.43,56,56,0,0,0-10.73,5.33,30.37,30.37,0,0,0-4.61,3.68,15.82,15.82,0,0,0-3.38,4.55,9.27,9.27,0,0,0-.48,1.27c-.12.4-.21.91-.34,1.41l-.74,3a27.16,27.16,0,0,1-2,5.84.41.41,0,0,1-.77-.21v0a42.38,42.38,0,0,1,.8-6.06l.56-3a12.15,12.15,0,0,1,1-3.15,17.73,17.73,0,0,1,3.89-5.2,32.54,32.54,0,0,1,5-3.84A47.92,47.92,0,0,1,481,138.83a53.29,53.29,0,0,1,12.12-2.26.2.2,0,0,1,.06.4Z" transform="translate(-13.86 -16.71)"/><path class="cls-1" d="M493.13,153.11s-.88-11.11.11-19l1.93-15.46a12.92,12.92,0,0,1,12.63-11.53H623.59c7.69,0,13.62,7,12.63,14.94l-1.93,15.46a13.39,13.39,0,0,1-3.88,7.91" transform="translate(-13.86 -16.71)"/><path class="cls-2" d="M492.93,153.12a101.37,101.37,0,0,1-.86-13.52,59.44,59.44,0,0,1,.42-6.8l.74-6.7.81-6.69a19.87,19.87,0,0,1,.66-3.49,15.52,15.52,0,0,1,1.5-3.3,14.1,14.1,0,0,1,5.23-5,13.82,13.82,0,0,1,7-1.66l53.94.07,53.94.17,6.74,0a14.28,14.28,0,0,1,3.54.37,13.61,13.61,0,0,1,3.34,1.31A14.07,14.07,0,0,1,637,119.59a17.48,17.48,0,0,1-.24,3.48l-.45,3.34-.92,6.68-.46,3.34a19.14,19.14,0,0,1-.65,3.38,13.77,13.77,0,0,1-3.6,5.87.4.4,0,0,1-.56-.57,12.88,12.88,0,0,0,3.24-5.58,18.13,18.13,0,0,0,.54-3.24l.38-3.35.75-6.7.39-3.35a16.1,16.1,0,0,0,.17-3.24,12.56,12.56,0,0,0-6.46-10.33,12,12,0,0,0-2.94-1.1,13.21,13.21,0,0,0-3.16-.28l-6.74,0-53.94.17-53.94.07c-.58,0-1.08,0-1.59,0a11.35,11.35,0,0,0-1.51.23,10.93,10.93,0,0,0-2.87,1.06,11.94,11.94,0,0,0-4.46,4.18,13.45,13.45,0,0,0-1.31,2.81,17.66,17.66,0,0,0-.61,3.12l-.87,6.69-.94,6.68c-.34,2.22-.54,4.4-.68,6.63s-.22,4.46-.24,6.7,0,4.49,0,6.73a.2.2,0,0,1-.19.21A.2.2,0,0,1,492.93,153.12Z" transform="translate(-13.86 -16.71)"/><rect class="cls-1" x="444.95" y="140.72" width="160.39" height="15.8" rx="6" ry="6"/><path class="cls-3" d="M613.21,173.43q-42.76.56-85.52.71l-42.76.12h-20a8,8,0,0,1-1.55-.15,7.07,7.07,0,0,1-5.61-6.73l0-2.7v-1.35a7.32,7.32,0,0,1,.19-1.57,7.19,7.19,0,0,1,1.38-2.83,7.11,7.11,0,0,1,5.54-2.65l85.52.16,42.76.24,10.69.06,5.34,0,2.67,0h1.34a7.47,7.47,0,0,1,1.45.16,6.54,6.54,0,0,1,5.13,6.28l0,2.68v1.34a6.68,6.68,0,0,1-.19,1.43,6.43,6.43,0,0,1-6.28,4.9Zm0-.6a5.56,5.56,0,0,0,5.38-4.32,5.76,5.76,0,0,0,.14-1.22V166l0-2.66a5.45,5.45,0,0,0-4.35-5.17,6.28,6.28,0,0,0-1.21-.11H611.8l-2.67,0-5.34,0-10.69.06-42.76.24-85.52.16a4.89,4.89,0,0,0-4.75,3.73,5.12,5.12,0,0,0-.14,1.08v4a4.92,4.92,0,0,0,3.87,4.72,5.76,5.76,0,0,0,1.11.12h20l42.76.12q42.76.13,85.52.71Z" transform="translate(-13.86 -16.71)"/><line class="cls-1" x1="449.02" y1="154.6" x2="444.95" y2="188.02"/><path class="cls-3" d="M463.08,171.33a55.26,55.26,0,0,1-.21,8.45l-.4,4.19-.49,4.18q-.54,4.17-1.17,8.34c-.42,2.77-.91,5.54-1.59,8.29a.4.4,0,0,1-.79-.1c0-2.83.19-5.63.44-8.43s.55-5.59.86-8.37l.53-4.18.61-4.16a55.26,55.26,0,0,1,1.82-8.26.2.2,0,0,1,.4,0Z" transform="translate(-13.86 -16.71)"/><line class="cls-1" x1="584.31" y1="154.6" x2="580.24" y2="188.02"/><path class="cls-2" d="M598.37,171.33a55.2,55.2,0,0,1-.21,8.45l-.4,4.19-.49,4.18q-.54,4.17-1.17,8.34c-.42,2.77-.91,5.54-1.59,8.29a.4.4,0,0,1-.79-.1c0-2.83.18-5.63.44-8.43s.55-5.59.86-8.37l.53-4.18.61-4.16a55.2,55.2,0,0,1,1.82-8.26.2.2,0,0,1,.4,0Z" transform="translate(-13.86 -16.71)"/><path class="cls-2" d="M585.62,90.53a3.67,3.67,0,0,0-1.93,2.65c-4.38.6-6.2-1.83-7.85-5.66-.47-1.08-2.6-.9-2.77-2.17-.21-1.65,2.29-2.78,2.23-6.13,0-1.88.35-4.33,2.1-4.67,0,0,13.56,3.25,17.74,7.67,1.87,5.14-1.69,6.66-1.69,6.66S587.49,89.33,585.62,90.53Z" transform="translate(-13.86 -16.71)"/><path class="cls-7" d="M561.65,161l1.95,34.5a3.19,3.19,0,0,1-2.24,3c-2.31.74-5.52,2.29-5,5.16.12.72,6.13,0,10.71-.69a6.88,6.88,0,0,0,5.82-5.88l3.93-34.47" transform="translate(-13.86 -16.71)"/><path class="cls-7" d="M576.26,162.45l3.41,31.8a3.19,3.19,0,0,1-2,3.17c-2.24.92-5.32,2.73-4.6,5.55.18.71,6.11-.51,10.62-1.55a6.88,6.88,0,0,0,5.32-6.33l2.45-32.24" transform="translate(-13.86 -16.71)"/><path class="cls-10" d="M591.67,89c-7.22-1.27-9.44,6.81-9.44,6.81" transform="translate(-13.86 -16.71)"/><path class="cls-10" d="M588.13,96.65c-3-.4-9.2-.4-10,3.26a4.85,4.85,0,0,0,1.85,4.64" transform="translate(-13.86 -16.71)"/><path class="cls-10" d="M589.46,93.2c3.73-2.59,8-3.87,10.74-1.17,1.18,1.17.86,4.41-1.81,6.25" transform="translate(-13.86 -16.71)"/><path class="cls-26" d="M595.28,67.37h2.43a1.8,1.8,0,0,1,1.8,1.8V71.6a1.8,1.8,0,0,1-1.8,1.8h-4.23a0,0,0,0,1,0,0V69.17a1.8,1.8,0,0,1,1.8-1.8Z" transform="translate(-10.96 -38.01) rotate(2.05)"/><path class="cls-27" d="M577.66,70.34c-2.24.89-3.41,3.45-3.74,5.47-.58,3.59-3.47,4.31-3.56,6.12-.07,1.4,2.25,1.62,2.55,2.88,1,4.43,4.21,7.71,9,7.94" transform="translate(-13.86 -16.71)"/><path class="cls-28" d="M576.69,87.54a3.87,3.87,0,0,1-2.15.7" transform="translate(-13.86 -16.71)"/><path class="cls-26" d="M577.35,69.38c-3.21,2.21-3.89,4.15-3.83,4.35l5,1.66,1.67,6.49a6.22,6.22,0,0,0,6.72,4.43l8.2.74c.59-.08,2.28-7.95-1.77-13.76C588.67,66.55,580.93,66.91,577.35,69.38Z" transform="translate(-13.86 -16.71)"/><path class="cls-5" d="M576,82.22h0a.69.69,0,0,0,.68-.7V80.34a.69.69,0,0,0-.68-.7h0a.69.69,0,0,0-.68.7v1.18A.69.69,0,0,0,576,82.22Z" transform="translate(-13.86 -16.71)"/><path class="cls-7" d="M575.18,116.11s-6.2-8.21-7.71-10.88c-2.29-4-8.07-10.93-9.51-9.11s1.11,8.18,3.28,9.26c1.58,5.08,9.77,22.31,14.69,20.94s20.48-23.84,13.7-23.5S575.18,116.11,575.18,116.11Z" transform="translate(-13.86 -16.71)"/><path class="cls-29" d="M582.27,109.53l1.47,15.68s8.5,22.14,1.44,13.7c9.31,11.14,20.51-2.7,20.76-15.63.28-14.27-4.58-24-10.18-26.8-3.07-1.53-7.56-.15-9.83,2.26A14.29,14.29,0,0,0,582.27,109.53Z" transform="translate(-13.86 -16.71)"/><path class="cls-29" d="M583.74,125.21s1.48,17.77-7.29,19.64c-21,4.47-18.11,24.06-17.66,28.38.38,3.56,27.45,6.23,35.3,1.4,4.15-2.55-6-14,1.06-16.44,5.78-2,12.58,2.29,17.83-4.33,7-8.82-7-30.57-7-30.57Z" transform="translate(-13.86 -16.71)"/><path class="cls-7" d="M590.73,100.62c-5.49,2.07-.73,27.25-.73,27.25l-5,22.27,1.81.42a7.66,7.66,0,0,0,9.09-5.36l4.35-15.27S600.2,97,590.73,100.62Z" transform="translate(-13.86 -16.71)"/><path class="cls-1" d="M634.29,137.49c-16.77,2.4-30.37,10.87-32.05,18.75s-4.07,17-4.07,17h32.09Z" transform="translate(-13.86 -16.71)"/><path class="cls-2" d="M634,137.66c-.52.15-.92.28-1.43.39s-1.14.25-1.71.39c-1.13.28-2.26.57-3.38.91a62,62,0,0,0-6.58,2.29A46.07,46.07,0,0,0,609,148.5a20.26,20.26,0,0,0-4.47,4.94,9.88,9.88,0,0,0-1.22,2.92l-.74,3.44c-1,4.6-2.14,9.16-3.31,13.73l-1.1-1.42,32.09.12-1,.9c.68-5.82,1.45-11.61,2.27-17.49L634,137.77Zm.53-.33L633,155.09c-.52,6-1.09,12.16-1.75,18.25a1,1,0,0,1-1,.9h0l-32.09.12a1.13,1.13,0,0,1-1.14-1.13,1.18,1.18,0,0,1,0-.3c1.19-4.52,2.3-9.08,3.37-13.63l.79-3.43a12,12,0,0,1,1.53-3.53,21.68,21.68,0,0,1,5-5.38,39,39,0,0,1,6.08-3.86,46.87,46.87,0,0,1,6.56-2.82,59.84,59.84,0,0,1,6.85-1.93c1.16-.25,2.32-.45,3.49-.63.58-.1,1.17-.17,1.75-.25s1.34-.11,1.93-.13Z" transform="translate(-13.86 -16.71)"/><path class="cls-1" d="M476,115.66s-7.32,12.82-3.36,16.17,13.31-4.2,13.55-7.14S476,115.66,476,115.66Z" transform="translate(-13.86 -16.71)"/><path class="cls-16" d="M478.79,145.19c-2.19,6.63-.79,8.81.45,13.95.26,1.09,2,9.53,3.78,9.83s4.85-4.43,9.33-5.21,11,1.41,12.5,1.15-1.69-6-1.69-6l5.14,7.39c-.35.42.5-4.65,9.07-6.13,5.25-.91,9,3.58,10.44,2.86,5.08-2.59-9.83-19.21-13.62-21-7.69-3.64-3.26-6.23-.57-7.28h-31.8S479.58,142.81,478.79,145.19Z" transform="translate(-13.86 -16.71)"/><path class="cls-30" d="M479,157.16a2.94,2.94,0,0,1,1.18-.46l1.21-.33c.81-.22,1.61-.45,2.43-.65s1.63-.4,2.44-.59a8.57,8.57,0,0,1,2.51-.33.15.15,0,0,1,.07.29,8.57,8.57,0,0,1-2.36.93c-.81.23-1.61.46-2.42.66s-1.63.4-2.44.6l-1.22.3a2.94,2.94,0,0,1-1.26.16.33.33,0,0,1-.15-.57Z" transform="translate(-13.86 -16.71)"/><path class="cls-30" d="M480.31,160.78a3.3,3.3,0,0,1,1.25-.48l1.29-.35,1.29-.35.64-.17a3.89,3.89,0,0,0,.56-.19,3.33,3.33,0,0,0,1.65-1.57,4.36,4.36,0,0,0,.35-1.12c.08-.38.08-.84.19-1.29h0a.15.15,0,0,1,.29,0,4,4,0,0,1,.3,1.37,3.43,3.43,0,0,1-.31,1.45,4,4,0,0,1-2.08,2.09,4.91,4.91,0,0,1-.71.24l-.65.16-1.3.31-1.3.31a3.3,3.3,0,0,1-1.33.18.33.33,0,0,1-.15-.57Z" transform="translate(-13.86 -16.71)"/><path class="cls-30" d="M513.24,147.31c.2-.22.43-.16.64-.19l.65,0c.43,0,.87,0,1.3,0a11.63,11.63,0,0,1,1.29.17,2.13,2.13,0,0,1,1.23.52.17.17,0,0,1,0,.24l-.06,0h0a2.61,2.61,0,0,1-1.28.1l-1.24-.08c-.41,0-.83-.06-1.24-.07l-.62,0c-.21,0-.41.07-.63-.13h0a.41.41,0,0,1,0-.57Z" transform="translate(-13.86 -16.71)"/><path class="cls-30" d="M513.39,201.41a1.05,1.05,0,0,0,1,.92c13.31.07,16.71,1.62,17.47-.83.65-2.11-13.3-4.12-17.76-4.71A1.05,1.05,0,0,0,513,198Z" transform="translate(-13.86 -16.71)"/><path class="cls-30" d="M522.68,115c-.21-.35-.1-.67-.11-1s0-.67,0-1c0-.67-.05-1.34-.07-2l-.08-2a5.76,5.76,0,0,1,.14-2.05h0a.17.17,0,0,1,.32,0,4.89,4.89,0,0,1,.53,2c.08.68.14,1.37.17,2.05s0,1.38,0,2.07c0,.35,0,.69,0,1a1.76,1.76,0,0,1-.23,1,.38.38,0,0,1-.63,0Z" transform="translate(-13.86 -16.71)"/><path class="cls-30" d="M514.38,114.13c.27,1.91.36,3.83.5,5.74s.33,3.82.66,5.68a21.72,21.72,0,0,0,.64,2.74,8.23,8.23,0,0,0,1.16,2.43,3.43,3.43,0,0,0,2,1.36,4.64,4.64,0,0,0,1.29.08,5.5,5.5,0,0,0,.65-.08,2.57,2.57,0,0,0,.57-.18,5.82,5.82,0,0,0,2-1.67,16.87,16.87,0,0,0,1.57-2.3,39.86,39.86,0,0,0,2.4-5.16,88.28,88.28,0,0,0,3.39-11,.5.5,0,0,1,.23-.31h0a4.17,4.17,0,0,0,1.07-1,4.06,4.06,0,0,0,.71-1.28,5.31,5.31,0,0,0,.08-3l-.16-.84a2.27,2.27,0,0,1,0-.45,3.41,3.41,0,0,1,0-.45,2.34,2.34,0,0,1,.85-1.64,3.17,3.17,0,0,1,1.66-.61,5.72,5.72,0,0,1,1.69.07.16.16,0,0,1,0,.32h0c-.36.89-1.06,0-1.57.1a2.79,2.79,0,0,0-1.32.61,1.65,1.65,0,0,0-.53,1.21,2.69,2.69,0,0,0,0,.36,1.66,1.66,0,0,0,0,.36l.19.76a6,6,0,0,1,0,3.47,5,5,0,0,1-.84,1.58,5,5,0,0,1-1.36,1.21l.24-.32a89.27,89.27,0,0,1-3.37,11.11,40.91,40.91,0,0,1-2.44,5.31,17.93,17.93,0,0,1-1.66,2.47,6.8,6.8,0,0,1-2.41,2,3.63,3.63,0,0,1-.8.25,6.53,6.53,0,0,1-.78.09,5.7,5.7,0,0,1-1.58-.11,4.49,4.49,0,0,1-2.65-1.77,9.23,9.23,0,0,1-1.31-2.75,22.68,22.68,0,0,1-.66-2.88c-.33-1.93-.5-3.86-.64-5.78a49.55,49.55,0,0,1-.17-5.78.32.32,0,0,1,.64,0Z" transform="translate(-13.86 -16.71)"/><path class="cls-17" d="M502.08,61.66a2.08,2.08,0,0,1,.08.5c.45,4.4-8.68,13.09-12.81,9-2.08-2.07,1.46-10.85,9.83-10.09" transform="translate(-13.86 -16.71)"/><path class="cls-17" d="M496.24,85.35c0-1.56,2-2.82,4.44-2.82s4.44,1.26,4.44,2.82" transform="translate(-13.86 -16.71)"/><rect class="cls-17" x="481.7" y="56.09" width="1.61" height="2.87" rx="0.61" ry="0.61"/><path class="cls-17" d="M491.13,74.67a42.86,42.86,0,0,1,.2,4.49,15.06,15.06,0,0,0,.21,2.17,4.11,4.11,0,0,0,.74,1.84,3,3,0,0,0,.71.62,4.45,4.45,0,0,0,.92.41,10.37,10.37,0,0,0,2.1.42c1.46.15,2.95.18,4.44.2a18.48,18.48,0,0,0,4.36-.35,6.56,6.56,0,0,0,1.94-.74,4,4,0,0,0,1.39-1.42,6.21,6.21,0,0,0,.69-2,18.63,18.63,0,0,0,.27-2.17c.11-1.48.16-3,.3-4.49a.16.16,0,0,1,.32,0A42.66,42.66,0,0,1,510,78.2a14.85,14.85,0,0,1-.19,2.31A7.09,7.09,0,0,1,509,82.8a5,5,0,0,1-1.71,1.8,7.58,7.58,0,0,1-2.24.91,19,19,0,0,1-4.61.4,40,40,0,0,1-4.56-.22,11.37,11.37,0,0,1-2.31-.48,5.49,5.49,0,0,1-1.13-.52,4.08,4.08,0,0,1-1-.86,5.1,5.1,0,0,1-.93-2.3,16,16,0,0,1-.21-2.32,27.6,27.6,0,0,1,.15-4.53.33.33,0,0,1,.64,0Z" transform="translate(-13.86 -16.71)"/><path class="cls-30" d="M501.31,73.54a3.92,3.92,0,0,1,.24,1.23,3.47,3.47,0,0,1-.13,1.23.37.37,0,0,1-.7,0,3.47,3.47,0,0,1-.13-1.23,3.92,3.92,0,0,1,.24-1.23.26.26,0,0,1,.48,0Z" transform="translate(-13.86 -16.71)"/><rect class="cls-17" x="490.93" y="56.09" width="1.61" height="2.87" rx="0.61" ry="0.61"/><path class="cls-30" d="M499,80.78a4.8,4.8,0,0,0,1,.19,10.27,10.27,0,0,0,1.05,0,9.47,9.47,0,0,0,1-.06,3.52,3.52,0,0,0,.9-.21l.06,0a.35.35,0,0,1,.39.57,2.34,2.34,0,0,1-1.18.6,4.67,4.67,0,0,1-1.22.1,5,5,0,0,1-1.2-.2,2.73,2.73,0,0,1-1.11-.6.24.24,0,0,1,.24-.41Z" transform="translate(-13.86 -16.71)"/><path class="cls-30" d="M503.58,69.54a1.75,1.75,0,0,1,.89-.53,3.45,3.45,0,0,1,.95-.13,3.33,3.33,0,0,1,1,.13,2,2,0,0,1,.89.52.35.35,0,0,1-.37.58l-.06,0a6.08,6.08,0,0,0-1.45-.25c-.26,0-.52,0-.78,0a3.33,3.33,0,0,0-.71.08l-.08,0a.24.24,0,0,1-.24-.38Z" transform="translate(-13.86 -16.71)"/><path class="cls-30" d="M498,69.9a3.33,3.33,0,0,0-.71-.08c-.26,0-.52,0-.78,0a6.08,6.08,0,0,0-1.45.25l-.06,0a.35.35,0,0,1-.37-.58,2,2,0,0,1,.89-.52,3.33,3.33,0,0,1,1-.13,3.45,3.45,0,0,1,.95.13,1.75,1.75,0,0,1,.89.53.24.24,0,0,1-.24.38Z" transform="translate(-13.86 -16.71)"/><path class="cls-17" d="M501.9,78.24c-.32-1.53-4.8.19-4.37,1.43S502.18,79.58,501.9,78.24Z" transform="translate(-13.86 -16.71)"/><path class="cls-17" d="M500.23,78.24c.32-1.53,4.8.19,4.37,1.43S499.94,79.58,500.23,78.24Z" transform="translate(-13.86 -16.71)"/><path class="cls-17" d="M501.9,78.24c-.32-1.53-4.8.19-4.37,1.43S502.18,79.58,501.9,78.24Z" transform="translate(-13.86 -16.71)"/><path class="cls-17" d="M500.23,78.24c.32-1.53,4.8.19,4.37,1.43S499.94,79.58,500.23,78.24Z" transform="translate(-13.86 -16.71)"/><path class="cls-17" d="M499.71,63.7c3.39.4,7.31,3.24,9.38,8a.9.9,0,0,0,1.7-.12A8.57,8.57,0,0,0,501.22,61l-2.71.62" transform="translate(-13.86 -16.71)"/><path class="cls-7" d="M491.3,115.46,484,118.64l-10.62-5.17c7.78-22.49,20.88-23.63,20.88-23.63l6.07,4.08,6.17-4.08c14,3.46,18.85,20.69,18.85,26.19l-10.43,2.8.89,24H479.06l.55-10.34s11.79-10.63,13.12-11.86" transform="translate(-13.86 -16.71)"/><path class="cls-1" d="M497.08,110.13c.62-1.78-.62-2.56-1.51-1.59l-1.45,2.88" transform="translate(-13.86 -16.71)"/><path class="cls-1" d="M473.74,134c5.6,2,19-13.28,19-13.28s3.61,0,4.55-4.27c.65-2.95,3.21-2.2,4.73-1.46a.8.8,0,0,0,1.16-.72h0a3.89,3.89,0,0,0-3.07-3.84,7.67,7.67,0,0,0-7,2.31l2.47-4.18-4.27,6.93-12.24,5.31" transform="translate(-13.86 -16.71)"/><path class="cls-30" d="M492.87,112.49a2.44,2.44,0,0,1,.84-1l.52-.42.55-.39a6.37,6.37,0,0,1,2.53-1,5.6,5.6,0,0,1,2.73.27,4.31,4.31,0,0,1,2.18,1.51.17.17,0,0,1-.18.26h0c-.84-.25-1.54-.59-2.29-.82a5.27,5.27,0,0,0-2.26-.15,6.06,6.06,0,0,0-2.15.8l-.5.33-.48.36-.46.39a1.29,1.29,0,0,1-.55.32h0a.36.36,0,0,1-.44-.45Z" transform="translate(-13.86 -16.71)"/><path class="cls-30" d="M495.84,112.84c.11-.37.43-.5.68-.7a9.11,9.11,0,0,1,.84-.51,5.75,5.75,0,0,1,1.9-.66,4.2,4.2,0,0,1,2.06.19,2.57,2.57,0,0,1,1.56,1.25.18.18,0,0,1-.2.25h0c-.65-.15-1.13-.39-1.65-.54a3.89,3.89,0,0,0-1.6-.08,6,6,0,0,0-1.59.5,8.07,8.07,0,0,0-.76.42c-.26.14-.44.38-.82.38h0a.39.39,0,0,1-.39-.4A.42.42,0,0,1,495.84,112.84Z" transform="translate(-13.86 -16.71)"/><path class="cls-30" d="M485.12,117.85c0-.41.24-.64.38-.94s.32-.59.48-.88c.31-.59.59-1.21.9-1.81l.89-1.82a5.76,5.76,0,0,1,1.1-1.74h0a.17.17,0,0,1,.3.12,4.89,4.89,0,0,1-.49,2c-.26.64-.53,1.27-.83,1.89s-.63,1.22-1,1.83c-.18.3-.35.6-.53.89s-.31.63-.69.79a.38.38,0,0,1-.54-.33Z" transform="translate(-13.86 -16.71)"/><path class="cls-30" d="M515.79,107a12.31,12.31,0,0,1,1.43,4.37,12.63,12.63,0,0,1-.16,4.65,30,30,0,0,1-1.49,4.3,4.08,4.08,0,0,0-.16.5l-.07.24,0,.23a3.06,3.06,0,0,0,0,.51v.55q0,1.11,0,2.23c.1,3,.26,6,.43,9s.36,6,.3,9a.16.16,0,0,1-.32,0,87.07,87.07,0,0,1-1-9c-.21-3-.41-6-.52-9q0-1.13,0-2.27l0-.58a3.89,3.89,0,0,1,0-.61l0-.32.08-.3a5,5,0,0,1,.18-.57c.27-.74.58-1.41.84-2.1a14.62,14.62,0,0,0,.65-2.07,11.61,11.61,0,0,0,.19-4.28,41.82,41.82,0,0,0-1-4.25h0a.33.33,0,0,1,.6-.24Z" transform="translate(-13.86 -16.71)"/><path class="cls-30" d="M476.41,114.37c-.67,1.81-1.51,3.54-2.29,5.29S472.6,123.18,472,125a21.72,21.72,0,0,0-.74,2.72,8.23,8.23,0,0,0-.13,2.69,3.43,3.43,0,0,0,1.15,2.17,4.64,4.64,0,0,0,1.09.68,5.5,5.5,0,0,0,.61.24,2.57,2.57,0,0,0,.59.11,5.82,5.82,0,0,0,2.55-.52,16.87,16.87,0,0,0,2.48-1.28,39.86,39.86,0,0,0,4.56-3.4,88.28,88.28,0,0,0,8.18-8,.5.5,0,0,1,.35-.17h0a4.17,4.17,0,0,0,1.39-.33,4.06,4.06,0,0,0,1.23-.79,5.31,5.31,0,0,0,1.48-2.57l.26-.81a2.27,2.27,0,0,1,.18-.41,3.41,3.41,0,0,1,.22-.4,2.34,2.34,0,0,1,1.53-1,3.17,3.17,0,0,1,1.75.25,5.72,5.72,0,0,1,1.45.87.16.16,0,0,1-.19.26h0a6.28,6.28,0,0,0-1.42-.66,2.79,2.79,0,0,0-1.45-.09,1.65,1.65,0,0,0-1,.82,2.69,2.69,0,0,0-.15.33,1.66,1.66,0,0,0-.13.34l-.19.76a6,6,0,0,1-1.65,3.06,5,5,0,0,1-1.49,1,5,5,0,0,1-1.77.42l.37-.17a89.27,89.27,0,0,1-8.24,8.18,40.91,40.91,0,0,1-4.67,3.52,17.93,17.93,0,0,1-2.64,1.38,6.8,6.8,0,0,1-3.06.58,3.63,3.63,0,0,1-.82-.16,6.53,6.53,0,0,1-.73-.29,5.7,5.7,0,0,1-1.34-.85,4.49,4.49,0,0,1-1.49-2.82,9.23,9.23,0,0,1,.16-3,22.68,22.68,0,0,1,.79-2.85c.63-1.85,1.4-3.63,2.19-5.39a49.55,49.55,0,0,1,2.6-5.17.32.32,0,0,1,.58.28Z" transform="translate(-13.86 -16.71)"/><path class="cls-30" d="M504.37,84a1.86,1.86,0,0,1,.16.87v.87l0,1.72a1.89,1.89,0,0,0,.52,1.22,2,2,0,0,0,.54.41,3.32,3.32,0,0,0,.72.24,17.86,17.86,0,0,1,3.3,1.33,10.89,10.89,0,0,1,2.89,2,.17.17,0,0,1,0,.23.17.17,0,0,1-.17,0,33.62,33.62,0,0,1-3.15-1.41,20.29,20.29,0,0,0-3.16-1.18,4.33,4.33,0,0,1-.92-.31,2.91,2.91,0,0,1-.84-.63,3,3,0,0,1-.76-1.93l0-1.75v-.87a1.86,1.86,0,0,1,.16-.87.36.36,0,0,1,.64,0Z" transform="translate(-13.86 -16.71)"/><path class="cls-30" d="M478.93,120.48a12.78,12.78,0,0,1,2.39-1.22l2.45-1.08,4.9-2.17,1.23-.53.61-.26a1.51,1.51,0,0,0,.41-.27,1.49,1.49,0,0,0,.17-.18,2.47,2.47,0,0,0,.15-.23l.35-.57.71-1.14c1-1.51,1.89-3,2.88-4.52l0,0,0,0a1.62,1.62,0,0,1,1-.51,1.14,1.14,0,0,1,1.07.55,1.6,1.6,0,0,1,.19,1,2.72,2.72,0,0,1-.28.89.16.16,0,0,1-.31-.09v0a3.16,3.16,0,0,0,0-.79,1.15,1.15,0,0,0-.23-.61.39.39,0,0,0-.4-.14.85.85,0,0,0-.45.31l.05-.07c-.88,1.55-1.83,3.07-2.75,4.6l-.69,1.15-.35.57a3.53,3.53,0,0,1-.22.32,2.57,2.57,0,0,1-1,.78l-.62.27-1.23.54-4.93,2.1-2.47,1.05a12.79,12.79,0,0,1-2.53.91.33.33,0,0,1-.26-.59Z" transform="translate(-13.86 -16.71)"/><polygon class="cls-1" points="514.99 97.69 511.73 94.22 505.64 101.6 509.13 104.37 514.99 97.69"/><path class="cls-30" d="M519.5,118.31A12.78,12.78,0,0,1,521,116.1l1.64-2.12,3.29-4.24.83-1.05.41-.52a1.51,1.51,0,0,0,.23-.43,1.49,1.49,0,0,0,.06-.24,2.47,2.47,0,0,0,0-.28l0-.67.09-1.34c.13-1.78.22-3.57.39-5.35v-.09a1.62,1.62,0,0,1,.65-.93,1.14,1.14,0,0,1,1.2,0,1.6,1.6,0,0,1,.65.81,2.72,2.72,0,0,1,.18.91.16.16,0,0,1-.31.07v0a3.16,3.16,0,0,0-.33-.72,1.15,1.15,0,0,0-.49-.43.39.39,0,0,0-.42.07.85.85,0,0,0-.25.49v-.09c0,1.79-.16,3.57-.23,5.36l-.07,1.34,0,.67a3.53,3.53,0,0,1,0,.39,2.57,2.57,0,0,1-.5,1.16l-.42.53-.83,1.05-3.34,4.19-1.67,2.1a12.79,12.79,0,0,1-1.79,2,.33.33,0,0,1-.51-.4Z" transform="translate(-13.86 -16.71)"/><polygon class="cls-1" points="497.46 147.37 509.68 145.94 507.13 181.12 500.28 180.09 497.46 147.37"/><path class="cls-30" d="M522.93,171.43a17.39,17.39,0,0,1,0,3.11l-.16,3.1c-.11,2.07-.2,4.13-.33,6.2S522.17,188,522,190a51,51,0,0,1-.66,6.18.15.15,0,0,1-.29,0,51,51,0,0,1,0-6.21c.1-2.07.2-4.13.32-6.2s.25-4.13.38-6.19l.2-3.1a17.37,17.37,0,0,1,.33-3.09.3.3,0,0,1,.59,0Z" transform="translate(-13.86 -16.71)"/><path class="cls-30" d="M511.61,164.26a35.53,35.53,0,0,1,.5,4.37l.37,4.37c.24,2.92.51,5.83.72,8.75l.66,8.74c.23,2.92.42,5.83.39,8.74,0,.06-.07.1-.15.09a.15.15,0,0,1-.15-.1c-.49-2.92-.77-5.83-1-8.75l-.73-8.75c-.26-2.92-.45-5.83-.68-8.75l-.33-4.37a34.9,34.9,0,0,1-.19-4.37c0-.11.15-.19.31-.18A.3.3,0,0,1,511.61,164.26Z" transform="translate(-13.86 -16.71)"/><polygon class="cls-1" points="472.82 150.9 485.04 149.4 482.49 186.39 475.64 185.3 472.82 150.9"/><path class="cls-30" d="M487.41,169.19a30,30,0,0,1,.31,4.07l.17,4.08c.11,2.72.24,5.44.33,8.16s.18,5.44.26,8.16.16,5.44,0,8.18a.16.16,0,0,1-.16.16.16.16,0,0,1-.14-.15c-.37-2.71-.5-5.43-.61-8.15s-.24-5.44-.34-8.16-.18-5.44-.28-8.16l-.13-4.08a30.08,30.08,0,0,1,0-4.09.31.31,0,0,1,.34-.3A.33.33,0,0,1,487.41,169.19Z" transform="translate(-13.86 -16.71)"/><path class="cls-30" d="M498.15,179a14.71,14.71,0,0,1-.1,2.85l-.24,2.84c-.16,1.89-.3,3.79-.48,5.68s-.36,3.79-.55,5.68a43.16,43.16,0,0,1-.82,5.65.15.15,0,0,1-.29,0,43.09,43.09,0,0,1,.2-5.71c.15-1.9.3-3.79.47-5.68s.36-3.79.53-5.68l.27-2.84a14.71,14.71,0,0,1,.41-2.83.3.3,0,0,1,.59.05Z" transform="translate(-13.86 -16.71)"/><path class="cls-1" d="M529.64,90.93s1.88,8.08,1.64,11.35c-.11,1.49-2.31-2.36-2.42-.78-.29,3.94-.54,7.6-.54,8.1,0,1.15,2.57-.64,2.62-.59s1.73.8,6.72.67c3.69-.09-2.09-21.74-1.54-21.79Z" transform="translate(-13.86 -16.71)"/><rect class="cls-17" x="524.98" y="94.49" width="19.69" height="10.66" rx="1" ry="1" transform="translate(620.79 -451.71) rotate(90)"/><rect class="cls-11" x="515.64" y="76.49" width="10.66" height="13.22"/><rect class="cls-1" x="516.96" y="77.88" width="8.02" height="6.63"/><path class="cls-11" d="M535.47,98.41a1.69,1.69,0,0,1-2.21,1.28,1.88,1.88,0,0,1-1.42-2.08A1.73,1.73,0,0,1,534,96.14,1.88,1.88,0,0,1,535.47,98.41Z" transform="translate(-13.86 -16.71)"/><path class="cls-16" d="M531.84,99.44a.53.53,0,0,0-.09.4c0,.08.18.08.32,0a2.79,2.79,0,0,0,.78-.45,10.53,10.53,0,0,0,1.36-1.28,7.17,7.17,0,0,0,1.12-1.48,1.92,1.92,0,0,0,.17-.41.42.42,0,0,0,0-.34c-.05-.07-.2-.07-.34,0a1.59,1.59,0,0,0-.41.19.06.06,0,0,1-.07-.09,1.73,1.73,0,0,1,.42-.26.73.73,0,0,1,.26-.06.41.41,0,0,1,.3.1.44.44,0,0,1,.13.29.91.91,0,0,1,0,.27,2.17,2.17,0,0,1-.17.48,7.19,7.19,0,0,1-1.13,1.57A10.22,10.22,0,0,1,533,99.66a2.65,2.65,0,0,1-.9.43H532a.43.43,0,0,1-.14,0,.31.31,0,0,1-.24-.2.58.58,0,0,1,.19-.48,0,0,0,0,1,0,0,0,0,0,0,1,0,0Z" transform="translate(-13.86 -16.71)"/><path class="cls-11" d="M536.79,96.83c-.21.06-.15.29.05.23S537,96.77,536.79,96.83Z" transform="translate(-13.86 -16.71)"/><path class="cls-11" d="M537.92,97.14c-.22,0-.15.29.05.23S538,97.13,537.92,97.14Z" transform="translate(-13.86 -16.71)"/><path class="cls-11" d="M536.78,98.59c.08-.2.32,0,.2.13S536.74,98.69,536.78,98.59Z" transform="translate(-13.86 -16.71)"/><path class="cls-11" d="M538,98.79c.08-.2.44-.11.25.12A.14.14,0,0,1,538,98.79Z" transform="translate(-13.86 -16.71)"/><path class="cls-11" d="M535.93,99.89c-.15.16.09.44.21.17A.14.14,0,0,0,535.93,99.89Z" transform="translate(-13.86 -16.71)"/><line class="cls-31" x1="523.91" y1="86.22" x2="517.14" y2="86.35"/><path class="cls-15" d="M537.78,103a6.84,6.84,0,0,1-1.69.19l-1.69.05H532.7a6.83,6.83,0,0,1-1.7-.13V103a6.83,6.83,0,0,1,1.69-.19l1.69-.05h1.69a6.83,6.83,0,0,1,1.7.13Z" transform="translate(-13.86 -16.71)"/><line class="cls-31" x1="520.55" y1="87.9" x2="517.14" y2="88.02"/><path class="cls-15" d="M534.41,104.65a1.82,1.82,0,0,1-.85.19l-.85.05h-.85a1.81,1.81,0,0,1-.86-.13v-.1a1.81,1.81,0,0,1,.85-.19l.85-.05h.85a1.82,1.82,0,0,1,.86.13Z" transform="translate(-13.86 -16.71)"/><path class="cls-30" d="M487.75,201.41a1.05,1.05,0,0,0,1,.92c13.31.07,14.58,1.22,15.35-1.23.65-2.11-11.17-3.71-15.63-4.3a1.05,1.05,0,0,0-1.18,1.17Z" transform="translate(-13.86 -16.71)"/></svg>
