<svg width="416" height="241" viewBox="0 0 416 241" fill="none"
    xmlns="http://www.w3.org/2000/svg">
    <g clip-path="url(#clip0_6738_28348)">
        <rect width="416" height="241" fill="black"/>
        <rect x="301.888" y="-8.13477" width="11.0087" height="11.0087" transform="rotate(90 301.888 -8.13477)" fill="#1D2327"/>
        <rect x="114.739" y="234.066" width="11.0087" height="11.0087" transform="rotate(-90 114.739 234.066)" fill="#1D2327"/>
        <rect x="301.888" y="13.8809" width="11.0087" height="11.0087" transform="rotate(90 301.888 13.8809)" fill="#1D2327"/>
        <rect x="114.739" y="212.049" width="11.0087" height="11.0087" transform="rotate(-90 114.739 212.049)" fill="#1D2327"/>
        <rect x="301.888" y="35.9023" width="11.0087" height="11.0087" transform="rotate(90 301.888 35.9023)" fill="#1D2327"/>
        <rect x="114.739" y="190.031" width="11.0087" height="11.0087" transform="rotate(-90 114.739 190.031)" fill="#1D2327"/>
        <rect x="301.888" y="57.9199" width="11.0087" height="11.0087" transform="rotate(90 301.888 57.9199)" fill="#1D2327"/>
        <rect x="114.739" y="168.014" width="11.0087" height="11.0087" transform="rotate(-90 114.739 168.014)" fill="#1D2327"/>
        <rect x="301.888" y="79.9355" width="11.0087" height="11.0087" transform="rotate(90 301.888 79.9355)" fill="#1D2327"/>
        <rect x="114.739" y="145.998" width="11.0087" height="11.0087" transform="rotate(-90 114.739 145.998)" fill="#1D2327"/>
        <rect x="301.888" y="101.951" width="11.0087" height="11.0087" transform="rotate(90 301.888 101.951)" fill="#1D2327"/>
        <rect x="114.739" y="123.98" width="11.0087" height="11.0087" transform="rotate(-90 114.739 123.98)" fill="#1D2327"/>
        <rect x="301.888" y="123.971" width="11.0087" height="11.0087" transform="rotate(90 301.888 123.971)" fill="#1D2327"/>
        <rect x="114.739" y="101.961" width="11.0087" height="11.0087" transform="rotate(-90 114.739 101.961)" fill="#1D2327"/>
        <rect x="334.914" y="-8.13477" width="11.0087" height="11.0087" transform="rotate(90 334.914 -8.13477)" fill="#1D2327"/>
        <rect x="81.7133" y="234.066" width="11.0087" height="11.0087" transform="rotate(-90 81.7133 234.066)" fill="#1D2327"/>
        <rect x="334.914" y="13.8809" width="11.0087" height="11.0087" transform="rotate(90 334.914 13.8809)" fill="#1D2327"/>
        <rect x="81.7133" y="212.049" width="11.0087" height="11.0087" transform="rotate(-90 81.7133 212.049)" fill="#1D2327"/>
        <rect x="334.914" y="35.9023" width="11.0087" height="11.0087" transform="rotate(90 334.914 35.9023)" fill="#1D2327"/>
        <rect x="81.7133" y="190.031" width="11.0087" height="11.0087" transform="rotate(-90 81.7133 190.031)" fill="#1D2327"/>
        <rect x="334.914" y="57.9199" width="11.0087" height="11.0087" transform="rotate(90 334.914 57.9199)" fill="#1D2327"/>
        <rect x="81.7133" y="168.014" width="11.0087" height="11.0087" transform="rotate(-90 81.7133 168.014)" fill="#1D2327"/>
        <rect x="334.914" y="79.9355" width="11.0087" height="11.0087" transform="rotate(90 334.914 79.9355)" fill="#1D2327"/>
        <rect x="81.7133" y="145.998" width="11.0087" height="11.0087" transform="rotate(-90 81.7133 145.998)" fill="#1D2327"/>
        <rect x="334.914" y="101.951" width="11.0087" height="11.0087" transform="rotate(90 334.914 101.951)" fill="#1D2327"/>
        <rect x="81.7133" y="123.98" width="11.0087" height="11.0087" transform="rotate(-90 81.7133 123.98)" fill="#1D2327"/>
        <rect x="334.914" y="123.971" width="11.0087" height="11.0087" transform="rotate(90 334.914 123.971)" fill="#1D2327"/>
        <rect x="81.7133" y="101.961" width="11.0087" height="11.0087" transform="rotate(-90 81.7133 101.961)" fill="#1D2327"/>
        <rect x="334.914" y="145.986" width="11.0087" height="11.0087" transform="rotate(90 334.914 145.986)" fill="#1D2327"/>
        <rect x="81.7133" y="79.9434" width="11.0087" height="11.0087" transform="rotate(-90 81.7133 79.9434)" fill="#1D2327"/>
        <rect x="323.904" y="156.996" width="11.0087" height="11.0087" transform="rotate(90 323.904 156.996)" fill="#1D2327"/>
        <rect x="92.7226" y="68.9355" width="11.0087" height="11.0087" transform="rotate(-90 92.7226 68.9355)" fill="#1D2327"/>
        <rect x="312.895" y="168.004" width="11.0087" height="11.0087" transform="rotate(90 312.895 168.004)" fill="#1D2327"/>
        <rect x="103.73" y="57.9258" width="11.0087" height="11.0087" transform="rotate(-90 103.73 57.9258)" fill="#1D2327"/>
        <rect x="312.895" y="190.021" width="11.0087" height="11.0087" transform="rotate(90 312.895 190.021)" fill="#1D2327"/>
        <rect x="103.73" y="35.9102" width="11.0087" height="11.0087" transform="rotate(-90 103.73 35.9102)" fill="#1D2327"/>
        <rect x="312.895" y="212.041" width="11.0087" height="11.0087" transform="rotate(90 312.895 212.041)" fill="#1D2327"/>
        <rect x="103.73" y="13.8926" width="11.0087" height="11.0087" transform="rotate(-90 103.73 13.8926)" fill="#1D2327"/>
        <rect x="312.895" y="179.012" width="11.0087" height="11.0087" transform="rotate(90 312.895 179.012)" fill="#1D2327"/>
        <rect x="103.73" y="46.9199" width="11.0087" height="11.0087" transform="rotate(-90 103.73 46.9199)" fill="#1D2327"/>
        <rect x="334.914" y="168.004" width="11.0087" height="11.0087" transform="rotate(90 334.914 168.004)" fill="#1D2327"/>
        <rect x="81.7133" y="57.9258" width="11.0087" height="11.0087" transform="rotate(-90 81.7133 57.9258)" fill="#1D2327"/>
        <rect x="334.914" y="190.021" width="11.0087" height="11.0087" transform="rotate(90 334.914 190.021)" fill="#1D2327"/>
        <rect x="81.7133" y="35.9102" width="11.0087" height="11.0087" transform="rotate(-90 81.7133 35.9102)" fill="#1D2327"/>
        <rect x="334.914" y="212.041" width="11.0087" height="11.0087" transform="rotate(90 334.914 212.041)" fill="#1D2327"/>
        <rect x="81.7133" y="13.8926" width="11.0087" height="11.0087" transform="rotate(-90 81.7133 13.8926)" fill="#1D2327"/>
        <rect x="246.842" y="-8.13477" width="11.0087" height="11.0087" transform="rotate(90 246.842 -8.13477)" fill="#1D2327"/>
        <rect x="169.783" y="234.066" width="11.0087" height="11.0087" transform="rotate(-90 169.783 234.066)" fill="#1D2327"/>
        <rect x="246.842" y="13.8809" width="11.0087" height="11.0087" transform="rotate(90 246.842 13.8809)" fill="#1D2327"/>
        <rect x="169.783" y="212.049" width="11.0087" height="11.0087" transform="rotate(-90 169.783 212.049)" fill="#1D2327"/>
        <rect x="246.842" y="35.9023" width="11.0087" height="11.0087" transform="rotate(90 246.842 35.9023)" fill="#1D2327"/>
        <rect x="169.783" y="190.031" width="11.0087" height="11.0087" transform="rotate(-90 169.783 190.031)" fill="#1D2327"/>
        <rect x="246.842" y="57.9199" width="11.0087" height="11.0087" transform="rotate(90 246.842 57.9199)" fill="#1D2327"/>
        <rect x="169.783" y="168.014" width="11.0087" height="11.0087" transform="rotate(-90 169.783 168.014)" fill="#1D2327"/>
        <rect x="246.842" y="79.9355" width="11.0087" height="11.0087" transform="rotate(90 246.842 79.9355)" fill="#1D2327"/>
        <rect x="169.783" y="145.998" width="11.0087" height="11.0087" transform="rotate(-90 169.783 145.998)" fill="#1D2327"/>
        <rect x="246.842" y="101.951" width="11.0087" height="11.0087" transform="rotate(90 246.842 101.951)" fill="#1D2327"/>
        <rect x="169.783" y="123.98" width="11.0087" height="11.0087" transform="rotate(-90 169.783 123.98)" fill="#1D2327"/>
        <rect x="246.842" y="123.971" width="11.0087" height="11.0087" transform="rotate(90 246.842 123.971)" fill="#1D2327"/>
        <rect x="169.783" y="101.961" width="11.0087" height="11.0087" transform="rotate(-90 169.783 101.961)" fill="#1D2327"/>
        <rect x="246.842" y="145.986" width="11.0087" height="11.0087" transform="rotate(90 246.842 145.986)" fill="#1D2327"/>
        <rect x="169.783" y="79.9434" width="11.0087" height="11.0087" transform="rotate(-90 169.783 79.9434)" fill="#1D2327"/>
        <rect x="246.842" y="168.004" width="11.0087" height="11.0087" transform="rotate(90 246.842 168.004)" fill="#1D2327"/>
        <rect x="169.783" y="57.9258" width="11.0087" height="11.0087" transform="rotate(-90 169.783 57.9258)" fill="#1D2327"/>
        <rect x="246.842" y="190.021" width="11.0087" height="11.0087" transform="rotate(90 246.842 190.021)" fill="#1D2327"/>
        <rect x="169.783" y="35.9102" width="11.0087" height="11.0087" transform="rotate(-90 169.783 35.9102)" fill="#1D2327"/>
        <rect x="246.842" y="212.041" width="11.0087" height="11.0087" transform="rotate(90 246.842 212.041)" fill="#1D2327"/>
        <rect x="169.783" y="13.8926" width="11.0087" height="11.0087" transform="rotate(-90 169.783 13.8926)" fill="#1D2327"/>
        <rect x="235.837" y="2.875" width="11.0087" height="11.0087" transform="rotate(90 235.837 2.875)" fill="#1D2327"/>
        <rect x="180.79" y="223.059" width="11.0087" height="11.0087" transform="rotate(-90 180.79 223.059)" fill="#1D2327"/>
        <rect x="235.837" y="24.8906" width="11.0087" height="11.0087" transform="rotate(90 235.837 24.8906)" fill="#1D2327"/>
        <rect x="180.79" y="201.041" width="11.0087" height="11.0087" transform="rotate(-90 180.79 201.041)" fill="#1D2327"/>
        <rect x="235.837" y="46.9102" width="11.0087" height="11.0087" transform="rotate(90 235.837 46.9102)" fill="#1D2327"/>
        <rect x="180.79" y="179.023" width="11.0087" height="11.0087" transform="rotate(-90 180.79 179.023)" fill="#1D2327"/>
        <rect x="235.837" y="68.9258" width="11.0087" height="11.0087" transform="rotate(90 235.837 68.9258)" fill="#1D2327"/>
        <rect x="180.79" y="157.006" width="11.0087" height="11.0087" transform="rotate(-90 180.79 157.006)" fill="#1D2327"/>
        <rect x="235.837" y="90.9434" width="11.0087" height="11.0087" transform="rotate(90 235.837 90.9434)" fill="#1D2327"/>
        <rect x="180.79" y="134.988" width="11.0087" height="11.0087" transform="rotate(-90 180.79 134.988)" fill="#1D2327"/>
        <rect x="235.837" y="112.963" width="11.0087" height="11.0087" transform="rotate(90 235.837 112.963)" fill="#1D2327"/>
        <rect x="180.79" y="112.971" width="11.0087" height="11.0087" transform="rotate(-90 180.79 112.971)" fill="#1D2327"/>
        <rect x="224.825" y="-8.13477" width="11.0087" height="11.0087" transform="rotate(90 224.825 -8.13477)" fill="#1D2327"/>
        <rect x="191.8" y="234.066" width="11.0087" height="11.0087" transform="rotate(-90 191.8 234.066)" fill="#1D2327"/>
        <rect x="224.825" y="13.8809" width="11.0087" height="11.0087" transform="rotate(90 224.825 13.8809)" fill="#1D2327"/>
        <rect x="191.8" y="212.049" width="11.0087" height="11.0087" transform="rotate(-90 191.8 212.049)" fill="#1D2327"/>
        <rect x="224.825" y="35.9023" width="11.0087" height="11.0087" transform="rotate(90 224.825 35.9023)" fill="#1D2327"/>
        <rect x="191.8" y="190.031" width="11.0087" height="11.0087" transform="rotate(-90 191.8 190.031)" fill="#1D2327"/>
        <rect x="224.825" y="57.9199" width="11.0087" height="11.0087" transform="rotate(90 224.825 57.9199)" fill="#1D2327"/>
        <rect x="191.8" y="168.014" width="11.0087" height="11.0087" transform="rotate(-90 191.8 168.014)" fill="#1D2327"/>
        <rect x="224.825" y="79.9355" width="11.0087" height="11.0087" transform="rotate(90 224.825 79.9355)" fill="#1D2327"/>
        <rect x="191.8" y="145.998" width="11.0087" height="11.0087" transform="rotate(-90 191.8 145.998)" fill="#1D2327"/>
        <rect x="224.825" y="101.951" width="11.0087" height="11.0087" transform="rotate(90 224.825 101.951)" fill="#1D2327"/>
        <rect x="191.8" y="123.98" width="11.0087" height="11.0087" transform="rotate(-90 191.8 123.98)" fill="#1D2327"/>
        <rect x="224.825" y="156.996" width="11.0087" height="11.0087" transform="rotate(90 224.825 156.996)" fill="#1D2327"/>
        <rect x="191.8" y="68.9355" width="11.0087" height="11.0087" transform="rotate(-90 191.8 68.9355)" fill="#1D2327"/>
        <rect x="224.825" y="179.012" width="11.0087" height="11.0087" transform="rotate(90 224.825 179.012)" fill="#1D2327"/>
        <rect x="191.8" y="46.9199" width="11.0087" height="11.0087" transform="rotate(-90 191.8 46.9199)" fill="#1D2327"/>
        <rect x="224.825" y="201.033" width="11.0087" height="11.0087" transform="rotate(90 224.825 201.033)" fill="#1D2327"/>
        <rect x="191.8" y="24.9004" width="11.0087" height="11.0087" transform="rotate(-90 191.8 24.9004)" fill="#1D2327"/>
        <rect x="224.825" y="223.049" width="11.0087" height="11.0087" transform="rotate(90 224.825 223.049)" fill="#1D2327"/>
        <rect x="191.8" y="2.88281" width="11.0087" height="11.0087" transform="rotate(-90 191.8 2.88281)" fill="#1D2327"/>
        <rect x="213.818" y="2.875" width="11.0087" height="11.0087" transform="rotate(90 213.818 2.875)" fill="#1D2327"/>
        <rect x="202.809" y="223.059" width="11.0087" height="11.0087" transform="rotate(-90 202.809 223.059)" fill="#1D2327"/>
        <rect x="213.818" y="24.8906" width="11.0087" height="11.0087" transform="rotate(90 213.818 24.8906)" fill="#1D2327"/>
        <rect x="202.809" y="201.041" width="11.0087" height="11.0087" transform="rotate(-90 202.809 201.041)" fill="#1D2327"/>
        <rect x="213.818" y="46.9102" width="11.0087" height="11.0087" transform="rotate(90 213.818 46.9102)" fill="#1D2327"/>
        <rect x="202.809" y="179.023" width="11.0087" height="11.0087" transform="rotate(-90 202.809 179.023)" fill="#1D2327"/>
        <rect x="213.818" y="68.9258" width="11.0087" height="11.0087" transform="rotate(90 213.818 68.9258)" fill="#1D2327"/>
        <rect x="202.809" y="157.006" width="11.0087" height="11.0087" transform="rotate(-90 202.809 157.006)" fill="#1D2327"/>
        <rect x="213.818" y="90.9434" width="11.0087" height="11.0087" transform="rotate(90 213.818 90.9434)" fill="#1D2327"/>
        <rect x="202.809" y="134.988" width="11.0087" height="11.0087" transform="rotate(-90 202.809 134.988)" fill="#1D2327"/>
        <rect x="268.86" y="-8.13477" width="11.0087" height="11.0087" transform="rotate(90 268.86 -8.13477)" fill="#1D2327"/>
        <rect x="147.765" y="234.066" width="11.0087" height="11.0087" transform="rotate(-90 147.765 234.066)" fill="#1D2327"/>
        <rect x="268.86" y="13.8809" width="11.0087" height="11.0087" transform="rotate(90 268.86 13.8809)" fill="#1D2327"/>
        <rect x="147.765" y="212.049" width="11.0087" height="11.0087" transform="rotate(-90 147.765 212.049)" fill="#1D2327"/>
        <rect x="268.86" y="35.9023" width="11.0087" height="11.0087" transform="rotate(90 268.86 35.9023)" fill="#1D2327"/>
        <rect x="147.765" y="190.031" width="11.0087" height="11.0087" transform="rotate(-90 147.765 190.031)" fill="#1D2327"/>
        <rect x="268.86" y="57.9199" width="11.0087" height="11.0087" transform="rotate(90 268.86 57.9199)" fill="#1D2327"/>
        <rect x="147.765" y="168.014" width="11.0087" height="11.0087" transform="rotate(-90 147.765 168.014)" fill="#1D2327"/>
        <rect x="268.86" y="79.9355" width="11.0087" height="11.0087" transform="rotate(90 268.86 79.9355)" fill="#1D2327"/>
        <rect x="147.765" y="145.998" width="11.0087" height="11.0087" transform="rotate(-90 147.765 145.998)" fill="#1D2327"/>
        <rect x="268.86" y="101.951" width="11.0087" height="11.0087" transform="rotate(90 268.86 101.951)" fill="#1D2327"/>
        <rect x="147.765" y="123.98" width="11.0087" height="11.0087" transform="rotate(-90 147.765 123.98)" fill="#1D2327"/>
        <rect x="268.86" y="123.971" width="11.0087" height="11.0087" transform="rotate(90 268.86 123.971)" fill="#1D2327"/>
        <rect x="147.765" y="101.961" width="11.0087" height="11.0087" transform="rotate(-90 147.765 101.961)" fill="#1D2327"/>
        <rect x="268.86" y="145.986" width="11.0087" height="11.0087" transform="rotate(90 268.86 145.986)" fill="#1D2327"/>
        <rect x="147.765" y="79.9434" width="11.0087" height="11.0087" transform="rotate(-90 147.765 79.9434)" fill="#1D2327"/>
        <rect x="268.86" y="168.004" width="11.0087" height="11.0087" transform="rotate(90 268.86 168.004)" fill="#1D2327"/>
        <rect x="147.765" y="57.9258" width="11.0087" height="11.0087" transform="rotate(-90 147.765 57.9258)" fill="#1D2327"/>
        <rect x="268.86" y="190.021" width="11.0087" height="11.0087" transform="rotate(90 268.86 190.021)" fill="#1D2327"/>
        <rect x="147.765" y="35.9102" width="11.0087" height="11.0087" transform="rotate(-90 147.765 35.9102)" fill="#1D2327"/>
        <rect x="268.86" y="212.041" width="11.0087" height="11.0087" transform="rotate(90 268.86 212.041)" fill="#1D2327"/>
        <rect x="147.765" y="13.8926" width="11.0087" height="11.0087" transform="rotate(-90 147.765 13.8926)" fill="#1D2327"/>
        <rect x="257.853" y="2.875" width="11.0087" height="11.0087" transform="rotate(90 257.853 2.875)" fill="#1D2327"/>
        <rect x="158.774" y="223.059" width="11.0087" height="11.0087" transform="rotate(-90 158.774 223.059)" fill="#1D2327"/>
        <rect x="257.853" y="24.8906" width="11.0087" height="11.0087" transform="rotate(90 257.853 24.8906)" fill="#1D2327"/>
        <rect x="158.774" y="201.041" width="11.0087" height="11.0087" transform="rotate(-90 158.774 201.041)" fill="#1D2327"/>
        <rect x="257.853" y="46.9102" width="11.0087" height="11.0087" transform="rotate(90 257.853 46.9102)" fill="#1D2327"/>
        <rect x="158.774" y="179.023" width="11.0087" height="11.0087" transform="rotate(-90 158.774 179.023)" fill="#1D2327"/>
        <rect x="257.853" y="68.9258" width="11.0087" height="11.0087" transform="rotate(90 257.853 68.9258)" fill="#1D2327"/>
        <rect x="158.774" y="157.006" width="11.0087" height="11.0087" transform="rotate(-90 158.774 157.006)" fill="#1D2327"/>
        <rect x="257.853" y="90.9434" width="11.0087" height="11.0087" transform="rotate(90 257.853 90.9434)" fill="#1D2327"/>
        <rect x="158.774" y="134.988" width="11.0087" height="11.0087" transform="rotate(-90 158.774 134.988)" fill="#1D2327"/>
        <rect x="257.853" y="112.963" width="11.0087" height="11.0087" transform="rotate(90 257.853 112.963)" fill="#1D2327"/>
        <rect x="158.774" y="112.971" width="11.0087" height="11.0087" transform="rotate(-90 158.774 112.971)" fill="#1D2327"/>
        <rect x="257.853" y="134.98" width="11.0087" height="11.0087" transform="rotate(90 257.853 134.98)" fill="#1D2327"/>
        <rect x="158.774" y="90.9531" width="11.0087" height="11.0087" transform="rotate(-90 158.774 90.9531)" fill="#1D2327"/>
        <rect x="279.869" y="2.875" width="11.0087" height="11.0087" transform="rotate(90 279.869 2.875)" fill="#1D2327"/>
        <rect x="136.755" y="223.059" width="11.0087" height="11.0087" transform="rotate(-90 136.755 223.059)" fill="#1D2327"/>
        <rect x="279.869" y="24.8906" width="11.0087" height="11.0087" transform="rotate(90 279.869 24.8906)" fill="#1D2327"/>
        <rect x="136.755" y="201.041" width="11.0087" height="11.0087" transform="rotate(-90 136.755 201.041)" fill="#1D2327"/>
        <rect x="279.869" y="46.9102" width="11.0087" height="11.0087" transform="rotate(90 279.869 46.9102)" fill="#1D2327"/>
        <rect x="136.755" y="179.023" width="11.0087" height="11.0087" transform="rotate(-90 136.755 179.023)" fill="#1D2327"/>
        <rect x="279.869" y="68.9258" width="11.0087" height="11.0087" transform="rotate(90 279.869 68.9258)" fill="#1D2327"/>
        <rect x="136.755" y="157.006" width="11.0087" height="11.0087" transform="rotate(-90 136.755 157.006)" fill="#1D2327"/>
        <rect x="279.869" y="90.9434" width="11.0087" height="11.0087" transform="rotate(90 279.869 90.9434)" fill="#1D2327"/>
        <rect x="136.755" y="134.988" width="11.0087" height="11.0087" transform="rotate(-90 136.755 134.988)" fill="#1D2327"/>
        <rect x="279.869" y="112.963" width="11.0087" height="11.0087" transform="rotate(90 279.869 112.963)" fill="#1D2327"/>
        <rect x="136.755" y="112.971" width="11.0087" height="11.0087" transform="rotate(-90 136.755 112.971)" fill="#1D2327"/>
        <rect x="279.869" y="134.98" width="11.0087" height="11.0087" transform="rotate(90 279.869 134.98)" fill="#1D2327"/>
        <rect x="136.755" y="90.9531" width="11.0087" height="11.0087" transform="rotate(-90 136.755 90.9531)" fill="#1D2327"/>
        <rect x="312.895" y="2.875" width="11.0087" height="11.0087" transform="rotate(90 312.895 2.875)" fill="#1D2327"/>
        <rect x="103.73" y="223.059" width="11.0087" height="11.0087" transform="rotate(-90 103.73 223.059)" fill="#1D2327"/>
        <rect x="312.895" y="24.8906" width="11.0087" height="11.0087" transform="rotate(90 312.895 24.8906)" fill="#1D2327"/>
        <rect x="103.73" y="201.041" width="11.0087" height="11.0087" transform="rotate(-90 103.73 201.041)" fill="#1D2327"/>
        <rect x="312.895" y="46.9102" width="11.0087" height="11.0087" transform="rotate(90 312.895 46.9102)" fill="#1D2327"/>
        <rect x="103.73" y="179.023" width="11.0087" height="11.0087" transform="rotate(-90 103.73 179.023)" fill="#1D2327"/>
        <rect x="312.895" y="68.9258" width="11.0087" height="11.0087" transform="rotate(90 312.895 68.9258)" fill="#1D2327"/>
        <rect x="103.73" y="157.006" width="11.0087" height="11.0087" transform="rotate(-90 103.73 157.006)" fill="#1D2327"/>
        <rect x="312.895" y="90.9434" width="11.0087" height="11.0087" transform="rotate(90 312.895 90.9434)" fill="#1D2327"/>
        <rect x="103.73" y="134.988" width="11.0087" height="11.0087" transform="rotate(-90 103.73 134.988)" fill="#1D2327"/>
        <rect x="312.895" y="112.963" width="11.0087" height="11.0087" transform="rotate(90 312.895 112.963)" fill="#1D2327"/>
        <rect x="103.73" y="112.971" width="11.0087" height="11.0087" transform="rotate(-90 103.73 112.971)" fill="#1D2327"/>
        <rect x="312.895" y="134.98" width="11.0087" height="11.0087" transform="rotate(90 312.895 134.98)" fill="#1D2327"/>
        <rect x="103.73" y="90.9531" width="11.0087" height="11.0087" transform="rotate(-90 103.73 90.9531)" fill="#1D2327"/>
        <rect x="301.888" y="145.986" width="11.0087" height="11.0087" transform="rotate(90 301.888 145.986)" fill="#1D2327"/>
        <rect x="114.739" y="79.9434" width="11.0087" height="11.0087" transform="rotate(-90 114.739 79.9434)" fill="#1D2327"/>
        <rect x="290.877" y="156.996" width="11.0087" height="11.0087" transform="rotate(90 290.877 156.996)" fill="#1D2327"/>
        <rect x="125.748" y="68.9355" width="11.0087" height="11.0087" transform="rotate(-90 125.748 68.9355)" fill="#1D2327"/>
        <rect x="290.877" y="179.012" width="11.0087" height="11.0087" transform="rotate(90 290.877 179.012)" fill="#1D2327"/>
        <rect x="125.748" y="46.9199" width="11.0087" height="11.0087" transform="rotate(-90 125.748 46.9199)" fill="#1D2327"/>
        <rect x="290.877" y="201.033" width="11.0087" height="11.0087" transform="rotate(90 290.877 201.033)" fill="#1D2327"/>
        <rect x="125.748" y="24.9004" width="11.0087" height="11.0087" transform="rotate(-90 125.748 24.9004)" fill="#1D2327"/>
        <rect x="290.877" y="223.049" width="11.0087" height="11.0087" transform="rotate(90 290.877 223.049)" fill="#1D2327"/>
        <rect x="125.748" y="2.88281" width="11.0087" height="11.0087" transform="rotate(-90 125.748 2.88281)" fill="#1D2327"/>
        <rect x="290.877" y="-8.13477" width="11.0087" height="11.0087" transform="rotate(90 290.877 -8.13477)" fill="#1D2327"/>
        <rect x="125.748" y="234.066" width="11.0087" height="11.0087" transform="rotate(-90 125.748 234.066)" fill="#1D2327"/>
        <rect x="290.877" y="13.8809" width="11.0087" height="11.0087" transform="rotate(90 290.877 13.8809)" fill="#1D2327"/>
        <rect x="125.748" y="212.049" width="11.0087" height="11.0087" transform="rotate(-90 125.748 212.049)" fill="#1D2327"/>
        <rect x="290.877" y="35.9023" width="11.0087" height="11.0087" transform="rotate(90 290.877 35.9023)" fill="#1D2327"/>
        <rect x="125.748" y="190.031" width="11.0087" height="11.0087" transform="rotate(-90 125.748 190.031)" fill="#1D2327"/>
        <rect x="290.877" y="57.9199" width="11.0087" height="11.0087" transform="rotate(90 290.877 57.9199)" fill="#1D2327"/>
        <rect x="125.748" y="168.014" width="11.0087" height="11.0087" transform="rotate(-90 125.748 168.014)" fill="#1D2327"/>
        <rect x="290.877" y="79.9355" width="11.0087" height="11.0087" transform="rotate(90 290.877 79.9355)" fill="#1D2327"/>
        <rect x="125.748" y="145.998" width="11.0087" height="11.0087" transform="rotate(-90 125.748 145.998)" fill="#1D2327"/>
        <rect x="290.877" y="101.951" width="11.0087" height="11.0087" transform="rotate(90 290.877 101.951)" fill="#1D2327"/>
        <rect x="125.748" y="123.98" width="11.0087" height="11.0087" transform="rotate(-90 125.748 123.98)" fill="#1D2327"/>
        <rect x="290.877" y="123.971" width="11.0087" height="11.0087" transform="rotate(90 290.877 123.971)" fill="#1D2327"/>
        <rect x="125.748" y="101.961" width="11.0087" height="11.0087" transform="rotate(-90 125.748 101.961)" fill="#1D2327"/>
        <rect x="323.904" y="-8.13477" width="11.0087" height="11.0087" transform="rotate(90 323.904 -8.13477)" fill="#1D2327"/>
        <rect x="92.7226" y="234.066" width="11.0087" height="11.0087" transform="rotate(-90 92.7226 234.066)" fill="#1D2327"/>
        <rect x="323.904" y="13.8809" width="11.0087" height="11.0087" transform="rotate(90 323.904 13.8809)" fill="#1D2327"/>
        <rect x="92.7226" y="212.049" width="11.0087" height="11.0087" transform="rotate(-90 92.7226 212.049)" fill="#1D2327"/>
        <rect x="323.904" y="35.9023" width="11.0087" height="11.0087" transform="rotate(90 323.904 35.9023)" fill="#1D2327"/>
        <rect x="92.7226" y="190.031" width="11.0087" height="11.0087" transform="rotate(-90 92.7226 190.031)" fill="#1D2327"/>
        <rect x="323.904" y="57.9199" width="11.0087" height="11.0087" transform="rotate(90 323.904 57.9199)" fill="#1D2327"/>
        <rect x="92.7226" y="168.014" width="11.0087" height="11.0087" transform="rotate(-90 92.7226 168.014)" fill="#1D2327"/>
        <rect x="323.904" y="79.9355" width="11.0087" height="11.0087" transform="rotate(90 323.904 79.9355)" fill="#1D2327"/>
        <rect x="92.7226" y="145.998" width="11.0087" height="11.0087" transform="rotate(-90 92.7226 145.998)" fill="#1D2327"/>
        <rect x="323.904" y="101.951" width="11.0087" height="11.0087" transform="rotate(90 323.904 101.951)" fill="#1D2327"/>
        <rect x="92.7226" y="123.98" width="11.0087" height="11.0087" transform="rotate(-90 92.7226 123.98)" fill="#1D2327"/>
        <rect x="323.904" y="123.971" width="11.0087" height="11.0087" transform="rotate(90 323.904 123.971)" fill="#1D2327"/>
        <rect x="92.7226" y="101.961" width="11.0087" height="11.0087" transform="rotate(-90 92.7226 101.961)" fill="#1D2327"/>
        <rect x="345.923" y="2.875" width="11.0087" height="11.0087" transform="rotate(90 345.923 2.875)" fill="#1D2327"/>
        <rect x="70.704" y="223.059" width="11.0087" height="11.0087" transform="rotate(-90 70.704 223.059)" fill="#1D2327"/>
        <rect x="345.923" y="24.8906" width="11.0087" height="11.0087" transform="rotate(90 345.923 24.8906)" fill="#1D2327"/>
        <rect x="70.704" y="201.041" width="11.0087" height="11.0087" transform="rotate(-90 70.704 201.041)" fill="#1D2327"/>
        <rect x="345.923" y="46.9102" width="11.0087" height="11.0087" transform="rotate(90 345.923 46.9102)" fill="#1D2327"/>
        <rect x="70.704" y="179.023" width="11.0087" height="11.0087" transform="rotate(-90 70.704 179.023)" fill="#1D2327"/>
        <rect x="345.923" y="68.9258" width="11.0087" height="11.0087" transform="rotate(90 345.923 68.9258)" fill="#1D2327"/>
        <rect x="70.704" y="157.006" width="11.0087" height="11.0087" transform="rotate(-90 70.704 157.006)" fill="#1D2327"/>
        <rect x="345.923" y="90.9434" width="11.0087" height="11.0087" transform="rotate(90 345.923 90.9434)" fill="#1D2327"/>
        <rect x="70.704" y="134.988" width="11.0087" height="11.0087" transform="rotate(-90 70.704 134.988)" fill="#1D2327"/>
        <rect x="345.923" y="112.963" width="11.0087" height="11.0087" transform="rotate(90 345.923 112.963)" fill="#1D2327"/>
        <rect x="70.704" y="112.971" width="11.0087" height="11.0087" transform="rotate(-90 70.704 112.971)" fill="#1D2327"/>
        <rect x="345.923" y="134.98" width="11.0087" height="11.0087" transform="rotate(90 345.923 134.98)" fill="#1D2327"/>
        <rect x="70.704" y="90.9531" width="11.0087" height="11.0087" transform="rotate(-90 70.704 90.9531)" fill="#1D2327"/>
        <rect x="345.923" y="156.996" width="11.0087" height="11.0087" transform="rotate(90 345.923 156.996)" fill="#1D2327"/>
        <rect x="70.704" y="68.9355" width="11.0087" height="11.0087" transform="rotate(-90 70.704 68.9355)" fill="#1D2327"/>
        <rect x="345.923" y="179.012" width="11.0087" height="11.0087" transform="rotate(90 345.923 179.012)" fill="#1D2327"/>
        <rect x="70.704" y="46.9199" width="11.0087" height="11.0087" transform="rotate(-90 70.704 46.9199)" fill="#1D2327"/>
        <rect x="345.923" y="201.033" width="11.0087" height="11.0087" transform="rotate(90 345.923 201.033)" fill="#1D2327"/>
        <rect x="70.704" y="24.9004" width="11.0087" height="11.0087" transform="rotate(-90 70.704 24.9004)" fill="#1D2327"/>
        <rect x="356.93" y="-8.13477" width="11.0087" height="11.0087" transform="rotate(90 356.93 -8.13477)" fill="#1D2327"/>
        <rect x="59.6969" y="234.066" width="11.0087" height="11.0087" transform="rotate(-90 59.6969 234.066)" fill="#1D2327"/>
        <rect x="356.93" y="13.8809" width="11.0087" height="11.0087" transform="rotate(90 356.93 13.8809)" fill="#1D2327"/>
        <rect x="59.6969" y="212.049" width="11.0087" height="11.0087" transform="rotate(-90 59.6969 212.049)" fill="#1D2327"/>
        <rect x="356.93" y="35.9023" width="11.0087" height="11.0087" transform="rotate(90 356.93 35.9023)" fill="#1D2327"/>
        <rect x="59.697" y="190.031" width="11.0087" height="11.0087" transform="rotate(-90 59.697 190.031)" fill="#1D2327"/>
        <rect x="356.93" y="57.9199" width="11.0087" height="11.0087" transform="rotate(90 356.93 57.9199)" fill="#1D2327"/>
        <rect x="59.6969" y="168.014" width="11.0087" height="11.0087" transform="rotate(-90 59.6969 168.014)" fill="#1D2327"/>
        <rect x="356.93" y="79.9355" width="11.0087" height="11.0087" transform="rotate(90 356.93 79.9355)" fill="#1D2327"/>
        <rect x="59.6969" y="145.998" width="11.0087" height="11.0087" transform="rotate(-90 59.6969 145.998)" fill="#1D2327"/>
        <rect x="356.93" y="101.951" width="11.0087" height="11.0087" transform="rotate(90 356.93 101.951)" fill="#1D2327"/>
        <rect x="59.6969" y="123.98" width="11.0087" height="11.0087" transform="rotate(-90 59.6969 123.98)" fill="#1D2327"/>
        <rect x="356.93" y="123.971" width="11.0087" height="11.0087" transform="rotate(90 356.93 123.971)" fill="#1D2327"/>
        <rect x="59.6969" y="101.961" width="11.0087" height="11.0087" transform="rotate(-90 59.6969 101.961)" fill="#1D2327"/>
        <rect x="356.93" y="145.986" width="11.0087" height="11.0087" transform="rotate(90 356.93 145.986)" fill="#1D2327"/>
        <rect x="59.6969" y="79.9434" width="11.0087" height="11.0087" transform="rotate(-90 59.6969 79.9434)" fill="#1D2327"/>
        <rect x="356.93" y="168.004" width="11.0087" height="11.0087" transform="rotate(90 356.93 168.004)" fill="#1D2327"/>
        <rect x="59.6969" y="57.9258" width="11.0087" height="11.0087" transform="rotate(-90 59.6969 57.9258)" fill="#1D2327"/>
        <rect x="356.93" y="190.021" width="11.0087" height="11.0087" transform="rotate(90 356.93 190.021)" fill="#1D2327"/>
        <rect x="59.6969" y="35.9102" width="11.0087" height="11.0087" transform="rotate(-90 59.6969 35.9102)" fill="#1D2327"/>
        <rect x="356.93" y="212.041" width="11.0087" height="11.0087" transform="rotate(90 356.93 212.041)" fill="#1D2327"/>
        <rect x="59.6969" y="13.8926" width="11.0087" height="11.0087" transform="rotate(-90 59.6969 13.8926)" fill="#1D2327"/>
        <rect x="367.939" y="2.875" width="11.0087" height="11.0087" transform="rotate(90 367.939 2.875)" fill="#1D2327"/>
        <rect x="48.6876" y="223.059" width="11.0087" height="11.0087" transform="rotate(-90 48.6876 223.059)" fill="#1D2327"/>
        <rect x="367.939" y="24.8906" width="11.0087" height="11.0087" transform="rotate(90 367.939 24.8906)" fill="#1D2327"/>
        <rect x="48.6876" y="201.041" width="11.0087" height="11.0087" transform="rotate(-90 48.6876 201.041)" fill="#1D2327"/>
        <rect x="367.939" y="46.9102" width="11.0087" height="11.0087" transform="rotate(90 367.939 46.9102)" fill="#1D2327"/>
        <rect x="48.6877" y="179.023" width="11.0087" height="11.0087" transform="rotate(-90 48.6877 179.023)" fill="#1D2327"/>
        <rect x="367.939" y="68.9258" width="11.0087" height="11.0087" transform="rotate(90 367.939 68.9258)" fill="#1D2327"/>
        <rect x="48.6877" y="157.006" width="11.0087" height="11.0087" transform="rotate(-90 48.6877 157.006)" fill="#1D2327"/>
        <rect x="367.939" y="90.9434" width="11.0087" height="11.0087" transform="rotate(90 367.939 90.9434)" fill="#1D2327"/>
        <rect x="48.6877" y="134.988" width="11.0087" height="11.0087" transform="rotate(-90 48.6877 134.988)" fill="#1D2327"/>
        <rect x="367.939" y="112.963" width="11.0087" height="11.0087" transform="rotate(90 367.939 112.963)" fill="#1D2327"/>
        <rect x="48.6877" y="112.971" width="11.0087" height="11.0087" transform="rotate(-90 48.6877 112.971)" fill="#1D2327"/>
        <rect x="367.939" y="134.98" width="11.0087" height="11.0087" transform="rotate(90 367.939 134.98)" fill="#1D2327"/>
        <rect x="48.6877" y="90.9531" width="11.0087" height="11.0087" transform="rotate(-90 48.6877 90.9531)" fill="#1D2327"/>
        <rect x="367.939" y="156.996" width="11.0087" height="11.0087" transform="rotate(90 367.939 156.996)" fill="#1D2327"/>
        <rect x="48.6877" y="68.9355" width="11.0087" height="11.0087" transform="rotate(-90 48.6877 68.9355)" fill="#1D2327"/>
        <rect x="367.939" y="179.012" width="11.0087" height="11.0087" transform="rotate(90 367.939 179.012)" fill="#1D2327"/>
        <rect x="48.6877" y="46.9199" width="11.0087" height="11.0087" transform="rotate(-90 48.6877 46.9199)" fill="#1D2327"/>
        <rect x="367.939" y="201.033" width="11.0087" height="11.0087" transform="rotate(90 367.939 201.033)" fill="#1D2327"/>
        <rect x="48.6877" y="24.9004" width="11.0087" height="11.0087" transform="rotate(-90 48.6877 24.9004)" fill="#1D2327"/>
        <rect x="367.939" y="223.049" width="11.0087" height="11.0087" transform="rotate(90 367.939 223.049)" fill="#1D2327"/>
        <rect x="48.6877" y="2.88281" width="11.0087" height="11.0087" transform="rotate(-90 48.6877 2.88281)" fill="#1D2327"/>
        <rect x="378.949" y="-8.13477" width="11.0087" height="11.0087" transform="rotate(90 378.949 -8.13477)" fill="#1D2327"/>
        <rect x="37.6783" y="234.066" width="11.0087" height="11.0087" transform="rotate(-90 37.6783 234.066)" fill="#1D2327"/>
        <rect x="378.949" y="13.8809" width="11.0087" height="11.0087" transform="rotate(90 378.949 13.8809)" fill="#1D2327"/>
        <rect x="37.6783" y="212.049" width="11.0087" height="11.0087" transform="rotate(-90 37.6783 212.049)" fill="#1D2327"/>
        <rect x="378.949" y="35.9023" width="11.0087" height="11.0087" transform="rotate(90 378.949 35.9023)" fill="#1D2327"/>
        <rect x="37.6783" y="190.031" width="11.0087" height="11.0087" transform="rotate(-90 37.6783 190.031)" fill="#1D2327"/>
        <rect x="378.949" y="57.9199" width="11.0087" height="11.0087" transform="rotate(90 378.949 57.9199)" fill="#1D2327"/>
        <rect x="37.6783" y="168.014" width="11.0087" height="11.0087" transform="rotate(-90 37.6783 168.014)" fill="#1D2327"/>
        <rect x="378.949" y="79.9355" width="11.0087" height="11.0087" transform="rotate(90 378.949 79.9355)" fill="#1D2327"/>
        <rect x="37.6783" y="145.998" width="11.0087" height="11.0087" transform="rotate(-90 37.6783 145.998)" fill="#1D2327"/>
        <rect x="378.949" y="101.951" width="11.0087" height="11.0087" transform="rotate(90 378.949 101.951)" fill="#1D2327"/>
        <rect x="37.6783" y="123.98" width="11.0087" height="11.0087" transform="rotate(-90 37.6783 123.98)" fill="#1D2327"/>
        <rect x="378.949" y="123.971" width="11.0087" height="11.0087" transform="rotate(90 378.949 123.971)" fill="#1D2327"/>
        <rect x="37.6783" y="101.961" width="11.0087" height="11.0087" transform="rotate(-90 37.6783 101.961)" fill="#1D2327"/>
        <rect x="378.949" y="145.986" width="11.0087" height="11.0087" transform="rotate(90 378.949 145.986)" fill="#1D2327"/>
        <rect x="37.6783" y="79.9434" width="11.0087" height="11.0087" transform="rotate(-90 37.6783 79.9434)" fill="#1D2327"/>
        <rect x="378.949" y="168.004" width="11.0087" height="11.0087" transform="rotate(90 378.949 168.004)" fill="#1D2327"/>
        <rect x="37.6783" y="57.9258" width="11.0087" height="11.0087" transform="rotate(-90 37.6783 57.9258)" fill="#1D2327"/>
        <rect x="378.949" y="190.021" width="11.0087" height="11.0087" transform="rotate(90 378.949 190.021)" fill="#1D2327"/>
        <rect x="37.6783" y="35.9102" width="11.0087" height="11.0087" transform="rotate(-90 37.6783 35.9102)" fill="#1D2327"/>
        <rect x="378.949" y="212.041" width="11.0087" height="11.0087" transform="rotate(90 378.949 212.041)" fill="#1D2327"/>
        <rect x="37.6783" y="13.8926" width="11.0087" height="11.0087" transform="rotate(-90 37.6783 13.8926)" fill="#1D2327"/>
        <rect x="389.956" y="2.875" width="11.0087" height="11.0087" transform="rotate(90 389.956 2.875)" fill="#1D2327"/>
        <rect x="26.669" y="223.059" width="11.0087" height="11.0087" transform="rotate(-90 26.669 223.059)" fill="#1D2327"/>
        <rect x="389.956" y="24.8906" width="11.0087" height="11.0087" transform="rotate(90 389.956 24.8906)" fill="#1D2327"/>
        <rect x="26.669" y="201.041" width="11.0087" height="11.0087" transform="rotate(-90 26.669 201.041)" fill="#1D2327"/>
        <rect x="389.956" y="46.9102" width="11.0087" height="11.0087" transform="rotate(90 389.956 46.9102)" fill="#1D2327"/>
        <rect x="26.6691" y="179.023" width="11.0087" height="11.0087" transform="rotate(-90 26.6691 179.023)" fill="#1D2327"/>
        <rect x="389.956" y="68.9258" width="11.0087" height="11.0087" transform="rotate(90 389.956 68.9258)" fill="#1D2327"/>
        <rect x="26.6691" y="157.006" width="11.0087" height="11.0087" transform="rotate(-90 26.6691 157.006)" fill="#1D2327"/>
        <rect x="389.956" y="90.9434" width="11.0087" height="11.0087" transform="rotate(90 389.956 90.9434)" fill="#1D2327"/>
        <rect x="26.6691" y="134.988" width="11.0087" height="11.0087" transform="rotate(-90 26.6691 134.988)" fill="#1D2327"/>
        <rect x="389.956" y="112.963" width="11.0087" height="11.0087" transform="rotate(90 389.956 112.963)" fill="#1D2327"/>
        <rect x="26.6691" y="112.971" width="11.0087" height="11.0087" transform="rotate(-90 26.6691 112.971)" fill="#1D2327"/>
        <rect x="389.956" y="134.98" width="11.0087" height="11.0087" transform="rotate(90 389.956 134.98)" fill="#1D2327"/>
        <rect x="26.6691" y="90.9531" width="11.0087" height="11.0087" transform="rotate(-90 26.6691 90.9531)" fill="#1D2327"/>
        <rect x="389.956" y="156.996" width="11.0087" height="11.0087" transform="rotate(90 389.956 156.996)" fill="#1D2327"/>
        <rect x="26.6691" y="68.9355" width="11.0087" height="11.0087" transform="rotate(-90 26.6691 68.9355)" fill="#1D2327"/>
        <rect x="389.956" y="179.012" width="11.0087" height="11.0087" transform="rotate(90 389.956 179.012)" fill="#1D2327"/>
        <rect x="26.6691" y="46.9199" width="11.0087" height="11.0087" transform="rotate(-90 26.6691 46.9199)" fill="#1D2327"/>
        <rect x="389.956" y="201.033" width="11.0087" height="11.0087" transform="rotate(90 389.956 201.033)" fill="#1D2327"/>
        <rect x="26.6691" y="24.9004" width="11.0087" height="11.0087" transform="rotate(-90 26.6691 24.9004)" fill="#1D2327"/>
        <rect x="389.956" y="223.049" width="11.0087" height="11.0087" transform="rotate(90 389.956 223.049)" fill="#1D2327"/>
        <rect x="26.6691" y="2.88281" width="11.0087" height="11.0087" transform="rotate(-90 26.6691 2.88281)" fill="#1D2327"/>
        <rect x="400.965" y="-8.13477" width="11.0087" height="11.0087" transform="rotate(90 400.965 -8.13477)" fill="#1D2327"/>
        <rect x="15.662" y="234.066" width="11.0087" height="11.0087" transform="rotate(-90 15.662 234.066)" fill="#1D2327"/>
        <rect x="400.965" y="13.8809" width="11.0087" height="11.0087" transform="rotate(90 400.965 13.8809)" fill="#1D2327"/>
        <rect x="15.662" y="212.049" width="11.0087" height="11.0087" transform="rotate(-90 15.662 212.049)" fill="#1D2327"/>
        <rect x="400.965" y="35.9023" width="11.0087" height="11.0087" transform="rotate(90 400.965 35.9023)" fill="#1D2327"/>
        <rect x="15.662" y="190.031" width="11.0087" height="11.0087" transform="rotate(-90 15.662 190.031)" fill="#1D2327"/>
        <rect x="400.965" y="57.9199" width="11.0087" height="11.0087" transform="rotate(90 400.965 57.9199)" fill="#1D2327"/>
        <rect x="15.662" y="168.014" width="11.0087" height="11.0087" transform="rotate(-90 15.662 168.014)" fill="#1D2327"/>
        <rect x="400.965" y="79.9355" width="11.0087" height="11.0087" transform="rotate(90 400.965 79.9355)" fill="#1D2327"/>
        <rect x="15.662" y="145.998" width="11.0087" height="11.0087" transform="rotate(-90 15.662 145.998)" fill="#1D2327"/>
        <rect x="400.965" y="101.951" width="11.0087" height="11.0087" transform="rotate(90 400.965 101.951)" fill="#1D2327"/>
        <rect x="15.662" y="123.98" width="11.0087" height="11.0087" transform="rotate(-90 15.662 123.98)" fill="#1D2327"/>
        <rect x="400.965" y="123.971" width="11.0087" height="11.0087" transform="rotate(90 400.965 123.971)" fill="#1D2327"/>
        <rect x="15.662" y="101.961" width="11.0087" height="11.0087" transform="rotate(-90 15.662 101.961)" fill="#1D2327"/>
        <rect x="400.965" y="145.986" width="11.0087" height="11.0087" transform="rotate(90 400.965 145.986)" fill="#1D2327"/>
        <rect x="15.662" y="79.9434" width="11.0087" height="11.0087" transform="rotate(-90 15.662 79.9434)" fill="#1D2327"/>
        <rect x="400.965" y="168.004" width="11.0087" height="11.0087" transform="rotate(90 400.965 168.004)" fill="#1D2327"/>
        <rect x="15.662" y="57.9258" width="11.0087" height="11.0087" transform="rotate(-90 15.662 57.9258)" fill="#1D2327"/>
        <rect x="400.965" y="190.021" width="11.0087" height="11.0087" transform="rotate(90 400.965 190.021)" fill="#1D2327"/>
        <rect x="15.662" y="35.9102" width="11.0087" height="11.0087" transform="rotate(-90 15.662 35.9102)" fill="#1D2327"/>
        <rect x="400.965" y="212.041" width="11.0087" height="11.0087" transform="rotate(90 400.965 212.041)" fill="#1D2327"/>
        <rect x="15.662" y="13.8926" width="11.0087" height="11.0087" transform="rotate(-90 15.662 13.8926)" fill="#1D2327"/>
        <rect x="411.974" y="2.875" width="11.0087" height="11.0087" transform="rotate(90 411.974 2.875)" fill="#1D2327"/>
        <rect x="4.65268" y="223.059" width="11.0087" height="11.0087" transform="rotate(-90 4.65268 223.059)" fill="#1D2327"/>
        <rect x="411.974" y="24.8906" width="11.0087" height="11.0087" transform="rotate(90 411.974 24.8906)" fill="#1D2327"/>
        <rect x="4.65268" y="201.041" width="11.0087" height="11.0087" transform="rotate(-90 4.65268 201.041)" fill="#1D2327"/>
        <rect x="411.974" y="46.9102" width="11.0087" height="11.0087" transform="rotate(90 411.974 46.9102)" fill="#1D2327"/>
        <rect x="4.65271" y="179.023" width="11.0087" height="11.0087" transform="rotate(-90 4.65271 179.023)" fill="#1D2327"/>
        <rect x="411.974" y="68.9258" width="11.0087" height="11.0087" transform="rotate(90 411.974 68.9258)" fill="#1D2327"/>
        <rect x="4.65271" y="157.006" width="11.0087" height="11.0087" transform="rotate(-90 4.65271 157.006)" fill="#1D2327"/>
        <rect x="411.974" y="90.9434" width="11.0087" height="11.0087" transform="rotate(90 411.974 90.9434)" fill="#1D2327"/>
        <rect x="4.65271" y="134.988" width="11.0087" height="11.0087" transform="rotate(-90 4.65271 134.988)" fill="#1D2327"/>
        <rect x="411.974" y="112.963" width="11.0087" height="11.0087" transform="rotate(90 411.974 112.963)" fill="#1D2327"/>
        <rect x="4.65268" y="112.971" width="11.0087" height="11.0087" transform="rotate(-90 4.65268 112.971)" fill="#1D2327"/>
        <rect x="411.974" y="134.98" width="11.0087" height="11.0087" transform="rotate(90 411.974 134.98)" fill="#1D2327"/>
        <rect x="4.65268" y="90.9531" width="11.0087" height="11.0087" transform="rotate(-90 4.65268 90.9531)" fill="#1D2327"/>
        <rect x="411.974" y="156.996" width="11.0087" height="11.0087" transform="rotate(90 411.974 156.996)" fill="#1D2327"/>
        <rect x="4.65268" y="68.9355" width="11.0087" height="11.0087" transform="rotate(-90 4.65268 68.9355)" fill="#1D2327"/>
        <rect x="411.974" y="179.012" width="11.0087" height="11.0087" transform="rotate(90 411.974 179.012)" fill="#1D2327"/>
        <rect x="4.65268" y="46.9199" width="11.0087" height="11.0087" transform="rotate(-90 4.65268 46.9199)" fill="#1D2327"/>
        <rect x="411.974" y="201.033" width="11.0087" height="11.0087" transform="rotate(90 411.974 201.033)" fill="#1D2327"/>
        <rect x="4.65268" y="24.9004" width="11.0087" height="11.0087" transform="rotate(-90 4.65268 24.9004)" fill="#1D2327"/>
        <rect x="411.974" y="223.049" width="11.0087" height="11.0087" transform="rotate(90 411.974 223.049)" fill="#1D2327"/>
        <rect x="4.65268" y="2.88281" width="11.0087" height="11.0087" transform="rotate(-90 4.65268 2.88281)" fill="#1D2327"/>
        <rect x="422.984" y="24.8906" width="11.0087" height="11.0087" transform="rotate(90 422.984 24.8906)" fill="#1D2327"/>
        <rect x="-6.35663" y="201.041" width="11.0087" height="11.0087" transform="rotate(-90 -6.35663 201.041)" fill="#1D2327"/>
        <rect x="422.984" y="46.9102" width="11.0087" height="11.0087" transform="rotate(90 422.984 46.9102)" fill="#1D2327"/>
        <rect x="-6.3566" y="179.023" width="11.0087" height="11.0087" transform="rotate(-90 -6.3566 179.023)" fill="#1D2327"/>
        <rect x="422.984" y="68.9258" width="11.0087" height="11.0087" transform="rotate(90 422.984 68.9258)" fill="#1D2327"/>
        <rect x="-6.3566" y="157.006" width="11.0087" height="11.0087" transform="rotate(-90 -6.3566 157.006)" fill="#1D2327"/>
        <rect x="422.984" y="90.9434" width="11.0087" height="11.0087" transform="rotate(90 422.984 90.9434)" fill="#1D2327"/>
        <rect x="-6.3566" y="134.988" width="11.0087" height="11.0087" transform="rotate(-90 -6.3566 134.988)" fill="#1D2327"/>
        <rect x="422.984" y="112.963" width="11.0087" height="11.0087" transform="rotate(90 422.984 112.963)" fill="#1D2327"/>
        <rect x="-6.3566" y="112.971" width="11.0087" height="11.0087" transform="rotate(-90 -6.3566 112.971)" fill="#1D2327"/>
        <rect x="422.984" y="134.98" width="11.0087" height="11.0087" transform="rotate(90 422.984 134.98)" fill="#1D2327"/>
        <rect x="-6.3566" y="90.9531" width="11.0087" height="11.0087" transform="rotate(-90 -6.3566 90.9531)" fill="#1D2327"/>
        <rect x="422.984" y="156.996" width="11.0087" height="11.0087" transform="rotate(90 422.984 156.996)" fill="#1D2327"/>
        <rect x="-6.3566" y="68.9355" width="11.0087" height="11.0087" transform="rotate(-90 -6.3566 68.9355)" fill="#1D2327"/>
        <rect x="422.984" y="179.012" width="11.0087" height="11.0087" transform="rotate(90 422.984 179.012)" fill="#1D2327"/>
        <rect x="-6.3566" y="46.9199" width="11.0087" height="11.0087" transform="rotate(-90 -6.3566 46.9199)" fill="#1D2327"/>
        <rect x="422.984" y="201.033" width="11.0087" height="11.0087" transform="rotate(90 422.984 201.033)" fill="#1D2327"/>
        <rect x="-6.3566" y="24.9004" width="11.0087" height="11.0087" transform="rotate(-90 -6.3566 24.9004)" fill="#1D2327"/>
        <rect x="422.984" y="223.049" width="11.0087" height="11.0087" transform="rotate(90 422.984 223.049)" fill="#1D2327"/>
        <rect x="-6.3566" y="2.88281" width="11.0087" height="11.0087" transform="rotate(-90 -6.3566 2.88281)" fill="#1D2327"/>
        <path fill-rule="evenodd" clip-rule="evenodd" d="M186.408 88.2149L192.865 69.5773C194.072 66.5663 194.474 64.159 194.474 62.0183C194.474 61.241 194.422 60.5199 194.331 59.8477C195.982 62.8536 196.921 66.3032 196.921 69.9729C196.921 77.7587 192.694 84.5572 186.408 88.2149ZM178.697 60.0778C179.97 60.0111 181.117 59.8774 181.117 59.8774C182.256 59.7432 182.122 58.0716 180.982 58.1383C180.982 58.1383 177.558 58.4066 175.347 58.4066C173.269 58.4066 169.778 58.1383 169.778 58.1383C168.638 58.0716 168.505 59.8102 169.645 59.8774C169.645 59.8774 170.723 60.0111 171.862 60.0778L175.155 69.0871L170.528 82.9385L162.829 60.0778C164.103 60.0111 165.249 59.8774 165.249 59.8774C166.388 59.7432 166.253 58.0716 165.114 58.1383C165.114 58.1383 161.69 58.4066 159.479 58.4066C159.083 58.4066 158.615 58.3966 158.117 58.3808C161.898 52.6519 168.396 48.8685 175.783 48.8685C181.287 48.8685 186.299 50.9692 190.06 54.4096C189.97 54.4039 189.88 54.3924 189.787 54.3924C187.709 54.3924 186.236 56.1983 186.236 58.1383C186.236 59.8774 187.241 61.3486 188.313 63.0883C189.117 64.4939 190.056 66.2994 190.056 68.9082C190.056 70.7155 189.519 72.9885 188.447 75.7315L186.338 82.765L178.697 60.0778ZM175.782 91.08C173.707 91.08 171.704 90.7754 169.81 90.2203L176.154 71.8192L182.652 89.5922C182.695 89.6959 182.747 89.7915 182.804 89.8828C180.606 90.6543 178.245 91.08 175.782 91.08ZM154.64 69.9737C154.64 66.9138 155.297 64.0087 156.471 61.3844L166.556 88.9677C159.502 85.5473 154.64 78.3281 154.64 69.9737ZM175.781 46.5C162.815 46.5 152.266 57.03 152.266 69.9733C152.266 82.9177 162.815 93.4489 175.781 93.4489C188.748 93.4489 199.297 82.9177 199.297 69.9733C199.297 57.03 188.748 46.5 175.781 46.5Z" fill="white"/>
        <path fill-rule="evenodd" clip-rule="evenodd" d="M239.884 46.5C226.672 46.5 215.992 57.2591 215.992 70.5697C215.992 81.2095 222.835 90.2159 232.329 93.4035C233.516 93.6431 233.95 92.8856 233.95 92.2484C233.95 91.6903 233.911 89.7777 233.911 87.7848C227.265 89.2197 225.881 84.9155 225.881 84.9155C224.813 82.126 223.23 81.409 223.23 81.409C221.055 79.9345 223.389 79.9345 223.389 79.9345C225.802 80.0939 227.068 82.4052 227.068 82.4052C229.204 86.0711 232.645 85.0353 234.03 84.3976C234.227 82.8434 234.861 81.7675 235.533 81.1699C230.232 80.6119 224.655 78.5397 224.655 69.2942C224.655 66.6641 225.604 64.5123 227.107 62.8387C226.87 62.2411 226.039 59.7699 227.345 56.4625C227.345 56.4625 229.362 55.8248 233.911 58.9332C235.858 58.4063 237.867 58.1383 239.884 58.136C241.901 58.136 243.958 58.4153 245.857 58.9332C250.406 55.8248 252.423 56.4625 252.423 56.4625C253.729 59.7699 252.898 62.2411 252.661 62.8387C254.204 64.5123 255.113 66.6641 255.113 69.2942C255.113 78.5397 249.536 80.5718 244.196 81.1699C245.066 81.9269 245.817 83.3613 245.817 85.6329C245.817 88.8607 245.778 91.4512 245.778 92.2479C245.778 92.8856 246.213 93.6431 247.4 93.404C256.893 90.2154 263.737 81.2095 263.737 70.5697C263.776 57.2591 253.056 46.5 239.884 46.5Z" fill="#F6F7F7"/>
        <path d="M226.152 107.262C226.152 105.567 226.826 103.941 228.025 102.742C229.224 101.543 230.85 100.869 232.545 100.869C234.241 100.869 235.867 101.543 237.066 102.742C238.265 103.941 238.939 105.567 238.939 107.262C238.939 108.958 238.265 110.584 237.066 111.783C235.867 112.982 234.241 113.656 232.545 113.656C230.85 113.656 229.224 112.982 228.025 111.783C226.826 110.584 226.152 108.958 226.152 107.262ZM201.562 135.786C201.562 134.091 202.236 132.465 203.435 131.266C204.634 130.067 206.26 129.393 207.956 129.393C209.651 129.393 211.277 130.067 212.476 131.266C213.675 132.465 214.349 134.091 214.349 135.786C214.349 137.482 213.675 139.108 212.476 140.307C211.277 141.506 209.651 142.18 207.956 142.18C206.26 142.18 204.634 141.506 203.435 140.307C202.236 139.108 201.562 137.482 201.562 135.786ZM207.956 139.229C208.408 139.229 208.856 139.14 209.273 138.966C209.691 138.793 210.071 138.54 210.39 138.22C210.71 137.9 210.964 137.52 211.136 137.102C211.309 136.684 211.398 136.237 211.398 135.784C211.398 135.332 211.309 134.885 211.136 134.467C210.963 134.049 210.709 133.669 210.389 133.35C210.069 133.03 209.689 132.777 209.272 132.604C208.854 132.431 208.406 132.342 207.954 132.342C207.04 132.342 206.165 132.705 205.519 133.351C204.873 133.997 204.511 134.873 204.511 135.786C204.511 136.7 204.874 137.575 205.52 138.221C206.166 138.867 207.042 139.229 207.956 139.229ZM232.545 110.705C233.459 110.705 234.334 110.342 234.98 109.696C235.626 109.05 235.988 108.174 235.988 107.26C235.988 106.347 235.625 105.471 234.979 104.826C234.333 104.18 233.457 103.818 232.543 103.818C232.091 103.818 231.643 103.907 231.226 104.08C230.808 104.254 230.428 104.507 230.109 104.827C229.789 105.147 229.535 105.527 229.363 105.945C229.19 106.362 229.101 106.81 229.101 107.262C229.101 107.715 229.19 108.162 229.363 108.58C229.536 108.998 229.79 109.377 230.11 109.697C230.43 110.017 230.81 110.27 231.227 110.443C231.645 110.616 232.093 110.705 232.545 110.705Z" fill="#F6F7F7"/>
        <path d="M207.954 130.867C207.562 130.867 207.187 130.712 206.91 130.435C206.634 130.158 206.478 129.783 206.478 129.392V125.756C206.478 125.364 206.634 124.989 206.91 124.712C207.187 124.436 207.562 124.28 207.954 124.28C208.345 124.28 208.72 124.436 208.997 124.712C209.274 124.989 209.429 125.364 209.429 125.756V129.392C209.429 129.783 209.274 130.158 208.997 130.435C208.72 130.712 208.345 130.867 207.954 130.867Z" fill="#F6F7F7"/>
        <path d="M231.068 115.132V113.165H234.019V115.132C234.019 117.089 233.241 118.965 231.858 120.348C230.475 121.732 228.598 122.509 226.642 122.509H212.872C211.959 122.509 211.083 122.872 210.437 123.517C209.792 124.163 209.429 125.039 209.429 125.952H206.478C206.478 124.256 207.152 122.63 208.351 121.431C209.55 120.232 211.176 119.558 212.872 119.558H226.642C227.816 119.558 228.941 119.092 229.772 118.262C230.602 117.432 231.068 116.306 231.068 115.132Z" fill="#F6F7F7"/>
        <path d="M189.85 107.262C189.85 105.567 189.177 103.941 187.978 102.742C186.779 101.543 185.153 100.869 183.457 100.869C181.762 100.869 180.135 101.543 178.936 102.742C177.737 103.941 177.064 105.567 177.064 107.262C177.064 108.958 177.737 110.584 178.936 111.783C180.135 112.982 181.762 113.656 183.457 113.656C185.153 113.656 186.779 112.982 187.978 111.783C189.177 110.584 189.85 108.958 189.85 107.262ZM214.44 135.786C214.44 134.091 213.767 132.465 212.568 131.266C211.369 130.067 209.742 129.393 208.047 129.393C206.351 129.393 204.725 130.067 203.526 131.266C202.327 132.465 201.653 134.091 201.653 135.786C201.653 137.482 202.327 139.108 203.526 140.307C204.725 141.506 206.351 142.18 208.047 142.18C209.742 142.18 211.369 141.506 212.568 140.307C213.767 139.108 214.44 137.482 214.44 135.786ZM208.047 139.229C207.595 139.229 207.147 139.14 206.729 138.966C206.311 138.793 205.932 138.54 205.612 138.22C205.292 137.9 205.039 137.52 204.866 137.102C204.693 136.684 204.604 136.237 204.604 135.784C204.604 135.332 204.694 134.885 204.867 134.467C205.04 134.049 205.294 133.669 205.614 133.35C205.933 133.03 206.313 132.777 206.731 132.604C207.149 132.431 207.597 132.342 208.049 132.342C208.962 132.342 209.838 132.705 210.483 133.351C211.129 133.997 211.492 134.873 211.491 135.786C211.491 136.7 211.128 137.575 210.482 138.221C209.836 138.867 208.96 139.229 208.047 139.229ZM183.457 110.705C182.544 110.705 181.668 110.342 181.022 109.696C180.377 109.05 180.014 108.174 180.015 107.26C180.015 106.347 180.378 105.471 181.024 104.826C181.67 104.18 182.546 103.818 183.459 103.818C183.911 103.818 184.359 103.907 184.777 104.08C185.195 104.254 185.574 104.507 185.894 104.827C186.213 105.147 186.467 105.527 186.64 105.945C186.813 106.362 186.902 106.81 186.902 107.262C186.902 107.715 186.812 108.162 186.639 108.58C186.466 108.998 186.212 109.377 185.892 109.697C185.573 110.017 185.193 110.27 184.775 110.443C184.357 110.616 183.909 110.705 183.457 110.705Z" fill="#F6F7F7"/>
        <path d="M208.049 130.867C208.44 130.867 208.815 130.712 209.092 130.435C209.369 130.158 209.524 129.783 209.524 129.392V125.756C209.524 125.364 209.369 124.989 209.092 124.712C208.815 124.436 208.44 124.28 208.049 124.28C207.657 124.28 207.282 124.436 207.006 124.712C206.729 124.989 206.573 125.364 206.573 125.756V129.392C206.573 129.783 206.729 130.158 207.006 130.435C207.282 130.712 207.657 130.867 208.049 130.867Z" fill="#F6F7F7"/>
        <path d="M184.935 115.132V113.165H181.984V115.132C181.984 117.089 182.761 118.965 184.144 120.348C185.528 121.732 187.404 122.509 189.361 122.509H203.131C204.044 122.509 204.92 122.872 205.565 123.517C206.211 124.163 206.573 125.039 206.573 125.952H209.524C209.524 124.256 208.851 122.63 207.652 121.431C206.453 120.232 204.826 119.558 203.131 119.558H189.361C188.187 119.558 187.061 119.092 186.231 118.262C185.401 117.432 184.935 116.306 184.935 115.132Z" fill="#F6F7F7"/>
        <rect x="163.368" y="149.6" width="89.2671" height="28.9007" rx="14.4503" fill="#B8E6BF"/>
        <path d="M174.408 169.6V158.57H178.191C181.463 158.57 183.397 160.61 183.397 164.073V164.088C183.397 167.559 181.471 169.6 178.191 169.6H174.408ZM175.784 168.361H178.1C180.561 168.361 181.99 166.787 181.99 164.104V164.088C181.99 161.398 180.546 159.808 178.1 159.808H175.784V168.361ZM188.977 169.745C186.622 169.745 185.201 168.094 185.201 165.51V165.503C185.201 162.957 186.653 161.214 188.893 161.214C191.132 161.214 192.493 162.881 192.493 165.342V165.862H186.561C186.6 167.566 187.54 168.56 189.007 168.56C190.123 168.56 190.811 168.033 191.033 167.536L191.064 167.467H192.394L192.378 167.528C192.095 168.644 190.918 169.745 188.977 169.745ZM188.885 162.399C187.662 162.399 186.73 163.232 186.584 164.799H191.14C191.002 163.171 190.1 162.399 188.885 162.399ZM194.557 172.351V161.36H195.887V162.674H196.009C196.514 161.757 197.431 161.214 198.577 161.214C200.664 161.214 202.032 162.904 202.032 165.472V165.487C202.032 168.071 200.672 169.745 198.577 169.745C197.446 169.745 196.46 169.179 196.009 168.3H195.887V172.351H194.557ZM198.272 168.568C199.777 168.568 200.672 167.406 200.672 165.487V165.472C200.672 163.553 199.777 162.391 198.272 162.391C196.773 162.391 195.856 163.569 195.856 165.472V165.487C195.856 167.391 196.773 168.568 198.272 168.568ZM204.188 169.6V158.088H205.518V169.6H204.188ZM211.457 169.745C209.111 169.745 207.658 168.124 207.658 165.487V165.472C207.658 162.827 209.111 161.214 211.457 161.214C213.804 161.214 215.256 162.827 215.256 165.472V165.487C215.256 168.124 213.804 169.745 211.457 169.745ZM211.457 168.568C213.017 168.568 213.896 167.429 213.896 165.487V165.472C213.896 163.523 213.017 162.391 211.457 162.391C209.898 162.391 209.019 163.523 209.019 165.472V165.487C209.019 167.429 209.898 168.568 211.457 168.568ZM217.718 172.489C217.542 172.489 217.312 172.474 217.129 172.443V171.35C217.289 171.381 217.496 171.388 217.679 171.388C218.436 171.388 218.895 171.044 219.193 170.096L219.346 169.607L216.296 161.36H217.718L219.98 168.14H220.102L222.357 161.36H223.756L220.538 170.104C219.858 171.954 219.177 172.489 217.718 172.489ZM228.572 169.745C226.217 169.745 224.796 168.094 224.796 165.51V165.503C224.796 162.957 226.248 161.214 228.488 161.214C230.727 161.214 232.088 162.881 232.088 165.342V165.862H226.156C226.194 167.566 227.135 168.56 228.602 168.56C229.718 168.56 230.406 168.033 230.628 167.536L230.658 167.467H231.989L231.973 167.528C231.69 168.644 230.513 169.745 228.572 169.745ZM228.48 162.399C227.257 162.399 226.324 163.232 226.179 164.799H230.735C230.597 163.171 229.695 162.399 228.48 162.399ZM237.194 169.745C235.107 169.745 233.739 168.056 233.739 165.487V165.472C233.739 162.888 235.1 161.214 237.194 161.214C238.325 161.214 239.311 161.78 239.762 162.659H239.885V158.088H241.215V169.6H239.885V168.285H239.762C239.258 169.202 238.341 169.745 237.194 169.745ZM237.5 168.568C238.998 168.568 239.915 167.391 239.915 165.487V165.472C239.915 163.569 238.998 162.391 237.5 162.391C235.994 162.391 235.1 163.553 235.1 165.472V165.487C235.1 167.406 235.994 168.568 237.5 168.568Z" fill="#00450C"/>
    </g>
    <defs>
        <clipPath id="clip0_6738_28348">
            <rect width="416" height="241" fill="white"/>
        </clipPath>
    </defs>
</svg>
