<svg width="416" height="225" viewBox="0 0 416 225" fill="none"
    xmlns="http://www.w3.org/2000/svg">
    <g clip-path="url(#clip0_6633_56682)">
        <rect width="416" height="225" fill="black"/>
        <rect x="301.888" y="-8.13477" width="11.0087" height="11.0087" transform="rotate(90 301.888 -8.13477)" fill="#1D2327"/>
        <rect x="114.739" y="234.066" width="11.0087" height="11.0087" transform="rotate(-90 114.739 234.066)" fill="#1D2327"/>
        <rect x="301.888" y="13.8809" width="11.0087" height="11.0087" transform="rotate(90 301.888 13.8809)" fill="#1D2327"/>
        <rect x="114.739" y="212.049" width="11.0087" height="11.0087" transform="rotate(-90 114.739 212.049)" fill="#1D2327"/>
        <rect x="301.888" y="35.9023" width="11.0087" height="11.0087" transform="rotate(90 301.888 35.9023)" fill="#1D2327"/>
        <rect x="114.739" y="190.031" width="11.0087" height="11.0087" transform="rotate(-90 114.739 190.031)" fill="#1D2327"/>
        <rect x="301.888" y="57.9199" width="11.0087" height="11.0087" transform="rotate(90 301.888 57.9199)" fill="#1D2327"/>
        <rect x="114.739" y="168.014" width="11.0087" height="11.0087" transform="rotate(-90 114.739 168.014)" fill="#1D2327"/>
        <rect x="301.888" y="79.9355" width="11.0087" height="11.0087" transform="rotate(90 301.888 79.9355)" fill="#1D2327"/>
        <rect x="114.739" y="145.998" width="11.0087" height="11.0087" transform="rotate(-90 114.739 145.998)" fill="#1D2327"/>
        <rect x="301.888" y="101.951" width="11.0087" height="11.0087" transform="rotate(90 301.888 101.951)" fill="#1D2327"/>
        <rect x="114.739" y="123.98" width="11.0087" height="11.0087" transform="rotate(-90 114.739 123.98)" fill="#1D2327"/>
        <rect x="301.888" y="123.971" width="11.0087" height="11.0087" transform="rotate(90 301.888 123.971)" fill="#1D2327"/>
        <rect x="114.739" y="101.961" width="11.0087" height="11.0087" transform="rotate(-90 114.739 101.961)" fill="#1D2327"/>
        <rect x="334.914" y="-8.13477" width="11.0087" height="11.0087" transform="rotate(90 334.914 -8.13477)" fill="#1D2327"/>
        <rect x="81.7133" y="234.066" width="11.0087" height="11.0087" transform="rotate(-90 81.7133 234.066)" fill="#1D2327"/>
        <rect x="334.914" y="13.8809" width="11.0087" height="11.0087" transform="rotate(90 334.914 13.8809)" fill="#1D2327"/>
        <rect x="81.7133" y="212.049" width="11.0087" height="11.0087" transform="rotate(-90 81.7133 212.049)" fill="#1D2327"/>
        <rect x="334.914" y="35.9023" width="11.0087" height="11.0087" transform="rotate(90 334.914 35.9023)" fill="#1D2327"/>
        <rect x="81.7133" y="190.031" width="11.0087" height="11.0087" transform="rotate(-90 81.7133 190.031)" fill="#1D2327"/>
        <rect x="334.914" y="57.9199" width="11.0087" height="11.0087" transform="rotate(90 334.914 57.9199)" fill="#1D2327"/>
        <rect x="81.7133" y="168.014" width="11.0087" height="11.0087" transform="rotate(-90 81.7133 168.014)" fill="#1D2327"/>
        <rect x="334.914" y="79.9355" width="11.0087" height="11.0087" transform="rotate(90 334.914 79.9355)" fill="#1D2327"/>
        <rect x="81.7133" y="145.998" width="11.0087" height="11.0087" transform="rotate(-90 81.7133 145.998)" fill="#1D2327"/>
        <rect x="334.914" y="101.951" width="11.0087" height="11.0087" transform="rotate(90 334.914 101.951)" fill="#1D2327"/>
        <rect x="81.7133" y="123.98" width="11.0087" height="11.0087" transform="rotate(-90 81.7133 123.98)" fill="#1D2327"/>
        <rect x="334.914" y="123.971" width="11.0087" height="11.0087" transform="rotate(90 334.914 123.971)" fill="#1D2327"/>
        <rect x="81.7133" y="101.961" width="11.0087" height="11.0087" transform="rotate(-90 81.7133 101.961)" fill="#1D2327"/>
        <rect x="334.914" y="145.986" width="11.0087" height="11.0087" transform="rotate(90 334.914 145.986)" fill="#1D2327"/>
        <rect x="81.7133" y="79.9434" width="11.0087" height="11.0087" transform="rotate(-90 81.7133 79.9434)" fill="#1D2327"/>
        <rect x="323.905" y="156.996" width="11.0087" height="11.0087" transform="rotate(90 323.905 156.996)" fill="#1D2327"/>
        <rect x="92.7225" y="68.9355" width="11.0087" height="11.0087" transform="rotate(-90 92.7225 68.9355)" fill="#1D2327"/>
        <rect x="312.895" y="168.004" width="11.0087" height="11.0087" transform="rotate(90 312.895 168.004)" fill="#1D2327"/>
        <rect x="103.73" y="57.9258" width="11.0087" height="11.0087" transform="rotate(-90 103.73 57.9258)" fill="#1D2327"/>
        <rect x="312.895" y="190.021" width="11.0087" height="11.0087" transform="rotate(90 312.895 190.021)" fill="#1D2327"/>
        <rect x="103.73" y="35.9102" width="11.0087" height="11.0087" transform="rotate(-90 103.73 35.9102)" fill="#1D2327"/>
        <rect x="312.895" y="212.041" width="11.0087" height="11.0087" transform="rotate(90 312.895 212.041)" fill="#1D2327"/>
        <rect x="103.73" y="13.8926" width="11.0087" height="11.0087" transform="rotate(-90 103.73 13.8926)" fill="#1D2327"/>
        <rect x="312.895" y="179.012" width="11.0087" height="11.0087" transform="rotate(90 312.895 179.012)" fill="#1D2327"/>
        <rect x="103.73" y="46.9199" width="11.0087" height="11.0087" transform="rotate(-90 103.73 46.9199)" fill="#1D2327"/>
        <rect x="334.914" y="168.004" width="11.0087" height="11.0087" transform="rotate(90 334.914 168.004)" fill="#1D2327"/>
        <rect x="81.7133" y="57.9258" width="11.0087" height="11.0087" transform="rotate(-90 81.7133 57.9258)" fill="#1D2327"/>
        <rect x="334.914" y="190.021" width="11.0087" height="11.0087" transform="rotate(90 334.914 190.021)" fill="#1D2327"/>
        <rect x="81.7133" y="35.9102" width="11.0087" height="11.0087" transform="rotate(-90 81.7133 35.9102)" fill="#1D2327"/>
        <rect x="334.914" y="212.041" width="11.0087" height="11.0087" transform="rotate(90 334.914 212.041)" fill="#1D2327"/>
        <rect x="81.7133" y="13.8926" width="11.0087" height="11.0087" transform="rotate(-90 81.7133 13.8926)" fill="#1D2327"/>
        <rect x="246.842" y="-8.13477" width="11.0087" height="11.0087" transform="rotate(90 246.842 -8.13477)" fill="#1D2327"/>
        <rect x="169.783" y="234.066" width="11.0087" height="11.0087" transform="rotate(-90 169.783 234.066)" fill="#1D2327"/>
        <rect x="246.842" y="13.8809" width="11.0087" height="11.0087" transform="rotate(90 246.842 13.8809)" fill="#1D2327"/>
        <rect x="169.783" y="212.049" width="11.0087" height="11.0087" transform="rotate(-90 169.783 212.049)" fill="#1D2327"/>
        <rect x="246.842" y="35.9023" width="11.0087" height="11.0087" transform="rotate(90 246.842 35.9023)" fill="#1D2327"/>
        <rect x="169.783" y="190.031" width="11.0087" height="11.0087" transform="rotate(-90 169.783 190.031)" fill="#1D2327"/>
        <rect x="246.842" y="57.9199" width="11.0087" height="11.0087" transform="rotate(90 246.842 57.9199)" fill="#1D2327"/>
        <rect x="169.783" y="168.014" width="11.0087" height="11.0087" transform="rotate(-90 169.783 168.014)" fill="#1D2327"/>
        <rect x="246.842" y="79.9355" width="11.0087" height="11.0087" transform="rotate(90 246.842 79.9355)" fill="#1D2327"/>
        <rect x="169.783" y="145.998" width="11.0087" height="11.0087" transform="rotate(-90 169.783 145.998)" fill="#1D2327"/>
        <rect x="246.842" y="101.951" width="11.0087" height="11.0087" transform="rotate(90 246.842 101.951)" fill="#1D2327"/>
        <rect x="169.783" y="123.98" width="11.0087" height="11.0087" transform="rotate(-90 169.783 123.98)" fill="#1D2327"/>
        <rect x="246.842" y="123.971" width="11.0087" height="11.0087" transform="rotate(90 246.842 123.971)" fill="#1D2327"/>
        <rect x="169.783" y="101.961" width="11.0087" height="11.0087" transform="rotate(-90 169.783 101.961)" fill="#1D2327"/>
        <rect x="246.842" y="145.986" width="11.0087" height="11.0087" transform="rotate(90 246.842 145.986)" fill="#1D2327"/>
        <rect x="169.783" y="79.9434" width="11.0087" height="11.0087" transform="rotate(-90 169.783 79.9434)" fill="#1D2327"/>
        <rect x="246.842" y="168.004" width="11.0087" height="11.0087" transform="rotate(90 246.842 168.004)" fill="#1D2327"/>
        <rect x="169.783" y="57.9258" width="11.0087" height="11.0087" transform="rotate(-90 169.783 57.9258)" fill="#1D2327"/>
        <rect x="246.842" y="190.021" width="11.0087" height="11.0087" transform="rotate(90 246.842 190.021)" fill="#1D2327"/>
        <rect x="169.783" y="35.9102" width="11.0087" height="11.0087" transform="rotate(-90 169.783 35.9102)" fill="#1D2327"/>
        <rect x="246.842" y="212.041" width="11.0087" height="11.0087" transform="rotate(90 246.842 212.041)" fill="#1D2327"/>
        <rect x="169.783" y="13.8926" width="11.0087" height="11.0087" transform="rotate(-90 169.783 13.8926)" fill="#1D2327"/>
        <rect x="235.837" y="2.875" width="11.0087" height="11.0087" transform="rotate(90 235.837 2.875)" fill="#1D2327"/>
        <rect x="180.79" y="223.059" width="11.0087" height="11.0087" transform="rotate(-90 180.79 223.059)" fill="#1D2327"/>
        <rect x="235.837" y="24.8906" width="11.0087" height="11.0087" transform="rotate(90 235.837 24.8906)" fill="#1D2327"/>
        <rect x="180.79" y="201.041" width="11.0087" height="11.0087" transform="rotate(-90 180.79 201.041)" fill="#1D2327"/>
        <rect x="235.837" y="46.9102" width="11.0087" height="11.0087" transform="rotate(90 235.837 46.9102)" fill="#1D2327"/>
        <rect x="180.79" y="179.023" width="11.0087" height="11.0087" transform="rotate(-90 180.79 179.023)" fill="#1D2327"/>
        <rect x="235.837" y="68.9258" width="11.0087" height="11.0087" transform="rotate(90 235.837 68.9258)" fill="#1D2327"/>
        <rect x="180.79" y="157.006" width="11.0087" height="11.0087" transform="rotate(-90 180.79 157.006)" fill="#1D2327"/>
        <rect x="235.837" y="90.9434" width="11.0087" height="11.0087" transform="rotate(90 235.837 90.9434)" fill="#1D2327"/>
        <rect x="180.79" y="134.988" width="11.0087" height="11.0087" transform="rotate(-90 180.79 134.988)" fill="#1D2327"/>
        <rect x="235.837" y="112.963" width="11.0087" height="11.0087" transform="rotate(90 235.837 112.963)" fill="#1D2327"/>
        <rect x="180.79" y="112.971" width="11.0087" height="11.0087" transform="rotate(-90 180.79 112.971)" fill="#1D2327"/>
        <rect x="224.825" y="-8.13477" width="11.0087" height="11.0087" transform="rotate(90 224.825 -8.13477)" fill="#1D2327"/>
        <rect x="191.8" y="234.066" width="11.0087" height="11.0087" transform="rotate(-90 191.8 234.066)" fill="#1D2327"/>
        <rect x="224.825" y="13.8809" width="11.0087" height="11.0087" transform="rotate(90 224.825 13.8809)" fill="#1D2327"/>
        <rect x="191.8" y="212.049" width="11.0087" height="11.0087" transform="rotate(-90 191.8 212.049)" fill="#1D2327"/>
        <rect x="224.825" y="35.9023" width="11.0087" height="11.0087" transform="rotate(90 224.825 35.9023)" fill="#1D2327"/>
        <rect x="191.8" y="190.031" width="11.0087" height="11.0087" transform="rotate(-90 191.8 190.031)" fill="#1D2327"/>
        <rect x="224.825" y="57.9199" width="11.0087" height="11.0087" transform="rotate(90 224.825 57.9199)" fill="#1D2327"/>
        <rect x="191.8" y="168.014" width="11.0087" height="11.0087" transform="rotate(-90 191.8 168.014)" fill="#1D2327"/>
        <rect x="224.825" y="79.9355" width="11.0087" height="11.0087" transform="rotate(90 224.825 79.9355)" fill="#1D2327"/>
        <rect x="191.8" y="145.998" width="11.0087" height="11.0087" transform="rotate(-90 191.8 145.998)" fill="#1D2327"/>
        <rect x="224.825" y="101.951" width="11.0087" height="11.0087" transform="rotate(90 224.825 101.951)" fill="#1D2327"/>
        <rect x="191.8" y="123.98" width="11.0087" height="11.0087" transform="rotate(-90 191.8 123.98)" fill="#1D2327"/>
        <rect x="224.825" y="156.996" width="11.0087" height="11.0087" transform="rotate(90 224.825 156.996)" fill="#1D2327"/>
        <rect x="191.8" y="68.9355" width="11.0087" height="11.0087" transform="rotate(-90 191.8 68.9355)" fill="#1D2327"/>
        <rect x="224.825" y="179.012" width="11.0087" height="11.0087" transform="rotate(90 224.825 179.012)" fill="#1D2327"/>
        <rect x="191.8" y="46.9199" width="11.0087" height="11.0087" transform="rotate(-90 191.8 46.9199)" fill="#1D2327"/>
        <rect x="224.825" y="201.033" width="11.0087" height="11.0087" transform="rotate(90 224.825 201.033)" fill="#1D2327"/>
        <rect x="191.8" y="24.9004" width="11.0087" height="11.0087" transform="rotate(-90 191.8 24.9004)" fill="#1D2327"/>
        <rect x="224.825" y="223.049" width="11.0087" height="11.0087" transform="rotate(90 224.825 223.049)" fill="#1D2327"/>
        <rect x="191.8" y="2.88281" width="11.0087" height="11.0087" transform="rotate(-90 191.8 2.88281)" fill="#1D2327"/>
        <rect x="213.818" y="2.875" width="11.0087" height="11.0087" transform="rotate(90 213.818 2.875)" fill="#1D2327"/>
        <rect x="202.809" y="223.059" width="11.0087" height="11.0087" transform="rotate(-90 202.809 223.059)" fill="#1D2327"/>
        <rect x="213.818" y="24.8906" width="11.0087" height="11.0087" transform="rotate(90 213.818 24.8906)" fill="#1D2327"/>
        <rect x="202.809" y="201.041" width="11.0087" height="11.0087" transform="rotate(-90 202.809 201.041)" fill="#1D2327"/>
        <rect x="213.818" y="46.9102" width="11.0087" height="11.0087" transform="rotate(90 213.818 46.9102)" fill="#1D2327"/>
        <rect x="202.809" y="179.023" width="11.0087" height="11.0087" transform="rotate(-90 202.809 179.023)" fill="#1D2327"/>
        <rect x="213.818" y="68.9258" width="11.0087" height="11.0087" transform="rotate(90 213.818 68.9258)" fill="#1D2327"/>
        <rect x="202.809" y="157.006" width="11.0087" height="11.0087" transform="rotate(-90 202.809 157.006)" fill="#1D2327"/>
        <rect x="213.818" y="90.9434" width="11.0087" height="11.0087" transform="rotate(90 213.818 90.9434)" fill="#1D2327"/>
        <rect x="202.809" y="134.988" width="11.0087" height="11.0087" transform="rotate(-90 202.809 134.988)" fill="#1D2327"/>
        <rect x="268.86" y="-8.13477" width="11.0087" height="11.0087" transform="rotate(90 268.86 -8.13477)" fill="#1D2327"/>
        <rect x="147.765" y="234.066" width="11.0087" height="11.0087" transform="rotate(-90 147.765 234.066)" fill="#1D2327"/>
        <rect x="268.86" y="13.8809" width="11.0087" height="11.0087" transform="rotate(90 268.86 13.8809)" fill="#1D2327"/>
        <rect x="147.765" y="212.049" width="11.0087" height="11.0087" transform="rotate(-90 147.765 212.049)" fill="#1D2327"/>
        <rect x="268.86" y="35.9023" width="11.0087" height="11.0087" transform="rotate(90 268.86 35.9023)" fill="#1D2327"/>
        <rect x="147.765" y="190.031" width="11.0087" height="11.0087" transform="rotate(-90 147.765 190.031)" fill="#1D2327"/>
        <rect x="268.86" y="57.9199" width="11.0087" height="11.0087" transform="rotate(90 268.86 57.9199)" fill="#1D2327"/>
        <rect x="147.765" y="168.014" width="11.0087" height="11.0087" transform="rotate(-90 147.765 168.014)" fill="#1D2327"/>
        <rect x="268.86" y="79.9355" width="11.0087" height="11.0087" transform="rotate(90 268.86 79.9355)" fill="#1D2327"/>
        <rect x="147.765" y="145.998" width="11.0087" height="11.0087" transform="rotate(-90 147.765 145.998)" fill="#1D2327"/>
        <rect x="268.86" y="101.951" width="11.0087" height="11.0087" transform="rotate(90 268.86 101.951)" fill="#1D2327"/>
        <rect x="147.765" y="123.98" width="11.0087" height="11.0087" transform="rotate(-90 147.765 123.98)" fill="#1D2327"/>
        <rect x="268.86" y="123.971" width="11.0087" height="11.0087" transform="rotate(90 268.86 123.971)" fill="#1D2327"/>
        <rect x="147.765" y="101.961" width="11.0087" height="11.0087" transform="rotate(-90 147.765 101.961)" fill="#1D2327"/>
        <rect x="268.86" y="145.986" width="11.0087" height="11.0087" transform="rotate(90 268.86 145.986)" fill="#1D2327"/>
        <rect x="147.765" y="79.9434" width="11.0087" height="11.0087" transform="rotate(-90 147.765 79.9434)" fill="#1D2327"/>
        <rect x="268.86" y="168.004" width="11.0087" height="11.0087" transform="rotate(90 268.86 168.004)" fill="#1D2327"/>
        <rect x="147.765" y="57.9258" width="11.0087" height="11.0087" transform="rotate(-90 147.765 57.9258)" fill="#1D2327"/>
        <rect x="268.86" y="190.021" width="11.0087" height="11.0087" transform="rotate(90 268.86 190.021)" fill="#1D2327"/>
        <rect x="147.765" y="35.9102" width="11.0087" height="11.0087" transform="rotate(-90 147.765 35.9102)" fill="#1D2327"/>
        <rect x="268.86" y="212.041" width="11.0087" height="11.0087" transform="rotate(90 268.86 212.041)" fill="#1D2327"/>
        <rect x="147.765" y="13.8926" width="11.0087" height="11.0087" transform="rotate(-90 147.765 13.8926)" fill="#1D2327"/>
        <rect x="257.853" y="2.875" width="11.0087" height="11.0087" transform="rotate(90 257.853 2.875)" fill="#1D2327"/>
        <rect x="158.774" y="223.059" width="11.0087" height="11.0087" transform="rotate(-90 158.774 223.059)" fill="#1D2327"/>
        <rect x="257.853" y="24.8906" width="11.0087" height="11.0087" transform="rotate(90 257.853 24.8906)" fill="#1D2327"/>
        <rect x="158.774" y="201.041" width="11.0087" height="11.0087" transform="rotate(-90 158.774 201.041)" fill="#1D2327"/>
        <rect x="257.853" y="46.9102" width="11.0087" height="11.0087" transform="rotate(90 257.853 46.9102)" fill="#1D2327"/>
        <rect x="158.774" y="179.023" width="11.0087" height="11.0087" transform="rotate(-90 158.774 179.023)" fill="#1D2327"/>
        <rect x="257.853" y="68.9258" width="11.0087" height="11.0087" transform="rotate(90 257.853 68.9258)" fill="#1D2327"/>
        <rect x="158.774" y="157.006" width="11.0087" height="11.0087" transform="rotate(-90 158.774 157.006)" fill="#1D2327"/>
        <rect x="257.853" y="90.9434" width="11.0087" height="11.0087" transform="rotate(90 257.853 90.9434)" fill="#1D2327"/>
        <rect x="158.774" y="134.988" width="11.0087" height="11.0087" transform="rotate(-90 158.774 134.988)" fill="#1D2327"/>
        <rect x="257.853" y="112.963" width="11.0087" height="11.0087" transform="rotate(90 257.853 112.963)" fill="#1D2327"/>
        <rect x="158.774" y="112.971" width="11.0087" height="11.0087" transform="rotate(-90 158.774 112.971)" fill="#1D2327"/>
        <rect x="257.853" y="134.98" width="11.0087" height="11.0087" transform="rotate(90 257.853 134.98)" fill="#1D2327"/>
        <rect x="158.774" y="90.9531" width="11.0087" height="11.0087" transform="rotate(-90 158.774 90.9531)" fill="#1D2327"/>
        <rect x="279.869" y="2.875" width="11.0087" height="11.0087" transform="rotate(90 279.869 2.875)" fill="#1D2327"/>
        <rect x="136.755" y="223.059" width="11.0087" height="11.0087" transform="rotate(-90 136.755 223.059)" fill="#1D2327"/>
        <rect x="279.869" y="24.8906" width="11.0087" height="11.0087" transform="rotate(90 279.869 24.8906)" fill="#1D2327"/>
        <rect x="136.755" y="201.041" width="11.0087" height="11.0087" transform="rotate(-90 136.755 201.041)" fill="#1D2327"/>
        <rect x="279.869" y="46.9102" width="11.0087" height="11.0087" transform="rotate(90 279.869 46.9102)" fill="#1D2327"/>
        <rect x="136.755" y="179.023" width="11.0087" height="11.0087" transform="rotate(-90 136.755 179.023)" fill="#1D2327"/>
        <rect x="279.869" y="68.9258" width="11.0087" height="11.0087" transform="rotate(90 279.869 68.9258)" fill="#1D2327"/>
        <rect x="136.755" y="157.006" width="11.0087" height="11.0087" transform="rotate(-90 136.755 157.006)" fill="#1D2327"/>
        <rect x="279.869" y="90.9434" width="11.0087" height="11.0087" transform="rotate(90 279.869 90.9434)" fill="#1D2327"/>
        <rect x="136.755" y="134.988" width="11.0087" height="11.0087" transform="rotate(-90 136.755 134.988)" fill="#1D2327"/>
        <rect x="279.869" y="112.963" width="11.0087" height="11.0087" transform="rotate(90 279.869 112.963)" fill="#1D2327"/>
        <rect x="136.755" y="112.971" width="11.0087" height="11.0087" transform="rotate(-90 136.755 112.971)" fill="#1D2327"/>
        <rect x="279.869" y="134.98" width="11.0087" height="11.0087" transform="rotate(90 279.869 134.98)" fill="#1D2327"/>
        <rect x="136.755" y="90.9531" width="11.0087" height="11.0087" transform="rotate(-90 136.755 90.9531)" fill="#1D2327"/>
        <rect x="312.895" y="2.875" width="11.0087" height="11.0087" transform="rotate(90 312.895 2.875)" fill="#1D2327"/>
        <rect x="103.73" y="223.059" width="11.0087" height="11.0087" transform="rotate(-90 103.73 223.059)" fill="#1D2327"/>
        <rect x="312.895" y="24.8906" width="11.0087" height="11.0087" transform="rotate(90 312.895 24.8906)" fill="#1D2327"/>
        <rect x="103.73" y="201.041" width="11.0087" height="11.0087" transform="rotate(-90 103.73 201.041)" fill="#1D2327"/>
        <rect x="312.895" y="46.9102" width="11.0087" height="11.0087" transform="rotate(90 312.895 46.9102)" fill="#1D2327"/>
        <rect x="103.73" y="179.023" width="11.0087" height="11.0087" transform="rotate(-90 103.73 179.023)" fill="#1D2327"/>
        <rect x="312.895" y="68.9258" width="11.0087" height="11.0087" transform="rotate(90 312.895 68.9258)" fill="#1D2327"/>
        <rect x="103.73" y="157.006" width="11.0087" height="11.0087" transform="rotate(-90 103.73 157.006)" fill="#1D2327"/>
        <rect x="312.895" y="90.9434" width="11.0087" height="11.0087" transform="rotate(90 312.895 90.9434)" fill="#1D2327"/>
        <rect x="103.73" y="134.988" width="11.0087" height="11.0087" transform="rotate(-90 103.73 134.988)" fill="#1D2327"/>
        <rect x="312.895" y="112.963" width="11.0087" height="11.0087" transform="rotate(90 312.895 112.963)" fill="#1D2327"/>
        <rect x="103.73" y="112.971" width="11.0087" height="11.0087" transform="rotate(-90 103.73 112.971)" fill="#1D2327"/>
        <rect x="312.895" y="134.98" width="11.0087" height="11.0087" transform="rotate(90 312.895 134.98)" fill="#1D2327"/>
        <rect x="103.73" y="90.9531" width="11.0087" height="11.0087" transform="rotate(-90 103.73 90.9531)" fill="#1D2327"/>
        <rect x="301.888" y="145.986" width="11.0087" height="11.0087" transform="rotate(90 301.888 145.986)" fill="#1D2327"/>
        <rect x="114.739" y="79.9434" width="11.0087" height="11.0087" transform="rotate(-90 114.739 79.9434)" fill="#1D2327"/>
        <rect x="290.876" y="156.996" width="11.0087" height="11.0087" transform="rotate(90 290.876 156.996)" fill="#1D2327"/>
        <rect x="125.748" y="68.9355" width="11.0087" height="11.0087" transform="rotate(-90 125.748 68.9355)" fill="#1D2327"/>
        <rect x="290.876" y="179.012" width="11.0087" height="11.0087" transform="rotate(90 290.876 179.012)" fill="#1D2327"/>
        <rect x="125.748" y="46.9199" width="11.0087" height="11.0087" transform="rotate(-90 125.748 46.9199)" fill="#1D2327"/>
        <rect x="290.876" y="201.033" width="11.0087" height="11.0087" transform="rotate(90 290.876 201.033)" fill="#1D2327"/>
        <rect x="125.748" y="24.9004" width="11.0087" height="11.0087" transform="rotate(-90 125.748 24.9004)" fill="#1D2327"/>
        <rect x="290.876" y="223.049" width="11.0087" height="11.0087" transform="rotate(90 290.876 223.049)" fill="#1D2327"/>
        <rect x="125.748" y="2.88281" width="11.0087" height="11.0087" transform="rotate(-90 125.748 2.88281)" fill="#1D2327"/>
        <rect x="290.876" y="-8.13477" width="11.0087" height="11.0087" transform="rotate(90 290.876 -8.13477)" fill="#1D2327"/>
        <rect x="125.748" y="234.066" width="11.0087" height="11.0087" transform="rotate(-90 125.748 234.066)" fill="#1D2327"/>
        <rect x="290.876" y="13.8809" width="11.0087" height="11.0087" transform="rotate(90 290.876 13.8809)" fill="#1D2327"/>
        <rect x="125.748" y="212.049" width="11.0087" height="11.0087" transform="rotate(-90 125.748 212.049)" fill="#1D2327"/>
        <rect x="290.876" y="35.9023" width="11.0087" height="11.0087" transform="rotate(90 290.876 35.9023)" fill="#1D2327"/>
        <rect x="125.748" y="190.031" width="11.0087" height="11.0087" transform="rotate(-90 125.748 190.031)" fill="#1D2327"/>
        <rect x="290.876" y="57.9199" width="11.0087" height="11.0087" transform="rotate(90 290.876 57.9199)" fill="#1D2327"/>
        <rect x="125.748" y="168.014" width="11.0087" height="11.0087" transform="rotate(-90 125.748 168.014)" fill="#1D2327"/>
        <rect x="290.876" y="79.9355" width="11.0087" height="11.0087" transform="rotate(90 290.876 79.9355)" fill="#1D2327"/>
        <rect x="125.748" y="145.998" width="11.0087" height="11.0087" transform="rotate(-90 125.748 145.998)" fill="#1D2327"/>
        <rect x="290.876" y="101.951" width="11.0087" height="11.0087" transform="rotate(90 290.876 101.951)" fill="#1D2327"/>
        <rect x="125.748" y="123.98" width="11.0087" height="11.0087" transform="rotate(-90 125.748 123.98)" fill="#1D2327"/>
        <rect x="290.876" y="123.971" width="11.0087" height="11.0087" transform="rotate(90 290.876 123.971)" fill="#1D2327"/>
        <rect x="125.748" y="101.961" width="11.0087" height="11.0087" transform="rotate(-90 125.748 101.961)" fill="#1D2327"/>
        <rect x="323.905" y="-8.13477" width="11.0087" height="11.0087" transform="rotate(90 323.905 -8.13477)" fill="#1D2327"/>
        <rect x="92.7225" y="234.066" width="11.0087" height="11.0087" transform="rotate(-90 92.7225 234.066)" fill="#1D2327"/>
        <rect x="323.905" y="13.8809" width="11.0087" height="11.0087" transform="rotate(90 323.905 13.8809)" fill="#1D2327"/>
        <rect x="92.7225" y="212.049" width="11.0087" height="11.0087" transform="rotate(-90 92.7225 212.049)" fill="#1D2327"/>
        <rect x="323.905" y="35.9023" width="11.0087" height="11.0087" transform="rotate(90 323.905 35.9023)" fill="#1D2327"/>
        <rect x="92.7225" y="190.031" width="11.0087" height="11.0087" transform="rotate(-90 92.7225 190.031)" fill="#1D2327"/>
        <rect x="323.905" y="57.9199" width="11.0087" height="11.0087" transform="rotate(90 323.905 57.9199)" fill="#1D2327"/>
        <rect x="92.7225" y="168.014" width="11.0087" height="11.0087" transform="rotate(-90 92.7225 168.014)" fill="#1D2327"/>
        <rect x="323.905" y="79.9355" width="11.0087" height="11.0087" transform="rotate(90 323.905 79.9355)" fill="#1D2327"/>
        <rect x="92.7225" y="145.998" width="11.0087" height="11.0087" transform="rotate(-90 92.7225 145.998)" fill="#1D2327"/>
        <rect x="323.905" y="101.951" width="11.0087" height="11.0087" transform="rotate(90 323.905 101.951)" fill="#1D2327"/>
        <rect x="92.7225" y="123.98" width="11.0087" height="11.0087" transform="rotate(-90 92.7225 123.98)" fill="#1D2327"/>
        <rect x="323.905" y="123.971" width="11.0087" height="11.0087" transform="rotate(90 323.905 123.971)" fill="#1D2327"/>
        <rect x="92.7225" y="101.961" width="11.0087" height="11.0087" transform="rotate(-90 92.7225 101.961)" fill="#1D2327"/>
        <rect x="345.923" y="2.875" width="11.0087" height="11.0087" transform="rotate(90 345.923 2.875)" fill="#1D2327"/>
        <rect x="70.704" y="223.059" width="11.0087" height="11.0087" transform="rotate(-90 70.704 223.059)" fill="#1D2327"/>
        <rect x="345.923" y="24.8906" width="11.0087" height="11.0087" transform="rotate(90 345.923 24.8906)" fill="#1D2327"/>
        <rect x="70.704" y="201.041" width="11.0087" height="11.0087" transform="rotate(-90 70.704 201.041)" fill="#1D2327"/>
        <rect x="345.923" y="46.9102" width="11.0087" height="11.0087" transform="rotate(90 345.923 46.9102)" fill="#1D2327"/>
        <rect x="70.704" y="179.023" width="11.0087" height="11.0087" transform="rotate(-90 70.704 179.023)" fill="#1D2327"/>
        <rect x="345.923" y="68.9258" width="11.0087" height="11.0087" transform="rotate(90 345.923 68.9258)" fill="#1D2327"/>
        <rect x="70.704" y="157.006" width="11.0087" height="11.0087" transform="rotate(-90 70.704 157.006)" fill="#1D2327"/>
        <rect x="345.923" y="90.9434" width="11.0087" height="11.0087" transform="rotate(90 345.923 90.9434)" fill="#1D2327"/>
        <rect x="70.704" y="134.988" width="11.0087" height="11.0087" transform="rotate(-90 70.704 134.988)" fill="#1D2327"/>
        <rect x="345.923" y="112.963" width="11.0087" height="11.0087" transform="rotate(90 345.923 112.963)" fill="#1D2327"/>
        <rect x="70.704" y="112.971" width="11.0087" height="11.0087" transform="rotate(-90 70.704 112.971)" fill="#1D2327"/>
        <rect x="345.923" y="134.98" width="11.0087" height="11.0087" transform="rotate(90 345.923 134.98)" fill="#1D2327"/>
        <rect x="70.704" y="90.9531" width="11.0087" height="11.0087" transform="rotate(-90 70.704 90.9531)" fill="#1D2327"/>
        <rect x="345.923" y="156.996" width="11.0087" height="11.0087" transform="rotate(90 345.923 156.996)" fill="#1D2327"/>
        <rect x="70.704" y="68.9355" width="11.0087" height="11.0087" transform="rotate(-90 70.704 68.9355)" fill="#1D2327"/>
        <rect x="345.923" y="179.012" width="11.0087" height="11.0087" transform="rotate(90 345.923 179.012)" fill="#1D2327"/>
        <rect x="70.704" y="46.9199" width="11.0087" height="11.0087" transform="rotate(-90 70.704 46.9199)" fill="#1D2327"/>
        <rect x="345.923" y="201.033" width="11.0087" height="11.0087" transform="rotate(90 345.923 201.033)" fill="#1D2327"/>
        <rect x="70.704" y="24.9004" width="11.0087" height="11.0087" transform="rotate(-90 70.704 24.9004)" fill="#1D2327"/>
        <rect x="356.93" y="-8.13477" width="11.0087" height="11.0087" transform="rotate(90 356.93 -8.13477)" fill="#1D2327"/>
        <rect x="59.6969" y="234.066" width="11.0087" height="11.0087" transform="rotate(-90 59.6969 234.066)" fill="#1D2327"/>
        <rect x="356.93" y="13.8809" width="11.0087" height="11.0087" transform="rotate(90 356.93 13.8809)" fill="#1D2327"/>
        <rect x="59.6969" y="212.049" width="11.0087" height="11.0087" transform="rotate(-90 59.6969 212.049)" fill="#1D2327"/>
        <rect x="356.93" y="35.9023" width="11.0087" height="11.0087" transform="rotate(90 356.93 35.9023)" fill="#1D2327"/>
        <rect x="59.6969" y="190.031" width="11.0087" height="11.0087" transform="rotate(-90 59.6969 190.031)" fill="#1D2327"/>
        <rect x="356.93" y="57.9199" width="11.0087" height="11.0087" transform="rotate(90 356.93 57.9199)" fill="#1D2327"/>
        <rect x="59.6969" y="168.014" width="11.0087" height="11.0087" transform="rotate(-90 59.6969 168.014)" fill="#1D2327"/>
        <rect x="356.93" y="79.9355" width="11.0087" height="11.0087" transform="rotate(90 356.93 79.9355)" fill="#1D2327"/>
        <rect x="59.6969" y="145.998" width="11.0087" height="11.0087" transform="rotate(-90 59.6969 145.998)" fill="#1D2327"/>
        <rect x="356.93" y="101.951" width="11.0087" height="11.0087" transform="rotate(90 356.93 101.951)" fill="#1D2327"/>
        <rect x="59.6969" y="123.98" width="11.0087" height="11.0087" transform="rotate(-90 59.6969 123.98)" fill="#1D2327"/>
        <rect x="356.93" y="123.971" width="11.0087" height="11.0087" transform="rotate(90 356.93 123.971)" fill="#1D2327"/>
        <rect x="59.6969" y="101.961" width="11.0087" height="11.0087" transform="rotate(-90 59.6969 101.961)" fill="#1D2327"/>
        <rect x="356.93" y="145.986" width="11.0087" height="11.0087" transform="rotate(90 356.93 145.986)" fill="#1D2327"/>
        <rect x="59.6969" y="79.9434" width="11.0087" height="11.0087" transform="rotate(-90 59.6969 79.9434)" fill="#1D2327"/>
        <rect x="356.93" y="168.004" width="11.0087" height="11.0087" transform="rotate(90 356.93 168.004)" fill="#1D2327"/>
        <rect x="59.6969" y="57.9258" width="11.0087" height="11.0087" transform="rotate(-90 59.6969 57.9258)" fill="#1D2327"/>
        <rect x="356.93" y="190.021" width="11.0087" height="11.0087" transform="rotate(90 356.93 190.021)" fill="#1D2327"/>
        <rect x="59.6969" y="35.9102" width="11.0087" height="11.0087" transform="rotate(-90 59.6969 35.9102)" fill="#1D2327"/>
        <rect x="356.93" y="212.041" width="11.0087" height="11.0087" transform="rotate(90 356.93 212.041)" fill="#1D2327"/>
        <rect x="59.6969" y="13.8926" width="11.0087" height="11.0087" transform="rotate(-90 59.6969 13.8926)" fill="#1D2327"/>
        <rect x="367.939" y="2.875" width="11.0087" height="11.0087" transform="rotate(90 367.939 2.875)" fill="#1D2327"/>
        <rect x="48.6876" y="223.059" width="11.0087" height="11.0087" transform="rotate(-90 48.6876 223.059)" fill="#1D2327"/>
        <rect x="367.939" y="24.8906" width="11.0087" height="11.0087" transform="rotate(90 367.939 24.8906)" fill="#1D2327"/>
        <rect x="48.6876" y="201.041" width="11.0087" height="11.0087" transform="rotate(-90 48.6876 201.041)" fill="#1D2327"/>
        <rect x="367.939" y="46.9102" width="11.0087" height="11.0087" transform="rotate(90 367.939 46.9102)" fill="#1D2327"/>
        <rect x="48.6876" y="179.023" width="11.0087" height="11.0087" transform="rotate(-90 48.6876 179.023)" fill="#1D2327"/>
        <rect x="367.939" y="68.9258" width="11.0087" height="11.0087" transform="rotate(90 367.939 68.9258)" fill="#1D2327"/>
        <rect x="48.6876" y="157.006" width="11.0087" height="11.0087" transform="rotate(-90 48.6876 157.006)" fill="#1D2327"/>
        <rect x="367.939" y="90.9434" width="11.0087" height="11.0087" transform="rotate(90 367.939 90.9434)" fill="#1D2327"/>
        <rect x="48.6876" y="134.988" width="11.0087" height="11.0087" transform="rotate(-90 48.6876 134.988)" fill="#1D2327"/>
        <rect x="367.939" y="112.963" width="11.0087" height="11.0087" transform="rotate(90 367.939 112.963)" fill="#1D2327"/>
        <rect x="48.6876" y="112.971" width="11.0087" height="11.0087" transform="rotate(-90 48.6876 112.971)" fill="#1D2327"/>
        <rect x="367.939" y="134.98" width="11.0087" height="11.0087" transform="rotate(90 367.939 134.98)" fill="#1D2327"/>
        <rect x="48.6876" y="90.9531" width="11.0087" height="11.0087" transform="rotate(-90 48.6876 90.9531)" fill="#1D2327"/>
        <rect x="367.939" y="156.996" width="11.0087" height="11.0087" transform="rotate(90 367.939 156.996)" fill="#1D2327"/>
        <rect x="48.6876" y="68.9355" width="11.0087" height="11.0087" transform="rotate(-90 48.6876 68.9355)" fill="#1D2327"/>
        <rect x="367.939" y="179.012" width="11.0087" height="11.0087" transform="rotate(90 367.939 179.012)" fill="#1D2327"/>
        <rect x="48.6876" y="46.9199" width="11.0087" height="11.0087" transform="rotate(-90 48.6876 46.9199)" fill="#1D2327"/>
        <rect x="367.939" y="201.033" width="11.0087" height="11.0087" transform="rotate(90 367.939 201.033)" fill="#1D2327"/>
        <rect x="48.6876" y="24.9004" width="11.0087" height="11.0087" transform="rotate(-90 48.6876 24.9004)" fill="#1D2327"/>
        <rect x="367.939" y="223.049" width="11.0087" height="11.0087" transform="rotate(90 367.939 223.049)" fill="#1D2327"/>
        <rect x="48.6876" y="2.88281" width="11.0087" height="11.0087" transform="rotate(-90 48.6876 2.88281)" fill="#1D2327"/>
        <rect x="378.949" y="-8.13477" width="11.0087" height="11.0087" transform="rotate(90 378.949 -8.13477)" fill="#1D2327"/>
        <rect x="37.6783" y="234.066" width="11.0087" height="11.0087" transform="rotate(-90 37.6783 234.066)" fill="#1D2327"/>
        <rect x="378.949" y="13.8809" width="11.0087" height="11.0087" transform="rotate(90 378.949 13.8809)" fill="#1D2327"/>
        <rect x="37.6783" y="212.049" width="11.0087" height="11.0087" transform="rotate(-90 37.6783 212.049)" fill="#1D2327"/>
        <rect x="378.949" y="35.9023" width="11.0087" height="11.0087" transform="rotate(90 378.949 35.9023)" fill="#1D2327"/>
        <rect x="37.6783" y="190.031" width="11.0087" height="11.0087" transform="rotate(-90 37.6783 190.031)" fill="#1D2327"/>
        <rect x="378.949" y="57.9199" width="11.0087" height="11.0087" transform="rotate(90 378.949 57.9199)" fill="#1D2327"/>
        <rect x="37.6783" y="168.014" width="11.0087" height="11.0087" transform="rotate(-90 37.6783 168.014)" fill="#1D2327"/>
        <rect x="378.949" y="79.9355" width="11.0087" height="11.0087" transform="rotate(90 378.949 79.9355)" fill="#1D2327"/>
        <rect x="37.6783" y="145.998" width="11.0087" height="11.0087" transform="rotate(-90 37.6783 145.998)" fill="#1D2327"/>
        <rect x="378.949" y="101.951" width="11.0087" height="11.0087" transform="rotate(90 378.949 101.951)" fill="#1D2327"/>
        <rect x="37.6783" y="123.98" width="11.0087" height="11.0087" transform="rotate(-90 37.6783 123.98)" fill="#1D2327"/>
        <rect x="378.949" y="123.971" width="11.0087" height="11.0087" transform="rotate(90 378.949 123.971)" fill="#1D2327"/>
        <rect x="37.6783" y="101.961" width="11.0087" height="11.0087" transform="rotate(-90 37.6783 101.961)" fill="#1D2327"/>
        <rect x="378.949" y="145.986" width="11.0087" height="11.0087" transform="rotate(90 378.949 145.986)" fill="#1D2327"/>
        <rect x="37.6783" y="79.9434" width="11.0087" height="11.0087" transform="rotate(-90 37.6783 79.9434)" fill="#1D2327"/>
        <rect x="378.949" y="168.004" width="11.0087" height="11.0087" transform="rotate(90 378.949 168.004)" fill="#1D2327"/>
        <rect x="37.6783" y="57.9258" width="11.0087" height="11.0087" transform="rotate(-90 37.6783 57.9258)" fill="#1D2327"/>
        <rect x="378.949" y="190.021" width="11.0087" height="11.0087" transform="rotate(90 378.949 190.021)" fill="#1D2327"/>
        <rect x="37.6783" y="35.9102" width="11.0087" height="11.0087" transform="rotate(-90 37.6783 35.9102)" fill="#1D2327"/>
        <rect x="378.949" y="212.041" width="11.0087" height="11.0087" transform="rotate(90 378.949 212.041)" fill="#1D2327"/>
        <rect x="37.6783" y="13.8926" width="11.0087" height="11.0087" transform="rotate(-90 37.6783 13.8926)" fill="#1D2327"/>
        <rect x="389.956" y="2.875" width="11.0087" height="11.0087" transform="rotate(90 389.956 2.875)" fill="#1D2327"/>
        <rect x="26.6691" y="223.059" width="11.0087" height="11.0087" transform="rotate(-90 26.6691 223.059)" fill="#1D2327"/>
        <rect x="389.956" y="24.8906" width="11.0087" height="11.0087" transform="rotate(90 389.956 24.8906)" fill="#1D2327"/>
        <rect x="26.6691" y="201.041" width="11.0087" height="11.0087" transform="rotate(-90 26.6691 201.041)" fill="#1D2327"/>
        <rect x="389.956" y="46.9102" width="11.0087" height="11.0087" transform="rotate(90 389.956 46.9102)" fill="#1D2327"/>
        <rect x="26.6691" y="179.023" width="11.0087" height="11.0087" transform="rotate(-90 26.6691 179.023)" fill="#1D2327"/>
        <rect x="389.956" y="68.9258" width="11.0087" height="11.0087" transform="rotate(90 389.956 68.9258)" fill="#1D2327"/>
        <rect x="26.6691" y="157.006" width="11.0087" height="11.0087" transform="rotate(-90 26.6691 157.006)" fill="#1D2327"/>
        <rect x="389.956" y="90.9434" width="11.0087" height="11.0087" transform="rotate(90 389.956 90.9434)" fill="#1D2327"/>
        <rect x="26.6691" y="134.988" width="11.0087" height="11.0087" transform="rotate(-90 26.6691 134.988)" fill="#1D2327"/>
        <rect x="389.956" y="112.963" width="11.0087" height="11.0087" transform="rotate(90 389.956 112.963)" fill="#1D2327"/>
        <rect x="26.6691" y="112.971" width="11.0087" height="11.0087" transform="rotate(-90 26.6691 112.971)" fill="#1D2327"/>
        <rect x="389.956" y="134.98" width="11.0087" height="11.0087" transform="rotate(90 389.956 134.98)" fill="#1D2327"/>
        <rect x="26.6691" y="90.9531" width="11.0087" height="11.0087" transform="rotate(-90 26.6691 90.9531)" fill="#1D2327"/>
        <rect x="389.956" y="156.996" width="11.0087" height="11.0087" transform="rotate(90 389.956 156.996)" fill="#1D2327"/>
        <rect x="26.6691" y="68.9355" width="11.0087" height="11.0087" transform="rotate(-90 26.6691 68.9355)" fill="#1D2327"/>
        <rect x="389.956" y="179.012" width="11.0087" height="11.0087" transform="rotate(90 389.956 179.012)" fill="#1D2327"/>
        <rect x="26.6691" y="46.9199" width="11.0087" height="11.0087" transform="rotate(-90 26.6691 46.9199)" fill="#1D2327"/>
        <rect x="389.956" y="201.033" width="11.0087" height="11.0087" transform="rotate(90 389.956 201.033)" fill="#1D2327"/>
        <rect x="26.6691" y="24.9004" width="11.0087" height="11.0087" transform="rotate(-90 26.6691 24.9004)" fill="#1D2327"/>
        <rect x="389.956" y="223.049" width="11.0087" height="11.0087" transform="rotate(90 389.956 223.049)" fill="#1D2327"/>
        <rect x="26.6691" y="2.88281" width="11.0087" height="11.0087" transform="rotate(-90 26.6691 2.88281)" fill="#1D2327"/>
        <rect x="400.965" y="-8.13477" width="11.0087" height="11.0087" transform="rotate(90 400.965 -8.13477)" fill="#1D2327"/>
        <rect x="15.662" y="234.066" width="11.0087" height="11.0087" transform="rotate(-90 15.662 234.066)" fill="#1D2327"/>
        <rect x="400.965" y="13.8809" width="11.0087" height="11.0087" transform="rotate(90 400.965 13.8809)" fill="#1D2327"/>
        <rect x="15.662" y="212.049" width="11.0087" height="11.0087" transform="rotate(-90 15.662 212.049)" fill="#1D2327"/>
        <rect x="400.965" y="35.9023" width="11.0087" height="11.0087" transform="rotate(90 400.965 35.9023)" fill="#1D2327"/>
        <rect x="15.662" y="190.031" width="11.0087" height="11.0087" transform="rotate(-90 15.662 190.031)" fill="#1D2327"/>
        <rect x="400.965" y="57.9199" width="11.0087" height="11.0087" transform="rotate(90 400.965 57.9199)" fill="#1D2327"/>
        <rect x="15.662" y="168.014" width="11.0087" height="11.0087" transform="rotate(-90 15.662 168.014)" fill="#1D2327"/>
        <rect x="400.965" y="79.9355" width="11.0087" height="11.0087" transform="rotate(90 400.965 79.9355)" fill="#1D2327"/>
        <rect x="15.662" y="145.998" width="11.0087" height="11.0087" transform="rotate(-90 15.662 145.998)" fill="#1D2327"/>
        <rect x="400.965" y="101.951" width="11.0087" height="11.0087" transform="rotate(90 400.965 101.951)" fill="#1D2327"/>
        <rect x="15.662" y="123.98" width="11.0087" height="11.0087" transform="rotate(-90 15.662 123.98)" fill="#1D2327"/>
        <rect x="400.965" y="123.971" width="11.0087" height="11.0087" transform="rotate(90 400.965 123.971)" fill="#1D2327"/>
        <rect x="15.662" y="101.961" width="11.0087" height="11.0087" transform="rotate(-90 15.662 101.961)" fill="#1D2327"/>
        <rect x="400.965" y="145.986" width="11.0087" height="11.0087" transform="rotate(90 400.965 145.986)" fill="#1D2327"/>
        <rect x="15.662" y="79.9434" width="11.0087" height="11.0087" transform="rotate(-90 15.662 79.9434)" fill="#1D2327"/>
        <rect x="400.965" y="168.004" width="11.0087" height="11.0087" transform="rotate(90 400.965 168.004)" fill="#1D2327"/>
        <rect x="15.662" y="57.9258" width="11.0087" height="11.0087" transform="rotate(-90 15.662 57.9258)" fill="#1D2327"/>
        <rect x="400.965" y="190.021" width="11.0087" height="11.0087" transform="rotate(90 400.965 190.021)" fill="#1D2327"/>
        <rect x="15.662" y="35.9102" width="11.0087" height="11.0087" transform="rotate(-90 15.662 35.9102)" fill="#1D2327"/>
        <rect x="400.965" y="212.041" width="11.0087" height="11.0087" transform="rotate(90 400.965 212.041)" fill="#1D2327"/>
        <rect x="15.662" y="13.8926" width="11.0087" height="11.0087" transform="rotate(-90 15.662 13.8926)" fill="#1D2327"/>
        <rect x="411.974" y="2.875" width="11.0087" height="11.0087" transform="rotate(90 411.974 2.875)" fill="#1D2327"/>
        <rect x="4.65271" y="223.059" width="11.0087" height="11.0087" transform="rotate(-90 4.65271 223.059)" fill="#1D2327"/>
        <rect x="411.974" y="24.8906" width="11.0087" height="11.0087" transform="rotate(90 411.974 24.8906)" fill="#1D2327"/>
        <rect x="4.65271" y="201.041" width="11.0087" height="11.0087" transform="rotate(-90 4.65271 201.041)" fill="#1D2327"/>
        <rect x="411.974" y="46.9102" width="11.0087" height="11.0087" transform="rotate(90 411.974 46.9102)" fill="#1D2327"/>
        <rect x="4.65271" y="179.023" width="11.0087" height="11.0087" transform="rotate(-90 4.65271 179.023)" fill="#1D2327"/>
        <rect x="411.974" y="68.9258" width="11.0087" height="11.0087" transform="rotate(90 411.974 68.9258)" fill="#1D2327"/>
        <rect x="4.65271" y="157.006" width="11.0087" height="11.0087" transform="rotate(-90 4.65271 157.006)" fill="#1D2327"/>
        <rect x="411.974" y="90.9434" width="11.0087" height="11.0087" transform="rotate(90 411.974 90.9434)" fill="#1D2327"/>
        <rect x="4.65271" y="134.988" width="11.0087" height="11.0087" transform="rotate(-90 4.65271 134.988)" fill="#1D2327"/>
        <rect x="411.974" y="112.963" width="11.0087" height="11.0087" transform="rotate(90 411.974 112.963)" fill="#1D2327"/>
        <rect x="4.65271" y="112.971" width="11.0087" height="11.0087" transform="rotate(-90 4.65271 112.971)" fill="#1D2327"/>
        <rect x="411.974" y="134.98" width="11.0087" height="11.0087" transform="rotate(90 411.974 134.98)" fill="#1D2327"/>
        <rect x="4.65271" y="90.9531" width="11.0087" height="11.0087" transform="rotate(-90 4.65271 90.9531)" fill="#1D2327"/>
        <rect x="411.974" y="156.996" width="11.0087" height="11.0087" transform="rotate(90 411.974 156.996)" fill="#1D2327"/>
        <rect x="4.65271" y="68.9355" width="11.0087" height="11.0087" transform="rotate(-90 4.65271 68.9355)" fill="#1D2327"/>
        <rect x="411.974" y="179.012" width="11.0087" height="11.0087" transform="rotate(90 411.974 179.012)" fill="#1D2327"/>
        <rect x="4.65271" y="46.9199" width="11.0087" height="11.0087" transform="rotate(-90 4.65271 46.9199)" fill="#1D2327"/>
        <rect x="411.974" y="201.033" width="11.0087" height="11.0087" transform="rotate(90 411.974 201.033)" fill="#1D2327"/>
        <rect x="4.65271" y="24.9004" width="11.0087" height="11.0087" transform="rotate(-90 4.65271 24.9004)" fill="#1D2327"/>
        <rect x="411.974" y="223.049" width="11.0087" height="11.0087" transform="rotate(90 411.974 223.049)" fill="#1D2327"/>
        <rect x="4.65271" y="2.88281" width="11.0087" height="11.0087" transform="rotate(-90 4.65271 2.88281)" fill="#1D2327"/>
        <rect x="422.984" y="24.8906" width="11.0087" height="11.0087" transform="rotate(90 422.984 24.8906)" fill="#1D2327"/>
        <rect x="-6.35657" y="201.041" width="11.0087" height="11.0087" transform="rotate(-90 -6.35657 201.041)" fill="#1D2327"/>
        <rect x="422.984" y="46.9102" width="11.0087" height="11.0087" transform="rotate(90 422.984 46.9102)" fill="#1D2327"/>
        <rect x="-6.35657" y="179.023" width="11.0087" height="11.0087" transform="rotate(-90 -6.35657 179.023)" fill="#1D2327"/>
        <rect x="422.984" y="68.9258" width="11.0087" height="11.0087" transform="rotate(90 422.984 68.9258)" fill="#1D2327"/>
        <rect x="-6.35657" y="157.006" width="11.0087" height="11.0087" transform="rotate(-90 -6.35657 157.006)" fill="#1D2327"/>
        <rect x="422.984" y="90.9434" width="11.0087" height="11.0087" transform="rotate(90 422.984 90.9434)" fill="#1D2327"/>
        <rect x="-6.35657" y="134.988" width="11.0087" height="11.0087" transform="rotate(-90 -6.35657 134.988)" fill="#1D2327"/>
        <rect x="422.984" y="112.963" width="11.0087" height="11.0087" transform="rotate(90 422.984 112.963)" fill="#1D2327"/>
        <rect x="-6.35657" y="112.971" width="11.0087" height="11.0087" transform="rotate(-90 -6.35657 112.971)" fill="#1D2327"/>
        <rect x="422.984" y="134.98" width="11.0087" height="11.0087" transform="rotate(90 422.984 134.98)" fill="#1D2327"/>
        <rect x="-6.35657" y="90.9531" width="11.0087" height="11.0087" transform="rotate(-90 -6.35657 90.9531)" fill="#1D2327"/>
        <rect x="422.984" y="156.996" width="11.0087" height="11.0087" transform="rotate(90 422.984 156.996)" fill="#1D2327"/>
        <rect x="-6.35657" y="68.9355" width="11.0087" height="11.0087" transform="rotate(-90 -6.35657 68.9355)" fill="#1D2327"/>
        <rect x="422.984" y="179.012" width="11.0087" height="11.0087" transform="rotate(90 422.984 179.012)" fill="#1D2327"/>
        <rect x="-6.35657" y="46.9199" width="11.0087" height="11.0087" transform="rotate(-90 -6.35657 46.9199)" fill="#1D2327"/>
        <rect x="422.984" y="201.033" width="11.0087" height="11.0087" transform="rotate(90 422.984 201.033)" fill="#1D2327"/>
        <rect x="-6.35657" y="24.9004" width="11.0087" height="11.0087" transform="rotate(-90 -6.35657 24.9004)" fill="#1D2327"/>
        <rect x="422.984" y="223.049" width="11.0087" height="11.0087" transform="rotate(90 422.984 223.049)" fill="#1D2327"/>
        <rect x="-6.35657" y="2.88281" width="11.0087" height="11.0087" transform="rotate(-90 -6.35657 2.88281)" fill="#1D2327"/>
        <path fill-rule="evenodd" clip-rule="evenodd" d="M185.917 87.6633L192.521 68.6022C193.755 65.5228 194.166 63.0608 194.166 60.8714C194.166 60.0765 194.113 59.339 194.02 58.6516C195.708 61.7257 196.668 65.2537 196.668 69.0068C196.668 76.9695 192.345 83.9224 185.917 87.6633ZM178.03 58.8859C179.332 58.8177 180.505 58.681 180.505 58.681C181.67 58.5437 181.533 56.8342 180.367 56.9024C180.367 56.9024 176.865 57.1767 174.604 57.1767C172.479 57.1767 168.909 56.9024 168.909 56.9024C167.743 56.8342 167.606 58.6122 168.772 58.681C168.772 58.681 169.875 58.8177 171.04 58.8859L174.408 68.1L169.675 82.266L161.802 58.8859C163.105 58.8177 164.276 58.681 164.276 58.681C165.441 58.5437 165.303 56.8342 164.138 56.9024C164.138 56.9024 160.636 57.1767 158.375 57.1767C157.97 57.1767 157.492 57.1665 156.983 57.1504C160.85 51.2913 167.496 47.4219 175.05 47.4219C180.679 47.4219 185.805 49.5703 189.652 53.0889C189.559 53.0831 189.467 53.0714 189.372 53.0714C187.247 53.0714 185.74 54.9182 185.74 56.9024C185.74 58.681 186.768 60.1856 187.864 61.9648C188.687 63.4023 189.647 65.2489 189.647 67.917C189.647 69.7653 189.098 72.0899 188.002 74.8953L185.844 82.0886L178.03 58.8859ZM175.05 90.5941C172.927 90.5941 170.879 90.2826 168.941 89.7149L175.43 70.8957L182.076 89.0725C182.12 89.1785 182.173 89.2763 182.231 89.3697C179.983 90.1588 177.568 90.5941 175.05 90.5941ZM153.426 69.0059C153.426 65.8764 154.098 62.9053 155.298 60.2214L165.613 88.4314C158.399 84.9333 153.426 77.55 153.426 69.0059ZM175.048 45C161.787 45 150.998 55.7693 150.998 69.0066C150.998 82.2452 161.787 93.0156 175.048 93.0156C188.309 93.0156 199.098 82.2452 199.098 69.0066C199.098 55.7693 188.309 45 175.048 45Z" fill="white"/>
        <path fill-rule="evenodd" clip-rule="evenodd" d="M240.608 45C227.096 45 216.173 56.0036 216.173 69.6165C216.173 80.4981 223.171 89.7091 232.881 92.9692C234.094 93.2142 234.539 92.4395 234.539 91.7878C234.539 91.2171 234.499 89.261 234.499 87.2228C227.702 88.6903 226.286 84.2883 226.286 84.2883C225.194 81.4354 223.576 80.7022 223.576 80.7022C221.351 79.1942 223.738 79.1942 223.738 79.1942C226.205 79.3572 227.5 81.721 227.5 81.721C229.685 85.4702 233.204 84.4109 234.62 83.7587C234.822 82.1691 235.47 81.0688 236.158 80.4576C230.736 79.8869 225.033 77.7677 225.033 68.3121C225.033 65.6222 226.003 63.4215 227.54 61.71C227.298 61.0988 226.448 58.5714 227.783 55.1888C227.783 55.1888 229.847 54.5366 234.499 57.7157C236.49 57.1768 238.544 56.9027 240.608 56.9004C242.671 56.9004 244.774 57.186 246.716 57.7157C251.369 54.5366 253.432 55.1888 253.432 55.1888C254.767 58.5714 253.917 61.0988 253.674 61.71C255.252 63.4215 256.183 65.6222 256.183 68.3121C256.183 77.7677 250.479 79.8459 245.017 80.4576C245.907 81.2318 246.676 82.6988 246.676 85.0221C246.676 88.3232 246.636 90.9725 246.636 91.7873C246.636 92.4395 247.081 93.2142 248.294 92.9697C258.003 89.7086 265.002 80.4981 265.002 69.6165C265.042 56.0036 254.079 45 240.608 45Z" fill="#F6F7F7"/>
        <path d="M226.563 107.142C226.563 105.408 227.252 103.745 228.478 102.519C229.705 101.292 231.368 100.604 233.102 100.604C234.836 100.604 236.499 101.292 237.725 102.519C238.951 103.745 239.64 105.408 239.64 107.142C239.64 108.876 238.951 110.539 237.725 111.766C236.499 112.992 234.836 113.681 233.102 113.681C231.368 113.681 229.705 112.992 228.478 111.766C227.252 110.539 226.563 108.876 226.563 107.142ZM201.415 136.314C201.415 134.58 202.104 132.917 203.33 131.691C204.556 130.464 206.219 129.776 207.953 129.776C209.688 129.776 211.351 130.464 212.577 131.691C213.803 132.917 214.492 134.58 214.492 136.314C214.492 138.048 213.803 139.711 212.577 140.938C211.351 142.164 209.688 142.853 207.953 142.853C206.219 142.853 204.556 142.164 203.33 140.938C202.104 139.711 201.415 138.048 201.415 136.314ZM207.953 139.835C208.416 139.835 208.874 139.744 209.301 139.566C209.728 139.389 210.116 139.13 210.443 138.803C210.77 138.476 211.03 138.087 211.207 137.66C211.383 137.233 211.474 136.775 211.474 136.312C211.474 135.85 211.383 135.392 211.206 134.964C211.029 134.537 210.769 134.149 210.442 133.822C210.115 133.495 209.727 133.236 209.299 133.059C208.872 132.882 208.414 132.791 207.951 132.791C207.017 132.792 206.122 133.163 205.461 133.824C204.801 134.484 204.43 135.38 204.431 136.314C204.431 137.248 204.802 138.144 205.463 138.804C206.124 139.464 207.019 139.835 207.953 139.835ZM233.102 110.663C234.036 110.663 234.931 110.291 235.592 109.631C236.252 108.97 236.623 108.074 236.623 107.14C236.622 106.206 236.251 105.31 235.59 104.65C234.93 103.99 234.034 103.619 233.1 103.619C232.637 103.619 232.179 103.711 231.752 103.888C231.325 104.065 230.937 104.324 230.61 104.652C230.283 104.979 230.024 105.367 229.847 105.794C229.67 106.222 229.579 106.68 229.579 107.142C229.579 107.605 229.67 108.062 229.847 108.49C230.025 108.917 230.284 109.305 230.611 109.632C230.938 109.959 231.327 110.218 231.754 110.395C232.181 110.572 232.639 110.663 233.102 110.663Z" fill="#F6F7F7"/>
        <path d="M207.951 131.283C207.551 131.283 207.167 131.124 206.884 130.841C206.601 130.558 206.443 130.175 206.443 129.774V126.055C206.443 125.655 206.601 125.271 206.884 124.988C207.167 124.705 207.551 124.546 207.951 124.546C208.352 124.546 208.735 124.705 209.018 124.988C209.301 125.271 209.46 125.655 209.46 126.055V129.774C209.46 130.175 209.301 130.558 209.018 130.841C208.735 131.124 208.352 131.283 207.951 131.283Z" fill="#F6F7F7"/>
        <path d="M231.591 115.191V113.179H234.609V115.191C234.609 117.191 233.814 119.11 232.399 120.525C230.984 121.94 229.065 122.735 227.064 122.735H212.981C212.047 122.735 211.152 123.106 210.492 123.766C209.831 124.427 209.46 125.322 209.46 126.256H206.443C206.443 124.522 207.131 122.859 208.358 121.632C209.584 120.406 211.247 119.717 212.981 119.717H227.064C228.265 119.717 229.416 119.24 230.265 118.391C231.114 117.542 231.591 116.391 231.591 115.191Z" fill="#F6F7F7"/>
        <path d="M189.437 107.142C189.437 105.408 188.748 103.745 187.522 102.519C186.296 101.292 184.632 100.604 182.898 100.604C181.164 100.604 179.501 101.292 178.275 102.519C177.049 103.745 176.36 105.408 176.36 107.142C176.36 108.876 177.049 110.539 178.275 111.766C179.501 112.992 181.164 113.681 182.898 113.681C184.632 113.681 186.296 112.992 187.522 111.766C188.748 110.539 189.437 108.876 189.437 107.142ZM214.585 136.314C214.585 134.58 213.896 132.917 212.67 131.691C211.444 130.464 209.781 129.776 208.047 129.776C206.313 129.776 204.649 130.464 203.423 131.691C202.197 132.917 201.508 134.58 201.508 136.314C201.508 138.048 202.197 139.711 203.423 140.938C204.649 142.164 206.313 142.853 208.047 142.853C209.781 142.853 211.444 142.164 212.67 140.938C213.896 139.711 214.585 138.048 214.585 136.314ZM208.047 139.835C207.584 139.835 207.126 139.744 206.699 139.566C206.272 139.389 205.884 139.13 205.557 138.803C205.23 138.476 204.97 138.087 204.794 137.66C204.617 137.233 204.526 136.775 204.526 136.312C204.526 135.85 204.617 135.392 204.794 134.964C204.971 134.537 205.231 134.149 205.558 133.822C205.885 133.495 206.274 133.236 206.701 133.059C207.128 132.882 207.586 132.791 208.049 132.791C208.983 132.792 209.878 133.163 210.539 133.824C211.199 134.484 211.57 135.38 211.569 136.314C211.569 137.248 211.198 138.144 210.537 138.804C209.877 139.464 208.981 139.835 208.047 139.835ZM182.898 110.663C181.964 110.663 181.069 110.291 180.408 109.631C179.748 108.97 179.377 108.074 179.378 107.14C179.378 106.206 179.749 105.31 180.41 104.65C181.07 103.99 181.966 103.619 182.9 103.619C183.363 103.619 183.821 103.711 184.248 103.888C184.675 104.065 185.063 104.324 185.39 104.652C185.717 104.979 185.977 105.367 186.153 105.794C186.33 106.222 186.421 106.68 186.421 107.142C186.421 107.605 186.33 108.062 186.153 108.49C185.976 108.917 185.716 109.305 185.389 109.632C185.062 109.959 184.673 110.218 184.246 110.395C183.819 110.572 183.361 110.663 182.898 110.663Z" fill="#F6F7F7"/>
        <path d="M208.049 131.283C208.449 131.283 208.833 131.124 209.116 130.841C209.399 130.558 209.558 130.175 209.558 129.774V126.055C209.558 125.655 209.399 125.271 209.116 124.988C208.833 124.705 208.449 124.546 208.049 124.546C207.649 124.546 207.265 124.705 206.982 124.988C206.699 125.271 206.54 125.655 206.54 126.055V129.774C206.54 130.175 206.699 130.558 206.982 130.841C207.265 131.124 207.649 131.283 208.049 131.283Z" fill="#F6F7F7"/>
        <path d="M184.409 115.191V113.179H181.391V115.191C181.391 117.191 182.186 119.11 183.601 120.525C185.016 121.94 186.935 122.735 188.936 122.735H203.019C203.953 122.735 204.848 123.106 205.509 123.766C206.169 124.427 206.54 125.322 206.54 126.256H209.558C209.558 124.522 208.869 122.859 207.642 121.632C206.416 120.406 204.753 119.717 203.019 119.717H188.936C187.735 119.717 186.584 119.24 185.735 118.391C184.886 117.542 184.409 116.391 184.409 115.191Z" fill="#F6F7F7"/>
        <rect x="162.148" y="150.441" width="91.7049" height="29.5573" rx="14.7787" fill="#B8E6BF"/>
        <path d="M173.438 170.441V159.161H177.308C180.654 159.161 182.632 161.248 182.632 164.789V164.805C182.632 168.354 180.662 170.441 177.308 170.441H173.438ZM174.846 169.175H177.214C179.731 169.175 181.193 167.565 181.193 164.821V164.805C181.193 162.053 179.716 160.427 177.214 160.427H174.846V169.175ZM188.339 170.59C185.931 170.59 184.477 168.901 184.477 166.259V166.251C184.477 163.648 185.962 161.866 188.253 161.866C190.543 161.866 191.935 163.57 191.935 166.087V166.619H185.868C185.907 168.362 186.869 169.378 188.37 169.378C189.511 169.378 190.215 168.839 190.441 168.331L190.473 168.26H191.833L191.817 168.323C191.528 169.464 190.324 170.59 188.339 170.59ZM188.245 163.077C186.994 163.077 186.04 163.929 185.892 165.532H190.551C190.41 163.867 189.488 163.077 188.245 163.077ZM194.045 173.256V162.014H195.406V163.359H195.531C196.047 162.421 196.985 161.866 198.157 161.866C200.291 161.866 201.691 163.593 201.691 166.22V166.236C201.691 168.878 200.299 170.59 198.157 170.59C197 170.59 195.992 170.011 195.531 169.112H195.406V173.256H194.045ZM197.845 169.386C199.385 169.386 200.299 168.198 200.299 166.236V166.22C200.299 164.258 199.385 163.07 197.845 163.07C196.312 163.07 195.374 164.273 195.374 166.22V166.236C195.374 168.182 196.312 169.386 197.845 169.386ZM203.895 170.441V158.668H205.256V170.441H203.895ZM211.33 170.59C208.93 170.59 207.444 168.933 207.444 166.236V166.22C207.444 163.515 208.93 161.866 211.33 161.866C213.73 161.866 215.215 163.515 215.215 166.22V166.236C215.215 168.933 213.73 170.59 211.33 170.59ZM211.33 169.386C212.925 169.386 213.824 168.221 213.824 166.236V166.22C213.824 164.227 212.925 163.07 211.33 163.07C209.735 163.07 208.836 164.227 208.836 166.22V166.236C208.836 168.221 209.735 169.386 211.33 169.386ZM217.732 173.396C217.552 173.396 217.318 173.381 217.13 173.35V172.232C217.294 172.263 217.506 172.271 217.693 172.271C218.467 172.271 218.936 171.919 219.241 170.95L219.397 170.449L216.278 162.014H217.732L220.046 168.948H220.171L222.477 162.014H223.908L220.617 170.957C219.921 172.849 219.225 173.396 217.732 173.396ZM228.833 170.59C226.425 170.59 224.971 168.901 224.971 166.259V166.251C224.971 163.648 226.457 161.866 228.747 161.866C231.038 161.866 232.429 163.57 232.429 166.087V166.619H226.363C226.402 168.362 227.363 169.378 228.864 169.378C230.006 169.378 230.709 168.839 230.936 168.331L230.967 168.26H232.328L232.312 168.323C232.023 169.464 230.819 170.59 228.833 170.59ZM228.739 163.077C227.488 163.077 226.535 163.929 226.386 165.532H231.045C230.905 163.867 229.982 163.077 228.739 163.077ZM237.651 170.59C235.517 170.59 234.118 168.862 234.118 166.236V166.22C234.118 163.578 235.509 161.866 237.651 161.866C238.808 161.866 239.817 162.444 240.278 163.343H240.403V158.668H241.763V170.441H240.403V169.097H240.278C239.762 170.035 238.824 170.59 237.651 170.59ZM237.964 169.386C239.496 169.386 240.434 168.182 240.434 166.236V166.22C240.434 164.273 239.496 163.07 237.964 163.07C236.424 163.07 235.509 164.258 235.509 166.22V166.236C235.509 168.198 236.424 169.386 237.964 169.386Z" fill="#00450C"/>
    </g>
    <defs>
        <clipPath id="clip0_6633_56682">
            <rect width="416" height="225" fill="white"/>
        </clipPath>
    </defs>
</svg>
