<svg style="transform: scale(-1,1)" width="797" height="1066" viewBox="0 0 797 1066" fill="none" xmlns="http://www.w3.org/2000/svg">
    <path d="M440.079 8.91271L474.17 5.21844L526.912 1.5296M440.079 8.91271L387.648 21.7465L363.702 28.2398M440.079 8.91271L406.425 17.7837M440.079 8.91271L484.791 5.79615M363.702 28.2398L317.302 45.89M363.702 28.2398L406.425 17.7837M363.702 28.2398L341.021 39.7856M317.302 45.89L305.585 53.259M317.302 45.89L270.152 69.565M270.152 69.565L269.517 71.3694M270.152 69.565L225.178 97.7765M225.178 97.7765L235.107 92.9526M225.178 97.7765L185.183 128.778M185.183 128.778L185.588 128.526L204.551 116.646M185.183 128.778L153.246 160.131L152.714 160.654M152.714 160.654L129.642 183.71L101.569 221.532M152.714 160.654L129.945 191.381M152.714 160.654L179.824 140.944M101.569 221.532L77.6791 254.383M101.569 221.532L129.945 191.381M101.569 221.532L87.3016 255.641M77.6791 254.383L58.4394 289.563L38.87 335.921M77.6791 254.383L60.6776 294.772M38.87 335.921L22.0451 378.639M38.87 335.921L60.6776 294.772M38.87 335.921L39.3662 374.551M22.0451 378.639L10.3019 422.485M22.0451 378.639L22.3451 422.212M10.3019 422.485L3.6905 467.012M10.3019 422.485L10.4375 470.683M3.6905 467.012L2.20847 511.777L2.21628 568.032M3.6905 467.012L3.72382 519.458M2.21628 568.032L5.87651 615.921M2.21628 568.032L3.72382 519.458M2.21628 568.032L30.9354 610.283M5.87651 615.921L14.6161 662.65M5.87651 615.921L35.9489 661M14.6161 662.65L28.2845 707.771M14.6161 662.65L45.8414 710.147M28.2845 707.771L46.698 750.857M28.2845 707.771L60.4662 757.223M46.698 750.857L69.62 791.521L103.054 843.326M46.698 750.857L79.6188 801.76M103.054 843.326L130.486 881.535M103.054 843.326L79.6188 801.76M103.054 843.326L168.179 875.322M130.486 881.535L161.589 916.042M130.486 881.535L195.574 914.009M161.589 916.042L196.012 946.553M161.589 916.042L226.056 948.578M196.012 946.553L233.373 972.816M196.012 946.553L259.264 978.725M233.373 972.816L273.273 994.633L332.317 1024.82M233.373 972.816L294.818 1004.2M332.317 1024.82L371.358 1040.44M332.317 1024.82L294.818 1004.2M332.317 1024.82L415.386 1034.46M371.358 1040.44L411.526 1050.99M371.358 1040.44L449.745 1049.69M411.526 1050.99L452.412 1056.44L519.192 1064.4M411.526 1050.99L484.468 1059.68M519.192 1064.4L553.573 1063.93L625.76 1055.39M519.192 1064.4L599.945 1054.81M519.192 1064.4L484.468 1059.68M625.76 1055.39L650.265 1050.9L719.132 1030.11M625.76 1055.39L599.945 1054.81M625.76 1055.39L704.932 1031.47M719.132 1030.11L704.932 1031.47M719.132 1030.11L788.69 997.388M788.69 997.388L785.023 993.781M788.69 997.388L853.581 955.206M853.581 955.206L859.76 945.205M853.581 955.206L908.836 906.831L923.328 889.577M923.328 889.577L970.981 831.277L987.57 803.292M923.328 889.577L934.185 868.538M923.328 889.577L859.76 945.205M987.57 803.292L1019.33 740.267L1034.66 703.366M987.57 803.292L999.904 772.267M987.57 803.292L934.185 868.538M1034.66 703.366L1045.26 664.387M1034.66 703.366L999.904 772.267M1045.26 664.387L1054.92 598.896L1061.13 554.589M1045.26 664.387L1050.93 623.682M1045.26 664.387L1007.77 738.456M1061.13 554.589L1062.25 509.674M1061.13 554.589L1050.93 623.682M1062.25 509.674L1058.22 464.584M1062.25 509.674L1051.53 581.641M1058.22 464.584L1048.99 419.766M1058.22 464.584L1046.97 538.672M1048.99 419.766L1034.6 375.674M1048.99 419.766L1037.23 495.211M1034.6 375.674L1013.56 316.113L994.299 273.565M1034.6 375.674L1015.12 332.766M1034.6 375.674L1022.33 451.716M994.299 273.565L970.397 233.201M994.299 273.565L1015.12 332.766M970.397 233.201L942.034 195.442M970.397 233.201L990.697 291.496M942.034 195.442L909.44 160.692M942.034 195.442L961.525 252.319M909.44 160.692L872.894 129.334M909.44 160.692L927.857 215.666M872.894 129.334L827.318 95.0486L790.404 69.7983L789.767 69.3591M872.894 129.334L832.722 101.724M872.894 129.334L890.01 181.952M789.767 69.3591L749.38 47.9467M789.767 69.3591L832.722 101.724M749.38 47.9467L706.522 31.0764M749.38 47.9467L789.303 78.1818M706.522 31.0764L661.583 18.9718M706.522 31.0764L743.048 58.9953M661.583 18.9718L609.537 8.50139L568.63 2.46058M661.583 18.9718L614.998 11.8179M661.583 18.9718L694.415 44.4017M568.63 2.46058L526.912 1.5296M568.63 2.46058L614.998 11.8179M526.912 1.5296L484.791 5.79615M526.912 1.5296L567.217 9.74303M406.425 17.7837L373.552 31.8474M406.425 17.7837L442.685 15.3M484.791 5.79615L442.685 15.3M484.791 5.79615L518.718 12.8312M567.217 9.74303L518.718 12.8312M567.217 9.74303L592.011 29.7081M567.217 9.74303L614.998 11.8179M311.57 75.3184L320.827 74.7705M311.57 75.3184L300.506 77.9805M311.57 75.3184L283.166 104.453M311.57 75.3184L341.816 51.0606M283.166 104.453L292.963 124.711M283.166 104.453L264.176 96.1984M283.166 104.453L275.99 88.7842M283.166 104.453L288.374 82.571M283.166 104.453L320.827 74.7705M283.166 104.453L327.639 76.3883M283.166 104.453L331.535 80.0693M283.166 104.453L332.226 85.5797M283.166 104.453L329.647 92.552M283.166 104.453L323.959 100.511M283.166 104.453L315.538 108.913M283.166 104.453L304.962 117.172M283.166 104.453L280.38 131.008M283.166 104.453L268.086 135.622M283.166 104.453L256.939 138.237M283.166 104.453L247.707 138.68M283.166 104.453L241.012 136.93M283.166 104.453L237.303 133.124M283.166 104.453L236.813 127.528M283.166 104.453L239.553 120.535M283.166 104.453L245.323 112.621M283.166 104.453L253.72 104.327M283.166 104.453L300.506 77.9805M320.827 74.7705L327.639 76.3883M320.827 74.7705L360.261 49.8938M341.816 51.0606L360.261 49.8938M341.816 51.0606L319.872 56.3854M341.816 51.0606L373.552 31.8474M300.506 77.9805L288.374 82.571M300.506 77.9805L319.872 56.3854M327.639 76.3883L331.535 80.0693M327.639 76.3883L373.942 53.006M360.261 49.8938L373.942 53.006M360.261 49.8938L401.03 30.0245M373.552 31.8474L401.03 30.0245M373.552 31.8474L341.021 39.7856M319.872 56.3854L341.021 39.7856M319.872 56.3854L295.892 65.4875M373.942 53.006L381.885 60.2342M373.942 53.006L421.569 34.5264M401.03 30.0245L421.569 34.5264M401.03 30.0245L442.685 15.3M341.021 39.7856L305.585 53.259M421.569 34.5264L433.673 45.1582M421.569 34.5264L469.997 21.1043M442.685 15.3L469.997 21.1043M469.997 21.1043L486.337 34.9932M469.997 21.1043L518.718 12.8312M518.718 12.8312L539.305 29.8314M331.535 80.0693L332.226 85.5797M331.535 80.0693L381.885 60.2342M381.885 60.2342L383.475 71.1378M381.885 60.2342L433.673 45.1582M433.673 45.1582L436.364 61.31M433.673 45.1582L486.337 34.9932M486.337 34.9932L490.316 56.2203M486.337 34.9932L539.305 29.8314M539.305 29.8314L544.747 55.9376M539.305 29.8314L592.011 29.7081M592.011 29.7081L599.053 60.4693M592.011 29.7081L643.896 34.5922M614.998 11.8179L643.896 34.5922M643.896 34.5922L652.638 69.7668M643.896 34.5922L694.415 44.4017M694.415 44.4017L704.917 83.719M694.415 44.4017L743.048 58.9953M436.364 61.31L429.275 81.9592M436.364 61.31L383.475 71.1378M436.364 61.31L490.316 56.2203M490.316 56.2203L544.747 55.9376M490.316 56.2203L481.363 83.4756M544.747 55.9376L534.206 89.5804M544.747 55.9376L599.053 60.4693M599.053 60.4693L587.216 100.235M599.053 60.4693L652.638 69.7668M652.638 69.7668L639.792 115.339M652.638 69.7668L704.917 83.719M704.917 83.719L691.334 134.734M704.917 83.719L755.318 102.156M743.048 58.9953L755.318 102.156M743.048 58.9953L789.303 78.1818M755.318 102.156L741.252 158.209M755.318 102.156L803.298 124.863M789.303 78.1818L803.298 124.863M789.303 78.1818L832.722 101.724M803.298 124.863L788.98 185.489M803.298 124.863L848.35 151.568M832.722 101.724L848.35 151.568M848.35 151.568L833.982 216.26M848.35 151.568L890.01 181.952M890.01 181.952L875.755 250.161M890.01 181.952L927.857 215.666M332.226 85.5797L329.647 92.552M332.226 85.5797L383.475 71.1378M383.475 71.1378L378.522 85.0084M534.206 89.5804L481.363 83.4756M534.206 89.5804L508 128.537M534.206 89.5804L587.216 100.235M587.216 100.235L639.792 115.339M587.216 100.235L556.743 146.391M639.792 115.339L605.486 168.336M639.792 115.339L691.334 134.734M691.334 134.734L653.658 194.145M691.334 134.734L741.252 158.209M741.252 158.209L700.692 223.534M741.252 158.209L788.98 185.489M788.98 185.489L746.029 256.168M788.98 185.489L833.982 216.26M833.982 216.26L789.132 291.665M833.982 216.26L875.755 250.161M875.755 250.161L829.494 329.601M875.755 250.161L913.853 286.79M927.857 215.666L913.853 286.79M927.857 215.666L961.525 252.319M913.853 286.79L866.652 369.525M913.853 286.79L947.869 325.72M961.525 252.319L947.869 325.72M961.525 252.319L990.697 291.496M947.869 325.72L900.188 410.956M947.869 325.72L977.464 366.495M990.697 291.496L977.464 366.495M990.697 291.496L1015.12 332.766M329.647 92.552L323.959 100.511M329.647 92.552L378.522 85.0084M977.464 366.495L929.744 453.402M977.464 366.495L1002.36 408.653M1015.12 332.766L1002.36 408.653M378.522 85.0084L367.298 100.912M378.522 85.0084L429.275 81.9592M1002.36 408.653L955.015 496.368M1002.36 408.653L1022.33 451.716M1022.33 451.716L975.761 539.354M1022.33 451.716L1037.23 495.211M429.275 81.9592L412.747 105.719M429.275 81.9592L481.363 83.4756M481.363 83.4756L459.82 114.943M1046.97 538.672L1051.53 581.641M1046.97 538.672L1037.23 495.211M1046.97 538.672L1003.05 623.477M1051.53 581.641L1009.44 663.706M1051.53 581.641L1050.93 623.682M1009.44 663.706L1003.05 623.477M1009.44 663.706L937.888 749.821M1009.44 663.706L1010.99 702.158M1050.93 623.682L1010.99 702.158M605.486 168.336L556.743 146.391M605.486 168.336L551.638 224.966M605.486 168.336L653.658 194.145M1010.99 702.158L1007.77 738.456M1010.99 702.158L943.162 784.238M1007.77 738.456L944.245 815.671M1007.77 738.456L999.904 772.267M653.658 194.145L700.692 223.534M653.658 194.145L593.927 257.676M700.692 223.534L635.747 293.419M700.692 223.534L746.029 256.168M746.029 256.168L676.596 331.777M746.029 256.168L789.132 291.665M789.132 291.665L715.971 372.292M789.132 291.665L829.494 329.601M829.494 329.601L753.393 414.476M829.494 329.601L866.652 369.525M866.652 369.525L788.412 457.811M866.652 369.525L900.188 410.956M900.188 410.956L820.613 501.771M900.188 410.956L929.744 453.402M323.959 100.511L315.538 108.913M323.959 100.511L367.298 100.912M929.744 453.402L849.634 545.822M929.744 453.402L955.015 496.368M367.298 100.912L350.537 117.745M367.298 100.912L412.747 105.719M955.015 496.368L875.152 589.442M955.015 496.368L975.761 539.354M412.747 105.719L387.826 130.935M412.747 105.719L459.82 114.943M975.761 539.354L896.912 632.119M975.761 539.354L991.55 581.192L991.81 581.88M1037.23 495.211L991.81 581.88M459.82 114.943L427.019 148.416M459.82 114.943L508 128.537M991.81 581.88L914.707 673.369M991.81 581.88L1003.05 623.477M1003.05 623.477L928.391 712.742M508 128.537L467.693 170.053M508 128.537L556.743 146.391M556.743 146.391L555.91 147.259L509.395 195.654M944.245 815.671L943.162 784.238M944.245 815.671L858.99 889.926M944.245 815.671L941.211 843.845M999.904 772.267L941.211 843.845M635.747 293.419L593.927 257.676M635.747 293.419L550.878 362.407M635.747 293.419L676.596 331.777M941.211 843.845L934.185 868.538M941.211 843.845L862.557 912.499M934.185 868.538L862.788 930.957M676.596 331.777L715.971 372.292M676.596 331.777L585.441 406.354M715.971 372.292L619.505 451.733M715.971 372.292L753.393 414.476M753.393 414.476L652.645 497.987M753.393 414.476L788.412 457.811M788.412 457.811L684.455 544.542M788.412 457.811L820.613 501.771M820.613 501.771L714.542 590.825M820.613 501.771L849.634 545.822M315.538 108.913L304.962 117.172M315.538 108.913L350.537 117.745M849.634 545.822L742.557 636.269M849.634 545.822L875.152 589.442M350.537 117.745L329.386 134.317M350.537 117.745L387.826 130.935M875.152 589.442L768.171 680.329M875.152 589.442L896.912 632.119M387.826 130.935L356.225 155.794M387.826 130.935L427.019 148.416M896.912 632.119L791.106 722.491M896.912 632.119L914.707 673.369M427.019 148.416L385.217 181.444M427.019 148.416L467.693 170.053M914.707 673.369L811.122 762.282M914.707 673.369L928.391 712.742M467.693 170.053L416.064 211.048M467.693 170.053L509.395 195.654M928.391 712.742L828.036 799.269M928.391 712.742L937.888 749.821M509.395 195.654L448.433 244.318M509.395 195.654L551.638 224.966M937.888 749.821L841.703 833.076M937.888 749.821L943.162 784.238M943.162 784.238L852.036 863.383M551.638 224.966L481.956 280.914M551.638 224.966L593.927 257.676M593.927 257.676L516.242 320.428M862.788 930.957L862.557 912.499M862.788 930.957L859.76 945.205M862.788 930.957L778.773 985.544M859.76 945.205L785.023 993.781M619.505 451.733L585.441 406.354M619.505 451.733L507.26 523.364M619.505 451.733L652.645 497.987M652.645 497.987L684.455 544.542M652.645 497.987L535.155 573.109M684.455 544.542L562.964 622.368M684.455 544.542L714.542 590.825M714.542 590.825L590.349 670.532M714.542 590.825L742.557 636.269M304.962 117.172L292.963 124.711M304.962 117.172L329.386 134.317M742.557 636.269L616.973 717.013M742.557 636.269L768.171 680.329M329.386 134.317L305.337 149.446M329.386 134.317L356.225 155.794M768.171 680.329L642.517 761.257M768.171 680.329L791.106 722.491M356.225 155.794L320.203 178.481M356.225 155.794L385.217 181.444M791.106 722.491L666.685 802.752M791.106 722.491L811.122 762.282M385.217 181.444L337.448 211.567M385.217 181.444L416.064 211.048M811.122 762.282L689.207 841.045M811.122 762.282L828.036 799.269M416.064 211.048L356.911 248.401M416.064 211.048L448.433 244.318M828.036 799.269L709.838 875.731M828.036 799.269L841.703 833.076M448.433 244.318L378.404 288.609M448.433 244.318L481.956 280.914M841.703 833.076L728.38 906.475M841.703 833.076L852.036 863.383M481.956 280.914L401.696 331.758M481.956 280.914L516.242 320.428M852.036 863.383L744.661 933M852.036 863.383L858.99 889.926M516.242 320.428L426.528 377.36M516.242 320.428L550.878 362.407M858.99 889.926L862.482 912.011L862.557 912.499M858.99 889.926L758.545 955.105M862.557 912.499L769.935 972.647M550.878 362.407L452.611 424.884M550.878 362.407L585.441 406.354M585.441 406.354L479.633 473.75M562.964 622.368L535.155 573.109M562.964 622.368L434.13 684.636M562.964 622.368L590.349 670.532M590.349 670.532L616.973 717.013M590.349 670.532L458.488 734.042M292.963 124.711L280.38 131.008M292.963 124.711L305.337 149.446M616.973 717.013L483.479 781.097M616.973 717.013L642.517 761.257M305.337 149.446L280.099 162.053M305.337 149.446L320.203 178.481M642.517 761.257L508.794 825.248M642.517 761.257L666.685 802.752M320.203 178.481L282.387 197.332M320.203 178.481L337.448 211.567M666.685 802.752L534.13 865.998M666.685 802.752L689.207 841.045M337.448 211.567L287.262 236.527M337.448 211.567L356.911 248.401M689.207 841.045L559.18 902.911M689.207 841.045L709.838 875.731M356.911 248.401L294.721 279.253M356.911 248.401L378.404 288.609M709.838 875.731L583.66 935.617M709.838 875.731L728.38 906.475M378.404 288.609L304.717 325.065M378.404 288.609L401.696 331.758M728.38 906.475L607.296 963.815M728.38 906.475L744.661 933M401.696 331.758L317.163 373.455M401.696 331.758L426.528 377.36M744.661 933L629.84 987.269M744.661 933L758.545 955.105M426.528 377.36L331.942 423.87M426.528 377.36L452.611 424.884M758.545 955.105L769.935 972.647M758.545 955.105L651.062 1005.82M452.611 424.884L348.894 475.713M452.611 424.884L479.633 473.75M769.935 972.647L778.773 985.544M769.935 972.647L670.764 1019.38M479.633 473.75L367.826 528.357M479.633 473.75L507.26 523.364M778.773 985.544L785.023 993.781M778.773 985.544L688.768 1027.92M785.023 993.781L704.932 1031.47M507.26 523.364L388.516 581.157M507.26 523.364L535.155 573.109M535.155 573.109L410.707 633.466M280.38 131.008L268.086 135.622M280.38 131.008L280.099 162.053M483.479 781.097L458.488 734.042M483.479 781.097L353.429 823.289M483.479 781.097L508.794 825.248M280.099 162.053L282.387 197.332M280.099 162.053L255.478 171.241M508.794 825.248L534.13 865.998M508.794 825.248L378.383 867.078M282.387 197.332L245.533 210.989M282.387 197.332L287.262 236.527M534.13 865.998L404.697 907.072M534.13 865.998L559.18 902.911M287.262 236.527L238.404 254.491M287.262 236.527L294.721 279.253M559.18 902.911L432.052 942.858M559.18 902.911L583.66 935.617M294.721 279.253L234.225 301.302M294.721 279.253L304.717 325.065M583.66 935.617L460.116 974.089M583.66 935.617L607.296 963.815M304.717 325.065L233.082 350.918M304.717 325.065L317.163 373.455M607.296 963.815L488.565 1000.49M607.296 963.815L629.84 987.269M317.163 373.455L235.027 402.791M317.163 373.455L331.942 423.87M629.84 987.269L517.074 1021.87M629.84 987.269L651.062 1005.82M331.942 423.87L240.066 456.321M331.942 423.87L348.894 475.713M651.062 1005.82L545.335 1038.08M651.062 1005.82L670.764 1019.38M348.894 475.713L248.159 510.88M348.894 475.713L367.826 528.357M670.764 1019.38L688.768 1027.92M670.764 1019.38L573.05 1049.06M367.826 528.357L259.232 565.815M367.826 528.357L388.516 581.157M688.768 1027.92L704.932 1031.47M688.768 1027.92L599.945 1054.81M388.516 581.157L273.151 620.463M388.516 581.157L410.707 633.466M410.707 633.466L289.753 674.164M410.707 633.466L434.13 684.636M434.13 684.636L308.832 726.276M434.13 684.636L458.488 734.042M458.488 734.042L330.148 776.176M245.533 210.989L255.478 171.241M245.533 210.989L212.298 218.502M245.533 210.989L238.404 254.491M404.697 907.072L378.383 867.078M404.697 907.072L288.965 923.17M404.697 907.072L432.052 942.858M238.404 254.491L234.225 301.302M238.404 254.491L194.456 264.203M432.052 942.858L460.116 974.089M432.052 942.858L318.178 958.163M234.225 301.302L179.932 312.998M234.225 301.302L233.082 350.918M460.116 974.089L349.23 988.536M460.116 974.089L488.565 1000.49M233.082 350.918L168.926 364.356M233.082 350.918L235.027 402.791M488.565 1000.49L381.757 1014.03M488.565 1000.49L517.074 1021.87M235.027 402.791L161.596 417.708M235.027 402.791L240.066 456.321M517.074 1021.87L415.386 1034.46M517.074 1021.87L545.335 1038.08M240.066 456.321L158.049 472.438M240.066 456.321L248.159 510.88M545.335 1038.08L449.745 1049.69M545.335 1038.08L573.05 1049.06M248.159 510.88L158.343 527.919M248.159 510.88L259.232 565.815M573.05 1049.06L484.468 1059.68M573.05 1049.06L599.945 1054.81M259.232 565.815L162.484 583.502M259.232 565.815L273.151 620.463M273.151 620.463L170.426 638.533M273.151 620.463L289.753 674.164M289.753 674.164L182.066 692.375M289.753 674.164L308.832 726.276M308.832 726.276L307.681 726.462L197.255 744.4M308.832 726.276L330.148 776.176M330.148 776.176L215.798 794.02M330.148 776.176L353.429 823.289M268.086 135.622L256.939 138.237M268.086 135.622L255.478 171.241M255.478 171.241L255.02 171.345L233.217 176.374M353.429 823.289L237.454 840.681M353.429 823.289L378.383 867.078M378.383 867.078L261.945 883.88M179.932 312.998L194.456 264.203M179.932 312.998L135.722 313.684M179.932 312.998L168.926 364.356M349.23 988.536L348.219 988.424L259.264 978.725M349.23 988.536L318.178 958.163M349.23 988.536L381.757 1014.03M168.926 364.356L161.596 417.708M168.926 364.356L116.865 364.657M381.757 1014.03L415.386 1034.46M381.757 1014.03L294.818 1004.2M161.596 417.708L102.19 417.447M161.596 417.708L158.049 472.438M415.386 1034.46L449.745 1049.69M158.049 472.438L91.8688 471.462M158.049 472.438L158.343 527.919M449.745 1049.69L484.468 1059.68M158.343 527.919L86.0204 526.087M158.343 527.919L162.484 583.502M162.484 583.502L84.7057 580.71M162.484 583.502L170.426 638.533M170.426 638.533L87.9259 634.716M170.426 638.533L182.066 692.375M182.066 692.375L95.6275 687.502M182.066 692.375L197.255 744.4M197.255 744.4L107.693 738.483M197.255 744.4L215.798 794.02M215.798 794.02L123.959 787.117M215.798 794.02L237.454 840.681M256.939 138.237L247.707 138.68M256.939 138.237L233.217 176.374M237.454 840.681L144.208 832.887M237.454 840.681L261.945 883.88M233.217 176.374L214.86 177.126M233.217 176.374L212.298 218.502M261.945 883.88L168.179 875.322M261.945 883.88L288.965 923.17M212.298 218.502L185.017 219.409M212.298 218.502L194.456 264.203M194.456 264.203L158.531 265.092M288.965 923.17L195.574 914.009M288.965 923.17L317.622 957.5L318.178 958.163M318.178 958.163L226.056 948.578M102.19 417.447L116.865 364.657M102.19 417.447L60.6922 402.53M102.19 417.447L91.8688 471.462M294.818 1004.2L259.264 978.725M91.8688 471.462L86.0204 526.087M91.8688 471.462L45.8247 454.081M86.0204 526.087L35.8645 506.27M86.0204 526.087L84.7057 580.71M84.7057 580.71L30.8932 558.524M84.7057 580.71L87.9259 634.716M87.9259 634.716L30.9354 610.283M87.9259 634.716L95.6275 687.502M95.6275 687.502L35.9489 661M95.6275 687.502L107.693 738.483M107.693 738.483L106.838 738.094L45.8414 710.147M107.693 738.483L123.959 787.117M123.959 787.117L60.4662 757.223M123.959 787.117L144.208 832.887M247.707 138.68L241.012 136.93M247.707 138.68L214.86 177.126M144.208 832.887L79.6188 801.76M144.208 832.887L168.179 875.322M214.86 177.126L201.652 173.487M214.86 177.126L185.017 219.409M168.179 875.322L195.574 914.009M185.017 219.409L165.521 213.744M185.017 219.409L158.531 265.092M195.574 914.009L226.056 948.578M158.531 265.092L133.025 257.264M158.531 265.092L135.722 313.684M226.056 948.578L259.264 978.725M135.722 313.684L104.523 303.577M135.722 313.684L116.865 364.657M116.865 364.657L80.3257 352.178M35.8645 506.27L45.8247 454.081M35.8645 506.27L10.4375 470.683M35.8645 506.27L30.8932 558.524M30.8932 558.524L30.9354 610.283M30.8932 558.524L3.72382 519.458M30.9354 610.283L35.9489 661M35.9489 661L45.8414 710.147M45.8414 710.147L60.4662 757.223M60.4662 757.223L79.6188 801.76M241.012 136.93L237.303 133.124M241.012 136.93L201.652 173.487M201.652 173.487L194.438 165.761M201.652 173.487L165.521 213.744M165.521 213.744L155.028 202.009M165.521 213.744L133.025 257.264M133.025 257.264L119.481 241.461M133.025 257.264L104.523 303.577M104.523 303.577L88.1563 283.683M104.523 303.577L80.3257 352.178M80.3257 352.178L61.3678 328.209M80.3257 352.178L60.6922 402.53M60.6922 402.53L39.3662 374.551M60.6922 402.53L45.8247 454.081M45.8247 454.081L22.3451 422.212M3.72382 519.458L10.4375 470.683M237.303 133.124L236.813 127.528M237.303 133.124L194.438 165.761M194.438 165.761L193.641 154.521M194.438 165.761L155.028 202.009M155.028 202.009L154.088 185.115M155.028 202.009L119.481 241.461M119.481 241.461L118.53 218.95M119.481 241.461L88.1563 283.683M88.1563 283.683L87.3016 255.641M88.1563 283.683L61.3678 328.209M61.3678 328.209L60.6776 294.772M61.3678 328.209L39.3662 374.551M39.3662 374.551L22.3451 422.212M22.3451 422.212L10.4375 470.683M236.813 127.528L239.553 120.535M236.813 127.528L193.641 154.521M193.641 154.521L199.235 140.567M193.641 154.521L154.088 185.115M154.088 185.115L162.591 164.282M154.088 185.115L118.53 218.95M118.53 218.95L129.945 191.381M118.53 218.95L87.3016 255.641M87.3016 255.641L60.6776 294.772M199.235 140.567L210.775 124.853M199.235 140.567L239.553 120.535M199.235 140.567L162.591 164.282M162.591 164.282L129.945 191.381M162.591 164.282L179.824 140.944M239.553 120.535L245.323 112.621M179.824 140.944L210.775 124.853M179.824 140.944L204.551 116.646M245.323 112.621L253.72 104.327M245.323 112.621L210.775 124.853M210.775 124.853L227.447 108.435M253.72 104.327L264.176 96.1984M253.72 104.327L227.447 108.435M227.447 108.435L248.125 92.3895M227.447 108.435L204.551 116.646M204.551 116.646L235.107 92.9526M264.176 96.1984L275.99 88.7842M264.176 96.1984L248.125 92.3895M248.125 92.3895L235.107 92.9526M248.125 92.3895L271.444 77.7565M235.107 92.9526L269.517 71.3694M275.99 88.7842L288.374 82.571M275.99 88.7842L271.444 77.7565M271.444 77.7565L269.517 71.3694M271.444 77.7565L295.892 65.4875M269.517 71.3694L305.585 53.259M288.374 82.571L295.892 65.4875M295.892 65.4875L305.585 53.259" stroke="url(#paint0_linear_1281_6277)" stroke-width="2.44108" stroke-linecap="round" stroke-linejoin="round"/>
    <defs>
        <linearGradient id="paint0_linear_1281_6277" x1="429.468" y1="72.748" x2="565.367" y2="720.402" gradientUnits="userSpaceOnUse">
            <stop stop-color="#84C1ED"/>
            <stop offset="0.972576" stop-color="#E9EFF5"/>
        </linearGradient>
    </defs>
</svg>
