<?xml version="1.0" encoding="utf-8"?>
<!-- Generator: Adobe Illustrator 25.1.0, SVG Export Plug-In . SVG Version: 6.00 Build 0)  -->
<svg version="1.1" id="Analytics" xmlns="http://www.w3.org/2000/svg" xmlns:xlink="http://www.w3.org/1999/xlink" x="0px" y="0px"
	 viewBox="0 0 2500 2498" style="enable-background:new 0 0 2500 2498;" xml:space="preserve">
<style type="text/css">
	.st0{fill:url(#SVGID_1_);}
	.st1{fill:url(#SVGID_2_);}
	.st2{clip-path:url(#SVGID_4_);}
	.st3{fill:#F57C00;}
	.st4{fill:#FFC107;}
	.st5{clip-path:url(#SVGID_6_);fill:url(#SVGID_7_);}
	.st6{opacity:0.2;clip-path:url(#SVGID_9_);fill:#FFFFFF;enable-background:new    ;}
	.st7{opacity:0.2;clip-path:url(#SVGID_11_);fill:#FFFFFF;enable-background:new    ;}
	.st8{opacity:0.2;clip-path:url(#SVGID_13_);fill:#FFFFFF;enable-background:new    ;}
	.st9{opacity:0.2;clip-path:url(#SVGID_15_);fill:#BF360C;enable-background:new    ;}
	.st10{fill:url(#SVGID_16_);}
</style>
<linearGradient id="SVGID_1_" gradientUnits="userSpaceOnUse" x1="886.5588" y1="1515.7761" x2="1038.6588" y2="1515.7761" gradientTransform="matrix(16.4342 0 0 16.4342 -14569.7158 -23661.582)">
	<stop  offset="0" style="stop-color:#FFFFFF;stop-opacity:0.1"/>
	<stop  offset="1" style="stop-color:#FFFFFF;stop-opacity:0"/>
</linearGradient>
<path class="st0" d="M2297.7,0h-455.2C1732.3,0,1642,90.4,1642,200.5v588.3h-659c-106.8,0-193.9,87.1-193.9,195.6v659H195.7
	c-108.5,0-195.6,87.1-195.6,195.6v460.2c0,108.5,87.1,195.6,195.6,198.9h2103.6c110.1,0,200.5-90.4,200.5-200.5v-2097
	C2498.2,90.4,2407.8,0,2297.7,0z"/>
<linearGradient id="SVGID_2_" gradientUnits="userSpaceOnUse" x1="886.5588" y1="1515.7761" x2="1038.6588" y2="1515.7761" gradientTransform="matrix(16.4342 0 0 16.4342 -14569.7158 -23661.582)">
	<stop  offset="0" style="stop-color:#FFFFFF;stop-opacity:0.1"/>
	<stop  offset="1" style="stop-color:#FFFFFF;stop-opacity:0"/>
</linearGradient>
<path class="st1" d="M2297.7,0h-455.2C1732.3,0,1642,90.4,1642,200.5v588.3h-659c-106.8,0-193.9,87.1-193.9,195.6v659H195.7
	c-108.5,0-195.6,87.1-195.6,195.6v460.2c0,108.5,87.1,195.6,195.6,198.9h2103.6c110.1,0,200.5-90.4,200.5-200.5v-2097
	C2498.2,90.4,2407.8,0,2297.7,0z"/>
<g>
	<defs>
		<path id="SVGID_3_" d="M2297.7,0h-451.9c-110.1,0-200.5,90.4-200.5,200.5v588.3H987.9c-108.5,0-197.2,88.7-197.2,197.2v657.4
			H197.4c-108.5,0-197.2,88.7-197.2,197.2v460.2c0,108.5,88.7,197.2,197.2,197.2h2100.3c110.1,0,200.5-90.4,200.5-200.5v-2097
			C2498.2,90.4,2407.8,0,2297.7,0z"/>
	</defs>
	<clipPath id="SVGID_4_">
		<use xlink:href="#SVGID_3_"  style="overflow:visible;"/>
	</clipPath>
	<g class="st2">
		<path class="st3" d="M2297.7,0h-451.9c-110.1,0-200.5,90.4-200.5,200.5V2498h652.4c110.1,0,200.5-90.4,200.5-200.5v-2097
			C2498.2,90.4,2407.8,0,2297.7,0z"/>
		<path class="st4" d="M789,986.1v657.4H197.4c-108.5,0-197.2,88.7-197.2,197.2v460.2c0,108.5,88.7,197.2,197.2,197.2h1446.2V788.8
			H986.2C877.8,788.8,789,877.6,789,986.1z"/>
	</g>
</g>
<g>
	<defs>
		<path id="SVGID_5_" d="M2297.7,0h-451.9c-110.1,0-200.5,90.4-200.5,200.5v588.3H987.9c-108.5,0-197.2,88.7-197.2,197.2v657.4
			H197.4c-108.5,0-197.2,88.7-197.2,197.2v460.2c0,108.5,88.7,197.2,197.2,197.2h2100.3c110.1,0,200.5-90.4,200.5-200.5v-2097
			C2498.2,90.4,2407.8,0,2297.7,0z"/>
	</defs>
	<clipPath id="SVGID_6_">
		<use xlink:href="#SVGID_5_"  style="overflow:visible;"/>
	</clipPath>
	
		<linearGradient id="SVGID_7_" gradientUnits="userSpaceOnUse" x1="960.8088" y1="1514.0261" x2="1034.9188" y2="1588.1361" gradientTransform="matrix(16.4342 0 0 16.4342 -14569.7158 -23661.582)">
		<stop  offset="0" style="stop-color:#BF360C;stop-opacity:0.2"/>
		<stop  offset="1" style="stop-color:#BF360C;stop-opacity:2.000000e-02"/>
	</linearGradient>
	<path class="st5" d="M1643.6,788.8V2498H2296c110.1,0,200.5-90.4,200.5-200.5v-654.1L1643.6,788.8z"/>
</g>
<g>
	<g>
		<defs>
			<path id="SVGID_8_" d="M2297.7,0h-451.9c-110.1,0-200.5,90.4-200.5,200.5v588.3H987.9c-108.5,0-197.2,88.7-197.2,197.2v657.4
				H197.4c-108.5,0-197.2,88.7-197.2,197.2v460.2c0,108.5,88.7,197.2,197.2,197.2h2100.3c110.1,0,200.5-90.4,200.5-200.5v-2097
				C2498.2,90.4,2407.8,0,2297.7,0z"/>
		</defs>
		<clipPath id="SVGID_9_">
			<use xlink:href="#SVGID_8_"  style="overflow:visible;"/>
		</clipPath>
		<path class="st6" d="M986.2,805.3h657.4v-16.4H986.2c-108.5,0-197.2,88.7-197.2,197.2v16.4C789,894,877.8,805.3,986.2,805.3z"/>
	</g>
</g>
<g>
	<g>
		<defs>
			<path id="SVGID_10_" d="M2297.7,0h-451.9c-110.1,0-200.5,90.4-200.5,200.5v588.3H987.9c-108.5,0-197.2,88.7-197.2,197.2v657.4
				H197.4c-108.5,0-197.2,88.7-197.2,197.2v460.2c0,108.5,88.7,197.2,197.2,197.2h2100.3c110.1,0,200.5-90.4,200.5-200.5v-2097
				C2498.2,90.4,2407.8,0,2297.7,0z"/>
		</defs>
		<clipPath id="SVGID_11_">
			<use xlink:href="#SVGID_10_"  style="overflow:visible;"/>
		</clipPath>
		<path class="st7" d="M197.4,1659.9H789v-16.4H197.4c-108.5,0-197.2,88.7-197.2,197.2v16.4C0.2,1748.6,88.9,1659.9,197.4,1659.9z"
			/>
	</g>
</g>
<g>
	<g>
		<defs>
			<path id="SVGID_12_" d="M2297.7,0h-451.9c-110.1,0-200.5,90.4-200.5,200.5v588.3H987.9c-108.5,0-197.2,88.7-197.2,197.2v657.4
				H197.4c-108.5,0-197.2,88.7-197.2,197.2v460.2c0,108.5,88.7,197.2,197.2,197.2h2100.3c110.1,0,200.5-90.4,200.5-200.5v-2097
				C2498.2,90.4,2407.8,0,2297.7,0z"/>
		</defs>
		<clipPath id="SVGID_13_">
			<use xlink:href="#SVGID_12_"  style="overflow:visible;"/>
		</clipPath>
		<path class="st8" d="M2297.7,0h-451.9c-110.1,0-200.5,90.4-200.5,200.5v16.4c0-110.1,90.4-200.5,200.5-200.5h451.9
			c110.1,0,200.5,90.4,200.5,200.5v-16.4C2498.2,90.4,2407.8,0,2297.7,0z"/>
	</g>
</g>
<g>
	<g>
		<defs>
			<path id="SVGID_14_" d="M2297.7,0h-451.9c-110.1,0-200.5,90.4-200.5,200.5v588.3H987.9c-108.5,0-197.2,88.7-197.2,197.2v657.4
				H197.4c-108.5,0-197.2,88.7-197.2,197.2v460.2c0,108.5,88.7,197.2,197.2,197.2h2100.3c110.1,0,200.5-90.4,200.5-200.5v-2097
				C2498.2,90.4,2407.8,0,2297.7,0z"/>
		</defs>
		<clipPath id="SVGID_15_">
			<use xlink:href="#SVGID_14_"  style="overflow:visible;"/>
		</clipPath>
		<path class="st9" d="M2297.7,2481.6H197.4c-108.5,0-197.2-88.7-197.2-197.2v16.4c0,108.5,88.7,197.2,197.2,197.2H2296
			c110.1,0,200.5-90.4,200.5-200.5v-16.4C2498.2,2391.2,2407.8,2481.6,2297.7,2481.6L2297.7,2481.6z"/>
	</g>
</g>
<linearGradient id="SVGID_16_" gradientUnits="userSpaceOnUse" x1="937.5276" y1="1490.8074" x2="1035.8536" y2="1589.1333" gradientTransform="matrix(16.4342 0 0 16.4342 -14569.7158 -23661.582)">
	<stop  offset="0" style="stop-color:#FFFFFF;stop-opacity:0.1"/>
	<stop  offset="1" style="stop-color:#FFFFFF;stop-opacity:0"/>
</linearGradient>
<path class="st10" d="M2297.7,0h-451.9c-110.1,0-200.5,90.4-200.5,200.5v588.3H987.9c-108.5,0-197.2,88.7-197.2,197.2v657.4H197.4
	c-108.5,0-197.2,88.7-197.2,197.2v460.2c0,108.5,88.7,197.2,197.2,197.2h2100.3c110.1,0,200.5-90.4,200.5-200.5v-2097
	C2498.2,90.4,2407.8,0,2297.7,0z"/>
</svg>
