<svg enable-background="new 0 0 167 42" viewBox="0 0 167 42" xmlns="http://www.w3.org/2000/svg"><path d="m1 16.5h-.5v.5 20c0 2.5 2 4.5 4.5 4.5h157c2.5 0 4.5-2 4.5-4.5v-20-.5h-.5z" fill="#fff" stroke="#c3c4c7"/><path d="m14.8 24-4.8 4.9m0 0 4.8 4.9m-4.8-4.9h9.9" fill="none" stroke="#a7aaad" stroke-linecap="round" stroke-linejoin="round" stroke-width="2"/><path d="m31.1 24 4.8 4.9m0 0-4.8 4.9m4.8-4.9h-9.9" fill="none" stroke="#a7aaad" stroke-linecap="round" stroke-linejoin="round" stroke-width="2"/><path d="m52 26h74.5v7.1h-74.5z" fill="#646970"/><path d="m155.3 22h-104.6c-1.5 0-2.7 1.6-2.7 3.5v7.9c0 1.9 1.2 3.5 2.7 3.5h104.6c1.5 0 2.7-1.6 2.7-3.5v-7.9c0-1.9-1.2-3.5-2.7-3.5z" fill="none" stroke="#3582c4" stroke-width="2"/><path d="m.5 4c0-1.9 1.6-3.5 3.5-3.5h159c1.9 0 3.5 1.6 3.5 3.5v12.9h-166z" fill="#f6f7f7" stroke="#a7aaad"/><g fill="#c3c4c7"><path d="m10.1 11.6c1.7 0 3.1-1.4 3.1-3.1s-1.4-3.1-3.1-3.1-3.1 1.4-3.1 3.1 1.4 3.1 3.1 3.1z"/><path d="m21.7 11.6c1.7 0 3.1-1.4 3.1-3.1s-1.4-3.1-3.1-3.1-3.1 1.4-3.1 3.1 1.4 3.1 3.1 3.1z"/><path d="m33.3 11.6c1.7 0 3.1-1.4 3.1-3.1s-1.4-3.1-3.1-3.1-3.1 1.4-3.1 3.1 1.4 3.1 3.1 3.1z"/></g></svg>