<svg enable-background="new 0 0 45.9 82.6" viewBox="0 0 45.9 82.6" xmlns="http://www.w3.org/2000/svg"><path d="m1 10.6h-.5v.5 66.5c0 2.5 2 4.5 4.5 4.5h35.9c2.5 0 4.5-2 4.5-4.5v-66.5-.5h-.5z" fill="#fff" stroke="#c3c4c7"/><path d="m6.2 17.9h25v10h-25z" fill="#646970"/><path d="m6.2 33.9h31v7h-31z" fill="#dcdcde"/><path d="m6.2 43.9h13v7h-13z" fill="#dcdcde"/><path d="m.7 4c0-1.9 1.6-3.5 3.5-3.5h37.4c1.9 0 3.5 1.6 3.5 3.5v6.6h-44.4z" fill="#f6f7f7" stroke="#a7aaad"/><path d="m9.2 62.9h27c2.2 0 4 1.8 4 4v4c0 2.2-1.8 4-4 4h-27c-2.2 0-4-1.8-4-4v-4c0-2.2 1.8-4 4-4z" fill="#3582c4"/></svg>