<svg viewBox="0 0 167 42" xmlns="http://www.w3.org/2000/svg"><path d="M1 16.5H.5V37c0 2.5 2 4.5 4.5 4.5h157c2.5 0 4.5-2 4.5-4.5V16.5h-.5z" fill="#fff" stroke="#c3c4c7"/><path d="M14.8 24L10 28.9m0 0l4.8 4.9M10 28.9h9.9M31.1 24l4.8 4.9m0 0l-4.8 4.9m4.8-4.9H26" fill="none" stroke="#a7aaad" stroke-linecap="round" stroke-linejoin="round" stroke-width="2"/><path d="M52 26h74.5v7.1H52z" fill="#646970"/><path d="M155.3 22H50.7c-1.5 0-2.7 1.6-2.7 3.5v7.9c0 1.9 1.2 3.5 2.7 3.5h104.6c1.5 0 2.7-1.6 2.7-3.5v-7.9c0-1.9-1.2-3.5-2.7-3.5z" fill="none" stroke="#1689db" stroke-width="2"/><path d="M.5 4C.5 2.1 2.1.5 4 .5h159c1.9 0 3.5 1.6 3.5 3.5v12.9H.5z" fill="#f6f7f7" stroke="#a7aaad"/><g fill="#c3c4c7"><path d="M10.1 11.6c1.7 0 3.1-1.4 3.1-3.1s-1.4-3.1-3.1-3.1S7 6.8 7 8.5s1.4 3.1 3.1 3.1zM21.7 11.6c1.7 0 3.1-1.4 3.1-3.1s-1.4-3.1-3.1-3.1-3.1 1.4-3.1 3.1 1.4 3.1 3.1 3.1zM33.3 11.6c1.7 0 3.1-1.4 3.1-3.1S35 5.4 33.3 5.4s-3.1 1.4-3.1 3.1 1.4 3.1 3.1 3.1z"/></g></svg>