<svg fill="none" height="96" width="167" xmlns="http://www.w3.org/2000/svg"><path d="M1 16.5H.5V102a4.5 4.5 0 004.5 4.5h157a4.5 4.5 0 004.5-4.5V16.5h-.5z" fill="#1689db" stroke="#c3c4c7"/><path clip-rule="evenodd" d="M92.782 67.698l-18.63-14.564a.498.498 0 00-.7.078l-.311.389a.499.499 0 00.077.701l18.63 14.564a.498.498 0 00.7-.078l.312-.389a.499.499 0 00-.078-.701zm-10.505-10.11l4.2 3.283a3.48 3.48 0 00-4.2-3.283zm1.446 6.825l-4.199-3.283a3.48 3.48 0 004.2 3.283zM83 56.514c3.073 0 5.89 1.713 7.412 4.486a8.895 8.895 0 01-1.37 1.875l1.175.92c.655-.7 1.21-1.488 1.648-2.34a1.007 1.007 0 000-.91C90.175 57.25 86.83 55.02 83 55.02a9.618 9.618 0 00-3.26.586l1.446 1.13A8.18 8.18 0 0183 56.514zm0 8.972c-3.073 0-5.89-1.713-7.412-4.486a8.894 8.894 0 011.372-1.875l-1.175-.92c-.655.701-1.21 1.488-1.648 2.34a1.008 1.008 0 000 .91C75.827 64.75 79.17 66.98 83 66.98c1.143 0 2.234-.22 3.26-.586l-1.446-1.13c-.59.134-1.194.221-1.814.221z" fill="#fff" fill-rule="evenodd"/><path d="M.5 4A3.5 3.5 0 014 .5h159a3.5 3.5 0 013.5 3.5v12.948H.5z" fill="#f6f7f7" stroke="#a7aaad"/><g fill="#c3c4c7"><path d="M10.062 11.624a3.077 3.077 0 100-6.154 3.077 3.077 0 000 6.154zM21.687 11.624a3.077 3.077 0 100-6.154 3.077 3.077 0 000 6.154zM33.311 11.624a3.077 3.077 0 100-6.154 3.077 3.077 0 000 6.154z"/></g></svg>