<svg fill="none" height="76" viewBox="0 0 167 76" width="167" xmlns="http://www.w3.org/2000/svg" xmlns:xlink="http://www.w3.org/1999/xlink"><mask id="a" height="16" maskUnits="userSpaceOnUse" width="16" x="74" y="31"><path clip-rule="evenodd" d="m85.11 33.36-3.24 3.24-1.87-1.87 3.24-3.24c.35-.34 1.05-.2 1.56.32.52.51.66 1.21.31 1.55zm-8 1.77.91-1.12 9.01 9.01-1.19.84c-.71.71-2.63 1.16-3.82 1.16h-3.88l-1.24 1.24c-.59.59-1.54.59-2.12 0-.59-.58-.59-1.53 0-2.12l1.24-1.24v-3.88c0-1.13.4-3.19 1.09-3.89zm10.5.73-3.24 3.24 1.86 1.87 3.24-3.25c.35-.34.21-1.04-.31-1.55-.51-.52-1.21-.66-1.55-.31z" fill="#fff" fill-rule="evenodd"/></mask><rect fill="#fff" height="75" rx="4.5" stroke="#c3c4c7" width="166" x=".5" y=".5"/><path clip-rule="evenodd" d="m85.11 33.36-3.24 3.24-1.87-1.87 3.24-3.24c.35-.34 1.05-.2 1.56.32.52.51.66 1.21.31 1.55zm-8 1.77.91-1.12 9.01 9.01-1.19.84c-.71.71-2.63 1.16-3.82 1.16h-3.88l-1.24 1.24c-.59.59-1.54.59-2.12 0-.59-.58-.59-1.53 0-2.12l1.24-1.24v-3.88c0-1.13.4-3.19 1.09-3.89zm10.5.73-3.24 3.24 1.86 1.87 3.24-3.25c.35-.34.21-1.04-.31-1.55-.51-.52-1.21-.66-1.55-.31z" fill="#000" fill-rule="evenodd"/><g mask="url(#a)"><path d="m72 29h20v20h-20z" fill="#646970"/></g></svg>