<svg fill="none" height="96" viewBox="0 0 167 96" width="167" xmlns="http://www.w3.org/2000/svg"><path d="m.999634 16.4999h-.5v.5 85.0001c0 2.485 2.014716 4.5 4.499996 4.5h157.00037c2.485 0 4.5-2.015 4.5-4.5v-85.0001-.5h-.5z" fill="#3582c4" stroke="#c3c4c7"/><path clip-rule="evenodd" d="m92.7821 67.6978-18.6293-14.5635c-.1032-.0826-.235-.1209-.3664-.1063-.1314.0145-.2516.0807-.3342.1839l-.3116.389c-.0828.1033-.1212.2352-.1066.3668.0146.1315.0808.2519.1842.3345l18.6293 14.5635c.1032.0827.235.1209.3664.1064.1313-.0146.2516-.0807.3342-.1839l.3115-.3891c.0828-.1033.1212-.2352.1067-.3667-.0146-.1316-.0809-.2519-.1842-.3346zm-10.505-10.1099 4.199 3.2828c-.0691-1.8673-1.5919-3.3598-3.476-3.3598-.243.0005-.4853.0263-.723.077zm1.4461 6.8246-4.1991-3.2829c.0695 1.867 1.5922 3.3595 3.476 3.3595.243-.0005.4854-.0262.7231-.0766zm-.7231-7.8985c3.0732 0 5.8907 1.7134 7.4122 4.486-.373.6824-.8338 1.3129-1.3707 1.8754l1.1757.919c.6545-.7002 1.2091-1.4877 1.6479-2.3399.1446-.2859.1446-.6234 0-.9093-1.6909-3.2963-5.0355-5.5265-8.8651-5.5265-1.1433 0-2.2339.2181-3.2595.586l1.4458 1.1305c.5901-.1339 1.1944-.2212 1.8137-.2212zm0 8.972c-3.0732 0-5.8903-1.7134-7.4121-4.486.3734-.6823.8348-1.3127 1.3723-1.8751l-1.1757-.919c-.6545.7002-1.209 1.4875-1.6477 2.3396-.1445.2859-.1445.6235 0 .9093 1.6894 3.2963 5.0339 5.5265 8.8632 5.5265 1.1433 0 2.234-.2196 3.2595-.586l-1.4458-1.1302c-.59.1337-1.194.2209-1.8137.2209z" fill="#fff" fill-rule="evenodd"/><path d="m.5 4c0-1.933 1.567-3.5 3.5-3.5h159c1.933 0 3.5 1.567 3.5 3.5v12.9478h-166z" fill="#f6f7f7" stroke="#a7aaad"/><g fill="#c3c4c7"><path d="m10.0621 11.6242c1.6994 0 3.0771-1.3776 3.0771-3.07707 0-1.69942-1.3777-3.07707-3.0771-3.07707-1.69943 0-3.07708 1.37765-3.07708 3.07707 0 1.69947 1.37765 3.07707 3.07708 3.07707z"/><path d="m21.6866 11.6242c1.6994 0 3.0771-1.3776 3.0771-3.07707 0-1.69942-1.3777-3.07707-3.0771-3.07707s-3.0771 1.37765-3.0771 3.07707c0 1.69947 1.3777 3.07707 3.0771 3.07707z"/><path d="m33.3111 11.6242c1.6994 0 3.0771-1.3776 3.0771-3.07707 0-1.69942-1.3777-3.07707-3.0771-3.07707s-3.0771 1.37765-3.0771 3.07707c0 1.69947 1.3777 3.07707 3.0771 3.07707z"/></g></svg>