<svg width="181" height="64" viewBox="0 0 181 64" fill="none" xmlns="http://www.w3.org/2000/svg">
<path d="M56.7225 37.6917C56.9576 39.1575 58.2898 39.7038 59.7433 39.7038C61.1969 39.7038 62.3097 39.0868 62.341 38.3401C62.3919 37.2084 61.5065 36.5364 60.2527 36.2927C59.3868 36.1277 56.7891 35.6129 56.7891 35.6129C53.6312 35.0352 51.8328 34.1196 51.8328 31.4277C51.8328 27.9223 54.8536 25.6392 59.1674 25.6392C63.4106 25.6392 66.2199 27.5805 66.9055 30.5435L61.9492 31.5299C61.7807 30.4728 60.7738 29.5218 59.0969 29.5218C57.6394 29.5218 56.9067 30.1348 56.7735 30.85C56.6834 31.3177 56.9067 31.7067 58.4543 32.0289C59.4534 32.2451 62.4585 32.8463 62.4585 32.8463C65.6831 33.5262 67.1602 35.4675 67.1602 37.9865C67.1602 41.7669 63.9004 43.7436 59.4181 43.7436C55.4139 43.7436 51.9739 42.2778 51.4058 38.7724L56.7225 37.6917Z" fill="#2C3338"/>
<path d="M106.239 29.9187C106.328 30.6107 106.373 31.3077 106.376 32.0054C106.376 38.9493 101.431 43.944 94.5434 43.944C87.6555 43.944 82.2329 38.6978 82.2329 31.97C82.2329 25.2423 87.585 20 94.4415 20C99.535 20 103.99 22.3932 105.592 26.8771L100.17 28.449C98.8375 25.8475 96.6435 25.1637 94.4415 25.1637C90.7233 25.1637 87.8945 28.1071 87.8945 31.97C87.8945 35.833 90.7899 38.8118 94.61 38.8118C97.6112 38.8118 99.7936 37.2399 100.648 34.7091H93.654V29.9187H106.239Z" fill="#2C3338"/>
<path d="M30.8361 43.0414H25.2451V33.9833H15.6263V43.0414H10V20.123H15.6263V29.0515H25.2451V20.123H30.8361V43.0414Z" fill="#2C3338"/>
<path d="M51.0924 34.453C51.0924 39.8918 46.7825 43.519 41.7126 43.519C36.529 43.519 32.231 39.8918 32.231 34.453C32.231 29.0142 36.5408 25.4146 41.7126 25.4146C46.7943 25.4263 51.0924 29.0496 51.0924 34.453ZM45.8344 34.453C45.8344 31.7847 43.8244 30.0084 41.7087 30.0084C40.5562 30.0214 39.4577 30.5007 38.6625 31.3375C37.8673 32.1743 37.4427 33.2977 37.4851 34.453C37.4851 37.1567 39.495 38.9015 41.7126 38.9015C43.8283 38.9015 45.8344 37.1567 45.8344 34.453Z" fill="#2C3338"/>
<path d="M82.4091 42.2903C80.9907 43.1174 79.3796 43.5539 77.7388 43.5557C73.476 43.5557 70.9097 41.2293 70.9097 36.7337V30.2142H67.8145V25.8914H70.9097V21.3015L76.3675 20.1226V25.8718H81.414V30.1945H76.395V36.1678C76.395 37.944 77.2452 38.6632 78.6792 38.6632C79.5503 38.6326 80.4022 38.3984 81.1671 37.9794L82.4091 42.2903Z" fill="#2C3338"/>
<path d="M123.635 32.1619V43.0394H118.385V41.774C116.956 42.9798 115.134 43.6137 113.268 43.5542C109.452 43.5542 106.893 41.33 106.893 37.9425C106.893 34.5551 109.452 32.4094 114.008 32.4094H118.373V32.0675C118.409 31.4177 118.166 30.7834 117.707 30.3235C117.248 29.8637 116.615 29.6218 115.967 29.6586C114.33 29.6586 113.374 30.307 113.103 31.8121L107.955 30.7511C108.703 27.4344 111.704 25.3477 115.791 25.3477C120.602 25.3555 123.635 27.7841 123.635 32.1619ZM118.385 36.2685V35.8755H114.631C113.268 35.8755 112.418 36.5946 112.418 37.6557C112.418 38.7167 113.37 39.4319 114.804 39.4319C116.68 39.4476 118.385 38.1822 118.385 36.2685Z" fill="#2C3338"/>
<path d="M139.048 42.2903C137.631 43.116 136.021 43.5525 134.382 43.5557C130.119 43.5557 127.565 41.2293 127.565 36.714V30.2142H124.461V25.8914H127.565V21.3015L133.018 20.1226V25.8718H138.065V30.1945H133.011V36.1678C133.011 37.944 133.865 38.6632 135.295 38.6632C136.167 38.633 137.021 38.3989 137.787 37.9794L139.048 42.2903Z" fill="#2C3338"/>
<path d="M157.052 34.453C157.052 39.8918 152.742 43.519 147.676 43.519C142.492 43.519 138.194 39.8918 138.194 34.453C138.194 29.0142 142.504 25.4146 147.676 25.4146C152.758 25.4263 157.052 29.0496 157.052 34.453ZM151.802 34.453C151.802 31.7847 149.788 30.0084 147.676 30.0084C146.522 30.0193 145.422 30.4977 144.625 31.3347C143.828 32.1718 143.402 33.2964 143.445 34.453C143.445 37.1567 145.458 38.9015 147.676 38.9015C149.788 38.9015 151.802 37.1567 151.802 34.453Z" fill="#2C3338"/>
<path d="M171 25.7699L170.761 31.2322H169.77C165.953 31.2322 163.873 33.1971 163.873 37.6652V43.0411H158.415V27.051L163.873 25.872V29.1534C165.099 27.102 166.976 25.6166 169.77 25.6166C170.185 25.6112 170.599 25.6628 171 25.7699Z" fill="#2C3338"/>
</svg>
