<svg width="102" height="139" viewBox="0 0 102 139" fill="none" xmlns="http://www.w3.org/2000/svg">
<circle cx="52" cy="77.3488" r="45" fill="#389D25"/>
<mask id="mask0_2398_2031" style="mask-type:alpha" maskUnits="userSpaceOnUse" x="34" y="59" width="36" height="37">
<path fill-rule="evenodd" clip-rule="evenodd" d="M48.308 85.0408L38 95.3488L34 91.3488L44.308 81.0408C42.852 78.8328 42 76.1908 42 73.3488C42 65.6168 48.268 59.3488 56 59.3488C63.732 59.3488 70 65.6168 70 73.3488C70 81.0808 63.732 87.3488 56 87.3488C53.158 87.3488 50.516 86.4968 48.308 85.0408ZM66 73.3488C66 67.8348 61.514 63.3488 56 63.3488C50.486 63.3488 46 67.8348 46 73.3488C46 78.8628 50.486 83.3488 56 83.3488C61.514 83.3488 66 78.8628 66 73.3488Z" fill="white"/>
</mask>
<g mask="url(#mask0_2398_2031)">
<rect x="76" y="53.3488" width="48" height="48" transform="rotate(90 76 53.3488)" fill="white"/>
</g>
<ellipse cx="52.5" cy="134.849" rx="29.5" ry="3.5" fill="#F6F7F7"/>
<path d="M92.963 21.5907L95.184 27.5929L101.186 29.814L95.184 32.035L92.963 38.0372L90.742 32.035L84.7397 29.814L90.742 27.5929L92.963 21.5907Z" fill="#2FB41F"/>
<path opacity="0.4" d="M26.8326 9.34882L29.0537 15.351L35.0559 17.5721L29.0537 19.7931L26.8326 25.7953L24.6116 19.7931L18.6094 17.5721L24.6116 15.351L26.8326 9.34882Z" fill="#2FB41F"/>
<path opacity="0.7" d="M72.8371 3.16279L71.3828 6.32558L72.8371 9.48837L69.6743 8.03406L66.5115 9.48837L67.9658 6.32558L66.5115 3.16279L69.6743 4.6171L72.8371 3.16279Z" fill="#2FB41F"/>
<path opacity="0.7" d="M9.48848 33.7116L8.03417 36.8744L9.48848 40.0372L6.32568 38.5829L3.16289 40.0372L4.6172 36.8744L3.16289 33.7116L6.32568 35.1659L9.48848 33.7116Z" fill="#2FB41F"/>
</svg>
