<svg width="102" height="139" viewBox="0 0 102 139" fill="none" xmlns="http://www.w3.org/2000/svg">
<circle cx="52.0002" cy="77.3489" r="45" fill="#389D25"/>
<mask id="mask0_2411_2160" style="mask-type:alpha" maskUnits="userSpaceOnUse" x="34" y="59" width="37" height="37">
<path fill-rule="evenodd" clip-rule="evenodd" d="M59.6922 81.0409L70.0002 91.3489L66.0002 95.3489L55.6922 85.0409C53.4842 86.4969 50.8422 87.3489 48.0002 87.3489C40.2682 87.3489 34.0002 81.0809 34.0002 73.3489C34.0002 65.6169 40.2682 59.3489 48.0002 59.3489C55.7322 59.3489 62.0002 65.6169 62.0002 73.3489C62.0002 76.1909 61.1482 78.8329 59.6922 81.0409ZM48.0002 63.3489C42.4862 63.3489 38.0002 67.8349 38.0002 73.3489C38.0002 78.8629 42.4862 83.3489 48.0002 83.3489C53.5142 83.3489 58.0002 78.8629 58.0002 73.3489C58.0002 67.8349 53.5142 63.3489 48.0002 63.3489Z" fill="white"/>
</mask>
<g mask="url(#mask0_2411_2160)">
<rect x="28.0002" y="53.3489" width="48" height="48" fill="white"/>
</g>
<ellipse cx="52.5002" cy="134.849" rx="29.5" ry="3.5" fill="#F6F7F7"/>
<path d="M92.9632 21.5907L95.1843 27.5929L101.187 29.814L95.1843 32.035L92.9632 38.0372L90.7422 32.035L84.74 29.814L90.7422 27.5929L92.9632 21.5907Z" fill="#2FB41F"/>
<path opacity="0.4" d="M26.8329 9.34888L29.0539 15.3511L35.0561 17.5721L29.0539 19.7932L26.8329 25.7954L24.6118 19.7932L18.6096 17.5721L24.6118 15.3511L26.8329 9.34888Z" fill="#2FB41F"/>
<path opacity="0.7" d="M72.8374 3.16279L71.383 6.32558L72.8374 9.48837L69.6746 8.03406L66.5118 9.48837L67.9661 6.32558L66.5118 3.16279L69.6746 4.6171L72.8374 3.16279Z" fill="#2FB41F"/>
<path opacity="0.7" d="M9.48872 33.7116L8.03441 36.8744L9.48872 40.0372L6.32593 38.5829L3.16314 40.0372L4.61745 36.8744L3.16314 33.7116L6.32593 35.1659L9.48872 33.7116Z" fill="#2FB41F"/>
</svg>
