<svg width="116" height="115" fill="none" xmlns="http://www.w3.org/2000/svg"><path d="M61.5 11L25 27.364v24.545C25 74.614 40.573 95.846 61.5 101 82.427 95.846 98 74.614 98 51.91V27.363L61.5 11z" fill="#069E08"/><path d="M41.297 57.646l13.66 13.738 29.97-30.274" stroke="#fff" stroke-width="6"/><path fill-rule="evenodd" clip-rule="evenodd" d="M30 11.57a3.57 3.57 0 117.14 0 3.57 3.57 0 01-7.14 0z" fill="#D0E6B8"/><path fill-rule="evenodd" clip-rule="evenodd" d="M16.123 3.901L17.802 0l-3.901 1.679L10 0l1.68 3.901L10 7.802l3.901-1.68 3.901 1.68-1.679-3.901zM114.123 28.901L115.802 25l-3.901 1.679L108 25l1.68 3.901-1.68 3.901 3.901-1.68 3.901 1.68-1.679-3.901zM101.664 15.664l2.596-1.034-2.596-1.033L100.63 11l-1.033 2.597L97 14.63l2.597 1.034 1.033 2.597 1.034-2.597zM4.664 38.664L7.26 37.63l-2.596-1.033L3.63 34l-1.033 2.597L0 37.63l2.597 1.034 1.033 2.597 1.034-2.597z" fill="#9DD977"/><ellipse cx="62" cy="111" rx="29" ry="4" fill="#f6f7f7"/></svg>
