<svg width="1600" height="1600" fill="none" xmlns="http://www.w3.org/2000/svg"><path fill-rule="evenodd" clip-rule="evenodd" d="M1146.65 737.667c0 147.276-119.39 266.663-266.667 266.663-147.276 0-266.667-119.387-266.667-266.663S732.707 471 879.983 471c147.277 0 266.667 119.391 266.667 266.667zm100 0c0 202.504-164.16 366.663-366.667 366.663-93.133 0-178.156-34.72-242.83-91.92l-224.237 196.2-65.851-75.26 224.858-196.746c-37.08-57.301-58.607-125.605-58.607-198.937C513.316 535.162 677.478 371 879.983 371c202.507 0 366.667 164.162 366.667 366.667z" fill="#000"/></svg>