<svg width="10526" height="2435" fill="none" xmlns="http://www.w3.org/2000/svg"><path fill="#fff" d="M436 481h100v102.451H436z"/><mask id="a" maskUnits="userSpaceOnUse" x="436" y="498" width="100" height="69"><path d="M516.625 523.859c-2.833-14.728-15.458-25.784-30.625-25.784-12.042 0-22.5 7.001-27.708 17.246C445.75 516.687 436 527.573 436 540.763c0 14.13 11.208 25.613 25 25.613h54.167c11.5 0 20.833-9.562 20.833-21.344 0-11.27-8.542-20.405-19.375-21.173z" fill="#A7AAAD"/></mask><g mask="url(#a)"><path fill="#069E08" d="M436 481h100v102.451H436z"/></g><mask id="b" maskUnits="userSpaceOnUse" x="436" y="498" width="100" height="69"><path d="M516.625 523.859c-2.833-14.728-15.458-25.784-30.625-25.784-12.042 0-22.5 7.001-27.708 17.246C445.75 516.687 436 527.573 436 540.763c0 14.13 11.208 25.613 25 25.613h54.167c11.5 0 20.833-9.562 20.833-21.344 0-11.27-8.542-20.405-19.375-21.173z" fill="#fff"/></mask><path fill-rule="evenodd" clip-rule="evenodd" d="M481.751 541.927l-11.826-9.832-3.199 4.039 15.768 13.109h.001l19.193-24.232-3.942-3.277-15.995 20.193z" fill="#D8D8D8"/><mask id="c" maskUnits="userSpaceOnUse" x="466" y="521" width="36" height="29"><path fill-rule="evenodd" clip-rule="evenodd" d="M481.751 541.927l-11.826-9.832-3.199 4.039 15.768 13.109h.001l19.193-24.232-3.942-3.277-15.995 20.193z" fill="#fff"/></mask><g mask="url(#c)"><path fill="#fff" d="M462.434 517.206l40.3954815-4.30647077 4.20346662 41.3853583-40.3954815 4.30647077z"/></g><path fill-rule="evenodd" clip-rule="evenodd" d="M450 500.57c0-1.972 1.598-3.57 3.57-3.57 1.972 0 3.57 1.598 3.57 3.57 0 1.972-1.598 3.57-3.57 3.57-1.972 0-3.57-1.598-3.57-3.57z" fill="#D0E6B8"/><path fill-rule="evenodd" clip-rule="evenodd" d="M440.123 482.901l1.679-3.901-3.901 1.679L434 479l1.68 3.901-1.68 3.901 3.901-1.68 3.901 1.68-1.679-3.901zM538.123 507.901l1.679-3.901-3.901 1.679L532 504l1.68 3.901-1.68 3.901 3.901-1.68 3.901 1.68-1.679-3.901zM525.664 494.664l2.596-1.034-2.596-1.033L524.63 490l-1.033 2.597L521 493.63l2.597 1.034 1.033 2.597 1.034-2.597zM428.664 517.664l2.596-1.034-2.596-1.033L427.63 513l-1.033 2.597L424 516.63l2.597 1.034 1.033 2.597 1.034-2.597z" fill="#9DD977"/><ellipse cx="486" cy="590" rx="39" ry="4" fill="#F2F2F3"/></svg>
