<svg width="23" height="23" fill="none" xmlns="http://www.w3.org/2000/svg"><path d="M22.627 11.313C22.627 5.08 17.547 0 11.314 0 5.067 0 0 5.08 0 11.313c0 6.246 5.068 11.314 11.313 11.314 6.234 0 11.314-5.068 11.314-11.313ZM8.802 17.39 4.944 7.037c.622-.023 1.324-.09 1.324-.09.565-.068.498-1.279-.068-1.256 0 0-1.64.124-2.681.124-.204 0-.42 0-.657-.011 1.8-2.76 4.91-4.548 8.451-4.548 2.637 0 5.035.984 6.845 2.647-.77-.124-1.867.441-1.867 1.788 0 .837.51 1.538 1.019 2.376.396.69.622 1.538.622 2.783 0 1.685-1.584 5.656-1.584 5.656L12.92 7.037c.611-.023.928-.192.928-.192.566-.057.498-1.414-.068-1.38 0 0-1.63.135-2.693.135-.984 0-2.636-.136-2.636-.136-.565-.034-.633 1.358-.068 1.38l1.041.091 1.426 3.858-2.048 6.596Zm10.895-6.075c.271-.725.837-2.116.486-4.809.792 1.46 1.188 3.066 1.188 4.808 0 3.723-1.957 7.06-4.978 8.803 1.098-2.93 2.195-5.884 3.304-8.803ZM6.9 20.465c-3.371-1.629-5.645-5.159-5.645-9.153 0-1.47.26-2.805.814-4.061 1.607 4.401 3.213 8.813 4.831 13.214Zm4.56-7.5 2.918 7.896a9.523 9.523 0 0 1-3.066.51 8.911 8.911 0 0 1-2.59-.374c.916-2.693 1.832-5.363 2.738-8.033Z" fill="#0675c4"/></svg>
