<svg id="Layer_1" data-name="Layer 1" xmlns="http://www.w3.org/2000/svg" viewBox="0 0 500 500">
	<defs><style>.cls-1{fill:#fff;}.cls-2{fill:#3f439b;}.cls-3{fill:#61c8d1;}.cls-4{fill:#e82e92;}</style></defs>
	<path class="cls-1" d="M250,497.5A247.5,247.5,0,0,1,75,75,247.5,247.5,0,0,1,425,425,245.87,245.87,0,0,1,250,497.5Z"/>
	<path class="cls-2" d="M250,5a245.07,245.07,0,0,1,95.36,470.75A245.06,245.06,0,0,1,154.64,24.25,243.5,243.5,0,0,1,250,5m0-5C111.93,0,0,111.93,0,250S111.93,500,250,500,500,388.07,500,250,388.07,0,250,0Z"/>
	<circle class="cls-2" cx="282.63" cy="153.11" r="96.29"/>
	<path class="cls-3" d="M282.06,443.18h-161V249.4h161a96.85,96.85,0,0,1,96.86,96.86v.06A96.86,96.86,0,0,1,282.06,443.18Z"/>
	<polyline class="cls-4" points="121.88 251 121.88 56.82 282.63 56.82"/>
</svg>
