<svg viewBox="0 0 252 252" xmlns="http://www.w3.org/2000/svg"><g fill="#187aa2"><path d="m41.6 126.6c0 33.6 19.5 62.7 47.9 76.5l-40.5-111.1c-4.7 10.6-7.4 22.3-7.4 34.6zm142.4-4.3c0-10.5-3.8-17.8-7-23.4-4.3-7-8.3-12.9-8.3-19.9 0-7.8 5.9-15.1 14.3-15.1.4 0 .7 0 1.1.1-15.1-13.8-35.3-22.3-57.4-22.3-29.7 0-55.8 15.2-71 38.3 2 .1 3.9.1 5.5.1 8.8-.1 22.5-1.1 22.5-1.1 4.6-.3 5.1 6.5.5 7 0 0-4.6.5-9.7.8l30.9 92 18.6-55.8-13.2-36.3c-4.6-.3-8.9-.8-8.9-.8-4.6-.3-4-7.3.5-7 0 0 14 1.1 22.4 1.1 8.9 0 22.6-1.1 22.6-1.1 4.6-.3 5.1 6.5.5 7 0 0-4.6.5-9.7.8l30.7 91.3 8.5-28.3c3.8-11.7 6.6-20.1 6.6-27.4z"/><path d="m128.1 134-25.5 74.1c7.6 2.2 15.7 3.5 24 3.5 9.9 0 19.4-1.7 28.2-4.8l-.6-1.2zm73.1-48.2c.4 2.7.6 5.6.6 8.7 0 8.6-1.6 18.3-6.5 30.4l-26 75c25.3-14.7 42.2-42.1 42.2-73.4.1-14.7-3.7-28.6-10.3-40.7z"/><path d="m126.6 27.6c-54.6 0-99 44.4-99 99s44.4 99 99 99 99-44.4 99-99c.1-54.6-44.4-99-99-99zm0 193.5c-52.1 0-94.5-42.4-94.5-94.5s42.4-94.5 94.5-94.5 94.5 42.4 94.5 94.5-42.4 94.5-94.5 94.5z"/></g></svg>
