<svg viewBox="0 0 1637.67 1053.07" xmlns="http://www.w3.org/2000/svg"><path d="m3893.49 2508.22c4.46 43.09 8.83 86.19 12.78 129.33 4.2 43.12 7.69 86.29 11.57 129.43s7.08 86.34 10.57 129.52l4.7 64.81 4.14 64.85a5.11 5.11 0 0 1 -10.19.86l-6.8-64.63-6.24-64.68c-3.81-43.15-7.82-86.28-11.31-129.45s-7.22-86.33-10.31-129.54c-3.34-43.19-6.27-86.41-9.1-129.64a5.11 5.11 0 0 1 10.19-.86z" fill="#ccced0" transform="translate(-3620.79 -1987.48)"/><path d="m4037.34 2585.83-399.47 33.46-16.87-200.87a72.19 72.19 0 0 1 65.91-78l444-37.19 16.82 200.87a72.19 72.19 0 0 1 -65.91 78" fill="#ccced0" transform="translate(-3620.79 -1987.48)"/><path d="m4118.55 3032.94h-94.94v-598.44a45.27 45.27 0 0 1 45.27-45.27h669.79a45.27 45.27 0 0 1 45.33 45.27v598.44h-567.83" fill="#fff" transform="translate(-3620.79 -1987.48)"/><path d="m4118.55 3036.78c-31.64.77-63.29 1.23-94.94 1.56a5.34 5.34 0 0 1 -5.39-5.28v-.11c-.72-167.41-.2-334.81-.36-502.22v-94.17a56.86 56.86 0 0 1 2.29-17.2 51.66 51.66 0 0 1 8.1-15.63 50.72 50.72 0 0 1 29.06-18.88c5.69-1.39 12-1.42 16.9-1.37h659.16c4.93-.06 11.21 0 16.9 1.37a50.72 50.72 0 0 1 29.06 18.88 51.62 51.62 0 0 1 8.1 15.63 56.8 56.8 0 0 1 2.29 17.2v596.38a5.73 5.73 0 0 1 -5.72 5.75l-283.89-.87-141.94-1.15-141.95-1.82a1.92 1.92 0 0 1 0-3.83l141.95-1.82 141.94-1.15 283.89-.87-5.75 5.75v-596.37a39.73 39.73 0 0 0 -8-25.88 39.21 39.21 0 0 0 -22.5-14.63c-4.51-1.05-8.78-1.11-14.3-1.07h-659.25c-5.51 0-9.79 0-14.3 1.07a39.22 39.22 0 0 0 -22.5 14.63 39.73 39.73 0 0 0 -8 25.88v94.17c-.16 167.41.36 334.81-.36 502.22l-5.39-5.39c31.65.33 63.29.78 94.94 1.56a3.84 3.84 0 0 1 0 7.67z" fill="#ccced0" transform="translate(-3620.79 -1987.48)"/><path d="m4821.74 2508.08c-69.66 6.2-139.32 5.74-209 6.11l-209 1-209-1c-69.66-.37-139.32.1-209-6.11a1.92 1.92 0 0 1 0-3.83c69.66-6.21 139.32-5.74 209-6.11l209-1 209 1c69.66.36 139.32-.09 209 6.11a1.92 1.92 0 0 1 0 3.83z" fill="#658eab" transform="translate(-3620.79 -1987.48)"/><path d="m497.76 755.45h317.11v204.03h-317.11z" fill="#f6f6f6"/><path d="m4437 2709.72c-25 1.22-51 2-77.31 2.05l-80.25.73-160.85.82a6.32 6.32 0 0 1 -6.35-6.29v-.03l-.06-25.56v-12.78c-.06-4.18 0-8.53.29-13.24a88 88 0 0 1 20.39-50.24c11.91-13.92 28-24.42 45.94-28.68a88.48 88.48 0 0 1 13.53-2.35c4.6-.26 9.2-.47 13.34-.38l25.56.06c68.16.3 136.33 0 204.49.8h.11a5.28 5.28 0 0 1 5.23 5.33c-.17 21.8-.63 43.65-1.46 65.12-.65 21.54-1.63 42.68-2.52 63.27zm-2.7-5.4-2.47-62.47c-.83-20.87-1.29-41.37-1.46-61.91l5.33 5.33c-68.16.82-136.33.5-204.49.8l-25.56.06c-4.39-.08-8.3.17-12.2.38a75.89 75.89 0 0 0 -11.6 2.08c-15.32 3.69-29.09 12.8-39.25 24.74a75.57 75.57 0 0 0 -17.25 43l-.3 5.92v6.39 12.78l-.06 25.56-6.35-6.35 156.26.82 78.3.73c26 .09 52.47.83 79.83 2.09z" fill="#f6f6f6" transform="translate(-3620.79 -1987.48)"/><path d="m4386.33 2788.69c-38.63 0-51.82 17.8-60 32.47-7.7 13.85-24.79 32.83-51.32 39.77s-37.53 22.79-37.53 37.66h150.1z" fill="#fff" transform="translate(-3620.79 -1987.48)"/><path d="m863.89 592.46h204.03v367.02h-204.03z" fill="#f6f6f6"/><path d="m4986.62 2411.09c-7.05 52-14.2 104-21.77 155.93-7.31 52-15.33 103.83-23 155.75l-24 155.6-12.56 77.71-13.11 77.63a5.11 5.11 0 0 1 -10.11-1.53l10.48-78 11-77.94 23.22-155.71c8.1-51.85 15.8-103.76 24.22-155.56 8.16-51.84 16.74-103.62 25.41-155.38a5.11 5.11 0 0 1 10.11 1.53z" fill="#ccced0" transform="translate(-3620.79 -1987.48)"/><path d="m4737.11 2226.16h508.36a0 0 0 0 1 0 0v264.35a9.41 9.41 0 0 1 -9.41 9.41h-508.36a0 0 0 0 1 0 0v-264.34a9.41 9.41 0 0 1 9.41-9.42z" fill="#6f93ad" transform="matrix(.9944303 .10539631 -.10539631 .9944303 -3343.84 -2500.07)"/><g transform="translate(-3620.79 -1987.48)"><path d="m3869.58 3032.64a176.27 176.27 0 0 0 -3.67-29.8 206.12 206.12 0 0 0 -8.47-28.85c-3.61-9.4-7.61-18.7-12.09-27.85s-9.3-18.18-14.13-27.33a5.14 5.14 0 0 1 8.45-5.75 184.25 184.25 0 0 1 18.45 26.34 176.48 176.48 0 0 1 13.61 29.41c3.5 10.27 6.61 20.8 7.92 31.7a117 117 0 0 1 .17 32.77 5.13 5.13 0 0 1 -10.2-.54z" fill="#ccced0"/><path d="m3824.6 3032.88a102 102 0 0 0 -11-34c-5.61-10.61-12.95-20.36-20.46-30.67v-.06a5.18 5.18 0 0 1 7.13-7.31 84.19 84.19 0 0 1 26.93 31c6.4 12.47 9.71 27.13 7.69 41.09a5.16 5.16 0 0 1 -10.21 0z" fill="#ccced0"/><path d="m3820.56 2923.48a28 28 0 0 1 -20.63-7.39 29.41 29.41 0 0 1 -.79-42.06 30.48 30.48 0 0 1 21.42-9.09 29.64 29.64 0 0 1 20.76 51.27 27.81 27.81 0 0 1 -20.76 7.27 5.13 5.13 0 0 1 -.09-10.22h.09c9.44-1 16.39-9.48 15.7-17.8a16 16 0 0 0 -15.7-15.33 15.46 15.46 0 0 0 -11 4.34 16.93 16.93 0 0 0 -5 11c-.59 8.44 6.47 17 16 17.8a5.13 5.13 0 0 1 0 10.22z" fill="#ccced0"/><path d="m3730.36 3027.83 168.36-1.14 168.36-.48 336.71-.79c112.24-.32 224.47.45 336.71.63l168.36.47 168.35 1.31a5.11 5.11 0 0 1 0 10.22l-168.35 1.31-168.36.47c-112.24.17-224.48.95-336.71.63l-336.71-.79-168.36-.48-168.36-1.14a5.11 5.11 0 0 1 0-10.22z" fill="#969ca1"/><path d="m4014.5 2145.9c12.64-13.6 26.86-24.83 41.65-35.44s30.11-20.34 45.77-29.54a714.36 714.36 0 0 1 97.6-48.26c67.44-27 139.64-43.33 212.59-45s146 10.88 214.28 35.8a614.46 614.46 0 0 1 186.88 109.05 2.56 2.56 0 0 1 -3.08 4.08c-59.88-39.47-122.5-73.89-189.12-98.43-66.75-23.89-137.75-35.78-208.51-33.58a620.11 620.11 0 0 0 -207 43.23 698.55 698.55 0 0 0 -95.68 46.6c-30.82 17.66-59.53 38.87-88.47 59l-.2.14a5.13 5.13 0 0 1 -6.69-7.7z" fill="#ccced0"/><path d="m4826.45 2091c4.87 4.57 4.84 10.33 6.58 15.66l4.26 16.22c2.76 10.83 5.87 21.58 8.3 32.49v.13a8.6 8.6 0 0 1 -6.53 10.26 9 9 0 0 1 -1.84.2c-11.06 0-22.13-.3-33.19-.67a144.59 144.59 0 0 1 -16.6-1 63.65 63.65 0 0 1 -16.59-4.3 2.79 2.79 0 0 1 0-5.11 63.69 63.69 0 0 1 16.59-4.3 144.8 144.8 0 0 1 16.6-1c11.06-.38 22.13-.71 33.19-.67l-8.34 10.59c-2.83-10.81-5-21.8-7.48-32.69l-3.63-16.37c-.89-5.54-3.55-10.64-1.3-16.93a6.11 6.11 0 0 1 7.81-3.7 6.26 6.26 0 0 1 2.17 1.19z" fill="#ccced0"/></g></svg>