<svg width="42" height="42" viewBox="0 0 23 23" xmlns="http://www.w3.org/2000/svg">
<title>Logo / monday.com</title>
<g fill="none" fill-rule="evenodd">
	<g transform="translate(0 5.552)" fill-rule="nonzero">
		<path d="M2.62 12.627a2.63 2.63 0 0 1-2.292-1.33A2.543 2.543 0 0 1 .4 8.679l4.72-7.412A2.632 2.632 0 0 1 7.45.001a2.627 2.627 0 0 1 2.255 1.39c.44.832.385 1.833-.142 2.614l-4.717 7.412a2.631 2.631 0 0 1-2.226 1.21z" fill="#F62B54"></path>
		<path d="M10.716 12.627c-.952 0-1.828-.509-2.288-1.327A2.535 2.535 0 0 1 8.5 8.689l4.711-7.395A2.628 2.628 0 0 1 15.543.001c.96.021 1.83.558 2.27 1.398.437.84.373 1.847-.17 2.626l-4.71 7.395a2.627 2.627 0 0 1-2.217 1.207z" fill="#FC0"></path>
		<ellipse fill="#00CA72" cx="18.631" cy="10.31" rx="2.43" ry="2.379"></ellipse>
	</g>
</g>
</svg>
