<svg width="400px" height="250px" viewBox="0 0 400 250" version="1.1" xmlns="http://www.w3.org/2000/svg" xmlns:xlink="http://www.w3.org/1999/xlink"><g id="Page-1" stroke="none" stroke-width="1" fill="none" fill-rule="evenodd"><g id="type-blog" transform="translate(87.000000, 35.000000)" fill-rule="nonzero"><path d="M9.77938272,27.4114129 L8.68503429,27.4114129 C8.32076818,36.8528807 8.33626886,46.2927984 8.32076818,55.7342661 L8.2603155,90.3875995 L8.4478738,125.039383 C8.50832647,136.590494 8.52382716,148.135405 9.24305898,159.691166 L9.70807956,159.691166 C10.3854595,148.138505 10.3591084,136.595144 10.3777092,125.037833 L10.4397119,90.3829492 L10.2475034,55.7296159 C10.1963512,46.2896982 10.1777503,36.8497805 9.77938272,27.4114129 L9.77938272,27.4114129 Z M189.998107,117.118532 L189.957805,92.9622634 C189.886502,82.060631 189.889602,71.1605487 189.759396,60.2558162 C189.653992,49.3557339 189.522236,38.4541015 189.285075,27.549369 L188.820055,27.549369 C188.582894,38.4494513 188.451139,49.3510837 188.345734,60.2558162 C188.215528,71.1574486 188.217078,82.0575309 188.147325,92.9622634 L188.111674,117.237888 C188.741001,117.307641 189.367229,117.07048 189.998107,117.118532 L189.998107,117.118532 Z M132.560421,157.314911 L108.949671,157.356763 L70.9125377,157.442016 C58.2329767,157.535021 45.5549657,157.606324 32.8754047,158.136447 L32.8754047,158.601468 C45.5549657,159.131591 58.2329767,159.202894 70.9125377,159.295898 L108.949671,159.381152 L132.510713,159.423004 C132.546365,158.990535 132.561866,157.587723 132.560421,157.314911 L132.560421,157.314911 Z" id="Shape" fill="#c3c4c7"/><path d="M8.85554184,27.5571193 L8.85554184,10.7636763 C8.85554184,4.90381386 13.6058989,0.15345679 19.4657613,0.15345679 L178.443896,0.15345679 C184.303758,0.15345679 189.054115,4.90381386 189.054115,10.7636763 L189.054115,27.5571193 L8.85554184,27.5571193 Z" id="Path" fill="#c3c4c7"/><path d="M197.909657,27.7880796 C181.585885,28.4856104 165.260562,28.4809602 148.93679,28.521262 L99.9639232,28.6452675 L50.9910562,28.521262 C34.667284,28.4809602 16.3268724,28.4871605 0.00310013717,27.7880796 L0.00310013717,27.323059 C16.3268724,26.6239781 34.667284,26.6301783 50.9910562,26.5898765 L99.9639232,26.4658711 L148.93679,26.5898765 C165.260562,26.6301783 181.585885,26.6239781 197.909657,27.323059 L197.909657,27.7880796 Z" id="Path" fill="#004e6e"/><circle id="Oval" fill="#FFFFFF" cx="30.6495062" cy="14.4373388" r="2.65371742"/><circle id="Oval" fill="#dcdcde" cx="44.5551715" cy="14.4373388" r="2.65371742"/><circle id="Oval" fill="#dcdcde" cx="58.4592867" cy="14.4373388" r="2.65371742"/><path d="M58.0624691,179.152277 C72.027037,178.645405 85.9900549,178.53225 99.9546228,178.411344 L141.846776,178.295089 C169.774362,178.405144 197.701948,178.343141 225.631084,178.967819 C225.834402,178.967819 225.999225,179.132641 225.999225,179.33596 C225.999225,179.539279 225.834402,179.704102 225.631084,179.704102 C197.703498,180.324129 169.775912,180.266776 141.846776,180.376831 L99.9546228,180.260576 C85.9900549,180.133471 72.027037,180.026516 58.0624691,179.519643 C57.967541,179.510914 57.8949025,179.431289 57.8949025,179.33596 C57.8949025,179.240632 57.967541,179.161007 58.0624691,179.152277 Z" id="Path" fill="#f6f7f7"/><g id="Group" transform="translate(46.037037, 51.307270)" fill="#c3c4c7"><path d="M77.3530727,110.639246 L77.3530727,110.7462 L77.5080796,118.625199 C77.5437311,121.229314 77.6026337,123.817929 77.5902332,126.409643 L77.1252126,125.944623 L170.758656,125.944623 L170.293635,126.409643 L170.293635,110.529191 L170.758656,110.994211 L124.118642,110.95856 L100.754458,110.857805 L77.3530727,110.639246 Z M76.9190535,110.422236 L77.0291084,110.422236 L100.325089,110.206776 L123.777627,110.106022 L170.771056,110.07037 C171.02788,110.07037 171.236077,110.278567 171.236077,110.535391 L171.236077,126.415844 C171.236077,126.672667 171.02788,126.880864 170.771056,126.880864 L77.1391632,126.880864 C76.8823395,126.880864 76.6741427,126.672667 76.6741427,126.415844 C76.6632922,123.712524 76.7221948,121.009204 76.7562963,118.319835 L76.9190535,110.422236 Z" id="Shape"/><path d="M87.0270508,94.6208368 L87.0270508,94.7277915 C87.1479561,100.049177 87.2859122,105.209355 87.2704115,110.383484 L86.8053909,109.918464 L167.084993,109.918464 L166.619973,110.383484 L166.619973,94.5107819 L167.084993,94.9758025 L127.121125,94.9401509 L107.092689,94.8347462 L87.0270508,94.6208368 Z M86.5945816,94.4038272 L86.7030864,94.4038272 L106.66332,94.1914678 L126.77546,94.0860631 L167.091193,94.0504115 C167.348017,94.0504115 167.556214,94.2586083 167.556214,94.5154321 L167.556214,110.395885 C167.556214,110.652709 167.348017,110.860905 167.091193,110.860905 L86.8131413,110.860905 C86.5563175,110.860905 86.3481207,110.652709 86.3481207,110.395885 C86.3372702,105.023347 86.4736763,99.6353086 86.5945816,94.4038272 L86.5945816,94.4038272 Z M100.368491,111.479383 C100.740508,112.645034 100.709506,113.804486 100.743608,114.974787 C100.777709,116.145089 100.78546,117.29989 100.79631,118.470192 C100.80716,119.640494 100.779259,120.795295 100.743608,121.965597 C100.707956,123.135898 100.743608,124.2907 100.368491,125.461001 C100.358593,125.492103 100.336542,125.517881 100.30735,125.532477 C100.278157,125.547073 100.244304,125.549247 100.213484,125.538505 C100.176885,125.52632 100.148166,125.497601 100.135981,125.461001 C99.7624143,124.29535 99.7949657,123.135898 99.7608642,121.965597 C99.7267627,120.795295 99.7190123,119.640494 99.7081619,118.470192 C99.6973114,117.29989 99.7252126,116.145089 99.7608642,114.974787 C99.7965158,113.804486 99.7608642,112.649684 100.135981,111.479383 C100.152434,111.430006 100.19864,111.396698 100.250686,111.396698 C100.302732,111.396698 100.348938,111.430006 100.365391,111.479383 L100.368491,111.479383 Z" id="Shape"/><path d="M145.077119,94.0814129 L141.321303,94.1217147 C140.701276,94.1217147 140.068848,94.1356653 139.44417,94.1573663 L138.504829,94.1837174 L138.08631,94.1837174 L138.08631,93.7279973 L138.129712,93.7279973 L138.594733,93.7155967 L138.594733,94.1992181 C137.143868,94.2472702 135.696104,93.7186968 134.530453,92.8677092 C133.364801,92.0167215 132.42546,90.8944719 131.631824,89.72107 C130.081756,87.3355144 129.069561,84.681797 128.230974,82.0172291 C127.415642,79.3441557 126.761372,76.6245859 126.271687,73.8731687 C125.772565,71.1264472 125.380398,68.3735254 125.130837,65.5787517 C125.118831,65.4439643 125.16122,65.3099723 125.248564,65.2066148 C125.335908,65.1032574 125.460955,65.039117 125.595857,65.0284774 L125.64856,65.0284774 L142.37845,65.0067764 L159.10834,65.0455281 C159.23866,65.0459386 159.36348,65.098102 159.455339,65.1905429 C159.547199,65.2829838 159.598574,65.4081298 159.598162,65.5384499 C159.600063,65.5647668 159.600063,65.5911865 159.598162,65.6175034 C159.142442,68.387476 158.565816,71.1109465 157.893086,73.8328669 C157.236128,76.5514685 156.432008,79.2323848 155.48428,81.8637723 C154.515487,84.4880384 153.348285,87.0658025 151.764115,89.3940055 C150.98485,90.5721353 150.041124,91.6327828 148.961591,92.5437449 C147.878093,93.4381344 146.515583,94.0891632 145.077119,94.0814129 L145.077119,94.0814129 Z M145.077119,93.8520027 C146.44738,93.8287517 147.727737,93.1854733 148.755432,92.3019342 C149.783128,91.4183951 150.600014,90.2775446 151.317695,89.1103429 C152.022875,87.9286743 152.638928,86.6960502 153.160727,85.4227298 C153.708418,84.1599406 154.203923,82.8739003 154.647243,81.5646091 C155.554033,78.9573937 156.319767,76.2943759 156.972346,73.6065569 C157.624925,70.918738 158.186049,68.1968176 158.620069,65.4764472 L159.10989,66.0468724 L142.38,66.0856241 L125.65011,66.0639232 L126.161632,65.5120988 C126.394143,68.2464198 126.770809,70.9946914 127.24668,73.7073114 C127.718588,76.4208361 128.352669,79.1036456 129.145514,81.7413169 C129.9407,84.3764335 130.969945,86.9340466 132.371207,89.2544993 C133.06832,90.4024819 133.946088,91.4304696 134.970672,92.298834 C135.989549,93.1622732 137.266661,93.662321 138.600933,93.7202469 L138.613333,93.7202469 C138.746882,93.7232432 138.852715,93.8339345 138.849719,93.9674829 C138.846723,94.1010312 138.736031,94.2068646 138.602483,94.2038683 L138.137462,94.1914678 L138.09406,94.1914678 L138.09406,93.7357476 L138.512579,93.7357476 L139.45192,93.7620988 C140.071948,93.7837997 140.704376,93.7931001 141.329053,93.7977503 L145.077119,93.8520027 Z M159.207545,74.6203018 C160.126735,75.5503429 160.511152,76.7903978 160.757613,78.0304527 C161.018229,79.3070252 160.958584,80.6282749 160.584005,81.8761728 C160.184893,83.1338861 159.41627,84.2422577 158.378258,85.0569136 L158.010892,85.3669273 C157.880686,85.4599314 157.74118,85.5374348 157.606324,85.6226886 C157.336612,85.7931962 157.05915,85.9513032 156.783237,86.1078601 C156.202499,86.3584238 155.59024,86.528438 154.963457,86.6131824 C154.912547,86.6201425 154.862999,86.593303 154.841018,86.5468588 C154.819037,86.5004147 154.829694,86.4450813 154.867353,86.4101235 L154.881303,86.3977229 C155.344259,86.0093452 155.838907,85.6603953 156.360069,85.3545267 C156.808038,84.9840604 157.355213,84.7422497 157.734979,84.3097805 C158.589467,83.5754249 159.218298,82.6139048 159.54856,81.5367078 C159.900425,80.4811111 159.942277,79.3216598 159.79037,78.1792593 C159.638464,77.0368587 159.236996,75.9347599 159.015336,74.7195062 L159.015336,74.7102058 C159.006394,74.6590424 159.031565,74.6079696 159.077588,74.583896 C159.123611,74.5598225 159.179919,74.5682753 159.216845,74.6048011 L159.207545,74.6203018 Z" id="Shape"/><path d="M0.940891632,0.604526749 L14.713251,0.398367627 L28.4856104,0.272812071 C37.6682167,0.172057613 46.849273,0.201508916 56.0318793,0.158106996 C65.2144856,0.114705075 74.3955418,0.195308642 83.5781481,0.226310014 C92.7607545,0.313113855 101.941811,0.39526749 111.124417,0.604526749 C111.61782,0.624784105 112.007387,1.03067391 112.007387,1.52449246 C112.007387,2.018311 111.61782,2.42420081 111.124417,2.44445816 C101.941811,2.65371742 92.7607545,2.73587106 83.5781481,2.8226749 C74.3955418,2.8521262 65.2144856,2.91877915 56.0318793,2.89087791 C46.849273,2.86297668 37.6682167,2.8769273 28.4856104,2.77617284 L14.713251,2.65061728 L0.940891632,2.44445816 C0.447488757,2.42420081 0.057921391,2.018311 0.057921391,1.52449246 C0.057921391,1.03067391 0.447488757,0.624784105 0.940891632,0.604526749 L0.940891632,0.604526749 Z M13.7878601,22.5658985 C20.9801783,22.4666941 28.1740466,22.3814403 35.3663649,22.3442387 L56.9417695,22.2682853 L78.5202743,22.3132373 L89.3103018,22.4062414 L100.100329,22.5612483 C100.403497,22.6071113 100.627614,22.8676832 100.627614,23.1743004 C100.627614,23.4809176 100.403497,23.7414895 100.100329,23.7873525 L89.3103018,23.9423594 L78.5202743,24.0353635 L56.9417695,24.0896159 L35.3632647,24.0136626 C28.1709465,23.978011 20.9770782,23.8912071 13.7847599,23.7920027 C13.4815922,23.7461397 13.2574747,23.4855678 13.2574747,23.1789506 C13.2574747,22.8723334 13.4815922,22.6117615 13.7847599,22.5658985 L13.7878601,22.5658985 Z M13.7971605,33.1745679 C20.9879287,33.0753635 28.1802469,32.9901097 35.3710151,32.9529081 L56.9417695,32.8769547 L78.5156241,32.9219067 L89.3025514,33.0149108 L100.089479,33.1699177 C100.392646,33.2157807 100.616764,33.4763526 100.616764,33.7829698 C100.616764,34.089587 100.392646,34.3501589 100.089479,34.3960219 L89.3025514,34.5510288 L78.5156241,34.6440329 L56.9417695,34.6982853 L35.3710151,34.6192318 C28.1802469,34.5835802 20.9879287,34.4967764 13.7971605,34.397572 C13.4939927,34.351709 13.2698752,34.0911371 13.2698752,33.7845199 C13.2698752,33.4779027 13.4939927,33.2173308 13.7971605,33.1714678 L13.7971605,33.1745679 Z M2.76532236,43.7832373 C11.7949886,43.6798994 20.8246548,43.6060128 29.854321,43.5615775 L56.9417695,43.4871742 L84.0307682,43.5321262 L97.5752675,43.6251303 L111.119767,43.7801372 C111.422935,43.8260002 111.647052,44.0865721 111.647052,44.3931893 C111.647052,44.6998065 111.422935,44.9603784 111.119767,45.0062414 L97.5752675,45.1612483 L84.0307682,45.2542524 L56.9417695,45.3147051 L29.8527709,45.2387517 C20.8231047,45.2025834 11.7934385,45.1286968 2.76377229,45.0170919 C2.46060453,44.9712289 2.23648703,44.710657 2.23648703,44.4040398 C2.23648703,44.0974226 2.46060453,43.8368507 2.76377229,43.7909877 L2.76532236,43.7832373 Z M8.8477915,54.3934568 C16.8637128,54.2901189 24.8796342,54.2162323 32.8955556,54.171797 L56.9417695,54.0958436 L80.9895336,54.1407956 L93.0134156,54.2337997 L105.037298,54.3888066 C105.340465,54.4346696 105.564583,54.6952415 105.564583,55.0018587 C105.564583,55.3084759 105.340465,55.5690478 105.037298,55.6149108 L93.0134156,55.7699177 L80.9895336,55.8629218 L56.9417695,55.9171742 L32.8940055,55.8412209 C24.8780841,55.8050526 16.8621628,55.731166 8.84624143,55.619561 C8.54307367,55.573698 8.31895616,55.3131261 8.31895616,55.0065089 C8.31895616,54.6998917 8.54307367,54.4393198 8.84624143,54.3934568 L8.8477915,54.3934568 Z M6.58159122,65.0005761 C14.9757293,64.8972382 23.3693507,64.8233516 31.7624554,64.7789163 L56.9417695,64.704513 L82.1226337,64.749465 L94.7138409,64.8424691 L107.305048,64.997476 C107.608216,65.043339 107.832333,65.3039109 107.832333,65.6105281 C107.832333,65.9171453 107.608216,66.1777172 107.305048,66.2235802 L94.7138409,66.3785871 L82.1226337,66.4715912 L56.9417695,66.5258436 L31.7609053,66.4498903 C23.3667673,66.413722 14.9731459,66.3398354 6.58004115,66.2282305 C6.27687339,66.1823674 6.05275589,65.9217955 6.05275589,65.6151783 C6.05275589,65.3085611 6.27687339,65.0479892 6.58004115,65.0021262 L6.58159122,65.0005761 Z M1.66322359,75.6107956 C10.8768313,75.5074577 20.090439,75.4335711 29.3040466,75.3891358 L56.9417695,75.3147325 L84.5825926,75.3596845 L98.4030041,75.4526886 L112.223416,75.6076955 C112.526583,75.6535585 112.750701,75.9141304 112.750701,76.2207476 C112.750701,76.5273648 112.526583,76.7879367 112.223416,76.8337997 L98.4030041,76.9888066 L84.5825926,77.0818107 L56.9417695,77.1360631 L29.3009465,77.0601097 C20.0873388,77.0239415 10.8737311,76.9500549 1.66012346,76.8384499 C1.3569557,76.7925869 1.13283819,76.532015 1.13283819,76.2253978 C1.13283819,75.9187806 1.3569557,75.6582087 1.66012346,75.6123457 L1.66322359,75.6107956 Z M32.114321,86.2210151 C36.2530041,86.1218107 40.3901372,86.0365569 44.5288203,85.9993553 C48.6675034,85.9327023 52.8061866,85.9513032 56.9433196,85.9234019 C61.0804527,85.8955007 65.2206859,85.948203 69.3578189,85.9683539 C73.4965021,86.0257064 77.6351852,86.0815089 81.7723182,86.2210151 C82.075486,86.2668781 82.2996035,86.52745 82.2996035,86.8340672 C82.2996035,87.1406844 82.075486,87.4012563 81.7723182,87.4471193 C77.6336351,87.5866255 73.4965021,87.642428 69.3578189,87.6997805 C65.2191358,87.7199314 61.0804527,87.7633333 56.9433196,87.7447325 C52.8061866,87.7261317 48.6659534,87.7354321 44.5288203,87.6687791 C40.3901372,87.6331276 36.251454,87.5463237 32.114321,87.4471193 C31.8111532,87.4012563 31.5870357,87.1406844 31.5870357,86.8340672 C31.5870357,86.52745 31.8111532,86.2668781 32.114321,86.2210151 L32.114321,86.2210151 Z" id="Shape"/></g></g></g></svg>
