<svg color="#fa4f00" fill="currentColor" style="width: auto;height: 1.2rem;" version="1.1" id="Layer_1" xmlns="http://www.w3.org/2000/svg" xmlns:xlink="http://www.w3.org/1999/xlink" x="0px" y="0px" viewBox="0 0 124.4 28.9" xml:space="preserve">
	<path d="M15.4,0C5.6,0,0,8,0,16.9c0,7.7,4.7,12,11.8,12c10.7,0,15.5-7.9,15.5-17C27.3,4.3,22.6,0,15.4,0z M12.6,21.3
		c-1.9,0-3.8-1.5-3.8-4.8c0-4.2,2.2-8.8,6-8.8c1.5,0,3.9,0.8,3.9,4.8C18.7,17.1,16.2,21.3,12.6,21.3z"></path>
	<path d="M30.8,17.4l2.4-16.9h8.4l-2.1,14.9c-0.5,3.8-0.1,5.9,1.7,5.9c1.6,0,4.6-2.1,5.5-8.9l1.5-11.9h8.3l-1.9,15.2
		c-0.5,4.1,0,5.5,1.6,5.5c1.8,0,4.9-2.4,6-11c0.5-3.3,0.5-6.1,0-9.8h8.6c0.6,3.6,0.6,7.6,0,11.5C69,24.6,62,28.8,54.7,28.8
		c-4.5,0-6.8-2.1-7.6-5.1H47c-2,3.3-5.6,5.1-8.8,5.1C32.3,28.9,29.9,24.2,30.8,17.4z"></path>
	<path d="M85.5,0.5L85,4.4l0.1,0.1c2.6-3,5.7-4.5,9.3-4.5c5.3,0,7.5,3.5,6.4,11.4l-2.2,17.1h-8.5l2-15.1c0.5-3.9,0.2-5.6-1.7-5.6
		c-2.6,0-6.2,3.5-7.1,10.4L82,28.5h-8.6l3.6-28H85.5z"></path>
	<path d="M116.8,0.5l-0.5,3.8h0.1c2.2-2.9,4.9-4.3,8-4.3l-1.2,9.5c-4.1-1.5-7.5,1.6-8.6,8.2l-1.3,10.7h-8.6l3.4-27.9
		C108.1,0.5,116.8,0.5,116.8,0.5z"></path>
</svg>
