<svg height="92" viewBox="0 0 117 92" width="117" xmlns="http://www.w3.org/2000/svg" xmlns:xlink="http://www.w3.org/1999/xlink"><mask id="a" fill="#fff"><path d="m0 91.0185h116.28v-91.018h-116.28z" fill="#fff" fill-rule="evenodd"/></mask><g fill="none" fill-rule="evenodd"><path d="m4.9276 16.4294v-5.61-3.735c0-3.261 2.643-5.904 5.904-5.904h87.348c3.261 0 5.904 2.643 5.904 5.904v9.345z" fill="#187aa2"/><path d="m104.0834 85.1271v-14.567c0 8.045-6.521 14.567-14.566 14.567h-84.59" fill="#c3c4c7"/><path d="m4.927 52.1365h99.156v-35.708h-99.156z" fill="#dcdcde" mask="url(#a)"/><path d="m16.533 85.1275h30.186v-23.597h-30.186z" fill="#c3c4c7" mask="url(#a)"/><path d="m77.1664 38.6891h-60.633v-6.81h54.449c3.415 0 6.184 2.768 6.184 6.184z" fill="#fff" mask="url(#a)"/><path d="m55.863 85.1275h36.85v-23.597h-36.85z" fill="#c3c4c7" mask="url(#a)"/><path d="m14.2142 84.8771c7.489-.069 14.978-.055 22.467-.228l22.468-.397c7.489-.066 14.978-.15 22.467-.138l22.467-.033-1.046 1.046-.097-65.495-.013-8.186-.005-4.093c-.002-.654-.051-1.13-.216-1.676-.167-.521-.423-1.012-.755-1.447-.663-.869-1.629-1.518-2.697-1.748-.545-.124-1.028-.131-1.768-.125l-2.047.003-8.186-.01-32.747-.049-32.748-.049-8.187-.012-2.046-.003c-.735-.007-1.239 0-1.796.128-1.096.237-2.085.901-2.765 1.792-.695.91-1.029 1.974-.995 3.196l-.005 4.092.005 8.186.005 16.374-.124 16.373-.267 16.374c-.092 5.458-.182 10.916-.183 16.374l-.313-.312zm0 .5-9.127.062-.311.002-.001-.314c-.026-5.458-.139-10.915-.254-16.373l-.338-16.373-.194-16.373-.066-16.374-.03-8.187-.007-4.094c-.007-.707.067-1.581.308-2.331.242-.767.616-1.491 1.101-2.131.965-1.277 2.381-2.227 3.957-2.578.773-.191 1.645-.196 2.273-.189l2.046-.004 8.187-.012 32.748-.049 32.747-.049 8.186-.01 2.047.003c.622-.007 1.514-.001 2.3.192 1.603.358 3.043 1.324 4.026 2.623.493.651.874 1.388 1.119 2.168.245.761.322 1.657.314 2.367l-.006 4.093-.012 8.186-.097 65.495-.002 1.047-1.045-.001-22.467-.034c-7.489.012-14.978-.071-22.467-.138l-22.468-.397c-7.489-.173-14.978-.158-22.467-.227z" fill="#187aa2" mask="url(#a)"/><path d="m109.0111 16.4294h-109.011" fill="#e6f1f5" mask="url(#a)"/><path d="m109.0111 16.6794c-9.084.808-18.168.749-27.253.796l-27.252.135-27.253-.135c-9.085-.047-18.169.014-27.253-.796v-.5c9.084-.81 18.168-.749 27.253-.796l27.253-.135 27.252.135c9.085.047 18.169-.012 27.253.796z" fill="#004e6e" mask="url(#a)"/><path d="m111.8915 90.1681h-27.012c-1.933 0-3.5-1.567-3.5-3.5v-20.878c0-1.934 1.567-3.5 3.5-3.5h27.012c1.933 0 3.5 1.566 3.5 3.5v20.878c0 1.933-1.567 3.5-3.5 3.5" fill="#fff" mask="url(#a)"/><path d="m111.8915 89.4548c.979-.004 1.935-.553 2.405-1.413.243-.424.358-.902.36-1.398l-.007-1.84-.031-7.36-.073-7.361-.036-3.68c-.001-.679-.002-1.065-.18-1.505-.155-.428-.44-.801-.787-1.091-.357-.278-.775-.481-1.221-.54-.372-.061-1.093-.018-1.681-.022l-3.68.037-7.361.042-14.72.019c-.86-.003-1.709.469-2.134 1.229-.219.376-.324.794-.331 1.242l-.006 1.84-.038 7.361-.061 7.36-.03 3.68c-.011.68-.022 1.064.147 1.511.146.434.424.819.771 1.124.356.291.779.511 1.238.583.392.074 1.104.041 1.695.057l3.68.03 7.36.048zm0 1.427-14.721.047-7.36.048-3.68.031c-.635-.015-1.156.059-1.98-.05-.757-.112-1.472-.454-2.067-.932-.585-.491-1.056-1.128-1.319-1.853-.296-.705-.289-1.578-.285-2.118l-.03-3.68-.061-7.36-.038-7.361-.006-1.84c-.001-.776.196-1.589.594-2.276.772-1.399 2.342-2.303 3.941-2.3l14.72.018 7.361.043 3.68.036c.636.026 1.15-.038 1.993.084.77.126 1.491.485 2.085.976.585.505 1.049 1.153 1.302 1.885.287.712.268 1.583.252 2.123l-.036 3.68-.073 7.361-.03 7.36-.008 1.84c-.004.729-.192 1.483-.566 2.121-.726 1.3-2.189 2.127-3.668 2.117z" fill="#8e9196" mask="url(#a)"/><path d="m102.8642 81.988-2.256-4.744c-.221-.463-.137-1.017.222-1.384.75-.769 1.141-1.887.891-3.094-.267-1.292-1.307-2.339-2.599-2.61-2.206-.461-4.149 1.21-4.149 3.335 0 .92.368 1.75.961 2.362.36.37.451.925.228 1.391l-2.256 4.744c-.086.182.046.391.247.391h8.464c.201 0 .333-.209.247-.391" fill="#8e9196" mask="url(#a)"/><path d="m107.6059 62.2902h-4.479v-6.418c0-2.237-1.82-4.056-4.056-4.056h-1.371c-2.237 0-4.057 1.819-4.057 4.056v6.418h-4.478-.687v-6.896c0-5.066 4.106-9.172 9.171-9.172h1.473c5.065 0 9.171 4.106 9.171 9.172v6.896" fill="#fff" mask="url(#a)"/><path d="m107.6059 62.9538-4.479.066c-.397.006-.724-.311-.729-.709l-.001-.021-.113-6.671c-.072-.89-.54-1.734-1.252-2.267-.353-.269-.759-.462-1.186-.565-.213-.054-.432-.081-.653-.085-.213-.013-.542 0-.808-.001-.265.006-.595-.002-.807.014-.22.01-.437.041-.647.1-.421.11-.818.31-1.158.581-.689.539-1.125 1.371-1.176 2.232l.008 6.662c0 .531-.432.961-.962.961l-5.165.015c-.538.001-.975-.433-.976-.971v-.005l-.015-5.509-.004-1.377c.028-.505.025-1.017.124-1.517.141-1.008.452-1.993.903-2.903.876-1.837 2.342-3.372 4.1-4.379.886-.491 1.834-.884 2.83-1.091.966-.213 2.074-.264 2.946-.239.872-.021 1.979.042 2.939.267.99.218 1.929.621 2.803 1.119 1.736 1.022 3.167 2.561 4.008 4.384.436.902.73 1.876.846 2.868.089.494.075.996.097 1.491l-.024 1.377-.098 5.509c-.006.367-.309.659-.675.652-.359-.006-.646-.297-.653-.652l-.097-5.509-.024-1.377c-.038-.42-.035-.841-.128-1.252-.129-.826-.391-1.629-.767-2.371-.726-1.5-1.942-2.748-3.382-3.557-.727-.392-1.499-.71-2.31-.87-.835-.162-1.572-.203-2.535-.184-.964-.015-1.7.038-2.53.212-.806.171-1.568.499-2.283.898-1.417.824-2.598 2.075-3.291 3.561-.36.735-.605 1.527-.71 2.339-.081.402-.068.814-.1 1.224l-.004 1.377-.015 5.509-.975-.975 5.165.014-.961.961.009-3.368.005-1.684.002-.842c.001-.28-.005-.543.023-.915.107-1.383.832-2.696 1.928-3.525.544-.418 1.177-.723 1.844-.885.332-.085.675-.13 1.016-.138.349-.015.58 0 .876-.002.296.006.528-.004.875.016.341.013.681.062 1.011.151.661.17 1.283.481 1.816.902 1.072.835 1.765 2.137 1.85 3.49.021.361.01.626.006.906l-.012.842-.025 1.684-.05 3.368-.729-.73 4.479.066c.367.006.66.307.654.674-.005.36-.297.649-.654.654" fill="#8e9196" mask="url(#a)"/></g></svg>
