<svg xmlns="http://www.w3.org/2000/svg" width="128" height="128" viewBox="0 0 35 35" aria-label="Intuit QuickBooks" data-di-res-id="540de40c-40c4880c" data-di-rand="1607959782836">
	<g fill="none" fill-rule="nonzero">
		<g transform="translate(.08 .085)">
			<ellipse cx="13.883" cy="13.67" fill="#2CA01C" rx="13.769" ry="13.602"></ellipse>
			<path fill="#FFF" d="M3.937 13.67c0 2.921 2.397 5.29 5.355 5.29h.765v-1.966h-.765c-1.856 0-3.366-1.491-3.366-3.324 0-1.834 1.51-3.325 3.366-3.325h1.838v10.277c0 1.085.89 1.964 1.989 1.964V8.38H9.292c-2.958 0-5.355 2.368-5.355 5.29zm14.537-5.29h-.765v1.966h.765c1.856 0 3.366 1.491 3.366 3.324 0 1.834-1.51 3.325-3.366 3.325h-1.838V6.718c0-1.085-.89-1.964-1.99-1.964V18.96h3.828c2.957 0 5.355-2.368 5.355-5.29 0-2.92-2.398-5.29-5.355-5.29z"></path>
		</g>
	</g>
</svg>
