<svg height="130" viewBox="0 0 243 130" width="243" xmlns="http://www.w3.org/2000/svg" xmlns:xlink="http://www.w3.org/1999/xlink"><defs><path id="a" d="m1 2.994c0-1.654 1.346-2.994 2.993-2.994h235.917c1.652 0 2.992 1.353 2.992 2.994v29.454h-241.902z"/><mask id="b" fill="#fff" height="32.448" width="241.902" x="0" y="0"><use xlink:href="#a"/></mask><path id="c" d="m218.324 11.33c-.604-1.538-2.444-2.79-4.104-2.79h-148.067c-1.665 0-3.5 1.25-4.104 2.79l-8.065 18.67h-53v96.044c0 1.648 1.345 2.992 3.004 2.992h235.893c1.664 0 3.004-1.34 3.004-2.993l.1-96.043h-17l-7.66-18.67z"/><mask id="d" fill="#fff" height="120.496" width="242" x="0" y="0"><use xlink:href="#c"/></mask></defs><g fill="none" fill-rule="evenodd"><use fill="#f6f7f7" mask="url(#b)" stroke="#c3c4c7" stroke-width="2" xlink:href="#a"/><use fill="#fff" mask="url(#d)" stroke="#c3c4c7" stroke-width="2" xlink:href="#c"/><path d="m70 14h14v14h-14" fill="#a7aaad"/><path d="m92.967 25.37v-5.918h.064l2.445 5.865h.816l2.445-5.865h.065v5.92h.902v-7.75h-1.124l-2.654 6.412h-.086l-2.653-6.413h-1.123v7.75h.903zm9.152 2.096c1.025 0 1.487-.398 1.98-1.74l2.262-6.145h-.983l-1.585 4.765h-.086l-1.59-4.764h-1l2.143 5.796-.107.344c-.242.698-.532.95-1.064.95-.13 0-.274-.005-.387-.026v.79c.13.02.29.032.414.032zm11.853-2.095c1.65 0 2.626-.81 2.626-2.174 0-1.026-.672-1.75-1.73-1.886v-.085c.747-.135 1.337-.865 1.337-1.67 0-1.188-.87-1.934-2.293-1.934h-2.965v7.75h3.023zm-2.057-6.895h1.794c.96 0 1.52.456 1.52 1.246 0 .822-.596 1.24-1.767 1.24h-1.547v-2.485zm0 6.042v-2.723h1.82c1.236 0 1.87.456 1.87 1.353s-.613 1.37-1.778 1.37zm6.263.854h.922v-8.088h-.923v8.09zm5.16-.73c-1.096 0-1.713-.794-1.713-2.164 0-1.375.617-2.165 1.713-2.165s1.714.79 1.714 2.166c0 1.37-.618 2.165-1.714 2.165zm0 .833c1.65 0 2.67-1.14 2.67-2.997 0-1.864-1.02-2.997-2.67-2.997s-2.67 1.132-2.67 2.996c0 1.858 1.02 2.997 2.67 2.997zm8.245-3.083c0 1.262-.645 2.08-1.72 2.08-1.073 0-1.675-.818-1.675-2.08s.602-2.08 1.676-2.08c1.07 0 1.72.818 1.72 2.08zm-1.676 5.205c1.578 0 2.577-.828 2.577-2.122v-5.895h-.88v.92h-.087c-.333-.624-1.047-1.02-1.858-1.02-1.488 0-2.428 1.175-2.428 2.91s.93 2.895 2.428 2.895c.795 0 1.45-.36 1.815-1h.086v1.14c0 .854-.617 1.364-1.654 1.364-.834 0-1.35-.307-1.45-.78h-.98c.14.956 1.033 1.585 2.43 1.585zm12.18-4.904v-.875h-5.5v.876h5.5zm5.19 2.68v-7.75h-.968v7.75h.967zm5.145 0h.923v-8.088h-.923v8.09zm5.16-.73c-1.094 0-1.712-.794-1.712-2.164 0-1.375.618-2.165 1.713-2.165 1.096 0 1.714.79 1.714 2.166 0 1.37-.618 2.165-1.714 2.165zm0 .833c1.65 0 2.67-1.14 2.67-2.997 0-1.864-1.02-2.997-2.67-2.997-1.648 0-2.668 1.132-2.668 2.996 0 1.858 1.02 2.997 2.67 2.997zm3.466-5.892 2.144 5.79h.945l2.142-5.79h-.988l-1.585 4.77h-.087l-1.584-4.77h-.99zm8.627.715c.918 0 1.53.677 1.552 1.703h-3.192c.07-1.026.715-1.703 1.64-1.703zm1.525 3.577c-.242.51-.747.785-1.493.785-.984 0-1.623-.725-1.672-1.87v-.042h4.163v-.355c0-1.8-.95-2.91-2.513-2.91-1.59 0-2.61 1.18-2.61 3 0 1.833 1.004 2.993 2.61 2.993 1.268 0 2.16-.607 2.44-1.6h-.925zm8.56 1.6c1.468 0 2.43-1.186 2.43-2.996 0-1.82-.957-2.997-2.43-2.997-.793 0-1.497.39-1.814 1.014h-.086v-3.212h-.924v8.09h.88v-.925h.087c.365.645 1.053 1.026 1.858 1.026zm-.213-5.16c1.057 0 1.685.81 1.685 2.164 0 1.353-.628 2.165-1.686 2.165-1.054 0-1.71-.827-1.71-2.164s.656-2.165 1.71-2.165zm4.21 5.06h.923v-8.09h-.923zm5.16-.73c-1.094 0-1.712-.796-1.712-2.166 0-1.375.618-2.165 1.713-2.165 1.097 0 1.715.79 1.715 2.166 0 1.37-.618 2.165-1.714 2.165zm0 .83c1.65 0 2.67-1.138 2.67-2.996 0-1.864-1.02-2.997-2.67-2.997-1.648 0-2.668 1.132-2.668 2.996 0 1.858 1.02 2.997 2.67 2.997zm8.246-3.082c0 1.262-.645 2.08-1.72 2.08-1.073 0-1.675-.818-1.675-2.08s.603-2.08 1.677-2.08c1.07 0 1.72.818 1.72 2.08zm-1.676 5.205c1.58 0 2.578-.828 2.578-2.122v-5.897h-.88v.92h-.087c-.332-.624-1.046-1.02-1.857-1.02-1.488 0-2.428 1.175-2.428 2.91s.93 2.895 2.428 2.895c.795 0 1.45-.36 1.815-1h.086v1.14c0 .854-.617 1.364-1.654 1.364-.832 0-1.348-.307-1.45-.78h-.978c.14.956 1.032 1.585 2.428 1.585zm4.25-6.43c0 .838.493 1.306 1.578 1.57l.993.24c.62.15.92.42.92.817 0 .532-.56.902-1.338.902-.74 0-1.203-.31-1.358-.8h-.95c.1.96.987 1.58 2.276 1.58 1.316 0 2.32-.715 2.32-1.752 0-.832-.526-1.305-1.616-1.568l-.892-.215c-.682-.168-1.004-.415-1.004-.812 0-.516.537-.865 1.224-.865.7 0 1.15.306 1.273.768h.913c-.123-.95-.966-1.55-2.18-1.55-1.23 0-2.16.724-2.16 1.685zm6.256-3.55.09 5.178h.893l.09-5.178h-1.074zm-.204 7.106c0 .436.31.748.746.748.435 0 .742-.312.742-.747 0-.44-.307-.75-.742-.75s-.746.31-.746.75z" fill="#3c434a"/><path d="m20 80h155v12h-155zm0 17h133v12h-133z" fill="#f6f7f7"/><path d="m30.464 58.37h-1.43l-3.403 8.23h-.054l-3.404-8.23h-1.43v9.864h1.15v-7.602h.047l3.144 7.534h1.04l3.143-7.534h.048v7.602h1.15v-9.864zm2.87 12.537c1.306 0 1.894-.513 2.523-2.222l2.885-7.82h-1.25l-2.065 6.16h-.027l-2.065-6.16h-1.265l2.728 7.376-.144.438c-.3.89-.67 1.217-1.353 1.217-.157 0-.348-.014-.485-.04v1.004c.144.026.37.047.52.047zm14.69-2.673c2.1 0 3.344-1.032 3.344-2.77 0-1.31-.86-2.254-2.2-2.425v-.056c.95-.17 1.7-1.128 1.7-2.153 0-1.476-1.14-2.46-2.83-2.46h-3.86v9.864h3.847zm-2.617-8.777h2.352c1.195 0 1.865.54 1.865 1.517 0 1.067-.793 1.648-2.25 1.648h-1.968v-3.165zm0 7.69v-3.467h2.317c1.573 0 2.38.582 2.38 1.724s-.78 1.743-2.263 1.743h-2.433zm7.752 1.087h1.19l-.002-10.295h-1.19v10.294zm6.384.068c2.07 0 3.397-1.47 3.397-3.753 0-2.29-1.325-3.753-3.396-3.753-2.07 0-3.398 1.462-3.398 3.752 0 2.283 1.327 3.752 3.398 3.752zm0-1.06c-1.367 0-2.188-1.004-2.188-2.693 0-1.69.814-2.694 2.188-2.694s2.187.998 2.187 2.693c0 1.688-.812 2.693-2.186 2.693zm8.107-.068c-1.284 0-2.125-1.045-2.125-2.652 0-1.613.84-2.666 2.126-2.666 1.293 0 2.168 1.08 2.168 2.666 0 1.58-.875 2.652-2.167 2.652zm.022 3.692c2.07 0 3.336-1.073 3.336-2.837v-7.165h-1.135v1.196h-.02c-.493-.805-1.36-1.264-2.4-1.264-1.894 0-3.145 1.477-3.145 3.726 0 2.23 1.25 3.712 3.118 3.712 1.032 0 1.9-.465 2.365-1.265h.028v1.155c0 1.046-.806 1.71-2.078 1.71-.97 0-1.702-.384-1.88-1h-1.237c.17 1.224 1.38 2.03 3.05 2.03zm15.45-6.077v-1.11h-7v1.11zm6.493 3.444v-9.863h-1.23v9.864h1.23zm6.14 0h1.188v-10.293h-1.19v10.294zm6.384.068c2.07 0 3.396-1.47 3.396-3.753 0-2.29-1.326-3.753-3.397-3.753-2.073 0-3.4 1.462-3.4 3.752 0 2.283 1.327 3.752 3.4 3.752zm0-1.06c-1.37 0-2.19-1.004-2.19-2.693 0-1.69.815-2.694 2.19-2.694 1.373 0 2.186.998 2.186 2.693 0 1.688-.813 2.693-2.187 2.693zm10.93-6.377h-1.238l-2.07 6.084h-.03l-2.063-6.085h-1.245l2.72 7.37h1.204l2.72-7.37zm4.19.977c1.162 0 1.955.834 1.982 2.085h-4.054c.082-1.244.916-2.085 2.072-2.085zm1.955 4.287c-.212.69-.93 1.126-1.853 1.126-1.312 0-2.174-.91-2.174-2.31v-.068h5.29v-.465c0-2.23-1.23-3.616-3.198-3.616-2.01 0-3.322 1.497-3.322 3.78s1.306 3.725 3.377 3.725c1.572 0 2.85-.91 3.055-2.173h-1.175zm10.446 2.172c1.88 0 3.145-1.497 3.145-3.753 0-2.25-1.265-3.753-3.118-3.753-1.046 0-1.9.458-2.365 1.264h-.027v-4.12h-1.19v10.294h1.128v-1.242h.028c.48.848 1.327 1.312 2.4 1.312zm-.212-6.446c1.292 0 2.14 1.06 2.14 2.693 0 1.64-.848 2.693-2.14 2.693-1.285 0-2.16-1.094-2.16-2.694 0-1.593.875-2.694 2.16-2.694zm5.154 6.378h1.19v-10.292h-1.19v10.294zm6.385.068c2.07 0 3.398-1.47 3.398-3.753 0-2.29-1.327-3.753-3.398-3.753-2.07 0-3.397 1.462-3.397 3.752 0 2.283 1.326 3.752 3.397 3.752zm0-1.06c-1.367 0-2.187-1.004-2.187-2.693 0-1.69.813-2.694 2.187-2.694s2.188.998 2.188 2.693c0 1.688-.814 2.693-2.188 2.693zm8.108-.068c-1.286 0-2.126-1.045-2.126-2.652 0-1.613.84-2.666 2.125-2.666 1.292 0 2.167 1.08 2.167 2.666 0 1.58-.875 2.652-2.167 2.652zm.02 3.692c2.07 0 3.336-1.073 3.336-2.837v-7.165h-1.134v1.196h-.02c-.492-.805-1.36-1.264-2.4-1.264-1.893 0-3.144 1.477-3.144 3.726 0 2.23 1.25 3.712 3.117 3.712 1.03 0 1.9-.465 2.364-1.265h.028v1.155c0 1.046-.807 1.71-2.08 1.71-.97 0-1.7-.384-1.878-1h-1.238c.17 1.224 1.38 2.03 3.05 2.03zm5.305-7.944c0 .985.63 1.634 1.92 1.97l1.293.334c.84.22 1.148.492 1.148 1.012 0 .663-.628 1.08-1.633 1.08s-1.613-.403-1.736-1.155h-1.195c.116 1.278 1.264 2.14 2.85 2.14 1.702 0 2.912-.89 2.912-2.147 0-1.073-.533-1.593-2.023-1.97l-1.12-.28c-.85-.21-1.245-.546-1.245-1.045 0-.642.607-1.072 1.516-1.072.903 0 1.504.43 1.58 1.12h1.14c-.047-1.21-1.182-2.105-2.68-2.105-1.598 0-2.726.875-2.726 2.12zm7.772-4.552.082 6.59h1.067l.083-6.59h-1.23zm.615 9.932c.445 0 .78-.34.78-.78 0-.443-.335-.778-.78-.778-.437 0-.78.335-.78.78 0 .437.343.778.78.778z" fill="#3895ba"/><g fill="#a7aaad"><circle cx="17.5" cy="16.5" r="4.5"/><circle cx="30.308" cy="16.5" r="4.5"/><circle cx="43.117" cy="16.5" r="4.5"/></g></g></svg>
