<svg width="200" height="240" viewBox="0 0 200 240" fill="none" xmlns="http://www.w3.org/2000/svg">
	<g clip-path="url(#clip0)">
		<path d="M143.279 217.598C143.985 217.598 144.557 217.017 144.557 216.299C144.557 215.582 143.985 215 143.279 215C142.572 215 142 215.582 142 216.299C142 217.017 142.572 217.598 143.279 217.598Z" fill="#C9356E"/>
		<circle cx="99" cy="123" r="84" fill="#BEDAE6"/>
		<path d="M22.6843 80.0337L23.5262 78.3227C23.7133 78.0375 23.3391 77.7523 23.0585 77.8474L21.3746 78.798L19.9713 77.4672C19.6907 77.277 19.41 77.4672 19.41 77.7523L19.7842 79.6535L18.1939 80.6041C17.9132 80.7942 18.0068 81.1744 18.2874 81.2695L20.0649 81.4596L20.4391 83.4558C20.5326 83.741 20.9068 83.8361 21.0939 83.5509L21.9359 81.6497L23.9004 81.9349C24.1811 81.9349 24.3682 81.5547 24.1811 81.3646L22.6843 80.0337Z" fill="#8C8F94"/>
		<path d="M175.086 66.1036L175.741 64.8679C175.835 64.6777 175.648 64.3926 175.367 64.5827L174.151 65.2481L173.122 64.2975C172.935 64.1074 172.654 64.2975 172.748 64.4876L173.028 65.9135L171.812 66.5789C171.625 66.674 171.625 67.0542 171.906 67.0542L173.215 67.1493L173.496 68.6702C173.496 68.9554 173.87 68.9554 173.964 68.7653L174.525 67.3394L176.022 67.5295C176.302 67.5295 176.396 67.2443 176.209 67.0542L175.086 66.1036Z" fill="#F0C930"/>
		<path d="M44.6708 206.461C45.4458 206.461 46.0741 205.823 46.0741 205.035C46.0741 204.248 45.4458 203.609 44.6708 203.609C43.8958 203.609 43.2676 204.248 43.2676 205.035C43.2676 205.823 43.8958 206.461 44.6708 206.461Z" fill="#C475BD"/>
		<path d="M15.4032 41.8518C16.1782 41.8518 16.8065 41.2134 16.8065 40.4259C16.8065 39.6384 16.1782 39 15.4032 39C14.6283 39 14 39.6384 14 40.4259C14 41.2134 14.6283 41.8518 15.4032 41.8518Z" fill="#C475BD"/>
		<path d="M18.5663 191.548L19.4082 189.932C19.5018 189.647 19.2211 189.362 18.9405 189.457L17.3501 190.407L15.9469 189.077C15.7598 188.886 15.3856 189.077 15.3856 189.362L15.7598 191.263L14.1695 192.118C13.8888 192.309 13.9824 192.689 14.263 192.689L16.0404 192.879L16.4146 194.875C16.5082 195.16 16.8824 195.255 17.0695 194.97L17.8179 193.164L19.7824 193.449C20.0631 193.449 20.2502 193.069 20.0631 192.879L18.5663 191.548Z" fill="#0A4B78"/>
		<path d="M178.658 203.716L180.155 200.579C180.436 200.009 179.874 199.438 179.313 199.818L176.32 201.53L173.7 199.153C173.232 198.773 172.578 199.153 172.671 199.723L173.326 203.241L170.332 204.952C169.771 205.237 169.958 205.997 170.613 206.092L173.887 206.378L174.542 210.085C174.636 210.655 175.478 210.75 175.665 210.18L177.161 206.758L180.81 207.233C181.371 207.328 181.745 206.568 181.278 206.187L178.658 203.716Z" fill="#0A4B78"/>
		<path d="M21.692 127.355C20.8793 126.994 19.6604 126.994 19.2541 127.355L13.972 129.526C13.1594 129.887 12.7531 129.526 13.1594 128.802L15.5973 124.1C16.0036 123.376 16.0036 122.291 15.5973 121.93L13.1594 116.865C12.7531 116.142 13.1594 115.78 13.972 116.142L19.2541 118.312C20.0667 118.674 21.2856 118.674 21.692 118.312L26.974 116.142C27.7866 115.78 28.193 116.142 27.7866 116.865L25.3488 121.568C24.5362 122.291 24.5361 123.376 24.9425 124.1L27.3803 128.802C27.7867 129.526 27.3803 129.887 26.5677 129.526L21.692 127.355Z" fill="#D48FC8"/>
		<path d="M152.688 99.6553V159.492C152.688 164.739 148.435 168.992 143.188 168.992H54.6582C49.4115 168.992 45.1582 164.739 45.1582 159.492V99.9203C45.1582 96.9067 46.5881 94.0717 49.0117 92.2805L95.4009 57.9945C98.8777 55.4248 103.651 55.5267 107.015 58.2425L149.156 92.2635C151.39 94.067 152.688 96.7841 152.688 99.6553Z" fill="#B8E6BF" stroke="#043959"/>
		<rect x="56.3613" y="70.5156" width="85.1238" height="74.9164" rx="7.5" fill="white" stroke="#043959"/>
		<path d="M99.32 138.087L45.3584 98.8125V161.799C45.3584 164.146 45.7085 168.839 53.6907 168.839H144.949C150.037 168.839 152.497 166.221 152.488 162.911V98.8125L99.32 138.087Z" fill="white" stroke="#043959"/>
		<path d="M83.1688 125.645L47.459 167.529" stroke="#043959"/>
		<path d="M115.378 126.299L150.738 167.202" stroke="#043959"/>
		<line x1="71.2656" y1="88.4941" x2="111.177" y2="88.4941" stroke="#043959"/>
		<line x1="117.479" y1="88.4941" x2="125.881" y2="88.4941" stroke="#043959"/>
		<path d="M71.2656 95.2109H92.6215" stroke="#043959"/>
		<path d="M96.4727 95.2109H125.881" stroke="#043959"/>
		<path d="M71.2656 101.756H99.9735" stroke="#043959"/>
		<path d="M155.598 167.688C156.905 167.479 158.336 166.512 158.46 165.753L162.546 158.943C163.148 157.862 163.978 157.976 164.206 159.171L165.928 166.777C166.156 167.972 167.214 169.281 168.044 169.395L175.491 173.132C176.673 173.682 176.549 174.44 175.242 174.649L166.924 176.224C165.617 176.433 164.186 177.4 164.061 178.159L159.975 184.969C159.374 186.05 158.544 185.936 158.316 184.741L156.594 177.135C156.365 175.94 155.307 174.631 154.478 174.517L147.031 170.78C145.848 170.23 145.973 169.471 147.28 169.263L155.598 167.688Z" fill="#F0C930"/>
		<path d="M61.1932 32.1739C62.168 33.069 63.8149 33.5907 64.487 33.2173L72.3627 32.1941C73.5838 31.9946 74.0096 32.7158 73.2143 33.6365L68.3192 39.7079C67.5239 40.6286 67.1543 42.2705 67.5801 42.9917L69.2727 51.1498C69.5753 52.4183 68.9031 52.7917 67.9284 51.8966L61.5308 46.3523C60.556 45.4572 58.9091 44.9355 58.237 45.3089L50.3613 46.3321C49.1401 46.5316 48.7144 45.8104 49.5097 44.8897L54.4048 38.8183C55.2001 37.8976 55.5696 36.2557 55.1438 35.5345L53.4513 27.3764C53.1487 26.1079 53.8208 25.7345 54.7956 26.6296L61.1932 32.1739Z" fill="#FF8085"/>
	</g>
	<defs>
		<clipPath id="clip0">
			<rect width="200" height="240" fill="white"/>
		</clipPath>
	</defs>
</svg>
