<svg width="194" height="124" viewBox="0 0 194 124" fill="none" xmlns="http://www.w3.org/2000/svg">
<path d="M7.64049 123.176H0" stroke="#2C3338"/>
<path d="M150.139 122.782H176.417" stroke="#2C3338"/>
<path d="M180.088 122.782H187.117" stroke="#2C3338"/>
<path d="M190.333 122.782L194 122.782" stroke="#2C3338"/>
<rect x="84.571" y="103.855" width="30.5567" height="13.4533" fill="#2D3338"/>
<path d="M24.5378 22.3752C24.5378 17.1285 28.7911 12.8752 34.0378 12.8752H157.477C162.724 12.8752 166.977 17.1285 166.977 22.3752V123.07H24.5378V22.3752Z" fill="#FACFD2" stroke="#2C3338"/>
<circle cx="166.019" cy="18.0321" r="19.0321" fill="white" stroke="white" stroke-width="2"/>
<circle cx="166.019" cy="18.0321" r="17.0321" fill="white" stroke="#D63638" stroke-width="2"/>
<line x1="166.018" y1="9.0144" x2="166.018" y2="22.0411" stroke="#D63638" stroke-width="2" stroke-linecap="round"/>
<line x1="166.018" y1="26.0447" x2="166.018" y2="27.05" stroke="#D63638" stroke-width="2" stroke-linecap="round"/>
<path d="M24.0378 43.92L166.689 43.9201" stroke="#2C3338"/>
<path d="M40.6817 29.4389C40.6817 31.2275 39.2326 32.677 37.4458 32.677C35.659 32.677 34.21 31.2275 34.21 29.4389C34.21 27.6502 35.659 26.2007 37.4458 26.2007C39.2326 26.2007 40.6817 27.6502 40.6817 29.4389Z" fill="white" stroke="#2C3338"/>
<path d="M52.3006 29.4385C52.3006 31.2272 50.8515 32.6767 49.0647 32.6767C47.2779 32.6767 45.8289 31.2272 45.8289 29.4385C45.8289 27.6498 47.2779 26.2003 49.0647 26.2003C50.8515 26.2003 52.3006 27.6498 52.3006 29.4385Z" fill="white" stroke="#2C3338"/>
<path d="M63.9212 29.4385C63.9212 31.2272 62.4721 32.6767 60.6853 32.6767C58.8985 32.6767 57.4495 31.2272 57.4495 29.4385C57.4495 27.6498 58.8985 26.2003 60.6853 26.2003C62.4721 26.2003 63.9212 27.6498 63.9212 29.4385Z" fill="white" stroke="#2C3338"/>
<path d="M43.1184 123.176H11.0339" stroke="#2C3338"/>
<path d="M24.8262 44.7085H166.689V122.782H24.8262V44.7085Z" fill="white"/>
<path d="M167.084 60.4811C180.482 71.5217 201.998 96.0477 180.876 105.827C154.474 118.05 136.347 77.042 110.732 77.4363" stroke="#2C3338"/>
<path d="M24.4327 67.5782C14.1871 73.23 -6.36563 90.7999 7.09392 105.038C20.886 119.627 42.1654 96.7571 76.8431 86.8994" stroke="#2C3338"/>
<path d="M76.6701 86.6585C74.9045 80.936 80.5111 77.9826 83.5351 77.2213L88.5765 88.2607C85.4171 89.6708 78.4358 92.3811 76.6701 86.6585Z" stroke="#2C3338"/>
<path d="M111.013 77.1387C111.13 83.1266 104.926 84.4155 101.81 84.3114L100.012 72.308C103.437 71.826 110.895 71.1507 111.013 77.1387Z" stroke="#2C3338"/>
<path d="M94.5747 76.2531L100.849 75.4643" stroke="#2C3338"/>
<line y1="-0.5" x2="6.15811" y2="-0.5" transform="matrix(-0.768026 -0.640419 0.63995 -0.768416 78.8137 70.7334)" stroke="#2C3338"/>
<line y1="-0.5" x2="7.27196" y2="-0.5" transform="matrix(-0.216802 -0.976215 0.976159 -0.217059 89.0596 65.2133)" stroke="#2C3338"/>
<line y1="-0.5" x2="3.25212" y2="-0.5" transform="matrix(-0.242394 -0.970178 0.970107 -0.242677 86.6956 55.7496)" stroke="#2C3338"/>
<path d="M98.6907 65.1174L100.649 56.5379" stroke="#2C3338"/>
<line y1="-0.5" x2="7.76754" y2="-0.5" transform="matrix(-0.405928 0.913905 -0.913718 -0.406349 85.9065 98.335)" stroke="#2C3338"/>
<line y1="-0.5" x2="5.74222" y2="-0.5" transform="matrix(0.274564 0.961569 -0.961479 0.274879 97.729 96.7577)" stroke="#2C3338"/>
<line y1="-0.5" x2="2.49426" y2="-0.5" transform="matrix(0.316051 0.948742 -0.948624 0.316404 100.093 104.644)" stroke="#2C3338"/>
<line y1="-0.5" x2="8.98814" y2="-0.5" transform="matrix(0.789168 0.614178 -0.613703 0.789537 107.187 91.2372)" stroke="#2C3338"/>
<path d="M95.7583 82.1677L101.216 81.379" stroke="#2C3338"/>
</svg>
