<svg width="158" height="100" viewBox="0 0 158 100" fill="none" xmlns="http://www.w3.org/2000/svg">
<g clip-path="url(#clip0_1341_8650)">
<path d="M152.277 29.685C152.091 29.8132 151.946 29.9127 151.844 30.2209L151.907 30.4105C152.206 30.5103 152.388 30.4524 152.575 30.3925C152.625 30.3766 152.675 30.3605 152.729 30.3472C152.855 30.284 152.966 30.2366 153.076 30.1892C153.187 30.1418 153.297 30.0944 153.424 30.0312C153.676 29.9049 153.929 29.7784 154.119 29.652C154.166 29.6165 154.211 29.5854 154.254 29.5559C154.441 29.4277 154.585 29.3282 154.688 29.02L154.625 28.8305C154.325 28.7306 154.144 28.7885 153.956 28.8484C153.906 28.8643 153.856 28.8804 153.803 28.8936C153.677 28.9568 153.566 29.0042 153.455 29.0516C153.345 29.099 153.234 29.1464 153.108 29.2096C152.855 29.336 152.602 29.4625 152.413 29.5889C152.365 29.6244 152.32 29.6554 152.277 29.685Z" fill="#F2D76B"/>
<path d="M12.0849 88.6941L12.6537 87.6197C12.7169 87.4301 12.5273 87.2405 12.3377 87.3037L11.2633 87.9357L10.3153 87.0509C10.1889 86.9245 9.93608 87.0509 9.93608 87.2405L10.1889 88.5045L9.11448 89.0733C8.92488 89.1997 8.98808 89.4525 9.17768 89.4525L10.3785 89.5789L10.6313 90.9061C10.6945 91.0957 10.9473 91.1589 11.0737 90.9693L11.5793 89.7685L12.9065 89.9581C13.0961 89.9581 13.2225 89.7053 13.0961 89.5789L12.0849 88.6941Z" fill="#004E6E"/>
<path d="M44.3001 17.2532L44.7425 16.4316C44.8057 16.3052 44.6793 16.1156 44.4897 16.242L43.6681 16.6844L42.9729 16.0524C42.8465 15.926 42.6569 16.0524 42.7201 16.1788L42.9097 17.1268L42.0881 17.5692C41.9617 17.6324 41.9617 17.8852 42.1513 17.8852L43.0361 17.9484L43.2257 18.9596C43.2257 19.1492 43.4785 19.1492 43.5417 19.0228L43.9209 18.0748L44.9321 18.2012C45.1217 18.2012 45.1849 18.0116 45.0585 17.8852L44.3001 17.2532Z" fill="#F0C930"/>
<path d="M148.019 68.2138L148.588 67.0762C148.714 66.8866 148.462 66.697 148.272 66.7602L147.134 67.3922L146.186 66.5074C145.997 66.381 145.807 66.5074 145.807 66.697L146.06 67.961L144.986 68.593C144.796 68.7194 144.859 68.9722 145.049 69.0354L146.25 69.1618L146.502 70.489C146.566 70.6786 146.818 70.7418 146.945 70.5522L147.514 69.2882L148.841 69.4778C149.03 69.4778 149.157 69.225 149.03 69.0986L148.019 68.2138Z" fill="#8C8F94"/>
<path d="M151.053 49.0366C151.577 49.0366 152.001 48.6122 152.001 48.0886C152.001 47.5651 151.577 47.1406 151.053 47.1406C150.53 47.1406 150.105 47.5651 150.105 48.0886C150.105 48.6122 150.53 49.0366 151.053 49.0366Z" fill="#D48FC8"/>
<path d="M37.8116 54.2753C37.6361 55.4048 37.459 56.5452 37.6846 57.7863C37.6846 57.7863 37.6846 57.8495 37.7478 57.9127C37.8742 57.9759 37.9374 57.9127 38.0006 57.8495C38.6735 56.7841 38.8986 55.6192 39.1174 54.4873C39.1452 54.3434 39.1729 54.2 39.2014 54.0574C39.3278 53.4254 39.4542 52.7776 39.5806 52.1299C39.707 51.4821 39.8334 50.8343 39.9598 50.2023C40.1836 49.0834 40.3578 47.9151 40.5264 46.7848C40.5483 46.6382 40.57 46.4922 40.5918 46.347C40.6122 46.2113 40.6333 46.0756 40.6544 45.9397C40.8299 44.8101 41.0071 43.6697 40.7814 42.4286C40.7814 42.3655 40.7814 42.3022 40.7182 42.3022C40.5918 42.2391 40.5286 42.3022 40.4654 42.3655C39.7925 43.4308 39.5674 44.5957 39.3486 45.7276C39.3208 45.8715 39.2931 46.0149 39.2646 46.1575C39.1382 46.7895 39.0118 47.4373 38.8854 48.0851C38.759 48.7329 38.6326 49.3807 38.5062 50.0127C38.2825 51.1314 38.1082 52.2997 37.9397 53.4298C37.9178 53.5765 37.896 53.7226 37.8742 53.8679C37.8538 54.0036 37.8327 54.1394 37.8116 54.2753Z" fill="#3895BA"/>
<path d="M39.3525 34.3921C39.2328 35.1334 39.1123 35.8797 39.4542 36.6774C39.4542 36.7407 39.5174 36.7407 39.5174 36.7407C39.5806 36.8039 39.707 36.8039 39.7702 36.7407C40.3464 36.0492 40.5024 35.3577 40.6691 34.6184C40.6852 34.5468 40.7015 34.4748 40.7182 34.4022C40.813 33.9914 40.892 33.5964 40.971 33.2014C41.05 32.8064 41.129 32.4114 41.2238 32.0006C41.3502 31.2422 41.4766 30.4206 41.603 29.599C41.6155 29.5182 41.6285 29.4373 41.6416 29.3564C41.7612 28.6151 41.8817 27.8688 41.5398 27.071L41.4766 27.0078C41.4134 26.9446 41.287 26.9446 41.2238 27.0078C40.6476 27.6993 40.4917 28.3908 40.3249 29.1301C40.3088 29.2017 40.2925 29.2737 40.2758 29.3463C40.181 29.7571 40.102 30.1521 40.023 30.5471C39.944 30.942 39.865 31.337 39.7702 31.7478C39.6438 32.5062 39.5174 33.3278 39.391 34.1493C39.3786 34.2302 39.3655 34.3112 39.3525 34.3921Z" fill="#3895BA"/>
<path d="M46.2445 37.5817C46.0179 38.3433 45.7984 39.0814 45.9638 39.9639C45.9638 39.9955 45.9638 40.0113 45.9717 40.0191C45.9796 40.0271 45.9954 40.0271 46.027 40.0271C46.0902 40.0902 46.2166 40.0902 46.2798 40.0271C46.939 39.4228 47.2163 38.6752 47.485 37.9504C47.5254 37.8414 47.5657 37.7329 47.607 37.6255C47.8479 37.1034 48.0378 36.5559 48.2253 36.0153C48.333 35.705 48.4398 35.397 48.555 35.0975C48.6814 34.6551 48.8078 34.2285 48.9342 33.8018C49.0606 33.3752 49.187 32.9486 49.3134 32.5062C49.3456 32.3936 49.3788 32.282 49.4119 32.1708C49.6385 31.4092 49.8581 30.6711 49.6926 29.7886L49.6294 29.7254C49.5662 29.6622 49.4398 29.6622 49.3766 29.7254C48.7174 30.3297 48.4402 31.0773 48.1714 31.8021C48.131 31.9111 48.0907 32.0196 48.0494 32.127C47.8085 32.6491 47.6186 33.1966 47.4311 33.7372C47.3235 34.0475 47.2166 34.3555 47.1014 34.655C46.975 35.0975 46.8486 35.524 46.7222 35.9506C46.5958 36.3773 46.4694 36.8038 46.343 37.2463C46.3108 37.3589 46.2776 37.4705 46.2445 37.5817Z" fill="#3895BA"/>
<path d="M54.9793 42.0747C54.6853 42.5948 54.3806 43.1336 54.4958 43.8823C54.559 44.0087 54.6854 44.0718 54.7486 44.0718C55.4356 43.7856 55.7596 43.2919 56.0964 42.7786C56.1314 42.7253 56.1665 42.6718 56.2022 42.6183C56.5814 42.0495 56.9606 41.4806 57.2766 40.9118C57.4346 40.6274 57.5926 40.3272 57.7506 40.027C57.9086 39.7268 58.0666 39.4266 58.2246 39.1423C58.2527 39.0917 58.2812 39.0412 58.3099 38.9905C58.604 38.4704 58.9086 37.9317 58.7934 37.183V37.1199C58.7302 36.9935 58.667 36.9302 58.5406 36.9935C57.8536 37.2797 57.5296 37.7734 57.1928 38.2866C57.1578 38.34 57.1227 38.3935 57.087 38.447C56.7079 39.0158 56.3286 39.5847 56.0126 40.1535C55.8546 40.4379 55.6966 40.7381 55.5386 41.0383C55.3806 41.3385 55.2226 41.6387 55.0646 41.923C55.0366 41.9736 55.008 42.0241 54.9793 42.0747Z" fill="#3895BA"/>
<path d="M46.2218 50.1587C45.8334 50.8588 45.4495 51.5505 45.395 52.4775C45.395 52.4775 45.4582 52.5406 45.395 52.6039C45.4582 52.667 45.5846 52.7303 45.6478 52.667C46.4682 52.1748 46.9099 51.4933 47.3416 50.8273C47.4088 50.7236 47.4757 50.6204 47.5438 50.5182C47.9878 49.877 48.3547 49.2743 48.7348 48.6499C48.8417 48.4743 48.9496 48.297 49.0606 48.1167C49.5662 47.2951 50.0086 46.4734 50.451 45.6519C50.5117 45.5391 50.5736 45.4275 50.6354 45.3162C51.0239 44.6161 51.4077 43.9244 51.4622 42.9975V42.871C51.399 42.8078 51.2726 42.7447 51.2094 42.8078C50.3891 43.3001 49.9473 43.9816 49.5156 44.6476C49.4484 44.7513 49.3815 44.8545 49.3134 44.9566C48.8695 45.5979 48.5025 46.2007 48.1224 46.8251C48.0155 47.0006 47.9076 47.1779 47.7966 47.3582C47.291 48.1799 46.8486 49.0014 46.4062 49.8231C46.3455 49.9358 46.2836 50.0474 46.2218 50.1587Z" fill="#3895BA"/>
<path d="M42.1567 59.4669C41.6728 59.9732 41.1762 60.4928 40.971 61.2622V61.3255C40.971 61.3887 41.0342 61.4519 41.1606 61.4519C42.1086 61.1991 42.7406 60.6303 43.3726 60.0615C44.0678 59.4927 44.6998 58.9239 45.3318 58.355C45.5449 58.142 45.7579 57.9361 45.9685 57.7326C46.3827 57.3324 46.7876 56.9412 47.1646 56.5222C47.2718 56.4032 47.3834 56.2864 47.4957 56.1688C47.9796 55.6625 48.4762 55.1429 48.6814 54.3735V54.3103C48.6814 54.2471 48.6182 54.1838 48.4918 54.1838C47.5438 54.4366 46.9118 55.0054 46.2798 55.5742C45.5847 56.143 44.9527 56.7118 44.3207 57.2805C44.1077 57.4936 43.8945 57.6996 43.6839 57.9031C43.2697 58.3033 42.8649 58.6945 42.4878 59.1135C42.3807 59.2325 42.269 59.3493 42.1567 59.4669Z" fill="#3895BA"/>
<path d="M59.2816 58.7811C58.8101 59.0178 58.3291 59.2593 57.9718 59.8719C57.9718 59.9983 58.035 60.1247 58.0982 60.1879C58.9198 60.3775 59.5518 60.1247 60.1838 59.8719L62.0798 59.1135C62.3958 58.9555 62.696 58.8133 62.9962 58.6711C63.2964 58.5289 63.5966 58.3867 63.9126 58.2287C64.022 58.1679 64.1338 58.1118 64.2461 58.0554C64.7175 57.8187 65.1985 57.5772 65.5558 56.9647V56.9015C65.619 56.7751 65.5558 56.6487 65.4294 56.6487C64.6078 56.4591 63.9758 56.7119 63.3438 56.9647L61.4478 57.723C61.1318 57.8811 60.8316 58.0233 60.5314 58.1655C60.2312 58.3077 59.931 58.4499 59.615 58.6079C59.5056 58.6686 59.3939 58.7247 59.2816 58.7811Z" fill="#3895BA"/>
<path d="M62.3498 65.5515C61.5225 65.5327 60.6952 65.5139 59.8678 65.8759C59.8678 65.8759 59.8046 65.8758 59.8046 65.939C59.7414 66.0655 59.8046 66.1287 59.8678 66.1918C60.645 66.6582 61.4648 66.7422 62.2921 66.827C62.4739 66.8456 62.6561 66.8643 62.8382 66.887C63.8494 67.0135 64.8606 67.0767 65.8718 67.1399C66.8829 67.203 67.8943 67.2663 68.9054 67.2663C69.0893 67.2663 69.2731 67.2704 69.457 67.2746C70.2843 67.2934 71.1117 67.3122 71.939 66.9502C71.939 66.9502 72.0022 66.9502 72.0022 66.887C72.0654 66.8239 72.0022 66.6974 71.939 66.6342C71.1618 66.1679 70.3421 66.0839 69.5147 65.9991C69.3329 65.9805 69.1508 65.9618 68.9686 65.939C67.9574 65.8127 66.9462 65.7495 65.935 65.6862C64.9238 65.623 63.9126 65.5599 62.9014 65.5599C62.7176 65.5599 62.5337 65.5557 62.3498 65.5515Z" fill="#3895BA"/>
<path d="M43.2545 64.0862C42.5138 64.0236 41.7681 63.9605 40.971 64.359C40.971 64.359 40.971 64.4222 40.9078 64.4222C40.8446 64.4855 40.9078 64.6118 40.971 64.675C41.7013 65.1806 42.4316 65.2868 43.1619 65.3929C43.2532 65.4061 43.3445 65.4194 43.4358 65.4335C43.8517 65.4929 44.2536 65.5383 44.6481 65.5829C45.093 65.6332 45.5284 65.6825 45.9638 65.7495C46.228 65.7698 46.4987 65.7966 46.7717 65.8237C47.3478 65.8809 47.9344 65.939 48.4918 65.939C48.5733 65.9453 48.6547 65.9522 48.7363 65.9591C49.477 66.0217 50.2227 66.0848 51.0198 65.6862L51.083 65.623C51.1462 65.5599 51.083 65.4334 51.0198 65.3702C50.2895 64.8646 49.5592 64.7585 48.8289 64.6524C48.7376 64.6392 48.6463 64.6259 48.555 64.6119C48.1391 64.5524 47.7371 64.507 47.3426 64.4624C46.8978 64.4121 46.4624 64.3628 46.027 64.2959C45.7628 64.2755 45.4921 64.2487 45.2191 64.2216C44.643 64.1644 44.0564 64.1062 43.499 64.1062C43.4175 64.1 43.336 64.0931 43.2545 64.0862Z" fill="#3895BA"/>
<path d="M51.6885 56.4763C50.9714 56.9055 50.2462 57.3395 49.7558 58.1022C49.7242 58.1339 49.7084 58.1497 49.7084 58.1655C49.7084 58.1813 49.7242 58.1971 49.7558 58.2287C49.7558 58.3551 49.819 58.4183 49.9454 58.4183C50.8049 58.4183 51.5027 58.0947 52.2004 57.7711C52.3748 57.6902 52.5493 57.6093 52.7262 57.5335C53.5478 57.1543 54.4326 56.7119 55.2542 56.2695C56.0758 55.8271 56.8974 55.3847 57.719 54.8791C57.8323 54.8093 57.9468 54.7408 58.0615 54.6721C58.7786 54.243 59.5039 53.809 59.9942 53.0463V52.9198C59.9942 52.7934 59.931 52.7303 59.8046 52.7303C58.9451 52.7303 58.2474 53.0538 57.5496 53.3774C57.3752 53.4583 57.2008 53.5392 57.0238 53.6151C56.2022 53.9943 55.3174 54.4366 54.4958 54.8791C53.6742 55.3214 52.8526 55.7639 52.031 56.2695C51.9177 56.3392 51.8032 56.4077 51.6885 56.4763Z" fill="#3895BA"/>
<path d="M42.0889 67.3346C41.3889 66.9462 40.6972 66.5624 39.7702 66.5079H39.6438C39.5806 66.5711 39.5174 66.6974 39.5806 66.7607C40.0728 67.581 40.7543 68.0227 41.4204 68.4545C41.524 68.5216 41.6273 68.5886 41.7294 68.6566C42.1086 68.9094 42.5036 69.1622 42.8986 69.4151C43.2936 69.6679 43.6886 69.9207 44.0678 70.1735C44.2872 70.3014 44.5118 70.4346 44.7402 70.5701C45.3015 70.903 45.8854 71.2494 46.4694 71.5639C46.5822 71.6246 46.6937 71.6865 46.8051 71.7483C47.5051 72.1367 48.1969 72.5205 49.1238 72.5751H49.2502C49.3134 72.5118 49.3766 72.3854 49.3134 72.3223C48.8212 71.5019 48.1397 71.0602 47.4736 70.6284C47.37 70.5613 47.2667 70.4943 47.1646 70.4262C46.7854 70.1734 46.3904 69.9206 45.9954 69.6678C45.6004 69.4151 45.2054 69.1623 44.8262 68.9095C44.6069 68.7815 44.3824 68.6483 44.154 68.5129C43.5927 68.18 43.0086 67.8335 42.4246 67.5191C42.3119 67.4583 42.2003 67.3964 42.0889 67.3346Z" fill="#3895BA"/>
<path d="M61.0433 71.5852C60.3899 71.4039 59.682 71.2075 58.9198 71.5006C58.7934 71.6271 58.7934 71.7534 58.8566 71.8167C59.3179 72.3804 59.9039 72.5701 60.4797 72.7566C60.614 72.8 60.7476 72.8433 60.879 72.8911C61.0716 72.9553 61.2602 73.0195 61.4457 73.0826C61.9906 73.2682 62.5092 73.4448 63.0278 73.5863C63.723 73.7758 64.4814 73.9654 65.1766 74.0919C65.2268 74.1056 65.2774 74.1196 65.3283 74.1337C65.9817 74.315 66.6896 74.5114 67.4518 74.2182C67.4518 74.155 67.515 74.1551 67.515 74.1551C67.5782 74.0919 67.5782 73.9654 67.515 73.9022C67.0537 73.3384 66.4677 73.1487 65.8919 72.9623C65.7577 72.9189 65.624 72.8756 65.4926 72.8279C65.2999 72.7636 65.1114 72.6994 64.9258 72.6362C64.381 72.4507 63.8624 72.2741 63.3438 72.1327C62.6486 71.943 61.8902 71.7534 61.195 71.627C61.1448 71.6133 61.0942 71.5993 61.0433 71.5852Z" fill="#3895BA"/>
<path d="M57.4038 75.0386C56.3597 74.4654 55.3058 73.8868 54.0534 73.5863C54.0534 73.5863 53.9902 73.5863 53.927 73.6495C53.8638 73.7127 53.8638 73.8391 53.927 73.9022C54.8441 74.9273 55.9455 75.6299 57.0345 76.3247C57.2212 76.4439 57.4076 76.5628 57.5926 76.6831C58.2562 77.0939 58.9041 77.4889 59.5519 77.8839C60.1997 78.2789 60.8474 78.6739 61.511 79.0846L65.4926 81.3598C65.7678 81.504 66.0403 81.6536 66.3134 81.8035C67.3576 82.3767 68.4114 82.9553 69.6638 83.2559C69.6638 83.2559 69.727 83.2559 69.7902 83.1926C69.8534 83.1294 69.8534 83.0031 69.7902 82.9398C68.8731 81.9148 67.7718 81.2122 66.6828 80.5174C66.496 80.3982 66.3096 80.2793 66.1246 80.159C65.4609 79.7482 64.813 79.3531 64.1651 78.9581C63.5174 78.5631 62.8697 78.1682 62.2062 77.7575L58.2246 75.4822C57.9494 75.3381 57.677 75.1885 57.4038 75.0386Z" fill="#3895BA"/>
<path d="M61.0936 82.3754C60.5588 81.9368 60.0676 81.534 59.2358 81.423H59.1726C59.0462 81.4863 59.0462 81.5494 59.0462 81.6758C59.2513 82.3937 59.706 82.8203 60.174 83.2595C60.2829 83.3616 60.3925 83.4645 60.4998 83.5719C61.0686 84.1406 61.6374 84.6462 62.2062 85.1518C62.403 85.3093 62.5937 85.4668 62.7821 85.6223C63.1986 85.9662 63.6038 86.3008 64.039 86.6055C64.1165 86.6674 64.192 86.7294 64.2668 86.7907C64.8016 87.2293 65.2928 87.6321 66.1246 87.743H66.1878C66.3142 87.6798 66.3142 87.6166 66.3142 87.4902C66.1091 86.7724 65.6545 86.3458 65.1864 85.9066C65.0776 85.8045 64.968 85.7016 64.8606 85.5942C64.2918 85.0255 63.723 84.5199 63.1542 84.0143C62.9574 83.8568 62.7667 83.6994 62.5783 83.5438C62.1618 83.1999 61.7566 82.8653 61.3214 82.5607C61.2439 82.4987 61.1684 82.4367 61.0936 82.3754Z" fill="#3895BA"/>
<path d="M45.0269 74.496C44.6886 74.0776 44.3548 73.6648 43.6886 73.4598C43.499 73.4598 43.4358 73.523 43.4358 73.6495C43.4358 74.4787 43.7689 74.9749 44.1229 75.5022C44.1466 75.5375 44.1704 75.573 44.1942 75.6087L45.3318 77.315C45.4439 77.4645 45.556 77.6195 45.6698 77.7768C45.9408 78.1515 46.221 78.5389 46.5326 78.8951C46.6163 78.9907 46.6954 79.0885 46.7743 79.1861C47.1126 79.6045 47.4464 80.0173 48.1126 80.2222H48.1758C48.239 80.2222 48.3654 80.159 48.3654 80.0327C48.3654 79.2034 48.0323 78.7072 47.6783 78.1799C47.6546 78.1446 47.6308 78.1091 47.607 78.0734L46.4694 76.3671C46.3573 76.2176 46.2452 76.0626 46.1315 75.9053C45.8605 75.5307 45.5802 75.1432 45.2686 74.787C45.1849 74.6914 45.1058 74.5936 45.0269 74.496Z" fill="#3895BA"/>
<path d="M50.4947 86.2441C50.1707 85.5746 49.8386 84.8883 49.1238 84.3935C49.0606 84.3935 49.0606 84.3934 49.0606 84.3302C48.9974 84.3302 48.871 84.3934 48.871 84.5199C48.7607 85.4024 49.0355 86.0924 49.3173 86.7999C49.3584 86.903 49.3996 87.0065 49.4398 87.111C49.5978 87.5218 49.7716 87.9168 49.9454 88.3118C50.1192 88.7068 50.293 89.1018 50.451 89.5126C50.6406 89.8918 50.8302 90.2868 51.0198 90.6819C51.2094 91.0769 51.399 91.4718 51.5886 91.8511C51.6379 91.9496 51.6861 92.0492 51.7345 92.1492C52.0585 92.8187 52.3906 93.505 53.1054 93.9998C53.1054 94.0314 53.1054 94.0472 53.1133 94.0552C53.1212 94.063 53.137 94.063 53.1686 94.063C53.2318 94.063 53.3582 93.9999 53.3582 93.8735C53.4685 92.9909 53.1937 92.3009 52.9119 91.5934C52.8708 91.4903 52.8296 91.3868 52.7894 91.2822C52.6314 90.8714 52.4576 90.4764 52.2838 90.0814C52.11 89.6864 51.9362 89.2914 51.7782 88.8807C51.5886 88.5014 51.399 88.1065 51.2094 87.7115C51.0198 87.3165 50.8302 86.9214 50.6406 86.5423C50.5913 86.4437 50.5431 86.3441 50.4947 86.2441Z" fill="#3895BA"/>
<path d="M41.7926 83.635C41.6662 82.4975 41.5398 81.3598 40.9078 80.2222C40.9078 80.2222 40.9078 80.159 40.7814 80.159C40.7182 80.159 40.5918 80.2223 40.5918 80.2855C40.2831 81.2629 40.3514 82.1985 40.4215 83.1604C40.4375 83.3802 40.4537 83.6013 40.4654 83.8247C40.5286 85.0255 40.655 86.2262 40.7814 87.3639C40.7929 87.4668 40.8043 87.5703 40.8158 87.6742C40.9312 88.7183 41.0514 89.8052 41.2238 90.8399C41.3502 91.9774 41.4766 93.1151 42.1086 94.2527C42.1402 94.2527 42.156 94.2685 42.1718 94.2843C42.1876 94.3 42.2034 94.3158 42.235 94.3158C42.2982 94.3158 42.4246 94.2527 42.4246 94.1895C42.7333 93.212 42.6651 92.2764 42.5949 91.3145C42.5789 91.0947 42.5628 90.8736 42.551 90.6502C42.4878 89.4494 42.3614 88.2486 42.235 87.111C42.2236 87.0081 42.2121 86.9046 42.2006 86.8007C42.0852 85.7566 41.965 84.6697 41.7926 83.635Z" fill="#3895BA"/>
<path d="M37.8755 70.8939C37.8812 70.2114 37.8868 69.5288 37.4318 68.8462C37.3054 68.7198 37.179 68.7198 37.1158 68.8462C36.6659 69.4648 36.6164 70.1335 36.5664 70.8076C36.5602 70.8911 36.554 70.9747 36.547 71.0583C36.4838 71.7534 36.4206 72.5118 36.4206 73.2702V75.4822C36.4206 75.5581 36.42 75.6339 36.4193 75.7098C36.4137 76.3923 36.408 77.0749 36.863 77.7575L36.9262 77.8206C36.9894 77.8839 37.1158 77.8206 37.179 77.7575C37.6289 77.1389 37.6785 76.4702 37.7285 75.7961C37.7346 75.7126 37.7408 75.629 37.7478 75.5454C37.811 74.8503 37.8742 74.0919 37.8742 73.3335V71.1215C37.8742 71.0456 37.8748 70.9698 37.8755 70.8939Z" fill="#3895BA"/>
<path d="M36.6115 90.1004C36.6172 89.5885 36.6228 89.0766 36.1678 88.5647C36.0414 88.5014 35.915 88.5014 35.8518 88.5647C35.4018 89.0147 35.3523 89.5148 35.3023 90.0204C35.2961 90.0828 35.29 90.1453 35.283 90.2078C35.2198 90.7134 35.1566 91.2822 35.1566 91.8511C35.1147 92.186 35.1283 92.5486 35.1423 92.9207C35.1494 93.1102 35.1566 93.3022 35.1566 93.4942C35.1566 93.5511 35.156 93.608 35.1553 93.6649C35.1497 94.1768 35.144 94.6887 35.599 95.2007C35.7254 95.2639 35.8518 95.2639 35.915 95.2007C36.365 94.7506 36.4145 94.2505 36.4645 93.7449C36.4707 93.6825 36.4769 93.62 36.4838 93.5574C36.547 93.0518 36.6102 92.483 36.6102 91.9142C36.6521 91.5793 36.6385 91.2167 36.6245 90.8446C36.6174 90.6551 36.6102 90.4631 36.6102 90.271C36.6102 90.2142 36.6108 90.1573 36.6115 90.1004Z" fill="#3895BA"/>
<path d="M33.2224 83.196C33.4463 82.387 33.6674 81.5883 33.5134 80.6646C33.5134 80.6014 33.5134 80.6014 33.4502 80.5382C33.387 80.475 33.2606 80.475 33.1974 80.5382C32.5318 81.2038 32.2395 81.9938 31.9509 82.7738C31.8833 82.9567 31.8158 83.139 31.7438 83.319C31.4398 84.079 31.1765 84.8795 30.9212 85.6555C30.858 85.8476 30.7953 86.0382 30.7326 86.2262C30.6714 86.4221 30.6102 86.6157 30.5494 86.8078C30.2965 87.6071 30.0516 88.3813 29.8478 89.1966C29.8003 89.3868 29.7483 89.5747 29.6964 89.7621C29.4725 90.5711 29.2515 91.3698 29.4054 92.2934C29.4054 92.3567 29.4686 92.4199 29.4686 92.4199C29.5318 92.483 29.6582 92.483 29.7214 92.4199C30.387 91.7543 30.6793 90.9643 30.9679 90.1842C31.0355 90.0014 31.103 89.8191 31.175 89.639C31.479 88.8792 31.7423 88.0787 31.9976 87.3027C32.0608 87.1106 32.1235 86.92 32.1862 86.7318C32.2474 86.5359 32.3086 86.3424 32.3694 86.1503C32.6223 85.351 32.8672 84.5768 33.071 83.7615C33.1185 83.5713 33.1706 83.3834 33.2224 83.196Z" fill="#3895BA"/>
<path d="M33.4136 70.5453C33.6843 69.9848 33.9357 69.4642 33.8294 68.7198C33.7662 68.5935 33.6398 68.5303 33.5766 68.5935C32.8273 68.9393 32.4985 69.4954 32.1588 70.07C32.1261 70.1254 32.0932 70.181 32.0598 70.2366C31.6806 70.8055 31.3014 71.4375 30.9854 72.0695L30.0374 73.9655C29.9872 74.0758 29.9355 74.183 29.8844 74.2888C29.6137 74.8493 29.3623 75.3699 29.4686 76.1143V76.1775C29.5318 76.2407 29.595 76.3038 29.7214 76.2407C30.4707 75.8948 30.7995 75.3387 31.1392 74.7641C31.172 74.7087 31.2048 74.6531 31.2382 74.5975C31.6174 74.0286 31.9966 73.3967 32.3126 72.7646L33.2606 70.8687C33.3108 70.7583 33.3626 70.6511 33.4136 70.5453Z" fill="#3895BA"/>
<path d="M25.1389 85.3272C25.6618 84.2345 26.1938 83.1227 26.3086 81.8022C26.3086 81.739 26.3086 81.6758 26.2454 81.6758C26.1822 81.6126 26.0558 81.6126 25.9926 81.6758C25.0199 82.5913 24.4616 83.6622 23.8957 84.7478C23.8365 84.8613 23.7772 84.975 23.7174 85.0887C23.2539 85.8892 22.8466 86.6897 22.4394 87.4902C22.2357 87.8905 22.0321 88.2908 21.8214 88.691C21.537 89.2914 21.2526 89.9076 20.9682 90.5238C20.6838 91.1401 20.3994 91.7563 20.115 92.3567C20.0629 92.4667 20.0102 92.5767 19.9575 92.6869C19.4346 93.7796 18.9026 94.8914 18.7878 96.2119C18.7878 96.2387 18.7878 96.2542 18.7927 96.2679C18.7992 96.2865 18.8147 96.3019 18.851 96.3382C18.9142 96.4015 19.0406 96.4015 19.1038 96.3382C20.0765 95.4228 20.6348 94.3519 21.2007 93.2663C21.2599 93.1528 21.3192 93.0391 21.379 92.9255C21.8425 92.1249 22.2498 91.3244 22.657 90.5239C22.8607 90.1236 23.0643 89.7233 23.275 89.3231C23.5594 88.7227 23.8438 88.1065 24.1282 87.4903C24.4126 86.8741 24.697 86.2579 24.9814 85.6575C25.0335 85.5474 25.0862 85.4374 25.1389 85.3272Z" fill="#3895BA"/>
<path d="M20.4824 80.6939C20.8731 80.2081 21.261 79.7259 21.3158 78.9582C21.3158 78.7686 21.1894 78.7055 21.063 78.7687C20.3588 78.9312 19.9331 79.3723 19.5075 79.8134C19.4366 79.8869 19.3656 79.9604 19.2934 80.0327C18.7878 80.5383 18.2822 81.0439 17.8398 81.6126C17.3974 82.1182 16.955 82.687 16.5127 83.2558C16.4541 83.3311 16.3944 83.4053 16.3348 83.4795C15.9441 83.9652 15.5562 84.4474 15.5014 85.215V85.2783C15.5646 85.3414 15.6278 85.4046 15.7542 85.4046C16.4584 85.2421 16.8841 84.801 17.3097 84.3599C17.3806 84.2864 17.4516 84.2129 17.5238 84.1406C18.0294 83.635 18.535 83.1294 18.9774 82.5607C19.4198 82.0551 19.8622 81.4863 20.3046 80.9174C20.3632 80.8422 20.4228 80.768 20.4824 80.6939Z" fill="#3895BA"/>
<path d="M26.0041 69.3394C26.5808 69.0491 27.1606 68.7573 27.5726 68.0879C27.5726 68.0879 27.6358 68.0879 27.5726 68.0247C27.5726 67.9614 27.5094 67.835 27.383 67.835C26.5409 67.7147 25.8705 67.9952 25.1539 68.295C25.1176 68.3102 25.0812 68.3254 25.0446 68.3407C24.6971 68.4986 24.3337 68.6566 23.9704 68.8146C23.6069 68.9726 23.2435 69.1306 22.8958 69.2887C22.2006 69.6047 21.5054 69.9838 20.8102 70.363C20.6815 70.4333 20.5505 70.4992 20.4194 70.5651C19.8428 70.8554 19.263 71.1472 18.851 71.8167V71.8799C18.851 71.943 18.9142 72.0695 19.0406 72.0695C19.8827 72.1898 20.5531 71.9093 21.2697 71.6095C21.306 71.5943 21.3424 71.5791 21.379 71.5639C21.7267 71.4058 22.0901 71.2478 22.4536 71.0898C22.8169 70.9318 23.1803 70.7738 23.5278 70.6159C24.2862 70.2999 24.9814 69.9838 25.6134 69.5415C25.7422 69.4712 25.8731 69.4053 26.0041 69.3394Z" fill="#3895BA"/>
<path d="M14.0372 75.4471C14.9205 74.9975 15.7813 74.5594 16.5126 73.7758C16.549 73.7395 16.5644 73.7241 16.571 73.7055C16.5758 73.6918 16.5758 73.6763 16.5758 73.6495C16.5758 73.523 16.5126 73.4598 16.3862 73.4598C15.1962 73.5165 14.2095 73.9288 13.2438 74.3323C13.1324 74.3789 13.0213 74.4253 12.9102 74.471C12.6693 74.5703 12.4252 74.6695 12.1793 74.7694C11.3288 75.115 10.4573 75.4692 9.62381 75.8615L6.40061 77.3783C6.2142 77.4769 6.0278 77.5718 5.84239 77.6662C4.95911 78.1158 4.0983 78.5539 3.36701 79.3374C3.30381 79.4007 3.30381 79.4007 3.30381 79.4639C3.30381 79.5902 3.36701 79.6535 3.49341 79.6535C4.68337 79.5968 5.67012 79.1845 6.63585 78.781C6.74722 78.7344 6.85831 78.688 6.96941 78.6423C7.21032 78.5431 7.45441 78.4439 7.70026 78.3439C8.5508 77.9983 9.42232 77.6441 10.2558 77.2518L13.479 75.735C13.6654 75.6364 13.8518 75.5415 14.0372 75.4471Z" fill="#3895BA"/>
<path d="M12.7608 69.026C13.9722 68.6713 15.1386 68.3297 16.2598 67.5822C16.323 67.5822 16.323 67.5191 16.323 67.4558C16.3862 67.3295 16.2598 67.2663 16.1966 67.2663C14.9124 67.1635 13.7534 67.4365 12.5839 67.7121C12.3146 67.7755 12.0447 67.8391 11.7726 67.8982C11.0457 68.0879 10.3347 68.2617 9.62363 68.4355C8.91269 68.6093 8.20175 68.7831 7.47501 68.9726C6.02155 69.3518 4.56767 69.7311 3.17741 70.1735C2.95181 70.2421 2.72773 70.3077 2.50518 70.3729C1.29375 70.7276 0.127424 71.0692 -0.993794 71.8167C-0.993794 71.8167 -1.05699 71.8798 -1.05699 71.943C-1.12019 72.0695 -0.993794 72.1327 -0.930594 72.1327C0.353637 72.2354 1.51261 71.9623 2.68207 71.6868C2.95141 71.6234 3.2213 71.5598 3.49341 71.5006C4.22015 71.3111 4.93109 71.1373 5.64204 70.9635C6.35309 70.7897 7.06415 70.6159 7.79101 70.4262C9.24461 70.0471 10.6982 69.6679 12.0886 69.2254C12.3142 69.1568 12.5383 69.0912 12.7608 69.026Z" fill="#3895BA"/>
<path d="M13.7352 62.4083C14.3928 62.4271 15.0313 62.4453 15.7542 62.0839C15.7542 62.0839 15.7542 62.0207 15.8174 62.0207C15.8806 61.9575 15.8174 61.8311 15.7542 61.7679C15.1209 61.2401 14.4435 61.153 13.7588 61.0651C13.6236 61.0477 13.4881 61.0303 13.3526 61.0095C12.5942 60.8831 11.7726 60.7567 10.951 60.6935C10.1294 60.6303 9.30781 60.5671 8.48621 60.5671C8.33586 60.5671 8.18763 60.5628 8.04036 60.5586C7.38282 60.5398 6.7443 60.5216 6.02141 60.883L5.95821 60.9463C5.89501 61.0094 5.95821 61.1358 6.02141 61.1991C6.65475 61.7268 7.33217 61.8139 8.01685 61.9018C8.15205 61.9192 8.28753 61.9366 8.42301 61.9575C9.18141 62.0839 10.003 62.2103 10.8246 62.2735C11.6462 62.3367 12.4678 62.3999 13.2894 62.3999C13.4397 62.3999 13.588 62.4041 13.7352 62.4083Z" fill="#3895BA"/>
<path d="M28.1571 64.7622C28.9822 64.8242 29.7696 64.8833 30.6062 64.5487L30.6694 64.4855C30.7326 64.4223 30.6694 64.2959 30.6062 64.2327C29.8099 63.6638 29.0136 63.5558 28.2172 63.4477C28.1288 63.4357 28.0403 63.4237 27.9518 63.411L25.2974 63.0319C24.4677 62.9133 23.5824 62.8504 22.7458 62.7909C22.6902 62.7869 22.6349 62.783 22.5798 62.779C22.4684 62.7716 22.3579 62.7633 22.2481 62.7551C21.423 62.6931 20.6356 62.634 19.799 62.9687L19.7358 63.0319C19.6726 63.0951 19.7358 63.2215 19.799 63.2847C20.5953 63.8535 21.3917 63.9615 22.188 64.0696C22.2765 64.0816 22.3649 64.0936 22.4534 64.1062L25.1078 64.4855C25.9374 64.604 26.8226 64.6669 27.6592 64.7264C27.7148 64.7304 27.7702 64.7343 27.8254 64.7383C27.9368 64.7457 28.0473 64.754 28.1571 64.7622Z" fill="#3895BA"/>
<path d="M28.0424 59.9593C28.8993 60.4219 29.7764 60.8955 30.859 61.0095C30.859 61.0095 30.9222 60.9463 30.9854 61.0095C31.1118 60.9463 31.1118 60.8199 31.0486 60.7567C30.3534 59.7455 29.4054 59.1767 28.4574 58.6079C27.5094 57.9759 26.5614 57.407 25.6134 56.8382C24.6654 56.2694 23.6542 55.7006 22.7062 55.195C22.6129 55.1453 22.5196 55.0949 22.426 55.0444C21.5691 54.5818 20.692 54.1082 19.6094 53.9943C19.5703 53.9552 19.5554 53.9644 19.5348 53.9772C19.5221 53.985 19.5071 53.9943 19.483 53.9943C19.3566 54.0575 19.3566 54.1838 19.4198 54.2471C20.115 55.2583 21.063 55.827 22.011 56.3959C22.959 57.0278 23.907 57.5966 24.855 58.1654C25.803 58.7342 26.8142 59.3031 27.7622 59.8087C27.8555 59.8584 27.9488 59.9088 28.0424 59.9593Z" fill="#3895BA"/>
<path d="M10.3333 55.4416C11.0963 55.7181 11.856 55.9933 12.7838 55.8902C12.8154 55.8902 12.8312 55.8745 12.847 55.8587C12.8628 55.8428 12.8786 55.827 12.9102 55.827C12.9734 55.7639 12.9734 55.6374 12.9102 55.5742C12.3094 54.9234 11.5897 54.5898 10.8766 54.2594C10.6895 54.1727 10.5029 54.0862 10.319 53.9943C9.37101 53.5519 8.48621 53.1726 7.53821 52.7934C6.65341 52.4142 5.70541 52.035 4.75741 51.7191C4.58261 51.6608 4.40996 51.5982 4.23748 51.5357C3.47452 51.2592 2.71485 50.984 1.78701 51.0871C1.72381 51.0871 1.66061 51.1502 1.66061 51.1502C1.59741 51.2135 1.59741 51.3399 1.66061 51.403C2.26139 52.0539 2.98116 52.3875 3.69424 52.7179C3.88131 52.8046 4.06792 52.8911 4.25181 52.9831C5.19981 53.4254 6.08461 53.8046 7.03261 54.1838C7.91741 54.563 8.86541 54.9423 9.81341 55.2583C9.9882 55.3165 10.1608 55.3791 10.3333 55.4416Z" fill="#3895BA"/>
<path d="M14.5774 51.2663C15.3725 51.7834 16.1887 52.3142 17.2078 52.5407H17.271C17.3342 52.4775 17.3974 52.3511 17.3342 52.2878C16.8065 51.3497 16.0068 50.7379 15.2379 50.1498C15.178 50.104 15.1184 50.0583 15.059 50.0127C14.6482 49.6967 14.2216 49.3807 13.795 49.0647C13.3684 48.7487 12.9418 48.4327 12.531 48.1167C11.7094 47.4847 10.8246 46.8526 9.93981 46.2839C9.77139 46.1756 9.60526 46.0627 9.43881 45.9497C8.73078 45.4687 8.01687 44.9838 7.09581 44.8302H6.96941C6.90621 44.8935 6.84301 45.0198 6.90621 45.083C7.43392 46.0212 8.23363 46.633 9.00251 47.2211C9.06238 47.2669 9.12206 47.3126 9.18141 47.3582C9.59221 47.6742 10.0188 47.9902 10.4454 48.3063C10.872 48.6222 11.2986 48.9382 11.7094 49.2542C12.531 49.8862 13.4158 50.5182 14.3006 51.0871C14.3928 51.1463 14.4849 51.2062 14.5774 51.2663Z" fill="#3895BA"/>
<path d="M24.6377 50.0798C25.129 50.8045 25.6163 51.5234 26.435 52.035H26.5614C26.6246 52.035 26.6878 51.9719 26.6878 51.8455C26.5856 50.8747 26.153 50.1104 25.7238 49.3523C25.6221 49.1727 25.5207 48.9934 25.4238 48.8119C25.0573 48.1246 24.6575 47.4705 24.2486 46.8015C24.0935 46.5477 23.937 46.2918 23.7806 46.031C23.2118 45.083 22.643 44.1982 22.011 43.3134C21.8907 43.145 21.775 42.9743 21.6595 42.8039C21.1682 42.0792 20.6809 41.3603 19.8622 40.8487H19.7358C19.6726 40.8487 19.6094 40.9118 19.6094 41.0382C19.7116 42.009 20.1442 42.7733 20.5734 43.5314C20.6751 43.711 20.7766 43.8903 20.8734 44.0718C21.24 44.7591 21.6397 45.4132 22.0486 46.0822C22.2037 46.336 22.3602 46.5919 22.5166 46.8526C23.0854 47.8007 23.6542 48.6855 24.2862 49.5703C24.4065 49.7387 24.5222 49.9094 24.6377 50.0798Z" fill="#3895BA"/>
<path d="M33.6413 58.6712C32.8401 58.0988 32.4534 57.371 32.059 56.6285L32.0583 56.6272C32.0174 56.5502 31.9765 56.4731 31.9349 56.396L30.6077 53.9311C30.2705 53.3049 29.97 52.6419 29.6782 51.9982C29.5872 51.7974 29.4971 51.5985 29.4069 51.4031C29.3534 51.2782 29.2985 51.1544 29.2439 51.0311C28.9116 50.2812 28.5853 49.545 28.5853 48.6224C28.5853 48.4959 28.6485 48.4328 28.7749 48.4328C28.8381 48.4328 28.8381 48.4328 28.9013 48.4959C29.7026 49.0683 30.0892 49.7961 30.4837 50.5386C30.5248 50.616 30.566 50.6936 30.6077 50.7711L31.9349 53.236C32.1245 53.6466 32.3298 54.0731 32.5352 54.4996C32.7406 54.9262 32.9461 55.3531 33.1357 55.764C33.1893 55.8889 33.2441 56.0127 33.2988 56.136C33.6311 56.8859 33.9573 57.6221 33.9573 58.5448C33.9573 58.6712 33.8941 58.7343 33.7677 58.7343C33.7045 58.6711 33.7045 58.6712 33.6413 58.6712Z" fill="#3895BA"/>
<path d="M29.5333 44.8304C28.6678 44.0189 28.1263 43.0222 27.592 42.0384C27.5021 41.873 27.4123 41.7077 27.3213 41.5439C26.8463 40.6889 26.4069 39.7981 25.9765 38.9253C25.8343 38.6369 25.693 38.3504 25.5517 38.068C25.4124 37.7739 25.2732 37.4837 25.1348 37.1953C24.7082 36.3063 24.2903 35.4355 23.9085 34.5288C23.8074 34.2886 23.7012 34.051 23.5951 33.8133C23.1704 32.8628 22.7457 31.9123 22.6445 30.8C22.6445 30.7368 22.7077 30.6104 22.7709 30.6104C22.8341 30.6104 22.8973 30.6104 22.8973 30.6736C23.7629 31.485 24.3043 32.4817 24.8387 33.4655C24.9286 33.631 25.0183 33.7961 25.1093 33.9599C25.5844 34.815 26.0237 35.7058 26.4542 36.5787C26.5964 36.867 26.7377 37.1535 26.8789 37.436C27.0181 37.7298 27.1574 38.02 27.2956 38.3081C27.7223 39.1972 28.1403 40.0684 28.5221 40.9752C28.6232 41.2153 28.7294 41.4529 28.8356 41.6906C29.2603 42.6411 29.685 43.5916 29.7861 44.7039C29.7861 44.7672 29.7229 44.8936 29.6597 44.8936C29.6597 44.8303 29.5965 44.8304 29.5333 44.8304Z" fill="#3895BA"/>
<path d="M33.0084 40.8489C32.5473 40.2341 32.46 39.5777 32.3761 38.9472C32.3565 38.7999 32.3371 38.6541 32.3132 38.5105C32.1868 37.6889 32.1236 36.9305 32.0604 36.1089C31.9972 35.2873 31.9972 34.5289 31.9972 33.7073C31.9972 33.5566 31.9929 33.408 31.9887 33.2608C31.97 32.6054 31.9519 31.9765 32.3132 31.3057C32.3764 31.2425 32.5028 31.1793 32.566 31.2425L32.6292 31.3057C33.0903 31.9205 33.1776 32.5768 33.2615 33.2074C33.2811 33.3546 33.3005 33.5005 33.3244 33.6441C33.4508 34.4657 33.514 35.2241 33.5772 36.0457C33.6404 36.8673 33.6404 37.6257 33.6404 38.4473C33.6404 38.598 33.6446 38.7466 33.6489 38.8939C33.6676 39.5493 33.6856 40.178 33.3244 40.8489C33.2612 40.9753 33.1348 40.9753 33.0084 40.8489Z" fill="#3895BA"/>
<path d="M73.5769 94.9335C73.1977 95.1231 72.8185 95.3127 72.6289 95.9447L72.7553 96.2607C73.2163 96.5168 73.5528 96.3993 73.8993 96.2782C73.9803 96.2499 74.0619 96.2214 74.1457 96.1975C74.5249 96.0711 74.9673 95.8815 75.3465 95.6919C75.7257 95.5023 76.1049 95.3127 76.4841 95.0599C76.8633 94.8703 77.2425 94.6807 77.4321 94.0487L77.3057 93.7327C76.8447 93.4766 76.5082 93.5941 76.1617 93.7151C76.0807 93.7434 75.9991 93.7719 75.9153 93.7959C75.5361 93.9223 75.0937 94.1119 74.7145 94.3015C74.3353 94.4911 73.9561 94.6807 73.5769 94.9335Z" fill="#F2D76B"/>
<path d="M20.448 26.2759C20.9716 26.2759 21.396 25.8514 21.396 25.3279C21.396 24.8043 20.9716 24.3799 20.448 24.3799C19.9244 24.3799 19.5 24.8043 19.5 25.3279C19.5 25.8514 19.9244 26.2759 20.448 26.2759Z" fill="#D48FC8"/>
<path d="M136.54 26.3766C137.109 25.3654 137.994 24.7966 138.815 24.2278C139.637 23.5958 140.522 23.027 141.343 22.395L143.998 20.6886C144.883 20.1198 145.704 19.551 146.905 19.3614C147.031 19.3614 147.095 19.4246 147.095 19.4878V19.6142C146.526 20.6254 145.641 21.1942 144.819 21.763C143.998 22.395 143.113 22.9638 142.291 23.5958L139.637 25.3022C138.752 25.871 137.931 26.4398 136.73 26.6294C136.603 26.6294 136.54 26.5662 136.54 26.503V26.3766ZM122.383 34.9086C122.952 33.8974 123.837 33.3918 124.595 32.7598C125.417 32.1278 126.239 31.559 127.06 30.9902C127.882 30.4214 128.767 29.8526 129.651 29.347C130.536 28.8414 131.358 28.2094 132.495 28.083C132.622 28.083 132.685 28.1462 132.685 28.2094V28.3358C132.116 29.347 131.231 29.8526 130.473 30.4846C129.651 31.1166 128.83 31.6854 128.008 32.2542C127.187 32.823 126.302 33.3918 125.417 33.8974C124.532 34.403 123.711 35.035 122.573 35.1614C122.447 35.1614 122.383 35.0982 122.383 35.035C122.32 34.9718 122.32 34.9086 122.383 34.9086ZM139.7 32.0646C140.269 31.4326 141.027 31.3062 141.659 31.1166C142.355 30.927 143.05 30.7374 143.745 30.611L145.831 30.2318C146.526 30.1054 147.221 29.979 148.043 30.295C148.169 30.3582 148.169 30.4846 148.169 30.5478C148.169 30.5478 148.169 30.611 148.106 30.611C147.537 31.243 146.779 31.3694 146.147 31.559C145.451 31.7486 144.756 31.9382 144.061 32.0646L141.975 32.4438C141.28 32.5702 140.585 32.6966 139.763 32.3806C139.637 32.3806 139.637 32.2542 139.7 32.0646C139.7 32.1278 139.637 32.1278 139.7 32.0646ZM125.48 37.3102C126.555 36.931 127.503 37.0574 128.514 37.1206C129.525 37.1838 130.536 37.3102 131.547 37.3734C132.559 37.4998 133.57 37.6262 134.518 37.7526C135.529 37.879 136.54 37.9422 137.488 38.5742C137.551 38.6374 137.615 38.7638 137.551 38.827C137.551 38.8902 137.488 38.8902 137.488 38.8902C136.414 39.2694 135.466 39.143 134.455 39.0798C133.443 39.0166 132.432 38.8902 131.421 38.827C130.41 38.7006 129.399 38.5742 128.451 38.4478C127.439 38.3214 126.428 38.2582 125.48 37.6262C125.417 37.563 125.354 37.4366 125.417 37.3734L125.48 37.3102ZM141.533 36.8678C142.291 36.4886 142.923 36.615 143.619 36.6782C144.314 36.7414 144.946 36.8046 145.641 36.8678C146.273 36.9942 146.968 37.1206 147.6 37.247C148.232 37.3734 148.927 37.4366 149.496 38.0686C149.559 38.1318 149.559 38.2582 149.496 38.3214H149.433C148.675 38.7006 148.043 38.5742 147.347 38.511C146.652 38.4478 146.02 38.3846 145.325 38.3214C144.693 38.195 143.998 38.0686 143.366 37.9422C142.734 37.8158 142.039 37.7526 141.47 37.1206C141.407 37.1206 141.407 36.9942 141.533 36.8678C141.47 36.931 141.47 36.931 141.533 36.8678ZM138.942 43.0614C139.827 42.8718 140.459 43.1878 141.217 43.3774C141.912 43.6302 142.607 43.8198 143.303 44.1358C143.998 44.3886 144.693 44.7046 145.325 45.0206C146.02 45.3366 146.715 45.5894 147.221 46.2846C147.284 46.3478 147.284 46.4742 147.158 46.5374H147.095C146.21 46.727 145.578 46.411 144.819 46.2214C144.124 45.9686 143.429 45.779 142.734 45.463C142.039 45.2102 141.343 44.8942 140.711 44.5782C140.016 44.2622 139.321 44.0094 138.815 43.3142C138.752 43.3142 138.752 43.1878 138.942 43.0614C138.879 43.1246 138.879 43.1246 138.942 43.0614ZM127.945 42.6822C128.893 42.7454 129.462 43.1878 130.094 43.6302C130.726 44.0726 131.358 44.4518 131.99 44.9574C132.622 45.3998 133.191 45.9054 133.823 46.411C134.391 46.9166 135.023 47.2958 135.339 48.1806C135.403 48.307 135.339 48.3702 135.213 48.4334H135.15C134.202 48.3702 133.633 47.9278 133.001 47.4854C132.369 47.043 131.737 46.6638 131.105 46.1582C130.473 45.7158 129.904 45.2102 129.272 44.7046C128.703 44.199 128.071 43.8198 127.755 42.935C127.692 42.8086 127.755 42.7454 127.882 42.6822H127.945ZM134.96 53.8686C135.655 53.9318 135.908 54.311 136.224 54.627C136.54 54.943 136.856 55.3222 137.109 55.6382C137.425 56.0174 137.678 56.3966 137.931 56.7758C138.183 57.155 138.499 57.471 138.373 58.1662C138.373 58.2926 138.247 58.3558 138.12 58.3558C137.425 58.2926 137.172 57.9134 136.856 57.5974C136.54 57.2814 136.224 56.9022 135.971 56.5862C135.655 56.207 135.403 55.8278 135.15 55.4486C134.897 55.0694 134.581 54.7534 134.707 54.0582C134.707 53.9318 134.834 53.8686 134.96 53.8686ZM123.331 53.5526C124.027 53.8686 124.153 54.4374 124.406 54.8798C124.659 55.3854 124.848 55.891 125.101 56.3966C125.291 56.9022 125.48 57.4078 125.607 57.9766C125.733 58.4822 125.986 58.9878 125.733 59.683C125.67 59.8094 125.543 59.8726 125.48 59.8094C124.785 59.4934 124.659 58.9246 124.406 58.4822C124.153 57.9766 123.963 57.471 123.711 56.9654C123.521 56.4598 123.331 55.9542 123.205 55.3854C123.079 54.8798 122.826 54.3742 123.079 53.679C123.079 53.5526 123.205 53.4894 123.331 53.5526ZM126.934 47.991C127.692 48.307 128.008 48.939 128.387 49.5078C128.767 50.0766 129.146 50.6454 129.462 51.2142C129.778 51.783 130.094 52.415 130.41 52.9838C130.726 53.6158 131.105 54.1846 130.979 55.0062C130.979 55.1326 130.852 55.1958 130.726 55.1958H130.663C129.904 54.8798 129.588 54.2478 129.209 53.679C128.83 53.1102 128.451 52.5414 128.135 51.9726C127.819 51.4038 127.503 50.7718 127.187 50.203C126.871 49.571 126.491 49.0022 126.618 48.1806C126.681 48.0542 126.807 47.9278 126.934 47.991ZM120.867 40.9126C121.562 41.355 121.751 42.0502 122.004 42.619L122.763 44.515C122.952 45.147 123.205 45.779 123.331 46.411C123.521 47.043 123.774 47.675 123.521 48.4966C123.458 48.623 123.395 48.6862 123.268 48.623H123.205C122.51 48.1806 122.32 47.4854 122.067 46.9166L121.309 45.0206C121.119 44.3886 120.867 43.7566 120.74 43.1246C120.551 42.4926 120.298 41.8606 120.551 41.039C120.614 40.9126 120.74 40.8494 120.867 40.9126C120.867 40.8494 120.867 40.8494 120.867 40.9126ZM117.391 39.9646C117.517 40.8494 117.138 41.5446 116.822 42.2398L115.874 44.3254C115.558 45.0206 115.179 45.7158 114.799 46.3478C114.42 47.043 114.104 47.7382 113.346 48.1806C113.283 48.2438 113.156 48.1806 113.093 48.1174V48.0542C112.967 47.1694 113.346 46.4742 113.662 45.779L114.61 43.6934C114.926 42.9982 115.305 42.303 115.684 41.671C116.063 40.9758 116.379 40.2806 117.138 39.8382C117.201 39.775 117.327 39.8382 117.391 39.9014V39.9646ZM116.632 54.2478C116.948 54.943 116.759 55.5118 116.632 56.1438C116.506 56.7126 116.379 57.3446 116.253 57.9134C116.127 58.4822 115.937 59.051 115.684 59.683C115.495 60.2518 115.368 60.8838 114.736 61.3262C114.673 61.3894 114.483 61.3894 114.42 61.263C114.104 60.5678 114.294 59.999 114.42 59.367C114.547 58.7982 114.673 58.1662 114.799 57.5974C114.926 57.0286 115.115 56.4598 115.368 55.8278C115.558 55.259 115.684 54.627 116.316 54.1846C116.443 54.1214 116.569 54.1214 116.632 54.2478ZM112.335 51.5302C112.335 52.6678 111.829 53.6158 111.45 54.5638C111.071 55.5118 110.628 56.4598 110.186 57.4078C109.743 58.3558 109.238 59.2406 108.795 60.1886C108.29 61.0734 107.911 62.0846 106.963 62.7798C106.899 62.843 106.773 62.843 106.71 62.7798C106.71 62.7166 106.647 62.7166 106.647 62.6534C106.647 61.5158 107.152 60.5678 107.531 59.6198C107.911 58.6718 108.353 57.7238 108.795 56.7758C109.238 55.8278 109.743 54.943 110.186 53.995C110.691 53.1102 111.071 52.099 112.019 51.4038C112.082 51.3406 112.208 51.3406 112.271 51.4038C112.335 51.467 112.335 51.467 112.335 51.5302ZM108.606 46.7902C108.543 47.5486 108.1 47.991 107.721 48.4334C107.342 48.8758 106.963 49.3182 106.52 49.7606C106.141 50.203 105.699 50.5822 105.256 51.0246C104.814 51.4038 104.435 51.9094 103.676 51.9726C103.55 51.9726 103.487 51.9094 103.423 51.783C103.487 51.0246 103.929 50.5822 104.308 50.1398C104.687 49.6974 105.067 49.255 105.509 48.8126C105.888 48.3702 106.331 47.991 106.773 47.5486C107.215 47.1694 107.595 46.6638 108.353 46.6006C108.543 46.6006 108.606 46.6638 108.606 46.7902ZM105.067 41.1654C104.371 42.0502 103.423 42.3662 102.539 42.8086C101.654 43.251 100.769 43.6302 99.8842 44.0726C98.9994 44.4518 98.0514 44.831 97.1666 45.147C96.2186 45.463 95.3338 45.9054 94.2594 45.8422C94.133 45.8422 94.0698 45.779 94.0698 45.6526C94.0698 45.5894 94.0698 45.5894 94.133 45.5262C94.8282 44.6414 95.7762 44.3254 96.661 43.883C97.5458 43.4406 98.4306 43.0614 99.3154 42.619C100.2 42.2398 101.148 41.8606 102.033 41.5446C102.981 41.2286 103.866 40.7862 104.94 40.8494C105.067 40.8494 105.13 40.9126 105.13 41.039C105.13 41.1022 105.13 41.1654 105.067 41.1654ZM115.495 37.6894C115.115 38.3846 114.483 38.5742 113.915 38.827C113.346 39.0798 112.777 39.3326 112.208 39.5222C111.639 39.7118 111.071 39.9014 110.439 40.091C109.87 40.2806 109.301 40.5334 108.543 40.2174C108.416 40.1542 108.353 40.091 108.416 39.9646V39.9014C108.795 39.2062 109.427 39.0166 109.996 38.7638C110.565 38.511 111.134 38.2582 111.703 38.0686C112.271 37.879 112.84 37.6894 113.472 37.4998C114.041 37.3102 114.61 37.0574 115.368 37.3734C115.495 37.4366 115.558 37.563 115.495 37.6894ZM103.423 33.5182C102.349 33.771 101.401 33.5182 100.453 33.3286C99.505 33.139 98.557 32.9494 97.609 32.6966L94.765 31.9382C93.817 31.6854 92.869 31.4958 92.0474 30.7374C91.9842 30.6742 91.9842 30.5478 92.0474 30.4846L92.1106 30.4214C93.185 30.1686 94.133 30.4214 95.081 30.611C96.029 30.8006 96.977 30.9902 97.925 31.243L100.769 32.0014C101.717 32.2542 102.665 32.4438 103.487 33.2022C103.55 33.2654 103.55 33.3918 103.487 33.455L103.423 33.5182ZM113.219 35.4774C112.524 35.8566 111.955 35.667 111.387 35.5406C110.818 35.4142 110.249 35.351 109.68 35.1614C109.111 35.035 108.543 34.8454 107.974 34.6558C107.405 34.4662 106.836 34.3398 106.394 33.7078C106.331 33.5814 106.331 33.455 106.457 33.3918C107.152 33.0126 107.721 33.2022 108.29 33.3286C108.859 33.455 109.427 33.5182 109.996 33.7078C110.565 33.8342 111.134 34.0238 111.703 34.2134C112.271 34.403 112.84 34.5294 113.283 35.1614C113.409 35.2246 113.346 35.351 113.219 35.4774ZM101.527 27.3878C100.769 27.5774 100.263 27.2614 99.7578 27.0086C99.2522 26.7558 98.6834 26.503 98.1778 26.2502C97.6722 25.9974 97.1666 25.6814 96.661 25.3654C96.1554 25.0494 95.6498 24.7966 95.397 24.1014C95.3338 23.975 95.397 23.8486 95.5234 23.8486C96.2818 23.659 96.7874 23.975 97.293 24.2278C97.7986 24.4806 98.3674 24.7334 98.873 24.9862C99.3786 25.239 99.8842 25.555 100.39 25.871C100.895 26.187 101.401 26.4398 101.654 27.135C101.717 27.1982 101.654 27.3246 101.527 27.3878ZM116.822 32.191C115.874 32.0014 115.305 31.4326 114.673 30.927C114.041 30.4214 113.409 29.8526 112.84 29.347C112.271 28.7782 111.639 28.2094 111.071 27.6406C110.502 27.0718 109.87 26.5662 109.617 25.6182C109.617 25.4918 109.68 25.4286 109.743 25.3654H109.807C110.755 25.555 111.323 26.1238 111.955 26.6294C112.587 27.135 113.219 27.7038 113.788 28.2094C114.357 28.7782 114.989 29.347 115.558 29.9158C116.127 30.4846 116.759 30.9902 117.011 31.9382C117.011 32.0646 116.948 32.1278 116.885 32.191H116.822ZM107.595 25.3022C106.647 25.1126 106.078 24.5438 105.446 23.975C104.814 23.4694 104.245 22.9006 103.613 22.3318C103.044 21.763 102.475 21.1942 101.907 20.5622C101.338 19.9934 100.706 19.4246 100.516 18.4766C100.516 18.3502 100.579 18.287 100.643 18.2238H100.706C101.654 18.4134 102.223 18.9822 102.855 19.551C103.487 20.0566 104.055 20.6254 104.687 21.1942C105.256 21.763 105.825 22.3318 106.394 22.9638C106.963 23.5326 107.595 24.1014 107.784 25.0494C107.784 25.1758 107.721 25.239 107.658 25.3022H107.595ZM112.398 18.7294C111.513 18.0342 111.071 17.1494 110.628 16.2646C110.123 15.3798 109.68 14.495 109.238 13.6102C108.795 12.7254 108.353 11.7774 107.974 10.8926C107.595 9.94458 107.089 9.05978 107.089 7.98538C107.089 7.85898 107.152 7.79578 107.279 7.79578C107.342 7.79578 107.342 7.79578 107.405 7.85898C108.29 8.55418 108.732 9.43898 109.175 10.3238C109.68 11.2086 110.123 12.0934 110.565 12.9782C111.007 13.863 111.45 14.811 111.829 15.6958C112.208 16.6438 112.714 17.5286 112.714 18.603C112.714 18.7294 112.651 18.7926 112.524 18.7926C112.461 18.7926 112.398 18.7926 112.398 18.7294ZM118.149 28.083C117.454 27.451 117.327 26.6294 117.075 25.871C116.822 25.1126 116.632 24.3542 116.443 23.5958C116.253 22.8374 116.127 22.079 115.937 21.2574C115.811 20.499 115.558 19.7406 115.874 18.8558C115.937 18.7294 116 18.7294 116.127 18.7294C116.127 18.7294 116.19 18.7294 116.19 18.7926C116.885 19.4246 117.011 20.2462 117.264 21.0046C117.517 21.763 117.707 22.5214 117.896 23.2798C118.086 24.0382 118.212 24.7966 118.402 25.6182C118.528 26.3766 118.781 27.135 118.465 28.0198C118.402 28.1462 118.339 28.1462 118.212 28.1462C118.212 28.083 118.149 28.083 118.149 28.083V28.083ZM120.551 14.179C120.045 13.4838 120.045 12.8518 120.045 12.1566C119.982 11.4614 119.982 10.8294 119.982 10.1342C119.982 9.43898 119.982 8.80698 120.045 8.11178C120.108 7.41658 120.045 6.78458 120.551 6.08938C120.614 6.02618 120.74 5.96298 120.803 6.02618L120.867 6.08938C121.372 6.78458 121.372 7.41658 121.372 8.11178C121.435 8.80698 121.435 9.43898 121.435 10.1342C121.435 10.8294 121.435 11.4614 121.372 12.1566C121.309 12.8518 121.372 13.4838 120.867 14.179C120.803 14.2422 120.677 14.2422 120.551 14.179C120.614 14.179 120.614 14.179 120.551 14.179ZM120.171 30.7374C119.982 29.8526 120.298 29.2838 120.551 28.5886C120.803 27.9566 121.056 27.2614 121.372 26.6294L122.32 24.7334C122.636 24.1014 122.889 23.4694 123.647 23.027C123.711 22.9638 123.837 23.027 123.9 23.0902V23.1534C124.09 24.0382 123.774 24.607 123.521 25.3022C123.268 25.9342 123.015 26.6294 122.699 27.2614L121.751 29.1574C121.435 29.7894 121.183 30.4214 120.424 30.8638C120.361 30.8638 120.235 30.8638 120.171 30.7374ZM125.543 17.7814C125.291 17.1494 125.48 16.8334 125.607 16.391C125.733 16.0118 125.923 15.5694 126.112 15.1902C126.302 14.811 126.491 14.4318 126.744 14.0526C126.997 13.6734 127.123 13.2942 127.755 13.1046C127.882 13.1046 128.008 13.1046 128.071 13.231C128.324 13.863 128.135 14.179 128.008 14.6214C127.882 15.0006 127.692 15.443 127.503 15.8222C127.313 16.2014 127.123 16.5806 126.871 16.9598C126.618 17.339 126.491 17.7182 125.859 17.9078C125.733 17.971 125.607 17.9078 125.543 17.7814ZM126.618 24.1646C126.491 23.343 126.871 22.8374 127.187 22.2686C127.503 21.6998 127.755 21.1942 128.135 20.6254C128.451 20.1198 128.83 19.551 129.209 19.0454C129.588 18.5398 129.841 17.971 130.599 17.7182C130.726 17.655 130.852 17.7182 130.852 17.8446V17.9078C130.979 18.7294 130.599 19.235 130.283 19.8038C129.967 20.3726 129.715 20.8782 129.335 21.447C129.019 21.9526 128.64 22.5214 128.261 23.027C127.882 23.5326 127.629 24.1014 126.871 24.3542C126.744 24.3542 126.681 24.291 126.618 24.1646ZM133.254 18.7926C133.443 17.9078 133.949 17.4022 134.455 16.8966C134.96 16.3278 135.466 15.8222 135.971 15.3166C136.477 14.811 137.046 14.3054 137.615 13.7998C138.183 13.2942 138.689 12.7886 139.574 12.599C139.7 12.599 139.763 12.6622 139.827 12.7254V12.7886C139.637 13.6734 139.131 14.179 138.626 14.6846C138.12 15.2534 137.615 15.759 137.109 16.2646C136.603 16.7702 136.035 17.2758 135.466 17.7814C134.897 18.287 134.391 18.7926 133.507 18.9822C133.38 18.9822 133.317 18.919 133.254 18.8558V18.7926Z" fill="#C475BD"/>
<circle cx="80" cy="50" r="35" fill="white"/>
<path fill-rule="evenodd" clip-rule="evenodd" d="M80 82.8125C98.1218 82.8125 112.812 68.1218 112.812 50C112.812 42.6118 111.464 35.7939 107.344 30.3093C101.357 22.3413 90.7336 17.1875 80 17.1875C71.8574 17.1875 65.5013 20.1534 59.7656 25.0639C52.7361 31.0819 47.1875 40.0207 47.1875 50C47.1875 58.6705 49.4567 66.5555 54.9495 72.4219C60.9369 78.8165 70.5487 82.8125 80 82.8125ZM80 85C99.33 85 115 69.33 115 50C115 30.67 99.33 15 80 15C60.67 15 45 30.67 45 50C45 69.33 60.67 85 80 85Z" fill="#C475BD"/>
<path fill-rule="evenodd" clip-rule="evenodd" d="M70 33.5521L69.75 56L70 66L88 56L97.6702 50L70 33.5521ZM68.9824 31.7474C69.5855 31.4091 70.3245 31.4183 70.919 31.7717L90 43.5L98.8096 48.3506C99.3903 48.6958 99.75 49.3207 99.75 50C99.75 50.6793 99.3903 51.3042 98.8096 51.6494L70.919 68.2283C70.3245 68.5817 69.5855 68.5909 68.9824 68.2526C68.3783 67.9137 68 67.2757 68 66.5789L68.25 43.5L68 33.4211C68 32.7243 68.3783 32.0863 68.9824 31.7474Z" fill="#6AAFCB"/>
<path d="M150.861 3.04976L149.849 5.13536L151.619 6.77856C151.935 7.03136 151.682 7.53696 151.303 7.47376L148.838 7.15776L147.827 9.43296C147.701 9.81216 147.132 9.74896 147.069 9.36976L146.626 6.90496L144.414 6.71536C143.972 6.65216 143.845 6.14656 144.225 5.95696L146.247 4.81936L145.805 2.48096C145.741 2.10176 146.184 1.84896 146.5 2.10176L148.269 3.68176L150.292 2.54416C150.671 2.29136 151.05 2.67056 150.861 3.04976Z" fill="#004E6E"/>
</g>
<defs>
<clipPath id="clip0_1341_8650">
<rect width="158" height="99.224" fill="white"/>
</clipPath>
</defs>
</svg>
