<svg height="250" viewBox="0 0 400 250" width="400" xmlns="http://www.w3.org/2000/svg"><path d="m200 63.9c-15.9.3-31.2 7.1-42 18.4-5.4 5.6-9.8 12.2-12.7 19.4-2.9 7.3-4.4 14.9-4.4 22.6s1.5 15.5 4.6 22.6 7.4 13.7 12.8 19.1 12 9.8 19.1 12.7c7.2 2.9 14.9 4.4 22.6 4.4 7.8 0 15.4-1.5 22.6-4.4 7.1-2.9 13.7-7.3 19.1-12.7s9.8-12 12.8-19.1 4.6-14.9 4.6-22.6c.2-15.5-6.1-30.9-17-42-5.4-5.6-12-10.1-19.2-13.2-7.3-3.1-15.1-4.7-23-4.9v-.3zm0-1c16-.2 32.2 6.1 43.9 17.6 5.7 5.7 10.5 12.5 13.7 20.1 3.2 7.4 4.9 15.7 4.9 23.8.2 16.4-6.6 32.6-18.2 44.2-5.7 5.7-12.7 10.5-20.3 13.7s-15.7 4.7-24 4.9c-16.4 0-32.7-6.8-44.2-18.4-5.7-5.7-10.5-12.8-13.5-20.3-3-7.6-4.7-15.7-4.7-24 0-16.4 6.9-32.6 18.6-43.9 5.9-5.6 12.8-10.1 20.3-13.2 7.6-2.9 15.5-4.4 23.6-4.1l-.1-.4z" fill="#187aa2"/><path d="m206.2 141.9c-4.1-.2-8.1-.2-12.2-.2h-1v1c0 4.1.2 8.1.2 12.2v.8h.8c2-.2 4.2-.2 6.2-.3l6.1-.5c.3-3.9.5-8.1.7-12.2v-.8zm2.9-48.8h-19.2l.2 1 1.9 18.2c.3 3 .5 6.1.8 9.1.2 3 .5 6.1.8 9.1v.5h.5c4.1-.2 8.3-.3 12.3-.5l1.9-18.1c.7-6.1 1.4-12.2 1.9-18.4v-1h-1.1z" fill="#c3c4c7"/></svg>
