<svg width="268" height="64" viewBox="0 0 268 64" fill="none" xmlns="http://www.w3.org/2000/svg">
<path d="M79.3744 23.2726L75.3162 38.8639L71.2609 23.2726H67.1649L68.1191 26.6137L64.5482 39.3875L60.6646 23.2726H56.7271L62.2616 43.6319H66.5526L69.8689 32.7475L72.9758 43.6319H77.2667L83.0762 23.2726H79.3744ZM120.669 29.1723C119.782 28.9671 118.875 28.855 117.965 28.8377C113.012 28.8377 110.307 32.1483 110.307 36.9803C110.307 41.8108 113.012 43.9999 116.206 43.9999C117.898 43.9439 119.527 43.3475 120.855 42.2981V43.6363H124.251V23.2726H120.67L120.667 29.1723H120.669ZM120.669 39.4719C119.514 40.5366 118.42 41.1141 117.265 41.1141C115.291 41.1141 114.014 39.805 114.014 36.7374C114.014 33.4254 115.595 31.6945 118.33 31.6945C119.13 31.7046 119.923 31.8588 120.667 32.1483V39.4719H120.669ZM103.561 31.5723H103.438V29.197H100.094V43.6319H103.677V35.0312C104.801 32.9046 106.169 32.205 108.446 32.205H108.81V29.0777C108.488 29.0412 108.164 29.0208 107.84 29.0166C105.897 29.0166 104.553 29.7745 103.558 31.5679L103.561 31.5723V31.5723ZM224.494 28.8319C219.543 28.8319 217.203 32.0246 217.203 36.4305C217.203 40.8348 219.543 43.9955 224.494 43.9955C229.446 43.9955 231.786 40.8348 231.786 36.4305C231.786 32.0232 229.409 28.8319 224.486 28.8319H224.494ZM224.494 41.1083C222.155 41.1083 220.912 39.5897 220.912 36.4305C220.912 33.2697 222.157 31.7512 224.494 31.7512C226.83 31.7512 228.051 33.2697 228.051 36.4305C228.051 39.5897 226.826 41.1097 224.486 41.1097H224.494V41.1083ZM252.305 28.8319C250.756 28.8319 248.993 29.6755 247.383 30.7475L246.961 31.021C246.203 29.4094 244.683 28.8319 243.011 28.8319C241.463 28.8319 239.702 29.6232 238.09 30.6865V29.197H234.686V43.6319H238.302V33.2697C239.641 32.3897 241.066 31.8414 242.094 31.8414C243.278 31.8414 244.009 32.4726 244.009 34.5148V43.6319H247.59V33.3075C248.928 32.4275 250.353 31.8501 251.382 31.8501C252.566 31.8501 253.294 32.4814 253.294 34.5235V43.6392H256.877V33.6639C256.878 30.8712 255.209 28.8319 252.289 28.8319H252.304H252.305ZM89.9271 28.8319C84.9744 28.8319 82.6355 32.0246 82.6355 36.4305C82.6355 40.8348 84.9744 43.9955 89.9271 43.9955C94.8798 43.9955 97.2187 40.8348 97.2187 36.4305C97.2187 32.0232 94.8333 28.8319 89.9126 28.8319H89.9271V28.8319ZM89.9271 41.1083C87.5853 41.1083 86.346 39.5897 86.346 36.4305C86.346 33.2697 87.5911 31.7512 89.9271 31.7512C92.2631 31.7512 93.4805 33.2697 93.4805 36.4305C93.4805 39.5897 92.2515 41.1097 89.9126 41.1097H89.9271V41.1083ZM148.553 31.5665H148.43V29.197H145.073V43.6319H148.656V35.0312C149.78 32.9046 151.147 32.205 153.427 32.205H153.79V29.0777C153.468 29.0411 153.143 29.0207 152.819 29.0166C150.877 29.0166 149.539 29.7745 148.538 31.5679H148.553V31.5665ZM135.345 23.2726H128.689V43.6319H132.518V36.5497H135.329C139.674 36.5497 142.835 34.2108 142.835 29.8355C142.835 25.4603 139.674 23.2726 135.329 23.2726H135.344H135.345ZM135.374 33.5737H132.518V26.2806H135.36C137.677 26.2806 138.822 27.5577 138.822 29.8355C138.822 32.1134 137.76 33.5737 135.36 33.5737H135.374ZM187.774 33.2392C187.774 32.1439 188.958 31.7192 190.234 31.7192C191.591 31.7439 192.939 31.9563 194.237 32.3505V29.3817C192.843 28.9896 191.399 28.8048 189.952 28.8334C186.489 28.8334 184.054 30.4755 184.054 33.149C184.054 38.3446 191.216 37.0094 191.216 39.5301C191.216 40.7752 190.091 41.1112 188.452 41.1112C187.297 41.1112 185.444 40.6603 184.106 40.1948V43.1432C185.448 43.679 186.875 43.9692 188.32 43.9999C191.69 43.9999 194.912 42.9963 194.912 39.3817C194.951 34.3635 187.774 35.6712 187.774 33.2392ZM162.304 28.8319C157.686 28.8319 155.284 32.4145 155.284 36.3374C155.284 41.7163 158.109 43.9955 162.694 43.9955C164.5 44.003 166.296 43.7257 168.016 43.1737V40.1919C166.512 40.7446 165.155 41.0777 163.694 41.0777C161.022 41.0777 159.235 40.349 159.143 37.1883H168.391C168.475 36.4828 168.516 35.773 168.513 35.0632C168.502 32.0232 166.89 28.8319 162.304 28.8319V28.8319ZM159.174 34.8188C159.383 32.8145 160.483 31.5374 162.272 31.5374C164.187 31.5374 164.765 33.0574 164.765 34.8188H159.174ZM174.73 33.2377C174.73 32.1439 175.917 31.7192 177.191 31.7192C178.548 31.7439 179.897 31.9563 181.194 32.3505V29.3817C179.801 28.9898 178.357 28.805 176.91 28.8334C173.447 28.8334 171.012 30.4755 171.012 33.149C171.012 38.3446 178.174 37.0094 178.174 39.5301C178.174 40.7752 177.051 41.1112 175.411 41.1112C174.256 41.1112 172.403 40.6603 171.066 40.1948V43.1432C172.408 43.6793 173.835 43.9695 175.28 43.9999C178.651 43.9999 181.875 42.9963 181.875 39.3817C181.902 34.3635 174.73 35.6712 174.73 33.2392V33.2377ZM206.686 36.2777C206.686 32.9075 208.541 31.7512 210.729 31.7512C212.107 31.7934 213.47 32.0741 214.755 32.5803V29.5315C213.445 29.0595 212.061 28.8231 210.669 28.8334C205.898 28.8334 202.951 31.7512 202.951 36.4595C202.951 40.925 205.078 43.9955 210.457 43.9955C212.157 43.9955 213.478 43.661 214.937 43.1737V40.1977C213.296 40.829 212.035 41.0777 210.912 41.0777C208.541 41.0777 206.686 39.9839 206.686 36.2777V36.2777ZM197.322 43.6319H200.921V39.9228H197.322V43.6319ZM12.682 31.9999C12.682 38.4959 16.458 44.1075 21.9286 46.7679L14.1031 25.3206C13.1645 27.4222 12.6803 29.6983 12.682 31.9999V31.9999ZM29.0907 48.4086V48.4072C31.002 48.4072 32.8333 48.0785 34.5409 47.4806C34.4973 47.4079 34.458 47.3352 34.4246 47.2537L29.3802 33.4385L24.458 47.7425C25.9242 48.1774 27.4806 48.4086 29.0907 48.4086V48.4086ZM31.3526 24.3068L37.2842 41.9475L38.9205 36.4785C39.6275 34.2094 40.1671 32.5774 40.1671 31.1737C40.1671 29.1446 39.4398 27.741 38.8158 26.6486C37.9838 25.2959 37.2042 24.1526 37.2042 22.8014C37.2042 21.2886 38.3475 19.8865 39.9591 19.8865C40.0318 19.8865 40.1002 19.8966 40.1715 19.901C37.1502 17.1237 33.1946 15.5846 29.0907 15.5897C26.3715 15.5887 23.6947 16.2643 21.3017 17.5558C18.9087 18.8473 16.8747 20.7139 15.3831 22.9875C15.7686 23.0006 16.1293 23.0065 16.4391 23.0065C18.1555 23.0065 20.8115 22.7985 20.8115 22.7985C21.6958 22.7475 21.8005 24.0465 20.9176 24.1526C20.9176 24.1526 20.0275 24.2545 19.0384 24.3068L25.0165 42.0828L28.6064 31.3148L26.0507 24.3068C25.4752 24.2714 24.9009 24.219 24.3285 24.1497C23.4456 24.0988 23.546 22.7475 24.4304 22.797C24.4304 22.797 27.1431 23.005 28.7547 23.005C30.4711 23.005 33.1271 22.7955 33.1271 22.7955C34.0115 22.7461 34.1162 24.045 33.2318 24.1512C33.2318 24.1512 32.3416 24.253 31.3526 24.3054V24.3068ZM37.338 46.1832V46.1846C39.8206 44.742 41.8809 42.6728 43.3129 40.184C44.7449 37.6953 45.4984 34.8742 45.498 32.0028C45.498 29.149 44.7678 26.4654 43.4864 24.1294C43.5576 24.653 43.5969 25.213 43.5969 25.8166C43.5969 27.485 43.2856 29.3526 42.3504 31.693L37.338 46.1832ZM29.0907 50.909C18.6471 50.909 10.1816 42.4435 10.1816 31.9999C10.1816 21.5563 18.6471 13.0908 29.0907 13.0908C39.5344 13.0908 47.9998 21.5563 47.9998 31.9999C47.9998 42.4435 39.5344 50.909 29.0907 50.909Z" fill="#2C3338"/>
</svg>
