<svg width="202" height="171" viewBox="0 0 202 171" fill="none" xmlns="http://www.w3.org/2000/svg">
<path d="M151.785 100.958C151.785 100.958 149.985 113.158 154.585 117.558C159.285 121.958 159.385 122.858 167.085 126.458C174.785 130.058 197.385 140.758 197.385 140.758V75.2578C197.385 75.2578 165.285 81.9578 151.785 100.958Z" fill="url(#paint0_linear_2442_33343)"/>
<path d="M197.386 75.2574L152.686 71.4574V64.8574L197.386 68.6574V75.2574Z" fill="url(#paint1_linear_2442_33343)"/>
<path d="M150.786 165.357L82.6855 159.657C82.6855 143.057 137.486 100.857 137.486 100.857L150.786 165.357Z" fill="url(#paint2_linear_2442_33343)"/>
<path d="M150.785 154.057L163.185 166.357L148.685 165.157C148.685 165.157 139.985 146.057 130.685 139.357C121.385 132.757 108.885 110.957 103.685 108.357C98.4853 105.757 100.585 87.957 93.2853 85.157C86.0853 82.357 81.4854 65.457 81.4854 65.457L105.085 67.457C105.385 70.957 106.185 74.457 108.085 75.657C112.685 78.557 109.085 84.557 112.585 87.857C116.185 91.157 118.685 93.257 118.685 93.257C119.785 99.257 120.785 105.457 121.085 108.757C122.985 128.057 145.285 140.657 153.485 147.057L150.785 154.057Z" fill="#003C65"/>
<path d="M104.986 67.4573L38.6855 61.9573C38.6855 58.3573 41.5855 55.6573 45.1855 55.9573L104.986 60.9573V67.4573Z" fill="url(#paint3_linear_2442_33343)"/>
<path d="M197.385 67.1576V167.458C197.385 168.458 196.585 169.158 195.585 169.158L166.585 166.758L29.7852 155.258C28.8852 155.158 28.2852 154.458 28.2852 153.558V53.2576C28.2852 52.2576 29.0852 51.5576 30.0852 51.5576L195.885 65.4576C196.685 65.5576 197.385 66.2576 197.385 67.1576Z" stroke="#003C65" stroke-width="1.8" stroke-miterlimit="10" stroke-linecap="round" stroke-linejoin="round"/>
<path d="M201.286 63.3574V163.657C201.286 164.657 200.486 165.357 199.486 165.357L197.386 165.157V67.0574C197.386 66.1574 196.686 65.4574 195.886 65.3574L32.0859 51.6574V49.5574C32.0859 48.5574 32.8859 47.8574 33.8859 47.8574L199.686 61.7574C200.586 61.8574 201.286 62.5574 201.286 63.3574Z" fill="#003C65"/>
<path d="M197.385 140.758V169.258L163.185 166.358L150.785 154.058L163.185 124.558L197.385 140.758Z" fill="white"/>
<path d="M197.386 67.1576V75.2576L28.1855 61.0576V53.2576C28.1855 52.2576 28.9855 51.5576 29.9855 51.5576L195.786 65.4576C196.686 65.5576 197.386 66.2576 197.386 67.1576Z" stroke="#003C65" stroke-width="1.8" stroke-miterlimit="10" stroke-linecap="round" stroke-linejoin="round"/>
<path d="M36.4757 57.7912C36.9238 57.0296 36.5925 56.0035 35.7357 55.4994C34.8788 54.9953 33.821 55.2041 33.3729 55.9657C32.9248 56.7273 33.2561 57.7534 34.1129 58.2575C34.9698 58.7616 36.0276 58.5529 36.4757 57.7912Z" stroke="#003C65" stroke-width="1.8" stroke-miterlimit="10" stroke-linecap="round" stroke-linejoin="round"/>
<path d="M43.4669 58.3381C43.915 57.5765 43.5837 56.5504 42.7269 56.0463C41.87 55.5422 40.8122 55.7509 40.3641 56.5126C39.916 57.2742 40.2473 58.3003 41.1042 58.8044C41.961 59.3085 43.0188 59.0997 43.4669 58.3381Z" stroke="#003C65" stroke-width="1.8" stroke-miterlimit="10" stroke-linecap="round" stroke-linejoin="round"/>
<path d="M50.3205 58.9202C50.7686 58.1585 50.4372 57.1324 49.5804 56.6283C48.7236 56.1242 47.6657 56.333 47.2176 57.0946C46.7695 57.8562 47.1008 58.8823 47.9577 59.3864C48.8145 59.8905 49.8723 59.6818 50.3205 58.9202Z" stroke="#003C65" stroke-width="1.8" stroke-miterlimit="10" stroke-linecap="round" stroke-linejoin="round"/>
<path d="M132.386 61.3574C132.386 61.3574 132.386 70.5574 127.886 70.3574C127.786 70.2574 127.686 70.2574 127.586 70.1574" stroke="#003C65" stroke-miterlimit="10"/>
<path d="M150.785 154.058L163.185 166.358L197.385 169.258V154.258L160.585 130.758L150.785 154.058Z" fill="#8BBECE"/>
<path d="M132.886 59.9576L131.686 59.5576" stroke="#003C65" stroke-miterlimit="10"/>
<path d="M105.385 57.957C105.385 57.957 104.485 72.557 108.185 75.757C110.585 77.957 110.885 82.957 111.385 85.857C111.685 87.557 113.585 88.757 114.885 89.957L118.785 93.457L115.885 78.157L105.385 57.957Z" fill="#8BBECE"/>
<path d="M118.785 93.357C118.785 93.357 116.285 91.257 112.685 87.957C109.085 84.657 112.785 78.557 108.185 75.757C106.185 74.557 105.385 71.057 105.185 67.557C104.785 62.857 105.385 57.957 105.385 57.957L110.685 67.957L115.985 78.057C115.985 78.057 116.985 81.757 118.785 93.257C118.785 93.257 118.785 93.357 118.785 93.357Z" stroke="#003C65" stroke-width="1.8" stroke-miterlimit="10" stroke-linecap="round" stroke-linejoin="round"/>
<path d="M132.385 61.2575L131.685 59.5575L126.085 45.7575L106.685 44.1575C106.885 44.2575 106.985 44.4575 107.185 44.5575C105.085 43.6575 101.585 42.2575 98.9854 41.8575C98.1854 41.7575 97.5854 41.7575 96.9854 41.8575V36.1575C96.9854 36.1575 125.785 31.8575 130.085 35.8575C139.085 44.1575 142.385 48.1575 149.785 59.3575C151.385 61.7575 152.185 65.4575 152.685 69.8575" fill="white"/>
<path d="M132.385 61.2575L131.685 59.5575L126.085 45.7575L106.685 44.1575C106.885 44.2575 106.985 44.4575 107.185 44.5575C105.085 43.6575 101.585 42.2575 98.9854 41.8575C98.1854 41.7575 97.5854 41.7575 96.9854 41.8575V36.1575C96.9854 36.1575 125.785 31.8575 130.085 35.8575C139.085 44.1575 142.385 48.1575 149.785 59.3575C151.385 61.7575 152.185 65.4575 152.685 69.8575" stroke="#003C65" stroke-width="1.8" stroke-miterlimit="10" stroke-linecap="round" stroke-linejoin="round"/>
<path d="M117.085 21.9576V49.4576C117.085 50.1576 116.485 50.5576 115.785 50.5576L31.5852 43.5576C30.8852 43.4576 30.2852 42.9576 30.2852 42.2576V14.6576C30.2852 13.9576 30.8852 13.5576 31.5852 13.5576L115.785 20.5576C116.485 20.7576 117.085 21.2576 117.085 21.9576Z" fill="white" stroke="#003C65" stroke-width="1.8" stroke-miterlimit="10" stroke-linecap="round" stroke-linejoin="round"/>
<path d="M32.4854 12.5571V13.5571L115.385 20.7571C116.085 20.8571 116.585 21.3571 116.585 22.0571V48.5571L117.485 48.6571C118.185 48.7571 118.685 48.2571 118.685 47.5571V20.0571C118.685 19.3571 118.085 18.8571 117.485 18.7571L33.7854 11.5571C33.0854 11.3571 32.4854 11.8571 32.4854 12.5571Z" fill="#003C65"/>
<path d="M59.9857 23.1572L60.7857 24.8572L62.6857 25.2572L61.2857 26.3572L61.6857 28.0572L59.9857 27.1572L58.3857 27.8572L58.6857 26.1572L57.3857 24.7572L59.1857 24.6572L59.9857 23.1572Z" fill="#003C65"/>
<path d="M66.6859 23.7568L67.4859 25.3568L69.2859 25.7568L67.9859 26.8568L68.2859 28.6568L66.6859 27.6568L65.0859 28.3568L65.3859 26.6568L64.0859 25.3568L65.8859 25.2568L66.6859 23.7568Z" fill="#003C65"/>
<path d="M73.3855 24.2568L74.1855 25.9568L75.9855 26.3568L74.6855 27.4568L74.9855 29.1568L73.3855 28.2568L71.6855 28.9568L72.0855 27.2568L70.6855 25.8568L72.5855 25.7568L73.3855 24.2568Z" fill="#003C65"/>
<path d="M79.9857 24.8574L80.8857 26.4574L82.6857 26.8574L81.3857 28.0574L81.6857 29.7574L79.9857 28.8574L78.3857 29.4574L78.6857 27.7574L77.3857 26.4574L79.1857 26.3574L79.9857 24.8574Z" fill="#003C65"/>
<path d="M86.6859 25.457L87.4859 27.057L89.2859 27.457L87.9859 28.557L88.2859 30.357L86.6859 29.357L85.0859 30.057L85.3859 28.357L84.0859 27.057L85.8859 26.957L86.6859 25.457Z" fill="#003C65"/>
<path d="M58.6855 32.1572L99.6855 35.6572" stroke="#003C65" stroke-width="1.8" stroke-miterlimit="10" stroke-linecap="round" stroke-linejoin="round"/>
<path d="M58.6855 35.457L87.2855 37.857" stroke="#003C65" stroke-width="1.8" stroke-miterlimit="10" stroke-linecap="round" stroke-linejoin="round"/>
<path d="M132.386 61.2577V61.3577C132.386 61.3577 132.386 67.4577 129.986 69.5577C129.386 70.0577 128.786 70.3577 127.886 70.2577C127.786 70.2577 127.686 70.1577 127.586 70.0577C127.386 69.8577 127.086 69.5577 126.786 69.2577C125.886 68.2577 124.686 66.5577 123.186 64.5577C121.486 62.2577 119.586 59.3577 117.486 56.5577C116.786 55.5577 115.986 54.5577 115.186 53.5577C112.586 50.1577 109.786 46.8577 107.086 44.5577C106.986 44.4577 106.886 44.2577 106.686 44.1577C104.586 41.9577 102.286 41.3577 100.286 41.4577C99.6855 41.4577 99.1855 41.6577 98.7855 41.9577C97.9855 42.5577 97.6855 43.6577 98.2855 44.7577L103.886 55.5577L105.186 58.0577L110.486 68.0577L115.786 78.1577C115.886 78.7577 117.286 85.8577 118.586 93.2577C118.586 93.3577 118.586 93.3577 118.586 93.4577C119.686 99.4577 120.686 105.658 120.986 108.958C122.886 128.258 145.186 140.858 153.386 147.258L162.986 124.658C162.986 124.658 152.186 118.658 151.086 111.058C150.486 106.858 153.686 86.1577 152.586 71.5577C152.586 70.9577 152.486 70.4577 152.486 69.9577" fill="white"/>
<path d="M132.386 61.2577V61.3577C132.386 61.3577 132.386 67.4577 129.986 69.5577C129.386 70.0577 128.786 70.3577 127.886 70.2577C127.786 70.2577 127.686 70.1577 127.586 70.0577C127.386 69.8577 127.086 69.5577 126.786 69.2577C125.886 68.2577 124.686 66.5577 123.186 64.5577C121.486 62.2577 119.586 59.3577 117.486 56.5577C116.786 55.5577 115.986 54.5577 115.186 53.5577C112.586 50.1577 109.786 46.8577 107.086 44.5577C106.986 44.4577 106.886 44.2577 106.686 44.1577C104.586 41.9577 102.286 41.3577 100.286 41.4577C99.6855 41.4577 99.1855 41.6577 98.7855 41.9577C97.9855 42.5577 97.6855 43.6577 98.2855 44.7577L103.886 55.5577L105.186 58.0577L110.486 68.0577L115.786 78.1577C115.886 78.7577 117.286 85.8577 118.586 93.2577C118.586 93.3577 118.586 93.3577 118.586 93.4577C119.686 99.4577 120.686 105.658 120.986 108.958C122.886 128.258 145.186 140.858 153.386 147.258L162.986 124.658C162.986 124.658 152.186 118.658 151.086 111.058C150.486 106.858 153.686 86.1577 152.586 71.5577C152.586 70.9577 152.486 70.4577 152.486 69.9577" stroke="#003C65" stroke-width="1.8" stroke-miterlimit="10" stroke-linecap="round" stroke-linejoin="round"/>
<path d="M132.386 61.3576C132.386 61.3576 132.386 67.4576 129.986 69.5576C129.386 70.0576 128.786 70.3576 127.886 70.2576C127.786 70.2576 127.686 70.1576 127.586 70.0576C127.386 69.8576 127.086 69.5576 126.786 69.2576C125.886 68.2576 124.686 66.5576 123.186 64.5576C121.486 62.2576 119.586 59.3576 117.486 56.5576C116.786 55.5576 115.986 54.5576 115.186 53.5576L131.586 59.5576L132.286 61.2576L132.386 61.3576Z" fill="white" stroke="#003C65" stroke-width="1.8" stroke-miterlimit="10" stroke-linecap="round" stroke-linejoin="round"/>
<path d="M49.4526 37.5476C52.8326 36.9987 55.0056 33.0624 54.3062 28.7557C53.6068 24.4489 50.2998 21.4026 46.9198 21.9515C43.5398 22.5003 41.3668 26.4366 42.0662 30.7434C42.7656 35.0502 46.0726 38.0965 49.4526 37.5476Z" fill="#8BBECE"/>
<path d="M53.2986 34.4016C55.6651 30.4115 53.9252 25.0072 49.4125 22.3308C44.8998 19.6545 39.3232 20.7196 36.9567 24.7097C34.5903 28.6999 36.3301 34.1042 40.8428 36.7805C45.3555 39.4569 50.9322 38.3918 53.2986 34.4016Z" stroke="#003C65" stroke-width="1.8" stroke-miterlimit="10" stroke-linecap="round" stroke-linejoin="round"/>
<path d="M48.408 30.0876C49.3658 28.4726 48.6405 26.2726 46.7879 25.1739C44.9353 24.0752 42.657 24.4938 41.6992 26.1089C40.7413 27.7239 41.4667 29.9239 43.3192 31.0226C45.1718 32.1213 47.4501 31.7027 48.408 30.0876Z" fill="#003C65"/>
<path d="M40.2861 35.8574C40.2861 33.3574 42.4861 31.5574 45.1861 31.7574C47.8861 32.0574 50.0861 34.2574 50.0861 36.8574C49.9861 39.3574 40.2861 38.3574 40.2861 35.8574Z" fill="#003C65"/>
<path d="M197.385 140.758V169.258L163.185 166.358L150.785 154.058L163.185 124.558L197.385 140.758Z" stroke="#003C65" stroke-width="1.8" stroke-miterlimit="10" stroke-linecap="round" stroke-linejoin="round"/>
<path d="M121.185 108.857C121.185 108.857 122.785 118.857 127.585 124.657C132.485 130.357 153.485 147.157 153.485 147.157L160.485 130.657C160.485 130.657 145.885 122.357 143.785 111.957C141.785 101.557 144.485 64.0574 140.785 62.0574C137.085 60.0574 132.285 61.3574 132.285 61.3574C132.285 61.3574 132.285 71.0574 127.785 70.3574C123.285 69.5574 100.785 40.4574 98.2852 44.6574L115.785 78.0574L121.185 108.857Z" fill="url(#paint4_linear_2442_33343)"/>
<path d="M117.485 56.5576L132.385 61.3576C132.385 61.3576 131.585 72.8576 127.885 70.3576C124.285 67.7576 117.485 56.5576 117.485 56.5576Z" fill="#8BBECE"/>
<path d="M132.386 61.2577V61.3577C132.386 61.3577 132.386 67.4577 129.986 69.5577C129.386 70.0577 128.786 70.3577 127.886 70.2577C127.786 70.2577 127.686 70.1577 127.586 70.0577C127.386 69.8577 127.086 69.5577 126.786 69.2577C125.886 68.2577 124.686 66.5577 123.186 64.5577C121.486 62.2577 119.586 59.3577 117.486 56.5577C116.786 55.5577 115.986 54.5577 115.186 53.5577C112.586 50.1577 109.786 46.8577 107.086 44.5577C106.986 44.4577 106.886 44.2577 106.686 44.1577C104.586 41.9577 102.286 41.3577 100.286 41.4577C99.6855 41.4577 99.1855 41.6577 98.7855 41.9577C97.9855 42.5577 97.6855 43.6577 98.2855 44.7577L103.886 55.5577L105.186 58.0577L110.486 68.0577L115.786 78.1577C115.886 78.7577 117.286 85.8577 118.586 93.2577C118.586 93.3577 118.586 93.3577 118.586 93.4577C119.686 99.4577 120.686 105.658 120.986 108.958C122.886 128.258 145.186 140.858 153.386 147.258L162.986 124.658C162.986 124.658 152.186 118.658 151.086 111.058C150.486 106.858 153.686 86.1577 152.586 71.5577C152.586 70.9577 152.486 70.4577 152.486 69.9577" stroke="#003C65" stroke-width="1.8" stroke-miterlimit="10" stroke-linecap="round" stroke-linejoin="round"/>
<path d="M69.6859 79.8575V146.757C69.6859 147.457 69.0859 147.957 68.3859 147.857L20.3859 143.357C19.6859 143.257 19.0859 142.657 19.0859 141.957V74.9575C19.0859 74.2575 19.6859 73.7575 20.3859 73.8575L68.2859 78.4575C69.0859 78.4575 69.6859 79.1575 69.6859 79.8575Z" fill="white" stroke="#003C65" stroke-width="1.8" stroke-miterlimit="10" stroke-linecap="round" stroke-linejoin="round"/>
<path d="M71.8855 77.6579V144.558C71.8855 145.258 71.2855 145.758 70.5855 145.658L69.7855 145.558V79.8579C69.7855 79.1579 69.1856 78.5579 68.4855 78.4579L21.1855 73.9579V72.8579C21.1855 72.1579 21.7855 71.6579 22.4855 71.7579L70.3855 76.3579C71.2855 76.3579 71.8855 76.9579 71.8855 77.6579Z" fill="#003C65"/>
<path d="M60.1855 114.958L31.1855 112.158V112.058C31.1855 97.8581 42.6855 87.3581 56.7855 88.7581L61.8855 89.2581V113.458C61.8855 114.358 61.0855 115.058 60.1855 114.958Z" fill="#8BBECE"/>
<path d="M61.8863 115.157L26.9863 111.857V104.357L61.8863 107.657V115.157Z" fill="url(#paint5_linear_2442_33343)"/>
<path d="M27.4863 125.258L60.9863 128.458" stroke="#003C65" stroke-width="1.8" stroke-miterlimit="10" stroke-linecap="round" stroke-linejoin="round"/>
<path d="M27.4863 128.558L50.8863 130.758" stroke="#003C65" stroke-width="1.8" stroke-miterlimit="10" stroke-linecap="round" stroke-linejoin="round"/>
<path d="M60.5863 114.958L28.2863 111.858C27.5863 111.758 26.9863 111.158 26.9863 110.358V82.2578C26.9863 81.5578 27.5863 80.9578 28.2863 81.0578L60.5863 84.1578C61.2863 84.2578 61.8863 84.8578 61.8863 85.6578V113.858C61.8863 114.558 61.2863 115.058 60.5863 114.958Z" stroke="#003C65" stroke-width="1.8" stroke-miterlimit="10" stroke-linecap="round" stroke-linejoin="round"/>
<path d="M57.7855 118.058L56.9855 119.558H55.1855L56.4855 120.958L56.1855 122.658L57.7855 121.958L59.4855 122.958L59.0855 121.158L60.4855 120.058L58.5855 119.658L57.7855 118.058Z" fill="#003C65"/>
<path d="M51.0854 117.358L50.2854 118.858L48.4854 118.958L49.7854 120.258L49.4854 121.958L51.0854 121.358L52.7854 122.358L52.3854 120.558L53.7854 119.458L51.8854 119.058L51.0854 117.358Z" fill="#003C65"/>
<path d="M44.3861 116.758L43.5861 118.258L41.7861 118.358L43.0861 119.658L42.7861 121.358L44.3861 120.658L46.0861 121.658L45.6861 119.958L47.0861 118.858L45.1861 118.358L44.3861 116.758Z" fill="#003C65"/>
<path d="M37.6859 116.158L36.8859 117.658H35.0859L36.3859 119.058L36.0859 120.758L37.6859 120.058L39.3859 121.058L38.9859 119.258L40.3859 118.158L38.4859 117.758L37.6859 116.158Z" fill="#003C65"/>
<path d="M30.9857 115.458L30.1857 116.958L28.3857 117.058L29.6857 118.358L29.3857 120.058L30.9857 119.458L32.6857 120.358L32.2857 118.658L33.6857 117.558L31.7857 117.158L30.9857 115.458Z" fill="#003C65"/>
<defs>
<linearGradient id="paint0_linear_2442_33343" x1="151.427" y1="104.143" x2="197.392" y2="104.143" gradientUnits="userSpaceOnUse">
<stop stop-color="#E8E8E8"/>
<stop offset="1" stop-color="#EEEEEE"/>
</linearGradient>
<linearGradient id="paint1_linear_2442_33343" x1="152.658" y1="68.1835" x2="197.392" y2="68.1835" gradientUnits="userSpaceOnUse">
<stop stop-color="#E8E8E8"/>
<stop offset="1" stop-color="#EEEEEE"/>
</linearGradient>
<linearGradient id="paint2_linear_2442_33343" x1="82.6677" y1="127.962" x2="150.747" y2="127.962" gradientUnits="userSpaceOnUse">
<stop stop-color="#E8E8E8"/>
<stop offset="1" stop-color="#EEEEEE"/>
</linearGradient>
<linearGradient id="paint3_linear_2442_33343" x1="38.7004" y1="58.6534" x2="104.989" y2="58.6534" gradientUnits="userSpaceOnUse">
<stop stop-color="#E8E8E8"/>
<stop offset="1" stop-color="#EEEEEE"/>
</linearGradient>
<linearGradient id="paint4_linear_2442_33343" x1="98.4212" y1="93.3868" x2="160.616" y2="93.3868" gradientUnits="userSpaceOnUse">
<stop stop-color="#E8E8E8"/>
<stop offset="1" stop-color="#EEEEEE"/>
</linearGradient>
<linearGradient id="paint5_linear_2442_33343" x1="45.0544" y1="116.155" x2="44.985" y2="103.949" gradientUnits="userSpaceOnUse">
<stop stop-color="#E8E8E8"/>
<stop offset="1" stop-color="#EEEEEE"/>
</linearGradient>
</defs>
</svg>
