<svg width="64" height="64" viewBox="0 0 64 64" fill="none" xmlns="http://www.w3.org/2000/svg">
<circle cx="32" cy="32" r="32" fill="#069E08"/>
<path fill-rule="evenodd" clip-rule="evenodd" d="M39.1667 31.1667C39.1667 34.8486 36.1819 37.8333 32.5 37.8333C28.8181 37.8333 25.8333 34.8486 25.8333 31.1667C25.8333 27.4848 28.8181 24.5 32.5 24.5C36.1819 24.5 39.1667 27.4848 39.1667 31.1667ZM41.6667 31.1667C41.6667 36.2293 37.5626 40.3333 32.5 40.3333C30.1717 40.3333 28.0462 39.4653 26.4294 38.0352L20.8231 42.9407L19.1769 41.0593L24.7986 36.1402C23.8716 34.7077 23.3333 33 23.3333 31.1667C23.3333 26.1041 27.4374 22 32.5 22C37.5626 22 41.6667 26.1041 41.6667 31.1667Z" fill="white"/>
</svg>
