<svg width="55" height="55" fill="none" xmlns="http://www.w3.org/2000/svg">
    <circle cx="27.5" cy="27.5" r="27.5" fill="#3895BA"/>
    <mask id="a" maskUnits="userSpaceOnUse" x="14" y="18" width="28" height="20">
        <path fill-rule="evenodd" clip-rule="evenodd" d="M28 28a4.68 4.68 0 004.667-4.667A4.68 4.68 0 0028 18.667a4.68 4.68 0 00-4.667 4.666A4.68 4.68 0 0028 28zm-7-1.167h.933l.7 1.05c-2.45 1.05-4.55 2.567-5.6 4.55-1.633-.233-3.033-.7-3.033-1.4 0-1.983 3.383-4.2 7-4.2zm17.967 5.6c1.633-.233 3.033-.7 3.033-1.4 0-1.983-3.383-4.2-7-4.083h-.933c-.117.175-.234.32-.35.467a6.443 6.443 0 00-.35.466c2.45 1.05 4.55 2.567 5.6 4.55zM18.667 35c0-2.8 4.55-5.833 9.333-5.833S37.333 32.2 37.333 35c0 2.333-9.333 2.333-9.333 2.333s-9.333 0-9.333-2.333zm15.983-9.333H35c1.983 0 3.5-1.517 3.5-3.5 0-1.984-1.517-3.5-3.5-3.5a3.23 3.23 0 00-1.517.35A6.931 6.931 0 0135 23.333c0 .817-.117 1.634-.35 2.334zm-13.3 0H21c-1.983 0-3.5-1.517-3.5-3.5 0-1.984 1.517-3.5 3.5-3.5.583 0 1.05.116 1.517.35A6.931 6.931 0 0021 23.333c0 .817.117 1.634.35 2.334z" fill="#fff"/>
    </mask>
    <g mask="url(#a)">
        <path fill="#fff" d="M14 14h28v28H14z"/>
    </g>
</svg>