<svg width="64" height="64" viewBox="0 0 64 64" fill="none" xmlns="http://www.w3.org/2000/svg">
<circle cx="32" cy="32" r="32" fill="#069E08"/>
<path fill-rule="evenodd" clip-rule="evenodd" d="M37.8333 27.8333C38.7538 27.8333 39.5 27.0871 39.5 26.1667C39.5 25.2462 38.7538 24.5 37.8333 24.5C36.9129 24.5 36.1667 25.2462 36.1667 26.1667C36.1667 27.0871 36.9129 27.8333 37.8333 27.8333ZM37.8333 30.3333C40.1345 30.3333 42 28.4679 42 26.1667C42 23.8655 40.1345 22 37.8333 22C35.5321 22 33.6667 23.8655 33.6667 26.1667C33.6667 28.4679 35.5321 30.3333 37.8333 30.3333ZM34.0833 40.3333V37C34.0833 34.4687 32.0313 32.4167 29.5 32.4167H22.8333C20.302 32.4167 18.25 34.4687 18.25 37V40.3333H20.75V37C20.75 35.8494 21.6827 34.9167 22.8333 34.9167H29.5C30.6506 34.9167 31.5833 35.8494 31.5833 37V40.3333H34.0833ZM45.75 37V40.3333H43.25V37C43.25 35.8494 42.3173 34.9167 41.1667 34.9167H37V32.4167H41.1667C43.698 32.4167 45.75 34.4687 45.75 37ZM27.8333 26.1667C27.8333 27.0871 27.0871 27.8333 26.1667 27.8333C25.2462 27.8333 24.5 27.0871 24.5 26.1667C24.5 25.2462 25.2462 24.5 26.1667 24.5C27.0871 24.5 27.8333 25.2462 27.8333 26.1667ZM30.3333 26.1667C30.3333 28.4679 28.4679 30.3333 26.1667 30.3333C23.8655 30.3333 22 28.4679 22 26.1667C22 23.8655 23.8655 22 26.1667 22C28.4679 22 30.3333 23.8655 30.3333 26.1667Z" fill="white"/>
</svg>
