<svg width="55" height="56" fill="none" xmlns="http://www.w3.org/2000/svg"><circle cx="27.5" cy="27.638" r="27.5" fill="#055d9c"/><mask id="a" maskUnits="userSpaceOnUse" x="17" y="17" width="22" height="22"><path fill-rule="evenodd" clip-rule="evenodd" d="M32.487 30.292l6.013 6.013-2.333 2.333-6.013-6.013a8.124 8.124 0 01-4.487 1.346 8.167 8.167 0 118.166-8.166 8.123 8.123 0 01-1.346 4.487zm-6.82-10.32a5.84 5.84 0 00-5.834 5.833 5.84 5.84 0 005.834 5.833 5.84 5.84 0 005.833-5.833 5.84 5.84 0 00-5.833-5.834z" fill="#fff"/></mask><g mask="url(#a)"><path fill="#fff" d="M14 14.138h28v28H14z"/></g></svg>