<svg width="72" height="72" xmlns="http://www.w3.org/2000/svg" xmlns:xlink="http://www.w3.org/1999/xlink"><defs><circle id="a" cx="36" cy="36" r="36"/><path d="M.143 34.358l8.929 22.32a1 1 0 001.856 0l8.929-22.32a2 2 0 00.143-.743V0H0v33.615a2 2 0 00.143.743z" id="c"/></defs><g fill="none" fill-rule="evenodd"><mask id="b" fill="#fff"><use xlink:href="#a"/></mask><use fill="#5198D9" xlink:href="#a"/><rect fill="#2271B1" mask="url(#b)" x="-2" y="54" width="28" height="1" rx=".5"/><g mask="url(#b)"><g transform="rotate(30 26.73 85.51)"><mask id="d" fill="#fff"><use xlink:href="#c"/></mask><use fill="#135E96" xlink:href="#c"/><path d="M11.003 0v22.463c0 4.011.418 5.466 1.202 6.933a8.178 8.178 0 003.402 3.402c1.262.674 2.514 1.078 5.392 1.178L21 50H-1l.001-16.024c2.882-.1 4.136-.503 5.398-1.178A8.178 8.178 0 007.8 29.396c.784-1.467 1.202-2.922 1.202-6.933V0h2z" fill="#FFF" mask="url(#d)"/></g></g></g></svg>