<svg width="64" height="64" viewBox="0 0 64 64" fill="none" xmlns="http://www.w3.org/2000/svg">
<circle cx="32" cy="32" r="32" fill="#069E08"/>
<path fill-rule="evenodd" clip-rule="evenodd" d="M20.8095 19.5H43.1905C43.9137 19.5 44.5 20.0863 44.5 20.8095V43.1905C44.5 43.9137 43.9137 44.5 43.1905 44.5H20.8095C20.0863 44.5 19.5 43.9137 19.5 43.1905V20.8095C19.5 20.0863 20.0863 19.5 20.8095 19.5ZM17 20.8095C17 18.7056 18.7056 17 20.8095 17H43.1905C45.2944 17 47 18.7056 47 20.8095V43.1905C47 45.2944 45.2944 47 43.1905 47H20.8095C18.7056 47 17 45.2944 17 43.1905V20.8095ZM37 32L28.6667 27V37L37 32Z" fill="white"/>
</svg>
