<svg width="55" height="55" viewBox="0 0 55 55" fill="none" xmlns="http://www.w3.org/2000/svg">
    <circle cx="27.5" cy="27.5" r="27.5" fill="#3895BA"/>
    <path fill-rule="evenodd" clip-rule="evenodd" d="M32.487 30.1537L38.5 36.1667L36.1667 38.5L30.1537 32.487C28.8657 33.3363 27.3245 33.8333 25.6667 33.8333C21.1563 33.8333 17.5 30.177 17.5 25.6667C17.5 21.1563 21.1563 17.5 25.6667 17.5C30.177 17.5 33.8333 21.1563 33.8333 25.6667C33.8333 27.3245 33.3363 28.8657 32.487 30.1537ZM25.6667 19.8333C22.4502 19.8333 19.8333 22.4502 19.8333 25.6667C19.8333 28.8832 22.4502 31.5 25.6667 31.5C28.8832 31.5 31.5 28.8832 31.5 25.6667C31.5 22.4502 28.8832 19.8333 25.6667 19.8333Z" fill="#fff"/>
</svg>
