<svg width="55" height="55" fill="none" xmlns="http://www.w3.org/2000/svg"><ellipse cx="27.5" cy="27.702" rx="27.5" ry="27.231" fill="#055d9c"/><mask id="a" maskUnits="userSpaceOnUse" x="15" y="14" width="26" height="25"><path fill-rule="evenodd" clip-rule="evenodd" d="M23 19.972a5 5 0 0110 0H23zm17.5 10h-5v1.25c-.002.419-.04.837-.112 1.25h1.362a2.5 2.5 0 012.5 2.5v2.5h-2.5v-2.5h-2.263a7.5 7.5 0 01-5.237 3.637V24.972h-2.5v13.637a7.5 7.5 0 01-5.238-3.637H19.25v2.5h-2.5v-2.5a2.5 2.5 0 012.5-2.5h1.363a7.494 7.494 0 01-.113-1.25v-1.25h-5v-2.5h5v-2.5h-1.25a2.5 2.5 0 01-2.5-2.5v-2.5h2.5v2.5h17.5v-2.5h2.5v2.5a2.5 2.5 0 01-2.5 2.5H35.5v2.5h5v2.5z" fill="#fff"/></mask><g mask="url(#a)"><path fill="#fff" d="M13 12.472h30v30H13z"/></g></svg>