<svg width="72" height="72" xmlns="http://www.w3.org/2000/svg" xmlns:xlink="http://www.w3.org/1999/xlink"><defs><circle id="a" cx="36" cy="36" r="36"/><path d="M4.273 31.063C2.62 22.838 1 6.94 1 4V0h20v4c0 2.94-1.62 18.838-3.273 27.063 2.64 2.01 3.881 5.288 3.273 8.937-.915 5.49-7 15-9 18h-2c-2-3-8-12-9-18-.608-3.649.633-6.927 3.273-8.937zm7.615 11.167a2.4 2.4 0 10-1.776 0l.588 11.777a.3.3 0 00.6 0l.588-11.777z" id="c"/></defs><g fill="none" fill-rule="evenodd"><mask id="b" fill="#fff"><use xlink:href="#a"/></mask><use fill="#C475BD" fill-rule="nonzero" xlink:href="#a"/><path d="M0 54h30c-22 1.306-24.667 6.63-8 15.973C7.333 69.973 0 64.649 0 54z" fill="#984A9C" mask="url(#b)"/><g mask="url(#b)"><g transform="rotate(30 30.964 84.65)"><mask id="d" fill="#fff"><use xlink:href="#c"/></mask><use fill="#FFF" xlink:href="#c"/><path fill="#662C6E" mask="url(#d)" d="M-1 0h24v26H-1z"/></g></g></g></svg>