<svg width="55" height="54" fill="none" xmlns="http://www.w3.org/2000/svg"><ellipse cx="27.5" cy="26.86" rx="27.5" ry="26.86" fill="#055d9c"/><mask id="a" maskUnits="userSpaceOnUse" x="13" y="15" width="28" height="20"><path fill-rule="evenodd" clip-rule="evenodd" d="M27 25a4.68 4.68 0 004.667-4.667A4.68 4.68 0 0027 15.667a4.68 4.68 0 00-4.667 4.666A4.68 4.68 0 0027 25zm-7-1.167h.933l.7 1.05c-2.45 1.05-4.55 2.567-5.6 4.55-1.633-.233-3.033-.7-3.033-1.4 0-1.983 3.383-4.2 7-4.2zm17.967 5.6c1.633-.233 3.033-.7 3.033-1.4 0-1.983-3.383-4.2-7-4.083h-.933c-.117.175-.234.32-.35.466a6.443 6.443 0 00-.35.467c2.45 1.05 4.55 2.567 5.6 4.55zM17.667 32c0-2.8 4.55-5.834 9.333-5.834S36.333 29.2 36.333 32c0 2.333-9.333 2.333-9.333 2.333s-9.333 0-9.333-2.333zm15.983-9.334H34c1.983 0 3.5-1.516 3.5-3.5 0-1.983-1.517-3.5-3.5-3.5a3.23 3.23 0 00-1.517.35A6.931 6.931 0 0134 20.334c0 .817-.117 1.634-.35 2.334zm-13.3 0H20c-1.983 0-3.5-1.516-3.5-3.5 0-1.983 1.517-3.5 3.5-3.5.583 0 1.05.117 1.517.35A6.931 6.931 0 0020 20.334c0 .817.117 1.634.35 2.334z" fill="#fff"/></mask><g mask="url(#a)"><path fill="#fff" d="M13 11h28v28H13z"/></g></svg>