<svg width="55" height="55" viewBox="0 0 55 55" xmlns="http://www.w3.org/2000/svg">
    <circle cx="27.5" cy="27.5" r="27.5" fill="#984A9C"/>
    <path fill-rule="evenodd" clip-rule="evenodd" d="M34.5106 20.7454H33.2601V19.5077C33.2601 16.0951 30.455 13.3188 27.0071 13.3188C23.5592 13.3188 20.7542 16.0951 20.7542 19.5077V20.7454H19.5036C18.1217 20.7454 17.0024 21.8532 17.0024 23.2209V35.5986C17.0024 36.9663 18.1217 38.0741 19.5036 38.0741H34.5106C35.8925 38.0741 37.0118 36.9663 37.0118 35.5986V23.2209C37.0118 21.8532 35.8925 20.7454 34.5106 20.7454ZM23.2554 19.5077C23.2554 17.4604 24.9386 15.7944 27.0071 15.7944C29.0756 15.7944 30.7589 17.4604 30.7589 19.5077V20.7454H23.2554V19.5077ZM28.2577 33.123V30.3047C29.0018 29.8751 29.5083 29.0855 29.5083 28.172C29.5083 26.8043 28.389 25.6965 27.0071 25.6965C25.6252 25.6965 24.5059 26.8043 24.5059 28.172C24.5059 29.0867 25.0124 29.8764 25.7565 30.3047V33.123H28.2577Z" fill="#fff"/>
</svg>
