<svg width="55" height="55" viewBox="0 0 55 55" fill="none" xmlns="http://www.w3.org/2000/svg">
<path d="M27.5 54.933C42.6878 54.933 55 42.7413 55 27.702C55 12.6627 42.6878 0.471001 27.5 0.471001C12.3122 0.471001 0 12.6627 0 27.702C0 42.7413 12.3122 54.933 27.5 54.933Z" fill="#055D9C"/>
<mask id="mask0" style="mask-type:alpha" maskUnits="userSpaceOnUse" x="15" y="14" width="26" height="25">
<path fill-rule="evenodd" clip-rule="evenodd" d="M23 19.972C23 18.6459 23.5268 17.3741 24.4645 16.4365C25.4021 15.4988 26.6739 14.972 28 14.972C29.3261 14.972 30.5979 15.4988 31.5355 16.4365C32.4732 17.3741 33 18.6459 33 19.972H23ZM40.5 29.972H35.5V31.222C35.498 31.641 35.46 32.059 35.388 32.472H36.75C37.413 32.472 38.0489 32.7354 38.5178 33.2042C38.9866 33.6731 39.25 34.309 39.25 34.972V37.472H36.75V34.972H34.487C33.9349 35.9258 33.1794 36.7461 32.2742 37.3747C31.3691 38.0033 30.3365 38.4248 29.25 38.609V24.972H26.75V38.609C25.6633 38.4249 24.6305 38.0035 23.7252 37.3749C22.8199 36.7463 22.0642 35.9259 21.512 34.972H19.25V37.472H16.75V34.972C16.75 34.309 17.0134 33.6731 17.4822 33.2042C17.9511 32.7354 18.587 32.472 19.25 32.472H20.613C20.5404 32.0592 20.5026 31.6411 20.5 31.222V29.972H15.5V27.472H20.5V24.972H19.25C18.587 24.972 17.9511 24.7086 17.4822 24.2398C17.0134 23.7709 16.75 23.135 16.75 22.472V19.972H19.25V22.472H36.75V19.972H39.25V22.472C39.25 23.135 38.9866 23.7709 38.5178 24.2398C38.0489 24.7086 37.413 24.972 36.75 24.972H35.5V27.472H40.5V29.972Z" fill="white"/>
</mask>
<g mask="url(#mask0)">
</g>
<path d="M36.375 15.75H19.625C18 15.75 16.75 17 16.75 18.625V35.375C16.75 37 18 38.25 19.625 38.25H36.375C38 38.25 39.25 37 39.25 35.375V18.625C39.25 17 38 15.75 36.375 15.75ZM37.375 35.375C37.375 35.875 36.875 36.375 36.375 36.375H19.625C19.125 36.375 18.625 35.875 18.625 35.375V18.625C18.625 18.125 19.125 17.625 19.625 17.625H36.375C36.875 17.625 37.375 18.125 37.375 18.625V35.375ZM25.5 30.75L31.75 27L25.5 23.25V30.75Z" fill="white"/>
</svg>
