<svg width="55" height="55" viewBox="0 0 55 55" fill="none" xmlns="http://www.w3.org/2000/svg">
    <circle cx="27.5" cy="27.5" r="27.5" fill="#3895BA"/>
    <path fill-rule="evenodd" clip-rule="evenodd" d="M35.4688 24.5037C35.4788 24.5025 35.4875 24.5 35.5 24.5C38.95 24.5 41.75 27.3 41.75 30.75C41.75 32.8038 40.745 34.6125 39.2162 35.75H15.975C14.925 34.8337 14.25 33.5025 14.25 32C14.25 29.2375 16.4875 27 19.25 27C19.2978 27 19.3434 27.0067 19.3892 27.0134C19.42 27.018 19.4508 27.0225 19.4825 27.025C19.3375 26.4125 19.25 25.78 19.25 25.125C19.25 20.6375 22.8875 17 27.375 17C31.6525 17 35.15 20.3075 35.4688 24.5037ZM29.25 33.25V29.5H33L28 23.25L23 29.5H26.75V33.25H29.25Z" fill="#fff"/>
</svg>
