<svg width="64" height="64" fill="none" xmlns="http://www.w3.org/2000/svg"><circle cx="32" cy="32" r="32" fill="#2FB41F"/><path fill-rule="evenodd" clip-rule="evenodd" d="M26.1 23.424C26.1 20.43 28.518 18 31.5 18s5.4 2.429 5.4 5.424H26.1zM45 34.274h-5.4v1.356a8.175 8.175 0 01-.122 1.356h1.472c1.491 0 2.7 1.214 2.7 2.712v2.712h-2.7v-2.712h-2.444a8.1 8.1 0 01-5.656 3.946V28.85h-2.7v14.795a8.1 8.1 0 01-5.656-3.946H22.05v2.712h-2.7v-2.712a2.706 2.706 0 012.7-2.712h1.471a8.175 8.175 0 01-.121-1.356v-1.357H18v-2.712h5.4V28.85h-1.35a2.706 2.706 0 01-2.7-2.712v-2.712h2.7v2.712h18.9v-2.712h2.7v2.712a2.706 2.706 0 01-2.7 2.712H39.6v2.712H45v2.712z" fill="#fff"/></svg>
