<svg width="64" height="64" viewBox="0 0 64 64" fill="none" xmlns="http://www.w3.org/2000/svg">
<circle cx="32" cy="32" r="32" fill="#069E08"/>
<path fill-rule="evenodd" clip-rule="evenodd" d="M26.0912 47.3448L39.4246 18.1782L37.9088 17.4852L35.8062 22.0847C34.6652 21.4979 33.3713 21.1667 32 21.1667C30.2309 21.1667 28.5905 21.7179 27.2413 22.6581L23.9832 19.4L22.2155 21.1678L25.4259 24.3782C24.4841 25.5855 23.8675 27.0588 23.7078 28.6667H20.3333V31.1667H23.6667V33.6667H20.3333V36.1667H23.8334C24.2515 38.2265 25.4294 40.0104 27.0617 41.2132L24.5754 46.6519L26.0912 47.3448ZM28.1337 38.8681C26.9272 37.7994 26.1667 36.2385 26.1667 34.5V29.5C26.1667 26.2783 28.7783 23.6667 32 23.6667C33.0005 23.6667 33.9421 23.9185 34.765 24.3623L28.1337 38.8681ZM37.5926 27.8359L38.9408 24.8865C39.6756 25.9897 40.1543 27.2781 40.2922 28.6667H43.6667V31.1667H40.3333V33.6667H43.6667V36.1667H40.1666C39.3945 39.9704 36.0316 42.8333 32 42.8333C31.5846 42.8333 31.1764 42.8029 30.7773 42.7443L31.88 40.3321C31.9199 40.3329 31.9599 40.3333 32 40.3333C35.2217 40.3333 37.8333 37.7217 37.8333 34.5V29.5C37.8333 28.9218 37.7492 28.3633 37.5926 27.8359Z" fill="white"/>
</svg>
