<svg width="64" height="64" viewBox="0 0 64 64" fill="none" xmlns="http://www.w3.org/2000/svg">
<circle cx="32" cy="32" r="32" fill="#069E08"/>
<path fill-rule="evenodd" clip-rule="evenodd" d="M37.8333 18.6302V42.0365L24.5 37.9961V45.3333H22V37.2385L17.4583 35.8623C15.7014 35.3299 14.5 33.7104 14.5 31.8747V28.792C14.5 26.9563 15.7014 25.3368 17.4583 24.8044L37.8333 18.6302ZM35.3333 38.6667L24.5 35.3838L24.5 25.2828L35.3333 22V38.6667ZM22 26.0404L22 34.6263L18.1833 33.4697C17.4806 33.2567 17 32.609 17 31.8747V28.792C17 28.0577 17.4806 27.4099 18.1833 27.197L22 26.0404ZM41.1667 31.5833H47.8333V29.0833H41.1667V31.5833ZM47.8333 38.6667L41.1667 37V34.5L47.8333 36.1667V38.6667ZM41.1667 26.1667L47.8333 24.5V22L41.1667 23.6667V26.1667Z" fill="white"/>
</svg>
