<svg width="64" height="64" viewBox="0 0 64 64" fill="none" xmlns="http://www.w3.org/2000/svg">
<circle cx="32" cy="32" r="32" fill="#069E08"/>
<path fill-rule="evenodd" clip-rule="evenodd" d="M38.3652 30.9543L38.3887 28.8262L38.3888 28.7778C38.3888 26.3089 36.1357 23.9446 32.8888 23.9446C30.1768 23.9446 28.1039 25.6343 27.5469 27.6236L27.0137 29.5283L25.0375 29.4475C24.9883 29.4455 24.9388 29.4445 24.8889 29.4445C22.9051 29.4445 21.1667 31.125 21.1667 33.3612C21.1667 35.595 22.9014 37.2743 24.8826 37.2778L24.9184 37.2777H24.9259H39.9698H39.984L39.9993 37.2778C41.4922 37.2778 42.8327 36.0077 42.8327 34.2778C42.8327 32.734 41.752 31.5405 40.4622 31.3173L38.3652 30.9543ZM25.1395 26.9496C25.0564 26.9462 24.9728 26.9445 24.8889 26.9445C21.4524 26.9445 18.6667 29.8173 18.6667 33.3612C18.6667 36.905 21.4524 39.7778 24.8889 39.7778L24.9259 39.7777H39.9698L39.9993 39.7778C42.9448 39.7778 45.3327 37.3153 45.3327 34.2778C45.3327 31.5527 43.4108 29.2903 40.8885 28.8538L40.8888 28.7778C40.8888 24.7278 37.3072 21.4446 32.8888 21.4446C29.1592 21.4446 26.0257 23.7841 25.1395 26.9496C25.1395 26.9496 25.1395 26.9496 25.1395 26.9496Z" fill="white"/>
</svg>
