<svg width="72" height="72" viewBox="0 0 72 72" fill="none" xmlns="http://www.w3.org/2000/svg">
<g clip-path="url(#clip0_2767_11766)">
<rect x="7" y="7" width="58.5" height="58.5" rx="29.25" fill="#2C3338"/>
<path d="M58.5004 26.9998C65.9564 26.9998 72.0008 20.9554 72.0008 13.4994C72.0008 6.0434 65.9564 3.66414e-06 58.5004 2.36049e-06C51.0444 1.05684e-06 45 6.04439 45 13.5004C45 20.9564 51.0444 26.9998 58.5004 26.9998Z" fill="#069E08"/>
<path d="M58.6879 10.749L58.6879 23.8361L65.4378 10.749L58.6879 10.749V10.749Z" fill="white"/>
<path d="M57.3226 15.2593L57.3226 2.19727L50.5986 15.2593L57.3226 15.2593Z" fill="white"/>
<mask id="mask0_2767_11766" style="mask-type:alpha" maskUnits="userSpaceOnUse" x="19" y="24" width="35" height="24">
<path d="M46.0311 33.6897L46.0229 34.9565L47.2705 35.1766C49.7517 35.6144 51.7371 37.9185 51.7371 40.8C51.7371 44.0198 49.2728 46.5 46.3895 46.5L46.3775 46.5L46.3772 46.5L46.3646 46.4998H46.3516L27.0364 46.4998L27.0294 46.4998L26.9888 46.5C26.9878 46.5 26.9867 46.5 26.9857 46.5C23.4734 46.4982 20.5 43.4814 20.5 39.6C20.5 35.7173 23.4752 32.6999 26.9888 32.6999C27.0758 32.6999 27.1623 32.7017 27.2484 32.7053L28.4411 32.7548L28.7571 31.6038C29.7045 28.1534 33.1022 25.5 37.2602 25.5C42.2016 25.5 46.0315 29.2204 46.0315 33.5999C46.0315 33.6277 46.0314 33.6561 46.0311 33.6897Z" stroke="white" stroke-width="3"/>
</mask>
<g mask="url(#mask0_2767_11766)">
<path fill-rule="evenodd" clip-rule="evenodd" d="M47.5311 33.6994C47.5313 33.6665 47.5315 33.6333 47.5315 33.5999C47.5315 28.2981 42.9329 24 37.2602 24C32.4716 24 28.4484 27.0627 27.3106 31.2066C27.2039 31.2022 27.0966 31.1999 26.9888 31.1999C22.5767 31.1999 19 34.9607 19 39.6C19 44.2392 22.5767 48 26.9888 48L27.0364 47.9998H46.3516C46.3642 48 46.3769 48 46.3895 48C50.1713 48 53.2371 44.7763 53.2371 40.8C53.2371 37.2325 50.7696 34.2708 47.5311 33.6994Z" fill="white"/>
</g>
</g>
<defs>
<clipPath id="clip0_2767_11766">
<rect width="72" height="72" fill="white"/>
</clipPath>
</defs>
</svg>
