<svg width="64" height="64" viewBox="0 0 64 64" fill="none" xmlns="http://www.w3.org/2000/svg">
<circle cx="32" cy="32" r="32" fill="#069E08"/>
<path fill-rule="evenodd" clip-rule="evenodd" d="M39.5 18.6302V22V38.6667V42.0365L36.275 41.0592L26.1667 37.9961V45.3333H23.6667V37.2385L19.125 35.8623C17.3681 35.3299 16.1667 33.7104 16.1667 31.8747V28.792C16.1667 26.9563 17.3681 25.3368 19.125 24.8044L36.275 19.6074L39.5 18.6302ZM34.5 37.9091L26.1667 35.3838L26.1667 25.2828L34.5 22.7576L37 22V24.6123V36.0544V38.6667L34.5 37.9091ZM19.85 27.197L23.6667 26.0404L23.6667 34.6263L19.85 33.4697C19.1472 33.2567 18.6667 32.609 18.6667 31.8747V28.792C18.6667 28.0577 19.1472 27.4099 19.85 27.197ZM42.8333 31.5833H49.5V29.0833H42.8333V31.5833ZM49.5 38.6667L42.8333 37V34.5L49.5 36.1667V38.6667ZM42.8333 26.1667L49.5 24.5V22L42.8333 23.6667V26.1667Z" fill="white"/>
</svg>
