<svg width="55" height="55" fill="none" xmlns="http://www.w3.org/2000/svg"><ellipse cx="27.5" cy="27.702" rx="27.5" ry="27.231" fill="#2271B1"/><path fill-rule="evenodd" clip-rule="evenodd" d="M35.469 24.975c.01 0 .018-.003.031-.003 3.45 0 6.25 2.8 6.25 6.25 0 2.053-1.005 3.862-2.534 5H15.975c-1.05-.917-1.725-2.248-1.725-3.75 0-2.763 2.238-5 5-5 .048 0 .093.006.14.013.03.005.06.01.093.012a8.22 8.22 0 01-.233-1.9 8.125 8.125 0 018.125-8.125c4.277 0 7.775 3.307 8.094 7.503zm-6.219 8.747v-3.75H33l-5-6.25-5 6.25h3.75v3.75h2.5z" fill="#101517"/><mask id="a" maskUnits="userSpaceOnUse" x="14" y="17" width="28" height="20"><path fill-rule="evenodd" clip-rule="evenodd" d="M35.469 24.975c.01 0 .018-.003.031-.003 3.45 0 6.25 2.8 6.25 6.25 0 2.053-1.005 3.862-2.534 5H15.975c-1.05-.917-1.725-2.248-1.725-3.75 0-2.763 2.238-5 5-5 .048 0 .093.006.14.013.03.005.06.01.093.012a8.22 8.22 0 01-.233-1.9 8.125 8.125 0 018.125-8.125c4.277 0 7.775 3.307 8.094 7.503zm-6.219 8.747v-3.75H33l-5-6.25-5 6.25h3.75v3.75h2.5z" fill="#fff"/></mask><g mask="url(#a)"><path fill="#fff" d="M13 12.472h30v30H13z"/></g></svg>