<svg width="64" height="64" viewBox="0 0 64 64" fill="none" xmlns="http://www.w3.org/2000/svg">
<circle cx="32" cy="32" r="32" fill="#069E08"/>
<line x1="24.8989" y1="26.0263" x2="38.6762" y2="26.1091" stroke="#069E08" stroke-width="3.25466"/>
<mask id="path-3-inside-1_3527_10313" fill="white">
<path fill-rule="evenodd" clip-rule="evenodd" d="M40.5556 36.463C40.5556 35.3656 40.9946 34.3275 41.5998 33.4121C42.7725 31.6386 43.4552 29.5128 43.4552 27.2276C43.4552 21.0268 38.4284 16 32.2276 16C26.0268 16 21 21.0268 21 27.2276C21 29.8675 21.9111 32.2945 23.4359 34.2115C24.0923 35.0366 24.5556 36.0234 24.5556 37.0777V37.0777C24.5556 39.1826 26.2619 40.8889 28.3667 40.8889H36.1297C38.574 40.8889 40.5556 38.9073 40.5556 36.463V36.463Z"/>
</mask>
<path d="M23.4359 34.2115L24.6099 33.2778L23.4359 34.2115ZM41.5998 33.4121L40.3486 32.5848L41.5998 33.4121ZM41.9552 27.2276C41.9552 29.2097 41.364 31.0491 40.3486 32.5848L42.851 34.2394C44.1809 32.2281 44.9552 29.816 44.9552 27.2276H41.9552ZM32.2276 17.5C37.6 17.5 41.9552 21.8552 41.9552 27.2276H44.9552C44.9552 20.1983 39.2569 14.5 32.2276 14.5V17.5ZM22.5 27.2276C22.5 21.8552 26.8552 17.5 32.2276 17.5V14.5C25.1983 14.5 19.5 20.1983 19.5 27.2276H22.5ZM24.6099 33.2778C23.2885 31.6166 22.5 29.5163 22.5 27.2276H19.5C19.5 30.2187 20.5336 32.9724 22.262 35.1453L24.6099 33.2778ZM36.1297 39.3889H28.3667V42.3889H36.1297V39.3889ZM23.0556 37.0777C23.0556 40.011 25.4334 42.3889 28.3667 42.3889V39.3889C27.0903 39.3889 26.0556 38.3541 26.0556 37.0777H23.0556ZM22.262 35.1453C22.7836 35.8011 23.0556 36.4678 23.0556 37.0777H26.0556C26.0556 35.5791 25.4009 34.2722 24.6099 33.2778L22.262 35.1453ZM36.1297 42.3889C39.4024 42.3889 42.0556 39.7358 42.0556 36.463H39.0556C39.0556 38.0789 37.7456 39.3889 36.1297 39.3889V42.3889ZM40.3486 32.5848C39.6514 33.6392 39.0556 34.9656 39.0556 36.463H42.0556C42.0556 35.7656 42.3377 35.0157 42.851 34.2394L40.3486 32.5848Z" fill="white" mask="url(#path-3-inside-1_3527_10313)"/>
<line x1="26.3333" y1="43.6943" x2="38.7778" y2="43.6943" stroke="white" stroke-width="1.5"/>
<line x1="29.8889" y1="47.25" x2="35.2222" y2="47.25" stroke="white" stroke-width="1.5"/>
</svg>