<svg width="55" height="55" viewBox="0 0 55 55" fill="none" xmlns="http://www.w3.org/2000/svg">
<path d="M27.5 55C42.6878 55 55 42.6878 55 27.5C55 12.3122 42.6878 0 27.5 0C12.3122 0 0 12.3122 0 27.5C0 42.6878 12.3122 55 27.5 55Z" fill="#3895BA"/>
<path d="M36.375 15.75H19.625C18 15.75 16.75 17 16.75 18.625V35.375C16.75 37 18 38.25 19.625 38.25H36.375C38 38.25 39.25 37 39.25 35.375V18.625C39.25 17 38 15.75 36.375 15.75ZM37.375 35.375C37.375 35.875 36.875 36.375 36.375 36.375H19.625C19.125 36.375 18.625 35.875 18.625 35.375V18.625C18.625 18.125 19.125 17.625 19.625 17.625H36.375C36.875 17.625 37.375 18.125 37.375 18.625V35.375ZM25.5 30.75L31.75 27L25.5 23.25V30.75Z" fill="white"/>
</svg>
