<svg width="55" height="55" viewBox="0 0 55 55" fill="none" xmlns="http://www.w3.org/2000/svg">
    <circle cx="27.5" cy="27.5" r="27.5" fill="#3895BA"/>
    <path fill-rule="evenodd" clip-rule="evenodd" d="M23 19.5C23 16.7386 25.2386 14.5 28 14.5C30.7614 14.5 33 16.7386 33 19.5H23ZM40.5 29.5H35.5V30.75C35.4975 31.1691 35.4599 31.5872 35.3875 32H36.75C38.1307 32 39.25 33.1193 39.25 34.5V37H36.75V34.5H34.4875C33.3697 36.4313 31.45 37.7645 29.25 38.1375V24.5H26.75V38.1375C24.55 37.7645 22.6303 36.4313 21.5125 34.5H19.25V37H16.75V34.5C16.75 33.1193 17.8693 32 19.25 32H20.6125C20.5401 31.5872 20.5025 31.1691 20.5 30.75V29.5H15.5V27H20.5V24.5H19.25C17.8693 24.5 16.75 23.3807 16.75 22V19.5H19.25V22H36.75V19.5H39.25V22C39.25 23.3807 38.1307 24.5 36.75 24.5H35.5V27H40.5V29.5Z" fill="#fff"/>
</svg>
