<svg height="250" viewBox="0 0 400 250" width="400" xmlns="http://www.w3.org/2000/svg"><g fill="none" fill-rule="evenodd" transform="translate(119 111)"><path d="m81.7131025 112.165624c-8.6365677 2.358611-20.0221901 3.791823-32.5 3.791823-26.9911565 0-48.87181208-6.706203-48.87181208-14.978724 0-8.2725201 21.88065558-14.978723 48.87181208-14.978723 12.4778099 0 23.8634323 1.433212 32.5 3.7918227 8.6365677-2.3586107 20.0221905-3.7918227 32.5000005-3.7918227 26.991156 0 48.871812 6.7062029 48.871812 14.978723 0 8.272521-21.880656 14.978724-48.871812 14.978724-12.47781 0-23.8634328-1.433212-32.5000005-3.791823z" fill="#dcdcde" fill-opacity=".278051"/><ellipse cx="48.675864" cy="100.191489" fill="#dcdcde" rx="26.675864" ry="8.191489"/><ellipse cx="113.675864" cy="100.191489" fill="#dcdcde" rx="26.675864" ry="8.191489"/><path d="m112.895249 103.577253c10.015657 0 18.134952-2.424854 18.134952-5.4160633 0-1.7435632 6.178782-37.1963476-1.438406-52.6357988-2.851851-5.7804821-16.335935-16.3330083-23.416013-19.3750005-7.0800785-3.0419922-18.6548912-6.286285-19.5068366-3.6074223-.3161617.9941408 7.4937955 8.1539091 11.2851562 11.2900397 3.7913604 3.1361307 7.7520874 7.1582819 9.9267574 9.8378909 2.712285 3.3420532 4.831543 10.6803752 3.91797 17.2939434-2.062735 14.9326172-17.0385331 35.4933231-17.0385331 37.1963476 0 2.9912093 8.1192951 5.4160633 18.1349531 5.4160633z" fill="#98c6d9"/><path d="m126.491802 101.745255c2.824408-.954958 4.538399-2.2097325 4.538399-3.5840653 0-1.382603 3.885281-23.9619091 1.695811-40.9501798-.61859 9.0668221-2.762145 29.2509042-6.23421 44.5342451z" fill="#6ab3d0"/><path d="m107.88086 41.9594735c-3.301354-4.921643-12.5556647-14.5361337-20.8533497-18.5968285 1.560382 2.2159789 7.6993438 7.8008542 10.9265913 10.4703628 3.7913604 3.1361307 7.7520874 7.1582819 9.9267574 9.8378909 2.712285 3.3420532 1.147996.0000006.000001-1.7114252z" fill="#6ab3d0"/><path d="m48.1349527 104.408266c10.0156578 0 18.1349527-2.424855 18.1349527-5.4160637 0-.5627926 16.4048993-21.1464977 18.1070477-35.9746227 1.7021485-14.828125.3193364-49.2119161-5.0253906-56.06836101-3.7477645-4.80779295-14.844865-8.93171352-25.296875 3.92968801-10.828125 13.3242184 7.8808592 16.3144527 4.375 42.2285153s-28.4296875 45.1380902-28.4296875 45.8847804c0 2.9912087 8.1192949 5.4160637 18.1349527 5.4160637z" fill="#98c6d9"/><path d="m56.1804213 103.847435s10.0894841-2.726971 10.0894841-4.8552327c0-.5627926 16.4048993-21.1464977 18.1070477-35.9746227 1.7021485-14.828125.3193364-49.2119161-5.0253906-56.06836101-3.7477645-4.80779295-14.844865-8.93171352-25.296875 3.92968801-10.828125 13.3242184 28.8027348 24.3525392 25.2968756 50.2666018s-23.1711418 42.7019266-23.1711418 42.7019266z" fill="#6ab3d0"/><path d="m54.2685547 45.9765625c3.0273438 2.6025391 16.3951149 1.7539063 19.8515625.5078125s9.2871076-23.9775382 8.1894513-30.3593751c-1.0976562-6.38183691-.5253906-11.22753917-6.4257793-13.97070308s-17.5152323-2.02636715-22.0791017.00000006c-4.5638694 2.0263672-5.0566405 7.95507812-6.8496094 13.97070312-1.7929688 6.015625 4.2861328 27.2490234 7.3134766 29.8515625z" fill="#98c6d9"/><path d="m55.1416015 46.484375c1.918213 1.7624512 17.7438959 1.184082 18.9785157 0s.0000002-.750978-2.769531-.7509779c-2.7695313 0-9.9462892-.0000001-12.3271486-.0000001-2.3808595 0-5.800049-1.0114731-3.8818361.750978z" fill="#6ab3d0"/><path d="m43 16h19v9h-19z" fill="#fff"/><path d="m67 16h19v9h-19z" fill="#fff"/><path d="m84.9370117 16v7.9111328h-16.836914v-7.9111328h-7.4260254v7.9111328h-16.4953614v-7.9111328h-1.1914062v9h19.1098633v-7.4555664h4.902832v7.4555664h19v-9z" fill="#dcdcde"/><path d="m57.2506864 23.5828228c.690735 0 1.2506864-1.0258999 1.2506864-2.2914114 0-1.2655116-.5599514-2.2914114-1.2506864-2.2914114s-1.2506864 1.0258998-1.2506864 2.2914114c0 1.2655115.5599514 2.2914114 1.2506864 2.2914114z" fill="#8e9196"/><path d="m72.2506864 23.5828228c.690735 0 1.2506864-1.0258999 1.2506864-2.2914114 0-1.2655116-.5599514-2.2914114-1.2506864-2.2914114s-1.2506864 1.0258998-1.2506864 2.2914114c0 1.2655115.5599514 2.2914114 1.2506864 2.2914114z" fill="#8e9196"/><g fill="#6ab3d0"><path d="m76.777768 4.06522833h-5.3544818c-1.8194861 0-2.9817628 1.44786523-2.5987003 3.22147712l.729165 3.37609515z" transform="matrix(-.60181502 .79863551 -.79863551 -.60181502 122.286516 -46.018822)"/><path d="m60.4396807 3.91712763h-5.3544818c-1.8194861 0-2.9817628 1.44786523-2.5987002 3.22147712l.7291649 3.37609515z" transform="matrix(.60181502 .79863551 .79863551 -.60181502 16.556836 -33.207876)"/><path d="m58.3194783 41.0155017c.5756126 0 1.0422387-.4663181 1.0422387-1.0415507 0-.5752325-.4666261-1.0415506-1.0422387-1.0415506-.5756125 0-1.0422386.4663181-1.0422386 1.0415506 0 .5752326.4666261 1.0415507 1.0422386 1.0415507z"/><path d="m70.3194783 41.0155017c.5756126 0 1.0422387-.4663181 1.0422387-1.0415507 0-.5752325-.4666261-1.0415506-1.0422387-1.0415506-.5756125 0-1.0422386.4663181-1.0422386 1.0415506 0 .5752326.4666261 1.0415507 1.0422386 1.0415507z"/></g></g></svg>
