<svg height="250" viewBox="0 0 400 250" width="400" xmlns="http://www.w3.org/2000/svg" xmlns:xlink="http://www.w3.org/1999/xlink"><defs><path id="a" d="m.5.5h132v58h-132z"/><mask id="b" fill="#fff"><use fill="#fff" fill-rule="evenodd" xlink:href="#a"/></mask></defs><g fill="none" fill-rule="evenodd" transform="translate(112 116)"><path d="m139.971215 110.441923c20.804126-1.719666 36.1137-7.543468 36.1137-14.4631996 0-8.2725205-21.880656-14.9787234-48.871812-14.9787234-20.056678 0-37.2914762 3.7029828-44.8234262 9-23.3672011 0-46.1022177 0-47.4302463 0-19.3075603 0-34.9594305 4.7010101-34.9594305 10.5 0 5.79899 15.6518702 10.5 34.9594305 10.5h93.2802085c4.080253 0 8.023426-.199541 11.731576-.558077z" fill="#dcdcde" fill-opacity=".278051"/><path d="m145.302232 101.518657c4.672191-1.475429 7.549496-3.4896059 7.549496-5.7101464 0-4.5240346-11.943191-8.1914893-26.675864-8.1914893-12.844287 0-23.568357 2.7875437-26.106487 6.5-21.8747716 0-52.5362268 0-53.8935129 0-14.7326729 0-26.6758641 2.5481666-26.6758641 5.6914893 0 3.1433224 11.9431912 5.6914894 26.6758641 5.6914894h71.1776519c12.848254 0 23.915229-1.841929 27.948716-3.981343z" fill="#dcdcde"/><g transform="translate(74)"><path d="m52.1349527 100.408266c10.0156578 0 18.1349527-2.4248546 18.1349527-5.4160637 0-.5627926 7.0015804-32.3027993 2.995721-60.152361-4.0058593-27.84956169-16.3586632-36.34679163-34.910157-34.35644285-11.0683599 1.18749988-25.6777207 9.30669955-26.0644538 15.01855375-.8461007 12.4964854 24.2592355 21.457637 26.0644537 19.3378899 11.4003902-13.3867163 11.673827.7460974 8.1679678 26.6601601-3.5058592 25.9140626-12.5234371 32.7455099-12.5234371 33.4922001 0 2.9912091 8.1192949 5.4160637 18.1349527 5.4160637z" fill="#98c6d9"/><path d="m1.1875 53.2822281c3.02734378 2.602539 12.9156233 6.0947265 16.3720709 4.8486328 3.4564476-1.2460938 21.6445312-21.3251972 21.6445312-28.3251972s2.053711-13.2919918-6.8603515-15.7919918-10.7431641-2.7851563-14.7841797-1.5527343c-4.0410156 1.2324219-7.1953131 1.9824215-8.98828196 7.9980465-1.79296885 6.015625-10.41113272 30.2207049-7.38378894 32.823244z" fill="#98c6d9"/><ellipse cx="10.829266" cy="32.374234" fill="#8e9196" rx="1.250686" ry="2.291411"/><ellipse cx="22.752606" cy="34.441067" fill="#8e9196" rx="1.250686" ry="2.291411" transform="matrix(.95105652 .30901699 -.30901699 .95105652 11.833127 -5.412109)"/><g fill="#6ab3d0"><path d="m6.54415838 51.5155017c.57561252 0 1.04223866-.4663181 1.04223866-1.0415507 0-.5752325-.46662614-1.0415506-1.04223866-1.0415506s-1.04223867.4663181-1.04223867 1.0415506c0 .5752326.46662615 1.0415507 1.04223867 1.0415507z"/><path d="m14.5441584 53.5155017c.5756125 0 1.0422386-.4663181 1.0422386-1.0415507 0-.5752325-.4666261-1.0415506-1.0422386-1.0415506s-1.0422387.4663181-1.0422387 1.0415506c0 .5752326.4666262 1.0415507 1.0422387 1.0415507z"/><path d="m38.7442682 98.6446997c1.3175105.4305847 21.2117858-29.2297086 17.2059265-57.0792703-1.8217745-12.6653523-3.5390629-19.6005856-9.4267577-19.6005856-2.2109999 0-7.7791684 10.040039-7.7791684 10.040039s-12.5209891 17.8989167-11.3936827 16.575196c6.6593493-7.8196288 15.4329668-22.7468267 19.1728518-18.6484381 2.6625647 2.9177967 1.457969 20.7915697-.0000006 31.5683615-3.5058592 25.9140626-12.5234371 32.7455099-12.5234371 33.4922001 0 1.4074124 1.7974943 2.6894421 4.7442682 3.6524974z"/><path d="m29.4817734 26.9589645 4.4906462-2.9162598c1.5259495-.9909632 1.7121528-2.8382664.4249113-4.1171117l-2.4502824-2.4342999z"/><path d="m8.87108723 23.0472671-1.4758952-5.1470583c-.50151834-1.7490022.56989216-3.2653401 2.38038369-3.3859904l3.44629608-.2296596z"/></g></g><g transform="translate(17 42)"><use xlink:href="#a"/><g mask="url(#b)"><g transform="matrix(.83867057 .54463904 -.54463904 .83867057 42.079713 5.640561)"><path d="m1 1h98v77h-98z" fill="#fff" stroke="#dcdcde" stroke-width="3"/><path d="m1 1h98v10h-98z" fill="#dcdcde"/><g fill="#f6f7f7"><path d="m18 4h78v4h-78z"/><path d="m6.02026367 4h-1.02661133l-.99365234 1.15844727v1.68286132l.99365234 1.15869141h.95947266v-1.12353516h2.046875v-1.80322265h-2.046875z"/><path d="m13.0202637 4h-1.0266114l-.9936523 1.15844727v1.68286132l.9936523 1.15869141h.9594727v-1.12353516h2.046875v-1.80322265h-2.046875z" transform="matrix(-1 0 0 -1 26 12)"/></g></g></g></g></g></svg>
