<svg width="32" height="32" viewBox="0 0 32 32" fill="none" xmlns="http://www.w3.org/2000/svg">
<path d="M17.1035 5.83492C16.4023 5.51622 15.5977 5.51622 14.8965 5.83492L8 8.9697V14.4242C8 19.2322 11.0995 23.7429 15.3603 25.1482C15.7755 25.2851 16.2245 25.2851 16.6397 25.1482C20.9005 23.7429 24 19.2322 24 14.4242V8.9697L17.1035 5.83492Z" fill="#D0E6B8"/>
<path fill-rule="evenodd" clip-rule="evenodd" d="M16.6897 6.74528C16.2515 6.5461 15.7485 6.5461 15.3103 6.74528L9 9.61361V14.4242C9 18.8415 11.8602 22.9408 15.6735 24.1985C15.8853 24.2683 16.1147 24.2683 16.3265 24.1985C20.1398 22.9408 23 18.8415 23 14.4242V9.61361L16.6897 6.74528ZM14.4827 4.92455C15.4468 4.48634 16.5532 4.48634 17.5173 4.92455L25 8.32579V14.4242C25 19.6229 21.6611 24.5451 16.9529 26.0978C16.3343 26.3019 15.6657 26.3019 15.0471 26.0978C10.3389 24.5451 7 19.6229 7 14.4242V8.32579L14.4827 4.92455Z" fill="#069E08"/>
<path fill-rule="evenodd" clip-rule="evenodd" d="M20.7071 11.9596C21.0976 12.3501 21.0976 12.9832 20.7071 13.3738L15.3333 18.7475L11.9596 15.3738C11.569 14.9832 11.569 14.3501 11.9596 13.9596C12.3501 13.569 12.9833 13.569 13.3738 13.9596L15.3333 15.9191L19.2929 11.9596C19.6834 11.569 20.3166 11.569 20.7071 11.9596Z" fill="#069E08"/>
</svg>
