<svg height="22" viewBox="0 0 22 22" width="22" xmlns="http://www.w3.org/2000/svg"><g fill="none" fill-rule="evenodd" transform="translate(-1 -1)"><path d="m0 0h24v24h-24z"/><path d="m7 11h-6v2h6zm2.17-3.24-2.12-2.12-1.41 1.41 2.12 2.12zm3.83-6.76h-2v6h2zm5.36 6.05-1.41-1.41-2.12 2.12 1.41 1.41zm-1.36 3.95v2h6v-2zm-5-2c-1.66 0-3 1.34-3 3s1.34 3 3 3 3-1.34 3-3-1.34-3-3-3zm2.83 7.24 2.12 2.12 1.41-1.41-2.12-2.12zm-9.19.71 1.41 1.41 2.12-2.12-1.41-1.41zm5.36 6.05h2v-6h-2z" fill="#8e9196" fill-rule="nonzero"/></g></svg>
