<?xml version="1.0" encoding="utf-8"?>
<!-- Generator: Adobe Illustrator 23.0.1, SVG Export Plug-In . SVG Version: 6.00 Build 0)  -->
<svg version="1.1" id="Layer_1" xmlns="http://www.w3.org/2000/svg" xmlns:xlink="http://www.w3.org/1999/xlink" x="0px" y="0px"
	 viewBox="0 0 240 160" style="enable-background:new 0 0 240 160;" xml:space="preserve">
<style type="text/css">
	.st0{fill:#FFFFFF;}
	.st1{fill-rule:evenodd;clip-rule:evenodd;fill:#E9E9E9;}
	.st2{fill-rule:evenodd;clip-rule:evenodd;fill:#969CA1;}
	.st3{fill-rule:evenodd;clip-rule:evenodd;fill:#FFFFFF;}
	.st4{fill-rule:evenodd;clip-rule:evenodd;fill:#B0B5B8;}
	.st5{fill-rule:evenodd;clip-rule:evenodd;fill:none;stroke:#F6F6F6;stroke-miterlimit:10;}
	.st6{fill-rule:evenodd;clip-rule:evenodd;fill:#1A1A1A;}
	.st7{fill-rule:evenodd;clip-rule:evenodd;fill:#005FB7;}
</style>
<g>
	<path class="st0" d="M70,20h170v140H70V20z"/>
	<path class="st1" d="M0,20h70v140H0V20z"/>
	<path class="st2" d="M0,86h70v16H0V86z"/>
	<path class="st3" d="M7,91h55v6H7V91z"/>
	<path class="st2" d="M7,75h37v6H7V75z M7,107h29v6H7V107z M7,123h45v6H7V123z"/>
	<circle class="st4" cx="35.5" cy="45.5" r="16.5"/>
	<path class="st5" d="M90,36h130v107H90V36z"/>
	<path class="st6" d="M0,0h240v20H0V0z"/>
	<path class="st7" d="M163,48h42c1.7,0,3,1.3,3,3v10c0,1.7-1.3,3-3,3h-42c-1.7,0-3-1.3-3-3V51C160,49.3,161.3,48,163,48z"/>
</g>
</svg>
