<svg width="1440" height="347" viewBox="0 0 1440 347" fill="none" xmlns="http://www.w3.org/2000/svg">
  <rect x="1259.89" y="346.923" width="180.104" height="173" transform="rotate(-180 1259.89 346.923)" fill="url(#paint0_linear_787_51583)"/>
  <rect opacity="0.5" x="1439.15" y="346.923" width="180.104" height="173" transform="rotate(-180 1439.15 346.923)" fill="url(#paint1_linear_787_51583)"/>
  <rect x="1079.86" y="346.844" width="180.104" height="173" transform="rotate(-180 1079.86 346.844)" fill="url(#paint2_linear_787_51583)"/>
  <rect x="540.144" y="346.844" width="180.104" height="173" transform="rotate(-180 540.144 346.844)" fill="url(#paint3_linear_787_51583)"/>
  <rect x="719.751" y="346.844" width="180.104" height="173" transform="rotate(-180 719.751 346.844)" fill="url(#paint4_linear_787_51583)"/>
  <rect x="899.843" y="346.844" width="180.104" height="173" transform="rotate(-180 899.843 346.844)" fill="url(#paint5_linear_787_51583)"/>
  <rect x="360.125" y="173.923" width="180.104" height="173" transform="rotate(-180 360.125 173.923)" fill="url(#paint6_linear_787_51583)"/>
  <rect x="360.125" y="346.844" width="180.104" height="173" transform="rotate(-180 360.125 346.844)" fill="url(#paint7_linear_787_51583)"/>
  <rect x="540.144" y="173.923" width="180.104" height="173" transform="rotate(-180 540.144 173.923)" fill="url(#paint8_linear_787_51583)"/>
  <rect x="719.751" y="173.923" width="180.104" height="173" transform="rotate(-180 719.751 173.923)" fill="url(#paint9_linear_787_51583)"/>
  <rect x="180.333" y="346.844" width="180.104" height="173" transform="rotate(-180 180.333 346.844)" fill="url(#paint10_linear_787_51583)"/>
  <rect x="180.439" y="173.923" width="180.104" height="173" transform="rotate(-180 180.439 173.923)" fill="url(#paint11_linear_787_51583)"/>
  <defs>
  <linearGradient id="paint0_linear_787_51583" x1="1118.23" y1="87.8369" x2="1310.5" y2="393.098" gradientUnits="userSpaceOnUse">
  <stop stop-color="#017E57"/>
  <stop offset="1"/>
  </linearGradient>
  <linearGradient id="paint1_linear_787_51583" x1="1297.49" y1="87.8369" x2="1489.76" y2="393.098" gradientUnits="userSpaceOnUse">
  <stop stop-color="#017E57"/>
  <stop offset="1"/>
  </linearGradient>
  <linearGradient id="paint2_linear_787_51583" x1="938.206" y1="87.7583" x2="1130.48" y2="393.019" gradientUnits="userSpaceOnUse">
  <stop stop-color="#017E57"/>
  <stop offset="1"/>
  </linearGradient>
  <linearGradient id="paint3_linear_787_51583" x1="597.9" y1="248.554" x2="651.003" y2="470.157" gradientUnits="userSpaceOnUse">
  <stop stop-color="#019C3B"/>
  <stop offset="1"/>
  </linearGradient>
  <linearGradient id="paint4_linear_787_51583" x1="712.316" y1="158.781" x2="809.803" y2="445.906" gradientUnits="userSpaceOnUse">
  <stop stop-color="#017E57"/>
  <stop offset="1"/>
  </linearGradient>
  <linearGradient id="paint5_linear_787_51583" x1="783.237" y1="163.842" x2="976.229" y2="419.927" gradientUnits="userSpaceOnUse">
  <stop stop-color="#017E57"/>
  <stop offset="1"/>
  </linearGradient>
  <linearGradient id="paint6_linear_787_51583" x1="238.984" y1="-106.528" x2="472.852" y2="260.423" gradientUnits="userSpaceOnUse">
  <stop stop-color="#019C3B"/>
  <stop offset="1"/>
  </linearGradient>
  <linearGradient id="paint7_linear_787_51583" x1="392.103" y1="318.452" x2="476.127" y2="489.045" gradientUnits="userSpaceOnUse">
  <stop stop-color="#016BAD"/>
  <stop offset="0.861851"/>
  </linearGradient>
  <linearGradient id="paint8_linear_787_51583" x1="540.144" y1="20.2678" x2="600.867" y2="240.596" gradientUnits="userSpaceOnUse">
  <stop stop-color="#017E57"/>
  <stop offset="1"/>
  </linearGradient>
  <linearGradient id="paint9_linear_787_51583" x1="578.093" y1="-85.1631" x2="770.364" y2="220.098" gradientUnits="userSpaceOnUse">
  <stop stop-color="#017E57"/>
  <stop offset="1"/>
  </linearGradient>
  <linearGradient id="paint10_linear_787_51583" x1="144.184" y1="285.885" x2="270.964" y2="519.53" gradientUnits="userSpaceOnUse">
  <stop stop-color="#014ED0"/>
  <stop offset="1"/>
  </linearGradient>
  <linearGradient id="paint11_linear_787_51583" x1="155.557" y1="79.4388" x2="296.441" y2="316.124" gradientUnits="userSpaceOnUse">
  <stop stop-color="#016BAD"/>
  <stop offset="0.861851"/>
  </linearGradient>
  </defs>
  </svg>
  