<svg width="25" height="26" viewBox="0 0 25 26" fill="none" xmlns="http://www.w3.org/2000/svg">
<g id="Group 1000007121">
<circle id="Ellipse 1245" cx="12.4117" cy="13.6342" r="6.90955" fill="white"/>
<path id="Subtract" fill-rule="evenodd" clip-rule="evenodd" d="M24.5117 12.9985C24.5117 13.8908 24.1604 14.747 23.5339 15.3822L22.3048 16.5988C22.0266 16.8847 21.8707 17.2677 21.8703 17.6665V19.0942C21.8674 19.9856 21.5119 20.8397 20.8816 21.47C20.2513 22.1002 19.3972 22.4557 18.5058 22.4586H17.0781C16.6793 22.4591 16.2963 22.615 16.0105 22.8932L14.7938 24.1222C14.1596 24.7505 13.303 25.1031 12.4102 25.1031C11.5174 25.1031 10.6607 24.7505 10.0265 24.1222L8.80985 22.8932C8.52401 22.615 8.14099 22.4591 7.74218 22.4586H6.31447C5.42311 22.4557 4.56902 22.1003 3.93867 21.47C3.30844 20.8397 2.95296 19.9856 2.95005 19.0942V17.6665C2.94955 17.2677 2.7937 16.8847 2.51553 16.5988L1.28646 15.3822C0.659884 14.747 0.308594 13.8908 0.308594 12.9985C0.308594 12.1063 0.659909 11.2501 1.28646 10.6149L2.51553 9.39823C2.7937 9.11239 2.94956 8.72937 2.95005 8.33055V6.90285C2.95295 6.01149 3.30842 5.1574 3.93867 4.52705C4.56902 3.89682 5.42313 3.54134 6.31447 3.53843H7.74218C8.14099 3.53793 8.52401 3.38208 8.80985 3.10391L10.0265 1.87484C10.6617 1.24826 11.5179 0.896973 12.4102 0.896973C13.3024 0.896973 14.1586 1.24829 14.7938 1.87484L16.0105 3.10391C16.2963 3.38208 16.6793 3.53794 17.0781 3.53843H18.5058C19.3972 3.54133 20.2513 3.89679 20.8816 4.52705C21.5119 5.1574 21.8674 6.01151 21.8703 6.90285V8.33055C21.8708 8.72937 22.0266 9.11239 22.3048 9.39823L23.5339 10.6149C24.1604 11.2501 24.5117 12.1063 24.5117 12.9985ZM13.1879 10.3325C13.531 10.3146 13.8402 10.2786 13.8402 10.2786C14.1473 10.2424 14.1112 9.79208 13.8039 9.81005C13.8039 9.81005 12.8808 9.88231 12.2848 9.88231C11.7247 9.88231 10.7836 9.81005 10.7836 9.81005C10.4763 9.79208 10.4403 10.2604 10.7476 10.2786C10.7476 10.2786 11.0383 10.3146 11.3453 10.3325L12.2332 12.7596L10.9856 16.491L8.91037 10.3325C9.25379 10.3146 9.56257 10.2786 9.56257 10.2786C9.86965 10.2424 9.83331 9.79208 9.52616 9.81005C9.52616 9.81005 8.60314 9.88231 8.00715 9.88231C7.9003 9.88231 7.77421 9.87961 7.64015 9.87537C8.65942 8.33206 10.4111 7.31285 12.4024 7.31285C13.8862 7.31285 15.2373 7.87875 16.2512 8.80557C16.2468 8.80529 16.2423 8.80496 16.2379 8.80461C16.2343 8.80432 16.2307 8.80401 16.227 8.8037C16.2107 8.80233 16.1943 8.80094 16.1775 8.80094C15.6175 8.80094 15.2203 9.28741 15.2203 9.81005C15.2203 10.2417 15.4503 10.612 15.7124 11.0341L15.7802 11.1435C15.9969 11.5222 16.25 12.0086 16.25 12.7114C16.25 13.1982 16.1053 13.8105 15.8163 14.5495L15.2477 16.4443L13.1879 10.3325ZM15.2793 17.9139L17.02 12.8931C17.3453 12.082 17.4536 11.4335 17.4536 10.8568C17.4536 10.6474 17.4397 10.4531 17.4151 10.2721C17.8601 11.0818 18.1133 12.0111 18.1133 12.9997C18.1133 15.0971 16.9738 16.9285 15.2793 17.9139ZM10.7916 18.4531C11.3022 18.6026 11.8423 18.6847 12.4017 18.6847C13.0655 18.6847 13.7021 18.57 14.2945 18.3621C14.2793 18.3375 14.2652 18.3118 14.2537 18.2839L12.5019 13.496L10.7916 18.4531ZM6.70732 12.9988C6.70732 12.1745 6.8846 11.3919 7.20096 10.6849L9.91968 18.1156C8.01813 17.1942 6.70732 15.2494 6.70732 12.9988Z" fill="#3858E9"/>
</g>
</svg>
