<svg id="help-center-icon" width="24" height="24" viewBox="0 -2 20 24" xmlns="http://www.w3.org/2000/svg">
	<path d="M10 0C4.477 0 0 4.477 0 10C0 15.523 4.477 20 10 20C15.523 20 20 15.523 20 10C20 4.477 15.523 0 10 0ZM11 16H9V14H11V16ZM11 11.859V13H9V11C9 10.448 9.448 10 10 10C11.103 10 12 9.103 12 8C12 6.897 11.103 6 10 6C8.897 6 8 6.897 8 8H6C6 5.791 7.791 4 10 4C12.209 4 14 5.791 14 8C14 9.862 12.722 11.413 11 11.859Z"
	fill="white"/>
</svg>

<svg id="help-center-icon-with-notification"  width="24" height="24" viewBox="0 -2 24 24"  xmlns="http://www.w3.org/2000/svg">
	<path d="M10 0C4.477 0 0 4.477 0 10C0 15.523 4.477 20 10 20C15.523 20 20 15.523 20 10C20 4.477 15.523 0 10 0ZM11 16H9V14H11V16ZM11 11.859V13H9V11C9 10.448 9.448 10 10 10C11.103 10 12 9.103 12 8C12 6.897 11.103 6 10 6C8.897 6 8 6.897 8 8H6C6 5.791 7.791 4 10 4C12.209 4 14 5.791 14 8C14 9.862 12.722 11.413 11 11.859Z"
	fill="white"/>
	<circle cx="20" cy="4" r="4" fill="var( --color-masterbar-unread-dot-background )" />
</svg>