<svg width="225" height="90" fill="none" xmlns="http://www.w3.org/2000/svg"><mask id="a" maskUnits="userSpaceOnUse" x="1" y="0" width="224" height="89"><path fill="#c3c4c7" d="M1 0h224v89H1z"/></mask><g mask="url(#a)"><circle cx="101" cy="81" r="80" fill="#E6F2E8"/></g><path d="M13 89h197M7 89H0" stroke="#101517"/><rect x="92.5" y="21.5" width="98" height="68" rx="5.5" fill="#fff" stroke="#1d2327"/><path d="M92 28l38 29M191 28l-37.5 28.414c-4.333 2.706-15.1 6.495-23.5 0" stroke="#101517"/><circle cx="141.5" cy="59.5" r="12" fill="#fff" stroke="#1d2327"/><path d="M137.728 59.72c0-.49.091-.95.272-1.376.192-.437.448-.816.768-1.136.32-.33.688-.592 1.104-.784.427-.192.88-.288 1.36-.288.32 0 .613.043.88.128.267.075.496.17.688.288.192.117.347.24.464.368.117.128.197.24.24.336l.064-.944h1.312v5.408h.48c.139 0 .299-.043.48-.128.192-.085.373-.23.544-.432.171-.213.309-.485.416-.816.117-.341.176-.763.176-1.264 0-.619-.112-1.221-.336-1.808a4.347 4.347 0 00-.992-1.568c-.437-.459-.987-.827-1.648-1.104-.651-.277-1.408-.416-2.272-.416-1.003 0-1.867.176-2.592.528a5.494 5.494 0 00-1.808 1.328 5.233 5.233 0 00-1.04 1.792 6.016 6.016 0 00-.336 1.936c0 .757.144 1.467.432 2.128a5.616 5.616 0 001.184 1.744 5.754 5.754 0 001.776 1.184 5.425 5.425 0 002.16.432c.619 0 1.216-.096 1.792-.288a5.978 5.978 0 001.584-.8l.8.944a5.367 5.367 0 01-2 1.056 7.696 7.696 0 01-2.256.352 6.535 6.535 0 01-2.64-.544 6.833 6.833 0 01-2.16-1.456 7.002 7.002 0 01-1.456-2.144 6.569 6.569 0 01-.544-2.656c0-.843.155-1.67.464-2.48a6.582 6.582 0 011.36-2.192c.608-.65 1.355-1.173 2.24-1.568.896-.395 1.925-.592 3.088-.592 1.067 0 2.005.176 2.816.528.811.352 1.493.816 2.048 1.392a5.675 5.675 0 011.248 1.984c.288.736.432 1.493.432 2.272 0 .619-.075 1.173-.224 1.664a3.79 3.79 0 01-.624 1.248 2.83 2.83 0 01-.944.768 2.71 2.71 0 01-1.168.256h-1.856v-.848a1.835 1.835 0 01-.256.304 2.08 2.08 0 01-.464.336c-.181.096-.4.181-.656.256a3.145 3.145 0 01-.88.112 3.68 3.68 0 01-1.424-.272 3.67 3.67 0 01-1.104-.752 3.703 3.703 0 01-.736-1.104 3.417 3.417 0 01-.256-1.312zm1.376-.08c0 .31.053.597.16.864.117.267.272.496.464.688.192.192.421.347.688.464.267.107.56.16.88.16.32 0 .613-.053.88-.16a2.119 2.119 0 001.168-1.152c.107-.267.16-.555.16-.864 0-.31-.053-.592-.16-.848a1.914 1.914 0 00-.464-.688 1.995 1.995 0 00-.704-.448 2.163 2.163 0 00-.88-.176c-.32 0-.613.059-.88.176a2.02 2.02 0 00-.688.448 2.227 2.227 0 00-.464.688c-.107.256-.16.539-.16.848z" fill="#5198D9"/></svg>