<svg width="24" height="24" fill="none" xmlns="http://www.w3.org/2000/svg"><g clip-path="url(#clip0)"><path d="M19.49 19.58l-7.193 3.598a.662.662 0 01-.297.072.638.638 0 01-.297-.072L4.51 19.58a.65.65 0 01-.359-.582v-8.022L.278 8.764A.65.65 0 01-.05 8.23V8.23L-.05 8.2V2.15h.002c.03-.61.485-1.2 1.25-1.2h21.597v0h.039v0h0c.74.02 1.18.6 1.21 1.2h.002V8.2h0v.029h0v.001a.65.65 0 01-.328.534l-3.872 2.213v8.022a.65.65 0 01-.36.582zm3.26-11.757V3.589l-3.968 1.765-6.132 2.734v13.46l5.9-2.95V10.57a.65.65 0 01.328-.534l3.872-2.213zM5.823 4.2L12 6.945l6.211-2.76L22.55 2.25H1.451L5.823 4.2h0zm5.527 17.348V8.087L5.283 5.382h0L1.25 3.59v4.234l3.872 2.212a.65.65 0 01.327.534v.002l.001.027v8l5.9 2.95z" fill="#101517" stroke="#101517" stroke-width=".1"/></g></svg>