<svg width="604px" height="140px" viewBox="0 0 604 140" version="1.1" xmlns="http://www.w3.org/2000/svg" xmlns:xlink="http://www.w3.org/1999/xlink">
	<g id="Logo" stroke="none" stroke-width="1" fill="none" fill-rule="evenodd">
		<g transform="translate(-1571.000000, -1218.000000)" fill="#000000" fill-rule="nonzero" id="Titan-full-text">
			<g transform="translate(1571.000000, 1218.000000)">
				<g id="Group-2" transform="translate(4.000000, 0.000000)">
					<g id="Group" transform="translate(-0.000000, 0.000000)">
						<g id="titan-icon" transform="translate(-0.000000, 0.000000)">
							<path d="M3.12638804e-13,9.90723964 C3.12638804e-13,7.18671701 2.79696854,5.36829506 5.27725983,6.47628038 L5.27725983,6.47628038 L76.5272598,38.3047813 C77.8792067,38.9087173 78.75,40.2528494 78.75,41.7357406 L78.75,41.7357406 L78.75,135.238834 C78.75,138.031444 75.8163281,139.847757 73.322949,138.598864 L73.322949,138.598864 L28.322949,116.059094 C27.0525089,115.422751 26.25,114.121969 26.25,112.699063 L26.25,112.699063 L26.25,62.286612 L1.88947898,48.341418 C0.771873013,47.7016572 0.0635475985,46.5349921 0.00406676091,45.2549642 L0.00406676091,45.2549642 L3.12638804e-13,45.0797511 Z M7.5,15.6957297 L7.5,42.9006595 L31.860521,56.8463298 C32.978127,57.4861125 33.6864524,58.6528175 33.7459332,59.932889 L33.7459332,59.932889 L33.75,60.1081081 L33.75,110.380276 L71.25,129.164059 L71.25,44.1749514 L7.5,15.6957297 Z M142.490992,0 C147.794286,0 150.631592,4.75180005 149.880881,8.95792757 C149.958538,9.25814732 150,9.57600718 150,9.90723964 L150,45.0797511 L149.995933,45.2549642 C149.936452,46.5349921 149.228127,47.7016572 148.110521,48.341418 L123.75,62.286612 L123.75,112.699063 C123.75,114.121969 122.947491,115.422751 121.677051,116.059094 L76.677051,138.598864 C74.1836719,139.847757 71.25,138.031444 71.25,135.238834 L71.25,44.12 L4.46337647,14.3794489 C-2.86248803,11.1172072 -0.637355292,0.225384545 7.26286647,0.00344212448 L7.50900844,0 Z M142.5,15.731 L117.007,27.083 L78.75,44.1736524 L78.75,129.159857 L116.25,110.376715 L116.25,60.1062649 L116.254067,59.9310518 C116.313548,58.6510239 117.021873,57.4843588 118.139479,56.844598 L142.5,42.899404 L142.5,15.731 Z M142.401,7.513 L7.50900844,7.51351351 L75,37.5675676 L113.924,20.234 L142.401,7.513 Z M148.5,7.51351351 L150,7.51351351 L150,10.5189189 L148.5,10.5189189 L148.5,7.51351351 Z M3.12638804e-13,7.51351351 L1.5,7.51351351 L1.5,10.5189189 L3.12638804e-13,10.5189189 L3.12638804e-13,7.51351351 Z" transform="translate(75.000000, 69.500154) scale(-1, 1) translate(-75.000000, -69.500154) " />
						</g>
					</g>
					<path d="M230.739399,112.705405 L230.739399,18.6302819 L230.739399,18.6302819 L268.17944,18.6302819 C269.007867,18.6302819 269.67944,17.958709 269.67944,17.1302819 L269.67944,10.5162162 C269.67944,9.68778909 269.007867,9.01621622 268.17944,9.01621622 L183,9.01621622 C182.171573,9.01621622 181.5,9.68778909 181.5,10.5162162 L181.5,17.1302819 C181.5,17.958709 182.171573,18.6302819 183,18.6302819 L220.298953,18.6302819 L220.298953,18.6302819 L220.298953,112.705405 C220.298953,113.533833 220.970526,114.205405 221.798953,114.205405 L229.239399,114.205405 C230.067826,114.205405 230.739399,113.533833 230.739399,112.705405 Z M294.9,112.705405 L294.9,10.5162162 C294.9,9.68778909 294.228427,9.01621622 293.4,9.01621622 L285.9,9.01621622 C285.071573,9.01621622 284.4,9.68778909 284.4,10.5162162 L284.4,112.705405 C284.4,113.533833 285.071573,114.205405 285.9,114.205405 L293.4,114.205405 C294.228427,114.205405 294.9,113.533833 294.9,112.705405 Z M358.839399,114.205405 L358.839399,18.618248 L396.27944,18.618248 C397.107867,18.618248 397.77944,17.9466751 397.77944,17.118248 L397.77944,10.5162162 C397.77944,9.68778909 397.107867,9.01621622 396.27944,9.01621622 L311.1,9.01621622 C310.271573,9.01621622 309.6,9.68778909 309.6,10.5162162 L309.6,17.118248 C309.6,17.9466751 310.271573,18.618248 311.1,18.618248 L348.398953,18.618248 L348.398953,18.618248 L348.398953,112.705405 C348.398953,113.533833 349.070526,114.205405 349.898953,114.205405 L358.839399,114.205405 L358.839399,114.205405 Z M446.675928,9.01621622 L500.224252,113.793979 C500.266828,113.877287 500.289028,113.969509 500.289028,114.063066 C500.289028,114.141678 500.2253,114.205405 500.146688,114.205405 L500.146688,114.205405 L489.930176,114.205405 C489.361462,114.205405 488.84166,113.883781 488.587846,113.374847 L488.587846,113.374847 L477.715091,91.5733606 L413.097198,91.5733606 L401.806429,113.394726 C401.548766,113.892703 401.034887,114.205405 400.474198,114.205405 L400.474198,114.205405 L390.24234,114.205405 C390.163728,114.205405 390.1,114.141678 390.1,114.063066 C390.1,113.969588 390.122833,113.877526 390.166514,113.794882 L390.166514,113.794882 L445.547232,9.01621622 L446.675928,9.01621622 Z M445.970493,27.6627437 L418.176334,81.6095673 L472.777043,81.6095673 L445.970493,27.6627437 Z M599.629001,114.205405 L599.629001,10.940937 C599.629001,10.1125099 598.957428,9.44093703 598.129001,9.44093703 L590.688555,9.44093703 C589.860128,9.44093703 589.188555,10.1125099 589.188555,10.940937 L589.188555,91.1289076 L589.188555,91.1289076 L516.951958,9.01621622 L515.4,9.01621622 L515.4,111.997537 C515.4,112.825965 516.071573,113.497537 516.9,113.497537 L524.199359,113.497537 C525.027786,113.497537 525.699359,112.825965 525.699359,111.997537 L525.699359,31.9511404 L525.699359,31.9511404 L598.21813,114.205405 L599.629001,114.205405 Z" id="TITAN" />
				</g>
			</g>
		</g>
	</g>
</svg>
