<svg width="16" height="18" viewBox="0 0 16 18" fill="none" xmlns="http://www.w3.org/2000/svg">
<path d="M0.0554235 3.75116C0.0456555 3.68278 0.0407715 3.61929 0.0407715 3.56068C0.0407715 3.35556 0.0896114 3.16508 0.187291 2.98926C0.314276 2.75482 0.504752 2.579 0.75872 2.46178L7.49865 0.0588522C7.61586 0.0197802 7.73796 0.000244141 7.86495 0.000244141L8.23125 0.0588522L14.9712 2.46178C15.2251 2.579 15.4156 2.75482 15.5426 2.98926C15.6403 3.17485 15.6891 3.36532 15.6891 3.56068C15.6891 3.61929 15.6842 3.68278 15.6745 3.75116C15.6745 3.76093 15.6696 3.79023 15.6598 3.83907C15.5817 4.19072 15.4938 4.54725 15.3961 4.90867C15.2984 5.26032 15.1226 5.86105 14.8686 6.71087C14.6146 7.56068 14.3021 8.40073 13.9309 9.23101C13.5695 10.0613 13.1397 10.96 12.6415 11.927C12.1531 12.8842 11.5524 13.8269 10.8393 14.7548C10.136 15.6828 9.38387 16.5082 8.5829 17.231C8.38754 17.4264 8.14334 17.5241 7.8503 17.5241C7.57679 17.5241 7.34236 17.4264 7.147 17.231C6.15066 16.3421 5.22758 15.2725 4.37777 14.0222C3.52795 12.7719 2.85396 11.6095 2.35579 10.535C1.85762 9.46056 1.41806 8.37143 1.03711 7.26764C0.665924 6.15409 0.41684 5.34335 0.289856 4.83541C0.172639 4.32747 0.0944955 3.96606 0.0554235 3.75116ZM0.700112 3.83907C0.719648 3.96606 0.75872 4.16142 0.817328 4.42515C0.885704 4.67912 1.0078 5.1138 1.18363 5.72918C1.35945 6.3348 1.55481 6.95995 1.76971 7.60464C1.99437 8.23956 2.2923 8.97704 2.66348 9.81709C3.04443 10.6474 3.44981 11.4435 3.8796 12.2054C4.31916 12.9673 4.84663 13.7487 5.46202 14.5497C6.0774 15.3507 6.72697 16.0589 7.41074 16.6742C7.54749 16.7719 7.69889 16.8208 7.86495 16.8208C8.031 16.8208 8.17264 16.7719 8.28986 16.6742C9.23735 15.8244 10.1116 14.8037 10.9126 13.612C11.7233 12.4203 12.3582 11.3214 12.8173 10.3153C13.2862 9.29939 13.7013 8.25421 14.0627 7.17973C14.4242 6.09548 14.6586 5.32869 14.766 4.87937C14.8833 4.43004 14.9614 4.08327 15.0005 3.83907C15.0102 3.79023 15.0151 3.74139 15.0151 3.69255C15.0249 3.5851 15.0005 3.47766 14.9419 3.37021C14.8637 3.21392 14.7465 3.10647 14.5902 3.04786L8.08473 0.703541C8.05542 0.703541 8.01635 0.698657 7.96751 0.688889C7.91867 0.679121 7.8796 0.674237 7.8503 0.674237L7.64517 0.703541L1.13967 3.04786C0.983384 3.10647 0.866168 3.21392 0.788024 3.37021C0.729416 3.47766 0.695228 3.58999 0.68546 3.7072C0.68546 3.75604 0.690344 3.8 0.700112 3.83907ZM3.16165 4.42515H5.62319L7.8503 10.1394L10.1067 4.42515H12.5682C12.5096 4.57167 12.4315 4.78657 12.3338 5.06984C12.2361 5.34335 12.1433 5.59243 12.0554 5.81709C11.9675 6.04176 11.8747 6.25177 11.777 6.44713C11.7575 6.4862 11.7233 6.51551 11.6745 6.53504C11.6354 6.55458 11.5866 6.57411 11.528 6.59365C11.4693 6.60342 11.4254 6.61319 11.3961 6.62295C11.3472 6.65226 11.3033 6.68645 11.2642 6.72552C11.2349 6.75482 11.2056 6.79878 11.1763 6.85739C11.1568 6.90623 11.1372 6.9453 11.1177 6.9746C11.1079 7.00391 11.0884 7.05763 11.0591 7.13578C11.0395 7.20415 11.0249 7.24811 11.0151 7.26764L10.6635 8.14676C9.60854 10.8134 8.98339 12.3958 8.78802 12.894H6.94187L6.15066 10.96C6.07252 10.7255 5.93577 10.3739 5.74041 9.90501C5.66226 9.67057 5.52551 9.31892 5.33015 8.85006L4.89059 7.76581C4.85152 7.6779 4.80756 7.56068 4.75872 7.41416C4.70988 7.26764 4.65616 7.13578 4.59755 7.01856C4.54871 6.90134 4.48033 6.78901 4.39242 6.68156C4.35335 6.64249 4.30939 6.61807 4.26055 6.6083C4.21171 6.58877 4.15799 6.579 4.09938 6.579C4.04077 6.579 4.0017 6.57412 3.98216 6.56435C3.73796 5.9685 3.46446 5.25543 3.16165 4.42515Z" fill="black"/>
</svg>
