<svg width="22" height="17" viewBox="0 0 22 17" fill="none" xmlns="http://www.w3.org/2000/svg">
<path fill-rule="evenodd" clip-rule="evenodd" d="M14.9417 0.761841V14.7872L6.67651 12.3661V16.7618H5.12683V11.9121L2.3118 11.0875C1.22277 10.7685 0.478027 9.79809 0.478027 8.69809V6.85094C0.478027 5.75093 1.22277 4.78053 2.3118 4.46152L14.9417 0.761841ZM13.3921 12.7679L6.67651 10.8008L6.67651 4.74827L13.3921 2.78109V12.7679ZM5.12683 5.20222L5.12683 10.3468L2.76122 9.65386C2.32561 9.52625 2.02771 9.13809 2.02771 8.69809V6.85094C2.02771 6.41094 2.32561 6.02278 2.76122 5.89517L5.12683 5.20222ZM17.0081 8.52446H21.1405V7.02643H17.0081V8.52446ZM21.1405 12.768L17.0081 11.7693V10.2712L21.1405 11.2699V12.768ZM17.0081 5.27821L21.1405 4.27952V2.78149L17.0081 3.78018V5.27821Z" fill="black"/>
</svg>
