<svg width="12" height="16" viewBox="0 0 12 16" fill="none" xmlns="http://www.w3.org/2000/svg">
<path fill-rule="evenodd" clip-rule="evenodd" d="M6 0.850098C3.92893 0.850098 2.25 2.52903 2.25 4.6001V7.0001H1C0.447715 7.0001 0 7.44781 0 8.0001V14.2001C0 14.7524 0.447715 15.2001 1 15.2001H11C11.5523 15.2001 12 14.7524 12 14.2001V8.0001C12 7.44781 11.5523 7.0001 11 7.0001H9.75V4.6001C9.75 2.52903 8.07107 0.850098 6 0.850098ZM8.25 7.0001V4.6001C8.25 3.35746 7.24264 2.3501 6 2.3501C4.75736 2.3501 3.75 3.35746 3.75 4.6001V7.0001H8.25Z" fill="black"/>
</svg>
