<svg fill="none" height="13" viewBox="0 0 55 13" width="55"
	 xmlns="http://www.w3.org/2000/svg">
	<g fill="#000">
		<path
				d="m3.00058 8.91272-2.402924-8.505982h2.044034l1.4954 5.981412h.07835l1.52843-5.981412h2.02138l1.52838 5.948412h.08248l1.47279-5.948412h2.0481l-2.4091 8.505982h-2.0874l-1.5944-5.74834h-.11552l-1.5944 5.74834h-2.09353z"></path>
		<path
				d="m13.4972 12.1006v-11.696733h1.9719v1.406653h.1155c.1031-.20626.2495-.42694.4372-.66207.1877-.235135.4435-.435214.7653-.604344.3218-.169129.7302-.251626 1.2293-.251626.658 0 1.2499.167079 1.78.501213.5301.334137.9509.827067 1.2624 1.478837.3114.65177.4682 1.44997.4682 2.39462 0 .94466-.1526 1.72843-.46 2.3802-.3073.65383-.724 1.15091-1.252 1.49536-.528.34238-1.1262.51564-1.7945.51564-.4867 0-.891-.08043-1.2128-.24337s-.5796-.35891-.7735-.58992c-.1939-.231-.3444-.44962-.4517-.65587h-.0825v4.52941h-2.0049zm1.9657-7.44374c0 .5507.0784 1.03128.2351 1.44585.1568.41251.3837.73632.6807.96733.297.231.658.34652 1.0829.34652s.8147-.11963 1.1138-.35682c.299-.23719.5259-.56514.6786-.97971.1526-.41458.2289-.88897.2289-1.42111s-.0763-.99623-.2269-1.40668c-.1505-.41044-.3774-.73012-.6765-.96319s-.6724-.34859-1.1179-.34859-.7921.11344-1.0912.33826c-.299.22482-.5259.54039-.6786.94671-.1526.40632-.2289.88485-.2289 1.43349z"></path>
		<path
				d="m23.4848 9.03055c-.3362 0-.625-.11756-.8643-.35475-.2393-.2372-.3589-.52391-.3548-.86423-.0041-.33207.1135-.6167.3548-.85184.2393-.23719.5281-.35475.8643-.35475s.6084.11756.8497.35475c.2414.2372.3651.51977.3693.85184-.0042.22482-.0619.42903-.1754.61466-.1134.18563-.2599.33208-.4434.43933-.1836.10932-.3837.16292-.6002.16292z"></path>
		<path
				d="m29.4654 9.07581c-.8498 0-1.5779-.18562-2.1843-.55894-.6065-.37332-1.0747-.88896-1.4006-1.54692-.3259-.65795-.4909-1.41905-.4909-2.27913 0-.86009.1671-1.62736.4992-2.28944s.8024-1.17978 1.4088-1.551043c.6064-.37126 1.3262-.55688 2.1575-.55688.6909 0 1.3014.125809 1.8357.379503.5342.253695.9591.60847 1.2768 1.06842.3176.45995.4991.9962.5424 1.60877h-1.9162c-.0783-.41044-.2619-.75282-.5507-1.02714-.2908-.27432-.6765-.41252-1.1592-.41252-.4104 0-.7693.10934-1.0808.33003-.3094.21863-.5507.5342-.7219.94465-.1712.41044-.2578.90134-.2578 1.47266 0 .57133.0845 1.07666.2537 1.49329.1691.41664.4084.73428.7177.9591.3074.22275.6704.33413 1.0891.33413.295 0 .5611-.0557.7941-.16914.2352-.11345.4311-.27639.59-.49089.1588-.21451.2681-.47437.3258-.7817h1.9162c-.0474.60227-.2248 1.13441-.5322 1.59849-.3073.46407-.7239.82502-1.2519 1.0849-.5281.25988-1.1489.3898-1.8605.3898z"></path>
		<path
				d="m37.691 9.0769c-.8313 0-1.5511-.18355-2.1596-.54862s-1.0808-.8766-1.4149-1.53456c-.3342-.65795-.5013-1.42521-.5013-2.30386 0-.87864.1671-1.64799.5013-2.31007.3341-.66002.8064-1.17359 1.4149-1.538662.6085-.365073 1.3283-.548648 2.1596-.548648.8312 0 1.5511.183575 2.1595.548648.6085.365072 1.0809.878642 1.415 1.538662.3341.66001.5012 1.43143.5012 2.31007 0 .87865-.1671 1.64591-.5012 2.30386-.3341.65796-.8065 1.16949-1.415 1.53456-.6084.36507-1.3283.54862-2.1595.54862zm.0103-1.60671c.4496 0 .8271-.12377 1.1303-.37334s.528-.5837.6786-1.00446.2249-.88895.2249-1.40665c0-.51771-.0743-.99209-.2249-1.41491-.1485-.42283-.3754-.75903-.6786-1.01066s-.6786-.37747-1.1303-.37747-.8436.12584-1.1489.37747-.5322.58783-.6807 1.01066c-.1505.42282-.2248.89514-.2248 1.41491 0 .51976.0743.98589.2248 1.40665.1485.42076.3775.75489.6807 1.00446.3053.24957.6869.37334 1.1489.37334z"></path>
		<path
				d="m42.7451 8.90876v-8.505981h1.9162v1.445851h.099c.1774-.48676.4703-.868342.8807-1.142662.4105-.27432.8994-.412511 1.4686-.412511.5693 0 1.0623.14026 1.4583.418705s.6765.657958.8395 1.138538h.0887c.1877-.47233.5074-.84977.955-1.132344.4476-.28257.9818-.422834 1.5985-.422834.7817 0 1.4212.247501 1.9162.742518.495.49501.7425 1.21691.7425 2.16568v5.70917h-2.0111v-5.39979c0-.52801-.1402-.91371-.4207-1.15915-.2806-.24545-.625-.36921-1.0293-.36921-.4847 0-.8622.15058-1.1324.45172-.2722.30113-.4063.69094-.4063 1.17151v5.30492h-1.9657v-5.48229c0-.43933-.132-.78996-.396-1.0519-.264-.26195-.6084-.39396-1.0333-.39396-.2888 0-.5508.0722-.7859.21865-.2372.14644-.4249.35063-.5652.61463-.1402.26401-.2104.57133-.2104.92196v5.17291h-2.0048z"></path>
	</g>
</svg>
