<svg fill="none" height="20" viewBox="0 0 125 20" width="125" xmlns="http://www.w3.org/2000/svg"><g clip-rule="evenodd" fill="#3858e9" fill-rule="evenodd"><path d="m14.515 17.7707 2.7448-7.9395c.513-1.28269.6837-2.30817.6837-3.22012 0-.3311-.0218-.6383-.0606-.92464.7016 1.28049 1.1008 2.75 1.1008 4.31329 0 3.31667-1.7968 6.21277-4.4687 7.77097zm-3.2801-11.98646c.541-.02842 1.0285-.08537 1.0285-.08537.4842-.05719.4273-.76927-.0572-.74085 0 0-1.4557.11427-2.39544.11427-.88321 0-2.36706-.11427-2.36706-.11427-.48458-.02842-.54139.71219-.05681.74085 0 0 .45837.05695.94246.08537l1.4001 3.83792-1.96721 5.90064-3.27234-9.73856c.54151-.02842 1.02841-.08537 1.02841-.08537.48421-.05719.42692-.76927-.05742-.74085 0 0-1.45544.11427-2.39522.11427-.16847 0-.3673-.00427-.57869-.01098 1.60722-2.44049 4.36938-4.0522 7.5092-4.0522 2.33972 0 4.47022.89488 6.06902 2.36049-.0385-.00244-.0766-.00731-.1163-.00731-.883 0-1.5093.76926-1.5093 1.59573 0 .74085.4272 1.36756.8828 2.10866.3417.59878.7408 1.36792.7408 2.47927 0 .76985-.2281 1.73815-.6837 2.90675l-.8967 2.9962zm-1.23839 13.20646c-.88212 0-1.73363-.1297-2.53883-.3662l2.69682-7.8388 2.7623 7.5712c.0181.0442.0403.0849.0643.1238-.9341.3287-1.9379.51-2.98459.51zm-8.9874-8.9901c0-1.30356.27954-2.54112.77838-3.65905l4.28697 11.75035c-2.99842-1.4571-5.06535-4.5324-5.06535-8.0913zm8.98687-10.0006c-5.51165 0-9.99598 4.48573-9.99598 9.99951 0 5.51429 4.48433 10.00049 9.99598 10.00049 5.51172 0 9.99622-4.4862 9.99622-10.00049 0-5.51378-4.4845-9.99951-9.99622-9.99951z"></path><path d="m37.785 5.7168-1.9932 7.6611-1.9929-7.6611h-2.012l.4685 1.64183-1.7545 6.27857-1.908-7.9204h-1.9347l2.7197 10.0057h2.1082l1.6291-5.3494 1.5262 5.3494h2.1084l2.8546-10.0057zm57.9552 10.0057h1.7681v-1.8217h-1.7681zm-52.7777-7.27133c-2.4332 0-3.5829 1.56833-3.5829 3.73363 0 2.1655 1.1497 3.7189 3.5829 3.7189 2.4185 0 3.583-1.5534 3.583-3.7189 0-2.1653-1.1645-3.73363-3.583-3.73363zm.0018 6.03193c-1.1498 0-1.7618-.7466-1.7618-2.3 0-1.5382.612-2.30004 1.7618-2.30004s1.7473.74694 1.7473 2.30004c0 1.5385-.5975 2.3-1.7473 2.3zm15.1095-5.86935c-.5226-.10427-.8958-.16427-1.3287-.16427-2.4334 0-3.762 1.62792-3.762 4.00252 0 2.3596 1.3286 3.45 2.8962 3.45.7765 0 1.7167-.3586 2.2841-.8364v.6569h1.6718v-10.0057h-1.7614zm.0023 5.06235c-.5672.5226-1.105.8065-1.6722.8065-.9708 0-1.5979-.6425-1.5979-2.1506 0-1.628.7765-2.47905 2.1205-2.47905.4179 0 .8511.10439 1.1496.22385zm7.2029-7.9593h-3.2627v10.0057h1.8811v-3.4796h1.3816c2.1349 0 3.6878-1.15 3.6878-3.30037 0-2.16585-1.5529-3.22573-3.6878-3.22573zm.0158 5.0615h-1.397v-3.58405h1.397c1.1349 0 1.7025.62708 1.7025 1.74732 0 1.10483-.5226 1.83673-1.7025 1.83673zm13.2363-2.32713c-2.2691 0-3.4484 1.76243-3.4484 3.68883 0 2.6436 1.3878 3.7637 3.6399 3.7637.9105 0 1.6973-.1212 2.6155-.4034v-1.4653c-.7395.2713-1.4066.4347-2.123.4347-1.3132 0-2.1917-.3583-2.2366-1.9116h4.5383c.0302-.2835.06-.5523.06-1.0451 0-1.4935-.7912-3.06183-3.0457-3.06183zm-1.5344 2.93943c.1045-.9857.642-1.61293 1.5227-1.61293.9411 0 1.2247.74693 1.2247 1.61293zm7.6415-.7737c0-.5378.5826-.74658 1.2092-.74658 1.0112 0 1.9705.31328 1.9705.31328v-1.46365c-.6566-.19402-1.3285-.26878-2.1046-.26878-1.702 0-2.8962.80647-2.8962 2.12063 0 2.5539 3.5232 1.8971 3.5232 3.1364 0 .6124-.5525.7766-1.3585.7766-.5675 0-1.4779-.2214-2.1348-.4498v1.4487c.5469.2153 1.3135.42 2.075.42 1.657 0 3.2396-.493 3.2396-2.2701 0-2.4643-3.5234-1.8221-3.5234-3.0167zm24.4468-2.16573c-2.433 0-3.582 1.56833-3.582 3.73363 0 2.1655 1.149 3.7189 3.582 3.7189 2.419 0 3.584-1.5534 3.584-3.7189 0-2.1653-1.165-3.73363-3.584-3.73363zm-.001 6.03193c-1.15 0-1.762-.7466-1.762-2.3 0-1.5382.612-2.30004 1.762-2.30004s1.747.74694 1.747 2.30004c0 1.5385-.597 2.3-1.747 2.3zm13.661-6.03193c-.761 0-1.627.41817-2.418.94098l-.209.13451c-.373-.79159-1.12-1.07549-1.941-1.07549-.761 0-1.627.38854-2.418.91122v-.73183h-1.672v7.09364h1.776v-5.0924c.657-.4331 1.358-.70185 1.866-.70185.583 0 .941.31345.941 1.31425v4.48h1.761v-5.0775c.657-.4331 1.359-.71675 1.866-.71675.583 0 .941.31345.941 1.31425v4.48h1.762v-4.8982c0-1.37422-.822-2.37483-2.255-2.37483zm-50.9768 1.34363h-.0596v-1.16488h-1.6422v7.09368h1.7614v-4.2264c.5524-1.0452 1.2242-1.3887 2.3438-1.3887h.1791v-1.53822s-.2536-.03-.4778-.03c-.9551 0-1.6122.3733-2.1047 1.25452zm-22.0993 0h-.0597v-1.16488h-1.6424v7.09368h1.7618v-4.2264c.5522-1.0452 1.2241-1.3887 2.3437-1.3887h.1793v-1.53822s-.2541-.03-.4777-.03c-.9557 0-1.6124.3733-2.105 1.25452zm50.6711 2.3155c0-1.6577.911-2.22547 1.986-2.22547.716 0 1.47.20937 1.977.40337v-1.49337c-.597-.19427-1.126-.34366-2.007-.34366-2.344 0-3.7921 1.43366-3.7921 3.74853 0 2.1954 1.045 3.704 3.6871 3.704.836 0 1.485-.1644 2.202-.4034v-1.4636c-.806.3136-1.425.433-1.978.433-1.164 0-2.075-.5376-2.075-2.3594zm-9.2887-1.4934c0-.5378.5823-.74658 1.2094-.74658 1.0111 0 1.9705.31328 1.9705.31328v-1.46365c-.6569-.19402-1.3288-.26878-2.1051-.26878-1.7018 0-2.8963.80647-2.8963 2.12063 0 2.5539 3.5234 1.8971 3.5234 3.1364 0 .6124-.5525.7766-1.3587.7766-.5673 0-1.4776-.2214-2.1346-.4498v1.4487c.5471.2153 1.3137.42 2.075.42 1.6573 0 3.2394-.493 3.2394-2.2701 0-2.4643-3.523-1.8221-3.523-3.0167z"></path></g></svg>
