<svg fill="none" height="18" viewBox="0 0 18 18" width="18"
	 xmlns="http://www.w3.org/2000/svg">
	<path clip-rule="evenodd"
		  d="m12.5176 15.6232 2.3416-6.76954c.4359-1.09408.5823-1.96763.5823-2.74468 0-.28085-.0189-.54446-.0516-.78912.5978 1.09063.939 2.34496.939 3.67681 0 2.82743-1.5318 5.29643-3.8113 6.62483zm-2.7982-10.21892c.4618-.02412.877-.07236.877-.07236.4118-.04825.3636-.65645-.0482-.63233 0 0-1.2406.09648-2.04353.09648-.75468 0-2.01937-.09648-2.01937-.09648-.41353-.02412-.46177.60821-.04825.63233 0 0 .39113.04824.80465.07236l1.19405 3.27364-1.67822 5.03108-2.79129-8.30644c.4635-.02412.87702-.07237.87702-.07237.4118-.04824.36356-.65645-.04824-.63233 0 0-1.24058.09649-2.04351.09649-.14301 0-.31358-.00345-.4945-.00861 1.37324-2.0779 3.72861-3.45283 6.40618-3.45283 1.99701 0 3.81301.76327 5.17591 2.01415-.0327-.00173-.0654-.0069-.0982-.0069-.7547 0-1.2871.65646-1.2871 1.35943 0 .63233.3636 1.16645.7547 1.79878.2912.51.6324 1.16645.6324 2.11408 0 .65645-.1947 1.48175-.5841 2.47935l-.7651 2.5552-2.77057-8.23927v-.00345zm-1.05621 11.25962c-.75296 0-1.47835-.112-2.16583-.3119l2.30023-6.68337 2.35711 6.45597c.0155.0379.0344.0724.0551.1051-.7977.2791-1.65408.4342-2.54488.4342zm-7.665708-7.66723c0-1.11131.239498-2.16577.663358-3.1203l3.65625 10.01903c-2.55868-1.2422-4.319608-3.8629-4.319608-6.89873zm7.665708-8.523525c-4.70039 0-8.525495 3.824995-8.525495 8.525245 0 4.70031 3.825105 8.52521 8.525495 8.52521 4.70041 0 8.52551-3.8249 8.52551-8.52521 0-4.70025-3.8234-8.525245-8.52551-8.525245z"
		  fill="#000" fill-rule="evenodd"></path>
</svg>

