<svg width="1234" height="821" viewBox="0 0 1234 821" fill="none" xmlns="http://www.w3.org/2000/svg">
<g filter="url(#filter0_f_0_1)">
<rect x="78.897" y="496.9" width="23.6762" height="43.2033" transform="rotate(-20.3882 78.897 496.9)" fill="#F2D76B"/>
</g>
<rect x="1210.31" y="70.8611" width="13.0343" height="23.7844" transform="rotate(-20.3882 1210.31 70.8611)" fill="#31CC9F"/>
<g filter="url(#filter1_f_0_1)">
<rect x="629" y="11.7962" width="40.613" height="74.1089" transform="rotate(15 629 11.7962)" fill="#E34C84"/>
</g>
<g filter="url(#filter2_f_0_1)">
<rect x="1191.53" y="771.577" width="20.9449" height="38.2193" transform="rotate(-30.8345 1191.53 771.577)" fill="#31CC9F"/>
</g>
<g filter="url(#filter3_f_0_1)">
<rect x="265.972" y="79.5468" width="20.9449" height="38.2193" transform="rotate(-9.27237 265.972 79.5468)" fill="#31CC9F"/>
</g>
<rect x="72.9009" y="796.111" width="15.7131" height="28.6726" transform="rotate(-30.8345 72.9009 796.111)" fill="#B35EB1"/>
<rect x="17.1675" y="52.8439" width="15.7131" height="28.6726" transform="rotate(35.3887 17.1675 52.8439)" fill="#FAA754"/>
<circle cx="239.825" cy="343.192" r="11.8377" fill="#6AB3D0"/>
<circle cx="448.679" cy="794.456" r="11.8377" fill="#618DF2"/>
<circle cx="1130.14" cy="476.861" r="7.83667" fill="#6AB3D0"/>
<circle cx="460.516" cy="176.527" r="7.83667" fill="#618DF2"/>
<circle cx="905.227" cy="93.1556" r="7.83667" fill="#B35EB1"/>
<circle cx="816.9" cy="176.527" r="7.83667" fill="#F2D76B"/>
<g filter="url(#filter4_f_0_1)">
<circle cx="755.344" cy="737.998" r="22.8439" fill="#FAA754"/>
</g>
<defs>
<filter id="filter0_f_0_1" x="67.897" y="477.652" width="59.2441" height="70.745" filterUnits="userSpaceOnUse" color-interpolation-filters="sRGB">
<feFlood flood-opacity="0" result="BackgroundImageFix"/>
<feBlend mode="normal" in="SourceGraphic" in2="BackgroundImageFix" result="shape"/>
<feGaussianBlur stdDeviation="5.5" result="effect1_foregroundBlur_0_1"/>
</filter>
<filter id="filter1_f_0_1" x="598.819" y="0.796204" width="80.4097" height="104.095" filterUnits="userSpaceOnUse" color-interpolation-filters="sRGB">
<feFlood flood-opacity="0" result="BackgroundImageFix"/>
<feBlend mode="normal" in="SourceGraphic" in2="BackgroundImageFix" result="shape"/>
<feGaussianBlur stdDeviation="5.5" result="effect1_foregroundBlur_0_1"/>
</filter>
<filter id="filter2_f_0_1" x="1187.53" y="756.842" width="45.5742" height="51.5525" filterUnits="userSpaceOnUse" color-interpolation-filters="sRGB">
<feFlood flood-opacity="0" result="BackgroundImageFix"/>
<feBlend mode="normal" in="SourceGraphic" in2="BackgroundImageFix" result="shape"/>
<feGaussianBlur stdDeviation="2" result="effect1_foregroundBlur_0_1"/>
</filter>
<filter id="filter3_f_0_1" x="261.972" y="72.1719" width="34.8296" height="49.0947" filterUnits="userSpaceOnUse" color-interpolation-filters="sRGB">
<feFlood flood-opacity="0" result="BackgroundImageFix"/>
<feBlend mode="normal" in="SourceGraphic" in2="BackgroundImageFix" result="shape"/>
<feGaussianBlur stdDeviation="2" result="effect1_foregroundBlur_0_1"/>
</filter>
<filter id="filter4_f_0_1" x="721.5" y="704.154" width="67.688" height="67.6879" filterUnits="userSpaceOnUse" color-interpolation-filters="sRGB">
<feFlood flood-opacity="0" result="BackgroundImageFix"/>
<feBlend mode="normal" in="SourceGraphic" in2="BackgroundImageFix" result="shape"/>
<feGaussianBlur stdDeviation="5.5" result="effect1_foregroundBlur_0_1"/>
</filter>
</defs>
</svg>