<svg width="210" height="60" viewBox="0 0 210 60" fill="none" xmlns="http://www.w3.org/2000/svg">
<rect width="210" height="60" rx="8" fill="white"/>
<path d="M17.1465 23V15.8164H14.5449V14.5449H21.2598V15.8164H18.6582V23H17.1465ZM21.9453 23V16.5957H23.4043V17.5801H23.5039C23.6133 17.2363 23.8086 16.9688 24.0898 16.7773C24.375 16.5859 24.7285 16.4902 25.1504 16.4902C25.2598 16.4902 25.3672 16.498 25.4727 16.5137C25.582 16.5254 25.6719 16.541 25.7422 16.5605V17.8672C25.625 17.8398 25.5059 17.8203 25.3848 17.8086C25.2676 17.793 25.1445 17.7852 25.0156 17.7852C24.6914 17.7852 24.4082 17.8457 24.166 17.9668C23.9238 18.0879 23.7363 18.2617 23.6035 18.4883C23.4707 18.7109 23.4043 18.9746 23.4043 19.2793V23H21.9453ZM29.0469 23.1289C28.5703 23.1289 28.1699 23.0371 27.8457 22.8535C27.5215 22.666 27.2773 22.3945 27.1133 22.0391C26.9492 21.6797 26.8672 21.2461 26.8672 20.7383V16.5957H28.3262V20.4043C28.3262 20.9004 28.4238 21.2734 28.6191 21.5234C28.8145 21.7734 29.1328 21.8984 29.5742 21.8984C29.8086 21.8984 30.0156 21.8633 30.1953 21.793C30.3789 21.7188 30.5312 21.6133 30.6523 21.4766C30.7734 21.3398 30.8652 21.1758 30.9277 20.9844C30.9902 20.7891 31.0215 20.5703 31.0215 20.3281V16.5957H32.4805V23H31.0215V22.0273H30.9219C30.8242 22.2539 30.6875 22.4512 30.5117 22.6191C30.3359 22.7832 30.125 22.9102 29.8789 23C29.6328 23.0859 29.3555 23.1289 29.0469 23.1289ZM36.6816 23.1289C36.1387 23.1289 35.6699 23.0527 35.2754 22.9004C34.8848 22.7441 34.5762 22.5293 34.3496 22.2559C34.123 21.9785 33.9883 21.6582 33.9453 21.2949V21.2832H35.3926L35.3984 21.2949C35.4766 21.5176 35.623 21.6992 35.8379 21.8398C36.0527 21.9805 36.3418 22.0508 36.7051 22.0508C36.9473 22.0508 37.1602 22.0176 37.3438 21.9512C37.5273 21.8809 37.6719 21.7852 37.7773 21.6641C37.8828 21.543 37.9355 21.4023 37.9355 21.2422V21.2305C37.9355 21.043 37.8594 20.8867 37.707 20.7617C37.5547 20.6328 37.3027 20.5293 36.9512 20.4512L35.9141 20.2168C35.5078 20.127 35.1719 20.002 34.9062 19.8418C34.6406 19.6816 34.4414 19.4844 34.3086 19.25C34.1797 19.0156 34.1152 18.7422 34.1152 18.4297V18.4238C34.1152 18.0371 34.2227 17.6973 34.4375 17.4043C34.6562 17.1113 34.959 16.8828 35.3457 16.7188C35.7324 16.5547 36.1777 16.4727 36.6816 16.4727C37.2012 16.4727 37.6484 16.5508 38.0234 16.707C38.3984 16.8633 38.6914 17.0781 38.9023 17.3516C39.1133 17.625 39.2344 17.9355 39.2656 18.2832V18.2949H37.8945L37.8887 18.2773C37.834 18.0742 37.7031 17.9023 37.4961 17.7617C37.293 17.6172 37.0195 17.5449 36.6758 17.5449C36.4609 17.5449 36.2676 17.5781 36.0957 17.6445C35.9277 17.7109 35.7949 17.8047 35.6973 17.9258C35.6035 18.043 35.5566 18.1816 35.5566 18.3418V18.3477C35.5566 18.4727 35.5879 18.582 35.6504 18.6758C35.7168 18.7695 35.8203 18.8516 35.9609 18.9219C36.1016 18.9922 36.2871 19.0547 36.5176 19.1094L37.5547 19.3379C38.1836 19.4785 38.6484 19.6875 38.9492 19.9648C39.25 20.2422 39.4004 20.6152 39.4004 21.084V21.0957C39.4004 21.502 39.2832 21.8574 39.0488 22.1621C38.8145 22.4668 38.4922 22.7051 38.082 22.877C37.6719 23.0449 37.2051 23.1289 36.6816 23.1289ZM43.3555 23.0293C42.6211 23.0293 42.0918 22.8945 41.7676 22.625C41.4434 22.3555 41.2812 21.9141 41.2812 21.3008V17.7266H40.2852V16.5957H41.2812V15.0254H42.7637V16.5957H44.1113V17.7266H42.7637V20.9551C42.7637 21.2715 42.8301 21.5039 42.9629 21.6523C43.0996 21.7969 43.3184 21.8691 43.6191 21.8691C43.7246 21.8691 43.8105 21.8672 43.877 21.8633C43.9473 21.8555 44.0254 21.8477 44.1113 21.8398V22.9648C44.0098 22.9844 43.8926 23 43.7598 23.0117C43.6309 23.0234 43.4961 23.0293 43.3555 23.0293ZM51.8574 23.2109C51.2012 23.2109 50.6309 23.1094 50.1465 22.9062C49.666 22.7031 49.2871 22.4199 49.0098 22.0566C48.7324 21.6934 48.5762 21.2695 48.541 20.7852L48.5352 20.7031H50L50.0059 20.7617C50.0293 21 50.123 21.207 50.2871 21.3828C50.4551 21.5586 50.6777 21.6973 50.9551 21.7988C51.2324 21.8965 51.5488 21.9453 51.9043 21.9453C52.2441 21.9453 52.5449 21.8926 52.8066 21.7871C53.0684 21.6816 53.2734 21.5371 53.4219 21.3535C53.5703 21.166 53.6445 20.9512 53.6445 20.709V20.7031C53.6445 20.3984 53.5254 20.1504 53.2871 19.959C53.0488 19.7637 52.6562 19.6074 52.1094 19.4902L51.2012 19.3027C50.334 19.1191 49.7031 18.8262 49.3086 18.4238C48.918 18.0176 48.7227 17.5 48.7227 16.8711V16.8652C48.7227 16.3613 48.8555 15.9199 49.1211 15.541C49.3906 15.1621 49.7598 14.8672 50.2285 14.6562C50.7012 14.4414 51.2422 14.334 51.8516 14.334C52.4766 14.334 53.0176 14.4395 53.4746 14.6504C53.9316 14.8574 54.291 15.1406 54.5527 15.5C54.8145 15.8594 54.9609 16.2656 54.9922 16.7188L54.998 16.7949H53.5566L53.5449 16.7246C53.5098 16.502 53.418 16.3086 53.2695 16.1445C53.125 15.9766 52.9316 15.8438 52.6895 15.7461C52.4473 15.6484 52.1641 15.5996 51.8398 15.5996C51.5312 15.5996 51.2559 15.6484 51.0137 15.7461C50.7715 15.8398 50.5801 15.9727 50.4395 16.1445C50.3027 16.3164 50.2344 16.5234 50.2344 16.7656V16.7715C50.2344 17.0684 50.3496 17.3145 50.5801 17.5098C50.8145 17.7051 51.1953 17.8574 51.7227 17.9668L52.6309 18.1602C53.2246 18.2852 53.707 18.4512 54.0781 18.6582C54.4492 18.8652 54.7207 19.123 54.8926 19.4316C55.0684 19.7363 55.1562 20.1035 55.1562 20.5332V20.5391C55.1562 21.0859 55.0215 21.5586 54.752 21.957C54.4863 22.3555 54.1055 22.6641 53.6094 22.8828C53.1172 23.1016 52.5332 23.2109 51.8574 23.2109ZM56.7207 23V16.5957H58.1738V23H56.7207ZM57.4531 15.5234C57.2148 15.5234 57.0098 15.4395 56.8379 15.2715C56.666 15.1035 56.5801 14.9023 56.5801 14.668C56.5801 14.4258 56.666 14.2227 56.8379 14.0586C57.0098 13.8906 57.2148 13.8066 57.4531 13.8066C57.6914 13.8066 57.8945 13.8906 58.0625 14.0586C58.2344 14.2227 58.3203 14.4258 58.3203 14.668C58.3203 14.9023 58.2344 15.1035 58.0625 15.2715C57.8945 15.4395 57.6914 15.5234 57.4531 15.5234ZM62.7266 25.25C62.1641 25.25 61.6777 25.1758 61.2676 25.0273C60.8613 24.8789 60.541 24.668 60.3066 24.3945C60.0723 24.125 59.9297 23.8105 59.8789 23.4512L59.8848 23.4336H61.3379L61.3496 23.4512C61.3965 23.6543 61.5391 23.8203 61.7773 23.9492C62.0195 24.082 62.3438 24.1484 62.75 24.1484C63.25 24.1484 63.6367 24.0371 63.9102 23.8145C64.1875 23.5918 64.3262 23.2754 64.3262 22.8652V21.6348H64.2266C64.1055 21.8652 63.9473 22.0605 63.752 22.2207C63.5605 22.3809 63.3398 22.502 63.0898 22.584C62.8438 22.6621 62.5723 22.7012 62.2754 22.7012C61.7363 22.7012 61.2695 22.5723 60.875 22.3145C60.4805 22.0527 60.1758 21.6914 59.9609 21.2305C59.75 20.7695 59.6445 20.2363 59.6445 19.6309V19.6191C59.6445 19.002 59.752 18.459 59.9668 17.9902C60.1816 17.5215 60.4863 17.1543 60.8809 16.8887C61.2793 16.623 61.7539 16.4902 62.3047 16.4902C62.6016 16.4902 62.873 16.5371 63.1191 16.6309C63.3691 16.7246 63.5879 16.8574 63.7754 17.0293C63.9668 17.2012 64.123 17.4082 64.2441 17.6504H64.3203V16.5957H65.7793V22.8418C65.7793 23.334 65.6543 23.7598 65.4043 24.1191C65.1582 24.4824 64.8066 24.7617 64.3496 24.957C63.8926 25.1523 63.3516 25.25 62.7266 25.25ZM62.7266 21.541C63.0625 21.541 63.3516 21.4609 63.5938 21.3008C63.8359 21.1367 64.0215 20.9121 64.1504 20.627C64.2832 20.3418 64.3496 20.0098 64.3496 19.6309V19.6191C64.3496 19.2402 64.2832 18.9082 64.1504 18.623C64.0215 18.334 63.8359 18.1094 63.5938 17.9492C63.3516 17.7852 63.0625 17.7031 62.7266 17.7031C62.3867 17.7031 62.0977 17.7852 61.8594 17.9492C61.625 18.1094 61.4453 18.334 61.3203 18.623C61.1992 18.9082 61.1387 19.2402 61.1387 19.6191V19.6309C61.1387 20.0059 61.1992 20.3379 61.3203 20.627C61.4453 20.9121 61.625 21.1367 61.8594 21.3008C62.0977 21.4609 62.3867 21.541 62.7266 21.541ZM67.5664 23V16.5957H69.0254V17.5801H69.125C69.2773 17.2324 69.5078 16.9609 69.8164 16.7656C70.125 16.5703 70.5098 16.4727 70.9707 16.4727C71.6855 16.4727 72.2324 16.6797 72.6113 17.0938C72.9902 17.5078 73.1797 18.0957 73.1797 18.8574V23H71.7207V19.1973C71.7207 18.6973 71.6152 18.3223 71.4043 18.0723C71.1973 17.8223 70.873 17.6973 70.4316 17.6973C70.1426 17.6973 69.8926 17.7617 69.6816 17.8906C69.4707 18.0195 69.3086 18.2012 69.1953 18.4355C69.082 18.6699 69.0254 18.9473 69.0254 19.2676V23H67.5664ZM76.6484 23.1055C76.2461 23.1055 75.8848 23.0273 75.5645 22.8711C75.248 22.7148 74.998 22.4941 74.8145 22.209C74.6348 21.9199 74.5449 21.5801 74.5449 21.1895V21.1777C74.5449 20.7988 74.6387 20.4727 74.8262 20.1992C75.0137 19.9219 75.2891 19.7051 75.6523 19.5488C76.0156 19.3926 76.457 19.3008 76.9766 19.2734L79.3438 19.127V20.0879L77.1816 20.2285C76.7715 20.252 76.4688 20.3379 76.2734 20.4863C76.0781 20.6348 75.9805 20.8418 75.9805 21.1074V21.1191C75.9805 21.3926 76.084 21.6055 76.291 21.7578C76.502 21.9102 76.7695 21.9863 77.0938 21.9863C77.3867 21.9863 77.6484 21.9277 77.8789 21.8105C78.1094 21.6934 78.291 21.5352 78.4238 21.3359C78.5566 21.1328 78.623 20.9043 78.623 20.6504V18.623C78.623 18.3027 78.5215 18.0586 78.3184 17.8906C78.1152 17.7188 77.8145 17.6328 77.416 17.6328C77.084 17.6328 76.8125 17.6914 76.6016 17.8086C76.3906 17.9219 76.248 18.084 76.1738 18.2949L76.168 18.3184H74.791L74.7969 18.2656C74.8438 17.9062 74.9844 17.5918 75.2188 17.3223C75.4531 17.0527 75.7637 16.8438 76.1504 16.6953C76.5371 16.5469 76.9824 16.4727 77.4863 16.4727C78.041 16.4727 78.5098 16.5586 78.8926 16.7305C79.2754 16.8984 79.5664 17.1445 79.7656 17.4688C79.9648 17.7891 80.0645 18.1738 80.0645 18.623V23H78.623V22.1211H78.5234C78.4062 22.3242 78.2539 22.5 78.0664 22.6484C77.8828 22.7969 77.6719 22.9102 77.4336 22.9883C77.1953 23.0664 76.9336 23.1055 76.6484 23.1055ZM81.875 23V14.1172H83.334V23H81.875ZM87.5879 23.1289C87.0449 23.1289 86.5762 23.0527 86.1816 22.9004C85.791 22.7441 85.4824 22.5293 85.2559 22.2559C85.0293 21.9785 84.8945 21.6582 84.8516 21.2949V21.2832H86.2988L86.3047 21.2949C86.3828 21.5176 86.5293 21.6992 86.7441 21.8398C86.959 21.9805 87.248 22.0508 87.6113 22.0508C87.8535 22.0508 88.0664 22.0176 88.25 21.9512C88.4336 21.8809 88.5781 21.7852 88.6836 21.6641C88.7891 21.543 88.8418 21.4023 88.8418 21.2422V21.2305C88.8418 21.043 88.7656 20.8867 88.6133 20.7617C88.4609 20.6328 88.209 20.5293 87.8574 20.4512L86.8203 20.2168C86.4141 20.127 86.0781 20.002 85.8125 19.8418C85.5469 19.6816 85.3477 19.4844 85.2148 19.25C85.0859 19.0156 85.0215 18.7422 85.0215 18.4297V18.4238C85.0215 18.0371 85.1289 17.6973 85.3438 17.4043C85.5625 17.1113 85.8652 16.8828 86.252 16.7188C86.6387 16.5547 87.084 16.4727 87.5879 16.4727C88.1074 16.4727 88.5547 16.5508 88.9297 16.707C89.3047 16.8633 89.5977 17.0781 89.8086 17.3516C90.0195 17.625 90.1406 17.9355 90.1719 18.2832V18.2949H88.8008L88.7949 18.2773C88.7402 18.0742 88.6094 17.9023 88.4023 17.7617C88.1992 17.6172 87.9258 17.5449 87.582 17.5449C87.3672 17.5449 87.1738 17.5781 87.002 17.6445C86.834 17.7109 86.7012 17.8047 86.6035 17.9258C86.5098 18.043 86.4629 18.1816 86.4629 18.3418V18.3477C86.4629 18.4727 86.4941 18.582 86.5566 18.6758C86.623 18.7695 86.7266 18.8516 86.8672 18.9219C87.0078 18.9922 87.1934 19.0547 87.4238 19.1094L88.4609 19.3379C89.0898 19.4785 89.5547 19.6875 89.8555 19.9648C90.1562 20.2422 90.3066 20.6152 90.3066 21.084V21.0957C90.3066 21.502 90.1895 21.8574 89.9551 22.1621C89.7207 22.4668 89.3984 22.7051 88.9883 22.877C88.5781 23.0449 88.1113 23.1289 87.5879 23.1289Z" fill="#1D2327"/>
<path d="M174.787 23V21.377H170.65V20.1406C170.873 19.7617 171.096 19.3809 171.318 18.998C171.545 18.6152 171.773 18.2344 172.004 17.8555C172.238 17.4727 172.471 17.0957 172.701 16.7246C172.936 16.3496 173.168 15.9805 173.398 15.6172C173.633 15.25 173.867 14.8926 174.102 14.5449H176.229V20.1289H177.371V21.377H176.229V23H174.787ZM172.057 20.1641H174.811V15.752H174.723C174.551 16.0176 174.373 16.291 174.189 16.5723C174.01 16.8535 173.828 17.1406 173.645 17.4336C173.461 17.7266 173.279 18.0215 173.1 18.3184C172.92 18.6113 172.742 18.9062 172.566 19.2031C172.391 19.4961 172.221 19.7871 172.057 20.0762V20.1641ZM181.93 14.1172L179.41 25.127H178.051L180.57 14.1172H181.93ZM184.936 23V16.0332H184.83L182.727 17.5156V16.0977L184.936 14.5449H186.441V23H184.936ZM191.949 23.1699C191.301 23.1699 190.729 23.0664 190.232 22.8594C189.736 22.6484 189.348 22.3594 189.066 21.9922C188.789 21.6211 188.65 21.1953 188.65 20.7148V20.7031C188.65 20.3398 188.73 20.0117 188.891 19.7188C189.055 19.4219 189.281 19.1719 189.57 18.9688C189.859 18.7656 190.191 18.627 190.566 18.5527V18.5176C190.082 18.3887 189.691 18.1582 189.395 17.8262C189.102 17.4902 188.955 17.0957 188.955 16.6426V16.6309C188.955 16.1973 189.082 15.8105 189.336 15.4707C189.594 15.1309 189.947 14.8633 190.396 14.668C190.85 14.4727 191.367 14.375 191.949 14.375C192.531 14.375 193.047 14.4727 193.496 14.668C193.949 14.8633 194.303 15.1309 194.557 15.4707C194.811 15.8105 194.938 16.1973 194.938 16.6309V16.6426C194.938 17.0957 194.791 17.4902 194.498 17.8262C194.205 18.1582 193.816 18.3887 193.332 18.5176V18.5527C193.707 18.627 194.039 18.7656 194.328 18.9688C194.617 19.1719 194.842 19.4219 195.002 19.7188C195.166 20.0117 195.248 20.3398 195.248 20.7031V20.7148C195.248 21.1953 195.107 21.6211 194.826 21.9922C194.549 22.3594 194.162 22.6484 193.666 22.8594C193.17 23.0664 192.598 23.1699 191.949 23.1699ZM191.949 22.0156C192.289 22.0156 192.588 21.957 192.846 21.8398C193.107 21.7188 193.312 21.5527 193.461 21.3418C193.609 21.127 193.684 20.8848 193.684 20.6152V20.6035C193.684 20.3301 193.609 20.0879 193.461 19.877C193.316 19.6621 193.113 19.4941 192.852 19.373C192.59 19.252 192.289 19.1914 191.949 19.1914C191.605 19.1914 191.303 19.252 191.041 19.373C190.783 19.4941 190.58 19.6621 190.432 19.877C190.283 20.0879 190.209 20.3301 190.209 20.6035V20.6152C190.209 20.8848 190.283 21.127 190.432 21.3418C190.584 21.5527 190.789 21.7188 191.047 21.8398C191.309 21.957 191.609 22.0156 191.949 22.0156ZM191.949 18.0371C192.246 18.0371 192.506 17.9844 192.729 17.8789C192.955 17.7695 193.131 17.6211 193.256 17.4336C193.385 17.2461 193.449 17.0273 193.449 16.7773V16.7656C193.449 16.5195 193.385 16.3027 193.256 16.1152C193.131 15.9277 192.955 15.7812 192.729 15.6758C192.502 15.5703 192.242 15.5176 191.949 15.5176C191.652 15.5176 191.391 15.5703 191.164 15.6758C190.941 15.7812 190.766 15.9277 190.637 16.1152C190.512 16.3027 190.449 16.5195 190.449 16.7656V16.7773C190.449 17.0273 190.512 17.2461 190.637 17.4336C190.766 17.6211 190.941 17.7695 191.164 17.8789C191.391 17.9844 191.652 18.0371 191.949 18.0371Z" fill="#646970"/>
<path d="M15.0781 43V34.5449H16.1035L20.9492 41.4941L20.2461 41.125H20.7852V34.5449H21.8281V43H20.8027L15.957 36.0742L16.6602 36.4434H16.1211V43H15.0781ZM26.4512 43.1113C25.8535 43.1113 25.3359 42.9805 24.8984 42.7188C24.4648 42.4531 24.1289 42.0762 23.8906 41.5879C23.6562 41.0996 23.5391 40.5195 23.5391 39.8477V39.8359C23.5391 39.1602 23.6562 38.5781 23.8906 38.0898C24.1289 37.6016 24.4648 37.2266 24.8984 36.9648C25.3359 36.7031 25.8535 36.5723 26.4512 36.5723C27.0527 36.5723 27.5703 36.7031 28.0039 36.9648C28.4375 37.2266 28.7715 37.6016 29.0059 38.0898C29.2441 38.5781 29.3633 39.1602 29.3633 39.8359V39.8477C29.3633 40.5195 29.2441 41.0996 29.0059 41.5879C28.7715 42.0762 28.4375 42.4531 28.0039 42.7188C27.5703 42.9805 27.0527 43.1113 26.4512 43.1113ZM26.4512 42.209C26.8496 42.209 27.1875 42.1152 27.4648 41.9277C27.7422 41.7402 27.9531 41.4707 28.0977 41.1191C28.2461 40.7676 28.3203 40.3438 28.3203 39.8477V39.8359C28.3203 39.3359 28.2461 38.9102 28.0977 38.5586C27.9531 38.207 27.7422 37.9395 27.4648 37.7559C27.1875 37.5684 26.8496 37.4746 26.4512 37.4746C26.0527 37.4746 25.7148 37.5684 25.4375 37.7559C25.1602 37.9395 24.9473 38.207 24.7988 38.5586C24.6543 38.9102 24.582 39.3359 24.582 39.8359V39.8477C24.582 40.3438 24.6543 40.7676 24.7988 41.1191C24.9473 41.4707 25.1602 41.7402 25.4375 41.9277C25.7148 42.1152 26.0527 42.209 26.4512 42.209ZM34.3203 43V36.6836H35.3398V37.6211H35.4336C35.5547 37.2891 35.7598 37.0312 36.0488 36.8477C36.3379 36.6641 36.6953 36.5723 37.1211 36.5723C37.2188 36.5723 37.3145 36.5781 37.4082 36.5898C37.5059 36.5977 37.5801 36.6055 37.6309 36.6133V37.6035C37.5254 37.584 37.4219 37.5703 37.3203 37.5625C37.2227 37.5508 37.1172 37.5449 37.0039 37.5449C36.6797 37.5449 36.3926 37.6094 36.1426 37.7383C35.8926 37.8672 35.6953 38.0469 35.5508 38.2773C35.4102 38.5078 35.3398 38.7773 35.3398 39.0859V43H34.3203ZM41.293 43.1113C40.6914 43.1113 40.1738 42.9785 39.7402 42.7129C39.3105 42.4473 38.9785 42.0723 38.7441 41.5879C38.5137 41.0996 38.3984 40.5254 38.3984 39.8652V39.8594C38.3984 39.207 38.5137 38.6348 38.7441 38.1426C38.9785 37.6504 39.3086 37.2656 39.7344 36.9883C40.1602 36.7109 40.6582 36.5723 41.2285 36.5723C41.8027 36.5723 42.2949 36.7051 42.7051 36.9707C43.1191 37.2363 43.4355 37.6074 43.6543 38.084C43.877 38.5566 43.9883 39.1074 43.9883 39.7363V40.1348H38.9258V39.3203H43.4668L42.9629 40.0645V39.6602C42.9629 39.1641 42.8887 38.7559 42.7402 38.4355C42.5918 38.1152 42.3867 37.877 42.125 37.7207C41.8633 37.5605 41.5625 37.4805 41.2227 37.4805C40.8828 37.4805 40.5781 37.5645 40.3086 37.7324C40.043 37.8965 39.832 38.1406 39.6758 38.4648C39.5195 38.7891 39.4414 39.1875 39.4414 39.6602V40.0645C39.4414 40.5137 39.5176 40.8984 39.6699 41.2188C39.8223 41.5352 40.0391 41.7793 40.3203 41.9512C40.6016 42.1191 40.9336 42.2031 41.3164 42.2031C41.6016 42.2031 41.8496 42.1641 42.0605 42.0859C42.2715 42.0078 42.4453 41.9082 42.582 41.7871C42.7188 41.666 42.8145 41.543 42.8691 41.418L42.8926 41.3652H43.9121L43.9004 41.4121C43.8457 41.627 43.748 41.8359 43.6074 42.0391C43.4707 42.2383 43.293 42.4199 43.0742 42.584C42.8555 42.7441 42.5957 42.873 42.2949 42.9707C41.998 43.0645 41.6641 43.1113 41.293 43.1113ZM47.2402 43L44.9023 36.6836H45.9805L47.709 41.8867H47.8027L49.5312 36.6836H50.6094L48.2715 43H47.2402ZM51.9805 43V36.6836H53V43H51.9805ZM52.4961 35.4648C52.3047 35.4648 52.1387 35.3965 51.998 35.2598C51.8613 35.1191 51.793 34.9531 51.793 34.7617C51.793 34.5664 51.8613 34.4004 51.998 34.2637C52.1387 34.127 52.3047 34.0586 52.4961 34.0586C52.6914 34.0586 52.8574 34.127 52.9941 34.2637C53.1309 34.4004 53.1992 34.5664 53.1992 34.7617C53.1992 34.9531 53.1309 35.1191 52.9941 35.2598C52.8574 35.3965 52.6914 35.4648 52.4961 35.4648ZM57.5 43.1113C56.8984 43.1113 56.3809 42.9785 55.9473 42.7129C55.5176 42.4473 55.1855 42.0723 54.9512 41.5879C54.7207 41.0996 54.6055 40.5254 54.6055 39.8652V39.8594C54.6055 39.207 54.7207 38.6348 54.9512 38.1426C55.1855 37.6504 55.5156 37.2656 55.9414 36.9883C56.3672 36.7109 56.8652 36.5723 57.4355 36.5723C58.0098 36.5723 58.502 36.7051 58.9121 36.9707C59.3262 37.2363 59.6426 37.6074 59.8613 38.084C60.084 38.5566 60.1953 39.1074 60.1953 39.7363V40.1348H55.1328V39.3203H59.6738L59.1699 40.0645V39.6602C59.1699 39.1641 59.0957 38.7559 58.9473 38.4355C58.7988 38.1152 58.5938 37.877 58.332 37.7207C58.0703 37.5605 57.7695 37.4805 57.4297 37.4805C57.0898 37.4805 56.7852 37.5645 56.5156 37.7324C56.25 37.8965 56.0391 38.1406 55.8828 38.4648C55.7266 38.7891 55.6484 39.1875 55.6484 39.6602V40.0645C55.6484 40.5137 55.7246 40.8984 55.877 41.2188C56.0293 41.5352 56.2461 41.7793 56.5273 41.9512C56.8086 42.1191 57.1406 42.2031 57.5234 42.2031C57.8086 42.2031 58.0566 42.1641 58.2676 42.0859C58.4785 42.0078 58.6523 41.9082 58.7891 41.7871C58.9258 41.666 59.0215 41.543 59.0762 41.418L59.0996 41.3652H60.1191L60.1074 41.4121C60.0527 41.627 59.9551 41.8359 59.8145 42.0391C59.6777 42.2383 59.5 42.4199 59.2812 42.584C59.0625 42.7441 58.8027 42.873 58.502 42.9707C58.2051 43.0645 57.8711 43.1113 57.5 43.1113ZM62.9961 43L61.2266 36.6836H62.2461L63.4883 41.7344H63.582L64.9941 36.6836H65.9609L67.373 41.7344H67.4668L68.709 36.6836H69.7227L67.9531 43H66.9277L65.5156 38.1133H65.4219L64.0156 43H62.9961ZM73.0625 43.1113C72.5938 43.1113 72.1797 43.041 71.8203 42.9004C71.4609 42.7559 71.1719 42.5547 70.9531 42.2969C70.7383 42.0391 70.6113 41.7363 70.5723 41.3887H71.6152C71.7012 41.6504 71.8691 41.8613 72.1191 42.0215C72.3691 42.1816 72.6953 42.2617 73.0977 42.2617C73.3828 42.2617 73.6328 42.2207 73.8477 42.1387C74.0664 42.0527 74.2383 41.9375 74.3633 41.793C74.4883 41.6445 74.5508 41.4746 74.5508 41.2832V41.2715C74.5508 41.0566 74.4648 40.875 74.293 40.7266C74.1211 40.5742 73.8398 40.4512 73.4492 40.3574L72.4707 40.123C72.0762 40.0293 71.752 39.9082 71.498 39.7598C71.2441 39.6074 71.0566 39.4219 70.9355 39.2031C70.8145 38.9805 70.7539 38.7188 70.7539 38.418V38.4121C70.7539 38.0605 70.8555 37.7461 71.0586 37.4688C71.2656 37.1914 71.5469 36.9727 71.9023 36.8125C72.2578 36.6523 72.6582 36.5723 73.1035 36.5723C73.5449 36.5723 73.9355 36.6426 74.2754 36.7832C74.6191 36.9199 74.8945 37.1152 75.1016 37.3691C75.3125 37.623 75.4414 37.9219 75.4883 38.2656H74.4863C74.4199 38.0156 74.2676 37.8125 74.0293 37.6562C73.791 37.5 73.4805 37.4219 73.0977 37.4219C72.8477 37.4219 72.625 37.4629 72.4297 37.5449C72.2344 37.623 72.0801 37.7324 71.9668 37.873C71.8535 38.0137 71.7969 38.1777 71.7969 38.3652V38.377C71.7969 38.5176 71.834 38.6426 71.9082 38.752C71.9824 38.8613 72.0977 38.957 72.2539 39.0391C72.4102 39.1211 72.6113 39.1934 72.8574 39.2559L73.8301 39.4902C74.4238 39.6348 74.8652 39.8418 75.1543 40.1113C75.4473 40.3809 75.5938 40.7422 75.5938 41.1953V41.207C75.5938 41.582 75.4824 41.9141 75.2598 42.2031C75.0371 42.4883 74.7344 42.7109 74.3516 42.8711C73.9727 43.0312 73.543 43.1113 73.0625 43.1113ZM83.1465 43.1113C82.5488 43.1113 82.0312 42.9805 81.5938 42.7188C81.1602 42.4531 80.8242 42.0762 80.5859 41.5879C80.3516 41.0996 80.2344 40.5195 80.2344 39.8477V39.8359C80.2344 39.1602 80.3516 38.5781 80.5859 38.0898C80.8242 37.6016 81.1602 37.2266 81.5938 36.9648C82.0312 36.7031 82.5488 36.5723 83.1465 36.5723C83.748 36.5723 84.2656 36.7031 84.6992 36.9648C85.1328 37.2266 85.4668 37.6016 85.7012 38.0898C85.9395 38.5781 86.0586 39.1602 86.0586 39.8359V39.8477C86.0586 40.5195 85.9395 41.0996 85.7012 41.5879C85.4668 42.0762 85.1328 42.4531 84.6992 42.7188C84.2656 42.9805 83.748 43.1113 83.1465 43.1113ZM83.1465 42.209C83.5449 42.209 83.8828 42.1152 84.1602 41.9277C84.4375 41.7402 84.6484 41.4707 84.793 41.1191C84.9414 40.7676 85.0156 40.3438 85.0156 39.8477V39.8359C85.0156 39.3359 84.9414 38.9102 84.793 38.5586C84.6484 38.207 84.4375 37.9395 84.1602 37.7559C83.8828 37.5684 83.5449 37.4746 83.1465 37.4746C82.748 37.4746 82.4102 37.5684 82.1328 37.7559C81.8555 37.9395 81.6426 38.207 81.4941 38.5586C81.3496 38.9102 81.2773 39.3359 81.2773 39.8359V39.8477C81.2773 40.3438 81.3496 40.7676 81.4941 41.1191C81.6426 41.4707 81.8555 41.7402 82.1328 41.9277C82.4102 42.1152 82.748 42.209 83.1465 42.209ZM87.6406 43V36.6836H88.6602V37.6211H88.7539C88.875 37.2891 89.0801 37.0312 89.3691 36.8477C89.6582 36.6641 90.0156 36.5723 90.4414 36.5723C90.5391 36.5723 90.6348 36.5781 90.7285 36.5898C90.8262 36.5977 90.9004 36.6055 90.9512 36.6133V37.6035C90.8457 37.584 90.7422 37.5703 90.6406 37.5625C90.543 37.5508 90.4375 37.5449 90.3242 37.5449C90 37.5449 89.7129 37.6094 89.4629 37.7383C89.2129 37.8672 89.0156 38.0469 88.8711 38.2773C88.7305 38.5078 88.6602 38.7773 88.6602 39.0859V43H87.6406ZM97.8301 43.0469C97.1816 43.0469 96.7109 42.916 96.418 42.6543C96.1289 42.3926 95.9844 41.9609 95.9844 41.3594V37.5273H94.9883V36.6836H95.9844V35.0488H97.0391V36.6836H98.4219V37.5273H97.0391V41.1016C97.0391 41.4727 97.1094 41.7402 97.25 41.9043C97.3906 42.0645 97.625 42.1445 97.9531 42.1445C98.043 42.1445 98.1191 42.1426 98.1816 42.1387C98.248 42.1348 98.3281 42.1289 98.4219 42.1211V42.9883C98.3242 43.0039 98.2266 43.0176 98.1289 43.0293C98.0312 43.041 97.9316 43.0469 97.8301 43.0469ZM102.441 43.1113C101.84 43.1113 101.322 42.9785 100.889 42.7129C100.459 42.4473 100.127 42.0723 99.8926 41.5879C99.6621 41.0996 99.5469 40.5254 99.5469 39.8652V39.8594C99.5469 39.207 99.6621 38.6348 99.8926 38.1426C100.127 37.6504 100.457 37.2656 100.883 36.9883C101.309 36.7109 101.807 36.5723 102.377 36.5723C102.951 36.5723 103.443 36.7051 103.854 36.9707C104.268 37.2363 104.584 37.6074 104.803 38.084C105.025 38.5566 105.137 39.1074 105.137 39.7363V40.1348H100.074V39.3203H104.615L104.111 40.0645V39.6602C104.111 39.1641 104.037 38.7559 103.889 38.4355C103.74 38.1152 103.535 37.877 103.273 37.7207C103.012 37.5605 102.711 37.4805 102.371 37.4805C102.031 37.4805 101.727 37.5645 101.457 37.7324C101.191 37.8965 100.98 38.1406 100.824 38.4648C100.668 38.7891 100.59 39.1875 100.59 39.6602V40.0645C100.59 40.5137 100.666 40.8984 100.818 41.2188C100.971 41.5352 101.188 41.7793 101.469 41.9512C101.75 42.1191 102.082 42.2031 102.465 42.2031C102.75 42.2031 102.998 42.1641 103.209 42.0859C103.42 42.0078 103.594 41.9082 103.73 41.7871C103.867 41.666 103.963 41.543 104.018 41.418L104.041 41.3652H105.061L105.049 41.4121C104.994 41.627 104.896 41.8359 104.756 42.0391C104.619 42.2383 104.441 42.4199 104.223 42.584C104.004 42.7441 103.744 42.873 103.443 42.9707C103.146 43.0645 102.812 43.1113 102.441 43.1113ZM108.887 43.1113C108.418 43.1113 108.004 43.041 107.645 42.9004C107.285 42.7559 106.996 42.5547 106.777 42.2969C106.562 42.0391 106.436 41.7363 106.396 41.3887H107.439C107.525 41.6504 107.693 41.8613 107.943 42.0215C108.193 42.1816 108.52 42.2617 108.922 42.2617C109.207 42.2617 109.457 42.2207 109.672 42.1387C109.891 42.0527 110.062 41.9375 110.188 41.793C110.312 41.6445 110.375 41.4746 110.375 41.2832V41.2715C110.375 41.0566 110.289 40.875 110.117 40.7266C109.945 40.5742 109.664 40.4512 109.273 40.3574L108.295 40.123C107.9 40.0293 107.576 39.9082 107.322 39.7598C107.068 39.6074 106.881 39.4219 106.76 39.2031C106.639 38.9805 106.578 38.7188 106.578 38.418V38.4121C106.578 38.0605 106.68 37.7461 106.883 37.4688C107.09 37.1914 107.371 36.9727 107.727 36.8125C108.082 36.6523 108.482 36.5723 108.928 36.5723C109.369 36.5723 109.76 36.6426 110.1 36.7832C110.443 36.9199 110.719 37.1152 110.926 37.3691C111.137 37.623 111.266 37.9219 111.312 38.2656H110.311C110.244 38.0156 110.092 37.8125 109.854 37.6562C109.615 37.5 109.305 37.4219 108.922 37.4219C108.672 37.4219 108.449 37.4629 108.254 37.5449C108.059 37.623 107.904 37.7324 107.791 37.873C107.678 38.0137 107.621 38.1777 107.621 38.3652V38.377C107.621 38.5176 107.658 38.6426 107.732 38.752C107.807 38.8613 107.922 38.957 108.078 39.0391C108.234 39.1211 108.436 39.1934 108.682 39.2559L109.654 39.4902C110.248 39.6348 110.689 39.8418 110.979 40.1113C111.271 40.3809 111.418 40.7422 111.418 41.1953V41.207C111.418 41.582 111.307 41.9141 111.084 42.2031C110.861 42.4883 110.559 42.7109 110.176 42.8711C109.797 43.0312 109.367 43.1113 108.887 43.1113ZM115.186 43.0469C114.537 43.0469 114.066 42.916 113.773 42.6543C113.484 42.3926 113.34 41.9609 113.34 41.3594V37.5273H112.344V36.6836H113.34V35.0488H114.395V36.6836H115.777V37.5273H114.395V41.1016C114.395 41.4727 114.465 41.7402 114.605 41.9043C114.746 42.0645 114.98 42.1445 115.309 42.1445C115.398 42.1445 115.475 42.1426 115.537 42.1387C115.604 42.1348 115.684 42.1289 115.777 42.1211V42.9883C115.68 43.0039 115.582 43.0176 115.484 43.0293C115.387 43.041 115.287 43.0469 115.186 43.0469ZM117.324 43V36.6836H118.344V43H117.324ZM117.84 35.4648C117.648 35.4648 117.482 35.3965 117.342 35.2598C117.205 35.1191 117.137 34.9531 117.137 34.7617C117.137 34.5664 117.205 34.4004 117.342 34.2637C117.482 34.127 117.648 34.0586 117.84 34.0586C118.035 34.0586 118.201 34.127 118.338 34.2637C118.475 34.4004 118.543 34.5664 118.543 34.7617C118.543 34.9531 118.475 35.1191 118.338 35.2598C118.201 35.3965 118.035 35.4648 117.84 35.4648ZM120.266 43V36.6836H121.285V37.6445H121.379C121.52 37.3047 121.734 37.041 122.023 36.8535C122.316 36.666 122.67 36.5723 123.084 36.5723C123.369 36.5723 123.625 36.6191 123.852 36.7129C124.078 36.8066 124.273 36.9375 124.438 37.1055C124.602 37.2695 124.732 37.4609 124.83 37.6797H124.924C125.037 37.457 125.189 37.2637 125.381 37.0996C125.572 36.9316 125.793 36.8027 126.043 36.7129C126.297 36.6191 126.568 36.5723 126.857 36.5723C127.287 36.5723 127.65 36.6523 127.947 36.8125C128.248 36.9727 128.477 37.207 128.633 37.5156C128.789 37.8203 128.867 38.1934 128.867 38.6348V43H127.848V38.8691C127.848 38.5566 127.799 38.2988 127.701 38.0957C127.607 37.8887 127.463 37.7344 127.268 37.6328C127.072 37.5273 126.826 37.4746 126.529 37.4746C126.236 37.4746 125.98 37.541 125.762 37.6738C125.543 37.8066 125.373 37.9844 125.252 38.207C125.131 38.4258 125.07 38.6699 125.07 38.9395V43H124.051V38.7109C124.051 38.4609 123.996 38.2441 123.887 38.0605C123.781 37.873 123.629 37.7285 123.43 37.627C123.234 37.5254 123.004 37.4746 122.738 37.4746C122.465 37.4746 122.217 37.5469 121.994 37.6914C121.775 37.8359 121.602 38.0312 121.473 38.2773C121.348 38.5195 121.285 38.7891 121.285 39.0859V43H120.266ZM133.303 43.1113C132.705 43.1113 132.188 42.9805 131.75 42.7188C131.316 42.4531 130.98 42.0762 130.742 41.5879C130.508 41.0996 130.391 40.5195 130.391 39.8477V39.8359C130.391 39.1602 130.508 38.5781 130.742 38.0898C130.98 37.6016 131.316 37.2266 131.75 36.9648C132.188 36.7031 132.705 36.5723 133.303 36.5723C133.904 36.5723 134.422 36.7031 134.855 36.9648C135.289 37.2266 135.623 37.6016 135.857 38.0898C136.096 38.5781 136.215 39.1602 136.215 39.8359V39.8477C136.215 40.5195 136.096 41.0996 135.857 41.5879C135.623 42.0762 135.289 42.4531 134.855 42.7188C134.422 42.9805 133.904 43.1113 133.303 43.1113ZM133.303 42.209C133.701 42.209 134.039 42.1152 134.316 41.9277C134.594 41.7402 134.805 41.4707 134.949 41.1191C135.098 40.7676 135.172 40.3438 135.172 39.8477V39.8359C135.172 39.3359 135.098 38.9102 134.949 38.5586C134.805 38.207 134.594 37.9395 134.316 37.7559C134.039 37.5684 133.701 37.4746 133.303 37.4746C132.904 37.4746 132.566 37.5684 132.289 37.7559C132.012 37.9395 131.799 38.207 131.65 38.5586C131.506 38.9102 131.434 39.3359 131.434 39.8359V39.8477C131.434 40.3438 131.506 40.7676 131.65 41.1191C131.799 41.4707 132.012 41.7402 132.289 41.9277C132.566 42.1152 132.904 42.209 133.303 42.209ZM137.797 43V36.6836H138.816V37.6328H138.91C139.07 37.2969 139.301 37.0371 139.602 36.8535C139.902 36.666 140.285 36.5723 140.75 36.5723C141.461 36.5723 142.006 36.7754 142.385 37.1816C142.768 37.584 142.959 38.1602 142.959 38.9102V43H141.939V39.1562C141.939 38.5859 141.818 38.1641 141.576 37.8906C141.338 37.6133 140.967 37.4746 140.463 37.4746C140.127 37.4746 139.836 37.5469 139.59 37.6914C139.344 37.8359 139.152 38.041 139.016 38.3066C138.883 38.5723 138.816 38.8906 138.816 39.2617V43H137.797ZM144.828 43V36.6836H145.848V43H144.828ZM145.344 35.4648C145.152 35.4648 144.986 35.3965 144.846 35.2598C144.709 35.1191 144.641 34.9531 144.641 34.7617C144.641 34.5664 144.709 34.4004 144.846 34.2637C144.986 34.127 145.152 34.0586 145.344 34.0586C145.539 34.0586 145.705 34.127 145.842 34.2637C145.979 34.4004 146.047 34.5664 146.047 34.7617C146.047 34.9531 145.979 35.1191 145.842 35.2598C145.705 35.3965 145.539 35.4648 145.344 35.4648ZM149.504 43.1113C149.105 43.1113 148.746 43.0352 148.426 42.8828C148.109 42.7305 147.857 42.5137 147.67 42.2324C147.486 41.9512 147.395 41.6191 147.395 41.2363V41.2246C147.395 40.8496 147.484 40.5293 147.664 40.2637C147.844 39.9941 148.105 39.7832 148.449 39.6309C148.793 39.4785 149.209 39.3887 149.697 39.3613L152.018 39.2207V40.0352L149.82 40.1758C149.34 40.2031 148.988 40.3027 148.766 40.4746C148.547 40.6465 148.438 40.8887 148.438 41.2012V41.2129C148.438 41.5332 148.559 41.7832 148.801 41.9629C149.043 42.1387 149.348 42.2266 149.715 42.2266C150.062 42.2266 150.371 42.1582 150.641 42.0215C150.91 41.8809 151.121 41.6914 151.273 41.4531C151.43 41.2148 151.508 40.9453 151.508 40.6445V38.6758C151.508 38.2852 151.389 37.9883 151.15 37.7852C150.916 37.5781 150.562 37.4746 150.09 37.4746C149.711 37.4746 149.4 37.543 149.158 37.6797C148.916 37.8125 148.754 38.002 148.672 38.248L148.666 38.2656H147.646L147.652 38.2305C147.707 37.8984 147.844 37.6094 148.062 37.3633C148.285 37.1133 148.572 36.9199 148.924 36.7832C149.275 36.6426 149.676 36.5723 150.125 36.5723C150.641 36.5723 151.076 36.6562 151.432 36.8242C151.791 36.9922 152.062 37.2344 152.246 37.5508C152.434 37.8633 152.527 38.2383 152.527 38.6758V43H151.508V42.0684H151.414C151.281 42.291 151.119 42.4805 150.928 42.6367C150.74 42.793 150.527 42.9121 150.289 42.9941C150.051 43.0723 149.789 43.1113 149.504 43.1113ZM154.449 43V34.1758H155.469V43H154.449ZM159.594 43.1113C159.125 43.1113 158.711 43.041 158.352 42.9004C157.992 42.7559 157.703 42.5547 157.484 42.2969C157.27 42.0391 157.143 41.7363 157.104 41.3887H158.146C158.232 41.6504 158.4 41.8613 158.65 42.0215C158.9 42.1816 159.227 42.2617 159.629 42.2617C159.914 42.2617 160.164 42.2207 160.379 42.1387C160.598 42.0527 160.77 41.9375 160.895 41.793C161.02 41.6445 161.082 41.4746 161.082 41.2832V41.2715C161.082 41.0566 160.996 40.875 160.824 40.7266C160.652 40.5742 160.371 40.4512 159.98 40.3574L159.002 40.123C158.607 40.0293 158.283 39.9082 158.029 39.7598C157.775 39.6074 157.588 39.4219 157.467 39.2031C157.346 38.9805 157.285 38.7188 157.285 38.418V38.4121C157.285 38.0605 157.387 37.7461 157.59 37.4688C157.797 37.1914 158.078 36.9727 158.434 36.8125C158.789 36.6523 159.189 36.5723 159.635 36.5723C160.076 36.5723 160.467 36.6426 160.807 36.7832C161.15 36.9199 161.426 37.1152 161.633 37.3691C161.844 37.623 161.973 37.9219 162.02 38.2656H161.018C160.951 38.0156 160.799 37.8125 160.561 37.6562C160.322 37.5 160.012 37.4219 159.629 37.4219C159.379 37.4219 159.156 37.4629 158.961 37.5449C158.766 37.623 158.611 37.7324 158.498 37.873C158.385 38.0137 158.328 38.1777 158.328 38.3652V38.377C158.328 38.5176 158.365 38.6426 158.439 38.752C158.514 38.8613 158.629 38.957 158.785 39.0391C158.941 39.1211 159.143 39.1934 159.389 39.2559L160.361 39.4902C160.955 39.6348 161.396 39.8418 161.686 40.1113C161.979 40.3809 162.125 40.7422 162.125 41.1953V41.207C162.125 41.582 162.014 41.9141 161.791 42.2031C161.568 42.4883 161.266 42.7109 160.883 42.8711C160.504 43.0312 160.074 43.1113 159.594 43.1113Z" fill="#646970"/>
</svg>
