<svg width="20" height="20" fill="none" xmlns="http://www.w3.org/2000/svg"><mask id="a" maskUnits="userSpaceOnUse" x="0" y="0" width="20" height="20"><path fill-rule="evenodd" clip-rule="evenodd" d="M9.167.875h1.666v2.458H9.167V.875zM4.133 2.958l1.5 1.492L4.45 5.625 2.958 4.133l1.175-1.175zm-.8 6.209h-2.5v1.666h2.5V9.167zm13.707-5.04l-1.173-1.173-1.49 1.49 1.172 1.173 1.49-1.49zM14.367 15.55l1.491 1.5 1.175-1.175-1.5-1.492-1.166 1.167zm4.8-6.383h-2.5v1.666h2.5V9.167zM10 5c-2.758 0-5 2.242-5 5s2.242 5 5 5 5-2.242 5-5-2.242-5-5-5zm-3.333 5A3.332 3.332 0 0010 13.333 3.332 3.332 0 0013.333 10a3.332 3.332 0 10-6.667 0zm2.5 6.667h1.666v2.458H9.167v-2.458zm-5.034.375l-1.175-1.175 1.492-1.5 1.175 1.175-1.492 1.5z" fill="#fff"/></mask><g mask="url(#a)"><path fill="#3C434A" d="M0 0h20v20H0z"/></g></svg>