<?xml version="1.0" standalone="no"?>
<!DOCTYPE svg PUBLIC "-//W3C//DTD SVG 20010904//EN"
 "http://www.w3.org/TR/2001/REC-SVG-20010904/DTD/svg10.dtd">
<svg version="1.0" xmlns="http://www.w3.org/2000/svg"
 width="512.000000pt" height="512.000000pt" viewBox="0 0 512.000000 512.000000"
 preserveAspectRatio="xMidYMid meet">
<metadata>
Created by potrace 1.11, written by Peter Selinger 2001-2013
</metadata>
<g transform="translate(0.000000,512.000000) scale(0.100000,-0.100000)"
fill="#000000" stroke="none">
<path d="M2295 4729 c-396 -50 -787 -216 -1105 -469 -119 -95 -301 -285 -391
-410 -282 -389 -419 -810 -419 -1290 0 -253 30 -449 101 -670 114 -349 291
-634 560 -896 315 -306 694 -502 1133 -585 156 -30 502 -37 672 -15 722 95
1349 544 1673 1197 257 517 298 1110 115 1659 -260 783 -938 1350 -1756 1470
-143 21 -447 26 -583 9z m152 -2536 c-2 -2 -247 -2 -545 -1 l-542 3 543 1053
542 1053 3 -1052 c1 -579 1 -1054 -1 -1056z m1313 731 c0 -3 -244 -480 -542
-1059 l-543 -1053 -3 1046 c-1 576 0 1053 3 1060 3 9 122 12 545 12 297 0 540
-3 540 -6z"/>
</g>
</svg>
