<svg width="32" height="32" viewBox="0 0 32 32" fill="none" xmlns="http://www.w3.org/2000/svg">
<g clip-path="url(#clip0_8904_10045)">
<path d="M23.8238 4.3562H5.62354V26.5315H23.8238V4.3562Z" fill="white"/>
<path d="M30.4401 0H1.55989C0.70018 0 0 0.70018 0 1.55989V30.4445C0 31.3042 0.70018 32.0044 1.55989 32.0044H18.3509L32.0044 18.3509V1.55989C32.0044 0.70018 31.3042 0 30.4445 0H30.4401ZM21.7277 18.0097C20.3362 19.2549 18.2135 19.8754 15.3641 19.8754H13.4497V25.9997C13.4497 26.2479 13.2502 26.4473 13.0021 26.4473H8.6326C8.38443 26.4473 8.18501 26.2479 8.18501 25.9997V5.99584C8.18501 5.74768 8.38443 5.54826 8.6326 5.54826H15.3331C18.3332 5.54826 20.4958 6.16424 21.8252 7.40064C23.1547 8.63703 23.8194 10.4229 23.8194 12.7628C23.8194 15.1026 23.1237 16.7689 21.7277 18.0097Z" fill="#DD3A03"/>
<path d="M17.7571 10.6709C17.2254 10.2544 16.4055 10.0505 15.3021 10.0505H13.4497V15.4127H15.3021C16.3435 15.4127 17.1456 15.2088 17.7128 14.8056C18.2756 14.4023 18.5592 13.7198 18.5592 12.7626C18.5592 11.8054 18.2934 11.0875 17.7616 10.6709H17.7571Z" fill="#DD3A03"/>
</g>
<defs>
<clipPath id="clip0_8904_10045">
<rect width="32" height="32" fill="white"/>
</clipPath>
</defs>
</svg>
