<svg width="32" height="32" viewBox="0 0 32 32" fill="none" xmlns="http://www.w3.org/2000/svg">
<g clip-path="url(#clip0_8707_9048)">
<path d="M0 3.968C0 1.77653 1.77653 0 3.968 0H28.032C30.2235 0 32 1.77653 32 3.968V28.032C32 30.2235 30.2235 32 28.032 32H3.968C1.77653 32 0 30.2235 0 28.032V3.968Z" fill="#7F54B3"/>
<path d="M6.01277 7.77026C6.32431 7.39556 6.77863 7.16299 7.27189 7.15007C8.28438 7.08546 8.86851 7.56353 9.02428 8.58427C9.64735 12.7447 10.3223 16.285 11.0363 19.1922L15.4367 10.8712C15.8391 10.1218 16.3324 9.72129 16.9425 9.68253C17.8252 9.61793 18.3703 10.1735 18.591 11.3622C19.0064 13.688 19.6424 15.9749 20.4862 18.1844C21.0184 13.1194 21.9011 9.44996 23.1342 7.18883C23.3809 6.672 23.8871 6.33606 24.4583 6.31022C24.9126 6.27145 25.3669 6.41358 25.7174 6.71076C26.0809 6.98209 26.3015 7.40848 26.3275 7.86071C26.3534 8.19665 26.2885 8.53258 26.1328 8.81684C25.3539 10.264 24.7049 12.6672 24.1987 16.0266C23.7054 19.2697 23.5107 21.8151 23.6405 23.6369C23.6924 24.0892 23.6015 24.5414 23.4068 24.9419C23.2121 25.3554 22.7967 25.6396 22.3424 25.6655C21.8102 25.7042 21.291 25.4588 20.7588 24.929C18.8896 23.0297 17.4098 20.2 16.3194 16.4401C15.0343 18.9984 14.0608 20.9236 13.4247 22.1898C12.2435 24.4509 11.231 25.6009 10.4002 25.6655C9.85504 25.7042 9.38774 25.252 9.0113 24.2959C7.98583 21.6859 6.88248 16.6339 5.70124 9.13986C5.59739 8.64887 5.71422 8.15788 6.01277 7.77026Z" fill="white"/>
</g>
<defs>
<clipPath id="clip0_8707_9048">
<rect width="32" height="32" fill="white"/>
</clipPath>
</defs>
</svg>
