<svg width="32" height="32" viewBox="0 0 32 32" fill="none" xmlns="http://www.w3.org/2000/svg">
<path d="M0 16C0 7.16345 7.16345 0 16 0V0C24.8366 0 32 7.16345 32 16V16C32 24.8366 24.8366 32 16 32V32C7.16345 32 0 24.8366 0 16V16Z" fill="#3858E9"/>
<path fill-rule="evenodd" clip-rule="evenodd" d="M20.1313 23.1559L22.6878 15.765C23.1638 14.5705 23.3237 13.6168 23.3237 12.7684C23.3237 12.4618 23.303 12.174 23.2672 11.9069C23.92 13.0976 24.2925 14.4671 24.2925 15.9212C24.2925 19.0081 22.6201 21.7037 20.1313 23.154V23.1559ZM17.0763 11.9991C17.5805 11.9727 18.0339 11.9201 18.0339 11.9201C18.4835 11.8674 18.4308 11.2034 17.9812 11.2297C17.9812 11.2297 16.6268 11.335 15.7501 11.335C14.9262 11.335 13.5454 11.2297 13.5454 11.2297C13.0939 11.2034 13.0413 11.8937 13.4927 11.9201C13.4927 11.9201 13.9198 11.9727 14.3712 11.9991L15.6749 15.5732L13.8426 21.066L10.7952 11.9972C11.3012 11.9709 11.7527 11.9182 11.7527 11.9182C12.2023 11.8655 12.1496 11.2015 11.7 11.2278C11.7 11.2278 10.3456 11.3332 9.46895 11.3332C9.31281 11.3332 9.12658 11.3294 8.92906 11.3238C10.4283 9.05515 12.9999 7.55403 15.9232 7.55403C18.1035 7.55403 20.0862 8.38735 21.5742 9.75303C21.5385 9.75115 21.5027 9.74551 21.467 9.74551C20.643 9.74551 20.0617 10.4622 20.0617 11.2297C20.0617 11.9201 20.4587 12.5032 20.8857 13.1936C21.2036 13.7504 21.5761 14.4671 21.5761 15.5017C21.5761 16.2184 21.3635 17.1194 20.9384 18.2086L20.1031 20.9983L17.0782 12.0028V11.9991H17.0763ZM15.9232 24.2921C15.1011 24.2921 14.3092 24.1698 13.5586 23.9516L16.0699 16.6548L18.6434 23.7033C18.6603 23.7447 18.681 23.7823 18.7035 23.818C17.8326 24.1228 16.8976 24.2921 15.9251 24.2921H15.9232ZM7.55393 15.9212C7.55393 14.7079 7.81541 13.5566 8.27818 12.5145L12.27 23.4531C9.47647 22.0968 7.55393 19.2357 7.55393 15.9212ZM15.9232 6.61536C10.7914 6.61536 6.61523 10.7914 6.61523 15.923C6.61523 21.0547 10.7914 25.2307 15.9232 25.2307C21.055 25.2307 25.2312 21.0547 25.2312 15.923C25.2312 10.7914 21.0569 6.61536 15.9232 6.61536Z" fill="white"/>
</svg>
