<svg fill="none" height="266" width="214" xmlns="http://www.w3.org/2000/svg">
	<linearGradient id="a" gradientUnits="userSpaceOnUse" x1="181.5" x2="20.5" y1="210.5" y2="271">
		<stop offset="0" stop-color="#c4c4c5"/><stop offset=".627" stop-color="#dedede"/>
	</linearGradient>
	<linearGradient id="b" gradientUnits="userSpaceOnUse" x1="186" x2="189" y1="12" y2="212">
		<stop offset="0" stop-color="#4b4f52"/>
		<stop offset="1" stop-opacity="0"/>
	</linearGradient>
	<path d="m115.221 4 85.844 42.71-19.922 4.185-7.913 19.489-.408-18.451-26.419 1.547z" stroke="#4b4f52" stroke-linecap="round" stroke-width="2.8"/>
	<g stroke-linecap="square">
		<g stroke="#4b4f52">
			<path d="M128.804 15.174 172.5 50.73" stroke-width="2.4"/>
			<path d="m159.057 53.31 13.394 15.44" stroke-linejoin="bevel" stroke-width="2.6"/>
			<path d="m177.169 47.457-25.566-17.304" stroke-width="2.2"/>
		</g>
		<path d="M185.762 88.242c24.238 55.758 14 138.5-24.5 142-23.85 3.692-43.329-39.323-57.733-37.094-14.404 2.23-14.283 44.944-35.307 34.252-21.023-10.691-28.084 33.788-45.486 36.481" stroke="url(#a)" stroke-width="3"/>
		<path d="M185.762 88.242c24.238 55.758 14 138.5-24.5 142-23.85 3.692-43.329-39.323-57.733-37.094-14.404 2.23-14.283 44.944-35.307 34.252-21.023-10.691-28.084 33.788-45.486 36.481" stroke="url(#b)" stroke-opacity=".5" stroke-width="3"/>
	</g>
	<circle cx="49.262" cy="232.742" fill="#7f858a" r="2" stroke="#7f858a" stroke-width="3"/>
	<g fill="#fffffe">
		<circle cx="118.762" cy="201.242" r="3.75" stroke="#6e7378" stroke-width="2.5"/>
		<circle cx="199" cy="160.742" r="6" stroke="#4b4f52" stroke-width="3"/>
	</g>
</svg>
