<svg width="24" height="24" viewBox="0 0 24 24" fill="none" xmlns="http://www.w3.org/2000/svg">
<path fill-rule="evenodd" clip-rule="evenodd" d="M7.34491 9.06688C8.15037 7.10018 10.1962 5.75 12.5333 5.75C15.3462 5.75 17.7598 7.72105 18.0534 10.3582C19.6314 10.8986 20.7496 12.4254 20.7496 14.2C20.7496 16.4147 19.0027 18.25 16.7996 18.25C16.7956 18.25 16.787 18.25 16.7769 18.2498H7.75555L7.73674 18.2499L7.73333 18.25C5.23567 18.25 3.25 16.1685 3.25 13.65C3.25 11.2634 5.03291 9.26941 7.34491 9.06688ZM12.5333 7.25C10.6008 7.25 9.03887 8.45877 8.60594 10.0052L8.446 10.5765L7.85321 10.5524C7.81343 10.5508 7.77347 10.5499 7.73333 10.5499C6.10727 10.5499 4.75 11.9159 4.75 13.65C4.75 15.3834 6.10636 16.749 7.7317 16.75H7.73333L7.75555 16.7498L16.7946 16.7498L16.7996 16.75C18.1311 16.75 19.2496 15.6302 19.2496 14.2C19.2496 12.9192 18.3488 11.8825 17.2052 11.6846L16.5789 11.5762L16.5831 10.9406L16.5833 10.9C16.5833 8.94426 14.8329 7.25 12.5333 7.25Z" fill="#1E1E1E"/>
</svg>
