<svg width="24" height="24" viewBox="0 0 24 24" fill="none" xmlns="http://www.w3.org/2000/svg">
<path fill-rule="evenodd" clip-rule="evenodd" d="M18 5.5H6C5.72386 5.5 5.5 5.72386 5.5 6V18C5.5 18.2761 5.72386 18.5 6 18.5H18C18.2761 18.5 18.5 18.2761 18.5 18V6C18.5 5.72386 18.2761 5.5 18 5.5ZM6 4H18C19.1046 4 20 4.89543 20 6V18C20 19.1046 19.1046 20 18 20H6C4.89543 20 4 19.1046 4 18V6C4 4.89543 4.89543 4 6 4Z" fill="#1E1E1E"/>
<path d="M7 15H13V16.5H7V15Z" fill="#1E1E1E"/>
<path d="M11 11H17V12.5H11V11Z" fill="#1E1E1E"/>
<path d="M7 11H9V12.5H7V11Z" fill="#1E1E1E"/>
<path d="M15 15H17V16.5H15V15Z" fill="#1E1E1E"/>
</svg>
