<svg width="24" height="24" viewBox="0 0 24 24" fill="none" xmlns="http://www.w3.org/2000/svg">
<path fill-rule="evenodd" clip-rule="evenodd" d="M5.5 8.77803V11.9585C5.51618 11.9846 5.57595 12.0687 5.76745 12.2019C6.06014 12.4055 6.52627 12.6245 7.15338 12.8248C8.39887 13.2224 10.1332 13.5 12 13.5C13.8668 13.5 15.6011 13.2224 16.8466 12.8248C17.4737 12.6245 17.9399 12.4055 18.2325 12.2019C18.424 12.0687 18.4838 11.9846 18.5 11.9585V8.77803C18.1446 8.95554 17.7393 9.11431 17.3029 9.25368C15.8899 9.70485 13.9992 10 12 10C10.0008 10 8.11014 9.70485 6.69713 9.25368C6.26066 9.11431 5.85535 8.95554 5.5 8.77803ZM20 7V17C20 17.6655 19.5108 18.1399 19.0891 18.4332C18.6265 18.7551 18.005 19.0295 17.3029 19.2537C15.8899 19.7049 13.9992 20 12 20C10.0008 20 8.11014 19.7049 6.69713 19.2537C5.99498 19.0295 5.37349 18.7551 4.91086 18.4332C4.48916 18.1399 4 17.6655 4 17V7C4 6.33453 4.48917 5.86011 4.91086 5.56677C5.37349 5.24495 5.99498 4.97052 6.69713 4.74632C8.11014 4.29515 10.0008 4 12 4C13.9992 4 15.8899 4.29515 17.3029 4.74632C18.005 4.97052 18.6265 5.24495 19.0891 5.56677C19.5108 5.86011 20 6.33453 20 7ZM5.5 13.778V16.9585C5.51618 16.9846 5.57595 17.0687 5.76745 17.2019C6.06014 17.4055 6.52627 17.6245 7.15338 17.8248C8.39887 18.2224 10.1332 18.5 12 18.5C13.8668 18.5 15.6011 18.2224 16.8466 17.8248C17.4737 17.6245 17.9399 17.4055 18.2325 17.2019C18.424 17.0687 18.4838 16.9846 18.5 16.9585V13.778C18.1446 13.9556 17.7393 14.1143 17.3029 14.2537C15.8899 14.7049 13.9992 15 12 15C10.0008 15 8.11014 14.7049 6.69713 14.2537C6.26066 14.1143 5.85535 13.9556 5.5 13.778ZM18.4691 7C18.4332 6.95772 18.3639 6.88947 18.2325 6.79813C17.9399 6.59452 17.4737 6.37548 16.8466 6.17525C15.6011 5.77757 13.8668 5.5 12 5.5C10.1332 5.5 8.39887 5.77757 7.15338 6.17525C6.52628 6.37548 6.06014 6.59452 5.76745 6.79813C5.63614 6.88947 5.56676 6.95772 5.53091 7C5.56676 7.04228 5.63614 7.11053 5.76745 7.20187C6.06014 7.40548 6.52628 7.62452 7.15338 7.82475C8.39887 8.22243 10.1332 8.5 12 8.5C13.8668 8.5 15.6011 8.22243 16.8466 7.82475C17.4737 7.62452 17.9399 7.40548 18.2325 7.20187C18.3639 7.11053 18.4332 7.04228 18.4691 7Z" fill="#1E1E1E"/>
</svg>
