<svg id="Layer_1" data-name="Layer 1" xmlns="http://www.w3.org/2000/svg" xmlns:xlink="http://www.w3.org/1999/xlink" viewBox="0 0 68.8 99.915"><defs><style>.cls-1{fill:url(#linear-gradient);}.cls-2{fill:url(#Shadow_Gradient);}.cls-3{fill:url(#Shadow_Gradient-2);}.cls-4{fill:url(#linear-gradient-2);}.cls-13,.cls-14,.cls-5,.cls-6{opacity:0.58;}.cls-5{fill:url(#Shadow_Gradient-3);}.cls-6{fill:url(#Shadow_Gradient-4);}.cls-7{fill:url(#linear-gradient-3);}.cls-8{fill:url(#Shadow_Gradient-5);}.cls-9{fill:url(#linear-gradient-4);}.cls-10{fill:url(#Shadow_Gradient-6);}.cls-11{fill:url(#Shadow_Gradient-7);}.cls-12{fill:url(#linear-gradient-5);}.cls-13{fill:url(#Shadow_Gradient-8);}.cls-14{fill:url(#Shadow_Gradient-9);}.cls-15{fill:url(#linear-gradient-6);}.cls-16{fill:url(#Shadow_Gradient-10);}.cls-17,.cls-18{fill:#032442;}.cls-17{fill-opacity:0.1;}.cls-18,.cls-42{fill-opacity:0.2;}.cls-19{fill:url(#linear-gradient-7);}.cls-20{fill:url(#linear-gradient-8);}.cls-21{fill:url(#linear-gradient-9);}.cls-22{fill:url(#linear-gradient-10);}.cls-23{fill:url(#linear-gradient-11);}.cls-24{fill:url(#linear-gradient-12);}.cls-25{opacity:0.24;}.cls-26{fill:url(#Shadow_Gradient-11);}.cls-27{fill:url(#linear-gradient-13);}.cls-28{fill:url(#Highlight_Gradient);}.cls-29{fill:url(#Shadow_Gradient-12);}.cls-30{fill:url(#Shadow_Gradient-13);}.cls-31{fill:url(#Highlight_Gradient-2);}.cls-32{fill:url(#Highlight_Gradient-3);}.cls-33{fill:url(#Highlight_Gradient-4);}.cls-34{fill:url(#linear-gradient-14);}.cls-35{fill:url(#linear-gradient-15);}.cls-36{fill:url(#linear-gradient-16);}.cls-37{fill:url(#linear-gradient-17);}.cls-38{fill:url(#linear-gradient-18);}.cls-39{fill:url(#linear-gradient-19);}.cls-40{fill:url(#linear-gradient-20);}.cls-41{stroke:#cfa575;stroke-miterlimit:10;stroke-width:0.264px;fill:url(#linear-gradient-21);}.cls-42{fill:#5b0f0f;}.cls-43{fill:url(#linear-gradient-22);}.cls-44{opacity:0.23;}.cls-45{opacity:0.75;}.cls-46{fill:url(#linear-gradient-23);}.cls-47,.cls-48,.cls-50{fill:#fff;}.cls-47{opacity:0.15;}.cls-48,.cls-49{opacity:0.1;}.cls-51{fill:url(#linear-gradient-24);}</style><linearGradient id="linear-gradient" x1="1249.104" y1="938.912" x2="1251.929" y2="940.367" gradientTransform="matrix(-0.029, -1, -1, 0.029, 983.254, 1264.317)" gradientUnits="userSpaceOnUse"><stop offset="0" stop-color="#d9b78b"/><stop offset="0.165" stop-color="#e4c79c"/><stop offset="0.402" stop-color="#efd7ac"/><stop offset="0.665" stop-color="#f5e0b6"/><stop offset="1" stop-color="#f7e3b9"/></linearGradient><linearGradient id="Shadow_Gradient" x1="2385.91" y1="199.704" x2="2374.155" y2="201.82" gradientTransform="matrix(-0.999, -0.036, -0.036, 0.999, 2396.803, -68.912)" gradientUnits="userSpaceOnUse"><stop offset="0" stop-opacity="0"/><stop offset="1" stop-opacity="0.4"/></linearGradient><linearGradient id="Shadow_Gradient-2" x1="2381.442" y1="199.504" x2="2380.34" y2="198.579" xlink:href="#Shadow_Gradient"/><linearGradient id="linear-gradient-2" x1="2379.166" y1="197.132" x2="2378.563" y2="194.133" gradientTransform="matrix(-0.999, -0.036, -0.036, 0.999, 2396.803, -68.912)" xlink:href="#linear-gradient"/><linearGradient id="Shadow_Gradient-3" x1="1248.358" y1="939.155" x2="1248.174" y2="941.554" gradientTransform="matrix(-0.029, -1, -1, 0.029, 983.254, 1264.317)" xlink:href="#Shadow_Gradient"/><linearGradient id="Shadow_Gradient-4" x1="1247.475" y1="941.093" x2="1247.326" y2="943.041" gradientTransform="matrix(-0.029, -1, -1, 0.029, 983.254, 1264.317)" xlink:href="#Shadow_Gradient"/><linearGradient id="linear-gradient-3" x1="2310.014" y1="344.739" x2="2308.985" y2="348.615" gradientTransform="matrix(-0.979, -0.205, -0.205, 0.979, 2347.253, 177.049)" gradientUnits="userSpaceOnUse"><stop offset="0" stop-color="#a4a0bd"/><stop offset="1" stop-color="#202026"/></linearGradient><linearGradient id="Shadow_Gradient-5" x1="2379.138" y1="195.938" x2="2379.184" y2="205.657" xlink:href="#Shadow_Gradient"/><linearGradient id="linear-gradient-4" x1="1408.149" y1="-1387.05" x2="1410.974" y2="-1385.596" gradientTransform="matrix(0.034, -0.999, 0.999, 0.034, 1402.35, 1497.208)" xlink:href="#linear-gradient"/><linearGradient id="Shadow_Gradient-6" x1="75.138" y1="-109.729" x2="63.384" y2="-107.614" gradientTransform="translate(-4.642 157.061) rotate(-1.768)" xlink:href="#Shadow_Gradient"/><linearGradient id="Shadow_Gradient-7" x1="70.671" y1="-109.93" x2="69.569" y2="-110.854" gradientTransform="translate(-4.642 157.061) rotate(-1.768)" xlink:href="#Shadow_Gradient"/><linearGradient id="linear-gradient-5" x1="68.394" y1="-112.301" x2="67.792" y2="-115.3" gradientTransform="translate(-4.642 157.061) rotate(-1.768)" xlink:href="#linear-gradient"/><linearGradient id="Shadow_Gradient-8" x1="1407.403" y1="-1386.808" x2="1407.219" y2="-1384.408" gradientTransform="matrix(0.034, -0.999, 0.999, 0.034, 1402.35, 1497.208)" xlink:href="#Shadow_Gradient"/><linearGradient id="Shadow_Gradient-9" x1="1406.52" y1="-1384.87" x2="1406.371" y2="-1382.922" gradientTransform="matrix(0.034, -0.999, 0.999, 0.034, 1402.35, 1497.208)" xlink:href="#Shadow_Gradient"/><linearGradient id="linear-gradient-6" x1="36.754" y1="-322.261" x2="35.496" y2="-317.526" gradientTransform="translate(89.048 364.15) rotate(-12.512)" xlink:href="#linear-gradient-3"/><linearGradient id="Shadow_Gradient-10" x1="68.367" y1="-113.495" x2="68.413" y2="-103.777" gradientTransform="translate(-4.642 157.061) rotate(-1.768)" xlink:href="#Shadow_Gradient"/><linearGradient id="linear-gradient-7" x1="191.976" y1="-821.37" x2="167.771" y2="-796.235" gradientTransform="translate(314.155 838.872) rotate(-31.278)" xlink:href="#linear-gradient-3"/><linearGradient id="linear-gradient-8" x1="174.633" y1="-806.045" x2="174.137" y2="-791.175" gradientTransform="translate(314.155 838.872) rotate(-31.278)" xlink:href="#linear-gradient-3"/><linearGradient id="linear-gradient-9" x1="2572.812" y1="624.358" x2="2548.607" y2="649.493" gradientTransform="matrix(-0.855, -0.519, -0.519, 0.855, 2541.175, 838.872)" xlink:href="#linear-gradient-3"/><linearGradient id="linear-gradient-10" x1="2555.469" y1="639.683" x2="2554.973" y2="654.553" gradientTransform="matrix(-0.855, -0.519, -0.519, 0.855, 2541.175, 838.872)" xlink:href="#linear-gradient-3"/><linearGradient id="linear-gradient-11" x1="31.568" y1="-2.078" x2="38.106" y2="61.997" gradientTransform="matrix(1, 0, 0, 1, 0, 0)" xlink:href="#linear-gradient-3"/><linearGradient id="linear-gradient-12" x1="33.79" y1="29.562" x2="38.629" y2="62.346" gradientTransform="matrix(1, 0, 0, 1, 0, 0)" xlink:href="#linear-gradient-3"/><linearGradient id="Shadow_Gradient-11" x1="13.641" y1="62.004" x2="41.033" y2="61.68" gradientTransform="matrix(1, 0, 0, 1, 0, 0)" xlink:href="#Shadow_Gradient"/><linearGradient id="linear-gradient-13" x1="17.417" y1="60.141" x2="41.645" y2="61.257" gradientTransform="matrix(1, 0, 0, 1, 0, 0)" xlink:href="#linear-gradient-3"/><linearGradient id="Highlight_Gradient" x1="12.567" y1="60.34" x2="41.009" y2="60.005" gradientUnits="userSpaceOnUse"><stop offset="0" stop-color="#fff" stop-opacity="0.4"/><stop offset="1" stop-color="#fff" stop-opacity="0"/></linearGradient><linearGradient id="Shadow_Gradient-12" x1="15.316" y1="61.518" x2="36.952" y2="61.263" gradientTransform="matrix(1, 0, 0, 1, 0, 0)" xlink:href="#Shadow_Gradient"/><linearGradient id="Shadow_Gradient-13" x1="27.538" y1="60.884" x2="43.959" y2="60.69" gradientTransform="matrix(1, 0, 0, 1, 0, 0)" xlink:href="#Shadow_Gradient"/><linearGradient id="Highlight_Gradient-2" x1="16.366" y1="97.874" x2="37.637" y2="97.623" gradientTransform="translate(4.444 -37.373) rotate(3.09)" xlink:href="#Highlight_Gradient"/><linearGradient id="Highlight_Gradient-3" x1="57.99" y1="57.035" x2="39.924" y2="62.462" xlink:href="#Highlight_Gradient"/><linearGradient id="Highlight_Gradient-4" x1="57.742" y1="56.225" x2="39.68" y2="61.651" xlink:href="#Highlight_Gradient"/><linearGradient id="linear-gradient-14" x1="61.351" y1="-102.526" x2="65.362" y2="-101.006" gradientTransform="matrix(0.624, 0.782, -0.782, 0.624, -110.875, 21.717)" xlink:href="#linear-gradient-3"/><linearGradient id="linear-gradient-15" x1="63.2" y1="-104.06" x2="70.602" y2="-102.443" gradientTransform="matrix(0.624, 0.782, -0.782, 0.624, -110.875, 21.717)" xlink:href="#linear-gradient-3"/><linearGradient id="linear-gradient-16" x1="33.18" y1="-272.819" x2="31.145" y2="-271.178" gradientTransform="matrix(-0.203, 1.106, -1.05, -0.449, -266.301, -145.407)" xlink:href="#linear-gradient-3"/><linearGradient id="linear-gradient-17" x1="-82.671" y1="42.88" x2="-76.227" y2="43.128" gradientTransform="translate(91.045 10.87) rotate(25.712)" xlink:href="#linear-gradient-3"/><linearGradient id="linear-gradient-18" x1="63.078" y1="-91.984" x2="70.82" y2="-97.42" gradientTransform="matrix(0.624, 0.782, -0.782, 0.624, -110.875, 21.717)" xlink:href="#linear-gradient-3"/><linearGradient id="linear-gradient-19" x1="62.846" y1="-105.8" x2="60.1" y2="-103.53" gradientTransform="matrix(-0.796, 0.682, -0.742, -0.732, -24.678, -99.37)" xlink:href="#linear-gradient-3"/><linearGradient id="linear-gradient-20" x1="35.785" y1="71.224" x2="37.378" y2="71.73" gradientTransform="matrix(0.978, 0.21, -0.21, 0.978, 41.547, -58.732)" xlink:href="#linear-gradient-3"/><linearGradient id="linear-gradient-21" x1="3.979" y1="85.638" x2="35.928" y2="78.509" gradientTransform="matrix(0.978, 0.21, -0.21, 0.978, 41.547, -58.732)" xlink:href="#linear-gradient"/><linearGradient id="linear-gradient-22" x1="-22.945" y1="48.792" x2="-38.385" y2="126.957" gradientTransform="translate(79.754 -71.351) rotate(5.784)" xlink:href="#linear-gradient-3"/><linearGradient id="linear-gradient-23" x1="-1.342" y1="43.318" x2="-0.56" y2="81.641" gradientTransform="matrix(0.978, 0.21, -0.21, 0.978, 41.547, -58.732)" xlink:href="#linear-gradient-3"/><linearGradient id="linear-gradient-24" x1="22.167" y1="-48.183" x2="21.755" y2="-43.052" gradientTransform="translate(22.058 81.049)" gradientUnits="userSpaceOnUse"><stop offset="0"/><stop offset="0.096" stop-opacity="0.78"/><stop offset="1" stop-opacity="0"/></linearGradient></defs><title>ninja-joy</title><path class="cls-1" d="M11.1,49.4a2.85,2.85,0,0,0,3.215-1.727l0.569-1.662a2.067,2.067,0,0,0-1.7-2.7L7.761,42.124c-1.358-.27-3.243.392-3.661,1.616L4.022,44.834c0.12,1.61,2.295,3.318,3.652,3.588Z" transform="translate(0 -0.085)"/><path class="cls-2" d="M8.955,43.407l5.428,1.182a2.577,2.577,0,0,1,.529.167,1.993,1.993,0,0,1-.023,1.254l-0.569,1.662A2.85,2.85,0,0,1,11.1,49.4l-3.43-.977A5.031,5.031,0,0,1,5.7,47.4a2.777,2.777,0,0,1-.485-1.282l0.078-1.093C5.712,43.8,7.6,43.137,8.955,43.407Z" transform="translate(0 -0.085)"/><path class="cls-3" d="M7.286,42.07a3.206,3.206,0,0,1,.474.054l5.428,1.182a2.067,2.067,0,0,1,1.7,2.7l-0.233.679c-0.676.484-1.535-.264-2.537-0.736-0.909-.427-1.984-1.028-2.142-1.787L8.442,43.89A2.39,2.39,0,0,1,7.286,42.07Z" transform="translate(0 -0.085)"/><path class="cls-4" d="M12,46.063a2.93,2.93,0,0,1-1.224-2.253L9.1,42.65a2.3,2.3,0,0,1-.385-2.514c0.467-.672.737-0.873,1.219-0.539a22.8,22.8,0,0,1,4.87,3.41,2.3,2.3,0,0,1,.591,3.077C14.782,47.04,13.182,46.976,12,46.063Z" transform="translate(0 -0.085)"/><path class="cls-5" d="M8.8,45.488C5.564,44.255,5.244,43.1,5.407,42.45A3.744,3.744,0,0,1,5.762,42.3C5.415,43.829,8.8,45.488,8.8,45.488Z" transform="translate(0 -0.085)"/><path class="cls-6" d="M4.24,43.442c0.433,1.326,2.613,2.747,2.613,2.747a7.283,7.283,0,0,1-2.775-2.145l0.021-.3A1.748,1.748,0,0,1,4.24,43.442Z" transform="translate(0 -0.085)"/><path class="cls-7" d="M7.173,45.393c2.478,1.239,7.619,1.262,7.606.186C14.765,42.94,13.6,42.26,13.6,42.26s4.155,1.289,5.192,1.685c3.906,1.491,6.66,3.565,5.478,7.4s-3.346,2.85-5.7,2.478c-3.091-.488-8.618-4.438-8.618-4.438C9.816,48.532,10.064,47.375,7.173,45.393Z" transform="translate(0 -0.085)"/><path class="cls-8" d="M8.719,40.135l0.055-.076a2.532,2.532,0,0,0,.6,1.856l1.672,1.161c-0.009.775,0.692,1.363,1.487,1.976a2.521,2.521,0,0,0,3.241-.347,2.152,2.152,0,0,1-.379,1.378c-0.616.956-2.216,0.891-3.4-.021a2.93,2.93,0,0,1-1.224-2.253L9.1,42.65A2.3,2.3,0,0,1,8.719,40.135Z" transform="translate(0 -0.085)"/><path class="cls-9" d="M61.231,49.065a2.85,2.85,0,0,1-3.206-1.743l-0.561-1.665a2.067,2.067,0,0,1,1.713-2.7l5.434-1.155c1.359-.263,3.241.408,3.653,1.634l0.072,1.094c-0.128,1.61-2.311,3.307-3.67,3.57Z" transform="translate(0 -0.085)"/><path class="cls-10" d="M63.41,43.083l-5.434,1.155a2.577,2.577,0,0,0-.53.164,1.993,1.993,0,0,0,.017,1.254l0.561,1.665a2.85,2.85,0,0,0,3.206,1.743l3.435-.96a5.031,5.031,0,0,0,1.978-1.013,2.777,2.777,0,0,0,.491-1.28l-0.072-1.094C66.651,43.492,64.769,42.82,63.41,43.083Z" transform="translate(0 -0.085)"/><path class="cls-11" d="M65.085,41.755a3.205,3.205,0,0,0-.475.052l-5.434,1.155a2.067,2.067,0,0,0-1.713,2.7l0.229,0.68c0.674,0.487,1.536-.257,2.541-0.724,0.911-.422,1.989-1.018,2.151-1.776l1.536-.268A2.39,2.39,0,0,0,65.085,41.755Z" transform="translate(0 -0.085)"/><path class="cls-12" d="M60.352,45.725a2.93,2.93,0,0,0,1.235-2.247l1.678-1.153a2.3,2.3,0,0,0,.4-2.512c-0.463-.674-0.732-0.877-1.216-0.545a22.8,22.8,0,0,0-4.886,3.386,2.3,2.3,0,0,0-.606,3.074C57.564,46.688,59.165,46.632,60.352,45.725Z" transform="translate(0 -0.085)"/><path class="cls-13" d="M63.556,45.166c3.24-1.217,3.566-2.371,3.407-3.022A3.744,3.744,0,0,0,66.608,42C66.947,43.523,63.556,45.166,63.556,45.166Z" transform="translate(0 -0.085)"/><path class="cls-14" d="M68.124,43.142c-0.439,1.324-2.627,2.735-2.627,2.735a7.283,7.283,0,0,0,2.786-2.132l-0.02-.3A1.748,1.748,0,0,0,68.124,43.142Z" transform="translate(0 -0.085)"/><path class="cls-15" d="M65.168,45.145c-2.478,1.157-7.578,1.243-7.577.167-0.019-2.639,1.133-3.333,1.133-3.333s-4.139,1.341-5.171,1.749c-3.887,1.539-7.11,3.148-7.11,3.148s-7.15,13.791,5.39,8.524a25.891,25.891,0,0,0,4.282-2.254c2.66-1.647,6.344-4.091,6.344-4.091C62.525,47.128,64.507,47.623,65.168,45.145Z" transform="translate(0 -0.085)"/><path class="cls-16" d="M63.662,39.813l-0.055-.076a2.532,2.532,0,0,1-.613,1.853l-1.678,1.153c0,0.775-.7,1.36-1.5,1.969a2.521,2.521,0,0,1-3.239-.363,2.152,2.152,0,0,0,.373,1.38c0.611,0.959,2.212.9,3.4,0a2.93,2.93,0,0,0,1.235-2.247l1.678-1.153A2.3,2.3,0,0,0,63.662,39.813Z" transform="translate(0 -0.085)"/><ellipse class="cls-17" cx="37.119" cy="97.644" rx="31.681" ry="2.271"/><ellipse class="cls-18" cx="37.286" cy="97.584" rx="21.814" ry="1.11"/><path class="cls-19" d="M39.741,57.224L31.862,69.018s9.98,5.223,12.316,6.524,9.5-2.125,11.978-5.1,2.471-4.668-3.09-5.762C53.059,64.676,39.741,57.224,39.741,57.224Z" transform="translate(0 -0.085)"/><path class="cls-20" d="M49.708,67.211a12.062,12.062,0,0,0-3.976,8.607c3.071-.124,8.362-2.9,10.423-5.379,2.457-2.949,2.467-4.634-2.933-5.73A14.152,14.152,0,0,0,49.708,67.211Z" transform="translate(0 -0.085)"/><path class="cls-21" d="M30.179,56.729l7.879,11.793s-9.98,5.223-12.316,6.524-9.5-2.125-11.978-5.1-2.471-4.668,3.09-5.762C16.861,64.18,30.179,56.729,30.179,56.729Z" transform="translate(0 -0.085)"/><path class="cls-22" d="M20.211,66.716a12.062,12.062,0,0,1,3.976,8.607c-3.071-.124-8.362-2.9-10.423-5.379C11.307,67,11.3,65.309,16.7,64.214A14.152,14.152,0,0,1,20.211,66.716Z" transform="translate(0 -0.085)"/><path class="cls-23" d="M18.814,38.176S19.437,71.982,32.97,71.982c19.745,0,19.6-35.912,19.6-35.912S35.98,42.2,18.814,38.176Z" transform="translate(0 -0.085)"/><path class="cls-24" d="M32.3,49.461a0.71,0.71,0,0,1,.562-0.317,0.7,0.7,0,0,1,.786.736q0.423,3.211.9,5.449l1.969-4.277A0.882,0.882,0,0,1,37.2,50.44q0.592-.047.74,0.861a21.252,21.252,0,0,0,.851,3.507,17.841,17.841,0,0,1,1.184-5.647,0.7,0.7,0,0,1,.593-0.455,0.731,0.731,0,0,1,.568.2,0.831,0.831,0,0,1,.274.589,0.975,0.975,0,0,1-.089.49,13.645,13.645,0,0,0-.868,3.706,21.488,21.488,0,0,0-.247,3.912,1.4,1.4,0,0,1-.1.672,0.572,0.572,0,0,1-.479.37,0.879,0.879,0,0,1-.711-0.38A10.8,10.8,0,0,1,36.922,53.9q-0.869,1.971-1.3,2.956-0.791,1.738-1.357,1.784a0.783,0.783,0,0,1-.625-0.7,49.032,49.032,0,0,1-1.485-7.786A0.977,0.977,0,0,1,32.3,49.461Z" transform="translate(0 -0.085)"/><path class="cls-25" d="M18.852,39.293c0.076,1.778.3,5.5,0.906,9.812a41.843,41.843,0,0,0,17.054.993,43.121,43.121,0,0,0,15.02-4.416,78.594,78.594,0,0,0,.733-9.333C48.341,37.591,32.938,41.642,18.852,39.293Z" transform="translate(0 -0.085)"/><path class="cls-26" d="M22.724,59.911a26.134,26.134,0,0,0,.812,2.549c1.708,0.734,6.226,1.271,11.536,1.271,5.2,0,9.641-.5,11.426-1.215a26.1,26.1,0,0,0,.839-2.626c-1.646.777-6.543,1.343-12.336,1.343C29.276,61.232,24.424,60.676,22.724,59.911Z" transform="translate(0 -0.085)"/><path class="cls-27" d="M35,60.787c-6.4,0-11.707-.694-12.745-1.6,0.008,0.033.016,0.065,0.024,0.1a0.778,0.778,0,0,0,.2.751L22.5,60.1a1.817,1.817,0,0,0,.47,1.571A0.109,0.109,0,0,1,23,61.7c1.022,0.889,6.038,1.583,12.076,1.583,5.861,0,10.759-.638,11.976-1.5a1.239,1.239,0,0,0,.418-1.089,1.253,1.253,0,0,0,.291-0.576,2.275,2.275,0,0,0,.057-1C46.963,60.064,41.553,60.787,35,60.787Z" transform="translate(0 -0.085)"/><path class="cls-28" d="M33.929,61.122c6.393,0,12.522-.8,13.565-1.7,0.024-.1.049-0.192,0.072-0.289-0.851.935-6.261,1.658-12.812,1.658-6.4,0-11.707-.694-12.745-1.6a0.488,0.488,0,0,0,.2.242C23.4,60.308,27.66,61.122,33.929,61.122Z" transform="translate(0 -0.085)"/><path class="cls-29" d="M22.492,59.988s6.148,3.168,19.466,2.058C41.958,62.046,28.458,64.576,22.492,59.988Z" transform="translate(0 -0.085)"/><path class="cls-30" d="M47.2,60.059a1.087,1.087,0,0,0,.535-0.614A43.009,43.009,0,0,1,33,61.343C38.42,62.759,43.508,61.492,47.2,60.059Z" transform="translate(0 -0.085)"/><path class="cls-31" d="M22.627,60.309s5.32,3.784,19.052,1.82C41.678,62.129,29.414,65.446,22.627,60.309Z" transform="translate(0 -0.085)"/><path class="cls-32" d="M35.545,63.015a23.987,23.987,0,0,0,11.376-2.1,1.182,1.182,0,0,0,.6-0.659C41.365,62.907,37.1,63.07,35.545,63.015Z" transform="translate(0 -0.085)"/><path class="cls-33" d="M35.545,63.015C35.327,63,35.11,62.989,34.89,62.969,34.89,62.969,35.117,63,35.545,63.015Z" transform="translate(0 -0.085)"/><path class="cls-34" d="M15.374,15.752S12.286,4.494,9.035,5.877s-4.2,1.889-4.2,1.889S3.5,8.62,4.692,11.2s5.01,6.73,5.01,6.73Z" transform="translate(0 -0.085)"/><path class="cls-35" d="M9.382,5.778c-0.662.438-.176,2.542,1.1,4.738,1.293,2.22,2.9,3.692,3.6,3.287,0.336-.2.338-0.761,0.133-1.559C13.1,9.251,11.285,5.477,9.382,5.778Z" transform="translate(0 -0.085)"/><path class="cls-36" d="M13.56,12.755c0.377-.219-0.286-1.753-1.175-3.587C11.334,7,10.222,6.156,9.845,6.375S9.994,8.2,11.02,9.962,13.183,12.974,13.56,12.755Z" transform="translate(0 -0.085)"/><path class="cls-37" d="M12.673,15.686S1.766,11.523.96,14.963,0,19.469,0,19.469s-0.1,1.585,2.684,2.142,8.39-.064,8.39-0.064Z" transform="translate(0 -0.085)"/><path class="cls-38" d="M3.328,13.612a7.276,7.276,0,0,0-1.356.262A1.543,1.543,0,0,0,.96,14.963L0.952,15c0.376,0.721,2.3,1.392,4.651,1.573,2.67,0.205,4.885-.3,4.948-1.12a0.747,0.747,0,0,0-.315-0.59A23.092,23.092,0,0,0,3.328,13.612Z" transform="translate(0 -0.085)"/><ellipse class="cls-39" cx="4.61" cy="14.972" rx="0.86" ry="2.946" transform="translate(-10.671 18.337) rotate(-85.609)"/><path class="cls-40" d="M67.091,18.525s-4.382-2.058-4.747-1.933A35.608,35.608,0,0,0,59.4,20.233S65.815,23.517,67.091,18.525Z" transform="translate(0 -0.085)"/><path class="cls-41" d="M63.859,14.722s3.329,11.218-.164,17.765c0,0-21.421,13.356-46.081.64,0,0-5.385-8.64-1-14.831C16.613,18.3,40.513,8.828,63.859,14.722Z" transform="translate(0 -0.085)"/><path class="cls-42" d="M42.605,17.866c9.668-.267,16.858-0.056,22.461,3.106a29.945,29.945,0,0,0-.964-5.337l-1.068-.459C39.169,10.4,16.613,18.3,16.613,18.3a9,9,0,0,0-1.083,2.053l-0.186,7.194a21.532,21.532,0,0,0,2.137,5.36c2.9,1.149,7.329,2.6,5.275-.188-2.956-4.019-.452-9.5-0.452-9.5S28.145,18.266,42.605,17.866Z" transform="translate(0 -0.085)"/><path class="cls-43" d="M20.769,20.685s7.478-3.61,22.329-4.3c17.457-.814,23.993,2.142,23.993,2.142C66.1,16.926,60.859-.093,35.35.086,15.51,0.226,7.359,14.328,6.357,22.994,4.807,36.413,17.239,46.006,35.739,46.166c20.741,0.18,28.213-10.556,30.572-15.609,0,0,3.232-4.146-20.573-3.423-10.562.321-24.828,3.649-24.828,3.649A13.767,13.767,0,0,1,20.769,20.685Z" transform="translate(0 -0.085)"/><g class="cls-44"><path d="M65.337,29.851C61.387,34.706,54.618,42.575,38.9,42.439c-18.5-.16-32.377-11-30.826-24.417,0.035-.3.079-0.6,0.133-0.9a16.917,16.917,0,0,0-1.851,5.876C4.807,36.413,17.239,46.006,35.739,46.166c20.741,0.18,28.213-10.556,30.572-15.609A1.51,1.51,0,0,0,65.337,29.851Z" transform="translate(0 -0.085)"/></g><g class="cls-45"><path d="M28.477,24.447a5.588,5.588,0,0,1,1.144-1.33A8.614,8.614,0,0,1,33,21.312l0.51-.127,0.127-.03,0.145-.025,0.242-.036a5.842,5.842,0,0,1,1.04-.072,5.6,5.6,0,0,1,1.812.315,3.743,3.743,0,0,1,1.521.943,0.2,0.2,0,0,1-.217.311l-0.014-.005c0.009,0-.142-0.053-0.406-0.126a7.012,7.012,0,0,0-1.1-.205,8,8,0,0,0-1.55,0c-0.3.034-.529,0.054-0.859,0.122l-0.24.048-0.06.012-0.015,0,0.014,0-0.007,0-0.028.008-0.112.028-0.452.107a12.8,12.8,0,0,0-1.713.609,11.867,11.867,0,0,0-1.424.726c-0.405.241-.732,0.466-0.955,0.63s-0.341.26-.341,0.26a0.286,0.286,0,0,1-.4-0.032A0.291,0.291,0,0,1,28.477,24.447Z" transform="translate(0 -0.085)"/></g><g class="cls-45"><path d="M57.329,23.524a2,2,0,0,0-.234-0.237,3.917,3.917,0,0,0-.8-0.527,8.318,8.318,0,0,0-1.318-.5,14.964,14.964,0,0,0-1.623-.37,6.781,6.781,0,0,0-.827-0.095,7.46,7.46,0,0,0-.809-0.02,9.526,9.526,0,0,0-1.452.146c-0.427.076-.784,0.166-1.033,0.236l-0.384.116-0.013,0a0.2,0.2,0,0,1-.2-0.325A4.725,4.725,0,0,1,50,21.082a6.485,6.485,0,0,1,1.6-.469,8.667,8.667,0,0,1,.949-0.081,7.91,7.91,0,0,1,.981.063,7.761,7.761,0,0,1,.953.181,6.617,6.617,0,0,1,.9.283,5.321,5.321,0,0,1,1.487.838,3.122,3.122,0,0,1,.814.956,1.819,1.819,0,0,1,.141.345,0.9,0.9,0,0,1,.036.143A0.281,0.281,0,0,1,57.329,23.524Z" transform="translate(0 -0.085)"/></g><path class="cls-46" d="M30.233,4.157s-6.151,4.38-9.465,16.528l1.89-.754A31.069,31.069,0,0,1,30.233,4.157Z" transform="translate(0 -0.085)"/><path class="cls-25" d="M66.32,17.04s-13.033-4.023-35.3-.2c0,0,11.423-4.036,34.531-1.128Z" transform="translate(0 -0.085)"/><path class="cls-25" d="M17.664,9.53s-7.593,10.07,1.3,23.432C18.962,32.962,7.031,22.269,17.664,9.53Z" transform="translate(0 -0.085)"/><path class="cls-47" d="M16.81,10.13s-8.781,9.138.172,21.484C16.982,31.613,6.9,21.319,16.81,10.13Z" transform="translate(0 -0.085)"/><path class="cls-47" d="M28.727,4.861S13.756,17.6,21,33.044C21,33.044,16.116,18.984,28.727,4.861Z" transform="translate(0 -0.085)"/><path class="cls-48" d="M31.513,16.016s13.2-4.565,32.97-1.857l0.739,1.052A77.974,77.974,0,0,0,31.513,16.016Z" transform="translate(0 -0.085)"/><path class="cls-48" d="M30.154,7.131S45.48,2.667,55.732,5.587L56.7,6.357S50.905,2.724,30.154,7.131Z" transform="translate(0 -0.085)"/><g class="cls-49"><path class="cls-50" d="M40.662,34.736l0.188,0.39a5.381,5.381,0,0,0,.595.935,3.114,3.114,0,0,0,1.193.888,2.935,2.935,0,0,0,.814.206,5.262,5.262,0,0,0,.892.01,3.549,3.549,0,0,0,.868-0.143,3.2,3.2,0,0,0,1.849-1.392,4.134,4.134,0,0,0,.459-1.011,3.5,3.5,0,0,0,.105-0.414,0.049,0.049,0,0,1,.1.005,2.649,2.649,0,0,1-.027.447,3.888,3.888,0,0,1-.337,1.136,3.388,3.388,0,0,1-1.109,1.3,3.546,3.546,0,0,1-.885.419,4.185,4.185,0,0,1-.987.2,3.78,3.78,0,0,1-1-.015,3.462,3.462,0,0,1-.948-0.272,3.051,3.051,0,0,1-1.3-1.128,4.066,4.066,0,0,1-.492-1.083,3.906,3.906,0,0,1-.108-0.429,0.07,0.07,0,0,1,.054-0.083A0.074,0.074,0,0,1,40.662,34.736Z" transform="translate(0 -0.085)"/></g><ellipse class="cls-51" cx="44.171" cy="33.543" rx="2.41" ry="2.692" transform="translate(-2.503 3.496) rotate(-4.514)"/></svg>