<svg width="1040" height="247" viewBox="0 0 1040 247" xmlns="http://www.w3.org/2000/svg" xmlns:xlink="http://www.w3.org/1999/xlink"><title>Artboard 1</title><defs><path id="c" d="M0 0h1038v247H0z"/><radialGradient cx="49.522%" cy="84.557%" fx="49.522%" fy="84.557%" r="74.844%" id="e"><stop stop-color="#FFF" offset="0%"/><stop stop-color="#FFF" stop-opacity=".404" offset="100%"/></radialGradient><rect id="a" width="331" height="87" rx="8"/><mask id="f" x="0" y="0" width="331" height="87" fill="#fff"><use xlink:href="#a"/></mask><path id="b" d="M19 17h293v70H19z"/><mask id="g" x="0" y="0" width="293" height="70" fill="#fff"><use xlink:href="#b"/></mask></defs><g transform="translate(1)" fill="none" fill-rule="evenodd"><mask id="d" fill="#fff"><use xlink:href="#c"/></mask><use fill="#FFF" xlink:href="#c"/><g mask="url(#d)"><g transform="translate(95 -262)"><circle stroke="#C8D7E1" opacity=".3" cx="423" cy="424" r="69"/><circle stroke="#C8D7E1" opacity=".3" cx="423.5" cy="424.5" r="115.5"/><circle stroke="#C8D7E1" opacity=".3" cx="423.5" cy="424.5" r="161.5"/><circle stroke="#C8D7E1" opacity=".3" cx="424" cy="424" r="233.5"/><circle stroke="#C8D7E1" opacity=".3" cx="424" cy="424" r="424"/><circle stroke="#C8D7E1" opacity=".3" cx="423.5" cy="424.5" r="320"/><path fill="url(#e)" d="M258 262h331v180H258z"/></g><g fill="#C8D7E1"><g transform="translate(281 62)"><circle stroke="#C8D7E1" fill-opacity=".1" cx="20" cy="20" r="20"/><path d="M11 14.6c0-1.354.702-2.772 1.8-3.6 0 .76.621 1.8 1.8 1.8a2.7 2.7 0 0 1 2.7 2.7c0 .347-.071.677-.19.982.664.534 1.328 1.07 1.971 1.627l-1.872 1.872a68.267 68.267 0 0 1-1.627-1.972c-.305.12-.635.191-.982.191a3.599 3.599 0 0 1-3.6-3.6zm10.937 6.163l1.207-1.207A4.001 4.001 0 0 0 24.95 20 4.05 4.05 0 0 0 29 15.95c0-.652-.17-1.26-.444-1.806L25.4 17.3l-1.8-1.8 3.156-3.156a4.001 4.001 0 0 0-1.806-.444 4.05 4.05 0 0 0-4.05 4.05c0 .652.17 1.26.444 1.806L11.9 27.2l1.8 1.8 6.163-6.163a61.706 61.706 0 0 0 5.38 4.904l1.282 1.034 1.35-1.35-1.034-1.283a61.706 61.706 0 0 0-4.904-5.379z"/></g><g transform="translate(729 171)"><circle stroke="#C8D7E1" fill-opacity=".1" cx="20" cy="20" r="20"/><path d="M27.2 13v1.8h-1.8V13H14.6v1.8h-1.8V13a1.8 1.8 0 0 0-1.8 1.8v10.8a1.8 1.8 0 0 0 1.8 1.8v-1.8h1.8v1.8h10.8v-1.8h1.8v1.8a1.8 1.8 0 0 0 1.8-1.8V14.8a1.8 1.8 0 0 0-1.8-1.8zM14.6 23.8h-1.8v-2.7h1.8v2.7zm0-4.5h-1.8v-2.7h1.8v2.7zm3.6 3.6v-5.4l4.05 2.7-4.05 2.7zm9 .9h-1.8v-2.7h1.8v2.7zm0-4.5h-1.8v-2.7h1.8v2.7z"/></g><path d="M819 90c11.046 0 20-8.954 20-20s-8.954-20-20-20-20 8.954-20 20 8.954 20 20 20z" stroke="#C8D7E1" fill-opacity=".1"/><path d="M824.6 66.4h-.9v-.9c0-2.481-2.019-4.5-4.5-4.5a4.505 4.505 0 0 0-4.5 4.5v.9h-.9a1.8 1.8 0 0 0-1.8 1.8v9a1.8 1.8 0 0 0 1.8 1.8h10.8a1.8 1.8 0 0 0 1.8-1.8v-9a1.8 1.8 0 0 0-1.8-1.8zm-8.1-.9c0-1.489 1.211-2.7 2.7-2.7s2.7 1.211 2.7 2.7v.9h-5.4v-.9zm3.6 7.85v2.05h-1.8v-2.05a1.792 1.792 0 0 1-.9-1.55 1.8 1.8 0 1 1 3.6 0c0 .664-.364 1.238-.9 1.55z"/><g transform="translate(179 175)"><circle stroke="#C8D7E1" fill-opacity=".1" cx="20" cy="20" r="20"/><path d="M29 29H11v-2h18v2zM16 18h-4v7h4v-7zm6-7h-4v14h4V11zm6 3h-4v11h4V14z"/></g><path d="M95 130c11.046 0 20-8.954 20-20s-8.954-20-20-20-20 8.954-20 20 8.954 20 20 20z" stroke="#C8D7E1" fill-opacity=".1"/><path d="M98.9 106.4v-4.5a.9.9 0 0 0-1.8 0v4.5h-3.6v-4.5a.9.9 0 0 0-1.8 0v4.5H89v3.6a6.293 6.293 0 0 0 3.6 5.685V119H98v-3.315a6.294 6.294 0 0 0 3.6-5.685v-3.6h-2.7z"/><g transform="translate(923 110)"><circle stroke="#C8D7E1" fill-opacity=".1" cx="20" cy="20" r="20"/><path d="M19.103 26.159l-3.51-3.51 1.34-1.34 2.174 2.173 5.015-5.015 1.34 1.34-6.359 6.352zm9.95-11.37v12.316A1.895 1.895 0 0 1 27.158 29H13.895A1.895 1.895 0 0 1 12 27.105V14.79c0-1.045.849-1.894 1.895-1.894h.947V11h1.895v1.895h7.579V11h1.895v1.895h.947c1.046 0 1.895.849 1.895 1.894zm-1.895 1.895H13.895v10.421h13.263v-10.42z"/></g></g><g transform="translate(353 171)" stroke-linecap="square" stroke="#DDE7ED" stroke-width="2"><use mask="url(#f)" fill="#FFF" xlink:href="#a"/><use mask="url(#g)" fill="#FBFCFD" xlink:href="#b"/></g><path d="M479.693 246.994c.96-6.009 6.713-11.523 14.063-10.682.823-2.828 6.97-10.163 15.635-8.11 1.517-8.573 15.46-9.98 19.402-.368 4.03-.11 10.89 2.254 13.123 8.719 5.707-.849 12.096 2.373 14.438 10.44" fill="#FFF"/><path d="M479.78 246.885c1.522-7.52 11.059-15.631 22.71-6.228M494.254 236.24c1.883-5.813 10.868-10.71 18.197-7.142M556.22 246.885c-1.522-7.52-11.059-15.631-22.71-6.228M541.746 236.24c-1.883-5.813-10.868-10.71-18.197-7.142M509.537 227.598c2.036-7.816 14.599-9.325 19.106 0" stroke="#C8D7E1" stroke-width="1.6"/><g transform="translate(505 196)" fill="#C8D7E1"><rect y="3" width="2" height="15" rx="1"/><rect x="9" y="1" width="2" height="9" rx="1"/><rect x="18" y="2" width="2" height="11" rx="1"/><rect x="29" width="2" height="20" rx="1"/></g><g><path fill="#FFF" d="M479 170h80v2h-80z"/><path d="M519 127c-15.464 0-28 12.536-28 28s12.536 28 28 28 28-12.536 28-28-12.536-28-28-28zm-23.8 28c0-3.45.74-6.726 2.06-9.685l11.355 31.105c-7.941-3.858-13.415-11.998-13.415-21.42zm23.8 23.803a23.78 23.78 0 0 1-6.723-.969l7.143-20.75 7.316 20.042c.048.117.107.226.171.327a23.792 23.792 0 0 1-7.907 1.35zm3.282-34.961c1.433-.076 2.724-.227 2.724-.227 1.282-.151 1.131-2.035-.151-1.963 0 0-3.856.303-6.345.303-2.338 0-6.27-.303-6.27-.303-1.284-.072-1.433 1.888-.15 1.963 0 0 1.215.151 2.497.227l3.707 10.161-5.208 15.621-8.668-25.782c1.433-.076 2.724-.227 2.724-.227 1.282-.151 1.128-2.035-.154-1.963 0 0-3.853.303-6.342.303-.448 0-.972-.011-1.532-.028 4.256-6.46 11.57-10.727 19.886-10.727a23.705 23.705 0 0 1 16.072 6.25c-.104-.006-.202-.02-.308-.02-2.338 0-3.996 2.036-3.996 4.225 0 1.963 1.132 3.62 2.338 5.583.905 1.585 1.963 3.62 1.963 6.564 0 2.035-.784 4.401-1.811 7.694l-2.375 7.932-8.601-25.586zm8.682 31.73l7.27-21.017c1.357-3.397 1.808-6.11 1.808-8.526 0-.877-.059-1.689-.16-2.447A23.673 23.673 0 0 1 542.8 155c0 8.78-4.757 16.447-11.836 20.572z" fill="#00AADC"/></g></g></g></svg>