<svg xmlns="http://www.w3.org/2000/svg" viewBox="0 0 400 400"><path d="m400,1v399H1V1h399Zm-133.17,291.3c1.66,0,3.32,0,4.99,0,8.64,0,17.29-.15,25.93.07,4.05.1,5.82-2.18,6.18-5.45.07-.68-3.33-2.19-5.28-2.56-9.65-1.86-17.88-5.78-21.89-15.36-4.24-10.16-8.07-20.49-11.99-30.78-13.92-36.51-27.76-73.06-41.76-109.54-1.65-4.29-4.46-8.13-6.1-12.42-1.62-4.23-2.34-8.79-3.63-13.16-1.94-6.58-8.82-6.21-13.75-4.05-5.6,2.45-8.63,7.02-10.81,12.19-1.92,4.55-2.61,9.65-4.75,14.08-3.18,6.59-7.51,12.62-10.72,19.2-4.64,9.51-8.69,19.3-13.05,28.95-6.84,15.14-13.81,30.22-20.59,45.39-3.01,6.73-5.5,13.69-8.56,20.39-2.95,6.49-6.27,12.82-9.52,19.17-3.01,5.89-5.6,12.1-9.39,17.44-3.69,5.2-9.49,7.94-16.03,8.39-2.68.18-5.4-.34-5.47,3.81-.08,4.27,2.52,4.27,5.56,4.26,18.45-.04,36.91-.02,55.36-.02.83,0,1.91.31,2.44-.1,1.33-1,2.9-2.17,3.37-3.6.24-.72-1.5-2.77-2.68-3.15-2.44-.77-5.1-1.04-7.68-1.13-8.09-.31-13.41-3.11-13.99-8.65-.35-3.34.62-7.09,1.91-10.29,3.66-9.1,7.93-17.96,11.7-27.03,3.86-9.3,10.04-15.01,20.65-15.01,20.28-.01,40.55-.25,60.83-.12,1.47,0,3.68,1.97,4.26,3.5,5.19,13.57,10.37,27.15,14.9,40.95,1.17,3.58.99,8.27-.32,11.8-1.33,3.56-4.77,5.67-9.63,5.14-2.07-.23-6.44,2.95-6.41,4.52.08,3.96,4.12,3.16,6.99,3.17,9.64.03,19.28.01,28.93.01Zm-183.88-78.83c7.26-.05,11.93-4.83,11.81-12.11-.11-7.02-2.81-8.44-12.73-8.99-6.9-.38-9.99,5.63-10.15,11.3-.17,5.91,4.51,9.84,11.07,9.8Zm230.15-20.95c-8.45,0-11.82,3-11.85,10.52-.03,6.77,3.54,10.46,10.09,10.43,7.61-.03,11.87-4.63,11.86-12.81,0-5.88-2.82-8.15-10.1-8.14Z" style="fill:#7c9b2e;"/><path d="m400,1H1c0,133.2,0,266.1,0,399-.33-1.33-.95-2.66-.96-3.99C0,339.52,0,283.03,0,226.54V0h7.73C136.99,0,266.25,0,395.51.04c1.5,0,2.99.62,4.49.96Z" style="fill:#fffffe;"/><path d="m266.83,292.3c-9.64,0-19.29.02-28.93-.01-2.88,0-6.92.8-6.99-3.17-.03-1.57,4.34-4.74,6.41-4.52,4.86.53,8.3-1.57,9.63-5.14,1.32-3.52,1.5-8.22.32-11.8-4.52-13.8-9.7-27.38-14.9-40.95-.59-1.54-2.8-3.5-4.26-3.5-20.27-.13-40.55.11-60.83.12-10.62,0-16.79,5.71-20.65,15.01-3.77,9.07-8.04,17.92-11.7,27.03-1.29,3.2-2.26,6.95-1.91,10.29.58,5.55,5.9,8.35,13.99,8.65,2.58.1,5.24.36,7.68,1.13,1.18.38,2.92,2.43,2.68,3.15-.48,1.43-2.05,2.6-3.37,3.6-.53.4-1.61.1-2.44.1-18.45,0-36.91-.02-55.36.02-3.04,0-5.64,0-5.56-4.26.08-4.15,2.79-3.62,5.47-3.81,6.54-.45,12.34-3.19,16.03-8.39,3.79-5.35,6.38-11.56,9.39-17.44,3.25-6.35,6.57-12.68,9.52-19.17,3.05-6.71,5.55-13.66,8.56-20.39,6.78-15.17,13.74-30.25,20.59-45.39,4.36-9.65,8.41-19.44,13.05-28.95,3.21-6.58,7.53-12.61,10.72-19.2,2.14-4.42,2.83-9.52,4.75-14.08,2.18-5.17,5.22-9.74,10.81-12.19,4.93-2.16,11.81-2.54,13.75,4.05,1.29,4.37,2.01,8.93,3.63,13.16,1.64,4.29,4.46,8.13,6.1,12.42,14,36.48,27.84,73.03,41.76,109.54,3.92,10.29,7.74,20.62,11.99,30.78,4,9.58,12.24,13.5,21.89,15.36,1.95.38,5.35,1.88,5.28,2.56-.36,3.27-2.13,5.55-6.18,5.45-8.64-.22-17.29-.07-25.93-.07-1.66,0-3.32,0-4.99,0Zm-107.78-81.6c2.71.16,4.63.36,6.54.37,15.63.03,31.25.01,46.88.01,13.73,0,14.19-1.12,9.3-13.94-8.03-21.04-15.54-42.28-23.27-63.44-.71-1.95-1.42-3.9-2.27-6.23-12.49,27.97-24.67,55.22-37.18,83.23Z" style="fill:#fffffe;"/><path d="m82.95,213.47c-6.56.04-11.23-3.89-11.07-9.8.16-5.67,3.24-11.68,10.15-11.3,9.92.55,12.62,1.97,12.73,8.99.11,7.28-4.56,12.07-11.81,12.11Z" style="fill:#fffffe;"/><path d="m313.1,192.52c7.28,0,10.09,2.26,10.1,8.14,0,8.18-4.25,12.77-11.86,12.81-6.55.03-10.12-3.66-10.09-10.43.03-7.52,3.4-10.51,11.85-10.52Z" style="fill:#fffffe;"/><path d="m159.05,210.7c12.51-28.01,24.69-55.26,37.18-83.23.85,2.32,1.56,4.27,2.27,6.23,7.73,21.16,15.24,42.4,23.27,63.44,4.9,12.82,4.43,13.94-9.3,13.94-15.63,0-31.25.01-46.88-.01-1.92,0-3.83-.21-6.54-.37Z" style="fill:#7c9b2e;"/></svg>
