<svg
	id="blaze-pro-logo"
	width="122"
	height="32"
	viewBox="0 0 122 32"
	fill="none"
	xmlns="http://www.w3.org/2000/svg"
>
	<g clip-path="url(#clip0_2154_247)">
		<rect width="181" height="32" fill="white"/>
		<path d="M95.7048 21.8511V16.7637C95.7048 14.0571 93.7394 12.5972 90.842 12.5972C87.9445 12.5972 86.0915 14.2368 85.8669 16.4155H88.8766C88.944 15.7417 89.6179 15.0229 90.7521 15.0229H90.9318C92.0661 15.0229 92.7849 15.8315 92.7849 16.876V17.1567L89.8649 17.415C87.5739 17.5947 85.631 18.729 85.631 21.2334C85.631 23.311 87.3493 24.6362 89.4269 24.6362C90.9318 24.6362 92.1559 23.9849 92.8522 22.9854C92.8747 23.5244 92.9196 24.0522 92.9982 24.4004H95.8171C95.7048 23.5918 95.7048 22.5474 95.7048 21.8511ZM90.2131 22.1992H90.0334C89.2248 22.1992 88.5959 21.7388 88.5959 21.02C88.5959 20.0767 89.5168 19.6836 90.2805 19.605L92.7849 19.3579V19.6836C92.7849 21.1885 91.5607 22.1992 90.2131 22.1992ZM102.965 24.6362C104.583 24.6362 105.829 23.7041 106.301 22.8955V24.4004H109.311V8.19482H106.301V14.3267C105.829 13.5181 104.583 12.5972 102.965 12.5972C99.6076 12.5972 97.8219 15.4946 97.8219 18.6167C97.8219 21.7388 99.6076 24.6362 102.965 24.6362ZM103.471 22.1992C101.966 22.1992 100.832 20.7842 100.832 18.5942C100.832 16.3931 101.966 15.0229 103.471 15.0229H103.662C105.043 15.0229 106.301 16.4155 106.301 18.6167C106.301 20.8179 105.043 22.1992 103.662 22.1992H103.471ZM116.381 24.6362C119.503 24.6362 121.131 23.0303 121.131 21.0649C121.131 19.2344 120.109 18.1787 117.885 17.6172L116.336 17.2241C115.392 16.9883 114.853 16.6738 114.853 16.0449C114.853 15.3486 115.505 14.9106 116.313 14.9106H116.493C117.537 14.9106 118.121 15.5396 118.234 16.6514H121.243C121.243 14.1021 119.525 12.5972 116.515 12.5972C113.629 12.5972 111.843 14.0796 111.843 16.1572C111.843 18.0327 113 19.0547 115.437 19.6499L116.942 20.0205C117.773 20.2339 118.121 20.582 118.121 21.1885C118.121 21.8735 117.515 22.3228 116.594 22.3228H116.403C115.246 22.3228 114.46 21.6265 114.46 20.582H111.383C111.383 23.1313 113.258 24.6362 116.381 24.6362Z" fill="#7C5CFF"/>
		<g clip-path="url(#clip1_2154_247)">
			<path d="M6.4658 24.3356C4.02994 24.3356 2.21423 23.0639 2.21423 20.0223V15.15H0V12.5117C2.43586 11.8702 3.45554 9.74344 3.57245 7.90137H6.10184V12.0847H9.05313V15.151H6.10184V19.3932C6.10184 20.6649 6.73419 21.1043 7.74167 21.1043H9.17106V24.3366H6.4658V24.3356ZM15.5199 24.4779C16.9016 24.4779 18.4946 23.8725 19.3618 22.7906V24.3356H23.9184V21.7097H22.7594V12.0847H17.2543V14.7581H18.824V19.3921C18.824 19.7603 18.52 21.3177 16.4583 21.3177C15.1346 21.3177 14.8886 20.5091 14.8886 19.487V12.0847H10.8363V19.6541C10.8363 21.5436 11.6791 24.4779 15.522 24.4779H15.5199ZM25.3701 24.3356H32.0352V21.7097H30.6759V17.1344C30.6759 16.4692 31.2381 15.1026 32.9481 15.1026C34.3297 15.1026 34.6113 15.9586 34.6113 16.9684V21.7097H33.2643V24.3356H39.8826V21.7097H38.5V17.1344C38.5 16.4692 39.0032 15.1026 40.7254 15.1026C42.1192 15.1026 42.4587 15.9586 42.4587 16.9684V21.7097H41.1351V24.3356H47.7178V21.7097H46.3707V17.4315C46.3707 14.9118 45.4334 11.9413 41.7329 11.9413C39.906 11.9413 38.4064 12.8201 37.7741 13.902C36.977 12.6778 35.7713 11.9413 33.9678 11.9413C32.5384 11.9413 30.9697 12.5591 30.1259 13.736V12.0837H25.1251V14.757H26.7416V21.7086H25.3711V24.3346L25.3701 24.3356ZM56.1752 24.4779C59.5484 24.4779 61.3641 21.9118 61.3641 18.0616C61.3641 14.2114 59.6775 11.9424 56.2453 11.9424C55.0386 11.9424 53.8328 12.4055 53.1059 12.9758V7.90137H47.5307V10.551H49.1472V24.3356H52.8599V23.2537C53.8084 24.0623 54.944 24.4779 56.1741 24.4779H56.1752ZM55.3324 21.4952C54.149 21.4952 52.99 20.735 52.99 18.3339C52.99 15.446 54.3605 14.9355 55.309 14.9355C56.41 14.9355 57.3819 15.839 57.3819 18.0843C57.3819 21.3167 55.9535 21.424 55.3324 21.4941V21.4952ZM62.091 24.3356H68.8028V21.7097H67.3744V7.90137H61.846V10.551H63.4624V21.7086H62.092V24.3346L62.091 24.3356ZM70.2667 24.3356H76.8606V21.7097H75.5136V18.2875C75.5136 15.9586 77.13 15.4481 78.3602 15.4481H80V11.9424H78.6763C77.1768 11.9424 75.7952 12.6788 75.174 13.8556V12.0847H70.1488V14.7581H71.6016V21.7097H70.2667V24.3356Z" fill="#001935"/>
		</g>
	</g>
	<defs>
		<clipPath id="clip0_2154_247">
			<rect width="181" height="32" fill="white"/>
		</clipPath>
		<clipPath id="clip1_2154_247">
			<rect width="80" height="16.5766" fill="white" transform="translate(0 7.90137)"/>
		</clipPath>
	</defs>
</svg>
