<svg id="big-sky-brush" viewBox="0 0 24 24" fill="none" xmlns="http://www.w3.org/2000/svg">
	<path fill-rule="evenodd" clip-rule="evenodd" d="M5.32896 9.15866C4.98744 9.46 4.62318 9.73576 4.2587 10.0117C3.97929 10.2232 3.69976 10.4348 3.43025 10.6581C3.3653 10.7118 3.30018 10.7655 3.23499 10.8193C2.63229 11.3162 2.0236 11.8181 1.48717 12.3705C0.821732 13.0537 0.35149 13.87 0.156295 14.8193C-0.0477725 15.8042 0.63541 16.6737 1.60251 16.6382C1.94854 16.6293 2.30344 16.5317 2.62285 16.3987C3.71417 15.9639 4.61029 15.2452 5.33783 14.3402C5.73254 13.8583 6.10588 13.3574 6.47873 12.8572C6.82666 12.3903 7.17417 11.9241 7.53821 11.4744C8.0262 10.8622 8.70938 10.8711 9.25947 11.4212C9.42805 11.5853 9.58998 11.7561 9.7519 11.9269C9.91383 12.0977 10.0757 12.2685 10.2443 12.4326C10.6613 12.8319 11.2558 12.9295 11.6462 12.5657C12.1346 12.109 12.5959 11.625 13.0429 11.156C13.2211 10.969 13.397 10.7844 13.5715 10.6049C13.5715 10.6049 13.5715 10.6049 13.5715 10.6049L6.11861 3.15195L6.10974 3.16082C5.86708 3.40727 5.61632 3.65696 5.36231 3.9099C5.33182 3.94025 5.30128 3.97066 5.27071 4.00111C4.95993 4.31065 4.64517 4.62501 4.33524 4.9442C3.84725 5.44106 3.84725 6.0444 4.33524 6.55013C4.49938 6.71871 4.66574 6.88507 4.8321 7.05143C4.99846 7.21779 5.16482 7.38415 5.32896 7.55273C5.85244 8.07621 5.87905 8.67067 5.32896 9.15866ZM6.18373 6.71046C6.58665 7.11565 6.92324 7.67494 6.93146 8.35449C6.94 9.06028 6.59204 9.64231 6.1253 10.0564L6.12291 10.0585C5.78492 10.3567 5.43428 10.6262 5.11152 10.8711C5.06745 10.9045 5.024 10.9374 4.98112 10.9699C4.70012 11.1827 4.44352 11.377 4.19587 11.5821L4.19482 11.583C4.13052 11.6362 4.06679 11.6887 4.00366 11.7408C3.39185 12.2455 2.83548 12.7045 2.34808 13.2065L2.34679 13.2078C1.82153 13.7471 1.47531 14.3626 1.33171 15.061L1.33134 15.0628C1.29896 15.2191 1.34272 15.3181 1.38088 15.3663C1.4151 15.4095 1.46515 15.4424 1.5585 15.439L1.57175 15.4385C1.72458 15.4346 1.92955 15.3875 2.16131 15.291L2.17 15.2873L2.17874 15.2839C3.04937 14.937 3.7841 14.3577 4.40258 13.5884L4.40944 13.5798C4.77106 13.1383 5.11707 12.676 5.47923 12.1901L5.52144 12.1335C5.86487 11.6727 6.2244 11.1903 6.60299 10.7225C7.02487 10.1951 7.631 9.82544 8.35342 9.81211C9.05536 9.79916 9.65926 10.1264 10.1018 10.5665C10.2858 10.7459 10.4598 10.9295 10.6158 11.0939L10.6227 11.1013C10.7634 11.2496 10.89 11.3831 11.0165 11.5089C11.3171 11.2195 11.6042 10.9243 11.8926 10.623L6.11926 4.84965C5.82575 5.14181 5.53321 5.4337 5.22829 5.74711C5.37526 5.8975 5.52508 6.04736 5.68063 6.2029L5.68327 6.20554C5.84626 6.36853 6.01563 6.5379 6.18373 6.71046ZM15.5678 3.4891C14.7804 3.0254 14.0534 2.4668 13.3357 1.91539L13.3053 1.89205C12.4536 1.24435 11.5202 0.662357 10.807 0.47979C10.0939 0.297223 9.33533 0.289396 8.6384 0.703128C8.16108 0.986493 7.82983 1.40196 7.51169 1.80098C7.36532 1.98455 7.22173 2.16465 7.06797 2.3268C8.3013 3.56014 9.54132 4.79794 10.7768 6.03124C12.0034 7.25557 13.2255 8.47546 14.4321 9.68214C15.3659 8.77149 16.3093 7.8488 17.2573 6.92159C17.7141 6.47484 18.1719 6.02704 18.6303 5.57903C18.6438 5.56577 18.6574 5.55251 18.671 5.53925C19.0707 5.14854 19.4709 4.75769 19.871 4.36727C19.8729 4.36542 19.8748 4.36357 19.8767 4.36172C19.8777 4.36068 19.8788 4.35965 19.8799 4.35861H19.871C19.871 4.35544 19.8708 4.35228 19.8706 4.34911C19.8694 4.33453 19.8658 4.31995 19.8621 4.30538C19.8577 4.28763 19.8532 4.26989 19.8532 4.25214C19.8318 4.25672 19.8104 4.26118 19.789 4.26551C19.5717 4.30948 19.3563 4.3403 19.143 4.35861C18.9846 4.37221 18.8273 4.3789 18.6712 4.37895C18.6711 4.37895 18.6712 4.37895 18.6712 4.37895C18.6673 4.37895 18.6632 4.37895 18.6594 4.37894C18.4933 4.37864 18.3285 4.37083 18.1651 4.3558C17.2552 4.27218 16.3873 3.96531 15.5678 3.4891ZM17.1025 5.39445C16.3525 5.21675 15.6377 4.91759 14.9649 4.52666L14.9589 4.52315C14.107 4.02148 13.3294 3.42392 12.6271 2.88428L12.5766 2.84546C11.7361 2.2066 10.9692 1.76001 10.5094 1.6423C9.97959 1.50665 9.57965 1.53988 9.25097 1.735C9.07173 1.84141 8.90292 2.00089 8.69212 2.25082C8.69169 2.25133 8.69127 2.25184 8.69084 2.25234C9.66324 3.22409 10.6384 4.19753 11.6111 5.16848L11.6232 5.18052C12.5669 6.12258 13.5083 7.0623 14.4422 7.99548C15.0982 7.35477 15.7562 6.71123 16.4167 6.06517C16.645 5.84189 16.8736 5.61832 17.1025 5.39445Z" fill="#3858E9"/>
</svg>
