<svg id="big-sky-brush" viewBox="0 0 24 25" fill="none" xmlns="http://www.w3.org/2000/svg">
	<path fill-rule="evenodd" clip-rule="evenodd" d="M7.32896 13.0717C6.98744 13.3731 6.62318 13.6488 6.2587 13.9248C5.97929 14.1363 5.69976 14.3479 5.43025 14.5712C5.3653 14.6249 5.30018 14.6786 5.23499 14.7323C4.63229 15.2293 4.0236 15.7312 3.48717 16.2836C2.82173 16.9668 2.35149 17.7831 2.15629 18.7324C1.95223 19.7173 2.63541 20.5868 3.60251 20.5513C3.94854 20.5424 4.30344 20.4448 4.62285 20.3117C5.71417 19.877 6.61029 19.1583 7.33783 18.2533C7.73254 17.7714 8.10588 17.2705 8.47873 16.7702C8.82666 16.3034 9.17417 15.8372 9.53821 15.3875C10.0262 14.7753 10.7094 14.7841 11.2595 15.3342C11.4281 15.4984 11.59 15.6692 11.7519 15.84C11.9138 16.0108 12.0757 16.1816 12.2443 16.3457C12.6613 16.745 13.2558 16.8426 13.6462 16.4788C14.1346 16.022 14.5959 15.5381 15.0429 15.0691C15.2211 14.8821 15.397 14.6975 15.5715 14.518C15.5715 14.518 15.5715 14.518 15.5715 14.518L8.11861 7.06503L8.10974 7.0739C7.86708 7.32036 7.61632 7.57005 7.36231 7.82298C7.33182 7.85334 7.30128 7.88374 7.27071 7.91419C6.95993 8.22373 6.64517 8.5381 6.33524 8.85729C5.84725 9.35415 5.84725 9.95748 6.33524 10.4632C6.49938 10.6318 6.66574 10.7982 6.8321 10.9645C6.99846 11.1309 7.16482 11.2972 7.32896 11.4658C7.85244 11.9893 7.87905 12.5838 7.32896 13.0717ZM8.18373 10.6235C8.58665 11.0287 8.92324 11.588 8.93146 12.2676C8.94 12.9734 8.59204 13.5554 8.1253 13.9694L8.12291 13.9716C7.78492 14.2698 7.43428 14.5393 7.11152 14.7842C7.06745 14.8176 7.024 14.8505 6.98112 14.883C6.70012 15.0957 6.44352 15.29 6.19587 15.4952L6.19482 15.4961C6.13052 15.5493 6.06679 15.6018 6.00366 15.6539C5.39185 16.1586 4.83548 16.6176 4.34808 17.1196L4.34679 17.1209C3.82153 17.6602 3.47531 18.2757 3.33171 18.9741L3.33134 18.9759C3.29896 19.1322 3.34272 19.2312 3.38088 19.2794C3.4151 19.3226 3.46515 19.3555 3.5585 19.3521L3.57175 19.3516C3.72458 19.3477 3.92955 19.3006 4.16131 19.204L4.17 19.2004L4.17874 19.1969C5.04937 18.8501 5.7841 18.2708 6.40258 17.5014L6.40944 17.4929C6.77106 17.0514 7.11707 16.5891 7.47923 16.1032L7.52144 16.0466C7.86487 15.5858 8.2244 15.1034 8.60299 14.6356C9.02487 14.1082 9.631 13.7385 10.3534 13.7252C11.0554 13.7122 11.6593 14.0395 12.1018 14.4796C12.2858 14.6589 12.4598 14.8425 12.6158 15.007L12.6227 15.0144C12.7634 15.1627 12.89 15.2961 13.0165 15.422C13.3171 15.1326 13.6042 14.8374 13.8926 14.5361L8.11925 8.76274C7.82575 9.05489 7.53321 9.34679 7.22829 9.66019C7.37526 9.81059 7.52508 9.96044 7.68063 10.116L7.68327 10.1186C7.84626 10.2816 8.01563 10.451 8.18373 10.6235ZM17.5678 7.40219C16.7804 6.93849 16.0534 6.37989 15.3357 5.82847L15.3053 5.80513C14.4536 5.15744 13.5202 4.57544 12.807 4.39288C12.0939 4.21031 11.3353 4.20248 10.6384 4.61621C10.1611 4.89958 9.82983 5.31504 9.51169 5.71406C9.36533 5.89764 9.22173 6.07774 9.06797 6.23989C10.3013 7.47322 11.5413 8.71102 12.7768 9.94432C14.0034 11.1687 15.2255 12.3885 16.4321 13.5952C17.3659 12.6846 18.3093 11.7619 19.2573 10.8347C19.7141 10.3879 20.1719 9.94013 20.6303 9.49212C20.6438 9.47886 20.6574 9.46559 20.671 9.45233C21.0707 9.06162 21.4709 8.67078 21.871 8.28036C21.8729 8.2785 21.8748 8.27665 21.8767 8.2748C21.8777 8.27377 21.8788 8.27273 21.8799 8.2717H21.871C21.871 8.26853 21.8708 8.26536 21.8706 8.2622C21.8694 8.24762 21.8658 8.23304 21.8621 8.21846C21.8577 8.20072 21.8532 8.18297 21.8532 8.16523C21.8318 8.16981 21.8104 8.17426 21.789 8.17859C21.5717 8.22256 21.3563 8.25339 21.143 8.2717C20.9846 8.28529 20.8273 8.29198 20.6712 8.29204C20.6712 8.29204 20.6711 8.29204 20.6712 8.29204C20.6673 8.29204 20.6632 8.29204 20.6594 8.29203C20.4933 8.29173 20.3285 8.28391 20.1651 8.26889C19.2552 8.18527 18.3873 7.8784 17.5678 7.40219ZM19.1025 9.30754C18.3525 9.12983 17.6377 8.83067 16.9649 8.43974L16.9589 8.43624C16.107 7.93457 15.3294 7.33701 14.6271 6.79737L14.5766 6.75854C13.7361 6.11969 12.9692 5.6731 12.5094 5.55539C11.9796 5.41974 11.5797 5.45297 11.251 5.64809C11.0717 5.7545 10.9029 5.91398 10.6921 6.16391C10.6917 6.16441 10.6913 6.16492 10.6908 6.16543C11.6632 7.13718 12.6384 8.11062 13.6111 9.08157L13.6232 9.0936C14.5669 10.0357 15.5083 10.9754 16.4422 11.9086C17.0982 11.2679 17.7562 10.6243 18.4167 9.97826C18.645 9.75498 18.8736 9.5314 19.1025 9.30754Z" fill="#3858E9"/>
</svg>
