<svg id="desktop-app-logo" xmlns="http://www.w3.org/2000/svg" width="50" height="51" fill="none"><rect width="50" height="50" y=".429" fill="#0675C4" rx="25"/><path fill="#fff" d="M25 4.429c-11.58 0-21 9.42-21 20.999 0 11.58 9.42 21 21 21 11.579 0 21-9.42 21-21s-9.421-21-21-21ZM6.12 25.428c0-2.738.587-5.337 1.635-7.684l9.006 24.675c-6.3-3.06-10.641-9.518-10.641-16.991ZM25 44.31c-1.854 0-3.643-.273-5.334-.77l5.666-16.46 5.803 15.9c.038.092.084.177.135.259a18.855 18.855 0 0 1-6.27 1.07Zm2.602-27.735c1.136-.06 2.16-.179 2.16-.179 1.018-.12.898-1.616-.12-1.556 0 0-3.057.24-5.032.24-1.855 0-4.972-.24-4.972-.24-1.019-.06-1.138 1.496-.12 1.556 0 0 .963.12 1.98.18l2.942 8.058-4.133 12.392-6.875-20.45c1.138-.06 2.16-.18 2.16-.18 1.018-.12.897-1.616-.12-1.556 0 0-3.058.24-5.032.24-.354 0-.772-.01-1.216-.023 3.377-5.125 9.18-8.51 15.776-8.51 4.915 0 9.39 1.88 12.75 4.957-.082-.005-.161-.015-.245-.015-1.855 0-3.17 1.616-3.17 3.351 0 1.556.897 2.872 1.854 4.428.718 1.258 1.556 2.873 1.556 5.207 0 1.617-.48 3.65-1.436 6.104l-1.884 6.292-6.823-20.296Zm6.89 25.171 5.767-16.673c1.078-2.693 1.436-4.847 1.436-6.762 0-.695-.045-1.34-.127-1.942a18.785 18.785 0 0 1 2.313 9.058c0 6.966-3.775 13.047-9.389 16.32Z"/></svg>