<svg width="30" height="32" viewBox="0 0 30 32" fill="none" xmlns="http://www.w3.org/2000/svg">
<g clip-path="url(#clip0)">
<path d="M11.6483 25.4932C11.6483 25.4034 11.6483 25.3236 11.6184 25.2338C11.4844 24.2461 11.1271 23.3023 10.574 22.4744C10.2196 22.0153 9.8122 21.5999 9.36041 21.2369C9.22612 21.1321 9.11172 21.182 9.10675 21.3467L8.98738 23.0532C8.98738 23.2179 8.79838 23.2278 8.74367 23.0532L7.99763 20.6581C7.96317 20.5707 7.91149 20.4912 7.84568 20.4243C7.77988 20.3574 7.7013 20.3045 7.61466 20.2688C7.11066 20.0946 6.59555 19.9546 6.07283 19.8497C5.38647 19.7299 4.38676 19.6551 4.38676 19.6551C4.21766 19.6551 4.16295 19.7599 4.26242 19.8996L5.28699 21.7758C5.38647 21.9105 5.28699 22.0452 5.14276 21.9404L2.89964 20.1441C2.69107 20.0096 2.45744 19.919 2.21292 19.8778C1.9684 19.8367 1.71809 19.8458 1.47718 19.9046C0.979818 19.9844 0.263614 20.1341 0.263614 20.1341C0.186396 20.1516 0.117753 20.1958 0.0696419 20.2589C0.0223259 20.3239 -0.00216104 20.4029 1.09042e-05 20.4834C1.09042e-05 20.4834 0.054721 21.2369 0.119378 21.7359C0.127775 21.985 0.187325 22.2296 0.294301 22.4546C0.401277 22.6796 0.553376 22.8799 0.741083 23.0432L3.07372 24.7298C3.21298 24.8296 3.11848 24.9743 2.95933 24.9144L0.880345 24.4454C0.721189 24.3855 0.631663 24.4454 0.6814 24.63C0.6814 24.63 1.02458 25.5731 1.33295 26.2068C1.5775 26.6805 1.85332 27.1372 2.15857 27.574C2.21771 27.6509 2.29285 27.714 2.37874 27.7588C2.46463 27.8036 2.55922 27.8291 2.65594 27.8335L5.14276 27.8984C5.30689 27.8984 5.34668 28.088 5.19249 28.1379L3.58601 28.7217C3.43182 28.7716 3.4169 28.8963 3.55119 28.9961C4.0214 29.3331 4.53082 29.6112 5.06815 29.8244C6.01447 30.1314 7.0183 30.2167 8.0026 30.0739C8.73542 29.972 9.45778 29.805 10.1612 29.5749C10.1354 29.3764 10.1221 29.1764 10.1214 28.9762C10.1216 28.3263 10.2576 27.6837 10.5206 27.0898C10.7836 26.496 11.1678 25.964 11.6483 25.5282" fill="#59AA47"/>
<path d="M29.5434 20.5034C29.5456 20.4229 29.5211 20.3439 29.4738 20.2788C29.4257 20.2157 29.3571 20.1716 29.2798 20.1541C29.2798 20.1541 28.5686 20.0044 28.0663 19.9245C27.8255 19.8645 27.5749 19.8548 27.3302 19.896C27.0855 19.9372 26.8519 20.0285 26.6438 20.1641L24.4007 21.9604C24.2714 22.0652 24.157 21.9305 24.2565 21.7957L25.281 19.9196C25.3805 19.7798 25.3258 19.675 25.1567 19.675C25.1567 19.675 24.162 19.7499 23.4706 19.8697C22.9479 19.9745 22.4328 20.1146 21.9288 20.2888C21.8422 20.3245 21.7636 20.3774 21.6978 20.4442C21.632 20.5111 21.5803 20.5906 21.5458 20.678L20.7998 23.0731C20.7451 23.2328 20.561 23.2228 20.5561 23.0731L20.4367 21.3666C20.4367 21.2019 20.3173 21.152 20.183 21.2568C19.7315 21.6183 19.3242 22.032 18.9695 22.4893C18.4191 23.3114 18.062 24.2481 17.925 25.2288C17.925 25.3186 17.925 25.3984 17.8952 25.4882C18.4526 25.9896 18.8797 26.6196 19.1397 27.3239C19.3997 28.0282 19.4847 28.7854 19.3873 29.53C20.0899 29.7628 20.8125 29.9299 21.5458 30.029C22.5301 30.1718 23.534 30.0865 24.4803 29.7795C25.0176 29.5663 25.527 29.2881 25.9972 28.9512C26.1315 28.8514 26.1166 28.7267 25.9624 28.6768L24.3609 28.0929C24.2067 28.043 24.2465 27.8584 24.4106 27.8534L26.8975 27.7886C26.9939 27.7829 27.088 27.7568 27.1738 27.7121C27.2595 27.6674 27.3348 27.605 27.3948 27.5291C27.6916 27.0993 27.9608 26.651 28.2006 26.1868C28.504 25.5531 28.8521 24.61 28.8521 24.61C28.9018 24.4454 28.8123 24.3655 28.6532 24.4254L26.5742 24.8944C26.415 24.9543 26.3205 24.8096 26.4598 24.7098L28.7924 23.0432C28.9819 22.8808 29.1359 22.6809 29.2446 22.4559C29.3533 22.2309 29.4144 21.9857 29.4241 21.7359C29.4887 21.2369 29.5434 20.5034 29.5434 20.5034Z" fill="#59AA47"/>
<path d="M22.9782 12.5595C22.9782 12.295 22.8042 12.2002 22.5803 12.3449L20.1632 13.6722C19.9393 13.8119 19.8846 13.5375 20.0488 13.3279L22.3665 10.2192C22.4498 10.0984 22.5054 9.96062 22.5295 9.81571C22.5536 9.6708 22.5455 9.52235 22.5057 9.38095C22.2027 8.54193 21.8387 7.72639 21.4165 6.9409C20.9978 6.25309 20.5307 5.59609 20.0189 4.97489C19.8548 4.77031 19.6509 4.80025 19.5663 5.05473L18.4323 7.88898C18.3527 8.13847 18.1339 8.12849 18.1389 7.86403L18.2781 3.40808C18.2699 3.10466 18.1534 2.81428 17.9499 2.58974C17.9499 2.58974 17.2585 1.91112 16.7015 1.41213C16.1445 0.913144 15.1597 0.124745 15.1597 0.124745C15.049 0.0421201 14.9147 -0.00250244 14.7767 -0.00250244C14.6387 -0.00250244 14.5044 0.0421201 14.3937 0.124745C14.3937 0.124745 13.4587 0.868235 12.842 1.41712C12.2252 1.96601 11.6085 2.58974 11.6085 2.58974C11.407 2.81478 11.2939 3.1056 11.2902 3.40808L11.4245 7.86403C11.4245 8.12849 11.2205 8.13847 11.136 7.88898L9.99703 5.04974C9.91248 4.80025 9.71353 4.77031 9.54443 4.97988C8.99741 5.64151 8.49875 6.34191 8.05234 7.07563C7.66687 7.81952 7.33447 8.58989 7.05761 9.38095C7.01794 9.52125 7.00941 9.66857 7.03261 9.81254C7.05581 9.95652 7.11018 10.0936 7.1919 10.2143L9.51459 13.3279C9.67872 13.5375 9.62898 13.8269 9.40517 13.6722L6.983 12.3449C6.75919 12.2002 6.57516 12.295 6.57516 12.5595C6.59546 13.4179 6.73439 14.2693 6.98798 15.0894C7.55968 16.5757 8.47508 17.9045 9.65882 18.9665C11.2454 20.4634 12.6082 22.8586 13.3642 24.4952C13.8198 24.3519 14.2942 24.2779 14.7717 24.2757C15.2546 24.2757 15.7346 24.3514 16.1942 24.5002C16.9502 22.8636 18.313 20.4535 19.8946 18.9665C20.977 17.9966 21.8402 16.8057 22.4262 15.4736C22.7604 14.5405 22.9467 13.5605 22.9782 12.5695" fill="#59AA47"/>
<path d="M17.8156 28.9412C17.8156 29.5452 17.6371 30.1356 17.3026 30.6378C16.9681 31.14 16.4927 31.5314 15.9366 31.7625C15.3804 31.9937 14.7683 32.0541 14.1779 31.9363C13.5874 31.8185 13.0451 31.5276 12.6194 31.1005C12.1937 30.6735 11.9038 30.1293 11.7863 29.537C11.6689 28.9446 11.7292 28.3306 11.9595 27.7726C12.1899 27.2145 12.5801 26.7376 13.0806 26.4021C13.5812 26.0665 14.1697 25.8874 14.7717 25.8874C15.1716 25.8867 15.5677 25.9653 15.9373 26.1185C16.3069 26.2717 16.6427 26.4967 16.9255 26.7804C17.2083 27.0641 17.4325 27.401 17.5852 27.7718C17.738 28.1426 17.8162 28.54 17.8156 28.9412" fill="#59AA47"/>
</g>
<defs>
<clipPath id="clip0">
<rect width="29.5385" height="32" fill="white"/>
</clipPath>
</defs>
</svg>
