<svg id="settings" viewBox="0 0 24 24" fill="none" xmlns="http://www.w3.org/2000/svg">
	<path
		d="m 10.299304,8.5986093 h 11.054522 m -11.054522,0 c 0,0.451024 -0.17914,0.883681 -0.4980766,1.202618 C 9.4822904,10.120164 9.0496333,10.299305 8.5986083,10.299305 8.1475832,10.299305 7.714927,10.120164 7.395989,9.8012273 7.0770522,9.4822904 6.8979119,9.0496333 6.8979119,8.5986093 m 3.4013921,0 c 0,-0.4510258 -0.17914,-0.8836819 -0.4980766,-1.2026185 -0.318938,-0.3189382 -0.7515941,-0.4980772 -1.20262,-0.4980772 -0.4510242,0 -0.8836804,0.179139 -1.2026185,0.4980772 -0.3189367,0.3189365 -0.498077,0.7515927 -0.498077,1.2026185 m 0,0 H 2.6461736 M 17.102086,15.401392 h 4.25174 m -4.25174,0 c 0,0.451024 -0.17914,0.883682 -0.498076,1.202618 -0.318938,0.318937 -0.751595,0.498076 -1.202618,0.498076 -0.451025,0 -0.883682,-0.179139 -1.20262,-0.498076 -0.318938,-0.318936 -0.498076,-0.751594 -0.498076,-1.202618 m 3.40139,0 c 0,-0.451025 -0.17914,-0.883682 -0.498076,-1.202619 -0.318938,-0.318937 -0.751595,-0.498077 -1.202618,-0.498077 -0.451025,0 -0.883682,0.17914 -1.20262,0.498077 -0.318938,0.318937 -0.498076,0.751594 -0.498076,1.202619 m 0,0 H 2.6461736"
		stroke-width="1.7"
		stroke-linecap="square" />
</svg>
