<svg
	id="woocommerce-logo"
	width="38"
	height="23"
	viewBox="0 0 120 72"
	fill="none"
	xmlns="http://www.w3.org/2000/svg"
>
<path
		fill-rule="evenodd"
		clip-rule="evenodd"
		d="M108.814 0H11.1369C4.95537 0 -0.0487019 5.05313 0.000357674 11.1856V48.4708C0.000357674 54.6523 5.00443 59.6564 11.1859 59.6564H57.4491L78.5938 71.4307L73.7859 59.6564H108.814C114.996 59.6564 120 54.6523 120 48.4708V11.1856C120 5.00407 114.996 0 108.814 0ZM9.07506 8.63438C7.70139 8.7325 6.67114 9.2231 5.98431 10.1552C5.29747 11.0383 5.05218 12.1667 5.19936 13.4422C8.09387 31.8396 10.7921 44.2516 13.2942 50.6784C14.2754 53.0333 15.4037 54.1616 16.7284 54.0635C18.7889 53.9163 21.2418 51.0709 24.1363 45.5272C25.6572 42.3874 28.012 37.6776 31.2009 31.398C33.8501 40.6703 37.4805 47.6367 42.0431 52.2974C43.3186 53.622 44.6432 54.2107 45.9188 54.1126C47.0471 54.0145 47.9302 53.4257 48.5189 52.3464C49.0095 51.4143 49.2058 50.335 49.1076 49.1085C48.8133 44.6441 49.2548 38.4135 50.4813 30.4168C51.7569 22.1748 53.3268 16.2386 55.2401 12.7063C55.6326 11.9704 55.7797 11.2345 55.7307 10.3515C55.6326 9.2231 55.142 8.29097 54.2098 7.55508C53.2777 6.81919 52.2475 6.47577 51.1191 6.57389C49.6964 6.67201 48.6171 7.35884 47.8812 8.73251C44.8395 14.2762 42.6808 23.2541 41.4053 35.7153C39.541 31.0055 37.9711 25.4618 36.7446 18.9369C36.205 16.0424 34.8804 14.6687 32.7218 14.8159C31.25 14.914 30.0235 15.8952 29.0423 17.7595L18.2983 38.2173C16.5321 31.1037 14.8641 22.4201 13.3432 12.1667C12.9998 9.61558 11.5771 8.43814 9.07506 8.63438ZM103.612 12.1667C107.095 12.9026 109.695 14.7669 111.461 17.8576C113.031 20.5068 113.816 23.6957 113.816 27.5223C113.816 32.5755 112.541 37.1871 109.99 41.4062C107.046 46.3121 103.219 48.7651 98.4605 48.7651C97.6265 48.7651 96.7434 48.667 95.8113 48.4708C92.3281 47.7349 89.7279 45.8706 87.9618 42.7799C86.3919 40.0816 85.6069 36.8437 85.6069 33.0661C85.6069 28.0129 86.8825 23.4013 89.4336 19.2313C92.4262 14.3253 96.2528 11.8723 100.963 11.8723C101.797 11.8723 102.68 11.9705 103.612 12.1667ZM101.551 38.7079C103.366 37.089 104.593 34.685 105.28 31.4471C105.476 30.3187 105.623 29.0922 105.623 27.8167C105.623 26.394 105.329 24.8731 104.74 23.3523C104.004 21.4389 103.023 20.4087 101.846 20.1634C100.079 19.82 98.3624 20.8012 96.7434 23.2051C95.4188 25.0694 94.5848 27.0317 94.1433 29.0432C93.898 30.1715 93.7999 31.398 93.7999 32.6245C93.7999 34.0473 94.0942 35.5681 94.6829 37.0889C95.4188 39.0023 96.4 40.0325 97.5775 40.2778C98.8039 40.5231 100.129 39.9835 101.551 38.7079ZM80.7018 17.8576C78.9357 14.7669 76.2864 12.9026 72.8523 12.1667C71.9201 11.9705 71.0371 11.8723 70.2031 11.8723C65.4933 11.8723 61.6667 14.3253 58.6741 19.2313C56.123 23.4013 54.8474 28.0129 54.8474 33.0661C54.8474 36.8437 55.6324 40.0816 57.2023 42.7799C58.9684 45.8706 61.5686 47.7349 65.0518 48.4708C65.9839 48.667 66.867 48.7651 67.701 48.7651C72.4598 48.7651 76.2864 46.3121 79.23 41.4062C81.7811 37.1871 83.0566 32.5755 83.0566 27.5223C83.0566 23.6957 82.2717 20.5068 80.7018 17.8576ZM74.5203 31.4471C73.8335 34.685 72.607 37.089 70.7918 38.7079C69.369 39.9835 68.0444 40.5231 66.818 40.2778C65.6405 40.0325 64.6593 39.0023 63.9234 37.0889C63.3347 35.5681 63.0404 34.0473 63.0404 32.6245C63.0404 31.398 63.1385 30.1715 63.3838 29.0432C63.8253 27.0317 64.6593 25.0694 65.9839 23.2051C67.6029 20.8012 69.32 19.82 71.0861 20.1634C72.2635 20.4087 73.2447 21.4389 73.9806 23.3523C74.5693 24.8731 74.8637 26.394 74.8637 27.8167C74.8637 29.0922 74.7656 30.3187 74.5203 31.4471Z"
		fill="#7F54B3"
	/>
</svg>
