<svg width="45" height="48" viewBox="0 0 45 48" fill="none" xmlns="http://www.w3.org/2000/svg">
<path d="M9.17068 5.62508H27.8537L27.1506 7.52347H9.17068C5.18313 7.52347 1.94868 10.6976 1.94868 14.5849V35.2166C1.94868 38.7725 4.44981 42.278 10.3861 42.278V44.1965H9.17068C4.13844 44.1965 0 40.1586 0 35.2066V14.5849C0 9.63293 4.08814 5.62508 9.17068 5.62508ZM32.1828 0H38.8627C24.4183 37.9787 24.2278 40.068 20.3103 44.1262C18.221 46.296 15.3582 47.3106 12.4452 47.4105V42.2779C17.3873 41.5045 18.934 37.2655 18.934 34.714C18.934 32.6954 18.9943 33.4486 10.6873 12.2947H16.8547L21.9173 28.0246L32.1828 0ZM45 14.2132V44.1964H23.5045C24.1674 43.2321 24.5792 42.5592 24.7199 42.2476H43.0511V14.2132C43.0511 10.9487 41.3336 9.0001 38.2098 7.89502L38.8827 6.12722C43.0715 7.49337 45 10.4565 45 14.2132Z" fill="#A3286A"/>
</svg>
