<svg version="1.1" viewBox="0 0 315 129" xmlns="http://www.w3.org/2000/svg">
	<g fill="none" fill-rule="evenodd">
		<path d="m156.63 50.227c0.80309-0.18007 1.6062-0.21269 2.4093-0.20767 0.80309 0.011293 1.6062 0.054585 2.4093 0.20642 0.053385 0.010039 0.089362 0.065251 0.079497 0.12297-0.006963 0.045174-0.040039 0.078427-0.079497 0.086583-0.80309 0.15183-1.6062 0.19513-2.4093 0.20579-0.80309 0.0056467-1.6062-0.027606-2.4093-0.20705-0.052805-0.011921-0.086461-0.067761-0.076016-0.12486 0.008124-0.042664 0.039459-0.074035 0.076016-0.082191" fill="#C7D6E1"/>
		<path d="m179.65 68.698c0.80309-0.17944 1.6062-0.21269 2.4093-0.20705 0.80309 0.010666 1.6062 0.053958 2.4093 0.20642 0.053385 0.010039 0.089362 0.064624 0.079497 0.12235-0.006963 0.045174-0.040038 0.079054-0.079497 0.086583-0.80309 0.15183-1.6062 0.19513-2.4093 0.20579-0.80309 0.0056467-1.6062-0.026979-2.4093-0.20705-0.052805-0.011921-0.08646-0.067761-0.076015-0.12486 0.008123-0.042664 0.039458-0.074035 0.076015-0.082191" fill="#C7D6E1"/>
		<path d="m121.83 58.258c0.80309-0.18007 1.6062-0.21269 2.4093-0.20705 0.80309 0.010666 1.6062 0.053958 2.4093 0.20579 0.053385 0.010039 0.089362 0.065251 0.079497 0.12297-0.006963 0.045174-0.040039 0.078427-0.079497 0.086583-0.80309 0.15183-1.6062 0.19513-2.4093 0.20579-0.80309 0.0056467-1.6062-0.027606-2.4093-0.20705-0.052805-0.011921-0.087041-0.067761-0.076016-0.12486 0.008124-0.042664 0.038878-0.074035 0.076016-0.082191" fill="#C7D6E1"/>
		<polygon points="229.09 111.13 288.05 111.13 288.05 60.967 229.09 60.967" fill="#7ED2F1"/>
		<path d="m235.6 72.111v17.261h26.253v-24.101h-19.412c-3.7781 0-6.8402 3.0627-6.8402 6.8402" fill="#C6E8F4"/>
		<polygon points="267.02 108.31 282.51 108.31 282.51 65.271 267.02 65.271" fill="#C6E8F4"/>
		<polygon points="269.27 84.34 280.46 84.34 280.46 68.038 269.27 68.038" fill="#fff"/>
		<path d="m280.8 31.162h0.068692l13.733 20.696h-0.006615v3.2071c0 3.1636-2.4957 5.7592-5.6565 5.8839-0.28259 0.011605-0.57853 0.017408-0.88955 0.017408h-58.961v-9.1085l0.006034-20.696 2.33e-4 -5.4653h51.381l0.3245 5.4653z" fill="#07A8DC"/>
		<path d="m281.32 93.251h17.215" fill="#fff"/>
		<path d="m286.54 110.55h6.77" fill="#fff"/>
		<polygon points="170.78 111.07 229.03 111.07 229.03 26.49 170.78 26.49" fill="#C6E8F4"/>
		<path d="m206.64 83.309h-25.938c-2.6066 0-4.7193-2.1128-4.7193-4.7193v-25.938h30.657v30.657z" fill="#7ED2F1"/>
		<polygon points="175.98 49.557 224.34 49.557 224.34 39.693 175.98 39.693" fill="#fff"/>
		<polygon points="209.64 88.822 224.34 88.822 224.34 52.652 209.64 52.652" fill="#7ED2F1"/>
		<path d="m170.57 88.822h59.358" fill="#fff"/>
		<path d="m170.57 88.435c2.4731-0.27099 4.9462-0.17582 7.4199-0.20542l7.4199-0.024371c4.9462-0.0058027 9.893-0.056286 14.839-0.023791l14.84 0.048743c4.9462-0.0029013 9.893 0.063249 14.839 0.39806v0.38704c-4.9462 0.33482-9.893 0.40155-14.839 0.39864l-14.84 0.048743c-4.9462 0.032495-9.893-0.017988-14.839-0.024371l-7.4199-0.024371c-2.4737-0.029594-4.9468 0.066151-7.4199-0.20542v-0.7735z" fill="#0383BF"/>
		<path d="m229.03 94.238h-20.608" fill="#fff"/>
		<path d="m229.03 94.625c-0.8588 0.27621-1.717 0.17234-2.5758 0.20542l-2.5764 0.024371c-1.717 0.0092843-3.4346 0.048162-5.1516 0.032495-1.7176 0.0023211-3.4352-0.02147-5.1522-0.050483-1.7176-0.016248-3.4352-0.058027-5.1522-0.40503v-0.38704c1.717-0.34758 3.4346-0.38878 5.1522-0.40503 1.717-0.029594 3.4346-0.053385 5.1522-0.051064 1.717-0.015667 3.4346 0.023211 5.1516 0.032495l2.5764 0.024952c0.8588 0.032495 1.717-0.071373 2.5758 0.20542v0.7735z" fill="#0383BF"/>
		<path d="m208.42 98.88h20.608" fill="#fff"/>
		<path d="m208.42 98.493c0.8588-0.27621 1.717-0.17234 2.5758-0.20542l2.5764-0.024371c1.717-0.0098646 3.4346-0.048162 5.1522-0.032495 1.717-0.0029013 3.4346 0.02147 5.1516 0.050484 1.7176 0.016248 3.4352 0.057447 5.1522 0.40503v0.38704c-1.717 0.34758-3.4346 0.38878-5.1522 0.40503-1.717 0.029013-3.4346 0.053385-5.1516 0.050483-1.7176 0.016248-3.4352-0.02263-5.1522-0.032495l-2.5764-0.024371c-0.8588-0.032495-1.717 0.070793-2.5758-0.20542v-0.7735z" fill="#0383BF"/>
		<path d="m208.42 103.52h20.608" fill="#fff"/>
		<path d="m208.42 103.14c0.8588-0.27621 1.717-0.17234 2.5758-0.20542l2.5764-0.024371c1.717-0.009864 3.4346-0.048162 5.1522-0.032495 1.717-0.002901 3.4346 0.02147 5.1516 0.050483 1.7176 0.016248 3.4352 0.057447 5.1522 0.40503v0.38704c-1.717 0.34758-3.4346 0.38878-5.1522 0.40503-1.717 0.029013-3.4346 0.053385-5.1516 0.050483-1.7176 0.016248-3.4352-0.02263-5.1522-0.032495l-2.5764-0.024371c-0.8588-0.032495-1.717 0.070793-2.5758-0.20542v-0.7735z" fill="#0383BF"/>
		<path d="m186.98 69.22l-2.6791-1.3039c1.9631-5.6733 6.1822-5.8294 6.1822-5.8294l1.5325 1.0288 1.5557-1.0288c3.5199 0.87331 4.7565 5.2207 4.7565 6.6081l-2.6327 0.70677 0.22456 6.0673h-9.2669l0.32727-6.2489z" fill="#fff"/>
		<polygon points="102.17 111.03 102.17 41.893 116.83 17.834 134.25 43.552 170.86 43.829 170.86 111.03" fill="#005080"/>
		<polygon points="112.33 93.247 120.9 93.247 120.9 70.737 112.33 70.737" fill="#07A8DC"/>
		<polygon points="137.55 68.018 137.55 111.23 149.71 111.23 161.87 111.23 161.87 68.018" fill="#07A8DC"/>
		<path d="m116.61 35.747c-0.7439 0.0092843-4.2864 0.28433-4.2864 4.6752v15.231h4.2864 4.2864v-15.231c0-4.3909-3.5425-4.6659-4.2864-4.6752" fill="#07A8DC"/>
		<polygon points="142.04 111.23 157.39 111.23 157.39 80.231 142.04 80.231" fill="#7ED2F1"/>
		<polygon points="95.576 43.579 117.11 9.5452 126.48 23.251 170.86 23.228 170.86 43.867 133.95 43.753 117.11 18.035 101.59 43.579" fill="#07A8DC"/>
		<path d="m200.43 26.49h32.781c-5.1267-4.207-8.5445-26.112-8.5445-26.112l-24.236-0.35571v-0.0023211l-0.077175 0.0011605-0.077176-0.0011605v0.0023211l-24.236 0.35571s-3.4178 21.905-8.545 26.112h32.781" fill="#005080"/>
		<path d="m137.15 69.774c0-6.9563 5.6396-12.596 12.596-12.596 6.9563 0 12.596 5.6402 12.596 12.596v3.4961h-25.192v-3.4961z" fill="#C6E8F4"/>
		<path d="m162.92 111.3c-2.201 0.21992-4.4019 0.21818-6.6029 0.23095l-6.6029 0.038878-6.6029-0.038878c-2.2004-0.012766-4.4013-0.010445-6.6023-0.23095v-0.14507c2.201-0.2205 4.4019-0.21818 6.6023-0.23095l6.6029-0.038878 6.6029 0.038878c2.201 0.012766 4.4019 0.011025 6.6029 0.23095v0.14507z" fill="#fff"/>
		<path d="m152.85 65.715c0.37195-0.52456 0.43578-1.6764-0.32205-2.4325-1.0497-1.0485-2.787-2.1447-2.787-2.1447s-0.23501 0.61915-1.428 0.94584c-1.6938 0.46364-1.3543 1.6097-1.3543 1.6097-0.86634 0.4793-1.2337 1.3787-0.57679 2.0217" fill="#07A8DC"/>
		<path d="m145.99 65.904l0.89013 3.2437c0.15435 0.56112 0.66383 0.9499 1.2458 0.9499h3.1236c0.58027 0 1.0892-0.38646 1.2447-0.94526l0.90464-3.2483" fill="#7ED2F1"/>
		<path d="m146.42 65.931c-0.4294-0.34642-0.65454-1.0404-0.37601-1.6224 0.27215-0.57621 0.83443-0.90232 1.3625-1.0718 0.53559-0.17524 1.106-0.22108 1.6224-0.25996 0.5176-0.041199 1.0306-0.13404 1.5563-0.2234l0.053965 0.16538c-0.48801 0.24139-1.0178 0.39052-1.5586 0.47988-0.54081 0.073114-1.041 0.1265-1.5174 0.30464-0.46886 0.15667-0.91044 0.40967-1.1257 0.79845-0.22166 0.3853-0.17872 0.89652 0.051064 1.3758l-0.068472 0.053385z" fill="#7ED2F1"/>
		<path d="m145.45 65.59c0.34874-0.1381 0.6969-0.08646 1.0456-0.10271l1.0456-0.012186c0.69748-0.0046422 1.3944-0.024371 2.0919-0.016248 0.69748-0.0011606 1.3944 0.010445 2.0913 0.025532 0.69748 0.0081238 1.3944 0.028433 2.0919 0.20251v0.19323c-0.69748 0.1735-1.3944 0.19439-2.0919 0.20251-0.6969 0.014507-1.3938 0.026692-2.0913 0.025532-0.69748 0.0081238-1.3944-0.011605-2.0919-0.016248l-1.0456-0.012186c-0.34874-0.016828-0.6969 0.035396-1.0456-0.10271v-0.38704z" fill="#005080"/>
		<path d="m152.47 62.904c0.075435 0.32727-0.051063 0.70155-0.27969 0.9557-0.22689 0.26112-0.51122 0.45261-0.81006 0.58549-0.60464 0.24603-1.2366 0.37834-1.8673 0.30058l-0.018568-0.17292c0.58201-0.21354 1.1681-0.31393 1.6805-0.57505 0.25532-0.12186 0.49845-0.25996 0.69748-0.44042 0.20484-0.1793 0.3557-0.3853 0.51122-0.66383l0.08646 0.010445z" fill="#7ED2F1"/>
		<path d="m141.34 73.126c0 1.1594-0.94004 2.0994-2.0994 2.0994s-2.0994-0.94004-2.0994-2.0994c0-1.16 0.94004-2.0994 2.0994-2.0994s2.0994 0.93946 2.0994 2.0994" fill="#C6E8F4"/>
		<path d="m145.54 73.126c0 1.1594-0.94004 2.0994-2.0994 2.0994s-2.0994-0.94004-2.0994-2.0994c0-1.16 0.94004-2.0994 2.0994-2.0994s2.0994 0.93946 2.0994 2.0994" fill="#C6E8F4"/>
		<path d="m149.74 73.126c0 1.1594-0.94004 2.0994-2.0994 2.0994s-2.0994-0.94004-2.0994-2.0994c0-1.16 0.94004-2.0994 2.0994-2.0994s2.0994 0.93946 2.0994 2.0994" fill="#C6E8F4"/>
		<path d="m153.94 73.126c0 1.1594-0.94004 2.0994-2.0994 2.0994s-2.0994-0.94004-2.0994-2.0994c0-1.16 0.94004-2.0994 2.0994-2.0994s2.0994 0.93946 2.0994 2.0994" fill="#C6E8F4"/>
		<path d="m158.14 73.126c0 1.1594-0.94004 2.0994-2.0994 2.0994s-2.0994-0.94004-2.0994-2.0994c0-1.16 0.94004-2.0994 2.0994-2.0994s2.0994 0.93946 2.0994 2.0994" fill="#C6E8F4"/>
		<path d="m162.34 73.126c0 1.1594-0.94004 2.0994-2.0994 2.0994s-2.0988-0.94004-2.0988-2.0994c0-1.16 0.93946-2.0994 2.0988-2.0994s2.0994 0.93946 2.0994 2.0994" fill="#C6E8F4"/>
		<path d="m0.083862 110.65l19.672-0.19555 19.672-0.094003 39.344-0.17756 78.687-0.073114 78.687 0.094004 39.344 0.12824 19.672 0.070792 19.672 0.13114c0.093264 5.81e-4 0.16838 0.10503 0.16796 0.23327-4.22e-4 0.12708-0.075539 0.23037-0.16796 0.23095l-19.672 0.13172-19.672 0.070212-39.344 0.12824-78.687 0.094584-78.687-0.073694-39.344-0.17756-19.672-0.094003-19.672-0.19555c-0.046843-5.8e-4 -0.084402-0.052805-0.08398-0.11663 4.2201e-4 -0.06383 0.037981-0.11489 0.08398-0.11547" fill="#C7D6E1"/>
		<path d="m148.34 106.47c2.4975-0.43984 3.2675 2.3547 3.2675 2.3547" stroke="#7ED2F1" stroke-linecap="round" stroke-linejoin="round"/>
		<path d="m273.02 75.71c-0.53211-0.38298-0.92785-0.88433-1.3613-1.3532-0.40677-0.49149-0.83443-0.96557-1.1797-1.511-0.017408-0.027273-0.009284-0.063249 0.017988-0.081238 0.02205-0.013926 0.050484-0.011025 0.069052 0.0052224 0.49439 0.41547 0.90638 0.90232 1.3398 1.3712 0.40619 0.49265 0.84951 0.9528 1.1576 1.5308 0.007543 0.014507 0.002321 0.032495-0.012186 0.040038-0.010445 0.0058027-0.02263 0.0046422-0.031334-0.0017408" fill="#C2F4FF"/>
		<path d="m273.45 75.57c-0.52166-0.39632-0.90464-0.90754-1.3259-1.3874-0.39342-0.50251-0.80832-0.98762-1.1396-1.5418-0.016828-0.027853-0.007543-0.06383 0.02031-0.080657 0.02263-0.013346 0.050483-0.0098646 0.069052 0.0069632 0.48278 0.42824 0.88259 0.92553 1.3033 1.406 0.39342 0.50251 0.82456 0.97369 1.1176 1.5603 0.006963 0.014507 0.00116 0.032495-0.013346 0.039458-0.010445 0.0052224-0.022631 0.0040619-0.031335-0.0029013" fill="#C2F4FF"/>
		<path d="m273.84 79.235v0.33205c0 0.16327 0.22921 0.29536 0.51122 0.29536h2.176" fill="#fff"/>
		<path d="m273.86 79.235l0.030755 0.19555c0.011025 0.06499 0.012185 0.14159 0.038878 0.15319 0.053965 0.049903 0.16422 0.08704 0.2704 0.095744 0.20716 0.0092843 0.50658-0.0098645 0.75493-0.013346 0.52108 0.016248 1.0422 0.0040619 1.5632 0.10619 0.031914 0.006383 0.052804 0.037718 0.046421 0.069632-0.004642 0.024371-0.023791 0.04236-0.046421 0.046422-0.52108 0.10271-1.0422 0.090522-1.5632 0.10677-0.27157-0.017408-0.49613 0.008704-0.80599-0.044681-0.14158-0.04236-0.3058-0.10387-0.38124-0.28839-0.034236-0.10735 0.00174-0.16886 0.003481-0.23153l0.030754-0.19555c0.002321-0.015667 0.017408-0.026692 0.033656-0.024371 0.012766 0.0017408 0.022631 0.012186 0.024371 0.024371" fill="#C8D7E2"/>
		<path d="m271.82 75.69c1.4675-1.8812 3.5037-0.12418 5.6414-0.45087" fill="#fff"/>
		<path d="m271.79 75.672c0.24487-0.44275 0.68124-0.80773 1.2012-0.9441 0.52108-0.12476 1.0491-0.071373 1.5441 0.015087 0.98878 0.20309 1.9253 0.48627 2.91 0.43868 0.032495-0.0017408 0.059768 0.02263 0.061509 0.055126 0.00116 0.027853-0.017408 0.052224-0.044101 0.059768-0.49497 0.12592-1.0178 0.10677-1.5162 0.039458-0.50077-0.070213-0.98762-0.18917-1.4698-0.26983-0.47872-0.089362-0.96209-0.15319-1.4176-0.055126-0.46015 0.0853-0.8559 0.36035-1.2232 0.6969-0.011606 0.011025-0.030755 0.0098645-0.04178-0.0017409-0.008704-0.0098645-0.009864-0.023211-0.004062-0.034236" fill="#C8D7E2"/>
		<path d="m278.06 75.127c-0.13346-0.63598-1.4733-1.1048-2.8329-0.52108" fill="#fff"/>
		<path d="m278.04 75.133c-0.13926-0.21876-0.3354-0.34294-0.56054-0.43694-0.21876-0.10329-0.46538-0.15377-0.71141-0.1764-0.49845-0.069052-0.99632 0.031334-1.5093 0.13984-0.031915 0.0069632-0.06383-0.012186-0.071373-0.0441-0.005803-0.024371 0.005803-0.049323 0.024951-0.062669 0.46073-0.30116 1.0335-0.40271 1.5894-0.35977 0.27853 0.031915 0.55416 0.10851 0.8089 0.24255 0.24139 0.13578 0.49497 0.37776 0.48627 0.6853-5.81e-4 0.016828-0.013927 0.029594-0.030755 0.029013-0.009864 0-0.018568-0.0052224-0.023791-0.013346l-0.002321-0.0034817z" fill="#C8D7E2"/>
		<path d="m279.01 75.69v0.57273c0 1.6207-1.5725 2.9344-3.5129 2.9344h-0.30232c-1.9398 0-3.513-1.3137-3.513-2.9344v-0.57273h6.4097" fill="#fff"/>
		<path d="m279.04 75.69c0.019149 0.47524 0.069052 0.98182-0.10213 1.4611-0.16248 0.47234-0.45377 0.89942-0.82746 1.2337-0.74449 0.67833-1.7785 0.9853-2.7638 0.96325-0.98414 0.026692-2.0234-0.26112-2.7911-0.93191-0.38356-0.33075-0.69226-0.75783-0.86982-1.2395-0.18511-0.48801-0.16016-1.019-0.15667-1.4866-5.8e-4 -0.084719 0.069052-0.15377 0.15377-0.15435 1.0683 0.0040619 2.1366 0.0092844 3.2048 0.029594 1.0683 0.016248 2.136 0.026692 3.2042 0.066731 0.031915 0.0011606 0.056866 0.027853 0.055706 0.059768-0.001161 0.030754-0.025532 0.055126-0.055706 0.056286-1.0683 0.040039-2.136 0.049903-3.2042 0.066731-1.0683 0.02031-2.1366 0.025532-3.2048 0.029014l0.15377-0.15377c0.00116 0.49323-0.015667 0.95106 0.15029 1.3764 0.15899 0.42534 0.44216 0.79845 0.78336 1.1031 0.694 0.61451 1.6387 0.89303 2.5764 0.87679 0.93714 0.02089 1.8876-0.23907 2.6048-0.84487 0.35106-0.30232 0.65164-0.67427 0.82514-1.1095 0.18046-0.43462 0.18801-0.91683 0.20542-1.4019 5.8e-4 -0.016248 0.013926-0.028433 0.030174-0.027853 0.015087 5.803e-4 0.027273 0.012766 0.027853 0.027853" fill="#C8D7E2"/>
		<g transform="translate(27 38)">
			<g transform="translate(2.2812 .70504)">
				<path d="m6.8612 12.648c0.60469-0.010938 0.88516-0.094531 1.4891-0.29609 2.4875-0.83281 3.6875-2.9812 3.5914-5.4008-0.027344-0.68438 1.1594-1.1453 0.92344-1.85-0.30547-0.9125-1.9266-0.84922-2.7477-2.6023-0.92031-1.9664-3.3555-2.4688-5.6352-1.7062-3.1914 1.068-4.9133 4.5219-3.8453 7.7133" fill="#fff"/>
				<path d="m6.8612 12.648c0.60469-0.010938 0.88516-0.094531 1.4891-0.29609 2.4875-0.83281 3.6875-2.9812 3.5914-5.4008-0.027344-0.68438 1.1594-1.1453 0.92344-1.85-0.30547-0.9125-1.9266-0.84922-2.7477-2.6023-0.92031-1.9664-3.3555-2.4688-5.6352-1.7062-3.1914 1.068-4.9133 4.5219-3.8453 7.7133" stroke="#005081" stroke-linecap="round" stroke-linejoin="round"/>
			</g>
			<path d="m8.4794 5.7327c0.88828 2.2203 0.66641 5.9211-1.6281 6.8094-2.2945 0.88828-3.9336-3.3313-3.9336-3.3313l5.5617-3.4781z" fill="#4E748E"/>
			<g transform="translate(.71875 37.424)">
				<path d="m1.3466 0.54c-1.9984 15.431-0.31953 48.404-0.31953 48.404h7.5477l0.66641-27.644" fill="#005081"/>
				<path d="m1.3466 0.54c-1.9984 15.431-0.31953 48.404-0.31953 48.404h7.5477l0.66641-27.644" stroke="#005081" stroke-width=".735"/>
			</g>
			<path d="m1.7445 85.591c2.2945 0.074219 9.25 0.51797 10.287 0.88828 1.0359 0.37031 1.1094 0.51719-0.14844 0.81328-1.2578 0.29609-10.138 0-10.138 0v-1.7016z" fill="#005081"/>
			<path d="m1.7445 85.591c2.2945 0.074219 9.25 0.51797 10.287 0.88828 1.0359 0.37031 1.1094 0.51719-0.14844 0.81328-1.2578 0.29609-10.138 0-10.138 0v-1.7016z" stroke="#005081" stroke-width=".735"/>
			<path d="m14.401 37.631s0.82578 11.695 1.2211 23.758c0.33125 10.087-0.87891 20.733-0.77734 24.979h-8.2148c0.11094-24.646-4.7859-34.859-4.5641-48.404" fill="#07A8DC"/>
			<path d="m47.835 87.472c-0.97812 0.33828-4.1078 0.94062-5.0539 1.2508-0.77266 0.25391-0.58906 1.3922 0.22422 1.3922h8.4211c0.97031 0 1.7156-0.85938 1.5789-1.8203l-0.1375-0.95469-5.0328 0.13203z" fill="#07A8DC"/>
			<path d="m2.0655 37.964l12.446-0.33281-0.18516-7.6242-2.8859-1.5531 3.5148-6.8094-2.3312-2.4422-3.5383-3.6555c-3.6398-0.84766-7.2312 1.6641-7.6281 5.3797-0.90234 8.4516 0.60781 17.038 0.60781 17.038z" fill="#07A8DC"/>
			<polygon points="10.293 27.861 10.848 68.272 16.066 68.272 15.289 30.304" fill="#7ED2F1"/>
			<g transform="translate(8.5312 10.861)">
				<path d="m0.31852 15.335c4.8844 4.2188 9.6586 5.4398 11.656 3.7734 2.9844-2.4883-2.3125-12.326-2.6641-13.765-1.2211-4.9961-3.9961-4.9953-4.6625-4.4398s0.66641 3.6625 0.66641 3.6625l1.2211 6.6617" fill="#fff"/>
				<path d="m0.31852 15.335c4.8844 4.2188 9.6586 5.4398 11.656 3.7734 2.9844-2.4883-2.3125-12.326-2.6641-13.765-1.2211-4.9961-3.9961-4.9953-4.6625-4.4398s0.66641 3.6625 0.66641 3.6625l1.2211 6.6617" stroke="#005081" stroke-linecap="round" stroke-linejoin="round"/>
			</g>
			<path d="m12.18 19.424l4.5516 4.3305" stroke="#005081" stroke-linecap="round" stroke-linejoin="round"/>
			<path d="m6.6293 85.591c2.2945 0.074219 9.25 0.51797 10.287 0.88828 1.0359 0.37031 1.1102 0.96172-0.14844 1.2578-1.2578 0.29609-10.138 0-10.138 0v-2.1461z" fill="#07A8DC"/>
			<polygon points="10.186 13.501 9.5146 15.537 8.9982 13.429" stroke="#005081" stroke-linecap="round" stroke-linejoin="round"/>
			<path d="m12.402 37.41c-3.775 1.6648-11.102 0.77734-11.102 0.77734" stroke="#7ED2F1" stroke-linecap="round" stroke-linejoin="round"/>
			<path d="m16.695 48.658c-1.2391 0.22734-2.7461 0.14609-4.2406-0.075781" stroke="#fff" stroke-linecap="round" stroke-linejoin="round"/>
			<path d="m6.3066 15.747c1.9641-0.66719-2.2953-2.9305-2.5508-1.4094-0.25547 1.5211 0.875 1.9781 2.5508 1.4094z" stroke="#7ED2F1" stroke-linecap="round" stroke-linejoin="round"/>
			<path d="m7.1847 15.427s2.4422 0.33359 3.6633 1.5547" stroke="#7ED2F1" stroke-linecap="round" stroke-linejoin="round"/>
			<path d="m2.5216 9.766l12.212-8.3258" stroke="#7ED2F1" stroke-linecap="round" stroke-linejoin="round"/>
			<path d="m12.734 9.5821c0.54375 0.046875 0.99766-0.13281 0.99766-0.13281" stroke="#005081" stroke-linecap="round" stroke-linejoin="round"/>
			<path d="m12.207 7.0251c-0.18984 0.035156-0.37188-0.090625-0.40703-0.27969l-0.10625-0.58125c-0.035156-0.18984 0.090625-0.37188 0.28047-0.40703 0.18906-0.034375 0.37109 0.091406 0.40625 0.28047l0.10625 0.58125c0.035156 0.18984-0.089844 0.37188-0.27969 0.40625" fill="#005081"/>
			<polygon points="49.731 29.116 44.992 29.116 44.211 18.356 49.731 18.356" fill="#C7D6E1"/>
			<g transform="translate(54.625 27.268)">
				<path d="m0.046953 0.34164c2.3688-0.29609 8.7336 7.6977 9.918 10.806 1.1836 3.1078-6.5133 4.8844-6.5133 4.8844" fill="#C7D6E1"/>
				<path d="m0.046953 0.34164c2.3688-0.29609 8.7336 7.6977 9.918 10.806 1.1836 3.1078-6.5133 4.8844-6.5133 4.8844" stroke="#005081" stroke-linecap="round" stroke-linejoin="round"/>
			</g>
			<g transform="translate(51.5 64.768)">
				<path d="m11.474 1.43s4.4828 8.5453 3.8367 16.627l-0.73984 2.1477-14.159-19.505" fill="#C7D6E1"/>
				<path d="m11.474 1.43s4.4828 8.5453 3.8367 16.627l-0.73984 2.1477-14.159-19.505" stroke="#005081" stroke-linecap="round" stroke-linejoin="round"/>
			</g>
			<g transform="translate(45.25 62.424)">
				<path d="m0.68859 2.2684s0.99922 20.205 2.1094 23.647l4.2188-0.11094c0.22188-7.1055 2.6641-16.209 2.8859-25.312" fill="#C7D6E1"/>
				<path d="m0.68859 2.2684s0.99922 20.205 2.1094 23.647l4.2188-0.11094c0.22188-7.1055 2.6641-16.209 2.8859-25.312" stroke="#005081" stroke-linecap="round" stroke-linejoin="round"/>
			</g>
			<g transform="translate(43.688 23.361)">
				<path d="m0.56688 0.18984c1.0242 0.24766 2.1664-0.088281 2.1664-0.088281 0.067188-0.0023438 0.1 0.071094 0.048438 0.10859l-1.7867 1.8992-0.47188-2.0336" fill="#005081"/>
				<path d="m0.56688 0.18984c1.0242 0.24766 2.1664-0.088281 2.1664-0.088281 0.067188-0.0023438 0.1 0.071094 0.048438 0.10859l-1.7867 1.8992-0.47188-2.0336" stroke="#005081" stroke-width=".876"/>
			</g>
			<g transform="translate(38.219 10.861)">
				<path d="m7.2541 0.44086c-2.4008-0.11562-4.6078 1.0289-4.9609 3.1719-0.31406 1.9094-1.8914 2.2891-1.9375 3.25-0.035938 0.74219 1.2312 0.86328 1.3906 1.5305 0.56328 2.3539 2.3023 4.0969 4.9219 4.2227 0.63672 0.030469 0.92812 0.034375 1.5141-0.11875" fill="#C7D6E1"/>
				<path d="m7.2541 0.44086c-2.4008-0.11562-4.6078 1.0289-4.9609 3.1719-0.31406 1.9094-1.8914 2.2891-1.9375 3.25-0.035938 0.74219 1.2312 0.86328 1.3906 1.5305 0.56328 2.3539 2.3023 4.0969 4.9219 4.2227 0.63672 0.030469 0.92812 0.034375 1.5141-0.11875" stroke="#005081" stroke-linecap="round" stroke-linejoin="round"/>
			</g>
			<path d="m41.693 19.76c-0.32188 0.75156-1.1273 1.0742-1.1273 1.0742" stroke="#005081" stroke-linecap="round" stroke-linejoin="round"/>
			<path d="m41.344 17.343c0.19297 0 0.34922-0.15625 0.34922-0.34922v-0.59062c0-0.19297-0.15625-0.34922-0.34922-0.34922-0.19297 0-0.34922 0.15625-0.34922 0.34922v0.59062c0 0.19297 0.15625 0.34922 0.34922 0.34922" fill="#005081"/>
			<path d="m44.495 26.166c6.5312-2.0719 9.3336-0.56641 11.823 3.2195 4.0523 6.1617 1.7391 7.6977 3.2195 13.323 1.4797 5.625 4.9406 8.0516 4.2742 24.094h-18.762s-1.7758-18.488-1.2211-23.872" fill="#07A8DC"/>
			<path d="m63.903 82.722s4.3562 7.6516 5.8195 7.3336c0.87969-0.19141-0.51562-3.9125-0.97969-5.657-0.32344-1.2156-0.59375-2.0148-1.8453-1.8883l-2.9945 0.21172z" fill="#07A8DC"/>
			<g transform="translate(31.188 23.361)">
				<path d="m9.4967 9.577s-1.2883-0.94609-2.2797-2.6898c-1.5-2.6406-5.2891-7.1617-6.232-5.9695-0.94375 1.1914 0.725 5.3578 2.1461 6.0688 1.0359 3.3305 6.4016 14.612 9.6211 13.717 3.2195-0.89453 5.7727-17.996 1.332-17.773-4.4406 0.22344-4.7734 10.049-4.7734 10.049" fill="#C7D6E1"/>
				<path d="m9.4967 9.577s-1.2883-0.94609-2.2797-2.6898c-1.5-2.6406-5.2891-7.1617-6.232-5.9695-0.94375 1.1914 0.725 5.3578 2.1461 6.0688 1.0359 3.3305 6.4016 14.612 9.6211 13.717 3.2195-0.89453 5.7727-17.996 1.332-17.773-4.4406 0.22344-4.7734 10.049-4.7734 10.049" stroke="#005081" stroke-linecap="round" stroke-linejoin="round"/>
			</g>
			<path d="m56.378 22.009c-0.47031-0.7625-1.0438-1.4047-1.6711-1.9109-0.56797-0.45938-0.94844-1.0992-1.0578-1.8211-0.15156-0.99922-0.50078-1.9672-0.97578-2.6578-0.65859-0.95781-1.7914-1.6961-2.9734-2-1.0734-1.9047-2.0422-2.1844-3.3914-2.5891-2.2203-0.66641-4.293 0.59219-4.293 0.59219-0.29531 2.4625 0.67344 5.2297 2.9805 5.3852-0.40078 1.8773 0.68359 4.4492 2.7766 5.0625-0.22344 1.4156 0.11016 3.0859 1.0484 4.6047 1.7203 2.7875 4.807 4.0023 6.8945 2.7148 2.0867-1.2891 2.3836-4.593 0.6625-7.3805" fill="#005081"/>
			<path d="m33.649 27.959l-2.4422-6.9469c-0.1375-0.39062 0.067188-0.81797 0.45781-0.95547l3.3516-1.1789c0.39062-0.13672 0.81797 0.06875 0.95547 0.45859l2.443 6.9469c0.13672 0.39062-0.067969 0.81875-0.45859 0.95625l-3.3516 1.1781c-0.38984 0.1375-0.81797-0.067969-0.95547-0.45859" fill="#00A9DE"/>
			<polygon points="37.563 25.818 34.022 27.063 31.895 21.015 35.436 19.771" fill="#fff"/>
			<polygon points="35.429 19.751 31.888 20.996 32.185 21.837 35.724 20.592" fill="#004F84"/>
			<g transform="translate(34.312 26.486)">
				<path d="m1.6232 1.5452s-0.65078-1.5727-0.90625-1.3344c-0.55234 0.51641 0.11484 2.6719 0.11484 2.6719" fill="#C7D6E1"/>
				<path d="m1.6232 1.5452s-0.65078-1.5727-0.90625-1.3344c-0.55234 0.51641 0.11484 2.6719 0.11484 2.6719" stroke="#005081" stroke-linecap="round" stroke-linejoin="round"/>
			</g>
		</g>
	</g>
</svg>
