
<svg width="125px" height="77px" viewBox="0 0 125 77" version="1.1" xmlns="http://www.w3.org/2000/svg" xmlns:xlink="http://www.w3.org/1999/xlink">
    <!-- Generator: Sketch 49 (51002) - http://www.bohemiancoding.com/sketch -->
    <desc>Created with Sketch.</desc>
    <defs>
        <polygon id="path-1" points="0 0.1204 124.981374 0.1204 124.981374 1.9734 0 1.9734"></polygon>
    </defs>
    <g id="Stats" stroke="none" stroke-width="1" fill="none" fill-rule="evenodd">
        <g id="Stats@2x" transform="translate(-225.000000, -3370.000000)">
            <g id="Insight-3" transform="translate(-1.000000, 3344.000000)">
                <g id="Illustration" transform="translate(226.000000, 26.000000)">
                    <path d="M39.3671329,26.1130974 C39.3776224,26.5463073 39.2567988,26.9344148 39.2400932,27.3638346 C39.2198912,27.8895233 39.2447552,28.4265822 39.2447552,28.9537869 C39.2447552,29.66178 39.1519037,30.4580827 39.2400932,31.1615276 C39.2672883,31.3779431 39.3461538,31.5556993 39.3702409,31.7740098 C39.4013209,32.0578893 39.3255633,32.3436638 39.3943279,32.6252692 C39.45338,32.8632883 39.494561,33.0042805 39.4895105,33.2718624 C39.483683,33.6296491 39.5944056,33.9195927 39.6188811,34.267525 C39.6468531,34.6624548 39.6247086,35.0122822 39.6989122,35.40797 C39.8018648,35.9605684 39.9778555,36.4460819 40.1639472,36.9706335 C40.3181818,37.4064964 40.4250194,37.9325641 40.7140637,38.2797384 C41.0940171,38.736068 41.7505828,38.9763612 42.2556333,39.1851964 C43.3601399,39.641905 44.5920746,39.9094869 45.7700078,39.9519362 C46.501554,39.9777089 47.4351204,40.1410628 48.0652681,39.6684357 C48.4366744,39.3898625 48.8729604,39.2556925 49.2533023,38.9937957 C49.6441336,38.7246977 49.8135198,38.3142285 49.9809635,37.863584 C50.1157731,37.5023863 50.2618493,37.3322102 50.2723388,36.9399336 C50.2859363,36.4464609 51,35.3780281 51,34.8841764 C51,34.2500905 50.1810412,34.0928008 50.2975913,33.4753915 C50.3861694,33.0027644 50.3916084,32.5627323 50.3927739,32.0685016 C50.3931624,31.8327566 50.4129759,31.5981486 50.3655789,31.3692258 C50.3434343,31.2631026 50.2824398,31.1774461 50.2637918,31.0614686 C50.2354312,30.8803013 50.2972028,30.6870055 50.2785548,30.5054591 C50.2109557,29.8406733 49.2404817,29.4093585 48.7428127,29.2357713 C48.3216783,29.0887149 47.8725719,29.0511928 47.4436674,28.9382475 C46.8605284,28.7851269 46.3010878,28.5273992 45.7307692,28.3250072 C44.533411,27.8993776 43.3278943,27.2474782 42.4296814,26.2480254 C42.2059052,25.999394 41.9393939,25.9110844 41.6911422,25.6980801 C41.4514375,25.4922769 41.1693862,25.2849578 40.8710179,25.1723914 C40.2789433,24.9487748 39.6157731,25.0067635 39,25.0067635" id="Fill-1" fill="#4E748F"></path>
                    <path d="M43.5600818,6.36756515 C44.2461718,5.57360122 45.9947167,6.30341809 46.8262032,6.36756515 C47.9257646,6.45245437 49.2101008,6.65373018 50.2699053,6.93759053 C51.094955,7.15884028 51.1237314,5.70842528 51.3724958,6.59342426 C51.4974459,7.0370761 52.5356681,9.72779565 52.5572504,10.1818186 C52.5811045,10.6911539 52.799578,11.0963943 52.8442572,11.6057297 C52.9377805,12.6854745 55.2266402,19.3709811 54.9816621,20.4983561 C54.9078279,20.8371448 54.9676526,21.9518441 54.9176725,22.2952421 C54.8317219,22.8875461 55.0418654,23.6188994 54.890032,24.2311774 C54.0025072,27.8111212 51.0207421,30.7453691 50.4936796,30.8959418 C49.8931616,31.068025 46.680428,30.9746852 46.059085,30.9750693 C44.3256855,30.9766058 43.0485435,30.0635665 41.3446777,29.7754809 C40.4916089,29.631054 39.6324819,28.5662896 38.9789547,28.0212316 C37.917257,27.1362326 37.1039451,25.2890277 36.9430244,23.7210738 C36.7139491,21.4851454 37.8294133,20.0416444 37.8305492,17.7911197 C37.8309278,16.5796237 34.0551612,12.0755013 35.2247704,12.6685735 C35.7147265,12.9174795 38.4549213,13.208638 38.5882015,12.6639641 C38.716938,12.138496 38.6900548,11.5500331 38.9710033,11.0656652 C39.5904532,9.99744378 40.9611186,9.02102563 41.923992,8.29082465 C42.3874435,7.9389761 42.994777,7.74230966 43.5135095,7.46152222 C44.0844939,7.15192622 44.5880809,7.20262929 45.1969289,6.92107362 L43.5600818,6.36756515 Z" id="Fill-3" fill="#4E748F"></path>
                    <path d="M68.8422544,61.0363502 C68.8422544,47.5829614 61.4128573,36.8200197 51.0588332,35 C49.5569873,39.9858394 41.4950725,40.1441689 39.7564162,35.2374941 L39.6773515,35 C28.1377404,37.3741727 20.0758256,48.216279 18.8906224,60.7196914 C17.1515823,78.6839315 18.4952988,75.8347706 18.4952988,75.8347706 L69,75.8347706" id="Fill-33" fill="#0084C0"></path>
                    <path d="M50.7163732,31.0902501 C50.8739916,31.5588242 50.8739916,32.1059365 50.8739916,32.5745105 C50.8739916,33.043464 50.8739916,33.5905763 50.9528008,33.9809915 C51.03161,34.3714066 51.267655,34.6844216 51.5832743,34.9188983 C51.7405101,34.9966778 51.8981285,35.0748367 52.1345561,35.1529957 C52.3706011,35.2311546 52.6858378,35.3093135 52.922648,35.3874724 C54.89173,36.0909025 56.5463404,37.1843684 58.2005682,38.3563726 C59.7763695,39.5283768 61.2733615,40.8566988 62.6911618,42.3409592 C64.0305354,43.825599 65.2122907,45.4665567 66,47.3416116 C66,47.4197705 66,47.4979294 65.9211908,47.4979294 C65.8423816,47.4979294 65.7635724,47.4979294 65.7635724,47.4197705 C64.6606264,45.7791923 63.4788711,44.2945525 62.1394974,42.8099127 C60.8005064,41.4038112 59.3035143,40.0754891 57.7280957,38.9816439 C56.9403864,38.4345315 56.1522945,37.8877986 55.2857759,37.4188451 C54.4192574,36.9498917 53.5523564,36.4813177 52.6858378,36.168682 C52.4494103,36.0909025 52.2133653,36.0127436 52.0557469,35.9345847 C51.7405101,35.8564258 51.5044651,35.7778875 51.267655,35.6215697 C50.7951824,35.3093135 50.4015191,34.7625805 50.2439007,34.2154682 C50.1650915,33.9028325 50.1650915,33.5905763 50.1650915,33.3560996 L50.1650915,32.6526694 C50.1650915,32.1840954 50.0862823,31.6369831 50.3227099,31.168409 C50.4015191,31.0120912 50.5587549,30.9339323 50.7163732,31.0902501 C50.6375641,30.9339323 50.6375641,31.0120912 50.7163732,31.0902501 M33.3844727,53.2794121 C33.4628993,54.217319 33.3056635,55.0766875 33.3056635,56.014215 L33.0692359,58.7486385 L32.5967634,64.139706 L32.0450991,69.5307736 C31.8874807,71.328049 31.6510531,73.1249451 31.2573897,74.9218411 C31.2573897,75 31.1785805,75 31.0997714,75 C31.0209622,75 31.0209622,74.9218411 31.0209622,74.8436822 C30.942153,73.0467861 31.0997714,71.2498901 31.2573897,69.4526147 L31.7298623,64.0615471 L32.2027174,58.6704796 L32.439145,55.9360561 C32.5179542,55.0766875 32.5967634,54.1391601 32.8328084,53.2794121 C32.9116176,53.1230943 32.9904268,53.0453148 33.1480451,53.1230943 C33.2268543,53.1230943 33.3056635,53.2012532 33.3844727,53.2794121" id="Fill-35" fill="#004F81"></path>
                    <path d="M52.1674123,9.2365539 C53.1116082,11.0493682 53.6622299,13.0987365 54.1341368,15.0692534 C54.6068079,17.0401531 54.9212852,19.0891386 55,21.2177409 C55,23.2667263 54.6855228,25.4741799 53.5835151,27.2869943 C53.0328934,28.2328271 52.2461271,29.0213401 51.380264,29.6517677 C50.4360681,30.2821953 49.4131574,30.5976005 48.3902466,30.8341544 C46.2657103,31.2280281 44.0624592,30.9130057 42.1740674,29.9671729 C40.2852935,29.1001914 38.5543314,27.760102 37.1378465,26.2623101 C34.226544,23.2667263 32.2590552,19.5626291 31,15.7000638 C31,15.6212125 31,15.5423612 31.0790969,15.5423612 C31.1578118,15.5423612 31.2365266,15.5423612 31.2365266,15.6212125 C32.9674887,19.3256925 34.9345954,22.8728526 37.767183,25.7892023 C39.1836679,27.208143 40.7575825,28.469381 42.5672595,29.257894 C44.3769364,30.0456414 46.3444252,30.3610466 48.232817,29.9671729 C49.177395,29.730619 50.1215909,29.4152138 50.9083571,28.8632547 C51.6951233,28.3116784 52.4031747,27.6020167 52.8754637,26.8142692 C53.8983744,25.1587747 54.2132338,23.1094065 54.2132338,21.1388896 C54.2132338,19.1679899 53.8983744,17.1190044 53.4264675,15.1481047 C52.9541785,13.1775878 52.245745,11.2859221 51.6951233,9.31502242 C51.6167906,9.1577026 51.6951233,9 51.852553,9 C52.0099826,9.0788513 52.0886975,9.0788513 52.1674123,9.2365539" id="Fill-37" fill="#004F81"></path>
                    <path d="M48.2537518,17.1651054 C48.6499001,17.8017187 48.9671267,18.5183436 49.2843533,19.1545704 C49.5222732,19.8711953 49.8391148,20.5874336 49.9977281,21.3040585 C49.9977281,21.4633085 49.9184215,21.6221719 49.7598082,21.6221719 C49.6011949,21.6221719 49.5222732,21.6221719 49.4429666,21.4633085 C49.0464333,20.8266951 48.8085134,20.1100702 48.4912868,19.3938319 C48.2537518,18.677207 48.0158319,17.9609687 47.8572186,17.2447304 C47.8572186,17.1651054 47.9365252,17.0058554 48.0158319,17.0058554 C48.0951385,17.0854804 48.1744452,17.0854804 48.2537518,17.1651054 M40.4840101,3.31499625 C46.8266171,0.767769773 52.3761576,2.20063298 51.9800094,5.22522284 C51.6623978,7.85207431 38.898647,8.72756262 37.3922057,12.3891524 C36.4409109,14.7771289 37.8680456,18.3590936 39.0572603,20.6674451 C39.7706352,22.0206834 39.4537936,23.61241 38.4231921,24.6471483 L37.312899,26 C30.2573021,18.995707 23.9146951,9.92155087 40.4840101,3.31499625" id="Fill-39" fill="#004F81"></path>
                    <path d="M44.5793945,20.9388118 C44.9815546,20.7752132 45.2230852,20.2848146 45.0620648,19.875421 L44.5793945,18.6488287 C44.4183741,18.2402293 43.9357038,17.9948314 43.5331528,18.15843 C43.1306019,18.3220286 42.8894622,18.8128243 43.0504825,19.2214237 L43.5331528,20.4484132 C43.6941732,20.9388118 44.1772344,21.1020133 44.5793945,20.9388118 M52.4666572,17.8316299 C52.8692081,17.6680313 53.1103478,17.1772355 52.9497183,16.7682391 L52.4666572,15.5416467 C52.3060276,15.1330473 51.8225757,14.8876495 51.4204155,15.051248 C51.0182554,15.2148466 50.776334,15.7052453 50.9377452,16.1142418 L51.4204155,17.340437 C51.5814359,17.7498306 52.0641062,17.9948314 52.4666572,17.8316299" id="Fill-41" fill="#004F84"></path>
                    <path d="M50.167764,24.3013073 C50.0866964,24.5845374 49.8438873,24.7966161 49.5196171,25.0093824 C49.1953468,25.2218049 48.7089415,25.3630762 48.3850648,25.3630762 C48.1418621,25.3630762 47.8986595,25.2922687 47.6554568,25.1509974 C47.4933217,25.0093824 47.2505125,25.0801899 47.0883774,25.2214612 C46.9262423,25.3630762 47.0073099,25.5754987 47.169445,25.7171137 C47.4933217,25.9291925 47.979727,26 48.3850648,26 C48.9521442,26 49.5196171,25.858385 50.0056289,25.5754987 C50.4916407,25.2922687 50.8159109,24.9385749 50.9784396,24.4429223 C51.0595071,24.2304998 50.897372,24.0892285 50.7348434,24.018421 C50.5727083,23.9476135 50.2488316,24.0892285 50.167764,24.3013073" id="Fill-43" fill="#004F81"></path>
                    <path d="M49.2804659,12.9580906 C49.5197037,12.6254895 49.8383005,12.4595926 50.0779254,12.2932921 C50.3965222,12.1265879 50.715506,12.0434376 50.9543567,12.0434376 C51.5923244,11.9602874 52.2299049,11.9602874 52.8678726,12.3764424 C53.0273645,12.4595926 53.0273645,12.6254895 52.9476185,12.7917901 C52.8678726,12.8749403 52.7881266,12.9580906 52.6286347,12.8749403 C52.3893968,12.7917901 52.150159,12.7917901 51.9113082,12.7917901 C51.6720703,12.7917901 51.3530865,12.7917901 51.1138486,12.8749403 C50.8746108,12.9580906 50.5560141,12.9580906 50.3167762,13.0412409 C50.0779254,13.1243911 49.8383005,13.2075414 49.6788085,13.290288 L49.5990626,13.3734383 C49.4399578,13.4565886 49.2804659,13.3734383 49.2804659,13.290288 L49.2804659,12.9580906 Z M42.9824709,16.1165899 C42.822979,16.1165899 42.5841282,16.2828904 42.3448904,16.3660407 C42.1060396,16.449191 41.8668017,16.6154915 41.6271768,16.7817921 C41.388326,16.9480926 41.2288341,17.1139895 40.9895962,17.28029 C40.8304914,17.4465906 40.5912536,17.6128911 40.5115076,17.8619383 C40.4317616,18.0286425 40.2722697,18.0286425 40.1127778,17.9450885 C40.0330319,17.8619383 39.9532859,17.778788 40.0330319,17.6128911 C40.1925238,16.8649423 40.7507455,16.4487873 41.2288341,16.0334396 C41.468072,15.8671391 41.7870558,15.7012422 42.1060396,15.6180919 C42.4246363,15.5349417 42.7436201,15.4517914 43.1423499,15.5349417 C43.3018418,15.5349417 43.3815878,15.7012422 43.3018418,15.8671391 C43.2220959,15.9502894 43.1423499,16.0334396 42.9824709,16.1165899 Z" id="Fill-45" fill="#004F81"></path>
                    <path d="M53,4.92137468 C46.6697503,-5.924753 25.5434305,2.67464993 30.8450866,16" id="Fill-47" fill="#00A9DE"></path>
                    <path d="M39.7349851,33.0860218 C39.7349851,33.7522089 39.8162537,34.4188005 39.8162537,35.1683116 L39.8162537,35.0016637 C39.9795837,35.335364 40.1429138,35.7515793 40.3062438,36.1677946 C40.4695738,36.5010904 40.7145689,36.9177102 40.9595639,37.167682 C41.2041625,37.5005733 41.5308226,37.7505452 41.8574827,38.0005171 C42.1841427,38.2504889 42.5104063,38.5004608 42.9187314,38.6671087 C43,38.7500281 43,38.8333521 43,38.916676 C43,39 42.9187314,39 42.8370664,39 C42.3470763,38.916676 41.9391477,38.8333521 41.5308226,38.5837847 C41.1224975,38.3338129 40.7145689,38.0834365 40.3879088,37.6672212 C40.0612488,37.3343299 39.8162537,36.9177102 39.5716551,36.5010904 C39.3266601,36.0848751 39.1637265,35.6682553 39,35.1683116 L39,35.0016637 C39,34.3354766 39,33.668885 39.0820614,32.9197784 C39.1637265,32.2531867 39.3266601,30.920408 39.4083251,31.0037319 C39.4083251,31.0037319 39.6533201,32.3361062 39.7349851,33.0860218" id="Fill-49" fill="#004F81"></path>
                    <path d="M88.8989402,4.37003877 C88.7978804,4.07410368 88.4947011,3.97529877 88.1920123,4.07410368 L85.9691876,5.1599984 L83.7468534,4.07410368 C83.5447339,3.97529877 83.4436741,3.97529877 83.2415545,4.07410368 C83.0394349,4.17290859 82.9388657,4.46884368 83.0394349,4.7652584 L84.150602,7.03729166 C83.7468534,7.82725129 83.4436741,8.61721092 83.1404947,9.40765019 L83.1404947,9.50645509 C83.0394349,9.60526 83.0394349,9.70406491 83.1404947,9.80239018 C83.2415545,9.90119509 83.4436741,10 83.6457937,9.90119509 C84.4537814,9.50645509 85.1611999,9.01243055 85.9691876,8.51840601 C86.8787256,9.01243055 87.5856536,9.40765019 88.3941319,10 L88.6968206,10 C88.8989402,9.90119509 89,9.70358528 88.8989402,9.50645509 C88.4951916,8.71649546 88.1920123,7.9260562 87.8883424,7.13609657 C88.2930721,6.3456573 88.5957609,5.55569767 89,4.86406331 C89,4.6664535 89,4.56764859 88.8989402,4.37003877" id="Fill-51" fill="#D5E5EB"></path>
                    <path d="M80.9286081,18.771398 C80.8329544,18.4827113 80.6416472,18.4827113 80.5459936,18.3864824 C80.2590328,18.2907206 80.1638436,18.2907206 79.972072,18.1944918 L77.964275,17.4246606 C77.5816606,17.3284317 77.3903534,17.2322028 77.1995105,17.039745 C77.0082033,16.8472872 76.8168961,16.5590677 76.7207782,16.3666099 L76.0516673,14.3462703 L75.8603601,13.8651258 C75.7651708,13.6731351 75.7651708,13.4806773 75.47821,13.1919907 C75.3825564,13.0957618 75.2869028,13.0957618 75.0951312,13 C74.999942,13 74.7129811,13 74.6173275,13.0957618 C74.3303667,13.1919907 74.3303667,13.3844484 74.2351775,13.4806773 C74.1395239,13.769364 74.1395239,13.8651258 74.0438703,14.0575836 L73.374295,16.0774561 C73.2786414,16.4628388 73.1829878,16.6552966 72.9916806,16.8472872 C72.8003734,17.039745 72.5138769,17.2322028 72.3225697,17.3284317 L70.3147727,18.0982629 L69.8365047,18.2902535 C69.7408511,18.2902535 69.5495439,18.3864824 69.2625831,18.5789402 C69.1669295,18.6751691 69.0717402,18.771398 69.0717402,18.8676269 C68.9760866,18.9638558 68.9760866,19.1558464 69.0717402,19.2520753 C69.1669295,19.4445331 69.3582367,19.4445331 69.4538903,19.540762 C69.7408511,19.637458 69.8365047,19.637458 70.0273476,19.7336869 L72.0360732,20.3105932 C72.3225697,20.4068221 72.6095305,20.5030509 72.896027,20.6950416 C73.1829878,20.8874994 73.374295,21.1761861 73.5656022,21.4648728 L74.1395239,23.6772031 L74.3303667,24.1583475 C74.4260203,24.2541093 74.4260203,24.542796 74.6173275,24.7357209 C74.7129811,24.8319498 74.8086347,24.9281787 74.9042884,24.9281787 C74.999942,25.0239404 75.1912492,25.0239404 75.2869028,24.9281787 C75.47821,24.7357209 75.47821,24.639492 75.5738636,24.542796 C75.6695172,24.2541093 75.6695172,24.1583475 75.7651708,23.9658897 L76.5294709,21.9460172 C76.6251245,21.5611016 76.7207782,21.3686439 76.9125497,21.1761861 C77.1038569,20.9837283 77.3903534,20.7912705 77.5816606,20.6950416 L79.5894576,20.0219065 L80.0677256,19.8294487 C80.2590328,19.8294487 80.45034,19.8294487 80.7373008,19.540762 C80.8329544,19.540762 80.8329544,19.4445331 80.9286081,19.2520753 C81.0237973,19.1558464 81.0237973,18.8676269 80.9286081,18.771398" id="Fill-53" fill="#D5E5EB"></path>
                    <path d="M96.9581221,24.8477818 C96.9022849,24.6551967 96.7906106,24.6551967 96.7351996,24.5914917 C96.5676881,24.5272967 96.5118509,24.5272967 96.4001766,24.4631016 L95.2288746,23.9500314 C95.0059521,23.8858364 94.8942778,23.8216413 94.7830296,23.6937413 C94.6713553,23.5653512 94.5596809,23.3727661 94.5038438,23.2448661 L94.1134098,21.8977504 L94.0017354,21.5772653 C93.9463245,21.4488752 93.9463245,21.3209752 93.7788129,21.1283901 C93.7229758,21.064195 93.6671386,21.064195 93.5558905,21 C93.5000533,21 93.3325417,21 93.2767046,21.064195 C93.1096193,21.1283901 93.1096193,21.2567801 93.0537821,21.3209752 C92.9979449,21.5130702 92.9979449,21.5772653 92.9421077,21.7056553 L92.5516737,23.052281 C92.4958366,23.3085711 92.4399994,23.4369611 92.3287513,23.5653512 C92.2170769,23.6937413 92.0495654,23.8216413 91.9383173,23.8858364 L90.7670153,24.3989066 L90.4878294,24.5272967 C90.4319922,24.5272967 90.3207441,24.5914917 90.1532326,24.7193917 C90.0973954,24.7835868 90.0415582,24.8477818 90.0415582,24.9119768 C89.9861473,24.9761719 89.9861473,25.1040719 90.0415582,25.1682669 C90.0973954,25.296657 90.2090697,25.296657 90.2649069,25.3608521 C90.4319922,25.4250471 90.4878294,25.4250471 90.5995037,25.4892421 L91.7708057,25.8739223 C91.9383173,25.9381173 92.1054026,26.0018223 92.2729141,26.1302124 C92.4399994,26.2586025 92.5516737,26.4506975 92.6633481,26.6432826 L92.9979449,28.1182983 L93.1096193,28.4387835 C93.1654565,28.5029785 93.1654565,28.6955636 93.2767046,28.8234637 C93.3325417,28.8876587 93.3883789,28.9518537 93.4442161,28.9518537 C93.5000533,29.0160488 93.6113014,29.0160488 93.6671386,28.9518537 C93.7788129,28.8234637 93.7788129,28.7592686 93.8346501,28.6955636 C93.8904873,28.5029785 93.8904873,28.4387835 93.9463245,28.3103934 L94.3921694,26.9637678 C94.4480066,26.7074777 94.5038438,26.5790876 94.6155181,26.4506975 C94.7271925,26.3227975 94.8942778,26.1944074 95.0059521,26.1302124 L96.1772541,25.6813372 L96.4560138,25.5529471 C96.5676881,25.5529471 96.6793625,25.5529471 96.8464478,25.3608521 C96.9022849,25.3608521 96.9022849,25.296657 96.9581221,25.1682669 C97.0139593,25.1040719 97.0139593,24.9119768 96.9581221,24.8477818" id="Fill-55" fill="#D5E5EB"></path>
                    <path d="M58,3.08066697 C57.9220691,3.00347647 57.9220691,2.92628597 57.8441383,2.92628597 C57.4548623,2.77190498 57.0648297,2.54033348 56.6755537,2.38595249 C56.2862778,2.23157149 55.8962452,2.0771905 55.4290383,2.0771905 L54.8059698,2 C54.6501081,2 54.4163155,2.0771905 54.1825229,2.0771905 C54.0266612,2.0771905 53.793247,2.154381 53.5594544,2.154381 L52.9360075,2.30876199 C51.2222853,2.77190498 49.7419773,3.54343524 48.3399785,4.4693465 C46.9376014,5.39563247 45.6131551,6.39835952 44.3666397,7.47865177 C43.1201243,8.55894403 41.9515398,9.71642678 40.8608861,10.9511 L40.7829552,11.0282905 L36.9658564,12.9573035 C34.6286874,14.1147863 32.3694491,15.2722691 30.1102109,16.5069423 C30.03228,16.5841328 29.9543492,16.6613233 30.03228,16.8157043 C30.03228,16.9697106 30.1881417,17.0469011 30.3440034,16.9697106 C32.6811725,15.889793 34.9404108,14.8095008 37.2775799,13.652018 L44.2111563,10.2567603 L51.0664236,6.86150251 C53.247731,5.70401975 55.5069692,4.6237275 57.6103457,3.38905425 L57.6882766,3.38905425 C57.7662074,3.38905425 58,3.31186375 58,3.23467325 L58,3.08066697 Z" id="Fill-57" fill="#74DCFC"></path>
                    <path d="M110.939552,44 L77.3911168,44 C75.3391884,44 73.6023516,45.4800268 73.3658412,47.5050878 L69.8925509,72.0403245 L52.526099,72.0403245 C51.1051204,72.0403245 50,73.1307711 50,74.5328819 L50,75 L69.4977281,75 L85.6800949,75 L111.25541,75 L114.965594,48.5955344 C115.281069,46.1812714 113.386687,44 110.939552,44" id="Fill-59" fill="#74DCFC"></path>
                    <g id="Group-63" transform="translate(0.000000, 75.000000)">
                        <mask id="mask-2" fill="white">
                            <use xlink:href="#path-1"></use>
                        </mask>
                        <g id="Clip-62"></g>
                        <path d="M124.888246,1.1499 C117.207866,1.5619 109.527486,1.6649 101.846881,1.8704 L36.9126582,1.9734 C21.5516727,1.8704 15.5003617,1.9734 0.13960217,1.3559 C0.0464737794,1.3559 -9.04159132e-05,1.1499 -9.04159132e-05,1.0474 C-9.04159132e-05,0.8414 0.0464737794,0.7384 0.13960217,0.7384 C15.5003617,0.1204 21.5516727,0.2234 36.9126582,0.1204 L101.846881,0.2234 C109.527486,0.3264 117.207866,0.4294 124.888246,0.9444 C124.93481,0.9444 124.981374,1.0474 124.981374,1.1499 C124.93481,1.0474 124.888246,1.1499 124.888246,1.1499" id="Fill-61" fill="#86A6BD" mask="url(#mask-2)"></path>
                    </g>
                </g>
            </g>
        </g>
    </g>
</svg>