
<svg width="130px" height="90px" viewBox="0 0 130 90" version="1.1" xmlns="http://www.w3.org/2000/svg" xmlns:xlink="http://www.w3.org/1999/xlink">
    <!-- Generator: Sketch 49 (51002) - http://www.bohemiancoding.com/sketch -->
    <desc>Created with Sketch.</desc>
    <defs></defs>
    <g id="Stats" stroke="none" stroke-width="1" fill="none" fill-rule="evenodd">
        <g id="Stats@2x" transform="translate(-208.000000, -2359.000000)">
            <g id="Insight-2" transform="translate(0.000000, 2343.000000)">
                <g id="Illustration" transform="translate(208.000000, 16.000000)">
                    <path d="M0.173516949,48.1641902 L56.7158051,48.1641902 L0.173516949,48.1641902 Z" id="Fill-1" fill="#FFFFFF"></path>
                    <g id="Group-80" transform="translate(0.000000, 0.228589)">
                        <path d="M0.173737288,47.7516258 C2.52971186,47.6229755 4.88568644,47.6682515 7.24166102,47.6533436 L14.3090339,47.6423006 L28.4448814,47.6307055 L42.580178,47.6538957 C47.2921271,47.655 52.0040763,47.6853681 56.7160254,47.8432822 C56.7661525,47.8454908 56.8063644,47.887454 56.8047119,47.9388037 C56.8030593,47.9873926 56.7633983,48.0260429 56.7160254,48.0276994 C52.0040763,48.1856135 47.2921271,48.2159816 42.580178,48.2170859 L28.4448814,48.2402761 L14.3090339,48.228681 L7.24166102,48.217638 C4.88568644,48.2027301 2.52971186,48.2480061 0.173737288,48.1193558 C0.0723813559,48.1138344 -0.00528813559,48.0271472 0.000771186441,47.925 C0.0051779661,47.831135 0.0817457627,47.7571472 0.173737288,47.7516258" id="Fill-2" fill="#C8D7E2"></path>
                        <path d="M114.362157,47.4733988 C115.881394,47.4618037 117.41275,47.8897178 118.700081,48.7251166 C119.985758,49.555546 121.020801,50.7995337 121.557877,52.2522331 C121.827792,52.9766503 121.976521,53.748 121.988089,54.5210061 L121.989191,56.6870798 L121.983682,61.0010061 C121.966606,66.7527239 122.021691,72.5044417 121.820081,78.2561595 C121.814021,78.426773 121.671903,78.5592883 121.502242,78.5532147 C121.340292,78.5476933 121.211945,78.4162822 121.205886,78.2561595 C121.004275,72.5044417 121.05936,66.7527239 121.042284,61.0010061 L121.036775,56.6870798 L121.030716,54.5403313 C121.019148,53.8749939 120.888047,53.2146258 120.653936,52.592908 C119.715843,50.0762209 117.062411,48.3794724 114.362157,48.3976933 C114.107665,48.3993497 113.899445,48.1939509 113.897792,47.9388589 C113.89614,47.6837669 114.101055,47.4750552 114.355547,47.4733988 L114.362157,47.4733988 Z" id="Fill-4" fill="#C8D7E2"></path>
                        <path d="M68.2028475,59.3855337 C68.2028475,45.2814847 74.0517458,36.3079877 80.568822,32.0774356 L89.0259831,50.3209325 L99.9895,32.1646748 C107.318525,36.6078037 112.580771,45.9103804 113.657678,59.0271902 C115.203907,77.8714233 112.199034,80.7343067 104.836958,80.3765153 C97.4748814,80.0187239 70.4635254,80.3765153 70.4635254,80.3765153" id="Fill-6" fill="#74DCFC"></path>
                        <path d="M95.2137076,61.8901288 C94.8567585,62.2479202 87.2407415,57.7153436 82.6009534,60.8167546 C82.6009534,60.8167546 78.6546822,63.3019693 82.2434534,65.7065706 C86.050911,64.6337485 89.6209534,66.6612331 92.5955297,68.0918466" id="Fill-8" fill="#FFFFFF"></path>
                        <path d="M93.0517415,80.5779387 L53.4336907,80.5779387 C52.7869958,80.5779387 52.262589,80.0528466 52.262589,79.4040736 C52.262589,78.7558528 52.7869958,78.2302086 53.4336907,78.2302086 L93.0517415,78.2302086 C93.6989873,78.2302086 94.2228432,78.7558528 94.2228432,79.4040736 C94.2228432,80.0528466 93.6989873,80.5779387 93.0517415,80.5779387" id="Fill-10" fill="#00A9DE"></path>
                        <path d="M52.2626992,80.4976012 L52.2626992,57.8198098 C52.2626992,56.9264356 52.985411,56.2025706 53.8761314,56.2025706 L83.8058771,56.2025706 C84.6971483,56.2025706 85.4187585,56.9264356 85.4187585,57.8198098 L85.4187585,80.4976012" id="Fill-12" fill="#FFFFFF"></path>
                        <path d="M51.7118517,80.4976012 L51.67825,60.3883988 L51.6799025,57.8750245 C51.663928,57.3466196 51.8726992,56.7398098 52.2610466,56.331773 C52.6427839,55.9121411 53.1980381,55.6498712 53.7659619,55.6250245 L58.810072,55.6239202 L68.8410042,55.6322025 L78.8719364,55.6393804 L83.9149449,55.6482147 C84.4762585,55.6730613 85.0254534,55.9331227 85.4022331,56.3494417 C85.7856229,56.7530613 85.991089,57.351589 85.9745636,57.8750245 L85.972911,60.3883988 C85.9685042,67.0920184 85.9398602,73.7945337 85.7861737,80.4976012 C85.7817669,80.7007914 85.6137585,80.8620184 85.4110466,80.8570491 C85.2138432,80.853184 85.0568517,80.6930613 85.0518941,80.4976012 C84.8987585,73.7945337 84.8695636,67.0920184 84.8657076,60.3883988 L84.8635042,57.8750245 C84.8926992,57.2787055 84.4156653,56.7850859 83.8587585,56.7652086 L78.8719364,56.7652086 L68.8410042,56.7729387 L58.810072,56.7806687 L53.8238008,56.7878466 C53.2795636,56.8093804 52.8151992,57.2914049 52.8454958,57.8750245 L52.8471483,60.3883988 L52.8135466,80.4976012 C52.8129958,80.8029387 52.5662161,81.0491963 52.2615975,81.0486442 C51.9575297,81.048092 51.7113008,80.8029387 51.7118517,80.4976012" id="Fill-14" fill="#74DCFC"></path>
                        <path d="M86.1726483,40.1164785 C86.3395551,40.080589 86.4695551,40.1098528 86.5923941,40.1573374 L86.9625636,40.2915092 C87.2120975,40.3721227 87.4643856,40.4394847 87.7188771,40.4941472 C88.2278602,40.6062331 88.7473093,40.6382577 89.2667585,40.6399141 C89.7862076,40.6299755 90.308411,40.5775215 90.8273093,40.4753742 C91.3462076,40.3643926 91.8513347,40.2235951 92.4523093,40.2373988 C92.5354873,40.2379509 92.6021398,40.305865 92.601589,40.3886871 C92.6010381,40.4273374 92.5850636,40.4643313 92.5608263,40.4913865 C92.1383263,40.9408344 91.586928,41.1622454 91.023411,41.306908 C90.4598941,41.4620613 89.8737924,41.5586871 89.2805297,41.5664172 C88.6878178,41.5851902 88.0923517,41.5034724 87.5178178,41.3626748 C87.231928,41.2859264 86.9504449,41.1953742 86.6750212,41.0904663 C86.4100636,40.965681 86.1054449,40.9143313 85.9302754,40.6117546 C85.8382839,40.4538405 85.8911653,40.2517546 86.0487076,40.159546 C86.0790042,40.1418773 86.1115042,40.1297301 86.1434534,40.1225521 L86.1726483,40.1164785 Z" id="Fill-16" fill="#004F81"></path>
                        <path d="M94.6483729,30.5072393 L89.2048983,50.1432515 L90.8557881,55.2865031 C90.8557881,55.2865031 93.9339237,52.6030675 95.0945593,49.6054601 C96.8220169,45.1430061 95.8084576,41.8229448 95.8084576,41.8229448 C95.8084576,41.8229448 101.282229,37.5587117 101.02939,32.8776074 L94.6483729,30.5072393 Z" id="Fill-18" fill="#00A9DE"></path>
                        <path d="M77.3295085,34.6478466 C78.1772627,41.178092 82.8209068,43.9995644 82.8209068,43.9995644 C82.8209068,43.9995644 82.1246356,54.2568037 91.2879831,56.7618957 L83.6719661,30.2831227 C83.6719661,30.2831227 79.3825169,32.3669264 77.3295085,34.6478466" id="Fill-20" fill="#00A9DE"></path>
                        <path d="M77.7259534,10.659092 L77.3315466,26.2395828 C77.2847246,27.0793988 77.9451907,27.7894601 78.7846822,27.8027117 L87.7320975,27.6895215 C87.7320975,27.6895215 80.1017585,25.8994601 80.5776907,18.1186012 C80.9957839,11.285227 81.2320975,9.40019632 81.2320975,9.40019632" id="Fill-22" fill="#004F84"></path>
                        <path d="M80.1020339,9.53050307 C80.1020339,19.5492147 80.8159322,27.6017301 88.4308475,27.6017301 C96.0463136,27.6017301 96.7602119,16.329092 96.7602119,16.329092" id="Stroke-24" stroke="#004F81" stroke-width="1.5" stroke-linecap="round" stroke-linejoin="round"></path>
                        <path d="M77.6032797,12.4821166 C77.6032797,6.15892638 81.6613729,0.331564417 87.969678,0.331564417 C95.6892542,0.331564417 100.092178,6.15892638 100.092178,12.4821166 L77.6032797,12.4821166 Z" id="Fill-26" fill="#00A9DE"></path>
                        <path d="M85.1128729,29.2843436 C85.0737627,29.6211534 84.9399068,29.9590675 84.7256271,30.2467362 C84.6215169,30.3936074 84.4920678,30.5206012 84.3538051,30.6348957 C84.2838475,30.6917669 84.2094831,30.7425644 84.1334661,30.7900491 L84.0337627,30.8491288 C84.0266017,30.8529939 84.0221949,30.8596196 84.0166864,30.8640368 C83.9720678,30.9347117 83.953339,30.8982699 84.0745254,31.2764908 L84.3372797,32.1378405 L85.3871949,35.582135 C86.0807119,37.8801718 86.8039746,40.1693742 87.4705,42.4756933 L89.5047797,49.3836074 C90.1960932,51.6821963 90.8394831,53.9956933 91.2999915,56.3638528 C91.3148644,56.4389448 91.265839,56.5118282 91.1903729,56.5267362 C91.124822,56.5388834 91.0609237,56.5029939 91.0361356,56.443362 C90.1189746,54.212135 89.3846949,51.9267975 88.6977881,49.6265521 L86.5968559,42.7385153 C85.8857119,40.446 85.2313051,38.135816 84.5466017,35.8350184 L83.5291864,32.3807853 L83.2752458,31.5177791 C83.2421949,31.3609693 83.173339,31.2820123 83.1513051,30.9678405 C83.148,30.703362 83.2576186,30.4377791 83.4581271,30.2555706 C83.5088051,30.2108466 83.5627881,30.1699877 83.621178,30.1379632 L83.7170254,30.0855092 C83.7699068,30.0567975 83.8183814,30.0220123 83.8696102,29.9899877 C83.9698644,29.9231779 84.0591017,29.8431166 84.148339,29.7597423 C84.3213051,29.5891288 84.4590169,29.3771043 84.5818559,29.1363681 L84.5884661,29.1242209 C84.6589746,28.9872883 84.8269831,28.9331779 84.9635932,29.0038528 C85.0699068,29.0590675 85.1255424,29.1728098 85.1128729,29.2843436" id="Fill-28" fill="#004F81"></path>
                        <path d="M106.245199,69.6336626 C105.217869,69.1505337 104.306767,68.4918221 103.368674,67.8750736 L100.564309,66.0093681 L94.9550297,62.2768528 L95.6535042,62.037773 C95.2524873,63.2177117 94.8470636,64.3982025 94.4102415,65.5726196 C93.9673602,66.7448282 93.5118093,67.917589 92.913589,69.0516994 C92.6133771,69.6182025 92.2718517,70.1764233 91.8135466,70.6860552 C91.3579958,71.1708405 90.7057924,71.6959325 89.7836737,71.5567914 C89.5765551,71.5120675 89.4068941,71.3315153 89.3534619,71.2078344 C89.2824025,71.0725583 89.2609195,70.962681 89.2421907,70.8583252 C89.2113432,70.6545828 89.2140975,70.4767914 89.2245636,70.3056258 C89.2460466,69.9632945 89.2994788,69.6436012 89.3683347,69.3288773 C89.5016398,68.6988773 89.6872754,68.0992454 89.8999025,67.4974049 L89.9087161,67.4731104 C89.9615975,67.3229264 90.12575,67.2445215 90.2755805,67.2980798 L90.3053263,67.310227 C90.9768093,67.6393067 91.6383771,67.988816 92.2944364,68.3537853 C92.361089,68.3907791 92.3853263,68.4747055 92.3478686,68.5420675 C92.3153686,68.6011472 92.2459619,68.6270982 92.1848178,68.6066687 C91.4714703,68.375319 90.7641822,68.1285092 90.0668093,67.8607178 L90.4722331,67.6735399 C90.3306653,68.2648896 90.2094788,68.8733558 90.1130805,69.466362 C90.0701144,69.7634172 90.0315551,70.0610245 90.0232924,70.340411 C90.0183347,70.4795521 90.0249449,70.6153804 90.0447754,70.7186319 C90.0541398,70.7666687 90.0701144,70.8102883 90.075072,70.8119448 C90.0871907,70.8274049 90.042572,70.763908 89.9869364,70.752865 C89.9357076,70.7495521 90.0073178,70.7495521 90.0232924,70.7478957 L90.1053686,70.745135 C90.1604534,70.7396135 90.2166398,70.7561779 90.270072,70.730227 C90.3763856,70.6954417 90.4882076,70.6821902 90.5912161,70.6087546 C90.6440975,70.5783865 90.6980805,70.5535399 90.750411,70.5209632 L90.9018941,70.3961779 C91.0071059,70.3221902 91.0985466,70.2161779 91.1921907,70.1129264 C91.5618093,69.6943988 91.8763432,69.1842147 92.1517669,68.649184 C92.7053686,67.5769141 93.1454958,66.4201656 93.5701992,65.2617607 C93.9910466,64.1000429 94.3838008,62.9223129 94.77325,61.7423742 C94.8531229,61.4988773 95.1153263,61.366362 95.3576992,61.4469755 C95.3990127,61.460227 95.4381229,61.4806564 95.4717246,61.5032945 L101.047953,65.2849509 L103.835792,67.1766074 C104.761767,67.8121288 105.715284,68.4056871 106.552021,69.1748282 C106.665496,69.279184 106.672657,69.4558712 106.569097,69.5696135 C106.484818,69.6618221 106.352064,69.683908 106.245199,69.6336626" id="Fill-30" fill="#004F81"></path>
                        <path d="M101.074008,47.8713313 C101.456847,48.6609018 101.586297,49.512865 101.786805,50.3455031 L102.334898,52.857773 C102.678076,54.5368528 103.027864,56.2142761 103.315958,57.9032945 C103.617822,59.5895521 103.886636,61.2807791 104.137271,62.9747669 C104.395068,64.6676503 104.62422,66.3655031 104.615958,68.0964847 C104.615958,68.1737853 104.55261,68.2356258 104.476042,68.2350736 C104.413246,68.2350736 104.359814,68.191454 104.343288,68.1334785 C103.862398,66.4770368 103.575958,64.7946442 103.295025,63.1105951 L102.406508,58.0667301 C102.096381,56.3882025 101.80278,54.7074663 101.474475,53.0333558 L100.962737,50.5271595 C100.809051,49.6867914 100.537483,48.8767914 100.538034,47.9999816 L100.538034,47.9950123 C100.538034,47.8382025 100.664729,47.7123129 100.820068,47.7123129 C100.931339,47.7123129 101.028288,47.7769141 101.074008,47.8713313" id="Fill-32" fill="#004F81"></path>
                        <path d="M99.0750381,51.342184 C99.357072,51.3482577 99.4485127,51.5437178 99.6088093,51.6707117 L100.052242,52.0897914 C100.34364,52.3735951 100.643852,52.6480123 100.922581,52.943411 C101.210123,53.2316319 101.483894,53.5325521 101.754911,53.8362331 C102.033089,54.1332883 102.298047,54.4424908 102.408216,54.9062945 C102.429148,54.9929816 102.375165,55.080773 102.288682,55.1012025 C102.263343,55.1067239 102.236903,55.1061718 102.212665,55.1006503 C101.751055,54.9863558 101.444233,54.7180123 101.150631,54.4369693 C100.849869,54.1631043 100.55186,53.8859264 100.266521,53.5960491 C99.9740212,53.3139018 99.7030042,53.0102209 99.4215212,52.7170307 L99.0072839,52.2686871 C98.8822415,52.106908 98.6872415,52.0141472 98.6839364,51.7308957 C98.6806314,51.5188712 98.8502924,51.3449448 99.0618178,51.342184 C99.0651229,51.3416319 99.0711822,51.3416319 99.0750381,51.342184" id="Fill-34" fill="#004F81"></path>
                        <path d="M65.7159364,69.1883006 L19.4761483,69.1883006 C18.1039873,69.1883006 16.9923771,68.0740675 16.9923771,66.6992209 L16.9923771,36.3730859 C16.9923771,34.9987914 18.1039873,33.8845583 19.4761483,33.8845583 L63.2327161,33.8845583 C64.6043263,33.8845583 65.7159364,34.9987914 65.7159364,36.3730859 L65.7159364,69.1883006 Z" id="Fill-36" fill="#00A9DE"></path>
                        <path d="M93.0716822,75.7256687 L100.567614,80.7347485" id="Stroke-38" stroke="#FFFFFF" stroke-width="1.626" stroke-linecap="round" stroke-linejoin="round"></path>
                        <path d="M87.5072415,16.0306564 C87.6438517,16.6766687 87.6890212,17.322681 87.7121568,17.9686933 C87.7187669,18.2916994 87.7215212,18.6152577 87.7011398,18.9382638 C87.682411,19.2612699 87.6603771,19.5842761 87.6003347,19.9072822 C87.5694873,20.0729264 87.4102924,20.1828037 87.2444873,20.1518834 C87.1177924,20.1281411 87.0235975,20.0270982 87.0010127,19.9072822 C86.9409703,19.5842761 86.9189364,19.2612699 86.9002076,18.9382638 C86.8798263,18.6152577 86.8825805,18.2916994 86.8891907,17.9686933 C86.9123263,17.322681 86.9574958,16.6766687 87.0941059,16.0306564 C87.1183432,15.916362 87.2301653,15.8429264 87.3441907,15.8672209 C87.4284703,15.8848896 87.4907161,15.9511472 87.5072415,16.0306564" id="Fill-40" fill="#004F81"></path>
                        <path d="M83.6314237,17.964773 C83.2474831,17.964773 82.9357034,17.6528098 82.9357034,17.267411 L82.9357034,16.1736074 C82.9357034,15.7887607 83.2474831,15.4762454 83.6314237,15.4762454 C84.0153644,15.4762454 84.3271441,15.7887607 84.3271441,16.1736074 L84.3271441,17.267411 C84.3271441,17.6528098 84.0153644,17.964773 83.6314237,17.964773" id="Fill-42" fill="#004F84"></path>
                        <path d="M90.8107288,17.964773 C90.4267881,17.964773 90.1150085,17.6528098 90.1150085,17.267411 L90.1150085,16.1736074 C90.1150085,15.7887607 90.4267881,15.4762454 90.8107288,15.4762454 C91.1946695,15.4762454 91.5064492,15.7887607 91.5064492,16.1736074 L91.5064492,17.267411 C91.5064492,17.6528098 91.1946695,17.964773 90.8107288,17.964773" id="Fill-44" fill="#004F84"></path>
                        <path d="M85.9983602,21.6658712 C86.5844619,22.4626196 88.281072,22.5548282 88.8567076,21.6172822" id="Stroke-46" stroke="#004F81" stroke-width="1.5" stroke-linecap="round" stroke-linejoin="round"></path>
                        <path d="M47.4599703,80.4043436 L33.8953517,80.4043436 L33.8953517,56.4400491 C33.8953517,55.6780859 34.5111992,55.0607853 35.2713686,55.0607853 L47.4599703,55.0607853 L47.4599703,80.4043436 Z" id="Fill-48" fill="#0084C0"></path>
                        <path d="M54.1218093,80.4043436 L33.8952415,80.4043436 L33.8952415,78.2299877 L51.952572,78.2299877 C53.1501144,78.2299877 54.1218093,79.2034233 54.1218093,80.4043436" id="Fill-50" fill="#0084C0"></path>
                        <polyline id="Fill-52" fill="#FFFFFF" points="15.1332119 89.0833804 15.1332119 80.7349141 129.244568 80.7349141 129.244568 89.0833804"></polyline>
                        <path d="M14.9008093,89.0833804 L14.7443686,80.7349141 C14.7405127,80.5234417 14.9085212,80.3489632 15.1189449,80.3450982 L15.1211483,80.3450982 L15.1332669,80.3450982 L22.265089,80.2550982 L29.396911,80.2109264 L43.6611059,80.168411 L72.1889449,80.1264479 L100.716784,80.168411 C110.226064,80.1667546 119.734792,80.231908 129.244623,80.2788405 L129.251784,80.2788405 C129.500216,80.2799448 129.700725,80.483135 129.699072,80.7321534 L129.699072,80.7349141 L129.611487,89.0833804 C129.609835,89.2865706 129.443479,89.4500061 129.240767,89.4477975 C129.040809,89.445589 128.879411,89.2827055 128.877208,89.0833804 L128.789623,80.7349141 L129.244623,81.1904356 C119.734792,81.2373681 110.226064,81.3025215 100.716784,81.300865 L72.1889449,81.3422761 L43.6611059,81.300865 L29.396911,81.2583497 L22.265089,81.2141779 L15.1332669,81.1241779 L15.5221653,80.7349141 L15.3662754,89.0833804 C15.3635212,89.2120307 15.2572076,89.3147301 15.1288602,89.3125215 C15.0038178,89.3097607 14.9030127,89.2081656 14.9008093,89.0833804" id="Fill-54" fill="#C8D7E2"></path>
                        <path d="M93.2287288,25.6306748 C93.4248305,26.2523926 93.3515678,26.8735583 93.3752542,27.4952761 L93.3791102,27.960184 C93.3846186,28.0882822 93.3950847,28.2163804 93.423178,28.3406135 C93.4749576,28.590184 93.5752119,28.8287117 93.715678,29.040184 C94.0070763,29.4625767 94.4334322,29.760184 94.9550847,29.8700613 C95.5692797,30.0158282 96.1763136,30.1925153 96.7745339,30.3957055 C97.9726271,30.7971166 99.1404237,31.3017791 100.245424,31.9306748 C101.352627,32.5430061 102.406949,33.3171166 103.161059,34.357362 C103.20678,34.4197546 103.193008,34.507546 103.130763,34.5533742 C103.08339,34.5876074 103.019492,34.5870552 102.972669,34.5583436 C101.907331,33.9079141 100.910847,33.251411 99.8377966,32.6810429 C98.7658475,32.1173006 97.6338559,31.6645399 96.4825847,31.2747239 C95.9036441,31.0869939 95.3202966,30.9147239 94.7319915,30.757362 C94.0390254,30.6005521 93.3747034,30.1395092 92.9819492,29.523865 C92.7841949,29.2141104 92.6459322,28.867362 92.578178,28.507362 C92.5423729,28.3279141 92.5297034,28.1446012 92.5275,27.9623926 L92.5313559,27.4952761 C92.5544915,26.8735583 92.4812288,26.2523926 92.6778814,25.6306748 C92.7263559,25.4782822 92.8883051,25.3938037 93.040339,25.4423926 C93.1328814,25.4716564 93.2006356,25.545092 93.2287288,25.6306748" id="Fill-56" fill="#004F81"></path>
                        <path d="M93.2819958,11.9159448 L93.2819958,26.5390123 C93.2819958,27.224227 93.8449619,27.779135 94.5401314,27.779135 L99.1920381,27.779135 C100.702462,27.779135 101.925894,26.5743497 101.923691,25.086865 C101.915979,19.9259448 101.387716,8.11054601 97.1682246,4.40508589" id="Fill-58" fill="#00A9DE"></path>
                        <polyline id="Fill-60" fill="#FFFFFF" points="64.466339 18.8409755 59.1247712 18.8409755 59.1247712 3.14729448 51.4960847 9.95526994 51.4960847 22.9704847 44.7889661 22.9704847 44.7889661 12.7441656 37.4973983 12.7441656 37.4973983 20.9639816 28.1269322 9.95526994 22.1645593 9.95526994 22.1645593 16.5583988 18.4760847 16.5583988 18.4760847 5.87600613 11.7601525 5.87600613 11.7601525 24.1272331 4.79027966 24.1272331"></polyline>
                        <path d="M64.466339,19.0248405 C62.686,19.0629387 60.9051102,19.0811595 59.1247712,19.0877853 C58.9898136,19.0877853 58.8790932,18.9790123 58.8779915,18.8442883 L58.8779915,18.8404233 C58.8278644,13.6093804 58.8570593,8.37888957 58.8493475,3.14729448 L59.3076525,3.3532454 L51.6795169,10.161773 L51.7715085,9.95582209 L51.7715085,22.9704847 C51.7715085,23.1234294 51.6481186,23.2465583 51.4960847,23.2465583 L44.7889661,23.2465583 C44.6369322,23.2465583 44.5135424,23.1234294 44.5135424,22.9704847 L44.5135424,12.7441656 L44.7889661,13.0202393 L37.4973983,13.0202393 L37.772822,12.7441656 L37.772822,20.9639816 C37.772822,21.1163742 37.6494322,21.2400552 37.4973983,21.2400552 C37.4142203,21.2400552 37.3387542,21.2014049 37.2880763,21.1428773 L27.9170593,10.1347178 L28.1269322,10.2313436 L22.1645593,10.2313436 L22.4399831,9.95582209 L22.4399831,16.5578466 C22.4399831,16.7107914 22.3160424,16.8344724 22.1640085,16.8344724 L18.4760847,16.8344724 C18.3235,16.8344724 18.200661,16.7107914 18.200661,16.5578466 L18.200661,5.87600613 L18.4760847,6.15207975 L11.7601525,6.13054601 L12.0146441,5.87600613 L11.9276102,24.1272331 C11.9287119,24.2188896 11.8554492,24.2939816 11.7640085,24.2950859 L11.7601525,24.2950859 L4.79027966,24.2194417 C4.73905085,24.2188896 4.69883898,24.1769264 4.69938983,24.1261288 C4.69994068,24.0758834 4.74015254,24.0355767 4.79027966,24.0350245 L11.7601525,23.9599325 L11.5932458,24.1272331 L11.505661,5.87600613 C11.5051102,5.73576074 11.6180339,5.62146626 11.7579492,5.62091411 L11.7601525,5.62091411 L18.4760847,5.59993252 C18.6275678,5.59938037 18.7509576,5.72195706 18.7515085,5.87434969 L18.7515085,5.87600613 L18.7515085,16.5578466 L18.4760847,16.2823252 L22.1640085,16.2823252 L21.8891356,16.5578466 L21.8891356,9.95582209 C21.8891356,9.80342945 22.0125254,9.67919632 22.1645593,9.67919632 L28.1269322,9.67919632 C28.210661,9.67919632 28.2855763,9.71784663 28.3362542,9.77637423 L37.7072712,20.7850859 L37.2219746,20.9639816 L37.2219746,12.7441656 C37.2219746,12.5923252 37.3459153,12.468092 37.4973983,12.468092 L44.7889661,12.468092 C44.9415508,12.468092 45.0643898,12.5923252 45.0643898,12.7441656 L45.0643898,22.9704847 L44.7889661,22.694411 L51.4960847,22.694411 L51.220661,22.9704847 L51.220661,9.95582209 C51.220661,9.87410429 51.2570169,9.80011656 51.3132034,9.74931902 L58.941339,2.94134356 C59.0548136,2.83974847 59.2283305,2.84968712 59.3296864,2.9628773 C59.3765085,3.01588344 59.3996441,3.0821411 59.4001949,3.14729448 C59.3913814,8.37888957 59.4211271,13.6093804 59.3704492,18.8404233 L59.1247712,18.5941656 C60.9051102,18.6002393 62.686,18.6184601 64.466339,18.6565583 C64.5682458,18.6587669 64.6481186,18.7426933 64.6459153,18.8448405 C64.6437119,18.9436748 64.5643898,19.0226319 64.466339,19.0248405" id="Fill-62" fill="#C8D7E2"></path>
                        <path d="M59.1246059,4.06998773 L59.1246059,0.378331288" id="Fill-64" fill="#FFFFFF"></path>
                        <path d="M58.9406229,4.06998773 C58.810072,3.9164908 58.8590975,3.76244172 58.8431229,3.60894479 L58.8315551,3.14734969 C58.8271483,2.83925153 58.8089703,2.53225767 58.8161314,2.22415951 C58.8150297,1.91716564 58.8265975,1.60906748 58.8398178,1.30152147 C58.8480805,0.99397546 58.8673602,0.686429448 59.0326144,0.378331288 C59.0601568,0.32808589 59.1229534,0.308760736 59.1736314,0.335815951 C59.1923602,0.346306748 59.2066822,0.361214724 59.2160466,0.378331288 C59.3813008,0.686429448 59.4005805,0.99397546 59.4088432,1.30152147 C59.4220636,1.60906748 59.4336314,1.91716564 59.4325297,2.22415951 C59.4396907,2.53225767 59.4215127,2.83925153 59.4171059,3.14734969 L59.4055381,3.60894479 C59.3895636,3.76244172 59.4391398,3.9164908 59.3080381,4.06998773 C59.2215551,4.17213497 59.0684195,4.18373006 58.9676144,4.09704294 C58.9576992,4.08876074 58.9488856,4.07937423 58.9406229,4.06998773" id="Fill-66" fill="#C8D7E2"></path>
                        <path d="M24.8784746,18.509908 C25.1252542,18.3519939 25.3720339,18.3227301 25.6193644,18.3276994 C25.8666949,18.337638 26.1134746,18.3757362 26.3602542,18.5093558 C26.4109322,18.5369632 26.429661,18.599908 26.4032203,18.6507055 C26.3927542,18.6694785 26.3778814,18.6838344 26.3602542,18.6932209 C26.1134746,18.8268405 25.8666949,18.8654908 25.6193644,18.8743252 C25.3720339,18.8798466 25.1252542,18.8505828 24.8784746,18.6921166 C24.8277966,18.660092 24.8134746,18.5932822 24.8448729,18.5430368 C24.8542373,18.5292331 24.8658051,18.5181902 24.8784746,18.509908" id="Fill-68" fill="#C8D7E2"></path>
                        <path d="M54.1115636,16.7947178 C54.3583432,16.6362515 54.6056737,16.6069877 54.8530042,16.6119571 C55.0997839,16.6218957 55.3465636,16.6599939 55.5938941,16.7936135 C55.644572,16.8212209 55.6633008,16.8847178 55.6363093,16.9355153 C55.6263941,16.9537362 55.6115212,16.968092 55.5938941,16.9774785 C55.3465636,17.1110982 55.0997839,17.1497485 54.8530042,17.159135 C54.6056737,17.1641043 54.3583432,17.1348405 54.1115636,16.9769264 C54.0614364,16.9443497 54.0471144,16.8775399 54.0785127,16.8278466 C54.0873263,16.8140429 54.0994449,16.803 54.1115636,16.7947178" id="Fill-70" fill="#C8D7E2"></path>
                        <path d="M61.1935339,22.4897853 C61.4403136,22.3318712 61.6876441,22.3026074 61.9349746,22.3075767 C62.1817542,22.3175153 62.4285339,22.3556135 62.6758644,22.4892331 C62.7265424,22.5162883 62.7452712,22.5797853 62.7182797,22.6305828 C62.7078136,22.6493558 62.6934915,22.6637117 62.6758644,22.6730982 C62.4285339,22.8067178 62.1817542,22.8453681 61.9349746,22.8542025 C61.6876441,22.8597239 61.4403136,22.829908 61.1935339,22.6719939 C61.1434068,22.6399693 61.1290847,22.5731595 61.1604831,22.5229141 C61.1692966,22.5091104 61.1814153,22.4980675 61.1935339,22.4897853" id="Fill-72" fill="#C8D7E2"></path>
                        <path d="M43.4066144,19.2707669 C43.6533941,19.1128528 43.9001737,19.083589 44.1475042,19.0885583 C44.3948347,19.0984969 44.6416144,19.1360429 44.8883941,19.2696626 C44.939072,19.2972699 44.9583517,19.3607669 44.9313602,19.4115644 C44.9208941,19.4303374 44.9060212,19.4441411 44.8883941,19.4540798 C44.6416144,19.5876994 44.3948347,19.6257975 44.1475042,19.635184 C43.9001737,19.6401534 43.6533941,19.6108896 43.4066144,19.4529755 C43.3559364,19.4203988 43.3416144,19.353589 43.3735636,19.3038957 C43.3823771,19.290092 43.3939449,19.2790491 43.4066144,19.2707669" id="Fill-74" fill="#C8D7E2"></path>
                        <path d="M12.0319958,10.2735276 C12.2787754,10.1156135 12.5255551,10.0863497 12.7734364,10.091319 C13.0202161,10.1012577 13.2669958,10.1393558 13.5137754,10.2729755 C13.5650042,10.3000307 13.5837331,10.3635276 13.5567415,10.4143252 C13.5462754,10.4330982 13.5319534,10.447454 13.5137754,10.4568405 C13.2669958,10.5904601 13.0202161,10.6291104 12.7734364,10.6379448 C12.5255551,10.6434663 12.2787754,10.6142025 12.0319958,10.4557362 C11.9818686,10.4237117 11.9669958,10.3569018 11.9989449,10.3066564 C12.0077585,10.2928528 12.0193263,10.2818098 12.0319958,10.2735276" id="Fill-76" fill="#C8D7E2"></path>
                        <path d="M15.9847669,22.4897853 C16.2315466,22.3318712 16.4783263,22.3026074 16.7262076,22.3075767 C16.9729873,22.3175153 17.2197669,22.3556135 17.4665466,22.4892331 C17.5177754,22.5162883 17.5365042,22.5797853 17.5095127,22.6305828 C17.4990466,22.6493558 17.4847246,22.6637117 17.4665466,22.6730982 C17.2197669,22.8067178 16.9729873,22.8453681 16.7262076,22.8542025 C16.4783263,22.8597239 16.2315466,22.829908 15.9847669,22.6719939 C15.9346398,22.6399693 15.9197669,22.5731595 15.9517161,22.5229141 C15.9605297,22.5091104 15.9720975,22.4980675 15.9847669,22.4897853" id="Fill-78" fill="#C8D7E2"></path>
                    </g>
                </g>
            </g>
        </g>
    </g>
</svg>