
<svg width="374px" height="372px" viewBox="0 0 374 372" version="1.1" xmlns="http://www.w3.org/2000/svg" xmlns:xlink="http://www.w3.org/1999/xlink">
    <!-- Generator: Sketch 49 (51002) - http://www.bohemiancoding.com/sketch -->
    <desc>Created with Sketch.</desc>
    <defs>
        <rect id="path-1" x="0" y="0" width="375" height="370"></rect>
        <path d="M0,4.00002553 C0,1.79087243 1.79955667,0 4.00539739,0 L341.994603,0 C344.206723,0 346,1.79642476 346,4.00002553 L346,35.9999745 C346,38.2091276 344.200443,40 341.994603,40 L4.00539739,40 C1.79327749,40 0,38.2035752 0,35.9999745 L0,4.00002553 Z" id="path-2"></path>
        <filter x="-0.3%" y="-2.5%" width="100.6%" height="105.0%" filterUnits="objectBoundingBox" id="filter-3">
            <feMorphology radius="1" operator="erode" in="SourceAlpha" result="shadowSpreadInner1"></feMorphology>
            <feOffset dx="0" dy="-1" in="shadowSpreadInner1" result="shadowOffsetInner1"></feOffset>
            <feComposite in="shadowOffsetInner1" in2="SourceAlpha" operator="arithmetic" k2="-1" k3="1" result="shadowInnerInner1"></feComposite>
            <feColorMatrix values="0 0 0 0 0.784313725   0 0 0 0 0.843137255   0 0 0 0 0.882352941  0 0 0 1 0" type="matrix" in="shadowInnerInner1"></feColorMatrix>
        </filter>
        <polygon id="path-4" points="0 101.559 231.47 101.559 231.47 0 0 0"></polygon>
    </defs>
    <g id="Stats" stroke="none" stroke-width="1" fill="none" fill-rule="evenodd">
        <g id="Stats@2x" transform="translate(0.000000, -2533.000000)">
            <g id="Driving-directions-requests" transform="translate(0.000000, 2534.000000)">
                <g id="&lt;Card&gt;">
                    <use fill="#FFFFFF" fill-rule="evenodd" xlink:href="#path-1"></use>
                    <rect stroke="#D8E2E9" stroke-width="1" x="-0.5" y="-0.5" width="376" height="371"></rect>
                </g>
                <rect id="divider" fill="#D8E2E9" x="0" y="50" width="375" height="1"></rect>
                <text id="Driving-directions-r" font-family=".AppleSystemUIFont" font-size="14" font-weight="normal" fill="#2E4453">
                    <tspan x="16" y="31">Driving directions requests</tspan>
                </text>
                <text id="We-don’t-have-enough" font-family=".AppleSystemUIFont" font-size="16" font-weight="normal" fill="#2E4453">
                    <tspan x="87.5039062" y="333">We don’t have enough data</tspan>
                </text>
                <text id="The-places-where-cus" font-family=".AppleSystemUIFont" font-size="14" font-weight="normal" line-spacing="18" fill="#4F748E">
                    <tspan x="14" y="83">The places where customers request driving </tspan>
                    <tspan x="14" y="101">directions to your business</tspan>
                </text>
                <g id="Select,-Default" transform="translate(14.000000, 124.000000)">
                    <g id="Background">
                        <use fill="#FFFFFF" fill-rule="evenodd" xlink:href="#path-2"></use>
                        <use fill="black" fill-opacity="1" filter="url(#filter-3)" xlink:href="#path-2"></use>
                        <path stroke="#C8D7E1" stroke-width="1" d="M0.5,4.00002553 L0.5,35.9999745 C0.5,37.9293075 2.07129528,39.5 4.00539739,39.5 L341.994603,39.5 C343.926741,39.5 345.5,37.9305501 345.5,35.9999745 L345.5,4.00002553 C345.5,2.07069248 343.928705,0.5 341.994603,0.5 L4.00539739,0.5 C2.07325941,0.5 0.5,2.06944992 0.5,4.00002553 Z"></path>
                    </g>
                    <text id="1-month" font-family=".AppleSystemUIFont" font-size="14" font-weight="normal" line-spacing="18" fill="#2E4453">
                        <tspan x="16" y="25">1 month</tspan>
                    </text>
                    <g id="gridicons-chevron-down" transform="translate(314.000000, 8.000000)">
                        <polygon id="Shape" points="0 0 24 0 24 24 0 24"></polygon>
                        <polyline id="Shape" fill="#C8D7E1" points="20 9 12 17 4 9 5.414 7.586 12 14.172 18.586 7.586"></polyline>
                    </g>
                </g>
                <g id="Illustration" transform="translate(72.000000, 195.000000)">
                    <path d="M17.3204,100.2125 C33.2274,99.6615 49.1354,99.5455 65.0434,99.4075 L112.7654,99.2815 C144.5804,99.4015 176.3954,99.3335 208.2104,100.0135 C208.4304,100.0175 208.6064,100.2005 208.6014,100.4215 C208.5964,100.6365 208.4234,100.8085 208.2104,100.8135 C176.3954,101.4925 144.5804,101.4235 112.7654,101.5445 L65.0434,101.4175 C49.1354,101.2795 33.2274,101.1635 17.3204,100.6125 C17.2104,100.6085 17.1244,100.5165 17.1284,100.4055 C17.1314,100.3005 17.2164,100.2165 17.3204,100.2125" id="Fill-1" fill="#E9EFF4"></path>
                    <path d="M57.1563,99.5524 L58.2503,12.8014 L58.2503,8.4404 C58.2503,4.6314 61.3363,1.5444 65.1433,1.5444 L167.1343,1.5444 C170.9413,1.5444 174.0283,4.6314 174.0283,8.4404 L174.0283,99.5804 L68.6943,99.5804" id="Fill-3" fill="#74DCFC"></path>
                    <mask id="mask-5" fill="white">
                        <use xlink:href="#path-4"></use>
                    </mask>
                    <g id="Clip-6"></g>
                    <polygon id="Fill-5" fill="#FFFFFF" mask="url(#mask-5)" points="67.76 99.581 122.647 99.581 122.647 32.023 67.76 32.023"></polygon>
                    <polygon id="Fill-7" fill="#FFFFFF" mask="url(#mask-5)" points="132.395 60.827 162.345 60.827 162.345 32.023 132.395 32.023"></polygon>
                    <polygon id="Fill-8" fill="#74DCFC" mask="url(#mask-5)" points="132.395 84.69 162.345 84.69 162.345 69.644 132.395 69.644"></polygon>
                    <path d="M58.2296,19.607 L58.2296,13.362 L58.2296,8.185 C58.2296,3.665 61.3166,0 65.1256,0 L167.1326,0 C170.9416,0 174.0286,3.665 174.0286,8.185 L174.0286,19.607 L58.2296,19.607 Z" id="Fill-9" fill="#74DCFC" mask="url(#mask-5)"></path>
                    <path d="M177.2003,19.6031 C166.9863,20.4121 156.7713,20.3521 146.5563,20.4001 L115.9143,20.5341 L85.2703,20.4001 C75.0553,20.3521 64.8423,20.4131 54.6273,19.6031 L54.6273,19.1031 C64.8423,18.2931 75.0553,18.3541 85.2703,18.3071 L115.9143,18.1721 L146.5563,18.3071 C156.7713,18.3541 166.9863,18.2951 177.2003,19.1031 L177.2003,19.6031 Z" id="Fill-10" fill="#004F84" mask="url(#mask-5)"></path>
                    <path d="M96.5841,76.6432 L80.8321,76.6432 C80.8321,85.2852 87.9431,92.3952 96.5841,92.3952 C105.2261,92.3952 112.3371,85.2852 112.3371,76.6432 C112.3371,68.0012 105.2261,60.8912 96.5841,60.8912 C96.4651,60.8912 96.3461,60.8922 96.2271,60.8952 L96.5841,76.6432 Z" id="Fill-11" fill="#0084C0" mask="url(#mask-5)"></path>
                    <path d="M92.0323,72.7779 L92.0323,57.0259 C83.3903,57.0259 76.2803,64.1359 76.2803,72.7779 L92.0323,72.7779 Z" id="Fill-12" fill="#74DCFC" mask="url(#mask-5)"></path>
                    <path d="M146.0255,55.8199 L138.6975,55.8199 L138.6975,48.9439 C138.6975,48.7219 138.9655,48.5429 139.2965,48.5429 L146.0255,48.5429 L146.0255,55.8199 Z" id="Fill-13" fill="#74DCFC" mask="url(#mask-5)"></path>
                    <path d="M156.628,55.8199 L149.3,55.8199 L149.3,42.5799 C149.3,41.8539 149.888,41.2659 150.613,41.2659 L156.628,41.2659 L156.628,55.8199 Z" id="Fill-14" fill="#74DCFC" mask="url(#mask-5)"></path>
                    <path d="M215.8272,68.7779 C216.2312,68.7009 216.6292,68.6389 217.0602,68.6439 C217.4622,68.6409 218.0752,68.7279 218.4332,69.2529 C218.7712,69.7459 218.7842,70.2389 218.8012,70.6689 C218.8032,71.0999 218.7782,71.5359 218.7232,71.9239 C218.5402,73.5079 218.3392,75.0889 218.1282,76.6689 C217.9212,78.2499 217.7412,79.8339 217.5122,81.4129 C217.3062,82.9949 217.0472,84.5709 216.7522,86.1439 C216.7312,86.2539 216.6272,86.3249 216.5172,86.3049 C216.4202,86.2869 216.3522,86.1999 216.3532,86.1039 C216.3842,84.5019 216.4632,82.9049 216.6022,81.3139 C216.7202,79.7199 216.8952,78.1329 217.0572,76.5439 C217.2162,74.9549 217.3972,73.3669 217.6162,71.7839 C217.6652,71.3819 217.7292,71.0229 217.7502,70.6569 C217.7712,70.2999 217.7422,69.9499 217.6452,69.7609 C217.5822,69.5709 217.3272,69.4299 216.9642,69.3089 C216.6042,69.2059 216.2032,69.1139 215.8122,68.9779 C215.7592,68.9599 215.7292,68.8999 215.7482,68.8459 C215.7612,68.8099 215.7922,68.7849 215.8272,68.7779" id="Fill-15" fill="#C8D7E2" mask="url(#mask-5)"></path>
                    <path d="M221.3878,57.8873 C222.9768,57.6783 224.5658,57.5773 226.1548,57.5243 C227.7428,57.4523 229.3318,57.4713 230.9208,57.4413 L230.3878,58.1023 C229.9918,56.3133 229.4248,54.5533 228.5418,52.9993 C227.6838,51.4773 226.3598,50.0753 224.7288,50.0173 C223.1008,49.9503 221.5848,51.1583 220.4558,52.5113 C219.3088,53.9013 218.4128,55.5223 217.6508,57.1963 C216.1458,60.5653 215.1168,64.1623 214.3318,67.8003 C213.5318,71.4393 212.9698,75.1373 212.5238,78.8503 C212.5108,78.9593 212.4108,79.0383 212.3018,79.0253 C212.1958,79.0123 212.1178,78.9183 212.1248,78.8133 C212.3718,75.0703 212.8028,71.3303 213.5098,67.6313 C214.2418,63.9423 215.1908,60.2663 216.7228,56.7803 C217.4978,55.0453 218.4118,53.3493 219.6408,51.8353 C220.2658,51.0893 220.9638,50.3803 221.8158,49.8263 C222.6568,49.2773 223.6838,48.8743 224.7718,48.9173 C225.8578,48.9493 226.8818,49.4393 227.6548,50.1053 C228.4388,50.7723 229.0398,51.5843 229.5278,52.4363 C230.4838,54.1533 231.0548,56.0073 231.4548,57.8713 L231.4578,57.8823 C231.5198,58.1723 231.3348,58.4583 231.0448,58.5213 C231.0038,58.5303 230.9608,58.5333 230.9208,58.5333 C229.3318,58.5023 227.7428,58.5213 226.1548,58.4493 C224.5658,58.3963 222.9768,58.2963 221.3878,58.0863 C221.3318,58.0793 221.2938,58.0293 221.3008,57.9743 C221.3068,57.9273 221.3438,57.8933 221.3878,57.8873" id="Fill-16" fill="#C8D7E2" mask="url(#mask-5)"></path>
                    <path d="M218.8009,48.899 C213.6629,49.175 208.5229,49.235 203.3829,49.301 L195.6739,49.337 L191.8199,49.355 C191.1919,49.38 190.4699,49.309 190.0399,49.42 C189.5399,49.545 189.0369,49.847 188.5719,50.21 C186.7169,51.744 185.3709,53.987 184.2089,56.21 C183.0529,58.463 182.1269,60.842 181.3359,63.26 C179.7759,68.106 178.8119,73.161 178.6189,78.272 C178.6159,78.382 178.5239,78.469 178.4129,78.466 C178.3079,78.462 178.2239,78.377 178.2199,78.272 C178.0589,73.101 178.9139,67.924 180.4059,62.968 C181.1609,60.489 182.1029,58.062 183.2639,55.73 C183.8479,54.566 184.4889,53.425 185.2289,52.337 C185.9749,51.253 186.7969,50.2 187.8689,49.325 C188.4089,48.897 189.0239,48.503 189.7769,48.32 C190.1439,48.219 190.5909,48.236 190.8769,48.238 L191.8399,48.243 L195.6909,48.26 L203.3939,48.295 C208.5299,48.363 213.6639,48.422 218.8009,48.699 C218.8569,48.702 218.8989,48.749 218.8959,48.804 C218.8929,48.856 218.8519,48.896 218.8009,48.899" id="Fill-17" fill="#C8D7E2" mask="url(#mask-5)"></path>
                    <path d="M209.422,58.6275 C207.965,58.8895 206.508,58.9825 205.051,59.0305 C203.595,59.0725 202.138,59.1025 200.681,59.0935 C197.767,59.0325 194.853,59.0665 191.94,58.7275 C191.829,58.7145 191.749,58.6145 191.763,58.5045 C191.774,58.4095 191.849,58.3385 191.94,58.3275 C194.853,57.9875 197.767,58.0225 200.681,57.9615 C202.138,57.9525 203.595,57.9815 205.051,58.0235 C206.508,58.0715 207.965,58.1655 209.422,58.4275 C209.478,58.4375 209.514,58.4895 209.504,58.5455 C209.496,58.5885 209.462,58.6195 209.422,58.6275" id="Fill-18" fill="#C8D7E2" mask="url(#mask-5)"></path>
                    <path d="M206.2257,66.0738 C205.4827,66.3378 204.7397,66.4308 203.9967,66.4768 C203.2527,66.5198 202.5107,66.5478 201.7677,66.5408 C201.0247,66.5298 200.2817,66.5018 199.5387,66.4648 C198.7947,66.4198 198.0527,66.3468 197.3097,66.1738 C197.1997,66.1478 197.1297,66.0378 197.1567,65.9278 C197.1747,65.8478 197.2357,65.7918 197.3097,65.7738 C198.0527,65.5998 198.7947,65.5278 199.5387,65.4828 C200.2817,65.4458 201.0247,65.4188 201.7677,65.4068 C202.5107,65.3998 203.2527,65.4278 203.9967,65.4698 C204.7397,65.5168 205.4827,65.6098 206.2257,65.8738 C206.2807,65.8928 206.3097,65.9538 206.2897,66.0098 C206.2787,66.0408 206.2537,66.0628 206.2257,66.0738" id="Fill-19" fill="#C8D7E2" mask="url(#mask-5)"></path>
                    <path d="M164.2071,101.0211 L217.0901,101.0211 L217.0901,78.8321 L185.3581,78.8321 C173.6771,78.8321 164.2071,88.3011 164.2071,99.9831 L164.2071,101.0211 Z" id="Fill-20" fill="#FFFFFF" mask="url(#mask-5)"></path>
                    <path d="M164.0616,101.0914 C164.0276,100.7374 163.9986,100.3614 163.9966,99.9914 L164.0386,98.9494 L164.0806,97.9084 C164.1066,97.5634 164.1716,97.2204 164.2156,96.8754 C164.3056,96.1864 164.4026,95.4964 164.5946,94.8254 C164.7566,94.1494 164.9156,93.4704 165.1746,92.8214 C166.0776,90.1874 167.5066,87.7284 169.3636,85.6404 C173.0526,81.4364 178.4556,78.7664 184.0716,78.4284 C186.8726,78.2794 189.5836,78.3544 192.3446,78.3244 L200.5926,78.3084 L217.0896,78.2754 C217.3966,78.2754 217.6456,78.5234 217.6466,78.8294 L217.6466,78.8314 L217.6266,101.0214 C217.6276,101.3174 217.3886,101.5584 217.0926,101.5594 L217.0896,101.5594 C208.2166,101.5324 199.3216,101.5344 190.4766,101.4364 C181.6196,101.3744 172.8276,101.2274 164.1356,101.0924 L164.0616,101.0914 Z M164.3396,100.9494 C173.2546,100.8154 182.0706,100.6684 190.8206,100.6074 C199.6026,100.5084 208.3346,100.5094 217.0896,100.4844 L216.5516,101.0214 L216.5336,78.8314 L217.0896,79.3884 L200.5926,79.3554 C195.1076,79.3654 189.5666,79.2864 184.1256,79.3624 C178.7496,79.6124 173.5186,82.0984 169.8936,86.1154 C168.0786,88.1144 166.6406,90.4654 165.7096,93.0114 C165.4436,93.6374 165.2766,94.2954 165.1056,94.9524 C164.9036,95.6034 164.7956,96.2734 164.6946,96.9454 C164.6446,97.2814 164.5736,97.6144 164.5406,97.9524 L164.4796,98.9714 L164.4166,99.9884 C164.4156,100.2824 164.3856,100.5654 164.3486,100.8794 L164.3396,100.9494 Z" id="Fill-21" fill="#C8D7E2" mask="url(#mask-5)"></path>
                    <path d="M169.4405,92.444 C172.7275,92.169 176.0145,92.111 179.3005,92.042 L189.1615,91.978 C195.7355,92.039 202.3085,92.005 208.8815,92.344 C208.9935,92.35 209.0775,92.444 209.0725,92.554 C209.0665,92.658 208.9835,92.739 208.8815,92.744 C202.3085,93.084 195.7355,93.049 189.1615,93.11 L179.3005,93.047 C176.0145,92.978 172.7275,92.92 169.4405,92.644 C169.3855,92.639 169.3445,92.591 169.3485,92.536 C169.3535,92.486 169.3925,92.448 169.4405,92.444" id="Fill-22" fill="#C8D7E2" mask="url(#mask-5)"></path>
                    <path d="M33.4552,49.8522 C40.2472,44.6652 40.5872,33.5092 34.2512,21.1222 C27.9152,8.7342 10.2922,-3.8538 2.1472,8.6302 C-5.9968,21.1152 18.8202,56.9132 29.0592,51.3922" id="Fill-23" fill="#FFFFFF" mask="url(#mask-5)"></path>
                    <path d="M33.3946,49.7731 C35.4956,48.1101 36.9676,45.7641 37.7066,43.2251 C38.4586,40.6821 38.5936,37.9861 38.3256,35.3491 C37.7536,30.0621 35.8256,24.9651 33.2646,20.3211 C30.6176,15.7331 26.9796,11.6841 22.7126,8.5461 C20.5746,6.9931 18.2506,5.6691 15.7696,4.8371 C13.3026,4.0161 10.6156,3.7211 8.1826,4.4901 C5.7416,5.2171 3.7346,7.0631 2.4146,9.2591 C1.1276,11.4501 0.9236,14.1691 1.1596,16.7611 C1.7136,22.0121 3.7976,27.0491 6.2776,31.7501 C8.8026,36.4491 11.8646,40.8941 15.5206,44.7871 C17.3546,46.7201 19.3546,48.5171 21.5986,49.9251 C22.7236,50.6171 23.9166,51.2141 25.1866,51.5271 C26.4456,51.8351 27.8106,51.8211 28.9626,51.2161 C29.0616,51.1651 29.1816,51.2031 29.2336,51.3001 C29.2846,51.3961 29.2476,51.5151 29.1536,51.5681 C27.9146,52.2671 26.4156,52.3201 25.0736,52.0301 C23.7136,51.7371 22.4566,51.1481 21.2726,50.4671 C18.9246,49.0581 16.8716,47.2451 14.9766,45.3091 C11.2076,41.4051 8.0476,36.9531 5.4156,32.2161 C4.1086,29.8401 2.9686,27.3691 2.0326,24.8141 C1.1056,22.2581 0.3796,19.6061 0.0986,16.8641 C-0.1564,14.1491 0.0126,11.2151 1.4636,8.7031 C2.8846,6.3071 5.0876,4.2441 7.8436,3.4031 C10.5896,2.5521 13.5166,2.9141 16.1196,3.7931 C18.7426,4.6851 21.1416,6.0741 23.3426,7.6861 C27.7206,10.9491 31.4326,15.0841 34.1186,19.8411 C35.4076,22.2481 36.5016,24.7311 37.3606,27.3141 C38.2176,29.8921 38.8416,32.5631 39.0436,35.2861 C39.2486,37.9981 39.0536,40.7771 38.1936,43.3791 C37.3306,45.9731 35.7136,48.3281 33.5156,49.9321 C33.4716,49.9641 33.4086,49.9551 33.3756,49.9111 C33.3436,49.8671 33.3526,49.8061 33.3946,49.7731" id="Fill-24" fill="#C8D7E2" mask="url(#mask-5)"></path>
                    <path d="M44.171,56.6354 C39.76,49.6094 42.608,37.6784 51.204,30.1304 L53.586,38.5994 L54.864,28.9374 C58.138,27.8174 63.286,27.9144 66.056,30.8614 C77.499,43.0344 56.904,62.0264 47.551,57.8874" id="Fill-25" fill="#FFFFFF" mask="url(#mask-5)"></path>
                    <path d="M44.086,56.6881 C42.726,54.6001 42.019,52.1161 41.87,49.6251 C41.732,47.1251 42.101,44.6141 42.815,42.2191 C44.262,37.4201 47.144,33.1021 50.874,29.7541 C51.078,29.5721 51.392,29.5881 51.575,29.7921 C51.627,29.8501 51.663,29.9171 51.683,29.9871 L51.686,29.9961 L54.082,38.4591 L53.075,38.5321 L54.333,28.8671 L54.334,28.8611 C54.36,28.6541 54.505,28.4921 54.69,28.4301 C56.907,27.7041 59.262,27.5391 61.555,27.9571 C62.697,28.1771 63.826,28.5661 64.848,29.1831 C65.888,29.7911 66.729,30.6891 67.415,31.5921 C68.826,33.4251 69.747,35.6821 69.92,38.0061 C70.114,40.3331 69.622,42.6511 68.756,44.7601 C66.989,48.9961 63.857,52.4901 60.206,55.1201 C58.363,56.4201 56.354,57.5141 54.179,58.1801 C52.032,58.8361 49.589,59.0361 47.471,58.0701 C47.37,58.0241 47.325,57.9061 47.371,57.8051 C47.416,57.7081 47.533,57.6641 47.632,57.7051 C49.652,58.5281 51.934,58.2111 53.976,57.5401 C56.045,56.8561 57.969,55.7561 59.726,54.4591 C63.211,51.8341 66.139,48.3691 67.798,44.3711 C68.602,42.3721 69.035,40.2141 68.843,38.0981 C68.668,35.9811 67.828,33.9571 66.52,32.2791 C65.852,31.4261 65.145,30.6731 64.262,30.1481 C63.383,29.6091 62.381,29.2521 61.344,29.0461 C59.268,28.6501 57.046,28.7941 55.038,29.4441 L55.396,29.0071 L54.097,38.6671 C54.061,38.9491 53.802,39.1481 53.52,39.1111 C53.31,39.0841 53.146,38.9301 53.091,38.7391 L50.723,30.2661 L51.534,30.5061 C47.877,33.6751 45.049,37.8291 43.526,42.4431 C42.764,44.7451 42.34,47.1721 42.399,49.6021 C42.436,52.0261 43.011,54.4701 44.255,56.5821 C44.284,56.6291 44.269,56.6911 44.222,56.7191 C44.176,56.7471 44.115,56.7321 44.086,56.6881" id="Fill-26" fill="#C8D7E2" mask="url(#mask-5)"></path>
                    <path d="M41.213,64.5934 C43.553,54.1074 50.481,47.5684 58.265,40.9654" id="Fill-27" fill="#FFFFFF" mask="url(#mask-5)"></path>
                    <path d="M41.1163,64.5709 C41.3923,62.0839 42.1763,59.6629 43.2283,57.3799 C44.3213,55.1129 45.6783,52.9749 47.2303,51.0029 C50.4043,47.1039 54.1443,43.7589 58.1353,40.8129 C58.2233,40.7469 58.3493,40.7659 58.4153,40.8549 C58.4753,40.9359 58.4653,41.0499 58.3933,41.1179 C54.8463,44.5779 51.1163,47.8319 48.1163,51.7059 C46.5933,53.6139 45.2243,55.6459 44.1293,57.8249 C42.9873,59.9829 42.1223,62.2689 41.3103,64.6149 C41.2933,64.6679 41.2353,64.6959 41.1833,64.6769 C41.1373,64.6619 41.1103,64.6169 41.1163,64.5709" id="Fill-28" fill="#C8D7E2" mask="url(#mask-5)"></path>
                    <path d="M34.2432,64.9479 C34.5972,37.5299 23.6802,22.3409 10.5692,14.3039" id="Fill-29" fill="#FFFFFF" mask="url(#mask-5)"></path>
                    <path d="M34.1427,64.9469 C33.8797,60.0629 33.5517,55.2079 32.7347,50.4179 C31.9667,45.6249 30.6307,40.9309 28.7527,36.4769 C26.8917,32.0199 24.4287,27.7949 21.2997,24.1039 C18.1947,20.3939 14.5037,17.1929 10.4637,14.4749 C10.3717,14.4149 10.3467,14.2909 10.4077,14.1979 C10.4647,14.1099 10.5827,14.0839 10.6737,14.1339 C14.9367,16.5709 18.7977,19.7489 22.0437,23.4719 C25.2987,27.1959 27.8447,31.5059 29.7947,36.0369 C31.6987,40.5939 32.9887,45.3929 33.7267,50.2589 C34.4177,55.1319 34.6317,60.0579 34.3427,64.9499 C34.3397,65.0049 34.2917,65.0469 34.2377,65.0439 C34.1857,65.0409 34.1457,64.9969 34.1427,64.9469" id="Fill-30" fill="#C8D7E2" mask="url(#mask-5)"></path>
                    <path d="M19.8175,71.7447 L55.7715,71.7447" id="Fill-31" fill="#FFFFFF" mask="url(#mask-5)"></path>
                    <path d="M19.8175,71.6442 C22.8135,71.3692 25.8105,71.3112 28.8065,71.2422 L37.7955,71.1782 C43.7875,71.2392 49.7795,71.2052 55.7715,71.5442 C55.8815,71.5502 55.9665,71.6452 55.9605,71.7552 C55.9545,71.8592 55.8725,71.9392 55.7715,71.9442 C49.7795,72.2842 43.7875,72.2492 37.7955,72.3102 L28.8065,72.2472 C25.8105,72.1782 22.8135,72.1202 19.8175,71.8442 C19.7625,71.8392 19.7215,71.7902 19.7275,71.7352 C19.7315,71.6862 19.7705,71.6492 19.8175,71.6442" id="Fill-32" fill="#C8D7E2" mask="url(#mask-5)"></path>
                    <path d="M37.1895,99.7096 C39.7455,99.6676 42.2695,98.9876 44.4915,97.7726 C46.7155,96.5596 48.6455,94.8436 50.1505,92.8206 C53.1705,88.7676 54.4605,83.5446 53.8335,78.5646 L53.8585,78.6886 L49.8285,65.1746 L50.5955,65.7476 L37.1895,65.7966 L23.7825,65.7596 L24.5605,65.1776 L20.5315,78.6926 L20.5575,78.5656 C20.2795,81.0586 20.4135,83.6006 21.0325,86.0356 C21.6465,88.4706 22.7425,90.7866 24.2435,92.8096 C25.7295,94.8416 27.6485,96.5756 29.8745,97.7986 C32.0855,99.0456 34.6105,99.7516 37.1895,99.8586 L37.1895,99.7096 Z M37.1895,100.1586 C34.5615,100.2806 31.8895,99.6956 29.4935,98.5336 C27.0995,97.3566 24.9865,95.6176 23.3095,93.5286 C19.9715,89.3216 18.4405,83.7476 19.0465,78.3906 C19.0515,78.3496 19.0595,78.3106 19.0705,78.2726 L19.0725,78.2636 L23.0045,64.7196 C23.1065,64.3666 23.4275,64.1386 23.7765,64.1366 L23.7825,64.1376 L37.1895,64.0996 L50.5955,64.1476 L50.6015,64.1476 C50.9625,64.1486 51.2665,64.3926 51.3635,64.7226 L55.2935,78.2676 L55.2965,78.2786 C55.3075,78.3146 55.3155,78.3556 55.3195,78.3916 C55.5945,81.0696 55.3815,83.7976 54.6635,86.3866 C53.9545,88.9786 52.7125,91.4166 51.0535,93.5166 C49.3945,95.6156 47.2935,97.3726 44.8985,98.5596 C42.5105,99.7536 39.8395,100.3636 37.1895,100.3096 L37.1895,100.1586 Z" id="Fill-33" fill="#C8D7E2" mask="url(#mask-5)"></path>
                    <path d="M75.3721,46.6051 L75.3721,39.2771 L107.6321,39.2771 C111.2451,39.2771 114.1741,42.2061 114.1741,45.8191 L114.1741,46.6051 L75.3721,46.6051 Z" id="Fill-34" fill="#74DCFC" mask="url(#mask-5)"></path>
                </g>
            </g>
        </g>
    </g>
</svg>