
<svg width="150px" height="78px" viewBox="0 0 150 78" version="1.1" xmlns="http://www.w3.org/2000/svg" xmlns:xlink="http://www.w3.org/1999/xlink">
    <!-- Generator: Sketch 49 (51002) - http://www.bohemiancoding.com/sketch -->
    <desc>Created with Sketch.</desc>
    <defs>
        <polygon id="path-1" points="0.472000617 0.345266667 88.9433333 0.345266667 88.9433333 1.85393333 0.472000617 1.85393333"></polygon>
        <polygon id="path-3" points="0.1988 0.646 77.3974667 0.646 77.3974667 13.7172667 0.1988 13.7172667"></polygon>
        <polygon id="path-5" points="0 0.0490552725 46.385709 0.0490552725 46.385709 22.6664 0 22.6664"></polygon>
    </defs>
    <g id="Stats" stroke="none" stroke-width="1" fill="none" fill-rule="evenodd">
        <g id="Stats@2x" transform="translate(-197.000000, -1056.000000)">
            <g id="Insight-1" transform="translate(0.000000, 1029.000000)">
                <g id="Page-1" transform="translate(197.000000, 27.000000)">
                    <path d="M103.278867,66.9039333 L65.0095333,66.9039333 L65.0095333,50.9486 L88.9082,50.9486 C96.8448667,50.9486 103.278867,57.3832667 103.278867,65.3199333 L103.278867,66.9039333 Z" id="Fill-1" fill="#FFFFFF"></path>
                    <path d="M103.189,66.8564 L103.185,66.8097333 L103.050333,65.3937333 C103.035,64.9150667 103.019,64.4130667 102.968333,63.9257333 C102.868333,62.9470667 102.663667,61.9790667 102.359,61.0437333 C101.752333,59.1737333 100.746333,57.4377333 99.4363333,55.9784 C96.8236667,53.0384 92.951,51.3084 89.0356667,51.2857333 L65.0096667,51.2824 L65.343,50.9490667 L65.343,66.9037333 L65.0096667,66.5704 L74.5143333,66.5764 C77.679,66.5690667 80.8556667,66.6157333 84.0363333,66.6444 L93.5976667,66.7357333 L103.189,66.8564 Z M103.377667,66.9504 L103.326333,66.9510667 L93.8263333,67.0717333 L84.2516667,67.1637333 C81.055,67.1924 77.8536667,67.2384 74.6396667,67.2310667 L65.0096667,67.2370667 C64.8256667,67.2370667 64.6763333,67.0884 64.6763333,66.9037333 L64.6763333,50.9490667 C64.6763333,50.7644 64.8256667,50.6157333 65.0096667,50.6157333 L89.041,50.6190667 C91.0883333,50.6377333 93.137,51.0797333 94.9956667,51.9424 C96.8543333,52.8010667 98.531,54.0497333 99.8743333,55.5897333 C101.221667,57.1244 102.245,58.9410667 102.852333,60.8877333 C103.157,61.8604 103.357,62.8650667 103.449667,63.8790667 C103.491667,64.3897333 103.517,64.8877333 103.507667,65.4104 C103.475667,65.9477333 103.420333,66.4657333 103.377667,66.9504 Z" id="Fill-3" fill="#C8D7E2"></path>
                    <path d="M103.278867,44.5536667 L65.0095333,44.5536667 L65.0095333,21.2463333 L88.9082,21.2463333 C96.8448667,21.2463333 103.278867,27.6803333 103.278867,35.6176667 L103.278867,44.5536667 Z" id="Fill-5" fill="#74DCFC"></path>
                    <polygon id="Fill-7" fill="#FFFFFF" points="81.1493333 28.9091333 87.1393333 32.8998 81.1493333 36.8911333"></polygon>
                    <g id="Group-11" transform="translate(60.666667, 66.020667)">
                        <mask id="mask-2" fill="white">
                            <use xlink:href="#path-1"></use>
                        </mask>
                        <g id="Clip-10"></g>
                        <path d="M0.598866667,0.965933333 C7.93953333,0.597933333 15.2795333,0.523266667 22.6202,0.427933333 L33.6308667,0.357933333 L44.6422,0.345266667 L66.6635333,0.4486 C74.0042,0.517266667 81.3448667,0.593266667 88.6848667,0.833266667 C88.8328667,0.837933333 88.9482,0.9606 88.9435333,1.1086 C88.9388667,1.24926667 88.8242,1.36126667 88.6848667,1.3666 C81.3448667,1.60526667 74.0042,1.68193333 66.6635333,1.7506 L44.6422,1.85393333 L33.6308667,1.84126667 L22.6202,1.77126667 C15.2795333,1.67593333 7.93953333,1.6006 0.598866667,1.2326 C0.524866667,1.22926667 0.4682,1.1666 0.4722,1.0926 C0.475533333,1.02393333 0.531533333,0.969933333 0.598866667,0.965933333" id="Fill-9" fill="#E9EFF4" mask="url(#mask-2)"></path>
                    </g>
                    <path d="M127.685467,61.2457333 L123.161467,61.8377333 C123.0608,61.8510667 122.9688,61.7804 122.955467,61.6790667 L122.955467,61.6777333 L122.9548,61.6724 L120.934133,44.7110667 L119.0188,27.7390667 C119.011467,27.6704 119.024133,27.6010667 119.0508,27.5424 L120.7748,23.7697333 C120.8608,23.5804 121.084133,23.4970667 121.273467,23.5830667 C121.325467,23.6070667 121.3708,23.6430667 121.405467,23.6837333 L124.1608,26.9650667 C124.210133,27.0224 124.238133,27.0924 124.245467,27.1624 L125.164133,35.7184 L126.058133,44.2670667 L126.896133,52.7757333 L127.681467,61.1977333 L127.685467,61.2457333 Z M127.571467,61.0684 L126.4868,52.5590667 L125.4508,44.0910667 L124.469467,35.6637333 L123.5128,27.2430667 L123.597467,27.4397333 L120.829467,24.1697333 L121.460133,24.0837333 L119.731467,27.8537333 L119.763467,27.6570667 L121.598133,44.6384 L123.3268,61.6310667 L123.120133,61.4650667 L127.5248,61.0724 L127.571467,61.0684 Z" id="Fill-12" fill="#C8D7E2"></path>
                    <path d="M123.714733,27.3928667 C123.548733,27.8375333 123.300067,28.2068667 123.028733,28.5555333 C122.9314,28.6815333 122.756733,28.7108667 122.624067,28.6288667 L122.5854,28.6048667 C122.248733,28.3948667 121.914733,28.1828667 121.590733,27.9555333 L122.0954,27.8995333 C121.7814,28.2482 121.466733,28.5962 121.1174,28.9128667 L121.0594,28.9655333 C120.950067,29.0655333 120.782733,29.0615333 120.676067,28.9622 L119.630733,27.9735333 C119.576733,27.9222 119.574067,27.8375333 119.6254,27.7835333 C119.6674,27.7388667 119.7334,27.7295333 119.784733,27.7562 L121.062067,28.4182 L120.622067,28.4668667 C120.900733,28.0868667 121.214067,27.7375333 121.528067,27.3882 C121.6574,27.2428667 121.8774,27.2228667 122.032733,27.3328667 C122.354067,27.5642 122.664733,27.8095333 122.974067,28.0582 L122.530733,28.1075333 C122.8494,27.8008667 123.190733,27.5155333 123.6154,27.3035333 C123.650733,27.2862 123.694067,27.3002 123.7114,27.3362 C123.720733,27.3542 123.7214,27.3755333 123.714733,27.3928667" id="Fill-14" fill="#C8D7E2"></path>
                    <path d="M120.230067,25.7886667 C120.230067,25.7886667 121.400733,25.9833333 122.3034,25.3746667 L121.082733,23.9266667 L120.230067,25.7886667 Z" id="Fill-16" fill="#C8D7E2"></path>
                    <path d="M131.122933,56.9397333 C130.498933,56.9537333 129.872267,56.6930667 129.4356,56.2377333 C128.990267,55.7924 128.7556,55.1330667 128.774267,54.5184 L128.724933,51.0004 L128.6456,43.9644 L128.6136,36.9290667 L128.606267,33.3977333 C128.624267,32.7124 128.944267,32.0397333 129.4616,31.5890667 C129.7196,31.3617333 130.024267,31.1870667 130.3516,31.0810667 C130.6636,30.9690667 131.064933,30.9504 131.334267,30.9570667 C132.024933,30.9490667 132.7116,31.2517333 133.1776,31.7577333 C133.6536,32.2477333 133.894267,32.9830667 133.860267,33.6224 L133.848933,37.1410667 L133.824933,44.1764 L133.742933,51.2117333 L133.6656,54.7364 C133.628267,55.3710667 133.312933,55.9744 132.832267,56.3657333 C132.358267,56.7677333 131.710267,56.9330667 131.122933,56.8730667 L131.122933,56.9397333 Z M131.122933,56.7397333 C131.7056,56.7590667 132.2656,56.5657333 132.670267,56.1797333 C133.076267,55.8030667 133.308933,55.2617333 133.306933,54.7237333 L133.2376,51.2117333 L133.154933,44.1764 L133.1316,37.1410667 L133.120267,33.6224 C133.194267,32.5857333 132.324933,31.6990667 131.334267,31.7117333 C130.776933,31.6770667 130.332933,31.8224 129.950933,32.1477333 C129.5816,32.4657333 129.352933,32.9364 129.336267,33.4250667 L129.320933,36.9290667 L129.2896,43.9644 L129.210267,51.0004 L129.160267,54.5184 C129.126933,55.0750667 129.3036,55.6077333 129.672933,56.0144 C130.034933,56.4190667 130.570933,56.6670667 131.122933,56.6737333 L131.122933,56.7397333 Z" id="Fill-18" fill="#C8D7E2"></path>
                    <path d="M130.666533,30.9553333 C131.5092,30.994 132.210533,30.488 132.5212,29.7806667 C132.868533,29.086 132.9192,28.2633333 132.8452,27.476 C132.7672,26.682 132.5212,25.902 132.1612,25.1806667 C131.804533,24.4546667 131.321867,23.7973333 130.795867,23.178 L131.410533,23.0886667 C130.8532,24.2106667 130.293867,25.3133333 129.8572,26.45 C129.638533,27.0166667 129.4692,27.598 129.3872,28.18 C129.314533,28.7606667 129.3712,29.36 129.724533,29.8466667 C129.756533,29.89 129.7472,29.952 129.702533,29.9846667 C129.664533,30.0126667 129.612533,30.0086667 129.5792,29.9786667 C129.071867,29.5293333 128.887867,28.8006667 128.907867,28.15 C128.908533,27.486 129.075867,26.854 129.261867,26.244 C129.648533,25.0233333 130.222533,23.8966667 130.735867,22.768 C130.820533,22.582 131.039867,22.5006667 131.2252,22.5846667 C131.2712,22.606 131.3112,22.636 131.3432,22.67 L131.3512,22.6786667 C132.530533,23.9693333 133.371867,25.6313333 133.519867,27.4166667 C133.587867,28.3033333 133.447867,29.2373333 132.981867,30.0366667 C132.733867,30.4233333 132.397867,30.7733333 131.9732,30.9706667 C131.552533,31.1753333 131.067867,31.194 130.6472,31.0873333 C130.6112,31.0786667 130.589867,31.0426667 130.598533,31.0066667 C130.606533,30.9746667 130.6352,30.9546667 130.666533,30.9553333" id="Fill-20" fill="#C8D7E2"></path>
                    <path d="M133.239467,26.8434 C132.9748,27.0867333 132.6588,27.2327333 132.300133,27.2694 C131.9508,27.3127333 131.5268,27.2527333 131.2088,27.0700667 C130.8888,26.8920667 130.6828,26.7227333 130.4388,26.6314 C130.197467,26.5267333 129.9208,26.4674 129.608133,26.3714 L129.6008,26.3687333 C129.5268,26.3460667 129.4848,26.2680667 129.507467,26.1927333 C129.520133,26.1527333 129.550133,26.1214 129.586133,26.1054 C129.9008,25.9687333 130.264133,25.9260667 130.628133,26.0047333 C130.995467,26.0820667 131.313467,26.2827333 131.5508,26.3960667 C131.787467,26.5194 132.004133,26.5747333 132.2828,26.5980667 C132.5568,26.6267333 132.858133,26.6167333 133.204133,26.7154 L133.209467,26.7167333 C133.2488,26.7274 133.272133,26.7694 133.2608,26.8087333 C133.2568,26.8227333 133.249467,26.8347333 133.239467,26.8434" id="Fill-22" fill="#C8D7E2"></path>
                    <path d="M140.1692,45.5536667 L138.547867,70.0083333 C138.4052,72.159 136.462533,73.8363333 134.113867,73.8363333 L124.4012,73.8363333 C122.008533,73.8363333 120.045867,72.0983333 119.9612,69.905 L119.020533,45.5536667 L136.079867,45.5536667" id="Fill-24" fill="#FFFFFF"></path>
                    <path d="M140.235933,45.5582 C139.9766,51.5188667 139.653933,57.4762 139.293267,63.4308667 L139.0246,67.8962 L138.875267,70.1368667 C138.8066,70.9495333 138.479267,71.7282 137.981933,72.3648667 C136.987267,73.6515333 135.2886,74.2802 133.749267,74.1908667 L129.275267,74.2002 L124.801267,74.2102 C123.269267,74.3068667 121.535933,73.7128667 120.533933,72.4128667 C120.0286,71.7788667 119.6826,70.9955333 119.613267,70.1782 C119.557267,69.3882 119.551267,68.6755333 119.517267,67.9208667 L119.353933,63.4495333 L118.731267,45.5648667 C118.723933,45.4062 118.847267,45.2722 119.005267,45.2655333 C119.009267,45.2648667 119.0166,45.2648667 119.0206,45.2648667 L127.549933,45.3215333 C130.393267,45.3308667 133.2366,45.3862 136.079933,45.4202 C136.153267,45.4215333 136.2126,45.4822 136.211267,45.5555333 C136.2106,45.6275333 136.151933,45.6862 136.079933,45.6868667 C133.2366,45.7208667 130.393267,45.7768667 127.549933,45.7862 L119.0206,45.8428667 L119.309267,45.5428667 L120.067933,63.4222 L120.249933,67.8922 C120.285267,68.6268667 120.299933,69.4062 120.3526,70.1028667 C120.411267,70.7735333 120.697933,71.4142 121.119933,71.9408667 C121.545933,72.4702 122.1166,72.8788667 122.751267,73.1368667 C123.397267,73.4102 124.053933,73.4742 124.801267,73.4628667 L129.275267,73.4722 L133.749267,73.4822 C135.179933,73.5655333 136.573933,73.0222 137.441267,71.9368667 C137.8626,71.3995333 138.137933,70.7522 138.197933,70.0742 L138.3546,67.8515333 L138.677933,63.3895333 C139.1066,57.4395333 139.5726,51.4922 140.1026,45.5488667 C140.105933,45.5128667 140.1386,45.4855333 140.175267,45.4888667 C140.2106,45.4915333 140.237267,45.5228667 140.235933,45.5582" id="Fill-26" fill="#C8D7E2"></path>
                    <path d="M123.164933,50.2737333 C123.410933,51.3017333 123.544933,52.3370667 123.648933,53.3737333 C123.748267,54.4117333 123.8396,55.4504 123.904933,56.4904 C124.008933,58.5717333 124.174933,60.6497333 124.092267,62.7444 C124.0896,62.8184 124.026933,62.8764 123.952933,62.8730667 C123.888933,62.8710667 123.836933,62.8237333 123.826267,62.7630667 C123.456933,60.6997333 123.336267,58.6190667 123.152267,56.5417333 C123.074933,55.5030667 123.022933,54.4617333 122.978933,53.4204 C122.938933,52.3784 122.928933,51.3350667 123.0316,50.2830667 C123.0356,50.2457333 123.068267,50.2190667 123.1056,50.2224 C123.134933,50.2257333 123.158267,50.2470667 123.164933,50.2737333" id="Fill-28" fill="#C8D7E2"></path>
                    <path d="M42.3664667,61.9599333 L58.8978,61.9599333 L58.8978,21.2966 L54.7551333,21.2966 C47.9131333,21.2966 42.3664667,26.8432667 42.3664667,33.6859333 L42.3664667,61.9599333 Z" id="Fill-30" fill="#C2F4FF"></path>
                    <path d="M36.1144667,39.0419333 L35.8518,17.2226 L35.7591333,6.31193333 C35.7524667,5.3126 36.0358,4.3026 36.5851333,3.4526 C37.1384667,2.60793333 37.9404667,1.92126667 38.8838,1.53193333 C39.3524667,1.3286 39.8591333,1.2246 40.3644667,1.17526667 C40.8998,1.13526667 41.2984667,1.15926667 41.7704667,1.14926667 L44.4978,1.13726667 L66.3178,1.03726667 L88.1371333,1.00193333 L99.0471333,0.987933333 L104.502467,0.979933333 L107.2298,0.9766 C108.192467,0.935933333 109.337133,1.17926667 110.2118,1.74593333 C111.1158,2.29126667 111.8338,3.1246 112.2658,4.0826 C112.4758,4.5626 112.637133,5.07126667 112.695133,5.59393333 C112.736467,5.8486 112.7358,6.1286 112.745133,6.36726667 L112.746467,7.04926667 L112.753133,12.5039333 L112.768467,23.4146 L112.7218,67.0539333 L112.7218,67.0572667 C112.721133,67.4452667 112.406467,67.7606 112.017133,67.7599333 L112.0158,67.7599333 L85.4564667,67.6492667 L72.1771333,67.5252667 C67.7504667,67.4886 63.3238,67.3879333 58.8978,67.3206 C58.7504667,67.3179333 58.6324667,67.1966 58.6351333,67.0499333 C58.6371333,66.9052667 58.7538,66.7892667 58.8978,66.7872667 C63.3238,66.7199333 67.7504667,66.6192667 72.1771333,66.5826 L85.4564667,66.4586 L112.0158,66.3472667 L111.309133,67.0539333 L111.262467,23.4146 L111.277133,12.5039333 L111.284467,7.04926667 L111.2858,6.36726667 C111.2758,6.15326667 111.281133,5.97526667 111.249133,5.7806 C111.211133,5.39793333 111.0898,5.02926667 110.9398,4.67926667 C110.6278,3.98193333 110.106467,3.37126667 109.453133,2.97726667 C109.1298,2.77593333 108.777133,2.61926667 108.406467,2.53393333 C108.225133,2.47593333 108.033133,2.46326667 107.8458,2.43526667 C107.6578,2.42526667 107.4718,2.41193333 107.2298,2.4166 L104.502467,2.4126 L99.0471333,2.40526667 L88.1371333,2.38993333 L66.3178,2.35526667 L44.4978,2.25593333 L41.7704667,2.24326667 C41.3331333,2.24793333 40.8218,2.22393333 40.4498,2.25326667 C40.0531333,2.2906 39.6564667,2.3646 39.2871333,2.52193333 C37.7784667,3.09593333 36.7238,4.66926667 36.7358,6.31193333 L36.6438,17.2226 L36.3811333,39.0419333 C36.3798,39.1152667 36.3198,39.1746 36.2458,39.1739333 C36.1738,39.1726 36.1151333,39.1139333 36.1144667,39.0419333" id="Fill-32" fill="#86A6BD"></path>
                    <g id="Group-36" transform="translate(35.333333, 0.020667)">
                        <mask id="mask-4" fill="white">
                            <use xlink:href="#path-3"></use>
                        </mask>
                        <g id="Clip-35"></g>
                        <path d="M0.1988,13.7172667 L0.1988,9.55393333 L0.1988,6.1026 C0.1988,3.08926667 2.2568,0.645933333 4.79546667,0.645933333 L72.8008,0.645933333 C75.3394667,0.645933333 77.3974667,3.08926667 77.3974667,6.1026 L77.3974667,13.7172667 L0.1988,13.7172667 Z" id="Fill-34" fill="#00A9DE" mask="url(#mask-4)"></path>
                    </g>
                    <path d="M114.845933,13.7353333 C108.083933,14.2746667 101.321933,14.2346667 94.5606,14.2666667 L74.2752667,14.356 L53.9892667,14.2666667 C47.2279333,14.2346667 40.4659333,14.2753333 33.7039333,13.7353333 L33.7039333,13.402 C40.4659333,12.862 47.2279333,12.9026667 53.9892667,12.8706667 L74.2752667,12.7813333 L94.5606,12.8713333 C101.321933,12.9026667 108.083933,12.8633333 114.845933,13.402 L114.845933,13.7353333 Z" id="Fill-37" fill="#4E748F"></path>
                    <path d="M25.662,47.2014667 L27.7113333,44.5148 C28.3273333,43.7068 29.2853333,43.2328 30.3013333,43.2328 L36.7586667,43.2328 C37.7913333,43.2328 38.7626667,43.7228 39.3773333,44.5528 L41.3366667,47.2014667" id="Fill-39" fill="#FFFFFF"></path>
                    <path d="M25.6089333,47.1610667 C26.0202667,46.4704 26.4656,45.8057333 26.9142667,45.1437333 C27.1429333,44.8050667 27.3556,44.5010667 27.6222667,44.1524 C27.9009333,43.8177333 28.2369333,43.5230667 28.6249333,43.3137333 C29.0116,43.1030667 29.4402667,42.9697333 29.8776,42.9110667 C30.3369333,42.8630667 30.7102667,42.8857333 31.1156,42.8744 L33.5116,42.8557333 L35.9069333,42.8790667 C36.3156,42.8910667 36.6809333,42.8690667 37.1409333,42.9124 C37.5789333,42.9637333 38.0082667,43.0924 38.3942667,43.3030667 C38.7796,43.5130667 39.1276,43.7904 39.4096,44.1230667 C39.6989333,44.4730667 39.8869333,44.7830667 40.1216,45.1204 C40.5749333,45.7784 41.0116,46.4484 41.4436,47.1224 C41.4836,47.1844 41.4656,47.2670667 41.4029333,47.3070667 C41.3462667,47.3430667 41.2716,47.3317333 41.2289333,47.2810667 C40.7109333,46.6710667 40.1982667,46.0570667 39.7016,45.4304 C39.4509333,45.1350667 39.1976,44.7757333 38.9649333,44.5204 C38.7182667,44.2550667 38.4196,44.0397333 38.0969333,43.8824 C37.7722667,43.7297333 37.4249333,43.6244 37.0682667,43.5917333 C36.7316,43.5637333 36.2969333,43.5884 35.9069333,43.5864 L33.5116,43.6097333 L31.1156,43.5917333 C30.7229333,43.5930667 30.2956,43.5684 29.9589333,43.5997333 C29.6049333,43.6404 29.2556,43.7410667 28.9382667,43.9064 C28.6176,44.0664 28.3216,44.2810667 28.0729333,44.5457333 C27.8309333,44.8137333 27.5762667,45.1577333 27.3162667,45.4504 C26.7956,46.0577333 26.2722667,46.6630667 25.7149333,47.2424 C25.6896,47.2690667 25.6469333,47.2697333 25.6202667,47.2437333 C25.5969333,47.2224 25.5936,47.1877333 25.6089333,47.1610667" id="Fill-41" fill="#C8D7E2"></path>
                    <path d="M31.8068667,43.2327333 C31.7202,43.0787333 31.6568667,42.9234 31.6195333,42.7694 C31.5968667,42.6760667 31.5842,42.6460667 31.5582,42.6187333 C31.5402,42.5880667 31.5135333,42.5660667 31.4895333,42.5467333 C31.4408667,42.5067333 31.3815333,42.4947333 31.3308667,42.5034 L30.8835333,42.5100667 C30.7455333,42.4947333 30.6562,42.5640667 30.6295333,42.6947333 C30.6182,42.8194 30.6455333,43.0027333 30.9462,43.0994 C31.0188667,43.1227333 31.0588667,43.2007333 31.0355333,43.2740667 C31.0242,43.3087333 31.0002,43.3367333 30.9702,43.3534 L30.9462,43.3660667 C30.8108667,43.4394 30.5342,43.4420667 30.3475333,43.3174 C30.1442,43.2060667 30.0022,42.9767333 29.9762,42.7320667 C29.9462,42.4880667 30.0355333,42.2254 30.2088667,42.0387333 C30.3708667,41.8487333 30.6675333,41.7474 30.8835333,41.7540667 L31.3628667,41.7627333 C31.6215333,41.7834 31.8628667,41.9214 32.0095333,42.1220667 C32.0828667,42.2220667 32.1282,42.3407333 32.1502,42.4594 C32.1668667,42.5807333 32.1515333,42.7087333 32.1275333,42.7694 C32.0902,42.9234 32.0268667,43.0787333 31.9402,43.2327333 C31.9195333,43.2700667 31.8728667,43.2827333 31.8362,43.2620667 C31.8235333,43.2547333 31.8135333,43.2447333 31.8068667,43.2327333" id="Fill-43" fill="#C8D7E2"></path>
                    <path d="M36.7326667,43.2327333 C36.646,43.0787333 36.5826667,42.9234 36.5453333,42.7694 C36.5226667,42.6760667 36.51,42.6460667 36.484,42.6187333 C36.466,42.5880667 36.4393333,42.5660667 36.4153333,42.5467333 C36.3666667,42.5067333 36.3073333,42.4947333 36.2573333,42.5034 L35.8093333,42.5100667 C35.6713333,42.4947333 35.582,42.5640667 35.5553333,42.6947333 C35.544,42.8194 35.572,43.0027333 35.872,43.0994 C35.9446667,43.1227333 35.9846667,43.2007333 35.9613333,43.2740667 C35.95,43.3087333 35.926,43.3367333 35.896,43.3534 L35.872,43.3660667 C35.7366667,43.4394 35.46,43.4420667 35.2733333,43.3174 C35.07,43.2060667 34.928,42.9767333 34.902,42.7320667 C34.872,42.4880667 34.9613333,42.2254 35.1346667,42.0387333 C35.2966667,41.8487333 35.5933333,41.7474 35.8093333,41.7540667 L36.2886667,41.7627333 C36.5473333,41.7834 36.7886667,41.9214 36.9353333,42.1220667 C37.0086667,42.2220667 37.054,42.3407333 37.076,42.4594 C37.0926667,42.5807333 37.0773333,42.7087333 37.054,42.7694 C37.016,42.9234 36.9526667,43.0787333 36.866,43.2327333 C36.8453333,43.2700667 36.7993333,43.2827333 36.762,43.2620667 C36.7493333,43.2547333 36.7393333,43.2447333 36.7326667,43.2327333" id="Fill-45" fill="#C8D7E2"></path>
                    <path d="M46.2668,70.7763333 L14.2308,70.7763333 C12.0714667,70.7763333 10.3214667,69.0256667 10.3214667,66.867 L10.3214667,51.1116667 C10.3214667,48.9523333 12.0714667,47.2016667 14.2308,47.2016667 L46.2668,47.2016667 C48.4261333,47.2016667 50.1761333,48.9523333 50.1761333,51.1116667 L50.1761333,66.867 C50.1761333,69.0256667 48.4261333,70.7763333 46.2668,70.7763333" id="Fill-47" fill="#FFFFFF"></path>
                    <path d="M46.2668,70.6428667 C47.4801333,70.6382 48.6614667,70.0135333 49.3408,69.0162 C49.6868,68.5235333 49.8961333,67.9435333 49.9728,67.3515333 C50.0348,66.7682 49.9874667,66.1148667 49.9961333,65.4975333 L49.9494667,57.9888667 L49.9261333,54.2342 L49.9148,52.3568667 C49.8981333,51.7375333 49.9408,51.0835333 49.8514667,50.5268667 C49.6708,49.3768667 48.8828,48.3435333 47.8321333,47.8595333 C47.3068,47.6068667 46.7401333,47.4942 46.1434667,47.5102 L44.2661333,47.5215333 L14.2308,47.5355333 C13.0814667,47.5328667 11.9554667,48.1168667 11.3014667,49.0635333 C10.9688,49.5302 10.7661333,50.0822 10.6881333,50.6482 C10.6514667,50.9262 10.6534667,51.2195333 10.6548,51.5422 L10.6548,52.4808667 L10.6548,59.9895333 L10.6548,63.7435333 L10.6548,65.6208667 C10.6668,66.2402 10.6214667,66.8982 10.7054667,67.4415333 C10.8748,68.5735333 11.6441333,69.6002 12.6814667,70.0855333 C13.2001333,70.3388667 13.7601333,70.4548667 14.3541333,70.4428667 L16.2314667,70.4428667 L31.2494667,70.5435333 L38.7581333,70.5975333 L46.2668,70.7102 L46.2668,70.6428667 Z M46.2668,70.8428667 L38.7581333,70.9555333 L31.2494667,71.0095333 L16.2314667,71.1095333 L14.3541333,71.1095333 C13.6974667,71.1248667 12.9981333,70.9868667 12.3914667,70.6862 C11.1614667,70.1082 10.2508,68.8948667 10.0474667,67.5482 C9.94746667,66.8522 10.0028,66.2508667 9.98813333,65.6208667 L9.98813333,63.7435333 L9.98813333,59.9895333 L9.98813333,52.4808667 L9.98813333,51.5422 C9.98746667,51.2395333 9.98213333,50.9048667 10.0274667,50.5622 C10.1181333,49.8908667 10.3614667,49.2348667 10.7554667,48.6815333 C11.5294667,47.5595333 12.8681333,46.8635333 14.2308,46.8688667 L44.2661333,46.8815333 L46.1434667,46.8935333 C46.7981333,46.8822 47.4908,47.0235333 48.0901333,47.3242 C49.3068,47.9048667 50.1988,49.1108667 50.3914667,50.4388667 C50.4861333,51.1222 50.4274667,51.7282 50.4381333,52.3568667 L50.4268,54.2342 L50.4034667,57.9888667 L50.3561333,65.4975333 C50.3381333,66.1295333 50.3821333,66.7328667 50.3068,67.3948667 C50.2154667,68.0395333 49.9788,68.6675333 49.5974667,69.1955333 C48.8494667,70.2668667 47.5648,70.9215333 46.2668,70.9095333 L46.2668,70.8428667 Z" id="Fill-49" fill="#C8D7E2"></path>
                    <path d="M44.578,61.5660667 C43.6753333,65.4620667 40.1833333,68.3647333 36.0133333,68.3647333 C31.158,68.3647333 27.2213333,64.4294 27.2213333,59.5734 C27.2213333,54.7180667 31.158,50.7820667 36.0133333,50.7820667 C40.8686667,50.7820667 44.8046667,54.7180667 44.8046667,59.5734 C44.8046667,59.9127333 44.786,60.2467333 44.7486667,60.5754" id="Fill-51" fill="#FFFFFF"></path>
                    <path d="M44.6431333,61.581 C44.2031333,63.8163333 42.8491333,65.899 40.9004667,67.1783333 C38.9684667,68.4776667 36.5064667,68.969 34.2011333,68.519 C31.8944667,68.0683333 29.7924667,66.679 28.4624667,64.7376667 C27.1144667,62.8063333 26.5751333,60.3323333 26.9871333,58.0116667 C27.3851333,55.687 28.7324667,53.5523333 30.6424667,52.1823333 C32.5424667,50.795 34.9924667,50.2043333 37.3084667,50.5583333 C39.6264667,50.8983333 41.7884667,52.1783333 43.1744667,54.0496667 C43.8711333,54.9803333 44.3891333,56.0416667 44.6778,57.1623333 C44.9664667,58.2836667 45.0211333,59.4523333 44.8811333,60.5903333 C44.8718,60.663 44.8058,60.715 44.7324667,60.7063333 C44.6611333,60.6976667 44.6098,60.631 44.6158,60.5603333 C44.8064667,58.339 44.1338,56.0823333 42.7618,54.369 C41.3991333,52.653 39.3791333,51.4776667 37.2164667,51.2036667 C35.0604667,50.9063333 32.8031333,51.4583333 31.0584667,52.7543333 C29.3044667,54.031 28.0804667,56.0056667 27.7298,58.1403333 C27.3564667,60.2696667 27.8198,62.543 29.0538,64.333 C30.2678,66.1316667 32.2011333,67.4296667 34.3338,67.8623333 C36.4644667,68.319 38.7631333,67.9156667 40.6271333,66.753 C41.5671333,66.1863333 42.3918,65.4236667 43.0471333,64.5323333 C43.7144667,63.6496667 44.2184667,62.6343333 44.5131333,61.551 C44.5224667,61.515 44.5591333,61.4943333 44.5951333,61.5043333 C44.6291333,61.513 44.6498,61.547 44.6431333,61.581" id="Fill-53" fill="#C8D7E2"></path>
                    <path d="M41.6922667,61.4540667 C41.3082667,62.8960667 40.3242667,64.1900667 38.9989333,64.9660667 C37.6816,65.7600667 36.0409333,65.9807333 34.5309333,65.6380667 C33.0176,65.2854 31.6542667,64.3354 30.7876,63.0400667 C29.9069333,61.7507333 29.5556,60.1140667 29.8089333,58.5740667 C30.0576,57.0287333 30.9142667,55.6000667 32.1462667,54.6474 C33.3702667,53.6887333 34.9662667,53.2027333 36.5109333,53.3587333 C38.0536,53.4980667 39.5356,54.2314 40.5456,55.3894 C41.5742667,56.5314 42.1156,58.0700667 42.0602667,59.5740667 C42.0576,59.6474 41.9962667,59.7047333 41.9222667,59.7020667 C41.8522667,59.6994 41.7969333,59.6420667 41.7936,59.5740667 C41.7389333,58.1347333 41.1389333,56.7527333 40.1622667,55.7440667 C39.1856,54.7354 37.8489333,54.0927333 36.4596,54.0080667 C35.0722667,53.8994 33.6609333,54.3374 32.5829333,55.2034 C31.4982667,56.0614 30.7576,57.3327333 30.5536,58.6927333 C30.3349333,60.0494 30.6122667,61.4927333 31.3849333,62.6434 C32.1409333,63.8000667 33.3436,64.6587333 34.6902667,64.9880667 C36.0296,65.3314 37.5102667,65.1880667 38.7536,64.5234 C40.0116,63.8860667 41.0176,62.7587333 41.5656,61.4127333 C41.5796,61.3780667 41.6182667,61.3607333 41.6522667,61.3747333 C41.6836,61.3874 41.7002667,61.4220667 41.6922667,61.4540667" id="Fill-55" fill="#C8D7E2"></path>
                    <path d="M20.9637333,70.7763333 L11.9770667,70.7763333 C11.0624,70.7763333 10.3210667,70.035 10.3210667,69.1203333 L10.3210667,51.247 C10.3210667,47.8656667 13.0630667,45.123 16.4450667,45.123 L17.0204,45.123 C20.1130667,45.123 22.6197333,47.6303333 22.6197333,50.723 L22.6197333,69.1203333 C22.6197333,70.035 21.8784,70.7763333 20.9637333,70.7763333" id="Fill-57" fill="#FFFFFF"></path>
                    <path d="M20.9637333,70.6428667 C21.6344,70.6408667 22.2590667,70.1462 22.4050667,69.5035333 C22.4870667,69.2002 22.4330667,68.8275333 22.4417333,68.4655333 L22.4264,67.3802 L22.3770667,63.0408667 L22.2970667,54.3602 L22.2837333,52.1895333 C22.2717333,51.4735333 22.3077333,50.7202 22.2317333,50.0648667 C22.0677333,48.7142 21.3437333,47.4495333 20.2744,46.6135333 C19.7424,46.1942 19.1290667,45.8788667 18.4790667,45.6928667 C17.8164,45.4968667 17.1730667,45.4715333 16.4310667,45.4895333 C15.0677333,45.5002 13.7224,46.0062 12.6964,46.8982 C11.6630667,47.7808667 10.9610667,49.0408667 10.7637333,50.3855333 C10.6584,51.0415333 10.6950667,51.7682 10.6857333,52.4962 L10.6797333,54.6662 L10.6564,63.3468667 L10.6204,67.6868667 L10.6104,68.7715333 C10.6010667,69.1588667 10.5977333,69.4308667 10.7357333,69.7122 C10.8597333,69.9862 11.0817333,70.2148667 11.3497333,70.3548667 C11.6304,70.5068667 11.8964,70.5262 12.2830667,70.5235333 C15.1770667,70.5642 18.0704,70.6255333 20.9637333,70.7102 L20.9637333,70.6428667 Z M20.9637333,70.8428667 C18.0704,70.9275333 15.1770667,70.9888667 12.2830667,71.0288667 C11.9530667,71.0462 11.4684,71.0402 11.1044,70.8355333 C10.7284,70.6475333 10.4144,70.3348667 10.2317333,69.9528667 C10.0290667,69.5808667 10.0264,69.1015333 10.0324,68.7715333 L10.0217333,67.6868667 L9.9864,63.3468667 L9.96306667,54.6662 L9.95706667,52.4962 C9.96373333,51.7795333 9.91706667,51.0515333 10.0310667,50.2748667 C10.2490667,48.7582 11.0270667,47.3175333 12.2037333,46.3268667 C13.3677333,45.3242 14.8950667,44.7608667 16.4290667,44.7595333 C17.1297333,44.7428667 17.9517333,44.7748667 18.6790667,45.0028667 C19.4184,45.2182 20.1130667,45.5802 20.7137333,46.0595333 C21.9210667,47.0135333 22.7324,48.4522 22.9104,49.9795333 C22.9924,50.7628667 22.9457333,51.4615333 22.9557333,52.1895333 L22.9417333,54.3602 L22.8624,63.0408667 L22.8124,67.3802 L22.7977333,68.4655333 C22.7764,68.8228667 22.8310667,69.1868667 22.7204,69.5875333 C22.5190667,70.3662 21.7510667,70.9302 20.9637333,70.9095333 L20.9637333,70.8428667 Z" id="Fill-59" fill="#C8D7E2"></path>
                    <path d="M45.4331333,66.9521333 C45.7138,66.7621333 46.1618,66.9308 46.3238,67.2774667 C46.5024667,67.6174667 46.4351333,68.0808 46.1444667,68.3581333 C45.8604667,68.6388 45.4044667,68.7034667 45.0678,68.5294667 C44.7251333,68.3668 44.5451333,67.9508 44.6718,67.6468 C44.7018,67.5748 44.7851333,67.5401333 44.8584667,67.5701333 C44.8851333,67.5814667 44.9071333,67.6001333 44.9224667,67.6228 L44.9384667,67.6468 C45.1811333,68.0128 45.4844667,67.9694667 45.6104667,67.8241333 C45.6751333,67.7541333 45.7198,67.6521333 45.7031333,67.5354667 C45.6811333,67.4208 45.6491333,67.2694667 45.4331333,67.0854667 L45.4264667,67.0794667 C45.3924667,67.0501333 45.3884667,67.0001333 45.4171333,66.9661333 C45.4218,66.9608 45.4278,66.9561333 45.4331333,66.9521333" id="Fill-61" fill="#C8D7E2"></path>
                    <path d="M28.8127333,51.7229333 C27.9187333,51.8976 27.0240667,51.9596 26.1307333,51.9916 L25.4600667,52.0096 L25.2920667,52.0142667 C25.2394,52.0136 25.1907333,52.0236 25.0654,52.0076 C24.8534,51.9762667 24.6574,51.8509333 24.5407333,51.6702667 C24.4127333,51.5029333 24.4114,51.2089333 24.4167333,51.1476 L24.4147333,50.8122667 L24.4120667,50.4769333 L24.4107333,50.3096 C24.4127333,50.2482667 24.4067333,50.2196 24.4214,50.0889333 C24.4527333,49.8736 24.5800667,49.6762667 24.7594,49.5582667 C24.9180667,49.4296 25.2287333,49.4216 25.2887333,49.4316 L25.9594,49.4436 L27.3007333,49.4716 L27.9714,49.4996 L28.3067333,49.5136 C28.3807333,49.5129333 28.6327333,49.5262667 28.7714,49.6429333 C28.9227333,49.7489333 29.0207333,49.9196 29.0400667,50.0976 C29.0480667,50.2829333 29.0307333,50.3409333 29.0214,50.4696 C28.9967333,50.6929333 28.9787333,50.9162667 28.9460667,51.1402667 C28.9354,51.2136 28.8667333,51.2649333 28.7934,51.2536 C28.7327333,51.2449333 28.6880667,51.1976 28.6794,51.1402667 C28.6460667,50.9162667 28.6287333,50.6929333 28.6034,50.4696 C28.5900667,50.3749333 28.5880667,50.2082667 28.5740667,50.1722667 C28.5587333,50.1282667 28.5254,50.0949333 28.4874,50.0809333 C28.4787333,50.0596 28.1827333,50.0956 27.9714,50.0956 L27.3007333,50.1236 L25.9594,50.1516 L25.2887333,50.1629333 C25.1287333,50.1642667 25.2027333,50.1676 25.1747333,50.1736 C25.1687333,50.1809333 25.1667333,50.1889333 25.1680667,50.1942667 L25.1660667,51.2709333 C25.1680667,51.2796 25.1754,51.2889333 25.1847333,51.2922667 C25.1694,51.2949333 25.2334,51.2969333 25.2920667,51.2982667 L25.4600667,51.3022667 L26.1307333,51.3202667 C27.0240667,51.3522667 27.9187333,51.4149333 28.8127333,51.5896 C28.8494,51.5969333 28.8734,51.6322667 28.8660667,51.6689333 C28.8607333,51.6969333 28.8387333,51.7176 28.8127333,51.7229333" id="Fill-63" fill="#C8D7E2"></path>
                    <path d="M11.5604667,46.9221333 C12.0991333,46.8274667 12.7044667,46.9034667 13.2198,47.2088 C13.7391333,47.5081333 14.0964667,47.9714667 14.4351333,48.3621333 C14.7691333,48.7634667 15.1164667,49.0954667 15.5324667,49.2888 C15.9424667,49.4934667 16.4218,49.5581333 16.9144667,49.5574667 C17.4084667,49.5581333 17.8911333,49.4828 18.3238,49.2861333 C18.7611333,49.0954667 19.1344667,48.7741333 19.5184667,48.4174667 C19.9058,48.0694667 20.2951333,47.6488 20.8191333,47.3808 C21.3331333,47.1001333 21.9318,47.0074667 22.4804667,47.0688 C22.5538,47.0761333 22.6071333,47.1428 22.5991333,47.2161333 C22.5918,47.2801333 22.5411333,47.3281333 22.4804667,47.3348 C21.9638,47.3948 21.4851333,47.5468 21.0864667,47.8261333 C20.6878,48.1068 20.3438,48.4821333 19.9738,48.8794667 C19.6038,49.2728 19.1591333,49.6654667 18.6231333,49.9241333 C18.0884667,50.1861333 17.4944667,50.2941333 16.9244667,50.3088 C16.3544667,50.3254667 15.7471333,50.2288 15.1998,49.9534667 C14.6511333,49.6741333 14.2398,49.2148 13.9118,48.7868 C13.5804667,48.3534667 13.3024667,47.9334667 12.9311333,47.6294667 C12.5664667,47.3161333 12.0844667,47.1488 11.5604667,47.0548 C11.5238,47.0488 11.4991333,47.0141333 11.5051333,46.9768 C11.5104667,46.9481333 11.5331333,46.9268 11.5604667,46.9221333" id="Fill-65" fill="#C8D7E2"></path>
                    <path d="M50.2430667,50.7268667 C50.4404,51.9768667 50.0497333,53.2708667 49.6157333,54.3955333 C49.1804,55.5328667 48.8790667,56.6622 48.8737333,57.8408667 C48.8277333,59.0228667 49.0990667,60.1548667 49.5724,61.2722 C49.7857333,61.8402 50.0430667,62.4195333 50.1770667,63.0448667 C50.3224,63.6648667 50.3677333,64.3075333 50.3097333,64.9315333 C50.3030667,65.0048667 50.2377333,65.0588667 50.1637333,65.0522 C50.0990667,65.0468667 50.0497333,64.9935333 50.0430667,64.9315333 C49.9797333,64.3288667 49.8650667,63.7462 49.6744,63.1868667 C49.4810667,62.6288667 49.2324,62.0862 48.9717333,61.5248667 C48.4397333,60.4075333 48.1004,59.1082 48.1190667,57.8308667 C48.1157333,57.1915333 48.2137333,56.5488667 48.3630667,55.9288667 C48.5224,55.3088667 48.7530667,54.7175333 48.9904,54.1495333 C49.2310667,53.5808667 49.4797333,53.0355333 49.6797333,52.4748667 C49.8817333,51.9155333 50.0157333,51.3335333 50.1097333,50.7268667 C50.1157333,50.6895333 50.1497333,50.6648667 50.1870667,50.6702 C50.2164,50.6748667 50.2384,50.6988667 50.2430667,50.7268667" id="Fill-67" fill="#C8D7E2"></path>
                    <g id="Group-71" transform="translate(0.000000, 54.687333)">
                        <mask id="mask-6" fill="white">
                            <use xlink:href="#path-5"></use>
                        </mask>
                        <g id="Clip-70"></g>
                        <path d="M10.3879333,0.1144 C10.4259333,1.56573333 10.2732667,3.0384 9.81993333,4.44306667 C9.3606,5.8464 8.5306,7.12573333 7.4866,8.17373333 C6.43993333,9.22506667 5.19726667,10.0297333 4.01593333,10.8484 C2.84393333,11.6610667 1.6706,12.5357333 1.09793333,13.7617333 C0.521266667,14.9570667 0.583266667,16.4724 1.0166,17.7277333 C1.4806,18.9997333 2.5826,19.9350667 3.8326,20.5230667 C5.09326667,21.1170667 6.4926,21.4350667 7.8986,21.6364 C9.3106,21.8290667 10.7432667,21.9050667 12.1779333,21.9110667 C17.9279333,21.9177333 23.6679333,21.0210667 29.3366,19.9464 C35.0152667,18.8744 40.6352667,17.4804 46.2152667,15.9617333 C46.2859333,15.9404 46.3599333,15.9817333 46.3806,16.0517333 C46.4006,16.1210667 46.3599333,16.1937333 46.2926,16.2164 C43.5306,17.1010667 40.7432667,17.8924 37.9339333,18.6077333 C35.1259333,19.3284 32.3032667,19.9924 29.4626,20.5824 C26.6212667,21.1670667 23.7586,21.6557333 20.8779333,22.0344 C17.9972667,22.4064 15.0946,22.6664 12.1739333,22.6664 C10.7139333,22.6664 9.24993333,22.5724 7.79393333,22.3677333 C6.3426,22.1517333 4.8846,21.8170667 3.52393333,21.1677333 C2.17993333,20.5324 0.901933333,19.4584 0.369266667,17.9697333 C0.105266667,17.2317333 -0.00273333333,16.4797333 -6.66666667e-05,15.7177333 C0.00326666667,14.9557333 0.153266667,14.1717333 0.495933333,13.4710667 C1.19526667,12.0464 2.49326667,11.1590667 3.68126667,10.3570667 C4.89526667,9.55706667 6.09793333,8.77906667 7.13793333,7.8144 C8.16793333,6.84573333 8.99526667,5.6604 9.48526667,4.32306667 C9.9906,2.99306667 10.2186,1.55506667 10.2546,0.1144 C10.2552667,0.0770666667 10.2859333,0.0484 10.3226,0.0490666667 C10.3586,0.0497333333 10.3872667,0.0790666667 10.3879333,0.1144" id="Fill-69" fill="#C8D7E2" mask="url(#mask-6)"></path>
                    </g>
                    <path d="M68.1174,64.5543333 C69.2120667,63.3583333 70.5434,62.3896667 72.0040667,61.6556667 C73.4667333,60.9296667 75.0954,60.4816667 76.7587333,60.457 C78.4247333,60.4496667 80.0360667,60.8416667 81.5794,61.2963333 C83.1287333,61.7536667 84.6407333,62.2596667 86.1727333,62.6663333 C89.2214,63.451 92.4794,63.8616667 95.3754,62.5363333 C98.2774,61.3223333 100.870067,59.3656667 103.1814,57.193 L103.186733,57.1876667 C103.240733,57.1376667 103.324733,57.1403333 103.3754,57.1936667 C103.422733,57.2443333 103.422733,57.3236667 103.376733,57.3743333 C102.286733,58.5703333 101.0914,59.657 99.8020667,60.6363333 C98.5187333,61.6216667 97.1234,62.4743333 95.6234,63.1283333 C94.1340667,63.7783333 92.4660667,64.1883333 90.8120667,64.095 C89.1787333,64.0516667 87.5560667,63.791 85.9874,63.3863333 C84.4134,62.9956667 82.8914,62.459 81.3707333,61.9983333 C79.8520667,61.5343333 78.3120667,61.1523333 76.7627333,61.1463333 C73.6514,61.1743333 70.6547333,62.635 68.2127333,64.6476667 L68.2087333,64.651 C68.1800667,64.6743333 68.1380667,64.6696667 68.1154,64.6416667 C68.0934,64.6156667 68.0954,64.5783333 68.1174,64.5543333" id="Fill-72" fill="#C8D7E2"></path>
                </g>
            </g>
        </g>
    </g>
</svg>