
<svg width="100px" height="103px" viewBox="0 0 100 103" version="1.1" xmlns="http://www.w3.org/2000/svg" xmlns:xlink="http://www.w3.org/1999/xlink">
    <!-- Generator: Sketch 48.2 (47327) - http://www.bohemiancoding.com/sketch -->
    <desc>Created with Sketch.</desc>
    <defs>
        <polygon id="path-1" points="59.3469778 0.883140054 0.0318778086 0.883140054 0.0318778086 0.00441570027 59.3469778 0.00441570027 59.3469778 0.883140054"></polygon>
        <polygon id="path-3" points="60.8072951 1.76628011 0.337407578 1.76628011 0.337407578 0.00945349004 60.8072951 0.00945349004"></polygon>
        <polygon id="path-5" points="4.78864302e-20 0.239892112 4.78864302e-20 17.1418311 18.8140028 17.1418311 18.8140028 0.239892112"></polygon>
        <polygon id="path-7" points="6.30056432 0.249658043 0.337615882 0.249658043 0.337615882 17.3149266 6.30056432 17.3149266 6.30056432 0.249658043"></polygon>
    </defs>
    <g id="Ideation---Mobile-v3" stroke="none" stroke-width="1" fill="none" fill-rule="evenodd">
        <g id="6@2x" transform="translate(-137.000000, -209.000000)">
            <g id="Page-1" transform="translate(137.000000, 209.000000)">
                <g id="Group-54" transform="translate(0.000000, 0.282605)">
                    <path d="M8.06197045,32.9808596 C7.12297076,33.1018498 6.69984672,32.6443833 6.1954546,32.2796464 C5.69106248,31.9131433 5.20257064,31.5298605 4.73881256,31.1192004 C4.27770452,30.7050077 3.84133026,30.2625546 3.41908957,29.8042049 C3.00038227,29.3440889 2.4968735,28.9767026 2.51100708,28.0299765 L2.8051622,27.7005653 C3.7441619,27.5786919 4.16728593,28.0361585 4.67167805,28.4000122 C5.17518683,28.7673985 5.66456202,29.1506812 6.1283201,29.5622245 C6.58942813,29.9764172 7.0258024,30.4188704 7.44715974,30.8763369 C7.86675038,31.337336 8.36937581,31.7056054 8.35612558,32.6514484 L8.06197045,32.9808596 Z" id="Fill-2" fill="#C8D7E2"></path>
                    <path d="M24.8620265,27.4413637 L22.5953536,29.0124698 C22.1996134,29.2862432 22.3948335,29.9062076 22.8762585,29.9035581 L25.6976744,29.8911942 L26.6207738,32.5997847 C26.7727098,33.0440042 27.401654,33.0413547 27.5491733,32.595369 L28.4484223,29.8788302 L31.1894534,29.8664663 C31.6708784,29.8638168 31.8607984,29.2429694 31.4632915,28.9718454 L29.2469695,27.4660916 L30.1992195,24.5897044 C30.3502721,24.133121 29.8202629,23.7551371 29.4377729,24.0465733 L27.054498,25.8561273 L24.6553229,24.0686518 C24.2692995,23.779865 23.743707,24.1631478 23.8991764,24.6188481 L24.8620265,27.4413637 Z" id="Fill-4" fill="#FBC239"></path>
                    <path d="M42.2028686,23.7734181 C40.7638935,23.7734181 39.5987565,22.6076732 39.5987565,21.1699212 C39.5987565,19.7321692 40.7638935,18.5664243 42.2028686,18.5664243 C43.6409603,18.5664243 44.8060973,19.7321692 44.8060973,21.1699212 C44.8060973,22.6076732 43.6409603,23.7734181 42.2028686,23.7734181" id="Fill-6" fill="#C2F4FF"></path>
                    <path d="M82.9395549,20.2227535 L79.4220603,12.7646357" id="Fill-8" fill="#FFFFFF"></path>
                    <path d="M82.789474,20.293493 C82.0112438,19.9004957 81.758606,19.2602191 81.4220502,18.6588008 C81.0819609,18.0600318 80.780739,17.4418338 80.4733336,16.8271683 C80.1941954,16.1992557 79.9088738,15.5731094 79.6633029,14.9301835 C79.4141985,14.2872575 79.0794094,13.6858391 79.2728627,12.8353753 L79.5714346,12.6940729 C80.3505482,13.0870702 80.6023026,13.7273467 80.9397418,14.327882 C81.279831,14.927534 81.5810529,15.5448489 81.8884583,16.1595144 C82.1675965,16.7883101 82.4520348,17.4135733 82.6976057,18.0573824 C82.9475934,18.6994252 83.2814992,19.3017267 83.0898126,20.1521906 L82.789474,20.293493 Z" id="Fill-10" fill="#C8D7E2"></path>
                    <path d="M77.4506026,18.2520265 L84.9104826,14.7353628" id="Fill-12" fill="#FFFFFF"></path>
                    <path d="M77.3807298,18.101981 C77.7729366,17.3239346 78.4142478,17.0713565 79.0158082,16.7348802 C79.6138353,16.3948712 80.2330628,16.0937205 80.8469902,15.7863877 C81.4759344,15.5073155 82.1013453,15.2220613 82.7444232,14.9765483 C83.3875011,14.7275028 83.9890616,14.3927927 84.8397264,14.5862004 L84.9810622,14.8847018 C84.5888553,15.6636313 83.9484275,15.9153262 83.346867,16.2526857 C82.7470733,16.5926946 82.1296125,16.8938454 81.5148018,17.2011781 C80.8867408,17.4802504 80.2604466,17.7646215 79.6164854,18.0101344 C78.9751742,18.260063 78.371847,18.59389 77.5211822,18.4022486 L77.3807298,18.101981 Z" id="Fill-14" fill="#C8D7E2"></path>
                    <path d="M56.6651422,33.6173387 L54.0760471,28.1295064" id="Fill-16" fill="#FFFFFF"></path>
                    <path d="M56.5650588,33.6647633 C56.0262161,33.3591968 55.8371794,32.8893663 55.5924918,32.44603 C55.3451542,32.0035769 55.124317,31.5487597 54.8990631,31.096592 C54.6932428,30.6338266 54.4830058,30.1745938 54.298386,29.702997 C54.1119994,29.2305171 53.8681951,28.7871808 53.976847,28.176931 L54.1764838,28.0833182 C54.7162099,28.3871183 54.9043632,28.857832 55.1490508,29.3011683 C55.3963884,29.7445046 55.6172256,30.1984386 55.8424795,30.6514894 C56.0482998,31.1124886 56.2585368,31.5726045 56.4431567,32.0450844 C56.6295432,32.5157981 56.8724641,32.9600175 56.7646956,33.5702673 L56.5650588,33.6647633 Z" id="Fill-18" fill="#00A9DE"></path>
                    <path d="M52.6262068,32.167576 L58.1153358,29.5799756" id="Fill-20" fill="#FFFFFF"></path>
                    <path d="M52.5796544,32.0675162 C52.8844097,31.5288008 53.3543512,31.3398088 53.7977922,31.095179 C54.24035,30.8478998 54.6961579,30.6271148 55.1484324,30.4019141 C55.6104238,30.1961424 56.0697652,29.9859551 56.5423567,29.8013788 C57.0140649,29.6150363 57.457506,29.3712896 58.0679,29.4799158 L58.1615349,29.6795055 C57.857663,30.2191041 57.3868381,30.4072129 56.943397,30.6518427 C56.5008393,30.8991219 56.0459147,31.1207901 55.5927568,31.3459908 C55.1316488,31.5517624 54.6714241,31.7610666 54.1988326,31.9456429 C53.7280077,32.1319854 53.2836833,32.3748489 52.6732893,32.267989 L52.5796544,32.0675162 Z" id="Fill-22" fill="#00A9DE"></path>
                    <path d="M75.6079372,58.9049944 C75.6079372,63.1140398 72.9093069,66.7013547 69.1524247,68.0348962 L69.1524247,55.8775902 L75.6079372,55.8775902 L75.6079372,58.9049944 Z M23.9620708,58.9049944 L23.9620708,55.8775902 L30.4175833,55.8775902 L30.4175833,68.0313637 C26.6607011,66.7013547 23.9620708,63.1140398 23.9620708,58.9049944 Z M69.1524247,49.4244859 L69.1524247,42.7691424 L30.4175833,42.7691424 L30.4175833,49.4244859 L17.5065583,49.4244859 L17.5065583,58.9049944 C17.5065583,67.0537276 23.6034312,73.7435135 31.4634681,74.8209444 C33.7230742,81.4630407 39.4842745,86.471328 46.5572478,87.6591514 L46.5572478,97.8276259 L53.0127602,97.8276259 L53.0127602,87.6591514 C60.0857335,86.471328 65.8469338,81.4630407 68.1065399,74.8209444 C75.9665768,73.7435135 82.064333,67.0537276 82.064333,58.9049944 L82.064333,49.4244859 L69.1524247,49.4244859 Z" id="Fill-24" fill="#74DCFC"></path>
                    <path d="M30.8996267,42.7694957 C31.6504731,47.4492548 31.5462379,52.1254814 31.6266227,56.8034743 L31.7494081,70.7464894 C31.9958624,72.9287285 32.6354069,75.1286304 33.5929569,77.1280595 C34.5460902,79.1345537 35.8357793,80.9820827 37.4779246,82.465758 C38.2914888,83.2137776 39.1810209,83.8840809 40.143871,84.4378097 C40.6120459,84.7371942 41.1226214,84.9623949 41.6111133,85.2317526 C42.1252222,85.4490051 42.6269643,85.6971674 43.1569735,85.8852762 C45.2540434,86.6986482 47.4844989,87.2223503 49.7935725,87.6497901 L49.7767889,88.0913601 C47.4076476,88.3474707 44.9660717,88.1213869 42.628731,87.4219399 C41.4618273,87.0713333 40.3205408,86.5979703 39.2525722,85.9859542 C38.1722367,85.3951335 37.1625691,84.6700755 36.2341696,83.8558204 C34.3650037,82.2352584 32.8650776,80.2093351 31.7812087,78.0050175 C30.7026399,75.7909854 29.9915442,73.4391835 29.6876722,70.9716902 L29.6408547,70.4585858 L29.6373213,70.0090675 L29.6373213,69.1303431 L29.6461548,67.3720113 L29.6629384,63.857997 L29.7300729,56.8273191 C29.8104577,52.1413779 29.7071059,47.4536705 30.4579523,42.7694957 L30.8996267,42.7694957 Z" id="Fill-26" fill="#004F84"></path>
                    <path d="M35.2698178,101.218089 C35.2698178,101.218089 36.6098578,97.5592397 40.9338498,97.5592397 L57.5655396,97.5592397 C57.5655396,97.5592397 61.7208119,96.8942352 64.3001902,101.218089 L35.2698178,101.218089 Z" id="Fill-28" fill="#74DCFC"></path>
                    <polygon id="Fill-30" fill="#FFFFFF" points="52.9988917 62.923105 54.1666787 67.141865 50.5007815 64.752088 46.8322342 67.141865 48.1864078 62.9027927 44.3252906 60.1650586 49.0609231 60.1606429 50.5007815 55.653096 51.9379898 60.1571103 56.3891841 60.1526946"></polygon>
                    <g id="Group-34" transform="translate(20.667898, 101.210229)">
                        <mask id="mask-2" fill="white">
                            <use xlink:href="#path-1"></use>
                        </mask>
                        <g id="Clip-33"></g>
                        <path d="M0.0318778086,0.00441570027 L59.3469778,0.00441570027" id="Fill-32" fill="#FFFFFF" mask="url(#mask-2)"></path>
                    </g>
                    <g id="Group-37" transform="translate(19.784549, 100.327089)">
                        <mask id="mask-4" fill="white">
                            <use xlink:href="#path-3"></use>
                        </mask>
                        <g id="Clip-36"></g>
                        <path d="M0.915226531,0.299296164 C5.85844598,0.204800178 10.8007821,0.121785013 15.7440015,0.0864594112 C20.687221,0.0228733274 25.6304404,0.0405361285 30.5727765,0.0140419269 C35.515996,-0.00450401427 40.4592155,0.0378867083 45.4015516,0.0573157895 L52.8163807,0.145629795 L60.2303266,0.299296164 C60.5562822,0.305478145 60.8142201,0.574835861 60.8071533,0.899831401 C60.8000865,1.21599554 60.5439154,1.46945674 60.2303266,1.47652186 L52.8163807,1.63018822 L45.4015516,1.71850223 C40.4592155,1.73793131 35.515996,1.78032203 30.5727765,1.76177609 C25.6304404,1.73528189 20.687221,1.75294469 15.7440015,1.68847547 C10.8007821,1.65403301 5.85844598,1.5701347 0.915226531,1.47652186 C0.589270853,1.47033988 0.331333026,1.20098216 0.337516467,0.875986619 C0.343699908,0.55893934 0.600754386,0.305478145 0.915226531,0.299296164" id="Fill-35" fill="#C8D7E2" mask="url(#mask-4)"></path>
                    </g>
                    <g id="Group-40" transform="translate(0.000000, 11.480821)">
                        <mask id="mask-6" fill="white">
                            <use xlink:href="#path-5"></use>
                        </mask>
                        <g id="Clip-39"></g>
                        <path d="M0.00485841797,0.26414154 C1.16911203,0.152865894 2.35721607,0.434587571 3.42695137,0.903534939 C4.50905355,1.36718347 5.47543706,2.04720131 6.36231918,2.80758489 C7.23860111,3.58474814 8.04774854,4.43874457 8.65814251,5.50469462 C9.26146968,6.57329408 9.50174054,7.78231282 9.69342721,8.88712102 C9.89129732,9.99811121 10.1086011,11.0163717 10.8037966,11.7105198 C11.496342,12.4541237 12.4750923,12.8577187 13.5404109,13.1155956 C14.5986627,13.3929016 15.7832333,13.52184 16.8856525,14.1214921 C18.0075054,14.7211442 18.6974007,15.9328124 18.8140028,17.0773619 L18.6028824,17.1418311 C18.0940736,16.1244538 17.4200785,15.3031335 16.4881456,14.8783431 C15.5632795,14.4288249 14.4529101,14.2866393 13.3213404,14.0314118 C12.1977208,13.7858989 10.9698661,13.3319649 10.082984,12.417915 C9.62894275,11.9683967 9.2817867,11.3819917 9.07949985,10.7964698 C8.87279624,10.2065323 8.78446137,9.61924413 8.68994306,9.06021647 C8.51592336,7.94039489 8.3154032,6.88857508 7.81542782,5.96392745 C7.3163358,5.04987749 6.56548938,4.2188427 5.76164204,3.4867196 C4.94189443,2.76519417 4.04176208,2.12580077 3.08332872,1.60563128 C2.1275454,1.07221469 1.10462758,0.677451085 -0.000441674361,0.484926554 L0.00485841797,0.26414154 Z" id="Fill-38" fill="#0084C0" mask="url(#mask-6)"></path>
                    </g>
                    <path d="M65.9705143,26.8333217 L68.9632998,20.0243119" id="Fill-41" fill="#44D0A3"></path>
                    <path d="M65.7686691,26.7444778 C65.3632121,25.8887151 65.667084,25.345584 65.8578873,24.7521139 C66.0504574,24.1604101 66.2642278,23.5766545 66.5115654,23.0096786 C66.7624364,22.4418195 67.0477581,21.8907401 67.3533967,21.3484921 C67.6625688,20.8062441 67.8551388,20.2145403 68.7605713,19.935468 L69.165145,20.1129792 C69.5714854,20.9687419 69.2667301,21.5109899 69.0759267,22.10446 C68.8824734,22.6961638 68.6695863,23.2799194 68.4222487,23.8477785 C68.1713777,24.4147544 67.8851727,24.9658338 67.5804174,25.5089649 C67.2721287,26.0503298 67.0769086,26.6420336 66.1732428,26.9211059 L65.7686691,26.7444778 Z" id="Fill-43" fill="#7BDEBF"></path>
                    <path d="M35.398345,15.7880657 L36.7869692,16.7515715 C37.0298901,16.918485 36.9097547,17.2991183 36.6147162,17.2973521 L34.8860028,17.2894038 L34.3197762,18.9497071 C34.2270246,19.2217142 33.8410012,19.219948 33.751783,18.9470577 L33.2005734,17.2823387 L31.5204441,17.2752736 C31.2254057,17.2735073 31.109687,16.8919908 31.3534912,16.7259605 L32.7111982,15.8039622 L32.1273047,14.0403315 C32.0345531,13.7612593 32.3596254,13.5298766 32.5937128,13.7082709 L34.0547716,14.8166117 L35.5255472,13.721518 C35.760518,13.54489 36.0829403,13.7798052 35.988422,14.0588775 L35.398345,15.7880657 Z" id="Fill-45" fill="#FCD56E"></path>
                    <path d="M93.5846137,31.4879114 C93.5846137,29.8037633 92.2180733,28.4375456 90.5335272,28.4375456 C88.8489812,28.4375456 87.4833241,29.8037633 87.4833241,31.4879114 C87.4833241,33.1720595 88.8489812,34.537394 90.5335272,34.537394 C92.2180733,34.537394 93.5846137,33.1720595 93.5846137,31.4879114" id="Fill-47" fill="#D9A2DC"></path>
                    <path d="M99.8888086,11.9657472 C98.7846227,12.1582718 97.7608215,12.5530354 96.8050382,13.086452 C95.8466048,13.6066215 94.9473558,14.2460149 94.1276082,14.9675403 C93.3228775,15.6996634 92.5720311,16.5306982 92.0738224,17.4447481 C91.5729637,18.3693958 91.3724435,19.4212156 91.1984238,20.5410372 C91.1047889,21.1000648 91.0155706,21.687353 90.808867,22.2772905 C90.6074635,22.8628124 90.2603075,23.4492174 89.8053829,23.8987357 C88.9185008,24.8127856 87.690646,25.2667196 86.5679098,25.5122325 C85.4354568,25.76746 84.3259708,25.9096456 83.4011046,26.3591638 C82.4682884,26.7839542 81.7951767,27.6052745 81.2863678,28.6226518 L81.0752475,28.5581826 C81.1918495,27.4136331 81.8808615,26.2019649 83.0027144,25.6023128 C84.1060169,25.0026607 85.2905876,24.8737223 86.3488393,24.5964163 C87.4132745,24.3385394 88.3920249,23.9349444 89.0854537,23.1913405 C89.7806491,22.4971924 89.9970696,21.4789319 90.1949397,20.3679417 C90.3875097,19.2631335 90.6277805,18.0541148 91.2311077,16.9855153 C91.8415017,15.9195653 92.6497658,15.0655688 93.5269311,14.2884056 C94.4129298,13.528022 95.3801967,12.8480042 96.4614155,12.3843556 C97.5320342,11.9154083 98.7192548,11.6336866 99.8835085,11.7449622 L99.8888086,11.9657472 Z" id="Fill-49" fill="#C879CC"></path>
                    <g id="Group-53" transform="translate(42.400739, 0.000000)">
                        <mask id="mask-8" fill="white">
                            <use xlink:href="#path-7"></use>
                        </mask>
                        <g id="Clip-52"></g>
                        <path d="M5.38948723,17.2248463 C5.70219267,15.6899489 5.50962265,14.1665323 5.09444875,12.7040523 C4.86742813,11.9860595 4.55825608,11.2689497 4.13601539,10.7072727 C3.70847461,10.1394136 3.12369775,9.70490871 2.46030286,9.25803985 C2.13081379,9.02930657 1.7774743,8.7917419 1.45063527,8.4720452 C1.12379624,8.15764734 0.835824561,7.73638953 0.676821791,7.29040381 C0.341149277,6.41521201 0.422417359,5.45347249 0.615870729,4.65776331 C0.803140659,3.8505733 1.04517821,3.11226821 1.04517821,2.42076955 C1.06019514,1.73721915 0.789007079,1.08899435 0.337615882,0.413392209 L0.485135118,0.249128159 C1.2262647,0.619163842 1.84372545,1.44931549 1.89849307,2.38191139 C1.96121083,3.29684448 1.69002278,4.10315135 1.56017051,4.85293726 C1.42060142,5.6036063 1.38880086,6.30570265 1.6379052,6.93361522 C1.85167559,7.53415046 2.39405171,7.95452513 3.04949646,8.41287481 C3.69434103,8.86504252 4.42133703,9.38874457 4.93456263,10.1217508 C5.44425485,10.8582896 5.74282672,11.6407517 5.97514743,12.4470586 C6.19156787,13.2524823 6.33555371,14.0835171 6.29315297,14.9251496 C6.26576916,15.7606001 6.05376547,16.6163628 5.59177408,17.3149266 L5.38948723,17.2248463 Z" id="Fill-51" fill="#C2F4FF" mask="url(#mask-8)"></path>
                    </g>
                </g>
            </g>
        </g>
    </g>
</svg>