<svg width="54" height="48" fill="none" xmlns="http://www.w3.org/2000/svg"><path fill-rule="evenodd" clip-rule="evenodd" d="M33.364 4.496L40.125 0l6.438 5.351c.123.327.411.572.762.634l4.883 4.058a1 1 0 101.042 1.619v4.676a1 1 0 100 1.323v4.677a1 1 0 100 1.323v2.52l-9.926 8.251a1 1 0 10-1.532 1.274L28.474 46.775a1 1 0 10-1.374 1.142L27 48 .75 26.182V10.909L13.875 0 27 8.727l4.701-3.126A.998.998 0 0033.5 5a.995.995 0 00-.136-.504zM28.5 11a1 1 0 11-2 0 1 1 0 012 0zm-1 7a1 1 0 100-2 1 1 0 000 2zm1 5a1 1 0 11-2 0 1 1 0 012 0zm-1 7a1 1 0 100-2 1 1 0 000 2zm1 5a1 1 0 11-2 0 1 1 0 012 0zm-1 7a1 1 0 100-2 1 1 0 000 2zm6-31a1 1 0 11-2 0 1 1 0 012 0zm-1 7a1 1 0 100-2 1 1 0 000 2zm1 5a1 1 0 11-2 0 1 1 0 012 0zm-1 7a1 1 0 100-2 1 1 0 000 2zm1 5a1 1 0 11-2 0 1 1 0 012 0zm-1 7a1 1 0 100-2 1 1 0 000 2zm6-37a1 1 0 11-2 0 1 1 0 012 0zm-1 7a1 1 0 100-2 1 1 0 000 2zm1 5a1 1 0 11-2 0 1 1 0 012 0zm-1 7a1 1 0 100-2 1 1 0 000 2zm1 5a1 1 0 11-2 0 1 1 0 012 0zm-1 7a1 1 0 100-2 1 1 0 000 2zm5-30a1 1 0 100-2 1 1 0 000 2zm1 5a1 1 0 11-2 0 1 1 0 012 0zm-1 7a1 1 0 100-2 1 1 0 000 2zm1 5a1 1 0 11-2 0 1 1 0 012 0zm-1 7a1 1 0 100-2 1 1 0 000 2zm5-18a1 1 0 100-2 1 1 0 000 2zm1 5a1 1 0 11-2 0 1 1 0 012 0zm-1 7a1 1 0 100-2 1 1 0 000 2zm1 5a1 1 0 11-2 0 1 1 0 012 0z" fill="#2C3338"/></svg>