<?xml version="1.0" encoding="UTF-8"?>
<svg xmlns="http://www.w3.org/2000/svg" xmlns:xlink="http://www.w3.org/1999/xlink" width="534" height="442" viewBox="0 0 534 442" version="1.1">
<g id="surface1">
<path style=" stroke:none;fill-rule:nonzero;fill:rgb(7.45098%,50.588235%,84.705882%);fill-opacity:1;" d="M 0 0 L 532.652344 0 L 532.652344 442.203125 L 0 442.203125 Z M 0 0 "/>
<path style=" stroke:none;fill-rule:nonzero;fill:rgb(100%,100%,100%);fill-opacity:1;" d="M 76.398438 63.644531 C 76.398438 62 77.972656 60.664062 79.921875 60.664062 L 453.28125 60.664062 C 455.226562 60.664062 456.800781 62 456.800781 63.644531 L 456.800781 442.203125 L 76.398438 442.203125 Z M 76.398438 63.644531 "/>
<path style=" stroke:none;fill-rule:nonzero;fill:rgb(88.627451%,89.411765%,90.588235%);fill-opacity:1;" d="M 296.042969 95.785156 L 261.027344 95.785156 L 261.027344 108.554688 L 296.042969 108.554688 Z M 296.042969 95.785156 "/>
<path style=" stroke:none;fill-rule:nonzero;fill:rgb(88.627451%,89.411765%,90.588235%);fill-opacity:1;" d="M 340.613281 95.785156 L 305.59375 95.785156 L 305.59375 108.554688 L 340.613281 108.554688 Z M 340.613281 95.785156 "/>
<path style=" stroke:none;fill-rule:nonzero;fill:rgb(88.627451%,89.411765%,90.588235%);fill-opacity:1;" d="M 385.175781 95.785156 L 350.164062 95.785156 L 350.164062 108.554688 L 385.175781 108.554688 Z M 385.175781 95.785156 "/>
<path style=" stroke:none;fill-rule:nonzero;fill:rgb(88.627451%,89.411765%,90.588235%);fill-opacity:1;" d="M 429.742188 95.785156 L 393.136719 95.785156 L 393.136719 108.554688 L 429.742188 108.554688 Z M 429.742188 95.785156 "/>
<path style=" stroke:none;fill-rule:nonzero;fill:rgb(11.764706%,11.764706%,11.764706%);fill-opacity:1;" d="M 130.515625 102.167969 C 130.515625 110.105469 124.101562 116.539062 116.1875 116.539062 C 108.277344 116.539062 101.867188 110.105469 101.867188 102.167969 C 101.867188 94.234375 108.277344 87.800781 116.1875 87.800781 C 124.101562 87.800781 130.515625 94.234375 130.515625 102.167969 Z M 130.515625 102.167969 "/>
<path style=" stroke:none;fill-rule:nonzero;fill:rgb(88.627451%,89.411765%,90.588235%);fill-opacity:1;" d="M 76.398438 145.273438 L 456.800781 145.273438 L 456.800781 346.421875 L 76.398438 346.421875 Z M 76.398438 145.273438 "/>
<path style=" stroke:none;fill-rule:nonzero;fill:rgb(88.627451%,89.411765%,90.588235%);fill-opacity:1;" d="M 76.398438 375.152344 L 248.296875 375.152344 L 248.296875 442.203125 L 76.398438 442.203125 Z M 76.398438 375.152344 "/>
<path style=" stroke:none;fill-rule:nonzero;fill:rgb(100%,100%,100%);fill-opacity:1;" d="M 334.246094 258.617188 L 128.921875 258.617188 L 128.921875 284.160156 L 334.246094 284.160156 Z M 334.246094 258.617188 "/>
<path style=" stroke:none;fill-rule:nonzero;fill:rgb(100%,100%,100%);fill-opacity:1;" d="M 192.585938 295.332031 L 128.921875 295.332031 L 128.921875 309.703125 L 192.585938 309.703125 Z M 192.585938 295.332031 "/>
<path style=" stroke:none;fill-rule:nonzero;fill:rgb(88.627451%,89.411765%,90.588235%);fill-opacity:1;" d="M 405.867188 387.925781 L 270.578125 387.925781 L 270.578125 400.699219 L 405.867188 400.699219 Z M 405.867188 387.925781 "/>
<path style=" stroke:none;fill-rule:nonzero;fill:rgb(88.627451%,89.411765%,90.588235%);fill-opacity:1;" d="M 405.867188 408.679688 L 270.578125 408.679688 L 270.578125 421.449219 L 405.867188 421.449219 Z M 405.867188 408.679688 "/>
<path style=" stroke:none;fill-rule:nonzero;fill:rgb(88.627451%,89.411765%,90.588235%);fill-opacity:1;" d="M 338.710938 429.433594 L 270.578125 429.433594 L 270.578125 442.203125 L 338.710938 442.203125 Z M 338.710938 429.433594 "/>
</g>
</svg>
