<svg width="335" height="278" viewBox="0 0 335 278" fill="none" xmlns="http://www.w3.org/2000/svg">
	<path d="M0 0H334.656V277H0V0Z" fill="#1381D8"/>
	<path d="M48 39.8672C48 38.8359 48.9907 38 50.213 38H284.787C286.01 38 287 38.8359 287 39.8672V277H48V39.8672Z" fill="white"/>
	<path d="M186 60H164V68H186V60Z" fill="#E2E4E7"/>
	<path d="M214 60H192V68H214V60Z" fill="#E2E4E7"/>
	<path d="M242 60H220V68H242V60Z" fill="#E2E4E7"/>
	<path d="M270 60H247V68H270V60Z" fill="#E2E4E7"/>
	<circle cx="73" cy="64" r="9" fill="#1E1E1E"/>
	<rect x="48" y="91" width="239" height="126" fill="#E2E4E7"/>
	<rect x="48" y="235" width="108" height="42" fill="#E2E4E7"/>
	<path d="M210 162H81V178H210V162Z" fill="white"/>
	<path d="M121 185H81V194H121V185Z" fill="white"/>
	<path d="M255 243H170V251H255V243Z" fill="#E2E4E7"/>
	<path d="M255 256H170V264H255V256Z" fill="#E2E4E7"/>
	<path d="M212.806 269H170V277H212.806V269Z" fill="#E2E4E7"/>
</svg>
