<svg viewBox="0 0 214.63 185.98" xmlns="http://www.w3.org/2000/svg" xmlns:xlink="http://www.w3.org/1999/xlink"><linearGradient id="a" gradientUnits="userSpaceOnUse" x1="207.67" x2="132.73" y1="257.18" y2="113.54"><stop offset="0" stop-color="#507ebf" stop-opacity="0"/><stop offset=".14" stop-color="#4f7cbc" stop-opacity=".05"/><stop offset=".33" stop-color="#4b77b5" stop-opacity=".18"/><stop offset=".55" stop-color="#466fa9" stop-opacity=".4"/><stop offset=".8" stop-color="#3e6398" stop-opacity=".71"/><stop offset="1" stop-color="#375888"/></linearGradient><rect fill="#3296d3" height="124.11" rx="9.1" width="185" x="14.79" y="61.87"/><path d="m225.38 245.49h-77l-93-93.26v-15.93a15 15 0 0 1 14.93-14.93h155.07a15 15 0 0 1 14.93 14.93v94.25a15 15 0 0 1 -14.93 14.94z" fill="url(#a)" opacity=".47" transform="translate(-40.51 -59.51)"/><path d="m224.61 201.21-.29-1.48h-26.81v10.56h16.33a11.15 11.15 0 0 1 -2.81 5.54 15.81 15.81 0 0 1 -11.31 4.62 17.24 17.24 0 0 1 -12.14-5 16.5 16.5 0 0 1 23.1-23.54l1.31 1.24 7.52-7.67-1.4-1.28a27.85 27.85 0 0 0 -18.73-7.31h-.13a27.52 27.52 0 0 0 -19.35 7.88 26.9 26.9 0 0 0 -8.15 19.23 26.09 26.09 0 0 0 7.87 18.71 29.15 29.15 0 0 0 20 8.17h.25a25.48 25.48 0 0 0 18.24-7.22 24.68 24.68 0 0 0 6.89-16.85 29.25 29.25 0 0 0 -.39-5.6z" fill="#f1f1f2" transform="translate(-40.51 -59.51)"/><path d="m103.13 59.51-9 68.83h-53.62l15-57.41s3.1-11.41 14-11.41h33.64z" fill="#78b6e3" transform="translate(-40.51 -59.51)"/><path d="m107.31 0v68.83h-53.65l8.96-68.83z" fill="#507ebf"/><path d="m160.97 68.83h-53.66v-68.83h45.13z" fill="#78b6e3"/><g transform="translate(-40.51 -59.51)"><path d="m255.14 128.33h-53.65l-8.49-68.82h33.21c10.92 0 14 11.41 14 11.41z" fill="#507ebf"/><path d="m94.17 128.33a26.83 26.83 0 0 1 -53.66 0z" fill="#699fc7"/><path d="m147.83 128.33a26.83 26.83 0 0 1 -53.66 0z" fill="#466ea7"/><path d="m201.49 128.33a26.83 26.83 0 0 1 -53.66 0z" fill="#699fc7"/><path d="m255.14 128.33a26.83 26.83 0 0 1 -53.66 0z" fill="#466ea7"/></g></svg>