<svg id="Layer_3" data-name="Layer 3" xmlns="http://www.w3.org/2000/svg" viewBox="0 0 214.63 185.98"><defs><style>.cls-4{fill:#78b6e3}.cls-5{fill:#507ebf}.cls-6{fill:#699fc7}.cls-7{fill:#466ea7}</style><linearGradient id="Gradiente_sem_nome_4" x1="207.67" y1="257.18" x2="132.73" y2="113.54" gradientUnits="userSpaceOnUse"><stop offset="0" stop-color="#507ebf" stop-opacity="0"/><stop offset=".14" stop-color="#4f7cbc" stop-opacity=".05"/><stop offset=".33" stop-color="#4b77b5" stop-opacity=".18"/><stop offset=".55" stop-color="#466fa9" stop-opacity=".4"/><stop offset=".8" stop-color="#3e6398" stop-opacity=".71"/><stop offset="1" stop-color="#375888"/></linearGradient></defs><rect x="14.79" y="61.87" width="185" height="124.11" rx="9.1" ry="9.1" fill="#3296d3"/><path d="M225.38 245.49h-77l-93-93.26V136.3a15 15 0 0 1 14.93-14.93h155.07a15 15 0 0 1 14.93 14.93v94.25a15 15 0 0 1-14.93 14.94z" transform="translate(-40.51 -59.51)" opacity=".47" fill="url(#Gradiente_sem_nome_4)"/><path d="M224.61 201.21l-.29-1.48h-26.81v10.56h16.33a11.15 11.15 0 0 1-2.81 5.54 15.81 15.81 0 0 1-11.31 4.62 17.24 17.24 0 0 1-12.14-5 16.5 16.5 0 0 1 23.1-23.54l1.31 1.24 7.52-7.67-1.4-1.28a27.85 27.85 0 0 0-18.73-7.31h-.13a27.52 27.52 0 0 0-19.35 7.88 26.9 26.9 0 0 0-8.15 19.23 26.09 26.09 0 0 0 7.87 18.71 29.15 29.15 0 0 0 20 8.17h.25a25.48 25.48 0 0 0 18.24-7.22 24.68 24.68 0 0 0 6.89-16.85 29.25 29.25 0 0 0-.39-5.6z" transform="translate(-40.51 -59.51)" fill="#f1f1f2"/><path class="cls-4" d="M103.13 59.51l-9 68.83H40.51l15-57.41s3.1-11.41 14-11.41h33.64z" transform="translate(-40.51 -59.51)"/><path class="cls-5" d="M107.31 0v68.83H53.66L62.62 0h44.69z"/><path class="cls-4" d="M160.97 68.83h-53.66V0h45.13l8.53 68.83z"/><path class="cls-5" d="M255.14 128.33h-53.65L193 59.51h33.21c10.92 0 14 11.41 14 11.41z" transform="translate(-40.51 -59.51)"/><path class="cls-6" d="M94.17 128.33a26.83 26.83 0 0 1-53.66 0h53.66z" transform="translate(-40.51 -59.51)"/><path class="cls-7" d="M147.83 128.33a26.83 26.83 0 0 1-53.66 0h53.66z" transform="translate(-40.51 -59.51)"/><path class="cls-6" d="M201.49 128.33a26.83 26.83 0 0 1-53.66 0h53.66z" transform="translate(-40.51 -59.51)"/><path class="cls-7" d="M255.14 128.33a26.83 26.83 0 0 1-53.66 0h53.66z" transform="translate(-40.51 -59.51)"/></svg>