<svg viewBox="0 0 300 300" xmlns="http://www.w3.org/2000/svg"><path d="m46.2 90.5c3-1.7 6.1-3.3 9.1-5 17.5-9.8 35-19.7 52.6-29.5.4-.2.8-.4 1.3-.7 0 .4.1.7.1 1v101.6c.1 10.8 4.8 19.1 14.2 24.6 13.7 8.1 27.5 16 41.2 24 3.5 2.1 7.1 4.1 10.8 6.3-.3.2-.5.4-.8.6-20 11.5-40.1 23-60.1 34.5-.6.4-1 .3-1.6 0-17.7-10.3-35.5-20.5-53.2-30.9-7.9-4.7-12.4-11.7-13.5-20.9 0-.4-.1-.8-.2-1.2.1-34.8.1-69.6.1-104.4z"/><path d="m183.8 55.2c3.3 1.9 6.6 3.9 9.9 5.8 14.5 8.4 29.1 16.8 43.6 25.3 9.3 5.4 14.1 13.7 14.1 24.4.1 33.8 0 67.5.1 101.3 0 .7-.3 1.1-.9 1.5-20.4 11.4-40.7 22.8-61 34.3-.3.1-.5.3-1.1.6v-4.7-.5-80.1c0-6 .1-11.9-.1-17.9-.2-10.4-4.7-18.5-13.7-23.8-17-10.1-34.2-19.9-51.3-29.9-.4-.2-.8-.5-1.3-.8 1.9-1.1 3.8-2.2 5.6-3.2 18.3-10.6 36.5-21.1 54.8-31.5.4-.2.8-.5 1.1-.8z"/></svg>