<svg data-name="Layer 1" xmlns="http://www.w3.org/2000/svg" viewBox="0 0 224.27 286.81"><path d="M155.54 103.7a17.68 17.68 0 0 1 4.55 0c.82-1.87 1-5.1.22-8.61-1.09-5.22-2.57-8.38-5.62-7.89s-3.16 4.28-2.07 9.5a17.65 17.65 0 0 0 2.92 7zM127.46 102.47a15.4 15.4 0 0 0-15 1.8c-1.46 1.07-2.85 2.55-2.65 3.45a.8.8 0 0 0 .8.58c1.2.14 5.41-2 10.26-2.29a17.87 17.87 0 0 1 8.44 1.82c2.18 1 3.53 1.59 4.05 1 .34-.35.24-1-.28-1.86a12.83 12.83 0 0 0-5.62-4.5zM124.94 110.34a10.29 10.29 0 0 0-5.42 2.26 3.47 3.47 0 0 0-1.39 2.17.66.66 0 0 0 .22.52.68.68 0 0 0 .47.18 8.68 8.68 0 0 0 2.08-.58 18.11 18.11 0 0 1 9.16-1c1.43.16 2.1.25 2.42-.24a.8.8 0 0 0-.08-.91c-.67-1.04-3.54-2.86-7.46-2.4z"/><ellipse cx="190.14" cy="125.01" rx="2.84" ry="3.9" transform="rotate(-63.83 162.616 154.883)"/><ellipse cx="201.24" cy="120.61" rx="3.9" ry="2.84" transform="rotate(-89.03 176.062 138.06)"/><path d="M52.08 147.29a5.89 5.89 0 0 1-1.46.21 3.18 3.18 0 0 1-2.68-1.36c-.71-1.1-.67-2.73.12-4.61l.37-.84c1.26-2.82 3.36-7.55 1-12a10.67 10.67 0 0 0-8.17-5.94 10.5 10.5 0 0 0-9 3.24c-3.47 3.83-4 9-3.34 10.88a1.17 1.17 0 0 0 .91.9c.59.08 1.46-.35 2-1.82 0-.11.09-.27.16-.48a14.46 14.46 0 0 1 1.44-3.39 6.16 6.16 0 0 1 3.93-2.72 6.3 6.3 0 0 1 4.8.9 6.15 6.15 0 0 1 2.33 7.41 17.29 17.29 0 0 0-1.22 6.59c.39 4.67 3.26 6.55 5.85 6.75a5 5 0 0 0 4.68-2.39 1 1 0 0 0-.1-1.14 1.52 1.52 0 0 0-1.62-.19z"/><path d="M6.43 118.54l7.22 6.12a35.49 35.49 0 0 0-2 16.39c.77 7.68 4.73 15 11.15 20.72 6.09 5.4 14.11 8.82 21.88 8.81 12.86 29.63 42.23 47.8 76.68 48.83 36.95 1.1 68-16.24 81-47.38.85-2.19 4.46-12 4.46-20.73s-5.02-12.32-8.13-12.32c-.1-.34-.72-2.61-1.57-5.36a43.35 43.35 0 0 0-1.74-4.67c3.43-5.14 3.49-9.73 3-12.34a15.62 15.62 0 0 0-4.54-8.82c-2.71-2.84-8.24-5.75-16-7.94l-4.04-1.17c0-.17-.21-9.63-.39-13.68a46.87 46.87 0 0 0-1.8-12c-1.69-6.11-4.65-11.45-8.33-14.87 10.13-10.58 16.52-22.15 16.46-32.15 0-19.15-23.55-25-52.54-12.95l-6.14 2.61s-11.1-10.9-11.27-11c-33.06-28.86-136.4 86-103.36 113.9zm41.08 43.72a17.82 17.82 0 0 1-3.42.24c-11.16-.3-23.21-10.35-24.41-22.26-1.32-13.17 5.4-23.3 17.32-25.71a20.3 20.3 0 0 1 5-.36c6.68.37 16.51 5.49 18.76 20 2.04 12.91-1.17 26.03-13.24 28.08zm105.56-94.79a7.92 7.92 0 0 1 2.48-.24 8.18 8.18 0 0 1 4.17 1.33c4.88 3.25 5.57 11.12 5.83 16.87.14 3.29.54 11.23.68 13.52.31 5.22 1.68 6 4.46 6.87 1.56.51 3 .9 5.14 1.5 6.46 1.81 10.29 3.65 12.71 6a8 8 0 0 1 2.32 4.55c.76 5.56-4.32 12.43-17.76 18.66-14.69 6.82-32.52 8.55-44.84 7.18l-4.31-.49c-9.85-1.33-15.47 11.41-9.56 20.13 3.81 5.62 14.19 9.28 24.58 9.28 23.81 0 42.11-10.16 48.92-18.95a9.17 9.17 0 0 0 .54-.78c.33-.51.06-.78-.36-.5-5.56 3.81-30.27 18.91-56.69 14.37a35.19 35.19 0 0 1-6.14-1.67c-2.33-.91-7.2-3.15-7.8-8.15 21.33 6.6 34.75.36 34.75.36a.66.66 0 0 0 .38-.65.62.62 0 0 0-.67-.55s-17.48 2.59-34-3.46c1.8-5.85 6.58-3.73 13.81-3.15a101 101 0 0 0 33.34-3.6c7.48-2.15 17.3-6.38 24.93-12.4a50.22 50.22 0 0 1 3.48 11.87 5.79 5.79 0 0 1 3.66.67c1.57 1 2.73 3 1.94 8.18a45.3 45.3 0 0 1-12.68 24.87 52.25 52.25 0 0 1-15.23 11.38 64.33 64.33 0 0 1-9.95 4.2c-26.18 8.55-53-.85-61.61-21a32.42 32.42 0 0 1-1.73-4.77c-3.68-13.3-.56-29.26 9.21-39.31a3.56 3.56 0 0 0 1.22-2.34 4.13 4.13 0 0 0-.94-2.22c-3.42-5-15.26-13.4-12.88-29.75 1.71-11.74 12-20 21.55-19.52l2.43.14c4.15.25 7.77.78 11.19.92 5.72.25 10.86-.58 16.95-5.66 2.05-1.73 3.7-3.18 6.48-3.69zm-34.66 85.87zm9-115.43a.38.38 0 0 1 .25.67 20.41 20.41 0 0 0-3.77 3.78.37.37 0 0 0 .29.58 47 47 0 0 1 20 5.25.47.47 0 0 1-.31.84 81.59 81.59 0 0 0-36.31.1c-12.71 3.1-22.41 7.88-29.48 13a.372.372 0 0 1-.5-.55c8.22-9.42 18.31-17.6 27.34-22.27a.36.36 0 0 1 .47.49 26.33 26.33 0 0 0-2.53 6.18.37.37 0 0 0 .57.39c5.62-3.82 15.37-7.93 23.97-8.46zM25.8 61.76c23-32.88 59.1-57.78 75.8-53.25 2.72.77 11.71 11.2 11.71 11.2a235.3 235.3 0 0 0-32.19 22.18C60.26 57.98 44.5 81.31 35.06 106.65a28.41 28.41 0 0 0-18 11.45c-2.39-2-6.84-5.85-7.63-7.35C3.1 98.63 16.44 75.07 25.8 61.76zM30.34 253.72c-4.07 0-6.08 3.2-7 5.26-.52 1.15-.66 2.06-1.08 2.06-.59 0-.17-.79-.65-2.55a6.37 6.37 0 0 0-6.61-4.78c-4.27 0-6.1 3.61-7 5.59-.59 1.36-.59 1.73-1.05 1.73-.66 0-.11-1.08.18-2.34a10.56 10.56 0 0 0 .14-4.4H.53v25.47H9.8V267.1c0-2.5 1-5.67 2.84-5.67 2.07 0 2.48 1.59 2.48 4.53v13.82h9.28V267.1c0-2.22.91-5.67 2.85-5.67 2.1 0 2.47 2.23 2.47 4.53v13.81h9.08v-15c0-6.62-2.33-11.05-8.46-11.05zM187.26 253.72c-4.07 0-6.08 3.2-7 5.26-.52 1.15-.66 2.06-1.08 2.06-.59 0-.2-1-.65-2.55-.68-2.3-2.36-4.78-6.61-4.78s-6.1 3.61-7 5.59c-.59 1.36-.59 1.73-1.05 1.73-.66 0-.11-1.08.18-2.34a10.56 10.56 0 0 0 .14-4.4h-6.77v25.47h9.25V267.1c0-2.5 1-5.67 2.84-5.67 2.07 0 2.48 1.59 2.48 4.53v13.82h9.28V267.1c0-2.22.91-5.67 2.85-5.67 2.1 0 2.47 2.23 2.47 4.53v13.81h9.12v-15c.03-6.62-2.32-11.05-8.45-11.05zM54.6 253.73a29.12 29.12 0 0 0-12.16 2.6v7.65s5.61-3.23 10.16-3.23c3.63 0 4.08 2 3.91 3.59a19.86 19.86 0 0 0-4.25-.28c-7.53 0-11.34 3.42-11.34 8.92 0 5.21 4.27 7.39 7.88 7.39a8.67 8.67 0 0 0 8.28-5.21c.49-1.16.58-1.95 1-1.95s.33.56.31 1.72a18.64 18.64 0 0 0 .37 4.85h7v-12.53c.04-7.83-2.77-13.52-11.16-13.52zm-2.25 20.1c-2.21.51-3.36-.17-3.36-1.64 0-2 2.08-2.81 5-2.81 1.31 0 2.53.11 2.53.11.05.86-1.82 3.79-4.17 4.33zM80.99 246.6h9.25v33.18h-9.25zM100.41 267.05c0-2.29 2.13-4.37 6-4.37a16.93 16.93 0 0 1 8.45 2.51v-8.86s-2.7-2.6-9.35-2.6c-7 0-12.84 4.1-12.84 12.92s5.29 13.72 12.82 13.72a14.64 14.64 0 0 0 9.38-3.23v-8.41a16.18 16.18 0 0 1-8.42 2.76c-4.43 0-6.04-2.06-6.04-4.44zM133.62 253.73c-5.35 0-7.39 5.07-7.8 6s-.61 1.39-1 1.38c-.58 0-.18-1.08.05-1.77a30 30 0 0 0 1.34-8.9 11.78 11.78 0 0 0-.38-3.79h-8v33.13h9.25v-12.67c0-2.06.82-5.67 3.15-5.67 1.93 0 2.53 1.43 2.53 4.31v14h9.25V266.3c.06-6.54-1.02-12.57-8.39-12.57zM145.08 254.34v25.44h9.25v-25.44a9.78 9.78 0 0 1-4.61.91 9.92 9.92 0 0 1-4.64-.91z"/><ellipse cx="149.67" cy="250.03" rx="5.66" ry="3.69"/><path d="M68.8 254.34v25.44h9.25v-25.44a9.78 9.78 0 0 1-4.61.91 9.92 9.92 0 0 1-4.64-.91z"/><ellipse cx="73.35" cy="250.03" rx="5.66" ry="3.69"/><path d="M214.1 253.72c-4.75 0-6.93 3.56-7.88 5.59-.63 1.34-.59 1.73-1.05 1.73-.66 0-.11-1.08.18-2.34a10.56 10.56 0 0 0 .14-4.4h-6.77v32.5h9.25v-10.3a7.23 7.23 0 0 0 6.24 3.84c6.69 0 10-5.66 10-13.3.06-8.66-3.97-13.32-10.11-13.32zm-2.54 20.59c-2.12 0-3.68-2.69-3.68-6.44s1.6-6.43 3.61-6.43c2.57 0 3.67 2.36 3.67 6.43 0 4.24-1.01 6.44-3.59 6.44z"/></svg>