<svg viewBox="0 0 210.81 200.67" xmlns="http://www.w3.org/2000/svg"><g transform="translate(-44.11 -46.67)"><path d="m136.61 92.92a46.25 46.25 0 1 0 -53.48 45.69v-32.32h-11.74v-13.37h11.74v-10.2c0-11.59 6.91-18 17.47-18a71.1 71.1 0 0 1 10.35.9v11.38h-5.83c-5.74 0-7.54 3.56-7.54 7.23v8.68h12.83l-2 13.37h-10.83v32.32a46.26 46.26 0 0 0 39.03-45.68z" fill="#4d77ba"/><path d="m108.36 106.29 2-13.37h-12.78v-8.68c0-3.66 1.79-7.23 7.54-7.23h5.88v-11.38a71.1 71.1 0 0 0 -10.35-.9c-10.56 0-17.47 6.4-17.47 18v10.19h-11.79v13.37h11.74v32.32a46.43 46.43 0 0 0 7.23.56 47.24 47.24 0 0 0 7.23-.56v-32.32h10.78z" fill="#fff"/><path d="m189.5 132.42c36 0 55.7-29.83 55.7-55.7 0-.85 0-1.69-.06-2.53a39.83 39.83 0 0 0 9.77-10.13 39.08 39.08 0 0 1 -11.24 3.08 19.65 19.65 0 0 0 8.61-10.83 39.23 39.23 0 0 1 -12.43 4.75 19.6 19.6 0 0 0 -33.36 17.86 55.58 55.58 0 0 1 -40.35-20.45 19.59 19.59 0 0 0 6.06 26.13 19.43 19.43 0 0 1 -8.89-2.45v.25a19.58 19.58 0 0 0 15.69 19.18 19.55 19.55 0 0 1 -8.84.34 19.6 19.6 0 0 0 18.29 13.6 39.28 39.28 0 0 1 -24.31 8.4 39.85 39.85 0 0 1 -4.66-.28 55.42 55.42 0 0 0 30 8.78" fill="#1da1f2"/></g><rect fill="#0a66c2" height="88.39" rx="12" width="88.46" x="4.25" y="112.28"/><path d="m123.83 204.93c-.33-8.66-7.29-14.71-16-14.84-5.26-.07-9.42 2.25-13.43 5.87l-.4-4.14h-12.41v42.18h13.35c0-6-.06-11.88 0-17.71a40.52 40.52 0 0 1 .63-7.52 8 8 0 0 1 8-6.33c3.42.19 5.9 2.29 6.24 6.59.51 6.4.37 12.85.49 19.28v5.71h13.61c0-10.02.28-19.56-.08-29.09zm-62.28 29.07h13v-42.29h-13zm6.57-63.74a8 8 0 1 0 8 7.92 8.3 8.3 0 0 0 -8-7.92z" fill="#fff" transform="translate(-44.11 -46.67)"/><path d="m208.91 243.6c-12.42 0-21.68-6.39-21.68-21.68v-24.49h-11.29v-13.26c12.42-3.23 17.62-13.92 18.22-23.17h12.9v21h15.04v15.41h-15.05v21.32c0 6.39 3.23 8.6 8.36 8.6h7.29v16.27h-13.8z" transform="translate(-44.11 -46.67)"/></svg>
