<svg viewBox="0 0 210.81 200.67" xmlns="http://www.w3.org/2000/svg"><g transform="translate(-44.11 -46.67)"><path d="m136.61 92.92a46.25 46.25 0 1 0 -53.48 45.69v-32.32h-11.74v-13.37h11.74v-10.2c0-11.59 6.91-18 17.47-18a71.1 71.1 0 0 1 10.35.9v11.38h-5.83c-5.74 0-7.54 3.56-7.54 7.23v8.68h12.83l-2 13.37h-10.83v32.32a46.26 46.26 0 0 0 39.03-45.68z" fill="#4d77ba"/><path d="m108.36 106.29 2-13.37h-12.78v-8.68c0-3.66 1.79-7.23 7.54-7.23h5.88v-11.38a71.1 71.1 0 0 0 -10.35-.9c-10.56 0-17.47 6.4-17.47 18v10.19h-11.79v13.37h11.74v32.32a46.43 46.43 0 0 0 7.23.56 47.24 47.24 0 0 0 7.23-.56v-32.32h10.78z" fill="#fff"/><g xmlns="http://www.w3.org/2000/svg" transform="matrix(4.7256 0 0 4.7256 144.93 36.665)" fill="#6364ff"><path d="m20.617 13.92c-0.265 1.361-2.37 2.851-4.788 3.14-1.261 0.15-2.502 0.288-3.826 0.228-2.165-0.1-3.873-0.517-3.873-0.517 0 0.211 0.013 0.411 0.039 0.599 0.282 2.136 2.119 2.264 3.859 2.324 1.756 0.06 3.32-0.433 3.32-0.433l0.072 1.588s-1.228 0.659-3.417 0.781c-1.207 0.066-2.705-0.031-4.45-0.493-3.785-1.001-4.436-5.036-4.536-9.13-0.03-1.215-0.011-2.361-0.011-3.32 0-4.186 2.742-5.413 2.742-5.413 1.383-0.635 3.756-0.902 6.224-0.923h0.06c2.467 0.021 4.842 0.288 6.225 0.923 0 0 2.742 1.227 2.742 5.413 0 0 0.035 3.089-0.382 5.233zm-2.854-4.909v5.069h-2.008v-4.92c0-1.037-0.436-1.563-1.309-1.563-0.965 0-1.448 0.624-1.448 1.859v2.693h-1.996v-2.693c0-1.235-0.484-1.859-1.449-1.859-0.873 0-1.309 0.526-1.309 1.563v4.92h-2.008v-5.069c0-1.035 0.263-1.859 0.793-2.468 0.547-0.609 1.262-0.921 2.15-0.921 1.028 0 1.806 0.395 2.32 1.185l0.501 0.839 0.5-0.839c0.514-0.79 1.292-1.185 2.32-1.185 0.888 0 1.604 0.312 2.15 0.921 0.53 0.609 0.793 1.433 0.793 2.468z" fill="#6364ff" fill-rule="evenodd"/></g></g><rect fill="#0a66c2" height="88.39" rx="12" width="88.46" x="4.25" y="112.28"/><path d="m123.83 204.93c-.33-8.66-7.29-14.71-16-14.84-5.26-.07-9.42 2.25-13.43 5.87l-.4-4.14h-12.41v42.18h13.35c0-6-.06-11.88 0-17.71a40.52 40.52 0 0 1 .63-7.52 8 8 0 0 1 8-6.33c3.42.19 5.9 2.29 6.24 6.59.51 6.4.37 12.85.49 19.28v5.71h13.61c0-10.02.28-19.56-.08-29.09zm-62.28 29.07h13v-42.29h-13zm6.57-63.74a8 8 0 1 0 8 7.92 8.3 8.3 0 0 0 -8-7.92z" fill="#fff" transform="translate(-44.11 -46.67)"/><path fill="#35465c" d="m208.91 243.6c-12.42 0-21.68-6.39-21.68-21.68v-24.49h-11.29v-13.26c12.42-3.23 17.62-13.92 18.22-23.17h12.9v21h15.04v15.41h-15.05v21.32c0 6.39 3.23 8.6 8.36 8.6h7.29v16.27h-13.8z" transform="translate(-44.11 -46.67)"/></svg>
