<svg xmlns="http://www.w3.org/2000/svg" viewBox="0 0 495.22 39.91" fill="#ffffff">
<path class="cls-1" d="M178.48,39.29c-12.75,0-20.95-9.21-20.95-18.73V19.35c0-9.72,8.3-18.72,20.95-18.72s21.05,9,21.05,18.72v1.21C199.53,30.08,191.24,39.29,178.48,39.29Zm14.05-19.83c0-6.88-5-13-14-13s-14,6.08-14,13v.89c0,6.88,5,13.06,14,13.06s14-6.18,14-13.06ZM37.13,37.39l-4.81-9H11l-4.6,9H0l18.83-35h5.42l19.23,35ZM21.49,9.49l-7.7,14.9h15.7Zm52.89,29.8c-12.8,0-18.85-6.9-18.85-16.2V2.39h7v20.9c0,6.6,4.23,10.5,12.3,10.5,8.26,0,11.7-3.9,11.7-10.5V2.39h7v20.7C93.53,31.89,87.89,39.29,74.38,39.29Zm56.15-31.9v30h-7v-30h-15v-5h38v5Zm128,30V9.69l-1.9,3.05L240.82,37.39h-.52L224.47,12.74l-1.94-3.05v27.7h-7v-35h7.16l14.85,24.06,1.8,3,1.8-3L255.88,2.39h9.65v35Zm57.66,1-4.7-10h-20.9l-4.5,10h-7.31l19.47-36h5.58l19.77,36Zm-15.3-28.9-7.7,14.9h15.7Zm49.64-2.1v30h-7v-30h-16v-5h38v5Zm49,0v30h-7v-30h-16v-5h38v5Zm31,30.1V4.84c2.91,0,4-1.42,4-3.45h3v36h-7Zm60.3-25.68a21.78,21.78,0,0,0-14.83-6c-9.93,0-15.47,6.79-15.47,13.9v.73c0,7,5.65,13.58,16,13.58a21.62,21.62,0,0,0,14.52-6l4.18,4.39a27.86,27.86,0,0,1-19.12,7.42c-14,0-22.57-9.09-22.57-19.12V19.54c0-10,9.3-19.54,22.89-19.54,7.83,0,14.94,3.24,18.8,7.42ZM183.29,13.26a2.7,2.7,0,0,1,.8,3.6l-6.1,9.4a2.61,2.61,0,0,1-3.6.8h0a2.7,2.7,0,0,1-.8-3.6l6.1-9.4a2.52,2.52,0,0,1,3.6-.8Z"/>
</svg>