<svg version="1.1" id="Layer_1" xmlns="http://www.w3.org/2000/svg" x="0" y="0" viewBox="0 0 225 225" style="enable-background:new 0 0 225 225" xml:space="preserve"><style>.st3{fill:none;stroke:#003c65;stroke-width:1.8;stroke-linecap:round;stroke-linejoin:round;stroke-miterlimit:10}.st5{fill:#fff}.st6{fill:none;stroke:#003c65;stroke-width:1.8;stroke-linecap:round;stroke-linejoin:round}.st7{fill:none;stroke-dasharray:6.4909,6.4909}.st7,.st8,.st9{stroke:#003c65;stroke-width:1.8;stroke-linecap:round;stroke-linejoin:round}.st8{fill:none;stroke-dasharray:6.1821,6.1821}.st9{fill:#fff;stroke-miterlimit:10}.st10{fill:#7cbfcf}</style><g id="C_00000054249919708208837170000003539910220229879967_"><linearGradient id="SVGID_1_" gradientUnits="userSpaceOnUse" x1="170.295" y1="77.592" x2="190.653" y2="77.592" gradientTransform="matrix(1.0354 .03392 0 1 12.303 11.784)"><stop offset="0" style="stop-color:#e8e8e8"/><stop offset="1" style="stop-color:#eee"/></linearGradient><path d="m209.7 98.6-21.1-.7c0-3 2.5-5.4 5.6-5.3l15.4.5v5.5z" style="fill:url(#SVGID_1_)"/><linearGradient id="SVGID_00000090274636931474591850000001803610295429382567_" gradientUnits="userSpaceOnUse" x1="158.563" y1="115.494" x2="178.921" y2="115.494" gradientTransform="matrix(1.0354 .03392 0 1 12.303 11.784)"><stop offset="0" style="stop-color:#e8e8e8"/><stop offset="1" style="stop-color:#eee"/></linearGradient><path style="fill:url(#SVGID_00000090274636931474591850000001803610295429382567_)" d="m197.6 136.1-21.1-.7c0-3 2.5-5.4 5.6-5.3l15.4.5v5.5z"/><linearGradient id="SVGID_00000059992804265110525830000008961291542932415412_" gradientUnits="userSpaceOnUse" x1="74.868" y1="48.746" x2="196.838" y2="48.746" gradientTransform="matrix(1.0354 .03392 0 1 12.303 11.784)"><stop offset="0" style="stop-color:#e8e8e8"/><stop offset="1" style="stop-color:#eee"/></linearGradient><path style="fill:url(#SVGID_00000059992804265110525830000008961291542932415412_)" d="M216.1 71.9 89.8 67.8c0-5.2 4.4-9.3 9.8-9.1l116.5 3.8v9.4z"/><path class="st3" d="m215.1 178.5-173.3-5.7c-.6 0-1-.5-1-1V50.1c0-.6.5-1 1-1l173.3 5.7c.6 0 1 .5 1 1v121.6c0 .6-.5 1.1-1 1.1z"/><path d="m221 173.3-4.9-.2V54.8L46.7 49.3v-4.4c0-.6.5-1 1-1L221 49.6c.6 0 1 .5 1 1v121.6c0 .7-.4 1.1-1 1.1z" style="fill:#003c65"/><ellipse transform="rotate(-67.642 49.285 57.009)" class="st3" cx="49.3" cy="57" rx="2.5" ry="2.6"/><ellipse transform="rotate(-67.642 59.183 57.333)" class="st3" cx="59.2" cy="57.3" rx="2.5" ry="2.6"/><ellipse transform="rotate(-67.642 69.08 57.658)" class="st3" cx="69.1" cy="57.7" rx="2.5" ry="2.6"/><ellipse transform="rotate(-67.642 207.132 62.183)" class="st3" cx="207.1" cy="62.2" rx="2.5" ry="2.6"/><path class="st3" d="m40.8 66.2 175.3 5.7M162.9 70.5v106.2M209.7 98.6l-24.3-.8v-9.7l24.3.8z"/><path class="st5" d="m139.6 159.9-77.4-2.6v-74l77.4 2.6z"/><path class="st6" d="M139.6 156.9v3l-3-.1"/><path class="st7" d="m130.1 159.5-61.6-2"/><path class="st6" d="m65.2 157.4-3-.1v-3"/><path class="st8" d="M62.2 148.1V89.4"/><path class="st6" d="M62.2 86.3v-3l3 .1"/><path class="st7" d="m71.7 83.6 61.6 2"/><path class="st6" d="m136.6 85.8 3 .1v3"/><path class="st8" d="M139.6 95v58.8"/><g><path class="st9" d="M100.9 108.5v26.1M87.2 121.1l27.4.9"/></g><path class="st3" d="m196.1 137-24.3-.8v-9.6l24.3.8zM171.8 106.8l37.9 1.3M171.8 116.3l37.9 1.2"/><g><path class="st5" d="m76 112.6-70.4-2.8c-1.3-.1-2.4 1-2.4 2.3v46.3c0 1.3 1.1 2.4 2.4 2.5l70.4 2.8c1.3.1 2.4-1 2.4-2.3v-46.3c0-1.4-1.1-2.5-2.4-2.5z"/><path class="st10" d="M9.2 119.7s-5.5-4.1-6-6c-.5-1.9-.5-3.9 4.1-4s65.1 2.6 65.1 2.6c.4 4-31.7 26.5-31.7 26.5L9.2 119.7z"/><path class="st10" d="M4 117.1s-.3-3.1-.8 2.9c-.5 6.1 0 36.7 0 36.7s-.2 3.5 4.8 4.2c5.1.6 62.7 1.2 62.7 1.2s2.5 1.4 2.4-2.3c-.1-3.6 1.2-38.5 1.2-38.5L43 140.8 4 117.1z"/><path d="m3.2 116.1 38 23.2c1.3.8 2.9.8 4.1 0l33.1-20.2" style="fill:none;stroke:#003d68;stroke-width:1.8;stroke-linecap:round;stroke-linejoin:round;stroke-miterlimit:10"/><path class="st3" d="m76 112.6-70.4-2.8c-1.3-.1-2.4 1-2.4 2.3v46.3c0 1.3 1.1 2.4 2.4 2.5l70.4 2.8c1.3.1 2.4-1 2.4-2.3v-46.3c0-1.4-1.1-2.5-2.4-2.5z"/></g><g><path style="fill:#fff;stroke:#003d68;stroke-width:1.8;stroke-linecap:round;stroke-linejoin:round;stroke-miterlimit:10" d="m166.6 165.6-39.7-26.1 7.8 45.4L145 174l9.7 14.7 6.9-4.2-9.7-14.7z"/><linearGradient id="SVGID_00000030482403956468987170000011751893418528245636_" gradientUnits="userSpaceOnUse" x1="266.258" y1="423.288" x2="295.499" y2="423.288" gradientTransform="matrix(.8653 -.5208 -.5685 -.8543 141.05 672.303)"><stop offset="0" style="stop-color:#e8e8e8"/><stop offset="1" style="stop-color:#eee"/></linearGradient><path style="fill:url(#SVGID_00000030482403956468987170000011751893418528245636_)" d="m161.2 164.5-31.1-20.9c-.3-.2-.7.1-.6.3l6.6 35.7c.1.4.5.5.7.2l8.2-8.5 9.9 14.9c.1.2.4.3.5.1l4-2.4c.2-.1.3-.3.1-.5l-10-14.8 11.6-3.4c.3-.2.4-.5.1-.7z"/></g></g></svg>