<svg width="199" height="117" viewBox="0 0 199 117" fill="none" xmlns="http://www.w3.org/2000/svg">
<g clip-path="url(#clip0_2645_13564)">
<path d="M111.56 81.4099C111.56 81.4099 110.16 87.8499 111.82 90.3299C113.47 92.8199 117.5 91.8699 119.94 91.4799C122.36 91.0799 125.95 89.7699 126.28 86.8899C126.28 86.8899 134.34 85.3499 145.88 91.9799C157.29 98.5199 167.26 104.53 179.62 104.01L179.44 115.63L86.27 112.96L74.1 86.7799C74.46 86.7499 74.98 86.8699 75.52 87.5999C76.47 88.8699 81.65 92.7599 87.64 90.9299C87.64 90.9299 92.89 79.7299 87.65 76.6899C87.65 76.6899 80.11 75.8299 77.08 78.8599C74.04 81.8999 74.73 83.9299 74.73 83.9299L72.91 84.2299L59.41 55.1599L65.28 55.6299L65.89 38.6599L51.46 38.0399L41.44 16.4399L180.88 21.5299L179.65 101.14C177.58 101.06 168.03 100.55 163.42 98.0899C158.24 95.3499 158.51 96.4599 149.29 90.5699C140.06 84.6699 128.57 83.9199 128.57 83.9199C128.57 83.9199 126.67 84.7099 126 81.2899C125.33 77.8799 116.11 76.1999 113.44 77.6799C110.79 79.1799 111.56 81.4099 111.56 81.4099Z" fill="url(#paint0_linear_2645_13564)"/>
<path d="M30.51 54.48C30.51 54.48 32.61 45.55 37.25 42.37C37.3 42.34 37.34 42.3 37.39 42.27C41.79 39.28 46.97 37.84 52.2 38.06L65.89 38.65L65.27 55.62L30.51 54.48Z" fill="#87BACA"/>
<path d="M19.24 104.93L19.17 110.28C19.16 110.71 19.51 111.07 19.94 111.08L178.5 115.62C179.01 115.63 179.43 115.23 179.43 114.72L179.57 103.94" stroke="#003A5F" stroke-width="1.8" stroke-miterlimit="10"/>
<path d="M179.62 101.11L179.92 78.3399C181.03 49.8499 180.93 15.1999 181.23 6.80994C181.27 5.78994 180.48 4.92994 179.45 4.88994C162.05 4.25994 35.62 1.35994 20.65 0.889945C19.85 0.859945 19.19 1.48994 19.18 2.28994C19.04 10.5799 19.71 51.9999 19.53 81.5199L19.28 101.99" stroke="#003A5F" stroke-width="1.8" stroke-miterlimit="10"/>
<path d="M18.93 16.7899L180.89 20.5499" stroke="#003A5F" stroke-width="1.8" stroke-miterlimit="10"/>
<path d="M29.48 10.79C29.48 10.79 31.55 10.67 31.58 8.08997C31.61 5.79997 28.71 4.46997 27.25 5.65997C25.79 6.84997 25.48 10.45 29.48 10.79Z" stroke="#003A5F" stroke-width="1.8" stroke-miterlimit="10"/>
<path d="M41.79 11.33C41.79 11.33 43.86 11.21 43.89 8.63001C43.92 6.34001 41.02 5.01001 39.56 6.20001C38.09 7.39001 37.8 10.99 41.79 11.33Z" stroke="#003A5F" stroke-width="1.8" stroke-miterlimit="10"/>
<path d="M55.02 11.81C55.02 11.81 57.09 11.69 57.12 9.10999C57.15 6.81999 54.25 5.48999 52.79 6.67999C51.32 7.87999 51.02 11.47 55.02 11.81Z" stroke="#003A5F" stroke-width="1.8" stroke-miterlimit="10"/>
<path d="M31.26 38.3299L30.77 53.3699C30.75 53.9699 31.22 54.4699 31.81 54.4899C36.96 54.6999 59.03 55.5699 64.25 55.5999C64.84 55.5999 65.32 55.1399 65.34 54.5499L65.83 39.6899C65.85 39.0899 65.38 38.5899 64.78 38.5699L32.39 37.2799C31.79 37.2499 31.28 37.7299 31.26 38.3299Z" stroke="#003A5F" stroke-width="1.8" stroke-miterlimit="10"/>
<path d="M118.78 44.47C118.78 44.47 119.56 55.96 121.49 56.21C123.42 56.47 126.01 48.19 126.01 48.19C126.01 48.19 128.71 56.22 130.21 56.46C131.71 56.69 133.69 45.13 133.69 45.13" stroke="#003A5F" stroke-width="1.8" stroke-miterlimit="10" stroke-linecap="round" stroke-linejoin="round"/>
<path d="M137.4 45.7C137.4 45.7 138.18 57.1899 140.11 57.4399C142.04 57.6999 144.63 49.4199 144.63 49.4199C144.63 49.4199 147.33 57.4499 148.83 57.6899C150.33 57.9299 152.31 46.36 152.31 46.36" stroke="#003A5F" stroke-width="1.8" stroke-miterlimit="10" stroke-linecap="round" stroke-linejoin="round"/>
<path d="M99.08 43.1699C99.08 43.1699 99.86 54.6599 101.79 54.9099C103.72 55.1699 107.19 46.7699 107.19 46.7699C107.19 46.7699 109.01 54.9099 110.5 55.1499C111.99 55.3899 113.93 44.6499 113.93 44.6499" stroke="#003A5F" stroke-width="1.8" stroke-miterlimit="10" stroke-linecap="round" stroke-linejoin="round"/>
<path d="M84.61 89.5299C84.61 89.5299 85.94 91.4899 84.61 91.3999C83.28 91.3099 75.53 92.6499 74.82 84.1899C74.82 84.1899 80.25 82.4099 83.99 83.6599C84.08 83.7499 83.1 87.2199 84.61 89.5299Z" fill="#87BACA"/>
<path d="M19.29 68.35C18.85 68.35 15.29 69.77 11.19 73.07C5.76001 77.43 3.27001 82.77 3.71001 89.09C3.98001 93.18 5.67001 96.39 8.78001 98.61C15.37 103.33 27.65 102.79 36.9 100.21C39.48 99.5 43.49 97.36 48.11 94.78C56.12 90.42 66 85.08 74.72 83.92" stroke="#003A5F" stroke-width="1.8" stroke-miterlimit="10"/>
<path d="M75 86.68C66.82 87.75 57.12 93 49.37 97.27C44.56 99.85 40.47 102.08 37.53 102.88C33.26 104.04 28.1 104.93 22.94 104.93C17.07 104.93 11.37 103.86 7.19001 100.84C3.45001 98.17 1.32001 94.34 0.960007 89.36C-0.199993 72.1 18.76 65.87 18.94 65.87" stroke="#003A5F" stroke-width="1.8" stroke-miterlimit="10"/>
<path d="M86.93 91.22C86.93 91.22 75.72 92.82 74.83 85.35C74.12 79.39 77.86 76.45 87.64 76.72" stroke="#003A5F" stroke-width="1.8" stroke-miterlimit="10" stroke-linecap="round" stroke-linejoin="round"/>
<path d="M89.9437 84.2148C90.2952 80.1985 89.269 76.8278 87.6514 76.6862C86.0339 76.5446 84.4376 79.6857 84.086 83.7021C83.7345 87.7185 84.7607 91.0891 86.3783 91.2307C87.9958 91.3723 89.5921 88.2312 89.9437 84.2148Z" stroke="#003A5F" stroke-width="1.8" stroke-miterlimit="10" stroke-linecap="round" stroke-linejoin="round"/>
<path d="M126.62 85.5299C126.62 85.6199 126.62 85.6199 126.62 85.7099V85.7999C126.53 86.2399 126.44 86.6899 126.18 87.2199V87.3099C125.38 88.9999 123.6 90.7799 119.59 91.5799C119.5 91.5799 119.41 91.5799 119.32 91.6699L114.78 92.3799C114.78 92.3799 114.87 92.1999 115.05 91.9399C115.76 90.6899 117.63 86.6899 117.1 83.3099V83.2199C117.1 82.9499 117.1 82.7799 117.1 82.5999C117.54 79.5699 126.62 83.3099 126.62 83.3099C126.62 83.3099 126.71 83.5799 126.71 84.0199C126.71 84.3699 126.71 84.8999 126.62 85.5299Z" fill="#87BACA"/>
<path d="M126.8 86.68C126.8 86.68 127.33 86.59 128.22 86.59C128.31 86.59 128.31 86.59 128.4 86.59C128.49 86.59 128.58 86.59 128.67 86.59C128.94 86.59 129.2 86.59 129.38 86.68C129.56 86.68 129.82 86.68 130.09 86.77C130.45 86.77 130.8 86.86 131.07 86.86C131.25 86.86 131.43 86.95 131.6 86.95C132.85 87.13 134.36 87.48 136.05 87.93C136.23 88.02 136.41 88.02 136.58 88.11C138.72 88.73 141.12 89.62 143.79 90.96C146.1 92.03 148.6 93.45 151.35 95.23C153.04 96.3 155.09 97.45 157.4 98.61C157.4 98.61 157.49 98.61 157.49 98.7C158.56 99.23 159.63 99.68 160.69 100.12C160.78 100.12 160.87 100.21 160.96 100.21C163.63 101.28 166.39 102.17 169.33 102.88C169.69 102.97 170.04 103.06 170.31 103.06C172.98 103.59 175.65 103.95 178.23 103.95C180.99 103.95 183.57 103.59 185.97 102.79C190.95 101.1 194.34 97.63 196.03 92.47C197.9 86.95 197.63 81.79 195.14 77.16C192.06 71.35 186.22 67.33 180.16 64.59" stroke="#003A5F" stroke-width="1.8" stroke-miterlimit="10"/>
<path d="M180.29 67.34C186.43 70.28 190.85 73.99 193.1 78.23C195.24 82.23 195.41 86.68 193.81 91.49C192.3 95.76 189.54 98.7 185.36 100.12C181.27 101.54 175.93 101.37 170.59 100.21C165.96 99.23 161.25 97.45 157.15 95.32C156.62 95.05 156.17 94.79 155.73 94.52C154.75 93.99 153.86 93.45 152.97 92.83C149.94 90.87 147.1 89.27 144.43 88.11C139.18 85.71 134.91 84.64 131.88 84.19C130.55 84.01 129.39 83.92 128.59 83.92C128.23 83.92 128.06 83.92 128.06 83.92C127.53 83.92 127.08 83.92 126.9 84.01C126.81 84.01 126.81 84.01 126.81 84.01H126.72C126.63 84.01 126.63 84.01 126.63 84.01" stroke="#003A5F" stroke-width="1.8" stroke-miterlimit="10"/>
<path d="M114.16 77.2499C114.16 77.2499 125.64 75.6499 126.53 83.2099C127.24 89.1699 123.5 92.1099 113.72 91.8399" stroke="#003A5F" stroke-width="1.8" stroke-miterlimit="10" stroke-linecap="round" stroke-linejoin="round"/>
<path d="M116.936 84.7529C117.288 80.7366 116.261 77.3659 114.644 77.2243C113.026 77.0827 111.43 80.2238 111.078 84.2402C110.727 88.2565 111.753 91.6272 113.371 91.7688C114.988 91.9104 116.584 88.7693 116.936 84.7529Z" stroke="#003A5F" stroke-width="1.8" stroke-miterlimit="10" stroke-linecap="round" stroke-linejoin="round"/>
<path d="M113.71 81.7899L104.46 80.8099" stroke="#003A5F" stroke-width="1.8" stroke-miterlimit="10" stroke-linecap="round" stroke-linejoin="round"/>
<path d="M113.45 87.13L104.19 86.77" stroke="#003A5F" stroke-width="1.8" stroke-miterlimit="10" stroke-linecap="round" stroke-linejoin="round"/>
</g>
<defs>
<linearGradient id="paint0_linear_2645_13564" x1="41.4409" y1="66.0446" x2="180.886" y2="66.0446" gradientUnits="userSpaceOnUse">
<stop stop-color="#ECECEC"/>
<stop offset="1" stop-color="#F2F2F2"/>
</linearGradient>
<clipPath id="clip0_2645_13564">
<rect width="198.14" height="116.51" fill="white"/>
</clipPath>
</defs>
</svg>
