<svg version="1.1" id="Layer_1" xmlns="http://www.w3.org/2000/svg" x="0" y="0" viewBox="0 0 225 225" style="enable-background:new 0 0 225 225" xml:space="preserve"><style>.st4,.st6{fill:none;stroke:#003c65;stroke-width:1.8;stroke-linecap:round;stroke-linejoin:round;stroke-miterlimit:10}.st6{fill:#fff}</style><path d="m121.4 118-85.9-2.8v-38l121.8 4v3.4c0 19-16.1 34-35.9 33.4z" style="fill:#7cbfcf"/><linearGradient id="SVGID_1_" gradientUnits="userSpaceOnUse" x1="164.887" y1="72.478" x2="185.245" y2="72.478" gradientTransform="matrix(1.0354 .03392 0 1 12.303 11.784)"><stop offset="0" style="stop-color:#e8e8e8"/><stop offset="1" style="stop-color:#eee"/></linearGradient><path d="m204.1 93.3-21.1-.7c0-3 2.5-5.4 5.6-5.3l15.4.5v5.5z" style="fill:url(#SVGID_1_)"/><linearGradient id="SVGID_00000145035220875509240570000017526640824387464367_" gradientUnits="userSpaceOnUse" x1="153.155" y1="110.38" x2="173.513" y2="110.38" gradientTransform="matrix(1.0354 .03392 0 1 12.303 11.784)"><stop offset="0" style="stop-color:#e8e8e8"/><stop offset="1" style="stop-color:#eee"/></linearGradient><path style="fill:url(#SVGID_00000145035220875509240570000017526640824387464367_)" d="m192 130.8-21.1-.7c0-3 2.5-5.4 5.6-5.3l15.4.5v5.5z"/><linearGradient id="SVGID_00000114777783565064969820000015764333530661059505_" gradientUnits="userSpaceOnUse" x1="69.461" y1="43.633" x2="191.431" y2="43.633" gradientTransform="matrix(1.0354 .03392 0 1 12.303 11.784)"><stop offset="0" style="stop-color:#e8e8e8"/><stop offset="1" style="stop-color:#eee"/></linearGradient><path style="fill:url(#SVGID_00000114777783565064969820000015764333530661059505_)" d="M210.5 66.6 84.2 62.5c0-5.2 4.4-9.3 9.8-9.1l116.5 3.8v9.4z"/><path class="st4" d="m209.5 173.2-173.3-5.7c-.6 0-1-.5-1-1V44.8c0-.6.5-1 1-1l173.3 5.7c.6 0 1 .5 1 1v121.6c0 .6-.5 1.1-1 1.1z"/><path d="m215.4 168-4.9-.2V49.5L41.1 44v-4.4c0-.6.5-1 1-1l173.3 5.7c.6 0 1 .5 1 1V167c0 .6-.4 1-1 1z" style="fill:#003c65"/><path class="st4" d="m157.3 119.2-122.1-4V76.9l122.1 4z"/><ellipse transform="rotate(-67.642 43.686 51.712)" class="st4" cx="43.7" cy="51.7" rx="2.5" ry="2.6"/><ellipse transform="rotate(-67.642 53.584 52.036)" class="st4" cx="53.6" cy="52" rx="2.5" ry="2.6"/><ellipse transform="rotate(-67.642 63.481 52.36)" class="st4" cx="63.5" cy="52.4" rx="2.5" ry="2.6"/><ellipse transform="rotate(-67.642 201.533 56.886)" class="st4" cx="201.5" cy="56.9" rx="2.5" ry="2.6"/><path class="st4" d="m35.2 60.9 175.3 5.7M157.3 65.2v106.2M204.1 93.3l-24.3-.8v-9.7l24.3.8zM190.5 131.7l-24.3-.8v-9.6l24.3.8zM166.2 101.5l37.9 1.3M166.2 111l37.9 1.3M46.3 125l102.5 3.3"/><g><path class="st6" d="m86.4 136.9-76.9-2.5c-.6 0-1-.5-1-1v-42c0-.6.5-1 1-1l76.9 2.5c.6 0 1 .5 1 1v41.9c.1.6-.4 1.1-1 1.1zM48 104.2V123M38.3 113.3l19.5.7"/></g><g><path class="st6" d="m202.7 186.3-76.9-2.5c-.6 0-1-.5-1-1v-41.9c0-.6.5-1 1-1l76.9 2.5c.6 0 1 .5 1 1v41.9c.1.6-.4 1.1-1 1zM164.3 153.7v18.8M154.6 162.8l19.5.6"/></g><g><path style="fill:#fff;stroke:#003d68;stroke-width:1.8;stroke-linecap:round;stroke-linejoin:round;stroke-miterlimit:10" d="m116.3 152.7-39.8-26.2 7.8 45.5 10.3-10.9 9.8 14.7 6.9-4.2-9.8-14.7z"/><linearGradient id="SVGID_00000005960500360733197420000009530048614276702384_" gradientUnits="userSpaceOnUse" x1="231.793" y1="459.42" x2="261.033" y2="459.42" gradientTransform="matrix(.8653 -.5208 -.5685 -.8543 141.05 672.303)"><stop offset="0" style="stop-color:#e8e8e8"/><stop offset="1" style="stop-color:#eee"/></linearGradient><path style="fill:url(#SVGID_00000005960500360733197420000009530048614276702384_)" d="m110.8 151.6-31.1-20.9c-.3-.2-.7.1-.6.3l6.6 35.7c.1.4.5.5.7.2l8.2-8.5 9.9 14.9c.1.2.4.3.5.1l4-2.4c.2-.1.3-.3.1-.5l-10-14.8 11.6-3.4c.3-.2.4-.6.1-.7z"/></g></svg>