<svg width="46" height="46" viewBox="0 0 46 46" fill="none" xmlns="http://www.w3.org/2000/svg">
<g filter="url(#filter0_b_1597_55358)">
<rect width="46" height="46" rx="4" fill="black" fill-opacity="0.7"/>
</g>
<path fill-rule="evenodd" clip-rule="evenodd" d="M11.333 22.9997C11.333 16.5564 16.5564 11.333 22.9997 11.333C29.443 11.333 34.6663 16.5564 34.6663 22.9997C34.6663 29.443 29.443 34.6663 22.9997 34.6663C16.5564 34.6663 11.333 29.443 11.333 22.9997ZM14.3563 18.6663C15.5564 16.2773 17.7178 14.4545 20.3329 13.7055C19.7135 14.4244 19.1807 15.2734 18.7457 16.2066C18.3922 16.9651 18.0977 17.7903 17.8707 18.6663H14.3563ZM13.6165 20.6663C13.4313 21.4136 13.333 22.1952 13.333 22.9997C13.333 23.8042 13.4313 24.5858 13.6165 25.333H17.4839C17.3848 24.5776 17.333 23.797 17.333 22.9996C17.333 22.2022 17.3848 21.4217 17.4839 20.6663H13.6165ZM19.5033 20.6663C19.3923 21.4119 19.333 22.1932 19.333 22.9996C19.333 23.8062 19.3923 24.5875 19.5033 25.333H26.496C26.607 24.5874 26.6663 23.8062 26.6663 22.9997C26.6663 22.1932 26.607 21.412 26.496 20.6663H19.5033ZM28.5155 20.6663C28.6146 21.4217 28.6663 22.2023 28.6663 22.9997C28.6663 23.7972 28.6146 24.5777 28.5155 25.333H32.3829C32.5681 24.5858 32.6663 23.8042 32.6663 22.9997C32.6663 22.1952 32.5681 21.4136 32.3829 20.6663H28.5155ZM31.643 18.6663H28.1287C27.9017 17.7904 27.6072 16.9652 27.2537 16.2067C26.8186 15.2734 26.2858 14.4244 25.6663 13.7055C28.2815 14.4544 30.4429 16.2773 31.643 18.6663ZM26.0522 18.6663H19.9471C20.1198 18.0925 20.3252 17.5521 20.5584 17.0516C21.219 15.6345 22.077 14.5892 22.9996 13.9764C23.9223 14.5892 24.7804 15.6345 25.4409 17.0517C25.6742 17.5521 25.8795 18.0925 26.0522 18.6663ZM14.3563 27.333H17.8707C18.1101 28.257 18.4246 29.1245 18.8044 29.9168C19.2279 30.8004 19.7407 31.6064 20.3331 32.2939C17.7179 31.5449 15.5564 29.7221 14.3563 27.333ZM26.0522 27.333H19.9471C20.1319 27.9471 20.3542 28.5229 20.6079 29.0524C21.2629 30.4189 22.1011 31.426 22.9998 32.0229C23.9224 31.4101 24.7804 30.3648 25.4409 28.9478C25.6742 28.4473 25.8796 27.9069 26.0522 27.333ZM27.2537 29.7927C27.6072 29.0342 27.9017 28.209 28.1287 27.333H31.643C30.4429 29.722 28.2815 31.5449 25.6664 32.2938C26.2858 31.575 26.8187 30.726 27.2537 29.7927Z" fill="white"/>
<defs>
<filter id="filter0_b_1597_55358" x="-5" y="-5" width="56" height="56" filterUnits="userSpaceOnUse" color-interpolation-filters="sRGB">
<feFlood flood-opacity="0" result="BackgroundImageFix"/>
<feGaussianBlur in="BackgroundImageFix" stdDeviation="2.5"/>
<feComposite in2="SourceAlpha" operator="in" result="effect1_backgroundBlur_1597_55358"/>
<feBlend mode="normal" in="SourceGraphic" in2="effect1_backgroundBlur_1597_55358" result="shape"/>
</filter>
</defs>
</svg>
