<svg width="277" height="156" viewBox="0 0 277 156" fill="none" xmlns="http://www.w3.org/2000/svg">
<g clip-path="url(#clip0_2645_13661)">
<path d="M212.88 62.5499L212.29 78.6499C212.29 78.6499 219.71 74.6399 222.88 73.0499C230.23 69.3799 232.28 68.9799 240.96 63.8199L212.88 62.5499Z" fill="#87BACA"/>
<path d="M73.62 16.45L88.19 38.0499L98.07 38.6699L98.01 52.61L119.56 84.55L190.79 89.1499L212.1 78.37L213.06 21.5499L73.62 16.45Z" fill="url(#paint0_linear_2645_13661)"/>
<path d="M62.6899 54.49C62.6899 54.49 64.7899 45.56 69.4299 42.38C69.4799 42.35 69.5199 42.31 69.5699 42.28C73.9699 39.29 79.1499 37.85 84.3799 38.07L98.0699 38.66L97.4499 55.63L62.6899 54.49Z" fill="#87BACA"/>
<path d="M212.1 78.35C213.21 49.86 213.11 15.21 213.41 6.81995C213.45 5.79995 212.66 4.93995 211.63 4.89995C194.23 4.26995 67.8 1.36995 52.83 0.899954C52.03 0.869954 51.37 1.49995 51.36 2.29995C51.22 10.59 51.89 52.01 51.71 81.53" stroke="#003A5F" stroke-width="1.8" stroke-miterlimit="10"/>
<path d="M51.11 16.7899L213.07 20.5499" stroke="#003A5F" stroke-width="1.8" stroke-miterlimit="10"/>
<path d="M61.6599 10.79C61.6599 10.79 63.7299 10.67 63.7599 8.08997C63.7899 5.79997 60.8899 4.46997 59.4299 5.65997C57.9599 6.84997 57.6599 10.45 61.6599 10.79Z" stroke="#003A5F" stroke-width="1.8" stroke-miterlimit="10"/>
<path d="M73.9699 11.33C73.9699 11.33 76.0399 11.21 76.0699 8.63001C76.0999 6.34001 73.1999 5.01001 71.7399 6.20001C70.2799 7.39001 69.9699 10.99 73.9699 11.33Z" stroke="#003A5F" stroke-width="1.8" stroke-miterlimit="10"/>
<path d="M87.1899 11.81C87.1899 11.81 89.2599 11.69 89.2899 9.10999C89.3199 6.81999 86.4199 5.48999 84.9599 6.67999C83.4999 7.86999 83.1999 11.47 87.1899 11.81Z" stroke="#003A5F" stroke-width="1.8" stroke-miterlimit="10"/>
<path d="M63.4299 38.3299L62.9399 53.3699C62.9199 53.9699 63.3899 54.4699 63.9799 54.4899C69.1299 54.6999 91.1999 55.5699 96.4199 55.5999C97.0099 55.5999 97.4899 55.1399 97.5099 54.5499L97.9999 39.6899C98.0199 39.0899 97.5499 38.5899 96.9499 38.5699L64.5599 37.2799C63.9599 37.2599 63.4499 37.7299 63.4299 38.3299Z" stroke="#003A5F" stroke-width="1.8" stroke-miterlimit="10"/>
<path d="M150.95 44.47C150.95 44.47 151.73 55.96 153.66 56.21C155.59 56.46 158.18 48.19 158.18 48.19C158.18 48.19 160.88 56.22 162.38 56.46C163.88 56.69 165.86 45.13 165.86 45.13" stroke="#003A5F" stroke-width="1.8" stroke-miterlimit="10" stroke-linecap="round" stroke-linejoin="round"/>
<path d="M169.58 45.7C169.58 45.7 170.36 57.1899 172.29 57.4399C174.22 57.6899 176.81 49.4199 176.81 49.4199C176.81 49.4199 179.51 57.4499 181.01 57.6899C182.51 57.9199 184.49 46.36 184.49 46.36" stroke="#003A5F" stroke-width="1.8" stroke-miterlimit="10" stroke-linecap="round" stroke-linejoin="round"/>
<path d="M131.26 43.1699C131.26 43.1699 132.04 54.6599 133.97 54.9099C135.9 55.1599 139.37 46.7699 139.37 46.7699C139.37 46.7699 141.19 54.9099 142.68 55.1499C144.17 55.3899 146.11 44.6499 146.11 44.6499" stroke="#003A5F" stroke-width="1.8" stroke-miterlimit="10" stroke-linecap="round" stroke-linejoin="round"/>
<path d="M224.91 119.05C223.62 119.69 192.3 90.33 192.3 90.33C198.23 109.59 214.54 123.17 217.08 125.77C217.86 126.57 223.33 122.88 228.84 119.66C230.52 118.68 227.75 131.73 229.3 130.98C231.03 130.15 241.86 123.79 241.86 123.79C241.86 123.79 241.36 113.21 241.47 113.14C242.84 112.28 241.35 109.44 241.35 109.44C241.34 109.45 226.21 118.41 224.91 119.05Z" fill="#87BACA"/>
<path d="M27.49 119.03C27.49 119.03 33.16 127.75 39.91 128.59C46.66 129.43 161.72 135.19 163.55 134.49C163.55 134.49 191.8 92.4299 190.11 89.5699L161.09 124.4C160.07 125.63 158.52 126.3 156.92 126.21L27.49 119.03Z" fill="#87BACA"/>
<path d="M210.36 142.11L210.64 130.06L229.3 119.38L228.68 130.51" stroke="#003A5F" stroke-width="1.8" stroke-miterlimit="10" stroke-linecap="round" stroke-linejoin="round"/>
<path d="M240.96 63.82L212.88 62.98" stroke="#003A5F" stroke-width="1.8" stroke-miterlimit="10" stroke-linecap="round" stroke-linejoin="round"/>
<path d="M212.94 140.8C212.94 140.8 212.65 132.76 213.08 132.24C213.51 131.7 229 122.76 229 122.76L228.86 128.3C228.86 128.3 229.43 130.54 226.99 132.03C224.53 133.52 212.94 140.8 212.94 140.8Z" fill="#003A5F"/>
<path d="M22 80.2999C25.64 80.2999 190.07 87.4699 190.71 88.8699C191.37 90.2699 189.78 154.97 189.78 154.97L28.67 147.58C28.67 147.58 28.36 142.64 27.49 119.03" stroke="#003A5F" stroke-width="1.8" stroke-miterlimit="10" stroke-linecap="round" stroke-linejoin="round"/>
<path d="M241.65 63.8199L190.72 88.8499C190.72 88.8499 223.39 119.48 224.9 119.04C228.99 117.87 275.35 89.6099 275.25 89.5599L241.65 63.8199Z" stroke="#003A5F" stroke-width="1.8" stroke-miterlimit="10" stroke-linecap="round" stroke-linejoin="round"/>
<path d="M189.78 154.97C189.78 154.97 231.16 128.7 241.85 123.78C241.85 123.78 241.85 123.78 241.65 110.4" stroke="#003A5F" stroke-width="1.8" stroke-miterlimit="10" stroke-linecap="round" stroke-linejoin="round"/>
<path d="M190.72 88.8599L160.78 124.35C160.03 125.24 158.9 125.73 157.74 125.66L1.80997 116.64C0.859973 116.62 0.699973 116.52 1.12997 115.9L22 80.2999" stroke="#003A5F" stroke-width="1.8" stroke-miterlimit="10" stroke-linecap="round" stroke-linejoin="round"/>
<path d="M22 80.3L51.74 69.87" stroke="#003A5F" stroke-width="1.8" stroke-miterlimit="10" stroke-linecap="round" stroke-linejoin="round"/>
</g>
<defs>
<linearGradient id="paint0_linear_2645_13661" x1="73.6153" y1="52.7876" x2="213.066" y2="52.7876" gradientUnits="userSpaceOnUse">
<stop stop-color="#ECECEC"/>
<stop offset="1" stop-color="#F2F2F2"/>
</linearGradient>
<clipPath id="clip0_2645_13661">
<rect width="276.16" height="155.86" fill="white"/>
</clipPath>
</defs>
</svg>
