<svg width="60" height="60" viewBox="0 0 60 60" fill="none" xmlns="http://www.w3.org/2000/svg">
<circle cx="30" cy="30" r="30" fill="#BBE0FA"/>
<path fill-rule="evenodd" clip-rule="evenodd" d="M18.3333 17.5H41.6667C42.1269 17.5 42.5 17.8731 42.5 18.3333V32.2613L37.538 27.4371C37.0528 26.9654 36.2804 26.9654 35.7953 27.4371L29.8433 33.2237L24.9656 30.0622C24.531 29.7805 23.9677 29.796 23.5492 30.1011L17.5 34.512V18.3333C17.5 17.8731 17.8731 17.5 18.3333 17.5ZM17.5 37.606V41.6667C17.5 42.1269 17.8731 42.5 18.3333 42.5H41.6667C42.1269 42.5 42.5 42.1269 42.5 41.6667V35.6719L42.462 35.7111L36.6666 30.0767L30.8713 35.7111C30.4532 36.1176 29.8095 36.1809 29.3201 35.8638L24.3274 32.6277L17.5 37.606ZM15 18.3333C15 16.4924 16.4924 15 18.3333 15H41.6667C43.5076 15 45 16.4924 45 18.3333V41.6667C45 43.5076 43.5076 45 41.6667 45H18.3333C16.4924 45 15 43.5076 15 41.6667V18.3333Z" fill="#02395C"/>
</svg>
