<svg width="60" height="60" viewBox="0 0 60 60" fill="none" xmlns="http://www.w3.org/2000/svg">
<circle cx="30" cy="30" r="30" fill="#BBE0FA"/>
<path fill-rule="evenodd" clip-rule="evenodd" d="M15.4167 30.0003C15.4167 21.9462 21.9459 15.417 30 15.417C38.0542 15.417 44.5834 21.9462 44.5834 30.0003C44.5834 38.0545 38.0542 44.5837 30 44.5837C21.9459 44.5837 15.4167 38.0545 15.4167 30.0003ZM19.1958 24.5837C20.6959 21.5974 23.3977 19.3188 26.6666 18.3826C25.8923 19.2812 25.2263 20.3424 24.6825 21.509C24.2406 22.4571 23.8725 23.4886 23.5888 24.5837H19.1958ZM18.2711 27.0837C18.0395 28.0177 17.9167 28.9947 17.9167 30.0003C17.9167 31.006 18.0395 31.9829 18.2711 32.917H23.1053C22.9814 31.9727 22.9167 30.997 22.9167 30.0003C22.9167 29.0035 22.9814 28.0278 23.1053 27.0837H18.2711ZM25.6296 27.0837C25.4908 28.0156 25.4167 28.9922 25.4167 30.0003C25.4167 31.0085 25.4908 31.9851 25.6296 32.917H34.3705C34.5092 31.985 34.5834 31.0085 34.5834 30.0004C34.5834 28.9923 34.5092 28.0157 34.3705 27.0837H25.6296ZM36.8947 27.0837C37.0187 28.0279 37.0834 29.0035 37.0834 30.0004C37.0834 30.9972 37.0187 31.9728 36.8948 32.917H41.729C41.9605 31.9829 42.0834 31.006 42.0834 30.0003C42.0834 28.9947 41.9605 28.0177 41.729 27.0837H36.8947ZM40.8042 24.5837H36.4112C36.1275 23.4887 35.7594 22.4572 35.3175 21.5091C34.7737 20.3425 34.1076 19.2812 33.3333 18.3826C36.6023 19.3188 39.3041 21.5973 40.8042 24.5837ZM33.8157 24.5837H26.1843C26.4002 23.8664 26.6569 23.1908 26.9485 22.5652C27.7741 20.7938 28.8467 19.4873 29.9999 18.7213C31.1532 19.4873 32.2259 20.7939 33.0516 22.5653C33.3431 23.1909 33.5999 23.8664 33.8157 24.5837ZM19.1958 35.417H23.5888C23.8881 36.5719 24.2812 37.6563 24.7559 38.6467C25.2852 39.7512 25.9264 40.7587 26.6668 41.6181C23.3978 40.6819 20.696 38.4033 19.1958 35.417ZM33.8157 35.417H26.1843C26.4154 36.1846 26.6932 36.9044 27.0104 37.5663C27.829 39.2744 28.8768 40.5332 30.0002 41.2793C31.1534 40.5133 32.226 39.2068 33.0516 37.4355C33.3432 36.8099 33.5999 36.1343 33.8157 35.417ZM35.3175 38.4916C35.7594 37.5435 36.1275 36.512 36.4113 35.417H40.8042C39.3041 38.4033 36.6023 40.6818 33.3335 41.618C34.1077 40.7194 34.7738 39.6582 35.3175 38.4916Z" fill="#02395C"/>
</svg>
