<svg width="60" height="60" viewBox="0 0 60 60" fill="none" xmlns="http://www.w3.org/2000/svg">
<circle cx="30" cy="30" r="30" fill="#BBE0FA"/>
<path fill-rule="evenodd" clip-rule="evenodd" d="M25 19.167H40C40.4603 19.167 40.8334 19.5401 40.8334 20.0003V40.0003C40.8334 40.4606 40.4603 40.8337 40 40.8337H25C24.5398 40.8337 24.1667 40.4606 24.1667 40.0003V39.167H21.6667V40.0003C21.6667 41.8413 23.1591 43.3337 25 43.3337H40C41.841 43.3337 43.3334 41.8413 43.3334 40.0003V20.0003C43.3334 18.1594 41.841 16.667 40 16.667H25C23.1591 16.667 21.6667 18.1594 21.6667 20.0003V20.8337H24.1667V20.0003C24.1667 19.5401 24.5398 19.167 25 19.167Z" fill="#02395C"/>
<path fill-rule="evenodd" clip-rule="evenodd" d="M24.1667 23.3337H22.5C18.8181 23.3337 15.8334 26.3184 15.8334 30.0003C15.8334 33.6822 18.8181 36.667 22.5 36.667H24.1667V34.167H22.5C20.1989 34.167 18.3334 32.3015 18.3334 30.0003C18.3334 27.6991 20.1989 25.8337 22.5 25.8337H24.1667V23.3337ZM29.1667 34.167H30.8334C33.1346 34.167 35 32.3015 35 30.0003C35 27.6991 33.1346 25.8337 30.8334 25.8337H29.1667V23.3337H30.8334C34.5153 23.3337 37.5 26.3184 37.5 30.0003C37.5 33.6822 34.5153 36.667 30.8334 36.667H29.1667V34.167Z" fill="#02395C"/>
<path fill-rule="evenodd" clip-rule="evenodd" d="M30.8334 31.2503H22.5L22.5 28.7503L30.8334 28.7503V31.2503Z" fill="#02395C"/>
</svg>
