<?xml version="1.0" encoding="utf-8"?>
<!-- Generator: Adobe Illustrator 19.2.0, SVG Export Plug-In . SVG Version: 6.00 Build 0)  -->
<svg version="1.1" id="Layer_1" xmlns="http://www.w3.org/2000/svg" xmlns:xlink="http://www.w3.org/1999/xlink" x="0px" y="0px"
	 width="476.9px" height="123.4px" viewBox="0 0 476.9 123.4" style="enable-background:new 0 0 476.9 123.4;" xml:space="preserve"
	>
<style type="text/css">
	.st0{fill:#FFFFFF;}
	.st1{fill:#005498;}
	.st2{fill:#FFD800;}
</style>
<g>
	<path class="st0" d="M477.1,103.6c0,10.9-8.9,19.8-19.8,19.8H20c-10.9,0-19.8-8.9-19.8-19.8V19.8C0.2,8.9,9.1,0,20,0h437.3
		c10.9,0,19.8,8.9,19.8,19.8V103.6z"/>
</g>
<g>
	<path class="st1" d="M147.6,50.2h-5.8h-26.9h-5.8l-3.9,4.4L92.5,68.9l0,0l-3.9,4.4h-6H56.2h-5.8l3.9-4.5l1.8-2.1l3.9-4.5h-5.8h-7.6
		h-4.2c-3.2,0-5.8,2.7-5.8,6l0,0v11.5v1.1c0,3.3,2.6,6,5.8,6H44h61.1h4.4c3.2,0,7.6-2,9.7-4.4l10.2-11.6L147.6,50.2z"/>
	<path class="st2" d="M155.3,36.8c3.2,0,5.8,2.7,5.8,6v12.6c0,3.3-2.6,6-5.8,6h-3.2h-8.5h-5.8l3.9-4.4l0,0l1.9-2.2l3.9-4.4h-38.6
		L88.3,73.6H50l27.5-31.1l1-1.2c2.2-2.4,6.5-4.4,9.7-4.4h1.4h65.7V36.8z"/>
</g>
<path class="st1" d="M440.7,85.6v-3.8c0-0.5-0.3-0.8-1-0.8h-2.4c-0.7,0-1.2-0.1-1.3-0.4c-0.2-0.3-0.2-0.9-0.2-1.9v-14h3.9
	c0.3,0,0.5-0.1,0.7-0.3s0.3-0.4,0.3-0.7v-3.9c0-0.3-0.1-0.5-0.3-0.7s-0.4-0.3-0.7-0.3h-3.9v-5c0-0.3-0.1-0.5-0.2-0.6
	c-0.2-0.1-0.4-0.2-0.6-0.2h-0.1l-5.8,1c-0.3,0.1-0.5,0.2-0.7,0.3c-0.2,0.2-0.3,0.4-0.3,0.6v3.9h-3.9c-0.3,0-0.5,0.1-0.7,0.3
	s-0.3,0.4-0.3,0.7V63c0,0.3,0.1,0.5,0.3,0.6c0.2,0.2,0.4,0.3,0.7,0.4l3.9,0.6v14c0,1.7,0.2,3.1,0.5,4.2c0.4,1.1,0.9,1.9,1.5,2.5
	c0.7,0.6,1.5,1,2.5,1.2s2.2,0.3,3.5,0.3c0.7,0,1.3,0,1.9-0.1c0.5-0.1,1.2-0.2,1.9-0.3C440.4,86.4,440.7,86.1,440.7,85.6 M419.9,85.1
	v-4.3c0-0.3-0.1-0.5-0.3-0.6c-0.2-0.1-0.4-0.2-0.7-0.2h-0.1c-0.9,0.1-1.8,0.2-2.6,0.2c-0.8,0.1-1.9,0.1-3.3,0.1
	c-0.5,0-1.1-0.1-1.5-0.3c-0.5-0.2-0.9-0.5-1.3-0.9s-0.6-1-0.8-1.7c-0.2-0.7-0.3-1.6-0.3-2.7v-4c0-1.1,0.1-2,0.3-2.7
	c0.2-0.7,0.5-1.3,0.8-1.7c0.4-0.4,0.8-0.7,1.3-0.9s1-0.3,1.5-0.3c1.4,0,2.5,0,3.3,0.1s1.7,0.1,2.6,0.2h0.1c0.3,0,0.5-0.1,0.7-0.2
	c0.2-0.1,0.3-0.3,0.3-0.6v-4.3c0-0.4-0.1-0.6-0.2-0.7c-0.2-0.1-0.4-0.3-0.8-0.4c-0.7-0.2-1.6-0.3-2.6-0.5c-1.1-0.2-2.3-0.2-3.8-0.2
	c-3.4,0-6.1,1-8.2,3.1c-2,2.1-3.1,5.1-3.1,9.1v4c0,3.9,1,7,3.1,9.1c2,2.1,4.8,3.1,8.2,3.1c1.4,0,2.7-0.1,3.8-0.2
	c1.1-0.2,2-0.3,2.6-0.5c0.4-0.1,0.6-0.2,0.8-0.4C419.8,85.7,419.9,85.4,419.9,85.1 M388.6,80c-0.6,0.3-1.2,0.5-1.9,0.7
	c-0.7,0.2-1.4,0.3-2.1,0.3c-1,0-1.8-0.1-2.3-0.4c-0.5-0.3-0.7-0.9-0.7-2v-0.4c0-0.6,0.1-1.1,0.2-1.5s0.4-0.8,0.7-1.1
	c0.3-0.3,0.8-0.5,1.3-0.7c0.5-0.1,1.2-0.2,2.1-0.2h2.7L388.6,80L388.6,80z M396.2,68.3c0-1.8-0.3-3.3-0.8-4.5s-1.3-2.2-2.2-3
	c-1-0.8-2.1-1.4-3.5-1.7c-1.4-0.4-3-0.6-4.7-0.6c-1.6,0-3.2,0.1-4.7,0.3s-2.7,0.4-3.6,0.7c-0.6,0.2-0.9,0.5-0.9,1.1v3.9
	c0,0.3,0.1,0.5,0.2,0.7c0.2,0.1,0.4,0.2,0.6,0.2h0.2c0.4,0,0.9-0.1,1.4-0.1c0.6,0,1.2-0.1,2-0.1c0.7,0,1.5-0.1,2.3-0.1s1.6,0,2.3,0
	c1.1,0,2,0.2,2.6,0.6c0.6,0.4,1,1.3,1,2.7v1.7h-2.6c-4.1,0-7.2,0.6-9,1.9s-2.8,3.4-2.8,6.2v0.4c0,1.6,0.2,2.9,0.7,3.9
	c0.5,1.1,1.1,1.9,1.9,2.6c0.8,0.6,1.6,1.1,2.6,1.4c1,0.3,2,0.4,3.1,0.4c1.4,0,2.7-0.2,3.7-0.6c1-0.4,2-0.9,3-1.6v0.8
	c0,0.3,0.1,0.5,0.3,0.7c0.2,0.2,0.4,0.3,0.7,0.3h5.4c0.3,0,0.5-0.1,0.7-0.3s0.3-0.4,0.3-0.7V68.3H396.2z M370.5,85.6v-3.8
	c0-0.5-0.3-0.8-1-0.8h-2.4c-0.7,0-1.2-0.1-1.3-0.4c-0.2-0.3-0.2-0.9-0.2-1.9v-14h3.9c0.3,0,0.5-0.1,0.7-0.3s0.3-0.4,0.3-0.7v-3.9
	c0-0.3-0.1-0.5-0.3-0.7s-0.4-0.3-0.7-0.3h-3.9v-5c0-0.3-0.1-0.5-0.2-0.6c-0.2-0.1-0.4-0.2-0.6-0.2h-0.1l-5.8,1
	c-0.3,0.1-0.5,0.2-0.7,0.3c-0.2,0.2-0.3,0.4-0.3,0.6v3.9H354c-0.3,0-0.5,0.1-0.7,0.3s-0.3,0.4-0.3,0.7V63c0,0.3,0.1,0.5,0.3,0.6
	c0.2,0.2,0.4,0.3,0.7,0.4l3.9,0.6v14c0,1.7,0.2,3.1,0.5,4.2c0.4,1.1,0.9,1.9,1.5,2.5c0.7,0.6,1.5,1,2.5,1.2s2.2,0.3,3.5,0.3
	c0.7,0,1.3,0,1.9-0.1c0.5-0.1,1.2-0.2,1.9-0.3C370.2,86.4,370.5,86.1,370.5,85.6 M349.5,85.5v-16c0-1.5-0.1-2.9-0.4-4.3
	c-0.2-1.3-0.7-2.5-1.3-3.5c-0.6-1-1.5-1.8-2.6-2.3c-1.1-0.6-2.5-0.9-4.3-0.9c-1.5,0-2.9,0.2-4.1,0.6c-1.2,0.4-2.4,1-3.8,2v-1.3
	c0-0.3-0.1-0.5-0.3-0.7c-0.2-0.2-0.4-0.3-0.7-0.3h-5.4c-0.3,0-0.5,0.1-0.7,0.3s-0.3,0.4-0.3,0.7v25.6c0,0.3,0.1,0.5,0.3,0.7
	c0.2,0.2,0.4,0.3,0.7,0.3h5.8c0.3,0,0.5-0.1,0.7-0.3s0.3-0.4,0.3-0.7V66.5c0.8-0.4,1.6-0.8,2.4-1.1c0.7-0.3,1.5-0.4,2.2-0.4
	s1.3,0.1,1.8,0.2c0.5,0.1,0.8,0.4,1.1,0.7c0.3,0.4,0.4,0.8,0.5,1.4c0.1,0.6,0.1,1.3,0.1,2.1v16c0,0.3,0.1,0.5,0.3,0.7
	c0.2,0.2,0.4,0.3,0.7,0.3h5.8c0.3,0,0.5-0.1,0.7-0.3C349.4,85.9,349.5,85.7,349.5,85.5 M313.1,74.4c0,3.9-1.4,5.9-4.3,5.9
	c-1.4,0-2.5-0.5-3.2-1.5s-1.1-2.5-1.1-4.4V71c0-2,0.4-3.4,1.1-4.4s1.8-1.5,3.2-1.5c2.8,0,4.3,2,4.3,5.9V74.4z M320.9,71
	c0-1.9-0.3-3.7-0.8-5.2s-1.3-2.8-2.3-3.9c-1-1.1-2.3-1.9-3.8-2.5s-3.2-0.9-5.2-0.9s-3.7,0.3-5.2,0.9c-1.5,0.6-2.8,1.4-3.8,2.5
	s-1.8,2.4-2.3,3.9s-0.8,3.3-0.8,5.2v3.4c0,1.9,0.3,3.7,0.8,5.2s1.3,2.8,2.3,3.9c1,1.1,2.3,1.9,3.8,2.5s3.2,0.9,5.2,0.9
	s3.7-0.3,5.2-0.9c1.5-0.6,2.8-1.4,3.8-2.5s1.8-2.4,2.3-3.9s0.8-3.3,0.8-5.2V71z M294.1,85.1v-4.3c0-0.3-0.1-0.5-0.3-0.6
	c-0.2-0.1-0.4-0.2-0.7-0.2H293c-0.9,0.1-1.8,0.2-2.6,0.2s-1.9,0.1-3.3,0.1c-0.5,0-1.1-0.1-1.5-0.3c-0.5-0.2-0.9-0.5-1.3-0.9
	s-0.6-1-0.8-1.7c-0.2-0.7-0.3-1.6-0.3-2.7v-4c0-1.1,0.1-2,0.3-2.7c0.2-0.7,0.5-1.3,0.8-1.7c0.4-0.4,0.8-0.7,1.3-0.9s1-0.3,1.5-0.3
	c1.4,0,2.5,0,3.3,0.1s1.7,0.1,2.6,0.2h0.1c0.3,0,0.5-0.1,0.7-0.2c0.2-0.1,0.3-0.3,0.3-0.6v-4.3c0-0.4-0.1-0.6-0.2-0.7
	c-0.2-0.1-0.4-0.3-0.8-0.4c-0.7-0.2-1.5-0.3-2.6-0.5s-2.3-0.2-3.8-0.2c-3.4,0-6.1,1-8.2,3.1c-2,2.1-3.1,5.1-3.1,9.1v4
	c0,3.9,1,7,3.1,9.1c2,2.1,4.8,3.1,8.2,3.1c1.4,0,2.7-0.1,3.8-0.2c1.1-0.2,1.9-0.3,2.6-0.5c0.4-0.1,0.6-0.2,0.8-0.4
	C294,85.7,294.1,85.4,294.1,85.1 M270.4,85.5v-16c0-1.5-0.1-2.9-0.4-4.3s-0.7-2.5-1.3-3.5c-0.6-1-1.5-1.8-2.6-2.3
	c-1.1-0.6-2.5-0.9-4.3-0.9c-1.5,0-2.9,0.2-4.1,0.6c-1.2,0.4-2.4,1-3.8,2v-1.3c0-0.3-0.1-0.5-0.3-0.7c-0.2-0.2-0.4-0.3-0.7-0.3h-5.4
	c-0.3,0-0.5,0.1-0.7,0.3s-0.3,0.4-0.3,0.7v25.6c0,0.3,0.1,0.5,0.3,0.7c0.2,0.2,0.4,0.3,0.7,0.3h5.8c0.3,0,0.5-0.1,0.7-0.3
	s0.3-0.4,0.3-0.7V66.5c0.8-0.4,1.6-0.8,2.4-1.1c0.7-0.3,1.5-0.4,2.2-0.4s1.3,0.1,1.8,0.2c0.5,0.1,0.8,0.4,1.1,0.7
	c0.3,0.4,0.4,0.8,0.5,1.4c0.1,0.6,0.1,1.3,0.1,2.1v16c0,0.3,0.1,0.5,0.3,0.7c0.2,0.2,0.4,0.3,0.7,0.3h5.8c0.3,0,0.5-0.1,0.7-0.3
	C270.3,85.9,270.4,85.7,270.4,85.5 M233.3,80c-0.6,0.3-1.2,0.5-1.9,0.7c-0.7,0.2-1.4,0.3-2.1,0.3c-1,0-1.8-0.1-2.3-0.4
	c-0.5-0.3-0.7-0.9-0.7-2v-0.4c0-0.6,0.1-1.1,0.2-1.5s0.4-0.8,0.7-1.1c0.3-0.3,0.8-0.5,1.3-0.7c0.5-0.1,1.2-0.2,2.1-0.2h2.7L233.3,80
	L233.3,80z M241,68.3c0-1.8-0.3-3.3-0.8-4.5s-1.3-2.2-2.2-3c-1-0.8-2.1-1.4-3.5-1.7c-1.4-0.4-3-0.6-4.7-0.6c-1.6,0-3.2,0.1-4.7,0.3
	s-2.7,0.4-3.6,0.7c-0.6,0.2-0.9,0.5-0.9,1.1v3.9c0,0.3,0.1,0.5,0.2,0.7c0.2,0.1,0.4,0.2,0.6,0.2h0.2c0.4,0,0.9-0.1,1.4-0.1
	c0.6,0,1.2-0.1,2-0.1c0.7,0,1.5-0.1,2.3-0.1s1.6,0,2.3,0c1.1,0,2,0.2,2.6,0.6c0.6,0.4,1,1.3,1,2.7v1.7h-2.6c-4.1,0-7.2,0.6-9,1.9
	s-2.8,3.4-2.8,6.2v0.4c0,1.6,0.2,2.9,0.7,3.9c0.5,1.1,1.1,1.9,1.9,2.6c0.8,0.6,1.6,1.1,2.6,1.4c1,0.3,2,0.4,3.1,0.4
	c1.4,0,2.7-0.2,3.7-0.6s2-0.9,3-1.6v0.8c0,0.3,0.1,0.5,0.3,0.7c0.2,0.2,0.4,0.3,0.7,0.3h5.4c0.3,0,0.5-0.1,0.7-0.3s0.3-0.4,0.3-0.7
	V68.3H241z M206.6,75.9c0,1.3-0.5,2.4-1.4,3.1c-0.9,0.7-2.7,1.1-5.1,1.1h-0.8c-0.4,0-0.8,0-1.2,0c-0.4,0-0.8,0-1.2,0h-0.8v-9h5.4
	c1.9,0,3.3,0.4,4,1.3c0.7,0.9,1.1,1.9,1.1,3V75.9z M206.4,61.6c0,0.5-0.1,1-0.2,1.5c-0.2,0.5-0.4,0.9-0.8,1.2s-0.9,0.6-1.5,0.8
	s-1.4,0.3-2.4,0.3h-5.4v-8.3c0.2,0,0.4,0,0.7,0c0.3,0,0.7,0,1.1,0h1.1h0.8c2.5,0,4.2,0.3,5.2,0.9c1,0.6,1.5,1.6,1.5,2.9v0.7H206.4z
	 M214.6,75.4c0-1.7-0.4-3.1-1.2-4.3c-0.8-1.2-1.8-2.2-3.1-2.8c1.3-0.6,2.3-1.6,3-2.8c0.7-1.3,1.1-2.7,1.1-4.2v-0.9
	c0-1.9-0.4-3.5-1.1-4.8s-1.8-2.3-3.1-3.1c-1.3-0.8-2.9-1.3-4.8-1.7c-1.9-0.3-3.9-0.5-6.2-0.5c-0.8,0-1.6,0-2.4,0s-1.6,0.1-2.4,0.1
	s-1.5,0.1-2.2,0.2s-1.2,0.1-1.6,0.2c-0.9,0.2-1.6,0.5-2,0.9S188,52.9,188,54v29.3c0,1.1,0.2,1.8,0.6,2.3c0.4,0.4,1.1,0.7,2,0.9
	c0.5,0.1,1.1,0.2,1.7,0.2c0.7,0.1,1.4,0.1,2.2,0.2c0.8,0,1.6,0.1,2.4,0.1s1.7,0,2.5,0c2.1,0,4.1-0.2,5.9-0.5s3.4-0.9,4.8-1.7
	s2.4-1.9,3.3-3.3c0.8-1.4,1.2-3.2,1.2-5.3L214.6,75.4L214.6,75.4z"/>
</svg>
