<?xml version="1.0" encoding="utf-8"?>
<!-- Generator: Adobe Illustrator 18.1.0, SVG Export Plug-In . SVG Version: 6.00 Build 0)  -->
<!DOCTYPE svg PUBLIC "-//W3C//DTD SVG 1.1//EN" "http://www.w3.org/Graphics/SVG/1.1/DTD/svg11.dtd">
<svg version="1.1" id="Layer_1" xmlns:sketch="http://www.bohemiancoding.com/sketch/ns" opacity="0.5"
	 xmlns="http://www.w3.org/2000/svg" xmlns:xlink="http://www.w3.org/1999/xlink" x="0px" y="0px" viewBox="-225 347 160 100"
	 enable-background="new -225 347 160 100" xml:space="preserve">
<title></title>
<g id="Page-1">
	<g id="american-express" transform="translate(-1.000000, 0.000000)">
		<path id="Rectangle-1" fill="#666666" d="M-76,347c-8,0-92.7,0-140,0c-4,0-8,4-8,8v80c0,8,4,12,12,12c44.6,0,128,0,136,0
			s12-4,12-12v-76C-64,351-68,347-76,347z"/>
		<path id="Shape" fill="#FFFFFF" d="M-210.5,383.6l-3.1-7.6l-3.1,7.6H-210.5z M-142.2,380.6c-0.6,0.4-1.4,0.4-2.2,0.4h-5.5v-4.2
			h5.6c0.8,0,1.6,0,2.1,0.3c0.6,0.3,1,0.9,1,1.7C-141.3,379.6-141.6,380.3-142.2,380.6C-142.2,380.6-141.6,380.3-142.2,380.6
			L-142.2,380.6L-142.2,380.6z M-103,383.6l-3.1-7.6l-3.1,7.6H-103L-103,383.6L-103,383.6L-103,383.6z M-176.1,391.8h-4.6l0-14.8
			l-6.6,14.8h-4l-6.6-14.8v14.8h-9.2l-1.7-4.2h-9.4l-1.8,4.2h-4.9l8.1-18.9h6.7l7.7,17.9v-17.9h7.4l5.9,12.8l5.4-12.8h7.5
			L-176.1,391.8L-176.1,391.8L-176.1,391.8L-176.1,391.8z M-157.6,391.8h-15.1v-18.9h15.1v3.9h-10.6v3.4h10.3v3.9h-10.3v3.8h10.6
			V391.8L-157.6,391.8L-157.6,391.8L-157.6,391.8z M-136.3,378c0,3-2,4.6-3.2,5c1,0.4,1.8,1,2.2,1.6c0.6,0.9,0.7,1.8,0.7,3.5v3.7
			h-4.6l0-2.4c0-1.1,0.1-2.8-0.7-3.7c-0.7-0.7-1.7-0.8-3.3-0.8h-4.9v6.9h-4.5v-18.9h10.4c2.3,0,4,0.1,5.5,0.9
			C-137.2,374.6-136.3,375.8-136.3,378C-136.3,378-136.3,375.8-136.3,378L-136.3,378L-136.3,378z M-129,391.8h-4.6v-18.9h4.6V391.8
			L-129,391.8L-129,391.8L-129,391.8z M-75.5,391.8h-6.4l-8.6-14.2v14.2h-9.2l-1.8-4.2h-9.4l-1.7,4.2h-5.3c-2.2,0-5-0.5-6.6-2.1
			c-1.6-1.6-2.4-3.8-2.4-7.2c0-2.8,0.5-5.4,2.4-7.4c1.5-1.5,3.8-2.2,6.9-2.2h4.4v4.1h-4.3c-1.7,0-2.6,0.2-3.5,1.1
			c-0.8,0.8-1.3,2.3-1.3,4.3c0,2,0.4,3.5,1.2,4.4c0.7,0.7,2,1,3.2,1h2l6.4-14.9h6.8l7.7,17.9v-17.9h6.9l8,13.2v-13.2h4.6V391.8
			L-75.5,391.8L-75.5,391.8L-75.5,391.8z M-225,395.5h7.7l1.7-4.2h3.9l1.7,4.2h15.2v-3.2l1.4,3.2h7.9l1.4-3.3v3.3h37.8l0-6.9h0.7
			c0.5,0,0.7,0.1,0.7,0.9v6h19.6v-1.6c1.6,0.8,4,1.6,7.3,1.6h8.2l1.8-4.2h3.9l1.7,4.2h15.9v-4l2.4,4h12.7v-26.4H-84v3.1l-1.8-3.1
			h-12.9v3.1l-1.6-3.1h-17.4c-2.9,0-5.5,0.4-7.6,1.5v-1.5h-12v1.5c-1.3-1.2-3.1-1.5-5.1-1.5h-44l-2.9,6.8l-3-6.8h-13.8v3.1l-1.5-3.1
			h-11.8l-5.5,12.6L-225,395.5L-225,395.5z M-64,409.5h-8.3c-0.8,0-1.4,0-1.8,0.3c-0.5,0.3-0.7,0.8-0.7,1.4c0,0.7,0.4,1.2,1,1.4
			c0.5,0.2,1,0.2,1.7,0.2l2.5,0.1c2.5,0.1,4.1,0.5,5.1,1.5c0.2,0.1,0.3,0.3,0.4,0.5V409.5z M-64,422c-1.1,1.6-3.2,2.4-6.1,2.4h-8.7
			v-4.1h8.7c0.9,0,1.5-0.1,1.8-0.5c0.3-0.3,0.5-0.7,0.5-1.2c0-0.6-0.2-1-0.6-1.3c-0.3-0.3-0.8-0.4-1.6-0.4c-4.3-0.1-9.6,0.1-9.6-5.9
			c0-2.7,1.7-5.6,6.5-5.6h9v-3.8h-8.4c-2.5,0-4.4,0.6-5.7,1.5v-1.5h-12.4c-2,0-4.3,0.5-5.4,1.5v-1.5h-22.1v1.5
			c-1.8-1.3-4.7-1.5-6.1-1.5h-14.6v1.5c-1.4-1.3-4.5-1.5-6.4-1.5h-16.3l-3.7,4l-3.5-4H-193v26.4h23.9l3.9-4.1l3.6,4.1l14.8,0v-6.2
			h1.5c2,0,4.3,0,6.3-0.9v7.1h12.2v-6.9h0.6c0.7,0,0.8,0,0.8,0.8v6.1h37c2.3,0,4.8-0.6,6.2-1.7v1.7h11.7c2.4,0,4.8-0.3,6.6-1.2V422
			L-64,422L-64,422L-64,422z M-82,414.4c0.9,0.9,1.4,2.1,1.4,4c0,4.1-2.5,6-7.1,6h-8.8v-4.1h8.8c0.9,0,1.5-0.1,1.8-0.5
			c0.3-0.3,0.5-0.7,0.5-1.2c0-0.6-0.2-1-0.6-1.3c-0.3-0.3-0.8-0.4-1.6-0.4c-4.2-0.1-9.5,0.1-9.5-5.9c0-2.7,1.7-5.6,6.5-5.6h9.1v4
			h-8.3c-0.8,0-1.4,0-1.8,0.3c-0.5,0.3-0.7,0.8-0.7,1.4c0,0.7,0.4,1.2,1,1.4c0.5,0.2,1,0.2,1.8,0.2l2.4,0.1
			C-84.7,412.9-83,413.3-82,414.4C-82,414.4-83,413.3-82,414.4L-82,414.4L-82,414.4z M-122.9,413.2c-0.6,0.4-1.4,0.4-2.2,0.4h-5.5
			v-4.3h5.6c0.8,0,1.6,0,2.2,0.3c0.6,0.3,0.9,0.9,0.9,1.7S-122.3,412.9-122.9,413.2C-122.9,413.2-122.3,412.9-122.9,413.2
			L-122.9,413.2L-122.9,413.2z M-120.1,415.6c1,0.4,1.8,1,2.2,1.6c0.6,0.9,0.7,1.8,0.8,3.5v3.8h-4.5V422c0-1.1,0.1-2.8-0.7-3.7
			c-0.7-0.7-1.7-0.8-3.3-0.8h-4.8v6.9h-4.5v-18.9h10.5c2.3,0,4,0.1,5.4,0.9c1.4,0.9,2.3,2,2.3,4.2
			C-116.9,413.6-118.9,415.1-120.1,415.6C-120.1,415.6-118.9,415.1-120.1,415.6L-120.1,415.6L-120.1,415.6z M-114.4,405.4h15.1v3.9
			h-10.6v3.4h10.3v3.9h-10.3v3.8l10.6,0v3.9h-15.1V405.4L-114.4,405.4L-114.4,405.4L-114.4,405.4z M-145,414.2h-5.9v-4.8h5.9
			c1.6,0,2.8,0.7,2.8,2.3C-142.1,413.3-143.2,414.2-145,414.2L-145,414.2L-145,414.2L-145,414.2z M-155.3,422.7l-7-7.7l7-7.5V422.7
			L-155.3,422.7L-155.3,422.7L-155.3,422.7z M-173.3,420.4h-11.1v-3.8h9.9v-3.9h-9.9v-3.4h11.4l5,5.5L-173.3,420.4L-173.3,420.4
			L-173.3,420.4L-173.3,420.4z M-137.3,411.7c0,5.3-3.9,6.3-7.9,6.3h-5.6v6.4h-8.8l-5.6-6.3l-5.8,6.3h-17.9v-18.9h18.2l5.6,6.2
			l5.8-6.2h14.5C-141.3,405.4-137.3,406.4-137.3,411.7C-137.3,411.7-137.3,406.4-137.3,411.7L-137.3,411.7L-137.3,411.7z"/>
	</g>
</g>
</svg>
