<?xml version="1.0" encoding="UTF-8"?>
<svg width="42px" height="30px" viewBox="0 0 42 30" version="1.1" xmlns="http://www.w3.org/2000/svg" xmlns:xlink="http://www.w3.org/1999/xlink">
    <!-- Generator: Sketch 51.1 (57501) - http://www.bohemiancoding.com/sketch -->
    <title>cc-cvv-front</title>
    <desc>Created with Sketch.</desc>
    <defs></defs>
    <g id="Page-1" stroke="none" stroke-width="1" fill="none" fill-rule="evenodd">
        <g id="AmEx" transform="translate(-288.000000, -191.000000)">
            <g id="cc-cvv-front" transform="translate(288.000000, 191.000000)">
                <path d="M39.375,0 L2.625,0 C1.171875,0 0.009375,1.171875 0,2.625 L0,2.653125 L0,27.346875 L0,27.375 C0.01875,28.828125 1.171875,30 2.625,30 L39.375,30 C40.8375,30 42,28.809375 42,27.346875 L42,2.653125 C42,1.190625 40.8375,0 39.375,0 Z M4.228125,3 L37.7625,3 C38.409375,3 38.896875,3.478125 38.990625,4.125 L38.990625,6 L3,6 L3,4.096875 C3.09375,3.459375 3.590625,3 4.228125,3 Z M37.771875,27 L4.228125,27 C3.58125,27 3.09375,26.1960938 3,25.0804688 L3,6 L39,6 L39,25.03125 C38.90625,26.1632812 38.409375,27 37.771875,27 Z" id="Shape" fill="#2E4453" fill-rule="nonzero"></path>
                <rect id="Rectangle-path" fill="#2E4453" fill-rule="nonzero" x="6" y="15" width="10" height="4"></rect>
                <rect id="Rectangle-path-Copy-2" fill="#2E4453" fill-rule="nonzero" x="26" y="15" width="10" height="4"></rect>
                <ellipse id="Oval" stroke="#2E4453" stroke-width="2" cx="21" cy="15" rx="6" ry="8"></ellipse>
                <rect id="Rectangle-path-Copy" fill="#2E4453" fill-rule="nonzero" x="30" y="11" width="6" height="2"></rect>
                <rect id="Rectangle" stroke="#D54E21" stroke-width="2" x="27" y="8" width="12" height="8"></rect>
            </g>
        </g>
    </g>
</svg>