<svg width="780" height="501" xmlns="http://www.w3.org/2000/svg"><path d="M725 0H55C24.673 0 0 24.673 0 55v391c0 30.327 24.673 55 55 55h670c30.325 0 55-24.673 55-55V55c0-30.327-24.675-55-55-55z" fill="#fff"/><path d="M339.927 390.424l-286.534.103v-.69c0-.379.457-2.838 1.015-5.465.559-2.626 1.427-6.804 1.931-9.283.502-2.48 1.362-6.693 1.909-9.364a3998.806 3998.806 0 0 0 3.989-19.592c.517-2.576 1.378-6.79 1.916-9.364a2675.22 2675.22 0 0 0 2.037-9.883c.582-2.861 1.467-7.231 1.967-9.711.5-2.48 1.294-6.303 1.765-8.495.47-2.194 1.071-5.159 1.333-6.59.263-1.43 1.114-5.644 1.891-9.363a763.876 763.876 0 0 0 1.905-9.363c.271-1.431 1.132-5.645 1.914-9.364.781-3.718 1.639-7.932 1.907-9.363.268-1.43 1.131-5.644 1.917-9.363.788-3.72 1.638-7.855 1.888-9.19.252-1.335.94-4.768 1.53-7.629.589-2.861 1.705-8.245 2.479-11.964.775-3.72 2.099-10.196 2.942-14.393.845-4.196 1.854-9.189 2.243-11.096a4295.655 4295.655 0 0 1 3.461-16.819c.574-2.767 1.507-7.292 2.074-10.058.568-2.765 1.442-7.057 1.943-9.536.501-2.48 1.356-6.615 1.9-9.19.544-2.575 1.48-7.101 2.08-10.057.6-2.957 1.605-7.482 2.233-10.057.628-2.575 1.516-5.696 1.974-6.935.457-1.241 1.72-3.927 2.806-5.973l1.975-3.717 1.795-2.352c.986-1.292 2.749-3.335 3.916-4.539 1.167-1.204 3.135-3.016 4.376-4.026 1.239-1.011 3.034-2.375 3.987-3.031.954-.656 2.827-1.805 4.162-2.553s3.209-1.727 4.162-2.176c.954-.449 2.905-1.27 4.335-1.823 1.43-.552 4.161-1.479 6.068-2.058 1.907-.58 5.488-1.454 7.957-1.941 2.469-.488 6.369-1.14 8.67-1.449l4.181-.562 286.707-.108 286.706-.111v.69c0 .379-.46 2.838-1.021 5.464a1351.1 1351.1 0 0 0-2.088 9.977c-.587 2.861-1.441 6.997-1.901 9.19a2516.71 2516.71 0 0 0-1.933 9.363c-.603 2.957-1.532 7.483-2.063 10.057-.531 2.575-1.392 6.789-1.912 9.363-.52 2.576-1.386 6.789-1.923 9.364a1624.25 1624.25 0 0 0-1.853 9.017c-.482 2.384-1.353 6.675-1.936 9.536-.584 2.861-1.521 7.387-2.083 10.057-.563 2.67-1.418 6.806-1.902 9.19-.486 2.384-1.357 6.675-1.938 9.536-.582 2.861-1.517 7.387-2.079 10.058-.562 2.67-1.399 6.727-1.861 9.016a8442.112 8442.112 0 0 1-3.874 19.074c-.47 2.288-1.307 6.346-1.861 9.015a3166.86 3166.86 0 0 0-2.108 10.231c-.606 2.957-1.471 7.169-1.923 9.364-.454 2.192-1.301 6.328-1.885 9.188a4279.12 4279.12 0 0 1-2.063 10.058c-.551 2.67-1.415 6.884-1.921 9.364-.504 2.479-1.383 6.771-1.95 9.536-.569 2.765-1.497 7.291-2.063 10.056-.566 2.766-1.414 6.902-1.885 9.191a4422 4422 0 0 0-1.912 9.363 952.651 952.651 0 0 1-2.101 10.019l-1.044 4.817-1.244 3.332c-.684 1.833-1.713 4.269-2.287 5.414-.572 1.143-1.739 3.163-2.592 4.487-.854 1.323-2.044 3.018-2.644 3.767-.6.749-2.407 2.683-4.017 4.299l-2.923 2.935-2.815 2c-1.548 1.1-3.216 2.219-3.705 2.486-.49.267-2.355 1.22-4.145 2.115-1.789.897-4.318 2.037-5.617 2.534-1.3.499-3.875 1.346-5.722 1.883-1.847.539-3.827 1.069-4.399 1.178-.573.11-2.558.52-4.414.914-1.855.393-5.6.98-8.322 1.304l-4.95.589-286.533.102zm-101.944-74.115h7.456l.21-.549c.117-.302.211-1.011.211-1.576 0-.566.246-2.62.547-4.566.3-1.948 1.004-6.427 1.566-9.955.561-3.529 1.401-8.835 1.867-11.791a569.19 569.19 0 0 0 1.265-8.41c.229-1.669.508-3.034.621-3.034.112 0 .594.737 1.071 1.639l.866 1.638 1.922 1.938 1.923 1.936 2.366.948 2.367.947 2.82.366 2.821.365 3.579-.219 3.58-.22 3.876-1.003 3.877-1.004 2.08-.948c1.145-.523 3.173-1.662 4.508-2.532l2.428-1.581 2.263-2.263c1.245-1.242 3.001-3.238 3.901-4.433.902-1.194 1.639-2.258 1.639-2.364 0-.107.443-.846.984-1.644.541-.797 1.647-3.011 2.459-4.918.813-1.907 2.081-5.34 2.821-7.629l1.344-4.162.695-3.604c.382-1.982.874-5.259 1.093-7.283l.397-3.677-.23-3.121-.229-3.121-.724-3.122-.723-3.121-1.172-2.336-1.171-2.337-2.263-2.399-2.262-2.399-2.677-1.383-2.677-1.383-2.948-.707-2.948-.705-2.948-.216-2.947-.216-3.283.377-3.285.377-2.679.685-2.68.683-2.329 1.079c-1.28.591-3.144 1.598-4.14 2.236-.997.638-2.026 1.371-2.286 1.63-.259.259-.882.74-1.382 1.066l-.911.597.636-3.047c.351-1.675.643-3.24.651-3.48l.014-.433H249.097l-1.114 7.023c-.614 3.863-1.582 9.831-2.152 13.265a5980.603 5980.603 0 0 1-3.816 22.714c-.567 3.337-1.504 8.644-2.083 11.791-.579 3.147-1.426 7.751-1.884 10.231-.457 2.479-1.319 7.16-1.913 10.402a2938.25 2938.25 0 0 1-2.124 11.445 1371.86 1371.86 0 0 1-2.074 10.75c-.568 2.861-1.116 5.554-1.221 5.982l-.189.781h7.456zm32.1-40.095l-2.895.174-1.892-.335-1.893-.334-1.922-.877-1.923-.878-1.342-1.283-1.343-1.281-.775-1.734c-.427-.954-.974-2.574-1.217-3.601l-.442-1.866.177-2.989.178-2.988.893-4.682a939.758 939.758 0 0 0 1.96-10.75c.587-3.338 1.477-8.23 1.976-10.869l.907-4.8 1.988-1.654c1.094-.909 2.826-2.129 3.85-2.709l1.86-1.056 2.427-.751 2.428-.752 3.121-.183 3.121-.183 2.542.542 2.541.541 1.794.826 1.793.826 1.504 1.512 1.505 1.512.81 1.601c.447.881 1.074 2.604 1.393 3.83l.581 2.229-.178 6.59-.178 6.589-.89 3.895c-.49 2.142-1.422 5.419-2.072 7.282l-1.181 3.388-1.448 2.742c-.796 1.509-2.023 3.547-2.727 4.53-.704.982-1.827 2.257-2.495 2.829a54.525 54.525 0 0 1-2.484 1.992l-1.271.949-2.943 1.001-2.943 1.001-2.895.174zm72.011 9.533l3.815.044 3.814-.348c2.099-.191 5.532-.59 7.629-.886 2.099-.295 5.723-.957 8.055-1.469l4.239-.933.212-1.564c.116-.859.592-3.417 1.058-5.685l.847-4.125-.188-.186-.186-.186-1.296.625c-.713.344-2.934 1.166-4.934 1.825l-3.638 1.198-3.818.741-3.818.739-6.069.013-6.069.01-2.081-.664c-1.144-.365-2.827-1.033-3.74-1.486l-1.659-.821-1.37-1.238-1.37-1.238-1.069-1.867-1.069-1.869-.67-2.342-.67-2.343-.004-4.336-.005-4.337.594-3.867.596-3.869 5.218-.244 5.218-.244 19.291.125 19.29.123.582-2.47c.321-1.359.811-4.168 1.089-6.242l.506-3.772.011-3.172.011-3.173-.549-2.369-.55-2.368-.909-1.568c-.498-.862-1.379-2.112-1.955-2.778-.576-.665-1.605-1.603-2.286-2.084-.682-.481-2.019-1.29-2.973-1.797l-1.734-.922-3.029-.73-3.03-.729-3.732-.357-3.734-.357-3.467.226-3.468.225-4.162.799-4.161.8-2.602 1.039c-1.43.571-3.615 1.615-4.854 2.318-1.24.703-2.956 1.847-3.814 2.542-.86.696-2.346 2.048-3.303 3.005-.958.958-2.376 2.676-3.149 3.821-.774 1.145-1.96 3.173-2.637 4.508-.676 1.336-1.557 3.208-1.958 4.162-.4.953-1.129 2.904-1.618 4.334-.49 1.431-1.259 4.162-1.709 6.07a114.115 114.115 0 0 0-1.373 6.976l-.553 3.51.006 5.16.005 5.16.527 2.255c.289 1.239.844 3.113 1.231 4.161.387 1.049 1.105 2.61 1.593 3.468.488.858 1.532 2.24 2.318 3.071s2.21 2.092 3.164 2.801c.953.71 2.651 1.709 3.772 2.219l2.039.928 2.843.688c1.563.377 3.923.825 5.244.995 1.32.169 4.117.328 6.215.351zm6.531-48.853c-9.6 0-17.455-.068-17.455-.153 0-.083.41-1.293.911-2.688.5-1.394 1.38-3.468 1.953-4.61l1.045-2.077 2.293-2.281 2.294-2.283 2.255-1.077c1.239-.593 2.878-1.239 3.64-1.435.764-.196 2.948-.456 4.855-.577l3.469-.223 2.664.343 2.662.342 1.935.886 1.936.886 1.062 1.145c.583.629 1.279 1.556 1.546 2.059l.484.916.32 2.032.321 2.032-.367 3.381-.366 3.382h-17.457zm103.75 48.855l3.817.042 4.332-.513c2.383-.283 5.555-.75 7.05-1.041a80.377 80.377 0 0 0 5.375-1.276c1.462-.414 2.785-.861 2.94-.993.155-.133.567-1.707.918-3.498.35-1.79.792-4.192.981-5.336.188-1.145.286-2.142.217-2.217-.07-.075-.325.022-.568.214-.244.194-1.945.91-3.782 1.592l-3.339 1.24-4.755.921-4.756.921-4.042-.137-4.043-.138-2.297-.797-2.297-.797-1.774-1.551-1.774-1.553-1.178-2.144-1.176-2.143-.562-2.869-.56-2.868.004-3.72.003-3.721.681-4.508.682-4.509.72-2.428c.397-1.335.846-2.895.997-3.467.153-.573.788-2.211 1.414-3.642.625-1.43 1.741-3.641 2.479-4.913l1.342-2.311 1.649-1.709 1.649-1.709 1.745-1.082 1.747-1.083 2.242-.691c1.233-.38 3.413-.873 4.843-1.095l2.601-.406 3.814.192 3.815.191 4.508.903 4.509.901 1.833.684c1.008.376 1.877.685 1.932.685.053 0 .295-1.288.537-2.862.242-1.573.672-4.162.956-5.752.285-1.592.449-2.962.364-3.045-.083-.084-1.438-.299-3.01-.478-1.573-.179-5.847-.497-9.498-.708l-6.639-.381-4.682.359-4.681.36-3.469.728-3.467.729-2.234.893c-1.228.491-3.027 1.378-3.998 1.97a63.433 63.433 0 0 0-2.745 1.77c-.54.382-2.176 1.87-3.638 3.308l-2.655 2.614-1.484 2.172c-.815 1.195-2.225 3.685-3.134 5.536l-1.652 3.364-1.267 3.64c-.696 2.003-1.669 5.28-2.16 7.283l-.895 3.642-.325 3.294-.324 3.295.003 4.335.004 4.334.327 2.522.327 2.522 1.039 2.594 1.038 2.594 1.201 1.875 1.199 1.875 1.907 1.878 1.909 1.877 2.017 1.068 2.019 1.066 2.651.737c1.457.404 3.564.869 4.681 1.032 1.117.163 3.748.316 5.848.339zm57.044-.128l4.681-.135 2.948-.754 2.948-.755 1.908-.901c1.049-.495 2.765-1.474 3.814-2.175 1.049-.701 2.674-2.033 3.609-2.96.935-.928 2.322-2.51 3.082-3.516.76-1.007 1.428-1.785 1.484-1.728.057.056-.119 1.659-.389 3.563-.269 1.905-.493 4.438-.497 5.63l-.006 2.167h12.729l.195-4.941.194-4.942.908-6.416c.5-3.529 1.307-8.757 1.794-11.617.486-2.861 1.331-7.698 1.879-10.751.547-3.052 1.414-7.811 1.925-10.577l.932-5.028.032-4.343.03-4.344-.981-2.007-.983-2.008-1.331-1.278-1.333-1.279-2.185-1.107-2.187-1.109-3.259-.725-3.259-.725-4.486-.341-4.487-.341-5.779.358c-3.18.196-7.652.584-9.941.863l-4.162.504-2.836.011-2.836.011-.413 1.995c-.227 1.096-.858 3.701-1.401 5.79-.545 2.088-.939 3.846-.877 3.908.061.062 1.578-.283 3.37-.765 1.792-.483 5.6-1.275 8.462-1.763l5.201-.886 4.681-.192 4.682-.194 3.016.529 3.016.529 2.012.993 2.013.994 1.127 1.68 1.128 1.679-.016 2.648-.017 2.649-.597 2.906-.598 2.907-12.478.045-12.478.044-4.083 1.12c-2.246.616-4.733 1.434-5.527 1.817-.794.384-1.588.698-1.765.698-.176 0-1.512.74-2.969 1.647l-2.648 1.645-2.085 2.082c-1.148 1.145-2.613 2.862-3.257 3.816-.644.953-1.691 2.945-2.325 4.427l-1.154 2.693-.53 3.028-.53 3.029v6.355l.505 2.646.507 2.645.938 1.725c.517.948 1.466 2.339 2.107 3.089l1.168 1.364 2.073 1.26 2.074 1.26 2.375.671c1.306.369 3.293.817 4.417.995l2.042.322 4.682-.134zm4.335-9.698l-2.775.146-1.837-.469c-1.01-.257-2.544-.831-3.408-1.275l-1.569-.807-.858-1.019c-.471-.561-1.191-1.661-1.6-2.446l-.743-1.428-.145-3.333-.147-3.334.588-2.022c.323-1.112 1.082-3.043 1.686-4.289l1.098-2.267 2.103-2.087 2.102-2.088 2.232-1.075 2.232-1.074 2.774-.66 2.775-.659h17.34l.548.227.548.226-.461 2.722c-.254 1.496-.859 4.203-1.346 6.015-.486 1.813-1.344 4.476-1.907 5.919-.563 1.444-1.024 2.72-1.024 2.836 0 .117-.57 1.168-1.267 2.337l-1.266 2.127-2.079 2.061c-1.143 1.132-2.206 2.059-2.36 2.059-.153 0-.854.391-1.557.868l-1.278.866-2.813.89-2.812.889-2.774.144zm112.879 9.821l3.294.042 3.122-.507c1.717-.278 3.901-.727 4.855-.997.953-.27 2.671-.97 3.814-1.556l2.082-1.066 1.79-1.576 1.789-1.576 1.886-2.513c1.037-1.383 1.975-2.748 2.086-3.035l.201-.521-.175 1.735a56.624 56.624 0 0 1-.48 3.468c-.168.954-.407 2.787-.533 4.075l-.23 2.34h13.606v-4.681l1.036-8.844c.57-4.864 1.413-11.339 1.873-14.391.46-3.053 1.171-7.421 1.58-9.71.407-2.289 1.13-6.425 1.604-9.19.476-2.765 1.334-7.604 1.908-10.75.573-3.148 1.492-8.141 2.041-11.097.548-2.957 1.402-7.561 1.895-10.231.493-2.67 1.377-7.352 1.964-10.403a736.738 736.738 0 0 1 1.906-9.538c.462-2.192.839-4.105.838-4.247v-.261h-14.844l-.219 2.168c-.12 1.192-.689 5.132-1.262 8.757a2128.15 2128.15 0 0 1-2.08 12.83 2133.19 2133.19 0 0 0-1.219 7.399l-.186 1.156-.585-.249c-.322-.137-2.069-.622-3.88-1.077l-3.294-.827-4.508-.351-4.509-.351-3.815.355-3.814.356-3.468.877-3.468.876-3.294 1.607-3.296 1.607-2.427 1.796-2.427 1.797-2.097 2.249c-1.153 1.236-2.818 3.281-3.702 4.544l-1.604 2.296-1.886 3.922c-1.036 2.158-2.298 5.015-2.803 6.35-.506 1.336-1.396 4.295-1.981 6.577l-1.061 4.15-.523 5.388-.523 5.386.392 4.335.394 4.335.463 1.56c.257.859.794 2.388 1.197 3.398l.732 1.839 1.335 1.806 1.336 1.808 1.524 1.248 1.524 1.249 2.081 1.034c1.145.567 3.064 1.302 4.266 1.631 1.201.329 3.152.725 4.335.878 1.182.154 3.631.299 5.444.321zm5.913-9.837l-2.619.137-1.766-.318c-.972-.174-2.527-.644-3.457-1.042l-1.689-.723-1.422-1.166-1.421-1.164-1.056-2.023-1.056-2.023-.483-2.254-.48-2.255.041-4.508.04-4.508.559-3.989.559-3.987.869-2.774c.478-1.526.872-2.966.874-3.2.004-.233.474-1.481 1.049-2.773a93.94 93.94 0 0 1 2.13-4.431c.598-1.145 1.716-2.928 2.483-3.964.769-1.036 2.138-2.597 3.042-3.469.904-.87 2.341-2.014 3.196-2.539l1.552-.955 2.727-.944 2.726-.944 5.722-.003h5.722l3.294.915c1.813.502 3.737 1.085 4.276 1.295l.981.381-.191.952c-.105.524-.518 2.825-.916 5.113-.398 2.289-1.184 6.659-1.745 9.711-.561 3.052-1.423 7.656-1.916 10.23-.492 2.575-1.205 5.852-1.585 7.282a478.81 478.81 0 0 1-1.19 4.403c-.275.991-.929 2.709-1.454 3.815-.525 1.107-1.444 2.715-2.042 3.573-.598.858-1.608 2.048-2.246 2.642-.639.596-2.019 1.652-3.068 2.349l-1.907 1.268-2.757.875-2.757.875-2.619.14zm-510.385 8.15h8.425l.605-3.727c.332-2.051.982-5.992 1.443-8.757l1.907-11.444c.588-3.529 1.47-8.757 1.959-11.617.489-2.861 1.267-7.299 1.727-9.862.461-2.565.926-4.749 1.032-4.856l.195-.194h45.313l.252.251.252.252-.394 2.002c-.215 1.102-.854 4.499-1.419 7.551-.565 3.052-1.515 8.202-2.112 11.445a1624.04 1624.04 0 0 1-1.914 10.23c-.458 2.384-1.384 7.377-2.058 11.097-.673 3.719-1.223 6.957-1.221 7.196l.004.433h16.921l.374-2.167c.207-1.192.537-3.338.737-4.768.198-1.431.679-4.475 1.066-6.763.387-2.288 1.16-6.815 1.719-10.057.558-3.242 1.494-8.782 2.078-12.311.584-3.529 1.45-8.678 1.926-11.443a744.485 744.485 0 0 1 1.88-10.404c.559-2.957 1.491-7.95 2.071-11.098.58-3.146 1.447-7.906 1.929-10.577.482-2.67 1.36-7.508 1.952-10.75.592-3.242 1.339-7.026 1.66-8.41l.584-2.514H193.921l-.233 1.648c-.127.905-.541 3.442-.919 5.635-.379 2.194-1.065 6.094-1.527 8.669-.462 2.576-1.306 7.491-1.876 10.925a820.15 820.15 0 0 0-1.614 10.099l-.578 3.857-12.575.255-12.576.254-10.532-.25c-5.793-.137-10.565-.278-10.605-.31-.039-.034.158-1.381.438-2.995a274.11 274.11 0 0 1 1.179-6.229 687.472 687.472 0 0 0 1.55-7.977c.485-2.574 1.033-5.773 1.22-7.108.186-1.335.577-3.559.868-4.943.291-1.382.843-4.295 1.227-6.472.383-2.177.792-4.206.909-4.508l.21-.55H131.492l-.543 3.035c-.3 1.669-.699 4.048-.887 5.288-.189 1.24-.822 5.219-1.407 8.843-.585 3.624-1.449 9.008-1.92 11.964l-1.903 11.964a732.966 732.966 0 0 1-2.116 12.484 1484.38 1484.38 0 0 1-1.887 10.231c-.451 2.384-1.31 6.91-1.91 10.057a879.45 879.45 0 0 1-1.945 9.884c-.47 2.288-.989 4.941-1.153 5.894-.166.954-.702 3.705-1.194 6.113-.491 2.408-.893 4.631-.893 4.942v.563h8.427zm93.278 0h7.459l.21-.548c.117-.303.211-1.094.211-1.758 0-.666.47-4.126 1.042-7.689a3085.913 3085.913 0 0 1 4.024-24.337 579.677 579.677 0 0 1 1.859-10.231c.552-2.86 1.4-7.308 1.884-9.882.483-2.575 1.435-7.474 2.114-10.887.679-3.413 1.319-6.341 1.422-6.508l.189-.305-7.543.093-7.543.093-.63 4.509c-.344 2.48-1.1 7.396-1.678 10.923-.577 3.529-1.451 8.914-1.942 11.964a515.563 515.563 0 0 1-1.9 10.925c-.555 2.956-1.405 7.481-1.89 10.056-.484 2.576-1.353 7.101-1.931 10.057-.578 2.957-1.353 6.858-1.723 8.67-.371 1.813-.768 3.646-.884 4.075l-.209.78h7.459zm174.46 0h7.404l.222-3.133c.123-1.722.541-5.195.931-7.716s1.189-7.548 1.774-11.171a463.4 463.4 0 0 1 2.418-13.406c.746-3.748 1.587-7.474 1.871-8.279.285-.806.517-1.678.517-1.939 0-.262.557-1.686 1.237-3.165s1.948-3.743 2.818-5.032l1.581-2.344 2.115-1.96 2.116-1.958 2.609-1.246 2.609-1.247 3.989.022 3.987.021 1.961.585c1.078.322 2.053.586 2.167.586.114 0 .207-.368.207-.819 0-.45.39-2.734.867-5.076.476-2.341.867-4.355.867-4.476 0-.121-1.131-.564-2.514-.984-1.383-.42-3.295-.86-4.248-.979l-1.734-.214-2.254.399c-1.24.219-3.083.703-4.096 1.076-1.014.372-2.687 1.216-3.719 1.876-1.031.661-2.636 1.947-3.565 2.858-.931.912-2.495 2.751-3.476 4.086a496.58 496.58 0 0 0-2.281 3.121l-.496.693.301-1.386c.166-.764.628-3.261 1.026-5.549.398-2.289.809-4.436.909-4.768l.185-.608H394.979v.836c0 .46-.391 3.229-.867 6.155-.477 2.927-1.264 7.817-1.748 10.869-.484 3.052-1.344 8.358-1.91 11.791a598.562 598.562 0 0 1-1.911 10.923 2423.609 2423.609 0 0 1-4.005 20.808c-.584 2.957-1.283 6.447-1.552 7.759-.271 1.31-.491 2.519-.491 2.686v.305h7.404zm175.759 0h7.57v-4.634l.872-5.746c.481-3.159 1.272-8.165 1.76-11.12.488-2.957 1.095-6.702 1.35-8.324.256-1.621.932-5.132 1.503-7.802.573-2.671 1.286-5.557 1.587-6.416.301-.858.549-1.759.552-2.001.004-.242.649-1.8 1.434-3.462l1.429-3.023 1.886-2.505 1.885-2.504 2.063-1.551c1.134-.854 2.959-1.985 4.055-2.516l1.992-.965 4.334.03 4.335.031 1.707.547 1.706.548.288-.178.287-.178.016-1.106c.007-.609.378-2.873.824-5.033l.811-3.926-.912-.357a53.653 53.653 0 0 0-2.645-.902l-1.734-.547-3.121.009-3.121.007-2.544.896-2.544.894-1.91 1.152-1.909 1.152-2.484 2.601-2.483 2.6-1.334 2.018c-.733 1.11-1.379 1.968-1.435 1.907-.056-.06.343-2.373.886-5.138.543-2.766.995-5.38 1.003-5.809l.015-.781h-12.831v.222c0 .121-.32 2.345-.711 4.941-.391 2.597-1.177 7.608-1.744 11.137a3021.02 3021.02 0 0 1-2.073 12.658 675.555 675.555 0 0 1-1.915 10.924c-.481 2.574-1.336 7.1-1.9 10.056-.564 2.957-1.49 7.717-2.058 10.578l-1.673 8.409-.64 3.207h7.571zm-335.551-84.623l2.104.007 1.674-.57 1.675-.57 1.481-1.503 1.482-1.502.779-2.003.781-2.002.027-2.948.028-2.946-.693-1.152-.694-1.151-1.207-.747-1.208-.748h-5.214l-1.775.795-1.775.794-1.03 1.104-1.03 1.105-.81 1.907-.809 1.907-.153 2.971-.152 2.971.752 1.477.754 1.476 1.454.66 1.453.659 2.106.009z" fill="#b3131b"/></svg>