<?xml version="1.0" encoding="utf-8"?>
<!-- Generator: Adobe Illustrator 18.1.0, SVG Export Plug-In . SVG Version: 6.00 Build 0)  -->
<!DOCTYPE svg PUBLIC "-//W3C//DTD SVG 1.1//EN" "http://www.w3.org/Graphics/SVG/1.1/DTD/svg11.dtd">
<svg version="1.1" id="Layer_1" xmlns:sketch="http://www.bohemiancoding.com/sketch/ns" opacity="0.5"
	 xmlns="http://www.w3.org/2000/svg" xmlns:xlink="http://www.w3.org/1999/xlink" x="0px" y="0px" viewBox="-225 347 160 100"
	 enable-background="new -225 347 160 100" xml:space="preserve">
<title></title>
<g id="Page-1">
	<g id="Master" transform="translate(-1.000000, 0.000000)">
		<path id="Rectangle-1" fill="#4F4F4F" d="M-76,347c-8,0-92.7,0-140,0c-4,0-8,4-8,8v80c0,8,4,12,12,12c44.6,0,128,0,136,0
			s12-4,12-12v-76C-64,351-68,347-76,347z"/>
		<path id="path2268" fill="#ABABAB" d="M-74.5,397.5c0,23.2-18.6,42.1-41.6,42.1c-23,0-41.6-18.8-41.6-42.1v0
			c0-23.2,18.6-42.1,41.6-42.1C-93.1,355.4-74.5,374.2-74.5,397.5L-74.5,397.5C-74.5,397.5-74.5,397.5-74.5,397.5L-74.5,397.5
			L-74.5,397.5z"/>
		<path id="path1350" fill="#5A5A5A" d="M-172.2,355.4c-22.9,0.1-41.4,18.9-41.4,42.1c0,23.2,18.6,42.1,41.6,42.1
			c10.8,0,20.6-4.2,28-11c0,0,0,0,0,0h0c1.5-1.4,2.9-2.9,4.2-4.5h-8.5c-1.1-1.4-2.2-2.8-3.1-4.3h14.7c0.9-1.4,1.7-2.9,2.4-4.5h-19.6
			c-0.7-1.4-1.2-2.9-1.7-4.4h23c1.4-4.2,2.1-8.7,2.1-13.3c0-3.1-0.3-6.1-1-9h-25.4c0.3-1.5,0.7-3,1.2-4.4h23c-0.5-1.5-1.1-3-1.8-4.5
			h-19.5c0.7-1.5,1.5-3,2.4-4.4h14.7c-1-1.6-2.1-3.1-3.2-4.5h-8.2c1.3-1.5,2.7-2.9,4.2-4.2c-7.4-6.8-17.2-11-28-11
			C-172,355.4-172.1,355.4-172.2,355.4C-172.2,355.4-172.1,355.4-172.2,355.4L-172.2,355.4L-172.2,355.4z"/>
		<path id="path4157" fill="#FFFFFF" d="M-157,408.2l0.6-3.8c-0.3,0-0.7,0.1-1.1,0.1c-1.5,0-1.7-0.8-1.6-1.4l1.2-7.8h2.3l0.6-4.2
			h-2.2l0.5-2.6h-4.4c-0.1,0.1-2.6,14.7-2.6,16.5c0,2.6,1.5,3.8,3.5,3.8C-158.7,408.8-157.4,408.3-157,408.2
			C-157,408.2-157.4,408.3-157,408.2L-157,408.2L-157,408.2z"/>
		<path id="path4155" fill="#FFFFFF" d="M-155.5,401c0,6.3,4.1,7.8,7.7,7.8c3.3,0,4.7-0.7,4.7-0.7l0.8-4.3c0,0-2.5,1.1-4.7,1.1
			c-4.8,0-3.9-3.6-3.9-3.6h9c0,0,0.6-2.9,0.6-4.1c0-3-1.5-6.5-6.3-6.5C-152.2,390.6-155.5,395.5-155.5,401
			C-155.5,401-155.5,395.5-155.5,401L-155.5,401L-155.5,401z M-147.8,394.6c2.5,0,2,2.8,2,3.1h-4.9
			C-150.7,397.4-150.2,394.6-147.8,394.6C-147.8,394.6-150.2,394.6-147.8,394.6L-147.8,394.6L-147.8,394.6z"/>
		<path id="path4151" fill="#FFFFFF" d="M-119.7,408.2l0.8-4.9c0,0-2.2,1.1-3.7,1.1c-3.1,0-4.4-2.4-4.4-5c0-5.3,2.7-8.2,5.7-8.2
			c2.3,0,4.1,1.3,4.1,1.3l0.7-4.7c0,0-2.7-1.1-5-1.1c-5.1,0-10.1,4.5-10.1,12.9c0,5.6,2.7,9.3,8,9.3
			C-122.1,408.8-119.7,408.2-119.7,408.2L-119.7,408.2L-119.7,408.2L-119.7,408.2z"/>
		<path id="path4149" fill="#FFFFFF" d="M-181.3,390.7c-3,0-5.4,1-5.4,1l-0.6,3.9c0,0,1.9-0.8,4.8-0.8c1.7,0,2.9,0.2,2.9,1.5
			c0,0.8-0.1,1.1-0.1,1.1s-1.3-0.1-1.9-0.1c-3.8,0-7.9,1.7-7.9,6.6c0,3.9,2.6,4.8,4.3,4.8c3.1,0,4.5-2.1,4.5-2.1l-0.1,1.7h3.9
			l1.7-12.3C-175.2,390.9-179.8,390.7-181.3,390.7L-181.3,390.7L-181.3,390.7L-181.3,390.7z M-180.4,400.7c0.1,0.8-0.5,4.3-3.1,4.3
			c-1.4,0-1.7-1.1-1.7-1.7c0-1.2,0.7-2.7,3.9-2.7C-180.6,400.6-180.5,400.7-180.4,400.7C-180.4,400.7-180.5,400.7-180.4,400.7
			L-180.4,400.7L-180.4,400.7z"/>
		<path id="path4145" fill="#FFFFFF" d="M-171.1,408.7c1,0,6.7,0.3,6.7-5.7c0-5.6-5.3-4.5-5.3-6.7c0-1.1,0.9-1.5,2.4-1.5
			c0.6,0,3,0.2,3,0.2l0.6-4c0,0-1.6-0.4-4.1-0.4c-3.3,0-6.6,1.3-6.6,5.8c0,5.1,5.5,4.6,5.5,6.8c0,1.4-1.6,1.6-2.7,1.6
			c-2.1,0-3.9-0.7-3.9-0.7l-0.6,3.9C-176,408.2-174.8,408.7-171.1,408.7C-171.1,408.7-174.8,408.7-171.1,408.7L-171.1,408.7
			L-171.1,408.7z"/>
		<path id="path4139" fill="#FFFFFF" d="M-83,387.1l-1,6c0,0-1.7-2.3-4.3-2.3c-4.1,0-7.4,4.9-7.4,10.6c0,3.7,1.8,7.3,5.5,7.3
			c2.7,0,4.1-1.9,4.1-1.9l-0.2,1.6h4.3l3.4-21.3L-83,387.1L-83,387.1L-83,387.1L-83,387.1z M-85.1,398.8c0,2.4-1.2,5.5-3.6,5.5
			c-1.6,0-2.3-1.4-2.3-3.5c0-3.5,1.5-5.8,3.5-5.8C-85.9,395.1-85.1,396.2-85.1,398.8C-85.1,398.8-85.1,396.2-85.1,398.8L-85.1,398.8
			L-85.1,398.8z"/>
		<path id="path4133" fill="#FFFFFF" d="M-205.3,408.4l2.7-16.1l0.4,16.1h3.1l5.7-16.1l-2.5,16.1h4.5l3.5-21.3h-7l-4.4,13.1
			l-0.2-13.1h-6.5l-3.5,21.3H-205.3L-205.3,408.4L-205.3,408.4L-205.3,408.4z"/>
		<path id="path4131" fill="#FFFFFF" d="M-137,408.5c1.3-7.4,1.5-13.4,4.6-12.3c0.5-2.9,1.1-4,1.6-5.2c0,0-0.3-0.1-0.9-0.1
			c-2,0-3.5,2.7-3.5,2.7l0.4-2.5h-4.1l-2.8,17.4H-137L-137,408.5L-137,408.5L-137,408.5z"/>
		<path id="path4149_1_" fill="#FFFFFF" d="M-109.5,390.7c-3,0-5.4,1-5.4,1l-0.6,3.9c0,0,1.9-0.8,4.8-0.8c1.7,0,2.9,0.2,2.9,1.5
			c0,0.8-0.1,1.1-0.1,1.1s-1.3-0.1-1.9-0.1c-3.8,0-7.9,1.7-7.9,6.6c0,3.9,2.6,4.8,4.3,4.8c3.1,0,4.5-2.1,4.5-2.1l-0.1,1.7h3.9
			l1.7-12.3C-103.4,390.9-107.9,390.7-109.5,390.7L-109.5,390.7L-109.5,390.7L-109.5,390.7z M-108.5,400.7c0.1,0.8-0.5,4.3-3.1,4.3
			c-1.4,0-1.7-1.1-1.7-1.7c0-1.2,0.7-2.7,3.9-2.7C-108.7,400.6-108.7,400.7-108.5,400.7C-108.5,400.7-108.7,400.7-108.5,400.7
			L-108.5,400.7L-108.5,400.7z"/>
		<path id="path4131_1_" fill="#FFFFFF" d="M-99.8,408.5c1.3-7.4,1.5-13.4,4.6-12.3c0.5-2.9,1.1-4,1.6-5.2c0,0-0.3-0.1-0.9-0.1
			c-2,0-3.5,2.7-3.5,2.7l0.4-2.5h-4.1l-2.8,17.4H-99.8L-99.8,408.5L-99.8,408.5L-99.8,408.5z"/>
	</g>
</g>
</svg>
