<?xml version="1.0" encoding="utf-8"?>
<!-- Generator: Adobe Illustrator 18.1.0, SVG Export Plug-In . SVG Version: 6.00 Build 0)  -->
<!DOCTYPE svg PUBLIC "-//W3C//DTD SVG 1.1//EN" "http://www.w3.org/Graphics/SVG/1.1/DTD/svg11.dtd">
<svg version="1.1" id="Layer_1" xmlns:sketch="http://www.bohemiancoding.com/sketch/ns"
	 xmlns="http://www.w3.org/2000/svg" xmlns:xlink="http://www.w3.org/1999/xlink" x="0px" y="0px" viewBox="-225 347 160 100"
	 enable-background="new -225 347 160 100" xml:space="preserve">
<title></title>
<g id="Page-1" opacity="0.5">
	<g id="Visa">
		<rect id="Rectangle-20" x="-225" y="356" fill="#F6F6F6" width="160" height="80"/>
		<path id="Rectangle-1" fill="#4F4F4F" d="M-77,347c-8,0-92.7,0-140,0c-4,0-8,4-8,8v12h160c0,0,0,18.6,0-8C-65,351-69,347-77,347z"
			/>
		<path id="Rectangle-1_1_" fill="#8C8C8C" d="M-225,427c0,0,0,0,0,8s4,12,12,12c44.6,0,128,0,136,0s12-4,12-12v-8H-225z"/>
		<path id="Shape" fill="#4F4F4F" d="M-113.4,376.8c-2.2-0.9-5.8-1.8-10.1-1.8c-11.2,0-19.1,5.8-19.1,14c-0.1,6.1,5.6,9.5,9.9,11.5
			c4.4,2.1,5.9,3.4,5.9,5.3c0,2.8-3.5,4.1-6.8,4.1c-4.5,0-6.9-0.6-10.7-2.2l-1.5-0.7l-1.6,9.5c2.6,1.2,7.5,2.2,12.6,2.3
			c11.9,0,19.6-5.7,19.7-14.5c0-4.8-3-8.5-9.5-11.5c-4-2-6.4-3.3-6.4-5.3c0-1.8,2.1-3.6,6.5-3.6c3.7-0.1,6.4,0.8,8.5,1.6l1,0.5
			L-113.4,376.8"/>
		<path id="Shape_1_" fill="#4F4F4F" d="M-84.4,375.8h-8.7c-2.7,0-4.7,0.8-5.9,3.5l-16.8,38.9h11.9c0,0,1.9-5.2,2.4-6.4
			c1.3,0,12.8,0,14.5,0c0.3,1.5,1.4,6.4,1.4,6.4h10.5L-84.4,375.8L-84.4,375.8z M-98.3,403.1c0.9-2.4,4.5-11.9,4.5-11.9
			c-0.1,0.1,0.9-2.5,1.5-4l0.8,3.7c0,0,2.2,10.1,2.6,12.3L-98.3,403.1L-98.3,403.1L-98.3,403.1L-98.3,403.1z"/>
		<path id="Shape_2_" fill="#4F4F4F" d="M-165.8,418.2l7.1-42.4h11.3l-7.1,42.4H-165.8z"/>
		<path id="Shape_3_" fill="#4F4F4F" d="M-175.2,375.8l-11.1,28.9l-1.2-5.9c-2.1-6.8-8.5-14.1-15.7-17.8l10.1,37.1l12,0l17.8-42.3
			H-175.2"/>
		<path id="Shape_4_" fill="#8C8C8C" d="M-196.6,375.7h-18.3l-0.1,0.9c14.2,3.5,23.6,12,27.5,22.2l-4-19.5
			C-192.2,376.6-194.1,375.8-196.6,375.7"/>
	</g>
</g>
</svg>
