<svg xmlns="http://www.w3.org/2000/svg" viewBox="0 0 1562.02 968.34"><title>customizeTheme</title><path d="M1025.39 422.63v304h186.89V403.28h-167.54a19.34 19.34 0 0 0-19.35 19.35z" fill="none"/><path d="M937.22 214.55v-66.48H732.67c1.43 2.42 2.76 4.91 4 7.46a97.51 97.51 0 0 1-45.91 129.77l-1.12.53-1.7.78a103.66 103.66 0 0 1-12.4 4.49l-1.95.52c-.74.19-1.49.39-2.24.57q-1.71.41-3.44.76c-2-3.57-2.59-12.67-3-17.89-.57-8.53-.89-13.23-4.33-14.63-5.44-2.19-12.54 3.41-17.3 13.66a45.49 45.49 0 0 0-4.29 20.29 97.48 97.48 0 0 1-78.41-138.84c1.22-2.55 2.55-5 4-7.46H352.13v345.3c30.68.61 91.09-10.69 91.91 17.83v-102.7h395.1v122.07c31.53-.25 63.17 7.34 94.57 2.12a2.54 2.54 0 0 1 3 1.87c3.06 18.42 15.24 184.72 16.49 201.18 1.13 15 3.61 29.66.47 44.63a2.57 2.57 0 0 1-2.49 1.75c-11.26.59-22.59 2.08-33.86 2-10.57 0-50.89-1.13-53.77-2.15-3.56-1.26-20.91 2.91-29.77 3.48-8.49.54-42.08 2.8-50.36 3-10.37.2-21.3-.12-21.55-10.11-.14-5.61-5.37-46-4.63-51.76h-310c0 1.3-64.18-.14-95-.4v91.12H1276V214.55zm275.06 512h-186.89v-304a19.34 19.34 0 0 1 19.34-19.34h167.55z" fill="#F6F6F6"/><path d="M736.65 155.53c-1.22-2.55-2.55-5-4-7.46a99.35 99.35 0 0 0-3.57-5.64 97.45 97.45 0 0 0-160.89 0c-1.26 1.84-2.45 3.74-3.59 5.67-1.43 2.42-2.76 4.91-4 7.46a97.48 97.48 0 0 0 78.42 138.82 45.49 45.49 0 0 1 4.29-20.29c4.75-10.25 11.85-15.85 17.3-13.66 3.44 1.4 3.76 6.1 4.33 14.63.36 5.22 1 14.32 3 17.89q1.73-.35 3.44-.76c.75-.18 1.49-.37 2.24-.57l1.95-.52a103.66 103.66 0 0 0 12.4-4.49l1.7-.78 1.12-.53a97.51 97.51 0 0 0 45.91-129.77z" fill="#E1E2E2"/><path d="M1212.02 404.03h-167.53a19.34 19.34 0 0 0-19.34 19.34v304h186.87z" fill="none"/><path fill="#6F93AD" d="M936.97 71.05V215.3h390.71V71.05H936.97z"/><path d="M379.27 635.72l52-.38 3.78 41.27-42.35-3.82s-16.82-3.37-13.43-37.07z" fill="#F6F6F6"/><path d="M368.35 155.53h-16.79a6.71 6.71 0 0 1-6.71-6.71v-16.79a6.715 6.715 0 1 1 13.43 0v10.07h10.07a6.715 6.715 0 0 1 0 13.43zm-16.78-50.94a6.71 6.71 0 0 1-6.71-6.71V63.72a6.715 6.715 0 0 1 13.43 0v34.16a6.71 6.71 0 0 1-6.72 6.71zm9.13-66.52a6.71 6.71 0 0 1-5.59-10.43 61.47 61.47 0 0 1 29.41-23.59 6.714 6.714 0 1 1 4.8 12.54 48.88 48.88 0 0 0-23 18.48 6.7 6.7 0 0 1-5.62 3zm905.71-.17a6.7 6.7 0 0 1-5.59-3 48.78 48.78 0 0 0-23.09-18.39 6.714 6.714 0 0 1 4.75-12.56 61.51 61.51 0 0 1 29.51 23.47 6.71 6.71 0 0 1-5.57 10.45zm-60-24.48h-34.16a6.715 6.715 0 0 1 0-13.43h34.16a6.715 6.715 0 0 1 0 13.43zm-68.33 0h-34.16a6.715 6.715 0 0 1 0-13.43h34.1a6.715 6.715 0 0 1 0 13.43zm-68.32 0h-34.16a6.715 6.715 0 0 1 0-13.43h34.16a6.715 6.715 0 1 1 0 13.43zm-68.33 0h-34.16a6.715 6.715 0 1 1 0-13.43h34.16a6.715 6.715 0 0 1 0 13.43zm-68.32 0h-34.16a6.715 6.715 0 0 1 0-13.43h34.07a6.715 6.715 0 0 1 0 13.43zm-68.33 0h-34.16a6.715 6.715 0 0 1 0-13.43h34.16a6.715 6.715 0 0 1 0 13.43zm-68.32 0H762.3a6.715 6.715 0 0 1 0-13.43h34.16a6.715 6.715 0 0 1 0 13.43zm-68.33 0h-34.16a6.715 6.715 0 0 1 0-13.43h34.16a6.715 6.715 0 0 1 0 13.43zm-68.32 0h-34.16a6.715 6.715 0 1 1 0-13.43h34.16a6.715 6.715 0 0 1 0 13.43zm-68.33 0h-34.16a6.715 6.715 0 0 1 0-13.43h34.16a6.715 6.715 0 1 1 0 13.43zm-68.32 0h-34.17a6.715 6.715 0 1 1 0-13.43h34.17a6.715 6.715 0 0 1 0 13.43zm-68.33 0h-34.16a6.715 6.715 0 0 1 0-13.43h34.16a6.715 6.715 0 0 1 0 13.43z" fill="#E1E2E2"/><path d="M838.89 783.14s-4.79 103.66-20.35 167.09l-91.65 1.2s-7.35-4.68 2.39-9.57c10.22-5.13 37.63-10.63 40.69-16.76 6-12 3.59-135.24 3.59-135.24m100.97-3.58s4.79 96.94 20.35 160.37l80.14 1.23s7.35-4.68-2.39-9.57c-10.22-5.13-37.63-10.63-40.69-16.76-6-12 11.69-142 11.69-142" fill="#B0B5B8"/><path d="M671.58 296.59s2.15 1.76 2.95-5.22a96.8 96.8 0 0 1-9.45 2.1c1.38 2.74 3.42 4.15 6.5 3.12z" fill="none"/><path d="M671.58 296.59c-3.08 1-5.12-.39-6.51-3.12a98.07 98.07 0 0 1-16.43 1.39c-2 0-3.92-.07-5.86-.18.71 10.87 6.35 22.22 21.32 30l10.92 5.91 18.25-11.25c1.85-15.18-1.32-26.11-4.73-33a96.7 96.7 0 0 1-14 5c-.8 7.02-2.96 5.25-2.96 5.25z" fill="#B0B5B8"/><path d="M665.08 293.47c-4.26-8.42-2.32-29.41-5.46-30.69-5.95-2.42-18 14.09-16.83 31.89 1.94.11 3.89.18 5.86.18a98.07 98.07 0 0 0 16.43-1.38z" fill="#B0B5B8"/><path d="M912.8 640.41a3.36 3.36 0 0 1-.35-6.69l37.1-4a3.36 3.36 0 1 1 .72 6.67l-37.1 4z" fill="#6F93AD"/><path d="M938.49 660.28a24.39 24.39 0 0 1-17.25-6.64 18.91 18.91 0 0 1-6-14.79 3.21 3.21 0 0 1 3.55-3.15 3.35 3.35 0 0 1 3.15 3.55 12.26 12.26 0 0 0 4 9.57 18.38 18.38 0 0 0 14.33 4.73l6.47-1.8a3.355 3.355 0 0 1 1.74 6.48l-7 1.9c-1.05.1-2.02.15-2.99.15z" fill="#6F93AD"/><path d="M753.59 438.56a3.36 3.36 0 0 1-1.38-6.42l29-13a3.36 3.36 0 1 1 2.75 6.12l-29 13a3.32 3.32 0 0 1-1.37.3z" fill="#204A69"/><path d="M789.68 239.5c.17 4 1.34 7 2.68 7.81.92.57 2.35-.09 3.47-.81q-.24-2.52-.3-5.06zm3.79-11.25a9.56 9.56 0 0 0-3 4.43l5.24 1.75c.16-2.17.43-4.32.79-6.45a3.31 3.31 0 0 1-1-.72 4.74 4.74 0 0 0-2.03.99z" fill="none"/><path d="M823.72 274.13a20.24 20.24 0 0 1-10.18-17.25l1-9.1-12.14-4a64.44 64.44 0 0 0 1.22 9.25c3.32 15.85 7.25 28.2 24.71 31a3.37 3.37 0 0 1 2.81 2.92l2.16 18.43a3.37 3.37 0 0 1-2.94 3.73h-.4a3.34 3.34 0 0 1-2.14-.78v8.46l42 2.24v-37.55a24.54 24.54 0 0 1-5.72 2.1c-17.57 4.04-31.3-4.34-40.38-9.45zm36.05-26.25l-10.75-29s-14.32-8-27.77-7.19c6.9 16.1 21.03 31.8 38.52 36.19zm-55.75-23.24a62.57 62.57 0 0 0-1.69 12l12.91 4.3 1.53-14.5s-7.75.95-12.75-1.8z" fill="#B0B5B8"/><path d="M885.2 245.81a40.09 40.09 0 0 1-25.43 2c-17.49-4.36-31.61-20.06-38.5-36.2-3.84-9-5.43-18.16-4.09-25.55-6.69 5.25-12.38 13.71-16.59 26.57a18.47 18.47 0 0 0-.66 2.65c-.72 1.84-1.33 3.72-1.87 5.64a7.23 7.23 0 0 0-4-.26c-4.5 1-9.8 5.64-10.81 13.69-.81 6.49.17 15.26 5.63 18.63a8.18 8.18 0 0 0 4.33 1.21 10.19 10.19 0 0 0 3.69-.74c.06.28.1.57.16.85 3.44 16.44 8.2 31.53 27.7 35.78l1.87 16a3.39 3.39 0 0 0 3.33 3h.4a3.37 3.37 0 0 0 2.94-3.73l-2.16-18.43a3.37 3.37 0 0 0-2.81-2.92c-17.45-2.8-21.38-15.15-24.71-31a64.44 64.44 0 0 1-1.22-9.25l12.14 4-1 9.1a20.24 20.24 0 0 0 10.18 17.25c9.08 5.11 22.81 13.49 40.3 9.45a24.54 24.54 0 0 0 5.72-2.1c11.87-6.1 18.57-21.52 20.71-38.28a40.64 40.64 0 0 1-5.25 2.64zm-92.84 1.5c-1.34-.83-2.51-3.81-2.68-7.81l5.85 1.95q.06 2.53.3 5.06c-1.12.71-2.55 1.37-3.47.81zm3.34-12.89l-5.24-1.75a9.56 9.56 0 0 1 3-4.43 4.74 4.74 0 0 1 2-1 3.31 3.31 0 0 0 1 .72c-.34 2.14-.6 4.3-.76 6.47zm19.52 6.5l-12.91-4.3a62.57 62.57 0 0 1 1.69-12c5 2.75 12.75 1.79 12.75 1.79z" fill="#204A69"/><path d="M827.5 172.15c-5.88 2.56-9.17 7.61-10.32 13.94-4.83 26.63 28.33 76.05 68 59.72a40.64 40.64 0 0 0 5.24-2.61c39.47-23.32-15.1-91.88-62.92-71.05z" fill="#CCCED0"/><path d="M275.36 622.55h150.18a8.52 8.52 0 0 0 8.52-8.89l-4.28-99.89a6.41 6.41 0 0 0-6.42-6.15H273.42l2 101.93" fill="#969CA1" opacity=".26"/><path d="M434.41 676.65c-2.76-16-4.06-32-5.43-48.07l-.8-12.05-.4-6-.1-1.51a14.89 14.89 0 0 1 0-2 8.56 8.56 0 0 1 1.94-4.75 10.8 10.8 0 0 1 8-3.8l6.15-.07 12.08-.07 12.08.12 6.15.07a10.76 10.76 0 0 1 8 3.78 8.47 8.47 0 0 1 1.92 4.72l.15 3.1.28 6 .52 12.07c.57 16.1 1.08 32.19.8 48.34a1.35 1.35 0 0 1-2.68.15c-2.1-16-3.41-32.06-4.67-48.12l-.85-12-.4-6-.2-2.93a1.39 1.39 0 0 0-.37-.76 3.69 3.69 0 0 0-2.7-1.08l-5.92.05-12.08.12-12.08-.07h-5.92a3.64 3.64 0 0 0-2.66 1.06 1.39 1.39 0 0 0-.37.73v1l.07 1.51.28 6 .57 12.06c.45 16.1 1 32.2 0 48.38a.68.68 0 0 1-1.34.08z" fill="#CCCED0"/><path fill="#F6F6F6" d="M471.79 657.89l-2.51-44.33h-26.31l2.51 44.27 26.31.06z"/><path fill="#fff" d="M392.72 701.82h36.26"/><path d="M392.73 701.14a21.59 21.59 0 0 1 9.06-2.71 83.69 83.69 0 0 1 9.06-.42c3 .08 6 .26 9.06.51a34.08 34.08 0 0 1 9.06 2 1.44 1.44 0 0 1 0 2.68 34.08 34.08 0 0 1-9.06 2c-3 .25-6 .44-9.06.51a83.69 83.69 0 0 1-9.06-.42 21.59 21.59 0 0 1-9.06-2.71.78.78 0 0 1-.28-1.06.8.8 0 0 1 .28-.38zm31.63-29.69c-17.22-1.19-34.44-1.6-51.66-1.94l-25.83-.28-12.92-.12-6.46-.06a18 18 0 0 1-5.17-.89 16.73 16.73 0 0 1-11.49-16.09l-.16-17.54c-2.3-.12-4.6-.15-6.9-.15l-.16 17.7a24 24 0 0 0 16.34 23.3 25.54 25.54 0 0 0 7.53 1.15l6.46-.06 12.92-.12 25.83-.28c17.22-.34 34.44-.74 51.66-1.94a1.35 1.35 0 0 0 0-2.69z" fill="#F6F6F6"/><path d="M399.49 671.45c-8.58-1.15-15.3-7.64-16.55-15.28-.52-3.45-.09-8.55-.11-13l.17-9.79h-7.46l.17 9.79c.28 4.67-.32 8.81.82 14.38a22.45 22.45 0 0 0 8.62 12.8 20.63 20.63 0 0 0 14.34 3.78 1.38 1.38 0 0 0 1.18-1.18 1.35 1.35 0 0 0-1.18-1.5z" fill="#F6F6F6"/><path d="M432.02 631.39a19.45 19.45 0 0 1-5.57.7h-5.27c-28.24.05-56.47.45-84.71.69-30.47.46-60.93 1.09-91.4 2.05a.67.67 0 0 0 0 1.34c30.47 1 60.93 1.59 91.4 2.05 30.47.26 60.93.72 91.4.71h.15a3.45 3.45 0 0 0 .65-.09 27.44 27.44 0 0 0 3.36-.4z" fill="#CCCED0"/><path d="M450.29 594.24l-2.43-61.2-.61-15.3c-.15-2.7-.09-4.75-.44-8a21.85 21.85 0 0 0-18.16-18.52 36.58 36.58 0 0 0-6.11-.28 3.76 3.76 0 0 0-.72-.07l-159 .55-9.94.09a16.26 16.26 0 0 0-11.19 3.89 15.82 15.82 0 0 0-5.41 10.68c-.07 3.91.13 6.79.18 10.23l1 39.73c.59 26.49 1.48 53 2.47 79.45a1.34 1.34 0 0 0 2.68 0c.11-26.5.14-53-.15-79.49l-.29-39.74c0-3.18-.1-6.93 0-9.63a9.79 9.79 0 0 1 3.47-6.54 10 10 0 0 1 7.22-2.24h3.91l1.63 55c.48 19.37 1.43 38.74 2.16 58.1a1.34 1.34 0 0 0 2.68-.05c0-19.38.13-38.77-.16-58.14l-.56-54.84h.27l155.34.54.13-.07h2.09a54.42 54.42 0 0 1 7 .23 14.2 14.2 0 0 1 9.76 6.53 14 14 0 0 1 2 5.63c.2 1.84.24 4.9.38 7.29l.7 15.29 1.41 30.59 1.41 30.59.28 6.14a47.87 47.87 0 0 1 7.11.15z" fill="#CCCED0"/><path d="M434.41 676.65c-2.76-16-4.06-32-5.43-48.07l-.8-12.05-.4-6-.1-1.51a14.89 14.89 0 0 1 0-2 8.56 8.56 0 0 1 1.94-4.75 10.8 10.8 0 0 1 8-3.8l6.15-.07 12.08-.07 12.08.12 6.15.07a10.76 10.76 0 0 1 8 3.78 8.47 8.47 0 0 1 1.92 4.72l.15 3.1.28 6 .52 12.07c.57 16.1 1.08 32.19.8 48.34a1.35 1.35 0 0 1-2.68.15c-2.1-16-3.41-32.06-4.67-48.12l-.85-12-.4-6-.2-2.93a1.39 1.39 0 0 0-.37-.76 3.69 3.69 0 0 0-2.7-1.08l-5.92.05-12.08.12-12.08-.07h-5.92a3.64 3.64 0 0 0-2.66 1.06 1.39 1.39 0 0 0-.37.73v1l.07 1.51.28 6 .57 12.06c.45 16.1 1 32.2 0 48.38a.68.68 0 0 1-1.34.08z" fill="#CCCED0"/><path fill="#F6F6F6" d="M471.79 657.89l-2.51-44.33h-26.31l2.51 44.27 26.31.06z"/><path fill="#fff" d="M392.72 701.82h36.26"/><path d="M392.73 701.14a21.59 21.59 0 0 1 9.06-2.71 83.69 83.69 0 0 1 9.06-.42c3 .08 6 .26 9.06.51a34.08 34.08 0 0 1 9.06 2 1.44 1.44 0 0 1 0 2.68 34.08 34.08 0 0 1-9.06 2c-3 .25-6 .44-9.06.51a83.69 83.69 0 0 1-9.06-.42 21.59 21.59 0 0 1-9.06-2.71.78.78 0 0 1-.28-1.06.8.8 0 0 1 .28-.38zM1.31 959.39c129.84-3.7 259.68-4.48 389.52-5.4l389.52-.85c259.68.81 519.36.35 779 4.91a2.69 2.69 0 0 1 0 5.37c-259.68 4.56-519.36 4.1-779 4.91l-389.52-.85c-129.84-.92-259.68-1.7-389.52-5.4a1.34 1.34 0 0 1 0-2.68z" fill="#F6F6F6"/><path d="M774.83 917.1a3.36 3.36 0 0 1-3.21-4.33c4.87-16 2.75-48.59.71-80-1-15.5-2-30.14-2.1-42.83a3.36 3.36 0 0 1 3.32-3.4 3.36 3.36 0 0 1 3.36 3.32c.14 12.51 1.09 27.07 2.09 42.47 2.09 32.06 4.24 65.22-1 82.44a3.36 3.36 0 0 1-3.17 2.33zM894.87 950a3.35 3.35 0 0 1-3.31-2.86c-.12-.81-12.12-81.19-20.37-160.52a3.36 3.36 0 1 1 6.67-.7c8.24 79.19 20.21 159.42 20.33 160.22a3.36 3.36 0 0 1-2.82 3.82 3.27 3.27 0 0 1-.5.04z" fill="#204A69"/><path d="M1268.93 70.38V63.5a6.715 6.715 0 0 1 13.43 0v7.38" fill="#E1E2E2"/><path d="M1041.27 215.38v-1.72a26.28 26.28 0 0 1-8.95 4.54s7.5-27.34-.45-29.17-38.4 52.06-38.4 52.06l11 26.43s11.83-10.63 49.88-30.13c8.64-8.13 13.71-15.59 16.29-22z" fill="#B0B5B8"/><path d="M1025.14 255.67a3.36 3.36 0 0 1 0-6.71c3.78-.14 30-13.82 42.82-38.15a3.36 3.36 0 1 1 5.94 3.13c-13.37 25.33-41.88 41.73-48.76 41.73zm-20.65-21.54a3.36 3.36 0 0 1-2.22-5.87c2.76-2.45 7.26-11.57 11.23-19.61 8.05-16.3 11.8-23 16.48-23.58a4.9 4.9 0 0 1 4.44 1.78c4.62 5.4 3.46 18.48 2.22 26.39 2.84-1.22 6-3.06 7.75-5.51a3.36 3.36 0 1 1 5.47 3.89c-5.18 7.26-16.36 9.76-16.83 9.86a3.36 3.36 0 0 1-4-4c1.66-7.7 2.93-20 1.06-24.9-2.73 3.15-7.36 12.54-10.58 19-4.66 9.44-9.05 18.35-12.81 21.66a3.31 3.31 0 0 1-2.21.89z" fill="#204A69"/><path d="M668.92 294.18c.14.09.43.29 1.35 0 .59-.19.91-.94 1.08-2q-1.71.41-3.44.76a3.51 3.51 0 0 0 1.01 1.24zm-9.31-31.4c3.14 1.27 1.2 22.27 5.46 30.69.95-.16 1.89-.34 2.83-.53-2-3.57-2.59-12.67-3-17.89-.57-8.53-.89-13.23-4.33-14.63-5.44-2.19-12.54 3.41-17.3 13.66a45.49 45.49 0 0 0-4.29 20.29c1.24.12 2.48.23 3.74.3-1.11-17.79 10.95-34.3 16.89-31.89z" fill="none"/><path d="M668.92 294.18c.14.09.43.29 1.35 0 .59-.19.91-.94 1.08-2q-1.71.41-3.44.76a3.51 3.51 0 0 0 1.01 1.24z" fill="none"/><path d="M668.92 294.18c.14.09.43.29 1.35 0 .59-.19.91-.94 1.08-2q-1.71.41-3.44.76a3.51 3.51 0 0 0 1.01 1.24zm2.43-2l2.24-.57c-.75.2-1.49.39-2.24.57zm19.4-6.88l-1.12.53z" fill="none"/><path d="M434.32 142.11h-33a6.715 6.715 0 1 0 0 13.43h33a6.715 6.715 0 1 0 0-13.43zm65.96 0h-33a6.715 6.715 0 1 0 0 13.43h33a6.715 6.715 0 1 0 0-13.43zm329.82 0h-33a6.715 6.715 0 1 0 0 13.43h33a6.715 6.715 0 1 0 0-13.43zm98.92 0a6.715 6.715 0 1 0 0 13.43h8v-13.43zm-33-5.65h-33a6.715 6.715 0 0 0 0 13.43h33a6.715 6.715 0 0 0 0-13.43zm-329.78 5.65h-33a6.715 6.715 0 0 0 0 13.43h27.37a97.31 97.31 0 0 1 7.57-13.14 6.72 6.72 0 0 0-1.94-.29zm197.89 0h-33a6.71 6.71 0 0 0-2.05.32 97.32 97.32 0 0 1 7.55 13.11h27.48a6.715 6.715 0 1 0 0-13.43z" fill="#E1E2E2"/><path d="M668.92 294.18c.14.09.43.29 1.35 0 .59-.19.91-.94 1.08-2q-1.71.41-3.44.76a3.51 3.51 0 0 0 1.01 1.24z" fill="none"/><path d="M673.59 291.61l-2.24.57c-.16 1-.49 1.78-1.08 2-.92.31-1.21.1-1.35 0a3.51 3.51 0 0 1-1-1.23c-2-3.57-2.59-12.67-3-17.89-.57-8.53-.89-13.23-4.33-14.63-5.44-2.19-12.54 3.41-17.3 13.66a45.49 45.49 0 0 0-4.29 20.29c.39 12.48 6.62 25.37 23.26 34.07a3.4 3.4 0 0 0 1.55.38 3.36 3.36 0 0 0 1.55-6.33c-23.86-12.47-20.37-32.83-17.76-41 2.86-9 7.67-13.76 9.75-14.69a83.07 83.07 0 0 1 .87 8.7c.65 9.63 1.39 20.54 6.92 24.25a7.94 7.94 0 0 0 7.21.78c4.91-1.64 5.87-5.42 5.78-10.24-.57.2-1.57.5-2.65.8l-1 .28z" fill="#204A69"/><path d="M674.53 291.37l1-.28-1.95.52zm14.01-5.03l-.61.27c-1.23.56-2.56 1.13-3.32 1.39a57.89 57.89 0 0 1 4.6 24 3.36 3.36 0 0 0 3.31 3.4 3.36 3.36 0 0 0 3.36-3.31 66.28 66.28 0 0 0-5.19-26.75l-1.12.53z" fill="#204A69"/><path d="M689.63 285.83l-1.7.78.61-.27z" fill="#204A69"/><path d="M790.14 793.46c-11.43 0-21.7-1.43-27.18-5.63a11.37 11.37 0 0 1-4.7-8.56c-.17-3-.55-7.36-1-12.93-3-34.13-10-114 4.45-204.92a3.36 3.36 0 0 1 6.64 1c-14.33 90.06-7.37 169.4-4.39 203.28.5 5.66.89 10.09 1.06 13.15a4.69 4.69 0 0 0 2.09 3.6c11.59 8.87 57.88 1.65 74.75-1.89a3.36 3.36 0 0 1 1.38 6.57c-4.37.95-30.92 6.33-53.1 6.33zm96.08-4.92c-12.44 0-22.94-1.1-27.65-4.25-10.39-6.93-8.37-101.49-7-141.83a3.18 3.18 0 0 1 3.47-3.25 3.37 3.37 0 0 1 3.25 3.47c-2.09 62.26-1.09 130.21 4.2 136.16 9.2 6.1 58.16 1.8 88.94-2.62l-5.81-102.27a3.36 3.36 0 0 1 3.16-3.54 3.19 3.19 0 0 1 3.54 3.16l6 105.34a3.36 3.36 0 0 1-2.85 3.51c-5.76.86-42.12 6.12-69.25 6.12zm57.94-166.48a3.35 3.35 0 0 1-3.34-3.09l-7.19-88.58a3.356 3.356 0 1 1 6.69-.54l7.19 88.58a3.36 3.36 0 0 1-3.08 3.61z" fill="#6F93AD"/><path d="M1033.97 260.88l-32.31-33.51c-15.78 31.57-62.67 78.58-98.1 87.42-.81-.32-1.63-.64-2.49-1-11.37-4.19-76.46-8.61-92-2-10 4.25-16.9 7.49-21.52 11.79-30.74 24.06-50 44.9-50 44.9l-37.53-58.6-33.51 23.94s28.72 105.32 73 102.93a107.17 107.17 0 0 0 41.78-11.27l3.7 105.84 148.35-2.55-3.6-151.61c55.28-28.02 104.23-116.28 104.23-116.28z" fill="#CCCED0"/><path d="M778.22 535.05a3.36 3.36 0 0 1 0-6.71l158.76-1.57a3.23 3.23 0 0 1 3.39 3.32 3.36 3.36 0 0 1-3.32 3.39l-158.76 1.57zm-24.63-96.49a3.36 3.36 0 0 1-1.38-6.42l29-13a3.36 3.36 0 1 1 2.75 6.12l-29 13a3.32 3.32 0 0 1-1.37.3z" fill="#204A69"/><path d="M606.77 729.64h-.48l-96.46 1.48-97.41 1-195.87.76a3.72 3.72 0 0 1-3.73-3.7l-.07-54.71a3.79 3.79 0 0 1 3.78-3.8l194.63.42 194.63 1.45a1.9 1.9 0 0 1 1.89 1.92zm-1.9-.95v-.47l-1-53.76 1.93 1.93-194.63 1.49-194.63.42 3.8-3.8-.07 54.71-3.73-3.73 193.41.76 97.22 1z" fill="#CCCED0"/><path fill="#fff" d="M216.54 709.01v238.84"/><path d="M217.21 709.01c1.85 19.9 2.24 39.81 2.7 59.71l.42 59.71c-.4 39.8-.17 79.61-2.46 119.42a1.35 1.35 0 0 1-2.69 0c-2.28-39.8-2.05-79.61-2.45-119.42l.42-59.71c.46-19.9.85-39.8 2.7-59.71a.67.67 0 0 1 1.34 0z" fill="#CCCED0"/><path fill="#fff" d="M605.81 729.17v218.68"/><path d="M606.48 729.17c1.85 18.22 2.24 36.45 2.7 54.67l.42 54.67c-.4 36.45-.17 72.89-2.45 109.34a1.35 1.35 0 0 1-2.69 0c-2.28-36.45-2.05-72.89-2.46-109.34l.43-54.67c.46-18.22.85-36.45 2.7-54.67a.67.67 0 0 1 1.34 0z" fill="#CCCED0"/></svg>