<?xml version="1.0" encoding="UTF-8" standalone="no"?>
<!-- Created with Inkscape (http://www.inkscape.org/) -->

<svg
   xmlns:dc="http://purl.org/dc/elements/1.1/"
   xmlns:cc="http://creativecommons.org/ns#"
   xmlns:rdf="http://www.w3.org/1999/02/22-rdf-syntax-ns#"
   xmlns:svg="http://www.w3.org/2000/svg"
   xmlns="http://www.w3.org/2000/svg"
   xmlns:sodipodi="http://sodipodi.sourceforge.net/DTD/sodipodi-0.dtd"
   xmlns:inkscape="http://www.inkscape.org/namespaces/inkscape"
   id="svg2"
   version="1.1"
   inkscape:version="0.48.3.1 r9886"
   width="1111.25"
   height="721.25"
   xml:space="preserve"
   sodipodi:docname="eps-Logo-RGB.eps"><metadata
     id="metadata8"><rdf:RDF><cc:Work
         rdf:about=""><dc:format>image/svg+xml</dc:format><dc:type
           rdf:resource="http://purl.org/dc/dcmitype/StillImage" /><dc:title></dc:title></cc:Work></rdf:RDF></metadata><defs
     id="defs6" /><sodipodi:namedview
     pagecolor="#ffffff"
     bordercolor="#666666"
     borderopacity="1"
     objecttolerance="10"
     gridtolerance="10"
     guidetolerance="10"
     inkscape:pageopacity="0"
     inkscape:pageshadow="2"
     inkscape:window-width="640"
     inkscape:window-height="480"
     id="namedview4"
     showgrid="false"
     inkscape:zoom="0.32720971"
     inkscape:cx="555.625"
     inkscape:cy="360.625"
     inkscape:window-x="1271"
     inkscape:window-y="777"
     inkscape:window-maximized="0"
     inkscape:current-layer="g10" /><g
     id="g10"
     inkscape:groupmode="layer"
     inkscape:label="ink_ext_XXXXXX"
     transform="matrix(1.25,0,0,-1.25,0,721.25)"><g
       id="g12"
       transform="scale(0.1,0.1)"><path
         d="m 6630,2820 -612.52,0 c -68.12,0 -123.55,54.28 -123.55,122.23 0,67.95 55.43,127.77 123.55,127.77 l 932.52,0 0,460 -932.52,0 c -325.47,0 -590.28,-265.34 -590.28,-590 0,-324.66 264.81,-590 590.28,-590 l 604.2,0 c 68.13,0 123.56,-54.05 123.56,-122 0,-67.96 -55.43,-118 -123.56,-118 l -1295.63,0 C 5216.06,1900 5109.1,1720 4891.97,1630 l 1738.03,0 0,0 c 320,4.61 581.77,275.42 581.77,597.21 0,321.77 -261.77,588.18 -581.77,592.79"
         style="fill:#616364;fill-opacity:1;fill-rule:nonzero;stroke:none"
         id="path14" /><path
         d="M 4281.97,3530 C 3762.83,3530 3340,3104.65 3340,2582 c 0,-6.16 0,-20 0,-20 l 0,-1952 470,0 0,1020 470.98,0 c 519.16,0 940.5,431.01 940.5,953.66 0,522.65 -420.36,946.34 -939.51,946.34 z m 0,-1420 -471.97,0 0,473.66 c 0,264.68 210.73,480.02 471.97,480.02 261.24,0 473.77,-215.34 473.77,-480.02 0,-264.68 -212.53,-473.66 -473.77,-473.66"
         style="fill:#616364;fill-opacity:1;fill-rule:nonzero;stroke:none"
         id="path16" /><path
         d="m 1852.03,1630 c -444.4,0 -818.02,316.67 -919.12,730.37 0,0 -29.219,136.79 -29.219,226.85 0,90.07 27.661,228.26 27.661,228.26 101.828,412.68 474.988,719.98 918.658,719.98 521.8,0 949.99,-424.18 949.99,-945.98 l 0,-229.48 -1386.35,0 c 81.87,-160 247.44,-250 438.38,-250 l 1246.26,0 1.71,1353.2 c 0,201.74 -165.06,366.8 -366.8,366.8 l -1766.388,0 C 765.066,3830 600,3669.94 600,3468.2 l 0,-1766.39 C 600,1500.06 765.066,1330 966.812,1330 l 1766.388,0 c 181.05,0 332.08,130 361.25,300 l -1242.42,0"
         style="fill:#c60c78;fill-opacity:1;fill-rule:nonzero;stroke:none"
         id="path18" /><path
         d="M 1850.01,3086.44 C 1659.8,3086.44 1494.4,2970 1412.2,2820 l 875.64,0 c -82.2,150 -247.61,266.44 -437.83,266.44"
         style="fill:#c60c78;fill-opacity:1;fill-rule:nonzero;stroke:none"
         id="path20" /><path
         d="m 2650,4404.41 c 0,431.11 -358.28,780.59 -800.23,780.59 -434.63,0 -788.12,-338.05 -799.73,-759.28 -0.19,-1.77 -0.04,-3.51 -0.04,-5.34 l 0,-234.58 c 0,-28.06 22.85,-55.8 51.61,-55.8 l 294.41,0 c 28.77,0 53.98,27.74 53.98,55.8 l 0,218.61 c 0,215.28 179.3,390.43 400,390.43 220.7,0 400,-175.15 400,-390.43 l 0,-218.61 c 0,-28.06 23.33,-55.8 52.09,-55.8 l 294.42,0 c 28.76,0 53.49,27.74 53.49,55.8 l 0,218.61"
         style="fill:#c60c78;fill-opacity:1;fill-rule:nonzero;stroke:none"
         id="path22" /><path
         d="m 4809.28,1020 -42.56,-240.988 c -21.27,-121.793 -101.09,-177.574 -209.27,-177.574 -91.63,0 -162.57,59.714 -141.86,177.378 l 42.55,241.184 65.63,0 -42.58,-240.988 c -13,-75.106 20.7,-117.867 84.54,-117.867 65.62,0 121.77,39.031 135.37,117.671 l 42.56,241.184 65.62,0 z m -257.74,75.44 c 0,-20.09 15.38,-29.54 31.93,-29.54 20.69,0 43.15,14.77 43.15,42.56 0,19.49 -13.01,29.54 -30.15,29.54 -21.27,0 -44.93,-13.58 -44.93,-42.56 z m 141.88,0.6 c 0,-20.69 15.96,-30.14 33.11,-30.14 18.32,0 42.56,14.77 42.56,41.97 0,19.49 -14.2,30.13 -30.16,30.13 -21.27,0 -45.51,-13.58 -45.51,-41.96"
         style="fill:#616364;fill-opacity:1;fill-rule:nonzero;stroke:none"
         id="path24" /><path
         d="m 4967.88,1020 -29.56,-166.512 c 25.41,34.266 76.24,52.399 111.71,52.399 73.31,0 124.14,-42.957 124.14,-122.754 0,-112.906 -78.62,-180.809 -179.1,-180.809 -39.03,0 -72.13,14.492 -92.22,51.137 L 4891.61,610 l -57.34,0 72.71,410 60.9,0 z m -46.11,-281.016 c -2.37,-48.472 28.96,-79.796 74.47,-79.796 57.35,0 112.9,44.343 116.46,111.714 2.36,49.067 -29.56,78.047 -73.9,78.047 -56.75,0 -113.5,-45.531 -117.03,-109.965"
         style="fill:#616364;fill-opacity:1;fill-rule:nonzero;stroke:none"
         id="path26" /><path
         d="m 5293.71,730 c -2.37,-40 28.96,-72.66 82.17,-72.66 29.56,0 68.57,11.562 89.84,31.652 l 33.11,-38.265 c -36.04,-33.071 -89.26,-49.543 -134.18,-49.543 -83.94,0 -133.01,50.261 -133.01,127.121 0,102.261 80.39,178.48 183.25,178.48 94,0 147.2,-56.785 115.28,-176.785 l -236.46,0 z m 186.8,50 c 4.72,50 -24.83,70.348 -73.9,70.348 -44.32,0 -85.11,-20.348 -102.86,-70.348 l 176.76,0"
         style="fill:#616364;fill-opacity:1;fill-rule:nonzero;stroke:none"
         id="path28" /><path
         d="m 5692.83,900 -2.96,-38.543 c 28.38,37.273 62.67,44.879 93.99,44.879 28.38,0 53.79,-10.074 67.39,-24.844 l -36.64,-53.211 c -13.01,11.793 -26.01,17.699 -48.48,17.699 -41.98,0 -83.35,-25.175 -92.81,-78.968 L 5645.54,610 l -60.89,0 51.43,290 56.75,0"
         style="fill:#616364;fill-opacity:1;fill-rule:nonzero;stroke:none"
         id="path30" /><path
         d="m 6144.55,900 30.73,-229.344 111.13,229.344 67.99,0 -152.51,-290 -71.53,0 -28.97,191.309 -46.7,-95.043 -50.83,-96.266 -70.95,0 -51.43,290 68.58,0 30.15,-229.344 111.72,229.344 52.62,0"
         style="fill:#616364;fill-opacity:1;fill-rule:nonzero;stroke:none"
         id="path32" /><path
         d="m 6432.59,730 c -2.37,-40 28.96,-72.66 82.17,-72.66 29.56,0 68.56,11.562 89.84,31.652 l 33.11,-38.265 c -36.05,-33.071 -89.26,-49.543 -134.19,-49.543 -83.94,0 -133,50.261 -133,127.121 0,102.261 80.39,178.48 183.25,178.48 94,0 147.2,-56.785 115.28,-176.785 l -236.46,0 z m 186.8,50 c 4.72,50 -24.84,70.348 -73.9,70.348 -44.33,0 -85.12,-20.348 -102.86,-70.348 l 176.76,0"
         style="fill:#616364;fill-opacity:1;fill-rule:nonzero;stroke:none"
         id="path34" /><path
         d="m 6835.85,900 -51.41,-290 -60.9,0 51.43,290 60.88,0 z m -53.79,79.004 c 0,-20.688 15.38,-31.359 31.94,-31.359 23.64,0 45.51,15.398 45.51,44.343 0,19.532 -14.79,30.762 -30.74,30.762 -21.88,0 -46.71,-14.21 -46.71,-43.746"
         style="fill:#616364;fill-opacity:1;fill-rule:nonzero;stroke:none"
         id="path36" /><path
         d="m 7106.05,828.266 c -18.91,21.277 -43.15,27.191 -72.11,27.191 -40.21,0 -68.58,-13.613 -68.58,-39.019 0,-21.282 23.05,-30.172 57.35,-33.11 53.19,-4.726 121.18,-22.469 106.99,-97.543 -10.05,-54.387 -64.43,-86.305 -140.1,-86.305 -47.28,0 -92.82,10.641 -123.55,53.793 l 39.61,43.153 c 21.87,-30.133 60.3,-42.559 94.58,-43.153 28.96,0 63.26,10.641 68.58,37.832 5.32,26.004 -17.75,36.051 -60.3,40.215 -49.67,4.723 -104.04,23.028 -104.04,78.012 0,72.723 78.61,98.133 137.74,98.133 44.92,0 78.03,-10.043 105.22,-39.024 l -41.39,-40.175"
         style="fill:#616364;fill-opacity:1;fill-rule:nonzero;stroke:none"
         id="path38" /><path
         d="m 7298.25,900 -27.77,-156.172 c -8.87,-49.664 13.59,-83.984 64.43,-83.984 47.88,0 88.67,39.668 96.93,88.14 l 26.59,152.016 60.9,0 -51.41,-290 -54.98,0 4.13,42.023 c -34.28,-32.511 -67.99,-47.847 -108.76,-47.847 -71.54,0 -114.1,51.281 -98.73,139.34 l 27.79,156.484 60.88,0"
         style="fill:#616364;fill-opacity:1;fill-rule:nonzero;stroke:none"
         id="path40" /><path
         d="m 7786.65,610 27.79,155.227 c 8.85,50.257 -8.26,83.543 -63.84,83.543 -48.48,0 -89.28,-38.993 -97.54,-86.872 L 7626.46,610 l -60.9,0 51.45,290 55.54,0 -4.13,-42.379 c 33.7,31.324 68.56,46.777 106.4,46.777 70.94,0 117.07,-49.343 101.11,-138.621 L 7848.14,610 l -61.49,0"
         style="fill:#616364;fill-opacity:1;fill-rule:nonzero;stroke:none"
         id="path42" /><path
         d="m 7993.03,570 c -4.13,-40 26.6,-56.184 78.05,-56.184 44.94,0 93.41,25.09 104.64,88.926 l 8.86,49.801 c -26.6,-37.238 -75.08,-51.941 -111.12,-51.941 -74.51,0 -126.52,44.343 -126.52,124.769 0,114.652 85.11,180.887 181.47,180.887 40.8,0 77.45,-19.367 90.47,-52.477 l 10.04,46.219 59.11,0 -50.85,-298.617 C 8218.28,490.824 8136.11,456.512 8061.04,456.512 7971.16,456.512 7921.53,500 7933.92,570 l 59.11,0 z m 17.15,167.199 c 0,-49.629 32.52,-79.797 79.24,-79.797 125.88,0 159.59,193.297 33.67,193.297 -59.71,0 -112.91,-44.308 -112.91,-113.5"
         style="fill:#616364;fill-opacity:1;fill-rule:nonzero;stroke:none"
         id="path44" /></g></g></svg>