<svg xmlns="http://www.w3.org/2000/svg" viewBox="0 0 1561.84 1122.28"><title>videoAudioPosts</title><path d="M93.44 170.66a11.84 11.84 0 0 1-11.85-11.85v-29.62a11.85 11.85 0 0 1 23.7 0v29.62a11.84 11.84 0 0 1-11.85 11.85zm0-117.35a11.84 11.84 0 0 1-11.85-11.85V11.84A11.84 11.84 0 0 1 93.44-.01h29.62a11.85 11.85 0 1 1 0 23.7h-17.77v17.77a11.84 11.84 0 0 1-11.85 11.85zm1073.8-29.62h-58a11.85 11.85 0 1 1 0-23.7h58a11.85 11.85 0 0 1 0 23.7zm-116 0h-58a11.85 11.85 0 0 1 0-23.7h58a11.85 11.85 0 0 1 0 23.7zm-116 0h-58a11.85 11.85 0 1 1 0-23.7h58a11.85 11.85 0 1 1 0 23.7zm-116 0h-58a11.85 11.85 0 0 1 0-23.7h58a11.85 11.85 0 1 1 0 23.7zm-116 0h-58a11.85 11.85 0 0 1 0-23.7h58a11.85 11.85 0 0 1 0 23.7zm-116 0h-58a11.85 11.85 0 1 1 0-23.7h58a11.85 11.85 0 1 1 0 23.7zm-116 0h-58a11.85 11.85 0 0 1 0-23.7h58a11.85 11.85 0 1 1 0 23.7zm-116 0h-58a11.85 11.85 0 0 1 0-23.7h58a11.85 11.85 0 0 1 0 23.7zm-116 0h-58a11.85 11.85 0 1 1 0-23.7h58a11.85 11.85 0 1 1 0 23.7zm1015.6 29.62a11.84 11.84 0 0 1-11.85-11.85V23.69h-17.77a11.85 11.85 0 0 1 0-23.7h29.62a11.84 11.84 0 0 1 11.85 11.85v29.62a11.84 11.84 0 0 1-11.85 11.85zm0 700.09a11.84 11.84 0 0 1-11.85-11.85v-58.34a11.85 11.85 0 1 1 23.7 0v58.34a11.84 11.84 0 0 1-11.85 11.85zm0-116.69a11.84 11.84 0 0 1-11.85-11.85v-58.34a11.85 11.85 0 0 1 23.7 0v58.34a11.84 11.84 0 0 1-11.85 11.89zm0-466.75a11.84 11.84 0 0 1-11.85-11.85V99.77a11.85 11.85 0 1 1 23.7 0v58.34a11.84 11.84 0 0 1-11.85 11.89zm0 671.44a11.84 11.84 0 0 1-11.85-11.85v-29.62a11.85 11.85 0 1 1 23.7 0v29.62a11.84 11.84 0 0 1-11.85 11.85z" fill="#CCCED0"/><path fill="#fff" d="M1047.74 1011.31H93.44V622.98"/><path d="M1047.74 1023.16h-29.62a11.85 11.85 0 0 1 0-23.7h29.62a11.85 11.85 0 1 1 0 23.7zm-89.29 0h-59.67a11.85 11.85 0 1 1 0-23.7h59.67a11.85 11.85 0 1 1 0 23.7zm-119.34 0h-59.67a11.85 11.85 0 1 1 0-23.7h59.68a11.85 11.85 0 1 1 0 23.7zm-119.35 0h-59.67a11.85 11.85 0 1 1 0-23.7h59.67a11.85 11.85 0 1 1 0 23.7zm-119.34 0h-59.67a11.85 11.85 0 0 1 0-23.7h59.67a11.85 11.85 0 1 1 0 23.7zm-119.35 0H421.4a11.85 11.85 0 1 1 0-23.7h59.67a11.85 11.85 0 1 1 0 23.7zm-119.34 0h-59.67a11.85 11.85 0 0 1 0-23.7h59.67a11.85 11.85 0 1 1 0 23.7zm-119.34 0h-59.68a11.85 11.85 0 1 1 0-23.7h59.68a11.85 11.85 0 0 1 0 23.7zm-119.33 0H93.44a11.84 11.84 0 0 1-11.85-11.85v-29.62a11.85 11.85 0 0 1 23.7 0v17.77h17.77a11.85 11.85 0 1 1 0 23.7zm-29.62-95.45a11.84 11.84 0 0 1-11.85-11.85v-65.81a11.85 11.85 0 0 1 23.7 0v65.81a11.84 11.84 0 0 1-11.85 11.85zm0-131.64a11.84 11.84 0 0 1-11.85-11.85V718.4a11.85 11.85 0 1 1 23.7 0v65.81a11.84 11.84 0 0 1-11.85 11.87zm0-131.62a11.84 11.84 0 0 1-11.85-11.85v-29.62a11.85 11.85 0 1 1 23.7 0v29.62a11.84 11.84 0 0 1-11.85 11.85z" fill="#CCCED0"/><path d="M1362.78 1014.46c-17.39-11.16-34.79-10.22-52.19-11.22-12-.66-24.08-1.16-36.11-1.41q-.38-18.05-1.4-36.11c-1-17.39-.07-34.79-11.23-52.18h-6.89c-11.15 17.39-10.22 34.79-11.22 52.18-.66 12-1.16 24.08-1.41 36.12q-18.05.38-36.1 1.4c-17.39 1-34.79.05-52.19 11.23v6.89c17.4 11.17 34.79 10.22 52.19 11.23q18.05 1 36.1 1.4c.25 12 .75 24.08 1.41 36.11 1 17.39.06 34.79 11.23 52.18h6.87c11.17-17.39 10.22-34.79 11.23-52.18q1-18.05 1.4-36.1c12-.25 24.08-.75 36.11-1.41 17.4-1 34.79-.07 52.19-11.22z" fill="#204A69"/><path d="M80.57 224.02v205.12a59.65 59.65 0 0 0-20.14-3.71 60.43 60.43 0 1 0 60.43 60.43V284.4h141v84.27a59.65 59.65 0 0 0-20.14-3.71 60.43 60.43 0 1 0 60.43 60.43V224.02z" fill="#d9a2dc"/><path d="M1559.84 427.18c-2.45-17-7.34-34.09-15.85-49.76a117.4 117.4 0 0 0-35.16-40c-14.5-10.58-31.19-17.26-47.86-21.65-16.37-4.19-33.41-7.17-51.37-6.47a88.57 88.57 0 0 0-24.35 4.18l-.48-3.59a161.11 161.11 0 0 0-15.7-49.58 128.85 128.85 0 0 0-33-41.14 132.57 132.57 0 0 0-46.56-24.11c-16.66-5-33.81-7-50.7-7.26a212.25 212.25 0 0 0-50.59 5.17c-33.29 7.47-64.15 24.06-89.62 46a293.64 293.64 0 0 0-35.06 36.07 258.92 258.92 0 0 0-20.78 28.36 136.4 136.4 0 0 0-26.7-21 114.31 114.31 0 0 0-46.86-16c-32.06-3-64.88 1.61-93.75 16.06-28.86 14.27-52.24 37.25-69.69 63.16a266.57 266.57 0 0 0-36.27 85.59 3.046 3.046 0 0 0 5.9 1.52l.06-.2a258.52 258.52 0 0 1 39.43-80.54c17.53-24.06 40.12-44.47 66.78-56.45 26.49-12.14 56.75-15.17 85.3-11.44 27.6 3.58 52.72 22 69 43.31l.28.38a10.5 10.5 0 0 0 17.79-1.88c26.34-55 78.52-100.93 138.56-113.52 29.79-6.19 62.1-5.77 90.78 2.9s52.76 28.32 65.67 55.11a138.54 138.54 0 0 1 12.89 42.74l.67 5.58.29 3.07a17.8 17.8 0 0 0 2.87 8 19.14 19.14 0 0 0 12.72 8.22 19.89 19.89 0 0 0 7.38-.14 20.62 20.62 0 0 0 3.52-1.07l1.12-.42c5.85-2.2 12.88-3.22 20-3.5 14.43-.5 29.66 2 44.61 5.66 14.58 3.74 28.5 9.24 40.26 17.72 23.94 16.53 38.1 44.2 42.27 74.2 4 27.25 1.82 56.57-4.49 83.71l-383.71.19c-65.37 0-130.74.72-196.11 1.63l-23 .32c0 4.92.05 9.85-.1 14.75l219.17 2.25 392.16 2.48h.31a10.39 10.39 0 0 0 10.07-7.66c9.04-33.17 12.46-66.62 7.9-100.95z" fill="#CCCED0"/><path d="M449.07 873.75V534.68a72.84 72.84 0 0 1 72.84-72.84h409.36v411.9z" fill="#CCCED0"/><path fill="#204A69" d="M646.81 602.15l121.81 76.36-121.81 82.19V602.15z"/></svg>