<?xml version="1.0" encoding="UTF-8" standalone="no"?>
<svg
   xmlns:dc="http://purl.org/dc/elements/1.1/"
   xmlns:cc="http://creativecommons.org/ns#"
   xmlns:rdf="http://www.w3.org/1999/02/22-rdf-syntax-ns#"
   xmlns:svg="http://www.w3.org/2000/svg"
   xmlns="http://www.w3.org/2000/svg"
   viewBox="0 0 2560 896"
   height="896"
   width="2560"
   xml:space="preserve"
   id="svg2"
   version="1.1"><metadata
     id="metadata8"><rdf:RDF><cc:Work
         rdf:about=""><dc:format>image/svg+xml</dc:format><dc:type
           rdf:resource="http://purl.org/dc/dcmitype/StillImage" /></cc:Work></rdf:RDF></metadata><defs
     id="defs6" /><g
     transform="matrix(1.3333333,0,0,-1.3333333,0,896)"
     id="g10"><g
       transform="scale(0.1)"
       id="g12"><path
         id="path14"
         style="fill:#d32536;fill-opacity:1;fill-rule:evenodd;stroke:none"
         d="m 4095.87,2870.98 1564.62,2.14 -57.2,-356.01 L 4295,1267.97 l 1097.73,2.19 -63.77,-384.5 -1616.71,-0.269 67.56,396.519 1254.11,1201.01 -1000.47,0.05 62.42,388.01 v 0" /><path
         id="path16"
         style="fill:#d32536;fill-opacity:1;fill-rule:evenodd;stroke:none"
         d="m 2056.55,2993.99 c -0.41,-4.56 -37.77,-225.98 -88.27,-487.86 -19.32,-100.22 -95.86,-154.02 -184.18,-172.68 -145.78,-30.79 -302.68,-25.14 -302.68,-25.14 l -690.24,1.76 151.55,914.76 625.44,-1.73 c 0,0 42.32,0.88 101.43,-0.04 67.17,-1.04 156.01,-4.41 229.03,-14.03 62.53,-8.23 113.45,-21.05 129.2,-40.93 20.78,-26.23 29.36,-59.71 32.24,-90.31 4.11,-43.5 -3.3,-81.16 -3.52,-83.8 z m 328.87,485.88 c -34.29,36.2 -82.67,64.12 -137.34,85.66 -56.69,22.33 -120.15,37.8 -181.66,48.5 -78.37,13.64 -153.59,19.54 -207.68,22.07 -49.76,2.33 -81.64,1.8 -81.64,1.8 l -683.94,0.09 -508.965,0.07 -457.449,-2752.56 425.91,-0.441 168.352,1020.311 825.772,-3.57 c 0,0 321.52,-12.62 549.81,108.14 228.25,120.86 288.69,395.63 288.69,395.63 0,0 25.11,101.94 45.61,226.42 22.53,136.69 45.6,300.83 57.58,388.22 5.25,38.35 8.37,61.93 8.37,61.93 0,0 5.54,28.34 6.06,72.28 0.73,61.47 -8.36,153.48 -56.21,241.14 -15.84,29 -35.91,57.53 -61.27,84.31" /><path
         id="path18"
         style="fill:#d32536;fill-opacity:1;fill-rule:evenodd;stroke:none"
         d="m 7780.92,3638.5 409.64,0.33 -458.99,-2753.939 -410.68,0.66 460.03,2752.949 v 0" /><path
         id="path20"
         style="fill:#d32536;fill-opacity:1;fill-rule:evenodd;stroke:none"
         d="m 9969.47,2871.42 392.93,0.33 138.8,-1397.29 604.4,1399.82 485,-1.32 143.3,-1404.26 604.5,1402.94 407.6,0.38 -866.3,-1985.43 -484,-0.051 -139.5,1390.271 -611.5,-1390.298 -475.8,-1.34 -199.43,1986.248 v 0" /><path
         id="path22"
         style="fill:#d32536;fill-opacity:1;fill-rule:nonzero;stroke:none"
         d="m 6934.91,2130.8 -915.01,0.99 36.4,145.24 c 0,0 31.77,113.56 95.23,162.08 63.5,48.47 144.63,56.7 221.03,64.11 76.47,7.44 278.79,21.69 443.95,-12.35 54.84,-11.25 106.98,-42.09 120.54,-87.76 32.05,-107.81 -2.14,-272.31 -2.14,-272.31 z m 88.97,723.88 c -114.82,37.44 -314.24,44.85 -482.53,42.76 -163.13,-2.03 -237.94,-9.66 -298.81,-22.78 0,0 -290.21,-41.6 -454.87,-245.63 -164.67,-204.02 -213.8,-650.49 -213.8,-650.49 0,0 -97.76,-493.38 -69.16,-657.77 28.54,-164.39 79.81,-316.77 266.11,-388.29 186.34,-71.519 344.37,-68.332 344.37,-68.332 0,0 332.03,-26.078 582.21,33.102 250.19,59.051 382.09,235.19 382.09,235.19 0,0 58.67,75.75 101,166.24 42.37,90.48 54.77,153.28 56.64,161.01 l 26.24,106.6 -425.34,-0.55 c 0,0 -23.44,-280.7 -252.77,-306.61 -229.27,-25.85 -352.33,-16.08 -396.68,-14.41 -43.7,1.6 -290.04,-8.55 -270.08,196.84 0.11,2.77 0.29,6.83 0.57,12.59 11.42,234.27 37.43,294.98 37.43,294.98 l 1335.19,3.76 56.97,329.77 c 64.83,375.17 17.24,660.49 -324.78,772.02" /><path
         id="path24"
         style="fill:#d32536;fill-opacity:1;fill-rule:nonzero;stroke:none"
         d="m 5919.57,1450.89 c -0.42,-3.16 -0.77,-6.27 -1.07,-9.33 -0.59,-15.63 1.2,10.19 1.07,9.33" /><path
         id="path26"
         style="fill:#d32536;fill-opacity:1;fill-rule:nonzero;stroke:none"
         d="m 8438.22,1450.42 c -0.42,-3.16 -0.77,-6.27 -1.07,-9.33 -0.59,-15.62 1.21,10.21 1.07,9.33" /><path
         id="path28"
         style="fill:#d32536;fill-opacity:1;fill-rule:nonzero;stroke:none"
         d="m 9449.99,2131.35 -914.95,0.93 36.39,145.3 c 0,0 31.79,113.59 95.24,162.03 63.45,48.46 144.57,56.76 221.04,64.16 76.46,7.36 278.73,21.68 443.94,-12.4 54.78,-11.22 106.93,-42.05 120.54,-87.77 32.06,-107.8 -2.2,-272.25 -2.2,-272.25 z m 92.6,722.89 c -114.88,37.44 -314.29,44.85 -482.59,42.73 -163.13,-2 -237.94,-9.63 -298.81,-22.75 0,0 -290.21,-41.66 -454.87,-245.63 -164.67,-204.08 -213.8,-650.49 -213.8,-650.49 0,0 -97.75,-493.43 -69.15,-657.83 28.59,-164.39 79.8,-316.68 266.15,-388.282 186.3,-71.519 344.33,-68.34 344.33,-68.34 0,0 332.07,-26.019 582.21,33.102 250.18,59.109 382.08,235.25 382.08,235.25 0,0 58.68,75.76 101,166.21 42.37,90.46 54.77,153.31 56.7,161.05 l 26.23,106.59 -425.39,-0.55 c 0,0 -23.44,-280.73 -252.76,-306.58 -229.28,-25.88 -352.34,-16.17 -396.64,-14.52 -43.69,1.62 -290.08,-8.5 -270.13,196.89 0.11,2.77 0.29,6.84 0.57,12.62 11.42,234.27 37.44,294.98 37.44,294.98 l 1335.18,3.73 56.98,329.75 c 64.88,375.17 17.23,660.48 -324.73,772.07" /><path
         id="path30"
         style="fill:#d32536;fill-opacity:1;fill-rule:evenodd;stroke:none"
         d="m 13218.5,2871.23 262.7,-1451.55 743.5,1453.06 418.2,-3.57 -1071.2,-2075.451 c 0,0 -193.8,-375.547 -314.1,-470.84 -120.2,-95.387 -193.6,-138.039 -292,-147.758 -98.3,-9.769 -137.8,-16.629 -232.1,0 l -99.7,17.508 62.4,370.582 c 0,0 165.6,-31.152 264.2,7.769 98.6,39 178.4,206.989 178.4,206.989 l 49.7,84.031 -387.1,2009.8 417.1,-0.57 v 0" /><g
         transform="scale(1.0382)"
         id="g32"><path
           id="path34"
           style="fill:#b1afad;fill-opacity:1;fill-rule:evenodd;stroke:none"
           d="m 14249.4,2575.55 415.4,-0.57 24.6,161.09 c 0,0 44.4,290.62 143.3,346.77 31.7,17.98 82.6,35.1 141.3,45.32 108.5,18.81 247,21 359,16.96 172.8,-6.23 237.5,-7.76 413.2,-27.73 175.7,-20.01 130.9,-189.62 130.9,-189.62 l -34.4,-252.93 c 0,0 -15,-113.3 -55.5,-184.09 -35.9,-62.6 -133.7,-104.69 -190.3,-123.19 -136.8,-44.62 -604.8,-163.58 -604.8,-163.58 l -368.4,-106.19 c 0,0 -225.9,-65.52 -352.9,-205.63 -126.9,-140.16 -176.8,-299.53 -194.2,-382.76 -17.3,-83.16 -114.5,-656.053 -114.5,-656.053 l 1986,-0.851 66.3,397.054 -1570.9,-1.8 28.3,161.78 c 0,0 18.2,166.81 85.8,221.21 21.2,17.24 31.8,40.02 157.2,84.73 74.9,26.7 331.2,94.95 331.2,94.95 l 592.7,161.67 c 0,0 323.3,83.27 450.7,259.65 127.4,176.32 176.4,514.37 176.4,514.37 0,0 34.2,328.16 8.1,431.05 -26,102.88 -123.4,226.44 -241.5,279.1 -118.1,52.66 -241.8,83.48 -599.5,78.59 -357.6,-4.94 -534.2,-21.64 -715.2,-88.21 -181,-66.51 -285.7,-187.95 -352.2,-359.09 -73.5,-161.63 -116.1,-512 -116.1,-512 v 0" /></g><g
         transform="scale(1.17014)"
         id="g36"><path
           id="path38"
           style="fill:#b1afad;fill-opacity:1;fill-rule:evenodd;stroke:none"
           d="m 15596,1630.06 -770.4,1.17 937.7,998.91 z m 364,0.28 246.8,1479.84 -437.2,0.27 -1362.4,-1463.2 -61.9,-370.52 1191.5,0.13 -87.2,-519.927 365.5,-0.467 86.3,520.344 337.6,-0.7 61,354.7 -340,-0.47" /></g><path
         id="path40"
         style="fill:#b1afad;fill-opacity:1;fill-rule:evenodd;stroke:none"
         d="M 3289.27,3412.41 H 4602 c 0,0 294.48,237.95 503.17,390.54 208.69,152.62 588.58,393.61 588.58,393.61 l -741.5,346.96 c 0,0 -626.62,-388.12 -892.67,-571.24 -258.69,-168.73 -770.31,-559.87 -770.31,-559.87 v 0" /><path
         id="path42"
         style="fill:#b1afad;fill-opacity:1;fill-rule:evenodd;stroke:none"
         d="m 6111.35,4441.92 -608.95,409.97 c 0,0 551.15,313.03 1283.65,605.15 732.5,292.17 1123.14,413.7 1123.14,413.7 l 123.67,-580.73 c 0,0 -705.22,-235.8 -1109.37,-426.76 -417.38,-178.01 -812.14,-421.33 -812.14,-421.33 v 0" /><path
         id="path44"
         style="fill:#b1afad;fill-opacity:1;fill-rule:evenodd;stroke:none"
         d="m 8483.28,5417.47 -105.6,595.1 c 0,0 751.65,199.86 1440.4,328.03 688.72,128.17 1602.32,188.73 1602.32,188.73 l -302.3,-919.26 c 0,0 -803.5,109.67 -1557.28,7.3 -587.71,-69.98 -1077.54,-199.9 -1077.54,-199.9 v 0" /><path
         id="path46"
         style="fill:#b1afad;fill-opacity:1;fill-rule:evenodd;stroke:none"
         d="m 11595,5532.46 508.5,1021.38 c 0,0 1113.2,21.62 2073,-126.52 959.8,-148.2 1837.8,-376.49 1818.7,-386.48 L 13560.8,4767.68 c 0,0 -568.5,360.19 -1274.9,581.18 -400.1,116.69 -690.9,183.6 -690.9,183.6 v 0" /><g
         transform="scale(1.16131)"
         id="g48"><path
           id="path50"
           style="fill:#b1afad;fill-opacity:1;fill-rule:evenodd;stroke:none"
           d="m 12053,3866.24 460.9,-349.27 H 16300 c 0,0 -7.7,122.59 -108.6,296.19 -63.1,108.8 -177.4,223.8 -297.2,343.34 -43.6,43.43 -218.2,179.51 -348.5,264 -334.3,216.64 -521,300.41 -867.7,458.4 L 12053,3866.24 v 0" /></g><path
         id="path52"
         style="fill:#d32536;fill-opacity:1;fill-rule:nonzero;stroke:none"
         d="m 3573.81,2873.12 c -165.04,0 -320.92,-65.1 -454.13,-138.04 l 23.36,138.04 H 2705.69 L 2355.48,895.879 h 437.67 l 194.03,1095.411 c 40.42,222.29 205.83,496.67 530.43,496.67 l 226.26,0.91 68.06,384.25 h -238.12" /></g></g></svg>