<?xml version="1.0" encoding="utf-8"?>
<svg height="79.078606" width="300" version="1.1" viewBox="0 0 298 77.08000183105469" xmlns="http://www.w3.org/2000/svg">
  <defs>
    <clipPath id="clipPath16">
      <path d="M0,51,157,51,157,0,0,0,0,51z"/>
    </clipPath>
  </defs>
  <g transform="matrix(1.25,0,0,-1.25,-5.9169448,86.523103)">
    <g transform="matrix(1.6613986,0,0,1.6613986,-4.1890052,-4.9972634)">
      <g clip-path="url(#clipPath16)">
        <g transform="translate(32.4187,40.9816)">
          <path fill-rule="nonzero" fill="#003087" d="m0,0c-1.674,1.908-4.7,2.726-8.571,2.726h-11.235c-0.792,0-1.465-0.576-1.589-1.357l-4.678-29.669c-0.093-0.585,0.36-1.115,0.953-1.115h6.936l1.742,11.049-0.054-0.346c0.124,0.781,0.792,1.357,1.583,1.357h3.296c6.475,0,11.545,2.63,13.026,10.238,0.044,0.225,0.082,0.444,0.115,0.658,0.441,2.812-0.003,4.726-1.524,6.459"/>
        </g>
        <g transform="translate(117.3312,26.8632)">
          <path fill-rule="nonzero" fill="#009cde" d="m0,0c-0.424-2.784-2.55-2.784-4.607-2.784h-1.17l0.821,5.198c0.049,0.314,0.32,0.545,0.638,0.545h0.537c1.4,0,2.722,0,3.404-0.797,0.408-0.477,0.531-1.185,0.377-2.162m-0.895,7.264-7.756,0c-0.531,0-0.982-0.386-1.065-0.91l-3.136-19.888c-0.062-0.392,0.242-0.747,0.638-0.747h3.98c0.371,0,0.687,0.27,0.745,0.636l0.89,5.639c0.082,0.524,0.534,0.91,1.064,0.91h2.454c5.109,0,8.058,2.472,8.828,7.373,0.347,2.142,0.014,3.826-0.989,5.005-1.103,1.296-3.058,1.982-5.653,1.982"/>
        </g>
        <g transform="translate(62.0115,26.8632)">
          <path fill-rule="nonzero" fill="#003087" d="m0,0c-0.424-2.784-2.55-2.784-4.607-2.784h-1.17l0.821,5.198c0.049,0.314,0.32,0.545,0.638,0.545h0.537c1.4,0,2.722,0,3.404-0.797,0.408-0.477,0.531-1.185,0.377-2.162m-0.895,7.264-7.756,0c-0.531,0-0.982-0.386-1.065-0.91l-3.136-19.888c-0.062-0.392,0.241-0.747,0.638-0.747h3.704c0.53,0,0.981,0.386,1.064,0.909l0.847,5.366c0.082,0.524,0.534,0.91,1.064,0.91h2.454c5.109,0,8.058,2.472,8.828,7.373,0.347,2.142,0.014,3.826-0.989,5.005-1.103,1.296-3.058,1.982-5.653,1.982"/>
        </g>
        <g transform="translate(79.1228,19.7234)">
          <path fill-rule="nonzero" fill="#003087" d="m0,0c-0.359-2.122-2.043-3.547-4.192-3.547-1.077,0-1.94,0.347-2.494,1.003-0.549,0.65-0.756,1.577-0.582,2.608,0.334,2.104,2.046,3.574,4.162,3.574,1.055,0,1.911-0.35,2.476-1.012,0.569-0.667,0.793-1.599,0.63-2.626m5.176,7.229-3.714,0c-0.318,0-0.589-0.231-0.639-0.546l-0.163-1.038-0.259,0.376c-0.805,1.167-2.598,1.558-4.388,1.558-4.103,0-7.608-3.11-8.29-7.471-0.355-2.176,0.149-4.255,1.383-5.706,1.133-1.333,2.75-1.888,4.677-1.888,3.308,0,5.142,2.124,5.142,2.124l-0.166-1.032c-0.062-0.392,0.241-0.747,0.639-0.747h3.344c0.531,0,0.982,0.385,1.065,0.909l2.008,12.714c0.062,0.392-0.242,0.747-0.639,0.747"/>
        </g>
        <g transform="translate(134.4426,19.7234)">
          <path fill-rule="nonzero" fill="#009cde" d="m0,0c-0.359-2.122-2.043-3.547-4.192-3.547-1.077,0-1.94,0.347-2.494,1.003-0.55,0.65-0.756,1.577-0.582,2.608,0.334,2.104,2.046,3.574,4.162,3.574,1.055,0,1.911-0.35,2.476-1.012,0.569-0.667,0.793-1.599,0.63-2.626m5.176,7.229-3.714,0c-0.318,0-0.589-0.231-0.639-0.546l-0.163-1.038-0.26,0.376c-0.804,1.167-2.597,1.558-4.387,1.558-4.103,0-7.608-3.11-8.29-7.471-0.355-2.176,0.149-4.255,1.383-5.706,1.133-1.333,2.75-1.888,4.677-1.888,3.308,0,5.142,2.124,5.142,2.124l-0.166-1.032c-0.062-0.392,0.241-0.747,0.639-0.747h3.344c0.531,0,0.982,0.385,1.065,0.909l2.008,12.714c0.062,0.392-0.242,0.747-0.639,0.747"/>
        </g>
        <g transform="translate(104.0795,26.9523)">
          <path fill-rule="nonzero" fill="#003087" d="M0,0-3.733,0c-0.357,0-0.691-0.177-0.891-0.473l-5.15-7.584-2.182,7.288c-0.137,0.456-0.557,0.769-1.033,0.769h-3.669c-0.443,0-0.755-0.436-0.612-0.855l4.11-12.066-3.866-5.455c-0.303-0.428,0.003-1.02,0.528-1.02h3.729c0.353,0,0.684,0.173,0.886,0.463l12.414,17.918c0.297,0.429-0.009,1.015-0.531,1.015"/>
        </g>
        <g transform="translate(143.996,33.5807)">
          <path fill-rule="nonzero" fill="#009cde" d="m0,0-3.183-20.252c-0.062-0.392,0.241-0.747,0.638-0.747h3.202c0.53,0,0.982,0.386,1.064,0.91l3.139,19.888c0.062,0.392-0.241,0.747-0.639,0.747h-3.582c-0.319,0-0.59-0.231-0.639-0.546"/>
        </g>
        <g transform="translate(32.4187,40.9816)">
          <path fill-rule="nonzero" fill="#003087" d="m0,0c-1.674,1.908-4.7,2.726-8.571,2.726h-11.235c-0.792,0-1.465-0.576-1.589-1.357l-4.678-29.669c-0.093-0.585,0.36-1.115,0.953-1.115h6.936l1.742,11.049-0.054-0.346c0.124,0.781,0.792,1.357,1.583,1.357h3.296c6.475,0,11.545,2.63,13.026,10.238,0.044,0.225,0.082,0.444,0.115,0.658,0.441,2.812-0.003,4.726-1.524,6.459"/>
        </g>
        <g transform="translate(17.8489,34.4853)">
          <path fill-rule="nonzero" fill="#003087" d="m0,0c0.074,0.47,0.376,0.855,0.782,1.05,0.185,0.088,0.391,0.137,0.607,0.137h8.808c1.043,0,2.016-0.068,2.905-0.211,0.255-0.041,0.502-0.088,0.742-0.142,0.24-0.053,0.473-0.113,0.699-0.179,0.113-0.033,0.224-0.067,0.333-0.103,0.437-0.146,0.844-0.316,1.218-0.515,0.441,2.813-0.003,4.726-1.524,6.459-1.675,1.908-4.7,2.726-8.571,2.726h-11.236c-0.791,0-1.464-0.576-1.588-1.357l-4.678-29.668c-0.093-0.586,0.36-1.115,0.952-1.115h6.937l1.742,11.049,1.872,11.869z"/>
        </g>
        <g transform="translate(33.9429,34.5226)">
          <path fill-rule="nonzero" fill="#009cde" d="m0,0,0,0c-0.034-0.215-0.071-0.433-0.115-0.658-1.481-7.607-6.551-10.238-13.026-10.238h-3.297c-0.791,0-1.459-0.576-1.582-1.357l-1.688-10.702-0.479-3.036c-0.081-0.512,0.315-0.976,0.833-0.976h5.847c0.692,0,1.281,0.504,1.389,1.187l0.057,0.298,1.102,6.984,0.071,0.386c0.108,0.683,0.697,1.187,1.389,1.187h0.875c5.664,0,10.099,2.301,11.395,8.956,0.541,2.781,0.261,5.103-1.17,6.734-0.434,0.494-0.973,0.902-1.601,1.235"/>
        </g>
        <g transform="translate(32.3922,35.1407)">
          <path fill-rule="nonzero" fill="#012169" d="m0,0c-0.226,0.066-0.459,0.126-0.699,0.179s-0.488,0.1-0.742,0.141c-0.89,0.144-1.862,0.212-2.906,0.212h-8.807c-0.217,0-0.423-0.049-0.607-0.138-0.407-0.195-0.708-0.579-0.782-1.05l-1.872-11.869-0.054-0.346c0.123,0.781,0.791,1.357,1.582,1.357h3.297c6.475,0,11.545,2.63,13.026,10.238,0.044,0.225,0.081,0.443,0.115,0.658-0.375,0.198-0.781,0.369-1.218,0.514-0.109,0.036-0.22,0.071-0.333,0.104"/>
        </g>
      </g>
    </g>
  </g>
</svg>