<?xml version="1.0" encoding="UTF-8"?>
<svg width="217px" height="61px" viewBox="0 0 217 61" version="1.1" xmlns="http://www.w3.org/2000/svg" xmlns:xlink="http://www.w3.org/1999/xlink">
    <!-- Generator: Sketch 52.2 (67145) - http://www.bohemiancoding.com/sketch -->
    <title>Artboard</title>
    <desc>Created with Sketch.</desc>
    <g id="Artboard" stroke="none" stroke-width="1" fill="none" fill-rule="evenodd">
        <g id="Group" transform="translate(27.000000, 12.000000)" fill="#FFFFFF">
            <path d="M113.273273,23.1995823 C112.571886,18.6769552 109.055028,18.6769552 105.652311,18.6769552 L103.716881,18.6769552 L105.07499,27.1211418 C105.156047,27.6312369 105.604339,28.006498 106.130378,28.006498 L107.018691,28.006498 C109.33459,28.006498 111.521461,28.006498 112.649634,26.7117661 C113.324553,25.9368763 113.528022,24.7867255 113.273273,23.1995823 M111.792752,35 L98.962671,35 C98.0842836,35 97.3382333,34.3729404 97.2009335,33.5216988 L92.0133197,1.21350661 C91.9107585,0.57669993 92.4136394,0 93.068708,0 L99.6524781,0 C100.266191,0 100.788923,0.438616848 100.884867,1.03318635 L102.357117,10.1937805 C102.492763,11.045022 103.240467,11.6720817 104.117201,11.6720817 L108.176641,11.6720817 C116.628018,11.6720817 121.506294,15.6878626 122.780038,23.6495707 C123.35405,27.1292643 122.803197,29.8649339 121.144021,31.7802274 C119.319423,33.8855883 116.085436,35 111.792752,35" id="Shape" fill-rule="nonzero" transform="translate(107.500000, 17.500000) scale(-1, 1) rotate(-180.000000) translate(-107.500000, -17.500000) "></path>
            <path d="M21.2732837,23.1995823 C20.5718979,18.6769552 17.0550437,18.6769552 13.6523302,18.6769552 L11.7169025,18.6769552 L13.0750103,27.1211418 C13.1560667,27.6312369 13.6043581,28.006498 14.1303974,28.006498 L15.0187091,28.006498 C17.3346055,28.006498 19.5214734,28.006498 20.6496458,26.7117661 C21.3245642,25.9368763 21.5280323,24.7867255 21.2732837,23.1995823 M19.7927642,35 L6.96269799,35 C6.08431156,35 5.33826207,34.3729404 5.2009625,33.5216988 L0.0133545222,1.21350661 C-0.089206605,0.57669993 0.412019549,0 1.0687416,0 L7.19594185,0 C8.07267406,0 8.81872355,0.627059643 8.95602312,1.47667672 L10.3571405,10.1937805 C10.4927858,11.045022 11.2404895,11.6720817 12.1172217,11.6720817 L16.1766573,11.6720817 C24.628025,11.6720817 29.5062954,15.6878626 30.7800385,23.6495707 C31.3540499,27.1292643 30.8031974,29.8649339 29.1440231,31.7802274 C27.3194275,33.8855883 24.0854436,35 19.7927642,35" id="Shape" fill-rule="nonzero" transform="translate(15.500000, 17.500000) scale(-1, 1) rotate(-180.000000) translate(-15.500000, -17.500000) "></path>
            <path d="M49.4074933,23.925921 C48.8161007,20.5453701 46.0419913,18.2752074 42.5018719,18.2752074 C40.7276939,18.2752074 39.3060452,18.8280119 38.3934226,19.8730833 C37.4890365,20.9085961 37.1480385,22.3853966 37.4346745,24.0278792 C37.9848839,27.3797544 40.8051186,29.7216064 44.2908759,29.7216064 C46.0288126,29.7216064 47.43893,29.1640226 48.3696733,28.1093926 C49.307006,27.0467972 49.6760087,25.5620312 49.4074933,23.925921 M57.9340908,35.4424162 L51.8158947,35.4424162 C51.2920427,35.4424162 50.8456154,35.0744109 50.7632487,34.5725855 L50.4947333,32.9189512 L50.068074,33.5179555 C48.7419707,35.3770992 45.788302,36 42.8395753,36 C36.0805665,36 30.3066631,31.0454696 29.1831818,24.0979754 C28.5983784,20.6313973 29.4286345,17.3193495 31.4614438,15.0077663 C33.3278725,12.8841686 35.9916105,12 39.1660219,12 C44.6154006,12 47.63661,15.3837371 47.63661,15.3837371 L47.3631526,13.7396615 C47.261018,13.1151676 47.76016,12.5496183 48.4157987,12.5496183 L53.9244814,12.5496183 C54.7992154,12.5496183 55.5421627,13.1629605 55.6788914,13.9977431 L58.9867368,34.2523731 C59.0888714,34.8768669 58.5880821,35.4424162 57.9340908,35.4424162" id="Shape" fill-rule="nonzero" transform="translate(44.000000, 24.000000) scale(-1, 1) rotate(-180.000000) translate(-44.000000, -24.000000) "></path>
            <path d="M141.407493,23.925921 C140.816101,20.5453701 138.041991,18.2752074 134.501872,18.2752074 C132.727694,18.2752074 131.306045,18.8280119 130.393423,19.8730833 C129.487389,20.9085961 129.148039,22.3853966 129.434675,24.0278792 C129.984884,27.3797544 132.805119,29.7216064 136.290876,29.7216064 C138.028813,29.7216064 139.43893,29.1640226 140.369673,28.1093926 C141.307006,27.0467972 141.676009,25.5620312 141.407493,23.925921 M149.934091,35.4424162 L143.815895,35.4424162 C143.292043,35.4424162 142.845615,35.0744109 142.763249,34.5725855 L142.494733,32.9189512 L142.066427,33.5179555 C140.741971,35.3770992 137.788302,36 134.839575,36 C128.080567,36 122.306663,31.0454696 121.183182,24.0979754 C120.598378,20.6313973 121.428634,17.3193495 123.461444,15.0077663 C125.327872,12.8841686 127.991611,12 131.166022,12 C136.615401,12 139.63661,15.3837371 139.63661,15.3837371 L139.363153,13.7396615 C139.261018,13.1151676 139.76016,12.5496183 140.415799,12.5496183 L145.924481,12.5496183 C146.799215,12.5496183 147.542163,13.1629605 147.678891,13.9977431 L150.986737,34.2523731 C151.088871,34.8768669 150.588082,35.4424162 149.934091,35.4424162" id="Shape" fill-rule="nonzero" transform="translate(136.000000, 24.000000) scale(-1, 1) rotate(-180.000000) translate(-136.000000, -24.000000) "></path>
            <path d="M90.9182867,44 L84.6801218,44 C84.0835441,44 83.5254013,43.707981 83.191184,43.2196329 L74.58509,30.7073623 L70.9387798,42.7312848 C70.709841,43.4836049 70.0079848,44 69.2125477,44 L63.0813324,44 C62.3410412,44 61.8196623,43.2806764 62.0586276,42.5893999 L68.926792,22.682615 L62.4663727,13.6828212 C61.9600335,12.9766962 62.4713859,12 63.3487062,12 L69.5801867,12 C70.1700802,12 70.7232097,12.2854197 71.0607691,12.7638688 L91.8056335,42.3254279 C92.3019461,43.0332027 91.7905937,44 90.9182867,44" id="Path" transform="translate(77.000000, 28.000000) scale(-1, 1) rotate(-180.000000) translate(-77.000000, -28.000000) "></path>
            <path d="M157.543395,34.1130193 L152.014024,1.21350661 C151.90632,0.57669993 152.432679,0 153.12233,0 L158.684707,0 C159.6054,0 160.390595,0.627059643 160.533042,1.47830123 L165.985977,33.7864934 C166.093681,34.4233001 165.567322,35 164.875934,35 L158.653438,35 C158.099285,35 157.628515,34.6247389 157.543395,34.1130193" id="Path" transform="translate(159.000000, 17.500000) scale(-1, 1) rotate(-180.000000) translate(-159.000000, -17.500000) "></path>
        </g>
    </g>
</svg>