<?xml version="1.0" encoding="UTF-8"?>
<svg width="200px" height="192px" viewBox="0 0 200 192" version="1.1" xmlns="http://www.w3.org/2000/svg" xmlns:xlink="http://www.w3.org/1999/xlink">
    <defs>
        <polygon id="path-1" points="0.194979482 0.163510327 113.444875 0.163510327 113.444875 58.9826378 0.194979482 58.9826378"></polygon>
        <polygon id="path-3" points="0 191.059998 199.998477 191.059998 199.998477 1.11730993 0 1.11730993"></polygon>
    </defs>
    <g id="Page-1" stroke="none" stroke-width="1" fill="none" fill-rule="evenodd">
        <g>
            <path d="M156.42339,191.059998 L0,191.059998 L0,81.2564028 C0,64.7659811 13.3607182,51.3962567 29.8421628,51.3962567 L124.212171,51.3962567 C142.001694,51.3962567 156.42339,65.8258079 156.42339,83.6250208 L156.42339,191.059998 Z" id="Fill-1" fill="#C2F4FF"></path>
            <g id="Group-5" transform="translate(86.032864, 0.000000)">
                <mask id="mask-2" fill="white">
                    <use xlink:href="#path-1"></use>
                </mask>
                <g id="Clip-4"></g>
                <path d="M69.442091,38.1757731 L2.39855924,58.9826378 C2.39855924,58.9826378 -3.12370339,51.427005 3.31578731,36.3967603 C9.755278,21.3665157 33.4846896,6.66552626 57.6074442,2.58172655 C66.6491831,1.0509481 79.1210801,0.414847599 89.6915324,0.168337106 C104.408405,-0.172985115 115.705426,14.0229164 113.058519,29.5168766 C111.888795,36.3536641 109.338077,43.8317237 104.459935,51.3184025" id="Fill-3" fill="#C8D7E2" mask="url(#mask-2)"></path>
            </g>
            <path d="M118.434852,128.490642 C118.434852,150.08713 100.926834,167.596489 79.3281411,167.596489 C57.7311757,167.596489 40.2231574,150.08713 40.2231574,128.490642 C40.2231574,106.894153 57.7311757,89.3847942 79.3281411,89.3847942 C100.926834,89.3847942 118.434852,106.894153 118.434852,128.490642" id="Fill-6" fill="#00A9DE"></path>
            <mask id="mask-4" fill="white">
                <use xlink:href="#path-3"></use>
            </mask>
            <g id="Clip-9"></g>
            <polygon id="Fill-8" fill="#00A9DE" mask="url(#mask-4)" points="40.2231574 128.490642 118.434852 128.490642 118.434852 106.144443 40.2231574 106.144443"></polygon>
            <path d="M118.434852,106.144443 C118.434852,127.740932 100.926834,145.250291 79.3281411,145.250291 C57.7311757,145.250291 40.2231574,127.740932 40.2231574,106.144443 C40.2231574,84.5479547 57.7311757,67.0385956 79.3281411,67.0385956 C100.926834,67.0385956 118.434852,84.5479547 118.434852,106.144443" id="Fill-10" fill="#74DCFC" mask="url(#mask-4)"></path>
            <path d="M63.3990457,109.320139 C67.3810439,112.859277 71.2513646,116.504418 75.1234303,120.151269 L72.666527,120.308564 L78.4126794,112.83876 C80.3146855,110.339137 82.2725304,107.882257 84.2356101,105.427087 C86.1812402,102.961659 88.1530447,100.513328 90.1702182,98.099191 C92.1612173,95.6662474 94.2010752,93.2692082 96.2758324,90.8995245 C96.6946227,90.4225103 97.4309957,90.3660892 97.9195845,90.7781338 C98.373274,91.1594032 98.4500522,91.8142292 98.1219998,92.287824 C96.3264362,94.8660945 94.4924835,97.4170094 92.6114169,99.9337296 C90.7565247,102.467547 88.8545186,104.96888 86.929828,107.451406 C85.019097,109.945899 83.1066211,112.436974 81.1365616,114.885305 L75.264772,122.261073 L75.2368527,122.296978 C74.6906803,122.984289 73.6786036,123.105679 72.9788748,122.570534 C72.9195461,122.526081 72.8584725,122.47137 72.8078687,122.420078 C69.0876145,118.626191 65.3656154,114.832303 61.7535487,110.932413 C61.3225436,110.465657 61.3574428,109.744151 61.8338168,109.320139 C62.2805265,108.923482 62.9610608,108.93203 63.3990457,109.320139" id="Fill-11" fill="#FFFFFF" mask="url(#mask-4)"></path>
            <path d="M143.176153,27.9327482 C94.1621981,36.6482164 68.3646565,83.0914394 77.9593086,85.8880131 C87.3753598,88.6308732 107.062686,51.5442166 135.479137,48.8516047 C157.404128,46.7723678 153.735938,56.7648341 141.151436,62.3579815 C122.516825,70.63681 119.276247,78.0440917 122.111538,83.2733726 C124.946829,88.5026536 159.471778,78.1497862 180.443658,62.3579815 C193.057354,52.8576013 196.646547,38.8262172 196.646547,38.8262172" id="Fill-12" fill="#C8D7E2" mask="url(#mask-4)"></path>
            <path d="M143.053694,29.086533 C143.053694,29.086533 142.744607,29.1467095 142.147152,29.2636239 C141.547972,29.3788189 140.653517,29.5473131 139.532859,29.8069318 C137.274275,30.3106952 133.943382,31.1394117 129.832,32.5389455 C125.727525,33.9556726 120.828746,35.9569714 115.517276,38.8506021 C110.202351,41.7304781 104.497183,45.5267564 98.8248219,50.3254035 C93.1800892,55.1343665 87.5267228,60.9783656 82.7988922,67.9863504 C80.4954131,71.4851848 78.2920851,75.3261657 77.1921479,79.3855013 C76.933136,80.3878701 76.7777289,81.4091515 76.8191708,82.2997639 C76.845072,82.7364734 76.9193221,83.1439544 77.0471013,83.4173277 C77.1817875,83.6889817 77.3061132,83.8144927 77.497782,83.9124944 L77.6687298,83.9778289 C77.7654276,84.0070575 77.5806658,83.962355 77.6445554,83.9761096 L77.7516136,83.9984609 L77.9640034,84.0448828 C78.1833001,84.0689534 78.1936606,84.067234 78.4354051,84.0620761 C78.8135624,84.0431634 79.2417954,83.946881 79.6838424,83.7938607 C80.5765701,83.4620303 81.5055595,82.927319 82.4086476,82.2980446 C86.029634,79.7138932 89.3864282,76.2356907 92.848554,72.8744026 C96.3037727,69.4735699 99.8436021,66.0159994 103.632083,62.7355198 C107.420564,59.4601982 111.459422,56.3464934 115.876439,53.7056042 C120.283095,51.0681536 125.107623,48.922431 130.248146,47.7790773 C132.831358,47.1807508 135.435291,46.9383254 138.013323,46.7990598 C140.601715,46.6838647 143.219462,46.6649521 145.916639,47.1412062 C147.263501,47.3973863 148.646624,47.74641 150.033201,48.5596526 C150.71872,48.9722916 151.419779,49.5362315 151.95507,50.3529127 C152.488634,51.169594 152.7511,52.2390166 152.663036,53.1708929 C152.478274,55.0655934 151.538924,56.3447741 150.64447,57.4331093 C149.71548,58.5145672 148.681159,59.3931443 147.60885,60.1823163 C145.481499,61.748625 143.105497,62.9469973 140.836552,63.9201374 C138.602143,64.9104709 136.473065,65.9386296 134.381976,67.0785447 C130.2775,69.3480589 126.240368,71.9906675 123.807383,75.4327641 C122.615928,77.1434964 122.058189,79.0330389 122.51405,80.7506485 C122.626289,81.1804807 122.778243,81.6068743 123.000993,82.0143553 L123.038981,82.0917251 C123.064882,82.1415856 122.931923,81.9163535 123.01826,82.0556192 L123.132225,82.2223941 C123.127045,82.1622176 123.035528,82.1106377 123.104598,82.1553403 C123.15122,82.2069201 123.29972,82.2722546 123.449947,82.3393085 C124.144099,82.6006465 125.223315,82.6745776 126.247275,82.6625423 C130.488163,82.5284346 134.827476,81.4607314 138.909504,80.3362902 C147.113274,77.9911255 154.659154,74.925562 161.383103,71.689785 C168.107052,68.4333759 174.01425,64.9448575 178.918209,61.4374264 C180.035413,60.6035519 181.33738,59.6252537 182.318172,58.732922 C182.822381,58.2755805 183.317958,57.8251163 183.8049,57.3832488 C184.271121,56.9052753 184.730436,56.4358985 185.17939,55.9768377 C186.921676,54.0872952 188.423945,52.2493326 189.60504,50.4646691 C192.027664,46.9314481 193.443596,43.8452527 194.32769,41.7390747 C194.754196,40.6782487 195.058104,39.8564095 195.234232,39.3010663 C195.401726,38.7629163 195.488063,38.484385 195.488063,38.484385 L195.515691,38.3966992 C195.703907,37.7932148 196.347983,37.454507 196.954071,37.6419138 C197.554978,37.8276013 197.893421,38.4585951 197.717292,39.0569215 C197.717292,39.0569215 197.624048,39.3784361 197.441013,40.0008331 C197.257978,40.6077563 196.950617,41.4811754 196.517204,42.6090551 C195.619296,44.8441828 194.18437,48.0954338 191.692676,51.8538869 C190.47532,53.7520261 188.922975,55.7189384 187.104712,57.7477465 C186.635037,58.2429133 186.156728,58.748396 185.668059,59.2624753 C185.141401,59.7559227 184.604383,60.2579668 184.057005,60.7686075 C182.92944,61.8088015 181.864037,62.6289214 180.54653,63.6467641 C175.551054,67.367392 169.522984,70.9728248 162.676436,74.3220776 C155.826434,77.6627337 148.180403,80.821141 139.755609,83.2780621 C135.519901,84.4540831 131.161594,85.6025948 126.300804,85.7934403 C125.064454,85.791721 123.81429,85.796879 122.336196,85.2862383 C121.958038,85.133218 121.572974,84.9664431 121.170642,84.6552445 C120.997967,84.5400495 120.719961,84.2666762 120.514479,84.0018995 L120.384973,83.8144927 C120.431595,83.8918625 120.25374,83.6116119 120.250286,83.5961379 L120.191577,83.4809429 C119.863495,82.8791777 119.61139,82.2155168 119.431809,81.5312238 C119.062285,80.1591993 119.089913,78.6599445 119.440442,77.3102713 C119.775431,75.9451241 120.410874,74.7312779 121.141287,73.639504 C124.195901,69.3429009 128.493772,66.6573091 132.791643,64.2141427 C134.953529,63.0174897 137.220746,61.9102419 139.468969,60.9009958 C141.701652,59.929575 143.747846,58.8670297 145.607551,57.4898472 C146.524454,56.8089929 147.379193,56.0593655 148.062984,55.2530002 C148.743322,54.4638282 149.242352,53.5457066 149.266526,52.9301868 C149.295881,52.3748436 149.073131,51.9862752 148.26674,51.4825118 C147.493158,51.023451 146.413942,50.7122525 145.301917,50.516249 C143.053694,50.1294 140.610349,50.0967327 138.180817,50.2050504 C135.740925,50.3288421 133.30794,50.5437582 130.982013,51.0767502 C121.510811,53.1468223 113.132639,58.8773456 105.761161,65.1855635 C102.053837,68.3663221 98.551996,71.7534001 95.0829633,75.1370395 C91.5759422,78.4966083 88.2554096,81.9610561 84.180289,84.8546867 C83.1476949,85.5647696 82.0339437,86.2249919 80.7285238,86.7046847 C80.06718,86.9316361 79.347127,87.108727 78.5614575,87.1431135 C78.2230153,87.1689035 77.6497356,87.1207623 77.2974794,87.0519891 L77.0850897,87.0055672 L76.9780314,86.9814966 C76.9780314,86.9814966 76.7172928,86.9144428 76.7466475,86.9144428 C76.532531,86.8353537 76.3184145,86.7631418 76.1094782,86.6599821 C75.2547389,86.2490625 74.5761277,85.4547325 74.2394123,84.6810345 C73.8923363,83.9004591 73.7921851,83.1559897 73.7507431,82.4562228 C73.6954873,81.0601277 73.9234177,79.8136142 74.2290518,78.6289966 C75.5379253,73.9335092 77.8776661,70.0048426 80.3037442,66.3254786 C85.2698658,59.0338046 91.114901,53.0591365 96.9513025,48.1263817 C102.810152,43.2005043 108.758792,39.4111033 114.248117,36.5071567 C119.746077,33.5997715 124.807169,31.6053499 129.04115,30.2040968 C133.287219,28.8165983 136.697542,28.0136717 139.047643,27.5202243 C140.230464,27.262325 141.116285,27.1075854 141.715466,26.9992676 C142.316374,26.8909499 142.625461,26.8342121 142.625461,26.8342121 C143.250543,26.7207363 143.849724,27.1333753 143.965416,27.7557724 C144.077655,28.3730115 143.670142,28.9661799 143.053694,29.086533" id="Fill-13" fill="#004F84" mask="url(#mask-4)"></path>
            <path d="M139.904445,19.0158308 C139.904445,19.0158308 138.954193,19.2510028 137.292987,19.6612663 C136.457181,19.8569569 135.439302,20.0904123 134.341657,20.4440287 C133.228406,20.7959284 131.97123,21.1083467 130.610011,21.5975731 C129.253995,22.0867996 127.754054,22.5193787 126.235038,23.1699641 C124.698682,23.7707685 123.089497,24.4265036 121.466439,25.1989664 C119.806967,25.8924663 118.166568,26.7627744 116.477617,27.6039006 C114.826815,28.5085404 113.134396,29.4114636 111.520008,30.4345476 C109.88828,31.4335995 108.289499,32.475566 106.744473,33.5467145 C105.190776,34.6041302 103.725516,35.7353591 102.326149,36.8408392 C100.942388,37.9720681 99.6314567,39.0912808 98.4332377,40.2001941 C97.1864658,41.2644762 96.1599164,42.4094378 95.1420372,43.4067731 C94.2004556,44.4659054 93.3247674,45.4306256 92.5878021,46.3146664 C91.8907195,47.2227393 91.238722,47.9952021 90.7722663,48.6698197 C89.844557,50.0310708 89.315676,50.8086834 89.315676,50.8086834 L89.2601868,50.892796 C88.9029754,51.4146375 88.1868185,51.5536808 87.6579374,51.2017811 C87.1602691,50.8687638 87.0094079,50.2164619 87.2903218,49.7049198 C87.2903218,49.7049198 87.7775859,48.8260288 88.6307317,47.2914027 C89.076379,46.5343891 89.6971639,45.6743806 90.3717039,44.6530131 C91.0705205,43.6522446 91.9479427,42.5948288 92.8981945,41.4327014 C93.9160737,40.3392374 94.9530273,39.0809813 96.2050013,37.910271 C97.3945501,36.6708974 98.7713748,35.5019037 100.196752,34.2934285 C101.642939,33.1141353 103.155018,31.9108099 104.759001,30.7847308 C105.56186,30.2251244 106.371655,29.6586517 107.184918,29.0921789 L109.728749,27.5352372 C111.422902,26.4915542 113.193353,25.5731817 114.920453,24.6548093 C116.683968,23.801667 118.398929,22.9210594 120.131231,22.2189765 C121.837523,21.4653961 123.536878,20.8577254 125.151266,20.2912527 C126.748313,19.6767156 128.322818,19.2801847 129.742993,18.8287231 C131.156233,18.3652454 132.541728,18.1369397 133.719138,17.8331044 C134.913889,17.5309856 135.935236,17.3627603 136.777978,17.2185673 C138.466929,16.9370475 139.432787,16.7756886 139.432787,16.7756886 C140.062242,16.670977 140.658751,17.0898235 140.764527,17.7146601 C140.866835,18.3068816 140.483613,18.8716377 139.904445,19.0158308" id="Fill-14" fill="#004F84" mask="url(#mask-4)"></path>
            <path d="M88.4124471,36.2782175 C88.4124471,36.2782175 88.8298188,35.5338083 89.5585087,34.2306625 C90.0100911,33.5876855 90.5472006,32.7727895 91.2006267,31.8960028 C91.8882637,31.082826 92.5878744,30.0736616 93.5081447,29.1452991 C94.3873621,28.1670801 95.3828961,27.1613541 96.4690888,26.1349978 C97.5415972,25.0914496 98.7270011,24.0633741 99.9620108,23.0043532 C101.224389,21.988312 102.529531,20.9344487 103.903094,19.9373186 C105.25271,18.9006472 106.687853,17.9499352 108.095627,16.9545243 C109.535901,16.0141275 110.962491,15.0427853 112.433555,14.2038207 C113.882382,13.3287531 115.322657,12.4932268 116.737273,11.7230298 C119.539137,10.1310601 122.264027,8.85714042 124.597203,7.77061248 C126.937221,6.69955724 128.926579,5.8984148 130.330932,5.36718515 C131.735285,4.84283227 132.537528,4.54197406 132.537528,4.54197406 C133.129374,4.32019857 133.786222,4.62277598 134.005171,5.21589645 C134.210435,5.77119475 133.962407,6.38494551 133.445824,6.64282398 L133.411613,6.66001587 C133.411613,6.66001587 132.655555,7.03479925 131.335018,7.68981056 C130.671329,8.01129905 129.863954,8.39295918 128.955658,8.87605151 C128.04394,9.34367113 127.014195,9.8714624 125.892081,10.447391 C124.781941,11.0491074 123.562326,11.6628582 122.308501,12.3797603 C121.059807,13.1086968 119.703349,13.8015302 118.352022,14.6095494 C116.98188,15.3866232 115.589501,16.2255878 114.190279,17.1040938 C112.775663,17.9602503 111.393547,18.9109623 109.966957,19.7911875 C108.586552,20.738461 107.173646,21.6461932 105.85482,22.631289 C104.506915,23.5802818 103.234273,24.579131 102.000974,25.5435965 C100.78478,26.5235347 99.5908237,27.4570547 98.5285785,28.4112051 C97.449228,29.3481635 96.4605361,30.2662108 95.5950031,31.1533128 C94.688417,32.0077501 93.9648588,32.8690642 93.2686691,33.5962815 C92.6528749,34.3510058 92.1157654,35.0077363 91.6727357,35.5492811 C90.8328607,36.7785017 90.3539096,37.4816504 90.3539096,37.4816504 L90.3470674,37.4902463 C89.9912752,38.01288 89.2814012,38.1452576 88.7613972,37.7876662 C88.2704723,37.4489858 88.1284975,36.7905361 88.4124471,36.2782175" id="Fill-15" fill="#004F84" mask="url(#mask-4)"></path>
        </g>
    </g>
</svg>