<?xml version="1.0" encoding="UTF-8" standalone="no"?>
<svg xmlns="http://www.w3.org/2000/svg" width="800" height="165" version="1.1" id="svg529">
    <title id="title">SOFORT Logo</title>
    <g transform="matrix(0.54981622,0,0,0.54981622,271.3869,-35.870245)" id="icons--sofortueberweisung">
        <path style="fill:#ee7f00" id="path442" d="m 625.292,167.605 c -7.41,20.141 -20.712,32.601 -46.018,32.601 h -0.094 l -13.093,-0.021 22.378,-60.951 h 12.733 c 23.296,0.016 31.996,6.89 24.094,28.371 m 67.155,-55.678 C 681.069,95.374 657.904,87.245 621.621,87.21 h -84 l -90.857,252.033 h 77.179 l 33.024,-88.717 c 1.612,3.639 21.104,88.717 21.104,88.717 h 81.123 c 0,0 -14.754,-62.517 -25.606,-87.769 -2.793,-6.482 -5.7,-13.765 -9.581,-19.834 22.913,-8.604 56.115,-27.062 69.86,-64.49 8.454,-23.004 7.961,-41.574 -1.42,-55.223 M -83.01,87.063 h -143.074 c -22.562,0 -44.463,0 -64.102,10.055 -19.636,10.07 -36.959,30.211 -50.306,70.482 -2.892,8.669 -4.426,16.125 -4.619,22.592 -0.199,6.513 0.914,12.027 3.345,16.829 3.002,5.844 7.869,11.365 13.954,16.012 6.09,4.633 13.386,8.425 21.242,10.84 0.308,0.081 4.434,1.275 9.433,2.707 a 1555.423,1555.423 0 0 1 14.509,4.311 c 2.156,0.667 4.541,1.535 6.697,2.839 2.153,1.29 4.079,3.022 5.3,5.438 a 12.426,12.426 0 0 1 1.274,5.209 c 0.051,1.875 -0.261,3.898 -0.997,6.023 -1.827,5.484 -4.604,8.991 -9.889,11.162 -5.273,2.14 -13.057,2.842 -24.847,2.94 h -147.233 l -23.28,64.574 h 157.604 c 14.82,0 41.935,0 67.987,-11.181 26.053,-11.181 51.042,-33.528 61.617,-78.239 3.985,-16.812 2.759,-30.49 -3.77,-41.245 -6.528,-10.763 -18.364,-18.545 -35.569,-23.54 0,0 -3.853,-1.13 -8.386,-2.45 -4.525,-1.306 -9.734,-2.81 -12.409,-3.589 -4.406,-1.274 -7.787,-3.854 -9.79,-7.134 -1.996,-3.267 -2.6,-7.248 -1.458,-11.315 1.175,-4.208 4.033,-7.587 8.161,-9.906 4.149,-2.314 9.597,-3.589 15.949,-3.589 h 91.606 c 0.638,-0.953 1.223,-1.961 1.875,-2.909 16.738,-23.908 36.992,-43.253 59.176,-56.916" />
        <path style="fill:#ee7f00" id="path444" d="m -15.805,211.911 c -21.379,59.109 -36.905,73.994 -60.264,73.994 h -0.045 c -22.761,-0.035 -30.739,-14.575 -9.437,-73.402 15.896,-43.925 36.5,-72.022 61.408,-72.022 h 0.016 c 23.703,0.036 29.135,13.904 8.322,71.43 M 57.569,110.674 C 45.096,92.658 23.763,83.495 -5.926,83.465 c -19.43,0 -38.278,4.505 -55.96,12.93 -25.267,12.078 -48.183,32.239 -66.892,58.989 -12.142,17.369 -22.538,37.479 -30.7,59.99 -15.363,42.488 -15.182,76.965 0.522,99.684 8.914,12.833 27.403,28.179 65.029,28.208 h 0.146 c 68.543,0 119.73,-45.377 152.133,-134.878 8.554,-23.7 19.852,-67.886 -0.783,-97.714 M 331.489,87.063 H 185.676 c -40.763,0 -71.104,20.829 -85.44,59.825 L 30.979,339.075 h 75.87 l 35.585,-98.807 67.054,0.055 19.068,-52.909 -66.831,-0.046 10.756,-30.64 c 2.256,-5.483 7.609,-9.856 15.46,-9.856 4.362,0 53.573,0.015 79.057,0.031 0.652,-0.948 1.24,-1.977 1.893,-2.925 16.726,-23.907 40.413,-43.252 62.598,-56.915 m 66.319,124.848 c -21.364,59.109 -36.891,73.994 -60.249,73.994 h -0.049 c -22.772,-0.035 -30.72,-14.575 -9.433,-73.402 15.88,-43.925 36.497,-72.022 61.405,-72.022 h 0.033 c 23.688,0.036 29.121,13.904 8.293,71.43 m 73.39,-101.237 C 458.709,92.658 437.391,83.495 407.682,83.465 c -19.409,0 -38.258,4.505 -55.925,12.93 -25.282,12.078 -48.184,32.239 -66.907,58.989 -12.16,17.369 -22.544,37.479 -30.7,59.99 -15.365,42.488 -15.182,76.965 0.538,99.684 8.89,12.833 27.388,28.179 65.044,28.208 h 0.1 c 68.573,0 119.761,-45.377 152.132,-134.878 8.585,-23.7 19.868,-67.886 -0.766,-97.714" />
        <path id="path440" d="m 695.906,87.206 c 4.88,3.903 9.092,8.352 12.604,13.449 8.962,13.062 12.404,28.596 10.365,46.392 h 45.949 l -69.277,192.239 h 69.211 l 69.294,-192.239 h 88.902 L 944.52,87.207 H 695.906 Z" style="fill:#ee7f00" />
    </g>
</svg>
