<!DOCTYPE svg PUBLIC "-//W3C//DTD SVG 20010904//EN" "http://www.w3.org/TR/2001/REC-SVG-20010904/DTD/svg10.dtd">
<svg version="1.0" xmlns="http://www.w3.org/2000/svg" width="657px" height="244px" viewBox="0 0 6570 2440" preserveAspectRatio="xMidYMid meet">
<g id="layer101" fill="#211c7f" stroke="none">
 <path d="M0 1220 l0 -1220 3285 0 3285 0 0 1220 0 1220 -3285 0 -3285 0 0 -1220z"/>
 </g>
<g id="layer102" fill="#302c89" stroke="none">
 <path d="M0 1220 l0 -1220 3285 0 3285 0 0 1220 0 1220 -3285 0 -3285 0 0 -1220z m855 1010 c3 -6 -4 -10 -17 -10 -18 0 -20 2 -8 10 19 12 18 12 25 0z m535 -6 c0 -2 -12 -4 -26 -4 -14 0 -23 4 -20 9 6 8 46 4 46 -5z m-600 -15 c-42 -12 -57 -9 -25 5 17 7 34 11 40 8 5 -4 -1 -9 -15 -13z m681 -2 c29 -5 91 -28 87 -32 -2 -2 -38 7 -81 19 -42 12 -74 25 -71 29 4 3 14 2 24 -3 9 -5 27 -11 41 -13z m1134 13 c4 -7 -85 -10 -260 -10 -175 0 -264 3 -260 10 4 6 102 10 260 10 158 0 256 -4 260 -10z m3425 0 c0 -6 -100 -10 -280 -10 -180 0 -280 4 -280 10 0 6 100 10 280 10 180 0 280 -4 280 -10z m-5303 -27 c-4 -3 -10 -3 -14 0 -3 4 0 7 7 7 7 0 10 -3 7 -7z m-47 -18 c-14 -8 -29 -14 -35 -14 -5 0 1 6 15 14 14 8 30 14 35 14 6 0 -1 -6 -15 -14z m915 -15 c3 -6 -1 -7 -9 -4 -18 7 -21 14 -7 14 6 0 13 -4 16 -10z m-965 -4 c0 -2 -12 -11 -27 -20 l-28 -17 24 20 c23 21 31 25 31 17z m-110 -90 c0 -3 -5 -8 -12 -12 -7 -4 -8 -3 -4 4 7 12 16 16 16 8z m1292 -68 c46 -58 28 -45 -27 20 -27 31 -39 48 -26 37 13 -11 37 -37 53 -57z m-1353 -10 c-39 -52 -55 -69 -44 -48 13 23 66 90 72 90 2 0 -10 -19 -28 -42z m778 -75 c-4 -3 -10 -3 -14 0 -3 4 0 7 7 7 7 0 10 -3 7 -7z m-242 -31 c-29 -24 -85 -62 -85 -58 0 7 80 66 89 66 3 0 1 -4 -4 -8z m360 -34 c19 -22 19 -22 -10 2 -48 40 -51 43 -30 32 11 -6 29 -21 40 -34z m4315 -268 c0 -95 -4 -161 -10 -165 -7 -4 -10 53 -10 165 0 112 3 169 10 165 6 -4 10 -70 10 -165z m91 83 c13 -16 12 -17 -3 -4 -17 13 -22 21 -14 21 2 0 10 -8 17 -17z m-5408 -30 c-7 -2 -21 -2 -30 0 -10 3 -4 5 12 5 17 0 24 -2 18 -5z m5438 -10 c13 -16 12 -17 -3 -4 -17 13 -22 21 -14 21 2 0 10 -8 17 -17z m34 -43 c10 -11 16 -20 13 -20 -3 0 -13 9 -23 20 -10 11 -16 20 -13 20 3 0 13 -9 23 -20z m30 -40 c3 -5 4 -10 1 -10 -3 0 -8 5 -11 10 -3 6 -4 10 -1 10 3 0 8 -4 11 -10z m-2678 -17 c-4 -3 -10 -3 -14 0 -3 4 0 7 7 7 7 0 10 -3 7 -7z m-1960 -10 c-4 -3 -10 -3 -14 0 -3 4 0 7 7 7 7 0 10 -3 7 -7z m2000 0 c-4 -3 -10 -3 -14 0 -3 4 0 7 7 7 7 0 10 -3 7 -7z m-2030 -10 c-4 -3 -10 -3 -14 0 -3 4 0 7 7 7 7 0 10 -3 7 -7z m2060 0 c-4 -3 -10 -3 -14 0 -3 4 0 7 7 7 7 0 10 -3 7 -7z m-2090 -9 c-3 -3 -12 -4 -19 -1 -8 3 -5 6 6 6 11 1 17 -2 13 -5z m-40 -11 c-4 -3 -10 -3 -14 0 -3 4 0 7 7 7 7 0 10 -3 7 -7z m2180 0 c-4 -3 -10 -3 -14 0 -3 4 0 7 7 7 7 0 10 -3 7 -7z m-2250 -20 c-4 -3 -10 -3 -14 0 -3 4 0 7 7 7 7 0 10 -3 7 -7z m2323 -19 c0 -2 -9 0 -20 6 -11 6 -20 13 -20 16 0 2 9 0 20 -6 11 -6 20 -13 20 -16z m2575 -24 c3 -5 4 -10 1 -10 -3 0 -8 5 -11 10 -3 6 -4 10 -1 10 3 0 8 -4 11 -10z m50 -66 c20 -25 35 -47 33 -49 -2 -3 -21 18 -41 45 -47 63 -42 65 8 4z m-4143 -1 c-11 -16 -33 -39 -48 -53 -15 -14 -8 -1 17 27 48 58 62 69 31 26z m-1152 3 c0 -2 -19 -15 -42 -28 -24 -13 -56 -32 -73 -43 -16 -10 -25 -14 -20 -7 9 10 125 82 132 82 2 0 3 -2 3 -4z m2833 -77 c7 -8 13 -20 14 -25 1 -5 4 -18 8 -29 4 -11 -7 4 -24 34 -17 29 -34 59 -38 65 -9 14 22 -21 40 -45z m-3066 -113 c-44 -67 -47 -70 -31 -36 15 32 42 70 50 70 2 0 -7 -15 -19 -34z m3100 17 c-4 -3 -7 0 -7 7 0 7 3 10 7 7 3 -4 3 -10 0 -14z m-1947 -8 c-14 -8 -29 -14 -35 -14 -5 0 1 6 15 14 14 8 30 14 35 14 6 0 -1 -6 -15 -14z m1400 -40 c19 -19 32 -35 29 -35 -3 0 -20 16 -39 35 -19 19 -32 35 -29 35 3 0 20 -16 39 -35z m557 13 c-3 -8 -6 -5 -6 6 -1 11 2 17 5 13 3 -3 4 -12 1 -19z m-2080 -25 c-4 -3 -10 -3 -14 0 -3 4 0 7 7 7 7 0 10 -3 7 -7z m4543 -1 c0 -5 -12 -19 -27 -33 -20 -17 -23 -18 -10 -3 9 11 17 26 17 32 0 7 5 12 10 12 6 0 10 -4 10 -8z m-2445 -11 c3 -5 1 -12 -5 -16 -5 -3 -10 1 -10 9 0 18 6 21 15 7z m-3178 -38 c-4 -3 -7 0 -7 7 0 7 3 10 7 7 3 -4 3 -10 0 -14z m2662 -62 c1 -38 -11 -16 -15 26 -2 28 0 33 6 18 5 -11 9 -31 9 -44z m2881 9 c-17 -22 -34 -40 -37 -40 -2 0 10 18 27 40 17 22 34 40 37 40 2 0 -10 -18 -27 -40z m-2351 -40 c0 -19 -4 -42 -9 -50 -7 -10 -10 6 -9 55 0 72 17 67 18 -5z m-2442 53 c-4 -3 -10 -3 -14 0 -3 4 0 7 7 7 7 0 10 -3 7 -7z m-37 -7 c0 -11 -19 -15 -25 -6 -3 5 1 10 9 10 9 0 16 -2 16 -4z m-50 -10 c0 -11 -19 -15 -25 -6 -3 5 1 10 9 10 9 0 16 -2 16 -4z m4590 -170 c0 -106 -4 -177 -10 -181 -7 -4 -10 55 -10 169 l0 175 -92 4 -93 3 103 2 102 2 0 -174z m-4630 160 c0 -11 -19 -15 -25 -6 -3 5 1 10 9 10 9 0 16 -2 16 -4z m-41 -9 c-16 -12 -79 -45 -79 -42 0 7 63 45 74 45 5 0 7 -1 5 -3z m2081 -39 c0 -18 -2 -20 -9 -8 -6 8 -7 18 -5 22 9 14 14 9 14 -14z m-1690 -8 c13 -8 12 -10 -2 -10 -10 0 -18 -5 -18 -12 0 -9 -3 -9 -11 -1 -6 6 -8 16 -5 22 9 13 16 14 36 1z m180 -10 c10 -7 -5 -10 -53 -10 -43 0 -66 4 -62 10 8 13 95 13 115 0z m175 -10 c4 -6 -5 -10 -20 -10 -15 0 -24 4 -20 10 3 6 12 10 20 10 8 0 17 -4 20 -10z m-1355 -16 c0 -8 -5 -12 -10 -9 -6 4 -8 11 -5 16 9 14 15 11 15 -7z m967 -21 c-4 -3 -7 0 -7 7 0 7 3 10 7 7 3 -4 3 -10 0 -14z m1703 3 c0 -3 -5 -8 -12 -12 -7 -4 -8 -3 -4 4 7 12 16 16 16 8z m-1195 -35 c3 -5 1 -12 -5 -16 -5 -3 -10 1 -10 9 0 18 6 21 15 7z m1175 6 c0 -2 -10 -12 -22 -23 l-23 -19 19 23 c18 21 26 27 26 19z m547 -19 c-3 -8 -6 -5 -6 6 -1 11 2 17 5 13 3 -3 4 -12 1 -19z m2212 -43 c-23 -30 -44 -55 -46 -55 -3 0 -1 6 4 13 44 59 75 97 79 97 3 0 -14 -25 -37 -55z m-4489 5 c-11 -16 -26 -33 -32 -36 -7 -4 1 9 16 29 34 44 46 50 16 7z m537 -7 c-4 -3 -7 0 -7 7 0 7 3 10 7 7 3 -4 3 -10 0 -14z m1730 -5 c-3 -8 -6 -5 -6 6 -1 11 2 17 5 13 3 -3 4 -12 1 -19z m-2662 -28 c10 -11 16 -20 13 -20 -3 0 -13 9 -23 20 -10 11 -16 20 -13 20 3 0 13 -9 23 -20z m2002 14 c-3 -3 -12 -4 -19 -1 -8 3 -5 6 6 6 11 1 17 -2 13 -5z m-1080 -21 c-4 -3 -7 0 -7 7 0 7 3 10 7 7 3 -4 3 -10 0 -14z m966 10 c-29 -2 -78 -2 -110 0 -32 2 -8 3 52 3 61 0 87 -1 58 -3z m764 -10 c-4 -3 -7 0 -7 7 0 7 3 10 7 7 3 -4 3 -10 0 -14z m-1746 -40 c-12 -20 -14 -14 -5 12 4 9 9 14 11 11 3 -2 0 -13 -6 -23z m1730 0 c-12 -20 -14 -14 -5 12 4 9 9 14 11 11 3 -2 0 -13 -6 -23z m-3082 -71 c15 -24 17 -31 6 -22 -9 7 -25 32 -36 54 -19 41 -17 38 30 -32z m1317 -2 c-36 -54 -42 -51 -8 4 15 24 29 42 31 40 2 -2 -8 -22 -23 -44z m1728 0 c-10 -16 -20 -28 -22 -26 -4 5 28 56 35 56 2 0 -4 -13 -13 -30z m-2889 -140 c3 -5 4 -10 1 -10 -3 0 -8 5 -11 10 -3 6 -4 10 -1 10 3 0 8 -4 11 -10z m2735 -5 c0 -6 -56 -35 -67 -35 -4 1 8 9 27 20 39 22 40 22 40 15z m-2680 -20 c14 -8 21 -14 15 -14 -5 0 -21 6 -35 14 -14 8 -20 14 -15 14 6 0 21 -6 35 -14z m916 0 c-11 -8 -25 -15 -30 -15 -6 1 0 7 14 15 32 19 40 18 16 0z m-856 -25 c8 -5 11 -10 5 -10 -5 0 -17 5 -25 10 -8 5 -10 10 -5 10 6 0 17 -5 25 -10z m2538 5 c-11 -11 -123 -43 -132 -38 -5 4 20 14 55 23 74 20 84 22 77 15z m-1751 -12 c-4 -3 -10 -3 -14 0 -3 4 0 7 7 7 7 0 10 -3 7 -7z m-723 -12 c11 -4 15 -10 10 -13 -5 -2 -20 1 -34 8 -26 14 -8 18 24 5z m693 2 c-4 -3 -10 -3 -14 0 -3 4 0 7 7 7 7 0 10 -3 7 -7z m-27 -7 c0 -11 -19 -15 -25 -6 -3 5 1 10 9 10 9 0 16 -2 16 -4z m-610 -10 c0 -11 -19 -15 -25 -6 -3 5 1 10 9 10 9 0 16 -2 16 -4z m570 0 c0 -11 -19 -15 -25 -6 -3 5 1 10 9 10 9 0 16 -2 16 -4z m1635 -6 c-8 -14 -972 -14 -980 0 -4 7 162 10 490 10 328 0 494 -3 490 -10z m2965 0 c0 -6 -100 -10 -280 -10 -180 0 -280 4 -280 10 0 6 100 10 280 10 180 0 280 -4 280 -10z"/>
 </g>
<g id="layer103" fill="#ff9500" stroke="none">
 <path d="M0 1220 l0 -1220 3285 0 3285 0 0 1220 0 1220 -3285 0 -3285 0 0 -1220z m1389 1009 c280 -53 434 -170 516 -389 26 -68 28 -88 29 -210 1 -132 0 -136 -31 -204 -89 -187 -302 -304 -728 -401 -204 -46 -220 -52 -254 -90 -55 -62 -39 -142 37 -183 62 -35 189 -34 259 1 58 30 101 82 125 152 10 28 23 50 30 49 8 -1 88 -4 178 -8 91 -3 200 -9 243 -12 l77 -7 0 -36 c0 -20 -7 -63 -15 -94 -65 -248 -255 -375 -612 -408 -298 -27 -589 48 -732 189 -160 158 -185 399 -62 590 93 143 236 215 646 327 146 40 203 61 242 91 105 80 79 225 -50 291 -75 38 -189 37 -273 -1 -106 -48 -155 -113 -179 -235 l-7 -33 -234 7 c-128 4 -246 10 -262 14 l-29 6 14 70 c41 198 178 397 323 468 167 81 489 105 749 56z m1233 -331 l3 -333 250 -6 c275 -7 315 -14 440 -74 184 -88 284 -255 288 -480 5 -309 -124 -496 -393 -572 -59 -16 -112 -18 -605 -18 l-540 0 -3 895 c-1 492 0 901 3 908 3 9 69 12 280 12 l275 0 2 -332z m3416 -140 c1 -270 -2 -468 -7 -468 -5 0 -87 105 -182 233 l-174 232 -5 -180 -5 -180 -100 0 -100 0 -3 405 c-1 223 0 411 3 418 3 10 66 12 287 10 l283 -3 3 -467z m0 -985 l-3 -358 -285 0 -285 0 -3 303 -2 302 105 0 105 0 0 -181 0 -182 176 237 c96 130 180 236 185 236 6 0 8 -141 7 -357z"/>
 <path d="M2640 989 l0 -201 133 4 c115 3 138 6 181 27 146 72 141 283 -9 352 -32 15 -65 19 -172 19 l-133 0 0 -201z"/>
 </g>
<g id="layer104" fill="#928c8d" stroke="none">
 <path d="M0 1220 l0 -1220 3285 0 3285 0 0 1220 0 1220 -3285 0 -3285 0 0 -1220z m1389 1009 c280 -53 434 -170 516 -389 26 -68 28 -88 29 -210 1 -132 0 -136 -31 -204 -89 -187 -302 -304 -728 -401 -204 -46 -220 -52 -254 -90 -55 -62 -39 -142 37 -183 62 -35 189 -34 259 1 58 30 101 82 125 152 10 28 23 50 30 49 8 -1 88 -4 178 -8 91 -3 200 -9 243 -12 l77 -7 0 -36 c0 -20 -7 -63 -15 -94 -65 -248 -255 -375 -612 -408 -298 -27 -589 48 -732 189 -160 158 -185 399 -62 590 93 143 236 215 646 327 146 40 203 61 242 91 105 80 79 225 -50 291 -75 38 -189 37 -273 -1 -106 -48 -155 -113 -179 -235 l-7 -33 -234 7 c-128 4 -246 10 -262 14 l-29 6 14 70 c41 198 178 397 323 468 167 81 489 105 749 56z m1233 -331 l3 -333 250 -6 c275 -7 315 -14 440 -74 184 -88 284 -255 288 -480 5 -309 -124 -496 -393 -572 -59 -16 -112 -18 -605 -18 l-540 0 -3 895 c-1 492 0 901 3 908 3 9 69 12 280 12 l275 0 2 -332z m2646 130 l-3 -203 -480 -5 -480 -5 -3 -205 -2 -205 437 0 438 0 0 -175 0 -175 -438 -3 -438 -2 3 -98 3 -97 470 -5 470 -5 0 -210 0 -210 -750 0 -750 0 -3 890 c-1 490 0 896 3 903 3 9 166 12 765 12 l760 0 -2 -202z m770 -270 c1 -270 -2 -468 -7 -468 -5 0 -87 105 -182 233 l-174 232 -5 -180 -5 -180 -100 0 -100 0 -3 405 c-1 223 0 411 3 418 3 10 66 12 287 10 l283 -3 3 -467z m0 -985 l-3 -358 -285 0 -285 0 -3 303 -2 302 105 0 105 0 0 -181 0 -182 176 237 c96 130 180 236 185 236 6 0 8 -141 7 -357z"/>
 <path d="M2640 989 l0 -201 133 4 c115 3 138 6 181 27 146 72 141 283 -9 352 -32 15 -65 19 -172 19 l-133 0 0 -201z"/>
 </g>
<g id="layer105" fill="#ffa728" stroke="none">
 <path d="M0 1220 l0 -1220 3285 0 3285 0 0 1220 0 1220 -3285 0 -3285 0 0 -1220z m1389 1009 c280 -53 434 -170 516 -389 26 -68 28 -88 29 -210 1 -132 0 -136 -31 -204 -89 -187 -302 -304 -728 -401 -204 -46 -220 -52 -254 -90 -55 -62 -39 -142 37 -183 62 -35 189 -34 259 1 58 30 101 82 125 152 10 28 23 50 30 49 8 -1 88 -4 178 -8 91 -3 200 -9 243 -12 l77 -7 0 -36 c0 -20 -7 -63 -15 -94 -65 -248 -255 -375 -612 -408 -298 -27 -589 48 -732 189 -160 158 -185 399 -62 590 93 143 236 215 646 327 146 40 203 61 242 91 105 80 79 225 -50 291 -75 38 -189 37 -273 -1 -106 -48 -155 -113 -179 -235 l-7 -33 -234 7 c-128 4 -246 10 -262 14 l-29 6 14 70 c41 198 178 397 323 468 167 81 489 105 749 56z m1233 -331 l3 -333 250 -6 c275 -7 315 -14 440 -74 184 -88 284 -255 288 -480 5 -309 -124 -496 -393 -572 -59 -16 -112 -18 -605 -18 l-540 0 -3 895 c-1 492 0 901 3 908 3 9 69 12 280 12 l275 0 2 -332z m2646 130 l-3 -203 -480 -5 -480 -5 -3 -205 -2 -205 437 0 438 0 0 -175 0 -175 -438 -3 -438 -2 3 -98 3 -97 470 -5 470 -5 0 -210 0 -210 -750 0 -750 0 -3 890 c-1 490 0 896 3 903 3 9 166 12 765 12 l760 0 -2 -202z m770 -270 c1 -270 -2 -468 -7 -468 -5 0 -87 105 -182 233 l-174 232 -5 -180 -5 -180 -100 0 -100 0 -3 405 c-1 223 0 411 3 418 3 10 66 12 287 10 l283 -3 3 -467z m0 -985 l-3 -358 -285 0 -285 0 -3 303 -2 302 105 0 105 0 0 -181 0 -182 176 237 c96 130 180 236 185 236 6 0 8 -141 7 -357z m327 -134 c48 -18 73 -89 55 -155 -10 -36 -20 -48 -49 -61 -41 -20 -97 -21 -130 -4 -29 16 -61 69 -61 102 0 99 85 154 185 118z"/>
 <path d="M2640 989 l0 -201 133 4 c115 3 138 6 181 27 146 72 141 283 -9 352 -32 15 -65 19 -172 19 l-133 0 0 -201z"/>
 <path d="M6230 611 c-16 -16 -32 -40 -36 -55 -9 -38 3 -74 36 -107 56 -57 154 -32 180 46 25 75 -27 145 -107 145 -36 0 -50 -6 -73 -29z m33 -41 c-9 -33 26 -38 53 -7 29 34 41 35 19 1 -15 -24 -16 -26 0 -38 10 -7 16 -21 13 -32 -2 -15 -13 -20 -51 -22 l-47 -3 0 60 c0 34 4 61 9 61 5 0 7 -9 4 -20z"/>
 <path d="M6264 515 c-9 -22 4 -35 36 -35 30 0 45 21 27 39 -16 16 -57 14 -63 -4z"/>
 </g>
<g id="layer106" fill="#a19c9d" stroke="none">
 <path d="M0 1220 l0 -1220 3285 0 3285 0 0 1220 0 1220 -3285 0 -3285 0 0 -1220z m1389 1009 c280 -53 434 -170 516 -389 26 -68 28 -88 29 -210 1 -132 0 -136 -31 -204 -89 -187 -302 -304 -728 -401 -204 -46 -220 -52 -254 -90 -55 -62 -39 -142 37 -183 62 -35 189 -34 259 1 58 30 101 82 125 152 10 28 23 50 30 49 8 -1 88 -4 178 -8 91 -3 200 -9 243 -12 l77 -7 0 -36 c0 -20 -7 -63 -15 -94 -65 -248 -255 -375 -612 -408 -298 -27 -589 48 -732 189 -160 158 -185 399 -62 590 93 143 236 215 646 327 146 40 203 61 242 91 105 80 79 225 -50 291 -75 38 -189 37 -273 -1 -106 -48 -155 -113 -179 -235 l-7 -33 -234 7 c-128 4 -246 10 -262 14 l-29 6 14 70 c41 198 178 397 323 468 167 81 489 105 749 56z m1233 -331 l3 -333 250 -6 c275 -7 315 -14 440 -74 184 -88 284 -255 288 -480 5 -309 -124 -496 -393 -572 -59 -16 -112 -18 -605 -18 l-540 0 -3 895 c-1 492 0 901 3 908 3 9 69 12 280 12 l275 0 2 -332z m2648 127 l0 -205 -482 -2 -483 -3 -3 -202 -2 -203 437 -2 438 -3 3 -182 2 -183 -437 -2 -438 -3 0 -85 0 -85 473 -3 472 -2 -2 -223 -3 -222 -752 -3 -753 -2 0 903 c0 497 3 907 7 910 3 4 348 7 765 7 l758 0 0 -205z m768 -267 c1 -270 -2 -468 -7 -468 -5 0 -87 105 -182 233 l-174 232 -5 -180 -5 -180 -100 0 -100 0 -3 405 c-1 223 0 411 3 418 3 10 66 12 287 10 l283 -3 3 -467z m0 -985 l-3 -358 -285 0 -285 0 -3 303 -2 302 105 0 105 0 0 -181 0 -182 176 237 c96 130 180 236 185 236 6 0 8 -141 7 -357z m327 -134 c48 -18 73 -89 55 -155 -10 -36 -20 -48 -49 -61 -41 -20 -97 -21 -130 -4 -29 16 -61 69 -61 102 0 99 85 154 185 118z"/>
 <path d="M2640 989 l0 -201 133 4 c115 3 138 6 181 27 146 72 141 283 -9 352 -32 15 -65 19 -172 19 l-133 0 0 -201z"/>
 <path d="M6230 611 c-16 -16 -32 -40 -36 -55 -9 -38 3 -74 36 -107 56 -57 154 -32 180 46 25 75 -27 145 -107 145 -36 0 -50 -6 -73 -29z m33 -41 c-9 -33 26 -38 53 -7 29 34 41 35 19 1 -15 -24 -16 -26 0 -38 10 -7 16 -21 13 -32 -2 -15 -13 -20 -51 -22 l-47 -3 0 60 c0 34 4 61 9 61 5 0 7 -9 4 -20z"/>
 <path d="M6264 515 c-9 -22 4 -35 36 -35 30 0 45 21 27 39 -16 16 -57 14 -63 -4z"/>
 </g>
<g id="layer107" fill="#afaeaf" stroke="none">
 <path d="M0 1220 l0 -1220 3285 0 3285 0 0 1220 0 1220 -3285 0 -3285 0 0 -1220z m1389 1009 c280 -53 434 -170 516 -389 26 -68 28 -88 29 -210 1 -132 0 -136 -31 -204 -89 -187 -302 -304 -728 -401 -204 -46 -220 -52 -254 -90 -55 -62 -39 -142 37 -183 62 -35 189 -34 259 1 58 30 101 82 125 152 10 28 23 50 30 49 8 -1 88 -4 178 -8 91 -3 200 -9 243 -12 l77 -7 0 -36 c0 -20 -7 -63 -15 -94 -65 -248 -255 -375 -612 -408 -298 -27 -589 48 -732 189 -160 158 -185 399 -62 590 93 143 236 215 646 327 146 40 203 61 242 91 105 80 79 225 -50 291 -75 38 -189 37 -273 -1 -106 -48 -155 -113 -179 -235 l-7 -33 -234 7 c-128 4 -246 10 -262 14 l-29 6 14 70 c41 198 178 397 323 468 167 81 489 105 749 56z m1233 -331 l3 -333 250 -6 c275 -7 315 -14 440 -74 184 -88 284 -255 288 -480 5 -309 -124 -496 -393 -572 -59 -16 -112 -18 -605 -18 l-540 0 -3 895 c-1 492 0 901 3 908 3 9 69 12 280 12 l275 0 2 -332z m2648 127 l0 -205 -482 -2 -483 -3 -3 -202 -2 -203 437 -2 438 -3 3 -182 2 -183 -437 -2 -438 -3 0 -85 0 -85 473 -3 472 -2 -2 -223 -3 -222 -752 -3 -753 -2 0 903 c0 497 3 907 7 910 3 4 348 7 765 7 l758 0 0 -205z m768 -267 c1 -270 -2 -468 -7 -468 -5 0 -87 105 -182 233 l-174 232 -5 -180 -5 -180 -100 0 -100 0 -3 405 c-1 223 0 411 3 418 3 10 66 12 287 10 l283 -3 3 -467z m0 -985 l-3 -358 -285 0 -285 0 -3 303 -2 302 105 0 105 0 0 -181 0 -182 176 237 c96 130 180 236 185 236 6 0 8 -141 7 -357z m320 -128 c91 -37 96 -185 7 -228 -48 -23 -85 -21 -126 6 -46 31 -61 62 -56 120 5 52 25 82 72 103 39 17 57 17 103 -1z"/>
 <path d="M2640 989 l0 -201 133 4 c115 3 138 6 181 27 146 72 141 283 -9 352 -32 15 -65 19 -172 19 l-133 0 0 -201z"/>
 <path d="M6249 625 c-25 -13 -59 -69 -59 -95 0 -28 35 -82 61 -95 58 -30 127 -9 150 46 42 103 -57 196 -152 144z m21 -55 c0 -19 5 -30 14 -30 8 0 24 14 36 30 29 41 47 38 21 -4 -18 -29 -19 -35 -6 -40 22 -8 18 -43 -5 -56 -11 -6 -35 -9 -51 -8 -31 4 -31 4 -31 66 1 77 0 72 12 72 6 0 10 -13 10 -30z"/>
 <path d="M6277 523 c-13 -12 -7 -43 7 -43 25 0 46 12 46 25 0 19 -39 32 -53 18z"/>
 </g>
<g id="layer108" fill="#d8d7e9" stroke="none">
 <path d="M0 1220 l0 -1220 3285 0 3285 0 0 1220 0 1220 -3285 0 -3285 0 0 -1220z m1389 1009 c280 -53 434 -170 516 -389 26 -68 28 -88 29 -210 1 -132 0 -136 -31 -204 -89 -187 -302 -304 -728 -401 -204 -46 -220 -52 -254 -90 -55 -62 -39 -142 37 -183 62 -35 189 -34 259 1 58 30 101 82 125 152 10 28 23 50 30 49 8 -1 88 -4 178 -8 91 -3 200 -9 243 -12 l77 -7 0 -36 c0 -20 -7 -63 -15 -94 -65 -248 -255 -375 -612 -408 -298 -27 -589 48 -732 189 -160 158 -185 399 -62 590 93 143 236 215 646 327 146 40 203 61 242 91 105 80 79 225 -50 291 -75 38 -189 37 -273 -1 -106 -48 -155 -113 -179 -235 l-7 -33 -234 7 c-128 4 -246 10 -262 14 l-29 6 14 70 c41 198 178 397 323 468 167 81 489 105 749 56z m1233 -331 l3 -333 250 -6 c275 -7 315 -14 440 -74 184 -88 284 -255 288 -480 5 -309 -124 -496 -393 -572 -59 -16 -112 -18 -605 -18 l-540 0 -3 895 c-1 492 0 901 3 908 3 9 69 12 280 12 l275 0 2 -332z m2648 127 l0 -205 -482 -2 -483 -3 -3 -202 -2 -203 437 -2 438 -3 3 -182 2 -183 -437 -2 -438 -3 0 -85 0 -85 473 -3 472 -2 -2 -223 -3 -222 -752 -3 -753 -2 0 903 c0 497 3 907 7 910 3 4 348 7 765 7 l758 0 0 -205z m768 -267 c1 -270 -2 -468 -7 -468 -5 0 -87 105 -182 233 l-174 232 -5 -180 -5 -180 -100 0 -100 0 -3 405 c-1 223 0 411 3 418 3 10 66 12 287 10 l283 -3 3 -467z m0 -985 l-3 -358 -285 0 -285 0 -3 303 -2 302 105 0 105 0 0 -181 0 -182 176 237 c96 130 180 236 185 236 6 0 8 -141 7 -357z m330 -129 c44 -26 66 -63 66 -113 0 -55 -23 -93 -69 -115 -76 -36 -151 -8 -180 68 -17 43 -17 48 -1 90 29 76 118 110 184 70z"/>
 <path d="M2640 989 l0 -201 133 4 c115 3 138 6 181 27 146 72 141 283 -9 352 -32 15 -65 19 -172 19 l-133 0 0 -201z"/>
 <path d="M6273 633 c-12 -2 -34 -18 -48 -34 -36 -43 -34 -98 3 -141 42 -46 112 -46 154 0 71 81 -1 196 -109 175z m-3 -63 c0 -16 4 -30 10 -30 5 0 19 14 32 30 35 47 65 39 32 -9 -16 -22 -16 -24 0 -33 20 -11 21 -41 2 -57 -8 -7 -33 -11 -56 -9 l-42 3 0 63 c1 77 0 72 12 72 6 0 10 -13 10 -30z"/>
 <path d="M6272 503 c4 -20 27 -27 47 -14 19 12 4 31 -25 31 -19 0 -25 -5 -22 -17z"/>
 </g>
<g id="layer109" fill="#ffffff" stroke="none">
 <path d="M0 1220 l0 -1220 3285 0 3285 0 0 1220 0 1220 -3285 0 -3285 0 0 -1220z m1330 1029 c14 0 30 -5 37 -11 7 -5 17 -7 23 -3 6 4 17 1 25 -5 8 -6 19 -9 24 -5 6 3 31 -3 55 -15 25 -11 53 -20 63 -20 11 0 23 -4 29 -9 5 -5 37 -23 72 -41 34 -18 62 -36 62 -41 0 -5 5 -9 10 -9 12 0 90 -77 90 -89 0 -5 6 -11 13 -14 15 -6 79 -132 82 -162 0 -5 4 -16 8 -23 27 -42 24 -319 -3 -346 -6 -6 -10 -18 -10 -27 0 -10 -11 -31 -25 -47 -14 -17 -25 -33 -25 -36 0 -15 -123 -126 -162 -145 -24 -12 -54 -28 -68 -36 -74 -41 -204 -84 -395 -129 -38 -9 -106 -25 -150 -36 -158 -37 -185 -58 -186 -146 -1 -51 2 -61 25 -81 15 -13 35 -23 45 -23 10 0 21 -3 24 -6 6 -6 63 -16 97 -16 78 -1 178 44 206 92 8 14 25 50 38 80 l24 55 73 -2 c41 -1 124 -4 184 -8 61 -3 144 -7 185 -8 l74 -3 -1 -35 c-1 -49 -11 -106 -24 -148 -14 -43 -56 -122 -72 -136 -7 -6 -17 -19 -23 -30 -21 -40 -212 -153 -267 -159 -12 -1 -28 -5 -34 -9 -10 -6 -40 -12 -123 -24 -51 -7 -369 -7 -410 1 -19 3 -43 6 -52 7 -10 0 -20 5 -23 10 -4 5 -11 7 -16 4 -5 -4 -14 -3 -21 1 -7 4 -22 9 -35 10 -25 3 -199 88 -223 109 -140 126 -181 215 -176 378 2 50 6 106 9 123 8 44 44 118 74 154 7 8 24 30 39 48 14 17 30 32 36 32 6 0 28 14 49 31 47 37 182 104 226 112 18 4 53 16 78 27 25 11 50 18 55 15 5 -3 11 -1 15 5 3 5 19 10 35 10 16 0 32 5 35 10 4 6 12 10 18 9 7 -1 25 3 41 10 16 6 31 9 34 6 3 -2 10 -1 16 3 6 5 52 21 101 37 108 34 148 68 158 132 11 69 -26 158 -76 185 -45 24 -161 49 -191 41 -17 -4 -35 -8 -41 -9 -5 0 -23 -6 -38 -12 -16 -7 -32 -12 -38 -12 -21 0 -106 -72 -126 -107 -20 -37 -46 -113 -47 -143 -1 -12 -18 -14 -91 -13 -192 3 -362 10 -401 17 -38 8 -40 10 -37 40 2 17 4 39 4 48 0 10 4 20 10 23 5 4 9 18 9 32 0 38 76 202 98 210 6 3 12 10 12 16 0 12 10 24 82 97 56 57 187 131 237 134 15 1 32 5 39 9 6 5 16 6 21 2 5 -3 13 0 17 6 3 6 18 9 33 6 15 -3 32 -2 38 1 10 6 247 6 423 1z m1290 -349 c0 -256 3 -332 13 -335 6 -2 120 -6 252 -8 294 -5 302 -6 416 -61 84 -42 112 -61 168 -117 46 -46 107 -153 117 -204 1 -5 3 -12 4 -15 13 -27 20 -299 8 -306 -5 -3 -6 -14 -3 -24 3 -10 1 -21 -5 -25 -6 -3 -8 -11 -4 -16 3 -5 -2 -23 -10 -41 -9 -17 -16 -35 -16 -40 0 -5 -11 -24 -25 -42 -14 -18 -25 -37 -25 -41 0 -10 -37 -51 -91 -101 -22 -20 -129 -74 -148 -74 -9 0 -29 -7 -45 -15 -15 -8 -32 -12 -37 -9 -6 3 -15 2 -22 -4 -19 -14 -66 -16 -597 -16 l-505 -1 -3 900 c-1 495 0 906 3 913 3 9 69 12 280 12 l275 0 0 -330z m2650 125 l0 -205 -482 -2 -483 -3 -3 -202 -2 -203 437 -2 438 -3 3 -182 2 -183 -437 -2 -438 -3 0 -85 0 -85 473 -3 472 -2 -2 -223 -3 -222 -752 -3 -753 -2 0 903 c0 497 3 907 7 910 3 4 348 7 765 7 l758 0 0 -205z m770 -273 c3 -261 2 -476 -1 -478 -4 -2 -19 14 -33 37 -15 22 -36 48 -46 57 -11 9 -20 22 -20 28 0 7 -7 14 -15 18 -8 3 -15 12 -15 20 0 7 -7 16 -15 20 -8 3 -15 11 -15 17 0 10 -35 56 -75 100 -8 9 -15 20 -15 26 0 6 -7 13 -15 17 -8 3 -15 12 -15 20 0 7 -7 16 -15 20 -8 3 -15 10 -15 15 0 5 -14 25 -30 43 l-31 33 2 -175 1 -175 -104 0 -103 0 -3 405 c-1 223 0 411 3 418 3 10 66 12 287 10 l283 -3 5 -473z m0 -979 l-5 -368 -285 0 -285 0 -3 308 -2 307 100 0 c55 0 103 0 106 0 3 0 5 -78 5 -173 l-2 -172 31 33 c16 18 30 35 30 37 0 4 123 167 205 271 22 29 53 70 68 93 16 23 32 39 35 37 4 -2 5 -170 2 -373z m337 -128 c35 -23 63 -75 63 -116 0 -53 -48 -115 -99 -129 -52 -14 -81 -6 -128 35 -36 31 -38 36 -38 93 0 51 4 65 25 87 50 55 120 67 177 30z"/>
 <path d="M2640 990 l0 -200 119 0 c71 0 122 4 126 10 4 6 12 10 18 9 7 -1 33 8 59 20 76 35 98 88 89 222 -2 24 -71 109 -90 109 -9 0 -29 7 -45 15 -21 11 -62 15 -152 15 l-124 0 0 -200z"/>
 <path d="M6265 622 c-43 -27 -57 -47 -58 -86 -1 -49 19 -81 63 -101 31 -14 42 -15 61 -5 52 27 69 51 69 100 0 48 -17 73 -67 99 -29 15 -33 14 -68 -7z m12 -36 c-3 -7 -1 -19 4 -27 8 -12 12 -11 24 6 28 38 35 44 50 39 13 -5 13 -10 -2 -35 -13 -23 -15 -31 -5 -41 7 -7 12 -22 12 -35 0 -27 -37 -46 -83 -41 l-30 3 -1 73 c-1 67 6 87 27 75 5 -3 6 -11 4 -17z"/>
 <path d="M6280 506 c0 -17 27 -29 35 -16 4 6 3 15 0 20 -9 15 -35 12 -35 -4z"/>
 </g>

</svg>