<svg xmlns="http://www.w3.org/2000/svg" viewBox="0 0 1573.81 1224.89"><title>waitTime</title><path d="M452.02 158.42a85.56 85.56 0 0 1-80.11-109.27 151 151 0 0 0-151 8 152.11 152.11 0 0 0-43.5 43.24 150.87 150.87 0 0 0 .15 166.47 152.08 152.08 0 0 0 47.09 45.38 151 151 0 0 0 156.72.33 152 152 0 0 0 51.46-51.8 150.12 150.12 0 0 0 21.28-77.26 151.8 151.8 0 0 0-2.09-25.09z" fill="#74dcfc"/><path d="M452.07 158.42a151 151 0 1 1-80.16-109.29 85.05 85.05 0 0 1 6.38-15.89 166.92 166.92 0 0 0-75-17.71c-92.62 0-168 75.34-168 168s75.34 168 168 168 168-75.34 168-168a168.53 168.53 0 0 0-2.07-26.36 85.73 85.73 0 0 1-15 1.34c-.74-.03-1.49-.07-2.15-.09z" fill="#004f81"/><path d="M1092.73 515.89c20.92 71.18 136.17 73.94 161.57 3.87l1.4-3.87 1 .21c-8-6.63-16.39-24.4-11.19-71.51l1.16-28.12c30.5-22.76 60.58-62.85 75.66-132.15 0 0 21.68-187.78-70.83-213.91-239.45-67.63-210.77 158.42-210.77 158.42 0 78.51 29.21 147.44 66.55 185.19l.66 64.6s2.12 15.49-17.1 37.62l1.86-.36z" fill="#c8d7e2"/><path d="M1552.6 882.68c-16.88-178.17-131.43-332-295.9-366.58l-1-.21-1.4 3.87c-25.4 70.08-140.65 67.32-161.57-3.87l-1.86.36c-146.93 27.47-252.24 180.17-252.24 371.31l-.33 47h58.88a118 118 0 0 1 85.56 36.59 41 41 0 0 1 11.32 30.8l-5.32 87.93-151.41-16.53-.18 24.88h721.65s18.09 40.94-6.2-215.55z" fill="#74dcfc"/><path d="M1044.9 188.76c3 28 3.5 55.87 7.65 83.44 3.85 27.53 10 54.78 20.05 80.35 10 25.4 24.33 49.6 45.34 65.67a88.44 88.44 0 0 0 35.23 16.21 108.1 108.1 0 0 0 39.3.23 119.85 119.85 0 0 0 37.39-13.43 148.73 148.73 0 0 0 31.82-24.61c19-19.33 33.38-43.27 44.12-68.59 21.21-51.12 29.19-107 33.08-163a2.14 2.14 0 0 1 4.27 0 412.44 412.44 0 0 1-3 85.16 428.85 428.85 0 0 1-8.4 42.08 327 327 0 0 1-13.84 40.81c-11.07 26.54-26 52-46.46 73.07a162.44 162.44 0 0 1-34.71 27.17 133.92 133.92 0 0 1-41.73 15.28c-14.65 2.53-29.86 3-44.76-.12a102.77 102.77 0 0 1-40.85-19.07c-24-18.66-39-45.13-49.41-71.93-10.39-27-16.54-55.23-20.33-83.51-3.62-28.29-6.1-56.84-3.25-85.23a4.29 4.29 0 0 1 8.53 0z" fill="#004f81"/><path d="M1256.38 165.77c14.82 27.76 14 71.37 11 101.49a46.3 46.3 0 0 0 28.37 47.32l21.23 11.13c22.19-51.26 41.3-106.59 39-154a904.92 904.92 0 0 1-99.6-5.94z" fill="#004f81"/><path d="M720.83 899.16l-17.7-309.21a71.66 71.66 0 0 0-71.48-67.5H144.21a71.59 71.59 0 0 0-71.48 75.69l17.7 309.24a71.64 71.64 0 0 0 71.48 67.51h121.32v-17.07H161.91a54.57 54.57 0 0 1-54.45-51.42L89.73 597.13a54.53 54.53 0 0 1 54.45-57.65h487.44a54.58 54.58 0 0 1 54.45 51.41l17.69 309.25a54.53 54.53 0 0 1-54.44 57.64H501.23v17.07h148.12a71.59 71.59 0 0 0 71.48-75.68z" fill="#c8d7e2"/><path d="M498.73 1106.76H286.35a8.53 8.53 0 0 1-8.53-8.53V808.95a29.77 29.77 0 0 1 29.73-29.73h191.18a8.53 8.53 0 0 1 8.53 8.53v310.48a8.53 8.53 0 0 1-8.53 8.53zm-203.81-17.07H490.2v-293.4H307.55a12.68 12.68 0 0 0-12.67 12.67z" fill="#c8d7e2"/><path d="M989.59 1111.56H622.13v-26.74c0-22 23.6-39.19 50.69-36.87l316.78 24.75z" fill="#c2f4ff"/><path d="M807.36 1047.26c-9.13-5.52-18-11.39-26.63-17.55s-17.21-12.42-25.69-18.79l2.44.88c-16-.68-32-1.12-47.92-2l-47.89-2.63 3-7.43c12.82 11.61 25.66 23.2 38 35.35a2.85 2.85 0 0 1-3.76 4.27c-13.61-10.71-26.73-22-39.86-33.24a4.23 4.23 0 0 1 2.89-7.44h.11l47.93 1.86c16 .62 31.93 1.68 47.9 2.49a4.42 4.42 0 0 1 2.44.88c8.44 6.43 16.85 12.9 25.07 19.61s16.34 13.57 24.13 20.85a1.81 1.81 0 0 1-2.18 2.87zm-94.86-81.93a193.56 193.56 0 0 1 24.06-1.08c8-.1 16 .48 24 .68q24 .72 47.91 2.24h.11a4.4 4.4 0 0 1 3.76 2.65c9.46 21.95 19.14 43.8 27.44 66.26a2.85 2.85 0 0 1-5.21 2.29c-11-21.28-20.57-43.17-30.38-65l3.87 2.65q-24-.71-47.91-2.25c-8-.54-16-.72-23.94-1.56a193.56 193.56 0 0 1-23.85-3.33 1.82 1.82 0 0 1 .17-3.6zm158-11.98c1.71 7 1.86 14 1.76 21s-.21 13.94-.47 20.9l-1.17 20.87a145.6 145.6 0 0 1-2.29 20.83 2.88 2.88 0 0 1-5.69-.22 145.62 145.62 0 0 1-.69-20.94l.44-20.9c.27-7 .61-13.92 1.13-20.87s1.12-13.9 3.36-20.79a1.87 1.87 0 0 1 3.6.14zm59.46 13.13c-1.21 6.82-3.81 12.93-6.64 18.94s-5.66 12-8.63 17.94l-9.25 17.63a132 132 0 0 1-10.26 17.12 2.89 2.89 0 0 1-5.09-2.55 132.1 132.1 0 0 1 7.6-18.46l8.6-18c3-5.93 6-11.82 9.23-17.64s6.48-11.6 11.22-16.64a1.88 1.88 0 0 1 2.66-.08 1.9 1.9 0 0 1 .56 1.74zm-20.12 77.05c4.09-6 9.19-10.89 14.45-15.55s10.52-9.31 15.89-13.84l16.34-13.31a147.73 147.73 0 0 1 17.06-12.46 2.88 2.88 0 0 1 3.67 4.35 147.72 147.72 0 0 1-15.14 14.73l-15.86 13.87c-5.37 4.53-10.79 9-16.31 13.34s-11.11 8.61-17.75 11.63a1.87 1.87 0 0 1-2.33-2.75zm655.43 181.36a8.53 8.53 0 0 1-8.53-8.53v-105.1H17.06v105.1a8.535 8.535 0 1 1-17.07 0v-113.64a8.53 8.53 0 0 1 8.53-8.53h1556.75a8.53 8.53 0 0 1 8.53 8.53v113.63a8.53 8.53 0 0 1-8.53 8.54z" fill="#c8d7e2"/><path d="M1157.62 260.05a183.24 183.24 0 0 1 3.17 30.84c.1 5.14.14 10.28-.17 15.42a125.1 125.1 0 0 1-1.56 15.42 4.72 4.72 0 0 1-9.29 0 125.51 125.51 0 0 1-1.56-15.42c-.31-5.14-.27-10.28-.17-15.42a183.46 183.46 0 0 1 3.17-30.84 3.27 3.27 0 0 1 6.4 0z" fill="#004f81"/><rect x="1084.82" y="251.23" width="22.18" height="39.59" rx="1.3" ry="1.3" fill="#004f84"/><rect x="1199.31" y="251.23" width="22.18" height="39.59" rx="1.3" ry="1.3" fill="#004f84"/><path d="M1156.85 388.87c-11.66 0-22.64-4.84-28.34-12.58a6.402 6.402 0 1 1 10.32-7.58c3.48 4.72 11.17 7.73 19.23 7.34 7.18-.3 12.92-3.09 15.73-7.68a6.403 6.403 0 1 1 10.9 6.72c-5.08 8.26-14.6 13.27-26.11 13.74-.58.02-1.16.04-1.73.04zm44.88-190.15c4.72-3.57 9.44-4.07 13.89-4.51a45.38 45.38 0 0 1 13.09 1.26c4.2 1.12 8.45 2.29 12.36 4.53a29 29 0 0 1 10.59 9 4.3 4.3 0 0 1-5.85 6l-.45-.29a45.39 45.39 0 0 0-9.05-4.21 86.44 86.44 0 0 0-10.3-2.74c-3.53-.63-7.07-1.27-10.55-1.6a46.87 46.87 0 0 0-9.31-.23l-1.63.12a4.13 4.13 0 0 1-4.42-3.82 4.18 4.18 0 0 1 1.63-3.51zm-96 7.3a46.87 46.87 0 0 0-9.31.23c-3.48.34-7 1-10.55 1.6a86.37 86.37 0 0 0-10.31 2.74 45.45 45.45 0 0 0-9.05 4.21l-.45.28a4.3 4.3 0 0 1-5.85-6 29 29 0 0 1 10.59-9c3.91-2.24 8.16-3.41 12.36-4.53a45.35 45.35 0 0 1 13.09-1.26c4.45.44 9.17.94 13.89 4.51a4.13 4.13 0 0 1-2.77 7.42z" fill="#004f81"/><path d="M1015.11 136.18c25.53-173.79 341-167.83 341 33.72" fill="#00a9de"/><path d="M1369.37 171.12c-35.73-4.19-71.53-7.52-107.32-10.92l-61.39-5.6a1.79 1.79 0 0 0-.93-1.19 538.75 538.75 0 0 0-63.8-27.49c-21.85-7.81-44.08-14.81-66.93-19.82-22.87-4.63-46.49-7.52-70.24-4.87a100.82 100.82 0 0 0-34.47 9.87 74.6 74.6 0 0 0-27.24 23.36 2.84 2.84 0 0 0 4.15 3.81c35 4.94 70.06 8.44 105.17 11.68l107.42 9.81 107.48 9.08c35.84 2.89 71.67 5.86 107.58 8a2.85 2.85 0 0 0 .5-5.67z" fill="#74dcfc"/><path d="M1343.22 777.18c4.21 12.74 4.25 25.85 5.79 38.83l3.8 39c2.46 26 5.25 52 7.43 78 2.39 26 4.48 52.07 6.51 78.12s4.08 52.1 2.62 78.47a2.16 2.16 0 0 1-4.25.39c-6.17-25.68-9-51.66-11.52-77.66s-5.3-52-7.63-78c-2.53-26-4.46-52.07-6.71-78.1l-3.27-39.06c-.82-13-3.13-26-1.28-39.24a4.38 4.38 0 0 1 8.5-.77zm-380.56 26.87c3.46-3.1 7-2 10.5-2.47l10.54-.5c7-.22 14-.65 21.08-.62 7-.14 14.06 0 21.09.21s14.06.4 21.16 4.12a2.43 2.43 0 0 1 .07 4.27c-7 3.95-14 4.52-21 4.81s-14 .82-21.08.9c-7 .26-14.06.06-21.09.07l-10.55-.15c-3.52-.33-7 .86-10.58-2.12a5.64 5.64 0 0 1-.71-7.95 6.16 6.16 0 0 1 .57-.57z" fill="#004f81"/><path fill="#74dcfc" d="M266.77 138.73l41.42 51.91-80.29 70.86"/><path d="M315.73 184.75l-.05-.07c-6.81-8.73-14.09-17.07-21.12-25.63l-10.63-12.76c-3.79-4.06-6.17-9.24-12.71-11.1a7.17 7.17 0 0 0-2.29-.26 7 7 0 0 0-6.6 7.36c.37 6.79 4.89 10.26 8 14.85l10.09 13.19c4.93 6.36 9.73 12.82 14.66 19.17q-16.61 14.78-32.88 29.95c-6.56 6.05-13.21 12-19.33 18.55a132.87 132.87 0 0 0-16.84 21.38 3 3 0 0 0 3.76 4.27 132.88 132.88 0 0 0 23.3-14.05c7.26-5.26 14-11.12 20.81-16.88q20.56-17.17 40.62-34.89a9.6 9.6 0 0 0 1.21-13.08z" fill="#004f81"/><path fill="#fff" d="M173.19 419.45h260.19"/><path d="M173.18 416.61c10.84-2 21.68-1.29 32.53-1.51l32.53-.18c21.68 0 43.36-.42 65-.18l65 .36c21.68 0 43.37.47 65.05 2.93a1.43 1.43 0 0 1 0 2.84c-21.68 2.46-43.37 3-65.05 2.93l-65 .36c-21.68.24-43.37-.13-65-.18l-32.53-.18c-10.84-.22-21.68.48-32.53-1.51a2.89 2.89 0 0 1 0-5.69z" fill="#c8d7e2"/><path d="M1249.73 419.46c3 14.88 1.9 29.76 2.27 44.64l.14 22.32V492a24.49 24.49 0 0 0 .46 4.25 22.33 22.33 0 0 0 3.26 7.8 21.71 21.71 0 0 0 13.84 9.14c7.41 1.61 14.78 3.38 22.08 5.4a333.72 333.72 0 0 1 43 14.74 301.68 301.68 0 0 1 78.27 46.36c23.39 19.44 43.61 43.86 54.45 72.3a2.15 2.15 0 0 1-1.24 2.77 2.18 2.18 0 0 1-2.53-.78c-17.28-24.11-36.53-45.68-59-64.07a275.34 275.34 0 0 0-36.13-24.23 318.45 318.45 0 0 0-39.25-19.12 398 398 0 0 0-41.36-14.36c-7-2-14.1-3.82-21.21-5.46a35.26 35.26 0 0 1-27.37-27.91 37.77 37.77 0 0 1-.65-6.84v-5.58l.14-22.32c.36-14.88-.78-29.76 2.26-44.64a4.36 4.36 0 0 1 8.53 0z" fill="#004f81"/><circle cx="454.19" cy="72.84" r="72.84" fill="#fd8776"/><text transform="translate(433.39 109.32)" font-size="102.401" fill="#fff" font-family="NotoSans-Bold,Noto Sans" font-weight="700">?</text></svg>