<?xml version="1.0" encoding="UTF-8" standalone="no"?>
<svg xmlns:svg="http://www.w3.org/2000/svg"
   xmlns="http://www.w3.org/2000/svg"
   id="wechat-pay"
   data-name="WeChat Pay"
   viewBox="0 0 150 150"
   width="150"
   height="150">
  <title>WeChat Pay</title>
  <path
     d="M 55,92.780547 A 4.9681182,4.9681182 0 0 1 48.541446,90.811699 L 48.210239,90.112483 34.777918,60.800589 a 2.4472583,2.4472583 0 0 1 3.864093,-2.796867 l 15.732371,11.205867 a 7.249772,7.249772 0 0 0 6.348153,0.791218 L 134.72908,37.045623 C 121.44397,21.423653 99.639452,11.119408 74.946073,11.119408 c -40.480962,0 -73.1969389,27.324648 -73.1969389,61.015851 0,18.400434 9.9362349,34.960831 25.2822019,46.111501 a 4.9681182,4.9681182 0 0 1 2.060846,3.97449 5.8145381,5.8145381 0 0 1 -0.239205,1.56405 l -3.312078,12.45708 a 7.1761707,7.1761707 0 0 0 -0.404809,1.84006 2.484059,2.484059 0 0 0 2.465658,2.46564 2.7600657,2.7600657 0 0 0 1.416832,-0.44161 l 16.026783,-9.20022 a 7.6729824,7.6729824 0 0 1 3.882494,-1.12242 7.4521771,7.4521771 0 0 1 2.152849,0.3312 86.592457,86.592457 0 0 0 23.920568,3.3489 c 40.480966,0 73.196966,-27.32467 73.196966,-61.015867 a 52.809254,52.809254 0 0 0 -8.35383,-28.299872 l -84.329196,48.35635 z"
     style="fill:#00c800;stroke-width:1.84004366" />
</svg>
