<svg width="24" height="24" viewBox="0 0 24 24" fill="none" xmlns="http://www.w3.org/2000/svg">
<path fill-rule="evenodd" clip-rule="evenodd" d="M19.2651 4.875H17.25V3.8C17.25 3.35817 16.7463 3 16.125 3C15.5037 3 15 3.35817 15 3.8V4.875H9V3.8C9 3.35817 8.49632 3 7.875 3C7.25368 3 6.75 3.35817 6.75 3.8V4.875H4.73494C3.77676 4.875 3 5.62142 3 6.54217V18.5828C3 19.5036 3.77676 20.25 4.73494 20.25H19.2651C20.2232 20.25 21 19.5036 21 18.5828V6.54217C21 5.62142 20.2232 4.875 19.2651 4.875ZM13.5 9H11.271L9.75 10.1538L10.1278 11.3133L11.7997 10.7308L11.7941 16.5H13.5V9Z" fill="#646970"/>
</svg>
