<svg viewBox="0 0 239.11 94.12" xmlns="http://www.w3.org/2000/svg" xmlns:xlink="http://www.w3.org/1999/xlink"><clipPath id="a" transform="translate(2 3.52)"><path d="m3 1.48h84.07v84.12h-84.07z"/></clipPath><clipPath id="b" transform="translate(2 3.52)"><path d="m-717-120h1672v880h-1672z"/></clipPath><clipPath id="c" transform="translate(2 3.52)"><path d="m3 1h85v85h-85z"/></clipPath><clipPath id="d" transform="translate(2 3.52)"><path clip-rule="evenodd" d="m45 1.48a42.06 42.06 0 1 0 42 42 42.07 42.07 0 0 0 -42-42zm-37.76 42.08a37.25 37.25 0 0 1 3.28-15.39l18 49.4a37.78 37.78 0 0 1 -21.28-34.01zm37.76 37.8a37.31 37.31 0 0 1 -10.7-1.56l11.35-33 11.65 31.89a4.57 4.57 0 0 0 .25.5 36.61 36.61 0 0 1 -12.55 2.17zm5.2-55.56c2.27-.1 4.34-.35 4.34-.35a1.57 1.57 0 0 0 -.25-3.13s-6.11.5-10.09.5c-3.73 0-9.94-.5-9.94-.5a1.57 1.57 0 0 0 -.26 3.13s1.92.25 4 .35l5.93 16.2-8.28 24.78-13.78-41c2.27-.1 4.34-.35 4.34-.35a1.57 1.57 0 0 0 -.21-3.11s-6.11.5-10.09.5c-.71 0-1.56 0-2.42-.05a37.78 37.78 0 0 1 57.12-7.11c-.15 0-.3-.05-.51-.05a6.54 6.54 0 0 0 -6.36 6.71c0 3.13 1.82 5.75 3.74 8.88a20.17 20.17 0 0 1 3.13 10.45c0 3.23-1 7.32-2.88 12.21l-3.82 12.62zm13.86 50.41 11.56-33.4a35.39 35.39 0 0 0 2.88-13.52 30.64 30.64 0 0 0 -.25-3.89 37.77 37.77 0 0 1 -14.19 50.81z"/></clipPath><clipPath id="e" transform="translate(2 3.52)"><path clip-rule="evenodd" d="m116.27 9.7c.56 5.78.56 11.57.59 17.35l.14 17.35-.1 17.35c0 5.78 0 11.57-.59 17.35h-.37c-.56-5.78-.56-11.57-.59-17.35l-.1-17.35.1-17.35c0-5.78 0-11.57.59-17.35z"/></clipPath><clipPath id="f" transform="translate(2 3.52)"><path clip-rule="evenodd" d="m155.36 33.18h2.34a.18.18 0 0 0 .18-.18v-21.09a.18.18 0 0 0 -.18-.18h-2.34a.18.18 0 0 0 -.18.18z"/></clipPath><clipPath id="g" transform="translate(2 3.52)"><path clip-rule="evenodd" d="m162.94 22.72a2.1 2.1 0 0 0 .36-1.26v-7.93c0-1.26-.54-1.8-1.8-1.8h-2.88a.18.18 0 0 0 -.18.18v2.16a.18.18 0 0 0 .18.18h1.8a.18.18 0 0 1 .18.18v6.67a.18.18 0 0 1 -.18.18h-1.62a.18.18 0 0 0 -.18.18v2.34l2.38 9.2.18.18h2.7v-.18l-2.34-9.55a.18.18 0 0 1 .18-.18h.18c.54-.18.9-.18 1.08-.54"/></clipPath><clipPath id="h" transform="translate(2 3.52)"><path clip-rule="evenodd" d="m185.29 33.18h2.34a.18.18 0 0 0 .18-.18v-21.09a.18.18 0 0 0 -.18-.18h-2.34a.18.18 0 0 0 -.18.18z"/></clipPath><clipPath id="i" transform="translate(2 3.52)"><path clip-rule="evenodd" d="m192.86 22.72a2.1 2.1 0 0 0 .36-1.26v-7.93c0-1.26-.54-1.8-1.8-1.8h-2.88a.18.18 0 0 0 -.18.18v2.16a.18.18 0 0 0 .18.18h1.8a.18.18 0 0 1 .18.18v6.67a.18.18 0 0 1 -.18.18h-1.62a.18.18 0 0 0 -.18.18v2.34l2.34 9.2.18.18h2.7v-.18l-2.34-9.55a.18.18 0 0 1 .18-.18h.54c0-.18.36-.18.72-.54"/></clipPath><clipPath id="j" transform="translate(2 3.52)"><path clip-rule="evenodd" d="m165.46 13.35v5.59c0 .54 0 .9.18 1.08s.18.36.54.54l1.26.9.18.18.18.18a9.91 9.91 0 0 1 1.62 1.26h.18l1.08-.9.18-.18v-.18a.18.18 0 0 0 -.18-.18l-2.68-2.16-.18-.18v-4.87a.18.18 0 0 1 .18-.18h.54a.18.18 0 0 0 .18-.18v-2.34a.18.18 0 0 0 -.18-.18h-1.26a1.62 1.62 0 0 0 -1.8 1.8"/></clipPath><clipPath id="k" transform="translate(2 3.52)"><path clip-rule="evenodd" d="m165.64 23.62a2.29 2.29 0 0 0 -.18 1.08v6.3c0 1.26.54 1.8 1.8 1.8h1.62a.18.18 0 0 0 .18-.18v-2.15a.18.18 0 0 0 -.18-.18h-.54a.18.18 0 0 1 -.18-.18v-5.59a.18.18 0 0 1 .18-.18l.9-.72v-.18l-1.62-1.26h-.18l-1.08.72z"/></clipPath><clipPath id="l" transform="translate(2 3.52)"><path clip-rule="evenodd" d="m172.85 31v-4a.18.18 0 0 0 -.18-.18h-2.34a.18.18 0 0 0 -.18.18v3.24a.18.18 0 0 1 -.18.18h-.54a.18.18 0 0 0 -.18.18v2.16a.18.18 0 0 0 .18.18h1.57c1.26 0 1.8-.72 1.8-2"/></clipPath><clipPath id="m" transform="translate(2 3.52)"><path clip-rule="evenodd" d="m171 11.55h-1.62a.18.18 0 0 0 -.18.18v2.16a.18.18 0 0 0 .18.18h.62a.18.18 0 0 1 .18.18v2.88a.18.18 0 0 0 .18.18h2.34a.18.18 0 0 0 .18-.18v-3.78a1.62 1.62 0 0 0 -1.8-1.8"/></clipPath><clipPath id="n" transform="translate(2 3.52)"><path clip-rule="evenodd" d="m199 11.91v7l.9 7.39a.18.18 0 0 1 -.18.18h-.54a.18.18 0 0 0 -.18.18v2.16a.18.18 0 0 0 .18.18h.72a.18.18 0 0 1 .18.18l.36 3.79a.18.18 0 0 0 .18.18h2.52v-.15l-3.06-20.91-.18-.18z"/></clipPath><clipPath id="o" transform="translate(2 3.52)"><path clip-rule="evenodd" d="m197.73 26.33.72-7.39.18-1.08v-5.95a.18.18 0 0 0 -.18-.18h-.9a.18.18 0 0 0 -.18.18l-3.07 20.91v.18h2.52a.18.18 0 0 0 .18-.18l.36-3.79a.18.18 0 0 1 .18-.18h.9a.18.18 0 0 0 .18-.18v-2.16a.18.18 0 0 0 -.18-.18h-.72c.18.18 0 .18 0 0"/></clipPath><clipPath id="p" transform="translate(2 3.52)"><path clip-rule="evenodd" d="m177.36 11.73h-2.36a.18.18 0 0 0 -.18.18v21.09a.18.18 0 0 0 .18.18h2.34a.18.18 0 0 0 .18-.18l-.18-21.27"/></clipPath><clipPath id="q" transform="translate(2 3.52)"><path clip-rule="evenodd" d="m182.59 23.44a3.17 3.17 0 0 0 -.72-.9l-.87-.54v-.18l.9-.54c.36-.36.72-.54.72-.72.18-.18.18-.72.18-1.26v-5.77c0-1.26-.54-1.8-1.8-1.8h-2.88a.18.18 0 0 0 -.18.18v2.16a.18.18 0 0 0 .18.18h1.8a.18.18 0 0 1 .18.18v5.23a.18.18 0 0 1 -.18.18l-.9.72a.63.63 0 0 1 -.36.18h-.72a.18.18 0 0 0 -.18.18v2.16a.18.18 0 0 0 .18.18h.72a.56.56 0 0 1 .36.18l.9.72.18.18v6.31a.18.18 0 0 1 -.18.18h-1.8a.18.18 0 0 0 -.18.18v2.16a.18.18 0 0 0 .18.18h2.88c1.26 0 1.8-.54 1.8-1.8v-6.66c0-.72-.18-1.08-.18-1.44"/></clipPath><clipPath id="r" transform="translate(2 3.52)"><path clip-rule="evenodd" d="m215.39 33.18h2.34a.18.18 0 0 0 .18-.18v-18.57a.18.18 0 0 1 .18-.18h.72a.18.18 0 0 0 .18-.18v-2.16a.18.18 0 0 0 -.18-.18h-3.43a.18.18 0 0 0 -.18.18l.18 21.27c-.18-.18-.18 0 0 0"/></clipPath><clipPath id="s" transform="translate(2 3.52)"><path clip-rule="evenodd" d="m220.26 11.73h-.9a.18.18 0 0 0 -.18.18v2.34a1 1 0 0 1 1.08 1.08v14.24c0 .72-.36 1.08-1.26 1.08h-.9a.18.18 0 0 0 -.18.18v2.17a.18.18 0 0 0 .18.18h1.8a2.63 2.63 0 0 0 2.16-.72 2.87 2.87 0 0 0 .72-2.16v-15.3a2.87 2.87 0 0 0 -.72-2.16c0-.72-.72-1.08-1.8-1.08"/></clipPath><clipPath id="t" transform="translate(2 3.52)"><path clip-rule="evenodd" d="m204.76 32.64h2.34a.18.18 0 0 0 .18-.18v-8.66l-2.52-9.37z"/></clipPath><clipPath id="u" transform="translate(2 3.52)"><path clip-rule="evenodd" d="m210.35 11.55v8.83l2.52 9.37v-18a.18.18 0 0 0 -.18-.18h-2.34"/></clipPath><clipPath id="v" transform="translate(2 3.52)"><path d="m145.33 2.06h86.77v57.37h-86.77z"/></clipPath><clipPath id="w" transform="translate(2 3.52)"><path d="m145 2h88v58h-88z"/></clipPath><clipPath id="x" transform="translate(2 3.52)"><path clip-rule="evenodd" d="m229 43.89a.47.47 0 0 1 -.44.44h-9.56a.47.47 0 0 0 -.44.44l-.87 3.5h-.22l-12.7-46-.22-.22h-58.78a.47.47 0 0 0 -.44.44v23.88a.21.21 0 0 0 .22.22h2.63a.22.22 0 0 0 .22-.22v-21a.47.47 0 0 1 .44-.44h53.5c.22 0 .22 0 .22.22l4.6 16.85s9.2 33.94 10.07 37.45h.22l3.28-11.82a.22.22 0 0 1 .22-.22h10.71a.47.47 0 0 0 .44-.44v-21.48a.21.21 0 0 0 -.22-.22h-2.63a.21.21 0 0 0 -.22.22z"/></clipPath><clipPath id="y" transform="translate(2 3.52)"><path clip-rule="evenodd" d="m145.33 42.34a.21.21 0 0 0 .22.22h63a.21.21 0 0 0 .22-.22l-.66-2.63a.21.21 0 0 0 -.22-.22h-59.06a.21.21 0 0 1 -.22-.22v-18.39a.22.22 0 0 0 -.22-.22h-2.85a.21.21 0 0 0 -.22.22z"/></clipPath><clipPath id="z" transform="translate(2 3.52)"><path d="m206.88 2.09h25.23v25.18h-25.23z"/></clipPath><clipPath id="A" transform="translate(2 3.52)"><path d="m206 2h27v26h-27z"/></clipPath><clipPath id="B" transform="translate(2 3.52)"><path clip-rule="evenodd" d="m232.1 2.31a.21.21 0 0 0 -.22-.22h-24.79a.21.21 0 0 0 -.22.22l.66 2.63a.21.21 0 0 0 .22.22h20.85a.21.21 0 0 1 .22.22v21.68a.21.21 0 0 0 .22.22s3.07 0 3.07-.22z"/></clipPath><clipPath id="C" transform="translate(2 3.52)"><path clip-rule="evenodd" d="m145.33 84.6a.21.21 0 0 0 .22.22h75.11a.21.21 0 0 0 .22-.22l-.66-2.6a.21.21 0 0 0 -.22-.22h-71.17a.21.21 0 0 1 -.22-.22v-42a.21.21 0 0 0 -.22-.22h-2.85a.21.21 0 0 0 -.22.22z"/></clipPath><clipPath id="D" transform="translate(2 3.52)"><path d="m168.64 41.46h63.46v43.36h-63.46z"/></clipPath><clipPath id="E" transform="translate(2 3.52)"><path d="m168 41h65v44h-65z"/></clipPath><clipPath id="F" transform="translate(2 3.52)"><path clip-rule="evenodd" d="m232.1 84.6a.21.21 0 0 1 -.22.22h-63a.21.21 0 0 1 -.22-.22l.64-2.6a.21.21 0 0 1 .22-.22h59.08a.21.21 0 0 0 .22-.22v-39.88a.21.21 0 0 1 .22-.22h2.85a.21.21 0 0 1 .22.22z"/></clipPath><clipPath id="G" transform="translate(2 3.52)"><path clip-rule="evenodd" d="m165.32 73v-5.74a.21.21 0 0 0 -.22-.22h-2.85a.21.21 0 0 0 -.22.22v4.84a.22.22 0 0 1 -.22.22h-.81a.22.22 0 0 0 -.22.22v2.63a.21.21 0 0 0 .22.22h2.08c1.53 0 2.19-.87 2.19-2.41"/></clipPath><clipPath id="H" transform="translate(2 3.52)"><path clip-rule="evenodd" d="m163.3 49.36h-2.3a.22.22 0 0 0 -.22.22v2.62a.21.21 0 0 0 .22.22h1a.21.21 0 0 1 .22.22v5a.21.21 0 0 0 .22.22h2.85a.21.21 0 0 0 .22-.22v-6.09a2 2 0 0 0 -2.19-2.19"/></clipPath><clipPath id="I" transform="translate(2 3.52)"><path clip-rule="evenodd" d="m188.41 51.85v6.79c0 .66 0 1.09.22 1.31s.22.44.66.66l1.53 1.09.22.22.22.22a12.21 12.21 0 0 1 2 1.53h.22l1.31-1.09.22-.22v-.22a.21.21 0 0 0 -.22-.22l-3.28-2.63-.22-.22v-5.91a.21.21 0 0 1 .22-.22h.66a.21.21 0 0 0 .22-.22v-2.84a.21.21 0 0 0 -.22-.22h-1.57a2 2 0 0 0 -2.19 2.19"/></clipPath><clipPath id="J" transform="translate(2 3.52)"><path clip-rule="evenodd" d="m188.63 64.33a2.78 2.78 0 0 0 -.22 1.31v7.66c0 1.53.66 2.19 2.19 2.19h2a.22.22 0 0 0 .22-.22v-2.62a.22.22 0 0 0 -.22-.22h-.66a.21.21 0 0 1 -.22-.22v-6.78a.21.21 0 0 1 .22-.22l1.09-.88v-.22l-2-1.53h-.22l-1.31.88z"/></clipPath><clipPath id="K" transform="translate(2 3.52)"><path clip-rule="evenodd" d="m197.39 73.31v-4.82a.22.22 0 0 0 -.22-.22h-2.85a.21.21 0 0 0 -.22.22v3.94a.22.22 0 0 1 -.22.22h-.66a.21.21 0 0 0 -.22.22v2.63a.21.21 0 0 0 .22.22h2c1.53 0 2.19-.87 2.19-2.41"/></clipPath><clipPath id="L" transform="translate(2 3.52)"><path clip-rule="evenodd" d="m195.2 49.66h-2a.21.21 0 0 0 -.22.22v2.63a.21.21 0 0 0 .22.22h.66a.21.21 0 0 1 .22.22v3.5a.21.21 0 0 0 .22.22h2.85a.21.21 0 0 0 .22-.22v-4.6a2 2 0 0 0 -2.19-2.19"/></clipPath><clipPath id="M" transform="translate(2 3.52)"><path clip-rule="evenodd" d="m158.59 75.42h1.64a.21.21 0 0 0 .22-.22v-2.85h-.54a1.16 1.16 0 0 1 -1.32-1.35v-17.26q0-1.31 1.64-1.32h-.11a.21.21 0 0 0 .22-.22v-2.62a.22.22 0 0 0 -.22-.22h-1.12a3.19 3.19 0 0 0 -2.63.88 3.49 3.49 0 0 0 -.88 2.63v18.6a3.49 3.49 0 0 0 .88 2.63c0 .88.88 1.31 2.19 1.31"/></clipPath><clipPath id="N" transform="translate(2 3.52)"><path clip-rule="evenodd" d="m183.09 75.61h2.85a.21.21 0 0 0 .22-.22v-25.62a.21.21 0 0 0 -.22-.22h-2.85a.21.21 0 0 0 -.22.22l.22 25.84c-.22-.22-.22 0 0 0"/></clipPath><clipPath id="O" transform="translate(2 3.52)"><path clip-rule="evenodd" d="m167.82 75.61h2.85a.21.21 0 0 0 .22-.22v-25.62a.22.22 0 0 0 -.22-.22h-2.85a.21.21 0 0 0 -.22.22l.22 25.84c-.22-.22-.22 0 0 0"/></clipPath><clipPath id="P" transform="translate(2 3.52)"><path clip-rule="evenodd" d="m172.37 52.72h2.19a.21.21 0 0 0 .22-.22v-2.62a.21.21 0 0 0 -.22-.22h-2.19a.21.21 0 0 0 -.22.22l.22 2.85c-.22-.22-.22 0 0 0"/></clipPath><clipPath id="Q" transform="translate(2 3.52)"><path clip-rule="evenodd" d="m175.21 75.5h2.85a.22.22 0 0 0 .22-.22v-22.34a.21.21 0 0 1 .22-.22h2.63a.21.21 0 0 0 .22-.22v-2.62a.22.22 0 0 0 -.22-.22h-5.69a.21.21 0 0 0 -.22.22v25.62"/></clipPath><clipPath id="R" transform="translate(2 3.52)"><path clip-rule="evenodd" d="m205 49.66h2.54a1.85 1.85 0 0 1 2 1.94v6.25h-3.3v-5.34h-1.24z"/></clipPath><clipPath id="S" transform="translate(2 3.52)"><path clip-rule="evenodd" d="m204.81 75.5h-2.81a1.84 1.84 0 0 1 -2-1.94v-6.25h3.3v5.34h1.58z"/></clipPath><clipPath id="T" transform="translate(2 3.52)"><path clip-rule="evenodd" d="m204.54 49.6v3h-1.27v5l4.63 6.29 1.21 1.65s.52.43.52 1.9v5.87s.16 1.77-1.17 2.16a3.19 3.19 0 0 1 -1 .11h-2.46l-.06-3h1.41l-.06-5.33-5.64-7.57a3 3 0 0 1 -.73-1.93v-5.9s0-2.25 1.86-2.24z"/></clipPath><g clip-path="url(#a)"><g clip-path="url(#b)"><g clip-path="url(#c)"><g clip-path="url(#d)"><g clip-path="url(#c)"><path d="m0 0h94.07v94.12h-94.07z" fill="#fff"/></g></g></g></g></g><g clip-path="url(#e)"><g clip-path="url(#b)"><path d="m112.22 8.22h11.75v79.4h-11.75z" fill="#fff"/></g></g><g clip-path="url(#f)"><g clip-path="url(#b)"><path d="m152.18 10.25h12.7v31.45h-12.7z" fill="#fff"/></g></g><g clip-path="url(#g)"><g clip-path="url(#b)"><path d="m155.43 10.25h15.41v31.45h-15.41z" fill="#fff"/></g></g><g clip-path="url(#h)"><g clip-path="url(#b)"><path d="m182.11 10.25h12.7v31.45h-12.7z" fill="#fff"/></g></g><g clip-path="url(#i)"><g clip-path="url(#b)"><path d="m185.35 10.25h15.41v31.45h-15.41z" fill="#fff"/></g></g><g clip-path="url(#j)"><g clip-path="url(#b)"><path d="m162.46 10.07h15.41v21.54h-15.41z" fill="#fff"/></g></g><g clip-path="url(#k)"><g clip-path="url(#b)"><path d="m162.46 20.7h13.79v20.64h-13.79z" fill="#fff"/></g></g><g clip-path="url(#l)"><g clip-path="url(#b)"><path d="m166.25 25.39h13.61v16.13h-13.61z" fill="#fff"/></g></g><g clip-path="url(#m)"><g clip-path="url(#b)"><path d="m166.25 10.07h13.61v15.77h-13.61z" fill="#fff"/></g></g><g clip-path="url(#n)"><g clip-path="url(#b)"><path d="m195.99 10.35h14.15v31.35h-14.15z" fill="#fff"/></g></g><g clip-path="url(#o)"><g clip-path="url(#b)"><path d="m191.3 10.25h14.33v31.27h-14.33z" fill="#fff"/></g></g><g clip-path="url(#p)"><g clip-path="url(#b)"><path d="m171.83 10.25h12.7v31.45h-12.7z" fill="#fff"/></g></g><g clip-path="url(#q)"><g clip-path="url(#b)"><path d="m174.72 10.25h15.05v31.63h-15.05z" fill="#fff"/></g></g><g clip-path="url(#r)"><g clip-path="url(#b)"><path d="m212.21 10.25h13.79v31.45h-13.79z" fill="#fff"/></g></g><g clip-path="url(#s)"><g clip-path="url(#b)"><path d="m214.92 10.25h14.87v31.45h-14.87z" fill="#fff"/></g></g><g clip-path="url(#t)"><g clip-path="url(#b)"><path d="m201.68 12.95h12.6v28.21h-12.6z" fill="#fff"/></g></g><g clip-path="url(#u)"><g clip-path="url(#b)"><path d="m207.35 9.99h12.52v28.29h-12.52z" fill="#fff"/></g></g><g clip-path="url(#v)"><g clip-path="url(#b)"><g clip-path="url(#w)"><g clip-path="url(#x)"><g clip-path="url(#w)"><path d="m142.33.58h96.77v67.37h-96.77z" fill="#fff"/></g></g></g></g></g><g clip-path="url(#y)"><g clip-path="url(#b)"><path d="m142.33 19.18h73.47v31.9h-73.47z" fill="#fff"/></g></g><g clip-path="url(#z)"><g clip-path="url(#b)"><g clip-path="url(#A)"><g clip-path="url(#B)"><g clip-path="url(#A)"><path d="m203.88.62h35.23v35.18h-35.23z" fill="#fff"/></g></g></g></g></g><g clip-path="url(#C)"><g clip-path="url(#b)"><path d="m142.33 37.79h85.55v55.55h-85.55z" fill="#fff"/></g></g><g clip-path="url(#D)"><g clip-path="url(#b)"><g clip-path="url(#E)"><g clip-path="url(#F)"><g clip-path="url(#E)"><path d="m165.64 39.98h73.47v53.36h-73.47z" fill="#fff"/></g></g></g></g></g><g clip-path="url(#G)"><g clip-path="url(#b)"><path d="m157.83 65.56h14.49v18.35h-14.49z" fill="#fff"/></g></g><g clip-path="url(#H)"><g clip-path="url(#b)"><path d="m157.8 47.88h14.68v18.52h-14.68z" fill="#fff"/></g></g><g clip-path="url(#I)"><g clip-path="url(#b)"><path d="m185.41 48.18h16.57v24.01h-16.57z" fill="#fff"/></g></g><g clip-path="url(#J)"><g clip-path="url(#b)"><path d="m185.41 61.1h14.6v22.92h-14.6z" fill="#fff"/></g></g><g clip-path="url(#K)"><g clip-path="url(#b)"><path d="m190.01 66.79h14.38v17.45h-14.38z" fill="#fff"/></g></g><g clip-path="url(#L)"><g clip-path="url(#b)"><path d="m190.01 48.18h14.38v17.01h-14.38z" fill="#fff"/></g></g><g clip-path="url(#M)"><g clip-path="url(#b)"><path d="m152.52 47.88h14.92v36.06h-14.92z" fill="#fff"/></g></g><g clip-path="url(#N)"><g clip-path="url(#b)"><path d="m179.88 48.07h13.28v36.06h-13.28z" fill="#fff"/></g></g><g clip-path="url(#O)"><g clip-path="url(#b)"><path d="m164.6 48.07h13.28v36.06h-13.28z" fill="#fff"/></g></g><g clip-path="url(#P)"><g clip-path="url(#b)"><path d="m169.15 48.18h12.63v13.07h-12.63z" fill="#fff"/></g></g><g clip-path="url(#Q)"><g clip-path="url(#b)"><path d="m172.21 48.18h16.13v35.84h-16.13z" fill="#fff"/></g></g><g clip-path="url(#R)"><g clip-path="url(#b)"><path d="m202.01 48.18h14.58v18.19h-14.58z" fill="#fff"/></g></g><g clip-path="url(#S)"><g clip-path="url(#b)"><path d="m196.92 65.83h14.88v18.19h-14.88z" fill="#fff"/></g></g><g clip-path="url(#T)"><g clip-path="url(#b)"><path d="m196.92 48.12h19.68v35.99h-19.68z" fill="#fff"/></g></g></svg>