<svg width="24" height="25" viewBox="0 0 24 25" fill="none" xmlns="http://www.w3.org/2000/svg">
<g id="03 - Generating 1">
<g id="evtxiYcjrOa2_tr">
<g id="Group">
<g id="evtxiYcjrOa3_ts">
<g id="Group_2">
<g id="evtxiYcjrOa4_tr">
<g id="evtxiYcjrOa4_ts">
<g id="evtxiYcjrOa4">
<path id="Vector" d="M9.0952 15.0425C8.76598 14.7133 10.0836 13.1725 10.0836 12.1377C10.0836 11.1028 8.76598 9.56206 9.0952 9.23285C9.42441 8.90364 10.9651 10.2213 12 10.2213C13.0349 10.2213 14.5756 8.90364 14.9048 9.23285C15.234 9.56206 13.9164 11.1028 13.9164 12.1377C13.9164 13.1725 15.234 14.7133 14.9048 15.0425C14.5756 15.3717 13.0349 14.0541 12 14.0541C10.9651 14.0541 9.42441 15.3717 9.0952 15.0425Z" fill="#3858E9"/>
</g>
</g>
</g>
</g>
</g>
</g>
</g>
<g id="evtxiYcjrOa6_tr">
<g id="Group_3">
<g id="evtxiYcjrOa7_ts">
<g id="Group_4">
<g id="evtxiYcjrOa8_tr">
<g id="evtxiYcjrOa8_ts">
<g id="evtxiYcjrOa8">
<path id="Vector_2" d="M2.44629 12.1379C2.44629 11.0552 7.14664 10.6882 8.8484 8.98649C10.5502 7.28474 10.9171 2.58438 11.9998 2.58438C13.0825 2.58438 13.4494 7.28474 15.1512 8.98649C16.853 10.6883 21.5533 11.0552 21.5533 12.1379C21.5533 13.2206 16.853 13.5875 15.1512 15.2893C13.4494 16.9911 13.0825 21.6914 11.9998 21.6914C10.9171 21.6914 10.5502 16.9911 8.8484 15.2893C7.14664 13.5875 2.44629 13.2206 2.44629 12.1379Z" fill="#3858E9"/>
</g>
</g>
</g>
</g>
</g>
</g>
</g>
<g id="evtxiYcjrOa10_tr">
<g id="Group_5">
<g id="evtxiYcjrOa11_ts">
<g id="Group_6">
<g id="evtxiYcjrOa12_tr">
<g id="evtxiYcjrOa12_ts">
<g id="evtxiYcjrOa12">
<path id="Vector_3" d="M7.21826 12.1379C7.21826 11.596 9.57079 11.4123 10.4225 10.5606C11.2743 9.70889 11.4579 7.35636 11.9998 7.35636C12.5417 7.35636 12.7253 9.70889 13.5771 10.5606C14.4288 11.4123 16.7813 11.596 16.7813 12.1379C16.7813 12.6798 14.4288 12.8634 13.5771 13.7152C12.7253 14.5669 12.5417 16.9194 11.9998 16.9194C11.4579 16.9194 11.2743 14.5669 10.4225 13.7152C9.57079 12.8634 7.21826 12.6798 7.21826 12.1379Z" fill="white"/>
</g>
</g>
</g>
</g>
</g>
</g>
</g>
</g>
</svg>
