<svg xmlns="http://www.w3.org/2000/svg" viewBox="0 0 1586.92 845.65"><title>advertisingRemoved</title><path d="M386.15 207.75v483h588.14v-483zm513.53 482.53h-445.5V421.83h445.5zm0-298.72h-445.5v-109.8h445.5z" fill="#E1E2E2"/><path d="M804.78 346.99a66.11 66.11 0 0 0-17.51 7c-5.42 3-10.78 6.08-16 9.41-3.8 2.47-7.55 5-11.28 7.59 3.71-4.49 7.37-9 10.94-13.6 4.16-5.41 8.1-11 11.93-16.65a79.82 79.82 0 0 0 9.64-18.39.89.89 0 0 0-1.34-1 79.82 79.82 0 0 0-15.07 14.28c-4.4 5.23-8.7 10.53-12.78 16-3.76 5.11-7.41 10.3-11 15.53 1.93-6 3.81-11.94 5.56-18 1.86-6.53 3.44-13.13 4.9-19.76a79 79 0 0 0 2.14-20.53.89.89 0 0 0-1.63-.45 79 79 0 0 0-8.7 18.72c-2.15 6.44-4.18 12.92-5.93 19.48-1.29 5-2.49 9.93-3.66 14.92-.18-6.17-.46-12.34-.95-18.49-.62-7.28-1.38-14.56-2.21-21.82a150.91 150.91 0 0 0-4-21.69 1.72 1.72 0 0 0-3.36.24 150.59 150.59 0 0 0-.87 22c.21 7.31.5 14.62.93 21.91s1.22 14.57 2.11 21.83v.27c-2-4.47-4-8.91-6.29-13.25-2.81-5.36-5.74-10.65-8.74-15.91a104.16 104.16 0 0 0-10.35-15.1 1.73 1.73 0 0 0-3 1.52 104 104 0 0 0 6 17.3c2.44 5.54 5 11 7.59 16.49 1.29 2.61 2.64 5.2 4 7.76-4.2-4.46-8.47-8.85-12.87-13.11q-8.3-7.94-16.84-15.63a165.3 165.3 0 0 0-18.11-14.34 1.72 1.72 0 0 0-2.36 2.41 165 165 0 0 0 14.68 17.84q7.87 8.38 15.94 16.55c5.43 5.4 11.05 10.6 16.77 15.71l.57.5c-3.36-1.55-6.75-3-10.2-4.4-5.17-2-10.39-3.87-15.64-5.67a88 88 0 0 0-16.32-4 1.74 1.74 0 0 0-1.27 3.12 88 88 0 0 0 14.47 8.54c5 2.38 10.06 4.68 15.16 6.86s10.33 4 15.6 5.77a55.1 55.1 0 0 0 15.79 3.09 1.69 1.69 0 0 0 .51.43 1.73 1.73 0 0 0 1.57.24 108.6 108.6 0 0 0 17-7.79c5.4-3 10.76-6.11 16-9.32s10.37-6.72 15.41-10.31a66.12 66.12 0 0 0 13.89-12.74.91.91 0 0 0 .17-.74.9.9 0 0 0-.99-.62z" fill="#CCCED0"/><path d="M1107.04 438.74c0-62.73 43.84-115.42 102.48-129v-99.51H974.29v480.1h235.24v-122.5c-58.69-13.67-102.49-66.36-102.49-129.09z" fill="#fcd56e"/><path d="M1239.51 323.13a115.42 115.42 0 1 0 15.55 1 115.75 115.75 0 0 0-15.55-1zm48.23 153.4l-10.73 10.73-1.54 1.54-12.63-12.65-20.14-20.14-4.6-4.6-12.65 12.65-20.14 20.14-4.6 4.6-10.87-10.83c-.21-.21-1.43-1.12-1.43-1.43 0-.09.3-.32.37-.39l3.12-3.12 12.31-12.31 13.87-13.87 5.07-5.07 1.65-1.65c.21-.21.77-.59.87-.87l.12-.12-6.24-6.24-13.51-13.51-12.94-12.94-3.81-3.81c-.16-.16-.76-.58-.81-.81s.16-.31.37-.52c3.83-3.83 7.64-7.68 11.49-11.49l.34-.34 12.65 12.65 20.14 20.14 4.6 4.6 12.65-12.65 20.14-20.14 4.6-4.6 10.83 10.83c.21.21 1.43 1.12 1.43 1.43 0 .09-.3.32-.37.39l-3.12 3.12-12.31 12.31-13.87 13.87-5.07 5.07-1.65 1.65c-.21.21-.77.59-.87.87l-.12.12 12.65 12.65 20.14 20.14z" fill="#fd8776"/><path d="M1528.41 317.76l-12.27-12.27-37.39 37.34-37.38-37.38-12.27 12.27 37.38 37.38-37.38 37.38 12.27 12.27 37.38-37.38 37.39 37.46 12.27-12.27-37.38-37.38z" fill="#fff"/><path d="M647.71 584.37a102.25 102.25 0 0 0-24.4 18.7c.74-3.14 1.5-6.27 2.27-9.4 3.45-14.5 8.59-28.51 13.32-42.85l-2.9-1.72a82.79 82.79 0 0 0-12 20.13 162.58 162.58 0 0 0-7.71 22 137.93 137.93 0 0 0-4.06 23q-.34 3.26-.39 6.55c-2 5.33-2.56 11.37-.6 16.78h1.69l.48-1c.08.33.14.67.22 1h1.69a108.24 108.24 0 0 0 3.1-11.42c.47-.89.94-1.77 1.43-2.64a81.48 81.48 0 0 1 8.83-12.33c3.29-4 6.93-7.82 10.73-11.64s7.66-7.84 10.67-12.88z" fill="#CCCED0"/><path d="M454.18 657.7c113.87-47.22 359.95-16.32 440.77 33.89l-440.78-1.43z" fill="#6F93AD"/><path d="M854.24 497.37c-3.9-7.15-11.2-16.57-23.82-20.75a45.77 45.77 0 0 0-16.89-2.23q3.73-4.56 7.62-9l-2.33-2.43a146 146 0 0 0-13.95 12.69 55 55 0 0 0-11.92 4.28c-1.32-8.5-5.1-19.3-15.18-27.33a46.79 46.79 0 0 0-24.64-9.93 17.34 17.34 0 0 0-18.57 22 43.45 43.45 0 0 0 14.93 22.84 48.18 48.18 0 0 0 30.41 10.7 47 47 0 0 0 7.21-.54 192.06 192.06 0 0 0-20.68 40.3l-.62.48c-1.43-8.43-6-23.41-20.8-31.93a48.45 48.45 0 0 0-29.75-5.8 15.43 15.43 0 0 0-12.7 20.44 44.63 44.63 0 0 0 19.67 24.12 48.12 48.12 0 0 0 24.26 6.56 48.71 48.71 0 0 0 13.74-2c.37.62.85 1.39 1.47 2.29a245.58 245.58 0 0 0-8.2 42.46c-2.1-4.89-11.43-23.72-32.49-27.55a48.16 48.16 0 0 0-30 4.59 15.42 15.42 0 0 0-5.1 23.49 44.5 44.5 0 0 0 26.6 16.1 49.64 49.64 0 0 0 8.91.82 48.51 48.51 0 0 0 27.44-8.6l-1 1.38 1.49 2.43a36.93 36.93 0 0 0 2.88 3.91 224.14 224.14 0 0 0 1.51 38.38h1.69c1.4-10.56 2.53-21.05 3.75-31.48a43.83 43.83 0 0 0 28.12 10.3h.1a48.48 48.48 0 0 0 27.74-8.71 15.57 15.57 0 0 0 6.69-11.71 15.4 15.4 0 0 0-4.88-12.42c-5.94-5.55-15.78-12.15-29-12.15h-.11a47 47 0 0 0-25 7.37c1.65-10.11 3.74-20.11 6.36-29.95a43.63 43.63 0 0 0 26.39 11.76c1.33.12 2.67.16 4 .16a48.37 48.37 0 0 0 24.35-6.55 15.52 15.52 0 0 0 3.8-23.9c-5.48-6-14.79-13.45-28-14.52a45.4 45.4 0 0 0-20.59 3.05 199.85 199.85 0 0 1 12.55-25.26c.62-1.07 1.27-2.13 1.91-3.19a43.59 43.59 0 0 0 22.32 16.85 48.79 48.79 0 0 0 15.36 2.49 48.23 48.23 0 0 0 13.65-2 15.57 15.57 0 0 0 10.07-9 15.39 15.39 0 0 0-.77-13.31zm-127.81 40.52a36.19 36.19 0 0 1-15.93-19.62 7 7 0 0 1 5.73-9.24 44 44 0 0 1 5.13-.3 38.61 38.61 0 0 1 19.42 5c12.94 7.46 16.17 21.82 17 28a39.81 39.81 0 0 1-31.36-3.84zm-12.42 65a35.42 35.42 0 0 1-21.55-13.12 7 7 0 0 1 2.29-10.61 41.32 41.32 0 0 1 18.22-4.45 36.34 36.34 0 0 1 6.54.59c14.66 2.66 22.49 15.09 25.31 20.63a40.06 40.06 0 0 1-30.82 6.96zm73.82-11.12h.09c10.46 0 18.42 5.37 23.24 9.88a7 7 0 0 1 2.23 5.65 7.22 7.22 0 0 1-3.1 5.4 39.51 39.51 0 0 1-22.93 7.2h-.08c-13.12 0-22.13-7.13-26.86-12.19q.33-2.57.68-5.14c5.19-4.61 14.45-10.74 26.74-10.8zm11.2-55.65c10.49.85 18 6.88 22.46 11.78a7 7 0 0 1 1.75 5.82 7.19 7.19 0 0 1-3.54 5.12 39.58 39.58 0 0 1-23.44 5.28 36.27 36.27 0 0 1-24.43-12.68l.18-.6c.83-2.82 1.74-5.6 2.7-8.38a40.14 40.14 0 0 1 24.3-6.34zm-13.89-46.75a40.14 40.14 0 0 1-30.4-8.51 35.27 35.27 0 0 1-12.06-18.52 8.88 8.88 0 0 1 1.78-8.24 8.76 8.76 0 0 1 6.77-3.14h1a38.57 38.57 0 0 1 20.3 8.13c11.66 9.38 12.72 24.05 12.59 30.28zm62 18.1a7.2 7.2 0 0 1-4.65 4.15 39.65 39.65 0 0 1-24-.44 36.07 36.07 0 0 1-20-16.7q3.56-5.32 7.42-10.45a38.79 38.79 0 0 1 21.81.59c10 3.32 15.89 11 19.07 16.79a7 7 0 0 1 .38 6.06z" fill="#CCCED0"/><path d="M1583.62 832.74q-107.64-2.34-215.28-3.42a53.06 53.06 0 0 0 15.62-13.5 57.27 57.27 0 0 0 10.67-22.28 64 64 0 0 0 1.36-12.36l.15-11.91a2.8 2.8 0 0 0-2.76-2.84h-.08c-34.18-.56-68.35-1.33-102.53-2.12l2.55-206.79q-4.54 2.11-9.26 3.87l2.5 202.82c-64.44-1.5-128.87-3-193.31-3.28l-300-.61-485.13-.73.34-417.72v-270a52 52 0 0 1 18-40.69 50.29 50.29 0 0 1 20-10.69 46.55 46.55 0 0 1 11.28-1.79c3.61-.28 8.75-.08 13.05-.15h54l855.45-.7c0 99.23.68 198.49 1.34 297.89a129.79 129.79 0 0 1 14.33 6c.69-104 1.44-208.2 1.35-312.4a8.51 8.51 0 0 0-8.51-8.51l-864-.71h-54c-4.7.07-8.56-.17-13.94.15a64.94 64.94 0 0 0-15.32 2.41 68.88 68.88 0 0 0-27.22 14.49c-15.77 13.36-25.14 34.42-24.55 54.78v270l.34 417.69-96.82-.15a9.85 9.85 0 0 0-9.83 9.87v23.41c.11 1.91.12 3.83.38 5.72a52.15 52.15 0 0 0 15.63 31.33c-65.89 1-131.79 2.38-197.68 4.7a1.69 1.69 0 0 0 0 3.37c73.86 2.6 230.94 6.32 232.84 6.45s23.51 0 23.51 0l37.34-.07 46.57-.08 55.24.49 395.5 1.07c263.66-1 527.33-.44 791-6.17a3.375 3.375 0 0 0 0-6.75zM202.96 779.12l483.77-.73v19.67a3.87 3.87 0 0 0 3.87 3.87h205.24a3.87 3.87 0 0 0 3.87-3.87v-20l193.57-.39c99.07-.37 198.14-3.81 297.21-5.45.09 7 .56 13.9-.8 20.32a49.73 49.73 0 0 1-31.41 36.73q-159.66-1.68-319.32-1.91c-98.51-1.68-197-1.11-295.54-1.49l-298.71-.54-149.35-.27-37.34-.07h-23.16a31.87 31.87 0 0 1-3.59-.28 30.27 30.27 0 0 1-6.95-1.71 32.57 32.57 0 0 1-21.1-26.74c-.17-1.18-.13-2.39-.23-3.59v-4.59z" fill="#CCCED0"/><path fill="#CCCED0" d="M386.15 205.32V92.22h823.37v113.1H430.66"/><path d="M1237.43 203.21c-73.08-6.41-146.13-5.51-219.17-5.5l-219.15.08-219.13 2.35c-73 .81-146.09.7-219.1 7.93v4.22c73.08 6.42 146.13 5.5 219.18 5.5l219.14-.08 219.13-2.35c73-.8 146.09-.71 219.1-7.93z" fill="#46799A"/></svg>