<svg width="60" height="38" viewBox="0 0 60 38" fill="none" xmlns="http://www.w3.org/2000/svg">
<rect x="0.5" y="0.5" width="59" height="37" rx="2.5" fill="white" stroke="#DCDCDE"/>
<path d="M13.8513 14L9 24.7357H14.8077L15.5276 23.024H17.1734L17.8933 24.7357H24.2859V23.4293L24.8556 24.7357H28.1623L28.7319 23.4017V24.7357H42.0268L43.6434 23.0685L45.1571 24.7357L51.9856 24.7495L47.119 19.3978L51.9856 14H45.263L43.6894 15.6365L42.2233 14H27.7602L26.5183 16.771L25.2472 14H19.4517V15.262L18.807 14C18.807 14 13.8513 14 13.8513 14ZM14.975 15.5245H17.8059L21.0238 22.8044V15.5245H24.125L26.6104 20.7442L28.901 15.5245H31.9867V23.2281H30.1091L30.0938 17.1916L27.3565 23.2281H25.6769L22.9243 17.1916V23.2281H19.0617L18.3294 21.501H14.3732L13.6425 23.2266H11.573C11.573 23.2266 14.975 15.5245 14.975 15.5245ZM33.7044 15.5245H41.339L43.674 18.0468L46.0844 15.5245H48.4194L44.8715 19.3963L48.4194 23.2235H45.9785L43.6434 20.6719L41.2208 23.2235H33.7044V15.5245ZM16.3522 16.8279L15.0488 19.9045H17.6541L16.3522 16.8279ZM35.5898 17.1195V18.5258H39.7547V20.0932H35.5898V21.6285H40.2614L42.4321 19.3672L40.3535 17.1182H35.5898V17.1195Z" fill="#26A6D1"/>
</svg>
