<svg width="60" height="38" xmlns="http://www.w3.org/2000/svg"><g fill="none" fill-rule="evenodd"><rect fill="#A7AAAD" width="60" height="38" rx="4"/><path d="M52.174 20l-1.18 2.577c.461.434.725 1.06.725 1.824 0 1.471-1.039 2.511-2.603 2.595L14 27v-7h38.174zm-1.172-9v7H7.17l3.068-7h40.764z" fill="#FFF"/><path d="M50.616 21h-2.74l-.15.004c-1.037.058-1.63.716-1.63 1.56 0 .9.55 1.435 1.447 1.492l.162.005h1.233l.088.006c.222.033.358.19.358.402 0 .212-.136.37-.358.402l-.088.007h-2.67V26h2.67l.151-.004c1.037-.055 1.63-.686 1.63-1.595 0-.9-.52-1.435-1.442-1.491l-.167-.005h-1.233l-.088-.006c-.222-.033-.357-.19-.357-.402 0-.209.157-.339.357-.368l.088-.007h2.226L50.616 21zm-4.897 0h-2.74l-.15.004c-1.037.058-1.63.716-1.63 1.56 0 .9.55 1.435 1.447 1.492l.162.005h1.233l.088.006c.222.033.357.19.357.402 0 .212-.135.37-.357.402l-.088.007H41.37V26h2.671l.151-.004c1.037-.055 1.63-.686 1.63-1.595 0-.9-.52-1.435-1.443-1.491l-.167-.005H42.98l-.087-.006c-.222-.033-.358-.19-.358-.402 0-.209.158-.339.357-.368l.088-.007h2.226L45.72 21zm-26.507 0H15v5h4.212v-1.13h-2.876v-.822h2.808v-1.13h-2.808v-.788h2.876V21zm21.404 0h-4.212v5h4.212v-1.13H37.74v-.822h2.808v-1.13H37.74v-.788h2.876V21zm-6.678 0h-2.876v5h1.335v-1.747h.48L34.384 26h1.643l-1.643-1.815.141-.035c.74-.21 1.194-.8 1.194-1.54 0-.909-.615-1.54-1.611-1.605l-.17-.005zm-5.274 0h-2.91v5h1.335v-1.644h1.541l.145-.004c1.044-.059 1.67-.757 1.67-1.674 0-.94-.615-1.605-1.611-1.672l-.17-.006zM21.2 21h-1.747l2.192 2.466L19.418 26h1.712l1.336-1.575L23.836 26h1.746l-2.26-2.568L25.514 21H23.8L22.5 22.507 21.199 21zm7.328 1.13l.099.005c.345.036.518.26.518.543-.031.277-.2.5-.509.541l-.108.007H27.09V22.13h1.438zm5.24 0l.107.006c.34.038.51.259.51.508-.03.243-.197.433-.498.472l-.119.007h-1.404v-.993h1.404zM46.645 12h-1.678v5h1.336v-3.185L48.392 17h1.61v-5H48.7v3.048L46.645 12zm-4.143 0h-1.713l-2.192 5h1.473l.411-1.027h2.329L43.255 17h1.507l-2.26-5zm-8.117 0H33.05v5h1.335v-5zm-3.835 0h-2.877v5h1.335v-1.747h.48L30.995 17h1.678l-1.644-1.815.141-.035c.736-.21 1.16-.8 1.16-1.54 0-.96-.685-1.61-1.78-1.61zm-3.768 0H22.57v5h4.212v-1.13h-2.876v-.822h2.808v-1.13h-2.808v-.788h2.876V12zm-9.589 0h-2.089v5h1.302v-3.596L17.707 17h1.199l1.335-3.596V17h1.302v-5h-2.09l-1.13 3.15-1.13-3.15zm-4.554 0h-1.747L8.7 17h1.473l.41-1.027h2.33L13.358 17h1.507l-2.226-5zm26.54 0H37.57l-.173.004c-1.467.07-2.26 1.022-2.323 2.264l-.004.164.004.265c.062 1.38.93 2.199 2.253 2.264l.175.005h.445l.548-1.13h-.917c-.67-.016-1.114-.407-1.167-1.149l-.005-.153v-.102l.004-.124c.04-.64.401-1.082 1.106-1.138l.157-.006h1.507V12zm2.432 1.199l.685 1.678h-1.37l.685-1.678zm-29.863 0l.685 1.678h-1.37l.685-1.678zm18.63-.069l.107.006c.34.038.51.259.51.508 0 .246-.167.438-.5.473l-.117.006h-1.404v-.993h1.404z" fill="#8E9196"/></g></svg>