<svg width="42" height="30" xmlns="http://www.w3.org/2000/svg"><g fill="none" fill-rule="evenodd"><path d="M39.375 0H2.625A2.627 2.627 0 0 0 0 2.625V27.375C.019 28.828 1.172 30 2.625 30h36.75C40.837 30 42 28.81 42 27.347V2.653C42 1.191 40.837 0 39.375 0zM4.228 3h33.535c.646 0 1.134.478 1.228 1.125V6H3V4.097C3.094 3.459 3.59 3 4.228 3zm33.544 24H4.228c-.647 0-1.134-.804-1.228-1.92V6h36v19.031C38.906 26.163 38.41 27 37.772 27z" fill="#3c434a" fill-rule="nonzero"/><path fill="#3c434a" fill-rule="nonzero" d="M6 15h10v4H6zM26 15h10v4H26z"/><ellipse stroke="#3c434a" stroke-width="2" cx="21" cy="15" rx="6" ry="8"/><path fill="#3c434a" fill-rule="nonzero" d="M30 11h6v2h-6z"/><path stroke="#d63638" stroke-width="2" d="M27 8h12v8H27z"/></g></svg>
