<svg width="60" height="38" xmlns="http://www.w3.org/2000/svg"><g fill="none" fill-rule="evenodd"><path d="M56 0a4 4 0 014 4v28h-6v6H4a4 4 0 01-4-4V4a4 4 0 014-4h52z" fill="#bbe0fa"/><path d="M4.846 1h50.308c1.337 0 1.822.14 2.311.4.49.262.873.646 1.134 1.135l.093.185c.201.438.308.956.308 2.126V32h-5v5H4.846c-1.337 0-1.822-.14-2.311-.4A2.726 2.726 0 011.4 35.464l-.093-.185c-.2-.437-.307-.955-.307-2.125V4.846c0-1.337.14-1.822.4-2.311A2.726 2.726 0 012.536 1.4l.185-.093c.437-.2.955-.307 2.125-.307z" fill="#FFF"/><path d="M60 20v12.872c0 1.783-.186 2.43-.534 3.082a3.635 3.635 0 01-1.512 1.512c-.652.348-1.299.534-3.082.534H5.128c-.125 0-.245 0-.36-.003 34.211-.215 54.817-14.725 55.226-17.904L60 20zm-28.09-8a4.255 4.255 0 110 8.51 4.255 4.255 0 010-8.51z" fill="#F48120" fill-rule="nonzero"/><path d="M37.382 12.228l2.133 5.372 2.16-5.372h1.691l-3.455 8.203h-.84l-3.394-8.203h1.705zm-19.531-.132c.877 0 1.68.3 2.35.886l-.816 1.07c-.407-.456-.79-.648-1.258-.648-.672 0-1.162.382-1.162.886 0 .432.275.66 1.21 1.007 1.775.649 2.301 1.224 2.301 2.495 0 1.548-1.137 2.626-2.758 2.626-1.187 0-2.05-.468-2.77-1.523l1.009-.97c.359.694.958 1.066 1.702 1.066.696 0 1.211-.48 1.211-1.128 0-.335-.156-.624-.467-.827-.157-.097-.468-.24-1.079-.455-1.465-.528-1.968-1.092-1.968-2.194 0-1.309 1.08-2.291 2.495-2.291zm7.376-.05c.671 0 1.234.145 1.919.492v1.836c-.649-.635-1.212-.9-1.956-.9-1.463 0-2.614 1.211-2.614 2.747 0 1.62 1.115 2.758 2.686 2.758.708 0 1.26-.251 1.884-.876v1.837c-.71.334-1.285.466-1.956.466-2.376 0-4.222-1.823-4.222-4.174 0-2.325 1.895-4.185 4.259-4.185zm-17.437.182c2.53 0 4.293 1.644 4.293 4.004 0 1.177-.54 2.315-1.452 3.07-.767.638-1.642.924-2.853.924H5.5v-7.998zm6.571 0v7.998h-1.56v-7.998h1.56zm34.135 0v1.355H45.63v1.775h2.76v1.355h-2.76v2.159h2.866v1.354H44.07v-7.998h4.425zm3.346 0c1.799 0 2.83.864 2.83 2.361 0 1.225-.647 2.028-1.822 2.267l2.518 3.37H53.45l-2.16-3.213h-.203v3.213h-1.558v-7.998zM7.478 13.583h-.419v5.289h.419c1.008 0 1.644-.194 2.134-.636.54-.48.864-1.248.864-2.015 0-.766-.324-1.511-.864-1.991-.515-.467-1.126-.647-2.134-.647zm44.09-.095h-.48v2.422h.455c.996 0 1.524-.433 1.524-1.237 0-.778-.528-1.185-1.5-1.185z" fill="#000" fill-rule="nonzero"/></g></svg>