<svg width="60" height="38" xmlns="http://www.w3.org/2000/svg"><g fill="none" fill-rule="evenodd"><rect fill="#DCDCDE" width="60" height="38" rx="4"/><path d="M4.846 1h50.308c1.337 0 1.822.14 2.311.4.49.262.873.646 1.134 1.135.262.489.401.974.401 2.31v28.31c0 1.336-.14 1.821-.4 2.31a2.726 2.726 0 01-1.135 1.134c-.489.262-.974.401-2.31.401H4.844c-1.336 0-1.821-.14-2.31-.4A2.726 2.726 0 011.4 35.464c-.262-.489-.401-.974-.401-2.31V4.844c0-1.336.14-1.821.4-2.31A2.726 2.726 0 012.536 1.4C3.024 1.139 3.509 1 4.845 1z" fill="#FFF"/><path d="M33 6c7.18 0 13 5.82 13 13s-5.82 13-13 13h-6c-7.18 0-13-5.82-13-13S19.82 6 27 6h6zm-6 1.1c-6.572 0-11.9 5.328-11.9 11.9S20.428 30.9 27 30.9 38.9 25.572 38.9 19 33.572 7.1 27 7.1zm-2.5 4.827v14.146a7.503 7.503 0 010-14.146zM29.5 26.073V11.927a7.503 7.503 0 010 14.146V11.927z" fill="#069"/></g></svg>