<svg width="60" height="38" xmlns="http://www.w3.org/2000/svg"><g fill="none" fill-rule="evenodd"><path d="M5.128 0h49.744c1.783 0 2.43.186 3.082.534.652.349 1.163.86 1.512 1.512.348.652.534 1.299.534 3.082v27.744c0 1.783-.186 2.43-.534 3.082a3.635 3.635 0 01-1.512 1.512c-.652.348-1.299.534-3.082.534H5.128c-1.783 0-2.43-.186-3.082-.534a3.635 3.635 0 01-1.512-1.512C.186 35.302 0 34.655 0 32.872V5.128c0-1.783.186-2.43.534-3.082A3.635 3.635 0 012.046.534C2.698.186 3.345 0 5.128 0z" fill="#0C4EA3"/><path d="M45 7v17.975l-.006.563c-.037 1.677-.251 2.365-.622 3.058a4.27 4.27 0 01-1.776 1.776l-.22.112c-.703.337-1.506.516-3.401.516H14V13.025c0-2.095.218-2.855.628-3.62a4.27 4.27 0 011.776-1.777l.22-.112c.666-.32 1.421-.497 3.11-.515L45 7zM24 9l-4.77.002c-.81.012-1.235.09-1.579.23l-.092.04-.178.089c-.44.235-.785.58-1.02 1.02l-.089.178c-.164.362-.257.788-.27 1.672L16 20.702l.29.143c.778.365 1.577.594 2.389.594 1.014 0 1.595-.622 1.653-1.481l.005-.146V16H23v3.813l-.002.134c-.052 1.428-.95 2.553-3.82 2.553-.991 0-1.864-.126-2.442-.238l-.405-.086-.331-.084V29h4.539c.963 0 1.434-.08 1.81-.233l.092-.04.178-.088c.44-.235.785-.58 1.02-1.02l.089-.178c.164-.362.257-.788.27-1.672l.002-.23V9z" fill="#FFF"/><path d="M25.5 16.89V12.46c0-1.203.125-1.64.36-2.08.236-.44.581-.785 1.021-1.02l.178-.089c.362-.164.788-.257 1.672-.27L33.5 9v16.539c0 1.203-.125 1.64-.36 2.08-.236.44-.581.785-1.021 1.02l-.178.089c-.392.178-.86.272-1.902.272H25.5v-7.573c.81.713 2.212 1.16 4.489 1.054a13.07 13.07 0 001.923-.259l.172-.036.416-.097v-1.39c-.637.329-1.423.649-2.422.726-1.728.134-2.768-.733-2.768-2.267 0-1.534 1.04-2.401 2.768-2.267.9.07 1.618.33 2.224.626l.198.1v-1.39l-.416-.097c-.48-.104-1.303-.258-2.095-.295-2.169-.1-3.543.3-4.37.955l-.119.1z" fill="#EE1C24"/><path d="M35 16v-3.539c0-1.203.125-1.64.36-2.08.236-.44.581-.785 1.021-1.02l.178-.089c.362-.164.788-.257 1.672-.27L43 9v16.539c0 1.203-.125 1.64-.36 2.08-.236.44-.581.785-1.021 1.02l-.178.089c-.392.178-.86.272-1.902.272H35v-6.69h5.224c1.225 0 2.143-.642 2.143-1.641 0-.875-.75-1.447-1.76-1.568l-.17-.015v-.038c.99-.141 1.534-.77 1.534-1.507 0-.937-.796-1.476-1.875-1.53l-.214-.009-.115-.002H35zm1.5 3.554h2.097c.06 0 .177.01.232.022a.857.857 0 01.686.844.856.856 0 01-.843.862l-.075.003H36.5v-1.73h2.097H36.5zm0-2.574h1.914l.141.008a.85.85 0 01.05.006c.367.06.68.351.68.785 0 .433-.312.724-.68.784l-.043.005-.148.01H36.5V16.98z" fill="#05A651"/></g></svg>