<svg width="60" height="38" xmlns="http://www.w3.org/2000/svg"><g fill="none" fill-rule="evenodd"><rect fill="#A7AAAD" width="60" height="38" rx="4"/><path d="M45 7v17.975l-.006.563c-.037 1.677-.251 2.365-.622 3.058a4.27 4.27 0 01-1.776 1.776l-.22.112c-.703.337-1.506.516-3.401.516H14V13.025c0-2.095.218-2.855.628-3.62a4.27 4.27 0 011.776-1.777l.22-.112c.666-.32 1.421-.497 3.11-.515L45 7z" fill="#FFF"/><path d="M24 9v16.539l-.002.23c-.012.81-.09 1.236-.23 1.58l-.04.092-.089.178a2.448 2.448 0 01-.838.913l-.182.107-.178.089-.092.04c-.344.14-.77.218-1.58.23l-.23.002H16v-6.908l.331.084.405.086c.578.112 1.45.238 2.442.238 2.78 0 3.71-1.056 3.812-2.42l.008-.133.002-.134V16h-2.663v3.812l-.005.146c-.058.86-.64 1.481-1.653 1.481-.722 0-1.433-.181-2.128-.478l-.26-.116-.29-.143v-8.471c.013-.81.092-1.236.232-1.58l.04-.092.088-.178c.201-.377.484-.684.838-.913l.182-.107.178-.089.092-.04c.313-.126.693-.203 1.368-.225l.212-.005L24 9zm9.5 0v16.539c0 1.203-.125 1.64-.36 2.08-.236.44-.581.785-1.021 1.02l-.178.089c-.392.178-.86.272-1.902.272H25.5v-7.573c.81.713 2.212 1.16 4.489 1.054a13.07 13.07 0 001.923-.259l.172-.036.416-.097v-1.39c-.637.329-1.423.649-2.422.726-1.728.134-2.768-.733-2.768-2.267 0-1.534 1.04-2.401 2.768-2.267.9.07 1.618.33 2.224.626l.198.1v-1.39l-.416-.097-.367-.075a12.543 12.543 0 00-1.728-.22c-2.169-.1-3.543.3-4.37.955l-.119.1V12.46c0-1.203.125-1.64.36-2.08.236-.44.581-.785 1.021-1.02l.178-.089c.362-.164.788-.257 1.672-.27L33.5 9zM43 9v16.539c0 1.203-.125 1.64-.36 2.08-.236.44-.581.785-1.021 1.02l-.178.089c-.392.178-.86.272-1.902.272H35v-6.69h5.224c1.225 0 2.143-.642 2.143-1.641 0-.875-.75-1.447-1.76-1.568l-.17-.015v-.038c.99-.141 1.534-.77 1.534-1.507 0-.937-.796-1.476-1.875-1.53l-.214-.009-.115-.002H35v-3.539c0-1.203.125-1.64.36-2.08.236-.44.581-.785 1.021-1.02l.178-.089c.362-.164.788-.257 1.672-.27L43 9zm-4.403 10.554c.06 0 .177.01.232.022a.857.857 0 01.686.844.856.856 0 01-.843.862l-.075.003H36.5v-1.73h2.097zm-.183-2.574l.141.008.05.006c.367.06.68.351.68.785 0 .433-.312.724-.68.784l-.043.005-.148.01H36.5V16.98h1.914z" fill="#8E9196"/></g></svg>