<svg width="60" height="38" viewBox="0 0 60 38" fill="none" xmlns="http://www.w3.org/2000/svg">
<rect x="0.5" y="0.5" width="59" height="37" rx="2.5" fill="white" stroke="#DCDCDE"/>
<path d="M26.2351 25.6377H34.3914V12.3219H26.2351V25.6377Z" fill="#FF5F00"/>
<path d="M27.0696 18.9957C27.0696 21.5909 28.2745 24.0316 30.3136 25.6381C26.6371 28.5422 21.3232 27.8934 18.419 24.2169C15.5149 20.5404 16.1637 15.2265 19.8402 12.3223C22.8988 9.91253 27.2241 9.91253 30.3136 12.3223C28.2745 13.9289 27.0696 16.4005 27.0696 18.9957Z" fill="#EB001B"/>
<path d="M44.0002 18.9951C44.0002 14.3299 40.2001 10.5298 35.535 10.5298C33.6504 10.5298 31.7967 11.1786 30.3137 12.3526C33.9902 15.2567 34.639 20.5707 31.7349 24.2472C31.3333 24.7724 30.8389 25.2667 30.3137 25.6684C33.9902 28.5725 39.3042 27.9237 42.2083 24.2472C43.3823 22.7334 44.0002 20.8796 44.0002 18.9951Z" fill="#F79E1B"/>
</svg>
