<svg width="60" height="38" xmlns="http://www.w3.org/2000/svg" xmlns:xlink="http://www.w3.org/1999/xlink"><defs><path d="M38.65 5c7.732 0 14 6.268 14 14s-6.268 14-14 14A13.94 13.94 0 0130 30.009 13.941 13.941 0 0121.35 33c-7.732 0-14-6.268-14-14s6.268-14 14-14A13.94 13.94 0 0130 7.992 13.933 13.933 0 0138.65 5z" id="a"/></defs><g fill="none" fill-rule="evenodd"><rect fill="#DCDCDE" width="60" height="38" rx="4"/><path d="M4.846 1h50.308c1.337 0 1.822.14 2.311.4.49.262.873.646 1.134 1.135.262.489.401.974.401 2.31v28.31c0 1.336-.14 1.821-.4 2.31a2.726 2.726 0 01-1.135 1.134c-.489.262-.974.401-2.31.401H4.844c-1.336 0-1.821-.14-2.31-.4A2.726 2.726 0 011.4 35.464c-.262-.489-.401-.974-.401-2.31V4.844c0-1.336.14-1.821.4-2.31A2.726 2.726 0 012.536 1.4C3.024 1.139 3.509 1 4.845 1z" fill="#FFF"/><mask id="b" fill="#fff"><use xlink:href="#a"/></mask><use fill="#DCDCDE" xlink:href="#a"/><path fill="#8E9196" mask="url(#b)" d="M0 0h30v38H0z"/><path d="M30 7.992A13.975 13.975 0 0135.35 19c0 4.467-2.092 8.446-5.35 11.009A13.977 13.977 0 0124.65 19c0-4.388 2.02-8.305 5.18-10.872z" fill="#A7AAAD" mask="url(#b)"/></g></svg>