<svg enable-background="new 0 0 512 512" viewBox="0 0 512 512" xmlns="http://www.w3.org/2000/svg"><g fill="#c3c4c7"><path d="m452 96h-392c-15.5 0-27.9 12.5-28 28v.3 263.4.3c.2 15.5 12.5 28 28 28h392c15.6 0 28-12.7 28-28.3v-263.4c0-15.6-12.4-28.3-28-28.3zm-374.9 32h357.7c6.9 0 12.1 5.1 13.1 12v20h-383.9v-20.3c1-6.8 6.3-11.7 13.1-11.7zm357.8 256h-357.8c-6.9 0-12.1-4.9-13.1-11.7v-116.3h384v116c-1 6.9-6.3 12-13.1 12z"/><path d="m96 304h192v16h-192z"/><path d="m96 336h96v16h-96z"/><path d="m352 304h64v48h-64z"/></g></svg>
