<svg width="60" height="38" xmlns="http://www.w3.org/2000/svg"><g fill="none" fill-rule="evenodd"><rect fill="#DCDCDE" width="60" height="38" rx="4"/><path d="M4.846 1h50.308c1.337 0 1.822.14 2.311.4.49.262.873.646 1.134 1.135.262.489.401.974.401 2.31v28.31c0 1.336-.14 1.821-.4 2.31a2.726 2.726 0 01-1.135 1.134c-.489.262-.974.401-2.31.401H4.844c-1.336 0-1.821-.14-2.31-.4A2.726 2.726 0 011.4 35.464c-.262-.489-.401-.974-.401-2.31V4.844c0-1.336.14-1.821.4-2.31A2.726 2.726 0 012.536 1.4C3.024 1.139 3.509 1 4.845 1z" fill="#FFF"/><path d="M28 6h20.032c1.114 0 1.491.116 1.848.334.357.218.603.538.727.945l.043.164c.075.336.07.73-.107 1.548l-4.581 19.804c-.258 1.115-.467 1.519-.78 1.926a3.18 3.18 0 01-1.163.945l-.197.087c-.398.162-.851.247-1.807.247H28V6z" fill="#007B84"/><path d="M28 6v26H11.964c-1.114 0-1.491-.116-1.848-.334a1.632 1.632 0 01-.727-.945c-.123-.407-.146-.811.112-1.926l4.533-19.59c.258-1.115.467-1.519.78-1.926a3.18 3.18 0 011.163-.945l.197-.087c.365-.148.776-.232 1.578-.245L28 6z" fill="#E21836"/><path d="M38.98 6c-1.114 0-1.545.116-2.003.334a3.18 3.18 0 00-1.164.945c-.312.407-.521.811-.78 1.926l-4.532 19.59c-.258 1.115-.235 1.519-.112 1.926.124.407.37.727.727.945.357.218.734.334 1.848.334h-11.5c-1.114 0-1.491-.116-1.848-.334a1.632 1.632 0 01-.727-.945c-.123-.407-.146-.811.112-1.926l4.533-19.59c.258-1.115.467-1.519.78-1.926a3.18 3.18 0 011.163-.945c.458-.218.889-.334 2.003-.334z" fill="#00447C"/><path d="M20.138 12.64c-1.065.01-1.38 0-1.48-.025-.04.184-.758 3.502-.76 3.504-.155.672-.268 1.15-.65 1.459-.218.18-.472.266-.766.266-.472 0-.748-.234-.794-.68l-.009-.152.144-.904s.755-3.024.89-3.423a.291.291 0 00.011-.046c-1.47.013-1.73 0-1.747-.024-.01.033-.047.22-.047.22l-.77 3.408-.067.289-.128.945c0 .28.055.51.165.703.351.614 1.353.706 1.92.706.73 0 1.414-.156 1.877-.439.803-.474 1.014-1.216 1.201-1.876l.087-.338s.777-3.14.91-3.548c.005-.023.007-.035.013-.046zm2.646 2.532c-.187 0-.53.046-.838.196-.111.058-.217.124-.328.19l.1-.363-.055-.061c-.652.132-.798.15-1.401.234l-.05.034c-.07.58-.133 1.017-.392 2.157-.099.42-.201.845-.304 1.264l.027.054a14.99 14.99 0 011.342-.024l.044-.047c.068-.35.077-.432.228-1.14.07-.335.219-1.072.292-1.334.134-.062.266-.124.393-.124.3 0 .264.263.252.367-.012.176-.122.75-.235 1.242l-.075.318c-.052.234-.11.462-.161.695l.022.047c.61-.033.795-.033 1.315-.024l.06-.047c.095-.546.122-.692.289-1.487l.084-.365c.163-.714.245-1.076.121-1.371-.13-.331-.443-.41-.73-.41zm2.955.748c-.323.062-.53.104-.735.13-.203.033-.401.063-.714.106l-.025.023-.023.018c-.032.232-.055.434-.098.67-.037.245-.093.523-.185.923a3.624 3.624 0 01-.148.52c-.04.108-.083.212-.162.513l.018.028.016.026c.292-.014.483-.024.68-.026.196-.007.4 0 .714.002l.028-.023.03-.024c.045-.272.052-.345.08-.477.027-.142.075-.339.191-.864.055-.246.116-.492.174-.744.059-.25.121-.497.18-.743l-.009-.03-.012-.028zm.007-1.008c-.294-.174-.81-.119-1.157.12-.346.236-.386.57-.093.745.29.169.807.119 1.152-.123.345-.24.388-.57.098-.742zm1.779 4.019c.595 0 1.204-.164 1.663-.65.353-.395.515-.982.571-1.224.183-.801.04-1.175-.138-1.403-.271-.348-.75-.459-1.248-.459-.299 0-1.011.03-1.568.543-.4.37-.584.872-.696 1.353-.112.49-.241 1.374.57 1.703.251.107.613.137.846.137zm-.047-1.803c.137-.607.3-1.116.712-1.116.324 0 .348.379.204.988-.026.135-.144.637-.304.851-.112.158-.244.254-.39.254-.043 0-.302 0-.306-.384-.002-.19.037-.383.084-.593zm3.769 1.725l.046-.047c.066-.35.077-.432.223-1.14.073-.335.224-1.072.295-1.334.134-.063.264-.124.395-.124.299 0 .262.263.25.367-.01.176-.12.75-.235 1.242l-.07.317c-.055.235-.114.463-.166.696l.023.047c.61-.033.789-.033 1.312-.024l.063-.047c.092-.546.116-.692.288-1.487l.082-.365c.164-.714.247-1.076.125-1.371-.134-.33-.449-.41-.732-.41-.187 0-.532.044-.838.196a5.57 5.57 0 00-.326.189l.093-.363-.05-.061c-.652.132-.801.15-1.403.235l-.046.033c-.073.58-.133 1.016-.392 2.157-.099.42-.201.845-.304 1.264l.028.054a14.94 14.94 0 011.339-.024zm4.487.023c.039-.187.267-1.298.269-1.298 0 0 .194-.815.206-.845 0 0 .061-.085.122-.118h.09c.849 0 1.807 0 2.558-.553.511-.379.86-.938 1.016-1.618.04-.167.07-.365.07-.563 0-.26-.052-.519-.203-.72-.383-.536-1.145-.546-2.026-.55l-.434.004c-1.127.014-1.579.01-1.764-.012l-.046.228-.403 1.874-1.012 4.165c.984-.012 1.388-.012 1.557.006zm.748-3.323l.428-1.86.014-.096.006-.073.171.018.906.078c.35.135.493.484.393.938a1.365 1.365 0 01-.708.934c-.285.143-.634.155-.994.155h-.233l.017-.094zm2.673 1.61c-.114.483-.244 1.366.564 1.681.258.11.489.142.723.13.248-.013.478-.137.69-.316l-.057.22.036.048c.582-.025.762-.025 1.392-.02l.057-.043c.092-.54.179-1.066.418-2.1.116-.495.232-.986.352-1.48l-.019-.054c-.65.12-.824.147-1.45.235l-.047.039-.019.147a.894.894 0 00-.456-.375c-.278-.11-.931.031-1.493.543-.394.365-.584.865-.691 1.345zm1.365.03c.14-.597.3-1.101.714-1.101.262 0 .4.242.372.654a20.98 20.98 0 01-.075.334c-.042.177-.087.352-.13.528-.045.12-.097.234-.153.31-.107.15-.36.244-.507.244-.041 0-.297 0-.306-.377a2.59 2.59 0 01.085-.593zm7.132-1.969l-.05-.057c-.644.13-.76.151-1.351.231l-.044.043-.007.028-.002-.01c-.44 1.016-.427.797-.785 1.596l-.004-.098-.09-1.733-.056-.057c-.674.13-.69.151-1.313.231l-.048.043c-.007.021-.007.044-.01.069l.003.009c.078.397.06.308.137.936.037.308.085.618.122.922.061.509.095.76.17 1.536-.42.694-.52.956-.924 1.565l.003.006-.285.45c-.033.048-.063.08-.104.095a.43.43 0 01-.187.026h-.158l-.234.78.805.015c.472-.002.77-.223.93-.52l.506-.868h-.008l.053-.06c.34-.734 2.93-5.178 2.93-5.178zm-8.497 10.252h-.342l1.264-4.18h.42l.133-.432.013.48c-.016.296.217.558.829.515h.707l.244-.806h-.267c-.153 0-.224-.038-.215-.121l-.013-.487h-1.31v.002c-.424.009-1.689.04-1.945.109-.31.08-.636.315-.636.315l.128-.431h-1.226l-.255.855-1.281 4.245h-.249l-.244.8h2.442l-.082.266h1.203l.08-.267h.337l.265-.863zm-1.002-3.331a5.478 5.478 0 00-.562.219l.325-1.069h.974l-.235.779s-.3.017-.502.07zm.019 1.526s-.306.039-.507.084c-.199.06-.57.25-.57.25l.335-1.112h.979l-.237.778zm-.546 1.815h-.977l.283-.938h.974l-.28.938zm2.353-2.593h1.408l-.203.655h-1.426l-.215.716h1.249l-.946 1.331a.39.39 0 01-.191.16.561.561 0 01-.254.073h-.346l-.238.785h.906c.47 0 .749-.214.954-.495l.649-.888.139.901c.03.169.15.268.233.306.09.046.184.124.316.135.142.006.245.011.313.011h.445l.268-.878h-.176c-.1 0-.274-.017-.304-.048-.03-.039-.03-.098-.045-.188l-.142-.903h-.578l.254-.302h1.424l.219-.716h-1.319l.206-.655h1.314l.244-.808h-3.919l-.24.808zm-11.893 2.776l.329-1.094h1.35l.247-.813H28.66l.207-.673h1.32l.245-.787h-3.305l-.24.787h.751l-.2.673h-.753l-.25.827h.75l-.437 1.447c-.06.191.028.264.083.353a.362.362 0 00.241.177c.133.03.224.047.347.047h1.523l.27-.901-.674.093c-.13 0-.491-.016-.452-.136zm.155-5.234l-.342.618c-.074.135-.14.22-.199.258-.052.033-.156.046-.306.046h-.178l-.24.792h.594c.285 0 .504-.105.609-.157.112-.06.142-.026.229-.11l.2-.173h1.852l.246-.824H29.35l.237-.45H28.24zm2.734 5.25c-.031-.046-.009-.126.04-.293l.506-1.675h1.8c.263-.004.453-.007.576-.016.132-.014.276-.061.433-.146a.81.81 0 00.315-.29c.078-.108.203-.343.311-.705l.636-2.12-1.869.01s-.575.085-.828.18c-.256.104-.621.396-.621.396l.168-.582h-1.154l-1.616 5.36c-.058.209-.096.36-.105.45-.003.098.123.195.205.268.097.073.24.061.377.073.144.011.35.018.633.018h.887l.272-.92-.794.075a.209.209 0 01-.172-.084zm.873-3.1h1.891l-.12.377c-.017.009-.057-.019-.25.004h-1.638l.117-.381zm.378-1.264h1.908l-.137.454s-.9-.01-1.043.017a2.128 2.128 0 00-1.004.449l.276-.92zm1.435 2.903a.202.202 0 01-.075.116c-.038.025-.1.034-.193.034h-.27l.016-.46h-1.12l-.046 2.245c-.002.162.014.256.132.33.119.094.484.106.975.106h.702l.254-.84-.611.034-.204.012c-.028-.012-.054-.023-.084-.053-.025-.025-.069-.01-.062-.171L33.08 25l.641-.026c.347 0 .495-.113.621-.22.12-.103.16-.221.205-.381l.108-.51h-.881l-.113.36z" fill="#FEFEFE" fill-rule="nonzero"/></g></svg>