<svg width="60" height="38" viewBox="0 0 60 38" fill="none" xmlns="http://www.w3.org/2000/svg">
<rect x="0.5" y="0.5" width="59" height="37" rx="2.5" fill="white" stroke="#DCDCDE"/>
<path d="M39.6388 12.5753C38.9862 12.2877 37.9183 12 36.6427 12C33.3203 12 30.9768 13.8539 30.9768 16.4749C30.9472 18.4247 32.638 19.5114 33.9136 20.1507C35.2188 20.8219 35.6638 21.2374 35.6638 21.8447C35.6638 22.7397 34.6255 23.1553 33.6466 23.1553C32.3117 23.1553 31.5998 22.9635 30.4725 22.4521L30.0276 22.2283L29.5529 25.2648C30.3242 25.6484 31.7778 25.968 33.2906 26C36.8207 26 39.1048 24.1781 39.1345 21.3653C39.1345 19.831 38.2446 18.6484 36.3164 17.6895C35.1298 17.0502 34.4179 16.6347 34.4179 15.9954C34.4179 15.4201 35.0408 14.8128 36.3461 14.8128C37.4436 14.7808 38.2446 15.0685 38.8675 15.3242L39.1642 15.484L39.6388 12.5753ZM48.2415 12.2557H45.6607C44.8597 12.2557 44.2664 12.5114 43.9105 13.3744L38.9269 25.8082H42.4569C42.4569 25.8082 43.0205 24.1461 43.1689 23.7626C43.5545 23.7626 46.9659 23.7626 47.4702 23.7626C47.5592 24.242 47.8855 25.8082 47.8855 25.8082H51.0002L48.2415 12.2557ZM44.1181 20.9817C44.3851 20.2146 45.453 17.1781 45.453 17.1781C45.4233 17.21 45.72 16.379 45.898 15.8995L46.1353 17.0822C46.1353 17.0822 46.7879 20.3105 46.9066 21.0137L44.1181 20.9817ZM24.1244 25.8082L26.2305 12.2557H29.5826L27.4764 25.8082H24.1244ZM21.3063 12.2557L18.0135 21.4931L17.6575 19.6073C17.0346 17.4338 15.1361 15.1005 13.0002 13.9178L15.9963 25.7763H19.5561L24.8363 12.2237L21.3063 12.2557Z" fill="#265697"/>
<path d="M14.3527 13H9.02909L9 13.2727C13.1309 14.3333 15.8655 16.9091 17 20L15.8364 14.0909C15.6327 13.2727 15.08 13.0303 14.3527 13Z" fill="#D97B16"/>
</svg>
