<svg width="60" height="38" xmlns="http://www.w3.org/2000/svg"><g fill="none" fill-rule="evenodd"><path d="M60 32.872c0 1.783-.186 2.43-.534 3.082a3.635 3.635 0 01-1.512 1.512c-.652.348-1.299.534-3.082.534H5.128c-1.783 0-2.43-.186-3.082-.534a3.635 3.635 0 01-1.512-1.512c-.33-.618-.514-1.23-.532-2.81L0 6h60v26.872z" fill="#DCDCDE"/><path fill="#FFF" d="M1 6h58v26H1z"/><path d="M23.516 11.996l-5.867 13.999H13.82l-2.888-11.173c-.175-.687-.327-.939-.86-1.23-.87-.47-2.308-.914-3.573-1.19l.087-.406h6.161c.785 0 1.492.523 1.67 1.427l1.525 8.101 3.768-9.528h3.805zm15 9.428c.015-3.695-5.11-3.898-5.075-5.549.01-.502.49-1.036 1.536-1.173.52-.067 1.949-.12 3.571.627l.636-2.968c-.872-.317-1.993-.621-3.388-.621-3.579 0-6.098 1.903-6.12 4.628-.022 2.015 1.799 3.139 3.171 3.81 1.41.686 1.885 1.125 1.878 1.738-.009.94-1.125 1.354-2.166 1.371-1.821.028-2.878-.492-3.72-.884l-.656 3.067c.846.389 2.407.726 4.028.744 3.803 0 6.292-1.88 6.304-4.79zm9.45 4.57h3.35l-2.923-13.998H45.3a1.65 1.65 0 00-1.542 1.027l-5.432 12.972h3.802l.755-2.09h4.646l.436 2.09zm-4.04-4.96l1.906-5.256 1.098 5.257h-3.004zm-15.235-9.038l-2.995 13.999h-3.621l2.995-13.999h3.62zM54.872 0c1.783 0 2.43.186 3.082.534.652.349 1.163.86 1.512 1.512.348.652.534 1.299.534 3.082V7H0V5.128c0-1.783.186-2.43.534-3.082A3.635 3.635 0 012.046.534c.618-.33 1.23-.514 2.81-.532L54.872 0z" fill="#8E9196"/></g></svg>