<svg id="Layer_1" data-name="Layer 1" xmlns="http://www.w3.org/2000/svg" xmlns:xlink="http://www.w3.org/1999/xlink" viewBox="0 0 106 106"><defs><style>.cls-1,.cls-7{fill:none;}.cls-2{fill:#006088;}.cls-3{clip-path:url(#clip-path);}.cls-4{isolation:isolate;}.cls-5{clip-path:url(#clip-path-2);}.cls-6{clip-path:url(#clip-path-3);}.cls-7{stroke:#6ab3d0;stroke-miterlimit:10;stroke-width:2px;}.cls-8{clip-path:url(#clip-path-4);}.cls-9{clip-path:url(#clip-path-5);}.cls-10{clip-path:url(#clip-path-6);}</style><clipPath id="clip-path" transform="translate(1 1)"><circle class="cls-1" cx="52" cy="52" r="32"/></clipPath><clipPath id="clip-path-2" transform="translate(1 1)"><rect class="cls-1" x="9" y="9" width="85" height="85"/></clipPath><clipPath id="clip-path-3" transform="translate(1 1)"><rect class="cls-1" x="19" y="19" width="65" height="65"/></clipPath><clipPath id="clip-path-4" transform="translate(1 1)"><circle class="cls-1" cx="52" cy="52" r="52"/></clipPath><clipPath id="clip-path-5" transform="translate(1 1)"><rect class="cls-1" x="-11" y="-11" width="125" height="125"/></clipPath><clipPath id="clip-path-6" transform="translate(1 1)"><rect class="cls-1" width="104" height="104"/></clipPath></defs><title>30 Day Money Back badge-1</title><path class="cls-2" d="M18.88,37.44l-8-1.61,0,.05.76.36,1.08.52c.39.19.73.36,1,.52l4.09,2.21-.89,1.67L8.07,36.4l1.37-2.53,7.85,1.55,0,0-5.53-5.84L13.15,27,22,31.76,21,33.5l-4.17-2.26-.95-.53-1-.6-.71-.42,0,0,5.66,6Z" transform="translate(1 1)"/><path class="cls-2" d="M26.4,20a6.61,6.61,0,0,1,1.52,2.3,3.88,3.88,0,0,1,.14,2.38A5.18,5.18,0,0,1,26.59,27a5.14,5.14,0,0,1-2.37,1.41,3.93,3.93,0,0,1-2.39-.2,6.79,6.79,0,0,1-2.26-1.59,6.67,6.67,0,0,1-1.52-2.29A3.85,3.85,0,0,1,17.93,22a5.09,5.09,0,0,1,1.49-2.34,5,5,0,0,1,2.36-1.41,4,4,0,0,1,2.37.19A6.75,6.75,0,0,1,26.4,20Zm-5.22,5.09a4.37,4.37,0,0,0,2.15,1.35,2.16,2.16,0,0,0,2-.7,2.15,2.15,0,0,0,.76-2,4.51,4.51,0,0,0-1.3-2.18,4.52,4.52,0,0,0-2.15-1.36,2.13,2.13,0,0,0-2,.7,2.2,2.2,0,0,0-.77,2A4.49,4.49,0,0,0,21.18,25.12Z" transform="translate(1 1)"/><path class="cls-2" d="M39.4,18.42,37,19.66,29.67,15l-.05,0,.71,1.24c.24.41.48.82.71,1.24l2.17,4.17-1.67.87-4.61-8.87L29.3,12.4,36.6,17h0L36,15.83c-.23-.39-.45-.8-.68-1.21l-2.18-4.2,1.69-.87Z" transform="translate(1 1)"/><path class="cls-2" d="M47.26,16.42l-5.62,1.25L39.47,7.91l5.62-1.25.37,1.69-3.55.79.48,2.15,3.3-.74.38,1.7L42.76,13l.56,2.52,3.56-.79Z" transform="translate(1 1)"/><path class="cls-2" d="M52.32,10.37l2.11-4.1h2.28l-3.35,6.09,0,3.89h-2.1l0-3.83L48,6.23h2.29Z" transform="translate(1 1)"/><path class="cls-2" d="M64.69,8,67.61,9a6.53,6.53,0,0,1,2.64,1.56,2.08,2.08,0,0,1,.29,2.21A2.61,2.61,0,0,1,69.67,14a1.65,1.65,0,0,1-1.32.27l0,.07a3,3,0,0,1,.73.65,1.66,1.66,0,0,1,.36.9,2.81,2.81,0,0,1-.21,1.26,2.53,2.53,0,0,1-1.66,1.66,4.21,4.21,0,0,1-2.78-.2l-3.51-1.28Zm0,6-.89,2.44,1.3.48a2,2,0,0,0,1.38.11,1.35,1.35,0,0,0,.69-.8,1.15,1.15,0,0,0,0-1,2.13,2.13,0,0,0-1.19-.8Zm.58-1.58,1.16.42a2.1,2.1,0,0,0,1.3.17,1,1,0,0,0,.63-.68.88.88,0,0,0-.11-.92,2.59,2.59,0,0,0-1.16-.7l-1-.38Z" transform="translate(1 1)"/><path class="cls-2" d="M74.87,24.25l.74-2.37-3-2.06-1.94,1.55-1.89-1.29,8.59-6.29,2.14,1.47L76.75,25.54Zm1.33-4.13.72-2.33.19-.59c.07-.25.15-.49.23-.74s.16-.47.23-.65l-.55.47-.63.52-.43.34-1.9,1.51Z" transform="translate(1 1)"/><path class="cls-2" d="M86.32,23.77A2.18,2.18,0,0,0,84.39,23a4.31,4.31,0,0,0-2.28,1.2,4.41,4.41,0,0,0-1.43,2.1,2.18,2.18,0,0,0,.63,2,5.2,5.2,0,0,0,.93.81,12.21,12.21,0,0,0,1.18.72L82.1,31a6.65,6.65,0,0,1-1.16-.71,7.28,7.28,0,0,1-1.06-1A4.62,4.62,0,0,1,78.64,27,3.75,3.75,0,0,1,79,24.73a7.12,7.12,0,0,1,1.68-2.16A6.19,6.19,0,0,1,83,21.18a4.21,4.21,0,0,1,2.41,0,4.66,4.66,0,0,1,2.21,1.45,6.76,6.76,0,0,1,.86,1.23,8.55,8.55,0,0,1,.58,1.41l-1.74.65a10.41,10.41,0,0,0-.41-1.15A3.56,3.56,0,0,0,86.32,23.77Z" transform="translate(1 1)"/><path class="cls-2" d="M86.83,39.89l-1.18-2.1,2.4-4.34-1-.47-3.11,1.75-1-1.85L91.62,28l1,1.84-4,2.24.72.08.72.08,4.29.69,1.15,2L90,34.11Z" transform="translate(1 1)"/><path class="cls-2" d="M17.55,74.64l2.33,3.21L15.69,80.9a11.81,11.81,0,0,1-1.3-1.08,11.15,11.15,0,0,1-1.26-1.46,4.46,4.46,0,0,1-1-3.56,5.53,5.53,0,0,1,2.39-3.23,5.69,5.69,0,0,1,2.55-1.11,4.18,4.18,0,0,1,2.48.38,6,6,0,0,1,2.19,1.93,8.12,8.12,0,0,1,.79,1.37,7.62,7.62,0,0,1,.46,1.4L21.25,76a5.85,5.85,0,0,0-.3-1.08,5.07,5.07,0,0,0-.6-1.09,3,3,0,0,0-1.29-1,2.81,2.81,0,0,0-1.58-.15,4.29,4.29,0,0,0-1.67.76,5.36,5.36,0,0,0-1.24,1.23,2.29,2.29,0,0,0,.07,2.84,7.42,7.42,0,0,0,.48.59l.43.42,1.68-1.23-1.11-1.53Z" transform="translate(1 1)"/><path class="cls-2" d="M30.44,81.8l-4.22,4.9a3.84,3.84,0,0,1-1.56,1.12,3.24,3.24,0,0,1-1.91.1,5,5,0,0,1-2.06-1.14A4.13,4.13,0,0,1,19.06,84a3.6,3.6,0,0,1,1-2.71l4.2-4.88,1.61,1.38-4,4.63a2.4,2.4,0,0,0-.75,1.65,2.07,2.07,0,0,0,.81,1.36,1.89,1.89,0,0,0,1.5.57,2.7,2.7,0,0,0,1.47-1l4-4.63Z" transform="translate(1 1)"/><path class="cls-2" d="M32.51,94.39,33,91.94l-3.24-1.66L28,92.06l-2-1,7.71-7.32L36,84.88,34.54,95.43Zm.8-4.27.42-2.4c0-.16.06-.37.11-.62s.09-.5.14-.76.09-.48.13-.67a6.57,6.57,0,0,1-.48.53l-.56.6a4.91,4.91,0,0,1-.38.39L31,88.94Z" transform="translate(1 1)"/><path class="cls-2" d="M42.24,87.41A4.94,4.94,0,0,1,45,88.85a3,3,0,0,1-.13,3.52,2.71,2.71,0,0,1-.87.68,4.32,4.32,0,0,1-1,.35l1.82,4.92-2.28-.55-1.4-4.3L40,93.2l-.91,3.73L37,96.43l2.37-9.71Zm-.56,1.65-.63-.15-.64,2.62.67.17a2.48,2.48,0,0,0,1.54,0,1.22,1.22,0,0,0,.69-.9,1.08,1.08,0,0,0-.23-1.1A3,3,0,0,0,41.68,89.06Z" transform="translate(1 1)"/><path class="cls-2" d="M53.61,98.66l-.71-2.38-3.65,0-.73,2.38H46.24l3.57-10H52.4l3.5,10ZM52.4,94.5l-.72-2.33c0-.16-.1-.36-.18-.6s-.15-.49-.22-.74l-.18-.66c-.05.18-.11.41-.19.69l-.23.78c-.07.25-.12.42-.16.53l-.73,2.32Z" transform="translate(1 1)"/><path class="cls-2" d="M67.2,96.15l-2.6.68-6.11-6.22h-.06L58.85,92l.42,1.36,1.18,4.56-1.82.47-2.52-9.67L58.7,88l6.08,6.15h0l-.39-1.31c-.14-.44-.27-.88-.39-1.33L62.85,87l1.84-.48Z" transform="translate(1 1)"/><path class="cls-2" d="M74.24,93l-1.86,1-3.9-7.24-2.39,1.28-.84-1.55,6.64-3.58.84,1.55-2.39,1.29Z" transform="translate(1 1)"/><path class="cls-2" d="M83.71,86.48l-4.44,3.66-6.35-7.72,4.44-3.66,1.11,1.34-2.81,2.31,1.39,1.7L79.67,82l1.1,1.34-2.61,2.15,1.63,2,2.81-2.31Z" transform="translate(1 1)"/><path class="cls-2" d="M90,79.63,86.25,84l-7.66-6.42,3.7-4.41,1.33,1.11-2.34,2.79L83,78.52l2.17-2.59L86.47,77l-2.17,2.6,2,1.65,2.34-2.79Z" transform="translate(1 1)"/><g class="cls-3"><g class="cls-4"><g class="cls-5"><g class="cls-6"><circle class="cls-7" cx="53" cy="53" r="32"/></g></g></g></g><g class="cls-8"><g class="cls-4"><g class="cls-9"><g class="cls-10"><circle class="cls-7" cx="53" cy="53" r="52"/></g></g></g></g><path class="cls-2" d="M50.44,49.55c0,3.63-3.27,6.75-8.22,6.75-5.58,0-8-2.25-8-4.44,0-1.59.84-2.67,2.34-2.67,3.12,0,2.82,5,5.55,5,1.59,0,2.64-1.83,2.64-4.08,0-2.43-1.08-4-2.94-4h-.6a1.1,1.1,0,0,1-.78-1.86l3.72-4.95H35.77a1,1,0,0,1-1-1V35.63a.87.87,0,0,1,1-.93H49a.7.7,0,0,1,.78.69v.48c0,.48-.21.78-.78,1.47l-5,5.91C48,43.4,50.44,46,50.44,49.55Z" transform="translate(1 1)"/><path class="cls-2" d="M51.79,45.44c0-6.66,3.75-11,9.66-11,5.43,0,9.72,4.44,9.72,11.07S66.67,56.3,61.48,56.3,51.79,52.13,51.79,45.44Zm13.47,2.49c0-5.16-1.68-11.43-4.56-11.43-1.86,0-3,2.25-3,6.93,0,5.31,1.74,10.86,4.62,10.86C64.06,54.29,65.26,52.28,65.26,47.93Z" transform="translate(1 1)"/><path class="cls-2" d="M39.21,71.78v0c0-.32.51-.44.51-1V64c0-.55-.51-.67-.51-1V63c0-.13.12-.21.3-.21h3c3.44,0,5.61,2,5.61,4.63s-2,4.6-5,4.6H39.51C39.33,72,39.21,71.92,39.21,71.78Zm4.07-.57a2.7,2.7,0,0,0,2.77-3c0-2.56-1.56-4.67-3.62-4.67h-.25c-.29,0-.52.13-.52.55v6c0,.71.36,1.12,1,1.12Z" transform="translate(1 1)"/><path class="cls-2" d="M57.57,71.74v0c0,.14-.12.22-.29.22H54.44c-.17,0-.29-.08-.29-.22v0c0-.32.73-.44.52-1l-.39-1H50.65l-.37,1c-.21.55.52.67.52,1v0c0,.14-.11.22-.3.22H48.79c-.16,0-.28-.08-.28-.22v0c0-.32.47-.36.7-1l2.59-6.64c.18-.48-.46-.81-.46-1.08V63a.23.23,0,0,1,.26-.21H53a.78.78,0,0,1,.79.56l3.11,7.42C57.12,71.36,57.57,71.42,57.57,71.74ZM54,68.87l-1.52-4.05L51,68.87Z" transform="translate(1 1)"/><path class="cls-2" d="M66.31,63V63c0,.32-.45.36-.8,1l-2.44,4.22v2.51c0,.55.55.67.55,1v0c0,.14-.12.22-.29.22H60.87c-.18,0-.28-.08-.28-.22v0c0-.32.49-.44.49-1V68.39L58.32,64c-.36-.57-.84-.67-.84-1V63c0-.13.13-.21.31-.21h3c.18,0,.3.08.3.21V63c0,.32-.79.48-.51,1l2,3.51,2-3.51c.31-.55-.52-.67-.52-1V63c0-.13.1-.21.28-.21H66C66.2,62.77,66.31,62.85,66.31,63Z" transform="translate(1 1)"/></svg>