<svg height="79.078606" viewBox="0 0 298 77.08000183" width="300" xmlns="http://www.w3.org/2000/svg" xmlns:xlink="http://www.w3.org/1999/xlink"><clipPath id="a"><path d="m0 51h157v-51h-157z"/></clipPath><g clip-path="url(#a)" transform="matrix(2.07674825 0 0 -2.07674825 -11.15320125 92.76968175)"><path d="m0 0c-1.674 1.908-4.7 2.726-8.571 2.726h-11.235c-.792 0-1.465-.576-1.589-1.357l-4.678-29.669c-.093-.585.36-1.115.953-1.115h6.936l1.742 11.049-.054-.346c.124.781.792 1.357 1.583 1.357h3.296c6.475 0 11.545 2.63 13.026 10.238.044.225.082.444.115.658.441 2.812-.003 4.726-1.524 6.459" fill="#003087" transform="translate(32.4187 40.9816)"/><path d="m0 0c-.424-2.784-2.55-2.784-4.607-2.784h-1.17l.821 5.198c.049.314.32.545.638.545h.537c1.4 0 2.722 0 3.404-.797.408-.477.531-1.185.377-2.162m-.895 7.264h-7.756c-.531 0-.982-.386-1.065-.91l-3.136-19.888c-.062-.392.242-.747.638-.747h3.98c.371 0 .687.27.745.636l.89 5.639c.082.524.534.91 1.064.91h2.454c5.109 0 8.058 2.472 8.828 7.373.347 2.142.014 3.826-.989 5.005-1.103 1.296-3.058 1.982-5.653 1.982" fill="#009cde" transform="translate(117.3312 26.8632)"/><path d="m0 0c-.424-2.784-2.55-2.784-4.607-2.784h-1.17l.821 5.198c.049.314.32.545.638.545h.537c1.4 0 2.722 0 3.404-.797.408-.477.531-1.185.377-2.162m-.895 7.264h-7.756c-.531 0-.982-.386-1.065-.91l-3.136-19.888c-.062-.392.241-.747.638-.747h3.704c.53 0 .981.386 1.064.909l.847 5.366c.082.524.534.91 1.064.91h2.454c5.109 0 8.058 2.472 8.828 7.373.347 2.142.014 3.826-.989 5.005-1.103 1.296-3.058 1.982-5.653 1.982" fill="#003087" transform="translate(62.0115 26.8632)"/><path d="m0 0c-.359-2.122-2.043-3.547-4.192-3.547-1.077 0-1.94.347-2.494 1.003-.549.65-.756 1.577-.582 2.608.334 2.104 2.046 3.574 4.162 3.574 1.055 0 1.911-.35 2.476-1.012.569-.667.793-1.599.63-2.626m5.176 7.229h-3.714c-.318 0-.589-.231-.639-.546l-.163-1.038-.259.376c-.805 1.167-2.598 1.558-4.388 1.558-4.103 0-7.608-3.11-8.29-7.471-.355-2.176.149-4.255 1.383-5.706 1.133-1.333 2.75-1.888 4.677-1.888 3.308 0 5.142 2.124 5.142 2.124l-.166-1.032c-.062-.392.241-.747.639-.747h3.344c.531 0 .982.385 1.065.909l2.008 12.714c.062.392-.242.747-.639.747" fill="#003087" transform="translate(79.1228 19.7234)"/><path d="m0 0c-.359-2.122-2.043-3.547-4.192-3.547-1.077 0-1.94.347-2.494 1.003-.55.65-.756 1.577-.582 2.608.334 2.104 2.046 3.574 4.162 3.574 1.055 0 1.911-.35 2.476-1.012.569-.667.793-1.599.63-2.626m5.176 7.229h-3.714c-.318 0-.589-.231-.639-.546l-.163-1.038-.26.376c-.804 1.167-2.597 1.558-4.387 1.558-4.103 0-7.608-3.11-8.29-7.471-.355-2.176.149-4.255 1.383-5.706 1.133-1.333 2.75-1.888 4.677-1.888 3.308 0 5.142 2.124 5.142 2.124l-.166-1.032c-.062-.392.241-.747.639-.747h3.344c.531 0 .982.385 1.065.909l2.008 12.714c.062.392-.242.747-.639.747" fill="#009cde" transform="translate(134.4426 19.7234)"/><path d="m0 0h-3.733c-.357 0-.691-.177-.891-.473l-5.15-7.584-2.182 7.288c-.137.456-.557.769-1.033.769h-3.669c-.443 0-.755-.436-.612-.855l4.11-12.066-3.866-5.455c-.303-.428.003-1.02.528-1.02h3.729c.353 0 .684.173.886.463l12.414 17.918c.297.429-.009 1.015-.531 1.015" fill="#003087" transform="translate(104.0795 26.9523)"/><path d="m0 0-3.183-20.252c-.062-.392.241-.747.638-.747h3.202c.53 0 .982.386 1.064.91l3.139 19.888c.062.392-.241.747-.639.747h-3.582c-.319 0-.59-.231-.639-.546" fill="#009cde" transform="translate(143.996 33.5807)"/><path d="m0 0c-1.674 1.908-4.7 2.726-8.571 2.726h-11.235c-.792 0-1.465-.576-1.589-1.357l-4.678-29.669c-.093-.585.36-1.115.953-1.115h6.936l1.742 11.049-.054-.346c.124.781.792 1.357 1.583 1.357h3.296c6.475 0 11.545 2.63 13.026 10.238.044.225.082.444.115.658.441 2.812-.003 4.726-1.524 6.459" fill="#003087" transform="translate(32.4187 40.9816)"/><path d="m0 0c.074.47.376.855.782 1.05.185.088.391.137.607.137h8.808c1.043 0 2.016-.068 2.905-.211.255-.041.502-.088.742-.142.24-.053.473-.113.699-.179.113-.033.224-.067.333-.103.437-.146.844-.316 1.218-.515.441 2.813-.003 4.726-1.524 6.459-1.675 1.908-4.7 2.726-8.571 2.726h-11.236c-.791 0-1.464-.576-1.588-1.357l-4.678-29.668c-.093-.586.36-1.115.952-1.115h6.937l1.742 11.049 1.872 11.869z" fill="#003087" transform="translate(17.8489 34.4853)"/><path d="m0 0c-.034-.215-.071-.433-.115-.658-1.481-7.607-6.551-10.238-13.026-10.238h-3.297c-.791 0-1.459-.576-1.582-1.357l-1.688-10.702-.479-3.036c-.081-.512.315-.976.833-.976h5.847c.692 0 1.281.504 1.389 1.187l.057.298 1.102 6.984.071.386c.108.683.697 1.187 1.389 1.187h.875c5.664 0 10.099 2.301 11.395 8.956.541 2.781.261 5.103-1.17 6.734-.434.494-.973.902-1.601 1.235" fill="#009cde" transform="translate(33.9429 34.5226)"/><path d="m0 0c-.226.066-.459.126-.699.179s-.488.1-.742.141c-.89.144-1.862.212-2.906.212h-8.807c-.217 0-.423-.049-.607-.138-.407-.195-.708-.579-.782-1.05l-1.872-11.869-.054-.346c.123.781.791 1.357 1.582 1.357h3.297c6.475 0 11.545 2.63 13.026 10.238.044.225.081.443.115.658-.375.198-.781.369-1.218.514-.109.036-.22.071-.333.104" fill="#012169" transform="translate(32.3922 35.1407)"/></g></svg>