<svg width="60" height="38" viewBox="0 0 60 38" fill="none" xmlns="http://www.w3.org/2000/svg">
<rect x="0.5" y="0.5" width="59" height="37" rx="2.5" fill="white" stroke="#DCDCDE"/>
<path d="M25.523 27.9831L25.9043 25.7413L25.0551 25.7231H21L23.8181 9.18086C23.8268 9.13092 23.8552 9.08435 23.8968 9.05129C23.9383 9.01822 23.9916 9 24.047 9H30.8844C33.1543 9 34.7208 9.43729 35.5386 10.3004C35.922 10.7053 36.1662 11.1284 36.2843 11.5941C36.4082 12.0826 36.4104 12.6664 36.2894 13.3783L36.2807 13.4303V13.8865L36.6641 14.0876C36.987 14.2462 37.2436 14.4277 37.4404 14.6355C37.7684 14.9817 37.9806 15.4217 38.0702 15.9434C38.1628 16.4799 38.1322 17.1183 37.9806 17.841C37.8056 18.6724 37.5228 19.3965 37.1408 19.989C36.7895 20.5349 36.3419 20.9878 35.8105 21.3387C35.3032 21.672 34.7004 21.9251 34.0188 22.0871C33.3584 22.2463 32.6054 22.3266 31.7795 22.3266H31.2474C30.8669 22.3266 30.4973 22.4535 30.2072 22.6809C29.9163 22.9131 29.7239 23.2302 29.6649 23.5771L29.6248 23.7789L28.9512 27.73L28.9206 27.8751C28.9126 27.921 28.8988 27.9439 28.8783 27.9595C28.8601 27.9736 28.8339 27.9831 28.8084 27.9831H25.523Z" fill="#253B80"/>
<path d="M36.4461 13.5488C36.4257 13.6696 36.4024 13.7931 36.3761 13.92C35.4744 18.2059 32.3896 19.6864 28.4497 19.6864H26.4437C25.9618 19.6864 25.5558 20.0104 25.4807 20.4504L24.4537 26.4807L24.1628 28.19C24.114 28.4789 24.3545 28.7393 24.6694 28.7393H28.2274C28.6487 28.7393 29.0066 28.4559 29.0729 28.0713L29.1079 27.9039L29.7778 23.9683L29.8208 23.7523C29.8864 23.3663 30.2451 23.0829 30.6664 23.0829H31.1985C34.6456 23.0829 37.3442 21.7872 38.1329 18.0378C38.4624 16.4715 38.2918 15.1637 37.42 14.2439C37.1561 13.9666 36.8288 13.7364 36.4461 13.5488Z" fill="#179BD7"/>
</svg>
