<svg xmlns="http://www.w3.org/2000/svg" viewBox="0 0 130.54 46.118" height="32" width="90"><defs><clipPath id="a" clipPathUnits="userSpaceOnUse"><path d="M0 216h432V0H0Z"/></clipPath></defs><g clip-path="url(#a)" transform="matrix(.35278 0 0 -.35278 -10.926 61.159)"><path d="M33.977 61.067h2.77l-2.574-10.75c-.382-1.596-.31-2.797.218-3.598.526-.802 1.505-1.203 2.936-1.203 1.422 0 2.588.401 3.499 1.203.912.801 1.559 2.002 1.94 3.597l2.574 10.751h2.806L45.509 50.05c-.573-2.394-1.594-4.186-3.056-5.374-1.463-1.19-3.381-1.784-5.754-1.784-2.375 0-4.004.593-4.891 1.778-.888 1.184-1.043 2.978-.468 5.38zM47.773 43.363l4.406 18.405 8.372-10.823a17.354 17.354 0 0 0 1.358-2.152l2.94 12.274h2.592l-4.403-18.39-8.548 11.015a10.15 10.15 0 0 0-1.189 1.982l-2.947-12.31ZM67.212 43.363l4.238 17.704h2.804l-4.237-17.704ZM74.049 43.363l4.238 17.704h9.63l-.585-2.442h-6.825l-1.057-4.414h6.825l-.604-2.527h-6.826l-1.991-8.32ZM86.769 43.363l4.238 17.704h2.804l-4.237-17.704ZM93.606 43.363l4.238 17.704h9.63l-.585-2.442h-6.825L99 54.187h6.825l-.604-2.528h-6.825l-1.37-5.72h6.824l-.615-2.576ZM109.882 45.964h2.358c1.296 0 2.29.089 2.98.266a5.61 5.61 0 0 1 1.907.895 7.492 7.492 0 0 1 1.978 2.134c.529.85.93 1.84 1.2 2.97.269 1.129.343 2.117.22 2.966-.122.852-.44 1.563-.955 2.136-.387.418-.898.718-1.536.896-.64.176-1.68.265-3.125.265h-2.028Zm-3.427-2.601 4.238 17.705h3.783c2.46 0 4.16-.126 5.102-.38.94-.255 1.717-.681 2.328-1.277.81-.782 1.327-1.786 1.549-3.01.22-1.226.143-2.625-.233-4.197s-.967-2.965-1.773-4.178a10.608 10.608 0 0 0-2.987-3.005 9.18 9.18 0 0 0-2.881-1.277c-1.025-.253-2.553-.381-4.59-.381h-.754ZM136.88 53.666h.72c1.555 0 2.634.175 3.236.521.603.346 1.008.959 1.218 1.838.226.943.109 1.609-.353 1.995-.462.387-1.434.582-2.92.582h-.72zm-.741-2.356-1.902-7.947h-2.628l4.239 17.704h4.243c1.257 0 2.166-.07 2.726-.211.558-.14 1.019-.373 1.383-.696.443-.411.734-.965.874-1.662.139-.698.109-1.466-.091-2.303a7.135 7.135 0 0 0-1.016-2.323c-.476-.709-1.034-1.266-1.672-1.668a5.366 5.366 0 0 0-1.715-.689c-.627-.138-1.568-.205-2.825-.205h-.553ZM148.446 50.316h4.809l-.803 4.04c-.038.257-.074.553-.105.888-.03.335-.05.708-.062 1.12a19.99 19.99 0 0 0-1.105-2.008Zm6.092-6.953-.867 4.56h-6.837l-3.095-4.56h-2.945l12.76 18.405 3.942-18.405ZM161.516 43.363l1.938 8.103-3.512 9.601h2.947l2.18-6.01c.05-.154.11-.355.18-.605.07-.25.137-.519.201-.81.176.282.357.55.538.8.181.25.364.478.55.688l5.132 5.937h2.806l-8.24-9.6-1.939-8.104ZM188.28 52.107c.001.137.041.515.12 1.136.06.516.106.944.14 1.283a11.214 11.214 0 0 0-.59-1.21 14.258 14.258 0 0 0-.784-1.234l-6.773-9.433-2.21 9.626c-.094.396-.166.78-.214 1.15-.048.37-.08.737-.097 1.101-.096-.372-.218-.76-.367-1.168a15.425 15.425 0 0 0-.536-1.276l-3.938-8.719h-2.58l8.495 18.455 2.418-11.175c.035-.177.086-.472.148-.883.062-.41.135-.919.22-1.523.286.508.698 1.152 1.24 1.934.144.21.254.371.328.484l7.647 11.163-.245-18.455h-2.606zM192.942 43.363l4.239 17.704h9.63l-.585-2.442H199.4l-1.062-4.438h6.825l-.604-2.528h-6.826l-1.37-5.72h6.826l-.618-2.576ZM205.791 43.363l4.406 18.405 8.372-10.823a17.354 17.354 0 0 0 1.358-2.152l2.939 12.274h2.594l-4.404-18.39-8.548 11.015a10.15 10.15 0 0 0-1.189 1.982l-2.947-12.31ZM234.41 58.625l-3.653-15.262h-2.805l3.652 15.262h-4.585l.585 2.442h11.952l-.584-2.442ZM237.321 46.907l2.494 1.063c.025-.789.27-1.392.735-1.807.466-.416 1.14-.623 2.021-.623.832 0 1.552.238 2.156.714.605.475 1.004 1.112 1.195 1.91.25 1.041-.372 1.968-1.857 2.781-.208.121-.368.21-.478.267-1.675.951-2.737 1.812-3.185 2.582-.447.77-.539 1.711-.273 2.823.345 1.443 1.103 2.612 2.272 3.507 1.17.895 2.527 1.343 4.076 1.343 1.273 0 2.278-.252 3.013-.756.736-.505 1.156-1.228 1.26-2.17l-2.469-1.162c-.214.556-.496.963-.846 1.222-.35.258-.795.387-1.328.387-.754 0-1.402-.203-1.943-.604a2.776 2.776 0 0 1-1.054-1.622c-.254-1.064.483-2.055 2.212-2.974l.312-.17c1.513-.805 2.497-1.594 2.948-2.364.452-.77.541-1.732.264-2.884-.4-1.678-1.234-3.01-2.5-3.997-1.266-.987-2.776-1.48-4.527-1.48-1.47 0-2.592.345-3.364 1.04-.774.692-1.152 1.683-1.134 2.974M258.046 43.363l4.238 17.704h2.805l-4.238-17.704ZM264.883 43.363l4.406 18.405 8.372-10.823a17.354 17.354 0 0 0 1.358-2.152l2.939 12.274h2.593l-4.403-18.39-8.548 11.015a10.352 10.352 0 0 0-1.19 1.982l-2.946-12.31ZM293.502 58.625l-3.654-15.262h-2.804l3.652 15.262h-4.585l.585 2.442h11.952l-.584-2.442ZM296.556 43.363l4.238 17.704h9.63l-.584-2.442h-6.825l-1.063-4.438h6.825l-.605-2.528h-6.825l-1.37-5.72h6.826l-.617-2.576ZM314.642 53.523h.508c1.484 0 2.513.175 3.085.53.572.356.968.984 1.182 1.888.234.974.138 1.663-.291 2.06-.425.402-1.346.6-2.76.6h-.508Zm-.712-2.238-1.897-7.921h-2.628l4.239 17.704h3.913c1.147 0 2.019-.076 2.614-.23.596-.154 1.076-.407 1.439-.763.432-.425.712-.98.842-1.657.127-.675.094-1.417-.098-2.222-.34-1.42-.94-2.53-1.8-3.333-.86-.801-1.961-1.285-3.304-1.444l4.014-8.055h-3.172l-3.844 7.922zM322.926 43.363l4.238 17.704h9.63l-.584-2.442h-6.826l-1.057-4.414h6.826l-.605-2.527h-6.825l-1.992-8.32ZM340.045 50.316h4.81l-.803 4.04c-.04.257-.074.553-.105.888-.03.335-.05.708-.062 1.12a19.604 19.604 0 0 0-1.106-2.007Zm6.093-6.953-.867 4.56h-6.837l-3.095-4.56h-2.946l12.76 18.405 3.943-18.405ZM367.356 56.763a6.19 6.19 0 0 1-2.143 1.56c-.8.345-1.688.52-2.663.52-1.885 0-3.57-.621-5.048-1.862-1.481-1.242-2.457-2.85-2.93-4.826-.457-1.911-.258-3.486.596-4.727.854-1.242 2.158-1.864 3.909-1.864 1.023 0 2.039.186 3.05.557 1.012.37 2.033.93 3.06 1.682l-.779-3.254a10.776 10.776 0 0 0-2.76-1.245 10.762 10.762 0 0 0-2.987-.411c-1.32 0-2.488.22-3.5.665a6.046 6.046 0 0 0-2.484 1.959c-.638.846-1.047 1.843-1.222 2.993-.178 1.148-.111 2.372.199 3.67s.83 2.517 1.555 3.658a12.426 12.426 0 0 0 2.68 3.005 11.92 11.92 0 0 0 3.42 1.978c1.216.446 2.469.67 3.758.67 1.014 0 1.944-.151 2.79-.454a7.408 7.408 0 0 0 2.349-1.373ZM367.627 43.363l4.238 17.704h9.63l-.585-2.442h-6.824l-1.063-4.438h6.825l-.605-2.528h-6.825l-1.369-5.72h6.825l-.617-2.576Z" fill="#696a6a"/><path d="M316.463 76.495H297.18l26.818 96.855h19.284zM306.452 170.288c-1.337 1.843-3.399 2.773-6.2 2.773H194.216l-5.252-18.97h19.294v.011h77.17l-5.615-20.272h-77.17l.006.042h-19.286l-16.007-57.787h19.296l10.742 38.786h86.746c2.71 0 5.26.924 7.657 2.772 2.393 1.85 3.968 4.131 4.723 6.855l10.741 38.794c.784 2.815.513 5.151-.809 6.996M156.12 82.541a8.86 8.86 0 0 0-8.538-6.488H48.09c-2.711 0-4.726.924-6.051 2.77-1.324 1.848-1.608 4.134-.851 6.857l24.276 87.387h19.3l-21.682-78.05h77.206l21.683 78.05h19.297z" fill="#66686c"/><path d="M376.586 173.169 401 124.616l-51.322-48.54z" fill="#27803b"/><path d="m359.472 173.169 24.396-48.553-51.343-48.54z" fill="#e9661c"/></g></svg>