<svg xmlns="http://www.w3.org/2000/svg" viewBox="0 0 178.86 163.36"><g id="Layer_2" data-name="Layer 2"><g id="Lockup"><path d="M173,53.13s-7.49-3.56-15.28-1.25c-5.82,1.72-12.2,6.14-15.83,15.32-7,17.61-.94,48.32-3.31,48.32s-9.83-28.3-19.81-57.77S100.16-2.33,84.58.14c-13.82,2.18-9.53,37.08-4.12,69.77,4.9,29.63,10.57,57.37,7.33,57.37C82,127.29,63,45.39,43.53,48.5s5.61,93.35.34,93.52c-4.33.14-14.95-54.93-30.71-52.4-11.94,1.92-1.3,44.76-.81,56.71.12,3,1.05,8.63-3.44,8.63H0v8.33l14.59,0c3-.15,5.37-1.3,6.57-4.25,4.05-10-6.59-52.48-4.1-52.79,1.71-.21,5.4,12.72,10.55,27.35s10.31,29.77,20.09,29.77c21.09,0-.42-82.88,3.76-82.88,2.21,0,8.24,16.84,14.87,35.31,8.11,22.57,18,47.6,29.94,47.6,14.25,0,9.61-32.33,5.2-63.31-3.82-26.81-8.3-52-5.91-52,5.38,0,25.69,115.27,50.08,115.27,12.22,0,12.36-24.1,12.36-50.08,0-18.25-1.52-34.88,9.92-38.88,5.44-1.9,10.94,1.47,10.94,1.47L173,53.13" fill="#50575E"/></g></g></svg>
