<?xml version="1.0" encoding="UTF-8"?>
<svg width="682px" height="171px" viewBox="0 0 151 171" version="1.1" xmlns="http://www.w3.org/2000/svg" xmlns:xlink="http://www.w3.org/1999/xlink">
    <!-- Generator: Sketch 49.1 (51147) - http://www.bohemiancoding.com/sketch -->
    <title>Group</title>
    <desc>Created with Sketch.</desc>
    <defs>
        <linearGradient x1="0%" y1="0%" x2="100%" y2="100%" id="linearGradient-1">
            <stop stop-color="#46A1FF" offset="0%"></stop>
            <stop stop-color="#8941FA" offset="100%"></stop>
        </linearGradient>
    </defs>
    <g id="Page-1" stroke="none" stroke-width="1" fill="none" fill-rule="evenodd">
        <g id="Logo-Treatment-1" transform="translate(-209.000000, -312.000000)" fill="#50575e">
            <g id="Group" transform="translate(209.000000, 312.000000)">
                <g id="Logo">
                    <path d="M74.6762903,89.7477304 C73.4591341,94.6077946 70.5059512,98.7297754 66.5705457,100.883523 L63.5244491,102.549949 L69.0787355,111.945495 L71.9998515,110.338283 C76.1646473,108.048307 79.6959629,104.503981 82.2115045,100.089585 C84.7503267,95.6328933 86.1410426,90.4620197 86.2329401,85.1388837 L86.2341654,85.0820875 L86.2329401,85.0240829 C86.1410426,79.7009469 84.7503267,74.5312817 82.2115045,70.0745904 C79.6959629,65.6601941 76.1646473,62.1158678 71.9998515,59.8246837 L69.0787355,58.2174713 L63.5244491,67.6130177 L66.5705457,69.2794432 C70.6360477,71.5043897 73.6533131,75.8298515 74.7912817,80.899603 L38.4300742,80.899603 C36.7717153,77.7575063 33.4379244,75.6071056 29.6044164,75.6071056 C24.1224227,75.6071056 19.6623295,80.0045838 19.6623295,85.4111014 C19.6623295,90.817619 24.1224227,95.2163057 29.6044164,95.2163057 C33.5087299,95.2163057 36.894696,92.985122 38.5202373,89.7477311 L74.6762903,89.7477304 Z M72.2927195,170.872059 C32.366553,170.872059 0,132.621045 0,85.4360293 C0,38.2510132 32.366553,0 72.2927195,0 C112.218886,0 144.585439,38.2510132 144.585439,85.4360293 C144.585439,132.621045 112.218886,170.872059 72.2927195,170.872059 Z M112.100191,91.3898482 C110.036785,111.504172 98.8093578,128.449992 83.1867786,136.786953 L89.0939515,146.531736 C109.354292,135.663113 123.482005,112.590551 123.956197,85.7404361 C123.482005,58.8927379 109.354292,35.8201763 89.0939515,24.9503448 L83.1867786,34.6951276 C98.8093578,43.0320889 110.035559,59.9791169 112.100191,80.0922324 L112.26193,85.7404361 L112.100191,91.3898482 Z M78.9760665,129.377991 L80.3606558,128.61668 C87.4428918,124.720701 93.4664682,118.661631 97.7758494,111.096856 C102.178354,103.370152 104.589745,94.3915145 104.749034,85.1301039 L104.750259,85.10231 L104.749034,85.0757245 C104.589745,75.814314 102.178354,66.8356761 97.7758494,59.1089721 C93.4664682,51.5441978 87.4428918,45.4851278 80.3606558,41.5891482 L78.9760665,40.827837 L73.3556138,50.3357674 L74.7977923,51.1248725 C79.7908912,53.8571336 84.1529604,58.0455534 87.4147098,63.2393872 C90.7426255,68.5383545 92.8489168,74.7774807 93.5093537,81.2897121 L93.6159548,85.10231 L93.5093537,88.9161164 C92.8489168,95.4271394 90.7426255,101.667474 87.4147098,106.966441 C84.1541857,112.159067 79.7908912,116.348695 74.7977923,119.079748 L73.3556138,119.870061 L78.9760665,129.377991 Z" id="Combined-Shape"></path>
                </g>
            </g>
        </g>
    </g>
</svg>
