<svg width="32" height="32" viewBox="0 0 32 32" fill="none" xmlns="http://www.w3.org/2000/svg">
<mask id="mask0" mask-type="alpha" maskUnits="userSpaceOnUse" x="2" y="2" width="28" height="28">
<path fill-rule="evenodd" clip-rule="evenodd" d="M2.6665 15.9998C2.6665 23.3465 8.65317 29.3332 15.9998 29.3332C17.8398 29.3332 19.3332 27.8398 19.3332 25.9998C19.3332 25.1865 19.0265 24.3998 18.4798 23.7732C18.3732 23.6398 18.3065 23.4932 18.3065 23.3332C18.3065 22.9598 18.5998 22.6665 18.9732 22.6665H21.3332C25.7465 22.6665 29.3332 19.0798 29.3332 14.6665C29.3332 8.05317 23.3465 2.6665 15.9998 2.6665C8.65317 2.6665 2.6665 8.65317 2.6665 15.9998ZM5.33317 15.9998C5.33317 10.1198 10.1198 5.33317 15.9998 5.33317C21.8798 5.33317 26.6665 9.51984 26.6665 14.6665C26.6665 17.6132 24.2798 19.9998 21.3332 19.9998H18.9732C17.1332 19.9998 15.6398 21.4932 15.6398 23.3332C15.6398 24.1332 15.9332 24.9198 16.4798 25.5332C16.5598 25.6265 16.6665 25.7865 16.6665 25.9998C16.6665 26.3732 16.3732 26.6665 15.9998 26.6665C10.1198 26.6665 5.33317 21.8798 5.33317 15.9998ZM8.6665 13.3332C7.56193 13.3332 6.6665 14.2286 6.6665 15.3332C6.6665 16.4377 7.56193 17.3332 8.6665 17.3332C9.77107 17.3332 10.6665 16.4377 10.6665 15.3332C10.6665 14.2286 9.77107 13.3332 8.6665 13.3332ZM10.6665 9.99984C10.6665 8.89527 11.5619 7.99984 12.6665 7.99984C13.7711 7.99984 14.6665 8.89527 14.6665 9.99984C14.6665 11.1044 13.7711 11.9998 12.6665 11.9998C11.5619 11.9998 10.6665 11.1044 10.6665 9.99984ZM19.3332 7.99984C18.2286 7.99984 17.3332 8.89527 17.3332 9.99984C17.3332 11.1044 18.2286 11.9998 19.3332 11.9998C20.4377 11.9998 21.3332 11.1044 21.3332 9.99984C21.3332 8.89527 20.4377 7.99984 19.3332 7.99984ZM21.3332 15.3332C21.3332 14.2286 22.2286 13.3332 23.3332 13.3332C24.4377 13.3332 25.3332 14.2286 25.3332 15.3332C25.3332 16.4377 24.4377 17.3332 23.3332 17.3332C22.2286 17.3332 21.3332 16.4377 21.3332 15.3332Z" fill="#fff"/>
</mask>
<g mask="url(#mask0)">
<rect width="32" height="32" fill="#2C3338"/>
</g>
</svg>
