<svg version="1.1" id="Layer_1" xmlns="http://www.w3.org/2000/svg" x="0" y="0" viewBox="0 0 194 126" xml:space="preserve"><style>.st0,.st2{fill:none;stroke:#c3c4c7}.st2{fill:#3c434a}.st5{fill:none;stroke:#fff;stroke-width:2;stroke-linecap:round}.st7{fill:none;stroke:#c3c4c7;stroke-width:1;stroke-miterlimit:4}</style><path class="st0" d="M7.6 125.2H0M150.1 124.8h26.3M180.1 124.8h7M190.3 124.8h3.7"/><path fill="#2c3338" d="M84.6 105.9h30.6v13.5H84.6z"/><path class="st2" d="M24.5 24.4c0-5.2 4.3-9.5 9.5-9.5h123.4c5.2 0 9.5 4.3 9.5 9.5v100.7H24.5V24.4z"/><circle cx="166" cy="20" r="19" fill="#2c3338" stroke="#2c3338" stroke-width="2"/><circle cx="166" cy="20" r="17" fill="#c9356e"/><path class="st5" d="M166 11v13M166 28v1"/><path class="st0" d="M24 45.9h142.7"/><path class="st2" d="M40.7 31.4c0 1.8-1.4 3.2-3.2 3.2s-3.2-1.4-3.2-3.2 1.4-3.2 3.2-3.2 3.2 1.5 3.2 3.2zM52.3 31.4c0 1.8-1.4 3.2-3.2 3.2s-3.2-1.4-3.2-3.2c0-1.8 1.4-3.2 3.2-3.2s3.2 1.4 3.2 3.2zM63.9 31.4c0 1.8-1.4 3.2-3.2 3.2s-3.2-1.4-3.2-3.2c0-1.8 1.4-3.2 3.2-3.2s3.2 1.4 3.2 3.2z"/><path class="st0" d="M43.1 125.2H11"/><path d="M24.8 46.7h141.9v78.1H24.8V46.7z" fill="#2c3338"/><path class="st0" d="M167.1 62.5c13.4 11 34.9 35.6 13.8 45.3-26.4 12.2-44.5-28.8-70.1-28.4M24.4 69.6C14.2 75.2-6.4 92.8 7.1 107c13.8 14.6 35.1-8.3 69.7-18.1"/><path class="st0" d="M76.7 88.7c-1.8-5.7 3.8-8.7 6.9-9.4l5 11c-3.2 1.4-10.2 4.1-11.9-1.6zM111 79.1c.1 6-6.1 7.3-9.2 7.2l-1.8-12c3.4-.5 10.9-1.1 11 4.8zM94.6 78.3l6.3-.8"/><path class="st7" d="M78.5 73.1l-4.7-3.9M88.6 67.3L87 60.2M86.2 57.9l-.8-3.2"/><path class="st0" d="M98.7 67.1l2-8.6"/><path class="st7" d="M86.4 100.5l-3.2 7.1M98.2 98.6l1.6 5.5M100.6 106.5l.8 2.4M107.5 92.8l7.1 5.6"/><path class="st0" d="M95.8 84.2l5.5-.8"/></svg>