<svg viewBox="0 0 194 126" fill="none" xmlns="http://www.w3.org/2000/svg"><path d="M7.64 125.176H0M150.139 124.782h26.278M180.088 124.782h7.029M190.333 124.782H194" stroke="#2C3338"/><path fill="#2c3338" d="M84.571 105.855h30.557v13.453H84.571z"/><path d="M24.538 24.375a9.5 9.5 0 019.5-9.5h123.439a9.5 9.5 0 019.5 9.5V125.07H24.537V24.375z" fill="#FACFD2" stroke="#2C3338"/><circle cx="166.019" cy="20.032" r="19.032" fill="#fff" stroke="#fff" stroke-width="2"/><circle cx="166.019" cy="20.032" r="17.032" fill="#fff" stroke="#D63638" stroke-width="2"/><path stroke="#D63638" stroke-width="2" stroke-linecap="round" d="M166.018 11.014v13.027M166.018 28.045v1.005"/><path d="M24.038 45.92h142.651" stroke="#2C3338"/><path d="M40.682 31.439a3.237 3.237 0 11-3.236-3.238 3.237 3.237 0 013.236 3.238zM52.3 31.439a3.237 3.237 0 11-3.235-3.239A3.237 3.237 0 0152.3 31.44zM63.921 31.439a3.237 3.237 0 11-3.236-3.239 3.237 3.237 0 013.236 3.239z" fill="#fff" stroke="#2C3338"/><path d="M43.118 125.176H11.034" stroke="#2C3338"/><path d="M24.826 46.709H166.69v78.073H24.826V46.709z" fill="#fff"/><path d="M167.084 62.481c13.398 11.04 34.914 35.567 13.792 45.346-26.402 12.223-44.529-28.785-70.144-28.39M24.433 69.578C14.187 75.23-6.366 92.8 7.093 107.038c13.793 14.589 35.072-8.28 69.75-18.139" stroke="#2C3338"/><path d="M76.67 88.659c-1.766-5.723 3.84-8.676 6.865-9.438l5.041 11.04c-3.16 1.41-10.14 4.12-11.906-1.602zM111.013 79.139c.117 5.988-6.087 7.276-9.203 7.172l-1.798-12.003c3.425-.482 10.883-1.157 11.001 4.83zM94.575 78.253l6.274-.789" stroke="#2C3338"/><path transform="rotate(-140.177 52.58 22.093) skewX(.035)" stroke="#2C3338" d="M0-.5h6.158"/><path transform="rotate(-102.521 71.492 -2.119) skewX(.015)" stroke="#2C3338" d="M0-.5h7.272"/><path transform="rotate(-104.028 65.896 -4.975) skewX(.017)" stroke="#2C3338" d="M0-.5h3.252"/><path d="M98.69 67.117l1.959-8.58" stroke="#2C3338"/><path transform="rotate(113.949 10.342 78.089) skewX(-.026)" stroke="#2C3338" d="M0-.5h7.768"/><path transform="rotate(74.064 -16.588 114.149) skewX(.019)" stroke="#2C3338" d="M0-.5h5.742"/><path transform="rotate(71.576 -23.92 122.744) skewX(.021)" stroke="#2C3338" d="M0-.5h2.494"/><path transform="rotate(37.892 -82.212 202.74) skewX(.034)" stroke="#2C3338" d="M0-.5h8.988"/><path d="M95.758 84.168l5.458-.789" stroke="#2C3338"/></svg>