<?xml version="1.0" encoding="utf-8"?>
<!-- Generator: Adobe Illustrator 25.0.0, SVG Export Plug-In . SVG Version: 6.00 Build 0)  -->
<svg version="1.1" id="Layer_1" xmlns="http://www.w3.org/2000/svg" xmlns:xlink="http://www.w3.org/1999/xlink" x="0px" y="0px"
	 viewBox="0 0 194 126" style="enable-background:new 0 0 194 126;" xml:space="preserve">
<style type="text/css">
	.st0{fill:none;stroke:#C3C4C7;}
	.st1{fill:#2D3338;}
	.st2{fill:#3C434A;stroke:#C3C4C7;}
	.st3{fill:#2C3338;stroke:#2C3338;stroke-width:2;}
	.st4{fill:#C9356E;}
	.st5{fill:none;stroke:#FFFFFF;stroke-width:2;stroke-linecap:round;}
	.st6{fill:#2C3338;}
	.st7{fill:none;stroke:#C3C4C7;stroke-width:1;stroke-miterlimit:4;}
</style>
<path class="st0" d="M7.6,125.2H0"/>
<path class="st0" d="M150.1,124.8h26.3"/>
<path class="st0" d="M180.1,124.8h7"/>
<path class="st0" d="M190.3,124.8h3.7"/>
<rect x="84.6" y="105.9" class="st1" width="30.6" height="13.5"/>
<path class="st2" d="M24.5,24.4c0-5.2,4.3-9.5,9.5-9.5h123.4c5.2,0,9.5,4.3,9.5,9.5v100.7H24.5V24.4z"/>
<circle class="st3" cx="166" cy="20" r="19"/>
<circle class="st4" cx="166" cy="20" r="17"/>
<line class="st5" x1="166" y1="11" x2="166" y2="24"/>
<line class="st5" x1="166" y1="28" x2="166" y2="29"/>
<path class="st0" d="M24,45.9h142.7"/>
<path class="st2" d="M40.7,31.4c0,1.8-1.4,3.2-3.2,3.2s-3.2-1.4-3.2-3.2s1.4-3.2,3.2-3.2S40.7,29.7,40.7,31.4z"/>
<path class="st2" d="M52.3,31.4c0,1.8-1.4,3.2-3.2,3.2s-3.2-1.4-3.2-3.2c0-1.8,1.4-3.2,3.2-3.2S52.3,29.6,52.3,31.4z"/>
<path class="st2" d="M63.9,31.4c0,1.8-1.4,3.2-3.2,3.2s-3.2-1.4-3.2-3.2c0-1.8,1.4-3.2,3.2-3.2S63.9,29.6,63.9,31.4z"/>
<path class="st0" d="M43.1,125.2H11"/>
<path class="st6" d="M24.8,46.7h141.9v78.1H24.8V46.7z"/>
<path class="st0" d="M167.1,62.5c13.4,11,34.9,35.6,13.8,45.3c-26.4,12.2-44.5-28.8-70.1-28.4"/>
<path class="st0" d="M24.4,69.6C14.2,75.2-6.4,92.8,7.1,107c13.8,14.6,35.1-8.3,69.7-18.1"/>
<path class="st0" d="M76.7,88.7c-1.8-5.7,3.8-8.7,6.9-9.4l5,11C85.4,91.7,78.4,94.4,76.7,88.7z"/>
<path class="st0" d="M111,79.1c0.1,6-6.1,7.3-9.2,7.2l-1.8-12C103.4,73.8,110.9,73.2,111,79.1z"/>
<path class="st0" d="M94.6,78.3l6.3-0.8"/>
<line class="st7" x1="78.5" y1="73.1" x2="73.8" y2="69.2"/>
<line class="st7" x1="88.6" y1="67.3" x2="87" y2="60.2"/>
<line class="st7" x1="86.2" y1="57.9" x2="85.4" y2="54.7"/>
<path class="st0" d="M98.7,67.1l2-8.6"/>
<line class="st7" x1="86.4" y1="100.5" x2="83.2" y2="107.6"/>
<line class="st7" x1="98.2" y1="98.6" x2="99.8" y2="104.1"/>
<line class="st7" x1="100.6" y1="106.5" x2="101.4" y2="108.9"/>
<line class="st7" x1="107.5" y1="92.8" x2="114.6" y2="98.4"/>
<path class="st0" d="M95.8,84.2l5.5-0.8"/>
</svg>
