<svg width="500" height="500" viewBox="0 0 500 500" fill="none" xmlns="http://www.w3.org/2000/svg">
<circle cx="250" cy="250" r="177" fill="white"/>
<path d="M500 250C500 111.93 388.07 0 250 0C111.93 0 0 111.93 0 250C0 388.07 111.93 500 250 500C388.07 500 500 388.07 500 250ZM360.42 382.5H294.77V237.2H231.94V382.5H165.9V237.2H128.45V183.45H165.9V167.13C165.9 124.54 198.12 95.48 246.05 95.48H294.78V149.22H256.93C241.62 149.22 231.95 157.58 231.95 171.12V183.45H360.43V382.5H360.42Z" fill="#50575E"/>
</svg>
