<svg width="172" height="110" viewBox="0 0 172 110" fill="none" xmlns="http://www.w3.org/2000/svg">
<path fill-rule="evenodd" clip-rule="evenodd" d="M42.9033 75.5021L47.9918 60.6832C48.9391 58.2882 49.2574 56.3759 49.2574 54.6749C49.2574 54.0601 49.2162 53.483 49.1451 52.9475C50.4443 55.3349 51.1857 58.0807 51.1857 60.9962C51.1857 67.1855 47.857 72.5903 42.9033 75.4983V75.5021ZM36.8226 53.1323C37.826 53.0795 38.7284 52.9739 38.7284 52.9739C39.6233 52.8683 39.5185 51.5369 38.6236 51.5897C38.6236 51.5897 35.9277 51.8009 34.1828 51.8009C32.5428 51.8009 29.7945 51.5897 29.7945 51.5897C28.8959 51.5369 28.791 52.9211 29.6897 52.9739C29.6897 52.9739 30.5396 53.0795 31.4382 53.1323L34.0331 60.2985L30.3861 71.3117L24.3203 53.1285C25.3275 53.0757 26.2262 52.9701 26.2262 52.9701C27.1211 52.8645 27.0162 51.5331 26.1213 51.5859C26.1213 51.5859 23.4254 51.7971 21.6806 51.7971C21.3698 51.7971 20.9991 51.7896 20.606 51.7783C23.5902 47.2296 28.7087 44.2198 34.5273 44.2198C38.8669 44.2198 42.8134 45.8907 45.7752 48.6289C45.704 48.6251 45.6329 48.6138 45.5618 48.6138C43.9218 48.6138 42.7648 50.0508 42.7648 51.5897C42.7648 52.9739 43.5548 54.1431 44.4048 55.5273C45.0376 56.6437 45.7789 58.0807 45.7789 60.1551C45.7789 61.5921 45.3558 63.3988 44.5096 65.5826L42.8471 71.1759L36.8263 53.1398V53.1323H36.8226ZM34.5273 77.7801C32.891 77.7801 31.3147 77.535 29.8207 77.0975L34.8194 62.4672L39.9416 76.5996C39.9753 76.6826 40.0164 76.758 40.0614 76.8297C38.3278 77.4407 36.4668 77.7801 34.531 77.7801H34.5273ZM17.8689 60.9962C17.8689 58.5635 18.3894 56.2552 19.3105 54.1657L27.2559 76.098C21.6956 73.3786 17.8689 67.6419 17.8689 60.9962ZM34.5273 42.3378C24.3128 42.3378 16.0005 50.7109 16.0005 61C16.0005 71.2891 24.3128 79.6622 34.5273 79.6622C44.7418 79.6622 53.0541 71.2891 53.0541 61C53.0541 50.7109 44.7455 42.3378 34.5273 42.3378Z" fill="#3858E9"/>
<path d="M143.52 62.4696L143.52 73.9324H138.938L138.938 54.3692H143.317L143.317 57.6934H143.545C143.993 56.5981 144.706 55.7277 145.684 55.0824C146.672 54.4371 147.891 54.1144 149.342 54.1144C150.684 54.1144 151.853 54.4031 152.848 54.9805C153.853 55.5579 154.629 56.3943 155.177 57.4896C155.734 58.5849 156.009 59.9138 156 61.4761L156 73.9324H151.418L151.418 62.1894C151.418 60.8818 151.081 59.8586 150.406 59.1199C149.739 58.3812 148.815 58.0118 147.634 58.0118C146.832 58.0118 146.119 58.1901 145.495 58.5467C144.879 58.8949 144.393 59.4001 144.039 60.0624C143.693 60.7247 143.52 61.5271 143.52 62.4696Z" fill="#3858E9"/>
<path d="M125.446 73.9325L125.446 54.3693H129.889L129.889 57.6298H130.092C130.446 56.5005 131.054 55.6302 131.914 55.0188C132.783 54.399 133.775 54.0891 134.889 54.0891C135.142 54.0891 135.425 54.1018 135.737 54.1273C136.057 54.1442 136.323 54.174 136.534 54.2164L136.534 58.4577C136.34 58.3897 136.032 58.3303 135.61 58.2794C135.197 58.2199 134.796 58.1902 134.408 58.1902C133.572 58.1902 132.821 58.3728 132.155 58.7379C131.497 59.0945 130.978 59.5912 130.598 60.228C130.218 60.8649 130.028 61.5993 130.028 62.4315L130.028 73.9325H125.446Z" fill="#3858E9"/>
<path d="M111.213 74.3273C109.981 74.3273 108.871 74.1065 107.884 73.665C106.905 73.2149 106.129 72.5526 105.555 71.6781C104.99 70.8035 104.707 69.7251 104.707 68.443C104.707 67.3392 104.91 66.4264 105.315 65.7046C105.72 64.9829 106.272 64.4055 106.973 63.9725C107.673 63.5394 108.462 63.2125 109.34 62.9918C110.226 62.7625 111.141 62.5969 112.086 62.4951C113.225 62.3762 114.149 62.27 114.858 62.1766C115.567 62.0747 116.082 61.9219 116.402 61.7181C116.732 61.5059 116.896 61.1789 116.896 60.7374L116.896 60.661C116.896 59.7015 116.613 58.9586 116.048 58.4321C115.483 57.9057 114.668 57.6424 113.605 57.6424C112.483 57.6424 111.593 57.8887 110.934 58.3812C110.285 58.8736 109.846 59.4553 109.618 60.1261L105.34 59.5147C105.677 58.326 106.234 57.3325 107.011 56.5344C107.787 55.7277 108.736 55.1249 109.859 54.7258C110.981 54.3182 112.221 54.1144 113.58 54.1144C114.517 54.1144 115.449 54.2248 116.377 54.4456C117.305 54.6664 118.153 55.0315 118.921 55.5409C119.689 56.0419 120.305 56.7254 120.769 57.5915C121.242 58.4576 121.478 59.5402 121.478 60.8393L121.478 73.9324H117.073L117.073 71.245H116.921C116.643 71.7884 116.251 72.2979 115.744 72.7734C115.246 73.2404 114.618 73.6183 113.858 73.907C113.107 74.1872 112.226 74.3273 111.213 74.3273ZM112.403 70.9393C113.322 70.9393 114.12 70.7568 114.795 70.3917C115.47 70.0181 115.989 69.5256 116.352 68.9142C116.723 68.3029 116.909 67.6364 116.909 66.9146L116.909 64.6093C116.765 64.7282 116.521 64.8386 116.175 64.9405C115.837 65.0424 115.457 65.1315 115.035 65.2079C114.614 65.2843 114.196 65.3523 113.782 65.4117C113.369 65.4711 113.01 65.5221 112.706 65.5645C112.023 65.6579 111.411 65.8108 110.871 66.0231C110.331 66.2353 109.905 66.5325 109.593 66.9146C109.281 67.2882 109.124 67.7722 109.124 68.3666C109.124 69.2157 109.432 69.8567 110.048 70.2898C110.664 70.7228 111.449 70.9393 112.403 70.9393Z" fill="#3858E9"/>
<path d="M93.7373 74.3145C91.7881 74.3145 90.1047 73.9069 88.687 73.0918C87.2778 72.2682 86.1935 71.1049 85.4341 69.602C84.6746 68.0906 84.2949 66.3118 84.2949 64.2654C84.2949 62.2531 84.6746 60.4869 85.4341 58.967C86.202 57.4387 87.2736 56.2499 88.6491 55.4008C90.0245 54.5432 91.6404 54.1144 93.4968 54.1144C94.6951 54.1144 95.8258 54.3097 96.889 54.7003C97.9607 55.0824 98.9058 55.6768 99.7243 56.4834C100.551 57.2901 101.201 58.3175 101.674 59.5657C102.146 60.8053 102.382 62.2828 102.382 63.998L102.382 65.4117H86.4467L86.4467 62.304H97.9902C97.9818 61.4209 97.7919 60.6355 97.4206 59.9478C97.0493 59.2515 96.5304 58.7038 95.8638 58.3047C95.2056 57.9057 94.4377 57.7061 93.5601 57.7061C92.6235 57.7061 91.8007 57.9354 91.0919 58.3939C90.3831 58.8439 89.8304 59.4383 89.4338 60.177C89.0457 60.9072 88.8474 61.7096 88.8389 62.5842L88.8389 65.2971C88.8389 66.4349 89.0457 67.4113 89.4591 68.2265C89.8726 69.0331 90.4506 69.653 91.1932 70.086C91.9358 70.5105 92.8049 70.7228 93.8006 70.7228C94.4672 70.7228 95.0706 70.6294 95.6106 70.4426C96.1507 70.2473 96.619 69.9629 97.0156 69.5893C97.4122 69.2157 97.7117 68.7529 97.9143 68.201L102.192 68.685C101.922 69.8228 101.408 70.8162 100.648 71.6653C99.8973 72.5059 98.9353 73.1597 97.7624 73.6267C96.5895 74.0853 95.2478 74.3145 93.7373 74.3145Z" fill="#3858E9"/>
<path d="M65.7842 73.9326L65.7842 47.8483H70.4801L70.4801 69.9716H81.897L81.897 73.9326H65.7842Z" fill="#3858E9"/>
</svg>