<svg width="378" height="223" viewBox="0 0 378 223" fill="none" xmlns="http://www.w3.org/2000/svg">
<mask id="mask0" mask-type="alpha" maskUnits="userSpaceOnUse" x="45" y="5" width="287" height="200">
<path d="M111.625 33.9072C103.414 33.9072 96.7285 40.5924 96.7285 48.8036C96.7285 57.0148 103.414 63.7001 111.625 63.7001C119.836 63.7001 126.521 57.0148 126.521 48.8036C126.521 40.5924 119.836 33.9072 111.625 33.9072ZM98.2363 48.8036C98.2363 46.8598 98.6542 45.025 99.399 43.3537L105.794 60.8661C101.306 58.6862 98.2363 54.1082 98.2363 48.8036ZM111.625 62.1923C110.317 62.1923 109.045 61.9924 107.846 61.6473L111.861 49.9663L115.985 61.2476C116.003 61.3203 116.039 61.3748 116.076 61.4293C114.677 61.9198 113.187 62.1923 111.625 62.1923ZM113.478 42.5181C114.277 42.4818 115.004 42.3909 115.004 42.3909C115.731 42.3001 115.64 41.2464 114.913 41.2828C114.913 41.2828 112.751 41.4463 111.334 41.4463C110.026 41.4463 107.81 41.2828 107.81 41.2828C107.083 41.2464 107.011 42.3364 107.719 42.3909C107.719 42.3909 108.409 42.4818 109.118 42.5181L111.207 48.2405L108.282 57.033L103.414 42.5181C104.213 42.4818 104.94 42.3909 104.94 42.3909C105.666 42.3001 105.576 41.2464 104.849 41.2828C104.849 41.2828 102.687 41.4463 101.288 41.4463C101.034 41.4463 100.743 41.4463 100.434 41.4281C102.832 37.813 106.938 35.415 111.625 35.415C115.113 35.415 118.292 36.7412 120.672 38.9393C120.617 38.9393 120.563 38.9211 120.49 38.9211C119.182 38.9211 118.237 40.0656 118.237 41.3009C118.237 42.4091 118.873 43.3356 119.545 44.4437C120.054 45.3339 120.654 46.4784 120.654 48.1315C120.654 49.276 120.308 50.7293 119.636 52.4551L118.292 56.924L113.478 42.5181ZM118.365 60.3756L122.452 48.5493C123.215 46.6419 123.469 45.1159 123.469 43.7534C123.469 43.2629 123.433 42.8087 123.379 42.3728C124.432 44.2802 125.014 46.4602 125.014 48.8036C125.014 53.7449 122.343 58.0503 118.365 60.3756Z" fill="#fff"/>
<path d="M228.578 49.3492C228.578 48.5498 229.45 48.241 230.377 48.241C231.885 48.241 233.32 48.7133 233.32 48.7133V46.5334C232.339 46.2427 231.34 46.1337 230.177 46.1337C227.634 46.1337 225.853 47.3327 225.853 49.2947C225.853 53.0914 231.104 52.1286 231.104 53.9634C231.104 54.8717 230.286 55.1261 229.087 55.1261C228.233 55.1261 226.889 54.7991 225.908 54.4539V56.6157C226.725 56.9427 227.87 57.2334 228.996 57.2334C231.467 57.2334 233.828 56.5067 233.828 53.8544C233.828 50.1848 228.578 51.1295 228.578 49.3492ZM242.421 51.5836C242.421 49.113 243.784 48.2774 245.382 48.2774C246.454 48.2774 247.58 48.5862 248.325 48.8768V46.6424C247.435 46.3517 246.654 46.1337 245.328 46.1337C241.858 46.1337 239.696 48.2592 239.696 51.7108C239.696 54.9807 241.259 57.2334 245.182 57.2334C246.436 57.2334 247.399 56.9972 248.471 56.6339V54.4539C247.272 54.9262 246.345 55.1079 245.528 55.1079C243.784 55.0897 242.421 54.2904 242.421 51.5836ZM166.922 48.132H166.831V46.388H164.378V56.9609H167.013V50.6753C167.83 49.113 168.829 48.6043 170.501 48.6043H170.773V46.3154C170.773 46.3154 170.392 46.2791 170.065 46.2791C168.629 46.2609 167.648 46.824 166.922 48.132ZM199.857 48.132H199.767V46.388H197.314V56.9609H199.93V50.6753C200.748 49.113 201.747 48.6043 203.418 48.6043H203.69V46.3154C203.69 46.3154 203.309 46.2791 202.982 46.2791C201.565 46.2609 200.584 46.824 199.857 48.132ZM275.829 46.1337C274.703 46.1337 273.413 46.7514 272.232 47.5325L271.923 47.7324C271.36 46.5515 270.252 46.1337 269.035 46.1337C267.909 46.1337 266.619 46.715 265.438 47.4962V46.4062H262.949V56.979H265.601V49.3855C266.582 48.7315 267.618 48.3319 268.381 48.3319C269.253 48.3319 269.78 48.8042 269.78 50.2938V56.9609H272.414V49.4037C273.395 48.7497 274.43 48.3319 275.193 48.3319C276.065 48.3319 276.592 48.8042 276.592 50.2938V56.9609H279.208V49.6762C279.172 47.6234 277.955 46.1337 275.829 46.1337ZM255.465 55.1261C253.757 55.1261 252.849 54.0179 252.849 51.6926C252.849 49.4037 253.757 48.2592 255.465 48.2592C257.172 48.2592 258.062 49.3673 258.062 51.6926C258.062 53.9816 257.172 55.1261 255.465 55.1261ZM255.465 46.1337C251.831 46.1337 250.124 48.4772 250.124 51.6926C250.124 54.9081 251.831 57.2334 255.465 57.2334C259.062 57.2334 260.806 54.9262 260.806 51.6926C260.806 48.459 259.062 46.1337 255.465 46.1337ZM219.023 49.3492C219.023 48.5498 219.895 48.241 220.821 48.241C222.329 48.241 223.764 48.7133 223.764 48.7133V46.5334C222.783 46.2427 221.784 46.1337 220.622 46.1337C218.078 46.1337 216.298 47.3327 216.298 49.2947C216.298 53.0914 221.548 52.1286 221.548 53.9634C221.548 54.8717 220.731 55.1261 219.532 55.1261C218.678 55.1261 217.333 54.7991 216.352 54.4539V56.6157C217.17 56.9427 218.314 57.2334 219.441 57.2334C221.911 57.2334 224.273 56.5067 224.273 53.8544C224.273 50.1848 219.023 51.1295 219.023 49.3492ZM207.633 50.5118C207.796 49.0403 208.595 48.1139 209.903 48.1139C211.302 48.1139 211.72 49.222 211.72 50.5118H207.633ZM209.94 46.1337C206.561 46.1337 204.799 48.7678 204.799 51.62C204.799 55.5621 206.87 57.2334 210.23 57.2334C211.593 57.2334 212.755 57.0517 214.136 56.6339V54.4539C213.028 54.8536 212.047 55.1079 210.975 55.1079C209.013 55.1079 207.705 54.5811 207.651 52.2558H214.409C214.445 51.838 214.499 51.4383 214.499 50.6935C214.463 48.459 213.3 46.1337 209.94 46.1337ZM190.211 49.6035H188.122V44.2626H190.211C191.9 44.2626 192.754 45.1891 192.754 46.8604C192.736 48.5135 191.955 49.6035 190.211 49.6035ZM190.175 42.0645H185.306V56.9609H188.104V51.7835H190.157C193.336 51.7835 195.661 50.0758 195.661 46.8604C195.679 43.6449 193.354 42.0645 190.175 42.0645ZM179.438 53.9271C178.585 54.7082 177.785 55.1261 176.95 55.1261C175.496 55.1261 174.57 54.1633 174.57 51.9288C174.57 49.5127 175.732 48.241 177.731 48.241C178.348 48.241 179.002 48.4045 179.438 48.568V53.9271V53.9271ZM179.438 46.3699C178.657 46.2064 178.112 46.1337 177.458 46.1337C173.825 46.1337 171.845 48.5498 171.845 52.0923C171.845 55.5984 173.825 57.2334 176.168 57.2334C177.331 57.2334 178.73 56.7065 179.566 55.9799V56.9609H182.054V42.0645H179.438V46.3699V46.3699ZM156.93 55.1261C155.223 55.1261 154.314 54.0179 154.314 51.6926C154.314 49.4037 155.223 48.2592 156.93 48.2592C158.638 48.2592 159.528 49.3673 159.528 51.6926C159.528 53.9816 158.638 55.1261 156.93 55.1261ZM156.93 46.1337C153.297 46.1337 151.589 48.4772 151.589 51.6926C151.589 54.9081 153.297 57.2334 156.93 57.2334C160.527 57.2334 162.271 54.9262 162.271 51.6926C162.271 48.459 160.527 46.1337 156.93 46.1337ZM235.572 56.9609H238.207V54.2541H235.572V56.9609ZM149.21 42.0645L146.23 53.4729L143.269 42.0645H140.272L140.962 44.5169L138.346 53.8726L135.494 42.0826H132.605L136.657 56.979H139.799L142.234 49.004L144.504 56.979H147.647L151.898 42.0826H149.21V42.0645Z" fill="#fff"/>
<path d="M88.9624 6.08313H78.7359V8.72947H82.2344V22.0957H85.4638V8.72947H88.9624V6.08313ZM99.4461 6.08313V22.0957H102.676V14.9865H106.443V22.0957H109.673V6.08313H106.443V12.2056H102.676V6.08313H99.4461ZM129.939 6.08313H120.991V22.0957H130.163V19.4494H124.22V15.1435H129.602V12.4971H124.22V8.72947H129.939V6.08313ZM158.234 14.0894C158.234 13.0129 158.256 12.1009 158.301 11.3534C158.361 10.6058 158.466 9.99283 158.615 9.5144C158.78 9.03596 159.004 8.69209 159.288 8.48277C159.587 8.25851 159.976 8.14638 160.454 8.14638C160.933 8.14638 161.314 8.25851 161.598 8.48277C161.897 8.69209 162.121 9.03596 162.271 9.5144C162.435 9.99283 162.54 10.6058 162.585 11.3534C162.644 12.1009 162.674 13.0129 162.674 14.0894C162.674 15.1659 162.644 16.0854 162.585 16.8479C162.54 17.5954 162.435 18.2084 162.271 18.6869C162.121 19.1503 161.897 19.4942 161.598 19.7185C161.314 19.9278 160.933 20.0325 160.454 20.0325C159.976 20.0325 159.587 19.9278 159.288 19.7185C159.004 19.4942 158.78 19.1503 158.615 18.6869C158.466 18.2084 158.361 17.5954 158.301 16.8479C158.256 16.0854 158.234 15.1659 158.234 14.0894ZM155.004 14.0894C155.004 15.3154 155.057 16.4367 155.161 17.4534C155.281 18.4701 155.528 19.3447 155.901 20.0773C156.29 20.8099 156.843 21.3706 157.561 21.7593C158.279 22.148 159.243 22.3424 160.454 22.3424C161.665 22.3424 162.629 22.148 163.347 21.7593C164.065 21.3706 164.61 20.8099 164.984 20.0773C165.373 19.3447 165.62 18.4701 165.724 17.4534C165.844 16.4367 165.904 15.3154 165.904 14.0894C165.904 12.8784 165.844 11.7645 165.724 10.7479C165.62 9.71624 165.373 8.83412 164.984 8.10152C164.61 7.36892 164.065 6.80078 163.347 6.3971C162.629 5.97847 161.665 5.76916 160.454 5.76916C159.243 5.76916 158.279 5.97847 157.561 6.3971C156.843 6.80078 156.29 7.36892 155.901 8.10152C155.528 8.83412 155.281 9.71624 155.161 10.7479C155.057 11.7645 155.004 12.8784 155.004 14.0894ZM176.885 6.08313V22.0957H180.115V15.1435H185.497V12.4971H180.115V8.72947H185.833V6.08313H176.885ZM196.349 6.08313V22.0957H199.578V15.1435H204.961V12.4971H199.578V8.72947H205.297V6.08313H196.349ZM215.97 22.0957H219.199V6.08313H215.97V22.0957ZM237.518 11.4879H240.747C240.747 10.9048 240.702 10.2844 240.612 9.62653C240.538 8.95373 240.336 8.33326 240.007 7.76512C239.678 7.18203 239.177 6.7036 238.504 6.32982C237.846 5.95605 236.942 5.76916 235.791 5.76916C234.58 5.76916 233.615 5.97847 232.898 6.3971C232.18 6.80078 231.627 7.36892 231.238 8.10152C230.864 8.83412 230.618 9.71624 230.498 10.7479C230.393 11.7645 230.341 12.8784 230.341 14.0894C230.341 15.3154 230.393 16.4367 230.498 17.4534C230.618 18.4701 230.864 19.3447 231.238 20.0773C231.627 20.8099 232.18 21.3706 232.898 21.7593C233.615 22.148 234.58 22.3424 235.791 22.3424C236.852 22.3424 237.712 22.1779 238.37 21.849C239.043 21.5201 239.558 21.0641 239.917 20.481C240.291 19.8979 240.545 19.2176 240.68 18.4402C240.814 17.6627 240.882 16.8404 240.882 15.9732H237.652C237.652 16.8404 237.6 17.5431 237.495 18.0813C237.39 18.6046 237.248 19.0158 237.069 19.3148C236.89 19.5989 236.673 19.7932 236.419 19.8979C236.179 19.9876 235.918 20.0325 235.634 20.0325C235.29 20.0325 234.983 19.9652 234.714 19.8306C234.46 19.6811 234.243 19.4045 234.064 19.0008C233.899 18.5822 233.772 17.9991 233.683 17.2516C233.608 16.504 233.57 15.5247 233.57 14.3137C233.57 13.1774 233.6 12.2205 233.66 11.4431C233.72 10.6507 233.825 10.0153 233.974 9.53682C234.124 9.04344 234.326 8.69209 234.58 8.48277C234.849 8.25851 235.185 8.14638 235.589 8.14638C236.321 8.14638 236.822 8.4155 237.091 8.95373C237.376 9.47702 237.518 10.3218 237.518 11.4879ZM251.963 22.0957H255.192V6.08313H251.963V22.0957ZM273.353 16.063L271.806 8.86403H271.761L270.214 16.063H273.353ZM273.78 6.08313L278.018 22.0957H274.654L273.914 18.7093H269.653L268.913 22.0957H265.549L269.788 6.08313H273.78ZM288.215 22.0957H297.163V19.4494H291.444V6.08313H288.215V22.0957Z" fill="#fff"/>
<path d="M72.8089 95.888H84.4261C84.4261 89.7707 82.9669 85.0846 80.0486 81.8295C77.1303 78.5183 72.36 76.8628 65.7376 76.8628C61.8652 76.8628 58.6383 77.5082 56.0567 78.7989C53.4751 80.0897 51.3986 82.0259 49.8272 84.6075C48.2558 87.133 47.1333 90.3039 46.4599 94.1201C45.8426 97.9364 45.5339 102.37 45.5339 107.421C45.5339 112.64 45.7584 117.242 46.2073 121.227C46.6563 125.155 47.5262 128.466 48.817 131.16C50.1639 133.854 51.9879 135.846 54.2888 137.137C56.6459 138.428 59.6765 139.073 63.3805 139.073C66.2427 139.073 68.684 138.596 70.7044 137.642C72.7809 136.632 74.5487 134.949 76.0079 132.591H76.1762V138.147H85.0996V105.737H65.4851V114.661H73.4824V120.806C73.4824 122.433 73.2299 123.865 72.7248 125.099C72.2197 126.278 71.5743 127.26 70.7886 128.046C70.059 128.831 69.2452 129.421 68.3473 129.813C67.5055 130.206 66.7198 130.403 65.9902 130.403C64.2504 130.403 62.8193 129.87 61.6969 128.803C60.6306 127.681 59.7888 126.109 59.1714 124.089C58.6102 122.013 58.2173 119.515 57.9929 116.597C57.7684 113.678 57.6561 110.423 57.6561 106.832C57.6561 99.3114 58.3015 93.9237 59.5923 90.6687C60.8831 87.4136 62.9877 85.7861 65.906 85.7861C67.1407 85.7861 68.1789 86.1228 69.0207 86.7963C69.9187 87.4136 70.6483 88.2274 71.2095 89.2376C71.7707 90.1916 72.1635 91.2579 72.388 92.4365C72.6686 93.615 72.8089 94.7655 72.8089 95.888ZM92.9002 78.0413V138.147H105.022V112.724H111.505C114.03 112.724 115.826 113.398 116.892 114.745C117.958 116.092 118.548 117.944 118.66 120.301L118.997 131.834C119.053 133.012 119.165 134.163 119.333 135.285C119.502 136.352 119.895 137.306 120.512 138.147H133.644V137.642C132.522 137.025 131.792 135.875 131.456 134.191C131.231 132.507 131.063 130.066 130.951 126.867C130.895 125.24 130.838 123.78 130.782 122.49C130.726 121.143 130.642 119.908 130.53 118.786C130.193 115.418 129.323 112.977 127.92 111.462C126.517 109.946 124.3 108.964 121.27 108.515V108.347C124.693 107.617 127.219 105.99 128.846 103.464C130.474 100.883 131.287 97.5716 131.287 93.5308C131.287 88.3115 129.884 84.4392 127.078 81.9137C124.272 79.3321 120.344 78.0413 115.293 78.0413H92.9002ZM105.022 104.306V86.9646H110.747C116.359 86.9646 119.165 89.7426 119.165 95.2987C119.165 98.5537 118.379 100.883 116.808 102.286C115.237 103.633 112.992 104.306 110.073 104.306H105.022ZM150.537 108.094C150.537 104.054 150.621 100.63 150.789 97.8241C151.014 95.0181 151.407 92.7171 151.968 90.9212C152.585 89.1253 153.427 87.8345 154.493 87.0488C155.616 86.207 157.075 85.7861 158.871 85.7861C160.667 85.7861 162.098 86.207 163.164 87.0488C164.287 87.8345 165.128 89.1253 165.69 90.9212C166.307 92.7171 166.7 95.0181 166.868 97.8241C167.093 100.63 167.205 104.054 167.205 108.094C167.205 112.135 167.093 115.587 166.868 118.449C166.7 121.255 166.307 123.556 165.69 125.352C165.128 127.092 164.287 128.382 163.164 129.224C162.098 130.01 160.667 130.403 158.871 130.403C157.075 130.403 155.616 130.01 154.493 129.224C153.427 128.382 152.585 127.092 151.968 125.352C151.407 123.556 151.014 121.255 150.789 118.449C150.621 115.587 150.537 112.135 150.537 108.094ZM138.415 108.094C138.415 112.696 138.611 116.905 139.004 120.722C139.453 124.538 140.379 127.821 141.782 130.571C143.241 133.321 145.318 135.426 148.011 136.885C150.705 138.344 154.325 139.073 158.871 139.073C163.417 139.073 167.037 138.344 169.73 136.885C172.424 135.426 174.473 133.321 175.876 130.571C177.335 127.821 178.261 124.538 178.654 120.722C179.103 116.905 179.327 112.696 179.327 108.094C179.327 103.549 179.103 99.3675 178.654 95.5512C178.261 91.6788 177.335 88.3677 175.876 85.6177C174.473 82.8678 172.424 80.7351 169.73 79.2199C167.037 77.6485 163.417 76.8628 158.871 76.8628C154.325 76.8628 150.705 77.6485 148.011 79.2199C145.318 80.7351 143.241 82.8678 141.782 85.6177C140.379 88.3677 139.453 91.6788 139.004 95.5512C138.611 99.3675 138.415 103.549 138.415 108.094ZM182.919 78.0413L193.862 138.147H207.416L214.15 94.541H214.319L221.053 138.147H234.607L245.55 78.0413H233.933L227.283 122.49H227.114L220.043 78.0413H208.426L201.355 122.49H201.186L194.536 78.0413H182.919ZM288.127 78.0413H249.74V87.9748H262.872V138.147H274.994V87.9748H288.127V78.0413ZM293.386 78.0413V138.147H305.508V111.462H319.65V138.147H331.773V78.0413H319.65V101.023H305.508V78.0413H293.386Z" fill="#fff"/>
<path d="M65.0431 185.18H52.9209V187.622C52.9209 193.178 54.38 197.443 57.2984 200.417C60.2728 203.392 65.1834 204.879 72.0303 204.879C78.5965 204.879 83.7035 203.448 87.3514 200.586C91.0555 197.668 92.9075 193.037 92.9075 186.696C92.9075 184.844 92.7391 183.16 92.4024 181.645C92.0657 180.13 91.4483 178.755 90.5504 177.52C89.7085 176.229 88.5581 175.051 87.0989 173.984C85.6397 172.862 83.7597 171.795 81.4587 170.785L72.1144 166.745C69.5329 165.678 67.8492 164.528 67.0635 163.293C66.2778 162.002 65.885 160.431 65.885 158.579C65.885 157.681 65.9691 156.811 66.1375 155.969C66.362 155.127 66.7268 154.398 67.2319 153.78C67.7931 153.107 68.5227 152.574 69.4206 152.181C70.3186 151.788 71.441 151.592 72.7879 151.592C75.145 151.592 76.8287 152.377 77.8388 153.949C78.849 155.464 79.3541 157.653 79.3541 160.515H90.9713V158.831C90.9713 155.969 90.4942 153.528 89.5402 151.508C88.6422 149.431 87.3514 147.747 85.6678 146.457C84.0403 145.11 82.076 144.156 79.775 143.594C77.5302 142.977 75.0608 142.668 72.367 142.668C66.5865 142.668 62.0406 144.128 58.7295 147.046C55.4183 149.964 53.7627 154.398 53.7627 160.347C53.7627 162.816 54.0714 165.005 54.6887 166.913C55.3061 168.765 56.2601 170.421 57.5509 171.88C58.8978 173.283 60.5534 174.517 62.5177 175.584C64.4819 176.65 66.811 177.632 69.5048 178.53C71.5252 179.204 73.2088 179.877 74.5557 180.55C75.9588 181.168 77.0812 181.869 77.923 182.655C78.7649 183.441 79.3541 184.339 79.6909 185.349C80.0837 186.303 80.2801 187.453 80.2801 188.8C80.2801 191.326 79.5225 193.206 78.0072 194.441C76.548 195.619 74.8925 196.208 73.0405 196.208C71.4691 196.208 70.1502 195.984 69.0839 195.535C68.0737 195.086 67.2599 194.469 66.6426 193.683C66.0253 192.897 65.6044 191.943 65.3799 190.821C65.1554 189.642 65.0431 188.351 65.0431 186.948V185.18ZM110.296 143.847H98.1735V185.77C98.1735 189.811 98.7066 193.094 99.7729 195.619C100.839 198.145 102.27 200.109 104.066 201.512C105.862 202.859 107.911 203.757 110.212 204.206C112.513 204.655 114.898 204.879 117.367 204.879C119.836 204.879 122.222 204.627 124.523 204.121C126.824 203.616 128.872 202.634 130.668 201.175C132.464 199.716 133.895 197.752 134.961 195.282C136.027 192.757 136.561 189.586 136.561 185.77V143.847H124.438V185.77C124.438 187.285 124.326 188.688 124.102 189.979C123.933 191.214 123.568 192.308 123.007 193.262C122.502 194.16 121.801 194.889 120.903 195.451C120.005 195.956 118.826 196.208 117.367 196.208C115.964 196.208 114.785 195.956 113.831 195.451C112.933 194.889 112.204 194.16 111.643 193.262C111.138 192.308 110.773 191.214 110.548 189.979C110.38 188.688 110.296 187.285 110.296 185.77V143.847ZM144.481 143.847V203.953H155.593V155.969H155.761L166.453 203.953H175.881L186.572 155.969H186.74V203.953H197.853V143.847H179.922L171.251 186.275H171.083L162.496 143.847H144.481ZM206.796 143.847V203.953H217.908V155.969H218.076L228.767 203.953H238.196L248.887 155.969H249.055V203.953H260.167V143.847H242.236L233.566 186.275H233.397L224.811 143.847H206.796ZM269.447 203.953H281.569V143.847H269.447V203.953ZM325.749 143.847H287.362V153.78H300.494V203.953H312.617V153.78H325.749V143.847Z" fill="#fff"/>
</mask>
<g mask="url(#mask0)">
<path d="M-30.4707 -41.6963C-30.4707 -46.1146 -26.889 -49.6963 -22.4707 -49.6963H400.337C404.755 -49.6963 408.337 -46.1146 408.337 -41.6963V250.521C408.337 254.939 404.755 258.521 400.337 258.521H-22.4707C-26.889 258.521 -30.4707 254.939 -30.4707 250.521V-41.6963Z" fill="url(#paint0_linear)"/>
</g>
<defs>
<linearGradient id="paint0_linear" x1="-24.9985" y1="167.496" x2="534.825" y2="169.882" gradientUnits="userSpaceOnUse">
<stop stop-color="#3582c4"/>
<stop offset="1" stop-color="#4d2054"/>
</linearGradient>
</defs>
</svg>
