<svg width="254" height="166" fill="none" xmlns="http://www.w3.org/2000/svg"><path d="M244.789 117.042a116.436 116.436 0 00-11.352-50.136 116.246 116.246 0 00-31.827-40.332 116.021 116.021 0 00-46.08-22.645 115.915 115.915 0 00-51.326-.53 116.009 116.009 0 00-46.536 21.687 116.233 116.233 0 00-32.652 39.666 116.424 116.424 0 00-2.075 100.252h211.487a115.568 115.568 0 0010.361-47.962z" fill="#e9f0f5"/><path d="M14.06 165.004h226.375M1 165.004h7.256m237.984 0h7.255" stroke="#2C3338" stroke-linecap="round" stroke-linejoin="round"/><path d="M137.146 145.034H117.12v12.034h20.026v-12.034z" fill="#fff"/><path d="M137.146 145.034H117.12v12.034h20.026v-12.034z" stroke="#2C3338" stroke-linecap="round" stroke-linejoin="round"/><path d="M153.166 165.091H101.1a8.03 8.03 0 012.346-5.673 8.007 8.007 0 015.664-2.35h36.046a8.036 8.036 0 015.656 2.359 8.057 8.057 0 012.354 5.664z" fill="#fff" stroke="#2C3338" stroke-linecap="round" stroke-linejoin="round"/><path d="M181.202 52.773H73.18a10.005 10.005 0 00-7.08 2.937 10.036 10.036 0 00-2.932 7.091v66.188h128.047V62.801a10.067 10.067 0 00-2.941-7.083 10.035 10.035 0 00-7.072-2.945z" fill="#DCDCDE"/><path d="M140.164 52.773H73.181a10.005 10.005 0 00-7.08 2.937 10.036 10.036 0 00-2.933 7.091v67.235l76.996-77.263z" fill="#fff"/><path d="M181.202 52.773H73.18a10.005 10.005 0 00-7.08 2.937 10.036 10.036 0 00-2.932 7.091v66.188h128.047V62.801a10.067 10.067 0 00-2.941-7.083 10.035 10.035 0 00-7.072-2.945v0z" stroke="#2C3338" stroke-linecap="round" stroke-linejoin="round"/><path d="M181.202 145.034c2.655 0 5.202-1.057 7.08-2.937a10.038 10.038 0 002.933-7.092v-6.017H63.052v6.017a10.016 10.016 0 002.965 7.142 9.97 9.97 0 007.164 2.887h108.021z" fill="#fff" stroke="#2C3338" stroke-linecap="round" stroke-linejoin="round"/><path d="M127.133 138.668a1.656 1.656 0 000-3.314c-.913 0-1.654.742-1.654 1.657s.741 1.657 1.654 1.657z" stroke="#2C3338" stroke-linecap="round" stroke-linejoin="round"/><path d="M246.409 164.975h-75.102a3.818 3.818 0 01-3.819-3.818v-52.19h82.739v52.19a3.82 3.82 0 01-3.818 3.818z" fill="#E6F2E8" stroke="#2C3338"/><path d="M246.409 97.51h-75.102a3.818 3.818 0 00-3.819 3.819v7.638h82.74v-7.638a3.816 3.816 0 00-3.819-3.818z" fill="#fff" stroke="#2C3338" stroke-linecap="round" stroke-linejoin="round"/><path d="M173.216 105.148a1.91 1.91 0 100-3.82 1.91 1.91 0 000 3.82z" fill="#FFABAF" stroke="#E65054" stroke-linecap="round" stroke-linejoin="round"/><path d="M179.581 105.148a1.91 1.91 0 100-3.819 1.91 1.91 0 000 3.819z" fill="#f2d76b" stroke="#c08c00" stroke-linecap="round" stroke-linejoin="round"/><path d="M185.945 105.148a1.91 1.91 0 100-3.82 1.91 1.91 0 000 3.82z" fill="#68DE86" stroke="#00A32A" stroke-linecap="round" stroke-linejoin="round"/><path d="M242.59 120.423a3.82 3.82 0 100-7.638 3.82 3.82 0 000 7.638z" fill="#fff" stroke="#8c8f94" stroke-linecap="round" stroke-linejoin="round"/><path d="M217.133 149.734a7.639 7.639 0 007.638-7.637v-15.275a15.287 15.287 0 00-10.135-14.418 15.265 15.265 0 00-6.158-.857 15.631 15.631 0 00-14.257 15.797v14.753a7.638 7.638 0 007.637 7.637h15.275z" fill="#1D2327" stroke="#101517" stroke-linecap="round" stroke-linejoin="round"/><path d="M222.029 152.212c3.499 3.265 5.823 7.153 6.559 12.127h-38.187c.735-4.974 3.06-8.862 6.558-12.127 3.499-3.265 7.942-5.058 12.535-5.058s9.037 1.793 12.535 5.058z" fill="#bbe0fa"/><path d="M228.588 163.702c-.736-4.973-3.06-8.225-6.559-11.49-3.498-3.265-7.942-5.058-12.535-5.058s-9.036 1.793-12.535 5.058c-3.498 3.265-5.823 6.517-6.558 11.49" stroke="#984a9c" stroke-linecap="round" stroke-linejoin="round"/><path d="M218.405 150.744a4.867 4.867 0 00-4.876-4.863h-8.07a4.87 4.87 0 00-3.446 1.42 4.86 4.86 0 00-1.136 5.11l2.253 6.2 6.364-3.819 6.365 3.819 2.253-6.2a4.934 4.934 0 00.293-1.667z" fill="#bbe0fa" stroke="#984a9c" stroke-linecap="round" stroke-linejoin="round"/><path d="M213.949 150.336l-4.455 4.456-4.455-4.456v-7.001h8.91v7.001z" fill="#9d6e00" stroke="#543100" stroke-linecap="round" stroke-linejoin="round"/><path d="M209.494 156.065v8.91" stroke="#984a9c" stroke-linecap="round" stroke-linejoin="round"/><path d="M222.225 131.277v-4.061a14.003 14.003 0 01-17.248-3.729 6.99 6.99 0 01-6.937 5.88 6.964 6.964 0 01-1.273-.127v2.037c-.676 0-1.323.268-1.801.745a2.549 2.549 0 000 3.601 2.549 2.549 0 001.801.745h.152a12.729 12.729 0 0025.153 0h.153a2.546 2.546 0 100-5.091z" fill="#9d6e00" stroke="#543100" stroke-linecap="round" stroke-linejoin="round"/><path d="M205.651 139.933a5.576 5.576 0 007.638 0" stroke="#101517" stroke-linecap="round" stroke-linejoin="round"/><path d="M216.497 132.55a2.071 2.071 0 00-1.91-1.263 2.076 2.076 0 00-1.909 1.263m-6.365 0a2.076 2.076 0 00-3.053-.919c-.34.225-.606.544-.765.919" stroke="#1F1200" stroke-linecap="round" stroke-linejoin="round"/><path d="M202.176 138.278a1.591 1.591 0 10.001-3.183 1.591 1.591 0 00-.001 3.183zm14.639 0a1.59 1.59 0 100-3.181 1.59 1.59 0 000 3.181z" fill="#c08c00"/><rect x="26" y="165" width="12" height="48" rx="1" transform="rotate(-90 26 165)" fill="#9d6e00" stroke="#361F00"/><rect x="30" y="153" width="10" height="48" rx="1" transform="rotate(-90 30 153)" fill="#3C434A" stroke="#101517"/><rect x="26" y="143" width="10" height="48" rx="1" transform="rotate(-90 26 143)" fill="#fff" stroke="#2C3338"/><path fill="#f2d76b" stroke="#320" d="M32 153h6v12h-6z"/><path fill="#A7AAAD" stroke="#101517" d="M36 143h4v10h-4z"/><path fill="#A7AAAD" stroke="#2C3338" d="M32 133h4v10h-4z"/><path fill="#f2d76b" stroke="#320" d="M62 153h6v12h-6z"/><path fill="#A7AAAD" stroke="#101517" d="M68 143h4v10h-4z"/><path fill="#A7AAAD" stroke="#2C3338" d="M64 133h4v10h-4z"/></svg>