<svg width="190" height="190" viewBox="0 0 190 190" fill="none" xmlns="http://www.w3.org/2000/svg">
<g clip-path="url(#clip0_4967_37640)">
<rect width="190" height="190" fill="white"/>
<rect width="190.764" height="125.68" fill="#F6F7F7"/>
<rect width="120.069" height="89.7711" fill="#F6F7F7"/>
<mask id="mask0_4967_37640" style="mask-type:alpha" maskUnits="userSpaceOnUse" x="0" y="0" width="121" height="90">
<rect width="120.069" height="89.7711" fill="white"/>
</mask>
<g mask="url(#mask0_4967_37640)">
<circle cx="79.6724" cy="78.5503" r="40.397" fill="#DCDCDE"/>
<circle cx="-1.12203" cy="78.5503" r="40.397" fill="#DCDCDE"/>
<circle cx="79.6724" cy="-2.24361" r="40.397" fill="#DCDCDE"/>
<circle cx="-1.12203" cy="-2.24361" r="40.397" fill="#DCDCDE"/>
</g>
<path fill-rule="evenodd" clip-rule="evenodd" d="M157.644 71.8171C156.984 71.8171 156.354 70.7199 155.888 70.2536L145.901 60.2671C145.463 59.8289 144.752 59.8289 144.314 60.2671L134.328 70.2536C133.861 70.7199 133.231 71.8171 132.572 71.8171H21.3209C20.7011 71.8171 20.1987 72.3195 20.1987 72.9393V226.672C20.1987 227.292 20.7011 227.794 21.3209 227.794H169.443C170.063 227.794 170.565 227.292 170.565 226.672V72.9393C170.565 72.3195 170.063 71.8171 169.443 71.8171H157.644Z" fill="white"/>
<rect x="20" y="114" width="150.367" height="36" fill="#D93A2E" fill-opacity="0.08"/>
<path d="M74.0615 96.5039L150.367 96.5039" stroke="#DCDCDE" stroke-width="8.97711"/>
<path d="M74.0615 168.321L150.367 168.321" stroke="#DCDCDE" stroke-width="8.97711"/>
<g clip-path="url(#clip1_4967_37640)">
<path d="M48.2522 89.7709L53.8629 95.3816L43.1947 106.05C42.8255 105.68 42.617 105.18 42.6145 104.658C42.612 104.136 42.8156 103.634 43.1812 103.261L43.1778 103.258C42.8107 103.633 42.3096 103.847 41.7848 103.853C41.26 103.858 40.7544 103.655 40.3792 103.288C40.0041 102.921 39.7901 102.42 39.7845 101.895C39.7788 101.37 39.9818 100.865 40.3489 100.49L40.34 100.481C39.9653 100.833 39.4684 101.025 38.9543 101.018C38.4402 101.01 37.9492 100.803 37.5851 100.44L48.2522 89.7709ZM56.7647 89.3063L54.3274 86.869C53.9066 86.4483 53.3358 86.2119 52.7407 86.2119C52.1456 86.2119 51.5749 86.4483 51.154 86.869L49.3743 88.6487L54.985 94.2594L56.7647 92.4797C57.1854 92.0588 57.4218 91.4881 57.4218 90.893C57.4218 90.2979 57.1854 89.7272 56.7647 89.3063ZM37.0308 103.237V106.603H40.3972C40.3972 105.71 40.0425 104.854 39.4112 104.223C38.7799 103.591 37.9236 103.237 37.0308 103.237Z" fill="#DCDCDE"/>
</g>
<path d="M76.8404 134.011H80.7153C81.6095 134.011 82.3868 133.833 83.0472 133.476C83.7135 133.12 84.2308 132.617 84.599 131.969C84.973 131.32 85.16 130.56 85.16 129.689V129.672C85.16 128.807 84.973 128.05 84.599 127.401C84.2308 126.752 83.7135 126.25 83.0472 125.893C82.3868 125.531 81.6095 125.35 80.7153 125.35H76.8404V127.445H80.0753C80.8351 127.445 81.4254 127.638 81.8462 128.023C82.267 128.409 82.4774 128.962 82.4774 129.68V129.698C82.4774 130.417 82.267 130.972 81.8462 131.364C81.4254 131.749 80.8351 131.942 80.0753 131.942H76.8404V134.011ZM75.5166 138H78.1642V125.35H75.5166V138ZM87.1459 138H89.7057V132.608C89.7057 132.153 89.7993 131.761 89.9863 131.434C90.1791 131.106 90.4509 130.855 90.8016 130.68C91.1581 130.504 91.576 130.417 92.0552 130.417C92.2598 130.417 92.4585 130.428 92.6514 130.452C92.8442 130.475 93.0342 130.51 93.2212 130.557V128.322C93.0985 128.286 92.9523 128.26 92.7829 128.243C92.6192 128.219 92.4497 128.208 92.2744 128.208C91.6549 128.208 91.1347 128.354 90.7139 128.646C90.299 128.932 90.0126 129.338 89.8548 129.864H89.7057V128.357H87.1459V138ZM98.7839 138.202C99.7774 138.202 100.628 138.003 101.335 137.605C102.048 137.202 102.594 136.627 102.974 135.878C103.354 135.125 103.544 134.227 103.544 133.187V133.17C103.544 132.129 103.351 131.235 102.966 130.487C102.58 129.739 102.033 129.163 101.326 128.76C100.619 128.357 99.7716 128.155 98.7839 128.155C97.8078 128.155 96.9633 128.357 96.2503 128.76C95.5431 129.163 94.9966 129.739 94.6109 130.487C94.2252 131.235 94.0323 132.129 94.0323 133.17V133.187C94.0323 134.227 94.2222 135.125 94.6021 135.878C94.982 136.627 95.5285 137.202 96.2415 137.605C96.9545 138.003 97.802 138.202 98.7839 138.202ZM98.7839 136.194C98.3338 136.194 97.9481 136.077 97.6266 135.843C97.311 135.604 97.0685 135.259 96.899 134.809C96.7354 134.359 96.6535 133.818 96.6535 133.187V133.17C96.6535 132.538 96.7383 132.001 96.9078 131.556C97.0773 131.106 97.3198 130.762 97.6354 130.522C97.9569 130.282 98.3397 130.163 98.7839 130.163C99.2397 130.163 99.6255 130.282 99.9411 130.522C100.257 130.762 100.499 131.106 100.669 131.556C100.838 132.001 100.923 132.538 100.923 133.17V133.187C100.923 133.818 100.838 134.359 100.669 134.809C100.505 135.259 100.263 135.604 99.9411 135.843C99.6255 136.077 99.2397 136.194 98.7839 136.194ZM105.425 138H107.985V132.188C107.985 131.819 108.055 131.492 108.195 131.206C108.341 130.914 108.543 130.686 108.8 130.522C109.057 130.358 109.349 130.277 109.677 130.277C110.01 130.277 110.293 130.341 110.527 130.469C110.767 130.598 110.948 130.785 111.071 131.03C111.199 131.27 111.263 131.562 111.263 131.907V138H113.823V132.082C113.823 131.732 113.891 131.422 114.025 131.153C114.165 130.879 114.361 130.665 114.612 130.513C114.869 130.355 115.17 130.277 115.515 130.277C115.872 130.277 116.167 130.341 116.401 130.469C116.64 130.598 116.819 130.794 116.936 131.057C117.052 131.314 117.111 131.635 117.111 132.021V138H119.671V131.381C119.671 130.721 119.542 130.151 119.285 129.672C119.034 129.187 118.674 128.812 118.207 128.549C117.739 128.286 117.187 128.155 116.55 128.155C116.1 128.155 115.679 128.228 115.287 128.374C114.902 128.52 114.566 128.728 114.279 128.997C113.999 129.265 113.785 129.581 113.639 129.943H113.481C113.353 129.563 113.16 129.242 112.903 128.979C112.652 128.71 112.348 128.506 111.991 128.365C111.64 128.225 111.246 128.155 110.808 128.155C110.176 128.155 109.624 128.307 109.151 128.611C108.677 128.909 108.338 129.33 108.134 129.873H107.985V128.357H105.425V138ZM126.215 138.202C127.209 138.202 128.059 138.003 128.766 137.605C129.479 137.202 130.026 136.627 130.406 135.878C130.786 135.125 130.976 134.227 130.976 133.187V133.17C130.976 132.129 130.783 131.235 130.397 130.487C130.011 129.739 129.465 129.163 128.758 128.76C128.05 128.357 127.203 128.155 126.215 128.155C125.239 128.155 124.395 128.357 123.682 128.76C122.974 129.163 122.428 129.739 122.042 130.487C121.657 131.235 121.464 132.129 121.464 133.17V133.187C121.464 134.227 121.654 135.125 122.034 135.878C122.413 136.627 122.96 137.202 123.673 137.605C124.386 138.003 125.233 138.202 126.215 138.202ZM126.215 136.194C125.765 136.194 125.379 136.077 125.058 135.843C124.742 135.604 124.5 135.259 124.33 134.809C124.167 134.359 124.085 133.818 124.085 133.187V133.17C124.085 132.538 124.17 132.001 124.339 131.556C124.509 131.106 124.751 130.762 125.067 130.522C125.388 130.282 125.771 130.163 126.215 130.163C126.671 130.163 127.057 130.282 127.372 130.522C127.688 130.762 127.931 131.106 128.1 131.556C128.27 132.001 128.354 132.538 128.354 133.17V133.187C128.354 133.818 128.27 134.359 128.1 134.809C127.936 135.259 127.694 135.604 127.372 135.843C127.057 136.077 126.671 136.194 126.215 136.194ZM136.845 138.044C137.096 138.044 137.333 138.032 137.555 138.009C137.777 137.985 137.967 137.959 138.125 137.93V136.027C138.008 136.039 137.894 136.051 137.783 136.063C137.678 136.068 137.543 136.071 137.38 136.071C136.953 136.071 136.641 135.972 136.442 135.773C136.243 135.569 136.144 135.25 136.144 134.818V130.285H138.125V128.357H136.144V126.051H133.558V128.357H132.076V130.285H133.558V135.396C133.558 136.337 133.815 137.015 134.329 137.43C134.843 137.839 135.682 138.044 136.845 138.044ZM144.214 138.202C144.915 138.202 145.523 138.114 146.037 137.939C146.557 137.757 146.99 137.524 147.335 137.237C147.685 136.951 147.96 136.644 148.159 136.317C148.363 135.984 148.501 135.665 148.571 135.361L148.597 135.265L146.212 135.274L146.186 135.326C146.128 135.449 146.017 135.586 145.853 135.738C145.695 135.884 145.485 136.013 145.222 136.124C144.959 136.235 144.64 136.29 144.266 136.29C143.805 136.29 143.407 136.188 143.074 135.984C142.741 135.779 142.484 135.484 142.303 135.098C142.121 134.712 142.031 134.251 142.031 133.713V132.679C142.031 132.118 142.121 131.644 142.303 131.258C142.49 130.867 142.741 130.572 143.056 130.373C143.378 130.168 143.743 130.066 144.152 130.066C144.567 130.066 144.93 130.165 145.239 130.364C145.555 130.557 145.8 130.846 145.976 131.232C146.151 131.618 146.239 132.1 146.239 132.679V133.704L147.44 132.188H140.777V133.792H148.676V132.994C148.676 132.018 148.489 131.168 148.115 130.443C147.747 129.718 147.221 129.157 146.537 128.76C145.853 128.357 145.044 128.155 144.108 128.155C143.173 128.155 142.358 128.362 141.663 128.777C140.973 129.187 140.438 129.768 140.058 130.522C139.684 131.276 139.497 132.164 139.497 133.187V133.196C139.497 134.224 139.687 135.116 140.067 135.87C140.447 136.618 140.988 137.193 141.689 137.597C142.396 138 143.238 138.202 144.214 138.202Z" fill="black"/>
<circle cx="145.317" cy="23.0036" r="2.80535" fill="#646970"/>
<circle cx="145.317" cy="33.1032" r="2.80535" fill="#646970"/>
<circle cx="145.317" cy="43.2018" r="2.80535" fill="#646970"/>
<g clip-path="url(#clip2_4967_37640)">
<path d="M54.7647 157.589H39.1176C38.5248 157.589 37.9562 157.824 37.537 158.244C37.1178 158.663 36.8823 159.231 36.8823 159.824V175.471C36.8823 176.064 37.1178 176.633 37.537 177.052C37.9562 177.471 38.5248 177.707 39.1176 177.707H54.7647C55.3575 177.707 55.9261 177.471 56.3453 177.052C56.7645 176.633 57 176.064 57 175.471V159.824C57 159.231 56.7645 158.663 56.3453 158.244C55.9261 157.824 55.3575 157.589 54.7647 157.589ZM54.7647 175.471H39.1176V159.824H54.7647V175.471ZM43.5882 173.236H41.3529V167.648H43.5882V173.236ZM48.0588 173.236H45.8235V162.059H48.0588V173.236ZM52.5294 173.236H50.2941V165.412H52.5294V173.236Z" fill="#DCDCDE"/>
</g>
<path d="M56 133.339C56 134.435 55.7677 135.517 55.3138 136.53C54.8598 137.544 54.2 138.464 53.3607 139.239C52.5267 140.013 51.5343 140.627 50.4416 141.048C49.9243 141.245 49.3912 141.396 48.8475 141.5L49.0903 141.37C49.0903 141.37 51.1912 140.164 51.6082 137.461C51.8035 135.049 49.8082 133.994 49.8082 133.994C49.8082 133.994 48.7947 135.282 47.3537 135.282C45.0891 135.282 45.5 131.5 45.5 131.5C45.5 131.5 42.0645 133.276 42.0645 137.144C42.0645 139.561 44.4927 141.344 44.4927 141.344V141.349C44.176 141.266 43.8645 141.162 43.5584 141.043C42.4657 140.621 41.4733 140.008 40.6393 139.234C39.8053 138.459 39.1402 137.539 38.6862 136.525C38.2323 135.511 38 134.43 38 133.333C38 129.622 42.3179 126.024 42.3179 126.024C42.3179 126.024 42.7296 128.847 44.8358 128.847C48.7947 128.847 47.3537 122.5 47.3537 122.5C47.3537 122.5 50.9537 124.616 52.0358 130.256C53.4768 129.549 53.8358 127.433 53.8358 127.433C53.8358 127.433 56 130.256 56 133.365" fill="url(#paint0_linear_4967_37640)"/>
</g>
<defs>
<linearGradient id="paint0_linear_4967_37640" x1="47" y1="122.5" x2="47" y2="141.5" gradientUnits="userSpaceOnUse">
<stop stop-color="#E94338"/>
<stop offset="1" stop-color="#FFB800"/>
</linearGradient>
<clipPath id="clip0_4967_37640">
<rect width="190" height="190" fill="white"/>
</clipPath>
<clipPath id="clip1_4967_37640">
<rect width="26.9313" height="26.9313" fill="white" transform="translate(33.6641 83.0381)"/>
</clipPath>
<clipPath id="clip2_4967_37640">
<rect width="26.8235" height="26.8235" fill="white" transform="translate(33.5293 154.235)"/>
</clipPath>
</defs>
</svg>
