<svg width="418" height="299" viewBox="0 0 418 299" fill="none" xmlns="http://www.w3.org/2000/svg">
<rect width="418" height="299" fill="white"/>
<path d="M122 22H305V268H122C117.029 268 113 263.971 113 259V31C113 26.0294 117.029 22 122 22Z" fill="white" stroke="#C3C4C7" stroke-width="2"/>
<path d="M122.5 249H305V268H122.5C117.253 268 113 263.747 113 258.5C113 253.253 117.253 249 122.5 249Z" stroke="#C3C4C7" stroke-width="2"/>
<path d="M209.248 80.0952C188.526 80.0952 171.655 96.966 171.655 117.688C171.655 138.409 188.526 155.28 209.248 155.28C229.969 155.28 246.84 138.409 246.84 117.688C246.84 96.966 229.969 80.0952 209.248 80.0952ZM175.46 117.688C175.46 112.782 176.515 108.152 178.394 103.934L194.532 148.128C183.208 142.627 175.46 131.074 175.46 117.688ZM209.248 151.475C205.947 151.475 202.738 150.971 199.712 150.1L209.844 120.622L220.25 149.091C220.296 149.274 220.388 149.412 220.48 149.55C216.95 150.787 213.19 151.475 209.248 151.475ZM213.924 101.825C215.941 101.734 217.775 101.505 217.775 101.505C219.609 101.275 219.379 98.6164 217.546 98.708C217.546 98.708 212.09 99.1207 208.514 99.1207C205.213 99.1207 199.62 98.708 199.62 98.708C197.787 98.6164 197.603 101.367 199.391 101.505C199.391 101.505 201.133 101.734 202.921 101.825L208.193 116.266L200.812 138.455L188.526 101.825C190.543 101.734 192.377 101.505 192.377 101.505C194.211 101.275 193.982 98.6164 192.148 98.708C192.148 98.708 186.692 99.1207 183.162 99.1207C182.52 99.1207 181.787 99.1207 181.008 99.0748C187.059 89.9518 197.42 83.9003 209.248 83.9003C218.05 83.9003 226.073 87.2469 232.078 92.7941C231.941 92.7941 231.803 92.7483 231.62 92.7483C228.319 92.7483 225.935 95.6365 225.935 98.7539C225.935 101.55 227.54 103.888 229.236 106.685C230.52 108.931 232.032 111.82 232.032 115.991C232.032 118.88 231.161 122.547 229.465 126.902L226.073 138.18L213.924 101.825ZM226.256 146.891L236.571 117.046C238.496 112.232 239.138 108.381 239.138 104.943C239.138 103.705 239.047 102.559 238.909 101.459C241.568 106.272 243.035 111.774 243.035 117.688C243.035 130.157 236.296 141.022 226.256 146.891Z" fill="#0675C4"/>
<path d="M175.03 184.284C179.172 184.284 181.267 181.545 181.52 178.645C181.589 177.932 180.783 177.794 180.415 178.277C179.725 179.497 178.39 181.177 176.066 181.177C173.281 181.177 170.588 178.162 170.588 173.605C170.588 170.705 172.268 168.91 174.109 168.91C177.377 168.91 177.285 173.398 179.771 173.398C180.806 173.398 181.405 172.777 181.405 171.856C181.405 169.693 178.459 167.506 174.846 167.506C170.289 167.506 167.205 170.958 167.205 175.676C167.205 180.118 170.68 184.284 175.03 184.284Z" fill="#0675C4"/>
<path d="M188.951 184.284C192.311 184.284 194.796 181.844 194.796 178.576C194.796 175.308 192.15 172.777 188.605 172.777C185.383 172.777 182.645 175.124 182.645 178.461C182.645 181.66 185.245 184.284 188.951 184.284ZM189.365 183.271C187.271 183.271 186.028 179.497 186.028 177.149C186.028 174.963 186.764 173.789 188.145 173.789C190.101 173.789 191.344 177.425 191.344 179.934C191.344 182.051 190.608 183.271 189.365 183.271Z" fill="#0675C4"/>
<path d="M207.364 181.706V173.283C207.364 172.892 207.088 172.8 206.489 172.869L203.543 173.306C203.267 173.352 203.083 173.559 203.083 173.789V173.858C203.083 174.365 204.004 174.595 204.004 175.607V180.279C204.004 181.913 203.129 182.972 202.025 182.972C200.759 182.972 200.114 181.982 200.114 179.842L200.183 173.283C200.183 172.892 199.838 172.8 199.24 172.869L196.34 173.306C196.041 173.352 195.857 173.559 195.857 173.789V173.858C195.857 174.365 196.754 174.595 196.754 175.607V179.497C196.754 182.65 198.664 184.284 201.035 184.284C202.623 184.284 203.751 183.708 204.372 182.696C204.441 183.823 205.108 184.192 206.42 184.192C207.709 184.192 208.469 184.054 208.469 183.524C208.469 182.673 207.364 183.524 207.364 181.706Z" fill="#0675C4"/>
<path d="M216.615 172.777C215.073 172.777 213.991 173.582 213.485 175.055V173.329C213.485 172.892 213.278 172.616 212.748 172.869L209.987 174.157C209.687 174.296 209.503 174.48 209.503 174.71V174.802C209.503 175.377 210.562 175.446 210.562 176.459V181.844C210.562 182.811 209.664 182.995 209.664 183.57V183.662C209.664 183.915 209.871 184.054 210.194 184.054H214.451C214.751 184.054 214.958 183.915 214.958 183.662V183.57C214.958 182.995 213.807 182.811 213.807 181.844V177.241C213.807 175.976 214.129 174.71 215.027 174.71C216.269 174.71 215.464 176.689 217.259 176.689C218.364 176.689 218.732 175.838 218.732 174.871C218.732 173.697 217.973 172.777 216.615 172.777Z" fill="#0675C4"/>
<path d="M224.182 184.261C227.266 184.261 229.107 182.834 229.107 180.97C229.107 176.574 222.824 178.415 222.824 175.262C222.824 174.434 223.399 173.72 224.32 173.72C226.322 173.72 225.655 176.735 227.565 176.735C228.301 176.735 228.877 176.206 228.877 175.538C228.877 174.111 227.036 172.777 224.136 172.777C221.374 172.777 219.464 174.203 219.464 176.16C219.464 180.694 225.862 178.783 225.862 181.844C225.862 182.88 225.125 183.363 224.182 183.363C221.88 183.363 222.663 180.325 220.638 180.325C219.855 180.325 219.257 180.717 219.257 181.591C219.257 183.018 221.213 184.261 224.182 184.261Z" fill="#0675C4"/>
<path d="M239.728 180.555C239.291 181.269 238.324 181.89 237.105 181.89C235.724 181.89 234.665 181.154 234.067 179.888L239.176 177.564C239.797 177.287 240.189 176.827 240.189 176.045C240.189 174.526 238.854 172.777 235.839 172.777C232.824 172.777 230.269 175.101 230.269 178.438C230.269 181.982 232.64 184.284 235.839 184.284C238.808 184.284 240.373 182.143 240.511 180.809C240.534 180.325 240.005 180.21 239.728 180.555ZM235.425 173.789C236.667 173.789 237.266 175.423 237.266 176.252C237.266 176.735 237.082 177.126 236.667 177.333L233.699 178.829C233.538 178.231 233.468 177.564 233.468 176.85C233.468 175.101 234.205 173.789 235.425 173.789Z" fill="#0675C4"/>
<path d="M246.499 184.261C249.583 184.261 251.424 182.834 251.424 180.97C251.424 176.574 245.142 178.415 245.142 175.262C245.142 174.434 245.717 173.72 246.637 173.72C248.64 173.72 247.972 176.735 249.882 176.735C250.619 176.735 251.194 176.206 251.194 175.538C251.194 174.111 249.353 172.777 246.453 172.777C243.692 172.777 241.781 174.203 241.781 176.16C241.781 180.694 248.179 178.783 248.179 181.844C248.179 182.88 247.443 183.363 246.499 183.363C244.198 183.363 244.98 180.325 242.955 180.325C242.173 180.325 241.574 180.717 241.574 181.591C241.574 183.018 243.531 184.261 246.499 184.261Z" fill="#0675C4"/>
<path d="M255 287V256H279V287L267 275.357L255 287Z" fill="#DCDCDE"/>
</svg>
