<svg width="277" height="215" fill="none" xmlns="http://www.w3.org/2000/svg"><path d="M234.655 169.344a91.454 91.454 0 00-8.918-39.387 91.319 91.319 0 00-25.003-31.685 91.142 91.142 0 00-36.201-17.79 91.059 91.059 0 00-40.321-.417 91.134 91.134 0 00-36.56 17.038 91.317 91.317 0 00-25.65 31.162 91.467 91.467 0 00-1.63 78.758h166.144a90.795 90.795 0 008.139-37.679z" fill="#e9f0f5"/><path d="M53.395 207.023h177.84M43.135 207.023h5.7M235.795 207.023h5.7" stroke="#02395c" stroke-linecap="round" stroke-linejoin="round"/><path d="M150.091 191.334h-15.732v9.454h15.732v-9.454z" fill="#fff"/><path d="M150.091 191.334h-15.732v9.454h15.732v-9.454z" stroke="#02395c" stroke-linecap="round" stroke-linejoin="round"/><path d="M162.677 207.091h-40.903c0-1.672.663-3.275 1.843-4.457a6.286 6.286 0 014.449-1.846h28.318a6.31 6.31 0 014.443 1.853 6.33 6.33 0 011.85 4.45z" fill="#fff" stroke="#02395c" stroke-linecap="round" stroke-linejoin="round"/><path d="M184.702 118.854H99.84c-2.086 0-4.087.83-5.562 2.307a7.887 7.887 0 00-2.304 5.571v51.997h100.594v-51.997a7.906 7.906 0 00-2.311-5.564 7.883 7.883 0 00-5.555-2.314z" fill="#DCDCDE"/><path d="M152.462 118.854H99.84c-2.086 0-4.087.83-5.562 2.307a7.887 7.887 0 00-2.304 5.571v52.819l60.488-60.697z" fill="#fff"/><path d="M184.702 118.854H99.84c-2.086 0-4.087.83-5.562 2.307a7.887 7.887 0 00-2.304 5.571v51.997h100.594v-51.997a7.906 7.906 0 00-2.311-5.564 7.883 7.883 0 00-5.555-2.314v0z" stroke="#02395c" stroke-linecap="round" stroke-linejoin="round"/><path d="M184.702 191.334c2.086 0 4.087-.83 5.562-2.307a7.888 7.888 0 002.304-5.571v-4.727H91.883v4.727a7.87 7.87 0 002.329 5.61 7.842 7.842 0 005.628 2.268h84.862z" fill="#fff" stroke="#02395c" stroke-linecap="round" stroke-linejoin="round"/><path d="M142.225 186.333a1.301 1.301 0 000-2.603 1.3 1.3 0 00-1.299 1.301 1.3 1.3 0 001.299 1.302z" stroke="#02395c" stroke-linecap="round" stroke-linejoin="round"/><path d="M258 130.5c10.217 0 18.5-8.283 18.5-18.5s-8.283-18.5-18.5-18.5-18.5 8.283-18.5 18.5 8.283 18.5 18.5 18.5z" fill="#1DA1F2" stroke="#01283d"/><path d="M254.706 121.495c7.983 0 12.348-6.615 12.348-12.348 0-.189 0-.378-.009-.558a8.891 8.891 0 002.169-2.25 8.808 8.808 0 01-2.493.684 4.337 4.337 0 001.908-2.403 8.788 8.788 0 01-2.754 1.053 4.319 4.319 0 00-3.168-1.368 4.34 4.34 0 00-4.338 4.338c0 .342.036.675.117.99a12.311 12.311 0 01-8.946-4.536 4.353 4.353 0 00-.585 2.178 4.32 4.32 0 001.935 3.609 4.263 4.263 0 01-1.962-.54v.054a4.345 4.345 0 003.483 4.257 4.326 4.326 0 01-1.962.072 4.333 4.333 0 004.05 3.015 8.724 8.724 0 01-6.426 1.791 12.091 12.091 0 006.633 1.962z" fill="#fff"/><path d="M81 105l11 11M205 130l35-12M160 117l33-67" stroke="#02395c" stroke-linecap="round" stroke-linejoin="round"/><circle cx="205" cy="27" r="26.5" fill="#1877F2" stroke="#1D2327"/><path d="M215.121 34.516L216.273 27h-7.211v-4.875c0-2.057 1.006-4.063 4.236-4.063h3.28v-6.398s-2.976-.508-5.819-.508c-5.942 0-9.821 3.6-9.821 10.116V27h-6.602v7.516h6.602v18.17A26.15 26.15 0 00205 53a26.15 26.15 0 004.062-.315v-18.17h6.059z" fill="#fff"/><path d="M12 205l56-23.1m24-9.9l-16.5 6.806" stroke="#02395c" stroke-linecap="round" stroke-linejoin="round"/><circle cx="10" cy="205" r="9.5" fill="#F5E1B3" stroke="#01283d"/><circle cx="64" cy="89" r="23.5" fill="#fff" stroke="#01283d"/><g clip-path="url(#clip0)"><path d="M78 88.833c0-.986-.079-1.977-.247-2.946H64.281v5.583h7.715a6.72 6.72 0 01-2.855 4.407V99.5h4.603C76.447 96.974 78 93.245 78 88.833z" fill="#4285F4"/><path d="M64.28 103c3.853 0 7.102-1.284 9.469-3.5l-4.603-3.624c-1.28.885-2.934 1.386-4.86 1.386-3.726 0-6.886-2.552-8.02-5.984h-4.75v3.735C53.942 99.91 58.88 103 64.282 103z" fill="#34A853"/><path d="M56.261 91.279a8.81 8.81 0 010-5.552v-3.735h-4.744a14.709 14.709 0 000 13.021l4.744-3.734z" fill="#FBBC04"/><path d="M64.28 79.738a7.699 7.699 0 015.48 2.174l4.078-4.14A13.615 13.615 0 0064.281 74c-5.4 0-10.34 3.09-12.764 7.992l4.744 3.735c1.129-3.437 4.293-5.989 8.02-5.989z" fill="#EA4335"/></g><defs><clipPath id="clip0"><path fill="#fff" d="M50 74h28v29H50z"/></clipPath></defs></svg>