<svg width="281" height="129" xmlns="http://www.w3.org/2000/svg"><g fill="none" fill-rule="evenodd"><path fill="#C3C4C7" fill-rule="nonzero" d="M4 0h277v112H4z"/><path d="M280 32v79H5V32h275zm0-31v30H53V1h227zM52 1v30H5V1h47z" fill="#FFF"/><path d="M92 10v12H60V10h32zm72 0v12h-64V10h64zm56 0v12h-48V10h48zM212.285 40.002L173.987 40c-1.498 0-2.202.136-2.932.527a3.68 3.68 0 0 0-1.528 1.528c-.367.685-.509 1.346-.525 2.66L169 83.013c0 1.498.136 2.202.527 2.932a3.68 3.68 0 0 0 1.528 1.528c.73.391 1.434.527 2.932.527h38.026c1.498 0 2.202-.136 2.932-.527a3.68 3.68 0 0 0 1.528-1.528c.391-.73.527-1.434.527-2.932V44.987c0-1.498-.136-2.202-.527-2.932a3.68 3.68 0 0 0-1.528-1.528c-.685-.367-1.346-.509-2.66-.525zm-56 56c1.314.016 1.975.158 2.66.525a3.68 3.68 0 0 1 1.528 1.528c.367.685.509 1.346.525 2.66L161 111h-1l.001-10.013c0-1.257-.092-1.818-.35-2.348l-.058-.113a2.68 2.68 0 0 0-1.118-1.118c-.528-.282-1.04-.393-2.202-.407h-38.544c-1.161.014-1.674.125-2.202.407a2.68 2.68 0 0 0-1.118 1.118c-.262.49-.376.967-.402 1.963l-.006.498V111h-.999v-10.285c.016-1.22.14-1.878.45-2.514l.076-.146a3.68 3.68 0 0 1 1.528-1.528c.685-.367 1.346-.509 2.66-.525h38.57zm56 0c1.314.016 1.975.158 2.66.525a3.68 3.68 0 0 1 1.528 1.528c.367.685.509 1.346.525 2.66L217 111h-1l.001-10.013c0-1.257-.092-1.818-.35-2.348l-.058-.113a2.68 2.68 0 0 0-1.118-1.118c-.528-.282-1.04-.393-2.202-.407h-38.544c-1.161.014-1.674.125-2.202.407a2.68 2.68 0 0 0-1.118 1.118c-.262.49-.376.967-.402 1.963l-.006.498V111h-.999v-10.285c.016-1.22.14-1.878.45-2.514l.076-.146a3.68 3.68 0 0 1 1.528-1.528c.685-.367 1.346-.509 2.66-.525h38.57zm56 0c1.314.016 1.975.158 2.66.525a3.68 3.68 0 0 1 1.528 1.528c.367.685.509 1.346.525 2.66L273 111h-1l.001-10.013-.005-.468c-.023-.938-.122-1.42-.345-1.88l-.058-.113a2.68 2.68 0 0 0-1.118-1.118c-.528-.282-1.04-.393-2.202-.407h-38.544c-1.161.014-1.674.125-2.202.407a2.68 2.68 0 0 0-1.118 1.118c-.262.49-.376.967-.402 1.963l-.006.498V111h-.999v-10.285c.016-1.22.14-1.878.45-2.514l.076-.146a3.68 3.68 0 0 1 1.528-1.528c.685-.367 1.346-.509 2.66-.525h38.57zm-38.57-56h38.57c1.314.016 1.975.158 2.66.525a3.68 3.68 0 0 1 1.528 1.528c.367.685.509 1.346.525 2.66l.002.272v38.026c0 1.498-.136 2.202-.527 2.932a3.68 3.68 0 0 1-1.528 1.528c-.685.367-1.346.509-2.66.525l-.272.002h-38.026c-1.498 0-2.202-.136-2.932-.527a3.68 3.68 0 0 1-1.528-1.528c-.367-.685-.509-1.346-.525-2.66v-38.57c.016-1.314.158-1.975.525-2.66a3.68 3.68 0 0 1 1.528-1.528c.685-.367 1.346-.509 2.66-.525zm-112 0h38.57c1.314.016 1.975.158 2.66.525a3.68 3.68 0 0 1 1.528 1.528c.367.685.509 1.346.525 2.66l.002.272v38.026c0 1.498-.136 2.202-.527 2.932a3.68 3.68 0 0 1-1.528 1.528c-.685.367-1.346.509-2.66.525l-.272.002h-38.026c-1.498 0-2.202-.136-2.932-.527a3.68 3.68 0 0 1-1.528-1.528c-.367-.685-.509-1.346-.525-2.66v-38.57c.016-1.314.158-1.975.525-2.66a3.68 3.68 0 0 1 1.528-1.528c.685-.367 1.346-.509 2.66-.525zm56.013 1L212.013 41c1.347 0 1.895.106 2.46.408.484.259.86.635 1.119 1.118.302.566.408 1.114.408 2.46v38.027l-.006.498c-.026.996-.14 1.472-.402 1.963a2.68 2.68 0 0 1-1.118 1.118c-.566.302-1.114.408-2.46.408h-38.027l-.498-.006c-.996-.026-1.472-.14-1.963-.402a2.68 2.68 0 0 1-1.118-1.118c-.282-.528-.393-1.04-.407-2.202L170 44.987c0-1.347.106-1.895.408-2.46a2.68 2.68 0 0 1 1.118-1.119c.528-.282 1.04-.393 2.202-.407zm94.544 0h-38.544c-1.161.013-1.674.124-2.202.406a2.68 2.68 0 0 0-1.118 1.118c-.282.528-.393 1.04-.407 2.202v38.544c.014 1.161.125 1.674.407 2.202.259.483.635.86 1.118 1.118.45.24.888.356 1.724.394l.239.008.498.006h38.026l.498-.006c.996-.026 1.472-.14 1.963-.402a2.68 2.68 0 0 0 1.118-1.118c.24-.45.356-.888.394-1.724l.008-.239.006-.498V44.987l-.006-.498c-.026-.996-.14-1.472-.402-1.963a2.68 2.68 0 0 0-1.118-1.118c-.528-.282-1.04-.393-2.202-.407zm-112 0h-38.544c-1.161.013-1.674.124-2.202.406a2.68 2.68 0 0 0-1.118 1.118c-.282.528-.393 1.04-.407 2.202v38.544c.014 1.161.125 1.674.407 2.202.259.483.635.86 1.118 1.118.45.24.888.356 1.724.394l.239.008.498.006h38.026l.498-.006c.996-.026 1.472-.14 1.963-.402a2.68 2.68 0 0 0 1.118-1.118c.24-.45.356-.888.394-1.724l.008-.239.006-.498V44.987l-.006-.498c-.026-.996-.14-1.472-.402-1.963a2.68 2.68 0 0 0-1.118-1.118c-.528-.282-1.04-.393-2.202-.407z" fill="#DCDCDE" fill-rule="nonzero"/><path d="M17 28.11L24.89 36h109.982c1.783 0 2.43.186 3.082.534.652.349 1.163.86 1.512 1.512.348.652.534 1.299.534 3.082v82.744c0 1.783-.186 2.43-.534 3.082a3.635 3.635 0 0 1-1.512 1.512c-.652.348-1.299.534-3.082.534H5.128c-1.783 0-2.43-.186-3.082-.534a3.635 3.635 0 0 1-1.512-1.512c-.33-.618-.514-1.23-.532-2.81L0 41.128c0-1.783.186-2.43.534-3.082a3.635 3.635 0 0 1 1.512-1.512c.618-.33 1.23-.514 2.81-.532L9.11 36 17 28.11z" fill="#C3C4C7" fill-rule="nonzero"/><path d="M17 29.524L9.524 37 4.867 37c-1.29.016-1.803.123-2.35.415a2.635 2.635 0 0 0-1.1 1.102c-.273.508-.389 1.003-.412 2.126L1 41.128l.001 83.005c.016 1.29.123 1.803.415 2.35.255.477.624.846 1.102 1.1.508.273 1.003.389 2.126.412l.484.005h129.744l.484-.005c1.123-.023 1.618-.14 2.126-.411a2.635 2.635 0 0 0 1.102-1.102c.272-.508.388-1.003.411-2.126l.005-.484V41.128l-.005-.484c-.023-1.123-.14-1.618-.411-2.126a2.635 2.635 0 0 0-1.102-1.102c-.508-.272-1.003-.388-2.126-.411l-.484-.005H24.476L17 29.524z" fill="#FFF" fill-rule="nonzero"/><g><path fill="#3582c4" fill-rule="nonzero" d="M0 97h140v24H0z"/><path d="M124 77v8H40v-8h84zM92 53v8H40v-8h52zM41.293 13.793L42 14.5l-4 4-4-4 .707-.707L38 17.086l3.293-3.293z" fill="#646970" fill-rule="nonzero"/><path d="M19 82l1 .923V88l-3-2.77V82h2zm8 0l-2.77 3H21v-2l.923-1H27zm-6-7l3 2.77V81h-2l-1-.923V75zm-1 3v2l-.923 1H14l2.77-3H20zm4-26.894c.736 0 1.333.597 1.333 1.334v8c0 .736-.596 1.333-1.333 1.333h-8a1.333 1.333 0 0 1-1.333-1.333v-8c0-.737.597-1.334 1.333-1.334h8zm0 1.334h-8v4.253l1.46-1.46 3.487 3.487.666-.667a1.06 1.06 0 0 1 1.407.073l.98.98V52.44zm-2.333 1.333a1 1 0 1 1 0 2 1 1 0 0 1 0-2zM24 10.667c.736 0 1.333.597 1.333 1.333v8c0 .736-.596 1.333-1.333 1.333h-8A1.333 1.333 0 0 1 14.667 20v-8c0-.736.597-1.333 1.333-1.333h8zM24 12h-8v4.253l1.46-1.46 3.487 3.487.666-.667a1.06 1.06 0 0 1 1.407.074l.98.98V12zm-2.333 1.333a1 1 0 1 1 0 2 1 1 0 0 1 0-2z" fill="#50575E" fill-rule="nonzero"/><path d="M22 106a1 1 0 1 1 2 0 1 1 0 0 1-2 0zm-7.333 8.333H24c0 .737-.597 1.334-1.333 1.334h-8c-.734 0-1.334-.6-1.334-1.334v-8c0-.736.597-1.333 1.334-1.333v9.333zm12-10.666v8c0 .736-.597 1.333-1.334 1.333h-8A1.333 1.333 0 0 1 16 111.667v-8c0-.737.597-1.334 1.333-1.334h8c.737 0 1.334.597 1.334 1.334zM104 105v8H40v-8h64zm-78.667-1.333v5.231l-.342-.362a1.377 1.377 0 0 0-1.984 0l-.438.464-3.236-3.427-2 2.117v-4.023h8z" fill="#FFF"/></g></g></svg>
