<svg width="244" height="164" viewBox="0 0 61 41" xmlns="http://www.w3.org/2000/svg"><path d="M2.003 41c-1.502 0-2.45-1.584-1.79-2.894l.072-.13 15.5-26c.748-1.255 2.527-1.3 3.349-.135l.087.135 4.84 8.119L35.288 1.468c.749-1.243 2.511-1.289 3.335-.138l.09.138 21.999 36.5c.777 1.29-.097 2.923-1.565 3.027L59 41H2.003z" fill="#fff"/><path fill="#009172" d="M37 2.5L59 39H35.33L25.222 22.043z"/><path fill="#5198D9" d="M17.503 13l5.388 9.037L12.667 39H2.003z"/><path fill="#EB6594" d="M24.052 23.985L33.003 39h-18z"/></svg>