<svg width="170" height="170" viewBox="0 0 170 170" fill="none" xmlns="http://www.w3.org/2000/svg">
<g clip-path="url(#clip0_2459_31144)">
<rect width="170" height="170" fill="white"/>
<rect width="170" height="112" fill="#F6F7F7"/>
<rect y="-27" width="107" height="107" fill="#BBE0FA"/>
<path fill-rule="evenodd" clip-rule="evenodd" d="M140.485 64.0001C139.897 64.0001 139.335 63.022 138.92 62.6065L130.02 53.707C129.63 53.3164 128.997 53.3164 128.606 53.707L119.707 62.6065C119.291 63.022 118.729 64.0001 118.142 64.0001H19C18.4477 64.0001 18 64.4478 18 65.0001V202C18 202.552 18.4477 203 19 203H151C151.552 203 152 202.552 152 202V65.0001C152 64.4478 151.552 64.0001 151 64.0001H140.485Z" fill="white"/>
<path d="M130.02 53.707L130.374 53.3534V53.3534L130.02 53.707ZM128.606 53.707L128.253 53.3534V53.3534L128.606 53.707ZM129.667 54.0605L138.566 62.96L139.273 62.2529L130.374 53.3534L129.667 54.0605ZM128.96 54.0605C129.155 53.8652 129.472 53.8652 129.667 54.0605L130.374 53.3534C129.788 52.7676 128.838 52.7676 128.253 53.3534L128.96 54.0605ZM120.06 62.96L128.96 54.0605L128.253 53.3534L119.353 62.2529L120.06 62.96ZM19 64.5001H118.142V63.5001H19V64.5001ZM18.5 65.0001C18.5 64.7239 18.7239 64.5001 19 64.5001V63.5001C18.1716 63.5001 17.5 64.1716 17.5 65.0001H18.5ZM18.5 202V65.0001H17.5V202H18.5ZM19 202.5C18.7239 202.5 18.5 202.276 18.5 202H17.5C17.5 202.829 18.1716 203.5 19 203.5V202.5ZM151 202.5H19V203.5H151V202.5ZM151.5 202C151.5 202.276 151.276 202.5 151 202.5V203.5C151.828 203.5 152.5 202.829 152.5 202H151.5ZM151.5 65.0001V202H152.5V65.0001H151.5ZM151 64.5001C151.276 64.5001 151.5 64.7239 151.5 65.0001H152.5C152.5 64.1717 151.828 63.5001 151 63.5001V64.5001ZM140.485 64.5001H151V63.5001H140.485V64.5001ZM119.353 62.2529C119.226 62.3797 119.096 62.5409 118.979 62.6869C118.855 62.8415 118.738 62.9899 118.616 63.1253C118.494 63.2617 118.386 63.3639 118.291 63.4297C118.195 63.4965 118.149 63.5001 118.142 63.5001V64.5001C118.429 64.5001 118.673 64.3814 118.86 64.2518C119.049 64.1212 119.217 63.953 119.361 63.7929C119.505 63.6319 119.643 63.4578 119.76 63.3121C119.883 63.1578 119.979 63.041 120.06 62.96L119.353 62.2529ZM138.566 62.96C138.647 63.041 138.743 63.1578 138.867 63.3121C138.983 63.4578 139.121 63.6319 139.265 63.7929C139.409 63.953 139.577 64.1212 139.766 64.2518C139.953 64.3814 140.198 64.5001 140.485 64.5001V63.5001C140.478 63.5001 140.432 63.4965 140.335 63.4297C140.24 63.3639 140.132 63.2617 140.01 63.1253C139.889 62.9899 139.771 62.8415 139.647 62.6869C139.53 62.5409 139.4 62.3797 139.273 62.2529L138.566 62.96Z" fill="url(#paint0_linear_2459_31144)"/>
<rect x="18" y="102" width="134" height="32" fill="#3B52E5" fill-opacity="0.1"/>
<path d="M49 114V120C50.7 120 52 118.7 52 117C52 115.3 50.7 114 49 114ZM41 113H34C32.9 113 32 113.9 32 115V119C32 120.1 32.9 121 34 121H35V124C35 125.1 35.9 126 37 126H39V121H41L45 125H47V109H45L41 113Z" fill="#3B52E5"/>
<path d="M69 86L137 86" stroke="#DCDCDE" stroke-width="8"/>
<path d="M69 150L137 150" stroke="#DCDCDE" stroke-width="8"/>
<path d="M43 79.9997L48 84.9997L38.493 94.5067C38.164 94.1776 37.9782 93.732 37.976 93.2667C37.9737 92.8013 38.1552 92.3539 38.481 92.0217L38.478 92.0187C38.1509 92.353 37.7043 92.5437 37.2366 92.5487C36.7689 92.5538 36.3183 92.3728 35.984 92.0457C35.6497 91.7186 35.459 91.272 35.454 90.8043C35.4489 90.3366 35.6299 89.886 35.957 89.5517L35.949 89.5437C35.6152 89.8575 35.1724 90.0292 34.7142 90.0225C34.2561 90.0158 33.8185 89.8312 33.494 89.5077L43 79.9997ZM50.586 79.5857L48.414 77.4137C48.0389 77.0388 47.5303 76.8281 47 76.8281C46.4697 76.8281 45.9611 77.0388 45.586 77.4137L44 78.9997L49 83.9997L50.586 82.4137C50.9609 82.0386 51.1716 81.53 51.1716 80.9997C51.1716 80.4694 50.9609 79.9608 50.586 79.5857ZM33 91.9997V94.9997H36C36 94.2041 35.6839 93.441 35.1213 92.8784C34.5587 92.3158 33.7956 91.9997 33 91.9997Z" fill="#DCDCDE"/>
<path d="M69.9375 122H72.2969V118.445H74.4688C76.8438 118.445 78.4297 116.914 78.4297 114.594V114.578C78.4297 112.258 76.8438 110.727 74.4688 110.727H69.9375V122ZM73.8906 112.594C75.2422 112.594 76.0391 113.305 76.0391 114.586V114.602C76.0391 115.883 75.2422 116.602 73.8906 116.602H72.2969V112.594H73.8906ZM80.0128 122H82.2941V117.312C82.2941 116.094 82.9503 115.422 84.0753 115.422C84.4034 115.422 84.7159 115.469 84.9034 115.547V113.539C84.7316 113.492 84.4972 113.453 84.2472 113.453C83.2706 113.453 82.5909 114.055 82.3409 115.086H82.2941V113.625H80.0128V122ZM89.7834 122.172C92.3147 122.172 93.9319 120.547 93.9319 117.812V117.797C93.9319 115.086 92.2834 113.453 89.7756 113.453C87.2756 113.453 85.635 115.102 85.635 117.797V117.812C85.635 120.539 87.2366 122.172 89.7834 122.172ZM89.7913 120.383C88.6663 120.383 87.9553 119.453 87.9553 117.812V117.797C87.9553 116.18 88.6741 115.242 89.7756 115.242C90.885 115.242 91.6116 116.18 91.6116 117.797V117.812C91.6116 119.445 90.9006 120.383 89.7913 120.383ZM95.4916 122H97.7728V116.945C97.7728 116 98.3587 115.344 99.2259 115.344C100.07 115.344 100.577 115.875 100.577 116.773V122H102.773V116.906C102.773 115.977 103.343 115.344 104.21 115.344C105.093 115.344 105.577 115.875 105.577 116.844V122H107.859V116.273C107.859 114.586 106.757 113.453 105.117 113.453C103.89 113.453 102.89 114.125 102.515 115.18H102.468C102.187 114.078 101.335 113.453 100.163 113.453C99.0384 113.453 98.1634 114.078 97.8197 115.031H97.7728V113.625H95.4916V122ZM113.528 122.172C116.059 122.172 117.676 120.547 117.676 117.812V117.797C117.676 115.086 116.028 113.453 113.52 113.453C111.02 113.453 109.379 115.102 109.379 117.797V117.812C109.379 120.539 110.981 122.172 113.528 122.172ZM113.536 120.383C112.411 120.383 111.7 119.453 111.7 117.812V117.797C111.7 116.18 112.418 115.242 113.52 115.242C114.629 115.242 115.356 116.18 115.356 117.797V117.812C115.356 119.445 114.645 120.383 113.536 120.383ZM122.564 122.172C123.041 122.172 123.408 122.125 123.666 122.086V120.414C123.525 120.43 123.377 120.453 123.173 120.453C122.486 120.453 122.134 120.188 122.134 119.406V115.344H123.666V113.625H122.134V111.578H119.83V113.625H118.666V115.344H119.83V119.656C119.83 121.453 120.705 122.172 122.564 122.172ZM128.991 122.172C131.382 122.172 132.538 120.758 132.796 119.523L132.819 119.438H130.725L130.71 119.484C130.546 119.953 129.975 120.469 129.038 120.469C127.874 120.469 127.147 119.688 127.124 118.352H132.889V117.648C132.889 115.117 131.35 113.453 128.897 113.453C126.444 113.453 124.874 115.156 124.874 117.82V117.828C124.874 120.508 126.428 122.172 128.991 122.172ZM128.936 115.156C129.882 115.156 130.561 115.758 130.702 116.914H127.147C127.296 115.781 127.999 115.156 128.936 115.156Z" fill="black"/>
<circle cx="129.5" cy="20.5" r="2.5" fill="#646970"/>
<circle cx="129.5" cy="29.5" r="2.5" fill="#646970"/>
<circle cx="129.5" cy="38.5" r="2.5" fill="#646970"/>
<path d="M49 141H35C34.4696 141 33.9609 141.211 33.5858 141.586C33.2107 141.961 33 142.47 33 143V157C33 157.53 33.2107 158.039 33.5858 158.414C33.9609 158.789 34.4696 159 35 159H49C49.5304 159 50.0391 158.789 50.4142 158.414C50.7893 158.039 51 157.53 51 157V143C51 142.47 50.7893 141.961 50.4142 141.586C50.0391 141.211 49.5304 141 49 141ZM49 157H35V143H49V157ZM39 155H37V150H39V155ZM43 155H41V145H43V155ZM47 155H45V148H47V155Z" fill="#DCDCDE"/>
</g>
<defs>
<linearGradient id="paint0_linear_2459_31144" x1="85" y1="53.4141" x2="85" y2="170.5" gradientUnits="userSpaceOnUse">
<stop stop-color="#CCCDCF"/>
<stop offset="1" stop-color="#CCCDCF" stop-opacity="0"/>
</linearGradient>
<clipPath id="clip0_2459_31144">
<rect width="170" height="170" fill="white"/>
</clipPath>
</defs>
</svg>
