<svg width="378" height="223" fill="none" xmlns="http://www.w3.org/2000/svg"><mask id="a" maskUnits="userSpaceOnUse" x="45" y="5" width="287" height="200"><path d="M111.625 33.907c-8.211 0-14.897 6.685-14.897 14.897 0 8.21 6.686 14.896 14.897 14.896s14.896-6.685 14.896-14.896c0-8.212-6.685-14.897-14.896-14.897zM98.236 48.804c0-1.944.418-3.779 1.163-5.45l6.395 17.512c-4.488-2.18-7.558-6.758-7.558-12.062zm13.389 13.388c-1.308 0-2.58-.2-3.779-.545l4.015-11.68 4.124 11.28a.552.552 0 00.091.182c-1.399.49-2.889.763-4.451.763zm1.853-19.674a21.926 21.926 0 001.526-.127c.727-.09.636-1.145-.091-1.108 0 0-2.162.163-3.579.163-1.308 0-3.524-.163-3.524-.163-.727-.037-.799 1.053-.091 1.108 0 0 .69.09 1.399.127l2.089 5.722-2.925 8.793-4.868-14.515c.799-.036 1.526-.127 1.526-.127.726-.09.636-1.145-.091-1.108 0 0-2.162.163-3.561.163-.254 0-.545 0-.854-.018 2.398-3.615 6.504-6.013 11.191-6.013a13.28 13.28 0 019.047 3.524c-.055 0-.109-.018-.182-.018-1.308 0-2.253 1.145-2.253 2.38 0 1.108.636 2.035 1.308 3.143.509.89 1.109 2.034 1.109 3.688 0 1.144-.346 2.597-1.018 4.323l-1.344 4.469-4.814-14.406zm4.887 17.858l4.087-11.827c.763-1.907 1.017-3.433 1.017-4.796 0-.49-.036-.944-.09-1.38 1.053 1.907 1.635 4.087 1.635 6.43 0 4.942-2.671 9.247-6.649 11.573zM228.578 49.35c0-.8.872-1.109 1.799-1.109 1.508 0 2.943.472 2.943.472v-2.18c-.981-.29-1.98-.4-3.143-.4-2.543 0-4.324 1.2-4.324 3.162 0 3.796 5.251 2.834 5.251 4.668 0 .909-.818 1.163-2.017 1.163-.854 0-2.198-.327-3.179-.672v2.162c.817.327 1.962.617 3.088.617 2.471 0 4.832-.726 4.832-3.379 0-3.67-5.25-2.724-5.25-4.505zm13.843 2.234c0-2.471 1.363-3.307 2.961-3.307 1.072 0 2.198.31 2.943.6v-2.235c-.89-.29-1.671-.508-2.997-.508-3.47 0-5.632 2.125-5.632 5.577 0 3.27 1.563 5.522 5.486 5.522 1.254 0 2.217-.236 3.289-.6v-2.18c-1.199.473-2.126.655-2.943.655-1.744-.018-3.107-.818-3.107-3.524zm-75.499-3.452h-.091v-1.744h-2.453v10.573h2.635v-6.286c.817-1.562 1.816-2.07 3.488-2.07h.272v-2.29s-.381-.036-.708-.036c-1.436-.018-2.417.545-3.143 1.853zm32.935 0h-.09v-1.744h-2.453v10.573h2.616v-6.286c.818-1.562 1.817-2.07 3.488-2.07h.272v-2.29s-.381-.036-.708-.036c-1.417-.018-2.398.545-3.125 1.853zm75.972-1.998c-1.126 0-2.416.617-3.597 1.398l-.309.2c-.563-1.18-1.671-1.598-2.888-1.598-1.126 0-2.416.581-3.597 1.362v-1.09h-2.489V56.98h2.652v-7.593c.981-.655 2.017-1.054 2.78-1.054.872 0 1.399.472 1.399 1.962v6.667h2.634v-7.557c.981-.654 2.016-1.072 2.779-1.072.872 0 1.399.472 1.399 1.962v6.667h2.616v-7.285c-.036-2.053-1.253-3.542-3.379-3.542zm-20.364 8.992c-1.708 0-2.616-1.108-2.616-3.433 0-2.29.908-3.434 2.616-3.434 1.707 0 2.597 1.108 2.597 3.434 0 2.289-.89 3.433-2.597 3.433zm0-8.992c-3.634 0-5.341 2.343-5.341 5.559 0 3.215 1.707 5.54 5.341 5.54 3.597 0 5.341-2.307 5.341-5.54 0-3.234-1.744-5.56-5.341-5.56zm-36.442 3.215c0-.8.872-1.108 1.798-1.108 1.508 0 2.943.472 2.943.472v-2.18c-.981-.29-1.98-.4-3.142-.4-2.544 0-4.324 1.2-4.324 3.162 0 3.796 5.25 2.834 5.25 4.668 0 .909-.817 1.163-2.016 1.163-.854 0-2.199-.327-3.18-.672v2.162c.818.327 1.962.617 3.089.617 2.47 0 4.832-.726 4.832-3.379 0-3.67-5.25-2.724-5.25-4.505zm-11.39 1.163c.163-1.472.962-2.398 2.27-2.398 1.399 0 1.817 1.108 1.817 2.398h-4.087zm2.307-4.378c-3.379 0-5.141 2.634-5.141 5.486 0 3.942 2.071 5.613 5.431 5.613 1.363 0 2.525-.181 3.906-.6v-2.18c-1.108.4-2.089.655-3.161.655-1.962 0-3.27-.527-3.324-2.852h6.758c.036-.418.09-.818.09-1.563-.036-2.234-1.199-4.56-4.559-4.56zm-19.729 3.47h-2.089v-5.341h2.089c1.689 0 2.543.926 2.543 2.597-.018 1.654-.799 2.743-2.543 2.743zm-.036-7.54h-4.869v14.897h2.798v-5.178h2.053c3.179 0 5.504-1.707 5.504-4.923.018-3.215-2.307-4.795-5.486-4.795zm-10.737 11.863c-.853.781-1.653 1.2-2.488 1.2-1.454 0-2.38-.964-2.38-3.198 0-2.416 1.162-3.688 3.161-3.688.617 0 1.271.163 1.707.327v5.36zm0-7.557c-.781-.164-1.326-.236-1.98-.236-3.633 0-5.613 2.416-5.613 5.958 0 3.506 1.98 5.141 4.323 5.141 1.163 0 2.562-.526 3.398-1.253v.98h2.488V42.066h-2.616v4.305zm-22.508 8.756c-1.707 0-2.616-1.108-2.616-3.433 0-2.29.909-3.434 2.616-3.434 1.708 0 2.598 1.108 2.598 3.434 0 2.289-.89 3.433-2.598 3.433zm0-8.992c-3.633 0-5.341 2.343-5.341 5.559 0 3.215 1.708 5.54 5.341 5.54 3.597 0 5.341-2.307 5.341-5.54 0-3.234-1.744-5.56-5.341-5.56zm78.642 10.827h2.635v-2.707h-2.635v2.707zM149.21 42.065l-2.98 11.408-2.961-11.408h-2.997l.69 2.452-2.616 9.356-2.852-11.79h-2.889l4.052 14.896h3.142l2.435-7.975 2.27 7.975h3.143l4.251-14.896h-2.688v-.018zM88.962 6.083H78.736V8.73h3.498v13.367h3.23V8.729h3.498V6.083zm10.484 0v16.013h3.23v-7.11h3.767v7.11h3.23V6.083h-3.23v6.123h-3.767V6.083h-3.23zm30.493 0h-8.948v16.013h9.172v-2.647h-5.943v-4.306h5.382v-2.646h-5.382V8.73h5.719V6.083zm28.295 8.006c0-1.076.022-1.988.067-2.736.06-.747.165-1.36.314-1.839.165-.478.389-.822.673-1.031.299-.224.688-.337 1.166-.337.479 0 .86.113 1.144.337.299.21.523.553.673 1.031.164.479.269 1.092.314 1.84.059.747.089 1.659.089 2.735 0 1.077-.03 1.996-.089 2.759-.045.747-.15 1.36-.314 1.839-.15.463-.374.807-.673 1.031-.284.21-.665.314-1.144.314-.478 0-.867-.104-1.166-.314-.284-.224-.508-.568-.673-1.031-.149-.479-.254-1.092-.314-1.84a47.9 47.9 0 01-.067-2.758zm-3.23 0c0 1.226.053 2.348.157 3.364.12 1.017.367 1.892.74 2.624a4.002 4.002 0 001.66 1.682c.718.389 1.682.583 2.893.583 1.211 0 2.175-.194 2.893-.583a3.867 3.867 0 001.637-1.682c.389-.732.636-1.607.74-2.624.12-1.016.18-2.138.18-3.364 0-1.21-.06-2.325-.18-3.341-.104-1.032-.351-1.914-.74-2.646a4 4 0 00-1.637-1.705c-.718-.419-1.682-.628-2.893-.628-1.211 0-2.175.21-2.893.628a4.143 4.143 0 00-1.66 1.705c-.373.732-.62 1.614-.74 2.646a32.969 32.969 0 00-.157 3.341zm21.881-8.006v16.013h3.23v-6.953h5.382v-2.646h-5.382V8.73h5.718V6.083h-8.948zm19.464 0v16.013h3.229v-6.953h5.383v-2.646h-5.383V8.73h5.719V6.083h-8.948zm19.621 16.013h3.229V6.083h-3.229v16.013zm21.548-10.608h3.229c0-.583-.045-1.204-.135-1.861a4.697 4.697 0 00-.605-1.862c-.329-.583-.83-1.061-1.503-1.435-.658-.374-1.562-.56-2.713-.56-1.211 0-2.176.208-2.893.627a4.143 4.143 0 00-1.66 1.705c-.374.732-.62 1.614-.74 2.646a32.68 32.68 0 00-.157 3.341c0 1.226.052 2.348.157 3.364.12 1.017.366 1.892.74 2.624a4.002 4.002 0 001.66 1.682c.717.389 1.682.583 2.893.583 1.061 0 1.921-.164 2.579-.493.673-.329 1.188-.785 1.547-1.368.374-.583.628-1.263.763-2.04.134-.778.202-1.6.202-2.468h-3.23c0 .867-.052 1.57-.157 2.108-.105.524-.247.935-.426 1.234-.179.284-.396.478-.65.583-.24.09-.501.134-.785.134a2.03 2.03 0 01-.92-.201c-.254-.15-.471-.427-.65-.83-.165-.419-.292-1.002-.381-1.75-.075-.747-.113-1.726-.113-2.937 0-1.137.03-2.094.09-2.87.06-.793.165-1.429.314-1.907.15-.494.352-.845.606-1.054.269-.224.605-.337 1.009-.337.732 0 1.233.27 1.502.808.285.523.427 1.368.427 2.534zm14.445 10.608h3.229V6.083h-3.229v16.013zm21.39-6.033l-1.547-7.199h-.045l-1.547 7.199h3.139zm.427-9.98l4.238 16.013h-3.364l-.74-3.387h-4.261l-.74 3.387h-3.364l4.239-16.013h3.992zm14.435 16.013h8.948v-2.647h-5.719V6.083h-3.229v16.013zM72.809 95.888h11.617c0-6.117-1.46-10.803-4.377-14.059-2.919-3.31-7.689-4.966-14.311-4.966-3.873 0-7.1.645-9.681 1.936-2.582 1.29-4.658 3.227-6.23 5.808-1.571 2.526-2.694 5.697-3.367 9.513-.617 3.816-.926 8.25-.926 13.301 0 5.219.224 9.821.673 13.806.45 3.928 1.32 7.239 2.61 9.933 1.347 2.694 3.17 4.686 5.472 5.977 2.357 1.291 5.387 1.936 9.091 1.936 2.863 0 5.304-.477 7.324-1.431 2.077-1.01 3.845-2.693 5.304-5.051h.168v5.556H85.1v-32.41H65.485v8.924h7.997v6.145c0 1.627-.252 3.059-.757 4.293-.505 1.179-1.15 2.161-1.936 2.947-.73.785-1.544 1.375-2.442 1.767-.841.393-1.627.59-2.357.59-1.74 0-3.17-.533-4.293-1.6-1.066-1.122-1.908-2.694-2.526-4.714-.56-2.076-.954-4.574-1.178-7.492-.225-2.919-.337-6.174-.337-9.765 0-7.52.645-12.908 1.936-16.163 1.291-3.255 3.396-4.883 6.314-4.883 1.235 0 2.273.337 3.115 1.01.898.618 1.627 1.431 2.189 2.442.56.954.954 2.02 1.178 3.198.28 1.179.42 2.33.42 3.452zM92.9 78.041v60.106h12.122v-25.423h6.483c2.525 0 4.321.674 5.387 2.021 1.066 1.347 1.656 3.199 1.768 5.556l.337 11.533a34.3 34.3 0 00.336 3.451 6.477 6.477 0 001.179 2.862h13.132v-.505c-1.122-.617-1.852-1.767-2.188-3.451-.225-1.684-.393-4.125-.505-7.324a490.25 490.25 0 00-.169-4.377 64.464 64.464 0 00-.252-3.704c-.337-3.368-1.207-5.809-2.61-7.324-1.403-1.516-3.62-2.498-6.65-2.947v-.168c3.423-.73 5.949-2.357 7.576-4.883 1.628-2.581 2.441-5.892 2.441-9.933 0-5.22-1.403-9.092-4.209-11.617-2.806-2.582-6.734-3.873-11.785-3.873H92.9zm12.122 26.265V86.965h5.725c5.612 0 8.418 2.778 8.418 8.334 0 3.255-.786 5.584-2.357 6.987-1.571 1.347-3.816 2.02-6.735 2.02h-5.051zm45.515 3.788c0-4.04.084-7.464.252-10.27.225-2.806.618-5.107 1.179-6.903.617-1.796 1.459-3.087 2.525-3.872 1.123-.842 2.582-1.263 4.378-1.263 1.796 0 3.227.421 4.293 1.263 1.123.785 1.964 2.076 2.526 3.872.617 1.796 1.01 4.097 1.178 6.903.225 2.806.337 6.23.337 10.27 0 4.041-.112 7.493-.337 10.355-.168 2.806-.561 5.107-1.178 6.903-.562 1.74-1.403 3.03-2.526 3.872-1.066.786-2.497 1.179-4.293 1.179-1.796 0-3.255-.393-4.378-1.179-1.066-.842-1.908-2.132-2.525-3.872-.561-1.796-.954-4.097-1.179-6.903-.168-2.862-.252-6.314-.252-10.355zm-12.122 0c0 4.602.196 8.811.589 12.628.449 3.816 1.375 7.099 2.778 9.849 1.459 2.75 3.536 4.855 6.229 6.314 2.694 1.459 6.314 2.188 10.86 2.188 4.546 0 8.166-.729 10.859-2.188 2.694-1.459 4.743-3.564 6.146-6.314 1.459-2.75 2.385-6.033 2.778-9.849.449-3.817.673-8.026.673-12.628 0-4.545-.224-8.726-.673-12.543-.393-3.872-1.319-7.183-2.778-9.933-1.403-2.75-3.452-4.883-6.146-6.398-2.693-1.572-6.313-2.357-10.859-2.357s-8.166.785-10.86 2.357c-2.693 1.515-4.77 3.648-6.229 6.398-1.403 2.75-2.329 6.06-2.778 9.933-.393 3.817-.589 7.998-.589 12.543zm44.504-30.053l10.943 60.106h13.554l6.734-43.606h.169l6.734 43.606h13.554l10.943-60.106h-11.617l-6.65 44.449h-.169l-7.071-44.449h-11.617l-7.071 44.449h-.169l-6.65-44.449h-11.617zm105.208 0H249.74v9.934h13.132v50.172h12.122V87.975h13.133V78.04zm5.259 0v60.106h12.122v-26.685h14.142v26.685h12.123V78.041H319.65v22.982h-14.142V78.041h-12.122zM65.043 185.18H52.921v2.442c0 5.556 1.459 9.821 4.377 12.795 2.975 2.975 7.885 4.462 14.732 4.462 6.567 0 11.674-1.431 15.321-4.293 3.704-2.918 5.556-7.549 5.556-13.89 0-1.852-.168-3.536-.505-5.051a10.993 10.993 0 00-1.852-4.125c-.841-1.291-1.992-2.469-3.451-3.536-1.46-1.122-3.34-2.189-5.64-3.199l-9.345-4.04c-2.581-1.067-4.265-2.217-5.05-3.452-.786-1.291-1.179-2.862-1.179-4.714 0-.898.084-1.768.252-2.61.225-.842.59-1.571 1.095-2.189.561-.673 1.29-1.206 2.189-1.599.898-.393 2.02-.589 3.367-.589 2.357 0 4.04.785 5.05 2.357 1.011 1.515 1.516 3.704 1.516 6.566h11.617v-1.684c0-2.862-.477-5.303-1.43-7.323-.899-2.077-2.19-3.761-3.873-5.051-1.628-1.347-3.592-2.301-5.893-2.863-2.245-.617-4.714-.926-7.408-.926-5.78 0-10.326 1.46-13.638 4.378-3.31 2.918-4.966 7.352-4.966 13.301 0 2.469.308 4.658.926 6.566a14.196 14.196 0 002.862 4.967c1.347 1.403 3.002 2.637 4.967 3.704 1.964 1.066 4.293 2.048 6.987 2.946 2.02.674 3.704 1.347 5.05 2.02 1.404.618 2.526 1.319 3.368 2.105.842.786 1.431 1.684 1.768 2.694.393.954.59 2.104.59 3.451 0 2.526-.759 4.406-2.274 5.641-1.459 1.178-3.115 1.767-4.967 1.767-1.57 0-2.89-.224-3.956-.673-1.01-.449-1.824-1.066-2.441-1.852-.618-.786-1.039-1.74-1.263-2.862-.225-1.179-.337-2.47-.337-3.873v-1.768zm45.253-41.333H98.173v41.923c0 4.041.534 7.324 1.6 9.849 1.066 2.526 2.497 4.49 4.293 5.893 1.796 1.347 3.845 2.245 6.146 2.694 2.301.449 4.686.673 7.155.673 2.469 0 4.855-.252 7.156-.758a14.554 14.554 0 006.145-2.946c1.796-1.459 3.227-3.423 4.293-5.893 1.066-2.525 1.6-5.696 1.6-9.512v-41.923h-12.123v41.923c0 1.515-.112 2.918-.336 4.209-.169 1.235-.534 2.329-1.095 3.283a6.05 6.05 0 01-2.104 2.189c-.898.505-2.077.757-3.536.757-1.403 0-2.582-.252-3.536-.757a6.799 6.799 0 01-2.188-2.189c-.505-.954-.87-2.048-1.095-3.283a32.714 32.714 0 01-.252-4.209v-41.923zm34.185 0v60.106h11.112v-47.984h.168l10.692 47.984h9.428l10.691-47.984h.168v47.984h11.113v-60.106h-17.931l-8.671 42.428h-.168l-8.587-42.428h-18.015zm62.315 0v60.106h11.112v-47.984h.168l10.691 47.984h9.429l10.691-47.984h.168v47.984h11.112v-60.106h-17.931l-8.67 42.428h-.169l-8.586-42.428h-18.015zm62.651 60.106h12.122v-60.106h-12.122v60.106zm56.302-60.106h-38.387v9.933h13.132v50.173h12.123V153.78h13.132v-9.933z" fill="#fff"/></mask><g mask="url(#a)"><path d="M-30.47-41.696a8 8 0 018-8h422.807a8 8 0 018 8V250.52a8 8 0 01-8 8H-22.471a8 8 0 01-8-8V-41.696z" fill="url(#paint0_linear)"/></g><defs><linearGradient id="paint0_linear" x1="-24.998" y1="167.496" x2="534.825" y2="169.882" gradientUnits="userSpaceOnUse"><stop stop-color="#3582c4"/><stop offset="1" stop-color="#4d2054"/></linearGradient></defs></svg>