<svg fill="none" height="115" width="200" xmlns="http://www.w3.org/2000/svg"><mask id="a" height="14" maskUnits="userSpaceOnUse" width="44" x="149" y="85"><path d="M150.376 85.636h41.568V97.94h-41.568z" fill="#fff" stroke="#dcdcde"/></mask><mask id="b" height="14" maskUnits="userSpaceOnUse" width="43" x="100" y="85"><path d="M100.713 85.636h41.568V97.94h-41.568z" fill="#fff" stroke="#dcdcde"/></mask><mask id="c" height="10" maskUnits="userSpaceOnUse" width="10" x="13" y="9"><path clip-rule="evenodd" d="M22.466 10.642v7.095c0 .653-.529 1.182-1.182 1.182H14.19c-.653 0-1.182-.53-1.182-1.182v-7.095c0-.653.53-1.182 1.182-1.182h7.095c.653 0 1.182.529 1.182 1.182zm-1.182 0H14.19v3.772l1.295-1.295 3.092 3.092.591-.59a.94.94 0 011.248.064l.87.87zm-2.07 1.183a.887.887 0 100 1.773.887.887 0 000-1.774z" fill="#fff" fill-rule="evenodd"/></mask><mask id="d" height="5" maskUnits="userSpaceOnUse" width="8" x="30" y="12"><path clip-rule="evenodd" d="M37.247 12.86L33.7 16.406l-3.547-3.548.627-.627 2.92 2.92 2.92-2.92" fill="#fff" fill-rule="evenodd"/></mask><mask id="e" fill="#fff"><path clip-rule="evenodd" d="M24.89 32.831L17 24.941l-7.89 7.89H4a4 4 0 00-4 4v74a4 4 0 004 4h116a4 4 0 004-4v-74a4 4 0 00-4-4z" fill-rule="evenodd"/></mask><mask id="f" height="10" maskUnits="userSpaceOnUse" width="10" x="13" y="45"><path clip-rule="evenodd" d="M22.466 46.505V53.6c0 .653-.529 1.182-1.182 1.182h-7.095c-.653 0-1.182-.529-1.182-1.182v-7.095c0-.653.53-1.182 1.182-1.182h7.095c.653 0 1.183.53 1.183 1.182zm-1.182 0h-7.095v3.772l1.295-1.295 3.092 3.093.591-.592a.94.94 0 011.248.065l.869.87zm-2.07 1.183a.887.887 0 100 1.773.887.887 0 000-1.773z" fill="#fff" fill-rule="evenodd"/></mask><mask id="g" height="13" maskUnits="userSpaceOnUse" width="13" x="11" y="90"><path clip-rule="evenodd" d="M19.51 94.005a.887.887 0 111.775 0 .887.887 0 01-1.775 0zm-6.503 7.39h8.277c0 .653-.53 1.183-1.182 1.183h-7.095c-.65 0-1.183-.532-1.183-1.183V94.3c0-.653.53-1.182 1.183-1.182zm10.642-9.46v7.095c0 .654-.53 1.183-1.183 1.183h-7.094c-.654 0-1.183-.53-1.183-1.183v-7.094c0-.654.53-1.183 1.183-1.183h7.094c.654 0 1.183.53 1.183 1.183zm-8.277 0v3.569l1.773-1.878 2.87 3.04.388-.412c.47-.5 1.29-.5 1.76 0l.303.321v-4.64z" fill="#fff" fill-rule="evenodd"/></mask><path d="M3.961.5h195.131v98.22H3.961z" fill="#fff" stroke="#c3c4c7"/><rect fill="#fff" height="41.568" rx="3.5" stroke="#dcdcde" width="41.568" x="150.376" y="35.974"/><rect fill="#fff" height="41.568" rx="3.5" stroke="#dcdcde" width="41.568" x="100.713" y="35.974"/><g mask="url(#a)"><rect fill="#fff" height="41.568" rx="3.5" stroke="#dcdcde" width="41.568" x="150.376" y="85.636"/></g><g mask="url(#b)"><rect fill="#fff" height="41.568" rx="3.5" stroke="#dcdcde" width="41.568" x="100.713" y="85.636"/></g><path d="M53.21 8.869h28.38V19.51H53.21z" fill="#dcdcde"/><path d="M46.616 0v28.379M4.615 28.343h193.824" stroke="#c3c4c7"/><path d="M88.684 8.869h56.758V19.51H88.684zM152.536 8.869h24.113V19.51h-24.113z" fill="#dcdcde"/><g mask="url(#c)"><path d="M10.642 7.095h14.19v14.19h-14.19z" fill="#50575e"/></g><path clip-rule="evenodd" d="M37.247 12.86L33.7 16.406l-3.547-3.548.627-.627 2.92 2.92 2.92-2.92" fill="#101517" fill-rule="evenodd"/><g mask="url(#d)"><path d="M28.379 8.869h10.642V19.51H28.38z" fill="#8c8f94"/></g><path clip-rule="evenodd" d="M24.89 32.831L17 24.941l-7.89 7.89H4a4 4 0 00-4 4v74a4 4 0 004 4h116a4 4 0 004-4v-74a4 4 0 00-4-4z" fill="#fff" fill-rule="evenodd"/><path d="M17 24.941l.707-.707-.707-.707-.707.707zm7.89 7.89l-.707.707.293.293h.414zm-15.78 0v1h.414l.293-.293zm7.183-7.183l7.89 7.89 1.414-1.414-7.89-7.89zm-6.476 7.89l7.89-7.89-1.414-1.414-7.89 7.89zM4 33.831h5.11v-2H4zm-3 3a3 3 0 013-3v-2a5 5 0 00-5 5zm0 74v-74h-2v74zm3 3a3 3 0 01-3-3h-2a5 5 0 005 5zm116 0H4v2h116zm3-3a3 3 0 01-3 3v2a5 5 0 005-5zm0-74v74h2v-74zm-3-3a3 3 0 013 3h2a5 5 0 00-5-5zm-95.11 0H120v-2H24.89z" fill="#c3c4c7" mask="url(#e)"/><path d="M0 86.023h124.158v21.285H0z" fill="#1689db"/><path d="M35.473 47.002H81.59v7.095H35.473zM35.473 68.287h74.495v7.094H35.473z" fill="#646970"/><path d="M35.473 93.118h56.758v7.095H35.473z" fill="#fff"/><g fill="#50575e"><path d="M21.284 68.969l-2.66-2.456v4.502l.887.819h1.773zM21.489 75.381l2.456-2.66h-4.503l-.818.886v1.774zM15.076 75.585l2.66 2.456V73.54l-.886-.819h-1.774zM14.871 69.173l-2.455 2.66h4.502l.819-.886v-1.774z"/></g><g mask="url(#f)"><path d="M10.642 42.958h14.19v14.19h-14.19z" fill="#50575e"/></g><path clip-rule="evenodd" d="M19.51 94.005a.887.887 0 111.775 0 .887.887 0 01-1.775 0zm-6.503 7.39h8.277c0 .653-.53 1.183-1.182 1.183h-7.095c-.65 0-1.183-.532-1.183-1.183V94.3c0-.653.53-1.182 1.183-1.182zm10.642-9.46v7.095c0 .654-.53 1.183-1.183 1.183h-7.094c-.654 0-1.183-.53-1.183-1.183v-7.094c0-.654.53-1.183 1.183-1.183h7.094c.654 0 1.183.53 1.183 1.183zm-8.277 0v3.569l1.773-1.878 2.87 3.04.388-.412c.47-.5 1.29-.5 1.76 0l.303.321v-4.64z" fill="#101517" fill-rule="evenodd"/><g mask="url(#g)"><path d="M10.642 89.57h14.19v14.19h-14.19z" fill="#fff"/></g></svg>