<svg width="245" height="160" viewBox="0 0 245 160" fill="none" xmlns="http://www.w3.org/2000/svg">
<path opacity="0.12" d="M235.335 112.552C235.334 95.9249 231.617 79.5089 224.458 64.5076C217.297 49.5064 206.877 36.3002 193.958 25.8574C181.04 15.4146 165.952 7.99992 149.8 4.15703C133.648 0.314138 116.842 0.140455 100.615 3.64872C84.388 7.15698 69.1503 14.2583 56.0195 24.4318C42.8887 34.6055 32.1977 47.5934 24.7303 62.4435C17.263 77.2936 13.2086 93.6293 12.8645 110.253C12.5203 126.876 15.8952 143.366 22.7416 158.514H225.406C231.968 144.084 235.354 128.408 235.335 112.552Z" fill="#F0C930"/>
<path d="M14.2319 158.514H231.164" stroke="#02395C" stroke-width="0.809888" stroke-linecap="round" stroke-linejoin="round"/>
<path d="M1.72009 158.514H8.67306" stroke="#02395C" stroke-width="0.809888" stroke-linecap="round" stroke-linejoin="round"/>
<path d="M236.73 158.514H243.683" stroke="#02395C" stroke-width="0.809888" stroke-linecap="round" stroke-linejoin="round"/>
<path fill-rule="evenodd" clip-rule="evenodd" d="M100.571 58.1636H144.759C146.295 58.1636 147.54 59.4088 147.54 60.9448C147.54 62.4809 146.295 63.7261 144.759 63.7261H137.657V101.639L172.462 142.472C175.175 145.583 175.713 149.035 174.076 152.826C172.438 156.618 169.655 158.514 165.725 158.514H79.2746C75.3451 158.514 72.5616 156.618 70.9243 152.826C69.287 149.035 69.8249 145.583 72.5382 142.472L107.343 101.639V63.7261H100.571C99.0352 63.7261 97.79 62.4809 97.79 60.9448C97.79 59.4088 99.0352 58.1636 100.571 58.1636Z" fill="white"/>
<path d="M137.657 63.7261V63.3211C137.433 63.3211 137.252 63.5024 137.252 63.7261H137.657ZM137.657 101.639H137.252C137.252 101.735 137.286 101.828 137.349 101.901L137.657 101.639ZM172.462 142.472L172.154 142.735L172.157 142.738L172.462 142.472ZM70.9243 152.826L71.2961 152.666L70.9243 152.826ZM72.5382 142.472L72.8434 142.738L72.8464 142.735L72.5382 142.472ZM107.343 101.639L107.651 101.901C107.714 101.828 107.748 101.735 107.748 101.639H107.343ZM107.343 63.7261H107.748C107.748 63.5024 107.567 63.3211 107.343 63.3211V63.7261ZM144.759 57.7586H100.571V58.5685H144.759V57.7586ZM147.945 60.9448C147.945 59.1851 146.518 57.7586 144.759 57.7586V58.5685C146.071 58.5685 147.135 59.6324 147.135 60.9448H147.945ZM144.759 64.131C146.518 64.131 147.945 62.7045 147.945 60.9448H147.135C147.135 62.2572 146.071 63.3211 144.759 63.3211V64.131ZM137.657 64.131H144.759V63.3211H137.657V64.131ZM138.062 101.639V63.7261H137.252V101.639H138.062ZM172.77 142.209L137.965 101.376L137.349 101.901L172.154 142.735L172.77 142.209ZM174.447 152.987C175.291 151.034 175.583 149.146 175.3 147.332C175.018 145.517 174.165 143.808 172.767 142.206L172.157 142.738C173.472 144.247 174.245 145.819 174.5 147.456C174.755 149.094 174.498 150.827 173.704 152.666L174.447 152.987ZM165.725 158.919C167.758 158.919 169.519 158.427 170.988 157.426C172.456 156.426 173.605 154.937 174.447 152.987L173.704 152.666C172.909 154.507 171.847 155.861 170.532 156.757C169.218 157.652 167.623 158.109 165.725 158.109V158.919ZM79.2746 158.919H165.725V158.109H79.2746V158.919ZM70.5525 152.987C71.3947 154.937 72.5437 156.426 74.0119 157.426C75.4815 158.427 77.2425 158.919 79.2746 158.919V158.109C77.3773 158.109 75.7817 157.652 74.4678 156.757C73.1526 155.861 72.0912 154.507 71.2961 152.666L70.5525 152.987ZM72.233 142.206C70.8354 143.808 69.9824 145.517 69.6997 147.332C69.4169 149.146 69.7092 151.034 70.5525 152.987L71.2961 152.666C70.5021 150.827 70.2447 149.094 70.4999 147.456C70.7551 145.819 71.5278 144.247 72.8434 142.738L72.233 142.206ZM107.035 101.376L72.23 142.209L72.8464 142.735L107.651 101.901L107.035 101.376ZM106.938 63.7261V101.639H107.748V63.7261H106.938ZM100.571 64.131H107.343V63.3211H100.571V64.131ZM97.3851 60.9448C97.3851 62.7045 98.8116 64.131 100.571 64.131V63.3211C99.2589 63.3211 98.195 62.2572 98.195 60.9448H97.3851ZM100.571 57.7586C98.8116 57.7586 97.3851 59.1851 97.3851 60.9448H98.195C98.195 59.6324 99.2589 58.5685 100.571 58.5685V57.7586Z" fill="#02395C"/>
<path fill-rule="evenodd" clip-rule="evenodd" d="M79.2746 158.514C75.3451 158.514 72.5616 156.618 70.9243 152.826C69.287 149.035 69.8249 145.583 72.5382 142.472L97.4473 113.249L147.552 113.248L172.462 142.472C175.175 145.583 175.713 149.035 174.076 152.826C172.438 156.618 169.655 158.514 165.725 158.514H79.2746Z" fill="#F2D76B"/>
<path d="M97.79 112.802H147.149" stroke="#C08C00" stroke-width="0.96"/>
<path d="M137.657 63.7261V63.3211C137.433 63.3211 137.252 63.5024 137.252 63.7261H137.657ZM137.657 101.639H137.252C137.252 101.735 137.286 101.828 137.349 101.901L137.657 101.639ZM172.462 142.472L172.154 142.735L172.157 142.738L172.462 142.472ZM70.9243 152.826L71.2961 152.666L70.9243 152.826ZM72.5382 142.472L72.8434 142.738L72.8464 142.735L72.5382 142.472ZM107.343 101.639L107.651 101.901C107.714 101.828 107.748 101.735 107.748 101.639H107.343ZM107.343 63.7261H107.748C107.748 63.5024 107.567 63.3211 107.343 63.3211V63.7261ZM144.759 57.7586H100.571V58.5685H144.759V57.7586ZM147.945 60.9448C147.945 59.1851 146.518 57.7586 144.759 57.7586V58.5685C146.071 58.5685 147.135 59.6324 147.135 60.9448H147.945ZM144.759 64.131C146.518 64.131 147.945 62.7045 147.945 60.9448H147.135C147.135 62.2572 146.071 63.3211 144.759 63.3211V64.131ZM137.657 64.131H144.759V63.3211H137.657V64.131ZM138.062 101.639V63.7261H137.252V101.639H138.062ZM172.77 142.209L137.965 101.376L137.349 101.901L172.154 142.735L172.77 142.209ZM174.447 152.987C175.291 151.034 175.583 149.146 175.3 147.332C175.018 145.517 174.165 143.808 172.767 142.206L172.157 142.738C173.472 144.247 174.245 145.819 174.5 147.456C174.755 149.094 174.498 150.827 173.704 152.666L174.447 152.987ZM165.725 158.919C167.758 158.919 169.519 158.427 170.988 157.426C172.456 156.426 173.605 154.937 174.447 152.987L173.704 152.666C172.909 154.507 171.847 155.861 170.532 156.757C169.218 157.652 167.623 158.109 165.725 158.109V158.919ZM79.2746 158.919H165.725V158.109H79.2746V158.919ZM70.5525 152.987C71.3947 154.937 72.5437 156.426 74.0119 157.426C75.4815 158.427 77.2425 158.919 79.2746 158.919V158.109C77.3773 158.109 75.7817 157.652 74.4678 156.757C73.1526 155.861 72.0912 154.507 71.2961 152.666L70.5525 152.987ZM72.233 142.206C70.8354 143.808 69.9824 145.517 69.6997 147.332C69.4169 149.146 69.7092 151.034 70.5525 152.987L71.2961 152.666C70.5021 150.827 70.2447 149.094 70.4999 147.456C70.7551 145.819 71.5278 144.247 72.8434 142.738L72.233 142.206ZM107.035 101.376L72.23 142.209L72.8464 142.735L107.651 101.901L107.035 101.376ZM106.938 63.7261V101.639H107.748V63.7261H106.938ZM100.571 64.131H107.343V63.3211H100.571V64.131ZM97.3851 60.9448C97.3851 62.7045 98.8116 64.131 100.571 64.131V63.3211C99.2589 63.3211 98.195 62.2572 98.195 60.9448H97.3851ZM100.571 57.7586C98.8116 57.7586 97.3851 59.1851 97.3851 60.9448H98.195C98.195 59.6324 99.2589 58.5685 100.571 58.5685V57.7586Z" fill="#02395C"/>
<path opacity="0.5" d="M102.103 118.414L82.665 141.101M78.8525 145.476L78.415 146.039" stroke="white" stroke-width="4" stroke-linecap="round"/>
<path opacity="0.2" d="M117.337 125.286C117.905 125.286 118.449 125.061 118.851 124.659C119.252 124.258 119.478 123.714 119.478 123.146C119.478 122.578 119.252 122.034 118.851 121.633C118.449 121.231 117.905 121.006 117.337 121.006C116.77 121.006 116.225 121.231 115.824 121.633C115.423 122.034 115.197 122.578 115.197 123.146C115.197 123.714 115.423 124.258 115.824 124.659C116.225 125.061 116.77 125.286 117.337 125.286Z" fill="#C08C00"/>
<path opacity="0.2" d="M137.228 150.414C138.023 150.414 138.786 150.098 139.349 149.535C139.911 148.972 140.228 148.209 140.228 147.414C140.228 146.618 139.911 145.855 139.349 145.292C138.786 144.73 138.023 144.414 137.228 144.414C136.432 144.414 135.669 144.73 135.106 145.292C134.544 145.855 134.228 146.618 134.228 147.414C134.228 148.209 134.544 148.972 135.106 149.535C135.669 150.098 136.432 150.414 137.228 150.414Z" fill="#C08C00"/>
<path opacity="0.2" d="M130.22 131.162C131.283 131.162 132.302 130.739 133.054 129.988C133.805 129.236 134.228 128.217 134.228 127.154C134.228 126.091 133.805 125.071 133.054 124.32C132.302 123.568 131.283 123.146 130.22 123.146C129.157 123.146 128.137 123.568 127.386 124.32C126.634 125.071 126.212 126.091 126.212 127.154C126.212 128.217 126.634 129.236 127.386 129.988C128.137 130.739 129.157 131.162 130.22 131.162Z" fill="#C08C00"/>
<path opacity="0.2" d="M111.65 149.102C113.403 149.102 115.084 148.405 116.324 147.165C117.564 145.926 118.26 144.244 118.26 142.491C118.26 140.738 117.564 139.057 116.324 137.817C115.084 136.577 113.403 135.881 111.65 135.881C109.897 135.881 108.215 136.577 106.976 137.817C105.736 139.057 105.04 140.738 105.04 142.491C105.04 144.244 105.736 145.926 106.976 147.165C108.215 148.405 109.897 149.102 111.65 149.102Z" fill="#C08C00"/>
<path d="M115.319 38.5291C116.114 38.5291 116.878 38.213 117.44 37.6504C118.003 37.0878 118.319 36.3247 118.319 35.5291C118.319 34.7334 118.003 33.9703 117.44 33.4077C116.878 32.8451 116.114 32.5291 115.319 32.5291C114.523 32.5291 113.76 32.8451 113.198 33.4077C112.635 33.9703 112.319 34.7334 112.319 35.5291C112.319 36.3247 112.635 37.0878 113.198 37.6504C113.76 38.213 114.523 38.5291 115.319 38.5291Z" fill="#F2D76B" stroke="#C08C00" stroke-width="0.962867" stroke-linecap="round" stroke-linejoin="round"/>
<path d="M125.5 49.1465C126.296 49.1465 127.059 48.8304 127.621 48.2678C128.184 47.7052 128.5 46.9421 128.5 46.1465C128.5 45.3508 128.184 44.5878 127.621 44.0252C127.059 43.4626 126.296 43.1465 125.5 43.1465C124.704 43.1465 123.941 43.4626 123.379 44.0252C122.816 44.5878 122.5 45.3508 122.5 46.1465C122.5 46.9421 122.816 47.7052 123.379 48.2678C123.941 48.8304 124.704 49.1465 125.5 49.1465Z" fill="#F2D76B" stroke="#C08C00" stroke-width="0.962867" stroke-linecap="round" stroke-linejoin="round"/>
<path d="M129.125 28.7397C130.252 28.7397 131.333 28.292 132.13 27.495C132.927 26.6979 133.375 25.6169 133.375 24.4897C133.375 23.3626 132.927 22.2816 132.13 21.4845C131.333 20.6875 130.252 20.2397 129.125 20.2397C127.998 20.2397 126.917 20.6875 126.12 21.4845C125.323 22.2816 124.875 23.3626 124.875 24.4897C124.875 25.6169 125.323 26.6979 126.12 27.495C126.917 28.292 127.998 28.7397 129.125 28.7397Z" fill="#F2D76B" stroke="#C08C00" stroke-width="0.962867" stroke-linecap="round" stroke-linejoin="round"/>
</svg>

