<svg width="178" height="168" fill="none" xmlns="http://www.w3.org/2000/svg"><circle cx="93.034" cy="82.433" r="65.374" fill="#E6F2E8"/><path d="M161.537 50.511c-.511-.173-.596-.433-.852-.78-.17-.26-.341-.606-.511-.952-.171-.347-.256-.607-.426-.953-.086-.346-.256-.606-.086-1.126l.256-.087c.511.174.597.434.852.78.171.26.341.606.512.953.17.346.255.606.426.952.085.347.256.607.085 1.126l-.256.087z" fill="#F2D76B"/><path d="M158.895 49.385c.171-.52.426-.606.767-.866.256-.173.597-.346.938-.52.341-.173.597-.26.937-.433.341-.086.597-.26 1.109-.086l.085.26c-.171.52-.426.606-.767.866-.256.173-.597.346-.938.52-.341.172-.597.259-.938.432-.341.087-.596.26-1.108.087l-.085-.26z" fill="#F2D76B"/><path d="M17.89 71.12l.767-1.472c.086-.26-.17-.52-.426-.433l-1.449.866-1.278-1.213c-.17-.173-.512 0-.512.26l.341 1.732-1.449.78c-.255.173-.17.52.085.52l1.62.172.34 1.82c.086.26.427.346.597.086l.682-1.646 1.79.26c.256 0 .426-.346.256-.52L17.89 71.12z" fill="#044b7a"/><path d="M62.601 10.757l.597-1.126c.085-.173-.085-.433-.341-.26l-1.108.607-.938-.866c-.17-.173-.426 0-.34.173l.255 1.3-1.108.605c-.17.087-.17.434.085.434l1.194.086.255 1.386c0 .26.341.26.426.086l.512-1.299 1.364.174c.255 0 .34-.26.17-.434l-1.023-.866z" fill="#F0C930"/><path d="M172.618 56.227l.767-1.559c.17-.26-.17-.52-.426-.433l-1.534.866-1.279-1.212c-.256-.173-.511 0-.511.26l.341 1.732-1.449.866c-.256.173-.171.52.085.606l1.619.173.341 1.82c.085.26.426.346.597.086l.767-1.732 1.79.26c.256 0 .426-.347.256-.52l-1.364-1.213z" fill="#8C8F94"/><path d="M133.24 4.477l1.363-2.858c.256-.52-.255-1.04-.767-.693l-2.727 1.559L128.722.32c-.426-.347-1.023 0-.937.52l.596 3.204-2.727 1.559c-.512.26-.341.953.255 1.04l2.984.259.596 3.378c.085.52.853.606 1.023.086l1.364-3.118 3.324.433c.511.087.852-.606.426-.952l-2.386-2.252z" fill="#044b7a"/><path d="M176.709 103.949c.706 0 1.279-.581 1.279-1.299a1.29 1.29 0 00-1.279-1.299c-.706 0-1.278.582-1.278 1.299 0 .718.572 1.299 1.278 1.299zM1.488 33.016c.706 0 1.278-.582 1.278-1.3 0-.717-.572-1.298-1.278-1.298-.706 0-1.279.581-1.279 1.299 0 .717.573 1.299 1.279 1.299z" fill="#C475BD"/><path d="M65.99 127.577a.5.5 0 00-.135-.459l-19.922-19.922a.501.501 0 00-.651-.048c-6.16 4.568-9.996 9.011-12.466 13.241-2.47 4.23-3.558 8.224-4.251 11.868-.237 1.243-.429 2.455-.613 3.616a226.3 226.3 0 01-.25 1.563c-.271 1.63-.562 3.146-.993 4.553-.856 2.794-2.26 5.154-5.157 7.043a.501.501 0 00.228.917c7.983.726 12.588-4.474 15.919-9.205.524-.744 1.024-1.489 1.5-2.197.28-.415.55-.817.812-1.2.719-1.05 1.384-1.968 2.035-2.68.655-.716 1.258-1.182 1.84-1.384.552-.191 1.128-.16 1.798.217 1.285.723 1.776 1.554 1.85 2.381.079.865-.286 1.851-.984 2.882-1.393 2.057-3.935 4.024-5.76 5.05a.5.5 0 00.22.935c16.814.855 23.664-11.067 24.98-17.171z" fill="#F7DCC6" stroke="#B32D2E" stroke-linecap="round" stroke-linejoin="round"/><path d="M61.723 128.841c-.989 2.636-4.35 8.502-9.886 10.874" stroke="#E68B28" stroke-linecap="round" stroke-linejoin="round"/><path d="M67.685 130.056l-.417-.275a.501.501 0 00-.079.339h0l.001.005.003.023.01.103c.007.092.017.231.024.413.013.362.014.892-.038 1.549a16.9 16.9 0 01-1.248 5.139c-1.66 3.997-5.418 8.798-13.887 11.834a.5.5 0 00-.184.824l9.541 9.542c.1.099.237.152.377.146a37.493 37.493 0 0024.888-11.101c9.541-9.542 10.535-22.66 2.096-31.099-1.024-1.025-2.158-1.604-3.357-1.813-1.193-.207-2.418-.041-3.627.371-2.405.82-4.82 2.644-6.95 4.664-2.14 2.029-4.03 4.294-5.385 6.047a62.997 62.997 0 00-1.6 2.162 45.4 45.4 0 00-.432.625l-.113.167-.03.044-.007.012-.002.003v.001l.416.275z" fill="#e9f0f5" stroke="#787C82" stroke-linecap="round" stroke-linejoin="round"/><path d="M88.418 117.851c-7.654-7.654-20.733 12.205-20.733 12.205s.253 1.955-.39 4.717c5.269-.95 17.771-4.257 25.63-9.886-.917-2.556-2.416-4.945-4.507-7.036z" fill="#bbe0fa"/><path d="M43.345 106.274h0a.494.494 0 00.338-.078l-.275-.417.276.417v-.001l.004-.002.011-.007.044-.03.168-.113a62.624 62.624 0 002.787-2.032c1.753-1.354 4.018-3.246 6.046-5.385 2.02-2.13 3.844-4.545 4.664-6.95.413-1.21.578-2.435.37-3.628-.207-1.198-.787-2.332-1.811-3.356-8.44-8.439-21.557-7.445-31.1 2.096a37.492 37.492 0 00-11.1 24.887.502.502 0 00.146.378l9.541 9.541a.502.502 0 00.824-.184c3.037-8.469 7.838-12.226 11.834-13.887a16.91 16.91 0 015.14-1.248 13.582 13.582 0 011.549-.038c.18.007.32.017.413.024l.102.01.024.003h.004z" fill="#e9f0f5" stroke="#787C82" stroke-linecap="round" stroke-linejoin="round"/><path d="M149.047 24.963a.5.5 0 00-.512-.484c-28.859.702-56.492 11.337-77.408 32.253h0a108.986 108.986 0 00-28.16 48.946.5.5 0 00.13.482l24.242 24.242a.5.5 0 00.482.13 108.989 108.989 0 0048.946-28.16c21.499-21.445 33.158-49.823 32.28-77.409z" fill="#F6F7F7" stroke="#787C82" stroke-linecap="round" stroke-linejoin="round"/><path d="M116.414 102.018a108.486 108.486 0 01-48.722 28.031l-4.173-4.174c31.093-4.349 63.098-38.719 75.214-55.36-5.393 11.397-12.908 22.116-22.319 31.503z" fill="#DCDCDE"/><path d="M108.217 65.24c3.886 3.886 10.187 3.886 14.073 0 3.886-3.886 3.886-10.187 0-14.073-3.886-3.886-10.187-3.886-14.073 0-3.886 3.886-3.886 10.187 0 14.073z" fill="#DCDCDE" stroke="#646970" stroke-linecap="round" stroke-linejoin="round"/><path d="M121.936 51.52c-.47-.47-.988-.889-1.545-1.25a9.443 9.443 0 01-1.232 11.832 9.444 9.444 0 01-11.833 1.232 9.457 9.457 0 006.447 4.226 9.45 9.45 0 008.163-16.04z" fill="#A7AAAD"/><path d="M95.457 67.85L105.607 78M87.412 75.895l10.15 10.15M79.373 83.934l10.15 10.15" stroke="#3C434A" stroke-width="2" stroke-linecap="round" stroke-linejoin="round"/><path d="M67.41 100.05a.5.5 0 00-.707 0l-32.155 32.155a.5.5 0 000 .707l5.997 5.998a.5.5 0 00.707 0l32.155-32.155a.5.5 0 000-.707l-5.997-5.998z" fill="#e9f0f5" stroke="#787C82" stroke-linecap="round" stroke-linejoin="round"/><path d="M73.054 106.401l-1.594-1.594-32.155 32.155 1.594 1.593 32.155-32.154z" fill="#bbe0fa"/><path stroke="#DEB100" stroke-linecap="round" d="M91.13 4.513L63.362 32.281M135.74 114.857l-14.515 14.516m-13.288 13.288l8.542-8.543M104.418 3.564L92.786 15.196M117.706 145.266l-11.632 11.632M108.215 13.055L92.786 28.484M135.74 136.724l-15.428 15.428"/></svg>