<svg width="292" height="191" fill="none" xmlns="http://www.w3.org/2000/svg"><path d="M278.316 135.023a133.388 133.388 0 00-12.967-57.364 132.962 132.962 0 00-36.356-46.147 132.438 132.438 0 00-52.637-25.91 132.195 132.195 0 00-58.629-.607A132.42 132.42 0 0064.568 29.81a132.943 132.943 0 00-37.297 45.385 133.379 133.379 0 00-14.144 57.083A133.407 133.407 0 0024.9 189.901h241.58a132.406 132.406 0 0011.835-54.878z" fill="#399ce3" fill-opacity=".1"/><path d="M1.837 189.9h8.288M281.974 189.9h8.288" stroke="#2C3338" stroke-linecap="round" stroke-linejoin="round"/><path d="M173.656 189.82h-59.475c0-2.386.964-4.676 2.68-6.363a9.228 9.228 0 016.47-2.637h41.175a9.264 9.264 0 016.461 2.646 8.955 8.955 0 012.689 6.354z" fill="#fff" stroke="#2C3338" stroke-linecap="round" stroke-linejoin="round"/><path d="M155.356 167.051h-22.875v13.77h22.875v-13.77z" fill="#fff"/><path d="M155.356 167.051h-22.875v13.77h22.875v-13.77z" stroke="#2C3338" stroke-linecap="round" stroke-linejoin="round"/><path d="M205.681 61.488H82.289a11.419 11.419 0 00-8.088 3.36 11.493 11.493 0 00-3.35 8.114v75.731H217.12v-75.73a11.528 11.528 0 00-3.36-8.105 11.452 11.452 0 00-8.078-3.37z" fill="#5000B9"/><path d="M205.681 61.488H82.289a11.419 11.419 0 00-8.088 3.36 11.493 11.493 0 00-3.35 8.114v75.731H217.12v-75.73a11.528 11.528 0 00-3.36-8.105 11.452 11.452 0 00-8.078-3.37v0z" stroke="#2C3338" stroke-linecap="round" stroke-linejoin="round"/><path d="M205.681 167.051c3.034 0 5.943-1.209 8.088-3.361a11.492 11.492 0 003.35-8.113v-6.885h-146.4v6.885a11.474 11.474 0 003.386 8.171 11.399 11.399 0 008.184 3.303H205.68z" fill="#fff" stroke="#2C3338" stroke-linecap="round" stroke-linejoin="round"/><path d="M143.919 159.767a1.893 1.893 0 001.889-1.896 1.892 1.892 0 00-1.889-1.895c-1.044 0-1.89.848-1.89 1.895 0 1.047.846 1.896 1.89 1.896z" stroke="#2C3338" stroke-linecap="round" stroke-linejoin="round"/><rect x="211.884" y="185.628" width="25.297" height="4" rx="1" fill="#9F6FFF" stroke="#2C3338"/><path fill="#9F6FFF" stroke="#2C3338" d="M222.423 164.86h4.295v20.767h-4.295z"/><path d="M207.392 108.981a4 4 0 014-4h26.357a4 4 0 014 4v39.016h-34.357v-39.016z" fill="#fff" stroke="#2C3338"/><mask id="a" maskUnits="userSpaceOnUse" x="206" y="104" width="37" height="45"><path d="M207.392 108.981a4 4 0 014-4h26.357a4 4 0 014 4v39.016h-34.357v-39.016z" fill="#fff" stroke="#2C3338"/></mask><g mask="url(#a)" stroke="#2C3338"><path transform="rotate(-45.047 272.624 -168.765)" d="M0-.5h57.847"/><path transform="rotate(-45.047 249.74 -159.32)" d="M0-.5h57.847"/><path transform="rotate(-134.953 147.957 28.575) skewX(.094)" d="M0-.5h61.64"/><path transform="rotate(-45.047 281.775 -172.544)" d="M0-.5h57.847"/><path transform="rotate(-134.953 149.524 24.778) skewX(.094)" d="M0-.5h61.64"/><path transform="rotate(-45.047 290.929 -176.322) skewX(-.094)" d="M0-.5h57.847"/><path transform="rotate(-45.047 295.505 -178.211)" d="M0-.5h57.847"/><path transform="rotate(-45.047 300.082 -180.098)" d="M0-.5h57.847"/><path transform="rotate(-45.047 304.66 -181.989)" d="M0-.5h57.847"/><path transform="rotate(-45.047 309.236 -183.877)" d="M0-.5h57.847"/><path transform="rotate(-45.047 263.47 -164.987)" d="M0-.5h57.847"/><path transform="rotate(-45.047 240.585 -155.543)" d="M0-.5h57.847"/><path transform="rotate(-134.953 146.39 32.37)" d="M0-.5h61.64"/><path transform="rotate(-45.047 277.2 -170.653) skewX(-.094)" d="M0-.5h57.847"/><path transform="rotate(-45.047 254.316 -161.208) skewX(-.094)" d="M0-.5h57.847"/><path transform="rotate(-134.953 148.74 26.677)" d="M0-.5h61.64"/><path transform="rotate(-45.047 286.352 -174.432)" d="M0-.5h57.847"/><path transform="rotate(-134.953 150.307 22.88)" d="M0-.5h61.64"/><path transform="rotate(-134.953 151.09 20.982)" d="M0-.5h61.64"/><path transform="rotate(-134.953 154.224 13.392)" d="M0-.5h61.64"/><path transform="rotate(-134.953 151.874 19.084)" d="M0-.5h61.64"/><path transform="rotate(-134.953 155.008 11.493)" d="M0-.5h61.64"/><path transform="rotate(-134.953 152.657 17.186)" d="M0-.5h61.64"/><path transform="rotate(-134.953 155.791 9.595)" d="M0-.5h61.64"/><path transform="rotate(-134.953 153.441 15.29)" d="M0-.5h61.64"/><path transform="rotate(-134.953 156.575 7.698)" d="M0-.5h61.64"/><path transform="rotate(-45.047 268.047 -166.875)" d="M0-.5h57.847"/><path transform="rotate(-45.047 245.162 -157.43)" d="M0-.5h57.847"/><path transform="rotate(-134.953 147.174 30.472)" d="M0-.5h61.64"/><path transform="rotate(-45.047 258.893 -163.098)" d="M0-.5h57.847"/><path transform="rotate(-45.047 236.009 -153.653)" d="M0-.5h57.847"/><path transform="rotate(-134.953 145.607 34.267) skewX(.094)" d="M0-.5h61.64"/><path transform="rotate(-134.953 144.823 36.166)" d="M0-.5h61.64"/></g><path d="M207.392 151.225h34.357v17.508a4 4 0 01-4 4h-26.357a4 4 0 01-4-4v-17.508z" fill="#9F6FFF" stroke="#2C3338"/><rect x="222.423" y="159.828" width="4.295" height="4.302" rx="1" fill="#fff" stroke="#2C3338"/><rect x="206.318" y="146.921" width="36.504" height="4.302" rx="1" fill="#9F6FFF" stroke="#2C3338"/><path d="M65.964 34.177c-.117-.517-.586-1.033-1.055-1.162l-3.867-1.55c-.469-.13-.469-.387 0-.646l3.867-1.55c.469 0 .938-.516 1.055-1.033l1.406-4.261c.117-.517.352-.517.586 0l1.406 4.261c.118.517.586 1.034 1.055 1.163l3.867 1.55c.47.128.47.387 0 .645l-3.984 1.42c-.469.13-.938.646-1.055 1.163l-1.406 4.261c-.117.517-.352.517-.586 0l-1.29-4.261z" fill="#399ce3"/><path d="M48.395 93.759c-.598.2-1.195.798-1.195 1.197l-1.395 3.79c-.199.599-.597.599-.796 0l-1.395-3.79c-.199-.599-.796-1.197-1.195-1.197l-3.784-1.397c-.598-.2-.598-.599 0-.798l3.784-1.397c.598-.2 1.195-.798 1.195-1.197l1.395-3.79c.199-.599.597-.599.796 0l1.395 3.79c.199.599.796 1.197 1.195 1.197l3.784 1.397c.598.2.598.599 0 .798l-3.784 1.397z" fill="#F283AA"/><path d="M44.888 24.43c-.118-.296-.354-.591-.59-.74l-1.18-.59c-.235-.148-.235-.295 0-.295l1.18-.59c.236-.148.472-.444.59-.739l.471-1.477c.118-.295.236-.295.236 0l.472 1.477c.118.295.354.59.59.738l1.179.59c.236.149.236.296 0 .296l-1.18.59c-.235.148-.471.444-.59.74l-.47 1.476c-.119.295-.237.295-.237 0l-.471-1.477z" fill="#F0C930"/><path d="M224.234 73.692V95.28" stroke="#F0C930" stroke-linecap="round"/><path d="M16.756 189.9h258.587" stroke="#2C3338" stroke-linecap="round" stroke-linejoin="round"/><path d="M176.837 117.78l13.735 3.439M255.475 121.22l13.735-3.439M184.247 86.343l2.227 2.231m10.19 10.207l-7.918-7.931M262.692 86.39l-2.227 2.231m-10.19 10.207l7.918-7.931" stroke="#F0C930" stroke-linecap="round"/><g clip-path="url(#clip0)" fill="#fff"><path d="M156.188 99.929s-1.44-.704-2.937-.247c-1.119.34-2.345 1.215-3.043 3.032-1.346 3.485-.181 9.563-.637 9.563-.455 0-1.889-5.601-3.808-11.434-1.918-5.832-3.577-11.89-6.572-11.401-2.657.431-1.832 7.338-.792 13.808.942 5.864 2.032 11.354 1.409 11.354-1.113.002-4.765-16.207-8.508-15.591-3.743.615 1.078 18.475.065 18.509-.832.027-2.874-10.872-5.903-10.371-2.295.38-.25 8.859-.156 11.224.023.593.202 1.708-.661 1.708h-1.713v1.648h2.805c.576-.029 1.032-.257 1.263-.841.778-1.979-1.267-10.386-.789-10.448.329-.041 1.039 2.518 2.029 5.413.99 2.896 1.981 5.892 3.861 5.892 4.055 0-.08-16.403.723-16.403.425 0 1.584 3.333 2.859 6.988 1.559 4.467 3.46 9.421 5.755 9.421 2.739 0 1.847-6.399 1-12.53-.735-5.306-1.596-10.291-1.136-10.291 1.034 0 4.938 22.813 9.627 22.813 2.349 0 2.376-4.77 2.376-9.911 0-3.612-.293-6.904 1.907-7.695 1.045-.376 2.103.291 2.103.291l-1.127-4.501zM160.1 119.76v-4.75h1.961c.362-.018.725.026 1.074.129.223.085.412.244.537.453.132.226.198.486.192.75a1.37 1.37 0 01-.306.891c-.206.222-.475.37-.769.423a6.084 6.084 0 01.892 1.186c.119.198.312.516.563.926h-1.113l-.672-1.033a7.247 7.247 0 00-.491-.699.746.746 0 00-.28-.198 1.517 1.517 0 00-.469-.053h-.192v1.979l-.927-.004zm.932-2.739h.688c.281.015.563-.005.839-.059a.508.508 0 00.259-.198.63.63 0 00.094-.357.578.578 0 00-.123-.395.553.553 0 00-.351-.186 7.158 7.158 0 00-.679-.016h-.727v1.211z"/><path d="M161.832 121.63a4.051 4.051 0 01-2.307-.724 4.227 4.227 0 01-1.493-1.868 4.384 4.384 0 010-3.303 4.256 4.256 0 011.493-1.869 4.045 4.045 0 012.307-.725c.822 0 1.625.252 2.307.725.219.153.424.326.611.519a4.31 4.31 0 011.207 3.001 4.312 4.312 0 01-1.207 3.002 4.187 4.187 0 01-.611.518c-.22.155-.455.288-.7.396a3.974 3.974 0 01-1.607.328zm0-8.13a3.7 3.7 0 00-2.098.655 3.872 3.872 0 00-1.39 1.745 3.99 3.99 0 00-.215 2.246 3.924 3.924 0 001.034 1.99 3.741 3.741 0 001.934 1.064 3.684 3.684 0 002.181-.222 3.798 3.798 0 001.694-1.433 3.959 3.959 0 00.635-2.16 3.946 3.946 0 00-1.107-2.746 3.726 3.726 0 00-2.668-1.139z"/></g><defs><clipPath id="clip0"><path fill="#fff" transform="translate(122.932 89.414)" d="M0 0h43.023v32.331H0z"/></clipPath></defs></svg>
