<svg width="172" height="145" fill="none" xmlns="http://www.w3.org/2000/svg"><path d="M85.591 32.692c-44.913 0-81.322 36.41-81.322 81.323 0 10.531 2.002 20.595 5.646 29.831l151.277.19c3.692-9.288 5.722-19.418 5.722-30.021 0-44.913-36.41-81.323-81.323-81.323z" fill="#E6F2E8"/><circle cx="84.94" cy="27.373" r="8.575" fill="#C3C4C7"/><rect x="37.779" y="29.423" width="94.808" height="114.423" rx="8" fill="#F5F1E1" stroke="#01283d"/><path fill="#fff" stroke="#C3C4C7" stroke-linecap="round" stroke-linejoin="round" d="M47.087 33.827h77.01V128h-77.01z"/><path stroke="#02395c" stroke-width="2" stroke-linecap="round" d="M74.614 60.672h38.866M74.614 76.392h24.154M74.614 92.112h30.693M55.75 59.885l3.811 3.93 7.622-7.86M55.75 75.606l3.811 3.93 7.622-7.86M55.75 91.326l3.811 3.93 7.622-7.86"/><path d="M80.146 22.37a6.415 6.415 0 014.793-2.143c1.905 0 3.616.828 4.794 2.144" stroke="#F6F7F7" stroke-linecap="round"/><path d="M56.857 31.8a7.5 7.5 0 017.5-7.5h41.165a7.5 7.5 0 017.5 7.5v4.362H56.857V31.8z" fill="#F6F7F7" stroke="#C3C4C7"/><path d="M56.357 33.944a8 8 0 018-8h41.165a8 8 0 018 8v2.718H56.357v-2.718z" fill="#C3C4C7"/><path d="M15.286 23.397c-.227-.942-1.133-1.884-2.04-2.12l-7.48-2.825c-.906-.236-.906-.707 0-1.178l7.48-2.826c.906 0 1.813-.942 2.04-1.884l2.72-7.771c.226-.942.68-.942 1.133 0l2.72 7.771c.226.942 1.133 1.884 2.04 2.12l7.479 2.826c.906.235.906.706 0 1.177l-7.706 2.59c-.907.236-1.814 1.178-2.04 2.12l-2.72 7.771c-.227.942-.68.942-1.133 0l-2.493-7.77zM158.452 7.9l-2.164 1.09.962-2.452-.962-2.452 2.164 1.09 1.923-1.09-.962 2.452.962 2.452-1.923-1.09z" fill="#F0C930"/><path d="M128.349 6.753c-.444-.222-1.111-.222-1.333 0l-2.888 1.333c-.445.222-.667 0-.445-.444l1.333-2.889c.223-.444.223-1.11 0-1.333L123.683.532c-.222-.445 0-.667.445-.445l2.888 1.333c.444.222 1.111.222 1.333 0l2.889-1.333c.444-.222.666 0 .444.445l-1.333 2.888c-.222.444-.222 1.11 0 1.333l1.333 2.889c.222.444 0 .666-.444.444l-2.889-1.333z" fill="#044b7a"/><path d="M47.094 11.556c-.489-.238-1.222-.238-1.467 0l-3.177 1.428c-.489.237-.733 0-.489-.476l1.467-3.094c.244-.475.244-1.19 0-1.427L41.96 4.656c-.244-.476 0-.714.489-.476l3.177 1.427c.49.238 1.222.238 1.467 0L50.27 4.18c.489-.238.733 0 .489.476l-1.467 3.093c-.488.476-.488 1.19-.244 1.665l1.467 3.094c.244.476 0 .713-.49.476l-2.932-1.428z" fill="#D48FC8"/><path d="M12.937 56.223a2.748 2.748 0 00-1.14-1.14l-2.282-.913c-.456-.228-.456-.456 0-.456l2.281-.912a2.749 2.749 0 001.14-1.14l.913-2.281c.228-.456.456-.456.456 0l.912 2.28c.228.457.685.913 1.14 1.141l2.282.912c.456.228.456.456 0 .456l-2.281.913a2.748 2.748 0 00-1.14 1.14l-.913 2.281c-.228.456-.456.456-.456 0l-.912-2.28z" fill="#399ce3"/><path d="M1 143.846h170" stroke="#01283d" stroke-linecap="round" stroke-linejoin="round"/><circle cx="126.048" cy="124.231" r="19.115" fill="#00A32A" stroke="#01283d"/><path d="M117.875 124.639l5.449 5.313 10.897-10.625" stroke="#fff" stroke-width="2" stroke-linecap="round"/></svg>