<svg width="225" height="227" fill="none" xmlns="http://www.w3.org/2000/svg"><circle cx="112" cy="127" r="100" fill="#E6F2E8"/><path d="M.5 108a.5.5 0 00.5.5h223a.5.5 0 00.5-.5V91.333c0-2.38-1.169-4.636-3.2-6.28-2.028-1.643-4.76-2.553-7.592-2.553H11.292c-2.832 0-5.564.91-7.592 2.552-2.031 1.645-3.2 3.9-3.2 6.281V108z" fill="#fff" stroke="#2C3338" stroke-linecap="round" stroke-linejoin="round"/><path d="M224 91.333V108H13.5L52 83h161.708c2.729 0 5.347.878 7.277 2.44 1.931 1.564 3.015 3.683 3.015 5.893z" fill="#E9EFF5"/><path d="M14.5 100a4.5 4.5 0 100-9 4.5 4.5 0 000 9z" fill="#FFABAF" stroke="#E65054" stroke-linecap="round" stroke-linejoin="round"/><path d="M31.5 100a4.5 4.5 0 100-9 4.5 4.5 0 000 9z" fill="#f2d76b" stroke="#c08c00" stroke-linecap="round" stroke-linejoin="round"/><path d="M48.5 100a4.5 4.5 0 100-9 4.5 4.5 0 000 9z" fill="#68DE86" stroke="#00A32A" stroke-linecap="round" stroke-linejoin="round"/><path fill="#fff" stroke="#2C3338" d="M.5 108.5h224v40H.5z"/><path fill="#fff" stroke="#72AEE6" stroke-linejoin="round" d="M47.5 115.5h170v26h-170z"/><path fill="#fff" stroke="#135E96" d="M48.5 116.5h168v24h-168z"/><path fill="#2C3338" d="M57 125h103v7H57z"/><path d="M13.306 121L7.5 127m0 0l5.806 6M7.5 127h12M33.194 121L39 127m0 0l-5.806 6M39 127H27" stroke="#A7AAAD" stroke-width="2" stroke-linecap="round" stroke-linejoin="round"/><path d="M112 189v-21.307M112 1v67.68M204 206.652l-6.535-6.536M31.8 34.451l5.9 5.9m26.984 26.984l-20.97-20.969M166.088 168.74l24.734 24.734M39.82 202.458l6.594-7.99M185.222 26.282l-24.523 29.713M66.613 169.994L51.075 188.82" stroke="#F0C930" stroke-width="2" stroke-linecap="round"/></svg>