<svg width="280" height="166" viewBox="0 0 280 166" fill="none" xmlns="http://www.w3.org/2000/svg">
<path d="M256.314 118.418C256.312 101.488 252.528 84.7734 245.238 69.4993C237.948 54.2251 227.337 40.7787 214.183 30.146C201.03 19.5132 185.667 11.9637 169.222 8.05089C152.777 4.1381 135.665 3.96126 119.143 7.53333C102.621 11.1054 87.1057 18.3358 73.736 28.6945C60.3664 39.0531 49.4809 52.2773 41.8777 67.3976C34.2746 82.5178 30.1464 99.1506 29.7961 116.077C29.4457 133.003 32.8819 149.792 39.8528 165.215H246.204C252.885 150.522 256.333 134.562 256.314 118.418Z" fill="#E6F1F5"/>
<path d="M31.1895 165.215H252.068" stroke="#043959" stroke-linecap="round" stroke-linejoin="round"/>
<path d="M18.4491 165.215H25.5285" stroke="#043959" stroke-linecap="round" stroke-linejoin="round"/>
<path d="M257.733 165.215H264.812" stroke="#043959" stroke-linecap="round" stroke-linejoin="round"/>
<path d="M151.288 145.73H131.748V157.472H151.288V145.73Z" fill="white"/>
<path d="M151.288 145.73H131.748V157.472H151.288V145.73Z" stroke="#043959" stroke-linecap="round" stroke-linejoin="round"/>
<path d="M166.917 165.3H116.115C116.115 163.224 116.939 161.233 118.404 159.765C119.87 158.297 121.858 157.472 123.931 157.472H159.101C161.172 157.48 163.156 158.307 164.62 159.773C166.084 161.239 166.91 163.226 166.917 165.3Z" fill="white" stroke="#043959" stroke-linecap="round" stroke-linejoin="round"/>
<path d="M194.271 55.7087H88.8728C86.2817 55.7087 83.7968 56.7396 81.9646 58.5746C80.1324 60.4097 79.1031 62.8985 79.1031 65.4937V130.074H204.041V65.4937C204.034 62.9008 203.002 60.4163 201.171 58.5829C199.341 56.7495 196.86 55.7162 194.271 55.7087Z" fill="#FEF4E6"/>
<path d="M166.096 92.135L159.042 90.4951L157.782 89.9905L125.409 90.2428V105.885L166.096 106.011V92.135Z" fill="white"/>
<path d="M152.87 104.497C153.248 103.236 153.122 101.974 152.492 101.218C151.862 100.461 150.98 99.9561 149.847 99.8299L127.929 99.5776C127.803 99.5776 127.677 99.4515 127.551 99.4515C127.425 99.3253 127.425 99.1992 127.551 99.073C127.677 98.8208 127.803 98.6946 128.055 98.6946L150.099 98.4423C152.744 98.3162 155.515 96.1717 156.523 93.6487L157.783 90.3689C157.783 90.2427 157.909 90.1166 157.783 89.9904C156.397 83.5569 150.603 78.7633 143.8 78.7633C137.502 78.7633 132.085 82.8 130.196 88.4767C128.936 87.5936 127.425 87.0891 125.661 87.2152C122.638 87.4675 120.245 89.9904 119.867 93.018C119.741 93.7749 119.867 94.5317 119.993 95.2886C115.08 95.4148 111.049 99.4515 111.049 104.497C111.049 105.002 111.049 105.38 111.175 105.885C111.175 106.137 111.427 106.263 111.553 106.263H151.988C152.24 106.263 152.492 106.137 152.492 105.885L152.87 104.497Z" fill="#F48220"/>
<path d="M159.797 90.3692H159.168C159.042 90.3692 158.916 90.4953 158.79 90.6215L157.908 93.649C157.53 94.9105 157.656 96.1719 158.286 96.9288C158.916 97.6857 159.797 98.1903 160.931 98.3164L165.592 98.5687C165.718 98.5687 165.844 98.6949 165.97 98.6949C166.096 98.821 166.096 98.9472 165.97 99.0733C165.844 99.3256 165.718 99.4518 165.466 99.4518L160.679 99.7041C158.034 99.8302 155.263 101.975 154.255 104.498L154.003 105.633C153.877 105.759 154.003 106.011 154.255 106.011H170.883C171.134 106.011 171.26 105.885 171.26 105.633C171.512 104.624 171.764 103.488 171.764 102.353C171.764 95.7935 166.348 90.3692 159.797 90.3692Z" fill="#FAAE3F"/>
<path d="M194.271 55.7087H88.8728C86.2817 55.7087 83.7968 56.7396 81.9646 58.5746C80.1324 60.4097 79.1031 62.8985 79.1031 65.4937V130.074H204.041V65.4937C204.034 62.9008 203.002 60.4163 201.171 58.5829C199.341 56.7495 196.86 55.7162 194.271 55.7087V55.7087Z" stroke="#043959" stroke-linecap="round" stroke-linejoin="round"/>
<path d="M194.273 145.73C196.864 145.73 199.349 144.699 201.181 142.864C203.013 141.029 204.043 138.54 204.043 135.945V130.074H78.9914V135.945C78.9875 137.241 79.2413 138.524 79.738 139.721C80.2347 140.917 80.9643 142.002 81.8843 142.913C82.8043 143.824 83.8962 144.542 85.0964 145.026C86.2965 145.51 87.5808 145.749 88.8743 145.73H194.273Z" fill="white" stroke="#043959" stroke-linecap="round" stroke-linejoin="round"/>
<path d="M141.515 139.519C142.407 139.519 143.13 138.795 143.13 137.902C143.13 137.009 142.407 136.285 141.515 136.285C140.624 136.285 139.901 137.009 139.901 137.902C139.901 138.795 140.624 139.519 141.515 139.519Z" stroke="#043959" stroke-linecap="round" stroke-linejoin="round"/>
<mask id="path-15-inside-1" fill="white">
<path fill-rule="evenodd" clip-rule="evenodd" d="M49.2705 128.556C49.2705 129.205 49.2318 129.844 49.1567 130.472C50.0354 130.142 50.9873 129.962 51.9813 129.962C56.4178 129.962 60.0143 133.558 60.0143 137.995C60.0143 142.431 56.4178 146.028 51.9813 146.028C51.8085 146.028 51.637 146.022 51.4669 146.012H8.85675C8.68665 146.022 8.51511 146.028 8.34229 146.028C8.16948 146.028 7.99793 146.022 7.82783 146.012H7.75986V146.007C3.59527 145.709 0.309326 142.235 0.309326 137.995C0.309326 133.642 3.77158 130.098 8.09248 129.966C8.98282 126.499 12.1289 123.937 15.8734 123.937C16.5877 123.937 17.2803 124.03 17.9395 124.205C19.8337 117.502 25.9958 112.59 33.305 112.59C42.1225 112.59 49.2705 119.738 49.2705 128.556Z"/>
</mask>
<path fill-rule="evenodd" clip-rule="evenodd" d="M49.2705 128.556C49.2705 129.205 49.2318 129.844 49.1567 130.472C50.0354 130.142 50.9873 129.962 51.9813 129.962C56.4178 129.962 60.0143 133.558 60.0143 137.995C60.0143 142.431 56.4178 146.028 51.9813 146.028C51.8085 146.028 51.637 146.022 51.4669 146.012H8.85675C8.68665 146.022 8.51511 146.028 8.34229 146.028C8.16948 146.028 7.99793 146.022 7.82783 146.012H7.75986V146.007C3.59527 145.709 0.309326 142.235 0.309326 137.995C0.309326 133.642 3.77158 130.098 8.09248 129.966C8.98282 126.499 12.1289 123.937 15.8734 123.937C16.5877 123.937 17.2803 124.03 17.9395 124.205C19.8337 117.502 25.9958 112.59 33.305 112.59C42.1225 112.59 49.2705 119.738 49.2705 128.556Z" fill="white"/>
<path d="M49.1567 130.472L48.1638 130.354L47.9683 131.987L49.5084 131.409L49.1567 130.472ZM51.4669 146.012L51.5299 145.014L51.4984 145.012H51.4669V146.012ZM8.85675 146.012V145.012H8.82519L8.79368 145.014L8.85675 146.012ZM7.82783 146.012L7.8909 145.014L7.8594 145.012H7.82783V146.012ZM7.75986 146.012H6.75986V147.012H7.75986V146.012ZM7.75986 146.007H8.75986V145.076L7.83133 145.01L7.75986 146.007ZM8.09248 129.966L8.12301 130.965L8.87411 130.942L9.06104 130.214L8.09248 129.966ZM17.9395 124.205L17.683 125.172L18.6342 125.424L18.9018 124.477L17.9395 124.205ZM50.1496 130.591C50.2295 129.924 50.2705 129.244 50.2705 128.556H48.2705C48.2705 129.165 48.2342 129.765 48.1638 130.354L50.1496 130.591ZM51.9813 128.962C50.8653 128.962 49.7944 129.165 48.805 129.536L49.5084 131.409C50.2763 131.12 51.1092 130.962 51.9813 130.962V128.962ZM61.0143 137.995C61.0143 133.006 56.9701 128.962 51.9813 128.962V130.962C55.8655 130.962 59.0143 134.111 59.0143 137.995H61.0143ZM51.9813 147.028C56.9701 147.028 61.0143 142.984 61.0143 137.995H59.0143C59.0143 141.879 55.8655 145.028 51.9813 145.028V147.028ZM51.4038 147.01C51.5949 147.022 51.7874 147.028 51.9813 147.028V145.028C51.8296 145.028 51.6791 145.023 51.5299 145.014L51.4038 147.01ZM51.4669 145.012H8.85675V147.012H51.4669V145.012ZM8.34229 147.028C8.53617 147.028 8.72875 147.022 8.91982 147.01L8.79368 145.014C8.64455 145.023 8.49404 145.028 8.34229 145.028V147.028ZM7.76476 147.01C7.95584 147.022 8.14841 147.028 8.34229 147.028V145.028C8.19054 145.028 8.04003 145.023 7.8909 145.014L7.76476 147.01ZM7.82783 145.012H7.75986V147.012H7.82783V145.012ZM8.75986 146.012V146.007H6.75986V146.012H8.75986ZM-0.690674 137.995C-0.690674 142.764 3.00437 146.669 7.6884 147.004L7.83133 145.01C4.18617 144.748 1.30933 141.707 1.30933 137.995H-0.690674ZM8.06194 128.966C3.20256 129.115 -0.690674 133.1 -0.690674 137.995H1.30933C1.30933 134.184 4.34059 131.081 8.12301 130.965L8.06194 128.966ZM15.8734 122.937C11.6614 122.937 8.12504 125.819 7.12391 129.717L9.06104 130.214C9.8406 127.179 12.5964 124.937 15.8734 124.937V122.937ZM18.196 123.239C17.4538 123.042 16.6751 122.937 15.8734 122.937V124.937C16.5004 124.937 17.1067 125.019 17.683 125.172L18.196 123.239ZM33.305 111.59C25.5365 111.59 18.9899 116.811 16.9772 123.933L18.9018 124.477C20.6775 118.193 26.455 113.59 33.305 113.59V111.59ZM50.2705 128.556C50.2705 119.186 42.6748 111.59 33.305 111.59V113.59C41.5702 113.59 48.2705 120.291 48.2705 128.556H50.2705Z" fill="#01263A" mask="url(#path-15-inside-1)"/>
<mask id="path-17-inside-2" fill="white">
<path fill-rule="evenodd" clip-rule="evenodd" d="M195.218 95.7657C195.455 95.7806 195.693 95.7881 195.934 95.7881C196.174 95.7881 196.413 95.7806 196.649 95.7657H267.954C268.191 95.7806 268.429 95.7881 268.67 95.7881C274.857 95.7881 279.873 90.7724 279.873 84.5851C279.873 78.3979 274.857 73.3821 268.67 73.3821C267.158 73.3821 265.717 73.6813 264.402 74.2237C262.678 67.4916 256.571 62.5151 249.302 62.5151C247.874 62.5151 246.492 62.707 245.178 63.0665C242.064 56.5927 235.443 52.1243 227.778 52.1243C219.228 52.1243 211.977 57.6852 209.443 65.3876C208.487 65.1217 207.478 64.9796 206.437 64.9796C201.215 64.9796 196.827 68.5527 195.585 73.3874C189.559 73.5715 184.731 78.5144 184.731 84.5851C184.731 90.4994 189.314 95.3432 195.122 95.7592V95.7657H195.218Z"/>
</mask>
<path fill-rule="evenodd" clip-rule="evenodd" d="M195.218 95.7657C195.455 95.7806 195.693 95.7881 195.934 95.7881C196.174 95.7881 196.413 95.7806 196.649 95.7657H267.954C268.191 95.7806 268.429 95.7881 268.67 95.7881C274.857 95.7881 279.873 90.7724 279.873 84.5851C279.873 78.3979 274.857 73.3821 268.67 73.3821C267.158 73.3821 265.717 73.6813 264.402 74.2237C262.678 67.4916 256.571 62.5151 249.302 62.5151C247.874 62.5151 246.492 62.707 245.178 63.0665C242.064 56.5927 235.443 52.1243 227.778 52.1243C219.228 52.1243 211.977 57.6852 209.443 65.3876C208.487 65.1217 207.478 64.9796 206.437 64.9796C201.215 64.9796 196.827 68.5527 195.585 73.3874C189.559 73.5715 184.731 78.5144 184.731 84.5851C184.731 90.4994 189.314 95.3432 195.122 95.7592V95.7657H195.218Z" fill="white"/>
<path d="M195.218 95.7657L195.281 94.7677L195.25 94.7657H195.218V95.7657ZM196.649 95.7657V94.7657H196.618L196.586 94.7677L196.649 95.7657ZM267.954 95.7657L268.017 94.7677L267.986 94.7657H267.954V95.7657ZM264.402 74.2237L263.433 74.4717L263.719 75.587L264.783 75.1482L264.402 74.2237ZM245.178 63.0665L244.277 63.5L244.638 64.251L245.442 64.031L245.178 63.0665ZM209.443 65.3876L209.175 66.3511L210.095 66.6066L210.393 65.7L209.443 65.3876ZM195.585 73.3874L195.616 74.387L196.367 74.364L196.554 73.6362L195.585 73.3874ZM195.122 95.7592H196.122V94.8282L195.193 94.7617L195.122 95.7592ZM195.122 95.7657H194.122V96.7657H195.122V95.7657ZM195.155 96.7637C195.413 96.7799 195.672 96.7881 195.934 96.7881V94.7881C195.714 94.7881 195.497 94.7812 195.281 94.7677L195.155 96.7637ZM195.934 96.7881C196.195 96.7881 196.455 96.7799 196.712 96.7637L196.586 94.7677C196.371 94.7812 196.153 94.7881 195.934 94.7881V96.7881ZM267.954 94.7657H196.649V96.7657H267.954V94.7657ZM267.891 96.7637C268.149 96.7799 268.408 96.7881 268.67 96.7881V94.7881C268.45 94.7881 268.233 94.7812 268.017 94.7677L267.891 96.7637ZM268.67 96.7881C275.409 96.7881 280.873 91.3247 280.873 84.5851H278.873C278.873 90.2201 274.305 94.7881 268.67 94.7881V96.7881ZM280.873 84.5851C280.873 77.8456 275.409 72.3821 268.67 72.3821V74.3821C274.305 74.3821 278.873 78.9502 278.873 84.5851H280.873ZM268.67 72.3821C267.025 72.3821 265.455 72.7078 264.021 73.2992L264.783 75.1482C265.98 74.6548 267.291 74.3821 268.67 74.3821V72.3821ZM265.371 73.9756C263.536 66.8119 257.039 61.5151 249.302 61.5151V63.5151C256.103 63.5151 261.82 68.1714 263.433 74.4717L265.371 73.9756ZM249.302 61.5151C247.784 61.5151 246.313 61.7192 244.914 62.102L245.442 64.031C246.67 63.6949 247.964 63.5151 249.302 63.5151V61.5151ZM246.079 62.633C242.805 55.826 235.842 51.1243 227.778 51.1243V53.1243C235.044 53.1243 241.323 57.3593 244.277 63.5L246.079 62.633ZM227.778 51.1243C218.783 51.1243 211.158 56.9747 208.493 65.0752L210.393 65.7C212.796 58.3957 219.673 53.1243 227.778 53.1243V51.1243ZM209.711 64.4241C208.668 64.1342 207.57 63.9796 206.437 63.9796V65.9796C207.387 65.9796 208.305 66.1092 209.175 66.3511L209.711 64.4241ZM206.437 63.9796C200.747 63.9796 195.969 67.8726 194.617 73.1387L196.554 73.6362C197.685 69.2328 201.682 65.9796 206.437 65.9796V63.9796ZM195.555 72.3879C188.99 72.5884 183.731 77.9724 183.731 84.5851H185.731C185.731 79.0565 190.128 74.5546 195.616 74.387L195.555 72.3879ZM183.731 84.5851C183.731 91.0277 188.723 96.3035 195.05 96.7566L195.193 94.7617C189.904 94.383 185.731 89.971 185.731 84.5851H183.731ZM196.122 95.7657V95.7592H194.122V95.7657H196.122ZM195.218 94.7657H195.122V96.7657H195.218V94.7657Z" fill="#01263A" mask="url(#path-17-inside-2)"/>
<mask id="path-19-inside-3" fill="white">
<path fill-rule="evenodd" clip-rule="evenodd" d="M61.2433 28.7141C61.4122 28.7247 61.5825 28.7301 61.754 28.7301C61.9256 28.7301 62.0959 28.7247 62.2648 28.7141H86.7882C86.9571 28.7247 87.1274 28.7301 87.2989 28.7301C91.7354 28.7301 95.3319 25.1336 95.3319 20.6971C95.3319 16.2606 91.7354 12.6641 87.2989 12.6641C87.0307 12.6641 86.7656 12.6773 86.5042 12.703C85.4356 7.03273 80.4568 2.74336 74.476 2.74336C68.4985 2.74336 63.5218 7.02813 62.4496 12.6938C62.2204 12.6742 61.9884 12.6641 61.754 12.6641C57.3176 12.6641 53.7211 16.2606 53.7211 20.6971C53.7211 24.5691 56.4606 27.8013 60.1072 28.5611V28.7141H61.2433Z"/>
</mask>
<path fill-rule="evenodd" clip-rule="evenodd" d="M61.2433 28.7141C61.4122 28.7247 61.5825 28.7301 61.754 28.7301C61.9256 28.7301 62.0959 28.7247 62.2648 28.7141H86.7882C86.9571 28.7247 87.1274 28.7301 87.2989 28.7301C91.7354 28.7301 95.3319 25.1336 95.3319 20.6971C95.3319 16.2606 91.7354 12.6641 87.2989 12.6641C87.0307 12.6641 86.7656 12.6773 86.5042 12.703C85.4356 7.03273 80.4568 2.74336 74.476 2.74336C68.4985 2.74336 63.5218 7.02813 62.4496 12.6938C62.2204 12.6742 61.9884 12.6641 61.754 12.6641C57.3176 12.6641 53.7211 16.2606 53.7211 20.6971C53.7211 24.5691 56.4606 27.8013 60.1072 28.5611V28.7141H61.2433Z" fill="white"/>
<path d="M61.2433 28.7141L61.3059 27.7161L61.2746 27.7141H61.2433V28.7141ZM62.2648 28.7141V27.7141H62.2334L62.2022 27.7161L62.2648 28.7141ZM86.7882 28.7141L86.8508 27.7161L86.8195 27.7141H86.7882V28.7141ZM86.5042 12.703L85.5215 12.8881L85.691 13.7876L86.6019 13.6982L86.5042 12.703ZM62.4496 12.6938L62.3642 13.6902L63.2642 13.7674L63.4322 12.8798L62.4496 12.6938ZM60.1072 28.5611H61.1072V27.748L60.3112 27.5821L60.1072 28.5611ZM60.1072 28.7141H59.1072V29.7141H60.1072V28.7141ZM61.1807 29.7121C61.3704 29.724 61.5616 29.7301 61.754 29.7301V27.7301C61.6034 27.7301 61.454 27.7253 61.3059 27.7161L61.1807 29.7121ZM61.754 29.7301C61.9465 29.7301 62.1377 29.724 62.3274 29.7121L62.2022 27.7161C62.0541 27.7253 61.9047 27.7301 61.754 27.7301V29.7301ZM86.7882 27.7141H62.2648V29.7141H86.7882V27.7141ZM86.7256 29.7121C86.9153 29.724 87.1065 29.7301 87.2989 29.7301V27.7301C87.1483 27.7301 86.9989 27.7253 86.8508 27.7161L86.7256 29.7121ZM87.2989 29.7301C92.2877 29.7301 96.3319 25.6859 96.3319 20.6971H94.3319C94.3319 24.5813 91.1831 27.7301 87.2989 27.7301V29.7301ZM96.3319 20.6971C96.3319 15.7083 92.2877 11.6641 87.2989 11.6641V13.6641C91.1831 13.6641 94.3319 16.8129 94.3319 20.6971H96.3319ZM87.2989 11.6641C86.9981 11.6641 86.7003 11.6789 86.4064 11.7077L86.6019 13.6982C86.8309 13.6757 87.0634 13.6641 87.2989 13.6641V11.6641ZM87.4869 12.5178C86.3309 6.38373 80.9465 1.74336 74.476 1.74336V3.74336C79.9671 3.74336 84.5403 7.68174 85.5215 12.8881L87.4869 12.5178ZM74.476 1.74336C68.0091 1.74336 62.6269 6.37876 61.4671 12.5079L63.4322 12.8798C64.4166 7.67751 68.988 3.74336 74.476 3.74336V1.74336ZM62.5351 11.6975C62.2774 11.6754 62.0169 11.6641 61.754 11.6641V13.6641C61.9598 13.6641 62.1633 13.673 62.3642 13.6902L62.5351 11.6975ZM61.754 11.6641C56.7653 11.6641 52.7211 15.7083 52.7211 20.6971H54.7211C54.7211 16.8129 57.8698 13.6641 61.754 13.6641V11.6641ZM52.7211 20.6971C52.7211 25.0524 55.8023 28.6857 59.9032 29.5401L60.3112 27.5821C57.1189 26.917 54.7211 24.0859 54.7211 20.6971H52.7211ZM61.1072 28.7141V28.5611H59.1072V28.7141H61.1072ZM61.2433 27.7141H60.1072V29.7141H61.2433V27.7141Z" fill="#01263A" mask="url(#path-19-inside-3)"/>
</svg>
