<svg width="562" height="58" viewBox="0 0 562 58" fill="none" xmlns="http://www.w3.org/2000/svg">
<path d="M0.603831 7.36098C0.603831 3.62911 3.62911 0.603831 7.36098 0.603831H741.389C745.121 0.603831 748.146 3.62911 748.146 7.36098V57.3639H0.603831V7.36098Z" fill="#F6F7F7" stroke="#DCDCDE" stroke-width="1.20766"/>
<rect x="103.055" y="12.8809" width="624.763" height="31.2842" rx="4.60061" fill="white"/>
<path d="M121.94 26.8211H121.619L121.617 25.2278C121.616 23.4924 120.197 22.0806 118.454 22.082C116.711 22.0835 115.293 23.4954 115.294 25.2303L115.296 26.8231L115.182 26.8236C114.583 26.8251 114.096 27.3089 114.098 27.9054V32.6479C114.098 33.2444 114.585 33.7287 115.184 33.7287L121.942 33.7246C122.542 33.7246 123.028 33.2409 123.027 32.6439V27.9003C123.027 27.3038 122.539 26.8211 121.94 26.8211ZM116.461 26.8236L116.459 25.2307C116.459 24.1348 117.353 23.2431 118.454 23.2416C119.556 23.2416 120.451 24.1333 120.451 25.2282L120.454 26.8211L116.461 26.8236Z" fill="#02395C"/>
<circle cx="28.0357" cy="29.69" r="5.18019" fill="#DCDCDE"/>
<circle cx="48.7583" cy="29.69" r="5.18019" fill="#DCDCDE"/>
<circle cx="69.481" cy="29.69" r="5.18019" fill="#DCDCDE"/>
</svg>
