<svg viewBox="0 0 300 250" xmlns="http://www.w3.org/2000/svg"><path d="m39.1 66.9h223.4v154.7h-223.4z" fill="none"/><path d="m39.9 224-.3-165.8" fill="#fff"/><path d="m264.2 144.1c-.1-13-.1-26-.3-39-.2-11.7-.4-23.4-.7-35v-24.9c0-7.4-6-13.2-13.3-13.2h-198.3c-7.3 0-13.3 5.9-13.3 13.2v26h.5c-.4 9.5-.3 19-.4 28.5l-.1 41.5.3 41.5c.1 13.9 0 27.6 1.4 41.5h.8c1.3-13.9 1.1-27.6 1.2-41.5l.1-41.5-.3-41.5c-.1-9.5-.1-19-.5-28.5h220.9c-.3 11.3-.4 22.6-.7 34-.3 13-.3 26-.4 39l-.2 76.2-46.1-.1-47.9.1-47.9.1c-16 .1-31.9.3-47.9 1.2v.8c16 .9 31.9 1 47.9 1.2l47.9.1 47.9.1 47.9-.1h1.7v-1.7z" fill="#c3c4c7"/><path d="m273.7 66.1h-247.3" fill="#e6f1f5"/><path d="m273.3 70.5c-5.2.4-10.3.7-15.4.9l-7.7.3-3.8.1-3.8.1c-5.2.1-10.3.1-15.4.2l-15.4.1-15.6.1h-15.4l-30.8.1-30.9-.1h-15.5l-15.4-.1-15.4-.1c-5.2 0-10.3-.1-15.4-.2l-3.8-.1-3.8-.1-7.7-.3c-5.2-.2-10.3-.5-15.4-.9v-1c5.2-.4 10.3-.7 15.4-.9l7.7-.3 3.8-.1 3.8-.1c5.2-.1 10.3-.1 15.4-.2l15.4-.1 15.4-.1h15.4l30.8-.1 30.8.1h15.4l15.4.1 15.4.1c5.2 0 10.3.1 15.4.2l3.8.1 3.8.1 7.7.3c5.2.2 10.3.5 15.4.9v1z" fill="#004e6e"/><path d="m62 51.5c0 1.8-1.5 3.3-3.3 3.3s-3.3-1.5-3.3-3.3 1.5-3.3 3.3-3.3c1.8.1 3.3 1.5 3.3 3.3" fill="#fff"/><path d="m79.1 51.5c0 1.8-1.5 3.3-3.3 3.3s-3.3-1.5-3.3-3.3 1.5-3.3 3.3-3.3c1.8.1 3.3 1.5 3.3 3.3m18.4 0c0 1.8-1.5 3.3-3.3 3.3s-3.3-1.5-3.3-3.3 1.5-3.3 3.3-3.3c1.9.1 3.3 1.5 3.3 3.3" fill="#dcdcde"/><path d="m194.1 191c-3.4.1-6.9.3-10.3.4-1.7.1-3.4.1-5.2.1h-25.8l-41.2.1h-1.6v-1.6l-.1-29v-30.7h1.7l82.5.1h1.5v1.5c0 4.8-.1 9.7-.1 14.5l-.1 7.2c0 2.4 0 4.8-.1 7.2l-.3 14.5-.2 7.2c-.1 2.4-.1 4.8-.3 7.2v1zm-.5-2c-.1-2.1-.2-4.2-.2-6.2l-.2-7.2-.3-14.5c-.1-2.4-.1-4.8-.1-7.2l-.1-7.2c0-4.8-.1-9.7-.1-14.5l1.5 1.5-82.5.1 1.7-1.7v29l-.1 29-1.6-1.6 41.2.1h25.8c1.7 0 3.4 0 5.2.1 3.3 0 6.5.2 9.8.3z" fill="#3895ba"/><path d="m179.6 92h-53.5l-27.7 40.5h109z" fill="#c3c4c7"/><path d="m98.5 132.3v.5c0 7 6.2 12.7 13.8 12.7s13.8-5.7 13.8-12.7v-.5zm54.3 0v.5c0 7 6.2 12.7 13.8 12.7s13.8-5.7 13.8-12.7v-.5z" fill="#c3c4c7"/><path d="m152.8 132.5.8-40.5h-15.4l-12.5 40.5v.5c0 6.9 6.1 12.5 13.6 12.5s13.6-5.6 13.6-12.5c0-.2-.1-.3-.1-.5zm54.6 0-27.8-40.5h-7.1l7.4 40.5v.5c0 6.9 6.2 12.5 13.8 12.5s13.8-5.6 13.8-12.5c-.1-.2-.1-.3-.1-.5z" fill="#3895ba"/><path d="m131.5 154h41.5v20.5h-41.5z" fill="#c3c4c7"/></svg>
