<svg width="245" height="156" viewBox="0 0 245 156" fill="none" xmlns="http://www.w3.org/2000/svg">
<circle cx="125.561" cy="71.3414" r="70.3902" fill="#e9f0f5"/>
<g clip-path="url(#clip0)">
<path d="M72.1657 68.66C70.7967 67.6664 70.2099 66.3747 69.5254 65.083L67.472 61.2078C66.7875 59.9161 66.2007 58.525 65.614 57.2333C65.0273 55.8422 64.3428 54.5505 64.3428 52.8613C64.3428 52.6626 64.4406 52.5632 64.6362 52.5632C64.734 52.5632 64.734 52.5632 64.8318 52.6626C66.2007 53.6562 66.7875 54.9479 67.472 56.2397L69.5254 60.1148C70.1122 61.4065 70.7967 62.7976 71.3834 64.0893C71.9701 65.4804 72.6546 66.7721 72.6546 68.4613C72.6546 68.66 72.5568 68.7594 72.3612 68.7594C72.2634 68.66 72.2634 68.66 72.1657 68.66ZM65.8096 46.8995C64.245 45.4091 63.365 43.5212 62.3871 41.7327C61.4093 39.9441 60.5292 38.0562 59.6491 36.2677C58.7691 34.3798 57.889 32.5913 57.1067 30.7034C56.3244 28.8155 55.3466 27.0269 55.151 24.8409C55.151 24.7416 55.2488 24.5428 55.3466 24.5428C55.4444 24.5428 55.5421 24.5428 55.5421 24.6422C57.1067 26.1327 57.9868 28.0206 58.9646 29.8091C59.9425 31.5976 60.8225 33.4855 61.7026 35.2741C62.5827 37.162 63.4628 38.9505 64.245 40.8384C65.0273 42.7263 66.0052 44.5148 66.2007 46.7008C66.2007 46.8002 66.103 46.9989 66.0052 46.9989C66.0052 46.8995 65.9074 46.8995 65.8096 46.8995Z" fill="#00A32A"/>
<path d="M71.1878 40.6393C70.3078 39.447 70.3078 38.1553 70.1122 36.9629C69.9166 35.6712 69.8188 34.4788 69.7211 33.1871C69.6233 31.8954 69.6233 30.703 69.6233 29.4113C69.6233 28.1196 69.4277 26.9272 70.1122 25.6355C70.21 25.5362 70.4056 25.4368 70.5033 25.5362L70.6011 25.6355C71.4812 26.8279 71.4812 28.1196 71.6768 29.3119C71.8723 30.6037 71.9701 31.796 72.0679 33.0877C72.1657 34.3795 72.1657 35.5718 72.1657 36.8635C72.1657 38.1553 72.3613 39.3476 71.6768 40.6393C71.579 40.8381 71.3834 40.8381 71.1878 40.6393C71.1878 40.7387 71.1878 40.7387 71.1878 40.6393Z" fill="#00A32A"/>
<path d="M78.4239 67.2688C78.0328 65.0828 78.4239 63.0955 78.7173 61.1083C79.0106 59.121 79.304 57.0344 79.6951 55.0471C80.0863 53.0599 80.4774 50.9732 80.8685 48.986C81.2597 46.9987 81.553 44.9121 82.7265 43.0242C82.8242 42.9248 82.922 42.8255 83.1176 42.9248C83.2154 42.9248 83.2154 43.0242 83.2154 43.1236C83.6065 45.3095 83.2154 47.2968 82.922 49.2841C82.6287 51.2713 82.3353 53.358 81.9442 55.3452C81.553 57.3325 81.1619 59.4191 80.7707 61.4064C80.3796 63.3936 80.0863 65.4802 78.9128 67.3681C78.815 67.4675 78.7173 67.5669 78.5217 67.4675C78.4239 67.3681 78.4239 67.2688 78.4239 67.2688ZM81.1619 34.0815C80.5752 32.6904 80.8685 31.3987 81.0641 30.107C81.2597 28.8153 81.4553 27.5236 81.6508 26.3312C81.9442 25.0395 82.1398 23.8471 82.4331 22.5554C82.7265 21.2637 82.922 20.0713 83.8999 18.879C83.9977 18.7796 84.1932 18.7796 84.291 18.879L84.3888 18.9783C84.9755 20.3694 84.6822 21.6611 84.4866 22.9529C84.291 24.2446 84.0955 25.5363 83.8999 26.7286C83.6065 28.0204 83.411 29.2127 83.1176 30.5044C82.8242 31.7962 82.6287 32.9885 81.6508 34.1809C81.553 34.2802 81.3575 34.2802 81.2597 34.1809C81.2597 34.1809 81.1619 34.1809 81.1619 34.0815ZM91.2338 39.2484C90.9404 37.6586 91.4294 36.3669 91.8205 34.9758C92.2116 33.5847 92.6028 32.293 92.9939 30.9019C93.4828 29.6102 93.874 28.2191 94.4607 26.9274C94.9496 25.6357 95.3408 24.2446 96.5142 23.1516C96.612 23.0522 96.8075 23.0522 96.9053 23.1516L97.0031 23.2509C97.2965 24.8407 96.8075 26.1325 96.4164 27.5236C96.0253 28.9146 95.6341 30.2064 95.243 31.5974C94.7541 32.8892 94.3629 34.2802 93.7762 35.572C93.2873 36.8637 92.8961 38.2548 91.7227 39.3478C91.6249 39.4471 91.4294 39.4471 91.3316 39.3478C91.2338 39.3478 91.2338 39.3478 91.2338 39.2484ZM104.435 45.4089C104.239 44.1172 104.826 43.2229 105.315 42.3286C105.804 41.4344 106.293 40.4408 106.782 39.5465C107.271 38.6522 107.857 37.7579 108.444 36.8637C109.031 35.9694 109.52 35.0751 110.693 34.5783C110.889 34.479 110.986 34.5783 111.084 34.7771V34.8764C111.28 36.1681 110.693 37.0624 110.204 37.9567C109.715 38.8509 109.226 39.8446 108.737 40.7388C108.248 41.6331 107.662 42.5274 107.075 43.4216C106.488 44.3159 105.999 45.2102 104.826 45.707C104.728 45.707 104.533 45.6076 104.435 45.4089ZM90.3537 58.9223C90.4515 57.2331 91.2338 56.0408 91.9183 54.749C92.6028 53.4573 93.2873 52.1656 94.0696 50.8739C94.8518 49.5822 95.5363 48.3898 96.4164 47.0981C97.1987 45.9057 97.8832 44.614 99.35 43.7197C99.4478 43.6204 99.6433 43.7197 99.7411 43.8191V44.0178C99.6433 45.707 98.861 46.8994 98.1766 48.1911C97.4921 49.4828 96.8075 50.7745 96.0253 52.0662C95.243 53.358 94.5585 54.5503 93.6784 55.842C92.8961 57.0344 92.2116 58.3261 90.7449 59.2204C90.6471 59.3197 90.4515 59.2204 90.3537 59.121C90.4515 59.0216 90.3537 58.9223 90.3537 58.9223ZM83.5087 72.7337C83.8999 71.2433 84.9755 70.349 85.8556 69.3554C86.7357 68.3618 87.7135 67.4675 88.6914 66.4739C89.6692 65.5796 90.6471 64.6853 91.7227 63.7911C92.7006 62.8968 93.6784 62.0025 95.1452 61.6051C95.3408 61.6051 95.4386 61.7044 95.4386 61.8038V61.9032C95.0474 63.3936 93.9718 64.2879 93.0917 65.2815C92.2116 66.2751 91.2338 67.1694 90.2559 68.163C89.2781 69.0573 88.3002 69.9516 87.2246 70.8459C86.2467 71.7401 85.2689 72.6344 83.8021 73.0318C83.6065 73.0318 83.5087 72.9325 83.5087 72.8331V72.7337ZM109.813 70.5478C110.498 69.3554 111.475 69.0573 112.355 68.5605C113.333 68.0637 114.213 67.6662 115.191 67.1694L118.125 65.9771C119.103 65.5796 120.08 65.1822 121.352 65.4802C121.547 65.4802 121.645 65.679 121.547 65.8777V65.9771C120.863 67.1694 119.885 67.4675 119.005 67.9643C118.027 68.4611 117.147 68.8586 116.169 69.3554L113.235 70.5478C112.258 70.9452 111.28 71.3427 110.009 71.0446C109.911 70.9452 109.813 70.7465 109.813 70.5478ZM112.747 79.9873C114.311 79.2917 115.876 79.4904 117.44 79.4904C119.005 79.4904 120.569 79.5898 122.134 79.6892C123.699 79.7885 125.263 79.8879 126.828 80.0866C128.392 80.2853 129.957 80.2853 131.424 81.1796C131.521 81.279 131.619 81.4777 131.521 81.5771C131.521 81.6764 131.424 81.6764 131.424 81.6764C129.859 82.372 128.294 82.1732 126.73 82.1732C125.165 82.1732 123.601 82.0739 122.036 81.9745C120.472 81.8751 118.907 81.7758 117.342 81.5771C115.778 81.3783 114.213 81.3783 112.747 80.4841C112.649 80.3847 112.551 80.2853 112.649 80.0866C112.649 79.9873 112.747 79.9873 112.747 79.9873ZM83.5087 77.6025C84.8777 76.907 86.1489 77.1057 87.4202 77.2051C88.6914 77.2051 90.0604 77.4038 91.3316 77.5032C92.6028 77.7019 93.874 77.8013 95.243 78C96.5142 78.1987 97.7854 78.2981 99.0566 79.1923C99.1544 79.2917 99.2522 79.4904 99.1544 79.5898L99.0566 79.6892C97.6876 80.3847 96.4164 80.186 95.1452 80.0866C93.874 80.0866 92.505 79.8879 91.2338 79.7885C89.9626 79.5898 88.6914 79.4904 87.3224 79.2917C86.0512 79.093 84.78 78.9936 83.5087 78.0993C83.411 78 83.3132 77.8013 83.411 77.7019C83.5088 77.7019 83.5087 77.6025 83.5087 77.6025ZM97.1009 67.7656C97.981 66.3745 99.35 65.679 100.621 64.8841C101.892 64.0892 103.164 63.3936 104.435 62.6981C105.706 62.0025 107.075 61.307 108.346 60.7108C109.715 60.1146 110.986 59.3197 112.649 59.3197C112.844 59.3197 112.942 59.4191 112.942 59.6178V59.8166C112.062 61.2076 110.693 61.9032 109.422 62.6981C108.151 63.493 106.879 64.1885 105.608 64.8841C104.337 65.5796 102.968 66.2752 101.697 66.8713C100.328 67.4675 99.0566 68.2624 97.3943 68.2624C97.1987 68.2624 97.1009 68.163 97.1009 67.9643C97.0031 67.865 97.0031 67.865 97.1009 67.7656ZM81.6508 80.9809C83.3132 81.0802 84.4866 81.8751 85.7578 82.5707C87.029 83.2662 88.3002 84.0611 89.4736 84.7567C90.6471 85.5516 91.9183 86.3465 93.0917 87.1414C94.2651 87.9363 95.5363 88.6318 96.4164 90.1223C96.5142 90.2216 96.4164 90.4204 96.3186 90.5197H96.1231C94.4607 90.4204 93.2873 89.6255 92.0161 88.9299C90.7449 88.2344 89.4737 87.4395 88.3002 86.7439C87.1268 85.949 85.8556 85.1541 84.6822 84.3592C83.5087 83.5643 82.2375 82.8688 81.3575 81.3783C81.2597 81.279 81.3575 81.0802 81.4553 80.9809H81.6508ZM111.28 88.8306C112.551 88.3337 113.724 88.7312 114.8 89.0293C115.876 89.228 117.049 89.5261 118.125 89.8242C119.2 90.1223 120.276 90.5197 121.449 90.9172C122.525 91.3146 123.699 91.5134 124.579 92.6064C124.676 92.7057 124.676 92.9044 124.579 93.0038C124.579 93.0038 124.481 93.0038 124.481 93.1032C123.21 93.6 122.036 93.2025 120.961 92.9044C119.885 92.7057 118.711 92.4076 117.636 92.1095C116.56 91.8114 115.485 91.414 114.311 91.0165C113.235 90.6191 112.062 90.4204 111.182 89.3274C111.084 89.228 111.084 89.0293 111.28 88.8306ZM103.75 92.1095C106.195 92.7057 108.151 93.9974 110.204 95.0904L116.365 98.6675C118.418 99.9592 120.374 101.152 122.427 102.443C124.383 103.735 126.437 104.927 128.099 106.815C128.197 106.915 128.197 107.113 128.099 107.213C128.001 107.312 127.903 107.312 127.903 107.312C125.459 106.716 123.503 105.424 121.449 104.331L115.289 100.754C113.235 99.4624 111.28 98.2701 109.226 96.9783C107.271 95.6866 105.217 94.4943 103.555 92.6064C103.457 92.507 103.457 92.3083 103.555 92.2089C103.653 92.1095 103.75 92.1095 103.75 92.1095ZM111.769 104.431C113.235 104.629 114.018 105.424 114.996 106.219C115.973 106.915 116.854 107.71 117.831 108.504C118.711 109.299 119.592 110.094 120.472 110.989C121.352 111.883 122.33 112.578 122.721 113.969C122.721 114.168 122.721 114.268 122.525 114.367H122.427C120.961 114.168 120.178 113.373 119.2 112.578C118.223 111.883 117.342 111.088 116.365 110.293C115.485 109.498 114.604 108.703 113.724 107.809C112.844 106.915 111.866 106.219 111.475 104.828C111.475 104.629 111.475 104.53 111.671 104.431H111.769ZM87.7135 91.9108C88.9847 92.3083 89.4736 93.2025 90.1581 93.9974C90.8426 94.7923 91.4294 95.6866 92.0161 96.4815L93.7762 99.1643C94.3629 100.059 94.9496 100.853 94.9496 102.245C94.9496 102.443 94.7541 102.543 94.6563 102.543H94.5585C93.2873 102.145 92.7983 101.251 92.1139 100.456C91.4294 99.6611 90.8427 98.7669 90.2559 97.972L88.4958 95.2892C87.9091 94.3949 87.3224 93.6 87.3224 92.2089C87.3224 92.0102 87.4202 91.9108 87.7135 91.9108C87.6157 91.9108 87.6157 91.9108 87.7135 91.9108ZM96.1231 109.101C97.3943 109.995 97.8832 111.287 98.4699 112.479C99.0566 113.671 99.6433 114.963 100.23 116.155C100.719 117.447 101.306 118.639 101.795 119.931C102.284 121.223 102.87 122.415 102.675 124.005C102.675 124.204 102.479 124.303 102.381 124.303C102.284 124.303 102.284 124.303 102.284 124.204C101.012 123.31 100.523 122.018 99.9367 120.825C99.35 119.633 98.7633 118.341 98.1766 117.149C97.6876 115.857 97.1009 114.665 96.612 113.373C96.1231 112.082 95.5363 110.889 95.7319 109.299C95.7319 109.101 95.9275 109.001 96.0253 109.001C96.0253 109.101 96.0253 109.101 96.1231 109.101ZM83.411 102.543C84.3888 104.331 84.5844 106.12 84.78 107.908C85.0733 109.697 85.2689 111.585 85.4645 113.373C85.66 115.162 85.8556 117.05 85.9534 118.938C86.0512 120.825 86.3445 122.614 85.7578 124.502C85.7578 124.601 85.5622 124.701 85.4645 124.701C85.3667 124.701 85.3667 124.601 85.2689 124.601C84.291 122.813 84.0955 121.024 83.8999 119.236C83.6065 117.447 83.411 115.559 83.2154 113.771C83.0198 111.982 82.8242 110.094 82.7265 108.206C82.6287 106.318 82.3353 104.53 82.922 102.642C82.922 102.543 83.1176 102.443 83.2154 102.443C83.411 102.443 83.411 102.543 83.411 102.543ZM78.0328 84.6573C78.815 85.8497 78.7173 87.042 78.7173 88.2344V91.7121C78.7173 92.9044 78.6195 94.0968 78.5217 95.1898C78.4239 96.3822 78.4239 97.5745 77.6416 98.6675C77.5438 98.7669 77.3483 98.8662 77.2505 98.7669L77.1527 98.6675C76.3704 97.4752 76.4682 96.2828 76.4682 95.0904V91.6127C76.4682 90.4204 76.566 89.228 76.6638 88.135C76.7616 86.9427 76.7616 85.7503 77.5438 84.6573C77.6416 84.4586 77.8372 84.4586 78.0328 84.6573C78.0328 84.5579 78.0328 84.5579 78.0328 84.6573ZM76.0771 115.659C76.8593 116.553 76.7616 117.447 76.7616 118.341C76.7616 119.236 76.8593 120.13 76.7616 120.925C76.7616 121.819 76.6638 122.713 76.566 123.508C76.4682 124.403 76.4682 125.297 75.6859 126.092C75.5881 126.191 75.3926 126.191 75.197 126.092C74.4147 125.197 74.5125 124.303 74.5125 123.409C74.5125 122.515 74.4147 121.62 74.5125 120.825C74.5125 119.931 74.6103 119.037 74.7081 118.242C74.8058 117.348 74.8058 116.453 75.5881 115.659C75.6859 115.559 75.8815 115.559 76.0771 115.659ZM71.9701 103.238C72.2634 105.027 71.6767 106.517 71.2856 108.107C70.8944 109.697 70.4055 111.187 69.9166 112.777C69.4277 114.268 68.9387 115.857 68.352 117.348C67.7653 118.838 67.3742 120.428 66.1029 121.72C66.0052 121.819 65.8096 121.819 65.7118 121.72C65.7118 121.72 65.614 121.62 65.614 121.521C65.3207 119.732 65.9074 118.242 66.2985 116.652C66.6897 115.062 67.1786 113.572 67.6675 111.982C68.1564 110.492 68.6454 108.902 69.2321 107.411C69.8188 105.921 70.2099 104.331 71.4811 103.039C71.5789 102.94 71.7745 102.94 71.8723 103.039C71.9701 103.139 71.9701 103.139 71.9701 103.238ZM72.459 84.4586C72.6546 85.8497 72.0679 86.7439 71.5789 87.8369L70.1121 90.8178C69.6232 91.8115 69.0365 92.8051 68.4498 93.6994C67.8631 94.693 67.3742 95.6866 66.1029 96.2828C65.9074 96.3822 65.8096 96.2828 65.7118 96.1834V96.0841C65.5162 94.693 66.1029 93.7987 66.5919 92.7057L68.0587 89.7248C68.5476 88.7312 69.1343 87.7376 69.721 86.8433C70.3077 85.8497 70.7966 84.856 72.0679 84.2599C72.1656 84.1605 72.3612 84.2599 72.459 84.4586ZM60.8225 105.027C60.627 107.312 59.6491 109.2 58.769 111.088C57.889 112.976 57.0089 114.963 56.1288 116.851C55.151 118.739 54.2709 120.627 53.1953 122.515C52.2174 124.403 51.3374 126.29 49.675 127.88C49.5772 127.98 49.3817 127.98 49.2839 127.88C49.1861 127.781 49.1861 127.781 49.1861 127.682C49.3817 125.396 50.3595 123.508 51.2396 121.62C52.1196 119.732 52.9997 117.745 53.8798 115.857C54.8576 113.969 55.7377 112.082 56.8133 110.194C57.7912 108.306 58.6713 106.418 60.3336 104.828C60.4314 104.729 60.627 104.729 60.7248 104.828C60.8225 104.828 60.8225 104.927 60.8225 105.027ZM53.0975 100.555C52.9997 101.946 52.2174 102.741 51.5329 103.636C50.8484 104.53 50.1639 105.424 49.4794 106.219C48.7949 107.113 48.0127 107.908 47.2304 108.703C46.4481 109.498 45.7636 110.392 44.4924 110.69C44.2968 110.69 44.199 110.591 44.1012 110.492V110.392C44.199 109.001 44.9813 108.206 45.6658 107.312C46.3503 106.418 47.0348 105.524 47.7193 104.729C48.4038 103.834 49.1861 103.039 49.9684 102.245C50.7506 101.45 51.4352 100.555 52.7064 100.257C52.9019 100.158 53.0975 100.257 53.0975 100.555C53.0975 100.456 53.0975 100.456 53.0975 100.555ZM62.7782 83.465C61.996 84.7567 60.8225 85.1541 59.7469 85.7503C58.769 86.4458 57.6934 86.9427 56.52 87.4395C55.4443 87.9363 54.2709 88.4331 53.1953 88.9299C52.0219 89.4267 50.9462 89.9236 49.5772 89.7248C49.3817 89.7248 49.2839 89.5261 49.2839 89.4267V89.3274C50.0662 88.0357 51.2396 87.6382 52.3152 87.042C53.3909 86.4458 54.4665 85.8497 55.5421 85.3529C56.6178 84.856 57.7912 84.3592 58.8668 83.8624C60.0403 83.3656 61.1159 82.8688 62.4849 83.0675C62.6805 83.0675 62.7782 83.2662 62.7782 83.3656C62.876 83.465 62.7782 83.465 62.7782 83.465ZM45.6658 92.4076C44.2968 93.8981 42.6345 94.5936 40.9721 95.4879L35.9851 97.8726C34.3227 98.6675 32.5626 99.363 30.9002 100.059C29.2379 100.754 27.5755 101.549 25.522 101.648C25.3265 101.648 25.2287 101.549 25.2287 101.35C25.2287 101.251 25.2287 101.251 25.3265 101.152C26.6955 99.6611 28.3578 98.9656 30.0202 98.0713L35.0072 95.6866C36.6696 94.8917 38.4297 94.1962 40.092 93.5006C41.7544 92.8051 43.4167 92.0102 45.4702 91.9108C45.6658 91.9108 45.7636 92.0102 45.7636 92.2089C45.7636 92.3083 45.7636 92.3083 45.6658 92.4076ZM45.2747 82.67C43.2212 84.0611 41.0699 84.558 38.8208 85.2535C36.6696 85.949 34.4205 86.5452 32.1714 87.1414C29.9224 87.7376 27.7711 88.2344 25.522 88.8306C23.273 89.3274 21.1217 90.0229 18.6771 89.8242C18.5793 89.8242 18.3837 89.7248 18.4815 89.5261C18.4815 89.4267 18.5793 89.3274 18.5793 89.3274C20.6328 87.9363 22.784 87.4395 25.0331 86.7439C27.1844 86.0484 29.4334 85.4522 31.6825 84.856C33.9316 84.2599 36.0828 83.763 38.3319 83.1669C40.581 82.67 42.7323 81.9745 45.1769 82.1732C45.2747 82.1732 45.4702 82.2726 45.3725 82.4713C45.3725 82.5707 45.3725 82.67 45.2747 82.67ZM44.4924 74.0255C43.1234 74.721 41.95 74.5223 40.6788 74.5223C39.4075 74.5223 38.1363 74.4229 36.8651 74.3236C35.5939 74.2242 34.3227 74.0255 33.1493 73.8267C31.8781 73.628 30.6069 73.628 29.4334 72.6344C29.3357 72.535 29.2379 72.3363 29.3357 72.2369L29.4334 72.1376C30.8024 71.442 31.9759 71.6408 33.2471 71.6408C34.5183 71.6408 35.7895 71.7401 37.0607 71.8395C38.3319 71.9388 39.6031 72.1376 40.7765 72.3363C42.0478 72.535 43.319 72.535 44.4924 73.5287C44.5902 73.628 44.688 73.8267 44.5902 73.9261C44.4924 73.9261 44.4924 74.0255 44.4924 74.0255ZM67.4719 77.9006C66.0052 78.4968 64.6362 78.2981 63.1694 78.1987C61.8004 78.0993 60.3336 78 58.9646 77.8013L54.8576 77.2051C53.4886 77.0064 52.1196 76.907 50.7507 75.9134C50.6529 75.814 50.5551 75.6153 50.6529 75.5159L50.7507 75.4166C52.2174 74.8204 53.5864 75.0191 55.0532 75.1185C56.4222 75.2178 57.889 75.3172 59.258 75.5159L63.365 76.1121C64.734 76.3108 66.103 76.4102 67.4719 77.4038C67.5697 77.5032 67.6675 77.7019 67.5697 77.8013L67.4719 77.9006ZM67.8631 72.3363C66.0052 72.1376 64.5384 71.2433 63.0716 70.4484C61.6048 69.6535 60.0403 68.7592 58.5735 67.865C57.1067 66.9707 55.6399 66.0764 54.1731 65.0828C52.7064 64.1885 51.2396 63.2943 50.1639 61.7044C50.0662 61.6051 50.0662 61.4064 50.2617 61.307C50.3595 61.307 50.3595 61.2076 50.4573 61.307C52.3152 61.5057 53.782 62.4 55.2488 63.1949C56.7156 63.9898 58.2801 64.8841 59.7469 65.7783C61.2137 66.6726 62.6805 67.5669 64.1472 68.5605C65.614 69.4548 67.0808 70.349 68.1564 71.9388C68.2542 72.0382 68.2542 72.2369 68.0587 72.3363C67.9609 72.2369 67.8631 72.3363 67.8631 72.3363ZM39.8965 64.2879C38.1363 64.4866 36.7673 63.7911 35.3006 63.2943C33.8338 62.7974 32.367 62.2013 30.998 61.6051C29.5312 61.0089 28.1622 60.4127 26.6955 59.7172C25.3265 59.0216 23.8597 58.5248 22.6863 57.2331C22.5885 57.1337 22.5885 56.935 22.6863 56.8357C22.6863 56.8357 22.784 56.7363 22.8818 56.7363C24.642 56.5376 26.011 57.2331 27.4777 57.7299C28.9445 58.2267 30.4113 58.8229 31.7803 59.4191C33.2471 60.0153 34.6161 60.6115 36.0828 61.307C37.4518 62.0025 38.9186 62.4993 40.092 63.7911C40.1898 63.8904 40.1898 64.0892 40.092 64.1885C39.9943 64.1885 39.9943 64.2879 39.8965 64.2879ZM46.7414 59.0216C44.9813 58.6242 43.6123 57.6306 42.2433 56.7363C40.8743 55.842 39.5053 54.8484 38.2341 53.8548C36.9629 52.8611 35.5939 51.8675 34.3227 50.8739C33.0515 49.8802 31.6825 48.8866 30.8024 47.2968C30.7047 47.1974 30.8024 46.9987 30.9002 46.8994H31.0958C32.8559 47.1974 34.1271 48.2904 35.4961 49.1847C36.8651 50.079 38.2341 51.0726 39.5053 52.0662C40.7765 53.0599 42.1455 54.0535 43.4167 55.0471C44.688 56.0408 46.057 57.0344 46.937 58.6242C47.0348 58.7236 46.937 58.9223 46.8392 59.0216H46.7414ZM61.0181 58.2267C59.4535 57.2331 58.6713 55.7427 57.6934 54.3516C56.7156 52.9605 55.8355 51.5694 54.9554 50.079C54.0754 48.5885 53.1953 47.1974 52.413 45.707C51.6307 44.2165 50.6529 42.8255 50.4573 40.9376C50.4573 40.7388 50.5551 40.6395 50.6529 40.6395H50.8484C52.413 41.6331 53.1953 43.1236 54.1731 44.5146C55.151 45.9057 56.0311 47.2968 56.9111 48.7872C57.7912 50.2777 58.6713 51.6688 59.4535 53.1592C60.2358 54.6497 61.2137 56.0408 61.4093 57.9286C61.4093 58.1274 61.3115 58.2267 61.2137 58.2267H61.0181Z" fill="#00A32A"/>
<path d="M135.628 30.9021C134.944 29.8091 135.042 28.8154 135.042 27.8218C135.042 26.8282 135.139 25.8345 135.139 24.8409C135.237 23.8473 135.335 22.8537 135.531 21.86C135.726 20.8664 135.726 19.8728 136.606 18.8791C136.704 18.7798 136.899 18.7798 137.095 18.8791V18.9785C137.78 20.0715 137.682 21.0651 137.682 22.0587C137.682 23.0524 137.584 24.046 137.584 25.0396C137.486 26.0333 137.388 27.0269 137.193 28.0205C136.997 29.0142 136.997 30.0078 136.117 31.0014C135.922 31.0014 135.726 31.0014 135.628 30.9021ZM139.637 24.9403C139.442 23.3505 140.126 22.0587 140.615 20.6677C141.104 19.3759 141.691 17.9849 142.18 16.6931C142.767 15.4014 143.353 14.1097 144.038 12.818C144.722 11.5263 145.211 10.2345 146.482 9.24091C146.58 9.14155 146.776 9.14155 146.874 9.34028C146.874 9.34028 146.874 9.43964 146.971 9.43964C147.167 11.0294 146.482 12.3212 145.994 13.7123C145.505 15.004 144.918 16.3951 144.429 17.6868C143.842 18.9785 143.256 20.2702 142.571 21.5619C141.887 22.8537 141.398 24.1454 140.126 25.139C140.029 25.2384 139.833 25.2384 139.735 25.0396L139.637 24.9403ZM140.713 30.4052C141.398 28.7161 142.571 27.7224 143.744 26.5301C144.918 25.3377 146.091 24.2447 147.265 23.1517C148.438 22.0587 149.709 20.9658 150.883 19.9721C152.154 18.9785 153.23 17.7861 154.99 17.2893C155.088 17.2893 155.283 17.2893 155.283 17.488V17.6868C154.599 19.3759 153.425 20.3696 152.252 21.5619C151.078 22.7543 149.905 23.8473 148.732 24.9403C147.558 26.0333 146.287 27.1263 145.113 28.1199C143.842 29.1135 142.767 30.3059 141.006 30.8027C140.909 30.8027 140.713 30.8027 140.713 30.604V30.4052ZM150.785 15.6995C150.589 14.5072 151.176 13.8116 151.567 13.0167C151.958 12.2218 152.447 11.5263 152.936 10.7314C153.425 10.0358 153.914 9.34028 154.501 8.64474C154.99 7.94919 155.479 7.15429 156.554 6.8562C156.75 6.8562 156.945 6.95556 156.945 7.05493C157.141 8.24728 156.554 8.94283 156.163 9.73773C155.772 10.5326 155.283 11.2282 154.794 12.0231C154.305 12.7186 153.816 13.4142 153.23 14.1097C152.741 14.8052 152.252 15.6001 151.176 15.8982C150.981 15.9976 150.785 15.8982 150.785 15.6995ZM163.302 25.2384C163.693 24.2447 164.377 24.046 164.964 23.6486C165.551 23.3505 166.235 23.0524 166.92 22.7543C167.604 22.4562 168.191 22.2575 168.875 22.0587C169.56 21.86 170.147 21.5619 171.124 21.9594C171.32 22.0587 171.418 22.2575 171.32 22.4562C170.929 23.4498 170.244 23.6486 169.658 24.046C169.071 24.3441 168.386 24.6422 167.702 24.9403C167.017 25.2384 166.431 25.4371 165.746 25.6358C165.062 25.8345 164.475 26.1326 163.497 25.7352C163.302 25.6358 163.204 25.4371 163.302 25.2384ZM149.025 32.3925C149.612 31.2995 150.589 31.0014 151.47 30.5046C152.35 30.1072 153.23 29.6103 154.208 29.3122C155.088 28.9148 156.065 28.6167 157.043 28.3186C158.021 28.0205 158.901 27.6231 160.075 27.9212C160.27 28.0205 160.368 28.1199 160.27 28.3186V28.418C159.683 29.511 158.706 29.8091 157.826 30.3059C156.945 30.7033 156.065 31.2001 155.088 31.4982C154.208 31.8957 153.23 32.1938 152.252 32.4919C151.274 32.79 150.394 33.1874 149.22 32.8893C149.025 32.8893 148.927 32.6906 149.025 32.3925C149.025 32.4919 149.025 32.4919 149.025 32.3925ZM160.857 34.8766C161.639 34.0817 162.421 34.0817 163.204 33.9823C163.986 33.8829 164.768 33.8829 165.648 33.7836C166.431 33.7836 167.213 33.7836 168.093 33.8829C168.875 33.9823 169.658 33.8829 170.538 34.6779C170.635 34.7772 170.635 35.0753 170.538 35.1747C169.755 35.9696 168.973 35.9696 168.191 36.0689C167.409 36.1683 166.626 36.1683 165.746 36.2677C164.964 36.2677 164.182 36.2677 163.302 36.1683C162.519 36.0689 161.737 36.1683 160.857 35.3734C160.759 35.274 160.759 35.0753 160.857 34.8766ZM141.789 37.2613C142.864 36.8638 143.647 37.2613 144.527 37.5594C145.309 37.8575 146.189 38.1556 146.971 38.553L149.318 39.7454C150.101 40.1428 150.883 40.4409 151.372 41.5339C151.47 41.7326 151.372 41.9314 151.176 41.9314C150.101 42.3288 149.318 41.9314 148.438 41.6333C147.656 41.3352 146.776 41.0371 145.994 40.6396L143.647 39.4473C142.864 39.0498 142.082 38.7517 141.593 37.6587C141.593 37.5594 141.593 37.3607 141.789 37.2613ZM137.877 39.8447C138.953 40.4409 139.246 41.4345 139.637 42.3288C140.029 43.2231 140.42 44.1173 140.811 45.111C141.202 46.0052 141.495 46.9989 141.789 47.9925C142.082 48.9861 142.473 49.8804 142.082 51.0728C141.984 51.2715 141.887 51.3708 141.691 51.2715H141.593C140.518 50.6753 140.224 49.6817 139.833 48.7874C139.442 47.8931 139.051 46.9989 138.66 46.0052C138.268 45.111 137.975 44.1173 137.682 43.1237C137.388 42.1301 136.997 41.2358 137.388 40.0435C137.486 39.8447 137.682 39.7454 137.877 39.8447Z" fill="#1689db"/>
<path d="M146.58 45.5082L154.501 57.3324Z" fill="#C475BD"/>
<path d="M146.776 45.3096C148.047 45.8065 148.732 46.8995 149.416 47.7937C150.101 48.7874 150.785 49.6816 151.47 50.6753C152.154 51.6689 152.741 52.6625 153.327 53.7555C153.914 54.7491 154.599 55.7428 154.696 57.1339C154.696 57.3326 154.599 57.432 154.403 57.432H154.305C153.034 56.9351 152.35 55.8421 151.665 54.9479C150.981 53.9542 150.296 53.06 149.612 52.0663C148.927 51.0727 148.34 50.0791 147.754 48.9861C147.167 47.9925 146.482 46.9988 146.385 45.6077C146.385 45.409 146.482 45.3096 146.678 45.3096H146.776ZM132.89 41.4345C133.281 42.5275 132.89 43.223 132.695 43.9186C132.401 44.7135 132.206 45.409 131.912 46.2039C131.619 46.8995 131.228 47.6944 130.837 48.3899C130.446 49.0854 130.25 49.8804 129.174 50.2778C128.979 50.3772 128.783 50.2778 128.686 50.0791C128.294 48.9861 128.686 48.2905 128.881 47.595C129.174 46.8001 129.37 46.1046 129.663 45.3096C129.957 44.6141 130.348 43.8192 130.739 43.1237C131.13 42.4281 131.326 41.6332 132.401 41.2358C132.597 41.1364 132.793 41.2358 132.89 41.4345Z" fill="#1689db"/>
<path d="M123.014 49.7809C122.525 51.0726 121.645 51.6688 120.765 52.3643C119.885 53.0599 119.005 53.7554 118.125 54.3516C117.245 54.9478 116.267 55.544 115.387 56.1401C114.409 56.7363 113.627 57.4319 112.258 57.3325C112.062 57.3325 111.964 57.2331 111.964 57.0344V56.935C112.453 55.6433 113.333 55.0471 114.213 54.3516C115.093 53.6561 115.973 52.9605 116.853 52.3643C117.734 51.7682 118.711 51.172 119.591 50.5758C120.569 49.9796 121.352 49.2841 122.721 49.3834C122.916 49.3834 123.014 49.4828 123.014 49.7809C123.014 49.6815 123.014 49.6815 123.014 49.7809Z" fill="#3895BA"/>
<path d="M119.103 43.5211C118.711 44.6141 117.929 44.9122 117.245 45.409C116.56 45.8064 115.778 46.3032 114.996 46.6013C114.213 46.9988 113.431 47.2969 112.649 47.595C111.866 47.8931 111.182 48.3899 110.009 47.9924C109.813 47.8931 109.715 47.7937 109.813 47.595C110.204 46.502 110.986 46.2039 111.671 45.7071C112.355 45.3096 113.138 44.8128 113.92 44.5147C114.702 44.1173 115.485 43.8192 116.267 43.5211C117.049 43.223 117.734 42.7262 118.907 43.1236C119.103 43.1236 119.2 43.3224 119.103 43.5211ZM130.837 37.6587C130.446 38.7517 129.761 38.9504 129.077 39.3478C128.392 39.7453 127.708 40.0434 127.023 40.3415C126.339 40.6396 125.654 40.9376 124.872 41.1364C124.187 41.3351 123.503 41.7325 122.427 41.3351C122.232 41.2357 122.134 41.037 122.232 40.8383C122.623 39.7453 123.307 39.5466 123.992 39.1491C124.676 38.7517 125.361 38.4536 126.045 38.1555C126.73 37.8574 127.414 37.5593 128.197 37.3606C128.881 37.1618 129.566 36.7644 130.641 37.1618C130.837 37.2612 130.935 37.4599 130.837 37.6587ZM123.307 30.8026C121.841 31.2001 120.569 30.7032 119.396 30.4052C118.125 30.1071 116.854 29.7096 115.68 29.4115C114.409 29.0141 113.235 28.6166 111.964 28.1198C110.791 27.623 109.52 27.3249 108.444 26.2319C108.346 26.1325 108.346 25.9338 108.444 25.8345L108.542 25.7351C110.009 25.3376 111.28 25.8345 112.453 26.1325C113.724 26.4306 114.996 26.8281 116.169 27.1262C117.44 27.5236 118.614 27.9211 119.885 28.4179C121.058 28.9147 122.329 29.2128 123.405 30.3058C123.503 30.4052 123.503 30.6039 123.405 30.7032L123.307 30.8026ZM116.169 20.9657C114.996 21.2638 114.311 20.7669 113.431 20.3695L111.084 19.1771C110.302 18.7797 109.52 18.2829 108.835 17.7861C108.053 17.2892 107.271 16.8918 106.879 15.7988C106.782 15.6001 106.879 15.4013 107.075 15.4013C108.248 15.1032 108.933 15.6001 109.813 15.9975L112.16 17.1899C112.942 17.5873 113.724 18.0841 114.409 18.581C115.191 19.0778 115.973 19.4752 116.365 20.5682C116.462 20.6676 116.365 20.8663 116.169 20.9657ZM129.468 29.1134C128.294 28.716 127.708 27.8217 127.121 27.0268C126.534 26.2319 125.948 25.437 125.361 24.5427C124.774 23.6485 124.285 22.8536 123.796 21.9593C123.307 21.065 122.721 20.2701 122.818 18.9784C122.818 18.7797 123.014 18.6803 123.112 18.6803H123.21C124.383 19.0778 124.97 19.972 125.556 20.7669C126.143 21.5618 126.73 22.3568 127.317 23.251C127.903 24.1453 128.392 24.9402 128.881 25.8345C129.37 26.7287 129.957 27.5236 129.859 28.8154C129.859 29.0141 129.761 29.1134 129.468 29.1134ZM123.21 13.9109C122.036 13.5134 121.645 12.7185 121.058 12.023C120.569 11.3275 119.983 10.5325 119.494 9.73764C119.005 8.94274 118.614 8.14783 118.125 7.35293C117.734 6.55802 117.147 5.76312 117.342 4.57076C117.342 4.37204 117.538 4.27267 117.734 4.27267C118.907 4.57076 119.298 5.46503 119.885 6.16057C120.374 6.85611 120.961 7.65102 121.449 8.44592C121.938 9.24083 122.33 10.0357 122.818 10.8306C123.21 11.6255 123.796 12.4204 123.601 13.6128C123.601 13.8115 123.503 13.9109 123.21 13.9109C123.307 13.9109 123.307 13.9109 123.21 13.9109ZM131.521 15.0039C130.739 14.1096 130.739 13.116 130.641 12.1224C130.543 11.1287 130.446 10.2345 130.446 9.24083V6.3593C130.446 5.36567 130.446 4.4714 131.13 3.47777C131.228 3.37841 131.424 3.27904 131.619 3.37841C132.401 4.27267 132.401 5.2663 132.499 6.25993C132.597 7.25357 132.695 8.14783 132.695 9.14146V12.023C132.695 13.0166 132.695 13.9109 132.01 14.9045C131.815 15.2026 131.619 15.2026 131.521 15.0039C131.521 15.1032 131.521 15.1032 131.521 15.0039ZM136.9 12.4204C136.215 11.3275 136.411 10.2345 136.508 9.24083C136.606 8.2472 136.606 7.1542 136.704 6.16057C136.802 5.16694 136.997 4.07395 137.193 3.08032C137.388 2.08669 137.388 0.993692 138.366 0.0994246C138.464 6.1579e-05 138.66 6.1579e-05 138.757 0.0994246V0.198788C139.442 1.29178 139.246 2.38478 139.246 3.37841C139.149 4.37204 139.149 5.46503 139.051 6.45866C138.953 7.45229 138.757 8.54529 138.562 9.53892C138.366 10.5325 138.366 11.6255 137.388 12.5198C137.291 12.6192 137.095 12.6192 136.9 12.4204Z" fill="#1689db"/>
<path d="M201.633 68.6598C202.513 67.07 203.882 66.1758 205.154 65.2815C206.425 64.2879 207.794 63.3936 209.065 62.4L213.172 59.7172C214.541 58.8229 215.812 57.9286 217.67 57.6305C217.866 57.6305 217.964 57.7299 217.964 57.8293V58.028C217.083 59.6178 215.714 60.5121 214.443 61.4063C213.172 62.4 211.803 63.2942 210.532 64.2879L206.425 66.9707C205.056 67.8649 203.785 68.7592 201.927 69.0573C201.731 69.0573 201.633 68.9579 201.633 68.8586V68.6598ZM179.729 82.0738C180.61 80.484 181.979 79.6891 183.152 78.6955C184.423 77.7019 185.694 76.8076 186.966 75.9133C188.237 75.0191 189.606 74.1248 190.975 73.3299C192.344 72.535 193.615 71.5414 195.375 71.3426C195.571 71.3426 195.668 71.442 195.668 71.5414V71.7401C194.788 73.3299 193.419 74.1248 192.246 75.1184C190.975 76.1121 189.704 77.0063 188.432 77.9006C187.161 78.7949 185.792 79.6891 184.423 80.484C183.054 81.2789 181.783 82.2726 180.023 82.4713C179.827 82.4713 179.729 82.3719 179.729 82.2726C179.632 82.1732 179.632 82.0738 179.729 82.0738ZM206.523 77.6025C207.403 76.6089 208.576 76.4101 209.554 76.1121C210.63 75.814 211.705 75.5159 212.781 75.3172L216.008 74.721C217.083 74.5223 218.159 74.3235 219.43 74.8203C219.626 74.9197 219.626 75.1184 219.626 75.2178C219.626 75.2178 219.626 75.3172 219.528 75.3172C218.648 76.3108 217.475 76.5095 216.497 76.8076C215.421 77.1057 214.345 77.4038 213.27 77.6025L210.043 78.1987C208.967 78.3974 207.892 78.5961 206.62 78.0993C206.425 78.0993 206.425 77.9006 206.523 77.6025C206.425 77.7019 206.523 77.7019 206.523 77.6025ZM184.521 85.8496C186.183 85.2535 187.65 85.4522 189.215 85.5515C190.779 85.6509 192.344 85.8496 193.908 85.949C195.473 86.1477 197.037 86.3465 198.504 86.5452C200.069 86.7439 201.633 86.8433 203.1 87.8369C203.198 87.9363 203.296 88.135 203.198 88.2344C203.198 88.3337 203.1 88.3337 203.1 88.3337C201.438 88.9299 199.971 88.7312 198.406 88.6318C196.842 88.5324 195.277 88.3337 193.713 88.2344C192.148 88.0356 190.584 87.8369 189.117 87.6382C187.552 87.4394 185.988 87.3401 184.521 86.3465C184.423 86.2471 184.325 86.0484 184.423 85.949L184.521 85.8496ZM209.358 85.1541C210.532 84.5579 211.51 84.7566 212.585 84.856C213.661 84.9554 214.639 85.0547 215.714 85.1541C216.692 85.3528 217.768 85.5516 218.746 85.7503C219.724 85.949 220.799 86.0484 221.679 87.042C221.777 87.1414 221.777 87.3401 221.679 87.4394H221.582C220.408 88.0356 219.43 87.8369 218.355 87.7375C217.279 87.6382 216.301 87.5388 215.226 87.4394C214.248 87.2407 213.172 87.042 212.194 86.8433C211.216 86.6445 210.141 86.5452 209.261 85.5515C209.163 85.5515 209.163 85.3528 209.358 85.1541C209.261 85.2535 209.261 85.2535 209.358 85.1541ZM205.349 94.8917C206.718 94.5936 207.696 95.0904 208.87 95.3885C209.945 95.7859 211.021 96.084 212.096 96.5808C213.172 96.9783 214.248 97.4751 215.226 97.9719C216.301 98.4687 217.377 98.8662 218.159 99.9592C218.257 100.059 218.257 100.257 218.061 100.357H217.964C216.595 100.655 215.617 100.158 214.443 99.8598C213.368 99.4624 212.292 99.1643 211.216 98.6675C210.141 98.27 209.065 97.7732 208.087 97.2764C207.012 96.7796 205.936 96.3821 205.154 95.2891C205.056 95.2891 205.056 95.0904 205.349 94.8917C205.251 94.991 205.251 94.991 205.349 94.8917ZM188.335 94.2955C189.801 94.3949 190.681 95.0904 191.659 95.7859C192.637 96.4815 193.615 97.0777 194.593 97.8726C195.571 98.5681 196.451 99.363 197.429 100.158C198.309 100.953 199.287 101.549 199.775 102.94C199.873 103.139 199.775 103.238 199.58 103.338H199.482C198.015 103.238 197.135 102.543 196.157 101.847C195.18 101.152 194.202 100.555 193.224 99.7605C192.246 99.0649 191.366 98.27 190.388 97.4751C189.508 96.6802 188.53 96.084 188.041 94.693C187.943 94.4942 188.041 94.3949 188.237 94.2955H188.335ZM199.189 111.883C200.264 111.982 200.656 112.578 201.144 113.075C201.633 113.572 202.122 114.168 202.513 114.665C203.002 115.261 203.394 115.857 203.785 116.453C204.176 117.05 204.665 117.546 204.469 118.639C204.469 118.838 204.274 118.938 204.078 118.938C203.002 118.838 202.611 118.242 202.122 117.745C201.633 117.248 201.144 116.652 200.753 116.155C200.264 115.559 199.873 114.963 199.482 114.367C199.091 113.771 198.602 113.274 198.798 112.181C198.798 111.982 198.993 111.883 199.189 111.883ZM181.196 111.386C182.272 111.883 182.467 112.777 182.859 113.473C183.25 114.267 183.543 115.062 183.934 115.857C184.228 116.652 184.521 117.447 184.717 118.341C184.912 119.136 185.303 119.931 184.912 121.024C184.814 121.223 184.619 121.322 184.521 121.223C183.445 120.726 183.25 119.832 182.859 119.136C182.467 118.341 182.174 117.546 181.783 116.752C181.49 115.957 181.196 115.162 181.001 114.267C180.805 113.473 180.414 112.678 180.805 111.585C180.805 111.386 181.001 111.287 181.196 111.386ZM186.77 102.642C187.943 103.139 188.432 104.132 189.019 105.027C189.606 105.921 190.193 106.815 190.681 107.71C191.17 108.604 191.659 109.597 192.148 110.492C192.637 111.485 193.224 112.38 193.028 113.671C193.028 113.87 192.833 113.969 192.637 113.969H192.539C191.366 113.473 190.877 112.479 190.29 111.585C189.704 110.69 189.117 109.796 188.628 108.902C188.139 108.008 187.65 107.014 187.161 106.12C186.672 105.126 186.086 104.232 186.281 102.94C186.379 102.741 186.574 102.543 186.77 102.642ZM177.383 91.5133C178.458 92.2089 178.752 93.3019 179.143 94.1961L180.316 97.177C180.61 98.1707 181.001 99.1643 181.196 100.158C181.49 101.152 181.881 102.145 181.49 103.437C181.392 103.636 181.294 103.735 181.098 103.636H181.001C179.925 102.94 179.632 101.847 179.241 100.953L178.067 97.9719C177.774 96.9783 177.383 95.9847 177.187 94.991C176.894 93.9974 176.503 93.0038 176.894 91.7121C176.991 91.5133 177.187 91.414 177.383 91.5133C177.383 91.414 177.383 91.414 177.383 91.5133ZM172.004 90.0229C172.2 91.414 171.613 92.507 171.124 93.6L169.658 96.8789C169.169 97.9719 168.582 99.0649 167.995 100.059C167.409 101.152 166.92 102.245 165.746 102.94C165.648 103.039 165.453 102.94 165.355 102.841V102.741C165.159 101.35 165.746 100.257 166.235 99.1643L167.702 95.8853C168.191 94.7923 168.778 93.6993 169.364 92.7057C169.951 91.6127 170.44 90.5197 171.613 89.8242C171.711 89.7248 171.907 89.8242 172.004 89.9235V90.0229ZM170.831 112.479C171.32 113.572 171.027 114.466 170.831 115.46C170.635 116.354 170.44 117.348 170.244 118.242C170.049 119.136 169.755 120.031 169.364 121.024C169.071 121.918 168.875 122.912 167.897 123.608C167.8 123.707 167.506 123.707 167.409 123.508C166.92 122.415 167.213 121.521 167.409 120.527C167.604 119.633 167.8 118.639 167.995 117.745C168.191 116.851 168.484 115.957 168.875 114.963C169.169 114.069 169.364 113.075 170.342 112.38C170.538 112.28 170.733 112.28 170.831 112.479ZM164.182 108.206C164.182 109.995 163.399 111.485 162.813 112.976C162.226 114.466 161.541 115.957 160.857 117.447C160.172 118.938 159.39 120.329 158.706 121.819C157.923 123.21 157.337 124.8 155.87 125.893C155.772 125.992 155.576 125.992 155.479 125.893C155.479 125.794 155.381 125.794 155.381 125.694C155.381 123.906 156.163 122.415 156.75 120.925C157.337 119.434 158.021 117.944 158.706 116.453C159.39 114.963 160.172 113.572 160.857 112.081C161.639 110.69 162.226 109.101 163.693 108.008C163.79 107.908 163.986 107.908 164.084 108.008C164.182 108.107 164.182 108.107 164.182 108.206ZM158.412 100.754C158.314 101.946 157.63 102.642 157.043 103.338C156.457 104.033 155.87 104.729 155.185 105.424C154.599 106.12 153.914 106.716 153.23 107.411C152.545 108.008 151.958 108.802 150.785 108.902C150.589 108.902 150.492 108.803 150.394 108.604C150.492 107.411 151.176 106.716 151.763 106.02C152.35 105.325 152.936 104.629 153.621 103.934C154.208 103.238 154.892 102.642 155.577 101.946C156.261 101.35 156.848 100.555 158.021 100.456C158.314 100.456 158.412 100.555 158.412 100.754ZM152.936 91.9108C151.861 93.3019 150.394 93.7987 149.025 94.4942C147.656 95.1898 146.287 95.7859 144.918 96.4815C143.549 97.0777 142.082 97.6738 140.713 98.1707C139.246 98.6675 137.877 99.363 136.215 99.2637C136.019 99.2637 135.922 99.1643 135.922 98.9656C135.922 98.8662 135.922 98.8662 136.019 98.7668C137.095 97.3758 138.562 96.8789 139.931 96.1834C141.3 95.4879 142.669 94.8917 144.038 94.1961C145.407 93.6 146.874 93.0038 148.243 92.507C149.709 92.0101 151.078 91.3146 152.741 91.414C152.936 91.414 153.034 91.5133 153.034 91.7121C153.034 91.8114 153.034 91.9108 152.936 91.9108ZM169.071 86.4458C168.484 87.5388 167.506 87.8369 166.626 88.2344C165.746 88.6318 164.866 89.0293 163.986 89.3273C163.106 89.6254 162.226 89.9235 161.248 90.2216C160.368 90.5197 159.488 90.9172 158.314 90.4203C158.119 90.321 158.021 90.2216 158.119 90.0229V89.9235C158.706 88.8305 159.683 88.5324 160.564 88.135C161.444 87.7375 162.324 87.3401 163.204 87.042C164.084 86.7439 164.964 86.4458 165.942 86.1477C166.822 85.8496 167.702 85.4522 168.875 85.949C169.071 86.0484 169.169 86.2471 169.071 86.4458ZM150.394 79.8879C148.732 80.2853 147.265 79.8879 145.798 79.5898C144.331 79.2917 142.864 78.9936 141.398 78.5961L136.997 77.4038C135.531 77.0063 134.064 76.7082 132.793 75.5159C132.695 75.4165 132.695 75.2178 132.793 75.1184L132.89 75.0191C134.553 74.6216 136.019 75.0191 137.486 75.3172C138.953 75.6152 140.42 75.9133 141.887 76.3108L146.287 77.5031C147.754 77.9006 149.22 78.1987 150.492 79.391C150.589 79.4904 150.589 79.6891 150.492 79.7885L150.394 79.8879ZM165.551 82.9681C164.475 83.5643 163.595 83.2662 162.715 83.0675C161.835 82.8687 160.955 82.7694 160.075 82.4713C159.195 82.2726 158.314 81.9745 157.434 81.6764C156.554 81.3783 155.674 81.1796 154.99 80.1859C154.892 79.9872 154.892 79.7885 155.088 79.6891C156.163 79.0929 157.043 79.391 157.923 79.5898C158.803 79.7885 159.683 79.8879 160.564 80.1859C161.444 80.3847 162.324 80.6828 163.204 80.9809C164.084 81.2789 164.964 81.4777 165.648 82.4713C165.844 82.5707 165.746 82.7694 165.551 82.9681ZM147.46 70.2496C146.287 70.5477 145.505 70.0509 144.722 69.6535C143.94 69.256 143.06 68.8586 142.278 68.4611C141.495 68.0637 140.713 67.5668 139.931 67.07C139.149 66.5732 138.366 66.1758 137.975 65.0828C137.877 64.884 137.975 64.6853 138.171 64.6853C139.344 64.3872 140.126 64.884 140.909 65.2815C141.691 65.6789 142.571 66.0764 143.353 66.4739C144.136 66.8713 144.918 67.3681 145.7 67.8649C146.482 68.3617 147.265 68.7592 147.656 69.8522C147.754 69.9516 147.656 70.1503 147.46 70.2496ZM171.124 77.8012C169.658 77.5031 168.778 76.6089 167.8 75.814C166.822 75.0191 165.844 74.1248 164.964 73.3299C164.084 72.4356 163.106 71.5414 162.226 70.6471C161.346 69.7528 160.368 68.9579 159.977 67.4675C159.977 67.2688 160.075 67.1694 160.172 67.07H160.27C161.737 67.3681 162.617 68.2624 163.595 69.0573C164.573 69.8522 165.551 70.7465 166.431 71.5414C167.311 72.4356 168.289 73.3299 169.169 74.2242C170.049 75.1184 171.027 75.9133 171.418 77.4038C171.418 77.6025 171.32 77.7019 171.222 77.8012H171.124ZM156.848 66.9707C155.381 66.6726 154.501 65.7783 153.523 64.884C152.545 64.0891 151.665 63.1949 150.687 62.3006C149.807 61.4063 148.927 60.5121 148.047 59.5184C147.167 58.6242 146.189 57.7299 145.896 56.2395C145.896 56.0407 145.994 55.9414 146.091 55.842H146.189C147.656 56.1401 148.536 57.0344 149.514 57.9286C150.492 58.7235 151.372 59.6178 152.35 60.5121C153.23 61.4063 154.11 62.3006 154.99 63.2942C155.87 64.1885 156.848 65.0828 157.141 66.5732C157.141 66.7719 157.043 66.8713 156.945 66.9707H156.848ZM164.279 56.6369C162.91 55.5439 162.226 54.1528 161.541 52.7617C160.759 51.3707 160.075 49.9796 159.39 48.5885C158.706 47.1974 158.021 45.707 157.434 44.3159C156.848 42.8254 156.065 41.4344 156.065 39.7452C156.065 39.5465 156.163 39.4471 156.359 39.4471C156.457 39.4471 156.457 39.4471 156.554 39.5465C157.923 40.6395 158.608 42.0305 159.292 43.4216C160.075 44.8127 160.759 46.2038 161.444 47.5949C162.128 48.986 162.813 50.4764 163.399 51.8675C163.986 53.3579 164.768 54.749 164.768 56.4382C164.768 56.6369 164.671 56.7363 164.475 56.7363C164.377 56.7363 164.279 56.7363 164.279 56.6369ZM173.178 71.3426C172.102 70.349 171.907 69.0573 171.516 67.8649C171.124 66.6726 170.831 65.4802 170.538 64.2879C170.244 63.0955 170.049 61.9031 169.755 60.6114C169.56 59.4191 169.169 58.2267 169.658 56.8356C169.755 56.6369 169.853 56.6369 170.049 56.6369C170.049 56.6369 170.147 56.6369 170.147 56.7363C171.222 57.7299 171.418 59.0216 171.809 60.214C172.2 61.4063 172.493 62.5987 172.787 63.791C173.08 64.9834 173.276 66.1758 173.569 67.4675C173.765 68.6598 174.156 69.8522 173.667 71.2433C173.569 71.442 173.471 71.442 173.276 71.442C173.276 71.3426 173.178 71.3426 173.178 71.3426ZM176.894 49.4828C176.111 48.3898 176.111 47.3961 176.111 46.3031C176.014 45.2102 176.014 44.2165 176.014 43.1235C176.014 42.0305 176.014 41.0369 176.111 39.9439C176.209 38.8509 176.111 37.8573 176.894 36.7643C176.991 36.6649 177.187 36.5656 177.285 36.6649L177.383 36.7643C178.165 37.8573 178.165 38.8509 178.165 39.9439C178.263 41.0369 178.263 42.0305 178.263 43.1235C178.263 44.2165 178.263 45.2102 178.165 46.3031C178.067 47.3961 178.165 48.3898 177.383 49.4828C177.285 49.5821 177.089 49.5821 176.894 49.4828C176.991 49.4828 176.991 49.4828 176.894 49.4828ZM176.307 75.5159C176.014 74.1248 176.503 73.2305 176.894 72.1375C177.285 71.1439 177.676 70.0509 178.165 69.0573L179.632 66.0764C180.121 65.0828 180.512 64.0891 181.685 63.3936C181.783 63.2942 181.979 63.3936 182.076 63.493V63.5923C182.37 64.9834 181.881 65.8777 181.49 66.9707C181.098 67.9643 180.707 69.0573 180.218 70.0509L178.752 73.0318C178.263 74.0254 177.872 75.0191 176.698 75.7146C176.6 75.7146 176.405 75.7146 176.307 75.5159ZM184.619 55.1465C184.228 54.1528 184.521 53.656 184.717 52.9605C184.912 52.3643 185.205 51.6688 185.499 51.0726C185.792 50.4764 186.086 49.8802 186.477 49.284C186.868 48.6879 187.063 48.0917 188.041 47.7936C188.237 47.7936 188.432 47.7936 188.53 47.9923C188.921 48.986 188.628 49.4828 188.432 50.1783C188.237 50.7745 187.943 51.47 187.65 52.0662C187.357 52.6624 187.063 53.2586 186.672 53.8547C186.281 54.4509 186.086 55.0471 185.108 55.3452C184.912 55.4446 184.717 55.3452 184.619 55.1465ZM186.281 65.1821C186.086 63.8904 186.672 63.0955 187.161 62.2012C187.65 61.307 188.041 60.5121 188.628 59.6178C189.117 58.8229 189.704 57.9286 190.29 57.1337C190.877 56.3388 191.268 55.4446 192.442 55.0471C192.637 54.9477 192.833 55.0471 192.833 55.2458V55.3452C193.028 56.6369 192.442 57.4318 191.953 58.3261C191.464 59.2203 191.073 60.0152 190.486 60.9095C189.997 61.7044 189.41 62.5987 188.824 63.3936C188.237 64.1885 187.846 65.0828 186.672 65.4802C186.477 65.4802 186.379 65.3809 186.281 65.1821ZM196.549 56.7363C196.842 55.3452 197.624 54.5503 198.406 53.7554C199.189 52.8611 199.971 52.0662 200.753 51.2713C201.536 50.4764 202.416 49.6815 203.296 48.8866C204.176 48.0917 204.958 47.2968 206.327 46.9987C206.523 46.9987 206.62 47.0981 206.718 47.1974V47.2968C206.425 48.6879 205.643 49.4828 204.86 50.2777C204.078 51.1719 203.296 51.9668 202.513 52.7617C201.731 53.5567 200.851 54.3516 199.971 55.1465C199.091 55.9414 198.309 56.7363 196.94 57.0344C196.744 57.0344 196.646 56.935 196.549 56.8356V56.7363Z" fill="#F283AA"/>
<path d="M225.786 50.377L223.733 46.005L225.786 50.377Z" fill="white"/>
<path d="M225.591 50.3771C225.004 50.1784 224.906 49.8803 224.613 49.4828C224.417 49.1847 224.222 48.7873 224.026 48.3898C223.831 47.9924 223.733 47.6943 223.537 47.2968C223.44 46.8994 223.244 46.6013 223.44 46.0051L223.733 45.9058C224.32 46.1045 224.417 46.4026 224.711 46.8C224.906 47.0981 225.102 47.4956 225.298 47.893C225.493 48.2905 225.591 48.5886 225.786 48.986C225.884 49.3835 226.08 49.6816 225.884 50.2777L225.591 50.3771Z" fill="#F0C930"/>
<path d="M222.559 49.1848L226.862 47.0981L222.559 49.1848Z" fill="white"/>
<path d="M222.559 49.0852C222.755 48.489 223.048 48.3897 223.44 48.0916C223.733 47.8929 224.124 47.6941 224.515 47.4954C224.906 47.2967 225.2 47.1973 225.591 46.9986C225.982 46.8992 226.275 46.7005 226.862 46.8992L226.96 47.1973C226.764 47.7935 226.471 47.8929 226.08 48.191C225.786 48.3897 225.395 48.5884 225.004 48.7871C224.613 48.9859 224.32 49.0852 223.928 49.2839C223.537 49.3833 223.244 49.582 222.657 49.3833L222.559 49.0852Z" fill="#F0C930"/>
<path d="M4.79172 106.02L5.67178 104.331C5.76957 104.033 5.47621 103.735 5.18286 103.834L3.52051 104.828L2.05373 103.437C1.85816 103.238 1.46701 103.437 1.46701 103.735L1.85816 105.722L0.195804 106.617C-0.0975521 106.815 0.000233288 107.213 0.293589 107.213L2.15151 107.411L2.54265 109.498C2.64044 109.796 3.03158 109.896 3.22715 109.597L4.00943 107.71L6.06293 108.008C6.35628 108.008 6.55185 107.61 6.35628 107.411L4.79172 106.02Z" fill="#006088"/>
<path d="M80.0863 4.76941L80.7707 3.47769C80.8685 3.27896 80.673 2.98087 80.3796 3.1796L79.1084 3.87514L78.0328 2.88151C77.8372 2.68278 77.5438 2.88151 77.6416 3.08024L77.935 4.57068L76.6638 5.26622C76.4682 5.36559 76.4682 5.76304 76.7616 5.76304L78.1305 5.8624L78.4239 7.45221C78.4239 7.7503 78.815 7.7503 78.9128 7.55157L79.4995 6.06113L81.0641 6.25985C81.3575 6.25985 81.4552 5.96176 81.2597 5.76304L80.0863 4.76941Z" fill="#F0C930"/>
<path d="M238.303 56.935L239.183 55.1465C239.379 54.8484 238.987 54.5503 238.694 54.6497L236.934 55.6433L235.467 54.2522C235.174 54.0535 234.88 54.2522 234.88 54.5503L235.272 56.5376L233.609 57.5312C233.316 57.7299 233.414 58.1274 233.707 58.2268L235.565 58.4255L235.956 60.5121C236.054 60.8102 236.445 60.9096 236.641 60.6115L237.521 58.6242L239.574 58.9223C239.868 58.9223 240.063 58.5248 239.868 58.3261L238.303 56.935Z" fill="#8C8F94"/>
<path d="M193.126 5.56442L194.691 2.28544C194.984 1.68926 194.397 1.09309 193.811 1.49054L190.682 3.27907L187.944 0.794996C187.455 0.397544 186.77 0.794996 186.868 1.39117L187.552 5.06761L184.423 6.85614C183.837 7.15423 184.032 7.94914 184.717 8.0485L188.139 8.34659L188.824 12.2217C188.921 12.8179 189.801 12.9173 189.997 12.3211L191.562 8.74404L195.375 9.24086C195.962 9.34022 196.353 8.54531 195.864 8.14786L193.126 5.56442ZM137.975 151.529C137.975 150.436 138.171 149.243 138.269 148.15C138.562 146.262 138.953 144.375 139.54 142.487C140.126 140.599 140.811 138.81 141.593 137.022C142.376 135.233 143.256 133.544 144.331 131.855C146.385 128.576 148.829 125.496 151.861 123.012L151.665 122.813C148.438 124.999 145.7 128.079 143.549 131.358C141.398 134.637 139.735 138.313 138.562 142.189C137.975 144.077 137.486 146.064 137.193 148.051C136.997 149.243 136.9 150.436 136.802 151.628H137.975V151.529Z" fill="#006088"/>
<path d="M242.997 111.684C243.807 111.684 244.463 111.017 244.463 110.194C244.463 109.371 243.807 108.703 242.997 108.703C242.187 108.703 241.53 109.371 241.53 110.194C241.53 111.017 242.187 111.684 242.997 111.684Z" fill="#C475BD"/>
<path d="M125.947 147.952C126.73 149.84 128.001 151.628 129.468 153.119C130.348 154.112 131.423 155.007 132.401 155.901H134.455C133.086 154.708 131.619 153.615 130.446 152.324C129.077 150.933 127.903 149.243 127.121 147.554C126.339 145.766 125.85 143.878 125.556 141.99C125.263 140.102 125.067 138.115 125.067 136.227C125.067 134.24 125.165 132.352 125.459 130.365C125.654 128.477 126.045 126.489 126.632 124.601C127.708 120.826 129.272 117.149 131.619 113.87L131.423 113.672C128.783 116.752 126.925 120.528 125.752 124.303C124.578 128.179 123.992 132.153 123.992 136.128C123.992 138.115 124.187 140.102 124.481 142.089C124.676 144.077 125.165 146.064 125.947 147.952ZM110.106 133.942C111.475 137.022 112.355 140.301 112.942 143.58C113.235 145.269 113.431 146.958 113.529 148.647C113.627 150.336 113.627 152.026 113.431 153.715C113.333 154.41 113.235 155.007 113.138 155.702L114.311 156C114.409 155.305 114.604 154.51 114.604 153.814C114.8 152.026 114.8 150.336 114.604 148.548C114.507 146.859 114.213 145.07 113.92 143.381C113.235 140.003 112.355 136.624 110.791 133.445C110.008 131.855 109.226 130.365 108.151 128.973C107.075 127.582 105.901 126.291 104.532 125.396L104.337 125.595C105.608 126.688 106.684 127.98 107.564 129.371C108.737 130.861 109.52 132.352 110.106 133.942V133.942Z" fill="#006088"/>
<path d="M93.1895 145.269L89.6692 137.717L93.1895 145.269Z" fill="white"/>
<path d="M92.8961 145.368C91.9183 145.07 91.6249 144.474 91.3316 143.878C90.9404 143.282 90.6471 142.685 90.3537 142.089C90.0604 141.493 89.767 140.798 89.5714 140.201C89.3759 139.506 88.9847 138.91 89.4736 138.015L89.9626 137.817C90.9404 138.115 91.2338 138.711 91.5271 139.307C91.9183 139.903 92.2116 140.499 92.505 141.096C92.7984 141.692 93.0917 142.387 93.2873 142.984C93.4829 143.679 93.874 144.275 93.3851 145.17L92.8961 145.368Z" fill="#F0C930"/>
<path d="M87.7135 143.281L95.1452 139.704L87.7135 143.281Z" fill="white"/>
<path d="M87.6157 142.984C87.9091 141.99 88.4958 141.692 89.0825 141.394C89.6692 140.996 90.2559 140.698 90.8426 140.4C91.4294 140.102 92.1139 139.804 92.7006 139.605C93.3851 139.407 93.9718 139.009 94.8518 139.506L95.0474 140.003C94.7541 140.996 94.1673 141.294 93.5806 141.593C92.9939 141.99 92.4072 142.288 91.8205 142.586C91.2338 142.884 90.5493 143.182 89.9626 143.381C89.2781 143.58 88.6914 143.977 87.8113 143.48L87.6157 142.984Z" fill="#F0C930"/>
<path d="M9.97411 30.3057C10.7842 30.3057 11.4409 29.6384 11.4409 28.8153C11.4409 27.9921 10.7842 27.3248 9.97411 27.3248C9.16402 27.3248 8.50732 27.9921 8.50732 28.8153C8.50732 29.6384 9.16402 30.3057 9.97411 30.3057Z" fill="#C475BD"/>
<path d="M30.3135 109.796C30.6068 108.504 31.4869 108.008 32.2692 107.312C33.0515 106.617 33.8337 106.02 34.616 105.325C35.3983 104.729 36.2784 104.133 37.0607 103.536C37.9407 102.94 38.723 102.344 39.9942 102.344C40.1898 102.344 40.2876 102.443 40.2876 102.642V102.741C39.9942 104.033 39.1142 104.53 38.3319 105.226C37.5496 105.921 36.7673 106.517 35.985 107.213C35.2027 107.809 34.3227 108.405 33.5404 109.001C32.6603 109.597 31.878 110.194 30.6068 110.194C30.4113 110.194 30.3135 110.094 30.3135 109.796C30.3135 109.896 30.3135 109.896 30.3135 109.796Z" fill="#00A32A"/>
</g>
<defs>
<clipPath id="clip0">
<rect width="244.463" height="156" fill="white"/>
</clipPath>
</defs>
</svg>
