<svg width="446" height="292" viewBox="0 0 446 292" fill="none" xmlns="http://www.w3.org/2000/svg">
<path opacity="0.5" fill-rule="evenodd" clip-rule="evenodd" d="M214 71L214 479L80 479L80 71L80 68L80.0587 68C81.5423 30.1792 110.945 -4.50466e-06 147 -2.92866e-06C183.055 -1.35266e-06 212.458 30.1792 213.941 68L214 68L214 71Z" fill="#BBE0FA"/>
<path opacity="0.5" fill-rule="evenodd" clip-rule="evenodd" d="M115.479 508L115.479 227.422L115.438 227.422C114.426 201.602 94.353 181 69.7395 181C45.126 181 25.0534 201.602 24.0405 227.422L24.0004 227.422L24.0004 229.47L24.0004 508L115.479 508Z" fill="#F2D76B"/>
<path d="M150 303.184V154.5C150 86.2928 198.129 31 257.5 31C316.871 31 365 86.2928 365 154.5V303.184" stroke="#0675C4"/>
<path d="M168.535 298.826V154.5C168.535 98.0526 208.366 52.293 257.501 52.293C306.635 52.293 346.466 98.0526 346.466 154.5V298.826" stroke="#0675C4"/>
<path d="M323.607 304.637V154.5C323.607 112.557 294.01 78.5547 257.501 78.5547C220.991 78.5547 191.395 112.557 191.395 154.5V304.637" stroke="#0675C4"/>
<rect x="0.65625" y="98.6562" width="812.438" height="61.6875" rx="9.84375" fill="#F6F7F7" stroke="white" stroke-width="1.3125"/>
<rect x="138.379" y="111.586" width="652.836" height="34.2516" rx="13.6349" fill="white"/>
<path d="M161.285 127.384H160.936L160.934 125.652C160.933 123.766 159.391 122.232 157.497 122.233C155.602 122.235 154.06 123.769 154.062 125.655L154.064 127.386L153.94 127.387C153.289 127.388 152.76 127.914 152.762 128.562V133.717C152.762 134.365 153.292 134.891 153.943 134.891L161.288 134.887C161.939 134.887 162.468 134.361 162.466 133.712V128.557C162.466 127.909 161.936 127.384 161.285 127.384ZM155.33 127.387L155.328 125.655C155.328 124.464 156.3 123.495 157.497 123.494C158.693 123.494 159.667 124.463 159.667 125.653L159.67 127.384L155.33 127.387Z" fill="#043959"/>
<circle cx="30.4697" cy="130.267" r="5.62989" fill="black" fill-opacity="0.12"/>
<circle cx="52.9893" cy="130.267" r="5.62989" fill="black" fill-opacity="0.12"/>
<circle cx="75.5107" cy="130.267" r="5.62989" fill="black" fill-opacity="0.12"/>
</svg>
