<svg xmlns="http://www.w3.org/2000/svg" width="197" height="100" viewBox="0 0 197 100" fill="none"><style>.a{stroke-width:2;stroke:#0675C4;}.b{fill:#DCDCDE;}</style><rect x="0.5" y="0.5" width="195.1" height="98.2" rx="2.5" stroke="#C3C4C7"/><path d="M22.3 30.5L22.6 30.2 23 30.2 31.5 30.2C31.8 30.2 32 30 32 29.7L32 20.5C32 20.2 31.8 20 31.5 20L19.5 20C19.2 20 19 20.2 19 20.5L19 33.3C19 33.4 19 33.4 19.1 33.5 19.2 33.5 19.3 33.5 19.3 33.4L22.3 30.5Z" class="a"/><path d="M37.7 44L37.4 43.7 37 43.7 28.5 43.7C28.2 43.7 28 43.5 28 43.2L28 34C28 33.7 28.2 33.5 28.5 33.5L40.5 33.5C40.8 33.5 41 33.7 41 34L41 46.8C41 46.9 41 46.9 40.9 47 40.8 47 40.7 47 40.7 46.9L37.7 44Z" class="a"/><rect x="18" y="61.5" width="74.5" height="7.1" class="b"/><rect x="96" y="61.5" width="59" height="7" class="b"/><rect x="18" y="72.5" width="56" height="7" class="b"/><rect x="78" y="72.5" width="32" height="7" class="b"/><rect x="114" y="72.5" width="21" height="7" class="b"/></svg>