<svg width="201" height="114" fill="none" xmlns="http://www.w3.org/2000/svg"><path fill="#fff" stroke="#C3C4C7" d="M.5.5h200v113H.5z"/><rect x="89" y="77" width="103" height="28" rx="4" fill="#3582C4"/><rect x="9.5" y="9.5" width="71" height="95" rx="3.5" fill="#F6F7F7" stroke="#C3C4C7"/><rect x="36.75" y="48.75" width="16.5" height="16.5" rx="1.25" stroke="#A7AAAD" stroke-width="1.5"/><path d="M37 61l4.571-3.333L45 59.889 49 56l4 3.889" stroke="#A7AAAD" stroke-width="1.5" stroke-linejoin="round"/><path fill="#fff" d="M121 87h56v8h-56z"/><path fill="#646970" d="M89 13h72v12H89z"/><path fill="#DCDCDE" d="M89 33h96v8H89zM89 45h40v8H89z"/><rect x="97.001" y="83" width="16" height="16" rx="8" stroke="#fff" stroke-width="1.5"/><path d="M106.75 89.25a.75.75 0 001.5 0h-1.5zm-1.75 1c-.555 0-1.026-.159-1.338-.377-.314-.22-.412-.452-.412-.623h-1.5c0 .795.461 1.438 1.052 1.852.593.415 1.373.648 2.198.648v-1.5zm-1.75-1c0-.171.098-.403.412-.623.312-.218.783-.377 1.338-.377v-1.5c-.825 0-1.605.233-2.198.648-.591.414-1.052 1.057-1.052 1.852h1.5zm1.75-1c.555 0 1.026.159 1.338.377.314.22.412.452.412.623h1.5c0-.795-.461-1.438-1.052-1.852-.593-.415-1.373-.648-2.198-.648v1.5zM103.25 92.75a.75.75 0 00-1.5 0h1.5zm1.75-1c.555 0 1.026.159 1.338.377.314.22.412.452.412.623h1.5c0-.795-.461-1.438-1.052-1.852-.593-.415-1.373-.648-2.198-.648v1.5zm1.75 1c0 .171-.098.403-.412.623-.312.218-.783.377-1.338.377v1.5c.825 0 1.605-.233 2.198-.648.591-.414 1.052-1.057 1.052-1.852h-1.5zm-1.75 1c-.555 0-1.026-.159-1.338-.377-.314-.22-.412-.452-.412-.623h-1.5c0 .795.461 1.438 1.052 1.852.593.415 1.373.648 2.198.648v-1.5z" fill="#fff"/><path d="M105.75 95a.75.75 0 00-1.5 0h1.5zm-1.5.5a.75.75 0 001.5 0h-1.5zm0-.5v.5h1.5V95h-1.5zM105.75 86.5a.75.75 0 00-1.5 0h1.5zm-1.5.5a.75.75 0 001.5 0h-1.5zm0-.5v.5h1.5v-.5h-1.5z" fill="#fff"/></svg>