<svg width="181" height="139" viewBox="0 0 181 139" fill="none" xmlns="http://www.w3.org/2000/svg">
<path d="M173 87.0773C172.999 74.0818 170.109 61.2514 164.542 49.5267C158.975 37.802 150.872 27.4803 140.827 19.3184C130.782 11.1565 119.051 5.36138 106.492 2.35785C93.9334 -0.64568 80.8663 -0.781427 68.2488 1.96056C55.6314 4.70255 43.7834 10.2527 33.5736 18.2042C23.3638 26.1557 15.051 36.3068 9.24482 47.9134C3.43861 59.5199 0.286156 72.2876 0.0185878 85.2803C-0.24898 98.2729 2.37512 111.161 7.6985 123H165.301C170.386 111.717 173.011 99.4676 173 87.0773Z" fill="#E6F2E8"/>
<path d="M2 123H170" stroke="#055d9c" stroke-linecap="round" stroke-linejoin="round"/>
<path d="M174 123H180" stroke="#055d9c" stroke-linecap="round" stroke-linejoin="round"/>
<path d="M91 132C126.898 132 156 131.105 156 130C156 128.895 126.898 128 91 128C55.1015 128 26 128.895 26 130C26 131.105 55.1015 132 91 132Z" fill="#F6F7F7"/>
<rect x="37.5" y="110.5" width="90" height="17" rx="1.5" fill="#F5E6B3" stroke="#DEB100"/>
<line x1="44" y1="114" x2="44" y2="124" stroke="#DEB100" stroke-width="2" stroke-linecap="round"/>
<line x1="51" y1="114" x2="51" y2="124" stroke="#DEB100" stroke-width="2" stroke-linecap="round"/>
<line x1="58" y1="114" x2="58" y2="124" stroke="#DEB100" stroke-width="2" stroke-linecap="round"/>
<line x1="65" y1="114" x2="65" y2="124" stroke="#DEB100" stroke-width="2" stroke-linecap="round"/>
<line x1="72" y1="114" x2="72" y2="124" stroke="#DEB100" stroke-width="2" stroke-linecap="round"/>
<line x1="79" y1="114" x2="79" y2="124" stroke="#DEB100" stroke-width="2" stroke-linecap="round"/>
<line x1="86" y1="114" x2="86" y2="124" stroke="#DEB100" stroke-width="2" stroke-linecap="round"/>
<line x1="93" y1="114" x2="93" y2="124" stroke="#DEB100" stroke-width="2" stroke-linecap="round"/>
<line x1="100" y1="114" x2="100" y2="124" stroke="#DEB100" stroke-width="2" stroke-linecap="round"/>
<line x1="107" y1="114" x2="107" y2="124" stroke="#DEB100" stroke-width="2" stroke-linecap="round"/>
<line x1="114" y1="114" x2="114" y2="124" stroke="#DEB100" stroke-width="2" stroke-linecap="round"/>
<line x1="121" y1="114" x2="121" y2="124" stroke="#DEB100" stroke-width="2" stroke-linecap="round"/>
<rect x="31.5" y="93.5" width="90" height="17" rx="1.5" fill="#F5E6B3" stroke="#DEB100"/>
<line x1="38" y1="97" x2="38" y2="107" stroke="#DEB100" stroke-width="2" stroke-linecap="round"/>
<line x1="45" y1="97" x2="45" y2="107" stroke="#DEB100" stroke-width="2" stroke-linecap="round"/>
<line x1="52" y1="97" x2="52" y2="107" stroke="#DEB100" stroke-width="2" stroke-linecap="round"/>
<line x1="59" y1="97" x2="59" y2="107" stroke="#DEB100" stroke-width="2" stroke-linecap="round"/>
<line x1="66" y1="97" x2="66" y2="107" stroke="#DEB100" stroke-width="2" stroke-linecap="round"/>
<line x1="73" y1="97" x2="73" y2="107" stroke="#DEB100" stroke-width="2" stroke-linecap="round"/>
<line x1="80" y1="97" x2="80" y2="107" stroke="#DEB100" stroke-width="2" stroke-linecap="round"/>
<line x1="87" y1="97" x2="87" y2="107" stroke="#DEB100" stroke-width="2" stroke-linecap="round"/>
<line x1="94" y1="97" x2="94" y2="107" stroke="#DEB100" stroke-width="2" stroke-linecap="round"/>
<line x1="101" y1="97" x2="101" y2="107" stroke="#DEB100" stroke-width="2" stroke-linecap="round"/>
<line x1="108" y1="97" x2="108" y2="107" stroke="#DEB100" stroke-width="2" stroke-linecap="round"/>
<line x1="115" y1="97" x2="115" y2="107" stroke="#DEB100" stroke-width="2" stroke-linecap="round"/>
<rect x="33.5" y="76.5" width="90" height="17" rx="1.5" fill="#F5E6B3" stroke="#DEB100"/>
<line x1="40" y1="80" x2="40" y2="90" stroke="#DEB100" stroke-width="2" stroke-linecap="round"/>
<line x1="47" y1="80" x2="47" y2="90" stroke="#DEB100" stroke-width="2" stroke-linecap="round"/>
<line x1="54" y1="80" x2="54" y2="90" stroke="#DEB100" stroke-width="2" stroke-linecap="round"/>
<line x1="61" y1="80" x2="61" y2="90" stroke="#DEB100" stroke-width="2" stroke-linecap="round"/>
<line x1="68" y1="80" x2="68" y2="90" stroke="#DEB100" stroke-width="2" stroke-linecap="round"/>
<line x1="75" y1="80" x2="75" y2="90" stroke="#DEB100" stroke-width="2" stroke-linecap="round"/>
<line x1="82" y1="80" x2="82" y2="90" stroke="#DEB100" stroke-width="2" stroke-linecap="round"/>
<line x1="89" y1="80" x2="89" y2="90" stroke="#DEB100" stroke-width="2" stroke-linecap="round"/>
<line x1="96" y1="80" x2="96" y2="90" stroke="#DEB100" stroke-width="2" stroke-linecap="round"/>
<line x1="103" y1="80" x2="103" y2="90" stroke="#DEB100" stroke-width="2" stroke-linecap="round"/>
<line x1="110" y1="80" x2="110" y2="90" stroke="#DEB100" stroke-width="2" stroke-linecap="round"/>
<line x1="117" y1="80" x2="117" y2="90" stroke="#DEB100" stroke-width="2" stroke-linecap="round"/>
<rect x="23.5" y="59.5" width="90" height="17" rx="1.5" fill="#F5E6B3" stroke="#DEB100"/>
<line x1="30" y1="63" x2="30" y2="73" stroke="#DEB100" stroke-width="2" stroke-linecap="round"/>
<line x1="37" y1="63" x2="37" y2="73" stroke="#DEB100" stroke-width="2" stroke-linecap="round"/>
<line x1="44" y1="63" x2="44" y2="73" stroke="#DEB100" stroke-width="2" stroke-linecap="round"/>
<line x1="51" y1="63" x2="51" y2="73" stroke="#DEB100" stroke-width="2" stroke-linecap="round"/>
<line x1="58" y1="63" x2="58" y2="73" stroke="#DEB100" stroke-width="2" stroke-linecap="round"/>
<line x1="65" y1="63" x2="65" y2="73" stroke="#DEB100" stroke-width="2" stroke-linecap="round"/>
<line x1="72" y1="63" x2="72" y2="73" stroke="#DEB100" stroke-width="2" stroke-linecap="round"/>
<line x1="79" y1="63" x2="79" y2="73" stroke="#DEB100" stroke-width="2" stroke-linecap="round"/>
<line x1="86" y1="63" x2="86" y2="73" stroke="#DEB100" stroke-width="2" stroke-linecap="round"/>
<line x1="93" y1="63" x2="93" y2="73" stroke="#DEB100" stroke-width="2" stroke-linecap="round"/>
<line x1="100" y1="63" x2="100" y2="73" stroke="#DEB100" stroke-width="2" stroke-linecap="round"/>
<line x1="107" y1="63" x2="107" y2="73" stroke="#DEB100" stroke-width="2" stroke-linecap="round"/>
<path d="M105.703 46.3229L106.816 45.6825L149.82 120.321L148.804 120.92C147.919 121.442 146.703 122.158 145.385 122.934C142.748 124.485 139.701 126.274 138.054 127.225C132.914 130.192 125.817 128.896 118.396 124.132C111 119.383 103.415 111.263 97.423 100.884C91.431 90.5057 88.1907 79.8771 87.7766 71.0975C87.3612 62.2891 89.7873 55.4945 94.927 52.5271C96.2752 51.7487 99.3556 49.9754 102.099 48.3964C103.471 47.607 104.759 46.8663 105.703 46.3229Z" fill="#F2D76B" stroke="#DEB100"/>
<line x1="100.369" y1="99.3849" x2="105.166" y2="96.6307" stroke="#DEB100" stroke-width="2" stroke-linecap="round"/>
<line x1="97.3693" y1="92.3849" x2="102.166" y2="89.6307" stroke="#DEB100" stroke-width="2" stroke-linecap="round"/>
<line x1="94.3693" y1="85.3849" x2="99.1659" y2="82.6307" stroke="#DEB100" stroke-width="2" stroke-linecap="round"/>
<line x1="92.3693" y1="78.3849" x2="97.1659" y2="75.6307" stroke="#DEB100" stroke-width="2" stroke-linecap="round"/>
<line x1="91.3693" y1="71.3849" x2="96.1659" y2="68.6307" stroke="#DEB100" stroke-width="2" stroke-linecap="round"/>
<line x1="91.3693" y1="64.3849" x2="96.1659" y2="61.6307" stroke="#DEB100" stroke-width="2" stroke-linecap="round"/>
<line x1="93.3693" y1="57.3849" x2="98.1659" y2="54.6307" stroke="#DEB100" stroke-width="2" stroke-linecap="round"/>
<line x1="105.369" y1="106.385" x2="110.166" y2="103.631" stroke="#DEB100" stroke-width="2" stroke-linecap="round"/>
<line x1="110.369" y1="112.385" x2="115.166" y2="109.631" stroke="#DEB100" stroke-width="2" stroke-linecap="round"/>
<line x1="115.369" y1="117.385" x2="120.166" y2="114.631" stroke="#DEB100" stroke-width="2" stroke-linecap="round"/>
<line x1="120.369" y1="121.385" x2="125.166" y2="118.631" stroke="#DEB100" stroke-width="2" stroke-linecap="round"/>
<line x1="126.369" y1="124.385" x2="131.166" y2="121.631" stroke="#DEB100" stroke-width="2" stroke-linecap="round"/>
<line x1="132.369" y1="126.385" x2="137.166" y2="123.631" stroke="#DEB100" stroke-width="2" stroke-linecap="round"/>
<path d="M147.557 71.8673C153.55 82.2459 156.79 92.8745 157.204 101.654C157.619 110.462 155.193 117.257 150.054 120.225C144.914 123.192 137.817 121.896 130.396 117.132C123 112.383 115.415 104.263 109.423 93.8843C103.431 83.5057 100.191 72.8771 99.7766 64.0975C99.3612 55.2891 101.787 48.4945 106.927 45.5271C112.067 42.5597 119.164 43.8559 126.585 48.6199C133.981 53.3683 141.565 61.4888 147.557 71.8673Z" fill="#F5E6B3" stroke="#DEB100"/>
<line x1="126.123" y1="60.2928" x2="115.759" y2="81.0209" stroke="white" stroke-width="2" stroke-linecap="round"/>
<line x1="126.123" y1="77.181" x2="118.573" y2="92.2799" stroke="white" stroke-width="2" stroke-linecap="round"/>
</svg>
