<svg width="225" height="134" viewBox="0 0 225 134" fill="none" xmlns="http://www.w3.org/2000/svg">
<path d="M32.2578 119.136V129H33.4883V125.479H35.9697C37.8223 125.479 39.1416 124.174 39.1416 122.328C39.1416 120.448 37.8496 119.136 35.9834 119.136H32.2578ZM33.4883 120.229H35.6621C37.0908 120.229 37.877 120.975 37.877 122.328C37.877 123.634 37.0635 124.386 35.6621 124.386H33.4883V120.229ZM43.8311 129.13C45.9297 129.13 47.2285 127.681 47.2285 125.315C47.2285 122.943 45.9297 121.501 43.8311 121.501C41.7324 121.501 40.4336 122.943 40.4336 125.315C40.4336 127.681 41.7324 129.13 43.8311 129.13ZM43.8311 128.07C42.4365 128.07 41.6504 127.059 41.6504 125.315C41.6504 123.565 42.4365 122.561 43.8311 122.561C45.2256 122.561 46.0117 123.565 46.0117 125.315C46.0117 127.059 45.2256 128.07 43.8311 128.07ZM58.0703 121.631H56.8877L55.4385 127.523H55.3291L53.6816 121.631H52.5537L50.9062 127.523H50.7969L49.3477 121.631H48.1582L50.2227 129H51.4121L53.0527 123.299H53.1621L54.8096 129H56.0059L58.0703 121.631ZM62.3086 122.54C63.4775 122.54 64.2568 123.401 64.2842 124.707H60.2236C60.3125 123.401 61.1328 122.54 62.3086 122.54ZM64.25 127.093C63.9424 127.742 63.2998 128.091 62.3496 128.091C61.0986 128.091 60.2852 127.168 60.2236 125.712V125.657H65.5215V125.206C65.5215 122.916 64.3115 121.501 62.3223 121.501C60.2988 121.501 59 123.005 59 125.322C59 127.653 60.2783 129.13 62.3223 129.13C63.9355 129.13 65.0703 128.357 65.4258 127.093H64.25ZM67.3672 129H68.543V124.434C68.543 123.395 69.3564 122.643 70.4775 122.643C70.71 122.643 71.1338 122.684 71.2295 122.711V121.535C71.0791 121.515 70.833 121.501 70.6416 121.501C69.6641 121.501 68.8164 122.007 68.5977 122.725H68.4883V121.631H67.3672V129ZM75.4336 122.54C76.6025 122.54 77.3818 123.401 77.4092 124.707H73.3486C73.4375 123.401 74.2578 122.54 75.4336 122.54ZM77.375 127.093C77.0674 127.742 76.4248 128.091 75.4746 128.091C74.2236 128.091 73.4102 127.168 73.3486 125.712V125.657H78.6465V125.206C78.6465 122.916 77.4365 121.501 75.4473 121.501C73.4238 121.501 72.125 123.005 72.125 125.322C72.125 127.653 73.4033 129.13 75.4473 129.13C77.0605 129.13 78.1953 128.357 78.5508 127.093H77.375ZM83.2197 129.13C84.2383 129.13 85.1133 128.645 85.5781 127.824H85.6875V129H86.8086V118.705H85.6328V122.793H85.5303C85.1133 121.986 84.2451 121.501 83.2197 121.501C81.3467 121.501 80.123 123.005 80.123 125.315C80.123 127.633 81.333 129.13 83.2197 129.13ZM83.4932 122.561C84.8262 122.561 85.6602 123.627 85.6602 125.315C85.6602 127.018 84.833 128.07 83.4932 128.07C82.1465 128.07 81.3398 127.038 81.3398 125.315C81.3398 123.6 82.1533 122.561 83.4932 122.561ZM96.707 129.13C98.5732 129.13 99.7969 127.619 99.7969 125.315C99.7969 122.998 98.5801 121.501 96.707 121.501C95.6953 121.501 94.7998 122 94.3965 122.793H94.2871V118.705H93.1113V129H94.2324V127.824H94.3418C94.8066 128.645 95.6816 129.13 96.707 129.13ZM96.4336 122.561C97.7803 122.561 98.5801 123.593 98.5801 125.315C98.5801 127.038 97.7803 128.07 96.4336 128.07C95.0938 128.07 94.2598 127.018 94.2598 125.315C94.2598 123.613 95.0938 122.561 96.4336 122.561ZM101.998 131.666C103.304 131.666 103.892 131.16 104.521 129.451L107.398 121.631H106.147L104.131 127.694H104.021L101.998 121.631H100.727L103.454 129.007L103.317 129.444C103.01 130.333 102.641 130.654 101.964 130.654C101.8 130.654 101.615 130.647 101.472 130.62V131.625C101.636 131.652 101.841 131.666 101.998 131.666Z" fill="black"/>
<g clip-path="url(#clip0)">
<path d="M135.5 117.212C135.5 116.879 135.136 116.657 134.814 116.792L125.551 120.685C125.376 120.759 125.263 120.923 125.263 121.104V132.54C125.263 132.882 125.644 133.104 125.968 132.951L131.818 130.194C131.983 130.116 132.088 129.957 132.088 129.783V123.618L135.254 121.912C135.4 121.834 135.492 121.691 135.499 121.535L135.5 121.513V117.212ZM134.525 117.92V121.247L131.358 122.952C131.213 123.031 131.121 123.173 131.113 123.33L131.113 123.351V129.5L126.238 131.797V121.403L134.525 117.92ZM116.976 116C116.287 116 115.918 116.581 116.015 117.096C116.005 117.132 116 117.171 116 117.212V121.513L116.001 121.535C116.008 121.691 116.1 121.834 116.246 121.912L119.413 123.618V129.783C119.413 129.957 119.517 130.116 119.682 130.194L125.532 132.951C125.856 133.104 126.238 132.882 126.238 132.54V121.396L134.92 117.759C135.872 117.36 135.583 116.027 134.555 116L134.524 116H116.976ZM116.975 117.924L120.309 119.321L125.263 121.403V131.797L120.388 129.499V123.351L120.387 123.33C120.379 123.173 120.287 123.03 120.142 122.952L116.975 121.247V117.924ZM116.988 116.919H134.524L125.75 120.595L120.715 118.485L116.988 116.919ZM116.195 116.919H116V117.286H116.195V116.919ZM135.5 116.919H135.305V117.286H135.5V116.919Z" fill="black"/>
<path d="M145.996 129.784V118.278H150.863C150.971 118.278 151.058 118.196 151.058 118.095V117.286C151.058 117.185 150.971 117.103 150.863 117.103H139.79C139.682 117.103 139.595 117.185 139.595 117.286V118.095C139.595 118.196 139.682 118.278 139.79 118.278H144.639V129.784C144.639 129.885 144.726 129.967 144.834 129.967H145.801C145.909 129.967 145.996 129.885 145.996 129.784ZM154.337 129.784V117.286C154.337 117.185 154.25 117.103 154.142 117.103H153.167C153.059 117.103 152.972 117.185 152.972 117.286V129.784C152.972 129.885 153.059 129.967 153.167 129.967H154.142C154.25 129.967 154.337 129.885 154.337 129.784ZM162.649 129.967V118.277H167.516C167.624 118.277 167.711 118.195 167.711 118.093V117.286C167.711 117.185 167.624 117.103 167.516 117.103H156.443C156.335 117.103 156.248 117.185 156.248 117.286V118.093C156.248 118.195 156.335 118.277 156.443 118.277H161.292V129.784C161.292 129.885 161.379 129.967 161.487 129.967H162.649ZM174.068 117.103L181.029 129.917C181.035 129.927 181.038 129.939 181.038 129.95C181.038 129.96 181.029 129.967 181.019 129.967H179.691C179.617 129.967 179.549 129.928 179.516 129.866L178.103 127.199H169.703L168.235 129.868C168.201 129.929 168.135 129.967 168.062 129.967H166.732C166.721 129.967 166.713 129.96 166.713 129.95C166.713 129.939 166.716 129.927 166.722 129.917L173.921 117.103H174.068ZM173.976 119.383L170.363 125.981H177.461L173.976 119.383ZM193.952 129.967V117.338C193.952 117.237 193.865 117.154 193.757 117.154H192.79C192.682 117.154 192.595 117.237 192.595 117.338V127.145L183.204 117.103H183.002V129.697C183.002 129.799 183.089 129.881 183.197 129.881H184.146C184.254 129.881 184.341 129.799 184.341 129.697V119.908L193.768 129.967H193.952Z" fill="black"/>
</g>
<mask id="mask0" mask-type="alpha" maskUnits="userSpaceOnUse" x="1" y="0" width="224" height="90">
<path d="M1 0H225V90H1V0Z" fill="#C3C4C7"/>
</mask>
<g mask="url(#mask0)">
<path d="M101 161C145.183 161 181 125.183 181 81C181 36.8172 145.183 1 101 1C56.8172 1 21 36.8172 21 81C21 125.183 56.8172 161 101 161Z" fill="#E6F2E8"/>
<path d="M7 89H0M13 89H210H13Z" stroke="#101517"/>
<path d="M185 21.5H98C94.9624 21.5 92.5 23.9624 92.5 27V84C92.5 87.0376 94.9624 89.5 98 89.5H185C188.038 89.5 190.5 87.0376 190.5 84V27C190.5 23.9624 188.038 21.5 185 21.5Z" fill="white" stroke="#1D2327"/>
<path d="M191 28L153.5 56.414C149.167 59.12 138.4 62.909 130 56.414M92 28L130 57L92 28Z" stroke="#101517"/>
<path d="M141.5 71.5C148.127 71.5 153.5 66.1274 153.5 59.5C153.5 52.8726 148.127 47.5 141.5 47.5C134.873 47.5 129.5 52.8726 129.5 59.5C129.5 66.1274 134.873 71.5 141.5 71.5Z" fill="white" stroke="#1D2327"/>
<path d="M137.728 59.72C137.728 59.23 137.819 58.77 138 58.344C138.192 57.907 138.448 57.528 138.768 57.208C139.088 56.878 139.456 56.616 139.872 56.424C140.299 56.232 140.752 56.136 141.232 56.136C141.552 56.136 141.845 56.179 142.112 56.264C142.379 56.339 142.608 56.434 142.8 56.552C142.992 56.669 143.147 56.792 143.264 56.92C143.381 57.048 143.461 57.16 143.504 57.256L143.568 56.312H144.88V61.72H145.36C145.499 61.72 145.659 61.677 145.84 61.592C146.052 61.491 146.238 61.3433 146.384 61.16C146.571 60.9155 146.712 60.639 146.8 60.344C146.917 60.003 146.976 59.581 146.976 59.08C146.976 58.461 146.864 57.859 146.64 57.272C146.426 56.684 146.088 56.1492 145.648 55.704C145.211 55.245 144.661 54.877 144 54.6C143.349 54.323 142.592 54.184 141.728 54.184C140.725 54.184 139.861 54.36 139.136 54.712C138.448 55.0256 137.833 55.4777 137.328 56.04C136.865 56.562 136.512 57.1713 136.288 57.832C136.071 58.4546 135.957 59.1086 135.952 59.768C135.952 60.525 136.096 61.235 136.384 61.896C136.665 62.5469 137.067 63.1386 137.568 63.64C138.081 64.142 138.683 64.5435 139.344 64.824C140.027 65.1142 140.762 65.2612 141.504 65.256C142.123 65.256 142.72 65.16 143.296 64.968C143.861 64.7816 144.395 64.512 144.88 64.168L145.68 65.112C145.096 65.6021 144.414 65.9621 143.68 66.168C142.95 66.3969 142.189 66.5155 141.424 66.52C140.516 66.5241 139.617 66.3388 138.784 65.976C137.977 65.6337 137.244 65.1393 136.624 64.52C136.009 63.9022 135.516 63.175 135.168 62.376C134.804 61.5381 134.619 60.6335 134.624 59.72C134.624 58.877 134.779 58.05 135.088 57.24C135.392 56.4268 135.855 55.6818 136.448 55.048C137.056 54.398 137.803 53.875 138.688 53.48C139.584 53.085 140.613 52.888 141.776 52.888C142.843 52.888 143.781 53.064 144.592 53.416C145.403 53.768 146.085 54.232 146.64 54.808C147.19 55.3753 147.615 56.051 147.888 56.792C148.176 57.528 148.32 58.285 148.32 59.064C148.32 59.683 148.245 60.237 148.096 60.728C147.967 61.179 147.755 61.6022 147.472 61.976C147.217 62.2974 146.895 62.5595 146.528 62.744C146.163 62.9152 145.764 63.0027 145.36 63H143.504V62.152C143.43 62.2623 143.344 62.3642 143.248 62.456C143.11 62.5889 142.953 62.7019 142.784 62.792C142.603 62.888 142.384 62.973 142.128 63.048C141.841 63.1267 141.545 63.1644 141.248 63.16C140.76 63.1647 140.276 63.0722 139.824 62.888C139.413 62.707 139.039 62.4521 138.72 62.136C138.41 61.8153 138.161 61.4413 137.984 61.032C137.813 60.6158 137.726 60.1699 137.728 59.72ZM139.104 59.64C139.104 59.95 139.157 60.237 139.264 60.504C139.381 60.771 139.536 61 139.728 61.192C139.92 61.384 140.149 61.539 140.416 61.656C140.683 61.763 140.976 61.816 141.296 61.816C141.616 61.816 141.909 61.763 142.176 61.656C142.437 61.5512 142.675 61.3954 142.876 61.1976C143.077 60.9998 143.236 60.764 143.344 60.504C143.452 60.229 143.507 59.9356 143.504 59.64C143.504 59.33 143.451 59.048 143.344 58.792C143.242 58.5315 143.083 58.2966 142.88 58.104C142.68 57.9067 142.44 57.754 142.176 57.656C141.898 57.5365 141.598 57.4765 141.296 57.48C140.976 57.48 140.683 57.539 140.416 57.656C140.158 57.7567 139.924 57.9091 139.728 58.104C139.532 58.3022 139.374 58.5356 139.264 58.792C139.157 59.048 139.104 59.331 139.104 59.64Z" fill="#399CE3"/>
</g>
<defs>
<clipPath id="clip0">
<rect width="78" height="17" fill="white" transform="translate(116 116)"/>
</clipPath>
</defs>
</svg>
