<svg width="281" height="129" viewBox="0 0 281 129" fill="none" xmlns="http://www.w3.org/2000/svg">
<rect x="4.5" y="0.5" width="276" height="111" fill="white" stroke="#C3C4C7"/>
<rect x="225.5" y="40.5" width="47" height="47" rx="3.5" fill="white" stroke="#DCDCDE"/>
<rect x="169.5" y="40.5" width="47" height="47" rx="3.5" fill="white" stroke="#DCDCDE"/>
<rect x="113.5" y="40.5" width="47" height="47" rx="3.5" fill="white" stroke="#DCDCDE"/>
<mask id="mask0" mask-type="alpha" maskUnits="userSpaceOnUse" x="225" y="96" width="48" height="15">
<rect x="225.5" y="96.5" width="47" height="14" fill="white" stroke="#DCDCDE"/>
</mask>
<g mask="url(#mask0)">
<rect x="225.5" y="96.5" width="47" height="47" rx="3.5" fill="white" stroke="#DCDCDE"/>
</g>
<mask id="mask1" mask-type="alpha" maskUnits="userSpaceOnUse" x="169" y="96" width="48" height="15">
<rect x="169.5" y="96.5" width="47" height="14" fill="white" stroke="#DCDCDE"/>
</mask>
<g mask="url(#mask1)">
<rect x="169.5" y="96.5" width="47" height="47" rx="3.5" fill="white" stroke="#DCDCDE"/>
</g>
<mask id="mask2" mask-type="alpha" maskUnits="userSpaceOnUse" x="113" y="96" width="48" height="15">
<rect x="113.5" y="96.5" width="47" height="14" fill="white" stroke="#DCDCDE"/>
</mask>
<g mask="url(#mask2)">
<rect x="113.5" y="96.5" width="47" height="47" rx="3.5" fill="white" stroke="#DCDCDE"/>
</g>
<rect x="60" y="10" width="32" height="12" fill="#DCDCDE"/>
<line x1="52.5" y1="2.18556e-08" x2="52.5" y2="32" stroke="#C3C4C7"/>
<line x1="5" y1="31.5" x2="280" y2="31.5" stroke="#C3C4C7"/>
<rect x="100" y="10" width="64" height="12" fill="#DCDCDE"/>
<rect x="172" y="10" width="48" height="12" fill="#DCDCDE"/>
<mask id="mask3" mask-type="alpha" maskUnits="userSpaceOnUse" x="14" y="10" width="12" height="12">
<path fill-rule="evenodd" clip-rule="evenodd" d="M25.3334 12V20C25.3334 20.7364 24.7365 21.3333 24.0001 21.3333H16.0001C15.2637 21.3333 14.6667 20.7364 14.6667 20V12C14.6667 11.2636 15.2637 10.6667 16.0001 10.6667H24.0001C24.7365 10.6667 25.3334 11.2636 25.3334 12ZM24.0001 12H16.0001V16.2533L17.4601 14.7933L20.9467 18.28L21.6134 17.6133C22.0331 17.2777 22.6376 17.3092 23.0201 17.6867L24.0001 18.6667V12ZM21.6667 13.3333C21.1145 13.3333 20.6667 13.7811 20.6667 14.3333C20.6667 14.8856 21.1145 15.3333 21.6667 15.3333C22.219 15.3333 22.6667 14.8856 22.6667 14.3333C22.6667 13.7811 22.219 13.3333 21.6667 13.3333Z" fill="white"/>
</mask>
<g mask="url(#mask3)">
<rect x="12" y="8" width="16" height="16" fill="#50575E"/>
</g>
<path fill-rule="evenodd" clip-rule="evenodd" d="M42 14.5L38 18.5L34 14.5L34.707 13.793L38 17.086L41.293 13.793" fill="#12181E"/>
<mask id="mask4" mask-type="alpha" maskUnits="userSpaceOnUse" x="34" y="13" width="8" height="6">
<path fill-rule="evenodd" clip-rule="evenodd" d="M42 14.5L38 18.5L34 14.5L34.707 13.793L38 17.086L41.293 13.793" fill="white"/>
</mask>
<g mask="url(#mask4)">
<rect x="32" y="10" width="12" height="12" fill="#8E9196"/>
</g>
<mask id="path-24-inside-1" fill="white">
<path fill-rule="evenodd" clip-rule="evenodd" d="M24.8903 36L17 28.1097L9.10971 36H4C1.79086 36 0 37.7909 0 40V125C0 127.209 1.79086 129 4 129H136C138.209 129 140 127.209 140 125V40C140 37.7909 138.209 36 136 36H24.8903Z"/>
</mask>
<path fill-rule="evenodd" clip-rule="evenodd" d="M24.8903 36L17 28.1097L9.10971 36H4C1.79086 36 0 37.7909 0 40V125C0 127.209 1.79086 129 4 129H136C138.209 129 140 127.209 140 125V40C140 37.7909 138.209 36 136 36H24.8903Z" fill="white"/>
<path d="M17 28.1097L17.7071 27.4026L17 26.6955L16.2929 27.4026L17 28.1097ZM24.8903 36L24.1832 36.7071L24.4761 37H24.8903V36ZM9.10971 36V37H9.52392L9.81682 36.7071L9.10971 36ZM16.2929 28.8168L24.1832 36.7071L25.5974 35.2929L17.7071 27.4026L16.2929 28.8168ZM9.81682 36.7071L17.7071 28.8168L16.2929 27.4026L8.4026 35.2929L9.81682 36.7071ZM4 37H9.10971V35H4V37ZM1 40C1 38.3431 2.34315 37 4 37V35C1.23858 35 -1 37.2386 -1 40H1ZM1 125V40H-1V125H1ZM4 128C2.34315 128 1 126.657 1 125H-1C-1 127.761 1.23858 130 4 130V128ZM136 128H4V130H136V128ZM139 125C139 126.657 137.657 128 136 128V130C138.761 130 141 127.761 141 125H139ZM139 40V125H141V40H139ZM136 37C137.657 37 139 38.3431 139 40H141C141 37.2386 138.761 35 136 35V37ZM24.8903 37H136V35H24.8903V37Z" fill="#C3C4C7" mask="url(#path-24-inside-1)"/>
<rect y="97" width="140" height="24" fill="#3971AC"/>
<rect x="40" y="53" width="52" height="8" fill="#646970"/>
<rect x="40" y="77" width="84" height="8" fill="#646970"/>
<rect x="40" y="105" width="64" height="8" fill="white"/>
<path d="M24 77.7692L21 75V80.0769L22 81H24V77.7692Z" fill="#50575E"/>
<path d="M24.2308 85L27 82L21.9231 82L21 83L21 85L24.2308 85Z" fill="#50575E"/>
<path d="M17 85.2308L20 88L20 82.9231L19 82L17 82L17 85.2308Z" fill="#50575E"/>
<path d="M16.7692 78L14 81L19.0769 81L20 80L20 78L16.7692 78Z" fill="#50575E"/>
<mask id="mask5" mask-type="alpha" maskUnits="userSpaceOnUse" x="14" y="51" width="12" height="11">
<path fill-rule="evenodd" clip-rule="evenodd" d="M25.3334 52.4396V60.4396C25.3334 61.176 24.7365 61.7729 24.0001 61.7729H16.0001C15.2637 61.7729 14.6667 61.176 14.6667 60.4396V52.4396C14.6667 51.7032 15.2637 51.1063 16.0001 51.1063H24.0001C24.7365 51.1063 25.3334 51.7032 25.3334 52.4396ZM24.0001 52.4396H16.0001V56.6929L17.4601 55.2329L20.9467 58.7196L21.6134 58.0529C22.0331 57.7173 22.6376 57.7488 23.0201 58.1263L24.0001 59.1063V52.4396ZM21.6667 53.7729C21.1145 53.7729 20.6667 54.2207 20.6667 54.7729C20.6667 55.3252 21.1145 55.7729 21.6667 55.7729C22.219 55.7729 22.6667 55.3252 22.6667 54.7729C22.6667 54.2207 22.219 53.7729 21.6667 53.7729Z" fill="white"/>
</mask>
<g mask="url(#mask5)">
<rect x="12" y="48.4396" width="16" height="16" fill="#50575E"/>
</g>
<path fill-rule="evenodd" clip-rule="evenodd" d="M21.9999 106C21.9999 105.448 22.4479 105 22.9999 105C23.5519 105 23.9999 105.448 23.9999 106C23.9999 106.552 23.5519 107 22.9999 107C22.4479 107 21.9999 106.552 21.9999 106V106ZM14.6666 114.333H23.9999C23.9999 115.07 23.4033 115.667 22.6666 115.667H14.6666C13.9333 115.667 13.3333 115.067 13.3333 114.333V106.333C13.3333 105.597 13.9299 105 14.6666 105V114.333V114.333ZM26.6666 103.667V111.667C26.6666 112.403 26.0699 113 25.3333 113H17.3333C16.5966 113 15.9999 112.403 15.9999 111.667V103.667C15.9999 102.93 16.5966 102.333 17.3333 102.333H25.3333C26.0699 102.333 26.6666 102.93 26.6666 103.667V103.667ZM17.3333 103.667V107.69L19.3331 105.573L22.5695 109L23.0068 108.536C23.5374 107.973 24.462 107.973 24.9913 108.536L25.3333 108.898V103.667H17.3333V103.667Z" fill="#12181E"/>
<mask id="mask6" mask-type="alpha" maskUnits="userSpaceOnUse" x="13" y="102" width="14" height="14">
<path fill-rule="evenodd" clip-rule="evenodd" d="M21.9999 106C21.9999 105.448 22.4479 105 22.9999 105C23.5519 105 23.9999 105.448 23.9999 106C23.9999 106.552 23.5519 107 22.9999 107C22.4479 107 21.9999 106.552 21.9999 106V106ZM14.6666 114.333H23.9999C23.9999 115.07 23.4033 115.667 22.6666 115.667H14.6666C13.9333 115.667 13.3333 115.067 13.3333 114.333V106.333C13.3333 105.597 13.9299 105 14.6666 105V114.333V114.333ZM26.6666 103.667V111.667C26.6666 112.403 26.0699 113 25.3333 113H17.3333C16.5966 113 15.9999 112.403 15.9999 111.667V103.667C15.9999 102.93 16.5966 102.333 17.3333 102.333H25.3333C26.0699 102.333 26.6666 102.93 26.6666 103.667V103.667ZM17.3333 103.667V107.69L19.3331 105.573L22.5695 109L23.0068 108.536C23.5374 107.973 24.462 107.973 24.9913 108.536L25.3333 108.898V103.667H17.3333V103.667Z" fill="white"/>
</mask>
<g mask="url(#mask6)">
<rect x="12" y="101" width="16" height="16" fill="white"/>
</g>
</svg>
