<svg width="368" height="256" viewBox="0 0 368 256" fill="none" xmlns="http://www.w3.org/2000/svg">
<path d="M84.843 36.434C74.311 36.434 65.736 45.009 65.736 55.54C65.736 66.072 74.311 74.647 84.843 74.647C95.374 74.647 103.949 66.072 103.949 55.54C103.949 45.009 95.374 36.434 84.843 36.434ZM67.67 55.54C67.67 53.047 68.206 50.694 69.161 48.55L77.363 71.012C71.608 68.216 67.67 62.344 67.67 55.54ZM84.843 72.713C83.165 72.713 81.534 72.457 79.996 72.014L85.145 57.032L90.435 71.501C90.458 71.595 90.505 71.665 90.551 71.734C88.757 72.364 86.846 72.713 84.843 72.713ZM87.219 47.478C88.244 47.432 89.176 47.315 89.176 47.315C90.108 47.199 89.992 45.847 89.06 45.894C89.06 45.894 86.287 46.104 84.47 46.104C82.792 46.104 79.949 45.894 79.949 45.894C79.017 45.847 78.924 47.245 79.833 47.315C79.833 47.315 80.718 47.432 81.627 47.478L84.307 54.818L80.555 66.096L74.311 47.478C75.336 47.432 76.268 47.315 76.268 47.315C77.2 47.199 77.083 45.847 76.151 45.894C76.151 45.894 73.379 46.104 71.585 46.104C71.258 46.104 70.885 46.104 70.489 46.08C73.565 41.444 78.831 38.368 84.843 38.368C89.316 38.368 93.394 40.069 96.446 42.888C96.376 42.888 96.306 42.865 96.213 42.865C94.536 42.865 93.324 44.333 93.324 45.917C93.324 47.339 94.139 48.527 95.002 49.948C95.654 51.09 96.423 52.558 96.423 54.678C96.423 56.146 95.98 58.01 95.118 60.224L93.394 65.956L87.219 47.478ZM93.487 70.383L98.73 55.214C99.708 52.768 100.035 50.81 100.035 49.063C100.035 48.434 99.988 47.851 99.918 47.292C101.269 49.739 102.015 52.535 102.015 55.54C102.015 61.878 98.59 67.4 93.487 70.383Z" fill="black"/>
<path d="M234.851 56.24C234.851 55.214 235.97 54.818 237.158 54.818C239.092 54.818 240.933 55.424 240.933 55.424V52.628C239.675 52.255 238.393 52.115 236.902 52.115C233.64 52.115 231.356 53.653 231.356 56.17C231.356 61.039 238.09 59.805 238.09 62.158C238.09 63.323 237.042 63.649 235.504 63.649C234.409 63.649 232.684 63.23 231.426 62.787V65.56C232.475 65.979 233.943 66.352 235.387 66.352C238.556 66.352 241.585 65.42 241.585 62.018C241.585 57.311 234.851 58.523 234.851 56.24ZM252.606 59.106C252.606 55.937 254.354 54.865 256.404 54.865C257.779 54.865 259.224 55.261 260.179 55.634V52.768C259.037 52.395 258.035 52.115 256.334 52.115C251.884 52.115 249.111 54.842 249.111 59.269C249.111 63.463 251.115 66.352 256.148 66.352C257.756 66.352 258.991 66.049 260.365 65.583V62.787C258.828 63.393 257.639 63.626 256.591 63.626C254.354 63.603 252.606 62.577 252.606 59.106ZM155.769 54.678H155.653V52.442H152.507V66.002H155.886V57.94C156.934 55.937 158.216 55.284 160.359 55.284H160.709V52.348C160.709 52.348 160.22 52.302 159.8 52.302C157.959 52.278 156.701 53.001 155.769 54.678ZM198.013 54.678H197.897V52.442H194.751V66.002H198.106V57.94C199.155 55.937 200.436 55.284 202.58 55.284H202.929V52.348C202.929 52.348 202.44 52.302 202.021 52.302C200.203 52.278 198.945 53.001 198.013 54.678ZM295.456 52.115C294.011 52.115 292.357 52.908 290.843 53.909L290.447 54.166C289.724 52.651 288.303 52.115 286.742 52.115C285.297 52.115 283.643 52.861 282.128 53.863V52.465H278.936V66.026H282.338V56.286C283.596 55.447 284.924 54.935 285.903 54.935C287.021 54.935 287.697 55.541 287.697 57.451V66.002H291.076V56.309C292.334 55.471 293.662 54.935 294.641 54.935C295.759 54.935 296.435 55.541 296.435 57.451V66.002H299.79V56.659C299.743 54.026 298.182 52.115 295.456 52.115ZM269.336 63.649C267.146 63.649 265.981 62.228 265.981 59.245C265.981 56.309 267.146 54.842 269.336 54.842C271.526 54.842 272.668 56.263 272.668 59.245C272.668 62.181 271.526 63.649 269.336 63.649ZM269.336 52.115C264.676 52.115 262.486 55.121 262.486 59.245C262.486 63.37 264.676 66.352 269.336 66.352C273.95 66.352 276.187 63.393 276.187 59.245C276.187 55.098 273.95 52.115 269.336 52.115ZM222.595 56.24C222.595 55.214 223.714 54.818 224.902 54.818C226.836 54.818 228.677 55.424 228.677 55.424V52.628C227.418 52.255 226.137 52.115 224.646 52.115C221.384 52.115 219.1 53.653 219.1 56.17C219.1 61.039 225.834 59.805 225.834 62.158C225.834 63.323 224.785 63.649 223.248 63.649C222.152 63.649 220.428 63.23 219.17 62.787V65.56C220.219 65.979 221.686 66.352 223.131 66.352C226.3 66.352 229.329 65.42 229.329 62.018C229.329 57.311 222.595 58.523 222.595 56.24ZM207.986 57.731C208.195 55.843 209.221 54.655 210.898 54.655C212.692 54.655 213.228 56.076 213.228 57.731H207.986ZM210.945 52.115C206.611 52.115 204.351 55.494 204.351 59.152C204.351 64.208 207.007 66.352 211.318 66.352C213.065 66.352 214.556 66.119 216.327 65.583V62.787C214.906 63.3 213.648 63.626 212.273 63.626C209.757 63.626 208.079 62.95 208.009 59.968H216.677C216.723 59.432 216.793 58.919 216.793 57.964C216.747 55.098 215.256 52.115 210.945 52.115ZM185.64 56.566H182.961V49.715H185.64C187.807 49.715 188.903 50.904 188.903 53.047C188.879 55.168 187.877 56.566 185.64 56.566ZM185.594 46.896H179.349V66.002H182.938V59.362H185.571C189.648 59.362 192.631 57.172 192.631 53.047C192.654 48.923 189.671 46.896 185.594 46.896ZM171.823 62.111C170.728 63.113 169.703 63.649 168.631 63.649C166.767 63.649 165.579 62.414 165.579 59.548C165.579 56.449 167.07 54.818 169.633 54.818C170.425 54.818 171.264 55.028 171.823 55.238V62.111ZM171.823 52.418C170.821 52.209 170.122 52.115 169.283 52.115C164.623 52.115 162.084 55.214 162.084 59.758C162.084 64.255 164.623 66.352 167.629 66.352C169.12 66.352 170.914 65.676 171.986 64.744V66.002H175.178V46.896H171.823V52.418ZM142.954 63.649C140.764 63.649 139.598 62.228 139.598 59.245C139.598 56.309 140.764 54.842 142.954 54.842C145.144 54.842 146.286 56.263 146.286 59.245C146.286 62.181 145.144 63.649 142.954 63.649ZM142.954 52.115C138.294 52.115 136.103 55.121 136.103 59.245C136.103 63.37 138.294 66.352 142.954 66.352C147.567 66.352 149.804 63.393 149.804 59.245C149.804 55.098 147.567 52.115 142.954 52.115ZM243.822 66.002H247.201V62.531H243.822V66.002ZM133.051 46.896L129.23 61.529L125.432 46.896H121.587L122.473 50.042L119.117 62.041L115.459 46.919H111.754L116.95 66.026H120.981L124.104 55.797L127.016 66.026H131.047L136.5 46.919H133.051V46.896Z" fill="black"/>
<path d="M55.773 0.528992H42.656V3.92299H47.143V21.067H51.285V3.92299H55.773V0.528992Z" fill="black"/>
<path d="M69.219 0.528992V21.067H73.361V11.949H78.194V21.067H82.336V0.528992H78.194V8.382H73.361V0.528992H69.219Z" fill="black"/>
<path d="M108.33 0.528992H96.852V21.067H108.617V17.673H100.995V12.15H107.898V8.75599H100.995V3.92299H108.33V0.528992Z" fill="black"/>
<path d="M144.622 10.798C144.622 9.418 144.65 8.24801 144.708 7.28901C144.785 6.33001 144.919 5.54401 145.111 4.93001C145.322 4.31701 145.609 3.87501 145.974 3.60701C146.357 3.31901 146.856 3.17601 147.469 3.17601C148.083 3.17601 148.572 3.31901 148.936 3.60701C149.32 3.87501 149.608 4.31701 149.799 4.93001C150.01 5.54401 150.144 6.33001 150.202 7.28901C150.279 8.24801 150.317 9.418 150.317 10.798C150.317 12.179 150.279 13.358 150.202 14.336C150.144 15.295 150.01 16.081 149.799 16.695C149.608 17.289 149.32 17.731 148.936 18.018C148.572 18.287 148.083 18.421 147.469 18.421C146.856 18.421 146.357 18.287 145.974 18.018C145.609 17.731 145.322 17.289 145.111 16.695C144.919 16.081 144.785 15.295 144.708 14.336C144.65 13.358 144.622 12.179 144.622 10.798ZM140.479 10.798C140.479 12.371 140.547 13.809 140.681 15.113C140.834 16.417 141.151 17.539 141.63 18.478C142.129 19.418 142.838 20.137 143.759 20.636C144.679 21.134 145.916 21.384 147.469 21.384C149.023 21.384 150.26 21.134 151.18 20.636C152.1 20.137 152.8 19.418 153.28 18.478C153.778 17.539 154.095 16.417 154.229 15.113C154.382 13.809 154.459 12.371 154.459 10.798C154.459 9.245 154.382 7.81601 154.229 6.51201C154.095 5.18901 153.778 4.058 153.28 3.118C152.8 2.178 152.1 1.45001 151.18 0.932007C150.26 0.395007 149.023 0.126007 147.469 0.126007C145.916 0.126007 144.679 0.395007 143.759 0.932007C142.838 1.45001 142.129 2.178 141.63 3.118C141.151 4.058 140.834 5.18901 140.681 6.51201C140.547 7.81601 140.479 9.245 140.479 10.798Z" fill="black"/>
<path d="M168.544 0.528992V21.067H172.686V12.15H179.59V8.75599H172.686V3.92299H180.021V0.528992H168.544Z" fill="black"/>
<path d="M193.509 0.528992V21.067H197.651V12.15H204.555V8.75599H197.651V3.92299H204.986V0.528992H193.509Z" fill="black"/>
<path d="M218.675 21.067H222.817V0.528992H218.675V21.067Z" fill="black"/>
<path d="M246.313 7.46101H250.455C250.455 6.71401 250.397 5.91801 250.282 5.07401C250.186 4.21101 249.927 3.415 249.506 2.687C249.084 1.939 248.441 1.32501 247.578 0.846008C246.735 0.366008 245.574 0.126007 244.098 0.126007C242.544 0.126007 241.308 0.395007 240.387 0.932007C239.467 1.45001 238.757 2.178 238.259 3.118C237.779 4.058 237.463 5.18901 237.309 6.51201C237.175 7.81601 237.108 9.245 237.108 10.798C237.108 12.371 237.175 13.809 237.309 15.113C237.463 16.417 237.779 17.539 238.259 18.478C238.757 19.418 239.467 20.137 240.387 20.636C241.308 21.134 242.544 21.384 244.098 21.384C245.459 21.384 246.562 21.173 247.406 20.751C248.269 20.329 248.93 19.744 249.39 18.996C249.87 18.248 250.196 17.376 250.368 16.379C250.541 15.381 250.627 14.327 250.627 13.214H246.485C246.485 14.327 246.418 15.228 246.284 15.918C246.15 16.59 245.967 17.117 245.737 17.5C245.507 17.865 245.229 18.114 244.903 18.248C244.596 18.363 244.261 18.421 243.896 18.421C243.455 18.421 243.062 18.335 242.717 18.162C242.391 17.97 242.113 17.615 241.883 17.098C241.672 16.561 241.509 15.813 241.394 14.854C241.298 13.895 241.25 12.639 241.25 11.086C241.25 9.62801 241.288 8.40101 241.365 7.40401C241.442 6.38801 241.576 5.57301 241.768 4.95901C241.96 4.32601 242.218 3.87501 242.544 3.60701C242.89 3.31901 243.321 3.17601 243.839 3.17601C244.779 3.17601 245.421 3.52101 245.766 4.21101C246.13 4.88201 246.313 5.96601 246.313 7.46101Z" fill="black"/>
<path d="M264.84 21.067H268.982V0.528992H264.84V21.067Z" fill="black"/>
<path d="M292.277 13.33L290.292 4.09599H290.234L288.25 13.33H292.277ZM292.823 0.528992L298.26 21.067H293.945L292.996 16.724H287.53L286.581 21.067H282.266L287.703 0.528992H292.823Z" fill="black"/>
<path d="M311.338 21.067H322.815V17.673H315.48V0.528992H311.338V21.067Z" fill="black"/>
<path d="M35.056 115.758H49.956C49.956 107.911 48.085 101.901 44.342 97.726C40.598 93.479 34.48 91.355 25.9859 91.355C21.0191 91.355 16.8801 92.183 13.5689 93.839C10.2577 95.494 7.59428 97.978 5.57878 101.289C3.56328 104.528 2.12369 108.595 1.25989 113.49C0.467988 118.385 0.0720825 124.072 0.0720825 130.55C0.0720825 137.244 0.360083 143.147 0.935883 148.258C1.51178 153.297 2.62748 157.544 4.28308 160.999C6.01068 164.454 8.35018 167.009 11.3014 168.665C14.3247 170.32 18.2118 171.148 22.9626 171.148C26.6338 171.148 29.765 170.536 32.3564 169.313C35.02 168.017 37.287 165.858 39.159 162.834H39.375V169.961H50.82V128.391H25.662V139.836H35.92V147.718C35.92 149.805 35.596 151.641 34.948 153.225C34.3 154.736 33.4721 155.996 32.4644 157.004C31.5286 158.011 30.4848 158.767 29.3331 159.271C28.2534 159.775 27.2456 160.027 26.3098 160.027C24.0784 160.027 22.2428 159.343 20.8032 157.975C19.4355 156.536 18.3557 154.52 17.5639 151.929C16.8441 149.266 16.3402 146.062 16.0523 142.319C15.7644 138.576 15.6204 134.401 15.6204 129.794C15.6204 120.148 16.4482 113.238 18.1038 109.063C19.7594 104.888 22.4588 102.801 26.2019 102.801C27.7855 102.801 29.1172 103.233 30.1969 104.096C31.3486 104.888 32.2844 105.932 33.0042 107.228C33.7241 108.451 34.228 109.819 34.516 111.331C34.876 112.842 35.056 114.318 35.056 115.758Z" fill="black"/>
<path d="M60.825 92.867V169.961H76.374V137.352H84.688C87.927 137.352 90.23 138.216 91.598 139.944C92.966 141.671 93.721 144.047 93.865 147.07L94.297 161.862C94.369 163.374 94.513 164.85 94.729 166.289C94.945 167.657 95.449 168.881 96.241 169.961H113.085V169.313C111.645 168.521 110.709 167.045 110.277 164.886C109.989 162.726 109.773 159.595 109.63 155.492C109.558 153.405 109.486 151.533 109.414 149.877C109.342 148.15 109.234 146.566 109.09 145.126C108.658 140.808 107.542 137.676 105.742 135.733C103.943 133.789 101.1 132.53 97.213 131.954V131.738C101.603 130.802 104.843 128.714 106.93 125.475C109.018 122.164 110.061 117.917 110.061 112.734C110.061 106.04 108.262 101.073 104.663 97.834C101.064 94.523 96.025 92.867 89.546 92.867H60.825ZM76.374 126.555V104.312H83.716C90.914 104.312 94.513 107.875 94.513 115.002C94.513 119.177 93.505 122.164 91.49 123.964C89.474 125.691 86.595 126.555 82.852 126.555H76.374Z" fill="black"/>
<path d="M134.751 131.414C134.751 126.231 134.859 121.84 135.075 118.241C135.363 114.642 135.867 111.691 136.587 109.387C137.379 107.084 138.458 105.428 139.826 104.42C141.266 103.341 143.137 102.801 145.441 102.801C147.744 102.801 149.58 103.341 150.947 104.42C152.387 105.428 153.467 107.084 154.187 109.387C154.978 111.691 155.482 114.642 155.698 118.241C155.986 121.84 156.13 126.231 156.13 131.414C156.13 136.597 155.986 141.023 155.698 144.695C155.482 148.294 154.978 151.245 154.187 153.548C153.467 155.78 152.387 157.436 150.947 158.515C149.58 159.523 147.744 160.027 145.441 160.027C143.137 160.027 141.266 159.523 139.826 158.515C138.458 157.436 137.379 155.78 136.587 153.548C135.867 151.245 135.363 148.294 135.075 144.695C134.859 141.023 134.751 136.597 134.751 131.414ZM119.203 131.414C119.203 137.316 119.455 142.715 119.959 147.61C120.535 152.505 121.722 156.716 123.522 160.243C125.393 163.77 128.057 166.469 131.512 168.341C134.967 170.212 139.61 171.148 145.441 171.148C151.271 171.148 155.914 170.212 159.369 168.341C162.824 166.469 165.452 163.77 167.251 160.243C169.123 156.716 170.311 152.505 170.815 147.61C171.39 142.715 171.678 137.316 171.678 131.414C171.678 125.583 171.39 120.22 170.815 115.326C170.311 110.359 169.123 106.112 167.251 102.585C165.452 99.058 162.824 96.322 159.369 94.379C155.914 92.363 151.271 91.355 145.441 91.355C139.61 91.355 134.967 92.363 131.512 94.379C128.057 96.322 125.393 99.058 123.522 102.585C121.722 106.112 120.535 110.359 119.959 115.326C119.455 120.22 119.203 125.583 119.203 131.414Z" fill="black"/>
<path d="M176.285 92.867L190.322 169.961H207.705L216.343 114.03H216.559L225.197 169.961H242.581L256.618 92.867H241.717L233.187 149.877H232.971L223.901 92.867H209.001L199.931 149.877H199.715L191.185 92.867H176.285Z" fill="black"/>
<path d="M311.227 92.867H261.991V105.608H278.835V169.961H294.383V105.608H311.227V92.867Z" fill="black"/>
<path d="M317.972 92.867V169.961H333.52V135.733H351.66V169.961H367.208V92.867H351.66V122.344H333.52V92.867H317.972Z" fill="black"/>
<path d="M25.0951 230.286H9.54688V233.417C9.54688 240.543 11.4184 246.014 15.1615 249.829C18.9766 253.644 25.2751 255.552 34.057 255.552C42.479 255.552 49.029 253.716 53.708 250.045C58.459 246.302 60.835 240.363 60.835 232.229C60.835 229.854 60.619 227.694 60.187 225.751C59.755 223.807 58.963 222.044 57.811 220.46C56.732 218.804 55.256 217.293 53.384 215.925C51.513 214.485 49.101 213.118 46.15 211.822L34.165 206.639C30.8537 205.272 28.6943 203.796 27.6865 202.212C26.6787 200.557 26.1749 198.541 26.1749 196.166C26.1749 195.014 26.2828 193.898 26.4988 192.819C26.7867 191.739 27.2546 190.803 27.9024 190.011C28.6223 189.148 29.5581 188.464 30.7098 187.96C31.8615 187.456 33.3012 187.204 35.029 187.204C38.052 187.204 40.211 188.212 41.507 190.227C42.803 192.171 43.451 194.978 43.451 198.649H58.351V196.49C58.351 192.819 57.739 189.687 56.516 187.096C55.364 184.433 53.708 182.273 51.549 180.618C49.461 178.89 46.942 177.666 43.991 176.946C41.111 176.155 37.944 175.759 34.489 175.759C27.0746 175.759 21.244 177.63 16.9971 181.373C12.7501 185.116 10.6266 190.803 10.6266 198.433C10.6266 201.601 11.0225 204.408 11.8143 206.855C12.6061 209.231 13.8298 211.354 15.4854 213.226C17.213 215.025 19.3365 216.609 21.8559 217.977C24.3753 219.344 27.3626 220.604 30.8177 221.756C33.4091 222.619 35.569 223.483 37.296 224.347C39.096 225.139 40.535 226.039 41.615 227.046C42.695 228.054 43.451 229.206 43.883 230.502C44.386 231.725 44.638 233.201 44.638 234.929C44.638 238.168 43.667 240.579 41.723 242.163C39.852 243.674 37.728 244.43 35.353 244.43C33.3371 244.43 31.6456 244.142 30.2779 243.566C28.9822 242.991 27.9384 242.199 27.1466 241.191C26.3548 240.183 25.815 238.96 25.527 237.52C25.2391 236.008 25.0951 234.353 25.0951 232.553V230.286Z" fill="black"/>
<path d="M83.137 177.27H67.589V231.041C67.589 236.224 68.273 240.435 69.64 243.674C71.008 246.914 72.844 249.433 75.147 251.233C77.45 252.96 80.078 254.112 83.029 254.688C85.98 255.264 89.04 255.552 92.207 255.552C95.374 255.552 98.433 255.228 101.385 254.58C104.336 253.932 106.963 252.672 109.267 250.801C111.57 248.929 113.406 246.41 114.773 243.243C116.141 240.003 116.825 235.936 116.825 231.041V177.27H101.277V231.041C101.277 232.985 101.133 234.785 100.845 236.44C100.629 238.024 100.161 239.427 99.441 240.651C98.793 241.803 97.894 242.739 96.742 243.458C95.59 244.106 94.078 244.43 92.207 244.43C90.407 244.43 88.896 244.106 87.672 243.458C86.52 242.739 85.584 241.803 84.865 240.651C84.217 239.427 83.749 238.024 83.461 236.44C83.245 234.785 83.137 232.985 83.137 231.041V177.27Z" fill="black"/>
<path d="M126.984 177.27V254.364H141.236V192.819H141.452L155.165 254.364H167.258L180.971 192.819H181.187V254.364H195.439V177.27H172.441L161.32 231.689H161.104L150.09 177.27H126.984Z" fill="black"/>
<path d="M206.91 177.27V254.364H221.162V192.819H221.378L235.091 254.364H247.184L260.897 192.819H261.113V254.364H275.365V177.27H252.367L241.246 231.689H241.03L230.016 177.27H206.91Z" fill="black"/>
<path d="M287.268 254.364H302.816V177.27H287.268V254.364Z" fill="black"/>
<path d="M359.482 177.27H310.246V190.011H327.09V254.364H342.638V190.011H359.482V177.27Z" fill="black"/>
</svg>
