<svg fill="none" height="115" viewBox="0 0 200 115" width="200" xmlns="http://www.w3.org/2000/svg" xmlns:xlink="http://www.w3.org/1999/xlink"><mask id="a" height="14" maskUnits="userSpaceOnUse" width="44" x="149" y="85"><path d="m150.376 85.6365h41.5683v12.3026h-41.5683z" fill="#fff" stroke="#dcdcde"/></mask><mask id="b" height="14" maskUnits="userSpaceOnUse" width="43" x="100" y="85"><path d="m100.713 85.6365h41.5683v12.3026h-41.5683z" fill="#fff" stroke="#dcdcde"/></mask><mask id="c" height="10" maskUnits="userSpaceOnUse" width="10" x="13" y="9"><path clip-rule="evenodd" d="m22.4665 10.642v7.0947c0 .6531-.5294 1.1825-1.1824 1.1825h-7.0948c-.653 0-1.1824-.5294-1.1824-1.1825v-7.0947c0-.65303.5294-1.18244 1.1824-1.18244h7.0948c.653 0 1.1824.52941 1.1824 1.18244zm-1.1824 0h-7.0948v3.772l1.2948-1.2947 3.0922 3.0921.5912-.5913c.3722-.2976.9082-.2697 1.2475.0651l.8691.8691zm-2.0693 1.1825c-.4898 0-.8869.397-.8869.8868s.3971.8868.8869.8868.8868-.397.8868-.8868-.397-.8868-.8868-.8868z" fill="#fff" fill-rule="evenodd"/></mask><mask id="d" height="5" maskUnits="userSpaceOnUse" width="8" x="30" y="12"><path clip-rule="evenodd" d="m37.2474 12.8594-3.5473 3.5473-3.5474-3.5473.627-.627 2.9204 2.9203 2.9203-2.9203" fill="#fff" fill-rule="evenodd"/></mask><mask id="e" fill="#fff"><path clip-rule="evenodd" d="m24.8903 32.8313-7.8903-7.8903-7.89029 7.8903h-5.10971c-2.20914 0-4 1.7909-4 4v73.9997c0 2.209 1.79086 4 4 4h116c2.209 0 4-1.791 4-4v-73.9997c0-2.2091-1.791-4-4-4z" fill="#fff" fill-rule="evenodd"/></mask><mask id="f" height="10" maskUnits="userSpaceOnUse" width="10" x="13" y="45"><path clip-rule="evenodd" d="m22.4665 46.5053v7.0947c0 .6531-.5294 1.1825-1.1825 1.1825h-7.0947c-.6531 0-1.1825-.5294-1.1825-1.1825v-7.0947c0-.6531.5294-1.1825 1.1825-1.1825h7.0947c.6531 0 1.1825.5294 1.1825 1.1825zm-1.1825 0h-7.0947v3.772l1.2948-1.2948 3.0921 3.0922.5912-.5913c.3722-.2977.9083-.2697 1.2475.0651l.8691.8691zm-2.0693 1.1825c-.4898 0-.8868.397-.8868.8868s.397.8868.8868.8868.8869-.397.8869-.8868-.3971-.8868-.8869-.8868z" fill="#fff" fill-rule="evenodd"/></mask><mask id="g" height="13" maskUnits="userSpaceOnUse" width="13" x="11" y="90"><path clip-rule="evenodd" d="m19.5103 94.0048c0-.4895.3973-.8868.8868-.8868.4896 0 .8869.3973.8869.8868 0 .4896-.3973.8869-.8869.8869-.4895 0-.8868-.3973-.8868-.8869zm-6.5035 7.3902h8.2772c0 .653-.5292 1.183-1.1825 1.183h-7.0947c-.6504 0-1.1825-.532-1.1825-1.183v-7.0946c0-.6533.5292-1.1824 1.1825-1.1824zm10.6421-9.4595v7.0948c0 .6533-.5292 1.1827-1.1825 1.1827h-7.0947c-.6533 0-1.1825-.5294-1.1825-1.1827v-7.0948c0-.6533.5292-1.1824 1.1825-1.1824h7.0947c.6533 0 1.1825.5291 1.1825 1.1824zm-8.2772 0v3.5681l1.7735-1.8778 2.8702 3.0395.3878-.4112c.4706-.4992 1.2905-.4992 1.7599 0l.3033.3211v-4.6397z" fill="#fff" fill-rule="evenodd"/></mask><path d="m3.961.5h195.131v98.2193h-195.131z" fill="#fff" stroke="#c3c4c7"/><rect fill="#fff" height="41.5683" rx="3.5" stroke="#dcdcde" width="41.5683" x="150.376" y="35.9739"/><rect fill="#fff" height="41.5683" rx="3.5" stroke="#dcdcde" width="41.5683" x="100.713" y="35.9739"/><g mask="url(#a)"><rect fill="#fff" height="41.5683" rx="3.5" stroke="#dcdcde" width="41.5683" x="150.376" y="85.6365"/></g><g mask="url(#b)"><rect fill="#fff" height="41.5683" rx="3.5" stroke="#dcdcde" width="41.5683" x="100.713" y="85.6365"/></g><path d="m53.2106 8.86859h28.3789v10.6421h-28.3789z" fill="#dcdcde"/><path d="m46.6157 0v28.3789" stroke="#c3c4c7"/><path d="m4.61487 28.3428h193.82413" stroke="#c3c4c7"/><path d="m88.6841 8.86859h56.7577v10.6421h-56.7577z" fill="#dcdcde"/><path d="m152.536 8.86859h24.1126v10.6421h-24.1126z" fill="#dcdcde"/><g mask="url(#c)"><path d="m10.642 7.09467h14.1894v14.1894h-14.1894z" fill="#50575e"/></g><path clip-rule="evenodd" d="m37.2474 12.8594-3.5473 3.5473-3.5474-3.5473.627-.627 2.9204 2.9203 2.9203-2.9203" fill="#101517" fill-rule="evenodd"/><g mask="url(#d)"><path d="m28.379 8.86859h10.6421v10.6421h-10.6421z" fill="#8c8f94"/></g><path clip-rule="evenodd" d="m24.8903 32.8313-7.8903-7.8903-7.89029 7.8903h-5.10971c-2.20914 0-4 1.7909-4 4v73.9997c0 2.209 1.79086 4 4 4h116c2.209 0 4-1.791 4-4v-73.9997c0-2.2091-1.791-4-4-4z" fill="#fff" fill-rule="evenodd"/><path d="m17 24.941.7071-.7071-.7071-.7071-.7071.7071zm7.8903 7.8903-.7071.7071.2929.2929h.4142zm-15.78059 0v1h.41421l.2929-.2929zm7.18319-7.1832 7.8903 7.8903 1.4142-1.4142-7.8903-7.8903zm-6.47608 7.8903 7.89028-7.8903-1.4142-1.4142-7.8903 7.8903zm-5.81682.2929h5.10971v-2h-5.10971zm-3 3c0-1.6569 1.34315-3 3-3v-2c-2.76142 0-5 2.2386-5 5zm0 73.9997v-73.9997h-2v73.9997zm3 3c-1.65685 0-3-1.343-3-3h-2c0 2.762 2.23858 5 5 5zm116 0h-116v2h116zm3-3c0 1.657-1.343 3-3 3v2c2.761 0 5-2.238 5-5zm0-73.9997v73.9997h2v-73.9997zm-3-3c1.657 0 3 1.3431 3 3h2c0-2.7614-2.239-5-5-5zm-95.1097 0h95.1097v-2h-95.1097z" fill="#c3c4c7" mask="url(#e)"/><path d="m0 86.0233h124.158v21.2842h-124.158z" fill="#3582c4"/><path d="m35.4734 47.0021h46.1157v7.09472h-46.1157z" fill="#646970"/><path d="m35.4734 68.2867h74.4945v7.09472h-74.4945z" fill="#646970"/><path d="m35.4734 93.118h56.7577v7.09472h-56.7577z" fill="#fff"/><g fill="#50575e"><path d="m21.2842 68.9685-2.6605-2.4559v4.5025l.8868.8186h1.7737z"/><path d="m21.4888 75.3811 2.4559-2.6605h-4.5024l-.8186.8868v1.7737z"/><path d="m15.0764 75.5854 2.6605 2.4559v-4.5024l-.8868-.8186h-1.7737z"/><path d="m14.8715 69.1734-2.4559 2.6605h4.5025l.8186-.8868v-1.7737z"/></g><g mask="url(#f)"><path d="m10.6419 42.9579h14.1894v14.1894h-14.1894z" fill="#50575e"/></g><path clip-rule="evenodd" d="m19.5103 94.0048c0-.4895.3973-.8868.8868-.8868.4896 0 .8869.3973.8869.8868 0 .4896-.3973.8869-.8869.8869-.4895 0-.8868-.3973-.8868-.8869zm-6.5035 7.3902h8.2772c0 .653-.5292 1.183-1.1825 1.183h-7.0947c-.6504 0-1.1825-.532-1.1825-1.183v-7.0946c0-.6533.5292-1.1824 1.1825-1.1824zm10.6421-9.4595v7.0948c0 .6533-.5292 1.1827-1.1825 1.1827h-7.0947c-.6533 0-1.1825-.5294-1.1825-1.1827v-7.0948c0-.6533.5292-1.1824 1.1825-1.1824h7.0947c.6533 0 1.1825.5291 1.1825 1.1824zm-8.2772 0v3.5681l1.7735-1.8778 2.8702 3.0395.3878-.4112c.4706-.4992 1.2905-.4992 1.7599 0l.3033.3211v-4.6397z" fill="#101517" fill-rule="evenodd"/><g mask="url(#g)"><path d="m10.6419 89.5706h14.1894v14.1894h-14.1894z" fill="#fff"/></g></svg>
