<svg width="183" height="120" viewBox="0 0 183 120" fill="none" xmlns="http://www.w3.org/2000/svg">
<rect x="0.5" y="0.5" width="182" height="119" rx="1.5" fill="white" stroke="#C3C4C7"/>
<rect x="28" y="106" width="144" height="3" fill="#EEEEEE"/>
<rect x="11" y="106" width="115" height="3" fill="#656970"/>
<path d="M78.3622 42.172L78.3476 41.7723L77.7938 41.7924L77.9873 42.3117L78.3622 42.172ZM87.2282 65.962L86.8533 66.1017L87.2626 67.2L87.6102 66.0806L87.2282 65.962ZM81.4042 41.964L81.4427 42.3623L81.4518 42.3612L81.4042 41.964ZM81.2482 39.078L81.2322 38.6784L81.225 38.6786L81.2179 38.6792L81.2482 39.078ZM73.5782 39.338L73.243 39.1197L72.862 39.7044L73.5591 39.7376L73.5782 39.338ZM108.73 34.97L108.666 35.3649L109.983 35.5779L109.001 34.6755L108.73 34.97ZM106.346 43.8336L106.006 44.0445L106.008 44.048L106.346 43.8336ZM106.346 43.834L106.686 43.6229L106.684 43.6196L106.346 43.834ZM106.347 43.8349L106.687 43.624L106.687 43.6238L106.347 43.8349ZM106.78 44.538L107.127 44.3389L107.122 44.3302L106.78 44.538ZM104.57 63.934L104.194 64.0702L104.552 65.0591L104.942 64.0822L104.57 63.934ZM96.6922 42.172L96.6774 41.7723L96.1294 41.7926L96.316 42.3082L96.6922 42.172ZM98.8242 41.73L98.7844 41.332L98.7053 41.3399L98.6353 41.3774L98.8242 41.73ZM98.6682 38.558L98.6442 38.1586L98.6349 38.1594L98.6682 38.558ZM86.4222 38.558L86.4549 38.1593L86.4461 38.1588L86.4222 38.558ZM86.2662 41.73L86.3008 41.3315L86.2915 41.3307L86.2821 41.3304L86.2662 41.73ZM88.6582 41.938L89.0334 41.7994L88.9455 41.5615L88.6928 41.5395L88.6582 41.938ZM91.9342 50.804L92.3162 50.9226L92.3565 50.7929L92.3094 50.6654L91.9342 50.804ZM112.266 52L112.64 52.1421L112.641 52.1409L112.266 52ZM112.323 51.849L111.949 51.708L111.949 51.7082L112.323 51.849ZM106.646 66.9561L106.271 66.816L106.271 66.8161L106.646 66.9561ZM106.644 66.9602L107.019 67.1003L107.019 67.1002L106.644 66.9602ZM104.674 72.228L104.3 72.0877L103.909 73.1313L104.874 72.5745L104.674 72.228ZM113.384 40.95L113.736 40.7593L112.988 41.0017L113.384 40.95ZM82.86 73.034L82.686 73.3942L83.5769 73.8247L83.2355 72.896L82.86 73.034ZM71.758 42.666L72.1338 42.5289L71.7932 41.5959L71.3921 42.5045L71.758 42.666ZM74.0913 49.0602L73.7156 49.1973L73.7156 49.1974L74.0913 49.0602ZM74.0946 49.0691L74.4703 48.932L74.4703 48.932L74.0946 49.0691ZM93.3379 55.7959L93.7131 55.6573L93.3216 54.5981L92.9591 55.6675L93.3379 55.7959ZM100.046 73.9439L100.174 74.323L100.564 74.1914L100.421 73.8053L100.046 73.9439ZM89.6083 66.7441L89.9869 66.8734L89.6083 66.7441ZM87.0459 74.2559L86.6673 74.1271L86.5343 74.5179L86.9291 74.6385L87.0459 74.2559ZM93 26.4C107.105 26.4 118.6 37.8949 118.6 52H119.4C119.4 37.4531 107.547 25.6 93 25.6V26.4ZM67.4 52C67.4 37.8947 78.8692 26.4 93 26.4V25.6C78.4268 25.6 66.6 37.4533 66.6 52H67.4ZM93 77.6C78.8689 77.6 67.4 66.1311 67.4 52H66.6C66.6 66.5729 78.4271 78.4 93 78.4V77.6ZM118.6 52C118.6 66.1308 107.105 77.6 93 77.6V78.4C107.547 78.4 119.4 66.5732 119.4 52H118.6ZM77.9873 42.3117L86.8533 66.1017L87.603 65.8223L78.737 42.0324L77.9873 42.3117ZM81.4042 41.964C81.3656 41.5659 81.3656 41.5659 81.3656 41.5659C81.3656 41.5659 81.3656 41.5659 81.3656 41.5659C81.3656 41.5659 81.3655 41.5659 81.3654 41.5659C81.3652 41.5659 81.365 41.566 81.3646 41.566C81.3639 41.5661 81.3628 41.5662 81.3613 41.5663C81.3583 41.5666 81.3538 41.567 81.3479 41.5676C81.3359 41.5687 81.3182 41.5704 81.295 41.5726C81.2486 41.5769 81.1806 41.5831 81.0945 41.5908C80.9222 41.6061 80.6774 41.6271 80.3882 41.6498C79.809 41.6951 79.0547 41.7466 78.3476 41.7723L78.3767 42.5718C79.0996 42.5455 79.8663 42.493 80.4506 42.4473C80.7431 42.4244 80.9908 42.4032 81.1654 42.3876C81.2527 42.3799 81.3218 42.3735 81.3692 42.3691C81.3929 42.3669 81.4112 42.3652 81.4235 42.364C81.4297 42.3634 81.4345 42.363 81.4377 42.3627C81.4393 42.3625 81.4405 42.3624 81.4413 42.3623C81.4418 42.3623 81.4421 42.3622 81.4423 42.3622C81.4424 42.3622 81.4425 42.3622 81.4426 42.3622C81.4426 42.3622 81.4426 42.3622 81.4426 42.3622C81.4427 42.3622 81.4427 42.3622 81.4042 41.964ZM81.2641 39.4777C81.422 39.4714 81.5567 39.542 81.6749 39.7127C81.7998 39.8933 81.8852 40.1644 81.9018 40.465C81.9183 40.765 81.8637 41.0503 81.7568 41.2542C81.6541 41.45 81.5199 41.5473 81.3565 41.5669L81.4518 42.3612C81.9384 42.3028 82.2722 41.9938 82.4653 41.6258C82.6541 41.2658 82.723 40.8295 82.7006 40.4211C82.6781 40.0131 82.562 39.5888 82.3327 39.2575C82.0966 38.9164 81.7243 38.6587 81.2322 38.6784L81.2641 39.4777ZM75.0862 39.764C76.2943 39.764 77.8443 39.692 79.0872 39.6204C79.7097 39.5845 80.2572 39.5487 80.6491 39.5218C80.8451 39.5083 81.0022 39.4971 81.1104 39.4893C81.1646 39.4853 81.2065 39.4823 81.2349 39.4801C81.2491 39.4791 81.2599 39.4783 81.2672 39.4777C81.2709 39.4775 81.2736 39.4773 81.2755 39.4771C81.2765 39.477 81.2772 39.477 81.2777 39.4769C81.2779 39.4769 81.2781 39.4769 81.2782 39.4769C81.2783 39.4769 81.2783 39.4769 81.2784 39.4769C81.2784 39.4769 81.2784 39.4769 81.2482 39.078C81.2179 38.6792 81.2179 38.6792 81.2179 38.6792C81.2178 38.6792 81.2178 38.6792 81.2178 38.6792C81.2177 38.6792 81.2175 38.6792 81.2173 38.6792C81.2169 38.6793 81.2162 38.6793 81.2153 38.6794C81.2135 38.6795 81.2109 38.6797 81.2073 38.68C81.2002 38.6805 81.1896 38.6813 81.1756 38.6823C81.1476 38.6844 81.1062 38.6875 81.0525 38.6914C80.9453 38.6992 80.7892 38.7103 80.5943 38.7237C80.2046 38.7504 79.6601 38.7861 79.0412 38.8217C77.801 38.8931 76.27 38.964 75.0862 38.964V39.764ZM73.5591 39.7376C74.1159 39.7641 74.6189 39.764 75.0862 39.764V38.964C74.6174 38.964 74.1324 38.964 73.5972 38.9385L73.5591 39.7376ZM93.0002 28.486C84.7241 28.486 77.4493 32.6647 73.243 39.1197L73.9133 39.5564C77.975 33.3233 85.0002 29.286 93.0002 29.286V28.486ZM109.001 34.6755C104.768 30.7868 99.16 28.486 93.0002 28.486V29.286C98.9563 29.286 104.372 31.5093 108.46 35.2646L109.001 34.6755ZM104.84 39.078C104.84 36.2582 107.113 35.1137 108.666 35.3649L108.794 34.5752C106.811 34.2544 104.04 35.7099 104.04 39.078H104.84ZM106.686 43.6227C105.663 41.974 104.84 40.6281 104.84 39.078H104.04C104.04 40.8975 105.012 42.4426 106.006 44.0445L106.686 43.6227ZM106.684 43.6196L106.684 43.6192L106.008 44.048L106.009 44.0484L106.684 43.6196ZM106.687 43.6238L106.686 43.6229L106.006 44.045L106.007 44.0459L106.687 43.6238ZM107.122 44.3302C106.976 44.0896 106.829 43.8541 106.687 43.624L106.007 44.0458C106.15 44.2764 106.294 44.5089 106.438 44.7459L107.122 44.3302ZM108.61 50.934C108.61 48.0222 108.08 45.9995 107.127 44.339L106.433 44.7371C107.3 46.2486 107.81 48.1258 107.81 50.934H108.61ZM104.57 63.934C104.942 64.0822 104.942 64.0822 104.942 64.0821C104.942 64.082 104.942 64.0819 104.942 64.0817C104.942 64.0814 104.942 64.0809 104.942 64.0803C104.943 64.0792 104.944 64.0774 104.945 64.0752C104.946 64.0706 104.949 64.0639 104.952 64.0551C104.959 64.0374 104.97 64.0112 104.983 63.977C105.01 63.9086 105.05 63.808 105.1 63.6787C105.2 63.4202 105.342 63.047 105.514 62.5872C105.856 61.6678 106.313 60.4009 106.77 59.0118C107.227 57.6235 107.685 56.1087 108.03 54.6943C108.373 53.287 108.61 51.9522 108.61 50.934H107.81C107.81 51.8529 107.592 53.1115 107.253 54.5049C106.915 55.8913 106.463 57.3844 106.01 58.7618C105.557 60.1384 105.104 61.3952 104.764 62.3079C104.594 62.7642 104.453 63.1342 104.354 63.3899C104.304 63.5178 104.265 63.617 104.239 63.6842C104.226 63.7178 104.215 63.7433 104.209 63.7604C104.205 63.769 104.203 63.7754 104.201 63.7796C104.2 63.7818 104.2 63.7834 104.199 63.7844C104.199 63.7849 104.199 63.7853 104.199 63.7855C104.199 63.7857 104.199 63.7857 104.199 63.7858C104.199 63.7858 104.199 63.7858 104.57 63.934ZM96.316 42.3082L104.194 64.0702L104.946 63.7979L97.0683 42.0359L96.316 42.3082ZM98.8242 41.73C98.6353 41.3774 98.6354 41.3774 98.6355 41.3773C98.6356 41.3773 98.6357 41.3772 98.6357 41.3772C98.6359 41.3771 98.636 41.377 98.6362 41.377C98.6364 41.3768 98.6366 41.3767 98.6368 41.3766C98.6371 41.3764 98.6373 41.3764 98.6373 41.3764C98.6373 41.3764 98.6366 41.3767 98.6352 41.3775C98.6323 41.3789 98.6268 41.3817 98.6184 41.3856C98.6017 41.3936 98.574 41.4062 98.5353 41.4223C98.458 41.4543 98.337 41.4997 98.1729 41.5475C97.8451 41.6428 97.3446 41.7476 96.6774 41.7723L96.707 42.5718C97.4437 42.5445 98.0092 42.4282 98.3964 42.3156C98.5899 42.2593 98.7385 42.204 98.8416 42.1613C98.8931 42.14 98.9333 42.1218 98.9619 42.1082C98.9762 42.1014 98.9876 42.0957 98.9961 42.0914C99.0004 42.0892 99.0039 42.0874 99.0068 42.0859C99.0082 42.0852 99.0094 42.0846 99.0104 42.084C99.011 42.0837 99.0114 42.0835 99.0119 42.0833C99.0121 42.0831 99.0123 42.083 99.0125 42.0829C99.0126 42.0829 99.0127 42.0828 99.0128 42.0828C99.0129 42.0827 99.013 42.0826 98.8242 41.73ZM98.6921 38.9573C98.8257 38.9493 98.9577 39.0113 99.0845 39.2144C99.2157 39.4244 99.3045 39.7395 99.3216 40.0858C99.3388 40.4315 99.2823 40.7614 99.1701 40.9962C99.0598 41.227 98.9249 41.318 98.7844 41.332L98.864 42.128C99.3734 42.0771 99.7065 41.7293 99.892 41.341C100.076 40.9567 100.143 40.4871 100.121 40.0462C100.099 39.6061 99.9861 39.1476 99.763 38.7906C99.5356 38.4265 99.1606 38.1278 98.6442 38.1588L98.6921 38.9573ZM92.4802 39.27C93.7153 39.27 95.2726 39.1914 96.5157 39.1132C97.1385 39.0741 97.6845 39.035 98.0749 39.0057C98.2702 38.991 98.4266 38.9788 98.5343 38.9702C98.5881 38.9659 98.6298 38.9625 98.658 38.9602C98.6722 38.9591 98.6829 38.9582 98.6902 38.9576C98.6939 38.9573 98.6966 38.957 98.6985 38.9569C98.6994 38.9568 98.7001 38.9568 98.7006 38.9567C98.7008 38.9567 98.701 38.9567 98.7012 38.9567C98.7012 38.9567 98.7013 38.9567 98.7013 38.9567C98.7013 38.9567 98.7014 38.9567 98.6682 38.558C98.6349 38.1594 98.6349 38.1594 98.6349 38.1594C98.6349 38.1594 98.6349 38.1594 98.6348 38.1594C98.6347 38.1594 98.6346 38.1594 98.6343 38.1595C98.6339 38.1595 98.6333 38.1596 98.6324 38.1596C98.6306 38.1598 98.628 38.16 98.6245 38.1603C98.6174 38.1609 98.6069 38.1617 98.593 38.1629C98.5652 38.1651 98.5241 38.1685 98.4708 38.1727C98.3641 38.1812 98.2089 38.1933 98.015 38.2079C97.627 38.2371 97.0843 38.2759 96.4656 38.3148C95.2257 38.3927 93.6891 38.47 92.4802 38.47V39.27ZM86.4222 38.558C86.3894 38.9567 86.3894 38.9567 86.3895 38.9567C86.3895 38.9567 86.3895 38.9567 86.3896 38.9567C86.3897 38.9567 86.3899 38.9567 86.3902 38.9568C86.3906 38.9568 86.3914 38.9569 86.3923 38.9569C86.3942 38.9571 86.397 38.9573 86.4007 38.9576C86.408 38.9582 86.4189 38.9591 86.4332 38.9602C86.4618 38.9626 86.5039 38.9659 86.5582 38.9702C86.6669 38.9788 86.8246 38.991 87.0208 39.0057C87.4132 39.035 87.9599 39.0741 88.5776 39.1132C89.8104 39.1913 91.3356 39.27 92.4802 39.27V38.47C91.3627 38.47 89.8589 38.3928 88.6282 38.3148C88.0142 38.276 87.4705 38.2371 87.0804 38.2079C86.8854 38.1933 86.7289 38.1812 86.6211 38.1727C86.5673 38.1684 86.5256 38.1651 86.4975 38.1628C86.4834 38.1617 86.4727 38.1608 86.4656 38.1602C86.462 38.16 86.4593 38.1597 86.4575 38.1596C86.4566 38.1595 86.456 38.1595 86.4555 38.1594C86.4553 38.1594 86.4552 38.1594 86.4551 38.1594C86.455 38.1594 86.455 38.1594 86.4549 38.1594C86.4549 38.1594 86.4549 38.1594 86.4222 38.558ZM86.2821 41.3304C86.1537 41.3252 86.0276 41.2513 85.9194 41.0274C85.8085 40.798 85.7514 40.4668 85.7687 40.1149C85.7859 39.7628 85.8751 39.4391 86.0078 39.2221C86.1371 39.0106 86.2696 38.9496 86.3982 38.9573L86.4461 38.1588C85.9247 38.1275 85.5502 38.437 85.3253 38.8048C85.1037 39.1671 84.9914 39.6315 84.9696 40.0757C84.9479 40.52 85.0143 40.9932 85.1992 41.3756C85.3867 41.7636 85.7286 42.1089 86.2502 42.1297L86.2821 41.3304ZM88.6928 41.5395L86.3008 41.3315L86.2315 42.1285L88.6235 42.3365L88.6928 41.5395ZM92.3094 50.6654L89.0334 41.7994L88.2829 42.0767L91.559 50.9427L92.3094 50.6654ZM87.6102 66.0806L92.3162 50.9226L91.5521 50.6854L86.8461 65.8434L87.6102 66.0806ZM112.641 52.1409L112.697 51.9898L111.949 51.7082L111.892 51.8592L112.641 52.1409ZM107.021 67.0961C108.887 62.103 110.756 57.1011 112.64 52.1421L111.892 51.858C110.008 56.8194 108.137 61.8232 106.271 66.816L107.021 67.0961ZM107.019 67.1002L107.021 67.0961L106.271 66.8161L106.27 66.8202L107.019 67.1002ZM105.049 72.3683C105.705 70.615 106.362 68.8582 107.019 67.1003L106.27 66.8202C105.613 68.5781 104.956 70.3347 104.3 72.0877L105.049 72.3683ZM115.714 52C115.714 60.414 111.29 67.9504 104.474 71.8815L104.874 72.5745C111.942 68.4976 116.514 60.694 116.514 52H115.714ZM113.033 41.1408C114.819 44.4331 115.714 48.059 115.714 52H116.514C116.514 47.933 115.589 44.1749 113.736 40.7593L113.033 41.1408ZM112.697 51.99C113.353 50.2492 114.574 46.991 113.781 40.8984L112.988 41.0017C113.759 46.9206 112.577 50.0409 111.949 51.708L112.697 51.99ZM69.486 52C69.486 61.3301 74.7986 69.5828 82.686 73.3942L83.0341 72.6739C75.4255 68.9972 70.286 61.0259 70.286 52H69.486ZM71.3921 42.5045C70.0932 45.4468 69.486 48.5707 69.486 52H70.286C70.286 48.6693 70.8748 45.6572 72.124 42.8276L71.3921 42.5045ZM74.4671 48.9232C73.6892 46.7909 72.9115 44.6593 72.1338 42.5289L71.3823 42.8032C72.16 44.9336 72.9376 47.0651 73.7156 49.1973L74.4671 48.9232ZM74.4703 48.932L74.4671 48.9231L73.7156 49.1974L73.7188 49.2062L74.4703 48.932ZM83.2355 72.896C80.3019 64.9159 77.3845 56.9195 74.4703 48.932L73.7188 49.2062C76.6329 57.1936 79.5506 65.1909 82.4846 73.172L83.2355 72.896ZM92.9628 55.9346L99.6708 74.0826L100.421 73.8053L93.7131 55.6573L92.9628 55.9346ZM89.9869 66.8734C91.2356 63.2168 92.4808 59.5706 93.7168 55.9244L92.9591 55.6675C91.7234 59.3128 90.4786 62.9581 89.2298 66.6148L89.9869 66.8734ZM87.4246 74.3848C88.2792 71.8737 89.1339 69.3711 89.9869 66.8734L89.2298 66.6148C88.3768 69.1125 87.5221 71.6155 86.6673 74.1271L87.4246 74.3848ZM92.9999 74.7139C90.9823 74.7139 88.994 74.4329 87.1628 73.8734L86.9291 74.6385C88.8419 75.223 90.9096 75.5139 92.9999 75.5139V74.7139ZM99.9181 73.5649C97.7208 74.3059 95.4239 74.7139 92.9999 74.7139V75.5139C95.5159 75.5139 97.8991 75.09 100.174 74.323L99.9181 73.5649Z" fill="#BDBDC1"/>
<rect x="12" y="90" width="2" height="8" fill="#3F87D5"/>
<rect x="16" y="90" width="2" height="8" fill="#3F87D5"/>
<g opacity="0.3">
<path d="M168.417 89.9167L165.5 92.25H163.167V95.75H165.5L168.417 98.0834V89.9167Z" stroke="#656970" stroke-linecap="round" stroke-linejoin="round"/>
<path d="M171.065 91.935C171.612 92.482 171.919 93.2237 171.919 93.9971C171.919 94.7705 171.612 95.5122 171.065 96.0592" stroke="#656970" stroke-linecap="round" stroke-linejoin="round"/>
</g>
</svg>
