<svg width="254" height="254" viewBox="0 0 254 254" fill="none" xmlns="http://www.w3.org/2000/svg">
<path d="M150.843 150.434C140.311 150.434 131.736 159.009 131.736 169.54C131.736 180.072 140.311 188.647 150.843 188.647C161.374 188.647 169.949 180.072 169.949 169.54C169.949 159.009 161.374 150.434 150.843 150.434ZM133.67 169.54C133.67 167.047 134.206 164.694 135.161 162.55L143.363 185.012C137.608 182.216 133.67 176.344 133.67 169.54ZM150.843 186.713C149.165 186.713 147.534 186.457 145.996 186.014L151.145 171.032L156.435 185.501C156.458 185.595 156.505 185.665 156.551 185.734C154.757 186.364 152.846 186.713 150.843 186.713ZM153.219 161.478C154.244 161.432 155.176 161.315 155.176 161.315C156.108 161.199 155.992 159.847 155.06 159.894C155.06 159.894 152.287 160.104 150.47 160.104C148.792 160.104 145.949 159.894 145.949 159.894C145.017 159.847 144.924 161.245 145.833 161.315C145.833 161.315 146.718 161.432 147.627 161.478L150.307 168.818L146.555 180.096L140.311 161.478C141.336 161.432 142.268 161.315 142.268 161.315C143.2 161.199 143.083 159.847 142.151 159.894C142.151 159.894 139.379 160.104 137.585 160.104C137.258 160.104 136.885 160.104 136.489 160.08C139.565 155.444 144.831 152.368 150.843 152.368C155.316 152.368 159.394 154.069 162.446 156.888C162.376 156.888 162.306 156.865 162.213 156.865C160.536 156.865 159.324 158.333 159.324 159.917C159.324 161.339 160.139 162.527 161.002 163.948C161.654 165.09 162.423 166.558 162.423 168.678C162.423 170.146 161.98 172.01 161.118 174.224L159.394 179.956L153.219 161.478ZM159.487 184.383L164.73 169.214C165.708 166.768 166.035 164.81 166.035 163.063C166.035 162.434 165.988 161.851 165.918 161.292C167.269 163.739 168.015 166.535 168.015 169.54C168.015 175.878 164.59 181.4 159.487 184.383Z" fill="black"/>
<path d="M300.851 170.24C300.851 169.214 301.97 168.818 303.158 168.818C305.092 168.818 306.933 169.424 306.933 169.424V166.628C305.675 166.255 304.393 166.115 302.902 166.115C299.64 166.115 297.356 167.653 297.356 170.17C297.356 175.039 304.09 173.805 304.09 176.158C304.09 177.323 303.042 177.649 301.504 177.649C300.409 177.649 298.684 177.23 297.426 176.787V179.56C298.475 179.979 299.943 180.352 301.387 180.352C304.556 180.352 307.585 179.42 307.585 176.018C307.585 171.311 300.851 172.523 300.851 170.24ZM318.606 173.106C318.606 169.937 320.354 168.865 322.404 168.865C323.779 168.865 325.224 169.261 326.179 169.634V166.768C325.037 166.395 324.035 166.115 322.334 166.115C317.884 166.115 315.111 168.842 315.111 173.269C315.111 177.463 317.115 180.352 322.148 180.352C323.756 180.352 324.991 180.049 326.365 179.583V176.787C324.828 177.393 323.639 177.626 322.591 177.626C320.354 177.603 318.606 176.577 318.606 173.106ZM221.769 168.678H221.653V166.442H218.507V180.002H221.886V171.94C222.934 169.937 224.216 169.284 226.359 169.284H226.709V166.348C226.709 166.348 226.22 166.302 225.8 166.302C223.959 166.278 222.701 167.001 221.769 168.678ZM264.013 168.678H263.897V166.442H260.751V180.002H264.106V171.94C265.155 169.937 266.436 169.284 268.58 169.284H268.929V166.348C268.929 166.348 268.44 166.302 268.021 166.302C266.203 166.278 264.945 167.001 264.013 168.678ZM361.456 166.115C360.011 166.115 358.357 166.908 356.843 167.909L356.447 168.166C355.724 166.651 354.303 166.115 352.742 166.115C351.297 166.115 349.643 166.861 348.128 167.863V166.465H344.936V180.026H348.338V170.286C349.596 169.447 350.924 168.935 351.903 168.935C353.021 168.935 353.697 169.541 353.697 171.451V180.002H357.076V170.309C358.334 169.471 359.662 168.935 360.641 168.935C361.759 168.935 362.435 169.541 362.435 171.451V180.002H365.79V170.659C365.743 168.026 364.182 166.115 361.456 166.115ZM335.336 177.649C333.146 177.649 331.981 176.228 331.981 173.245C331.981 170.309 333.146 168.842 335.336 168.842C337.526 168.842 338.668 170.263 338.668 173.245C338.668 176.181 337.526 177.649 335.336 177.649ZM335.336 166.115C330.676 166.115 328.486 169.121 328.486 173.245C328.486 177.37 330.676 180.352 335.336 180.352C339.95 180.352 342.187 177.393 342.187 173.245C342.187 169.098 339.95 166.115 335.336 166.115ZM288.595 170.24C288.595 169.214 289.714 168.818 290.902 168.818C292.836 168.818 294.677 169.424 294.677 169.424V166.628C293.418 166.255 292.137 166.115 290.646 166.115C287.384 166.115 285.1 167.653 285.1 170.17C285.1 175.039 291.834 173.805 291.834 176.158C291.834 177.323 290.785 177.649 289.248 177.649C288.152 177.649 286.428 177.23 285.17 176.787V179.56C286.219 179.979 287.686 180.352 289.131 180.352C292.3 180.352 295.329 179.42 295.329 176.018C295.329 171.311 288.595 172.523 288.595 170.24ZM273.986 171.731C274.195 169.843 275.221 168.655 276.898 168.655C278.692 168.655 279.228 170.076 279.228 171.731H273.986ZM276.945 166.115C272.611 166.115 270.351 169.494 270.351 173.152C270.351 178.208 273.007 180.352 277.318 180.352C279.065 180.352 280.556 180.119 282.327 179.583V176.787C280.906 177.3 279.648 177.626 278.273 177.626C275.757 177.626 274.079 176.95 274.009 173.968H282.677C282.723 173.432 282.793 172.919 282.793 171.964C282.747 169.098 281.256 166.115 276.945 166.115ZM251.64 170.566H248.961V163.715H251.64C253.807 163.715 254.903 164.904 254.903 167.047C254.879 169.168 253.877 170.566 251.64 170.566ZM251.594 160.896H245.349V180.002H248.938V173.362H251.571C255.648 173.362 258.631 171.172 258.631 167.047C258.654 162.923 255.671 160.896 251.594 160.896ZM237.823 176.111C236.728 177.113 235.703 177.649 234.631 177.649C232.767 177.649 231.579 176.414 231.579 173.548C231.579 170.449 233.07 168.818 235.633 168.818C236.425 168.818 237.264 169.028 237.823 169.238V176.111ZM237.823 166.418C236.821 166.209 236.122 166.115 235.283 166.115C230.623 166.115 228.084 169.214 228.084 173.758C228.084 178.255 230.623 180.352 233.629 180.352C235.12 180.352 236.914 179.676 237.986 178.744V180.002H241.178V160.896H237.823V166.418ZM208.954 177.649C206.764 177.649 205.598 176.228 205.598 173.245C205.598 170.309 206.764 168.842 208.954 168.842C211.144 168.842 212.286 170.263 212.286 173.245C212.286 176.181 211.144 177.649 208.954 177.649ZM208.954 166.115C204.294 166.115 202.103 169.121 202.103 173.245C202.103 177.37 204.294 180.352 208.954 180.352C213.567 180.352 215.804 177.393 215.804 173.245C215.804 169.098 213.567 166.115 208.954 166.115ZM309.822 180.002H313.201V176.531H309.822V180.002ZM199.051 160.896L195.23 175.529L191.432 160.896H187.587L188.473 164.042L185.117 176.041L181.459 160.919H177.754L182.95 180.026H186.981L190.104 169.797L193.016 180.026H197.047L202.5 160.919H199.051V160.896Z" fill="black"/>
<path d="M121.773 114.529H108.656V117.923H113.143V135.067H117.285V117.923H121.773V114.529Z" fill="black"/>
<path d="M135.219 114.529V135.067H139.361V125.949H144.194V135.067H148.336V114.529H144.194V122.382H139.361V114.529H135.219Z" fill="black"/>
<path d="M174.33 114.529H162.852V135.067H174.617V131.673H166.995V126.15H173.898V122.756H166.995V117.923H174.33V114.529Z" fill="black"/>
<path d="M210.622 124.798C210.622 123.418 210.65 122.248 210.708 121.289C210.785 120.33 210.919 119.544 211.111 118.93C211.322 118.317 211.609 117.875 211.974 117.607C212.357 117.319 212.856 117.176 213.469 117.176C214.083 117.176 214.572 117.319 214.936 117.607C215.32 117.875 215.608 118.317 215.799 118.93C216.01 119.544 216.144 120.33 216.202 121.289C216.279 122.248 216.317 123.418 216.317 124.798C216.317 126.179 216.279 127.358 216.202 128.336C216.144 129.295 216.01 130.081 215.799 130.695C215.608 131.289 215.32 131.731 214.936 132.018C214.572 132.287 214.083 132.421 213.469 132.421C212.856 132.421 212.357 132.287 211.974 132.018C211.609 131.731 211.322 131.289 211.111 130.695C210.919 130.081 210.785 129.295 210.708 128.336C210.65 127.358 210.622 126.179 210.622 124.798ZM206.479 124.798C206.479 126.371 206.547 127.809 206.681 129.113C206.834 130.417 207.151 131.539 207.63 132.478C208.129 133.418 208.838 134.137 209.759 134.636C210.679 135.134 211.916 135.384 213.469 135.384C215.023 135.384 216.26 135.134 217.18 134.636C218.1 134.137 218.8 133.418 219.28 132.478C219.778 131.539 220.095 130.417 220.229 129.113C220.382 127.809 220.459 126.371 220.459 124.798C220.459 123.245 220.382 121.816 220.229 120.512C220.095 119.189 219.778 118.058 219.28 117.118C218.8 116.178 218.1 115.45 217.18 114.932C216.26 114.395 215.023 114.126 213.469 114.126C211.916 114.126 210.679 114.395 209.759 114.932C208.838 115.45 208.129 116.178 207.63 117.118C207.151 118.058 206.834 119.189 206.681 120.512C206.547 121.816 206.479 123.245 206.479 124.798Z" fill="black"/>
<path d="M234.544 114.529V135.067H238.686V126.15H245.59V122.756H238.686V117.923H246.021V114.529H234.544Z" fill="black"/>
<path d="M259.509 114.529V135.067H263.651V126.15H270.555V122.756H263.651V117.923H270.986V114.529H259.509Z" fill="black"/>
<path d="M284.675 135.067H288.817V114.529H284.675V135.067Z" fill="black"/>
<path d="M312.313 121.461H316.455C316.455 120.714 316.397 119.918 316.282 119.074C316.186 118.211 315.927 117.415 315.506 116.687C315.084 115.939 314.441 115.325 313.578 114.846C312.735 114.366 311.574 114.126 310.098 114.126C308.544 114.126 307.308 114.395 306.387 114.932C305.467 115.45 304.757 116.178 304.259 117.118C303.779 118.058 303.463 119.189 303.309 120.512C303.175 121.816 303.108 123.245 303.108 124.798C303.108 126.371 303.175 127.809 303.309 129.113C303.463 130.417 303.779 131.539 304.259 132.478C304.757 133.418 305.467 134.137 306.387 134.636C307.308 135.134 308.544 135.384 310.098 135.384C311.459 135.384 312.562 135.173 313.406 134.751C314.269 134.329 314.93 133.744 315.39 132.996C315.87 132.248 316.196 131.376 316.368 130.379C316.541 129.381 316.627 128.327 316.627 127.214H312.485C312.485 128.327 312.418 129.228 312.284 129.918C312.15 130.59 311.967 131.117 311.737 131.5C311.507 131.865 311.229 132.114 310.903 132.248C310.596 132.363 310.261 132.421 309.896 132.421C309.455 132.421 309.062 132.335 308.717 132.162C308.391 131.97 308.113 131.615 307.883 131.098C307.672 130.561 307.509 129.813 307.394 128.854C307.298 127.895 307.25 126.639 307.25 125.086C307.25 123.628 307.288 122.401 307.365 121.404C307.442 120.388 307.576 119.573 307.768 118.959C307.96 118.326 308.218 117.875 308.544 117.607C308.89 117.319 309.321 117.176 309.839 117.176C310.779 117.176 311.421 117.521 311.766 118.211C312.13 118.882 312.313 119.966 312.313 121.461Z" fill="black"/>
<path d="M330.84 135.067H334.982V114.529H330.84V135.067Z" fill="black"/>
<path d="M358.277 127.33L356.292 118.096H356.234L354.25 127.33H358.277ZM358.823 114.529L364.26 135.067H359.945L358.996 130.724H353.53L352.581 135.067H348.266L353.703 114.529H358.823Z" fill="black"/>
<path d="M377.338 135.067H388.815V131.673H381.48V114.529H377.338V135.067Z" fill="black"/>
<path d="M101.056 229.758H115.956C115.956 221.911 114.085 215.901 110.342 211.726C106.598 207.479 100.48 205.355 91.9859 205.355C87.0191 205.355 82.8801 206.183 79.5689 207.839C76.2577 209.494 73.5943 211.978 71.5788 215.289C69.5633 218.528 68.1237 222.595 67.2599 227.49C66.468 232.385 66.0721 238.072 66.0721 244.55C66.0721 251.244 66.3601 257.147 66.9359 262.258C67.5118 267.297 68.6275 271.544 70.2831 274.999C72.0107 278.454 74.3502 281.009 77.3014 282.665C80.3247 284.32 84.2118 285.148 88.9626 285.148C92.6338 285.148 95.765 284.536 98.3564 283.313C101.02 282.017 103.287 279.858 105.159 276.834H105.375V283.961H116.82V242.391H91.662V253.836H101.92V261.718C101.92 263.805 101.596 265.641 100.948 267.225C100.3 268.736 99.4721 269.996 98.4644 271.004C97.5286 272.011 96.4848 272.767 95.3331 273.271C94.2534 273.775 93.2456 274.027 92.3098 274.027C90.0784 274.027 88.2428 273.343 86.8032 271.975C85.4355 270.536 84.3557 268.52 83.5639 265.929C82.8441 263.266 82.3402 260.062 82.0523 256.319C81.7644 252.576 81.6204 248.401 81.6204 243.794C81.6204 234.148 82.4482 227.238 84.1038 223.063C85.7594 218.888 88.4588 216.801 92.2019 216.801C93.7855 216.801 95.1172 217.233 96.1969 218.096C97.3486 218.888 98.2844 219.932 99.0042 221.228C99.7241 222.451 100.228 223.819 100.516 225.331C100.876 226.842 101.056 228.318 101.056 229.758Z" fill="black"/>
<path d="M126.825 206.867V283.961H142.374V251.352H150.688C153.927 251.352 156.23 252.216 157.598 253.944C158.966 255.671 159.721 258.047 159.865 261.07L160.297 275.862C160.369 277.374 160.513 278.85 160.729 280.289C160.945 281.657 161.449 282.881 162.241 283.961H179.085V283.313C177.645 282.521 176.709 281.045 176.277 278.886C175.989 276.726 175.773 273.595 175.63 269.492C175.558 267.405 175.486 265.533 175.414 263.877C175.342 262.15 175.234 260.566 175.09 259.126C174.658 254.808 173.542 251.676 171.742 249.733C169.943 247.789 167.1 246.53 163.213 245.954V245.738C167.603 244.802 170.843 242.714 172.93 239.475C175.018 236.164 176.061 231.917 176.061 226.734C176.061 220.04 174.262 215.073 170.663 211.834C167.064 208.523 162.025 206.867 155.546 206.867H126.825ZM142.374 240.555V218.312H149.716C156.914 218.312 160.513 221.875 160.513 229.002C160.513 233.177 159.505 236.164 157.49 237.964C155.474 239.691 152.595 240.555 148.852 240.555H142.374Z" fill="black"/>
<path d="M200.751 245.414C200.751 240.231 200.859 235.84 201.075 232.241C201.363 228.642 201.867 225.691 202.587 223.387C203.379 221.084 204.458 219.428 205.826 218.42C207.266 217.341 209.137 216.801 211.441 216.801C213.744 216.801 215.58 217.341 216.947 218.42C218.387 219.428 219.467 221.084 220.187 223.387C220.978 225.691 221.482 228.642 221.698 232.241C221.986 235.84 222.13 240.231 222.13 245.414C222.13 250.597 221.986 255.023 221.698 258.695C221.482 262.294 220.978 265.245 220.187 267.548C219.467 269.78 218.387 271.436 216.947 272.515C215.58 273.523 213.744 274.027 211.441 274.027C209.137 274.027 207.266 273.523 205.826 272.515C204.458 271.436 203.379 269.78 202.587 267.548C201.867 265.245 201.363 262.294 201.075 258.695C200.859 255.023 200.751 250.597 200.751 245.414ZM185.203 245.414C185.203 251.316 185.455 256.715 185.959 261.61C186.535 266.505 187.722 270.716 189.522 274.243C191.393 277.77 194.057 280.469 197.512 282.341C200.967 284.212 205.61 285.148 211.441 285.148C217.271 285.148 221.914 284.212 225.369 282.341C228.824 280.469 231.452 277.77 233.251 274.243C235.123 270.716 236.311 266.505 236.815 261.61C237.39 256.715 237.678 251.316 237.678 245.414C237.678 239.583 237.39 234.22 236.815 229.326C236.311 224.359 235.123 220.112 233.251 216.585C231.452 213.058 228.824 210.322 225.369 208.379C221.914 206.363 217.271 205.355 211.441 205.355C205.61 205.355 200.967 206.363 197.512 208.379C194.057 210.322 191.393 213.058 189.522 216.585C187.722 220.112 186.535 224.359 185.959 229.326C185.455 234.22 185.203 239.583 185.203 245.414Z" fill="black"/>
<path d="M242.285 206.867L256.322 283.961H273.705L282.343 228.03H282.559L291.197 283.961H308.581L322.618 206.867H307.717L299.187 263.877H298.971L289.901 206.867H275.001L265.931 263.877H265.715L257.185 206.867H242.285Z" fill="black"/>
<path d="M377.227 206.867H327.991V219.608H344.835V283.961H360.383V219.608H377.227V206.867Z" fill="black"/>
<path d="M383.972 206.867V283.961H399.52V249.733H417.66V283.961H433.208V206.867H417.66V236.344H399.52V206.867H383.972Z" fill="black"/>
<path d="M91.0951 344.286H75.5469V347.417C75.5469 354.543 77.4184 360.014 81.1615 363.829C84.9766 367.644 91.2751 369.552 100.057 369.552C108.479 369.552 115.029 367.716 119.708 364.045C124.459 360.302 126.835 354.363 126.835 346.229C126.835 343.854 126.619 341.694 126.187 339.751C125.755 337.807 124.963 336.044 123.811 334.46C122.732 332.804 121.256 331.293 119.384 329.925C117.513 328.485 115.101 327.118 112.15 325.822L100.165 320.639C96.8537 319.272 94.6943 317.796 93.6865 316.212C92.6787 314.557 92.1749 312.541 92.1749 310.166C92.1749 309.014 92.2828 307.898 92.4988 306.819C92.7867 305.739 93.2546 304.803 93.9024 304.011C94.6223 303.148 95.5581 302.464 96.7098 301.96C97.8615 301.456 99.3012 301.204 101.029 301.204C104.052 301.204 106.211 302.212 107.507 304.227C108.803 306.171 109.451 308.978 109.451 312.649H124.351V310.49C124.351 306.819 123.739 303.687 122.516 301.096C121.364 298.433 119.708 296.273 117.549 294.618C115.461 292.89 112.942 291.666 109.991 290.946C107.111 290.155 103.944 289.759 100.489 289.759C93.0746 289.759 87.244 291.63 82.9971 295.373C78.7501 299.116 76.6266 304.803 76.6266 312.433C76.6266 315.601 77.0225 318.408 77.8143 320.855C78.6061 323.231 79.8298 325.354 81.4854 327.226C83.213 329.025 85.3365 330.609 87.8559 331.977C90.3753 333.344 93.3626 334.604 96.8177 335.756C99.4091 336.619 101.569 337.483 103.296 338.347C105.096 339.139 106.535 340.039 107.615 341.046C108.695 342.054 109.451 343.206 109.883 344.502C110.386 345.725 110.638 347.201 110.638 348.929C110.638 352.168 109.667 354.579 107.723 356.163C105.852 357.674 103.728 358.43 101.353 358.43C99.3371 358.43 97.6456 358.142 96.2779 357.566C94.9822 356.991 93.9384 356.199 93.1466 355.191C92.3548 354.183 91.815 352.96 91.527 351.52C91.2391 350.008 91.0951 348.353 91.0951 346.553V344.286Z" fill="black"/>
<path d="M149.137 291.27H133.589V345.041C133.589 350.224 134.273 354.435 135.64 357.674C137.008 360.914 138.844 363.433 141.147 365.233C143.45 366.96 146.078 368.112 149.029 368.688C151.98 369.264 155.04 369.552 158.207 369.552C161.374 369.552 164.433 369.228 167.385 368.58C170.336 367.932 172.963 366.672 175.267 364.801C177.57 362.929 179.406 360.41 180.773 357.243C182.141 354.003 182.825 349.936 182.825 345.041V291.27H167.277V345.041C167.277 346.985 167.133 348.785 166.845 350.44C166.629 352.024 166.161 353.427 165.441 354.651C164.793 355.803 163.894 356.739 162.742 357.458C161.59 358.106 160.078 358.43 158.207 358.43C156.407 358.43 154.896 358.106 153.672 357.458C152.52 356.739 151.584 355.803 150.865 354.651C150.217 353.427 149.749 352.024 149.461 350.44C149.245 348.785 149.137 346.985 149.137 345.041V291.27Z" fill="black"/>
<path d="M192.984 291.27V368.364H207.236V306.819H207.452L221.165 368.364H233.258L246.971 306.819H247.187V368.364H261.439V291.27H238.441L227.32 345.689H227.104L216.09 291.27H192.984Z" fill="black"/>
<path d="M272.91 291.27V368.364H287.162V306.819H287.378L301.091 368.364H313.184L326.897 306.819H327.113V368.364H341.365V291.27H318.367L307.246 345.689H307.03L296.016 291.27H272.91Z" fill="black"/>
<path d="M353.268 368.364H368.816V291.27H353.268V368.364Z" fill="black"/>
<path d="M425.482 291.27H376.246V304.011H393.09V368.364H408.638V304.011H425.482V291.27Z" fill="black"/>
</svg>
