<svg width="351" height="220" viewBox="0 0 351 220" fill="none" xmlns="http://www.w3.org/2000/svg">
<path opacity="0.5" fill-rule="evenodd" clip-rule="evenodd" d="M187 71L187 226L53 226L53 71L53 68L53.0587 68C54.5423 30.1792 83.9453 -4.50466e-06 120 -2.92866e-06C156.055 -1.35266e-06 185.458 30.1792 186.941 68L187 68L187 71Z" fill="#BBE0FA"/>
<path opacity="0.5" fill-rule="evenodd" clip-rule="evenodd" d="M35.6765 224C43.7154 231.435 54.2311 235.939 65.7395 235.939C77.2479 235.939 87.7636 231.435 95.8025 224L111 224L111 194.506C111.315 192.209 111.479 189.86 111.479 187.47C111.479 160.701 91.0005 139 65.7395 139C41.5794 139 21.7945 158.85 20.1158 184L20 184L20 224L35.6765 224Z" fill="#F2D76B"/>
<path d="M143 225.514V110.518C143 57.7647 180.224 15 226.143 15C272.062 15 309.286 57.7647 309.286 110.518V225.514" stroke="#0675C4"/>
<path d="M157.334 225.674V114.049C157.334 70.3915 188.14 35 226.142 35C264.144 35 294.95 70.3915 294.95 114.049V225.674" stroke="#0675C4"/>
<path d="M277.271 226.638V110.518C277.271 78.0781 254.38 51.7803 226.143 51.7803C197.905 51.7803 175.015 78.0781 175.015 110.518V226.638" stroke="#0675C4"/>
<rect x="0.65625" y="67.6562" width="812.438" height="61.6875" rx="9.84375" fill="#F6F7F7" stroke="white" stroke-width="1.3125"/>
<rect x="90" y="80.5859" width="652.836" height="34.2516" rx="13.6349" fill="white"/>
<path d="M118.523 96.3838H118.174L118.173 94.6522C118.171 92.7662 116.629 91.2319 114.735 91.2334C112.84 91.235 111.299 92.7695 111.3 94.6549L111.303 96.3861L111.178 96.3866C110.527 96.3883 109.998 96.914 110 97.5623V102.717C110 103.365 110.53 103.891 111.181 103.891L118.526 103.887C119.177 103.887 119.706 103.361 119.704 102.712V97.5568C119.704 96.9085 119.174 96.3838 118.523 96.3838ZM112.569 96.3866L112.566 94.6554C112.566 93.4644 113.538 92.4953 114.735 92.4936C115.932 92.4936 116.905 93.4627 116.905 94.6527L116.908 96.3839L112.569 96.3866Z" fill="#043959"/>
<circle cx="23.6159" cy="98.6159" r="4.61586" fill="black" fill-opacity="0.12"/>
<circle cx="42.0797" cy="98.6159" r="4.61586" fill="black" fill-opacity="0.12"/>
<circle cx="60.5446" cy="98.6159" r="4.61586" fill="black" fill-opacity="0.12"/>
</svg>
