<svg width="317" height="188" viewBox="0 0 317 188" fill="none" xmlns="http://www.w3.org/2000/svg">
<g clip-path="url(#clip0)">
<path d="M288.316 133.023C288.314 113.171 283.884 93.5705 275.349 75.6593C266.815 57.7481 254.392 41.9802 238.993 29.5117C223.594 17.0433 205.609 8.19029 186.356 3.60196C167.103 -0.986372 147.071 -1.19374 127.727 2.99505C108.384 7.18384 90.2205 15.6626 74.5683 27.8096C58.9162 39.9567 46.1723 55.4641 37.2711 73.1948C28.3698 90.9255 23.537 110.43 23.1268 130.278C22.7166 150.126 26.7395 169.815 34.9005 187.901H276.481C284.302 170.671 288.338 151.955 288.316 133.023Z" fill="#E6F1F5"/>
<path d="M9.83716 187.9H18.1252" stroke="#2C3338" stroke-width="1.5" stroke-linecap="round" stroke-linejoin="round"/>
<path d="M289.974 187.9H298.262" stroke="#2C3338" stroke-width="1.5" stroke-linecap="round" stroke-linejoin="round"/>
<path d="M183.656 188H124.181C124.181 185.565 125.145 183.231 126.861 181.509C128.577 179.788 130.904 178.82 133.331 178.82H174.506C176.93 178.829 179.253 179.799 180.967 181.519C182.681 183.238 183.648 185.568 183.656 188Z" fill="white" stroke="#2C3338" stroke-linecap="round" stroke-linejoin="round"/>
<path d="M165.356 165.051H142.481V178.821H165.356V165.051Z" fill="white"/>
<path d="M165.356 165.051H142.481V178.821H165.356V165.051Z" stroke="#2C3338" stroke-linecap="round" stroke-linejoin="round"/>
<path d="M215.681 59.4878H92.2887C89.2553 59.4878 86.3461 60.6967 84.2012 62.8486C82.0562 65.0004 80.8512 67.919 80.8512 70.9622V146.693H227.119V70.9622C227.11 67.9217 225.902 65.0082 223.759 62.8583C221.616 60.7083 218.712 59.4966 215.681 59.4878V59.4878Z" fill="#934FED"/>
<path d="M215.681 59.4878H92.2887C89.2553 59.4878 86.3461 60.6967 84.2012 62.8486C82.0562 65.0004 80.8512 67.919 80.8512 70.9622V146.693H227.119V70.9622C227.11 67.9217 225.902 65.0082 223.759 62.8583C221.616 60.7083 218.712 59.4966 215.681 59.4878V59.4878Z" stroke="#2C3338" stroke-linecap="round" stroke-linejoin="round"/>
<path d="M215.681 165.051C218.715 165.051 221.624 163.842 223.769 161.69C225.914 159.538 227.119 156.62 227.119 153.577V146.692H80.7184V153.577C80.7139 155.096 81.011 156.601 81.5925 158.004C82.174 159.407 83.0282 160.68 84.1053 161.748C85.1823 162.816 86.4607 163.658 87.8657 164.225C89.2707 164.792 90.7742 165.073 92.2886 165.051H215.681Z" fill="white" stroke="#2C3338" stroke-linecap="round" stroke-linejoin="round"/>
<path d="M153.919 157.767C154.962 157.767 155.808 156.918 155.808 155.871C155.808 154.824 154.962 153.976 153.919 153.976C152.875 153.976 152.029 154.824 152.029 155.871C152.029 156.918 152.875 157.767 153.919 157.767Z" stroke="#2C3338" stroke-linecap="round" stroke-linejoin="round"/>
<rect x="221.884" y="183.628" width="25.2967" height="4.47148" rx="1" fill="#98C6D9" stroke="#2C3338"/>
<rect x="232.423" y="162.86" width="4.2946" height="20.7674" fill="#98C6D9" stroke="#2C3338"/>
<path d="M217.392 106.981C217.392 104.772 219.183 102.981 221.392 102.981H247.749C249.958 102.981 251.749 104.772 251.749 106.981V145.997H217.392V106.981Z" fill="white" stroke="#2C3338"/>
<mask id="mask0" mask-type="alpha" maskUnits="userSpaceOnUse" x="216" y="102" width="37" height="45">
<path d="M217.392 106.981C217.392 104.772 219.183 102.981 221.392 102.981H247.749C249.958 102.981 251.749 104.772 251.749 106.981V145.997H217.392V106.981Z" fill="white" stroke="#2C3338"/>
</mask>
<g mask="url(#mask0)">
<line y1="-0.5" x2="57.847" y2="-0.5" transform="matrix(0.706526 -0.707687 0.706526 0.707687 209.441 141.404)" stroke="#2C3338"/>
<line y1="-0.5" x2="57.847" y2="-0.5" transform="matrix(0.706526 -0.707687 0.706526 0.707687 196.041 127.981)" stroke="#2C3338"/>
<line y1="-0.5" x2="61.6402" y2="-0.5" transform="matrix(-0.706526 -0.707688 0.706526 -0.707687 242.271 151.471)" stroke="#2C3338"/>
<line y1="-0.5" x2="57.8469" y2="-0.5" transform="matrix(0.706526 -0.707687 0.706526 0.707687 214.801 146.771)" stroke="#2C3338"/>
<line y1="-0.5" x2="61.6402" y2="-0.5" transform="matrix(-0.706526 -0.707688 0.706526 -0.707687 247.631 146.101)" stroke="#2C3338"/>
<line y1="-0.5" x2="57.8469" y2="-0.5" transform="matrix(0.706526 -0.707688 0.706525 0.707688 220.161 152.141)" stroke="#2C3338"/>
<line y1="-0.5" x2="57.8469" y2="-0.5" transform="matrix(0.706526 -0.707687 0.706526 0.707687 222.841 154.825)" stroke="#2C3338"/>
<line y1="-0.5" x2="57.8469" y2="-0.5" transform="matrix(0.706525 -0.707688 0.706525 0.707688 225.52 157.51)" stroke="#2C3338"/>
<line y1="-0.5" x2="57.8469" y2="-0.5" transform="matrix(0.706526 -0.707687 0.706526 0.707687 228.201 160.195)" stroke="#2C3338"/>
<line y1="-0.5" x2="57.8469" y2="-0.5" transform="matrix(0.706526 -0.707687 0.706526 0.707687 230.88 162.879)" stroke="#2C3338"/>
<line y1="-0.5" x2="57.8469" y2="-0.5" transform="matrix(0.706526 -0.707687 0.706526 0.707687 204.081 136.035)" stroke="#2C3338"/>
<line y1="-0.5" x2="57.847" y2="-0.5" transform="matrix(0.706526 -0.707687 0.706526 0.707687 190.681 122.611)" stroke="#2C3338"/>
<line y1="-0.5" x2="61.6402" y2="-0.5" transform="matrix(-0.706525 -0.707688 0.706525 -0.707688 236.91 156.84)" stroke="#2C3338"/>
<line y1="-0.5" x2="57.8469" y2="-0.5" transform="matrix(0.706526 -0.707688 0.706525 0.707688 212.12 144.089)" stroke="#2C3338"/>
<line y1="-0.5" x2="57.8469" y2="-0.5" transform="matrix(0.706526 -0.707688 0.706525 0.707688 198.72 130.666)" stroke="#2C3338"/>
<line y1="-0.5" x2="61.6402" y2="-0.5" transform="matrix(-0.706526 -0.707687 0.706526 -0.707687 244.95 148.786)" stroke="#2C3338"/>
<line y1="-0.5" x2="57.847" y2="-0.5" transform="matrix(0.706526 -0.707687 0.706526 0.707687 217.48 149.456)" stroke="#2C3338"/>
<line y1="-0.5" x2="61.6401" y2="-0.5" transform="matrix(-0.706526 -0.707687 0.706526 -0.707687 250.31 143.417)" stroke="#2C3338"/>
<line y1="-0.5" x2="61.6401" y2="-0.5" transform="matrix(-0.706526 -0.707687 0.706526 -0.707687 252.991 140.732)" stroke="#2C3338"/>
<line y1="-0.5" x2="61.6401" y2="-0.5" transform="matrix(-0.706525 -0.707688 0.706525 -0.707688 263.71 129.996)" stroke="#2C3338"/>
<line y1="-0.5" x2="61.6402" y2="-0.5" transform="matrix(-0.706526 -0.707688 0.706526 -0.707688 255.671 138.047)" stroke="#2C3338"/>
<line y1="-0.5" x2="61.6401" y2="-0.5" transform="matrix(-0.706525 -0.707688 0.706525 -0.707688 266.391 127.311)" stroke="#2C3338"/>
<line y1="-0.5" x2="61.6402" y2="-0.5" transform="matrix(-0.706526 -0.707687 0.706526 -0.707687 258.351 135.362)" stroke="#2C3338"/>
<line y1="-0.5" x2="61.6401" y2="-0.5" transform="matrix(-0.706526 -0.707688 0.706526 -0.707688 269.071 124.626)" stroke="#2C3338"/>
<line y1="-0.5" x2="61.6402" y2="-0.5" transform="matrix(-0.706525 -0.707688 0.706525 -0.707688 261.031 132.68)" stroke="#2C3338"/>
<line y1="-0.5" x2="61.6402" y2="-0.5" transform="matrix(-0.706526 -0.707687 0.706526 -0.707687 271.751 121.942)" stroke="#2C3338"/>
<line y1="-0.5" x2="57.847" y2="-0.5" transform="matrix(0.706526 -0.707687 0.706526 0.707687 206.76 138.72)" stroke="#2C3338"/>
<line y1="-0.5" x2="57.8469" y2="-0.5" transform="matrix(0.706526 -0.707687 0.706526 0.707687 193.36 125.296)" stroke="#2C3338"/>
<line y1="-0.5" x2="61.6401" y2="-0.5" transform="matrix(-0.706525 -0.707688 0.706525 -0.707688 239.591 154.155)" stroke="#2C3338"/>
<line y1="-0.5" x2="57.8469" y2="-0.5" transform="matrix(0.706525 -0.707688 0.706525 0.707688 201.401 133.35)" stroke="#2C3338"/>
<line y1="-0.5" x2="57.8469" y2="-0.5" transform="matrix(0.706526 -0.707687 0.706526 0.707687 188.001 119.927)" stroke="#2C3338"/>
<line y1="-0.5" x2="61.6402" y2="-0.5" transform="matrix(-0.706525 -0.707688 0.706526 -0.707688 234.231 159.522)" stroke="#2C3338"/>
<line y1="-0.5" x2="61.6402" y2="-0.5" transform="matrix(-0.706526 -0.707688 0.706526 -0.707688 231.55 162.207)" stroke="#2C3338"/>
</g>
<path d="M217.392 149.225H251.749V166.733C251.749 168.942 249.958 170.733 247.749 170.733H221.392C219.183 170.733 217.392 168.942 217.392 166.733V149.225Z" fill="#98C6D9" stroke="#2C3338"/>
<rect x="232.423" y="157.828" width="4.2946" height="4.30161" rx="1" fill="white" stroke="#2C3338"/>
<rect x="216.318" y="144.921" width="36.504" height="4.30167" rx="1" fill="#98C6D9" stroke="#2C3338"/>
<path d="M75.9639 32.1768C75.8468 31.6603 75.378 31.1437 74.9092 31.0146L71.042 29.4649C70.5732 29.3358 70.5732 29.0775 71.042 28.8192L74.9092 27.2696C75.378 27.2696 75.8468 26.753 75.9639 26.2364L77.3702 21.9749C77.4874 21.4583 77.7218 21.4583 77.9562 21.9749L79.3624 26.2364C79.4796 26.753 79.9484 27.2696 80.4171 27.3987L84.2844 28.9484C84.7531 29.0775 84.7531 29.3358 84.2844 29.594L80.3 31.0146C79.8312 31.1437 79.3624 31.6603 79.2452 32.1768L77.839 36.4384C77.7218 36.9549 77.4874 36.9549 77.253 36.4384L75.9639 32.1768Z" fill="#5198D9"/>
<path d="M58.3947 91.7586C57.7972 91.9581 57.1996 92.5566 57.1996 92.9556L55.8054 96.7463C55.6062 97.3448 55.2078 97.3448 55.0086 96.7463L53.6144 92.9556C53.4152 92.3571 52.8176 91.7586 52.4193 91.7586L48.6348 90.362C48.0373 90.1625 48.0373 89.7635 48.6348 89.564L52.4193 88.1674C53.0168 87.9679 53.6144 87.3694 53.6144 86.9704L55.0086 83.1797C55.2078 82.5812 55.6062 82.5812 55.8053 83.1797L57.1996 86.9704C57.3988 87.5689 57.9963 88.1674 58.3947 88.1674L62.1791 89.564C62.7767 89.7635 62.7767 90.1625 62.1791 90.362L58.3947 91.7586Z" fill="#F283AA"/>
<path d="M54.8875 22.4291C54.7696 22.1338 54.5337 21.8385 54.2979 21.6908L53.1185 21.1002C52.8827 20.9525 52.8827 20.8049 53.1185 20.8049L54.2979 20.2143C54.5337 20.0666 54.7696 19.7713 54.8875 19.476L55.3593 17.9994C55.4772 17.7041 55.5951 17.7041 55.5951 17.9994L56.0669 19.476C56.1848 19.7713 56.4207 20.0666 56.6565 20.2143L57.8359 20.8049C58.0717 20.9525 58.0717 21.1002 57.8359 21.1002L56.6565 21.6908C56.4207 21.8385 56.1848 22.1338 56.0669 22.4291L55.5951 23.9057C55.4772 24.201 55.3593 24.201 55.3593 23.9057L54.8875 22.4291Z" fill="#F0C930"/>
<path d="M234.234 71.692L234.234 93.2797" stroke="#F0C930" stroke-linecap="round"/>
<path d="M24.7556 187.9H283.343" stroke="#2C3338" stroke-width="1.5" stroke-linecap="round" stroke-linejoin="round"/>
<path d="M186.837 115.78L200.572 119.219" stroke="#F0C930" stroke-linecap="round"/>
<path d="M265.475 119.22L279.21 115.781" stroke="#F0C930" stroke-linecap="round"/>
<path d="M194.247 84.3432L196.474 86.5745M206.664 96.7808L198.746 88.8497" stroke="#F0C930" stroke-linecap="round"/>
<path d="M272.692 84.3899L270.465 86.6212M260.275 96.8276L268.193 88.8965" stroke="#F0C930" stroke-linecap="round"/>
<g clip-path="url(#clip1)">
<path d="M166.188 97.929C166.188 97.929 164.748 97.2245 163.251 97.6817C162.132 98.0221 160.906 98.8968 160.208 100.714C158.862 104.199 160.027 110.277 159.571 110.277C159.116 110.277 157.682 104.676 155.763 98.8434C153.845 93.0109 152.186 86.9527 149.191 87.4416C146.534 87.873 147.359 94.7802 148.399 101.25C149.341 107.114 150.431 112.604 149.808 112.604C148.695 112.606 145.043 96.3972 141.3 97.0127C137.557 97.6282 142.378 115.488 141.365 115.522C140.533 115.549 138.491 104.65 135.462 105.151C133.167 105.531 135.212 114.01 135.306 116.375C135.329 116.968 135.508 118.083 134.645 118.083H132.932V119.731H135.737C136.313 119.702 136.769 119.474 137 118.89C137.778 116.911 135.733 108.504 136.211 108.442C136.54 108.401 137.25 110.96 138.24 113.855C139.23 116.751 140.221 119.747 142.101 119.747C146.156 119.747 142.021 103.344 142.824 103.344C143.249 103.344 144.408 106.677 145.683 110.332C147.242 114.799 149.143 119.753 151.438 119.753C154.177 119.753 153.285 113.354 152.438 107.223C151.703 101.917 150.842 96.9316 151.302 96.9316C152.336 96.9316 156.24 119.745 160.929 119.745C163.278 119.745 163.305 114.975 163.305 109.834C163.305 106.222 163.012 102.93 165.212 102.139C166.257 101.763 167.315 102.43 167.315 102.43L166.188 97.929Z" fill="white"/>
<path d="M170.1 117.76V113.01H172.061C172.423 112.992 172.786 113.036 173.135 113.139C173.358 113.224 173.547 113.383 173.672 113.592C173.804 113.818 173.87 114.078 173.864 114.342C173.869 114.585 173.81 114.824 173.693 115.035C173.654 115.105 173.609 115.172 173.558 115.233C173.352 115.455 173.083 115.603 172.789 115.656C172.88 115.751 173.008 115.892 173.153 116.07C173.348 116.313 173.525 116.571 173.681 116.842C173.8 117.04 173.993 117.358 174.244 117.768H173.131L172.459 116.735C172.309 116.492 172.145 116.259 171.968 116.036C171.891 115.949 171.795 115.881 171.688 115.838C171.535 115.796 171.377 115.778 171.219 115.785H171.027V117.764L170.1 117.76ZM171.032 115.021H171.72C172.001 115.036 172.283 115.016 172.559 114.962C172.664 114.927 172.755 114.857 172.818 114.764C172.884 114.658 172.917 114.533 172.912 114.407C172.921 114.264 172.877 114.123 172.789 114.012C172.698 113.908 172.573 113.842 172.438 113.826C172.363 113.814 172.136 113.81 171.759 113.81H171.032V115.021Z" fill="white"/>
<path d="M171.832 119.63C171.01 119.63 170.207 119.378 169.525 118.906C168.862 118.445 168.343 117.796 168.032 117.038C167.819 116.515 167.709 115.953 167.709 115.386C167.709 114.819 167.819 114.258 168.032 113.735C168.345 112.977 168.863 112.328 169.525 111.866C170.207 111.393 171.01 111.141 171.832 111.141C172.654 111.141 173.457 111.393 174.139 111.866C174.358 112.019 174.563 112.192 174.75 112.385C175.523 113.181 175.957 114.261 175.957 115.386C175.957 116.512 175.523 117.591 174.75 118.388C174.563 118.58 174.358 118.754 174.139 118.906C173.919 119.061 173.684 119.194 173.439 119.302C172.93 119.522 172.384 119.634 171.832 119.63V119.63ZM171.832 111.5C171.085 111.5 170.355 111.728 169.734 112.155C169.113 112.583 168.63 113.19 168.344 113.9C168.058 114.61 167.983 115.392 168.129 116.146C168.275 116.9 168.635 117.593 169.163 118.136C169.691 118.68 170.364 119.05 171.097 119.2C171.829 119.349 172.588 119.272 173.278 118.978C173.968 118.683 174.558 118.185 174.972 117.545C175.387 116.906 175.608 116.154 175.607 115.385C175.606 114.355 175.208 113.367 174.5 112.639C173.792 111.911 172.833 111.501 171.832 111.5V111.5Z" fill="white"/>
</g>
</g>
<defs>
<clipPath id="clip0">
<rect width="316.977" height="188" fill="white"/>
</clipPath>
<clipPath id="clip1">
<rect width="43.0234" height="32.3312" fill="white" transform="translate(132.932 87.414)"/>
</clipPath>
</defs>
</svg>
