<svg width="245" height="156" fill="none" xmlns="http://www.w3.org/2000/svg"><circle cx="125.561" cy="71.341" r="70.39" fill="#e9f0f5"/><g clip-path="url(#clip0)"><path d="M72.166 68.66c-1.37-.994-1.956-2.285-2.64-3.577l-2.054-3.875c-.684-1.292-1.271-2.683-1.858-3.975-.587-1.39-1.271-2.682-1.271-4.372 0-.198.098-.298.293-.298.098 0 .098 0 .196.1 1.369.993 1.956 2.285 2.64 3.577l2.053 3.875c.587 1.291 1.272 2.683 1.858 3.974.587 1.391 1.272 2.683 1.272 4.372 0 .199-.098.298-.294.298-.098-.099-.098-.099-.195-.099zM65.81 46.9c-1.565-1.49-2.445-3.379-3.423-5.167-.978-1.789-1.858-3.677-2.738-5.465-.88-1.888-1.76-3.677-2.542-5.565-.783-1.887-1.76-3.676-1.956-5.862 0-.1.098-.298.196-.298.097 0 .195 0 .195.1 1.565 1.49 2.445 3.378 3.423 5.166.977 1.789 1.857 3.677 2.738 5.465.88 1.888 1.76 3.676 2.542 5.564.782 1.888 1.76 3.677 1.956 5.863 0 .1-.098.298-.196.298 0-.1-.098-.1-.195-.1zM71.188 40.64c-.88-1.193-.88-2.485-1.076-3.677-.195-1.292-.293-2.484-.39-3.776-.099-1.292-.099-2.484-.099-3.776 0-1.291-.195-2.484.49-3.776.097-.099.293-.198.39-.099l.098.1c.88 1.192.88 2.484 1.076 3.676.195 1.292.293 2.484.39 3.776.099 1.291.099 2.484.099 3.776 0 1.291.195 2.484-.49 3.775-.097.2-.293.2-.488 0 0 .1 0 .1 0 0zM78.424 67.269c-.391-2.186 0-4.174.293-6.16.294-1.988.587-4.075.978-6.062s.782-4.074 1.174-6.061c.39-1.987.684-4.074 1.858-5.962.097-.1.195-.199.39-.1.098 0 .098.1.098.2.391 2.185 0 4.173-.293 6.16s-.587 4.074-.978 6.061c-.391 1.988-.782 4.074-1.173 6.061-.391 1.988-.685 4.074-1.858 5.962-.098.1-.196.199-.391.1-.098-.1-.098-.2-.098-.2zm2.738-33.188c-.587-1.39-.294-2.682-.098-3.974.196-1.292.391-2.583.587-3.776.293-1.291.489-2.484.782-3.776.293-1.291.489-2.484 1.467-3.676.098-.1.293-.1.391 0l.098.1c.587 1.39.293 2.682.098 3.974-.196 1.292-.391 2.583-.587 3.776-.294 1.291-.489 2.484-.782 3.775-.294 1.292-.49 2.485-1.467 3.677-.098.1-.293.1-.391 0 0 0-.098 0-.098-.1zm10.072 5.167c-.294-1.59.195-2.881.587-4.272.39-1.391.782-2.683 1.173-4.074.489-1.292.88-2.683 1.467-3.975.489-1.291.88-2.682 2.053-3.775.098-.1.294-.1.391 0l.098.099c.293 1.59-.195 2.881-.587 4.273-.39 1.39-.782 2.682-1.173 4.073-.489 1.292-.88 2.683-1.467 3.975-.489 1.292-.88 2.683-2.053 3.776-.098.1-.294.1-.391 0-.098 0-.098 0-.098-.1zm13.201 6.16c-.196-1.29.391-2.185.88-3.08.489-.894.978-1.887 1.467-2.782.489-.894 1.075-1.788 1.662-2.682.587-.895 1.076-1.789 2.249-2.286.196-.099.293 0 .391.2v.098c.196 1.292-.391 2.186-.88 3.08-.489.895-.978 1.889-1.467 2.783-.489.894-1.075 1.788-1.662 2.683-.587.894-1.076 1.788-2.249 2.285-.098 0-.293-.1-.391-.298zM90.354 58.923c.097-1.689.88-2.881 1.564-4.173.685-1.292 1.37-2.583 2.152-3.875.782-1.292 1.466-2.484 2.346-3.776.783-1.192 1.467-2.484 2.934-3.378.098-.1.293 0 .391.1v.198c-.098 1.689-.88 2.881-1.564 4.173-.685 1.292-1.37 2.584-2.152 3.875-.782 1.292-1.467 2.484-2.347 3.776-.782 1.192-1.466 2.484-2.933 3.378-.098.1-.294 0-.391-.099.097-.1 0-.199 0-.199zm-6.845 13.812c.39-1.49 1.466-2.385 2.347-3.379.88-.993 1.858-1.888 2.835-2.881.978-.894 1.956-1.789 3.032-2.683.978-.894 1.955-1.788 3.422-2.186.196 0 .294.1.294.199v.1c-.392 1.49-1.467 2.384-2.347 3.377-.88.994-1.858 1.888-2.836 2.882-.978.894-1.956 1.789-3.031 2.683-.978.894-1.956 1.788-3.423 2.186-.196 0-.293-.1-.293-.199v-.1zm26.304-2.186c.685-1.193 1.662-1.49 2.542-1.987.978-.497 1.858-.895 2.836-1.392l2.934-1.192c.978-.397 1.955-.795 3.227-.497.195 0 .293.199.195.398v.1c-.684 1.191-1.662 1.49-2.542 1.986-.978.497-1.858.895-2.836 1.391l-2.934 1.193c-.977.397-1.955.795-3.226.497a.765.765 0 01-.196-.497zm2.934 9.44c1.564-.696 3.129-.498 4.693-.498 1.565 0 3.129.1 4.694.2 1.565.099 3.129.198 4.694.397 1.564.198 3.129.198 4.596 1.093.097.099.195.298.097.397 0 .1-.097.1-.097.1-1.565.695-3.13.496-4.694.496-1.565 0-3.129-.1-4.694-.198-1.564-.1-3.129-.2-4.694-.398-1.564-.199-3.129-.199-4.595-1.093-.098-.1-.196-.199-.098-.397 0-.1.098-.1.098-.1zm-29.238-2.385c1.369-.696 2.64-.497 3.911-.398 1.271 0 2.64.199 3.912.298 1.27.199 2.542.298 3.911.497 1.271.199 2.542.298 3.814 1.192.097.1.195.298.097.398l-.097.1c-1.37.695-2.64.496-3.912.397-1.271 0-2.64-.2-3.911-.299-1.271-.198-2.543-.298-3.912-.496-1.27-.199-2.542-.298-3.813-1.193-.098-.099-.196-.298-.098-.397.098 0 .098-.1.098-.1zM97.1 67.766c.88-1.392 2.249-2.087 3.52-2.882 1.271-.795 2.543-1.49 3.814-2.186a72.404 72.404 0 013.911-1.987c1.369-.596 2.64-1.391 4.303-1.391.195 0 .293.1.293.298v.199c-.88 1.39-2.249 2.086-3.52 2.881-1.271.795-2.543 1.49-3.814 2.186a72.402 72.402 0 01-3.911 1.987c-1.369.597-2.64 1.391-4.303 1.391-.195 0-.293-.099-.293-.298-.098-.099-.098-.099 0-.198zM81.65 80.98c1.662.1 2.836.894 4.107 1.59 1.271.695 2.542 1.49 3.716 2.186 1.173.795 2.444 1.59 3.618 2.384 1.173.795 2.444 1.49 3.324 2.981.098.1 0 .298-.097.398h-.196c-1.662-.1-2.836-.894-4.107-1.59-1.271-.696-2.542-1.49-3.716-2.186-1.173-.795-2.444-1.59-3.618-2.385-1.173-.795-2.445-1.49-3.325-2.98-.097-.1 0-.299.098-.398h.196zm29.629 7.85c1.271-.497 2.444-.1 3.52.198 1.076.199 2.249.497 3.325.795 1.075.298 2.151.696 3.324 1.093 1.076.398 2.25.596 3.13 1.69.097.099.097.297 0 .397 0 0-.098 0-.098.1-1.271.496-2.445.099-3.52-.2-1.076-.198-2.25-.496-3.325-.794-1.076-.299-2.151-.696-3.325-1.094-1.076-.397-2.249-.596-3.129-1.689-.098-.099-.098-.298.098-.496zm-7.53 3.278c2.445.597 4.401 1.888 6.454 2.981l6.161 3.578c2.053 1.291 4.009 2.484 6.062 3.775 1.956 1.292 4.01 2.484 5.672 4.372.098.1.098.298 0 .398-.098.099-.196.099-.196.099-2.444-.596-4.4-1.888-6.454-2.981l-6.16-3.577c-2.054-1.292-4.009-2.484-6.063-3.776-1.955-1.291-4.009-2.484-5.671-4.372a.305.305 0 010-.397c.098-.1.195-.1.195-.1zm8.019 12.322c1.466.198 2.249.993 3.227 1.788.977.696 1.858 1.491 2.835 2.285.88.795 1.761 1.59 2.641 2.485.88.894 1.858 1.589 2.249 2.98 0 .199 0 .299-.196.398h-.098c-1.466-.199-2.249-.994-3.227-1.789-.977-.695-1.858-1.49-2.835-2.285-.88-.795-1.761-1.59-2.641-2.484-.88-.894-1.858-1.59-2.249-2.981 0-.199 0-.298.196-.397h.098zm-24.056-12.52c1.272.397 1.76 1.291 2.445 2.086.685.795 1.271 1.69 1.858 2.484l1.76 2.683c.587.895 1.174 1.689 1.174 3.081 0 .198-.196.298-.294.298h-.098c-1.27-.398-1.76-1.292-2.444-2.087-.685-.795-1.271-1.69-1.858-2.484l-1.76-2.683c-.587-.894-1.174-1.689-1.174-3.08 0-.199.098-.298.391-.298-.097 0-.097 0 0 0zm8.41 17.19c1.271.894 1.76 2.186 2.347 3.378.587 1.192 1.173 2.484 1.76 3.676.489 1.292 1.076 2.484 1.565 3.776.489 1.292 1.075 2.484.88 4.074 0 .199-.196.298-.294.298-.097 0-.097 0-.097-.099-1.272-.894-1.761-2.186-2.347-3.379-.587-1.192-1.174-2.484-1.76-3.676-.49-1.292-1.076-2.484-1.565-3.776-.489-1.291-1.076-2.484-.88-4.074 0-.198.195-.298.293-.298 0 .1 0 .1.098.1zm-12.712-6.558c.978 1.788 1.173 3.577 1.369 5.365.293 1.789.489 3.677.684 5.465.196 1.789.392 3.677.49 5.565.097 1.887.39 3.676-.196 5.564 0 .099-.196.199-.293.199-.098 0-.098-.1-.196-.1-.978-1.788-1.174-3.577-1.37-5.365-.293-1.789-.488-3.677-.684-5.465-.195-1.789-.39-3.677-.489-5.565-.097-1.888-.39-3.676.196-5.564 0-.099.196-.199.293-.199.196 0 .196.1.196.1zm-5.378-17.886c.782 1.193.684 2.385.684 3.577v3.478c0 1.192-.097 2.385-.195 3.478-.098 1.192-.098 2.385-.88 3.478-.098.099-.294.198-.391.099l-.098-.1c-.783-1.192-.685-2.384-.685-3.577v-3.477c0-1.193.098-2.385.196-3.478.098-1.192.098-2.385.88-3.478.098-.198.293-.198.489 0 0-.1 0-.1 0 0zm-1.956 31.002c.782.894.685 1.788.685 2.682 0 .895.097 1.789 0 2.584 0 .894-.098 1.788-.196 2.583-.098.895-.098 1.789-.88 2.584-.098.099-.293.099-.489 0-.782-.895-.684-1.789-.684-2.683 0-.894-.098-1.789 0-2.584 0-.894.097-1.788.195-2.583.098-.894.098-1.789.88-2.583.098-.1.294-.1.49 0zm-4.107-12.421c.293 1.789-.293 3.279-.684 4.869-.392 1.59-.88 3.08-1.37 4.67-.488 1.491-.977 3.08-1.564 4.571-.587 1.49-.978 3.08-2.25 4.372a.295.295 0 01-.39 0s-.098-.1-.098-.199c-.293-1.789.293-3.279.684-4.869.392-1.59.88-3.08 1.37-4.67.488-1.49.977-3.08 1.564-4.571.587-1.49.978-3.08 2.25-4.372a.295.295 0 01.39 0c.098.1.098.1.098.199zm.489-18.78c.196 1.392-.391 2.286-.88 3.379l-1.467 2.98A27.474 27.474 0 0168.45 93.7c-.587.994-1.076 1.988-2.347 2.584-.196.1-.293 0-.391-.1v-.099c-.196-1.391.39-2.285.88-3.378l1.467-2.981a27.483 27.483 0 011.662-2.882c.587-.993 1.076-1.987 2.347-2.583.098-.1.293 0 .391.199zm-11.637 20.569c-.195 2.285-1.173 4.173-2.053 6.061-.88 1.888-1.76 3.875-2.64 5.763-.978 1.888-1.858 3.776-2.934 5.664-.978 1.888-1.858 3.775-3.52 5.365-.098.1-.293.1-.391 0-.098-.099-.098-.099-.098-.198.196-2.286 1.173-4.174 2.054-6.062.88-1.888 1.76-3.875 2.64-5.763.978-1.888 1.858-3.775 2.933-5.663.978-1.888 1.858-3.776 3.52-5.366a.295.295 0 01.392 0c.097 0 .097.099.097.199zm-7.725-4.472c-.097 1.391-.88 2.186-1.564 3.081-.685.894-1.37 1.788-2.054 2.583-.684.894-1.466 1.689-2.249 2.484-.782.795-1.466 1.689-2.738 1.987-.195 0-.293-.099-.39-.198v-.1c.097-1.391.88-2.186 1.564-3.08.684-.894 1.369-1.788 2.053-2.583.685-.895 1.467-1.69 2.25-2.484.782-.795 1.466-1.69 2.737-1.988.196-.099.391 0 .391.298 0-.099 0-.099 0 0zm9.681-17.09c-.782 1.292-1.956 1.69-3.031 2.285-.978.696-2.054 1.193-3.227 1.69-1.076.496-2.25.993-3.325 1.49-1.173.497-2.249.994-3.618.795-.195 0-.293-.199-.293-.298v-.1c.782-1.291 1.956-1.689 3.031-2.285 1.076-.596 2.152-1.192 3.227-1.69 1.076-.496 2.25-.993 3.325-1.49 1.173-.496 2.249-.993 3.618-.794.196 0 .293.198.293.298.098.099 0 .099 0 .099zm-17.112 8.943c-1.37 1.49-3.031 2.186-4.694 3.08l-4.987 2.385c-1.662.794-3.422 1.49-5.085 2.186-1.662.695-3.324 1.49-5.378 1.589-.195 0-.293-.099-.293-.298 0-.099 0-.099.098-.198 1.368-1.49 3.03-2.186 4.693-3.08l4.987-2.385c1.663-.795 3.423-1.49 5.085-2.186s3.325-1.49 5.378-1.59c.196 0 .294.1.294.298 0 .1 0 .1-.098.199zm-.391-9.738c-2.054 1.391-4.205 1.888-6.454 2.584-2.151.695-4.4 1.291-6.65 1.887-2.249.597-4.4 1.093-6.649 1.69-2.249.496-4.4 1.192-6.845.993-.098 0-.293-.1-.195-.298 0-.1.097-.199.097-.199 2.054-1.39 4.205-1.888 6.454-2.583 2.151-.696 4.4-1.292 6.65-1.888 2.249-.596 4.4-1.093 6.649-1.69 2.249-.496 4.4-1.191 6.845-.993.098 0 .293.1.196.298 0 .1 0 .199-.098.199zm-.783-8.645c-1.369.696-2.542.497-3.813.497-1.272 0-2.543-.1-3.814-.198-1.271-.1-2.542-.299-3.716-.497-1.27-.199-2.542-.199-3.716-1.193-.097-.099-.195-.298-.097-.397l.097-.1c1.37-.695 2.543-.496 3.814-.496s2.542.1 3.814.198c1.27.1 2.542.299 3.715.497 1.272.199 2.543.199 3.716 1.193.098.099.196.298.098.397-.098 0-.098.1-.098.1zm22.98 3.876c-1.467.596-2.836.397-4.303.298-1.369-.1-2.835-.199-4.204-.398l-4.107-.596c-1.37-.199-2.738-.298-4.107-1.292-.098-.099-.196-.298-.098-.397l.098-.1c1.466-.596 2.835-.397 4.302-.297 1.37.099 2.836.198 4.205.397l4.107.596c1.369.199 2.738.298 4.107 1.292.098.1.196.298.098.397l-.098.1zm.391-5.565c-1.858-.198-3.325-1.093-4.791-1.888a104.17 104.17 0 01-4.498-2.583c-1.467-.894-2.934-1.789-4.4-2.782-1.468-.894-2.934-1.789-4.01-3.379-.098-.099-.098-.298.098-.397.097 0 .097-.1.195 0 1.858.199 3.325 1.093 4.792 1.888a104.17 104.17 0 014.498 2.583c1.467.895 2.934 1.789 4.4 2.782 1.467.895 2.934 1.789 4.01 3.379.097.1.097.298-.098.397-.098-.1-.196 0-.196 0zm-27.966-8.048c-1.76.199-3.13-.497-4.596-.994a55.585 55.585 0 01-4.303-1.689 80.902 80.902 0 01-4.303-1.888c-1.369-.695-2.835-1.192-4.009-2.484a.306.306 0 010-.397s.098-.1.196-.1c1.76-.198 3.129.497 4.596.994a55.545 55.545 0 014.302 1.69 80.902 80.902 0 014.303 1.887c1.369.695 2.836 1.192 4.009 2.484.098.1.098.298 0 .398-.098 0-.098.099-.195.099zm6.844-5.266c-1.76-.398-3.129-1.391-4.498-2.286a59.03 59.03 0 01-4.009-2.881c-1.271-.994-2.64-1.987-3.911-2.981-1.272-.994-2.64-1.987-3.52-3.577-.098-.1 0-.298.097-.398h.196c1.76.298 3.031 1.391 4.4 2.286a59.03 59.03 0 014.01 2.881c1.27.994 2.64 1.987 3.91 2.981 1.272.994 2.641 1.987 3.521 3.577.098.1 0 .298-.098.398h-.098zm14.277-.795c-1.565-.994-2.347-2.484-3.325-3.875a63.217 63.217 0 01-2.738-4.273c-.88-1.49-1.76-2.882-2.542-4.372-.782-1.49-1.76-2.882-1.956-4.77 0-.198.098-.297.196-.297h.195c1.565.993 2.347 2.484 3.325 3.875a63.14 63.14 0 012.738 4.272c.88 1.49 1.76 2.882 2.542 4.372.783 1.49 1.76 2.882 1.956 4.77 0 .198-.097.298-.195.298h-.196z" fill="#00A32A"/><path d="M135.628 30.902c-.684-1.093-.586-2.087-.586-3.08 0-.994.097-1.988.097-2.981.098-.994.196-1.987.392-2.981.195-.994.195-1.987 1.075-2.98.098-.1.293-.1.489 0v.099c.685 1.093.587 2.086.587 3.08 0 .993-.098 1.987-.098 2.98-.098.994-.196 1.988-.391 2.981-.196.994-.196 1.988-1.076 2.981-.195 0-.391 0-.489-.099zm4.009-5.962c-.195-1.59.489-2.881.978-4.272.489-1.292 1.076-2.683 1.565-3.975.587-1.292 1.173-2.583 1.858-3.875.684-1.292 1.173-2.583 2.444-3.577.098-.1.294-.1.392.1 0 0 0 .099.097.099.196 1.59-.489 2.881-.977 4.272-.489 1.292-1.076 2.683-1.565 3.975-.587 1.291-1.173 2.583-1.858 3.875-.684 1.292-1.173 2.583-2.445 3.577-.097.1-.293.1-.391-.1l-.098-.099zm1.076 5.465c.685-1.689 1.858-2.683 3.031-3.875 1.174-1.192 2.347-2.285 3.521-3.378a102.772 102.772 0 013.618-3.18c1.271-.994 2.347-2.186 4.107-2.683.098 0 .293 0 .293.199v.199c-.684 1.689-1.858 2.683-3.031 3.875-1.174 1.192-2.347 2.285-3.52 3.378a103.597 103.597 0 01-3.619 3.18c-1.271.993-2.346 2.186-4.107 2.683-.097 0-.293 0-.293-.199v-.199zM150.785 15.7c-.196-1.192.391-1.887.782-2.682.391-.795.88-1.49 1.369-2.286.489-.695.978-1.39 1.565-2.086.489-.696.978-1.49 2.053-1.789.196 0 .391.1.391.199.196 1.192-.391 1.888-.782 2.683-.391.795-.88 1.49-1.369 2.285-.489.696-.978 1.391-1.564 2.087-.489.695-.978 1.49-2.054 1.788-.195.1-.391 0-.391-.198zm12.517 9.54c.391-.994 1.075-1.193 1.662-1.59a37.81 37.81 0 011.956-.895 15.357 15.357 0 011.955-.695c.685-.199 1.272-.497 2.249-.1.196.1.294.299.196.497-.391.994-1.076 1.193-1.662 1.59-.587.298-1.272.596-1.956.894-.685.298-1.271.497-1.956.696-.684.198-1.271.497-2.249.1-.195-.1-.293-.299-.195-.498zm-14.277 7.153c.587-1.093 1.564-1.39 2.445-1.887.88-.398 1.76-.895 2.738-1.193.88-.397 1.857-.695 2.835-.993.978-.299 1.858-.696 3.032-.398.195.1.293.199.195.398v.099c-.587 1.093-1.564 1.391-2.444 1.888-.881.397-1.761.894-2.738 1.192-.88.398-1.858.696-2.836.994-.978.298-1.858.695-3.032.397-.195 0-.293-.198-.195-.497 0 .1 0 .1 0 0zm11.832 2.485c.782-.795 1.564-.795 2.347-.895.782-.1 1.564-.1 2.444-.198.783 0 1.565 0 2.445.099.782.1 1.565 0 2.445.795.097.1.097.397 0 .497-.783.795-1.565.795-2.347.894-.782.1-1.565.1-2.445.199-.782 0-1.564 0-2.444-.1-.783-.1-1.565 0-2.445-.795-.098-.099-.098-.298 0-.496zm-19.068 2.384c1.075-.397 1.858 0 2.738.298.782.299 1.662.597 2.444.994l2.347 1.192c.783.398 1.565.696 2.054 1.789.098.199 0 .397-.196.397-1.075.398-1.858 0-2.738-.298-.782-.298-1.662-.596-2.444-.993l-2.347-1.193c-.783-.397-1.565-.695-2.054-1.788 0-.1 0-.298.196-.398zm-3.912 2.584c1.076.596 1.369 1.59 1.76 2.484.392.894.783 1.788 1.174 2.782.391.894.684 1.888.978 2.882.293.993.684 1.887.293 3.08-.098.199-.195.298-.391.199h-.098c-1.075-.597-1.369-1.59-1.76-2.485-.391-.894-.782-1.788-1.173-2.782-.392-.894-.685-1.888-.978-2.881-.294-.994-.685-1.888-.294-3.08.098-.2.294-.299.489-.2z" fill="#1689db"/><path d="M146.58 45.508l7.921 11.824z" fill="#C475BD"/><path d="M146.776 45.31c1.271.496 1.956 1.59 2.64 2.484.685.993 1.369 1.888 2.054 2.881a31.906 31.906 0 011.857 3.08c.587.994 1.272 1.988 1.369 3.379 0 .199-.097.298-.293.298h-.098c-1.271-.497-1.955-1.59-2.64-2.484-.684-.994-1.369-1.888-2.053-2.882a31.713 31.713 0 01-1.858-3.08c-.587-.993-1.272-1.987-1.369-3.378 0-.199.097-.298.293-.298h.098zm-13.886-3.876c.391 1.094 0 1.789-.195 2.485-.294.795-.489 1.49-.783 2.285-.293.696-.684 1.49-1.075 2.186-.391.695-.587 1.49-1.663 1.888-.195.1-.391 0-.488-.199-.392-1.093 0-1.788.195-2.484.293-.795.489-1.49.782-2.285.294-.696.685-1.49 1.076-2.186s.587-1.49 1.662-1.888c.196-.1.392 0 .489.199z" fill="#1689db"/><path d="M123.014 49.78c-.489 1.293-1.369 1.889-2.249 2.584-.88.696-1.76 1.391-2.64 1.988-.88.596-1.858 1.192-2.738 1.788-.978.596-1.76 1.292-3.129 1.193-.196 0-.294-.1-.294-.299v-.099c.489-1.292 1.369-1.888 2.249-2.583.88-.696 1.76-1.391 2.64-1.988.881-.596 1.858-1.192 2.738-1.788.978-.596 1.761-1.292 3.13-1.193.195 0 .293.1.293.398 0-.1 0-.1 0 0z" fill="#3895BA"/><path d="M119.103 43.521c-.392 1.093-1.174 1.391-1.858 1.888-.685.397-1.467.894-2.249 1.192-.783.398-1.565.696-2.347.994-.783.298-1.467.795-2.64.397-.196-.099-.294-.198-.196-.397.391-1.093 1.173-1.391 1.858-1.888.684-.397 1.467-.894 2.249-1.192.782-.398 1.565-.696 2.347-.994.782-.298 1.467-.795 2.64-.397.196 0 .293.198.196.397zm11.734-5.862c-.391 1.093-1.076 1.291-1.76 1.689-.685.397-1.369.695-2.054.994-.684.298-1.369.596-2.151.794-.685.2-1.369.596-2.445.2-.195-.1-.293-.299-.195-.498.391-1.093 1.075-1.291 1.76-1.689.684-.397 1.369-.695 2.053-.993.685-.299 1.369-.597 2.152-.795.684-.2 1.369-.597 2.444-.2.196.1.294.299.196.498zm-7.53-6.856c-1.466.397-2.738-.1-3.911-.398-1.271-.298-2.542-.695-3.716-.994a54.964 54.964 0 01-3.716-1.291c-1.173-.497-2.444-.795-3.52-1.888a.305.305 0 010-.398l.098-.099c1.467-.397 2.738.1 3.911.398 1.271.298 2.543.695 3.716.993 1.271.398 2.445.795 3.716 1.292 1.173.497 2.444.795 3.52 1.888.098.1.098.298 0 .397l-.098.1zm-7.138-9.837c-1.173.298-1.858-.2-2.738-.597l-2.347-1.192a17.22 17.22 0 01-2.249-1.39c-.782-.498-1.564-.895-1.956-1.988-.097-.199 0-.398.196-.398 1.173-.298 1.858.2 2.738.597l2.347 1.192c.782.397 1.564.894 2.249 1.391.782.497 1.564.894 1.956 1.987.097.1 0 .298-.196.398zm13.299 8.147c-1.174-.397-1.76-1.291-2.347-2.086a53.752 53.752 0 01-1.76-2.484 36.269 36.269 0 01-1.565-2.584c-.489-.894-1.075-1.689-.978-2.98 0-.2.196-.299.294-.299h.098c1.173.398 1.76 1.292 2.346 2.087.587.795 1.174 1.59 1.761 2.484.586.894 1.075 1.69 1.564 2.583.489.895 1.076 1.69.978 2.981 0 .2-.098.298-.391.298zm-6.258-15.202c-1.174-.398-1.565-1.192-2.152-1.888-.489-.695-1.075-1.49-1.564-2.285-.489-.795-.88-1.59-1.369-2.385-.391-.795-.978-1.59-.783-2.782 0-.199.196-.298.392-.298 1.173.298 1.564 1.192 2.151 1.888.489.695 1.076 1.49 1.564 2.285.489.795.881 1.59 1.369 2.385.392.795.978 1.59.783 2.782 0 .199-.098.298-.391.298.097 0 .097 0 0 0zm8.311 1.093c-.782-.894-.782-1.888-.88-2.882-.098-.993-.195-1.887-.195-2.881V6.359c0-.993 0-1.888.684-2.881.098-.1.294-.199.489-.1.782.895.782 1.888.88 2.882.098.994.196 1.888.196 2.881v2.882c0 .994 0 1.888-.685 2.882-.195.298-.391.298-.489.099 0 .1 0 .1 0 0zm5.379-2.584c-.685-1.092-.489-2.185-.392-3.18.098-.993.098-2.086.196-3.08.098-.993.293-2.086.489-3.08.195-.993.195-2.086 1.173-2.98.098-.1.294-.1.391 0v.099c.685 1.093.489 2.186.489 3.18-.097.993-.097 2.086-.195 3.08-.098.993-.294 2.086-.489 3.08-.196.994-.196 2.087-1.174 2.98-.097.1-.293.1-.488-.099z" fill="#1689db"/><path d="M201.633 68.66c.88-1.59 2.249-2.484 3.521-3.379 1.271-.993 2.64-1.887 3.911-2.881l4.107-2.683c1.369-.894 2.64-1.788 4.498-2.087.196 0 .294.1.294.2v.198c-.881 1.59-2.25 2.484-3.521 3.378-1.271.994-2.64 1.888-3.911 2.882l-4.107 2.683c-1.369.894-2.64 1.788-4.498 2.086-.196 0-.294-.1-.294-.198v-.2zm-21.904 13.414c.881-1.59 2.25-2.385 3.423-3.379 1.271-.993 2.542-1.887 3.814-2.782a55.548 55.548 0 014.009-2.583c1.369-.795 2.64-1.789 4.4-1.987.196 0 .293.099.293.198v.2c-.88 1.589-2.249 2.384-3.422 3.377-1.271.994-2.542 1.888-3.814 2.783a55.514 55.514 0 01-4.009 2.583c-1.369.795-2.64 1.789-4.4 1.987-.196 0-.294-.1-.294-.198-.097-.1-.097-.2 0-.2zm26.794-4.471c.88-.994 2.053-1.193 3.031-1.49 1.076-.299 2.151-.597 3.227-.796l3.227-.596c1.075-.199 2.151-.398 3.422.1.196.099.196.297.196.397 0 0 0 .1-.098.1-.88.993-2.053 1.192-3.031 1.49-1.076.298-2.152.596-3.227.794l-3.227.597c-1.076.198-2.151.397-3.423-.1-.195 0-.195-.198-.097-.496-.098.099 0 .099 0 0zm-22.002 8.247c1.662-.596 3.129-.398 4.694-.298 1.564.099 3.129.298 4.693.397 1.565.199 3.129.398 4.596.596 1.565.199 3.129.298 4.596 1.292.098.1.196.298.098.397 0 .1-.098.1-.098.1-1.662.596-3.129.397-4.694.298-1.564-.1-3.129-.298-4.693-.398a572.263 572.263 0 01-4.596-.596c-1.565-.199-3.129-.298-4.596-1.291-.098-.1-.196-.299-.098-.398l.098-.1zm24.837-.696c1.174-.596 2.152-.397 3.227-.298 1.076.1 2.054.199 3.129.298.978.199 2.054.398 3.032.596.978.199 2.053.298 2.933 1.292.098.1.098.298 0 .397h-.097c-1.174.597-2.152.398-3.227.299-1.076-.1-2.054-.2-3.129-.299-.978-.198-2.054-.397-3.032-.596-.978-.199-2.053-.298-2.933-1.291-.098 0-.098-.2.097-.398-.097.1-.097.1 0 0zm-4.009 9.738c1.369-.298 2.347.198 3.521.496 1.075.398 2.151.696 3.226 1.193 1.076.397 2.152.894 3.13 1.39 1.075.498 2.151.895 2.933 1.988.098.1.098.298-.098.398h-.097c-1.369.298-2.347-.199-3.521-.497-1.075-.398-2.151-.696-3.227-1.192a30.054 30.054 0 01-3.129-1.392c-1.075-.496-2.151-.894-2.933-1.987-.098 0-.098-.199.195-.397-.098.099-.098.099 0 0zm-17.014-.596c1.466.099 2.346.794 3.324 1.49.978.695 1.956 1.292 2.934 2.087.978.695 1.858 1.49 2.836 2.285.88.795 1.858 1.391 2.346 2.782.098.199 0 .298-.195.398h-.098c-1.467-.1-2.347-.795-3.325-1.491-.977-.695-1.955-1.292-2.933-2.087-.978-.695-1.858-1.49-2.836-2.285-.88-.795-1.858-1.391-2.347-2.782-.098-.199 0-.298.196-.397h.098zm10.854 17.587c1.075.099 1.467.695 1.955 1.192.489.497.978 1.093 1.369 1.59.489.596.881 1.192 1.272 1.788.391.597.88 1.093.684 2.186 0 .199-.195.299-.391.299-1.076-.1-1.467-.696-1.956-1.193a19.763 19.763 0 01-1.369-1.59c-.489-.596-.88-1.192-1.271-1.788-.391-.596-.88-1.093-.684-2.186 0-.199.195-.298.391-.298zm-17.993-.497c1.076.497 1.271 1.391 1.663 2.087.391.794.684 1.589 1.075 2.384.294.795.587 1.59.783 2.484.195.795.586 1.59.195 2.683-.098.199-.293.298-.391.199-1.076-.497-1.271-1.391-1.662-2.087-.392-.795-.685-1.59-1.076-2.384-.293-.795-.587-1.59-.782-2.485-.196-.794-.587-1.589-.196-2.682 0-.199.196-.298.391-.199zm5.574-8.744c1.173.497 1.662 1.49 2.249 2.385.587.894 1.174 1.788 1.662 2.683.489.894.978 1.887 1.467 2.782.489.993 1.076 1.888.88 3.179 0 .199-.195.298-.391.298h-.098c-1.173-.496-1.662-1.49-2.249-2.384-.586-.895-1.173-1.789-1.662-2.683-.489-.894-.978-1.888-1.467-2.782-.489-.994-1.075-1.888-.88-3.18.098-.199.293-.397.489-.298zm-9.387-11.129c1.075.696 1.369 1.789 1.76 2.683l1.173 2.981c.294.994.685 1.987.88 2.981.294.994.685 1.987.294 3.279-.098.199-.196.298-.392.199h-.097c-1.076-.696-1.369-1.789-1.76-2.683l-1.174-2.981c-.293-.994-.684-1.987-.88-2.981-.293-.994-.684-1.987-.293-3.279.097-.199.293-.298.489-.199 0-.099 0-.099 0 0zm-5.379-1.49c.196 1.391-.391 2.484-.88 3.577l-1.466 3.279a32.38 32.38 0 01-1.663 3.18c-.586 1.093-1.075 2.186-2.249 2.881-.098.099-.293 0-.391-.099v-.1c-.196-1.391.391-2.484.88-3.577l1.467-3.279a32.525 32.525 0 011.662-3.18c.587-1.092 1.076-2.185 2.249-2.88.098-.1.294 0 .391.099v.099zm-1.173 22.456c.489 1.093.196 1.987 0 2.981-.196.894-.391 1.888-.587 2.782-.195.894-.489 1.789-.88 2.782-.293.894-.489 1.888-1.467 2.584-.097.099-.391.099-.488-.1-.489-1.093-.196-1.987 0-2.981.195-.894.391-1.888.586-2.782.196-.894.489-1.788.88-2.782.294-.894.489-1.888 1.467-2.583.196-.1.391-.1.489.099zm-6.649-4.273c0 1.789-.783 3.279-1.369 4.77-.587 1.49-1.272 2.981-1.956 4.471-.685 1.491-1.467 2.882-2.151 4.372-.783 1.391-1.369 2.981-2.836 4.074-.098.099-.294.099-.391 0 0-.099-.098-.099-.098-.199 0-1.788.782-3.279 1.369-4.769.587-1.491 1.271-2.981 1.956-4.472.684-1.49 1.466-2.881 2.151-4.372.782-1.391 1.369-2.98 2.836-4.073.097-.1.293-.1.391 0 .098.099.098.099.098.198zm-5.77-7.452c-.098 1.192-.782 1.888-1.369 2.584-.586.695-1.173 1.391-1.858 2.086-.586.696-1.271 1.292-1.955 1.987-.685.597-1.272 1.391-2.445 1.491-.196 0-.293-.099-.391-.298.098-1.193.782-1.888 1.369-2.584.587-.695 1.173-1.391 1.858-2.086.587-.696 1.271-1.292 1.956-1.988.684-.596 1.271-1.391 2.444-1.49.293 0 .391.099.391.298zm-5.476-8.843c-1.075 1.39-2.542 1.888-3.911 2.583-1.369.696-2.738 1.292-4.107 1.987a74.303 74.303 0 01-4.205 1.69c-1.467.496-2.836 1.192-4.498 1.093-.196 0-.293-.1-.293-.298 0-.1 0-.1.097-.2 1.076-1.39 2.543-1.887 3.912-2.583 1.369-.695 2.738-1.291 4.107-1.987a74.3 74.3 0 014.205-1.689c1.466-.497 2.835-1.192 4.498-1.093.195 0 .293.1.293.298 0 .1 0 .199-.098.199zm16.135-5.465c-.587 1.093-1.565 1.39-2.445 1.788-.88.398-1.76.795-2.64 1.093-.88.298-1.76.597-2.738.895-.88.298-1.76.695-2.934.198-.195-.099-.293-.198-.195-.397v-.1c.587-1.093 1.564-1.39 2.445-1.788.88-.398 1.76-.795 2.64-1.093a90.84 90.84 0 012.738-.894c.88-.298 1.76-.696 2.933-.199.196.1.294.298.196.497zm-18.677-6.558c-1.662.397-3.129 0-4.596-.298s-2.934-.596-4.4-.994l-4.401-1.192c-1.466-.398-2.933-.696-4.204-1.888a.305.305 0 010-.398l.097-.099c1.663-.397 3.129 0 4.596.298s2.934.596 4.401.994l4.4 1.192c1.467.398 2.933.696 4.205 1.888.097.1.097.298 0 .397l-.098.1zm15.157 3.08c-1.076.596-1.956.298-2.836.1-.88-.2-1.76-.299-2.64-.597-.88-.198-1.761-.496-2.641-.795-.88-.298-1.76-.496-2.444-1.49-.098-.199-.098-.398.098-.497 1.075-.596 1.955-.298 2.835-.1.88.2 1.76.299 2.641.597.88.199 1.76.497 2.64.795.88.298 1.76.497 2.444 1.49.196.1.098.298-.097.497zM147.46 70.25c-1.173.298-1.955-.2-2.738-.597-.782-.397-1.662-.794-2.444-1.192-.783-.397-1.565-.894-2.347-1.391s-1.565-.894-1.956-1.987c-.098-.199 0-.398.196-.398 1.173-.298 1.955.199 2.738.596.782.398 1.662.795 2.444 1.193.783.397 1.565.894 2.347 1.39.782.498 1.565.895 1.956 1.988.098.1 0 .298-.196.398zm23.664 7.551c-1.466-.298-2.346-1.192-3.324-1.987-.978-.795-1.956-1.69-2.836-2.484-.88-.894-1.858-1.789-2.738-2.683-.88-.894-1.858-1.69-2.249-3.18 0-.198.098-.298.195-.397h.098c1.467.298 2.347 1.192 3.325 1.987.978.795 1.956 1.69 2.836 2.484.88.895 1.858 1.789 2.738 2.683.88.894 1.858 1.69 2.249 3.18 0 .199-.098.298-.196.397h-.098zm-14.276-10.83c-1.467-.298-2.347-1.193-3.325-2.087-.978-.795-1.858-1.69-2.836-2.583-.88-.895-1.76-1.789-2.64-2.783-.88-.894-1.858-1.788-2.151-3.279 0-.198.098-.298.195-.397h.098c1.467.298 2.347 1.192 3.325 2.087.978.794 1.858 1.689 2.836 2.583.88.894 1.76 1.789 2.64 2.782.88.895 1.858 1.789 2.151 3.28 0 .198-.098.297-.196.397h-.097zm7.431-10.334c-1.369-1.093-2.053-2.484-2.738-3.875-.782-1.391-1.466-2.782-2.151-4.173a83.467 83.467 0 01-1.956-4.273c-.586-1.49-1.369-2.882-1.369-4.57 0-.2.098-.299.294-.299.098 0 .098 0 .195.1 1.369 1.093 2.054 2.484 2.738 3.875.783 1.39 1.467 2.782 2.152 4.173a82.593 82.593 0 011.955 4.273c.587 1.49 1.369 2.881 1.369 4.57 0 .199-.097.298-.293.298-.098 0-.196 0-.196-.1zm8.899 14.706c-1.076-.994-1.271-2.286-1.662-3.478-.392-1.192-.685-2.385-.978-3.577-.294-1.192-.489-2.385-.783-3.677-.195-1.192-.586-2.384-.097-3.775.097-.2.195-.2.391-.2 0 0 .098 0 .098.1 1.075.994 1.271 2.286 1.662 3.478.391 1.192.684 2.385.978 3.577.293 1.192.489 2.385.782 3.677.196 1.192.587 2.384.098 3.775-.098.199-.196.199-.391.199 0-.1-.098-.1-.098-.1zm3.716-21.86c-.783-1.093-.783-2.087-.783-3.18-.097-1.093-.097-2.086-.097-3.18 0-1.092 0-2.086.097-3.18.098-1.092 0-2.086.783-3.179.097-.1.293-.198.391-.1l.098.1c.782 1.093.782 2.087.782 3.18.098 1.093.098 2.087.098 3.18s0 2.086-.098 3.18c-.098 1.092 0 2.086-.782 3.179-.098.1-.294.1-.489 0 .097 0 .097 0 0 0zm-.587 26.033c-.293-1.391.196-2.285.587-3.379.391-.993.782-2.086 1.271-3.08l1.467-2.98c.489-.994.88-1.988 2.053-2.683.098-.1.294 0 .391.099v.1c.294 1.39-.195 2.285-.586 3.378-.392.993-.783 2.086-1.272 3.08l-1.466 2.98c-.489.994-.88 1.988-2.054 2.684-.098 0-.293 0-.391-.2zm8.312-20.37c-.391-.993-.098-1.49.098-2.185.195-.597.488-1.292.782-1.888.293-.597.587-1.193.978-1.789.391-.596.586-1.192 1.564-1.49.196 0 .391 0 .489.198.391.994.098 1.49-.098 2.186a15.387 15.387 0 01-.782 1.888c-.293.596-.587 1.193-.978 1.789-.391.596-.586 1.192-1.564 1.49-.196.1-.391 0-.489-.198zm1.662 10.036c-.195-1.292.391-2.087.88-2.98.489-.895.88-1.69 1.467-2.584a36.943 36.943 0 011.662-2.484c.587-.795.978-1.69 2.152-2.087.195-.1.391 0 .391.199v.1c.195 1.29-.391 2.086-.88 2.98-.489.894-.88 1.69-1.467 2.584a36.943 36.943 0 01-1.662 2.484c-.587.795-.978 1.689-2.152 2.086-.195 0-.293-.1-.391-.298zm10.268-8.446c.293-1.39 1.075-2.186 1.857-2.98.783-.895 1.565-1.69 2.347-2.485.783-.795 1.663-1.59 2.543-2.384.88-.795 1.662-1.59 3.031-1.888.196 0 .293.1.391.198v.1c-.293 1.39-1.075 2.186-1.858 2.98-.782.895-1.564 1.69-2.347 2.485-.782.795-1.662 1.59-2.542 2.385-.88.794-1.662 1.59-3.031 1.887-.196 0-.294-.099-.391-.198v-.1z" fill="#F283AA"/><path d="M225.786 50.377l-2.053-4.372 2.053 4.372z" fill="#fff"/><path d="M225.591 50.377c-.587-.199-.685-.497-.978-.894-.196-.298-.391-.696-.587-1.093-.195-.398-.293-.696-.489-1.093-.097-.398-.293-.696-.097-1.292l.293-.1c.587.2.684.498.978.895.195.298.391.696.587 1.093.195.398.293.696.488 1.093.098.398.294.696.098 1.292l-.293.1z" fill="#F0C930"/><path d="M222.559 49.185l4.303-2.087-4.303 2.087z" fill="#fff"/><path d="M222.559 49.085c.196-.596.489-.695.881-.993.293-.2.684-.398 1.075-.597.391-.198.685-.298 1.076-.496.391-.1.684-.299 1.271-.1l.098.298c-.196.596-.489.696-.88.994-.294.199-.685.397-1.076.596-.391.199-.684.298-1.076.497-.391.1-.684.298-1.271.1l-.098-.299z" fill="#F0C930"/><path d="M4.792 106.02l.88-1.689c.098-.298-.196-.596-.49-.497l-1.661.994-1.467-1.391c-.196-.199-.587 0-.587.298l.391 1.987-1.662.895c-.294.198-.196.596.098.596l1.858.198.39 2.087c.098.298.49.398.685.099l.782-1.887 2.054.298c.293 0 .489-.398.293-.597l-1.564-1.391z" fill="#006088"/><path d="M80.086 4.77l.685-1.292c.097-.199-.098-.497-.391-.298l-1.272.695-1.075-.993c-.196-.2-.49 0-.391.198l.293 1.49-1.271.696c-.196.1-.196.497.098.497l1.368.1.294 1.59c0 .297.391.297.489.099l.587-1.49 1.564.198c.294 0 .391-.298.196-.497l-1.174-.994z" fill="#F0C930"/><path d="M238.303 56.935l.88-1.788c.196-.299-.196-.597-.489-.497l-1.76.993-1.467-1.39c-.293-.2-.587 0-.587.297l.392 1.988-1.663.993c-.293.199-.195.596.098.696l1.858.199.391 2.086c.098.298.489.398.685.1l.88-1.988 2.053.298c.294 0 .489-.397.294-.596l-1.565-1.391z" fill="#8C8F94"/><path d="M193.126 5.564l1.565-3.279c.293-.596-.294-1.192-.88-.794l-3.129 1.788-2.738-2.484c-.489-.397-1.174 0-1.076.596l.684 3.677-3.129 1.788c-.586.298-.391 1.093.294 1.193l3.422.298.685 3.875c.097.596.977.695 1.173.1l1.565-3.578 3.813.497c.587.1.978-.696.489-1.093l-2.738-2.584zM137.975 151.53c0-1.093.196-2.286.294-3.379.293-1.888.684-3.775 1.271-5.663a51.998 51.998 0 012.053-5.465 37.447 37.447 0 012.738-5.167c2.054-3.279 4.498-6.359 7.53-8.843l-.196-.199c-3.227 2.186-5.965 5.266-8.116 8.545s-3.814 6.955-4.987 10.831c-.587 1.888-1.076 3.875-1.369 5.862-.196 1.192-.293 2.385-.391 3.577h1.173v-.099z" fill="#006088"/><path d="M242.997 111.684c.81 0 1.466-.667 1.466-1.49s-.656-1.491-1.466-1.491a1.48 1.48 0 00-1.467 1.491c0 .823.657 1.49 1.467 1.49z" fill="#C475BD"/><path d="M125.947 147.952c.783 1.888 2.054 3.676 3.521 5.167.88.993 1.955 1.888 2.933 2.782h2.054c-1.369-1.193-2.836-2.286-4.009-3.577-1.369-1.391-2.543-3.081-3.325-4.77-.782-1.788-1.271-3.676-1.565-5.564-.293-1.888-.489-3.875-.489-5.763 0-1.987.098-3.875.392-5.862a30.094 30.094 0 011.173-5.764c1.076-3.775 2.64-7.452 4.987-10.731l-.196-.198c-2.64 3.08-4.498 6.856-5.671 10.631a40.74 40.74 0 00-1.76 11.825c0 1.987.195 3.974.489 5.961a20.616 20.616 0 001.466 5.863zm-15.841-14.01c1.369 3.08 2.249 6.359 2.836 9.638a44.81 44.81 0 01.587 5.067c.098 1.689.098 3.379-.098 5.068-.098.695-.196 1.292-.293 1.987l1.173.298c.098-.695.293-1.49.293-2.186a23.654 23.654 0 000-5.266c-.097-1.689-.391-3.478-.684-5.167-.685-3.378-1.565-6.757-3.129-9.936-.783-1.59-1.565-3.08-2.64-4.472-1.076-1.391-2.25-2.682-3.619-3.577l-.195.199c1.271 1.093 2.347 2.385 3.227 3.776a16.329 16.329 0 012.542 4.571z" fill="#006088"/><path d="M93.19 145.269l-3.52-7.552 3.52 7.552z" fill="#fff"/><path d="M92.896 145.368c-.978-.298-1.271-.894-1.564-1.49-.392-.596-.685-1.193-.978-1.789a15.373 15.373 0 01-.783-1.888c-.195-.695-.586-1.291-.097-2.186l.489-.198c.977.298 1.27.894 1.564 1.49.391.596.685 1.192.978 1.789.293.596.587 1.291.782 1.888.196.695.587 1.291.098 2.186l-.489.198z" fill="#F0C930"/><path d="M87.713 143.281l7.432-3.577-7.431 3.577z" fill="#fff"/><path d="M87.616 142.984c.293-.994.88-1.292 1.466-1.59.587-.398 1.174-.696 1.76-.994a14.978 14.978 0 011.859-.795c.684-.198 1.27-.596 2.15-.099l.196.497c-.293.993-.88 1.291-1.466 1.59-.587.397-1.174.695-1.76.993a14.97 14.97 0 01-1.858.795c-.685.199-1.272.596-2.152.099l-.195-.496z" fill="#F0C930"/><path d="M9.974 30.306c.81 0 1.467-.668 1.467-1.49 0-.824-.657-1.491-1.467-1.491s-1.467.667-1.467 1.49.657 1.49 1.467 1.49z" fill="#C475BD"/><path d="M30.314 109.796c.293-1.292 1.173-1.788 1.955-2.484.782-.695 1.565-1.292 2.347-1.987.782-.596 1.662-1.192 2.445-1.789.88-.596 1.662-1.192 2.933-1.192.196 0 .294.099.294.298v.099c-.294 1.292-1.174 1.789-1.956 2.485-.782.695-1.565 1.291-2.347 1.987-.782.596-1.662 1.192-2.445 1.788-.88.596-1.662 1.193-2.933 1.193-.196 0-.293-.1-.293-.398 0 .1 0 .1 0 0z" fill="#00A32A"/></g><defs><clipPath id="clip0"><path fill="#fff" d="M0 0h244.463v156H0z"/></clipPath></defs></svg>