<svg fill="none" height="105" viewBox="0 0 140 105" width="140" xmlns="http://www.w3.org/2000/svg" xmlns:xlink="http://www.w3.org/1999/xlink"><linearGradient id="illustration-seller-a"><stop offset="0" stop-color="#e9e9e9"/><stop offset="1" stop-color="#efefef"/></linearGradient><linearGradient id="illustration-seller-b" gradientUnits="userSpaceOnUse" x1="5.32243" x2="31.243" xlink:href="#illustration-seller-a" y1="50.208" y2="50.208"/><linearGradient id="illustration-seller-c" gradientUnits="userSpaceOnUse" x1="49.6345" x2="72.5609" xlink:href="#illustration-seller-a" y1="27.3676" y2="27.3676"/><linearGradient id="illustration-seller-d" gradientUnits="userSpaceOnUse" x1="89.0728" x2="111.999" xlink:href="#illustration-seller-a" y1="29.8319" y2="29.8319"/><linearGradient id="illustration-seller-e" gradientUnits="userSpaceOnUse" x1="48.5333" x2="71.4596" xlink:href="#illustration-seller-a" y1="60.025" y2="60.025"/><linearGradient id="illustration-seller-f" gradientUnits="userSpaceOnUse" x1="87.6406" x2="123.897" xlink:href="#illustration-seller-a" y1="81.0578" y2="80.9919"/><path d="m74.7611 38.9885-23.2069-1.4606c-.3245 0-.4868-.2434-.4868-.568v-15.6605c0-.3246.2434-.4869.4868-.4869l23.2069 1.4606c.3246 0 .4868.2434.4868.568v15.7417c0 .2434-.2434.4057-.4868.4057z" fill="#8bbece"/><path d="m113.872 41.4226-23.2064-1.4606c-.3246 0-.4869-.2434-.4869-.568v-15.6606c0-.3245.2434-.4868.4869-.4868l23.2064 1.4606c.325 0 .487.2434.487.568v15.7417c.081.2434-.162.4057-.487.4057z" fill="#8bbece"/><path d="m75.6538 71.2024-23.288-1.3795c-.3246 0-.4869-.2434-.4869-.568v-15.7417c0-.3245.2434-.4868.4869-.4868l23.288 1.3794c.3245 0 .4868.2434.4868.568v15.7417c0 .3246-.2434.568-.4868.4869z" fill="#8bbece"/><path d="m32.6481 30.6308-23.36916-1.4606c-.32457 0-.568-.2434-.568-.568s.24343-.568.568-.4869l23.36916 1.4606c.3246 0 .568.2434.568.568s-.2434.568-.568.4869z" fill="#8bbece"/><path d="m32.6481 37.4467-23.36916-1.4606c-.32457 0-.568-.2434-.568-.568s.24343-.568.568-.4868l23.36916 1.4605c.3246 0 .568.2435.568.568 0 .3246-.2434.568-.568.4869z" fill="#8bbece"/><path d="m32.9723 44.3441-23.36914-1.4605c-.32458 0-.568-.2435-.568-.568 0-.3246.24342-.568.568-.4869l23.36914 1.4606c.3246 0 .568.2434.568.568-.0811.2434-.3246.4868-.568.4868z" fill="#8bbece"/><path d="m20.8826 20.2445-9.2502-.568c-.7303-.0811-1.3795-.7303-1.3795-1.5417s.6492-1.3794 1.3795-1.3794l9.2502.568c.7303.0811 1.3795.7303 1.3795 1.5417 0 .8926-.6492 1.4606-1.3795 1.3794z" fill="#8bbece"/><path d="m8.30493 26.8984c-.24343.2435-.40571.6492-.40571 1.0549 0 .8926.64914 1.6228 1.54171 1.704l21.90857 1.3794v3.6514l-21.98971-1.3794c-.40572 0-.81143.1623-1.05486.4057-.24343.2435-.40571.6492-.40571 1.0549 0 .8925.64914 1.6228 1.54171 1.704l21.90857 1.3794v3.6514l-21.90857-1.3794c-.40571 0-.81143.1623-1.05486.4057-.24342.2435-.40571.6492-.40571 1.0549 0 .8925.64914 1.6228 1.54171 1.704l21.74633 1.3794v37.6503c0 .3246-.2435.4869-.4869.4869l-24.91085-1.5418c-.32458 0-.48686-.2434-.48686-.568v-60.9382c0-.3246.24343-.4869.48686-.4869l24.91085 1.5417c.3246 0 .4869.2434.4869.568v6.4914l-21.90861-1.3794c-.40572 0-.81143.1623-1.05486.4057z" fill="url(#illustration-seller-b)"/><path d="m122.636 16.3495-121.14674-7.54624v-1.37943l121.14674 7.54627z" fill="#003b62"/><path d="m121.581 91.5689-119.03689-7.4651c-.568 0-1.05485-.568-1.05485-1.136v-77.57261c0-.568.48685-1.05486 1.05485-1.05486l119.03689 7.46517c.568 0 1.055.568 1.055 1.136v77.5725c0 .6492-.487 1.0549-1.055 1.0549z" stroke="#003b62" stroke-linecap="round" stroke-linejoin="round" stroke-miterlimit="10" stroke-width="1.8"/><path d="m125.394 87.7554-2.84-.1623v-74.6515c0-.568-.487-1.136-1.055-1.136l-116.19627-7.22169v-2.92114c0-.568.48686-1.05486 1.05486-1.05486l119.03641 7.384c.568 0 1.055.568 1.055 1.136v77.57259c0 .6491-.487 1.0549-1.055 1.0549z" fill="#003b62"/><g stroke="#003b62" stroke-linecap="round" stroke-linejoin="round" stroke-miterlimit="10" stroke-width="1.8"><path d="m33.4595 29.5761c0 .4057-.1623.8114-.4057 1.0549-.2434.2434-.6492.4057-1.0549.4057l-22.63883-1.3795c-.81143-.0811-1.54171-.8114-1.54171-1.704 0-.4057.16229-.8114.40571-1.0548.24343-.2434.64915-.4057 1.05486-.4057l22.63887 1.3794c.8926.1623 1.5417.8926 1.5417 1.704z"/><path d="m33.4595 36.392c0 .4057-.1623.8114-.4057 1.0549-.2434.2434-.6492.4057-1.0549.4057l-22.63883-1.3794c-.81143-.0812-1.54171-.8115-1.54171-1.704 0-.4057.16229-.8115.40571-1.0549.32458-.2434.73029-.4057 1.136-.4057l22.63883 1.3794c.8115.0812 1.4606.8926 1.4606 1.704z"/><path d="m33.4595 43.2079c0 .4057-.1623.8115-.4057 1.0549s-.6492.4057-1.0549.4057l-22.63883-1.3794c-.81143-.0812-1.54171-.8115-1.54171-1.704 0-.4057.16229-.8114.40571-1.0549.24343-.2434.64915-.4057 1.05486-.4057l22.63887 1.3794c.8926.0812 1.5417.8926 1.5417 1.704z"/><path d="m76.4656 40.6926-29.8606-1.8663c-.3245 0-.4868-.2435-.4868-.568v-20.6103c0-.3246.2434-.4869.4868-.4869l29.8606 1.8663c.3246 0 .4869.2434.4869.568v20.6914c0 .2435-.2435.4869-.4869.4058z"/><path d="m21.0446 20.1634-11.36004-.7303c-.97372-.0812-1.78515-.9737-1.78515-2.0286 0-1.0548.81143-1.8663 1.78515-1.7851l11.36004.7302c.9737.0812 1.7851.9738 1.7851 2.0286 0 1.0549-.8114 1.8663-1.7851 1.7852z"/><path d="m2.13867 8.88428 120.49733 7.46512"/><path d="m38.2471 11.0752v75.3006"/><path d="m66.8096 36.96 7.5463.4057"/><path d="m46.0371 42.4775 18.5006 1.136"/><path d="m115.495 43.2078-29.8607-1.8663c-.3246 0-.4868-.2434-.4868-.568v-20.6914c0-.3246.2434-.4869.4868-.4869l29.8607 1.8663c.324 0 .487.2434.487.568v20.6914c0 .2435-.244.4869-.487.4869z"/><path d="m105.839 39.394 7.546.4869"/><path d="m85.0664 44.9121 18.5006 1.136"/><path d="m77.2771 72.906-29.8606-1.8663c-.3245 0-.4868-.2434-.4868-.568v-20.6914c0-.3246.2434-.4868.4868-.4868l29.8606 1.8662c.3246 0 .4869.2435.4869.568v20.6915c.0811.2434-.1623.4868-.4869.4868z"/><path d="m67.7021 69.0923 7.5463.4868"/><path d="m46.9297 74.6104 18.4194 1.136"/></g><path d="m49.7689 34.7693 16.0663-14.6057 6.6537.4057-11.8469 15.1737-10.4674-.0811c-.4869 0-.7303-.6492-.4057-.8926z" fill="url(#illustration-seller-c)"/><path d="m89.2044 37.2034 16.0666-14.6057 6.653.4057-11.9276 15.2548-10.3863-.0811c-.4868 0-.7302-.6492-.4057-.9737z" fill="url(#illustration-seller-d)"/><path d="m48.714 67.3884 16.0663-14.6057 6.6537.4057-11.928 15.2549-10.3862-.0812c-.4869 0-.8115-.6491-.4058-.9737z" fill="url(#illustration-seller-e)"/><path d="m135.537 58.2191-14.524-.8926v-2.1908c0-.3246 0-.7303-.081-1.0549-.649-3.7325-4.463-6.8971-9.169-7.384-4.139-.4057-7.628 1.4606-8.764 4.3818-1.785 1.136-3.0021 2.84-3.0833 4.9497l-4.6251-.3246-6.6537 2.84-2.84 41.2206c0 .4057.2434.7307.6491.8117l43.655 2.759 8.114-4.7879zm-23.774-9.4125c3.245.3245 5.923 2.5154 6.491 5.112.081.3245.081.568.081.8925v2.3532h-.081c-.649-3.7326-4.463-6.8972-9.169-7.384-.568-.0812-1.136-.0812-1.704-.0812 1.217-.7303 2.678-1.0548 4.382-.8925zm-6.411 3.6514c1.055-.4869 2.353-.7303 3.733-.568 3.246.3246 5.923 2.5154 6.491 5.112l-12.983-.8115c.163-1.704 1.218-3.0022 2.759-3.7325z" fill="#fff"/><path d="m89.5294 63.4937c-.0812 1.5417-1.5417 28.0754-1.8663 34.1611 0 .568.568 1.0548 1.2171 1.136l35.0538 1.7042z" fill="url(#illustration-seller-f)"/><path d="m98.4551 66.4961s.1623 3.408 6.8159 3.8948c6.654.4869 13.145.8926 13.145.8926l-.081-3.408s-.487-.3246-2.11-.3246c-1.704.0812-17.7699-1.0548-17.7699-1.0548z" fill="#8bbece"/><path d="m131.074 60.5725-12.577-.8925v-2.5154l17.04 1.0548z" fill="#003b62"/><path d="m115.658 59.5176-13.064-.8114v-2.3532l13.064.6492z" fill="#003b62"/><path d="m95.29 55.623c.0812.3246 4.6252 2.9212 4.6252 2.9212v-2.5966z" fill="#003b62"/><path d="m103.323 50.7543c.081-.0812 1.785-1.0549 4.057-1.136 0 0 1.786-1.4606 5.194-.8115 3.326.7303 6.329 3.3269 5.761 7.7897v.4869l2.272.1623s.405-7.7086-7.628-9.088c-7.303-1.2172-9.656 2.5966-9.656 2.5966z" fill="#003b62"/><path d="m103.08 54.487s1.542 1.704 2.11 1.8663v-3.8137z" fill="#003b62"/><path d="m129.614 103.092s.487.162 2.191-.812 4.301-2.353 4.301-2.353l-3.327-40.2468-2.678 1.4605.081 40.9773c-.081 0 0 .73-.568.974z" fill="#8bbece"/><path d="m134.807 100.576-1.379-30.4285" stroke="#003b62" stroke-linecap="round" stroke-linejoin="round" stroke-miterlimit="10" stroke-width="1.8"/><path d="m138.296 98.4661c0 .1623-.081.3246-.244.4057l-7.221 3.9762c-.406.243-.893.324-1.38.324l-1.947-.081 1.785.081c.487 0 .974-.324.974-.73l-.081-41.3016 5.436-2.9212z" stroke="#003b62" stroke-linecap="round" stroke-linejoin="round" stroke-miterlimit="10" stroke-width="1.8"/><path d="m130.019 61.1405.082 41.3015c0 .406-.406.731-.974.731l-1.785-.082-40.8151-2.434c-.4869 0-.8926-.406-.8114-.8113l2.84-41.3018z" stroke="#003b62" stroke-linecap="round" stroke-linejoin="round" stroke-miterlimit="10" stroke-width="1.8"/><path d="m99.9156 55.9471v.3246 2.9211l-11.2789-.7302 6.6537-2.84z" stroke="#003b62" stroke-linecap="round" stroke-linejoin="round" stroke-miterlimit="10" stroke-width="1.8"/><path d="m115.576 57.0019c.081.3245.081.568.081.8925v2.3532l-13.145-.8115v-2.84c0-.1622 0-.2434 0-.4057z" stroke="#003b62" stroke-linecap="round" stroke-linejoin="round" stroke-miterlimit="10" stroke-width="1.8"/><path d="m135.537 58.2194-5.436 2.9211-11.685-.7302v-2.1909c0-.3246 0-.7303-.081-1.0548z" stroke="#003b62" stroke-linecap="round" stroke-linejoin="round" stroke-miterlimit="10" stroke-width="1.8"/><path d="m118.334 58.2192v2.1909l-2.677-.1623v-2.3531c0-.3246 0-.6492-.081-.8926-.568-2.5966-3.246-4.7874-6.492-5.112-1.379-.1623-2.678.0811-3.732.568-1.542.7303-2.597 2.0285-2.759 3.7325v.4058 2.84l-2.678-.1623v-2.9212c0-.0811 0-.2434 0-.3245.0812-2.1097 1.298-3.8949 3.083-5.0309 1.218-.7303 2.759-1.2171 4.463-1.2983.568 0 1.136 0 1.704.0812 4.625.4868 8.52 3.7325 9.169 7.384z" stroke="#003b62" stroke-linecap="round" stroke-linejoin="round" stroke-miterlimit="10" stroke-width="1.8"/><path d="m105.352 52.458c-.082.2434-.082.4057-.082.6492v.4057 2.84l-2.677-.1623c.081-1.704 1.217-3.0023 2.759-3.7326z" stroke="#003b62" stroke-linecap="round" stroke-linejoin="round" stroke-miterlimit="10" stroke-width="1.8"/><path d="m121.013 55.1358v2.1908l-2.678-.1622v-2.3532c0-.3246 0-.6491-.081-.8926-.487-2.5965-3.246-4.7874-6.491-5.112-1.704-.1622-3.165.1623-4.382.8926-1.704.0812-3.246.568-4.463 1.2983 1.136-2.9211 4.706-4.7874 8.763-4.3817 4.626.4868 8.52 3.7326 9.17 7.384.162.4057.162.7303.162 1.136z" stroke="#003b62" stroke-linecap="round" stroke-linejoin="round" stroke-miterlimit="10" stroke-width="1.8"/><path d="m117.604 72.5004-18.9872-1.2172c-.3245 0-.568-.2434-.568-.4868l.1623-3.8137c0-.2435.3246-.4869.6492-.4057l18.9877 1.2171c.324 0 .568.2434.568.4868l-.163 3.8138c-.081.2434-.324.4868-.649.4057z" stroke="#003b62" stroke-linecap="round" stroke-linejoin="round" stroke-miterlimit="10" stroke-width="1.8"/></svg>
