<svg width="254" height="166" fill="none" xmlns="http://www.w3.org/2000/svg"><path d="M244.789 117.042c-.002-17.3509-3.881-34.4814-11.352-50.1357-7.472-15.6542-18.346-29.4352-31.827-40.3325-13.481-10.8974-29.226-18.63479-46.08-22.64496-16.855-4.0101589-34.392-4.191401-51.326-.53043C87.2708 7.05937 71.3698 14.4697 57.6675 25.0861 43.9651 35.7026 32.8088 49.2559 25.0164 64.7524 17.224 80.2488 12.9932 97.2956 12.6341 114.643c-.3591 17.347 3.1626 34.555 10.307 50.361H234.428c6.846-15.058 10.38-31.415 10.361-47.962z" fill="#E9EFF5"/><path d="M14.0601 165.004H240.435M1 165.004h7.2556M246.24 165.004h7.255" stroke="#2C3338" stroke-linecap="round" stroke-linejoin="round"/><path d="M137.146 145.034H117.12v12.034h20.026v-12.034z" fill="#fff"/><path d="M137.146 145.034H117.12v12.034h20.026v-12.034z" stroke="#2C3338" stroke-linecap="round" stroke-linejoin="round"/><path d="M153.166 165.091H101.1c0-2.128.844-4.168 2.346-5.673 1.502-1.504 3.54-2.35 5.664-2.35h36.046c2.122.008 4.155.856 5.656 2.359 1.5 1.503 2.347 3.539 2.354 5.664z" fill="#fff" stroke="#2C3338" stroke-linecap="round" stroke-linejoin="round"/><path d="M181.202 52.7727H73.1805c-2.6556 0-5.2024 1.0566-7.0801 2.9373-1.8778 1.8807-2.9327 4.4315-2.9327 7.0912v66.1878H191.215V62.8012c-.008-2.6574-1.065-5.2037-2.941-7.0827-1.876-1.8791-4.419-2.9381-7.072-2.9458z" fill="#DCDCDE"/><path d="M140.164 52.7727H73.1805c-2.6556 0-5.2024 1.0566-7.0801 2.9373-1.8778 1.8807-2.9327 4.4315-2.9327 7.0912v67.2348l76.9963-77.2633z" fill="#fff"/><path d="M181.202 52.7727H73.1805c-2.6556 0-5.2024 1.0566-7.0801 2.9373-1.8778 1.8807-2.9327 4.4315-2.9327 7.0912v66.1878H191.215V62.8012c-.008-2.6574-1.065-5.2037-2.941-7.0827-1.876-1.8791-4.419-2.9381-7.072-2.9458v0z" stroke="#2C3338" stroke-linecap="round" stroke-linejoin="round"/><path d="M181.202 145.034c2.655 0 5.202-1.057 7.08-2.937 1.878-1.881 2.933-4.432 2.933-7.092v-6.017H63.0516v6.017c-.004 1.328.2561 2.644.7651 3.87.5091 1.226 1.2569 2.338 2.1998 3.272.9429.933 2.062 1.669 3.292 2.165s2.5462.741 3.8719.722H181.202z" fill="#fff" stroke="#2C3338" stroke-linecap="round" stroke-linejoin="round"/><path d="M127.133 138.668c.914 0 1.655-.742 1.655-1.657s-.741-1.657-1.655-1.657c-.913 0-1.654.742-1.654 1.657s.741 1.657 1.654 1.657z" stroke="#2C3338" stroke-linecap="round" stroke-linejoin="round"/><path d="M246.409 164.975h-75.102c-1.013 0-1.984-.402-2.7-1.118-.717-.716-1.119-1.688-1.119-2.7v-52.19h82.739v52.19c0 1.012-.402 1.984-1.118 2.7-.716.716-1.687 1.118-2.7 1.118z" fill="#E6F2E8" stroke="#2C3338"/><path d="M246.409 97.5107h-75.102c-1.013 0-1.984.4024-2.7 1.1185-.716.7162-1.119 1.6878-1.119 2.6998v7.638h82.74v-7.638c0-1.012-.402-1.9836-1.119-2.6998-.716-.7161-1.687-1.1185-2.7-1.1185z" fill="#fff" stroke="#2C3338" stroke-linecap="round" stroke-linejoin="round"/><path d="M173.216 105.148c1.055 0 1.91-.855 1.91-1.909 0-1.055-.855-1.909-1.91-1.909-1.054 0-1.909.854-1.909 1.909 0 1.054.855 1.909 1.909 1.909z" fill="#FFABAF" stroke="#E65054" stroke-linecap="round" stroke-linejoin="round"/><path d="M179.581 105.148c1.054 0 1.909-.855 1.909-1.909 0-1.055-.855-1.909-1.909-1.909-1.055 0-1.91.854-1.91 1.909 0 1.054.855 1.909 1.91 1.909z" fill="#F2CF75" stroke="#B69000" stroke-linecap="round" stroke-linejoin="round"/><path d="M185.945 105.148c1.055 0 1.91-.855 1.91-1.909 0-1.055-.855-1.909-1.91-1.909-1.054 0-1.909.854-1.909 1.909 0 1.054.855 1.909 1.909 1.909z" fill="#68DE86" stroke="#00A32A" stroke-linecap="round" stroke-linejoin="round"/><path d="M242.59 120.423c2.109 0 3.819-1.71 3.819-3.819s-1.71-3.818-3.819-3.818-3.819 1.709-3.819 3.818 1.71 3.819 3.819 3.819z" fill="#fff" stroke="#8E9196" stroke-linecap="round" stroke-linejoin="round"/><path d="M217.133 149.734c2.026 0 3.969-.805 5.401-2.237s2.237-3.375 2.237-5.4v-15.275c.004-2.095-.422-4.168-1.252-6.091-.831-1.923-2.048-3.654-3.576-5.087-1.528-1.433-3.334-2.536-5.307-3.24-1.972-.705-4.069-.997-6.158-.857-3.932.346-7.587 2.168-10.232 5.098-2.644 2.93-4.082 6.752-4.025 10.699v14.753c0 2.025.805 3.968 2.237 5.4 1.432 1.432 3.375 2.237 5.4 2.237h15.275z" fill="#1D2327" stroke="#101517" stroke-linecap="round" stroke-linejoin="round"/><path d="M222.029 152.212c3.499 3.265 5.823 7.153 6.559 12.127h-38.187c.735-4.974 3.06-8.862 6.558-12.127 3.499-3.265 7.942-5.058 12.535-5.058s9.037 1.793 12.535 5.058z" fill="#D6DAFF"/><path d="M228.588 163.702c-.736-4.973-3.06-8.225-6.559-11.49-3.498-3.265-7.942-5.058-12.535-5.058s-9.036 1.793-12.535 5.058c-3.498 3.265-5.823 6.517-6.558 11.49" stroke="#4550E5" stroke-linecap="round" stroke-linejoin="round"/><path d="M218.405 150.744c0-.64-.127-1.273-.372-1.864-.245-.591-.604-1.127-1.057-1.579-.453-.452-.99-.81-1.582-1.053-.591-.244-1.225-.368-1.865-.367h-8.07c-.64-.001-1.273.123-1.865.367-.591.243-1.129.601-1.581 1.053-.453.452-.813.988-1.058 1.579-.245.591-.371 1.224-.371 1.864.001.568.1 1.133.293 1.667l2.253 6.2 6.364-3.819 6.365 3.819 2.253-6.2c.193-.534.292-1.099.293-1.667z" fill="#D6DAFF" stroke="#4550E5" stroke-linecap="round" stroke-linejoin="round"/><path d="M213.949 150.336l-4.455 4.456-4.455-4.456v-7.001h8.91v7.001z" fill="#9B6726" stroke="#543100" stroke-linecap="round" stroke-linejoin="round"/><path d="M209.494 156.065v8.91" stroke="#4550E5" stroke-linecap="round" stroke-linejoin="round"/><path d="M222.225 131.277v-3.182-.879c-2.867 1.452-6.145 1.874-9.286 1.194-3.14-.679-5.951-2.417-7.962-4.923-.264 1.646-1.109 3.144-2.381 4.223-1.272 1.078-2.889 1.666-4.556 1.657-.428-.003-.854-.046-1.273-.127v2.037c-.676 0-1.323.268-1.801.745-.477.478-.745 1.125-.745 1.801 0 .675.268 1.322.745 1.8.478.477 1.125.745 1.801.745h.152c.469 2.999 1.994 5.732 4.3 7.705 2.306 1.974 5.242 3.059 8.277 3.059 3.035 0 5.97-1.085 8.276-3.059 2.306-1.973 3.831-4.706 4.3-7.705h.153c.675 0 1.323-.268 1.8-.745.478-.478.746-1.125.746-1.8 0-.676-.268-1.323-.746-1.801-.477-.477-1.125-.745-1.8-.745z" fill="#9B6726" stroke="#543100" stroke-linecap="round" stroke-linejoin="round"/><path d="M205.651 139.933c1.034.972 2.4 1.513 3.819 1.513s2.785-.541 3.819-1.513" stroke="#000" stroke-linecap="round" stroke-linejoin="round"/><path d="M216.497 132.55c-.159-.375-.425-.694-.765-.919-.339-.224-.737-.344-1.145-.344-.407 0-.805.12-1.144.344-.34.225-.606.544-.765.919M206.313 132.55c-.159-.375-.425-.694-.764-.919-.34-.224-.738-.344-1.145-.344-.407 0-.805.12-1.144.344-.34.225-.606.544-.765.919" stroke="#1F1200" stroke-linecap="round" stroke-linejoin="round"/><path d="M202.176 138.278c.879 0 1.592-.712 1.592-1.591s-.713-1.591-1.592-1.591c-.878 0-1.591.712-1.591 1.591s.713 1.591 1.591 1.591zM216.815 138.278c.879 0 1.591-.712 1.591-1.591s-.712-1.591-1.591-1.591-1.591.712-1.591 1.591.712 1.591 1.591 1.591z" fill="#BA8A4E"/><rect x="26" y="165" width="12" height="48" rx="1" transform="rotate(-90 26 165)" fill="#907300" stroke="#361F00"/><rect x="30" y="153" width="10" height="48" rx="1" transform="rotate(-90 30 153)" fill="#3C434A" stroke="#101517"/><rect x="26" y="143" width="10" height="48" rx="1" transform="rotate(-90 26 143)" fill="#fff" stroke="#2C3338"/><path fill="#F2CF75" stroke="#302800" d="M32 153h6v12h-6z"/><path fill="#A7AAAD" stroke="#101517" d="M36 143h4v10h-4z"/><path fill="#A7AAAD" stroke="#2C3338" d="M32 133h4v10h-4z"/><path fill="#F2CF75" stroke="#302800" d="M62 153h6v12h-6z"/><path fill="#A7AAAD" stroke="#101517" d="M68 143h4v10h-4z"/><path fill="#A7AAAD" stroke="#2C3338" d="M64 133h4v10h-4z"/></svg>
