<svg width="200" height="165" fill="none" xmlns="http://www.w3.org/2000/svg"><mask id="a" maskUnits="userSpaceOnUse" x="94" y="0" width="14" height="14"><path d="M101 1.667A5.34 5.34 0 01106.333 7 5.34 5.34 0 01101 12.333 5.34 5.34 0 0195.667 7 5.34 5.34 0 01101 1.667zm0-1.334a6.668 6.668 0 10-.163 13.335A6.668 6.668 0 00101 .333zm3.333 6h-2.666V3.667h-1.334v2.666h-2.666v1.334h2.666v2.666h1.334V7.667h2.666V6.333z" fill="#fff"/></mask><g mask="url(#a)"><path fill-rule="evenodd" clip-rule="evenodd" d="M93-1h16v16H93V-1z" fill="#1D2327"/></g><path fill-rule="evenodd" clip-rule="evenodd" d="M101.027 19l-4.575 3.843H4.83c-1.016 0-1.99.339-2.708.942C1.403 24.388 1 25.206 1 26.059v134.725c0 .853.403 1.671 1.121 2.274S3.813 164 4.83 164H195.17c1.016 0 1.99-.339 2.708-.942.718-.603 1.121-1.421 1.121-2.274V26.059c0-.853-.403-1.671-1.121-2.274s-1.692-.942-2.708-.942h-89.57L101.028 19h-.001z" fill="#fff" stroke="#C3C4C7"/><path d="M185.605 32H16.395C13.968 32 12 33.791 12 36v9c0 2.21 1.968 4 4.395 4h169.21c2.427 0 4.395-1.79 4.395-4v-9c0-2.209-1.968-4-4.395-4z" stroke="#1689db" stroke-width="2"/><path fill-rule="evenodd" clip-rule="evenodd" d="M12 57h179v1H12v-1z" fill="#C3C4C7"/><path fill-rule="evenodd" clip-rule="evenodd" d="M17 37h45v8H17v-8zm14 56h25v8H31v-8zm56 0h25v8H87v-8zm58 0h25v8h-25v-8z" fill="#F6F7F7"/><path d="M45.125 76.75v4.375h-1.25V76.75h-.625v-.014a3.437 3.437 0 110-6.847v-.014h5.625v1.25h-1.25v10h-1.25v-10h-1.25v5.625z" fill="#50575E"/><path fill-rule="evenodd" clip-rule="evenodd" d="M31 142h25v8H31v-8zm56 0h25v8H87v-8zm58 0h25v8h-25v-8z" fill="#F6F7F7"/><path d="M49.125 119.5h-11.25c-.688 0-1.25.563-1.25 1.25v7.5c0 .688.563 1.25 1.25 1.25h11.25c.688 0 1.25-.563 1.25-1.25v-7.5c0-.688-.563-1.25-1.25-1.25zm0 8.75h-11.25v-7.5h11.25v7.5z" fill="#50575E"/><path d="M45.063 123.875l-2.188 2.819-1.563-1.882-2.187 2.813h8.75l-2.812-3.75zM155.731 120.75l1.25 1.25h5.519v6.25h-10v-7.5h3.231zm.519-1.25h-3.75c-.688 0-1.244.563-1.244 1.25l-.006 7.5c0 .688.563 1.25 1.25 1.25h10c.688 0 1.25-.563 1.25-1.25V122c0-.688-.563-1.25-1.25-1.25h-5l-1.25-1.25zM105.5 118.875h-9.375c-.688 0-1.25.563-1.25 1.25v8.75c0 .688.563 1.25 1.25 1.25h9.375c.688 0 1.25-.563 1.25-1.25v-8.75c0-.688-.563-1.25-1.25-1.25zm0 1.25V122h-9.375v-1.875h9.375zm-3.125 8.75H99.25v-5.625h3.125v5.625zm-6.25-5.625H98v5.625h-1.875v-5.625zm7.5 5.625v-5.625h1.875v5.625h-1.875zM151.563 70.5v1.875h3.125v7.5h1.875v-7.5h3.125V70.5h-8.125zm11.875 3.125h-5.625V75.5h1.875v4.375h1.875V75.5h1.875v-1.875zM104.875 69.875h-8.75c-.688 0-1.25.563-1.25 1.25v8.75c0 .688.563 1.25 1.25 1.25h8.75c.688 0 1.25-.563 1.25-1.25v-8.75c0-.688-.563-1.25-1.25-1.25zm0 10h-8.75v-8.75h8.75v8.75zm-3.15-4.194l-1.719 2.213-1.225-1.475-1.719 2.206h6.876l-2.213-2.944z" fill="#50575E"/></svg>