<svg width="447" height="339" viewBox="0 0 447 339" fill="none" xmlns="http://www.w3.org/2000/svg">
<g clip-path="url(#clip0_2121_16942)">
<path opacity="0.5" fill-rule="evenodd" clip-rule="evenodd" d="M242 80L242 488L108 488L108 80L108 77L108.059 77C109.542 39.1792 138.945 9 175 9C211.055 9 240.458 39.1792 241.941 77L242 77L242 80Z" fill="#BBE0FA"/>
<path opacity="0.5" fill-rule="evenodd" clip-rule="evenodd" d="M143.479 517L143.479 236.422L143.438 236.422C142.426 210.603 122.353 190 97.7395 190C73.1259 190 53.0532 210.603 52.0405 236.422L52.0004 236.422L52.0004 238.47L52.0004 517L143.479 517Z" fill="#F2D76B"/>
<path d="M178 352.5V163.5C178 95.2928 226.129 40 285.5 40C344.871 40 393 95.2928 393 163.5V352.5" stroke="#0675C4"/>
<path d="M196.535 345V163.5C196.535 107.053 236.366 61.293 285.501 61.293C334.635 61.293 374.466 107.053 374.466 163.5V345" stroke="#0675C4"/>
<path d="M351.607 345V163.5C351.607 121.557 322.01 87.5547 285.501 87.5547C248.991 87.5547 219.395 121.557 219.395 163.5V345" stroke="#0675C4"/>
</g>
<g clip-path="url(#clip1_2121_16942)">
<rect x="1.65625" y="97.6562" width="812.438" height="61.6875" rx="9.84375" fill="#F6F7F7" stroke="white" stroke-width="1.3125"/>
<rect x="139.379" y="110.586" width="652.836" height="34.2516" rx="13.6349" fill="white"/>
<circle cx="31.4697" cy="129.267" r="5.62989" fill="black" fill-opacity="0.12"/>
<circle cx="53.9893" cy="129.267" r="5.62989" fill="black" fill-opacity="0.12"/>
<circle cx="76.5107" cy="129.267" r="5.62989" fill="black" fill-opacity="0.12"/>
<path d="M159.523 126.384H159.174L159.173 124.652C159.171 122.766 157.629 121.232 155.735 121.233C153.84 121.235 152.299 122.769 152.3 124.655L152.303 126.386L152.178 126.387C151.527 126.388 150.998 126.914 151 127.562V132.717C151 133.365 151.53 133.891 152.181 133.891L159.526 133.887C160.177 133.887 160.706 133.361 160.704 132.712V127.557C160.704 126.909 160.174 126.384 159.523 126.384ZM153.569 126.387L153.566 124.655C153.566 123.464 154.538 122.495 155.735 122.494C156.932 122.494 157.905 123.463 157.905 124.653L157.908 126.384L153.569 126.387Z" fill="#043959"/>
</g>
<defs>
<clipPath id="clip0_2121_16942">
<rect width="446" height="339" fill="white"/>
</clipPath>
<clipPath id="clip1_2121_16942">
<rect width="446" height="63" fill="white" transform="translate(1 97)"/>
</clipPath>
</defs>
</svg>
