<svg width="32" height="32" viewBox="0 0 32 32" fill="none" xmlns="http://www.w3.org/2000/svg">
<path d="M4.12 9.2C4.48 8.96 4.84 8.84 5.2 8.6C7.24 7.4 9.28 6.32 11.32 5.12C11.32 5.12 11.44 5.12 11.44 5V5.12V17C11.44 18.32 12.04 19.28 13.12 19.88C14.68 20.84 16.36 21.8 17.92 22.64C18.28 22.88 18.76 23.12 19.24 23.36C19.24 23.36 19.24 23.36 19.12 23.48C16.84 24.8 14.44 26.12 12.04 27.56C11.92 27.56 11.92 27.56 11.8 27.56C9.76 26.36 7.6 25.16 5.56 23.96C4.6 23.36 4.12 22.64 4 21.56V21.44C4.12 17.36 4.12 13.28 4.12 9.2Z" fill="#2C3338"/>
<path d="M20.2001 5.12012C20.5601 5.36012 20.9201 5.60012 21.4001 5.84012C23.0801 6.80012 24.7601 7.76012 26.4401 8.84012C27.5201 9.44012 28.1201 10.4001 28.1201 11.7201C28.1201 15.6801 28.1201 19.6401 28.1201 23.6001C28.1201 23.7201 28.1201 23.7201 28.0001 23.7201C25.6001 25.0401 23.2001 26.3601 20.9201 27.6801C20.9201 27.6801 20.9201 27.6801 20.8001 27.8001V27.2001V17.8401C20.8001 17.1201 20.8001 16.4001 20.8001 15.8001C20.8001 14.6001 20.2001 13.6401 19.2401 13.0401C17.2001 11.8401 15.2801 10.7601 13.2401 9.56012C13.2401 9.56012 13.1201 9.56012 13.1201 9.44012C13.3601 9.32012 13.6001 9.20012 13.7201 9.08012C15.8801 7.88012 18.0401 6.56012 20.0801 5.36012C20.0801 5.12012 20.0801 5.12012 20.2001 5.12012Z" fill="#2C3338"/>
</svg>
