<svg width="20" height="19" xmlns="http://www.w3.org/2000/svg" viewBox="0 0 20 19">
<path d="M0.1,3.5C0.4,3.3,0.7,3.2,1,3c1.7-1,3.4-1.9,5.1-2.9c0,0,0.1,0,0.1-0.1v0.1V10c0,1.1,0.5,1.9,1.4,2.4
	c1.3,0.8,2.7,1.6,4,2.3c0.3,0.2,0.7,0.4,1.1,0.6c0,0,0,0-0.1,0.1c-1.9,1.1-3.9,2.2-5.9,3.4c-0.1,0-0.1,0-0.2,0c-1.7-1-3.5-2-5.2-3
	c-0.8-0.5-1.2-1.1-1.3-2v-0.1C0.1,10.3,0.1,6.9,0.1,3.5L0.1,3.5z" fill="#8e9196" />
<path d="M13.5,0.1c0.3,0.2,0.6,0.4,1,0.6c1.4,0.8,2.8,1.6,4.2,2.5c0.9,0.5,1.4,1.3,1.4,2.4c0,3.3,0,6.6,0,9.9
	c0,0.1,0,0.1-0.1,0.1c-2,1.1-4,2.2-5.9,3.3c0,0,0,0-0.1,0.1v-0.5l0,0v-7.8c0-0.6,0-1.2,0-1.7c0-1-0.5-1.8-1.3-2.3
	c-1.7-1-3.3-1.9-5-2.9c0,0-0.1,0-0.1-0.1C7.8,3.6,8,3.5,8.1,3.4c1.8-1,3.6-2.1,5.3-3.1C13.4,0.1,13.4,0.1,13.5,0.1L13.5,0.1z" fill="#8e9196" />
</svg>
