<svg width="189" height="122" viewBox="0 0 189 122" fill="none" xmlns="http://www.w3.org/2000/svg">
<path d="M0 30.3492L151.378 3.77099L180.869 45.6366L167.403 95.0442L16.0253 121.622L0 30.3492Z" fill="#3858E9"/>
<circle cx="150.567" cy="50.617" r="16" transform="rotate(-9.95823 150.567 50.617)" fill="white"/>
<path d="M149.076 42.6264L151.927 47.943L157.947 46.8861L153.689 51.2288L156.54 56.5454L151.058 53.9127L146.801 58.2554L147.67 52.2856L142.188 49.653L148.207 48.5961L149.076 42.6264Z" fill="#3858E9"/>
<path d="M22.3631 76.223C21.9875 76.2889 21.7349 76.0752 21.6689 75.6996L21.5151 74.8232C21.4564 74.4894 21.6285 74.2441 22.0041 74.1781L35.2749 71.8481C35.6505 71.7821 35.8958 71.9542 35.9544 72.288L36.1083 73.1644C36.1742 73.54 36.0095 73.827 35.6339 73.893L22.3631 76.223Z" fill="white"/>
<path d="M75.4689 79.9766C68.4996 81.2002 62.25 76.2319 60.5794 66.7169C58.9381 57.3689 62.3579 50.875 69.8279 49.5634C76.6303 48.3691 82.8478 53.6442 84.4451 62.7418C86.123 72.2985 82.1878 78.7969 75.4689 79.9766ZM75.7183 78.212C79.9333 77.472 82.3356 72.5333 81.024 65.0632C79.5512 56.675 74.6772 50.4758 69.4606 51.3916C65.0788 52.161 62.7255 57.1341 64.0517 64.6877C65.5685 73.3262 70.4183 79.1426 75.7183 78.212Z" fill="white"/>
<path d="M94.022 61.6196C89.9322 62.3376 86.1254 59.5215 85.3267 54.9727C84.5207 50.3822 86.7797 46.5871 91.1198 45.8251C95.1261 45.1217 98.9206 48.112 99.7046 52.5774C100.525 57.2514 97.9448 60.9308 94.022 61.6196ZM97.3135 75.711C96.8961 75.7843 96.6362 75.5288 96.8133 75.0675L107.994 43.6798C108.117 43.4001 108.262 43.2456 108.512 43.2016L109.847 42.9672C110.265 42.8939 110.525 43.1494 110.348 43.6107L99.2924 74.9764C99.1768 75.2978 98.9828 75.4179 98.6489 75.4766L97.3135 75.711ZM94.1851 60.3434C96.5221 59.9331 97.3491 57.2928 96.8215 54.2881C96.1474 50.4487 93.6766 46.6667 90.7971 47.1723C88.3349 47.6046 87.5152 50.2866 88.0501 53.333C88.7535 57.3393 91.2638 60.8563 94.1851 60.3434ZM116.25 72.8165C112.16 73.5345 108.346 70.6767 107.547 66.1279C106.741 61.5373 109.007 57.784 113.347 57.022C117.354 56.3186 121.141 59.2672 121.925 63.7325C122.746 68.4065 120.172 72.1277 116.25 72.8165ZM116.405 71.4986C118.742 71.0882 119.577 68.4897 119.049 65.485C118.368 61.6039 115.897 57.8219 113.017 58.3275C110.555 58.7598 109.743 61.4835 110.27 64.4882C110.974 68.4945 113.484 72.0115 116.405 71.4986Z" fill="white"/>
<path d="M46.6845 66.7403C52.7312 65.8127 57.587 68.534 58.5305 73.9078C59.4359 79.0649 56.1718 83.882 49.1945 85.107C42.2606 86.3244 38.8068 83.4463 38.4568 81.4528C38.2361 80.196 38.7926 79.2942 39.9193 79.0964C42.5629 78.6322 43.0754 84.3498 49.0125 83.3073C53.2162 82.5693 55.5104 79.3521 54.7952 75.2784C53.905 70.2079 50.0096 68.1221 45.7192 68.8754L45.2425 68.9591C44.2891 69.1265 43.7902 68.3207 44.2318 67.5283L50.5858 56.1379L35.7212 58.7478C35.2012 58.8391 34.8088 58.64 34.7023 58.0332L34.4055 56.3431C34.3066 55.7797 34.5719 55.5098 35.092 55.4185L53.5102 52.1847C54.0736 52.0857 54.4226 52.2925 54.5063 52.7692L54.5748 53.1592C54.6585 53.636 54.5742 53.9188 54.153 54.5735L46.6845 66.7403Z" fill="white"/>
</svg>
