<svg height="19" viewBox="0 0 19 19" width="19" xmlns="http://www.w3.org/2000/svg"><g fill="none" fill-rule="evenodd"><g transform="translate(-2 -2)"><path d="m0 0h24v24h-24z"/><path d="m3 17.25v3.75h3.75l11.06-11.06-3.75-3.75zm2.92 1.75h-.92v-.92l9.06-9.06.92.92zm14.79-13.37-2.34-2.34c-.2-.2-.45-.29-.71-.29s-.51.1-.7.29l-1.83 1.83 3.75 3.75 1.83-1.83c.39-.39.39-1.02 0-1.41z" fill="#8e9196" fill-rule="nonzero"/></g><g stroke="#8e9196" stroke-linecap="square" stroke-width="2" transform="translate(1 1.5)"><path d="m2.5 0v5"/><path d="m2.5 0v5" transform="matrix(0 1 -1 0 5 0)"/></g></g></svg>
