<svg xmlns="http://www.w3.org/2000/svg" width="18" height="19" viewBox="0 0 18 19" fill="none">
  <path d="M13.4224 9.5431C13.4224 10.4483 13.1379 11.3276 12.6207 12.0776C12.3621 12.4397 12.1293 12.7241 11.9483 12.9569C11.431 13.6034 11.0948 13.9655 10.9914 15.0259C10.9914 15.1034 10.9138 15.181 10.8103 15.181H7.16379C7.08621 15.181 7.00862 15.1034 6.98276 15.0259C6.87931 13.9655 6.56896 13.5776 6.02586 12.931C5.81896 12.6983 5.61207 12.4138 5.35345 12.0776C4.83621 11.3276 4.55172 10.4483 4.55172 9.5431C4.55172 8.35345 5.01724 7.24138 5.84483 6.41379C6.67241 5.58621 7.78448 5.12069 8.97414 5.09483C11.431 5.12069 13.4224 7.11207 13.4224 9.5431ZM7.03448 16.6034C7.03448 17.4828 7.91379 18.2069 8.97414 18.2069H9.02586C10.1121 18.2069 10.9655 17.4828 10.9655 16.6034V15.6207H7.03448V16.6034ZM9 3.49138C9.31034 3.49138 9.56896 3.23276 9.56896 2.92241V0.568965C9.56896 0.258621 9.31034 0 9 0C8.68965 0 8.43103 0.258621 8.43103 0.568965V2.92241C8.43103 3.23276 8.68965 3.49138 9 3.49138ZM15.9569 2.58621C15.9569 2.43103 15.9052 2.30172 15.8017 2.19828C15.6983 2.09483 15.5431 2.0431 15.4138 2.0431C15.2586 2.0431 15.1293 2.09483 15.0259 2.19828L13.3448 3.87931C13.1379 4.08621 13.1379 4.44828 13.3448 4.68103C13.4483 4.78448 13.6034 4.83621 13.7328 4.83621C13.8879 4.83621 14.0172 4.78448 14.1207 4.68103L15.8017 3C15.9052 2.89655 15.9569 2.74138 15.9569 2.58621ZM4.83621 4.26724C4.83621 4.11207 4.78448 3.98276 4.68103 3.87931L3 2.19828C2.89655 2.09483 2.74138 2.0431 2.61207 2.0431C2.4569 2.0431 2.32759 2.09483 2.22414 2.19828C2.01724 2.40517 2.01724 2.76724 2.22414 3L3.90517 4.68103C4.00862 4.78448 4.16379 4.83621 4.2931 4.83621C4.44828 4.83621 4.57759 4.78448 4.68103 4.68103C4.78448 4.57759 4.83621 4.42241 4.83621 4.26724ZM17.431 8.0431H15.0776C14.7672 8.0431 14.5086 8.30172 14.5086 8.61207C14.5086 8.92241 14.7672 9.18103 15.0776 9.18103H17.431C17.7414 9.18103 18 8.92241 18 8.61207C18 8.30172 17.7414 8.0431 17.431 8.0431ZM2.92241 8.0431H0.568965C0.258621 8.0431 0 8.30172 0 8.61207C0 8.92241 0.258621 9.18103 0.568965 9.18103H2.92241C3.23276 9.18103 3.49138 8.92241 3.49138 8.61207C3.49138 8.30172 3.23276 8.0431 2.92241 8.0431Z" fill="#3858E9"/>
</svg>
