<svg width="26" height="24" viewBox="0 0 26 24" fill="none" xmlns="http://www.w3.org/2000/svg">
<path d="M20.5354 19.6702L13.3424 23.2666C13.3004 23.2882 13.2564 23.3059 13.2109 23.3194C13.1406 23.3404 13.0697 23.3503 13 23.3502C12.9303 23.3503 12.8594 23.3404 12.7891 23.3194C12.7436 23.3059 12.6995 23.2882 12.6576 23.2666L5.46459 19.6702C5.2105 19.5432 5.05 19.2835 5.05 18.9994V11.035L1.2279 8.85095C1.00437 8.72323 0.862711 8.49032 0.850813 8.23475L0.850773 8.23475L0.850691 8.23126L0.85004 8.20327L0.85 8.20327V8.19979V2.83V2.68V2.58231V2.2V2.05H0.860128C0.933649 1.42958 1.41471 0.85 2.20144 0.85H23.7986V0.849986L23.8006 0.850014L23.8392 0.850542L23.8392 0.850528L23.8413 0.850585C24.5998 0.871426 25.0682 1.43725 25.1405 2.05H25.15V2.18848C25.1504 2.20712 25.1504 2.22578 25.15 2.24443V2.58231V2.68V2.83V8.19979H25.15L25.15 8.20328L25.1493 8.23126L25.1493 8.23126L25.1492 8.23475C25.1373 8.49032 24.9956 8.72323 24.7721 8.85095L20.95 11.035V18.9994C20.95 19.2835 20.7895 19.5432 20.5354 19.6702ZM13 6.83585L19.1709 4.09284L23.0794 2.35H2.92079L6.86377 4.10821L6.86393 4.10828L13 6.83585ZM12.25 21.3857V8.15242L6.24259 5.47363L6.24243 5.47356L2.35 3.74327V7.76451L6.1721 9.94854C6.39563 10.0763 6.53729 10.3092 6.54919 10.5647L6.54923 10.5647L6.54931 10.5682L6.54996 10.5962L6.55 10.5962V10.5997V18.5358L12.25 21.3857ZM23.65 7.76471V3.74337L19.8221 5.4449L13.75 8.15263V21.3864L19.45 18.5364V10.6H19.45L19.45 10.5965L19.4507 10.5685L19.4507 10.5685L19.4508 10.565C19.4627 10.3095 19.6044 10.0765 19.8279 9.94882L23.65 7.76471Z" fill="#101517" />
</svg>
