<?xml version="1.0" encoding="utf-8"?>
<!-- Generator: Adobe Illustrator 17.0.2, SVG Export Plug-In . SVG Version: 6.00 Build 0)  -->
<!DOCTYPE svg PUBLIC "-//W3C//DTD SVG 1.1//EN" "http://www.w3.org/Graphics/SVG/1.1/DTD/svg11.dtd">
<svg version="1.1" id="Layer_1" xmlns="http://www.w3.org/2000/svg" xmlns:xlink="http://www.w3.org/1999/xlink" x="0px" y="0px"
	 width="850.39px" height="850.39px" viewBox="0 0 850.39 850.39" enable-background="new 0 0 850.39 850.39" xml:space="preserve">
<path fill="#D2DDE5" d="M425.195,26.646c-219.968,0-398.549,178.582-398.549,398.549s178.582,398.549,398.549,398.549
	s398.549-178.582,398.549-398.549C823.744,214.298,645.163,26.646,425.195,26.646z"/>
<defs>
	<filter id="Adobe_OpacityMaskFilter" filterUnits="userSpaceOnUse" x="-82.304" y="154.97" width="857.818" height="754.884">
		<feColorMatrix  type="matrix" values="1 0 0 0 0  0 1 0 0 0  0 0 1 0 0  0 0 0 1 0"/>
	</filter>
</defs>
<mask maskUnits="userSpaceOnUse" x="-82.304" y="154.97" width="857.818" height="754.884" id="SVGID_1_">
	<g filter="url(#Adobe_OpacityMaskFilter)">
		<path fill="#FFFFFF" d="M425.195,26.646c-219.968,0-398.549,178.582-398.549,398.549s178.582,398.549,398.549,398.549
			s398.549-178.582,398.549-398.549C823.744,214.298,645.163,26.646,425.195,26.646z"/>
	</g>
</mask>
<g display="none" opacity="0.25" mask="url(#SVGID_1_)">
	
		<text transform="matrix(1 0 0 1 -82.3036 909.8542)" display="inline" fill="#8AA6B7" font-family="'Noticons'" font-size="857.8182"></text>
</g>
<polygon fill="none" points="660.073,449.515 660.073,449.515 583.513,503.026 660.073,503.026 736.634,503.026 660.074,449.514 "/>
<path fill="none" d="M425.195,26.646c-219.968,0-398.549,178.582-398.549,398.549c0,92.988,31.916,178.579,85.378,246.411V567.17
	h78.293h78.293v224.583c24.898,10.661,51.098,18.857,78.293,24.283V374.739h78.293h78.293v441.297
	c27.195-5.426,53.394-13.622,78.293-24.283V504.236l-0.882,0.617l30.504-89.176l-79.343-55.006l98.011,0.167l30.004-89.176
	l30.003,89.176l98.011-0.167l-79.342,55.006l30.503,89.176l-0.883-0.617v167.369c53.463-67.832,85.378-153.422,85.378-246.411
	C823.744,214.298,645.163,26.646,425.195,26.646z M397.218,143.129c7.728-7.729,17.053-11.593,27.977-11.593c0,0,0,0,0,0l0,0
	c1.84,0,3.63,0.119,5.379,0.339c0.847,0.106,1.687,0.229,2.513,0.386c0.044,0.008,0.086,0.02,0.13,0.028
	c1.168,0.227,2.315,0.506,3.441,0.837c0.619,0.182,1.231,0.378,1.837,0.591c0.039,0.014,0.079,0.025,0.118,0.039
	c1.875,0.665,3.685,1.487,5.437,2.451c0.869,0.479,1.722,0.998,2.56,1.551c0.479,0.315,0.952,0.644,1.42,0.984
	c0.317,0.229,0.633,0.461,0.945,0.702c1.446,1.113,2.847,2.337,4.196,3.686c7.729,7.729,11.594,17.056,11.594,27.977
	c0,10.924-3.865,20.249-11.594,27.977c-1.349,1.349-2.75,2.573-4.196,3.686c-0.312,0.24-0.628,0.472-0.945,0.702
	c-0.469,0.339-0.942,0.668-1.42,0.984c-0.839,0.553-1.691,1.072-2.56,1.551c-0.825,0.455-1.666,0.872-2.519,1.26
	c-0.869,0.396-1.75,0.761-2.647,1.087c-0.091,0.033-0.18,0.072-0.271,0.104c-0.039,0.014-0.079,0.025-0.118,0.039
	c-0.606,0.213-1.218,0.409-1.837,0.591c-1.126,0.33-2.273,0.61-3.441,0.837c-0.044,0.008-0.086,0.02-0.13,0.028
	c-0.826,0.158-1.666,0.28-2.513,0.386c-1.749,0.219-3.54,0.339-5.379,0.339l0,0c0,0,0,0,0,0c-10.923,0-20.249-3.864-27.977-11.593
	c-7.729-7.729-11.593-17.053-11.593-27.977C385.625,160.185,389.489,150.858,397.218,143.129z M281.221,483.063
	c0,8.365-2.959,15.506-8.877,21.425c-5.918,5.918-13.061,8.877-21.424,8.877h-53.028l-7.575,7.575l-45.454,45.454v-53.028h-15.151
	c-8.365,0-15.506-2.959-21.424-8.877c-5.918-5.919-8.877-13.06-8.877-21.425v-45.452c0-8.363,2.959-15.506,8.877-21.425
	c5.918-5.918,13.059-8.877,21.424-8.877h60.605h60.603c8.363,0,15.506,2.959,21.424,8.877c5.918,5.918,8.877,13.062,8.877,21.425
	V483.063z M504.334,329.384h-79.139h-79.139v-39.57c0-16.384,5.796-30.373,17.389-41.965c11.593-11.592,25.581-17.389,41.965-17.389
	h19.785h19.785c16.385,0,30.373,5.796,41.965,17.389c11.592,11.593,17.389,25.581,17.389,41.965V329.384z"/>
<path fill="#FFFFFF" d="M190.317,567.17v179.953c24.178,17.678,50.421,32.695,78.293,44.63V567.17H190.317z"/>
<path fill="#FFFFFF" d="M425.195,374.739v449.006c26.795,0,52.974-2.657,78.293-7.709V374.739H425.195z"/>
<path fill="#FFFFFF" d="M736.634,503.026h-76.561v244.097c29.408-21.501,55.763-46.932,78.293-75.517V504.236L736.634,503.026z"/>
<path fill="#F0F4F5" d="M112.024,567.17v104.436c22.53,28.585,48.885,54.016,78.293,75.517V567.17H112.024z"/>
<path fill="#F0F4F5" d="M346.902,374.739v441.297c25.319,5.052,51.498,7.709,78.293,7.709V374.739H346.902z"/>
<path fill="#F0F4F5" d="M583.513,503.026l-1.732,1.211v287.516c27.872-11.934,54.115-26.952,78.293-44.63V503.026H583.513z"/>
<path fill="#91ADC0" d="M129.712,407.309c-8.365,0-15.506,2.959-21.424,8.877c-5.918,5.918-8.877,13.062-8.877,21.425v45.452
	c0,8.365,2.959,15.506,8.877,21.425c5.918,5.918,13.059,8.877,21.424,8.877h15.151v53.028l45.454-45.454V407.309H129.712z"/>
<path fill="#8AA6B7" d="M250.92,407.309h-60.603V520.94l7.575-7.575h53.028c8.363,0,15.506-2.959,21.424-8.877
	c5.918-5.919,8.877-13.06,8.877-21.425v-45.452c0-8.363-2.959-15.506-8.877-21.425C266.425,410.268,259.283,407.309,250.92,407.309z
	"/>
<path fill="#91ADC0" d="M430.574,131.875c0.847,0.106,1.687,0.229,2.513,0.386C432.261,132.103,431.421,131.981,430.574,131.875z"/>
<path fill="#91ADC0" d="M448.976,202.769c-0.312,0.241-0.628,0.472-0.945,0.702C448.347,203.241,448.663,203.009,448.976,202.769z"
	/>
<path fill="#91ADC0" d="M446.61,204.454c-0.839,0.553-1.691,1.072-2.56,1.551C444.919,205.526,445.772,205.007,446.61,204.454z"/>
<path fill="#91ADC0" d="M448.03,138.741c0.317,0.229,0.633,0.461,0.945,0.702C448.663,139.203,448.347,138.971,448.03,138.741z"/>
<path fill="#91ADC0" d="M444.05,136.207c0.869,0.479,1.722,0.998,2.56,1.551C445.772,137.205,444.919,136.686,444.05,136.207z"/>
<path fill="#91ADC0" d="M438.495,133.717c0.039,0.014,0.079,0.025,0.118,0.039C438.574,133.741,438.534,133.73,438.495,133.717z"/>
<path fill="#91ADC0" d="M433.087,209.951c-0.826,0.158-1.666,0.28-2.513,0.386C431.421,210.231,432.261,210.108,433.087,209.951z"/>
<path fill="#91ADC0" d="M433.217,132.289c1.168,0.227,2.315,0.506,3.441,0.837C435.533,132.796,434.386,132.516,433.217,132.289z"/>
<path fill="#91ADC0" d="M436.658,209.086c-1.126,0.33-2.273,0.61-3.441,0.837C434.386,209.695,435.533,209.416,436.658,209.086z"/>
<path fill="#91ADC0" d="M441.531,207.265c-0.869,0.396-1.75,0.761-2.647,1.087C439.781,208.026,440.662,207.661,441.531,207.265z"/>
<path fill="#91ADC0" d="M438.613,208.457c-0.039,0.014-0.079,0.025-0.118,0.039C438.534,208.481,438.574,208.47,438.613,208.457z"/>
<path fill="#91ADC0" d="M405.41,230.46c-16.384,0-30.373,5.796-41.965,17.389c-11.593,11.593-17.389,25.581-17.389,41.965v39.57
	h79.139V230.46H405.41z"/>
<path fill="#91ADC0" d="M425.195,210.675C425.195,210.675,425.195,210.675,425.195,210.675l0-79.139c0,0,0,0,0,0
	c-10.923,0-20.249,3.864-27.977,11.593c-7.729,7.729-11.593,17.056-11.593,27.977c0,10.924,3.864,20.249,11.593,27.977
	C404.946,206.811,414.271,210.675,425.195,210.675z"/>
<path fill="#8AA6B7" d="M425.195,210.675c1.84,0,3.63-0.119,5.379-0.339c0.847-0.106,1.687-0.229,2.513-0.386
	c0.044-0.008,0.086-0.02,0.13-0.028c1.168-0.227,2.315-0.506,3.441-0.837c0.619-0.182,1.231-0.378,1.837-0.591
	c0.039-0.014,0.079-0.025,0.118-0.039c0.091-0.032,0.18-0.071,0.271-0.104c0.897-0.326,1.778-0.692,2.647-1.087
	c0.853-0.388,1.694-0.805,2.519-1.26c0.869-0.479,1.722-0.998,2.56-1.551c0.479-0.315,0.952-0.644,1.42-0.984
	c0.317-0.229,0.633-0.461,0.945-0.702c1.446-1.113,2.847-2.337,4.196-3.686c7.729-7.729,11.594-17.053,11.594-27.977
	c0-10.921-3.865-20.248-11.594-27.977c-1.349-1.349-2.75-2.573-4.196-3.686c-0.312-0.241-0.628-0.472-0.945-0.702
	c-0.469-0.339-0.942-0.668-1.42-0.984c-0.839-0.553-1.691-1.072-2.56-1.551c-1.751-0.965-3.562-1.786-5.437-2.451
	c-0.039-0.014-0.079-0.025-0.118-0.039c-0.606-0.213-1.218-0.409-1.837-0.591c-1.126-0.33-2.273-0.61-3.441-0.837
	c-0.044-0.008-0.086-0.02-0.13-0.028c-0.826-0.158-1.666-0.28-2.513-0.386c-1.749-0.219-3.54-0.339-5.379-0.339l0,0V210.675
	L425.195,210.675z"/>
<path fill="#8AA6B7" d="M444.98,230.46h-19.785v98.924h79.139v-39.57c0-16.384-5.797-30.373-17.389-41.965
	C475.353,236.257,461.365,230.46,444.98,230.46z"/>
<polygon fill="#91ADC0" points="660.073,449.515 660.073,271.663 660.074,271.661 630.07,360.838 532.059,360.671 611.402,415.677 
	580.898,504.853 581.781,504.236 583.513,503.026 "/>
<polygon fill="#8AA6B7" points="660.073,449.515 660.073,449.515 660.074,449.514 736.634,503.026 738.366,504.236 739.249,504.853 
	708.746,415.677 788.088,360.671 690.077,360.838 660.074,271.661 660.073,271.663 "/>
</svg>
