<?xml version="1.0" encoding="utf-8"?>
<!-- Generator: Adobe Illustrator 21.0.0, SVG Export Plug-In . SVG Version: 6.00 Build 0)  -->
<!DOCTYPE svg PUBLIC "-//W3C//DTD SVG 1.1//EN" "http://www.w3.org/Graphics/SVG/1.1/DTD/svg11.dtd">
<svg version="1.1" id="Layer_1" xmlns="http://www.w3.org/2000/svg" xmlns:xlink="http://www.w3.org/1999/xlink" x="0px" y="0px"
	 viewBox="0 0 142 142" style="enable-background:new 0 0 142 142;" xml:space="preserve">
<style type="text/css">
	.st0{fill:#A8BECE;}
</style>
<path class="st0" d="M110.8,93.2l0.4,33.8c0,0.3-0.3,0.6-0.6,0.6l-23,0.2l-23,0.1C49.3,128,34,128,18.6,128c-0.6,0-1-0.5-1.1-1
	l-0.1-56l0.1-56c0-0.6,0.5-1.1,1.1-1.1l46,0.1l46,0.2c0.4,0,0.7,0.3,0.7,0.7l-0.1,23.5L111,62c0,0.2-0.2,0.4-0.4,0.4
	s-0.4-0.2-0.4-0.4L110,38.5L109.9,15l0.7,0.7l-46,0.2l-46,0.1l1.1-1.1l0.1,56l-0.1,56l-1.1-1.1c15.3,0,30.6,0,46,0.1l23,0.1l23,0.2
	L110,127l0.4-33.8c0-0.1,0.1-0.2,0.2-0.2S110.8,93.1,110.8,93.2z M47.5,116.4c-0.1,0-0.2,0-0.3-0.1c-0.2-0.2-0.3-0.5-0.1-0.7
	l2.8-4.1c0.2-0.2,0.5-0.3,0.7-0.1c0.2,0.2,0.3,0.5,0.1,0.7l-2.8,4.1C47.8,116.4,47.6,116.4,47.5,116.4z M53.1,108.2
	c-0.1,0-0.2,0-0.3-0.1c-0.2-0.2-0.3-0.5-0.1-0.7l2.8-4.1c0.2-0.2,0.5-0.3,0.7-0.1c0.2,0.2,0.3,0.5,0.1,0.7l-2.8,4.1
	C53.4,108.1,53.3,108.2,53.1,108.2z M91.1,106.4c-0.1,0-0.2,0-0.3-0.1l-4-3c-0.2-0.2-0.3-0.5-0.1-0.7c0.2-0.2,0.5-0.3,0.7-0.1l4,3
	c0.2,0.2,0.3,0.5,0.1,0.7C91.4,106.3,91.2,106.4,91.1,106.4z M94.2,104.3c-0.1,0-0.2,0-0.3-0.1c-0.2-0.2-0.3-0.5-0.1-0.7l2.8-4.1
	c0.2-0.2,0.5-0.3,0.7-0.1c0.2,0.2,0.3,0.5,0.1,0.7l-2.8,4.1C94.5,104.2,94.4,104.3,94.2,104.3z M83.2,100.3c-0.1,0-0.2,0-0.3-0.1
	l-4-3c-0.2-0.2-0.3-0.5-0.1-0.7c0.2-0.2,0.5-0.3,0.7-0.1l4,3c0.2,0.2,0.3,0.5,0.1,0.7C83.5,100.2,83.3,100.3,83.2,100.3z M58.7,99.9
	c-0.1,0-0.2,0-0.3-0.1c-0.2-0.2-0.3-0.5-0.1-0.7l2.8-4.1c0.2-0.2,0.5-0.3,0.7-0.1c0.2,0.2,0.3,0.5,0.1,0.7l-2.8,4.1
	C59,99.8,58.9,99.9,58.7,99.9z M99.8,96c-0.1,0-0.2,0-0.3-0.1c-0.2-0.2-0.3-0.5-0.1-0.7l2.8-4.1c0.2-0.2,0.5-0.3,0.7-0.1
	c0.2,0.2,0.3,0.5,0.1,0.7l-2.8,4.1C100.1,96,100,96,99.8,96z M75.2,94.2c-0.1,0-0.2,0-0.3-0.1l-4-3c-0.2-0.2-0.3-0.5-0.1-0.7
	c0.2-0.2,0.5-0.3,0.7-0.1l4,3c0.2,0.2,0.3,0.5,0.1,0.7C75.5,94.2,75.4,94.2,75.2,94.2z M64.4,91.6c-0.1,0-0.2,0-0.3-0.1
	c-0.2-0.2-0.3-0.5-0.1-0.7l2.6-3.8c0.1-0.1,0.2-0.2,0.3-0.2c0.1,0,0.3,0,0.4,0.1l0.4,0.3c0.2,0.2,0.3,0.5,0.1,0.7
	c-0.2,0.2-0.4,0.3-0.6,0.1l-2.3,3.3C64.7,91.6,64.5,91.6,64.4,91.6z M105.4,87.7c-0.1,0-0.2,0-0.3-0.1c-0.2-0.2-0.3-0.5-0.1-0.7
	l2.8-4.1c0.2-0.2,0.5-0.3,0.7-0.1c0.2,0.2,0.3,0.5,0.1,0.7l-2.8,4.1C105.7,87.7,105.6,87.7,105.4,87.7z M111,79.5
	c-0.1,0-0.2,0-0.3-0.1c-0.2-0.2-0.3-0.5-0.1-0.7l2.8-4.1c0.2-0.2,0.5-0.3,0.7-0.1c0.2,0.2,0.3,0.5,0.1,0.7l-2.8,4.1
	C111.3,79.4,111.2,79.5,111,79.5z M116.6,71.2c-0.1,0-0.2,0-0.3-0.1c-0.2-0.2-0.3-0.5-0.1-0.7l2.8-4.1c0.2-0.2,0.5-0.3,0.7-0.1
	c0.2,0.2,0.3,0.5,0.1,0.7L117,71C116.9,71.1,116.8,71.2,116.6,71.2z M35.1,35.2c4.1-0.5,8.2-0.7,12.4-0.8l6.2-0.1h6.2l12.4,0.2
	c4.1,0.1,8.2,0.2,12.4,0.6c0.2,0,0.4,0.2,0.4,0.4s-0.2,0.3-0.4,0.4c-4.1,0.4-8.2,0.5-12.4,0.6l-12.4,0.2h-6.2l-6.2-0.1
	c-4.1-0.1-8.2-0.3-12.4-0.8c-0.1,0-0.2-0.1-0.2-0.2C35,35.3,35,35.3,35.1,35.2z M33.8,51.9c5-0.5,10.1-0.7,15.1-0.8l7.5-0.1h7.5
	L79,51.2c5,0.1,10.1,0.2,15.1,0.6c0.2,0,0.4,0.2,0.4,0.4s-0.2,0.4-0.4,0.4C89.1,53,84,53.1,79,53.2l-15,0.1h-7.5L49,53.2
	c-5-0.1-10.1-0.3-15.1-0.8c-0.1,0-0.2-0.1-0.2-0.2C33.7,52,33.7,51.9,33.8,51.9z M35.1,69.5c4.9-0.5,9.8-0.7,14.8-0.8l7.4-0.1h7.4
	l14.8,0.2c4.9,0.1,9.8,0.2,14.8,0.6c0.2,0,0.4,0.2,0.4,0.4s-0.2,0.4-0.4,0.4c-4.9,0.4-9.8,0.5-14.8,0.6L64.7,71h-7.4l-7.4-0.1
	c-4.9-0.1-9.8-0.3-14.8-0.8c-0.1,0-0.2-0.1-0.2-0.2C35,69.5,35,69.5,35.1,69.5z M33.8,85.7c1.4-0.5,2.7-0.7,4.1-0.8l2-0.1h2
	c1.4,0,2.7,0.1,4.1,0.2c1.4,0.1,2.7,0.2,4.1,0.6c0.2,0.1,0.4,0.3,0.3,0.5c0,0.2-0.2,0.3-0.3,0.3c-1.4,0.4-2.7,0.5-4.1,0.6
	c-1.2-0.1-2.6,0-4,0h-2l-2-0.1c-1.4-0.1-2.7-0.3-4.1-0.8C33.8,86.1,33.7,85.9,33.8,85.7C33.7,85.7,33.8,85.7,33.8,85.7z"/>
<circle class="st0" cx="120.8" cy="64.2" r="3.6"/>
<circle class="st0" cx="48.7" cy="114.7" r="3.6"/>
<circle class="st0" cx="67.1" cy="88.6" r="3.6"/>
<circle class="st0" cx="92" cy="105.2" r="3.6"/>
</svg>
