<?xml version="1.0" encoding="utf-8"?><!DOCTYPE svg PUBLIC "-//W3C//DTD SVG 1.1//EN" "http://www.w3.org/Graphics/SVG/1.1/DTD/svg11.dtd"><svg version="1.1" id="Layer_1" xmlns="http://www.w3.org/2000/svg" xmlns:xlink="http://www.w3.org/1999/xlink" x="0px" y="0px"viewBox="0 0 200 200" enable-background="new 0 0 200 200" xml:space="preserve"><path fill="#D3DEE6" d="M133.4,7.6v98.3h-0.2c-9.1,0-16.5-7.4-16.5-16.5v0.2c0,9.1-7.4,16.5-16.5,16.5h-0.3c-9.1,0-16.5-7.4-16.5-16.5v-0.2c0,9.1-7.6,16.5-16.7,16.5V7.6C29.2,21.2,2.4,57.1,2.4,99.3c0,53.9,43.7,97.6,97.6,97.6c53.9,0,97.6-43.7,97.6-97.6C197.6,57.1,170.8,21.2,133.4,7.6z"/><circle fill="none" cx="100" cy="99.3" r="97.6"/><polygon fill="#FFFFFF" points="133,105.9 133.2,105.9 133.2,105.9 "/><rect x="66.8" y="105.9" fill="#FFFFFF" width="0" height="0.2"/><polygon fill="#91AEC2" points="99.8,105.9 100.2,105.9 100.2,105.9 "/><polygon fill="#485567" points="88.5,144.9 88.5,144.9 88.5,144.9 "/><polygon fill="#FFFFFF" points="133.4,105.9 100,73.2 66.6,105.9 100,165.7 "/><path fill="#485567" d="M100.1,133.6H100c-6.3,0-11.6,5.1-11.6,11.4l11.6,20.7l11.6-20.7C111.6,138.7,106.4,133.6,100.1,133.6z"/><path fill="#91AEC2" d="M100,1.7c-5.7,0-11.3,0.5-16.7,1.4v86.2v0.2c0,9.1,7.4,16.5,16.5,16.5h0.3c9.1,0,16.5-7.4,16.5-16.5v-0.2V3.2C111.3,2.2,105.7,1.7,100,1.7z"/><path fill="#B1C6D4" d="M83.3,89.4V3.2c-5.7,1-11.3,2.5-16.7,4.4v98.3C75.8,105.9,83.3,98.5,83.3,89.4z"/><path fill="#485567" d="M116.7,89.4c0,9.1,7.4,16.5,16.5,16.5h0.2V7.6c-5.4-1.9-10.9-3.4-16.7-4.4V89.4z"/></svg>