<svg height="40" viewBox="0 0 40 40" width="40" xmlns="http://www.w3.org/2000/svg"><path d="m25.3706969 32.8207729c-.0198456.0567989-.0423776.1130613-.0676295.1686166-2.0340171 4.474866-5.8131475 5.8678335-11.3373913 4.1789027-5.3606718-1.6389218-7.40257853-4.8746567-6.1257202-9.7072047l-3.3399559-1.021127v1.5600395c0 1.1045695-.8954305 2-2 2h-.5c-1.1045695 0-2-.8954305-2-2v-16c0-1.1045695.8954305-2 2-2h.5c1.1045695 0 2 .8954305 2 2v1.4096489l30.5-9.32478583v-2.08486307c0-1.1045695.8954305-2 2-2h.5c1.1045695 0 2 .8954305 2 2v36c0 1.1045695-.8954305 2-2 2h-.5c-1.1045695 0-2-.8954305-2-2v-2.2352537zm-4.2638845-1.3036003-8.754543-2.6765324c-1.6238747 1.5893791-.6164515 2.940303 3.0222695 4.0527717 3.6387182 1.1124678 5.5494733.6537221 5.7322735-1.3762393zm-16.6068124-9.7691308c.07473951.0138044.14947199.032004.22389767.0547582l30.27610233 9.2563334v-22.26865743l-30.27610233 9.25633343c-.07442568.0227542-.14915816.0409538-.22389767.0547582z" fill="#6ab3d0" fill-rule="evenodd"/></svg>
