<svg height="43" viewBox="0 0 47 43" width="47" xmlns="http://www.w3.org/2000/svg"><g fill="none" fill-rule="evenodd" transform="translate(-5 -7)"><path d="m0 0h56v56h-56z"/><path d="m39.075 7c-4.089 0-8.0135 1.89809264-10.575 4.8975477-2.5615-2.99945506-6.486-4.8975477-10.575-4.8975477-7.238 0-12.925 5.6708447-12.925 12.8882834 0 8.8577656 7.99 16.0752043 20.0925 27.0419618l3.4075 3.0697548 3.4075-3.093188c12.1025-10.9433243 20.0925-18.160763 20.0925-27.0185286 0-7.2174387-5.687-12.8882834-12.925-12.8882834zm-10.34 36.4386921-.235.2343324-.235-.2343324c-11.186-10.0997275-18.565-16.7782016-18.565-23.5504087 0-4.6866485 3.525-8.2016349 8.225-8.2016349 3.619 0 7.144 2.319891 8.3895 5.5302452h4.3945c1.222-3.2103542 4.747-5.5302452 8.366-5.5302452 4.7 0 8.225 3.5149864 8.225 8.2016349 0 6.7722071-7.379 13.4506812-18.565 23.5504087z" fill="#6ab3d0" fill-rule="nonzero"/></g></svg>
