<svg width="181" height="139" fill="none" xmlns="http://www.w3.org/2000/svg"><path d="M173 87.077a87.573 87.573 0 00-8.458-37.55 86.99 86.99 0 00-23.715-30.209 86.267 86.267 0 00-34.335-16.96 85.933 85.933 0 00-38.243-.397 86.24 86.24 0 00-34.675 16.243 86.96 86.96 0 00-24.33 29.71A87.56 87.56 0 00.02 85.28 87.59 87.59 0 007.699 123H165.3A87.25 87.25 0 00173 87.077z" fill="#E6F2E8"/><path d="M2 123h168M174 123h6" stroke="#055d9c" stroke-linecap="round" stroke-linejoin="round"/><path d="M91 132c35.898 0 65-.895 65-2s-29.102-2-65-2c-35.898 0-65 .895-65 2s29.102 2 65 2z" fill="#F6F7F7"/><rect x="37.5" y="110.5" width="90" height="17" rx="1.5" fill="#F5E6B3" stroke="#DEB100"/><path stroke="#DEB100" stroke-width="2" stroke-linecap="round" d="M44 114v10M51 114v10M58 114v10M65 114v10M72 114v10M79 114v10M86 114v10M93 114v10M100 114v10M107 114v10M114 114v10M121 114v10"/><rect x="31.5" y="93.5" width="90" height="17" rx="1.5" fill="#F5E6B3" stroke="#DEB100"/><path stroke="#DEB100" stroke-width="2" stroke-linecap="round" d="M38 97v10M45 97v10M52 97v10M59 97v10M66 97v10M73 97v10M80 97v10M87 97v10M94 97v10M101 97v10M108 97v10M115 97v10"/><rect x="33.5" y="76.5" width="90" height="17" rx="1.5" fill="#F5E6B3" stroke="#DEB100"/><path stroke="#DEB100" stroke-width="2" stroke-linecap="round" d="M40 80v10M47 80v10M54 80v10M61 80v10M68 80v10M75 80v10M82 80v10M89 80v10M96 80v10M103 80v10M110 80v10M117 80v10"/><rect x="23.5" y="59.5" width="90" height="17" rx="1.5" fill="#F5E6B3" stroke="#DEB100"/><path stroke="#DEB100" stroke-width="2" stroke-linecap="round" d="M30 63v10M37 63v10M44 63v10M51 63v10M58 63v10M65 63v10M72 63v10M79 63v10M86 63v10M93 63v10M100 63v10M107 63v10"/><path d="M105.703 46.323l1.113-.64 43.004 74.638-1.016.599-3.419 2.014c-2.637 1.551-5.684 3.34-7.331 4.291-5.14 2.967-12.237 1.671-19.658-3.093-7.396-4.749-14.981-12.869-20.973-23.248-5.992-10.378-9.232-21.007-9.646-29.787-.416-8.808 2.01-15.602 7.15-18.57 1.348-.778 4.429-2.552 7.172-4.13l3.604-2.074z" fill="#F2D76B" stroke="#DEB100"/><path stroke="#DEB100" stroke-width="2" stroke-linecap="round" d="M100.369 99.385l4.797-2.754M97.369 92.385l4.797-2.754M94.369 85.385l4.797-2.754M92.369 78.385l4.797-2.754M91.369 71.385l4.797-2.754M91.369 64.385l4.797-2.754M93.369 57.385l4.797-2.754M105.369 106.385l4.797-2.754M110.369 112.385l4.797-2.754M115.369 117.385l4.797-2.754M120.369 121.385l4.797-2.754M126.369 124.385l4.797-2.754M132.369 126.385l4.797-2.754"/><path d="M147.558 71.867c5.992 10.379 9.232 21.007 9.646 29.787.415 8.808-2.011 15.603-7.15 18.571-5.14 2.967-12.237 1.671-19.658-3.093-7.396-4.749-14.981-12.869-20.973-23.248-5.992-10.378-9.232-21.007-9.646-29.787-.416-8.808 2.01-15.602 7.15-18.57 5.14-2.967 12.237-1.671 19.658 3.093 7.396 4.748 14.98 12.869 20.973 23.247z" fill="#F5E6B3" stroke="#DEB100"/><path stroke="#fff" stroke-width="2" stroke-linecap="round" d="M126.123 60.293l-10.364 20.728M126.123 77.181l-7.55 15.099"/></svg>