<svg height="172" viewBox="0 0 225 172" width="225" xmlns="http://www.w3.org/2000/svg" xmlns:xlink="http://www.w3.org/1999/xlink"><mask id="a" fill="#fff"><path d="m0 161.428h224.565v-161.428h-224.565z" fill="#fff" fill-rule="evenodd"/></mask><g fill="none" fill-rule="evenodd"><g transform="translate(0 10)"><path d="m173.0663 72.6563 23.507-.05 5.877.005 2.938.003 1.47.002c.517.007 1.034.027 1.549.076 4.132.378 8.068 2.434 10.754 5.584 1.348 1.567 2.395 3.396 3.058 5.356.678 1.939.92 4.091.86 6.063l-.029 11.787c-.14 4.139-2.006 8.167-5.009 10.985-2.99 2.839-7.116 4.406-11.18 4.275-.309-.008-.552-.265-.543-.572.008-.297.25-.534.543-.543 3.782-.101 7.449-1.67 10.095-4.29 2.678-2.592 4.274-6.219 4.415-9.922l.003-11.72c.049-1.942-.171-3.741-.78-5.511-.596-1.749-1.534-3.382-2.743-4.781-2.409-2.812-5.924-4.637-9.608-4.968-.461-.043-.922-.059-1.385-.065l-1.47.001-2.938.003-5.877.006-23.507-.051c-.463-.001-.836-.376-.835-.838s.372-.836.835-.835" fill="#bedae6"/><path d="m137.3085 64.9073h18.076v-18.076l-18.076-6.326z" fill="#e6f1f5"/><path d="m196.9588 102.8663c5.423 19.883 8.134 38.862-12.653 42.478l-7.674-21.514-3.113-9.563z" fill="#e6f1f5"/><path d="m151.7694 61.2921c0 .499-.404.903-.903.903-.5 0-.905-.404-.905-.903s.405-.904.905-.904c.499 0 .903.405.903.904" fill="#fff"/><path d="m131.9012 16.0636c0 18.679 1.124 33.497 15.343 32.911 8.14-.336 12.841-2.84 16.456-19.108 0 0-1.085-23.706-8.316-23.706-7.23 0-23.483 9.903-23.483 9.903" fill="#e6f1f5"/><path d="m118.7079 108.4542-14.336-1.309c2.658-20.005 11.318-31.021 27.514-48.565l13.706 1.874-.09 85.168-29.696-.485z" fill="#006088"/><path d="m198.7381 104.1505c-9.673-21.348-14.99-32.112-36.123-45.57l-17.204 1.874.091 85.168 37.585-.42-9.569-30.935z" fill="#006088"/><path d="m185.7489 145.2023-25.798-11.589c-7.596 2.138-16.229-1.538-16.229-1.538-3.368.227-9.115 4.159-10.97 5.406-1.599 1.075-4.481-1.175-4.481-1.175-2.246-1.748-3.155-4.18-.967-6 3.628-3.014 12.679-9.388 20.959-10.368 14.103-1.668 24.811 2.558 36.819 6.561z" fill="#e6f1f5"/><path d="m155.7294 53.0382v-6.979c-6.004 2.667-10.674 2.871-15.344 1.333-4.67-1.537 6.671 5.774 15.344 5.646" fill="#bedae6"/><path d="m142.3866 16.1476c2.113-.064 4.226-.039 6.338-.007 2.112.051 4.225.108 6.338.286.153.013.267.149.255.303-.012.138-.122.244-.255.255-2.113.179-4.226.235-6.338.286-2.112.032-4.225.058-6.338-.007-.308-.01-.55-.267-.54-.575.009-.296.248-.531.54-.541" fill="#bedae6"/><path d="m156.4178 46.0812c.356.403.224.807.269 1.21l.039 1.209c.011.807.048 1.613.031 2.419.004.807-.027 1.613-.066 2.419-.02.806-.074 1.613-.523 2.419-.077.138-.251.188-.389.111-.048-.026-.086-.066-.111-.111-.449-.806-.503-1.613-.523-2.419-.039-.806-.069-1.612-.066-2.419-.017-.806.021-1.612.032-2.419l.038-1.209c.045-.403-.087-.807.269-1.21.244-.276.666-.302.941-.058.021.018.041.038.059.058" fill="#006088"/><path d="m57.5819 145.1368h-44.652v-17.591h42.006c1.461 0 2.646 1.186 2.646 2.647z" fill="#006088"/><path d="m9.6503 116.2911c-2.812-.016-5.87 1.859-8.813 4.706" stroke="#bedae6" stroke-linecap="round" stroke-linejoin="round" stroke-width="1.673"/><g fill="#bedae6"><path d="m18.7538 128.6349c-.515-1.221-1.052-2.427-1.612-3.64l-.827-1.832c-.257-.624-.529-1.243-.743-1.899-.098-.297.064-.618.362-.716.228-.075.472.005.617.181.44.542.809 1.129 1.169 1.723.347.601.664 1.221.94 1.862.55 1.279 1.017 2.624 1.176 4.05.034.31-.188.588-.497.623-.254.028-.486-.118-.581-.341z"/><path d="m.8368 120.1603 14.515-.049 14.515.024-.599.242c1.672-1.597 3.506-3.099 5.714-4.103.56-.234 1.11-.488 1.725-.616.303-.068.592-.18.907-.208l.946-.085c.312-.051.634.012.954.038.316.048.645.034.95.142.61.2 1.247.356 1.773.719 2.245 1.275 3.558 3.431 4.556 5.51 1.014 2.12 1.565 4.364 2.073 6.59.069.301-.119.6-.419.668-.282.065-.562-.097-.653-.365l-.01-.032c-.703-2.117-1.367-4.253-2.392-6.177-.961-1.931-2.243-3.749-3.969-4.725-1.707-1.051-3.846-.779-5.737.091-1.915.871-3.642 2.271-5.219 3.792-.167.161-.385.241-.6.242l-14.515.024-14.515-.049c-.462-.001-.836-.377-.834-.839.002-.461.375-.833.834-.834"/><path d="m10.0272 115.4542 20.953.279c.308.004.555.257.55.566-.004.302-.249.546-.55.55l-20.953.279c-.462.006-.842-.363-.848-.825-.006-.463.364-.842.826-.849z"/></g><path d="m132.4012 16.0636c.351 2.728.251 5.45.386 8.166.113 2.713.291 5.421.658 8.089.372 2.661.906 5.308 1.883 7.75.972 2.428 2.427 4.656 4.521 6.085 2.084 1.446 4.703 1.995 7.321 2.021 2.595.047 5.127-.76 7.203-2.278.529-.363.99-.825 1.471-1.254.431-.486.905-.933 1.285-1.47.845-.999 1.509-2.154 2.151-3.313 1.228-2.362 2.164-4.901 2.941-7.509.039-.133.178-.209.311-.171.12.035.193.154.179.273-.348 2.735-1.077 5.442-2.24 7.996-1.208 2.513-2.834 4.96-5.186 6.676-2.316 1.735-5.243 2.68-8.121 2.644-2.814-.005-5.792-.575-8.246-2.246-1.22-.82-2.272-1.878-3.121-3.053-.843-1.181-1.492-2.471-2.011-3.791-1.032-2.648-1.558-5.407-1.921-8.149-.357-2.748-.515-5.5-.609-8.245-.057-2.744-.204-5.486.145-8.221.035-.276.287-.472.563-.437.233.031.408.215.437.437" fill="#006088"/><path d="m145.7294 28.1827c.248 1.204.33 2.409.372 3.613.012.603.017 1.205-.02 1.807-.034.602-.074 1.205-.183 1.807-.054.3-.342.501-.643.446-.232-.042-.405-.226-.445-.446-.109-.602-.149-1.205-.183-1.807-.037-.602-.032-1.204-.02-1.807.042-1.204.124-2.409.372-3.613.043-.207.245-.341.452-.298.154.032.268.152.298.298" fill="#006088"/><path d="m138.4969 31.7882c-.718 0-1.3-.582-1.3-1.3v-2.039c0-.719.582-1.3 1.3-1.3s1.3.581 1.3 1.3v2.039c0 .718-.582 1.3-1.3 1.3" fill="#006088"/><path d="m151.9139 31.7882c-.718 0-1.3-.582-1.3-1.3v-2.039c0-.719.582-1.3 1.3-1.3s1.3.581 1.3 1.3v2.039c0 .718-.582 1.3-1.3 1.3" fill="#006088"/><path d="m142.9208 41.3595c1.096 1.486 4.266 1.658 5.342-.09" stroke="#006088" stroke-linecap="round" stroke-linejoin="round" stroke-width="1.5"/><path d="m148.2628.0001c16.712 0 21.364 17.386 15.437 31.84 0 0-.7-9.603-7.782-18.164-7.082-8.562-.634 10.785-27.54 10.785 0 0-3.78-24.461 19.885-24.461z" fill="#006088"/><path d="m166.827 29.4689-.668 3.691" stroke="#bedae6" stroke-linecap="round" stroke-linejoin="round" stroke-width="1.673"/><g fill="#006088"><path d="m137.3085 54.0616 8.283 6.393-1.466 2.866c-1.318 2.576-4.735 3.174-6.85 1.199l-5.39-5.939z"/><path d="m156.6571 53.6417-11.065 6.812 1.466 2.867c1.319 2.576 4.736 3.174 6.851 1.199l8.706-5.94z"/><path d="m173.994 114.1124c.469.288.472.728.645 1.112l.425 1.184c.271.793.566 1.578.809 2.381.263.796.492 1.602.716 2.411.24.803.448 1.616.281 2.553-.028.154-.176.256-.33.228-.057-.01-.107-.036-.146-.074-.686-.657-.997-1.438-1.276-2.229-.295-.785-.584-1.572-.841-2.37-.275-.792-.499-1.6-.748-2.4l-.352-1.208c-.087-.412-.343-.77-.134-1.278.138-.335.521-.496.856-.358.033.013.067.03.095.048"/><path d="m184.9237 126.9728c-2.61-.502-5.059-1.475-7.563-2.254-2.497-.803-4.997-1.577-7.524-2.22-5.046-1.301-10.206-2.098-15.388-2.091-5.186-.023-10.372.676-15.115 2.707-4.712 2.051-9.061 4.998-12.76 8.652l-.017.017c-.098.096-.256.095-.353-.002-.087-.088-.095-.225-.025-.322 3.146-4.349 7.625-7.621 12.555-9.752 2.466-1.076 5.074-1.819 7.722-2.29 2.659-.483 5.314-.633 7.99-.667 5.356-.091 10.668.867 15.794 2.206 2.569.675 5.091 1.479 7.596 2.307 2.496.857 5.024 1.596 7.404 2.761.25.122.355.424.233.674-.102.209-.331.316-.549.274"/><path d="m142.5184 127.6993c-1.209.141-2.411.569-3.577 1.069-1.16.525-2.315 1.095-3.428 1.752-1.116.651-2.233 1.313-3.32 2.028-.552.343-1.1.696-1.642 1.057l-.821.533-.407.27-.205.133-.103.066-.052.034-.026.017-.015.01-.008.006-.007.004c.007.326-1.297-1.313-.642-.765.203-.188.52-.174.706.029.188.203.174.52-.029.706.657.547-.646-1.094-.636-.769-.006.004-.001 0-.001 0l.004-.004.01-.009.022-.021.046-.042.092-.085.185-.168.379-.327.769-.638c.523-.41 1.054-.813 1.591-1.206 1.094-.759 2.204-1.502 3.377-2.151 1.176-.638 2.372-1.266 3.654-1.723 1.274-.462 2.623-.841 4.053-.806.276.007.495.236.488.513-.006.253-.198.457-.442.485z"/><path d="m132.8749 136.6056c.638-.851 1.393-1.524 2.221-2.128.829-.595 1.72-1.101 2.641-1.55.919-.453 1.885-.82 2.879-1.094.988-.3 2.021-.441 3.052-.546.111-.011.22.005.317.044l.045.017c1.211.48 2.531.882 3.83 1.204 1.31.323 2.637.562 3.969.717 1.332.166 2.67.179 3.995.14 1.329-.049 2.632-.272 3.905-.586l.03-.008c.181-.045.365-.024.524.048l11.544 5.18c1.925.864 3.849 1.727 5.743 2.657 1.891.938 3.779 1.884 5.618 2.938.121.069.163.223.093.343-.059.105-.184.15-.296.114-2.015-.656-3.984-1.419-5.949-2.189-1.962-.78-3.893-1.624-5.825-2.47l-11.593-5.072.555.039c-1.402.365-2.831.618-4.266.684-1.43.063-2.863.009-4.271-.172-1.409-.177-2.802-.443-4.171-.793-1.375-.359-2.7-.77-4.053-1.321l.362.062c-.922.088-1.849.2-2.747.466-.901.239-1.785.564-2.632.972-1.707.793-3.253 1.93-4.797 2.995l-.035.025c-.228.157-.542.099-.699-.129-.126-.182-.114-.419.011-.587"/></g><path d="m139.7967 122.0929c-8.751-.042-12.168 2.633-11.641 3.496.555.91 6.051-1.433 7.143-1.314" stroke="#006088" stroke-linecap="round" stroke-linejoin="round" stroke-width="1.5"/><path d="m199.3612 108.3927c.604 1.278.716 2.655.974 4.003.227 1.353.427 2.714.602 4.078.336 2.731.592 5.486.549 8.262-.022 2.771-.285 5.568-1.002 8.294-.684 2.695-1.967 5.458-4.25 7.189-.111.085-.269.064-.354-.048-.067-.089-.067-.207-.008-.294l.004-.005c1.506-2.241 2.476-4.649 3.108-7.219.601-2.573.797-5.25.823-7.928.003-2.682-.146-5.378-.453-8.063-.151-1.343-.328-2.685-.531-4.025-.172-1.346-.543-2.654-.444-4.057.018-.284.263-.499.547-.482.194.013.357.133.435.295" fill="#006088"/><path d="m124.079 23.0724c1.152-.272 2.264-.072 3.389-.063 1.121.031 2.239.039 3.354.014 2.228-.053 4.436-.298 6.569-.773 2.125-.493 4.176-1.276 5.951-2.493 1.774-1.23 3.223-2.807 4.702-4.535.09-.108.251-.123.358-.032.081.068.109.179.079.274-.723 2.235-2.307 4.175-4.248 5.556-1.927 1.42-4.175 2.341-6.46 2.864-2.287.552-4.622.704-6.924.733-1.152.004-2.3-.024-3.445-.078-1.139-.095-2.291-.03-3.399-.47-.27-.106-.402-.411-.294-.68.064-.164.209-.278.368-.317" fill="#006088"/><path d="m127.2382 136.339h-67.942c-3.18 0-5.863-2.365-6.262-5.52l-5.777-45.694c-.477-3.769 2.461-7.102 6.26-7.102h67.944c3.179 0 5.862 2.365 6.26 5.519l5.779 45.694c.476 3.77-2.462 7.103-6.262 7.103" fill="#bedae6"/><path d="m73.363 145.624h33.181v-30.649h-33.181z" fill="#6ab3d0" mask="url(#a)"/><path d="m10.0653 160.7687-.283-15.566c-.008-.383.297-.699.679-.705h.005l.021-.001 13.329-.163 13.328-.081 26.656-.076 53.313-.075 53.313.074 53.313.201h.012c.451.001.816.369.814.821v.005l-.159 15.566c-.004.367-.306.663-.674.659-.363-.004-.655-.298-.659-.659l-.159-15.566.825.826-53.313.2-53.313.074-53.313-.075-26.656-.076-13.328-.081-13.329-.162.706-.706-.283 15.566c-.005.232-.198.418-.431.414-.227-.004-.41-.188-.414-.414" fill="#006088" mask="url(#a)"/><path d="m150.9022 20.9952c.553-.419 1.105-.478 1.627-.528.524-.025 1.037.023 1.534.146.492.132.991.269 1.449.531.459.25.913.575 1.242 1.061.155.23.094.543-.136.699-.171.114-.386.112-.55.009l-.053-.033c-.312-.197-.676-.358-1.06-.493-.395-.116-.791-.254-1.208-.323-.413-.074-.829-.148-1.237-.187-.401-.055-.813-.047-1.09-.028l-.191.015c-.266.02-.499-.181-.518-.447-.013-.169.066-.326.191-.422" fill="#006088" mask="url(#a)"/><path d="m140.6805 21.8497c-.277-.02-.689-.027-1.091.027-.407.039-.822.114-1.236.188-.417.068-.814.207-1.207.322-.386.136-.749.297-1.062.493l-.052.033c-.236.148-.546.078-.695-.158-.109-.174-.098-.389.009-.55.328-.486.782-.81 1.241-1.06.459-.263.957-.399 1.449-.531.498-.123 1.01-.171 1.535-.147.521.051 1.074.11 1.628.529.212.161.254.464.093.677-.102.136-.261.202-.419.192z" fill="#006088" mask="url(#a)"/><path d="m155.1356 83.7433v10.931" mask="url(#a)" stroke="#006088" stroke-linecap="round" stroke-linejoin="round" stroke-width="1.5"/><path d="m161.3114 96.794h-1.077c-1.084 0-1.963-.879-1.963-1.963v-8.235c0-1.084.879-1.963 1.963-1.963h1.077c1.084 0 1.963.879 1.963 1.963v8.235c0 1.084-.879 1.963-1.963 1.963" fill="#3895ba" mask="url(#a)"/><path d="m161.3378 98.3468h-8.112c-2.701 0-4.892-2.189-4.892-4.892h17.897c0 2.703-2.191 4.892-4.893 4.892" fill="#3895ba" mask="url(#a)"/><path d="m146.2176 60.8653c.357.884.224 1.768.266 2.651l.032 2.652c.012 1.768.062 3.536.041 5.303.004 1.768-.027 3.537-.066 5.304-.02 1.768-.074 3.535-.523 5.304-.035.138-.175.222-.313.186-.095-.024-.164-.098-.187-.186-.449-1.769-.502-3.536-.523-5.304-.038-1.767-.069-3.536-.066-5.304-.02-1.767.03-3.535.042-5.303l.031-2.652c.043-.883-.09-1.767.266-2.651.111-.276.426-.41.702-.299.141.058.245.168.298.299" fill="#006088" mask="url(#a)"/></g><path d="m82.5 76.5v-28" stroke="#bedae6" stroke-dasharray="6" stroke-linecap="square" stroke-width="2"/><g fill="#006088" font-family="NotoSans-Bold, Noto Sans" font-size="22" font-weight="bold" letter-spacing="-2.214667"><text><tspan x="56.317783" y="48">$</tspan></text><text><tspan x="76.317783" y="18">€</tspan></text><text><tspan x="98.317783" y="43">¥</tspan></text></g></g></svg>
