<svg width="177" height="157" fill="none" xmlns="http://www.w3.org/2000/svg"><circle cx="86.746" cy="78.5" r="78.5" fill="#E6F2E8"/><path d="M1.229 41.6h-.5v89.718a2.5 2.5 0 002.5 2.5H173.77a2.5 2.5 0 002.5-2.5V41.601H1.229z" fill="#fff" stroke="#A7AAAD"/><path d="M4.352 24.182h168.296a3.5 3.5 0 013.5 3.5V41.6H.852V27.68a3.5 3.5 0 013.5-3.5z" fill="#F6F7F7" stroke="#A7AAAD"/><rect x="78.413" y="100.866" width="90.341" height="24.559" rx="4" fill="#1689db"/><rect x="8.745" y="49.617" width="62.151" height="76.184" rx="3.5" fill="#F6F7F7" stroke="#C3C4C7"/><rect x="32.677" y="80.566" width="14.288" height="14.288" rx="1.25" stroke="#A7AAAD" stroke-width="1.5"/><path d="M32.804 91.218l4.01-2.924 3.007 1.95 3.508-3.412 3.508 3.411" stroke="#A7AAAD" stroke-width="1.5" stroke-linejoin="round"/><path fill="#fff" d="M106.479 109.637h49.117v7.017h-49.117z"/><path fill="#646970" d="M78.413 52.626h63.151v10.525H78.413z"/><path fill="#DCDCDE" d="M78.413 70.168h84.201v7.017H78.413zM78.413 80.693h35.084v7.017H78.413z"/><rect x="85.431" y="106.128" width="14.034" height="14.034" rx="7.017" stroke="#fff" stroke-width="1.5"/><path d="M93.89 111.61a.75.75 0 101.5 0h-1.5zm-1.443.785c-.47 0-.865-.134-1.12-.314-.26-.181-.323-.359-.323-.471h-1.5c0 .736.427 1.326.962 1.7.538.376 1.24.585 1.98.585v-1.5zm-1.443-.785c0-.112.064-.29.322-.471.256-.179.65-.314 1.12-.314v-1.5c-.74 0-1.442.209-1.98.586-.535.374-.962.964-.962 1.699h1.5zm1.443-.785c.47 0 .864.135 1.12.314.259.181.322.359.322.471h1.5c0-.735-.427-1.325-.962-1.699-.537-.377-1.24-.586-1.98-.586v1.5z" fill="#fff"/><path d="M91.003 114.68a.75.75 0 00-1.5 0h1.5zm1.443-.785c.47 0 .864.135 1.12.314.259.181.323.359.323.471h1.5c0-.736-.427-1.325-.962-1.7-.538-.376-1.24-.585-1.981-.585v1.5zm1.443.785c0 .112-.064.29-.323.471-.256.179-.65.314-1.12.314v1.5c.74 0 1.443-.209 1.98-.585.536-.375.963-.964.963-1.7h-1.5zm-1.443.785c-.47 0-.864-.135-1.12-.314-.259-.181-.323-.359-.323-.471h-1.5c0 .736.427 1.325.962 1.7.538.376 1.24.585 1.98.585v-1.5z" fill="#fff"/><path d="M93.196 116.654a.75.75 0 10-1.5 0h1.5zm-1.5.438a.75.75 0 001.5 0h-1.5zm0-.438v.438h1.5v-.438h-1.5zM93.196 109.198a.75.75 0 00-1.5 0h1.5zm-1.5.439a.75.75 0 001.5 0h-1.5zm0-.439v.439h1.5v-.439h-1.5z" fill="#fff"/><path d="M10.974 35.953a3.248 3.248 0 100-6.497 3.248 3.248 0 000 6.497zM23.245 35.953a3.248 3.248 0 100-6.497 3.248 3.248 0 000 6.497zM35.517 35.953a3.248 3.248 0 100-6.497 3.248 3.248 0 000 6.497z" fill="#C3C4C7"/></svg>