<svg width="223" height="152" viewBox="0 0 223 152" fill="none" xmlns="http://www.w3.org/2000/svg">
<path d="M215.021 103.755C215.019 88.2704 211.561 72.9826 204.898 59.0123C198.236 45.0421 188.538 32.7435 176.517 23.0184C164.496 13.2933 150.456 6.38822 135.426 2.80944C120.396 -0.769345 104.758 -0.931091 89.6574 2.33606C74.5571 5.60321 60.3778 12.2164 48.159 21.6908C35.9401 31.1652 25.9917 43.2606 19.043 57.0901C12.0942 70.9196 8.32147 86.1326 8.00125 101.614C7.68103 117.095 10.8215 132.451 17.1924 146.558H205.807C211.893 133.113 215.034 118.518 215.021 103.755Z" fill="#E6F2E8"/>
<path d="M1 146.558H222" stroke="#50575E" stroke-linecap="round" stroke-linejoin="round"/>
<path d="M20.4861 35.1299C20.4861 33.1969 22.0531 31.6299 23.9861 31.6299H198.254C200.187 31.6299 201.754 33.1969 201.754 35.1299V50.3756H20.4861V35.1299Z" fill="white" stroke="#C3C4C7"/>
<path d="M20.4858 50.6157H201.754V147.122C201.754 149.055 200.187 150.622 198.254 150.622H23.9858C22.0529 150.622 20.4858 149.055 20.4858 147.122V50.6157Z" fill="white" stroke="#C3C4C7"/>
<rect x="35.6748" y="80.9924" width="30.8969" height="18.7457" rx="3.5" fill="white" stroke="#8C8F94"/>
<path d="M52.652 89.0361C52.652 89.4503 52.9878 89.7861 53.402 89.7861C53.8162 89.7861 54.152 89.4503 54.152 89.0361H52.652ZM51.5034 89.6151C51.1141 89.6151 50.7938 89.5034 50.5909 89.3614C50.3857 89.2177 50.3547 89.0912 50.3547 89.0361H48.8547C48.8547 89.715 49.2488 90.2529 49.7307 90.5903C50.215 90.9293 50.8441 91.1151 51.5034 91.1151V89.6151ZM50.3547 89.0361C50.3547 88.981 50.3857 88.8544 50.5909 88.7107C50.7938 88.5687 51.1141 88.457 51.5034 88.457V86.957C50.8441 86.957 50.215 87.1429 49.7307 87.4819C49.2488 87.8192 48.8547 88.3572 48.8547 89.0361H50.3547ZM51.5034 88.457C51.8926 88.457 52.2129 88.5687 52.4158 88.7107C52.6211 88.8544 52.652 88.981 52.652 89.0361H54.152C54.152 88.3572 53.7579 87.8192 53.276 87.4819C52.7917 87.1429 52.1627 86.957 51.5034 86.957V88.457Z" fill="#2C3338"/>
<path d="M50.3549 91.6954C50.3549 91.2812 50.0191 90.9454 49.6049 90.9454C49.1906 90.9454 48.8549 91.2812 48.8549 91.6954L50.3549 91.6954ZM51.5035 91.1163C51.8928 91.1163 52.213 91.228 52.4159 91.37C52.6212 91.5137 52.6521 91.6403 52.6521 91.6954L54.1521 91.6954C54.1521 91.0165 53.758 90.4785 53.2761 90.1412C52.7918 89.8022 52.1628 89.6163 51.5035 89.6163L51.5035 91.1163ZM52.6521 91.6954C52.6521 91.7505 52.6212 91.877 52.4159 92.0207C52.213 92.1628 51.8928 92.2744 51.5035 92.2744L51.5035 93.7744C52.1628 93.7744 52.7918 93.5886 53.2761 93.2496C53.758 92.9122 54.1521 92.3743 54.1521 91.6954L52.6521 91.6954ZM51.5035 92.2744C51.1142 92.2744 50.7939 92.1628 50.591 92.0207C50.3858 91.877 50.3549 91.7505 50.3549 91.6954L48.8549 91.6954C48.8549 92.3743 49.249 92.9122 49.7309 93.2496C50.2151 93.5886 50.8442 93.7744 51.5035 93.7744L51.5035 92.2744Z" fill="#2C3338"/>
<path d="M52.2534 93.4033C52.2534 92.9891 51.9176 92.6533 51.5034 92.6533C51.0892 92.6533 50.7534 92.9891 50.7534 93.4033L52.2534 93.4033ZM50.7534 93.783C50.7534 94.1973 51.0892 94.533 51.5034 94.533C51.9176 94.533 52.2534 94.1973 52.2534 93.783L50.7534 93.783ZM50.7534 93.4033L50.7534 93.783L52.2534 93.783L52.2534 93.4033L50.7534 93.4033Z" fill="#2C3338"/>
<path d="M52.2534 86.9482C52.2534 86.534 51.9176 86.1982 51.5034 86.1982C51.0892 86.1982 50.7534 86.534 50.7534 86.9482L52.2534 86.9482ZM50.7534 87.328C50.7534 87.7422 51.0892 88.078 51.5034 88.078C51.9176 88.078 52.2534 87.7422 52.2534 87.328L50.7534 87.328ZM50.7534 86.9482L50.7534 87.328L52.2534 87.328L52.2534 86.9482L50.7534 86.9482Z" fill="#2C3338"/>
<line x1="35.1748" y1="108.853" x2="54.9205" y2="108.853" stroke="#A7AAAD"/>
<rect x="35" y="118" width="69" height="21" rx="4" fill="#2C3338"/>
<path d="M42.5374 130.042C42.5911 131.355 43.6799 132.18 45.3596 132.18C47.1272 132.18 48.2161 131.311 48.2161 129.89C48.2161 128.796 47.6057 128.186 46.1897 127.888L45.3401 127.708C44.5149 127.532 44.178 127.283 44.178 126.848C44.178 126.311 44.6663 125.969 45.4036 125.969C46.1165 125.969 46.634 126.34 46.7024 126.897H48.0891C48.0452 125.642 46.9465 124.773 45.3938 124.773C43.7678 124.773 42.6985 125.647 42.6985 126.975C42.6985 128.049 43.3284 128.718 44.6125 128.987L45.5305 129.182C46.3948 129.368 46.7463 129.626 46.7463 130.076C46.7463 130.608 46.2043 130.979 45.4377 130.979C44.6077 130.979 44.0315 130.613 43.9631 130.042H42.5374ZM50.6018 124.954H49.1272V129.568C49.1272 131.13 50.2747 132.18 52.0764 132.18C53.8831 132.18 55.0305 131.13 55.0305 129.568V124.954H53.5559V129.417C53.5559 130.305 53.0237 130.872 52.0764 130.872C51.134 130.872 50.6018 130.305 50.6018 129.417V124.954ZM59.4133 132C60.9172 132 61.8499 131.218 61.8499 129.983C61.8499 129.075 61.1711 128.372 60.2385 128.303V128.215C60.9612 128.108 61.5129 127.458 61.5129 126.711C61.5129 125.623 60.6975 124.954 59.3303 124.954H56.2493V132H59.4133ZM57.7239 126.082H58.9543C59.6575 126.082 60.0627 126.418 60.0627 126.98C60.0627 127.546 59.6282 127.874 58.8323 127.874H57.7239V126.082ZM57.7239 130.872V128.87H59.0032C59.8723 128.87 60.3459 129.211 60.3459 129.856C60.3459 130.515 59.887 130.872 59.0374 130.872H57.7239ZM62.3655 130.042C62.4192 131.355 63.5081 132.18 65.1877 132.18C66.9553 132.18 68.0442 131.311 68.0442 129.89C68.0442 128.796 67.4338 128.186 66.0178 127.888L65.1682 127.708C64.343 127.532 64.0061 127.283 64.0061 126.848C64.0061 126.311 64.4944 125.969 65.2317 125.969C65.9446 125.969 66.4622 126.34 66.5305 126.897H67.9172C67.8733 125.642 66.7747 124.773 65.2219 124.773C63.5959 124.773 62.5266 125.647 62.5266 126.975C62.5266 128.049 63.1565 128.718 64.4407 128.987L65.3586 129.182C66.2229 129.368 66.5745 129.626 66.5745 130.076C66.5745 130.608 66.0325 130.979 65.2659 130.979C64.4358 130.979 63.8596 130.613 63.7913 130.042H62.3655ZM71.9338 132.18C73.6331 132.18 74.8733 131.13 74.9954 129.607H73.5598C73.4182 130.383 72.7834 130.881 71.9387 130.881C70.8254 130.881 70.137 129.958 70.137 128.474C70.137 126.99 70.8254 126.072 71.9338 126.072C72.7737 126.072 73.4133 126.604 73.5549 127.415H74.9905C74.8831 125.881 73.6038 124.773 71.9338 124.773C69.8879 124.773 68.6282 126.184 68.6282 128.474C68.6282 130.769 69.8928 132.18 71.9338 132.18ZM77.3274 126.145H78.6067C79.3391 126.145 79.7981 126.565 79.7981 127.234C79.7981 127.913 79.3635 128.313 78.6213 128.313H77.3274V126.145ZM77.3274 129.446H78.5334L79.8469 132H81.5168L80.0325 129.216C80.843 128.894 81.3118 128.113 81.3118 127.214C81.3118 125.813 80.3596 124.954 78.8118 124.954H75.8528V132H77.3274V129.446ZM83.7708 132V124.954H82.2961V132H83.7708ZM88.1438 132C89.6477 132 90.5803 131.218 90.5803 129.983C90.5803 129.075 89.9016 128.372 88.969 128.303V128.215C89.6917 128.108 90.2434 127.458 90.2434 126.711C90.2434 125.623 89.428 124.954 88.0608 124.954H84.9797V132H88.1438ZM86.4543 126.082H87.6848C88.3879 126.082 88.7932 126.418 88.7932 126.98C88.7932 127.546 88.3586 127.874 87.5627 127.874H86.4543V126.082ZM86.4543 130.872V128.87H87.7336C88.6028 128.87 89.0764 129.211 89.0764 129.856C89.0764 130.515 88.6174 130.872 87.7678 130.872H86.4543ZM96.0813 130.74H92.8879V129.026H95.9006V127.859H92.8879V126.213H96.0813V124.954H91.4133V132H96.0813V130.74Z" fill="white"/>
<rect x="72.1289" y="80.9924" width="30.8969" height="18.7457" rx="3.5" fill="white" stroke="#8C8F94"/>
<path d="M92.1432 89.0361C92.1432 89.4503 92.479 89.7861 92.8932 89.7861C93.3074 89.7861 93.6432 89.4503 93.6432 89.0361H92.1432ZM90.9946 89.6151C90.6053 89.6151 90.285 89.5034 90.0821 89.3614C89.8769 89.2177 89.8459 89.0912 89.8459 89.0361H88.3459C88.3459 89.715 88.74 90.2529 89.2219 90.5903C89.7062 90.9293 90.3353 91.1151 90.9946 91.1151V89.6151ZM89.8459 89.0361C89.8459 88.981 89.8769 88.8544 90.0821 88.7107C90.285 88.5687 90.6053 88.457 90.9946 88.457V86.957C90.3353 86.957 89.7062 87.1429 89.2219 87.4819C88.74 87.8192 88.3459 88.3572 88.3459 89.0361H89.8459ZM90.9946 88.457C91.3839 88.457 91.7041 88.5687 91.907 88.7107C92.1123 88.8544 92.1432 88.981 92.1432 89.0361H93.6432C93.6432 88.3572 93.2491 87.8192 92.7672 87.4819C92.2829 87.1429 91.6539 86.957 90.9946 86.957V88.457Z" fill="#2C3338"/>
<path d="M89.8461 91.6954C89.8461 91.2812 89.5103 90.9454 89.0961 90.9454C88.6819 90.9454 88.3461 91.2812 88.3461 91.6954L89.8461 91.6954ZM90.9947 91.1163C91.384 91.1163 91.7042 91.228 91.9071 91.37C92.1124 91.5137 92.1433 91.6403 92.1433 91.6954L93.6433 91.6954C93.6433 91.0165 93.2492 90.4785 92.7673 90.1412C92.283 89.8022 91.654 89.6163 90.9947 89.6163L90.9947 91.1163ZM92.1433 91.6954C92.1433 91.7505 92.1124 91.877 91.9071 92.0207C91.7042 92.1628 91.384 92.2744 90.9947 92.2744L90.9947 93.7744C91.654 93.7744 92.283 93.5886 92.7673 93.2496C93.2492 92.9122 93.6433 92.3743 93.6433 91.6954L92.1433 91.6954ZM90.9947 92.2744C90.6054 92.2744 90.2852 92.1628 90.0823 92.0207C89.877 91.877 89.8461 91.7505 89.8461 91.6954L88.3461 91.6954C88.3461 92.3743 88.7402 92.9122 89.2221 93.2496C89.7063 93.5886 90.3354 93.7744 90.9947 93.7744L90.9947 92.2744Z" fill="#2C3338"/>
<path d="M91.7446 93.4033C91.7446 92.9891 91.4088 92.6533 90.9946 92.6533C90.5804 92.6533 90.2446 92.9891 90.2446 93.4033L91.7446 93.4033ZM90.2446 93.783C90.2446 94.1973 90.5804 94.533 90.9946 94.533C91.4088 94.533 91.7446 94.1973 91.7446 93.783L90.2446 93.783ZM90.2446 93.4033L90.2446 93.783L91.7446 93.783L91.7446 93.4033L90.2446 93.4033Z" fill="#2C3338"/>
<path d="M91.7446 86.9482C91.7446 86.534 91.4088 86.1982 90.9946 86.1982C90.5804 86.1982 90.2446 86.534 90.2446 86.9482L91.7446 86.9482ZM90.2446 87.328C90.2446 87.7422 90.5804 88.078 90.9946 88.078C91.4088 88.078 91.7446 87.7422 91.7446 87.328L90.2446 87.328ZM90.2446 86.9482L90.2446 87.328L91.7446 87.328L91.7446 86.9482L90.2446 86.9482Z" fill="#2C3338"/>
<path d="M85.3085 89.0361C85.3085 89.4503 85.6443 89.7861 86.0585 89.7861C86.4727 89.7861 86.8085 89.4503 86.8085 89.0361H85.3085ZM84.1599 89.6151C83.7706 89.6151 83.4503 89.5034 83.2474 89.3614C83.0422 89.2177 83.0112 89.0912 83.0112 89.0361H81.5112C81.5112 89.715 81.9053 90.2529 82.3872 90.5903C82.8715 90.9293 83.5006 91.1151 84.1599 91.1151V89.6151ZM83.0112 89.0361C83.0112 88.981 83.0422 88.8544 83.2474 88.7107C83.4503 88.5687 83.7706 88.457 84.1599 88.457V86.957C83.5006 86.957 82.8715 87.1429 82.3872 87.4819C81.9053 87.8192 81.5112 88.3572 81.5112 89.0361H83.0112ZM84.1599 88.457C84.5491 88.457 84.8694 88.5687 85.0723 88.7107C85.2776 88.8544 85.3085 88.981 85.3085 89.0361H86.8085C86.8085 88.3572 86.4144 87.8192 85.9325 87.4819C85.4482 87.1429 84.8192 86.957 84.1599 86.957V88.457Z" fill="#2C3338"/>
<path d="M83.0113 91.6954C83.0113 91.2812 82.6756 90.9454 82.2613 90.9454C81.8471 90.9454 81.5113 91.2812 81.5113 91.6954L83.0113 91.6954ZM84.16 91.1163C84.5493 91.1163 84.8695 91.228 85.0724 91.37C85.2777 91.5137 85.3086 91.6403 85.3086 91.6954L86.8086 91.6954C86.8086 91.0165 86.4145 90.4785 85.9326 90.1412C85.4483 89.8022 84.8193 89.6163 84.16 89.6163L84.16 91.1163ZM85.3086 91.6954C85.3086 91.7505 85.2777 91.877 85.0724 92.0207C84.8695 92.1628 84.5493 92.2744 84.16 92.2744L84.16 93.7744C84.8193 93.7744 85.4483 93.5886 85.9326 93.2496C86.4145 92.9122 86.8086 92.3743 86.8086 91.6954L85.3086 91.6954ZM84.16 92.2744C83.7707 92.2744 83.4504 92.1628 83.2475 92.0207C83.0423 91.877 83.0113 91.7505 83.0113 91.6954L81.5113 91.6954C81.5113 92.3743 81.9054 92.9122 82.3873 93.2496C82.8716 93.5886 83.5007 93.7744 84.16 93.7744L84.16 92.2744Z" fill="#2C3338"/>
<path d="M84.9099 93.4033C84.9099 92.9891 84.5741 92.6533 84.1599 92.6533C83.7457 92.6533 83.4099 92.9891 83.4099 93.4033L84.9099 93.4033ZM83.4099 93.783C83.4099 94.1973 83.7457 94.533 84.1599 94.533C84.5741 94.533 84.9099 94.1973 84.9099 93.783L83.4099 93.783ZM83.4099 93.4033L83.4099 93.783L84.9099 93.783L84.9099 93.4033L83.4099 93.4033Z" fill="#2C3338"/>
<path d="M84.9099 86.9482C84.9099 86.534 84.5741 86.1982 84.1599 86.1982C83.7457 86.1982 83.4099 86.534 83.4099 86.9482L84.9099 86.9482ZM83.4099 87.328C83.4099 87.7422 83.7457 88.078 84.1599 88.078C84.5741 88.078 84.9099 87.7422 84.9099 87.328L83.4099 87.328ZM83.4099 86.9482L83.4099 87.328L84.9099 87.328L84.9099 86.9482L83.4099 86.9482Z" fill="#2C3338"/>
<rect x="108.582" y="80.9924" width="30.8969" height="18.7457" rx="3.5" fill="white" stroke="#8C8F94"/>
<path d="M132.394 89.0361C132.394 89.4503 132.73 89.7861 133.144 89.7861C133.558 89.7861 133.894 89.4503 133.894 89.0361H132.394ZM131.245 89.6151C130.856 89.6151 130.536 89.5034 130.333 89.3614C130.128 89.2177 130.097 89.0912 130.097 89.0361H128.597C128.597 89.715 128.991 90.2529 129.473 90.5903C129.957 90.9293 130.586 91.1151 131.245 91.1151V89.6151ZM130.097 89.0361C130.097 88.981 130.128 88.8544 130.333 88.7107C130.536 88.5687 130.856 88.457 131.245 88.457V86.957C130.586 86.957 129.957 87.1429 129.473 87.4819C128.991 87.8192 128.597 88.3572 128.597 89.0361H130.097ZM131.245 88.457C131.635 88.457 131.955 88.5687 132.158 88.7107C132.363 88.8544 132.394 88.981 132.394 89.0361H133.894C133.894 88.3572 133.5 87.8192 133.018 87.4819C132.534 87.1429 131.905 86.957 131.245 86.957V88.457Z" fill="#2C3338"/>
<path d="M130.097 91.6954C130.097 91.2812 129.761 90.9454 129.347 90.9454C128.933 90.9454 128.597 91.2812 128.597 91.6954L130.097 91.6954ZM131.245 91.1163C131.635 91.1163 131.955 91.228 132.158 91.37C132.363 91.5137 132.394 91.6403 132.394 91.6954L133.894 91.6954C133.894 91.0165 133.5 90.4785 133.018 90.1412C132.534 89.8022 131.905 89.6163 131.245 89.6163L131.245 91.1163ZM132.394 91.6954C132.394 91.7505 132.363 91.877 132.158 92.0207C131.955 92.1628 131.635 92.2744 131.245 92.2744L131.245 93.7744C131.905 93.7744 132.534 93.5886 133.018 93.2496C133.5 92.9122 133.894 92.3743 133.894 91.6954L132.394 91.6954ZM131.245 92.2744C130.856 92.2744 130.536 92.1628 130.333 92.0207C130.128 91.877 130.097 91.7505 130.097 91.6954L128.597 91.6954C128.597 92.3743 128.991 92.9122 129.473 93.2496C129.957 93.5886 130.586 93.7744 131.245 93.7744L131.245 92.2744Z" fill="#2C3338"/>
<path d="M131.995 93.4033C131.995 92.9891 131.66 92.6533 131.245 92.6533C130.831 92.6533 130.495 92.9891 130.495 93.4033L131.995 93.4033ZM130.495 93.783C130.495 94.1973 130.831 94.533 131.245 94.533C131.66 94.533 131.995 94.1973 131.995 93.783L130.495 93.783ZM130.495 93.4033L130.495 93.783L131.995 93.783L131.995 93.4033L130.495 93.4033Z" fill="#2C3338"/>
<path d="M131.995 86.9482C131.995 86.534 131.66 86.1982 131.245 86.1982C130.831 86.1982 130.495 86.534 130.495 86.9482L131.995 86.9482ZM130.495 87.328C130.495 87.7422 130.831 88.078 131.245 88.078C131.66 88.078 131.995 87.7422 131.995 87.328L130.495 87.328ZM130.495 86.9482L130.495 87.328L131.995 87.328L131.995 86.9482L130.495 86.9482Z" fill="#2C3338"/>
<path d="M125.559 89.0361C125.559 89.4503 125.895 89.7861 126.309 89.7861C126.723 89.7861 127.059 89.4503 127.059 89.0361H125.559ZM124.41 89.6151C124.021 89.6151 123.701 89.5034 123.498 89.3614C123.293 89.2177 123.262 89.0912 123.262 89.0361H121.762C121.762 89.715 122.156 90.2529 122.638 90.5903C123.122 90.9293 123.751 91.1151 124.41 91.1151V89.6151ZM123.262 89.0361C123.262 88.981 123.293 88.8544 123.498 88.7107C123.701 88.5687 124.021 88.457 124.41 88.457V86.957C123.751 86.957 123.122 87.1429 122.638 87.4819C122.156 87.8192 121.762 88.3572 121.762 89.0361H123.262ZM124.41 88.457C124.8 88.457 125.12 88.5687 125.323 88.7107C125.528 88.8544 125.559 88.981 125.559 89.0361H127.059C127.059 88.3572 126.665 87.8192 126.183 87.4819C125.699 87.1429 125.07 86.957 124.41 86.957V88.457Z" fill="#2C3338"/>
<path d="M123.262 91.6954C123.262 91.2812 122.926 90.9454 122.512 90.9454C122.098 90.9454 121.762 91.2812 121.762 91.6954L123.262 91.6954ZM124.41 91.1163C124.8 91.1163 125.12 91.228 125.323 91.37C125.528 91.5137 125.559 91.6403 125.559 91.6954L127.059 91.6954C127.059 91.0165 126.665 90.4785 126.183 90.1412C125.699 89.8022 125.07 89.6163 124.41 89.6163L124.41 91.1163ZM125.559 91.6954C125.559 91.7505 125.528 91.877 125.323 92.0207C125.12 92.1628 124.8 92.2744 124.41 92.2744L124.41 93.7744C125.07 93.7744 125.699 93.5886 126.183 93.2496C126.665 92.9122 127.059 92.3743 127.059 91.6954L125.559 91.6954ZM124.41 92.2744C124.021 92.2744 123.701 92.1628 123.498 92.0207C123.293 91.877 123.262 91.7505 123.262 91.6954L121.762 91.6954C121.762 92.3743 122.156 92.9122 122.638 93.2496C123.122 93.5886 123.751 93.7744 124.41 93.7744L124.41 92.2744Z" fill="#2C3338"/>
<path d="M125.16 93.4033C125.16 92.9891 124.825 92.6533 124.41 92.6533C123.996 92.6533 123.66 92.9891 123.66 93.4033L125.16 93.4033ZM123.66 93.783C123.66 94.1973 123.996 94.533 124.41 94.533C124.825 94.533 125.16 94.1973 125.16 93.783L123.66 93.783ZM123.66 93.4033L123.66 93.783L125.16 93.783L125.16 93.4033L123.66 93.4033Z" fill="#2C3338"/>
<path d="M125.16 86.9482C125.16 86.534 124.825 86.1982 124.41 86.1982C123.996 86.1982 123.66 86.534 123.66 86.9482L125.16 86.9482ZM123.66 87.328C123.66 87.7422 123.996 88.078 124.41 88.078C124.825 88.078 125.16 87.7422 125.16 87.328L123.66 87.328ZM123.66 86.9482L123.66 87.328L125.16 87.328L125.16 86.9482L123.66 86.9482Z" fill="#2C3338"/>
<path d="M118.724 89.0361C118.724 89.4503 119.06 89.7861 119.474 89.7861C119.888 89.7861 120.224 89.4503 120.224 89.0361H118.724ZM117.575 89.6151C117.186 89.6151 116.866 89.5034 116.663 89.3614C116.457 89.2177 116.427 89.0912 116.427 89.0361H114.927C114.927 89.715 115.321 90.2529 115.803 90.5903C116.287 90.9293 116.916 91.1151 117.575 91.1151V89.6151ZM116.427 89.0361C116.427 88.981 116.457 88.8544 116.663 88.7107C116.866 88.5687 117.186 88.457 117.575 88.457V86.957C116.916 86.957 116.287 87.1429 115.803 87.4819C115.321 87.8192 114.927 88.3572 114.927 89.0361H116.427ZM117.575 88.457C117.964 88.457 118.285 88.5687 118.488 88.7107C118.693 88.8544 118.724 88.981 118.724 89.0361H120.224C120.224 88.3572 119.83 87.8192 119.348 87.4819C118.863 87.1429 118.234 86.957 117.575 86.957V88.457Z" fill="#2C3338"/>
<path d="M116.427 91.6954C116.427 91.2812 116.091 90.9454 115.677 90.9454C115.262 90.9454 114.927 91.2812 114.927 91.6954L116.427 91.6954ZM117.575 91.1163C117.965 91.1163 118.285 91.228 118.488 91.37C118.693 91.5137 118.724 91.6403 118.724 91.6954L120.224 91.6954C120.224 91.0165 119.83 90.4785 119.348 90.1412C118.864 89.8022 118.235 89.6163 117.575 89.6163L117.575 91.1163ZM118.724 91.6954C118.724 91.7505 118.693 91.877 118.488 92.0207C118.285 92.1628 117.965 92.2744 117.575 92.2744L117.575 93.7744C118.235 93.7744 118.864 93.5886 119.348 93.2496C119.83 92.9122 120.224 92.3743 120.224 91.6954L118.724 91.6954ZM117.575 92.2744C117.186 92.2744 116.866 92.1628 116.663 92.0207C116.458 91.877 116.427 91.7505 116.427 91.6954L114.927 91.6954C114.927 92.3743 115.321 92.9122 115.803 93.2496C116.287 93.5886 116.916 93.7744 117.575 93.7744L117.575 92.2744Z" fill="#2C3338"/>
<path d="M118.325 93.4033C118.325 92.9891 117.989 92.6533 117.575 92.6533C117.161 92.6533 116.825 92.9891 116.825 93.4033L118.325 93.4033ZM116.825 93.783C116.825 94.1973 117.161 94.533 117.575 94.533C117.989 94.533 118.325 94.1973 118.325 93.783L116.825 93.783ZM116.825 93.4033L116.825 93.783L118.325 93.783L118.325 93.4033L116.825 93.4033Z" fill="#2C3338"/>
<path d="M118.325 86.9482C118.325 86.534 117.989 86.1982 117.575 86.1982C117.161 86.1982 116.825 86.534 116.825 86.9482L118.325 86.9482ZM116.825 87.328C116.825 87.7422 117.161 88.078 117.575 88.078C117.989 88.078 118.325 87.7422 118.325 87.328L116.825 87.328ZM116.825 86.9482L116.825 87.328L118.325 87.328L118.325 86.9482L116.825 86.9482Z" fill="#2C3338"/>
<rect x="35.1748" y="65.3047" width="131.385" height="9.11339" fill="#646970"/>
<line x1="141.998" y1="31.1296" x2="141.998" y2="50.1159" stroke="#C3C4C7"/>
<path d="M19.9861 35.1299C19.9861 32.9207 21.7769 31.1299 23.9861 31.1299H80.742V50.8756H19.9861V35.1299Z" fill="#3C6BF6"/>
<rect x="33.656" y="38.7241" width="33.4158" height="4.5567" fill="white"/>
<rect x="94.4119" y="38.7241" width="33.4158" height="4.5567" fill="#C3C4C7"/>
<rect x="155.168" y="38.7241" width="33.4158" height="4.5567" fill="#C3C4C7"/>
</svg>