<svg height="44" viewBox="0 0 52 44" width="52" xmlns="http://www.w3.org/2000/svg"><g fill="none" fill-rule="evenodd"><g transform="translate(-2 -7)"><path d="m0 0h58v58h-58z"/><path d="m31.4166667 7.25c-12.0108334 0-21.75000003 9.7391667-21.75000003 21.75h-7.25l9.40083333 9.4008333.1691667.3383334 9.7633333-9.7391667h-7.25c0-9.3525 7.5641667-16.9166667 16.9166667-16.9166667s16.9166666 7.5641667 16.9166666 16.9166667-7.5641666 16.9166667-16.9166666 16.9166667c-4.6641667 0-8.8933334-1.9091667-11.9383334-4.9783334l-3.4316666 3.4316667c3.9391666 3.9391667 9.3525 6.38 15.37 6.38 12.0108333 0 21.75-9.7391667 21.75-21.75s-9.7391667-21.75-21.75-21.75z" fill="#6ab3d0" fill-rule="nonzero"/></g><g transform="translate(20 10)"><path d="m0 0h22v24h-22z"/><path d="m10.1523685 10.8266667c-2.18031-.6293334-2.88146696-1.28000003-2.88146696-2.29333336 0-1.16266668.97009388-1.97333335 2.59332025-1.97333335 1.70967041 0 2.34359311.90666667 2.40122241 2.24000002h2.1226807c-.0672343-1.83466668-1.0757477-3.52000001-3.0831697-4.06400002v-2.33599999h-2.88146687v2.304c-1.86334861.44800001-3.36171141 1.79200001-3.36171141 3.85066666 0 2.46400004 1.83453392 3.69066664 4.51429818 4.40533334 2.4012224.64 2.8814669 1.5786667 2.8814669 2.5706667 0 .736-.4706396 1.9093333-2.59332021 1.9093333-1.9786073 0-2.75660337-.9813333-2.86225715-2.24h-2.11307575c.11525868 2.336 1.69046059 3.648 3.53459944 4.0853333v2.3146667h2.88146687v-2.2933333c1.8729535-.3946667 3.3617115-1.6 3.3617115-3.7866667 0-3.0293333-2.3339882-4.064-4.5142982-4.6933333z" fill="#6ab3d0" fill-rule="nonzero"/></g></g></svg>
