<svg height="47" viewBox="0 0 47 47" width="47" xmlns="http://www.w3.org/2000/svg"><g fill="none" fill-rule="evenodd" transform="translate(-5 -5)"><path d="m0 0h56v56h-56z"/><g fill="#6ab3d0" fill-rule="nonzero"><path d="m50.6135 27.513-21.15-21.15c-.846-.846-2.021-1.363-3.3135-1.363h-16.45c-2.585 0-4.7 2.115-4.7 4.7v16.45c0 1.2925.517 2.4675 1.3865 3.337l21.15 21.15c.846.846 2.021 1.363 3.3135 1.363s2.4675-.517 3.3135-1.3865l16.45-16.45c.8695-.846 1.3865-2.021 1.3865-3.3135s-.5405-2.491-1.3865-3.337zm-19.7635 19.8105-21.15-21.1735v-16.45h16.45v-.0235l21.15 21.15z"/><circle cx="15.5" cy="15.5" r="3.5"/></g></g></svg>
