<svg width="24" height="24" viewBox="0 0 24 24" fill="none" xmlns="http://www.w3.org/2000/svg">
<path d="M17.2206 19.5949L17.0009 19.375H16.69H11C10.8619 19.375 10.75 19.2631 10.75 19.125L10.75 13C10.75 12.8619 10.8619 12.75 11 12.75L19 12.75C19.1381 12.75 19.25 12.8619 19.25 13L19.25 21.5247C19.25 21.5403 19.2414 21.5546 19.2277 21.5619C19.2113 21.5706 19.1912 21.5676 19.1781 21.5545L17.2206 19.5949ZM7.31 10.375H6.99911L6.77939 10.5949L4.82191 12.5545C4.8088 12.5676 4.78866 12.5706 4.7723 12.5619C4.75857 12.5546 4.75 12.5403 4.75 12.5247L4.75 4C4.75 3.86193 4.86193 3.75 5 3.75L13 3.75C13.1381 3.75 13.25 3.86193 13.25 4L13.25 10.125C13.25 10.2631 13.1381 10.375 13 10.375H7.31Z" stroke="#1E1E1E" stroke-width="1.5"/>
</svg>
