<svg width="24" height="24" viewBox="0 0 24 24" fill="none" xmlns="http://www.w3.org/2000/svg">
<path d="M7.4 6.5999C7.06667 6.5999 6.78333 6.71657 6.55 6.9499C6.31667 7.18324 6.2 7.46657 6.2 7.7999C6.2 8.13324 6.31667 8.41657 6.55 8.6499C6.78333 8.88323 7.06667 8.9999 7.4 8.9999C7.73333 8.9999 8.01667 8.88323 8.25 8.6499C8.48333 8.41657 8.6 8.13324 8.6 7.7999C8.6 7.46657 8.48333 7.18324 8.25 6.9499C8.01667 6.71657 7.73333 6.5999 7.4 6.5999ZM7.4 15.9499C7.06667 15.9499 6.78333 16.0666 6.55 16.2999C6.31667 16.5332 6.2 16.8166 6.2 17.1499C6.2 17.4832 6.31667 17.7666 6.55 17.9999C6.78333 18.2332 7.06667 18.3499 7.4 18.3499C7.73333 18.3499 8.01667 18.2332 8.25 17.9999C8.48333 17.7666 8.6 17.4832 8.6 17.1499C8.6 16.8166 8.48333 16.5332 8.25 16.2999C8.01667 16.0666 7.73333 15.9499 7.4 15.9499ZM4.35 3.8999H19.65C19.8833 3.8999 20.0833 3.9789 20.25 4.1369C20.4167 4.29557 20.5 4.4999 20.5 4.7499V10.7499C20.5 11.0166 20.4167 11.2416 20.25 11.4249C20.0833 11.6082 19.8833 11.6999 19.65 11.6999H4.35C4.11667 11.6999 3.91667 11.6082 3.75 11.4249C3.58333 11.2416 3.5 11.0166 3.5 10.7499V4.7499C3.5 4.4999 3.58333 4.29557 3.75 4.1369C3.91667 3.9789 4.11667 3.8999 4.35 3.8999ZM4.85 5.2499V10.3499H19.15V5.2499H4.85ZM4.35 13.2499H19.6C19.85 13.2499 20.0627 13.3372 20.238 13.5119C20.4127 13.6872 20.5 13.8999 20.5 14.1499V20.0999C20.5 20.3832 20.4127 20.6126 20.238 20.7879C20.0627 20.9626 19.85 21.0499 19.6 21.0499H4.4C4.15 21.0499 3.93767 20.9626 3.763 20.7879C3.58767 20.6126 3.5 20.3832 3.5 20.0999V14.1499C3.5 13.8999 3.579 13.6872 3.737 13.5119C3.89567 13.3372 4.1 13.2499 4.35 13.2499ZM4.85 14.5999V19.6999H19.15V14.5999H4.85ZM4.85 5.2499V10.3499V5.2499ZM4.85 14.5999V19.6999V14.5999Z" fill="#1E1E1E"/>
</svg>
