<svg width="24" height="24" viewBox="0 0 24 24" fill="none" xmlns="http://www.w3.org/2000/svg">
<path d="M5.93056 11.0824C6.55533 11.0824 6.94285 11.1704 7.14847 11.3737C7.3541 11.5498 7.37782 11.9088 7.27501 12.3491C7.1722 12.8368 6.96658 13.1891 6.62651 13.3923C6.31807 13.5887 5.82774 13.7039 5.17924 13.7039H4.19858L4.79172 11.0417C4.79172 11.0824 5.93056 11.0824 5.93056 11.0824ZM2 16.3999H3.60544L3.96923 14.7132H5.36905C5.99382 14.7132 6.45252 14.6658 6.87167 14.5574C7.25919 14.449 7.62299 14.2661 7.93142 14.0019C8.1924 13.8055 8.42175 13.5345 8.60365 13.2907C8.76182 13.0468 8.88836 12.7352 8.94372 12.4507C9.10189 11.6988 8.99908 11.123 8.57992 10.703C8.16868 10.2831 7.49645 10.0798 6.56324 10.0798H3.45517L2 16.3999Z" fill="#1E1E1E"/>
<path d="M10.565 8.3999H12.1704L11.8066 10.0866H13.2302C14.108 10.0866 14.7565 10.2221 15.0649 10.5066C15.405 10.7708 15.5315 11.2179 15.3497 11.814L14.6774 14.7606H13.0483L13.6968 11.9698C13.7758 11.6582 13.7521 11.4346 13.6177 11.3262C13.4911 11.2179 13.2302 11.1501 12.8189 11.1501H11.5535L10.7231 14.7606H9.11771L10.565 8.3999Z" fill="#1E1E1E"/>
<path d="M18.8927 11.0824C19.5175 11.0824 19.905 11.1704 20.1106 11.3737C20.3162 11.5498 20.34 11.9088 20.2371 12.3491C20.1343 12.8368 19.9287 13.1891 19.5886 13.3923C19.2802 13.5887 18.7899 13.7039 18.1414 13.7039H17.1607L17.7539 11.0417C17.7855 11.0824 18.8927 11.0824 18.8927 11.0824ZM14.9859 16.3999H16.5913L16.9551 14.7132H18.3549C18.9797 14.7132 19.4384 14.6658 19.8575 14.5574C20.2451 14.449 20.6088 14.2661 20.9173 14.0019C21.1783 13.8055 21.4076 13.5345 21.5895 13.2907C21.7477 13.0468 21.8742 12.7352 21.9296 12.4507C22.0877 11.6988 21.9849 11.123 21.5658 10.703C21.1545 10.2831 20.4823 10.0798 19.5491 10.0798H16.441L14.9859 16.3999Z" fill="#1E1E1E"/>
</svg>
