<svg id="Layer_1" xmlns="http://www.w3.org/2000/svg" viewBox="0 0 245.2 161.5"><style>.st0{fill:#FFFFFF;} .st1{fill:#F6F6F6;} .st2{fill:#CCCED0;} .st3{fill:#0EA9DF;} .st4{fill:#C8E7F5;} .st5{opacity:0.26;fill:#86A7BE;} .st6{opacity:0.83;fill:#81CFEF;} .st7{opacity:0.26;fill:#81CFEF;} .st8{fill:#81CFEF;} .st9{fill:#DEF1F9;} .st10{fill:#204A69;} .st11{fill:none;stroke:#C7D6E0;stroke-width:0.8756;stroke-miterlimit:10;} .st12{fill:#015082;stroke:#015082;stroke-linecap:round;stroke-linejoin:round;stroke-miterlimit:10;} .st13{fill:#CCCED0;stroke:#015082;stroke-linecap:round;stroke-linejoin:round;stroke-miterlimit:10;} .st14{fill:#015082;stroke:#015082;stroke-width:0.8764;stroke-miterlimit:10;} .st15{fill:none;stroke:#015082;stroke-linecap:round;stroke-linejoin:round;stroke-miterlimit:10;} .st16{fill:#015082;}</style><path class="st0" d="M238.8 140.4l2.3 18.8"/><path class="st1" d="M238.9 140.3c.5 1.5.7 3.1 1 4.7.2 1.6.5 3.1.6 4.7.3 3.1.7 6.3.8 9.4 0 .1-.1.2-.2.2s-.2-.1-.2-.2c-.7-3.1-1.1-6.2-1.5-9.4-.2-1.6-.4-3.1-.5-4.7-.1-1.6-.2-3.2-.2-4.7h.2z"/><path class="st0" d="M216.8 120.9c-9.4 1.3-17.1 6.1-18 10.5-.9 4.4-1.3 5.5-1.3 5.5"/><path class="st1" d="M216.8 121c-4.5 1-8.8 2.4-12.6 4.9-1.8 1.2-3.6 2.7-4.5 4.7-.2.5-.3.9-.5 1.5l-.4 1.7c-.3 1.1-.6 2.2-1.1 3.3 0 .1-.2.1-.3.1-.1 0-.1-.1-.1-.2.1-1.1.3-2.3.5-3.4l.3-1.7c.1-.5.3-1.2.5-1.8 1.1-2.3 3-3.8 5-5.1 2-1.3 4.1-2.2 6.3-2.9 2.2-.7 4.5-1.1 6.8-1.3.1 0 .1 0 .1.1.1.1 0 .1 0 .1z"/><path class="st0" d="M216.8 130.1s-.5-6.2.1-10.7l1.1-8.7c.5-3.7 3.5-6.5 7.1-6.5h11.6c4.3 0 7.7 3.9 7.1 8.4l-1.1 8.7c-.2 1.8-1 3.3-2.2 4.5"/><path class="st2" d="M216.7 130.1c-.3-2.8-.5-5.7-.4-8.5 0-1.4.2-2.9.4-4.3l.5-4.2.3-2.1c.1-.7.2-1.5.5-2.2.5-1.4 1.4-2.7 2.6-3.6 1.2-.9 2.7-1.5 4.2-1.5h10.6c.7 0 1.4 0 2.2.1 3.1.3 5.7 2.7 6.5 5.6.2.7.3 1.5.3 2.2 0 .4 0 .7-.1 1.1l-.1 1.1-.6 4.2c-.2 1.4-.3 2.8-.7 4.2-.4 1.4-1.1 2.7-2.2 3.7-.1.1-.2.1-.3 0-.1-.1-.1-.2 0-.3 1-1 1.6-2.3 1.9-3.6.2-1.3.3-2.8.5-4.2l.5-4.2.1-1.1c0-.3.1-.7 0-1 0-.7-.1-1.3-.3-2-.8-2.5-3-4.6-5.7-4.8H224.8c-1.3 0-2.6.5-3.6 1.3s-1.9 1.9-2.3 3.1c-.2.6-.4 1.2-.4 1.9l-.3 2.1-.6 4.2c-.2 1.4-.4 2.8-.5 4.2-.2 2.8-.2 5.6-.2 8.4 0 .1 0 .1-.1.1-.1.2-.1.2-.1.1z"/><path class="st0" d="M229.7 141.4h-27.8c-2.5 0-4.4-2-4.4-4.4 0-2.5 2-4.4 4.4-4.4h27.8c2.5 0 4.4 2 4.4 4.4.1 2.4-1.9 4.4-4.4 4.4z"/><path class="st1" d="M229.7 141.5c-7 .3-13.9.3-20.9.4h-5.2c-.9 0-1.7.1-2.7-.1-1-.2-1.8-.7-2.5-1.4-1.4-1.4-1.9-3.6-1.1-5.4.7-1.8 2.6-3.1 4.6-3.1l20.9.1 5.2.1c.9 0 1.7 0 2.7.1.9.2 1.8.7 2.4 1.4 1.3 1.3 1.7 3.5 1 5.2-.7 1.7-2.5 2.9-4.4 2.7zm0-.3c1.7 0 3.3-1.1 3.8-2.6.6-1.5.2-3.4-.9-4.5-.6-.6-1.3-.9-2.1-1.1-.8-.1-1.7 0-2.5-.1l-5.2.1-20.9.1c-1.5 0-3 1-3.6 2.4-.6 1.4-.3 3.2.8 4.2.5.5 1.2.9 2 1.1.7.1 1.6.1 2.5.1h5.2c7 .1 13.9.1 20.9.4v-.1z"/><g><path class="st0" d="M242.7 121.3c-9.4 1.3-17.1 6.1-18 10.5-.9 4.4-2.3 9.6-2.3 9.6h18.1l2.2-20.1z"/><path class="st2" d="M242.5 121.4c-.3.1-.5.1-.8.2l-1 .2c-.6.2-1.3.3-1.9.5-1.3.4-2.5.8-3.7 1.3-2.4 1-4.7 2.2-6.7 3.8-1 .8-1.9 1.7-2.5 2.8-.3.5-.6 1.1-.7 1.7l-.4 1.9c-.6 2.6-1.2 5.2-1.9 7.7l-.5-.7 18.1.1-.5.5c.4-3.3.8-6.6 1.3-9.9l1.2-10.1zm.3-.2l-.9 10c-.3 3.4-.6 6.8-1 10.2 0 .3-.3.5-.5.5l-18.1.1c-.3 0-.6-.3-.6-.6v-.1c.7-2.5 1.3-5.1 1.9-7.7l.4-1.9c.2-.7.5-1.4.8-2 .8-1.2 1.7-2.2 2.8-3 2.1-1.7 4.6-2.9 7.1-3.8 1.3-.4 2.5-.8 3.8-1.1.7-.1 1.3-.3 2-.4l1-.1c.5 0 .9 0 1.3-.1z"/></g><g><path class="st0" d="M199.7 140.4l-2.2 18.8"/><path class="st1" d="M199.8 140.4c.1 1.6 0 3.2-.2 4.7-.1 1.6-.3 3.1-.5 4.7-.4 3.1-.8 6.3-1.5 9.4 0 .1-.1.2-.2.2s-.2-.1-.2-.2c0-3.2.5-6.3.8-9.4.2-1.6.4-3.1.6-4.7.2-1.6.5-3.1 1-4.7.1-.1.1-.1.2 0 0-.1 0-.1 0 0z"/></g><g><path class="st0" d="M222.3 140.4l-2.3 18.8"/><path class="st2" d="M222.4 140.4c.1 1.6 0 3.2-.2 4.7-.1 1.6-.3 3.1-.5 4.7-.4 3.1-.8 6.3-1.5 9.4 0 .1-.1.2-.2.2s-.2-.1-.2-.2c0-3.2.5-6.3.8-9.4.2-1.6.4-3.1.6-4.7.2-1.6.5-3.1 1-4.7 0-.1.1-.1.2 0 0-.1 0-.1 0 0z"/></g><circle class="st1" cx="226.4" cy="114.5" r=".8"/><circle class="st1" cx="235" cy="114.5" r=".8"/><g><path class="st0" d="M26 121.6c5-3.8 5.2-12 .6-21.1S9 82.2 3 91.3s12.2 35.5 19.8 31.4"/><path class="st2" d="M25.9 121.5c1.5-1.2 2.6-3 3.1-4.8.5-1.9.6-3.8.4-5.8-.4-3.9-1.8-7.6-3.7-11-1.9-3.3-4.6-6.3-7.7-8.6-1.6-1.1-3.3-2.1-5.1-2.7-1.8-.6-3.7-.8-5.5-.2-1.7.5-3.2 1.8-4.2 3.4-.9 1.6-1.1 3.5-.9 5.4.4 3.8 1.9 7.5 3.7 11 1.8 3.4 4.1 6.7 6.7 9.6 1.3 1.4 2.8 2.7 4.4 3.8.8.5 1.7.9 2.6 1.2.9.2 1.9.2 2.7-.2.1-.1.2 0 .3.1 0 .1 0 .2-.1.3-.9.5-2 .6-3 .4-1-.2-1.9-.6-2.8-1.1-1.7-1-3.3-2.4-4.7-3.8-2.8-2.9-5.1-6.1-7.1-9.6-1.9-3.5-3.5-7.3-3.9-11.3-.2-2-.1-4.2 1-6.1 1.1-1.8 2.7-3.3 4.8-4 2.1-.6 4.2-.4 6.2.3 1.9.7 3.7 1.7 5.3 2.9 3.2 2.4 6 5.5 7.9 9 1.9 3.5 3.3 7.4 3.6 11.4.1 2 0 4.1-.7 6-.7 1.9-1.9 3.6-3.5 4.8h-.1c.3-.3.3-.3.3-.4z"/><path class="st0" d="M33.9 126.6c-3.2-5.2-1.1-13.9 5.2-19.5l1.8 6.2.9-7.1c2.4-.8 6.2-.8 8.2 1.4 8.4 8.9-6.7 22.9-13.6 19.9"/><path class="st2" d="M33.8 126.6c-1-1.5-1.6-3.4-1.7-5.2-.1-1.8.2-3.7.7-5.5 1.1-3.5 3.2-6.7 5.9-9.2.2-.2.5-.2.7 0 .1.1.1.1.1.2l1.8 6.2-1 .1.9-7.1c0-.2.2-.4.4-.4 1.7-.5 3.4-.7 5.1-.4.9.2 1.7.5 2.5.9.8.5 1.4 1.1 1.9 1.8 1.1 1.4 1.7 3.1 1.9 4.8.1 1.7-.2 3.5-.9 5-1.3 3.1-3.6 5.7-6.3 7.7-1.4 1-2.9 1.7-4.5 2.2-1.6.5-3.4.6-5-.1-.1 0-.1-.2-.1-.3 0-.1.2-.1.3-.1 1.5.6 3.1.3 4.6-.2 1.5-.5 2.9-1.3 4.2-2.3 2.5-1.9 4.7-4.4 5.9-7.4.6-1.5.9-3 .8-4.5-.1-1.5-.7-3-1.7-4.2-1.7-2.6-5.4-2.9-8.3-2l.4-.4-1 7.1c0 .3-.3.5-.6.4-.2 0-.4-.2-.4-.4l-1.7-6.2.8.2c-2.7 2.3-4.7 5.3-5.9 8.7-.6 1.7-.9 3.5-.9 5.2 0 1.8.4 3.6 1.3 5.1v.1c-.1.3-.2.3-.2.2z"/><path class="st1" d="M31.5 132.7c.1-1.9.6-3.7 1.4-5.4.8-1.7 1.8-3.3 2.9-4.8 2.4-2.9 5.2-5.4 8.2-7.5.1-.1.2 0 .3 0 .1.1 0 .2 0 .3-2.6 2.6-5.4 5-7.5 7.9-1.1 1.4-2.1 2.9-2.9 4.5-.8 1.6-1.5 3.3-2.1 5 0 .1-.1.1-.1.1-.1 0-.2-.1-.2-.1zM26.5 132.7c-.3-3.6-.5-7.1-1.1-10.7-.6-3.5-1.6-6.9-2.9-10.2-1.4-3.3-3.2-6.4-5.4-9.1-2.3-2.7-5-5.1-7.9-7.1-.2 0-.2-.1-.2-.2.1-.1.2-.1.3-.1 3.2 1.8 6 4.1 8.4 6.8 2.4 2.7 4.3 5.9 5.7 9.3 1.4 3.4 2.3 6.9 2.9 10.5.5 3.6.6 7.2.3 10.8.1.1 0 .1-.1 0 0 .1 0 0 0 0z"/><g><path class="st1" d="M28.7 158.5c-1.9.1-3.9-.3-5.6-1.2-1.8-.9-3.3-2.1-4.5-3.7-2.4-3.1-3.6-7.2-3.1-11.1v-.1l2.9-9.9c.1-.2.3-.4.5-.4h19.6c.2 0 .4.2.5.4l2.9 9.9v.1c.4 3.9-.7 8-3.1 11.1-1.2 1.5-2.7 2.8-4.5 3.7-1.7.9-3.6 1.4-5.6 1.2zm0-.3c1.9 0 3.7-.5 5.4-1.4 1.6-.9 3.1-2.1 4.2-3.6 2.2-3 3.2-6.8 2.7-10.5v.1l-3-9.9.5.4H18.9l.5-.4-3 9.9v-.1c-.2 1.8-.1 3.7.4 5.5.5 1.8 1.3 3.5 2.4 5 2.2 3 5.7 5.1 9.5 5.2v-.2z"/></g><g><path class="st0" d="M16 137.5h26.4"/><path class="st2" d="M16 137.4c2.2-.3 4.4-.3 6.6-.4l6.6-.1c4.4.1 8.8 0 13.2.4.1 0 .2.1.2.2s-.1.2-.2.2c-4.4.3-8.8.3-13.2.4l-6.6-.1c-2.2-.1-4.4-.1-6.6-.4-.1 0-.1-.1 0-.2-.1 0-.1 0 0 0z"/></g></g><g><path class="st3" d="M51.6 22.8V9.9c0-4.5 3.7-8.2 8.2-8.2H181c4.5 0 8.2 3.7 8.2 8.2v13H51.6z"/><path class="st4" d="M51.7 122V22.8h137.6v99.7l-103-1.6"/><path class="st0" d="M177 108.4h-40.2V36.2H177"/><path class="st4" d="M161.4 65.7h-15V51.8c0-3.5 2.9-6.4 6.4-6.4H168v13.7c.1 3.6-2.9 6.6-6.6 6.6z"/><path class="st5" d="M167.8 97.6h-21.4V73.1H168v24.2c.1.2 0 .3-.2.3z"/><path class="st0" d="M122.8 109H64.4V57.5h64.3V109M122.8 48.5H64.4V36.2h64.3v12.3"/><path class="st6" d="M105.2 84.8H90.7c0 8 6.5 14.5 14.5 14.5s14.5-6.5 14.5-14.5-6.5-14.5-14.5-14.5h-.3l.3 14.5z"/><path class="st7" d="M98.2 80.5V66c-8 0-14.5 6.5-14.5 14.5h14.5z"/><circle class="st0" cx="67.2" cy="12.5" r="2"/><circle class="st8" cx="77.9" cy="12.5" r="2"/><circle class="st8" cx="88.6" cy="12.5" r="2"/><g><path class="st9" d="M195 22.5l-147.9.7"/><path class="st10" d="M195 22.7c-12.3.9-24.6.9-37 1l-37 .3-37 .1c-12.3 0-24.7.1-37-.6V23c12.3-.9 24.6-.9 37-1l37-.3 37-.1c12.3 0 24.7-.1 37 .6v.5z"/></g></g><g><path class="st0" d="M52.2 133.9s-.8-2.1-2.9-2.5c-1.1-.2-2 .1-2.6.4-.6.3-.8 1.1-.4 1.6.5.6 1.2 1.2 2.3 1.4 2.2.5 3.6-.9 3.6-.9zM58.3 135c.6-.4.6-1.2.1-1.7-.6-.5-1.4-1.1-2.5-1.1-2.1 0-3.4 1.7-3.4 1.7s1.1 1.8 3.3 1.8c1.1.1 1.9-.3 2.5-.7zM59.2 130.6c.6-.4.7-1.2.3-1.7-.5-.6-1.3-1.2-2.4-1.3-2.1-.2-3.5 1.4-3.5 1.4s1 1.9 3.2 2.1c.9.1 1.8-.2 2.4-.5zM61.3 126.8c.7-.2 1-1 .7-1.6-.4-.7-1-1.5-2.1-1.8-2-.7-3.7.5-3.7.5s.5 2.1 2.6 2.8c.9.4 1.8.3 2.5.1zM53.4 128.9s0-2.3-1.9-3.3c-.9-.5-1.9-.6-2.6-.5-.7.1-1.1.8-.9 1.4.2.7.7 1.5 1.7 2.1 2 1.1 3.7.3 3.7.3zM56 123.9s.3-2.2-1.3-3.6c-.7-.6-1.5-.8-2.2-.9-.9-.1-1.6.7-1.4 1.6.2.7.6 1.4 1.3 2 1.8 1.4 3.6.9 3.6.9z"/><path class="st11" d="M52.4 138.6c0-7.5.1-11.5 4.9-16.1"/><path class="st0" d="M50.8 138.6h7.6l-2.2 4.4s2.2 4.1 2.2 8.3-2.6 6.9-6.9 6.9h.2c-4.3 0-6.9-2.7-6.9-6.9S47 143 47 143l-2.2-4.4h7.6-1.6z"/><g><path class="st2" d="M52 133.8l-.2-.2-.3-.3c-.2-.2-.4-.4-.7-.6-.5-.3-1-.6-1.5-.7-.5-.1-1.1-.1-1.6.1-.3.1-.5.2-.8.3-.2.1-.2.2-.3.3v.4c.1.2.3.4.5.6.4.4.9.6 1.4.7.5.1 1.1.2 1.7.1.3 0 .6-.1.8-.2.1-.1.3-.1.4-.2l.2-.1.4-.2c.1 0 .1 0 0 0zm.3.4l-.1.1-.2.2c-.1.1-.3.2-.4.3-.3.2-.6.3-.9.5-.7.2-1.4.3-2.1.2-.7-.1-1.4-.4-2-.9-.3-.2-.5-.5-.8-.8-.3-.4-.4-.9-.3-1.4.1-.5.5-.9.9-1.1.3-.2.7-.3 1-.4.7-.2 1.5-.2 2.2 0 .7.2 1.4.6 1.8 1.2l.6.9c.1.2.1.3.2.5l.1.2v.5z"/><path class="st2" d="M58.2 134.9c.2-.3.3-.6.2-.8 0-.1-.1-.2-.2-.3-.1-.1-.2-.1-.3-.2-.5-.4-1.1-.6-1.7-.7-.6 0-1.2.1-1.8.3-.5.3-1.1.7-1.5 1.1v-.7c.2.3.6.7 1 1 .4.3.8.5 1.3.6 1 .3 2 .2 3-.3zm.2.3c-.9.8-2.1 1.2-3.3 1-.6-.1-1.2-.3-1.7-.7-.5-.4-1-.7-1.3-1.3-.1-.2-.1-.5 0-.7.5-.7 1.2-1.2 1.9-1.5.8-.3 1.6-.5 2.4-.3.8.1 1.6.6 2.2 1.1.1.1.3.3.4.6.1.2.1.5.1.7-.1.5-.4.9-.7 1.1z"/><path class="st2" d="M59.1 130.5c.2-.2.3-.5.3-.8 0-.1-.1-.2-.1-.3l-.3-.3c-.5-.4-1.1-.7-1.6-.8-.6-.1-1.2 0-1.8.2-.6.2-1.1.6-1.5 1l.1-.7c.2.4.5.8.9 1.1.4.3.8.5 1.2.7.7.2 1.8.2 2.8-.1zm.2.3c-.9.7-2.2 1-3.4.8-.6-.1-1.2-.4-1.7-.8s-.9-.8-1.2-1.4c-.1-.2-.1-.5.1-.7.6-.6 1.3-1.1 2-1.4.8-.3 1.6-.3 2.5-.1.8.2 1.6.7 2.1 1.3.1.1.3.3.4.6.1.2.1.5.1.7-.3.4-.6.8-.9 1zM61.2 126.7c.3-.2.4-.5.5-.7 0-.1 0-.3-.1-.4 0-.1-.1-.2-.2-.3-.4-.5-.9-.9-1.4-1.2-.5-.2-1.2-.3-1.8-.2-.6.1-1.3.3-1.7.6l.2-.7c.1.4.3.9.6 1.2.3.4.6.7 1 1 .8.5 1.8.7 2.9.6v.1zm.1.3c-1.1.4-2.4.5-3.5-.1-.6-.3-1.1-.7-1.4-1.2-.4-.5-.7-1-.9-1.7-.1-.2 0-.5.2-.6.7-.5 1.5-.7 2.3-.8.8-.1 1.7.1 2.4.4.8.4 1.3 1 1.7 1.8.1.2.2.4.2.7 0 .2 0 .5-.1.7-.2.4-.6.7-1 .7l.1.1z"/><path class="st2" d="M53.3 128.7l-.1-.3c-.1-.1-.1-.3-.2-.4-.1-.3-.3-.5-.4-.8-.3-.5-.7-.9-1.2-1.1-.5-.3-1-.4-1.5-.5h-.8c-.2 0-.2.1-.3.2-.1.1-.1.2-.1.4.1.2.2.5.3.7.3.5.6.9 1.1 1.2.5.3 1 .5 1.6.6.3.1.6.1.9.1H53.2l.1-.1s0-.1 0 0zm.1.4l-.2.1-.2.1c-.2.1-.3.1-.5.1-.3.1-.7.1-1 .1-.7 0-1.4-.2-2-.5-.6-.3-1.2-.9-1.6-1.5-.2-.3-.3-.6-.5-1-.1-.5-.1-1 .2-1.4.3-.4.8-.7 1.3-.7H50c.7.1 1.4.3 2 .8.6.4 1.1 1 1.3 1.7.1.3.2.7.2 1v1.1l-.1.1zM55.9 123.7l-.1-.3c0-.1-.1-.3-.1-.4-.1-.3-.2-.6-.3-.8-.2-.5-.6-1-1-1.3-.4-.3-.9-.6-1.4-.7-.1 0-.3-.1-.4-.1h-.2-.1c-.2 0-.3.1-.4.2-.2.3-.3.5 0 1.1.2.5.5.9.9 1.3s.9.6 1.4.8c.3.1.6.2.8.2H55.9s0-.1 0 0zm.1.4l-.2.1-.2.1c-.2 0-.3.1-.5.1h-1c-.7-.1-1.4-.4-1.9-.8-.6-.4-1-1-1.3-1.7-.1-.3-.3-.6-.3-1.1 0-.5.2-.9.5-1.3s.8-.6 1.3-.6h.6c.2 0 .4.1.5.1.7.2 1.3.6 1.9 1.1.5.5.9 1.2 1 1.9.1.3.1.7.1 1 0 .2 0 .3-.1.5v.5l-.4.1z"/><path class="st2" d="M52.3 138.6c-.3-1.5-.4-2.9-.4-4.4 0-1.5.1-3 .4-4.4.4-1.5.9-2.9 1.7-4.2.8-1.3 1.9-2.4 3.1-3.2.1-.1.2-.1.3.1.1.1.1.2 0 .3-.9 1.1-1.8 2.3-2.5 3.5-.7 1.2-1.2 2.5-1.4 3.9-.3 1.4-.4 2.8-.6 4.2-.1 1.4-.2 2.9-.5 4.3.1 0 .1 0-.1-.1.1.1 0 0 0 0z"/><path class="st2" d="M50.8 138.5c2.5-.1 5.1-.2 7.6-.3.2 0 .4.2.4.4v.2c-.7 1.5-1.4 3-2.1 4.4v-.5c.8 1.5 1.4 3.1 1.8 4.7.4 1.6.7 3.3.5 5.1-.2 1.7-1 3.5-2.4 4.7-1.4 1.2-3.3 1.6-5 1.6v-1.3h.2c.4 0 .6.3.6.6s-.3.6-.6.6c-1.7 0-3.6-.5-5-1.6-1.4-1.2-2.2-2.9-2.4-4.7-.2-1.7.1-3.4.5-5.1.4-1.6 1-3.2 1.8-4.7v.5l-2.2-4.4c-.1-.2 0-.5.2-.6h.2c2.5 0 5.1.1 7.6.2v.5h-1.7v-.3zm0-.1h1.7c.1 0 .3.1.3.3 0 .1-.1.3-.3.3-2.5.1-5.1.1-7.6.2l.4-.6 2.3 4.3c.1.1.1.3 0 .4-.7 1.4-1.2 2.9-1.6 4.5-.4 1.5-.6 3.1-.4 4.6.2 1.5.8 2.9 2 3.8 1.1.9 2.7 1.3 4.2 1.3v1.3h-.2c-.4 0-.6-.3-.6-.6s.3-.6.6-.6c1.5 0 3.1-.4 4.2-1.3 1.2-.9 1.8-2.3 2-3.8.2-1.5 0-3.1-.4-4.6-.4-1.5-.9-3.1-1.6-4.5-.1-.1-.1-.3 0-.5.8-1.4 1.5-2.9 2.3-4.3l.4.6c-2.5-.1-5.1-.2-7.6-.3v-.5z"/></g></g><g><path class="st3" d="M186.5 156.2c-1.3.4-5.3 1.2-6.5 1.6-1 .3-.8 1.8.3 1.8h10.8c1.2 0 2.2-1.1 2-2.3l-.2-1.2-6.4.1z"/><path class="st2" d="M189 81.5h-6.1l-1-13.7h7.1z"/><path class="st12" d="M195.3 79.6c3-.4 11.2 9.9 12.7 13.8 1.5 4-8.3 6.3-8.3 6.3"/><path class="st13" d="M205.9 129s5.7 10.9 4.9 21.3l-.9 2.7-18.1-25"/><path class="st13" d="M184.1 127.1s1.3 25.9 2.7 30.3l5.4-.1c.3-9.1 3.4-20.7 3.7-32.4"/><path class="st14" d="M181.9 74.4c1.3.3 2.8-.1 2.8-.1.1 0 .1.1.1.1l-2.3 2.4-.6-2.6"/><path class="st13" d="M183.5 58.7c-3.1-.1-5.9 1.3-6.3 4.1-.4 2.4-2.4 2.9-2.5 4.2 0 .9 1.6 1.1 1.8 2 .7 3 2.9 5.2 6.3 5.4.8 0 1.2 0 1.9-.2"/><path class="st15" d="M178.7 69.6c-.4 1-1.4 1.4-1.4 1.4"/><path class="st16" d="M178.2 66.5c.2 0 .4-.2.4-.4v-.8c0-.2-.2-.4-.4-.4s-.4.2-.4.4v.7c0 .3.2.5.4.5z"/><path class="st3" d="M182.2 77.8c8.4-2.7 11.9-.7 15.1 4.1 5.2 7.9 2.2 9.9 4.1 17.1 1.9 7.2 6.3 10.3 5.5 30.8h-24s-2.3-23.7-1.6-30.6M207.1 150.1s5.6 9.8 7.4 9.4c1.1-.2-.7-5-1.3-7.2-.4-1.6-.8-2.6-2.4-2.4l-3.7.2z"/><path class="st13" d="M177.4 86.4s-1.6-1.2-2.9-3.4c-1.9-3.4-6.8-9.2-8-7.6s.9 6.9 2.7 7.8c1.3 4.3 8.2 18.7 12.3 17.6s7.4-23 1.7-22.7c-5.7.3-6.1 12.9-6.1 12.9"/><path class="st16" d="M197.5 72.4c-.6-1-1.3-1.8-2.1-2.4-.7-.6-1.2-1.4-1.4-2.3-.2-1.3-.6-2.5-1.2-3.4-.8-1.2-2.3-2.2-3.8-2.6-1.4-2.4-2.6-2.8-4.3-3.3-2.8-.9-5.5.8-5.5.8-.4 3.2.9 6.7 3.8 6.9-.5 2.4.9 5.7 3.6 6.5-.3 1.8.1 4 1.3 5.9 2.2 3.6 6.2 5.1 8.8 3.5 2.6-1.8 3-6 .8-9.6z"/></g></svg>