<svg id="Layer_1" xmlns="http://www.w3.org/2000/svg" viewBox="0 0 743.4 120.9"><style>.st0{fill:#C8D7E2;} .st1{fill:#025085;} .st2{fill:#005082;} .st3{fill:#81CFEF;} .st4{fill:#0EA9DF;} .st5{fill:#FFFFFF;} .st6{fill:#0484C1;} .st7{fill:none;stroke:#C8D7E2;stroke-width:2;stroke-miterlimit:10;} .st8{fill:none;} .st9{fill:#86A7BE;} .st10{fill:none;stroke:#C8D7E2;stroke-width:2;stroke-linecap:round;stroke-linejoin:round;stroke-miterlimit:10;} .st11{fill:#668FAB;} .st12{fill:none;stroke:#86A7BE;stroke-width:2;stroke-linecap:round;stroke-linejoin:round;stroke-miterlimit:10;}</style><path class="st0" d="M507 59.4c4.1 18.8 18.7 21.8 23.1 21.6 5.7-.3 18.2-13.1 18.2-29 0 0 2.7-30.4-29.5-21.3-12.5 3.4-11.8 28.7-11.8 28.7z"/><path class="st1" d="M516.2 33.3c-10.8-3.7-18 8.2-14.3 15 3.7 6.8 5 13.5 5 13.5l9.3-28.5zM519.9 60.1c-1 0-1.7-.8-1.7-1.7v-2.7c0-1 .8-1.7 1.7-1.7 1 0 1.7.8 1.7 1.7v2.7c0 .9-.8 1.7-1.7 1.7z"/><path class="st1" d="M507.6 59.2c1.1 2.7 1.8 5.5 3.2 8 1.3 2.5 3 4.8 5.1 6.7 2.1 1.9 4.5 3.4 7.1 4.5 1.3.5 2.7.9 4 1.2.7.1 1.4.2 2 .2h1c.3 0 .6-.1.9-.1 1.2-.3 2.4-1 3.5-1.9 1.1-.8 2.2-1.8 3.2-2.8 2-2 3.7-4.3 5.2-6.8 2.9-5 4.7-10.5 5.2-16.3 0-.2.2-.3.4-.3s.3.1.3.3c.6 6-1.2 12.1-4.1 17.3-1.5 2.6-3.3 5.1-5.4 7.3-1.1 1.1-2.2 2.1-3.4 3.1-1.3.9-2.6 1.7-4.3 2.2-.4.1-.9.2-1.3.2H529c-.8 0-1.6-.1-2.3-.3-1.5-.3-3-.7-4.4-1.3-2.9-1.2-5.5-2.8-7.7-5-2.2-2.1-4.1-4.6-5.4-7.4-.7-1.4-1.3-2.8-1.8-4.2-.5-1.4-.8-2.9-.9-4.4 0-.4.3-.7.6-.7.1.1.4.3.5.5z"/><path class="st2" d="M530.5 54.1c.3 1.6.4 3.2.5 4.8 0 1.6 0 3.2-.3 4.8-.1.4-.4.7-.8.6-.3-.1-.6-.3-.6-.6-.3-1.6-.3-3.2-.3-4.8.1-1.6.2-3.2.5-4.8.1-.3.3-.5.6-.4.2.1.4.3.4.4z"/><path class="st1" d="M539.8 60.1c-1 0-1.7-.8-1.7-1.7v-2.7c0-1 .8-1.7 1.7-1.7 1 0 1.7.8 1.7 1.7v2.7c0 .9-.8 1.7-1.7 1.7z"/><path class="st2" d="M525.5 69.7l2.3.1c.8 0 1.5.1 2.3.1 1.5 0 3-.1 4.5-.1.4 0 .7.3.7.6s-.2.6-.4.7c-1.5.6-3.2.8-4.8.8-.8 0-1.6-.1-2.5-.2-.8-.1-1.6-.3-2.4-.7-.3-.1-.5-.5-.4-.9.1-.2.4-.4.7-.4zM535.3 46.8c.6-.7 1.3-.9 2-1.1.7-.2 1.4-.2 2-.2.7 0 1.4.1 2 .3.7.2 1.3.5 1.9 1.1.3.3.3.7 0 .9-.2.2-.5.2-.7.2h-.1c-.9-.4-2.1-.5-3.2-.5-.6 0-1.1 0-1.7.1-.5 0-1.1.1-1.4.2l-.2.1c-.3.1-.7-.1-.8-.4 0-.3.1-.6.2-.7zM523.2 47.8c-.4-.1-.9-.2-1.4-.2-.5 0-1.1-.1-1.7-.1-1.1 0-2.3.1-3.2.5h-.1c-.3.1-.7 0-.9-.4-.1-.3 0-.5.2-.7.6-.6 1.2-.9 1.9-1.1.7-.2 1.3-.3 2-.3s1.4 0 2 .2c.7.2 1.4.4 2 1.1.2.3.2.7 0 .9-.2.2-.4.2-.6.1h-.2z"/><path class="st1" d="M554.4 96.4c1.7.1 3.3.8 4.8 1.4 1.6.6 3.1 1.3 4.6 2 3 1.5 5.9 3.1 8.7 5.1 2.7 2 5.2 4.3 7.4 6.9 2.1 2.6 3.9 5.7 4.4 9.1 0 .2-.1.4-.3.4-.1 0-.3-.1-.3-.2-1.6-2.9-3.3-5.5-5.3-8-2.1-2.4-4.5-4.5-7.1-6.4-2.6-1.9-5.4-3.6-8.3-5-1.4-.7-2.9-1.4-4.4-2-1.5-.7-3.1-1-4.5-2-.3-.2-.4-.6-.2-1 .1-.2.3-.3.5-.3zM500 97.6c-1.4 1-3 1.3-4.5 2-1.5.6-3 1.3-4.4 2-2.9 1.5-5.7 3.2-8.3 5-2.6 1.9-5 4-7.1 6.4-2.1 2.4-3.8 5.1-5.3 8-.1.2-.3.2-.5.1-.1-.1-.2-.2-.2-.3.5-3.4 2.2-6.5 4.4-9.1 2.1-2.6 4.7-4.9 7.4-6.9s5.6-3.7 8.7-5.1c1.5-.7 3-1.4 4.6-2 1.6-.6 3.1-1.3 4.8-1.4.4 0 .7.3.7.7 0 .3-.1.5-.3.6zM550.8 51.8c1-20.8-.8-26.2-13.8-30.6-8.7-2.9-26.4 2.4-28-1.4 0 0-5.6 18.2 16.9 22.4 22.5 4.1 24.9 9.6 24.9 9.6z"/><path class="st3" d="M508.3 82.6c.4-.4.9-.6 1.4-.7l1.5-.3c1-.1 2-.1 3 0 2 .2 4 .6 5.8 1.3 1.9.7 3.6 1.6 5.2 2.8l1.2.9c.4.4.8.7 1.1 1.1.7.8 1.2 1.7 1.4 2.8 0 .2-.1.4-.3.4-.1 0-.2 0-.3-.1-1.3-1.3-2.7-2.3-4.2-3.3s-3.2-1.7-4.9-2.4c-1.7-.6-3.4-1.1-5.2-1.3-.9-.1-1.8-.1-2.6 0l-1.3.2c-.4.1-.8.1-1.4 0h-.1c-.4-.1-.6-.5-.5-.9 0-.2.1-.4.2-.5z"/><path class="st3" d="M547.9 87c-.5 0-.9-.2-1.3-.4l-.6-.3-.6-.2c-.4-.1-.8-.3-1.2-.4l-1.3-.3c-1.7-.3-3.5-.2-5.2 0-1.7.3-3.5.8-5.1 1.4-1.7.7-3.3 1.5-5.1 2.1-.2.1-.4 0-.4-.2 0-.1 0-.2.1-.3 1.2-1.6 2.9-2.6 4.7-3.4 1.8-.8 3.6-1.4 5.6-1.8 2-.4 4-.3 6 .1l1.5.4c.5.2.9.4 1.4.5l.7.3.7.4c.4.3.8.6 1.1 1 .2.3.1.8-.2 1-.1.1-.3.1-.4.1h-.4zM512.6 91.9c.4.3.7.7.9 1.1l.8 1.2.9 1.2.9 1.1c1.3 1.4 2.8 2.6 4.4 3.7 1.6 1.1 3.3 2 5.1 2.6 1.8.6 3.6.9 5.6 1.1.2 0 .3.2.3.4 0 .1-.1.2-.2.3-2 1-4.3.8-6.3.2-2.1-.6-4-1.5-5.7-2.7-1.8-1.2-3.3-2.6-4.7-4.2l-1-1.2-.9-1.3c-.3-.5-.5-.9-.8-1.4-.2-.5-.4-1-.4-1.6 0-.4.3-.7.7-.7.1 0 .2.1.4.2zM506.5 89c-.5.5-.9.9-1.4 1.3l-.7.7c-.2.2-.4.5-.6.8-.7 1-1.4 2.2-1.6 3.5-.3 1.3-.3 2.6 0 3.8.3 1.3.8 2.5 1.5 3.5.7 1.1 1.7 2 2.7 2.7l.8.5c.3.2.6.3.9.4.6.3 1.3.5 2 .7l4 1.3c1.3.4 2.7.9 4 1.1h.1c.2 0 .3.2.3.4 0 .1-.1.2-.2.3-.8.3-1.6.3-2.3.3-.8 0-1.5-.1-2.2-.3-1.5-.2-2.8-.7-4.2-1.1-.7-.2-1.4-.4-2.1-.7-.4-.1-.7-.3-1.1-.5l-1-.6c-1.3-.9-2.5-2-3.4-3.3-.9-1.3-1.5-2.8-1.8-4.4-.3-1.6-.2-3.2.1-4.7.3-1.6 1.1-3 2-4.3.3-.3.5-.6.8-.9l.9-.8c.6-.5 1.3-.9 2.2-1 .4 0 .7.2.8.6-.2.2-.3.4-.5.7zM535.7 108.4c1-.5 2-.4 3-.6l3-.6c2-.5 3.9-1.3 5.7-2.2 1.8-1 3.4-2.1 4.6-3.7 1.1-1.5 1.6-3.3 1.8-5.4 0-.2.2-.3.4-.3.1 0 .2.1.3.2.5 1 .7 2.2.6 3.4-.1 1.2-.7 2.3-1.3 3.3-1.3 2-3.2 3.4-5.2 4.4-2 1.1-4.1 1.8-6.2 2.3-1.1.3-2.2.5-3.2.6-1.1.1-2.2.4-3.3-.1-.4-.2-.5-.6-.4-.9-.1-.2 0-.4.2-.4zM543.3 95c.6-.7 1.3-.6 1.9-.9.6-.3 1.3-.5 1.8-.8 1.2-.6 2.2-1.4 3.2-2.3 1-.9 1.9-1.9 2.6-3 .7-1.1 1.4-2.3 2.3-3.4.1-.1.3-.2.5 0 .1.1.1.1.1.2.2 1.6-.4 3.1-1.2 4.4-.8 1.3-1.7 2.6-2.8 3.6-1.1 1.1-2.4 1.9-3.8 2.6-.7.4-1.4.6-2.1.9-.7.2-1.4.5-2.3.3-.4-.1-.6-.6-.5-1 .1-.3.2-.4.3-.6zM280 82.3l18.7 8.4 14.1-7.6s40.8 6.3 40.8 37.9H245.1c0-11.7 10-30.7 34.9-38.7z"/><path class="st1" d="M290.5 68.3c0-3 3.8-5.4 8.5-5.4s8.5 1.5 8.5 4.5M310.2 65.5c.4 2.8.3 5.5.3 8.3v2c0 .6.1 1.2.3 1.8.3 1.2 1 2.3 1.8 3.1.8.9 1.9 1.5 3 1.8l.4.1.5.1c.4.1.7.1 1 .2.7.2 1.4.3 2.1.5 2.7.8 5.4 1.7 7.9 2.9 5.1 2.3 10 5.2 14.3 8.9 2.1 1.9 4.1 3.9 5.7 6.3 1.6 2.3 2.8 5 3.4 7.7 0 .2-.1.4-.3.4-.2 0-.3 0-.4-.2-2.3-5-5.7-9.1-9.9-12.6-4.1-3.5-8.9-6.2-13.8-8.4-2.5-1.1-5-2.1-7.6-2.8-.6-.2-1.3-.4-1.9-.5-.3-.1-.7-.2-1-.2l-.5-.1-.6-.1c-1.5-.4-2.9-1.3-4-2.4-1.1-1.1-1.9-2.5-2.3-4-.2-.7-.3-1.5-.4-2.3v-2.1c0-2.8-.1-5.5.3-8.3.1-.4.4-.6.8-.6.7 0 .9.2.9.5zM288.9 45.5c-1 0-1.9-.8-1.9-1.9v-3c0-1 .8-1.9 1.9-1.9 1 0 1.9.8 1.9 1.9v3c0 1-.9 1.9-1.9 1.9z"/><path class="st1" d="M276.5 43c.7 1.7 1.1 3.5 1.6 5.3.5 1.8 1 3.5 1.6 5.2 1.2 3.4 2.6 6.8 5 9.2 1.2 1.2 2.6 2.2 4.2 2.8 1.6.7 3.3 1 5.1 1.2 1.8.2 3.6.3 5.4.3 1.8 0 3.5-.1 5.1-.6 1.6-.5 3.1-1.4 4.5-2.4 1.3-1.1 2.5-2.4 3.4-3.9 1.9-2.9 3.2-6.3 4.2-9.8 1.9-7 2.5-14.3 3.1-21.6 0-.2.2-.3.4-.3s.3.1.3.3c.4 7.4.1 14.9-1.8 22.2-1 3.6-2.3 7.2-4.4 10.4-1.1 1.6-2.3 3.1-3.8 4.4-1.5 1.3-3.3 2.2-5.2 2.9-1.9.6-3.9.8-5.8.8s-3.7-.1-5.6-.3c-1.9-.3-3.8-.7-5.6-1.5-1.8-.8-3.5-1.9-4.9-3.4-1.4-1.4-2.4-3.1-3.3-4.8-.9-1.7-1.5-3.5-2.1-5.3-.6-1.8-1.1-3.6-1.5-5.4-.5-1.8-.8-3.6-.9-5.5 0-.4.3-.7.6-.7 0 0 .3.2.4.5z"/><path class="st2" d="M300.4 40.5c.3 1 .4 1.9.5 2.9 0 1 0 1.9-.3 2.9-.1.4-.5.6-.9.5-.3-.1-.5-.3-.5-.5-.3-1-.3-1.9-.3-2.9.1-1 .2-1.9.5-2.9.1-.3.4-.4.7-.3.2 0 .3.1.3.3z"/><path class="st1" d="M310.6 45.5c-1 0-1.9-.8-1.9-1.9v-3c0-1 .8-1.9 1.9-1.9 1 0 1.9.8 1.9 1.9v3c0 1-.9 1.9-1.9 1.9z"/><path class="st2" d="M295.1 57.6c.7.3 1.5.4 2.4.5.8.1 1.7.1 2.5.1s1.7-.1 2.5-.2 1.6-.3 2.2-.6l.1-.1c.4-.2.8 0 1 .3.1.3.1.6-.1.8-.8.8-1.8 1.1-2.7 1.4-1 .2-1.9.3-2.8.2-.9 0-1.9-.2-2.8-.4-.9-.3-1.8-.6-2.6-1.3-.2-.2-.2-.5 0-.7-.2-.1.1-.1.3 0zM305.9 31.1c.6-.7 1.3-1 2.1-1.2.7-.2 1.5-.3 2.2-.3.7 0 1.5.1 2.2.3.7.2 1.5.6 2.1 1.2.3.3.3.7 0 1-.2.2-.5.3-.8.2h-.1c-1-.4-2.2-.6-3.5-.6h-1.8c-.6 0-1.2.1-1.7.3h-.1c-.3.1-.5 0-.6-.3-.2-.3-.1-.4 0-.6zM292.7 31.9c-.5-.2-1.1-.2-1.7-.3h-1.8c-1.2.1-2.5.3-3.5.6h-.1c-.4.1-.8 0-.9-.4-.1-.3 0-.6.2-.8.6-.6 1.3-1 2.1-1.2.7-.2 1.5-.3 2.2-.3.7 0 1.5.1 2.2.3.7.2 1.5.5 2.1 1.2.2.2.2.5 0 .7-.1.1-.3.2-.5.1l-.3.1z"/><path class="st1" d="M301.4 52.8c-.5-3.1-10.6-.9-9.8 1.7.3 1 10-.5 9.8-1.7z"/><path class="st1" d="M301.4 52.8c-.5-3.1-10.6-.9-9.8 1.7.3 1 10-.5 9.8-1.7z"/><path class="st1" d="M297.8 52.8c.5-3.1 10.6-.9 9.8 1.7-.3 1-10-.5-9.8-1.7z"/><path class="st1" d="M297.8 52.8c.5-3.1 10.6-.9 9.8 1.7-.3 1-10-.5-9.8-1.7zM278.5 32.1c-1.9.9-4.1-.5-4.1-2.5-.1-8.6 9.5-18.9 24.5-17.9 12.3.8-11.1 16-20.4 20.4z"/><path class="st1" d="M317.5 27.9c1.6-.3 2.6-1.8 2.2-3.4-2.1-8.9-15.5-17.4-29.1-10-10.8 5.8 9.6 16.3 26.9 13.4z"/><path class="st4" d="M165.8 66.4c0-1.6-.5-3.1-1.3-4.4 1-1.9 1.6-4 1.6-6 0-2.5-1.1-4.8-2.9-6.3 1.1-1.2 1.7-2.7 1.7-4.5 0-2.3-1.1-5-2.8-6.9 1.7-4.4 1.6-9.5-1.9-12.6 2.7-6.6-9.4-23.7-23.9-20-14.4-3.6-26.5 13.3-24 19.9-.7.6-1.2 1.3-1.7 2v.1c-.1.2-.2.4-.4.7v.1c-.1.2-.2.5-.3.7v.1c-.4 1.1-.6 2.2-.6 3.4v.9c0 .3 0 .6.1.9.2 1.5.6 3 1.2 4.4-.2.2-.3.5-.5.7-.1.2-.3.4-.4.7 0 0 0 .1-.1.1-.1.2-.2.4-.3.7 0 0 0 .1-.1.1l-.3.6c0 .1 0 .1-.1.2-.1.2-.1.4-.2.6 0 .1 0 .2-.1.2-.1.2-.1.4-.1.6 0 .1 0 .2-.1.2 0 .2-.1.4-.1.6v1.9c0 .1 0 .2.1.4 0 .1.1.2.1.4 0 .1 0 .2.1.2 0 .1.1.3.1.4 0 .1 0 .1.1.2.1.2.1.3.2.4v.1c.1.2.2.3.3.5v.1c.1.2.2.3.3.5.1.2.2.3.4.5l-.6.6-.1.1c-.2.2-.3.3-.4.5 0 .1-.1.1-.1.2-.1.2-.2.3-.3.5 0 .1-.1.2-.1.2-.1.2-.2.3-.3.5 0 .1-.1.2-.1.3-.1.2-.1.3-.2.5 0 .1-.1.2-.1.3-.1.2-.1.4-.2.5 0 .1-.1.2-.1.3 0 .2-.1.4-.1.6v.3c0 .3-.1.6-.1.9 0 1.7.5 3.5 1.3 5.2-.8 1.1-1.3 2.4-1.3 3.9 0 1.8.7 3.4 1.9 4.6-1.8 1.9-3 4.9-3 7.2l7.6-5.2h.2c.4 0 .8 0 1.2-.1v.2l.4-.3c1.9-.5 3.5-1.8 4.4-3.5l4.7-3.8 1.6-7.9-2.9-2.3v-.6-.8-.2c0-.2-.1-.4-.1-.6 0-.1 0-.1-.1-.2 0-.2-.1-.3-.1-.5 0-.1 0-.1-.1-.2-.1-.2-.1-.3-.2-.5 0 0 0-.1-.1-.1-.1-.2-.2-.3-.3-.4 0 0 0-.1-.1-.1-.1-.1-.2-.3-.4-.4h-.1c-.1-.1-.3-.3-.5-.4l-.6-.3c.3-.5.6-1.1.7-1.6v-.1c.1-.2.1-.5.2-.8v-.2c0-.3.1-.6.1-.9v-.7-.2c0-.2 0-.3-.1-.5v-.3c0-.1-.1-.3-.1-.4 0-.1 0-.2-.1-.3 0-.2-.1-.3-.1-.5 0-.1 0-.1-.1-.2-.1-.2-.2-.4-.3-.7 0-.1-.1-.2-.1-.2-.1-.1-.1-.3-.2-.4 0-.1-.1-.2-.1-.3-.1-.1-.1-.2-.2-.4-.1-.1-.1-.2-.2-.3-.1-.1-.1-.2-.2-.3-.1-.1-.1-.2-.2-.3-.1-.1-.2-.2-.2-.3-.1-.2-.2-.3-.4-.5-.1-.1-.2-.2-.2-.3l-.3-.3c-.1-.1-.2-.1-.2-.2-.1-.1-.2-.2-.3-.2-.1-.1-.2-.1-.2-.2-.1-.1-.2-.1-.3-.2-.1-.1-.2-.1-.3-.2-.1-.1-.2-.1-.3-.2-.1-.9-.1-1.9-.2-2.8v-.1-1.4-.1-1.3-.1-3.7-.1-1c8.1-3 16.8-8.3 19.5-16.7 2.7 8.4 11.3 13.7 19.4 16.6.1 2.8.1 7.3-.4 11.2-2.2 1.7-3.8 5.1-3.8 7.7 0 1.3.4 2.5 1 3.5-1.5.8-2.5 2.2-2.5 4.5l-2.9 2.2.8 8.2 2.6 1.5v.4s.3.1.9.1l1.3.8c.1 4 3 7.1 6.5 7.1 1.3 0 2.5-.4 3.5-1.2l3.3 2-1.3-4.3c.9-.5 1.3-1.8 1.3-3.2z"/><path class="st3" d="M166 110.4h-5.3v-8.7c0-1.5 1.2-2.6 2.6-2.6h2.6v11.3z"/><path class="st5" d="M152.2 89.5l-31.9-9.6 5.8-23.4 21.1-.9z"/><path class="st5" d="M116.2 27.2c-.6 28.8 10.5 30.7 20.4 30.7 11.6 0 18.2-6.1 19.5-30.7"/><path class="st6" d="M116.9 27.2c.3 1.7.3 3.5.4 5.2.1 1.7.2 3.5.4 5.2l.3 2.6c.1.9.3 1.7.5 2.5l.3 1.2.4 1.2c.3.8.5 1.6.9 2.4 1.3 3.1 3.3 5.8 6.1 7.4 2.9 1.5 6.2 2 9.7 2 1.7 0 3.4-.1 5-.3 1.6-.3 3.2-.8 4.6-1.6 2.8-1.6 4.8-4.4 6.1-7.5 1.3-3.1 2.1-6.5 2.7-9.9.7-3.4 1.1-6.9 1.6-10.3 0-.2.2-.3.4-.3s.3.2.3.3c.1 3.5 0 7.1-.5 10.6s-1.2 7-2.6 10.4c-1.4 3.3-3.6 6.6-6.9 8.6-1.7.9-3.5 1.6-5.3 1.9-.9.2-1.8.3-2.7.3-.9 0-1.8.1-2.7.1-1.8 0-3.6-.1-5.4-.5-1.8-.3-3.6-1-5.3-1.8l-1.2-.8c-.2-.1-.4-.3-.6-.4l-.5-.5-1.1-1-.9-1.1c-.6-.7-1.1-1.5-1.6-2.3-.5-.8-.8-1.7-1.2-2.5-.4-.8-.6-1.7-.9-2.6l-.4-1.3-.3-1.3c-.2-.9-.4-1.8-.5-2.6l-.3-2.7c-.1-.9-.2-1.8-.2-2.7l-.2-2.7c0-1.8.1-3.5.3-5.3 0-.4.4-.6.8-.6.2.1.4.4.5.7z"/><path class="st6" d="M148 60.9l-.5-5.3c-8 3.2-15.8 2.2-21.4.9 0 0 9.9 4.9 21.9 4.4zM127 37c-1 0-1.7-.8-1.7-1.7v-2.7c0-1 .8-1.7 1.7-1.7 1 0 1.7.8 1.7 1.7v2.7c0 .9-.8 1.7-1.7 1.7zM146.9 37c-1 0-1.7-.8-1.7-1.7v-2.7c0-1 .8-1.7 1.7-1.7 1 0 1.7.8 1.7 1.7v2.7c0 .9-.8 1.7-1.7 1.7zM134.1 48.6c1-.1 1.9-.1 2.8 0 .5 0 .9 0 1.4.1.5.1.9.1 1.5.3.2.1.3.3.3.5 0 .1-.1.1-.1.2-.4.4-.9.7-1.5.8-.5.2-1.1.2-1.6.2-1.1 0-2.2-.1-3.1-.7-.3-.2-.5-.6-.3-.9.1-.4.4-.5.6-.5zM130.3 26.1c-.4-.1-.9-.2-1.4-.2-.5 0-1.1-.1-1.7-.1-.6 0-1.1 0-1.7.1-.6 0-1.1.1-1.7.2-.2 0-.4-.1-.4-.3v-.2c.4-.7 1.1-1 1.7-1.3.7-.3 1.3-.4 2-.4s1.4 0 2 .2c.7.2 1.4.4 2 1.1.2.3.2.7-.1.9-.2.1-.4.2-.6.1l-.1-.1zM137.3 35.1c.5.3.3.6.4.8l.1.8c0 .6.1 1.1 0 1.7 0 .6 0 1.1-.1 1.7 0 .6-.1 1.1-.7 1.7-.2.2-.5.2-.7 0-.6-.6-.7-1.1-.7-1.7 0-.6-.1-1.1-.1-1.7v-1.7l.1-.8c.1-.3-.1-.6.4-.8.4-.3.9-.2 1.3 0z"/><path class="st5" d="M95.5 111.9c2.7-30.6 1.3-26.9 19.7-40.5"/><path class="st6" d="M94.9 111.8c-.3-2 .1-4 .2-6l.5-6 .6-6c.3-2 .6-4.1 1.2-6.1.3-1 .7-2 1.2-3l.8-1.4c.3-.5.6-.9 1-1.3 1.4-1.7 3-3 4.6-4.3 3.2-2.5 6.5-4.7 10.1-6.6.2-.1.4 0 .5.1.1.1 0 .3-.1.4-2.9 2.9-6.1 5.3-9.2 7.7-3.1 2.5-5.7 5.3-6.6 9-1 3.7-1.5 7.7-1.9 11.7l-.6 6c-.2 2-.2 4-.9 6-.1.4-.5.6-.9.4-.3-.1-.5-.3-.5-.6z"/><path class="st5" d="M180 111.9c-2.7-30.6-1.3-26.9-19.7-40.5"/><path class="st6" d="M179.4 111.9c-.7-2-.6-4-.9-6l-.6-6c-.4-4-.8-8-1.9-11.7-.9-3.7-3.5-6.5-6.6-9-3.1-2.5-6.4-4.8-9.2-7.7-.1-.1-.1-.3 0-.5.1-.1.3-.1.4-.1 3.6 1.9 6.9 4.1 10.1 6.6 1.6 1.2 3.2 2.6 4.6 4.3.3.4.7.8 1 1.3l.8 1.4c.4 1 .9 2 1.2 3 .6 2 .9 4.1 1.2 6.1.3 2 .5 4 .6 6l.5 6c.1 2 .5 4 .2 6-.1.4-.4.6-.8.6-.4.2-.6 0-.6-.3z"/><path class="st7" d="M127 39.9h-1.2c-3.2 0-5.9-2.3-6.1-5.4l-.1-1.6c-.2-2.2 1.7-4.1 4.1-4l4.8.2c2.8.1 4.9 2.3 4.8 4.9-.1 3.2-2.9 5.8-6.3 5.9zM145.3 40.5l1.2.1c3.2.3 6-1.9 6.5-4.9l.2-1.6c.3-2.2-1.4-4.2-3.8-4.3l-4.8-.2c-2.8-.1-5.1 2-5.2 4.6 0 3.3 2.6 6 5.9 6.3zM133.1 31.6l7.3.2"/><path class="st5" d="M140.6 95.9l-16.9-31.7-10.6 8.9 13 12.4-.1.3c-.9 3.5.5 7.2 3.4 9.3l8.9 6.3"/><path class="st6" d="M140 96.3c-1.8-2.5-3.1-5.1-4.5-7.8l-4.3-7.9-8.5-15.8 1.7.3-10.6 8.8.1-1.6 13 12.4c.3.3.4.6.3 1-.5 1.6-.4 3.2.1 4.8.5 1.5 1.5 2.9 2.8 3.9 1.4 1.1 2.9 2.2 4.3 3.3 1.4 1.1 2.8 2.3 4.2 3.4.1.1.2.3 0 .5-.1.1-.3.2-.4.1-1.6-.9-3.1-1.9-4.6-2.9l-4.5-3c-1.7-1.1-3-2.8-3.6-4.7-.7-1.9-.7-4-.2-5.9l.3 1-13.1-12.3c-.4-.4-.5-1.1 0-1.5l.1-.1 10.6-8.9c.5-.4 1.2-.3 1.6.1.1.1.1.1.1.2l8.4 15.9 4.2 7.9c1.4 2.6 2.9 5.3 3.9 8.1.1.3 0 .7-.4.9-.5.1-.8 0-1-.2z"/><path class="st5" d="M135.6 101.4L148 63.8l13.5 8.8-11.3 14.6c.2.9.3 1.8.2 2.7-1 9.8-7.7 15.3-15.4 17.6V121"/><path class="st6" d="M135 101.2c.7-3.2 1.7-6.4 2.8-9.5l3.1-9.4 6.1-18.8c.2-.6.8-.9 1.4-.7.1 0 .2.1.3.1 4.5 2.9 9 5.9 13.5 8.8.5.3.6 1 .3 1.5v.1l-7.1 9.1-3.5 4.6-.4.6-.2.3-.1.1c.4-1.8.1-.5.2-.9v.2c.1.5.2 1.1.2 1.6 0 1.1-.2 2.1-.3 3.1-.7 4-2.7 7.8-5.6 10.6-2.9 2.9-6.6 4.8-10.4 5.8l.6-.9c0 2.3-.1 4.5-.2 6.8s-.2 4.5-.4 6.8c0 .2-.2.3-.4.3s-.3-.1-.3-.3c-.2-2.3-.3-4.5-.4-6.8-.1-2.3-.2-4.5-.2-6.8 0-.4.3-.7.6-.9 3.5-1.1 6.9-2.9 9.5-5.5 2.6-2.6 4.3-5.9 4.9-9.5.1-.9.3-1.8.3-2.6 0-.4-.1-.8-.2-1.2v-.2c.1-.4-.2.9.2-.9l.1-.1.2-.3.4-.6 3.5-4.6 7-9.2.3 1.6c-4.5-2.9-9-5.9-13.5-8.9l1.6-.6-6.2 18.8-3.1 9.4c-1 3.1-2.1 6.3-3.4 9.3-.2.3-.5.5-.9.3-.2 0-.4-.3-.3-.6z"/><path class="st0" d="M153.4 109.8c1.3-.1 2.7-.2 4-.2 1.3-.1 2.7-.1 4-.1h4c1.3.1 2.7.1 4 .3.4 0 .6.4.6.7 0 .3-.3.6-.6.6-1.3.2-2.7.2-4 .3-1.3 0-2.7.1-4 0-1.3 0-2.7 0-4-.1-1.3 0-2.7-.1-4-.2-.4 0-.6-.4-.6-.7 0-.4.3-.6.6-.6z"/><path class="st6" d="M142.4 25.2c.6-.7 1.3-.9 2-1.1.7-.2 1.4-.2 2-.2.7 0 1.4.1 2 .4.6.3 1.3.7 1.7 1.3.1.2 0 .4-.1.5-.1 0-.2.1-.2 0-.6-.1-1.1-.1-1.7-.2-.6 0-1.1-.1-1.7-.1-.6 0-1.1 0-1.7.1-.5 0-1.1.1-1.4.2l-.3.1c-.3.1-.7-.1-.8-.5 0-.2.1-.4.2-.5z"/><circle class="st6" cx="129.3" cy="46.9" r=".8"/><path class="st0" d="M666.1 88.1c1.5-.6 3.1-1.2 4.5-1.7 3.5-1.3 7.3-4.5 7.3-8.2V68c0-11.4 22-2.1 22-2.1s-1.3 14.7.6 17.5 12.7 6.4 12.7 6.4l-22.9 15.4-24.2-17.1z"/><path class="st9" d="M699.8 76.6l.3-4.8c-7.2.8-15.5 2.5-21 1.3s8.7 3.9 20.7 3.5z"/><path class="st0" d="M709.1 47.5c0 15.9 1.2 25.1-18.2 25.1-23.3 0-22.2-2.9-22.2-23V36.8s7.9-12.1 22.2-12.5 18.2 15.8 18.2 15.8v7.4z"/><path class="st6" d="M672.6 85.5l17.2 7.7 12.9-6.9s37.4 5.8 37.4 34.7h-99.4c-.1-10.7 9.1-28.1 31.9-35.5z"/><path class="st1" d="M693 21.6c.1.3.1.7.2 1.1 1 9.5-18.7 28.2-27.6 19.3-4.5-4.5 3.1-23.4 21.2-21.7M680.5 72.7c0-3.4 4.3-6.1 9.6-6.1s9.6 2.7 9.6 6.1"/><path class="st1" d="M700.3 71.9c.5 2.5.3 4.9.4 7.4 0 2.2 1 4.3 2.8 5.5.4.3.9.5 1.4.7.5.2 1 .3 1.6.4 1.2.3 2.5.6 3.7 1 2.4.7 4.7 1.6 7 2.7 4.5 2.1 8.9 4.7 12.6 8.1 1.9 1.7 3.6 3.5 5 5.6 1.4 2.1 2.5 4.5 3 6.9 0 .2-.1.4-.3.4-.2 0-.3 0-.4-.2-2.1-4.4-5.1-8.1-8.7-11.2-1.8-1.6-3.8-3-5.8-4.2-2-1.3-4.2-2.4-6.4-3.4s-4.4-1.9-6.7-2.6c-1.1-.4-2.3-.7-3.5-.9-.5-.1-1.3-.2-1.9-.5-.7-.3-1.3-.6-1.9-1-2.3-1.7-3.6-4.5-3.6-7.2 0-2.5-.1-4.9.4-7.4.1-.4.4-.6.8-.5.3-.1.5.1.5.4zM680.7 51.8c-1 0-1.7-.8-1.7-1.7v-2.7c0-1 .8-1.7 1.7-1.7 1 0 1.7.8 1.7 1.7v2.7c.1.9-.7 1.7-1.7 1.7z"/><path class="st1" d="M669.4 49.7c.5 3.2.3 6.5.4 9.7.1 1.6.2 3.2.5 4.7s.8 2.9 1.6 4c.4.5 1 1 1.5 1.3.6.3 1.3.7 2 .9 1.4.5 3 .7 4.5.9 3.1.3 6.4.4 9.6.4 3.2 0 6.4-.1 9.4-.7 1.5-.3 2.9-.9 4.2-1.6 1.2-.8 2.3-1.8 3-3.1.7-1.3 1.2-2.7 1.5-4.2.3-1.5.5-3.1.6-4.7.2-3.2.3-6.4.6-9.7 0-.2.2-.3.4-.3s.3.1.3.3c.3 3.2.5 6.5.5 9.7 0 1.6-.1 3.3-.4 5-.3 1.7-.8 3.3-1.6 4.9-.9 1.6-2.2 2.9-3.7 3.9-1.5.9-3.2 1.5-4.8 1.9-3.3.8-6.7.9-9.9.8-3.3 0-6.5-.1-9.8-.5-1.6-.2-3.3-.5-5-1-.8-.3-1.6-.7-2.4-1.1-.8-.5-1.5-1.1-2.1-1.8-1.2-1.5-1.7-3.3-2-4.9-.3-1.7-.4-3.3-.4-5 0-3.3-.2-6.5.3-9.7.1-.4.4-.6.8-.6.2-.1.4.2.4.5z"/><path class="st2" d="M691.4 47.2c.3.9.4 1.8.5 2.6 0 .9 0 1.8-.3 2.6-.1.4-.5.6-.9.5-.2-.1-.4-.3-.5-.5-.3-.9-.3-1.8-.3-2.6.1-.9.2-1.8.5-2.6.1-.3.4-.4.7-.3l.3.3z"/><path class="st1" d="M700.6 51.8c-1 0-1.7-.8-1.7-1.7v-2.7c0-1 .8-1.7 1.7-1.7 1 0 1.7.8 1.7 1.7v2.7c0 .9-.7 1.7-1.7 1.7z"/><path class="st2" d="M686.4 62.9c.7.2 1.4.3 2.2.4.8.1 1.5.1 2.3.1.8 0 1.5-.1 2.2-.1.7-.1 1.4-.2 2-.5l.1-.1c.4-.2.8 0 1 .4.1.3.1.6-.1.8-.8.8-1.7 1.1-2.5 1.3-.9.2-1.8.2-2.6.2-.9 0-1.7-.2-2.6-.4-.8-.3-1.7-.6-2.4-1.3-.2-.2-.2-.5 0-.7 0-.2.2-.2.4-.1zM696.3 38.6c.6-.7 1.2-.9 1.9-1.1.7-.2 1.3-.3 2-.3s1.4.1 2 .3c.7.2 1.4.5 1.9 1.1.3.3.3.8 0 1-.2.2-.5.3-.7.2h-.1c-.9-.3-2-.5-3.1-.5h-1.7c-.5 0-1.1.1-1.5.2h-.2c-.3.1-.5-.1-.6-.3-.1-.3 0-.4.1-.6zM684.2 39.4c-.4-.1-1-.2-1.5-.2H681c-1.1.1-2.2.2-3.1.5h-.1c-.4.1-.8-.1-.9-.4-.1-.3 0-.6.2-.7.6-.6 1.2-.9 1.9-1.1.7-.2 1.4-.3 2-.3.7 0 1.4.1 2 .3.7.2 1.4.5 1.9 1.1.2.2.2.5-.1.7-.1.1-.3.1-.5.1h-.1z"/><path class="st1" d="M692.6 57.4c-.7-3.3-10.3.4-9.4 3.1 1 2.6 10-.3 9.4-3.1z"/><path class="st1" d="M689 57.4c.7-3.3 10.3.4 9.4 3.1s-10-.3-9.4-3.1zM687.9 26c7.3.9 15.7 7 20.2 17.2.7 1.7 3.2 1.5 3.7-.3 2.5-10.6-5.1-24.3-20.6-22.6l-5.8 1.3"/><path class="st4" d="M28.1 91.1l45.9.2s28.3 4.8 34.8 29.8H2.6c0-.1 7-20.2 25.5-30z"/><path class="st0" d="M52.3 90.5l-3.7-5 6.8-.1z"/><path class="st1" d="M64.8 79.4v-3.9c-7.2.8-15 2.1-20.5.8-5.6-1.2 10.2 3.2 20.5 3.1zM45.8 55.5c-1 0-1.7-.8-1.7-1.7v-2.7c0-1 .8-1.7 1.7-1.7 1 0 1.7.8 1.7 1.7v2.7c.1.9-.7 1.7-1.7 1.7z"/><path class="st1" d="M34.5 53.4c.5 3.2.4 6.5.9 9.6.5 3.1 1.4 6.2 3.4 8.4 2 2.1 5.1 3 8.2 3.5 3.1.4 6.4.5 9.6.5 3.1 0 6.3-.6 8.9-2 2.7-1.4 4.5-4 5.6-6.9 1.1-2.9 1.6-6.1 1.9-9.3.3-3.2.5-6.5.8-9.7 0-.2.2-.3.4-.3s.3.1.3.3c.3 3.3.4 6.5.3 9.9-.1 3.3-.6 6.7-1.7 9.9s-3.3 6.3-6.5 8c-3.1 1.8-6.6 2.3-10 2.4-3.3 0-6.6 0-10-.5-1.7-.2-3.4-.6-5-1.2-1.6-.7-3.2-1.6-4.4-2.9-1.3-1.3-2.1-2.9-2.7-4.6-.6-1.6-.9-3.3-1.2-5-.4-3.3-.7-6.6-.2-9.9.1-.4.4-.6.8-.6.4-.2.6.1.6.4z"/><path class="st2" d="M56.5 49.6c.3 1.6.4 3.2.5 4.8 0 1.6 0 3.2-.3 4.8-.1.4-.4.7-.8.6-.3-.1-.6-.3-.6-.6-.3-1.6-.4-3.2-.3-4.8.1-1.6.2-3.2.5-4.8.1-.3.3-.5.6-.4.2 0 .3.2.4.4z"/><path class="st1" d="M65.7 55.5c-1 0-1.7-.8-1.7-1.7v-2.7c0-1 .8-1.7 1.7-1.7 1 0 1.7.8 1.7 1.7v2.7c.1.9-.7 1.7-1.7 1.7zM49.2 63.6c.6-.1.7.2 1.1.3.3.2.7.3 1.1.4.8.2 1.7.4 2.5.5.9.1 1.7.2 2.6.2.9 0 1.6 0 2.6.3h.1c.2.1.3.2.3.4 0 0 0 .1-.1.1-.7 1-1.9 1.2-2.8 1.2-1 .1-1.9.1-2.9-.1-1-.1-1.9-.3-2.8-.7-.5-.2-.9-.3-1.4-.6-.4-.2-1.1-.5-1.2-1.2 0-.4.2-.7.5-.8h.4z"/><path class="st2" d="M61.3 42.2c.6-.7 1.3-.9 2-1.1.7-.2 1.4-.2 2-.2.7 0 1.4.1 2 .3.7.2 1.3.5 1.9 1.1.3.3.3.7 0 .9-.2.2-.5.2-.7.2h-.1c-.9-.4-2.1-.5-3.2-.5-.6 0-1.1 0-1.7.1-.5 0-1.1.1-1.4.2l-.2.1c-.3.1-.7-.1-.8-.4 0-.3 0-.5.2-.7z"/><path class="st1" d="M65.5 75.6c.5 2.5.3 5.1.4 7.6.1 2.2 1.3 4.3 3.2 5.4.5.3 1 .5 1.5.6.3.1.5.1.8.2l1 .2c1.3.3 2.5.6 3.8.9 2.5.7 4.9 1.6 7.3 2.6 4.7 2.1 9.3 4.6 13.3 8 2 1.7 3.9 3.5 5.4 5.6 1.6 2.1 2.7 4.5 3.3 7.1 0 .2-.1.4-.3.4-.2 0-.3 0-.4-.2-2.2-4.5-5.6-8.2-9.4-11.3-3.9-3.1-8.3-5.5-12.9-7.5-2.3-1-4.7-1.9-7-2.6-1.2-.4-2.4-.7-3.6-.9l-.9-.1c-.3-.1-.7-.1-1-.3-.7-.2-1.4-.5-2-.9-2.5-1.5-4.1-4.3-4.2-7.2 0-2.6-.1-5.1.3-7.7.1-.4.4-.6.8-.5.3.1.5.3.6.6z"/><path class="st6" d="M37 32.5c.8 3 3 7.5 9.6 10.8 3 1.5 7.4-.2 11.6 1.8 3.5 1.7 5.7 5.9 9.1 6.8 4.7 1.2 7.7 4.3 9.1 6.3.5.7 1.7.6 2-.3 1-2.8 2.6-7.9 2-12.2-.5-3.9-2.9-33.6-30.8-28.8C35.7 19.3 36 28.8 37 32.5z"/><path class="st3" d="M33.2 49.7c-.6-.6-.4-1.2-.6-1.8-.1-.6-.1-1.2-.2-1.8-.1-1.2-.1-2.5 0-3.7.1-1.2.3-2.5.7-3.7.3-1.2.9-2.5 2.1-3.3.2-.1.4-.1.5.1 0 .1.1.1.1.2-.1 1.3-.4 2.3-.6 3.4-.2 1.1-.3 2.2-.4 3.4-.1 1.2-.1 2.3-.1 3.5v1.8c0 .6.2 1.2-.2 1.8v.1c-.2.4-.8.5-1.1.3-.1-.2-.1-.3-.2-.3z"/><path class="st1" d="M64.6 85.8c-1 .5-2 .3-3.1.4h-3.1c-2 0-4.1.1-6.1.1s-4.1 0-6.1-.1c-2 0-4.1-.1-6.1-.7-.2-.1-.3-.2-.2-.4 0-.1.1-.2.2-.2 2-.6 4.1-.7 6.1-.7 2-.1 4.1-.1 6.1-.1s4.1 0 6.1.1h3.1c1 .1 2-.1 3.1.4.4.2.5.6.4 1-.1 0-.2.1-.4.2zM48.2 43.7c-.4.3-.4.1-.7 0-.2-.1-.5-.1-.7-.1-.5-.1-1.1-.1-1.6-.1-.6 0-1.1 0-1.6.1s-1 .2-1.7 0h-.1c-.2-.1-.4-.3-.3-.5.2-.9 1-1.3 1.7-1.5.7-.2 1.4-.3 2.1-.4.7 0 1.4 0 2.1.2.3.1.7.2 1.1.3.3.2.9.2.9.9 0 .2-.1.5-.3.6l-.9.5z"/><circle class="st3" cx="30.2" cy="60.8" r="1.4"/><path class="st0" d="M193.5 59.7c5.7-.6 32.7-1.3 37 .1 0 0-2.9 18.3-17.9 18.2-15.2-.2-19.1-18.3-19.1-18.3z"/><path class="st1" d="M201.9 49.3c-1 0-1.9-.8-1.9-1.9v-3c0-1 .8-1.9 1.9-1.9 1 0 1.9.8 1.9 1.9v3c0 1-.9 1.9-1.9 1.9z"/><path class="st2" d="M213.4 45.6c.3 1.3.4 2.6.5 3.8 0 1.3 0 2.6-.3 3.8-.1.4-.5.7-.9.6-.3-.1-.5-.3-.6-.6-.3-1.3-.3-2.6-.3-3.8.1-1.3.2-2.6.5-3.8.1-.3.4-.4.6-.4.3.1.5.3.5.4z"/><path class="st1" d="M223.6 49.3c-1 0-1.9-.8-1.9-1.9v-3c0-1 .8-1.9 1.9-1.9 1 0 1.9.8 1.9 1.9v3c0 1-.9 1.9-1.9 1.9z"/><path class="st2" d="M208.2 62.1c.7.3 1.5.4 2.3.5.8.1 1.6.2 2.5.2.8 0 1.7 0 2.5-.1s1.6-.3 2.2-.6h.1c.3-.2.7 0 .9.3.1.3.1.6-.1.8-.8.8-1.8 1.1-2.7 1.3-.9.2-1.9.3-2.8.3-.9 0-1.9-.1-2.8-.4-.9-.2-1.9-.6-2.7-1.3-.3-.2-.3-.7-.1-.9 0-.2.3-.3.7-.1zM218.7 34.8c.7-.7 1.4-1 2.2-1.2.7-.2 1.5-.2 2.2-.2.7 0 1.5.1 2.2.4.7.2 1.4.6 2 1.2.3.3.3.7 0 .9-.2.2-.5.3-.7.1h-.1c-1-.4-2.3-.6-3.5-.6-.6 0-1.2 0-1.8.1-.6.1-1.2.2-1.6.3l-.2.1c-.3.1-.7-.1-.8-.4-.1-.3 0-.5.1-.7zM205.6 35.8c-.4-.1-1-.2-1.6-.3-.6-.1-1.2-.1-1.8-.1-1.2 0-2.5.2-3.5.6h-.1c-.3.1-.7 0-.9-.4-.1-.3 0-.6.1-.7.6-.6 1.3-.9 2-1.2.7-.2 1.5-.3 2.2-.4.7 0 1.5 0 2.2.2.7.2 1.5.4 2.2 1.2.2.3.2.7 0 .9-.2.2-.4.2-.7.1l-.1.1z"/><path class="st0" d="M235.1 40.4c-.3 3.6-.7 7.2-1.4 10.8-.7 3.6-1.7 7.1-3.3 10.4-1.6 3.3-3.9 6.4-7.2 8.4-1.6 1-3.3 1.8-5.2 2.2-1.8.5-3.7.7-5.6.7-3.7-.1-7.4-1.1-10.7-2.9-3.3-1.8-6.1-4.5-8-7.7-2-3.2-3.2-6.8-3.9-10.4-.4-1.8-.5-3.7-.6-5.5-.1-1.8-.1-3.6-.1-5.5.1-3.6.4-7.3 1.2-10.9.8-3.6 2-7.1 3.8-10.3 1.8-3.2 4.2-6.2 7.4-8.3 1.6-1 3.3-1.9 5.1-2.4 1.8-.5 3.7-.8 5.6-.8 3.8 0 7.5 1.2 10.6 3.1 3.2 2 5.8 4.7 7.7 7.8 2 3.1 3.3 6.6 4 10.2.8 3.8.9 7.5.6 11.1zm-1.3-.1c.2-3.5.1-7.1-.6-10.5-.7-3.4-2-6.8-3.8-9.7-1.9-3-4.4-5.5-7.3-7.3-2.9-1.8-6.4-2.8-9.8-2.8-1.7 0-3.4.3-5.1.8-1.6.5-3.2 1.3-4.6 2.3-2.8 1.9-5.1 4.7-6.8 7.7-1.7 3.1-2.8 6.4-3.5 9.9-.7 3.4-1 7-1.1 10.5 0 3.5.1 7.1.7 10.5.6 3.4 1.7 6.8 3.5 9.7 1.8 2.9 4.3 5.4 7.3 7.1 3 1.7 6.4 2.7 9.9 2.8 3.4 0 6.9-.7 9.8-2.6 2.9-1.8 5.1-4.6 6.7-7.7 1.6-3.1 2.6-6.6 3.3-10 .7-3.6 1.1-7.1 1.4-10.7z"/><path class="st9" d="M186.1 42.7c.1 1.1.2 2.3.2 3.5 0 1.2 0 2.4-.2 3.6-.1.4-.4.6-.8.5-.3-.1-.5-.2-.5-.5-.3-1.2-.4-2.4-.4-3.6 0-1.2.1-2.4.4-3.7.1-.4.5-.6.8-.4.3.1.5.3.5.6z"/><path class="st4" d="M210.2 41.6l.2 4v1c0 .4 0 .7-.1 1.1-.1.7-.3 1.5-.6 2.2-.6 1.4-1.7 2.6-3.1 3.3-.7.3-1.5.5-2.3.5h-4c-.8 0-1.6-.2-2.3-.6-1.5-.7-2.5-1.9-3.2-3.3-.3-.7-.5-1.4-.6-2.2-.1-.4 0-.8-.1-1.1v-1c.1-1.3.1-2.7.2-4 0-.4.3-.6.7-.6.3 0 .6.3.6.6.1 1.3.1 2.7.2 4v1c0 .3 0 .6.1.9.1.6.3 1.1.5 1.6.5 1 1.3 1.9 2.3 2.3.5.2 1 .3 1.5.3h4c.5 0 1.1-.1 1.5-.3 1-.5 1.8-1.3 2.3-2.3.3-.5.4-1.1.5-1.7.1-.3.1-.6.1-.9v-1l.2-4c0-.4.3-.7.7-.6.5.2.7.5.7.8zM232.1 42.2c.1 1.3.1 2.6.2 3.9 0 .6 0 1.4-.1 2.1-.1.7-.4 1.4-.7 2.1-.7 1.3-1.8 2.5-3.3 3.1-.7.3-1.6.4-2.3.4h-4c-.8-.1-1.6-.3-2.3-.6-1.4-.7-2.4-2-3-3.4-.3-.7-.5-1.4-.5-2.2v-2.1c.1-1.3.1-2.6.2-3.9 0-.4.3-.6.7-.6.3 0 .6.3.6.6.1 1.3.1 2.6.2 3.9v1c0 .3 0 .6.1.9.1.6.2 1.1.5 1.6.5 1 1.2 1.9 2.2 2.4.5.2 1 .4 1.5.4h3.9c.6 0 1.1-.1 1.6-.2 1-.4 1.8-1.2 2.4-2.1.3-.5.5-1 .6-1.6.1-.6.2-1.1.2-1.8.1-1.3.1-2.6.2-3.9 0-.4.3-.6.7-.6.1 0 .4.2.4.6z"/><path class="st0" d="M191.5 41.6l42 .5"/><path class="st6" d="M191.5 41c3.5-.1 7-.1 10.5-.1s7 0 10.5.1c3.5 0 7 .1 10.5.2s7 .2 10.5.4c.3 0 .6.3.6.7 0 .3-.3.6-.6.6-3.5.1-7 .1-10.5.1s-7 0-10.5-.1-7-.1-10.5-.2-7-.2-10.5-.4c-.3 0-.6-.3-.6-.7 0-.3.2-.6.6-.6zM188.7 88.9s11.9 9.3 22.8 9.3 19.9-8.6 19.9-8.6 25.1 8.3 33.5 31.4H159s9.7-21.4 29.7-32.1z"/><path class="st0" d="M221.9 78.6c.8.7.7 1.3.8 2 .1.7.1 1.3.1 2s0 1.3-.1 2 0 1.3-.8 2c-.1.1-.4.1-.5 0-.8-.7-.7-1.3-.8-2-.1-.7-.1-1.3-.1-2s0-1.3.1-2 0-1.3.8-2c.2-.2.4-.2.5 0z"/><path class="st0" d="M195.1 83.7c3 .5 5.7 1.8 8.4 3l8.1 3.6h-1c2.6-1.3 5.2-2.7 7.8-4 2.6-1.3 5.1-2.7 8.1-3.4.1 0 .3.1.3.2s0 .2-.1.2c-2.2 2.1-4.8 3.4-7.3 4.8s-5.1 2.8-7.7 4.2c-.3.2-.7.2-1 0-2.7-1.3-5.4-2.5-8-3.8-2.7-1.3-5.4-2.5-7.8-4.5-.1-.1-.1-.3 0-.4 0 .1.1 0 .2.1z"/><path class="st6" d="M357 85.4l-5.5 3 .9-41.6s.4 13.5 12.5 20.8l-.3 5.6c-.2 5.1-3.1 9.7-7.6 12.2zM390.1 99.8c18.9-2.8 6.2-45 5.9-62.9-.4-21.4-16.5-24.4-31-22.2 0 16.7 22.4 21.5 29.2 32.4 0 0-2.3 11.6-8.9 18.9 0 8.4-2 21.1 7.2 21.7 1.2 6-2.4 12.1-2.4 12.1z"/><path class="st4" d="M349.4 88.4l25.3 6.7 17.8-7.4s21.3 6.1 28.3 33.3h-93.1c.1 0 1.5-21.9 21.7-32.6z"/><path class="st1" d="M365 49.5c-1 0-1.9-.8-1.9-1.9v-3c0-1 .8-1.9 1.9-1.9 1 0 1.9.8 1.9 1.9v3c0 1.1-.8 1.9-1.9 1.9z"/><path class="st2" d="M376.6 43.1c.3 1.8.4 3.5.5 5.3 0 1.8 0 3.5-.3 5.3-.1.4-.4.7-.8.6-.3-.1-.6-.3-.6-.6-.3-1.8-.3-3.5-.3-5.3.1-1.8.2-3.5.5-5.3.1-.3.3-.5.6-.4.2 0 .3.2.4.4z"/><path class="st1" d="M386.7 49.5c-1 0-1.9-.8-1.9-1.9v-3c0-1 .8-1.9 1.9-1.9 1 0 1.9.8 1.9 1.9v3c0 1.1-.8 1.9-1.9 1.9zM370.7 59.8c1.5.5 2.9.8 4.4.9 1.5.1 2.8-.1 4.3-.7.2-.1.4 0 .5.2v.3c-.5.8-1.3 1.4-2.1 1.7-.9.4-1.8.5-2.7.5-.9 0-1.8-.2-2.7-.4-.8-.3-1.7-.7-2.3-1.3-.3-.2-.3-.7-.1-1 .1-.2.4-.3.7-.2z"/><path class="st2" d="M381 36c.7-.7 1.4-1 2.2-1.2.7-.2 1.5-.2 2.2-.2.7 0 1.5.1 2.2.4.7.2 1.4.6 2 1.2.3.3.3.7 0 .9-.2.2-.5.3-.7.1h-.1c-1-.4-2.3-.6-3.5-.6-.6 0-1.2 0-1.8.1-.6.1-1.2.2-1.6.3l-.2.1c-.3.1-.7-.1-.8-.4-.2-.3-.1-.5.1-.7z"/><path class="st1" d="M386 66c.3 2.6.5 5.2.5 7.8l.1 3.9.1 1.9c0 .6.1 1.1.2 1.7.6 2.2 2.2 4.1 4.3 4.9.5.2 1 .3 1.7.5.7.1 1.3.3 2 .5 1.3.4 2.6.8 3.8 1.4 4.9 2.3 8.9 6.1 12 10.4 3.1 4.3 5.5 9.1 6.6 14.3 0 .2-.1.4-.3.4-.2 0-.3 0-.4-.2-2.4-4.6-4.6-9.2-7.6-13.3-3.1-4-6.8-7.5-11.3-9.7-1.1-.5-2.3-1-3.4-1.3-.6-.2-1.2-.3-1.8-.4-.7-.1-1.4-.3-2.1-.6-2.7-1.1-4.8-3.6-5.5-6.4-.2-.7-.3-1.4-.3-2.1v-2l-.1-3.9c-.1-2.6-.1-5.2.1-7.8 0-.4.4-.6.7-.6.4 0 .7.3.7.6zM368 36.4c-.5.3-.7.1-1 .1-.3-.1-.6-.1-.9-.2-.6-.1-1.2-.1-1.8-.1-.6 0-1.2 0-1.7.2-.6.2-1.1.3-1.9.2-.2 0-.4-.2-.4-.5V36c.2-.9 1-1.4 1.7-1.6.7-.3 1.5-.4 2.3-.4.8 0 1.5.1 2.3.3.4.1.7.2 1.1.3.3.2.7.1.9.7 0 .3-.2.8-.6 1.1z"/><path class="st6" d="M369.6 14.3c-20.2 0-22.8 23.3-20.9 35.3s-7.1 30.8-7.2 40.6c-.1 7.3 8 9.7 14.2 9.7 14 0 9-26.7 9.3-32.2-11.1-3.1-12.1-22.8-12.1-22.8s20-17.4 16.7-30.6z"/><path class="st1" d="M353.6 44.8c.5 2.9.7 5.8 1.6 8.5.9 2.8 2.2 5.4 3.9 7.7 1.7 2.3 3.7 4.5 6 6.2 1.1.9 2.3 1.7 3.6 2.4 1.2.7 2.6 1.3 3.9 1.6.7.2 1.3.3 1.8.2.6-.1 1.2-.3 1.9-.5 1.3-.5 2.5-1.3 3.6-2.1 2.3-1.7 4.3-3.8 6.1-6.1 3.5-4.7 6-10 7.9-15.7.1-.2.2-.3.4-.2.2.1.2.2.2.4-.7 6-3.3 11.8-6.9 16.8-1.8 2.5-4 4.7-6.4 6.6-1.2 1-2.6 1.8-4.1 2.4-.8.3-1.6.6-2.5.7-.9.1-1.8-.1-2.6-.2-3.2-.9-5.8-2.5-8.3-4.4-2.4-1.9-4.6-4.2-6.4-6.7-1.8-2.5-3.2-5.4-4.1-8.3-.9-3-1.5-6.1-1-9.2.1-.4.4-.6.8-.6.3 0 .5.2.6.5z"/><circle class="st5" cx="351.9" cy="58.2" r="1.3"/><circle class="st5" cx="394.5" cy="58.2" r="1.3"/><path class="st9" d="M623.6 25v.5c-1.1-2.7-4.6-6.5-14.9-6.5-6 0-10.2 3-12.6 5.6v-.5c-7 4.7-6.9 18.4-6.9 18.4 2.6.1 6.7-6 8.9-11.6.6-1.5 2.3-2.6 4.3-2.6H617c2 0 3.8 1.1 4.3 2.6 2.1 5.7 6.2 12.6 8.9 12.5-.2.1.3-13.7-6.6-18.4zM619.9 78.6v-4.3c-7.2.8-13.5 2.1-19.1.8 0 0 8.7 3.6 19.1 3.5z"/><path class="st1" d="M599.7 55.3c-1 0-1.7-.8-1.7-1.7v-2.7c0-1 .8-1.7 1.7-1.7 1 0 1.7.8 1.7 1.7v2.7c0 .9-.8 1.7-1.7 1.7z"/><path class="st2" d="M610.3 49.4c.3 1.6.4 3.2.5 4.8 0 1.6 0 3.2-.3 4.8-.1.4-.4.7-.8.6-.3-.1-.6-.3-.6-.6-.3-1.6-.3-3.2-.3-4.8.1-1.6.2-3.2.5-4.8.1-.3.3-.5.6-.4.2 0 .3.2.4.4z"/><path class="st1" d="M619.5 55.3c-1 0-1.7-.8-1.7-1.7v-2.7c0-1 .8-1.7 1.7-1.7 1 0 1.7.8 1.7 1.7v2.7c.1.9-.7 1.7-1.7 1.7z"/><path class="st2" d="M605.5 64.4c.6.2 1.3.4 2.1.5.7.1 1.5.2 2.3.2.8 0 1.5 0 2.2-.1.7-.1 1.4-.2 2-.5h.1c.3-.2.7 0 .9.3.1.3.1.6-.1.8-.8.7-1.6 1-2.5 1.3-.9.2-1.7.3-2.6.3-.9 0-1.7-.1-2.6-.3-.8-.2-1.7-.6-2.5-1.2-.3-.2-.3-.7-.1-.9.1-.5.4-.6.8-.4zM615.1 42c.6-.7 1.3-.9 2-1.1.7-.2 1.4-.2 2-.2.7 0 1.4.1 2 .3.7.2 1.3.5 1.9 1.1.3.3.3.7 0 .9-.2.2-.5.2-.7.2h-.1c-.9-.4-2.1-.5-3.2-.5-.6 0-1.1 0-1.7.1-.5 0-1.1.1-1.4.2l-.2.1c-.3.1-.7-.1-.8-.4 0-.3 0-.6.2-.7zM603 43c-.4-.1-.9-.2-1.4-.2-.5 0-1.1-.1-1.7-.1-1.1 0-2.3.1-3.2.5h-.1c-.3.1-.7 0-.9-.4-.1-.3 0-.5.2-.7.6-.6 1.2-.9 1.9-1.1.7-.2 1.3-.3 2-.3s1.4 0 2 .2c.7.2 1.4.4 2 1.1.2.3.2.7 0 .9-.2.2-.4.2-.6.1h-.2z"/><path class="st9" d="M620.7 73.4c.2 1.5.3 2.9.3 4.4 0 1.5 0 2.9-.3 4.4-.1.4-.4.6-.8.5-.3-.1-.5-.3-.5-.5-.3-1.5-.3-2.9-.3-4.4 0-1.5.1-2.9.3-4.4.1-.4.4-.6.8-.6.3.1.5.3.5.6z"/><path class="st9" d="M630.2 47.2c-.2 3.3-.6 6.6-1.3 9.9-.7 3.3-1.6 6.5-3 9.6-1.5 3-3.6 5.9-6.6 7.8-1.5.9-3.1 1.6-4.7 2.1-1.7.4-3.4.7-5.1.6-3.4-.1-6.8-1-9.8-2.7-3-1.7-5.6-4.2-7.4-7.1-1.8-2.9-3-6.2-3.6-9.5-.3-1.7-.5-3.4-.5-5-.1-1.7-.1-3.3-.1-5 .1-3.3.4-6.7 1.1-10 .7-3.3 1.8-6.5 3.4-9.5 1.6-3 3.9-5.7 6.8-7.6 1.4-1 3-1.7 4.7-2.2 1.7-.5 3.4-.8 5.1-.8 3.5 0 6.9 1.1 9.8 2.9 2.9 1.8 5.3 4.3 7.1 7.2 1.8 2.9 3 6.1 3.6 9.4.6 3.2.7 6.5.5 9.9zm-1.4-.1c.5-6.4-.6-13.1-4.1-18.5-1.7-2.7-4-5-6.7-6.7-2.7-1.7-5.8-2.6-8.9-2.6-1.6 0-3.1.3-4.6.7-1.5.5-2.9 1.2-4.2 2.1-2.6 1.8-4.7 4.3-6.2 7-1.5 2.8-2.5 5.9-3.2 9-.7 3.2-.9 6.4-1 9.6 0 3.2.1 6.5.7 9.6.5 3.1 1.6 6.2 3.2 8.9s3.9 4.9 6.7 6.5c2.7 1.5 5.9 2.5 9 2.6 3.1 0 6.3-.7 8.9-2.4 2.7-1.6 4.7-4.2 6.1-7.1 1.4-2.9 2.3-6 3-9.2.7-3 1.1-6.3 1.3-9.5zM585.3 49.3c.1 1 .2 2.1.2 3.2s0 2.2-.2 3.3c-.1.4-.4.6-.8.5-.3-.1-.4-.2-.5-.5-.3-1.1-.4-2.2-.4-3.3 0-1.1.1-2.2.4-3.4.1-.4.5-.6.8-.4.3 0 .4.3.5.6z"/><path class="st0" d="M619.8 63.4c.2.5.3 1 .3 1.5s0 1-.3 1.5c-.2.4-.7.5-1 .3l-.3-.3c-.3-.5-.3-1-.3-1.5s.1-1 .3-1.5c.2-.4.6-.5 1-.4.1.1.2.2.3.4zM607.4 48.3c.1 1.2.1 2.4.2 3.7v.9c0 .3 0 .7-.1 1-.1.7-.2 1.4-.5 2-.6 1.3-1.6 2.4-2.9 3.1-.7.3-1.4.5-2.2.5h-3.6c-.8 0-1.5-.2-2.2-.5-1.4-.6-2.4-1.8-2.9-3.1-.3-.6-.5-1.3-.5-2V52c.1-1.2.1-2.4.2-3.7 0-.4.3-.6.7-.6.3 0 .6.3.6.6.1 1.2.1 2.4.2 3.7v.9c0 .3 0 .5.1.8.1.5.2 1 .5 1.5.5.9 1.2 1.7 2.1 2.1.4.2.9.3 1.4.3h3.6c.5 0 .9-.1 1.4-.3.9-.4 1.6-1.2 2.1-2.1.2-.5.4-1 .5-1.5.1-.3.1-.5.1-.8V52c0-1.2.1-2.4.2-3.7 0-.4.3-.6.7-.6 0 0 .3.2.3.6zM627.4 48.8c.1 1.2.1 2.4.2 3.6 0 .6 0 1.3-.1 2s-.3 1.3-.7 2c-.6 1.2-1.7 2.3-3.1 2.9-.7.3-1.5.4-2.1.4h-3.7c-.7 0-1.5-.3-2.1-.6-1.3-.7-2.3-1.8-2.8-3.1-.3-.6-.4-1.3-.5-2v-1.9c.1-1.2.1-2.4.2-3.6 0-.4.3-.6.7-.6.3 0 .6.3.6.6.1 1.2.1 2.4.2 3.6v.9c0 .3 0 .5.1.8.1.5.2 1 .4 1.5.4.9 1.1 1.7 2 2.1.4.2.9.3 1.3.4h3.5c.6 0 1 0 1.4-.2.9-.3 1.6-1 2.1-1.9.3-.4.4-.9.6-1.4.1-.5.1-1 .2-1.6.1-1.2.1-2.4.2-3.6 0-.4.3-.6.7-.6.4-.3.7-.1.7.3zM590.1 48.3l38.6.5"/><path class="st9" d="M590.1 47.6c3.2-.1 6.4-.1 9.6-.1h9.6c3.2 0 6.4.1 9.6.2 3.2.1 6.4.2 9.6.4.3 0 .6.3.6.7 0 .3-.3.6-.6.6-3.2.1-6.4.1-9.6.1-3.2 0-6.4 0-9.6-.1-3.2-.1-6.4-.1-9.6-.2l-9.6-.3c-.3 0-.6-.3-.6-.7 0-.3.3-.6.6-.6z"/><path class="st0" d="M610.7 97.1l-1.2-3-.6-1.5c-.2-.5-.4-.9-.6-1.3-.5-.7-1.3-1.3-2.2-1.5l-3.1-1.1-6.2-1.9-6.2-2 1.1-.5c-.4.9-.9 1.7-1.4 2.6-.5.9-1 1.7-1.5 2.6-.2.3-.6.4-.9.2-.3-.2-.4-.5-.3-.8.4-.9.7-1.8 1.1-2.7l1.2-2.7c.2-.4.7-.6 1.1-.5l6.3 1.9 6.2 2c1 .4 2.1.8 3.1 1.2 1.1.4 2.3 1.2 3 2.3.4.5.6 1.2.8 1.7l.5 1.6 1 3.1c.1.3-.1.7-.4.8-.3 0-.6-.2-.8-.5zM611.3 87.7c.9-.4 1.8-.7 2.7-1.1.9-.3 1.8-.7 2.8-1 1.8-.6 3.7-1.2 5.6-1.8.5-.1.9.1 1.1.5.4.9.8 1.8 1.2 2.6.4.9.8 1.8 1.1 2.7.1.3 0 .7-.4.9-.3.1-.6 0-.8-.3-.5-.8-1-1.6-1.5-2.5-.5-.8-.9-1.7-1.4-2.5l1.2.5c-1.8.6-3.7 1.2-5.6 1.7-.9.3-1.9.5-2.8.8-.9.3-1.9.5-2.8.7-.4.1-.7-.1-.8-.5-.1-.3.1-.6.4-.7z"/><path class="st3" d="M587.6 91.6s10.9 8.5 20.9 8.5c10 0 18.2-7.9 18.2-7.9s23 7.6 30.7 28.8h-97s8.8-19.6 27.2-29.4zM428.7 87.9c.6.1.9.4 1.3.6.4.2.8.5 1.3.6.5.2.9.4 1.4.5.5.1 1 .3 1.5.4 2 .4 4.1.5 6.2.5 2.1 0 4.2-.2 6.2-.5 2-.4 4-.8 5.9-1.6h.1c.2-.1.4 0 .4.2 0 .1 0 .2-.1.3-.4.4-.8.9-1.2 1.2-.2.2-.5.3-.7.5-.2.1-.5.3-.8.4-1 .5-2.1.8-3.2 1-2.2.5-4.4.7-6.6.7-2.2 0-4.4-.2-6.6-.7-.5-.1-1.1-.3-1.6-.4-.5-.1-1.1-.4-1.6-.6-1-.5-2.2-1-2.8-2.2-.2-.3 0-.7.3-.9.1-.1.3-.1.4-.1l.2.1z"/><path class="st3" d="M421.9 92.1l19.4 10.1 18.1-9.9s25.5 3.9 31.4 28.8h-95.6c0-.1 0-19.6 26.7-29z"/><path class="st11" d="M451.5 79.9l-1-6.3c-3.4 3.2-13.4 4.5-20.5 1.1 0-.1 9.5 5.6 21.5 5.2z"/><path class="st1" d="M430 55.8c-1 0-1.7-.8-1.7-1.7v-2.7c0-1 .8-1.7 1.7-1.7 1 0 1.7.8 1.7 1.7V54c.1 1-.7 1.8-1.7 1.8zM440.8 51.8c.5.3.3.6.4.9l.1.9c0 .6.1 1.2 0 1.8 0 .6 0 1.2-.1 1.8 0 .6-.1 1.2-.7 1.8-.2.2-.5.2-.7 0-.6-.6-.7-1.2-.7-1.8 0-.6-.1-1.2-.1-1.8v-1.8l.1-.9c.1-.3-.1-.6.4-.9.4-.3.9-.3 1.3 0zM449.9 55.8c-1 0-1.7-.8-1.7-1.7v-2.7c0-1 .8-1.7 1.7-1.7 1 0 1.7.8 1.7 1.7V54c.1 1-.7 1.8-1.7 1.8zM435.8 64.8c.5-.2.7 0 1.1.1.3.1.7.2 1.1.2.7.1 1.5.2 2.2.2.7 0 1.5 0 2.2-.1.7-.1 1.3-.2 2.2-.1h.1c.2 0 .4.2.4.4v.1c-.2.5-.6.9-1 1.2-.4.3-.9.4-1.3.5-.9.2-1.8.3-2.6.3-.9 0-1.7-.1-2.6-.3-.4-.1-.9-.2-1.3-.4s-1-.3-1.1-.9c-.1-.4.1-.8.5-1l.1-.2zM445.5 42.5c.1-.7.6-.7.9-.9.4-.1.7-.2 1.1-.3.7-.1 1.4-.2 2.1-.2.7 0 1.4.1 2.1.4.7.2 1.4.6 1.7 1.5.1.2-.1.5-.3.5h-.1c-.8.2-1.2.1-1.7 0s-1.1-.1-1.6-.1c-.6 0-1.1 0-1.6.1-.3 0-.5.1-.7.1-.3 0-.3.2-.7 0l-.6-.4c-.6-.3-.7-.5-.6-.7z"/><path class="st11" d="M460.6 47.6c-.1 3.3-.4 6.6-1 9.8-.6 3.3-1.5 6.5-3 9.5s-3.6 5.8-6.5 7.7c-2.9 1.9-6.3 2.8-9.7 2.9-3.4 0-6.8-.9-9.8-2.5-3-1.6-5.7-4-7.5-6.8-1.9-2.8-3.1-6.1-3.7-9.4-.6-3.3-.7-6.7-.7-10 .1-6.6 1.1-13.4 4.3-19.4 1.6-3 3.8-5.7 6.6-7.7s6.2-3.1 9.6-3.1c3.4 0 6.8 1 9.7 2.8 2.9 1.8 5.3 4.2 7.2 7 3.4 5.7 4.8 12.6 4.5 19.2zm-1.4 0c.2-6.4-1.1-13-4.6-18.3-1.8-2.6-4.1-4.9-6.8-6.5-2.7-1.6-5.8-2.5-8.9-2.5-3.1 0-6.2 1.1-8.7 2.9-2.5 1.8-4.5 4.4-6 7.1-2.9 5.7-3.8 12.2-3.9 18.6 0 3.2.1 6.5.7 9.6.6 3.1 1.7 6.1 3.4 8.7 3.3 5.3 9.5 8.5 15.8 8.6 3.1 0 6.3-.8 8.9-2.5 2.6-1.7 4.6-4.2 6.1-7 1.4-2.8 2.3-5.9 3-9.1.5-3.2.9-6.4 1-9.6z"/><path class="st1" d="M433.4 43.5c-.4.3-.4.1-.7 0-.2-.1-.5-.1-.7-.1-.5-.1-1.1-.1-1.6-.1-.6 0-1.1 0-1.6.1s-1 .2-1.7 0h-.1c-.2-.1-.4-.3-.3-.5.2-.9 1-1.3 1.7-1.5.7-.2 1.4-.3 2.1-.4.7 0 1.4 0 2.1.2.3.1.7.2 1.1.3.3.2.9.2.9.9 0 .2-.1.5-.3.6l-.9.5z"/><path class="st11" d="M459 53c-.1.4 0 .3 0 0z"/><path class="st11" d="M448.4 21.6c-2.9-1-6.8-1.9-11.7-2-13.1-.2-18.4 20.4-17.5 31.8l-3 33.6h14.1l1.2-10.4s-10.6-3.2-12-21c10.5-4 14.3-15.3 14.3-15.3s14.9 1.8 19.4-7.5c.6 1 1.2 2 1.8 3.1 4 7.3 4 17.2 3.9 19 .4-.7.7-1.4 1-2.1-2.2 17.3-11.6 24.8-11.6 24.8L450 85l11.7.1-1.4-34.8c12.1-26.2-3.4-27.5-11.9-28.7z"/><path class="st5" d="M442.2 99.6c.2 1.8.2 3.6.3 5.4 0 1.8.1 3.6 0 5.4 0 1.8 0 3.6-.1 5.4 0 1.8-.1 3.6-.2 5.4 0 .4-.3.6-.7.6-.3 0-.6-.3-.6-.6-.1-1.8-.2-3.6-.2-5.4-.1-1.8-.1-3.6-.1-5.4V105c.1-1.8.1-3.6.3-5.4 0-.4.4-.6.7-.6.3 0 .6.3.6.6z"/></svg>