<svg id="Layer_1" xmlns="http://www.w3.org/2000/svg" viewBox="0 0 148.2 187.1"><style>.st0{fill:#CCCED0;} .st1{fill:#0985C2;} .st2{fill:#A7C1D1;} .st3{fill:#025182;} .st4{fill:#86A7BE;} .st5{fill:none;stroke:#045186;stroke-width:2;stroke-linecap:round;stroke-linejoin:round;stroke-miterlimit:10;} .st6{fill:#045186;} .st7{fill:none;stroke:#F6F6F6;stroke-width:2;stroke-linecap:round;stroke-linejoin:round;stroke-miterlimit:10;}</style><circle class="st0" cx="76.3" cy="115.2" r="71.9"/><path class="st1" d="M107 94.8l.3 36 6.2-.9s-8.8-11.3-19.1-12.2-18-3-18-3-9.2 9.3-8.4 13.1c.9 3.9 28.8 29.1 41.5 19.4 15.6-12 14.3-44.2 2.9-61.7-8.4-13-21.6-13.1-21.6-13.1L107 94.8z"/><path class="st1" d="M35.7 108.8S28.4 82 56.1 73.5c24.4-7.5 24.9-1.4 32-1.3 11.1.1 20.3 14.4 22.3 32.2 3.4 29.6-4.6 49.2-4.6 49.2L99.1 141s-27.6-8.2-30.1-15.2 8.3-22.3 8.3-22.3l-41.6 5.3z"/><path class="st2" d="M20 86.4s-8.9-13-12.2-11c-3.3 2-7.5 9-6.2 11.9s14.6 5.8 14.6 5.8l3.8-6.7z"/><path class="st3" d="M36.3 48.8l-3.5 5.6-6.1-3.8 3.9-6.2c-3.1-.5-6.5 1-8.9 3.5-3.3 3.3-2.4 7.6.1 10.8L0 93.3l6.1 3.8 21.6-34.3c3 .9 6.2.5 8.4-1.9 2.5-2.9 2.2-8.3.2-12.1z"/><path class="st2" d="M6.4 76.5s-6.8 6.2-4.8 10.8c2 4.6 6.4 1.5 7.7.3 2.8-2.7-.2-9.2-.2-9.2l-2.7-1.9zM13.7 87.7s-1.1-2.2 0-5c.5-1.2-2.6-5.7-1.1-6s5 6.7 5 6.7"/><path class="st1" d="M47.1 107.6s-3.6-4-7.7-8.9-19-12.4-19-12.4-6 6.7-6.2 7.6c-.2.9 4.5 11.1 13.1 19.1 10.9 10.3 17.9 10.7 17.9 10.7l1.9-16.1z"/><path class="st3" d="M104.8 120.1c.1-11.1-4.2-28.3-4.2-28.3s-12.6 2-27.4 2.8c-17.1.9-23.8-5-23.8-5s-6.2 9.1-6.1 20.9c.2 17.4 6.4 26.9 6.4 26.9s-15.6 21.3-12.3 38.3c11.2 7.2 24.6 11.4 38.9 11.4 16.1 0 31-5.3 43-14.3-.5-16.8-17.2-36.3-17.2-36.3s2.6-8.9 2.7-16.4zM85.9 58.3s4.3 5.5 11.4.7c7.1-4.8 5-15.3 5-15.3s6-3.1 2.6-8.5S88.6 34 88.6 34l-2.7 24.3zM54.5 55.1s-12.1.7-14.5-11.8 10.4-14.6 16.9-9.8-2.4 21.6-2.4 21.6z"/><path class="st2" d="M59 73.2c0-2.5 21.8-5.2 29.1-1.1 0 0-4.4 14.4-15.1 15 0 .1-14.1-5-14-13.9z"/><path class="st2" d="M62 55.5h23.5v24H62v-24z"/><path class="st2" d="M87.4 26.5c6.1 13.2 4.8 38.6-16.1 38.6S49.1 39.7 55.2 26.5"/><path class="st4" d="M62 63.7v7.1s12.8-1.3 17.7-7.2l-8.2 1.5-9.5-1.4z"/><path class="st5" d="M87.4 26.5c6.1 13.2 4.8 38.6-16.1 38.6S49.1 39.7 55.2 26.5"/><path class="st3" d="M70.4 52.3c.4.1.8-.2.9-.6.3-1.5.3-2.9.3-4.4-.1-1.5-.2-2.9-.5-4.4 0-.2-.2-.3-.5-.4-.3 0-.5.1-.6.4-.3 1.5-.4 2.9-.5 4.4 0 1.5 0 2.9.3 4.4.1.3.3.5.6.6zM87.7 72.4c-1.4 3.4-2.8 6.7-5.1 9.4s-5.6 4.3-9 4.2c-1.7 0-3.4-.4-4.9-1-1.5-.7-2.9-1.8-4-3.1-1.2-1.3-2.1-2.8-2.9-4.4-.8-1.6-1.2-3.3-2.2-4.9-.2-.3-.4-.4-.6-.2-.4 0-.7.3-.7.7 0 2 .8 3.7 1.7 5.5.8 1.7 1.8 3.4 3.2 4.9 1.2 1.5 2.8 2.8 4.6 3.6.9.4 1.8.8 2.8 1 1 .2 2 .3 3 .3 2 0 4-.4 5.9-1.6 1.9-.9 3.4-2.2 4.7-3.8 2.5-3 3.9-6.7 4.2-10.5 0-.1-.1-.2-.2-.3-.2-.1-.4 0-.5.2z"/><path class="st6" d="M62.4 47.3c-.9 0-1.6-.7-1.6-1.5v-2.5c0-.8.7-1.5 1.5-1.5h.1c.8 0 1.5.7 1.5 1.5v2.5c0 .8-.7 1.5-1.5 1.5zm16.2 0c-.9 0-1.6-.7-1.6-1.5v-2.5c0-.8.7-1.5 1.5-1.5h.1c.8 0 1.5.7 1.5 1.5v2.5c0 .8-.7 1.5-1.5 1.5z"/><path class="st3" d="M68.2 56c.8.5 1.7.8 2.7.8s1.9-.2 2.6-.9h.1c.3-.3.7-.2 1 0 .2.2.2.5.1.7-.3.7-.9 1.3-1.6 1.7s-1.4.5-2.2.5c-.7 0-1.5-.1-2.1-.5-.7-.3-1.3-.8-1.7-1.5-.2-.3 0-.7.3-.9.3-.1.5-.1.8.1zm-4.6-19.2h-1.3c-.5 0-1 .1-1.5.1-1 .1-2 .4-2.8.8h-.1c-.3.2-.7 0-.9-.3-.1-.2-.1-.5.1-.7.4-.6 1-1 1.6-1.2.6-.3 1.2-.4 1.8-.5.6-.1 1.2-.1 1.9-.1.6.1 1.3.2 2 .8.3.2.3.6.1.9-.1.2-.3.2-.5.2h-.4zm11.9-1.1c.7-.6 1.3-.7 2-.8.6-.1 1.3 0 1.9.1.6.1 1.2.3 1.8.5.6.3 1.2.7 1.6 1.2.2.3.2.7-.1.9-.2.2-.5.2-.7.1h-.1c-.8-.4-1.8-.6-2.8-.8-.5-.1-1-.1-1.5-.1H76c-.4 0-.7-.2-.7-.6-.1-.1 0-.3.2-.5z"/><path class="st7" d="M64.4 48.9h-6c-1.5 0-2.8-1.4-2.9-3.2l-.3-3.7c-.1-.9.5-1.7 1.3-1.7h9.9c.8 0 1.3.8 1.3 1.7l-.3 3.7c-.3 1.8-1.5 3.2-3 3.2zm17.6 0h-6c-1.5 0-2.8-1.4-2.9-3.2l-.3-3.7c-.1-.9.5-1.7 1.3-1.7H84c.8 0 1.3.8 1.3 1.7l-.3 3.7c-.2 1.8-1.5 3.2-3 3.2zm-14.4-7h5.1"/><path class="st3" d="M54.8 19.2c1 13.2 7.8 26.7 35.7 25.3 0 0 7-28.4-14.8-29.4"/><path class="st1" d="M48.2 25.3S30.4 38.8 66.5 38.7c48.4-.1 29.3-13.8 29.3-13.8l-47.6.4z"/><path class="st1" d="M47.9 28.9S51.3 2.2 72.7 3c24.3.9 23.9 26.5 23.9 26.5"/><path class="st3" d="M47.7 28.9c.3-3.3 1.1-6.6 2.3-9.7 1.2-3.1 2.8-6.2 4.9-8.8 2.1-2.6 4.8-4.9 8-6.3 3.1-1.4 6.6-2 10-1.8 3.4.2 6.8.8 9.9 2.2 1.6.7 3 1.6 4.4 2.6 1.4 1 2.6 2.3 3.7 3.6 2.1 2.7 3.7 5.8 4.6 9 1 3.2 1.4 6.6 1.4 9.9h-.6c-.2-3.3-.8-6.5-1.9-9.6-1.1-3.1-2.5-6-4.6-8.4-1-1.2-2.2-2.3-3.5-3.3-1.3-.9-2.7-1.8-4.1-2.4-2.9-1.3-6.1-1.9-9.4-2-3.2-.1-6.4.3-9.3 1.6-2.9 1.3-5.4 3.3-7.5 5.8-2.1 2.5-3.7 5.3-5 8.3-.7 1.5-1.2 3-1.7 4.6-.5 1.6-.9 3.2-1.3 4.8l-.3-.1z"/><path class="st1" d="M51.5 26.7s8.3-6.4 10.6-11.6c2.3-5.2 5.3-14.4 9.1-14s2.3 11.5 6.5 17c3 3.9 8.9 9.3 8.9 9.3"/><path class="st3" d="M51.4 26.6c2-1.8 3.9-3.7 5.7-5.7 1.8-2 3.5-4 4.5-6.4 1-2.5 2-5 3.1-7.5.6-1.2 1.2-2.5 2-3.7.4-.6.8-1.2 1.4-1.7.5-.5 1.2-1 2.1-1.3.4-.1.9-.1 1.4 0 .5.1.9.4 1.3.7.7.7.9 1.4 1.2 2.1.5 1.4.7 2.7.9 4.1.4 2.7.9 5.3 1.8 7.8.5 1.2 1 2.3 1.9 3.3.8 1 1.7 2.1 2.6 3.1 1.8 2 3.7 3.9 5.6 5.8l-.4.4c-2.1-1.7-4.1-3.6-6-5.5-1-1-1.9-2-2.8-3-.9-1-1.7-2.3-2.2-3.6-1.1-2.6-1.5-5.4-2-8-.2-1.3-.5-2.6-.9-3.8-.2-.6-.5-1.1-.8-1.4-.2-.2-.3-.2-.5-.3h-.6c-.9.2-1.8 1.2-2.5 2.3-.7 1.1-1.3 2.2-1.9 3.4-1.2 2.4-2.2 4.9-3.3 7.4-1.2 2.6-3.1 4.7-5 6.6-2 1.9-4.1 3.6-6.3 5.2l-.3-.3z"/><g><path class="st3" d="M50.5 30.1c3.1-1 6.3-1.6 9.5-1.9l4.8-.3c1.6 0 3.2-.1 4.8 0 1.6 0 3.2.2 4.8.3 1.6.2 3.2.3 4.8.7 3.2.5 6.3 1.4 9.3 2.5l-.2.6c-3.1-.6-6.2-1.2-9.4-1.6-1.6-.2-3.1-.4-4.7-.5-1.6-.1-3.2-.2-4.7-.2-3.2-.1-6.3-.1-9.5.1s-6.3.4-9.5.7v-.4z"/></g><g><path class="st1" d="M105.2 160.9c.1 1.2-.4 2.5-1.1 3.5-.7 1-1.7 1.8-2.8 2.4-1.1.6-2.3.9-3.5 1.1-.6.1-1.2.1-1.8.2-.6 0-1.2 0-1.8-.1v-.4c.6-.1 1.2-.2 1.7-.3l1.7-.4c1.1-.3 2.2-.6 3.1-1.2 1-.5 1.9-1.2 2.6-2 .7-.8 1.3-1.8 1.7-2.9l.2.1z"/></g><g><path class="st3" d="M56.6 73.2c-.3 2.3-.8 4.5-1.4 6.6-.3 1.1-.6 2.1-.9 3.2-.3 1.1-.6 2.1-.8 3.2-.5 2.1-1 4.2-1.2 6.4-.3 2.1-.4 4.2-.3 6.4l-1.2.3c-1.1-2.1-1.5-4.6-1.5-7 0-2.4.3-4.7.8-7s1.3-4.5 2.2-6.6c.4-1.1 1-2.1 1.6-3.1.6-1 1.3-1.9 2.2-2.8l.5.4z"/></g><g><path class="st3" d="M91 72.3c1 .9 1.7 2 2.3 3.1.6 1.1 1.1 2.3 1.5 3.5.8 2.4 1.4 4.8 1.8 7.2.4 2.5.6 4.9.8 7.4.1 2.5.1 4.9-.3 7.4l-1.1.1c-.4-1.2-.6-2.4-.8-3.6l-.6-3.6c-.4-2.4-.8-4.8-1.2-7.1-.4-2.4-.8-4.7-1.4-7-.5-2.3-1-4.6-1.4-7.1l.4-.3z"/></g><path class="st1" d="M100.6 91.8s-1.9 4.6-1.1 14.4c1.3 15.6 6.8 22.9 6.8 22.9l2.4-14.1-3.2-26.1-4.9 2.9z"/><path class="st1" d="M99.5 134.9c-3.3 10.2-2.9 14.1-2.9 14.1s3.4 2.1 7.9 2.8 10.1-10.5 10.1-10.5l-6.3-20.2s-6.2 5.8-8.8 13.8z"/><path class="st3" d="M39.3 98.6c.1-.5-.2-1-.5-1.3-.3-.4-.6-.7-1-1-.3-.3-.7-.6-1.1-.9l-.6-.4c-.2-.2-.3-.3-.7-.2-.2.1-.4.4-.5.6v.1c.1.4.3.4.5.6l.5.4c.4.3.7.6 1 .9l.9.9c.3.2.6.6 1.1.7h.1c.2-.1.3-.2.3-.4z"/></svg>