<svg id="Layer_1" data-name="Layer 1" xmlns="http://www.w3.org/2000/svg" viewBox="0 0 199.11 200.73"><defs><style>.cls-1,.cls-8{fill:#fff}.cls-1{stroke:#c8d6db}.cls-1,.cls-10{stroke-linecap:round;stroke-linejoin:round}.cls-1{stroke-width:2px}.cls-2{fill:#c8d6db}.cls-3{fill:#195084}.cls-5{fill:#185081}.cls-7{fill:#76cbdf}.cls-10{fill:none;stroke:#85a6bd;stroke-width:1.13px}</style></defs><title>relaxed</title><path class="cls-1" d="M453.92 533.46a1.87 1.87 0 0 0 1.4 2.61l16 3.51a2.85 2.85 0 0 0 3.18-1.58 1.87 1.87 0 0 0-1.4-2.61l-16-3.51a2.85 2.85 0 0 0-3.14 1.62z" transform="translate(-282.89 -449.52)"/><path class="cls-1" d="M453.92 533.46a1.87 1.87 0 0 0 1.4 2.61l16 3.51a2.85 2.85 0 0 0 3.18-1.58 1.87 1.87 0 0 0-1.4-2.61l-16-3.51a2.85 2.85 0 0 0-3.14 1.62z" transform="translate(-282.89 -449.52)"/><path class="cls-1" d="M454.91 579.38h-57.13a7.39 7.39 0 0 1-7.38-7l1.93-36.24a7.39 7.39 0 0 1 7.38-7.81h57.12a7.39 7.39 0 0 1 7.38 7l-1.93 36.24a7.39 7.39 0 0 1-7.37 7.81z" transform="translate(-282.89 -449.52)"/><path class="cls-1" d="M452.53 598.06c1.7-17 7.31-29.5 14-29.5 8 0 14.5 18.06 14.5 40.34s-6.49 40.34-14.5 40.34" transform="translate(-282.89 -449.52)"/><path class="cls-2" d="M411.17 498v-4c-5.08.87-9.59 1.3-13.53 0s6.2 4.12 13.53 4z" transform="translate(-282.89 -449.52)"/><rect class="cls-3" x="113.62" y="25.94" width="2.46" height="4.38" rx="1.23" ry="1.23"/><path d="M425.25 478.61c-.56-6.36 1.57-9.37-1.69-18.56-2.06-5.8-12.07-12.47-22.36-10-11.12 1.52-15.84 11.56-15.84 22.86 0 15.13-9.16 14.72-9.16 25.32s7.33 12.2 7.33 12.2a18.59 18.59 0 0 0 7.35-.39v-5.26a6.34 6.34 0 0 0 5.54-5.52l.65-5.26c-6.2-1.06-7.88-19.66-7.88-19.66 11.88.8 14.49-8 17.19-13.25a24 24 0 0 0 6.49 7c6.77 5.08 6.2 14.43 3.38 19.74-2.66 5-5.66 5.6-5.66 5.6l.2 5.92a5.45 5.45 0 0 0 4.67 5.21l1.35.19v5.39h5.48s5.36-2.65 8-10.34-4.7-17.3-5.04-21.19z" transform="translate(-282.89 -449.52)" fill="#85a6bd"/><path class="cls-5" d="M389.75 474l.08 2.51c.06.79.1 1.74.21 2.84l.2 1.74.32 1.9c.14.65.31 1.33.49 2a17.51 17.51 0 0 0 .76 2.06 10.26 10.26 0 0 0 2.66 3.75 10.5 10.5 0 0 0 4.33 2.3 21 21 0 0 0 5.2.71h1.31l1.36-.07a8.26 8.26 0 0 0 1.29-.16 8.78 8.78 0 0 0 1.24-.24 9 9 0 0 0 4.25-2.28 9.84 9.84 0 0 0 2.39-3.89 20.59 20.59 0 0 0 1-4.16c.2-1.33.28-2.57.36-3.66s.11-2.06.13-2.86l.06-2.5a.5.5 0 0 1 1 0v5.42a36.93 36.93 0 0 1-.27 3.78 21.9 21.9 0 0 1-1 4.45 10.87 10.87 0 0 1-2.69 4.46 10.49 10.49 0 0 1-4.9 2.69 10.22 10.22 0 0 1-1.41.28 9.92 9.92 0 0 1-1.41.18l-1.36.06h-1.43a22.39 22.39 0 0 1-5.56-.79 11.94 11.94 0 0 1-4.88-2.64 11.56 11.56 0 0 1-2.93-4.27 18.82 18.82 0 0 1-.78-2.24c-.18-.74-.34-1.45-.48-2.14l-.29-2-.15-1.79c-.08-1.12-.09-2.11-.13-2.92v-2.51a.5.5 0 0 1 1 0z" transform="translate(-282.89 -449.52)"/><path class="cls-5" d="M405.29 475.63s.1.43.19 1.07a22.61 22.61 0 0 1 .19 2.35 20.74 20.74 0 0 1-.06 2.35 10.51 10.51 0 0 1-.14 1.07.55.55 0 0 1-1.09 0 10.52 10.52 0 0 1-.14-1.07 20.77 20.77 0 0 1-.06-2.35 22.61 22.61 0 0 1 .19-2.35c.09-.64.19-1.07.19-1.07a.39.39 0 0 1 .75 0z" transform="translate(-282.89 -449.52)"/><rect class="cls-3" x="127.72" y="25.94" width="2.46" height="4.38" rx="1.23" ry="1.23"/><path class="cls-5" d="M401.84 486.22l.28.11c.16 0 .34.07.63.14a17.51 17.51 0 0 0 2.17.22 10.64 10.64 0 0 0 2.15-.13 4.12 4.12 0 0 0 .62-.17l.21-.09h.13a.49.49 0 0 1 .5.82l-.28.25a4 4 0 0 1-.81.45 6.91 6.91 0 0 1-1.19.31 10.27 10.27 0 0 1-1.36.09 7 7 0 0 1-2.52-.47 3.74 3.74 0 0 1-.46-.22c-.14-.08-.28-.16-.36-.22l-.23-.2a.51.51 0 0 1-.06-.72.51.51 0 0 1 .58-.17zM408.69 470.36a1.53 1.53 0 0 1 .16-.18c.08-.06.2-.15.32-.22a2.28 2.28 0 0 1 .37-.18 4.18 4.18 0 0 1 .93-.26 4.82 4.82 0 0 1 1.07-.06 7.71 7.71 0 0 1 1.07.13 5.43 5.43 0 0 1 .91.32 2.82 2.82 0 0 1 .82.57.5.5 0 0 1-.5.83h-.1l-.17-.06a3.21 3.21 0 0 0-.48-.12 8.2 8.2 0 0 0-1.59-.16 13.52 13.52 0 0 0-1.59.08H409.5l-.21.09a.51.51 0 0 1-.62-.77zM400.13 471.16l-.21-.09H399.51a13.52 13.52 0 0 0-1.59-.08 8.2 8.2 0 0 0-1.59.16 3.22 3.22 0 0 0-.48.12l-.17.06h-.09a.5.5 0 0 1-.59-.33.51.51 0 0 1 .11-.47 2.82 2.82 0 0 1 .82-.57 5.43 5.43 0 0 1 .91-.32 7.71 7.71 0 0 1 1.07-.13 4.82 4.82 0 0 1 1.07.06 4.18 4.18 0 0 1 .93.26 2.28 2.28 0 0 1 .37.18c.12.07.24.16.32.22a1.52 1.52 0 0 1 .16.18.51.51 0 0 1-.13.72.52.52 0 0 1-.5.03z" transform="translate(-282.89 -449.52)"/><path d="M455.18 553.28s-3.68-42.29-37.7-48.5c0 0-5.47 7.9-14 7.9s-12.77-7.9-12.77-7.9c-34 10.71-32.18 49.06-32.18 49.06h21.22l-.57 32.71h55.28L433 553.73z" transform="translate(-282.89 -449.52)" fill="#1aa1c8"/><circle class="cls-7" cx="121.18" cy="69.81" r="1.28"/><path class="cls-8" d="M394.81 552.71h-3.38c-5.64 0-6.77-19.17-6.77-19.17h17.48s-2.25 19.17-7.33 19.17z" transform="translate(-282.89 -449.52)"/><path class="cls-8" d="M437.67 588.8c-19.17 0-26.5-32.14-26.5-32.14a19.32 19.32 0 0 1-6.77-2.82c-3-2-3.38-6.2-3.38-6.2a28.68 28.68 0 0 0-8.46.56c-1.33.34-1.69-.56-2.26-2.26s.56-3.95 3.38-4.51c10-5.64 12.75-1.68 14.66 0 4.51 3.95 26.5 21.43 26.5 21.43" transform="translate(-282.89 -449.52)"/><path class="cls-2" d="M398 486.65a1.08 1.08 0 0 1 0-.29 1.79 1.79 0 0 1 .11-.58 2 2 0 0 1 .3-.51 1.3 1.3 0 0 1 .21-.2l.44.17a1.3 1.3 0 0 1 0 .29 2 2 0 0 1-.11.58 1.79 1.79 0 0 1-.3.51 1.08 1.08 0 0 1-.22.2zM411.54 486.82a1.08 1.08 0 0 1-.22-.2 1.79 1.79 0 0 1-.3-.51 2 2 0 0 1-.11-.58 1.3 1.3 0 0 1 0-.29l.44-.17a1.3 1.3 0 0 1 .21.2 2 2 0 0 1 .3.51 1.79 1.79 0 0 1 .11.58 1.08 1.08 0 0 1 0 .29z" transform="translate(-282.89 -449.52)"/><path fill="none" stroke-linecap="round" stroke-linejoin="round" stroke="#c8d6db" d="M130.54 113.35l9.02-8.46"/><path class="cls-7" d="M57 133.08h43.42a3.95 3.95 0 0 1 3.95 3.95H57v-3.95z"/><path class="cls-7" d="M356.79 586.55h-65.25l-5.78-41.81a6.37 6.37 0 0 1 6.31-7.25h52.37a6.37 6.37 0 0 1 6.31 5.5z" transform="translate(-282.89 -449.52)"/><path class="cls-8" d="M162.68 137.03h18.35v13.16"/><path class="cls-2" d="M445.57 586.13a57 57 0 0 1 9.18-.62q4.59-.09 9.18 0a1.06 1.06 0 0 1 1 1.07l-.07 6.58c0 1.1 0 2.19-.1 3.29s-.12 2.19-.24 3.29a.67.67 0 0 1-1.33 0c-.12-1.1-.18-2.19-.24-3.29s-.07-2.19-.1-3.29l-.07-6.58 1.07 1.07q-4.59.06-9.18 0a57 57 0 0 1-9.18-.62.43.43 0 0 1 0-.84z" transform="translate(-282.89 -449.52)"/><path class="cls-8" d="M162.68 133.15l4.26-1.5 1.87-4.66-6.13-3.67-9.23 1.66-2.17 6.84 11.4 1.33zM.76 150.19v-13.16h145"/><path class="cls-2" d="M283.23 599.71l-.2-6.58c-.08-2.19-.1-4.39-.14-6.58a.75.75 0 0 1 .73-.76c6-.14 12.08-.15 18.12-.22l18.12-.05 36.25-.05 36.25.08 18.13.12 9.06.07 9.06.15a.67.67 0 0 1 0 1.33l-9.06.15-9.06.07-18.12.12-36.25.08-36.25-.05-18.12-.05c-6-.07-12.08-.08-18.12-.22l.76-.76c0 2.19-.07 4.39-.14 6.58l-.2 6.58a.42.42 0 0 1-.84 0z" transform="translate(-282.89 -449.52)"/><path class="cls-5" d="M392.95 541.15l.44-.36a11.69 11.69 0 0 1 1.34-.95 7.71 7.71 0 0 1 1.05-.59 9.32 9.32 0 0 1 1.3-.56 12.17 12.17 0 0 1 3.36-.72 12.47 12.47 0 0 1 4.08.39 12.09 12.09 0 0 1 4.2 2l3.53 2.91 3.64 3 13.4 11c3.65 3 6 5.14 6 5.14a.67.67 0 0 1-.83 1s-2.62-1.77-6.35-4.67c-1.88-1.43-4-3.16-6.35-5l-7.27-5.74-3.64-3c-1.19-1-2.41-2-3.46-2.93a10 10 0 0 0-3.41-1.71 12.3 12.3 0 0 0-3.47-.47 13.75 13.75 0 0 0-3 .34 16.28 16.28 0 0 0-2.26.67 12.13 12.13 0 0 0-1.45.61l-.53.23a.34.34 0 0 1-.35-.57z" transform="translate(-282.89 -449.52)"/><path class="cls-5" d="M391.72 547.59a9.61 9.61 0 0 1 1-.57 7.61 7.61 0 0 1 1.19-.46 10.42 10.42 0 0 1 2.45-.48 12.14 12.14 0 0 1 2.49.05c.41.05.82.12 1.23.21l.61.15c.21.06.4.11.64.2a1 1 0 0 1 .64.8v.05c0 .22.08.52.14.78s.13.54.21.81a9.46 9.46 0 0 0 .62 1.53 6.77 6.77 0 0 0 .88 1.32 4.69 4.69 0 0 0 .54.55 6.36 6.36 0 0 0 .59.46c.25.16.53.34.76.47s.48.28.74.41c.51.27 1 .51 1.57.73s1.08.42 1.63.59l.83.24c.27.07.57.14.8.18a1.08 1.08 0 0 1 .86.81c.4 1.66.92 3.36 1.46 5s1.16 3.31 1.82 4.93a60 60 0 0 0 4.73 9.32 33.14 33.14 0 0 0 6.62 7.85 17.31 17.31 0 0 0 9 4.09c.41 0 .83.09 1.24.1h1.27a14.11 14.11 0 0 0 2.43-.32 11.22 11.22 0 0 0 4.37-2.07 17.31 17.31 0 0 0 5.42-8.32 47.82 47.82 0 0 0 2-10.2c.19-1.74.3-3.5.35-5.26s.08-3.53 0-5.29a.33.33 0 0 1 .66-.06 50 50 0 0 1 .57 5.35c.08 1.79.09 3.59 0 5.39a40.57 40.57 0 0 1-1.79 10.71 24.33 24.33 0 0 1-2.27 5.06 15.71 15.71 0 0 1-3.7 4.29 13.33 13.33 0 0 1-5.17 2.49 16.2 16.2 0 0 1-2.85.39H437c-.47 0-.94-.05-1.41-.1a17.79 17.79 0 0 1-5.43-1.53 21.73 21.73 0 0 1-4.73-3 34.67 34.67 0 0 1-7.11-8.34 62.14 62.14 0 0 1-4.86-9.69q-1-2.51-1.85-5.08c-.56-1.72-1.06-3.42-1.49-5.22l.86.81c-.37-.07-.66-.14-1-.22l-.93-.27c-.61-.19-1.22-.42-1.81-.67s-1.17-.52-1.74-.83c-.28-.15-.57-.31-.85-.48s-.52-.33-.79-.5a8.1 8.1 0 0 1-.85-.67 6.73 6.73 0 0 1-.73-.76 8.82 8.82 0 0 1-1.13-1.73 11.5 11.5 0 0 1-.74-1.87c-.09-.32-.18-.64-.25-1a9.53 9.53 0 0 1-.17-1l.65.85-.46-.14-.51-.13c-.35-.08-.7-.14-1.05-.18s-.71-.08-1.07-.1-.71 0-1.07 0-.71 0-1.07.06-.71.08-1.06.16-.69.15-1 .23-.72.24-1.09.34a.67.67 0 0 1-.51-1.23zM390.7 544.73l.48-.21a12.3 12.3 0 0 1 1.35-.47 15.17 15.17 0 0 1 2-.41 17.25 17.25 0 0 1 2.31-.12 14.4 14.4 0 0 1 2.3.22 15.17 15.17 0 0 1 2 .47 12.13 12.13 0 0 1 1.33.48l.49.22a.5.5 0 0 1-.31.95l-.5-.11c-.31-.08-.77-.16-1.31-.27a27.23 27.23 0 0 0-4-.46 19.07 19.07 0 0 0-4 .28c-.55.1-1 .18-1.28.27l-.51.13a.5.5 0 0 1-.33-.94zM390.63 542.69l.44-.29c.14-.09.35-.19.57-.31s.48-.22.76-.34a13.16 13.16 0 0 1 2-.57 15.68 15.68 0 0 1 2.33-.26 14.12 14.12 0 0 1 4.33.5 10.39 10.39 0 0 1 1.36.46l.5.22a.5.5 0 0 1-.3.95l-.5-.1c-.31-.08-.77-.15-1.31-.25s-1.18-.16-1.86-.22-1.41-.08-2.14-.07a16.33 16.33 0 0 0-3.94.54c-.25.09-.51.14-.7.22s-.37.12-.52.2l-.48.21a.5.5 0 0 1-.48-.88z" transform="translate(-282.89 -449.52)"/><path class="cls-10" d="M397.71 481.67h-.86a4.29 4.29 0 0 1-4.42-3.87l-.09-1.14a2.78 2.78 0 0 1 2.95-2.91l3.46.12a3.52 3.52 0 0 1 3.49 3.57 4.5 4.5 0 0 1-4.53 4.23zM411.62 482.14l.86.07a4.33 4.33 0 0 0 4.69-3.56l.17-1.13a2.76 2.76 0 0 0-2.72-3.1l-3.46-.12a3.55 3.55 0 0 0-3.74 3.32 4.46 4.46 0 0 0 4.2 4.52z" transform="translate(-282.89 -449.52)"/><path class="cls-10" d="M119.24 26.18l5.35.18"/><path class="cls-5" d="M361.77 556.24a1.86 1.86 0 0 1 .22.7c.05.44 0 1.09 0 1.86 0 1.54 0 3.59-.13 5.63-.06 1-.13 2-.22 3s-.15 1.84-.26 2.6a12.54 12.54 0 0 1-.38 1.82 5.27 5.27 0 0 1-.24.69.27.27 0 0 1-.36.13.27.27 0 0 1-.14-.16 5.26 5.26 0 0 1-.16-.71 11.91 11.91 0 0 1-.15-1.86c0-.77.06-1.66.09-2.61s.09-2 .14-3l.16-3 .1-2.6c0-.76 0-1.39.07-1.84a1.86 1.86 0 0 1 .22-.7.59.59 0 0 1 .82-.18.6.6 0 0 1 .22.23zM372.12 569.37a4.34 4.34 0 0 1 .38.37 6.93 6.93 0 0 1 .68.91 4.5 4.5 0 0 1 .5 1 2.58 2.58 0 0 1 .14.52.55.55 0 0 1-.86.51 2.58 2.58 0 0 1-.39-.36 4.5 4.5 0 0 1-.66-.92 6.93 6.93 0 0 1-.49-1 4.34 4.34 0 0 1-.15-.51.53.53 0 0 1 .86-.51zM411.83 494.06l.05 2 .06 2.31v1.37a5.33 5.33 0 0 0 .34 1.25 4.53 4.53 0 0 0 1.93 2.19 4.42 4.42 0 0 0 1.5.53c.65.1 1.34.23 2 .38a50.64 50.64 0 0 1 8.36 2.56 43.61 43.61 0 0 1 7.74 4.09 38.53 38.53 0 0 1 5.93 4.82 35.31 35.31 0 0 1 3.55 4.07c.4.51.68.94.88 1.23l.3.44a.67.67 0 0 1-1.07.79s-.44-.57-1.25-1.53a41.47 41.47 0 0 0-3.59-3.74 43.28 43.28 0 0 0-5.79-4.46 46.16 46.16 0 0 0-7.44-3.87 48.7 48.7 0 0 0-8-2.54l-1.94-.4a6.27 6.27 0 0 1-4.68-3.92 6.14 6.14 0 0 1-.4-1.8v-1.46l.06-2.31.05-2a.67.67 0 0 1 1.33 0z" transform="translate(-282.89 -449.52)"/><path class="cls-8" d="M163.95 140.32h11v11h-11z"/></svg>