<svg id="Layer_1" xmlns="http://www.w3.org/2000/svg" viewBox="0 0 220.9 71.4"><style>.st0{fill:#81CFEF;} .st1{fill:#FFFFFF;} .st2{fill:#668FAB;} .st3{fill:#0484C1;}</style><path class="st0" d="M4 60.8c9.5-12.1 43-26.1 68.7-25.6 29.8.6 42.4 7.2 65.3 6.2 39.7-1.7 32.5-34.7 78.9-34.7v67.2H4V60.8z"/><path class="st1" d="M32.7 55.5c.8 1.8.7 3.5.8 5.3.1 1.8.1 3.5.1 5.3 0 1.8 0 3.5-.1 5.3-.1 1.8 0 3.5-.8 5.3h-.5c-.8-1.8-.7-3.5-.8-5.3-.1-1.8-.1-3.5-.1-5.3 0-1.8 0-3.5.1-5.3.1-1.8 0-3.5.8-5.3h.5zM58.8 47.4c.8 2.4.7 4.8.8 7.3.1 2.4.1 4.8.1 7.3 0 2.4 0 4.8-.1 7.3-.1 2.4 0 4.8-.8 7.3h-.5c-.8-2.4-.7-4.8-.8-7.3-.1-2.4-.1-4.8-.1-7.3 0-2.4 0-4.8.1-7.3.1-2.4 0-4.8.8-7.3h.5zM84.8 46.2c.8 2.5.7 5 .8 7.6.1 2.5.1 5 .1 7.6 0 2.5 0 5-.1 7.6-.1 2.5 0 5-.8 7.6h-.5c-.8-2.5-.7-5-.8-7.6-.1-2.5-.1-5-.1-7.6 0-2.5 0-5 .1-7.6.1-2.5 0-5 .8-7.6h.5zM110.9 51.1c.8 2.1.7 4.2.8 6.3.1 2.1.1 4.2.1 6.3 0 2.1 0 4.2-.1 6.3-.1 2.1 0 4.2-.8 6.3h-.5c-.8-2.1-.7-4.2-.8-6.3-.1-2.1-.1-4.2-.1-6.3 0-2.1 0-4.2.1-6.3.1-2.1 0-4.2.8-6.3h.5zM136.9 52.3c.8 2 .7 4 .8 6 .1 2 .1 4 .1 6s0 4-.1 6 0 4-.8 6h-.5c-.8-2-.7-4-.8-6-.1-2-.1-4-.1-6s0-4 .1-6 0-4 .8-6h.5zM162.9 46c.8 2.6.7 5.2.8 7.9.1 2.6.1 5.2.1 7.9 0 2.6 0 5.2-.1 7.9-.1 2.6 0 5.2-.8 7.9h-.5c-.8-2.6-.7-5.2-.8-7.9-.1-2.6-.1-5.2-.1-7.9 0-2.6 0-5.2.1-7.9.1-2.6 0-5.2.8-7.9h.5zM189 24.9c.8 4.6.7 9.1.8 13.7.1 4.6.1 9.1.1 13.7s0 9.1-.1 13.7 0 9.1-.8 13.7h-.5c-.8-4.6-.7-9.1-.8-13.7-.1-4.6-.1-9.1-.1-13.7s0-9.1.1-13.7 0-9.1.8-13.7h.5z"/><path class="st2" d="M216.9 73.7c-17.8.8-35.5.8-53.3.8l-53.3.1-53.3-.1c-17.8 0-35.5 0-53.3-.8-.1 0-.2-.1-.2-.3 0-.1.1-.2.2-.2 17.8-.8 35.5-.8 53.3-.8l53.3-.1 53.3.1c17.8 0 35.5 0 53.3.8.1 0 .2.1.2.3.1.1 0 .2-.2.2z"/><path class="st3" d="M3.8 60.7c1.4-2 3.2-3.7 5-5.2 1.8-1.6 3.8-3 5.8-4.3 4.1-2.6 8.3-4.9 12.7-6.8 8.8-3.9 18.1-6.8 27.6-8.6 4.7-.9 9.6-1.5 14.4-1.6 1.2-.1 2.4 0 3.6 0l3.6.1c2.4.1 4.8.2 7.2.4 4.8.3 9.6.9 14.3 1.6 4.8.7 9.5 1.5 14.2 2.2 4.7.7 9.4 1.4 14.1 1.7 4.7.3 9.5.3 14.2 0 4.7-.4 9.3-1.3 13.6-3 4.3-1.7 8.3-4.2 11.9-7.2 3.6-3 7-6.4 10.6-9.6 3.6-3.2 7.5-6.3 11.8-8.5 4.3-2.2 9-3.8 13.8-4.5 4.8-.8 9.6-1 14.4-.8.1 0 .2.1.2.3 0 .1-.1.2-.2.2-4.8.2-9.5.7-14.1 1.7s-9.1 2.5-13.2 4.8c-4.1 2.2-7.9 5.1-11.4 8.3-3.5 3.2-6.8 6.6-10.6 9.8-3.7 3.1-7.9 5.8-12.5 7.6-4.6 1.8-9.4 2.8-14.3 3.2-4.9.4-9.7.4-14.5.1-4.8-.3-9.6-1-14.3-1.7-4.7-.8-9.4-1.6-14.2-2.3-4.7-.7-9.4-1.3-14.2-1.6-2.4-.2-4.7-.3-7.1-.4l-3.2-.3h-3.5c-4.7.1-9.4.7-14.1 1.5-4.7.9-9.3 2-13.8 3.4s-9 3-13.4 4.8c-4.4 1.9-8.7 3.9-12.7 6.3s-8 5.1-11.2 8.7c-.1.1-.2.1-.4 0-.1-.1-.1-.2-.1-.3z"/><ellipse class="st3" cx="32.6" cy="43.3" rx="3" ry="3.3"/><ellipse class="st3" cx="110.8" cy="39" rx="3" ry="3.3"/><ellipse class="st3" cx="59.1" cy="35.7" rx="3" ry="3.3"/><ellipse class="st3" cx="84.8" cy="35.8" rx="3" ry="3.3"/><ellipse class="st3" cx="136.5" cy="41" rx="3" ry="3.3"/><ellipse class="st3" cx="162.3" cy="33.5" rx="3" ry="3.3"/><ellipse class="st3" cx="4" cy="60.8" rx="3" ry="3.3"/><ellipse class="st3" cx="188.4" cy="12.6" rx="3" ry="3.3"/><ellipse class="st3" cx="216.6" cy="6.3" rx="3" ry="3.3"/></svg>