<svg width="42" height="42" viewBox="0 0 42 42" fill="none" xmlns="http://www.w3.org/2000/svg">
<g id="stack">
<path id="Shape" fill-rule="evenodd" clip-rule="evenodd" d="M8.09375 7.875H28.6562C28.7771 7.875 28.875 7.97294 28.875 8.09375V28.6562C28.875 28.7771 28.7771 28.875 28.6562 28.875H8.09375C7.97294 28.875 7.875 28.7771 7.875 28.6562V8.09375C7.875 7.97294 7.97294 7.875 8.09375 7.875ZM5.25 8.09375C5.25 6.52319 6.52319 5.25 8.09375 5.25H28.6562C30.2268 5.25 31.5 6.52319 31.5 8.09375V28.6562C31.5 30.2268 30.2268 31.5 28.6562 31.5H8.09375C6.52319 31.5 5.25 30.2268 5.25 28.6562V8.09375ZM35.4375 33.25V14H38.0625V33.25C38.0625 35.9069 35.9107 38.0625 33.2519 38.0625H10.5V35.4375H33.2519C34.4591 35.4375 35.4375 34.4591 35.4375 33.25Z" fill="white"/>
</g>
</svg>
