<svg height="44" viewBox="0 0 48 44" width="48" xmlns="http://www.w3.org/2000/svg"><g fill="none" fill-rule="evenodd"><path d="m43.4784274 43.8868571h-38.93716244c-2.44211966 0-4.42188034-2.0221841-4.42188034-4.5166349v-34.80679363c0-2.49445079 1.97976068-4.51663492 4.42188034-4.51663492h38.93716244c2.4421196 0 4.4218803 2.02218413 4.4218803 4.51663492v34.80679363c0 2.4944508-1.9797607 4.5166349-4.4218803 4.5166349" fill="#2c3338"/><path d="m6.80082051 14.4762794c0-3.4459683 2.73490599-6.23961908 6.10858119-6.23961908 3.373812 0 6.108718 2.79365078 6.108718 6.23961908 0 3.4461079-2.734906 6.239619-6.108718 6.239619-3.3736752 0-6.10858119-2.7935111-6.10858119-6.239619" fill="#d63638"/><path d="m14.4577094 11.6929651c-.6406838 0-1.2058803.326019-1.5483077.8237079-.3422906-.4976889-.9074872-.8237079-1.5481709-.8237079-1.0450599 0-1.89223935.8653333-1.89223935 1.9327873 0 2.0097524 2.23630765 3.6680635 3.44041025 4.5157968 1.2042393-.8477333 3.440547-2.5060444 3.440547-4.5157968 0-1.067454-.8471795-1.9327873-1.8922393-1.9327873" fill="#ffabaf"/><path d="m39.4616068 20.4018921h-16.068923c-.7552821 0-1.3675214-.6253588-1.3675214-1.3968254v-8.5049905c0-.77146668.6122393-1.39682541 1.3675214-1.39682541h16.068923c.7552821 0 1.3675214.62535873 1.3675214 1.39682541v8.5049905c0 .7714666-.6122393 1.3968254-1.3675214 1.3968254" fill="#d63638"/><g fill="#3895ba"><path d="m9.34577778 26.7954413h5.50919662c1.0390427 0 1.8814359.8604444 1.8814359 1.921892 0 1.061308-.8423932 1.9217524-1.8814359 1.9217524h-5.50919662c-1.03917949 0-1.88157265-.8604444-1.88157265-1.9217524 0-1.0614476.84239316-1.921892 1.88157265-1.921892"/><path d="m19.2015043 34.1773841v-5.6272508c0-1.0614476.8423931-1.921892 1.8814359-1.921892 1.0391795 0 1.8815726.8604444 1.8815726 1.921892v5.6272508c0 1.061308-.8423931 1.9217524-1.8815726 1.9217524-1.0390428 0-1.8814359-.8604444-1.8814359-1.9217524"/><path d="m33.1647179 32.0882921h5.5091966c1.0391795 0 1.8814359.8604444 1.8814359 1.921892 0 1.061308-.8422564 1.9217524-1.8814359 1.9217524h-5.5091966c-1.0391794 0-1.8815726-.8604444-1.8815726-1.9217524 0-1.0614476.8423932-1.921892 1.8815726-1.921892"/></g><path d="m9.56129915 27.6202667c.59323075 0 1.07405125.4911238 1.07405125 1.0970666 0 .6058032-.4808205 1.096927-1.07405125 1.096927-.59323077 0-1.07405129-.4911238-1.07405129-1.096927 0-.6059428.48082052-1.0970666 1.07405129-1.0970666" fill="#187aa2"/><path d="m9.56129915 35.1072508c.59323075 0 1.07405125-.4912635 1.07405125-1.0970667 0-.6059428-.4808205-1.0970666-1.07405125-1.0970666-.59323077 0-1.07405129.4911238-1.07405129 1.0970666 0 .6058032.48082052 1.0970667 1.07405129 1.0970667" fill="#3895ba"/><path d="m9.56129915 27.6202667c.59323075 0 1.07405125.4911238 1.07405125 1.0970666 0 .6058032-.4808205 1.096927-1.07405125 1.096927-.59323077 0-1.07405129-.4911238-1.07405129-1.096927 0-.6059428.48082052-1.0970666 1.07405129-1.0970666" fill="#187aa2"/><path d="m22.1569915 28.7173333c0-.6059428-.4808206-1.0970666-1.0740513-1.0970666-.593094 0-1.0740513.4911238-1.0740513 1.0970666 0 .6058032.4809573 1.096927 1.0740513 1.096927.5932307 0 1.0740513-.4911238 1.0740513-1.096927" fill="#187aa2"/><path d="m13.6690598 34.0101841c0 .6058032.4809573 1.0970667 1.0740513 1.0970667.5932308 0 1.0740513-.4912635 1.0740513-1.0970667 0-.6059428-.4808205-1.0970666-1.0740513-1.0970666-.593094 0-1.0740513.4911238-1.0740513 1.0970666" fill="#2ebd99"/><path d="m25.1070085 34.1773841v-5.6272508c0-1.0614476.8423932-1.921892 1.8815727-1.921892s1.8814359.8604444 1.8814359 1.921892v5.6272508c0 1.061308-.8422564 1.9217524-1.8814359 1.9217524s-1.8815727-.8604444-1.8815727-1.9217524" fill="#3895ba"/><path d="m33.3284103 27.6202667c.593094 0 1.0740512.4911238 1.0740512 1.0970666 0 .6058032-.4809572 1.096927-1.0740512 1.096927-.5932308 0-1.0740513-.4911238-1.0740513-1.096927 0-.6059428.4808205-1.0970666 1.0740513-1.0970666" fill="#2ebd99"/><path d="m26.9885812 35.1072508c-.5932308 0-1.0740513-.4912635-1.0740513-1.0970667 0-.6059428.4808205-1.0970666 1.0740513-1.0970666.593094 0 1.0740513.4911238 1.0740513 1.0970666 0 .6058032-.4809573 1.0970667-1.0740513 1.0970667" fill="#187aa2"/><path d="m37.4361709 28.7173333c0-.6059428.4808206-1.0970666 1.0740513-1.0970666.5932308 0 1.0740513.4911238 1.0740513 1.0970666 0 .6058032-.4808205 1.096927-1.0740513 1.096927-.5932307 0-1.0740513-.4911238-1.0740513-1.096927" fill="#2ebd99"/><path d="m37.4361709 34.0101841c0 .6058032.4808206 1.0970667 1.0740513 1.0970667.5932308 0 1.0740513-.4912635 1.0740513-1.0970667 0-.6059428-.4808205-1.0970666-1.0740513-1.0970666-.5932307 0-1.0740513.4911238-1.0740513 1.0970666" fill="#187aa2"/><path d="m40.829265 17.3922921c-1.0127864 0-1.4108718-1.1771048-1.7958291-2.3153778-.2230427-.6598603-.5602735-1.6569143-.8909402-1.6569143-.3306666 0-.6678974.997054-.8909401 1.6569143-.3849573 1.138273-.7830428 2.3153778-1.7956924 2.3153778-1.0126495 0-1.4105982-1.1771048-1.7955555-2.3152381-.2230427-.6598603-.5602735-1.657054-.8908034-1.657054s-.667624.997054-.8906667 1.6567746c-.3848205 1.1384127-.782906 2.3155175-1.7955555 2.3155175-1.0125129 0-1.4105983-1.1771048-1.7954189-2.3155175-.2230427-.6597206-.5601367-1.6567746-.8906666-1.6567746s-.667624.997054-.8906667 1.6567746c-.3848205 1.1384127-.7830427 2.3155175-1.7955555 2.3155175-1.0125129 0-1.4104616-1.1771048-1.7954188-2.3155175-.222906-.6597206-.56-1.6567746-.8902565-1.6567746v-.9777778c1.0123761 0 1.4103248 1.1771048 1.7952821 2.3153778.222906.6598603.56 1.6569143.8903932 1.6569143.3305299 0 .6676239-.997054.8906666-1.6567746.3848205-1.1384127.7830428-2.3155175 1.7955556-2.3155175s1.4105983 1.1771048 1.7955555 2.3155175c.2230428.6597206.56 1.6567746.89053 1.6567746.3305299 0 .6676239-.997054.8906666-1.6567746.3849573-1.1384127.7830428-2.3155175 1.7955556-2.3155175 1.0126495 0 1.4105983 1.1771048 1.7956923 2.3155175.2230427.6597206.5601367 1.6567746.8906666 1.6567746.3306667 0 .6677607-.997054.8908035-1.6569143.385094-1.138273.7831795-2.3153778 1.795829-2.3153778 1.0126496 0 1.4107351 1.1771048 1.7958291 2.3153778.2230427.6598603.5602735 1.6569143.8909402 1.6569143z" fill="#ffabaf"/></g></svg>
