<svg height="60" viewBox="0 0 51 60" width="51" xmlns="http://www.w3.org/2000/svg"><g fill="none" fill-rule="evenodd"><path d="m2.19051892 25.0759059c0-13.7936471 10.91758378-24.97567061 24.38502968-24.97567061 13.4675838 0 24.3851676 11.18202351 24.3851676 24.97567061 0 13.793647-10.9175838 24.9756706-24.3851676 24.9756706-13.4674459 0-24.38502968-11.1820236-24.38502968-24.9756706" fill="#e6f1f5"/><path d="m8.06888919 38.4074824 9.72914591-9.9649412c-1.3741054-2.1344471-2.1783892-4.6884706-2.1783892-7.4359059 0-7.4745882 5.9161379-13.53388236 13.2139622-13.53388236s13.2138243 6.05929416 13.2138243 13.53388236-5.916 13.5338823-13.2138243 13.5338823c-2.6824622 0-5.1760865-.8236235-7.2600567-2.2311529l-9.7292838 9.9649412zm30.20316491-17.4008471c0-5.3304-4.2341027-9.6670588-9.438446-9.6670588-5.2044811 0-9.4384459 4.3366588-9.4384459 9.6670588s4.2339648 9.6670588 9.4384459 9.6670588c5.2043433 0 9.438446-4.3366588 9.438446-9.6670588z" fill="#2c3338"/><path d="m18.9017027 27.3122824 3.7753784 3.8668235-9.729146 9.9648-3.77537834-3.8668235z" fill="#1d2327"/><path d="m42.0474324 21.0066353c0 7.4745882-5.916 13.5340235-13.2138243 13.5340235s-13.2139622-6.0594353-13.2139622-13.5340235 5.9161379-13.53388236 13.2139622-13.53388236 13.2138243 6.05929416 13.2138243 13.53388236" fill="#2c3338"/><path d="m19.3950243 21.0066353c0-5.3390118 4.2258325-9.6670588 9.4385838-9.6670588 5.2127514 0 9.438446 4.328047 9.438446 9.6670588s-4.2256946 9.6670588-9.438446 9.6670588c-5.2127513 0-9.4385838-4.328047-9.4385838-9.6670588" fill="#d63638"/><path d="m27.7047162 24.4752h2.257646v2.3124706h-2.257646z" fill="#ffabaf"/><path d="m27.1402703 15.2256h3.3865378l-.5644459 6.9372706h-2.257646z" fill="#ffabaf"/><g fill="#f0c443"><path d="m15.7328108 49.8890824h-4.0772432v-18.7534589c0-1.1531294.9127621-2.0878588 2.0386216-2.0878588 1.1258594 0 2.0386216.9347294 2.0386216 2.0878588z"/><path d="m15.7328108 39.1794353-4.0772432-.504v-5.2956706l-6.68761625 3.5301177c-1.3016027.6871058-2.09858108 2.0823529-2.04551351 3.5812235l.26809459 10.1608941 5.44073514 4.9720941 7.10154323-6.5617412z"/><path d="m22.2173919 34.1011765c-.6836757-.6751059-1.7848622-.623153-2.4564081.0646588l-5.0223973 5.1440471h-1.0443973v1.0696941l-.8051108.8244706-1.2201406-1.2496942-9.4442351 9.6731295 7.9475919 8.1402352 7.9485568-8.1410823c.9576972-.9808941 1.4958162-2.3113412 1.4958162-3.6986824v-5.2386353c0-.8833411.342527-1.7304.9523216-2.3549647l1.6715594-1.7119058c.6810568-.6976942.6733379-1.8336-.0231567-2.5212706"/><path d="m10.1722946 57.7675765-7.9475919-8.1400941-2.13414324 2.1858352 7.94772973 8.1400942z"/></g><path d="m15.7328108 38.2915765v7.4030117l1.9884487-9.4396235z" fill="#e68b28"/><path d="m11.6555676 33.3797647 1.7127729.4447059.3258487 3.8064-.5811243 3.3439059-3.28260814 3.5271529-1.42427838-4.2192 2.64400542-6.0546353z" fill="#f0c443"/></g></svg>
