<svg height="48" viewBox="0 0 48 48" width="48" xmlns="http://www.w3.org/2000/svg" xmlns:xlink="http://www.w3.org/1999/xlink"><mask id="a" fill="#fff"><path d="m.11939155 23.994862c0-13.2109521 10.70954365-23.92036059 23.92049575-23.92036059 13.2108169 0 23.9203606 10.70940849 23.9203606 23.92036059 0 13.2108169-10.7095437 23.9203605-23.9203606 23.9203605-13.2109521 0-23.92049575-10.7095436-23.92049575-23.9203605" fill="#fff" fill-rule="evenodd"/></mask><g fill="none" fill-rule="evenodd"><path d="m.11939155 23.994862c0-13.2109521 10.70954365-23.92036059 23.92049575-23.92036059 13.2108169 0 23.9203606 10.70940849 23.9203606 23.92036059 0 13.2108169-10.7095437 23.9203605-23.9203606 23.9203605-13.2109521 0-23.92049575-10.7095436-23.92049575-23.9203605" fill="#e6f1f5"/><path d="m24.3634479 5.83409577 3.4743887 1.27112113-3.4743887 1.06181409z" fill="#3895ba"/><path d="m23.7163268 5.83409577h.6471211v11.92522813h-.6471211z" fill="#2c3338"/><path d="m24.0398873 8.73329577-6.3330253 9.68261413h12.6659155z" fill="#2c3338"/><g fill="#646970"><path d="m17.706862 17.6059944h12.6659155v17.6027493h-12.6659155z"/><path d="m19.8686197 20.5876732v-5.4721352h-3.587831v1.8843043c0 1.9815211 1.6063099 3.5878309 3.587831 3.5878309"/><path d="m28.1787042 20.5876732v-5.4721352h3.587831v1.8843043c0 1.9815211-1.6063098 3.5878309-3.587831 3.5878309"/><path d="m22.2298141 15.115538h3.587831v5.4721352h-3.587831z"/></g><path d="m22.2298141 22.8344789c0-.9996169.8103211-1.8100733 1.8100732-1.8100733.9996169 0 1.8100733.8104564 1.8100733 1.8100733 0 .9997521-.8104564 1.8102084-1.8100733 1.8102084-.9997521 0-1.8100732-.8104563-1.8100732-1.8102084" fill="#2c3338"/><path d="m13.3503549 22.8344789h2.368631v6.1249352h-2.368631z" fill="#787c82"/><path d="m11.3797859 26.7958986c-1.308169 0-2.36863097-1.0605972-2.36863097-2.3687662v-1.5926535h2.36863097z" fill="#787c82"/><path d="m10.1954704 25.1617352h7.5113916v10.0470085h-7.5113916z" fill="#787c82"/><path d="m13.9512338 27.9925183c-.6541521 0-1.1844507.5301634-1.1844507 1.1843155v3.201262h2.3687662v-3.201262c0-.6541521-.5302986-1.1843155-1.1843155-1.1843155" fill="#2c3338"/><path d="m32.3606535 22.8344789h2.368631v6.1249352h-2.368631z" fill="#787c82"/><path d="m36.6998535 26.7958986c1.308169 0 2.368631-1.0605972 2.368631-2.3687662v-1.5926535h-2.368631z" fill="#787c82"/><path d="m30.3727775 25.1617352h7.5113915v10.0470085h-7.5113915z" fill="#787c82"/><path d="m34.1285408 27.9925183c.6540169 0 1.1843155.5301634 1.1843155 1.1843155v3.201262h-2.3686309v-3.201262c0-.6541521.5301633-1.1843155 1.1843154-1.1843155" fill="#2c3338"/><path d="m24.0398873 27.7352113c-1.5473577 0-2.8015774 1.2542197-2.8015774 2.8015774v4.671955h5.6031549v-4.671955c0-1.5473577-1.2543549-2.8015774-2.8015775-2.8015774" fill="#2c3338"/><path d="m23.5375775 5.33178592c0-.27745353.2248563-.50230986.5023098-.50230986.2773183 0 .5023099.22485633.5023099.50230986 0 .27745352-.2249916.50230985-.5023099.50230985-.2774535 0-.5023098-.22485633-.5023098-.50230985" fill="#2c3338"/><path d="m71.3105577 54.4113127c-11.7539154-12.7259493-28.5812281-20.6961127-47.2706704-20.6961127-18.68944223 0-35.5168901 7.9701634-47.2706704 20.6961127z" fill="#2ebd99" mask="url(#a)"/></g></svg>
