<svg height="845" viewBox="0 0 1151 845" width="1151" xmlns="http://www.w3.org/2000/svg"><g fill="none" fill-rule="evenodd"><rect fill="#c3c4c7" height="65" rx="10" width="1151"/><path d="m-2 47h1156.10619v197.845342h-1156.10619z" fill="#2fb41f"/><path d="m-.405371 244.845342h1154.51156v606.935908h-1154.51156z" fill="#f6f7f7"/><path d="m30 314.997674h912.020499v391.749541h-912.020499z" fill="#fff"/><g transform="translate(889 479)"><rect fill="#187aa2" height="74" rx="10" width="238" y="262"/><path d="m39.515625 308v-19.988281h4.2382812v19.988281zm23.0507812 0h-4.1699218v-8.927734c0-1.10287-.1959616-1.930011-.5878906-2.481446-.3919291-.551435-1.0162718-.827148-1.8730469-.827148-1.1666725 0-2.0097631.389644-2.5292969 1.168945s-.7792969 2.07128-.7792969 3.875977v7.191406h-4.1699219v-15.285156h3.1855469l.5605469 1.955078h.2324219c.464846-.738285 1.1051391-1.296548 1.9208984-1.674805s1.7431589-.567383 2.7822266-.567383c1.7773526 0 3.1262975.48079 4.046875 1.442383.9205775.961594 1.3808593 2.349275 1.3808593 4.163086zm14.9570313-4.539062c0 1.567716-.5445909 2.761714-1.6337891 3.582031-1.0891981.820316-2.7184136 1.230469-4.8876953 1.230469-1.1119847 0-2.0598919-.075195-2.84375-.225586-.7838581-.150392-1.5175747-.371418-2.2011719-.663086v-3.445313c.7747435.364585 1.6474561.669921 2.6181641.916016s1.8251916.36914 2.5634766.36914c1.5130284 0 2.2695312-.437495 2.2695312-1.3125 0-.328126-.1002594-.594725-.3007812-.799804-.2005219-.205079-.5468726-.437499-1.0390625-.697266-.49219-.259767-1.1484334-.562824-1.96875-.90918-1.1757872-.49219-2.0393853-.947914-2.5908203-1.367187-.5514351-.419273-.9524727-.900063-1.203125-1.442383s-.3759766-1.209957-.3759766-2.00293c0-1.358079.5263619-2.408525 1.5791016-3.151367 1.0527396-.742842 2.5452377-1.114258 4.477539-1.114258 1.8411551 0 3.6321528.401038 5.3730469 1.203125l-1.2578125 3.007813c-.7656288-.328127-1.4811165-.597004-2.1464844-.806641-.6653679-.209636-1.3443976-.314453-2.0371093-.314453-1.230475 0-1.8457032.332679-1.8457032.998047 0 .3737.1982402.697264.5947266.970703.3964863.273439 1.2646417.679034 2.6044922 1.216797 1.1940164.483075 2.0690076.934243 2.625 1.353516.5559923.419273.9661445.902341 1.2304687 1.449218.2643243.546878.3964844 1.198564.3964844 1.955079zm9.6933594 1.490234c.7291703 0 1.6041615-.159504 2.625-.478516v3.103516c-1.0390677.464846-2.3150966.697266-3.828125.697266-1.6679771 0-2.8824832-.421546-3.6435547-1.264649s-1.1416016-2.107739-1.1416016-3.793945v-7.369141h-1.9960937v-1.763672l2.296875-1.394531 1.203125-3.226562h2.6660156v3.253906h4.2792969v3.130859h-4.2792969v7.369141c0 .592451.1663395 1.029946.4990234 1.3125.332684.282553.7724582.423828 1.319336.423828zm15.4218751 3.048828-.806641-2.078125h-.109375c-.701826.884119-1.42415 1.497069-2.1669919 1.838867-.7428423.341799-1.7112571.512696-2.9052735.512696-1.4674552 0-2.6227171-.419267-3.4658203-1.257813s-1.2646484-2.032544-1.2646484-3.582031c0-1.622404.5673771-2.818681 1.7021484-3.588867 1.1347713-.770187 2.8460172-1.196289 5.1337891-1.278321l2.6523436-.082031v-.669922c0-1.549487-.792961-2.324219-2.3789061-2.324219-1.2213603 0-2.6568928.369137-4.3066407 1.107422l-1.3808593-2.816406c1.7591234-.920578 3.7096247-1.380859 5.8515625-1.380859 2.0507916 0 3.6230416.44661 4.7167966 1.339843 1.093756.893234 1.640625 2.251293 1.640625 4.074219v10.185547zm-1.230469-7.082031-1.6132811.054687c-1.2122457.036459-2.1145804.255207-2.7070313.65625-.5924509.401044-.8886718 1.011715-.8886718 1.832032 0 1.175787.6744724 1.763671 2.0234374 1.763671.9661507 0 1.7386039-.277992 2.3173828-.833984.578779-.555992.868164-1.294266.868164-2.214844zm12.605469 7.082031h-4.169922v-21.273438h4.169922zm8.544922 0h-4.169922v-21.273438h4.169922zm29.708984 0h-5.386719l-8.695312-15.121094h-.123047c.173178 2.670587.259766 4.575515.259766 5.714844v9.40625h-3.78711v-19.988281h5.345703l8.681641 14.970703h.095703c-.136719-2.597669-.205078-4.43424-.205078-5.509766v-9.460937h3.814453zm8.025391-7.669922c0 1.513029.24837 2.656897.745117 3.431641.496747.774743 1.305658 1.162109 2.426758 1.162109 1.111984 0 1.911781-.385087 2.399414-1.155273.487632-.770186.731445-1.916334.731445-3.438477 0-1.513028-.246091-2.647783-.738281-3.404297s-1.298823-1.134765-2.419922-1.134765c-1.111985 0-1.91406.375972-2.40625 1.127929s-.738281 1.88899-.738281 3.411133zm10.568359 0c0 2.488294-.656243 4.434238-1.96875 5.837891-1.312506 1.403653-3.139962 2.105469-5.482422 2.105469-1.467455 0-2.761713-.321286-3.882812-.963868-1.1211-.642581-1.982419-1.565423-2.583985-2.768554-.601565-1.203131-.902343-2.606763-.902343-4.210938 0-2.497408.651686-4.438795 1.955078-5.824219 1.303392-1.385423 3.135405-2.078125 5.496094-2.078125 1.467455 0 2.761713.319008 3.882812.957032s1.982419 1.55403 2.583984 2.748046c.601566 1.194017.902344 2.593091.902344 4.197266zm15.449219 7.669922-1.175781-5.345703-1.585938-6.753906h-.095703l-2.789063 12.099609h-4.484374l-4.347657-15.285156h4.15625l1.763672 6.767578c.282554 1.212246.56966 2.884755.861328 5.017578h.082031c.036459-.692712.195963-1.791008.478516-3.294922l.21875-1.162109 1.886719-7.328125h4.59375l1.791015 7.328125c.036459.200522.093425.496743.170899.888672s.152669.808917.225586 1.250976c.072917.44206.138997.874998.198242 1.298828.059245.423831.093424.763345.102539 1.018555h.082031c.082032-.656253.227864-1.556309.4375-2.700195.209637-1.143886.360026-1.916339.451172-2.317383l1.832031-6.767578h4.087891l-4.402344 15.285156z" fill="#fff"/><path d="m243 169.078409-55.011304 54.923786-25.206087 25.165987-80.2173916-80.089773 25.2060866-25.165986 37.185218 37.126059v-38.656664c0-58.8748816-47.9878263-106.7863635-106.956522-106.7863635v-35.5954545c78.755652 0 142.608696 63.7514591 142.608696 142.381818v38.656664l37.185217-37.126059z" fill="#e65054" transform="matrix(-1 0 0 1 281 0)"/></g><path d="m1161.5 45.5h-1189.968487" stroke="#f6f7f7" stroke-linecap="square"/><g stroke="#fff"><circle cx="22" cy="23" fill="#e65054" r="8"/><circle cx="46" cy="23" fill="#f0c443" r="8"/><circle cx="70" cy="23" fill="#9dd977" r="8"/></g><path d="m46.5449219 203.558594c-1.2304749 0-2.3027298-.128905-3.2167969-.386719v-4.535156c.9375047.234376 1.7929649.351562 2.5664062.351562 1.1953185 0 2.0507787-.372066 2.5664063-1.116211.5156276-.744144.7734375-1.907218.7734375-3.489258v-24.082031h5.4492188v24.046875c0 3.000015-.6855401 5.285149-2.0566407 6.855469s-3.3984241 2.355469-6.0820312 2.355469zm22.3242187-23.765625c-1.1367244 0-2.0273405.360348-2.671875 1.081054-.6445344.720707-1.0136714 1.743158-1.1074218 3.067383h7.5234374c-.0234376-1.324225-.3691372-2.346676-1.0371093-3.067383-.6679721-.720706-1.5703068-1.081054-2.7070313-1.081054zm.7558594 16.558593c-3.1640783 0-5.6367098-.873038-7.4179688-2.61914-1.7812589-1.746103-2.671875-4.218734-2.671875-7.417969 0-3.292985.823234-5.838858 2.4697266-7.637695s3.922837-2.698242 6.8291016-2.698242c2.7773576 0 4.9394454.791007 6.4863281 2.373046 1.5468827 1.58204 2.3203125 3.767565 2.3203125 6.556641v2.601563h-12.6738281c.058594 1.523445.5097614 2.712886 1.3535156 3.568359s2.0273361 1.283203 3.5507813 1.283203c1.1835996 0 2.3027291-.123046 3.3574218-.36914 1.0546928-.246095 2.1562443-.63867 3.3046875-1.177735v4.148438c-.9375047.468752-1.9394478.817381-3.0058593 1.045898-1.0664116.228517-2.3671799.342773-3.9023438.342773zm20.6542969-4.271484c.9375047 0 2.0624934-.205076 3.375-.615234v3.990234c-1.3359442.597659-2.9765528.896484-4.921875.896484-2.144542 0-3.7060498-.541986-4.6845703-1.625976-.9785206-1.08399-1.4677735-2.70995-1.4677735-4.87793v-9.474609h-2.5664062v-2.267578l2.953125-1.792969 1.546875-4.148438h3.4277343v4.183594h5.5019532v4.025391h-5.5019532v9.474609c0 .761723.2138651 1.324217.6416016 1.6875s.9931606.544922 1.6962891.544922zm18.1406251 4.271484c-2.308605 0-4.119134-.837882-5.431641-2.513671h-.28125c.187501 1.640633.28125 2.589842.28125 2.847656v7.962891h-5.3613279v-28.300782h4.3593749l.75586 2.548828h.246093c1.253913-1.945322 3.111316-2.917968 5.572266-2.917968 2.320324 0 4.136712.896475 5.449219 2.689453 1.312506 1.792977 1.96875 4.283187 1.96875 7.470703 0 2.097667-.307614 3.919914-.922852 5.466797-.615237 1.546882-1.491205 2.724605-2.62793 3.533203-1.136724.808598-2.472648 1.21289-4.007812 1.21289zm-1.582031-16.083984c-1.324226 0-2.291013.407223-2.900391 1.22168s-.925781 2.15917-.949219 4.03418v.580078c0 2.109385.313474 3.621089.94043 4.535156s1.62011 1.371094 2.979492 1.371094c2.402356 0 3.603516-1.980449 3.603516-5.941407 0-1.933603-.295896-3.383784-.887696-4.350586-.591799-.966801-1.520501-1.450195-2.786132-1.450195zm26.050781 15.732422-1.03711-2.671875h-.140624c-.902349 1.136724-1.83105 1.924802-2.786133 2.364258-.955083.439455-2.200188.659179-3.735352.659179-1.886728 0-3.372065-.539057-4.456055-1.617187-1.083989-1.07813-1.625976-2.613271-1.625976-4.605469 0-2.085948.729485-3.624018 2.188476-4.614258 1.458992-.990239 3.659165-1.538085 6.600586-1.643554l3.410157-.105469v-.861328c0-1.992198-1.019521-2.988281-3.058594-2.988281-1.57032 0-3.416005.474604-5.537109 1.423828l-1.775391-3.621094c2.26173-1.1836 4.769517-1.775391 7.523437-1.775391 2.636732 0 4.658196.574213 6.064454 1.722657 1.406257 1.148443 2.109374 2.894519 2.109374 5.238281v13.095703zm-1.582031-9.105469-2.074219.070313c-1.558602.046875-2.718746.328122-3.480469.84375-.761722.515627-1.142578 1.300776-1.142578 2.355468 0 1.511727.867179 2.267579 2.601563 2.267579 1.242193 0 2.235347-.357419 2.979492-1.072266.744144-.714847 1.116211-1.664057 1.116211-2.847656zm18.826171 9.457031c-6.117218 0-9.175781-3.357388-9.175781-10.072265 0-3.339861.832023-5.891593 2.496094-7.655274 1.664071-1.76368 4.048813-2.645507 7.154297-2.645507 2.273449 0 4.312491.445308 6.117187 1.335937l-1.582031 4.148438c-.843754-.339846-1.628902-.618163-2.355469-.834961-.726566-.216798-1.453121-.325196-2.179687-.325196-2.789077 0-4.183594 1.980449-4.183594 5.941407 0 3.843769 1.394517 5.765625 4.183594 5.765625 1.031255 0 1.986324-.137694 2.865234-.413086.878911-.275392 1.757808-.706052 2.636719-1.291992v4.58789c-.867192.550784-1.74316.93164-2.62793 1.142578-.88477.210939-2.00097.316406-3.348633.316406zm15.679688-11.039062 2.337891-2.988281 5.501953-5.976563h6.046875l-7.804688 8.525391 8.279297 11.126953h-6.1875l-5.660156-7.962891-2.302734 1.845703v6.117188h-5.361329v-27.351562h5.361329v12.199218l-.28125 4.464844zm37.458984-9.333984c2.320324 0 4.136713.905264 5.449219 2.71582 1.312507 1.810556 1.96875 4.291976 1.96875 7.444336 0 3.24611-.676751 5.759757-2.030273 7.541016-1.353523 1.781258-3.196278 2.671874-5.528321 2.671874-2.308605 0-4.119134-.837882-5.43164-2.513671h-.369141l-.896484 2.162109h-4.095703v-27.351562h5.361328v6.363281c0 .808598-.070312 2.103506-.210938 3.884765h.210938c1.253912-1.945322 3.111316-2.917968 5.572265-2.917968zm-1.722656 4.289062c-1.324225 0-2.291012.407223-2.90039 1.22168-.609379.814457-.925782 2.15917-.949219 4.03418v.580078c0 2.109385.313473 3.621089.940429 4.535156.626957.914067 1.620111 1.371094 2.979493 1.371094 1.101568 0 1.977535-.506831 2.627929-1.520508s.975586-2.487295.975586-4.420899c0-1.933603-.328121-3.383784-.984375-4.350586-.656253-.966801-1.552728-1.450195-2.689453-1.450195zm10.03711-3.919922h5.871093l3.708985 11.056641c.316407.960942.533202 2.09765.65039 3.410156h.105469c.128907-1.207037.380857-2.343745.755859-3.410156l3.638672-11.056641h5.748047l-8.314453 22.166016c-.761723 2.050791-1.848626 3.585932-3.260742 4.605469-1.412117 1.019536-3.061514 1.529297-4.948242 1.529297-.925786 0-1.83398-.099609-2.72461-.298829v-4.253906c.644535.152345 1.347653.228516 2.109375.228516.949224 0 1.778317-.290036 2.487305-.870117s1.262693-1.456049 1.661133-2.62793l.316406-.966797zm58.095703 19.652344h-6.205079l-3.480468-13.5c-.128907-.480471-.348632-1.473625-.65918-2.979492s-.489258-2.516599-.536133-3.032227c-.070313.632816-.246092 1.649407-.527343 3.049805-.281252 1.400398-.498047 2.399411-.650391 2.99707l-3.462891 13.464844h-6.1875l-6.55664-25.699219h5.361328l3.287109 14.027344c.574222 2.589857.990233 4.833975 1.248047 6.732422.070313-.667972.231444-1.702142.483398-3.102539.251955-1.400398.489257-2.487301.711914-3.260742l3.744141-14.396485h5.150391l3.74414 14.396485c.164064.644534.36914 1.628899.615235 2.953125.246095 1.324225.433593 2.460932.5625 3.410156.117188-.914067.304686-2.053704.5625-3.418945.257814-1.365242.492186-2.469723.703125-3.313477l3.269531-14.027344h5.361328zm12.902343-9.861328c0 1.945322.319333 3.416011.958008 4.412109.638675.996099 1.678704 1.494141 3.120117 1.494141 1.429695 0 2.458005-.495112 3.084961-1.485352.626957-.990239.94043-2.463857.94043-4.420898 0-1.945322-.316403-3.404292-.949219-4.376953-.632815-.972661-1.669914-1.458985-3.111328-1.458985-1.429695 0-2.460934.483394-3.09375 1.450196-.632816.966801-.949219 2.428701-.949219 4.385742zm13.587891 0c0 3.199235-.843742 5.701163-2.53125 7.505859-1.687508 1.804697-4.037094 2.707031-7.048828 2.707031-1.886728 0-3.550774-.413081-4.992188-1.239257-1.441413-.826176-2.548824-2.012688-3.322265-3.559571-.773442-1.546882-1.160156-3.351552-1.160156-5.414062 0-3.210954.837882-5.707022 2.513671-7.488281 1.67579-1.781259 4.031235-2.671875 7.066407-2.671875 1.886728 0 3.550774.410152 4.992187 1.230468 1.441414.820317 2.548824 1.99804 3.322266 3.533204.773441 1.535163 1.160156 3.333974 1.160156 5.396484zm15.398437-10.160156c.726567 0 1.330076.052733 1.810547.158203l-.404297 5.027343c-.433595-.117188-.960934-.175781-1.582031-.175781-1.710946 0-3.04394.439449-3.999023 1.31836-.955083.87891-1.432617 2.109367-1.432617 3.691406v10.001953h-5.361329v-19.652344h4.060547l.791016 3.304688h.263672c.609378-1.101568 1.432612-1.989255 2.469726-2.663086 1.037115-.673832 2.165033-1.010742 3.383789-1.010742zm10.88086 20.373046c-2.308605 0-4.122064-.896475-5.44043-2.689453-1.318366-1.792977-1.977539-4.277327-1.977539-7.453125 0-3.222672.670892-5.733389 2.012695-7.532226 1.341804-1.798837 3.190418-2.698242 5.545899-2.698242 2.472668 0 4.359368.960928 5.660156 2.882812h.175781c-.269532-1.464851-.404296-2.771479-.404296-3.919922v-6.292968h5.378906v27.351562h-4.113282l-1.037109-2.548828h-.228515c-1.218757 1.933603-3.07616 2.90039-5.572266 2.90039zm1.880859-4.271484c1.371101 0 2.375974-.398433 3.014649-1.195312s.987304-2.150381 1.045898-4.060547v-.580078c0-2.109386-.325192-3.62109-.975586-4.535157s-1.708-1.371093-3.172851-1.371093c-1.195319 0-2.124021.50683-2.786133 1.520507-.662113 1.013677-.993164 2.487295-.993164 4.420899 0 1.933603.333981 3.383784 1.001953 4.350586s1.623041 1.450195 2.865234 1.450195zm20.548828-9.685547h1.792969c1.67579 0 2.929683-.331051 3.761719-.993164.832035-.662112 1.248047-1.62597 1.248047-2.891601 0-1.277351-.34863-2.2207-1.045899-2.830078-.697269-.609379-1.790031-.914063-3.27832-.914063h-2.478516zm12.304688-4.078125c0 2.765639-.864249 4.880852-2.592774 6.345703-1.728524 1.464851-4.186507 2.197266-7.374023 2.197266h-2.337891v9.140625h-5.449218v-25.699219h8.208984c3.117203 0 5.487297.670892 7.110352 2.012696 1.623055 1.341803 2.43457 3.34276 2.43457 6.002929zm15.398437-2.33789c.726567 0 1.330076.052733 1.810547.158203l-.404297 5.027343c-.433596-.117188-.960934-.175781-1.582031-.175781-1.710946 0-3.04394.439449-3.999023 1.31836-.955083.87891-1.432618 2.109367-1.432618 3.691406v10.001953h-5.361328v-19.652344h4.060547l.791016 3.304688h.263672c.609378-1.101568 1.432612-1.989255 2.469726-2.663086 1.037115-.673832 2.165033-1.010742 3.383789-1.010742zm12.796875 3.814453c-1.136724 0-2.02734.360348-2.671875 1.081054-.644534.720707-1.013671 1.743158-1.107422 3.067383h7.523438c-.023438-1.324225-.369137-2.346676-1.037109-3.067383-.667972-.720706-1.570307-1.081054-2.707032-1.081054zm.75586 16.558593c-3.164079 0-5.63671-.873038-7.417969-2.61914-1.781259-1.746103-2.671875-4.218734-2.671875-7.417969 0-3.292985.823234-5.838858 2.469727-7.637695 1.646492-1.798837 3.922837-2.698242 6.829101-2.698242 2.777358 0 4.939446.791007 6.486328 2.373046 1.546883 1.58204 2.320313 3.767565 2.320313 6.556641v2.601563h-12.673828c.058594 1.523445.509761 2.712886 1.353515 3.568359s2.027336 1.283203 3.550781 1.283203c1.1836 0 2.30273-.123046 3.357422-.36914 1.054693-.246095 2.156245-.63867 3.304688-1.177735v4.148438c-.937505.468752-1.939448.817381-3.00586 1.045898-1.066411.228517-2.367179.342773-3.902343.342773zm26.085937-6.1875c0 2.015636-.700188 3.550776-2.100586 4.605469-1.400397 1.054693-3.495103 1.582031-6.284179 1.582031-1.429695 0-2.648433-.096678-3.65625-.290039-1.007818-.19336-1.951168-.477537-2.830079-.852539v-4.429687c.996099.468752 2.118158.861326 3.366211 1.177734 1.248054.316408 2.346675.47461 3.295899.47461 1.945322 0 2.917969-.562495 2.917969-1.6875 0-.421877-.128905-.764647-.386719-1.028321-.257814-.263673-.703122-.562498-1.335938-.896484-.632815-.333986-1.476557-.723631-2.53125-1.168945-1.511726-.632816-2.622066-1.218748-3.331054-1.757813s-1.224608-1.157223-1.546875-1.854492c-.322268-.697269-.483399-1.555659-.483399-2.575195 0-1.746103.676751-3.096675 2.030274-4.051758 1.353522-.955083 3.272448-1.432617 5.756836-1.432617 2.367199 0 4.66991.515619 6.908203 1.546875l-1.617188 3.867187c-.98438-.421877-1.904292-.767577-2.759765-1.037109-.855473-.269533-1.728512-.404297-2.619141-.404297-1.582039 0-2.373047.42773-2.373047 1.283203 0 .480471.25488.896483.764649 1.248047.509768.351564 1.625968.873043 3.348632 1.564453 1.535164.621097 2.660153 1.201169 3.375 1.740234.714848.539066 1.242186 1.160153 1.582032 1.863282.339845.703128.509765 1.54101.509765 2.513671zm17.894532 0c0 2.015636-.700189 3.550776-2.100586 4.605469-1.400398 1.054693-3.495104 1.582031-6.28418 1.582031-1.429695 0-2.648433-.096678-3.65625-.290039-1.007818-.19336-1.951168-.477537-2.830078-.852539v-4.429687c.996098.468752 2.118158.861326 3.366211 1.177734s2.346675.47461 3.295898.47461c1.945322 0 2.917969-.562495 2.917969-1.6875 0-.421877-.128905-.764647-.386719-1.028321-.257814-.263673-.703122-.562498-1.335937-.896484-.632816-.333986-1.476558-.723631-2.53125-1.168945-1.511727-.632816-2.622067-1.218748-3.331055-1.757813s-1.224608-1.157223-1.546875-1.854492-.483398-1.555659-.483398-2.575195c0-1.746103.676751-3.096675 2.030273-4.051758s3.272448-1.432617 5.756836-1.432617c2.367199 0 4.669911.515619 6.908203 1.546875l-1.617188 3.867187c-.984379-.421877-1.904292-.767577-2.759765-1.037109-.855473-.269533-1.728511-.404297-2.619141-.404297-1.582039 0-2.373047.42773-2.373047 1.283203 0 .480471.254881.896483.764649 1.248047s1.625968.873043 3.348633 1.564453c1.535164.621097 2.660152 1.201169 3.375 1.740234.714847.539066 1.242185 1.160153 1.582031 1.863282.339845.703128.509766 1.54101.509766 2.513671zm3.427734 3.322266c0-.98438.263669-1.728513.791016-2.232422.527346-.503909 1.294916-.755859 2.302734-.755859.972661 0 1.725583.25781 2.258789.773437.533206.515628.799805 1.253902.799805 2.214844 0 .925786-.269529 1.655271-.808594 2.188477-.539065.533205-1.289058.799804-2.25.799804-.98438 0-1.746091-.260739-2.285156-.782226-.539066-.521487-.808594-1.256831-.808594-2.206055zm19.001953 2.865234c-6.117218 0-9.175781-3.357388-9.175781-10.072265 0-3.339861.832023-5.891593 2.496094-7.655274 1.66407-1.76368 4.048812-2.645507 7.154296-2.645507 2.273449 0 4.312491.445308 6.117188 1.335937l-1.582031 4.148438c-.843755-.339846-1.628903-.618163-2.355469-.834961s-1.453121-.325196-2.179688-.325196c-2.789076 0-4.183593 1.980449-4.183593 5.941407 0 3.843769 1.394517 5.765625 4.183593 5.765625 1.031256 0 1.986324-.137694 2.865235-.413086.87891-.275392 1.757808-.706052 2.636719-1.291992v4.58789c-.867192.550784-1.74316.93164-2.62793 1.142578-.88477.210939-2.00097.316406-3.348633.316406zm14.800781-10.21289c0 1.945322.319333 3.416011.958008 4.412109.638675.996099 1.678704 1.494141 3.120117 1.494141 1.429695 0 2.458005-.495112 3.084961-1.485352.626956-.990239.94043-2.463857.94043-4.420898 0-1.945322-.316403-3.404292-.949219-4.376953s-1.669915-1.458985-3.111328-1.458985c-1.429695 0-2.460934.483394-3.09375 1.450196-.632816.966801-.949219 2.428701-.949219 4.385742zm13.587891 0c0 3.199235-.843742 5.701163-2.53125 7.505859-1.687509 1.804697-4.037094 2.707031-7.048828 2.707031-1.886728 0-3.550774-.413081-4.992188-1.239257-1.441413-.826176-2.548824-2.012688-3.322265-3.559571-.773442-1.546882-1.160157-3.351552-1.160157-5.414062 0-3.210954.837883-5.707022 2.513672-7.488281 1.67579-1.781259 4.031235-2.671875 7.066407-2.671875 1.886728 0 3.550774.410152 4.992187 1.230468 1.441413.820317 2.548824 1.99804 3.322266 3.533204.773441 1.535163 1.160156 3.333974 1.160156 5.396484zm22.025391 9.861328h-5.361329v-11.478516c0-1.417975-.237302-2.481441-.711914-3.190429-.474611-.708988-1.221674-1.063477-2.241211-1.063477-1.3711 0-2.367184.503901-2.988281 1.511719-.621097 1.007817-.931641 2.666004-.931641 4.974609v9.246094h-5.361328v-19.652344h4.095704l.720703 2.513672h.298828c.527346-.902348 1.289057-1.608396 2.285156-2.118164s2.138665-.764648 3.427734-.764648c2.941421 0 4.933589.960928 5.976563 2.882812h.474609c.527347-.914067 1.303706-1.623044 2.329102-2.126953s2.182611-.755859 3.471679-.755859c2.226574 0 3.911128.571283 5.053711 1.713867 1.142584 1.142584 1.713868 2.97362 1.713868 5.493164v12.814453h-5.378907v-11.478516c0-1.417975-.237302-2.481441-.711914-3.190429-.474611-.708988-1.221674-1.063477-2.241211-1.063477-1.312506 0-2.293942.468745-2.944336 1.40625-.650393.937505-.975585 2.425771-.975585 4.464844z" fill="#fff"/><path d="m449.453125 28-4.359375-11.390625h-.070312c.082031.9023483.123046 1.9746032.123046 3.2167969v8.1738281h-1.379882v-12.8496094h2.25l4.069336 10.5996094h.070312l4.104492-10.5996094h2.232422v12.8496094h-1.494141v-8.2792969c0-.9492235.041016-1.9804632.123047-3.09375h-.070312l-4.394531 11.3730469zm8.81543-9.6328125h1.564453l2.109375 5.4931641c.462893 1.2539125.749999 2.1591769.861328 2.7158203h.070312c.076173-.2988296.235839-.810055.479004-1.5336914.243166-.7236365 1.038568-2.9487119 2.386231-6.675293h1.564453l-4.139649 10.96875c-.410158 1.0839898-.889157 1.8530251-1.437011 2.3071289-.547855.4541038-1.220211.6811524-2.01709.6811524-.445315 0-.884764-.0498042-1.318359-.1494141v-1.1689453c.322267.0703128.682615.1054687 1.081054.1054687 1.001958 0 1.716795-.5624943 2.144532-1.6875l.536132-1.3710937zm26.709961 9.6328125h-1.476563l-2.592773-8.6044922c-.123048-.3808613-.260742-.8613252-.413086-1.4414062-.152345-.5800811-.231446-.9287104-.237305-1.0458985-.128907.7734414-.333983 1.6201126-.615234 2.5400391l-2.513672 8.5517578h-1.476563l-3.418945-12.8496094h1.582031l2.030274 7.9365235c.281251 1.1132868.486327 2.1210892.615234 3.0234375.158204-1.072271.392577-2.1210887.703125-3.1464844l2.302734-7.8134766h1.582032l2.416992 7.8837891c.281251.9082077.518554 1.933588.711914 3.0761719.111329-.8320354.322264-1.8456972.632812-3.0410157l2.021485-7.9189453h1.582031zm13.183593-4.8251953c0 1.5703203-.395503 2.7963823-1.186523 3.6782226-.79102.8818404-1.883782 1.3227539-3.27832 1.3227539-.861333 0-1.625974-.2021464-2.293946-.6064453s-1.183592-.9843712-1.546875-1.7402343c-.363283-.7558632-.544922-1.64062-.544922-2.6542969 0-1.5703204.392575-2.7934527 1.177735-3.6694336s1.874993-1.3139649 3.269531-1.3139649c1.347663 0 2.418453.4482378 3.212402 1.3447266.79395.8964889 1.190918 2.1093674 1.190918 3.6386719zm-7.338867 0c0 1.2304749.246091 2.1679655.738281 2.8125s1.215816.9667969 2.170899.9667969 1.680173-.3207976 2.175293-.9624024.742676-1.5805602.742676-2.8168945c0-1.2246155-.247556-2.154782-.742676-2.7905274-.49512-.6357453-1.22607-.9536132-2.192871-.9536132-.955083 0-1.675779.3134734-2.16211.9404297-.48633.6269562-.729492 1.5615172-.729492 2.8037109zm14.291016-4.9833985c.427736 0 .811522.0351559 1.151367.1054688l-.202148 1.3535156c-.39844-.087891-.749999-.1318359-1.054688-.1318359-.779301 0-1.445798.3164031-1.999512.9492187-.553713.6328157-.830566 1.4208938-.830566 2.3642578v5.1679688h-1.458984v-9.6328125h1.204101l.166992 1.7841797h.070313c.357423-.6269563.788083-1.1103499 1.291992-1.4501953.503909-.3398455 1.057614-.5097657 1.661133-.5097657zm9.149414 8.5166016h-.079102c-.673831.9785205-1.681634 1.4677734-3.023437 1.4677734-1.259772 0-2.239743-.4306597-2.939942-1.2919921-.700198-.8613325-1.050293-2.0859296-1.050293-3.6738282 0-1.5878985.351559-2.8212846 1.054688-3.7001953.703128-.8789106 1.681634-1.3183594 2.935547-1.3183594 1.306647 0 2.30859.4746047 3.005859 1.4238282h.114258l-.061523-.694336-.035157-.6767578v-3.9199218h1.458985v13.6757812h-1.186524zm-2.917969.2460938c.996099 0 1.71826-.2709934 2.166504-.8129883s.672363-1.4164979.672363-2.6235352v-.3076172c0-1.3652412-.227048-2.3393525-.681152-2.9223632-.454104-.5830108-1.179194-.8745118-2.175293-.8745118-.855473 0-1.510252.3325162-1.964355.9975586-.454104.6650424-.681153 1.6039979-.681153 2.8168946 0 1.2304749.225584 2.1591765.676758 2.7861328.451174.6269562 1.113277.9404297 1.986328.9404297zm15.758789-8.0595704c0 1.3007878-.443843 2.3012661-1.331543 3.0014649s-2.157706 1.050293-3.810058 1.050293h-1.511719v5.0537109h-1.494141v-12.8496094h3.331055c3.210953 0 4.816406 1.2480344 4.816406 3.7441406zm-6.65332 2.7685547h1.344726c1.324226 0 2.282224-.213865 2.874024-.6416015s.887695-1.1132766.887695-2.0566406c0-.8496137-.278317-1.4824198-.834961-1.8984376-.556643-.4160177-1.423822-.6240234-2.601562-.6240234h-1.669922zm13.517578-3.4716797c.427737 0 .811522.0351559 1.151367.1054688l-.202148 1.3535156c-.39844-.087891-.749999-.1318359-1.054688-.1318359-.779301 0-1.445798.3164031-1.999511.9492187-.553714.6328157-.830567 1.4208938-.830567 2.3642578v5.1679688h-1.458984v-9.6328125h1.204101l.166992 1.7841797h.070313c.357424-.6269563.788083-1.1103499 1.291992-1.4501953.503909-.3398455 1.057614-.5097657 1.661133-.5097657zm6.662109 9.984375c-1.423835 0-2.547359-.4335894-3.370605-1.3007812s-1.234863-2.0712814-1.234863-3.6123047c0-1.5527421.38232-2.7861282 1.146972-3.7001953.764653-.9140671 1.791498-1.3710938 3.080567-1.3710938 1.207037 0 2.162106.3969687 2.865234 1.190918.703129.7939493 1.054688 1.8413021 1.054688 3.1420899v.9228515h-6.635743c.029297 1.1308651.314939 1.9892549.856934 2.5751953.541995.5859405 1.305171.8789063 2.289551.8789063 1.037114 0 2.062495-.2167947 3.076172-.6503906v1.3007812c-.515628.2226574-1.003416.3823237-1.463379.4790039-.459964.0966802-1.015134.1450195-1.665528.1450195zm-.395507-8.7626953c-.773442 0-1.390135.2519506-1.850098.7558594s-.730957 1.2011674-.812988 2.0917969h5.036132c0-.9199265-.205076-1.6245093-.615234-2.1137695-.410158-.4892603-.99609-.7338868-1.757812-.7338868zm12.638671 5.9589844c0 .8964889-.333981 1.5878882-1.001953 2.0742188-.667972.4863305-1.605462.7294921-2.8125.7294921-1.27735 0-2.273434-.2021464-2.988281-.6064453v-1.3535156c.462893.2343762.95947.4189447 1.489746.5537109.530276.1347663 1.041502.2021485 1.533692.2021485.761722 0 1.347654-.1215808 1.757812-.3647461s.615234-.613767.615234-1.1118164c0-.3750019-.162596-.6957995-.487793-.9624024-.325196-.2666029-.959467-.5815411-1.902832-.9448242-.896488-.333986-1.533689-.625487-1.911621-.8745117-.377931-.2490247-.659178-.5317367-.84375-.8481445-.184571-.3164079-.276855-.6943338-.276855-1.1337891 0-.7851602.319333-1.4047829.958008-1.8588867s1.514643-.6811524 2.627929-.6811524c1.037115 0 2.050777.2109354 3.041016.6328126l-.518555 1.1865234c-.966801-.3984395-1.842769-.5976563-2.627929-.5976563-.69141 0-1.212889.1083974-1.564453.3251953-.351565.216798-.527344.5156231-.527344.8964844 0 .2578138.065917.4775382.197754.6591797.131836.1816415.344236.3544914.637207.5185547.29297.1640633.855464.4013656 1.6875.7119141 1.142584.4160177 1.914548.8349588 2.315918 1.2568359.401369.4218771.60205.9521452.60205 1.5908203zm8.586915 0c0 .8964889-.333982 1.5878882-1.001954 2.0742188-.667972.4863305-1.605462.7294921-2.8125.7294921-1.27735 0-2.273434-.2021464-2.988281-.6064453v-1.3535156c.462893.2343762.95947.4189447 1.489746.5537109.530276.1347663 1.041502.2021485 1.533692.2021485.761722 0 1.347654-.1215808 1.757812-.3647461s.615235-.613767.615235-1.1118164c0-.3750019-.162597-.6957995-.487793-.9624024-.325197-.2666029-.959468-.5815411-1.902833-.9448242-.896488-.333986-1.533689-.625487-1.911621-.8745117-.377931-.2490247-.659178-.5317367-.84375-.8481445-.184571-.3164079-.276855-.6943338-.276855-1.1337891 0-.7851602.319333-1.4047829.958008-1.8588867s1.514643-.6811524 2.627929-.6811524c1.037115 0 2.050777.2109354 3.041016.6328126l-.518555 1.1865234c-.966801-.3984395-1.842769-.5976563-2.627929-.5976563-.69141 0-1.212889.1083974-1.564453.3251953-.351565.216798-.527344.5156231-.527344.8964844 0 .2578138.065917.4775382.197754.6591797.131836.1816415.344237.3544914.637207.5185547s.855464.4013656 1.6875.7119141c1.142584.4160177 1.914549.8349588 2.315918 1.2568359s.602051.9521452.602051 1.5908203zm14.519531-.7910156c0 1.130865-.410152 2.0126921-1.230469 2.6455078s-1.933587.9492187-3.339844.9492187c-1.523445 0-2.695308-.196287-3.515625-.5888671v-1.4414063c.527347.2226574 1.10156.3984369 1.722657.5273438.621096.1289069 1.236325.1933593 1.845703.1933593.996098 0 1.746091-.1889629 2.25-.5668945.503908-.3779316.755859-.9038052.755859-1.5776367 0-.4453147-.089355-.8100572-.268066-1.0942383-.178712-.2841811-.477537-.5463855-.896485-.7866211-.418947-.2402356-1.056148-.5126938-1.911621-.8173828-1.195318-.4277365-2.049314-.9345674-2.562012-1.5205078-.512697-.5859404-.769043-1.3505812-.769043-2.2939453 0-.9902394.372067-1.7783174 1.116211-2.3642578.744145-.5859405 1.72851-.8789063 2.953125-.8789063 1.277351 0 2.452143.2343727 3.524414.703125l-.46582 1.3007813c-1.060552-.4453148-2.091792-.6679688-3.09375-.6679688-.791019 0-1.409177.1699202-1.854492.5097656-.445315.3398455-.667969.8115205-.667969 1.4150391 0 .4453147.082031.8100572.246094 1.0942383s.440916.5449207.830566.7822265c.389651.2373059.985836.4995103 1.788575.7866211 1.347663.4804712 2.274899.996091 2.781738 1.546875.506838.550784.760254 1.2656206.760254 2.1445313zm3.867187 3.4189453h-1.458984v-9.6328125h1.458984zm-1.582031-12.2431641c0-.333986.08203-.5786125.246094-.7338867.164063-.1552742.369139-.2329101.615234-.2329101.234376 0 .436523.0791007.606445.2373047.169923.1582039.254883.4013655.254883.7294921 0 .3281267-.08496.5727531-.254883.7338868-.169922.1611336-.372069.2416992-.606445.2416992-.246095 0-.451171-.0805656-.615234-.2416992-.164064-.1611337-.246094-.4057601-.246094-.7338868zm7.787109 11.2148438c.257814 0 .506835-.0190428.747071-.0571289.240235-.0380861.430663-.0776365.571289-.1186524v1.116211c-.158204.0761722-.391112.1391599-.698731.1889648-.307618.049805-.584471.074707-.830566.074707-1.863291 0-2.794922-.9814354-2.794922-2.9443359v-5.7304687h-1.379883v-.703125l1.379883-.6064454.615234-2.0566406h.84375v2.2324219h2.794922v1.1337891h-2.794922v5.6689453c0 .580081.137694 1.025389.413086 1.3359375.275392.3105484.653318.4658203 1.133789.4658203zm7.3125 1.2041015c-1.423835 0-2.547359-.4335894-3.370605-1.3007812s-1.234863-2.0712814-1.234863-3.6123047c0-1.5527421.38232-2.7861282 1.146972-3.7001953.764653-.9140671 1.791498-1.3710938 3.080567-1.3710938 1.207037 0 2.162106.3969687 2.865234 1.190918.703129.7939493 1.054688 1.8413021 1.054688 3.1420899v.9228515h-6.635743c.029297 1.1308651.314939 1.9892549.856934 2.5751953.541995.5859405 1.305171.8789063 2.289551.8789063 1.037114 0 2.062495-.2167947 3.076172-.6503906v1.3007812c-.515628.2226574-1.003416.3823237-1.463379.4790039-.459964.0966802-1.015134.1450195-1.665528.1450195zm-.395507-8.7626953c-.773442 0-1.390135.2519506-1.850098.7558594s-.730957 1.2011674-.812988 2.0917969h5.036132c0-.9199265-.205076-1.6245093-.615234-2.1137695-.410158-.4892603-.99609-.7338868-1.757812-.7338868zm19.467773-.5185547c0 1.3007878-.443843 2.3012661-1.331543 3.0014649s-2.157707 1.050293-3.810059 1.050293h-1.511718v5.0537109h-1.494141v-12.8496094h3.331055c3.210953 0 4.816406 1.2480344 4.816406 3.7441406zm-6.65332 2.7685547h1.344726c1.324226 0 2.282224-.213865 2.874024-.6416015s.887695-1.1132766.887695-2.0566406c0-.8496137-.278318-1.4824198-.834961-1.8984376-.556643-.4160177-1.423822-.6240234-2.601562-.6240234h-1.669922zm10.582031 6.3369141h-1.458984v-13.6757812h1.458984zm4.464844-9.6328125v6.2490234c0 .7851602.178709 1.3710919.536133 1.7578125.357423.3867207.916988.5800782 1.67871.5800782 1.007818 0 1.744627-.2753879 2.21045-.8261719.465822-.550784.69873-1.4501891.69873-2.6982422v-5.0625h1.458984v9.6328125h-1.204101l-.210938-1.2919922h-.079101c-.29883.4746118-.713376.8378894-1.243652 1.0898438-.530277.2519543-1.135251.3779296-1.814942.3779296-1.171881 0-2.049313-.2783175-2.632324-.8349609s-.874512-1.4472595-.874512-2.671875v-6.3017578zm17.560547 0v.9228516l-1.78418.2109375c.164063.2050791.310546.4731428.439453.8041992.128907.3310563.193359.7045877.193359 1.1206054 0 .9433641-.322262 1.6962863-.966796 2.2587891-.644535.5625028-1.529292.84375-2.654297.84375-.287111 0-.55664-.0234373-.808594-.0703125-.621097.3281267-.931641.7412085-.931641 1.2392578 0 .2636732.108398.4584955.325196.5844727s.588864.1889648 1.11621.1889648h1.705079c1.042974 0 1.844235.2197244 2.403808.6591797s.839356 1.0781208.839356 1.9160156c0 1.0664116-.42773 1.8793918-1.283203 2.4389649s-2.103508.8393555-3.744141.8393555c-1.259772 0-2.230954-.2343727-2.913574-.703125-.682621-.4687524-1.023926-1.1308551-1.023926-1.9863282 0-.5859404.187498-1.0927713.5625-1.5205078s.90234-.7177727 1.582031-.8701172c-.246095-.1113287-.452636-.2841785-.619629-.5185547-.166993-.2343761-.250488-.5068343-.250488-.8173828 0-.3515642.093749-.6591783.28125-.9228515s.483396-.5185535.887695-.7646485c-.498049-.2050791-.903807-.5537085-1.217285-1.0458984-.313478-.49219-.470215-1.0546843-.470215-1.6875 0-1.0546928.316403-1.8676729.949219-2.4389649.632816-.5712919 1.529291-.8569336 2.689453-.8569336.503909 0 .958006.0585932 1.362305.1757813zm-7.681641 11.25c0 .521487.219724.9169908.65918 1.1865234.439455.2695326 1.069331.4042969 1.889648.4042969 1.224616 0 2.131345-.1831036 2.720215-.5493164s.883301-.8627898.883301-1.4897461c0-.521487-.161132-.8832998-.483399-1.0854492-.322267-.2021495-.928706-.3032227-1.819336-.3032227h-1.749023c-.662113 0-1.177733.1582016-1.546875.4746094-.369143.3164078-.553711.7705049-.553711 1.3623047zm.791016-8.1650391c0 .6738315.190427 1.1835921.571289 1.5292969.380861.3457049.911129.5185547 1.59082.5185547 1.423835 0 2.135742-.6913993 2.135742-2.0742188 0-1.4472728-.720696-2.1708984-2.162109-2.1708984-.685551 0-1.212889.1845685-1.582031.553711-.369143.3691424-.553711.9169885-.553711 1.6435546zm10.327148 6.5478516h-1.458984v-9.6328125h1.458984zm-1.582031-12.2431641c0-.333986.08203-.5786125.246094-.7338867.164063-.1552742.369139-.2329101.615234-.2329101.234376 0 .436522.0791007.606445.2373047.169923.1582039.254883.4013655.254883.7294921 0 .3281267-.08496.5727531-.254883.7338868-.169923.1611336-.372069.2416992-.606445.2416992-.246095 0-.451171-.0805656-.615234-.2416992-.164064-.1611337-.246094-.4057601-.246094-.7338868zm11.267578 12.2431641v-6.2314453c0-.7851602-.178709-1.3710918-.536133-1.7578125s-.916988-.5800781-1.678711-.5800781c-1.007817 0-1.746091.2724582-2.214844.8173828-.468752.5449246-.703125 1.4443296-.703125 2.6982422v5.0537109h-1.458984v-9.6328125h1.186523l.237305 1.3183594h.070313c.298829-.4746118.71777-.8422839 1.256836-1.1030274.539065-.2607435 1.139645-.3911133 1.801757-.3911133 1.160162 0 2.033201.2797824 2.619141.8393555s.878906 1.4545837.878906 2.6850586v6.2841797zm9.351562 0v-12.8496094h1.494141v12.8496094zm11.390625 0v-6.2314453c0-.7851602-.178709-1.3710918-.536132-1.7578125-.357424-.3867207-.916989-.5800781-1.678711-.5800781-1.007818 0-1.746092.2724582-2.214844.8173828s-.703125 1.4443296-.703125 2.6982422v5.0537109h-1.458985v-9.6328125h1.186524l.237305 1.3183594h.070312c.29883-.4746118.717771-.8422839 1.256836-1.1030274s1.139645-.3911133 1.801758-.3911133c1.160162 0 2.0332.2797824 2.619141.8393555.58594.5595731.878906 1.4545837.878906 2.6850586v6.2841797zm10.669922-2.6279297c0 .8964889-.333981 1.5878882-1.001953 2.0742188-.667972.4863305-1.605463.7294921-2.8125.7294921-1.27735 0-2.273434-.2021464-2.988281-.6064453v-1.3535156c.462893.2343762.95947.4189447 1.489746.5537109.530276.1347663 1.041501.2021485 1.533691.2021485.761723 0 1.347655-.1215808 1.757813-.3647461s.615234-.613767.615234-1.1118164c0-.3750019-.162596-.6957995-.487793-.9624024s-.959468-.5815411-1.902832-.9448242c-.896489-.333986-1.533689-.625487-1.911621-.8745117-.377931-.2490247-.659179-.5317367-.84375-.8481445-.184571-.3164079-.276855-.6943338-.276855-1.1337891 0-.7851602.319332-1.4047829.958008-1.8588867.638675-.4541038 1.514642-.6811524 2.627929-.6811524 1.037115 0 2.050776.2109354 3.041016.6328126l-.518555 1.1865234c-.966802-.3984395-1.842769-.5976563-2.62793-.5976563-.691409 0-1.212888.1083974-1.564453.3251953-.351564.216798-.527343.5156231-.527343.8964844 0 .2578138.065917.4775382.197753.6591797.131837.1816415.344237.3544914.637207.5185547.292971.1640633.855465.4013656 1.6875.7119141 1.142584.4160177 1.914549.8349588 2.315918 1.2568359.40137.4218771.602051.9521452.602051 1.5908203zm5.484375 1.5996094c.257814 0 .506835-.0190428.747071-.0571289.240235-.0380861.430663-.0776365.571289-.1186524v1.116211c-.158204.0761722-.391112.1391599-.698731.1889648-.307619.049805-.584471.074707-.830566.074707-1.863291 0-2.794922-.9814354-2.794922-2.9443359v-5.7304687h-1.379883v-.703125l1.379883-.6064454.615234-2.0566406h.84375v2.2324219h2.794922v1.1337891h-2.794922v5.6689453c0 .580081.137694 1.025389.413086 1.3359375.275392.3105484.653318.4658203 1.133789.4658203zm9.166992 1.0283203-.290039-1.3710938h-.070312c-.480471.6035187-.95947 1.012206-1.437012 1.2260743-.477541.2138682-1.073727.3208007-1.788574.3208007-.955083 0-1.703611-.2460912-2.245606-.7382812-.541994-.49219-.812988-1.1923783-.812988-2.1005859 0-1.9453223 1.555649-2.9648433 4.666992-3.0585938l1.634766-.0527344v-.5976562c0-.7558632-.162596-1.3139631-.487793-1.6743164-.325197-.3603534-.845211-.5405274-1.560059-.5405274-.802738 0-1.710932.2460913-2.724609.7382813l-.448242-1.116211c.474612-.2578137.994626-.4599602 1.560058-.6064453.565433-.1464851 1.132322-.2197265 1.700684-.2197265 1.148443 0 1.999509.2548802 2.553223.7646484.553713.5097682.830566 1.3271428.830566 2.4521484v6.5742188zm-3.295898-1.0283203c.908208 0 1.621579-.249021 2.140137-.7470703.518557-.4980494.777832-1.195308.777832-2.0917969v-.8701172l-1.458985.0615235c-1.160162.0410158-1.996579.2211898-2.509277.5405273s-.769043.8159146-.769043 1.4897461c0 .5273464.159666.9287095.479004 1.2041016.319338.275392.76611.4130859 1.340332.4130859zm8.841797 1.0283203h-1.458985v-13.6757812h1.458985zm4.552734 0h-1.458984v-13.6757812h1.458984z" fill="#787c82"/></g></svg>
