<svg width="151" height="151" viewBox="0 0 151 151" fill="none" xmlns="http://www.w3.org/2000/svg">
<path d="M75.7305 0.412354C34.4805 0.412354 0.730469 34.1624 0.730469 75.4124C0.730469 116.662 34.4805 150.412 75.7305 150.412C116.98 150.412 150.73 116.662 150.73 75.4124C150.73 34.1624 116.98 0.412354 75.7305 0.412354Z" fill="#D63638"/>
<path d="M65.9615 54.7579L95.7006 84.497L105.85 72.3842L78.1161 66.1189L86.0939 30.7829L65.9615 54.7579Z" fill="white"/>
<path d="M90.8543 90.261L61.1153 60.5637L43.4473 42.9375L38.1427 48.2421L56.2702 66.3695L46.1622 78.4406L73.8964 84.7058L65.9186 120.042L85.9674 96.0668L104.011 114.111L109.316 108.806L90.8126 90.3028L90.8543 90.261Z" fill="white"/>
</svg>
