<svg width="151" height="151" viewBox="0 0 151 151" fill="none" xmlns="http://www.w3.org/2000/svg">
<path d="M75.7305 0.412354C34.4805 0.412354 0.730469 34.1624 0.730469 75.4124C0.730469 116.662 34.4805 150.412 75.7305 150.412C116.98 150.412 150.73 116.662 150.73 75.4124C150.73 34.1624 116.98 0.412354 75.7305 0.412354Z" fill="#069E08"/>
<path d="M75.7307 12.5658C110.296 12.5658 138.577 40.8467 138.577 75.4123C138.577 109.978 110.296 138.259 75.7307 138.259C41.1651 138.259 12.8842 109.978 12.8842 75.4123C12.8842 40.8467 41.1651 12.5658 75.7307 12.5658ZM75.7307 3.58771C36.2272 3.58771 3.90611 35.9088 3.90611 75.4123C3.90611 114.916 36.2272 147.237 75.7307 147.237C115.234 147.237 147.555 114.916 147.555 75.4123C147.555 35.9088 115.234 3.58771 75.7307 3.58771Z" fill="#069E08"/>
<path d="M105.647 72.3841L77.8449 66.1189L85.8422 30.7829L45.814 78.4406L73.616 84.7058L65.6187 120.042L105.647 72.3841Z" fill="white"/>
</svg>
