<svg enable-background="new 0 0 200 47" height="42" viewBox="0 0 200 47" width="180" xmlns="http://www.w3.org/2000/svg"><path d="m133.2 14.3h4.9v11.8c0 3-.8 4.7-4.1 6.2-.4-.6-.8-1.2-1.1-1.8 2-1.2 2.6-2.1 2.6-3.9v-10.3h-2.3zm21.3 1.3h-2.5v2.8h-1.3v1.9h1.3v5.4c0 2.2 1.5 2.7 2.7 2.7 1 0 1.8-.2 2.6-.4v-1.9c-.5.1-1.2.3-1.7.3s-1.2-.1-1.2-1.1v-5h3.1v-1.9h-3.1v-2.8zm14.5 7.3c0 3.3-1.9 5.4-5 5.4-.8 0-1.4-.1-2-.2v5.2h-2.4v-15h2.3v.9c.9-.7 2-1.2 3.2-1.2 2.1.1 3.9 1.6 3.9 4.9zm-2.5.2c0-2.1-.7-3-2.1-3-.7 0-1.6.3-2.4 1.1v5.1c.5.1 1.1.2 1.8.2 1.7-.1 2.7-1.2 2.7-3.4zm12-1.3v6.3h-2.3v-1.1h-.1c-.8.6-1.8 1.3-3.2 1.3-1.3 0-2.6-.9-2.6-2.8 0-2.5 2.1-3 3.6-3.2l2.1-.3v-.3c0-1.3-.5-1.7-1.8-1.7-.6 0-2 .2-3.2.7l-.2-2c1-.4 2.5-.6 3.7-.6 2.5 0 4 .9 4 3.7zm-2.4 1.8-2 .3c-.6.1-1.2.4-1.2 1.3 0 .8.5 1.2 1.1 1.2.7 0 1.5-.4 2.1-.9zm6.8-.5c0-2.3 1.3-3.1 2.7-3.1 1 0 2 .3 2.7.6v-2.1c-.8-.3-1.6-.5-2.8-.5-3.2 0-5.2 2-5.2 5.2 0 3 1.4 5.1 5.1 5.1 1.2 0 2-.2 3-.6v-2c-1.1.4-2 .6-2.7.6-1.6.1-2.8-.7-2.8-3.2zm12.8-.1 4-4.6h-3.1c-3 3.7-3.2 4-3.4 4.2v-8.2h-2.4v13.8h2.4v-4.6l3.8 4.6h3.2zm-46.5-.7c0 .7 0 1-.1 1.4h-6.3c.1 2.1 1.3 2.6 3.1 2.6 1 0 1.9-.2 2.9-.6v2c-1.3.4-2.3.6-3.6.6-3.1 0-5-1.5-5-5.2 0-2.7 1.6-5.1 4.8-5.1 3.1.1 4.2 2.2 4.2 4.3zm-2.5-.2c0-1.2-.4-2.2-1.7-2.2-1.2 0-2 .9-2.1 2.2z"/><path d="m112.9 9.7c-7.6 0-13.8 6.2-13.8 13.8s6.2 13.8 13.8 13.8 13.8-6.2 13.8-13.8-6.2-13.8-13.8-13.8zm-1.4 16.6h-6.9l6.9-13.8zm2.8 8.3v-13.9h6.9z" fill="#2fb41f"/><path d="m4.1 16.2h-3.2v12h1.5v-4.7h1.4c1.5 0 2.7-.3 3.5-1s1.3-1.6 1.3-2.8c0-2.3-1.5-3.5-4.5-3.5zm2.1 5.4c-.5.4-1.4.6-2.6.6h-1.2v-4.8h1.5c1.1 0 1.8.2 2.3.6.6.4.8 1 .8 1.8s-.3 1.5-.8 1.8zm8.2-2.6c-1.3 0-2.4.4-3.1 1.2s-1.1 2-1.1 3.4c0 .9.2 1.8.5 2.5s.8 1.3 1.5 1.6c.6.4 1.4.6 2.2.6 1.3 0 2.3-.4 3.1-1.2.7-.8 1.1-2 1.1-3.5 0-1.4-.4-2.6-1.1-3.4-.8-.8-1.8-1.2-3.1-1.2zm1.9 7.3c-.4.6-1.1.9-2 .9s-1.5-.3-2-.9c-.4-.6-.7-1.5-.7-2.6 0-2.3.9-3.4 2.6-3.4.9 0 1.5.3 2 .9s.7 1.4.7 2.6c.1 1-.1 1.9-.6 2.5zm14.4-7.1h1.5l-2.5 9h-1.7l-1.5-5.1c-.1-.4-.4-1.2-.6-2.4h-.1c-.2 1.1-.4 1.9-.6 2.4l-1.6 5.1h-1.7l-2.5-9h1.5c.6 2.2 1 3.9 1.3 5.1s.5 2 .5 2.5h.1l.1-.5c.2-.8.3-1.4.5-1.9l1.6-5.1h1.6l1.6 5.1c.1.2.1.4.2.6s.1.4.2.6.1.4.1.6.1.4.1.5h.1c0-.4.2-1.3.6-2.7zm6.4-.2c-1.2 0-2.2.4-2.9 1.3s-1.1 2-1.1 3.5c0 1.4.4 2.6 1.2 3.4s1.8 1.2 3.2 1.2c.6 0 1.1 0 1.6-.1.4-.1.9-.2 1.4-.5v-1.3c-.6.2-1.1.4-1.5.5s-.9.1-1.4.1c-.9 0-1.6-.3-2.1-.8s-.8-1.3-.8-2.3h6.2v-.9c0-1.3-.3-2.2-1-3-.7-.7-1.6-1.1-2.8-1.1zm-2.4 3.8c.1-.8.3-1.4.7-1.9s1-.7 1.7-.7 1.2.2 1.6.7c.4.4.6 1.1.6 1.9zm12.5-3.8c.4 0 .8 0 1.1.1l-.2 1.4c-.3-.1-.7-.1-1-.1-.5 0-.9.1-1.3.4s-.7.6-1 1.1-.3 1-.3 1.5v4.8h-1.5v-9h1.2l.2 1.7h.1c.3-.6.8-1.1 1.2-1.4s.9-.5 1.5-.5zm5.9 0c-1.2 0-2.2.4-2.9 1.3s-1.1 2-1.1 3.5c0 1.4.4 2.6 1.2 3.4s1.8 1.2 3.2 1.2c.6 0 1.1 0 1.6-.1.4-.1.9-.2 1.4-.5v-1.3c-.6.2-1.1.4-1.5.5s-.9.1-1.4.1c-.9 0-1.6-.3-2.1-.8s-.8-1.3-.9-2.3h6.2v-.9c0-1.3-.3-2.2-1-3-.7-.7-1.6-1.1-2.7-1.1zm-2.4 3.8c.1-.8.3-1.4.7-1.9s1-.7 1.7-.7 1.2.2 1.6.7c.4.4.6 1.1.6 1.9zm14.2-3.8v.7c0 .3 0 .6.1.7h-.1c-.7-.9-1.6-1.3-2.8-1.3s-2.1.4-2.7 1.2-1 2-1 3.5.3 2.6 1 3.4c.6.8 1.6 1.2 2.7 1.2 1.2 0 2.2-.5 2.8-1.4h.1l.2 1.2h1.2v-12.8h-1.5zm.1 5c0 1.1-.2 1.9-.6 2.4s-1.1.7-2 .7c-.8 0-1.4-.3-1.8-.9s-.6-1.4-.6-2.5.2-2 .6-2.6 1-.9 1.8-.9c.9 0 1.6.3 2 .8s.6 1.4.6 2.7zm12.6-5c-1.3 0-2.2.4-2.8 1.3h-.1c.1-.6.1-1.2.1-1.9v-3.1h-1.5v12.8h1.1c0-.1.1-.5.3-1.1h.1c.3.4.7.8 1.2 1s1 .3 1.6.3c1.2 0 2.1-.4 2.7-1.2.7-.8 1-2 1-3.5s-.3-2.6-1-3.4c-.6-.8-1.5-1.2-2.7-1.2zm1.6 7.3c-.4.6-1 .9-1.8.9-.9 0-1.6-.3-2-.8s-.6-1.4-.6-2.6v-.1c0-1.2.2-2.1.6-2.6s1-.8 2-.8c.8 0 1.4.3 1.8.9s.6 1.4.6 2.6c0 1-.2 1.9-.6 2.5zm11.3-7.1-3.9 10.3c-.4 1-.8 1.7-1.3 2.1s-1.2.6-1.9.6c-.4 0-.8 0-1.2-.1v-1.2c.3.1.6.1 1 .1.5 0 .9-.1 1.2-.4s.6-.7.8-1.2l.5-1.2-3.7-9h1.6l1.9 5.1c.4 1.1.7 1.9.8 2.5h.1c0-.2.2-.6.3-1.1.2-.6.3-1 .4-1.3l1.8-5.1h1.6z"/></svg>
