<svg width="24" height="24" viewBox="0 0 24 24" fill="none" xmlns="http://www.w3.org/2000/svg">
	<path
		d="M11.7758 4.45425C11.8675 4.26843 12.1325 4.26844 12.2242 4.45425L14.293 8.64607C14.3294 8.71986 14.3998 8.771 14.4812 8.78283L19.1072 9.45502C19.3122 9.48482 19.3941 9.73681 19.2457 9.88145L15.8983 13.1443C15.8394 13.2018 15.8125 13.2845 15.8264 13.3656L16.6167 17.9729C16.6517 18.1771 16.4373 18.3328 16.2539 18.2364L12.1163 16.0612C12.0435 16.0229 11.9565 16.0229 11.8837 16.0612L7.74609 18.2364C7.56268 18.3328 7.34832 18.1771 7.38335 17.9729L8.17356 13.3656C8.18747 13.2845 8.16058 13.2018 8.10166 13.1443L4.75428 9.88145C4.60591 9.73681 4.68778 9.48482 4.89284 9.45502L9.51879 8.78283C9.60022 8.771 9.67061 8.71986 9.70703 8.64607L11.7758 4.45425Z"
		fill="#008710"
	/>
</svg>
