<svg enable-background="new 0 0 142 142" viewBox="0 0 142 142" xmlns="http://www.w3.org/2000/svg"><path d="m102.6 49.6h-2.5c-.3 0-.5-.2-.5-.5s.2-.5.5-.5h2v-2c0-.3.2-.5.5-.5s.5.2.5.5v2.5c0 .3-.2.5-.5.5zm-7.9 0h-5.4c-.3 0-.5-.2-.5-.5s.2-.5.5-.5h5.4c.3 0 .5.2.5.5s-.2.5-.5.5zm-10.7 0h-5.4c-.3 0-.5-.2-.5-.5s.2-.5.5-.5h5.4c.3 0 .5.2.5.5s-.2.5-.5.5zm-10.7 0h-5.4c-.3 0-.5-.2-.5-.5s.2-.5.5-.5h5.4c.3 0 .5.2.5.5s-.2.5-.5.5zm-10.7 0h-5.4c-.3 0-.5-.2-.5-.5s.2-.5.5-.5h5.4c.3 0 .5.2.5.5s-.3.5-.5.5zm-10.8 0h-5.4c-.3 0-.5-.2-.5-.5s.2-.5.5-.5h5.4c.3 0 .5.2.5.5s-.2.5-.5.5zm-10.7 0h-2.5c-.3 0-.5-.2-.5-.5v-2.5c0-.3.2-.5.5-.5s.5.2.5.5v2h2c.3 0 .5.2.5.5s-.2.5-.5.5zm-2.5-5.9c-.3 0-.5-.2-.5-.5v-3.5c0-.3.2-.5.5-.5s.5.2.5.5v3.5c0 .2-.2.5-.5.5zm0-7c-.3 0-.5-.2-.5-.5v-2.5c0-.3.2-.5.5-.5h2.5c.3 0 .5.2.5.5s-.2.5-.5.5h-2v2c0 .3-.2.5-.5.5zm56.1-2.5h-5.4c-.3 0-.5-.2-.5-.5s.2-.5.5-.5h5.4c.3 0 .5.2.5.5s-.2.5-.5.5zm-10.7 0h-5.4c-.3 0-.5-.2-.5-.5s.2-.5.5-.5h5.4c.3 0 .5.2.5.5s-.2.5-.5.5zm-10.7 0h-5.4c-.3 0-.5-.2-.5-.5s.2-.5.5-.5h5.4c.3 0 .5.2.5.5s-.2.5-.5.5zm-10.7 0h-5.4c-.3 0-.5-.2-.5-.5s.2-.5.5-.5h5.4c.3 0 .5.2.5.5s-.3.5-.5.5zm-10.8 0h-5.4c-.3 0-.5-.2-.5-.5s.2-.5.5-.5h5.4c.3 0 .5.2.5.5s-.2.5-.5.5zm50.8 2.5c-.3 0-.5-.2-.5-.5v-2h-2c-.3 0-.5-.2-.5-.5s.2-.5.5-.5h2.5c.3 0 .5.2.5.5v2.5c0 .3-.2.5-.5.5zm0 7c-.3 0-.5-.2-.5-.5v-3.5c0-.3.2-.5.5-.5s.5.2.5.5v3.5c0 .2-.2.5-.5.5zm-42.6 69h-2.5c-.3 0-.5-.2-.5-.5s.2-.5.5-.5h2v-2c0-.3.2-.5.5-.5s.5.2.5.5v2.5c0 .3-.2.5-.5.5zm-7.9 0h-5.5c-.3 0-.5-.2-.5-.5s.2-.5.5-.5h5.5c.3 0 .5.2.5.5s-.3.5-.5.5zm-11 0h-2.5c-.3 0-.5-.2-.5-.5v-2.5c0-.3.2-.5.5-.5s.5.2.5.5v2h2c.3 0 .5.2.5.5s-.2.5-.5.5zm-2.5-7.6c-.3 0-.5-.2-.5-.5v-5.1c0-.3.2-.5.5-.5s.5.2.5.5v5.1c0 .2-.2.5-.5.5zm0-10.3c-.3 0-.5-.2-.5-.5v-5.1c0-.3.2-.5.5-.5s.5.2.5.5v5.1c0 .3-.2.5-.5.5zm0-10.3c-.3 0-.5-.2-.5-.5v-5.1c0-.3.2-.5.5-.5s.5.2.5.5v5.1c0 .3-.2.5-.5.5zm0-10.3c-.3 0-.5-.2-.5-.5v-5.1c0-.3.2-.5.5-.5s.5.2.5.5v5.1c0 .3-.2.5-.5.5zm0-10.3c-.3 0-.5-.2-.5-.5v-2.5c0-.3.2-.5.5-.5h2.5c.3 0 .5.2.5.5s-.2.5-.5.5h-2v2c0 .3-.2.5-.5.5zm13.5-2.5h-5.5c-.3 0-.5-.2-.5-.5s.2-.5.5-.5h5.5c.3 0 .5.2.5.5s-.3.5-.5.5zm7.9 2.5c-.3 0-.5-.2-.5-.5v-2h-2c-.3 0-.5-.2-.5-.5s.2-.5.5-.5h2.5c.3 0 .5.2.5.5v2.5c0 .3-.2.5-.5.5zm0 41.2c-.3 0-.5-.2-.5-.5v-5.1c0-.3.2-.5.5-.5s.5.2.5.5v5.1c0 .2-.2.5-.5.5zm0-10.3c-.3 0-.5-.2-.5-.5v-5.1c0-.3.2-.5.5-.5s.5.2.5.5v5.1c0 .3-.2.5-.5.5zm0-10.3c-.3 0-.5-.2-.5-.5v-5.1c0-.3.2-.5.5-.5s.5.2.5.5v5.1c0 .3-.2.5-.5.5zm0-10.3c-.3 0-.5-.2-.5-.5v-5.1c0-.3.2-.5.5-.5s.5.2.5.5v5.1c0 .3-.2.5-.5.5zm42.6 38.5h-2.5c-.3 0-.5-.2-.5-.5s.2-.5.5-.5h2v-2c0-.3.2-.5.5-.5s.5.2.5.5v2.5c0 .3-.2.5-.5.5zm-7.4 0h-4.9c-.3 0-.5-.2-.5-.5s.2-.5.5-.5h4.9c.3 0 .5.2.5.5s-.2.5-.5.5zm-9.8 0h-4.9c-.3 0-.5-.2-.5-.5s.2-.5.5-.5h4.9c.3 0 .5.2.5.5s-.2.5-.5.5zm-9.7 0h-2.5c-.3 0-.5-.2-.5-.5v-2.5c0-.3.2-.5.5-.5s.5.2.5.5v2h2c.3 0 .5.2.5.5s-.3.5-.5.5zm-2.5-7.6c-.3 0-.5-.2-.5-.5v-5.1c0-.3.2-.5.5-.5s.5.2.5.5v5.1c0 .2-.3.5-.5.5zm0-10.3c-.3 0-.5-.2-.5-.5v-5.1c0-.3.2-.5.5-.5s.5.2.5.5v5.1c0 .3-.3.5-.5.5zm0-10.3c-.3 0-.5-.2-.5-.5v-5.1c0-.3.2-.5.5-.5s.5.2.5.5v5.1c0 .3-.3.5-.5.5zm0-10.3c-.3 0-.5-.2-.5-.5v-5.1c0-.3.2-.5.5-.5s.5.2.5.5v5.1c0 .3-.3.5-.5.5zm0-10.3c-.3 0-.5-.2-.5-.5v-2.5c0-.3.2-.5.5-.5h2.5c.3 0 .5.2.5.5s-.2.5-.5.5h-2v2c0 .3-.3.5-.5.5zm22-2.5h-4.9c-.3 0-.5-.2-.5-.5s.2-.5.5-.5h4.9c.3 0 .5.2.5.5s-.2.5-.5.5zm-9.8 0h-4.9c-.3 0-.5-.2-.5-.5s.2-.5.5-.5h4.9c.3 0 .5.2.5.5s-.2.5-.5.5zm17.2 2.5c-.3 0-.5-.2-.5-.5v-2h-2c-.3 0-.5-.2-.5-.5s.2-.5.5-.5h2.5c.3 0 .5.2.5.5v2.5c0 .3-.2.5-.5.5zm0 41.2c-.3 0-.5-.2-.5-.5v-5.1c0-.3.2-.5.5-.5s.5.2.5.5v5.1c0 .2-.2.5-.5.5zm0-10.3c-.3 0-.5-.2-.5-.5v-5.1c0-.3.2-.5.5-.5s.5.2.5.5v5.1c0 .3-.2.5-.5.5zm0-10.3c-.3 0-.5-.2-.5-.5v-5.1c0-.3.2-.5.5-.5s.5.2.5.5v5.1c0 .3-.2.5-.5.5zm0-10.3c-.3 0-.5-.2-.5-.5v-5.1c0-.3.2-.5.5-.5s.5.2.5.5v5.1c0 .3-.2.5-.5.5zm-72.7 52.6 10.9-.3 10.9-.2 21.8-.2 43.6-.1-1.1 1 .1-110 1 1-93.1-.2.8-.8-.2 55-.3 55c0 .2-.2.4-.4.4s-.4-.2-.4-.4l-.3-55-.2-55c0-.5.4-.8.8-.8l93.1-.2c.6 0 1 .5 1 1l.1 110c0 .6-.5 1.1-1.1 1.1l-43.4-.1-21.8-.2-10.9-.2-10.9-.3c-.1 0-.2-.1-.2-.2 0-.2.1-.3.2-.3zm45.3-17.7c-.1 0-.2 0-.2-.1-.2-.1-.3-.4-.2-.7l2.5-4.3c.1-.2.4-.3.7-.2.2.1.3.4.2.7l-2.5 4.3c-.1.3-.3.3-.5.3zm5-8.6c-.1 0-.2 0-.2-.1-.2-.1-.3-.4-.2-.7l2.5-4.3c.1-.2.4-.3.7-.2.2.1.3.4.2.7l-2.5 4.3c-.2.2-.3.3-.5.3zm5-8.7c-.1 0-.2 0-.2-.1-.2-.1-.3-.4-.2-.7l2.5-4.3c.1-.2.4-.3.7-.2.2.1.3.4.2.7l-2.5 4.3c-.2.2-.3.3-.5.3zm5-8.7c-.1 0-.2 0-.2-.1-.2-.1-.3-.4-.2-.7l2.5-4.3c.1-.2.4-.3.7-.2.2.1.3.4.2.7l-2.5 4.3c-.2.2-.4.3-.5.3zm4.9-8.6c-.1 0-.2 0-.2-.1-.2-.1-.3-.4-.2-.7l2.5-4.3c.1-.2.4-.3.7-.2.2.1.3.4.2.7l-2.5 4.3c-.1.2-.3.3-.5.3zm5-8.7c-.1 0-.2 0-.2-.1-.2-.1-.3-.4-.2-.7l2.5-4.3c.1-.2.4-.3.7-.2.2.1.3.4.2.7l-2.5 4.3c-.1.2-.3.3-.5.3z" fill="#a7aaad"/></svg>
