<svg xmlns="http://www.w3.org/2000/svg" width="24" height="24" viewBox="0 0 24 24" fill="none">
    <path fill-rule="evenodd" clip-rule="evenodd"
        d="M9.24155 10.0159C9.31208 10.0054 9.38426 10 9.45771 10C9.77958 10 10.0633 9.78887 10.1558 9.48058L11.3423 5.52577C11.4359 5.21371 11.7231 5 12.0489 5C13.6788 5 15 6.32124 15 7.95108V9.5C15 9.77614 15.2239 10 15.5 10H17.4384C18.7396 10 19.6943 11.2228 19.3787 12.4851L18.3787 16.4851C18.1561 17.3754 17.3562 18 16.4384 18H10C9.52703 18 9.0924 17.8358 8.75 17.5613C8.4076 17.8358 7.97297 18 7.5 18H6C5.44772 18 5 17.5523 5 17V10C5 9.44772 5.44772 9 6 9H7.5C8.24683 9 8.89806 9.40935 9.24155 10.0159ZM15.5 11.5H17.4384C17.7637 11.5 18.0024 11.8057 17.9235 12.1213L16.9235 16.1213C16.8679 16.3439 16.6679 16.5 16.4384 16.5H10C9.72386 16.5 9.5 16.2761 9.5 16V11.4996C10.4668 11.4814 11.3138 10.8408 11.5926 9.9116L12.5853 6.60237C13.1212 6.81569 13.5 7.33915 13.5 7.95108V9.5C13.5 10.6046 14.3954 11.5 15.5 11.5ZM8 16V11C8 10.7239 7.77614 10.5 7.5 10.5H6.5V16.5H7.5C7.77614 16.5 8 16.2761 8 16Z"
        fill="black" />
</svg>