<svg xmlns="http://www.w3.org/2000/svg" width="24" height="24" viewBox="0 0 24 24" fill="none">
    <path fill-rule="evenodd" clip-rule="evenodd"
        d="M15.1979 12.9841C15.1273 12.9946 15.0552 13 14.9817 13C14.6599 13 14.3761 13.2111 14.2836 13.5194L13.0972 17.4742C13.0035 17.7863 12.7163 18 12.3905 18C10.7607 18 9.43943 16.6788 9.43943 15.0489V13.5C9.43943 13.2239 9.21557 13 8.93943 13H7.00098C5.69984 13 4.74513 11.7772 5.0607 10.5149L6.0607 6.51493C6.28328 5.62459 7.08325 5 8.00098 5L14.4394 5C14.9124 5 15.347 5.16418 15.6894 5.43866C16.0318 5.16418 16.4665 5 16.9394 5L18.4394 5C18.9917 5 19.4394 5.44772 19.4394 6V13C19.4394 13.5523 18.9917 14 18.4394 14H16.9394C16.1926 14 15.5414 13.5906 15.1979 12.9841ZM8.93943 11.5H7.00098C6.6757 11.5 6.43702 11.1943 6.51591 10.8787L7.51591 6.87873C7.57156 6.65615 7.77155 6.5 8.00098 6.5L14.4394 6.5C14.7156 6.5 14.9394 6.72386 14.9394 7V11.5004C13.9727 11.5186 13.1256 12.1592 12.8469 13.0884L11.8541 16.3976C11.3182 16.1843 10.9394 15.6608 10.9394 15.0489V13.5C10.9394 12.3954 10.044 11.5 8.93943 11.5ZM16.4394 7V12C16.4394 12.2761 16.6633 12.5 16.9394 12.5H17.9394V6.5H16.9394C16.6633 6.5 16.4394 6.72386 16.4394 7Z"
        fill="black" />
</svg>