<svg viewBox="240.139 153.744 162.123 178.5" width="162.123" height="178.5" xmlns="http://www.w3.org/2000/svg"><path d="M144 88.9c-12.1-21.9-28.4-29-42.8-32.3-10.4 1-14.7-.9-16.4-3-.5-.1-.9-.2-1.3-.3C81.1 60 69 64.8 65.6 64.6c-1.5-.1-2.6-.9-3.4-1.8-12.8 9.7-21.5 25.5-21.5 42.8 0 28.5 22.5 51.7 50.7 52.9 0 0 11.4-9.4 20.1-24.9 4.5-11.7 20-17.8 33-12.9 1.4-4.8 2.2-9.9 2.2-15.1 0-5.8 0-11.8-2.7-16.7z" style="fill:#3499cd" transform="matrix(-1 0 0 1 426.441 131.444)"/><path stroke="#231815" stroke-width="3" stroke-miterlimit="10" d="M147.4 106.8c.1 29.4-25.6 51.8-53.4 51.8s-53.5-22.4-53.4-51.8c0-28.4 24.1-52.2 53.4-51.7 29.3-.5 53.4 23.3 53.4 51.7z" style="fill:#3499cd" transform="matrix(-1 0 0 1 426.441 131.444)"/><path fill="#f89938" d="M367.241 191.144c13 3.7 14.3-2.3 11.3-3s-11-5.3-15-9.3l3.7 12.3z"/><path d="M374.341 193.444c3.4 0 5.1-1 5.9-1.9.9-.9 1.2-2.1.9-3.2-.3-1.1-1.2-1.9-2.4-2.1-2.6-.6-10.3-5-14.3-8.9-.6-.6-1.5-.6-2.1 0-.6.6-.6 1.5 0 2.1 4.1 4.1 12.4 9 15.7 9.7.1 0 .2.1.2.1s-.1.2-.4.4c-.6.4-3.2 1.6-10.4-.4-.8-.2-1.6.2-1.9 1-.2.8.2 1.6 1 1.9 3.4 1 5.9 1.3 7.8 1.3z"/><path fill="#f89938" d="M294.941 288.444c14.3 26.3 52.8 39.6 64 20.7 7.3-12.3 22-13 22.3-1.3.3 10.3-23.9 27.2-45.7 22-25.3-6-47.7-26.7-53.3-48.3l12.7 6.9z"/><path d="M343.741 332.244c11.7 0 23.1-5 30.4-10.9 5.5-4.5 8.6-9.5 8.5-13.6-.2-4.9-2.6-8.4-6.8-9.5-5.3-1.4-13.3 1.7-18.3 10.1-4.1 6.9-11.6 8.3-17.1 8.2-16.5-.3-35.5-12.7-44.3-28.8-.4-.7-1.3-1-2-.6s-1 1.3-.6 2c9.2 17 29.4 30 46.8 30.3 9 .1 16-3.2 19.8-9.6 4.3-7.2 10.7-9.8 15-8.7 2.8.7 4.5 3.1 4.6 6.7.1 3.1-2.7 7.3-7.4 11.2-8.5 6.9-23 12.5-36.4 9.3-24.6-5.8-46.6-25.7-52.2-47.3-.2-.8-1-1.3-1.8-1.1-.8.2-1.3 1-1.1 1.8 5.9 22.6 28.8 43.3 54.4 49.4 2.7.8 5.6 1.1 8.5 1.1z"/><path class="cls-1" d="M332.255 276.312c-25.429 0-41.91-18.299-41.91-37.366v-2.383c0-19.39 16.481-37.366 41.91-37.366 25.429 0 42.011 17.976 42.011 37.366v2.383c0 19.006-16.481 37.366-42.011 37.366Zm28.438-39.528c0-13.896-10.098-26.256-28.438-26.256-18.339 0-28.276 12.381-28.276 26.256v1.718c0 13.896 10.098 26.499 28.276 26.499 18.179 0 28.438-12.603 28.438-26.499v-1.718Z" style="stroke-width:5px;paint-order:fill"/><rect class="cls-1" x="500.499" y="213.247" width="33.165" height="10.443" rx="2.58" transform="rotate(-57.15 442.598 398.079)" style="paint-order:stroke;stroke-width:4px"/><g fill="#ffd200"><path d="M286.741 163.444c7.6-5.4 16.4-9.1 26.7-9.4 22-.6 40.3 9.1 50 24.4 6.5 10.3 1.7 16-1.3 17.3-3 1.3-15.7-3.7-19.3-10.3-8.7 5.3-16.5 3.6-24.8.9l-11.8 2.4-.3.1c.5-.1 1.1-.2 1.6-.3.4-.1.7-.1 1.1-.2h.2c1.7-.2 3.5-.3 5.2-.3-11.7 2.5-40.8 11.9-31.4 32.3.1.1-.3.5-.4.8-.2 1.1-1.8 7.5-2.3 14.5v2c0 1.8.1 2.9.2 4.4.3 3 .7 6.2 2.1 10.2-4.9 3.9-9.2 9.8-9.9 18.4-13.5-22.2-10.8-61.4-4.4-79.5 1.7-4.9 2.8-8.2 6.5-13.6 2.5-3.9 8.1-11.1 12.3-14.1zm98.4 88.3c8.1-6.3 17.3-.7 15.3 9-1.6 7.9-15.1 22.7-24.7 25-8.3 2-6.6-7-5.3-10 2.3-5.3 10.3-20.6 14.7-24z"/><path d="M282.041 252.244s0 .1.1.1c9.8-5.7 27.5.7 32.9 12.8 2.7-6.8 11.4-19.6 18.8-14.7 8 5.3 2.7 16.7 1.3 25.3-1.3 8.7 3.3 22-7.7 22-5.7 0-9-3.2-10.9-6.2-8.2.6-21.2-1-34.5-10.1-4-2.8-7.3-6.5-9.9-10.8.8-8.6 5-14.5 9.9-18.4zm85.7-56.5c3.4-1.3 11.7 4.4 10.7 9.7s-7 5.3-11 1.3-2.9-9.7.3-11zm-61.7-7-.3.1c11.5-2.3 24.2.7 31.3 7 8.4 7.3 2.7 12.6-3.6 13.3-6.3.7-18.7-5-28.3-3-9.7 2-12.6 5.5-23 14.9 0 0 0 .1-.1.2-14.6-19.7 9.6-28.9 24-32.5z"/></g><path d="M283.641 165.344c-7.9 6-14.2 18.7-17 26.3-3.8 10.1-6.5 28.8-4.9 47.6 1.3 14.9 5.7 34.7 19.8 44.4 13 8.9 25.2 10.5 32.2 10.5 1.4 0 2.7-.1 3.6-.1.8-.1 1.5-.7 1.5-1.4 0-.9-.8-1.6-1.6-1.6-5.3.5-19.1.4-34-9.8-23.5-16.2-21.4-67-13.8-88.6 2-5.6 8.4-20.1 19.5-27.7l.7-.5c7-4.9 15.2-7.6 24.1-7.9 20.8-.6 39 8.2 48.7 23.6 2.7 4.2 3.6 8.1 2.7 11.1-.7 2.2-2.2 3.6-3.3 4.1-1.9.8-13.9-3.3-17.4-9.7-.2-.4-.5-.6-.9-.7-.4-.1-.8 0-1.2.2-8.2 5-17.4 2.7-25.4.2-.8-.3-1.6.2-1.9 1-.3.8.2 1.6 1 1.9 8.8 2.8 18.1 4.8 26.6.3 4.7 6.6 16.7 11.3 20.4 9.7 1.8-.8 4-2.8 5-5.9.8-2.7 1-7.3-3-13.6-10.3-16.3-29.5-25-51.3-25-10.5 0-20.1 4-28.3 10.3"/><path d="M278.741 224.944c.4 0 .7-.1 1-.4l1.2-1.1c9.7-8.8 15.6-14.1 24.4-15.9 5.3-1.1 11.7.3 17.4 1.6 4.3.9 8 1.8 10.8 1.5 4.4-.5 7.9-2.8 8.9-5.9.7-2.2.5-5.7-4.4-10-9.2-8.1-26.1-10.5-38.5-5.6-.8.3-1.1 1.2-.8 1.9.3.8 1.2 1.2 1.9.8 11.5-4.5 27.1-2.3 35.5 5.1 2.9 2.5 4.1 5 3.5 6.9-.6 2-3.2 3.5-6.3 3.8-2.4.2-6-.6-9.9-1.4-5.9-1.3-12.6-2.8-18.6-1.6-9.7 2-16.1 7.8-25.8 16.6l-1.2 1.1c-.6.6-.7 1.5-.1 2.1.2.3.6.5 1 .5zm48.7 74.8c2.9 0 5.2-.8 6.8-2.5 3.1-3.2 2.9-8.5 2.7-13.7-.1-2.6-.2-5.3.2-7.5.3-1.8.8-3.8 1.2-5.9 1.9-7.7 4-16.5-3.4-21.4-1.4-.9-3-1.4-4.6-1.4-8.7 0-16.3 13.7-17.8 18.9-2.6 8.8-2 14.2 0 20.3.8 4.7 5 13.2 14.9 13.2zm2.9-48.4c.8 0 1.6.2 2.4.8 4.7 3.1 3.8 8.8 1.8 17.2-.5 2.1-1 4.2-1.3 6.2-.4 2.6-.3 5.5-.2 8.3.1 4.3.3 8.8-1.6 10.8-.8.8-2.1 1.3-3.9 1.3-9.1 0-11-9.6-11-10 0-.1 0-.2-.1-.3-1.8-5.6-2.3-10.2 0-18.2 1.4-5.5 8.5-16.1 13.9-16.1z"/><path d="M294.941 249.344c9.2.9 16.8 6.2 20.8 14.4.4.7.1 1.6-.7 2-.2.1-.4.2-.7.2-.6 0-1.1-.3-1.3-.8-4.9-9.9-13.6-12.2-18.4-12.7-6.5-.7-13.1 1.3-15.7 4.7-.5.7-1.4.8-2.1.3-.7-.5-.8-1.4-.3-2.1.9-1.2 2.2-2.3 3.8-3.1-1.4-4.8-2.1-9.9-2.1-15 0-5.9.9-11.7 2.8-17.2.3-.8 1.1-1.2 1.9-.9.8.3 1.2 1.1.9 1.9-1.7 5.2-2.6 10.7-2.6 16.3 0 4.7.6 9.2 1.8 13.7 3.5-1.5 7.7-2.1 11.9-1.7zm78.7 38.2c.8 0 1.6-.1 2.5-.3 10.1-2.4 24-17.7 25.8-26.2.8-3.8.1-7.3-2-9.9-1.9-2.3-4.6-3.6-7.7-3.6-2.7 0-5.5 1-8 3-4.9 3.8-13.3 20.5-15.1 24.6-.8 1.7-2.2 6.9-.2 10.1.7 1.1 2 2.3 4.7 2.3zm18.6-36.9c2.2 0 4.1.9 5.3 2.5 1.5 1.9 2 4.5 1.4 7.4-1.5 7.4-14.7 21.7-23.5 23.8-.7.2-1.3.2-1.8.2-1.4 0-1.9-.5-2.2-1-1.1-1.7-.5-5.3.4-7.2 2.5-5.6 10.3-20.4 14.2-23.4 2-1.5 4.1-2.3 6.2-2.3zm-18.6-39.5c3.3 0 5.7-2.1 6.3-5.4.4-2.2-.4-4.6-2.2-6.8-2.4-2.8-6.1-4.9-8.8-4.9-.6 0-1.2.1-1.7.3-1.8.7-3.2 2.5-3.7 4.8-.6 3 .4 6.3 2.8 8.7 2.1 2.1 4.8 3.3 7.3 3.3zm-4.7-14.1c1.6 0 4.6 1.5 6.5 3.8.7.9 1.9 2.6 1.5 4.3-.5 2.4-2.1 3-3.4 3-1.7 0-3.6-.9-5.1-2.4-1.7-1.7-2.4-3.9-2-5.9.3-1.3 1-2.2 1.9-2.6.1-.1.3-.2.6-.2zm-29.8-22.3c-3-.3-2.7 3 0 5 2.5 1.8 2.7 1.7 5.3 1.3 2.7-.3 3.4-2.5 1-4.3-1.3-1-3.3-1.6-6.3-2Z"/><path fill="#f89938" d="M287.453 163.444c6-.5 1.3 4-.7 5.7s-16.3 14.7-29.7 10.7c-13.3-4-17.3-15-14.7-15.7 2.8-.7 32.8.3 45.1-.7z"/><path d="M262.453 182.044c5.3 0 13.8-2 25-11.5l.4-.3c4.9-4.1 4.2-6 4-6.6-.4-1.2-1.6-1.8-3.5-1.8h-1c-5.2.4-13.7.5-19.6.5h-16.9c-6.4 0-8.1.1-8.8.3-1.2.3-1.9 1.3-1.9 2.8-.1 3.6 4.8 12.3 16.5 15.8 1.9.5 3.8.8 5.8.8zm26.3-17.1c-.4.6-1.3 1.8-2.9 3l-.4.3c-10.4 8.9-18.3 10.8-23 10.8-1.7 0-3.3-.2-4.9-.7-7.3-2.2-11.8-6.7-13.6-10.2-.7-1.3-.8-2.2-.8-2.6 1-.1 3.6-.2 7.7-.2h16.9c6 0 14.5 0 19.8-.5.5.1.9.1 1.2.1z"/><g transform="matrix(-1 0 0 1 426.441 131.444)"><circle cx="103.7" cy="40.5" r="3"/><circle cx="69" cy="48.9" r="3"/></g><path d="M331.968 270.762c-10.73 0-19.672-3.903-25.836-9.78-6.171-5.883-9.68-13.887-9.701-21.958v-1.992c.021-8.206 3.53-16.211 9.702-22.061 6.165-5.842 15.107-9.677 25.835-9.677 10.727 0 19.69 3.834 25.876 9.677 6.193 5.849 9.724 13.855 9.745 22.061v1.992c-.021 8.045-3.53 16.05-9.712 21.939-6.174 5.883-15.137 9.799-25.909 9.799Zm25.219-10.523c6.043-5.757 9.423-13.371 9.402-21.215v-1.992c.021-8.004-3.379-15.617-9.432-21.334-6.06-5.724-14.658-9.404-25.189-9.404s-19.108 3.679-25.147 9.403c-6.031 5.717-9.411 13.331-9.39 21.335v1.992c-.021 7.869 3.359 15.484 9.391 21.235 6.04 5.757 14.617 9.503 25.146 9.503 10.571 0 19.169-3.758 25.219-9.523Zm-.945-21.586c-.017 5.899-2.219 11.628-6.333 15.785-4.108 4.151-10.241 6.868-17.941 6.868-7.7 0-13.801-2.718-17.875-6.87-4.08-4.157-6.248-9.885-6.264-15.783v-1.436c.016-5.888 2.15-11.567 6.215-15.677 4.058-4.103 10.158-6.773 17.924-6.773s13.899 2.665 17.99 6.765c4.099 4.108 6.267 9.787 6.284 15.685Zm-1-1.436c.017-5.719-2.036-11.015-5.991-14.978-3.962-3.971-9.717-6.472-17.283-6.472-7.566 0-13.285 2.505-17.213 6.477-3.922 3.965-5.942 9.261-5.926 14.973v1.436c-.016 5.719 2.037 11.068 5.977 15.083 3.946 4.02 9.665 6.57 17.162 6.57s13.251-2.551 17.23-6.572c3.974-4.015 6.061-9.363 6.044-15.081Z" style="fill:none"/><path d="M420.996 177.774h22.566c.815.022 1.648.372 2.178.902s.88 1.363.902 2.178v3.57c-.022.815-.372 1.648-.902 2.178s-1.363.88-2.178.902h-22.566c-.815-.022-1.648-.372-2.178-.902s-.88-1.363-.902-2.178v-3.57c.022-.815.372-1.648.902-2.178s1.363-.88 2.178-.902Zm-1.471 1.609c-.404.404-.631.861-.609 1.471v3.57c-.022.61.205 1.067.609 1.471.404.404.861.631 1.471.609h22.566c.61.022 1.067-.205 1.471-.609.404-.404.631-.861.609-1.471v-3.57c.022-.61-.205-1.067-.609-1.471-.404-.404-.861-.631-1.471-.609h-22.566c-.61-.022-1.067.205-1.471.609Z" style="fill:none" transform="rotate(-57.15 433.16 302.666)"/></svg>