<?xml version="1.0" encoding="UTF-8"?>
<svg id="Layer_2" data-name="Layer 2" xmlns="http://www.w3.org/2000/svg" viewBox="0 0 38.14 19.84">
  <defs>
    <style>
      .cls-1 {
        fill: #f80;
      }
    </style>
  </defs>
  <g id="Layer_1-2" data-name="Layer 1">
    <g id="tail">
      <path d="M33.7,5.54c-2.44,0-4.92,1.61-6.46,4.21-1.17,1.96-3.34,2.38-4.96,2.38h0c-3.84,0-9.05-2.33-12.66-6.38l-1.94-2.1-.27-.58-2.14-.78L3.23,1.28,1.26,0,0,1.72c2.41,8.14,10.7,15.55,19.96,17.74,1.08,.25,2.21,.38,3.36,.38,5.22,0,10.09-2.62,12.61-5.21,1.49-1.54,2.26-3.13,2.21-4.59-.09-2.69-1.87-4.5-4.43-4.5Zm-.31,8.53c-3.01,2.46-8.18,4.44-12.94,3.31C12.23,15.44,4.84,9.09,2.33,1.98c1.06,.64,2.11,1.14,3.11,1.54,3.28,6.01,10.42,10.62,16.61,10.74,3.2,.05,5.68-1.15,7.02-3.41,1.51-2.54,3.82-3.48,5.32-3.09,1.01,.26,1.58,1.1,1.62,2.36,.04,1.11-.94,2.59-2.62,3.96Z"/>
      <path class="cls-1" d="M34.38,7.76c-1.5-.39-3.81,.55-5.32,3.09-1.35,2.26-3.82,3.47-7.02,3.41-6.19-.12-13.33-4.73-16.61-10.74-1-.4-2.04-.9-3.11-1.54,2.52,7.11,9.9,13.46,18.12,15.41,4.76,1.13,9.93-.85,12.94-3.31,1.68-1.37,2.65-2.85,2.62-3.96-.04-1.26-.62-2.1-1.62-2.36Z"/>
    </g>
  </g>
</svg>