<?xml version="1.0" encoding="UTF-8"?>
<svg id="Layer_2" data-name="Layer 2" xmlns="http://www.w3.org/2000/svg" viewBox="0 0 45.08 62.01">
  <defs>
    <style>
      .cls-1 {
        fill: none;
      }

      .cls-2 {
        fill: #007cba;
      }

      .cls-3 {
        fill: #f0f0f0;
      }

      .cls-4 {
        fill: #0a689d;
      }

      .cls-5 {
        fill: #f80;
      }

      .cls-5, .cls-6, .cls-7 {
        fill-rule: evenodd;
      }

      .cls-6 {
        fill: #ffd200;
      }
    </style>
  </defs>
  <g id="Layer_1-2" data-name="Layer 1">
    <g id="noear-notail">
      <path d="M33.48,11.29s-.04,0-.06,0c0,0-18.45-.56-18.75-.57h0c-.39-.01-.74-.2-.98-.52-.88-1.17-.07-4.45,.1-5.09,.3-1.13,.95-2.7,2.36-3.75C17.76,.15,19.8,.03,21.74,0c2.6-.03,5.55,.07,7.9,1.67,.91,.62,1.66,1.43,2.33,2.2,.04,.05,3.6,4.88,2.74,6.68-.22,.46-.67,.73-1.23,.73Z"/>
      <g>
        <g>
          <path class="cls-2" d="M30.17,4.4c-.57-.67-1.18-1.31-1.9-1.81-1.86-1.27-4.26-1.37-6.52-1.34-.71,0-1.43,.04-2.13,.15l-1,2.11c-.58,1.22-.99,2.51-1.21,3.83l-.34,1.95,14.91,.46c1.84,.06-1.4-4.89-1.8-5.35Z"/>
          <path class="cls-4" d="M18.62,3.5l1-2.11h0s-.14,.02-.17,.02c-.06,0-.11,.02-.17,.03-.76,.14-1.48,.39-2.1,.86-.91,.69-1.47,1.77-1.76,2.9-.1,.38-.42,1.86-.4,2.91,0,.01,0,.03,0,.04,.02,.51,.12,.92,.37,1.05,.05,.02,.1,.04,.17,.04,0,0,.57,.02,1.49,.05l.34-1.95c.23-1.33,.64-2.62,1.21-3.83Z"/>
        </g>
        <path class="cls-3" d="M26.93,3.18c-1.68-.28-3.25,.67-3.49,2.13s.92,2.87,2.6,3.15,3.25-.67,3.49-2.13-.92-2.87-2.6-3.15Zm-3.19,2.18c.06-.34,.2-.66,.4-.93l.78,3.32c-.85-.54-1.34-1.46-1.18-2.4Zm2.34,2.84c-.27-.05-.52-.12-.76-.23l1.17-1.93,.51,2.14s0,.02,.01,.04c-.3,.04-.61,.03-.93-.02Zm.96-3.42c.17,.02,.32,.03,.32,.03,.15,0,.16-.18,.01-.2,0,0-.45-.04-.74-.09-.27-.05-.72-.15-.72-.15-.15-.03-.2,.16-.05,.19,0,0,.14,.04,.28,.07l.26,1.09-.86,1.46-.56-2.74c.17,.02,.32,.03,.32,.03,.15,0,.16-.18,.01-.2,0,0-.45-.04-.74-.09-.05,0-.11-.02-.18-.03,.6-.56,1.51-.85,2.47-.68,.71,.12,1.32,.47,1.75,.94-.01,0-.02,0-.03,0-.27-.05-.49,.13-.53,.34-.03,.2,.07,.38,.18,.6,.08,.18,.16,.4,.11,.69-.03,.2-.16,.42-.34,.73l-.41,.74-.56-2.72Zm2.03,.32c.16,.37,.21,.78,.14,1.19-.15,.88-.82,1.55-1.71,1.82l1.19-1.95c.21-.31,.31-.57,.35-.81,.01-.09,.02-.17,.02-.25Z"/>
        <g>
          <path class="cls-4" d="M36.36,14.1c.29,.16,.6,.27,.94,.31,.61,.07,1.22-.14,1.81-.34,1.76-.61,4.59-2.27,2.43-4.31-.54-.51-1.24-.81-1.94-1.06-2.33-.84-4.81-1.26-7.28-1.31-1.86-.04-3.71,.17-5.54,.52-.62,.12-1.39,.41-1.99,.6-4.15,1.36,1.03,.85,1.65,.94,2.04,.29,4.03,.95,5.86,1.91,.94,.49,1.82,1.07,2.66,1.72,.45,.35,.89,.76,1.4,1.03Z"/>
          <path d="M37.53,15.1c-.1,0-.2,0-.31-.02-.41-.04-.79-.17-1.19-.39-.43-.23-.8-.53-1.16-.82l-.33-.27c-.81-.63-1.67-1.18-2.56-1.66-1.78-.94-3.67-1.56-5.64-1.84-.1-.01-.51,0-.85,0-1.89,.05-2.83,.08-2.97-.73-.13-.76,.69-1.08,2.05-1.53l.42-.14c.53-.18,1.12-.38,1.65-.48,2.06-.39,3.91-.57,5.68-.53,2.64,.05,5.16,.51,7.5,1.35,.75,.27,1.54,.61,2.17,1.21,1,.95,1.07,1.84,.94,2.42-.38,1.77-2.86,2.76-3.61,3.02-.51,.18-1.13,.39-1.79,.39Zm-11.37-6.34c.16,0,.28,0,.37,.02,2.12,.3,4.17,.97,6.08,1.98,.96,.51,1.89,1.11,2.76,1.78l.35,.28c.32,.26,.63,.51,.95,.69h0c.24,.13,.46,.21,.69,.23,.47,.05,1-.13,1.51-.31,1.2-.42,2.56-1.23,2.74-2.03,.03-.13,.11-.53-.55-1.15-.45-.43-1.09-.69-1.7-.92-2.2-.79-4.58-1.22-7.07-1.27-1.66-.03-3.43,.13-5.4,.5-.22,.04-.48,.11-.74,.19Z"/>
        </g>
      </g>
      <g>
        <path d="M20.25,59.85c1.16,1.41,2.78,2.17,4.65,2.17,.92,0,1.88-.44,2.61-1.66,.45-.75,.67-1.61,.73-2.48l.02-.23c.05-.72,.03-1.49,0-2.24-.03-.93-.06-1.89,.06-2.67,.1-.65,.27-1.34,.44-2.08,.66-2.75,1.4-5.86-1.22-7.61-.5-.34-1.05-.51-1.63-.51-2.36,0-4.51,2.84-5.61,5.01-1.51-2.44-3.98-3.99-6.93-4.28-1.49-.15-2.98,.04-4.21,.5-.43-1.57-.66-3.2-.66-4.85,0-1.97,.31-3.92,.93-5.77,2.85-2.55,4.81-4.12,7.64-4.71,1.9-.39,4.17,.11,6.17,.55,1.52,.34,2.82,.63,3.84,.52,1.56-.16,2.8-.99,3.16-2.1,.25-.78,.18-2.03-1.56-3.56-.72-.64-1.59-1.17-2.54-1.6,1.37,0,2.72-.26,4.02-.95,1.68,2.33,5.94,4.02,7.26,3.44,.29-.13,.57-.41,.92-.66,.15-.11,.68-.32,.68-.32,.18-.07,.38-.11,.6-.11,.25,0,.52,.05,.8,.14h0s.61,.17,.61,.17l.73,.13,.76,.13s.48,.06,.64,.04c1.31-.16,1.81-1.3,1.9-2.09,.12-1.09-.6-2.07-1.71-2.32-.66-.15-3.12-1.53-4.42-2.77-3.86-5.98-10.99-9.46-19.05-9.22h-.11c-4.53,.15-8.8,2.15-11.81,5.53l-.49,.54c-.49,.54-.98,1.11-1.46,1.69-1.24,1.5-2.27,3.16-3.09,4.92l-.39,.83c-.15,.33-.73,2.01-.84,2.35-2.78,8.5-2.93,25.27,5.73,31.88l1.67,1.03c1.72,1.06,3.58,1.86,5.54,2.37l2.17,.43c.39,.08,.79,.14,1.19,.18l2.27,.25Z"/>
        <path id="sole-left" class="cls-6" d="M20.78,50.31c-.05,.19-.09,.38-.13,.57-.43,2.08-.22,3.5,.31,5.18,0,.03,.02,.06,.02,.09,0,.03,.04,.21,.12,.48,.02,.06,.04,.12,.06,.19,0,0,0,.01,0,.02,.03,.1,.07,.2,.12,.31,.02,.05,.04,.1,.07,.15,.02,.04,.04,.08,.05,.11,.03,.06,.06,.12,.09,.18,.02,.04,.04,.07,.06,.11,.04,.07,.09,.15,.13,.22,.01,.02,.03,.05,.04,.07,.07,.1,.14,.2,.22,.3,0,.01,.02,.02,.03,.03,.07,.09,.15,.17,.23,.26,.02,.02,.05,.05,.07,.07,.07,.07,.15,.14,.22,.21,.03,.02,.05,.05,.08,.07,.1,.08,.2,.15,.3,.22,.01,0,.02,.02,.03,.02,.12,.07,.25,.14,.38,.2,.03,.01,.06,.02,.09,.04,.11,.04,.21,.08,.33,.12,.05,.01,.1,.03,.14,.04,.11,.03,.22,.05,.34,.07,.05,0,.1,.02,.15,.02,.17,.02,.34,.04,.53,.04,.64,0,1.09-.15,1.39-.45,.66-.69,.61-2.28,.56-3.82-.03-.99-.07-2.02,.07-2.94,.11-.71,.29-1.46,.46-2.19,.71-2.96,1.05-4.98-.63-6.1-.27-.18-.54-.27-.84-.27-1.92,0-4.42,3.77-4.95,5.67-.06,.22-.12,.42-.17,.63,0,.02-.01,.04-.02,.07"/>
        <path id="ear-right" class="cls-5" d="M42.89,21.9c-.8-.18-2.37-1.01-3.76-1.97,.24,.82,.27,1.51,.19,2.06,2.38,.64,3.26,.23,3.48,.08,.12-.08,.15-.14,.15-.14,0,0-.02-.02-.07-.03"/>
        <path id="left-body" class="cls-6" d="M8.76,16.1c.85-.94,1.78-1.8,2.74-2.62,1.8-1.53,3.59-2.67,5.93-3.17,1.86-.4,3.78-.43,5.67-.23,3,.31,5.94,1.23,8.52,2.8,2.25,1.37,4.2,3.24,5.61,5.48,.94,1.5,1.27,2.86,.94,3.94-.24,.78-.79,1.27-1.18,1.44-.67,.3-4.94-1.18-6.18-3.44-.07-.13-.19-.22-.33-.26-.14-.04-.29-.01-.42,.06-2.91,1.79-6.19,.97-9.03,.06-.28-.09-.58,.06-.67,.34-.05,.15-.02,.31,.05,.43-1.88-.05-3.76,.24-5.42,.89-.27,.11-.41,.42-.3,.69s.42,.41,.69,.3c4.08-1.61,9.61-.82,12.59,1.8,1.02,.9,1.46,1.76,1.25,2.44-.22,.7-1.13,1.24-2.25,1.36-.85,.09-2.14-.2-3.5-.5-2.1-.47-4.49-1-6.61-.56-3.44,.71-5.72,2.77-9.18,5.9l-.42,.38c-.22,.2-.24,.53-.04,.75,.11,.12,.25,.18,.4,.18,.12,0,.24-.04,.34-.13-.34,1.45-.52,2.94-.52,4.44,0,1.81,.25,3.59,.74,5.31-.55,.31-1.01,.68-1.34,1.11-.18,.23-.14,.57,.1,.75,.23,.18,.57,.14,.75-.1,.92-1.19,3.26-1.88,5.58-1.65,1.69,.17,4.76,.98,6.5,4.43-.07,.18-.12,.34-.16,.49-.91,3.13-.7,5.02,0,7.22,.07,.37,.2,.81,.4,1.27-2.34,0-6.48-.51-10.88-3.54-4.17-2.87-6.11-8.68-6.68-14.73-.33-3.58-.09-7.21,.66-10.72,.74-3.43,1.9-7.11,3.75-10.12,.56-.9,1.2-1.73,1.91-2.51Z"/>
        <path id="nose" class="cls-7" d="M31.29,17.48c-.47-.35-1.18-.59-2.25-.71-1.07-.12-.95,1.06,0,1.77,.87,.65,.95,.59,1.89,.47,.95-.12,1.2-.9,.36-1.54"/>
        <path id="eye-left" class="cls-7" d="M33.78,17.95c0-.59,.48-1.06,1.07-1.06s1.07,.48,1.07,1.06-.48,1.06-1.07,1.06-1.07-.48-1.07-1.06"/>
        <path id="eye-right" class="cls-7" d="M21.47,15c0-.59,.48-1.06,1.07-1.06s1.07,.48,1.07,1.06-.48,1.06-1.07,1.06-1.07-.48-1.07-1.06"/>
      </g>
      <g>
        <path class="cls-1" d="M34.65,15.89c.55-.42,1.26-.67,2.04-.67,1.73,0,3.14,1.24,3.14,2.76s-1.41,2.76-3.14,2.76-3.14-1.24-3.14-2.76c0-.29,.05-.57,.14-.83,.18-.5,.51-.93,.95-1.27Z"/>
        <path class="cls-1" d="M22.99,11.38c1.71,0,3.17,.94,3.76,2.26,.18,.4,.27,.83,.27,1.28,0,.04,0,.09,0,.13-.08,1.89-1.86,3.41-4.03,3.41s-4.03-1.59-4.03-3.54,1.81-3.54,4.03-3.54Z"/>
        <path d="M17.75,14.92c0,2.62,2.35,4.75,5.25,4.75s5.25-2.13,5.25-4.75c0-.25-.02-.5-.06-.74,.84-.4,1.8-.48,2.72-.23,.96,.27,1.77,.86,2.28,1.69-.53,.66-.84,1.47-.84,2.34,0,2.19,1.95,3.98,4.35,3.98s4.35-1.78,4.35-3.98-1.95-3.98-4.35-3.98c-.98,0-1.88,.3-2.61,.8-.68-.98-1.68-1.69-2.87-2.02-1.16-.32-2.36-.23-3.42,.23-.81-1.68-2.66-2.85-4.81-2.85-2.89,0-5.25,2.13-5.25,4.75Zm15.81,3.06c0-.29,.05-.57,.14-.83,.18-.5,.51-.93,.95-1.27,.55-.42,1.26-.67,2.04-.67,1.73,0,3.14,1.24,3.14,2.76s-1.41,2.76-3.14,2.76-3.14-1.24-3.14-2.76Zm-14.6-3.06c0-1.95,1.81-3.54,4.03-3.54,1.71,0,3.17,.94,3.76,2.26,.18,.4,.27,.83,.27,1.28,0,.04,0,.09,0,.13-.08,1.89-1.86,3.41-4.03,3.41s-4.03-1.59-4.03-3.54Z"/>
      </g>
    </g>
  </g>
</svg>