<?xml version="1.0" encoding="UTF-8"?>
<svg id="Layer_2" data-name="Layer 2" xmlns="http://www.w3.org/2000/svg" viewBox="0 0 52.7 73.71">
  <defs>
    <style>
      .cls-1 {
        fill: none;
      }

      .cls-2 {
        fill: #007cba;
      }

      .cls-3 {
        fill: #f0f0f0;
      }

      .cls-4 {
        fill: #0a689d;
      }

      .cls-5 {
        fill: #f80;
      }

      .cls-5, .cls-6, .cls-7 {
        fill-rule: evenodd;
      }

      .cls-6 {
        fill: #ffd200;
      }
    </style>
  </defs>
  <g id="Layer_1-2" data-name="Layer 1">
    <g id="full">
      <path d="M40.63,11.29s-.04,0-.06,0c0,0-18.45-.56-18.75-.57h0c-.39-.01-.74-.2-.98-.52-.88-1.17-.07-4.45,.1-5.09,.3-1.13,.95-2.7,2.36-3.75C24.91,.15,26.94,.03,28.89,0c2.6-.03,5.55,.07,7.9,1.67,.91,.62,1.66,1.43,2.33,2.2,.04,.05,3.6,4.88,2.74,6.68-.22,.46-.67,.73-1.23,.73Z"/>
      <g>
        <g>
          <path class="cls-2" d="M37.32,4.4c-.57-.67-1.18-1.31-1.9-1.81-1.86-1.27-4.26-1.37-6.52-1.34-.71,0-1.43,.04-2.13,.15l-1,2.11c-.58,1.22-.99,2.51-1.21,3.83l-.34,1.95,14.91,.46c1.84,.06-1.4-4.89-1.8-5.35Z"/>
          <path class="cls-4" d="M25.77,3.5l1-2.11h0s-.14,.02-.17,.02c-.06,0-.11,.02-.17,.03-.76,.14-1.48,.39-2.1,.86-.91,.69-1.47,1.77-1.76,2.9-.1,.38-.42,1.86-.4,2.91,0,.01,0,.03,0,.04,.02,.51,.12,.92,.37,1.05,.05,.02,.1,.04,.17,.04,0,0,.57,.02,1.49,.05l.34-1.95c.23-1.33,.64-2.62,1.21-3.83Z"/>
        </g>
        <path class="cls-3" d="M34.08,3.18c-1.68-.28-3.25,.67-3.49,2.13s.92,2.87,2.6,3.15,3.25-.67,3.49-2.13-.92-2.87-2.6-3.15Zm-3.19,2.18c.06-.34,.2-.66,.4-.93l.78,3.32c-.85-.54-1.34-1.46-1.18-2.4Zm2.34,2.84c-.27-.05-.52-.12-.76-.23l1.17-1.93,.51,2.14s0,.02,.01,.04c-.3,.04-.61,.03-.93-.02Zm.96-3.42c.17,.02,.32,.03,.32,.03,.15,0,.16-.18,.01-.2,0,0-.45-.04-.74-.09-.27-.05-.72-.15-.72-.15-.15-.03-.2,.16-.05,.19,0,0,.14,.04,.28,.07l.26,1.09-.86,1.46-.56-2.74c.17,.02,.32,.03,.32,.03,.15,0,.16-.18,.01-.2,0,0-.45-.04-.74-.09-.05,0-.11-.02-.18-.03,.6-.56,1.51-.85,2.47-.68,.71,.12,1.32,.47,1.75,.94-.01,0-.02,0-.03,0-.27-.05-.49,.13-.53,.34-.03,.2,.07,.38,.18,.6,.08,.18,.16,.4,.11,.69-.03,.2-.16,.42-.34,.73l-.41,.74-.56-2.72Zm2.03,.32c.16,.37,.21,.78,.14,1.19-.15,.88-.82,1.55-1.71,1.82l1.19-1.95c.21-.31,.31-.57,.35-.81,.01-.09,.02-.17,.02-.25Z"/>
        <g>
          <path class="cls-4" d="M43.51,14.1c.29,.16,.6,.27,.94,.31,.61,.07,1.22-.14,1.81-.34,1.76-.61,4.59-2.27,2.43-4.31-.54-.51-1.24-.81-1.94-1.06-2.33-.84-4.81-1.26-7.28-1.31-1.86-.04-3.71,.17-5.54,.52-.62,.12-1.39,.41-1.99,.6-4.15,1.36,1.03,.85,1.65,.94,2.04,.29,4.03,.95,5.86,1.91,.94,.49,1.82,1.07,2.66,1.72,.45,.35,.89,.76,1.4,1.03Z"/>
          <path d="M44.68,15.1c-.1,0-.2,0-.31-.02-.41-.04-.79-.17-1.19-.39-.43-.23-.8-.53-1.16-.82l-.33-.27c-.81-.63-1.67-1.18-2.56-1.66-1.78-.94-3.67-1.56-5.64-1.84-.1-.01-.51,0-.85,0-1.89,.05-2.83,.08-2.97-.73-.13-.76,.69-1.08,2.05-1.53l.42-.14c.53-.18,1.12-.38,1.65-.48,2.06-.39,3.91-.57,5.68-.53,2.64,.05,5.16,.51,7.5,1.35,.75,.27,1.54,.61,2.17,1.21,1,.95,1.07,1.84,.94,2.42-.38,1.77-2.86,2.76-3.61,3.02-.51,.18-1.13,.39-1.79,.39Zm-11.37-6.34c.16,0,.28,0,.37,.02,2.12,.3,4.17,.97,6.08,1.98,.96,.51,1.89,1.11,2.76,1.78l.35,.28c.32,.26,.63,.51,.95,.69h0c.24,.13,.46,.21,.69,.23,.47,.05,1-.13,1.51-.31,1.2-.42,2.56-1.23,2.74-2.03,.03-.13,.11-.53-.55-1.15-.45-.43-1.09-.69-1.7-.92-2.2-.79-4.58-1.22-7.07-1.27-1.66-.03-3.43,.13-5.4,.5-.22,.04-.48,.11-.74,.19Z"/>
        </g>
      </g>
      <g>
        <path d="M46.17,23.73c.18-.07,.38-.11,.6-.11,.25,0,.52,.05,.8,.14h0s.61,.17,.61,.17l.73,.13,.76,.13s.48,.06,.64,.04c1.31-.16,1.81-1.3,1.9-2.09,.12-1.09-.6-2.07-1.71-2.32-.66-.15-3.12-1.53-4.42-2.77-3.86-5.98-10.99-9.46-19.05-9.22-3.72,.11-7.08,1.24-9.99,3.36-1.82,.1-4.38,.12-6.21,.12-1.14,0-2.28,0-3.34-.01-.94,0-1.83,0-2.62,0-2.42,0-3.02,.04-3.39,.14C.61,11.66,.02,12.44,0,13.42c-.04,1.87,2.03,5.28,6.62,6.65,.75,.22,1.53,.34,2.34,.34,.35,0,.7-.02,1.05-.06-.24,.55-.45,1.11-.66,1.68-2.93,8.27-3.63,26.81,5.21,33.55,2.41,8.14,10.7,15.55,19.96,17.74,1.08,.25,2.21,.38,3.36,.38,5.22,0,10.09-2.62,12.61-5.21,1.49-1.54,2.26-3.13,2.21-4.59-.09-2.69-1.87-4.5-4.43-4.5s-4.92,1.61-6.46,4.21c-1.17,1.96-3.34,2.38-4.96,2.38h0c-3.84,0-9.05-2.33-12.66-6.38,1.13,.17,2.11,.23,2.91,.23,.11,0,.21,0,.31,0,1.16,1.41,2.78,2.17,4.65,2.17,.92,0,1.88-.44,2.61-1.66,.45-.75,.67-1.61,.73-2.48l.02-.23c.05-.72,.03-1.49,0-2.24-.03-.93-.06-1.89,.06-2.67,.1-.65,.27-1.34,.44-2.08,.66-2.75,1.4-5.86-1.22-7.61-.5-.34-1.05-.51-1.63-.51-2.36,0-4.51,2.84-5.61,5.01-1.51-2.44-3.98-3.99-6.93-4.28-1.49-.15-2.98,.04-4.21,.5-.43-1.57-.66-3.2-.66-4.85,0-1.97,.31-3.92,.93-5.77,2.85-2.55,4.81-4.12,7.64-4.71,1.9-.39,4.17,.11,6.17,.55,1.52,.34,2.82,.63,3.84,.52,1.56-.16,2.8-.99,3.16-2.1,.25-.78,.18-2.03-1.56-3.56-.72-.64-1.59-1.17-2.54-1.6,1.37,0,2.72-.26,4.02-.95,1.68,2.33,5.94,4.02,7.26,3.44,.29-.13,.57-.41,.92-.66,.15-.11,.68-.32,.68-.32Z"/>
        <path id="sole-left" class="cls-6" d="M27.93,50.31c-.05,.19-.09,.38-.13,.57-.43,2.08-.22,3.5,.31,5.18,0,.03,.02,.06,.02,.09,0,.03,.04,.21,.12,.48,.02,.06,.04,.12,.06,.19,0,0,0,.01,0,.02,.03,.1,.07,.2,.12,.31,.02,.05,.04,.1,.07,.15,.02,.04,.04,.08,.05,.11,.03,.06,.06,.12,.09,.18,.02,.04,.04,.07,.06,.11,.04,.07,.09,.15,.13,.22,.01,.02,.03,.05,.04,.07,.07,.1,.14,.2,.22,.3,0,.01,.02,.02,.03,.03,.07,.09,.15,.17,.23,.26,.02,.02,.05,.05,.07,.07,.07,.07,.15,.14,.22,.21,.03,.02,.05,.05,.08,.07,.1,.08,.2,.15,.3,.22,.01,0,.02,.02,.03,.02,.12,.07,.25,.14,.38,.2,.03,.01,.06,.02,.09,.04,.11,.04,.21,.08,.33,.12,.05,.01,.1,.03,.14,.04,.11,.03,.22,.05,.34,.07,.05,0,.1,.02,.15,.02,.17,.02,.34,.04,.53,.04,.64,0,1.09-.15,1.39-.45,.66-.69,.61-2.28,.56-3.82-.03-.99-.07-2.02,.07-2.94,.11-.71,.29-1.46,.46-2.19,.71-2.96,1.05-4.98-.63-6.1-.27-.18-.54-.27-.84-.27-1.92,0-4.42,3.77-4.95,5.67-.06,.22-.12,.42-.17,.63,0,.02-.01,.04-.02,.07"/>
        <path id="ear-left" class="cls-5" d="M10.85,13.45c-1.15,0-2.29,0-3.37-.01-.94,0-1.83,0-2.61,0-1.47,0-2.39,.02-2.74,.05,0,.14,.05,.45,.28,.92,.63,1.25,2.22,2.86,4.82,3.64,.55,.16,1.13,.25,1.73,.25h0c1.68,0,4.47-.66,8.17-3.82l.14-.12c.54-.45,.88-.85,1.02-1.08-.09,0-.24,0-.4,0-1.88,.15-4.92,.17-7.04,.17"/>
        <path id="ear-right" class="cls-5" d="M50.04,21.9c-.8-.18-2.37-1.01-3.76-1.97,.24,.82,.27,1.51,.19,2.06,2.38,.64,3.26,.23,3.48,.08,.12-.08,.15-.14,.15-.14,0,0-.02-.02-.07-.03"/>
        <path id="tail" class="cls-5" d="M16.89,55.85c2.52,7.11,9.9,13.46,18.12,15.41,4.76,1.13,9.93-.85,12.94-3.31,1.68-1.37,2.65-2.85,2.62-3.96-.04-1.26-.62-2.1-1.62-2.36-1.5-.39-3.81,.55-5.32,3.09-1.35,2.26-3.82,3.47-7.02,3.41-6.19-.12-13.33-4.73-16.61-10.74-1-.4-2.04-.9-3.11-1.54"/>
        <path id="left-body" class="cls-6" d="M11.37,22.75c-2.71,7.66-3.45,25.7,4.89,31.44,4.4,3.03,8.54,3.54,10.88,3.54-.2-.46-.33-.9-.4-1.27-.69-2.2-.91-4.09,0-7.22,.04-.14,.1-.31,.16-.49-1.74-3.46-4.81-4.26-6.5-4.43-2.31-.23-4.66,.46-5.58,1.65-.18,.23-.51,.28-.75,.1-.23-.18-.28-.51-.1-.75,.33-.43,.79-.8,1.34-1.11-.49-1.72-.74-3.5-.74-5.31,0-1.51,.18-2.99,.52-4.44-.1,.08-.22,.13-.34,.13-.15,0-.29-.06-.4-.18-.2-.22-.18-.55,.04-.75l.42-.38c3.45-3.12,5.74-5.18,9.18-5.9,2.12-.44,4.51,.09,6.61,.56,1.37,.3,2.65,.59,3.5,.5,1.13-.12,2.03-.67,2.25-1.36,.22-.68-.23-1.54-1.25-2.44-2.98-2.62-8.51-3.41-12.59-1.8-.27,.11-.58-.03-.69-.3s.03-.58,.3-.69c1.66-.65,3.54-.94,5.42-.89-.07-.13-.1-.28-.05-.43,.09-.28,.39-.43,.67-.34,2.84,.91,6.11,1.73,9.03-.06,.12-.08,.27-.1,.42-.06,.14,.04,.26,.13,.33,.26,1.24,2.25,5.51,3.74,6.18,3.44,.4-.18,.94-.66,1.18-1.44,.33-1.08,0-2.44-.94-3.94-3.45-5.47-9.91-8.61-17.29-8.39-2.97,.09-5.68,.94-8.05,2.45,.15,.1,.27,.24,.33,.41,.08,.22,.32,.88-1.43,2.33l-.13,.11c-1.58,1.34-3.01,2.26-4.28,2.88-.85,1.38-1.58,2.91-2.17,4.59"/>
        <path id="left-body-outline" class="cls-7" d="M1.75,12.47h0c-.41,.1-.67,.47-.68,.98-.03,1.29,1.71,4.36,5.86,5.61,.65,.19,1.33,.29,2.04,.29h0c.79,0,1.79-.13,2.97-.53-.59,1.11-1.12,2.3-1.57,3.57-1.28,3.6-2.31,10.23-1.75,16.9,.44,5.23,2,12.17,6.88,15.66,2.17,7.93,10.24,15.21,19.27,17.35,1.02,.24,2.05,.35,3.08,.35,4.14,0,8.2-1.77,10.78-3.88,1.96-1.6,3.06-3.36,3.01-4.81-.06-1.75-.94-2.98-2.42-3.36-1.88-.49-4.72,.59-6.5,3.58-1.46,2.46-4.12,2.94-6.09,2.89-5.47-.1-11.74-3.96-15.07-9.13,2.23,.68,4.17,.85,5.54,.85,.22,0,.42,0,.61-.01,.83,1.24,2.21,2.35,4.34,2.35,1.03,0,1.84-.3,2.41-.88,1.08-1.12,1.02-3.02,.96-4.85-.03-.93-.06-1.89,.06-2.67,.1-.65,.27-1.34,.44-2.08,.66-2.75,1.4-5.86-1.22-7.61-.5-.34-1.05-.51-1.63-.51-2.36,0-4.51,2.84-5.61,5.01-1.51-2.44-3.98-3.99-6.93-4.28-1.49-.15-2.98,.04-4.21,.5-.43-1.57-.66-3.2-.66-4.85,0-1.97,.31-3.92,.93-5.77,2.85-2.55,4.81-4.12,7.64-4.71,1.9-.39,4.17,.11,6.17,.55,1.52,.34,2.82,.63,3.84,.52,1.56-.16,2.8-.99,3.16-2.1,.25-.78,.18-2.03-1.56-3.56-.72-.64-1.59-1.17-2.54-1.6,1.37,0,2.72-.26,4.02-.95,1.68,2.33,5.94,4.02,7.26,3.44,.55-.24,.87-.73,1.61-1.69,1.04,.28,1.87,.39,2.51,.39,1.2,0,1.81-.36,2.1-.66,.32-.32,.44-.74,.32-1.12-.11-.38-.43-.66-.85-.76-.91-.2-3.62-1.74-5.03-3.14-3.67-5.76-10.45-9.06-18.18-8.82-3.62,.11-6.89,1.27-9.65,3.34-1.86,.12-4.61,.14-6.57,.14-1.14,0-2.29,0-3.36-.01-.95,0-1.84,0-2.62,0-2.26,0-2.87,.04-3.13,.1h0Zm44.73,9.52h0c.07-.55,.05-1.24-.19-2.06,1.39,.97,2.96,1.8,3.76,1.97,.05,.01,.06,.03,.07,.03,0,0-.04,.06-.15,.14-.22,.15-1.1,.56-3.48-.08h0ZM28.11,56.06h0c-.63-2-.82-3.62,0-6.45,.53-1.9,3.03-5.67,4.95-5.67,.29,0,.57,.09,.84,.27,1.68,1.12,1.34,3.14,.63,6.1-.18,.73-.36,1.49-.46,2.19-.14,.92-.11,1.95-.07,2.94,.05,1.54,.1,3.13-.56,3.82-.29,.3-.74,.45-1.39,.45-3.25,0-3.89-3.41-3.92-3.55,0-.03-.01-.06-.02-.09h0Zm6.9,15.19h0c-8.22-1.95-15.61-8.3-18.12-15.41,1.06,.64,2.11,1.14,3.11,1.54,3.28,6.01,10.42,10.62,16.61,10.74,3.2,.05,5.68-1.15,7.02-3.41,1.51-2.54,3.82-3.48,5.32-3.09,1.01,.26,1.58,1.1,1.62,2.36,.04,1.11-.94,2.59-2.62,3.96-3.01,2.46-8.18,4.44-12.94,3.31h0ZM11.37,22.75h0c.6-1.68,1.33-3.21,2.17-4.59,1.27-.62,2.7-1.53,4.28-2.88l.13-.11c1.74-1.45,1.5-2.12,1.43-2.33-.06-.17-.18-.31-.33-.41,2.37-1.51,5.08-2.36,8.05-2.45,7.37-.22,13.83,2.91,17.29,8.39,.94,1.5,1.27,2.86,.94,3.94-.24,.78-.79,1.27-1.18,1.44-.67,.3-4.94-1.18-6.18-3.44-.07-.13-.19-.22-.33-.26-.14-.04-.29-.01-.42,.06-2.91,1.79-6.19,.97-9.03,.06-.28-.09-.58,.06-.67,.34-.05,.15-.02,.31,.05,.43-1.88-.05-3.76,.24-5.42,.89-.27,.11-.41,.42-.3,.69s.42,.41,.69,.3c4.08-1.61,9.61-.82,12.59,1.8,1.02,.9,1.46,1.76,1.25,2.44-.22,.7-1.13,1.24-2.25,1.36-.85,.09-2.14-.2-3.5-.5-2.1-.47-4.49-1-6.61-.56-3.44,.71-5.72,2.77-9.18,5.9l-.42,.38c-.22,.2-.24,.53-.04,.75,.11,.12,.25,.18,.4,.18,.12,0,.24-.04,.34-.13-.34,1.45-.52,2.94-.52,4.44,0,1.81,.25,3.59,.74,5.31-.55,.31-1.01,.68-1.34,1.11-.18,.23-.14,.57,.1,.75,.23,.18,.57,.14,.75-.1,.92-1.19,3.26-1.88,5.58-1.65,1.69,.17,4.76,.98,6.5,4.43-.07,.18-.12,.34-.16,.49-.91,3.13-.7,5.02,0,7.22,.07,.37,.2,.81,.4,1.27-2.34,0-6.48-.51-10.88-3.54-8.33-5.74-7.6-23.78-4.89-31.44h0ZM2.41,14.4h0c-.23-.47-.28-.77-.28-.92,.35-.04,1.27-.05,2.74-.05,.78,0,1.67,0,2.61,0,1.07,0,2.22,.01,3.37,.01,2.12,0,5.16-.02,7.04-.17,.16-.01,.31-.01,.4,0-.14,.23-.48,.62-1.02,1.08l-.14,.12c-3.7,3.15-6.48,3.81-8.17,3.82h0c-.6,0-1.18-.08-1.73-.25-2.6-.78-4.2-2.39-4.82-3.64h0Z"/>
        <path id="nose" class="cls-7" d="M38.44,17.48c-.47-.35-1.18-.59-2.25-.71-1.07-.12-.95,1.06,0,1.77,.87,.65,.95,.59,1.89,.47,.95-.12,1.2-.9,.36-1.54"/>
        <path id="eye-left" class="cls-7" d="M40.93,17.95c0-.59,.48-1.06,1.07-1.06s1.07,.48,1.07,1.06-.48,1.06-1.07,1.06-1.07-.48-1.07-1.06"/>
        <path id="eye-right" class="cls-7" d="M28.62,15c0-.59,.48-1.06,1.07-1.06s1.07,.48,1.07,1.06-.48,1.06-1.07,1.06-1.07-.48-1.07-1.06"/>
      </g>
      <g>
        <path class="cls-1" d="M41.8,15.89c.55-.42,1.26-.67,2.04-.67,1.73,0,3.14,1.24,3.14,2.76s-1.41,2.76-3.14,2.76-3.14-1.24-3.14-2.76c0-.29,.05-.57,.14-.83,.18-.5,.51-.93,.95-1.27Z"/>
        <path class="cls-1" d="M30.14,11.38c1.71,0,3.17,.94,3.76,2.26,.18,.4,.27,.83,.27,1.28,0,.04,0,.09,0,.13-.08,1.89-1.86,3.41-4.03,3.41s-4.03-1.59-4.03-3.54,1.81-3.54,4.03-3.54Z"/>
        <path d="M24.9,14.92c0,2.62,2.35,4.75,5.25,4.75s5.25-2.13,5.25-4.75c0-.25-.02-.5-.06-.74,.84-.4,1.8-.48,2.72-.23,.96,.27,1.77,.86,2.28,1.69-.53,.66-.84,1.47-.84,2.34,0,2.19,1.95,3.98,4.35,3.98s4.35-1.78,4.35-3.98-1.95-3.98-4.35-3.98c-.98,0-1.88,.3-2.61,.8-.68-.98-1.68-1.69-2.87-2.02-1.16-.32-2.36-.23-3.42,.23-.81-1.68-2.66-2.85-4.81-2.85-2.89,0-5.25,2.13-5.25,4.75Zm15.81,3.06c0-.29,.05-.57,.14-.83,.18-.5,.51-.93,.95-1.27,.55-.42,1.26-.67,2.04-.67,1.73,0,3.14,1.24,3.14,2.76s-1.41,2.76-3.14,2.76-3.14-1.24-3.14-2.76Zm-14.6-3.06c0-1.95,1.81-3.54,4.03-3.54,1.71,0,3.17,.94,3.76,2.26,.18,.4,.27,.83,.27,1.28,0,.04,0,.09,0,.13-.08,1.89-1.86,3.41-4.03,3.41s-4.03-1.59-4.03-3.54Z"/>
      </g>
    </g>
  </g>
</svg>