<?xml version="1.0" encoding="UTF-8"?>
<svg id="Layer_2" data-name="Layer 2" xmlns="http://www.w3.org/2000/svg" viewBox="0 0 19.44 9.21">
  <defs>
    <style>
      .cls-1 {
        fill: none;
      }

      .cls-2 {
        fill: #f80;
      }
    </style>
  </defs>
  <g id="Layer_1-2" data-name="Layer 1">
    <g id="ear">
      <path class="cls-2" d="M17.27,3.15c.54-.45,.88-.85,1.02-1.08-.09,0-.24,0-.4,0-1.88,.15-4.92,.17-7.04,.17-1.15,0-2.29,0-3.37-.01-.94,0-1.83,0-2.61,0-1.47,0-2.39,.02-2.74,.05,0,.14,.05,.45,.28,.92,.63,1.25,2.22,2.86,4.82,3.64,.55,.16,1.13,.25,1.73,.25h0c1.68,0,4.47-.66,8.17-3.82l.14-.12Z"/>
      <g>
        <path class="cls-1" d="M17.27,3.15c.54-.45,.88-.85,1.02-1.08-.09,0-.24,0-.4,0-1.88,.15-4.92,.17-7.04,.17-1.15,0-2.29,0-3.37-.01-.94,0-1.83,0-2.61,0-1.47,0-2.39,.02-2.74,.05,0,.14,.05,.45,.28,.92,.63,1.25,2.22,2.86,4.82,3.64,.55,.16,1.13,.25,1.73,.25h0c1.68,0,4.47-.66,8.17-3.82l.14-.12Z"/>
        <path d="M17.83,4.07l.13-.11c1.74-1.45,1.5-2.12,1.43-2.33-.06-.17-.18-.31-.33-.41l-2.03-1.22c-1.82,.1-4.36,.12-6.18,.12-1.14,0-2.28,0-3.34-.01-.94,0-1.83,0-2.62,0C2.46,.1,1.86,.14,1.49,.23,.61,.45,.02,1.23,0,2.22c-.04,1.87,2.03,5.28,6.62,6.65,.75,.22,1.53,.34,2.34,.34,.35,0,.7-.02,1.05-.06l3.52-2.19c1.27-.62,2.7-1.53,4.28-2.88Zm-8.86,3.01h0c-.6,0-1.18-.08-1.73-.25-2.6-.78-4.2-2.39-4.82-3.64-.23-.47-.28-.77-.28-.92,.35-.04,1.27-.05,2.74-.05,.78,0,1.67,0,2.61,0,1.07,0,2.22,.01,3.37,.01,2.12,0,5.16-.02,7.04-.17,.16-.01,.31-.01,.4,0-.14,.23-.48,.62-1.02,1.08l-.14,.12c-3.7,3.15-6.48,3.81-8.17,3.82Z"/>
      </g>
    </g>
  </g>
</svg>