<svg enable-background="new 0 0 270 207" viewBox="0 0 270 207" xmlns="http://www.w3.org/2000/svg"><path d="m21.7 207.4v-126.6h239.2v126.6z" fill="#f6f7f7"/><path d="m21.6 80.8v-16.9c0-5.9 6.4-10.7 14.3-10.7h210.8c7.9 0 14.3 4.8 14.3 10.7v16.9z" fill="#fff"/><path d="m69.8 48.6s10.5-9.8 21.6-5.5l1.9 10-24.9-.9s.5-2.9 1.4-3.6z" fill="#3895ba"/><path d="m89.8 92.4c0 1.7-1.3 3-3 3h-50.4c-1.7 0-3-1.3-3-3v-20.3c0-1.7 1.3-3 3-3h50.4c1.7 0 3 1.3 3 3z" fill="#bedae6"/><path d="m98.7 84.7-4.6 4.1-5.7-4.6-4.3-.5.2-.8.4-1.2 5-1.4 9.2-1.6.9 5.8z" fill="#c3c4c7"/><path d="m89.2 84.9c.6 2.9-7.3.9-7.8 1.8-1.1 2 8.3 8.8 13.9.5m1.6-56.6s1 11.2 4 13.3l-13.9 2.3v-8z" fill="#c3c4c7"/><path d="m237.7 93.7h-82.1c-2.2 0-4 1.8-4 4v14.3c0 2.2 1.8 4 4 4h82.1c2.2 0 4-1.8 4-4v-14.3c0-2.2-1.8-4-4-4zm-136.9 15.6h-55.4v66.2h-.3v31.9h76.4v-79.2c-.1-10.4-9.3-18.9-20.7-18.9z" fill="#fff"/><path d="m191.1 172.1s.2.5.3 1.5c.2 1 .3 2.3.5 4 .4 3.3.9 7.7 1.2 12.1.2 2.2.3 4.4.5 6.5.1 2.1.3 4 .3 5.7.1 3.3-.1 5.6-.1 5.6 0 .1-.1.2-.2.2s-.1-.1-.2-.1c0 0-.1-.6-.2-1.5 0-.5-.1-1.1-.2-1.7-.1-.7-.1-1.4-.2-2.3-.1-1.7-.2-3.6-.4-5.7s-.3-4.3-.5-6.5-.4-4.4-.6-6.5-.4-4-.6-5.6c-.2-1.7-.3-3-.4-4s0-1.5 0-1.5c0-.2.2-.3.4-.3.2-.2.4-.1.4.1z" fill="#004e6e"/><path d="m56 53.3c0-.6-.4-1-1-1h-5.1c-.6 0-1 .4-1 1s.4 1 1 1h5.1c.5 0 1-.4 1-1zm10.1 0c0-.6-.4-1-1-1h-5.1c-.6 0-1 .4-1 1s.4 1 1 1h5.1c.6 0 1-.4 1-1zm-21.3-1h-5.1c-.6 0-1 .4-1 1s.4 1 1 1h5.1c.6 0 1-.4 1-1s-.5-1-1-1zm102.8 1c0-.6-.4-1-1-1h-5.1c-.6 0-1 .4-1 1s.4 1 1 1h5.1c.5 0 1-.4 1-1zm20.3 0c0-.6-.4-1-1-1h-5.1c-.6 0-1 .4-1 1s.4 1 1 1h5.1c.6 0 1-.4 1-1zm-10.1 0c0-.6-.4-1-1-1h-5.1c-.6 0-1 .4-1 1s.4 1 1 1h5.1c.5 0 1-.4 1-1zm-123.3-.9c-1.8.1-3.6.5-5.2 1.1-.5.2-.8.8-.6 1.3.1.4.5.7.9.7.1 0 .2 0 .3-.1 1.5-.5 3.1-.9 4.7-1 .6 0 1-.5.9-1.1.1-.6-.4-1-1-.9zm102.9.9c0-.6-.4-1-1-1h-5.1c-.6 0-1 .4-1 1s.4 1 1 1h5.1c.6 0 1-.4 1-1zm-67.2 1h5.1c.6 0 1-.4 1-1s-.4-1-1-1h-5.1c-.6 0-1 .4-1 1s.5 1 1 1zm20.4 0h5.1c.6 0 1-.4 1-1s-.4-1-1-1h-5.1c-.6 0-1 .4-1 1s.4 1 1 1zm20.4 0h5.1c.6 0 1-.4 1-1s-.4-1-1-1h-5.1c-.6 0-1 .4-1 1s.4 1 1 1zm-10.2 0h5.1c.6 0 1-.4 1-1s-.4-1-1-1h-5.1c-.6 0-1 .4-1 1s.4 1 1 1zm20.3 0h5.1c.6 0 1-.4 1-1s-.4-1-1-1h-5.1c-.6 0-1 .4-1 1s.5 1 1 1zm-40.7 0h5.1c.6 0 1-.4 1-1s-.4-1-1-1h-5.1c-.6 0-1 .4-1 1s.5 1 1 1zm-58.6 7.5c.1 0 .3.1.4.1.4 0 .8-.2.9-.6.5-1.3 1.5-2.6 2.8-3.6.4-.4.5-1 .1-1.4s-1-.5-1.4-.1c-1.5 1.3-2.7 2.8-3.3 4.4-.3.4 0 1 .5 1.2zm-.2 10.2c.6 0 1-.4 1-1v-5.1c0-.6-.4-1-1-1s-1 .4-1 1v5.1c0 .5.4 1 1 1zm156.5-18.7c0-.6-.4-1-1-1h-5.1c-.6 0-1 .4-1 1s.4 1 1 1h5.1c.6 0 1-.4 1-1zm30.6 0c0-.6-.4-1-1-1h-5.1c-.6 0-1 .4-1 1s.4 1 1 1h5.1c.5 0 1-.4 1-1zm39.8-.9c-.6-.1-1.3-.1-1.9-.1h-3.3c-.6 0-1 .4-1 1s.4 1 1 1h3.3c.6 0 1.1 0 1.7.1h.1c.5 0 .9-.4 1-.9 0-.6-.4-1-.9-1.1zm-10.3-.1h-5.1c-.6 0-1 .4-1 1s.4 1 1 1h5.1c.6 0 1-.4 1-1s-.4-1-1-1zm-10.2 2c.6 0 1-.4 1-1s-.4-1-1-1h-5.1c-.6 0-1 .4-1 1s.4 1 1 1zm-10.2 0c.6 0 1-.4 1-1s-.4-1-1-1h-5.1c-.6 0-1 .4-1 1s.4 1 1 1zm-19.3-1c0-.6-.4-1-1-1h-5.1c-.6 0-1 .4-1 1s.4 1 1 1h5.1c.5 0 1-.4 1-1zm62.3 17.3c-.6 0-1 .4-1 1v2.7c0 .6.4 1 1 1s1-.4 1-1v-2.7c0-.6-.4-1-1-1zm-72.5-17.3c0-.6-.4-1-1-1h-5.1c-.6 0-1 .4-1 1s.4 1 1 1h5.1c.6 0 1-.4 1-1zm65.4.4c-.5-.2-1.1 0-1.3.6-.2.5 0 1.1.6 1.3 1.5.6 2.9 1.5 4 2.5.2.2.4.3.7.3s.5-.1.7-.3c.4-.4.3-1-.1-1.4-1.3-1.4-2.8-2.3-4.6-3zm7.7 7.4c-.2-.5-.7-.8-1.3-.6-.5.2-.8.7-.6 1.3.2.7.4 1.5.4 2.2v2.5c0 .6.4 1 1 1s1-.4 1-1v-2.5c-.1-1-.2-2-.5-2.9zm-82.2 18.7h-4.9c-.6 0-1 .4-1 1s.4 1 1 1h4.9c.6 0 1-.4 1-1s-.4-1-1-1zm-127.7 0h-4.9c-.6 0-1 .4-1 1s.4 1 1 1h4.9c.6 0 1-.4 1-1s-.4-1-1-1zm-9.8 0h-4.9c-.6 0-1 .4-1 1s.4 1 1 1h4.9c.6 0 1-.4 1-1s-.4-1-1-1zm-9.8 0h-1.7c-.6 0-1 .4-1 1s.4 1 1 1h1.7c.6 0 1-.4 1-1s-.4-1-1-1zm29.5 0h-4.9c-.6 0-1 .4-1 1s.4 1 1 1h4.9c.6 0 1-.4 1-1s-.5-1-1-1zm186.5 0h-4.9c-.6 0-1 .4-1 1s.4 1 1 1h4.9c.6 0 1-.4 1-1s-.4-1-1-1zm-9.8 0h-4.9c-.6 0-1 .4-1 1s.4 1 1 1h4.9c.6 0 1-.4 1-1s-.4-1-1-1zm-9.8 0h-4.9c-.6 0-1 .4-1 1s.4 1 1 1h4.9c.6 0 1-.4 1-1s-.4-1-1-1zm-9.8 0h-4.9c-.6 0-1 .4-1 1s.4 1 1 1h4.9c.6 0 1-.4 1-1s-.5-1-1-1zm-78.6 0h-4.9c-.6 0-1 .4-1 1s.4 1 1 1h4.9c.6 0 1-.4 1-1s-.4-1-1-1zm-9.8 0h-4.9c-.6 0-1 .4-1 1s.4 1 1 1h4.9c.6 0 1-.4 1-1s-.4-1-1-1zm68.7 0h-4.9c-.6 0-1 .4-1 1s.4 1 1 1h4.9c.6 0 1-.4 1-1s-.4-1-1-1zm-49.1 0h-4.9c-.6 0-1 .4-1 1s.4 1 1 1h4.9c.6 0 1-.4 1-1s-.4-1-1-1zm39.3 0h-4.9c-.6 0-1 .4-1 1s.4 1 1 1h4.9c.6 0 1-.4 1-1s-.4-1-1-1zm-19.6 0h-4.9c-.6 0-1 .4-1 1s.4 1 1 1h4.9c.6 0 1-.4 1-1s-.5-1-1-1zm-9.8 0h-4.9c-.6 0-1 .4-1 1s.4 1 1 1h4.9c.6 0 1-.4 1-1s-.5-1-1-1zm-49.1 0h-4.9c-.6 0-1 .4-1 1s.4 1 1 1h4.9c.6 0 1-.4 1-1s-.5-1-1-1zm-29.5 0h-4.9c-.6 0-1 .4-1 1s.4 1 1 1h4.9c.6 0 1-.4 1-1s-.4-1-1-1zm39.3 0h-4.9c-.6 0-1 .4-1 1s.4 1 1 1h4.9c.6 0 1-.4 1-1s-.5-1-1-1zm-29.5 0h-4.9c-.6 0-1 .4-1 1s.4 1 1 1h4.9c.6 0 1-.4 1-1s-.4-1-1-1zm-19.6 0h-4.9c-.6 0-1 .4-1 1s.4 1 1 1h4.9c.6 0 1-.4 1-1s-.5-1-1-1zm137.5 0h-4.9c-.6 0-1 .4-1 1s.4 1 1 1h4.9c.6 0 1-.4 1-1s-.5-1-1-1zm-108.1 0h-4.9c-.6 0-1 .4-1 1s.4 1 1 1h4.9c.6 0 1-.4 1-1s-.4-1-1-1zm-74.7-.9h-3.3v-2.2c0-.6-.4-1-1-1s-1 .4-1 1v3.2c0 .6.4 1 1 1h4.3c.6 0 1-.4 1-1s-.4-1-1-1z" fill="#dcdcde"/><path d="m5 207.1 10.3-51.7 41.3.1-9.1 51.7" fill="#fff"/><path d="m4.6 207c.7-4.3 1.6-8.7 2.4-13l2.6-12.9 5.1-25.9.1-.5h.5l41.3.2h.6l-.1.6-4.6 25.9-2.4 12.9c-.8 4.3-1.7 8.6-2.5 12.9l-.3-.1c.6-4.3 1.3-8.7 2-13l2.2-12.9 4.5-25.9.5.6-41.3-.1.5-.4-5.2 25.9-2.6 12.9c-.9 4.3-1.7 8.6-2.8 12.9z" fill="#bedae6"/><path d="m46.7 171.9c-2.1 0-4.5 0-7-.1-2.6 0-5.3-.1-8.1-.1h-15.1c-4.1 0-6.9.1-6.9.1v.7s2.7 0 6.9.1c4.1 0 9.6.1 15.1.1h15.1c4.1 0 6.9-.1 6.9-.1v-.7c0 .1-2.8 0-6.9 0zm-10.3 19c-2.6 0-5.4-.1-8.1-.1h-15.3c-4.2 0-6.9.1-6.9.1v.7s2.8 0 6.9.1c4.2 0 9.7.1 15.3.1h15.2c4.2 0 6.9-.1 6.9-.1v-.7s-2.8-.1-6.9-.1z" fill="#bedae6"/><path d="m206.6 144.8s7.4-13 9.3-12.6l.1 7c2.4-.8 4.3-2.6 5.3-4.9 2.3-4.2 8.8 1.2 0 9.5-9.2 4.7-12 7.3-12 7.3m-32.6 1.8v10.7l-10.1-.5v-7.1s-8.4-2.4-7-12.4l1.1-5.8" fill="#a7aaad"/><path d="m130.3 168.6-4.9-4.5 4.2-10.5 3.6-.6.8 10.8z" fill="#a7aaad"/><path d="m127 165.7c-.1 0-.2 0-.2-.1-6.1-3.2-6.2-8.8-4.4-12.7 1.1-2.3 2.6-3.6 3.8-3.1.6.2.7 1.1.9 3.2.1 1.7.3 4.3 1.1 4.8.1.1.3.1.6 0 .6-.2.6-1.3.4-2.7-.1-1.3-.3-2.7.9-2.9.5-.1.9.1 1.4.5 1.5 1.3 3 4.9 3 9.1 0 .3-.2.5-.5.5s-.5-.2-.5-.5c0-3.7-1.4-7.2-2.7-8.3-.2-.2-.5-.3-.6-.3-.2 0-.1 1.2 0 1.8.1 1.4.3 3.2-1.1 3.7-.7.2-1.2 0-1.5-.1-1.2-.8-1.4-3.3-1.5-5.6-.1-.9-.1-2.1-.3-2.4-.5-.1-1.6.8-2.4 2.6-1.6 3.5-1.5 8.5 4 11.4.2.1.3.4.2.7-.2.3-.4.4-.6.4zm-1.3-15c.1 0 .1 0 0 0z" fill="#004e6e"/><circle cx="123" cy="140" fill="#3895ba" r="17.9"/><path d="m192.9 103.7h73.3v34.8h-73.3z" fill="#98c6d9"/><path d="m167.1 160.8c-.2 0-.5-.2-.5-.4l-.5-4.1c-4.7-.9-5.8-4.5-6.7-8.4-1.4-6.6 1.2-14.3 8-16 5.2-1.2 9.8.7 11.2 4.6 1.5 4 2.8 7.8 2.8 9.1 0 .3-.2.5-.5.5s-.5-.2-.5-.5c0-1.3-1.7-6-2.7-8.8-1.2-3.5-5.4-5.1-10.1-4-6.2 1.5-8.5 8.7-7.2 14.8.8 3.8 1.8 7 6.2 7.7.2 0 .4.2.4.4l.5 4.4c.1.5-.1.7-.4.7z" fill="#004e6e"/><path d="m128.8 158.3c-3 1-1.9-7.7-2.9-8.1-2.3-.9-8.4 10 1.1 14.9" fill="#a7aaad"/><path d="m127 165.7c-.1 0-.2 0-.2-.1-6.1-3.2-6.2-8.8-4.4-12.7 1.1-2.3 2.6-3.6 3.8-3.1.6.2.7 1.1.9 3.2.1 1.7.3 4.3 1.1 4.8.1.1.3.1.6 0s.5.1.6.3-.1.5-.3.6c-.7.2-1.2 0-1.5-.2-1.2-.8-1.4-3.3-1.5-5.6-.1-.9-.1-2.1-.3-2.4-.5 0-1.6.8-2.4 2.6-1.6 3.5-1.5 8.5 4 11.4.2.1.3.4.2.7-.2.4-.4.5-.6.5z" fill="#004e6e"/><path d="m216.3 149.6-7.8-8.1c-3.8 7.6-15.2 19-23.7 21.1-.2-.1-.4-.2-.6-.2-2.8-1-18.4-2.1-22.2-.5-2.4 1-4 1.8-5.1 2.8-4.3 3.3-8.3 7-12.1 10.9l-9-14.1-8.1 5.8s6.9 25.4 17.6 24.9c3.5-.3 7-1.2 10.1-2.8l.6 18.2h37.3l-1.9-29.9c13.2-7 24.9-28.1 24.9-28.1z" fill="#c3c4c7"/><path d="m209.2 142.3c1.9-1.6 5.3-11.6 6.6-10.1l.1 7c1.4-.3 2.7-1 3.6-2" fill="#a7aaad"/><g fill="#004e6e"><path d="m209.2 142.8c-.1 0-.3-.1-.4-.2-.2-.2-.2-.5.1-.7.7-.6 1.8-2.9 2.8-4.8 1.7-3.4 2.7-5.4 3.7-5.5.3 0 .6.1.8.3.1.1.1.2.1.3l.1 6.4c1.1-.3 2-.9 2.8-1.7.2-.2.5-.2.7 0s.2.5 0 .7c-1 1.1-2.4 1.9-3.9 2.2-.1 0-.3 0-.4-.1s-.2-.2-.2-.4l-.1-6.6c-.7.6-2 3.2-2.7 4.8-1.1 2.3-2.2 4.4-3 5.2-.2 0-.3.1-.4.1z"/><path d="m214.2 148c-.3 0-.5-.2-.5-.5s.2-.5.5-.5c1.1 0 7.6-3.6 10.6-9.4.1-.2.4-.3.7-.2.2.1.3.4.2.7-3.2 6-9.9 9.9-11.5 9.9z"/><path d="m160 138c-1.3 4 3.9 3.2 3.9 3.2l-.8 7.3c0 1.7 1 3.3 2.5 4.2 2.2 1.2 5.5 3.2 9.7 2.3 8.4-1.9 8.3-21.2 2.1-23.5-6.9-2.5-14.1-3.8-17.4 6.5z"/><path d="m158.2 147.6c-.4 0-.7-.1-.9-.3-1.1-.7-1.4-2.6-1.2-4.2.2-1.8 1.4-2.8 2.3-3 .6-.1 1.1.1 1.3.5.1.2.1.5-.2.7-.2.1-.5.1-.7-.2 0 0-.2 0-.4.1-.5.2-1.1.8-1.3 1.8h.2l7.8 2.6c.3.1.4.4.3.6s-.4.4-.6.3l-7.8-2.6c0 1.2.3 2.2.8 2.6.3.2.7.1 1.2-.2.2-.1.5-.1.7.1.1.2.1.5-.1.7-.5.4-1 .5-1.4.5z"/></g><path d="m56.3 156.1s.2.8.5 2.2.6 3.4 1 5.8.9 5.2 1.4 8.2 1 6.2 1.6 9.4c.5 3.2 1 6.4 1.5 9.4s1 5.8 1.3 8.2c.4 2.4.6 4.4.8 5.8s.2 2.2.2 2.2l-.3.1s-.2-.8-.5-2.2-.7-3.4-1.1-5.8c-.5-2.4-.9-5.2-1.4-8.2s-1-6.2-1.6-9.4c-.5-3.2-1.1-6.4-1.6-9.4s-.9-5.8-1.3-8.2-.7-4.4-.9-5.8-.2-2.2-.2-2.2.6-.1.6-.1z" fill="#bedae6"/><path d="m15.5 155.6s.2.8.5 2.2.6 3.4 1 5.9c.4 2.4.9 5.3 1.4 8.3s1.1 6.3 1.6 9.5 1.1 6.5 1.6 9.5 1 5.9 1.3 8.3c.4 2.4.6 4.5.8 5.9s.2 2.2.2 2.2l-.3.1s-.2-.8-.5-2.2-.7-3.4-1.2-5.8-.9-5.3-1.4-8.3-1.1-6.3-1.6-9.5-1.1-6.5-1.6-9.5-1-5.9-1.4-8.3-.8-4.4-.9-5.9c-.2-1.4-.2-2.2-.2-2.2z" fill="#bedae6"/><path d="m163.1 148.5s-.1 9-3.7 10.2 16.3 12.4 26.4 2.1c0 0 2-3.2-1.9-3.2-3.6.1 6.2-6.1-.3-15.2z" fill="#004e6e"/><path d="m185.1 130.6c-2.2-3.7-4.5-7-11.8-7.4-3-.2-5.2.8-6.7 2-1.1-.8-2.4-1.1-3.7-.3-4.3 2.6-.1 11 .5 12.2 2.4 6.5 9.4 13.4 17.2 10.2 1.3-.2 2.4-1.1 3.3-2.3.7-.8 1.1-1.7 1.4-2.7.1-.4.3-.8.4-1.2 1-3.7.6-8.4-.6-10.5z" fill="#c3c4c7"/><path d="m181.8 132c-.4-1.3-.9-2.5-1.4-3.7s-1.2-2.4-1.9-3.5c-.8-1.1-1.7-2.2-3.2-2.7h-.2l-5.2-.1h-1.3l1.1.8c.2.2.5.4.8.7.3.2.5.5.8.7.5.5 1 1 1.4 1.6.5.6.9 1.1 1.3 1.7l.6.9.6.9c.4.6.7 1.3 1 1.9.3.7.6 1.3.8 2 .1.3.3.7.4 1l.3 1 .6 2.1h.3c-.1-.7-.1-1.5-.3-2.2s-.3-1.4-.6-2.1c-.2-.7-.5-1.4-.8-2.1s-.6-1.3-1-2c-.2-.3-.4-.6-.6-1l-.6-.9c-.4-.6-.9-1.2-1.3-1.8-.5-.6-1-1.1-1.5-1.7l-.7-.7 3.9.1c1.1.4 1.9 1.3 2.7 2.3.7 1 1.3 2.2 1.9 3.4.5 1.2 1 2.4 1.4 3.6s.8 2.5 1.2 3.7l.5-.1c-.2-1.3-.6-2.6-1-3.8z" fill="#f6f7f7"/><path d="m100 23.8c.2 11.6-6.6 15-9.2 15.6-4.8 1-11.9-5.4-14.1-14.7 0 0-6.5-17.3 13.7-16.5 7.7.3 9.6 15.6 9.6 15.6z" fill="#c3c4c7"/><g fill="#004e6e"><path d="m76.2 21.5s.3.8.7 2.2c.5 1.4 1.1 3.5 2.1 5.8.5 1.2 1.1 2.4 1.9 3.6s1.7 2.4 2.8 3.5c1.1 1 2.5 1.9 4.1 2.2 1.5.3 3.2.1 4.7-.6 1.5-.6 2.8-1.7 3.8-2.9 1-1.3 1.7-2.7 2.3-4.2 1-3 1.2-6 1.2-8.5s-.3-4.7-.5-6.1c-.1-.7-.2-1.3-.3-1.7.1-.6 0-.8 0-.8 0-.1 0-.2.1-.2s.2 0 .2.1c0 0 .3.8.6 2.3.2.7.3 1.6.5 2.7.2 1 .3 2.2.3 3.5.1 2.6-.1 5.7-1.2 8.9-.6 1.6-1.3 3.1-2.4 4.5s-2.5 2.6-4.2 3.3c-1.6.7-3.5 1-5.3.7-1.8-.4-3.4-1.3-4.6-2.5-1.2-1.1-2.2-2.4-3-3.7s-1.4-2.6-2-3.7c-1-2.4-1.7-4.5-2.1-5.9-.4-1.5-.5-2.3-.5-2.3 0-.2.1-.3.3-.4.3-.1.5 0 .5.2z"/><path d="m82.9 8.5c-7.4 1.7-11.6 6.6-9.4 9.1 2 2.2 14.3-5.2 18-2.8 2.4 1.5 3.4 5.8 3.7 8.6.2 1.6 1.5 2.9 3.1 3.2l1.9.5c2-10.8 2.1-23.2-17.3-18.6zm3.6 16.5s.1.3.3.7.3 1 .5 1.6.3 1.2.4 1.7.1.8.1.8c0 .2-.1.4-.3.4s-.3-.1-.4-.2c0 0-.1-.3-.3-.7s-.3-1.1-.4-1.7-.2-1.2-.3-1.7-.1-.8-.1-.8c0-.1.1-.3.2-.3.2 0 .2.1.3.2z"/><path d="m82.2 28.6c-.5.1-1-.2-1.1-.7l-.3-1.4c-.1-.5.2-1 .7-1.1s1 .2 1.1.7l.3 1.4c.1.5-.2.9-.7 1.1zm9-2.2c-.5.1-1-.2-1.1-.7l-.3-1.4c-.1-.5.2-1 .7-1.1s1 .2 1.1.7l.3 1.4c.1.5-.2 1-.7 1.1z"/><path d="m88.1 35.2c-.6 0-1.3-.2-1.7-.5-.2-.2-.2-.5-.1-.7s.5-.2.7-.1c.4.3 1 .4 1.7.2.6-.2 1-.5 1.1-.9.1-.3.4-.4.6-.3.3.1.4.4.3.6-.2.7-.9 1.3-1.8 1.6-.2.1-.5.1-.8.1zm.8-15.9.1-.1c.1-.1.3-.2.5-.3s.4-.2.7-.2c.2 0 .5-.1.8-.1.5 0 1.1.1 1.5.3s.6.4.6.4c.1.1.1.3 0 .5-.1.1-.2.1-.4.1 0 0-.2-.1-.5-.1-.3-.1-.7-.1-1.2-.1-.4 0-.9.1-1.2.1-.2 0-.3.1-.3.1-.1 0-.1.1-.1.1-.2.1-.4 0-.5-.2-.1-.3-.1-.4 0-.5zm-7.5 2.4h-.2s-.1 0-.3.1c-.3.1-.7.2-1.1.4s-.8.4-1 .6c-.3.2-.4.3-.4.3-.1.1-.3.2-.5 0-.1-.1-.1-.2-.1-.4 0 0 .1-.3.4-.6s.7-.7 1.2-.9c.2-.1.5-.2.7-.3s.5-.1.7-.1.4 0 .6.1c.1 0 .2.1.2.1.2.1.2.3.1.5-.1.1-.2.2-.3.2z"/></g><path d="m72.9 17.9c-1.3-14.2 23.8-19.7 27.6-3.8" fill="#3895ba"/><path d="m66.9 19.1s2.1-.5 5.4-1.1c1.6-.3 3.5-.6 5.5-.9s4.2-.6 6.4-1c4.3-.6 8.7-1.2 11.9-1.7 3.3-.4 5.4-.7 5.4-.7.2 0 .3.1.4.3 0 .2-.1.3-.3.4 0 0-2.2.4-5.4.9s-7.6 1.2-11.9 1.8c-2.2.3-4.3.6-6.4.9-2 .3-3.9.6-5.6.8-3.3.4-5.5.6-5.5.6-.1 0-.2-.1-.2-.2.1 0 .2-.1.3-.1zm20.9-3.2c-6.8-1.1-18.1-2.7-20.9 3.4" fill="#c3c4c7"/><path d="m87.8 16.1s-1.4 0-3.5-.3c-1-.1-2.3-.2-3.6-.3s-2.7-.2-4.1-.1c-.7 0-1.4.1-2 .1-.7.1-1.3.2-1.9.3-.3.1-.6.1-.9.2s-.6.2-.8.3c-.3.1-.5.2-.8.3-.2.1-.5.2-.7.4-.4.3-.8.5-1 .8-.3.3-.6.5-.7.8-.3.5-.5.8-.5.8v.1c-.1.2-.3.2-.5.1-.1-.1-.2-.3-.1-.4 0 0 .2-.3.5-.9.1-.3.4-.6.7-.9.3-.4.7-.6 1.1-1 .2-.2.5-.3.7-.4.3-.1.5-.3.8-.4l.9-.3c.3-.1.6-.2 1-.3.7-.2 1.4-.3 2.1-.4s1.4-.1 2.1-.2c1.4 0 2.9.1 4.2.2s2.6.3 3.6.4c.5.1 1 .2 1.4.3s.8.2 1.1.2c.6.1.9.2.9.2.1 0 .2.1.1.3 0 0-.1.1-.1.1z" fill="#c3c4c7"/><path d="m65.3 49.9s-3.4 6.1 1.5 7.5 6.2 1.1 7.1-.5c1.4-2.5.1-3.9 2.1-1.8 2 2.2 4.3 1.8 3.9-1.2s-2.5-4.2-6.8-4.5c-4.1-.3-6.4-1-7.8.5z" fill="#c3c4c7"/><path d="m65.5 50.2c-.3.7-.5 1.5-.7 2.2-.1.4-.1.7-.1 1.1s0 .7.1 1.1c0 .2.1.3.2.5s.1.3.3.5c.2.3.4.5.7.8l.9.6c.4.1.7.3 1.1.4l1.1.3c.4.1.7.1 1.1.1.8 0 1.5-.1 2.2-.3.3-.1.6-.3.9-.6.3-.2.5-.5.6-.8l.2-.5.2-.5c.1-.3.1-.7.2-1.1v-.1c.1-.3.3-.5.6-.4.1 0 .3.1.3.2.4.5.8.9 1.2 1.3.2.2.5.4.7.5.2.2.5.3.7.3.2.1.5.1.7 0l.6-.3.2-.2.1-.1c.1-.1.1-.2.1-.3.1-.2.1-.5.1-.8s-.1-.5-.2-.8-.2-.5-.3-.8l-.2-.4-.3-.3-.6-.6c-.2-.2-.5-.4-.7-.5-.3-.2-.5-.3-.8-.4l-.9-.3-.9-.2c-.1 0-.1-.1-.1-.2s.1-.1.2-.1h1c.3.1.7.1 1 .2.6.2 1.3.4 1.9.8.3.2.6.4.8.7l.4.4.3.4c.2.3.4.6.5 1 .1.3.2.7.2 1.1s0 .8-.1 1.1c-.1.2-.1.4-.3.6l-.2.3-.2.2c-.3.3-.6.5-1.1.6-.4.1-.8.1-1.2 0s-.7-.3-1-.4c-.3-.2-.6-.4-.8-.6-.5-.4-1-.9-1.4-1.5l1-.3c-.1.4-.1.9-.2 1.3l-.5.6-.3.6c-.2.4-.5.8-.9 1.1-.3.3-.8.6-1.2.7-.9.4-1.8.5-2.6.4-.4 0-.9-.1-1.3-.2l-1.2-.3c-.4-.1-.8-.3-1.2-.5s-.8-.4-1.1-.7-.7-.6-.9-1l-.3-.6c-.1-.2-.2-.4-.2-.7-.1-.4-.1-.9-.2-1.4 0-.4.1-.9.2-1.3s.3-.8.4-1.2c.2-.4.4-.8.7-1.1.1-.1.3-.2.5 0 0 .1.1.3 0 .4z" fill="#004e6e"/><path d="m79.6 51.8s0-.1.1-.2.2-.1.3-.2c.3-.2.6-.6.9-1 .2-.2.3-.4.5-.6s.3-.4.4-.5c.2-.3.6-.4.6-.4.1 0 .2 0 .3.1 0 0 .1.3-.1.7s-.4.9-.8 1.3c-.3.4-.8.8-1.2 1.1-.2.1-.3.2-.5.3h-.3c-.2.1-.4 0-.4-.2-.1-.2 0-.3.2-.4z" fill="#004e6e"/><path d="m144.4 191.3s.4-.1 1.2-.2c.7-.1 1.8-.1 3.1-.4 1.3-.2 2.7-.6 4.2-1.2.7-.3 1.5-.7 2.1-1.1.7-.5 1.3-1 1.9-1.6s1.1-1.3 1.5-2c.5-.7.9-1.4 1.2-2.1s.6-1.4.8-2.1.4-1.4.6-2c.3-1.2.5-2.3.7-3 .1-.7.2-1.2.2-1.2 0-.1.1-.2.2-.1.1 0 .1.1.1.2v1.2c0 .4 0 .9-.1 1.4 0 .5-.1 1.1-.2 1.8-.3 1.3-.7 2.8-1.4 4.3-.3.8-.8 1.5-1.2 2.3-.5.7-1 1.5-1.6 2.1-.6.7-1.3 1.3-2.1 1.8s-1.6.9-2.3 1.2c-1.6.6-3.1 1-4.4 1.2s-2.4.3-3.2.3-1.2-.1-1.2-.1c-.2 0-.3-.2-.3-.4-.1-.1 0-.2.2-.3z" fill="#004e6e"/><path d="m85.7 42.1s14.4-1.4 26.1 1.1c0 0 7.2 1.2 9.2 5.3 2.3 4.7 12.4 20 3.5 26.3-9.5 6.8-25.3 13.8-25.3 13.8l-4.3-10.6 17.7-9.7s1.4-.8.8-2.5c-.9-3-3.8-12.3-3.8-12.3l-25.7-.7z" fill="#3895ba"/><path d="m87 42s-6.3 6.1 1 6.1 11.5-6.3 11.5-6.3-1.7-3.7-1.9-5.6l-4.2 4.5z" fill="#c3c4c7"/><path d="m108.9 51.1c.4.6.6 1.3.8 2l.7 2.1 1.4 4.1c1 2.8 1.8 5.5 2.7 8.3.1.2 0 .5-.3.6l-3.9 2.1c-1.3.7-2.7 1.3-4.1 1.8-.1 0-.2 0-.2-.1s0-.2.1-.2c1.2-.9 2.5-1.6 3.8-2.4l3.9-2.1-.2.6c-.9-2.8-1.9-5.5-2.8-8.3l-1.3-4.2-.7-2.1c-.2-.7-.4-1.4-.5-2.1 0-.2.1-.4.3-.4 0 0 .3.3.3.3z" fill="#004e6e"/><path d="m198.1 31.7c-.1-1.1-.2-2.2-.5-3.3-.5-2.2-1.5-4.3-3-6s-3.5-3-5.6-3.7c-1.1-.4-2.2-.6-3.3-.7-1.2-.1-2.2-.2-3.3-.2s-2.2.1-3.3.3-2.2.5-3.3.8c-1 .4-2.1.9-3 1.6s-1.8 1.4-2.5 2.3c-1.5 1.8-2.4 3.9-2.8 6.1-.2 1.1-.4 2.2-.4 3.3s0 2.2.2 3.4l.1.4h.4c.6 0 1.1-.1 1.7-.1v11.2c0 1.7 0 3.5.2 5.2h.7c.2-1.7.2-3.5.2-5.2v-8.9c.2.2.4.5.6.7.4.5 1 1 1.6 1.5s1.5.9 2.4 1.2c1 .2 2.1.2 3.1-.1.5-.1 1-.4 1.5-.6.5-.3.9-.6 1.3-.9l.6-.4.6-.3c.4-.2.8-.3 1.1-.2.7.2 1.3 1.1 1.7 2 .5.9.9 1.8 1.4 2.7s1 1.7 1.6 2.4 1.4 1.3 2.2 1.6 1.6.3 2.3.2 1.2-.2 1.7-.4c.4-.2.8-.3 1-.4 0 1.6.1 3.3.2 4.9h.3c.2-3.4.3-6.8.3-10.3v-6.4c.5 0 1.1.1 1.6.1h.2v-.3c.3-1.3.3-2.4.2-3.5zm-3.1 14.9c-.2.1-.6.2-1 .3s-1 .2-1.6.2-1.3-.1-1.9-.3c-.7-.3-1.3-.7-1.8-1.4-.6-.6-1-1.4-1.5-2.3-.4-.9-.9-1.8-1.3-2.7-.3-.5-.5-.9-.9-1.4-.4-.4-.8-.9-1.5-1.1-1.4-.4-2.6.5-3.3 1.1-.4.3-.8.6-1.2.8s-.8.5-1.3.6c-.8.3-1.7.3-2.5.1s-1.5-.5-2.1-1c-.6-.4-1.1-.9-1.5-1.4s-.7-.9-1-1.3c-.1-.2-.3-.3-.4-.5v-4.5h24.7v9.7c0 1.6 0 3.3.1 4.9.2.2.1.2 0 .2zm.6-15.7c-8.6 0-17.2-.1-25.7 0h-.5v4.3c-.4 0-.9-.1-1.3-.1-.1-.9-.1-1.9 0-2.8.1-1.1.2-2.1.4-3.1.5-2.1 1.3-4 2.7-5.6.7-.8 1.4-1.5 2.3-2.1s1.8-1 2.8-1.4c1-.3 2-.6 3.1-.8 1-.2 2.1-.3 3.2-.3 1 0 2.2 0 3.2.1s2.1.3 3.1.7c2 .6 3.8 1.8 5.2 3.3 1.4 1.6 2.3 3.5 2.9 5.5.3 1 .5 2.1.6 3.1s.2 2 .1 3c-.4 0-.9 0-1.3.1v-3.9z" fill="#bedae6"/><path d="m76.5 73.2h13.4v12.2h-13.4z" fill="#bedae6"/><path d="m90.1 84.3s0 .1.1.3c0 .3 0 .8-.4 1.1-.4.4-.8.6-1.4.7-.5.2-1.1.2-1.8.3-.6.1-1.3.1-2.1.1-.7 0-1.5 0-2.2.1-.2 0-.4.1-.5.1l.1-.1v-.1.2s0 .1.1.3c.1.1.1.3.2.4.4.6 1 1.1 1.7 1.5 1.3.9 2.9 1.4 4.4 1.4 1.5.1 2.8-.4 3.9-1 .3-.1.5-.3.7-.5s.4-.3.6-.5c.4-.3.7-.6.9-.9.3-.2.4-.5.6-.6l.2-.2c.1-.1.2-.1.2 0 .1.1.1.1 0 .2 0 0-.1.1-.1.3-.1.2-.2.4-.5.7-.2.3-.5.7-.9 1.1s-.8.8-1.4 1.2c-1.1.7-2.7 1.2-4.4 1.2s-3.4-.6-4.9-1.5c-.8-.5-1.5-1-2-1.8-.1-.2-.3-.4-.4-.7 0-.1-.1-.2-.1-.4v-.5c0-.1 0-.1.1-.2v-.1c.1-.1.1-.1.1-.2.1-.2.2-.2.3-.3s.2-.1.2-.1c.3-.1.5-.1.7-.1.8-.1 1.6-.1 2.3-.1s1.4 0 2-.1c1.2-.1 2.2-.4 2.6-.7.2-.1.2-.3.3-.4v-.3c0-.2.1-.3.3-.4.3.3.4.4.5.6z" fill="#004e6e"/><path d="m89.7 80s0-.1.1-.2.3-.1.4-.1c.4-.1.9-.2 1.3-.3.5-.1 1-.1 1.4-.1s.7.2.7.2c.1.1.1.2.1.3 0 0-.2.3-.6.4s-.8.2-1.3.3-1 .1-1.4.2c-.2 0-.3.1-.5 0-.1 0-.2-.1-.2-.1 0-.1-.1-.4 0-.6z" fill="#004e6e"/></svg>
