<svg width="20" height="18" viewBox="0 0 20 18" fill="none" xmlns="http://www.w3.org/2000/svg">
	<path
		d="M9 18V16.5H17.5V8.9C17.5 7.93333 17.2917 7.00417 16.875 6.1125C16.4583 5.22083 15.9 4.43333 15.2 3.75C14.5 3.06667 13.7 2.52083 12.8 2.1125C11.9 1.70417 10.9667 1.5 10 1.5C9.03333 1.5 8.1 1.70417 7.2 2.1125C6.3 2.52083 5.5 3.06667 4.8 3.75C4.1 4.43333 3.54167 5.22083 3.125 6.1125C2.70833 7.00417 2.5 7.93333 2.5 8.9V15H2C1.45 15 0.979167 14.8042 0.5875 14.4125C0.195833 14.0208 0 13.55 0 13V11C0 10.6167 0.0916668 10.2792 0.275 9.9875C0.458333 9.69583 0.7 9.45833 1 9.275L1.075 7.95C1.225 6.73333 1.57083 5.63333 2.1125 4.65C2.65417 3.66667 3.32917 2.83333 4.1375 2.15C4.94583 1.46667 5.85417 0.9375 6.8625 0.5625C7.87083 0.1875 8.91667 0 10 0C11.1 0 12.1542 0.1875 13.1625 0.5625C14.1708 0.9375 15.075 1.47083 15.875 2.1625C16.675 2.85417 17.3458 3.6875 17.8875 4.6625C18.4292 5.6375 18.775 6.725 18.925 7.925L19 9.225C19.3 9.375 19.5417 9.59583 19.725 9.8875C19.9083 10.1792 20 10.5 20 10.85V13.15C20 13.5167 19.9083 13.8417 19.725 14.125C19.5417 14.4083 19.3 14.625 19 14.775V16.5C19 16.9167 18.8542 17.2708 18.5625 17.5625C18.2708 17.8542 17.9167 18 17.5 18H9ZM7 10.75C6.8 10.75 6.625 10.675 6.475 10.525C6.325 10.375 6.25 10.1917 6.25 9.975C6.25 9.775 6.325 9.60417 6.475 9.4625C6.625 9.32083 6.80833 9.25 7.025 9.25C7.225 9.25 7.39583 9.32083 7.5375 9.4625C7.67917 9.60417 7.75 9.78333 7.75 10C7.75 10.2 7.67917 10.375 7.5375 10.525C7.39583 10.675 7.21667 10.75 7 10.75ZM13 10.75C12.8 10.75 12.625 10.675 12.475 10.525C12.325 10.375 12.25 10.1917 12.25 9.975C12.25 9.775 12.325 9.60417 12.475 9.4625C12.625 9.32083 12.8083 9.25 13.025 9.25C13.225 9.25 13.3958 9.32083 13.5375 9.4625C13.6792 9.60417 13.75 9.78333 13.75 10C13.75 10.2 13.6792 10.375 13.5375 10.525C13.3958 10.675 13.2167 10.75 13 10.75ZM4.025 9.45C3.95833 8.46667 4.09583 7.575 4.4375 6.775C4.77917 5.975 5.2375 5.29583 5.8125 4.7375C6.3875 4.17917 7.05 3.75 7.8 3.45C8.55 3.15 9.3 3 10.05 3C11.5667 3 12.8417 3.47917 13.875 4.4375C14.9083 5.39583 15.5417 6.59167 15.775 8.025C14.2083 8.00833 12.8292 7.5875 11.6375 6.7625C10.4458 5.9375 9.525 4.86667 8.875 3.55C8.60833 4.9 8.04583 6.09583 7.1875 7.1375C6.32917 8.17917 5.275 8.95 4.025 9.45Z"
		fill="#007CBA"
	/>
</svg>
