<?xml version="1.0" encoding="utf-8"?>
<!-- Generator: Adobe Illustrator 19.2.1, SVG Export Plug-In . SVG Version: 6.00 Build 0)  -->
<svg version="1.1" id="Layer_1" xmlns="http://www.w3.org/2000/svg" xmlns:xlink="http://www.w3.org/1999/xlink" x="0px" y="0px"
	 viewBox="0 0 100.2 129.2" style="enable-background:new 0 0 100.2 129.2;" xml:space="preserve">
<style type="text/css">
	.st0{fill:#82D4F1;}
	.st1{fill:#005084;}
	.st2{fill:#C8D7E1;}
	.st3{fill:#FFFFFF;}
	.st4{fill:#C8D8E1;}
	.st5{fill:#1785BE;}
</style>
<g>
	<path class="st0" d="M45.7,91.3c0,0-0.4,0.7,1.6,3.4s2.4,17.1-1.5,31.8c0,0,6,1.6,14.2,2.8H88c1.5-0.3,3-0.7,4.3-1.2
		c0,0-2.4-10.2-2.6-36.2l5.6,0c-0.5-43-29.6-43.8-29.6-43.8L46.3,60.1c-14.7,10-13.8,31.5-13.8,31.5L45.7,91.3z"/>
	<path class="st1" d="M32.9,16.9c0,0-2.9,13.7,2.4,22.8l6-1.2l-5.6-17L32.9,16.9z"/>
	<path class="st2" d="M65.1,39.9c3.4-5.3,3.5-12.8-0.3-19.4c-5.1-8.9-15.4-12.5-23-8.2c-7.6,4.4-9.5,15.1-4.4,24
		c4,6.8,11,10.6,17.5,9.9c-0.4,6.3-3,13.9-3,13.9l10.6,6.1l9.5-18C68.8,47.3,66.5,43.2,65.1,39.9z"/>
	<ellipse transform="matrix(0.9441 -0.3297 0.3297 0.9441 -8.4537 14.1875)" class="st1" cx="37.6" cy="32" rx="1" ry="1.6"/>
	<ellipse transform="matrix(0.9441 -0.3297 0.3297 0.9441 -7.3721 16.9297)" class="st1" cx="46.2" cy="30.2" rx="1" ry="1.6"/>
	<path class="st3" d="M51.4,58c1,0.7,1.8,1.5,2.6,2.4l2.4,2.5l4.8,5.1l-1.3,0.2c1.6-3,3.3-5.9,5-8.9c1.7-2.9,3.3-5.9,5.4-8.6
		c0.1-0.1,0.2-0.1,0.4,0c0.1,0.1,0.1,0.2,0.1,0.3c-1.1,3.2-2.9,6.2-4.5,9.1c-1.6,3-3.2,5.9-4.9,8.9l0,0c-0.2,0.4-0.7,0.5-1.1,0.3
		c-0.1,0-0.1-0.1-0.2-0.2L55.3,64l-2.4-2.6c-0.8-0.9-1.6-1.7-2.2-2.7c-0.1-0.2-0.1-0.6,0.2-0.7C51.1,57.9,51.3,57.9,51.4,58z"/>
	<path class="st1" d="M32.6,25.6c0,0-2.8-17.3,11.6-22.7s24.7,8.2,26,17.5c2,14.2,7.5,20.1,14.2,24.3c6.8,4.3,3,16,3,16
		s-3.5-4.4-14.5-8.5c-0.6-0.2-3-1.3-4-2.1c-4.8-3.9-6.6-7.1-6.7-16c0,0,3.6-2.3,2.3-7.4c0,0-12.2,8-25.7-10.3
		C39,16.3,38.3,21.8,32.6,25.6z"/>
	<path class="st1" d="M38.3,28.1c0,0-0.1,0.1-0.2,0.2c-0.1,0-0.3,0-0.5,0c-0.2,0-0.4,0-0.6,0.1c-0.2,0-0.5,0.1-0.7,0.2
		c-0.2,0.1-0.4,0.2-0.6,0.3c-0.2,0.1-0.3,0.2-0.5,0.3c-0.2,0.1-0.3,0.2-0.4,0.2c-0.1,0.1-0.2,0.1-0.2,0.1l0,0
		c-0.1,0-0.3-0.1-0.3-0.2c0,0,0-0.1,0-0.3c0-0.2,0-0.4,0.2-0.6c0.1-0.2,0.4-0.4,0.6-0.6c0.3-0.2,0.6-0.4,0.9-0.5
		c0.6-0.3,1.3-0.3,1.8-0.3c0.2,0,0.4,0,0.6,0.1c0.1,0.1,0.2,0.2,0.2,0.2c0.1,0.2,0.1,0.5-0.1,0.7L38.3,28.1z"/>
	<path class="st1" d="M42.2,32.8c0,0,0.2,0.2,0.4,0.6c0.2,0.4,0.5,0.9,0.7,1.5c0.2,0.5,0.4,1.1,0.5,1.5c0.1,0.4,0.2,0.7,0.2,0.7
		c0,0.2-0.1,0.4-0.3,0.5c-0.2,0-0.3,0-0.4-0.2c0,0-0.2-0.2-0.4-0.6c-0.2-0.4-0.5-0.9-0.7-1.5c-0.2-0.5-0.4-1.1-0.5-1.5
		c-0.1-0.4-0.2-0.7-0.2-0.7c0-0.2,0.1-0.4,0.3-0.5C41.9,32.6,42.1,32.6,42.2,32.8z"/>
	<path class="st1" d="M42.1,26.1c0,0,0-0.2,0.1-0.3c0.1-0.1,0.3-0.3,0.6-0.4c0.5-0.3,1.2-0.6,1.9-0.6c0.4,0,0.7,0,1.1,0
		c0.3,0.1,0.6,0.1,0.9,0.2c0.5,0.2,0.7,0.6,0.7,0.6c0.1,0.1,0,0.3-0.1,0.4c0,0,0,0,0,0l0,0c0,0-0.1,0-0.3,0.1
		c-0.2,0.1-0.4,0.1-0.6,0.1c-0.2,0-0.5,0-0.8,0c-0.3,0-0.6,0-0.8,0c-0.3,0-0.6,0.1-0.8,0.1c-0.3,0.1-0.5,0.2-0.7,0.2
		c-0.2,0.1-0.3,0.2-0.4,0.2c-0.1,0-0.2,0-0.2,0c-0.2,0.2-0.4,0.2-0.6,0C42,26.5,42,26.3,42.1,26.1z"/>
	<g>
		<path class="st3" d="M3.4,37.7c-0.1-0.3,0-0.5,0.4-0.4l21.5,4.9c0.3,0.1,0.9,0,1.1-0.3L30,39c0.3-0.2,0.8-0.5,1.1-0.5l23.6-5
			c0.3-0.1,0.7,0.1,0.9,0.5l13.6,33.8c0.1,0.3,0,0.6-0.4,0.7l-22.3,2.8c-0.4,0-0.8,0.3-1.1,0.6l-2.8,3c-0.2,0.3-0.7,0.4-1.1,0.4
			l-22.4-3.6c-0.4-0.1-0.8-0.4-0.9-0.7L3.4,37.7z"/>
		<path class="st1" d="M39.5,72.6c-0.8-1.1-1.3-2.4-1.9-3.7l-1.8-3.7l-3.5-7.5l-3.4-7.5c-1.1-2.5-2.3-5-3.4-7.6l0,0
			c-0.1-0.2,0-0.4,0.2-0.5c1-0.7,2-1.5,3-2.2c0.1-0.1,0.2,0,0.3,0.1c0.1,0.1,0,0.2,0,0.2c-0.8,0.9-1.7,1.8-2.7,2.6l0.1-0.6
			c1.3,2.4,2.4,5,3.6,7.5l3.5,7.5l3.4,7.5l1.7,3.8c0.6,1.3,1.2,2.5,1.5,3.8c0.1,0.2-0.1,0.4-0.3,0.5C39.7,72.8,39.6,72.7,39.5,72.6z
			"/>
		<path class="st1" d="M44.3,69c0,0-0.3-0.4-0.7-1c-0.4-0.7-1-1.7-1.6-2.9c-0.3-0.6-0.6-1.3-0.9-2c-0.3-0.7-0.6-1.5-0.9-2.3
			c-0.3-0.8-0.6-1.6-1-2.4c-0.4-0.8-0.8-1.6-1.3-2.4c-0.5-0.8-0.9-1.6-1.3-2.4c-0.4-0.8-0.8-1.6-1.2-2.3c-0.4-0.8-0.7-1.5-1-2.2
			c-0.3-0.7-0.6-1.4-0.8-2c-0.5-1.3-0.9-2.3-1.1-3.1c-0.2-0.8-0.4-1.2-0.4-1.2c0,0,0-0.1,0-0.1c0,0,0.1,0,0.1,0c0,0,0.3,0.4,0.7,1
			c0.4,0.7,1,1.6,1.7,2.8c0.3,0.6,0.7,1.2,1,1.9c0.4,0.7,0.7,1.4,1,2.2c0.3,0.8,0.7,1.6,1,2.4c0.3,0.8,0.7,1.7,1,2.5
			c0.3,0.8,0.6,1.7,1,2.5c0.4,0.8,0.8,1.6,1.2,2.3c0.4,0.7,0.9,1.4,1.2,2.1c0.4,0.7,0.6,1.4,0.9,2c0.5,1.3,0.9,2.3,1.2,3.1
			c0.2,0.8,0.4,1.2,0.4,1.2C44.4,69,44.4,69,44.3,69C44.3,69,44.3,69,44.3,69z"/>
		<path class="st1" d="M40.6,46.4c0.4,0.8,0.9,1.6,1.3,2.4c0.4,0.8,0.9,1.6,1.3,2.5l-0.7-0.4l3.1-0.8c1-0.3,2.1-0.6,3.1-0.8
			c1.1-0.2,2.1-0.5,3.2-0.7l3.2-0.7l-0.8,1.5c-0.4-0.9-0.7-1.9-1.1-2.8c-0.4-0.9-0.7-1.9-1.1-2.8l1.2,0.6c-1.1,0.2-2.1,0.4-3.2,0.6
			l-3.2,0.5c-1.1,0.2-2.1,0.4-3.2,0.5C42.7,46.2,41.7,46.3,40.6,46.4z M40.5,46.3l12.5-3c0,0,0.1,0,0.1,0.1l2.3,5.5
			c0,0.1,0,0.1-0.1,0.2l0,0l-12.7,2.4c0,0-0.1,0-0.1,0L40.5,46.3C40.5,46.4,40.5,46.3,40.5,46.3C40.5,46.3,40.5,46.3,40.5,46.3z"/>
		<path class="st4" d="M25.6,41.4c-0.9,0-1.7-0.4-2.5-0.6L20.7,40l-4.9-1.6c-3.2-1.1-6.5-2.2-9.7-3.3L6.7,35C5.9,35.7,5,36.3,4,36.9
			l-0.3-0.3c0.6-0.9,1.3-1.7,2.1-2.5l0.2-0.2L6.5,34c3.3,1,6.5,2.1,9.7,3.2l4.8,1.7l2.4,0.8c0.8,0.3,1.6,0.5,2.4,1L25.6,41.4z"/>
		<path class="st4" d="M26.7,40.5c-0.8-0.1-1.4-0.5-2.1-0.9l-2-1.1l-4.1-2.1l-4-2.2c-1.3-0.7-2.7-1.5-4-2.2l0.9-0.5
			c-0.1,1.1-0.2,2.2-0.5,3.3l-0.4,0c-0.2-1.1-0.2-2.2-0.2-3.4l0-0.9L11,31c1.4,0.7,2.7,1.4,4.1,2.1l4,2.1l4,2.2l2,1.1
			c0.7,0.4,1.4,0.7,1.9,1.3L26.7,40.5z"/>
		<path class="st4" d="M15,29.2c0,0,0.3,0,0.7,0.3c0.4,0.2,0.9,0.6,1.5,1.1c1.3,0.9,3,2.1,4.7,3.3c0.8,0.6,1.7,1.2,2.4,1.8
			c0.8,0.6,1.5,1.1,2.1,1.6c1.2,1,1.9,1.8,1.9,1.8l-0.2,0.3c0,0-1-0.4-2.3-1.2c-0.7-0.4-1.4-1-2.2-1.5c-0.8-0.5-1.6-1.1-2.5-1.8
			c-1.7-1.2-3.3-2.5-4.6-3.4c-0.6-0.5-1.2-0.8-1.5-1.1c-0.3-0.3-0.5-0.6-0.5-0.6L15,29.2z"/>
	</g>
	<path class="st2" d="M59.1,29c0,0-0.2-4.6,3.2-4.3c3.4,0.3,4.7,9.9-2.1,11L59.1,29z"/>
	<path class="st2" d="M81.5,99.7l-0.1-7.9l13.5,0c0,19.2-8.5,19.3-8.5,19.3c-21,3.3-28-33.6-28-33.6c-11.3-0.7-10.7-12.9-10.7-12.9
		s-0.1-2.5,2-3.3c2.2-0.8,2.4,1.1,2.4,1.1c0.9,4.2,7.1,7.2,8.7,7c1.4-0.2,1.6-0.2,1.6-0.2l2.5-0.3c0,0,0.8,2.1-0.1,7
		c0,0,0.5,3.3,3.4,5.4C72.1,84.2,80.7,87.5,81.5,99.7z"/>
	<path class="st1" d="M62.8,35.2c0.2,1.4,0.5,2.8,0.9,4.2c0.4,1.4,0.8,2.7,1.4,4c1.2,2.6,2.9,4.9,5.2,6.6c1.1,0.9,2.4,1.6,3.7,2.1
		c0.7,0.3,1.3,0.5,2,0.7c0.7,0.2,1.4,0.4,2.1,0.6c1.5,0.5,2.9,1.1,4.2,1.9c1.3,0.8,2.6,1.7,3.7,2.8c2.2,2.1,4,4.7,5.3,7.4
		c1.3,2.7,2.2,5.6,2.9,8.6c1.3,5.9,1.7,11.8,1.8,17.8l0,0c0,0.4-0.3,0.8-0.8,0.8l0,0c-2.4,0-4.8,0-7.3-0.1l-1.8,0
		c-0.6,0-1.2-0.1-1.8-0.1c-1.2-0.1-2.4-0.2-3.6-0.3c-0.1,0-0.2-0.1-0.2-0.3c0-0.1,0.1-0.2,0.2-0.2c1.2-0.1,2.4-0.2,3.6-0.3
		c0.6,0,1.2-0.1,1.8-0.1l1.8,0c2.4-0.1,4.8,0,7.3-0.1l-0.8,0.8c-0.1-5.9-0.6-11.7-1.9-17.4c-0.7-2.8-1.5-5.6-2.8-8.2
		c-1.2-2.6-2.9-5-4.9-6.9c-1-1-2.2-1.8-3.4-2.6C80.3,56,79,55.4,77.6,55c-0.7-0.2-1.4-0.4-2.1-0.6c-0.7-0.2-1.5-0.5-2.2-0.8
		c-1.4-0.6-2.8-1.4-4-2.3c-2.5-1.9-4.3-4.4-5.6-7.2c-0.6-1.4-1.1-2.8-1.5-4.3c-0.3-1.5-0.5-3-0.5-4.5c0-0.3,0.2-0.5,0.5-0.5
		C62.6,34.7,62.8,34.9,62.8,35.2L62.8,35.2z"/>
	<path class="st1" d="M51.8,61.3c0,0,0.2,0.2,0.3,0.5c0.1,0.3,0.3,0.8,0.6,1.3c0.3,0.5,0.6,1.1,1.1,1.7c0.5,0.6,1,1.1,1.6,1.6
		c0.3,0.2,0.6,0.5,1,0.7c0.3,0.2,0.6,0.4,1,0.6c0.3,0.2,0.7,0.3,1,0.5c0.3,0.1,0.6,0.3,0.9,0.4c0.5,0.3,1,0.5,1.3,0.7
		c0.3,0.2,0.5,0.3,0.5,0.3l0,0c0.1,0.1,0.1,0.2,0.1,0.3c0,0.1-0.1,0.1-0.2,0.1c0,0-0.2,0-0.6,0c-0.4,0-0.9-0.1-1.5-0.3
		c-0.3-0.1-0.6-0.2-1-0.3c-0.3-0.2-0.7-0.3-1.1-0.5c-0.4-0.2-0.7-0.4-1.1-0.6c-0.4-0.2-0.7-0.5-1.1-0.8c-0.3-0.3-0.7-0.6-1-0.9
		c-0.3-0.3-0.6-0.6-0.8-1c-0.5-0.7-0.9-1.3-1.2-1.9c-0.3-0.6-0.5-1.1-0.6-1.5c-0.1-0.4,0-0.7,0-0.7c0-0.2,0.1-0.4,0.3-0.5
		C51.5,60.9,51.7,61,51.8,61.3z"/>
	<path class="st1" d="M65,68.6c0.5,1.2,0.7,2.5,0.7,3.8c0,1.3-0.1,2.6-0.6,3.9l0-0.3c0.1,0.5,0.3,1.1,0.6,1.6c0.3,0.5,0.6,1,1,1.5
		c0.4,0.5,0.8,0.9,1.3,1.3c0.5,0.4,1,0.7,1.6,1.1c2.2,1.4,4.5,2.7,6.5,4.6c2,1.8,3.5,4.2,4.5,6.6c0.5,1.2,0.9,2.5,1.1,3.8
		c0.2,1.3,0.4,2.6,0.4,3.9c0,0.1-0.1,0.2-0.2,0.2c-0.1,0-0.2-0.1-0.2-0.1l-0.5-1.9c-0.2-0.6-0.3-1.2-0.5-1.9
		c-0.4-1.2-0.8-2.4-1.3-3.6c-1-2.3-2.4-4.5-4.2-6.2c-1.8-1.7-4.1-3-6.3-4.4c-0.6-0.4-1.1-0.7-1.6-1.2c-0.5-0.4-1-0.9-1.5-1.5
		c-0.4-0.5-0.8-1.1-1.1-1.8c-0.3-0.6-0.6-1.3-0.7-2c0-0.1,0-0.2,0-0.3l0-0.1c0.1-0.3,0.2-0.5,0.3-0.8c0.1-0.3,0.1-0.6,0.2-0.8
		c0.1-0.6,0.1-1.2,0.1-1.8c0-1.2-0.2-2.4-0.3-3.6l0,0c0-0.2,0.1-0.4,0.4-0.4C64.7,68.3,64.9,68.4,65,68.6z"/>
	<path class="st1" d="M48.6,61.9c0,0,0.1,0.1,0.2,0.3c0.1,0.2,0.1,0.5,0.2,0.9c0.2,0.8,0.6,1.8,1,2.7c0.2,0.5,0.5,0.9,0.8,1.3
		c0.3,0.4,0.6,0.7,0.8,1c0.3,0.3,0.5,0.5,0.6,0.7c0.2,0.2,0.3,0.3,0.3,0.3l0,0c0.1,0.1,0,0.2,0,0.2c0,0-0.1,0-0.1,0
		c0,0-0.1,0-0.4-0.1c-0.1,0-0.3-0.1-0.4-0.2c-0.2-0.1-0.3-0.2-0.5-0.3c-0.4-0.3-0.7-0.7-1.1-1.1c-0.3-0.4-0.6-0.9-0.9-1.4
		c-0.3-0.5-0.5-1-0.6-1.6c-0.2-0.5-0.3-1-0.4-1.4c-0.1-0.4-0.2-0.8-0.2-1c0-0.3,0.1-0.4,0.1-0.4C48,61.8,48.3,61.7,48.6,61.9
		C48.5,61.9,48.5,61.9,48.6,61.9L48.6,61.9z"/>
	<path class="st2" d="M46.4,92.9l-0.9-1.8l-7,0l0.3,1.7c-0.5-2.4-0.9-2.6-4-7c-0.2-0.3-0.8-1.4-1.4-1.9c-1.2-1.1-2-2.5-1.4-6.3
		c0.4-3.1-0.7-3.7-0.7-3.7l-2.5-1.1c0,0-6.6-2.6-6.7-7c0-2.3-3.5-2.3-3.5,0.7c0,0-0.9,8.6,7.4,11.1c0,0-0.7,32,13.8,32
		c0,0,8.5,0.7,8.5-9.4L46.4,92.9z"/>
	<path class="st1" d="M39.1,101.9c0,0,0-0.2,0.1-0.5c0-0.2,0-0.3,0.1-0.6c0-0.2,0-0.5,0.1-0.7c0.1-1.1,0.3-2.6-0.1-4.5
		c-0.4-1.8-1.3-3.8-2.6-5.8c-1.3-2-3.1-3.9-4.4-6.3c-0.7-1.2-1.2-2.5-1.2-4c0-0.7,0.1-1.3,0.1-1.9c0-0.6,0-1.2,0-1.8
		c-0.1-0.6-0.2-1.1-0.4-1.5c0-0.1-0.1-0.2-0.1-0.2c0,0,0,0,0,0l-0.2-0.1c-0.3-0.1-0.6-0.2-0.8-0.3c-1.1-0.5-2-1-2.8-1.5
		c-0.8-0.6-1.6-1.1-2.2-1.7c-0.6-0.6-1.1-1.1-1.4-1.6c-0.3-0.5-0.6-0.9-0.7-1.2c-0.1-0.3-0.2-0.4-0.2-0.4c0-0.1,0-0.2,0.1-0.3
		c0.1,0,0.2,0,0.2,0.1l0,0c0,0,0.1,0.1,0.3,0.4c0.2,0.2,0.4,0.6,0.8,1c0.2,0.2,0.4,0.4,0.6,0.6c0.3,0.2,0.5,0.5,0.8,0.7
		c0.6,0.5,1.3,1,2.1,1.4c0.8,0.5,1.7,0.9,2.7,1.4c0.2,0.1,0.5,0.2,0.8,0.3l0.2,0.1c0.2,0.1,0.3,0.2,0.4,0.2c0.2,0.2,0.3,0.3,0.4,0.5
		c0.4,0.7,0.5,1.3,0.6,2c0.2,1.3,0,2.7,0,3.8c0,1.1,0.5,2.3,1.1,3.4c1.2,2.2,3,4.2,4.3,6.2c1.4,2.1,2.4,4.3,2.8,6.3
		c0.2,1,0.2,1.9,0.2,2.8c0,0.8-0.1,1.5-0.2,2.1c-0.1,0.6-0.3,1-0.4,1.3c-0.1,0.3-0.2,0.4-0.2,0.4c-0.1,0.2-0.3,0.3-0.5,0.2
		C39.2,102.3,39.1,102.1,39.1,101.9z"/>
	<path class="st1" d="M46.9,79.3c0,0,0,0.1-0.1,0.4c0,0.3-0.1,0.7-0.2,1.1c-0.2,1-0.5,2.4-0.5,4.1c0,0.9,0,1.8,0.1,2.7
		c0.1,1,0.3,2,0.6,3c0.2,0.5,0.3,1,0.5,1.5c0.2,0.5,0.4,1.1,0.7,1.6c0.2,0.5,0.4,1.2,0.6,1.7c0.2,0.6,0.3,1.2,0.4,1.8
		c0.2,1.2,0.4,2.4,0.5,3.6c0.1,1.2,0.2,2.3,0.2,3.5c0,2.2-0.1,4.3-0.3,6.1c-0.1,0.9-0.2,1.7-0.3,2.4c-0.1,0.7-0.3,1.3-0.4,1.8
		c-0.2,1-0.4,1.6-0.4,1.6c0,0.1-0.2,0.2-0.3,0.2c-0.1,0-0.2-0.1-0.2-0.2c0,0,0-0.1,0-0.4c0-0.3,0-0.7,0-1.2c0-1,0.1-2.5,0.2-4.3
		c0.1-1.8,0.2-3.8,0.1-6c0-1.1-0.1-2.2-0.2-3.3c-0.1-1.1-0.3-2.3-0.5-3.4c-0.1-0.6-0.3-1.1-0.4-1.7c-0.2-0.5-0.3-1-0.5-1.6
		c-0.2-0.5-0.4-1.1-0.6-1.6c-0.2-0.5-0.4-1.1-0.6-1.7c-0.3-1.1-0.5-2.2-0.6-3.3c-0.1-1.1-0.1-2.1-0.1-3c0.1-1.8,0.4-3.4,0.7-4.4
		c0.2-0.5,0.3-0.9,0.5-1.2c0.1-0.3,0.2-0.4,0.2-0.4l0,0c0.2-0.2,0.5-0.3,0.7-0.1C46.8,78.9,46.9,79.1,46.9,79.3z"/>
	<path class="st1" d="M19.1,63.6c0,0,0.1,0.1,0.2,0.4c0,0.2,0,0.6,0.1,1c0.1,0.8,0.3,1.9,0.6,2.9c0.2,0.5,0.4,1,0.6,1.4
		c0.1,0.2,0.3,0.4,0.4,0.6c0.1,0.2,0.3,0.3,0.4,0.5c0.1,0.1,0.3,0.2,0.4,0.4c0.1,0.1,0.2,0.2,0.3,0.3c0.2,0.2,0.3,0.3,0.3,0.3l0,0
		c0.1,0.1,0.1,0.2,0,0.2c0,0-0.1,0-0.1,0c0,0-0.2,0-0.4-0.1c-0.1,0-0.3,0-0.5-0.1c-0.2-0.1-0.4-0.2-0.6-0.3
		c-0.2-0.2-0.4-0.3-0.6-0.5c-0.2-0.2-0.3-0.4-0.5-0.7c-0.1-0.2-0.3-0.5-0.4-0.8c-0.1-0.3-0.3-0.5-0.3-0.8c-0.2-0.6-0.3-1.1-0.4-1.7
		c-0.1-0.5-0.1-1.1-0.2-1.5c0-0.4-0.1-0.8,0-1.1c0-0.3,0.1-0.4,0.1-0.4C18.5,63.4,18.8,63.4,19.1,63.6C19,63.6,19,63.6,19.1,63.6
		L19.1,63.6z"/>
	<path class="st5" d="M93.1,129.3c-0.5-3.7-1.3-6.2-1.3-6.2s-34.4-1-50.2-11.1c-9.6-6.1-18.2,4-18.2,4L10,129.3H93.1z"/>
	<path class="st5" d="M23.2,129.3l15-16c-11.1-12.5-22.4,0.8-22.4,0.8L1.1,129.3H23.2z"/>
	<path class="st1" d="M72,126.6c0.2,0.4,0.5,0.8,0.9,1.3c0.3,0.4,0.7,0.9,1.2,1.4h2.4c-0.3-0.3-0.7-0.6-1-0.9c-0.5-0.5-1-1-1.4-1.5
		c-0.4-0.5-0.7-0.9-0.9-1.1c-0.2-0.3-0.5-0.3-0.5-0.3c-0.1-0.2-0.4-0.3-0.7-0.2c-0.2,0.1-0.3,0.4-0.2,0.7
		C71.9,126,71.8,126.3,72,126.6z"/>
	<path class="st1" d="M36.5,129.3c-0.1-0.1-0.3-0.2-0.4-0.3c-0.1-0.1-0.2-0.1-0.3-0.2c2.4-2.1,3.8-3.6,3.8-3.6
		c0.1-0.1,0.1-0.2,0-0.3c-0.1-0.1-0.2-0.2-0.3-0.1c0,0-2.3,1.4-5.5,3.9c-0.3,0.2-0.6,0.4-0.8,0.6H36.5z"/>
	<path class="st1" d="M9.4,129.3h2.3L27,114.4l0,0l0,0c0.8-0.9,2-1.7,3.1-2.3c1.2-0.6,2.5-0.9,3.8-1c2.7-0.2,5.4,0.6,7.8,1.9
		c1.2,0.6,2.4,1.4,3.8,2.1c1.3,0.6,2.6,1.2,4,1.7c2.7,1,5.5,1.8,8.3,2.5c2.8,0.7,5.6,1.3,8.4,1.8c2.8,0.5,5.7,0.9,8.5,1.3
		c2.8,0.4,5.7,0.6,8.5,0.8c2.9,0.2,5.7,0.3,8.6,0.2c0.1,0,0.2-0.1,0.2-0.2c0-0.1-0.1-0.3-0.2-0.3c-2.8-0.1-5.7-0.4-8.5-0.7
		c-2.8-0.3-5.6-0.7-8.5-1.1c-2.8-0.4-5.6-0.9-8.4-1.4c-2.8-0.5-5.6-1.1-8.3-1.8c-2.7-0.7-5.4-1.5-8.1-2.5c-1.3-0.5-2.6-1.1-3.9-1.7
		c-1.2-0.6-2.4-1.4-3.7-2.1c-2.6-1.4-5.6-2.3-8.6-2.1c-1.5,0.1-3,0.5-4.4,1.1c-1.4,0.7-2.6,1.5-3.7,2.7l0.1-0.1L9.4,129.3z"/>
</g>
</svg>
