<?xml version="1.0" encoding="utf-8"?>
<!-- Generator: Adobe Illustrator 19.2.1, SVG Export Plug-In . SVG Version: 6.00 Build 0)  -->
<svg version="1.1" id="Layer_1" xmlns="http://www.w3.org/2000/svg" xmlns:xlink="http://www.w3.org/1999/xlink" x="0px" y="0px"
	 viewBox="0 0 274.7 161.7" enable-background="new 0 0 274.7 161.7" xml:space="preserve">
<g>
	<g opacity="0.4">
		<path fill="#C8D8E1" d="M143.4,92.6c0,0,2.7,0.5,7.5,1.6c4.8,1.1,11.6,2.8,19.6,5.2c4,1.2,8.3,2.7,12.8,4.5c2.2,0.9,4.5,1.9,6.8,3
			c2.3,1.1,4.5,2.4,6.7,3.9c4.2,3.2,8.5,6.4,12.9,9.7c4.4,3.2,9.5,5.7,15,6.7c5.4,1,11.2,0.5,16.1-2c1.2-0.6,2.3-1.4,3.3-2.2
			c1-0.9,1.8-1.9,2.4-3.1c1.3-2.3,1.7-5,1.3-7.5c-0.7-5.1-4.5-9.3-9-10.6c-2.2-0.6-4.6-0.6-6.7,0c-2.1,0.6-4,1.7-5.1,3.4
			c-1.1,1.7-1.3,3.7-1,5.5c0.4,1.8,1,3.6,2.2,4.7c1.2,1.2,2.7,1.7,4.1,1.7c1.4,0.1,2.8-0.3,3.8-0.9c1-0.6,1.8-1.4,2.2-2.2
			c0.4-0.8,0.5-1.7,0.4-2.3c-0.1-0.6-0.2-1.1-0.3-1.4c-0.1-0.3-0.2-0.5-0.2-0.5l0.1,0c0,0,0.1,0.2,0.2,0.5c0.1,0.3,0.3,0.8,0.4,1.5
			c0.1,0.7,0.1,1.5-0.4,2.4c-0.4,0.9-1.1,1.8-2.2,2.4c-1.1,0.7-2.5,1-4,1c-1.5,0-3.2-0.6-4.5-1.8c-1.3-1.2-2-3-2.4-4.9
			c-0.2-1-0.3-2-0.1-3c0.1-1,0.5-2.1,1.1-3c1.2-1.9,3.3-3.2,5.5-3.8c2.2-0.6,4.7-0.6,7.1,0c2.4,0.6,4.6,2.2,6.3,4.1
			c1.7,2,2.9,4.5,3.2,7.1c0.3,2.7-0.1,5.5-1.5,8c-0.7,1.2-1.5,2.3-2.6,3.3c-1.1,0.9-2.2,1.7-3.5,2.3c-5,2.5-11,3-16.5,2
			c-5.6-1.1-10.7-3.6-15.2-6.9c-4.4-3.3-8.7-6.6-12.9-9.8c-2.1-1.5-4.4-2.8-6.6-3.9c-2.2-1.1-4.5-2.1-6.7-3
			c-4.4-1.8-8.7-3.3-12.7-4.5c-8-2.5-14.8-4.2-19.5-5.3C146.2,93.2,143.4,92.7,143.4,92.6L143.4,92.6z"/>
	</g>
	<g opacity="0.4">
		<path fill="#C8D8E1" d="M170.8,72.6c0,0-2.9-0.5-7.8-1.7c-5-1.2-12-2.9-20.4-5.5c-4.2-1.3-8.6-2.8-13.3-4.8
			c-4.6-2-9.4-4.3-13.7-7.7c-2.2-1.6-4.4-3.3-6.6-5c-2.3-1.7-4.4-3.5-6.9-5c-4.8-3-10.3-5.2-16.1-5.5c-2.9-0.2-5.8,0.1-8.5,0.9
			c-2.7,0.8-5.4,2-7.4,3.9c-2,1.9-3.3,4.5-3.7,7.2c-0.4,2.7,0.2,5.5,1.5,7.8c0.6,1.2,1.4,2.2,2.4,3.1c0.9,0.9,2,1.7,3.1,2.2
			c2.3,1,4.9,1.2,7.3,0.9c2.4-0.3,4.7-1.1,6.6-2.4c1.9-1.3,3.3-3.1,3.6-5.2c0.3-2.1-0.3-4.1-1.3-5.8c-0.5-0.8-1.1-1.6-1.7-2.2
			c-0.7-0.6-1.4-1.1-2.2-1.4c-1.6-0.7-3.3-0.7-4.7-0.2c-1.4,0.4-2.7,1.2-3.5,2C76.6,49,76,50,75.7,50.9c-0.3,0.9-0.3,1.8-0.3,2.4
			c0,0.3,0.1,0.6,0.1,0.9c0.1,0.3,0.1,0.5,0.2,0.6c0.1,0.3,0.2,0.5,0.2,0.5l-0.1,0c0,0-0.1-0.2-0.2-0.5c-0.1-0.2-0.1-0.4-0.2-0.6
			c-0.1-0.3-0.1-0.6-0.2-0.9c-0.1-0.7-0.1-1.6,0.2-2.5c0.3-1,0.8-2,1.7-2.9c0.9-0.9,2.1-1.8,3.6-2.2c1.5-0.5,3.3-0.5,5,0.2
			c0.8,0.3,1.7,0.8,2.4,1.5c0.7,0.7,1.3,1.4,1.9,2.3c1,1.7,1.8,3.9,1.4,6.2c-0.3,2.3-1.9,4.3-3.8,5.7c-2,1.4-4.4,2.3-6.9,2.6
			c-2.5,0.3-5.3,0.2-7.8-0.9c-1.3-0.6-2.3-1.4-3.3-2.4c-1-1-1.9-2.1-2.5-3.3c-1.4-2.5-1.9-5.4-1.5-8.3c0.4-2.9,1.8-5.6,3.9-7.6
			c2.2-2,4.9-3.2,7.8-4c2.8-0.8,5.8-1,8.7-0.8c5.9,0.4,11.5,2.6,16.3,5.7c2.4,1.5,4.6,3.4,6.9,5.1c2.2,1.7,4.4,3.4,6.6,5
			c4.2,3.4,9,5.7,13.6,7.7c4.6,1.9,9.1,3.5,13.2,4.8c8.3,2.6,15.4,4.4,20.3,5.6C167.9,72,170.8,72.6,170.8,72.6L170.8,72.6z"/>
	</g>
	<g opacity="0.4">
		<path fill="#C8D8E1" d="M168.6,122.4c-4.7-1.6-9.5-2.8-14.4-3.7c-4.9-0.9-9.8-1.5-14.8-1.6c-5-0.1-9.9,0.2-14.8,1.3
			c-2.4,0.5-4.8,1.2-7.1,2.1c-1.2,0.5-2.3,1-3.4,1.5c-1.1,0.6-2.2,1.2-3.3,1.8c-4.3,2.4-9.1,4.2-14,5c-4.9,0.8-10.1,0.4-14.7-1.7
			c-4.6-2-8.5-5.5-11-10c-2.5-4.4-3.5-9.5-3.4-14.5c0-2.5,0.3-5,1-7.4c0.7-2.4,1.7-4.8,3.2-6.8c1.5-2.1,3.4-3.8,5.5-5.2
			c2.1-1.4,4.5-2.3,6.9-2.9c4.9-1.2,10.1-1.2,14.9,0.3c2.4,0.8,4.7,1.9,6.7,3.5c2,1.6,3.7,3.6,4.8,5.8c1.2,2.3,1.9,4.7,2.2,7.2
			c0.2,1.3,0.2,2.5,0.3,3.8c0,1.3-0.1,2.6-0.5,3.8c-0.7,2.5-2.1,4.7-4,6.4c-1.9,1.7-4.2,2.9-6.6,3.7c-2.4,0.8-5,1.1-7.5,1.1
			c-2.5-0.1-5.1-0.6-7.4-1.7c-2.3-1.1-4.4-2.8-5.7-5c-1.3-2.2-1.9-4.8-1.9-7.3l0,0c-0.1-0.9,0-1.8,0.1-2.7c0.1-0.9,0.3-1.8,0.6-2.7
			c0.5-1.7,1.5-3.4,2.8-4.6c1.4-1.2,3.1-2,4.9-2.3c0.9-0.2,1.8-0.2,2.7-0.2c0.9,0,1.8,0.1,2.7,0.3c1.8,0.4,3.4,1.4,4.5,2.9
			c1.1,1.5,1.6,3.3,1.5,5.1c0,1.8-0.6,3.6-1.6,5.1c-1,1.5-2.5,2.7-4.3,3.1l0-0.1c1.7-0.4,3.2-1.6,4.2-3.1c1-1.5,1.4-3.3,1.4-5
			c0-1.8-0.5-3.5-1.6-4.9c-1-1.4-2.6-2.3-4.3-2.7C92.3,90,91.4,90,90.6,90c-0.9,0-1.8,0.1-2.6,0.3c-1.7,0.3-3.4,1-4.6,2.2
			c-1.3,1.2-2.2,2.7-2.7,4.4c-0.3,0.8-0.4,1.7-0.5,2.6c-0.1,0.9-0.1,1.8,0,2.6l0,0l0,0c0,2.4,0.6,4.9,1.9,6.9
			c1.3,2.1,3.2,3.7,5.4,4.7c4.4,2,9.7,2,14.3,0.5c2.3-0.8,4.5-1.9,6.3-3.5c1.8-1.6,3.2-3.7,3.8-6c0.3-1.2,0.5-2.3,0.5-3.6
			c0-1.2-0.1-2.5-0.2-3.7c-0.3-2.4-1-4.8-2.1-7c-1.1-2.2-2.7-4.1-4.6-5.6c-1.9-1.5-4.1-2.6-6.5-3.4c-4.7-1.5-9.8-1.5-14.5-0.4
			c-2.4,0.6-4.7,1.5-6.8,2.8c-2.1,1.3-3.9,3-5.3,5c-1.4,2-2.4,4.3-3.1,6.6c-0.6,2.4-0.9,4.8-1,7.3c-0.1,4.9,0.9,9.9,3.3,14.2
			c2.3,4.3,6.2,7.8,10.7,9.8c4.5,2,9.6,2.4,14.5,1.7c4.9-0.7,9.6-2.5,13.9-4.9c1.1-0.6,2.2-1.2,3.3-1.8c1.1-0.6,2.3-1.1,3.4-1.5
			c2.3-0.9,4.7-1.6,7.2-2.1c4.9-1,9.9-1.3,14.9-1.2c5,0.1,9.9,0.7,14.8,1.7C159.1,119.5,163.9,120.7,168.6,122.4L168.6,122.4z"/>
	</g>
	<g opacity="0.6">
		
			<rect x="44.1" y="108.1" transform="matrix(0.939 -0.3439 0.3439 0.939 -37.4741 28.7889)" fill="#FFFFFF" width="36.6" height="23.8"/>
		
			<rect x="47.6" y="111.6" transform="matrix(0.939 -0.3439 0.3439 0.939 -37.4741 28.7889)" fill="#C8D7E1" width="29.6" height="16.8"/>
		<g>
			<g>
				<path fill="#FFFFFF" d="M60.5,129.7c-0.9-2.6,0.5-5.2,3.2-6.1c2.6-1,5.4-0.1,6.4,2.6"/>
				<path fill="#005084" d="M60.5,129.7c0,0,0-0.1-0.1-0.2c0-0.1-0.1-0.2-0.2-0.5c-0.1-0.2-0.1-0.5-0.2-0.8c0-0.3,0-0.7,0-1
					c0.1-0.4,0.2-0.8,0.4-1.2c0.2-0.4,0.5-0.7,0.8-1.1c0.3-0.3,0.7-0.6,1.1-0.9c0.4-0.3,0.8-0.5,1.3-0.7c0.4-0.2,0.9-0.3,1.4-0.4
					c0.5-0.1,1-0.1,1.5,0c0.5,0.1,0.9,0.2,1.3,0.4c0.4,0.2,0.7,0.4,1,0.7c0.3,0.3,0.5,0.5,0.7,0.8c0.2,0.3,0.3,0.5,0.4,0.7
					c0.1,0.2,0.1,0.4,0.2,0.5c0,0.1,0,0.2,0,0.2c0,0,0,0,0,0c0,0,0,0,0,0c0,0,0-0.1-0.1-0.2c-0.1-0.1-0.1-0.2-0.2-0.4
					c-0.1-0.2-0.3-0.4-0.4-0.6c-0.2-0.2-0.4-0.4-0.7-0.7c-0.5-0.4-1.3-0.8-2.1-0.9c-0.4-0.1-0.9-0.1-1.3,0c-0.5,0-0.9,0.1-1.4,0.2
					c-0.4,0.1-0.9,0.3-1.3,0.6c-0.4,0.3-0.7,0.6-1,0.9c-0.5,0.7-0.8,1.5-1,2.1c-0.1,0.3-0.1,0.7-0.1,0.9c0,0.3,0,0.5,0,0.7
					c0,0.2,0.1,0.4,0.1,0.5C60.5,129.6,60.5,129.7,60.5,129.7C60.5,129.7,60.5,129.7,60.5,129.7C60.5,129.7,60.5,129.7,60.5,129.7z"
					/>
			</g>
			<g>
				<g>
					
						<ellipse transform="matrix(0.9445 -0.3286 0.3286 0.9445 -36.6706 27.6829)" fill="#EDE4D7" cx="63.6" cy="122.3" rx="2.8" ry="2.2"/>
					<g>
						<path fill="#EDE4D7" d="M61.3,121.1C61.3,121.1,61.3,121.1,61.3,121.1c-0.1,0-0.1,0-0.1,0.1c0,0,0,0.1,0,0.1c0,0,0,0.1,0,0.1
							c0,0-0.1,0-0.1,0c0,0,0,0.1-0.1,0.1c0,0,0,0.1,0,0.1c0,0,0,0,0,0c0.1,0.1,0,0,0,0.1c0,0-0.1,0-0.1,0c0,0,0,0.1-0.1,0.1
							c0,0,0,0,0,0.1c0.1,0,0.1,0.1,0,0.1c0,0,0,0,0,0.1c0,0,0,0,0,0c0,0,0,0.1,0,0.1c0,0,0,0,0,0.1c-0.1,0-0.1,0.1-0.1,0.2
							c0,0,0.1,0.1,0,0.1c0.1,0,0,0.1,0,0.1c0,0,0,0.1,0,0.1c0,0,0.1,0.1,0,0.1c-0.1,0,0.1,0.1,0,0.1c0,0,0,0,0,0c0,0,0,0,0,0
							c-0.1,0,0,0,0,0c0,0.1,0,0.2,0.1,0.3c0,0,0,0,0,0c0,0,0,0.1,0,0.1c0.1,0,0,0.1,0,0.2c0,0,0,0.1,0.1,0.1c0,0,0,0,0,0
							c0,0,0,0,0,0c0.1,0,0,0,0,0.1c0,0,0,0,0,0.1c0,0,0.1,0.1,0.1,0.1c0,0,0,0,0,0c0,0,0.1,0,0.1,0c0,0,0,0,0,0.1
							c0,0.1,0.1,0.1,0.1,0.1c0,0,0,0,0.1,0c0,0.1,0.1,0.2,0.2,0.1c0,0.1,0,0.1,0.1,0c-0.1,0.1,0.1,0.3,0.2,0.2c0,0,0,0,0,0
							c0,0,0.1,0,0.1,0c0,0,0,0.1,0,0.1c0.1,0,0.2,0,0.2,0c0,0,0,0,0-0.1c0,0,0,0,0,0l0,0c0,0,0,0,0,0c0,0,0,0,0,0c0,0,0,0.1,0,0.1
							c0,0,0.1,0,0.1,0c0,0,0,0.1,0.1-0.1c0,0,0,0.1,0,0.1c0,0,0.1,0,0.2,0c0,0,0,0,0-0.1l0,0l0,0c0,0,0,0.1,0,0.1c0,0,0.1,0,0.1,0
							c0,0,0,0,0.1,0c0,0,0.1,0,0.1,0c0,0,0,0,0.1,0c0,0,0,0,0,0c0,0,0,0,0,0c0,0,0.1,0,0.1,0c0,0,0.1,0,0.1,0c0,0,0,0,0.1,0
							c0-0.1,0.1,0,0.1-0.1c0,0,0,0,0.1,0l0,0c0,0,0,0,0-0.1c0.2,0.1,0.2-0.1,0.4,0c0-0.1,0-0.1-0.1-0.1c0,0,0,0,0,0.1
							c0,0,0,0.1,0,0.1c0,0,0.1,0,0.1-0.1c0,0,0-0.1,0.1-0.1c0,0,0,0,0,0c0,0.1,0,0,0.1,0c0,0,0.1,0,0,0l0,0c0,0,0,0,0.1-0.1
							c0,0,0,0,0,0c-0.1-0.1,0-0.1,0-0.1c0,0,0,0,0,0.1c0,0,0,0,0.1,0c0,0,0,0,0.1-0.1c0.1,0,0.1-0.1,0.2-0.1c0,0,0,0,0-0.1
							c0,0,0.1,0,0.1,0c0,0,0.1-0.1,0.1-0.1c0,0,0,0-0.1-0.1c0,0,0.1,0.1,0.1,0.1c0,0,0,0,0-0.1c0.1,0.1,0.1,0.1,0.1,0.1
							c0,0,0.1,0,0.1,0c0.1,0,0.1-0.2,0.2-0.2c0,0,0,0,0,0c0-0.1,0-0.1,0.1-0.1c0,0,0-0.1,0.1-0.1c0,0,0-0.1,0.1-0.1
							c0.1,0,0.1-0.1,0.1-0.1c0,0,0-0.1,0-0.1c0-0.1,0.1-0.1,0.2-0.2c0,0,0-0.1,0.1-0.1c0,0,0-0.1,0-0.1c0,0,0.1-0.1,0-0.2
							c0,0,0-0.1,0-0.1c0-0.1,0.1-0.2,0.1-0.3c0-0.1,0-0.1,0-0.2c0-0.1,0-0.2,0-0.4c0,0,0,0,0,0c0-0.1,0-0.2,0.1-0.2c0,0,0,0,0,0
							c0,0,0,0-0.1,0c-0.1,0-0.1,0-0.2,0.1c0,0,0,0,0,0.1c0,0.1,0,0.1,0,0.1c0,0,0,0,0,0.1c-0.1,0,0,0,0.1,0c0,0,0,0.1,0,0.2
							c0,0.1,0,0.1,0,0.2c0,0,0.1,0.1-0.1,0.1c0,0,0,0,0,0c-0.1,0.1-0.1,0.1,0,0.2c0,0,0,0.1,0,0.1c0,0,0,0.1,0,0.1c0,0,0,0.1,0,0.1
							c0,0,0,0.1-0.1,0.1c0,0,0,0.1,0,0.1c0,0-0.1,0-0.1,0c0,0,0,0.1-0.1,0.2c0,0.1-0.1,0.1-0.2,0.2c-0.1,0,0,0.1-0.1,0.1
							c0,0-0.1,0.1-0.2,0.1c0,0,0,0,0,0.1c-0.1,0-0.2,0-0.2,0.1c0,0,0,0-0.1,0c0,0,0,0,0,0.1c-0.1-0.1-0.1,0-0.1,0.1c0,0,0,0-0.1,0
							c0,0,0,0.1-0.1,0.1c-0.1,0-0.1,0.1-0.1,0c0,0-0.1,0-0.1,0.1c0,0,0,0.1,0,0.1c0,0,0-0.1-0.1-0.1l-0.2,0.2l0,0l0,0l0,0
							c0,0,0-0.1,0-0.1c-0.1,0-0.1,0.1-0.1,0c0,0,0,0,0,0.1l0,0l0-0.1l0,0c0,0,0,0.1,0,0.1c-0.2-0.1-0.4,0.1-0.5,0l0,0.1l0,0l0,0
							c0,0,0,0,0,0c0-0.1,0,0,0,0.1c0,0,0-0.3-0.1-0.1c0,0-0.1,0-0.1,0c0,0,0,0,0,0.1c0-0.1,0-0.1,0-0.1c-0.1,0-0.1,0.1-0.2,0
							c0,0,0,0,0,0.1c0,0,0,0.1,0,0.1l0,0l0-0.1l0,0c0,0,0,0.1-0.1,0.1c0,0,0,0-0.1,0c0,0-0.1,0-0.1,0c0,0-0.1,0-0.1,0
							c0,0,0,0-0.1,0c0,0,0,0-0.1-0.1c0,0-0.1,0.1-0.1,0c0,0,0,0,0,0c0,0,0,0,0,0l0,0.1c0,0,0,0,0,0l0,0c0,0-0.1,0-0.1,0
							c0,0,0-0.1,0-0.1c0,0,0,0,0,0c-0.1,0-0.1,0-0.2,0c0,0,0,0-0.1,0c0,0-0.1,0-0.1-0.1c0,0-0.1-0.1-0.1-0.1c0,0,0,0-0.1,0
							c0,0-0.1-0.1-0.1,0c0,0,0,0,0,0c0,0,0,0,0,0c0,0,0,0,0,0c0-0.1-0.1-0.1-0.1-0.1c0,0-0.1,0-0.1,0c-0.1,0-0.1-0.1-0.2-0.2
							c0,0,0,0,0,0c0,0,0,0,0-0.1c0,0-0.1,0-0.1,0c0-0.1-0.1-0.1-0.1-0.2c0,0-0.1,0-0.1-0.1c0-0.1-0.1-0.1-0.1-0.2
							c0-0.1,0-0.1-0.1-0.2c0,0,0-0.1,0-0.1c0,0-0.1-0.1-0.1-0.2c0-0.1,0.1-0.3,0-0.4c0,0,0.1,0,0-0.1c0,0,0,0,0,0c0,0,0.1,0,0.1,0
							c0,0,0-0.1,0.1-0.1c0,0,0-0.1,0-0.1c0,0,0,0,0-0.1c0,0-0.1-0.1-0.1-0.1c0.1,0,0-0.1,0.1-0.1c0.1,0,0.1-0.1,0.1-0.2
							c0,0,0,0,0,0c0,0,0,0,0-0.1c0,0,0,0,0,0c0.1,0,0.1-0.1,0.1-0.1c0,0,0,0,0,0c0,0,0,0,0,0l0,0c0,0,0,0,0.1,0c0,0,0-0.1,0.1-0.1
							c0,0,0.1-0.1,0.1-0.1c0,0,0.1-0.1,0.2-0.1c0.1,0,0.1,0,0.2-0.1c0,0,0,0,0,0c0.1,0.1,0.1,0,0.1,0c0.1,0,0.1-0.2,0.2-0.2
							c0.1,0,0.3,0,0.3-0.1c0,0,0.1,0,0.1,0c0,0,0-0.1,0.1-0.1c0.1,0,0.2,0,0.2,0c0.1-0.1,0.2-0.1,0.3-0.1c0-0.1,0-0.1,0-0.2
							c0,0,0,0,0,0l0,0.1l0.1,0l0,0c0,0,0.1,0,0.1,0c0,0,0,0,0.1,0c0,0,0.1,0,0.2,0c0,0,0.1,0,0.1,0c0,0,0.1,0,0.1,0
							c0,0,0.1-0.1,0.1,0c0,0,0,0,0,0c0,0,0.1,0,0.1,0c0.1,0,0.1,0,0.2,0c0,0,0,0,0,0c0,0,0.1-0.1,0.2,0l0,0c0,0,0.1,0,0.1,0
							c0,0.1,0,0,0.1-0.1c0,0,0,0,0,0c0,0,0,0.1,0,0.1c0,0,0-0.1,0-0.1c0,0.1,0.1,0.2,0.2,0.1c0,0,0,0.1,0,0.1c0,0,0,0,0.1,0
							c0,0,0,0,0,0c0,0,0,0,0.1,0c0,0,0,0,0,0c0,0,0,0.1,0,0c0.1-0.1,0.1,0,0.1,0.1c0,0,0,0.1,0.1,0c0,0,0,0,0,0.1
							c0,0,0.1,0,0.1,0.1c0,0.1,0.1,0.1,0.1,0.1c0,0.1,0.1,0.1,0.1,0.1c0,0,0.1,0.1,0.1,0.1c0,0,0,0,0,0c0,0,0,0.1,0,0.1
							c0.1,0,0.1,0.1,0.1,0.2c0,0,0.1,0,0.1,0c0,0,0,0,0,0c0.1,0,0.1,0,0.3-0.1c0,0,0,0,0,0c0,0,0,0,0,0c0,0,0,0,0.1-0.1
							c0,0,0-0.1,0,0c0,0,0,0,0,0c0-0.1,0-0.1,0-0.2c0,0-0.1-0.1-0.1-0.1c0,0-0.1,0-0.2,0c0.2-0.1,0.1-0.1,0-0.1c0,0,0.1,0,0.1-0.1
							c0,0-0.1,0-0.1,0c0-0.1,0-0.1,0-0.1c0,0,0-0.1-0.1,0c0,0,0,0,0-0.1c0-0.1,0-0.1,0-0.2c0,0,0,0,0,0c0,0,0,0,0,0
							c0,0-0.1,0-0.1-0.1c0,0,0,0,0,0c-0.1,0,0,0,0,0c0,0,0-0.1,0-0.1c0,0,0,0,0,0c0,0,0,0,0,0l0,0c-0.1,0-0.1-0.1-0.2-0.1
							c0,0,0,0,0,0.1c-0.1,0.1-0.1-0.1-0.3,0c0,0,0,0,0-0.1c0,0,0-0.1-0.1,0c0,0,0,0,0,0c0,0,0,0,0,0c0,0,0,0,0,0
							c0-0.1,0-0.1-0.1-0.1c0,0-0.1,0-0.1,0l0,0c0,0,0,0.1,0,0.1c0-0.1,0-0.1,0-0.1c0,0,0,0.1-0.1,0.1c0,0,0,0,0,0c0,0,0,0.1,0,0.1
							l0,0c0,0,0-0.1,0-0.1c0-0.1-0.1,0-0.2,0l0,0c0,0,0-0.2-0.1-0.2c0,0,0,0,0,0c-0.1,0.1,0,0.3,0,0.4c0-0.1,0-0.3-0.1-0.3
							c0,0,0,0,0,0c0,0.1-0.1,0.2-0.1,0.2c0,0,0,0,0,0.1c0-0.1,0-0.2-0.1-0.1c0,0,0,0,0,0c0,0-0.1-0.1-0.1,0c0,0,0,0.1,0,0
							c0,0.1,0,0.1,0,0.2c0-0.1,0-0.1,0-0.1c0,0,0,0,0,0.1c0-0.1,0-0.1,0-0.1c0,0-0.1,0.1-0.1,0.1c0,0,0,0,0-0.1c0,0,0-0.1,0-0.1
							c0,0,0,0-0.1,0c0,0,0,0,0,0c0,0,0,0-0.1,0c0,0,0-0.1,0,0c0,0,0,0.1,0,0.1c0,0,0-0.1,0-0.1c0,0,0,0-0.1,0c0,0,0-0.1,0-0.1
							c0,0.1-0.1,0-0.1,0.1l0-0.1c0,0.1,0,0.1-0.1,0.1c0,0-0.1,0,0,0.1c0,0,0,0-0.1,0.1c0,0,0,0,0-0.1c0,0.1,0,0.1-0.1,0
							c0-0.1-0.1-0.1-0.1-0.1c0,0-0.1,0-0.1,0.1c0,0.1,0,0.1,0,0.1c-0.1-0.1-0.1,0-0.1,0c0,0,0,0,0,0c0,0-0.1,0-0.1,0
							c0,0.1-0.1,0.1-0.2,0.1c0,0.1,0,0.1,0,0.1c0,0,0,0,0,0c0,0,0,0.1-0.1,0c-0.1,0-0.1,0-0.2,0l0,0c-0.1,0-0.1,0.1-0.1,0.1
							c0,0,0,0.1,0.1,0.1c0-0.1-0.1-0.1-0.1-0.1c0,0,0,0.1,0,0.1c-0.1,0,0,0-0.1,0c0,0,0,0,0,0c0,0,0,0,0,0c0,0,0,0,0,0c0,0,0,0,0,0
							c0,0,0,0,0,0c-0.1-0.1,0,0,0,0l-0.1,0l0,0l-0.1,0.1c0,0,0,0,0,0c0,0.1,0,0.1-0.1,0.1c0,0,0,0-0.1-0.1
							C61.4,120.9,61.4,121,61.3,121.1C61.4,121.1,61.4,121.1,61.3,121.1C61.3,121.1,61.3,121.1,61.3,121.1z M62.8,124.4
							c0,0,0,0.1,0,0.1c0,0,0,0-0.1,0C62.8,124.6,62.8,124.5,62.8,124.4L62.8,124.4C62.8,124.5,62.8,124.5,62.8,124.4z"/>
					</g>
				</g>
				<g>
					
						<ellipse transform="matrix(0.9445 -0.3286 0.3286 0.9445 -36.198 27.4257)" fill="#37443D" cx="63" cy="120.8" rx="1.2" ry="0.9"/>
					<g>
						<path fill="#37443D" d="M62.1,120.3C62.1,120.3,62,120.3,62.1,120.3C62,120.3,62,120.3,62.1,120.3
							C62,120.3,62,120.3,62.1,120.3c-0.1,0.1-0.1,0.1,0,0.1C62,120.4,62,120.4,62.1,120.3c-0.1,0.1-0.1,0.1-0.1,0.1c0,0,0,0.1,0,0
							c0,0,0,0,0,0c0,0,0,0,0,0c0,0,0,0,0,0c0,0,0,0,0,0.1c0,0,0,0,0,0c0,0,0,0,0,0c0,0,0,0,0,0c0,0,0,0,0,0c0,0,0,0,0,0.1
							c0,0,0,0,0,0c-0.1,0,0,0,0,0.1c0,0,0,0,0,0.1c0,0,0,0,0,0.1c0,0,0,0,0,0c0,0,0,0,0,0c-0.1,0,0,0,0,0c0,0,0,0,0,0c0,0,0,0,0,0
							c0,0,0,0,0,0c0,0,0,0.1,0.1,0.1c0,0,0,0,0,0c0,0,0,0,0,0c0.1,0,0,0.1,0,0.1c0,0,0,0.1,0,0c0,0,0,0,0,0c0,0,0,0,0,0
							c0,0,0,0,0,0c0,0,0,0,0,0c0,0,0,0,0,0l0,0c0,0,0,0,0,0c0,0,0,0,0,0c0,0,0,0,0.1,0.1c0,0,0,0,0,0c0,0,0,0.1,0.1,0c0,0,0,0,0,0
							c0,0.1,0,0.2,0.1,0.1c0,0,0,0,0,0c0,0,0,0,0.1,0c0,0,0,0,0,0.1c0,0,0.1,0,0.1,0c0,0,0,0,0,0c0,0,0,0,0,0l0,0c0,0,0,0,0,0l0,0
							c0,0,0,0,0,0c0,0,0,0,0.1,0c0,0,0,0.1,0-0.1c0,0,0,0,0,0c0,0,0,0,0.1,0c0,0,0,0,0,0l0,0l0,0c0,0,0,0,0,0.1c0,0,0,0,0.1,0
							c0,0,0,0,0,0c0,0,0,0,0,0c0,0,0,0,0,0c0,0,0,0,0,0l0,0c0,0,0,0,0,0c0,0,0,0,0.1,0c0,0,0,0,0,0c0-0.1,0,0,0.1,0c0,0,0,0,0,0
							l0,0c0,0,0,0,0,0c0.1,0.1,0.1,0,0.2,0c0,0,0-0.1,0-0.1c0,0,0,0,0,0c0,0,0,0,0,0c0,0,0,0,0.1,0c0,0,0,0,0-0.1l0,0
							c0,0.1,0,0,0,0c0,0,0,0,0,0l0,0l0,0c0,0,0,0,0,0c0-0.1,0,0,0,0c0,0,0,0,0,0.1c0,0,0,0,0,0c0,0,0,0,0,0c0,0,0.1,0,0.1,0
							c0,0,0,0,0,0c0,0,0,0,0,0c0,0,0-0.1,0-0.1c0,0,0,0,0-0.1c0,0,0,0,0,0.1c0,0,0,0,0,0c0.1,0.1,0.1,0.1,0.1,0.1c0,0,0,0,0,0
							c0.1,0,0-0.1,0.1-0.1l0,0c0,0,0,0,0,0c0,0,0,0,0,0c0,0,0,0,0,0c0.1,0,0,0,0.1,0c0,0,0,0,0-0.1c0,0,0.1-0.1,0.1-0.1
							c0,0,0,0,0,0c0,0,0,0,0-0.1c0,0,0,0,0-0.1c0,0,0,0,0,0c0,0,0.1-0.1,0.1-0.1c0,0,0,0,0-0.1c0,0,0-0.1,0-0.2l0,0
							c0,0,0-0.1,0-0.1c0,0,0,0,0,0c0,0,0,0,0,0l-0.1,0c0,0,0,0,0,0c0,0,0,0,0,0.1c0,0,0,0,0,0c-0.1,0,0,0,0.1,0c0,0,0,0,0,0.1
							c0,0,0,0.1,0,0.1c0,0,0,0-0.1,0c0,0,0,0,0,0c0,0,0,0,0,0.1c0,0,0,0,0,0.1c0,0,0,0,0,0c0,0,0,0,0,0c0,0,0,0,0,0c0,0,0,0,0,0
							c0,0,0,0-0.1,0c0,0,0,0.1,0,0.1c0,0,0,0.1-0.1,0.1c0,0,0,0,0,0.1c0,0-0.1,0-0.1,0c0,0,0,0,0,0c0,0-0.1,0-0.1,0c0,0,0,0,0,0
							c0,0,0,0,0,0c0-0.1,0,0,0,0c0,0,0,0,0,0c0,0,0,0,0,0c0,0,0,0-0.1,0c0,0,0,0,0,0c0,0,0,0,0,0.1c0,0,0,0,0-0.1l-0.1,0.1l0,0l0,0
							l0,0c0,0,0-0.1,0-0.1c0,0,0,0.1-0.1,0l0,0l0,0l0,0l0,0c0,0,0,0,0,0.1c-0.1-0.1-0.2,0-0.2,0l0,0.1l0,0l0,0c0,0,0,0,0,0
							c0-0.1,0,0,0,0c0,0,0-0.2,0-0.1c0,0,0,0,0,0c0,0,0,0,0,0.1c0,0,0-0.1,0-0.1c0,0,0,0.1-0.1,0c0,0,0,0,0,0.1c0,0,0,0,0,0.1l0,0
							l0-0.1l0,0c0,0,0,0,0,0.1c0,0,0,0,0,0c0,0,0,0-0.1,0c0,0,0,0,0,0c0,0,0,0,0,0c0,0,0,0,0,0c0,0,0,0,0,0c0,0,0,0,0,0l0,0l0,0
							c0,0,0,0,0,0l0,0c0,0,0,0,0,0c0,0,0,0,0-0.1l0,0c0,0-0.1,0-0.1,0c0,0,0,0,0,0c0,0,0,0,0,0c0,0,0,0,0,0c0,0,0,0,0,0
							c0,0,0,0-0.1,0c0,0,0,0,0,0c0,0,0,0,0,0c0,0,0,0,0,0c0-0.1,0,0,0-0.1c0,0,0,0-0.1,0c0,0,0,0-0.1-0.1c0,0,0,0,0,0c0,0,0,0,0,0
							c0,0,0,0,0,0c0-0.1,0,0,0-0.1c0,0,0,0,0,0c0,0,0,0,0-0.1c0,0,0,0,0-0.1c0,0,0,0,0,0c0,0-0.1,0-0.1-0.1c0-0.1,0.1-0.1,0-0.2
							c0,0,0,0,0,0c0,0,0,0,0,0c0,0,0.1,0,0.1,0c0,0,0,0,0,0c0,0,0,0,0,0c0,0,0,0,0,0c0,0-0.1-0.1,0-0.1c0.1,0,0,0,0.1,0
							c0.1,0,0,0,0.1-0.1l0,0c0,0,0,0,0,0l0,0c0.1,0,0,0,0.1,0c0,0,0,0,0,0l0,0l0,0c0,0,0,0,0,0c0,0,0,0,0,0c0,0,0,0,0.1,0
							c0,0,0,0,0.1,0c0,0,0.1,0,0.1-0.1l0,0c0,0.1,0,0,0.1,0c0,0,0-0.1,0.1-0.1c0.1,0,0.1,0,0.1-0.1c0,0,0,0,0,0c0,0,0,0,0,0
							c0,0,0.1,0,0.1,0c0,0,0.1,0,0.1-0.1c0,0,0-0.1,0-0.1c0,0,0,0,0,0l0,0.1l0,0l0,0c0,0,0,0,0,0c0,0,0,0,0,0c0,0,0,0,0.1,0
							c0,0,0,0,0,0c0,0,0,0,0.1,0c0,0,0-0.1,0,0l0,0c0,0,0,0,0,0c0,0,0,0,0.1,0c0,0,0,0,0,0c0,0,0.1-0.1,0.1,0l0,0c0,0,0,0,0,0
							c0,0,0,0,0,0c0,0,0,0,0,0c0,0,0,0,0,0.1c0,0,0,0,0-0.1c0,0.1,0,0.1,0.1,0c0,0,0,0.1,0,0.1c0,0,0,0,0,0l0,0c0,0,0,0,0,0
							c0,0,0,0,0,0c0,0,0,0,0,0c0,0,0,0,0.1,0c0,0,0,0,0,0c0,0,0,0,0,0c0,0,0,0,0,0c0,0.1,0,0,0,0.1c0,0,0,0,0.1,0c0,0,0,0,0,0
							c0,0,0,0,0,0c0,0,0,0,0,0c0,0,0.1,0,0,0.1c0,0,0,0,0.1,0c0,0,0,0,0,0c0.1,0,0.1,0,0.2,0l0,0c0,0,0,0,0,0c0,0,0,0,0,0
							c0,0,0,0,0,0c0,0,0,0,0,0c0,0,0-0.1,0-0.1c0,0,0,0,0-0.1c0,0,0,0-0.1,0c0.1-0.1,0.1-0.1,0-0.1c0,0,0,0,0.1,0l-0.1,0
							c0,0,0,0,0-0.1c0,0,0,0-0.1,0c0,0,0,0,0,0c0-0.1,0-0.1,0-0.1c0,0,0,0,0,0c0,0,0,0,0,0c0,0,0,0,0,0c0,0,0,0,0,0c0,0,0,0,0,0
							c0,0,0,0,0,0c0,0,0,0,0,0c0,0,0,0,0,0l0,0c0,0-0.1,0-0.1,0c0,0,0,0,0,0c-0.1,0.1-0.1,0-0.1,0c0,0,0,0,0,0c0,0,0-0.1,0,0
							c0,0,0,0,0,0c0,0,0,0,0,0l0,0c0,0,0-0.1,0-0.1c0,0,0,0-0.1,0l0,0c0,0,0,0,0,0.1c0,0,0-0.1,0-0.1c0,0,0,0,0,0.1c0,0,0,0,0,0
							c0,0,0,0.1,0,0.1l0,0c0,0,0,0,0-0.1c0-0.1-0.1,0-0.1,0l0,0c0,0,0-0.1,0-0.1c0,0,0,0,0,0c0,0.1,0,0.2,0,0.2c0,0,0-0.2,0-0.2
							c0,0,0,0,0,0c0,0.1,0,0.1,0,0.1c0,0,0,0,0,0.1c0-0.1,0-0.1,0-0.1c0,0,0,0,0,0c0,0,0,0,0,0c0,0,0,0,0,0c0,0,0,0.1,0,0.1
							c0,0,0-0.1,0-0.1c0,0,0,0,0,0.1c0,0,0-0.1,0-0.1c0,0,0,0.1,0,0.1c0,0,0,0,0-0.1c0,0,0,0,0,0c0,0,0,0,0,0c0,0,0,0,0,0
							c0,0,0,0,0,0c0,0,0,0,0,0c0,0,0,0,0,0c0,0,0,0,0-0.1c0,0,0,0,0,0c0,0,0,0,0,0c0,0.1,0,0,0,0.1l0-0.1c0,0.1,0,0.1,0,0.1
							c0,0,0,0,0,0c0,0,0,0,0,0c0,0,0,0,0,0c0,0.1,0,0.1,0,0c0,0-0.1-0.1-0.1-0.1c0,0,0,0,0,0.1c0,0.1,0,0,0,0c0-0.1,0,0,0,0
							c0,0,0,0,0,0c0,0,0,0,0,0c0,0.1,0,0.1-0.1,0c0,0.1,0,0.1,0,0.1c0,0,0,0,0,0c0,0,0,0,0,0c0,0-0.1,0-0.1,0l0,0c0,0,0,0.1-0.1,0
							c0,0,0,0,0,0.1c0,0,0-0.1-0.1-0.1c0,0,0,0,0,0c0,0,0,0,0,0c0,0,0,0,0,0c0,0,0,0,0,0c0,0,0,0,0,0c0,0,0,0,0,0c0,0,0,0,0,0
							c-0.1-0.1,0,0,0,0l0,0l0,0l0,0c0,0,0,0,0,0C62.2,120.2,62.1,120.2,62.1,120.3C62.1,120.2,62.1,120.2,62.1,120.3
							C62.1,120.2,62.1,120.2,62.1,120.3C62.1,120.3,62.1,120.3,62.1,120.3C62.1,120.3,62.1,120.3,62.1,120.3z M62.7,121.6
							C62.7,121.6,62.7,121.7,62.7,121.6c0,0.1,0,0.1,0,0.1C62.7,121.7,62.7,121.7,62.7,121.6L62.7,121.6
							C62.7,121.7,62.7,121.6,62.7,121.6z"/>
					</g>
				</g>
				<g>
					
						<ellipse transform="matrix(0.9445 -0.3286 0.3286 0.9445 -35.8153 26.4627)" fill="#37443D" cx="60.4" cy="119.2" rx="0.5" ry="0.7"/>
					<g>
						<path fill="#37443D" d="M60.7,118.6C60.7,118.6,60.7,118.6,60.7,118.6C60.7,118.6,60.7,118.6,60.7,118.6
							C60.7,118.6,60.7,118.6,60.7,118.6C60.7,118.6,60.6,118.6,60.7,118.6C60.6,118.6,60.6,118.6,60.7,118.6
							C60.6,118.5,60.6,118.6,60.7,118.6c-0.1-0.1-0.1,0-0.1-0.1c0,0,0,0,0,0c0,0,0,0,0,0c0,0,0,0,0,0c0,0,0,0,0,0c0,0,0,0,0,0
							c0,0,0,0,0,0c0,0,0,0,0,0c0,0,0,0,0,0c0,0,0,0,0,0c0,0,0,0,0,0c0-0.1,0,0,0,0c0,0,0,0,0,0c0,0,0,0,0,0c0,0,0,0,0,0
							c0,0,0,0,0,0c0-0.1,0,0,0,0c0,0,0,0,0,0c0,0,0,0,0,0c0,0,0,0,0,0c0,0-0.1,0-0.1,0c0,0,0,0,0,0c0,0,0,0,0,0c0,0,0,0,0,0
							c0,0,0,0,0,0c0,0,0,0,0,0c0,0,0,0,0,0c0,0,0,0,0,0c0,0,0,0,0,0c0,0,0,0,0,0c0,0,0,0,0,0c0,0,0,0,0,0c0,0,0,0,0,0c0,0,0,0,0,0
							c0,0,0,0,0,0c0,0-0.1,0,0,0c0,0,0,0,0,0c-0.1,0-0.2,0-0.1,0c0,0,0,0,0,0c0,0,0,0,0,0c0,0,0,0,0,0c0,0,0,0,0,0.1c0,0,0,0,0,0
							l0,0l0,0c0,0,0,0,0,0l0,0c0,0,0,0,0,0c0,0,0,0,0,0c0,0-0.1,0,0.1,0c0,0,0,0,0,0c0,0,0,0,0,0c0,0,0,0,0,0l0,0l0,0
							c0,0,0,0-0.1,0c0,0,0,0,0,0c0,0,0,0,0,0c0,0,0,0,0,0c0,0,0,0,0,0c0,0,0,0,0,0l0,0c0,0,0,0,0,0c0,0,0,0,0,0c0,0,0,0,0,0
							c0.1,0,0,0,0,0c0,0,0,0,0,0l0,0c0,0,0,0,0,0c-0.1,0.1,0,0.1-0.1,0.1c0,0,0.1,0,0.1,0c0,0,0,0,0,0c0,0,0,0,0,0c0,0,0,0,0,0
							c0,0,0,0,0,0l0,0c-0.1,0,0,0,0,0c0,0,0,0,0,0l0,0l0,0c0,0,0,0,0,0c0.1,0,0,0,0,0c0,0,0,0,0,0c0,0,0,0,0,0c0,0,0,0,0,0
							c0,0,0,0,0,0.1c0,0,0,0,0,0c0,0,0,0,0,0c0,0,0.1,0,0.1,0c0,0,0,0,0.1,0c0,0,0,0-0.1,0c0,0,0,0,0,0c-0.1,0.1-0.1,0.1-0.1,0.1
							c0,0,0,0,0,0c0,0,0.1,0,0,0.1l0,0c0,0,0,0,0,0c0,0,0,0,0,0c0,0,0,0,0,0c0,0,0,0,0,0c0,0,0,0,0,0c0,0,0,0,0,0.1c0,0,0,0,0,0
							c0,0,0,0,0,0c0,0,0,0,0,0c0,0,0,0,0,0c0,0,0,0,0.1,0.1c0,0,0,0,0,0c0,0,0.1,0,0.1,0l0,0c0,0,0,0,0.1,0.1c0,0,0,0,0,0
							c0,0,0,0,0,0l0-0.1c0,0,0,0,0,0c0,0,0,0,0,0c0,0,0,0,0,0c0-0.1,0,0,0,0.1c0,0,0,0,0,0c0,0,0,0,0,0c0,0,0,0.1,0-0.1
							c0,0,0,0,0,0c0,0,0,0,0,0c0,0,0,0,0,0c0,0,0,0,0,0c0,0,0,0,0,0c0,0,0,0,0,0c0,0,0,0,0,0c0,0,0,0,0,0c0,0,0,0-0.1,0
							c0,0,0,0,0,0c0,0,0,0,0,0c0,0,0,0,0,0c0,0,0,0,0,0c0,0,0-0.1,0,0c0,0,0,0,0,0c0,0,0,0,0,0c0.1,0,0,0,0,0c0,0,0,0,0,0
							c0,0,0,0,0,0c0,0,0,0,0,0c0,0,0,0,0,0c0,0,0,0-0.1,0c0,0,0,0,0.1,0l-0.1,0l0,0l0,0l0,0c0,0,0.1,0,0.1,0c0,0-0.1,0,0,0l0,0l0,0
							l0,0l0,0c0,0,0,0-0.1,0c0.1-0.1,0-0.1,0-0.1l-0.1,0l0,0l0,0c0,0,0,0,0,0c0.1,0,0,0,0,0c0,0,0.2,0,0.1,0l0,0c0,0,0,0-0.1,0
							c0,0,0.1,0,0.1,0c0,0-0.1,0,0,0c0,0,0,0-0.1,0l-0.1,0l0,0l0.1,0l0,0c0,0,0,0-0.1,0c0,0,0,0,0,0c0,0,0,0,0,0c0,0,0,0,0,0
							c0,0,0,0,0,0c0,0,0,0,0,0c0,0,0,0,0,0c0,0,0,0,0,0l0,0l0,0c0,0,0,0,0,0l0,0c0,0,0,0,0,0c0,0,0,0,0.1,0l0,0l0,0c0,0,0,0,0,0
							c0,0,0,0,0,0c0,0,0,0,0,0c0,0,0,0,0,0c0,0,0,0,0,0c0,0,0,0,0,0c0,0,0,0,0,0s0,0,0,0c0.1,0,0,0,0,0c0,0,0,0,0,0c0,0,0,0,0,0
							l0,0c0,0,0,0,0,0c0,0,0,0,0,0c0,0,0,0,0,0c0,0,0,0,0,0c0,0,0,0,0,0c0,0,0,0,0,0c0,0,0,0,0,0c0,0,0-0.1,0-0.1c0,0,0,0.1,0.1,0
							c0,0,0,0,0,0c0,0,0,0,0,0c0,0,0,0.1,0,0.1c0,0,0,0,0,0c0,0,0,0,0,0c0,0,0,0,0,0c0,0,0.1-0.1,0,0c0,0,0,0,0,0c0,0,0,0,0,0l0,0
							c0,0,0,0,0,0l0,0c0,0.1,0,0,0,0c0,0,0,0,0,0l0,0l0,0c0,0,0,0,0,0c0,0,0,0,0,0c0,0,0,0,0,0c0,0,0,0,0,0c0,0,0,0.1,0,0l0,0
							c-0.1,0,0,0,0,0c0,0,0.1,0,0.1,0c0,0,0,0.1,0,0.1c0,0,0,0,0,0c0,0,0,0,0,0c0,0-0.1,0,0,0.1c0,0,0,0,0,0.1c0,0,0.1,0,0.1,0
							c0,0,0,0,0,0l-0.1,0l0,0l0,0c0,0,0,0,0,0c0,0,0,0,0,0c0,0,0,0,0,0c0,0,0,0,0,0c0,0,0,0,0,0c0,0,0.1,0,0,0l0,0c0,0,0,0,0,0
							c0,0,0,0,0,0c0,0,0,0,0,0c0,0,0.1,0,0,0l0,0c0,0,0,0,0,0c0,0,0,0,0,0c0,0,0,0,0,0c0,0,0,0-0.1,0c0,0,0,0,0.1,0
							c-0.1,0-0.1,0,0,0c0,0-0.1,0-0.1,0c0,0,0,0,0,0l0,0l0,0l0,0c0,0,0,0,0,0c0.1,0,0,0,0,0c0,0,0,0,0,0c0,0,0,0,0,0c0,0,0,0,0,0
							c-0.1,0,0,0,0,0c0,0,0,0,0,0c0,0,0,0,0,0c0,0,0,0,0,0c0,0,0,0,0,0c0,0,0,0,0,0c0,0,0,0,0,0c0,0,0,0,0,0c0,0.1,0,0.1,0.1,0.2
							l0,0c0,0,0,0,0,0c0,0,0,0,0,0c0,0,0,0,0,0c0,0,0,0,0,0c0,0,0.1,0,0.1,0c0,0,0,0,0,0c0,0,0,0-0.1-0.1c0.1,0.1,0.1,0.1,0,0
							c0,0,0,0,0,0.1l0-0.1c0,0,0,0,0,0c0,0,0,0,0-0.1c0,0,0,0,0,0c0.1,0,0,0,0.1,0c0,0,0,0,0,0c0,0,0,0,0,0c0,0,0,0,0,0
							c0,0,0,0,0,0c0,0,0,0,0,0c0,0,0,0,0,0c0,0,0,0,0,0l0,0l0,0l0-0.1c0,0,0,0,0,0c-0.1-0.1,0,0,0-0.1c0,0,0,0,0,0c0,0,0,0,0,0
							c0,0,0,0,0,0c0,0,0,0,0,0l0,0c0,0,0.1,0,0.1,0c0,0,0,0,0,0l0,0c0,0,0,0-0.1,0c0,0,0.1,0,0.1,0c0,0,0,0-0.1,0c0,0,0,0,0,0
							c0,0-0.1,0-0.1,0l0,0c0,0,0,0,0.1,0c0.1,0,0,0,0-0.1l0,0c0,0,0.1,0,0.1,0c0,0,0,0,0,0c-0.1,0-0.2,0-0.2,0c0,0,0.2,0,0.2,0
							c0,0,0,0,0,0c-0.1,0-0.1,0-0.1,0c0,0,0,0-0.1,0c0.1,0,0.1,0,0.1,0c0,0,0,0,0,0c0,0,0,0,0,0c0,0,0,0,0,0c0,0-0.1,0-0.1,0
							c0,0,0.1,0,0.1,0c0,0,0,0-0.1,0c0,0,0.1,0,0.1,0c0,0-0.1,0-0.1,0c0,0,0,0,0.1,0c0,0,0,0,0,0c0,0,0,0,0,0c0,0,0,0,0,0
							c0,0,0,0,0,0c0,0,0,0,0,0c0,0,0,0,0,0c0,0,0,0,0.1,0c0,0,0,0,0,0c0,0,0,0,0,0c-0.1,0,0,0-0.1,0l0.1,0c-0.1,0-0.1,0-0.1,0
							c0,0,0,0,0,0c0,0,0,0,0,0c0,0,0,0,0,0c-0.1,0-0.1,0,0,0c0,0,0.1,0,0.1-0.1c0,0,0,0-0.1,0c-0.1,0,0,0,0,0c0.1,0,0,0,0,0
							c0,0,0,0,0,0c0,0,0,0,0,0c-0.1,0-0.1,0,0,0c-0.1,0-0.1,0-0.1,0c0,0,0,0,0,0c0,0,0,0,0,0c0,0,0,0,0,0l0,0c0,0,0,0,0,0
							c0,0,0,0-0.1,0c0,0,0.1,0,0.1-0.1c0,0,0,0,0,0c0,0,0,0,0,0c0,0,0,0,0,0c0,0,0,0,0,0c0,0,0,0,0,0c0,0,0,0,0,0c0,0,0,0,0,0
							c0.1-0.1,0,0,0,0L60.7,118.6L60.7,118.6L60.7,118.6C60.8,118.7,60.8,118.7,60.7,118.6C60.7,118.7,60.7,118.7,60.7,118.6
							C60.7,118.6,60.7,118.6,60.7,118.6C60.7,118.6,60.7,118.6,60.7,118.6C60.7,118.7,60.7,118.6,60.7,118.6
							C60.7,118.6,60.7,118.6,60.7,118.6z M60,119C60,119,59.9,119,60,119c-0.1,0-0.1,0-0.1,0C59.9,119,59.9,119,60,119L60,119
							C59.9,119,59.9,119,60,119z"/>
					</g>
				</g>
				<g>
					
						<ellipse transform="matrix(0.9445 -0.3286 0.3286 0.9445 -35.2291 27.5299)" fill="#37443D" cx="63.8" cy="118" rx="0.5" ry="0.7"/>
					<g>
						<path fill="#37443D" d="M64.1,117.4C64.1,117.4,64.1,117.4,64.1,117.4C64.1,117.4,64.2,117.4,64.1,117.4
							C64.1,117.4,64.1,117.4,64.1,117.4C64.1,117.4,64.1,117.4,64.1,117.4C64.1,117.4,64.1,117.4,64.1,117.4
							C64.1,117.3,64.1,117.4,64.1,117.4c-0.1-0.1-0.1,0-0.1-0.1c0,0,0,0,0,0c0,0,0,0,0,0c0,0,0,0,0,0c0,0,0,0,0,0c0,0,0,0,0,0
							c0,0,0,0,0,0c0,0,0,0,0,0c0,0,0,0,0,0c0,0,0,0,0,0c0,0,0,0,0,0c0-0.1,0,0,0,0c0,0,0,0,0,0c0,0,0,0,0,0c0,0,0,0,0,0
							c0,0,0,0,0,0c0-0.1,0,0,0,0c0,0,0,0,0,0c0,0,0,0,0,0c0,0,0,0,0,0c0,0-0.1,0-0.1,0c0,0,0,0,0,0c0,0,0,0,0,0c0,0,0,0,0,0
							c0,0,0,0,0,0c0,0,0,0,0,0c0,0,0,0,0,0c0,0,0,0,0,0c0,0,0,0,0,0c0,0,0,0,0,0c0,0,0,0,0,0c0,0,0,0,0,0c0,0,0,0,0,0c0,0,0,0,0,0
							c0,0,0,0,0,0c0,0-0.1,0,0,0c0,0,0,0,0,0c-0.1,0-0.2,0-0.1,0c0,0,0,0,0,0c0,0,0,0,0,0c0,0,0,0,0,0c0,0,0,0,0,0.1c0,0,0,0,0,0
							l0,0l0,0c0,0,0,0,0,0l0,0c0,0,0,0,0,0c0,0,0,0,0,0c0,0-0.1,0,0.1,0c0,0,0,0,0,0c0,0,0,0,0,0c0,0,0,0,0,0l0,0l0,0
							c0,0,0,0-0.1,0c0,0,0,0,0,0c0,0,0,0,0,0c0,0,0,0,0,0c0,0,0,0,0,0c0,0,0,0,0,0l0,0c0,0,0,0,0,0c0,0,0,0,0,0c0,0,0,0,0,0
							c0.1,0,0,0,0,0c0,0,0,0,0,0l0,0c0,0,0,0,0,0c-0.1,0.1,0,0.1-0.1,0.1c0,0,0.1,0,0.1,0c0,0,0,0,0,0c0,0,0,0,0,0c0,0,0,0,0,0
							c0,0,0,0,0,0l0,0c-0.1,0,0,0,0,0c0,0,0,0,0,0l0,0l0,0c0,0,0,0,0,0c0.1,0,0,0,0,0c0,0,0,0,0,0c0,0,0,0,0,0c0,0,0,0,0,0
							c0,0,0,0,0,0.1c0,0,0,0,0,0c0,0,0,0,0,0c0,0,0.1,0,0.1,0c0,0,0,0,0.1,0c0,0,0,0-0.1,0c0,0,0,0,0,0c-0.1,0.1-0.1,0.1-0.1,0.1
							c0,0,0,0,0,0c0,0,0.1,0,0,0.1l0,0c0,0,0,0,0,0c0,0,0,0,0,0c0,0,0,0,0,0c0,0,0,0,0,0c0,0,0,0,0,0c0,0,0,0,0,0.1c0,0,0,0,0,0
							c0,0,0,0,0,0c0,0,0,0,0,0c0,0,0,0,0,0c0,0,0,0,0.1,0.1c0,0,0,0,0,0c0,0,0.1,0,0.1,0l0,0c0,0,0,0,0.1,0.1c0,0,0,0,0,0
							c0,0,0,0,0,0l0-0.1c0,0,0,0,0,0c0,0,0,0,0,0c0,0,0,0,0,0c0-0.1,0,0,0,0.1c0,0,0,0,0,0c0,0,0,0,0,0c0,0,0,0.1,0-0.1
							c0,0,0,0,0,0c0,0,0,0,0,0c0,0,0,0,0,0c0,0,0,0,0,0c0,0,0,0,0,0c0,0,0,0,0,0c0,0,0,0,0,0c0,0,0,0,0,0c0,0,0,0-0.1,0
							c0,0,0,0,0,0c0,0,0,0,0,0c0,0,0,0,0,0c0,0,0,0,0,0c0,0,0-0.1,0,0c0,0,0,0,0,0c0,0,0,0,0,0c0.1,0,0,0,0,0c0,0,0,0,0,0
							c0,0,0,0,0,0c0,0,0,0,0,0c0,0,0,0,0,0c0,0,0,0-0.1,0c0,0,0,0,0.1,0l-0.1,0l0,0l0,0l0,0c0,0,0.1,0,0.1,0c0,0-0.1,0,0,0l0,0l0,0
							l0,0l0,0c0,0,0,0-0.1,0c0.1-0.1,0-0.1,0-0.1l-0.1,0l0,0l0,0c0,0,0,0,0,0c0.1,0,0,0,0,0c0,0,0.2,0,0.1,0l0,0c0,0,0,0-0.1,0
							c0,0,0.1,0,0.1,0c0,0-0.1,0,0,0c0,0,0,0-0.1,0l-0.1,0l0,0l0.1,0l0,0c0,0,0,0-0.1,0c0,0,0,0,0,0c0,0,0,0,0,0c0,0,0,0,0,0
							c0,0,0,0,0,0c0,0,0,0,0,0c0,0,0,0,0,0c0,0,0,0,0,0l0,0l0,0c0,0,0,0,0,0l0,0c0,0,0,0,0,0c0,0,0,0,0.1,0l0,0l0,0c0,0,0,0,0,0
							c0,0,0,0,0,0c0,0,0,0,0,0c0,0,0,0,0,0c0,0,0,0,0,0c0,0,0,0,0,0c0,0,0,0,0,0s0,0,0,0c0.1,0,0,0,0,0c0,0,0,0,0,0c0,0,0,0,0,0
							l0,0c0,0,0,0,0,0c0,0,0,0,0,0c0,0,0,0,0,0c0,0,0,0,0,0c0,0,0,0,0,0c0,0,0,0,0,0c0,0,0,0,0,0c0,0,0-0.1,0-0.1c0,0,0,0.1,0.1,0
							c0,0,0,0,0,0c0,0,0,0,0,0c0,0,0,0.1,0,0.1c0,0,0,0,0,0c0,0,0,0,0,0c0,0,0,0,0,0c0,0,0.1-0.1,0,0c0,0,0,0,0,0c0,0,0,0,0,0l0,0
							c0,0,0,0,0,0l0,0c0,0.1,0,0,0,0c0,0,0,0,0,0l0,0l0,0c0,0,0,0,0,0c0,0,0,0,0,0c0,0,0,0,0,0c0,0,0,0,0,0c0,0,0,0.1,0,0l0,0
							c-0.1,0,0,0,0,0c0,0,0.1,0,0.1,0c0,0,0,0.1,0,0.1c0,0,0,0,0,0c0,0,0,0,0,0c0,0-0.1,0,0,0.1c0,0,0,0,0,0.1c0,0,0.1,0,0.1,0
							c0,0,0,0,0,0l-0.1,0l0,0l0,0c0,0,0,0,0,0c0,0,0,0,0,0c0,0,0,0,0,0c0,0,0,0,0,0c0,0,0,0,0,0c0,0,0.1,0,0,0l0,0c0,0,0,0,0,0
							c0,0,0,0,0,0c0,0,0,0,0,0c0,0,0.1,0,0,0l0,0c0,0,0,0,0,0c0,0,0,0,0,0c0,0,0,0,0,0c0,0,0,0-0.1,0c0,0,0,0,0.1,0
							c-0.1,0-0.1,0,0,0c0,0-0.1,0-0.1,0c0,0,0,0,0,0l0,0l0,0l0,0c0,0,0,0,0,0c0.1,0,0,0,0,0c0,0,0,0,0,0c0,0,0,0,0,0c0,0,0,0,0,0
							c-0.1,0,0,0,0,0c0,0,0,0,0,0c0,0,0,0,0,0c0,0,0,0,0,0c0,0,0,0,0,0c0,0,0,0,0,0c0,0,0,0,0,0c0,0,0,0,0,0c0,0.1,0,0.1,0.1,0.2
							l0,0c0,0,0,0,0,0c0,0,0,0,0,0c0,0,0,0,0,0c0,0,0,0,0,0c0,0,0.1,0,0.1,0c0,0,0,0,0,0c0,0,0,0-0.1-0.1c0.1,0.1,0.1,0.1,0,0
							c0,0,0,0,0,0.1l0-0.1c0,0,0,0,0,0c0,0,0,0,0-0.1c0,0,0,0,0,0c0.1,0,0,0,0.1,0c0,0,0,0,0,0c0,0,0,0,0,0c0,0,0,0,0,0
							c0,0,0,0,0,0c0,0,0,0,0,0c0,0,0,0,0,0c0,0,0,0,0,0l0,0l0,0l0-0.1c0,0,0,0,0,0c-0.1-0.1,0,0,0-0.1c0,0,0,0,0,0c0,0,0,0,0,0
							c0,0,0,0,0,0c0,0,0,0,0,0l0,0c0,0,0.1,0,0.1,0c0,0,0,0,0,0l0,0c0,0,0,0-0.1,0c0,0,0.1,0,0.1,0c0,0,0,0-0.1,0c0,0,0,0,0,0
							c0,0-0.1,0-0.1,0l0,0c0,0,0,0,0.1,0c0.1,0,0,0,0-0.1l0,0c0,0,0.1,0,0.1,0c0,0,0,0,0,0c-0.1,0-0.2,0-0.2,0c0,0,0.2,0,0.2,0
							c0,0,0,0,0,0c-0.1,0-0.1,0-0.1,0c0,0,0,0-0.1,0c0.1,0,0.1,0,0.1,0c0,0,0,0,0,0c0,0,0,0,0,0c0,0,0,0,0,0c0,0-0.1,0-0.1,0
							c0,0,0.1,0,0.1,0c0,0,0,0-0.1,0c0,0,0.1,0,0.1,0c0,0-0.1,0-0.1,0c0,0,0,0,0.1,0c0,0,0,0,0,0c0,0,0,0,0,0c0,0,0,0,0,0
							c0,0,0,0,0,0c0,0,0,0,0,0c0,0,0,0,0,0c0,0,0,0,0.1,0c0,0,0,0,0,0c0,0,0,0,0,0c-0.1,0,0,0-0.1,0l0.1,0c-0.1,0-0.1,0-0.1,0
							c0,0,0,0,0,0c0,0,0,0,0,0c0,0,0,0,0,0c-0.1,0-0.1,0,0,0c0,0,0.1,0,0.1-0.1c0,0,0,0-0.1,0c-0.1,0,0,0,0,0c0.1,0,0,0,0,0
							c0,0,0,0,0,0c0,0,0,0,0,0c-0.1,0-0.1,0,0,0c-0.1,0-0.1,0-0.1,0c0,0,0,0,0,0c0,0,0,0,0,0c0,0,0,0,0,0l0,0c0,0,0,0,0,0
							c0,0,0,0-0.1,0c0,0,0.1,0,0.1-0.1c0,0,0,0,0,0c0,0,0,0,0,0c0,0,0,0,0,0c0,0,0,0,0,0c0,0,0,0,0,0c0,0,0,0,0,0c0,0,0,0,0,0
							c0.1-0.1,0,0,0,0L64.1,117.4L64.1,117.4L64.1,117.4C64.2,117.5,64.2,117.5,64.1,117.4C64.2,117.5,64.2,117.5,64.1,117.4
							C64.2,117.4,64.2,117.4,64.1,117.4C64.2,117.4,64.2,117.4,64.1,117.4C64.1,117.5,64.1,117.4,64.1,117.4
							C64.2,117.4,64.1,117.4,64.1,117.4z M63.4,117.8C63.4,117.8,63.4,117.8,63.4,117.8c-0.1,0-0.1,0-0.1,0
							C63.3,117.8,63.3,117.8,63.4,117.8L63.4,117.8C63.4,117.8,63.4,117.8,63.4,117.8z"/>
					</g>
				</g>
				<g>
					<g>
						<path fill="#37443D" d="M63.7,123.5C63.7,123.5,63.7,123.5,63.7,123.5C63.7,123.5,63.7,123.5,63.7,123.5
							C63.7,123.5,63.7,123.5,63.7,123.5C63.7,123.5,63.7,123.5,63.7,123.5C63.7,123.5,63.7,123.5,63.7,123.5
							C63.8,123.5,63.7,123.5,63.7,123.5c0.1-0.1,0-0.1,0.1-0.1c0,0,0,0,0,0c0,0,0,0,0,0c0,0,0,0,0,0c0,0,0,0,0,0c0,0,0,0,0,0
							c0,0,0,0,0,0c0,0,0,0,0,0c0,0,0,0,0,0c0,0,0,0,0,0c0,0,0,0,0,0c0.1,0,0,0,0,0c0,0,0,0,0,0c0,0,0,0,0,0c0,0,0,0,0,0
							c0,0,0,0,0,0c0.1,0,0,0,0,0c0,0,0,0,0,0c0,0,0,0,0,0c0,0,0,0,0,0l0,0l0,0l0,0c0,0,0,0,0-0.1c0,0,0,0,0,0c0,0,0,0,0,0
							c0,0,0,0,0,0c0,0,0,0,0,0c0,0,0,0,0,0c0,0,0,0,0,0c0,0,0,0,0,0c0,0,0,0,0,0c0,0,0,0,0,0c0,0,0,0,0,0c0,0,0,0,0,0c0,0,0,0,0,0
							c0,0,0,0,0,0c0,0,0,0,0,0c0,0,0-0.1,0,0c0,0,0,0,0,0c0.1,0,0.1-0.1,0.1-0.1c0,0,0,0,0,0c0,0,0,0,0,0c0,0,0,0,0,0
							c0,0,0,0,0-0.1c0,0,0,0,0,0l0,0l0,0c0,0,0,0,0,0l0,0c0,0,0,0,0,0c0,0,0,0,0,0c0,0,0.1,0-0.1,0c0,0,0,0,0,0c0,0,0,0,0,0
							c0,0,0,0,0,0l0,0l0,0c0,0,0,0,0.1,0c0,0,0,0,0,0c0,0,0,0,0,0c0,0,0,0,0,0c0,0,0,0,0,0c0,0,0,0,0,0l0,0c0,0,0,0,0,0
							c0,0,0,0,0,0c0,0,0,0,0,0c-0.1,0,0,0,0,0c0,0,0,0,0,0l0,0c0,0,0,0,0,0c0.1-0.1,0-0.1,0-0.1c0,0-0.1,0-0.1,0c0,0,0,0,0,0
							c0,0,0,0,0,0c0,0,0,0,0,0c0,0,0,0,0,0l0,0c0.1,0,0,0,0,0c0,0,0,0,0,0l0,0c0,0,0,0,0,0c0,0,0,0,0,0c-0.1,0,0,0,0,0
							c0,0,0,0,0.1,0c0,0,0,0,0,0c0,0,0,0,0,0c0,0,0,0,0-0.1c0,0,0,0,0,0c0,0,0,0,0,0c0,0-0.1,0-0.1,0c0,0,0,0-0.1,0c0,0,0,0,0.1,0
							c0,0,0,0-0.1,0c0.1,0,0.1,0,0.1,0c0,0,0,0,0,0c0,0-0.1,0,0-0.1l0,0c-0.1,0,0,0,0,0c0,0,0,0,0,0c0,0,0,0,0,0c0,0,0,0,0,0
							c0,0,0,0,0,0c0,0,0,0,0-0.1c0,0,0,0,0,0c0,0,0,0,0,0c0,0,0,0,0,0c0,0,0,0,0,0c0,0,0-0.1,0-0.1c0,0,0,0,0,0c0,0,0-0.1,0-0.1
							l0,0c0,0,0,0,0-0.1c0,0,0,0,0,0c0,0,0,0,0,0l-0.1,0c0,0,0,0,0,0c0,0,0,0,0,0c0,0,0,0,0,0c-0.1,0,0,0,0.1,0c0,0,0,0,0,0
							c0,0,0,0,0,0.1c0,0,0.1,0,0,0.1c0,0,0,0,0,0c0,0,0,0,0,0.1c0,0,0,0,0,0c0,0,0,0,0,0c0,0,0,0,0,0c0,0,0,0,0,0c0,0,0,0,0,0
							c0,0,0,0,0,0c0,0,0,0,0,0c0,0,0,0,0,0.1c0,0,0,0,0,0c0,0,0,0,0,0.1c0,0,0,0,0,0c0,0,0,0.1,0,0.1c0,0,0,0,0,0c0,0,0,0,0.1,0
							c-0.1,0,0,0,0,0c0,0,0,0,0,0c0,0,0,0,0,0c0,0,0,0,0,0c0,0,0,0,0,0c0,0,0,0,0.1,0c0,0,0,0-0.1,0l0.1,0.1l0,0l0,0l0,0
							c0,0-0.1,0-0.1,0c0,0,0.1,0,0,0l0,0l0,0l0,0l0,0c0,0,0,0,0.1,0c-0.1,0.1,0,0.1,0,0.2l0.1,0l0,0l0,0c0,0,0,0,0,0
							c-0.1,0,0,0,0,0c0,0-0.2,0.1-0.1,0l0,0c0,0,0,0,0.1,0c0,0-0.1,0-0.1,0c0,0,0.1,0,0,0c0,0,0,0,0.1,0c0,0,0,0,0.1,0l0,0l-0.1,0
							l0,0c0,0,0,0,0.1,0c0,0,0,0,0,0c0,0,0,0,0,0c0,0,0,0,0,0c0,0,0,0,0,0c0,0,0,0,0,0c0,0,0,0,0,0c0,0,0,0,0,0l0,0l0,0
							c0,0,0,0,0,0l0,0c0,0,0,0,0,0c0,0,0,0-0.1,0l0,0l0,0c0,0,0,0,0,0c0,0,0,0,0,0c0,0,0,0,0,0c0,0,0,0,0,0c0,0,0,0,0,0
							c0,0,0,0,0,0c0,0,0,0,0,0s0,0,0,0c-0.1,0,0,0,0,0.1c0,0,0,0,0,0c0,0,0,0,0,0.1c0,0,0,0,0,0c0,0,0,0,0,0c0,0,0,0,0,0
							c0,0,0,0,0,0.1c0,0,0,0,0,0c0,0,0,0,0,0.1c0,0,0,0,0,0.1c0,0,0,0,0,0c0,0,0,0,0,0l0,0l0,0l0,0l0,0l0,0l0-0.1c0,0,0,0,0,0.1
							c0,0-0.1,0,0,0.1c0,0,0,0,0,0c0,0,0,0,0,0c0,0-0.1,0-0.1,0c0,0,0,0,0,0c0,0,0,0,0,0c0,0,0,0,0,0c0,0,0.1,0.1,0,0.1
							c0,0,0,0,0,0c0,0,0,0,0,0l0,0c0,0,0,0,0,0l0,0c-0.1,0,0,0,0,0c0,0,0,0,0,0l0,0c0,0,0,0,0,0c0,0,0,0,0,0c0,0,0,0,0,0
							c0,0,0,0,0,0c0,0,0,0,0,0c0,0-0.1,0,0,0l0,0c-0.1-0.1,0,0,0,0c0,0,0,0.1,0,0.1c0,0-0.1,0-0.1,0c0,0,0,0,0,0c0,0,0,0,0,0
							c0,0-0.1,0-0.1,0c0,0,0,0-0.1,0c0,0,0,0.1,0,0.1c0,0,0,0,0,0l0-0.1l0,0l0,0c0,0,0,0,0,0c0,0,0,0,0,0c0,0,0,0,0,0c0,0,0,0,0,0
							c0,0,0,0,0,0c0,0,0,0.1,0,0l0,0c0,0,0,0,0,0c0,0,0,0,0,0c0,0,0,0,0,0c0,0,0,0.1,0,0l0,0c0,0,0,0,0,0c0,0,0,0,0,0c0,0,0,0,0,0
							c0,0,0,0,0-0.1c0,0,0,0,0,0.1c0-0.1,0-0.1,0,0c0,0,0-0.1,0-0.1c0,0,0,0,0,0l0,0l0,0l0,0c0,0,0,0,0,0c0,0.1,0,0,0,0
							c0,0,0,0,0,0c0,0,0,0,0,0c0,0,0,0,0,0c0-0.1,0,0,0,0c0,0,0,0,0,0c0,0,0,0,0,0c0,0,0,0,0,0c0,0,0,0,0,0c0,0,0,0-0.1,0
							c0,0,0,0,0,0c0,0,0,0,0,0c0,0.1,0,0.1-0.1,0.2l0,0c0,0,0,0,0,0c0,0,0,0,0,0.1c0,0,0,0,0,0c0,0,0,0,0,0c0,0,0,0.1,0,0.1
							c0,0,0,0,0,0c0,0,0,0,0.1-0.1c0,0.1,0,0.1,0,0.1c0,0,0,0,0,0.1l0-0.1c0,0,0,0.1,0,0c0,0,0,0,0-0.1c0,0,0,0,0,0
							c0,0.1,0,0.1,0,0.1c0,0,0,0,0,0c0,0,0,0,0,0c0,0,0,0,0,0c0,0,0,0,0,0c0,0,0,0,0,0c0,0,0,0,0,0c0,0,0,0,0,0l0,0l0,0l0.1,0
							c0,0,0,0,0,0c0-0.1,0,0,0.1-0.1c0,0,0,0,0,0.1c0,0,0,0,0,0c0,0,0,0,0,0c0,0,0,0,0,0l0,0c0,0,0,0.1,0,0.1c0,0,0,0,0,0l0,0
							c0,0,0,0,0-0.1c0,0,0,0.1,0,0.1c0,0,0,0,0-0.1c0,0,0,0,0,0c0,0,0-0.1,0-0.1l0,0c0,0,0,0,0,0.1c0,0.1,0,0,0-0.1l0,0
							c0,0,0,0.1,0,0.1c0,0,0,0,0,0c0-0.1,0-0.2,0-0.2c0,0,0,0.2,0,0.2c0,0,0,0,0,0c0-0.1,0-0.1,0-0.1c0,0,0,0,0-0.1
							c0,0.1,0,0.1,0,0.1c0,0,0,0,0,0c0,0,0,0,0,0c0,0,0,0,0,0c0,0,0-0.1,0-0.1c0,0,0,0.1,0,0.1c0,0,0,0,0-0.1c0,0,0,0.1,0,0.1
							c0,0,0-0.1,0-0.1c0,0,0,0,0,0.1c0,0,0,0,0,0c0,0,0,0,0,0c0,0,0,0,0,0c0,0,0,0,0,0c0,0,0,0,0,0c0,0,0,0,0,0c0,0,0,0,0,0.1
							c0,0,0,0,0,0c0,0,0,0,0,0c0-0.1,0,0,0-0.1l0,0.1c0-0.1,0-0.1,0-0.1c0,0,0,0,0,0c0,0,0,0,0,0c0,0,0,0,0,0c0-0.1,0-0.1,0,0
							c0,0,0.1,0.1,0.1,0.1c0,0,0,0,0-0.1c0,0,0,0,0,0c0,0.1,0,0,0,0c0,0,0,0,0,0c0,0,0,0,0,0c0-0.1,0-0.1,0,0c0-0.1,0-0.1,0-0.1
							c0,0,0,0,0,0c0,0,0,0,0,0c0,0,0.1,0,0.1,0l0,0c0,0,0,0,0,0c0,0,0,0-0.1-0.1c0,0,0,0.1,0.1,0.1c0,0,0,0,0,0c0,0,0,0,0,0
							c0,0,0,0,0,0c0,0,0,0,0,0c0,0,0,0,0,0c0,0,0,0,0,0c0,0,0,0,0,0c0.1,0.1,0,0,0,0L63.7,123.5l-0.1,0.1L63.7,123.5
							C63.6,123.6,63.7,123.6,63.7,123.5C63.6,123.6,63.7,123.6,63.7,123.5C63.7,123.6,63.7,123.6,63.7,123.5
							C63.7,123.6,63.7,123.6,63.7,123.5C63.7,123.5,63.7,123.5,63.7,123.5C63.7,123.6,63.7,123.5,63.7,123.5z M63.6,122.4
							C63.6,122.4,63.6,122.4,63.6,122.4c0.1,0,0.1,0,0.1,0C63.7,122.4,63.6,122.4,63.6,122.4L63.6,122.4
							C63.6,122.4,63.6,122.4,63.6,122.4z"/>
					</g>
					<g>
						<path fill="#37443D" d="M64.3,123.2C64.2,123.2,64.2,123.2,64.3,123.2C64.2,123.1,64.2,123.1,64.3,123.2
							C64.2,123.2,64.2,123.2,64.3,123.2C64.2,123.2,64.2,123.2,64.3,123.2C64.2,123.2,64.2,123.2,64.3,123.2
							C64.2,123.1,64.2,123.2,64.3,123.2c-0.1,0-0.1,0-0.1,0c0,0,0,0,0,0c0,0.1,0,0,0,0c0,0,0,0,0,0c0,0,0,0,0,0c0,0,0,0,0,0
							c0,0,0,0,0,0c0,0,0,0,0,0c0,0,0,0,0,0c0,0,0,0,0,0c0,0,0,0,0,0c0-0.1,0,0,0,0c0,0,0,0,0,0c0,0,0,0,0,0c0,0,0,0,0,0
							c0,0,0,0,0,0c0-0.1,0,0,0,0c0,0,0,0,0,0c0,0,0,0,0,0c0,0,0,0,0,0c0,0,0,0,0,0l0,0c0,0,0,0,0-0.1c0,0,0,0,0,0c0,0,0,0,0,0
							c0,0,0,0,0,0c0,0,0,0,0,0c0,0,0,0,0,0c0,0,0,0,0,0c0,0,0,0,0,0c0,0,0,0,0,0c0,0,0,0,0,0c0,0,0,0,0,0c0,0,0,0,0,0c0,0,0,0,0,0
							c0,0,0,0,0,0c0,0,0,0,0,0c0,0,0-0.1,0,0c0,0,0,0,0,0c0.1,0,0.1-0.1,0.1-0.1c0,0,0,0,0,0c0,0,0,0,0,0c0,0,0,0,0,0
							c0,0,0,0,0-0.1c0,0,0,0,0,0l0,0l0,0c0,0,0,0,0,0l0,0c0,0,0,0,0,0c0,0,0,0,0,0c0,0,0.1,0-0.1,0c0,0,0,0,0,0c0,0,0,0,0,0
							c0,0,0,0,0,0l0,0l0,0c0,0,0,0,0.1,0c0,0,0,0,0,0c0,0,0,0,0,0c0,0,0,0,0,0c0,0,0,0,0,0c0,0,0,0,0,0l0,0c0,0,0,0,0,0
							c0,0,0,0,0,0c0,0,0,0,0,0c-0.1,0,0,0,0,0c0,0,0,0,0,0l0,0c0,0,0,0,0,0c0.1-0.1,0-0.1,0-0.1c0,0-0.1,0-0.1,0c0,0,0,0,0,0
							c0,0,0,0,0,0c0,0,0,0,0,0c0,0,0,0,0,0l0,0c0.1,0,0,0,0,0c0,0,0,0,0,0l0,0c0,0,0,0,0,0c0,0,0,0,0,0c-0.1,0,0,0,0,0
							c0,0,0,0,0.1,0c0,0,0,0,0,0c0,0,0,0,0,0c0,0,0,0,0-0.1c0,0,0,0,0,0c0,0,0,0,0,0c0,0-0.1,0-0.1,0c0,0,0,0-0.1,0c0,0,0,0,0.1,0
							c0,0,0,0-0.1,0c0.1,0,0.1,0,0.1,0c0,0,0,0,0,0c0,0-0.1,0,0-0.1l0,0c-0.1,0,0,0,0,0c0,0,0,0,0,0c0,0,0,0,0,0c0,0,0,0,0,0
							c0,0,0,0,0,0c0,0,0,0,0-0.1c0,0,0,0,0,0c0,0,0,0,0,0c0,0,0,0,0,0c0,0,0,0,0,0c0,0,0-0.1,0-0.1c0,0,0,0,0,0c0,0,0-0.1,0-0.1
							l0,0c0,0,0,0,0-0.1c0,0,0,0,0,0c0,0,0,0,0,0l-0.1,0c0,0,0,0,0,0c0,0,0,0,0,0c0,0,0,0,0,0c-0.1,0,0,0,0.1,0c0,0,0,0,0,0
							c0,0,0,0,0,0.1c0,0,0.1,0,0,0.1c0,0,0,0,0,0c0,0,0,0,0,0.1c0,0,0,0,0,0c0,0,0,0,0,0c0,0,0,0,0,0c0,0,0,0,0,0c0,0,0,0,0,0
							c0,0,0,0,0,0c0,0,0,0,0,0c0,0,0,0,0,0.1c0,0,0,0,0,0c0,0,0,0,0,0.1c0,0,0,0,0,0c0,0,0,0.1,0,0.1c0,0,0,0,0,0c0,0,0,0,0.1,0
							c-0.1,0,0,0,0,0c0,0,0,0,0,0c0,0,0,0,0,0c0,0,0,0,0,0c0,0,0,0,0,0c0,0,0,0,0.1,0c0,0,0,0-0.1,0l0.1,0.1l0,0l0,0l0,0
							c0,0-0.1,0-0.1,0c0,0,0.1,0,0,0l0,0l0,0l0,0l0,0c0,0,0,0,0.1,0c-0.1,0.1,0,0.1,0,0.2l0.1,0l0,0l0,0c0,0,0,0,0,0
							c-0.1,0,0,0,0,0c0,0-0.2,0.1-0.1,0l0,0c0,0,0,0,0.1,0c0,0-0.1,0-0.1,0c0,0,0.1,0,0,0c0,0,0,0,0.1,0c0,0,0,0,0.1,0l0,0l-0.1,0
							l0,0c0,0,0,0,0.1,0c0,0,0,0,0,0c0,0,0,0,0,0c0,0,0,0,0,0c0,0,0,0,0,0c0,0,0,0,0,0c0,0,0,0,0,0c0,0,0,0,0,0l0,0l0,0
							c0,0,0,0,0,0l0,0c0,0,0,0,0,0c0,0,0,0-0.1,0l0,0l0,0c0,0,0,0,0,0c0,0,0,0,0,0c0,0,0,0,0,0c0,0,0,0,0,0c0,0,0,0,0,0
							c0,0,0,0,0,0c0,0,0,0,0,0s0,0,0,0c-0.1,0,0,0,0,0.1c0,0,0,0,0,0c0,0,0,0,0,0.1c0,0,0,0,0,0c0,0,0,0,0,0c0,0,0,0,0,0
							c0,0,0,0,0,0.1c0,0,0,0,0,0c0,0,0,0,0,0.1c0,0,0,0,0,0.1c0,0,0,0,0,0c0,0,0,0,0,0l0,0l0,0c0,0,0,0,0.1,0.1c0,0,0.1,0,0.1,0
							c0,0,0,0.1,0.1,0.1c0,0,0,0,0,0c0,0,0,0,0,0c0,0,0,0.1,0,0.1c0,0,0,0,0,0c0,0,0,0,0,0c0,0,0,0,0,0c0,0,0-0.1,0-0.1
							c0,0.1,0,0,0,0c0,0.1,0,0,0.1,0l0,0c0,0,0,0,0,0l0,0c0,0.1,0,0,0,0c0,0,0,0,0,0l0,0l0,0c0,0,0,0,0,0c0,0,0,0,0,0c0,0,0,0,0,0
							c0,0,0,0,0.1,0c0,0,0,0.1,0.1,0l0,0c0,0.1,0,0,0,0c0,0,0.1-0.1,0.1-0.1c0,0,0.1,0,0.1,0c0,0,0,0,0,0c0,0,0,0,0,0
							c0,0,0.1,0,0.1,0c0,0,0.1,0,0.1-0.1c0,0,0-0.1,0-0.1c0,0,0,0,0,0l0,0.1l0,0l0,0c0,0,0,0,0,0c0,0,0,0,0,0c0,0,0,0,0,0
							c0,0,0,0,0,0c0,0,0,0,0,0c0,0,0-0.1,0,0l0,0c0,0,0,0,0,0c0,0,0,0,0.1,0c0,0,0,0,0,0c0,0,0-0.1,0-0.1l0,0c0,0,0,0,0,0
							c0,0,0,0,0,0c0,0,0,0,0,0c0,0,0,0,0.1,0.1c0,0,0,0,0,0c0.1,0,0.1,0,0.1,0c0,0,0,0,0,0c0,0,0,0,0,0l0,0l0,0c0,0,0,0,0,0
							c0,0,0,0,0,0c0-0.1,0,0,0,0c0,0,0,0,0,0c0,0,0,0,0,0c0,0,0,0,0,0c0.1,0,0,0,0.1,0c0,0,0,0,0-0.1c0,0,0,0,0,0c0,0,0,0,0,0
							c0,0,0,0,0,0c0,0,0,0,0-0.1c0,0,0,0,0,0c0,0,0,0,0,0c-0.1,0-0.1,0-0.2-0.1l0,0c0,0,0,0,0,0c0,0,0,0-0.1,0c0,0,0,0,0,0
							c0,0,0,0,0,0c0,0-0.1,0-0.1,0c0,0,0,0,0,0c0,0,0,0,0.1,0.1c-0.1-0.1-0.1,0-0.1,0c0,0,0,0-0.1,0l0.1,0c0,0,0,0,0,0c0,0,0,0,0,0
							c0,0,0,0,0,0c-0.1,0,0,0-0.1,0c0,0,0,0,0,0s0,0,0,0c0,0,0,0,0,0c0,0,0,0,0,0c0,0,0,0,0,0c0,0,0,0,0,0c0,0,0,0,0,0l0,0l0,0l0,0
							c0,0,0,0,0,0c0.1,0.1,0,0,0,0.1c0,0,0,0,0,0c0,0,0,0,0,0c0,0,0,0,0,0c0,0,0,0,0,0l0,0c0,0-0.1,0-0.1,0c0,0,0,0,0,0l0,0
							c0,0,0,0,0.1,0.1c0,0,0,0-0.1-0.1c0,0,0,0,0,0.1c0,0,0,0,0,0c0,0,0,0,0,0.1l0,0c0,0,0,0,0,0c0,0,0,0,0,0.1l0,0
							c0,0-0.1-0.1-0.1-0.1c0,0,0,0,0,0c0,0.1,0.1,0.1,0.2,0.2c0,0-0.1-0.1-0.2-0.2c0,0,0,0,0,0c0,0.1,0.1,0.1,0.1,0.1c0,0,0,0,0,0
							c-0.1-0.1-0.1-0.1-0.1-0.1c0,0,0,0,0,0c0,0,0,0,0,0c0,0,0,0,0,0c0,0,0,0.1,0.1,0.1c0,0,0,0,0-0.1c0,0,0,0,0,0c0,0,0,0,0-0.1
							c0,0,0,0.1,0,0.1c0,0,0,0,0,0c0,0,0,0,0,0c0,0,0,0,0,0c0,0,0,0,0,0c0,0,0,0,0,0c0,0,0,0,0,0c0,0,0,0,0,0c0,0,0,0,0-0.1
							c0,0,0,0,0,0c0,0,0,0,0,0c0,0.1,0,0,0,0.1l0-0.1c0,0.1,0,0.1,0,0.1c0,0,0,0,0,0c0,0,0,0,0,0c0,0,0,0,0,0c0,0.1,0,0.1,0,0
							c0,0,0-0.1-0.1-0.1c0,0,0,0,0,0.1c0,0.1,0,0,0,0c0-0.1,0,0,0,0c0,0,0,0,0,0c0,0,0,0,0,0c0,0.1,0,0.1,0,0c0,0.1,0,0.1,0,0.1
							c0,0,0,0,0,0c0,0,0,0,0,0c0,0,0,0,0,0l0,0c0,0,0,0,0,0c0,0,0,0.1,0,0.1c0,0,0-0.1,0-0.1c0,0,0,0,0,0c0,0,0,0,0,0c0,0,0,0,0,0
							c0,0,0,0,0,0c0,0,0,0,0,0c0,0,0,0,0,0c0,0,0,0,0,0c0-0.1,0,0,0,0l0,0l0,0L64.3,123.2C64.3,123.2,64.3,123.2,64.3,123.2
							C64.3,123.2,64.3,123.2,64.3,123.2C64.3,123.2,64.3,123.2,64.3,123.2C64.3,123.2,64.3,123.2,64.3,123.2
							C64.3,123.2,64.3,123.2,64.3,123.2C64.3,123.2,64.3,123.2,64.3,123.2z M63.4,122.5C63.4,122.5,63.5,122.5,63.4,122.5
							c0.1,0,0.1,0,0.1,0C63.5,122.5,63.5,122.5,63.4,122.5L63.4,122.5C63.5,122.5,63.4,122.5,63.4,122.5z"/>
					</g>
				</g>
				<g>
					<path fill="#FFFFFF" d="M64.9,114.9c-1.3-0.7-2.9-0.8-4.5-0.3c-1.5,0.6-2.6,1.7-3.2,3.1l0,0c0,0-3,2.4-1,6.2l1.5-1.6
						c1.3,2.4,4,3.9,6.6,2.9c2.6-1,3.7-4.1,3.1-6.7l2.1,0.5C68.8,115.1,65.5,114.8,64.9,114.9z"/>
					<path fill="#005084" d="M64.7,115c-0.6-0.3-1.3-0.4-2-0.5c-0.7,0-1.5,0.1-2.2,0.3c-0.2,0.1-0.4,0.1-0.5,0.2
						c-0.2,0.1-0.3,0.2-0.5,0.3c-0.3,0.2-0.6,0.4-0.9,0.7c-0.5,0.5-1,1.1-1.2,1.8c-0.1,0.1-0.2,0.2-0.3,0.1c-0.1,0-0.1-0.1-0.1-0.2
						l0,0l0.4,0.2c-0.2,0.2-0.4,0.4-0.6,0.6c-0.2,0.2-0.3,0.4-0.5,0.7c-0.3,0.5-0.5,1-0.5,1.5c-0.2,1.1,0.1,2.2,0.6,3.1l-0.4-0.1
						l1.5-1.6c0.1-0.1,0.2-0.1,0.3,0c0,0,0,0,0,0.1c0.6,1.1,1.5,2.1,2.7,2.6c0.3,0.1,0.6,0.2,0.9,0.3c0.3,0.1,0.6,0.1,0.9,0.1
						c0.3,0,0.6,0,0.9-0.1c0.3-0.1,0.6-0.1,0.9-0.2c0.3-0.1,0.6-0.3,0.8-0.4c0.3-0.2,0.5-0.4,0.7-0.6c0.4-0.5,0.8-1,1-1.6
						c0.5-1.2,0.6-2.5,0.3-3.8c0-0.1,0.1-0.3,0.2-0.3c0,0,0.1,0,0.1,0l2.1,0.6l-0.3,0.3c-0.1-0.3-0.1-0.5-0.2-0.8
						c-0.1-0.3-0.2-0.5-0.3-0.7c-0.1-0.2-0.3-0.5-0.4-0.7c-0.2-0.2-0.3-0.4-0.5-0.6c-0.1-0.1-0.2-0.2-0.3-0.3
						c-0.1-0.1-0.2-0.2-0.3-0.2c-0.2-0.1-0.5-0.3-0.7-0.4c-0.2-0.1-0.5-0.2-0.8-0.3c-0.3-0.1-0.5-0.1-0.8-0.1L64.7,115z M65.1,114.8
						c0.2,0,0.5,0,0.7,0c0.3,0.1,0.6,0.1,0.8,0.2c0.3,0.1,0.5,0.2,0.8,0.4c0.1,0.1,0.3,0.1,0.4,0.2c0.1,0.1,0.2,0.2,0.3,0.3
						c0.2,0.2,0.4,0.4,0.6,0.6c0.2,0.2,0.4,0.5,0.5,0.7c0.1,0.3,0.3,0.5,0.4,0.8c0.1,0.3,0.2,0.6,0.2,0.8c0,0.1,0,0.2-0.1,0.3
						c0,0-0.1,0-0.1,0l0,0l-2.1-0.5l0.3-0.3c0.3,1.4,0.2,2.8-0.4,4.1c-0.3,0.6-0.6,1.2-1.1,1.8c-0.2,0.3-0.5,0.5-0.8,0.7
						c-0.3,0.2-0.6,0.4-0.9,0.5c-0.7,0.3-1.4,0.4-2.1,0.3c-0.4,0-0.7-0.1-1-0.2c-0.3-0.1-0.7-0.2-1-0.4c-1.3-0.6-2.3-1.6-2.9-2.9
						l0.4,0.1l-1.5,1.6c-0.1,0.1-0.2,0.1-0.3,0c0,0,0,0,0-0.1c-0.6-1-0.9-2.2-0.7-3.4c0.1-0.6,0.3-1.2,0.6-1.7
						c0.1-0.3,0.3-0.5,0.5-0.7c0.2-0.2,0.4-0.4,0.6-0.6c0.1-0.1,0.3-0.1,0.3,0c0,0,0.1,0.1,0.1,0.1l0,0l0,0l-0.5-0.1
						c0.3-0.7,0.8-1.4,1.4-1.9c0.3-0.3,0.6-0.5,0.9-0.7c0.2-0.1,0.3-0.2,0.5-0.3c0.2-0.1,0.4-0.2,0.6-0.2c0.7-0.3,1.6-0.4,2.4-0.3
						c0.4,0,0.8,0.1,1.2,0.2c0.4,0.1,0.8,0.3,1.1,0.5L65.1,114.8z"/>
				</g>
				<g>
					
						<ellipse transform="matrix(0.939 -0.3439 0.3439 0.939 -37.5362 28.8483)" fill="#FFFFFF" cx="62.6" cy="120.2" rx="1.3" ry="1"/>
					<path fill="#005084" d="M63.8,119.8c0,0,0.1,0.1,0,0.3c0,0.2-0.1,0.5-0.4,0.8c-0.1,0.1-0.3,0.3-0.5,0.3
						c-0.2,0.1-0.4,0.2-0.6,0.2c-0.2,0-0.5,0-0.7-0.1c-0.2-0.1-0.5-0.3-0.6-0.5c-0.1-0.3-0.1-0.6,0-0.8c0.1-0.2,0.3-0.4,0.5-0.6
						c0.2-0.1,0.4-0.2,0.6-0.3c0.2-0.1,0.4,0,0.6,0c0.4,0.1,0.6,0.3,0.8,0.4C63.8,119.7,63.8,119.8,63.8,119.8z M63.8,119.8
						c0,0,0-0.1-0.2-0.2c-0.1-0.1-0.4-0.2-0.7-0.1c-0.1,0-0.3,0.1-0.5,0.1c-0.2,0.1-0.3,0.1-0.5,0.2c-0.3,0.2-0.6,0.5-0.5,0.9
						c0.1,0.3,0.5,0.5,0.9,0.5c0.2,0,0.4-0.1,0.6-0.1c0.2-0.1,0.3-0.1,0.5-0.2c0.3-0.2,0.4-0.5,0.4-0.7
						C63.8,119.9,63.8,119.8,63.8,119.8z"/>
				</g>
				<path fill="#005084" d="M63,121.1c0,0,0.2,0.2,0.3,0.5c0.1,0.1,0.1,0.3,0.1,0.4c0,0.1,0,0.2,0,0.2c0,0.1-0.1,0.2-0.2,0.2
					c-0.1,0-0.1,0-0.1-0.1c0,0-0.1-0.1-0.1-0.1c-0.1-0.1-0.1-0.2-0.2-0.4c-0.1-0.3-0.2-0.6-0.2-0.6c0-0.1,0.1-0.2,0.2-0.2
					C62.9,121,63,121,63,121.1z"/>
				<path fill="#005084" d="M61,122.8l0.4,0l0.4,0c0.2,0,0.5,0,0.7,0c0.2,0,0.4,0,0.6-0.2c0.1-0.2,0.2-0.5,0.1-0.7
					c0-0.1,0-0.1,0.1-0.1c0,0,0,0,0,0l0.1,0c0.4,0.1,0.9,0.1,1.2,0c0.1,0,0.2-0.1,0.3-0.1c0.1-0.1,0.2-0.1,0.2-0.2
					c0.2-0.1,0.3-0.3,0.4-0.5c0,0,0,0,0,0c0,0,0,0,0,0c0,0.1,0,0.3,0,0.4c0,0.1-0.1,0.3-0.1,0.4c-0.1,0.1-0.2,0.2-0.3,0.3
					c-0.1,0.1-0.2,0.2-0.4,0.2c-0.3,0.1-0.6,0.1-0.8,0c-0.3-0.1-0.5-0.2-0.7-0.3l0.2-0.1c0,0.3-0.1,0.5-0.2,0.8
					c-0.1,0.3-0.4,0.5-0.7,0.6c-0.3,0.1-0.6,0-0.8-0.1c-0.1,0-0.3-0.1-0.4-0.2c-0.1,0-0.1-0.1-0.2-0.1C61,122.9,61,122.9,61,122.8
					C60.9,122.8,60.9,122.8,61,122.8C60.9,122.8,60.9,122.8,61,122.8L61,122.8z"/>
				
					<ellipse transform="matrix(0.939 -0.3439 0.3439 0.939 -37.1959 27.8953)" fill="#005084" cx="60" cy="118.8" rx="0.5" ry="0.7"/>
				
					<ellipse transform="matrix(0.939 -0.3439 0.3439 0.939 -36.5794 28.9558)" fill="#005084" cx="63.3" cy="117.6" rx="0.5" ry="0.7"/>
				<g>
					<path fill="#FFFFFF" d="M57.2,117.8c0,0-0.4,1.6,0.4,3.3"/>
					<path fill="#005084" d="M57.4,117.9c0,0-0.1,0.2-0.1,0.5c0,0.3-0.1,0.7,0,1.1c0,0.8,0.3,1.7,0.3,1.7s-0.4-0.8-0.6-1.6
						c-0.1-0.4-0.1-0.9-0.1-1.2c0-0.3,0-0.6,0-0.6l0,0c0-0.1,0.1-0.2,0.3-0.2S57.4,117.7,57.4,117.9
						C57.4,117.9,57.4,117.9,57.4,117.9z"/>
				</g>
				<g>
					<path fill="#FFFFFF" d="M64.9,114.9c0,0,1.3,1,1.8,2.8"/>
					<path fill="#005084" d="M65,114.8c0,0,0.2,0.2,0.4,0.4c0.2,0.3,0.5,0.6,0.7,1c0.4,0.8,0.6,1.6,0.6,1.6s-0.3-0.8-0.8-1.5
						c-0.3-0.3-0.5-0.6-0.8-0.8c-0.2-0.2-0.4-0.3-0.4-0.3c-0.1-0.1-0.1-0.2-0.1-0.3S64.9,114.7,65,114.8C65,114.7,65,114.7,65,114.8
						L65,114.8z"/>
				</g>
			</g>
		</g>
	</g>
	<g opacity="0.5">
		<g>
			
				<rect x="226.3" y="63.4" transform="matrix(0.9755 0.22 -0.22 0.9755 22.3791 -51.7456)" fill="#FFFFFF" width="34.4" height="22.4"/>
			
				<rect x="229.6" y="66.7" transform="matrix(0.9755 0.22 -0.22 0.9755 22.3791 -51.7456)" fill="#C8D7E1" width="27.9" height="15.8"/>
		</g>
		<g>
			<path fill="#FFFFFF" d="M240.1,74.3l-7.6-1.7c0,0-0.7-1.8,0.7-2.5s2.1,0.7,2.1,0.7s0.5-3,2.8-2.4c2.9,0.7,1.9,3.1,1.9,3.1
				s2.3-0.1,2.1,1.9c0,0,0,0.7-0.6,1.3L240.1,74.3z"/>
			<path fill="#005084" d="M240,74.5c-1.3-0.2-2.6-0.5-3.8-0.8l-3.8-0.8l0,0c-0.1,0-0.2-0.1-0.2-0.2c-0.1-0.2-0.1-0.5-0.2-0.7
				c0-0.2,0-0.5,0-0.7c0-0.3,0.1-0.5,0.3-0.7c0.1-0.2,0.3-0.4,0.6-0.6c0.1-0.1,0.2-0.1,0.3-0.2c0.1,0,0.2-0.1,0.4-0.1
				c0.3-0.1,0.5-0.1,0.8,0c0.3,0.1,0.5,0.2,0.7,0.4c0.2,0.2,0.3,0.4,0.4,0.6l-0.5,0.1c0.1-0.4,0.2-0.7,0.4-1.1
				c0.2-0.3,0.4-0.7,0.6-1c0.1-0.1,0.3-0.3,0.5-0.4c0.2-0.1,0.4-0.2,0.6-0.2c0.2-0.1,0.4-0.1,0.6-0.1c0.2,0,0.4,0,0.6,0.1l0.5,0.1
				c0.2,0.1,0.4,0.1,0.5,0.2c0.2,0.1,0.3,0.2,0.5,0.3c0.2,0.1,0.3,0.3,0.4,0.4c0.1,0.2,0.2,0.4,0.3,0.5c0.1,0.2,0.1,0.4,0.1,0.6
				c0,0.4,0,0.8-0.2,1.1l-0.2-0.3c0.2,0,0.4,0,0.6,0c0.2,0,0.4,0.1,0.6,0.2c0.2,0.1,0.4,0.2,0.6,0.4c0.2,0.1,0.3,0.3,0.4,0.6
				c0.1,0.2,0.1,0.4,0.1,0.7c0,0.2,0,0.4-0.1,0.6c-0.1,0.4-0.3,0.8-0.6,1.1l0,0c0,0-0.1,0-0.1,0L240,74.5L240,74.5z M240.6,74.3
				l1,0.1l-0.1,0c0.2-0.3,0.4-0.6,0.5-1c0-0.2,0-0.3,0-0.5c0-0.2-0.1-0.3-0.1-0.5c-0.1-0.3-0.4-0.5-0.7-0.6
				c-0.3-0.1-0.7-0.2-1.1-0.2c-0.1,0-0.3-0.1-0.3-0.2c0,0,0-0.1,0-0.1c0.1-0.3,0.2-0.6,0.1-0.9c0-0.2,0-0.3-0.1-0.5
				c-0.1-0.1-0.1-0.3-0.2-0.4c-0.1-0.1-0.2-0.2-0.3-0.3c-0.1-0.1-0.3-0.2-0.4-0.3c-0.1-0.1-0.3-0.1-0.4-0.2l-0.5-0.1
				c-0.1,0-0.3-0.1-0.5,0c-0.2,0-0.3,0-0.5,0.1c-0.1,0-0.3,0.1-0.4,0.2c-0.1,0.1-0.2,0.2-0.4,0.3c-0.4,0.5-0.7,1.1-0.8,1.7
				c0,0.2-0.2,0.2-0.3,0.2c-0.1,0-0.2-0.1-0.2-0.2c-0.1-0.2-0.2-0.3-0.3-0.5c-0.1-0.1-0.3-0.2-0.5-0.3c-0.2-0.1-0.4,0-0.5,0
				c-0.1,0-0.2,0-0.3,0.1c-0.1,0-0.2,0.1-0.3,0.1c-0.3,0.2-0.5,0.5-0.6,0.9c-0.1,0.4,0,0.8,0.1,1.2l-0.2-0.2l3.8,0.9
				c1.3,0.3,2.5,0.6,3.8,0.9L240.6,74.3z"/>
		</g>
		<g>
			
				<ellipse transform="matrix(0.22 -0.9755 0.9755 0.22 122.661 303.9789)" fill="#FFFFFF" cx="251.4" cy="75.3" rx="3.9" ry="3.9"/>
			<path fill="#005084" d="M255.2,76.2c0,0,0,0.1-0.1,0.3c0,0.2-0.1,0.4-0.3,0.7c-0.2,0.3-0.4,0.7-0.7,1c-0.3,0.3-0.8,0.7-1.3,0.9
				c-0.6,0.2-1.2,0.3-1.9,0.3c-0.2,0-0.3-0.1-0.5-0.1c-0.2-0.1-0.3-0.1-0.5-0.2c-0.3-0.1-0.7-0.3-0.9-0.6c-0.6-0.5-1-1.1-1.3-1.8
				c-0.3-0.7-0.4-1.5-0.2-2.3c0.1-0.4,0.2-0.8,0.4-1.1c0.2-0.3,0.4-0.7,0.7-1c0.6-0.6,1.3-0.9,2-1.1c0.7-0.2,1.5-0.1,2.2,0.2
				c0.7,0.2,1.2,0.6,1.6,1.1c0.4,0.5,0.6,1,0.8,1.4c0.2,0.5,0.2,0.9,0.2,1.2c0,0.3,0,0.6-0.1,0.8C255.3,76.1,255.2,76.2,255.2,76.2z
				 M255.2,76.1c0,0,0-0.1,0-0.3c0-0.2,0-0.4,0-0.8c0-0.7-0.4-1.6-1.2-2.4c-0.4-0.4-0.9-0.7-1.5-0.9c-0.6-0.2-1.3-0.2-1.9-0.1
				c-0.7,0.1-1.3,0.4-1.8,0.9c-0.5,0.5-0.9,1.1-1.1,1.8c-0.1,0.3-0.1,0.7-0.1,1.1c0,0.4,0.1,0.7,0.2,1.1c0.3,0.7,0.7,1.3,1.3,1.7
				c0.3,0.2,0.6,0.3,0.9,0.4c0.1,0.1,0.3,0.1,0.5,0.1c0.1,0,0.3,0.1,0.5,0.1c0.6,0,1.2,0,1.7-0.2c1-0.3,1.7-1.1,2.1-1.6
				c0.2-0.3,0.3-0.5,0.3-0.7C255.2,76.2,255.2,76.1,255.2,76.1z"/>
		</g>
		<g>
			<path fill="#FFFFFF" d="M250.9,81.5l-10-2.2c0,0-0.9-2.4,0.9-3.3c1.9-0.9,2.7,1,2.7,1s0.7-3.9,3.7-3.2c3.8,0.9,2.5,4,2.5,4
				s3-0.2,2.8,2.4c0,0,0,1-0.8,1.7L250.9,81.5z"/>
			<path fill="#005084" d="M250.9,81.5c-0.8-0.2-1.7-0.4-2.5-0.5l-2.5-0.5c-0.8-0.2-1.7-0.3-2.5-0.5c-0.8-0.2-1.7-0.4-2.5-0.6l0,0
				c-0.1,0-0.1-0.1-0.1-0.1c-0.2-0.6-0.3-1.2-0.2-1.8c0.1-0.3,0.2-0.6,0.3-0.9c0.2-0.3,0.4-0.5,0.6-0.6c0.3-0.2,0.5-0.3,0.8-0.3
				c0.1,0,0.3-0.1,0.5-0.1c0.2,0,0.3,0,0.5,0.1c0.3,0.1,0.6,0.3,0.8,0.5c0.2,0.2,0.4,0.5,0.5,0.7l-0.2,0c0.2-0.9,0.5-1.8,1.2-2.6
				c0.2-0.2,0.3-0.3,0.6-0.5c0.2-0.1,0.4-0.2,0.7-0.3l0.4-0.1l0.4,0c0.3,0,0.5,0,0.7,0.1l0.7,0.2c0.2,0.1,0.5,0.2,0.7,0.3
				c0.2,0.1,0.4,0.2,0.6,0.4c0.2,0.2,0.4,0.4,0.5,0.6c0.1,0.2,0.2,0.4,0.3,0.7c0.1,0.2,0.1,0.5,0.1,0.7c0,0.5-0.1,1-0.2,1.5
				l-0.2-0.3c0.3,0,0.6,0,0.8,0.1c0.3,0,0.5,0.1,0.8,0.2c0.3,0.1,0.5,0.3,0.7,0.5c0.2,0.2,0.4,0.4,0.5,0.7c0.1,0.3,0.1,0.5,0.2,0.8
				c0,0.3,0,0.5-0.1,0.8c-0.1,0.5-0.4,1-0.8,1.4c0,0,0,0-0.1,0L250.9,81.5z M250.9,81.4l1.9,0.3l-0.1,0c0.3-0.4,0.6-0.8,0.6-1.3
				c0.1-0.2,0-0.5,0-0.7c0-0.2-0.1-0.5-0.2-0.7c-0.1-0.2-0.2-0.4-0.4-0.5c-0.2-0.2-0.4-0.3-0.6-0.3c-0.2-0.1-0.5-0.1-0.7-0.2
				c-0.2,0-0.5-0.1-0.7,0c-0.1,0-0.3-0.1-0.3-0.2c0,0,0-0.1,0-0.1l0,0c0.1-0.4,0.2-0.8,0.2-1.3c0-0.2-0.1-0.4-0.1-0.6
				c-0.1-0.2-0.2-0.4-0.3-0.6c-0.1-0.2-0.2-0.3-0.4-0.5c-0.1-0.1-0.3-0.3-0.5-0.4c-0.2-0.1-0.4-0.2-0.6-0.3l-0.7-0.2
				c-0.2,0-0.4-0.1-0.6-0.1l-0.3,0l-0.3,0.1c-0.2,0.1-0.4,0.1-0.6,0.2c-0.2,0.1-0.3,0.2-0.5,0.4c-0.6,0.6-1,1.5-1.2,2.4l0,0
				c0,0.1-0.1,0.1-0.1,0.1c0,0-0.1,0-0.1-0.1c-0.2-0.5-0.6-1-1.2-1.1c-0.1,0-0.3-0.1-0.4-0.1c-0.1,0-0.3,0-0.4,0
				c-0.3,0.1-0.5,0.2-0.8,0.3c-0.2,0.2-0.4,0.4-0.6,0.6c-0.2,0.2-0.2,0.5-0.3,0.8c-0.1,0.6,0.1,1.1,0.3,1.7l-0.1-0.1
				c0.8,0.2,1.7,0.3,2.5,0.5c0.8,0.2,1.7,0.4,2.5,0.6l2.5,0.7C249.2,81.1,250,81.2,250.9,81.4z"/>
		</g>
	</g>
	<g opacity="0.35">
		<g>
			<path fill="#C9EAF5" d="M227.2,34.1c0,0-4.4,4.5-9-1.2c-4.4-5.3-7.5-6.4-11.3-6c-2.9,0.2,12-9.8,20-0.3
				C226.8,26.6,230.3,30.7,227.2,34.1z"/>
			<path fill="#4F758E" d="M226.8,34.7C226.8,34.7,226.8,34.7,226.8,34.7c-0.3,0.3-0.8,0.6-1.6,1c-0.7,0.3-1.7,0.6-2.8,0.4
				c-1.1-0.1-2.3-0.7-3.2-1.6c-1-0.9-1.8-2.1-2.8-3.1c-1-1.1-2.2-2.1-3.5-2.9c-1.4-0.8-3-1.3-4.6-1.3c-0.4,0-0.8,0-1.3,0l-0.2,0
				c-0.1,0-0.1,0-0.2,0c-0.1,0-0.2,0-0.3-0.1c-0.1,0-0.1-0.1-0.1-0.2c0-0.1,0-0.1,0-0.2c0.1-0.4,0.3-0.5,0.5-0.6
				c0.7-0.6,1.4-1,2.2-1.4c1.6-0.8,3.2-1.4,4.9-1.8c1.7-0.4,3.4-0.6,5-0.4c1.6,0.1,3.2,0.5,4.6,1.2c1.4,0.7,2.5,1.6,3.3,2.6
				c0.9,1,1.5,2.1,1.7,3.2c0.3,1,0.3,2,0,2.8c-0.2,0.7-0.6,1.3-0.8,1.6c-0.3,0.3-0.4,0.5-0.4,0.5L226.8,34.7z M227.4,33.7
				C227.4,33.6,227.4,33.6,227.4,33.7c0.3-0.4,0.6-0.9,0.8-1.6c0.2-0.7,0.2-1.6-0.1-2.6c-0.3-1-0.8-2-1.7-3
				c-0.9-0.9-1.9-1.8-3.2-2.5c-1.3-0.7-2.8-1.1-4.4-1.2c-3.2-0.2-6.6,0.6-9.6,2.2c-0.7,0.4-1.5,0.8-2.1,1.4
				c-0.1,0.1-0.3,0.3-0.3,0.4c0,0,0-0.1,0-0.1c0,0,0,0,0,0c0,0,0.1,0,0.1,0l0.1,0c0.4,0,0.9,0,1.3,0c1.7,0,3.4,0.5,4.9,1.4
				c1.4,0.9,2.6,1.9,3.6,3c1,1.1,1.8,2.2,2.8,3.1c0.9,0.8,2,1.4,3,1.5c1,0.1,1.9-0.1,2.5-0.3c0.7-0.3,1.2-0.6,1.5-0.8
				c0.3-0.2,0.5-0.4,0.5-0.4L227.4,33.7z"/>
		</g>
		<g>
			<path fill="#C9EAF5" d="M215,26.1c0,0,11.1,2,15.4,9.3"/>
			<path fill="#4F758E" d="M215,26.1c0,0,1.1,0.2,2.8,0.7c0.8,0.2,1.8,0.5,2.8,0.9c0.5,0.2,1,0.4,1.5,0.6c0.5,0.2,1,0.5,1.6,0.8
				c0.5,0.3,1,0.6,1.5,0.9c0.5,0.3,1,0.6,1.4,1c0.4,0.4,0.9,0.6,1.2,1c0.3,0.4,0.7,0.7,1,1c0.3,0.3,0.5,0.7,0.7,0.9
				c0.2,0.3,0.4,0.6,0.5,0.8c0.2,0.4,0.4,0.7,0.4,0.7l0,0c0,0-0.2-0.2-0.5-0.6c-0.2-0.2-0.3-0.4-0.6-0.7c-0.2-0.3-0.5-0.5-0.8-0.8
				c-0.3-0.3-0.7-0.6-1-0.9c-0.3-0.3-0.8-0.6-1.2-1c-0.4-0.3-0.9-0.6-1.3-1c-0.5-0.3-1-0.6-1.4-0.9c-0.5-0.3-1-0.6-1.5-0.8
				c-0.5-0.2-1-0.5-1.5-0.7c-1-0.4-1.9-0.8-2.8-1C216.1,26.4,215,26.1,215,26.1L215,26.1z"/>
		</g>
		<g>
			<line fill="#C9EAF5" x1="222" y1="25.3" x2="223.2" y2="29"/>
			<path fill="#4F758E" d="M222,25.3c0,0,0.4,0.9,0.8,1.8c0.1,0.2,0.2,0.4,0.3,0.7c0.1,0.2,0.1,0.4,0.1,0.6c0,0.4,0,0.6,0,0.6l0,0
				c0,0-0.2-0.2-0.3-0.5c-0.1-0.2-0.2-0.4-0.2-0.6c-0.1-0.2-0.1-0.5-0.2-0.7C222.2,26.3,222,25.3,222,25.3L222,25.3z"/>
		</g>
		<g>
			<line fill="#C9EAF5" x1="217.5" y1="29.2" x2="220.4" y2="27.8"/>
			<path fill="#4F758E" d="M217.5,29.2c0,0,0.7-0.5,1.4-0.9c0.2-0.1,0.3-0.2,0.5-0.3c0.2-0.1,0.3-0.1,0.5-0.2
				c0.3-0.1,0.5-0.1,0.5-0.1l0,0c0,0-0.1,0.2-0.4,0.4c-0.1,0.1-0.3,0.2-0.4,0.3c-0.2,0.1-0.4,0.1-0.6,0.2
				C218.3,29,217.5,29.2,217.5,29.2L217.5,29.2z"/>
		</g>
		<g>
			<line fill="#C9EAF5" x1="221.1" y1="32.4" x2="225.4" y2="30.3"/>
			<path fill="#4F758E" d="M221.1,32.4c0,0,1-0.6,2.1-1.2c0.3-0.2,0.5-0.3,0.8-0.4c0.3-0.1,0.5-0.2,0.7-0.3c0.4-0.1,0.8-0.2,0.8-0.2
				l0,0c0,0-0.2,0.2-0.6,0.5c-0.2,0.1-0.4,0.3-0.7,0.4c-0.3,0.1-0.5,0.2-0.8,0.3C222.3,32,221.1,32.4,221.1,32.4L221.1,32.4z"/>
		</g>
	</g>
	<g opacity="0.35">
		<g>
			<path fill="#C9EAF5" d="M14.9,105.7c0,0,0.1-4.3-5-3.7c-4.7,0.5-6.7-0.5-8.4-2.5c-1.3-1.5,1.1,10.5,9.5,9.7
				C11.1,109.1,14.8,108.8,14.9,105.7z"/>
			<path fill="#4F758E" d="M14.8,106.1l0-0.4c0,0,0-0.1-0.1-0.4c0-0.3-0.1-0.6-0.3-1.1c-0.2-0.4-0.5-0.9-1.1-1.3
				c-0.5-0.4-1.3-0.7-2.1-0.7c-0.8-0.1-1.8,0.1-2.8,0.1c-1,0-2.1,0-3.2-0.3c-1.1-0.3-2.2-0.8-3.1-1.7c-0.2-0.2-0.4-0.4-0.6-0.6
				l-0.1-0.1c0,0-0.1-0.1-0.1-0.1c0,0,0,0,0,0c0.1,0,0.1,0,0.1-0.1c0,0,0,0.2,0,0.3c0,0.5,0.2,1.1,0.4,1.7c0.7,2.2,2,4.2,3.6,5.6
				c0.8,0.7,1.7,1.2,2.7,1.5c0.9,0.3,1.9,0.4,2.7,0.3c0.8,0,1.6-0.3,2.2-0.6c0.6-0.3,1-0.8,1.3-1.2
				C14.6,106.7,14.7,106.3,14.8,106.1z M15,105.1l0,0.6c0,0,0,0.1,0,0.4c0,0.3-0.1,0.7-0.4,1.2c-0.2,0.5-0.7,1-1.4,1.4
				c-0.6,0.4-1.5,0.7-2.4,0.7c-0.9,0.1-1.9,0-2.9-0.3c-1-0.3-2-0.9-2.8-1.6c-1.7-1.5-3-3.6-3.7-5.9c-0.2-0.6-0.3-1.1-0.4-1.8
				c0-0.2,0-0.3,0.1-0.6c0,0,0.1-0.1,0.1-0.1c0.1,0,0.1,0,0.2,0c0.1,0,0.2,0.1,0.2,0.1c0.1,0.1,0.1,0.1,0.1,0.1l0.1,0.1
				c0.2,0.2,0.4,0.4,0.6,0.6c0.8,0.8,1.8,1.3,2.8,1.6c1,0.2,2.1,0.3,3.1,0.3c1,0,1.9-0.2,2.9-0.1c0.9,0.1,1.8,0.3,2.4,0.8
				c0.6,0.5,1,1.1,1.2,1.6C14.9,104.4,15,104.8,15,105.1z"/>
		</g>
		<g>
			<path fill="#C9EAF5" d="M5.2,103.7c0,0,6.3,4.3,11.9,2.9"/>
			<path fill="#4F758E" d="M5.2,103.7c0,0,0.7,0.4,1.7,0.9c0.5,0.2,1.2,0.5,1.8,0.8c0.7,0.3,1.4,0.5,2.2,0.7
				c0.4,0.1,0.8,0.2,1.1,0.2c0.4,0,0.7,0.1,1.1,0.2c0.4,0,0.7,0.1,1,0.1c0.3,0,0.6,0.1,0.9,0c0.3,0,0.6,0,0.8,0c0.2,0,0.4,0,0.6-0.1
				c0.3,0,0.5,0,0.5,0l0,0c0,0-0.2,0.1-0.5,0.2c-0.2,0-0.4,0.1-0.6,0.2c-0.2,0-0.5,0.1-0.8,0.1c-0.3,0-0.6,0-1,0
				c-0.3,0-0.7,0-1.1-0.1c-0.4,0-0.7-0.1-1.1-0.2c-0.4-0.1-0.8-0.2-1.1-0.3c-0.8-0.2-1.5-0.5-2.2-0.8c-0.7-0.3-1.3-0.6-1.8-0.9
				C5.8,104.2,5.2,103.8,5.2,103.7L5.2,103.7z"/>
		</g>
		<g>
			<line fill="#C9EAF5" x1="8.2" y1="107.5" x2="10.5" y2="106.3"/>
			<path fill="#4F758E" d="M8.2,107.5c0,0,0.5-0.4,1.1-0.8c0.1-0.1,0.3-0.2,0.4-0.3c0.1-0.1,0.3-0.1,0.4-0.1c0.3-0.1,0.4,0,0.4,0
				l0,0c0,0-0.1,0.2-0.3,0.3c-0.1,0.1-0.2,0.2-0.3,0.2c-0.1,0.1-0.3,0.1-0.5,0.2C8.8,107.3,8.2,107.5,8.2,107.5L8.2,107.5z"/>
		</g>
		<g>
			<line fill="#C9EAF5" x1="7.9" y1="103.4" x2="8.6" y2="105.5"/>
			<path fill="#4F758E" d="M7.9,103.4c0,0,0.3,0.5,0.5,1c0.1,0.1,0.1,0.2,0.2,0.4c0,0.1,0.1,0.2,0.1,0.4c0,0.2,0,0.4,0,0.4l0,0
				c0,0-0.1-0.1-0.3-0.3c-0.1-0.1-0.1-0.2-0.2-0.3c0-0.1-0.1-0.3-0.1-0.4C7.9,104,7.8,103.4,7.9,103.4L7.9,103.4z"/>
		</g>
		<g>
			<line fill="#C9EAF5" x1="11.2" y1="103.6" x2="12.2" y2="106.7"/>
			<path fill="#4F758E" d="M11.2,103.6c0,0,0.4,0.7,0.7,1.5c0.1,0.2,0.2,0.4,0.3,0.5c0.1,0.2,0.1,0.4,0.1,0.5c0,0.3,0,0.5,0,0.5l0,0
				c0,0-0.2-0.2-0.3-0.4c-0.1-0.1-0.2-0.3-0.2-0.5c-0.1-0.2-0.1-0.4-0.1-0.6C11.3,104.4,11.1,103.6,11.2,103.6L11.2,103.6z"/>
		</g>
	</g>
	<g opacity="0.35">
		<g>
			<path fill="#C9EAF5" d="M135.7,94c0,0,0.1-5-5.8-4.4c-5.5,0.6-7.8-0.6-9.7-2.9c-1.5-1.8,1.3,12.2,11.1,11.3
				C131.3,98,135.5,97.7,135.7,94z"/>
			<path fill="#4F758E" d="M135.6,94.4l0-0.4c0,0,0-0.2-0.1-0.5c-0.1-0.3-0.2-0.8-0.4-1.3c-0.2-0.5-0.6-1.1-1.2-1.6
				c-0.6-0.5-1.5-0.8-2.5-0.8c-1-0.1-2.1,0.1-3.3,0.1c-1.2,0-2.5,0-3.7-0.3c-1.3-0.3-2.5-1-3.5-2c-0.2-0.2-0.5-0.5-0.7-0.8l-0.1-0.1
				c0,0-0.1-0.1-0.1-0.1c0,0,0,0,0,0c0,0,0.1,0,0.1-0.1c0,0,0,0.2,0,0.4c0,0.6,0.2,1.3,0.4,1.9c0.8,2.6,2.3,5,4.2,6.6
				c1,0.8,2,1.4,3.1,1.8c1.1,0.4,2.2,0.5,3.2,0.4c1,0,1.9-0.3,2.6-0.7c0.7-0.4,1.2-0.9,1.5-1.4C135.4,95.2,135.5,94.8,135.6,94.4
				C135.6,94.4,135.6,94.4,135.6,94.4z M135.8,93.4l-0.1,0.6c0,0,0,0.2,0,0.5c0,0.3-0.1,0.8-0.4,1.4c-0.3,0.6-0.8,1.1-1.6,1.6
				c-0.7,0.4-1.7,0.8-2.8,0.8c-1,0.1-2.2,0-3.4-0.4c-1.2-0.4-2.3-1-3.3-1.9c-2-1.7-3.5-4.2-4.3-6.8c-0.2-0.7-0.4-1.3-0.4-2.1
				c0-0.2,0-0.3,0.1-0.7c0,0,0.1-0.1,0.1-0.1c0.1,0,0.2,0,0.2,0c0.1,0,0.2,0.1,0.2,0.1c0.1,0.1,0.1,0.1,0.1,0.1l0.1,0.1
				c0.2,0.3,0.4,0.5,0.7,0.7c0.9,0.9,2.1,1.5,3.3,1.8c1.2,0.3,2.4,0.4,3.6,0.3c1.1,0,2.3-0.2,3.3-0.1c1.1,0.1,2,0.4,2.7,0.9
				c0.7,0.5,1.1,1.2,1.4,1.8C135.7,92.6,135.8,93,135.8,93.4z"/>
		</g>
		<g>
			<path fill="#C9EAF5" d="M124.4,91.7c0,0,7.9,5,14.3,3.3"/>
			<path fill="#4F758E" d="M124.4,91.7c0,0,0.8,0.5,2.1,1.1c0.6,0.3,1.4,0.6,2.2,0.9c0.4,0.2,0.8,0.3,1.3,0.4
				c0.4,0.1,0.9,0.3,1.3,0.4c0.5,0.1,0.9,0.2,1.4,0.3c0.5,0.1,0.9,0.2,1.3,0.2c0.4,0,0.8,0.1,1.2,0.1c0.4,0,0.8,0.1,1.1,0
				c0.3,0,0.7,0,1,0c0.3,0,0.5-0.1,0.7-0.1c0.4,0,0.6-0.1,0.6-0.1l0,0c0,0-0.2,0.1-0.6,0.2c-0.2,0.1-0.4,0.1-0.7,0.2
				c-0.3,0-0.6,0.1-1,0.1c-0.4,0-0.7,0-1.2,0c-0.4,0-0.8-0.1-1.3-0.1c-0.9-0.1-1.8-0.3-2.7-0.6c-0.5-0.2-0.9-0.3-1.3-0.4
				c-0.4-0.2-0.9-0.3-1.3-0.5c-0.8-0.3-1.6-0.7-2.2-1C125.2,92.2,124.4,91.7,124.4,91.7L124.4,91.7z"/>
		</g>
		<g>
			<line fill="#C9EAF5" x1="126" y1="94.6" x2="128" y2="93.6"/>
			<path fill="#4F758E" d="M126,94.5c0,0,0.4-0.3,0.9-0.6c0.1-0.1,0.2-0.2,0.3-0.2c0.1-0.1,0.2-0.1,0.3-0.1c0.2,0,0.4,0,0.4,0l0,0
				c0,0-0.1,0.2-0.2,0.3c-0.1,0.1-0.2,0.2-0.3,0.2c-0.1,0.1-0.3,0.1-0.4,0.1C126.6,94.4,126.1,94.6,126,94.5L126,94.5z"/>
		</g>
		<g>
			<line fill="#C9EAF5" x1="129.8" y1="91.7" x2="130.4" y2="94.5"/>
			<path fill="#4F758E" d="M129.8,91.7c0,0,0.3,0.7,0.5,1.3c0.1,0.2,0.1,0.3,0.2,0.5c0,0.2,0,0.3,0,0.5c0,0.3-0.1,0.5-0.1,0.5l0,0
				c0,0-0.1-0.1-0.3-0.4c-0.1-0.1-0.1-0.3-0.2-0.4c0-0.2,0-0.3-0.1-0.5C129.8,92.4,129.8,91.7,129.8,91.7L129.8,91.7z"/>
		</g>
		<g>
			<line fill="#C9EAF5" x1="130.1" y1="96.7" x2="132.6" y2="95.2"/>
			<path fill="#4F758E" d="M130.1,96.6c0,0,0.6-0.5,1.1-0.9c0.1-0.1,0.3-0.2,0.4-0.3c0.1-0.1,0.3-0.1,0.4-0.2
				c0.3-0.1,0.5-0.1,0.5-0.1l0,0c0,0-0.1,0.2-0.3,0.4c-0.1,0.1-0.2,0.2-0.4,0.3c-0.1,0.1-0.3,0.1-0.5,0.2
				C130.8,96.4,130.1,96.7,130.1,96.6L130.1,96.6z"/>
		</g>
	</g>
	<g opacity="0.35">
		<g>
			<path fill="#C9EAF5" d="M42.3,74.3c0,0-3.9,0.3-3.6-6.2C38.7,68.1,44.4,71,42.3,74.3z"/>
			<path fill="#4F758E" d="M42.3,74.3c-0.7,0-1.4-0.2-1.9-0.6c-0.1-0.1-0.3-0.2-0.4-0.3L39.7,73c-0.1-0.1-0.2-0.3-0.3-0.4
				c-0.1-0.1-0.2-0.3-0.2-0.5c-0.2-0.3-0.2-0.6-0.3-1l-0.1-0.5c0-0.2-0.1-0.3-0.1-0.5c0-0.3-0.1-0.7-0.1-1l0-1l0-0.3l0.3,0.1
				c0.6,0.3,1.2,0.7,1.7,1.1c0.3,0.2,0.5,0.4,0.8,0.7c0.2,0.2,0.5,0.5,0.7,0.8c0.1,0.1,0.2,0.3,0.3,0.4c0.1,0.2,0.2,0.3,0.3,0.5
				l0.2,0.5c0.1,0.2,0.1,0.4,0.1,0.5c0,0.2,0,0.4,0,0.5c0,0.2,0,0.3-0.1,0.5c-0.1,0.2-0.1,0.3-0.2,0.5L42.3,74.3L42.3,74.3z
				 M42.3,74.2l0.2-0.5c0.1-0.1,0.1-0.3,0.1-0.5c0-0.2,0.1-0.3,0-0.5c0-0.2,0-0.3-0.1-0.5c0-0.2-0.1-0.3-0.1-0.5l-0.2-0.4
				c-0.1-0.1-0.2-0.3-0.3-0.4c-0.1-0.1-0.2-0.3-0.3-0.4c-0.2-0.3-0.4-0.5-0.7-0.7c-0.2-0.2-0.5-0.4-0.7-0.6
				c-0.5-0.4-1.1-0.8-1.6-1.1l0.3-0.2l0,1c0,0.3,0,0.7,0,1c0,0.2,0,0.3,0.1,0.5l0.1,0.5c0.1,0.3,0.1,0.6,0.3,0.9
				c0.1,0.1,0.1,0.3,0.2,0.5c0.1,0.1,0.2,0.3,0.2,0.4l0.3,0.4c0.1,0.1,0.2,0.2,0.4,0.3C41,74,41.6,74.2,42.3,74.2z"/>
		</g>
		<g>
			<path fill="#C9EAF5" d="M42.7,74.1c0,0-2.2-3.3,3.7-6.2C46.4,68,46.6,74.3,42.7,74.1z"/>
			<path fill="#4F758E" d="M42.7,74.1c-0.4-0.6-0.5-1.3-0.4-2c0-0.2,0.1-0.3,0.1-0.5l0.2-0.5c0.1-0.2,0.2-0.3,0.2-0.5
				c0.1-0.2,0.2-0.3,0.3-0.4c0.2-0.3,0.5-0.5,0.7-0.8l0.4-0.3c0.1-0.1,0.3-0.2,0.4-0.3c0.3-0.2,0.6-0.4,0.9-0.6l0.9-0.5l0.3-0.2
				l0,0.3c0,0.7,0,1.4-0.1,2c-0.1,0.3-0.1,0.7-0.2,1c-0.1,0.3-0.2,0.7-0.3,1c-0.1,0.2-0.1,0.3-0.2,0.5c-0.1,0.1-0.2,0.3-0.3,0.4
				l-0.3,0.4c-0.1,0.1-0.3,0.2-0.4,0.3c-0.1,0.1-0.3,0.2-0.5,0.3c-0.2,0.1-0.3,0.1-0.5,0.2c-0.2,0-0.3,0.1-0.5,0.1L42.7,74.1
				L42.7,74.1z M42.7,74.1l0.5-0.1c0.2,0,0.3-0.1,0.5-0.1c0.2-0.1,0.3-0.1,0.4-0.2c0.1-0.1,0.3-0.2,0.4-0.3c0.1-0.1,0.2-0.2,0.3-0.3
				l0.3-0.4c0.1-0.1,0.2-0.3,0.2-0.4c0.1-0.1,0.1-0.3,0.2-0.4c0.1-0.3,0.2-0.6,0.3-0.9c0.1-0.3,0.2-0.6,0.2-1c0.1-0.6,0.2-1.3,0.2-2
				l0.3,0.2l-0.9,0.5c-0.3,0.2-0.6,0.3-0.8,0.5c-0.1,0.1-0.3,0.2-0.4,0.3L44,69.7c-0.2,0.2-0.5,0.4-0.7,0.7
				c-0.1,0.1-0.2,0.2-0.3,0.4c-0.1,0.1-0.2,0.3-0.2,0.4l-0.2,0.5c0,0.2-0.1,0.3-0.1,0.5C42.3,72.8,42.4,73.5,42.7,74.1z"/>
		</g>
		<g>
			<path fill="#C9EAF5" d="M42.1,74.5c0,0-2.2-3.3-7.1,1C35,75.6,40.8,78.2,42.1,74.5z"/>
			<path fill="#4F758E" d="M42.1,74.5c-0.4-0.5-1-0.9-1.6-1c-0.2,0-0.3,0-0.5-0.1l-0.5,0c-0.2,0-0.3,0-0.5,0.1
				c-0.2,0-0.3,0.1-0.5,0.1c-0.3,0.1-0.6,0.2-0.9,0.4l-0.4,0.2c-0.1,0.1-0.3,0.2-0.4,0.3c-0.3,0.2-0.5,0.4-0.8,0.6l-0.8,0.6l0-0.3
				c0.6,0.2,1.2,0.4,1.9,0.6c0.3,0.1,0.6,0.1,1,0.2c0.3,0,0.6,0.1,1,0.1c0.2,0,0.3,0,0.5,0c0.2,0,0.3,0,0.5,0l0.5-0.1
				c0.1,0,0.3-0.1,0.4-0.2c0.2,0,0.3-0.2,0.4-0.2c0.1-0.1,0.2-0.2,0.4-0.3c0.1-0.1,0.2-0.2,0.3-0.4L42.1,74.5z M42.1,74.5L41.9,75
				c0,0.2-0.2,0.3-0.3,0.4c-0.1,0.1-0.2,0.3-0.3,0.4c-0.1,0.1-0.3,0.3-0.4,0.3c-0.2,0.1-0.3,0.2-0.5,0.2l-0.5,0.2
				c-0.2,0-0.3,0.1-0.5,0.1c-0.2,0-0.3,0-0.5,0c-0.3,0-0.7,0-1-0.1c-0.3,0-0.7-0.1-1-0.2c-0.7-0.2-1.3-0.4-1.9-0.7l-0.3-0.1l0.2-0.2
				l0.8-0.6c0.3-0.2,0.6-0.4,0.9-0.6c0.1-0.1,0.3-0.2,0.5-0.2l0.5-0.2c0.3-0.1,0.6-0.3,1-0.3c0.2,0,0.3-0.1,0.5-0.1
				c0.2,0,0.3,0,0.5,0l0.5,0c0.2,0,0.3,0.1,0.5,0.1C41.1,73.6,41.7,74,42.1,74.5L42.1,74.5z"/>
		</g>
		<g>
			<path fill="#C9EAF5" d="M42.3,74.3c0,0,3.4,2.1-0.8,7.1C41.5,81.4,38.7,75.7,42.3,74.3z"/>
			<path fill="#4F758E" d="M42.3,74.2c0.6,0.4,1,1,1.2,1.6c0.1,0.2,0.1,0.3,0.1,0.5l0,0.5c0,0.2,0,0.3,0,0.5c0,0.2-0.1,0.3-0.1,0.5
				c-0.1,0.3-0.2,0.7-0.3,1L43,79.4c-0.1,0.2-0.1,0.3-0.2,0.5c-0.2,0.3-0.3,0.6-0.5,0.9l-0.6,0.8l-0.2,0.3l-0.1-0.3
				c-0.3-0.6-0.6-1.2-0.8-1.9c-0.1-0.3-0.2-0.7-0.2-1c-0.1-0.3-0.1-0.7-0.1-1c0-0.2,0-0.3,0-0.5c0-0.2,0-0.3,0.1-0.5l0.1-0.5
				c0.1-0.2,0.2-0.3,0.2-0.5c0.1-0.2,0.2-0.3,0.3-0.4c0.1-0.1,0.2-0.3,0.4-0.4c0.1-0.1,0.3-0.2,0.4-0.3L42.3,74.2L42.3,74.2z
				 M42.3,74.3l-0.4,0.3c-0.1,0.1-0.3,0.2-0.4,0.3c-0.1,0.1-0.2,0.2-0.3,0.4c-0.1,0.1-0.2,0.3-0.2,0.4c0,0.2-0.1,0.3-0.2,0.4
				l-0.1,0.5c0,0.2,0,0.3,0,0.5c0,0.2,0,0.3,0,0.5c0,0.3,0.1,0.6,0.1,1c0.1,0.3,0.1,0.6,0.2,1c0.2,0.6,0.4,1.3,0.6,1.9l-0.3,0
				l0.6-0.8c0.2-0.3,0.4-0.6,0.6-0.8c0.1-0.1,0.2-0.3,0.2-0.4l0.2-0.4c0.1-0.3,0.3-0.6,0.3-0.9c0-0.2,0.1-0.3,0.1-0.5
				c0-0.2,0-0.3,0.1-0.5l0-0.5c0-0.2,0-0.3-0.1-0.5C43.2,75.3,42.8,74.7,42.3,74.3z"/>
		</g>
		<g>
			<path fill="#C9EAF5" d="M42.3,74.2c0,0,0.6,3.9,6.9,2C49.2,76.3,45,71.5,42.3,74.2z"/>
			<path fill="#4F758E" d="M42.3,74.2c0.2,0.6,0.6,1.2,1.1,1.6c0.1,0.1,0.3,0.2,0.4,0.3l0.4,0.2c0.2,0.1,0.3,0.1,0.5,0.1
				c0.2,0.1,0.3,0.1,0.5,0.1c0.3,0.1,0.7,0,1,0.1l0.5,0c0.2,0,0.3,0,0.5-0.1c0.3-0.1,0.7-0.1,1-0.2l1-0.3L49,76.4
				c-0.4-0.5-0.9-0.9-1.5-1.3c-0.3-0.2-0.5-0.4-0.8-0.6c-0.3-0.2-0.6-0.3-0.8-0.5c-0.1-0.1-0.3-0.2-0.4-0.2
				c-0.2-0.1-0.3-0.1-0.5-0.2l-0.5-0.1c-0.2,0-0.3,0-0.5,0c-0.2,0-0.3,0-0.5,0.1c-0.2,0-0.3,0.1-0.5,0.1c-0.1,0.1-0.3,0.1-0.4,0.2
				L42.3,74.2z M42.3,74.2l0.4-0.4c0.1-0.1,0.3-0.2,0.4-0.3c0.2-0.1,0.3-0.2,0.5-0.2c0.2,0,0.3-0.1,0.5-0.1c0.2,0,0.4,0,0.5,0
				l0.5,0.1c0.2,0,0.3,0.1,0.5,0.1c0.2,0,0.3,0.1,0.5,0.2c0.3,0.1,0.6,0.3,0.9,0.5c0.3,0.2,0.6,0.4,0.8,0.6c0.5,0.4,1,0.9,1.5,1.4
				l0.2,0.2l-0.3,0.1l-1,0.2c-0.3,0.1-0.7,0.1-1,0.2c-0.2,0-0.3,0-0.5,0l-0.5,0c-0.3,0-0.7,0-1-0.1c-0.2,0-0.3-0.1-0.5-0.1
				c-0.2-0.1-0.3-0.1-0.5-0.2l-0.5-0.2c-0.1-0.1-0.3-0.2-0.4-0.3C42.8,75.5,42.4,74.9,42.3,74.2L42.3,74.2z"/>
		</g>
		
			<ellipse transform="matrix(0.3172 -0.9483 0.9483 0.3172 -41.4419 90.3964)" fill="#005184" cx="42.1" cy="74" rx="1.2" ry="1.2"/>
	</g>
	<g opacity="0.35">
		<g>
			<path fill="#C9EAF5" d="M15.6,138.3c0,0,1.8-2.7,5.8,0.7C21.4,139.1,16.7,141.3,15.6,138.3z"/>
			<path fill="#4F758E" d="M15.5,138.3c0.3-0.5,0.8-0.8,1.3-1c0.3-0.1,0.6-0.1,0.8-0.1c0.1,0,0.3,0,0.4,0c0.1,0,0.3,0.1,0.4,0.1
				c0.3,0,0.5,0.2,0.8,0.3c0.3,0.1,0.5,0.2,0.8,0.4c0.2,0.2,0.5,0.3,0.7,0.5l0.7,0.5l0,0l0.3,0.2l-0.3,0.2c-0.5,0.3-1,0.5-1.6,0.6
				c-0.3,0.1-0.6,0.1-0.8,0.2c-0.3,0-0.6,0.1-0.9,0.1c-0.1,0-0.3,0-0.4,0c-0.1,0-0.3,0-0.4-0.1l-0.4-0.1c-0.1-0.1-0.3-0.1-0.4-0.2
				c-0.1-0.1-0.2-0.2-0.3-0.3c-0.1-0.1-0.2-0.2-0.3-0.3c-0.1-0.1-0.2-0.2-0.2-0.4L15.5,138.3L15.5,138.3z M15.6,138.3l0.2,0.3
				c0.1,0.1,0.2,0.2,0.3,0.3c0.1,0.1,0.2,0.2,0.3,0.2c0.1,0.1,0.2,0.2,0.3,0.2c0.1,0,0.2,0.1,0.4,0.1l0.4,0.1c0.1,0,0.3,0,0.4,0
				c0.1,0,0.3,0,0.4,0c0.5,0,1-0.1,1.6-0.2c0.5-0.1,1-0.3,1.5-0.5l0,0.3l0,0l-0.6-0.5c-0.2-0.2-0.4-0.3-0.7-0.5
				c-0.2-0.1-0.5-0.3-0.7-0.4c-0.3-0.1-0.5-0.2-0.8-0.3c-0.1,0-0.3-0.1-0.4-0.1c-0.1,0-0.3,0-0.4-0.1c-0.3,0-0.5,0-0.8,0.1
				C16.4,137.6,15.9,137.9,15.6,138.3z"/>
		</g>
		<g>
			<path fill="#C9EAF5" d="M15.5,138.7c0,0,3.2,0.2,2.2,5.5C17.6,144.1,13.4,141.1,15.5,138.7z"/>
			<path fill="#4F758E" d="M15.5,138.6c0.6,0.1,1.1,0.3,1.5,0.7c0.2,0.2,0.4,0.4,0.5,0.7c0.1,0.1,0.1,0.3,0.2,0.4
				c0.1,0.1,0.1,0.3,0.1,0.4c0.1,0.3,0.1,0.6,0.2,0.8c0,0.3,0,0.6,0,0.8c0,0.3,0,0.6-0.1,0.8l-0.1,0.8l0,0l0,0.3l-0.3-0.2
				c-0.5-0.3-0.9-0.7-1.3-1.1c-0.2-0.2-0.4-0.4-0.6-0.6c-0.2-0.2-0.3-0.5-0.5-0.7c-0.1-0.1-0.1-0.3-0.2-0.4
				c-0.1-0.1-0.1-0.3-0.2-0.4l-0.1-0.4c0-0.1,0-0.3,0-0.4c0-0.1,0-0.3,0.1-0.4c0-0.1,0.1-0.3,0.1-0.4c0.1-0.1,0.1-0.3,0.2-0.4
				L15.5,138.6L15.5,138.6z M15.5,138.7l-0.2,0.3c-0.1,0.1-0.1,0.2-0.1,0.4c0,0.1-0.1,0.2-0.1,0.4c0,0.1,0,0.3,0,0.4
				c0,0.1,0,0.3,0.1,0.4l0.1,0.4c0,0.1,0.1,0.2,0.2,0.4c0,0.1,0.1,0.2,0.2,0.3c0.3,0.4,0.6,0.9,1,1.2c0.4,0.4,0.8,0.8,1.2,1.1
				l-0.3,0.1l0,0l0.1-0.8c0-0.3,0.1-0.5,0.1-0.8c0-0.3,0-0.5,0-0.8c0-0.3,0-0.5-0.1-0.8c0-0.1,0-0.3-0.1-0.4
				c-0.1-0.1-0.1-0.3-0.1-0.4c-0.1-0.2-0.3-0.5-0.4-0.7C16.5,139.1,16,138.8,15.5,138.7z"/>
		</g>
		<g>
			<path fill="#C9EAF5" d="M15.5,138c0,0,3.2,0.2,2.9-5.1C18.4,132.9,13.8,135.4,15.5,138z"/>
			<path fill="#4F758E" d="M15.5,138c0.5,0,1.1-0.2,1.5-0.6c0.2-0.2,0.4-0.4,0.5-0.6c0.1-0.1,0.1-0.2,0.2-0.3
				c0.1-0.1,0.1-0.2,0.2-0.4c0.1-0.2,0.1-0.5,0.2-0.8c0-0.3,0.1-0.5,0.1-0.8c0-0.3,0-0.5,0-0.8l0-0.8l0,0l0.3,0.2
				c-0.4,0.3-0.9,0.6-1.3,1c-0.4,0.3-0.8,0.7-1.1,1.1c-0.1,0.1-0.2,0.2-0.2,0.3c-0.1,0.1-0.1,0.2-0.2,0.3l-0.2,0.3
				c0,0.1-0.1,0.2-0.1,0.4c-0.1,0.1,0,0.3,0,0.4c0,0.1,0,0.3,0,0.4c0,0.1,0,0.3,0.1,0.4L15.5,138z M15.5,138.1l-0.2-0.4
				c-0.1-0.1-0.1-0.3-0.2-0.4c0-0.1-0.1-0.3-0.1-0.4c0-0.1,0-0.3,0-0.4c0-0.1,0-0.3,0.1-0.4l0.1-0.4c0.1-0.1,0.1-0.3,0.2-0.4
				c0.1-0.1,0.2-0.2,0.2-0.4c0.2-0.2,0.4-0.4,0.6-0.6c0.2-0.2,0.4-0.4,0.6-0.6c0.4-0.3,0.9-0.7,1.4-0.9l0.3-0.1v0.3l0,0l0,0.8
				c0,0.3,0,0.6-0.1,0.8c0,0.3-0.1,0.6-0.1,0.8c-0.1,0.3-0.1,0.5-0.3,0.8c-0.1,0.1-0.1,0.3-0.2,0.4c-0.1,0.1-0.1,0.2-0.2,0.4
				c-0.2,0.2-0.4,0.4-0.6,0.6C16.6,137.9,16.1,138.1,15.5,138.1L15.5,138.1z"/>
		</g>
		<g>
			<path fill="#C9EAF5" d="M15.6,138.3c0,0-3,1.1-4.3-4.1C11.3,134.2,16.4,135.2,15.6,138.3z"/>
			<path fill="#4F758E" d="M15.6,138.3c-0.5,0.2-1.1,0.2-1.7,0c-0.3-0.1-0.5-0.2-0.8-0.4c-0.1-0.1-0.2-0.2-0.3-0.3
				c-0.1-0.1-0.2-0.2-0.3-0.3c-0.2-0.2-0.3-0.5-0.5-0.7c-0.1-0.2-0.3-0.5-0.4-0.8c-0.1-0.3-0.2-0.5-0.3-0.8l-0.2-0.8l0,0L11,134
				l0.3,0c0.6,0.1,1.1,0.2,1.6,0.4c0.3,0.1,0.5,0.2,0.8,0.4c0.2,0.1,0.5,0.3,0.7,0.5c0.1,0.1,0.2,0.2,0.3,0.3
				c0.1,0.1,0.2,0.2,0.3,0.3l0.3,0.4c0.1,0.1,0.1,0.3,0.2,0.4c0.1,0.1,0.1,0.3,0.1,0.4c0,0.1,0,0.3,0,0.4c0,0.1,0,0.3,0,0.4
				L15.6,138.3L15.6,138.3z M15.6,138.3l0-0.4c0-0.1,0-0.3,0-0.4c0-0.1,0-0.3-0.1-0.4c-0.1-0.1-0.1-0.2-0.2-0.3
				c-0.1-0.1-0.1-0.2-0.2-0.3l-0.3-0.3c-0.1-0.1-0.2-0.2-0.3-0.3c-0.1-0.1-0.2-0.1-0.3-0.2c-0.4-0.3-0.9-0.5-1.4-0.7
				c-0.5-0.2-1-0.4-1.5-0.5l0.2-0.2l0,0l0.2,0.8c0.1,0.3,0.2,0.5,0.3,0.8c0.1,0.3,0.2,0.5,0.3,0.7c0.1,0.2,0.3,0.5,0.4,0.7
				c0.1,0.1,0.2,0.2,0.3,0.3c0.1,0.1,0.2,0.2,0.3,0.3c0.2,0.2,0.4,0.3,0.7,0.4C14.5,138.4,15,138.4,15.6,138.3z"/>
		</g>
		<g>
			<path fill="#C9EAF5" d="M15.6,138.3c0,0-2.9-1.5-4.7,3.5C10.8,141.8,16,141.5,15.6,138.3z"/>
			<path fill="#4F758E" d="M15.6,138.4c-0.5-0.2-1.1-0.2-1.6-0.1c-0.3,0.1-0.5,0.2-0.7,0.3c-0.1,0.1-0.2,0.2-0.3,0.2
				c-0.1,0.1-0.2,0.2-0.3,0.3c-0.2,0.2-0.3,0.4-0.5,0.6c-0.1,0.2-0.3,0.5-0.4,0.7c-0.1,0.2-0.2,0.5-0.4,0.7l-0.3,0.8l0,0l-0.2-0.3
				c0.5-0.1,1.1-0.2,1.6-0.3c0.5-0.1,1-0.3,1.5-0.5c0.1-0.1,0.2-0.1,0.3-0.2c0.1-0.1,0.2-0.1,0.3-0.2l0.3-0.3
				c0.1-0.1,0.2-0.2,0.2-0.3c0.1-0.1,0.1-0.2,0.2-0.3c0.1-0.1,0.1-0.2,0.1-0.4c0-0.1,0.1-0.3,0.1-0.4L15.6,138.4z M15.6,138.3
				l0.1,0.4c0,0.1,0,0.3,0,0.4c0,0.1,0,0.3-0.1,0.4c-0.1,0.1-0.1,0.3-0.2,0.4c-0.1,0.1-0.2,0.3-0.2,0.4l-0.3,0.3
				c-0.1,0.1-0.2,0.2-0.3,0.3c-0.1,0.1-0.2,0.2-0.4,0.2c-0.3,0.1-0.5,0.3-0.8,0.4c-0.3,0.1-0.5,0.2-0.8,0.3
				c-0.6,0.1-1.1,0.2-1.7,0.2l-0.3,0l0.1-0.3l0,0L11,141c0.1-0.3,0.3-0.5,0.4-0.7c0.1-0.2,0.3-0.5,0.5-0.7c0.2-0.2,0.4-0.4,0.6-0.6
				c0.1-0.1,0.2-0.2,0.3-0.3c0.1-0.1,0.2-0.2,0.4-0.2c0.3-0.1,0.5-0.2,0.8-0.3C14.5,138,15.1,138.1,15.6,138.3L15.6,138.3z"/>
		</g>
		
			<ellipse transform="matrix(0.8273 -0.5618 0.5618 0.8273 -74.9477 32.7967)" fill="#005084" cx="15.9" cy="138.3" rx="0.9" ry="0.9"/>
	</g>
	<g>
		<path fill="#1785BE" d="M120,155.3l-23.7,0.1l35.7-37.2c0,0,11.7-13.9,23.3-0.9L120,155.3z"/>
		<path fill="#005084" d="M149.8,17.1c0,0-3.1,14.3,2.5,23.7l6.3-1.2l-5.8-17.7L149.8,17.1z"/>
		<path fill="#82D4F1" d="M163.4,131c0,0,30.1,8.1,48.4,1.6c0,0-2.5-10.6-2.7-37.7l5.8-0.1c-0.5-44.7-30.8-45.5-30.8-45.5L164,62
			c-15.3,10.4-14.4,32.7-14.4,32.7l13.7-0.3c0,0-0.4,0.7,1.6,3.6C167,100.9,167.4,115.8,163.4,131z"/>
		<path fill="#C8D7E1" d="M183.3,41c3.5-5.5,3.6-13.3-0.3-20.2c-5.3-9.2-16-13-23.9-8.5c-7.9,4.5-9.9,15.7-4.6,24.9
			c4.1,7.1,11.4,11,18.1,10.3c-0.4,6.5-3.1,14.4-3.1,14.4l11,6.3l9.9-18.7C187.1,48.7,184.7,44.4,183.3,41z"/>
		
			<ellipse transform="matrix(0.9441 -0.3297 0.3297 0.9441 -2.1601 52.8286)" fill="#005084" cx="154.7" cy="32.8" rx="1" ry="1.6"/>
		
			<ellipse transform="matrix(0.9441 -0.3297 0.3297 0.9441 -1.0358 55.6788)" fill="#005084" cx="163.6" cy="30.9" rx="1" ry="1.6"/>
		<path fill="#FFFFFF" d="M169,59.9c1,0.7,1.8,1.6,2.6,2.5l2.5,2.6l5,5.3l-1.1,0.1c1.7-3.1,3.4-6.2,5.2-9.2c1.8-3,3.4-6.2,5.5-9
			c0.1-0.1,0.2-0.1,0.3,0c0.1,0.1,0.1,0.2,0.1,0.2c-1.3,3.3-3.1,6.3-4.7,9.4c-1.7,3.1-3.4,6.2-5.1,9.2l0,0c-0.2,0.3-0.6,0.4-0.9,0.3
			c-0.1,0-0.1-0.1-0.2-0.1l-4.9-5.3l-2.5-2.7c-0.8-0.9-1.7-1.8-2.3-2.8c-0.1-0.2-0.1-0.5,0.1-0.6C168.6,59.8,168.8,59.8,169,59.9z"
			/>
		<path fill="#005084" d="M149.5,26.1c0,0-2.9-18,12.1-23.6c15.1-5.6,25.6,8.5,27,18.2c2.1,14.8,7.8,20.9,14.8,25.3
			c7.1,4.4,3.2,16.6,3.2,16.6s-3.6-4.6-15-8.9c-0.6-0.2-3.1-1.3-4.2-2.2c-4.9-4.1-6.9-7.4-7-16.6c0,0,3.7-2.4,2.4-7.7
			c0,0-12.7,8.3-26.7-10.7C156.1,16.4,155.3,22.2,149.5,26.1z"/>
		<path fill="#005084" d="M155.4,28.6c0,0-0.1,0.1-0.2,0.1c-0.1,0-0.3,0-0.5,0c-0.2,0-0.4,0-0.7,0.1c-0.3,0-0.5,0.1-0.8,0.2
			c-0.2,0.1-0.5,0.2-0.7,0.3c-0.2,0.1-0.4,0.3-0.5,0.4c-0.2,0.1-0.3,0.2-0.4,0.3c-0.1,0.1-0.2,0.1-0.2,0.1l0,0c-0.1,0-0.2,0-0.3-0.1
			c0,0,0,0,0,0c0,0,0-0.1,0-0.3c0-0.2,0.1-0.4,0.2-0.6c0.1-0.1,0.2-0.2,0.3-0.3c0.1-0.1,0.2-0.2,0.4-0.3c0.3-0.2,0.6-0.4,0.9-0.5
			c0.6-0.3,1.3-0.3,1.8-0.3c0.2,0,0.5,0,0.6,0.1c0.1,0.1,0.2,0.2,0.2,0.2C155.6,28.1,155.6,28.4,155.4,28.6L155.4,28.6z"/>
		<path fill="#005084" d="M159.4,33.6c0,0,0.2,0.3,0.4,0.7c0.2,0.4,0.5,1,0.7,1.5c0.2,0.6,0.5,1.1,0.6,1.6c0.1,0.4,0.2,0.7,0.2,0.7
			c0,0.2-0.1,0.4-0.3,0.4c-0.1,0-0.3,0-0.3-0.1c0,0-0.2-0.3-0.4-0.7c-0.2-0.4-0.5-1-0.7-1.5c-0.2-0.6-0.4-1.1-0.6-1.6
			c-0.1-0.4-0.2-0.7-0.2-0.7c0-0.2,0.1-0.4,0.2-0.4C159.1,33.4,159.3,33.5,159.4,33.6z"/>
		<path fill="#005084" d="M159.4,26.7c0,0,0-0.2,0.1-0.3c0.1-0.1,0.3-0.3,0.6-0.4c0.5-0.3,1.2-0.6,1.9-0.6c0.4,0,0.7,0,1.1,0
			c0.3,0,0.6,0.1,0.9,0.2c0.3,0.1,0.4,0.2,0.6,0.3c0.1,0.1,0.2,0.2,0.2,0.2c0.1,0.1,0.1,0.2,0,0.3c0,0,0,0-0.1,0l0,0
			c0,0-0.1,0-0.3,0.1c-0.2,0-0.4,0-0.6,0c-0.2,0-0.5-0.1-0.8-0.1c-0.3,0-0.6,0-0.9,0c-0.3,0-0.6,0.1-0.9,0.2
			c-0.3,0.1-0.5,0.2-0.7,0.3c-0.2,0.1-0.3,0.2-0.5,0.3c-0.1,0-0.2,0-0.2,0c-0.1,0.1-0.3,0.1-0.5,0S159.3,26.8,159.4,26.7z"/>
		<g>
			<path fill="#87A6BC" d="M119.1,38.6c-0.1-0.3,0-0.4,0.3-0.4l22.7,5.2c0.3,0.1,0.7,0,0.9-0.2l3.8-3.2c0.2-0.2,0.6-0.4,0.9-0.4
				l24.8-5.2c0.3-0.1,0.6,0.1,0.7,0.4l14.2,35.4c0.1,0.3,0,0.5-0.3,0.6l-23.5,3c-0.3,0-0.7,0.2-0.9,0.5l-3.1,3.3
				c-0.2,0.2-0.6,0.4-0.9,0.3L135.3,74c-0.3,0-0.6-0.3-0.7-0.6L119.1,38.6z"/>
			<path fill="#005084" d="M156.7,74.9c-0.8-1.2-1.3-2.5-2-3.8l-1.8-3.9l-3.6-7.8l-3.6-7.8l-1.8-3.9c-0.3-0.7-0.6-1.3-0.9-2
				c-0.3-0.7-0.6-1.3-0.9-2l0,0c-0.1-0.2,0-0.3,0.1-0.5c1-0.8,2-1.6,3.1-2.3c0.1-0.1,0.2,0,0.2,0c0,0.1,0,0.2,0,0.2
				c-0.9,0.9-1.8,1.8-2.8,2.7l0.1-0.5c0.3,0.6,0.6,1.3,1,1.9c0.3,0.6,0.6,1.3,0.9,1.9l1.8,3.9l3.6,7.8l3.6,7.8l1.8,3.9
				c0.6,1.3,1.2,2.6,1.6,4c0.1,0.2,0,0.4-0.2,0.4C156.9,75.1,156.8,75,156.7,74.9z"/>
			<path fill="#005084" d="M161.6,71.2c0,0-0.3-0.4-0.7-1.1c-0.4-0.7-1-1.7-1.6-3c-0.3-0.6-0.7-1.3-1-2.1c-0.3-0.7-0.6-1.5-0.9-2.4
				c-0.3-0.8-0.7-1.7-1-2.5c-0.4-0.8-0.8-1.7-1.3-2.5c-0.5-0.8-0.9-1.6-1.3-2.5c-0.4-0.8-0.8-1.6-1.2-2.4c-0.8-1.6-1.4-3.1-2-4.4
				c-0.5-1.3-0.9-2.4-1.2-3.2c-0.3-0.8-0.4-1.2-0.4-1.2c0,0,0-0.1,0-0.1c0,0,0,0,0.1,0c0,0,0.3,0.4,0.7,1.1c0.4,0.7,1,1.7,1.7,3
				c0.7,1.2,1.4,2.7,2.1,4.3c0.4,0.8,0.7,1.6,1.1,2.5c0.4,0.9,0.7,1.7,1,2.6c0.3,0.9,0.7,1.8,1.1,2.6c0.4,0.8,0.8,1.6,1.3,2.4
				c0.4,0.8,0.9,1.5,1.2,2.2c0.4,0.7,0.7,1.4,1,2.1c0.6,1.3,1,2.4,1.3,3.2C161.6,70.7,161.7,71.2,161.6,71.2
				C161.7,71.2,161.7,71.2,161.6,71.2C161.7,71.2,161.7,71.2,161.6,71.2z"/>
			<path fill="#005084" d="M157.8,47.7c0.4,0.8,0.9,1.7,1.3,2.5c0.4,0.9,0.9,1.7,1.3,2.6l-0.5-0.3l3.3-0.8l1.6-0.4
				c0.5-0.1,1.1-0.2,1.6-0.4l6.6-1.4l-0.6,1.2c-0.2-0.5-0.4-1-0.6-1.4l-0.6-1.5L170,45l0.9,0.5c-1.1,0.2-2.2,0.5-3.3,0.7l-3.3,0.6
				c-1.1,0.2-2.2,0.4-3.3,0.6C160,47.4,158.9,47.6,157.8,47.7z M157.7,47.7l13-3.1c0,0,0.1,0,0.1,0.1l2.4,5.8c0,0,0,0.1-0.1,0.1l0,0
				l-13.2,2.5c0,0-0.1,0-0.1,0L157.7,47.7C157.7,47.7,157.7,47.7,157.7,47.7C157.7,47.7,157.7,47.7,157.7,47.7z"/>
			<path fill="#668EAA" d="M142.2,42.5c-0.9-0.1-1.7-0.4-2.6-0.7l-2.5-0.8l-5.1-1.7l-5-1.7c-1.7-0.6-3.4-1.1-5-1.8l0.5-0.1
				c-0.4,0.4-0.9,0.7-1.3,1.1c-0.4,0.4-0.9,0.7-1.4,1l-0.2-0.2c0.4-0.4,0.7-0.9,1.1-1.3c0.4-0.4,0.8-0.8,1.2-1.2l0.2-0.2l0.3,0.1
				c1.7,0.5,3.4,1.1,5.1,1.6l5.1,1.7l5,1.7l2.5,0.9c0.8,0.3,1.7,0.5,2.5,1L142.2,42.5z"/>
			<path fill="#668EAA" d="M143.4,41.5c-0.8-0.2-1.5-0.6-2.2-1l-2.1-1.1l-4.2-2.2l-4.2-2.3c-1.4-0.8-2.8-1.5-4.2-2.3l0.7-0.4
				c0,0.6-0.1,1.2-0.2,1.7c-0.1,0.6-0.2,1.2-0.3,1.7l-0.3,0c-0.1-0.6-0.1-1.2-0.1-1.7c0-0.6,0-1.2,0-1.7l0-0.7l0.7,0.3
				c1.4,0.7,2.8,1.5,4.2,2.2l4.2,2.2l4.2,2.3l2.1,1.1c0.7,0.4,1.4,0.7,2,1.3L143.4,41.5z"/>
			<path fill="#668EAA" d="M131.1,29.9c0,0,0.3,0.1,0.7,0.3c0.4,0.2,0.9,0.7,1.6,1.1c1.3,0.9,3.1,2.2,4.8,3.4
				c0.9,0.6,1.7,1.3,2.5,1.9c0.8,0.6,1.6,1.2,2.2,1.7c1.3,1,2,1.8,2,1.8l-0.2,0.3c0,0-1-0.4-2.4-1.3c-0.7-0.4-1.4-1-2.3-1.6
				c-0.8-0.6-1.7-1.2-2.6-1.8c-1.8-1.3-3.5-2.5-4.8-3.5c-0.6-0.5-1.2-0.9-1.6-1.2c-0.4-0.3-0.5-0.6-0.5-0.6L131.1,29.9z"/>
		</g>
		<path fill="#1785BE" d="M211,127.4c0,0,7,20.2-8.6,28.7s-50.7-19.9-50.7-19.9L125.6,156l-21.4-0.4l35.7-35.5c0,0,9-10.5,19-4.1
			C175.3,126.4,211,127.4,211,127.4z"/>
		<path fill="#005084" d="M103.8,155.4c3.1-3.3,6.4-6.4,9.6-9.6l9.7-9.5l19.4-18.9l-0.1,0.1c1.1-1.2,2.4-2.1,3.8-2.8
			c1.4-0.7,3-1.1,4.5-1.2c1.6-0.1,3.1,0.1,4.6,0.5c1.5,0.4,2.9,1,4.3,1.7c1.4,0.7,2.6,1.5,3.9,2.2c1.3,0.6,2.7,1.2,4,1.7
			c2.7,1,5.6,1.9,8.4,2.6c2.9,0.7,5.7,1.4,8.6,1.9c2.9,0.5,5.8,1,8.7,1.5c2.9,0.4,5.9,0.8,8.8,1.1c2.9,0.3,5.9,0.6,8.8,0.7
			c0.1,0,0.2,0.1,0.2,0.2c0,0.1-0.1,0.2-0.2,0.2c-3,0.1-6,0-8.9-0.2c-3-0.2-5.9-0.5-8.9-0.9c-2.9-0.4-5.9-0.8-8.8-1.3
			c-2.9-0.5-5.8-1.2-8.7-1.9c-2.9-0.7-5.8-1.6-8.6-2.6c-1.4-0.5-2.8-1.1-4.1-1.8c-1.4-0.7-2.6-1.5-3.9-2.2c-2.5-1.3-5.4-2.2-8.2-2
			c-1.4,0.1-2.8,0.5-4,1.1c-1.2,0.6-2.5,1.5-3.3,2.4l0,0l0,0L124,137.2l-9.7,9.4c-3.3,3.1-6.5,6.3-9.9,9.3c-0.2,0.1-0.4,0.1-0.6,0
			C103.6,155.7,103.6,155.5,103.8,155.4z"/>
		<path fill="#005084" d="M126.4,155.2c0,0,0.1-0.1,0.3-0.3c0.2-0.2,0.5-0.5,0.9-0.9c0.8-0.7,2-1.6,3.4-2.8c1.4-1.1,3-2.5,4.8-3.9
			c1.8-1.4,3.6-2.9,5.5-4.4c1.9-1.5,3.8-3,5.5-4.4c1.8-1.4,3.4-2.7,4.8-3.8c1.4-1.1,2.7-2,3.5-2.6c0.9-0.6,1.4-0.9,1.4-0.9
			c0.1-0.1,0.2,0,0.3,0.1c0.1,0.1,0,0.2,0,0.3c0,0-0.4,0.4-1.2,1.2c-0.8,0.7-1.9,1.7-3.3,2.9c-1.4,1.2-3,2.5-4.8,3.9
			c-1.8,1.4-3.6,2.9-5.5,4.4c-1.9,1.5-3.8,3-5.5,4.4c-1.8,1.4-3.4,2.7-4.8,3.8c-1.4,1.1-2.6,2.1-3.4,2.7c-0.4,0.3-0.8,0.5-1,0.7
			c-0.2,0.1-0.4,0.2-0.4,0.2c-0.2,0.1-0.5,0-0.6-0.2C126.2,155.5,126.3,155.3,126.4,155.2z"/>
		<path fill="#005084" d="M152,135.1c0,0,0.4,0.2,1.1,0.6c0.6,0.4,1.5,1.1,2.6,1.9c2.2,1.6,5.1,3.6,8,5.7c1.5,1,2.9,2,4.3,3
			c1.4,0.9,2.7,1.8,3.8,2.5c1.1,0.7,2,1.4,2.6,1.9c0.6,0.5,1,0.8,1,0.8l0,0c0.1,0.1,0.1,0.2,0,0.3c-0.1,0.1-0.2,0.1-0.2,0.1
			c0,0-0.4-0.2-1.1-0.5c-0.7-0.3-1.7-0.8-2.9-1.5c-1.2-0.7-2.5-1.5-3.9-2.4c-1.4-0.9-2.9-1.9-4.4-2.9c-1.5-1-2.9-2.1-4.3-3.1
			c-1.3-1-2.6-1.9-3.7-2.7c-1.1-0.8-2-1.5-2.6-2c-0.6-0.5-0.9-0.9-0.9-0.9c-0.1-0.2-0.1-0.5,0.1-0.6
			C151.8,135.1,151.9,135.1,152,135.1z"/>
		<path fill="#005084" d="M194.9,136c0,0,0.1,0,0.1,0.1c0.1,0.1,0.2,0.2,0.3,0.3c0.2,0.3,0.5,0.7,0.9,1.2c0.4,0.5,0.9,1,1.5,1.6
			c0.6,0.5,1.2,1.1,1.9,1.6c0.3,0.3,0.7,0.5,1,0.7c0.3,0.2,0.7,0.4,1,0.6c0.3,0.2,0.7,0.4,1,0.5c0.3,0.2,0.6,0.3,0.9,0.4
			c0.3,0.1,0.5,0.3,0.8,0.4c0.2,0.1,0.4,0.2,0.6,0.3c0.3,0.2,0.5,0.3,0.5,0.3l0,0c0.1,0.1,0.1,0.2,0,0.3c0,0.1-0.1,0.1-0.2,0.1
			c0,0-0.2,0-0.6,0c-0.2,0-0.4,0-0.7-0.1c-0.3,0-0.6-0.1-0.9-0.2c-0.3-0.1-0.7-0.2-1-0.4c-0.4-0.2-0.7-0.3-1.1-0.5
			c-0.4-0.2-0.8-0.4-1.1-0.6c-0.4-0.2-0.8-0.5-1.1-0.8c-0.4-0.3-0.7-0.5-1.1-0.8c-0.3-0.3-0.6-0.6-0.9-0.9c-0.6-0.6-1.1-1.2-1.5-1.7
			c-0.4-0.5-0.7-1-0.9-1.4c-0.1-0.2-0.1-0.3-0.2-0.5c0-0.1,0-0.2,0-0.2l0-0.1c0-0.3,0.3-0.4,0.5-0.4
			C194.7,135.9,194.8,135.9,194.9,136z"/>
		<path fill="#C8D7E1" d="M177,29.6c0,0-0.2-4.7,3.3-4.5c3.6,0.3,4.9,10.3-2.2,11.4L177,29.6z"/>
		<path fill="#C8D7E1" d="M200.3,103.2l-0.1-8.2l14-0.1c0,19.9-8.9,20.1-8.9,20.1c-21.8,3.4-29.1-34.9-29.1-34.9
			c-11.7-0.8-11.1-13.4-11.1-13.4s-0.1-2.6,2-3.4c2.3-0.8,2.5,1.2,2.5,1.2c0.9,4.4,7.4,7.5,9,7.3c1.4-0.2,1.6-0.2,1.6-0.2l2.6-0.3
			c0,0,0.8,2.2-0.1,7.2c0,0,0.6,3.4,3.5,5.6C190.5,87,199.4,90.4,200.3,103.2z"/>
		<path fill="#005084" d="M180.8,36.1c0.2,1.5,0.5,3,0.8,4.4c0.4,1.4,0.9,2.9,1.5,4.2c1.2,2.7,3.1,5.1,5.4,6.9
			c1.2,0.9,2.5,1.6,3.8,2.2c0.7,0.3,1.4,0.5,2.1,0.7c0.7,0.2,1.5,0.4,2.2,0.7c1.5,0.5,3,1.1,4.3,2c1.4,0.8,2.6,1.8,3.8,2.8
			c2.3,2.2,4.1,4.8,5.5,7.6c1.4,2.8,2.3,5.8,3,8.9c1.4,6.1,1.8,12.3,1.9,18.4l0,0c0,0.4-0.3,0.6-0.6,0.6l0,0c-2.5,0-5,0-7.5-0.1
			l-1.9,0c-0.6,0-1.3-0.1-1.9-0.1c-1.3-0.1-2.5-0.1-3.8-0.3c-0.1,0-0.2-0.1-0.2-0.2c0-0.1,0.1-0.2,0.2-0.2c1.3-0.1,2.5-0.2,3.8-0.3
			c0.6,0,1.3-0.1,1.9-0.1l1.9,0c2.5-0.1,5,0,7.5-0.1L214,95c-0.1-6.1-0.6-12.2-2-18.1c-0.7-2.9-1.6-5.8-2.9-8.6
			c-1.3-2.7-3-5.2-5.2-7.3c-1.1-1-2.3-1.9-3.5-2.7c-1.3-0.8-2.7-1.4-4-1.8c-0.7-0.3-1.5-0.4-2.2-0.7c-0.8-0.2-1.5-0.5-2.2-0.8
			c-1.5-0.6-2.9-1.4-4.1-2.4c-2.5-1.9-4.5-4.6-5.8-7.4c-0.7-1.4-1.2-2.9-1.5-4.5c-0.3-1.5-0.6-3.1-0.5-4.7c0-0.2,0.2-0.4,0.4-0.4
			C180.6,35.7,180.8,35.8,180.8,36.1L180.8,36.1z"/>
		<path fill="#005084" d="M169.3,63.2c0,0,0.1,0.2,0.3,0.5c0.1,0.2,0.1,0.4,0.2,0.6c0.1,0.2,0.2,0.5,0.4,0.8
			c0.1,0.3,0.3,0.6,0.5,0.9c0.2,0.3,0.4,0.6,0.7,0.9c0.2,0.3,0.5,0.6,0.8,0.9c0.3,0.3,0.6,0.6,0.9,0.8c0.3,0.2,0.7,0.5,1,0.7
			c0.4,0.2,0.7,0.4,1,0.6c0.4,0.2,0.7,0.4,1,0.5c0.3,0.1,0.6,0.3,0.9,0.4c0.3,0.1,0.6,0.3,0.8,0.4c0.2,0.1,0.4,0.2,0.6,0.3
			c0.3,0.2,0.5,0.3,0.5,0.3l0,0c0.1,0,0.1,0.2,0.1,0.2c0,0.1-0.1,0.1-0.1,0.1c0,0-0.2,0-0.6,0c-0.4-0.1-1-0.1-1.6-0.3
			c-0.3-0.1-0.7-0.2-1-0.4c-0.4-0.2-0.7-0.3-1.1-0.5c-0.4-0.2-0.7-0.4-1.1-0.6c-0.4-0.2-0.7-0.5-1.1-0.8c-0.3-0.3-0.7-0.6-1-0.9
			c-0.3-0.3-0.6-0.6-0.9-1c-0.3-0.3-0.5-0.7-0.7-1c-0.2-0.3-0.4-0.7-0.5-1c-0.3-0.6-0.5-1.2-0.6-1.6c-0.1-0.4,0-0.7,0-0.7
			c0-0.2,0.1-0.4,0.3-0.4C169.1,62.9,169.3,63,169.3,63.2z"/>
		<path fill="#005084" d="M183,70.8c0.5,1.3,0.7,2.6,0.7,3.9c0,0.7,0,1.3-0.1,2c-0.1,0.3-0.1,0.7-0.2,1c-0.1,0.3-0.2,0.7-0.3,1
			l0-0.3c0.1,0.6,0.4,1.2,0.6,1.7c0.3,0.6,0.6,1.1,1,1.6c0.4,0.5,0.9,0.9,1.4,1.3c0.5,0.4,1.1,0.8,1.6,1.1c2.3,1.4,4.7,2.8,6.7,4.7
			c2,1.9,3.6,4.3,4.6,6.9c0.5,1.3,0.9,2.6,1.2,3.9c0.3,1.3,0.5,2.7,0.5,4.1c0,0.1-0.1,0.2-0.2,0.2c-0.1,0-0.2-0.1-0.2-0.1l-0.5-2
			c-0.2-0.7-0.3-1.3-0.5-1.9c-0.3-1.3-0.8-2.5-1.3-3.8c-1-2.4-2.5-4.7-4.4-6.5c-1.9-1.8-4.3-3.1-6.5-4.6c-0.6-0.4-1.1-0.7-1.7-1.2
			c-0.6-0.4-1.1-0.9-1.5-1.5c-0.4-0.6-0.8-1.2-1.2-1.8c-0.3-0.6-0.6-1.3-0.7-2.1c0-0.1,0-0.2,0-0.2l0-0.1c0.1-0.3,0.2-0.6,0.3-0.9
			c0.1-0.3,0.1-0.6,0.2-0.9c0.1-0.6,0.1-1.2,0.1-1.9c0-1.3-0.2-2.5-0.4-3.8l0,0c0-0.2,0.1-0.3,0.3-0.4C182.8,70.6,183,70.7,183,70.8
			z"/>
		<path fill="#005084" d="M166,63.9c0,0,0.1,0.1,0.2,0.4c0.1,0.2,0.1,0.6,0.2,1c0.2,0.8,0.6,1.9,1.1,2.8c0.2,0.5,0.5,1,0.8,1.4
			c0.2,0.2,0.3,0.4,0.4,0.6c0.2,0.2,0.3,0.3,0.4,0.5c0.1,0.1,0.3,0.3,0.4,0.4c0.1,0.1,0.2,0.2,0.3,0.3c0.2,0.2,0.3,0.3,0.3,0.3l0,0
			c0.1,0.1,0,0.1,0,0.2c0,0-0.1,0-0.1,0c0,0-0.1,0-0.4-0.1c-0.1,0-0.3-0.1-0.5-0.2c-0.2-0.1-0.3-0.2-0.5-0.3
			c-0.4-0.3-0.7-0.7-1.1-1.1c-0.2-0.2-0.3-0.5-0.5-0.7c-0.1-0.3-0.3-0.5-0.4-0.8c-0.3-0.5-0.5-1.1-0.7-1.6c-0.2-0.5-0.3-1-0.4-1.4
			c-0.1-0.4-0.2-0.8-0.2-1c0-0.3,0.1-0.4,0.1-0.4c0.1-0.2,0.3-0.2,0.4-0.2C165.9,63.8,165.9,63.8,166,63.9L166,63.9z"/>
		<path fill="#C8D7E1" d="M163.8,96.1l-0.9-1.8l-7.3,0l0.3,1.8c-0.5-2.5-1-2.7-4.2-7.2c-0.2-0.3-0.8-1.4-1.4-2
			c-1.3-1.2-2-2.6-1.5-6.6c0.5-3.2-0.8-3.9-0.8-3.9l-2.6-1.2c0,0-6.9-2.7-7-7.3c0-2.4-3.6-2.4-3.6,0.7c0,0-0.9,8.9,7.7,11.6
			c0,0-0.8,33.2,14.4,33.2c0,0,8.8,0.7,8.8-9.8L163.8,96.1z"/>
		<path fill="#005084" d="M156.3,105.5c0,0,0-0.2,0.1-0.5c0-0.2,0.1-0.4,0.1-0.6c0-0.2,0.1-0.5,0.1-0.8c0.1-0.3,0.1-0.6,0.1-0.9
			c0.1-0.3,0.1-0.7,0.1-1.1c0-0.8,0-1.7-0.2-2.6c-0.4-1.9-1.3-4-2.7-6.1c-0.7-1-1.5-2.1-2.3-3.1c-0.8-1.1-1.6-2.2-2.3-3.4
			c-0.7-1.2-1.2-2.6-1.2-4.1c0-0.7,0.1-1.4,0.1-2c0-0.6,0-1.3,0-1.8c-0.1-0.6-0.2-1.2-0.4-1.6c-0.1-0.1-0.1-0.2-0.2-0.2c0,0,0,0,0,0
			l-0.2-0.1c-0.3-0.1-0.6-0.2-0.8-0.3c-1.1-0.5-2.1-1-2.9-1.6c-1.8-1.1-3-2.4-3.7-3.4c-0.4-0.5-0.6-0.9-0.7-1.2
			c-0.1-0.3-0.2-0.5-0.2-0.5c0-0.1,0-0.2,0.1-0.2c0.1,0,0.2,0,0.2,0.1l0,0c0,0,0.1,0.1,0.3,0.4c0.2,0.3,0.4,0.6,0.8,1.1
			c0.4,0.4,0.9,0.9,1.5,1.4c0.6,0.5,1.4,1,2.2,1.5c0.8,0.5,1.8,1,2.9,1.4c0.3,0.1,0.5,0.2,0.8,0.3l0.2,0.1c0.2,0.1,0.3,0.1,0.4,0.2
			c0.2,0.2,0.3,0.3,0.4,0.5c0.4,0.7,0.5,1.3,0.6,2c0.2,1.3,0,2.7,0,3.9c0,1.2,0.5,2.4,1.1,3.6c1.3,2.3,3.1,4.3,4.5,6.5
			c1.4,2.1,2.5,4.4,2.8,6.5c0.2,1,0.2,2,0.2,2.9c0,0.9-0.1,1.6-0.3,2.2c-0.1,0.6-0.3,1.1-0.4,1.3c-0.1,0.3-0.2,0.5-0.2,0.5
			c-0.1,0.2-0.3,0.3-0.4,0.2C156.4,105.8,156.3,105.6,156.3,105.5z"/>
		<path fill="#005084" d="M164.2,81.9c0,0-0.1,0.6-0.3,1.6c-0.2,1-0.5,2.5-0.6,4.3c-0.1,1.8,0.1,3.9,0.7,6c0.2,0.5,0.3,1.1,0.6,1.6
			c0.1,0.3,0.2,0.5,0.3,0.8l0.3,0.8c0.2,0.5,0.4,1.2,0.6,1.8c0.2,0.6,0.3,1.2,0.4,1.8c0.2,1.2,0.4,2.5,0.5,3.7
			c0.1,1.2,0.2,2.4,0.2,3.6c0,1.2,0,2.3,0,3.4c0,1.1-0.1,2.1-0.2,3c-0.1,0.9-0.2,1.8-0.3,2.5c-0.1,0.7-0.2,1.4-0.4,1.9
			c-0.2,1.1-0.4,1.7-0.4,1.7c0,0.1-0.1,0.2-0.3,0.1c-0.1,0-0.2-0.1-0.2-0.2c0,0,0-0.2,0-0.4c0-0.3,0-0.7,0-1.2
			c0.1-1.1,0.1-2.6,0.2-4.4c0.1-1.8,0.2-4,0.1-6.2c0-1.1-0.1-2.3-0.2-3.5c-0.1-1.2-0.3-2.4-0.5-3.5c-0.1-0.6-0.3-1.2-0.4-1.7
			c-0.2-0.6-0.3-1.1-0.5-1.7l-0.3-0.8c-0.1-0.3-0.2-0.6-0.3-0.8c-0.2-0.6-0.4-1.1-0.6-1.7c-0.7-2.3-0.8-4.5-0.7-6.4
			c0.1-1.9,0.4-3.5,0.7-4.5c0.2-0.5,0.3-0.9,0.5-1.2c0.1-0.3,0.2-0.4,0.2-0.4c0.1-0.2,0.4-0.3,0.6-0.1
			C164.1,81.6,164.2,81.7,164.2,81.9z"/>
		<path fill="#005084" d="M135.3,65.6c0,0,0.1,0.1,0.1,0.4c0,0.2,0,0.6,0.1,1c0,0.4,0.1,0.9,0.2,1.4c0.1,0.5,0.2,1.1,0.4,1.6
			c0.1,0.3,0.2,0.5,0.3,0.8c0.1,0.3,0.2,0.5,0.4,0.7c0.1,0.2,0.3,0.4,0.4,0.6c0.2,0.2,0.3,0.3,0.4,0.5c0.2,0.1,0.3,0.3,0.4,0.4
			c0.1,0.1,0.2,0.2,0.3,0.3c0.2,0.2,0.3,0.3,0.3,0.3l0,0c0.1,0.1,0.1,0.1,0,0.2c0,0-0.1,0-0.1,0c0,0-0.2,0-0.4-0.1
			c-0.1,0-0.3-0.1-0.5-0.2c-0.2-0.1-0.4-0.2-0.6-0.3c-0.2-0.2-0.4-0.3-0.6-0.5c-0.2-0.2-0.3-0.4-0.5-0.7c-0.1-0.3-0.3-0.5-0.4-0.8
			c-0.1-0.3-0.3-0.6-0.3-0.9c-0.2-0.6-0.3-1.2-0.4-1.7c-0.1-0.6-0.2-1.1-0.2-1.5c0-0.5-0.1-0.8,0-1.1c0-0.3,0.1-0.4,0.1-0.4
			c0.1-0.2,0.3-0.2,0.4-0.1C135.3,65.5,135.3,65.6,135.3,65.6z"/>
	</g>
	<g>
		<path fill="#FFFFFF" d="M37.9,158.4c0,0,11.1-2.6,25.5-5c-0.4-0.6-1.8-2.4-2.3-3.1c0,0,2.4-0.1,5,1.6c0,0-0.4-3.8,2.4-7.2
			c0,0,0.7,5.8,1.9,6.9c0,0,1.5-0.9,2.7-4c0,0,0.5,1.8,0.4,4.3c14-1.9,22.9-4,35.8-3.7l-0.4-2c0,0,1.9-0.1,2.9,1.5
			c0,0,0.7-3.1,4.6-4.3l-1,4.9c4.7,0.4,10.4,1.2,16.5,2.4c27.9,5.3,54.3-3,102.3,3.6l0.3-2.6l1.9,3.1l3.9-4.6l-0.9,5
			c6.3,1,13,2.3,20.1,4"/>
		<path fill="#C8D8E1" d="M37.9,158.3c8.5-2,17-3.6,25.5-5.1l-0.1,0.2l-2.3-3.1l-0.1-0.2l0.2,0c0.9,0,1.8,0.2,2.6,0.5
			c0.8,0.3,1.7,0.7,2.4,1.2l-0.2,0.1c0-0.7,0-1.3,0.1-2c0.1-0.6,0.2-1.3,0.5-1.9c0.2-0.6,0.5-1.2,0.8-1.8c0.1-0.3,0.3-0.6,0.5-0.8
			c0.2-0.3,0.4-0.5,0.6-0.8l0.2-0.3l0,0.4c0.2,1.2,0.4,2.4,0.6,3.5c0.1,0.6,0.3,1.2,0.5,1.7c0.1,0.3,0.2,0.6,0.3,0.8
			c0.1,0.1,0.1,0.3,0.2,0.4c0.1,0.1,0.2,0.2,0.2,0.3l-0.2,0c0.1-0.1,0.3-0.2,0.4-0.4c0.1-0.1,0.3-0.3,0.4-0.4c0.3-0.3,0.5-0.6,0.7-1
			c0.4-0.7,0.8-1.4,1-2.2l0.2-0.5l0.1,0.5c0.2,0.7,0.3,1.4,0.4,2.2c0.1,0.7,0.1,1.5,0,2.2l-0.2-0.2c6-0.8,11.9-1.9,17.8-2.7
			c1.5-0.2,3-0.4,4.5-0.5c1.5-0.2,3-0.3,4.5-0.4c1.5-0.1,3-0.2,4.5-0.2c1.5,0,3,0,4.5,0l-0.3,0.3l-0.4-2l-0.1-0.3l0.3,0
			c0.2,0,0.3,0,0.5,0c0.2,0,0.3,0,0.5,0.1c0.3,0.1,0.6,0.2,0.9,0.3c0.6,0.3,1,0.7,1.3,1.2l-0.5,0.1c0.1-0.3,0.2-0.6,0.3-0.8
			c0.1-0.3,0.3-0.5,0.4-0.7c0.3-0.5,0.7-0.9,1.1-1.3c0.4-0.4,0.9-0.7,1.4-1c0.5-0.3,1-0.5,1.6-0.7l0.5-0.1l-0.1,0.5l-1,4.9l-0.3-0.3
			c5,0.4,9.9,1.2,14.8,2.1c1.2,0.2,2.4,0.4,3.7,0.6c1.2,0.2,2.5,0.4,3.7,0.6c2.5,0.3,4.9,0.6,7.4,0.7c2.5,0.2,4.9,0.2,7.4,0.3
			c2.5,0,5,0,7.4-0.1c2.5-0.1,5-0.1,7.4-0.2l7.4-0.3l7.4-0.2c2.5,0,5-0.1,7.5-0.1c2.5,0,5-0.1,7.5,0c2.5,0,5,0,7.5,0.2
			c2.5,0.1,5,0.2,7.4,0.4c2.5,0.2,5,0.3,7.4,0.6c2.5,0.3,5,0.4,7.4,0.8l7.4,0.9l-0.3,0.3l0.3-2.6l0.1-0.8l0.4,0.7l1.8,3.2l-0.4,0
			l3.9-4.6l0.5-0.6l-0.1,0.8l-0.9,5l-0.2-0.2c6.8,1.1,13.5,2.5,20.1,4.2l0,0.1c-6.7-1.5-13.4-2.8-20.1-3.8l-0.2,0l0-0.2l0.8-5
			l0.4,0.2l-3.9,4.6l-0.2,0.3l-0.2-0.3l-1.9-3.1l0.5-0.1l-0.2,2.6l0,0.3l-0.3,0l-7.4-0.9c-2.5-0.3-4.9-0.5-7.4-0.7
			c-2.5-0.2-4.9-0.3-7.4-0.5c-2.5-0.2-5-0.2-7.4-0.3c-2.5-0.1-5-0.1-7.4-0.2c-2.5-0.1-5,0-7.4,0c-2.5,0-5,0.1-7.4,0.1l-7.4,0.2
			c-5,0.2-9.9,0.4-14.9,0.4c-2.5,0.1-5,0-7.5,0c-2.5-0.1-5-0.1-7.5-0.3c-2.5-0.1-5-0.4-7.4-0.7c-1.2-0.2-2.5-0.4-3.7-0.6
			c-1.2-0.2-2.5-0.4-3.7-0.6c-4.9-0.9-9.8-1.7-14.7-2.1l-0.3,0l0.1-0.3l1-4.9l0.4,0.3c-0.5,0.2-1,0.3-1.5,0.6
			c-0.5,0.2-0.9,0.6-1.3,0.9c-0.4,0.3-0.7,0.8-1,1.2c-0.1,0.2-0.3,0.4-0.4,0.7c-0.1,0.2-0.2,0.5-0.3,0.7l-0.2,0.6l-0.3-0.5
			c-0.3-0.4-0.7-0.8-1.1-1.1c-0.2-0.1-0.5-0.2-0.7-0.3c-0.3-0.1-0.5-0.1-0.8-0.1l0.2-0.3l0.4,2l0.1,0.3l-0.3,0c-1.5,0-3,0-4.5,0
			c-1.5,0-3,0.1-4.5,0.2c-1.5,0.1-3,0.2-4.5,0.4c-1.5,0.2-3,0.3-4.5,0.5c-6,0.8-11.9,1.8-17.8,2.6l-0.2,0l0-0.2c0-0.7,0-1.4,0-2.1
			c-0.1-0.7-0.2-1.4-0.3-2.1l0.3,0c-0.3,0.8-0.6,1.5-1.1,2.2c-0.2,0.4-0.5,0.7-0.7,1c-0.1,0.2-0.3,0.3-0.4,0.5
			c-0.2,0.1-0.3,0.3-0.5,0.4l-0.1,0.1l-0.1-0.1c-0.1-0.1-0.2-0.3-0.3-0.4c-0.1-0.1-0.2-0.3-0.2-0.4c-0.1-0.3-0.2-0.6-0.3-0.9
			c-0.2-0.6-0.3-1.2-0.5-1.8c-0.3-1.2-0.5-2.4-0.6-3.6l0.3,0.1c-0.2,0.3-0.4,0.5-0.6,0.8c-0.2,0.3-0.4,0.5-0.5,0.8
			c-0.3,0.6-0.6,1.1-0.8,1.8c-0.4,1.2-0.6,2.5-0.5,3.8l0,0.3l-0.2-0.1c-0.7-0.5-1.5-0.9-2.3-1.2c-0.8-0.3-1.7-0.5-2.6-0.5l0.1-0.2
			l2.3,3.1l0.1,0.1l-0.2,0C54.9,154.9,46.3,156.5,37.9,158.3L37.9,158.3z"/>
	</g>
	<g opacity="0.35">
		<g>
			<path fill="#C9EAF5" d="M251.9,135.6c0,0,0.4-6.3,7.7-4.9c6.8,1.3,9.9,0.1,12.6-2.6c2.1-2.1-3,15.2-15.2,13
				C256.9,141.1,251.7,140.3,251.9,135.6z"/>
			<path fill="#4F758E" d="M251.8,135C251.8,135,251.8,135,251.8,135c0.1-0.4,0.2-1,0.6-1.7c0.3-0.7,0.9-1.5,1.9-2.1
				c0.9-0.6,2.2-0.9,3.5-0.9c1.3,0,2.7,0.4,4.2,0.6c1.5,0.2,3,0.2,4.6,0c1.6-0.3,3.1-0.9,4.4-2c0.3-0.3,0.6-0.5,0.9-0.8l0.1-0.1
				c0,0,0.1-0.1,0.1-0.1c0.1,0,0.1-0.1,0.3-0.1c0.1,0,0.1,0,0.2,0.1c0.1,0,0.1,0.1,0.1,0.1c0.1,0.4,0.1,0.5,0.1,0.8
				c-0.1,0.9-0.4,1.7-0.8,2.5c-0.7,1.6-1.6,3.1-2.6,4.5c-1,1.4-2.2,2.6-3.6,3.6c-1.3,1-2.8,1.6-4.3,2c-1.5,0.3-2.9,0.3-4.2,0.1
				c-1.3-0.2-2.5-0.7-3.4-1.3c-0.9-0.6-1.5-1.4-1.8-2.1c-0.3-0.7-0.4-1.3-0.4-1.7c0-0.4,0-0.6,0-0.6L251.8,135z M252,136.1
				c0,0,0,0.1,0,0.1c0,0.4,0.1,1,0.5,1.6c0.3,0.7,0.9,1.4,1.8,1.9c0.9,0.6,1.9,1,3.2,1.2c1.3,0.2,2.7,0.2,4.1-0.2
				c1.4-0.3,2.8-1,4.1-1.9c2.6-1.9,4.7-4.7,6-7.9c0.3-0.8,0.6-1.6,0.7-2.4c0-0.2,0-0.4,0-0.5c0,0,0.1,0.1,0.1,0c0,0,0,0,0,0
				c0,0-0.1,0.1-0.1,0.1l-0.1,0.1c-0.3,0.3-0.6,0.6-1,0.9c-1.3,1.1-3,1.8-4.6,2.1c-1.6,0.3-3.2,0.2-4.7,0c-1.5-0.2-2.9-0.5-4.1-0.6
				c-1.3,0-2.4,0.2-3.2,0.8c-0.8,0.5-1.4,1.3-1.7,1.9c-0.3,0.6-0.5,1.2-0.6,1.6c-0.1,0.4-0.1,0.6-0.1,0.6L252,136.1z"/>
		</g>
		<g>
			<path fill="#C9EAF5" d="M266.3,134c0,0-9.8,5.6-17.7,2.7"/>
			<path fill="#4F758E" d="M266.3,134c0,0-1,0.6-2.6,1.3c-0.8,0.3-1.7,0.7-2.8,1.1c-0.5,0.2-1.1,0.3-1.6,0.5
				c-0.5,0.2-1.1,0.3-1.7,0.4c-0.6,0.1-1.1,0.2-1.7,0.3c-0.6,0.1-1.1,0.2-1.7,0.2c-0.5,0-1.1,0.1-1.6,0c-0.5-0.1-1-0.1-1.4-0.2
				c-0.4-0.1-0.8-0.2-1.2-0.3c-0.3-0.1-0.6-0.2-0.9-0.3c-0.5-0.2-0.7-0.3-0.7-0.3l0,0c0,0,0.3,0.1,0.8,0.2c0.2,0,0.5,0.1,0.9,0.2
				c0.3,0,0.7,0.1,1.2,0.1c0.4,0.1,0.9,0,1.4,0.1c0.5,0,1,0,1.5,0c0.5,0,1.1-0.1,1.6-0.1c0.6-0.1,1.1-0.2,1.7-0.2
				c0.6-0.1,1.1-0.2,1.7-0.4c0.5-0.1,1.1-0.3,1.6-0.4c1-0.3,2-0.7,2.8-1C265.3,134.5,266.3,134,266.3,134L266.3,134z"/>
		</g>
		<g>
			<line fill="#C9EAF5" x1="261.5" y1="139.1" x2="258.2" y2="137"/>
			<path fill="#4F758E" d="M261.5,139.1c0,0-0.9-0.4-1.7-0.9c-0.2-0.1-0.4-0.2-0.6-0.3c-0.2-0.1-0.4-0.3-0.5-0.4
				c-0.3-0.3-0.4-0.5-0.4-0.5l0,0c0,0,0.3,0,0.6,0.2c0.2,0.1,0.4,0.2,0.6,0.3c0.2,0.1,0.4,0.3,0.6,0.4
				C260.7,138.5,261.5,139.1,261.5,139.1L261.5,139.1z"/>
		</g>
		<g>
			<line fill="#C9EAF5" x1="262.5" y1="133.2" x2="261.1" y2="136.2"/>
			<path fill="#4F758E" d="M262.5,133.2c0,0-0.2,0.8-0.5,1.6c-0.1,0.2-0.1,0.4-0.2,0.6c-0.1,0.2-0.2,0.3-0.3,0.5
				c-0.2,0.3-0.4,0.4-0.4,0.4l0,0c0,0,0-0.2,0.1-0.5c0-0.2,0.1-0.3,0.2-0.5c0.1-0.2,0.2-0.3,0.3-0.5
				C262,133.9,262.4,133.2,262.5,133.2L262.5,133.2z"/>
		</g>
		<g>
			<line fill="#C9EAF5" x1="257.6" y1="133.1" x2="255.6" y2="137.5"/>
			<path fill="#4F758E" d="M257.6,133.1c0,0-0.4,1.1-0.8,2.3c-0.1,0.3-0.2,0.6-0.3,0.8c-0.1,0.3-0.3,0.5-0.4,0.7
				c-0.2,0.4-0.5,0.6-0.5,0.6l0,0c0,0,0-0.3,0.1-0.8c0.1-0.2,0.1-0.5,0.3-0.7c0.1-0.3,0.3-0.5,0.4-0.8
				C257,134.1,257.6,133.1,257.6,133.1L257.6,133.1z"/>
		</g>
	</g>
</g>
</svg>
