<svg id="Layer_1" xmlns="http://www.w3.org/2000/svg" viewBox="0 0 100.2 129.2"><style>.st0{fill:#BBC9D5;} .st1{fill:#204A69;} .st2{fill:#CCCED0;} .st3{fill:#FFFFFF;} .st4{fill:#C8D8E1;} .st5{fill:#46799A;}</style><path class="st0" d="M45.7 91.3s-.4.7 1.6 3.4 2.4 17.1-1.5 31.8c0 0 6 1.6 14.2 2.8h28c1.5-.3 3-.7 4.3-1.2 0 0-2.4-10.2-2.6-36.2h5.6c-.5-43-29.6-43.8-29.6-43.8l-19.4 12c-14.7 10-13.8 31.5-13.8 31.5l13.2-.3z"/><path class="st1" d="M32.9 16.9S30 30.6 35.3 39.7l6-1.2-5.6-17-2.8-4.6z"/><path class="st2" d="M65.1 39.9c3.4-5.3 3.5-12.8-.3-19.4-5.1-8.9-15.4-12.5-23-8.2-7.6 4.4-9.5 15.1-4.4 24 4 6.8 11 10.6 17.5 9.9-.4 6.3-3 13.9-3 13.9l10.6 6.1 9.5-18c-3.2-.9-5.5-5-6.9-8.3z"/><ellipse transform="rotate(-19.248 37.603 32.016)" class="st1" cx="37.6" cy="32" rx="1" ry="1.6"/><ellipse transform="rotate(-19.248 46.23 30.198)" class="st1" cx="46.2" cy="30.2" rx="1" ry="1.6"/><path class="st3" d="M51.4 58c1 .7 1.8 1.5 2.6 2.4l2.4 2.5 4.8 5.1-1.3.2c1.6-3 3.3-5.9 5-8.9 1.7-2.9 3.3-5.9 5.4-8.6.1-.1.2-.1.4 0 .1.1.1.2.1.3-1.1 3.2-2.9 6.2-4.5 9.1-1.6 3-3.2 5.9-4.9 8.9-.2.4-.7.5-1.1.3-.1 0-.1-.1-.2-.2L55.3 64l-2.4-2.6c-.8-.9-1.6-1.7-2.2-2.7-.1-.2-.1-.6.2-.7.2-.1.4-.1.5 0z"/><path class="st1" d="M32.6 25.6S29.8 8.3 44.2 2.9s24.7 8.2 26 17.5c2 14.2 7.5 20.1 14.2 24.3 6.8 4.3 3 16 3 16s-3.5-4.4-14.5-8.5c-.6-.2-3-1.3-4-2.1-4.8-3.9-6.6-7.1-6.7-16 0 0 3.6-2.3 2.3-7.4 0 0-12.2 8-25.7-10.3.2-.1-.5 5.4-6.2 9.2z"/><path class="st1" d="M38.3 28.1l-.2.2h-.5c-.2 0-.4 0-.6.1-.2 0-.5.1-.7.2l-.6.3c-.2.1-.3.2-.5.3-.2.1-.3.2-.4.2-.1.1-.2.1-.2.1-.1 0-.3-.1-.3-.2V29c0-.2 0-.4.2-.6.1-.2.4-.4.6-.6.3-.2.6-.4.9-.5.6-.3 1.3-.3 1.8-.3.2 0 .4 0 .6.1l.2.2c.1.2.1.5-.1.7l-.2.1zM42.2 32.8s.2.2.4.6c.2.4.5.9.7 1.5.2.5.4 1.1.5 1.5.1.4.2.7.2.7 0 .2-.1.4-.3.5-.2 0-.3 0-.4-.2 0 0-.2-.2-.4-.6-.2-.4-.5-.9-.7-1.5-.2-.5-.4-1.1-.5-1.5-.1-.4-.2-.7-.2-.7 0-.2.1-.4.3-.5.1 0 .3 0 .4.2zM42.1 26.1s0-.2.1-.3c.1-.1.3-.3.6-.4.5-.3 1.2-.6 1.9-.6h1.1c.3.1.6.1.9.2.5.2.7.6.7.6.1.1 0 .3-.1.4 0 0-.1 0-.3.1-.2.1-.4.1-.6.1h-1.6c-.3 0-.6.1-.8.1-.3.1-.5.2-.7.2-.2.1-.3.2-.4.2h-.2c-.2.2-.4.2-.6 0-.1-.2-.1-.4 0-.6z"/><path class="st3" d="M3.4 37.7c-.1-.3 0-.5.4-.4l21.5 4.9c.3.1.9 0 1.1-.3L30 39c.3-.2.8-.5 1.1-.5l23.6-5c.3-.1.7.1.9.5l13.6 33.8c.1.3 0 .6-.4.7l-22.3 2.8c-.4 0-.8.3-1.1.6l-2.8 3c-.2.3-.7.4-1.1.4l-22.4-3.6c-.4-.1-.8-.4-.9-.7L3.4 37.7z"/><path class="st1" d="M39.5 72.6c-.8-1.1-1.3-2.4-1.9-3.7l-1.8-3.7-3.5-7.5-3.4-7.5c-1.1-2.5-2.3-5-3.4-7.6-.1-.2 0-.4.2-.5 1-.7 2-1.5 3-2.2.1-.1.2 0 .3.1.1.1 0 .2 0 .2-.8.9-1.7 1.8-2.7 2.6l.1-.6c1.3 2.4 2.4 5 3.6 7.5l3.5 7.5 3.4 7.5 1.7 3.8c.6 1.3 1.2 2.5 1.5 3.8.1.2-.1.4-.3.5-.1 0-.2-.1-.3-.2zM44.3 69s-.3-.4-.7-1c-.4-.7-1-1.7-1.6-2.9-.3-.6-.6-1.3-.9-2-.3-.7-.6-1.5-.9-2.3-.3-.8-.6-1.6-1-2.4-.4-.8-.8-1.6-1.3-2.4-.5-.8-.9-1.6-1.3-2.4-.4-.8-.8-1.6-1.2-2.3-.4-.8-.7-1.5-1-2.2-.3-.7-.6-1.4-.8-2-.5-1.3-.9-2.3-1.1-3.1-.2-.8-.4-1.2-.4-1.2v-.1h.1s.3.4.7 1c.4.7 1 1.6 1.7 2.8.3.6.7 1.2 1 1.9.4.7.7 1.4 1 2.2.3.8.7 1.6 1 2.4.3.8.7 1.7 1 2.5.3.8.6 1.7 1 2.5s.8 1.6 1.2 2.3c.4.7.9 1.4 1.2 2.1.4.7.6 1.4.9 2 .5 1.3.9 2.3 1.2 3.1.2.8.4 1.2.4 1.2-.1.3-.1.3-.2.3zM40.6 46.4c.4.8.9 1.6 1.3 2.4.4.8.9 1.6 1.3 2.5l-.7-.4 3.1-.8c1-.3 2.1-.6 3.1-.8 1.1-.2 2.1-.5 3.2-.7l3.2-.7-.8 1.5c-.4-.9-.7-1.9-1.1-2.8-.4-.9-.7-1.9-1.1-2.8l1.2.6c-1.1.2-2.1.4-3.2.6l-3.2.5c-1.1.2-2.1.4-3.2.5-1 .2-2 .3-3.1.4zm-.1-.1l12.5-3s.1 0 .1.1l2.3 5.5c0 .1 0 .1-.1.2l-12.7 2.4h-.1l-2-5.2c0 .1 0 0 0 0z"/><path class="st4" d="M25.6 41.4c-.9 0-1.7-.4-2.5-.6l-2.4-.8-4.9-1.6c-3.2-1.1-6.5-2.2-9.7-3.3l.6-.1c-.8.7-1.7 1.3-2.7 1.9l-.3-.3c.6-.9 1.3-1.7 2.1-2.5l.2-.2.5.1c3.3 1 6.5 2.1 9.7 3.2l4.8 1.7 2.4.8c.8.3 1.6.5 2.4 1l-.2.7zM26.7 40.5c-.8-.1-1.4-.5-2.1-.9l-2-1.1-4.1-2.1-4-2.2c-1.3-.7-2.7-1.5-4-2.2l.9-.5c-.1 1.1-.2 2.2-.5 3.3h-.4c-.2-1.1-.2-2.2-.2-3.4v-.9l.7.5c1.4.7 2.7 1.4 4.1 2.1l4 2.1 4 2.2 2 1.1c.7.4 1.4.7 1.9 1.3l-.3.7zM15 29.2s.3 0 .7.3c.4.2.9.6 1.5 1.1 1.3.9 3 2.1 4.7 3.3.8.6 1.7 1.2 2.4 1.8.8.6 1.5 1.1 2.1 1.6 1.2 1 1.9 1.8 1.9 1.8l-.2.3s-1-.4-2.3-1.2c-.7-.4-1.4-1-2.2-1.5-.8-.5-1.6-1.1-2.5-1.8-1.7-1.2-3.3-2.5-4.6-3.4-.6-.5-1.2-.8-1.5-1.1-.3-.3-.5-.6-.5-.6l.5-.6z"/><path class="st2" d="M59.1 29s-.2-4.6 3.2-4.3c3.4.3 4.7 9.9-2.1 11L59.1 29zM81.5 99.7l-.1-7.9h13.5c0 19.2-8.5 19.3-8.5 19.3-21 3.3-28-33.6-28-33.6-11.3-.7-10.7-12.9-10.7-12.9s-.1-2.5 2-3.3c2.2-.8 2.4 1.1 2.4 1.1.9 4.2 7.1 7.2 8.7 7 1.4-.2 1.6-.2 1.6-.2l2.5-.3s.8 2.1-.1 7c0 0 .5 3.3 3.4 5.4 3.9 2.9 12.5 6.2 13.3 18.4z"/><path class="st1" d="M62.8 35.2c.2 1.4.5 2.8.9 4.2.4 1.4.8 2.7 1.4 4 1.2 2.6 2.9 4.9 5.2 6.6 1.1.9 2.4 1.6 3.7 2.1.7.3 1.3.5 2 .7l2.1.6c1.5.5 2.9 1.1 4.2 1.9 1.3.8 2.6 1.7 3.7 2.8 2.2 2.1 4 4.7 5.3 7.4 1.3 2.7 2.2 5.6 2.9 8.6 1.3 5.9 1.7 11.8 1.8 17.8 0 .4-.3.8-.8.8-2.4 0-4.8 0-7.3-.1h-1.8c-.6 0-1.2-.1-1.8-.1l-3.6-.3c-.1 0-.2-.1-.2-.3 0-.1.1-.2.2-.2l3.6-.3c.6 0 1.2-.1 1.8-.1h1.8c2.4-.1 4.8 0 7.3-.1l-.8.8c-.1-5.9-.6-11.7-1.9-17.4-.7-2.8-1.5-5.6-2.8-8.2-1.2-2.6-2.9-5-4.9-6.9-1-1-2.2-1.8-3.4-2.6-1.1-.9-2.4-1.5-3.8-1.9l-2.1-.6c-.7-.2-1.5-.5-2.2-.8-1.4-.6-2.8-1.4-4-2.3-2.5-1.9-4.3-4.4-5.6-7.2-.6-1.4-1.1-2.8-1.5-4.3-.3-1.5-.5-3-.5-4.5 0-.3.2-.5.5-.5.4-.1.6.1.6.4zM51.8 61.3s.2.2.3.5c.1.3.3.8.6 1.3s.6 1.1 1.1 1.7c.5.6 1 1.1 1.6 1.6.3.2.6.5 1 .7.3.2.6.4 1 .6.3.2.7.3 1 .5.3.1.6.3.9.4.5.3 1 .5 1.3.7.3.2.5.3.5.3.1.1.1.2.1.3 0 .1-.1.1-.2.1h-.6c-.4 0-.9-.1-1.5-.3-.3-.1-.6-.2-1-.3-.3-.2-.7-.3-1.1-.5-.4-.2-.7-.4-1.1-.6-.4-.2-.7-.5-1.1-.8-.3-.3-.7-.6-1-.9-.3-.3-.6-.6-.8-1-.5-.7-.9-1.3-1.2-1.9-.3-.6-.5-1.1-.6-1.5-.1-.4 0-.7 0-.7 0-.2.1-.4.3-.5.2-.1.4 0 .5.3zM65 68.6c.5 1.2.7 2.5.7 3.8 0 1.3-.1 2.6-.6 3.9V76c.1.5.3 1.1.6 1.6s.6 1 1 1.5.8.9 1.3 1.3 1 .7 1.6 1.1c2.2 1.4 4.5 2.7 6.5 4.6 2 1.8 3.5 4.2 4.5 6.6.5 1.2.9 2.5 1.1 3.8.2 1.3.4 2.6.4 3.9 0 .1-.1.2-.2.2s-.2-.1-.2-.1l-.5-1.9c-.2-.6-.3-1.2-.5-1.9-.4-1.2-.8-2.4-1.3-3.6-1-2.3-2.4-4.5-4.2-6.2-1.8-1.7-4.1-3-6.3-4.4-.6-.4-1.1-.7-1.6-1.2-.5-.4-1-.9-1.5-1.5-.4-.5-.8-1.1-1.1-1.8-.3-.6-.6-1.3-.7-2v-.4c.1-.3.2-.5.3-.8.1-.3.1-.6.2-.8.1-.6.1-1.2.1-1.8 0-1.2-.2-2.4-.3-3.6 0-.2.1-.4.4-.4 0 .1.2.2.3.4zM48.6 61.9s.1.1.2.3c.1.2.1.5.2.9.2.8.6 1.8 1 2.7.2.5.5.9.8 1.3.3.4.6.7.8 1 .3.3.5.5.6.7l.3.3c.1.1 0 .2 0 .2h-.1s-.1 0-.4-.1c-.1 0-.3-.1-.4-.2-.2-.1-.3-.2-.5-.3-.4-.3-.7-.7-1.1-1.1-.3-.4-.6-.9-.9-1.4-.3-.5-.5-1-.6-1.6-.2-.5-.3-1-.4-1.4-.1-.4-.2-.8-.2-1 0-.3.1-.4.1-.4s.3-.1.6.1c-.1 0-.1 0 0 0z"/><path class="st2" d="M46.4 92.9l-.9-1.8h-7l.3 1.7c-.5-2.4-.9-2.6-4-7-.2-.3-.8-1.4-1.4-1.9-1.2-1.1-2-2.5-1.4-6.3.4-3.1-.7-3.7-.7-3.7l-2.5-1.1s-6.6-2.6-6.7-7c0-2.3-3.5-2.3-3.5.7 0 0-.9 8.6 7.4 11.1 0 0-.7 32 13.8 32 0 0 8.5.7 8.5-9.4l-1.9-7.3z"/><path class="st1" d="M39.1 101.9s0-.2.1-.5c0-.2 0-.3.1-.6 0-.2 0-.5.1-.7.1-1.1.3-2.6-.1-4.5-.4-1.8-1.3-3.8-2.6-5.8s-3.1-3.9-4.4-6.3c-.7-1.2-1.2-2.5-1.2-4 0-.7.1-1.3.1-1.9v-1.8c-.1-.6-.2-1.1-.4-1.5 0-.1-.1-.2-.1-.2l-.2-.1c-.3-.1-.6-.2-.8-.3-1.1-.5-2-1-2.8-1.5-.8-.6-1.6-1.1-2.2-1.7-.6-.6-1.1-1.1-1.4-1.6-.3-.5-.6-.9-.7-1.2-.1-.3-.2-.4-.2-.4 0-.1 0-.2.1-.3.1 0 .2 0 .2.1 0 0 .1.1.3.4.2.2.4.6.8 1l.6.6c.3.2.5.5.8.7.6.5 1.3 1 2.1 1.4.8.5 1.7.9 2.7 1.4.2.1.5.2.8.3l.2.1c.2.1.3.2.4.2.2.2.3.3.4.5.4.7.5 1.3.6 2 .2 1.3 0 2.7 0 3.8 0 1.1.5 2.3 1.1 3.4 1.2 2.2 3 4.2 4.3 6.2 1.4 2.1 2.4 4.3 2.8 6.3.2 1 .2 1.9.2 2.8 0 .8-.1 1.5-.2 2.1-.1.6-.3 1-.4 1.3-.1.3-.2.4-.2.4-.1.2-.3.3-.5.2-.3.1-.4-.1-.4-.3zM46.9 79.3s0 .1-.1.4c0 .3-.1.7-.2 1.1-.2 1-.5 2.4-.5 4.1 0 .9 0 1.8.1 2.7.1 1 .3 2 .6 3 .2.5.3 1 .5 1.5s.4 1.1.7 1.6c.2.5.4 1.2.6 1.7.2.6.3 1.2.4 1.8.2 1.2.4 2.4.5 3.6.1 1.2.2 2.3.2 3.5 0 2.2-.1 4.3-.3 6.1-.1.9-.2 1.7-.3 2.4-.1.7-.3 1.3-.4 1.8-.2 1-.4 1.6-.4 1.6 0 .1-.2.2-.3.2-.1 0-.2-.1-.2-.2v-.4-1.2c0-1 .1-2.5.2-4.3.1-1.8.2-3.8.1-6 0-1.1-.1-2.2-.2-3.3-.1-1.1-.3-2.3-.5-3.4-.1-.6-.3-1.1-.4-1.7-.2-.5-.3-1-.5-1.6-.2-.5-.4-1.1-.6-1.6-.2-.5-.4-1.1-.6-1.7-.3-1.1-.5-2.2-.6-3.3-.1-1.1-.1-2.1-.1-3 .1-1.8.4-3.4.7-4.4.2-.5.3-.9.5-1.2.1-.3.2-.4.2-.4.2-.2.5-.3.7-.1.1.3.2.5.2.7zM19.1 63.6s.1.1.2.4c0 .2 0 .6.1 1 .1.8.3 1.9.6 2.9.2.5.4 1 .6 1.4.1.2.3.4.4.6.1.2.3.3.4.5.1.1.3.2.4.4l.3.3.3.3c.1.1.1.2 0 .2h-.1s-.2 0-.4-.1c-.1 0-.3 0-.5-.1l-.6-.3c-.2-.2-.4-.3-.6-.5-.2-.2-.3-.4-.5-.7-.1-.2-.3-.5-.4-.8-.1-.3-.3-.5-.3-.8-.2-.6-.3-1.1-.4-1.7-.1-.5-.1-1.1-.2-1.5 0-.4-.1-.8 0-1.1 0-.3.1-.4.1-.4 0-.2.3-.2.6 0-.1 0-.1 0 0 0z"/><path class="st5" d="M93.1 129.3c-.5-3.7-1.3-6.2-1.3-6.2s-34.4-1-50.2-11.1c-9.6-6.1-18.2 4-18.2 4L10 129.3h83.1z"/><path class="st5" d="M23.2 129.3l15-16c-11.1-12.5-22.4.8-22.4.8L1.1 129.3h22.1z"/><path class="st1" d="M72 126.6c.2.4.5.8.9 1.3.3.4.7.9 1.2 1.4h2.4c-.3-.3-.7-.6-1-.9-.5-.5-1-1-1.4-1.5-.4-.5-.7-.9-.9-1.1-.2-.3-.5-.3-.5-.3-.1-.2-.4-.3-.7-.2-.2.1-.3.4-.2.7.1 0 0 .3.2.6zM36.5 129.3c-.1-.1-.3-.2-.4-.3-.1-.1-.2-.1-.3-.2 2.4-2.1 3.8-3.6 3.8-3.6.1-.1.1-.2 0-.3-.1-.1-.2-.2-.3-.1 0 0-2.3 1.4-5.5 3.9-.3.2-.6.4-.8.6h3.5z"/><path class="st1" d="M9.4 129.3h2.3L27 114.4c.8-.9 2-1.7 3.1-2.3 1.2-.6 2.5-.9 3.8-1 2.7-.2 5.4.6 7.8 1.9 1.2.6 2.4 1.4 3.8 2.1 1.3.6 2.6 1.2 4 1.7 2.7 1 5.5 1.8 8.3 2.5 2.8.7 5.6 1.3 8.4 1.8 2.8.5 5.7.9 8.5 1.3s5.7.6 8.5.8c2.9.2 5.7.3 8.6.2.1 0 .2-.1.2-.2s-.1-.3-.2-.3c-2.8-.1-5.7-.4-8.5-.7-2.8-.3-5.6-.7-8.5-1.1-2.8-.4-5.6-.9-8.4-1.4-2.8-.5-5.6-1.1-8.3-1.8-2.7-.7-5.4-1.5-8.1-2.5-1.3-.5-2.6-1.1-3.9-1.7-1.2-.6-2.4-1.4-3.7-2.1-2.6-1.4-5.6-2.3-8.6-2.1-1.5.1-3 .5-4.4 1.1-1.4.7-2.6 1.5-3.7 2.7l.1-.1-16.4 16.1z"/></svg>