<svg id="Layer_1" xmlns="http://www.w3.org/2000/svg" viewBox="0 0 388 197"><style>.st0{fill:none}.st1{fill:#E1E2E2}.st2{fill:#204A69}.st3{fill:#F6F6F6}.st5{fill:#E1E2E2}.st6{fill:#CCCED0}.st9{fill:#fff}.st10{fill:#6F93AD}.st11{fill:#B0B5B8}.st12{fill:#204A69}</style><g id="Page-1"><g id="_x37_-contact"><g id="_x37_-personalizeYourContactPage" transform="translate(52 20)"><path id="Shape_1_" class="st0" d="M115.2 193.4c-.3-2.5.1-4.9.7-7.3.6-2.2 1.4-4.3 2.5-6.4-.8-1.7-1.7-3.4-2.5-5.1H99.7v4.2c-.1 7.6 0 15.3-.5 22.9l22.3-.1c-1.1-.4-2-.9-2.9-1.6-2-1.6-3.1-4.1-3.4-6.6z"/><path id="Shape_2_" class="st0" d="M240.7 197.8c.2-.7.4-1.4.4-2.1-.1-.2-.1-.4-.1-.6.1-.2.1-.4.2-.7.2-2.7.3-6.6.3-10.5-.1-1.9-.2-3.9-.3-5.9-.1-1.2-.1-2.4-.2-3.5H135.5l-2.5 5.1c1.1 2 1.9 4.2 2.5 6.4.6 2.3.9 4.8.7 7.3-.3 2.5-1.4 5-3.4 6.7-.9.7-1.8 1.2-2.8 1.6h18.8c27.5.1 55 .1 82.6.3.2-.2.5-.4.7-.5 2-1.1 7.9-2.3 8.6-3.6z"/><path id="Shape_3_" class="st0" d="M259.6 167.8c-.2-.1-.3-.3-.4-.5l-2.4.3c.1.4-.2.7-.6.8-.2 0-.5.1-1 .2-.2 4.4-1.3 21.7-4 33.5 5.1 0 10.2.1 15.3.2-.3-2.4-2.6-18.1-4.3-33.7-1.1-.2-2-.5-2.6-.8z"/><path id="Shape_4_" class="st0" d="M268.7 67.3c1.1.4 2.2.9 3.1 1.6 3.3.8 6.5 1.7 9.6 2.8L283 57l.5.1c-.3-1-.6-2-.8-3l-.2-.4-20.5 7.4v5.3c3.1.2 5.8.6 6.7.9z"/><path id="Shape_5_" class="st0" d="M249 66.9c.8-.3 2.3-.5 4-.6v-.1c-.1-.1-.2-.3-.3-.5l-.1-1.1-5.8 2.1v1.2c.6-.3 1.4-.6 2.2-1z"/><path id="Shape_6_" class="st1" d="M52.7 30.3h-2.2v-2.2c0-.4-.1-.7-.4-1-.3-.3-.6-.4-1-.4s-.7.1-1 .4-.4.6-.4 1v3.6c0 .4.2.7.4 1 .3.3.6.4 1 .4h3.6c.4 0 .7-.1 1-.4.3-.3.4-.6.4-1s-.2-.7-.4-1c-.3-.2-.6-.4-1-.4z"/><path id="Shape_7_" class="st1" d="M246.8 12.1s-.1 0 0 0c-.8 0-1.4.7-1.4 1.4v7.3c0 .4.2.7.4 1 .3.3.6.4 1 .4s.7-.1 1-.4.4-.6.4-1v-7.3c0-.4-.1-.7-.4-1-.3-.2-.6-.4-1-.4z"/><path id="Shape_8_" class="st1" d="M58 1.7C57.7 1 56.9.6 56.1.9c-2.6 1-4.8 2.7-6.3 5-.2.3-.3.7-.2 1.1s.3.7.6.9h.1c.6.4 1.5.2 1.9-.4 1.2-1.8 2.9-3.2 4.9-3.9.7-.3 1.1-1 .8-1.7.1-.1.1-.2.1-.2z"/><path id="Shape_9_" class="st1" d="M49.1 22.3c.4 0 .7-.2 1-.4s.4-.6.4-1v-7.3c0-.8-.6-1.4-1.4-1.4H49c-.4 0-.7.1-1 .4-.3.3-.4.6-.4 1v7.3c.1.8.7 1.4 1.5 1.4z"/><path id="Shape_10_" class="st1" d="M72.6 1.4c0-.4-.2-.7-.4-1s-.6-.4-1-.4h-7.3c-.4 0-.7.1-1 .4s-.4.6-.4 1c0 .8.6 1.4 1.4 1.4h7.3c.8.1 1.4-.6 1.4-1.4z"/><path id="Shape_11_" class="st1" d="M218.8 1.4c0-.4-.2-.7-.4-1-.3-.3-.6-.4-1-.4H210c-.4 0-.7.1-1 .4s-.4.6-.4 1c0 .8.6 1.4 1.4 1.4h7.3c.4 0 .7-.1 1-.4.3-.2.5-.6.5-1z"/><path id="Shape_12_" class="st1" d="M204.2 1.4c0-.4-.2-.7-.4-1-.3-.3-.6-.4-1-.4h-7.3c-.4 0-.7.1-1 .4s-.4.6-.4 1c0 .8.6 1.4 1.4 1.4h7.3c.4 0 .7-.1 1-.4.2-.2.4-.6.4-1z"/><path id="Shape_13_" class="st1" d="M180.8 2.9h7.3c.8 0 1.4-.6 1.4-1.4 0-.4-.2-.7-.4-1-.3-.3-.6-.4-1-.4h-7.3c-.4 0-.7.1-1 .4s-.4.6-.4 1 .2.7.4 1 .6.4 1 .4z"/><path id="Shape_14_" class="st1" d="M233.4 1.4c0-.4-.2-.7-.4-1-.3-.3-.6-.4-1-.4h-7.3c-.4 0-.7.1-1 .4s-.4.6-.4 1c0 .8.6 1.4 1.4 1.4h7.3c.4 0 .7-.1 1-.4.2-.2.4-.6.4-1z"/><path id="Shape_15_" class="st1" d="M166.2 2.9h7.3c.8 0 1.4-.6 1.4-1.4 0-.4-.2-.7-.4-1-.3-.3-.6-.4-1-.4h-7.3c-.4 0-.7.1-1 .4s-.4.6-.4 1 .2.7.4 1 .6.4 1 .4z"/><path id="Shape_16_" class="st1" d="M243.6 7.4c.4.6 1.3.8 1.9.4h.1c.3-.2.5-.5.6-.9s0-.8-.2-1.1c-1.5-2.3-3.7-4-6.3-5-.7-.3-1.6.1-1.9.8v.1c-.2.7.2 1.5.9 1.7 2 .9 3.7 2.3 4.9 4z"/><path id="Shape_17_" class="st1" d="M101.8 1.4c0-.4-.2-.7-.4-1s-.6-.4-1-.4h-7.3c-.4 0-.7.1-1 .4s-.4.6-.4 1c0 .8.6 1.4 1.4 1.4h7.3c.4 0 .7-.1 1-.4s.4-.6.4-1z"/><path id="Shape_18_" class="st1" d="M87.2 1.4c0-.4-.2-.7-.4-1-.3-.3-.6-.4-1-.4h-7.3c-.4 0-.7.1-1 .4s-.4.6-.4 1c0 .8.6 1.4 1.4 1.4h7.3c.4 0 .7-.1 1-.4.3-.2.4-.6.4-1z"/><path id="Shape_19_" class="st1" d="M151.6 2.9h7.3c.8 0 1.4-.6 1.4-1.4 0-.4-.2-.7-.4-1-.3-.3-.6-.4-1-.4h-7.3c-.4 0-.7.1-1 .4s-.4.6-.4 1 .2.7.4 1 .6.4 1 .4z"/><path id="Shape_20_" class="st1" d="M137 2.9h7.3c.8 0 1.4-.6 1.4-1.4 0-.4-.2-.7-.4-1-.3-.3-.6-.4-1-.4H137c-.4 0-.7.1-1 .4s-.4.6-.4 1 .2.7.4 1c.2.2.6.4 1 .4z"/><path id="Shape_21_" class="st1" d="M122.3 2.9h7.3c.8 0 1.4-.6 1.4-1.4 0-.4-.2-.7-.4-1-.3-.3-.6-.4-1-.4h-7.3c-.4 0-.7.1-1 .4s-.4.6-.4 1 .2.7.4 1c.3.2.7.4 1 .4z"/><path id="Shape_22_" class="st1" d="M107.7 2.9h7.3c.8 0 1.4-.6 1.4-1.4 0-.4-.2-.7-.4-1-.3-.3-.6-.4-1-.4h-7.3c-.4 0-.7.1-1 .4s-.4.6-.4 1c0 .7.6 1.4 1.4 1.4z"/><path id="Shape_23_" class="st1" d="M246.8 26.8c-.8 0-1.4.6-1.4 1.4v2.1h-2.2c-.8 0-1.4.6-1.4 1.4 0 .4.2.7.4 1 .3.3.6.4 1 .4h3.6c.4 0 .7-.1 1-.4.3-.3.4-.6.4-1v-3.6c0-.4-.2-.7-.4-1-.3-.2-.6-.4-1-.3z"/><path id="Shape_24_" class="st1" d="M151.5 30.3h-7.1c-.8 0-1.4.6-1.4 1.4 0 .4.2.7.4 1 .3.3.6.4 1 .4h7.1c.4 0 .7-.1 1-.4.3-.3.4-.6.4-1s-.2-.7-.4-1c-.3-.2-.7-.4-1-.4z"/><path id="Shape_25_" class="st1" d="M193.8 30.3h-7.1c-.8 0-1.4.6-1.4 1.4 0 .4.2.7.4 1 .3.3.6.4 1 .4h7.1c.4 0 .7-.1 1-.4.3-.3.4-.6.4-1s-.2-.7-.4-1c-.3-.2-.6-.4-1-.4z"/><path id="Shape_26_" class="st1" d="M66.8 30.3h-7.1c-.8 0-1.4.6-1.4 1.4 0 .4.2.7.4 1 .3.3.6.4 1 .4h7.1c.4 0 .7-.1 1-.4.3-.3.4-.6.4-1s-.2-.7-.4-1-.6-.4-1-.4z"/><path id="Shape_27_" class="st1" d="M179.7 30.3h-7.1c-.8 0-1.4.6-1.4 1.4 0 .4.2.7.4 1 .3.3.6.4 1 .4h7.1c.4 0 .7-.1 1-.4.3-.3.4-.6.4-1s-.2-.7-.4-1c-.3-.2-.6-.4-1-.4z"/><path id="Shape_28_" class="st1" d="M207.9 30.3h-7.1c-.8 0-1.4.6-1.4 1.4 0 .4.2.7.4 1 .3.3.6.4 1 .4h7.1c.4 0 .7-.1 1-.4.3-.3.4-.6.4-1s-.2-.7-.4-1-.6-.4-1-.4z"/><path id="Shape_29_" class="st1" d="M222 30.3h-7c-.8 0-1.4.6-1.4 1.4 0 .4.2.7.4 1 .3.3.6.4 1 .4h7.1c.4 0 .7-.1 1-.4.3-.3.4-.6.4-1s-.2-.7-.4-1c-.3-.2-.7-.4-1.1-.4z"/><path id="Shape_30_" class="st1" d="M236.1 30.3H229c-.8 0-1.4.6-1.4 1.4 0 .4.2.7.4 1 .3.3.6.4 1 .4h7.1c.4 0 .7-.1 1-.4.3-.3.4-.6.4-1s-.2-.7-.4-1c-.2-.2-.6-.4-1-.4z"/><path id="Shape_31_" class="st1" d="M165.6 30.3h-7.1c-.8 0-1.4.6-1.4 1.4 0 .4.2.7.4 1 .3.3.6.4 1 .4h7.1c.4 0 .7-.1 1-.4.3-.3.4-.6.4-1s-.2-.7-.4-1c-.3-.2-.6-.4-1-.4z"/><path id="Shape_32_" class="st1" d="M95 30.3h-7c-.8 0-1.4.6-1.4 1.4 0 .4.2.7.4 1 .3.3.6.4 1 .4h7c.4 0 .7-.1 1-.4.3-.3.4-.6.4-1s-.2-.7-.4-1-.6-.4-1-.4z"/><path id="Shape_33_" class="st1" d="M80.9 30.3h-7.1c-.4 0-.7.2-1 .4-.3.3-.4.6-.4 1s.2.7.4 1c.3.3.6.4 1 .4h7.1c.4 0 .7-.1 1-.4.3-.3.4-.6.4-1s-.2-.7-.4-1-.6-.4-1-.4z"/><path id="Shape_34_" class="st1" d="M137.4 30.3h-7.1c-.8 0-1.4.6-1.4 1.4 0 .4.2.7.4 1 .3.3.6.4 1 .4h7.1c.4 0 .7-.1 1-.4.3-.3.4-.6.4-1s-.2-.7-.4-1c-.3-.2-.7-.4-1-.4z"/><path id="Shape_35_" class="st1" d="M123.2 30.3h-7.1c-.8 0-1.4.6-1.4 1.4 0 .4.2.7.4 1 .3.3.6.4 1 .4h7.1c.4 0 .7-.1 1-.4.3-.3.4-.6.4-1s-.2-.7-.4-1c-.2-.2-.6-.4-1-.4z"/><path id="Shape_36_" class="st1" d="M109.1 30.3h-7c-.8 0-1.4.6-1.4 1.4 0 .4.2.7.4 1 .3.3.6.4 1 .4h7.1c.4 0 .7-.1 1-.4.3-.3.4-.6.4-1s-.2-.8-.4-1c-.3-.2-.7-.4-1.1-.4z"/><path id="Shape_37_" class="st2" d="M94.1 57.6c9 .2 17.9.3 26.9.3s17.9.1 26.9.1l26.9-.1 13.5-.1 13.5-.2c.5 0 1-.4 1-1 0-.5-.4-1-1-1l-13.5-.2-13.5-.1-26.9-.1c-9 0-17.9 0-26.9.1l-26.9.3c-.5 0-1 .4-1 1s.5 1 1 1z"/><path id="Shape_38_" class="st2" d="M175.9 66.3l-25.8-.1c-8.6 0-17.2 0-25.8.1l-25.8.3c-.5 0-1 .4-1 1s.4 1 1 1c8.6.2 17.2.3 25.8.3s17.2.1 25.8.1l25.8-.1 10.1-.1 1.9-2.5h-12z"/><path id="Shape_40_" class="st3" d="M225 76.9l12.5 7.7s2.7-9.2 6-14c.6-1.1 1.7-1.9 3.3-2.7v-1.2l-22.9 8.4c.4.6.8 1.2 1.1 1.8z"/><path id="Shape_41_" class="st3" d="M49.1 174.4h198.7v17H49.1v-17zm194-141.3c-.4 0-.7-.1-1-.4-.3-.3-.4-.6-.4-1h-4.2c0 .4-.2.7-.4 1-.3.3-.6.4-1 .4H229c-.4 0-.7-.1-1-.4-.3-.3-.4-.6-.4-1h-4.2c0 .4-.2.7-.4 1-.3.3-.6.4-1 .4h-7.1c-.4 0-.7-.1-1-.4-.3-.3-.4-.6-.4-1h-4.2c0 .4-.2.7-.4 1-.3.3-.6.4-1 .4h-7.1c-.4 0-.7-.1-1-.4-.3-.3-.4-.6-.4-1h-4.2c0 .4-.2.7-.4 1-.3.3-.6.4-1 .4h-7.1c-.4 0-.7-.1-1-.4-.3-.3-.4-.6-.4-1H181c0 .4-.2.7-.4 1-.3.3-.6.4-1 .4h-7c-.4 0-.7-.1-1-.4-.3-.3-.4-.6-.4-1H167c0 .4-.2.7-.4 1-.3.3-.6.4-1 .4h-7.1c-.4 0-.7-.1-1-.4-.3-.3-.4-.6-.4-1h-4.2c0 .4-.2.7-.4 1-.3.3-.6.4-1 .4h-7c-.4 0-.7-.1-1-.4-.3-.3-.4-.6-.4-1h-4.2c0 .4-.2.7-.4 1-.3.3-.6.4-1 .4h-7.1c-.4 0-.7-.1-1-.4-.3-.3-.4-.6-.4-1h-4.2c0 .4-.2.7-.4 1-.3.3-.6.4-1 .4h-7.1c-.4 0-.7-.1-1-.4-.3-.3-.4-.6-.4-1h-4.2c0 .4-.2.7-.4 1-.3.3-.6.4-1 .4h-7c-.4 0-.7-.1-1-.4-.3-.3-.4-.6-.4-1h-4.2c0 .4-.2.7-.4 1-.3.3-.6.4-1 .4h-7.1c-.4 0-.7-.1-1-.4-.3-.3-.4-.6-.4-1h-4.2c0 .4-.2.7-.4 1-.3.3-.6.4-1 .4h-7.1c-.4 0-.7-.1-1-.4-.3-.3-.4-.6-.4-1h-4.2c0 .4-.2.7-.4 1-.3.3-.6.4-1 .4H60c-.4 0-.7-.1-1-.4-.3-.3-.4-.6-.4-1H54c0 .4-.2.7-.4 1-.3.3-.6.4-1 .4h-3.5v71.5h10.5c.5 0 .9 0 1.4.1 2 .3 3.6 1.9 3.9 4 .1.7.1 1.1.1 1.7l.1 3.3.3 6.5.3 6.5v.9h5c.7 0 1.3.3 1.7.8.2.3.4.6.4 1v.7l.1 1.3.1 2.6c.1 3.1.2 6.2.2 9.3l25.7.2c.1 0 .2 0 .3.1s.1.2.1.3l-.3 11.5h-.1c.4 3.9.5 7.7.6 11.6l.1 7.4h141.3c-.1-1.9-.2-3.7-.2-5.4-.6-.1-1.1-.4-1.6-.7-.6-.4-1-1.1-1-1.8 0-.6-.1-1.6-.2-2.8-.6-7.3-2.1-24.3 1-43.7 0-.1.1-.2.2-.3.1-.5.1-.9.2-1.4.2-1.7 1.3-3.3 2.8-4.1-.2-.1-.3-.3-.3-.6 0-.2.1-.4.2-.5s.3-.2.5-.2h1.4l-.5-15.2c-8.5 2.8-22.7-13.4-22.7-13.4l.1-.2c-.1.1-.2.1-.4.1h-.1c-4.9-.6-6.2-2.2-6.9-5.2v-.4l-13.8 5V96h-51.7V81.3h39l-1.4-.3v.1l-7.6-1.8.1-.1h-.1l8-10.4-10.1.1-25.8.1c-8.6 0-17.2 0-25.8-.1l-25.8-.3c-.5 0-1-.4-1-1s.4-1 1-1c8.6-.2 17.2-.3 25.8-.3s17.2-.1 25.8-.1l25.8.1 12 .1 2.7-3.5 16.6-6.1v.1l39.5-14.4v-9.3l-3.5-.1zM122.2 161.8c-.1.1-.2.2-.4.3-.7.6-1.5 1-2.4 1.1-1.7.3-3.5 0-4.9-1.1l.1-.1c-.6-.2-1.1-.7-1.2-1.4-.1-.3 0-.7.1-1s.3-.6.5-.8c.8-.9 1.8-1.6 3-1.9 1.2-.3 2.4-.2 3.5.2l.1.1c-.2-.5-.5-.9-.7-1.3-.3-.5-.6-1-1-1.4-.1.2-.2.3-.3.5-.5.7-1.3 1.3-2.1 1.7-1.6.7-3.4.8-5 .1v-.2c-.6-.1-1.2-.5-1.5-1.1-.1-.3-.2-.7-.2-1s.2-.6.3-.9c.5-1.1 1.4-2 2.4-2.5s2.1-.7 3.2-.7c0-.1.1-.3.2-.4l.9-.9c.3-.4.9-.4 1.3 0 .2.2.3.4.5.5v-.3c.2-1 .7-1.9 1.5-2.7.8-.7 1.7-1.2 2.7-1.5.2-.1.5-.1.8-.2l.4-.1h.5c.7 0 1.3.3 1.8.9.5.5.7 1.2.7 1.8s-.2 1.1-.4 1.6c-.4.9-1.1 1.8-1.9 2.4-.8.6-1.8 1-2.8 1.1h-.4c.3.5.6.9.9 1.4s.6 1.1.9 1.6c.4-.7.9-1.3 1.6-1.8.9-.6 1.9-1 2.9-1.1.5-.1 1-.1 1.5 0 .7.1 1.4.4 1.8 1 .4.6.5 1.4.3 2.1-.2.5-.4 1-.7 1.4-.6.9-1.3 1.6-2.3 2.1-.9.5-1.9.7-2.9.7-.3 0-.5 0-.8-.1v.1c.3 1.3.4 2.7.5 4 .1-.2.2-.3.3-.5.7-.8 1.6-1.4 2.6-1.6 1-.3 2.1-.3 3.1-.1.5.1 1 .3 1.5.5.7.3 1.2.9 1.3 1.6.2.7 0 1.5-.4 2-.3.4-.7.8-1.1 1.1-.8.7-1.8 1.1-2.9 1.2-1 .1-2 0-3-.3-.5-.2-.9-.4-1.3-.7l-.1-.1v2.4c0 .8-.1 1.8-.2 2.8v.4h-.1l-.7.1h-.6c-.1 0-.3-.1-.3-.2v-.3l-.3-4c-.7.5-1.6.8-2.5.9-1.7.2-3.5-.3-4.8-1.5l.1-.1c-.6-.3-1-.8-1.1-1.5 0-.3 0-.7.2-1 .1-.3.3-.6.6-.8.8-.9 1.9-1.4 3.1-1.6 1.2-.2 2.4 0 3.5.5.2.1.3.2.5.2l-.4-1.6zm77.4-1.4h-37.5v-13.7h37.5v13.7zm0-20.6H96.1v-14.7h103.4v14.7h.1zm0-37v14.7H96.1v-14.7h103.5zm-88.7-22.1h31.2v14.7h-46c0-3.9 1.6-7.7 4.3-10.4 2.8-2.8 6.6-4.3 10.5-4.3zm90.8-23.2l-13.5.2-13.5.1-26.9.1c-9 0-17.9 0-26.9-.1L94 57.5c-.5 0-1-.4-1-1 0-.5.4-1 1-1 9-.2 17.9-.3 26.9-.3s17.9-.1 26.9-.1l26.9.1 13.5.1 13.5.2c.5 0 1 .4 1 1-.1.5-.5 1-1 1z"/><path class="st3" d="M49.2 88.8h84.7v92.3H49.2z"/><path id="Shape_43_" class="st3" d="M57.5 156.1h-8.4v18.4h49l.1-7.4c.1-3.9.2-7.7.6-11.6l-20.4.3-20.9.3z"/><path id="Shape_45_" d="M296.7 202.7c-4-.1-7.9-.1-11.9-.2-.1.1-.2.1-.2.2l-16.5-.2c0 .3-.3.6-.6.7h-.1c-.4 0-.7-.3-.7-.6v-.3c-5.1-.1-10.2-.1-15.3-.2-.1.4-.2.8-.3 1.1l-19.6.3s-1.1-.7-.2-1.5c-27.5-.2-55-.2-82.6-.3h-27.1l-22.3.1v.4c0 .2-.1.3-.3.3s-.3-.1-.3-.3v-.4l-24 .1c-24.7.2-49.3.4-74 1.2-.2 0-.3.1-.3.3s.1.3.3.3c24.7.8 49.3 1 74 1.2l74 .2c49.3-.2 98.7-.1 148-1 .3 0 .5-.3.5-.6 0-.6-.2-.8-.5-.8z" fill="#F6F6F6"/><path id="Shape_48_" class="st5" d="M192.1 66.6l-1.4-3.6 16.6-6.1-16.7 6-2.7 3.6h1l3.2.1z"/><path id="Shape_49_" class="st5" d="M193 68.8l-4.1.1H186l-8.1 10.4h.1l4.6-5.8 2.9 7.6 1.4.3h10.9L193 68.8z"/><path id="Shape_50_" class="st5" d="M193 68.8l-.9-2.2-3.2-.1h-1l-1.9 2.4h2.9l4.1-.1z"/><path id="Shape_51_" class="st5" d="M198.8 84.1l-1-2.7h-10.9l11.9 2.8v-.1z"/><path id="Rectangle-path" class="st6" d="M162.2 146.9h37.5v13.7h-37.5v-13.7z"/><path id="Shape_52_" class="st6" d="M292.1 45.2c-.8-2-1.6-4.1-2.4-6.2s-1.5-4.2-2.2-6.3c-.5-1.5-1-3-1.4-4.6l-28.2 10.3c1.6.3 3.2.9 4.7 1.7 1.2.6 2.1 1.7 2.8 3.1l7.3-2.7 1.7-.6.6.1c1.7.4 3 1.6 3.6 3.2s.3 3.4-.7 4.8l-.3.4-1.6.6-8.7 3.2-.7.2c-.5 3.5-2 6.7-4.7 8v.7l20.6-7.5c-1.3-3.3-1.8-4.8-1.3-5.6.2-.3.6-.4.9-.5 1.6 0 3.6 2.3 4.7 3.6 0-.2 0-.5-.1-.7 0-.2 0-.4.1-.5.1-.2.3-.3.4-.3h.3l4.1-1c.1-.1.2-.2.4-.3.2-.1.4 0 .5.1.2.1.3.2.3.4.1.3.1.6.2.9l.6-.2c-.3-1.5-.9-2.9-1.5-4.3z"/><path id="Shape_53_" class="st6" d="M246.8 56.1l-.3-1.5v-.2c-.3.1-.5.2-.8.2s-.6-.1-.9-.3c-1.2-.7-1.4-2.6-1.2-4 .2-1.7 1.4-2.7 2.3-2.9.3-.1.6 0 .9.1 0-.1.1-.3.1-.4.1-.3.2-.5.3-.8 0-.2.1-.4.1-.6.5-1.5 1.2-2.9 2.1-4.2l-2.5.9-39.5 14.4-16.7 6.2 1.4 3.6.9 2.3 4.8 12.6 1 2.7v.1l.8-.3 13.8-5v-.1c.1-.2.3-.3.5-.4h.1l1.1-.7 1.7-1.1c.1-.1.1-.2.2-.3.2-.1.4-.1.5-.1.2 0 .4.2.5.3.1.2.3.4.5.5l.8-.3c0-.4-.4-1.2-.7-1.7-.5-1.1-1.2-2.4-.1-3.1.5-.2 1.1-.3 1.6 0 1.1.4 2.4 1.5 3.6 3.1l22.9-8.4 5.8-2.1-.3-2.3c-3.3-.8-4.6-3.3-5.3-6.2z"/><path id="Shape_54_" class="st6" d="M244.9 51.5c0 .9.3 1.5.6 1.7.2.1.5 0 .7-.2 0-.4-.1-.7-.1-1.1l-1.2-.4z"/><path id="Shape_55_" class="st6" d="M246.1 48.9c-.2 0-.3.1-.4.2-.3.2-.5.6-.6.9l1.1.4c0-.5.1-.9.2-1.4-.2 0-.2-.1-.3-.1z"/><path id="Shape_56_" class="st2" d="M178 79.4l7.5 1.8v-.1l-7.5-1.7z"/><path id="Shape_57_" class="st2" d="M178 79.3l7.5 1.8-2.9-7.6-4.6 5.8z"/><path id="Shape_58_" d="M292.4 38c.8 2.1 1.5 4.2 2.2 6.2.5 1.5.9 2.9 1.4 4.4l9.7-3.5-5.4-14.2c-1.5-3.9-5.9-5.9-9.8-4.5l-2.3.9c.7 1.5 1.3 3 1.9 4.5.8 2 1.5 4.1 2.3 6.2z" fill="#46799A"/><path id="Shape_60_" d="M296.5 50.6c-.2-.6-.4-1.3-.6-1.9-.4-1.5-.9-3-1.4-4.4-.7-2.1-1.4-4.2-2.2-6.2s-1.5-4.1-2.4-6.2c-.6-1.5-1.2-3-1.9-4.5-.2-.5-.5-1.1-.7-1.6s-.7-.7-1.2-.5-.7.7-.6 1.2c.2.6.3 1.2.5 1.8.5 1.5.9 3.1 1.4 4.6.7 2.1 1.5 4.2 2.2 6.3s1.5 4.1 2.4 6.2c.6 1.4 1.2 2.9 1.9 4.3.3.6.5 1.2.8 1.8.2.5.7.7 1.2.5.5-.4.8-.9.6-1.4z" fill="#CCCED0"/><path id="Shape_61_" class="st9" d="M243.2 30.3h2.2v-2.2c0-.8.6-1.4 1.4-1.4v-4.5c-.8 0-1.4-.6-1.4-1.4v-7.3c0-.8.6-1.4 1.4-1.4-.1-1.5-.5-2.9-1.2-4.2-.6.4-1.5.2-1.9-.4-1.2-1.8-2.9-3.2-4.9-3.9-.7-.3-1.1-1-.9-1.7-.9-.2-1.9-.3-2.8-.3h-1.6c0 .8-.6 1.4-1.4 1.4h-7.3c-.8 0-1.4-.6-1.4-1.4H219c0 .4-.2.7-.4 1-.3.3-.6.4-1 .4H210c-.8 0-1.4-.6-1.4-1.4h-4.4c0 .8-.6 1.4-1.4 1.4h-7.3c-.8 0-1.4-.6-1.4-1.4h-4.4c0 .4-.2.7-.4 1-.3.3-.6.4-1 .4H181c-.8 0-1.4-.6-1.4-1.4h-4.4c0 .8-.6 1.4-1.4 1.4h-7.3c-.8 0-1.4-.6-1.4-1.4h-4.4c0 .8-.6 1.4-1.4 1.4H152c-.8 0-1.4-.6-1.4-1.4h-4.4c0 .8-.6 1.4-1.4 1.4H137c-.8 0-1.4-.6-1.4-1.4h-4.4c0 .8-.6 1.4-1.4 1.4h-7.3c-.8 0-1.4-.6-1.4-1.4h-4.4c0 .8-.6 1.4-1.4 1.4H108c-.8 0-1.4-.6-1.4-1.4h-4.4c0 .4-.2.7-.4 1s-.6.4-1 .4h-7.3c-.8 0-1.4-.6-1.4-1.4h-4.4c0 .8-.6 1.4-1.4 1.4H79c-.8 0-1.4-.6-1.4-1.4h-4.4c0 .4-.2.7-.4 1-.3.3-.6.4-1 .4h-7.3c-.8 0-1.4-.6-1.4-1.4h-1.6c-1 0-1.9.1-2.9.4.2.7-.1 1.5-.8 1.7-2 .8-3.7 2.2-4.9 3.9-.4.6-1.2.8-1.9.4-.7 1.3-1.1 2.8-1.2 4.2.8 0 1.4.7 1.4 1.4v7.3c0 .4-.1.7-.4 1-.3.3-.6.4-1 .4v4.4c.4 0 .7.2 1 .4.3.3.4.6.4 1v2.1h2.2c.8 0 1.4.6 1.4 1.4H59c0-.4.2-.7.4-1 .3-.3.6-.4 1-.4h7.1c.8 0 1.4.6 1.4 1.4h4.2c0-.8.6-1.4 1.4-1.4h7.1c.8 0 1.4.6 1.4 1.4h4.2c0-.8.6-1.4 1.4-1.4H95c.4 0 .7.2 1 .4.3.3.4.6.4 1h4.2c0-.8.6-1.4 1.4-1.4h7.1c.4 0 .7.2 1 .4.3.3.4.6.4 1h4.2c0-.8.6-1.4 1.4-1.4h7.1c.4 0 .7.2 1 .4.3.3.4.6.4 1h4.2c0-.8.6-1.4 1.4-1.4h7.1c.8 0 1.4.6 1.4 1.4h4.2c0-.8.6-1.4 1.4-1.4h7.1c.8 0 1.4.6 1.4 1.4h4.2c0-.8.6-1.4 1.4-1.4h7.1c.8 0 1.4.6 1.4 1.4h4.2c0-.8.6-1.4 1.4-1.4h7.1c.4 0 .7.2 1 .4.3.3.4.6.4 1h4.2c0-.8.6-1.4 1.4-1.4h7.1c.8 0 1.4.6 1.4 1.4h4.2c0-.4.2-.7.4-1s.6-.4 1-.4h7.1c.8 0 1.4.6 1.4 1.4h4.2c0-.8.6-1.4 1.4-1.4h7.1c.8 0 1.4.6 1.4 1.4h4.2c0-.8.6-1.4 1.4-1.4h7.1c.8 0 1.4.6 1.4 1.4h4.2c0-.4.1-.7.4-1 .4-.1.8-.3 1.2-.3z"/><path id="Shape_66_" class="st9" d="M111 80.8c-8.2 0-14.8 6.6-14.8 14.7h46V80.8H111z"/><path id="Rectangle-path_1_" class="st9" d="M96.2 125.2h103.4v14.7H96.2v-14.7z"/><path id="Shape_67_" class="st9" d="M198.8 84.1l-11.9-2.7h-39v14.7h51.8V83.9l-.8.3-.1-.1z"/><path id="Rectangle-path_2_" class="st9" d="M96.2 102.9h103.4v14.7H96.2v-14.7z"/><path id="Shape_68_" class="st9" d="M266.7 52.5l.7-.2L276 49l1.7-.6.3-.4c1-1.4 1.3-3.2.7-4.8s-2-2.8-3.6-3.2l-.6-.1-1.7.6-7.3 2.7c1.2 2.6 1.6 6.1 1.2 9.3z"/><path id="Shape_69_" class="st9" d="M274 138.8c.8.8 1.9 1.1 3.1 1l1.4-.4h.1l-.3-3.2-5.1.5c-.1.9.3 1.6.8 2.1z"/><path id="Shape_70_" class="st9" d="M278.2 144.2c0-.4.3-.7.7-.8l-.2-2.6-1.3.3h-.6c-1.4 0-2.7-.5-3.7-1.4-.8-.7-1.3-1.8-1.3-2.9l-.5.1h-.1c-.4 0-.7-.3-.7-.7s.3-.7.6-.7l7-.8-.1-1.7h-.1c-.4 0-.7-.3-.7-.7l-1.5-18.2-28.9.3h-4.4c-.2 0-.3-.1-.4-.2-1.5.8-2.6 2.3-2.8 4.1-.1.5-.1.9-.2 1.4.2-.3.5-.3.8-.2s.5.4.4.8c-3.1 19.2-1.6 36.2-.9 43.4.1 1.2.2 2.2.2 2.8 0 .3.2.6.4.8 1.1.9 3.8 1 6.8.8 3.1-.2 6.2-.6 9.2-1.2.4-.1.8.2.8.6v.1l2.4-.3c-1.8-3.5-1.4-21.7-1.1-29.8 0-.4.3-.7.7-.7.4 0 .7.3.7.7-.4 13.3-.2 27.8.9 29.1 2 1.3 12.4.4 19-.6l-1.1-21.8z"/><path id="Shape_71_" class="st10" d="M256 167c-3 .6-6.1 1-9.2 1.2-2.9.2-5.6 0-6.8-.8-.3-.2-.4-.5-.4-.8 0-.7-.1-1.6-.2-2.8-.6-7.2-2.1-24.2.9-43.4.1-.3-.1-.6-.4-.8-.3-.1-.6 0-.8.2-.1.1-.1.2-.2.3-3.1 19.4-1.6 36.5-1 43.7.1 1.2.2 2.1.2 2.8s.4 1.4 1 1.8c.5.3 1 .6 1.6.7v-.3c0-.4.3-.7.7-.7.3 0 .6.3.7.6v.8c.9.1 1.9.2 2.8.2.6 0 1.2 0 1.8-.1 2.9-.2 5.7-.5 8.6-1.1.5-.1.8-.2 1-.2.4-.1.6-.4.6-.8v-.1c-.1-.2-.5-.5-.9-.4z"/><path id="Shape_72_" class="st10" d="M279.7 144.1c0-.2-.1-.4-.2-.5s-.3-.2-.5-.2c-.4 0-.7.4-.7.8l1.2 21.8c-6.6.9-17.1 1.9-19 .6-1.1-1.3-1.3-15.8-.9-29.1 0-.4-.3-.7-.7-.7-.4 0-.7.3-.7.7-.3 8.1-.7 26.3 1.1 29.8.1.2.2.4.4.5.6.4 1.5.6 2.7.8v-.3c0-.4.3-.7.6-.7.4 0 .7.2.8.6l.1.5h1.7c4.1 0 9.1-.6 12.2-.9 1.3-.2 2.3-.3 2.6-.4.4-.1.6-.4.6-.7l-1.3-22.6z"/><path id="Shape_73_" class="st10" d="M277.9 133.1c.5 0 .7-.4.7-.8l-1.5-18.9v-.1.2c0 .4-.3.7-.7.7h-.8l1.5 18.2c.1.4.4.7.8.7z"/><path id="Shape_74_" class="st10" d="M271.2 137.1l.5-.1c0 1.1.5 2.1 1.3 2.9 1 .9 2.3 1.4 3.7 1.4h.6l1.3-.3h.2c.2 0 .3-.2.4-.3s.1-.4.1-.5c-.1-.4-.4-.6-.8-.5h-.1l-1.4.4c-1.1.1-2.2-.3-3.1-1-.6-.5-.9-1.2-.8-2l5.1-.6 1-.1c.4 0 .7-.4.6-.8 0-.4-.4-.7-.8-.6l-.9.1-7 .8c-.4.1-.6.4-.6.7 0 .1.3.4.7.5z"/><path id="Shape_75_" class="st11" d="M245 169.7c-.9 0-1.9-.1-2.8-.2 0 1.6.1 3.3.2 5.1.1 1.1.1 2.2.2 3.4.4 6.8.9 13.9-.2 17.6-.1.3-.4.5-.7.5h-.2c-.2-.1-.3-.2-.4-.3 0 .7-.2 1.4-.4 2.1-.7 1.3-6.5 2.5-8.7 3.6-.3.1-.5.3-.7.5-.9.8.2 1.5.2 1.5l19.6-.3c.1-.4.2-.8.3-1.1 2.7-11.8 3.8-29.1 4-33.5-2.8.5-5.7.9-8.6 1.1H245z"/><path id="Shape_76_" class="st11" d="M284 200.6c-2.2-1.1-8-2.3-8.7-3.6-1.1-2.3 1.7-24.4 2.4-29.3-3.1.4-8.1.9-12.2.9h-1.7c1.7 16.2 4.1 32.3 4.3 33.6v.2l16.5.2c.1-.1.2-.1.2-.2.3-.3.7-1-.8-1.8z"/><path id="Shape_77_" class="st11" d="M252.2 58.9c-1.3-.8-2.2-2.2-2.2-3.7l.2-1.9-2.6-.9c0 .7.1 1.3.3 2 .7 3.4 1.6 6 5.3 6.6.3.1.6.3.6.6l.3 2.5.2 1.5c0 .3-.1.6-.3.7 2.7-.1 5.4 0 8.2.2v-6c-.4.2-.8.3-1.2.4-4 .9-6.9-.9-8.8-2z"/><path id="Shape_78_" class="st11" d="M250.7 48.7s-1.7.2-2.7-.4c-.2.8-.3 1.7-.4 2.6l2.8.9.3-3.1z"/><path id="Shape_79_" class="st11" d="M219.9 73.3c-.1-.1-.3-.1-.4-.1.1.4.3.8.5 1.1.3.6.6 1.2.8 1.9.1.7.1 1.4-.5 1.9-.4.4-1 .5-1.5.5-.6-.1-1.2-.5-1.6-1l-.2-.2c-.1-.2-.2-.5 0-.7l-1.7 1.1-1.1.7c.1 0 .2 0 .3.1.2.1.4.3.4.5.6 2.4 1.5 3.6 5.7 4.1.4 0 .6.3.6.7l3-5.4c-.4-1-1-1.9-1.6-2.7-1-1.3-2-2.1-2.7-2.5z"/><path id="Shape_80_" class="st11" d="M282.7 54c.3 1 .5 2 .8 3l.3.1c-.2-.9-.7-2-1.1-3.1z"/><path id="Shape_81_" class="st11" d="M291.9 50.2c-.1-.3-.1-.6-.2-.9-.1-.2 0-.4.1-.6l-4.1 1c.3.1.5.3.5.5.1.5.1.9 0 1.4-.1.6-.5 1.2-1 1.5-.2.1-.4.1-.6 0-.1 0-.3-.1-.3-.2-.1-.1-.2-.3-.3-.5-1-1.3-2.5-2.9-3.5-3.2.1.8.8 2.6 1.4 4l.1.4c.5 1.3 1.1 2.6 1.4 3.7 0 .1 0 .1.1.2l5.2.8c0-.1.1-.2.1-.3.5-.6 1.9-4 1.1-7.8z"/><path id="Shape_82_" class="st12" d="M220.5 83c-4.1-.5-5.1-1.6-5.7-4.1 0-.2-.2-.3-.3-.4h-.1c-.1 0-.2-.1-.3-.1h-.1c-.2.1-.4.2-.5.4-.1.1-.1.3-.1.5.7 2.9 2 4.6 6.9 5.2h.1c.1 0 .3 0 .4-.1l.1-.1.3-.5c-.1-.5-.4-.7-.7-.8z"/><path id="Shape_83_" class="st12" d="M220.2 71.9c-.5-.2-1.1-.2-1.6 0-1.2.6-.5 2 .1 3.1.3.6.7 1.3.7 1.7 0 .1 0 .2-.1.3-.1.1-.3.2-.4.1-.1 0-.2-.1-.3-.1-.2-.1-.4-.3-.5-.5s-.3-.3-.5-.3-.4 0-.5.1-.2.2-.2.3c-.1.2-.1.5 0 .7.1.1.1.2.2.2.4.5.9.9 1.6 1 .6.1 1.1-.1 1.5-.5.6-.5.7-1.2.5-1.9-.2-.7-.4-1.3-.8-1.9-.2-.4-.4-.8-.5-1.1.1 0 .3.1.4.1.8.3 1.7 1.1 2.6 2.3.6.8 1.2 1.7 1.6 2.7l.6-1.1.2-.4.2.3c-.3-.7-.7-1.3-1.2-1.9-1.1-1.7-2.5-2.8-3.6-3.2z"/><path id="Shape_84_" class="st12" d="M277 113.2c0-.1-.1-.1-.2-.2l-.1-.1-.1-.1h-1l-28.8.3h-4.3c-.2 0-.4.1-.5.2s-.2.3-.2.5c0 .4.3.7.7.7h4.4l28.9-.3h.8c.4 0 .7-.3.7-.7v-.2c-.2 0-.3 0-.3-.1z"/><path id="Shape_85_" class="st12" d="M287.7 49.6h-.3c-.2 0-.3.2-.4.3s-.1.4-.1.5c.1.2.1.5.1.7-1.1-1.3-3.1-3.5-4.7-3.6-.4 0-.7.2-.9.5-.5.8-.1 2.3 1.3 5.6l.2.4c.4 1 .9 2.2 1.2 3.1l.8.1.7.1h.1c0-.1 0-.1-.1-.2-.3-1-.8-2.3-1.4-3.7l-.1-.4c-.6-1.4-1.3-3.2-1.4-4 .9.3 2.5 1.9 3.5 3.2.1.2.2.3.3.5.1.1.2.2.3.2.2.1.4.1.6 0 .6-.3.9-.9 1-1.5.1-.5.1-.9 0-1.4-.2-.1-.4-.3-.7-.4z"/><path id="Shape_86_" class="st12" d="M293.3 49.7c-.1-.3-.1-.6-.2-.9-.1-.2-.2-.3-.3-.4-.2-.1-.4-.1-.5-.1-.4.1-.6.5-.5.9.1.3.1.6.2.9.8 3.8-.6 7.2-1.1 7.7-.1.1-.1.2-.1.3l.9.1h.1s0 .2.1.6c0 0 .1 0 .1-.1.8-.8 2.3-4.7 1.3-9z"/><path id="Shape_87_" class="st12" d="M244.7 54.4c.3.2.6.3.9.3.3 0 .5-.1.8-.2v.2l.3 1.5c.7 2.9 2 5.4 5.6 6.2l.3 2.3.1 1.1c0 .2.2.5.4.6h.7c.2-.1.4-.4.3-.7L254 64l-.3-2.5c0-.3-.3-.6-.6-.6-3.7-.6-4.6-3.2-5.3-6.6-.1-.7-.2-1.3-.3-2l2.6.9 1.2.4h.2c.4 0 .7-.3.7-.6.1-.3-.1-.7-.5-.8l-1.5-.5-2.8-.9c0-.9.2-1.7.4-2.6-.1-.1-.2-.1-.3-.2-.5-.4-.7-1.1-.6-1.7-.1.3-.2.5-.3.8 0 .1-.1.3-.1.4-.3-.1-.6-.1-.9-.1-1 .2-2.1 1.2-2.3 2.9 0 1.5.2 3.4 1.4 4.1zm.7-1.3c-.3-.2-.5-.8-.6-1.7l1.3.4c0 .4 0 .7.1 1.1-.2.2-.6.4-.8.2zm.3-4c.1-.1.3-.2.4-.2.1.1.1.1.2.1-.1.5-.1.9-.2 1.4L245 50c.2-.4.4-.7.7-.9z"/><path id="Shape_88_" class="st12" d="M242.4 174.6c-.1-1.8-.2-3.5-.2-5.1v-.8c-.1-.3-.4-.6-.7-.6-.4 0-.7.3-.7.7v.3c0 1.7.1 3.5.2 5.4.1 1.1.1 2.3.2 3.5.1 2 .3 4 .3 5.9.2 4.2.2 8-.3 10.5-.1.2-.1.4-.2.7-.1.4.1.8.5.9h.2c.3 0 .6-.2.7-.5 1.1-3.7.7-10.7.2-17.6-.1-1.1-.2-2.2-.2-3.3z"/><path id="Shape_89_" class="st12" d="M263.8 168.6l-.1-.5c-.1-.4-.4-.7-.8-.6-.4.1-.7.4-.6.8v.3c1.6 15.6 3.9 31.3 4.3 33.7v.3c.1.4.4.6.7.6h.1c.3-.1.6-.4.6-.7v-.2c-.1-1.3-2.5-17.5-4.2-33.7z"/><path id="Shape_90_" class="st2" d="M247.9 48.3c1.1.6 2.7.4 2.7.4l-.3 3.1 1.5.5c.3.1.5.4.5.8-.1.3-.4.6-.7.6h-.2l-1.2-.4-.2 1.9c0 1.5.9 2.9 2.2 3.7 1.9 1.1 4.9 2.9 8.6 2 .4-.1.8-.2 1.2-.4 2.6-1.3 4.2-4.5 4.7-8 .5-3.2 0-6.6-1.2-9.2-.7-1.4-1.6-2.5-2.8-3.1-1.5-.8-3.1-1.4-4.7-1.7-3.2-.6-6.4.1-8.6 3.2-.9 1.3-1.6 2.7-2.1 4.2-.1.2-.1.4-.1.6-.1.6.1 1.3.6 1.7-.1 0 0 0 .1.1z"/><path id="Shape_91_" class="st2" d="M291.8 58.9c-.1-.4-.1-.6-.1-.6h-.1l-.9-.1-5.2-.8h-.1l-.7-.1-.8-.1-.3-.1-.6-.1-1.6 14.8c-3.1-1.1-6.4-2.1-9.6-2.8-1-.7-2-1.2-3.1-1.6-.9-.3-3.6-.7-6.7-.9-2.7-.2-5.4-.3-8.2-.2h-.8c-1.7.1-3.2.3-4 .6-.8.3-1.6.7-2.2 1-1 .4-1.9 1-2.6 1.8-.2.3-.4.5-.6.8-3.3 4.8-6 14-6 14L225 76.9l-.2-.1-.2.4-.6 1.1-3 5.4-.3.5-.1.1-.1.2s14.2 16.2 22.7 13.4l.5 15.2h2.9l28.8-.3-.4-26.2c3.3.4 7.9.4 12.6-1.6 7.9-3.4 4.8-22.5 4.2-26.1z"/><g id="Group" transform="translate(106.657 134.627)"><path id="Shape_92_" class="st0" d="M9.7 34.6c.1.2.1.4 0 .6-1 2.1-1.8 4.2-2.3 6.4s-.8 4.5-.5 6.7 1.2 4.2 2.9 5.5c1.6 1.3 3.7 1.8 5.9 1.9 2.1 0 4.3-.5 5.9-1.8 1.7-1.3 2.6-3.4 2.9-5.5.3-2.2 0-4.5-.5-6.7s-1.3-4.4-2.3-6.4c-.1-.2-.1-.4 0-.6l2.5-4.8H7.1c.9 1.5 1.8 3.1 2.6 4.7z"/></g></g></g></g></svg>