<svg width="388" height="197" xmlns="http://www.w3.org/2000/svg"><g fill="none" fill-rule="evenodd"><path fill="#F3F6F8" d="M86.129 129.032h93.561v90.743H86.129z"/><path fill="#44D0A3" d="M99.751 134.391h70.26v72.166h-70.26z"/><path d="M199.047 246.212c-.968.643-4.087 1.93-7.635 3.108h7.384c.036-1.072.143-2.108.287-3.144l-.036.036zM294.042 235.744l.967-13.218c.072-.929.144-1.822.215-2.75h-63.556l3.907 18.612c.215-.071.43-.036.574.107 6.846 6.717 12.008 9.396 11.865 10.897 15.127.035 30.219.107 45.346.214a1.068 1.068 0 0 1-.215-.643l.897-13.219zM227.33 245.212a29.99 29.99 0 0 1 .323 3.608c0 .179-.143.357-.323.357a.344.344 0 0 1-.322-.25c-.323-1.25-.538-2.536-.717-3.822l-.108-.858c-1.398-1.5-1.649-3.572-.573-6.609-1.65-6.36-4.015-9.11-6.417-17.863h-16.74c.43 6.717-1.04 12.468-1.721 19.042 1.075 3.037.896 4.93-.43 6.36l-.108.856a35.045 35.045 0 0 1-.573 3.287l39.073.107c-4.84-1.286-10.002-3.322-11.292-4.144l-.072-.071zM323.364 225.92c1.936-.179 3.406-1.894 3.262-3.644-.035-.857-.43-1.643-1.003-2.25a3.268 3.268 0 0 0-2.259-.894c-1.72.036-3.154 1.393-3.226 3.144-.107 1.715 1.29 3.465 3.226 3.644z"/><path d="M89.534 62.153H87.17v-2.357c0-.858-.717-1.572-1.578-1.572-.86 0-1.577.714-1.577 1.572v3.93c0 .857.717 1.571 1.577 1.571h3.943c.86 0 1.578-.714 1.578-1.572 0-.857-.681-1.572-1.542-1.572h-.036zM101.758 29h7.994c.86 0 1.577.715 1.577 1.572 0 .857-.717 1.572-1.577 1.572h-7.994c-.86 0-1.577-.715-1.577-1.572 0-.857.717-1.572 1.577-1.572zM301.82 42.254h-.071c-.825.036-1.506.715-1.506 1.536v7.967c0 .858.717 1.572 1.577 1.572s1.578-.714 1.578-1.572v-7.93c0-.894-.681-1.573-1.578-1.573zM95.342 30.858a1.562 1.562 0 0 0-2.044-.893 14.3 14.3 0 0 0-6.882 5.501 1.594 1.594 0 0 0 .43 2.18c.036.035.072.035.107.035.717.429 1.614.215 2.08-.5 1.29-1.965 3.19-3.465 5.377-4.323.752-.285 1.183-1.143.932-1.893v-.107zM85.627 53.4c.86 0 1.577-.714 1.577-1.571v-7.967c0-.858-.68-1.536-1.505-1.536h-.072c-.86 0-1.577.714-1.577 1.572v7.966c0 .822.68 1.537 1.577 1.537zM229.66 29h7.994c.86 0 1.577.715 1.577 1.572 0 .857-.716 1.572-1.577 1.572h-7.994c-.86 0-1.577-.715-1.577-1.572 0-.857.717-1.572 1.577-1.572zM197.685 29h7.994c.86 0 1.577.715 1.577 1.572 0 .857-.717 1.572-1.577 1.572h-7.994c-.86 0-1.577-.715-1.577-1.572 0-.857.716-1.572 1.577-1.572zM213.673 29h7.993c.86 0 1.578.715 1.578 1.572 0 .857-.717 1.572-1.578 1.572h-7.993c-.86 0-1.578-.715-1.578-1.572 0-.857.717-1.572 1.578-1.572zM298.379 37.145a1.545 1.545 0 0 0 2.08.465c.035 0 .07-.036.107-.036.717-.464.932-1.465.43-2.18-1.685-2.5-4.087-4.43-6.919-5.465a1.528 1.528 0 0 0-2.007.929c0 .035 0 .071-.036.107-.25.786.18 1.608.932 1.893a11.38 11.38 0 0 1 5.413 4.287zM245.648 29h7.994c.86 0 1.577.715 1.577 1.572 0 .857-.717 1.572-1.577 1.572h-7.994c-.86 0-1.577-.715-1.577-1.572 0-.857.717-1.572 1.577-1.572zM277.624 29h7.993c.86 0 1.578.715 1.578 1.572 0 .857-.717 1.572-1.578 1.572h-7.993c-.86 0-1.578-.715-1.578-1.572 0-.857.717-1.572 1.578-1.572zM261.636 29h7.994c.86 0 1.577.715 1.577 1.572 0 .857-.717 1.572-1.577 1.572h-7.994c-.86 0-1.577-.715-1.577-1.572 0-.857.717-1.572 1.577-1.572zM165.71 29h7.993c.86 0 1.577.715 1.577 1.572 0 .857-.717 1.572-1.577 1.572h-7.994c-.86 0-1.577-.715-1.577-1.572 0-.857.717-1.572 1.577-1.572zM181.697 29h7.994c.86 0 1.577.715 1.577 1.572 0 .857-.717 1.572-1.577 1.572h-7.994c-.86 0-1.577-.715-1.577-1.572 0-.857.717-1.572 1.577-1.572zM117.746 29h7.994c.86 0 1.577.715 1.577 1.572 0 .857-.717 1.572-1.577 1.572h-7.994c-.86 0-1.577-.715-1.577-1.572 0-.857.717-1.572 1.577-1.572zM149.722 29h7.993c.86 0 1.578.715 1.578 1.572 0 .857-.717 1.572-1.578 1.572h-7.993c-.86 0-1.578-.715-1.578-1.572 0-.857.717-1.572 1.578-1.572zM133.734 29h7.994c.86 0 1.577.715 1.577 1.572 0 .857-.717 1.572-1.577 1.572h-7.994c-.86 0-1.577-.715-1.577-1.572 0-.857.716-1.572 1.577-1.572zM301.82 58.224c-.86 0-1.577.714-1.577 1.572v2.357h-2.366c-.86 0-1.577.715-1.577 1.572 0 .858.717 1.572 1.577 1.572h3.943c.86 0 1.578-.714 1.578-1.572v-3.93c.035-.857-.681-1.571-1.578-1.571.036 0 .036 0 0 0zM112.692 62.153h7.707c.86 0 1.577.715 1.577 1.572 0 .858-.717 1.572-1.577 1.572h-7.707c-.86 0-1.578-.714-1.578-1.572 0-.893.717-1.572 1.578-1.572zM267.049 62.153h7.707c.86 0 1.577.715 1.577 1.572 0 .858-.717 1.572-1.577 1.572h-7.707c-.86 0-1.578-.714-1.578-1.572 0-.893.682-1.572 1.578-1.572zM282.463 62.153h7.707c.86 0 1.577.715 1.577 1.572 0 .858-.717 1.572-1.577 1.572h-7.707c-.86 0-1.577-.714-1.577-1.572 0-.893.717-1.572 1.577-1.572zM220.734 62.153h7.708c.86 0 1.577.715 1.577 1.572 0 .858-.717 1.572-1.577 1.572h-7.708c-.86 0-1.577-.714-1.577-1.572 0-.893.717-1.572 1.577-1.572zM97.242 62.153h7.707c.86 0 1.577.715 1.577 1.572 0 .858-.717 1.572-1.577 1.572h-7.707c-.86 0-1.578-.714-1.578-1.572.036-.893.717-1.572 1.578-1.572zM251.599 62.153h7.707c.86 0 1.577.715 1.577 1.572 0 .858-.717 1.572-1.577 1.572h-7.707c-.86 0-1.578-.714-1.578-1.572 0-.893.717-1.572 1.578-1.572zM236.184 62.153h7.708c.86 0 1.577.715 1.577 1.572 0 .858-.717 1.572-1.577 1.572h-7.708c-.86 0-1.577-.714-1.577-1.572 0-.893.681-1.572 1.577-1.572zM174.42 62.153h7.707c.86 0 1.577.715 1.577 1.572 0 .858-.716 1.572-1.577 1.572h-7.707c-.86 0-1.577-.714-1.577-1.572 0-.893.717-1.572 1.577-1.572zM205.284 62.153h7.743c.86 0 1.578.715 1.578 1.572 0 .858-.717 1.572-1.578 1.572h-7.707c-.86 0-1.577-.714-1.577-1.572 0-.893.681-1.572 1.541-1.572zM159.006 62.153h7.707c.86 0 1.577.715 1.577 1.572 0 .858-.717 1.572-1.577 1.572h-7.707c-.86 0-1.577-.714-1.577-1.572 0-.893.68-1.572 1.577-1.572zM128.142 62.153h7.707c.86 0 1.577.715 1.577 1.572 0 .858-.717 1.572-1.577 1.572h-7.707c-.86 0-1.578-.714-1.578-1.572 0-.893.681-1.572 1.578-1.572zM143.556 62.153h7.707c.86 0 1.577.715 1.577 1.572 0 .858-.717 1.572-1.577 1.572h-7.707c-.86 0-1.577-.714-1.577-1.572 0-.893.717-1.572 1.577-1.572zM189.87 62.153h7.707c.86 0 1.578.715 1.578 1.572 0 .858-.717 1.572-1.578 1.572h-7.707c-.86 0-1.577-.714-1.577-1.572 0-.893.717-1.572 1.577-1.572z" fill="#E1EFF9" fill-rule="nonzero"/><path d="M120.685 143.358c.502-.036 1.004 0 1.506.071a5.125 5.125 0 0 1 4.266 4.323c.072.75.072 1.25.107 1.858l.144 3.572.287 7.146.286 7.145.036.964h1.255l2.832.036h1.434a2.4 2.4 0 0 1 1.864.893c.25.322.43.679.43 1.108l.036.714.071 1.393.108 2.823c.107 3.358.215 6.752.18 10.146l28.103.214c.251 0 .43.215.43.429l-.215 12.861h-.071c.25 2.465.358 4.895.466 7.36h12.546v-63.95c-2.868-3.643-6.202-8.43-6.273-11.11-.144-4.751 2.402-6.073 6.094-10.325l.179.108v-.072a1.283 1.283 0 0 1-.25-.357H99.642V143.5l20.97-.072c0-.071.037-.071.072-.071z" fill="#44D0A3" fill-rule="nonzero"/><path d="M91.29 180.941l.037-3.394a292.068 292.068 0 0 1-5.592-.143v7.896h7.528a5.29 5.29 0 0 1-1.972-4.359zM300.207 162.65l-7.17-.75c-1.648-.18-3.261-.358-4.874-.536V207.2h-59.148l2.653 12.61h63.556c.646-7.895 1.255-15.79 1.936-23.685.789-8.825 1.506-17.613 2.366-26.437.215-2.394.466-4.716.681-7.038zM297.913 65.262c-.86 0-1.577-.715-1.577-1.572h-4.589c0 .857-.717 1.572-1.577 1.572h-7.707c-.86 0-1.577-.715-1.577-1.572h-4.589c0 .857-.717 1.572-1.577 1.572h-7.707c-.86 0-1.577-.715-1.577-1.572h-4.589c0 .857-.717 1.572-1.577 1.572h-7.707c-.86 0-1.577-.715-1.577-1.572h-4.589c0 .857-.717 1.572-1.577 1.572h-7.743c-.86 0-1.577-.715-1.577-1.572h-4.589c0 .857-.717 1.572-1.577 1.572h-7.707c-.86 0-1.577-.715-1.577-1.572h-4.589c0 .857-.717 1.572-1.577 1.572h-7.707c-.86 0-1.577-.715-1.577-1.572h-4.589c0 .857-.717 1.572-1.577 1.572h-7.743c-.86 0-1.577-.715-1.577-1.572h-4.589c0 .857-.717 1.572-1.577 1.572h-7.707c-.86 0-1.577-.715-1.577-1.572h-4.589c0 .857-.717 1.572-1.577 1.572h-7.707c-.86 0-1.577-.715-1.577-1.572h-4.589c0 .857-.717 1.572-1.577 1.572h-7.707c-.86 0-1.578-.715-1.578-1.572h-4.588c0 .857-.717 1.572-1.577 1.572h-7.743c-.86 0-1.577-.715-1.577-1.572h-4.302c0 .857-.717 1.572-1.577 1.572h-7.707c-.86 0-1.578-.715-1.578-1.572h-4.552c0 .857-.717 1.572-1.578 1.572h-7.742c-.86 0-1.578-.715-1.578-1.572h-4.588c0 .857-.717 1.572-1.577 1.572h-3.872v78.203l13.945-.036v-22.793h76.963a2.1 2.1 0 0 1 .251-2.143c2.043-2.43 5.879-7.288 10.037-11.04H99.93V89.556c0-6.61 5.377-12.004 12.045-12.004h79.472c.323-.25.682-.429 1.04-.643 0 0-1.972-6.538 4.875-8.645 5.485-1.68 8.388.678 8.388.678s5.162-3 9.213.429c3.513 2.965 2.904 5.752 2.904 5.752a8.198 8.198 0 0 1 3.477 2.43h66.783v25.007l13.693 1.108V65.262h-3.907zM216.325 209.129a18.526 18.526 0 0 1-.753-1.965h-13.478c-.789 3.68-.61 5.752-.036 9.503.18 1.072.287 2.108.323 3.108h16.74a85.419 85.419 0 0 1-1.577-6.895c-.215-1.286-.645-2.536-1.219-3.751z" fill="#F3F6F8" fill-rule="nonzero"/><path d="M235.503 120.994l.036-.036c.215.25.43.464.645.679h14.088l.323-4.395.789-9.824H225.43c3.944 3.572 7.923 8.467 10.073 11.04.574.75.574 1.821 0 2.536zM298.2 219.775h3.62V176.69c-.502 6.538-1.075 13.076-1.577 19.613-.61 7.824-1.326 15.648-2.043 23.472zM186.787 128.746l-.788-.607-3.298 3.858.071.107h.036c.323.322.646.643.932 1 .287.358.538.715.753 1.108l.323.607c.071.215.25.358.143.68 0 .035-.036.035-.072.07 1.22 2.216 2.151 4.61 2.832 7.039.825-1.858 1.793-3.644 2.94-5.288.107-.143.179-.25.287-.357-1.112-2.072-1.864-5.18-2.259-9.717l-1.9 1.5zM187.468 203.484c-2.115-.036-4.23.072-6.345-.178-.179-.036-.322-.179-.286-.358 0-.143.143-.285.286-.285.61-.072 1.255-.108 1.865-.143-1.685-13.469-2.259-32.225.824-47.373l-1.111 2.394c-3.334-.429-1.72-10.075-1.72-10.075s-1.937-2.143-4.16-4.966v63.95h-12.546c.072 1.75.108 3.536.144 5.287l.071 8.11h26.276c-.358-5.645-.824-11.397-1.218-16.291l-2.08-.072z" fill="#F3F6F8" fill-rule="nonzero"/><path d="M356.415 250.428a5321.61 5321.61 0 0 0-33.768-.536c-.035.143-.071.286-.071.429v.035c-.072.572-.646.965-1.22.893a1.063 1.063 0 0 1-.895-.893c-.036-.178-.036-.321-.036-.5l-7.026-.071c0 .178-.036.321-.036.5-.036.571-.502 1.036-1.075 1-.502 0-.932-.393-1.004-.893-.036-.214-.036-.429-.072-.643-5.377-.036-10.718-.107-16.095-.143-.323.464-.932.607-1.398.286a1.09 1.09 0 0 1-.287-.286 9593.257 9593.257 0 0 0-45.346-.214c0 .143-.072.25-.144.357-1.003 1.286-5.018.714-9.248-.393l-39.073-.107-.108.536c-.036.178-.215.285-.43.25a.343.343 0 0 1-.251-.322c0-.143.036-.286.036-.464h-7.385c-5.162 1.715-11.184 3.072-12.51 1.429-.287-.357-.144-.822.358-1.393l-15.307.035c0 .179 0 .358-.035.536a.349.349 0 0 1-.359.286c-.143 0-.25-.143-.287-.286 0-.178 0-.357-.035-.536l-49.756.107c-13.55.108-27.1.215-40.65.393v.036a.349.349 0 0 1-.359.286c-.143 0-.251-.143-.287-.286-4.84.072-9.679.143-14.518.25l-5.234.107-.896.036h-.25l-.933.036-4.696.107c-4.373.107-8.746.214-13.12.357a.348.348 0 0 0-.286.358c0 .142.143.25.286.285 26.993.858 53.986 1.036 80.943 1.25l80.942.18c53.986-.18 107.936-.072 161.921-1.144a.641.641 0 0 0 .646-.643c0-.357-.287-.572-.646-.607z" fill="#E9EFF4" fill-rule="nonzero"/><path d="M229.41 132.104l.071-.107-2.904-3.358-.035.036-1.327-1.286c-.43 1.536-.932 3.072-1.577 4.537a17.075 17.075 0 0 1-2.796 4.644c-.036.036-.108.071-.143.036a30.676 30.676 0 0 1 3.19 5.037c.18.357.358.75.538 1.108.68-2.501 1.613-4.895 2.867-7.181l-.071-.072c-.108-.321.071-.464.143-.679l.323-.607c.215-.393.466-.786.753-1.107.358-.358.645-.68.967-1zM219.623 136.82a20.695 20.695 0 0 1 1.613 2.215 32.447 32.447 0 0 0-1.577-2.286l-.036.071zM272.64 159.47l.037-.393-9.141-.75-.036.393c-5.556-.143-11.005-3.716-13.3-9.003-.573-1.322-1.003-2.715-1.218-4.108a18.707 18.707 0 0 1-.072-4.252c.144-2.68.323-5.359.538-8.038l.824-11.647h-14.088c3.37 3.68 5.593 5.145 5.485 9.646-.143 4.752-10.467 16.077-10.467 16.077s1.613 9.646-1.72 10.075l-.646-1.394a93.232 93.232 0 0 1 1.864 11.325c1.183 11.754.968 23.65-1.219 35.262.789.035 1.613.035 2.402.107.107 0 .18.071.18.178 0 .108-.073.179-.18.179-1.219.071-2.474.107-3.692.179l.824 3.894h59.148v-45.872a736.02 736.02 0 0 1-15.522-1.858zM220.627 136.391l.573-1.321c-.25.357-.537.714-.824 1.036.107.107.18.25.287.357-.036-.036-.036-.036-.036-.072zM206.503 203.52h-3.728a42.914 42.914 0 0 1-.645 3.573c0 .035 0 .071-.036.107h13.478a43.074 43.074 0 0 1-1.04-3.68h-8.029z" fill="#C2F4FF" fill-rule="nonzero"/><path d="M359.713 122.244c-.61-7.502-6.273-13.647-13.73-14.898l-1.361-.178-1.22-.107-2.437-.215-9.714-.821-29.43-2.358-13.694-1.108-34.52-2.786-1.614-.143-.143 1.607-.502 6.18-.789 9.825-.322 4.395-.825 11.646c-.215 2.68-.394 5.36-.538 8.039a24.009 24.009 0 0 0 .072 4.25 16 16 0 0 0 1.219 4.11c2.294 5.287 7.779 8.86 13.299 9.002l.036-.393.036-.393a14.674 14.674 0 0 1-7.062-3 14.031 14.031 0 0 1-5.305-9.61 18.679 18.679 0 0 1 .143-3.752c.323-2.68.573-5.323.824-8.003l1.147-11.86.395-4.145.86-10.074.359-4.323 33.194 2.858 13.693 1.179 29.144 2.5 9.715.822 2.437.215 1.219.107 1.075.143c1.398.25 2.76.678 4.015 1.357a13.084 13.084 0 0 1 5.736 6.145c.573 1.286.932 2.68 1.075 4.109.072.714.072 1.429.036 2.143l-.18 2.394-3.01 37.047-18.856-1.536c-6.81-.572-13.658-1.072-20.468-1.572l-10.253-.714-.394-.036-.108 1.322c-.035.428-.071.893-.107 1.322l.358.035 10.217.965c6.81.643 13.622 1.286 20.433 1.858l20.468 1.75 1.65.143.143-1.643 3.37-38.691.214-2.43c.072-.893.072-1.786 0-2.679z" fill="#0084C0" fill-rule="nonzero"/><path d="M288.163 159.399a744.801 744.801 0 0 0-15.45-.715l-.036.393-.036.393a736.02 736.02 0 0 0 15.522 1.858c1.613.179 3.262.357 4.875.536l7.17.75c.035-.429.07-.822.107-1.25l.107-1.25-7.205-.43c-1.685-.107-3.37-.178-5.054-.285z" fill="#0084C0" fill-rule="nonzero"/><path d="M205.428 97.093a10.226 10.226 0 0 1-4.589-1v3.322s5.27-.536 8.03-2.858a11.175 11.175 0 0 1-3.441.536z" fill="#86A6BD" fill-rule="nonzero"/><path d="M200.84 99.38v1.643l.68.679 1.829 1.786c1.075 1.072 2.15 2.108 3.226 3.18l3.19-3.144c.86-.858 1.757-1.644 2.689-2.43V94.2a8.131 8.131 0 0 1-3.585 2.287c-2.76 2.358-7.994 2.894-8.03 2.894zM209.801 87.054a.794.794 0 0 1-.789.786.794.794 0 0 1-.788-.786v-1.072a14.767 14.767 0 0 1-6.704-3.286c-.43 0-.86 0-1.29.071-.466.036-.932.179-1.362.357l-.072.036c-.18.072-.358.036-.466-.143-.072-.107-.036-.25.036-.357.43-.5 1.04-.786 1.685-.893h.466a13.218 13.218 0 0 1-2.617-4.073v.072c-1.828 4-2.366 10.503.323 14.647a7.503 7.503 0 0 0 2.58 2.5c.79.465 1.614.787 2.51.93l4.337-.036c1.972-.393 3.657-1.572 4.768-3.215.036-.072.107-.143.143-.215.646-1 1.076-2.107 1.362-3.25l.108-.358c.18-.75.287-1.536.323-2.322-1.542.071-3.083 0-4.625-.214l.072.821zm-4.947-1.393c.036-.143.18-.214.323-.179.107.036.18.107.18.179.142.714.25 1.429.25 2.143.036.715-.036 1.43-.143 2.144a.359.359 0 0 1-.717 0c-.108-.715-.18-1.429-.144-2.144 0-.714.072-1.429.251-2.143zm-4.624 1.393V85.84a.765.765 0 0 1 .824-.715.77.77 0 0 1 .717.715v1.214a.765.765 0 0 1-.824.715.77.77 0 0 1-.717-.715zm6.883 5.395c-.144.357-.43.643-.79.821-.322.18-.716.25-1.074.25a2.146 2.146 0 0 1-1.9-1c-.072-.178-.036-.357.143-.464.108-.072.251-.036.323 0l.071.036c.395.25.86.393 1.363.393.466.035.932-.108 1.29-.43l.036-.035c.18-.107.394-.071.502.107.036.107.071.215.036.322zM229.015 207.164l-.824-3.894c-3.012.107-5.987.178-8.998.178h-4.624c.287 1.25.61 2.466 1.04 3.68.214.679.465 1.322.752 1.965a15.827 15.827 0 0 1 1.219 3.751c.538 2.68 1.075 4.93 1.577 6.895 2.402 8.753 4.768 11.504 6.417 17.863 0 0 3.979 3.037 6.775 2.787 1.254-.107 2.796-.786 2.832-1.5 0-.25.179-.43.394-.5l-3.907-18.614-2.653-12.611zM202.13 207.057c.25-1.108.466-2.287.645-3.573H189.512c.394 4.895.86 10.646 1.218 16.291.467 7.467.825 14.755.717 19.685.108.107.18.214.18.357.036.715 1.577 1.358 2.832 1.5 2.796.25 6.237-2.5 6.237-2.5.681-6.574 2.15-12.325 1.72-19.042-.071-1-.179-2.036-.322-3.108-.574-3.751-.789-5.823.036-9.503v-.107zM230.88 131.711c-.144.429-.395.786-.718 1.108-.287.321-.538.607-.788.964-.216.358-.502.643-.717 1l-.323.537c-.108.178-.143.393-.43.464h-.072c-.18.036-.394-.036-.466-.214-1.255 2.286-2.187 4.68-2.868 7.18.466.965.932 1.965 1.29 3.002.574 1.393 1.04 2.786 1.47 4.215a91.078 91.078 0 0 1 1.614 6.145l.645 1.393c3.334-.428 1.72-10.074 1.72-10.074s10.325-11.325 10.468-16.077c.143-4.466-2.115-5.93-5.485-9.646-.215-.214-.394-.429-.645-.679l-.036.036a1.875 1.875 0 0 1-.358.393l-.323.286-8.209 6.966 2.904 3.359-.072.107a2.04 2.04 0 0 1 1.219-.643c.107 0 .215.071.215.178-.072-.035-.072-.035-.036 0zM184.386 135.784h-.072c-.287-.071-.323-.286-.43-.464l-.323-.536c-.215-.358-.502-.68-.717-1-.25-.322-.502-.644-.788-.965a2.586 2.586 0 0 1-.717-1.108c-.036-.107.035-.214.143-.25h.072c.466.036.896.286 1.218.643l-.071-.107 3.334-3.858-8.855-6.717c-.071-.071-.143-.178-.215-.25l-.143-.071-.18-.107c-3.727 4.251-6.237 5.537-6.093 10.324.071 2.68 3.405 7.467 6.273 11.111a107.164 107.164 0 0 0 4.158 4.966s-1.613 9.646 1.72 10.075l1.112-2.394a60.482 60.482 0 0 1 3.836-12.468c-.681-2.465-1.613-4.823-2.832-7.038-.036.178-.251.286-.43.214z" fill="#A6C1D1" fill-rule="nonzero"/><path d="M186.787 128.746l1.864-1.5c-.179-2.001-.25-4.216-.25-6.824 0-3.465 1.326-8.681 3.62-12.968a18.836 18.836 0 0 1 3.8-5.073c-2.76.214-5.915 2.322-8.962 5.073-4.158 3.75-7.994 8.61-10.037 11.039a1.953 1.953 0 0 0-.251 2.143c.072.143.143.25.25.358.037.035.073.107.144.143.072.107.144.178.215.25l8.819 6.716.788.643zM224.534 125.638c.287-1.286.502-2.608.61-3.93 0-.107.035-.214.035-.357l.072-1.322-.036-1.322c.036-.893-.215-1.715-.036-2.644v-.035a.359.359 0 0 1 .466-.215c.072.036.18.108.216.179.286.857.43 1.786.394 2.68l.036 1.357-.072 1.358c0 .107 0 .178-.036.285a28.35 28.35 0 0 1-.753 4.895c-.035.071-.035.143-.035.214-.036.107-.072.25-.108.357-.036.108-.036.143-.072.215l1.327 1.286.035-.036 8.21-6.966.322-.286c.143-.107.251-.25.359-.393a2.035 2.035 0 0 0-.036-2.537c-2.151-2.572-6.13-7.466-10.073-11.039-2.33-2.108-4.66-3.787-6.632-4.215a17.47 17.47 0 0 1 3.37 4.215c1.792 3.037 2.796 6.466 2.867 9.968 0 1.536-.035 2.93-.143 4.251a27.4 27.4 0 0 1-.287 4.037zM194.494 241.318c-1.254-.107-2.796-.786-2.831-1.5 0-.144-.072-.25-.18-.358a.564.564 0 0 0-.788 0c-5.52 5.43-9.966 8.217-11.4 9.86-.502.572-.645 1.036-.358 1.394 1.29 1.643 7.313.285 12.51-1.43 3.513-1.143 6.632-2.465 7.636-3.108l.072-.035c.43-.286.824-.608 1.147-.965 1.326-1.429 1.541-3.322.43-6.36 0 0-3.477 2.788-6.238 2.502zM236.149 238.531a.576.576 0 0 0-.825.036.458.458 0 0 0-.143.357c-.036.715-1.578 1.358-2.832 1.5-2.796.25-6.775-2.786-6.775-2.786-1.111 3.037-.825 5.109.573 6.61.359.356.717.714 1.147 1l.072.035c1.29.822 6.417 2.858 11.292 4.144 4.23 1.108 8.209 1.68 9.248.393.072-.107.144-.214.144-.357.107-1.536-5.055-4.215-11.901-10.932zM201.019 87.804c.43 0 .788-.357.788-.785v-1.215a.765.765 0 0 0-.824-.715.77.77 0 0 0-.717.715v1.215c-.036.464.322.785.753.785zM209.012 87.804c.43 0 .79-.357.79-.785v-1.215a.794.794 0 0 0-.79-.786.794.794 0 0 0-.788.786v1.215c0 .464.358.785.788.785z" fill="#004F84" fill-rule="nonzero"/><path d="M224.176 144.18a36.413 36.413 0 0 0-2.904-5.145 39.656 39.656 0 0 0-1.613-2.215l.072-.036a3.83 3.83 0 0 0 .645-.678c.287-.322.574-.68.824-1.036 1.47-2.037 2.546-4.788 3.19-8.575.037-.285.108-.571.144-.893.18-1.214.287-2.536.395-3.93.071-1.321.143-2.75.143-4.25a20.348 20.348 0 0 0-2.868-9.968c-.896-1.572-2.043-2.966-3.37-4.216a12.88 12.88 0 0 0-4.982-2.858l-.108-.036-.215.215-1.004 1-5.843 5.823-.035.036-.323-.322-5.485-5.359-1.362-1.357-.143-.143c-.072.036-.18.071-.251.107-1.219.429-2.33 1.143-3.262 2.037-1.542 1.464-2.796 3.18-3.8 5.073-2.33 4.287-3.62 9.503-3.62 12.968 0 2.608.107 4.823.25 6.824.359 4.537 1.147 7.645 2.259 9.717-.108.143-.18.25-.287.357-1.147 1.68-2.15 3.43-2.94 5.288a60.482 60.482 0 0 0-3.835 12.468c-3.083 15.148-2.51 33.94-.825 47.372.036.143.036.322.072.465h9.679l10.109-.036 11.542-.036 13.658-.036h1.183v-.142c.502-5.538.789-10.647.932-15.363.072-2.75.108-5.358.072-7.86-.108-11.36-1.29-20.113-3.155-26.972-.753-2.822-1.72-5.609-2.94-8.288zM342.184 130.104a43.74 43.74 0 0 0-9.571-1.93c-3.262-.321-6.596-.142-9.679-.25-6.201-.285-12.654-1.143-18.855-2.107-.717-.108-1.47-.25-2.187-.393-5.556-1-11.22-2.215-17.099-2.323a37.804 37.804 0 0 0-9.607.93c-.108.035-.215.035-.287.07-3.226.787-6.273 2.109-9.105 3.823-.18.143-.215.393-.107.536.071.107.25.179.394.179 3.19-.643 6.237-1.358 9.32-1.786 1.219-.179 2.474-.286 3.728-.393a41.207 41.207 0 0 1 5.556-.072c5.7.286 11.364 1.644 17.207 2.751.538.107 1.04.179 1.577.286 3.227.607 6.453.964 9.643 1.322 3.262.393 6.524.571 9.786.607 3.334-.036 6.417-.25 9.607-.143 3.155 0 6.381.072 9.643-.321.144-.036.287-.108.323-.286 0-.215-.108-.429-.287-.5z" fill="#74DCFC" fill-rule="nonzero"/><path d="M214.605 63.725h4.588c0-.857.717-1.572 1.577-1.572h7.672c.86 0 1.577.715 1.577 1.572h4.588c0-.857.717-1.572 1.577-1.572h7.708c.86 0 1.577.715 1.577 1.572h4.588c0-.857.717-1.572 1.578-1.572h7.707c.86 0 1.577.715 1.577 1.572h4.588c0-.857.717-1.572 1.578-1.572h7.707c.86 0 1.577.715 1.577 1.572h4.588c0-.857.717-1.572 1.578-1.572h7.707c.86 0 1.577.715 1.577 1.572h4.553c0-.857.717-1.572 1.577-1.572h2.366v-2.357c0-.858.717-1.572 1.577-1.572v-4.895c-.86 0-1.577-.714-1.577-1.572v-7.93c0-.858.68-1.537 1.505-1.537-.143-1.608-.61-3.18-1.326-4.644a1.545 1.545 0 0 1-2.08-.465c-1.325-1.965-3.19-3.465-5.412-4.287-.753-.286-1.183-1.143-.932-1.893a12.792 12.792 0 0 0-3.083-.393h-1.756c0 .857-.717 1.572-1.578 1.572h-7.994c-.86 0-1.577-.715-1.577-1.572h-4.84c0 .857-.716 1.572-1.576 1.572h-7.994c-.86 0-1.578-.715-1.578-1.572h-4.839c0 .857-.681 1.572-1.541 1.572h-7.994c-.86 0-1.577-.715-1.577-1.572h-4.84c0 .857-.717 1.572-1.577 1.572h-7.994c-.86 0-1.577-.715-1.577-1.572h-4.84c0 .857-.717 1.572-1.577 1.572h-7.994c-.86 0-1.577-.715-1.577-1.572h-4.875c0 .857-.717 1.572-1.577 1.572h-7.994c-.86 0-1.578-.715-1.578-1.572h-4.839c0 .857-.717 1.572-1.577 1.572h-7.994c-.86 0-1.577-.715-1.577-1.572h-4.84c0 .857-.717 1.572-1.577 1.572h-7.994c-.86 0-1.577-.715-1.577-1.572h-4.84c0 .857-.716 1.572-1.577 1.572h-7.994c-.86 0-1.577-.715-1.577-1.572h-4.84c0 .857-.716 1.572-1.577 1.572h-7.993c-.86 0-1.578-.715-1.578-1.572h-4.839c0 .857-.717 1.572-1.577 1.572h-7.994c-.86 0-1.577-.715-1.577-1.572h-4.876c0 .857-.717 1.572-1.577 1.572h-7.994c-.86 0-1.577-.715-1.577-1.572h-1.72c-1.04 0-2.116.143-3.12.393a1.503 1.503 0 0 1-.931 1.893c-2.187.858-4.087 2.358-5.377 4.323-.466.714-1.398.893-2.115.464-.717 1.465-1.183 3.037-1.327 4.645.86.035 1.506.714 1.506 1.536v7.967c0 .857-.717 1.572-1.577 1.572v4.858c.86 0 1.577.715 1.577 1.572v2.358h2.366c.86 0 1.577.715 1.577 1.572h4.588c0-.857.717-1.572 1.578-1.572h7.707c.86 0 1.577.715 1.577 1.572h4.588c0-.857.717-1.572 1.578-1.572h7.707c.86 0 1.577.715 1.577 1.572h4.589c0-.857.716-1.572 1.577-1.572h7.707c.86 0 1.577.715 1.577 1.572h4.589c0-.857.717-1.572 1.577-1.572h7.707c.86 0 1.577.715 1.577 1.572h4.589c0-.857.717-1.572 1.577-1.572h7.707c.86 0 1.577.715 1.577 1.572h4.589c0-.857.717-1.572 1.577-1.572h7.707c.86 0 1.577.715 1.577 1.572h4.589c0-.857.717-1.572 1.577-1.572h7.707c.86 0 1.577.715 1.577 1.572h4.517c0-.857.717-1.572 1.577-1.572h7.707c.86-.071 1.578.643 1.614 1.536 0-.035 0-.035 0 0zM251.885 101.237l.144-1.607 1.613.143 34.52 2.786V77.551H221.38a5.187 5.187 0 0 1 1.183 2.537c.68 4.251-1.793 5.966-1.793 5.966s1.398 5.359-2.473 7.538c-2.904 1.643-4.624.607-5.306 0l-.537.643v6.073c.25.072.537.143.753.18.107-.072.215-.18.358-.287.072-.071.18-.035.251.036.036.036 0 .071 0 .107a12.88 12.88 0 0 1 4.983 2.858c1.935.429 4.265 2.072 6.631 4.216h25.954l.501-6.18zM200.84 96.093c-1.399-.715-2.617-1.786-3.442-3.108-.394-.608-.717-1.286-1.004-1.965.072.464.144.714.144.714-8.281-.357-10.575-10.289-5.126-14.147h-79.437c-6.632 0-12.045 5.359-12.045 11.968v17.899h86.929c3.011-2.716 6.202-4.86 8.962-5.073a9.658 9.658 0 0 1 3.262-2.037.34.34 0 0 1 .143-.357.327.327 0 0 1 .359 0c.107.071.215.143.322.25.287-.107.61-.179.932-.25v-3.894z" fill="#FFF" fill-rule="nonzero"/><path d="M356.2 122.53a13.376 13.376 0 0 0-1.075-4.109c-1.183-2.608-3.19-4.751-5.736-6.144-1.254-.68-2.617-1.108-4.015-1.358l-1.075-.143-1.219-.107-2.437-.214-9.715-.822-29.144-2.5-13.693-1.18-33.194-2.858-.359 4.323-.86 10.075-.395 4.144-1.147 11.86c-.25 2.68-.501 5.324-.824 8.003a18.78 18.78 0 0 0-.143 3.751 14.031 14.031 0 0 0 5.305 9.61 14.674 14.674 0 0 0 7.062 3.002l-.036.393 9.14.75.037-.393c5.162.178 10.288.428 15.45.714 1.685.107 3.37.179 5.054.286l7.205.429c.466-4.609.932-9.253 1.398-13.862.108-1 .216-2.036.323-3.036.036-.572.538-1 1.147-.965.61.036 1.004.536.968 1.143-.358 5.645-.753 11.254-1.147 16.898l.394.036 10.253.75c6.81.5 13.657 1 20.468 1.572l18.82 1.537 3.011-37.048.18-2.394c.035-.714.035-1.429 0-2.143zm-14.123 8.36c-3.263.393-6.489.321-9.643.321-3.155-.071-6.238.107-9.607.143-3.262-.036-6.56-.214-9.787-.607-3.226-.322-6.452-.715-9.642-1.322-.538-.107-1.04-.179-1.578-.286-5.843-1.072-11.507-2.465-17.206-2.75-1.864-.072-3.692-.072-5.557.07a45.57 45.57 0 0 0-3.728.394c-3.082.428-6.13 1.143-9.32 1.786a.405.405 0 0 1-.466-.322c-.036-.143.036-.285.18-.393a31.84 31.84 0 0 1 9.069-3.858c.107-.036.215-.036.286-.071a37.804 37.804 0 0 1 9.607-.93c5.88.108 11.579 1.323 17.1 2.323.716.143 1.47.25 2.186.393 6.202.964 12.654 1.822 18.856 2.108 3.083.071 6.416-.072 9.678.25 3.262.25 6.489.929 9.572 1.929a.386.386 0 0 1 .25.5c.036.179-.071.286-.25.322z" fill="#FFF" fill-rule="nonzero"/><path d="M303.29 142.286c-.573-.071-1.075.357-1.147.929-.108 1-.215 2.036-.323 3.037-.466 4.608-.932 9.253-1.398 13.861l-.107 1.25c-.036.43-.072.822-.108 1.251-.215 2.322-.466 4.68-.68 7.002-.861 8.789-1.578 17.613-2.367 26.437-.68 7.896-1.326 15.791-1.936 23.686-.071.93-.143 1.822-.215 2.751l-.967 13.219-.86 13.254a1.04 1.04 0 0 0 .967 1.107c.359.036.717-.142.932-.428a1.25 1.25 0 0 0 .215-.5l1.398-13.183 1.29-13.219c.072-1 .18-2 .287-3 .717-7.825 1.399-15.613 2.044-23.437.502-6.537 1.075-13.075 1.577-19.613l.538-6.824c.179-2.286.358-4.644.502-6.966.035-.429.071-.893.107-1.322l.108-1.322c.394-5.609.788-11.253 1.147-16.898-.036-.5-.466-1-1.004-1.072zM327.523 235.673a17.504 17.504 0 0 0-5.52 6.36c-1.291 2.429-1.865 5.18-1.614 7.895 0 .178.036.321.036.5.072.571.645.964 1.219.893.466-.072.824-.429.896-.893v-.036c.036-.143.072-.286.072-.429a19.924 19.924 0 0 1 2.186-6.502c1.147-2.179 2.653-4.144 4.194-6.252.323-.5.18-1.179-.322-1.465a.975.975 0 0 0-1.147-.071zM323.364 228.028c1.542.107 3.083-.465 4.23-1.5 2.402-2.287 2.545-6.074.251-8.503l-.071-.072c-1.148-1.179-2.725-1.822-4.374-1.858-3.334-.071-6.094 2.608-6.165 5.93-.036 1.644.645 3.252 1.828 4.43a40.181 40.181 0 0 0-3.37 4.824 38.001 38.001 0 0 0-2.796 6.002c-.753 2.108-1.326 4.251-1.613 6.466-.287 2-.323 4.037-.108 6.038.036.214.036.428.072.643.072.571.61.964 1.183.893.502-.072.896-.5.896-1 0-.18.036-.322.036-.5.108-1.894.323-3.752.717-5.574.43-2 1.004-3.965 1.72-5.895a80.003 80.003 0 0 1 2.474-5.68c.789-1.679 1.72-3.358 2.617-5.037a5.384 5.384 0 0 0 2.473.393zm0-8.86c.825 0 1.65.321 2.259.893.61.607.968 1.393 1.003 2.25.108 1.715-1.326 3.466-3.262 3.645-1.935-.215-3.37-1.93-3.226-3.644.072-1.75 1.506-3.108 3.226-3.144zM212.454 101.13c.25-.214.502-.429.753-.607-.251-.072-.502-.143-.753-.179v.786zM200.84 101.023v-1.036a7.093 7.093 0 0 0-.933.25c.359.25.646.5.932.786z" fill="#C8D7E2" fill-rule="nonzero"/><path d="M222.563 80.123a5.187 5.187 0 0 0-1.183-2.536c-.932-1.072-2.151-1.894-3.477-2.43 0 0 .609-2.786-2.904-5.751-4.05-3.43-9.213-.429-9.213-.429s-2.903-2.358-8.388-.679c-6.847 2.108-4.875 8.646-4.875 8.646a6.27 6.27 0 0 0-1.04.643c-5.448 3.858-3.154 13.79 5.126 14.147 0 0-.071-.286-.143-.714-.43-1.072-.681-2.215-.86-3.394.143 1.179.43 2.322.86 3.358.25.679.61 1.358 1.004 1.965a8.989 8.989 0 0 0 3.441 3.108 10.226 10.226 0 0 0 4.588 1c1.183 0 2.33-.178 3.442-.535 1.362-.465 2.617-1.25 3.584-2.287a9.26 9.26 0 0 0 .538-.607c.681.607 2.366 1.607 5.27 0 3.871-2.18 2.473-7.538 2.473-7.538s2.438-1.715 1.757-5.967zm-10.11 12.504c-1.11 1.644-2.831 2.823-4.767 3.216-1.434.286-2.903.321-4.337.035a8.829 8.829 0 0 1-2.51-.928 7.503 7.503 0 0 1-2.58-2.501c-2.69-4.144-2.151-10.646-.323-14.648v-.071a14.395 14.395 0 0 0 2.617 4.073h-.466a2.618 2.618 0 0 0-1.685.893c-.108.143-.108.357.036.464.107.072.25.107.358.036l.072-.036c.43-.179.896-.321 1.362-.357.43-.072.86-.072 1.29-.072 1.936 1.644 4.23 2.787 6.704 3.287v-.143c0-.428.358-.786.788-.786.43 0 .79.358.79.786v.393c1.54.215 3.082.286 4.623.215a12.496 12.496 0 0 1-.322 2.322c-.036.143-.072.25-.108.357a11.806 11.806 0 0 1-1.362 3.251c-.072.072-.108.143-.18.214zM227.33 135.57c.108.178.287.25.466.214h.072c.287-.071.323-.286.43-.464l.323-.536c.215-.358.502-.68.717-1 .25-.322.502-.644.788-.965.323-.286.574-.679.717-1.108.036-.107-.036-.214-.143-.25h-.072c-.466.036-.896.286-1.219.643h-.035c-.323.322-.646.643-.932 1a7.545 7.545 0 0 0-.753 1.108l-.323.607c-.072.215-.25.358-.143.68.071.035.107.035.107.07zM182.02 132.819c.286.321.537.607.788.964.215.358.502.643.717 1l.323.537c.107.178.143.393.43.464h.072c.179.036.394-.036.466-.214l.071-.072c.108-.321-.071-.464-.143-.679l-.323-.607a6.028 6.028 0 0 0-.752-1.107c-.287-.358-.61-.68-.932-1h-.036a2.04 2.04 0 0 0-1.219-.644h-.072c-.107.036-.179.143-.143.25.18.429.43.822.753 1.108zM200.84 101.023a6.12 6.12 0 0 0-.933-.75c-.107-.072-.215-.179-.322-.25a.327.327 0 0 0-.359 0 .34.34 0 0 0-.143.357c.072-.036.18-.072.25-.107l.144.143 1.362 1.357 5.413 5.395.323.321.036-.035 5.879-5.86 1.003-1 .215-.214.108.036c0-.036.036-.072 0-.108-.072-.071-.143-.107-.251-.035-.108.071-.215.178-.358.286-.251.214-.502.393-.753.607a34.326 34.326 0 0 0-2.689 2.43l-3.19 3.143a268.784 268.784 0 0 0-3.226-3.18l-1.829-1.786a4.602 4.602 0 0 0-.68-.75zM198.832 249.32c0 .143-.036.286-.036.465 0 .178.143.357.323.357a.344.344 0 0 0 .322-.25l.108-.536c.25-1.072.43-2.18.573-3.287l.108-.857a7.445 7.445 0 0 1-1.147.964c-.108 1-.215 2.072-.251 3.144zM226.147 244.247l.108.858c.18 1.286.394 2.572.717 3.822.036.179.215.286.43.25a.343.343 0 0 0 .25-.321 29.99 29.99 0 0 0-.322-3.608c-.43-.322-.824-.644-1.183-1z" fill="#004F81" fill-rule="nonzero"/><path d="M205.033 90.27c.18.035.395-.072.43-.25v-.036c.108-.715.18-1.43.144-2.144 0-.714-.108-1.429-.25-2.143-.037-.143-.18-.215-.324-.179-.107.036-.179.107-.179.179-.143.714-.25 1.429-.25 2.143-.037.715.035 1.43.143 2.144 0 .143.107.25.286.286zM203.85 92.092c-.143-.108-.358-.072-.466.107a.267.267 0 0 0 0 .321 2.106 2.106 0 0 0 1.9 1c.359 0 .753-.07 1.076-.25.358-.178.645-.464.788-.821.036-.179-.071-.393-.25-.429a.382.382 0 0 0-.287.036l-.036.036c-.359.285-.825.464-1.29.428-.467 0-.933-.143-1.363-.393l-.072-.035z" fill="#004F81" fill-rule="nonzero"/><path d="M172.771 239.46a.564.564 0 0 1 .789 0c.107-4.966-.215-12.254-.717-19.685h-26.276l.036 4.644c-.108 8.325-.036 16.649-.538 24.937l15.307-.036c1.434-1.643 5.879-4.465 11.4-9.86zM144.882 219.775H67.775v-20.042l-12.618.036c.144 2.786.215 5.573.251 8.36l.108 13.933c-.108 9.288-.036 18.541-.574 27.83 13.55-.179 27.1-.286 40.686-.393l49.756-.107c-.502-8.324-.466-16.648-.538-24.973l.036-4.644z"/><path fill="#F3F6F8" fill-rule="nonzero" d="M114.376 182.299l-.609-10.36h-6.166l.18 3.143.43 7.181z"/><path d="M76.952 185.3h4.768l12.654.036h5.52a106.394 106.394 0 0 0-3.37-.18c-1.47-.5-2.58-1.785-2.903-3.322-.108-.786-.036-2-.036-3.036l.036-1.036H91.864l.036 1.071c.072 1.072-.071 2.073.18 3.359a5.173 5.173 0 0 0 1.935 2.893l-4.48-.107-6.059-.071H78.96c-.395 0-.825-.072-1.22-.214-1.612-.536-2.724-2.037-2.688-3.752l-.036-3.322h-.466l-1.147-.036-.036 3.394a5.503 5.503 0 0 0 1.972 4.359l1.613-.036zM95.88 192.374c-.037 0-.037.035-.072.071-.036.071-.036.214.071.25a5.402 5.402 0 0 0 2.115.643c.717.072 1.398.107 2.115.107.717 0 1.398-.071 2.115-.107a8.614 8.614 0 0 0 2.115-.464c.18-.072.251-.25.18-.429a.431.431 0 0 0-.18-.179 8.614 8.614 0 0 0-2.115-.464 20.962 20.962 0 0 0-4.23 0c-.752 0-1.47.214-2.115.572z" fill="#E9EFF4" fill-rule="nonzero"/><path d="M92.08 182.227c-.251-1.286-.144-2.25-.18-3.358l-.036-1.072-9.176-.107h-1.004l-6.703-.107.035 3.358c-.035 1.715 1.076 3.216 2.689 3.752.394.142.789.214 1.219.214h4.516l6.059.071 4.48.107c-.932-.75-1.613-1.75-1.9-2.858zM60.713 158.506c.072 6.18.072 12.36.036 18.541h.395c0-.071.071-.143.143-.143 1.577-.035 3.19-.071 4.768-.143l1.684-.035c1.864-.036 3.729-.107 5.628-.143l1.614-.036 6.703-.107h1.004a779.7 779.7 0 0 1 9.14-.072h1.757c3.226-.035 6.417-.035 9.643-.071l.789-.036h.286v-6.645c.072-.929 1.363-1.107 2.008-1.143h1.362l-.036-.893-.322-7.145-.323-7.145-.18-3.573c-.035-.572-.035-1.286-.071-1.715-.072-.464-.215-.929-.466-1.322-.502-.821-1.326-1.357-2.294-1.536-.144 0-.251-.036-.395-.036h-1.792l-20.11-.071-13.945-.036h-2.365l.143 12.79c.072 4.502.036 9.039.036 13.576a.282.282 0 0 1-.287.286h-.036c-.18 0-.322-.143-.322-.286-.18-4.502-.395-9.039-.502-13.54L64.01 145h-.932c-.61-.071-1.218.143-1.684.536a2.342 2.342 0 0 0-.825 1.536c-.036.643 0 1.5 0 2.251l.143 9.182z" fill="#FFF" fill-rule="nonzero"/><path d="M116.85 185.478c-.394-3.358-.681-6.68-.968-10.038l-.215-2.823-.108-1.393-.036-.679a.272.272 0 0 0-.071-.178.865.865 0 0 0-.645-.25h-1.398l-2.832.035h-4.194c-.251 0-.466.072-.61.25a.272.272 0 0 0-.072.179v.607l.072 1.393s.036 1.823.108 4.109c.071 3.144.143 7.217.071 8.753l10.898.035zm-8.173-13.54h5.09l.574 10.325h-6.166l-.394-7.18-.18-3.145h1.076zM145.277 186.622l-27.746.214c-.072.143-.251.179-.394.071-.036-.035-.072-.035-.072-.071l-16.884.143-18.461.036-13.945.035-12.224.036v11.004l12.26.035 13.945.036 18.174.072 22.763.25 22.87.357v-.143l-.286-12.075zm-40.938 6.252a8.614 8.614 0 0 1-2.115.464 20.962 20.962 0 0 1-4.23 0 4.436 4.436 0 0 1-2.115-.643c-.071-.036-.107-.179-.071-.25 0-.036.035-.036.071-.071a5.402 5.402 0 0 1 2.115-.644 20.962 20.962 0 0 1 2.115-.107c.717 0 1.398.072 2.115.107a8.614 8.614 0 0 1 2.115.465c.18.071.251.25.18.429-.036.143-.072.178-.18.25z" fill="#FFF" fill-rule="nonzero"/><path d="M146.495 211.665c-.036-1.75-.107-3.536-.143-5.287a101.368 101.368 0 0 0-.466-7.36h.072l.215-12.86c0-.25-.18-.43-.43-.43l-28.105-.214c.036-3.394-.071-6.752-.179-10.146l-.107-2.822-.072-1.394-.036-.714a2.121 2.121 0 0 0-.43-1.108 2.65 2.65 0 0 0-1.864-.893h-1.434l-2.832-.071h-1.254l-.036-.965-.287-7.145-.287-7.145-.143-3.573c-.036-.643-.036-1.107-.108-1.857a5.125 5.125 0 0 0-4.266-4.323c-.501-.072-1.003-.072-1.505-.072h-.072l-20.97.072-13.945.036h-2.294l-2.33.035a3.824 3.824 0 0 0-2.617.893 3.607 3.607 0 0 0-1.255 2.501c0 .893.036 1.572.036 2.394l.251 9.253c.144 6.18.359 12.36.574 18.541a.32.32 0 0 0 .322.322.32.32 0 0 0 .323-.322c.036-6.18.036-12.36-.036-18.541l-.072-9.253c0-.75-.035-1.608 0-2.25a2.342 2.342 0 0 1 .825-1.537 2.39 2.39 0 0 1 1.685-.536h.932l.394 12.826c.108 4.501.323 9.038.502 13.54 0 .178.143.285.323.285h.035c.144 0 .251-.142.287-.285 0-4.502.036-9.039-.036-13.576l-.143-12.79h2.366l13.944.036 20.11.071H103.73c.143 0 .25 0 .394.036a3.314 3.314 0 0 1 2.294 1.536c.251.393.43.858.466 1.322.036.429.072 1.143.072 1.715l.18 3.572.322 7.146.323 7.145.035.893h-1.362c-.645.036-1.936.214-2.007 1.143V176.154h-.395l-.788.036c-3.226 0-6.417.036-9.643.071h-1.757c-3.047.036-6.094.072-9.14.072H81.72l-6.704.107-1.613.036c-1.864.035-3.728.071-5.628.143l-1.685.035c-1.577.036-3.19.072-4.767.143-.072 0-.144.072-.144.143s.072.143.144.143c2.15.071 4.301.107 6.452.179 1.864.035 3.728.107 5.592.142l1.148.036h.466l6.703.107h1.004l9.176.108h1.685c3.513.035 7.026.071 10.503.071h.036c.072 0 .108-.036.144-.036h.286c.216 2.537.502 5.073.86 7.574l-5.233-.036h-5.771l-12.654-.035H67.81l-13.12-.036a.886.886 0 0 0-.896.893v12.754c0 .286.143.536.358.679-.143 2.858-.215 5.68-.286 8.538l-.108 13.933c.108 9.29.036 18.542.574 27.83.036.18.179.286.358.286.144 0 .251-.142.287-.285v-.036c.538-9.289.466-18.542.573-27.83l-.107-13.933a650.743 650.743 0 0 0-.251-8.36l12.618-.036 13.945-.036 18.748-.071 22.798-.25 22.297-.357c-.25 2.465-.358 4.894-.466 7.323-.072 1.75-.107 3.537-.143 5.288l-.072 8.11-.036 4.644c.108 8.324.036 16.648.538 24.972 0 .179 0 .357.036.536.036.179.179.286.358.286.144 0 .251-.143.287-.286 0-.179 0-.357.036-.536.502-8.324.466-16.648.538-24.936l-.036-4.645-.144-7.967zm-90.98-24.615l12.224-.035 13.945-.036 18.461-.036 16.884-.143c.072.143.251.179.394.072.036-.036.072-.036.072-.072l27.746-.214.215 12.075v.107l-22.87-.357-22.763-.25-18.175-.071-13.944-.036-12.26-.036.072-10.968zm50.258-14.504l-.072-1.394v-.357-.25c0-.071.036-.107.072-.178a.841.841 0 0 1 .61-.25h4.194l2.832-.036h1.398c.25 0 .466.071.645.25a.272.272 0 0 1 .071.178l.036.68.108 1.392.215 2.823c.25 3.358.574 6.68.968 10.039l-10.862-.072c.072-1.536 0-5.609-.071-8.752-.072-2.251-.144-4.073-.144-4.073z" fill="#C8D7E2" fill-rule="nonzero"/><path d="M104.554 148.681a1.5 1.5 0 0 0-1.505-1.429H67.955l.466 23.758-.036 3.036h35.13c.143 0 .287 0 .394-.035.143 0 .251-.036.394-.072v-1c0-1.358-.071-2.787 0-3.358.036-.465.323-.858 1.04-1l-.789-19.9z" fill="#86A6BD" fill-rule="nonzero" opacity=".26"/><path d="M229.589 201.984c2.186-11.575 2.258-22.829 1.075-34.583a93.232 93.232 0 0 0-1.864-11.325c-.466-2.072-.968-4.108-1.613-6.145-.43-1.429-.896-2.858-1.47-4.215-.358-1.036-.824-2-1.29-3.001-.18-.357-.359-.75-.538-1.108a30.676 30.676 0 0 0-3.19-5.037c.071 0 .107 0 .143-.036a17.075 17.075 0 0 0 2.796-4.644 39.937 39.937 0 0 0 1.577-4.537c.036-.072.036-.143.072-.215.036-.071.072-.25.108-.357.035-.071.035-.143.035-.214a28.35 28.35 0 0 0 .753-4.895c0-.107 0-.178.036-.285l.072-1.358v-1.358a9.5 9.5 0 0 0-.395-2.679c-.107-.179-.322-.25-.466-.143a.366.366 0 0 0-.179.214v.036c-.18.893.072 1.75.036 2.644l.036 1.322-.072 1.322c0 .107-.036.25-.036.357a28.905 28.905 0 0 1-.61 3.93c-.035.321-.107.607-.142.893-.646 3.751-1.721 6.538-3.19 8.574l-.574 1.322c0 .036 0 .036.035.071-.107-.107-.179-.25-.286-.357-.215.25-.43.464-.646.679.574.714 1.076 1.5 1.578 2.286a36.413 36.413 0 0 1 2.903 5.145 52.782 52.782 0 0 1 2.976 8.252c1.864 6.86 3.047 15.648 3.154 26.973.036 1.894.036 3.823 0 5.716l-.107 2.144c-.144 4.716-.43 9.11-.932 14.647l-25.81.215c-.036-.143-20.433.464-20.433.286-.61.035-1.255.071-1.864.143-.18.035-.323.178-.287.357 0 .143.143.286.287.286 2.115.25 4.23.142 6.345.178h19.07l8.066-.036h4.624c3.011 0 5.987-.071 8.998-.178 1.219-.036 2.473-.072 3.692-.179.108 0 .18-.071.18-.178 0-.108.179-.608-.574-.786a46.7 46.7 0 0 1-2.08-.143z" fill="#004F81" fill-rule="nonzero"/></g></svg>