<?xml version="1.0" encoding="UTF-8"?>
<svg width="388px" height="197px" viewBox="0 0 388 197" version="1.1" xmlns="http://www.w3.org/2000/svg" xmlns:xlink="http://www.w3.org/1999/xlink">
    <!-- Generator: Sketch 47.1 (45422) - http://www.bohemiancoding.com/sketch -->
    <title>9 domains</title>
    <desc>Created with Sketch.</desc>
    <defs></defs>
    <g id="Page-1" stroke="none" stroke-width="1" fill="none" fill-rule="evenodd">
        <g id="9-domains">
            <g id="9-registerYourOwnDomain" transform="translate(32.000000, 29.000000)">
                <rect id="Rectangle-4" fill="#F3F6F8" fill-rule="evenodd" x="54.1289617" y="100.031898" width="93.5606557" height="90.7432217"></rect>
                <rect id="Rectangle" fill="#44D0A3" fill-rule="evenodd" x="67.7508197" y="105.39075" width="70.2601093" height="72.1658692"></rect>
                <path d="M167.046995,217.212121 C166.079126,217.855183 162.960437,219.141308 159.411585,220.320255 L162.458579,220.320255 L166.796066,220.320255 C166.831913,219.248485 166.939454,218.21244 167.082842,217.176396 L167.046995,217.212121 Z" id="Shape"></path>
                <path d="M262.04153,206.744498 L263.009399,193.525997 C263.081093,192.597129 263.152787,191.703987 263.224481,190.77512 L199.66776,190.77512 L203.575082,209.388198 C203.790164,209.316746 204.005246,209.352472 204.148634,209.495375 C210.99541,216.211802 216.157377,218.891228 216.013989,220.391707 C231.141421,220.427432 246.233005,220.498884 261.360437,220.606061 C261.217049,220.427432 261.145355,220.177352 261.145355,219.962998 L262.04153,206.744498 Z" id="Shape"></path>
                <path d="M195.330273,216.211802 C195.509508,217.39075 195.617049,218.605423 195.652896,219.820096 C195.652896,219.998724 195.509508,220.177352 195.330273,220.177352 C195.186885,220.177352 195.043497,220.070175 195.00765,219.927273 C194.685027,218.676874 194.469945,217.39075 194.29071,216.104625 C194.254863,215.81882 194.219016,215.533014 194.183169,215.247209 C192.785137,213.74673 192.534208,211.674641 193.609617,208.637959 C191.960656,202.278788 189.594754,199.527911 187.193005,190.77512 L170.452459,190.77512 C170.882623,197.491547 169.412896,203.243381 168.731803,209.816906 C169.807213,212.853589 169.627978,214.747049 168.301639,216.176077 C168.265792,216.461882 168.229945,216.747687 168.194098,217.033493 C168.05071,218.140989 167.871475,219.212759 167.620546,220.320255 C180.633005,220.355981 193.681311,220.391707 206.69377,220.427432 C201.854426,219.141308 196.692459,217.104944 195.401967,216.283254 L195.330273,216.211802 Z" id="Shape"></path>
                <path d="M291.364372,196.919936 C293.300109,196.741308 294.769836,195.026475 294.626448,193.275917 C294.590601,192.418501 294.196284,191.632536 293.622732,191.025199 C293.013333,190.453589 292.224699,190.132057 291.364372,190.132057 C289.643716,190.167783 288.209836,191.525359 288.138142,193.275917 C288.030601,194.99075 289.428634,196.741308 291.364372,196.919936 Z" id="Shape"></path>
                <path d="M57.5344262,33.153429 L55.1685246,33.153429 L55.1685246,30.7955343 C55.1685246,29.938118 54.4515847,29.2236045 53.5912568,29.2236045 L53.5912568,29.2236045 L53.5912568,29.2236045 C52.730929,29.2236045 52.0139891,29.938118 52.0139891,30.7955343 L52.0139891,30.7955343 L52.0139891,34.7253589 C52.0139891,35.5827751 52.730929,36.2972887 53.5912568,36.2972887 L53.5912568,36.2972887 L57.5344262,36.2972887 C58.3947541,36.2972887 59.111694,35.5827751 59.111694,34.7253589 L59.111694,34.7253589 L59.111694,34.7253589 C59.111694,33.8679426 58.4306011,33.153429 57.5702732,33.153429 C57.5702732,33.153429 57.5344262,33.153429 57.5344262,33.153429 Z" id="Shape" fill="#E1EFF9" fill-rule="nonzero"></path>
                <path d="M69.7582514,0 L77.7521311,0 C78.612459,0 79.3293989,0.714513557 79.3293989,1.57192982 L79.3293989,1.57192982 C79.3293989,2.42934609 78.612459,3.14385965 77.7521311,3.14385965 L69.7582514,3.14385965 C68.8979235,3.14385965 68.1809836,2.42934609 68.1809836,1.57192982 L68.1809836,1.57192982 C68.1809836,0.714513557 68.8979235,0 69.7582514,0 Z" id="Shape" fill="#E1EFF9" fill-rule="nonzero"></path>
                <path d="M269.820328,13.2542265 C269.784481,13.2542265 269.784481,13.2542265 269.748634,13.2542265 C268.924153,13.2899522 268.24306,13.96874 268.24306,14.7904306 L268.24306,22.7572568 C268.24306,23.614673 268.96,24.3291866 269.820328,24.3291866 C270.680656,24.3291866 271.397596,23.614673 271.397596,22.7572568 L271.397596,14.8261563 C271.397596,13.9330144 270.716503,13.2542265 269.820328,13.2542265 C269.820328,13.2542265 269.820328,13.2542265 269.820328,13.2542265 Z" id="Shape" fill="#E1EFF9" fill-rule="nonzero"></path>
                <path d="M63.3416393,1.85773525 C63.0190164,1.03604466 62.1228415,0.643062201 61.2983607,0.964593301 C61.2983607,0.964593301 61.2983607,0.964593301 61.2983607,0.964593301 C58.4664481,2.03636364 56.0646995,3.96555024 54.4157377,6.46634769 C53.9497268,7.18086124 54.1289617,8.14545455 54.8459016,8.64561404 C54.8459016,8.64561404 54.8459016,8.64561404 54.8459016,8.64561404 C54.8817486,8.68133971 54.9175956,8.68133971 54.9534426,8.68133971 C55.6703825,9.11004785 56.5665574,8.89569378 57.0325683,8.18118022 C58.3230601,6.21626794 60.2229508,4.71578947 62.4096175,3.85837321 C63.1624044,3.57256778 63.5925683,2.71515152 63.3416393,1.96491228 C63.3416393,1.9291866 63.3416393,1.89346093 63.3416393,1.85773525 Z" id="Shape" fill="#E1EFF9" fill-rule="nonzero"></path>
                <path d="M53.6271038,24.400638 L53.6271038,24.400638 C54.4874317,24.400638 55.2043716,23.6861244 55.2043716,22.8287081 L55.2043716,22.8287081 L55.2043716,14.861882 C55.2043716,14.0044657 54.5232787,13.3256778 53.6987978,13.3256778 C53.6629508,13.3256778 53.6629508,13.3256778 53.6271038,13.3256778 C52.766776,13.3256778 52.0498361,14.0401914 52.0498361,14.8976077 C52.0498361,14.8976077 52.0498361,14.8976077 52.0498361,14.8976077 L52.0498361,22.8644338 C52.0498361,23.6861244 52.730929,24.400638 53.6271038,24.400638 Z" id="Shape" fill="#E1EFF9" fill-rule="nonzero"></path>
                <path d="M197.660328,0 L205.654208,0 C206.514536,0 207.231475,0.714513557 207.231475,1.57192982 L207.231475,1.57192982 C207.231475,2.42934609 206.514536,3.14385965 205.654208,3.14385965 L197.660328,3.14385965 C196.8,3.14385965 196.08306,2.42934609 196.08306,1.57192982 L196.08306,1.57192982 C196.08306,0.714513557 196.8,0 197.660328,0 Z" id="Shape" fill="#E1EFF9" fill-rule="nonzero"></path>
                <path d="M165.684809,0 L173.678689,0 C174.539016,0 175.255956,0.714513557 175.255956,1.57192982 L175.255956,1.57192982 C175.255956,2.42934609 174.539016,3.14385965 173.678689,3.14385965 L165.684809,3.14385965 C164.824481,3.14385965 164.107541,2.42934609 164.107541,1.57192982 L164.107541,1.57192982 C164.107541,0.714513557 164.824481,0 165.684809,0 Z" id="Shape" fill="#E1EFF9" fill-rule="nonzero"></path>
                <path d="M181.672568,0 L189.666448,0 C190.526776,0 191.243716,0.714513557 191.243716,1.57192982 L191.243716,1.57192982 C191.243716,2.42934609 190.526776,3.14385965 189.666448,3.14385965 L181.672568,3.14385965 C180.81224,3.14385965 180.095301,2.42934609 180.095301,1.57192982 L180.095301,1.57192982 C180.095301,0.714513557 180.81224,0 181.672568,0 Z" id="Shape" fill="#E1EFF9" fill-rule="nonzero"></path>
                <path d="M266.379016,8.14545455 C266.845027,8.82424242 267.741202,9.03859649 268.458142,8.60988836 C268.493989,8.60988836 268.529836,8.57416268 268.565683,8.57416268 C269.282623,8.10972887 269.497705,7.10940989 268.995847,6.39489633 C268.995847,6.39489633 268.995847,6.39489633 268.995847,6.39489633 C267.311038,3.89409888 264.90929,1.96491228 262.077377,0.928867624 C261.252896,0.607336523 260.356721,1.03604466 260.069945,1.85773525 C260.069945,1.89346093 260.069945,1.9291866 260.034098,1.96491228 C259.783169,2.75087719 260.213333,3.57256778 260.96612,3.85837321 C263.152787,4.6800638 265.052678,6.18054226 266.379016,8.14545455 Z" id="Shape" fill="#E1EFF9" fill-rule="nonzero"></path>
                <path d="M213.648087,0 L221.641967,0 C222.502295,0 223.219235,0.714513557 223.219235,1.57192982 L223.219235,1.57192982 C223.219235,2.42934609 222.502295,3.14385965 221.641967,3.14385965 L213.648087,3.14385965 C212.78776,3.14385965 212.07082,2.42934609 212.07082,1.57192982 L212.07082,1.57192982 C212.07082,0.714513557 212.78776,0 213.648087,0 Z" id="Shape" fill="#E1EFF9" fill-rule="nonzero"></path>
                <path d="M245.623607,0 L253.617486,0 C254.477814,0 255.194754,0.714513557 255.194754,1.57192982 L255.194754,1.57192982 C255.194754,2.42934609 254.477814,3.14385965 253.617486,3.14385965 L245.623607,3.14385965 C244.763279,3.14385965 244.046339,2.42934609 244.046339,1.57192982 L244.046339,1.57192982 C244.046339,0.714513557 244.763279,0 245.623607,0 Z" id="Shape" fill="#E1EFF9" fill-rule="nonzero"></path>
                <path d="M229.635847,0 L237.629727,0 C238.490055,0 239.206995,0.714513557 239.206995,1.57192982 L239.206995,1.57192982 C239.206995,2.42934609 238.490055,3.14385965 237.629727,3.14385965 L229.635847,3.14385965 C228.775519,3.14385965 228.058579,2.42934609 228.058579,1.57192982 L228.058579,1.57192982 C228.058579,0.714513557 228.775519,0 229.635847,0 Z" id="Shape" fill="#E1EFF9" fill-rule="nonzero"></path>
                <path d="M133.70929,0 L141.703169,0 C142.563497,0 143.280437,0.714513557 143.280437,1.57192982 L143.280437,1.57192982 C143.280437,2.42934609 142.563497,3.14385965 141.703169,3.14385965 L133.70929,3.14385965 C132.848962,3.14385965 132.132022,2.42934609 132.132022,1.57192982 L132.132022,1.57192982 C132.132022,0.714513557 132.848962,0 133.70929,0 Z" id="Shape" fill="#E1EFF9" fill-rule="nonzero"></path>
                <path d="M149.697049,0 L157.690929,0 C158.551257,0 159.268197,0.714513557 159.268197,1.57192982 L159.268197,1.57192982 C159.268197,2.42934609 158.551257,3.14385965 157.690929,3.14385965 L149.697049,3.14385965 C148.836721,3.14385965 148.119781,2.42934609 148.119781,1.57192982 L148.119781,1.57192982 C148.119781,0.714513557 148.836721,0 149.697049,0 Z" id="Shape" fill="#E1EFF9" fill-rule="nonzero"></path>
                <path d="M85.7460109,0 L93.7398907,0 C94.6002186,0 95.3171585,0.714513557 95.3171585,1.57192982 L95.3171585,1.57192982 C95.3171585,2.42934609 94.6002186,3.14385965 93.7398907,3.14385965 L85.7460109,3.14385965 C84.8856831,3.14385965 84.1687432,2.42934609 84.1687432,1.57192982 L84.1687432,1.57192982 C84.1687432,0.714513557 84.8856831,0 85.7460109,0 Z" id="Shape" fill="#E1EFF9" fill-rule="nonzero"></path>
                <path d="M117.72153,0 L125.71541,0 C126.575738,0 127.292678,0.714513557 127.292678,1.57192982 L127.292678,1.57192982 C127.292678,2.42934609 126.575738,3.14385965 125.71541,3.14385965 L117.72153,3.14385965 C116.861202,3.14385965 116.144262,2.42934609 116.144262,1.57192982 L116.144262,1.57192982 C116.144262,0.714513557 116.861202,0 117.72153,0 Z" id="Shape" fill="#E1EFF9" fill-rule="nonzero"></path>
                <path d="M101.73377,0 L109.72765,0 C110.587978,0 111.304918,0.714513557 111.304918,1.57192982 L111.304918,1.57192982 C111.304918,2.42934609 110.587978,3.14385965 109.72765,3.14385965 L101.73377,3.14385965 C100.873443,3.14385965 100.156503,2.42934609 100.156503,1.57192982 L100.156503,1.57192982 C100.156503,0.714513557 100.873443,0 101.73377,0 Z" id="Shape" fill="#E1EFF9" fill-rule="nonzero"></path>
                <path d="M269.820328,29.2236045 C268.96,29.2236045 268.24306,29.938118 268.24306,30.7955343 C268.24306,30.7955343 268.24306,30.7955343 268.24306,30.7955343 L268.24306,33.153429 L265.877158,33.153429 C265.016831,33.153429 264.299891,33.8679426 264.299891,34.7253589 L264.299891,34.7253589 C264.299891,35.5827751 265.016831,36.2972887 265.877158,36.2972887 L269.820328,36.2972887 C270.680656,36.2972887 271.397596,35.5827751 271.397596,34.7253589 L271.397596,30.7955343 C271.433443,29.938118 270.716503,29.2236045 269.820328,29.2236045 C269.856175,29.2236045 269.856175,29.2236045 269.820328,29.2236045 Z" id="Shape" fill="#E1EFF9" fill-rule="nonzero"></path>
                <path d="M80.6915847,33.153429 L88.3986885,33.153429 C89.2590164,33.153429 89.9759563,33.8679426 89.9759563,34.7253589 L89.9759563,34.7253589 C89.9759563,35.5827751 89.2590164,36.2972887 88.3986885,36.2972887 L80.6915847,36.2972887 C79.8312568,36.2972887 79.1143169,35.5827751 79.1143169,34.7253589 L79.1143169,34.7253589 C79.1143169,33.8322169 79.8312568,33.153429 80.6915847,33.153429 Z" id="Shape" fill="#E1EFF9" fill-rule="nonzero"></path>
                <path d="M235.048743,33.153429 L242.755847,33.153429 C243.616175,33.153429 244.333115,33.8679426 244.333115,34.7253589 L244.333115,34.7253589 C244.333115,35.5827751 243.616175,36.2972887 242.755847,36.2972887 L235.048743,36.2972887 C234.188415,36.2972887 233.471475,35.5827751 233.471475,34.7253589 L233.471475,34.7253589 C233.471475,33.8322169 234.152568,33.153429 235.048743,33.153429 Z" id="Shape" fill="#E1EFF9" fill-rule="nonzero"></path>
                <path d="M250.462951,33.153429 L258.170055,33.153429 C259.030383,33.153429 259.747322,33.8679426 259.747322,34.7253589 L259.747322,34.7253589 C259.747322,35.5827751 259.030383,36.2972887 258.170055,36.2972887 L250.462951,36.2972887 C249.602623,36.2972887 248.885683,35.5827751 248.885683,34.7253589 L248.885683,34.7253589 C248.885683,33.8322169 249.602623,33.153429 250.462951,33.153429 Z" id="Shape" fill="#E1EFF9" fill-rule="nonzero"></path>
                <path d="M188.734426,33.153429 L196.44153,33.153429 C197.301858,33.153429 198.018798,33.8679426 198.018798,34.7253589 L198.018798,34.7253589 C198.018798,35.5827751 197.301858,36.2972887 196.44153,36.2972887 L188.734426,36.2972887 C187.874098,36.2972887 187.157158,35.5827751 187.157158,34.7253589 L187.157158,34.7253589 C187.157158,33.8322169 187.874098,33.153429 188.734426,33.153429 Z" id="Shape" fill="#E1EFF9" fill-rule="nonzero"></path>
                <path d="M65.2415301,33.153429 L72.9486339,33.153429 C73.8089617,33.153429 74.5259016,33.8679426 74.5259016,34.7253589 L74.5259016,34.7253589 C74.5259016,35.5827751 73.8089617,36.2972887 72.9486339,36.2972887 L65.2415301,36.2972887 C64.3812022,36.2972887 63.6642623,35.5827751 63.6642623,34.7253589 L63.6642623,34.7253589 C63.7001093,33.8322169 64.3812022,33.153429 65.2415301,33.153429 Z" id="Shape" fill="#E1EFF9" fill-rule="nonzero"></path>
                <path d="M219.598689,33.153429 L227.305792,33.153429 C228.16612,33.153429 228.88306,33.8679426 228.88306,34.7253589 L228.88306,34.7253589 C228.88306,35.5827751 228.16612,36.2972887 227.305792,36.2972887 L219.598689,36.2972887 C218.738361,36.2972887 218.021421,35.5827751 218.021421,34.7253589 L218.021421,34.7253589 C218.021421,33.8322169 218.738361,33.153429 219.598689,33.153429 Z" id="Shape" fill="#E1EFF9" fill-rule="nonzero"></path>
                <path d="M204.184481,33.153429 L211.891585,33.153429 C212.751913,33.153429 213.468852,33.8679426 213.468852,34.7253589 L213.468852,34.7253589 C213.468852,35.5827751 212.751913,36.2972887 211.891585,36.2972887 L204.184481,36.2972887 C203.324153,36.2972887 202.607213,35.5827751 202.607213,34.7253589 L202.607213,34.7253589 C202.607213,33.8322169 203.288306,33.153429 204.184481,33.153429 Z" id="Shape" fill="#E1EFF9" fill-rule="nonzero"></path>
                <path d="M142.420109,33.153429 L150.127213,33.153429 C150.987541,33.153429 151.704481,33.8679426 151.704481,34.7253589 L151.704481,34.7253589 C151.704481,35.5827751 150.987541,36.2972887 150.127213,36.2972887 L142.420109,36.2972887 C141.559781,36.2972887 140.842842,35.5827751 140.842842,34.7253589 L140.842842,34.7253589 C140.842842,33.8322169 141.559781,33.153429 142.420109,33.153429 Z" id="Shape" fill="#E1EFF9" fill-rule="nonzero"></path>
                <path d="M173.284372,33.153429 L181.027322,33.153429 C181.88765,33.153429 182.60459,33.8679426 182.60459,34.7253589 L182.60459,34.7253589 C182.60459,35.5827751 181.88765,36.2972887 181.027322,36.2972887 L173.320219,36.2972887 C172.459891,36.2972887 171.742951,35.5827751 171.742951,34.7253589 L171.742951,34.7253589 C171.742951,33.8322169 172.424044,33.153429 173.284372,33.153429 Z" id="Shape" fill="#E1EFF9" fill-rule="nonzero"></path>
                <path d="M127.005902,33.153429 L134.713005,33.153429 C135.573333,33.153429 136.290273,33.8679426 136.290273,34.7253589 L136.290273,34.7253589 C136.290273,35.5827751 135.573333,36.2972887 134.713005,36.2972887 L127.005902,36.2972887 C126.145574,36.2972887 125.428634,35.5827751 125.428634,34.7253589 L125.428634,34.7253589 C125.428634,33.8322169 126.109727,33.153429 127.005902,33.153429 Z" id="Shape" fill="#E1EFF9" fill-rule="nonzero"></path>
                <path d="M96.1416393,33.153429 L103.848743,33.153429 C104.709071,33.153429 105.426011,33.8679426 105.426011,34.7253589 L105.426011,34.7253589 C105.426011,35.5827751 104.709071,36.2972887 103.848743,36.2972887 L96.1416393,36.2972887 C95.2813115,36.2972887 94.5643716,35.5827751 94.5643716,34.7253589 L94.5643716,34.7253589 C94.5643716,33.8322169 95.2454645,33.153429 96.1416393,33.153429 Z" id="Shape" fill="#E1EFF9" fill-rule="nonzero"></path>
                <path d="M111.555847,33.153429 L119.262951,33.153429 C120.123279,33.153429 120.840219,33.8679426 120.840219,34.7253589 L120.840219,34.7253589 C120.840219,35.5827751 120.123279,36.2972887 119.262951,36.2972887 L111.555847,36.2972887 C110.695519,36.2972887 109.978579,35.5827751 109.978579,34.7253589 L109.978579,34.7253589 C109.978579,33.8322169 110.695519,33.153429 111.555847,33.153429 Z" id="Shape" fill="#E1EFF9" fill-rule="nonzero"></path>
                <path d="M157.870164,33.153429 L165.577268,33.153429 C166.437596,33.153429 167.154536,33.8679426 167.154536,34.7253589 L167.154536,34.7253589 C167.154536,35.5827751 166.437596,36.2972887 165.577268,36.2972887 L157.870164,36.2972887 C157.009836,36.2972887 156.292896,35.5827751 156.292896,34.7253589 L156.292896,34.7253589 C156.292896,33.8322169 157.009836,33.153429 157.870164,33.153429 Z" id="Shape" fill="#E1EFF9" fill-rule="nonzero"></path>
                <path d="M88.6854645,114.357895 C89.1873224,114.322169 89.6891803,114.357895 90.1910383,114.429346 C92.4135519,114.786603 94.1342077,116.537161 94.4568306,118.752153 C94.5285246,119.502392 94.5285246,120.002552 94.5643716,120.609888 L94.7077596,124.182456 L94.9945355,131.327592 L95.2813115,138.472727 L95.3171585,139.437321 L96.5718033,139.437321 L99.4037158,139.473046 L100.837596,139.473046 C101.554536,139.473046 102.235628,139.794577 102.701639,140.366188 C102.952568,140.687719 103.131803,141.044976 103.131803,141.473684 L103.16765,142.188198 L103.239344,143.581499 L103.346885,146.403828 C103.454426,149.762041 103.561967,153.155981 103.52612,156.54992 L131.630164,156.764274 L131.630164,156.764274 C131.881093,156.764274 132.060328,156.978628 132.060328,157.192982 C132.060328,157.192982 132.060328,157.192982 132.060328,157.192982 L132.060328,157.192982 L131.845246,170.054226 L131.773552,170.054226 C132.024481,172.519298 132.132022,174.948644 132.239563,177.413716 L144.786011,177.413716 L144.786011,113.464753 C141.918251,109.820734 138.584481,105.033493 138.512787,102.354067 C138.369399,97.6025518 140.914536,96.2807018 144.606776,92.0293461 L144.786011,92.1365231 L144.786011,92.0650718 C144.67847,91.9578947 144.606776,91.8507177 144.535082,91.707815 L67.6432787,91.707815 L67.6432787,114.500797 L88.6137705,114.429346 C88.6137705,114.357895 88.6496175,114.357895 88.6854645,114.357895 Z" id="Shape" fill="#44D0A3" fill-rule="nonzero"></path>
                <path d="M59.290929,151.941308 L59.326776,148.547368 C57.4627322,148.511643 55.5986885,148.475917 53.7346448,148.404466 L53.7346448,156.299841 L61.2625137,156.299841 C59.9361749,155.22807 59.219235,153.620415 59.290929,151.941308 Z" id="Shape" fill="#F3F6F8" fill-rule="nonzero"></path>
                <path d="M268.207213,133.649761 L261.037814,132.899522 C259.388852,132.720893 257.775738,132.542265 256.162623,132.363636 L256.162623,178.199681 L197.015082,178.199681 L199.66776,190.810845 L263.224481,190.810845 C263.869727,182.91547 264.479126,175.020096 265.160219,167.124721 C265.948852,158.300478 266.665792,149.511962 267.52612,140.687719 C267.741202,138.294099 267.992131,135.97193 268.207213,133.649761 Z" id="Shape" fill="#F3F6F8" fill-rule="nonzero"></path>
                <path d="M265.913005,36.261563 C265.052678,36.261563 264.335738,35.5470494 264.335738,34.6896332 L259.747322,34.6896332 C259.747322,35.5470494 259.030383,36.261563 258.170055,36.261563 L250.462951,36.261563 C249.602623,36.261563 248.885683,35.5470494 248.885683,34.6896332 L244.297268,34.6896332 C244.297268,35.5470494 243.580328,36.261563 242.72,36.261563 L235.012896,36.261563 C234.152568,36.261563 233.435628,35.5470494 233.435628,34.6896332 L228.847213,34.6896332 C228.847213,35.5470494 228.130273,36.261563 227.269945,36.261563 L219.562842,36.261563 C218.702514,36.261563 217.985574,35.5470494 217.985574,34.6896332 L213.397158,34.6896332 C213.397158,35.5470494 212.680219,36.261563 211.819891,36.261563 L204.07694,36.261563 C203.216612,36.261563 202.499672,35.5470494 202.499672,34.6896332 L197.911257,34.6896332 C197.911257,35.5470494 197.194317,36.261563 196.333989,36.261563 L188.626885,36.261563 C187.766557,36.261563 187.049617,35.5470494 187.049617,34.6896332 L182.461202,34.6896332 C182.461202,35.5470494 181.744262,36.261563 180.883934,36.261563 L173.176831,36.261563 C172.316503,36.261563 171.599563,35.5470494 171.599563,34.6896332 L167.011148,34.6896332 C167.011148,35.5470494 166.294208,36.261563 165.43388,36.261563 L157.690929,36.261563 C156.830601,36.261563 156.113661,35.5470494 156.113661,34.6896332 L151.525246,34.6896332 C151.525246,35.5470494 150.808306,36.261563 149.947978,36.261563 L142.240874,36.261563 C141.380546,36.261563 140.663607,35.5470494 140.663607,34.6896332 L136.075191,34.6896332 C136.075191,35.5470494 135.358251,36.261563 134.497923,36.261563 L126.79082,36.261563 C125.930492,36.261563 125.213552,35.5470494 125.213552,34.6896332 L120.625137,34.6896332 C120.625137,35.5470494 119.908197,36.261563 119.047869,36.261563 L111.340765,36.261563 C110.480437,36.261563 109.763497,35.5470494 109.763497,34.6896332 L105.175082,34.6896332 C105.175082,35.5470494 104.458142,36.261563 103.597814,36.261563 L95.8548634,36.261563 C94.9945355,36.261563 94.2775956,35.5470494 94.2775956,34.6896332 L89.9759563,34.6896332 C89.9759563,35.5470494 89.2590164,36.261563 88.3986885,36.261563 L80.6915847,36.261563 C79.8312568,36.261563 79.1143169,35.5470494 79.1143169,34.6896332 L74.5617486,34.6896332 C74.5617486,35.5470494 73.8448087,36.261563 72.9844809,36.261563 L65.2415301,36.261563 C64.3812022,36.261563 63.6642623,35.5470494 63.6642623,34.6896332 L59.075847,34.6896332 C59.075847,35.5470494 58.3589071,36.261563 57.4985792,36.261563 L57.4985792,36.261563 L53.6271038,36.261563 L53.6271038,114.465072 L67.5715847,114.429346 L67.5715847,91.6363636 L144.535082,91.6363636 C144.212459,90.9218501 144.32,90.1001595 144.786011,89.492823 C146.82929,87.0634769 150.664918,82.2047847 154.823169,78.4535885 L67.9300546,78.4535885 L67.9300546,60.5550239 C67.9300546,53.9457735 73.3071038,48.5511962 79.9746448,48.5511962 L79.9746448,48.5511962 L159.447432,48.5511962 C159.770055,48.3011164 160.128525,48.122488 160.486995,47.908134 C160.486995,47.908134 158.51541,41.3703349 165.362186,39.2625199 C170.846776,37.5834131 173.750383,39.9413078 173.750383,39.9413078 C173.750383,39.9413078 178.91235,36.9403509 182.96306,40.3700159 C186.476066,43.3352472 185.866667,46.1218501 185.866667,46.1218501 C187.228852,46.6220096 188.411803,47.4437002 189.343825,48.5511962 L256.126776,48.5511962 L256.126776,73.5591707 L269.820328,74.6666667 L269.820328,36.261563 L265.913005,36.261563 Z" id="Shape" fill="#F3F6F8" fill-rule="nonzero"></path>
                <path d="M184.325246,180.128868 C184.03847,179.485805 183.787541,178.842743 183.572459,178.163955 L170.093989,178.163955 C169.305355,181.8437 169.48459,183.915789 170.058142,187.666986 C170.237377,188.738756 170.344918,189.774801 170.380765,190.77512 L187.121311,190.77512 C186.583607,188.810207 186.045902,186.55949 185.544044,183.880064 C185.328962,182.593939 184.898798,181.343541 184.325246,180.128868 Z" id="Shape" fill="#F3F6F8" fill-rule="nonzero"></path>
                <path d="M203.503388,91.9936204 L203.539235,91.9578947 C203.754317,92.2079745 203.969399,92.4223285 204.184481,92.6366826 L218.27235,92.6366826 L218.594973,88.2424242 L219.383607,78.4178628 L193.430383,78.4178628 C197.373552,81.9904306 201.352568,86.8848485 203.503388,89.4570973 C204.07694,90.2073365 204.07694,91.2791069 203.503388,91.9936204 Z" id="Shape" fill="#F3F6F8" fill-rule="nonzero"></path>
                <path d="M266.199781,190.77512 L269.820328,190.77512 L269.820328,147.689952 C269.31847,154.227751 268.744918,160.76555 268.24306,167.303349 C267.633661,175.127273 266.916721,182.951196 266.199781,190.77512 Z" id="Shape" fill="#F3F6F8" fill-rule="nonzero"></path>
                <path d="M154.787322,99.7460925 L153.998689,99.138756 L150.700765,102.997129 L150.772459,103.104306 L150.808306,103.104306 C151.130929,103.425837 151.453552,103.747368 151.740328,104.104625 C152.027104,104.461882 152.278033,104.819139 152.493115,105.212121 L152.815738,105.819458 C152.887432,106.033812 153.066667,106.176715 152.959126,106.498246 C152.959126,106.533971 152.923279,106.533971 152.887432,106.569697 C154.10623,108.784689 155.038251,111.178309 155.719344,113.607656 C156.543825,111.74992 157.511694,109.963636 158.658798,108.320255 C158.766339,108.177352 158.838033,108.070175 158.945574,107.962998 C157.834317,105.890909 157.08153,102.782775 156.687213,98.245614 L154.787322,99.7460925 Z" id="Shape" fill="#F3F6F8" fill-rule="nonzero"></path>
                <path d="M155.468415,174.484211 C153.353443,174.448485 151.23847,174.555662 149.123497,174.305582 C148.944262,174.269856 148.800874,174.126954 148.836721,173.948325 C148.836721,173.805423 148.980109,173.66252 149.123497,173.66252 C149.732896,173.591069 150.378142,173.555343 150.987541,173.519617 C149.302732,160.051037 148.72918,141.295056 151.812022,126.147368 L150.700765,128.540989 C147.366995,128.112281 148.980109,118.466348 148.980109,118.466348 C148.980109,118.466348 147.044372,116.322807 144.821858,113.500478 L144.821858,177.449442 L132.27541,177.449442 C132.347104,179.2 132.382951,180.986284 132.418798,182.736842 L132.490492,190.846571 L158.766339,190.846571 C158.407869,185.201914 157.941858,179.45008 157.547541,174.555662 L155.468415,174.484211 Z" id="Shape" fill="#F3F6F8" fill-rule="nonzero"></path>
                <path d="M324.415301,221.427751 C313.159344,221.213397 301.903388,221.034769 290.647432,220.891866 C290.611585,221.034769 290.575738,221.177671 290.575738,221.320574 L290.575738,221.3563 C290.504044,221.927911 289.930492,222.320893 289.35694,222.249442 C288.890929,222.17799 288.532459,221.820734 288.460765,221.3563 C288.424918,221.177671 288.424918,221.034769 288.424918,220.85614 L281.398907,220.784689 C281.398907,220.963317 281.36306,221.10622 281.36306,221.284848 L281.36306,221.284848 C281.327213,221.856459 280.861202,222.320893 280.28765,222.285167 C279.785792,222.285167 279.355628,221.892185 279.283934,221.392026 C279.248087,221.177671 279.248087,220.963317 279.21224,220.748963 C273.835191,220.713238 268.493989,220.641786 263.11694,220.606061 C262.794317,221.070494 262.184918,221.213397 261.718907,220.891866 C261.611366,220.820415 261.503825,220.713238 261.432131,220.606061 C246.304699,220.498884 231.213115,220.427432 216.085683,220.391707 C216.085683,220.534609 216.013989,220.641786 215.942295,220.748963 C214.938579,222.035088 210.923716,221.463477 206.69377,220.355981 C193.681311,220.320255 180.633005,220.28453 167.620546,220.248804 C167.584699,220.427432 167.548852,220.606061 167.513005,220.784689 C167.477158,220.963317 167.297923,221.070494 167.082842,221.034769 C166.939454,220.999043 166.831913,220.85614 166.831913,220.713238 C166.831913,220.570335 166.86776,220.427432 166.86776,220.248804 L162.530273,220.248804 L159.483279,220.248804 C154.321311,221.963636 148.299016,223.321212 146.972678,221.677831 C146.685902,221.320574 146.82929,220.85614 147.331148,220.28453 L132.024481,220.320255 C132.024481,220.498884 132.024481,220.677512 131.988634,220.85614 C131.952787,221.034769 131.809399,221.141946 131.630164,221.141946 C131.486776,221.141946 131.379235,220.999043 131.343388,220.85614 C131.343388,220.677512 131.343388,220.498884 131.307541,220.320255 L81.5519126,220.427432 C68.0017486,220.534609 54.4515847,220.641786 40.9014208,220.820415 C40.9014208,220.820415 40.9014208,220.820415 40.9014208,220.85614 C40.8655738,221.034769 40.7221858,221.141946 40.5429508,221.141946 C40.3995628,221.141946 40.2920219,220.999043 40.2561749,220.85614 L40.2561749,220.85614 C35.4168306,220.927592 30.5774863,220.999043 25.7381421,221.10622 C23.9816393,221.141946 22.2609836,221.177671 20.5044809,221.213397 L19.608306,221.249123 L19.357377,221.249123 L18.4253552,221.284848 C16.8480874,221.320574 15.3066667,221.3563 13.7293989,221.392026 C9.35606557,221.499203 4.98273224,221.60638 0.609398907,221.749282 C0.430163934,221.785008 0.322622951,221.927911 0.322622951,222.106539 C0.322622951,222.249442 0.466010929,222.356619 0.609398907,222.392344 C27.6021858,223.249761 54.5949727,223.428389 81.5519126,223.642743 L162.494426,223.821372 C216.48,223.642743 270.429727,223.74992 324.415301,222.67815 C324.77377,222.67815 325.060546,222.392344 325.060546,222.035088 C325.060546,221.677831 324.77377,221.463477 324.415301,221.427751 L324.415301,221.427751 Z" id="Shape" fill="#E9EFF4" fill-rule="nonzero"></path>
                <path d="M197.409399,103.104306 L197.409399,103.104306 L197.481093,102.997129 L194.577486,99.6389155 L194.541639,99.6746411 L193.215301,98.3885167 C192.785137,99.9247209 192.283279,101.460925 191.638033,102.925678 C190.95694,104.604785 190.024918,106.176715 188.841967,107.570016 C188.80612,107.605742 188.734426,107.641467 188.698579,107.605742 C189.917377,109.177671 190.992787,110.856778 191.888962,112.643062 C192.068197,113.000319 192.247432,113.393301 192.426667,113.750558 C193.10776,111.249761 194.039781,108.85614 195.294426,106.569697 C195.258579,106.533971 195.258579,106.533971 195.222732,106.498246 C195.115191,106.176715 195.294426,106.033812 195.36612,105.819458 L195.688743,105.212121 C195.903825,104.819139 196.154754,104.426156 196.44153,104.104625 C196.8,103.747368 197.086776,103.425837 197.409399,103.104306 Z" id="Shape" fill="#C2F4FF" fill-rule="nonzero"></path>
                <path d="M187.623169,107.820096 C188.196721,108.498884 188.734426,109.249123 189.236284,110.035088 C188.734426,109.249123 188.232568,108.498884 187.659016,107.748644 L187.623169,107.820096 Z" id="Shape" fill="#C2F4FF" fill-rule="nonzero"></path>
                <path d="M240.640874,130.470175 L240.676721,130.077193 L231.535738,129.326954 L231.499891,129.719936 C225.943607,129.577033 220.494863,126.004466 218.200656,120.717065 C217.627104,119.395215 217.19694,118.001914 216.981858,116.608612 C216.802623,115.215311 216.766776,113.786284 216.910164,112.357257 C217.053552,109.677831 217.232787,106.998405 217.447869,104.318979 L218.27235,92.6724083 L204.184481,92.6724083 C207.554098,96.3521531 209.776612,97.8169059 209.669071,102.318341 C209.525683,107.069856 199.201749,118.394896 199.201749,118.394896 C199.201749,118.394896 200.814863,128.040829 197.481093,128.469537 L196.835847,127.076236 C197.696175,130.827432 198.305574,134.578628 198.699891,138.401276 C199.882842,150.155024 199.66776,162.051675 197.481093,173.66252 C198.269727,173.698246 199.094208,173.698246 199.882842,173.769697 C199.990383,173.769697 200.062077,173.841148 200.062077,173.948325 C200.062077,174.055502 199.990383,174.126954 199.882842,174.126954 C198.664044,174.198405 197.409399,174.234131 196.190601,174.305582 L197.015082,178.199681 L256.162623,178.199681 L256.162623,132.327911 C250.964809,131.7563 245.802842,131.148963 240.640874,130.470175 Z" id="Shape" fill="#C2F4FF" fill-rule="nonzero"></path>
                <path d="M188.626885,107.391388 L188.626885,107.391388 L189.200437,106.069537 C188.949508,106.426794 188.662732,106.784051 188.375956,107.105582 C188.483497,107.212759 188.555191,107.355662 188.662732,107.462839 C188.626885,107.427113 188.626885,107.427113 188.626885,107.391388 Z" id="Shape" fill="#C2F4FF" fill-rule="nonzero"></path>
                <path d="M174.503169,174.519936 L170.775082,174.519936 C170.595847,175.806061 170.380765,176.985008 170.129836,178.092504 C170.129836,178.12823 170.129836,178.163955 170.093989,178.199681 L183.572459,178.199681 C183.178142,176.985008 182.819672,175.770335 182.532896,174.519936 L174.503169,174.519936 Z" id="Shape" fill="#C2F4FF" fill-rule="nonzero"></path>
                <path d="M327.713224,93.2440191 C327.103825,85.7416268 321.44,79.5968102 313.983825,78.3464115 L312.621639,78.1677831 L311.402842,78.0606061 L308.965246,77.846252 L299.25071,77.0245614 L269.820328,74.6666667 L256.126776,73.5591707 L221.60612,70.7725678 L219.993005,70.6296651 L219.849617,72.2373206 L219.34776,78.4178628 L218.559126,88.2424242 L218.236503,92.6366826 L217.412022,104.283254 C217.19694,106.962679 217.017705,109.642105 216.874317,112.321531 C216.766776,113.750558 216.802623,115.179585 216.946011,116.572887 C217.161093,118.001914 217.591257,119.395215 218.164809,120.68134 C220.459016,125.96874 225.943607,129.541308 231.464044,129.684211 L231.499891,129.291228 L231.535738,128.898246 C228.954754,128.540989 226.517158,127.504944 224.47388,125.897289 C221.462732,123.539394 219.562842,120.074003 219.168525,116.287081 C219.096831,115.036683 219.132678,113.750558 219.311913,112.535885 C219.634536,109.856459 219.885464,107.212759 220.136393,104.533333 L221.283497,92.6724083 L221.677814,88.5282297 L222.538142,78.4535885 L222.896612,74.1307815 L256.090929,76.9888357 L269.784481,78.1677831 L298.928087,80.6685805 L308.642623,81.4902711 L311.080219,81.7046252 L312.299016,81.8118022 L313.374426,81.9547049 C314.772459,82.2047847 316.134645,82.6334928 317.38929,83.3122807 C319.934426,84.6698565 321.941858,86.8491228 323.124809,89.4570973 C323.698361,90.7432217 324.056831,92.1365231 324.200219,93.5655502 C324.271913,94.2800638 324.271913,94.9945774 324.236066,95.7090909 L324.056831,98.1027113 L321.045683,135.150239 L302.190164,133.614035 C295.379235,133.042424 288.532459,132.542265 281.72153,132.042105 L271.46929,131.327592 L271.074973,131.291866 C271.039126,131.720574 271.003279,132.185008 270.967432,132.613716 C270.931585,133.042424 270.895738,133.506858 270.859891,133.935566 L271.218361,133.971292 L281.434754,134.935885 C288.245683,135.578947 295.056612,136.22201 301.867541,136.79362 L322.336175,138.544179 L323.985137,138.687081 L324.128525,137.0437 L327.498142,98.3527911 L327.713224,95.923445 C327.784918,95.030303 327.784918,94.1371611 327.713224,93.2440191 Z" id="Shape" fill="#0084C0" fill-rule="nonzero"></path>
                <path d="M256.162623,130.398724 C251.000656,130.112919 245.874536,129.862839 240.712568,129.684211 L240.676721,130.077193 L240.640874,130.470175 C245.802842,131.148963 250.964809,131.7563 256.162623,132.327911 C257.775738,132.506539 259.424699,132.685167 261.037814,132.863796 L268.207213,133.614035 C268.24306,133.185327 268.278907,132.792344 268.314754,132.363636 C268.350601,131.934928 268.386448,131.541946 268.422295,131.113238 L261.217049,130.68453 C259.53224,130.577352 257.847432,130.505901 256.162623,130.398724 Z" id="Shape" fill="#0084C0" fill-rule="nonzero"></path>
                <path d="M173.42776,68.0931419 C171.850492,68.1288676 170.273224,67.7716108 168.839344,67.092823 L168.839344,70.415311 C168.839344,70.415311 174.108852,69.8794258 176.869071,67.5572568 C175.757814,67.9145136 174.61071,68.0931419 173.42776,68.0931419 Z" id="Shape" fill="#86A6BD" fill-rule="nonzero"></path>
                <path d="M168.839344,70.3795853 L168.839344,72.0229665 C169.054426,72.2373206 169.269508,72.4516746 169.520437,72.7017544 L171.348634,74.4880383 C172.424044,75.5598086 173.499454,76.5958533 174.574863,77.6676236 L177.765246,74.523764 C178.625574,73.6663477 179.521749,72.8803828 180.45377,72.0944179 L180.45377,65.199362 C179.485902,66.2711324 178.231257,67.0570973 176.869071,67.4858054 C174.108852,69.8437002 168.875191,70.3795853 168.839344,70.3795853 Z" id="Shape" fill="#A6C1D1" fill-rule="nonzero"></path>
                <path d="M177.801093,58.0542265 C177.801093,58.4829346 177.442623,58.8401914 177.012459,58.8401914 C176.582295,58.8401914 176.223825,58.4829346 176.223825,58.0542265 L176.223825,56.9824561 C173.750383,56.4822967 171.420328,55.339075 169.520437,53.6956938 C169.090273,53.6956938 168.660109,53.6956938 168.229945,53.7671451 C167.763934,53.8028708 167.297923,53.9457735 166.86776,54.1244019 L166.796066,54.1601276 C166.616831,54.2315789 166.437596,54.1958533 166.330055,54.0172249 C166.258361,53.9100478 166.294208,53.7671451 166.365902,53.6599681 C166.796066,53.1598086 167.405464,52.8740032 168.05071,52.7668262 C168.194098,52.7668262 168.373333,52.7668262 168.516721,52.7668262 C167.405464,51.5878788 166.50929,50.1945774 165.899891,48.6940989 C165.899891,48.7298246 165.899891,48.7298246 165.899891,48.7655502 C164.071694,52.7668262 163.533989,59.2688995 166.222514,63.4130781 C166.86776,64.4491228 167.763934,65.3065391 168.803497,65.9138756 C169.592131,66.3783094 170.416612,66.6998405 171.312787,66.8427432 L175.650273,66.8070175 C177.621858,66.4140351 179.306667,65.2350877 180.417923,63.5917065 C180.45377,63.5202552 180.525464,63.4488038 180.561311,63.3773525 C181.206557,62.3770335 181.636721,61.2695375 181.923497,60.1263158 L182.031038,59.769059 C182.210273,59.0188198 182.317814,58.2328549 182.353661,57.44689 C180.81224,57.5183413 179.27082,57.44689 177.729399,57.2325359 L177.801093,58.0542265 Z M172.854208,56.660925 C172.890055,56.5180223 173.033443,56.446571 173.176831,56.4822967 C173.284372,56.5180223 173.356066,56.5894737 173.356066,56.660925 C173.499454,57.3754386 173.606995,58.0899522 173.606995,58.8044657 C173.642842,59.5189793 173.571148,60.2334928 173.463607,60.9480064 C173.463607,61.1623604 173.284372,61.3052632 173.105137,61.3052632 C172.890055,61.3052632 172.746667,61.1266348 172.746667,60.9480064 C172.639126,60.2334928 172.567432,59.5189793 172.603279,58.8044657 C172.603279,58.0899522 172.674973,57.3754386 172.854208,56.660925 Z M168.229945,58.0542265 L168.229945,56.8395534 C168.265792,56.4108453 168.624262,56.0893142 169.054426,56.1250399 C169.448743,56.1607656 169.735519,56.446571 169.771366,56.8395534 L169.771366,58.0542265 C169.735519,58.4829346 169.377049,58.8044657 168.946885,58.76874 C168.552568,58.7330144 168.265792,58.4472089 168.229945,58.0542265 Z M175.112568,63.4488038 C174.96918,63.8060606 174.682404,64.091866 174.323934,64.2704944 C174.001311,64.4491228 173.606995,64.5205742 173.248525,64.5205742 C172.495738,64.5562998 171.742951,64.1633174 171.348634,63.5202552 C171.27694,63.3416268 171.312787,63.1629984 171.492022,63.0558214 C171.599563,62.98437 171.742951,63.0200957 171.814645,63.0558214 L171.886339,63.091547 C172.280656,63.3416268 172.746667,63.4845295 173.248525,63.4845295 C173.714536,63.5202552 174.180546,63.3773525 174.539016,63.0558214 L174.574863,63.0200957 C174.754098,62.9129187 174.96918,62.9486443 175.076721,63.1272727 C175.112568,63.2344498 175.148415,63.3416268 175.112568,63.4488038 L175.112568,63.4488038 Z" id="Shape" fill="#A6C1D1" fill-rule="nonzero"></path>
                <path d="M197.015082,178.163955 L196.190601,174.269856 C193.179454,174.377033 190.204153,174.448485 187.193005,174.448485 L182.568743,174.448485 C182.855519,175.698884 183.178142,176.913557 183.608306,178.12823 C183.823388,178.807018 184.074317,179.45008 184.361093,180.093142 C184.934645,181.307815 185.328962,182.558214 185.579891,183.844338 C186.117596,186.523764 186.655301,188.774482 187.157158,190.739394 C189.558907,199.492185 191.924809,202.243062 193.57377,208.602233 C193.57377,208.602233 197.552787,211.638915 200.348852,211.388836 C201.603497,211.281659 203.144918,210.602871 203.180765,209.888357 C203.180765,209.638278 203.36,209.459649 203.575082,209.388198 L199.66776,190.77512 L197.015082,178.163955 Z" id="Shape" fill="#A6C1D1" fill-rule="nonzero"></path>
                <path d="M170.129836,178.056778 C170.380765,176.949282 170.595847,175.770335 170.775082,174.484211 L161.813333,174.484211 L160.737923,174.484211 L157.511694,174.484211 C157.906011,179.378628 158.372022,185.130463 158.730492,190.77512 C159.196503,198.241786 159.554973,205.529825 159.447432,210.459968 C159.554973,210.567145 159.626667,210.674322 159.626667,210.817225 C159.662514,211.531738 161.203934,212.174801 162.458579,212.317703 C165.254645,212.567783 168.695956,209.816906 168.695956,209.816906 C169.377049,203.243381 170.846776,197.491547 170.416612,190.77512 C170.344918,189.774801 170.237377,188.738756 170.093989,187.666986 C169.520437,183.915789 169.305355,181.8437 170.129836,178.163955 C170.129836,178.12823 170.129836,178.092504 170.129836,178.056778 Z" id="Shape" fill="#A6C1D1" fill-rule="nonzero"></path>
                <path d="M198.879126,102.711324 C198.735738,103.140032 198.484809,103.497289 198.162186,103.81882 C197.87541,104.140351 197.624481,104.426156 197.373552,104.783413 C197.15847,105.14067 196.871694,105.426475 196.656612,105.783732 L196.333989,106.319617 C196.226448,106.498246 196.190601,106.7126 195.903825,106.784051 L195.832131,106.784051 C195.652896,106.819777 195.437814,106.748325 195.36612,106.569697 C194.111475,108.85614 193.179454,111.249761 192.498361,113.750558 C192.964372,114.715152 193.430383,115.71547 193.788852,116.751515 C194.362404,118.144817 194.828415,119.538118 195.258579,120.967145 C195.867978,123.003509 196.405683,125.039872 196.871694,127.111962 L197.51694,128.505263 C200.85071,128.076555 199.237596,118.430622 199.237596,118.430622 C199.237596,118.430622 209.56153,107.105582 209.704918,102.354067 C209.848306,97.8883573 207.589945,96.4236045 204.220328,92.708134 C204.005246,92.4937799 203.826011,92.2794258 203.575082,92.0293461 L203.539235,92.0650718 C203.431694,92.2079745 203.324153,92.3508772 203.180765,92.4580542 L202.858142,92.7438596 L194.64918,99.7103668 L197.552787,103.068581 L197.481093,103.175758 C197.803716,102.818501 198.23388,102.604147 198.699891,102.532695 C198.807432,102.532695 198.914973,102.604147 198.914973,102.711324 C198.843279,102.675598 198.843279,102.675598 198.879126,102.711324 L198.879126,102.711324 Z" id="Shape" fill="#A6C1D1" fill-rule="nonzero"></path>
                <path d="M152.385574,106.784051 L152.31388,106.784051 C152.027104,106.7126 151.991257,106.498246 151.883716,106.319617 L151.561093,105.783732 C151.346011,105.426475 151.059235,105.104944 150.844153,104.783413 C150.593224,104.461882 150.342295,104.140351 150.055519,103.81882 C149.732896,103.533014 149.481967,103.140032 149.338579,102.711324 L149.338579,102.711324 C149.302732,102.604147 149.374426,102.49697 149.481967,102.461244 C149.481967,102.461244 149.481967,102.461244 149.481967,102.461244 C149.517814,102.461244 149.517814,102.461244 149.553661,102.461244 C150.019672,102.49697 150.449836,102.747049 150.772459,103.104306 L150.700765,102.997129 L154.034536,99.138756 L145.180328,92.4223285 C145.108634,92.3508772 145.03694,92.2437002 144.965246,92.1722488 L144.821858,92.1007974 L144.642623,91.9936204 C140.914536,96.2449761 138.405246,97.5311005 138.548634,102.318341 C138.620328,104.997767 141.954098,109.785008 144.821858,113.429027 C147.044372,116.251356 148.980109,118.394896 148.980109,118.394896 C148.980109,118.394896 147.366995,128.040829 150.700765,128.469537 L151.812022,126.075917 C152.636503,121.788836 153.926995,117.608931 155.64765,113.607656 C154.966557,111.142584 154.034536,108.784689 152.815738,106.569697 C152.779891,106.748325 152.564809,106.855502 152.385574,106.784051 Z" id="Shape" fill="#A6C1D1" fill-rule="nonzero"></path>
                <path d="M154.787322,99.7460925 L156.651366,98.245614 C156.472131,96.2449761 156.400437,94.0299841 156.400437,91.4220096 C156.400437,87.9566188 157.726776,82.7406699 160.020984,78.4535885 C160.988852,76.5601276 162.279344,74.8452951 163.820765,73.3805423 C161.060546,73.5948963 157.906011,75.7027113 154.859016,78.4535885 C150.700765,82.2047847 146.865137,87.0634769 144.821858,89.492823 C144.32,90.1001595 144.212459,90.9218501 144.570929,91.6363636 C144.642623,91.7792663 144.714317,91.8864434 144.821858,91.9936204 C144.857705,92.0293461 144.893552,92.1007974 144.965246,92.1365231 C145.03694,92.2437002 145.108634,92.3151515 145.180328,92.3866029 L153.998689,99.1030303 L154.787322,99.7460925 Z" id="Shape" fill="#004F84" fill-rule="nonzero"></path>
                <path d="M192.534208,96.6379585 C192.820984,95.3518341 193.036066,94.0299841 193.143607,92.708134 C193.143607,92.6009569 193.179454,92.4937799 193.179454,92.3508772 L193.251148,91.0290271 L193.215301,89.707177 C193.251148,88.8140351 193.000219,87.9923445 193.179454,87.0634769 L193.179454,87.0277512 C193.251148,86.8491228 193.430383,86.7419458 193.645464,86.8133971 C193.717158,86.8491228 193.824699,86.9205742 193.860546,86.9920255 C194.147322,87.8494418 194.29071,88.7783094 194.254863,89.6714514 L194.29071,91.0290271 L194.219016,92.3866029 C194.219016,92.4937799 194.219016,92.5652313 194.183169,92.6724083 C194.075628,94.3157895 193.824699,95.9591707 193.430383,97.5668262 C193.394536,97.6382775 193.394536,97.7097289 193.394536,97.7811802 C193.358689,97.8883573 193.322842,98.03126 193.286995,98.138437 C193.251148,98.245614 193.251148,98.2813397 193.215301,98.3527911 L194.541639,99.6389155 L194.577486,99.6031898 L202.786448,92.6366826 L203.109071,92.3508772 C203.252459,92.2437002 203.36,92.1007974 203.467541,91.9578947 C204.041093,91.2076555 204.041093,90.1716108 203.431694,89.4213716 C201.280874,86.8491228 197.301858,81.9547049 193.358689,78.3821372 C191.028634,76.2743222 188.698579,74.5952153 186.726995,74.1665072 C188.053333,75.3811802 189.200437,76.8102073 190.096612,78.3821372 C191.888962,81.4188198 192.892678,84.8484848 192.964372,88.3496013 C192.964372,89.8858054 192.928525,91.2791069 192.820984,92.6009569 C192.820984,94.1014354 192.713443,95.4232855 192.534208,96.6379585 Z" id="Shape" fill="#004F84" fill-rule="nonzero"></path>
                <path d="M162.494426,212.317703 C161.239781,212.210526 159.698361,211.531738 159.662514,210.817225 C159.662514,210.674322 159.59082,210.567145 159.483279,210.459968 C159.268197,210.245614 158.909727,210.245614 158.694645,210.459968 C158.694645,210.459968 158.694645,210.459968 158.694645,210.459968 C153.174208,215.890271 148.72918,218.676874 147.295301,220.320255 C146.793443,220.891866 146.650055,221.3563 146.936831,221.713557 C148.227322,223.356938 154.249617,221.999362 159.447432,220.28453 C162.960437,219.141308 166.079126,217.819458 167.082842,217.176396 L167.154536,217.14067 C167.584699,216.854864 167.979016,216.533333 168.301639,216.176077 C169.627978,214.747049 169.84306,212.853589 168.731803,209.816906 C168.731803,209.816906 165.254645,212.603509 162.494426,212.317703 Z" id="Shape" fill="#004F84" fill-rule="nonzero"></path>
                <path d="M204.148634,209.5311 C203.933552,209.316746 203.539235,209.316746 203.324153,209.566826 C203.216612,209.674003 203.180765,209.78118 203.180765,209.924083 C203.144918,210.638596 201.603497,211.281659 200.348852,211.424561 C197.552787,211.674641 193.57377,208.637959 193.57377,208.637959 C192.462514,211.674641 192.74929,213.74673 194.147322,215.247209 C194.505792,215.604466 194.864262,215.961722 195.294426,216.247528 L195.36612,216.283254 C196.656612,217.104944 201.782732,219.141308 206.657923,220.427432 C210.887869,221.534928 214.866885,222.106539 215.906448,220.820415 C215.978142,220.713238 216.049836,220.606061 216.049836,220.463158 C216.157377,218.926954 210.99541,216.247528 204.148634,209.5311 Z" id="Shape" fill="#004F84" fill-rule="nonzero"></path>
                <path d="M169.018579,58.8044657 C169.448743,58.8044657 169.807213,58.4472089 169.807213,58.0185008 C169.807213,58.0185008 169.807213,58.0185008 169.807213,58.0185008 L169.807213,56.8038278 C169.771366,56.3751196 169.412896,56.0535885 168.982732,56.0893142 C168.588415,56.1250399 168.301639,56.4108453 168.265792,56.8038278 L168.265792,58.0185008 C168.229945,58.4829346 168.588415,58.8044657 169.018579,58.8044657 C169.018579,58.8044657 169.018579,58.8044657 169.018579,58.8044657 Z" id="Shape" fill="#004F84" fill-rule="nonzero"></path>
                <path d="M177.012459,58.8044657 C177.442623,58.8044657 177.801093,58.4472089 177.801093,58.0185008 L177.801093,56.8038278 C177.801093,56.3751196 177.442623,56.0178628 177.012459,56.0178628 C176.582295,56.0178628 176.223825,56.3751196 176.223825,56.8038278 L176.223825,56.8038278 L176.223825,58.0185008 C176.223825,58.4829346 176.582295,58.8044657 177.012459,58.8044657 C177.012459,58.8044657 177.012459,58.8044657 177.012459,58.8044657 Z" id="Shape" fill="#004F84" fill-rule="nonzero"></path>
                <path d="M192.175738,115.179585 C191.351257,113.393301 190.383388,111.678469 189.272131,110.035088 C188.734426,109.249123 188.196721,108.498884 187.659016,107.820096 L187.73071,107.78437 C187.981639,107.570016 188.196721,107.355662 188.375956,107.105582 C188.662732,106.784051 188.949508,106.426794 189.200437,106.069537 C190.670164,104.033174 191.745574,101.282297 192.39082,97.4953748 C192.426667,97.2095694 192.498361,96.923764 192.534208,96.6022329 C192.713443,95.3875598 192.820984,94.0657097 192.928525,92.6724083 C193.000219,91.3505582 193.071913,89.9215311 193.071913,88.4210526 C193.000219,84.9199362 191.996503,81.4545455 190.204153,78.4535885 C189.307978,76.8816587 188.160874,75.4883573 186.834536,74.2379585 C185.400656,72.9161085 183.715847,71.9515152 181.851803,71.3799043 L181.744262,71.3441786 L181.52918,71.5585327 L180.525464,72.5588517 L174.682404,78.3821372 L174.646557,78.4178628 L174.323934,78.0963317 L168.839344,72.7374801 L167.477158,71.3799043 L167.33377,71.2370016 C167.262077,71.2727273 167.154536,71.308453 167.082842,71.3441786 C165.864044,71.7728868 164.752787,72.4874003 163.820765,73.3805423 C162.279344,74.8452951 161.024699,76.5601276 160.020984,78.4535885 C157.690929,82.7406699 156.400437,87.9566188 156.400437,91.4220096 C156.400437,94.0299841 156.507978,96.2449761 156.651366,98.245614 C157.009836,102.782775 157.79847,105.890909 158.909727,107.962998 C158.802186,108.105901 158.730492,108.213078 158.622951,108.320255 C157.475847,109.999362 156.472131,111.74992 155.683497,113.607656 C153.962842,117.608931 152.67235,121.788836 151.847869,126.075917 C148.765027,141.223604 149.338579,160.015311 151.023388,173.448166 C151.059235,173.591069 151.059235,173.769697 151.095082,173.9126 L157.511694,173.9126 L160.77377,173.9126 L170.882623,173.876874 L182.425355,173.841148 L196.08306,173.805423 L197.266011,173.805423 L197.266011,173.66252 C197.767869,168.12504 198.054645,163.016268 198.198033,158.300478 C198.269727,155.549601 198.305574,152.941627 198.269727,150.440829 C198.162186,139.080064 196.979235,130.327273 195.115191,123.467943 C194.362404,120.645614 193.394536,117.859011 192.175738,115.179585 Z" id="Shape" fill="#74DCFC" fill-rule="nonzero"></path>
                <path d="M310.184044,101.103668 C307.065355,100.103349 303.874973,99.4602871 300.612896,99.1744817 C297.35082,98.8529506 294.017049,99.0315789 290.934208,98.9244019 C284.732678,98.6385965 278.280219,97.7811802 272.078689,96.8165869 C271.361749,96.7094099 270.608962,96.5665072 269.892022,96.4236045 C264.335738,95.4232855 258.671913,94.2086124 252.793005,94.1014354 C249.566776,93.9942584 246.340546,94.3157895 243.186011,95.030303 C243.07847,95.0660287 242.970929,95.0660287 242.899235,95.1017544 C239.673005,95.8877193 236.626011,97.2095694 233.794098,98.9244019 C233.614863,99.0673046 233.579016,99.3173844 233.686557,99.4602871 C233.758251,99.5674641 233.937486,99.6389155 234.080874,99.6389155 L234.080874,99.6389155 C237.271257,98.9958533 240.318251,98.2813397 243.401093,97.8526316 C244.619891,97.6740032 245.874536,97.5668262 247.12918,97.4596491 C248.993224,97.3167464 250.821421,97.2810207 252.685464,97.3881978 C258.385137,97.6740032 264.048962,99.0315789 269.892022,100.139075 C270.429727,100.246252 270.931585,100.317703 271.46929,100.42488 C274.695519,101.032217 277.921749,101.389474 281.112131,101.74673 C284.374208,102.139713 287.636284,102.318341 290.898361,102.354067 C294.232131,102.318341 297.314973,102.103987 300.505355,102.211164 C303.659891,102.211164 306.88612,102.282616 310.148197,101.889633 C310.291585,101.853907 310.434973,101.782456 310.47082,101.603828 C310.47082,101.389474 310.363279,101.17512 310.184044,101.103668 Z" id="Shape" fill="#74DCFC" fill-rule="nonzero"></path>
                <path d="M182.60459,34.7253589 L187.193005,34.7253589 C187.193005,33.8679426 187.909945,33.153429 188.770273,33.153429 L196.44153,33.153429 C197.301858,33.153429 198.018798,33.8679426 198.018798,34.7253589 L202.607213,34.7253589 C202.607213,33.8679426 203.324153,33.153429 204.184481,33.153429 L211.891585,33.153429 C212.751913,33.153429 213.468852,33.8679426 213.468852,34.7253589 L218.057268,34.7253589 C218.057268,33.8679426 218.774208,33.153429 219.634536,33.153429 L227.341639,33.153429 C228.201967,33.153429 228.918907,33.8679426 228.918907,34.7253589 L233.507322,34.7253589 C233.507322,33.8679426 234.224262,33.153429 235.08459,33.153429 L242.791694,33.153429 C243.652022,33.153429 244.368962,33.8679426 244.368962,34.7253589 L248.957377,34.7253589 C248.957377,33.8679426 249.674317,33.153429 250.534645,33.153429 L258.241749,33.153429 C259.102077,33.153429 259.819016,33.8679426 259.819016,34.7253589 L264.371585,34.7253589 C264.371585,33.8679426 265.088525,33.153429 265.948852,33.153429 L268.314754,33.153429 L268.314754,30.7955343 C268.314754,29.938118 269.031694,29.2236045 269.892022,29.2236045 L269.892022,24.3291866 C269.031694,24.3291866 268.314754,23.614673 268.314754,22.7572568 L268.314754,14.8261563 C268.314754,13.96874 268.995847,13.2899522 269.820328,13.2899522 C269.67694,11.6822967 269.210929,10.1103668 268.493989,8.64561404 C267.777049,9.07432217 266.880874,8.8599681 266.414863,8.18118022 C265.088525,6.21626794 263.224481,4.71578947 261.001967,3.89409888 C260.24918,3.60829346 259.819016,2.75087719 260.069945,2.00063796 C259.06623,1.75055821 258.026667,1.6076555 256.987104,1.6076555 L255.230601,1.6076555 C255.230601,2.46507177 254.513661,3.17958533 253.653333,3.17958533 L245.659454,3.17958533 C244.799126,3.17958533 244.082186,2.46507177 244.082186,1.6076555 L239.242842,1.6076555 C239.242842,2.46507177 238.525902,3.17958533 237.665574,3.17958533 L229.671694,3.17958533 C228.811366,3.17958533 228.094426,2.46507177 228.094426,1.6076555 L223.255082,1.6076555 C223.255082,2.46507177 222.573989,3.17958533 221.713661,3.17958533 C221.713661,3.17958533 221.713661,3.17958533 221.713661,3.17958533 L213.719781,3.17958533 C212.859454,3.17958533 212.142514,2.46507177 212.142514,1.6076555 L207.303169,1.6076555 C207.303169,2.46507177 206.58623,3.17958533 205.725902,3.17958533 L197.732022,3.17958533 C196.871694,3.17958533 196.154754,2.46507177 196.154754,1.6076555 L191.31541,1.6076555 C191.31541,2.46507177 190.59847,3.17958533 189.738142,3.17958533 L181.744262,3.17958533 C180.883934,3.17958533 180.166995,2.46507177 180.166995,1.6076555 L175.291803,1.6076555 C175.291803,2.46507177 174.574863,3.17958533 173.714536,3.17958533 L165.720656,3.17958533 C164.860328,3.17958533 164.143388,2.46507177 164.143388,1.6076555 L159.304044,1.6076555 C159.304044,2.46507177 158.587104,3.17958533 157.726776,3.17958533 L149.732896,3.17958533 C148.872568,3.17958533 148.155628,2.46507177 148.155628,1.6076555 L143.316284,1.6076555 C143.316284,2.46507177 142.599344,3.17958533 141.739016,3.17958533 C141.739016,3.17958533 141.739016,3.17958533 141.739016,3.17958533 L133.745137,3.17958533 C132.884809,3.17958533 132.167869,2.46507177 132.167869,1.6076555 L127.328525,1.6076555 C127.328525,2.46507177 126.611585,3.17958533 125.751257,3.17958533 L117.757377,3.17958533 C116.897049,3.17958533 116.180109,2.46507177 116.180109,1.6076555 L111.340765,1.6076555 C111.340765,2.46507177 110.623825,3.17958533 109.763497,3.17958533 L101.769617,3.17958533 C100.90929,3.17958533 100.19235,2.46507177 100.19235,1.6076555 L95.3530055,1.6076555 C95.3530055,2.46507177 94.6360656,3.17958533 93.7757377,3.17958533 L85.7818579,3.17958533 C84.9215301,3.17958533 84.2045902,2.46507177 84.2045902,1.6076555 L79.3293989,1.6076555 C79.3293989,2.46507177 78.612459,3.17958533 77.7521311,3.17958533 L69.7582514,3.17958533 C68.8979235,3.17958533 68.1809836,2.46507177 68.1809836,1.6076555 L66.4603279,1.6076555 C65.420765,1.6076555 64.3453552,1.75055821 63.3416393,2.00063796 C63.5925683,2.78660287 63.1982514,3.60829346 62.4096175,3.89409888 C60.2229508,4.75151515 58.3230601,6.25199362 57.0325683,8.2169059 C56.5665574,8.93141946 55.6345355,9.11004785 54.9175956,8.68133971 C54.2006557,10.1460925 53.7346448,11.7180223 53.5912568,13.3256778 C54.4515847,13.3614035 55.0968306,14.0401914 55.0968306,14.861882 L55.0968306,22.8287081 C55.0968306,23.6861244 54.3798907,24.400638 53.5195628,24.400638 L53.5195628,24.400638 L53.5195628,29.2593301 C54.3798907,29.2593301 55.0968306,29.9738437 55.0968306,30.83126 L55.0968306,30.83126 L55.0968306,33.1891547 L57.4627322,33.1891547 C58.3230601,33.1891547 59.04,33.9036683 59.04,34.7610845 L63.6284153,34.7610845 C63.6284153,33.9036683 64.3453552,33.1891547 65.2056831,33.1891547 L72.9127869,33.1891547 C73.7731148,33.1891547 74.4900546,33.9036683 74.4900546,34.7610845 L79.0784699,34.7610845 C79.0784699,33.9036683 79.7954098,33.1891547 80.6557377,33.1891547 L88.3628415,33.1891547 C89.2231694,33.1891547 89.9401093,33.9036683 89.9401093,34.7610845 L94.5285246,34.7610845 C94.5285246,33.9036683 95.2454645,33.1891547 96.1057923,33.1891547 L103.812896,33.1891547 C104.673224,33.1891547 105.390164,33.9036683 105.390164,34.7610845 L109.978579,34.7610845 C109.978579,33.9036683 110.695519,33.1891547 111.555847,33.1891547 L119.262951,33.1891547 C120.123279,33.1891547 120.840219,33.9036683 120.840219,34.7610845 L125.428634,34.7610845 C125.428634,33.9036683 126.145574,33.1891547 127.005902,33.1891547 L134.713005,33.1891547 C135.573333,33.1891547 136.290273,33.9036683 136.290273,34.7610845 L140.878689,34.7610845 C140.878689,33.9036683 141.595628,33.1891547 142.455956,33.1891547 L150.16306,33.1891547 C151.023388,33.1891547 151.740328,33.9036683 151.740328,34.7610845 L156.328743,34.7610845 C156.328743,33.9036683 157.045683,33.1891547 157.906011,33.1891547 L165.613115,33.1891547 C166.473443,33.1891547 167.190383,33.9036683 167.190383,34.7610845 L171.707104,34.7610845 C171.707104,33.9036683 172.424044,33.1891547 173.284372,33.1891547 L180.991475,33.1891547 C181.851803,33.1177033 182.568743,33.8322169 182.60459,34.7253589 C182.60459,34.6896332 182.60459,34.6896332 182.60459,34.7253589 Z" id="Shape" fill="#FFFFFF" fill-rule="nonzero"></path>
                <path d="M219.885464,72.2373206 L220.028852,70.6296651 L221.641967,70.7725678 L256.162623,73.5591707 L256.162623,48.5511962 L189.379672,48.5511962 C189.989071,49.2657097 190.419235,50.1588517 190.562623,51.0877193 C191.243716,55.339075 188.770273,57.0539075 188.770273,57.0539075 C188.770273,57.0539075 190.168306,62.4127592 186.296831,64.5920255 C183.393224,66.2354067 181.672568,65.199362 180.991475,64.5920255 C180.81224,64.8063796 180.633005,65.0207337 180.45377,65.2350877 L180.45377,71.308453 C180.704699,71.3799043 180.991475,71.4513557 181.206557,71.4870813 C181.314098,71.41563 181.421639,71.308453 181.565027,71.2012759 C181.636721,71.1298246 181.744262,71.1655502 181.815956,71.2370016 C181.815956,71.2370016 181.815956,71.2370016 181.815956,71.2370016 C181.851803,71.2727273 181.815956,71.308453 181.815956,71.3441786 C183.68,71.9157895 185.364809,72.8803828 186.798689,74.2022329 C188.734426,74.630941 191.064481,76.2743222 193.430383,78.4178628 L219.383607,78.4178628 L219.885464,72.2373206 Z" id="Shape" fill="#FFFFFF" fill-rule="nonzero"></path>
                <path d="M168.839344,67.092823 C167.441311,66.3783094 166.222514,65.3065391 165.398033,63.984689 C165.003716,63.3773525 164.681093,62.6985646 164.394317,62.0197767 C164.466011,62.4842105 164.537705,62.7342903 164.537705,62.7342903 C156.257049,62.3770335 153.962842,52.4452951 159.411585,48.5869219 L79.9746448,48.5869219 C73.3429508,48.5869219 67.9300546,53.9457735 67.9300546,60.5550239 C67.9300546,60.5550239 67.9300546,60.5550239 67.9300546,60.5550239 L67.9300546,78.4535885 L154.859016,78.4535885 C157.870164,75.738437 161.060546,73.5948963 163.820765,73.3805423 C164.752787,72.4874003 165.864044,71.8086124 167.082842,71.3441786 C167.046995,71.2012759 167.118689,71.0583732 167.22623,70.9869219 C167.33377,70.9154705 167.477158,70.9154705 167.584699,70.9869219 C167.69224,71.0583732 167.799781,71.1298246 167.907322,71.2370016 C168.194098,71.1298246 168.516721,71.0583732 168.839344,70.9869219 L168.839344,70.3795853 L168.839344,70.3795853 L168.839344,67.092823 Z" id="Shape" fill="#FFFFFF" fill-rule="nonzero"></path>
                <path d="M324.200219,93.5298246 C324.056831,92.1007974 323.698361,90.707496 323.124809,89.4213716 C321.941858,86.8133971 319.934426,84.6698565 317.38929,83.276555 C316.134645,82.5977671 314.772459,82.169059 313.374426,81.9189793 L312.299016,81.7760766 L311.080219,81.6688995 L308.642623,81.4545455 L298.928087,80.6328549 L269.784481,78.1320574 L256.090929,76.95311 L222.896612,74.0950558 L222.538142,78.4178628 L221.677814,88.492504 L221.283497,92.6366826 L220.136393,104.497608 C219.885464,107.177033 219.634536,109.820734 219.311913,112.500159 C219.132678,113.750558 219.096831,115.000957 219.168525,116.251356 C219.562842,120.038278 221.462732,123.503668 224.47388,125.861563 C226.517158,127.469219 228.954754,128.505263 231.535738,128.86252 L231.499891,129.255502 L240.640874,130.005742 L240.676721,129.612759 C245.838689,129.791388 250.964809,130.041467 256.126776,130.327273 C257.811585,130.43445 259.496393,130.505901 261.181202,130.613078 L268.386448,131.041786 C268.852459,126.433174 269.31847,121.788836 269.784481,117.180223 C269.892022,116.179904 269.999563,115.14386 270.107104,114.143541 C270.142951,113.57193 270.644809,113.143222 271.254208,113.178947 C271.863607,113.214673 272.257923,113.714833 272.222077,114.322169 C271.863607,119.966826 271.46929,125.575758 271.074973,131.220415 L271.46929,131.25614 L281.72153,132.00638 C288.532459,132.506539 295.379235,133.006699 302.190164,133.578309 L321.009836,135.114514 L324.020984,98.0669856 L324.200219,95.6733652 C324.236066,94.9588517 324.236066,94.2443381 324.200219,93.5298246 Z M310.076503,101.889633 C306.814426,102.282616 303.588197,102.211164 300.433661,102.211164 C297.279126,102.139713 294.196284,102.318341 290.826667,102.354067 C287.56459,102.318341 284.266667,102.139713 281.040437,101.74673 C277.814208,101.425199 274.587978,101.032217 271.397596,100.42488 C270.859891,100.317703 270.358033,100.246252 269.820328,100.139075 C263.977268,99.0673046 258.313443,97.6740032 252.61377,97.3881978 C250.749727,97.3167464 248.92153,97.3167464 247.057486,97.4596491 C245.838689,97.5311005 244.584044,97.6740032 243.329399,97.8526316 C240.246557,98.2813397 237.199563,98.9958533 234.00918,99.6389155 L234.00918,99.6389155 C233.794098,99.6746411 233.579016,99.5317384 233.543169,99.3173844 C233.507322,99.1744817 233.579016,99.0315789 233.722404,98.9244019 C236.51847,97.1738437 239.565464,95.8877193 242.791694,95.0660287 C242.899235,95.030303 243.006776,95.030303 243.07847,94.9945774 C246.233005,94.2800638 249.459235,93.9585327 252.685464,94.0657097 C258.564372,94.1728868 264.264044,95.3875598 269.784481,96.3878788 C270.501421,96.5307815 271.254208,96.6379585 271.971148,96.7808612 C278.172678,97.7454545 284.625137,98.6028708 290.826667,98.8886762 C293.909508,98.9601276 297.243279,98.8172249 300.505355,99.138756 C303.767432,99.3888357 306.993661,100.067624 310.076503,101.067943 C310.291585,101.139394 310.399126,101.353748 310.327432,101.568102 C310.363279,101.74673 310.255738,101.853907 310.076503,101.889633 Z" id="Shape" fill="#FFFFFF" fill-rule="nonzero"></path>
                <path d="M271.290055,113.286124 C270.716503,113.214673 270.214645,113.643381 270.142951,114.214992 C270.142951,114.214992 270.142951,114.214992 270.142951,114.214992 C270.03541,115.215311 269.927869,116.251356 269.820328,117.251675 C269.354317,121.860287 268.888306,126.504625 268.422295,131.113238 C268.386448,131.541946 268.350601,131.934928 268.314754,132.363636 C268.278907,132.792344 268.24306,133.185327 268.207213,133.614035 C267.992131,135.936204 267.741202,138.294099 267.52612,140.616268 C266.665792,149.404785 265.948852,158.229027 265.160219,167.05327 C264.479126,174.948644 263.83388,182.844019 263.224481,190.739394 C263.152787,191.668262 263.081093,192.561404 263.009399,193.490271 L262.04153,206.708772 L261.181202,219.962998 C261.145355,220.534609 261.575519,221.034769 262.149071,221.070494 C262.507541,221.10622 262.866011,220.927592 263.081093,220.641786 C263.188634,220.498884 263.260328,220.320255 263.296175,220.141627 L264.694208,206.958852 L265.984699,193.740351 C266.056393,192.740032 266.163934,191.739713 266.271475,190.739394 C266.988415,182.91547 267.669508,175.127273 268.314754,167.303349 C268.816612,160.76555 269.390164,154.227751 269.892022,147.689952 C270.071257,145.403509 270.250492,143.152791 270.429727,140.866348 C270.608962,138.579904 270.788197,136.22201 270.931585,133.899841 C270.967432,133.471132 271.003279,133.006699 271.039126,132.57799 C271.074973,132.149282 271.11082,131.684848 271.146667,131.25614 C271.540984,125.647209 271.935301,120.002552 272.29377,114.357895 C272.257923,113.857735 271.82776,113.357576 271.290055,113.286124 Z" id="Shape" fill="#C8D7E2" fill-rule="nonzero"></path>
                <path d="M295.522623,206.673046 C293.192568,208.316427 291.292678,210.495694 290.002186,213.032217 C288.711694,215.461563 288.138142,218.21244 288.389071,220.927592 C288.389071,221.10622 288.424918,221.249123 288.424918,221.427751 C288.496612,221.999362 289.070164,222.392344 289.643716,222.320893 C290.109727,222.249442 290.468197,221.892185 290.539891,221.427751 L290.539891,221.392026 C290.575738,221.249123 290.611585,221.10622 290.611585,220.963317 C290.970055,218.676874 291.686995,216.497608 292.798251,214.461244 C293.945355,212.281978 295.450929,210.317065 296.99235,208.20925 L296.99235,208.20925 C297.314973,207.709091 297.171585,207.030303 296.669727,206.744498 C296.311257,206.458692 295.881093,206.458692 295.522623,206.673046 L295.522623,206.673046 Z" id="Shape" fill="#C8D7E2" fill-rule="nonzero"></path>
                <path d="M291.364372,199.027751 C292.905792,199.134928 294.447213,198.563317 295.594317,197.527273 C297.996066,195.240829 298.139454,191.453907 295.845246,189.024561 C295.809399,188.988836 295.773552,188.95311 295.773552,188.95311 C294.626448,187.774163 293.04918,187.1311 291.400219,187.095375 C288.066448,187.023923 285.30623,189.703349 285.234536,193.025837 C285.198689,194.669219 285.879781,196.276874 287.062732,197.455821 C285.808087,198.992026 284.696831,200.599681 283.693115,202.278788 C282.581858,204.207974 281.649836,206.208612 280.897049,208.280702 C280.144262,210.388517 279.57071,212.532057 279.283934,214.747049 C278.997158,216.747687 278.961311,218.784051 279.176393,220.784689 C279.21224,220.999043 279.21224,221.213397 279.248087,221.427751 C279.319781,221.999362 279.857486,222.392344 280.431038,222.320893 C280.932896,222.249442 281.327213,221.820734 281.327213,221.320574 L281.327213,221.320574 C281.327213,221.141946 281.36306,220.999043 281.36306,220.820415 C281.470601,218.926954 281.685683,217.069219 282.08,215.247209 C282.510164,213.246571 283.083716,211.281659 283.800656,209.352472 C284.553443,207.423285 285.377923,205.529825 286.274098,203.672089 C287.062732,201.992982 287.994754,200.313876 288.890929,198.634769 C289.679563,198.9563 290.539891,199.099203 291.364372,199.027751 Z M291.364372,190.167783 C292.188852,190.167783 293.013333,190.489314 293.622732,191.060925 C294.232131,191.668262 294.590601,192.454226 294.626448,193.311643 C294.733989,195.026475 293.300109,196.777033 291.364372,196.955662 C289.428634,196.741308 287.994754,195.026475 288.138142,193.311643 C288.209836,191.561085 289.643716,190.203509 291.364372,190.167783 L291.364372,190.167783 Z" id="Shape" fill="#C8D7E2" fill-rule="nonzero"></path>
                <path d="M180.45377,72.1301435 C180.704699,71.9157895 180.955628,71.7014354 181.206557,71.522807 C180.955628,71.4513557 180.704699,71.3799043 180.45377,71.3441786 L180.45377,72.1301435 Z" id="Shape" fill="#C8D7E2" fill-rule="nonzero"></path>
                <path d="M168.839344,72.0229665 L168.839344,70.9869219 C168.516721,71.0583732 168.194098,71.1298246 167.907322,71.2370016 C168.265792,71.4870813 168.552568,71.7371611 168.839344,72.0229665 Z" id="Shape" fill="#C8D7E2" fill-rule="nonzero"></path>
                <path d="M190.562623,51.123445 C190.419235,50.1945774 189.989071,49.3014354 189.379672,48.5869219 C188.44765,47.5151515 187.228852,46.6934609 185.902514,46.1575758 C185.902514,46.1575758 186.511913,43.3709729 182.998907,40.4057416 C178.948197,36.9760766 173.78623,39.9770335 173.78623,39.9770335 C173.78623,39.9770335 170.882623,37.6191388 165.398033,39.2982456 C158.551257,41.4060606 160.522842,47.9438596 160.522842,47.9438596 C160.164372,48.122488 159.805902,48.3368421 159.483279,48.5869219 C154.034536,52.4452951 156.328743,62.3770335 164.609399,62.7342903 C164.609399,62.7342903 164.537705,62.4484848 164.466011,62.0197767 C164.035847,60.9480064 163.784918,59.8047847 163.605683,58.6258373 C163.749071,59.8047847 164.035847,60.9480064 164.466011,61.984051 C164.71694,62.6628389 165.07541,63.3416268 165.469727,63.9489633 C166.330055,65.2708134 167.513005,66.3425837 168.911038,67.0570973 C170.344918,67.7358852 171.922186,68.0931419 173.499454,68.0574163 C174.682404,68.0574163 175.829508,67.8787879 176.940765,67.5215311 C178.302951,67.0570973 179.557596,66.2711324 180.525464,65.2350877 C180.704699,65.0564593 180.883934,64.8421053 181.063169,64.6277512 C181.744262,65.2350877 183.429071,66.2354067 186.332678,64.6277512 C190.204153,62.4484848 188.80612,57.0896332 188.80612,57.0896332 C188.80612,57.0896332 191.243716,55.3748006 190.562623,51.123445 Z M180.45377,63.6274322 C179.342514,65.2708134 177.621858,66.4497608 175.68612,66.8427432 C174.25224,67.1285486 172.782514,67.1642743 171.348634,66.8784689 C170.452459,66.6998405 169.627978,66.3783094 168.839344,65.9496013 C167.799781,65.3422648 166.903607,64.4848485 166.258361,63.4488038 C163.569836,59.3046252 164.107541,52.8025518 165.935738,48.8012759 C165.935738,48.7655502 165.935738,48.7655502 165.935738,48.7298246 L165.935738,48.7298246 C166.580984,50.230303 167.441311,51.5878788 168.552568,52.8025518 C168.40918,52.8025518 168.229945,52.8025518 168.086557,52.8025518 C167.441311,52.8740032 166.831913,53.1955343 166.401749,53.6956938 C166.294208,53.8385965 166.294208,54.0529506 166.437596,54.1601276 C166.545137,54.2315789 166.688525,54.2673046 166.796066,54.1958533 L166.86776,54.1601276 C167.297923,53.9814992 167.763934,53.8385965 168.229945,53.8028708 C168.660109,53.7314195 169.090273,53.7314195 169.520437,53.7314195 C171.456175,55.3748006 173.750383,56.5180223 176.223825,57.0181818 L176.223825,56.8752791 C176.223825,56.446571 176.582295,56.0893142 177.012459,56.0893142 C177.442623,56.0893142 177.801093,56.446571 177.801093,56.8752791 L177.801093,57.2682616 C179.342514,57.4826156 180.883934,57.554067 182.425355,57.4826156 L182.425355,57.4826156 C182.389508,58.2685805 182.281967,59.0545455 182.102732,59.8047847 C182.066885,59.9476874 182.031038,60.0548644 181.995191,60.1620415 C181.708415,61.3052632 181.242404,62.4127592 180.633005,63.4130781 C180.561311,63.4845295 180.525464,63.5559809 180.45377,63.6274322 Z" id="Shape" fill="#004F81" fill-rule="nonzero"></path>
                <path d="M195.330273,106.569697 C195.437814,106.748325 195.617049,106.819777 195.796284,106.784051 L195.867978,106.784051 C196.154754,106.7126 196.190601,106.498246 196.298142,106.319617 L196.620765,105.783732 C196.835847,105.426475 197.122623,105.104944 197.337705,104.783413 C197.588634,104.461882 197.839563,104.140351 198.126339,103.81882 C198.448962,103.533014 198.699891,103.140032 198.843279,102.711324 L198.843279,102.711324 C198.879126,102.604147 198.807432,102.49697 198.699891,102.461244 C198.664044,102.461244 198.664044,102.461244 198.628197,102.461244 C198.162186,102.49697 197.732022,102.747049 197.409399,103.104306 L197.373552,103.104306 C197.050929,103.425837 196.728306,103.747368 196.44153,104.104625 C196.154754,104.461882 195.903825,104.819139 195.688743,105.212121 L195.36612,105.819458 C195.294426,106.033812 195.115191,106.176715 195.222732,106.498246 C195.294426,106.533971 195.330273,106.533971 195.330273,106.569697 Z" id="Shape" fill="#004F81" fill-rule="nonzero"></path>
                <path d="M150.019672,103.81882 C150.306448,104.140351 150.557377,104.426156 150.808306,104.783413 C151.023388,105.14067 151.310164,105.426475 151.525246,105.783732 L151.847869,106.319617 C151.95541,106.498246 151.991257,106.7126 152.278033,106.784051 L152.349727,106.784051 C152.528962,106.819777 152.744044,106.748325 152.815738,106.569697 C152.851585,106.533971 152.851585,106.533971 152.887432,106.498246 C152.994973,106.176715 152.815738,106.033812 152.744044,105.819458 L152.421421,105.212121 C152.206339,104.819139 151.95541,104.426156 151.668634,104.104625 C151.381858,103.747368 151.059235,103.425837 150.736612,103.104306 L150.700765,103.104306 C150.378142,102.747049 149.947978,102.532695 149.481967,102.461244 C149.44612,102.461244 149.44612,102.461244 149.410273,102.461244 C149.302732,102.49697 149.231038,102.604147 149.266885,102.711324 C149.266885,102.711324 149.266885,102.711324 149.266885,102.711324 L149.266885,102.711324 C149.44612,103.140032 149.697049,103.533014 150.019672,103.81882 Z" id="Shape" fill="#004F81" fill-rule="nonzero"></path>
                <path d="M168.839344,72.0229665 C168.552568,71.7371611 168.229945,71.4870813 167.907322,71.2727273 C167.799781,71.2012759 167.69224,71.0940989 167.584699,71.0226475 C167.477158,70.9511962 167.33377,70.9511962 167.22623,71.0226475 C167.118689,71.0940989 167.046995,71.2370016 167.082842,71.3799043 C167.154536,71.3441786 167.262077,71.308453 167.33377,71.2727273 L167.477158,71.41563 L168.839344,72.7732057 L174.25224,78.1677831 L174.574863,78.4893142 L174.61071,78.4535885 L180.489617,72.5945774 L181.493333,71.5942584 L181.708415,71.3799043 L181.815956,71.41563 C181.815956,71.3799043 181.851803,71.3441786 181.815956,71.308453 C181.744262,71.2370016 181.672568,71.2012759 181.565027,71.2727273 C181.565027,71.2727273 181.565027,71.2727273 181.565027,71.2727273 C181.457486,71.3441786 181.349945,71.4513557 181.206557,71.5585327 C180.955628,71.7728868 180.704699,71.9515152 180.45377,72.1658692 C179.521749,72.9161085 178.625574,73.737799 177.765246,74.5952153 L174.574863,77.739075 C173.499454,76.6673046 172.424044,75.5955343 171.348634,74.5594896 L169.520437,72.7732057 C169.305355,72.4874003 169.090273,72.2373206 168.839344,72.0229665 Z" id="Shape" fill="#004F81" fill-rule="nonzero"></path>
                <path d="M166.831913,220.320255 C166.831913,220.463158 166.796066,220.606061 166.796066,220.784689 C166.796066,220.963317 166.939454,221.141946 167.118689,221.141946 C167.262077,221.141946 167.405464,221.034769 167.441311,220.891866 C167.477158,220.713238 167.513005,220.534609 167.548852,220.355981 C167.799781,219.284211 167.979016,218.176715 168.122404,217.069219 C168.158251,216.783413 168.194098,216.497608 168.229945,216.211802 C167.871475,216.569059 167.513005,216.89059 167.082842,217.176396 C166.975301,218.176715 166.86776,219.248485 166.831913,220.320255 Z" id="Shape" fill="#004F81" fill-rule="nonzero"></path>
                <path d="M194.147322,215.247209 C194.183169,215.533014 194.219016,215.81882 194.254863,216.104625 C194.434098,217.39075 194.64918,218.676874 194.971803,219.927273 C195.00765,220.105901 195.186885,220.213078 195.401967,220.177352 C195.545355,220.141627 195.652896,219.998724 195.652896,219.855821 C195.617049,218.641148 195.509508,217.426475 195.330273,216.247528 C194.900109,215.925997 194.505792,215.604466 194.147322,215.247209 Z" id="Shape" fill="#004F81" fill-rule="nonzero"></path>
                <path d="M173.033443,61.2695375 C173.212678,61.3052632 173.42776,61.1980861 173.463607,61.0194577 C173.463607,61.0194577 173.463607,60.9837321 173.463607,60.9837321 C173.571148,60.2692185 173.642842,59.5547049 173.606995,58.8401914 C173.606995,58.1256778 173.499454,57.4111643 173.356066,56.6966507 C173.320219,56.553748 173.176831,56.4822967 173.033443,56.5180223 C172.925902,56.553748 172.854208,56.6251994 172.854208,56.6966507 C172.71082,57.4111643 172.603279,58.1256778 172.603279,58.8401914 C172.567432,59.5547049 172.639126,60.2692185 172.746667,60.9837321 C172.746667,61.1266348 172.854208,61.2338118 173.033443,61.2695375 Z" id="Shape" fill="#004F81" fill-rule="nonzero"></path>
                <path d="M171.850492,63.091547 C171.707104,62.98437 171.492022,63.0200957 171.384481,63.1987241 C171.312787,63.3059011 171.312787,63.4130781 171.384481,63.5202552 C171.778798,64.1633174 172.495738,64.5562998 173.284372,64.5205742 C173.642842,64.5205742 174.037158,64.4491228 174.359781,64.2704944 C174.718251,64.091866 175.005027,63.8060606 175.148415,63.4488038 C175.184262,63.2701754 175.076721,63.0558214 174.897486,63.0200957 C174.789945,62.98437 174.682404,63.0200957 174.61071,63.0558214 L174.574863,63.091547 C174.216393,63.3773525 173.750383,63.5559809 173.284372,63.5202552 C172.818361,63.5202552 172.35235,63.3773525 171.922186,63.1272727 L171.850492,63.091547 Z" id="Shape" fill="#004F81" fill-rule="nonzero"></path>
                <g id="Group" stroke-width="1" fill-rule="evenodd" transform="translate(21.508197, 113.964912)">
                    <path d="M119.262951,96.4950558 C119.478033,96.2807018 119.836503,96.2807018 120.051585,96.4950558 C120.051585,96.4950558 120.051585,96.4950558 120.051585,96.4950558 C120.159126,91.5291866 119.836503,84.2411483 119.334645,76.8102073 L93.0587978,76.8102073 L93.0946448,81.4545455 C92.9871038,89.7786284 93.0587978,98.1027113 92.5569399,106.391069 L107.863607,106.355343 C109.297486,104.711962 113.742514,101.889633 119.262951,96.4950558 Z" id="Shape"></path>
                    <path d="M91.3739891,76.8102073 L14.2671038,76.8102073 L14.2671038,56.7681021 L1.64896175,56.8038278 C1.79234973,59.5904306 1.86404372,62.3770335 1.89989071,65.1636364 L2.00743169,79.0966507 C1.89989071,88.385327 1.9715847,97.6382775 1.43387978,106.926954 C14.9840437,106.748325 28.5342077,106.641148 42.1202186,106.533971 L91.875847,106.426794 C91.3739891,98.1027113 91.4098361,89.7786284 91.3381421,81.4545455 L91.3739891,76.8102073 Z" id="Shape"></path>
                    <polygon id="Shape" fill="#F3F6F8" fill-rule="nonzero" points="60.8681967 39.3339713 60.2587978 28.9735247 55.1685246 28.9735247 54.0931148 28.9735247 54.2723497 32.1173844 54.7025137 39.2982456"></polygon>
                    <path d="M23.4439344,42.3349282 L28.2115847,42.3349282 L40.8655738,42.3706539 L40.9014208,42.3706539 L43.5540984,42.3706539 L46.3860109,42.3706539 C45.2747541,42.2992026 44.1276503,42.2277512 43.0163934,42.1920255 C41.5466667,41.691866 40.4354098,40.4057416 40.1127869,38.8695375 C40.0052459,38.0835726 40.0769399,36.8688995 40.0769399,35.8328549 L40.1127869,34.7968102 L39.0015301,34.7968102 L38.3562842,34.7968102 L38.3921311,35.8685805 C38.4638251,36.9403509 38.3204372,37.9406699 38.5713661,39.2267943 C38.8581421,40.3700159 39.539235,41.4060606 40.5071038,42.1205742 C39.0015301,42.0848485 37.4959563,42.0491228 36.0262295,42.0133971 L29.9680874,41.9419458 L28.2115847,41.9419458 L26.9569399,41.9419458 L25.4513661,41.9419458 C25.0570492,41.9419458 24.6268852,41.8704944 24.2325683,41.7275917 C22.6194536,41.1917065 21.5081967,39.6912281 21.5440437,37.9763955 L21.5081967,34.6539075 L21.0421858,34.6539075 L19.895082,34.6181818 L19.859235,38.0121212 C19.823388,39.6912281 20.5403279,41.2988836 21.8308197,42.3706539 L23.4439344,42.3349282 Z" id="Shape" fill="#E9EFF4" fill-rule="nonzero"></path>
                    <path d="M42.3711475,49.4086124 C42.3353005,49.4086124 42.3353005,49.4443381 42.2994536,49.4800638 C42.2636066,49.5515152 42.2636066,49.6944179 42.3711475,49.7301435 C42.3711475,49.7301435 42.3711475,49.7301435 42.3711475,49.7301435 C43.0163934,50.0874003 43.7333333,50.3017544 44.4861202,50.3732057 C45.2030601,50.4446571 45.884153,50.4803828 46.6010929,50.4803828 C47.3180328,50.4803828 47.9991257,50.4089314 48.7160656,50.3732057 C49.4330055,50.3017544 50.1499454,50.1588517 50.8310383,49.9087719 C51.0102732,49.8373206 51.0819672,49.6586922 51.0102732,49.4800638 C50.9744262,49.4086124 50.9027322,49.3371611 50.8310383,49.3014354 C50.1499454,49.0513557 49.4330055,48.908453 48.7160656,48.8370016 C47.9991257,48.7655502 47.3180328,48.7298246 46.6010929,48.7298246 C45.884153,48.7298246 45.1672131,48.7655502 44.4861202,48.8370016 C43.7333333,48.8370016 43.0163934,49.0513557 42.3711475,49.4086124 Z" id="Shape" fill="#E9EFF4" fill-rule="nonzero"></path>
                    <path d="M38.5713661,39.2625199 C38.3204372,37.9763955 38.4279781,37.0118022 38.3921311,35.9043062 L38.3562842,34.8325359 C35.3092896,34.7968102 32.2622951,34.7610845 29.1794536,34.7253589 L28.1757377,34.7253589 C25.953224,34.6896332 23.6948634,34.6539075 21.4723497,34.6181818 L21.5081967,37.9763955 C21.4723497,39.6912281 22.5836066,41.1917065 24.1967213,41.7275917 C24.5910383,41.8704944 24.9853552,41.9419458 25.4155191,41.9419458 L26.9210929,41.9419458 L28.1757377,41.9419458 L29.9322404,41.9419458 L35.9903825,42.0133971 C37.4959563,42.0491228 39.0015301,42.0848485 40.4712568,42.1205742 C39.539235,41.3703349 38.8581421,40.3700159 38.5713661,39.2625199 Z" id="Shape" fill="#FFFFFF" fill-rule="nonzero"></path>
                    <path d="M7.2052459,15.5406699 C7.27693989,21.7212121 7.27693989,27.9017544 7.2410929,34.0822967 L7.63540984,34.0822967 C7.63540984,34.0108453 7.70710383,33.9393939 7.77879781,33.9393939 C9.35606557,33.9036683 10.9691803,33.8679426 12.5464481,33.7964912 L14.2312568,33.7607656 C16.0953005,33.7250399 17.9593443,33.6535885 19.859235,33.6178628 L21.4723497,33.5821372 C23.6948634,33.5464115 25.953224,33.5106858 28.1757377,33.4749601 L29.1794536,33.4749601 C32.2264481,33.4392344 35.2734426,33.4035088 38.3204372,33.4035088 L40.0769399,33.4035088 C43.3031694,33.3677831 46.4935519,33.3677831 49.7197814,33.3320574 L50.5084153,33.2963317 L50.7951913,33.2963317 L50.7951913,26.6513557 C50.8668852,25.722488 52.157377,25.5438596 52.802623,25.508134 L54.1648087,25.508134 L54.1289617,24.614992 L53.8063388,17.4698565 L53.4837158,10.3247209 L53.3044809,6.75215311 C53.2686339,6.18054226 53.2686339,5.46602871 53.2327869,5.03732057 C53.1610929,4.57288676 53.0177049,4.10845295 52.766776,3.71547049 C52.264918,2.8937799 51.4404372,2.35789474 50.4725683,2.17926635 C50.3291803,2.17926635 50.2216393,2.14354067 50.0782514,2.14354067 L49.1820765,2.14354067 L48.2859016,2.14354067 L28.1757377,2.07208931 L14.2312568,2.03636364 L11.9370492,2.03636364 L11.8653552,2.03636364 L12.0087432,14.8261563 C12.0804372,19.3275917 12.0445902,23.8647528 12.0445902,28.4019139 C12.0445902,28.5448166 11.9370492,28.6877193 11.7578142,28.6877193 C11.7578142,28.6877193 11.7219672,28.6877193 11.7219672,28.6877193 C11.5427322,28.6877193 11.3993443,28.5448166 11.3993443,28.4019139 C11.2201093,23.9004785 11.0050273,19.3633174 10.8974863,14.861882 L10.5031694,2.03636364 L9.57114754,2.03636364 C8.96174863,1.96491228 8.35234973,2.17926635 7.8863388,2.5722488 C7.42032787,2.96523126 7.13355191,3.50111643 7.06185792,4.10845295 C7.02601093,4.75151515 7.06185792,5.60893142 7.06185792,6.35917065 L7.2052459,15.5406699 Z" id="Shape" fill="#FFFFFF" fill-rule="nonzero"></path>
                    <path d="M63.3416393,42.5135566 C62.9473224,39.1553429 62.6605464,35.8328549 62.3737705,32.4746411 L62.1586885,29.6523126 L62.0511475,28.2590112 L62.0153005,27.5802233 C62.0153005,27.5087719 61.9794536,27.4373206 61.9436066,27.4015949 C61.7643716,27.2229665 61.5492896,27.1515152 61.2983607,27.1515152 L59.9003279,27.1515152 L57.0684153,27.1872408 L55.0609836,27.1872408 L52.8743169,27.1872408 C52.623388,27.1872408 52.408306,27.2586922 52.264918,27.4373206 C52.229071,27.4730463 52.193224,27.5444976 52.193224,27.615949 C52.193224,27.615949 52.193224,27.723126 52.193224,27.8660287 L52.193224,28.2232855 L52.264918,29.6165869 C52.264918,29.6165869 52.300765,31.4385965 52.372459,33.7250399 C52.444153,36.8688995 52.515847,40.9416268 52.444153,42.4778309 L63.3416393,42.5135566 Z M55.1685246,28.9735247 L60.2587978,28.9735247 L60.8323497,39.2982456 L54.6666667,39.2982456 L54.2723497,32.1173844 L54.0931148,28.9735247 L55.1685246,28.9735247 Z" id="Shape" fill="#FFFFFF" fill-rule="nonzero"></path>
                    <path d="M91.768306,43.6567783 L64.0227322,43.8711324 C63.9510383,44.0140351 63.7718033,44.0497608 63.6284153,43.9425837 C63.5925683,43.9068581 63.5567213,43.9068581 63.5567213,43.8711324 L46.6727869,44.0140351 L28.2115847,44.0497608 L14.2671038,44.0854864 L2.04327869,44.1212121 L2.04327869,55.1247209 L14.3029508,55.1604466 L28.2474317,55.1961722 L46.4218579,55.2676236 L69.1846995,55.5177033 L92.055082,55.8749601 L92.055082,55.7320574 L91.768306,43.6567783 Z M50.8310383,49.9087719 C50.1499454,50.1588517 49.4330055,50.3017544 48.7160656,50.3732057 C47.9991257,50.4446571 47.3180328,50.4803828 46.6010929,50.4803828 C45.884153,50.4803828 45.1672131,50.4446571 44.4861202,50.3732057 C43.7333333,50.3374801 43.0163934,50.123126 42.3711475,49.7301435 C42.2994536,49.6944179 42.2636066,49.5515152 42.2994536,49.4800638 C42.2994536,49.4800638 42.2994536,49.4800638 42.2994536,49.4800638 C42.2994536,49.4443381 42.3353005,49.4443381 42.3711475,49.4086124 C43.0163934,49.0513557 43.7333333,48.8370016 44.4861202,48.7655502 C45.2030601,48.6940989 45.884153,48.6583732 46.6010929,48.6583732 C47.3180328,48.6583732 47.9991257,48.7298246 48.7160656,48.7655502 C49.4330055,48.8370016 50.1499454,48.9799043 50.8310383,49.2299841 C51.0102732,49.3014354 51.0819672,49.4800638 51.0102732,49.6586922 C50.9744262,49.8015949 50.9385792,49.8373206 50.8310383,49.9087719 L50.8310383,49.9087719 Z" id="Shape" fill="#FFFFFF" fill-rule="nonzero"></path>
                    <path d="M92.9871038,68.7004785 C92.9512568,66.9499203 92.8795628,65.1636364 92.8437158,63.4130781 C92.7720219,60.9480064 92.6286339,58.5186603 92.3777049,56.0535885 L92.4493989,56.0535885 L92.6644809,43.1923445 L92.6644809,43.1923445 C92.6644809,42.9422648 92.4852459,42.7636364 92.2343169,42.7636364 L92.2343169,42.7636364 L92.2343169,42.7636364 L64.1302732,42.5492823 C64.1661202,39.1553429 64.0585792,35.7971292 63.9510383,32.4031898 L63.8434973,29.5808612 L63.7718033,28.1875598 L63.7359563,27.4730463 C63.7001093,27.0800638 63.5567213,26.6870813 63.3057923,26.3655502 C62.8397814,25.8296651 62.1586885,25.508134 61.4417486,25.4724083 L60.0078689,25.4724083 L57.1759563,25.4009569 L55.9213115,25.4009569 L55.8854645,24.4363636 L55.5986885,17.2912281 L55.3119126,10.1460925 L55.1685246,6.57352472 C55.1326776,5.93046252 55.1326776,5.46602871 55.0609836,4.71578947 C54.7383607,2.50079745 53.0177049,0.750239234 50.7951913,0.392982456 C50.2933333,0.3215311 49.7914754,0.3215311 49.2896175,0.3215311 C49.2537705,0.3215311 49.2537705,0.3215311 49.2179235,0.3215311 L28.2474317,0.392982456 L14.3029508,0.428708134 L12.0087432,0.428708134 L9.67868852,0.464433812 C8.71081967,0.428708134 7.77879781,0.750239234 7.06185792,1.35757576 C6.30907104,2.00063796 5.8789071,2.8937799 5.80721311,3.85837321 C5.80721311,4.75151515 5.84306011,5.43030303 5.84306011,6.25199362 L6.09398907,15.5049442 C6.23737705,21.6854864 6.45245902,27.8660287 6.66754098,34.046571 C6.66754098,34.2251994 6.81092896,34.3681021 6.99016393,34.3681021 C7.16939891,34.3681021 7.31278689,34.2251994 7.31278689,34.046571 L7.31278689,34.046571 C7.34863388,27.8660287 7.34863388,21.6854864 7.27693989,15.5049442 L7.2052459,6.25199362 C7.2052459,5.50175439 7.16939891,4.64433812 7.2052459,4.00127592 C7.27693989,3.39393939 7.56371585,2.85805423 8.02972678,2.46507177 C8.4957377,2.07208931 9.10513661,1.89346093 9.71453552,1.9291866 L10.6465574,1.9291866 L11.0408743,14.7547049 C11.1484153,19.2561404 11.3634973,23.7933014 11.5427322,28.2947368 C11.5427322,28.4733652 11.6861202,28.5805423 11.8653552,28.5805423 C11.8653552,28.5805423 11.9012022,28.5805423 11.9012022,28.5805423 C12.0445902,28.5805423 12.1521311,28.4376396 12.1879781,28.2947368 C12.1879781,23.7933014 12.2238251,19.2561404 12.1521311,14.7189793 L12.0087432,1.9291866 L12.0804372,1.9291866 L14.3746448,1.9291866 L28.3191257,1.96491228 L48.4292896,2.03636364 L49.3254645,2.03636364 L50.2216393,2.03636364 C50.3650273,2.03636364 50.4725683,2.03636364 50.6159563,2.07208931 C51.5479781,2.21499203 52.408306,2.78660287 52.9101639,3.60829346 C53.1610929,4.00127592 53.3403279,4.46570973 53.3761749,4.93014354 C53.4120219,5.35885167 53.4478689,6.07336523 53.4478689,6.64497608 L53.6271038,10.2175439 L53.9497268,17.3626794 L54.2723497,24.507815 L54.3081967,25.4009569 L52.9460109,25.4009569 C52.300765,25.4366826 51.0102732,25.615311 50.9385792,26.5441786 L50.9385792,29.9023923 C50.9385792,30.2596491 50.9385792,30.5811802 50.9385792,30.9027113 L50.9385792,33.1891547 L50.5442623,33.1891547 L49.7556284,33.2248804 C46.5293989,33.2248804 43.3390164,33.2606061 40.1127869,33.2963317 L38.3562842,33.2963317 C35.3092896,33.3320574 32.2622951,33.3677831 29.2153005,33.3677831 L28.2115847,33.3677831 C25.989071,33.4035088 23.7307104,33.4392344 21.5081967,33.4749601 L19.895082,33.5106858 C18.0310383,33.5464115 16.1669945,33.5821372 14.2671038,33.6535885 L12.5822951,33.6893142 C11.0050273,33.7250399 9.39191257,33.7607656 7.81464481,33.8322169 C7.74295082,33.8322169 7.67125683,33.9036683 7.67125683,33.9751196 L7.67125683,33.9751196 C7.67125683,34.046571 7.74295082,34.1180223 7.81464481,34.1180223 C9.96546448,34.1894737 12.1162842,34.2251994 14.2671038,34.2966507 C16.1311475,34.3323764 17.9951913,34.4038278 19.859235,34.4395534 L21.0063388,34.4752791 L21.4723497,34.4752791 C23.6948634,34.5110048 25.953224,34.5467305 28.1757377,34.5824561 L29.1794536,34.5824561 C32.2264481,34.6181818 35.2734426,34.6539075 38.3562842,34.6896332 L38.9298361,34.6896332 L40.0410929,34.6896332 C43.5540984,34.7253589 47.0671038,34.7610845 50.5442623,34.7610845 L50.5801093,34.7610845 C50.6518033,34.7610845 50.6876503,34.7253589 50.7234973,34.7253589 C50.8310383,34.7253589 50.9027322,34.7253589 51.0102732,34.7253589 C51.2253552,37.261882 51.5121311,39.7984051 51.8706011,42.2992026 L46.6369399,42.2634769 L46.2784699,42.2634769 L43.4465574,42.2634769 L40.8655738,42.2634769 L40.8655738,42.2634769 L28.2115847,42.2277512 L23.4439344,42.2277512 L21.8308197,42.2277512 L14.3029508,42.2277512 L1.18295082,42.1920255 L1.18295082,42.1920255 C0.681092896,42.1920255 0.286775956,42.585008 0.286775956,43.0851675 C0.286775956,43.0851675 0.286775956,43.0851675 0.286775956,43.0851675 L0.286775956,55.8392344 L0.286775956,55.8392344 C0.286775956,56.1250399 0.430163934,56.3751196 0.645245902,56.5180223 C0.501857923,59.3760766 0.430163934,62.1984051 0.358469945,65.0564593 L0.250928962,78.9894737 C0.358469945,88.2781499 0.286775956,97.5311005 0.824480874,106.819777 L0.824480874,106.819777 C0.860327869,106.998405 1.00371585,107.105582 1.18295082,107.105582 C1.3263388,107.105582 1.43387978,106.962679 1.46972678,106.819777 C1.46972678,106.819777 1.46972678,106.819777 1.46972678,106.784051 C2.00743169,97.4953748 1.9357377,88.2424242 2.04327869,78.953748 L1.9357377,65.0207337 C1.86404372,62.2341308 1.79234973,59.4475279 1.68480874,56.660925 L14.3029508,56.6251994 L28.2474317,56.5894737 L46.9954098,56.5180223 L69.7940984,56.2679426 L92.090929,55.9106858 C91.84,58.3757576 91.732459,60.8051037 91.624918,63.2344498 C91.553224,64.985008 91.517377,66.7712919 91.4815301,68.5218501 L91.4098361,76.6315789 L91.3739891,81.2759171 C91.4815301,89.6 91.4098361,97.9240829 91.911694,106.248166 C91.911694,106.426794 91.911694,106.605423 91.947541,106.784051 C91.983388,106.962679 92.126776,107.069856 92.3060109,107.069856 C92.4493989,107.069856 92.5569399,106.926954 92.5927869,106.784051 C92.5927869,106.605423 92.5927869,106.426794 92.6286339,106.248166 C93.1304918,97.9240829 93.0946448,89.6 93.1663388,81.3116427 L93.1304918,76.6673046 L92.9871038,68.7004785 Z M2.00743169,44.0854864 L14.2312568,44.0497608 L28.1757377,44.0140351 L46.6369399,43.9783094 L63.5208743,43.8354067 C63.5925683,43.9783094 63.7718033,44.0140351 63.9151913,43.9068581 C63.9510383,43.8711324 63.9868852,43.8711324 63.9868852,43.8354067 L91.732459,43.6210526 L91.947541,55.6963317 L91.947541,55.8035088 L69.0771585,55.446252 L46.3143169,55.1961722 L28.1398907,55.1247209 L14.1954098,55.0889952 L1.9357377,55.0532695 L2.00743169,44.0854864 Z M52.264918,29.5808612 L52.193224,28.1875598 L52.193224,27.830303 C52.193224,27.6874003 52.193224,27.5802233 52.193224,27.5802233 C52.193224,27.5087719 52.229071,27.4730463 52.264918,27.4015949 C52.444153,27.2229665 52.659235,27.1515152 52.8743169,27.1515152 L55.0609836,27.1515152 L57.0684153,27.1515152 L59.9003279,27.1157895 L61.2983607,27.1157895 C61.5492896,27.1157895 61.7643716,27.1872408 61.9436066,27.3658692 C61.9794536,27.4015949 62.0153005,27.4730463 62.0153005,27.5444976 L62.0511475,28.2232855 L62.1586885,29.6165869 L62.3737705,32.4389155 C62.6246995,35.7971292 62.9473224,39.1196172 63.3416393,42.4778309 L52.48,42.4063796 C52.551694,40.8701754 52.48,36.7974482 52.408306,33.6535885 C52.336612,31.4028708 52.264918,29.5808612 52.264918,29.5808612 L52.264918,29.5808612 Z" id="Shape" fill="#C8D7E2" fill-rule="nonzero"></path>
                    <path d="M51.0461202,5.71610845 C51.0102732,4.93014354 50.3650273,4.28708134 49.5405464,4.28708134 L14.4463388,4.28708134 L14.9123497,28.0446571 L14.8765027,31.0813397 L50.0065574,31.0813397 C50.1499454,31.0813397 50.2933333,31.0813397 50.4008743,31.045614 C50.5442623,31.045614 50.6518033,31.0098884 50.7951913,30.9741627 L50.7951913,29.9738437 C50.7951913,28.6162679 50.7234973,27.1872408 50.7951913,26.61563 C50.8310383,26.1511962 51.1178142,25.7582137 51.8347541,25.615311 L51.0461202,5.71610845 Z" id="Shape" fill="#86A6BD" fill-rule="nonzero" opacity="0.26"></path>
                </g>
                <path d="M197.588634,172.983732 C199.775301,161.408612 199.846995,150.155024 198.664044,138.401276 C198.269727,134.578628 197.660328,130.827432 196.8,127.076236 C196.333989,125.004147 195.832131,122.967783 195.186885,120.931419 C194.756721,119.502392 194.29071,118.073365 193.717158,116.715789 C193.358689,115.679745 192.892678,114.715152 192.426667,113.714833 C192.247432,113.357576 192.068197,112.964593 191.888962,112.607337 C190.992787,110.821053 189.917377,109.141946 188.698579,107.570016 C188.770273,107.570016 188.80612,107.570016 188.841967,107.53429 C190.024918,106.140989 190.95694,104.569059 191.638033,102.889952 C192.247432,101.425199 192.785137,99.8889952 193.215301,98.3527911 C193.251148,98.2813397 193.251148,98.2098884 193.286995,98.138437 C193.322842,98.0669856 193.358689,97.8883573 193.394536,97.7811802 C193.430383,97.7097289 193.430383,97.6382775 193.430383,97.5668262 C193.824699,95.9591707 194.075628,94.3157895 194.183169,92.6724083 C194.183169,92.5652313 194.183169,92.4937799 194.219016,92.3866029 L194.29071,91.0290271 L194.29071,89.6714514 C194.29071,88.7425837 194.147322,87.8494418 193.896393,86.9920255 C193.788852,86.8133971 193.57377,86.7419458 193.430383,86.8491228 C193.358689,86.8848485 193.286995,86.9562998 193.251148,87.0634769 L193.251148,87.0992026 C193.071913,87.9923445 193.322842,88.8497608 193.286995,89.7429027 L193.322842,91.0647528 L193.251148,92.3866029 C193.251148,92.4937799 193.215301,92.6366826 193.215301,92.7438596 C193.10776,94.0657097 192.892678,95.3875598 192.605902,96.6736842 C192.570055,96.9952153 192.498361,97.2810207 192.462514,97.5668262 C191.817268,101.318022 190.741858,104.104625 189.272131,106.140989 L188.698579,107.462839 L188.698579,107.462839 C188.698579,107.498565 188.698579,107.498565 188.734426,107.53429 C188.626885,107.427113 188.555191,107.284211 188.44765,107.177033 C188.232568,107.427113 188.017486,107.641467 187.802404,107.855821 C188.375956,108.570335 188.877814,109.3563 189.379672,110.142265 C190.490929,111.785646 191.458798,113.500478 192.283279,115.286762 C193.502077,117.966188 194.505792,120.717065 195.258579,123.539394 C197.122623,130.398724 198.305574,139.187241 198.413115,150.512281 C198.448962,152.405742 198.448962,154.334928 198.413115,156.228389 C198.377268,156.942903 198.341421,157.657416 198.305574,158.37193 C198.162186,163.087719 197.87541,167.481978 197.373552,173.019458 L171.563716,173.233812 C171.527869,173.090909 151.130929,173.698246 151.130929,173.519617 C150.52153,173.555343 149.876284,173.591069 149.266885,173.66252 C149.08765,173.698246 148.944262,173.841148 148.980109,174.019777 C148.980109,174.162679 149.123497,174.305582 149.266885,174.305582 C151.381858,174.555662 153.496831,174.448485 155.611803,174.484211 L157.690929,174.484211 L160.917158,174.484211 L161.992568,174.484211 L170.954317,174.484211 L174.682404,174.484211 L182.747978,174.448485 L187.37224,174.448485 C190.383388,174.448485 193.358689,174.377033 196.369836,174.269856 C197.588634,174.234131 198.843279,174.198405 200.062077,174.091228 C200.169617,174.091228 200.241311,174.019777 200.241311,173.9126 C200.241311,173.805423 200.420546,173.305263 199.66776,173.126635 C199.488525,173.126635 198.377268,173.055183 197.588634,172.983732 Z" id="Shape" fill="#004F81" fill-rule="nonzero"></path>
            </g>
        </g>
    </g>
</svg>