<?xml version="1.0" encoding="utf-8"?>
<!-- Generator: Adobe Illustrator 22.0.1, SVG Export Plug-In . SVG Version: 6.00 Build 0)  -->
<svg version="1.1" id="Layer_1" xmlns="http://www.w3.org/2000/svg" xmlns:xlink="http://www.w3.org/1999/xlink" x="0px" y="0px"
	 viewBox="0 0 388 197" style="enable-background:new 0 0 388 197;" xml:space="preserve">
<style type="text/css">
	.st0{fill:#74DCFC;}
	.st1{fill:#FFFFFF;}
	.st2{fill:#E1E2E2;}
	.st3{fill:#969CA1;}
	.st4{fill:#CCCED0;}
	.st5{fill:#636D75;}
	.st6{fill:#C8D7E2;}
	.st7{fill:#46799A;}
	.st8{fill:#23354B;}
	.st9{fill:#20343F;}
	.st10{fill:#B0B5B8;}
	.st11{fill:#204A69;}
	.st12{fill:none;stroke:#20343F;stroke-width:1.0039;stroke-linecap:round;stroke-linejoin:round;stroke-miterlimit:10;}
	.st13{fill:#20343F;stroke:#20343F;stroke-width:1.0039;stroke-linecap:round;stroke-linejoin:round;stroke-miterlimit:10;}
	.st14{fill:#E9EFF4;}
	.st15{fill:none;}
</style>
<g>
	<g>
		<path class="st0" d="M292.4,174.6v-4.7c0,1.8-0.2,3.5-0.4,5.2C292.1,174.9,292.2,174.7,292.4,174.6z"/>
		<path class="st0" d="M272,198.3c-2.6,0.8-5.4,1.3-8.3,1.3h7.4C271.4,199.2,271.7,198.8,272,198.3z"/>
	</g>
	<g>
		<rect x="97.3" y="58.2" class="st1" width="195" height="141.3"/>
	</g>
	<g>
		<rect x="163.3" y="58.2" class="st2" width="129.1" height="95.2"/>
	</g>
	<g>
		<rect x="163.3" y="159.3" class="st2" width="128.7" height="40.4"/>
	</g>
	<g>
		<path class="st1" d="M237.1,86.2h-59.8v-9.1h53.6c3.4,0,6.2,2.8,6.2,6.2V86.2z"/>
	</g>
	<g>
		<path class="st1" d="M220.5,102.6h-43.2v-8.5h37c3.4,0,6.2,2.8,6.2,6.2V102.6z"/>
	</g>
	<g>
		<path class="st3" d="M210.3,133.3h-33.6v-9.4h27.4c3.4,0,6.2,2.8,6.2,6.2V133.3z"/>
	</g>
	<g>
		<path class="st3" d="M138.2,78.8h-22.8v-6.4H132c3.4,0,6.2,2.8,6.2,6.2V78.8z"/>
	</g>
	<g>
		<path class="st3" d="M115.9,98.9c2.9-0.1,5.8-0.2,8.7-0.2c2.9-0.1,5.8-0.1,8.7-0.1c2.9,0,5.8,0,8.7,0c2.9,0.1,5.8,0.1,8.7,0.3
			c0.4,0,0.7,0.3,0.6,0.7c0,0.3-0.3,0.6-0.6,0.6c-2.9,0.2-5.8,0.2-8.7,0.3c-2.9,0-5.8,0.1-8.7,0c-2.9,0-5.8,0-8.7-0.1
			c-2.9,0-5.8-0.1-8.7-0.2c-0.4,0-0.7-0.3-0.6-0.7C115.2,99.2,115.5,99,115.9,98.9z"/>
	</g>
	<g>
		<path class="st3" d="M115.9,109.6c2.9-0.1,5.8-0.2,8.7-0.2c2.9-0.1,5.8-0.1,8.7-0.1c2.9,0,5.8,0,8.7,0c2.9,0.1,5.8,0.1,8.7,0.3
			c0.4,0,0.7,0.3,0.6,0.7c0,0.3-0.3,0.6-0.6,0.6c-2.9,0.2-5.8,0.2-8.7,0.3c-2.9,0-5.8,0.1-8.7,0c-2.9,0-5.8,0-8.7-0.1
			c-2.9,0-5.8-0.1-8.7-0.2c-0.4,0-0.7-0.3-0.6-0.7C115.2,109.9,115.5,109.6,115.9,109.6z"/>
	</g>
	<g>
		<path class="st3" d="M115.9,120.8c2.9-0.1,5.8-0.2,8.7-0.2c2.9-0.1,5.8-0.1,8.7-0.1c2.9,0,5.8,0,8.7,0c2.9,0.1,5.8,0.1,8.7,0.3
			c0.4,0,0.7,0.3,0.6,0.7c0,0.3-0.3,0.6-0.6,0.6c-2.9,0.2-5.8,0.2-8.7,0.3c-2.9,0-5.8,0.1-8.7,0c-2.9,0-5.8,0-8.7-0.1
			c-2.9,0-5.8-0.1-8.7-0.2c-0.4,0-0.7-0.3-0.6-0.7C115.2,121,115.5,120.8,115.9,120.8z"/>
	</g>
	<g>
		<path class="st3" d="M115.9,130.9c2.9-0.1,5.8-0.2,8.7-0.2c2.9-0.1,5.8-0.1,8.7-0.1c2.9,0,5.8,0,8.7,0c2.9,0.1,5.8,0.1,8.7,0.3
			c0.4,0,0.7,0.3,0.6,0.7c0,0.3-0.3,0.6-0.6,0.6c-2.9,0.2-5.8,0.2-8.7,0.3c-2.9,0-5.8,0.1-8.7,0c-2.9,0-5.8,0-8.7-0.1
			c-2.9,0-5.8-0.1-8.7-0.2c-0.4,0-0.7-0.3-0.6-0.7C115.2,131.2,115.5,131,115.9,130.9z"/>
	</g>
	<g>
		<path class="st3" d="M115.9,141.6c2.9-0.1,5.8-0.2,8.7-0.2c2.9-0.1,5.8-0.1,8.7-0.1c2.9,0,5.8,0,8.7,0c2.9,0.1,5.8,0.1,8.7,0.3
			c0.4,0,0.7,0.3,0.6,0.7c0,0.3-0.3,0.6-0.6,0.6c-2.9,0.2-5.8,0.2-8.7,0.3c-2.9,0-5.8,0.1-8.7,0c-2.9,0-5.8,0-8.7-0.1
			c-2.9,0-5.8-0.1-8.7-0.2c-0.4,0-0.7-0.3-0.6-0.7C115.2,141.9,115.5,141.6,115.9,141.6z"/>
	</g>
	<g>
		<path class="st3" d="M115.9,152.8c2.9-0.1,5.8-0.2,8.7-0.2c2.9-0.1,5.8-0.1,8.7-0.1c2.9,0,5.8,0,8.7,0c2.9,0.1,5.8,0.1,8.7,0.3
			c0.4,0,0.7,0.3,0.6,0.7c0,0.3-0.3,0.6-0.6,0.6c-2.9,0.2-5.8,0.2-8.7,0.3c-2.9,0-5.8,0.1-8.7,0c-2.9,0-5.8,0-8.7-0.1
			c-2.9,0-5.8-0.1-8.7-0.2c-0.4,0-0.7-0.3-0.6-0.7C115.2,153,115.5,152.8,115.9,152.8z"/>
	</g>
	<g>
		<path class="st3" d="M125.9,179.2c2.1-0.1,4.1-0.2,6.2-0.2c2.1-0.1,4.1-0.1,6.2-0.1c2.1,0,4.1,0,6.2,0c2.1,0.1,4.1,0.1,6.2,0.3
			c0.4,0,0.6,0.3,0.6,0.7c0,0.3-0.3,0.6-0.6,0.6c-2.1,0.2-4.1,0.2-6.2,0.3c-2.1,0-4.1,0.1-6.2,0c-2.1,0-4.1,0-6.2-0.1
			c-2.1,0-4.1-0.1-6.2-0.2c-0.4,0-0.6-0.3-0.6-0.7C125.3,179.4,125.5,179.2,125.9,179.2z"/>
	</g>
	<g>
		<rect x="177.1" y="173.2" class="st1" width="27" height="25.5"/>
	</g>
	<g>
		<rect x="215.2" y="173.2" class="st1" width="27" height="25.5"/>
	</g>
	<g>
		<rect x="253.3" y="173.2" class="st1" width="27" height="25.5"/>
	</g>
	<path class="st1" d="M97.2,57.6l-0.3-10.5v-7.4c0-6.4,5.2-11.6,11.6-11.6h172.2c6.4,0,11.6,5.2,11.6,11.6v17.9H115.2H97.2"/>
	<g>
		<path class="st4" d="M96.6,199.6c-0.4-22-0.4-44-0.5-66.1L96,67.5l0-16.5l0-8.3v-2.1c0-0.7,0-1.4,0.1-2.2c0.2-1.5,0.6-2.9,1.2-4.3
			c1.3-2.7,3.6-4.9,6.4-6.1c1.4-0.6,2.9-0.9,4.3-1c1.5,0,2.8,0,4.2,0h16.5h66.1h66.1h16.5c1.4,0,2.7,0,4.2,0c1.5,0.1,3,0.4,4.3,1
			c2.8,1.2,5,3.4,6.4,6.1c0.7,1.3,1.1,2.8,1.2,4.3c0.1,0.8,0.1,1.5,0.1,2.2v2.1V51v16.5v132.1c0,0.6-0.4,1-1,1h0l-88.6-0.1
			l-44.3-0.2l-44.3-0.3c-0.2,0-0.3-0.2-0.3-0.3c0-0.2,0.1-0.3,0.3-0.3l44.3-0.3l44.3-0.2l88.6-0.1l-1,1V67.5V51v-8.3v-2.1
			c0-0.7,0-1.3-0.1-2c-0.1-1.3-0.5-2.5-1-3.6c-1.1-2.3-3-4.1-5.4-5.1c-1.2-0.5-2.4-0.8-3.7-0.9c-1.3,0-2.7,0-4.1,0h-16.5h-66.1
			h-66.1h-16.5c-1.4,0-2.8,0-4.1,0c-1.3,0.1-2.5,0.4-3.7,0.9c-2.3,1-4.2,2.8-5.4,5.1c-0.6,1.1-0.9,2.4-1,3.6c-0.1,0.6-0.1,1.3-0.1,2
			v2.1l0,8.3l0,16.5l0.1,66.1c0,22,0.1,44-0.2,66.1c0,0.4-0.3,0.7-0.7,0.7C96.9,200.3,96.6,200,96.6,199.6z"/>
	</g>
	<g>
		<path class="st3" d="M302.1,58.4c-17.9,0.8-35.8,0.8-53.7,0.8l-53.7,0.1l-53.7-0.1c-17.9,0-35.8,0-53.7-0.8
			c-0.1,0-0.2-0.1-0.2-0.3c0-0.1,0.1-0.2,0.2-0.2c17.9-0.8,35.8-0.8,53.7-0.8l53.7-0.1l53.7,0.1c17.9,0,35.8,0,53.7,0.8
			c0.1,0,0.2,0.1,0.2,0.3C302.3,58.3,302.2,58.4,302.1,58.4z"/>
	</g>
</g>
<path class="st5" d="M296.6,79.2l2.2,5.3l5.8-2.3l-1.6-4.8c0,0,1.4-2.9,1.2-6.7s-19.8-8.7-19.8-8.7l-0.8,3.3l-0.8,4.2l-1.1,3.1
	l1.8,1.2l2.5,2.9l3.3,2.5l3.7,0.3L296.6,79.2z"/>
<path class="st6" d="M17.3,47.4c3.3-0.1,6.4-0.3,9.7-0.3s6.4-0.1,9.7-0.1L36,47.4c1-3.1,2.2-6.1,4-8.9c1.8-2.7,4-5.3,7.1-6.7
	c6.5-3,14.6,1.5,16.1,8.3c0.1,0.9,0.1,1.8,0,2.7s-0.7,1.9-1.6,2.5c-0.9,0.6-1.9,0.7-2.8,0.7s-2.1-0.1-2.8-1.2
	c-0.7-0.9-0.7-2.2-0.4-3c0.3-0.9,0.7-1.6,1.3-2.4c1.6-1.2,3.1-2.2,4.8-2.7c1.6-0.6,3.4-0.7,5.1-0.6c1.6,0.1,3.4,0.7,4.8,1.9
	c1.3,1.2,2.1,2.8,2.5,4.5c0.4,1.6,0.4,3.3,0.3,5l-0.6-0.7c7,0,14,0.1,21,0.3c0.1,0,0.3,0.1,0.3,0.3s-0.1,0.3-0.3,0.3
	c-7,0.1-14,0.3-21,0.3c-0.3,0-0.6-0.3-0.6-0.6c0.3-3-0.3-6.4-2.4-8.2c-1-0.9-2.5-1.5-4-1.5c-1.5-0.1-3,0-4.5,0.4
	c-1.3,0.4-2.7,1.3-3.6,2.4c-0.4,0.6-0.9,1.2-1,1.8s-0.1,1.2,0.1,1.5c0.4,0.7,2.5,0.7,3.3,0c0.9-0.6,1.2-2.1,0.9-3.6
	c-0.6-2.8-2.7-5.3-5.2-6.7c-1.3-0.7-2.8-1-4.3-1.3c-1.5,0-3,0-4.3,0.7c-2.8,1.2-4.9,3.6-6.5,6.1c-1.8,2.5-3.1,5.5-4,8.5
	c-0.1,0.3-0.3,0.4-0.6,0.4c-3.3,0-6.4-0.1-9.7-0.1s-6.4-0.1-9.7-0.3C17.3,47.7,17.2,47.7,17.3,47.4C17.2,47.5,17.3,47.4,17.3,47.4"
	/>
<g>
	<polygon class="st7" points="264.3,121.1 188,94.3 204.9,45.7 281.2,72.5 	"/>
	<g>
		<g>
			<path class="st8" d="M264.7,121.5l-0.2-0.1l-19-6.1l-19.2-6.3c-12.9-4.2-25.9-8.6-38.8-13.1c-0.9-0.3-1.4-1.3-1.1-2.3l0,0
				l8.3-24.4L203,45l0,0c0.4-1,1.5-1.6,2.6-1.2l0,0l38.1,13.6l19,6.8l19,6.9l0,0c0.8,0.3,1.2,1.2,0.9,2c-1.5,4.1-3,8.2-4.5,12.3
				l-4.6,12.3L264.7,121.5z M263.9,120.7l0.1-0.2l7.9-24.5l3.9-12.1c1.3-4,2.6-8,4-12l1,2l-19.1-6.5l-19.1-6.6l-38.2-13.3l2.6-1.2
				l-8.5,24.3l-8.6,24.3l-1.1-2.3c12.5,4.5,24.9,9,37.5,13.7l18.9,7.2L263.9,120.7z"/>
		</g>
	</g>
	<g>
		<polyline class="st7" points="206.3,51.4 233.3,84.3 277.4,74.9 		"/>
		<path class="st8" d="M206.6,51.1c2.9,2.2,5.4,4.8,7.8,7.4c2.3,2.7,4.6,5.4,6.9,8.1c2.3,2.7,4.6,5.4,6.8,8.1
			c2.3,2.7,4.5,5.5,6.7,8.2l-2-0.7c7.4-1.6,14.7-3,22.1-4.5c3.7-0.7,7.4-1.5,11.1-2.1c3.7-0.6,7.5-1.1,11.3-1.3
			c0.2,0,0.5,0.2,0.5,0.4c0,0.2-0.1,0.4-0.3,0.4c-3.6,1.4-7.2,2.4-10.8,3.4c-3.6,1-7.3,1.8-11,2.6c-7.3,1.6-14.7,3.3-22,4.9
			c-0.8,0.2-1.5-0.1-2-0.7l0,0c-2.3-2.7-4.6-5.4-6.8-8.2c-2.2-2.8-4.5-5.5-6.7-8.3c-2.2-2.8-4.4-5.6-6.6-8.4c-2.1-2.8-4.2-5.8-5.8-9
			c-0.1-0.2,0-0.5,0.2-0.6C206.3,51,206.5,51,206.6,51.1z"/>
	</g>
</g>
<g>
	<polygon class="st5" points="286.3,110.5 292.6,92.2 304.9,99.2 294.4,119.2 290.1,123.2 285.7,121.9 271.9,108.8 	"/>
</g>
<g>
	<path class="st1" d="M312.6,166.6c17.9,16.4,19.1,23,23.9,37.2l-10.9,9.3l-12.2-18.3"/>
	<path class="st9" d="M312.7,166.4c3,2.3,5.8,4.8,8.5,7.5c2.6,2.7,5.1,5.6,7.2,8.8c1.1,1.6,2,3.2,2.9,4.9c0.9,1.7,1.7,3.4,2.3,5.2
		c1.4,3.5,2.5,7.1,3.7,10.7l0,0c0.1,0.4,0,0.8-0.3,1l-10.9,9.2l0,0c-0.4,0.3-0.9,0.3-1.2-0.1c0,0,0-0.1-0.1-0.1
		c-4-6.1-8.2-12.2-11.6-18.7c-0.1-0.1,0-0.2,0.1-0.3c0.1,0,0.2,0,0.3,0.1c4.7,5.7,8.6,11.8,12.7,17.9l-1.3-0.2l10.8-9.4l-0.3,1
		c-1.2-3.5-2.3-7.1-3.6-10.6c-0.6-1.7-1.4-3.4-2.2-5.1c-0.9-1.6-1.8-3.2-2.8-4.8c-2-3.1-4.4-5.9-6.9-8.7c-2.5-2.8-5.1-5.4-7.6-8.3
		c-0.1-0.1-0.1-0.2,0-0.3C312.5,166.3,312.7,166.3,312.7,166.4z"/>
</g>
<g>
	<path class="st1" d="M296.7,136.2c-8.2,23.9-8.8,30.5-1.1,44.1L296.7,136.2z"/>
	<g>
		<path class="st9" d="M296.6,136.4c-0.3,1-0.5,2-0.6,2.8c-0.1,0.4-0.2,0.8-0.3,1.3l-0.4,1.4l-1.6,5.5c-1,3.7-2,7.4-2.5,11.1
			c-0.5,3.7-0.5,7.5,0.5,11.1c1,3.6,2.7,7,4.5,10.3l-1.5,0.4c0.2-7.2,0.5-14.4,0.8-21.6l0.5-10.9l0.3-5.6L296.6,136.4z M296.7,136.1
			l0,21.8c0,7.5-0.1,15.1-0.3,22.5c0,0.5-0.4,0.8-0.8,0.8c-0.3,0-0.6-0.2-0.7-0.4c-1.9-3.4-3.6-6.9-4.6-10.7c-1-3.8-1-7.9-0.5-11.7
			c0.6-3.9,1.5-7.6,2.7-11.3l0.9-2.7l1-2.7l0.5-1.4c0.2-0.5,0.4-1,0.6-1.5C295.9,137.7,296.4,136.9,296.7,136.1z"/>
	</g>
</g>
<path class="st10" d="M292.6,92.2l11.6,8.3l-11.2,13l1.7,19.3h24.2c0,0,3.5-4.8,3.8-11.1c0.3-6.2-4.3-38.7-15.6-40.1
	C295.8,80.2,292.6,92.2,292.6,92.2z"/>
<g>
	<path class="st9" d="M297.2,79.2c-0.5,0.3-1,0.6-1.6,0.7c-0.6,0.2-1.1,0.3-1.6,0.4c-1.1,0.2-2.3,0.2-3.5,0
		c-2.3-0.5-4.4-1.9-5.8-3.8c-0.2-0.2-0.3-0.5-0.5-0.7l-0.2-0.4c-0.1-0.1-0.2-0.3-0.2-0.3c0,0-0.4-0.2-0.9-0.4
		c-0.3-0.1-0.6-0.2-0.9-0.3c-0.3-0.2-0.8-0.4-1-0.9c-0.5-1-0.1-1.9,0.1-2.4c0.6-1.1,1.1-1.9,1.3-2.7c0.1-0.4,0.2-0.9,0.2-1.3l0-0.8
		c0-0.3,0-0.6,0.1-0.9c0.2-1.3,0.8-2.4,1.5-3.4c0.8-0.9,1.8-1.7,2.8-2.2c2.1-1.1,4.5-1.5,6.8-1.2c2.3,0.3,4.5,1.4,6.1,3
		c1.7,1.6,2.8,3.7,3.1,6c0,0.3-0.1,0.5-0.4,0.6c-0.3,0-0.5-0.1-0.6-0.4c-0.9-4-4.5-7.1-8.5-7.5c-2-0.2-4,0.2-5.7,1.2
		c-1.7,0.9-3.1,2.4-3.3,4.2c0,0.2-0.1,0.4,0,0.7l0,0.8c0,0.6,0,1.3-0.2,1.9c-0.3,1.2-1.1,2.3-1.5,3c-0.1,0.2-0.2,0.4-0.2,0.5
		c0,0.1,0,0.2,0,0.2c0,0,0,0,0.2,0.1c0.1,0.1,0.4,0.2,0.6,0.2c0.3,0.1,0.5,0.2,0.9,0.3c0.3,0.1,0.7,0.4,1,0.8
		c0.2,0.3,0.2,0.3,0.3,0.4l0.2,0.3l0.4,0.6c1.1,1.6,2.7,2.9,4.6,3.4c0.9,0.2,1.9,0.3,2.9,0.2c0.5,0,1-0.1,1.5-0.2
		c0.5-0.1,0.9-0.3,1.4-0.5c0.3-0.1,0.6,0,0.7,0.2C297.5,78.8,297.4,79,297.2,79.2z"/>
</g>
<g>
	<path class="st5" d="M304.2,100.5c0,0-9.1,21.8-14.4,22.7c-5.3,0.9-14.8-11.2-18.6-15.1c-7.1-0.6-8.6-10-7.1-11.1
		c2.4-1.7,6.1,5.5,7.6,4.4c0.8-0.6,0.6-1.1,0.4-2.3c-0.1-1.1,0.6-2.7,1.1-2.5c1.6,0.7,2.8,2.9,3.5,5.8c0.2,0.8,0.7,1.4,1.4,1.7
		c5.3,2,10.1,4.6,10.1,4.6"/>
	<path class="st9" d="M304.7,100.6c-1.6,4-3.4,8-5.4,11.9c-1,1.9-2.1,3.8-3.3,5.7c-0.6,0.9-1.2,1.8-1.9,2.7
		c-0.7,0.9-1.5,1.7-2.5,2.4c-0.5,0.3-1.2,0.7-1.9,0.7c-0.7,0.1-1.3,0-1.9-0.2c-1.2-0.3-2.2-0.9-3.2-1.5c-1.9-1.2-3.6-2.7-5.2-4.2
		c-1.6-1.5-3.1-3.1-4.6-4.7c-1.5-1.6-2.9-3.3-4.3-4.8l0.6,0.3c-1.2-0.1-2.3-0.4-3.4-1c-1-0.6-1.9-1.4-2.6-2.3
		c-1.4-1.8-2.2-4-2.4-6.3c0-0.6,0-1.2,0.1-1.8c0.1-0.3,0.2-0.7,0.6-1.1c0.2-0.2,0.4-0.3,0.6-0.4c0.2-0.1,0.4-0.2,0.6-0.2
		c0.9-0.1,1.6,0.2,2.1,0.6c0.5,0.3,1,0.7,1.4,1.1c0.8,0.8,1.5,1.6,2.2,2.3c0.3,0.3,0.7,0.7,1,0.8c0.2,0.1,0.1,0,0,0.1c0,0,0,0,0,0
		l0,0c0,0,0.1,0,0.1-0.1c0,0,0.1-0.1,0.1-0.1c0.1,0,0-0.6,0-1.1c0-0.2-0.1-0.7,0-1c0-0.3,0.1-0.6,0.2-0.9c0.1-0.3,0.2-0.6,0.4-0.9
		c0.1-0.2,0.2-0.3,0.4-0.5c0.1-0.1,0.2-0.2,0.4-0.3c0.2-0.1,0.4-0.2,0.7-0.1c0.4,0.1,0.3,0.1,0.4,0.2l0.2,0.1
		c0.1,0.1,0.3,0.2,0.4,0.3c0.2,0.2,0.5,0.4,0.7,0.6c0.8,0.9,1.3,1.9,1.7,2.9c0.2,0.5,0.4,1,0.5,1.6l0.2,0.8c0,0.2,0.1,0.4,0.2,0.5
		c0.2,0.3,0.4,0.5,0.9,0.7l1.5,0.6c1,0.4,1.9,0.8,2.9,1.3c1.9,0.9,3.8,1.8,5.6,2.9c0.2,0.1,0.3,0.4,0.2,0.7
		c-0.1,0.2-0.4,0.3-0.7,0.2l0,0c-1.8-1-3.7-1.8-5.7-2.7c-1-0.4-1.9-0.8-2.9-1.2l-1.5-0.5c-0.6-0.2-1.2-0.6-1.6-1.2
		c-0.2-0.3-0.3-0.6-0.4-0.9c-0.1-0.3-0.1-0.5-0.2-0.7c-0.1-0.5-0.3-0.9-0.5-1.4c-0.4-0.9-0.9-1.8-1.5-2.4c-0.2-0.2-0.3-0.3-0.5-0.4
		c-0.1-0.1-0.2-0.1-0.3-0.2l-0.1-0.1c0,0-0.2-0.1,0.1,0c0.2,0,0.3,0,0.3,0c0,0,0.1,0,0,0c0,0-0.1,0.1-0.1,0.2
		c-0.1,0.2-0.2,0.4-0.2,0.6c-0.1,0.2-0.1,0.4-0.1,0.6c0,0.2,0,0.3,0,0.6c0,0.3,0.1,0.5,0.1,0.8c0,0.3,0,0.7-0.2,1.2
		c-0.1,0.2-0.2,0.4-0.4,0.6c-0.1,0.1-0.1,0.1-0.2,0.2l-0.1,0.1c-0.1,0-0.1,0.1-0.2,0.1c-0.3,0.2-0.6,0.2-0.9,0.1
		c-0.3,0-0.5-0.1-0.6-0.2c-0.7-0.3-1-0.7-1.5-1.1c-0.8-0.8-1.5-1.5-2.2-2.2c-0.4-0.3-0.7-0.6-1.1-0.9c-0.4-0.2-0.7-0.3-0.8-0.3
		c-0.2,0.1-0.1-0.1-0.2,0.3c-0.1,0.4-0.1,0.8-0.1,1.3c0.1,1.9,0.9,3.8,2,5.3c1.2,1.5,2.8,2.4,4.7,2.6l0,0c0.2,0,0.5,0.1,0.6,0.3
		c3,3.2,5.8,6.5,8.8,9.5c1.5,1.5,3.1,2.9,4.8,4c1.7,1.1,3.7,2,5,1c1.5-1.1,2.9-2.8,4.1-4.6c1.2-1.8,2.3-3.6,3.3-5.5
		c2.1-3.8,4-7.6,5.8-11.5l0,0c0.1-0.3,0.4-0.4,0.7-0.2C304.6,100.1,304.8,100.4,304.7,100.6z"/>
</g>
<path class="st11" d="M280.9,59.7c-0.3,4.4,4.2,5.2,6.4,6.9c2.4,1.8,2.5,4,4.8,4.6c2.3,0.6,3.3-0.5,6.1,0.1c2.6,0.5,3.5,2.3,6.6,1.8
	c2.4-0.4,4.1-1.5,4.5-4.9c0.4-3.5-1.4-4.1-2.1-7.4c-0.7-3.3-0.8-5.1-4.1-6.2c-3.1-1-4.4,0-6.9-0.9c-2.5-0.9-3.4-2.1-6.2-1.9
	c-1.9,0.1-3.1,1-4.6,2.9C283.5,56.5,281.1,56.1,280.9,59.7z"/>
<path class="st12" d="M285.5,75.8c0,0,0.7-0.4,1.5-0.8"/>
<path class="st9" d="M287.6,71.1l0.2-0.1c0.3-0.1,0.5-0.4,0.4-0.6l-0.3-1.2c-0.1-0.3-0.4-0.5-0.6-0.4l-0.2,0.1
	c-0.3,0.1-0.5,0.4-0.4,0.6l0.3,1.2C287.1,71,287.4,71.1,287.6,71.1z"/>
<g>
	<path class="st1" d="M295.8,132.7l-1.2,85.9l15.2-2.1c0,0,6.3-22.2,5.3-34.4c-1.9-22.6,4.7-34.1,3.8-49.4"/>
	<path class="st9" d="M296,132.7c0.2,7.2,0.3,14.3,0.2,21.5c0,7.2-0.1,14.3-0.2,21.5l-0.5,43l-1.1-1l15.2-2.2l-0.8,0.7
		c1.9-6.7,3.4-13.6,4.5-20.5c0.5-3.5,0.9-6.9,0.9-10.4c0-1.7-0.1-3.4-0.2-5.2c-0.1-1.8-0.2-3.6-0.2-5.3c0-3.6,0.1-7.1,0.5-10.6
		c0.4-3.5,1-7,1.6-10.5c0.6-3.5,1.3-6.9,1.9-10.4c0.5-3.5,0.8-7,0.8-10.5c0-0.1,0.1-0.2,0.2-0.2c0.1,0,0.2,0.1,0.2,0.2
		c0.7,7.1-0.4,14.2-1.6,21.1c-1.1,6.9-2,13.9-1.9,20.9c0,1.7,0.1,3.5,0.2,5.2c0.1,1.7,0.3,3.5,0.3,5.3c0,3.6-0.4,7.1-0.9,10.7
		c-1,7-2.6,13.9-4.4,20.8c-0.1,0.4-0.4,0.6-0.8,0.7l0,0l-15.2,2.1c-0.5,0.1-1-0.3-1.1-0.8c0,0,0-0.1,0-0.2l0.7-43
		c0.1-7.2,0.2-14.3,0.4-21.5c0.2-7.2,0.4-14.3,0.8-21.5c0-0.1,0.1-0.2,0.2-0.2C295.9,132.5,296,132.6,296,132.7z"/>
</g>
<path class="st9" d="M311.9,215.6c-5.4,0.2-21.8,1.2-24.3,2.1c-2.4,0.9-2.6,1.2,0.3,1.9c3,0.7,23.9,0,23.9,0V215.6z"/>
<path class="st9" d="M337.8,201.3c-4.1,3.5-16.8,14.5-18.1,16.7c-1.4,2.2-1.3,2.6,1.5,1.3c2.3-1.1,14.2-10.9,17.7-14
	c0.6-0.5,0.7-1.4,0.3-2L337.8,201.3z"/>
<path class="st13" d="M295.8,79.5l2.3,3.2c-0.5-0.7-1.1-4-1.1-4"/>
<g>
	<path id="Shape_48_" class="st14" d="M74.3,171.4c-0.1,0.1-0.1,0.3,0,0.5c1.4,1.5,2.8,2.8,4.3,4.2v-1.9c-1.3-1.1-2.5-2-3.9-2.8
		C74.6,171.2,74.4,171.2,74.3,171.4z"/>
	<path id="Shape_49_" class="st14" d="M84.5,203.8h0.7l0.2-0.7L84.5,203.8z"/>
	<path id="Shape_333_" class="st15" d="M88.7,160.5c-0.8-2.2-1.7-4.3-2.6-6.4v6.4H88.7z"/>
	<path id="Shape_334_" class="st4" d="M88.7,160.5h0.6c-0.3-3.1-1.2-5.9-2.4-8.6c-0.3-0.6-0.6-1.2-0.8-1.8v4
		C87,156.1,87.8,158.3,88.7,160.5L88.7,160.5z"/>
	<path id="Shape_335_" class="st4" d="M85.4,150.8c0,0.1-0.2,0.1-0.2,0l-0.1-0.1l-0.7,0.3c0.3,0.5,0.6,1.1,0.8,1.7
		c0.2,0.5,0.5,0.9,0.7,1.5v-4l-0.1-0.2L85.4,150.8L85.4,150.8z"/>
	<path id="Shape_336_" class="st4" d="M85.1,150.5c0.2-0.3,0.3-0.7,0.5-1.2c-1.2-2.1-2.5-4.2-4-6.1c-3.2-3.9-6.8-7.4-10.7-10.4v1.9
		c3.2,3.2,6.3,6.2,9.1,9.8c1.6,2,3.1,4.2,4.3,6.4l0.7-0.3C85.1,150.6,85.1,150.6,85.1,150.5L85.1,150.5z"/>
	<path id="Shape_337_" class="st14" d="M85.1,150.8C85.1,150.8,85.2,150.8,85.1,150.8c0.2,0.1,0.3,0.1,0.3,0
		c0.2-0.3,0.3-0.5,0.5-0.8c0-0.1-0.1-0.2-0.1-0.2c-0.2,0.3-0.3,0.6-0.5,0.9L85.1,150.8L85.1,150.8z"/>
	<path id="Shape_338_" class="st14" d="M85.1,150.5v0.2h0.2c0.2-0.3,0.3-0.6,0.5-0.9l-0.1-0.2C85.5,149.8,85.3,150.2,85.1,150.5z"/>
	<path id="Shape_339_" class="st4" d="M100.4,142.6c0-0.1,0-0.2,0.1-0.3l-1.1-0.4c0,0.1-0.2,0.1-0.2,0l-0.3-0.3
		c0,0.2-0.1,0.4-0.1,0.6c-0.8,6-1.1,12.1-0.6,18.1h0.5C98.9,154.4,99.3,148.5,100.4,142.6L100.4,142.6z"/>
	<path id="Shape_340_" class="st4" d="M115.1,108.5c4-4.9,8.8-9.1,13.9-12.6c0.2-0.1,0.2-0.3,0.1-0.5s-0.3-0.2-0.5-0.1
		c-5.6,3.2-10.7,7.2-15,12.1c-4.2,4.9-7.6,10.4-10.1,16.5c-2.3,5.6-3.9,11.5-4.9,17.5l0.5,0.5c0,0,0.1,0.1,0,0.2l1.1,0.4
		c1.1-6.1,2.7-12,5.2-17.7C108,118.7,111.1,113.3,115.1,108.5L115.1,108.5z"/>
	<path id="Shape_341_" class="st14" d="M99.3,141.7l-0.5-0.5v0.2c0.2,0.1,0.3,0.2,0.4,0.3h0.2C99.4,141.8,99.3,141.7,99.3,141.7z"/>
	<path id="Shape_342_" class="st4" d="M89.3,161.5h8.6v-1.1h-8.7C89.3,160.8,89.3,161.1,89.3,161.5
		C89.4,161.5,89.3,161.5,89.3,161.5z"/>
	<path id="Shape_343_" class="st4" d="M85.9,161.5H89c-0.1-0.3-0.2-0.6-0.3-1.1h-2.6v1.1H85.9z"/>
	<path id="Shape_344_" class="st4" d="M98.4,161.5h13.4l2.3,8c0.3,0,0.6,0.1,1.1,0.1l-2.4-8.4c-0.1-0.4-0.5-0.6-0.9-0.6H98.5
		C98.4,160.8,98.4,161.1,98.4,161.5z"/>
	<path id="Shape_345_" class="st4" d="M116.9,179.1c1.7,14.9-8.9,28.1-22.7,28.1c-13.7,0-24.4-13.2-22.7-28.1l1.7-5.7h-0.8l-1.6,5.5
		v0.1c-0.7,7,1.2,14.1,5.5,19.6c2.1,2.7,4.9,5,7.9,6.5c2.1,1.1,4.4,1.8,6.9,2.1h3.3c3.4,0.1,6.9-0.6,9.9-2.1c3.2-1.6,5.9-3.8,8-6.5
		c4.3-5.6,6.3-12.7,5.5-19.6v-0.2l-2.5-8.5c-0.3,0-0.6,0.1-0.9,0.1L116.9,179.1L116.9,179.1z"/>
	<path id="Shape_346_" class="st4" d="M76.9,161.5H86v-0.9h-9.1c-0.4,0-0.8,0.3-0.9,0.6l-2.4,8.2h0.9L76.9,161.5L76.9,161.5z"/>
	<path id="Shape_347_" class="st14" d="M89,161.5h0.3c0-0.3-0.1-0.6-0.1-0.9h-0.6C88.8,160.9,88.9,161.2,89,161.5L89,161.5z"/>
	<path id="Shape_348_" class="st4" d="M85.9,162.5h25.2l-0.2-0.6l0.9,0.6h-0.7l2.1,7.1c0.3,0,0.6,0,1.1,0.1l-2.3-8H98.6
		c0,0.1-0.1,0.2-0.2,0.2s-0.2-0.1-0.2-0.2h-8.9c0,0.1-0.1,0.2-0.2,0.2s-0.2,0-0.2-0.1h-3.1L85.9,162.5L85.9,162.5z"/>
	<path id="Shape_349_" class="st14" d="M110.8,161.7l0.2,0.8h0.8L110.8,161.7z"/>
	<path id="Shape_350_" class="st4" d="M116.1,179.2c0.3,3.3,0.2,6.5-0.6,9.7c-0.8,3.2-2.2,6.2-4.2,8.9c-3.9,5.3-10.1,9-16.9,9.2
		v-0.2c-3.4,0-6.5-0.9-9.5-2.5c-2.8-1.6-5.4-3.8-7.4-6.4c-3.9-5.4-5.7-11.9-4.9-18.6v0.1v-0.2v0.1l1.8-5.9h-0.9l-1.7,5.7
		c-1.7,14.9,8.9,28.1,22.7,28.1c13.7,0,24.4-13.2,22.7-28.1l-2.5-8.6l-0.9,0.1L116.1,179.2L116.1,179.2z"/>
	<path id="Shape_351_" class="st4" d="M74.5,169.4h0.9l2-6.9h-0.7l0.9-0.6l-0.2,0.6h8.3v-0.9h-9L74.5,169.4L74.5,169.4z"/>
	<path id="Shape_352_" class="st4" d="M141,88.2c-1.9-3.2-4.9-5.9-8.4-7.1c-3.7-1.2-7.5-0.6-10.9,0.5c-3.4,1.2-6.5,3-9.5,5.1
		c-5.7,4.2-10.5,9.7-14.1,15.9c-3.3,6.2-5.8,13.1-6.3,20.1c-0.3,3.6,0.1,7.2,1.2,10.5s3.1,6.1,5.8,8.2v-0.2V141
		c-2.4-2.1-4.2-5-5.1-8c-0.9-3.4-1.2-6.8-0.7-10.2c0.7-6.9,3.3-13.4,6.6-19.5c3.5-5.9,8.1-11.2,13.7-15.2c2.7-2,5.7-3.7,9-4.7
		c3.2-1.1,6.6-1.5,9.7-0.4c3.1,0.9,5.7,3.3,7.4,6c1.7,2.7,1.9,6.2,1.6,9.6c-0.7,6.8-3.4,13.3-6.6,19.4s-7.3,11.8-11.9,17
		c-2.3,2.5-5,4.7-7.9,6.6c-1.4,0.9-3,1.7-4.6,2.1c-1.6,0.4-3.4,0.4-4.9-0.3c-0.2-0.1-0.3,0-0.5,0.2c0,0.2,0,0.3,0.2,0.4
		c1.7,0.9,3.6,1.1,5.4,0.6c1.8-0.4,3.5-1.1,5-2c3.1-1.9,5.8-4.1,8.2-6.8c4.9-5.1,9.1-10.9,12.6-17.1c3.4-6.2,6.1-12.9,7-20
		C143.2,95.4,143,91.5,141,88.2L141,88.2z"/>
	<path id="Shape_353_" class="st4" d="M81,152.7c0.2-0.1,0.2-0.3,0.2-0.4c-0.1-0.2-0.3-0.3-0.5-0.2c-2.6,1.1-5.5,0.6-8.1-0.3
		c-0.5-0.2-1.1-0.4-1.6-0.6c-2.1-0.9-4-2-5.9-3.4c-4.5-3.4-8.3-7.9-10.4-13.1c-1.1-2.5-1.5-5.3-1.4-8c0.2-2.7,1.3-5.3,3-7.4
		c3-4.3,9.1-5.2,14.1-3.7l0.5,3.7l1.2,8.2c0.1,0.5,0.5,0.8,1.1,0.8c0.3,0,0.6-0.3,0.7-0.6l2.6-9.6c4.2,4,7.5,9,9.4,14.5v0.1
		c1.1,3,1.5,6,1.5,9.2c0,2.5-0.5,5-1.5,7.3l-0.3,0.6l0.1,0.2c0,0.1,0.1,0.2,0.1,0.2l0.1-0.1c1.4-2.5,2.2-5.4,2.4-8.2
		c0.2-3.3-0.2-6.5-1.2-9.7c-0.3-1.2-0.7-2.3-1.3-3.4c-2.1-5-5.3-9.4-9.3-13c-0.1-0.1-0.2-0.2-0.3-0.2c-0.5-0.1-0.9,0.1-1.1,0.6
		l-1.9,6.8l-1.1-8.2c0-0.3-0.3-0.6-0.6-0.7c-0.2-0.1-0.4-0.1-0.6-0.2c-2.7-0.8-5.6-0.9-8.4-0.4c-1.5,0.3-3.1,0.8-4.3,1.6
		c-1.4,0.8-2.5,1.9-3.4,3.2c-1.9,2.4-3.1,5.4-3.3,8.4c-0.2,3.1,0.3,6.1,1.5,8.9c2.3,5.6,6.4,10.1,11.2,13.6c1.5,1.1,3,1.9,4.5,2.6
		c1.2,0.5,2.2,0.9,3.4,1.4C74.9,153.7,78.2,153.9,81,152.7L81,152.7z"/>
	<path id="Shape_354_" class="st4" d="M116.9,169.8c-0.6-0.1-1.2-0.1-1.8-0.2c-0.3,0-0.6-0.1-1.1-0.1c-0.3,0-0.6,0-1.1-0.1
		c-2.6-0.2-5.3-0.3-7.9-0.3L93.3,169c-2.5,0-5.1,0-7.6,0.1c-3.5,0-7,0.1-10.4,0.2h-1.8c-1.2,0.1-2.3,0.1-3.5,0.2
		c-0.2,0-0.3,0.2-0.3,0.4s0.2,0.3,0.3,0.3c1.1,0.1,2.1,0.1,3.2,0.2H75c3.6,0.2,7.2,0.2,10.8,0.3c2.5,0,5.1,0,7.6,0.1l11.7-0.1
		c2.7-0.1,5.5-0.2,8.2-0.3l0.9-0.1c0.3,0,0.6-0.1,0.9-0.1c0.5,0,1.1-0.1,1.6-0.2C116.8,170,116.9,169.9,116.9,169.8
		C117,169.8,117,169.8,116.9,169.8L116.9,169.8z"/>
	<path id="Shape_355_" class="st1" d="M139.3,89.2c-1.7-2.8-4.2-5.2-7.4-6c-3.1-1.1-6.5-0.6-9.7,0.4c-3.2,1.2-6.2,2.7-9,4.7
		c-5.5,4.1-10.2,9.3-13.7,15.2c-3.4,6-5.9,12.6-6.6,19.5c-0.4,3.4-0.2,6.9,0.7,10.2c0.8,3.1,2.6,5.9,5.1,8c0.9-6,2.6-11.8,4.9-17.5
		c2.5-6,5.9-11.5,10.1-16.5c4.2-4.9,9.3-9,15-12.1c0.2-0.1,0.4,0,0.5,0.1c0.1,0.2,0,0.3-0.1,0.5c-5.2,3.5-9.9,7.8-13.9,12.6
		c-4,4.9-7.3,10.2-9.6,16c-2.4,5.7-4.1,11.6-5.2,17.7l4.2,1.5c0.1-0.2,0.3-0.2,0.5-0.2c1.5,0.7,3.2,0.7,4.9,0.3s3.2-1.2,4.6-2.1
		c2.8-1.9,5.5-4.1,7.9-6.6c4.7-5.1,8.8-10.8,11.9-17c3.2-6.1,5.9-12.7,6.6-19.4C141.3,95.4,141,91.9,139.3,89.2L139.3,89.2z"/>
	<path id="Shape_356_" class="st1" d="M80.7,151.9c0.2-0.1,0.4,0,0.5,0.2l3.2-1.2c-1.3-2.2-2.7-4.3-4.3-6.4
		c-2.6-3.5-5.9-6.6-9.1-9.8c-1.5-1.4-2.8-2.8-4.3-4.2c-0.1-0.2-0.1-0.3,0-0.5c0.1-0.1,0.3-0.1,0.4,0c1.4,0.9,2.6,1.9,3.9,2.8
		c3.9,3.1,7.5,6.6,10.7,10.4c1.5,1.9,2.8,3.9,4,6.1l0.3-0.6c0.9-2.3,1.5-4.7,1.5-7.3c0-3.2-0.5-6.2-1.5-9.2v-0.1
		c-1.9-5.5-5.1-10.4-9.4-14.5l-2.6,9.6c-0.1,0.5-0.6,0.7-1.2,0.6c-0.3-0.1-0.6-0.4-0.6-0.7l-1.2-8.2l-0.5-3.7
		c-5-1.4-11.2-0.6-14.1,3.7c-1.7,2.1-2.7,4.7-3,7.4c-0.2,2.7,0.2,5.5,1.4,8c2.1,5.2,5.9,9.6,10.4,13.1c1.8,1.4,3.8,2.5,5.9,3.4
		c0.5,0.2,1.1,0.4,1.6,0.6C75.2,152.5,78.1,153,80.7,151.9L80.7,151.9z"/>
	<path id="Shape_357_" class="st1" d="M113.4,170.5c-2.7,0.2-5.5,0.3-8.2,0.3l-11.7,0.1c-2.5,0-5.1,0-7.6-0.1
		c-3.6,0-7.2-0.1-10.8-0.3l-0.8,2.6l-1.8,5.9c-0.8,6.5,0.8,13.2,4.9,18.6c2,2.6,4.5,4.9,7.4,6.4c3,1.6,6.2,2.4,9.5,2.5v0.2
		c6.8-0.2,13.1-3.9,16.9-9.2c2-2.6,3.4-5.7,4.2-8.9c0.8-3.2,1.1-6.4,0.6-9.7L113.4,170.5L113.4,170.5z"/>
	<path id="Shape_358_" class="st1" d="M77.6,162.5l-2,6.9c3.5-0.2,7-0.2,10.4-0.2c2.5,0,5.1,0,7.6-0.1l11.7,0.1
		c2.6,0.1,5.3,0.2,7.9,0.3l-2.1-7.1H85.9L77.6,162.5L77.6,162.5z"/>
</g>
</svg>
