<?xml version="1.0" encoding="UTF-8"?>
<svg width="167px" height="142px" viewBox="0 0 167 142" version="1.1" xmlns="http://www.w3.org/2000/svg" xmlns:xlink="http://www.w3.org/1999/xlink">
    <title>Image of person building site</title>
    <desc></desc>
    <defs>
        <polygon id="path-1" points="0 142 166.061 142 166.061 0.292 0 0.292"></polygon>
    </defs>
    <g id="i2" stroke="none" stroke-width="1" fill="none" fill-rule="evenodd">
        <g id="Nudge-to-checklist" transform="translate(-939.000000, -355.000000)">
            <g id="Popover-/-Bottom-Right" transform="translate(870.000000, 330.000000)">
                <g id="Group-71" transform="translate(69.000000, 24.000000)">
                    <polygon id="Fill-1" fill="#F6F6F6" points="20.7236 122.8433 20.7236 23.1673 158.3096 23.1673 158.3096 122.8433 55.3106 122.8433"></polygon>
                    <g id="Group-70" transform="translate(0.000000, 0.708000)">
                        <path d="M20.6767,22.459 L20.6767,14.671 L20.6767,9.488 C20.6767,4.961 24.3457,1.292 28.8717,1.292 L150.1137,1.292 C154.6397,1.292 158.3097,4.961 158.3097,9.488 L158.3097,22.459 L20.6767,22.459 Z" id="Fill-2" fill="#FFFFFF"></path>
                        <polyline id="Stroke-4" stroke="#E1E2E2" stroke-width="2" stroke-linecap="round" stroke-linejoin="round" points="23.1767 22.459 20.6767 22.459 20.6767 19.959"></polyline>
                        <path d="M20.6767,14.8707 L20.6767,14.6717 L20.6767,9.4877 C20.6767,4.9617 24.3457,1.2927 28.8717,1.2927 L150.1137,1.2927 C154.6397,1.2927 158.3097,4.9617 158.3097,9.4877 L158.3097,17.4147" id="Stroke-6" stroke="#E1E2E2" stroke-width="2" stroke-linecap="round" stroke-linejoin="round" stroke-dasharray="5.088,5.088"></path>
                        <polyline id="Stroke-8" stroke="#E1E2E2" stroke-width="2" stroke-linecap="round" stroke-linejoin="round" points="158.3095 19.959 158.3095 22.459 155.8095 22.459"></polyline>
                        <path d="M150.8969,22.459 L25.6329,22.459" id="Stroke-10" stroke="#E1E2E2" stroke-width="2" stroke-linecap="round" stroke-linejoin="round" stroke-dasharray="4.912,4.912"></path>
                        <path d="M93.2587,116.9356 C93.2587,116.9356 92.5457,132.3736 90.2287,141.8216 L76.5787,141.9996 C76.5787,141.9996 75.4837,141.3026 76.9347,140.5736 C78.4577,139.8096 82.5397,138.9906 82.9957,138.0786 C83.8867,136.2956 83.5307,117.9356 83.5307,117.9356" id="Fill-12" fill="#B0B5B8"></path>
                        <path d="M98.5673,117.4019 C98.5673,117.4019 99.2803,131.8399 101.5973,141.2869 L113.5413,141.4659 C113.5413,141.4659 114.6353,140.7689 113.1843,140.0399 C111.6623,139.2749 107.5803,138.4569 107.1233,137.5439 C106.2323,135.7609 108.8643,116.4009 108.8643,116.4009" id="Fill-14" fill="#B0B5B8"></path>
                        <mask id="mask-2" fill="white">
                            <use xlink:href="#path-1"></use>
                        </mask>
                        <g id="Clip-17"></g>
                        <polygon id="Fill-16" fill="#FFFFFF" mask="url(#mask-2)" points="34.412 108.623 93.259 108.623 93.259 61.249 34.412 61.249"></polygon>
                        <path d="M148.8354,108.6226 L121.0004,108.6226 L121.0004,79.8136 C121.0004,69.1306 129.6604,60.4706 140.3434,60.4706 L148.8354,60.4706 L148.8354,108.6226 Z" id="Fill-18" fill="#FFFFFF" mask="url(#mask-2)"></path>
                        <path d="M85.6864,79.4063 C83.7964,79.4193 82.2084,80.8353 81.9784,82.7113 C80.1614,97.5333 81.5824,113.3443 81.7484,116.3313 C81.9264,119.5393 93.7934,117.0473 93.7934,117.0473 L96.4674,116.6903 C98.6064,118.1153 110.5424,116.3333 110.5424,116.3333 L109.6504,100.6433 L108.9384,92.4433 L107.8684,79.2503 L85.6864,79.4063 Z" id="Fill-19" fill="#FFFFFF" mask="url(#mask-2)"></path>
                        <path d="M116.2826,36.2017 C116.2826,36.2017 120.8186,28.1747 122.0026,28.4477 C123.1866,28.7217 122.0696,32.7927 122.0696,32.7927 C122.0696,32.7927 123.9366,32.3947 125.3536,29.8077 C126.7696,27.2217 130.7696,30.5547 125.3536,35.6497 C119.6866,38.5547 117.9246,40.1377 117.9246,40.1377" id="Fill-20" fill="#B0B5B8" mask="url(#mask-2)"></path>
                        <path d="M97.8534,41.2213 L97.8534,47.8043 L91.6034,47.4713 L91.6004,43.0833 C91.6004,43.0833 86.4034,41.5783 87.2944,35.3993 C88.1864,29.2213 94.7704,32.8883 94.7704,32.8883" id="Fill-21" fill="#B0B5B8" mask="url(#mask-2)"></path>
                        <polygon id="Fill-22" fill="#B0B5B8" mask="url(#mask-2)" points="69.1869 50.8878 66.1519 48.1188 68.7279 41.6078 70.9499 41.2208 71.4679 47.8878"></polygon>
                        <path d="M71.4672,46.7637 C71.5112,43.6887 69.9962,41.0147 69.0602,41.1487 C68.1252,41.2827 69.5062,44.1787 68.3032,44.5797 C66.4312,45.2037 67.1392,39.7957 66.5202,39.5437 C65.0942,38.9647 61.3062,45.6937 67.1892,48.7687" id="Stroke-23" stroke="#204A69" stroke-linecap="round" stroke-linejoin="round" mask="url(#mask-2)"></path>
                        <path d="M79.3998,29.8077 C79.3998,37.8237 72.9018,44.3217 64.8858,44.3217 C56.8708,44.3217 50.3728,37.8237 50.3728,29.8077 C50.3728,21.7917 56.8708,15.2937 64.8858,15.2937 C72.9018,15.2937 79.3998,21.7917 79.3998,29.8077" id="Fill-24" fill="#E1E2E2" mask="url(#mask-2)"></path>
                        <polygon id="Fill-25" fill="#6F93AD" mask="url(#mask-2)" points="107.868 32.36 166.061 32.36 166.061 10.874 107.868 10.874"></polygon>
                        <path d="M100.4892,36.7696 C100.5302,35.9446 99.5762,33.4236 98.7802,31.2326 C97.8862,28.7756 95.0192,27.9116 92.2032,28.5816 C88.2602,29.5196 86.6782,34.1066 87.5102,38.0736 C88.0202,40.5066 88.6922,42.6166 91.6002,43.0826 L91.9222,45.8276" id="Stroke-26" stroke="#204A69" stroke-linecap="round" stroke-linejoin="round" mask="url(#mask-2)"></path>
                        <g id="Group-29" mask="url(#mask-2)">
                            <g transform="translate(64.000000, 39.000000)">
                                <path d="M4.3031,5.5797 C2.4311,6.2037 3.1391,0.7957 2.5201,0.5437 C1.0941,-0.0353 -2.6939,6.6937 3.1891,9.7687" id="Fill-27" stroke="none" fill="#B0B5B8" fill-rule="evenodd"></path>
                                <path d="M4.3031,5.5797 C2.4311,6.2037 3.1391,0.7957 2.5201,0.5437 C1.0941,-0.0353 -2.6939,6.6937 3.1891,9.7687" id="Stroke-28" stroke="#204A69" stroke-width="1" fill="none" stroke-linecap="round" stroke-linejoin="round"></path>
                            </g>
                        </g>
                        <path d="M88.8154,46.7296 C91.1324,45.7496 100.8274,46.4066 102.5204,47.0306 C105.8334,48.2516 106.6364,49.7196 106.7194,53.2336 L107.3334,79.0496 L85.2374,79.4286 L84.3014,52.6466 C84.4094,48.8676 85.3194,48.2086 88.8154,46.7296" id="Fill-30" fill="#CCCED0" mask="url(#mask-2)"></path>
                        <path d="M89.3373,60.3555 C89.3373,60.3555 85.0583,64.9865 78.4633,65.3425 C71.8673,65.6995 67.5893,50.0125 67.5893,50.0125 L72.5803,46.4475 L78.1623,55.1725 C78.1623,55.1725 81.0433,52.0565 85.6383,48.4635" id="Fill-31" fill="#CCCED0" mask="url(#mask-2)"></path>
                        <path d="M99.8095,47.1646 C104.9785,48.9476 114.6495,39.8566 117.5015,34.1526 L122.3145,39.1426 C122.3145,39.1426 111.4405,58.7506 101.2805,57.6816" id="Fill-32" fill="#CCCED0" mask="url(#mask-2)"></path>
                        <path d="M82.2489,83.9898 C79.7529,99.6738 81.5699,113.1228 81.7479,116.3308 C81.9259,119.5398 93.7929,117.0468 93.7929,117.0468" id="Stroke-33" stroke="#6F93AD" stroke-linecap="round" stroke-linejoin="round" mask="url(#mask-2)"></path>
                        <path d="M95.6445,95.9991 C95.6445,95.9991 94.9845,115.7011 96.4675,116.6901 C98.6065,118.1161 110.5425,116.3331 110.5425,116.3331 L109.6505,100.6441" id="Stroke-34" stroke="#6F93AD" stroke-linecap="round" stroke-linejoin="round" mask="url(#mask-2)"></path>
                        <path d="M107.8681,79.2505 L108.9391,92.4435" id="Stroke-35" stroke="#6F93AD" stroke-linecap="round" stroke-linejoin="round" mask="url(#mask-2)"></path>
                        <path d="M104.269,95.1763 L109.795,94.5823" id="Stroke-36" stroke="#6F93AD" stroke-linecap="round" stroke-linejoin="round" mask="url(#mask-2)"></path>
                        <path d="M105.1322,95.4737 C105.0412,97.0337 106.5922,98.2947 108.4002,98.1317 L109.4492,97.8487" id="Stroke-37" stroke="#6F93AD" stroke-linecap="round" stroke-linejoin="round" mask="url(#mask-2)"></path>
                        <path d="M84.2221,79.4839 L107.8681,79.2509" id="Stroke-38" stroke="#204A69" stroke-linecap="round" stroke-linejoin="round" mask="url(#mask-2)"></path>
                        <g id="Group-41" mask="url(#mask-2)">
                            <g transform="translate(117.000000, 28.000000)">
                                <path d="M0.9247,6.6646 C2.0837,5.6396 4.1997,-0.4884 5.0027,0.4476 C5.8047,1.3836 5.0697,4.7926 5.0697,4.7926 C5.0697,4.7926 6.6067,4.4586 7.2757,3.5226" id="Fill-39" stroke="none" fill="#B0B5B8" fill-rule="evenodd"></path>
                                <path d="M0.9247,6.6646 C2.0837,5.6396 4.1997,-0.4884 5.0027,0.4476 C5.8047,1.3836 5.0697,4.7926 5.0697,4.7926 C5.0697,4.7926 6.6067,4.4586 7.2757,3.5226" id="Stroke-40" stroke="#204A69" stroke-width="1" fill="none" stroke-linecap="round" stroke-linejoin="round"></path>
                            </g>
                        </g>
                        <path d="M120.9999,37.8731 C121.8019,37.8731 125.8789,35.6001 127.8179,31.9241" id="Stroke-42" stroke="#204A69" stroke-linecap="round" stroke-linejoin="round" mask="url(#mask-2)"></path>
                        <path d="M80.5551,65.1133 L84.8781,63.1723" id="Stroke-43" stroke="#204A69" stroke-linecap="round" stroke-linejoin="round" mask="url(#mask-2)"></path>
                        <path d="M87.5546,31.9683 C86.7526,34.4193 89.9606,34.0183 89.9606,34.0183 L89.4826,38.5523 C89.5056,39.6153 90.0736,40.6003 90.9996,41.1223 C92.3516,41.8833 94.3976,43.1313 97.0016,42.5303 C102.2166,41.3263 102.1126,29.4743 98.3046,28.0463 C94.0266,26.4423 89.6086,25.6923 87.5546,31.9683" id="Fill-44" fill="#204A69" mask="url(#mask-2)"></path>
                        <path d="M90.6293,37.004 L85.8163,35.4" id="Stroke-45" stroke="#204A69" stroke-linecap="round" stroke-linejoin="round" mask="url(#mask-2)"></path>
                        <path d="M87.1532,33.7955 C86.8862,33.3495 85.6372,33.8505 85.4602,35.2665 C85.2812,36.6915 85.8162,38.2965 87.1532,37.4045" id="Stroke-46" stroke="#204A69" stroke-linecap="round" stroke-linejoin="round" mask="url(#mask-2)"></path>
                        <path d="M91.5624,25.9337 C87.0074,27.9177 92.8384,39.9167 100.1574,36.9047 C107.4754,33.8927 98.9734,22.7057 91.5624,25.9337" id="Fill-47" fill="#CCCED0" mask="url(#mask-2)"></path>
                        <path d="M13.0072,85.8721 L13.0072,97.4881 C13.0072,99.1511 14.3552,100.4991 16.0192,100.4991 L30.4532,100.4991" id="Fill-48" fill="#FFFFFF" mask="url(#mask-2)"></path>
                        <path d="M13.1073,85.8721 C13.3823,88.4371 13.4403,91.0021 13.5093,93.5671 L13.5443,97.4141 C13.5133,98.5101 14.2603,99.4871 15.2553,99.8101 C15.5033,99.8921 15.7603,99.9351 16.0253,99.9421 L16.9873,99.9511 L18.9113,99.9691 L22.7583,100.0111 C25.3233,100.0611 27.8883,100.1221 30.4533,100.2991 C30.5633,100.3071 30.6473,100.4031 30.6393,100.5131 C30.6323,100.6141 30.5513,100.6931 30.4533,100.6991 C27.8883,100.8771 25.3233,100.9371 22.7583,100.9881 L18.9113,101.0301 L16.9873,101.0471 L16.0253,101.0561 C15.6483,101.0551 15.2663,100.9991 14.9033,100.8851 C13.4333,100.4311 12.3983,98.9121 12.4693,97.4141 L12.5043,93.5671 C12.5733,91.0021 12.6313,88.4371 12.9073,85.8721 C12.9133,85.8171 12.9623,85.7771 13.0183,85.7831 C13.0653,85.7881 13.1023,85.8261 13.1073,85.8721" id="Fill-49" fill="#F6F6F6" mask="url(#mask-2)"></path>
                        <path d="M24.8022,85.8721 L24.8022,97.4881 C24.8022,99.1511 26.1512,100.4991 27.8142,100.4991" id="Fill-50" fill="#FFFFFF" mask="url(#mask-2)"></path>
                        <path d="M24.9023,85.8721 C25.1643,87.2341 25.2583,88.5971 25.3063,89.9581 C25.3483,91.3211 25.3773,92.6831 25.3683,94.0451 L25.3333,96.0881 C25.3363,96.7501 25.2713,97.5091 25.3493,98.0231 C25.5343,99.1611 26.5363,100.1281 27.8143,100.2991 C27.9243,100.3121 28.0033,100.4131 27.9903,100.5231 C27.9793,100.6161 27.9023,100.6871 27.8143,100.6991 C27.0873,100.7861 26.3043,100.5891 25.6783,100.1361 C25.0443,99.6931 24.5913,98.9951 24.3943,98.2291 C24.2243,97.4001 24.3133,96.7841 24.2723,96.0881 L24.2363,94.0451 C24.2283,92.6831 24.2563,91.3211 24.2983,89.9581 C24.3463,88.5971 24.4403,87.2341 24.7023,85.8721 C24.7133,85.8171 24.7663,85.7811 24.8213,85.7911 C24.8633,85.8001 24.8943,85.8321 24.9023,85.8721" id="Fill-51" fill="#F6F6F6" mask="url(#mask-2)"></path>
                        <path d="M4.8144,94.9439 L32.0404,94.9439 L31.1414,73.9719 L5.8504,73.9719 C4.7864,73.9719 3.9294,74.8429 3.9474,75.9059 L4.2604,94.9439" id="Fill-52" fill="#FFFFFF" mask="url(#mask-2)"></path>
                        <path d="M4.8144,94.8438 C9.3524,94.6998 13.8894,94.6068 18.4274,94.5378 C22.9644,94.4988 27.5024,94.4298 32.0404,94.4318 L31.5284,94.9658 L30.5774,73.9958 L31.1414,74.5358 L7.4654,74.4538 L5.9854,74.4408 C5.5464,74.4188 5.2144,74.5288 4.9104,74.7738 C4.6204,75.0138 4.4304,75.3698 4.3934,75.7478 C4.3804,76.1508 4.3964,76.7088 4.3964,77.1828 L4.4384,83.1018 C4.4814,87.0478 4.4774,90.9938 4.4604,94.9408 C4.4604,95.0518 4.3704,95.1398 4.2594,95.1398 C4.1514,95.1388 4.0644,95.0538 4.0604,94.9478 C3.9134,91.0028 3.7794,87.0588 3.6924,83.1138 L3.5404,77.1968 C3.5334,76.6838 3.5034,76.2548 3.5144,75.6728 C3.5594,75.0648 3.8564,74.4798 4.3194,74.0818 C4.7644,73.6748 5.4394,73.4758 5.9854,73.5028 L7.4654,73.4898 L31.1414,73.4068 C31.4444,73.4068 31.6924,73.6468 31.7054,73.9478 L32.5524,94.9218 C32.5644,95.2048 32.3444,95.4438 32.0624,95.4558 L32.0404,95.4558 C27.5024,95.4578 22.9644,95.3888 18.4274,95.3498 C13.8894,95.2808 9.3524,95.1878 4.8144,95.0438 C4.7594,95.0418 4.7154,94.9958 4.7174,94.9408 C4.7194,94.8878 4.7624,94.8458 4.8144,94.8438" id="Fill-53" fill="#CCCED0" mask="url(#mask-2)"></path>
                        <path d="M7.8866,94.9439 L31.9726,94.9439 C33.6846,94.9439 35.0516,93.5169 34.9776,91.8069 L34.3236,76.5439 C34.2616,75.1059 33.0776,73.9719 31.6386,73.9719 L6.9876,73.9719 L7.3326,91.2859" id="Fill-54" fill="#FFFFFF" mask="url(#mask-2)"></path>
                        <path d="M7.8866,94.8438 C13.9676,94.6398 20.0486,94.5318 26.1296,94.4818 L30.6906,94.4408 L31.8306,94.4368 C32.1946,94.4368 32.4776,94.4018 32.7856,94.2958 C33.3826,94.0928 33.8946,93.6478 34.1806,93.0868 C34.4926,92.5018 34.4786,91.9368 34.4236,91.1238 L34.3186,88.8458 L34.1096,84.2898 L33.8996,79.7338 L33.7946,77.4558 C33.7736,77.0998 33.7676,76.6438 33.7386,76.3698 C33.7006,76.0728 33.5936,75.7858 33.4346,75.5318 C33.1186,75.0198 32.5766,74.6508 31.9806,74.5588 C31.7156,74.5108 31.3116,74.5318 30.9316,74.5248 L29.7916,74.5218 L25.2306,74.5078 C19.1496,74.4888 13.0686,74.4808 6.9876,74.4048 L7.4206,73.9628 L7.5086,82.6218 C7.5516,85.5078 7.5256,88.3948 7.5326,91.2818 C7.5326,91.3918 7.4436,91.4818 7.3326,91.4818 C7.2246,91.4828 7.1366,91.3968 7.1326,91.2898 C7.0246,88.4048 6.8836,85.5208 6.8116,82.6358 L6.5546,73.9808 C6.5476,73.7438 6.7336,73.5458 6.9706,73.5388 L6.9756,73.5388 L6.9876,73.5388 C13.0686,73.4618 19.1496,73.4548 25.2306,73.4358 L29.7916,73.4218 L30.9316,73.4178 C31.3096,73.4258 31.6716,73.3888 32.1586,73.4588 C33.0706,73.5948 33.9016,74.1508 34.3896,74.9298 C34.6366,75.3188 34.8016,75.7608 34.8636,76.2168 C34.9156,76.6988 34.9066,77.0048 34.9286,77.4068 L35.0186,79.6858 L35.1996,84.2428 L35.3816,88.8008 L35.4716,91.0788 C35.4806,91.4578 35.5226,91.8218 35.4806,92.2928 C35.4356,92.7358 35.3046,93.1718 35.0976,93.5658 C34.6866,94.3578 33.9636,94.9768 33.1186,95.2608 C32.7076,95.4078 32.2256,95.4568 31.8306,95.4508 L30.6906,95.4478 L26.1296,95.4058 C20.0486,95.3558 13.9676,95.2478 7.8866,95.0438 C7.8316,95.0418 7.7876,94.9958 7.7896,94.9408 C7.7916,94.8878 7.8346,94.8458 7.8866,94.8438" id="Fill-55" fill="#CCCED0" mask="url(#mask-2)"></path>
                        <path d="M9.3271,93.0167 L31.6951,93.0167 C32.0451,93.0167 32.3701,92.8777 32.6121,92.6257 C32.8541,92.3727 32.9791,92.0417 32.9641,91.6917 L32.3271,76.8147 C32.3051,76.3017 31.8851,75.8987 31.3701,75.8987 L9.0371,75.8987 L9.3401,91.0797" id="Fill-56" fill="#969CA1" mask="url(#mask-2)"></path>
                        <path d="M33.1156,101.0684 L32.5356,90.8364 C32.5086,90.3654 32.9666,89.9704 33.5406,89.9704 L38.8596,89.9704 C39.3976,89.9704 39.8396,90.3184 39.8656,90.7594 L40.4486,101.0684" id="Fill-57" fill="#FFFFFF" mask="url(#mask-2)"></path>
                        <path d="M33.0155,101.0738 C32.6045,98.6958 32.4115,96.3038 32.2065,93.9138 L32.0875,92.1188 L32.0275,91.2218 L32.0125,90.9968 C32.0095,90.9288 31.9985,90.8558 32.0055,90.6998 C32.0265,90.4328 32.1365,90.1788 32.2935,89.9918 C32.6085,89.6118 33.0565,89.4438 33.4855,89.4268 L34.4015,89.4158 L36.2005,89.4058 L37.9985,89.4228 L38.9145,89.4338 C39.3425,89.4508 39.7865,89.6188 40.1015,89.9968 C40.2565,90.1838 40.3685,90.4348 40.3875,90.6998 L40.4105,91.1618 L40.4525,92.0608 L40.5295,93.8578 C40.6145,96.2548 40.6905,98.6528 40.6485,101.0568 C40.6465,101.1678 40.5555,101.2558 40.4455,101.2538 C40.3445,101.2528 40.2625,101.1768 40.2495,101.0798 C39.9365,98.6958 39.7415,96.3038 39.5545,93.9128 L39.4285,92.1178 L39.3685,91.2208 L39.3385,90.7848 C39.3345,90.7508 39.3205,90.7148 39.2835,90.6718 C39.2115,90.5858 39.0505,90.5108 38.8815,90.5108 L37.9985,90.5188 L36.2005,90.5368 L34.4015,90.5268 L33.5195,90.5188 C33.3525,90.5188 33.1925,90.5918 33.1225,90.6768 C33.0845,90.7188 33.0765,90.7538 33.0685,90.7848 C33.0675,90.7798 33.0675,90.8558 33.0735,90.9368 L33.0835,91.1618 L33.1255,92.0598 L33.2095,93.8568 C33.2775,96.2548 33.3545,98.6528 33.2155,101.0628 C33.2125,101.1178 33.1645,101.1608 33.1095,101.1568 C33.0615,101.1548 33.0235,101.1188 33.0155,101.0738" id="Fill-58" fill="#CCCED0" mask="url(#mask-2)"></path>
                        <polygon id="Fill-59" fill="#F6F6F6" mask="url(#mask-2)" points="38.5834 98.2794 38.2084 91.6764 34.2914 91.6764 34.6654 98.2704"></polygon>
                        <polygon id="Fill-60" fill="#FFFFFF" mask="url(#mask-2)" points="0.566 108.897 58.544 108.897 58.544 100.748 0.566 100.748"></polygon>
                        <path d="M58.4037,108.8248 L58.4027,108.7548 L58.2557,100.7478 L58.5437,101.0358 L29.5547,101.2518 L0.5657,101.3138 L1.1317,100.7478 L1.1217,108.8958 L0.5657,108.3408 L29.3717,108.4538 L43.8517,108.6048 L58.4037,108.8248 Z M58.6867,108.9658 L58.6147,108.9668 L44.2477,109.1878 L29.7377,109.3388 L0.5657,109.4518 C0.2597,109.4528 0.0107,109.2058 0.0097,108.9008 L0.0097,108.8958 L-0.0003,100.7478 C-0.0003,100.4358 0.2517,100.1828 0.5637,100.1818 L0.5657,100.1818 L29.5547,100.2438 L58.5437,100.4598 L58.5507,100.4598 C58.7077,100.4608 58.8337,100.5888 58.8317,100.7448 L58.8317,100.7478 L58.6867,108.9658 Z" id="Fill-61" fill="#CCCED0" mask="url(#mask-2)"></path>
                        <path d="M0.5658,105.8941 L0.5658,141.4661" id="Fill-62" fill="#FFFFFF" mask="url(#mask-2)"></path>
                        <path d="M0.6655,105.8941 C0.9415,108.8581 0.9995,111.8221 1.0685,114.7871 L1.1315,123.6801 C1.0715,129.6081 1.1055,135.5371 0.7655,141.4661 C0.7595,141.5761 0.6645,141.6611 0.5545,141.6541 C0.4515,141.6481 0.3715,141.5661 0.3655,141.4661 C0.0255,135.5371 0.0605,129.6081 -0.0005,123.6801 L0.0635,114.7871 C0.1325,111.8221 0.1905,108.8581 0.4655,105.8941 C0.4705,105.8391 0.5195,105.7981 0.5755,105.8031 C0.6235,105.8081 0.6615,105.8471 0.6655,105.8941" id="Fill-63" fill="#CCCED0" mask="url(#mask-2)"></path>
                        <path d="M26.8075,104.8218 L32.2075,104.8218" id="Fill-64" fill="#FFFFFF" mask="url(#mask-2)"></path>
                        <path d="M26.8075,104.7217 C27.2575,104.4577 27.7075,104.3647 28.1575,104.3187 C28.6075,104.2757 29.0575,104.2487 29.5075,104.2547 C29.9575,104.2667 30.4075,104.2937 30.8575,104.3307 C31.3075,104.3757 31.7575,104.4487 32.2075,104.6217 C32.3175,104.6647 32.3725,104.7887 32.3305,104.8987 C32.3075,104.9577 32.2615,105.0007 32.2075,105.0217 C31.7575,105.1957 31.3075,105.2677 30.8575,105.3127 C30.4075,105.3497 29.9575,105.3777 29.5075,105.3887 C29.0575,105.3957 28.6075,105.3677 28.1575,105.3257 C27.7075,105.2787 27.2575,105.1857 26.8075,104.9217 C26.7525,104.8897 26.7335,104.8187 26.7655,104.7637 C26.7765,104.7457 26.7905,104.7317 26.8075,104.7217" id="Fill-65" fill="#F6F6F6" mask="url(#mask-2)"></path>
                        <path d="M58.5439,108.8965 L58.5439,141.4655" id="Fill-66" fill="#FFFFFF" mask="url(#mask-2)"></path>
                        <path d="M58.644,108.8965 C58.919,111.6105 58.977,114.3245 59.046,117.0385 L59.109,125.1815 C59.049,130.6095 59.083,136.0375 58.744,141.4655 C58.737,141.5765 58.642,141.6605 58.531,141.6535 C58.429,141.6465 58.35,141.5645 58.344,141.4655 C58.004,136.0375 58.039,130.6095 57.978,125.1815 L58.041,117.0385 C58.11,114.3245 58.168,111.6105 58.444,108.8965 C58.45,108.8405 58.499,108.8005 58.554,108.8065 C58.602,108.8115 58.639,108.8495 58.644,108.8965" id="Fill-67" fill="#CCCED0" mask="url(#mask-2)"></path>
                        <path d="M83.5307,117.9356 C83.5957,123.7236 84.8307,132.7216 83.7177,136.3876" id="Stroke-68" stroke="#204A69" stroke-linecap="round" stroke-linejoin="round" mask="url(#mask-2)"></path>
                        <path d="M98.5673,117.4019 C99.8093,129.3449 101.5973,141.2869 101.5973,141.2869" id="Stroke-69" stroke="#204A69" stroke-linecap="round" stroke-linejoin="round" mask="url(#mask-2)"></path>
                    </g>
                </g>
            </g>
        </g>
    </g>
</svg>
