<svg xmlns="http://www.w3.org/2000/svg" width="388" height="197" viewBox="0 0 388 197">
  <g fill="none" fill-rule="evenodd" transform="translate(0 27)">
    <path fill="#E9EFF4" fill-rule="nonzero" d="M17.3091261,20.3656472 C20.5828327,20.2171551 23.7077343,20.0686629 26.9814408,20.0686629 C30.2551474,20.0686629 33.380049,19.9201707 36.6537555,19.9201707 L35.9097313,20.3656472 C36.9513652,17.2473116 38.141804,14.2774681 39.9274621,11.4561167 C41.7131202,8.7832576 43.9451928,6.11039846 47.0700945,4.77396888 C53.6175075,1.80412539 61.6529689,6.25889063 63.1410173,13.0895307 C63.2898222,13.9804837 63.2898222,14.8714368 63.1410173,15.7623898 C62.9922125,16.6533429 62.3969931,17.6927881 61.5041641,18.2867568 C60.611335,18.8807255 59.5697011,19.0292177 58.6768721,19.0292177 C57.784043,19.0292177 56.5936043,18.8807255 55.8495801,17.8412803 C55.1055559,16.9503272 55.1055559,15.6138976 55.4031656,14.8714368 C55.7007753,13.9804837 56.1471898,13.2380228 56.7424092,12.495562 C58.3792624,11.3076246 59.8673108,10.2681793 61.5041641,9.82270283 C63.1410173,9.22873413 64.9266754,9.08024195 66.5635287,9.22873413 C68.200382,9.3772263 69.9860401,9.971195 71.3252836,11.1591324 C72.6645272,12.3470698 73.4085514,13.9804837 73.8549659,15.6138976 C74.3013805,17.2473116 74.3013805,18.8807255 74.1525756,20.6626316 L73.5573563,19.9201707 C80.5511838,19.9201707 87.5450114,20.0686629 94.5388389,20.2171551 C94.6876438,20.2171551 94.8364486,20.3656472 94.8364486,20.5141394 C94.8364486,20.6626316 94.6876438,20.8111238 94.5388389,20.8111238 C87.5450114,20.9596159 80.5511838,21.1081081 73.5573563,21.1081081 C73.2597466,21.1081081 72.9621369,20.8111238 72.9621369,20.5141394 C73.2597466,17.5442959 72.6645272,14.1289759 70.5812594,12.3470698 C69.5396255,11.4561167 68.0515771,10.862148 66.5635287,10.862148 C65.0754803,10.7136559 63.5874319,10.862148 62.0993835,11.3076246 C60.7601399,11.7531011 59.4208963,12.6440541 58.5280673,13.6834994 C58.0816527,14.2774681 57.6352382,14.8714368 57.4864334,15.4654055 C57.3376285,16.0593742 57.3376285,16.6533429 57.6352382,16.9503272 C58.0816527,17.6927881 60.1649205,17.6927881 60.9089447,16.9503272 C61.8017738,16.3563585 62.0993835,14.8714368 61.8017738,13.386515 C61.2065544,10.5651637 59.1232866,8.04079673 56.5936043,6.70436715 C55.2543607,5.96190628 53.7663123,5.66492193 52.2782639,5.36793758 C50.7902155,5.36793758 49.3021671,5.36793758 47.9629235,6.11039846 C45.1356315,7.29833585 43.0523637,9.67421065 41.4155105,12.1985776 C39.6298524,14.7229446 38.2906088,17.6927881 37.3977798,20.6626316 C37.2489749,20.9596159 37.1001701,21.1081081 36.8025604,21.1081081 C33.5288539,21.1081081 30.4039522,20.9596159 27.1302457,20.9596159 C23.8565392,20.9596159 20.7316375,20.8111238 17.457931,20.6626316 C17.3091261,20.6626316 17.1603213,20.6626316 17.3091261,20.3656472 C17.1603213,20.5141394 17.3091261,20.3656472 17.3091261,20.3656472"/>
    <path fill="#FFF" fill-rule="nonzero" d="M183.925234,197.648649 C183.925234,197.648649 269.550934,140.661995 403.294393,136.243243"/>
    <path fill="#C8D7E2" fill-rule="nonzero" d="M184.075014,197.497404 C188.119087,194.926242 192.163161,192.355079 196.506795,190.086407 C198.603722,188.876448 200.700649,187.817734 202.797576,186.607775 C204.894502,185.549061 206.991429,184.339103 209.238137,183.280389 C213.581771,181.162961 217.925405,179.045533 222.269039,177.07935 C226.612674,175.113167 230.956308,173.146984 235.449723,171.332046 L242.189845,168.609639 C244.436552,167.70217 246.68326,166.945946 248.929967,166.038477 C253.423382,164.374784 257.916796,162.71109 262.559992,161.198642 C267.203187,159.686194 271.696602,158.173745 276.339797,156.812542 L290.269383,152.880176 L293.714334,151.972707 L297.159285,151.065238 L304.198968,149.401544 C308.842163,148.342831 313.485359,147.132872 318.278334,146.225403 L332.357701,143.351751 C337.150676,142.444282 341.793872,141.839302 346.586847,141.083078 C356.023018,139.419385 365.60897,138.814406 375.194921,137.755692 C377.591409,137.453202 379.987897,137.301957 382.384385,137.150712 L389.573848,136.848223 L403.952775,136.243243 C404.102556,136.243243 404.252336,136.394488 404.252336,136.545733 C404.252336,136.696978 404.102556,136.848223 403.952775,136.848223 L389.573848,137.906936 C384.780873,138.209426 379.987897,138.360671 375.194921,138.96565 C365.60897,140.024364 356.172799,140.931833 346.736628,142.595527 C341.943652,143.351751 337.300457,143.95673 332.507481,144.864199 L318.428115,147.586606 C313.635139,148.494075 308.991944,149.552789 304.348749,150.762748 L297.309066,152.426441 L293.864114,153.33391 L290.419163,154.241379 L276.639358,158.173745 C271.996163,159.534949 267.502748,161.047397 263.009333,162.559846 C258.366138,163.921049 254.022504,165.735987 249.379308,167.39968 C247.132601,168.30715 244.885894,169.063374 242.639186,169.970843 L235.899064,172.69325 C233.652357,173.600719 231.405649,174.356943 229.158942,175.415657 L222.5686,178.289309 C218.075186,180.104247 213.881332,182.221675 209.537698,184.187858 C207.29099,185.246572 205.194063,186.305286 203.097137,187.363999 C201.00021,188.422713 198.753502,189.481427 196.656575,190.691386 C192.462722,192.960059 188.119087,195.228731 184.075014,197.648649 L183.925234,197.648649 C184.075014,197.648649 184.075014,197.648649 184.075014,197.497404"/>
    <path fill="#FFF" fill-rule="nonzero" d="M183.925234,174.621622 C197.021696,179.514865 205,183.256757 205,183.256757"/>
    <path fill="#C8D7E2" fill-rule="nonzero" d="M184.148654,174.621622 C186.15944,174.900174 188.01555,175.45728 189.871659,176.014385 C191.727769,176.571491 193.583879,177.267873 195.285313,177.964255 C198.842857,179.357018 202.4004,180.749782 205.803268,182.699651 C205.957944,182.838928 205.957944,182.978204 205.957944,183.11748 C205.957944,183.256757 205.803268,183.256757 205.648592,183.256757 C201.936373,182.142546 198.378829,180.749782 194.66661,179.496295 C192.8105,178.799913 191.109066,178.103531 189.252956,177.407149 C187.551522,176.710767 185.695412,175.875109 183.993978,174.900174 C183.993978,174.900174 183.839303,174.760898 183.993978,174.760898 C183.993978,174.621622 184.148654,174.621622 184.148654,174.621622"/>
    <path fill="#FFF" fill-rule="nonzero" d="M0.957943925,158.310811 C29.2424988,146.529237 61.9134284,145.892395 92.9205607,150.191077"/>
    <path fill="#C8D7E2" fill-rule="nonzero" d="M1.02489887,157.205647 C8.10538429,154.000147 15.6378156,151.960283 23.1702469,150.211829 C30.8533268,148.609079 38.5364068,147.734852 46.2194867,147.152034 C61.7362952,146.277806 77.4037523,147.006329 92.6192635,149.483306 C92.7699121,149.483306 92.9205607,149.629011 92.9205607,149.774715 C92.9205607,149.92042 92.7699121,150.066124 92.6192635,150.066124 C77.2531036,148.609079 61.7362952,147.734852 46.3701353,148.754784 C38.6870554,149.191897 31.0039754,150.066124 23.4715441,151.52317 C15.9391128,152.980215 8.40668155,154.874374 1.1755475,157.351351 C1.02489887,157.351351 1.02489887,157.351351 1.02489887,157.205647 C0.874250244,157.205647 1.02489887,157.205647 1.02489887,157.205647"/>
    <path fill="#FFF" fill-rule="nonzero" d="M94.0700935,176.540541 L93.8785047,24.9459459"/>
    <path fill="#C8D7E2" fill-rule="nonzero" d="M94.1700528,176.540541 C93.1704592,163.95759 93.1704592,151.224842 93.1704592,138.641892 L92.9205607,100.743243 L93.04551,62.8445946 C93.04551,50.2616441 93.04551,37.5288965 93.9201544,24.9459459 L94.5449004,24.9459459 C95.5444941,37.5288965 95.5444941,50.2616441 95.5444941,62.8445946 L95.7943925,100.743243 L95.6694433,138.641892 C95.6694433,151.224842 95.6694433,163.95759 94.7947989,176.540541 L94.1700528,176.540541 Z"/>
    <polyline fill="#FFF" fill-rule="nonzero" points="297.921 31.662 297.921 174.622 121.659 174.622"/>
    <path fill="#C8D7E2" fill-rule="nonzero" d="M297.684101,31.813133 C298.132002,43.7398299 298.281303,55.8174976 298.430603,67.7441945 C298.579904,79.6708914 298.579904,91.7485591 298.729204,103.675256 L298.878505,175.68835 L298.878505,177.349029 L297.2362,177.349029 L253.341869,177.5 L209.447539,177.349029 L165.553209,177.198058 C150.921765,177.047087 136.290322,176.896117 121.658879,175.990292 L121.658879,175.235437 C136.290322,174.329612 150.921765,174.178641 165.553209,174.027671 L209.447539,173.8767 L253.341869,173.725729 L297.2362,173.8767 L295.593895,175.537379 L295.743195,103.524285 C295.892496,91.5975883 295.892496,79.5199205 296.041796,67.5932237 C296.191097,55.6665268 296.489698,43.588859 296.788298,31.6621622 L297.684101,31.6621622 L297.684101,31.813133 Z"/>
    <path fill="#74DCFC" fill-rule="nonzero" d="M92.9205607,31.6621622 L92.9205607,12.2466854 C92.9205607,5.5259434 98.4586741,0 105.194217,0 L286.604848,0 C293.340391,0 298.878505,5.5259434 298.878505,12.2466854 L298.878505,31.6621622 L92.9205607,31.6621622 Z"/>
    <path fill="#DDF8FF" fill-rule="nonzero" d="M309.415888,31.6621622 L82.3831776,31.6621622"/>
    <path fill="#004F81" fill-rule="nonzero" d="M309.415888,32.4547591 C290.496495,33.4559342 271.577103,33.4559342 252.65771,33.4559342 L195.899533,33.5810811 L139.141355,33.4559342 C120.221963,33.4559342 101.30257,33.4559342 82.3831776,32.4547591 L82.3831776,31.8290247 C101.30257,30.8278496 120.221963,30.8278496 139.141355,30.8278496 L195.899533,30.7027027 L252.65771,30.8278496 C271.577103,30.8278496 290.496495,30.8278496 309.415888,31.8290247 L309.415888,32.4547591 L309.415888,32.4547591 Z"/>
    <path fill="#C8D7E2" fill-rule="nonzero" d="M112.079439,159.27027 L157.608936,159.27027 L157.608936,51.8108108 L112.079439,51.8108108 M271.951744,68.8100473 L196.019815,68.8100473 L196.019815,51.8108108 L276.845794,51.8108108 L276.845794,63.9531226 C276.845794,66.5333639 274.621226,68.8100473 271.951744,68.8100473"/>
    <path fill="#C2F4FF" fill-rule="nonzero" d="M188.714953,69.0810811 L172.429907,69.0810811 L172.429907,57.6942886 C172.429907,54.9245283 174.580762,52.7702703 177.346147,52.7702703 L188.561321,52.7702703 L188.561321,69.0810811 L188.714953,69.0810811 Z"/>
    <path fill="#C8D7E2" fill-rule="nonzero" d="M272.873403,158.310811 L196.378505,158.310811 L196.378505,128.567568 L277.803738,128.567568 L277.803738,153.30302 C277.803738,156.034542 275.562677,158.310811 272.873403,158.310811"/>
    <path fill="#C2F4FF" fill-rule="nonzero" d="M188.714953,144.878378 L172.429907,144.878378 L172.429907,133.538481 C172.429907,130.742342 174.580762,128.567568 177.346147,128.567568 L188.561321,128.567568 L188.561321,144.878378 L188.714953,144.878378 Z"/>
    <path fill="#C8D7E2" fill-rule="nonzero" d="M272.873403,116.094595 L196.378505,116.094595 L196.378505,78.6756757 L277.803738,78.6756757 L277.803738,111.187195 C277.803738,113.794251 275.562677,116.094595 272.873403,116.094595"/>
    <path fill="#00A9DE" fill-rule="nonzero" d="M188.714953,94.9864865 L172.429907,94.9864865 L172.429907,83.6465894 C172.429907,80.8504505 174.580762,78.6756757 177.346147,78.6756757 L188.561321,78.6756757 L188.561321,94.9864865 L188.714953,94.9864865 Z"/>
    <path fill="#FFF" fill-rule="nonzero" d="M146.565421,76.7581369 C146.565421,83.6541941 140.998076,89.2297297 134.11215,89.2297297 C127.226223,89.2297297 121.658879,83.6541941 121.658879,76.7581369 C121.658879,69.8620797 127.226223,64.2865441 134.11215,64.2865441 C140.851567,64.1398195 146.565421,69.8620797 146.565421,76.7581369"/>
    <path fill="#E9EFF4" fill-rule="nonzero" d="M0.149689668,210.339681 C34.2789339,209.685504 68.4081782,209.554668 102.537422,209.292998 L204.925155,209.162162 L307.312888,209.423833 L358.506754,209.685504 L384.103687,209.816339 L409.700621,210.07801 C409.85031,210.07801 410,210.339681 410,210.601351 C410,210.863022 409.85031,211.124693 409.700621,211.124693 L383.953998,211.386364 L358.357065,211.517199 L307.163198,211.77887 L204.775465,212.040541 L102.537422,211.909705 C68.4081782,211.77887 34.2789339,211.648034 0.149689668,210.863022 C0.149689668,210.863022 0,210.732187 0,210.601351 C0,210.470516 0.149689668,210.339681 0.149689668,210.339681"/>
    <path fill="#C8D7E2" fill-rule="nonzero" d="M340.835499,73.8783784 L339.284392,68.8272886 C334.941291,69.4215344 333.079962,67.044551 331.373743,63.3305144 C330.908411,62.2905841 328.736861,62.4391456 328.58175,61.2506539 C328.426639,59.6164778 330.908411,58.5765475 330.7533,55.3081953 C330.7533,53.5254577 331.063522,51.1484743 332.924851,50.8513514 C332.924851,50.8513514 341.300832,54.268265 345.488822,58.5765475 C347.350151,63.4790759 348.435926,65.8560593 348.435926,65.8560593 L350.607477,70.9071491 L340.835499,73.8783784 Z"/>
    <path fill="#FFF" fill-rule="nonzero" d="M103.945786,38.7077956 C103.945786,39.9069082 102.890273,40.9561318 101.683974,40.9561318 C100.477674,40.9561318 99.4221616,39.9069082 99.4221616,38.7077956 C99.4221616,37.508683 100.477674,36.4594595 101.683974,36.4594595 C102.890273,36.4594595 103.945786,37.508683 103.945786,38.7077956 M107.564685,206.283784 C107.564685,206.283784 103.342636,175.556523 98.6682243,171.059851 C106.358385,177.505081 114.953271,195.791548 114.953271,206.283784"/>
    <path fill="#C8D7E2" fill-rule="nonzero" d="M106.882084,206.78223 C105.708093,200.635385 104.534102,194.48854 103.213362,188.495366 C102.626367,185.421944 101.892623,182.502192 101.158879,179.42877 C100.718632,177.892058 100.278385,176.509018 99.8381388,175.125978 C99.3978922,173.742938 98.6641479,172.206227 97.9304037,171.2842 C97.6369059,170.976858 97.6369059,170.362173 97.9304037,170.054831 C98.2239014,169.747489 98.6641479,169.747489 99.1043945,170.054831 C101.599125,172.359898 103.653609,175.125978 105.414595,178.04573 C107.175582,180.965481 108.789819,183.885232 110.110559,187.112326 C111.431298,190.185748 112.605289,193.412842 113.485782,196.793607 C114.366276,200.0207 114.953271,203.555136 114.953271,206.935901 C114.953271,207.089572 114.806522,207.243243 114.659773,207.243243 C114.513024,207.243243 114.366276,207.089572 114.366276,206.935901 C114.219527,203.555136 113.339034,200.328043 112.45854,197.100949 C111.431298,193.873855 110.257308,190.800433 108.936568,187.72701 C107.615828,184.653588 106.001591,181.733837 104.240604,178.967756 C102.479618,176.201676 100.571883,173.589267 98.2239014,171.437871 L99.3978922,170.208502 C100.571883,171.591542 101.158879,173.128254 101.745874,174.664965 C102.332869,176.201676 102.773116,177.738387 103.066614,179.121427 C103.800358,182.19485 104.534102,185.268272 105.121098,188.341695 C105.708093,191.415117 106.14834,194.48854 106.588586,197.561962 C107.028833,200.635385 107.32233,203.708807 107.615828,206.935901 C107.615828,207.089572 107.615828,207.089572 107.469079,207.089572 C107.028833,206.935901 106.882084,206.78223 106.882084,206.78223"/>
    <path fill="#FFF" fill-rule="nonzero" d="M115.801312,202.828735 C115.801312,202.828735 116.934056,179.617771 112.079439,175.581081 C120.332288,181.491948 125.510546,194.899524 124.377802,203.405405"/>
    <path fill="#C8D7E2" fill-rule="nonzero" d="M115.239112,204.29106 C115.08373,199.567568 114.928348,194.844075 114.462203,190.120582 C114.306821,187.758836 113.996058,185.397089 113.685294,183.182952 C113.529913,182.002079 113.219149,180.968815 112.908386,179.787942 C112.597622,178.754678 111.976095,177.721414 111.354568,176.983368 C111.043804,176.68815 111.043804,176.097713 111.354568,175.802495 C111.665331,175.507277 112.131477,175.507277 112.597622,175.802495 C114.772967,177.573805 116.637548,179.787942 118.191365,182.002079 C119.745183,184.216216 120.988237,186.725572 121.920527,189.234927 C122.852818,191.744283 123.629727,194.401247 124.095872,197.058212 C124.562017,199.715177 124.717399,202.372141 124.251254,205.029106 C124.251254,205.176715 124.095872,205.324324 123.94049,205.324324 C123.785108,205.324324 123.629727,205.176715 123.629727,205.029106 C123.785108,202.372141 123.474345,199.862786 122.852818,197.35343 C122.231291,194.844075 121.454382,192.334719 120.522091,189.972973 C118.502129,185.24948 115.549875,180.525988 111.50995,177.278586 L112.597622,176.097713 C113.685294,177.130977 114.15144,178.459459 114.617585,179.640333 C114.928348,180.821206 115.239112,182.002079 115.394494,183.182952 C115.860639,185.544699 116.016021,187.906445 116.171402,190.4158 C116.326784,192.777547 116.326784,195.139293 116.171402,197.648649 C116.016021,200.010395 116.016021,202.372141 115.705257,204.733888 C115.549875,204.438669 115.394494,204.438669 115.239112,204.29106 C115.239112,204.438669 115.239112,204.29106 115.239112,204.29106"/>
    <path fill="#FFF" fill-rule="nonzero" d="M72.2479567,142 C78.2324241,154.511074 79.1844985,159.57508 78.2324241,166.724266 C77.2803498,173.873451 70.8878505,183.256757 70.8878505,183.256757"/>
    <path stroke="#74DCFC" stroke-linecap="round" stroke-linejoin="round" d="M72.2479567,142 C78.2324241,154.511074 79.1844985,159.57508 78.2324241,166.724266 C77.2803498,173.873451 70.8878505,183.256757 70.8878505,183.256757"/>
    <path fill="#74DCFC" fill-rule="nonzero" d="M53.075295,92.1081081 C51.2318814,102.760798 50.771028,122.882546 50.771028,122.882546 L71.3558133,123.77027 C71.3558133,123.77027 75.3498761,100.689442 73.0456091,96.3987749"/>
    <path fill="#FFF" fill-rule="nonzero" d="M74.4114854,78.6756757 C76.2503381,93.1253097 69.3546406,97.9910028 67.0560748,95.1895431"/>
    <path stroke="#74DCFC" stroke-linecap="round" stroke-linejoin="round" d="M74.4114854,78.6756757 C76.2503381,93.1253097 69.3546406,97.9910028 67.0560748,95.1895431"/>
    <path fill="#FFF" fill-rule="nonzero" d="M76.635514,57.5675676 C78.3917445,58.646084 79.5093458,60.1868219 79.8286604,62.189781 C80.3076324,65.733478 83.3411215,66.5038469 83.3411215,68.3527323 C83.3411215,69.7393963 80.9462617,69.8934701 80.626947,71.1260604 C79.3496885,75.4401263 75.8372274,78.6756757 70.8878505,78.6756757"/>
    <path stroke="#004F82" stroke-linecap="round" stroke-linejoin="round" d="M76.635514,57.5675676 C78.3917445,58.646084 79.5093458,60.1868219 79.8286604,62.189781 C80.3076324,65.733478 83.3411215,66.5038469 83.3411215,68.3527323 C83.3411215,69.7393963 80.9462617,69.8934701 80.626947,71.1260604 C79.3496885,75.4401263 75.8372274,78.6756757 70.8878505,78.6756757 M77.114486,71.8964293 C77.7531153,73.2830933 79.1900312,73.8993884 79.1900312,73.8993884"/>
    <path fill="#004F82" fill-rule="nonzero" d="M77.5314773,68.4640554 C77.2297306,68.4640554 76.9279838,68.1625417 76.9279838,67.861028 L76.9279838,66.8057301 C76.9279838,66.5042164 77.2297306,66.2027027 77.5314773,66.2027027 C77.833224,66.2027027 78.1349708,66.5042164 78.1349708,66.8057301 L78.1349708,67.861028 C78.1349708,68.1625417 77.833224,68.4640554 77.5314773,68.4640554 M56.861826,86.1026067 C62.595014,83.6904971 74.3631366,105.248726 74.3631366,105.248726 L86.2821326,85.9518499 L92.9205607,88.6654731 C92.9205607,88.6654731 86.8856261,115.801706 75.1175034,117.007761 C63.5002542,118.063059 54.1461054,100.726021 54.1461054,100.726021 C54.1461054,100.726021 49.469031,89.1177437 56.861826,86.1026067"/>
    <path fill="#FFF" fill-rule="nonzero" d="M52.0351804,120.891892 C46.5485229,134.275785 52.9496233,211.081081 52.9496233,211.081081 L68.4951527,211.081081 C68.4951527,211.081081 76.2679174,137.317579 70.9336671,121.80443"/>
    <path stroke="#74DCFC" stroke-linecap="round" stroke-linejoin="round" d="M51.9731494,120.50773 C46.6396548,133.663868 52.8620652,209.162162 52.8620652,209.162162 L67.9736334,209.162162 C67.9736334,209.162162 75.5294175,136.653899 70.3440754,121.404739 M75.6775701,57.5675676 C71.9737544,60.7071006 71.6774491,68.6306839 70.936686,72.0692201 C70.0477702,76.4047657 68.5662439,80.4413082 72.4182123,80.7403113"/>
    <path fill="#FFF" fill-rule="nonzero" d="M55.0981356,78.6756757 C51.2115399,70.1106348 55.3860316,55.7863424 64.4547549,53.8665919 C67.4776627,53.2758994 71.0763624,54.7526306 72.8037383,55.3433231"/>
    <path stroke="#74DCFC" stroke-linecap="round" stroke-linejoin="round" d="M56.5565052,79.2165224 C52.3591982,70.4657851 56.8674168,55.8309313 66.661133,53.8695591 C69.925705,53.26606 73.8121003,54.7748078 75.6775701,55.378307 M50.4937285,184.22537 L40.2336449,197.8041 L52.9810215,211.081081"/>
    <path fill="#FFF" fill-rule="nonzero" d="M85.2570093,86.642707 C85.5262484,82.2038979 87.4109217,69.3313516 89.295595,70.0711531 C91.1802684,70.958915 89.6994536,77.1732476 90.2379317,79.3926522 C90.7764098,81.6120567 91.7187465,84.4233024 90.1033122,88.2702703"/>
    <path stroke="#004F82" stroke-linecap="round" stroke-linejoin="round" d="M85.2570093 86.642707C85.5262484 82.2038979 87.4109217 69.3313516 89.295595 70.0711531 91.1802684 70.958915 89.6994536 77.1732476 90.2379317 79.3926522 90.7764098 81.6120567 91.7187465 84.4233024 90.1033122 88.2702703M92.9205607 79.3094146C92.9205607 79.3094146 93.5580729 77.3816446 93.8312923 77.7671986 94.1045118 78.2812706 93.1027071 80.5945946 93.1027071 80.5945946"/>
    <path fill="#FFF" fill-rule="nonzero" d="M63.2242991,71 C63.2242991,74.768059 64.5987403,77.977887 66.0981308,78.6756757"/>
    <path stroke="#74DCFC" stroke-linecap="round" stroke-linejoin="round" d="M63.2943925,71 C63.2943925,75.0207946 65.0934579,78.445916 67.0560748,79.1905076 M53.6448598,130.120573 L58.2242991,138.162162"/>
    <path fill="#FFF" fill-rule="nonzero" d="M56.68016,71 C53.9893112,80.7642818 55.7832104,94.5844961 66.0981308,92.9320791"/>
    <path stroke="#74DCFC" stroke-linecap="round" stroke-linejoin="round" d="M56.68016,71 C53.9893112,80.7642818 55.7832104,94.5844961 66.0981308,92.9320791"/>
    <path fill="#FFF" fill-rule="nonzero" d="M311.378507,114.954305 L312.771027,128.927872 C312.771027,128.927872 320.661972,148.761323 314.163547,141.248652 C322.828114,151.165377 333.039926,138.844597 333.349375,127.275085 C333.658824,114.503545 329.171815,105.788847 323.911185,103.234539 C321.126146,101.882258 316.948586,103.084285 314.782444,105.187833 C312.306854,107.742141 311.069058,111.348223 311.378507,114.954305"/>
    <path stroke="#00A9DE" stroke-linecap="round" stroke-linejoin="round" d="M311.378507,114.954305 L312.771027,128.927872 C312.771027,128.927872 320.661972,148.761323 314.163547,141.248652 C322.828114,151.165377 333.039926,138.844597 333.349375,127.275085 C333.658824,114.503545 329.171815,105.788847 323.911185,103.234539 C321.126146,101.882258 316.948586,103.084285 314.782444,105.187833 C312.306854,107.742141 311.069058,111.348223 311.378507,114.954305 L311.378507,114.954305 Z"/>
    <path stroke="#74DCFC" stroke-linecap="round" stroke-linejoin="round" d="M318.183323,97.040747 C311.536272,95.8143771 309.526699,103.325893 309.526699,103.325893 M314.937089,104.092374 C312.154603,103.785782 306.435047,103.785782 305.662134,107.005003 C305.352969,108.231373 305.9713,110.37752 307.362543,111.297297 M316.17375,100.873153 C319.574566,98.5737094 323.593713,97.3473395 326.067035,99.8000794 C327.149113,100.873153 326.839947,103.785782 324.366626,105.47204"/>
    <path stroke="#004F82" stroke-linecap="round" stroke-linejoin="round" d="M365.345075,143.918919 C363.429188,156.775676 385.093458,193.379618 385.093458,193.379618 L375.219267,208.202703 C375.219267,208.202703 356.35514,180.371606 352.523364,168.724897"/>
    <polyline stroke="#004F82" stroke-linecap="round" stroke-linejoin="round" points="336.172 159.694 326.659 208.188 342.363 210.122 357.313 152.554"/>
    <path fill="#00A9DE" fill-rule="nonzero" d="M346.88069,77.2641984 C335.987774,82.9447213 336.733865,100.135777 335.54012,107.909124 C334.197158,115.682471 332.406542,160.22973 332.406542,160.22973 L373.590715,158.585368 C373.590715,158.585368 374.784459,62.9134038 346.88069,77.2641984"/>
    <path fill="#74DCFC" fill-rule="nonzero" d="M309.390274,163.108108 L302.361937,204.012963 C302.218502,205.216047 301.214453,206.11836 300.06697,206.268745 C298.058874,206.569516 295.046729,207.471829 295.046729,210.028383 C295.046729,210.629925 300.210405,210.930696 304.226598,211.081081 C306.808436,211.081081 309.246839,209.426841 309.964016,206.719902 L321.869159,166.71736"/>
    <path fill="#74DCFC" fill-rule="nonzero" d="M318.995327,168.462493 L341.425563,203.338964 C342.168286,204.391271 342.019741,205.744238 341.277018,206.646216 C339.940117,208.299842 338.306126,211.156104 340.088662,212.96006 C340.534295,213.411049 344.545,209.953467 347.664437,207.097205 C349.744061,205.293249 350.189695,202.286657 349.001338,199.881383 L330.878896,162.148649"/>
    <path fill="#004F84" fill-rule="nonzero" d="M305.584112,79.4870735 L308.798907,89.9757727 C309.675669,92.6774073 312.159829,94.4255238 314.790116,93.9487648 L322.827103,92.5184876 C322.827103,92.5184876 318.443292,74.719483 305.584112,79.4870735"/>
    <path stroke="#004F82" stroke-linecap="round" stroke-linejoin="round" d="M334.32243,63.3243243 C333.843458,64.7635135 332.406542,65.2432432 332.406542,65.2432432"/>
    <polygon fill="#FFF" fill-rule="nonzero" points="311.045 130.231 302.71 189.973 349.65 184.074 330.347 128.568"/>
    <polygon stroke="#00A9DE" stroke-linecap="round" stroke-linejoin="round" points="311.045 130.231 302.71 189.973 349.65 184.074 330.347 128.568"/>
    <path fill="#74DCFC" fill-rule="nonzero" d="M318.61636,108.672562 C313.405566,110.439538 317.984749,132.526729 317.984749,132.526729 L313.247664,152.110706 L314.984595,152.405202 C318.774263,153.141442 322.563931,151.07997 323.511348,147.693268 L327.616822,134.293705 C327.616822,134.293705 327.616822,105.433108 318.61636,108.672562"/>
    <path stroke="#004F82" stroke-linecap="round" stroke-linejoin="round" d="M356.511824,89.2297297 C358.745062,106.193234 359.936122,110.997058 353.236407,121.655543 C349.960991,126.909726 343.856806,133.364865 343.856806,133.364865 M345.494514,96.1352271 C345.494514,96.1352271 345.345632,103.190844 345.494514,106.343354 M342.963511,109.495863 L348.323283,108.745266 M341.028037,111.747656 L344.005689,113.248851"/>
    <path stroke="#FFF" stroke-linecap="round" stroke-linejoin="round" d="M336.238318,122.810811 L349.649533,138.162162"/>
    <path stroke="#004F82" stroke-linecap="round" stroke-linejoin="round" d="M341.405271,113.008867 L336.228346,122.810811 M342.817159,56.6099931 L327.286385,52.8400149 M327.757014,50.2764297 L326.658879,55.7051983 M333.718322,46.0540541 C334.032075,51.1812244 342.974036,52.8400149 345.797813,56.459194 C348.62159,60.0783731 347.523455,63.2451548 347.523455,63.2451548"/>
    <path stroke="#004F82" stroke-linecap="round" stroke-linejoin="round" d="M337.196262,46.7389827 C339.800158,42.8462387 350.368913,43.1576582 353.738661,48.7632096 C357.874261,55.7701488 352.97281,66.2027027 352.97281,66.2027027"/>
    <polyline stroke="#00A9DE" stroke-linecap="round" stroke-linejoin="round" points="353.481 69.081 338.154 74.439 339.493 79.635"/>
    <path stroke="#004F82" stroke-linecap="round" stroke-linejoin="round" d="M333.006152,49.8918919 C331.590525,51.0803836 330.804066,52.5659983 330.804066,54.3487358 C330.804066,57.6170881 328.287396,58.6570183 328.601979,60.2911944 C328.759271,61.4796861 330.961358,61.3311247 331.433233,62.3710549 C333.163444,66.0850915 334.893654,68.462075 339.455119,67.8678291 L341.028037,72.9189189"/>
    <path fill="#004F84" fill-rule="nonzero" d="M320.432243,82.5135135 L318.037383,82.5135135 L318.037383,80.1148649 C318.037383,78.7822823 319.101765,77.7162162 320.432243,77.7162162 C321.762721,77.7162162 322.827103,78.7822823 322.827103,80.1148649 C322.827103,81.4474474 321.762721,82.5135135 320.432243,82.5135135"/>
    <path fill="#FFF" fill-rule="nonzero" d="M306.582533,80.5945946 C304.653153,81.5083655 304.059497,82.8790219 303.762669,84.7065637 C303.317428,88.0570571 300.794393,88.6662377 300.794393,90.3414843 C300.794393,91.5598456 302.872186,91.7121407 303.169014,92.9305019 C304.207911,96.8901759 307.176188,99.7837838 311.331776,99.7837838"/>
    <path stroke="#004F82" stroke-linecap="round" stroke-linejoin="round" d="M306.582533,80.5945946 C304.653153,81.5083655 304.059497,82.8790219 303.762669,84.7065637 C303.317428,88.0570571 300.794393,88.6662377 300.794393,90.3414843 C300.794393,91.5598456 302.872186,91.7121407 303.169014,92.9305019 C304.207911,96.8901759 307.176188,99.7837838 311.331776,99.7837838"/>
    <path stroke="#004F82" stroke-linecap="round" stroke-linejoin="round" stroke-width="1.105" d="M306.542056,94.9864865 C305.6578,95.4662162 304.626168,95.4662162 304.626168,95.4662162"/>
    <path fill="#004F84" fill-rule="nonzero" d="M305.654206,79.6351351 C304.719626,81.320672 303.668224,83.784149 303.668224,83.784149 L308.457944,84.4324324 L308.224299,81.320672 L305.654206,79.6351351"/>
    <path fill="#004F82" fill-rule="nonzero" d="M305.009346,91.1486486 C305.200935,91.1486486 305.392523,90.8927928 305.392523,90.6369369 L305.392523,89.7414414 C305.392523,89.4855856 305.200935,89.2297297 305.009346,89.2297297 C304.817757,89.2297297 304.626168,89.4855856 304.626168,89.7414414 L304.626168,90.6369369 C304.626168,90.8927928 304.817757,91.1486486 305.009346,91.1486486"/>
  </g>
</svg>
