<?xml version="1.0" encoding="utf-8"?>
<!-- Generator: Adobe Illustrator 21.0.2, SVG Export Plug-In . SVG Version: 6.00 Build 0)  -->
<svg version="1.1" id="Layer_1" xmlns="http://www.w3.org/2000/svg" xmlns:xlink="http://www.w3.org/1999/xlink" x="0px" y="0px"
	 viewBox="0 0 388 197" style="enable-background:new 0 0 388 197;" xml:space="preserve">
<style type="text/css">
	.st0{fill:none;}
	.st1{fill:#F3F6F8;}
	.st2{fill:#E1EFF9;}
	.st3{fill:#E9EFF4;}
	.st4{opacity:0.5;fill:#C8D7E2;enable-background:new    ;}
	.st5{fill:#0084C0;}
	.st6{fill:#004F81;}
	.st7{fill:#C8D7E2;}
	.st8{fill:#005081;}
	.st9{fill:#FFFFFF;}
	.st10{fill:#C7D6E1;}
	.st11{fill:#00A9DE;}
	.st12{fill:#A6C1D1;}
	.st13{fill:#74DCFC;}
	.st14{fill:#004F82;}
	.st15{fill:#C2F4FF;}
</style>
<title>5 Social links</title>
<desc>Created with Sketch.</desc>
<g id="Page-1">
	<g id="_x35_-Social-links">
		<g id="_x35_-displayLinks-socialAccount" transform="translate(25.000000, 29.000000)">
			<path id="Shape" class="st0" d="M66.8,234.7L66.8,234.7c-1.6-5.2-4.7-10.4-6.6-20.2c-1.2,0.1-2.5,0.1-3.7,0.2
				c-1.6,6.7-3.3,14-4.1,18.9c0.1-0.2,0.3-0.3,0.5-0.2c0,0,0.1,0,0.1,0.1c1.9,1.6,3.5,2.8,4.9,3.8c2.9,0,5.9-0.1,8.8-0.1
				C66.7,236.3,66.7,235.5,66.8,234.7z"/>
			<path id="Shape_1_" class="st0" d="M45.3,233.7c0-5.8-1.7-14.1,0.1-19.5c-2.4-0.3-4.7-0.8-7-1.6c0.1,0.4,0.2,0.8,0.2,1.3
				c0.4,2.6,0.8,5.3,1.1,7.9c0.5,5.2,1.2,10.4,1.3,15.7l4.2-0.1C44.8,236.5,44.8,235.3,45.3,233.7z"/>
			<path id="Shape_2_" class="st0" d="M244.7,227c-0.3-2.9,0.1-5.8,0.8-8.5c0.7-2.6,1.6-5.1,2.9-7.5c-1-2-1.9-4-2.9-6H215
				c-1.1,9.6-2.4,22-1.4,23.7c0.8,1.5,7.6,2.9,10.2,4.2c2.4,1.2,0.6,2.4,0.6,2.4l-19.2-0.3c0,0.4-0.3,0.8-0.7,0.8h-0.1
				c-0.4,0-0.8-0.3-0.8-0.7c0-0.2-2.1-14.1-4-30.1h-9.9c-0.7,8.9-2.1,21.7-4.4,30.9l-22.9,0.3c0,0-1.8-1.2,0.6-2.4
				c2.5-1.3,9.4-2.7,10.2-4.2c0.3-0.8,0.4-1.6,0.5-2.4c-0.1-0.2-0.2-0.4-0.1-0.6s0.2-0.5,0.2-0.8c0.2-3.1,0.3-7.7,0.4-12.3
				c-0.1-2.2-0.3-4.6-0.4-6.9c0-0.5-0.1-1-0.1-1.5H78.9c0,1.3-0.2,2.6-0.3,4l-0.1,0.6c-0.1,0.8-0.7,1.4-2,2
				c-0.1,0.1-0.3,0.1-0.4,0.2c0.1,0.7,0.2,1.4,0.3,2.1c0.4,2.6,0.8,5.3,1.1,7.9c0.5,4.8,1.1,9.6,1.3,14.5c0.5,0.3,1,0.5,1.4,0.8
				l12.6-0.1l86.5-0.2c24.3,0.1,48.7,0.2,73.1,0.2c-1.4-0.4-2.7-1.1-3.8-2C246.3,232.9,245,229.9,244.7,227z"/>
			<path id="Shape_3_" class="st0" d="M74.9,214.1c0-0.6-0.1-1.2-0.2-1.8c-0.7,0.2-1.4,0.4-2.2,0.6l2,20.9c0.1,0,0.3,0,0.4,0
				c1.1,0.7,2.1,1.3,3,1.8c-0.9-4.5-1.4-9.1-2.1-13.7C75.4,219.4,75.1,216.7,74.9,214.1z"/>
			<path id="Shape_4_" class="st0" d="M61.3,108.3c-1.6,3.9-4.3,6.5-7.8,7.5c-1.3,0.6-2.8,0.9-4.8,0.6c0,0,0-0.1,0-0.2
				c-0.1,0-0.1,0-0.2-0.1c-1.4,1.7-2.2,3.8-2.4,6.1l0.8,1.4l1.6,3c0.4,0.6,0.8,1.3,1.1,2.1c0.1,0.1,0.1,0.3,0.2,0.4
				c0.1,0.1,0.1,0.2,0.2,0.4c0,0.2,0.1,0.2,0.1,0.2c1.1,2,2,4.1,2.6,6.2c0,0.2,0,0.3-0.1,0.5c-0.4,0.7-0.9,1.3-1.5,1.9
				c0.2,0.5,0.3,1.1,0.4,1.6c1.3-1.2,2.4-2.5,3.3-4.1c0.9-1.6,1.9-3,3-4.5l-1.6-0.6c-0.7-0.2-1.1-1-0.8-1.7l0,0l4.4-12.4
				c0.2-0.7,1-1.1,1.7-0.8l1.6,0.6v-9.2l-0.4,0.2C62.1,107.6,61.5,107.8,61.3,108.3z"/>
			<path id="Shape_5_" class="st0" d="M49.4,160.2c0.3,5.3,1.7,12.1,5.9,14.6c0.8,0.2,1.6,0.4,2.4,0.7c0.9,0.3,1.7,0.6,2.7,0.9
				c1,0.3,1.9,0.6,2.8,1v-40C61.1,142.8,54.9,156,49.4,160.2z"/>
			<path id="Shape_6_" class="st0" d="M250,210.6c0.1,0.2,0.1,0.5,0,0.8l0,0c-1.2,2.4-2.1,4.9-2.7,7.5c-0.6,2.6-1,5.3-0.6,7.8
				s1.4,4.9,3.3,6.5c1.9,1.5,4.4,2.1,6.9,2.2c2.5,0,5-0.6,6.9-2.2c1.9-1.5,3-3.9,3.3-6.5c0.3-2.5,0-5.3-0.6-7.8
				c-0.6-2.6-1.6-5.1-2.7-7.5l0,0c-0.1-0.2-0.1-0.5,0-0.8l3-5.6H247C248.1,206.9,249,208.7,250,210.6z"/>
			<path id="Shape_7_" class="st1" d="M166.2,39.3h-1.6c4.4,11.5-0.5,24.5-11.4,30.2c0.9,2.1,1.4,4.5,1.4,6.8c0,0.1,0,0.2,0,0.2
				l1.1-0.8l9.4,14.6c3.9-4.1,8.1-7.8,12.6-11.3l0,0c1.1-1.1,2.9-1.9,5.3-2.9c1-0.4,2.6-0.6,4.7-0.8v-0.1c-0.2-0.2-0.3-0.3-0.3-0.5
				l-0.5-4c-4.9-1.1-6-4.8-6.9-8.9c0-0.1,0-0.2,0-0.2c-0.3,0.1-0.6,0.2-0.9,0.2c-0.4,0-0.8-0.1-1.1-0.3c-1.4-0.8-1.6-3-1.4-4.6
				c0.3-2,1.6-3.2,2.7-3.4c0.3-0.1,0.7,0,1,0.1c0.1-0.5,0.3-0.9,0.5-1.4c0-0.2,0.1-0.5,0.2-0.7c1.1-3.2,2.5-5.3,4.1-6.6
				c0.3-1.6,1.1-2.9,2.6-3.5c11.9-5.2,25.5,11.8,15.8,17.7c0,0.2,0,0.3,0,0.5c0,0.2-0.1,0.4-0.2,0.5c-0.6,3.8-2.3,7.2-5,8.6v7
				c3.6,0.3,6.7,0.7,7.8,1.1c0.2,0.1,0.4,0.2,0.6,0.2c7.6-1.9,17.4-10.9,22.5-18.4c0,0,2.5-4.5,5-8.1c0.5-1,0.9-1.8,1.3-2.5
				c-2.6-2.4-4.8-5.3-6.2-8.6H224c-0.9,0-1.7-0.8-1.7-1.7l0,0h-4.9c0,0.9-0.8,1.7-1.7,1.7l0,0h-8.2c-0.9,0-1.7-0.8-1.7-1.7l0,0H201
				c0,0.9-0.8,1.7-1.7,1.7l0,0H191c-0.9,0-1.7-0.8-1.7-1.7l0,0h-4.9c0,0.9-0.8,1.7-1.7,1.7l0,0h-8.3c-0.9,0-1.7-0.8-1.7-1.7l0,0H168
				C167.8,38.5,167.1,39.3,166.2,39.3z"/>
			<path id="Shape_8_" class="st1" d="M64.8,105.2c-0.1,1.1-1,1.5-1.7,1.9v9.2l4.4,1.6c0.7,0.2,1.1,1,0.8,1.7l0,0l-1.7,4.9
				c0.2,0.1,0.4,0.3,0.6,0.5c0.9,1.1,0.7,3,0.4,4.3c-0.6,2.7-2.4,6.2-4.2,7.4c-0.1,0.2-0.2,0.5-0.3,0.7v40c3.4,1.3,6.5,3.3,9.1,5.9
				c1.9,1.6,3.4,3.5,4.5,5.6c0.4,1,0.7,1.9,0.9,3l0.5,2.8c0,0.2,0.1,0.4,0.1,0.6c0.1,0.3,0.2,0.7,0.2,1.1c0.2,0.3,0.3,0.6,0.5,0.9
				c0.8,2,0.8,4.2,0.1,6.2c0,0.5,0,1,0,1.6h94.6c-0.2-3.2-0.4-6.2-0.4-8.8c-0.6-0.2-1.3-0.5-1.8-0.8c-0.7-0.5-1.1-1.3-1.2-2.1
				c0-0.8-0.2-1.8-0.3-3.2c-0.8-8.5-2.5-28.5,1.1-51.3c0-0.2,0.1-0.3,0.2-0.4c0.1-0.5,0.1-1.1,0.2-1.6c0.3-2,1.5-3.8,3.3-4.8
				c-0.2-0.2-0.3-0.4-0.3-0.6c0-0.5,0.4-0.8,0.8-0.8l0,0h1.7l-0.9-25.5l-6.6,3c-0.1,0-0.2,0.1-0.3,0.1c-0.3,0-0.6-0.2-0.8-0.5
				c0-0.1,0-0.2-0.1-0.3c-0.9,0.2-1.8,0.3-2.7,0.3c-11.1,0.6-18.3-25.8-18.3-25.8l0.6-0.4l-1-0.9c-0.1,0-0.2,0.1-0.3,0.1
				c-0.1,0-0.3,0-0.4-0.1c-4-2.1-5.6-5.1-5.8-8.1c-13.4-0.8-23.6-12.3-22.8-25.7c0.2-3.1,1-6.1,2.3-8.9h-1.4c0,0.9-0.8,1.7-1.7,1.7
				l0,0h-8.3c-0.9,0-1.7-0.8-1.7-1.7l0,0h-4.9c0,0.9-0.8,1.7-1.7,1.7l0,0h-8.3c-0.9,0-1.7-0.8-1.7-1.7l0,0h-4.9
				c0,0.9-0.8,1.7-1.7,1.7l0,0h-8.3c-0.9,0-1.7-0.8-1.7-1.7h-4.9c0,0.9-0.8,1.7-1.7,1.7h-4.1v62.1c0.2,0.3,0.4,0.5,0.5,0.8
				C64.3,103.2,64.9,104.1,64.8,105.2z M82.1,128.5l68.9,0.6l-0.1,55.6l-69,1L82.1,128.5z"/>
			<path id="Shape_9_" class="st1" d="M179.7,55.2c-0.1,0-0.2-0.1-0.3-0.2c-0.2,0-0.3,0.1-0.5,0.2c-0.3,0.3-0.6,0.7-0.8,1.1l1.3,0.4
				C179.5,56.4,179.5,55.8,179.7,55.2z"/>
			<path id="Shape_10_" class="st1" d="M177.9,58.1c0,1,0.3,1.8,0.7,1.9c0.2,0.2,0.6,0,0.9-0.2c0-0.4-0.1-0.8-0.1-1.3L177.9,58.1z"
				/>
			<path id="Shape_11_" class="st1" d="M289.9,39.3c-0.9,0-1.7-0.8-1.7-1.7l0,0h-4.9c0,0.9-0.8,1.7-1.7,1.7l0,0h-4.5
				c-5.1,11.4-17.5,17.6-29.7,14.9c-3,5.3-7.5,7.4-9.7,7.9l1.4,1.4c0,0-12.2,22.1-26.1,29.1l0.9,37.4h0.9c0,0,0.1,0,0.2,0
				c0.1,0,0.1,0,0.2,0l0,0c0.2,0.1,0.3,0.2,0.4,0.4c0,0,0,0.1,0,0.1c0,0,0,0.1,0,0.2l1.8,22.1c0,0.5-0.3,0.9-0.8,0.9l0.2,2.1
				l1.1-0.1c0.5,0,0.9,0.3,0.9,0.8c0,0.4-0.3,0.8-0.7,0.9l-1.1,0.1l0.3,3.7c0.5-0.1,0.9,0.2,1,0.7c0.1,0.4-0.2,0.8-0.6,0.9l-0.2,0
				l0.3,3h0c0.5,0,0.8,0.3,0.9,0.7c0,0,0,0,0,0.1l1.5,26.3c0,0.4-0.3,0.8-0.7,0.9c-0.4,0.1-1.6,0.2-3.1,0.4
				c-0.3,1.9-0.8,5.9-1.3,10.6h30.4c-0.2-0.3-0.3-0.7-0.5-1v0c-0.2-0.3,0-0.7,0.3-0.9c0.1,0,0.2-0.1,0.3-0.1c3,0.1,5.9,0.2,8.9,0.3
				l-0.4-4.7l0,0c-0.9,0.6-1.9,1-2.9,1.1c-2,0.2-4.1-0.4-5.6-1.8l0.1-0.2c-0.7-0.3-1.2-1-1.2-1.7c0-0.4,0-0.8,0.2-1.2
				c0.2-0.3,0.4-0.6,0.7-0.9c1-1,2.2-1.7,3.6-1.9c1.4-0.2,2.8,0,4.1,0.6c0.2,0.1,0.4,0.2,0.5,0.3c-0.1-1-0.3-1.9-0.5-2.9
				c-0.2,0.1-0.3,0.2-0.4,0.4c-0.8,0.7-1.8,1.1-2.8,1.3c-2,0.4-4.1,0-5.7-1.3l0.1-0.2c-0.7-0.3-1.3-0.9-1.4-1.6
				c-0.1-0.4,0-0.8,0.1-1.2c0.2-0.3,0.3-0.7,0.6-1c0.9-1.1,2.1-1.9,3.5-2.2c0.3-0.1,0.6-0.1,0.9-0.2h-1.9c-1.7,0.6-3.5,0.6-5.2,0
				h-13.6v-46.3c0-19.1,15.4-34.5,34.5-34.5l0,0h18.2v44.9c0.2,0.1,0.4,0.1,0.6,0.2c0.3,0.1,0.6,0.4,0.6,0.7l0,0l1,7.8l1.8-6.4l0,0
				c0.1-0.5,0.6-0.7,1-0.6c0.1,0,0.2,0.1,0.3,0.2c3.8,3.4,6.8,7.6,8.8,12.3V39.3H289.9L289.9,39.3z"/>
			<path id="Shape_12_" class="st1" d="M255.3,184.6c-0.1,0.1-0.1,0.3-0.2,0.4c0.3,0.7,0.5,1.4,0.7,2.2c1.3,0,2.7-0.4,3.8-1.1
				c0.7-0.5,1.3-1.1,1.7-1.8h-5.7C255.5,184.4,255.4,184.5,255.3,184.6z"/>
			<path id="Shape_13_" class="st1" d="M257.4,196.3c0.5,0.2,0.9,0.3,1.4,0.4c1,0.2,1.9,0.1,2.8-0.1c0.9-0.2,1.7-0.6,2.4-1.2
				c0.3-0.3,0.6-0.6,0.9-1c0.1-0.2,0.2-0.4,0.1-0.6s-0.2-0.4-0.4-0.5c-0.4-0.2-0.8-0.4-1.3-0.5c-0.9-0.3-1.8-0.3-2.7-0.1
				c-0.9,0.2-1.7,0.6-2.5,1.1c-0.4,0.3-0.8,0.6-1.1,1c-0.1,0.1-0.2,0.2-0.3,0.3c0,0.3,0,0.6,0,1C257,196.1,257.2,196.2,257.4,196.3z
				"/>
			<path id="Shape_14_" class="st1" d="M195.2,194.4c-0.2-0.2-0.3-0.3-0.5-0.6l-2.7,0.4c0.1,0.4-0.2,0.8-0.6,1
				c-0.2,0-0.6,0.1-1.1,0.2c-0.1,1.8-0.3,5.3-0.7,9.6h9.9c-0.4-3.2-0.7-6.4-1.1-9.7C197,195.1,195.8,194.9,195.2,194.4z"/>
			<path id="Shape_15_" class="st1" d="M255.5,204.1L255.5,204.1c-0.1,0-0.2,0-0.3-0.1c-2.9,0.1-5.7,0.2-8.5,0.3
				c0.1,0.2,0.2,0.5,0.3,0.7h19.7l0.3-0.6C263.2,204.3,259.3,204.2,255.5,204.1z"/>
			<path id="Shape_16_" class="st1" d="M247.3,186.4c-1,0.2-2,0.7-2.8,1.3c-0.2,0.1-0.3,0.3-0.5,0.5c-0.1,0.2-0.2,0.3-0.2,0.6
				c-0.1,0.5,0.1,1,0.5,1.3l0.1-0.2c1.6,0.7,3.3,0.8,4.9,0.2c0.8-0.3,1.4-0.6,2-1.2c0.4-0.3,0.7-0.7,1-1.1c-0.6-0.5-1.3-0.9-2-1.1
				C249.4,186.3,248.4,186.2,247.3,186.4z"/>
			<path id="Shape_17_" class="st1" d="M252.1,194.7c-1.9-1-4.1-0.8-5.8,0.5c-0.2,0.1-0.4,0.3-0.5,0.4c-0.2,0.2-0.2,0.3-0.3,0.5
				c-0.1,0.5,0,1,0.3,1.4l0.1-0.2c1.5,0.8,3.2,1,4.9,0.6c0.8-0.2,1.5-0.5,2.1-1c0.3-0.3,0.6-0.5,1-0.8c0-0.1,0-0.2,0-0.4
				C253.3,195.4,252.7,195,252.1,194.7z"/>
			<path id="Shape_18_" class="st2" d="M67.2,35.9h-2.5v-2.5c0-0.9-0.8-1.7-1.7-1.7l0,0c-0.9,0-1.7,0.8-1.7,1.7v4.2
				c0,0.9,0.8,1.7,1.7,1.7h4.2c0.9,0,1.7-0.8,1.7-1.7l0,0C68.9,36.7,68.1,35.9,67.2,35.9z"/>
			<path id="Shape_19_" class="st2" d="M63,26.6L63,26.6c0.9,0,1.7-0.8,1.7-1.7v-8.6c0-0.9-0.7-1.6-1.6-1.7c0,0,0,0-0.1,0
				c-0.9,0-1.7,0.8-1.7,1.7v8.5C61.3,25.8,62.1,26.5,63,26.6z"/>
			<path id="Shape_20_" class="st2" d="M73.4,2.4c-0.3-0.9-1.3-1.3-2.2-1l0,0c-3,1.1-5.6,3.2-7.3,5.9c-0.5,0.8-0.3,1.8,0.5,2.3l0,0
				c0,0,0.1,0,0.1,0c0.8,0.5,1.7,0.2,2.2-0.5c1.4-2.1,3.4-3.7,5.7-4.6c0.8-0.3,1.3-1.2,1-2.1C73.4,2.4,73.4,2.4,73.4,2.4z"/>
			<path id="Shape_21_" class="st2" d="M294,14.6C294,14.6,294,14.6,294,14.6c-1,0-1.7,0.8-1.7,1.7v8.6c0,0.9,0.8,1.7,1.7,1.7l0,0
				l0,0c0.9,0,1.7-0.8,1.7-1.7l0,0v-8.5C295.7,15.3,295,14.6,294,14.6L294,14.6z"/>
			<path id="Shape_22_" class="st2" d="M123,0.4h-8.6c-0.9,0-1.7,0.8-1.7,1.7l0,0l0,0c0,0.9,0.8,1.7,1.7,1.7l0,0h8.6
				c0.9,0,1.7-0.8,1.7-1.7l0,0l0,0C124.7,1.1,123.9,0.4,123,0.4L123,0.4z"/>
			<path id="Shape_23_" class="st2" d="M259.7,0.4h-8.6c-0.9,0-1.7,0.8-1.7,1.7l0,0l0,0c0,0.1,0,0.2,0,0.3c3.8-0.6,7.7-0.2,11.4,0.9
				c0.3-0.3,0.5-0.7,0.5-1.2l0,0C261.3,1.1,260.6,0.4,259.7,0.4L259.7,0.4z"/>
			<path id="Shape_24_" class="st2" d="M90.5,2.1c0-0.9-0.8-1.7-1.7-1.7l0,0h-8.6c-0.9,0-1.7,0.8-1.7,1.7l0,0l0,0
				c0,0.9,0.8,1.7,1.7,1.7l0,0h8.6C89.7,3.7,90.5,3,90.5,2.1L90.5,2.1z"/>
			<path id="Shape_25_" class="st2" d="M140.1,0.4h-8.6c-0.9,0-1.7,0.8-1.7,1.7l0,0l0,0c0,0.9,0.8,1.7,1.7,1.7l0,0h8.6
				c0.9,0,1.7-0.8,1.7-1.7l0,0l0,0C141.7,1.1,141,0.4,140.1,0.4L140.1,0.4z"/>
			<path id="Shape_26_" class="st2" d="M157.1,0.4h-8.6c-0.9,0-1.7,0.7-1.7,1.7l0,0l0,0c0,0.9,0.8,1.7,1.7,1.7l0,0h8.6
				c0.9,0,1.7-0.8,1.7-1.7l0,0l0,0C158.8,1.1,158.1,0.4,157.1,0.4z"/>
			<path id="Shape_27_" class="st2" d="M242.6,0.4H234c-0.9,0-1.7,0.8-1.7,1.7l0,0l0,0c0,0.9,0.8,1.7,1.7,1.7l0,0h8.6
				c0.9,0,1.7-0.8,1.7-1.7l0,0l0,0C244.2,1.1,243.5,0.4,242.6,0.4L242.6,0.4z"/>
			<path id="Shape_28_" class="st2" d="M199.9,3.7h8.6c0.9,0,1.7-0.8,1.7-1.7l0,0l0,0c0-0.9-0.8-1.7-1.7-1.7l0,0h-8.6
				c-0.9,0-1.7,0.8-1.7,1.7l0,0l0,0C198.2,3,198.9,3.7,199.9,3.7L199.9,3.7z"/>
			<path id="Shape_29_" class="st2" d="M278.4,2.1L278.4,2.1c0-0.9-0.8-1.7-1.7-1.7l0,0h-8.6c-0.9,0-1.7,0.8-1.7,1.7l0,0l0,0
				c0,0.9,0.8,1.7,1.7,1.7l0,0h8.6C277.6,3.7,278.4,3,278.4,2.1L278.4,2.1z"/>
			<path id="Shape_30_" class="st2" d="M290.4,9.1c0.5,0.7,1.4,1,2.2,0.5c0,0,0.1,0,0.1,0c0.8-0.5,1-1.6,0.5-2.3l0,0
				c-1.8-2.7-4.4-4.7-7.4-5.9c-0.9-0.3-1.8,0.1-2.2,1c0,0,0,0.1,0,0.1c-0.3,0.8,0.2,1.8,1,2.1C286.9,5.4,288.9,7,290.4,9.1z"/>
			<path id="Shape_31_" class="st2" d="M107.6,2.1L107.6,2.1c0-0.9-0.8-1.7-1.7-1.7l0,0h-8.6c-0.9,0-1.7,0.8-1.7,1.7l0,0l0,0
				c0,0.9,0.8,1.7,1.7,1.7l0,0h8.6C106.8,3.7,107.6,3,107.6,2.1L107.6,2.1z"/>
			<path id="Shape_32_" class="st2" d="M216.9,3.7h8.6c0.9,0,1.7-0.7,1.7-1.7c0,0,0,0,0,0l0,0c0-0.9-0.8-1.7-1.7-1.7l0,0h-8.6
				c-0.9,0-1.7,0.8-1.7,1.7l0,0l0,0C215.3,3,216,3.7,216.9,3.7z"/>
			<path id="Shape_33_" class="st2" d="M165.7,3.7h8.5c0.9,0,1.7-0.8,1.7-1.7l0,0l0,0c0-0.9-0.8-1.7-1.7-1.7l0,0h-8.6
				c-0.9,0-1.7,0.8-1.7,1.7l0,0l0,0C164,3,164.7,3.7,165.7,3.7L165.7,3.7z"/>
			<path id="Shape_34_" class="st2" d="M182.8,3.7h8.6c0.9,0,1.7-0.8,1.7-1.7l0,0l0,0c0-0.9-0.8-1.7-1.7-1.7l0,0h-8.6
				c-0.9,0-1.7,0.8-1.7,1.7l0,0l0,0C181.1,3,181.8,3.7,182.8,3.7L182.8,3.7z"/>
			<path id="Shape_35_" class="st2" d="M294,31.7L294,31.7c-0.9,0-1.7,0.8-1.7,1.7l0,0v2.5h-2.5c-0.9,0-1.7,0.8-1.7,1.7l0,0l0,0
				c0,0.9,0.8,1.7,1.7,1.7l0,0h4.2c0.9,0,1.7-0.8,1.7-1.7l0,0v-4.2C295.7,32.5,295,31.7,294,31.7L294,31.7z"/>
			<path id="Shape_36_" class="st2" d="M199.1,35.9h-8.3c-0.9,0-1.7,0.8-1.7,1.7l0,0l0,0c0,0.9,0.8,1.7,1.7,1.7l0,0h8.3
				c0.9,0,1.7-0.8,1.7-1.7l0,0l0,0C200.8,36.7,200,35.9,199.1,35.9L199.1,35.9z"/>
			<path id="Shape_37_" class="st2" d="M100.2,35.9h-8.3c-0.9,0-1.7,0.8-1.7,1.7l0,0l0,0c0,0.9,0.8,1.7,1.7,1.7l0,0h8.3
				c0.9,0,1.7-0.8,1.7-1.7l0,0l0,0C101.9,36.7,101.1,35.9,100.2,35.9L100.2,35.9z"/>
			<path id="Shape_38_" class="st2" d="M166.2,35.9H163c0.3,0.5,0.6,1.1,0.9,1.7c0.3,0.6,0.5,1.1,0.7,1.7h1.6c0.9,0,1.7-0.8,1.7-1.7
				l0,0l0,0C167.8,36.7,167.1,35.9,166.2,35.9L166.2,35.9z"/>
			<path id="Shape_39_" class="st2" d="M83.7,35.9h-8.3c-0.9,0-1.7,0.8-1.7,1.7l0,0c0,0.9,0.8,1.7,1.7,1.7h8.3
				c0.9,0,1.7-0.8,1.7-1.7l0,0l0,0C85.4,36.7,84.6,35.9,83.7,35.9L83.7,35.9z"/>
			<path id="Shape_40_" class="st2" d="M116.7,35.9h-8.3c-0.9,0-1.7,0.8-1.7,1.7l0,0l0,0c0,0.9,0.8,1.7,1.7,1.7l0,0h8.3
				c0.9,0,1.7-0.8,1.7-1.7l0,0l0,0C118.3,36.7,117.6,35.9,116.7,35.9L116.7,35.9z"/>
			<path id="Shape_41_" class="st2" d="M182.7,35.9h-8.3c-0.9,0-1.7,0.8-1.7,1.7l0,0l0,0c0,0.9,0.8,1.7,1.7,1.7l0,0h8.3
				c0.9,0,1.7-0.8,1.7-1.7l0,0l0,0C184.3,36.7,183.6,35.9,182.7,35.9L182.7,35.9z"/>
			<path id="Shape_42_" class="st2" d="M215.6,35.9h-8.3c-0.9,0-1.7,0.8-1.7,1.7l0,0l0,0c0,0.9,0.8,1.7,1.7,1.7l0,0h8.3
				c0.9,0,1.7-0.8,1.7-1.7l0,0l0,0C217.3,36.7,216.6,35.9,215.6,35.9L215.6,35.9z"/>
			<path id="Shape_43_" class="st2" d="M227.7,35.9h-3.9c-0.9,0-1.7,0.8-1.7,1.7l0,0l0,0c0,0.9,0.8,1.7,1.7,1.7l0,0h5.1
				c-0.3-0.5-0.5-1.1-0.7-1.7C228.1,37,227.9,36.5,227.7,35.9z"/>
			<path id="Shape_44_" class="st2" d="M281.6,35.9h-3.3c-0.2,0.6-0.4,1.1-0.6,1.7c-0.2,0.5-0.4,1.1-0.7,1.7h4.5
				c0.9,0,1.7-0.8,1.7-1.7l0,0l0,0C283.3,36.7,282.6,35.9,281.6,35.9L281.6,35.9z"/>
			<path id="Shape_45_" class="st3" d="M66.8,237.1c-2.9,0-5.9,0.1-8.8,0.1c1.8,1.3,3.1,2.1,3.8,2.8c2.4,0,4.8,0.1,7.2,0.1
				C67.8,239.6,66.9,238.4,66.8,237.1z"/>
			<path id="Shape_46_" class="st3" d="M352.4,237.9c-16.8-0.3-33.5-0.6-50.2-0.7H302v0.2c-1,0-2,0-3-0.2
				c-12.6-0.1-25.2-0.2-37.8-0.3c-1.3,0.4-2.7,0.6-4.1,0.6c0,0,0,0-0.1,0h-0.3c0,0,0,0-0.1,0c-1.4,0-2.9-0.3-4.2-0.7
				c-24.3-0.1-48.7-0.2-73.1-0.2l-86.5,0.2L80.2,237c3.1,1.6,5,2.4,5.1,3.2l7.5,0.1l86.5,0.2c57.7-0.2,115.3-0.1,173-1.2
				c0.4,0,0.6-0.3,0.6-0.7C353,238.2,352.7,237.9,352.4,237.9L352.4,237.9z"/>
			<path id="Shape_47_" class="st3" d="M45.2,237.4l-4.2,0.1c0,0.1,0,0.1,0,0.2c0,0.2-0.2,0.3-0.3,0.3c-0.2,0-0.3-0.1-0.3-0.3
				c0-0.1,0-0.2,0-0.3c-11.3,0.2-22.6,0.4-33.9,0.8c-0.2,0-0.3,0.2-0.3,0.3c0,0.2,0.2,0.3,0.3,0.3c14.2,0.5,28.3,0.7,42.5,0.9
				c-0.7-0.2-1.4-0.5-2-0.8C46.1,238.7,45.5,238.1,45.2,237.4z"/>
			<path id="Shape_48_" class="st3" d="M275.8,164c-0.1,0.1-0.1,0.3,0,0.5c1.3,1.4,2.7,2.7,4.1,4v-1.8c-1.2-1-2.4-1.9-3.7-2.7
				C276.1,163.8,275.9,163.8,275.8,164z"/>
			<polygon id="Shape_49_" class="st3" points="285.5,194.7 286.1,194.7 286.3,194 			"/>
			<path id="Shape_50_" class="st1" d="M246.7,204.3c2.9-0.1,5.7-0.2,8.5-0.3c0.1,0.1,0.2,0.1,0.3,0.1h0c3.8,0.1,7.7,0.2,11.6,0.3
				l-0.3,0.6h1.7l0.5-1v0c0.2-0.3,0-0.8-0.3-1c-0.1,0-0.2-0.1-0.3-0.1c-3.9,0-7.8,0.2-11.7,0.3c0.1-1.1,0.2-2.3,0.2-3.3
				c0-1,0-1.8,0-2.8l0.1,0.1c0.5,0.3,1,0.6,1.6,0.8c1.1,0.4,2.3,0.5,3.5,0.3c1.2-0.2,2.4-0.7,3.3-1.4c0.5-0.4,1-0.8,1.3-1.3
				c0.9-1.3,0.6-3-0.6-4c-0.2-0.1-0.3-0.2-0.5-0.3c-0.5-0.3-1.1-0.5-1.7-0.6c-1.2-0.3-2.4-0.3-3.7,0c-1.2,0.3-2.2,1-3,1.9
				c-0.2,0.2-0.3,0.4-0.4,0.6c-0.1-1.6-0.3-3.2-0.6-4.7c0,0,0-0.1,0-0.1c0.3,0,0.6,0.1,1,0.1c1.2,0,2.4-0.3,3.4-0.8
				c1.1-0.6,2-1.4,2.7-2.5c0.2-0.3,0.3-0.6,0.5-0.9h-2.4c-0.4,0.7-1,1.3-1.7,1.8c-1.1,0.8-2.4,1.1-3.8,1.1c-0.2-0.7-0.4-1.5-0.7-2.2
				c0.1-0.1,0.1-0.3,0.2-0.4c0.1-0.1,0.2-0.2,0.3-0.3h-4.6c0.1,0.2,0.2,0.3,0.2,0.5l-0.2-0.1c-0.6-0.2-1.1-0.3-1.7-0.4h-1.5
				c-0.3,0-0.6,0.1-0.9,0.2c-1.4,0.3-2.6,1.1-3.5,2.2c-0.3,0.3-0.5,0.6-0.6,1c-0.2,0.4-0.2,0.8-0.1,1.2c0.1,0.8,0.6,1.4,1.4,1.6
				l-0.1,0.2c1.6,1.2,3.7,1.7,5.7,1.3c1-0.2,2-0.7,2.8-1.3c0.2-0.1,0.3-0.2,0.4-0.4c0.2,1,0.4,1.9,0.5,2.9c-0.2-0.1-0.3-0.2-0.5-0.3
				c-1.3-0.6-2.7-0.8-4.1-0.6c-1.4,0.2-2.7,0.9-3.6,1.9c-0.3,0.3-0.5,0.6-0.7,0.9c-0.2,0.4-0.2,0.8-0.2,1.2c0.1,0.8,0.5,1.4,1.2,1.7
				l-0.1,0.2c1.5,1.3,3.6,2,5.6,1.8c1.1-0.1,2.1-0.5,2.9-1.1l0,0l0.4,4.7c-3-0.1-5.9-0.2-8.9-0.3c-0.1,0-0.2,0-0.3,0.1
				c-0.3,0.2-0.5,0.6-0.3,0.9v0c0.2,0.3,0.3,0.7,0.5,1h1.6C246.9,204.8,246.8,204.6,246.7,204.3z M257,194.7c0.3-0.3,0.7-0.7,1.1-1
				c0.7-0.6,1.6-1,2.5-1.1c0.9-0.2,1.8-0.1,2.7,0.1c0.5,0.1,0.9,0.3,1.3,0.5c0.2,0.1,0.4,0.3,0.4,0.5c0.1,0.2,0,0.5-0.1,0.6
				c-0.3,0.3-0.6,0.7-0.9,1c-0.7,0.6-1.5,1-2.4,1.2c-0.9,0.2-1.9,0.3-2.8,0.1c-0.5-0.1-1-0.2-1.4-0.4c-0.2-0.1-0.4-0.2-0.6-0.3
				c0-0.3,0-0.6,0-1C256.8,194.9,257,194.8,257,194.7L257,194.7z M251.3,189c-0.6,0.5-1.3,0.9-2,1.2c-1.6,0.5-3.3,0.5-4.9-0.2
				l-0.1,0.2c-0.4-0.3-0.5-0.8-0.5-1.3c0-0.2,0.1-0.4,0.2-0.6c0.2-0.2,0.3-0.3,0.5-0.5c1.6-1.4,3.8-1.8,5.8-1c0.7,0.3,1.4,0.7,2,1.1
				C252,188.2,251.7,188.7,251.3,189L251.3,189z M252.9,197c-0.6,0.5-1.4,0.8-2.1,1c-1.6,0.4-3.4,0.2-4.9-0.6l-0.1,0.2
				c-0.3-0.4-0.5-0.9-0.3-1.4c0-0.2,0.2-0.4,0.3-0.5c0.2-0.2,0.3-0.3,0.5-0.4c1.7-1.3,4-1.5,5.8-0.5c0.6,0.3,1.2,0.7,1.7,1.1
				c0,0.1,0,0.2,0,0.4C253.5,196.5,253.2,196.8,252.9,197L252.9,197z"/>
			<path id="Shape_51_" class="st3" d="M256.6,237.5C256.7,237.5,256.7,237.5,256.6,237.5h0.4c0,0,0,0,0.1,0c1.4,0,2.8-0.3,4.1-0.6
				l-8.8,0C253.8,237.3,255.2,237.5,256.6,237.5z"/>
			<path id="Shape_52_" class="st4" d="M256.6,237.5C256.7,237.5,256.7,237.5,256.6,237.5h0.4c0,0,0,0,0.1,0c1.4,0,2.8-0.3,4.1-0.6
				l-8.8,0C253.8,237.3,255.2,237.5,256.6,237.5z"/>
			<path id="Shape_53_" class="st3" d="M5.3,237.7l3.5-28.9H8.3c-0.4,1.7-0.7,3.4-1,5.1c-0.4,2.6-0.8,5.3-1.1,7.9
				C5.7,227,5,232.3,4.9,237.6c0,0.2,0.2,0.3,0.3,0.3c0.2,0,0.3-0.1,0.3-0.3c1.2-5.2,1.8-10.5,2.5-15.7c0.3-2.6,0.6-5.3,0.8-7.9
				c0.2-1.8,0.3-3.5,0.3-5.3H8.8L5.3,237.7z"/>
			<path id="Shape_54_" class="st3" d="M60.3,176.4c-0.9-0.3-1.7-0.6-2.7-0.9c-0.8-0.2-1.6-0.5-2.4-0.7c0.7,0.4,1.4,0.7,2.2,0.9
				C58.4,175.9,59.3,176.1,60.3,176.4z"/>
			<path id="Shape_55_" class="st3" d="M78.1,194.6l-0.5-2.8c-0.2-1-0.5-2-0.9-3c-1.1-2.2-2.7-4.1-4.5-5.6c3,3.2,5.1,7.2,6.1,12
				C78.1,195,78.1,194.8,78.1,194.6z"/>
			<path id="Shape_56_" class="st3" d="M35.2,192.4c-0.3-0.1-0.6-0.2-1-0.2h-0.3l0.2,0.8h2.2C36,192.7,35.6,192.6,35.2,192.4z"/>
			<path id="Shape_57_" class="st3" d="M78.6,198.1c0.1,0.5,0.1,1,0.2,1.4c0,0.3,0.1,0.5,0.1,0.8v0c0,0,0,0.1,0,0.1
				c0,1,0.1,1.9,0.1,2.9c0.8-2,0.8-4.2-0.1-6.2c-0.1-0.3-0.3-0.6-0.5-0.9c0.1,0.3,0.1,0.7,0.2,1C78.6,197.6,78.6,197.8,78.6,198.1z"
				/>
			<path id="Shape_58_" class="st3" d="M37.2,193.8c-0.2-0.3-0.5-0.6-0.8-0.8h-2.2l0.2,0.8h1.7H37.2z"/>
			<path id="Shape_59_" class="st3" d="M74.7,212.3c0,0.6,0.1,1.2,0.2,1.8c0.3,2.6,0.5,5.3,0.8,7.9c0.6,4.6,1.2,9.1,2.1,13.7
				l0.5,0.3L75.4,212C75.2,212.1,75,212.2,74.7,212.3z"/>
			<path id="Shape_60_" class="st3" d="M78.4,235.9l0.5,0.3c-0.2-4.9-0.8-9.7-1.3-14.5c-0.3-2.6-0.7-5.3-1.1-7.9
				c-0.1-0.7-0.2-1.4-0.3-2.1c-0.2,0.1-0.5,0.2-0.7,0.3L78.4,235.9z"/>
			<path id="Shape_61_" class="st3" d="M15.6,161.4c-0.7,0-1.3,0.6-1.3,1.3c0,0.6,0.5,1.2,1.1,1.3c0.3-0.8,0.7-1.6,1-2.3
				C16.2,161.5,15.9,161.4,15.6,161.4z"/>
			<path id="Shape_62_" class="st5" d="M49.7,128.6c-0.3-0.7-0.7-1.4-1.1-2.1l0.2,0.4C49.1,127.5,49.5,128,49.7,128.6z"/>
			<path id="Shape_63_" class="st5" d="M22.3,150.7c0.1-0.2,0.3-0.3,0.5-0.3c0-1.4,0-2.8,0.1-4.1h-0.6c-0.1,1.4-0.1,2.9-0.1,4.5
				L22.3,150.7z"/>
			<path id="Shape_64_" class="st5" d="M22.9,146.3c0-0.3,0-0.6,0-1h-0.6c0,0.3,0,0.6,0,0.9L22.9,146.3z"/>
			<path id="Shape_65_" class="st5" d="M23.2,138.8L23.2,138.8c-0.3,1.5-0.5,3.1-0.6,4.8c0.2,0.1,0.4,0.2,0.6,0.3
				c0.2-1.6,0.3-3.1,0.6-4.5C23.4,139.3,23.2,139,23.2,138.8z"/>
			<path id="Shape_66_" class="st5" d="M23,144.6l-0.3-0.2h-0.3c0,0.2,0,0.4,0,0.6c0.2,0.1,0.4,0.2,0.6,0.3
				C22.9,145.2,22.9,144.9,23,144.6z"/>
			<path id="Shape_67_" class="st5" d="M23,144.5c0-0.2,0-0.4,0.1-0.6c-0.2-0.1-0.4-0.2-0.6-0.3c0,0.3-0.1,0.5-0.1,0.8l0.3,0.2H23z"
				/>
			<path id="Shape_68_" class="st5" d="M28.5,125.7c0.1-0.2,0.2-0.3,0.3-0.4c-0.1-0.1-0.1-0.1-0.2-0.2c-0.1,0.2-0.2,0.3-0.3,0.4
				C28.3,125.6,28.5,125.6,28.5,125.7z"/>
			<path id="Shape_69_" class="st5" d="M22.8,150.5l0.5,0c0-1.4,0-2.8,0.1-4.1h-0.6C22.8,147.7,22.7,149,22.8,150.5
				C22.8,150.5,22.8,150.5,22.8,150.5z"/>
			<path id="Shape_70_" class="st5" d="M23.5,145.7c-0.2-0.1-0.4-0.2-0.5-0.3h0c0,0.3,0,0.6,0,1h0.6
				C23.5,146.2,23.5,145.9,23.5,145.7z"/>
			<path id="Shape_71_" class="st5" d="M28.6,125.8c0,0.1,0.1,0.3,0,0.4l-0.4,1.1c0.3-0.6,0.6-1.1,1-1.6c-0.1-0.1-0.2-0.2-0.3-0.3
				L28.6,125.8z"/>
			<path id="Shape_72_" class="st5" d="M24.3,138.9L24.3,138.9c-0.1,0.2-0.3,0.4-0.6,0.4h-0.1l0,0c-0.3,1.4-0.5,3-0.6,4.5
				c0.2,0.1,0.4,0.2,0.6,0.3C23.8,142.3,24,140.6,24.3,138.9z"/>
			<path id="Shape_73_" class="st5" d="M23.5,145.4c0-0.2,0-0.3,0-0.5c-0.2-0.1-0.4-0.2-0.6-0.3c0,0.3,0,0.5-0.1,0.8h0L23.5,145.4z"
				/>
			<path id="Shape_74_" class="st5" d="M23.6,144.1c-0.2-0.1-0.4-0.2-0.6-0.3c0,0.2,0,0.4-0.1,0.6h0.6
				C23.6,144.4,23.6,144.2,23.6,144.1z"/>
			<path id="Shape_75_" class="st5" d="M53.8,174.5c0.5,0.1,1,0.2,1.4,0.3c-4.2-2.6-5.5-9.4-5.9-14.6c-0.2,0.2-0.4,0.3-0.6,0.4
				C49.1,165.4,50.3,171.4,53.8,174.5z"/>
			<path id="Shape_76_" class="st5" d="M36.6,211.1c-0.8-0.5-1.1-1.3-1.2-2.3h-0.6c0,1.2,0.5,2.1,1.5,2.8c0.1,0.1,0.3,0.2,0.4,0.2
				C36.7,211.6,36.7,211.3,36.6,211.1L36.6,211.1z"/>
			<path id="Shape_77_" class="st5" d="M72.4,212.3l0,0.6c0.8-0.2,1.6-0.4,2.2-0.6c0-0.2,0-0.4,0-0.6
				C74,211.9,73.2,212.1,72.4,212.3z"/>
			<path id="Shape_78_" class="st5" d="M60.1,214c-1.1,0.1-2.3,0.1-3.5,0.2l-0.2,0.6c1.3,0,2.5-0.1,3.7-0.2c0-0.2-0.1-0.3-0.1-0.5
				C60.1,214.1,60.1,214,60.1,214z"/>
			<path id="Shape_79_" class="st5" d="M45.6,213.7c-2.5-0.3-4.9-0.8-7.3-1.8c0,0.2,0.1,0.5,0.1,0.6c2.2,0.8,4.6,1.4,7,1.6l0,0
				C45.5,214,45.5,213.8,45.6,213.7z"/>
			<path id="Shape_80_" class="st5" d="M63.1,177.6v-0.2c-0.9-0.3-1.8-0.7-2.8-1C61.2,176.8,62.2,177.2,63.1,177.6z"/>
			<path id="Shape_81_" class="st5" d="M77.9,209.5c-0.1,0.6-0.8,1.1-1.9,1.7c0,0.2,0.1,0.4,0.1,0.6c0.1-0.1,0.3-0.1,0.4-0.2
				c1.3-0.6,1.9-1.3,2-2l0.1-0.6c0.2-1.4,0.2-2.7,0.3-4h-0.6C78.2,207,78.1,208.5,77.9,209.5z"/>
			<path id="Shape_82_" class="st5" d="M36.1,192.2L36.1,192.2c-0.2-0.1-0.4-0.2-0.6-0.3c-0.5-0.2-1.1-0.3-1.6-0.4c0,0,0,0,0,0.1
				l0.1,0.6c0.1,0,0.2,0,0.3,0.1H36.1z"/>
			<path id="Shape_83_" class="st5" d="M78.4,205h0.5c0-0.5,0-1.1,0-1.6c-0.2,0.4-0.3,0.8-0.5,1.2C78.4,204.7,78.4,204.9,78.4,205z"
				/>
			<path id="Shape_84_" class="st5" d="M68.3,180.4c1.3,0.9,2.6,1.8,3.8,2.9c-2.5-2.6-5.6-4.6-9.1-5.9v0.2
				C64.9,178.4,66.6,179.3,68.3,180.4z"/>
			<path id="Shape_85_" class="st5" d="M55.1,175.4c1.2,0.4,2.4,0.8,3.6,1.2c1.5,0.4,3,0.8,4.5,1.4v-0.5c-0.9-0.4-1.9-0.8-2.8-1.1
				c-0.9-0.3-1.9-0.5-2.9-0.7c-0.8-0.2-1.5-0.5-2.2-0.9c-0.5-0.1-1-0.2-1.4-0.3C54.2,174.8,54.6,175.1,55.1,175.4z"/>
			<path id="Shape_86_" class="st5" d="M63.1,177.6v0.5c4.9,2,8.3,4.9,10.7,8.1c1.4,1.7,2.4,3.4,2.7,5.1v0.1
				c0.5,1.3,0.9,2.5,1.2,3.9c0.3,0.3,0.5,0.7,0.7,1.1c0-0.3-0.1-0.6-0.2-1c-1-4.8-3-8.9-6.1-12c-1.2-1-2.5-2-3.8-2.9
				C66.6,179.3,64.9,178.4,63.1,177.6z"/>
			<path id="Shape_87_" class="st5" d="M58.6,176.6c-1.1-0.4-2.3-0.8-3.6-1.2c0.7,0.4,1.4,0.7,2.2,0.9
				C57.7,176.4,58.2,176.5,58.6,176.6z"/>
			<path id="Shape_88_" class="st5" d="M76.4,191.2c-0.3-1.7-1.3-3.4-2.7-5.1C74.8,187.7,75.7,189.4,76.4,191.2L76.4,191.2z"/>
			<path id="Shape_89_" class="st5" d="M16.8,162.2c1.6-3.5,3.4-7,5.4-10.3c0-0.3,0-0.6,0-0.8c0-0.1,0-0.1,0-0.2
				c-2.2,3.5-4.1,7.1-5.8,10.8C16.6,161.8,16.7,162,16.8,162.2z"/>
			<path id="Shape_90_" class="st5" d="M16.1,164c-0.2,0-0.3,0.1-0.5,0.1c-0.1,0-0.2,0-0.2,0c-1.6,3.7-2.9,7.8-3.4,11.6
				c0.2,0,0.4,0.1,0.6,0.2C13.1,171.9,14.5,167.8,16.1,164z"/>
			<path id="Shape_91_" class="st5" d="M37.8,193.8h-0.7c1.3,1.8,0.5,4.7-0.8,8.6c0.1,0.3,0.2,0.7,0.3,1.1
				C37.8,200,39.2,196.2,37.8,193.8z"/>
			<path id="Shape_92_" class="st5" d="M36.1,192.2L36.1,192.2h-1.8c0.3,0.1,0.6,0.2,1,0.2c0.4,0.1,0.8,0.3,1.1,0.5h0.9
				C36.9,192.6,36.5,192.3,36.1,192.2z"/>
			<path id="Shape_93_" class="st5" d="M78.9,200.5c0,0.1-0.2,0.2-0.3,0.2h0c0,0.4-0.1,0.9-0.2,1.3c0,0.9,0,1.8,0,2.6
				c0.2-0.4,0.4-0.8,0.5-1.2C78.9,202.4,78.9,201.4,78.9,200.5z"/>
			<path id="Shape_94_" class="st5" d="M78.6,200.4c0,0.1,0,0.2,0,0.3h0c0.1,0,0.2-0.1,0.3-0.2c0-0.3,0-0.6,0-1c0-0.5-0.1-1-0.2-1.4
				c0-0.3-0.1-0.5-0.1-0.8c-0.1-0.4-0.1-0.8-0.2-1.1c-0.2-0.4-0.5-0.7-0.7-1.1c0.2,1,0.4,1.9,0.5,2.8
				C78.4,198.7,78.6,199.6,78.6,200.4z"/>
			<path id="Shape_95_" class="st5" d="M36.3,193c0.3,0.2,0.6,0.5,0.8,0.8h0.7c-0.2-0.3-0.4-0.6-0.6-0.8H36.3z"/>
			<path id="Shape_96_" class="st5" d="M74.7,212.3c0.3-0.1,0.5-0.2,0.8-0.3l-0.1-0.6c-0.2,0.1-0.5,0.2-0.7,0.3
				C74.7,211.9,74.7,212.1,74.7,212.3z"/>
			<path id="Shape_97_" class="st5" d="M75.4,211.4l0.1,0.6c0.3-0.1,0.5-0.2,0.7-0.3c0-0.2-0.1-0.4-0.1-0.6
				C75.8,211.2,75.6,211.3,75.4,211.4z"/>
			<path id="Shape_98_" class="st5" d="M38.3,211.9c-0.3-0.1-0.6-0.2-0.8-0.4l0.1,0.7c0.3,0.1,0.6,0.2,0.8,0.3
				C38.4,212.4,38.3,212.2,38.3,211.9z"/>
			<path id="Shape_99_" class="st5" d="M37.5,211.6c-0.3-0.1-0.5-0.3-0.8-0.4c0,0.2,0,0.5,0,0.7c0.3,0.2,0.5,0.3,0.8,0.4L37.5,211.6
				z"/>
			<path id="Shape_100_" class="st5" d="M16.1,164c0.3-0.6,0.5-1.2,0.8-1.8c-0.1-0.2-0.2-0.4-0.4-0.5c-0.3,0.8-0.7,1.5-1,2.3
				c0.1,0,0.2,0,0.2,0C15.7,164.1,15.9,164,16.1,164z"/>
			<path id="Shape_101_" class="st5" d="M72.4,212.3c-4.1,0.9-8.2,1.5-12.3,1.7c0,0,0,0.1,0,0.1c0,0.2,0.1,0.3,0.1,0.5
				c4.1-0.2,8.2-0.8,12.3-1.7L72.4,212.3z"/>
			<path id="Shape_102_" class="st5" d="M45.6,213.7c-0.1,0.2-0.1,0.3-0.2,0.5l0,0c2.9,0.4,5.9,0.5,8.9,0.5c0.8,0,1.5,0,2.2,0
				l0.2-0.6C52.9,214.3,49.2,214.1,45.6,213.7z"/>
			<path id="Shape_103_" class="st5" d="M23.4,151.1l16.9,1.5c0-0.2-0.1-0.4-0.2-0.6l-16.7-1.4C23.4,150.7,23.4,150.8,23.4,151.1
				L23.4,151.1z"/>
			<path id="Shape_104_" class="st5" d="M22.3,151.9c0.3-0.6,0.5-0.9,0.5-0.9c0-0.2,0-0.4,0-0.6c-0.2,0-0.4,0.1-0.5,0.3l-0.1,0.2
				c0,0.1,0,0.1,0,0.2C22.2,151.3,22.3,151.6,22.3,151.9z"/>
			<path id="Shape_105_" class="st5" d="M23.4,151.1C23.4,151.1,23.4,151,23.4,151.1c0-0.3,0-0.4,0-0.6l-0.5,0h0c0,0.2,0,0.4,0,0.6
				L23.4,151.1z"/>
			<path id="Shape_106_" class="st5" d="M74.6,211.1c-0.6,0.2-1.4,0.5-2.3,0.6l0.1,0.6c0.8-0.2,1.6-0.4,2.2-0.6
				C74.7,211.5,74.6,211.3,74.6,211.1z"/>
			<path id="Shape_107_" class="st5" d="M36.1,208.8h-0.6c0,1,0.4,1.8,1.2,2.3l0.1,0c0-0.3,0-0.5,0-0.8
				C36.3,210,36.1,209.4,36.1,208.8z"/>
			<path id="Shape_108_" class="st5" d="M56.8,213.6l-0.2,0.6c1.1,0,2.3-0.1,3.5-0.2c0-0.2-0.1-0.4-0.2-0.6
				C58.9,213.5,57.8,213.6,56.8,213.6z"/>
			<path id="Shape_109_" class="st5" d="M45.7,213.2c-3-0.4-5.6-1-7.6-1.9c0,0.2,0.1,0.5,0.1,0.7c2.3,0.9,4.8,1.5,7.3,1.8
				C45.6,213.5,45.7,213.3,45.7,213.2z"/>
			<path id="Shape_110_" class="st5" d="M52.7,174.2c0.4,0.1,0.7,0.2,1.1,0.2c-3.4-3-4.6-9.1-5-13.9c-0.2,0.1-0.4,0.2-0.6,0.3
				C48.6,165.4,49.7,171,52.7,174.2z"/>
			<path id="Shape_111_" class="st5" d="M77.7,205.6c0,1.1-0.2,2.2-0.3,3.3l-0.1,0.6c0,0.2-0.4,0.6-1.3,1.1l-0.1,0
				c0,0.2,0.1,0.4,0.1,0.6c1.1-0.5,1.8-1.1,1.9-1.7c0.1-1,0.3-2.5,0.4-4.5h-0.2C78,205.2,77.8,205.4,77.7,205.6z"/>
			<path id="Shape_112_" class="st5" d="M36.1,192.2h1.1c-0.5-0.3-1-0.6-1.6-0.8c-0.7-0.2-1.4-0.4-2.1-0.5c0.1,0.2,0.2,0.4,0.2,0.6
				c0.6,0.1,1.1,0.2,1.6,0.4C35.6,192,35.9,192,36.1,192.2z"/>
			<path id="Shape_113_" class="st5" d="M57.6,176.9c-0.8-0.3-1.6-0.6-2.5-0.9c0.6,0.3,1.4,0.6,2.1,0.8
				C57.3,176.9,57.4,176.9,57.6,176.9z"/>
			<path id="Shape_114_" class="st5" d="M53.5,175c0.5,0.2,1.1,0.3,1.6,0.4c-0.5-0.3-0.9-0.6-1.3-1c-0.4-0.1-0.7-0.2-1.1-0.2
				C52.9,174.5,53.2,174.7,53.5,175z"/>
			<path id="Shape_115_" class="st5" d="M63.1,178.5V178c-1.4-0.6-2.9-1.1-4.5-1.4C60.2,177.2,61.7,177.8,63.1,178.5z"/>
			<path id="Shape_116_" class="st5" d="M73.7,186.1c-2.3-3.2-5.7-6.1-10.7-8.1v0.5C67.7,180.7,71.4,183.3,73.7,186.1z"/>
			<path id="Shape_117_" class="st5" d="M77.6,195.1c-0.3-1.3-0.7-2.6-1.2-3.9c0.3,1.3,0.5,2.4,0.8,3.4
				C77.3,194.8,77.5,195,77.6,195.1z"/>
			<path id="Shape_118_" class="st5" d="M55.1,176.1c0.8,0.3,1.6,0.6,2.5,0.9c1.9,0.4,3.7,1,5.5,1.7v-0.2c-1.4-0.7-2.9-1.3-4.5-1.9
				c-0.5-0.1-0.9-0.2-1.3-0.3c-0.8-0.2-1.5-0.5-2.2-0.9c-0.5-0.2-1.1-0.3-1.6-0.4C54,175.4,54.5,175.8,55.1,176.1z"/>
			<path id="Shape_119_" class="st5" d="M63.1,178.5v0.2c7.2,2.9,11.8,8.1,13.7,15.6c0.2,0.2,0.3,0.3,0.5,0.5
				c-0.2-1-0.5-2.1-0.8-3.4c-0.7-1.8-1.6-3.5-2.7-5.1C71.4,183.3,67.7,180.7,63.1,178.5z"/>
			<path id="Shape_120_" class="st5" d="M22.3,152.9c0-0.3,0-0.7-0.1-1.1c-2,3.3-3.8,6.7-5.4,10.3c0.3,0.6,0,1.4-0.6,1.8
				c0,0-0.1,0-0.1,0c-1.6,3.8-3,8-3.5,11.8c0.2,0,0.4,0.1,0.6,0.2C14.3,167.2,20,156.8,22.3,152.9z"/>
			<path id="Shape_121_" class="st5" d="M38.5,193.8h-0.6c1.3,2.4-0.1,6.2-1.2,9.6l0.3,1.1c0.2-0.5,0.3-1,0.5-1.5
				C38.4,199.9,39.6,196.3,38.5,193.8z"/>
			<path id="Shape_122_" class="st5" d="M37.2,193H38c-0.2-0.3-0.5-0.6-0.8-0.8h-1.1C36.5,192.4,36.9,192.6,37.2,193z"/>
			<path id="Shape_123_" class="st5" d="M77.7,205h0.4c0.1-0.2,0.2-0.3,0.3-0.4c0-0.8,0-1.7,0-2.6c-0.2,0.6-0.4,1.2-0.6,1.8
				C77.7,204.2,77.7,204.6,77.7,205z"/>
			<path id="Shape_124_" class="st5" d="M77.8,197.1c0.2,0.3,0.3,0.5,0.4,0.8c-0.1-0.9-0.3-1.9-0.5-2.8c-0.1-0.2-0.3-0.3-0.4-0.5
				C77.4,195.6,77.6,196.4,77.8,197.1z"/>
			<path id="Shape_125_" class="st5" d="M77.8,197.1c-0.2-0.7-0.3-1.4-0.5-2.4c-0.2-0.2-0.3-0.3-0.5-0.5c0.2,0.6,0.3,1.2,0.4,1.9
				C77.4,196.4,77.6,196.7,77.8,197.1z"/>
			<path id="Shape_126_" class="st5" d="M37.2,193c0.2,0.2,0.5,0.5,0.6,0.8h0.6c-0.1-0.3-0.3-0.6-0.5-0.8L37.2,193z"/>
			<path id="Shape_127_" class="st5" d="M78.2,200.5c-0.1-0.2-0.2-0.4-0.3-0.6l-0.4-0.3c0.1,1.3,0.1,2.7,0.1,4.1
				c0.3-0.6,0.5-1.2,0.6-1.8c0-0.5,0-0.9,0-1.4C78.3,200.6,78.3,200.6,78.2,200.5z"/>
			<path id="Shape_128_" class="st5" d="M77.6,198.9c0.2,0.4,0.3,0.7,0.5,1.1l0.3,0.3c0-0.3,0-0.7-0.1-1c-0.1-0.5-0.3-1.2-0.5-2.1
				c-0.2-0.3-0.4-0.7-0.6-1C77.3,196.9,77.4,197.9,77.6,198.9z"/>
			<path id="Shape_129_" class="st5" d="M74.6,211.1c0,0.2,0,0.4,0,0.6c0.3-0.1,0.5-0.2,0.7-0.3l-0.1-0.6
				C75.1,210.9,74.9,211,74.6,211.1z"/>
			<path id="Shape_130_" class="st5" d="M75.3,210.8l0.1,0.6c0.3-0.1,0.5-0.2,0.7-0.3c0-0.2-0.1-0.4-0.1-0.6
				C75.8,210.6,75.5,210.7,75.3,210.8z"/>
			<path id="Shape_131_" class="st5" d="M38.2,211.3c-0.3-0.1-0.5-0.3-0.8-0.4l0.1,0.7c0.3,0.1,0.5,0.3,0.8,0.4
				C38.3,211.7,38.2,211.5,38.2,211.3z"/>
			<path id="Shape_132_" class="st5" d="M37,210.6c-0.1-0.1-0.2-0.2-0.3-0.3c0,0.3,0,0.5,0,0.8c0.2,0.2,0.5,0.3,0.8,0.4l-0.1-0.7
				C37.2,210.8,37.1,210.7,37,210.6z"/>
			<path id="Shape_133_" class="st5" d="M16.9,162.7c0-0.2,0-0.4-0.1-0.5c-0.3,0.6-0.5,1.2-0.8,1.8
				C16.6,163.8,16.9,163.3,16.9,162.7z"/>
			<path id="Shape_134_" class="st5" d="M59.9,213.5c0,0.2,0.1,0.4,0.2,0.6c4.1-0.2,8.3-0.8,12.3-1.7l-0.1-0.6
				C68.3,212.7,64.1,213.2,59.9,213.5z"/>
			<path id="Shape_135_" class="st5" d="M45.7,213.2c0,0.2-0.1,0.3-0.2,0.5c3.7,0.4,7.4,0.6,11.1,0.5l0.2-0.6
				C53.1,213.7,49.4,213.6,45.7,213.2z"/>
			<path id="Shape_136_" class="st5" d="M40.4,153.2c-0.1-0.2-0.1-0.4-0.2-0.6l-16.9-1.5c0,0.2,0,0.4,0,0.6L40.4,153.2z"/>
			<path id="Shape_137_" class="st5" d="M22.8,152c0-0.3,0-0.7,0-1c0,0-0.2,0.3-0.5,0.9c0,0.3,0,0.7,0.1,1.1
				C22.5,152.6,22.7,152.3,22.8,152z"/>
			<path id="Shape_138_" class="st5" d="M23.1,151.6l0.3,0c0-0.2,0-0.4,0-0.6l-0.6,0c0,0.3,0,0.7,0,1L23.1,151.6z"/>
			<path id="Shape_139_" class="st5" d="M44.9,121.3l0.6,1.1c1.1,1.3,2.2,2.7,3.1,4.1l-1.6-3l-0.8-1.4c0,0.1,0,0.2,0,0.2L44.9,121.3
				z"/>
			<path id="Shape_140_" class="st5" d="M42.9,124.4l-3.4-2.9c-0.2,0.2-0.3,0.4-0.6,0.6l2.9,2.3l0,0c0.2,0,0.3,0,0.3,0
				C42.3,124.4,42.6,124.4,42.9,124.4z"/>
			<path id="Shape_141_" class="st5" d="M47.2,125.4c0.3,0.5,0.7,1,1,1.6c0.7,0.8,1.4,1.7,1.9,2.6l-0.1-0.2c0-0.1-0.1-0.3-0.2-0.4
				c0-0.1-0.1-0.3-0.2-0.4c-0.3-0.5-0.6-1.1-0.8-1.6l-0.2-0.4c-0.9-1.5-1.9-2.9-3.1-4.1L47.2,125.4z"/>
			<path id="Shape_142_" class="st5" d="M48.2,127c-0.3-0.5-0.6-1.1-1-1.6l0.6,1.1C47.9,126.7,48,126.8,48.2,127z"/>
			<path id="Shape_143_" class="st5" d="M43.8,119.2l1.1,2.1l1.3,1c0-0.1,0-0.2,0-0.2l-1.7-3.2C44.3,119.1,44,119.2,43.8,119.2z"/>
			<path id="Shape_144_" class="st5" d="M43.7,120.6c0.5,0.4,1,0.8,1.4,1.3l0.5,0.5l-0.6-1.1l-1.5-1.2L43.7,120.6z"/>
			<path id="Shape_145_" class="st5" d="M40.1,120.2c0,0-0.1,0.2-0.2,0.5l0.6-0.6l-0.3-0.1C40.2,120,40.1,120.1,40.1,120.2z"/>
			<path id="Shape_146_" class="st5" d="M46.6,125.6c-0.2-0.3-0.4-0.6-0.6-0.8l0.4,0.7C46.4,125.5,46.5,125.5,46.6,125.6z"/>
			<path id="Shape_147_" class="st5" d="M42.9,124.4c0.4,0,0.8,0,1.2,0.1l-0.1-0.2l0,0l0,0l0,0l-0.1-0.1l-0.2-0.2l-0.9-0.8l-2.9-2.4
				c-0.1,0.3-0.2,0.5-0.4,0.7L42.9,124.4z"/>
			<path id="Shape_148_" class="st5" d="M43.7,120.6l0.9,1.6l0.1,0.1c0.9,1,1.7,2,2.5,3.1l-1.6-3l-0.5-0.5
				C44.6,121.5,44.2,121,43.7,120.6z"/>
			<path id="Shape_149_" class="st5" d="M44.5,122.2l1.1,2l0.3,0.5c0.2,0.3,0.4,0.6,0.6,0.8c0.4,0.3,0.8,0.6,1.2,1l-0.6-1.1
				C46.4,124.3,45.5,123.2,44.5,122.2L44.5,122.2z"/>
			<path id="Shape_150_" class="st5" d="M43,119.4L43,119.4l0.3,0.7l1.5,1.2l-1.1-2.1C43.5,119.3,43.3,119.4,43,119.4L43,119.4z"/>
			<path id="Shape_151_" class="st5" d="M19.4,134.6c0.8-1.9,1.7-3.6,3-5.3c-0.2-0.1-0.3-0.2-0.5-0.3c-1.2,1.6-2.2,3.4-3,5.3
				c-0.1,0.3,0,0.6,0.3,0.7c0.2,0.1,0.4,0.2,0.6,0.3L20,135C19.6,134.8,19.4,134.6,19.4,134.6z"/>
			<path id="Shape_152_" class="st5" d="M23.1,138.7c0.1-0.3,0.1-0.6,0.2-1c-0.6-0.8-1.3-1.4-2.2-2c-0.1,0.2-0.2,0.3-0.3,0.5
				C22.1,137.1,23.1,138.1,23.1,138.7z"/>
			<path id="Shape_153_" class="st5" d="M20.6,135.4c-0.2-0.2-0.4-0.3-0.6-0.4l-0.3,0.5c0.2,0.1,0.4,0.2,0.6,0.4
				C20.4,135.7,20.5,135.5,20.6,135.4z"/>
			<path id="Shape_154_" class="st5" d="M21.2,135.8c-0.2-0.2-0.4-0.3-0.6-0.4c-0.1,0.2-0.2,0.3-0.3,0.5c0.2,0.1,0.4,0.3,0.6,0.4
				C21,136.1,21.1,136,21.2,135.8z"/>
			<path id="Shape_155_" class="st5" d="M24.3,138.9l3.9-11.6C26.6,130.4,25.1,134.3,24.3,138.9z"/>
			<path id="Shape_156_" class="st5" d="M23.7,138.7c0-0.3-0.2-0.7-0.4-1c-0.1,0.3-0.2,0.6-0.2,1c0,0,0,0,0,0c0,0.3,0.2,0.5,0.5,0.5
				c0-0.2,0.1-0.5,0.1-0.7L23.7,138.7z"/>
			<path id="Shape_157_" class="st5" d="M28.3,125.5c-0.1,0.1-0.2,0.2-0.4,0.2c0,0.1,0,0.2,0,0.2l0.2,0l-0.2,0.6l0.3-0.3
				c0.1-0.2,0.3-0.4,0.4-0.6C28.5,125.6,28.3,125.6,28.3,125.5z"/>
			<path id="Shape_158_" class="st5" d="M28.6,126.3c0-0.1,0-0.3,0-0.4l-0.5,0.5c-0.1,0.2-0.2,0.4-0.3,0.6c0,0.4,0,0.8,0,1.2
				c-0.2,0.2-0.4,0.4-0.6,0.6l-3.4,10c0,0.2-0.1,0.4-0.1,0.7l0,0h0.1c0.2,0,0.5-0.2,0.6-0.4l0,0c0.8-4.6,2.2-8.5,3.9-11.6
				L28.6,126.3z"/>
			<path id="Shape_159_" class="st5" d="M20.1,134.4c0.8-1.7,1.7-3.3,2.8-4.8c-0.1,0-0.2,0-0.2-0.1c-0.1,0-0.2-0.1-0.3-0.2
				c-1.2,1.6-2.2,3.4-3,5.3c0,0,0.3,0.2,0.6,0.4c0.1-0.2,0.2-0.3,0.3-0.5L20.1,134.4z"/>
			<path id="Shape_160_" class="st5" d="M23.4,137.8c0-0.2,0.1-0.5,0.2-0.7c-0.6-0.7-1.3-1.3-2-1.8l-0.3,0.5
				C22,136.3,22.7,137,23.4,137.8z"/>
			<path id="Shape_161_" class="st5" d="M20.3,134.5c-0.1,0.2-0.2,0.3-0.3,0.5c0.2,0.1,0.4,0.2,0.6,0.4c0.1-0.2,0.2-0.3,0.3-0.5
				C20.7,134.7,20.5,134.6,20.3,134.5z"/>
			<path id="Shape_162_" class="st5" d="M21.5,135.3c-0.2-0.2-0.4-0.3-0.6-0.4c-0.1,0.2-0.2,0.3-0.3,0.5c0.2,0.1,0.4,0.3,0.6,0.4
				L21.5,135.3z"/>
			<path id="Shape_163_" class="st5" d="M23.8,138.7c0.6-3.3,1.6-6.6,3-9.7c-0.1,0.1-0.3,0.2-0.4,0.2l-2.7,8c0,0-0.1-0.1-0.2-0.2
				c0,0.2-0.1,0.5-0.2,0.7c0.2,0.3,0.3,0.6,0.4,1L23.8,138.7z"/>
			<path id="Shape_164_" class="st5" d="M23.8,138.7l3.4-10c-0.1,0.1-0.3,0.2-0.4,0.3C25.4,132.1,24.4,135.3,23.8,138.7z"/>
			<path id="Shape_165_" class="st6" d="M58.2,97.7l0.2,0c0.1,0,0.2,0,0.3-0.1c0,0,0,0,0-0.1c0-0.1,0-0.3-0.1-0.4
				c-0.1-0.1-0.2-0.2-0.3-0.3c-0.3,0.3-0.6,0.5-1,0.7C57.7,97.6,58,97.7,58.2,97.7z"/>
			<path id="Shape_166_" class="st6" d="M55.6,97.7L55.6,97.7c0.5,0,1,0,1.4,0h0.3c0.3-0.2,0.7-0.5,1-0.7c-0.4-0.2-0.9-0.3-1.4-0.3
				c-0.6,0-1.2,0.3-1.6,0.8l0,0c0,0.1,0,0.2,0.1,0.2C55.5,97.6,55.5,97.6,55.6,97.7L55.6,97.7z"/>
			<path id="Shape_167_" class="st7" d="M39.7,221.8c-0.3-2.6-0.7-5.3-1.1-7.9c-0.1-0.4-0.2-0.8-0.2-1.3c-0.3-0.1-0.6-0.2-0.8-0.3
				c-0.3-0.1-0.5-0.3-0.8-0.4c0,0.8,0.1,1.5,0.2,2.2c0.3,2.6,0.5,5.3,0.8,7.9c0.7,5.2,1.3,10.3,2.5,15.4c0,0.1,0,0.2,0,0.3
				c0,0.2,0.2,0.3,0.4,0.2c0.2,0,0.3-0.2,0.3-0.3c0-0.1,0-0.1,0-0.2C40.9,232.1,40.2,227,39.7,221.8z"/>
			<path id="Shape_168_" class="st7" d="M61.9,98.7c-0.2-0.1-0.3-0.1-0.5,0l-0.2,0l-0.4,0.1L60.8,99l-0.3,0.2c0,0-0.1,0.1-0.2,0.1
				c-0.4-0.4-1-0.6-1.5-0.7c-0.2,0-0.4,0-0.6,0l-2,0.2c-0.6,0.1-1.2,0.4-1.5,0.9c-0.3,0.5-0.5,1.1-0.3,1.6l0.2,0.6
				c0.3,1.3,1.6,2.3,2.9,2.2c0.2,0,0.3,0,0.5,0l0.5-0.1c0.5-0.1,1-0.3,1.4-0.6c0.8-0.6,1.3-1.6,1.2-2.7c0-0.2-0.1-0.4-0.2-0.6l0,0
				l0.2,0l0.4-0.1l0.2-0.1l0.3-0.2c0.1,0,0.2-0.1,0.2-0.2c0.1-0.1,0.1-0.3,0.1-0.4l-0.1-0.2C62.1,98.8,62,98.8,61.9,98.7z
				 M59.5,102.6c-0.3,0.3-0.7,0.5-1.1,0.6l-0.5,0.1c-1,0.2-2-0.5-2.2-1.4l-0.2-0.6c-0.1-0.3,0-0.6,0.2-0.8c0.2-0.3,0.5-0.4,0.8-0.5
				l2-0.2h0.2c0.1,0,0.2,0,0.3,0c0.6,0.1,1.1,0.6,1.3,1.3C60.1,101.6,59.9,102.2,59.5,102.6L59.5,102.6z"/>
			<path id="Shape_169_" class="st7" d="M37,208.8C37.1,208.8,37.1,208.8,37,208.8c0.3-0.1,0.4-0.2,0.5-0.4l0,0
				c0.1-0.2,0.2-0.3,0.2-0.5c0-0.1,0-0.2,0-0.2l-0.1-0.3c-0.3-1-0.5-1.9-0.8-2.9l-0.3-1.1c-0.1-0.3-0.2-0.7-0.3-1.1
				c-0.6-2.5-1.3-5.1-1.8-7.6l-0.2-1l-0.2-0.8l-0.2-0.8v-0.1l-0.1-0.6c0,0,0,0,0-0.1c0-0.2-0.2-0.4-0.2-0.6
				c-0.3-0.9-0.7-1.8-1.2-2.6c-0.5-0.8-1-1.5-1.6-2.2c-0.9-1.1-1.9-2-3-2.9c-3.6-2.7-7.6-4.9-11.9-6.3c-0.9-0.3-1.8-0.6-2.7-0.8
				c-0.2,0-0.4-0.1-0.6-0.2s-0.4-0.1-0.6-0.2c-0.9-0.2-1.7-0.5-2.6-0.6c-1.1-0.2-2.2-0.4-3.3-0.6l-1.6-0.2c-0.3,0-0.7-0.1-1.1-0.1
				c-0.3-1.9-0.4-3.8-0.6-5.7l-0.8-7.1l-0.2-1.8c0-0.6-0.1-1.1-0.1-1.7c0-1.1,0.2-2.2,0.5-3.3c1.3-4.3,5.1-7.7,9.5-8.1
				c1.1-0.1,2.3-0.1,3.5,0h3.6h3.7c0-0.3,0-0.6,0-0.9c0-0.1,0-0.2,0-0.3c-0.3-0.2-0.7-0.4-1-0.6h-2.8H15c-1.2,0-2.4,0-3.7,0.1
				c-5.1,0.6-9.5,4.6-10.8,9.4c-0.3,1.1-0.5,2.4-0.5,3.7c0,0.6,0,1.3,0.1,1.9l0.2,1.8l1,7c0.4,2.4,0.6,4.6,1.1,7.1
				c0.1,0.3,0.2,0.5,0.3,0.8L4,190.7c0.5,5.7,1,11.5,1.7,17.2c0,0.4,0.4,0.8,0.8,0.8h2.8l25.6,0.1h1.9C36.9,208.8,37,208.8,37,208.8
				z M20.1,207l-10.8,0H7.3c-0.6-5.3-1.3-10.5-2.1-15.8l-1.7-13l-0.2-1.8L3,174.4v-0.1l0.4,0.1c0.3,0.1,0.6,0.2,1,0.2L6,175
				c1.1,0.3,2.1,0.5,3.2,0.8c0.9,0.3,1.8,0.5,2.7,0.8l0.6,0.2c0.2,0.1,0.4,0.2,0.6,0.2c0.8,0.3,1.6,0.6,2.4,0.9
				c4,1.7,8,3.7,11.3,6.5c0.4,0.3,0.8,0.7,1.3,1.1c1.2,1.1,2.2,2.2,3,3.6c0.3,0.5,0.5,1,0.8,1.5c0.1,0.2,0.1,0.4,0.2,0.6
				s0.2,0.4,0.2,0.6c0,0,0,0,0,0.1l0.1,0.3l0.2,0.8l0.2,0.8l0.3,1.4c0.8,3.5,1.6,7.1,2.5,10.6c0.1,0.4,0.2,0.8,0.3,1.2H35L21.8,207
				H20.1L20.1,207z"/>
			<path id="Shape_170_" class="st8" d="M62.7,136.2c-1.5,4.8-8,18.7-13.4,23.1c0,0.3,0,0.5,0,0.8c5.6-4.1,11.8-17.3,13.7-22.8V136
				C63,136.1,62.8,136.1,62.7,136.2z"/>
			<path id="Shape_171_" class="st8" d="M50.7,138.6l0,0.5c0.5,2.3,0.8,4.7,1,7.1l-0.3-5.3c1.6-1.3,3-3,4.1-4.8
				c0.9-1.6,2-3.1,3.1-4.6l-0.7-0.2c-1.1,1.4-2.1,2.9-3,4.5c-0.9,1.5-2,2.9-3.3,4.1c-0.1-0.5-0.2-1.1-0.4-1.6
				C51,138.3,50.9,138.5,50.7,138.6z"/>
			<path id="Shape_172_" class="st8" d="M66.6,125.4c1.6,2.1-1.1,8.9-3.5,10.6v1.4c0.1-0.3,0.2-0.5,0.3-0.7c1.8-1.1,3.6-4.6,4.2-7.4
				c0.3-1.4,0.5-3.2-0.4-4.3c-0.2-0.2-0.3-0.3-0.6-0.5l-0.2,0.7C66.4,125.3,66.5,125.3,66.6,125.4z"/>
			<path id="Shape_173_" class="st8" d="M39.3,143.8l-0.6,0.2c0.1,0.8,0.2,1.6,0.3,2.5c0.3,0.2,0.5,0.3,0.7,0.5
				C39.5,145.9,39.4,144.9,39.3,143.8z"/>
			<path id="Shape_174_" class="st8" d="M40.2,149.8c-0.3-0.3-0.5-0.5-0.8-0.8c0.2,1,0.4,1.9,0.6,2.9l0.7,0.1
				C40.6,151.3,40.4,150.6,40.2,149.8z"/>
			<path id="Shape_175_" class="st8" d="M39,146.5c0.1,0.4,0.1,0.8,0.2,1.2c0.3,0.2,0.5,0.4,0.8,0.6c-0.1-0.5-0.2-0.9-0.2-1.3
				C39.4,146.8,39.2,146.6,39,146.5z"/>
			<path id="Shape_176_" class="st8" d="M40.2,149.8c-0.1-0.5-0.2-1-0.3-1.6c-0.3-0.2-0.5-0.4-0.8-0.6c0.1,0.5,0.2,1,0.3,1.4
				C39.7,149.3,40,149.5,40.2,149.8z"/>
			<path id="Shape_177_" class="st8" d="M46.5,161.4c0.6-0.1,1.2-0.2,1.7-0.5c0-0.2,0-0.5-0.1-0.7c-0.4,0.3-0.9,0.5-1.4,0.5
				C46.7,160.9,46.6,161.2,46.5,161.4z"/>
			<path id="Shape_178_" class="st8" d="M43.9,160.3l-0.2-1.2c-1-1.3-1.9-3.4-2.6-5.9l-0.7-0.1C41.3,156.3,42.5,158.9,43.9,160.3z"
				/>
			<path id="Shape_179_" class="st8" d="M45.5,160.6c-0.3-0.1-0.6-0.3-0.8-0.5l0.1,0.9c0.2,0.1,0.3,0.2,0.5,0.2
				C45.4,161,45.5,160.8,45.5,160.6z"/>
			<path id="Shape_180_" class="st8" d="M44.7,160.2c-0.4-0.3-0.7-0.7-1-1.1l0.2,1.2c0.3,0.3,0.6,0.5,1,0.7L44.7,160.2z"/>
			<path id="Shape_181_" class="st8" d="M46.1,160.7l-0.2,0.6c0.1,0,0.2,0,0.3,0c0.1,0,0.2,0,0.3,0c0.1-0.2,0.2-0.5,0.2-0.7
				C46.6,160.7,46.3,160.7,46.1,160.7z"/>
			<path id="Shape_182_" class="st8" d="M48.8,160.5c0.2-0.1,0.4-0.2,0.6-0.4c0-0.3,0-0.5,0-0.8c-0.2,0.2-0.4,0.3-0.6,0.4
				C48.8,160,48.8,160.3,48.8,160.5z"/>
			<path id="Shape_183_" class="st8" d="M40.8,152l-0.7-0.1c0,0.2,0.1,0.4,0.2,0.6l0.7,0.1C40.9,152.4,40.9,152.2,40.8,152z"/>
			<path id="Shape_184_" class="st8" d="M48.2,160.9c0.2-0.1,0.4-0.2,0.6-0.3c0-0.3,0-0.5,0-0.8c-0.2,0.2-0.4,0.3-0.6,0.4
				C48.2,160.4,48.2,160.6,48.2,160.9z"/>
			<path id="Shape_185_" class="st8" d="M41.1,153.2c-0.1-0.2-0.1-0.4-0.2-0.6l-0.7-0.1c0.1,0.2,0.1,0.4,0.2,0.6L41.1,153.2z"/>
			<path id="Shape_186_" class="st8" d="M62.4,135.6c-0.2,0.1-0.3,0.2-0.3,0.4c-1.6,5.2-7.9,18-12.8,22.5c0,0.3,0,0.6,0,0.9
				c5.5-4.4,11.9-18.4,13.4-23.1c0.1-0.1,0.2-0.1,0.3-0.2v-0.9C62.9,135.3,62.6,135.5,62.4,135.6z"/>
			<path id="Shape_187_" class="st8" d="M51,146.9c0,0.4,0.3,0.7,0.7,0.7s0.7-0.3,0.7-0.7l0,0c-0.1-1.8-0.3-3.7-0.6-5.5
				c1.7-1.4,3.2-3.1,4.2-5c1-1.6,2-3.2,3.2-4.6l-0.7-0.2c-1.1,1.4-2.2,3-3.1,4.6c-1,1.8-2.4,3.5-4.1,4.8l0.3,5.3c0,0.5,0,0.8,0,0.8
				l0-0.8c-0.2-2.4-0.5-4.8-1-7.1l-0.2,2.4C50.7,143.3,50.9,145.1,51,146.9z"/>
			<path id="Shape_188_" class="st8" d="M66.1,129c-0.5,2.4-1.9,4.9-3.1,6.1v0.9c2.4-1.7,5.1-8.6,3.5-10.6c-0.1-0.1-0.2-0.2-0.3-0.2
				l-0.3,0.7C66.4,126.4,66.5,127.6,66.1,129z"/>
			<path id="Shape_189_" class="st8" d="M39.3,143.8c0.1,1,0.3,2.1,0.4,3.1c0.1,0.1,0.2,0.1,0.3,0.2c0.2,0.2,0.4,0.3,0.6,0.5
				c-0.2-1.3-0.4-2.7-0.6-4L39.3,143.8z"/>
			<path id="Shape_190_" class="st8" d="M41.3,151.1c-0.3-0.5-0.7-0.9-1.1-1.3c0.2,0.8,0.3,1.5,0.5,2.2l0.8,0.1
				C41.5,151.8,41.4,151.4,41.3,151.1z"/>
			<path id="Shape_191_" class="st8" d="M40.5,147.6c-0.2-0.2-0.4-0.4-0.6-0.5c-0.1-0.1-0.2-0.1-0.3-0.2c0.1,0.5,0.2,0.9,0.2,1.3
				c0.3,0.3,0.6,0.6,0.9,0.9C40.7,148.6,40.7,148.1,40.5,147.6z"/>
			<path id="Shape_192_" class="st8" d="M40.9,149.1c-0.3-0.3-0.6-0.6-0.9-0.9c0.1,0.5,0.2,1.1,0.3,1.6c0.4,0.4,0.7,0.8,1.1,1.3
				C41.2,150.5,41,149.8,40.9,149.1z"/>
			<path id="Shape_193_" class="st8" d="M50.1,139.1l0,0.3c0.2,0.7,0.3,1.4,0.4,2.1l0.2-2.4l-0.1-0.3
				C50.4,138.8,50.2,139,50.1,139.1z"/>
			<path id="Shape_194_" class="st8" d="M46.7,160.7c0.5-0.1,1-0.3,1.4-0.5c0-0.3,0-0.5,0-0.8c-0.3,0.2-0.7,0.4-1.1,0.5
				C46.9,160.2,46.8,160.4,46.7,160.7z"/>
			<path id="Shape_195_" class="st8" d="M43.5,157.4c-0.6-1.3-1.2-2.7-1.6-4.1l-0.8-0.1c0.7,2.4,1.6,4.5,2.6,5.9L43.5,157.4z"/>
			<path id="Shape_196_" class="st8" d="M44.6,159.1l0.2,1.1c0.2,0.2,0.5,0.3,0.8,0.5l0.1-0.3l-0.1-0.5
				C45.2,159.7,44.8,159.4,44.6,159.1z"/>
			<path id="Shape_197_" class="st8" d="M44.7,160.2l-0.2-1.1c-0.4-0.5-0.8-1.1-1.1-1.7l0.2,1.7C44,159.5,44.4,159.8,44.7,160.2z"/>
			<path id="Shape_198_" class="st8" d="M46.7,160.7c0.1-0.3,0.2-0.5,0.3-0.8c-0.2,0.1-0.4,0.1-0.6,0.1l-0.2,0.7
				C46.3,160.7,46.6,160.7,46.7,160.7z"/>
			<path id="Shape_199_" class="st8" d="M45.8,160L45.8,160l-0.2,0.4v0l0,0.3c0.2,0,0.3,0.1,0.5,0.1l0.2-0.7
				C46.2,160,46,160,45.8,160z"/>
			<path id="Shape_200_" class="st8" d="M48.7,159c0,0.3,0,0.5,0,0.8c0.2-0.2,0.4-0.3,0.6-0.4c0-0.3,0-0.6,0-0.9
				C49.1,158.7,48.9,158.8,48.7,159z"/>
			<path id="Shape_201_" class="st8" d="M41.5,152.1l-0.8-0.1c0,0.2,0.1,0.4,0.2,0.6l0.8,0.1C41.7,152.5,41.6,152.3,41.5,152.1z"/>
			<path id="Shape_202_" class="st8" d="M48.2,160.2c0.2-0.1,0.4-0.2,0.6-0.4c0-0.3,0-0.5,0-0.8c-0.2,0.2-0.4,0.3-0.6,0.4
				C48.1,159.7,48.2,159.9,48.2,160.2z"/>
			<path id="Shape_203_" class="st8" d="M41.7,152.7l-0.8-0.1c0.1,0.2,0.1,0.4,0.2,0.6l0.8,0.1C41.8,153.1,41.8,152.9,41.7,152.7z"
				/>
			<path id="Shape_204_" class="st9" d="M63.1,125.6v-5.8l-2.8-1l-3.3,9.3l2.7,1C60.7,127.8,61.8,126.7,63.1,125.6z"/>
			<path id="Shape_205_" class="st9" d="M63.1,119.8v5.8c0.6-0.6,1.4-1,2.3-1.2l1.7-4.8l0,0l-0.5,1.5L63.1,119.8z"/>
			<path id="Shape_206_" class="st9" d="M61.5,129c0.2,0,0.3,0.1,0.4,0.2c0.2,0.2,0.4,0.5,0.5,0.8l0.6,0.2v-2.8
				C62.6,127.9,62.1,128.5,61.5,129z"/>
			<path id="Shape_207_" class="st9" d="M63.3,130.4l1.5-4.2c-0.6,0.4-1.2,0.8-1.7,1.3v2.8L63.3,130.4z"/>
			<path id="Shape_208_" class="st9" d="M63.1,126.6v-0.9c-1.3,1-2.4,2.2-3.5,3.4l0.7,0.3C61.2,128.3,62.1,127.4,63.1,126.6z"/>
			<path id="Shape_209_" class="st9" d="M63.1,126.6c0.6-0.5,1.3-1,2-1.3l0.3-0.8c-0.8,0.2-1.6,0.6-2.3,1.2V126.6z"/>
			<path id="Shape_210_" class="st9" d="M61.2,129c0.1,0,0.2,0,0.4,0c0.5-0.6,1-1.1,1.5-1.5v-0.9c-1,0.9-1.9,1.8-2.7,2.8l0.2,0.1
				C60.7,129.2,60.9,129,61.2,129z"/>
			<path id="Shape_211_" class="st9" d="M63.1,127.5c0.5-0.5,1.1-0.9,1.7-1.3l0.3-1c-0.7,0.3-1.4,0.8-2,1.3V127.5z"/>
			<path id="Shape_212_" class="st10" d="M66.1,125.9l-2.1,6.1c-0.2,0.6-0.9,1-1.5,0.8c-0.1,0.6-0.3,1.3-0.5,1.9
				c-0.1,0.3-0.3,0.5-0.7,0.5c-0.1,0-0.2,0-0.2,0c-0.4-0.1-0.6-0.5-0.5-0.9l0,0c0.1-0.2,0.1-0.4,0.2-0.6c0.1-0.4,0.2-0.9,0.3-1.3
				c0.1-0.5,0.1-0.9,0.1-1.4c-0.2,0.3-0.4,0.8-0.6,1.2l-0.1,0.2c-0.2,0.3-0.6,0.5-0.9,0.4c-0.3-0.2-0.5-0.6-0.4-0.9l0,0l0-0.1l0,0
				c-1.2,1.5-2.2,3-3.2,4.6c-1.1,1.9-2.5,3.6-4.2,5c0.3,1.8,0.5,3.7,0.6,5.5c0,0.4-0.3,0.7-0.7,0.7l0,0c-0.4,0-0.7-0.3-0.7-0.7
				c-0.1-1.8-0.3-3.6-0.6-5.4c-0.1-0.6-0.2-1.4-0.4-2.1l0-0.2c-0.2,0.2-0.4,0.3-0.6,0.4c-2.9,2.1-6.8,3.4-9.5,4.1
				c0.2,1.3,0.3,2.7,0.6,4c0.1,0.5,0.2,1,0.3,1.5c0.2,0.7,0.3,1.3,0.5,2c0.1,0.3,0.2,0.6,0.2,1c0.1,0.2,0.1,0.4,0.2,0.6
				c0.1,0.2,0.1,0.4,0.2,0.6c0.4,1.4,1,2.8,1.6,4.1c0.3,0.6,0.6,1.2,1.1,1.7c0.3,0.3,0.6,0.6,1,0.8c0.1,0,0.1,0.1,0.2,0.1l0,0
				c0.2,0,0.4,0.1,0.6,0.1c0.2,0,0.4,0,0.6-0.1c0.4-0.1,0.8-0.3,1.1-0.5c0.2-0.1,0.4-0.3,0.6-0.4c0.2-0.2,0.4-0.3,0.6-0.5
				c4.9-4.5,11.2-17.3,12.8-22.5c0-0.2,0.2-0.3,0.3-0.4c0.2-0.1,0.5-0.3,0.6-0.5c1.2-1.1,2.5-3.7,3.1-6.1
				C66.5,127.6,66.4,126.4,66.1,125.9z"/>
			<path id="Shape_213_" class="st8" d="M59.9,132l-0.6-0.2l0,0.1c-0.2,0.3,0,0.8,0.4,0.9l0,0c0.2,0.1,0.4,0.1,0.6,0l-0.3-0.6
				L59.9,132z"/>
			<path id="Shape_214_" class="st8" d="M61.7,132.6c-0.1,0.6-0.3,1.3-0.5,1.9l-0.5-0.8c0,0.2-0.1,0.4-0.2,0.6
				c-0.1,0.4,0.1,0.8,0.5,0.9l0,0c0.1,0,0.2,0,0.2,0c0.3,0,0.6-0.2,0.7-0.5c0.2-0.6,0.3-1.3,0.5-1.9c0,0-0.1,0-0.2,0L61.7,132.6z"/>
			<path id="Shape_215_" class="st8" d="M61.7,132.6l0.5,0.2c0,0,0.1,0,0.2,0c0.2-0.9,0.2-1.8,0-2.7l-0.9-0.3
				C62,130.2,61.9,131.5,61.7,132.6z"/>
			<path id="Shape_216_" class="st8" d="M59.9,132c0.2-0.5,1.1-2.4,1.5-2.2l-0.3-0.1c-0.6,0.6-1.2,1.4-1.7,2.1v0L59.9,132z"/>
			<path id="Shape_217_" class="st8" d="M60.6,129.4c-0.5,0.7-1,1.4-1.3,2.3c0.6-0.7,1.2-1.4,1.7-2.1L60.6,129.4z"/>
			<path id="Shape_218_" class="st8" d="M61.4,129.7C61.4,129.7,61.5,129.7,61.4,129.7C61.5,129.7,61.5,129.7,61.4,129.7l1,0.4
				c-0.1-0.3-0.2-0.6-0.5-0.8c-0.1-0.1-0.3-0.2-0.4-0.2c-0.2,0.2-0.3,0.4-0.5,0.6L61.4,129.7z"/>
			<path id="Shape_219_" class="st8" d="M61.5,129c-0.1,0-0.2,0-0.4,0c-0.3,0.1-0.5,0.2-0.6,0.4l0.5,0.2
				C61.2,129.4,61.4,129.2,61.5,129z"/>
			<path id="Shape_220_" class="st8" d="M60.5,132.3l0.1-0.2l-0.6-0.2l0,0.1l0.3,0.6C60.3,132.6,60.4,132.5,60.5,132.3z"/>
			<path id="Shape_221_" class="st8" d="M61.7,132.6l-0.7-0.2c-0.1,0.4-0.2,0.8-0.3,1.3l0.5,0.8C61.4,133.9,61.6,133.2,61.7,132.6z"
				/>
			<path id="Shape_222_" class="st8" d="M61.2,131c0,0.5,0,1-0.1,1.4l0.7,0.2c0.2-1.1,0.3-2.4-0.2-2.9l-0.1,0
				c-0.4-0.1-1.3,1.8-1.5,2.2l0.6,0.2C60.7,131.7,61,131.3,61.2,131z"/>
			<path id="Shape_223_" class="st5" d="M50.5,130.7c0.2,0.6,0.3,1.1,0.4,1.8c0.1,0.2,0.2,0.4,0.2,0.6c0.1,0,0.2,0.1,0.3,0.1h0.2
				c0.2,0,0.4,0.2,0.5,0.5c0.1,0.5,0.1,1,0,1.6c0,0,0,0.1-0.1,0.1c0.2,0.5,0.2,0.7,0.2,0.7c-0.3,0.5-0.7,1-1.1,1.5
				c0.1,0.2,0.1,0.5,0.2,0.7c0.6-0.6,1.1-1.2,1.5-1.9c0.1-0.1,0.1-0.3,0.1-0.5c-0.6-2.2-1.4-4.3-2.6-6.2c0.1,0.3,0.3,0.6,0.4,1
				C50.6,130.6,50.6,130.7,50.5,130.7z"/>
			<path id="Shape_224_" class="st5" d="M36.6,143.8c-2.9-18.2,5.4-18.8,5.4-18.8c0.1,0,0.2,0,0.3,0l-0.6-0.5
				c-1.4,0.3-2.7,1.1-3.6,2.4c-2.6,3.3-3.3,9-2.1,17c0,0.3,0.3,0.5,0.6,0.5h0.1c0.1,0,0.8-0.2,1.9-0.4c0-0.2,0-0.4-0.1-0.6
				C37.4,143.6,36.6,143.8,36.6,143.8z"/>
			<path id="Shape_225_" class="st5" d="M50.3,131.1c0.2,0.5,0.5,0.9,0.6,1.4c-0.1-0.6-0.2-1.2-0.4-1.8
				C50.5,130.9,50.4,131,50.3,131.1z"/>
			<path id="Shape_226_" class="st5" d="M44.3,125L44.3,125c0,0.1,0,0.2,0,0.2c1,0.3,2,0.8,2.8,1.5l-0.7-1.3
				c-0.7-0.5-1.5-0.8-2.3-0.9C44.5,125.5,44.1,124.7,44.3,125z"/>
			<path id="Shape_227_" class="st5" d="M52,135.2c0.1-0.5,0.1-1,0-1.6c0-0.2-0.2-0.4-0.5-0.5h-0.2c-0.1,0-0.2,0-0.3-0.1
				c0.4,0.9,0.6,1.7,0.8,2.2C52,135.2,52,135.2,52,135.2z"/>
			<path id="Shape_228_" class="st5" d="M42.8,125L42.8,125C42.8,125.1,42.6,124.7,42.8,125c0.3,0,0.5,0,0.8,0c0,0,0,0,0-0.1
				l-0.6-0.5c-0.3,0-0.5,0-0.8,0c0,0-0.2,0-0.3,0l0.6,0.5C42.5,125,42.6,125,42.8,125z"/>
			<path id="Shape_229_" class="st5" d="M50.1,130.8L50.1,130.8c0.1,0.2,0.2,0.3,0.2,0.3c0.2-0.1,0.2-0.2,0.2-0.4
				c-0.1-0.4-0.3-0.8-0.4-1.1c-0.6-1-1.2-1.8-1.9-2.6c0.6,0.9,1.1,1.9,1.4,2.9L50.1,130.8z"/>
			<path id="Shape_230_" class="st5" d="M47.8,126.6l1.8,3.3c-0.4-1-0.9-2-1.4-2.9C48,126.8,47.9,126.7,47.8,126.6z"/>
			<path id="Shape_231_" class="st5" d="M42.9,124.4l0.6,0.5c0,0,0,0,0,0.1c0.3,0,0.5,0.1,0.8,0.2c0,0,0-0.1,0-0.2V125
				c-0.1-0.3,0.2,0.5-0.2-0.5C43.7,124.5,43.3,124.4,42.9,124.4z"/>
			<path id="Shape_232_" class="st5" d="M47.1,126.7c0.3,0.2,0.5,0.5,0.7,0.7c-0.4-0.6-0.8-1.3-1.2-1.8c-0.1,0-0.2-0.1-0.3-0.2
				L47.1,126.7z"/>
			<path id="Shape_233_" class="st5" d="M50.1,130.9L50.1,130.9l-0.5-1c0,0,0,0,0,0.1C49.8,130.2,50,130.6,50.1,130.9z"/>
			<path id="Shape_234_" class="st5" d="M49.6,129.9C49.6,129.9,49.6,129.9,49.6,129.9l-1.9-3.4c-0.4-0.3-0.8-0.7-1.2-1
				c0.4,0.6,0.8,1.2,1.2,1.8C48.5,128.2,49.1,129,49.6,129.9z"/>
			<path id="Shape_235_" class="st5" d="M39.9,143.1c0,0.2,0,0.4,0.1,0.6c2.7-0.7,6.5-1.9,9.5-4.1l0.1-0.8
				C46.7,141,42.7,142.3,39.9,143.1z"/>
			<path id="Shape_236_" class="st5" d="M49.5,139.6c0.2-0.2,0.4-0.3,0.6-0.4c0-0.2-0.1-0.4-0.2-0.6c-0.1,0.1-0.2,0.2-0.3,0.3
				L49.5,139.6z"/>
			<path id="Shape_237_" class="st5" d="M39.2,143.2l-0.6,0.2c0,0.2,0,0.4,0.1,0.6l0.6-0.2C39.3,143.6,39.3,143.4,39.2,143.2z"/>
			<path id="Shape_238_" class="st5" d="M39.9,143.1l-0.7,0.2c0,0.2,0,0.4,0.1,0.6l0.7-0.2C39.9,143.4,39.9,143.3,39.9,143.1z"/>
			<path id="Shape_239_" class="st5" d="M51.7,135.4c-0.1,0-0.1,0-0.2-0.1c-0.2-0.2-0.3-0.4-0.4-0.6c0.2,0.5,0.3,1,0.4,1.2
				c-0.2,0.3-0.4,0.6-0.6,0.9v0.2c0,0.2,0.1,0.3,0.2,0.5c0.5-0.5,0.8-1,1.1-1.5c0,0-0.1-0.3-0.2-0.7
				C51.9,135.3,51.8,135.4,51.7,135.4z"/>
			<path id="Shape_240_" class="st5" d="M37.1,143.1c-1.3-9.1,0.3-13.5,1.9-15.5c1.4-1.9,3.1-2,3.2-2c0.2,0,0.4,0,0.6,0
				c0-0.1,0-0.2,0-0.2l-0.2-0.1l-0.3-0.2c-0.1,0-0.2,0-0.3,0c0,0-8.3,0.5-5.4,18.8c0,0,0.8-0.1,1.9-0.4c0-0.2,0-0.4,0-0.6
				C38,142.9,37.5,143,37.1,143.1z"/>
			<path id="Shape_241_" class="st5" d="M50.2,131.1l0.7,1.9H51c0-0.2,0-0.3-0.1-0.5C50.7,132,50.5,131.5,50.2,131.1
				C50.3,131.1,50.3,131.1,50.2,131.1z"/>
			<path id="Shape_242_" class="st5" d="M44.3,125.5c0,0.1,0.1,0.3,0.2,0.4c1.6,0.5,2.9,1.8,4,3.3c-0.3-0.5-0.6-1-0.8-1.4l-0.5-1
				c-0.8-0.7-1.7-1.3-2.8-1.5C44.3,125.3,44.3,125.4,44.3,125.5z"/>
			<path id="Shape_243_" class="st5" d="M50,131.2c0.1,0.5,0.2,1,0.3,1.4l0.1,0.2c0.2,0.1,0.3,0.1,0.5,0.2l-0.7-1.9c0,0,0,0,0,0
				C50.2,131.2,50.1,131.2,50,131.2z"/>
			<path id="Shape_244_" class="st5" d="M49.7,131c-0.2-0.3-0.4-0.6-0.6-0.8l0,0.1c0.5,0.8,0.8,1.6,1.2,2.4c-0.1-0.5-0.2-1-0.3-1.4
				C49.9,131.2,49.8,131.1,49.7,131z"/>
			<path id="Shape_245_" class="st5" d="M51,133.2l0.2,0.6c0,0,0.1,0,0.2,0l0.4,1.4l-0.6-1.5l-0.2,0c0,0.2,0,0.3,0,0.5l0.3,0.2
				c-0.1,0-0.2,0-0.3-0.1c0,0,0,0,0,0.1l0.1,0.3c0.1,0.2,0.3,0.4,0.4,0.6c0,0,0.1,0.1,0.2,0.1c0.1,0,0.2,0,0.2-0.1
				c-0.2-0.5-0.4-1.3-0.8-2.2l-0.2,0C51,133.1,51,133.1,51,133.2z"/>
			<path id="Shape_246_" class="st5" d="M43,125.5L43,125.5L43,125.5l-0.2-0.1l-0.1-0.1c0,0.1,0,0.2,0,0.2l0,0c0.3,0,0.5,0,0.8,0.1
				c0-0.2-0.1-0.4-0.1-0.6c-0.2,0-0.5,0-0.7,0L43,125.5L43,125.5z"/>
			<path id="Shape_247_" class="st5" d="M51.4,133.8c0,0-0.1,0-0.2,0l0.6,1.5L51.4,133.8z"/>
			<path id="Shape_248_" class="st5" d="M48.4,129.1c0.2,0.3,0.4,0.6,0.6,0.9l0.1,0.2c-0.4-1-0.8-1.9-1.3-2.7
				c-0.2-0.2-0.5-0.5-0.7-0.7l0.5,1C47.9,128.2,48.1,128.6,48.4,129.1z"/>
			<path id="Shape_249_" class="st5" d="M44.4,125.9c0-0.1-0.1-0.3-0.2-0.4c0-0.1,0-0.2,0-0.3c-0.3-0.1-0.5-0.1-0.8-0.2
				c0,0.2,0,0.4,0.1,0.6C43.9,125.7,44.2,125.8,44.4,125.9z"/>
			<path id="Shape_250_" class="st5" d="M50,131.2c0.1,0,0.1,0,0.2,0c0,0,0,0,0,0l-0.1-0.3c-0.2-0.3-0.3-0.6-0.5-0.9
				C49.8,130.4,49.9,130.7,50,131.2z"/>
			<path id="Shape_251_" class="st5" d="M50.8,133.7c0.1,0,0.2,0,0.3,0c0-0.2,0-0.4,0-0.6l-0.1-0.2c-0.2,0-0.3-0.1-0.5-0.2
				C50.6,133.1,50.7,133.4,50.8,133.7z"/>
			<path id="Shape_252_" class="st5" d="M49.7,131c0.1,0.1,0.2,0.2,0.3,0.2c-0.1-0.4-0.2-0.8-0.4-1.2c-0.5-0.9-1.1-1.8-1.9-2.5
				c0.5,0.9,1,1.8,1.3,2.7C49.3,130.4,49.5,130.7,49.7,131z"/>
			<path id="Shape_253_" class="st5" d="M39.9,143.1c2.8-0.7,6.7-2.1,9.6-4.2l0.1-0.8c-2.7,2.3-6.8,3.7-9.7,4.5
				C39.9,142.7,39.9,142.9,39.9,143.1z"/>
			<path id="Shape_254_" class="st5" d="M38.5,142.8c0,0.2,0,0.4,0,0.6l0.6-0.2c0-0.2,0-0.4-0.1-0.6L38.5,142.8z"/>
			<path id="Shape_255_" class="st5" d="M50.8,136.8c-0.2,0.2-0.4,0.4-0.6,0.6c0.1,0.2,0.1,0.4,0.2,0.6c0.1-0.1,0.2-0.2,0.4-0.4
				l0.1-0.7L50.8,136.8z"/>
			<path id="Shape_256_" class="st5" d="M39.9,142.5l-0.7,0.2c0,0.2,0,0.4,0.1,0.6l0.7-0.2C39.9,142.9,39.9,142.7,39.9,142.5z"/>
			<path id="Shape_257_" class="st5" d="M49.7,137.9c0,0.2,0.1,0.4,0.2,0.6l0.3-0.3l0.1-0.8C50.1,137.6,49.9,137.8,49.7,137.9z"/>
			<path id="Shape_258_" class="st11" d="M57,97.6c-0.5,0-0.9,0-1.4,0h0c-0.1,0-0.2-0.1-0.2-0.2c0,0,0-0.1,0-0.1l0,0l0,0
				c0.3-0.5,1-0.8,1.6-0.8c0.5,0,1,0.1,1.4,0.3c0.1-0.1,0.2-0.2,0.2-0.2c0.6-0.7,1.2-1.5,1.5-2.4c0.1-0.3,0.2-0.6,0.3-0.8
				c0.1-0.3,0.2-0.6,0.2-0.9v-0.1c-0.3-3.6-5.4-4.6-5.6-4.7l0,0c-8.9-4.7-21,3.6-20.8,8.6c-3.1,1.3-4.5,4.8-4.5,8.2
				c-1.7,0.9-3,2.3-3.7,4c-0.4,1.1-0.4,2.4,0,3.5c-1.7,0.6-3,1.9-3.6,3.6c-0.5,1.4-0.6,3-0.4,4.5c-1.7,1.3-2.5,3.4-2.3,5.5l0.8,2.1
				c0.3,0.5,0.8,1,1.3,1.3c0.2,0.1,0.3,0.2,0.5,0.3c0.1,0,0.2,0.1,0.3,0.2c0.1,0,0.2,0,0.2,0.1c0.2,0.1,0.5,0.1,0.7,0.2
				c0.3,0,0.6,0,0.8,0c0.3,0,0.7-0.1,1.1-0.2c0.2,0,0.3-0.1,0.5-0.2c0.2-0.1,0.3-0.2,0.5-0.2c0.2-0.1,0.3-0.2,0.4-0.2
				s0.3-0.2,0.4-0.3c0.2-0.2,0.5-0.4,0.6-0.6c0-0.4,0-0.8,0-1.2c0,0,0-0.1,0-0.2c0,0,0,0,0,0c0-0.2,0-0.5,0-0.7c0-0.1,0-0.2,0-0.2
				s0-0.1,0-0.1s0-0.1,0-0.2c0-0.1,0-0.1,0-0.1H28h0l0.2,0c0,0,0,0,0.1,0c0.1-0.1,0.2-0.2,0.3-0.4c0.1,0.1,0.1,0.1,0.2,0.2
				c0.1,0.1,0.1,0.1,0.2,0.2c0.1,0.1,0.2,0.2,0.3,0.3c1.3,1,2.5-0.2,2.5-0.2c0.8-2,3.1-2.7,4.7-3c0.6-0.1,1.3-0.2,1.9-0.2
				c0.2,0,0.4-0.1,0.5-0.2c0.2-0.2,0.4-0.3,0.6-0.6c0.2-0.2,0.3-0.5,0.4-0.7c0,0,0-0.1,0.1-0.2c0.1-0.3,0.2-0.5,0.2-0.5
				c0-0.1,0.1-0.2,0.2-0.2c0.2-0.2,0.5-0.3,0.7-0.3l0,0c0.3-0.1,0.6-0.2,1-0.2l0.2,0c0.1,0,0.3,0,0.4,0c0.2,0,0.3,0,0.5,0h0l0,0
				c0.3,0,0.5-0.1,0.8-0.2c0.3-0.1,0.5-0.2,0.7-0.3c2.1-1.3,1.5-4.6,1.5-4.6c0-0.5,0-1,0-1.4c0-0.6,0.1-1.3,0.2-2
				c0.5-2.5,1.8-3.6,1.8-3.6c2.4-3.8,1.4-6.3,1-7.2c2.5-1.5,6-1.9,6-1.9h0c0.8-0.1,1.6-0.3,2.3-0.8H57z"/>
			<path id="Shape_259_" class="st11" d="M67.5,117.9l-4.4-1.6l-1.6-0.6c-0.7-0.2-1.4,0.1-1.7,0.8l-4.3,12.4
				c-0.2,0.7,0.1,1.4,0.8,1.7l0,0l1.6,0.6l0.7,0.2l0.7,0.2l0,0v0c0.3-0.8,0.7-1.6,1.3-2.3l-0.2-0.1l-0.7-0.3l-2.7-1l3.3-9.3l0.5-1.5
				L63,118l4,1.4v0l-1.7,4.8l-0.3,0.8l-0.3,1l-1.5,4.2l-0.2-0.1l-0.6-0.2c0.2,0.9,0.2,1.8,0,2.7c0.6,0.1,1.3-0.2,1.5-0.8l2.1-6.1
				l0.3-0.7l0.2-0.7l1.7-4.9C68.5,118.9,68.1,118.1,67.5,117.9z"/>
			<path id="Shape_260_" class="st11" d="M191,193.5c-4.2,0.9-15.8,2.7-18.7,0.5c-0.3-0.2-0.5-0.5-0.5-0.9c0-0.8-0.2-1.9-0.3-3.3
				c-0.8-8.5-2.5-28.3,1.1-50.8c0.1-0.5-0.2-0.9-0.7-1c-0.3,0-0.6,0.1-0.8,0.3c-0.1,0.1-0.2,0.2-0.2,0.4
				c-3.6,22.7-1.9,42.7-1.1,51.3c0.1,1.4,0.2,2.5,0.3,3.2c0,0.8,0.5,1.6,1.2,2.1c0.6,0.4,1.2,0.7,1.8,0.8c0-0.1,0-0.2,0-0.3
				c0-0.5,0.4-0.8,0.8-0.8c0.4,0,0.7,0.3,0.8,0.7c0,0,0,0,0,0.1c0,0,0,0,0,0.1c0,0.2,0,0.5,0,0.7c1.1,0.2,2.2,0.2,3.3,0.2
				c4.5,0,9.7-0.9,12.1-1.3c0.5-0.1,1-0.2,1.1-0.2c0.4-0.1,0.7-0.5,0.6-1c0,0,0,0,0-0.1C191.9,193.7,191.4,193.4,191,193.5z"/>
			<path id="Shape_261_" class="st11" d="M218.6,166.7c0-0.5-0.3-0.8-0.8-0.8c0,0,0,0-0.1,0h0c-0.5,0-0.8,0.4-0.8,0.9l1.4,25.6
				c-7.7,1.1-19.9,2.2-22.3,0.6c-1.3-1.5-1.6-18.5-1.1-34.1c0-0.5-0.3-0.8-0.8-0.9c-0.4,0-0.8,0.3-0.9,0.7c0,0,0,0.1,0,0.1
				c-0.3,9.5-0.8,30.8,1.3,34.9c0.1,0.2,0.3,0.4,0.5,0.6c0.6,0.5,1.8,0.7,3.2,0.9l0-0.3c0-0.5,0.3-0.9,0.8-0.9
				c0.4,0,0.8,0.3,0.9,0.7l0,0l0.1,0.6c0.6,0,1.3,0,2,0c4.8,0,10.6-0.6,14.2-1.1c1.5-0.2,2.7-0.4,3.1-0.4c0.4-0.1,0.7-0.5,0.7-0.9
				L218.6,166.7z"/>
			<path id="Shape_262_" class="st11" d="M216.6,153.8L216.6,153.8c0.5,0,0.9-0.5,0.8-0.9l-1.8-22.1c0-0.1,0-0.1,0-0.2
				c0,0.1,0,0.2,0,0.2c0,0.4-0.3,0.8-0.8,0.8c0,0,0,0-0.1,0H214l1.7,21.4C215.8,153.5,216.1,153.8,216.6,153.8z"/>
			<path id="Shape_263_" class="st11" d="M208.8,158.4L208.8,158.4l0.6,0c0,1.3,0.6,2.5,1.5,3.4c1.2,1.1,2.7,1.7,4.3,1.7
				c0.2,0,0.5,0,0.7,0l1.6-0.4l0.2,0c0.5-0.1,0.7-0.6,0.6-1c-0.1-0.4-0.5-0.6-0.9-0.6c0,0,0,0-0.1,0l-1.6,0.5
				c-1.3,0.2-2.6-0.3-3.6-1.2c-0.6-0.6-1-1.4-1-2.4l5.9-0.6l1.1-0.1c0.5-0.1,0.8-0.5,0.7-1c-0.1-0.4-0.5-0.7-0.9-0.7l-1.1,0.1
				l-8.2,0.9c-0.5,0.1-0.8,0.5-0.7,1C208,158.1,208.3,158.4,208.8,158.4L208.8,158.4z"/>
			<path id="Shape_264_" class="st12" d="M20.9,136.3c-0.5,0.8-0.9,1.6-1.2,2.5c-0.3,0.7-0.2,1.5,0.2,2.2c0.5,0.9,1.5,1.8,2.7,2.5
				c0.2-1.7,0.4-3.3,0.6-4.8C23.1,138.1,22.1,137.1,20.9,136.3z"/>
			<path id="Shape_265_" class="st12" d="M53.5,115.7c-1.1,0.3-2.2,0.5-3.3,0.5c-0.5,0-1,0-1.4-0.1c0,0,0,0-0.1,0c0,0.2,0,0.2,0,0.2
				C50.7,116.6,52.3,116.4,53.5,115.7z"/>
			<path id="Shape_266_" class="st12" d="M58.6,99.7h-0.2l-2,0.2c-0.3,0-0.6,0.2-0.8,0.5c-0.2,0.2-0.2,0.5-0.2,0.8l0.2,0.6
				c0.3,1,1.3,1.6,2.2,1.4l0.5-0.1c0.4-0.1,0.8-0.3,1.1-0.6c0.5-0.4,0.7-1,0.6-1.6c-0.1-0.6-0.6-1.1-1.3-1.3
				C58.8,99.7,58.7,99.7,58.6,99.7z M57.8,103c-0.5,0-0.8-0.4-0.8-0.8l0,0v-1.4c0-0.5,0.3-0.8,0.8-0.8c0.5,0,0.8,0.3,0.8,0.8l0,0
				v1.4C58.6,102.6,58.2,103,57.8,103L57.8,103z"/>
			<path id="Shape_267_" class="st12" d="M61.5,106.6c0.2-0.1,0.5-0.2,0.7-0.3c0.3-0.1,0.6-0.3,0.8-0.4c0.3-0.1,0.5-0.4,0.6-0.7
				c0.1-0.5-0.2-1-0.6-1.6c-0.1-0.2-0.3-0.4-0.4-0.6c-0.6-0.8-1.2-1.8-1.6-2.7l-0.2,0l0,0c0.1,0.2,0.2,0.4,0.2,0.6
				c0.1,1-0.3,2.1-1.2,2.7c-0.4,0.3-0.9,0.5-1.4,0.6l-0.5,0.1c-0.2,0-0.3,0-0.5,0c-1.4,0-2.6-0.9-2.9-2.2l-0.2-0.6
				c-0.1-0.6,0-1.1,0.3-1.6c0.3-0.5,0.9-0.8,1.5-0.9l2-0.2c0.2,0,0.4,0,0.6,0c0.6,0,1.1,0.3,1.5,0.7c0,0,0.1-0.1,0.2-0.1l0.3-0.2
				c-0.1-0.5-0.2-1.1-0.2-1.6c0-1.1-0.2-2.1-0.5-3.1c-0.3,0.9-0.9,1.7-1.5,2.4c-0.1,0.1-0.2,0.2-0.2,0.2c0.1,0.1,0.2,0.2,0.3,0.3
				l0,0c0.1,0.1,0.1,0.2,0,0.3c0,0,0,0.1,0,0.1c-0.1,0.1-0.2,0.1-0.3,0.1l-0.2,0c-0.2,0-0.5,0-0.9,0c-0.7,0.4-1.5,0.7-2.3,0.8h0
				c0,0-3.4,0.4-6,1.9c0.4,0.8,1.3,3.3-1,7.2c0,0-1.3,1-1.8,3.6c-0.1,0.6-0.2,1.3-0.2,2c0,0.5,0,1,0,1.4c0,0,0.6,3.3-1.5,4.6
				l1.7,3.2c0.2-2.2,1-4.3,2.4-6.1l0.1-0.2l0.1-0.1c0-0.3,0-0.5-0.1-0.8c0.1,0,0.2,0,0.2,0c0,0,0.1,0,0.2,0c2.6,0.3,5.3-0.5,7.4-2.1
				c0.8-0.6,1.6-1.4,2.2-2.3c-0.3,0-0.6-0.1-0.8-0.2c-0.4-0.2-0.8-0.4-1.2-0.6c-0.3-0.2-0.3-0.6-0.2-0.9c0.2-0.3,0.6-0.3,0.9-0.2
				c0.3,0.2,0.7,0.4,1.1,0.5c0.3,0.1,0.6,0.2,1,0.2c0.2-0.3,0.3-0.6,0.5-1c0.1-0.2,0.2-0.4,0.3-0.6
				C60.5,107.3,60.9,106.8,61.5,106.6z"/>
			<path id="Shape_268_" class="st12" d="M60.2,214.6c2,9.7,5,15,6.7,20.2c0.3,0.1,3.5,1.6,5.4,1c0.9-0.3,2-1,1.9-1.5
				c0-0.2,0.1-0.4,0.3-0.5l-2-20.9C68.4,213.8,64.3,214.4,60.2,214.6z"/>
			<path id="Shape_269_" class="st12" d="M45.4,214.2c-1.8,5.4-0.2,13.7-0.1,19.5c0,0,0-0.1,0-0.1s2.6,1.9,4.7,1.5
				c1-0.2,2.4-0.7,2.4-1.3c0-0.1,0-0.1,0-0.2c0.8-4.9,2.5-12.2,4.1-18.9c-0.8,0-1.5,0-2.2,0C51.3,214.8,48.3,214.6,45.4,214.2z"/>
			<path id="Shape_270_" class="st12" d="M174,213.5c0,4.6-0.2,9.2-0.4,12.3C174.3,222.9,174.3,218.4,174,213.5z"/>
			<path id="Shape_271_" class="st12" d="M174.8,196.5c0,2.6,0.2,5.4,0.4,8.5c0,0.5,0.1,1,0.1,1.4c0.5,8,1.1,16.3-0.3,20.6
				c-0.1,0.3-0.4,0.6-0.8,0.6c-0.1,0-0.2,0-0.2,0c-0.2-0.1-0.4-0.2-0.5-0.4c0,0.8-0.2,1.6-0.5,2.4c-0.8,1.5-7.6,2.9-10.2,4.2
				c-2.4,1.2-0.6,2.4-0.6,2.4l22.9-0.3c2.3-9.3,3.6-22,4.4-30.9c0.3-4.4,0.6-7.9,0.7-9.6c-2.4,0.5-7.6,1.3-12.1,1.3
				C177,196.7,175.9,196.6,174.8,196.5z"/>
			<path id="Shape_272_" class="st12" d="M223.7,232.9c-2.5-1.3-9.4-2.7-10.2-4.2c-0.9-1.8,0.3-14.1,1.4-23.7
				c0.5-4.7,1.1-8.8,1.3-10.6c-3.6,0.5-9.5,1.1-14.2,1.1c-0.7,0-1.4,0-2,0c0.3,3.2,0.7,6.4,1.1,9.6c1.9,16,3.9,29.7,4,29.9
				c0,0,0,0.1,0,0.2l19.2,0.3C224.3,235.3,226.1,234.2,223.7,232.9z"/>
			<path id="Shape_273_" class="st12" d="M233.9,50.4c-2.5,3.7-5,8.1-5,8.1c0.8-1.1,1.4-2.2,2.1-3.4l0.2,0.2
				C231.8,54.6,232.9,52.4,233.9,50.4L233.9,50.4z"/>
			<path id="Shape_274_" class="st12" d="M242.3,51.6c-0.2,0.2-0.4,0.5-0.6,0.6c-0.8,0.7-1.9,1.2-3,1.4c-0.3,0-0.5-0.1-0.7-0.3
				c-0.1-0.1-0.2-0.3-0.2-0.4c0-0.1,0-0.2,0-0.3c0.2-0.8,0.3-1.6,0.4-2.4c0.2-1.5,0.2-3-0.1-3.8c-0.6,0.8-1.1,1.7-1.6,2.6
				c-0.4,0.8-0.8,1.5-1.1,2.2c-0.7,1.5-1.4,2.9-2.1,4c-0.3,0.5-0.6,1-1,1.4l4,4.2c0.2-0.1,0.3-0.2,0.5-0.2c1.1,0,5.8-1.7,8.9-6.7
				c0.1-0.2,0.2-0.3,0.3-0.6C244.7,53,243.4,52.4,242.3,51.6z"/>
			<path id="Shape_275_" class="st12" d="M186.5,66.8c-1.6-0.9-2.5-2.5-2.5-4.3l0.2-2.3l-3-1c0,0.8,0.2,1.6,0.3,2.3
				c0.8,4,1.8,7,6.2,7.8c0.4,0.1,0.6,0.3,0.7,0.7l0.5,4.6c0,0.3-0.1,0.6-0.4,0.8c3.2-0.1,6.4,0,9.5,0.2v-7c-0.5,0.2-1,0.4-1.4,0.5
				C192.2,70.2,188.7,68.1,186.5,66.8z"/>
			<path id="Shape_276_" class="st12" d="M184.7,54.9c0,0-1.9,0.2-3.2-0.5c-0.2,1-0.4,2-0.4,3l3.2,1.1L184.7,54.9z"/>
			<path id="Shape_277_" class="st12" d="M152.8,76.3c0-2.1-0.4-4.1-1.2-6.1c-0.5,0.2-1.1,0.4-1.6,0.6c0,1.1-0.3,2.2-1.4,2.5
				c-0.2,0-0.3,0.1-0.5,0.1c-0.5,0.1-0.9,0-1.3-0.3h0c-0.4-0.3-0.8-0.8-1-1.3c-0.5-1.3-0.7-3.1-0.8-4.8c0-0.7-0.1-1.4-0.2-2.2
				c-0.5,0.2-1.7,1.4-2.4,3.7c-0.4,1.2-0.5,2.4-0.4,3.7c0.2,2.2,1.3,4.1,3,5.4c0.5,0.4,1.1,0.8,1.6,1.1l0.2,0.1
				c0.4,0.2,0.6,0.7,0.4,1.1l0,0c-0.1,0.2-0.3,0.3-0.5,0.4l1,0.9l5.8-4.1v0C153.1,77.1,152.8,76.7,152.8,76.3z"/>
			<path id="Shape_278_" class="st11" d="M260.8,3.2c-13.9-4.3-28.7,3.5-33,17.4c-1.6,5-1.6,10.3-0.1,15.3c0.2,0.6,0.4,1.1,0.6,1.7
				c0.2,0.5,0.4,1.1,0.7,1.7c1.5,3.2,3.6,6.2,6.2,8.6c1.2-2.2,1.9-3.2,2.8-3.3c0.4,0,0.8,0.1,1.1,0.5c1.1,1.3,0.9,4.3,0.6,6.2
				c0.1,0.1,0.2,0.1,0.3,0.2c0.4-0.2,0.7-0.5,1-0.9c0.3-0.4,0.8-0.4,1.2-0.2c0.3,0.3,0.4,0.8,0.2,1.1c0,0,0,0.1-0.1,0.1
				c1.1,0.8,2.4,1.4,3.7,1.6c0-0.1,0.1-0.2,0.2-0.2c0.2-0.4,0.8-0.5,1.1-0.3c0.3,0.2,0.5,0.7,0.3,1.1c-0.1,0.2-0.2,0.3-0.3,0.4
				c12.2,2.7,24.6-3.5,29.7-14.9c0.3-0.5,0.5-1.1,0.7-1.7s0.4-1.1,0.6-1.7C282.4,22.1,274.6,7.5,260.8,3.2L260.8,3.2z M242.2,35.3
				c2.3,0.2,4.6-0.4,6.5-1.9c-1.1,0-2.2-0.5-3-1.3c-0.5-0.5-0.9-1.1-1.1-1.8c0.6,0.1,1.3,0.1,1.9-0.1c-2.2-0.7-3.4-2.1-3.5-4.5
				c0.6,0.3,1.3,0.5,2,0.5c-1.2-0.8-2-2.2-1.9-3.7c0-0.8,0.2-1.5,0.6-2.2c2.3,2.8,5.6,4.5,9.2,4.6c0-0.5-0.1-0.9,0-1.3
				c0.2-2.5,2.3-4.3,4.8-4.1c1,0.1,1.8,0.4,2.5,1c0,0,0,0,0.1,0.1c0.2,0.3,0.5,0.3,0.8,0.2c0.6-0.2,1.3-0.4,1.9-0.8l0.4-0.2
				c-0.3,1-1,1.9-1.9,2.4c0.8-0.1,1.6-0.3,2.4-0.6l0,0.1c-0.3,0.4-0.7,0.8-1.1,1.2c-0.3,0.3-0.6,0.6-1,0.9c-0.1,0.1-0.2,0.2-0.2,0.3
				c0.1,3.2-1,6.2-3,8.6c-1.9,2.4-4.7,4-7.8,4.3c-0.2,0-0.4,0-0.6,0c-2.2,0.2-4.4-0.1-6.4-1c-0.2-0.1-0.3-0.2-0.5-0.3L242.2,35.3
				L242.2,35.3z"/>
			<path id="Shape_279_" class="st11" d="M147.6,71.6c0.3-0.1,0.5-0.1,0.8-0.2c0.6-0.2,1.1-0.3,1.7-0.6c0.6-0.2,1.1-0.4,1.6-0.6
				c0.5-0.2,0.9-0.4,1.3-0.6l0.2-0.1c10.9-5.7,15.8-18.7,11.4-30.2c-0.2-0.6-0.5-1.1-0.7-1.7c-0.3-0.6-0.5-1.1-0.9-1.7
				c-6.6-11.7-21.5-15.8-33.2-9.2c-11.7,6.6-15.8,21.5-9.2,33.2c4.1,7.2,11.4,11.8,19.7,12.3c-0.1-1.9,0.3-3.8,1.1-5.4
				c1.2-2.6,3-4,4.3-3.4c0.9,0.3,1,1.5,1.1,3.7C146.8,68.3,147,70.7,147.6,71.6C147.6,71.6,147.6,71.6,147.6,71.6z M144.2,49.2h-0.3
				v12.4h-5V49.2h-4.1v-4.8h4.1c0-0.1,0-0.2,0-0.3c0-1.3,0-2.6,0-3.9c0-0.9,0.2-1.7,0.6-2.5c0.1-0.2,0.2-0.4,0.3-0.6
				c0.2-0.3,0.3-0.5,0.6-0.7c0,0,0-0.1,0.1-0.1c0.9-1,2.1-1.5,3.3-1.7c1.3-0.2,2.5-0.2,3.8,0c0.3,0,0.6,0,1,0.1c0.1,0,0.2,0,0.2,0.2
				c0,0.4,0,0.8,0,1.2c0,0.6,0,1.1,0,1.7c0,0.4,0,0.8,0,1.2c0,0,0,0.1,0,0.1c-0.6,0-1.3,0-1.9,0c-0.4,0-0.8,0-1.3,0
				c-0.3,0-0.7,0.2-1,0.3c-0.4,0.3-0.6,0.8-0.7,1.2c0,0.3,0,0.6,0,1c0,0.8,0,1.7,0,2.5v0.3h4.8c-0.1,0.5-0.1,1-0.2,1.5
				c-0.1,1-0.3,2-0.4,3c0,0.2-0.1,0.3-0.3,0.3C146.6,49.1,145.4,49.2,144.2,49.2L144.2,49.2z"/>
			<path id="Shape_280_" class="st13" d="M236.8,62.2c-0.5,0-0.8-0.3-0.9-0.8c0-0.3,0.1-0.6,0.4-0.7l-4-4.2c0,0-0.1,0.1-0.1,0.1
				c-0.3,0.3-0.9,0.3-1.2-0.1l0,0c-0.3-0.3-0.3-0.9,0.1-1.2l0,0l0,0l-0.2-0.2c-0.6,1.2-1.3,2.3-2.1,3.4C223.9,66,214,75,206.4,76.9
				c-0.2-0.1-0.4-0.2-0.6-0.2c-1.1-0.4-4.2-0.8-7.8-1.1c-3.2-0.2-6.4-0.3-9.5-0.2c-0.3,0-0.5,0-0.8,0h-0.2c-2.1,0.1-3.7,0.3-4.7,0.8
				c-2.5,1.1-4.2,1.9-5.3,2.9c-4.5,3.5-8.6,7.2-12.6,11.3l-9.3-14.6l-1.1,0.8l-0.8,0.6l0,0l-5.8,4.1l-0.6,0.4
				c0,0,7.2,26.3,18.3,25.8c0.9,0,1.8-0.2,2.7-0.3c0-0.3,0.2-0.7,0.5-0.8l7.2-3.2h0c0.4-0.2,0.9,0,1.1,0.4l0,0
				c0.2,0.4,0,0.9-0.4,1.1l-0.6,0.3l0.9,25.5l37.1-0.4l-0.9-37.4c13.8-7,26.1-29.1,26.1-29.1l-1.4-1.4
				C237.4,62.1,237.1,62.2,236.8,62.2z"/>
			<path id="Shape_281_" class="st13" d="M185.9,51.2c1.7,4,5.2,8,9.6,9.1c2.1,0.5,4.2,0.3,6.2-0.4c0.1,0,0.2,0,0.2-0.1
				c0.5-0.2,0.9-0.4,1.3-0.6l0.1,0c9.7-5.9-3.9-22.9-15.8-17.7c-1.5,0.6-2.3,1.9-2.6,3.5c-0.1,0.6-0.2,1.1-0.1,1.7
				c0,0.6,0.1,1.3,0.3,1.9C185.2,49.4,185.5,50.3,185.9,51.2z"/>
			<g id="Group" transform="translate(17.878233, 44.518868)">
				<path id="Shape_282_" class="st14" d="M1.9,96.5c-0.4-0.7-0.4-1.5-0.2-2.2c0.3-0.9,0.8-1.7,1.2-2.5c-0.2-0.2-0.4-0.3-0.6-0.4
					l0,0c-0.2-0.1-0.4-0.3-0.6-0.4c-0.5,0.9-1,1.8-1.4,2.8c-0.4,1.1-0.3,2.4,0.2,3.4c0.6,1.1,1.6,2,2.9,2.8l0,0
					c0.3,0.2,0.6,0.4,1,0.6c0-0.2,0-0.4,0-0.6l0,0c0-0.1,0-0.1,0-0.2c-2.4-1.4-4.1-3.2-3.6-5.3c-0.5,2.2,1.3,4,3.6,5.3
					c0-0.3,0-0.5,0.1-0.8C3.4,98.2,2.4,97.4,1.9,96.5z"/>
				<path id="Shape_283_" class="st14" d="M43.5,54.3l0.2,0c0.2-0.1,0.3-0.1,0.5,0c-0.1-0.4-0.2-0.9-0.2-1.3c0-1.7-0.4-3.4-1.2-4.9
					c0,0.3-0.1,0.6-0.2,0.9c0.5,1.3,0.8,2.6,0.8,4C43.3,53.4,43.4,53.8,43.5,54.3z"/>
				<path id="Shape_284_" class="st14" d="M30.9,71.6C30.9,71.6,30.9,71.6,30.9,71.6C30.9,71.6,31,71.6,30.9,71.6
					c0.5,0.1,1,0.2,1.5,0.2c1.1,0,2.2-0.2,3.3-0.5l0,0c3.4-1,6.2-3.6,7.8-7.5c0.2-0.4,0.8-0.7,1.4-1l0.4-0.2v-0.6
					c0.6-0.3,1.1-0.6,1.1-1.3c0.1-0.9-0.5-1.7-1.1-2.7l0,0l0,0v-1c-0.4-0.6-0.7-1.2-0.9-1.9c-0.1,0.1-0.2,0.1-0.2,0.2l-0.3,0.2l0,0
					l-0.2,0.1l-0.4,0.1c0.4,1,0.9,1.9,1.6,2.7c0.2,0.2,0.3,0.4,0.4,0.6l0,0c0.4,0.6,0.6,1.1,0.6,1.6c-0.1,0.3-0.3,0.6-0.6,0.7l0,0
					c-0.3,0.2-0.5,0.3-0.8,0.4c-0.2,0.1-0.5,0.2-0.7,0.3c-0.6,0.2-1,0.7-1.3,1.3c-0.1,0.2-0.2,0.4-0.3,0.6l0,0
					c-0.2,0.3-0.3,0.7-0.5,1c-0.2,0.4-0.5,0.8-0.8,1.2c0.2,0,0.4,0.1,0.6,0.1c-1,1.5-2.4,2.8-4,3.7l0,0c1.6-0.9,2.9-2.1,3.9-3.7
					c-0.2,0-0.4,0-0.6-0.1c-0.6,0.9-1.3,1.7-2.2,2.3c0,0,0,0,0,0c-2.1,1.6-4.7,2.4-7.3,2.1c0,0-0.1,0-0.2,0c-0.1,0-0.2,0-0.2,0
					c0,0.3,0.1,0.5,0.1,0.8l-0.1,0.1c0,0,0,0,0,0.1v0l-0.1,0.2c0,0,0.1,0,0.2,0.1C30.9,71.6,30.9,71.6,30.9,71.6z M42.9,63.4
					c0.3-0.2,0.5-0.4,0.6-0.6l0,0l0,0C43.4,63,43.2,63.3,42.9,63.4L42.9,63.4z M42.9,63.5L42.9,63.5L42.9,63.5L42.9,63.5z
					 M42.1,65.1L42.1,65.1c-0.2,0.4-0.4,0.7-0.6,1l0,0C41.7,65.8,41.9,65.5,42.1,65.1z"/>
				<path id="Shape_285_" class="st14" d="M46.3,60.7c-0.1,0.6-0.6,1-1.1,1.3v0.6c0.8-0.4,1.6-0.8,1.7-1.9c0.1-1.1-0.5-2-1.2-3
					c-0.2-0.3-0.4-0.5-0.5-0.8v1C45.9,58.9,46.4,59.7,46.3,60.7z"/>
				<path id="Shape_286_" class="st14" d="M42.9,54.5l0.2-0.1l0.4-0.1c-0.1-0.5-0.1-0.9-0.1-1.4c0-1.4-0.3-2.7-0.8-4
					c-0.1,0.3-0.2,0.6-0.3,0.8c0.3,1,0.5,2.1,0.5,3.1C42.8,53.5,42.8,54,42.9,54.5z"/>
				<path id="Shape_287_" class="st14" d="M40.3,65.1c-0.1,0.3-0.2,0.5-0.3,0.8c0.3,0.1,0.5,0.2,0.8,0.2c0.3-0.4,0.5-0.8,0.8-1.2
					c-0.3,0-0.7-0.1-1-0.2C40.5,64.8,40.4,64.9,40.3,65.1z"/>
				<path id="Shape_288_" class="st14" d="M38.7,65.2c0.4,0.3,0.8,0.5,1.2,0.6c0.1-0.3,0.2-0.5,0.3-0.8c0.1-0.2,0.2-0.3,0.3-0.4
					c-0.4-0.1-0.8-0.3-1.1-0.5c-0.3-0.2-0.7-0.2-0.9,0.2C38.4,64.6,38.5,65,38.7,65.2z"/>
				<path id="Shape_289_" class="st14" d="M39.1,57.6c0,0.5,0.3,0.8,0.8,0.8s0.8-0.3,0.8-0.8l0,0v-1.4c0-0.5-0.3-0.8-0.8-0.8l0,0
					c-0.5,0-0.8,0.4-0.8,0.8c0,0,0,0,0,0V57.6z"/>
				<path id="Shape_290_" class="st14" d="M135.1,25.1l0.6,7.5h0l0.8-0.6c0-0.1,0-0.2,0-0.2c0-2.3-0.4-4.6-1.4-6.8L135.1,25.1z"/>
				<path id="Shape_291_" class="st14" d="M130.2,27.3c0.4-0.2,0.9,0.1,1.1,0.5c0.2,0.4,0,0.8-0.4,1c1-0.4,1.3-1.4,1.3-2.5
					c-0.6,0.2-1.1,0.4-1.7,0.6C130.4,27.1,130.4,27.2,130.2,27.3z"/>
				<path id="Shape_292_" class="st14" d="M133.8,25.7c0.8,1.9,1.2,4,1.2,6c0,0.4,0.3,0.8,0.8,0.8l-0.6-7.5
					C134.7,25.3,134.2,25.5,133.8,25.7z"/>
				<path id="Shape_293_" class="st14" d="M129.9,27.3c-0.1-0.1-0.2-0.2-0.2-0.2l0,0l0,0l0,0c-0.5-0.9-0.7-3.2-0.8-4.5
					c-0.2-2.1-0.2-3.3-1.1-3.7c-1.4-0.5-3.1,0.8-4.3,3.4c-0.8,1.7-1.1,3.6-1.1,5.4l0,0c0.2,3,1.8,6,5.8,8.1c0.1,0.1,0.3,0.1,0.4,0.1
					s0.2,0,0.3-0.1l-2-1.9l0,0c-2.1-1.4-3.4-3.7-3.6-6.2l0,0c0.2,2.5,1.5,4.8,3.6,6.2l0.3-0.8c-1.7-1.3-2.9-3.3-3-5.4
					c-0.1-1.2,0-2.5,0.4-3.7c0.7-2.2,1.9-3.4,2.4-3.7c0.1,0.7,0.2,1.4,0.2,2.2c0.1,1.7,0.3,3.5,0.8,4.8l0,0c0.2,0.5,0.5,1,1,1.3h0
					l0.3-0.8l0,0l0.3-0.8l0,0l-0.3,0.8c0.3,0.3,0.8,0.4,1.2,0.2l-0.2,0.9c0.2,0,0.3,0,0.5-0.1c0.4-0.2,0.7-0.6,0.5-1.1
					c-0.2-0.5-0.6-0.7-1.1-0.5C130,27.4,129.9,27.3,129.9,27.3z M128.8,27.3L128.8,27.3L128.8,27.3c-1.1-2.1-0.6-7.3-1.4-7.6
					c0,0-0.1,0-0.2,0c0,0,0.1,0,0.2,0C128.3,20,127.8,25.2,128.8,27.3C128.9,27.3,128.9,27.3,128.8,27.3z"/>
				<path id="Shape_294_" class="st14" d="M128.9,35.9c0.2-0.1,0.3-0.2,0.5-0.3c0.2-0.4,0.1-0.9-0.3-1.1l0,0l-0.2-0.1l0,0
					c-0.6-0.3-1.1-0.6-1.6-1.1l-0.3,0.8l0,0l0,0l0,0l0,0L128.9,35.9z"/>
				<path id="Shape_295_" class="st14" d="M130.2,29l0.2-0.9c-0.4,0.2-0.9,0.1-1.2-0.2l-0.3,0.8C129.3,29,129.8,29.1,130.2,29z"/>
				<path id="Shape_296_" class="st14" d="M197.6,86c-0.1-0.2-0.2-0.3-0.4-0.4l0,0c-0.1,0-0.3,0-0.4-0.1c-0.4,0-0.6,0.3-0.7,0.7
					c0.1-0.4,0.4-0.6,0.8-0.7c0.1,0,0.1,0,0.2,0c0,0-0.1,0-0.2,0H196v0l-37.1,0.4l0,0.7l0,0l0-0.8h-1.7c-0.5,0-0.8,0.4-0.8,0.8l0,0
					c0,0.3,0.1,0.5,0.3,0.6c0.7-0.4,1.4-0.6,2.2-0.7l0,0l0.5,0l1.7,0h0.2l-1.9,0c-1,0-1.8,0.3-2.7,0.8c0.2,0.1,0.3,0.2,0.5,0.2h0
					l38.9-0.4l-0.1-0.8c0,0,0,0,0-0.1l0,0c0,0,0,0,0,0l0.1,0.8h0.8h0l0,0c0.4,0,0.8-0.4,0.8-0.8C197.7,86.2,197.7,86.1,197.6,86
					C197.7,86.1,197.6,86,197.6,86z M196.1,86.3L196.1,86.3C196.1,86.3,196.1,86.3,196.1,86.3C196.1,86.3,196.1,86.3,196.1,86.3z"/>
				<path id="Shape_297_" class="st14" d="M223.1,7.4L223.1,7.4c-0.7,0.5-1.5,0.8-2.3,0.9C220.7,8.3,221.5,8.9,223.1,7.4z"/>
				<path id="Shape_298_" class="st14" d="M219.9,8.1c0,0.1,0,0.2,0,0.3l0.9-0.4c0.1-0.3,0.2-1,0.3-1.8c-0.3-0.2-0.5-0.3-0.8-0.5
					C220.2,6.5,220.1,7.3,219.9,8.1z"/>
				<path id="Shape_299_" class="st14" d="M218.6,4.5c0.4-0.9,1-1.8,1.6-2.6c0.3,0.8,0.3,2.3,0.1,3.8c0.3,0.2,0.5,0.3,0.8,0.5l0,0
					l0,0C221,7,220.9,7.6,220.8,8l0,0l0,0l-0.9,0.4c0,0.2,0.1,0.3,0.2,0.4c0.2,0.2,0.5,0.3,0.7,0.3c1.1-0.2,2.2-0.6,3-1.4l0,0
					c0.2-0.2,0.4-0.4,0.6-0.6c-0.2-0.2-0.4-0.4-0.6-0.6l0,0c0.2,0.2,0.4,0.4,0.6,0.6c0,0,0-0.1,0.1-0.1c0.3-0.4,0.2-0.9-0.3-1.2
					c-0.4-0.2-0.8-0.2-1.1,0.2c-0.3,0.3-0.6,0.6-1,0.9c0.2,0.1,0.3,0.2,0.4,0.2l1.3-0.6l0,0l0,0l0,0l0,0l0,0l0,0l0,0l-1.3,0.6
					c0.2,0.1,0.3,0.2,0.4,0.2l0,0l0,0c0.1-0.1,0.2-0.2,0.2-0.2c0,0,0,0,0.1,0c-0.1,0.1-0.2,0.2-0.3,0.3l0,0c-1.6,1.5-2.4,1-2.4,1
					s0-0.1,0.1-0.3l0,0c0,0.2-0.1,0.3-0.1,0.3c0.8-0.1,1.6-0.5,2.3-1c-0.2-0.1-0.3-0.2-0.5-0.2c-0.2-0.1-0.3-0.2-0.4-0.2
					c-0.1,0.1-0.2,0.2-0.4,0.2c0-0.1,0-0.3,0.1-0.4c-0.2-0.1-0.5-0.3-0.6-0.4l0,0l0,0c0.4-2.1,0.7-5-0.6-5.3l0,0
					c-0.3-0.1-0.8,0.3-1.4,0.9l0,0c0.6-0.6,1.1-1,1.5-0.9c-0.3-0.3-0.8-0.1-1.3,0.6c0.5-0.6,1-1,1.3-0.6c1.3,0.3,1,3.2,0.6,5.3
					c0.2,0.2,0.5,0.3,0.7,0.4c0.3-2,0.5-5-0.6-6.2c-0.3-0.3-0.7-0.5-1.1-0.5c-0.9,0.1-1.6,1.1-2.8,3.3l0.3,0.3l0,0l-0.3-0.3
					C217,4.1,216.6,5,216.1,6c0.5-0.8,1.1-1.6,1.6-2.2l0,0c-0.5,0.7-1.1,1.4-1.6,2.2c-1,2-2.1,4.2-2.8,4.9l0,0l0,0
					c-0.3,0.3-0.4,0.8-0.1,1.2c0.2,0.2,0.4,0.3,0.6,0.3c0.2,0,0.4-0.1,0.6-0.2c0,0,0.1-0.1,0.1-0.1l0,0c0.4-0.4,0.7-0.9,1-1.3l0,0
					c0.6-1.1,1.4-2.5,2.1-4C217.8,6,218.3,5.2,218.6,4.5L218.6,4.5z M221.3,4.3c0-1,0-2-0.3-2.7C221.2,2.3,221.3,3.3,221.3,4.3z
					 M213.5,11.1l0.3,0.3l0,0L213.5,11.1z M213.8,11.5C213.8,11.5,213.8,11.4,213.8,11.5L213.8,11.5
					C213.9,11.4,213.8,11.4,213.8,11.5L213.8,11.5z M213.9,11.4L213.9,11.4L213.9,11.4L213.9,11.4L213.9,11.4L213.9,11.4l0.6-0.3
					L213.9,11.4z M218,3.9c0.3-0.5,0.6-1,0.9-1.5C218.5,2.9,218.2,3.4,218,3.9L218,3.9z"/>
				<path id="Shape_300_" class="st14" d="M229.4,8.1C229.4,8.1,229.4,8.1,229.4,8.1c-0.4-0.2-0.9-0.1-1.1,0.3l0,0
					c0,0.1-0.1,0.2-0.1,0.2l0,0c-0.1,0.2-0.2,0.4-0.3,0.6l0,0c-3,5.1-7.7,6.8-8.9,6.8c-0.2,0-0.3,0.1-0.5,0.2l0,0
					c-0.2,0.2-0.3,0.4-0.4,0.6c0,0.3,0.1,0.5,0.3,0.6l0.8-0.5l0,0l-0.8,0.5c0.2,0.2,0.3,0.2,0.5,0.2c0.3,0,0.6,0,0.8-0.1l0,0
					c2.2-0.5,6.8-2.6,9.7-7.9l0,0c0.1-0.2,0.2-0.3,0.3-0.4C230,8.9,229.8,8.4,229.4,8.1z M229.2,9.6L229.2,9.6
					c-0.8,1.3-1.9,2.4-3,3.5c-2.9,1.5-5.2,2.8-7,3.9l0,0c1.8-1.1,4.1-2.4,7-3.8C227.4,12.1,228.4,10.9,229.2,9.6
					c-0.3-0.1-0.6-0.2-1-0.3C228.6,9.5,228.9,9.6,229.2,9.6C229.2,9.6,229.3,9.6,229.2,9.6C229.3,9.6,229.3,9.6,229.2,9.6z
					 M229.7,8.9L229.7,8.9L229.7,8.9C229.7,8.9,229.7,8.9,229.7,8.9z"/>
				<path id="Shape_301_" class="st14" d="M158,60.4l0.6-0.3c0.2-0.1,0.4-0.3,0.5-0.5c-0.2,0.1-0.3,0.2-0.5,0.2
					c0.2-0.1,0.3-0.2,0.5-0.2c0.1-0.2,0-0.4,0-0.6c-0.2-0.4-0.7-0.6-1.1-0.4l0,0h0l0,1.6c0.2-0.1,0.3-0.2,0.5-0.2
					c-0.2,0.1-0.3,0.2-0.5,0.2l0,0c-2.4,1.2-5.1,2.1-7.8,2.5c0,0.1,0,0.2,0.1,0.3c0.2,0.3,0.4,0.5,0.8,0.5c0.1,0,0.2,0,0.3-0.1
					L158,60.4L158,60.4z"/>
				<path id="Shape_302_" class="st14" d="M157.9,58.6l-7.2,3.2c-0.3,0.2-0.5,0.5-0.5,0.8c2.7-0.5,5.3-1.3,7.8-2.5L157.9,58.6z"/>
				<polygon id="Shape_303_" class="st14" points="49.2,75 45.2,73.6 42.9,72.8 42.4,74.3 45.2,75.3 48.7,76.5 49.2,75.1 				"/>
				<path id="Shape_304_" class="st14" d="M44,195.5c-0.7-0.6-2.1-1.5-3.8-2.8c-1.4-1-3.1-2.2-4.9-3.8c-0.2-0.2-0.5-0.1-0.6,0
					c0,0,0,0.1-0.1,0.1c0,0.1,0,0.1,0,0.2c0,0.5-1.4,1.1-2.4,1.3c-2.1,0.4-4.7-1.5-4.7-1.5s0,0.1,0,0.1c-0.4,1.6-0.5,2.8-0.1,3.7
					c0.3,0.8,0.9,1.4,1.6,1.7c0.6,0.3,1.3,0.6,2,0.8c4.1,1.3,12.3,3.2,13.5,1.4C44.7,196.3,44.5,196,44,195.5z"/>
				<path id="Shape_305_" class="st14" d="M62.3,192.5c-0.4-0.2-0.9-0.5-1.4-0.8l-0.5-0.3l-0.5-0.3c-1-0.5-1.9-1.1-3-1.8
					c-0.1-0.1-0.3-0.1-0.4,0c-0.2,0.1-0.3,0.3-0.3,0.5c0.1,0.5-1,1.3-1.9,1.5c-1.9,0.6-5.1-0.9-5.4-1l0,0c-0.1,0.8-0.2,1.6,0,2.4
					c0.2,1.3,1,2.4,2.2,2.9c0.1,0,0.2,0.1,0.3,0.1c2,0.8,14.8,2.7,16,0.3c0-0.1,0.1-0.2,0-0.3C67.4,194.9,65.4,194.1,62.3,192.5z"/>
				<path id="Shape_306_" class="st14" d="M159.8,17c0.3,0.2,0.7,0.3,1.1,0.3c0.3,0,0.6-0.1,0.9-0.2l0,0c0,0,0,0,0,0l0,0
					c0,0.1,0,0.2,0,0.2c0.9,4.1,2.1,7.9,6.9,8.9l0.5,4c0,0.2,0.1,0.4,0.3,0.5v0c0,0,0.1,0.1,0.2,0.1c0.3,0,0.5,0,0.8,0
					c0.3-0.2,0.5-0.5,0.4-0.8l-0.5-4.6c0-0.4-0.3-0.7-0.7-0.7c-4.4-0.7-5.4-3.8-6.2-7.8c-0.2-0.8-0.3-1.5-0.3-2.3l0,0l3,1l0,0l0,0
					l0,0l-0.2,2.3c0,1.8,1,3.4,2.5,4.3c2.3,1.3,5.7,3.4,10.1,2.4c0.5-0.1,1-0.3,1.4-0.5c2.7-1.4,4.4-4.8,5-8.6
					c0.1-0.3,0.1-0.7,0.2-1c-0.4,0.3-0.9,0.5-1.3,0.6c-0.1,0-0.2,0-0.2,0.1c-1.9,0.8-4.1,1-6.2,0.4c-4.4-1.1-7.9-5-9.6-9.1
					c-0.4-0.9-0.7-1.8-0.9-2.7c-0.2-0.6-0.2-1.3-0.3-1.9c0-0.6,0-1.1,0.1-1.7c-1.7,1.3-3.1,3.4-4.1,6.6c-0.1,0.2-0.2,0.5-0.2,0.7
					l0,0c-0.2,0.4-0.3,0.9-0.5,1.3c0,0-0.1,0-0.2,0l0,0c-0.3-0.1-0.6-0.1-0.9,0c-1.1,0.2-2.4,1.4-2.7,3.4
					C158.2,14,158.5,16.1,159.8,17z M163.6,9.9L163.6,9.9c1.3,0.7,3.2,0.5,3.2,0.5l-0.3,3.4l-3.2-0.9l0,0
					C163.3,11.9,163.4,10.9,163.6,9.9z M161,10.8c0.2-0.1,0.3-0.2,0.5-0.3c0,0,0.1,0.1,0.2,0.2c-0.1,0.5-0.2,1-0.2,1.6c0,0,0,0,0,0
					l-1.3-0.4l0,0C160.4,11.5,160.7,11.1,161,10.8z M161.6,14.1L161.6,14.1L161.6,14.1L161.6,14.1c0,0,0,0.1,0,0.2
					c0,0.3,0.1,1,0.1,1l-0.1-0.9c0,0.3,0,0.6,0.1,0.9c-0.3,0.2-0.7,0.4-0.9,0.3c-0.3-0.2-0.6-1-0.7-1.9L161.6,14.1z"/>
				<path id="Shape_307_" class="st14" d="M157.3,160.5L157.3,160.5c-0.2-3-0.4-5.9-0.4-8.5c-0.3,0-0.6-0.1-0.8-0.2l0,0l0,0
					c0-0.3,0-0.5,0-0.5l0.8-0.1c0,0,0,0,0-0.1l0,0c-0.1-0.4-0.4-0.7-0.8-0.7c-0.3,0-0.5,0.2-0.6,0.4l0,0c-0.1,0.2-0.2,0.3-0.2,0.5
					c0,0.1,0,0.2,0,0.3l0,0c0,2.7,0.2,5.7,0.4,8.8l0,0c0,0.5,0.1,1,0.1,1.5c0.2,2.3,0.3,4.7,0.4,6.9c0-0.4,0-0.7,0-1.1
					c0,0.4,0,0.7,0,1.1c0.2,4.9,0.3,9.4-0.4,12.3c0,0.5-0.1,1-0.1,1.4c0.1,0.2,0.3,0.3,0.5,0.4c0.1,0,0.2,0,0.2,0
					c0.4,0,0.7-0.2,0.8-0.6c1.3-4.3,0.8-12.6,0.3-20.6C157.4,161.4,157.3,161,157.3,160.5z M156.1,161.5c0-0.3,0-0.7,0-1l0,0l0,0
					C156.1,160.8,156.1,161.1,156.1,161.5z"/>
				<path id="Shape_308_" class="st14" d="M156.1,151.3c0,0,0,0.2,0,0.6c0.3,0,0.6,0.1,0.8,0.2c0-0.2,0-0.5,0-0.7c0,0,0,0,0-0.1
					L156.1,151.3z"/>
				<path id="Shape_309_" class="st14" d="M185.1,184.7c0.4,2,0.8,4,1.3,5.9h0.8c0,0,0-0.1,0-0.2c0-0.2-2.1-13.9-4-29.9
					c-0.4-3.1-0.7-6.4-1.1-9.6c-0.3,0-0.6,0-0.9-0.1c0.3,0,0.6,0,0.9,0.1l-0.1-0.6l0,0c0-0.1,0-0.2-0.1-0.2c-0.5,0-1-0.1-1.5-0.1
					c-0.1,0.2-0.2,0.3-0.1,0.5l0,0.3l0,0c0.3,3.3,0.7,6.5,1.1,9.7h0.5c-0.3-4.2-0.6-7.5-0.6-9.1c0.1,1.6,0.3,4.9,0.6,9.1h-0.5
					c1.9,16.1,4,30,4,30.1c0.1,0.4,0.4,0.7,0.8,0.7h0.1c0.4-0.1,0.7-0.4,0.7-0.8h-0.8C185.9,188.7,185.5,186.7,185.1,184.7z"/>
				<path id="Shape_310_" class="st14" d="M181.2,149.5c-0.3,0-0.5,0.2-0.6,0.4c0.5,0,1,0.1,1.5,0.1
					C181.9,149.7,181.6,149.5,181.2,149.5z"/>
			</g>
			<g id="Group-2" transform="translate(81.783405, 113.009434)">
				<path id="Shape_311_" class="st13" d="M69.2,0.9L0.3,0.2L0.2,57.5l69-1L69.2,0.9z M55,18.4c-0.1,0.7-0.3,1.4-0.6,2
					c-0.5,1.2-1.2,2.3-2,3.3c-0.8,1-1.6,1.9-2.4,2.8c0.6,3.1,0.3,6.3-1,9.1c-3.4,7.1-11.4,10.3-18.7,6.1c-0.5-0.3-0.9-0.5-1.3-0.8
					c-0.2,0.1-0.3,0.2-0.5,0.2c-2.3,1-4.7,1.8-7.4,1.8c-0.7,0-1.4-0.2-2.1-0.4c-0.8-0.3-1.4-1.1-1.4-1.9c0-0.7,0.3-1.4,0.8-2
					c0.4-0.5,0.9-1,1.4-1.3c0.1-0.1,0.2,0,0.3,0.1l0,0c0.1,0.1,0,0.2,0,0.3c-0.8,0.9-1.5,2-1.3,2.8c0.1,0.7,1.2,0.9,2.3,0.8
					c2-0.2,4-1,6-1.9c-4.4-4-6-9.4-4-15.5c2.7-8.4,11.4-10.7,18.7-7.6c3.4,1.4,6.2,4.2,7.6,7.7c0.5-0.5,1-1.1,1.5-1.6
					c0.7-0.9,1.4-1.8,1.9-2.8c0.5-1,0.7-2.1,0.4-2.6c-0.3-0.6-1.4-0.9-2.5-0.8c-1.2,0.1-2.3,0.3-3.4,0.7c-0.2,0.1-0.5,0-0.6-0.3
					s0-0.5,0.2-0.6c1.1-0.6,2.3-1.1,3.6-1.3c0.7-0.2,1.4-0.2,2.1,0c0.8,0.1,1.6,0.6,2.1,1.2C54.9,16.7,55.1,17.5,55,18.4L55,18.4z"
					/>
				<path id="Shape_312_" class="st15" d="M41.3,33.7c-3.9,2.8-8,5.2-12.4,7.2c0.4,0.3,0.8,0.6,1.3,0.8c7.2,4.3,15.3,1,18.7-6.1
					c1.3-2.9,1.7-6.1,1-9.1C47.3,29.2,44.3,31.5,41.3,33.7z"/>
				<path id="Shape_313_" class="st15" d="M39.9,31.7c3.3-2.3,6.5-4.8,9.3-7.6c-1.4-3.5-4.1-6.3-7.5-7.8c-7.2-3.1-16-0.8-18.7,7.6
					c-2,6.1-0.4,11.5,4,15.5c0.2-0.1,0.4-0.2,0.6-0.3C31.8,37,35.9,34.4,39.9,31.7z"/>
				<path id="Shape_314_" class="st5" d="M52.4,14.8c-0.7-0.1-1.4-0.1-2.1,0c-1.3,0.2-2.5,0.7-3.6,1.3c-0.2,0.1-0.3,0.4-0.2,0.6
					c0.1,0.2,0.3,0.3,0.6,0.2c1.1-0.4,2.2-0.6,3.4-0.7c1.1-0.1,2.2,0.2,2.5,0.8c0.3,0.6,0.1,1.6-0.4,2.6c-0.5,1-1.2,1.9-1.9,2.8
					c-0.5,0.6-1,1.1-1.5,1.6c0.3,0.8,0.6,1.6,0.8,2.5c0.9-0.9,1.7-1.8,2.4-2.8c0.8-1,1.5-2.1,2-3.3c0.3-0.6,0.5-1.3,0.6-2
					c0.1-0.8-0.1-1.7-0.5-2.4C53.9,15.3,53.2,14.9,52.4,14.8z"/>
				<path id="Shape_315_" class="st5" d="M21,41.2c-1.1,0.1-2.2-0.1-2.3-0.8c-0.2-0.8,0.5-2,1.3-2.8c0.1-0.1,0.1-0.2,0-0.3
					c-0.1-0.1-0.2-0.1-0.3-0.1l0,0c-0.5,0.3-1,0.8-1.4,1.3c-0.5,0.6-0.8,1.3-0.8,2c0.1,0.8,0.6,1.6,1.4,1.9c0.6,0.3,1.4,0.4,2.1,0.4
					c2.7,0,5.1-0.8,7.4-1.8c0.2-0.1,0.3-0.2,0.5-0.2c-0.7-0.5-1.4-1-2-1.6C25,40.2,23,40.9,21,41.2z"/>
				<path id="Shape_316_" class="st5" d="M39.9,31.7c-4,2.7-8,5.4-12.3,7.4c-0.2,0.1-0.4,0.2-0.6,0.3c0.6,0.6,1.3,1.1,2,1.6
					c4.4-1.9,8.5-4.3,12.4-7.2c3-2.2,6-4.5,8.6-7.2c-0.2-0.9-0.4-1.7-0.8-2.5C46.4,26.9,43.2,29.3,39.9,31.7z"/>
			</g>
			<path id="Shape_317_" class="st9" d="M226.7,28.5c0-13.2,9.7-24.4,22.8-26.1c0-0.1,0-0.2,0-0.3h-5.2c0,0.9-0.8,1.7-1.7,1.7l0,0
				h-8.6c-0.9,0-1.7-0.8-1.7-1.7l0,0h-5.2c0,0.9-0.8,1.7-1.7,1.7l0,0H217c-0.9,0-1.7-0.8-1.7-1.7l0,0h-5.2c0,0.9-0.8,1.7-1.7,1.7
				l0,0h-8.6c-0.9,0-1.7-0.8-1.7-1.7l0,0H193c0,0.9-0.8,1.7-1.7,1.7l0,0h-8.6c-0.9,0-1.7-0.8-1.7-1.7l0,0H176c0,0.9-0.8,1.7-1.7,1.7
				l0,0h-8.6c-0.9,0-1.7-0.8-1.7-1.7l0,0h-5.2c0,0.9-0.8,1.7-1.7,1.7l0,0h-8.6c-0.9,0-1.7-0.7-1.7-1.6v0h-5.2c0,0.9-0.8,1.7-1.7,1.7
				l0,0h-8.6c-0.9,0-1.7-0.8-1.7-1.7l0,0h-5.2c0,0.9-0.8,1.7-1.7,1.7l0,0h-8.6c-0.9,0-1.7-0.8-1.7-1.7l0,0h-5.2
				c0,0.9-0.8,1.7-1.7,1.7l0,0h-8.6c-0.9,0-1.7-0.8-1.7-1.7l0,0h-5.2c0,0.9-0.8,1.7-1.7,1.7l0,0h-8.6c-0.9,0-1.7-0.8-1.7-1.7l0,0
				h-1.8c-1.1,0-2.2,0.2-3.3,0.4c0.3,0.8-0.2,1.8-1,2.1c-2.4,0.9-4.4,2.5-5.7,4.6c-0.5,0.8-1.4,1-2.2,0.5c-0.8,1.6-1.3,3.2-1.4,5
				c0.9,0,1.6,0.8,1.6,1.7v8.5c0,0.9-0.8,1.7-1.7,1.7l0,0v5.2l0,0c0.9,0,1.7,0.8,1.7,1.7v2.5h2.5c0.9,0,1.7,0.8,1.7,1.7h4.9
				c0-0.9,0.8-1.7,1.7-1.7l0,0h8.3c0.9,0,1.7,0.8,1.7,1.7l0,0h4.9c0-0.9,0.8-1.7,1.7-1.7l0,0h8.3c0.9,0,1.7,0.8,1.7,1.7l0,0h4.9
				c0-0.9,0.8-1.7,1.7-1.7l0,0h8.3c0.9,0,1.7,0.8,1.7,1.7l0,0h1.4c5.7-12.2,20.2-17.4,32.4-11.7c4.6,2.1,8.4,5.6,10.8,10h3.2
				c0.9,0,1.7,0.8,1.7,1.7l0,0h4.9c0-0.9,0.8-1.7,1.7-1.7l0,0h8.3c0.9,0,1.7,0.8,1.7,1.7l0,0h4.9c0-0.9,0.8-1.7,1.7-1.7l0,0h8.3
				c0.9,0,1.7,0.8,1.7,1.7l0,0h4.9c0-0.9,0.8-1.7,1.7-1.7h8.3c0.9,0,1.7,0.8,1.7,1.7l0,0h4.9c0-0.9,0.8-1.7,1.7-1.7l0,0h3.9
				C227,33.5,226.7,31,226.7,28.5z"/>
			<path id="Shape_318_" class="st9" d="M279.4,28.5c0,2.5-0.4,5.1-1.1,7.5h3.3c0.9,0,1.7,0.8,1.7,1.7l0,0h4.9
				c0-0.9,0.8-1.7,1.7-1.7l0,0h2.5v-2.5c0-0.9,0.8-1.7,1.7-1.7l0,0l0,0v-5.3l0,0c-0.9,0-1.7-0.8-1.7-1.7l0,0v-8.5
				c0-0.9,0.7-1.6,1.6-1.7c-0.2-1.8-0.6-3.4-1.4-5c-0.8,0.5-1.7,0.2-2.2-0.5c-1.4-2.1-3.4-3.7-5.8-4.6c-0.8-0.3-1.3-1.2-1-2.1
				c-1.1-0.3-2.2-0.4-3.3-0.4h-1.9c0,0.9-0.8,1.7-1.7,1.7l0,0h-8.5c-0.9,0-1.7-0.8-1.7-1.7l0,0h-5.2c0,0.5-0.2,0.9-0.5,1.2
				C271.9,6.7,279.4,16.9,279.4,28.5z"/>
			<path id="Shape_319_" class="st9" d="M262.8,168.9c-1.1-2.7-1.6-5.6-1.4-8.4c0.2-2.9,1.3-5.7,3.1-8c0.9-1.2,2-2.2,3.2-3
				c1.3-0.8,2.7-1.3,4.1-1.5c2.7-0.5,5.4-0.3,8,0.4v-44.9h-18.2c-19.1,0-34.5,15.4-34.5,34.5c0,0,0,0,0,0v46.4h20.6c0.5,0,1,0,1.5,0
				h28.5c-1.5-0.7-2.9-1.5-4.3-2.5C268.9,178.5,265.1,174.2,262.8,168.9z"/>
			<rect id="Rectangle" x="280.3" y="126.7" class="st1" width="13.7" height="65.8"/>
			<path id="Shape_320_" class="st9" d="M4.4,174.2l1.6,0.2c1.1,0.2,2.2,0.4,3.3,0.6c0.9,0.2,1.7,0.4,2.6,0.6
				c0.5-3.8,1.9-8,3.4-11.6c-0.6-0.1-1.1-0.6-1.1-1.3c0-0.7,0.6-1.3,1.3-1.3c0.3,0,0.6,0.1,0.8,0.3c1.7-3.7,3.7-7.3,5.8-10.8
				c0-1.6,0-3,0.1-4.5h-3.7H15c-1.2,0-2.4,0-3.5,0c-4.4,0.5-8.2,3.9-9.5,8.1c-0.3,1.1-0.5,2.2-0.5,3.3c0,0.6,0,1.1,0.1,1.7l0.2,1.8
				l0.8,7.1c0.2,1.9,0.4,3.8,0.6,5.7C3.7,174.1,4,174.1,4.4,174.2z"/>
			<path id="Shape_321_" class="st9" d="M37.2,193.8h-1.1h-1.7l0.2,1c0.6,2.5,1.2,5.1,1.8,7.6C37.7,198.5,38.4,195.5,37.2,193.8z"/>
			<path id="Shape_322_" class="st9" d="M23.6,144.1c0,0.1,0,0.2,0,0.3s0,0.3,0,0.4s0,0.3,0,0.5c0,0.1,0,0.2,0,0.3
				c0,0.2,0,0.4,0,0.6c-0.1,1.3-0.1,2.7-0.1,4.1l16.7,1.4c-0.2-1-0.5-1.9-0.6-2.9c-0.1-0.5-0.2-0.9-0.3-1.4
				c-0.1-0.4-0.2-0.8-0.2-1.2c-0.1-0.8-0.2-1.7-0.3-2.5c-1.1,0.2-1.8,0.3-1.9,0.4h-0.1c-0.3,0-0.5-0.2-0.6-0.5
				c-1.3-8.1-0.6-13.8,2-17c0.9-1.2,2.2-2,3.6-2.4l0,0l-2.9-2.3c-0.2,0.1-0.3,0.2-0.5,0.2c-0.6,0-1.3,0-1.9,0.2
				c-1.6,0.3-3.9,1-4.7,3c0,0-1.2,1.2-2.5,0.2c-0.3,0.5-0.6,1.1-1,1.6l-3.9,11.6C24,140.6,23.8,142.3,23.6,144.1z"/>
			<path id="Shape_323_" class="st9" d="M77.6,198.9c-0.1-1-0.2-1.9-0.4-2.8c-0.1-0.6-0.2-1.3-0.4-1.9c-1.9-7.4-6.5-12.6-13.7-15.6
				c-1.8-0.7-3.7-1.3-5.5-1.7c-0.1,0-0.2-0.1-0.4-0.1c-0.7-0.2-1.4-0.4-2.1-0.8c-0.6-0.3-1.1-0.6-1.6-1.1c-0.3-0.2-0.6-0.5-0.8-0.8
				c-3-3.3-4.1-8.8-4.5-13.4c-0.5,0.3-1.1,0.5-1.7,0.5c-0.1,0-0.2,0-0.3,0s-0.2,0-0.3,0l-0.2,0c-0.1,0-0.2,0-0.3,0c0,0-0.1,0-0.1,0
				c-0.2-0.1-0.3-0.2-0.5-0.2c-0.3-0.2-0.7-0.5-1-0.7c-1.4-1.4-2.5-4-3.5-7.2l-17-1.5l-0.3,0l-0.3,0.4c-0.2,0.2-0.3,0.5-0.5,0.9
				c-2.3,3.9-8,14.2-9.2,23.1c0.9,0.3,1.8,0.5,2.7,0.8c4.3,1.4,8.3,3.6,11.9,6.3c1.1,0.9,2.1,1.8,3,2.9c0.6,0.7,1.1,1.4,1.6,2.2
				c0.5,0.8,0.9,1.7,1.2,2.6c0.7,0.1,1.4,0.3,2.1,0.5c0.6,0.2,1.1,0.5,1.6,0.8c0.3,0.2,0.6,0.5,0.8,0.8c0.2,0.3,0.4,0.5,0.5,0.8
				c1.1,2.5-0.1,6.1-1.1,9.2c-0.2,0.5-0.3,1-0.5,1.5c0.3,1,0.5,1.9,0.8,2.9l0.1,0.3c0,0.1,0,0.2,0,0.2c0,0.2,0,0.4-0.2,0.5l0,0
				c-0.1,0.2-0.3,0.3-0.4,0.3c0,0,0,0-0.1,0c-0.1,0-0.2,0-0.3,0h-0.8c0,0.6,0.2,1.1,0.6,1.5c0.1,0.1,0.2,0.2,0.3,0.3
				c0.2,0.1,0.3,0.2,0.4,0.2c0.3,0.2,0.5,0.3,0.8,0.4c2,0.9,4.6,1.5,7.6,1.9c3.7,0.4,7.3,0.6,11,0.5c1.1,0,2.1-0.1,3.2-0.2
				c4.2-0.2,8.3-0.8,12.4-1.7c0.8-0.2,1.6-0.4,2.3-0.6c0.2-0.1,0.5-0.2,0.7-0.3s0.5-0.2,0.6-0.3l0.1,0c1-0.5,1.3-0.9,1.3-1.1
				l0.1-0.6c0.1-1.1,0.2-2.2,0.3-3.3c0-0.2,0-0.4,0-0.6c0-0.4,0-0.8,0-1.2c0-1.4,0-2.8-0.1-4.1C77.6,199.4,77.6,199.1,77.6,198.9z"
				/>
			<path id="Shape_324_" class="st9" d="M43.6,124l0.2,0.2l0.1,0.1l0,0l0,0l0,0l0.1,0.2c0.8,0.2,1.6,0.5,2.3,0.9l-0.4-0.7l-0.3-0.5
				l-1.1-2l-0.9-1.6l-0.3-0.5l-0.4-0.7c-0.2,0-0.3,0-0.5,0c-0.1,0-0.3,0-0.4,0l-0.2,0c-0.3,0-0.6,0.1-1,0.2l0,0l-0.4,0.5l-0.6,0.6
				c0,0,0,0.1-0.1,0.2l2.9,2.4L43.6,124z"/>
			<path id="Shape_325_" class="st9" d="M20.9,134.9c0.2,0.1,0.4,0.3,0.6,0.4c0.8,0.5,1.4,1.1,2,1.8c0,0,0.1,0.1,0.2,0.2l2.7-8
				c-0.2,0.1-0.3,0.2-0.5,0.2s-0.3,0.1-0.5,0.2c-0.3,0.1-0.7,0.2-1.1,0.2c-0.3,0-0.6,0-0.8,0c-0.2,0-0.5-0.1-0.7-0.2
				c-1.1,1.5-2.1,3.1-2.8,4.8l0.2,0.1C20.5,134.6,20.7,134.7,20.9,134.9z"/>
			<path id="Shape_326_" class="st9" d="M32.8,195.2l-0.3-1.4l-0.2-0.8l-0.2-0.8l-0.1-0.3c0,0,0,0,0-0.1c0-0.2-0.1-0.4-0.2-0.6
				c-0.1-0.2-0.1-0.4-0.2-0.6c-0.2-0.5-0.5-1-0.8-1.5c-0.8-1.3-1.9-2.5-3-3.6c-0.4-0.4-0.8-0.7-1.3-1.1c-3.3-2.7-7.3-4.8-11.3-6.5
				c-0.8-0.3-1.6-0.6-2.4-0.9c-0.2-0.1-0.4-0.2-0.6-0.2l-0.6-0.2c-0.9-0.3-1.8-0.6-2.7-0.8C8.1,175.6,7,175.3,6,175l-1.6-0.4
				c-0.3-0.1-0.6-0.2-1-0.2l-0.5-0.2v0.1l0.3,2.1l0.2,1.8l1.7,13c0.7,5.3,1.4,10.5,2.1,15.8h2.1l10.8,0h1.7l13.2,0h0.6
				c-0.1-0.4-0.2-0.8-0.3-1.2C34.4,202.2,33.6,198.7,32.8,195.2z"/>
			<path id="Shape_327_" class="st9" d="M43.6,125.6c-0.3,0-0.5-0.1-0.8-0.1l0,0c-0.2,0-0.4,0-0.6,0c-0.1,0-1.7,0.2-3.2,2
				c-1.6,2-3.2,6.4-1.9,15.5c0.3-0.1,0.8-0.2,1.4-0.3l0.6-0.2l0.7-0.2c2.9-0.8,7-2.2,9.7-4.5l0.1-0.1c0.2-0.2,0.4-0.3,0.5-0.5l0,0
				c0.2-0.2,0.4-0.4,0.6-0.6l0.1-0.1c0.2-0.3,0.5-0.6,0.6-0.9c-0.1-0.2-0.2-0.7-0.4-1.2l-0.1-0.3l0-0.1l-0.1-0.3
				c0-0.2-0.1-0.3-0.2-0.4c-0.1-0.3-0.2-0.6-0.3-0.8l-0.1-0.2c-0.3-0.8-0.8-1.6-1.2-2.4L49,130c-0.2-0.3-0.4-0.6-0.6-0.9
				c-1.1-1.5-2.4-2.7-4-3.3C44.2,125.8,43.9,125.7,43.6,125.6z"/>
			<path id="Shape_328_" class="st9" d="M215.6,161.7l1.6-0.5c0,0,0,0,0.1,0l-0.3-3.7l-5.9,0.6c0,0.9,0.3,1.8,1,2.4
				C213,161.4,214.3,161.9,215.6,161.7z"/>
			<path id="Shape_329_" class="st9" d="M217.7,165.9l-0.3-3l-1.6,0.4c-0.3,0-0.5,0-0.7,0c-1.6,0-3.2-0.6-4.3-1.7
				c-0.9-0.9-1.4-2.1-1.5-3.4l-0.5,0h-0.1c-0.5,0-0.8-0.4-0.8-0.9c0-0.4,0.3-0.8,0.7-0.8l8.2-0.9l-0.2-2.1h-0.1
				c-0.4,0-0.8-0.3-0.8-0.8l-1.7-21.4l-38.9,0.4l0,0c-0.2,0-0.4-0.1-0.5-0.2c-1.8,1-3,2.7-3.3,4.8c-0.1,0.5-0.1,1.1-0.2,1.6
				c0.3-0.3,0.8-0.4,1.2-0.2c0.2,0.2,0.3,0.5,0.3,0.8c-3.6,22.5-1.8,42.4-1.1,50.8c0.1,1.4,0.2,2.5,0.3,3.3c0,0.4,0.2,0.7,0.5,0.9
				c2.9,2.2,14.5,0.4,18.7-0.5c0.5-0.1,0.9,0.2,1,0.6l0,0c0,0,0,0,0,0.1l2.7-0.4c-2.1-4.1-1.6-25.5-1.3-34.9c0-0.4,0.3-0.8,0.8-0.8
				c0,0,0.1,0,0.1,0c0.5,0,0.8,0.4,0.8,0.9c-0.5,15.6-0.3,32.6,1.1,34.1c2.3,1.5,14.5,0.5,22.3-0.6l-1.4-25.6
				C216.9,166.4,217.3,166,217.7,165.9z"/>
			<path id="Shape_330_" class="st9" d="M243.6,20.4c-0.4,0.6-0.6,1.4-0.6,2.2c0,1.5,0.7,2.9,1.9,3.7c-0.7,0-1.4-0.2-2-0.5
				c0.2,2.3,1.3,3.8,3.5,4.5c-0.6,0.2-1.3,0.2-1.9,0.1c0.2,0.7,0.6,1.3,1.1,1.8c0.8,0.8,1.9,1.3,3,1.3c-1.8,1.4-4.1,2.1-6.5,1.9
				l0,0.1l1.1,0.6c0.2,0.1,0.3,0.2,0.5,0.3c2,0.9,4.2,1.3,6.4,1c0.2,0,0.4,0,0.6,0c3-0.4,5.9-1.9,7.8-4.3c2-2.4,3.1-5.5,3-8.6
				c0-0.1,0-0.2,0.2-0.3c0.3-0.3,0.7-0.6,1-0.9c0.4-0.4,0.7-0.8,1.1-1.2l0-0.1c-0.8,0.3-1.6,0.5-2.4,0.6c0.9-0.6,1.6-1.4,1.9-2.4
				l-0.3,0.2c-0.6,0.3-1.3,0.6-1.9,0.8c-0.3,0.1-0.6,0.1-0.8-0.2c0,0,0,0-0.1-0.1c-1.9-1.6-4.7-1.3-6.3,0.6c-0.6,0.7-1,1.6-1,2.5
				c0,0.4,0,0.9,0,1.3C249.2,24.9,245.9,23.2,243.6,20.4z"/>
			<path id="Shape_331_" class="st9" d="M148.6,34.5c-0.3,0-0.6-0.1-1-0.1c-1.3-0.1-2.5-0.1-3.8,0s-2.5,0.8-3.3,1.7
				c0,0,0,0.1-0.1,0.1c-0.2,0.2-0.4,0.5-0.6,0.7c-0.1,0.2-0.2,0.4-0.3,0.6c-0.4,0.8-0.6,1.6-0.6,2.5c0,1.3,0,2.6,0,3.9
				c0,0.1,0,0.2,0,0.3h-4.1v4.8h4.1v12.4h5V49.2h0.3c1.2,0,2.4,0,3.5,0c0.2,0,0.3,0,0.3-0.3c0.1-1,0.3-2,0.4-3
				c0.1-0.5,0.1-1,0.2-1.5h-4.8V44c0-0.8,0-1.7,0-2.5c0-0.3,0-0.6,0-1c0-0.5,0.3-1,0.7-1.2c0.3-0.2,0.6-0.3,1-0.3c0.4,0,0.8,0,1.3,0
				c0.6,0,1.3,0,1.9,0c0,0,0-0.1,0-0.1c0-0.4,0-0.8,0-1.2c0-0.6,0-1.1,0-1.7c0-0.4,0-0.8,0-1.2C148.8,34.6,148.7,34.6,148.6,34.5z"
				/>
			<rect id="Rectangle-2" x="255.6" y="109.2" class="st9" width="24.7" height="75.3"/>
			<path id="Shape_332_" class="st1" d="M289.3,185.4c-2.6,1.2-5.7,1-8.4,0.2c-1.1-0.3-2.2-0.8-3.2-1.3h-14.2
				c-0.2,0.3-0.3,0.6-0.5,0.9c-0.6,1.1-1.6,1.9-2.7,2.5c-1.1,0.6-2.2,0.8-3.4,0.8c-0.3,0-0.6,0-1-0.1c0,0,0,0.1,0,0.1
				c0.3,1.6,0.5,3.1,0.6,4.7c0.1-0.2,0.3-0.4,0.4-0.6c0.8-1,1.9-1.6,3-1.9c1.2-0.3,2.4-0.3,3.7,0c0.6,0.2,1.1,0.3,1.7,0.6
				c1.4,0.6,2.1,2.3,1.4,3.8c-0.1,0.2-0.2,0.3-0.3,0.5c-0.4,0.5-0.8,1-1.3,1.3c-1,0.8-2.1,1.3-3.3,1.4c-1.2,0.2-2.4,0-3.5-0.3
				c-0.5-0.2-1.1-0.5-1.6-0.8l-0.1-0.1c0,0.9,0,1.9,0,2.8c0,0.9-0.1,2.2-0.2,3.3c3.9-0.1,7.8-0.2,11.7-0.3c0.4,0,0.7,0.3,0.7,0.7
				c0,0.1,0,0.2-0.1,0.3v0l-0.5,1h12.9l0.8-2.7c-1-0.1-2-0.1-3-0.2c-0.2,0-0.3-0.2-0.3-0.4c0-0.2,0.2-0.3,0.3-0.3
				c1.1-0.1,2.2-0.1,3.3-0.2l2.2-7.8c0.1-0.4,0.5-0.6,0.9-0.6l8.6,0v-6.1c-0.2-0.5-0.5-0.9-0.7-1.4c-0.3-0.5-0.6-1-0.8-1.6l-3,1.1
				C289.5,185.2,289.4,185.3,289.3,185.4z"/>
			<path id="Shape_333_" class="st0" d="M289.4,153.6c-0.8-2.1-1.6-4.1-2.5-6.1v6.1H289.4z"/>
			<path id="Shape_334_" class="st7" d="M289.4,153.6h0.6c-0.3-2.9-1.1-5.6-2.3-8.2c-0.3-0.6-0.6-1.1-0.8-1.7v3.8
				C287.8,149.5,288.6,151.6,289.4,153.6z"/>
			<path id="Shape_335_" class="st7" d="M286.3,144.4c0,0.1-0.2,0.1-0.2,0c0,0,0,0-0.1-0.1l-0.7,0.3c0.3,0.5,0.6,1,0.8,1.6
				c0.2,0.5,0.5,0.9,0.7,1.4v-3.8l-0.1-0.2C286.6,143.9,286.5,144.1,286.3,144.4z"/>
			<path id="Shape_336_" class="st7" d="M286,144.2c0.2-0.3,0.3-0.7,0.5-1.1c-1.1-2-2.4-4-3.8-5.8c-3-3.7-6.4-7-10.1-9.9v1.8
				c3,3,6,5.9,8.6,9.3c1.5,1.9,2.9,4,4.1,6.1l0.7-0.3C286,144.3,286,144.3,286,144.2z"/>
			<path id="Shape_337_" class="st3" d="M286,144.4C286,144.4,286.1,144.4,286,144.4c0.2,0.1,0.3,0.1,0.3,0c0.2-0.3,0.3-0.5,0.5-0.8
				c0-0.1-0.1-0.2-0.1-0.2c-0.2,0.3-0.3,0.6-0.5,0.9L286,144.4z"/>
			<path id="Shape_338_" class="st3" d="M286,144.2c0,0,0,0.1,0,0.2l0.2,0c0.2-0.3,0.3-0.6,0.5-0.9l-0.1-0.2
				C286.4,143.5,286.2,143.9,286,144.2z"/>
			<path id="Shape_339_" class="st7" d="M300.5,136.7c0-0.1,0-0.2,0.1-0.3l-1-0.4v0c0,0.1-0.2,0.1-0.2,0c-0.1-0.1-0.2-0.2-0.3-0.3
				c0,0.2-0.1,0.4-0.1,0.6c-0.8,5.7-1,11.5-0.6,17.2h0.5C299.1,147.9,299.5,142.3,300.5,136.7z"/>
			<path id="Shape_340_" class="st7" d="M314.5,104.3c3.8-4.6,8.3-8.6,13.2-11.9c0.2-0.1,0.2-0.3,0.1-0.5c-0.1-0.2-0.3-0.2-0.5-0.1
				c-5.3,3-10.1,6.8-14.2,11.5c-4,4.6-7.2,9.9-9.6,15.6c-2.2,5.3-3.7,10.9-4.6,16.6c0.2,0.2,0.3,0.3,0.5,0.5c0,0,0.1,0.1,0,0.2
				l1,0.4c1-5.8,2.6-11.4,4.9-16.8C307.7,114,310.7,108.9,314.5,104.3z"/>
			<path id="Shape_341_" class="st3" d="M299.5,135.8c-0.2-0.2-0.3-0.3-0.5-0.5c0,0.1,0,0.2,0,0.2c0.2,0.1,0.3,0.2,0.4,0.3l0.2,0
				C299.6,135.9,299.5,135.8,299.5,135.8z"/>
			<path id="Shape_342_" class="st7" d="M290,154.6h8.2c0-0.3,0-0.6,0-1h-3.4h-4.8C290,153.9,290,154.2,290,154.6
				C290.1,154.6,290,154.6,290,154.6z"/>
			<path id="Shape_343_" class="st7" d="M286.8,154.6h2.9c-0.1-0.3-0.2-0.6-0.3-1h-2.5V154.6z"/>
			<path id="Shape_344_" class="st7" d="M298.6,154.6h12.7l2.2,7.6c0.3,0,0.6,0.1,1,0.1l-2.3-8c-0.1-0.4-0.5-0.6-0.9-0.6l-12.7,0
				C298.6,153.9,298.6,154.2,298.6,154.6L298.6,154.6z"/>
			<path id="Shape_345_" class="st7" d="M316.2,171.3c1.6,14.1-8.4,26.6-21.5,26.6l0,0c-13,0-23.1-12.5-21.5-26.6l1.6-5.4H274
				l-1.5,5.2l0,0c0,0,0,0.1,0,0.1c-0.7,6.6,1.1,13.4,5.2,18.6c2,2.6,4.6,4.7,7.5,6.2c2,1,4.2,1.7,6.5,2l3.1,0c3.2,0.1,6.5-0.6,9.4-2
				c3-1.5,5.6-3.6,7.6-6.2c4.1-5.3,6-12,5.2-18.6c0,0,0-0.1,0-0.2l-2.4-8.1c-0.3,0-0.6,0.1-0.9,0.1L316.2,171.3z"/>
			<path id="Shape_346_" class="st7" d="M278.3,154.6h8.6v-0.9l-8.6,0c-0.4,0-0.8,0.3-0.9,0.6l-2.3,7.8l0.9,0L278.3,154.6z"/>
			<path id="Shape_347_" class="st3" d="M289.7,154.6h0.3v0c0-0.3-0.1-0.6-0.1-0.9h-0.6C289.5,154,289.6,154.3,289.7,154.6z"/>
			<path id="Shape_348_" class="st7" d="M286.8,155.5l8,0l15.9,0l-0.2-0.6l0.9,0.6h-0.7l2,6.7c0.3,0,0.6,0,1,0.1l-2.2-7.6h-12.7
				c0,0.1-0.1,0.2-0.2,0.2l0,0c-0.1,0-0.2-0.1-0.2-0.2H290c0,0.1-0.1,0.2-0.2,0.2s-0.2,0-0.2-0.1v0h-2.9L286.8,155.5z"/>
			<polygon id="Shape_349_" class="st3" points="310.4,154.8 310.6,155.5 311.3,155.5 			"/>
			<path id="Shape_350_" class="st7" d="M315.4,171.4C315.4,171.4,315.4,171.4,315.4,171.4L315.4,171.4L315.4,171.4
				c0.3,3.1,0.2,6.2-0.6,9.2c-0.8,3-2.1,5.9-4,8.4c-3.7,5-9.6,8.5-16,8.7v-0.2c-3.2,0-6.2-0.9-9-2.4c-2.7-1.5-5.1-3.6-7-6.1
				c-3.7-5.1-5.4-11.3-4.6-17.6l0,0.1l0-0.2c0,0,0,0,0,0.1l1.7-5.6H275l-1.6,5.4c-1.6,14.1,8.4,26.6,21.5,26.6l0,0
				c13,0,23.1-12.5,21.5-26.6l-2.4-8.2l-0.9,0.1L315.4,171.4z"/>
			<path id="Shape_351_" class="st7" d="M276,162.1c0.3,0,0.6,0,0.9,0l1.9-6.5h-0.7l0.9-0.6l-0.2,0.6l7.9,0v-0.9h-8.6L276,162.1z"/>
			<path id="Shape_352_" class="st7" d="M339,85.1c-1.8-3-4.6-5.6-8-6.7c-3.5-1.1-7.1-0.6-10.3,0.5c-3.2,1.1-6.2,2.8-9,4.8
				c-5.4,4-10,9.2-13.4,15.1c-3.1,5.9-5.5,12.4-6,19.1c-0.3,3.4,0.1,6.8,1.1,10c1,3.1,2.9,5.8,5.5,7.8c0-0.1,0-0.1,0-0.2
				c0-0.1,0-0.2,0-0.2c-2.3-2-4-4.7-4.8-7.6c-0.9-3.2-1.1-6.4-0.7-9.7c0.7-6.5,3.1-12.7,6.3-18.5c3.3-5.6,7.7-10.6,13-14.4
				c2.6-1.9,5.4-3.5,8.5-4.5c3-1,6.3-1.4,9.2-0.4c2.9,0.9,5.4,3.1,7,5.7c1.6,2.6,1.8,5.9,1.5,9.1c-0.7,6.4-3.2,12.6-6.3,18.4
				c-3.1,5.8-6.9,11.2-11.3,16.1c-2.2,2.4-4.7,4.5-7.5,6.3c-1.3,0.9-2.8,1.6-4.4,2c-1.5,0.4-3.2,0.4-4.6-0.3c-0.2-0.1-0.3,0-0.5,0.2
				v0c0,0.2,0,0.3,0.2,0.4c1.6,0.9,3.4,1,5.1,0.6c1.7-0.4,3.3-1,4.7-1.9c2.9-1.8,5.5-3.9,7.8-6.4c4.6-4.8,8.6-10.3,11.9-16.2
				c3.2-5.9,5.8-12.2,6.6-19C341.1,91.9,340.9,88.2,339,85.1z"/>
			<path id="Shape_353_" class="st7" d="M282.1,146.2c0.2-0.1,0.2-0.3,0.2-0.4l0,0c-0.1-0.2-0.3-0.3-0.5-0.2l0,0
				c-2.5,1-5.2,0.6-7.7-0.3c-0.5-0.2-1-0.4-1.5-0.6c-2-0.9-3.8-1.9-5.6-3.2c-4.3-3.2-7.9-7.5-9.9-12.4c-1-2.4-1.4-5-1.3-7.6
				c0.2-2.6,1.2-5,2.8-7c2.8-4.1,8.6-4.9,13.4-3.5l0.5,3.5l1.1,7.8c0.1,0.5,0.5,0.8,1,0.8c0.3,0,0.6-0.3,0.7-0.6l2.5-9.1
				c4,3.8,7.1,8.5,8.9,13.7c0,0,0,0.1,0,0.1c1,2.8,1.4,5.7,1.4,8.7c0,2.4-0.5,4.7-1.4,6.9c-0.1,0.2-0.2,0.4-0.3,0.6l0.1,0.2
				c0,0.1,0.1,0.2,0.1,0.2l0.1-0.1c1.3-2.4,2.1-5.1,2.3-7.8c0.2-3.1-0.2-6.2-1.1-9.2c-0.3-1.1-0.7-2.2-1.2-3.2
				c-2-4.7-5-8.9-8.8-12.3c-0.1-0.1-0.2-0.2-0.3-0.2c-0.5-0.1-0.9,0.1-1,0.6l0,0l-1.8,6.4l-1-7.8l0,0c0-0.3-0.3-0.6-0.6-0.7
				c-0.2-0.1-0.4-0.1-0.6-0.2c-2.6-0.8-5.3-0.9-8-0.4c-1.4,0.3-2.9,0.8-4.1,1.5c-1.3,0.8-2.4,1.8-3.2,3c-1.8,2.3-2.9,5.1-3.1,8
				c-0.2,2.9,0.3,5.8,1.4,8.4c2.2,5.3,6.1,9.6,10.6,12.9c1.4,1,2.8,1.8,4.3,2.5c1.1,0.5,2.1,0.9,3.2,1.3
				C276.4,147.2,279.5,147.4,282.1,146.2z"/>
			<path id="Shape_354_" class="st7" d="M316.2,162.5c-0.6-0.1-1.1-0.1-1.7-0.2c-0.3,0-0.6-0.1-1-0.1c-0.3,0-0.6,0-1-0.1
				c-2.5-0.2-5-0.3-7.5-0.3l-11.1-0.1c-2.4,0-4.8,0-7.2,0.1c-3.3,0-6.6,0.1-9.9,0.2c-0.3,0-0.6,0-0.9,0l-0.9,0
				c-1.1,0.1-2.2,0.1-3.3,0.2c-0.2,0-0.3,0.2-0.3,0.4c0,0.2,0.2,0.3,0.3,0.3c1,0.1,2,0.1,3,0.2l0.9,0l0.9,0
				c3.4,0.2,6.8,0.2,10.2,0.3c2.4,0,4.8,0,7.2,0.1l11.1-0.1c2.6-0.1,5.2-0.2,7.8-0.3l0.9-0.1c0.3,0,0.6-0.1,0.9-0.1
				c0.5,0,1-0.1,1.5-0.2c0.1,0,0.2-0.1,0.2-0.2C316.3,162.5,316.3,162.5,316.2,162.5L316.2,162.5z"/>
			<path id="Shape_355_" class="st9" d="M337.4,86c-1.6-2.7-4-4.9-7-5.7c-2.9-1-6.2-0.6-9.2,0.4c-3,1.1-5.9,2.6-8.5,4.5
				c-5.2,3.9-9.7,8.8-13,14.4c-3.2,5.7-5.6,11.9-6.3,18.5c-0.4,3.2-0.2,6.5,0.7,9.7c0.8,2.9,2.5,5.6,4.8,7.6
				c0.9-5.7,2.5-11.2,4.6-16.6c2.4-5.7,5.6-10.9,9.6-15.6c4-4.6,8.8-8.5,14.2-11.5c0.2-0.1,0.4,0,0.5,0.1l0,0c0.1,0.2,0,0.3-0.1,0.5
				c-4.9,3.3-9.4,7.4-13.2,11.9c-3.8,4.6-6.9,9.7-9.1,15.2c-2.3,5.4-3.9,11-4.9,16.8l4,1.4v0c0.1-0.2,0.3-0.2,0.5-0.2
				c1.4,0.7,3,0.7,4.6,0.3c1.6-0.4,3-1.1,4.4-2c2.7-1.8,5.2-3.9,7.5-6.3c4.5-4.8,8.3-10.2,11.3-16.1c3-5.8,5.6-12,6.3-18.4
				C339.3,91.9,339,88.6,337.4,86z"/>
			<path id="Shape_356_" class="st9" d="M281.9,145.5c0.2-0.1,0.4,0,0.5,0.2l0,0l0,0l3-1.1c-1.2-2.1-2.6-4.1-4.1-6.1
				c-2.5-3.3-5.6-6.3-8.6-9.3c-1.4-1.3-2.7-2.7-4.1-4c-0.1-0.2-0.1-0.3,0-0.5c0.1-0.1,0.3-0.1,0.4,0c1.3,0.9,2.5,1.8,3.7,2.7
				c3.7,2.9,7.1,6.3,10.1,9.9c1.4,1.8,2.7,3.7,3.8,5.8c0.1-0.2,0.2-0.4,0.3-0.6c0.9-2.2,1.4-4.5,1.4-6.9c0-3-0.5-5.9-1.4-8.7
				c0,0,0-0.1,0-0.1c-1.8-5.2-4.8-9.9-8.9-13.7l-2.5,9.1c-0.1,0.5-0.6,0.7-1.1,0.6c-0.3-0.1-0.6-0.4-0.6-0.7l-1.1-7.8l-0.5-3.5
				c-4.7-1.3-10.6-0.6-13.4,3.5c-1.6,2-2.6,4.5-2.8,7c-0.2,2.6,0.2,5.2,1.3,7.6c2,4.9,5.6,9.1,9.9,12.4c1.7,1.3,3.6,2.4,5.6,3.2
				c0.5,0.2,1,0.4,1.5,0.6C276.6,146.1,279.4,146.5,281.9,145.5z"/>
			<path id="Shape_357_" class="st9" d="M312.9,163.1c-2.6,0.2-5.2,0.3-7.8,0.3l-11.1,0.1c-2.4,0-4.8,0-7.2-0.1
				c-3.4,0-6.8-0.1-10.2-0.3l-0.8,2.5l-1.7,5.6c-0.8,6.2,0.8,12.5,4.6,17.6c1.9,2.5,4.3,4.6,7,6.1c2.8,1.5,5.9,2.3,9,2.4v0.2
				c6.4-0.2,12.4-3.7,16-8.7c1.9-2.5,3.2-5.4,4-8.4c0.8-3,1-6.1,0.6-9.2L312.9,163.1z"/>
			<path id="Shape_358_" class="st9" d="M278.9,155.5L277,162c3.3-0.2,6.6-0.2,9.9-0.2c2.4,0,4.8,0,7.2-0.1l11.1,0.1
				c2.5,0.1,5,0.2,7.5,0.3l-2-6.7l-15.9,0l-8,0L278.9,155.5z"/>
			<polygon id="Shape_359_" class="st7" points="274.6,163.2 273.9,165.9 274.8,165.9 275.5,163.3 			"/>
			<polygon id="Shape-Copy" class="st7" points="275.4,163.2 274.6,165.9 275.5,165.9 276.3,163.3 			"/>
		</g>
	</g>
</g>
</svg>
