<svg id="Layer_1" xmlns="http://www.w3.org/2000/svg" viewBox="0 0 388 197"><style>.st0{fill:none}.st1{fill:#F6F6F6}.st2{fill:#E1E2E2}.st3{fill:#F6F6F6}.st5{fill:#46799A}.st6{fill:#204A69}.st7{fill:#CCCED0}.st8{fill:#204A69}.st9{fill:#fff}.st11{fill:#6F93AD}.st12{fill:#B0B5B8}.st13{fill:#CCCED0}.st14{fill:#204A69}.st15{fill:#E1E2E2}</style><g id="Page-1"><g id="_x35_-Social-links"><g id="_x35_-displayLinks-socialAccount" transform="translate(25 29)"><path id="Shape" class="st0" d="M66.8 234.7c-1.6-5.2-4.7-10.4-6.6-20.2-1.2.1-2.5.1-3.7.2-1.6 6.7-3.3 14-4.1 18.9.1-.2.3-.3.5-.2 0 0 .1 0 .1.1 1.9 1.6 3.5 2.8 4.9 3.8 2.9 0 5.9-.1 8.8-.1 0-.9 0-1.7.1-2.5z"/><path id="Shape_1_" class="st0" d="M45.3 233.7c0-5.8-1.7-14.1.1-19.5-2.4-.3-4.7-.8-7-1.6.1.4.2.8.2 1.3.4 2.6.8 5.3 1.1 7.9.5 5.2 1.2 10.4 1.3 15.7l4.2-.1c-.4-.9-.4-2.1.1-3.7z"/><path id="Shape_3_" class="st0" d="M74.9 214.1c0-.6-.1-1.2-.2-1.8-.7.2-1.4.4-2.2.6l2 20.9h.4c1.1.7 2.1 1.3 3 1.8-.9-4.5-1.4-9.1-2.1-13.7-.4-2.5-.7-5.2-.9-7.8z"/><path id="Shape_4_" class="st0" d="M61.3 108.3c-1.6 3.9-4.3 6.5-7.8 7.5-1.3.6-2.8.9-4.8.6v-.2c-.1 0-.1 0-.2-.1-1.4 1.7-2.2 3.8-2.4 6.1l.8 1.4 1.6 3c.4.6.8 1.3 1.1 2.1.1.1.1.3.2.4.1.1.1.2.2.4 0 .2.1.2.1.2 1.1 2 2 4.1 2.6 6.2 0 .2 0 .3-.1.5-.4.7-.9 1.3-1.5 1.9.2.5.3 1.1.4 1.6 1.3-1.2 2.4-2.5 3.3-4.1.9-1.6 1.9-3 3-4.5l-1.6-.6c-.7-.2-1.1-1-.8-1.7l4.4-12.4c.2-.7 1-1.1 1.7-.8l1.6.6v-9.2l-.4.2c-.6.2-1.2.4-1.4.9z"/><path id="Shape_5_" class="st0" d="M49.4 160.2c.3 5.3 1.7 12.1 5.9 14.6.8.2 1.6.4 2.4.7.9.3 1.7.6 2.7.9 1 .3 1.9.6 2.8 1v-40c-2.1 5.4-8.3 18.6-13.8 22.8z"/><path id="Shape_7_" class="st1" d="M166.2 39.3h-1.6c4.4 11.5-.5 24.5-11.4 30.2.9 2.1 1.4 4.5 1.4 6.8v.2l1.1-.8 9.4 14.6c3.9-4.1 8.1-7.8 12.6-11.3 1.1-1.1 2.9-1.9 5.3-2.9 1-.4 2.6-.6 4.7-.8v-.1c-.2-.2-.3-.3-.3-.5l-.5-4c-4.9-1.1-6-4.8-6.9-8.9v-.2c-.3.1-.6.2-.9.2-.4 0-.8-.1-1.1-.3-1.4-.8-1.6-3-1.4-4.6.3-2 1.6-3.2 2.7-3.4.3-.1.7 0 1 .1.1-.5.3-.9.5-1.4 0-.2.1-.5.2-.7 1.1-3.2 2.5-5.3 4.1-6.6.3-1.6 1.1-2.9 2.6-3.5 11.9-5.2 25.5 11.8 15.8 17.7v.5c0 .2-.1.4-.2.5-.6 3.8-2.3 7.2-5 8.6v7c3.6.3 6.7.7 7.8 1.1.2.1.4.2.6.2 7.6-1.9 17.4-10.9 22.5-18.4 0 0 2.5-4.5 5-8.1.5-1 .9-1.8 1.3-2.5-2.6-2.4-4.8-5.3-6.2-8.6H224c-.9 0-1.7-.8-1.7-1.7h-4.9c0 .9-.8 1.7-1.7 1.7h-8.2c-.9 0-1.7-.8-1.7-1.7H201c0 .9-.8 1.7-1.7 1.7H191c-.9 0-1.7-.8-1.7-1.7h-4.9c0 .9-.8 1.7-1.7 1.7h-8.3c-.9 0-1.7-.8-1.7-1.7H168c-.2.8-.9 1.6-1.8 1.6z"/><path id="Shape_8_" class="st1" d="M64.8 105.2c-.1 1.1-1 1.5-1.7 1.9v9.2l4.4 1.6c.7.2 1.1 1 .8 1.7l-1.7 4.9c.2.1.4.3.6.5.9 1.1.7 3 .4 4.3-.6 2.7-2.4 6.2-4.2 7.4-.1.2-.2.5-.3.7v40c3.4 1.3 6.5 3.3 9.1 5.9 1.9 1.6 3.4 3.5 4.5 5.6.4 1 .7 1.9.9 3l.5 2.8c0 .2.1.4.1.6.1.3.2.7.2 1.1.2.3.3.6.5.9.8 2 .8 4.2.1 6.2v1.6h94.6c-.2-3.2-.4-6.2-.4-8.8-.6-.2-1.3-.5-1.8-.8-.7-.5-1.1-1.3-1.2-2.1 0-.8-.2-1.8-.3-3.2-.8-8.5-2.5-28.5 1.1-51.3 0-.2.1-.3.2-.4.1-.5.1-1.1.2-1.6.3-2 1.5-3.8 3.3-4.8-.2-.2-.3-.4-.3-.6 0-.5.4-.8.8-.8h1.7l-.9-25.5-6.6 3c-.1 0-.2.1-.3.1-.3 0-.6-.2-.8-.5 0-.1 0-.2-.1-.3-.9.2-1.8.3-2.7.3-11.1.6-18.3-25.8-18.3-25.8l.6-.4-1-.9c-.1 0-.2.1-.3.1s-.3 0-.4-.1c-4-2.1-5.6-5.1-5.8-8.1-13.4-.8-23.6-12.3-22.8-25.7.2-3.1 1-6.1 2.3-8.9h-1.4c0 .9-.8 1.7-1.7 1.7h-8.3c-.9 0-1.7-.8-1.7-1.7h-4.9c0 .9-.8 1.7-1.7 1.7h-8.3c-.9 0-1.7-.8-1.7-1.7h-4.9c0 .9-.8 1.7-1.7 1.7h-8.3c-.9 0-1.7-.8-1.7-1.7h-4.9c0 .9-.8 1.7-1.7 1.7h-4.1v62.1c.2.3.4.5.5.8 1 .6 1.6 1.5 1.5 2.6zm17.3 23.3l68.9.6-.1 55.6-69 1 .2-57.2z"/><path id="Shape_9_" class="st1" d="M179.7 55.2c-.1 0-.2-.1-.3-.2-.2 0-.3.1-.5.2-.3.3-.6.7-.8 1.1l1.3.4c.1-.3.1-.9.3-1.5z"/><path id="Shape_10_" class="st1" d="M177.9 58.1c0 1 .3 1.8.7 1.9.2.2.6 0 .9-.2 0-.4-.1-.8-.1-1.3l-1.5-.4z"/><path class="st1" d="M227.2 97.7h66.9v107.1h-66.9z"/><path id="Shape_11_" class="st1" d="M289.9 39.3c-.9 0-1.7-.8-1.7-1.7h-4.9c0 .9-.8 1.7-1.7 1.7h-4.5c-5.1 11.4-17.5 17.6-29.7 14.9-3 5.3-7.5 7.4-9.7 7.9l1.4 1.4S226.9 85.6 213 92.6l.9 37.4h1.3c.2.1.3.2.4.4V130.7l1.8 22.1c0 .5-.3.9-.8.9l.2 2.1 1.1-.1c.5 0 .9.3.9.8 0 .4-.3.8-.7.9l-1.1.1.3 3.7c.5-.1.9.2 1 .7.1.4-.2.8-.6.9h-.2l.3 3c.5 0 .8.3.9.7v.1l1.5 26.3c0 .4-.3.8-.7.9-.4.1-1.6.2-3.1.4-.3 1.9-.8 5.9-1.3 10.6h30.4c-.2-.3-.3-.7-.5-1-.2-.3 0-.7.3-.9.1 0 .2-.1.3-.1 3 .1 5.9.2 8.9.3l-.4-4.7c-.9.6-1.9 1-2.9 1.1-2 .2-4.1-.4-5.6-1.8l.1-.2c-.7-.3-1.2-1-1.2-1.7 0-.4 0-.8.2-1.2.2-.3.4-.6.7-.9 1-1 2.2-1.7 3.6-1.9 1.4-.2 2.8 0 4.1.6.2.1.4.2.5.3-.1-1-.3-1.9-.5-2.9-.2.1-.3.2-.4.4-.8.7-1.8 1.1-2.8 1.3-2 .4-4.1 0-5.7-1.3l.1-.2c-.7-.3-1.3-.9-1.4-1.6-.1-.4 0-.8.1-1.2.2-.3.3-.7.6-1 .9-1.1 2.1-1.9 3.5-2.2.3-.1.6-.1.9-.2h-1.9c-1.7.6-3.5.6-5.2 0h-13.6v-46.3c0-19.1 15.4-34.5 34.5-34.5H280v44.9c.2.1.4.1.6.2.3.1.6.4.6.7l1 7.8 1.8-6.4c.1-.5.6-.7 1-.6.1 0 .2.1.3.2 3.8 3.4 6.8 7.6 8.8 12.3V39.3h-4.2z"/><path id="Shape_14_" class="st1" d="M195.2 194.4c-.2-.2-.3-.3-.5-.6l-2.7.4c.1.4-.2.8-.6 1-.2 0-.6.1-1.1.2-.1 1.8-.3 5.3-.7 9.6h9.9c-.4-3.2-.7-6.4-1.1-9.7-1.4-.2-2.6-.4-3.2-.9z"/><path id="Shape_17_" class="st1" d="M252.1 194.7c-1.9-1-4.1-.8-5.8.5-.2.1-.4.3-.5.4-.2.2-.2.3-.3.5-.1.5 0 1 .3 1.4l.1-.2c1.5.8 3.2 1 4.9.6.8-.2 1.5-.5 2.1-1 .3-.3.6-.5 1-.8v-.4c-.6-.3-1.2-.7-1.8-1z"/><path id="Shape_18_" class="st2" d="M67.2 35.9h-2.5v-2.5c0-.9-.8-1.7-1.7-1.7-.9 0-1.7.8-1.7 1.7v4.2c0 .9.8 1.7 1.7 1.7h4.2c.9 0 1.7-.8 1.7-1.7 0-.9-.8-1.7-1.7-1.7z"/><path id="Shape_19_" class="st2" d="M63 26.6c.9 0 1.7-.8 1.7-1.7v-8.6c0-.9-.7-1.6-1.6-1.7H63c-.9 0-1.7.8-1.7 1.7v8.5c0 1 .8 1.7 1.7 1.8z"/><path id="Shape_20_" class="st2" d="M73.4 2.4c-.3-.9-1.3-1.3-2.2-1-3 1.1-5.6 3.2-7.3 5.9-.5.8-.3 1.8.5 2.3h.1c.8.5 1.7.2 2.2-.5 1.4-2.1 3.4-3.7 5.7-4.6.8-.3 1.3-1.2 1-2.1z"/><path id="Shape_21_" class="st2" d="M294 14.6c-1 0-1.7.8-1.7 1.7v8.6c0 .9.8 1.7 1.7 1.7.9 0 1.7-.8 1.7-1.7v-8.5c0-1.1-.7-1.8-1.7-1.8z"/><path id="Shape_22_" class="st2" d="M123 .4h-8.6c-.9 0-1.7.8-1.7 1.7 0 .9.8 1.7 1.7 1.7h8.6c.9 0 1.7-.8 1.7-1.7 0-1-.8-1.7-1.7-1.7z"/><path id="Shape_23_" class="st2" d="M259.7.4h-8.6c-.9 0-1.7.8-1.7 1.7v.3c3.8-.6 7.7-.2 11.4.9.3-.3.5-.7.5-1.2 0-1-.7-1.7-1.6-1.7z"/><path id="Shape_24_" class="st2" d="M90.5 2.1c0-.9-.8-1.7-1.7-1.7h-8.6c-.9 0-1.7.8-1.7 1.7 0 .9.8 1.7 1.7 1.7h8.6c.9-.1 1.7-.8 1.7-1.7z"/><path id="Shape_25_" class="st2" d="M140.1.4h-8.6c-.9 0-1.7.8-1.7 1.7 0 .9.8 1.7 1.7 1.7h8.6c.9 0 1.7-.8 1.7-1.7-.1-1-.8-1.7-1.7-1.7z"/><path id="Shape_26_" class="st2" d="M157.1.4h-8.6c-.9 0-1.7.7-1.7 1.7 0 .9.8 1.7 1.7 1.7h8.6c.9 0 1.7-.8 1.7-1.7 0-1-.7-1.7-1.7-1.7z"/><path id="Shape_27_" class="st2" d="M242.6.4H234c-.9 0-1.7.8-1.7 1.7 0 .9.8 1.7 1.7 1.7h8.6c.9 0 1.7-.8 1.7-1.7-.1-1-.8-1.7-1.7-1.7z"/><path id="Shape_28_" class="st2" d="M199.9 3.7h8.6c.9 0 1.7-.8 1.7-1.7 0-.9-.8-1.7-1.7-1.7h-8.6c-.9 0-1.7.8-1.7 1.7 0 1 .7 1.7 1.7 1.7z"/><path id="Shape_29_" class="st2" d="M278.4 2.1c0-.9-.8-1.7-1.7-1.7h-8.6c-.9 0-1.7.8-1.7 1.7 0 .9.8 1.7 1.7 1.7h8.6c.9-.1 1.7-.8 1.7-1.7z"/><path id="Shape_30_" class="st2" d="M290.4 9.1c.5.7 1.4 1 2.2.5h.1c.8-.5 1-1.6.5-2.3-1.8-2.7-4.4-4.7-7.4-5.9-.9-.3-1.8.1-2.2 1v.1c-.3.8.2 1.8 1 2.1 2.3.8 4.3 2.4 5.8 4.5z"/><path id="Shape_31_" class="st2" d="M107.6 2.1c0-.9-.8-1.7-1.7-1.7h-8.6c-.9 0-1.7.8-1.7 1.7 0 .9.8 1.7 1.7 1.7h8.6c.9-.1 1.7-.8 1.7-1.7z"/><path id="Shape_32_" class="st2" d="M216.9 3.7h8.6c.9 0 1.7-.7 1.7-1.7 0-.9-.8-1.7-1.7-1.7h-8.6c-.9 0-1.7.8-1.7 1.7.1 1 .8 1.7 1.7 1.7z"/><path id="Shape_33_" class="st2" d="M165.7 3.7h8.5c.9 0 1.7-.8 1.7-1.7 0-.9-.8-1.7-1.7-1.7h-8.6c-.9 0-1.7.8-1.7 1.7.1 1 .8 1.7 1.8 1.7z"/><path id="Shape_34_" class="st2" d="M182.8 3.7h8.6c.9 0 1.7-.8 1.7-1.7 0-.9-.8-1.7-1.7-1.7h-8.6c-.9 0-1.7.8-1.7 1.7 0 1 .7 1.7 1.7 1.7z"/><path id="Shape_35_" class="st2" d="M294 31.7c-.9 0-1.7.8-1.7 1.7v2.5h-2.5c-.9 0-1.7.8-1.7 1.7 0 .9.8 1.7 1.7 1.7h4.2c.9 0 1.7-.8 1.7-1.7v-4.2c0-.9-.7-1.7-1.7-1.7z"/><path id="Shape_36_" class="st2" d="M199.1 35.9h-8.3c-.9 0-1.7.8-1.7 1.7 0 .9.8 1.7 1.7 1.7h8.3c.9 0 1.7-.8 1.7-1.7 0-.9-.8-1.7-1.7-1.7z"/><path id="Shape_37_" class="st2" d="M100.2 35.9h-8.3c-.9 0-1.7.8-1.7 1.7 0 .9.8 1.7 1.7 1.7h8.3c.9 0 1.7-.8 1.7-1.7 0-.9-.8-1.7-1.7-1.7z"/><path id="Shape_38_" class="st2" d="M166.2 35.9H163c.3.5.6 1.1.9 1.7.3.6.5 1.1.7 1.7h1.6c.9 0 1.7-.8 1.7-1.7-.1-.9-.8-1.7-1.7-1.7z"/><path id="Shape_39_" class="st2" d="M83.7 35.9h-8.3c-.9 0-1.7.8-1.7 1.7 0 .9.8 1.7 1.7 1.7h8.3c.9 0 1.7-.8 1.7-1.7 0-.9-.8-1.7-1.7-1.7z"/><path id="Shape_40_" class="st2" d="M116.7 35.9h-8.3c-.9 0-1.7.8-1.7 1.7 0 .9.8 1.7 1.7 1.7h8.3c.9 0 1.7-.8 1.7-1.7-.1-.9-.8-1.7-1.7-1.7z"/><path id="Shape_41_" class="st2" d="M182.7 35.9h-8.3c-.9 0-1.7.8-1.7 1.7 0 .9.8 1.7 1.7 1.7h8.3c.9 0 1.7-.8 1.7-1.7-.1-.9-.8-1.7-1.7-1.7z"/><path id="Shape_42_" class="st2" d="M215.6 35.9h-8.3c-.9 0-1.7.8-1.7 1.7 0 .9.8 1.7 1.7 1.7h8.3c.9 0 1.7-.8 1.7-1.7 0-.9-.7-1.7-1.7-1.7z"/><path id="Shape_43_" class="st2" d="M227.7 35.9h-3.9c-.9 0-1.7.8-1.7 1.7 0 .9.8 1.7 1.7 1.7h5.1c-.3-.5-.5-1.1-.7-1.7-.1-.6-.3-1.1-.5-1.7z"/><path id="Shape_44_" class="st2" d="M281.6 35.9h-3.3c-.2.6-.4 1.1-.6 1.7-.2.5-.4 1.1-.7 1.7h4.5c.9 0 1.7-.8 1.7-1.7.1-.9-.6-1.7-1.6-1.7z"/><path id="Shape_45_" class="st3" d="M66.8 237.1c-2.9 0-5.9.1-8.8.1 1.8 1.3 3.1 2.1 3.8 2.8 2.4 0 4.8.1 7.2.1-1.2-.5-2.1-1.7-2.2-3z"/><path id="Shape_46_" class="st3" d="M352.4 237.9c-16.8-.3-33.5-.6-50.2-.7h-.2v.2c-1 0-2 0-3-.2l-37.8-.3c-1.3.4-2.7.6-4.1.6h-.4-.1c-1.4 0-2.9-.3-4.2-.7-24.3-.1-48.7-.2-73.1-.2l-86.5.2-12.6.2c3.1 1.6 5 2.4 5.1 3.2l7.5.1 86.5.2c57.7-.2 115.3-.1 173-1.2.4 0 .6-.3.6-.7.1-.4-.2-.7-.5-.7z"/><path id="Shape_47_" class="st3" d="M45.2 237.4l-4.2.1v.2c0 .2-.2.3-.3.3-.2 0-.3-.1-.3-.3v-.3c-11.3.2-22.6.4-33.9.8-.2 0-.3.2-.3.3 0 .2.2.3.3.3 14.2.5 28.3.7 42.5.9-.7-.2-1.4-.5-2-.8-.9-.2-1.5-.8-1.8-1.5z"/><path id="Shape_48_" class="st3" d="M274.6 168.7c-.1.1-.1.3 0 .5 1.4 1.5 2.8 2.8 4.3 4.2v-1.9c-1.3-1.1-2.5-2-3.9-2.8-.1-.2-.3-.2-.4 0z"/><path id="Shape_49_" class="st3" d="M284.8 201.1h.7l.2-.7z"/><path id="Shape_51_" class="st3" d="M256.6 237.5c.1 0 .1 0 0 0h.5c1.4 0 2.8-.3 4.1-.6h-8.8c1.4.4 2.8.6 4.2.6z"/><path id="Shape_52_" d="M256.6 237.5c.1 0 .1 0 0 0h.5c1.4 0 2.8-.3 4.1-.6h-8.8c1.4.4 2.8.6 4.2.6z" opacity=".5" fill="#CCCED0"/><path id="Shape_53_" class="st3" d="M5.3 237.7l3.5-28.9h-.5c-.4 1.7-.7 3.4-1 5.1-.4 2.6-.8 5.3-1.1 7.9-.5 5.2-1.2 10.5-1.3 15.8 0 .2.2.3.3.3.2 0 .3-.1.3-.3 1.2-5.2 1.8-10.5 2.5-15.7.3-2.6.6-5.3.8-7.9.2-1.8.3-3.5.3-5.3h-.3l-3.5 29z"/><path id="Shape_54_" class="st3" d="M60.3 176.4c-.9-.3-1.7-.6-2.7-.9-.8-.2-1.6-.5-2.4-.7.7.4 1.4.7 2.2.9 1 .2 1.9.4 2.9.7z"/><path id="Shape_55_" class="st3" d="M78.1 194.6l-.5-2.8c-.2-1-.5-2-.9-3-1.1-2.2-2.7-4.1-4.5-5.6 3 3.2 5.1 7.2 6.1 12-.2-.2-.2-.4-.2-.6z"/><path id="Shape_56_" class="st3" d="M35.2 192.4c-.3-.1-.6-.2-1-.2h-.3l.2.8h2.2c-.3-.3-.7-.4-1.1-.6z"/><path id="Shape_57_" class="st3" d="M78.6 198.1c.1.5.1 1 .2 1.4 0 .3.1.5.1.8v.1c0 1 .1 1.9.1 2.9.8-2 .8-4.2-.1-6.2-.1-.3-.3-.6-.5-.9.1.3.1.7.2 1v.9z"/><path id="Shape_58_" class="st3" d="M37.2 193.8c-.2-.3-.5-.6-.8-.8h-2.2l.2.8h2.8z"/><path id="Shape_59_" class="st3" d="M74.7 212.3c0 .6.1 1.2.2 1.8.3 2.6.5 5.3.8 7.9.6 4.6 1.2 9.1 2.1 13.7l.5.3-2.9-24c-.2.1-.4.2-.7.3z"/><path id="Shape_60_" class="st3" d="M78.4 235.9l.5.3c-.2-4.9-.8-9.7-1.3-14.5-.3-2.6-.7-5.3-1.1-7.9l-.3-2.1c-.2.1-.5.2-.7.3l2.9 23.9z"/><path id="Shape_61_" class="st3" d="M15.6 161.4c-.7 0-1.3.6-1.3 1.3 0 .6.5 1.2 1.1 1.3.3-.8.7-1.6 1-2.3-.2-.2-.5-.3-.8-.3z"/><path id="Shape_62_" class="st5" d="M49.7 128.6c-.3-.7-.7-1.4-1.1-2.1l.2.4c.3.6.7 1.1.9 1.7z"/><path id="Shape_63_" class="st5" d="M22.3 150.7c.1-.2.3-.3.5-.3 0-1.4 0-2.8.1-4.1h-.6c-.1 1.4-.1 2.9-.1 4.5l.1-.1z"/><path id="Shape_64_" class="st5" d="M22.9 146.3v-1h-.6v.9l.6.1z"/><path id="Shape_65_" class="st5" d="M23.2 138.8c-.3 1.5-.5 3.1-.6 4.8l.6.3c.2-1.6.3-3.1.6-4.5-.4-.1-.6-.4-.6-.6z"/><path id="Shape_66_" class="st5" d="M23 144.6l-.3-.2h-.3v.6l.6.3c-.1-.1-.1-.4 0-.7z"/><path id="Shape_67_" class="st5" d="M23 144.5c0-.2 0-.4.1-.6l-.6-.3c0 .3-.1.5-.1.8l.3.2.3-.1z"/><path id="Shape_68_" class="st5" d="M28.5 125.7c.1-.2.2-.3.3-.4l-.2-.2c-.1.2-.2.3-.3.4 0 .1.2.1.2.2z"/><path id="Shape_69_" class="st5" d="M22.8 150.5h.5c0-1.4 0-2.8.1-4.1h-.6c0 1.3-.1 2.6 0 4.1z"/><path id="Shape_70_" class="st5" d="M23.5 145.7c-.2-.1-.4-.2-.5-.3v1h.6c-.1-.2-.1-.5-.1-.7z"/><path id="Shape_71_" class="st5" d="M28.6 125.8c0 .1.1.3 0 .4l-.4 1.1c.3-.6.6-1.1 1-1.6l-.3-.3-.3.4z"/><path id="Shape_72_" class="st5" d="M24.3 138.9c-.1.2-.3.4-.6.4h-.1c-.3 1.4-.5 3-.6 4.5l.6.3c.2-1.8.4-3.5.7-5.2z"/><path id="Shape_73_" class="st5" d="M23.5 145.4v-.5l-.6-.3c0 .3 0 .5-.1.8h.7z"/><path id="Shape_74_" class="st5" d="M23.6 144.1l-.6-.3c0 .2 0 .4-.1.6h.6c.1 0 .1-.2.1-.3z"/><path id="Shape_75_" class="st5" d="M53.8 174.5c.5.1 1 .2 1.4.3-4.2-2.6-5.5-9.4-5.9-14.6-.2.2-.4.3-.6.4.4 4.8 1.6 10.8 5.1 13.9z"/><path id="Shape_76_" class="st5" d="M36.6 211.1c-.8-.5-1.1-1.3-1.2-2.3h-.6c0 1.2.5 2.1 1.5 2.8.1.1.3.2.4.2 0-.2 0-.5-.1-.7z"/><path id="Shape_77_" class="st5" d="M72.4 212.3v.6c.8-.2 1.6-.4 2.2-.6v-.6c-.6.2-1.4.4-2.2.6z"/><path id="Shape_78_" class="st5" d="M60.1 214c-1.1.1-2.3.1-3.5.2l-.2.6c1.3 0 2.5-.1 3.7-.2 0-.2-.1-.3-.1-.5.1 0 .1-.1.1-.1z"/><path id="Shape_79_" class="st5" d="M45.6 213.7c-2.5-.3-4.9-.8-7.3-1.8 0 .2.1.5.1.6 2.2.8 4.6 1.4 7 1.6.1-.1.1-.3.2-.4z"/><path id="Shape_80_" class="st5" d="M63.1 177.6v-.2c-.9-.3-1.8-.7-2.8-1 .9.4 1.9.8 2.8 1.2z"/><path id="Shape_81_" class="st5" d="M77.9 209.5c-.1.6-.8 1.1-1.9 1.7 0 .2.1.4.1.6.1-.1.3-.1.4-.2 1.3-.6 1.9-1.3 2-2l.1-.6c.2-1.4.2-2.7.3-4h-.6c-.1 2-.2 3.5-.4 4.5z"/><path id="Shape_82_" class="st5" d="M36.1 192.2l-.6-.3c-.5-.2-1.1-.3-1.6-.4v.1l.1.6c.1 0 .2 0 .3.1h1.8v-.1z"/><path id="Shape_83_" class="st5" d="M78.4 205h.5v-1.6c-.2.4-.3.8-.5 1.2v.4z"/><path id="Shape_84_" class="st5" d="M68.3 180.4c1.3.9 2.6 1.8 3.8 2.9-2.5-2.6-5.6-4.6-9.1-5.9v.2c1.9.8 3.6 1.7 5.3 2.8z"/><path id="Shape_85_" class="st5" d="M55.1 175.4l3.6 1.2c1.5.4 3 .8 4.5 1.4v-.5c-.9-.4-1.9-.8-2.8-1.1-.9-.3-1.9-.5-2.9-.7-.8-.2-1.5-.5-2.2-.9-.5-.1-1-.2-1.4-.3.3.3.7.6 1.2.9z"/><path id="Shape_86_" class="st5" d="M63.1 177.6v.5c4.9 2 8.3 4.9 10.7 8.1 1.4 1.7 2.4 3.4 2.7 5.1v.1c.5 1.3.9 2.5 1.2 3.9.3.3.5.7.7 1.1 0-.3-.1-.6-.2-1-1-4.8-3-8.9-6.1-12-1.2-1-2.5-2-3.8-2.9-1.7-1.2-3.4-2.1-5.2-2.9z"/><path id="Shape_87_" class="st5" d="M58.6 176.6c-1.1-.4-2.3-.8-3.6-1.2.7.4 1.4.7 2.2.9.5.1 1 .2 1.4.3z"/><path id="Shape_88_" class="st5" d="M76.4 191.2c-.3-1.7-1.3-3.4-2.7-5.1 1.1 1.6 2 3.3 2.7 5.1z"/><path id="Shape_89_" class="st5" d="M16.8 162.2c1.6-3.5 3.4-7 5.4-10.3v-.8-.2c-2.2 3.5-4.1 7.1-5.8 10.8.2.1.3.3.4.5z"/><path id="Shape_90_" class="st5" d="M16.1 164c-.2 0-.3.1-.5.1h-.2c-1.6 3.7-2.9 7.8-3.4 11.6.2 0 .4.1.6.2.5-4 1.9-8.1 3.5-11.9z"/><path id="Shape_91_" class="st5" d="M37.8 193.8h-.7c1.3 1.8.5 4.7-.8 8.6.1.3.2.7.3 1.1 1.2-3.5 2.6-7.3 1.2-9.7z"/><path id="Shape_92_" class="st5" d="M36.1 192.2h-1.8c.3.1.6.2 1 .2.4.1.8.3 1.1.5h.9c-.4-.3-.8-.6-1.2-.7z"/><path id="Shape_93_" class="st5" d="M78.9 200.5c0 .1-.2.2-.3.2 0 .4-.1.9-.2 1.3v2.6c.2-.4.4-.8.5-1.2v-2.9z"/><path id="Shape_94_" class="st5" d="M78.6 200.4v.3c.1 0 .2-.1.3-.2v-1c0-.5-.1-1-.2-1.4 0-.3-.1-.5-.1-.8-.1-.4-.1-.8-.2-1.1-.2-.4-.5-.7-.7-1.1.2 1 .4 1.9.5 2.8.2.8.4 1.7.4 2.5z"/><path id="Shape_95_" class="st5" d="M36.3 193c.3.2.6.5.8.8h.7c-.2-.3-.4-.6-.6-.8h-.9z"/><path id="Shape_96_" class="st5" d="M74.7 212.3c.3-.1.5-.2.8-.3l-.1-.6c-.2.1-.5.2-.7.3v.6z"/><path id="Shape_97_" class="st5" d="M75.4 211.4l.1.6c.3-.1.5-.2.7-.3 0-.2-.1-.4-.1-.6-.3.1-.5.2-.7.3z"/><path id="Shape_98_" class="st5" d="M38.3 211.9c-.3-.1-.6-.2-.8-.4l.1.7c.3.1.6.2.8.3 0-.1-.1-.3-.1-.6z"/><path id="Shape_99_" class="st5" d="M37.5 211.6c-.3-.1-.5-.3-.8-.4v.7c.3.2.5.3.8.4v-.7z"/><path id="Shape_100_" class="st5" d="M16.1 164c.3-.6.5-1.2.8-1.8-.1-.2-.2-.4-.4-.5-.3.8-.7 1.5-1 2.3h.2c0 .1.2 0 .4 0z"/><path id="Shape_101_" class="st5" d="M72.4 212.3c-4.1.9-8.2 1.5-12.3 1.7v.1c0 .2.1.3.1.5 4.1-.2 8.2-.8 12.3-1.7l-.1-.6z"/><path id="Shape_102_" class="st5" d="M45.6 213.7c-.1.2-.1.3-.2.5 2.9.4 5.9.5 8.9.5h2.2l.2-.6c-3.8.2-7.5 0-11.1-.4z"/><path id="Shape_103_" class="st5" d="M23.4 151.1l16.9 1.5c0-.2-.1-.4-.2-.6l-16.7-1.4v.5z"/><path id="Shape_104_" class="st5" d="M22.3 151.9c.3-.6.5-.9.5-.9v-.6c-.2 0-.4.1-.5.3l-.1.2v.2c0 .2.1.5.1.8z"/><path id="Shape_105_" class="st5" d="M23.4 151.1s0-.1 0 0v-.6h-.5v.6h.5z"/><path id="Shape_106_" class="st5" d="M74.6 211.1c-.6.2-1.4.5-2.3.6l.1.6c.8-.2 1.6-.4 2.2-.6.1-.2 0-.4 0-.6z"/><path id="Shape_107_" class="st5" d="M36.1 208.8h-.6c0 1 .4 1.8 1.2 2.3h.1v-.8c-.5-.3-.7-.9-.7-1.5z"/><path id="Shape_108_" class="st5" d="M56.8 213.6l-.2.6c1.1 0 2.3-.1 3.5-.2 0-.2-.1-.4-.2-.6-1 .1-2.1.2-3.1.2z"/><path id="Shape_109_" class="st5" d="M45.7 213.2c-3-.4-5.6-1-7.6-1.9 0 .2.1.5.1.7 2.3.9 4.8 1.5 7.3 1.8.1-.3.2-.5.2-.6z"/><path id="Shape_110_" class="st5" d="M52.7 174.2c.4.1.7.2 1.1.2-3.4-3-4.6-9.1-5-13.9l-.6.3c.4 4.6 1.5 10.2 4.5 13.4z"/><path id="Shape_111_" class="st5" d="M77.7 205.6c0 1.1-.2 2.2-.3 3.3l-.1.6c0 .2-.4.6-1.3 1.1h-.1c0 .2.1.4.1.6 1.1-.5 1.8-1.1 1.9-1.7.1-1 .3-2.5.4-4.5h-.2c-.1.2-.3.4-.4.6z"/><path id="Shape_112_" class="st5" d="M36.1 192.2h1.1c-.5-.3-1-.6-1.6-.8-.7-.2-1.4-.4-2.1-.5.1.2.2.4.2.6.6.1 1.1.2 1.6.4.3.1.6.1.8.3z"/><path id="Shape_113_" class="st5" d="M57.6 176.9c-.8-.3-1.6-.6-2.5-.9.6.3 1.4.6 2.1.8.1.1.2.1.4.1z"/><path id="Shape_114_" class="st5" d="M53.5 175c.5.2 1.1.3 1.6.4-.5-.3-.9-.6-1.3-1-.4-.1-.7-.2-1.1-.2.2.3.5.5.8.8z"/><path id="Shape_115_" class="st5" d="M63.1 178.5v-.5c-1.4-.6-2.9-1.1-4.5-1.4 1.6.6 3.1 1.2 4.5 1.9z"/><path id="Shape_116_" class="st5" d="M73.7 186.1C71.4 182.9 68 180 63 178v.5c4.7 2.2 8.4 4.8 10.7 7.6z"/><path id="Shape_117_" class="st5" d="M77.6 195.1c-.3-1.3-.7-2.6-1.2-3.9.3 1.3.5 2.4.8 3.4.1.2.3.4.4.5z"/><path id="Shape_118_" class="st5" d="M55.1 176.1c.8.3 1.6.6 2.5.9 1.9.4 3.7 1 5.5 1.7v-.2c-1.4-.7-2.9-1.3-4.5-1.9-.5-.1-.9-.2-1.3-.3-.8-.2-1.5-.5-2.2-.9-.5-.2-1.1-.3-1.6-.4.5.4 1 .8 1.6 1.1z"/><path id="Shape_119_" class="st5" d="M63.1 178.5v.2c7.2 2.9 11.8 8.1 13.7 15.6l.5.5c-.2-1-.5-2.1-.8-3.4-.7-1.8-1.6-3.5-2.7-5.1-2.4-3-6.1-5.6-10.7-7.8z"/><path id="Shape_120_" class="st5" d="M22.3 152.9c0-.3 0-.7-.1-1.1-2 3.3-3.8 6.7-5.4 10.3.3.6 0 1.4-.6 1.8h-.1c-1.6 3.8-3 8-3.5 11.8.2 0 .4.1.6.2 1.1-8.7 6.8-19.1 9.1-23z"/><path id="Shape_121_" class="st5" d="M38.5 193.8h-.6c1.3 2.4-.1 6.2-1.2 9.6l.3 1.1c.2-.5.3-1 .5-1.5.9-3.1 2.1-6.7 1-9.2z"/><path id="Shape_122_" class="st5" d="M37.2 193h.8c-.2-.3-.5-.6-.8-.8h-1.1c.4.2.8.4 1.1.8z"/><path id="Shape_123_" class="st5" d="M77.7 205h.4c.1-.2.2-.3.3-.4V202l-.6 1.8c-.1.4-.1.8-.1 1.2z"/><path id="Shape_124_" class="st5" d="M77.8 197.1c.2.3.3.5.4.8-.1-.9-.3-1.9-.5-2.8-.1-.2-.3-.3-.4-.5.1 1 .3 1.8.5 2.5z"/><path id="Shape_125_" class="st5" d="M77.8 197.1c-.2-.7-.3-1.4-.5-2.4l-.5-.5c.2.6.3 1.2.4 1.9.2.3.4.6.6 1z"/><path id="Shape_126_" class="st5" d="M37.2 193c.2.2.5.5.6.8h.6c-.1-.3-.3-.6-.5-.8h-.7z"/><path id="Shape_127_" class="st5" d="M78.2 200.5l-.3-.6-.4-.3c.1 1.3.1 2.7.1 4.1.3-.6.5-1.2.6-1.8v-1.4c.1.1.1.1 0 0z"/><path id="Shape_128_" class="st5" d="M77.6 198.9c.2.4.3.7.5 1.1l.3.3c0-.3 0-.7-.1-1-.1-.5-.3-1.2-.5-2.1-.2-.3-.4-.7-.6-1 .1.7.2 1.7.4 2.7z"/><path id="Shape_129_" class="st5" d="M74.6 211.1v.6c.3-.1.5-.2.7-.3l-.1-.6c-.1.1-.3.2-.6.3z"/><path id="Shape_130_" class="st5" d="M75.3 210.8l.1.6c.3-.1.5-.2.7-.3 0-.2-.1-.4-.1-.6-.2.1-.5.2-.7.3z"/><path id="Shape_131_" class="st5" d="M38.2 211.3c-.3-.1-.5-.3-.8-.4l.1.7c.3.1.5.3.8.4 0-.3-.1-.5-.1-.7z"/><path id="Shape_132_" class="st5" d="M37 210.6l-.3-.3v.8c.2.2.5.3.8.4l-.1-.7c-.2 0-.3-.1-.4-.2z"/><path id="Shape_133_" class="st5" d="M16.9 162.7c0-.2 0-.4-.1-.5-.3.6-.5 1.2-.8 1.8.6-.2.9-.7.9-1.3z"/><path id="Shape_134_" class="st5" d="M59.9 213.5c0 .2.1.4.2.6 4.1-.2 8.3-.8 12.3-1.7l-.1-.6c-4 .9-8.2 1.4-12.4 1.7z"/><path id="Shape_135_" class="st5" d="M45.7 213.2c0 .2-.1.3-.2.5 3.7.4 7.4.6 11.1.5l.2-.6c-3.7.1-7.4 0-11.1-.4z"/><path id="Shape_136_" class="st5" d="M40.4 153.2c-.1-.2-.1-.4-.2-.6l-16.9-1.5v.6l17.1 1.5z"/><path id="Shape_137_" class="st5" d="M22.8 152v-1s-.2.3-.5.9c0 .3 0 .7.1 1.1.1-.4.3-.7.4-1z"/><path id="Shape_138_" class="st5" d="M23.1 151.6h.3v-.6h-.6v1l.3-.4z"/><path id="Shape_139_" class="st5" d="M44.9 121.3l.6 1.1c1.1 1.3 2.2 2.7 3.1 4.1l-1.6-3-.8-1.4v.2l-1.3-1z"/><path id="Shape_140_" class="st5" d="M42.9 124.4l-3.4-2.9c-.2.2-.3.4-.6.6l2.9 2.3h1.1z"/><path id="Shape_141_" class="st5" d="M47.2 125.4c.3.5.7 1 1 1.6.7.8 1.4 1.7 1.9 2.6l-.1-.2c0-.1-.1-.3-.2-.4 0-.1-.1-.3-.2-.4-.3-.5-.6-1.1-.8-1.6l-.2-.4c-.9-1.5-1.9-2.9-3.1-4.1l1.7 2.9z"/><path id="Shape_142_" class="st5" d="M48.2 127c-.3-.5-.6-1.1-1-1.6l.6 1.1c.1.2.2.3.4.5z"/><path id="Shape_143_" class="st5" d="M43.8 119.2l1.1 2.1 1.3 1v-.2l-1.7-3.2c-.2.2-.5.3-.7.3z"/><path id="Shape_144_" class="st5" d="M43.7 120.6c.5.4 1 .8 1.4 1.3l.5.5-.6-1.1-1.5-1.2.2.5z"/><path id="Shape_145_" class="st5" d="M40.1 120.2s-.1.2-.2.5l.6-.6-.3-.1s-.1.1-.1.2z"/><path id="Shape_146_" class="st5" d="M46.6 125.6c-.2-.3-.4-.6-.6-.8l.4.7s.1 0 .2.1z"/><path id="Shape_147_" class="st5" d="M42.9 124.4c.4 0 .8 0 1.2.1l-.1-.2-.1-.1-.2-.2-.9-.8-2.9-2.4c-.1.3-.2.5-.4.7l3.4 2.9z"/><path id="Shape_148_" class="st5" d="M43.7 120.6l.9 1.6.1.1c.9 1 1.7 2 2.5 3.1l-1.6-3-.5-.5c-.5-.4-.9-.9-1.4-1.3z"/><path id="Shape_149_" class="st5" d="M44.5 122.2l1.1 2 .3.5c.2.3.4.6.6.8.4.3.8.6 1.2 1l-.6-1.1c-.7-1.1-1.6-2.2-2.6-3.2z"/><path id="Shape_150_" class="st5" d="M43 119.4l.3.7 1.5 1.2-1.1-2.1c-.2.1-.4.2-.7.2z"/><path id="Shape_151_" class="st5" d="M19.4 134.6c.8-1.9 1.7-3.6 3-5.3-.2-.1-.3-.2-.5-.3-1.2 1.6-2.2 3.4-3 5.3-.1.3 0 .6.3.7l.6.3.2-.3c-.4-.2-.6-.4-.6-.4z"/><path id="Shape_152_" class="st5" d="M23.1 138.7c.1-.3.1-.6.2-1-.6-.8-1.3-1.4-2.2-2-.1.2-.2.3-.3.5 1.3.9 2.3 1.9 2.3 2.5z"/><path id="Shape_153_" class="st5" d="M20.6 135.4c-.2-.2-.4-.3-.6-.4l-.3.5c.2.1.4.2.6.4.1-.2.2-.4.3-.5z"/><path id="Shape_154_" class="st5" d="M21.2 135.8c-.2-.2-.4-.3-.6-.4-.1.2-.2.3-.3.5.2.1.4.3.6.4.1-.2.2-.3.3-.5z"/><path id="Shape_155_" class="st5" d="M24.3 138.9l3.9-11.6c-1.6 3.1-3.1 7-3.9 11.6z"/><path id="Shape_156_" class="st5" d="M23.7 138.7c0-.3-.2-.7-.4-1-.1.3-.2.6-.2 1 0 .3.2.5.5.5 0-.2.1-.5.1-.7v.2z"/><path id="Shape_157_" class="st5" d="M28.3 125.5c-.1.1-.2.2-.4.2v.2h.2l-.2.6.3-.3c.1-.2.3-.4.4-.6-.1 0-.3 0-.3-.1z"/><path id="Shape_158_" class="st5" d="M28.6 126.3v-.4l-.5.5-.3.6v1.2l-.6.6-3.4 10c0 .2-.1.4-.1.7h.1c.2 0 .5-.2.6-.4.8-4.6 2.2-8.5 3.9-11.6l.3-1.2z"/><path id="Shape_159_" class="st5" d="M20.1 134.4c.8-1.7 1.7-3.3 2.8-4.8-.1 0-.2 0-.2-.1-.1 0-.2-.1-.3-.2-1.2 1.6-2.2 3.4-3 5.3l.6.4c.1-.2.2-.3.3-.5l-.2-.1z"/><path id="Shape_160_" class="st5" d="M23.4 137.8c0-.2.1-.5.2-.7-.6-.7-1.3-1.3-2-1.8l-.3.5c.7.5 1.4 1.2 2.1 2z"/><path id="Shape_161_" class="st5" d="M20.3 134.5c-.1.2-.2.3-.3.5.2.1.4.2.6.4.1-.2.2-.3.3-.5-.2-.2-.4-.3-.6-.4z"/><path id="Shape_162_" class="st5" d="M21.5 135.3c-.2-.2-.4-.3-.6-.4-.1.2-.2.3-.3.5.2.1.4.3.6.4l.3-.5z"/><path id="Shape_163_" class="st5" d="M23.8 138.7c.6-3.3 1.6-6.6 3-9.7-.1.1-.3.2-.4.2l-2.7 8-.2-.2c0 .2-.1.5-.2.7.2.3.3.6.4 1h.1z"/><path id="Shape_164_" class="st5" d="M23.8 138.7l3.4-10c-.1.1-.3.2-.4.3-1.4 3.1-2.4 6.3-3 9.7z"/><path id="Shape_165_" class="st6" d="M58.2 97.7h.2c.1 0 .2 0 .3-.1v-.1c0-.1 0-.3-.1-.4l-.3-.3c-.3.3-.6.5-1 .7.4.1.7.2.9.2z"/><path id="Shape_166_" class="st6" d="M55.6 97.7h1.7c.3-.2.7-.5 1-.7-.4-.2-.9-.3-1.4-.3-.6 0-1.2.3-1.6.8 0 .1 0 .2.1.2.1-.1.1-.1.2 0z"/><path id="Shape_167_" class="st7" d="M39.7 221.8c-.3-2.6-.7-5.3-1.1-7.9-.1-.4-.2-.8-.2-1.3-.3-.1-.6-.2-.8-.3-.3-.1-.5-.3-.8-.4 0 .8.1 1.5.2 2.2.3 2.6.5 5.3.8 7.9.7 5.2 1.3 10.3 2.5 15.4v.3c0 .2.2.3.4.2.2 0 .3-.2.3-.3v-.2c-.1-5.3-.8-10.4-1.3-15.6z"/><path id="Shape_168_" class="st7" d="M61.9 98.7c-.2-.1-.3-.1-.5 0h-.2l-.4.1v.2l-.3.2s-.1.1-.2.1c-.4-.4-1-.6-1.5-.7h-.6l-2 .2c-.6.1-1.2.4-1.5.9s-.5 1.1-.3 1.6l.2.6c.3 1.3 1.6 2.3 2.9 2.2h.5l.5-.1c.5-.1 1-.3 1.4-.6.8-.6 1.3-1.6 1.2-2.7 0-.2-.1-.4-.2-.6h.2l.4-.1.2-.1.3-.2c.1 0 .2-.1.2-.2.1-.1.1-.3.1-.4l-.1-.2c-.1-.1-.2-.1-.3-.2zm-2.4 3.9c-.3.3-.7.5-1.1.6l-.5.1c-1 .2-2-.5-2.2-1.4l-.2-.6c-.1-.3 0-.6.2-.8.2-.3.5-.4.8-.5l2-.2h.5c.6.1 1.1.6 1.3 1.3-.2.5-.4 1.1-.8 1.5z"/><path id="Shape_169_" class="st7" d="M37 208.8c.1 0 .1 0 0 0 .3-.1.4-.2.5-.4.1-.2.2-.3.2-.5v-.2l-.1-.3c-.3-1-.5-1.9-.8-2.9l-.3-1.1c-.1-.3-.2-.7-.3-1.1-.6-2.5-1.3-5.1-1.8-7.6l-.2-1-.2-.8-.2-.8v-.1l-.1-.6v-.1c0-.2-.2-.4-.2-.6-.3-.9-.7-1.8-1.2-2.6s-1-1.5-1.6-2.2c-.9-1.1-1.9-2-3-2.9-3.6-2.7-7.6-4.9-11.9-6.3-.9-.3-1.8-.6-2.7-.8-.2 0-.4-.1-.6-.2s-.4-.1-.6-.2c-.9-.2-1.7-.5-2.6-.6l-3.3-.6-1.6-.2c-.3 0-.7-.1-1.1-.1-.3-1.9-.4-3.8-.6-5.7l-.8-7.1-.2-1.8c0-.6-.1-1.1-.1-1.7 0-1.1.2-2.2.5-3.3 1.3-4.3 5.1-7.7 9.5-8.1 1.1-.1 2.3-.1 3.5 0H22.4v-.9-.3c-.3-.2-.7-.4-1-.6H15c-1.2 0-2.4 0-3.7.1-5.1.6-9.5 4.6-10.8 9.4-.3 1.1-.5 2.4-.5 3.7 0 .6 0 1.3.1 1.9l.2 1.8 1 7c.4 2.4.6 4.6 1.1 7.1.1.3.2.5.3.8L4 190.7c.5 5.7 1 11.5 1.7 17.2 0 .4.4.8.8.8h2.8l25.6.1H37zM20.1 207H7.3c-.6-5.3-1.3-10.5-2.1-15.8l-1.7-13-.2-1.8-.3-2v-.1l.4.1c.3.1.6.2 1 .2l1.6.4c1.1.3 2.1.5 3.2.8.9.3 1.8.5 2.7.8l.6.2c.2.1.4.2.6.2l2.4.9c4 1.7 8 3.7 11.3 6.5.4.3.8.7 1.3 1.1 1.2 1.1 2.2 2.2 3 3.6.3.5.5 1 .8 1.5.1.2.1.4.2.6.1.2.2.4.2.6v.1l.1.3.2.8.2.8.3 1.4c.8 3.5 1.6 7.1 2.5 10.6l.3 1.2H20.1z"/><path id="Shape_170_" class="st8" d="M62.7 136.2c-1.5 4.8-8 18.7-13.4 23.1v.8c5.6-4.1 11.8-17.3 13.7-22.8V136c0 .1-.2.1-.3.2z"/><path id="Shape_171_" class="st8" d="M50.7 138.6v.5c.5 2.3.8 4.7 1 7.1l-.3-5.3c1.6-1.3 3-3 4.1-4.8.9-1.6 2-3.1 3.1-4.6l-.7-.2c-1.1 1.4-2.1 2.9-3 4.5-.9 1.5-2 2.9-3.3 4.1-.1-.5-.2-1.1-.4-1.6-.2 0-.3.2-.5.3z"/><path id="Shape_172_" class="st8" d="M66.6 125.4c1.6 2.1-1.1 8.9-3.5 10.6v1.4c.1-.3.2-.5.3-.7 1.8-1.1 3.6-4.6 4.2-7.4.3-1.4.5-3.2-.4-4.3-.2-.2-.3-.3-.6-.5l-.2.7c0 .1.1.1.2.2z"/><path id="Shape_173_" class="st8" d="M39.3 143.8l-.6.2c.1.8.2 1.6.3 2.5.3.2.5.3.7.5-.2-1.1-.3-2.1-.4-3.2z"/><path id="Shape_174_" class="st8" d="M40.2 149.8l-.8-.8c.2 1 .4 1.9.6 2.9l.7.1c-.1-.7-.3-1.4-.5-2.2z"/><path id="Shape_175_" class="st8" d="M39 146.5c.1.4.1.8.2 1.2.3.2.5.4.8.6-.1-.5-.2-.9-.2-1.3-.4-.2-.6-.4-.8-.5z"/><path id="Shape_176_" class="st8" d="M40.2 149.8c-.1-.5-.2-1-.3-1.6-.3-.2-.5-.4-.8-.6.1.5.2 1 .3 1.4.3.3.6.5.8.8z"/><path id="Shape_177_" class="st8" d="M46.5 161.4c.6-.1 1.2-.2 1.7-.5 0-.2 0-.5-.1-.7-.4.3-.9.5-1.4.5 0 .2-.1.5-.2.7z"/><path id="Shape_178_" class="st8" d="M43.9 160.3l-.2-1.2c-1-1.3-1.9-3.4-2.6-5.9l-.7-.1c.9 3.2 2.1 5.8 3.5 7.2z"/><path id="Shape_179_" class="st8" d="M45.5 160.6c-.3-.1-.6-.3-.8-.5l.1.9c.2.1.3.2.5.2.1-.2.2-.4.2-.6z"/><path id="Shape_180_" class="st8" d="M44.7 160.2c-.4-.3-.7-.7-1-1.1l.2 1.2c.3.3.6.5 1 .7l-.2-.8z"/><path id="Shape_181_" class="st8" d="M46.1 160.7l-.2.6h.6c.1-.2.2-.5.2-.7-.1.1-.4.1-.6.1z"/><path id="Shape_182_" class="st8" d="M48.8 160.5c.2-.1.4-.2.6-.4v-.8c-.2.2-.4.3-.6.4v.8z"/><path id="Shape_183_" class="st8" d="M40.8 152l-.7-.1c0 .2.1.4.2.6l.7.1c-.1-.2-.1-.4-.2-.6z"/><path id="Shape_184_" class="st8" d="M48.2 160.9l.6-.3v-.8c-.2.2-.4.3-.6.4v.7z"/><path id="Shape_185_" class="st8" d="M41.1 153.2c-.1-.2-.1-.4-.2-.6l-.7-.1c.1.2.1.4.2.6l.7.1z"/><path id="Shape_186_" class="st8" d="M62.4 135.6c-.2.1-.3.2-.3.4-1.6 5.2-7.9 18-12.8 22.5v.9c5.5-4.4 11.9-18.4 13.4-23.1.1-.1.2-.1.3-.2v-.9c-.1.1-.4.3-.6.4z"/><path id="Shape_187_" class="st8" d="M51 146.9c0 .4.3.7.7.7s.7-.3.7-.7c-.1-1.8-.3-3.7-.6-5.5 1.7-1.4 3.2-3.1 4.2-5 1-1.6 2-3.2 3.2-4.6l-.7-.2c-1.1 1.4-2.2 3-3.1 4.6-1 1.8-2.4 3.5-4.1 4.8l.3 5.3v.8-.8c-.2-2.4-.5-4.8-1-7.1l-.2 2.4c.3 1.7.5 3.5.6 5.3z"/><path id="Shape_188_" class="st8" d="M66.1 129c-.5 2.4-1.9 4.9-3.1 6.1v.9c2.4-1.7 5.1-8.6 3.5-10.6-.1-.1-.2-.2-.3-.2l-.3.7c.5.5.6 1.7.2 3.1z"/><path id="Shape_189_" class="st8" d="M39.3 143.8c.1 1 .3 2.1.4 3.1.1.1.2.1.3.2.2.2.4.3.6.5-.2-1.3-.4-2.7-.6-4l-.7.2z"/><path id="Shape_190_" class="st8" d="M41.3 151.1c-.3-.5-.7-.9-1.1-1.3.2.8.3 1.5.5 2.2l.8.1c0-.3-.1-.7-.2-1z"/><path id="Shape_191_" class="st8" d="M40.5 147.6c-.2-.2-.4-.4-.6-.5-.1-.1-.2-.1-.3-.2.1.5.2.9.2 1.3l.9.9c0-.5 0-1-.2-1.5z"/><path id="Shape_192_" class="st8" d="M40.9 149.1l-.9-.9c.1.5.2 1.1.3 1.6.4.4.7.8 1.1 1.3-.2-.6-.4-1.3-.5-2z"/><path id="Shape_193_" class="st8" d="M50.1 139.1v.3c.2.7.3 1.4.4 2.1l.2-2.4-.1-.3c-.2 0-.4.2-.5.3z"/><path id="Shape_194_" class="st8" d="M46.7 160.7c.5-.1 1-.3 1.4-.5v-.8c-.3.2-.7.4-1.1.5-.1.3-.2.5-.3.8z"/><path id="Shape_195_" class="st8" d="M43.5 157.4c-.6-1.3-1.2-2.7-1.6-4.1l-.8-.1c.7 2.4 1.6 4.5 2.6 5.9l-.2-1.7z"/><path id="Shape_196_" class="st8" d="M44.6 159.1l.2 1.1c.2.2.5.3.8.5l.1-.3-.1-.5c-.4-.2-.8-.5-1-.8z"/><path id="Shape_197_" class="st8" d="M44.7 160.2l-.2-1.1c-.4-.5-.8-1.1-1.1-1.7l.2 1.7c.4.4.8.7 1.1 1.1z"/><path id="Shape_198_" class="st8" d="M46.7 160.7c.1-.3.2-.5.3-.8-.2.1-.4.1-.6.1l-.2.7h.5z"/><path id="Shape_199_" class="st8" d="M45.8 160l-.2.4v.3c.2 0 .3.1.5.1l.2-.7c-.1-.1-.3-.1-.5-.1z"/><path id="Shape_200_" class="st8" d="M48.7 159v.8c.2-.2.4-.3.6-.4v-.9c-.2.2-.4.3-.6.5z"/><path id="Shape_201_" class="st8" d="M41.5 152.1l-.8-.1c0 .2.1.4.2.6l.8.1c0-.2-.1-.4-.2-.6z"/><path id="Shape_202_" class="st8" d="M48.2 160.2c.2-.1.4-.2.6-.4v-.8c-.2.2-.4.3-.6.4-.1.3 0 .5 0 .8z"/><path id="Shape_203_" class="st8" d="M41.7 152.7l-.8-.1c.1.2.1.4.2.6l.8.1c-.1-.2-.1-.4-.2-.6z"/><path id="Shape_204_" class="st9" d="M63.1 125.6v-5.8l-2.8-1-3.3 9.3 2.7 1c1-1.3 2.1-2.4 3.4-3.5z"/><path id="Shape_205_" class="st9" d="M63.1 119.8v5.8c.6-.6 1.4-1 2.3-1.2l1.7-4.8-.5 1.5-3.5-1.3z"/><path id="Shape_206_" class="st9" d="M61.5 129c.2 0 .3.1.4.2.2.2.4.5.5.8l.6.2v-2.8c-.4.5-.9 1.1-1.5 1.6z"/><path id="Shape_207_" class="st9" d="M63.3 130.4l1.5-4.2c-.6.4-1.2.8-1.7 1.3v2.8l.2.1z"/><path id="Shape_208_" class="st9" d="M63.1 126.6v-.9c-1.3 1-2.4 2.2-3.5 3.4l.7.3c.9-1.1 1.8-2 2.8-2.8z"/><path id="Shape_209_" class="st9" d="M63.1 126.6c.6-.5 1.3-1 2-1.3l.3-.8c-.8.2-1.6.6-2.3 1.2v.9z"/><path id="Shape_210_" class="st9" d="M61.2 129h.4c.5-.6 1-1.1 1.5-1.5v-.9c-1 .9-1.9 1.8-2.7 2.8l.2.1c.1-.3.3-.5.6-.5z"/><path id="Shape_211_" class="st9" d="M63.1 127.5c.5-.5 1.1-.9 1.7-1.3l.3-1c-.7.3-1.4.8-2 1.3v1z"/><path id="Shape_212_" d="M66.1 125.9L64 132c-.2.6-.9 1-1.5.8-.1.6-.3 1.3-.5 1.9-.1.3-.3.5-.7.5h-.2c-.4-.1-.6-.5-.5-.9.1-.2.1-.4.2-.6.1-.4.2-.9.3-1.3.1-.5.1-.9.1-1.4-.2.3-.4.8-.6 1.2l-.1.2c-.2.3-.6.5-.9.4-.3-.2-.5-.6-.4-.9v-.1c-1.2 1.5-2.2 3-3.2 4.6-1.1 1.9-2.5 3.6-4.2 5 .3 1.8.5 3.7.6 5.5 0 .4-.3.7-.7.7-.4 0-.7-.3-.7-.7-.1-1.8-.3-3.6-.6-5.4-.1-.6-.2-1.4-.4-2.1v-.2c-.2.2-.4.3-.6.4-2.9 2.1-6.8 3.4-9.5 4.1.2 1.3.3 2.7.6 4l.3 1.5c.2.7.3 1.3.5 2 .1.3.2.6.2 1 .1.2.1.4.2.6.1.2.1.4.2.6.4 1.4 1 2.8 1.6 4.1.3.6.6 1.2 1.1 1.7.3.3.6.6 1 .8.1 0 .1.1.2.1.2 0 .4.1.6.1.2 0 .4 0 .6-.1.4-.1.8-.3 1.1-.5.2-.1.4-.3.6-.4.2-.2.4-.3.6-.5 4.9-4.5 11.2-17.3 12.8-22.5 0-.2.2-.3.3-.4.2-.1.5-.3.6-.5 1.2-1.1 2.5-3.7 3.1-6.1.4-1.6.3-2.8 0-3.3z" fill="#CCCED0"/><path id="Shape_213_" class="st8" d="M59.9 132l-.6-.2v.1c-.2.3 0 .8.4.9.2.1.4.1.6 0l-.3-.6-.1-.2z"/><path id="Shape_214_" class="st8" d="M61.7 132.6c-.1.6-.3 1.3-.5 1.9l-.5-.8c0 .2-.1.4-.2.6-.1.4.1.8.5.9h.2c.3 0 .6-.2.7-.5.2-.6.3-1.3.5-1.9h-.2l-.5-.2z"/><path id="Shape_215_" class="st8" d="M61.7 132.6l.5.2h.2c.2-.9.2-1.8 0-2.7l-.9-.3c.5.4.4 1.7.2 2.8z"/><path id="Shape_216_" class="st8" d="M59.9 132c.2-.5 1.1-2.4 1.5-2.2l-.3-.1c-.6.6-1.2 1.4-1.7 2.1l.5.2z"/><path id="Shape_217_" class="st8" d="M60.6 129.4c-.5.7-1 1.4-1.3 2.3.6-.7 1.2-1.4 1.7-2.1l-.4-.2z"/><path id="Shape_218_" class="st8" d="M61.4 129.7s.1 0 0 0c.1 0 .1 0 0 0l1 .4c-.1-.3-.2-.6-.5-.8-.1-.1-.3-.2-.4-.2-.2.2-.3.4-.5.6h.4z"/><path id="Shape_219_" class="st8" d="M61.5 129h-.4c-.3.1-.5.2-.6.4l.5.2c.2-.2.4-.4.5-.6z"/><path id="Shape_220_" class="st8" d="M60.5 132.3l.1-.2-.6-.2v.1l.3.6s.1-.1.2-.3z"/><path id="Shape_221_" class="st8" d="M61.7 132.6l-.7-.2c-.1.4-.2.8-.3 1.3l.5.8c.2-.6.4-1.3.5-1.9z"/><path id="Shape_222_" class="st8" d="M61.2 131c0 .5 0 1-.1 1.4l.7.2c.2-1.1.3-2.4-.2-2.9h-.1c-.4-.1-1.3 1.8-1.5 2.2l.6.2c.1-.4.4-.8.6-1.1z"/><path id="Shape_223_" class="st5" d="M50.5 130.7c.2.6.3 1.1.4 1.8.1.2.2.4.2.6.1 0 .2.1.3.1h.2c.2 0 .4.2.5.5.1.5.1 1 0 1.6 0 0 0 .1-.1.1.2.5.2.7.2.7-.3.5-.7 1-1.1 1.5.1.2.1.5.2.7.6-.6 1.1-1.2 1.5-1.9.1-.1.1-.3.1-.5-.6-2.2-1.4-4.3-2.6-6.2.1.3.3.6.4 1-.1-.1-.1 0-.2 0z"/><path id="Shape_224_" class="st5" d="M36.6 143.8C33.7 125.6 42 125 42 125h.3l-.6-.5c-1.4.3-2.7 1.1-3.6 2.4-2.6 3.3-3.3 9-2.1 17 0 .3.3.5.6.5h.1c.1 0 .8-.2 1.9-.4 0-.2 0-.4-.1-.6-1.1.2-1.9.4-1.9.4z"/><path id="Shape_225_" class="st5" d="M50.3 131.1c.2.5.5.9.6 1.4-.1-.6-.2-1.2-.4-1.8 0 .2-.1.3-.2.4z"/><path id="Shape_226_" class="st5" d="M44.3 125v.2c1 .3 2 .8 2.8 1.5l-.7-1.3c-.7-.5-1.5-.8-2.3-.9.4 1 0 .2.2.5z"/><path id="Shape_227_" class="st5" d="M52 135.2c.1-.5.1-1 0-1.6 0-.2-.2-.4-.5-.5h-.2c-.1 0-.2 0-.3-.1.4.9.6 1.7.8 2.2h.2z"/><path id="Shape_228_" class="st5" d="M42.8 125c0 .1-.2-.3 0 0h.8v-.1l-.6-.5h-.8-.3l.6.5c0 .1.1.1.3.1z"/><path id="Shape_229_" class="st5" d="M50.1 130.8c.1.2.2.3.2.3.2-.1.2-.2.2-.4-.1-.4-.3-.8-.4-1.1-.6-1-1.2-1.8-1.9-2.6.6.9 1.1 1.9 1.4 2.9l.5.9z"/><path id="Shape_230_" class="st5" d="M47.8 126.6l1.8 3.3c-.4-1-.9-2-1.4-2.9l-.4-.4z"/><path id="Shape_231_" class="st5" d="M42.9 124.4l.6.5v.1c.3 0 .5.1.8.2v-.2c-.1-.3.2.5-.2-.5-.4 0-.8-.1-1.2-.1z"/><path id="Shape_232_" class="st5" d="M47.1 126.7c.3.2.5.5.7.7-.4-.6-.8-1.3-1.2-1.8-.1 0-.2-.1-.3-.2l.8 1.3z"/><path id="Shape_233_" class="st5" d="M50.1 130.9l-.5-1v.1c.2.2.4.6.5.9z"/><path id="Shape_234_" class="st5" d="M49.6 129.9l-1.9-3.4c-.4-.3-.8-.7-1.2-1l1.2 1.8c.8.9 1.4 1.7 1.9 2.6z"/><path id="Shape_235_" class="st5" d="M39.9 143.1c0 .2 0 .4.1.6 2.7-.7 6.5-1.9 9.5-4.1l.1-.8c-2.9 2.2-6.9 3.5-9.7 4.3z"/><path id="Shape_236_" class="st5" d="M49.5 139.6c.2-.2.4-.3.6-.4 0-.2-.1-.4-.2-.6l-.3.3-.1.7z"/><path id="Shape_237_" class="st5" d="M39.2 143.2l-.6.2c0 .2 0 .4.1.6l.6-.2c0-.2 0-.4-.1-.6z"/><path id="Shape_238_" class="st5" d="M39.9 143.1l-.7.2c0 .2 0 .4.1.6l.7-.2c-.1-.3-.1-.4-.1-.6z"/><path id="Shape_239_" class="st5" d="M51.7 135.4c-.1 0-.1 0-.2-.1-.2-.2-.3-.4-.4-.6.2.5.3 1 .4 1.2l-.6.9v.2c0 .2.1.3.2.5.5-.5.8-1 1.1-1.5 0 0-.1-.3-.2-.7-.1 0-.2.1-.3.1z"/><path id="Shape_240_" class="st5" d="M37.1 143.1c-1.3-9.1.3-13.5 1.9-15.5 1.4-1.9 3.1-2 3.2-2h.6v-.2l-.2-.1-.3-.2H42s-8.3.5-5.4 18.8c0 0 .8-.1 1.9-.4v-.6c-.5 0-1 .1-1.4.2z"/><path id="Shape_241_" class="st5" d="M50.2 131.1l.7 1.9h.1c0-.2 0-.3-.1-.5-.2-.5-.4-1-.7-1.4.1 0 .1 0 0 0z"/><path id="Shape_242_" class="st5" d="M44.3 125.5c0 .1.1.3.2.4 1.6.5 2.9 1.8 4 3.3-.3-.5-.6-1-.8-1.4l-.5-1c-.8-.7-1.7-1.3-2.8-1.5-.1 0-.1.1-.1.2z"/><path id="Shape_243_" class="st5" d="M50 131.2c.1.5.2 1 .3 1.4l.1.2c.2.1.3.1.5.2l-.7-1.9c0 .1-.1.1-.2.1z"/><path id="Shape_244_" class="st5" d="M49.7 131c-.2-.3-.4-.6-.6-.8v.1c.5.8.8 1.6 1.2 2.4-.1-.5-.2-1-.3-1.4l-.3-.3z"/><path id="Shape_245_" class="st5" d="M51 133.2l.2.6h.2l.4 1.4-.6-1.5H51v.5l.3.2c-.1 0-.2 0-.3-.1v.1l.1.3c.1.2.3.4.4.6 0 0 .1.1.2.1s.2 0 .2-.1c-.2-.5-.4-1.3-.8-2.2l-.1.1c0-.1 0-.1 0 0z"/><path id="Shape_246_" class="st5" d="M43 125.5l-.2-.1-.1-.1v.2c.3 0 .5 0 .8.1 0-.2-.1-.4-.1-.6h-.7l.3.5z"/><path id="Shape_247_" class="st5" d="M51.4 133.8h-.2l.6 1.5-.4-1.5z"/><path id="Shape_248_" class="st5" d="M48.4 129.1l.6.9.1.2c-.4-1-.8-1.9-1.3-2.7l-.7-.7.5 1c.3.4.5.8.8 1.3z"/><path id="Shape_249_" class="st5" d="M44.4 125.9c0-.1-.1-.3-.2-.4v-.3c-.3-.1-.5-.1-.8-.2 0 .2 0 .4.1.6.4.1.7.2.9.3z"/><path id="Shape_250_" class="st5" d="M50 131.2h.2l-.1-.3c-.2-.3-.3-.6-.5-.9.2.4.3.7.4 1.2z"/><path id="Shape_251_" class="st5" d="M50.8 133.7h.3v-.6l-.1-.2c-.2 0-.3-.1-.5-.2.1.4.2.7.3 1z"/><path id="Shape_252_" class="st5" d="M49.7 131c.1.1.2.2.3.2-.1-.4-.2-.8-.4-1.2-.5-.9-1.1-1.8-1.9-2.5.5.9 1 1.8 1.3 2.7.3.2.5.5.7.8z"/><path id="Shape_253_" class="st5" d="M39.9 143.1c2.8-.7 6.7-2.1 9.6-4.2l.1-.8c-2.7 2.3-6.8 3.7-9.7 4.5v.5z"/><path id="Shape_254_" class="st5" d="M38.5 142.8v.6l.6-.2c0-.2 0-.4-.1-.6l-.5.2z"/><path id="Shape_255_" class="st5" d="M50.8 136.8l-.6.6c.1.2.1.4.2.6l.4-.4.1-.7-.1-.1z"/><path id="Shape_256_" class="st5" d="M39.9 142.5l-.7.2c0 .2 0 .4.1.6l.7-.2c-.1-.2-.1-.4-.1-.6z"/><path id="Shape_257_" class="st5" d="M49.7 137.9c0 .2.1.4.2.6l.3-.3.1-.8c-.2.2-.4.4-.6.5z"/><path id="Shape_258_" class="st11" d="M57 97.6h-1.4c-.1 0-.2-.1-.2-.2v-.1c.3-.5 1-.8 1.6-.8.5 0 1 .1 1.4.3l.2-.2c.6-.7 1.2-1.5 1.5-2.4.1-.3.2-.6.3-.8.1-.3.2-.6.2-.9v-.1c-.3-3.6-5.4-4.6-5.6-4.7-8.9-4.7-21 3.6-20.8 8.6-3.1 1.3-4.5 4.8-4.5 8.2-1.7.9-3 2.3-3.7 4-.4 1.1-.4 2.4 0 3.5-1.7.6-3 1.9-3.6 3.6-.5 1.4-.6 3-.4 4.5-1.7 1.3-2.5 3.4-2.3 5.5l.8 2.1c.3.5.8 1 1.3 1.3.2.1.3.2.5.3.1 0 .2.1.3.2.1 0 .2 0 .2.1.2.1.5.1.7.2h.8c.3 0 .7-.1 1.1-.2.2 0 .3-.1.5-.2s.3-.2.5-.2c.2-.1.3-.2.4-.2s.3-.2.4-.3c.2-.2.5-.4.6-.6v-1.2-.2-.7V125.7v-.2-.1h.5c.1-.1.2-.2.3-.4l.2.2.2.2.3.3c1.3 1 2.5-.2 2.5-.2.8-2 3.1-2.7 4.7-3 .6-.1 1.3-.2 1.9-.2.2 0 .4-.1.5-.2.2-.2.4-.3.6-.6.2-.2.3-.5.4-.7 0 0 0-.1.1-.2.1-.3.2-.5.2-.5 0-.1.1-.2.2-.2.2-.2.5-.3.7-.3.3-.1.6-.2 1-.2h1.1c.3 0 .5-.1.8-.2s.5-.2.7-.3c2.1-1.3 1.5-4.6 1.5-4.6v-1.4c0-.6.1-1.3.2-2 .5-2.5 1.8-3.6 1.8-3.6 2.4-3.8 1.4-6.3 1-7.2 2.5-1.5 6-1.9 6-1.9.8-.1 1.6-.3 2.3-.8H57v.2z"/><path id="Shape_259_" class="st11" d="M67.5 117.9l-4.4-1.6-1.6-.6c-.7-.2-1.4.1-1.7.8l-4.3 12.4c-.2.7.1 1.4.8 1.7l1.6.6.7.2.7.2c.3-.8.7-1.6 1.3-2.3l-.2-.1-.7-.3-2.7-1 3.3-9.3.5-1.5 2.2.9 4 1.4-1.7 4.8-.3.8-.3 1-1.5 4.2-.2-.1-.6-.2c.2.9.2 1.8 0 2.7.6.1 1.3-.2 1.5-.8l2.1-6.1.3-.7.2-.7 1.7-4.9c.3-.5-.1-1.3-.7-1.5z"/><path id="Shape_260_" class="st11" d="M191 193.5c-4.2.9-15.8 2.7-18.7.5-.3-.2-.5-.5-.5-.9 0-.8-.2-1.9-.3-3.3-.8-8.5-2.5-28.3 1.1-50.8.1-.5-.2-.9-.7-1-.3 0-.6.1-.8.3-.1.1-.2.2-.2.4-3.6 22.7-1.9 42.7-1.1 51.3.1 1.4.2 2.5.3 3.2 0 .8.5 1.6 1.2 2.1.6.4 1.2.7 1.8.8v-.3c0-.5.4-.8.8-.8s.7.3.8.7V196.6c1.1.2 2.2.2 3.3.2 4.5 0 9.7-.9 12.1-1.3.5-.1 1-.2 1.1-.2.4-.1.7-.5.6-1v-.1c.1-.5-.4-.8-.8-.7z"/><path id="Shape_261_" class="st11" d="M218.6 166.7c0-.5-.3-.8-.8-.8h-.1c-.5 0-.8.4-.8.9l1.4 25.6c-7.7 1.1-19.9 2.2-22.3.6-1.3-1.5-1.6-18.5-1.1-34.1 0-.5-.3-.8-.8-.9-.4 0-.8.3-.9.7v.1c-.3 9.5-.8 30.8 1.3 34.9.1.2.3.4.5.6.6.5 1.8.7 3.2.9v-.3c0-.5.3-.9.8-.9.4 0 .8.3.9.7l.1.6h2c4.8 0 10.6-.6 14.2-1.1 1.5-.2 2.7-.4 3.1-.4.4-.1.7-.5.7-.9l-1.4-26.2z"/><path id="Shape_262_" class="st11" d="M216.6 153.8c.5 0 .9-.5.8-.9l-1.8-22.1v-.2.2c0 .4-.3.8-.8.8H214l1.7 21.4c.1.5.4.8.9.8z"/><path id="Shape_263_" class="st11" d="M208.8 158.4h.6c0 1.3.6 2.5 1.5 3.4 1.2 1.1 2.7 1.7 4.3 1.7h.7l1.6-.4h.2c.5-.1.7-.6.6-1-.1-.4-.5-.6-.9-.6h-.1l-1.6.5c-1.3.2-2.6-.3-3.6-1.2-.6-.6-1-1.4-1-2.4l5.9-.6 1.1-.1c.5-.1.8-.5.7-1-.1-.4-.5-.7-.9-.7l-1.1.1-8.2.9c-.5.1-.8.5-.7 1 .1.1.4.4.9.4z"/><path id="Shape_264_" class="st12" d="M20.9 136.3c-.5.8-.9 1.6-1.2 2.5-.3.7-.2 1.5.2 2.2.5.9 1.5 1.8 2.7 2.5.2-1.7.4-3.3.6-4.8-.1-.6-1.1-1.6-2.3-2.4z"/><path id="Shape_265_" class="st12" d="M53.5 115.7c-1.1.3-2.2.5-3.3.5-.5 0-1 0-1.4-.1h-.1v.2c2 .3 3.6.1 4.8-.6z"/><path id="Shape_266_" class="st12" d="M58.6 99.7h-.2l-2 .2c-.3 0-.6.2-.8.5-.2.2-.2.5-.2.8l.2.6c.3 1 1.3 1.6 2.2 1.4l.5-.1c.4-.1.8-.3 1.1-.6.5-.4.7-1 .6-1.6-.1-.6-.6-1.1-1.4-1.2.2 0 .1 0 0 0zm-.8 3.3c-.5 0-.8-.4-.8-.8v-1.4c0-.5.3-.8.8-.8s.8.3.8.8v1.4c0 .4-.4.8-.8.8z"/><path id="Shape_267_" class="st12" d="M61.5 106.6c.2-.1.5-.2.7-.3.3-.1.6-.3.8-.4.3-.1.5-.4.6-.7.1-.5-.2-1-.6-1.6-.1-.2-.3-.4-.4-.6-.6-.8-1.2-1.8-1.6-2.7h-.2c.1.2.2.4.2.6.1 1-.3 2.1-1.2 2.7-.4.3-.9.5-1.4.6l-.5.1h-.5c-1.4 0-2.6-.9-2.9-2.2l-.2-.6c-.1-.6 0-1.1.3-1.6s.9-.8 1.5-.9l2-.2h.6c.6 0 1.1.3 1.5.7 0 0 .1-.1.2-.1l.3-.2c-.1-.5-.2-1.1-.2-1.6 0-1.1-.2-2.1-.5-3.1-.3.9-.9 1.7-1.5 2.4l-.2.2.3.3c.1.1.1.2 0 .3v.1c-.1.1-.2.1-.3.1h-1.1c-.7.4-1.5.7-2.3.8 0 0-3.4.4-6 1.9.4.8 1.3 3.3-1 7.2 0 0-1.3 1-1.8 3.6-.1.6-.2 1.3-.2 2v1.4s.6 3.3-1.5 4.6l1.7 3.2c.2-2.2 1-4.3 2.4-6.1l.1-.2.1-.1c0-.3 0-.5-.1-.8h.4c2.6.3 5.3-.5 7.4-2.1.8-.6 1.6-1.4 2.2-2.3-.3 0-.6-.1-.8-.2l-1.2-.6c-.3-.2-.3-.6-.2-.9.2-.3.6-.3.9-.2.3.2.7.4 1.1.5.3.1.6.2 1 .2.2-.3.3-.6.5-1l.3-.6c.3-.9.7-1.4 1.3-1.6z"/><path id="Shape_268_" class="st12" d="M60.2 214.6c2 9.7 5 15 6.7 20.2.3.1 3.5 1.6 5.4 1 .9-.3 2-1 1.9-1.5 0-.2.1-.4.3-.5l-2-20.9c-4.1.9-8.2 1.5-12.3 1.7z"/><path id="Shape_269_" class="st12" d="M45.4 214.2c-1.8 5.4-.2 13.7-.1 19.5v-.1s2.6 1.9 4.7 1.5c1-.2 2.4-.7 2.4-1.3v-.2c.8-4.9 2.5-12.2 4.1-18.9h-2.2c-3 .1-6-.1-8.9-.5z"/><path id="Shape_270_" class="st12" d="M174 213.5c0 4.6-.2 9.2-.4 12.3.7-2.9.7-7.4.4-12.3z"/><path id="Shape_271_" class="st12" d="M174.8 196.5c0 2.6.2 5.4.4 8.5 0 .5.1 1 .1 1.4.5 8 1.1 16.3-.3 20.6-.1.3-.4.6-.8.6h-.2c-.2-.1-.4-.2-.5-.4 0 .8-.2 1.6-.5 2.4-.8 1.5-7.6 2.9-10.2 4.2-2.4 1.2-.6 2.4-.6 2.4l22.9-.3c2.3-9.3 3.6-22 4.4-30.9.3-4.4.6-7.9.7-9.6-2.4.5-7.6 1.3-12.1 1.3-1.1 0-2.2-.1-3.3-.2z"/><path id="Shape_272_" class="st12" d="M223.7 232.9c-2.5-1.3-9.4-2.7-10.2-4.2-.9-1.8.3-14.1 1.4-23.7.5-4.7 1.1-8.8 1.3-10.6-3.6.5-9.5 1.1-14.2 1.1h-2c.3 3.2.7 6.4 1.1 9.6 1.9 16 3.9 29.7 4 29.9v.2l19.2.3c0-.2 1.8-1.3-.6-2.6z"/><path id="Shape_273_" class="st12" d="M233.9 50.4c-2.5 3.7-5 8.1-5 8.1.8-1.1 1.4-2.2 2.1-3.4l.2.2c.6-.7 1.7-2.9 2.7-4.9z"/><path id="Shape_274_" class="st12" d="M242.3 51.6c-.2.2-.4.5-.6.6-.8.7-1.9 1.2-3 1.4-.3 0-.5-.1-.7-.3-.1-.1-.2-.3-.2-.4v-.3c.2-.8.3-1.6.4-2.4.2-1.5.2-3-.1-3.8-.6.8-1.1 1.7-1.6 2.6-.4.8-.8 1.5-1.1 2.2-.7 1.5-1.4 2.9-2.1 4-.3.5-.6 1-1 1.4l4 4.2c.2-.1.3-.2.5-.2 1.1 0 5.8-1.7 8.9-6.7.1-.2.2-.3.3-.6-1.3-.3-2.6-.9-3.7-1.7z"/><path id="Shape_275_" class="st12" d="M186.5 66.8c-1.6-.9-2.5-2.5-2.5-4.3l.2-2.3-3-1c0 .8.2 1.6.3 2.3.8 4 1.8 7 6.2 7.8.4.1.6.3.7.7l.5 4.6c0 .3-.1.6-.4.8 3.2-.1 6.4 0 9.5.2v-7c-.5.2-1 .4-1.4.5-4.4 1.1-7.9-1-10.1-2.3z"/><path id="Shape_276_" class="st12" d="M184.7 54.9s-1.9.2-3.2-.5c-.2 1-.4 2-.4 3l3.2 1.1.4-3.6z"/><path id="Shape_277_" class="st12" d="M152.8 76.3c0-2.1-.4-4.1-1.2-6.1-.5.2-1.1.4-1.6.6 0 1.1-.3 2.2-1.4 2.5-.2 0-.3.1-.5.1-.5.1-.9 0-1.3-.3s-.8-.8-1-1.3c-.5-1.3-.7-3.1-.8-4.8 0-.7-.1-1.4-.2-2.2-.5.2-1.7 1.4-2.4 3.7-.4 1.2-.5 2.4-.4 3.7.2 2.2 1.3 4.1 3 5.4.5.4 1.1.8 1.6 1.1l.2.1c.4.2.6.7.4 1.1-.1.2-.3.3-.5.4l1 .9 5.8-4.1c-.4 0-.7-.4-.7-.8z"/><path id="Shape_278_" class="st11" d="M260.8 3.2c-13.9-4.3-28.7 3.5-33 17.4-1.6 5-1.6 10.3-.1 15.3.2.6.4 1.1.6 1.7.2.5.4 1.1.7 1.7 1.5 3.2 3.6 6.2 6.2 8.6 1.2-2.2 1.9-3.2 2.8-3.3.4 0 .8.1 1.1.5 1.1 1.3.9 4.3.6 6.2.1.1.2.1.3.2.4-.2.7-.5 1-.9s.8-.4 1.2-.2c.3.3.4.8.2 1.1 0 0 0 .1-.1.1 1.1.8 2.4 1.4 3.7 1.6 0-.1.1-.2.2-.2.2-.4.8-.5 1.1-.3s.5.7.3 1.1c-.1.2-.2.3-.3.4 12.2 2.7 24.6-3.5 29.7-14.9.3-.5.5-1.1.7-1.7s.4-1.1.6-1.7c4.1-13.8-3.7-28.4-17.5-32.7zm-18.6 32.1c2.3.2 4.6-.4 6.5-1.9-1.1 0-2.2-.5-3-1.3-.5-.5-.9-1.1-1.1-1.8.6.1 1.3.1 1.9-.1-2.2-.7-3.4-2.1-3.5-4.5.6.3 1.3.5 2 .5-1.2-.8-2-2.2-1.9-3.7 0-.8.2-1.5.6-2.2 2.3 2.8 5.6 4.5 9.2 4.6 0-.5-.1-.9 0-1.3.2-2.5 2.3-4.3 4.8-4.1 1 .1 1.8.4 2.5 1l.1.1c.2.3.5.3.8.2.6-.2 1.3-.4 1.9-.8l.4-.2c-.3 1-1 1.9-1.9 2.4.8-.1 1.6-.3 2.4-.6v.1c-.3.4-.7.8-1.1 1.2-.3.3-.6.6-1 .9-.1.1-.2.2-.2.3.1 3.2-1 6.2-3 8.6-1.9 2.4-4.7 4-7.8 4.3h-.6c-2.2.2-4.4-.1-6.4-1-.2-.1-.3-.2-.5-.3l-1.1-.4z"/><path id="Shape_279_" class="st11" d="M147.6 71.6c.3-.1.5-.1.8-.2.6-.2 1.1-.3 1.7-.6.6-.2 1.1-.4 1.6-.6s.9-.4 1.3-.6l.2-.1c10.9-5.7 15.8-18.7 11.4-30.2-.2-.6-.5-1.1-.7-1.7-.3-.6-.5-1.1-.9-1.7-6.6-11.7-21.5-15.8-33.2-9.2s-15.8 21.5-9.2 33.2c4.1 7.2 11.4 11.8 19.7 12.3-.1-1.9.3-3.8 1.1-5.4 1.2-2.6 3-4 4.3-3.4.9.3 1 1.5 1.1 3.7 0 1.2.2 3.6.8 4.5zm-3.4-22.4h-.3v12.4h-5V49.2h-4.1v-4.8h4.1v-.3-3.9c0-.9.2-1.7.6-2.5l.3-.6c.2-.3.3-.5.6-.7 0 0 0-.1.1-.1.9-1 2.1-1.5 3.3-1.7 1.3-.2 2.5-.2 3.8 0 .3 0 .6 0 1 .1.1 0 .2 0 .2.2V39.1h-3.2c-.3 0-.7.2-1 .3-.4.3-.6.8-.7 1.2v3.8h4.8c-.1.5-.1 1-.2 1.5-.1 1-.3 2-.4 3 0 .2-.1.3-.3.3-1.2-.1-2.4 0-3.6 0z"/><path id="Shape_280_" class="st13" d="M236.8 62.2c-.5 0-.8-.3-.9-.8 0-.3.1-.6.4-.7l-4-4.2-.1.1c-.3.3-.9.3-1.2-.1-.3-.3-.3-.9.1-1.2l-.2-.2c-.6 1.2-1.3 2.3-2.1 3.4C223.9 66 214 75 206.4 76.9c-.2-.1-.4-.2-.6-.2-1.1-.4-4.2-.8-7.8-1.1-3.2-.2-6.4-.3-9.5-.2h-1c-2.1.1-3.7.3-4.7.8-2.5 1.1-4.2 1.9-5.3 2.9-4.5 3.5-8.6 7.2-12.6 11.3l-9.3-14.6-1.1.8-.8.6-5.8 4.1-.6.4s7.2 26.3 18.3 25.8c.9 0 1.8-.2 2.7-.3 0-.3.2-.7.5-.8l7.2-3.2c.4-.2.9 0 1.1.4.2.4 0 .9-.4 1.1l-.6.3.9 25.5 37.1-.4-.9-37.4c13.8-7 26.1-29.1 26.1-29.1l-1.4-1.4c-.5-.1-.8 0-1.1 0z"/><path id="Shape_281_" class="st13" d="M185.9 51.2c1.7 4 5.2 8 9.6 9.1 2.1.5 4.2.3 6.2-.4.1 0 .2 0 .2-.1.5-.2.9-.4 1.3-.6h.1c9.7-5.9-3.9-22.9-15.8-17.7-1.5.6-2.3 1.9-2.6 3.5-.1.6-.2 1.1-.1 1.7 0 .6.1 1.3.3 1.9.1.8.4 1.7.8 2.6z"/><g id="Group" transform="translate(17.878 44.519)"><path id="Shape_282_" class="st14" d="M1.9 96.5c-.4-.7-.4-1.5-.2-2.2.3-.9.8-1.7 1.2-2.5-.2-.2-.4-.3-.6-.4-.2-.1-.4-.3-.6-.4-.5.9-1 1.8-1.4 2.8-.4 1.1-.3 2.4.2 3.4.6 1.1 1.6 2 2.9 2.8.3.2.6.4 1 .6v-.6-.2C2 98.4.3 96.6.8 94.5c-.5 2.2 1.3 4 3.6 5.3 0-.3 0-.5.1-.8-1.1-.8-2.1-1.6-2.6-2.5z"/><path id="Shape_283_" class="st14" d="M43.5 54.3h.2c.2-.1.3-.1.5 0-.1-.4-.2-.9-.2-1.3 0-1.7-.4-3.4-1.2-4.9 0 .3-.1.6-.2.9.5 1.3.8 2.6.8 4-.1.4 0 .8.1 1.3z"/><path id="Shape_284_" class="st14" d="M30.9 71.6s.1 0 0 0c.5.1 1 .2 1.5.2 1.1 0 2.2-.2 3.3-.5 3.4-1 6.2-3.6 7.8-7.5.2-.4.8-.7 1.4-1l.4-.2V62c.6-.3 1.1-.6 1.1-1.3.1-.9-.5-1.7-1.1-2.7v-1c-.4-.6-.7-1.2-.9-1.9-.1.1-.2.1-.2.2l-.3.2-.2.1-.4.1c.4 1 .9 1.9 1.6 2.7.2.2.3.4.4.6.4.6.6 1.1.6 1.6-.1.3-.3.6-.6.7-.3.2-.5.3-.8.4-.2.1-.5.2-.7.3-.6.2-1 .7-1.3 1.3l-.3.6c-.2.3-.3.7-.5 1-.2.4-.5.8-.8 1.2.2 0 .4.1.6.1-1 1.5-2.4 2.8-4 3.7 1.6-.9 2.9-2.1 3.9-3.7-.2 0-.4 0-.6-.1-.6.9-1.3 1.7-2.2 2.3-2.1 1.6-4.7 2.4-7.3 2.1h-.4c0 .3.1.5.1.8l-.1.1v.2c-.1.1 0 .1.1.2l-.1-.2zm12-8.2c.3-.2.5-.4.6-.6-.1.2-.3.5-.6.6zm0 .1zm-.8 1.6c-.2.4-.4.7-.6 1 .2-.3.4-.6.6-1z"/><path id="Shape_285_" class="st14" d="M46.3 60.7c-.1.6-.6 1-1.1 1.3v.6c.8-.4 1.6-.8 1.7-1.9.1-1.1-.5-2-1.2-3-.2-.3-.4-.5-.5-.8v1c.7 1 1.2 1.8 1.1 2.8z"/><path id="Shape_286_" class="st14" d="M42.9 54.5l.2-.1.4-.1c-.1-.5-.1-.9-.1-1.4 0-1.4-.3-2.7-.8-4-.1.3-.2.6-.3.8.3 1 .5 2.1.5 3.1 0 .7 0 1.2.1 1.7z"/><path id="Shape_287_" class="st14" d="M40.3 65.1c-.1.3-.2.5-.3.8.3.1.5.2.8.2.3-.4.5-.8.8-1.2-.3 0-.7-.1-1-.2-.1.1-.2.2-.3.4z"/><path id="Shape_288_" class="st14" d="M38.7 65.2c.4.3.8.5 1.2.6.1-.3.2-.5.3-.8.1-.2.2-.3.3-.4-.4-.1-.8-.3-1.1-.5-.3-.2-.7-.2-.9.2-.1.3 0 .7.2.9z"/><path id="Shape_289_" class="st14" d="M39.1 57.6c0 .5.3.8.8.8s.8-.3.8-.8v-1.4c0-.5-.3-.8-.8-.8s-.8.4-.8.8v1.4z"/><path id="Shape_290_" class="st14" d="M135.1 25.1l.6 7.5.8-.6v-.2c0-2.3-.4-4.6-1.4-6.8v.1z"/><path id="Shape_291_" class="st14" d="M130.2 27.3c.4-.2.9.1 1.1.5.2.4 0 .8-.4 1 1-.4 1.3-1.4 1.3-2.5-.6.2-1.1.4-1.7.6-.1.2-.1.3-.3.4z"/><path id="Shape_292_" class="st14" d="M133.8 25.7c.8 1.9 1.2 4 1.2 6 0 .4.3.8.8.8l-.6-7.5c-.5.3-1 .5-1.4.7z"/><path id="Shape_293_" class="st14" d="M129.9 27.3l-.2-.2c-.5-.9-.7-3.2-.8-4.5-.2-2.1-.2-3.3-1.1-3.7-1.4-.5-3.1.8-4.3 3.4-.8 1.7-1.1 3.6-1.1 5.4.2 3 1.8 6 5.8 8.1.1.1.3.1.4.1s.2 0 .3-.1l-2-1.9c-2.1-1.4-3.4-3.7-3.6-6.2.2 2.5 1.5 4.8 3.6 6.2l.3-.8c-1.7-1.3-2.9-3.3-3-5.4-.1-1.2 0-2.5.4-3.7.7-2.2 1.9-3.4 2.4-3.7.1.7.2 1.4.2 2.2.1 1.7.3 3.5.8 4.8.2.5.5 1 1 1.3l.3-.8.3-.8-.3.8c.3.3.8.4 1.2.2l-.2.9c.2 0 .3 0 .5-.1.4-.2.7-.6.5-1.1s-.6-.7-1.1-.5c-.2.2-.3.1-.3.1zm-1.1 0c-1.1-2.1-.6-7.3-1.4-7.6h-.2.2c.9.3.4 5.5 1.4 7.6.1 0 .1 0 0 0z"/><path id="Shape_294_" class="st14" d="M128.9 35.9c.2-.1.3-.2.5-.3.2-.4.1-.9-.3-1.1l-.2-.1c-.6-.3-1.1-.6-1.6-1.1l-.3.8 1.9 1.8z"/><path id="Shape_295_" class="st14" d="M130.2 29l.2-.9c-.4.2-.9.1-1.2-.2l-.3.8c.4.3.9.4 1.3.3z"/><path id="Shape_296_" class="st14" d="M197.6 86c-.1-.2-.2-.3-.4-.4-.1 0-.3 0-.4-.1-.4 0-.6.3-.7.7.1-.4.4-.6.8-.7h0-.9l-37.1.4v.7-.8h-1.7c-.5 0-.8.4-.8.8 0 .3.1.5.3.6.7-.4 1.4-.6 2.2-.7H161.3h-1.9c-1 0-1.8.3-2.7.8.2.1.3.2.5.2l38.9-.4-.1-.8v-.1l.1.8h.8c.4 0 .8-.4.8-.8 0 0 0-.1-.1-.2.1.1 0 0 0 0zm-1.5.3z"/><path id="Shape_297_" class="st14" d="M223.1 7.4c-.7.5-1.5.8-2.3.9-.1 0 .7.6 2.3-.9z"/><path id="Shape_298_" class="st14" d="M219.9 8.1v.3l.9-.4c.1-.3.2-1 .3-1.8-.3-.2-.5-.3-.8-.5-.1.8-.2 1.6-.4 2.4z"/><path id="Shape_299_" class="st14" d="M218.6 4.5c.4-.9 1-1.8 1.6-2.6.3.8.3 2.3.1 3.8.3.2.5.3.8.5-.1.8-.2 1.4-.3 1.8l-.9.4c0 .2.1.3.2.4.2.2.5.3.7.3 1.1-.2 2.2-.6 3-1.4l.6-.6-.6-.6.6.6s0-.1.1-.1c.3-.4.2-.9-.3-1.2-.4-.2-.8-.2-1.1.2-.3.3-.6.6-1 .9.2.1.3.2.4.2l1.3-.6-1.3.6c.2.1.3.2.4.2l.2-.2h.1l-.3.3c-1.6 1.5-2.4 1-2.4 1s0-.1.1-.3c0 .2-.1.3-.1.3.8-.1 1.6-.5 2.3-1-.2-.1-.3-.2-.5-.2-.2-.1-.3-.2-.4-.2-.1.1-.2.2-.4.2 0-.1 0-.3.1-.4-.2-.1-.5-.3-.6-.4.4-2.1.7-5-.6-5.3-.3-.1-.8.3-1.4.9.6-.6 1.1-1 1.5-.9-.3-.3-.8-.1-1.3.6.5-.6 1-1 1.3-.6 1.3.3 1 3.2.6 5.3.2.2.5.3.7.4.3-2 .5-5-.6-6.2-.3-.3-.7-.5-1.1-.5-.9.1-1.6 1.1-2.8 3.3l.3.3-.3-.3c-.3.7-.7 1.6-1.2 2.6.5-.8 1.1-1.6 1.6-2.2-.5.7-1.1 1.4-1.6 2.2-1 2-2.1 4.2-2.8 4.9-.3.3-.4.8-.1 1.2.2.2.4.3.6.3.2 0 .4-.1.6-.2l.1-.1c.4-.4.7-.9 1-1.3.6-1.1 1.4-2.5 2.1-4 .2-.8.7-1.6 1-2.3zm2.7-.2c0-1 0-2-.3-2.7.2.7.3 1.7.3 2.7zm-7.8 6.8l.3.3-.3-.3zm.3.4s0-.1 0 0c.1-.1 0-.1 0 0zm.1-.1l.6-.3-.6.3zm4.1-7.5l.9-1.5c-.4.5-.7 1-.9 1.5z"/><path id="Shape_300_" class="st14" d="M229.4 8.1c-.4-.2-.9-.1-1.1.3 0 .1-.1.2-.1.2l-.3.6c-3 5.1-7.7 6.8-8.9 6.8-.2 0-.3.1-.5.2-.2.2-.3.4-.4.6 0 .3.1.5.3.6l.8-.5-.8.5c.2.2.3.2.5.2.3 0 .6 0 .8-.1 2.2-.5 6.8-2.6 9.7-7.9.1-.2.2-.3.3-.4.3-.3.1-.8-.3-1.1zm-.2 1.5c-.8 1.3-1.9 2.4-3 3.5-2.9 1.5-5.2 2.8-7 3.9 1.8-1.1 4.1-2.4 7-3.8 1.2-1.1 2.2-2.3 3-3.6-.3-.1-.6-.2-1-.3.4.2.7.3 1 .3 0 0 .1 0 0 0 .1 0 .1 0 0 0zm.5-.7z"/><path id="Shape_301_" class="st14" d="M158 60.4l.6-.3c.2-.1.4-.3.5-.5-.2.1-.3.2-.5.2.2-.1.3-.2.5-.2.1-.2 0-.4 0-.6-.2-.4-.7-.6-1.1-.4v1.6c.2-.1.3-.2.5-.2-.2.1-.3.2-.5.2-2.4 1.2-5.1 2.1-7.8 2.5 0 .1 0 .2.1.3.2.3.4.5.8.5.1 0 .2 0 .3-.1l6.6-3z"/><path id="Shape_302_" class="st14" d="M157.9 58.6l-7.2 3.2c-.3.2-.5.5-.5.8 2.7-.5 5.3-1.3 7.8-2.5l-.1-1.5z"/><path id="Shape_303_" class="st14" d="M49.2 75l-4-1.4-2.3-.8-.5 1.5 2.8 1 3.5 1.2.5-1.4z"/><path id="Shape_304_" class="st14" d="M44 195.5c-.7-.6-2.1-1.5-3.8-2.8-1.4-1-3.1-2.2-4.9-3.8-.2-.2-.5-.1-.6 0 0 0 0 .1-.1.1v.2c0 .5-1.4 1.1-2.4 1.3-2.1.4-4.7-1.5-4.7-1.5v.1c-.4 1.6-.5 2.8-.1 3.7.3.8.9 1.4 1.6 1.7.6.3 1.3.6 2 .8 4.1 1.3 12.3 3.2 13.5 1.4.2-.4 0-.7-.5-1.2z"/><path id="Shape_305_" class="st14" d="M62.3 192.5c-.4-.2-.9-.5-1.4-.8l-.5-.3-.5-.3c-1-.5-1.9-1.1-3-1.8-.1-.1-.3-.1-.4 0-.2.1-.3.3-.3.5.1.5-1 1.3-1.9 1.5-1.9.6-5.1-.9-5.4-1-.1.8-.2 1.6 0 2.4.2 1.3 1 2.4 2.2 2.9.1 0 .2.1.3.1 2 .8 14.8 2.7 16 .3 0-.1.1-.2 0-.3 0-.8-2-1.6-5.1-3.2z"/><path id="Shape_306_" class="st14" d="M159.8 17c.3.2.7.3 1.1.3.3 0 .6-.1.9-.2v.2c.9 4.1 2.1 7.9 6.9 8.9l.5 4c0 .2.1.4.3.5 0 0 .1.1.2.1h.8c.3-.2.5-.5.4-.8l-.5-4.6c0-.4-.3-.7-.7-.7-4.4-.7-5.4-3.8-6.2-7.8-.2-.8-.3-1.5-.3-2.3l3 1-.2 2.3c0 1.8 1 3.4 2.5 4.3 2.3 1.3 5.7 3.4 10.1 2.4.5-.1 1-.3 1.4-.5 2.7-1.4 4.4-4.8 5-8.6.1-.3.1-.7.2-1-.4.3-.9.5-1.3.6-.1 0-.2 0-.2.1-1.9.8-4.1 1-6.2.4-4.4-1.1-7.9-5-9.6-9.1-.4-.9-.7-1.8-.9-2.7-.2-.6-.2-1.3-.3-1.9 0-.6 0-1.1.1-1.7-1.7 1.3-3.1 3.4-4.1 6.6-.1.2-.2.5-.2.7-.2.4-.3.9-.5 1.3h-.2c-.3-.1-.6-.1-.9 0-1.1.2-2.4 1.4-2.7 3.4 0 1.8.3 3.9 1.6 4.8zm3.8-7.1c1.3.7 3.2.5 3.2.5l-.3 3.4-3.2-.9c0-1 .1-2 .3-3zm-2.6.9c.2-.1.3-.2.5-.3l.2.2c-.1.5-.2 1-.2 1.6l-1.3-.4c.2-.4.5-.8.8-1.1zm.6 3.3v.2c0 .3.1 1 .1 1l-.1-.9c0 .3 0 .6.1.9-.3.2-.7.4-.9.3-.3-.2-.6-1-.7-1.9l1.5.4z"/><path id="Shape_307_" class="st14" d="M157.3 160.5c-.2-3-.4-5.9-.4-8.5-.3 0-.6-.1-.8-.2v-.5l.8-.1v-.1c-.1-.4-.4-.7-.8-.7-.3 0-.5.2-.6.4-.1.2-.2.3-.2.5v.3c0 2.7.2 5.7.4 8.8 0 .5.1 1 .1 1.5.2 2.3.3 4.7.4 6.9v-1.1 1.1c.2 4.9.3 9.4-.4 12.3 0 .5-.1 1-.1 1.4.1.2.3.3.5.4h.2c.4 0 .7-.2.8-.6 1.3-4.3.8-12.6.3-20.6-.1-.3-.2-.7-.2-1.2zm-1.2 1v-1 1z"/><path id="Shape_308_" class="st14" d="M156.1 151.3v.6c.3 0 .6.1.8.2v-.7-.1h-.8z"/><path id="Shape_309_" class="st14" d="M185.1 184.7c.4 2 .8 4 1.3 5.9h.8v-.2c0-.2-2.1-13.9-4-29.9-.4-3.1-.7-6.4-1.1-9.6-.3 0-.6 0-.9-.1.3 0 .6 0 .9.1l-.1-.6c0-.1 0-.2-.1-.2-.5 0-1-.1-1.5-.1-.1.2-.2.3-.1.5v.3c.3 3.3.7 6.5 1.1 9.7h.5c-.3-4.2-.6-7.5-.6-9.1.1 1.6.3 4.9.6 9.1h-.5c1.9 16.1 4 30 4 30.1.1.4.4.7.8.7h.1c.4-.1.7-.4.7-.8h-.8c-.3-1.8-.7-3.8-1.1-5.8z"/><path id="Shape_310_" class="st14" d="M181.2 149.5c-.3 0-.5.2-.6.4.5 0 1 .1 1.5.1-.2-.3-.5-.5-.9-.5z"/></g><g id="Group-2" transform="translate(81.783 113.01)"><path id="Shape_311_" class="st13" d="M69.2.9L.3.2l-.1 73 69-1V.9zM55 18.4c-.1.7-.3 1.4-.6 2-.5 1.2-1.2 2.3-2 3.3s-1.6 1.9-2.4 2.8c.6 3.1.3 6.3-1 9.1-3.4 7.1-11.4 10.3-18.7 6.1-.5-.3-.9-.5-1.3-.8-.2.1-.3.2-.5.2-2.3 1-4.7 1.8-7.4 1.8-.7 0-1.4-.2-2.1-.4-.8-.3-1.4-1.1-1.4-1.9 0-.7.3-1.4.8-2 .4-.5.9-1 1.4-1.3.1-.1.2 0 .3.1.1.1 0 .2 0 .3-.8.9-1.5 2-1.3 2.8.1.7 1.2.9 2.3.8 2-.2 4-1 6-1.9-4.4-4-6-9.4-4-15.5 2.7-8.4 11.4-10.7 18.7-7.6 3.4 1.4 6.2 4.2 7.6 7.7.5-.5 1-1.1 1.5-1.6.7-.9 1.4-1.8 1.9-2.8s.7-2.1.4-2.6c-.3-.6-1.4-.9-2.5-.8-1.2.1-2.3.3-3.4.7-.2.1-.5 0-.6-.3s0-.5.2-.6c1.1-.6 2.3-1.1 3.6-1.3.7-.2 1.4-.2 2.1 0 .8.1 1.6.6 2.1 1.2.2.8.4 1.6.3 2.5z"/><path id="Shape_312_" class="st15" d="M41.3 33.7c-3.9 2.8-8 5.2-12.4 7.2.4.3.8.6 1.3.8 7.2 4.3 15.3 1 18.7-6.1 1.3-2.9 1.7-6.1 1-9.1-2.6 2.7-5.6 5-8.6 7.2z"/><path id="Shape_313_" class="st15" d="M39.9 31.7c3.3-2.3 6.5-4.8 9.3-7.6-1.4-3.5-4.1-6.3-7.5-7.8-7.2-3.1-16-.8-18.7 7.6-2 6.1-.4 11.5 4 15.5l.6-.3c4.2-2.1 8.3-4.7 12.3-7.4z"/><path id="Shape_314_" class="st5" d="M52.4 14.8c-.7-.1-1.4-.1-2.1 0-1.3.2-2.5.7-3.6 1.3-.2.1-.3.4-.2.6s.3.3.6.2c1.1-.4 2.2-.6 3.4-.7 1.1-.1 2.2.2 2.5.8.3.6.1 1.6-.4 2.6s-1.2 1.9-1.9 2.8c-.5.6-1 1.1-1.5 1.6.3.8.6 1.6.8 2.5.9-.9 1.7-1.8 2.4-2.8.8-1 1.5-2.1 2-3.3.3-.6.5-1.3.6-2 .1-.8-.1-1.7-.5-2.4-.6-.7-1.3-1.1-2.1-1.2z"/><path id="Shape_315_" class="st5" d="M21 41.2c-1.1.1-2.2-.1-2.3-.8-.2-.8.5-2 1.3-2.8.1-.1.1-.2 0-.3s-.2-.1-.3-.1c-.5.3-1 .8-1.4 1.3-.5.6-.8 1.3-.8 2 .1.8.6 1.6 1.4 1.9.6.3 1.4.4 2.1.4 2.7 0 5.1-.8 7.4-1.8.2-.1.3-.2.5-.2-.7-.5-1.4-1-2-1.6-1.9 1-3.9 1.7-5.9 2z"/><path id="Shape_316_" class="st5" d="M39.9 31.7c-4 2.7-8 5.4-12.3 7.4l-.6.3c.6.6 1.3 1.1 2 1.6 4.4-1.9 8.5-4.3 12.4-7.2 3-2.2 6-4.5 8.6-7.2-.2-.9-.4-1.7-.8-2.5-2.8 2.8-6 5.2-9.3 7.6z"/></g><path id="Shape_317_" class="st9" d="M226.7 28.5c0-13.2 9.7-24.4 22.8-26.1v-.3h-5.2c0 .9-.8 1.7-1.7 1.7H234c-.9 0-1.7-.8-1.7-1.7h-5.2c0 .9-.8 1.7-1.7 1.7H217c-.9 0-1.7-.8-1.7-1.7h-5.2c0 .9-.8 1.7-1.7 1.7h-8.6c-.9 0-1.7-.8-1.7-1.7H193c0 .9-.8 1.7-1.7 1.7h-8.6c-.9 0-1.7-.8-1.7-1.7h-5c0 .9-.8 1.7-1.7 1.7h-8.6c-.9 0-1.7-.8-1.7-1.7h-5.2c0 .9-.8 1.7-1.7 1.7h-8.6c-.9 0-1.7-.7-1.7-1.6h-5.2c0 .9-.8 1.7-1.7 1.7h-8.6c-.9 0-1.7-.8-1.7-1.7h-5.2c0 .9-.8 1.7-1.7 1.7h-8.6c-.9 0-1.7-.8-1.7-1.7h-5.2c0 .9-.8 1.7-1.7 1.7h-8.6c-.9 0-1.7-.8-1.7-1.7H90c0 .9-.8 1.7-1.7 1.7h-8.6c-.9 0-1.7-.8-1.7-1.7h-1.8c-1.1 0-2.2.2-3.3.4.3.8-.2 1.8-1 2.1-2.4.9-4.4 2.5-5.7 4.6-.5.8-1.4 1-2.2.5-.8 1.6-1.3 3.2-1.4 5 .9 0 1.6.8 1.6 1.7V25c0 .9-.8 1.7-1.7 1.7v5.2c.9 0 1.7.8 1.7 1.7v2.5h2.5c.9 0 1.7.8 1.7 1.7h4.9c0-.9.8-1.7 1.7-1.7h8.3c.9 0 1.7.8 1.7 1.7h4.9c0-.9.8-1.7 1.7-1.7h8.3c.9 0 1.7.8 1.7 1.7h4.9c0-.9.8-1.7 1.7-1.7h8.3c.9 0 1.7.8 1.7 1.7h1.4c5.7-12.2 20.2-17.4 32.4-11.7 4.6 2.1 8.4 5.6 10.8 10h3.2c.9 0 1.7.8 1.7 1.7h4.9c0-.9.8-1.7 1.7-1.7h8.3c.9 0 1.7.8 1.7 1.7h4.9c0-.9.8-1.7 1.7-1.7h8.3c.9 0 1.7.8 1.7 1.7h4.9c0-.9.8-1.7 1.7-1.7h8.3c.9 0 1.7.8 1.7 1.7h4.9c0-.9.8-1.7 1.7-1.7h3.9c-1-2.6-1.3-5.1-1.3-7.6z"/><path id="Shape_318_" class="st9" d="M279.4 28.5c0 2.5-.4 5.1-1.1 7.5h3.3c.9 0 1.7.8 1.7 1.7h4.9c0-.9.8-1.7 1.7-1.7h2.5v-2.5c0-.9.8-1.7 1.7-1.7v-5.3c-.9 0-1.7-.8-1.7-1.7v-8.5c0-.9.7-1.6 1.6-1.7-.2-1.8-.6-3.4-1.4-5-.8.5-1.7.2-2.2-.5-1.4-2.1-3.4-3.7-5.8-4.6-.8-.3-1.3-1.2-1-2.1-1.1-.3-2.2-.4-3.3-.4h-1.9c0 .9-.8 1.7-1.7 1.7h-8.5c-.9 0-1.7-.8-1.7-1.7h-5.2c0 .5-.2.9-.5 1.2 11.1 3.5 18.6 13.7 18.6 25.3z"/><path id="Shape_319_" class="st9" d="M262.8 168.9c-1.1-2.7-1.6-5.6-1.4-8.4.2-2.9 1.3-5.7 3.1-8 .9-1.2 2-2.2 3.2-3 1.3-.8 2.7-1.3 4.1-1.5 2.7-.5 5.4-.3 8 .4v-44.9h-18.2c-19.1 0-34.5 15.4-34.5 34.5v46.4h50.6c-1.5-.7-2.9-1.5-4.3-2.5-4.5-3.4-8.3-7.7-10.6-13z"/><path id="Rectangle" class="st1" d="M280.3 126.7H294v65.8h-13.7z"/><path id="Shape_320_" class="st9" d="M4.4 174.2l1.6.2 3.3.6c.9.2 1.7.4 2.6.6.5-3.8 1.9-8 3.4-11.6-.6-.1-1.1-.6-1.1-1.3s.6-1.3 1.3-1.3c.3 0 .6.1.8.3 1.7-3.7 3.7-7.3 5.8-10.8 0-1.6 0-3 .1-4.5H11.5c-4.4.5-8.2 3.9-9.5 8.1-.3 1.1-.5 2.2-.5 3.3 0 .6 0 1.1.1 1.7l.2 1.8.8 7.1.6 5.7c.5 0 .8 0 1.2.1z"/><path id="Shape_321_" class="st9" d="M37.2 193.8h-2.8l.2 1c.6 2.5 1.2 5.1 1.8 7.6 1.3-3.9 2-6.9.8-8.6z"/><path id="Shape_322_" class="st9" d="M23.6 144.1v2.1c-.1 1.3-.1 2.7-.1 4.1l16.7 1.4c-.2-1-.5-1.9-.6-2.9-.1-.5-.2-.9-.3-1.4-.1-.4-.2-.8-.2-1.2-.1-.8-.2-1.7-.3-2.5-1.1.2-1.8.3-1.9.4h-.1c-.3 0-.5-.2-.6-.5-1.3-8.1-.6-13.8 2-17 .9-1.2 2.2-2 3.6-2.4l-2.9-2.3c-.2.1-.3.2-.5.2-.6 0-1.3 0-1.9.2-1.6.3-3.9 1-4.7 3 0 0-1.2 1.2-2.5.2-.3.5-.6 1.1-1 1.6l-3.9 11.6c-.4 1.9-.6 3.6-.8 5.4z"/><path id="Shape_323_" class="st9" d="M77.6 198.9c-.1-1-.2-1.9-.4-2.8-.1-.6-.2-1.3-.4-1.9-1.9-7.4-6.5-12.6-13.7-15.6-1.8-.7-3.7-1.3-5.5-1.7-.1 0-.2-.1-.4-.1-.7-.2-1.4-.4-2.1-.8-.6-.3-1.1-.6-1.6-1.1-.3-.2-.6-.5-.8-.8-3-3.3-4.1-8.8-4.5-13.4-.5.3-1.1.5-1.7.5H45.3c-.2-.1-.3-.2-.5-.2-.3-.2-.7-.5-1-.7-1.4-1.4-2.5-4-3.5-7.2l-17-1.5H23l-.3.4c-.2.2-.3.5-.5.9-2.3 3.9-8 14.2-9.2 23.1.9.3 1.8.5 2.7.8 4.3 1.4 8.3 3.6 11.9 6.3 1.1.9 2.1 1.8 3 2.9.6.7 1.1 1.4 1.6 2.2s.9 1.7 1.2 2.6c.7.1 1.4.3 2.1.5.6.2 1.1.5 1.6.8.3.2.6.5.8.8s.4.5.5.8c1.1 2.5-.1 6.1-1.1 9.2-.2.5-.3 1-.5 1.5.3 1 .5 1.9.8 2.9l.1.3v.2c0 .2 0 .4-.2.5-.1.2-.3.3-.4.3H35.9c0 .6.2 1.1.6 1.5l.3.3c.2.1.3.2.4.2.3.2.5.3.8.4 2 .9 4.6 1.5 7.6 1.9 3.7.4 7.3.6 11 .5 1.1 0 2.1-.1 3.2-.2 4.2-.2 8.3-.8 12.4-1.7.8-.2 1.6-.4 2.3-.6.2-.1.5-.2.7-.3s.5-.2.6-.3h.1c1-.5 1.3-.9 1.3-1.1l.1-.6.3-3.3v-.6-1.2c0-1.4 0-2.8-.1-4.1.1 0 .1-.3.1-.5z"/><path id="Shape_324_" class="st9" d="M43.6 124l.2.2.1.1.1.2c.8.2 1.6.5 2.3.9l-.4-.7-.3-.5-1.1-2-.9-1.6-.3-.5-.4-.7h-1.1c-.3 0-.6.1-1 .2l-.4.5-.6.6s0 .1-.1.2l2.9 2.4 1 .7z"/><path id="Shape_325_" class="st9" d="M20.9 134.9c.2.1.4.3.6.4.8.5 1.4 1.1 2 1.8l.2.2 2.7-8c-.2.1-.3.2-.5.2s-.3.1-.5.2c-.3.1-.7.2-1.1.2h-.8c-.2 0-.5-.1-.7-.2-1.1 1.5-2.1 3.1-2.8 4.8l.2.1c.3 0 .5.1.7.3z"/><path id="Shape_326_" class="st9" d="M32.8 195.2l-.3-1.4-.2-.8-.2-.8-.1-.3v-.1c0-.2-.1-.4-.2-.6-.1-.2-.1-.4-.2-.6-.2-.5-.5-1-.8-1.5-.8-1.3-1.9-2.5-3-3.6-.4-.4-.8-.7-1.3-1.1-3.3-2.7-7.3-4.8-11.3-6.5l-2.4-.9c-.2-.1-.4-.2-.6-.2l-.6-.2c-.9-.3-1.8-.6-2.7-.8-.8-.2-1.9-.5-2.9-.8l-1.6-.4c-.3-.1-.6-.2-1-.2l-.5-.2v.1l.3 2.1.2 1.8 1.7 13c.7 5.3 1.4 10.5 2.1 15.8h28.4l-.3-1.2c-.9-3.6-1.7-7.1-2.5-10.6z"/><path id="Shape_327_" class="st9" d="M43.6 125.6c-.3 0-.5-.1-.8-.1h-.6c-.1 0-1.7.2-3.2 2-1.6 2-3.2 6.4-1.9 15.5.3-.1.8-.2 1.4-.3l.6-.2.7-.2c2.9-.8 7-2.2 9.7-4.5l.1-.1c.2-.2.4-.3.5-.5l.6-.6.1-.1c.2-.3.5-.6.6-.9-.1-.2-.2-.7-.4-1.2l-.1-.3v-.1l-.1-.3c0-.2-.1-.3-.2-.4-.1-.3-.2-.6-.3-.8l-.1-.2c-.3-.8-.8-1.6-1.2-2.4v.1l-.6-.9c-1.1-1.5-2.4-2.7-4-3.3-.2 0-.5-.1-.8-.2z"/><path id="Shape_328_" class="st9" d="M215.6 161.7l1.6-.5h.1l-.3-3.7-5.9.6c0 .9.3 1.8 1 2.4.9.9 2.2 1.4 3.5 1.2z"/><path id="Shape_329_" class="st9" d="M217.7 165.9l-.3-3-1.6.4h-.7c-1.6 0-3.2-.6-4.3-1.7-.9-.9-1.4-2.1-1.5-3.4h-.6c-.5 0-.8-.4-.8-.9 0-.4.3-.8.7-.8l8.2-.9-.2-2.1h-.1c-.4 0-.8-.3-.8-.8l-1.7-21.4-38.9.4c-.2 0-.4-.1-.5-.2-1.8 1-3 2.7-3.3 4.8-.1.5-.1 1.1-.2 1.6.3-.3.8-.4 1.2-.2.2.2.3.5.3.8-3.6 22.5-1.8 42.4-1.1 50.8.1 1.4.2 2.5.3 3.3 0 .4.2.7.5.9 2.9 2.2 14.5.4 18.7-.5.5-.1.9.2 1 .6v.1l2.7-.4c-2.1-4.1-1.6-25.5-1.3-34.9 0-.4.3-.8.8-.8h.1c.5 0 .8.4.8.9-.5 15.6-.3 32.6 1.1 34.1 2.3 1.5 14.5.5 22.3-.6l-1.4-25.6c-.2 0 .2-.4.6-.5z"/><path id="Shape_330_" class="st9" d="M243.6 20.4c-.4.6-.6 1.4-.6 2.2 0 1.5.7 2.9 1.9 3.7-.7 0-1.4-.2-2-.5.2 2.3 1.3 3.8 3.5 4.5-.6.2-1.3.2-1.9.1.2.7.6 1.3 1.1 1.8.8.8 1.9 1.3 3 1.3-1.8 1.4-4.1 2.1-6.5 1.9v.1l1.1.6c.2.1.3.2.5.3 2 .9 4.2 1.3 6.4 1h.6c3-.4 5.9-1.9 7.8-4.3 2-2.4 3.1-5.5 3-8.6 0-.1 0-.2.2-.3.3-.3.7-.6 1-.9.4-.4.7-.8 1.1-1.2V22c-.8.3-1.6.5-2.4.6.9-.6 1.6-1.4 1.9-2.4l-.3.2c-.6.3-1.3.6-1.9.8-.3.1-.6.1-.8-.2l-.1-.1c-1.9-1.6-4.7-1.3-6.3.6-.6.7-1 1.6-1 2.5v1.3c-3.7-.4-7-2.1-9.3-4.9z"/><path id="Shape_331_" class="st9" d="M148.6 34.5c-.3 0-.6-.1-1-.1-1.3-.1-2.5-.1-3.8 0s-2.5.8-3.3 1.7c0 0 0 .1-.1.1-.2.2-.4.5-.6.7l-.3.6c-.4.8-.6 1.6-.6 2.5v4.2h-4.1V49h4.1v12.4h5V49.2h3.8c.2 0 .3 0 .3-.3.1-1 .3-2 .4-3 .1-.5.1-1 .2-1.5h-4.8V44v-2.5-1c0-.5.3-1 .7-1.2.3-.2.6-.3 1-.3h3.2v-.1-1.2V36v-1.2c.1-.2 0-.2-.1-.3z"/><path id="Rectangle-2" class="st9" d="M255.6 109.2h24.7v75.3h-24.7z"/><path id="Shape_333_" class="st0" d="M289 157.8c-.8-2.2-1.7-4.3-2.6-6.4v6.4h2.6z"/><path id="Shape_334_" class="st7" d="M289 157.8h.6c-.3-3.1-1.2-5.9-2.4-8.6-.3-.6-.6-1.2-.8-1.8v4c.9 2 1.7 4.2 2.6 6.4z"/><path id="Shape_335_" class="st7" d="M285.7 148.1c0 .1-.2.1-.2 0l-.1-.1-.7.3c.3.5.6 1.1.8 1.7.2.5.5.9.7 1.5v-4l-.1-.2-.4.8z"/><path id="Shape_336_" class="st7" d="M285.4 147.8c.2-.3.3-.7.5-1.2-1.2-2.1-2.5-4.2-4-6.1-3.2-3.9-6.8-7.4-10.7-10.4v1.9c3.2 3.2 6.3 6.2 9.1 9.8 1.6 2 3.1 4.2 4.3 6.4l.7-.3c.1 0 .1 0 .1-.1z"/><path id="Shape_337_" class="st3" d="M285.4 148.1s.1 0 0 0c.2.1.3.1.3 0 .2-.3.3-.5.5-.8 0-.1-.1-.2-.1-.2-.2.3-.3.6-.5.9l-.2.1z"/><path id="Shape_338_" class="st3" d="M285.4 147.8v.2h.2c.2-.3.3-.6.5-.9l-.1-.2c-.2.2-.4.6-.6.9z"/><path id="Shape_339_" class="st7" d="M300.7 139.9c0-.1 0-.2.1-.3l-1.1-.4c0 .1-.2.1-.2 0l-.3-.3c0 .2-.1.4-.1.6-.8 6-1.1 12.1-.6 18.1h.5c.2-5.9.6-11.8 1.7-17.7z"/><path id="Shape_340_" class="st7" d="M315.4 105.8c4-4.9 8.8-9.1 13.9-12.6.2-.1.2-.3.1-.5s-.3-.2-.5-.1c-5.6 3.2-10.7 7.2-15 12.1-4.2 4.9-7.6 10.4-10.1 16.5-2.3 5.6-3.9 11.5-4.9 17.5l.5.5s.1.1 0 .2l1.1.4c1.1-6.1 2.7-12 5.2-17.7 2.6-6.1 5.7-11.5 9.7-16.3z"/><path id="Shape_341_" class="st3" d="M299.6 139l-.5-.5v.2c.2.1.3.2.4.3h.2c0 .1-.1 0-.1 0z"/><path id="Shape_342_" class="st7" d="M289.6 158.8h8.6v-1.1h-8.7c.1.4.1.7.1 1.1.1 0 0 0 0 0z"/><path id="Shape_343_" class="st7" d="M286.2 158.8h3.1c-.1-.3-.2-.6-.3-1.1h-2.6v1.1h-.2z"/><path id="Shape_344_" class="st7" d="M298.7 158.8h13.4l2.3 8c.3 0 .6.1 1.1.1l-2.4-8.4c-.1-.4-.5-.6-.9-.6h-13.4c-.1.2-.1.5-.1.9z"/><path id="Shape_345_" class="st7" d="M317.2 176.4c1.7 14.9-8.9 28.1-22.7 28.1-13.7 0-24.4-13.2-22.7-28.1l1.7-5.7h-.8l-1.6 5.5v.1c-.7 7 1.2 14.1 5.5 19.6 2.1 2.7 4.9 5 7.9 6.5 2.1 1.1 4.4 1.8 6.9 2.1h3.3c3.4.1 6.9-.6 9.9-2.1 3.2-1.6 5.9-3.8 8-6.5 4.3-5.6 6.3-12.7 5.5-19.6v-.2l-2.5-8.5c-.3 0-.6.1-.9.1l2.5 8.7z"/><path id="Shape_346_" class="st7" d="M277.2 158.8h9.1v-.9h-9.1c-.4 0-.8.3-.9.6l-2.4 8.2h.9l2.4-7.9z"/><path id="Shape_347_" class="st3" d="M289.3 158.8h.3c0-.3-.1-.6-.1-.9h-.6c.2.3.3.6.4.9z"/><path id="Shape_348_" class="st7" d="M286.2 159.8H311.4l-.2-.6.9.6h-.7l2.1 7.1c.3 0 .6 0 1.1.1l-2.3-8h-13.4c0 .1-.1.2-.2.2s-.2-.1-.2-.2h-8.9c0 .1-.1.2-.2.2s-.2 0-.2-.1h-3.1l.1.7z"/><path id="Shape_349_" class="st3" d="M311.1 159l.2.8h.8z"/><path id="Shape_350_" class="st7" d="M316.4 176.5c.3 3.3.2 6.5-.6 9.7-.8 3.2-2.2 6.2-4.2 8.9-3.9 5.3-10.1 9-16.9 9.2v-.2c-3.4 0-6.5-.9-9.5-2.5-2.8-1.6-5.4-3.8-7.4-6.4-3.9-5.4-5.7-11.9-4.9-18.6v.1-.2.1l1.8-5.9h-.9l-1.7 5.7c-1.7 14.9 8.9 28.1 22.7 28.1 13.7 0 24.4-13.2 22.7-28.1l-2.5-8.6-.9.1 2.3 8.6z"/><path id="Shape_351_" class="st7" d="M274.8 166.7h.9l2-6.9h-.7l.9-.6-.2.6h8.3v-.9h-9l-2.2 7.8z"/><path id="Shape_352_" class="st7" d="M341.3 85.5c-1.9-3.2-4.9-5.9-8.4-7.1-3.7-1.2-7.5-.6-10.9.5-3.4 1.2-6.5 3-9.5 5.1-5.7 4.2-10.5 9.7-14.1 15.9-3.3 6.2-5.8 13.1-6.3 20.1-.3 3.6.1 7.2 1.2 10.5 1.1 3.3 3.1 6.1 5.8 8.2v-.2-.2c-2.4-2.1-4.2-5-5.1-8-.9-3.4-1.2-6.8-.7-10.2.7-6.9 3.3-13.4 6.6-19.5 3.5-5.9 8.1-11.2 13.7-15.2 2.7-2 5.7-3.7 9-4.7 3.2-1.1 6.6-1.5 9.7-.4 3.1.9 5.7 3.3 7.4 6 1.7 2.7 1.9 6.2 1.6 9.6-.7 6.8-3.4 13.3-6.6 19.4s-7.3 11.8-11.9 17c-2.3 2.5-5 4.7-7.9 6.6-1.4.9-3 1.7-4.6 2.1-1.6.4-3.4.4-4.9-.3-.2-.1-.3 0-.5.2 0 .2 0 .3.2.4 1.7.9 3.6 1.1 5.4.6 1.8-.4 3.5-1.1 5-2 3.1-1.9 5.8-4.1 8.2-6.8 4.9-5.1 9.1-10.9 12.6-17.1 3.4-6.2 6.1-12.9 7-20 .2-3.3 0-7.2-2-10.5z"/><path id="Shape_353_" class="st7" d="M281.3 150c.2-.1.2-.3.2-.4-.1-.2-.3-.3-.5-.2-2.6 1.1-5.5.6-8.1-.3-.5-.2-1.1-.4-1.6-.6-2.1-.9-4-2-5.9-3.4-4.5-3.4-8.3-7.9-10.4-13.1-1.1-2.5-1.5-5.3-1.4-8 .2-2.7 1.3-5.3 3-7.4 3-4.3 9.1-5.2 14.1-3.7l.5 3.7 1.2 8.2c.1.5.5.8 1.1.8.3 0 .6-.3.7-.6l2.6-9.6c4.2 4 7.5 9 9.4 14.5v.1c1.1 3 1.5 6 1.5 9.2 0 2.5-.5 5-1.5 7.3l-.3.6.1.2c0 .1.1.2.1.2l.1-.1c1.4-2.5 2.2-5.4 2.4-8.2.2-3.3-.2-6.5-1.2-9.7-.3-1.2-.7-2.3-1.3-3.4-2.1-5-5.3-9.4-9.3-13-.1-.1-.2-.2-.3-.2-.5-.1-.9.1-1.1.6l-1.9 6.8-1.1-8.2c0-.3-.3-.6-.6-.7-.2-.1-.4-.1-.6-.2-2.7-.8-5.6-.9-8.4-.4-1.5.3-3.1.8-4.3 1.6-1.4.8-2.5 1.9-3.4 3.2-1.9 2.4-3.1 5.4-3.3 8.4-.2 3.1.3 6.1 1.5 8.9 2.3 5.6 6.4 10.1 11.2 13.6 1.5 1.1 3 1.9 4.5 2.6 1.2.5 2.2.9 3.4 1.4 2.8.5 6.1.7 8.9-.5z"/><path id="Shape_354_" class="st7" d="M317.2 167.1c-.6-.1-1.2-.1-1.8-.2-.3 0-.6-.1-1.1-.1-.3 0-.6 0-1.1-.1-2.6-.2-5.3-.3-7.9-.3l-11.7-.1c-2.5 0-5.1 0-7.6.1-3.5 0-7 .1-10.4.2h-1.8c-1.2.1-2.3.1-3.5.2-.2 0-.3.2-.3.4s.2.3.3.3c1.1.1 2.1.1 3.2.2h1.8c3.6.2 7.2.2 10.8.3 2.5 0 5.1 0 7.6.1l11.7-.1c2.7-.1 5.5-.2 8.2-.3l.9-.1c.3 0 .6-.1.9-.1.5 0 1.1-.1 1.6-.2.1 0 .2-.1.2-.2.1 0 .1 0 0 0z"/><path id="Shape_355_" class="st9" d="M339.6 86.5c-1.7-2.8-4.2-5.2-7.4-6-3.1-1.1-6.5-.6-9.7.4-3.2 1.2-6.2 2.7-9 4.7-5.5 4.1-10.2 9.3-13.7 15.2-3.4 6-5.9 12.6-6.6 19.5-.4 3.4-.2 6.9.7 10.2.8 3.1 2.6 5.9 5.1 8 .9-6 2.6-11.8 4.9-17.5 2.5-6 5.9-11.5 10.1-16.5 4.2-4.9 9.3-9 15-12.1.2-.1.4 0 .5.1.1.2 0 .3-.1.5-5.2 3.5-9.9 7.8-13.9 12.6-4 4.9-7.3 10.2-9.6 16-2.4 5.7-4.1 11.6-5.2 17.7l4.2 1.5c.1-.2.3-.2.5-.2 1.5.7 3.2.7 4.9.3s3.2-1.2 4.6-2.1c2.8-1.9 5.5-4.1 7.9-6.6 4.7-5.1 8.8-10.8 11.9-17 3.2-6.1 5.9-12.7 6.6-19.4.3-3.1 0-6.6-1.7-9.3z"/><path id="Shape_356_" class="st9" d="M281 149.2c.2-.1.4 0 .5.2l3.2-1.2c-1.3-2.2-2.7-4.3-4.3-6.4-2.6-3.5-5.9-6.6-9.1-9.8-1.5-1.4-2.8-2.8-4.3-4.2-.1-.2-.1-.3 0-.5.1-.1.3-.1.4 0 1.4.9 2.6 1.9 3.9 2.8 3.9 3.1 7.5 6.6 10.7 10.4 1.5 1.9 2.8 3.9 4 6.1l.3-.6c.9-2.3 1.5-4.7 1.5-7.3 0-3.2-.5-6.2-1.5-9.2v-.1c-1.9-5.5-5.1-10.4-9.4-14.5l-2.6 9.6c-.1.5-.6.7-1.2.6-.3-.1-.6-.4-.6-.7l-1.2-8.2-.5-3.7c-5-1.4-11.2-.6-14.1 3.7-1.7 2.1-2.7 4.7-3 7.4-.2 2.7.2 5.5 1.4 8 2.1 5.2 5.9 9.6 10.4 13.1 1.8 1.4 3.8 2.5 5.9 3.4.5.2 1.1.4 1.6.6 2.5 1.1 5.4 1.6 8 .5z"/><path id="Shape_357_" class="st9" d="M313.7 167.8c-2.7.2-5.5.3-8.2.3l-11.7.1c-2.5 0-5.1 0-7.6-.1-3.6 0-7.2-.1-10.8-.3l-.8 2.6-1.8 5.9c-.8 6.5.8 13.2 4.9 18.6 2 2.6 4.5 4.9 7.4 6.4 3 1.6 6.2 2.4 9.5 2.5v.2c6.8-.2 13.1-3.9 16.9-9.2 2-2.6 3.4-5.7 4.2-8.9.8-3.2 1.1-6.4.6-9.7l-2.6-8.4z"/><path id="Shape_358_" class="st9" d="M277.9 159.8l-2 6.9c3.5-.2 7-.2 10.4-.2 2.5 0 5.1 0 7.6-.1l11.7.1c2.6.1 5.3.2 7.9.3l-2.1-7.1H286.2l-8.3.1z"/><path id="Shape_359_" class="st7" d="M273.3 167.9l-.7 2.8h1l.7-2.7z"/><path id="Shape-Copy" class="st7" d="M274.2 167.9l-.9 2.8h1l.8-2.7z"/></g></g></g></svg>