<?xml version="1.0" encoding="utf-8"?>
<!-- Generator: Adobe Illustrator 21.0.2, SVG Export Plug-In . SVG Version: 6.00 Build 0)  -->
<svg version="1.1" id="Layer_1" xmlns="http://www.w3.org/2000/svg" xmlns:xlink="http://www.w3.org/1999/xlink" x="0px" y="0px"
	 viewBox="0 0 388 197" style="enable-background:new 0 0 388 197;" xml:space="preserve">
<style type="text/css">
	.st0{fill:#F3F6F8;}
	.st1{fill:none;}
	.st2{fill:#E1EFF9;}
	.st3{fill:#44D0A3;}
	.st4{fill:#E9EFF4;}
	.st5{fill:#74DCFC;}
	.st6{fill:#C2F4FF;}
	.st7{fill:#0084C0;}
	.st8{fill:#FFFFFF;}
	.st9{fill:#86A6BD;}
	.st10{fill:#A6C1D1;}
	.st11{fill:#004F81;}
	.st12{fill:#004F84;}
	.st13{fill:#C8D7E2;}
</style>
<path class="st0" d="M135.4,111h81.3v87.7h-81.3V111z"/>
<g id="Page-1_1_">
	<g id="_x32_-Upload-an-icon_1_">
		<g id="Upload-icon_1_" transform="translate(53 -42)">
			<path id="Shape" class="st1" d="M175.5,282.1c-1.6,0.8-3.2,1.6-4.9,2.1h4.8C175.4,283.5,175.4,282.7,175.5,282.1L175.5,282.1z"/>
			<path id="Shape_1_" class="st1" d="M258.4,280.8c-1.3-1.5-2-3.4-2.2-5.4c-0.1-1.9-0.2-3.6-0.2-5.5l-0.4-10.8l-0.2-5.3h-51.7
				l4.5,21.3c0.2-0.1,0.4,0,0.5,0.1c5.2,5.1,9.3,7.6,10.4,9c14.8,0,29.6,0.1,44.5,0.1C261.5,283.7,259.8,282.4,258.4,280.8
				L258.4,280.8z"/>
			<path id="Shape_2_" class="st1" d="M200.8,281.2l0.3,3h7.4C205,283.1,201.8,281.8,200.8,281.2z"/>
			<path id="Shape_3_" class="st1" d="M199.8,280.3c-1.3-1.3-1.5-3.2-0.5-5.9c-1.7-6.7-4.4-8.9-6.9-20.6h-13
				c0.1,0.6,0.2,1.2,0.3,1.9c1.1,7.2-1.9,13.1-2.7,19.8c1,2.7,0.8,4.4-0.4,5.7c0,0.2-0.1,0.5-0.1,0.7c-0.1,0.8-0.2,1.5-0.4,2.3h24.3
				c-0.2-1-0.4-2.1-0.6-3.1L199.8,280.3L199.8,280.3z"/>
			<path id="Shape_4_" class="st0" d="M292.8,95c-0.9,0-1.6-0.7-1.6-1.6h-4.7c0,0.9-0.7,1.6-1.6,1.6h-8c-0.9,0-1.6-0.7-1.6-1.6h-4.7
				c0,0.9-0.7,1.6-1.6,1.6h-8c-0.9,0-1.6-0.7-1.6-1.6h-4.7c0,0.9-0.7,1.6-1.6,1.6h-8c-0.9,0-1.6-0.7-1.6-1.6h-4.7
				c0,0.9-0.7,1.6-1.6,1.6h-4.6l-1.1,4.8c0.8,2,1,4.2,0.7,6.3c-0.2,1.6-1.6,2.7-3,3.8l-8.2,35.9c-0.1,0.3-0.2,0.5-0.5,0.7
				c-0.2,0.1-0.5,0.2-0.8,0.1l-8.1-1.8c-2.7,3-5.7,5.7-9,8.2c0.1,0.4,0.1,0.8,0.1,1.1c0.1,0,0.2,0.1,0.3,0.2
				c0.3,0.9,0.4,1.8,0.4,2.7s0.1,1.8,0.1,2.7c0,1.8-0.2,3.6-0.5,5.4c-0.3,1.8-0.8,3.6-1.5,5.3c-0.6,1.6-1.4,3.2-2.5,4.5
				c1.7,1.8,3,3.9,4.1,6.1c0.6,1.1,1,2.3,1.5,3.4c0.4,1.2,0.8,2.3,1.2,3.5c1.3,4.8,2.1,9.7,2.4,14.7c0.3,4.9,0.3,9.9,0.1,14.8
				c-0.1,2.6-0.3,5.2-0.6,7.8c-0.2,4.4-0.5,9.1-0.9,14.2h-6.3v0.2c3,0,6,0.1,9,0.3c0.1,0,0.1,0.1,0.1,0.2s-0.1,0.2-0.1,0.2
				c-2.9,0.2-5.8,0.3-8.7,0.3l2.8,13.1h51.7l-0.8-21.5h-23.9v-68.4c0-5,4.1-9,9.1-9h41.7v60.7l4.4,0.1l4-13.7l3.8-13
				c0.5-1.9,1.7-3.6,3.2-4.8V95H292.8L292.8,95z M282.1,140.8H232V108h50.1L282.1,140.8L282.1,140.8z"/>
			<path id="Shape_5_" class="st0" d="M123.9,125.4c0.2,0.2,0.4,0.3,0.6,0.5c-0.1-0.3-0.3-0.6-0.4-0.9l-0.8-0.2
				C123.3,124.8,123.9,125.4,123.9,125.4z"/>
			<path id="Shape_6_" class="st0" d="M128,125.9c0.6,1,1.2,2.1,1.7,2.9c0.9,1.4,8.1,5.6,12.8,9.5c0.9,0.8,5.9,0.9,10.2,1.7l0.2-0.9
				l11.9,2.5c0.2,0.1,0.3,0.2,0.5,0.3c2.1-2.7,4.7-4.8,7.6-5.8v-0.2C172.9,135.9,128,125.9,128,125.9z"/>
			<path id="Shape_7_" class="st0" d="M192.1,252.3c-0.2-1.2-0.6-2.3-1.1-3.4c-1.2-2.6-2.2-5.4-3-8.2h-7.4c-0.1,2.1-0.5,4.2-0.9,6.3
				c-0.5,2.2-0.6,4.5-0.3,6.7h13C192.3,253.3,192.2,252.8,192.1,252.3L192.1,252.3z"/>
			<path id="Shape_8_" class="st0" d="M163.8,240.7c-2.2,0-4.4,0.1-6.6-0.2c-0.2,0-0.3-0.2-0.3-0.3s0.1-0.3,0.3-0.3
				c2.2-0.2,4.4-0.2,6.6-0.2h2.8v-0.1h-7.4c-2.3-17-2.7-42.7,4.1-58.8c-1.7-7.9-3.8-19-3.8-23.8c-3-0.7-5.8-1.6-8.1-2.2
				c-0.7-0.2-1.3-0.7-1.6-1.3c-4.3-1.1-8.3-3.2-11.7-6c-0.1,0.1-0.3,0.1-0.4,0.1c-1.1-0.6-2.1-1.3-3-2.2c-0.9-0.8-1.8-1.7-2.7-2.6
				c-1.7-1.8-3.3-3.6-4.8-5.5c-0.8-1-1.5-1.9-2.2-2.9c-0.2-0.2-0.4-0.5-0.5-0.7c-0.2-0.2-0.4-0.4-0.6-0.5l-1.5-0.9
				c-1.1-0.6-2.1-1.1-3.3-1.6c-0.6-0.3-1.1-0.8-1.5-1.3c-0.3-0.4-0.5-1-0.4-1.5c-0.1-0.1-0.1-0.2-0.2-0.3c-1-1.2-1.5-2.8-1.6-4.3
				l-18-4c-0.6-0.1-0.9-0.7-0.8-1.2l4.9-22.9c-0.6-0.2-1-0.8-1-1.5h-4.7c0,0.9-0.7,1.6-1.6,1.6h-8c-0.9,0-1.6-0.7-1.6-1.6h-4.7
				c0,0.9-0.7,1.6-1.6,1.6h-4v104.1c1.3,0.3,2.5,0.7,3.6,1.4c1.2,0.8,2.3,1.7,3.1,2.9c1.7,2.2,2.8,4.9,3,7.7s-0.3,5.5-1.4,8.1
				c-1.9,4.2-4.7,8-8.3,10.9v23.7H78l-0.6-1.3H89c0-2.7,0-5.1,0.1-7.3c-1.6,1.2-3.5,1.7-5.5,1.3c-1.5-0.3-2.8-1.1-3.8-2.3
				c-0.3-0.4-0.4-0.9-0.3-1.5c0.1-0.5,0.4-0.9,0.9-1.2c1.3-0.7,2.8-0.9,4.3-0.7c2.6,0.5,3.9,2.6,4.4,3.6c0.1-2.5,0.4-5,1.1-7.4
				c-1.7,0.3-3.4,0.1-4.9-0.8c-1.3-0.8-2.3-2-2.8-3.4c-0.2-0.5-0.1-1,0.2-1.5c0.3-0.4,0.7-0.7,1.3-0.8c1.5-0.2,2.9,0.1,4.2,0.8
				c1.3,0.8,2.2,2,2.7,3.5c0.8-2.2,2-4.2,3.5-6c-1.7,0.1-3.4-0.4-4.7-1.5c-1-0.8-1.8-1.9-2.1-3.2c-0.2-0.7,0-1.4,0.4-1.9
				s1.1-0.8,1.8-0.7c1.3,0.1,2.5,0.6,3.5,1.4c1.8,1.4,2.2,3.5,2.2,4.7c0.3-0.3,0.6-0.7,1-1l0.6-54.7c0.1-2.2-0.1-4.3-0.8-6.4
				l0.1-9.8H147v76.3h-41.8c-0.1,0.6-0.6,1.1-1.2,1.3c-1.4,0.4-2.8,0.4-4.1-0.1c-0.8-0.3-1.5-0.7-2.1-1.2h-1.3v-1.6
				c-0.2-0.4-0.4-0.7-0.5-1.1c-1.8,2.1-3.2,4.6-4,7.2c1.4-1.3,3.3-2,5.2-1.9c1.5,0.2,2.9,0.9,3.9,2c0.4,0.4,0.5,0.9,0.4,1.5
				c-0.1,0.5-0.4,1-0.9,1.2c-1.2,0.7-2.6,1-4,0.9c-2-0.2-3.8-1.4-4.9-3.1c-0.6,2.2-0.9,4.5-1,6.8c1.3-1.2,2.9-1.9,4.7-1.9
				c1.5,0,3,0.6,4.1,1.7c0.4,0.4,0.6,0.9,0.6,1.4s-0.3,1-0.8,1.3c-1.2,0.8-2.5,1.2-4,1.2c-1.8,0-3.5-0.8-4.7-2.1
				c-0.1,2-0.1,4.2-0.1,6.6h8.9l-0.6,1.3h69.1c-0.3-4.8-0.7-9.4-1.1-13.1L163.8,240.7L163.8,240.7z"/>
			<path id="Shape_9_" class="st0" d="M203.8,184.8c-0.5-1.1-0.9-2.3-1.5-3.3c-1-2.2-2.5-4.2-3.7-6.2v-0.2h-0.3
				c4.1,5.6,7.4,13.7,8.9,26.2c-0.3-4.4-1.1-8.7-2.2-13C204.6,187.1,204.2,186,203.8,184.8z"/>
			<path id="Shape_10_" class="st2" d="M78.2,91.8h-2.4v-2.4c0-0.9-0.7-1.6-1.6-1.6s-1.6,0.7-1.6,1.6v4c0,0.9,0.7,1.6,1.6,1.6h4
				c0.9,0,1.6-0.7,1.6-1.6S79.1,91.8,78.2,91.8z"/>
			<path id="Shape_11_" class="st2" d="M74.2,82.8c0.9,0,1.6-0.7,1.6-1.6V73c0-0.9-0.7-1.6-1.6-1.6h-0.1c-0.9,0-1.6,0.7-1.6,1.6v8.2
				C72.6,82.1,73.3,82.8,74.2,82.8z"/>
			<path id="Shape_12_" class="st2" d="M84.2,59.6c-0.2-0.4-0.5-0.7-0.9-0.9s-0.8-0.2-1.2,0c-2.9,1.1-5.4,3.1-7.1,5.7
				c-0.5,0.7-0.3,1.7,0.4,2.2h0.1c0.7,0.4,1.7,0.2,2.2-0.5c1.3-2,3.3-3.6,5.5-4.4C84.1,61.4,84.5,60.5,84.2,59.6
				C84.2,59.7,84.2,59.6,84.2,59.6z"/>
			<path id="Shape_13_" class="st2" d="M100.7,59.3c0-0.9-0.7-1.6-1.6-1.6h-8.2c-0.9,0-1.6,0.7-1.6,1.6c0,0.9,0.7,1.6,1.6,1.6H99
				C99.9,60.9,100.7,60.2,100.7,59.3z"/>
			<path id="Shape_14_" class="st2" d="M105.7,59.3c0,0.9,0.7,1.6,1.6,1.6h1.5l0.3-1.6v-0.2l0.3-1.4h-2.2
				C106.4,57.7,105.7,58.4,105.7,59.3z"/>
			<path id="Shape_15_" class="st2" d="M296.8,71.3c-0.9,0-1.6,0.7-1.6,1.6v8.2c0,0.9,0.7,1.6,1.6,1.6s1.6-0.7,1.6-1.6v-8.2
				C298.4,72,297.7,71.3,296.8,71.3z"/>
			<path id="Shape_16_" class="st2" d="M281.7,59.3c0-0.9-0.7-1.6-1.6-1.6h-8.2c-0.9,0-1.6,0.7-1.6,1.6c0,0.9,0.7,1.6,1.6,1.6h8.2
				C281,60.9,281.7,60.2,281.7,59.3z"/>
			<path id="Shape_17_" class="st2" d="M293.2,66.1c0.5,0.7,1.4,0.9,2.2,0.5h0.1c0.4-0.2,0.6-0.6,0.7-1s0-0.9-0.2-1.2
				c-1.7-2.6-4.2-4.5-7.1-5.6c-0.8-0.3-1.8,0.1-2.1,0.9v0.1c-0.3,0.8,0.2,1.7,1,2C289.9,62.5,291.9,64.1,293.2,66.1z"/>
			<path id="Shape_18_" class="st2" d="M248.8,59.3c0-0.9-0.7-1.6-1.6-1.6H241l-0.4,1.6l-0.4,1.6h6.9c0.4,0,0.8-0.2,1.1-0.5
				C248.6,60.2,248.8,59.8,248.8,59.3L248.8,59.3z"/>
			<path id="Shape_19_" class="st2" d="M265.3,59.3c0-0.9-0.7-1.6-1.6-1.6h-8.2c-0.9,0-1.6,0.7-1.6,1.6c0,0.9,0.7,1.6,1.6,1.6h8.2
				C264.6,60.9,265.3,60.2,265.3,59.3z"/>
			<path id="Shape_20_" class="st2" d="M296.8,87.8c-0.9,0-1.6,0.7-1.6,1.6v2.4h-2.4c-0.9,0-1.6,0.7-1.6,1.6s0.7,1.6,1.6,1.6h4
				c0.9,0,1.6-0.7,1.6-1.6v-4C298.4,88.5,297.7,87.8,296.8,87.8z"/>
			<path id="Shape_21_" class="st2" d="M100.4,93.4c0,0.7,0.4,1.3,1,1.5l0.3-1.5l0.3-1.6h-0.1c-0.4,0-0.8,0.2-1.1,0.5
				C100.6,92.5,100.4,93,100.4,93.4z"/>
			<path id="Shape_22_" class="st2" d="M268.9,91.8h-8c-0.9,0-1.6,0.7-1.6,1.6s0.7,1.6,1.6,1.6h8c0.9,0,1.6-0.7,1.6-1.6
				C270.6,92.5,269.8,91.8,268.9,91.8z"/>
			<path id="Shape_23_" class="st2" d="M253,91.8h-8c-0.9,0-1.6,0.7-1.6,1.6s0.7,1.6,1.6,1.6h8c0.9,0,1.6-0.7,1.6-1.6
				C254.7,92.5,253.9,91.8,253,91.8z"/>
			<path id="Shape_24_" class="st2" d="M237.1,91.8h-3.8l-0.4,1.6l-0.4,1.6h4.6c0.9,0,1.6-0.7,1.6-1.6
				C238.8,92.5,238,91.8,237.1,91.8L237.1,91.8z"/>
			<path id="Shape_25_" class="st2" d="M94.1,91.8h-8c-0.9,0-1.6,0.7-1.6,1.6s0.7,1.6,1.6,1.6h8c0.9,0,1.6-0.7,1.6-1.6
				S95,91.8,94.1,91.8z"/>
			<path id="Shape_26_" class="st2" d="M284.8,91.8h-8c-0.9,0-1.6,0.7-1.6,1.6s0.7,1.6,1.6,1.6h8c0.9,0,1.6-0.7,1.6-1.6
				S285.7,91.8,284.8,91.8z"/>
			<path id="Rectangle-path" class="st0" d="M232,107.9h50.1v32.8H232C232,140.7,232,107.9,232,107.9z"/>
			<path id="Shape_28_" class="st3" d="M96.4,230.7v1.6h1.3C97.2,231.8,96.7,231.3,96.4,230.7z"/>
			<path id="Shape_29_" class="st4" d="M353,285.3c-19.4-0.4-38.8-0.6-58.1-0.8c-1.4,0.4-2.9,0.6-4.4,0.5h-21.8
				c-1.8,0.1-3.6-0.2-5.2-0.8c-14.8-0.1-29.6-0.1-44.5-0.1c0.3,0.4,0.4,0.8,0.1,1c-1.1,1.4-6.2,0.4-10.8-1.1h-7.4v0.2
				c0,0.2-0.1,0.3-0.3,0.3s-0.3-0.1-0.3-0.2s0-0.2-0.1-0.3h-24.3c-0.1,0.4-0.2,0.8-0.3,1.1c0,0.2-0.2,0.3-0.3,0.2
				c-0.2,0-0.3-0.2-0.3-0.3c0-0.4,0-0.7,0.1-1.1h-4.8c-4.9,1.8-11.7,3.6-13.1,1.9c-0.4-0.4,0-1,1-1.9l-55.5,0.1
				c-27.8,0.2-55.6,0.4-83.4,1.3c-0.2,0-0.3,0.1-0.3,0.3c0,0.2,0.1,0.3,0.3,0.3c27.8,0.9,55.6,1.1,83.4,1.3l83.4,0.2
				c55.6-0.2,111.1-0.1,166.7-1.2c0.4,0,0.6-0.3,0.6-0.6C353.6,285.6,353.3,285.3,353,285.3z"/>
			<path id="Shape_30_" class="st5" d="M136.3,20.8L128,57.7l-0.4,1.6l-0.4,1.6l-7,30.8l-0.4,1.6l-0.4,1.6l-2.7,11.7l43.8,9.2
				c0.2-3,1.9-5.6,4.6-6.9c0,0-1.7-5.7,3.1-8.8c-3.5-1-6.7-2.9-9.4-5.4l-0.2-0.2c-0.4-0.4-0.9-0.8-1.3-1.3l-0.3-0.3l-0.9,0.2
				l-1.1,0.2c-2.3,0.4-4.5,0.6-6.8,0.6c-1.6,0-3.2-0.2-4.8-0.5H143c-1.2-0.3-2.3-0.8-3.3-1.5l-0.1-0.1c-0.5-0.4-1-0.9-1.3-1.5
				c-0.3-0.7-0.4-1.4-0.3-2.2c0.3-1.2,1-2.3,2.1-3.1c0.9-0.7,1.8-1.2,2.9-1.6c0.2-0.1,0.4,0,0.5,0.2s0,0.4-0.1,0.5
				c-0.8,0.6-1.6,1.2-2.2,2c-0.6,0.6-1,1.4-1,2.3c0,1.2,1.7,1.9,3.6,2.2c1.9,0.2,3.9,0.2,5.9-0.1c1.6-0.2,3.3-0.4,4.9-0.8
				c-5.9-8.3-6.5-17.9-0.9-27.4c0.5-0.9,1.1-1.7,1.7-2.5c0.1-0.2,0.2-0.3,0.4-0.4c0.5-0.6,0.9-1.1,1.4-1.6
				c8.3-8.5,21.3-7.9,30.8-1.1c0.5,0.4,1,0.8,1.5,1.1c0.6,0.5,1.2,1,1.7,1.6c0.5,0.5,1,1.1,1.4,1.6c2.7,3.3,4.5,7.3,5.2,11.6
				c1.1-0.7,2.1-1.4,3.1-2.2c1.6-1.2,3-2.5,4.3-4c1.2-1.4,2-3.1,1.7-4.2c-0.2-0.6-0.6-1-1.1-1.3c-0.2-0.1-0.3-0.2-0.5-0.3
				c-0.7-0.4-1.5-0.6-2.4-0.7c-1.1-0.2-2.2-0.3-3.3-0.2c-0.9,0-1.8,0.1-2.7,0.2c-0.4,0-0.8-0.3-0.8-0.7s0.2-0.7,0.6-0.8
				c0.7-0.2,1.4-0.3,2.1-0.5c1.5-0.3,3-0.4,4.5-0.3c0.8,0,1.6,0.1,2.4,0.4c0.4,0.1,0.7,0.2,1.1,0.4c0.6,0.3,1.2,0.6,1.7,1.1
				c0.5,0.4,0.9,1,1.2,1.6c0,0.1,0.1,0.1,0.1,0.2c0.5,1.3,0.5,2.8,0,4.1c-0.4,1.1-1,2.2-1.7,3.2c-1.4,1.8-2.9,3.4-4.7,4.8
				c-1.7,1.3-3.4,2.6-5.2,3.7c-0.1,5.4-1.9,10.6-5.2,14.8c-0.4,0.6-0.9,1.1-1.4,1.6l-0.1,0.2c-0.5,0.5-1,1-1.5,1.4
				c-1.6,1.4-3.3,2.6-5.2,3.6c2.4-0.5,5,0.2,6.9,1.8c4.1,3.4,3.4,6.7,3.4,6.7s4.7,1.6,5.4,5.7c0.8,4.9-2.1,6.9-2.1,6.9
				c0.3,1.4,0.4,2.8,0.1,4.2l9.6,2c0.4-0.6,0.7-1.1,1.1-1.7l6.6-29.2l0.4-1.6l0.4-1.6l6.9-30.8l0.4-1.6l0.4-1.6l4-17.7L136.3,20.8
				L136.3,20.8z"/>
			<path id="Shape_31_" class="st6" d="M178.9,81.7c3.8-1.5,7.6-3.2,11.3-5.1c2.5-1.3,4.9-2.6,7.3-4.2c-0.7-4.2-2.5-8.2-5.2-11.6
				c-0.5-0.6-0.9-1.1-1.4-1.6s-1.1-1-1.7-1.6c-0.5-0.4-1-0.8-1.5-1.1c-9.5-6.8-22.5-7.4-30.8,1.1c-0.5,0.5-1,1-1.4,1.6
				c-0.1,0.1-0.2,0.3-0.4,0.4c-0.6,0.8-1.2,1.6-1.7,2.5c-5.7,9.5-5,19.2,0.9,27.4l1.1-0.2c4-0.9,8-2,11.9-3.4
				C171.2,84.8,175.1,83.3,178.9,81.7L178.9,81.7z"/>
			<path id="Shape_32_" class="st6" d="M180.6,85.7c-6.9,2.8-14.1,5.3-21.5,6.9c-0.7,0.1-1.3,0.3-2,0.4l0.3,0.3l1.3,1.3l0.2,0.2
				c2.6,2.5,5.9,4.4,9.4,5.4c0.8-0.5,1.7-0.9,2.6-1.2c6.3-1.9,9.7,0.8,9.7,0.8c1.2-0.6,2.5-1.1,3.8-1.3c1.9-1,3.6-2.2,5.2-3.6
				c0.5-0.4,1-0.9,1.5-1.4l0.1-0.2c0.5-0.5,1-1.1,1.4-1.6c3.3-4.2,5.1-9.5,5.2-14.8C192.4,80.5,186.5,83.2,180.6,85.7L180.6,85.7z"
				/>
			<path id="Shape_33_" class="st7" d="M199.4,59.3h5c0-0.6,0.4-1.2,0.9-1.5c-0.8-0.2-1.6-0.3-2.4-0.4c-1.5,0-3,0.1-4.5,0.3
				C199,58.1,199.4,58.7,199.4,59.3z"/>
			<path id="Shape_34_" class="st7" d="M148.1,93.4h-4.7c1.6,0.3,3.2,0.5,4.8,0.5C148.2,93.8,148.1,93.6,148.1,93.4z"/>
			<path id="Shape_35_" class="st7" d="M202.7,59.9c0.8,0.1,1.6,0.3,2.4,0.7c-0.4-0.3-0.6-0.8-0.6-1.2h-5v0.3
				C200.5,59.6,201.6,59.7,202.7,59.9L202.7,59.9z"/>
			<path id="Shape_36_" class="st7" d="M205.5,60.8c0.5,0.3,0.9,0.7,1.1,1.3c0.3,1.1-0.5,2.8-1.7,4.2c-1.3,1.5-2.7,2.8-4.3,4
				c-1,0.8-2.1,1.5-3.1,2.2c0.2,1.5,0.4,3,0.3,4.4c1.8-1.2,3.5-2.4,5.2-3.7c1.7-1.4,3.3-3,4.7-4.8c0.7-1,1.3-2,1.7-3.2
				c0.5-1.3,0.5-2.8,0-4.1c0-0.1-0.1-0.1-0.1-0.2H206C205.9,60.9,205.7,60.9,205.5,60.8z"/>
			<path id="Shape_37_" class="st7" d="M143.4,93.4h4.7c0-0.9,0.7-1.6,1.6-1.6h6.2c-0.6-0.7-1.1-1.4-1.6-2.1
				c-1.6,0.3-3.2,0.6-4.9,0.8c-1.9,0.3-3.9,0.3-5.9,0.1c-1.8-0.2-3.6-1-3.6-2.2c0.1-0.8,0.4-1.6,1-2.3c0.7-0.7,1.4-1.4,2.2-2
				c0.2-0.1,0.2-0.3,0.1-0.5s-0.3-0.2-0.5-0.2c-1,0.4-2,0.9-2.9,1.6c-1,0.8-1.8,1.8-2.1,3.1c-0.1,0.7,0,1.5,0.3,2.2
				c0.3,0.6,0.7,1.1,1.3,1.5h2.2C142.7,91.8,143.4,92.5,143.4,93.4z"/>
			<path id="Shape_38_" class="st7" d="M195.8,59.1c0,0.1,0,0.1,0.1,0.2h3.5c0-0.6-0.4-1.2-1-1.5c-0.7,0.1-1.4,0.3-2.1,0.5
				C196,58.4,195.8,58.8,195.8,59.1z"/>
			<path id="Shape_39_" class="st7" d="M204.4,59.3h3.7c-0.5-0.5-1.1-0.8-1.7-1.1c-0.3-0.1-0.7-0.3-1.1-0.4
				C204.8,58.1,204.4,58.7,204.4,59.3z"/>
			<path id="Shape_40_" class="st7" d="M205,60.6c0.2,0.1,0.3,0.2,0.5,0.3s0.4,0.1,0.5,0.1h3.3c-0.3-0.6-0.7-1.2-1.2-1.6h-3.7
				C204.4,59.8,204.7,60.3,205,60.6L205,60.6z"/>
			<path id="Shape_41_" class="st7" d="M155.1,93.4h-6.9c0,0.2,0,0.4,0.1,0.6C150.5,93.9,152.8,93.8,155.1,93.4L155.1,93.4z"/>
			<path id="Shape_42_" class="st7" d="M156.2,93.2l0.9-0.2c-0.4-0.4-0.8-0.8-1.1-1.3h-6.2c-0.9,0-1.6,0.7-1.6,1.6h6.9L156.2,93.2
				L156.2,93.2z"/>
			<path id="Shape_43_" class="st7" d="M143,93.4h0.4c0-0.4-0.2-0.8-0.5-1.1c-0.3-0.3-0.7-0.5-1.1-0.5h-2.2l0.1,0.1
				C140.7,92.6,141.8,93.1,143,93.4z"/>
			<path id="Shape_44_" class="st7" d="M157.7,91.8c0.6,0,1.2,0.3,1.4,0.9c7.4-1.6,14.6-4.1,21.5-6.9c5.9-2.5,11.8-5.2,17.2-8.8
				c0-1.5-0.1-3-0.3-4.4c-2.3,1.5-4.8,2.9-7.3,4.2c-3.7,1.9-7.4,3.6-11.3,5.1s-7.7,3.1-11.6,4.4c-3.9,1.4-7.8,2.5-11.9,3.4l-1.1,0.2
				c0.5,0.7,1.1,1.4,1.6,2.1L157.7,91.8L157.7,91.8z"/>
			<path id="Shape_45_" class="st7" d="M159.1,92.6c-0.3-0.5-0.8-0.9-1.4-0.9H156c0.4,0.4,0.7,0.8,1.1,1.3
				C157.8,92.9,158.4,92.8,159.1,92.6z"/>
			<path id="Shape_46_" class="st8" d="M233.3,91.8h3.8c0.9,0,1.6,0.7,1.6,1.6h4.7c0-0.9,0.7-1.6,1.6-1.6h8c0.9,0,1.6,0.7,1.6,1.6
				h4.7c0-0.9,0.7-1.6,1.6-1.6h8c0.9,0,1.6,0.7,1.6,1.6h4.7c0-0.9,0.7-1.6,1.6-1.6h8c0.9,0,1.6,0.7,1.6,1.6h4.7
				c0-0.9,0.7-1.6,1.6-1.6h2.4v-2.4c0-0.9,0.7-1.6,1.6-1.6v-5c-0.9,0-1.6-0.7-1.6-1.6V73c0-0.9,0.7-1.6,1.6-1.6
				c-0.1-1.7-0.6-3.3-1.4-4.8c-0.7,0.4-1.7,0.2-2.2-0.5c-1.4-2-3.3-3.5-5.6-4.4c-0.8-0.3-1.2-1.2-1-2c-1-0.3-2.1-0.4-3.2-0.4h-1.8
				c0,0.9-0.7,1.6-1.6,1.6h-8.3c-0.9,0-1.6-0.7-1.6-1.6h-5c0,0.9-0.7,1.6-1.6,1.6h-8.2c-0.9,0-1.6-0.7-1.6-1.6h-5
				c0,0.9-0.7,1.6-1.6,1.6h-6.9L233.3,91.8L233.3,91.8z"/>
			<path id="Shape_47_" class="st8" d="M102.1,91.8l6.7-30.8h-1.5c-0.9,0-1.6-0.7-1.6-1.6h-5c0,0.9-0.7,1.6-1.6,1.6h-8.2
				c-0.9,0-1.6-0.7-1.6-1.6h-1.8c-1.1,0-2.2,0.1-3.2,0.4c0.3,0.8-0.2,1.7-1,2c-2.3,0.9-4.2,2.4-5.6,4.4c-0.5,0.7-1.4,0.9-2.2,0.5
				c-0.7,1.5-1.2,3.1-1.3,4.8c0.9,0,1.6,0.7,1.6,1.6v8.2c0,0.9-0.7,1.6-1.6,1.6v5c0.9,0,1.6,0.7,1.6,1.6v2.4h2.4
				c0.9,0,1.6,0.7,1.6,1.6h4.7c0-0.9,0.7-1.6,1.6-1.6h8c0.9,0,1.6,0.7,1.6,1.6h4.7C100.5,92.5,101.2,91.8,102.1,91.8z"/>
			<path id="Shape_48_" class="st8" d="M281.5,215.4v-60.7h-41.7c-5,0-9.1,4-9.1,9v68.5h23.9l-0.6-16.3c0-0.4,0.3-0.7,0.7-0.7
				l20.7,0.1C277.5,215.4,279.5,215.4,281.5,215.4L281.5,215.4z"/>
			<path id="Shape_49_" class="st8" d="M101.7,228.1c-1.6-0.5-3.3-0.4-4.8,0.2c-0.2,0.2-0.3,0.4-0.5,0.5l-0.6,0.6
				c0.1,0.4,0.3,0.8,0.5,1.1c0.3,0.6,0.8,1.1,1.3,1.6c0.6,0.6,1.3,1,2.1,1.2c1.3,0.4,2.8,0.5,4.1,0.1c0.6-0.2,1.1-0.7,1.2-1.3
				c0.1-0.4,0-0.8-0.2-1.2C104.3,229.7,103.1,228.6,101.7,228.1L101.7,228.1z"/>
			<path id="Shape_50_" class="st8" d="M88.2,231.5c-1.3-0.7-2.8-1-4.2-0.8c-0.5,0.1-1,0.4-1.3,0.8s-0.3,1-0.2,1.5
				c0.5,1.4,1.5,2.6,2.8,3.4c1.5,0.9,3.2,1.1,4.9,0.8c0.2-0.7,0.4-1.5,0.7-2.2C90.5,233.6,89.5,232.3,88.2,231.5z"/>
			<path id="Shape_51_" class="st8" d="M93.3,223.1c-1-0.8-2.2-1.3-3.5-1.4c-0.7-0.1-1.4,0.2-1.8,0.7s-0.6,1.2-0.4,1.9
				c0.3,1.3,1.1,2.4,2.1,3.2c1.3,1.1,3,1.6,4.8,1.5c0.3-0.4,0.7-0.8,1-1.2C95.4,226.6,95,224.5,93.3,223.1z"/>
			<path id="Shape_52_" class="st8" d="M194.7,129.7c-0.4-0.1-0.7-0.3-0.9-0.7c-3.4,1.4-4.5-0.6-4.5-0.6l-0.7,0.8
				c0,0.2-0.1,0.7-0.2,1.5v5.5c0.3,0.1,0.6,0.1,0.8,0.2l0.2-0.1l0.1-0.1h0.1l0.1,0.1c1.3,0.4,2.5,0.9,3.7,1.6l8-6.7L194.7,129.7
				L194.7,129.7z"/>
			<path id="Shape_53_" class="st8" d="M198.1,123.9c-0.2,1.2-0.7,2.4-1.5,3.3l5.4,1.2c0.5,0.1,0.9,0.4,1,0.9c0.2,0.5,0.1,1-0.2,1.4
				l2.2,1.6c0-0.1,0.1-0.2,0.1-0.3c-0.1,0-0.1-0.1-0.1-0.2c0.7-2.1,1.6-4,2.8-5.9L198.1,123.9z"/>
			<path id="Shape_54_" class="st8" d="M213.4,138.6l0.2,0.1c0.5,0.4,0.8,1,0.9,1.6s-0.1,1.3-0.5,1.8l-0.7,0.8l6,1.3l7.4-32.4
				c-0.4,0.4-0.7,0.9-0.9,1.4C225.3,115,220.6,130.3,213.4,138.6L213.4,138.6z"/>
			<path id="Shape_55_" class="st8" d="M231.2,91.8l7-31l0.3-1.4l0.4-1.6l6.7-29.6c-17.9-4-35.7-8-53.6-12.2l-20.8-4.8L123.4,0.8
				c-3.6,19-7.8,37.9-11.8,56.9l-0.3,1.6v0.2l-0.3,1.4l-6.6,30.8l-0.3,1.6l-0.3,1.6l-4.7,22.2l17.4,3.9c0.1-0.3,0.2-0.6,0.4-0.8
				c0.1-0.2,0.3-0.3,0.5-0.4c0,0,0-0.1,0.1-0.1c0-0.1,0.1-0.1,0.2,0c0.9-0.3,1.7,0.5,1.7,0.5c0.2,0.6,0.4,1.2,0.8,1.7l3.4,0.8
				c0-0.5,0.2-0.8,0.7-0.8c0.8,0,1.6,0.6,2.3,1.5l48.6,10.9v-2.6c-0.5-0.8-0.9-1.4-1.2-1.9c-1.2,0.6-2.7,0.5-3.8-0.2s-1.8-2-1.8-3.3
				v-0.4c-2.3-0.5-4.3-1.8-5.7-3.7c-0.3,0.2-0.8,0.3-1.2,0.2l-6.7-1.4c-0.8-0.2-1.3-1-1.1-1.7c0.2-0.8,0.9-1.3,1.7-1.1l5.9,1.3
				c-0.3-1.1-0.5-2.3-0.4-3.5l-43.8-9.2l2.7-11.7l0.4-1.6l0.4-1.6l7-30.8l0.4-1.6l0.4-1.6l8.4-36.9l91,19l-4,17.7l-0.4,1.6l-0.4,1.6
				l-7,30.8l-0.4,1.6l-0.4,1.6l-6.6,29.2c0.4-0.5,0.8-1.1,1.2-1.6c1.1-1.5,2.4-2.9,3.7-4.3l0.7-3c0.1-0.6,0.6-1,1.2-1.1
				c0.6-0.1,1.1,0.2,1.4,0.7l0.1-0.1c1.2-1.2,2.5-2.5,3.3-3.8c0.4-0.5,0.4-1.5,0.5-2.3c0.2-0.8,0.3-1.7,0.4-2.6
				c0.1-0.9,0.4-1.8,0.7-2.6c0.2-0.5,0.4-0.9,0.7-1.3c0.2-0.2,0.4-0.4,0.6-0.5c0.3-0.2,0.7-0.3,1-0.2c0.4,0.1,0.7,0.3,0.9,0.7
				c0.1,0.2,0.2,0.5,0.2,0.8c0.1,0.5,0.1,0.9,0.1,1.4v0.4c1.1-1.8,1.7-3.9,1.9-6c0-0.2,0.2-0.3,0.4-0.3h0.1c0.3-0.6,1.1-0.9,1.8-0.8
				l0.6-2.8l0.4-1.6L231.2,91.8L231.2,91.8z M140,116.4c0.1-0.4,0.3-0.7,0.6-0.9c0.3-0.2,0.7-0.3,1.1-0.2l6.7,1.5
				c0.8,0.2,1.3,1,1.1,1.7c-0.2,0.8-1,1.3-1.8,1.1l-6.7-1.4c-0.4-0.1-0.7-0.3-0.9-0.6C139.9,117.2,139.9,116.8,140,116.4L140,116.4z
				 M126.5,113.5c0.2-0.8,1-1.3,1.8-1.1l6.7,1.5c0.8,0.2,1.3,1,1.1,1.8s-1,1.3-1.8,1.1l-6.7-1.5
				C126.9,115.1,126.4,114.3,126.5,113.5z M122.3,53.1l1.5-6.7c0.2-0.8,1-1.2,1.7-1.1c0.8,0.2,1.3,0.9,1.2,1.7l-1.4,6.7
				c-0.1,0.5-0.5,0.9-1,1.1c-0.5,0.2-1.1,0-1.5-0.3C122.3,54.2,122.2,53.7,122.3,53.1z M111.8,108.3c-0.4-0.1-0.7-0.3-1-0.7
				c-0.2-0.3-0.3-0.7-0.2-1.1l1.4-6.7c0.2-0.8,1-1.3,1.8-1.2c0.8,0.2,1.3,1,1.2,1.8l-1.5,6.7C113.4,107.9,112.6,108.4,111.8,108.3z
				 M121.6,110.9c0.8,0.2,1.3,1,1.1,1.8s-0.9,1.3-1.7,1.2l-6.7-1.4c-0.8-0.2-1.3-1-1.2-1.8c0.2-0.8,1-1.3,1.8-1.1
				C114.9,109.6,121.6,110.9,121.6,110.9z M116.5,93.7c-0.2,0.8-1,1.3-1.8,1.1s-1.3-0.9-1.2-1.7l1.4-6.7c0.1-0.6,0.5-1,1-1.2
				s1.1-0.1,1.5,0.3s0.6,1,0.4,1.5l-1.1,5.1l-0.3,1.2C116.4,93.3,116.5,93.7,116.5,93.7z M120.9,73.7l-1.4,6.7
				c-0.2,0.8-1,1.3-1.8,1.1c-0.8-0.2-1.3-0.9-1.2-1.8L118,73c0.1-0.5,0.5-1,1-1.1c0.5-0.2,1.1,0,1.5,0.3
				C120.8,72.7,121,73.2,120.9,73.7z M123.7,60.4l-0.1,0.5l-1.3,6.2c-0.2,0.8-1,1.3-1.8,1.2s-1.3-1-1.2-1.8l1.5-6.6
				c0.2-0.7,0.8-1.2,1.5-1.2c0.5,0,1,0.3,1.3,0.7C123.8,59.7,123.8,60.1,123.7,60.4z M129.5,33.7l-1.4,6.7c-0.2,0.8-1,1.3-1.8,1.1
				s-1.3-0.9-1.1-1.7l1.5-6.7c0.2-0.8,1-1.3,1.7-1.1C129.2,32.2,129.7,33,129.5,33.7L129.5,33.7z M132.4,20.4l-1.4,6.7
				c-0.2,0.8-0.9,1.2-1.7,1.1c-0.8-0.2-1.3-0.9-1.1-1.7l1.5-6.7c0.2-0.8,0.9-1.2,1.7-1.1C132.1,18.9,132.6,19.6,132.4,20.4z
				 M140.8,15.5c-0.2,0.8-0.9,1.3-1.7,1.1l-6.7-1.4c-0.6,0-1.1-0.4-1.2-0.9c-0.2-0.5-0.1-1.1,0.3-1.5c0.4-0.4,1-0.5,1.5-0.3l6.7,1.5
				c0.4,0.1,0.7,0.3,0.9,0.6C140.8,14.8,140.8,15.1,140.8,15.5z M154.1,18.4c-0.1,0.4-0.3,0.7-0.6,0.9c-0.3,0.2-0.7,0.3-1.1,0.2
				l-6.7-1.4c-0.7-0.2-1.2-0.9-1-1.7c0.2-0.7,0.9-1.2,1.6-1.1l6.7,1.4c0.4,0.1,0.7,0.3,0.9,0.6C154.2,17.6,154.2,18,154.1,18.4
				L154.1,18.4z M167.5,21.3c-0.1,0.4-0.3,0.7-0.6,0.9c-0.3,0.2-0.7,0.3-1.1,0.2l-6.7-1.4c-0.5-0.1-0.9-0.5-1-0.9
				c-0.2-0.5,0-1,0.3-1.4s0.9-0.5,1.3-0.4l6.7,1.5c0.4,0.1,0.7,0.3,0.9,0.6S167.6,20.9,167.5,21.3L167.5,21.3z M225.6,70.1
				c-0.6-0.1-1-0.7-0.8-1.3l1.6-6.6c0.1-0.5,0.6-0.8,1.2-0.7c0.5,0.1,0.9,0.6,0.7,1.1l-1.3,6.7c-0.1,0.3-0.2,0.5-0.5,0.7
				C226.2,70.1,225.9,70.1,225.6,70.1z M230.9,49.1l-1.3,6.7c0,0.4-0.2,0.7-0.5,0.8s-0.7,0.1-1-0.2s-0.3-0.6-0.2-1l1.6-6.6
				c0.1-0.3,0.5-0.6,0.8-0.5C230.7,48.4,230.9,48.8,230.9,49.1L230.9,49.1z M231.2,42.3l0.4-1.9c0.1-0.2,0.3-0.4,0.5-0.3
				c0.2,0.1,0.4,0.3,0.3,0.5l-0.3,1.9c0,0.2-0.2,0.3-0.3,0.4c-0.2,0.1-0.4,0-0.5-0.1C231.2,42.6,231.1,42.4,231.2,42.3L231.2,42.3z
				 M180.9,24.2c-0.1,0.4-0.3,0.7-0.6,0.9c-0.3,0.2-0.7,0.3-1,0.2l-6.7-1.4c-0.8-0.2-1.2-0.9-1.1-1.7s0.9-1.2,1.7-1.1l6.7,1.5
				C180.6,22.7,181.1,23.4,180.9,24.2L180.9,24.2z M194.3,27.1c-0.1,0.4-0.3,0.7-0.6,0.9c-0.3,0.2-0.7,0.3-1,0.2l-6.7-1.4
				c-0.7-0.2-1.2-0.9-1.1-1.6c0.2-0.7,0.9-1.2,1.6-1.1l6.7,1.5C194,25.6,194.5,26.3,194.3,27.1z M207.7,30c-0.1,0.3-0.3,0.6-0.6,0.8
				s-0.7,0.3-1,0.2l-6.7-1.4c-0.5-0.1-0.9-0.4-1.1-0.9s-0.1-1,0.3-1.4c0.3-0.4,0.9-0.5,1.3-0.4l6.7,1.5c0.4,0.1,0.7,0.3,0.9,0.6
				C207.7,29.2,207.8,29.6,207.7,30L207.7,30z M220.9,32.8c-0.1,0.6-0.8,1-1.4,0.9l-6.7-1.4c-0.5-0.1-0.9-0.4-1-0.8
				c-0.2-0.5-0.1-1,0.3-1.3c0.3-0.4,0.8-0.5,1.3-0.4l6.7,1.5c0.3,0.1,0.6,0.3,0.8,0.5C221,32.2,221,32.5,220.9,32.8L220.9,32.8z
				 M226.2,35.1c-0.6-0.1-0.9-0.7-0.8-1.3c0.1-0.6,0.6-0.9,1.2-0.9h0.1l6.7,1.6c0.4,0.2,0.7,0.6,0.6,1s-0.5,0.7-1,0.7L226.2,35.1z
				 M221.7,82.1l1.5-6.7c0.2-0.6,0.8-1,1.4-0.8c0.6,0.1,1,0.7,0.9,1.3l-1.4,6.7c-0.2,0.6-0.8,1.1-1.5,0.9
				C222.1,83.4,221.6,82.8,221.7,82.1z M219.9,102.6l-1.4,6.7c-0.1,0.5-0.5,0.9-0.9,1c-0.5,0.2-1,0-1.4-0.3s-0.5-0.8-0.4-1.3
				l1.5-6.7c0.2-0.7,0.9-1.1,1.6-1S220.1,101.9,219.9,102.6L219.9,102.6z M221.4,96c-0.1,0.5-0.4,0.8-0.9,1c-0.5,0.1-0.9,0-1.3-0.3
				s-0.5-0.8-0.4-1.3l0.1-0.4l0.4-1.6l0.4-1.6l0.7-3.1c0.1-0.4,0.4-0.8,0.9-0.9c0.4-0.1,0.9,0,1.3,0.3c0.3,0.3,0.5,0.8,0.4,1.2
				l-0.6,2.8l-0.3,1.3l-0.3,1.6L221.4,96L221.4,96z"/>
			<path id="Shape_56_" class="st8" d="M304.8,184.3c-1.9-0.7-4-0.5-5.8,0.4c-0.8,0.4-1.6,1-2.2,1.8c-0.7,0.8-1.2,1.8-1.5,2.8
				l-3.8,12.9l-3.9,13.3c2.9,0,5.7,0.1,8.6,0.1c0.2,0,0.3,0.1,0.3,0.3s-0.1,0.3-0.3,0.3c-3,0-5.9,0.1-8.9,0.1h-11.9l-20,0.1
				l0.7,15.6l0.9,21.5l0.2,5.3l0.4,10.8c0.1,1.8,0.1,3.7,0.2,5.3c0.2,1.6,0.8,3.2,1.9,4.5s2.4,2.3,4,2.9s3.3,0.9,5,0.8h21.8
				c3.5,0.2,6.9-1.1,9-3.7c1-1.3,1.7-2.9,1.8-4.5l0.4-5.4l0.8-10.8c1-14.4,2.2-28.7,3.5-43.1h-3l2.6-8.8l3.8-12.9c0.4-1,0.5-2,0.6-3
				c0-1-0.2-2-0.6-2.9C308.3,186.4,306.8,185,304.8,184.3L304.8,184.3z M264,269.8c0,0.1-0.1,0.2-0.2,0.2s-0.2-0.1-0.2-0.2
				c-0.7-2.3-0.8-4.7-0.9-7c-0.2-2.4-0.3-4.7-0.4-7c0-0.6,0-1.3-0.1-1.9c-0.1-1.7-0.1-3.4-0.1-5.1c0-2.3-0.2-4.7,0.4-7.1
				c0-0.1,0.1-0.2,0.2-0.2s0.2,0.1,0.2,0.2c0.7,2.3,0.8,4.7,0.9,7c0.1,1.7,0.2,3.4,0.3,5.2c0,0.6,0.1,1.2,0.1,1.9
				c0.1,2.3,0.2,4.7,0.2,7S264.6,267.4,264,269.8z"/>
			<path id="Shape_57_" class="st8" d="M315,162.8c-0.5-2.6-1.2-5.1-2.2-7.4c-2.8,2.4-5.2,5.2-7.2,8.3c0.9,0.1,1.8,0.4,2.5,0.8
				c1.1,0.6,2,1.6,2.7,2.3l0.1,0.1c0.7,0.7,1.5,1.1,2.5,1.4c0.6,0.2,1.2,0.4,1.8,0.5h0.2C315.4,166.9,315.3,164.8,315,162.8
				L315,162.8z"/>
			<path id="Shape_58_" class="st8" d="M312.9,169.9c-1.3-0.2-2.5-0.9-3.4-1.8c-0.9-0.9-1.5-1.8-2.3-2.3c-0.7-0.5-1.4-0.9-2.2-1.3
				c-0.2,0.3-0.3,0.5-0.5,0.8c-1.2,2-2.2,4.2-2.9,6.4c-0.7,2.2-1,4.6-0.2,6.8c0,0.1,0,0.2-0.1,0.3l1.8,2.8h0.1
				c1.4,0.5,2.9,0.6,4.4,0.3c1.4-0.4,2.7-1.2,3.6-2.3c2-2.1,3.1-5,3.7-7.8c0.1-0.5,0.2-1.1,0.3-1.7
				C314.4,170.1,313.7,170.1,312.9,169.9z"/>
			<path id="Shape_59_" class="st9" d="M174.9,131.7v2.6l2,0.4c1.9-0.3,3.7-0.9,5.4-1.8C179.1,133.3,175.6,132.9,174.9,131.7z"/>
			<path id="Shape_60_" class="st9" d="M174.9,135.1c0,0,0.8-0.1,2-0.3l-2-0.4V135.1z"/>
			<path id="Shape_61_" class="st10" d="M152.7,140c-4.3-0.8-9.3-0.9-10.2-1.7c-4.6-4-11.9-8.2-12.8-9.5c-0.5-0.8-1.1-1.8-1.7-2.9
				c-0.2-0.4-0.5-0.8-0.8-1.2c-0.3-0.4-0.6-0.9-0.9-1.3c-0.7-0.9-1.5-1.5-2.3-1.5c-0.5,0-0.7,0.3-0.7,0.8c0,0.4,0.1,0.8,0.2,1.1
				c0.1,0.4,0.3,0.8,0.4,1.2c0.1,0.3,0.3,0.6,0.4,0.9c0.2,0.2,0.4,0.5,0.5,0.8v0.1c0,0,0,0.1-0.1,0.1h-0.1c-0.6,0-1.2-0.2-1.7-0.7
				c-0.5-0.4-0.9-0.7-1.4-1.1c-0.2-0.2-0.4-0.5-0.7-0.7c-0.2-0.3-0.3-0.4-0.5-0.6s-0.4-0.5-0.5-0.7c-0.2-0.3-0.2-0.6-0.2-0.9
				c0-0.1,0-0.1,0.1-0.1l-0.1-0.1c-0.3-0.5-0.6-1.1-0.8-1.7c0,0-0.8-0.8-1.7-0.5c0.2,0.6,0.3,1.2,0.4,1.8c0,0.1,0,0.2,0.1,0.3
				l0.3,0.9c0.1,0.3,0.3,0.6,0.5,1c0,0.1,0.1,0.2,0.2,0.3c0.3,0.5,0.6,1,1,1.4c0.5,0.5,0.9,1.1,1.2,1.8v0.1c0,0-0.1,0.1-0.1,0
				c-0.9-0.1-1.4-0.7-1.9-1.3c-0.5-0.6-1-1.2-1.4-1.8c-0.1-0.2-0.2-0.4-0.3-0.7c-0.2-0.4-0.3-0.8-0.4-1.2c0-0.1-0.1-0.2-0.1-0.3
				c-0.1-0.3-0.1-0.5-0.1-0.8c0-0.5,0.1-1,0.3-1.4c-0.2,0.1-0.4,0.3-0.5,0.4c-0.2,0.3-0.3,0.5-0.4,0.8s-0.1,0.7-0.2,1v1.1
				c0.3,1.3,0.9,2.5,1.7,3.5c0.8,1.1,1.9,2,3.2,2.7c0.1,0,0.1,0.1,0.1,0.2s-0.1,0.1-0.2,0.1c-0.8,0-1.6-0.3-2.3-0.7
				c-0.2-0.1-0.4-0.3-0.6-0.4c0.4,0.5,0.9,0.8,1.4,1.1c1.1,0.4,2.3,0.9,3.3,1.5c0.6,0.3,1.1,0.6,1.6,1c0.3,0.2,0.5,0.4,0.8,0.6
				c0.2,0.2,0.4,0.5,0.6,0.8c0.7,1,1.5,1.9,2.3,2.8c1.6,1.9,3.1,3.7,4.7,5.5c0.8,0.9,1.7,1.8,2.6,2.6c0.9,0.8,1.8,1.5,2.7,2.4
				c0.1,0.1,0.1,0.3,0,0.4c3.4,2.9,7.4,4.9,11.7,6c-0.2-0.5-0.3-1.1-0.1-1.6L152.7,140L152.7,140z"/>
			<path id="Shape_62_" class="st10" d="M231.5,99.8c-0.2-0.5-0.5-0.9-0.8-1.3c-0.2-0.2-0.3-0.3-0.5-0.4c-0.1-0.1-0.3-0.1-0.4-0.2
				c-0.7-0.2-1.4,0.1-1.8,0.8c0.1,0,0.2,0.1,0.2,0.2c0.3,1.6-0.1,3.1-0.7,4.6c-0.6,1.4-1.3,2.8-2.2,4c-0.1,0.2-0.4,0.3-0.6,0.2
				c-0.2-0.1-0.4-0.3-0.3-0.6c0.1-0.8,0.2-1.7,0.2-2.5c0-0.4,0-0.8-0.1-1.2c0-0.2-0.1-0.4-0.2-0.6c-0.2,0.1-0.4,0.2-0.6,0.4
				c-0.2,0.3-0.4,0.6-0.5,1c-0.3,0.8-0.5,1.6-0.6,2.4c-0.2,0.8-0.3,1.7-0.4,2.5l-0.2,1.3c-0.1,0.5-0.2,1-0.5,1.4
				c-1,1.6-2.3,2.7-3.5,4l-0.9,0.9c-1.3,1.3-2.5,2.6-3.7,3.9c-0.8,0.9-1.6,1.8-2.4,2.8c-2.2,2.7-4,5.6-5.5,8.6
				c0,0.1-0.1,0.1-0.2,0.1c0,0.1-0.1,0.2-0.1,0.3l8.4,6.4c7.2-8.3,11.9-23.6,12.3-25.4c0.2-0.5,0.5-1,0.9-1.4s0.9-0.8,1.3-1.1
				c0.4-0.3,0.9-0.6,1.3-0.9c1.4-1,2.8-2.2,3-3.8C232.5,103.9,232.3,101.8,231.5,99.8z"/>
			<path id="Shape_63_" class="st10" d="M187.8,137.2c0.2-0.1,0.4-0.2,0.5-0.3v-6.2c-0.2,1.2-3,2.1-6,2.4c-1.7,0.8-3.5,1.4-5.4,1.8
				c-1.2,0.2-2,0.3-2,0.3v1.8c0.1,0.1,0.2,0.2,0.3,0.2c0.6,0.4,1.3,0.8,1.9,1c1.4,0.6,2.8,0.9,4.3,0.9c1,0,2.1-0.1,3.1-0.4
				c0.4-0.1,0.8-0.2,1.2-0.4l0.6-0.3C186.8,137.7,187.3,137.5,187.8,137.2L187.8,137.2z"/>
			<path id="Shape_64_" class="st10" d="M200.9,240.7h-13c0.8,2.8,1.8,5.5,3,8.2c0.5,1.1,0.9,2.2,1.1,3.4l0.3,1.5
				c2.5,11.7,5.2,13.9,6.9,20.6c0,0,3.6,2.7,6.1,2.5c1.1-0.1,2.5-0.7,2.5-1.3c0-0.2,0.1-0.4,0.3-0.5l-4.5-21.3L200.9,240.7
				L200.9,240.7z"/>
			<path id="Shape_65_" class="st10" d="M180.6,240.7h-13.8c0.3,3.7,0.7,8.3,1.1,13.1c0.6,8.2,1.1,16.8,1,22.2
				c0.1,0.1,0.2,0.2,0.2,0.3c0,0.6,1.4,1.2,2.5,1.3c2.5,0.2,5.6-2.2,5.6-2.2c0.7-6.8,3.8-12.6,2.7-19.8c-0.1-0.7-0.2-1.3-0.3-1.9
				c-0.3-2.2-0.2-4.5,0.3-6.7C180.1,245,180.4,242.9,180.6,240.7L180.6,240.7z"/>
			<path id="Shape_66_" class="st5" d="M207,232.2c0,0.1-0.1,0.1-0.2,0.1s-0.2-0.1-0.2-0.2c0.2-4.9,0.5-9.8,0.8-14.7
				c0.2-4.9,0.2-9.8-0.2-14.7c0-0.5-0.1-1-0.1-1.5c-1.5-12.5-4.8-20.7-8.9-26.2h0.3c0-0.2,0.1-0.3,0.3-0.3c1.4-3.2,2.7-6.4,3.2-9.8
				c0.3-1.7,0.5-3.5,0.5-5.3V157c0-0.8-0.2-1.8-0.1-2.7c0-0.2,0.2-0.3,0.4-0.3c0-0.4-0.1-0.8-0.1-1.1c-1.7,1.2-4.7-2.4-7-6.2
				c-1.1-1.9-1.8-3.9-2.2-6c-0.1-0.4-0.1-0.7-0.1-1.1v-1.7c-1.1-0.7-2.4-1.3-3.7-1.6c0,0.1-0.1,0.2-0.1,0.3c-0.2,0.4-0.4,0.7-0.8,1
				c-0.2,0.2-0.4,0.3-0.6,0.5l-0.1,0.1c-0.1,0.1-0.3,0.2-0.4,0.3l-0.6,0.4l-0.8,0.4l-0.3,0.1c-1.5,0.6-3.1,0.9-4.7,0.9
				s-3.2-0.3-4.7-1c-0.6-0.3-1.3-0.6-1.8-1l-0.3-0.2c-0.7-0.4-1.2-1-1.7-1.6v-0.2c-2.8,1-5.4,3.1-7.6,5.8c-3.6,4.5-5.9,10.6-5.9,15
				c0,4.8,2.1,15.9,3.8,23.8c-6.8,16.1-6.4,41.8-4.1,58.8h47.8c0.5-5.1,0.8-9.8,0.9-14.2C207.7,227.5,207.4,229.9,207,232.2
				L207,232.2z"/>
			<path id="Shape_67_" class="st11" d="M228.2,98.8c0-0.1-0.1-0.2-0.2-0.2h-0.1c-0.2,0-0.4,0.1-0.4,0.3c-0.1,2.1-0.8,4.2-1.9,6
				v-0.4c0-0.5,0-0.9-0.1-1.4c0-0.3-0.1-0.5-0.2-0.8c-0.2-0.4-0.5-0.6-0.9-0.7c-0.3-0.1-0.7,0-1,0.2c-0.2,0.1-0.5,0.3-0.6,0.5
				c-0.3,0.4-0.6,0.8-0.7,1.3c-0.3,0.8-0.6,1.7-0.7,2.6c-0.2,0.9-0.3,1.7-0.4,2.6c-0.1,0.8-0.2,1.8-0.5,2.3
				c-0.9,1.3-2.2,2.5-3.3,3.8l-0.1,0.1c-1.1,1.1-2.2,2.2-3.2,3.3c-1.3,1.4-2.5,2.8-3.7,4.3c-0.4,0.5-0.8,1.1-1.2,1.6
				s-0.7,1.1-1.1,1.7c-1.2,1.8-2.1,3.8-2.7,5.9c0,0.1,0,0.2,0.1,0.2s0.2,0,0.2-0.1c1.5-3.1,3.4-6,5.5-8.6c0.8-1,1.6-1.9,2.4-2.8
				c1.2-1.3,2.4-2.6,3.7-3.9l0.9-0.9c1.2-1.3,2.5-2.4,3.5-4c0.3-0.4,0.4-0.9,0.5-1.4l0.2-1.3c0.1-0.9,0.2-1.7,0.4-2.5
				c0.1-0.8,0.3-1.6,0.6-2.4c0.1-0.3,0.3-0.7,0.5-1c0.1-0.2,0.4-0.3,0.6-0.4c0.1,0.2,0.2,0.4,0.2,0.6c0.1,0.4,0.1,0.8,0.1,1.2
				c0,0.8-0.1,1.7-0.2,2.5c0,0.2,0.1,0.5,0.3,0.6s0.5,0,0.6-0.2c0.9-1.2,1.6-2.6,2.2-4C228.1,101.9,228.5,100.4,228.2,98.8
				L228.2,98.8z"/>
			<path id="Shape_68_" class="st11" d="M162.4,122.2c1.4,1.9,3.4,3.2,5.7,3.7v0.4c0,1.3,0.7,2.6,1.8,3.3s2.6,0.8,3.8,0.2
				c0.3,0.5,0.7,1.1,1.2,1.9c0.7,1.2,4.2,1.6,7.4,1.3c3-0.3,5.9-1.1,6-2.4c0.1-0.8,0.1-1.2,0.2-1.5l0.7-0.8c0,0,1.1,2,4.5,0.6
				c0.5-0.2,0.9-0.4,1.3-0.6c0.6-0.3,1.1-0.7,1.5-1.2c0.8-0.9,1.3-2.1,1.5-3.3c0.2-1.4,0.2-2.8-0.1-4.2c0,0,2.9-1.9,2.1-6.9
				c-0.7-4.2-5.4-5.7-5.4-5.7s0.7-3.2-3.4-6.7c-1.9-1.6-4.4-2.2-6.9-1.8c-1.3,0.2-2.6,0.6-3.8,1.3c0,0-3.4-2.7-9.7-0.8
				c-0.9,0.3-1.8,0.7-2.6,1.2c-4.8,3.1-3.1,8.8-3.1,8.8c-2.7,1.3-4.5,3.9-4.6,6.9C160.5,118.2,161.1,120.4,162.4,122.2L162.4,122.2z
				"/>
			<path id="Shape_69_" class="st11" d="M189.7,136l-0.2,0.1l-0.2,0.1c-0.2,0.1-0.3,0.2-0.5,0.3l-0.4,0.2c-0.1,0.1-0.4,0.2-0.5,0.3
				h-0.1c-0.4,0.3-0.9,0.5-1.4,0.7l-0.6,0.3c-0.4,0.2-0.8,0.3-1.2,0.4c-1,0.3-2,0.4-3.1,0.4c-1.5,0-2.9-0.3-4.3-0.9
				c-0.7-0.3-1.3-0.6-1.9-1c-0.1-0.1-0.2-0.2-0.3-0.2c-0.3-0.2-0.5-0.4-0.8-0.6c-0.1-0.1-0.2-0.2-0.3-0.2c-0.1-0.1-0.3-0.2-0.4-0.2
				c-0.1-0.1-0.2-0.1-0.3,0c-0.2,0.1-0.2,0.3-0.1,0.5v0.1c0.4,0.6,1,1.2,1.7,1.6l0.3,0.2c0.6,0.4,1.2,0.7,1.8,1c1.5,0.7,3.1,1,4.7,1
				s3.2-0.3,4.7-0.9l0.3-0.1l0.8-0.4l0.6-0.4c0.1-0.1,0.3-0.2,0.4-0.3l0.1-0.1c0.2-0.2,0.4-0.3,0.6-0.5c0.3-0.3,0.6-0.6,0.8-1
				c0-0.1,0.1-0.2,0.1-0.3C189.6,135.9,189.8,136,189.7,136L189.7,136z"/>
			<path id="Shape_70_" class="st11" d="M202.1,164.9c-0.5,3.4-1.9,6.6-3.2,9.8c-0.2,0-0.3,0.2-0.3,0.3v0.2c1.3,2.1,2.7,4,3.7,6.2
				c0.6,1.1,1,2.2,1.5,3.3c0.4,1.1,0.8,2.3,1.1,3.5c1.1,4.2,1.9,8.6,2.2,13c0,0.5,0.1,1,0.1,1.5c0.3,4.9,0.4,9.8,0.2,14.7
				s-0.6,9.8-0.8,14.7c0,0.1,0.1,0.2,0.2,0.2s0.2,0,0.2-0.1c0.4-2.3,0.7-4.6,0.9-6.9c0.3-2.6,0.5-5.2,0.6-7.8
				c0.2-4.9,0.2-9.9-0.1-14.8c-0.3-5-1.1-9.9-2.4-14.7c-0.4-1.2-0.8-2.4-1.2-3.5c-0.5-1.1-0.9-2.3-1.5-3.4c-1-2.2-2.4-4.3-4-6.1
				c1.1-1.3,1.9-2.9,2.5-4.5c0.6-1.7,1.1-3.5,1.5-5.3c0.3-1.8,0.5-3.6,0.5-5.4c0-0.9-0.1-1.8-0.1-2.7s-0.2-1.8-0.4-2.7
				c0-0.1-0.1-0.2-0.3-0.2s-0.3,0.1-0.4,0.3c-0.2,0.9,0.1,1.8,0.1,2.7s0.1,1.8,0,2.6C202.6,161.4,202.4,163.1,202.1,164.9
				L202.1,164.9z"/>
			<path id="Shape_71_" class="st11" d="M138.1,146.9c-0.8-0.9-1.8-1.6-2.7-2.4l-2.6-2.6c-1.7-1.8-3.2-3.6-4.7-5.5
				c-0.8-0.9-1.5-1.9-2.3-2.8c-0.2-0.3-0.4-0.5-0.6-0.8c-0.2-0.2-0.5-0.4-0.8-0.6c-0.5-0.4-1.1-0.7-1.6-1c-1.1-0.6-2.2-1.1-3.3-1.5
				c-0.5-0.2-1-0.6-1.4-1.1c0.2,0.2,0.4,0.3,0.6,0.4c0.7,0.5,1.4,0.7,2.3,0.7c0.1,0,0.1,0,0.2-0.1c0-0.1,0-0.2-0.1-0.2
				c-1.3-0.6-2.4-1.5-3.2-2.7c-0.8-1.1-1.3-2.2-1.7-3.5c0-0.1,0-0.2-0.1-0.3c0-0.2-0.2-0.3-0.4-0.3s-0.3,0.2-0.3,0.4
				c0.1,1.6,0.6,3.1,1.6,4.3c0.1,0.1,0.1,0.2,0.2,0.3c0,0.5,0.1,1.1,0.4,1.5c0.4,0.6,0.9,1,1.5,1.3c1.1,0.6,2.2,1.1,3.3,1.6l1.5,0.9
				c0.2,0.2,0.4,0.3,0.6,0.5c0.1,0.1,0.3,0.4,0.5,0.7c0.7,1,1.5,1.9,2.2,2.9c1.5,1.9,3.1,3.7,4.8,5.5c0.9,0.9,1.7,1.8,2.7,2.6
				c0.9,0.9,1.9,1.6,3,2.2c0.1,0.1,0.3,0,0.4-0.1C138.3,147.2,138.3,147,138.1,146.9L138.1,146.9z"/>
			<path id="Shape_72_" class="st11" d="M117,122.4c0.1,0.4,0.2,0.8,0.4,1.2c0.1,0.2,0.2,0.5,0.3,0.7c0.4,0.6,0.9,1.3,1.4,1.8
				s1,1.1,1.9,1.3h0.1v-0.1c-0.3-0.7-0.7-1.3-1.2-1.8c-0.4-0.5-0.7-0.9-1-1.4c-0.1-0.1-0.1-0.2-0.2-0.3c-0.2-0.3-0.4-0.6-0.5-1
				l-0.3-0.9c0-0.1,0-0.2-0.1-0.3c-0.1-0.6-0.2-1.2-0.4-1.8h-0.2l-0.1,0.1c-0.3,0.4-0.4,0.9-0.3,1.4c0,0.3,0,0.5,0.1,0.8
				C117,122.1,117,122.2,117,122.4z"/>
			<path id="Shape_73_" class="st11" d="M120.7,123.8c0.2,0.2,0.3,0.4,0.5,0.6s0.4,0.5,0.7,0.7c0.4,0.4,0.9,0.8,1.4,1.1
				c0.5,0.4,1.1,0.7,1.7,0.7h0.1l0.1-0.1v-0.1c-0.1-0.3-0.3-0.5-0.5-0.8c-0.2-0.2-0.4-0.3-0.6-0.5s-0.4-0.4-0.6-0.5l-0.6-0.6
				c-0.3-0.3-0.6-0.5-0.8-0.8l-0.4-0.4c-0.3-0.5-0.8-0.8-1.4-1.1h-0.2l-0.1,0.1c0,0.3,0.1,0.6,0.2,0.9S120.5,123.6,120.7,123.8z"/>
			<path id="Shape_74_" class="st11" d="M209.7,240c-3-0.2-6-0.3-9-0.3h-37c-2.2,0-4.4-0.1-6.6,0.2c-0.2,0-0.3,0.2-0.3,0.3
				s0.1,0.3,0.3,0.3c2.2,0.2,4.4,0.2,6.6,0.2h37.1c2.9,0,5.8-0.1,8.7-0.3c0.1,0,0.1-0.1,0.1-0.2C209.8,240,209.8,240,209.7,240z"/>
			<path id="Shape_75_" class="st11" d="M175.3,284.2c0,0.4,0,0.7-0.1,1.1c0,0.2,0.1,0.3,0.3,0.3s0.3-0.1,0.3-0.2
				c0.1-0.4,0.2-0.8,0.3-1.1c0.2-0.8,0.3-1.5,0.4-2.3c0-0.2,0.1-0.5,0.1-0.7c-0.3,0.3-0.7,0.6-1,0.8
				C175.4,282.7,175.4,283.4,175.3,284.2L175.3,284.2z"/>
			<path id="Shape_76_" class="st11" d="M200.8,281.2c-0.4-0.3-0.7-0.5-1-0.9c0,0.2,0.1,0.5,0.1,0.8c0.1,1,0.3,2.1,0.6,3.1
				c0,0.1,0,0.2,0.1,0.3c0,0.2,0.2,0.3,0.3,0.2c0.2,0,0.3-0.2,0.3-0.3v-0.2C201,283.2,200.9,282.2,200.8,281.2L200.8,281.2z"/>
			<path id="Shape_77_" class="st12" d="M165.3,141.9c-0.2-0.1-0.3-0.2-0.5-0.3l-11.9-2.5l-0.2,0.9l-3,11.7
				c-0.2,0.6-0.1,1.3,0.2,1.8s0.8,1,1.5,1.1c2.3,0.6,5.1,1.5,8.1,2.2C159.5,152.5,161.7,146.4,165.3,141.9L165.3,141.9z"/>
			<path id="Shape_78_" class="st12" d="M202.7,152.9c3.2-2.4,6.2-5.2,9-8.2c0.3-0.3,0.5-0.6,0.8-0.9c0.3-0.3,0.5-0.6,0.8-0.9
				l0.7-0.8c0.4-0.5,0.6-1.1,0.5-1.8c-0.1-0.6-0.4-1.2-0.9-1.6l-0.2-0.1l-8.4-6.4l-2.2-1.7l-0.4-0.3l-1,0.8l-8,6.7v1.7
				c0,0.4,0.1,0.7,0.1,1.1c0.4,2.1,1.1,4.1,2.2,6C198,150.4,201,154.1,202.7,152.9L202.7,152.9z"/>
			<path id="Shape_79_" class="st12" d="M171.4,277.7c-1.1-0.1-2.5-0.7-2.5-1.3c0-0.1-0.1-0.3-0.2-0.3c-0.2-0.2-0.5-0.2-0.7,0
				c-4.3,4.2-7.9,6.6-9.6,8.2c-0.9,0.8-1.3,1.4-1,1.9c1.3,1.7,8.1-0.1,13.1-1.9c1.7-0.6,3.4-1.3,4.9-2.1h0.1c0.4-0.2,0.7-0.5,1-0.8
				c1.2-1.3,1.4-3,0.4-5.7C177,275.5,173.9,277.9,171.4,277.7L171.4,277.7z"/>
			<path id="Shape_80_" class="st12" d="M219.1,284.2c-1.1-1.5-5.2-4-10.4-9c-0.1-0.2-0.4-0.2-0.6-0.1s-0.3,0.3-0.3,0.5
				c0,0.6-1.4,1.2-2.5,1.3c-2.5,0.3-6-2.5-6-2.5c-1,2.7-0.7,4.6,0.5,5.9c0.3,0.3,0.7,0.6,1,0.9h0.1c0.9,0.6,4.1,1.9,7.6,3
				c4.6,1.4,9.7,2.5,10.8,1.1C219.5,285,219.4,284.6,219.1,284.2L219.1,284.2z"/>
			<path id="Shape_81_" class="st1" d="M92.1,246.9c0.7,0.5,1.4,0.8,2.2,1c0.8,0.1,1.7,0.1,2.5,0.1c0.9,0,1.8-0.3,2.5-0.7
				c0.5-0.3,0.7-0.9,0.5-1.4c0-0.2-0.2-0.4-0.3-0.6c-0.2-0.2-0.4-0.3-0.6-0.4c-0.8-0.7-1.8-1.1-2.9-1.3c-1.1-0.1-2.1,0.1-3.1,0.5
				c-0.8,0.4-1.6,0.9-2.2,1.6C91.1,246.1,91.5,246.6,92.1,246.9L92.1,246.9z"/>
			<path id="Shape_82_" class="st1" d="M88,232.3c-0.8-0.5-1.7-0.8-2.7-0.9h-1.4c-0.3,0-0.6,0.2-0.8,0.5c-0.2,0.3-0.3,0.6-0.2,0.9
				c0.1,0.4,0.3,0.9,0.6,1.3c0.5,0.8,1.2,1.5,2,2c1.4,0.8,3.1,1.1,4.8,1c0.3-0.9,0.6-1.8,1-2.6c-0.2,0.5-0.4,0.9-0.5,1.4
				C90.1,234.4,89.3,233,88,232.3L88,232.3z"/>
			<path id="Shape_83_" class="st1" d="M84.6,242.1c-0.9-0.2-1.9-0.2-2.8,0.1c-0.5,0.1-0.9,0.3-1.3,0.5c-0.3,0.1-0.5,0.4-0.6,0.7
				s0,0.6,0.1,0.9c0.3,0.4,0.6,0.7,1,1c0.7,0.6,1.6,1,2.5,1.2c1.8,0.4,3.7-0.1,5.4-0.9l0.2-0.2C87.8,243.9,86.4,242.4,84.6,242.1z"
				/>
			<path id="Shape_84_" class="st1" d="M95.3,228c-0.4-1.7-0.9-3.4-2.1-4.4c-0.7-0.6-1.6-1.1-2.5-1.3c-0.4-0.1-0.9-0.2-1.3-0.2
				c-0.3,0-0.7,0.2-0.9,0.4c-0.5,0.5-0.5,1.2-0.1,2.1c0.4,0.9,0.9,1.6,1.7,2.2c1.3,1.1,3,1.5,4.7,1.7c-0.2,0.2-0.4,0.5-0.6,0.7h0.1
				C94.6,228.9,95,228.5,95.3,228z"/>
			<path id="Shape_85_" class="st1" d="M104.8,231.1c-0.6-0.9-1.4-1.7-2.4-2.1c-1-0.4-2.1-0.6-3.1-0.4c-0.9,0.1-1.8,0.4-2.6,0.8
				c0.2,0.6,0.5,1.2,0.9,1.7s0.8,1,1.4,1.3c0.1,0.1,0.3,0.2,0.4,0.3c0.7,0.4,1.5,0.7,2.3,0.9c0.8,0.3,1.8,0.3,2.6,0.1
				c0.3-0.1,0.6-0.3,0.8-0.6c0.1-0.2,0.2-0.4,0.2-0.6v-0.1c0-0.2,0-0.4-0.1-0.6C105,231.5,104.9,231.3,104.8,231.1L104.8,231.1z"/>
			<path id="Shape_86_" class="st1" d="M93.6,238.9c0.6,0.5,1.4,0.9,2.1,1.1c0.8,0.2,1.6,0.3,2.5,0.3c0.9,0.1,1.8-0.1,2.6-0.5
				c0.5-0.3,0.7-0.8,0.7-1.3c0-0.2-0.1-0.5-0.3-0.6l-0.5-0.5c-0.8-0.8-1.7-1.3-2.8-1.5c-1.1-0.2-2.2-0.1-3.2,0.3
				c-0.8,0.3-1.6,0.8-2.3,1.4C92.7,238.1,93.1,238.5,93.6,238.9L93.6,238.9z"/>
			<path id="Shape_87_" class="st1" d="M86.9,253.6c-3,0.1-6,0.1-9,0.2l0.4,0.8l3,5.7l0.1,0.3l-0.2,0.3c-1.2,2.4-2.2,4.9-2.8,7.5
				c-0.6,2.6-1,5.3-0.7,7.8s1.4,5,3.4,6.6c1.9,1.6,4.5,2.2,7,2.3c2.6,0,5.1-0.7,7.1-2.3c1.9-1.6,3.1-4.1,3.4-6.6s0-5.3-0.7-7.8
				c-0.6-2.6-1.6-5.1-2.8-7.5l-0.2-0.3l0.2-0.3l2.9-5.7l0.3-0.7C94.6,253.9,90.7,253.9,86.9,253.6L86.9,253.6z"/>
			<path id="Shape_88_" class="st13" d="M247.1,26.3c-18.2-4.1-36.4-8.2-54.7-12.1L165,8.3l-27.4-5.8c-0.2,0-0.3,0.1-0.3,0.3
				s0,0.3,0.2,0.4l27.2,6.5l6.5,1.5L192,16c17.8,4.1,35.7,8.2,53.6,12.2l-6.7,29.6l-0.4,1.6l-0.3,1.4l-7,31l-0.4,1.6l-0.4,1.6
				l-0.6,2.8c0.1,0,0.3,0.1,0.4,0.2c0.2,0.1,0.4,0.3,0.5,0.4c0.3,0.4,0.6,0.8,0.8,1.3l1.1-4.8l0.4-1.6l0.4-1.6l7-30.8l0.4-1.6
				l0.4-1.6l6.9-30.2C248,26.9,247.7,26.4,247.1,26.3L247.1,26.3z"/>
			<path id="Shape_89_" class="st13" d="M123.4,122.7l-3.4-0.8l0.1,0.1h0.2c0.5,0.2,1,0.6,1.4,1.1l0.4,0.4l0.8,0.8l0.6,0.6l0.8,0.2
				c-0.2-0.4-0.3-0.8-0.4-1.2C123.5,123.5,123.4,123.1,123.4,122.7z"/>
			<path id="Shape_90_" class="st13" d="M116.3,121.1l-17.4-3.9l4.7-22.2l0.3-1.6l0.3-1.6l6.6-30.8l0.3-1.4v-0.2l0.3-1.6
				c4-18.9,8.2-37.8,11.8-56.9c0.1-0.4-0.2-0.7-0.5-0.8c-0.4-0.1-0.7,0.2-0.8,0.5c-4.5,19-8.5,38.1-12.6,57.2l-0.3,1.4v0.2l-0.3,1.6
				l-6.6,30.8l-0.3,1.6l-0.3,1.5l-4.9,22.9c-0.1,0.6,0.2,1.1,0.8,1.2l18,4c0-0.2,0.1-0.3,0.3-0.4c0.2,0,0.4,0.1,0.4,0.3
				c0,0.1,0,0.2,0.1,0.3v-1.1C116.1,121.8,116.2,121.5,116.3,121.1z"/>
			<path id="Shape_91_" class="st13" d="M174.9,134.3l-48.6-10.9c0.3,0.4,0.6,0.8,0.9,1.3c0.3,0.4,0.5,0.8,0.8,1.2l44.9,10.1
				c0-0.1,0.1-0.1,0.2-0.2s0.2-0.1,0.3,0s0.3,0.1,0.4,0.2c0.1,0.1,0.2,0.2,0.3,0.2c0.3,0.2,0.5,0.4,0.8,0.6V134.3z"/>
			<path id="Shape_92_" class="st13" d="M226.6,111.8l-7.4,32.4l-6-1.3c-0.3,0.3-0.5,0.6-0.8,0.9s-0.5,0.6-0.8,0.9l8.1,1.8
				c0.3,0.1,0.6,0,0.8-0.1s0.4-0.4,0.5-0.7l8.2-35.9c-0.4,0.3-0.9,0.6-1.3,0.9C227.5,111,227,111.4,226.6,111.8z"/>
			<path id="Shape_93_" class="st13" d="M234,35.7c0.1-0.5-0.2-1-0.7-1.1l-6.7-1.6h-0.1c-0.6-0.1-1.1,0.3-1.2,0.9
				c-0.1,0.6,0.2,1.1,0.8,1.3l6.7,1.3C233.5,36.4,233.9,36.1,234,35.7z"/>
			<path id="Shape_94_" class="st13" d="M220,31.4l-6.7-1.5c-0.5-0.1-1,0-1.3,0.4s-0.4,0.9-0.3,1.3c0.2,0.5,0.6,0.8,1,0.8l6.7,1.4
				c0.7,0.1,1.3-0.3,1.4-0.9S220.7,31.5,220,31.4L220,31.4z"/>
			<path id="Shape_95_" class="st13" d="M206.7,28.4l-6.7-1.5c-0.5-0.1-1,0-1.3,0.4s-0.5,0.9-0.3,1.4s0.6,0.8,1.1,0.9l6.7,1.4
				c0.5,0.1,1-0.1,1.3-0.4c0.3-0.4,0.4-0.8,0.3-1.3C207.5,28.8,207.1,28.5,206.7,28.4z"/>
			<path id="Shape_96_" class="st13" d="M194.3,27.1c0.1-0.4,0-0.7-0.2-1s-0.5-0.5-0.9-0.6l-6.7-1.5c-0.7-0.1-1.4,0.4-1.6,1.1
				c-0.1,0.7,0.3,1.4,1,1.6l6.7,1.4C193.4,28.3,194.2,27.8,194.3,27.1z"/>
			<path id="Shape_97_" class="st13" d="M179.9,22.5l-6.7-1.5c-0.8-0.2-1.5,0.3-1.7,1.1c-0.2,0.8,0.3,1.5,1.1,1.7l6.7,1.4
				c0.7,0.1,1.4-0.4,1.6-1.1C181,23.4,180.6,22.7,179.9,22.5L179.9,22.5z"/>
			<path id="Shape_98_" class="st13" d="M165.9,22.4c0.7,0.1,1.5-0.3,1.6-1.1c0.2-0.7-0.3-1.5-1-1.7l-6.7-1.5
				c-0.8-0.2-1.5,0.3-1.7,1.1c-0.2,0.8,0.3,1.5,1.1,1.7L165.9,22.4L165.9,22.4z"/>
			<path id="Shape_99_" class="st13" d="M153.1,16.7l-6.7-1.5c-0.8-0.1-1.5,0.4-1.6,1.1c-0.2,0.7,0.3,1.5,1.1,1.7l6.7,1.4
				c0.8,0.2,1.5-0.3,1.7-1.1C154.3,17.6,153.8,16.9,153.1,16.7z"/>
			<path id="Shape_100_" class="st13" d="M132.4,15.2l6.7,1.4c0.5,0.1,1-0.1,1.4-0.4c0.3-0.4,0.5-0.9,0.3-1.4s-0.6-0.8-1.1-1
				l-6.7-1.4c-0.5-0.1-1,0-1.4,0.4s-0.5,0.9-0.3,1.4S131.8,15.1,132.4,15.2z"/>
			<path id="Shape_101_" class="st13" d="M129.2,28.2c0.8,0.2,1.6-0.3,1.7-1.1l1.4-6.7c0.2-0.8-0.3-1.5-1.1-1.7s-1.5,0.3-1.7,1.1
				l-1.5,6.7c-0.1,0.4,0,0.8,0.2,1.1C128.5,27.9,128.9,28.1,129.2,28.2L129.2,28.2z"/>
			<path id="Shape_102_" class="st13" d="M126.3,41.6c0.4,0.1,0.8,0,1.1-0.2c0.3-0.2,0.6-0.5,0.6-0.9l1.4-6.7
				c0.2-0.8-0.3-1.5-1.1-1.7s-1.6,0.3-1.7,1.1l-1.5,6.7C125,40.6,125.5,41.4,126.3,41.6L126.3,41.6z"/>
			<path id="Shape_103_" class="st13" d="M125.5,45.3c-0.8-0.2-1.6,0.3-1.8,1.1l-1.5,6.7c-0.1,0.5,0.1,1.1,0.5,1.4
				c0.4,0.4,1,0.5,1.5,0.3s0.9-0.6,1-1.1l1.4-6.7C126.8,46.3,126.3,45.5,125.5,45.3z"/>
			<path id="Shape_104_" class="st13" d="M123.7,60.4c0.2-0.8-0.3-1.6-1.1-1.8c-0.6-0.1-1.3,0.1-1.6,0.7c-0.1,0.1-0.2,0.3-0.2,0.5
				l-1.5,6.7c-0.2,0.8,0.3,1.6,1.2,1.8s1.6-0.3,1.8-1.2l1.3-6.2C123.6,60.9,123.7,60.4,123.7,60.4z"/>
			<path id="Shape_105_" class="st13" d="M117.6,81.6c0.8,0.2,1.6-0.3,1.8-1.2l1.4-6.7c0.2-0.8-0.3-1.6-1.2-1.8
				c-0.8-0.2-1.6,0.3-1.8,1.2l-1.5,6.7C116.2,80.6,116.8,81.4,117.6,81.6z"/>
			<path id="Shape_106_" class="st13" d="M115,86.5l-1.4,6.7c-0.1,0.8,0.4,1.6,1.2,1.7s1.6-0.3,1.8-1.1l0.1-0.4l0.3-1.2l1.1-5.1
				c0.1-0.5,0-1.1-0.4-1.5s-1-0.5-1.5-0.3C115.5,85.5,115.1,85.9,115,86.5z"/>
			<path id="Shape_107_" class="st13" d="M112.1,99.8l-1.4,6.7c-0.2,0.8,0.3,1.6,1.2,1.8s1.6-0.3,1.8-1.2l1.5-6.7
				c0.2-0.8-0.3-1.6-1.2-1.8C113.1,98.5,112.2,99,112.1,99.8z"/>
			<path id="Shape_108_" class="st13" d="M114.3,112.4l6.7,1.4c0.8,0.1,1.6-0.4,1.7-1.2c0.2-0.8-0.3-1.6-1.1-1.8l-6.7-1.5
				c-0.8-0.2-1.6,0.3-1.8,1.1C113,111.4,113.5,112.2,114.3,112.4z"/>
			<path id="Shape_109_" class="st13" d="M128.3,112.4c-0.5-0.1-1.1,0.1-1.4,0.5s-0.5,0.9-0.3,1.5c0.2,0.5,0.6,0.9,1.1,1l6.7,1.4
				c0.8,0.2,1.6-0.3,1.8-1.1c0.2-0.8-0.3-1.6-1.1-1.8L128.3,112.4L128.3,112.4z"/>
			<path id="Shape_110_" class="st13" d="M141.7,115.3c-0.5-0.1-1.1,0-1.5,0.4s-0.5,1-0.3,1.5s0.6,0.9,1.2,1l6.7,1.5
				c0.8,0.2,1.6-0.3,1.8-1.1s-0.3-1.6-1.1-1.7L141.7,115.3L141.7,115.3z"/>
			<path id="Shape_111_" class="st13" d="M155.1,118.2c-0.8-0.2-1.6,0.3-1.7,1.1c-0.2,0.8,0.3,1.6,1.1,1.7l6.7,1.4
				c0.4,0.1,0.8,0,1.2-0.2c-0.6-0.8-1.1-1.8-1.4-2.8L155.1,118.2L155.1,118.2z"/>
			<path id="Shape_112_" class="st13" d="M202,128.3l-5.4-1.2c-0.4,0.5-0.9,0.9-1.5,1.2c-0.4,0.2-0.9,0.5-1.3,0.6
				c0.2,0.3,0.5,0.6,0.9,0.7l6.7,1.4l1-0.8l0.4,0.3c0.3-0.4,0.4-0.9,0.2-1.4C202.9,128.8,202.5,128.4,202,128.3L202,128.3z"/>
			<path id="Shape_113_" class="st13" d="M216,114.3c-0.4-0.1-0.7,0-1,0.2s-0.5,0.5-0.6,0.9l-0.7,3c1.1-1.1,2.1-2.3,3.2-3.3
				C216.7,114.7,216.4,114.4,216,114.3z"/>
			<path id="Shape_114_" class="st13" d="M218.5,109.3l1.4-6.7c0.1-0.7-0.3-1.4-1.1-1.6s-1.4,0.3-1.6,1l-1.5,6.7
				c-0.2,0.7,0.3,1.5,1.1,1.6C217.6,110.5,218.3,110,218.5,109.3L218.5,109.3z"/>
			<path id="Shape_115_" class="st13" d="M220.2,88.7l-0.7,3.1l-0.4,1.6l-0.4,1.6l-0.1,0.4c-0.1,0.5,0.1,0.9,0.4,1.3
				c0.4,0.3,0.9,0.4,1.3,0.3c0.5-0.1,0.8-0.5,0.9-1l0.2-1l0.3-1.6l0.3-1.3l0.6-2.8c0.2-0.7-0.3-1.4-1-1.5S220.4,88,220.2,88.7
				L220.2,88.7z"/>
			<path id="Shape_116_" class="st13" d="M223.2,75.4l-1.5,6.7c-0.1,0.7,0.3,1.3,1,1.4s1.3-0.3,1.5-0.9l1.4-6.7
				c0.1-0.6-0.3-1.2-0.9-1.3C224,74.4,223.4,74.8,223.2,75.4z"/>
			<path id="Shape_117_" class="st13" d="M224.8,68.8c-0.1,0.6,0.3,1.2,0.8,1.3c0.6,0.1,1.2-0.3,1.3-0.8l1.3-6.7
				c0.1-0.5-0.2-1-0.7-1.1s-1,0.2-1.2,0.7L224.8,68.8L224.8,68.8z"/>
			<path id="Shape_118_" class="st13" d="M230.4,48.3c-0.4-0.1-0.7,0.1-0.8,0.5l-1.6,6.6c-0.1,0.3-0.1,0.7,0.2,1s0.6,0.3,1,0.2
				s0.5-0.5,0.5-0.8l1.3-6.7C231,48.8,230.7,48.4,230.4,48.3L230.4,48.3z"/>
			<path id="Shape_119_" class="st13" d="M231.6,40.4l-0.4,1.8c0,0.2,0,0.4,0.2,0.5c0.1,0.1,0.3,0.2,0.5,0.1s0.3-0.2,0.3-0.4
				l0.3-1.9c0-0.2,0-0.3-0.1-0.4c-0.1-0.1-0.3-0.1-0.4-0.1C231.8,40.1,231.7,40.2,231.6,40.4L231.6,40.4z"/>
			<path id="Shape_120_" class="st13" d="M313.9,153.5c-0.1-0.2-0.3-0.4-0.6-0.5s-0.5,0-0.8,0.2c-1.9,1.6-3.7,3.3-5.2,5.2
				c-1.6,1.9-2.9,3.9-4.1,6.1c-1.2,2.1-2.1,4.5-2.7,6.8c-0.6,2.4-0.7,5.1,0.5,7.3c0.1,0.1,0.2,0.1,0.3,0.1c0.1-0.1,0.1-0.2,0.1-0.3
				c-0.8-2.2-0.5-4.6,0.2-6.8s1.7-4.4,2.9-6.4c0.2-0.3,0.3-0.5,0.5-0.8c0.8,0.4,1.5,0.8,2.2,1.3c0.8,0.6,1.4,1.4,2.3,2.3
				c0.9,0.9,2.1,1.5,3.4,1.8c0.7,0.2,1.5,0.2,2.2,0.1c-0.1,0.6-0.2,1.1-0.3,1.7c-0.6,2.9-1.7,5.7-3.7,7.8c-1,1.1-2.2,1.9-3.6,2.3
				c-1.4,0.4-3,0.3-4.4-0.3h-0.2c0,0.1,0,0.2,0.1,0.2c0.3,0.2,0.6,0.3,1,0.4c-2-0.4-4.1,0-5.9,0.9c-0.5,0.3-0.9,0.5-1.3,0.9
				c-1.6,1.2-2.7,2.9-3.2,4.8l-3.8,13l-4,13.7l-4.4-0.1h-6l-20.7-0.1c-0.4,0-0.7,0.3-0.7,0.7l0.6,16.3l0.8,21.5l0.2,5.3L256,270
				c0.1,1.8,0.1,3.5,0.2,5.5c0.2,2,1,3.9,2.2,5.4c1.3,1.7,3.1,2.9,5.1,3.6c1.7,0.6,3.5,0.9,5.2,0.8h21.8c1.5,0.1,3-0.1,4.4-0.5
				c2.3-0.7,4.4-2,5.9-3.9c1.2-1.5,2-3.4,2.2-5.4l0.4-5.4l0.7-10.8c0.9-14.4,1.6-28.7,2.3-43.1c0-0.1-0.1-0.1-0.2-0.1
				s-0.1,0.1-0.2,0.1c-1.3,14.3-2.5,28.6-3.5,43l-0.8,10.8l-0.4,5.4c-0.2,1.7-0.8,3.2-1.8,4.5c-2.1,2.6-5.5,3.9-9,3.7h-21.8
				c-1.7,0.1-3.4-0.2-5-0.8c-1.6-0.6-2.9-1.6-4-2.9c-1-1.3-1.7-2.8-1.9-4.4c-0.1-1.7-0.2-3.6-0.2-5.3l-0.4-10.8l-0.2-5.3l-0.9-21.5
				l-0.7-15.6l20-0.1h11.9c3,0,5.9-0.1,8.9-0.1c0.2,0,0.3-0.1,0.3-0.3s-0.1-0.3-0.3-0.3c-2.9,0-5.7-0.1-8.6-0.1l3.9-13.3l3.8-12.9
				c0.3-1,0.8-2,1.5-2.8c0.6-0.7,1.3-1.3,2.2-1.8c1.8-0.9,3.9-1.1,5.8-0.4c1.9,0.7,3.5,2.1,4.3,3.9c0.4,0.9,0.6,1.9,0.6,2.9
				s-0.2,2.1-0.6,3l-3.8,12.9l-2.6,8.8h1.8l2.5-8.3l3.8-12.9c0.4-1.1,0.6-2.3,0.7-3.6c0-3.8-2.4-7.2-6-8.5c0.7,0.1,1.5,0.1,2.2,0
				c1.6-0.3,3.1-1.1,4.3-2.2c2.4-2.3,3.8-5.3,4.5-8.4C317.8,165.7,316.6,159.2,313.9,153.5L313.9,153.5z M313.4,168.3
				c-0.9-0.3-1.8-0.8-2.5-1.4l-0.1-0.1c-0.7-0.7-1.6-1.7-2.7-2.3c-0.8-0.4-1.6-0.7-2.5-0.8c2-3.1,4.4-5.9,7.2-8.3
				c1,2.4,1.8,4.9,2.2,7.4c0.3,2,0.5,4.1,0.3,6.1h-0.2C314.5,168.7,313.9,168.5,313.4,168.3L313.4,168.3z"/>
			<path id="Shape_121_" class="st13" d="M264.1,253.8c-0.1-1.7-0.2-3.4-0.3-5.2c-0.2-2.3-0.2-4.7-0.9-7c0-0.1-0.1-0.2-0.2-0.2
				s-0.2,0.1-0.2,0.2c-0.6,2.4-0.4,4.7-0.4,7.1c0,1.7,0.1,3.4,0.1,5.1c0,0.6,0,1.3,0.1,1.9c0.1,2.3,0.2,4.7,0.4,7s0.2,4.7,0.9,7
				c0,0.1,0.1,0.2,0.2,0.2s0.2-0.1,0.2-0.2c0.6-2.4,0.4-4.7,0.4-7.1s-0.1-4.7-0.2-7C264.2,255.1,264.2,254.4,264.1,253.8z"/>
			<path id="Shape_122_" class="st13" d="M188.4,136.9c0.1-0.1,0.2-0.1,0.4-0.2c0.1-0.1,0.3-0.2,0.5-0.3c-0.3-0.1-0.5-0.1-0.8-0.2
				L188.4,136.9L188.4,136.9z"/>
			<path id="Shape_123_" class="st13" d="M103,227.8c-1.2-0.6-2.5-0.8-3.9-0.7c-0.3,0-0.6,0.1-1,0.1h-0.2l0.2-0.2l-1-1
				c-0.4,0.3-0.8,0.7-1.2,1.1c0-1.7-0.7-3.4-2-4.5c-0.8-0.8-1.9-1.4-3-1.7c-0.6-0.2-1.2-0.3-1.8-0.3c-0.7,0-1.4,0.4-1.9,0.9
				s-0.7,1.2-0.7,1.9c0,0.6,0.2,1.2,0.5,1.8c0.5,1.1,1.2,2,2.1,2.7c1.4,1.1,3.2,1.6,4.9,1.4c0.2-0.2,0.4-0.5,0.6-0.7
				c-1.7-0.2-3.4-0.6-4.7-1.7c-0.7-0.6-1.3-1.3-1.7-2.2c-0.4-0.9-0.4-1.6,0.1-2.1c0.2-0.3,0.5-0.4,0.9-0.4s0.9,0.1,1.3,0.2
				c0.9,0.2,1.8,0.7,2.5,1.3c1.2,1,1.8,2.7,2.1,4.4c-0.3,0.4-0.7,0.9-1,1.3H94l-1.5,2.1c-0.5,0.8-0.9,1.6-1.3,2.4l-0.1,0.2l-0.1,0.2
				c-0.4,0.9-0.7,1.7-1,2.6c-1.7,0-3.4-0.2-4.8-1c-0.8-0.5-1.5-1.2-2-2c-0.2-0.4-0.4-0.8-0.6-1.3c-0.1-0.3,0-0.6,0.2-0.9
				c0.2-0.3,0.5-0.4,0.8-0.5c0.5-0.1,1-0.1,1.4,0c0.9,0.1,1.9,0.4,2.7,0.9c1.3,0.7,2,2.1,2.6,3.5c0.2-0.5,0.3-0.9,0.5-1.4
				c-0.1-0.2-0.1-0.4-0.2-0.6c-0.5-1.1-1.3-2-2.2-2.6c-1-0.6-2.1-1-3.2-1.2c-0.6-0.1-1.2-0.1-1.7,0c-0.7,0.1-1.4,0.4-1.9,1.1
				c-0.4,0.6-0.6,1.4-0.3,2.1c0.2,0.6,0.4,1.1,0.8,1.6c0.6,1,1.5,1.8,2.5,2.4c1.6,1,3.4,1.2,5.2,0.7c-0.1,0.3-0.1,0.6-0.2,0.9
				c-0.4,1.8-0.6,3.7-0.7,5.6c0,0.1,0.1,0.2,0.1,0.3h-0.1v-0.3c-0.1-0.2-0.1-0.3-0.2-0.4c-0.8-1.6-2.2-2.7-4-3.1
				c-1.1-0.3-2.3-0.3-3.5,0c-0.6,0.1-1.1,0.3-1.6,0.6c-0.7,0.3-1.2,0.9-1.4,1.6s-0.1,1.5,0.4,2.1c0.4,0.5,0.8,0.9,1.2,1.3
				c0.9,0.7,2,1.2,3.2,1.4c2.1,0.3,4.3-0.1,5.7-1.7v-0.9v0.1c-0.1,0.1,0.2,0.6,0.1,0.7l-0.1,0.1c-0.1,2-0.1,4.2-0.1,6.7
				c-0.7,0-1.4,0.1-2,0.1c-3.3-0.1-6.6-0.2-9.9-0.2H76l0.4,0.8l0.5,1.1l3,6c-1.2,2.4-2.1,4.9-2.8,7.4c-0.7,2.7-1.1,5.5-0.7,8.3
				c0.3,2.8,1.6,5.7,3.9,7.5c1.7,1.3,3.7,2.1,5.8,2.4c0.7,0.1,1.3,0.2,2,0.2h0.3c0.8,0,1.5-0.1,2.3-0.2c2-0.3,3.9-1.1,5.5-2.4
				c2.3-1.8,3.6-4.7,3.9-7.5s-0.1-5.6-0.7-8.3c-0.7-2.6-1.6-5.1-2.8-7.4l3-6l0.5-1l0.5-0.9h-1c-3,0-6.1,0-9.2,0.1
				c0-1.9,0-3.7,0.1-5.3c0.3,0.2,0.6,0.5,0.9,0.7c0.8,0.6,1.8,0.9,2.8,1.1c1,0.2,2,0.1,2.9-0.2c0.9-0.4,1.7-0.9,2.5-1.4
				c0.6-0.4,0.9-1,1-1.7c0-0.4,0-0.7-0.2-1.1c-0.1-0.3-0.4-0.6-0.6-0.9c-1-0.9-2.2-1.5-3.5-1.7s-2.7,0-3.9,0.6
				c-0.6,0.3-1.1,0.6-1.7,1c0.1-1.7,0.4-3.4,0.8-5.1l0.2-0.7c-0.1,0.2-0.1,0.5-0.2,0.7c0.4,0.5,0.8,1,1.3,1.4
				c0.8,0.6,1.7,1.1,2.7,1.3c1,0.3,2,0.3,2.9,0s1.8-0.7,2.6-1.2c0.6-0.3,1-0.9,1.2-1.6c0.1-0.4,0.1-0.8,0-1.1s-0.3-0.7-0.6-0.9
				c-0.9-1-2.1-1.7-3.4-2s-2.7-0.2-3.9,0.3c-0.7,0.2-1.3,0.5-1.9,0.9l0.3-0.9c0.7-1.7,1.7-3.2,2.8-4.7c0.3,0.6,0.6,1.1,1,1.6
				l0.1,0.1c0.1,0.2,0.3,0.3,0.4,0.4c0.5,0.6,1.1,1,1.8,1.4c0.9,0.5,1.9,0.7,2.9,0.7c1-0.1,1.9-0.3,2.8-0.6c0.7-0.2,1.2-0.6,1.5-1.3
				c0-0.1,0.1-0.2,0.1-0.3v-0.1c0.1-0.2,0.1-0.5,0.1-0.7c0-0.4-0.1-0.7-0.3-1C105.1,229.3,104.2,228.4,103,227.8L103,227.8z
				 M88.9,245.5c-1.7,0.8-3.6,1.3-5.4,0.9c-0.9-0.2-1.8-0.6-2.5-1.2c-0.4-0.3-0.7-0.6-1-1c-0.2-0.3-0.2-0.6-0.1-0.9
				c0.1-0.3,0.3-0.6,0.6-0.7c0.4-0.2,0.9-0.4,1.3-0.5c0.9-0.3,1.9-0.3,2.8-0.1c1.8,0.3,3.2,1.9,4.4,3.3
				C89,245.3,88.9,245.5,88.9,245.5z M98.5,253.9l-0.3,0.7l-2.9,5.7l-0.2,0.3l0.2,0.3c1.2,2.4,2.2,4.9,2.8,7.5
				c0.6,2.6,1,5.3,0.7,7.8s-1.4,5-3.4,6.6s-4.5,2.2-7.1,2.3c-2.5,0-5.1-0.7-7-2.3c-2-1.6-3.1-4.1-3.4-6.6s0-5.3,0.7-7.8
				c0.7-2.6,1.6-5.1,2.8-7.5l0.2-0.3l-0.1-0.3l-2.9-5.7l-0.4-0.8c3,0,6-0.1,9-0.2C90.7,253.9,94.6,253.9,98.5,253.9z M92.9,244
				c1-0.5,2.1-0.7,3.1-0.6c1.1,0.1,2.1,0.6,2.9,1.3c0.2,0.1,0.4,0.3,0.6,0.4c0.2,0.2,0.3,0.4,0.3,0.6c0.1,0.5-0.1,1.1-0.5,1.4
				c-0.7,0.5-1.6,0.7-2.5,0.7c-0.8,0.1-1.7,0-2.5-0.1c-0.8-0.2-1.6-0.5-2.2-1c-0.5-0.4-1-0.8-1.4-1.3C91.3,245,92.1,244.4,92.9,244
				L92.9,244z M94.6,236.1c1-0.4,2.1-0.5,3.2-0.3s2,0.8,2.8,1.5c0.2,0.1,0.4,0.3,0.5,0.5l0.3,0.6c0.1,0.5-0.2,1.1-0.7,1.3
				c-0.8,0.4-1.7,0.6-2.6,0.5c-0.8,0-1.7-0.1-2.5-0.3s-1.5-0.6-2.1-1.1c-0.5-0.4-0.9-0.9-1.3-1.4C93,236.9,93.8,236.5,94.6,236.1z
				 M105.3,232.3C105.3,232.3,105.3,232.4,105.3,232.3c0,0.2-0.1,0.4-0.2,0.6c-0.2,0.3-0.5,0.5-0.8,0.6c-0.9,0.2-1.8,0.2-2.6-0.1
				c-0.8-0.2-1.6-0.5-2.3-0.9c-0.1-0.1-0.3-0.2-0.4-0.3c-0.5-0.4-1-0.8-1.4-1.3s-0.7-1.1-0.9-1.7c0.8-0.4,1.7-0.7,2.6-0.8
				c1.1-0.1,2.2,0,3.1,0.4c1,0.5,1.8,1.2,2.4,2.1c0.2,0.2,0.3,0.4,0.4,0.6c0.1,0.2,0.1,0.4,0.1,0.6L105.3,232.3L105.3,232.3z"/>
			<path id="Rectangle-2" class="st0" d="M74.2,165.3H118v87.9H74.2V165.3L74.2,165.3z"/>
			<path id="Rectangle_1_" class="st0" d="M144.2,232.2H94.3v-50.1h49.9"/>
		</g>
	</g>
</g>
<g id="Page-1">
	<g id="_x32_-Upload-an-icon">
		<g id="Upload-icon" transform="translate(53 -42)">
			<g id="Group-2" transform="translate(0 -30.779)">
				<path id="Path-2" class="st8" d="M92.1,243.8l-4.6,14.6v7.4l2.9,8.6l6.5,7.3l7.4,2.7h9.2l9.3-6.2l5.3-10.3l1-7.7l-3.8-12.9
					l-1.5-4.6L92.1,243.8L92.1,243.8z"/>
				<path id="Shape_124_" class="st1" d="M108.6,249.8c5.5,0.1,11,0.1,16.4,0.3l-1.9-6.3H92.5l-1.9,6.4c2.4-0.2,4.8-0.2,7.2-0.3
					L108.6,249.8L108.6,249.8z"/>
				<path id="Shape_125_" class="st1" d="M97.9,251.6c-2.5-0.1-5-0.1-7.5-0.3l-2.4,8c-0.3,2.9-0.1,5.9,0.6,8.8s2,5.6,3.8,8
					c3.5,4.8,9.3,8.1,15.4,8.3v-0.2c3,0,6-0.8,8.7-2.3c2.6-1.4,5-3.4,6.8-5.9c3.6-4.8,5.2-10.9,4.4-16.8l-2.3-7.8
					c-5.6,0.3-11.2,0.2-16.8,0.3L97.9,251.6L97.9,251.6z"/>
				<path id="Shape_126_" class="st13" d="M116.2,233.3H116c-0.2-0.2-0.3-0.5-0.4-0.8l-0.9,1.8c-1.1,2.5-1.9,5.1-2.2,7.9h0.6
					c0.9-2.4,1.9-4.8,3.1-7.1c0.3-0.5,0.5-1,0.8-1.5L116.2,233.3C116.3,233.3,116.3,233.3,116.2,233.3L116.2,233.3z"/>
				<path id="Shape_127_" class="st13" d="M133.1,214.9c0.1-0.1,0.1-0.3,0-0.4c-0.1-0.1-0.3-0.2-0.4-0.1c-4.9,3.4-9.4,7.5-13.2,12.1
					c-1.4,1.7-2.6,3.6-3.7,5.6c0.2,0.3,0.3,0.7,0.5,1v0.1l0.7,0.2c1.2-2,2.5-4,3.9-5.8C124.5,223,128.9,219.2,133.1,214.9
					L133.1,214.9z"/>
				<path id="Shape_128_" class="st4" d="M116.2,233.3C116.3,233.3,116.3,233.3,116.2,233.3l-0.1-0.1c-0.2-0.3-0.3-0.6-0.5-0.9
					l-0.1,0.2c0.1,0.3,0.3,0.5,0.4,0.8l0.1,0.1C116,233.4,116.2,233.4,116.2,233.3z"/>
				<path id="Shape_129_" class="st4" d="M116.2,233.2l0.1,0.1L116.2,233.2c-0.1-0.3-0.3-0.7-0.4-1l-0.1,0.2
					C115.8,232.6,116,232.9,116.2,233.2z"/>
				<path id="Shape_130_" class="st13" d="M104,225.6c0-0.2-0.1-0.4-0.1-0.6l-0.3,0.3c-0.1,0.1-0.2,0-0.2,0l-1,0.3
					c0,0.1,0,0.2,0.1,0.3c0.9,5.4,1.4,10.8,1.8,16.2h0.4C104.9,236.6,104.7,231.1,104,225.6z"/>
				<path id="Shape_131_" class="st13" d="M103.3,225.1c0.2-0.1,0.3-0.3,0.5-0.4c-0.9-5.5-2.4-10.8-4.5-15.9
					c-2.3-5.4-5.4-10.4-9.3-14.9c-3.9-4.4-8.5-8.1-13.6-11c-0.2-0.1-0.3,0-0.4,0.1s-0.1,0.3,0.1,0.4c4.8,3.2,9,7.1,12.8,11.4
					c3.7,4.4,6.6,9.3,8.8,14.6c2.2,5.2,3.8,10.6,4.7,16.1l1-0.3C103.3,225.2,103.3,225.1,103.3,225.1L103.3,225.1z"/>
				<path id="Shape_132_" class="st4" d="M103.8,224.9v-0.2c-0.2,0.1-0.3,0.3-0.5,0.4c0,0-0.1,0.1,0,0.2h0.1L103.8,224.9z"/>
				<path id="Shape_133_" class="st4" d="M91.9,243.9h0.7l0.2-0.6L91.9,243.9z"/>
				<path id="Shape_134_" class="st13" d="M112.5,243.2c-0.1,0-0.1-0.1-0.1-0.2c0-0.3,0.1-0.6,0.1-0.9h-7.9c0,0.3,0,0.6-0.1,0.9
					c0,0.1-0.1,0.2-0.2,0.1c-0.1,0-0.1-0.1-0.2-0.2L104,242H91.8c-0.4,0-0.7,0.3-0.8,0.6l-2.2,7.6c0.6-0.1,1.2-0.1,1.8-0.2l1.9-6.4
					h-0.7l0.8-0.6l-0.2,0.6H123l-0.2-0.6l0.8,0.6H123l1.9,6.3l1.8,0.1l-2.2-7.4c-0.1-0.4-0.4-0.6-0.8-0.6H113l-0.3,0.9
					C112.7,243.1,112.6,243.2,112.5,243.2L112.5,243.2z"/>
				<path id="Shape_135_" class="st4" d="M123,243.3l0.2,0.6h0.6C123.8,243.9,123,243.3,123,243.3z"/>
				<path id="Shape_136_" class="st13" d="M127.7,259.2C127.7,259.2,127.7,259.1,127.7,259.2c0.8,6-0.8,12-4.4,16.8
					c-1.8,2.4-4.1,4.4-6.8,5.9c-2.7,1.4-5.7,2.2-8.7,2.3v0.2c-6.2-0.2-11.9-3.5-15.4-8.3c-1.8-2.4-3.1-5.1-3.8-8
					c-0.7-2.9-0.9-5.9-0.6-8.8v0.1v-0.1v0.1l2.4-8c-0.6,0-1.1-0.1-1.7-0.1l-2.3,7.7v0.1c-0.7,6.4,1.1,12.8,5,17.8
					c2,2.5,4.5,4.5,7.3,5.9s6,2,9.1,1.9v0.2c3.2,0,6.3-0.7,9.1-2.1s5.3-3.5,7.3-6c3.9-5.1,5.7-11.5,5-17.8v-0.1l-2.2-7.5l-1.7,0.1
					L127.7,259.2L127.7,259.2z"/>
				<path id="Shape_137_" class="st4" d="M112.4,243c0,0.1,0,0.2,0.1,0.2s0.2,0,0.2-0.1l0.3-0.9h-0.6V243z"/>
				<path id="Shape_138_" class="st8" d="M103,190.4c-3.2-5.4-7.4-10.1-12.5-13.8c-2.5-1.9-5.3-3.3-8.2-4.3c-2.9-1-6-1.3-8.9-0.4
					c-2.8,0.8-5.2,3-6.7,5.5S65,183,65.3,186c0.6,6.2,3.1,12.1,6,17.6c3,5.6,6.6,10.8,10.9,15.4c2.1,2.3,4.5,4.4,7.2,6.1
					c1.3,0.8,2.7,1.5,4.2,1.9s3,0.3,4.4-0.3c0.1,0,0.2-0.1,0.2,0c0.1,0,0.2,0.1,0.2,0.2l3.8-1.3c-0.9-5.5-2.5-10.9-4.7-16.1
					c-2.2-5.3-5.1-10.2-8.8-14.6c-3.7-4.4-8-8.2-12.8-11.4c-0.1-0.1-0.2-0.3-0.1-0.4c0.1-0.1,0.3-0.2,0.4-0.1
					c5.1,2.9,9.8,6.6,13.6,11c3.9,4.5,7,9.5,9.3,14.9c2.1,5.1,3.6,10.4,4.5,15.9c2.2-2,3.8-4.5,4.6-7.3c0.8-3,1.1-6.2,0.7-9.3
					C108.4,201.8,106.1,195.8,103,190.4L103,190.4z"/>
				<path id="Shape_139_" class="st8" d="M142.5,204.6c-1.3-1.8-3.1-3.1-5.3-3.6c-2.5-0.6-5.1-0.6-7.6,0.1l-1.4,10.9
					c0,0.4-0.4,0.7-0.8,0.7s-0.8-0.2-0.9-0.6l-2.5-8.8c-3.9,3.6-6.8,8.1-8.6,13.1c-0.9,2.7-1.4,5.5-1.4,8.4c0,2.5,0.5,5,1.6,7.2
					c1.1-2,2.3-3.8,3.7-5.6c3.8-4.6,8.3-8.7,13.2-12.1c0.1-0.1,0.3-0.1,0.4,0.1c0.1,0.2,0.1,0.3,0,0.4c-4.2,4.2-8.7,8.1-12.2,12.8
					c-1.5,1.8-2.8,3.8-3.9,5.8l2.9,1.1c0.1-0.2,0.3-0.2,0.4-0.2c2.4,0.9,5.1,0.5,7.5-0.3c2.4-0.9,4.7-2.1,6.8-3.7
					c1-0.7,1.9-1.5,2.7-2.3c2.9-2.7,5.2-5.9,6.8-9.5c1-2.3,1.4-4.8,1.2-7.3C145,208.8,144.1,206.5,142.5,204.6L142.5,204.6z"/>
				<path id="Shape_140_" class="st13" d="M93.4,227.9c1.7,0.4,3.4,0.2,4.9-0.6c0.1-0.1,0.2-0.2,0.1-0.4c0-0.1-0.1-0.1-0.2-0.2H98
					c-1.4,0.6-3,0.8-4.4,0.3c-1.5-0.4-2.9-1.1-4.2-1.9c-2.6-1.7-5-3.8-7.2-6.1c-4.3-4.6-8-9.8-10.9-15.4c-2.9-5.5-5.4-11.5-6-17.6
					c-0.3-3,0-6.2,1.5-8.7s3.9-4.7,6.7-5.5c2.8-0.9,6-0.6,8.9,0.4s5.7,2.5,8.2,4.3c5.1,3.7,9.3,8.4,12.5,13.8c3,5.5,5.3,11.5,6,17.7
					c0.4,3.1,0.1,6.2-0.7,9.3c-0.8,2.8-2.4,5.4-4.6,7.3v0.4c2.5-1.9,4.3-4.5,5.3-7.5c1-3.1,1.3-6.4,1.1-9.6
					c-0.5-6.5-2.8-12.6-5.8-18.3c-3.2-5.7-7.6-10.6-12.9-14.4c-2.6-2-5.5-3.5-8.6-4.6s-6.6-1.5-10-0.5c-3.3,1-6,3.5-7.7,6.4
					c-1.8,3-1.9,6.6-1.6,9.8c0.7,6.5,3.3,12.6,6.4,18.2c3.1,5.6,7,10.8,11.4,15.5c2.2,2.3,4.8,4.4,7.5,6.1
					C90.3,226.9,91.8,227.5,93.4,227.9z"/>
				<path id="Shape_141_" class="st13" d="M145.6,219.2c1.1-2.5,1.6-5.3,1.4-8.1s-1.3-5.5-3-7.7c-0.8-1.2-1.9-2.1-3.1-2.9
					c-1.1-0.7-2.3-1.1-3.6-1.4l-0.4-0.1c-2.8-0.5-5.6-0.3-8.3,0.6c-0.3,0.1-0.5,0.4-0.6,0.7l-1,7.4l-1.8-6.1
					c-0.1-0.3-0.3-0.5-0.6-0.6c-0.3-0.1-0.6,0-0.8,0.2c-4.5,4-7.8,9.1-9.6,14.8c-0.9,2.8-1.2,5.8-1.1,8.8c0.2,2.7,0.9,5.3,2.2,7.6
					l0.1-0.2l0.1-0.2c-1.1-2.3-1.6-4.7-1.6-7.2c0-2.9,0.4-5.7,1.4-8.4c1.7-5,4.6-9.5,8.5-13.1l2.5,8.8c0.1,0.4,0.5,0.6,0.9,0.6
					s0.7-0.3,0.8-0.7l1.5-10.9c2.5-0.7,5.1-0.8,7.6-0.1c2.1,0.5,4,1.8,5.3,3.6c1.5,1.9,2.5,4.3,2.7,6.8c0.2,2.5-0.2,5-1.2,7.3
					c-1.6,3.6-3.9,6.9-6.8,9.5c-0.9,0.8-1.8,1.6-2.7,2.3c-2,1.6-4.3,2.8-6.8,3.7c-2.4,0.8-5.1,1.2-7.5,0.3c-0.2-0.1-0.3,0-0.4,0.2
					s0,0.3,0.2,0.4c2.5,1.2,5.5,1,8.1,0.2s5-2,7.2-3.6c0.7-0.5,1.3-1,1.9-1.5C140.9,227.2,143.7,223.5,145.6,219.2L145.6,219.2z"/>
				<path id="Shape_142_" class="st13" d="M129.9,250.4c-1.1-0.1-2.1-0.1-3.2-0.2l-1.8-0.1c-5.5-0.2-11-0.2-16.4-0.3l-10.7,0.1
					c-2.4,0.1-4.8,0.1-7.2,0.3c-0.6,0-1.2,0.1-1.8,0.2c-0.5,0.1-1.1,0.1-1.6,0.2c-0.1,0-0.1,0.1-0.1,0.2s0.1,0.1,0.1,0.2
					c0.5,0.1,1,0.1,1.4,0.2c0.6,0.1,1.1,0.1,1.7,0.1c2.5,0.2,5,0.3,7.5,0.3l10.7,0.1c5.6-0.1,11.2-0.1,16.8-0.3l1.7-0.1
					c0.9-0.1,1.9-0.1,2.8-0.2c0.2,0,0.3-0.1,0.3-0.3C130.3,250.6,130.1,250.4,129.9,250.4z"/>
			</g>
		</g>
	</g>
</g>
</svg>
