<svg width="18" height="18" viewBox="0 0 18 18" fill="none" xmlns="http://www.w3.org/2000/svg">
<g id="comment-author-gravatar">
<g id="Shape">
<path d="M10.5 7.5C10.5 8.32843 9.82843 9 9 9C8.17157 9 7.5 8.32843 7.5 7.5C7.5 6.67157 8.17157 6 9 6C9.82843 6 10.5 6.67157 10.5 7.5Z" fill="#1E1E1E"/>
<path fill-rule="evenodd" clip-rule="evenodd" d="M3 9C3 5.68629 5.68629 3 9 3C12.3137 3 15 5.68629 15 9C15 12.3137 12.3137 15 9 15C5.68629 15 3 12.3137 3 9ZM5.4375 12.3278C4.62333 11.4566 4.125 10.2865 4.125 9C4.125 6.30761 6.30761 4.125 9 4.125C11.6924 4.125 13.875 6.30761 13.875 9C13.875 10.2865 13.3767 11.4566 12.5625 12.3278V12C12.5625 10.8609 11.6391 9.9375 10.5 9.9375L7.5 9.9375C6.36091 9.9375 5.4375 10.8609 5.4375 12V12.3278ZM6.5625 13.2228C7.27955 13.6376 8.11205 13.875 9 13.875C9.88795 13.875 10.7205 13.6376 11.4375 13.2228V12C11.4375 11.4822 11.0178 11.0625 10.5 11.0625L7.5 11.0625C6.98223 11.0625 6.5625 11.4822 6.5625 12V13.2228Z" fill="#1E1E1E"/>
</g>
</g>
</svg>
