<svg width="18" height="18" viewBox="0 0 18 18" fill="none" xmlns="http://www.w3.org/2000/svg">
<g id="transform">
<path id="Shape" fill-rule="evenodd" clip-rule="evenodd" d="M10.0735 2.61561L11.5296 4.31171H11.5165H11.5017H11.4869H11.4721H11.4573H11.4425H11.4277H11.4129H11.3981H11.3833H11.3684H11.3536H11.3388H11.324H11.3092H11.2944H11.2796H11.2648H11.25H11.2351H11.2203H11.2055H11.1907H11.1759H11.161H11.1462H11.1314H11.1166H11.1018H11.0869H11.0721H11.0573H11.0425H11.0276H11.0128H10.998H10.9831H10.9683H10.9535H10.9386H10.9238H10.909H10.8941H10.8793H10.8645H10.8496H10.8348H10.82H10.8051H10.7903H10.7755H10.7606H10.7458H10.7309H10.7161H10.7013H10.6864H10.6716H10.6567H10.6419H10.627H10.6122H10.5974H10.5825H10.5677H10.5528H10.538H10.5231H10.5083H10.4934H10.4786H10.4638H10.4489H10.4341H10.4192H10.4044H10.3895H10.3747H10.3598H10.345H10.3301H10.3153H10.3004H10.2856H10.2707H10.2559H10.241H10.2262H10.2113H10.1965H10.1817H10.1668H10.152H10.1371H10.1223H10.1074H10.0926H10.0777H10.0629H10.048H10.0332H10.0183H10.0035H9.98864H9.97379H9.95894H9.9441H9.92925H9.91441H9.89956H9.88472H9.86987H9.85503H9.84018H9.82534H9.8105H9.79566H9.78081H9.76597H9.75113H9.73629H9.72145H9.70661H9.69177H9.67693H9.66209H9.64725H9.63241H9.61758H9.60274H9.5879H9.57307H9.55823H9.5434H9.52856H9.51373H9.4989H9.48407H9.46923H9.4544H9.43957H9.42475H9.40992H9.39509H9.38026H9.36544H9.35061H9.33579H9.32096H9.30614H9.29132H9.2765H9.26168H9.24686H9.23204H9.21722H9.2024H9.18759H9.17277H9.15796H9.14315H9.12833H9.11352H9.09871H9.0839H9.0691H9.05429H9.03948H9.02468H9.00987H8.99507H8.98027H8.96547H8.95067H8.93587H8.92108H8.90628H8.89149H8.87669H8.8619H8.84711H8.83232H8.81753H8.80274H8.78796H8.77317H8.75839H8.74361H8.72883H8.71405H8.69927H8.6845H8.66972H8.65495H8.64018H8.62541H8.61064H8.59587H8.5811H8.56634H8.55157H8.53681H8.52205H8.50729H8.49254H8.47778H8.46303H8.44828H8.43353H8.41878H8.40403H8.38928H8.37454H8.3598H8.34506H8.33032H8.31558H8.30084H8.28611H8.27138H8.25665H8.24192H8.22719H8.21247H8.19775H8.18303H8.16831H8.15359H8.13887H8.12416H8.10945H8.09474H8.08003H8.06533H8.05062H8.03592H8.02122H8.00652H7.99183H7.97713H7.96244H7.94775H7.93306H7.91838H7.9037H7.88901H7.87434H7.85966H7.84498H7.83031H7.81564H7.80097H7.78631H7.77164H7.75698H7.74232H7.72767H7.71301H7.69836H7.68371H7.66906H7.65442H7.63977H7.62513H7.61049H7.59586H7.58122H7.56659H7.55196H7.53734H7.52271H7.50809H7.49347H7.47886H7.46424H7.44963H7.43502H7.42042H7.40581H7.39121H7.37661H7.36202H7.34743H7.33284H7.31825H7.30366H7.28908H7.2745H7.25992H7.24535H7.23078H7.21621H7.20164H7.18708H7.17252H7.15796H7.1434H7.12885H7.1143H7.09976H7.08521H7.07067H7.05613H7.0416H7.02707H7.01254H6.99801H6.98349H6.96897H6.95445H6.93994H6.92543H6.91092H6.89641H6.88191H6.86741H6.85291H6.83842H6.82393H6.80945H6.79496H6.78048H6.76601H6.75153H6.73706H6.72259H6.70813H6.69367H6.67921H6.66475H6.6503H6.63586H6.62141H6.60697H6.59253H6.5781H6.56366H6.54924H6.53481H6.52039H6.50597H6.49156H6.47715H6.46274H6.44834H6.43393H6.41954H6.40514H6.39075H6.37637H6.36198H6.3476H6.33323H6.31886H6.30449H6.29012H6.27576H6.2614H6.24705H6.2327H6.21835H6.20401H6.18967H6.17533H6.161H6.14667H6.13235H6.11803H6.10371H6.0894H6.07509H6.06078H6.04648H6.03218H6.01789H6.0036H5.98931H5.97503H5.96075H5.94648H5.93221H5.91794H5.90368H5.88942H5.87517H5.86092H5.84667H5.83243H5.81819H5.80395H5.78972H5.7755H5.76128H5.74706H5.73285H5.71864H5.70443H5.69023H5.67603H5.66184H5.64765H5.63347H5.61929H5.60511H5.59094H5.57677H5.56261H5.54845H5.5343H5.52015H5.506H5.49186H5.47772H5.46359H5.44946H5.43534H5.42122H5.4071H5.39299H5.37889H5.36479H5.35069H5.3366H5.32251H5.30843H5.29435H5.28028H5.26621H5.25214C4.50308 4.31171 3.91555 4.58201 3.48381 5.02781C3.06811 5.45705 2.82783 6.016 2.68349 6.55744C2.42692 7.5199 2.43453 8.59557 2.43873 9.19003C2.43921 9.25798 2.43965 9.31964 2.43964 9.37413L3.56464 9.37429C3.56465 9.31354 3.56431 9.24816 3.56395 9.17876C3.5608 8.56977 3.55604 7.65182 3.77053 6.84723C3.8886 6.4043 4.06076 6.04918 4.29195 5.81045C4.50712 5.58828 4.80095 5.43671 5.25214 5.43671H5.26621H5.28028H5.29435H5.30843H5.32251H5.3366H5.35069H5.36479H5.37889H5.39299H5.4071H5.42122H5.43534H5.44946H5.46359H5.47772H5.49186H5.506H5.52015H5.5343H5.54845H5.56261H5.57677H5.59094H5.60511H5.61929H5.63347H5.64765H5.66184H5.67603H5.69023H5.70443H5.71864H5.73285H5.74706H5.76128H5.7755H5.78972H5.80395H5.81819H5.83243H5.84667H5.86092H5.87517H5.88942H5.90368H5.91794H5.93221H5.94648H5.96075H5.97503H5.98931H6.0036H6.01789H6.03218H6.04648H6.06078H6.07509H6.0894H6.10371H6.11803H6.13235H6.14667H6.161H6.17533H6.18967H6.20401H6.21835H6.2327H6.24705H6.2614H6.27576H6.29012H6.30449H6.31886H6.33323H6.3476H6.36198H6.37637H6.39075H6.40514H6.41954H6.43393H6.44834H6.46274H6.47715H6.49156H6.50597H6.52039H6.53481H6.54924H6.56366H6.5781H6.59253H6.60697H6.62141H6.63586H6.6503H6.66475H6.67921H6.69367H6.70813H6.72259H6.73706H6.75153H6.76601H6.78048H6.79496H6.80945H6.82393H6.83842H6.85291H6.86741H6.88191H6.89641H6.91092H6.92543H6.93994H6.95445H6.96897H6.98349H6.99801H7.01254H7.02707H7.0416H7.05613H7.07067H7.08521H7.09976H7.1143H7.12885H7.1434H7.15796H7.17252H7.18708H7.20164H7.21621H7.23078H7.24535H7.25992H7.2745H7.28908H7.30366H7.31825H7.33284H7.34743H7.36202H7.37661H7.39121H7.40581H7.42042H7.43502H7.44963H7.46424H7.47886H7.49347H7.50809H7.52271H7.53734H7.55196H7.56659H7.58122H7.59586H7.61049H7.62513H7.63977H7.65442H7.66906H7.68371H7.69836H7.71301H7.72767H7.74232H7.75698H7.77164H7.78631H7.80097H7.81564H7.83031H7.84498H7.85966H7.87434H7.88901H7.9037H7.91838H7.93306H7.94775H7.96244H7.97713H7.99183H8.00652H8.02122H8.03592H8.05062H8.06533H8.08003H8.09474H8.10945H8.12416H8.13887H8.15359H8.16831H8.18303H8.19775H8.21247H8.22719H8.24192H8.25665H8.27138H8.28611H8.30084H8.31558H8.33032H8.34506H8.3598H8.37454H8.38928H8.40403H8.41878H8.43353H8.44828H8.46303H8.47778H8.49254H8.50729H8.52205H8.53681H8.55157H8.56634H8.5811H8.59587H8.61064H8.62541H8.64018H8.65495H8.66972H8.6845H8.69927H8.71405H8.72883H8.74361H8.75839H8.77317H8.78796H8.80274H8.81753H8.83232H8.84711H8.8619H8.87669H8.89149H8.90628H8.92108H8.93587H8.95067H8.96547H8.98027H8.99507H9.00987H9.02468H9.03948H9.05429H9.0691H9.0839H9.09871H9.11352H9.12833H9.14315H9.15796H9.17277H9.18759H9.2024H9.21722H9.23204H9.24686H9.26168H9.2765H9.29132H9.30614H9.32096H9.33579H9.35061H9.36544H9.38026H9.39509H9.40992H9.42475H9.43957H9.4544H9.46923H9.48407H9.4989H9.51373H9.52856H9.5434H9.55823H9.57307H9.5879H9.60274H9.61758H9.63241H9.64725H9.66209H9.67693H9.69177H9.70661H9.72145H9.73629H9.75113H9.76597H9.78081H9.79566H9.8105H9.82534H9.84018H9.85503H9.86987H9.88472H9.89956H9.91441H9.92925H9.9441H9.95894H9.97379H9.98864H10.0035H10.0183H10.0332H10.048H10.0629H10.0777H10.0926H10.1074H10.1223H10.1371H10.152H10.1668H10.1817H10.1965H10.2113H10.2262H10.241H10.2559H10.2707H10.2856H10.3004H10.3153H10.3301H10.345H10.3598H10.3747H10.3895H10.4044H10.4192H10.4341H10.4489H10.4638H10.4786H10.4934H10.5083H10.5231H10.538H10.5528H10.5677H10.5825H10.5974H10.6122H10.627H10.6419H10.6567H10.6716H10.6864H10.7013H10.7161H10.7309H10.7458H10.7606H10.7755H10.7903H10.8051H10.82H10.8348H10.8496H10.8645H10.8793H10.8941H10.909H10.9238H10.9386H10.9535H10.9683H10.9831H10.998H11.0128H11.0276H11.0425H11.0573H11.0721H11.0869H11.1018H11.1166H11.1314H11.1462H11.161H11.1759H11.1907H11.2055H11.2203H11.2351H11.25H11.2648H11.2796H11.2944H11.3092H11.324H11.3388H11.3536H11.3684H11.3833H11.3943L10.1029 6.72615L10.8978 7.52226L13.1512 5.27226L13.5204 4.90365L13.1806 4.50781L10.9271 1.88281L10.0735 2.61561ZM7.9274 15.0081L6.47331 13.3117H6.48765H6.50245H6.51724H6.53204H6.54684H6.56164H6.57645H6.59125H6.60605H6.62086H6.63567H6.65047H6.66528H6.68009H6.6949H6.70972H6.72453H6.73934H6.75416H6.76897H6.78379H6.79861H6.81342H6.82824H6.84306H6.85789H6.87271H6.88753H6.90235H6.91718H6.932H6.94683H6.96166H6.97648H6.99131H7.00614H7.02097H7.0358H7.05063H7.06546H7.0803H7.09513H7.10996H7.1248H7.13963H7.15447H7.1693H7.18414H7.19898H7.21381H7.22865H7.24349H7.25833H7.27317H7.28801H7.30285H7.31769H7.33253H7.34738H7.36222H7.37706H7.3919H7.40675H7.42159H7.43644H7.45128H7.46612H7.48097H7.49582H7.51066H7.52551H7.54035H7.5552H7.57005H7.58489H7.59974H7.61459H7.62943H7.64428H7.65913H7.67398H7.68882H7.70367H7.71852H7.73337H7.74822H7.76306H7.77791H7.79276H7.80761H7.82246H7.8373H7.85215H7.867H7.88185H7.8967H7.91154H7.92639H7.94124H7.95609H7.97093H7.98578H8.00063H8.01547H8.03032H8.04517H8.06001H8.07486H8.0897H8.10455H8.11939H8.13424H8.14908H8.16392H8.17877H8.19361H8.20845H8.2233H8.23814H8.25298H8.26782H8.28266H8.2975H8.31234H8.32718H8.34202H8.35686H8.3717H8.38653H8.40137H8.41621H8.43104H8.44588H8.46071H8.47554H8.49038H8.50521H8.52004H8.53487H8.5497H8.56453H8.57936H8.59419H8.60902H8.62385H8.63867H8.6535H8.66832H8.68315H8.69797H8.71279H8.72761H8.74243H8.75725H8.77207H8.78689H8.80171H8.81652H8.83134H8.84615H8.86096H8.87578H8.89059H8.9054H8.92021H8.93501H8.94982H8.96463H8.97943H8.99423H9.00904H9.02384H9.03864H9.05344H9.06824H9.08303H9.09783H9.11262H9.12742H9.14221H9.157H9.17179H9.18658H9.20136H9.21615H9.23093H9.24572H9.2605H9.27528H9.29006H9.30484H9.31961H9.33439H9.34916H9.36393H9.3787H9.39347H9.40824H9.42301H9.43777H9.45253H9.4673H9.48206H9.49682H9.51157H9.52633H9.54108H9.55583H9.57058H9.58533H9.60008H9.61483H9.62957H9.64431H9.65905H9.67379H9.68853H9.70326H9.718H9.73273H9.74746H9.76219H9.77692H9.79164H9.80636H9.82108H9.8358H9.85052H9.86523H9.87995H9.89466H9.90937H9.92408H9.93878H9.95349H9.96819H9.98289H9.99759H10.0123H10.027H10.0417H10.0564H10.071H10.0857H10.1004H10.1151H10.1298H10.1445H10.1591H10.1738H10.1885H10.2031H10.2178H10.2325H10.2471H10.2618H10.2764H10.2911H10.3058H10.3204H10.335H10.3497H10.3643H10.379H10.3936H10.4083H10.4229H10.4375H10.4521H10.4668H10.4814H10.496H10.5106H10.5253H10.5399H10.5545H10.5691H10.5837H10.5983H10.6129H10.6275H10.6421H10.6567H10.6713H10.6859H10.7004H10.715H10.7296H10.7442H10.7588H10.7733H10.7879H10.8025H10.817H10.8316H10.8461H10.8607H10.8753H10.8898H10.9044H10.9189H10.9334H10.948H10.9625H10.977H10.9916H11.0061H11.0206H11.0351H11.0497H11.0642H11.0787H11.0932H11.1077H11.1222H11.1367H11.1512H11.1657H11.1802H11.1947H11.2091H11.2236H11.2381H11.2526H11.267H11.2815H11.296H11.3104H11.3249H11.3394H11.3538H11.3683H11.3827H11.3971H11.4116H11.426H11.4404H11.4549H11.4693H11.4837H11.4981H11.5126H11.527H11.5414H11.5558H11.5702H11.5846H11.599H11.6134H11.6277H11.6421H11.6565H11.6709H11.6853H11.6996H11.714H11.7283H11.7427H11.7571H11.7714H11.7858H11.8001H11.8144H11.8288H11.8431H11.8574H11.8718H11.8861H11.9004H11.9147H11.929H11.9433H11.9576H11.9719H11.9862H12.0005H12.0148H12.0291H12.0434H12.0576H12.0719H12.0862H12.1004H12.1147H12.1289H12.1432H12.1574H12.1717H12.1859H12.2002H12.2144H12.2286H12.2428H12.257H12.2713H12.2855H12.2997H12.3139H12.3281H12.3423H12.3565H12.3706H12.3848H12.399H12.4132H12.4273H12.4415H12.4557H12.4698H12.484H12.4981H12.5122H12.5264H12.5405H12.5546H12.5688H12.5829H12.597H12.6111H12.6252H12.6393H12.6534H12.6675H12.6816H12.6957H12.7098H12.7238H12.7379H12.752C13.501 13.3117 14.0886 13.0414 14.5203 12.5956C14.936 12.1664 15.1763 11.6074 15.3206 11.066C15.5772 10.1035 15.5696 9.02784 15.5654 8.43338V8.43332C15.5649 8.3654 15.5645 8.30376 15.5645 8.24929L14.4395 8.24913C14.4395 8.30988 14.4398 8.37526 14.4402 8.44466C14.4433 9.05364 14.4481 9.9716 14.2336 10.7762C14.1155 11.2191 13.9434 11.5742 13.7122 11.813C13.497 12.0351 13.2032 12.1867 12.752 12.1867H12.7379H12.7238H12.7098H12.6957H12.6816H12.6675H12.6534H12.6393H12.6252H12.6111H12.597H12.5829H12.5688H12.5546H12.5405H12.5264H12.5122H12.4981H12.484H12.4698H12.4557H12.4415H12.4273H12.4132H12.399H12.3848H12.3706H12.3565H12.3423H12.3281H12.3139H12.2997H12.2855H12.2713H12.257H12.2428H12.2286H12.2144H12.2002H12.1859H12.1717H12.1574H12.1432H12.1289H12.1147H12.1004H12.0862H12.0719H12.0576H12.0434H12.0291H12.0148H12.0005H11.9862H11.9719H11.9576H11.9433H11.929H11.9147H11.9004H11.8861H11.8718H11.8574H11.8431H11.8288H11.8144H11.8001H11.7858H11.7714H11.7571H11.7427H11.7283H11.714H11.6996H11.6853H11.6709H11.6565H11.6421H11.6277H11.6134H11.599H11.5846H11.5702H11.5558H11.5414H11.527H11.5126H11.4981H11.4837H11.4693H11.4549H11.4404H11.426H11.4116H11.3971H11.3827H11.3683H11.3538H11.3394H11.3249H11.3104H11.296H11.2815H11.267H11.2526H11.2381H11.2236H11.2091H11.1947H11.1802H11.1657H11.1512H11.1367H11.1222H11.1077H11.0932H11.0787H11.0642H11.0497H11.0351H11.0206H11.0061H10.9916H10.977H10.9625H10.948H10.9334H10.9189H10.9044H10.8898H10.8753H10.8607H10.8461H10.8316H10.817H10.8025H10.7879H10.7733H10.7588H10.7442H10.7296H10.715H10.7004H10.6859H10.6713H10.6567H10.6421H10.6275H10.6129H10.5983H10.5837H10.5691H10.5545H10.5399H10.5253H10.5106H10.496H10.4814H10.4668H10.4521H10.4375H10.4229H10.4083H10.3936H10.379H10.3643H10.3497H10.335H10.3204H10.3058H10.2911H10.2764H10.2618H10.2471H10.2325H10.2178H10.2031H10.1885H10.1738H10.1591H10.1445H10.1298H10.1151H10.1004H10.0857H10.071H10.0564H10.0417H10.027H10.0123H9.99759H9.98289H9.96819H9.95349H9.93878H9.92408H9.90937H9.89466H9.87995H9.86523H9.85052H9.8358H9.82108H9.80636H9.79164H9.77692H9.76219H9.74746H9.73273H9.718H9.70326H9.68853H9.67379H9.65905H9.64431H9.62957H9.61483H9.60008H9.58533H9.57058H9.55583H9.54108H9.52633H9.51157H9.49682H9.48206H9.4673H9.45253H9.43777H9.42301H9.40824H9.39347H9.3787H9.36393H9.34916H9.33439H9.31961H9.30484H9.29006H9.27528H9.2605H9.24572H9.23093H9.21615H9.20136H9.18658H9.17179H9.157H9.14221H9.12742H9.11262H9.09783H9.08303H9.06824H9.05344H9.03864H9.02384H9.00904H8.99423H8.97943H8.96463H8.94982H8.93501H8.92021H8.9054H8.89059H8.87578H8.86096H8.84615H8.83134H8.81652H8.80171H8.78689H8.77207H8.75725H8.74243H8.72761H8.71279H8.69797H8.68315H8.66832H8.6535H8.63867H8.62385H8.60902H8.59419H8.57936H8.56453H8.5497H8.53487H8.52004H8.50521H8.49038H8.47554H8.46071H8.44588H8.43104H8.41621H8.40137H8.38653H8.3717H8.35686H8.34202H8.32718H8.31234H8.2975H8.28266H8.26782H8.25298H8.23814H8.2233H8.20845H8.19361H8.17877H8.16392H8.14908H8.13424H8.11939H8.10455H8.0897H8.07486H8.06001H8.04517H8.03032H8.01547H8.00063H7.98578H7.97093H7.95609H7.94124H7.92639H7.91154H7.8967H7.88185H7.867H7.85215H7.8373H7.82246H7.80761H7.79276H7.77791H7.76306H7.74822H7.73337H7.71852H7.70367H7.68882H7.67398H7.65913H7.64428H7.62943H7.61459H7.59974H7.58489H7.57005H7.5552H7.54035H7.52551H7.51066H7.49582H7.48097H7.46612H7.45128H7.43644H7.42159H7.40675H7.3919H7.37706H7.36222H7.34738H7.33253H7.31769H7.30285H7.28801H7.27317H7.25833H7.24349H7.22865H7.21381H7.19898H7.18414H7.1693H7.15447H7.13963H7.1248H7.10996H7.09513H7.0803H7.06546H7.05063H7.0358H7.02097H7.00614H6.99131H6.97648H6.96166H6.94683H6.932H6.91718H6.90235H6.88753H6.87271H6.85789H6.84306H6.82824H6.81342H6.79861H6.78379H6.76897H6.75416H6.73934H6.72453H6.70972H6.6949H6.68009H6.66528H6.65047H6.63567H6.62086H6.60831L7.89806 10.897L7.10257 10.1015L4.85256 12.3515L4.48424 12.7198L4.82323 13.1153L7.07323 15.7403L7.9274 15.0081Z" fill="#1E1E1E"/>
</g>
</svg>
