<?xml version="1.0" encoding="UTF-8"?>
<svg width="206px" height="132px" viewBox="0 0 206 132" version="1.1" xmlns="http://www.w3.org/2000/svg" xmlns:xlink="http://www.w3.org/1999/xlink">
    <!-- Generator: Sketch 46 (44423) - http://www.bohemiancoding.com/sketch -->
    <title>check email</title>
    <desc>Created with Sketch.</desc>
    <defs>
        <polygon id="path-1" points="191.813 0.2775 191.813 2.5395 0.339167401 2.5395 0.339167401 0.2775 191.813 0.2775"></polygon>
        <polygon id="path-3" points="0 131.604 205.813 131.604 205.813 0 0 0"></polygon>
    </defs>
    <g id="NUX" stroke="none" stroke-width="1" fill="none" fill-rule="evenodd">
        <g id="Log-In" transform="translate(-1426.000000, -1640.000000)">
            <g id="log-in-copy-7" transform="translate(1270.000000, 1499.000000)">
                <g id="Bitmap" transform="translate(0.000000, 36.000000)">
                    <g id="check-email" transform="translate(156.000000, 105.000000)">
                        <g id="Group-3" transform="translate(14.000000, 128.604000)">
                            <mask id="mask-2" fill="white">
                                <use xlink:href="#path-1"></use>
                            </mask>
                            <g id="Clip-2"></g>
                            <path d="M0.5323,1.2085 C16.4393,0.6575 32.3463,0.5415 48.2553,0.4035 L95.9763,0.2775 C127.7923,0.3975 159.6063,0.3285 191.4223,1.0085 C191.6423,1.0135 191.8173,1.1965 191.8133,1.4175 C191.8083,1.6325 191.6353,1.8045 191.4223,1.8095 C159.6063,2.4875 127.7923,2.4195 95.9763,2.5395 L48.2553,2.4135 C32.3463,2.2755 16.4393,2.1595 0.5323,1.6085 C0.4223,1.6045 0.3353,1.5125 0.3393,1.4015 C0.3433,1.2965 0.4283,1.2125 0.5323,1.2085" id="Fill-1" fill="#F6F6F6" mask="url(#mask-2)"></path>
                        </g>
                        <path d="M55.6593,130.0127 L56.7523,43.2617 L56.7523,38.9007 C56.7523,35.0927 59.8393,32.0047 63.6463,32.0047 L165.6373,32.0047 C169.4443,32.0047 172.5303,35.0927 172.5303,38.9007 L172.5303,130.0407 L67.1973,130.0407" id="Fill-4" fill="#CCCED0"></path>
                        <path d="M161.7208,95.5449 L68.8168,95.5449 L68.8168,72.8159 C68.8168,66.0209 74.3258,60.5109 81.1218,60.5109 L161.7208,60.5109 L161.7208,95.5449 Z" id="Fill-6" fill="#46799A"></path>
                        <path d="M127.0812,130.0127 L68.8162,130.0127 L68.8162,118.2007 C68.8162,111.4057 74.3252,105.8957 81.1222,105.8957 L127.0812,105.8957 L127.0812,130.0127 Z" id="Fill-8" fill="#6F93AD"></path>
                        <path d="M161.7208,130.0127 L137.1748,130.0127 L137.1748,118.2007 C137.1748,111.4057 142.6848,105.8957 149.4818,105.8957 L161.7208,105.8957 L161.7208,130.0127 Z" id="Fill-10" fill="#6F93AD"></path>
                        <path d="M56.7325,50.0674 L56.7325,43.8224 L56.7325,38.6454 C56.7325,34.1254 59.8195,30.4604 63.6275,30.4604 L165.6345,30.4604 C169.4435,30.4604 172.5305,34.1254 172.5305,38.6454 L172.5305,50.0674 L56.7325,50.0674 Z" id="Fill-12" fill="#6F93AD"></path>
                        <path d="M175.7032,50.0635 C165.4882,50.8725 155.2742,50.8125 145.0592,50.8605 L114.4162,50.9955 L83.7722,50.8605 C73.5582,50.8125 63.3442,50.8735 53.1302,50.0635 L53.1302,49.5635 C63.3442,48.7535 73.5582,48.8145 83.7722,48.7675 L114.4162,48.6325 L145.0592,48.7675 C155.2742,48.8145 165.4882,48.7555 175.7032,49.5635 L175.7032,50.0635 Z" id="Fill-14" fill="#204A69"></path>
                        <path d="M142.1427,99.3721 L165.5467,99.3721 C172.8917,102.6511 180.7177,105.3341 180.7177,105.3341 C180.7177,105.3341 178.4957,103.2111 177.3287,99.3721 L181.2987,99.3721 C184.6297,99.3721 187.3307,96.6721 187.3307,93.3411 L187.3307,82.2561 C187.3307,78.9251 184.6297,76.2251 181.2987,76.2251 L142.1427,76.2251 C138.8127,76.2251 136.1127,78.9251 136.1127,82.2561 L136.1127,93.3411 C136.1127,96.6721 138.8127,99.3721 142.1427,99.3721" id="Fill-16" fill="#FFFFFF"></path>
                        <path d="M142.1437,99.5713 C139.9137,99.6043 137.7127,98.3403 136.6237,96.3653 C136.0857,95.3863 135.7937,94.2473 135.8197,93.1383 L135.7967,89.9143 L135.7607,83.4663 C135.7587,82.4253 135.6897,81.2393 136.1047,80.1593 C136.4677,79.0763 137.1387,78.1063 138.0047,77.3613 C138.8767,76.6313 139.9417,76.1023 141.0757,75.9243 C142.2417,75.7533 143.2757,75.8433 144.3597,75.8073 L150.8087,75.7603 L163.7057,75.7073 L176.6037,75.6783 L179.8287,75.6723 L181.4537,75.6753 C182.0397,75.6843 182.6227,75.7853 183.1877,75.9443 C185.4527,76.6063 187.2717,78.5603 187.7507,80.8793 C187.8667,81.4413 187.9097,82.0763 187.8997,82.5993 L187.8977,84.2123 L187.8927,87.4353 C187.8757,89.6073 187.9167,91.6863 187.8537,93.9333 C187.6537,96.2823 186.0937,98.4473 183.9247,99.3643 C183.3827,99.5843 182.8207,99.7683 182.2377,99.8363 C181.6477,99.9253 181.0727,99.9063 180.5527,99.9073 L177.3287,99.9013 L177.8347,99.2173 C178.1617,100.2833 178.5977,101.3173 179.1407,102.2913 C179.4117,102.7783 179.7127,103.2483 180.0367,103.7003 C180.3557,104.1453 180.7187,104.5973 181.0767,104.9593 L181.0897,104.9723 C181.2897,105.1753 181.2897,105.5033 181.0857,105.7043 C180.9407,105.8473 180.7307,105.8873 180.5497,105.8243 C175.4077,104.0083 170.3287,102.0483 165.3557,99.8013 L165.5467,99.8423 C157.7467,99.7863 149.9447,99.6883 142.1437,99.4713 L142.1437,99.5713 Z M142.1437,99.2713 C149.9447,99.0543 157.7467,98.9573 165.5467,98.9013 C165.6127,98.9003 165.6737,98.9143 165.7297,98.9373 L165.7397,98.9423 C170.7057,101.0983 175.7727,103.0633 180.8857,104.8433 L180.3607,105.7093 C179.9047,105.2513 179.5467,104.7983 179.1907,104.3093 C178.8417,103.8253 178.5177,103.3243 178.2277,102.8033 C177.6437,101.7643 177.1747,100.6633 176.8217,99.5253 C176.7357,99.2483 176.8907,98.9523 177.1687,98.8663 C177.2197,98.8503 177.2777,98.8423 177.3287,98.8423 L180.5527,98.8363 C181.1067,98.8343 181.6127,98.8463 182.0847,98.7703 C182.5727,98.7143 183.0397,98.5543 183.4917,98.3723 C185.2997,97.5983 186.5907,95.7853 186.7507,93.8353 C186.7977,91.7853 186.7587,89.5633 186.7667,87.4353 L186.7627,84.2123 L186.7607,82.5993 C186.7707,82.0483 186.7337,81.6063 186.6417,81.1143 C186.2517,79.1983 184.7437,77.5683 182.8687,77.0143 C182.3997,76.8823 181.9157,76.7963 181.4267,76.7883 L179.8287,76.7773 L176.6037,76.7703 L163.7057,76.7423 L150.8087,76.6893 L144.3597,76.6413 C143.2987,76.6593 142.1687,76.5623 141.2067,76.7053 C140.2107,76.8503 139.2737,77.3073 138.4977,77.9433 C137.7277,78.5933 137.1257,79.4443 136.7957,80.3993 C136.4197,81.3493 136.4717,82.3713 136.4627,83.4663 L136.4267,89.9143 L136.4047,93.1383 C136.3647,94.1823 136.6087,95.1973 137.0837,96.1123 C138.0467,97.9423 140.0547,99.1603 142.1437,99.1723 L142.1437,99.2713 Z" id="Fill-18" fill="#CCCED0"></path>
                        <path d="M169.5138,88.292 C169.5138,89.359 170.3788,90.225 171.4468,90.225 C172.5138,90.225 173.3788,89.359 173.3788,88.292 C173.3788,87.224 172.5138,86.358 171.4468,86.358 C170.3788,86.358 169.5138,87.224 169.5138,88.292" id="Fill-20" fill="#CCCED0"></path>
                        <path d="M159.8888,88.292 C159.8888,89.359 160.7538,90.225 161.8218,90.225 C162.8888,90.225 163.7538,89.359 163.7538,88.292 C163.7538,87.224 162.8888,86.358 161.8218,86.358 C160.7538,86.358 159.8888,87.224 159.8888,88.292" id="Fill-22" fill="#CCCED0"></path>
                        <path d="M150.2638,88.292 C150.2638,89.359 151.1288,90.225 152.1968,90.225 C153.2638,90.225 154.1288,89.359 154.1288,88.292 C154.1288,87.224 153.2638,86.358 152.1968,86.358 C151.1288,86.358 150.2638,87.224 150.2638,88.292" id="Fill-24" fill="#CCCED0"></path>
                        <polygon id="Fill-26" fill="#FFFFFF" points="79.5079 131.042 34.0479 131.042 33.9569 102.09 79.4159 102.09"></polygon>
                        <path d="M79.3663,130.9707 L79.3663,130.9017 L78.9863,102.0917 L79.4163,102.5207 C64.2623,102.6467 49.1103,102.6047 33.9573,102.6557 L34.5223,102.0877 L34.5533,131.0397 L34.0483,130.5357 L56.6283,130.6817 L79.3663,130.9707 Z M79.6493,131.1127 L79.5783,131.1127 L56.9283,131.4037 L34.0483,131.5477 C33.7703,131.5497 33.5443,131.3257 33.5423,131.0487 L33.5423,131.0437 L33.3903,102.0917 C33.3883,101.7807 33.6393,101.5267 33.9513,101.5247 L33.9573,101.5247 C49.1103,101.5747 64.2623,101.5337 79.4163,101.6587 L79.4243,101.6587 C79.6593,101.6607 79.8483,101.8537 79.8463,102.0887 L79.6493,131.1127 Z" id="Fill-28" fill="#CCCED0"></path>
                        <polyline id="Fill-30" fill="#FFFFFF" points="35.7169 104.8799 56.1779 117.2709 77.8259 104.0649"></polyline>
                        <path d="M35.7687,104.794 C37.5567,105.69 39.3057,106.65 41.0457,107.624 C42.7767,108.615 44.5097,109.601 46.2147,110.633 L51.3517,113.694 C53.0717,114.703 54.7537,115.773 56.4557,116.81 L55.8977,116.811 L66.7647,110.277 C70.3897,108.104 74.0477,105.985 77.7227,103.894 C77.8187,103.839 77.9407,103.872 77.9957,103.969 C78.0477,104.061 78.0187,104.178 77.9307,104.235 C74.3897,106.545 70.8317,108.828 67.2397,111.057 L56.4577,117.73 C56.2827,117.838 56.0647,117.829 55.8987,117.731 C54.1917,116.702 52.4637,115.706 50.7737,114.65 L45.6797,111.517 C43.9757,110.483 42.2987,109.403 40.6187,108.33 C38.9497,107.238 37.2887,106.133 35.6647,104.965 C35.6207,104.933 35.6107,104.87 35.6427,104.825 C35.6717,104.784 35.7257,104.773 35.7687,104.794" id="Fill-32" fill="#CCCED0"></path>
                        <mask id="mask-4" fill="white">
                            <use xlink:href="#path-3"></use>
                        </mask>
                        <g id="Clip-35"></g>
                        <polygon id="Fill-34" fill="#FFFFFF" mask="url(#mask-4)" points="20.29 131.042 26.852 131.042 26.852 81.095 20.29 81.095"></polygon>
                        <path d="M26.7111,130.9697 L26.7111,130.9007 L26.4311,105.8937 C26.3281,97.5997 26.3361,89.3597 26.3031,81.0947 L26.8521,81.6437 L20.2891,81.6597 L20.8551,81.0947 L20.8001,106.0687 L20.7201,118.5547 C20.6971,122.7177 20.6111,126.8797 20.5471,131.0417 L20.2891,130.7837 L26.7111,130.9697 Z M26.9941,131.1117 L26.9231,131.1137 L20.2891,131.2997 C20.1511,131.3037 20.0361,131.1947 20.0321,131.0567 L20.0311,131.0547 L20.0311,131.0417 C19.9671,126.8797 19.8801,122.7177 19.8581,118.5547 L19.7781,106.0687 L19.7241,81.0947 C19.7231,80.7817 19.9751,80.5297 20.2861,80.5287 L20.2891,80.5287 L26.8521,80.5447 C27.1541,80.5437 27.4001,80.7877 27.4011,81.0897 L27.4011,81.0947 C27.3681,89.4787 27.3761,97.8877 27.2731,106.2417 L26.9941,131.1117 Z" id="Fill-36" fill="#CCCED0" mask="url(#mask-4)"></path>
                        <path d="M2.5695,100.2754 L91.8715,7.7024" id="Fill-37" fill="#FFFFFF" mask="url(#mask-4)"></path>
                        <path d="M2.4972,100.2061 C9.7412,92.3011 17.1422,84.5461 24.5332,76.7831 L46.8132,53.5971 L69.1972,30.5101 C76.7072,22.8601 84.1502,15.1471 91.7272,7.5631 C91.8062,7.4851 91.9332,7.4851 92.0112,7.5631 C92.0872,7.6401 92.0882,7.7631 92.0162,7.8421 C84.7092,15.6861 77.2682,23.4021 69.8942,31.1821 L47.6282,54.3821 L25.2572,77.4811 C17.7652,85.1471 10.2812,92.8211 2.6422,100.3451 C2.6022,100.3841 2.5392,100.3831 2.5002,100.3441 C2.4632,100.3061 2.4622,100.2451 2.4972,100.2061" id="Fill-38" fill="#CCCED0" mask="url(#mask-4)"></path>
                        <path d="M29.6935,79.8037 C29.6935,83.0907 27.0295,85.7557 23.7415,85.7557 C20.4545,85.7557 17.7895,83.0907 17.7895,79.8037 C17.7895,76.5157 20.4545,73.8517 23.7415,73.8517 C27.0295,73.8517 29.6935,76.5157 29.6935,79.8037" id="Fill-39" fill="#FFFFFF" mask="url(#mask-4)"></path>
                        <path d="M29.4943,79.8037 C29.4413,78.2897 28.7563,76.8557 27.6883,75.8567 C26.6173,74.8577 25.1753,74.3067 23.7413,74.3377 C22.3083,74.3627 20.9023,74.9477 19.9073,75.9697 C18.9053,76.9817 18.3393,78.3897 18.3543,79.8037 C18.3533,81.2157 18.9093,82.6207 19.9133,83.6317 C20.9063,84.6487 22.3103,85.2457 23.7413,85.2527 C25.1733,85.2887 26.6103,84.7407 27.6823,83.7437 C28.7663,82.7607 29.4593,81.3347 29.5943,79.8037 L29.4943,79.8037 Z M29.7943,79.8037 C29.9393,81.3937 29.3503,83.0647 28.2193,84.2807 C27.0923,85.4997 25.4323,86.2327 23.7413,86.2577 C22.0513,86.2767 20.3583,85.5917 19.1523,84.3927 C17.9403,83.2037 17.2143,81.5127 17.2233,79.8037 C17.2283,78.0957 17.9433,76.4077 19.1573,75.2197 C20.3623,74.0257 22.0533,73.3297 23.7413,73.3647 C25.4303,73.3847 27.0843,74.1167 28.2123,75.3317 C29.3603,76.5327 29.9573,78.1947 29.8933,79.8037 L29.7943,79.8037 Z" id="Fill-40" fill="#CCCED0" mask="url(#mask-4)"></path>
                        <path d="M46.1251,131.042 L0.5651,131.042 L0.5651,130.728 C0.5651,127.186 3.4371,124.313 6.9791,124.313 L39.7111,124.313 C43.2541,124.313 46.1251,127.186 46.1251,130.728 L46.1251,131.042 Z" id="Fill-41" fill="#FFFFFF" mask="url(#mask-4)"></path>
                        <path d="M46.0177,130.9707 L45.9837,130.9007 C45.9287,130.7847 45.9197,130.7977 45.9137,130.6277 L45.8877,130.2237 C45.8677,129.9547 45.8107,129.6907 45.7617,129.4267 C45.6287,128.9067 45.4567,128.3947 45.1987,127.9237 C44.7007,126.9757 43.9407,126.1717 43.0457,125.6027 C42.1437,125.0397 41.1037,124.7067 40.0467,124.6717 C38.9707,124.6487 37.8287,124.6837 36.7217,124.6877 L23.3457,124.8147 L9.9687,124.8527 C8.8687,124.8637 7.7087,124.8417 6.6557,124.8787 C5.6337,124.9237 4.6417,125.2697 3.7887,125.8217 C2.0727,126.9487 1.0347,128.9447 1.1277,131.0417 L0.5657,130.4807 L23.1587,130.5897 L34.5327,130.7427 L46.0177,130.9707 Z M46.2807,131.1117 L46.1967,131.1137 L34.9387,131.3407 L23.5327,131.4937 L0.5657,131.6037 C0.2627,131.6057 0.0157,131.3657 0.0047,131.0657 L0.0037,131.0417 C-0.0353,129.8867 0.2037,128.6187 0.7667,127.5517 C1.3177,126.4707 2.1657,125.5477 3.1787,124.8867 C4.1987,124.2337 5.3857,123.8317 6.5957,123.7837 C7.7697,123.7497 8.8407,123.7797 9.9687,123.7747 L23.3457,123.8127 L36.7217,123.9397 C37.8447,123.9587 38.9337,123.9437 40.0837,123.9907 C41.2587,124.0497 42.3997,124.4627 43.3707,125.1057 C44.3337,125.7577 45.1317,126.6577 45.6397,127.6977 C45.9047,128.2137 46.0757,128.7707 46.2007,129.3327 C46.2457,129.6167 46.2957,129.9027 46.3107,130.1897 L46.3267,130.6207 C46.3387,130.7147 46.3177,130.9457 46.2807,131.1117 L46.2807,131.1117 Z" id="Fill-42" fill="#CCCED0" mask="url(#mask-4)"></path>
                        <path d="M88.716,14.7373 L86.286,10.3873 C84.567,7.5353 85.217,3.9893 87.74,2.4683 L89.824,1.2123 C92.348,-0.3087 95.787,0.7703 97.507,3.6233 L99.937,7.9723" id="Fill-43" fill="#FFFFFF" mask="url(#mask-4)"></path>
                        <path d="M88.629,14.7861 C87.91,13.7441 87.231,12.6811 86.566,11.6101 C86.228,11.0761 85.896,10.5571 85.571,9.9611 C85.263,9.3651 85.049,8.7181 84.919,8.0531 C84.673,6.7171 84.88,5.2851 85.525,4.0521 C85.847,3.4351 86.296,2.8761 86.842,2.4311 C87.419,1.9741 87.949,1.6831 88.49,1.3551 C89.041,1.0431 89.54,0.7001 90.214,0.4071 C90.861,0.1331 91.565,-0.0029 92.259,0.0001 C93.648,0.0081 95.015,0.4831 96.07,1.3361 C96.601,1.7571 97.077,2.2421 97.466,2.7901 C97.872,3.3561 98.118,3.9261 98.415,4.4841 C99.002,5.6031 99.554,6.7411 100.111,7.8751 C100.16,7.9741 100.119,8.0951 100.021,8.1431 C99.928,8.1881 99.817,8.1551 99.763,8.0701 C99.09,7.0031 98.412,5.9381 97.768,4.8561 C97.443,4.3181 97.119,3.7591 96.77,3.3111 C96.406,2.8461 95.971,2.4441 95.498,2.1031 C94.552,1.4241 93.406,1.0331 92.274,1.0561 C91.708,1.0641 91.15,1.1851 90.641,1.4141 C90.159,1.6291 89.611,2.0021 89.074,2.3251 C88.546,2.6611 87.954,2.9631 87.542,3.2911 C87.104,3.6331 86.736,4.0691 86.465,4.5651 C85.92,5.5541 85.72,6.7491 85.895,7.8991 C85.969,8.4751 86.114,9.0511 86.351,9.5931 L87.177,11.2591 C87.741,12.3901 88.292,13.5291 88.804,14.6881 C88.825,14.7391 88.803,14.7991 88.752,14.8211 C88.707,14.8411 88.655,14.8251 88.629,14.7861" id="Fill-44" fill="#CCCED0" mask="url(#mask-4)"></path>
                        <path d="M92.8527,38.9668 L88.4637,31.6878 C84.1947,24.6048 85.7467,15.8418 91.9297,12.1128 L97.0377,9.0348 C103.2207,5.3068 111.6947,8.0268 115.9637,15.1088 L120.3527,22.3888" id="Fill-45" fill="#FFFFFF" mask="url(#mask-4)"></path>
                        <path d="M92.7667,39.0186 C91.2007,36.6996 89.6767,34.3546 88.1757,31.9966 C86.6657,29.5806 85.6927,26.7726 85.5647,23.8846 C85.4287,21.0076 86.0937,18.0506 87.6537,15.5746 C88.4297,14.3386 89.4267,13.2366 90.5937,12.3496 C91.1747,11.8946 91.8147,11.5336 92.3967,11.1726 L94.1917,10.0896 C95.4157,9.3866 96.5287,8.6256 97.8727,7.9706 C99.2017,7.3526 100.6407,6.9856 102.0947,6.8756 C105.0107,6.6546 107.9367,7.4436 110.4127,8.9096 C112.8937,10.3846 114.9477,12.5256 116.3777,14.9956 C117.7797,17.4136 119.1637,19.8416 120.5247,22.2856 C120.5787,22.3816 120.5427,22.5026 120.4467,22.5576 C120.3547,22.6086 120.2387,22.5786 120.1817,22.4916 C118.6567,20.1476 117.1557,17.7896 115.6707,15.4206 C114.2397,13.0946 112.2707,11.1056 109.9127,9.7676 C107.5757,8.4166 104.8507,7.7096 102.1797,7.9366 C100.8477,8.0476 99.5407,8.3936 98.3377,8.9646 C97.1717,9.5396 95.9667,10.3596 94.7757,11.0586 C93.6087,11.7976 92.3147,12.4726 91.2647,13.2376 C90.1997,14.0346 89.2837,15.0276 88.5637,16.1536 C87.1187,18.4076 86.4687,21.1456 86.5757,23.8416 C86.6757,26.5456 87.4767,29.2226 88.8717,31.5776 C90.2557,34.0056 91.6197,36.4476 92.9387,38.9146 C92.9637,38.9636 92.9457,39.0246 92.8977,39.0506 C92.8517,39.0756 92.7947,39.0606 92.7667,39.0186" id="Fill-46" fill="#CCCED0" mask="url(#mask-4)"></path>
                        <path d="M90.0929,40.6484 L122.1809,21.3034" id="Fill-47" fill="#FFFFFF" mask="url(#mask-4)"></path>
                        <path d="M90.0412,40.5625 C92.5732,38.7145 95.2172,37.0525 97.8552,35.3815 L105.8452,30.4915 C111.2242,27.3195 116.5542,24.0655 122.0772,21.1325 C122.1752,21.0815 122.2962,21.1185 122.3482,21.2155 C122.3962,21.3065 122.3662,21.4185 122.2832,21.4755 C117.1112,24.9905 111.7452,28.1845 106.4292,31.4605 L98.3742,36.2425 C95.6652,37.7945 92.9612,39.3575 90.1452,40.7335 C90.0952,40.7575 90.0342,40.7375 90.0102,40.6875 C89.9882,40.6435 90.0032,40.5905 90.0412,40.5625" id="Fill-48" fill="#CCCED0" mask="url(#mask-4)"></path>
                        <polygon id="Fill-49" fill="#6F93AD" mask="url(#mask-4)" points="83.3663 85.3731 92.4513 71.9791 102.8413 85.3731"></polygon>
                    </g>
                </g>
            </g>
        </g>
    </g>
</svg>