<svg xmlns="http://www.w3.org/2000/svg" xmlns:xlink="http://www.w3.org/1999/xlink" width="272" height="135" viewBox="0 0 272 135"><path fill="#EAEAEA" d="M272 135H0V37C0 16.6 16.6 0 37 0h198c20.4 0 37 16.6 37 37v98z"/><path fill="#FFF" d="M8 44h256v90H8z"/><g fill="#8B8A8A"><path d="M74.5 70.8h1.7l-2.7 7.9h-1.8L69 70.8h1.7l1.5 4.7c.1.3.2.6.3 1 .1.4.1.6.2.8 0-.3.2-.9.4-1.7l1.4-4.8zM79.7 78.8c-1 0-1.7-.3-2.3-.8s-.8-1.3-.8-2.3c0-1 .3-1.8.8-2.3.5-.5 1.2-.8 2.1-.8.8 0 1.5.2 2 .7s.7 1.2.7 2v.8h-3.9c0 .5.2.8.4 1.1s.6.4 1.1.4c.4 0 .7 0 1-.1s.7-.2 1-.4v1.3l-.9.3c-.3 0-.7.1-1.2.1zm-.2-5.1c-.3 0-.6.1-.8.3-.2.2-.3.5-.3.9h2.3c0-.4-.1-.7-.3-.9-.3-.2-.6-.3-.9-.3zM87 72.5h.6l-.1 1.5c-.1 0-.3-.1-.5-.1-.5 0-.9.1-1.2.4-.3.3-.4.6-.4 1.1v3.1h-1.6v-6H85l.2 1h.1c.2-.3.4-.6.8-.8.2 0 .6-.2.9-.2zM88.8 71.1c0-.5.3-.8.9-.8s.9.3.9.8c0 .3-.1.5-.2.6-.1.1-.4.2-.7.2-.6 0-.9-.3-.9-.8zm1.7 7.6h-1.6v-6h1.6v6zM95.8 73.9h-1.4v4.8h-1.6v-4.8h-.9v-.8l.9-.4v-.4c0-.7.2-1.2.5-1.5s.9-.5 1.6-.5c.6 0 1.1.1 1.5.3l-.4 1.2c-.3-.1-.6-.2-.9-.2-.2 0-.4.1-.5.2-.1.1-.2.3-.2.5v.4h1.4v1.2z"/><path d="M96 72.7h1.8L99 76c.1.3.2.6.2 1 0-.4.1-.7.2-1l1.1-3.4h1.8l-2.5 6.8c-.2.6-.6 1.1-1 1.4-.4.3-.9.5-1.5.5-.3 0-.6 0-.8-.1v-1.3c.2 0 .4.1.6.1.3 0 .5-.1.8-.3.2-.2.4-.4.5-.8l.1-.3-2.5-5.9zM110.6 76.9c0 .6-.2 1.1-.6 1.4-.4.3-1.1.5-1.9.5-.4 0-.8 0-1.1-.1-.3-.1-.6-.1-.9-.3V77c.3.1.6.3 1 .4.4.1.7.1 1 .1.6 0 .9-.2.9-.5 0-.1 0-.2-.1-.3-.1-.1-.2-.2-.4-.3-.2-.1-.5-.2-.8-.4-.5-.2-.8-.4-1-.5-.2-.2-.4-.4-.5-.6-.1-.2-.1-.5-.1-.8 0-.5.2-.9.6-1.2.4-.3 1-.4 1.8-.4.7 0 1.4.2 2.1.5l-.5 1.2c-.3-.1-.6-.2-.8-.3s-.5-.1-.8-.1c-.5 0-.7.1-.7.4 0 .1.1.3.2.4.2.1.5.3 1 .5s.8.4 1 .5.4.4.5.6.1.4.1.7zM112 71.1c0-.5.3-.8.9-.8s.9.3.9.8c0 .3-.1.5-.2.6-.1.1-.4.2-.7.2-.6 0-.9-.3-.9-.8zm1.7 7.6h-1.6v-6h1.6v6zM120.9 72.7v.8l-.9.2c.2.3.3.6.3.9 0 .6-.2 1.1-.7 1.5-.4.4-1.1.5-1.9.5h-.5c-.2.1-.3.3-.3.4 0 .2.3.4.9.4h1c.7 0 1.2.1 1.5.4.3.3.5.7.5 1.2 0 .7-.3 1.2-.9 1.6-.6.4-1.4.6-2.5.6-.8 0-1.5-.1-1.9-.4-.4-.3-.7-.7-.7-1.2 0-.4.1-.7.3-.9s.6-.4 1-.5c-.2-.1-.3-.2-.4-.4-.1-.2-.2-.3-.2-.5s.1-.4.2-.6c.1-.2.3-.3.6-.4-.3-.1-.6-.4-.7-.7-.2-.3-.3-.7-.3-1.1 0-.7.2-1.2.6-1.5s1-.5 1.8-.5h.6c.2 0 .4.1.4.1h2.2zm-4.7 6.8c0 .2.1.4.3.5.2.1.5.2.9.2.6 0 1-.1 1.4-.2s.5-.4.5-.7c0-.2-.1-.4-.3-.5s-.5-.1-.9-.1h-.8c-.3 0-.6.1-.8.2-.2.2-.3.4-.3.6zm.6-4.9c0 .3.1.6.2.8.1.2.4.3.7.3.3 0 .5-.1.7-.3s.2-.4.2-.8c0-.7-.3-1.1-.9-1.1-.6 0-.9.4-.9 1.1zM127.6 78.7H126v-3.5c0-.4-.1-.8-.2-1-.2-.2-.4-.3-.7-.3-.5 0-.8.2-1 .5-.2.3-.3.8-.3 1.5v2.8H122v-6h1.3l.2.8h.1c.2-.3.4-.5.8-.7.3-.1.7-.2 1.1-.2.7 0 1.2.2 1.6.6.4.4.5.9.5 1.6v3.9zM132.5 71.1c0-.5.3-.8.9-.8s.9.3.9.8c0 .3-.1.5-.2.6-.1.1-.4.2-.7.2-.6 0-.9-.3-.9-.8zm1.7 7.6h-1.6v-6h1.6v6zM141.6 78.7H140v-3.5c0-.4-.1-.8-.2-1-.2-.2-.4-.3-.7-.3-.5 0-.8.2-1 .5-.2.3-.3.8-.3 1.5v2.8h-1.6v-6h1.3l.2.8h.1c.2-.3.4-.5.8-.7.3-.1.7-.2 1.1-.2.7 0 1.2.2 1.6.6.4.4.5.9.5 1.6v3.9z"/><g><path d="M74.5 91.2c0 .7-.3 1.2-.8 1.6s-1.2.6-2 .6c-.9 0-1.6-.1-2.1-.4v-.9c.3.1.7.2 1.1.3.4.1.8.1 1.1.1.6 0 1.1-.1 1.4-.3.3-.2.5-.6.5-1 0-.3-.1-.5-.2-.7-.1-.2-.3-.3-.5-.5-.3-.1-.6-.3-1.2-.5-.7-.3-1.3-.6-1.6-.9-.3-.4-.5-.8-.5-1.4 0-.6.2-1.1.7-1.4s1.1-.5 1.8-.5c.8 0 1.5.1 2.2.4l-.4.9c-.6-.3-1.3-.4-1.9-.4-.5 0-.9.1-1.1.3s-.4.5-.4.9c0 .3.1.5.2.7.1.2.3.3.5.5.2.1.6.3 1.1.5.8.3 1.4.6 1.7.9.3.3.4.7.4 1.2zM75.9 85.9c0-.2.1-.4.2-.4.1-.1.2-.1.4-.1.1 0 .3 0 .4.1s.2.2.2.4-.1.4-.2.4c-.1.1-.2.1-.4.1s-.3 0-.4-.1c-.1-.1-.2-.2-.2-.4zm1 7.4H76v-5.9h.9v5.9zM83.6 87.4v.6l-1.1.1c.1.1.2.3.3.5.1.2.1.4.1.7 0 .6-.2 1-.6 1.4s-.9.5-1.6.5h-.5c-.4.2-.6.5-.6.8 0 .2.1.3.2.4s.4.1.7.1h1c.6 0 1.1.1 1.5.4.3.3.5.7.5 1.2 0 .7-.3 1.1-.8 1.5s-1.3.4-2.3.4c-.8 0-1.4-.1-1.8-.4-.4-.3-.6-.7-.6-1.2 0-.4.1-.7.3-.9.2-.3.6-.4 1-.5-.2-.1-.3-.2-.4-.3-.1-.1-.2-.3-.2-.5s.1-.4.2-.6c.1-.2.3-.3.5-.5-.3-.1-.6-.3-.7-.6-.2-.3-.3-.6-.3-1 0-.6.2-1.1.6-1.5.4-.3.9-.5 1.6-.5.3 0 .6 0 .8.1h2.2zm-4.7 6.9c0 .3.1.6.4.7.3.2.7.2 1.2.2.7 0 1.3-.1 1.7-.3.4-.2.5-.5.5-.9 0-.3-.1-.5-.3-.7-.2-.1-.6-.2-1.1-.2h-1.1c-.4 0-.7.1-.9.3s-.4.6-.4.9zm.5-5c0 .4.1.7.3.9.2.2.6.3 1 .3.9 0 1.3-.4 1.3-1.3s-.4-1.3-1.3-1.3c-.4 0-.7.1-1 .3s-.3.7-.3 1.1zM88.8 93.3v-3.8c0-.5-.1-.8-.3-1.1-.2-.2-.6-.4-1-.4-.6 0-1.1.2-1.4.5s-.4.9-.4 1.6v3.1h-.9v-5.9h.7l.1.8c.2-.3.4-.5.8-.7.3-.2.7-.2 1.1-.2.7 0 1.2.2 1.6.5.4.3.5.9.5 1.6v3.8h-.8zM94.3 85.9c0-.2.1-.4.2-.4.1-.1.2-.1.4-.1.1 0 .3 0 .4.1s.2.2.2.4-.1.4-.2.4c-.1.1-.2.1-.4.1s-.3 0-.4-.1c-.1-.1-.2-.2-.2-.4zm1 7.4h-.9v-5.9h.9v5.9zM101.2 93.3v-3.8c0-.5-.1-.8-.3-1.1-.2-.2-.6-.4-1-.4-.6 0-1.1.2-1.4.5s-.4.9-.4 1.6v3.1h-.9v-5.9h.7l.1.8c.2-.3.4-.5.8-.7.3-.2.7-.2 1.1-.2.7 0 1.2.2 1.6.5.4.3.5.9.5 1.6v3.8h-.8zM109.5 87.3c.3 0 .5 0 .7.1l-.1.8c-.2-.1-.5-.1-.6-.1-.5 0-.9.2-1.2.6-.3.4-.5.9-.5 1.4v3.2h-.9v-5.9h.7l.1 1.1c.2-.4.5-.7.8-.9s.6-.3 1-.3zM113.6 93.4c-.9 0-1.6-.3-2.1-.8s-.8-1.3-.8-2.2c0-.9.2-1.7.7-2.3.5-.6 1.1-.8 1.9-.8.7 0 1.3.2 1.8.7.4.5.6 1.1.6 1.9v.6h-4.1c0 .7.2 1.2.5 1.6.3.4.8.5 1.4.5.6 0 1.3-.1 1.9-.4v.8l-.9.3c-.2.1-.5.1-.9.1zm-.3-5.3c-.5 0-.8.2-1.1.5-.3.3-.4.7-.5 1.3h3.1c0-.6-.1-1-.4-1.3-.3-.4-.6-.5-1.1-.5zM119.3 93.4c-.8 0-1.4-.3-1.8-.8-.4-.5-.6-1.3-.6-2.2 0-1 .2-1.7.6-2.3s1-.8 1.8-.8 1.4.3 1.9.9l.1-.8h.7V96h-.9v-2.5c0-.4 0-.7.1-.9h-.1c-.3.5-.9.8-1.8.8zm.2-.7c.6 0 1-.2 1.3-.5s.4-.9.4-1.6v-.2c0-.8-.1-1.4-.4-1.8-.3-.4-.7-.5-1.3-.5-.5 0-.9.2-1.2.6-.3.4-.4 1-.4 1.7s.1 1.3.4 1.7c.2.4.6.6 1.2.6zM124.8 87.4v3.8c0 .5.1.8.3 1.1s.6.4 1 .4c.6 0 1.1-.2 1.4-.5.3-.3.4-.9.4-1.6v-3.1h.9v5.9h-.7l-.1-.8c-.2.3-.4.5-.8.7-.3.2-.7.2-1.1.2-.7 0-1.3-.2-1.6-.5-.4-.3-.5-.9-.5-1.6v-3.9h.8zM133.2 93.4c-.9 0-1.6-.3-2.1-.8s-.8-1.3-.8-2.2c0-.9.2-1.7.7-2.3.5-.6 1.1-.8 1.9-.8.7 0 1.3.2 1.8.7.4.5.6 1.1.6 1.9v.6h-4.1c0 .7.2 1.2.5 1.6.3.4.8.5 1.4.5.6 0 1.3-.1 1.9-.4v.8l-.9.3c-.1.1-.5.1-.9.1zm-.2-5.3c-.5 0-.8.2-1.1.5-.3.3-.4.7-.5 1.3h3.1c0-.6-.1-1-.4-1.3-.3-.4-.7-.5-1.1-.5zM140.7 91.7c0 .5-.2 1-.6 1.3-.4.3-1 .4-1.7.4-.8 0-1.4-.1-1.8-.4v-.8c.3.1.6.3.9.3s.6.1.9.1c.5 0 .8-.1 1.1-.2.2-.1.4-.4.4-.7 0-.2-.1-.4-.3-.6-.2-.2-.6-.4-1.2-.6-.5-.2-.9-.4-1.2-.5-.2-.2-.4-.3-.5-.5-.1-.2-.2-.4-.2-.7 0-.5.2-.9.6-1.1.4-.3.9-.4 1.6-.4.6 0 1.3.1 1.9.4l-.3.7c-.6-.2-1.1-.4-1.6-.4-.4 0-.7.1-1 .2s-.3.3-.3.5 0 .3.1.4c.1.1.2.2.4.3.2.1.5.2 1 .4.7.3 1.2.5 1.4.8s.4.7.4 1.1zM144.1 92.7h.5c.1 0 .3 0 .3-.1v.7c-.1 0-.2.1-.4.1h-.5c-1.1 0-1.7-.6-1.7-1.8v-3.5h-.8v-.4l.8-.4.4-1.3h.5v1.4h1.7v.7h-1.7v3.5c0 .4.1.6.3.8 0 .2.3.3.6.3zM151.5 88.1H150v5.2h-.9v-5.2H148v-.4l1.1-.3v-.3c0-1.4.6-2.2 1.9-2.2.3 0 .7.1 1.1.2l-.2.7c-.3-.1-.6-.2-.9-.2-.3 0-.6.1-.7.3-.2.2-.2.6-.2 1.1v.4h1.5v.7zM155.3 87.3c.3 0 .5 0 .7.1l-.1.8c-.2-.1-.5-.1-.6-.1-.5 0-.9.2-1.2.6-.3.4-.5.9-.5 1.4v3.2h-.9v-5.9h.7l.1 1.1c.2-.4.5-.7.8-.9.3-.2.6-.3 1-.3zM162 90.4c0 1-.2 1.7-.7 2.2-.5.5-1.2.8-2 .8-.5 0-1-.1-1.4-.4-.4-.2-.7-.6-.9-1.1-.2-.5-.3-1-.3-1.6 0-1 .2-1.7.7-2.2.5-.5 1.1-.8 2-.8.8 0 1.5.3 2 .8.3.6.6 1.3.6 2.3zm-4.5 0c0 .8.2 1.3.5 1.7.3.4.7.6 1.3.6s1-.2 1.3-.6c.3-.4.5-1 .5-1.7s-.2-1.3-.5-1.7c-.3-.4-.7-.6-1.3-.6-.6 0-1 .2-1.3.6-.4.4-.5.9-.5 1.7zM171.1 93.3v-3.8c0-.5-.1-.8-.3-1.1-.2-.2-.5-.4-.9-.4-.6 0-1 .2-1.2.5-.3.3-.4.8-.4 1.5v3.3h-.9v-3.8c0-.5-.1-.8-.3-1.1-.2-.2-.5-.4-.9-.4-.6 0-1 .2-1.2.5-.3.3-.4.9-.4 1.6v3.1h-.9v-5.9h.7l.1.8c.2-.3.4-.5.7-.7.3-.2.6-.2 1-.2.9 0 1.5.3 1.8 1 .2-.3.4-.6.8-.7s.7-.3 1.1-.3c.7 0 1.2.2 1.5.5.3.3.5.9.5 1.6v3.8h-.8zM181.2 91.2c0 .7-.3 1.2-.8 1.6s-1.2.6-2 .6c-.9 0-1.6-.1-2.1-.4v-.9c.3.1.7.2 1.1.3.4.1.8.1 1.1.1.6 0 1.1-.1 1.4-.3.3-.2.5-.6.5-1 0-.3-.1-.5-.2-.7s-.3-.3-.5-.5c-.3-.1-.6-.3-1.2-.5-.7-.3-1.3-.6-1.6-.9-.3-.4-.5-.8-.5-1.4 0-.6.2-1.1.7-1.4s1.1-.5 1.8-.5c.8 0 1.5.1 2.2.4l-.3.8c-.6-.3-1.3-.4-1.9-.4-.5 0-.9.1-1.1.3-.3.2-.4.5-.4.9 0 .3 0 .5.2.7.1.2.3.3.5.5.2.1.6.3 1.1.5.8.3 1.4.6 1.7.9.1.4.3.8.3 1.3zM186.3 93.3l-.2-.8c-.3.4-.6.6-.9.7s-.7.2-1.1.2c-.6 0-1-.2-1.4-.5s-.5-.7-.5-1.3c0-1.2 1-1.8 2.9-1.9h1v-.4c0-.5-.1-.8-.3-1-.2-.2-.5-.3-1-.3s-1 .2-1.7.5l-.3-.7c.3-.2.6-.3 1-.4s.7-.1 1-.1c.7 0 1.2.2 1.6.5.3.3.5.8.5 1.5v4h-.6zm-2-.6c.6 0 1-.2 1.3-.5.3-.3.5-.7.5-1.3v-.5h-.9c-.7 0-1.2.1-1.5.3s-.5.5-.5.9c0 .3.1.6.3.7s.4.4.8.4zM192.8 93.3v-3.8c0-.5-.1-.8-.3-1.1-.2-.2-.6-.4-1-.4-.6 0-1.1.2-1.4.5s-.4.9-.4 1.6v3.1h-.9v-5.9h.7l.1.8c.2-.3.4-.5.8-.7.3-.2.7-.2 1.1-.2.7 0 1.2.2 1.6.5.4.3.5.9.5 1.6v3.8h-.8zM199.4 93.3h-.9v-7.9h4.4v.8h-3.5v2.9h3.3v.9h-3.3v3.3zM206.8 87.3c.3 0 .5 0 .7.1l-.1.8c-.2-.1-.5-.1-.6-.1-.5 0-.9.2-1.2.6-.3.4-.5.9-.5 1.4v3.2h-.9v-5.9h.7l.1 1.1c.2-.4.5-.7.8-.9.3-.2.6-.3 1-.3zM212 93.3l-.2-.8c-.3.4-.6.6-.9.7s-.7.2-1.1.2c-.6 0-1-.2-1.4-.5s-.5-.7-.5-1.3c0-1.2 1-1.8 2.9-1.9h1v-.4c0-.5-.1-.8-.3-1-.2-.2-.5-.3-1-.3s-1 .2-1.7.5l-.3-.7c.3-.2.6-.3 1-.4s.7-.1 1-.1c.7 0 1.2.2 1.6.5.3.3.5.8.5 1.5v4h-.6zm-2-.6c.6 0 1-.2 1.3-.5.3-.3.5-.7.5-1.3v-.5h-.9c-.7 0-1.2.1-1.5.3s-.5.5-.5.9c0 .3.1.6.3.7s.4.4.8.4zM218.5 93.3v-3.8c0-.5-.1-.8-.3-1.1-.2-.2-.6-.4-1-.4-.6 0-1.1.2-1.4.5s-.4.9-.4 1.6v3.1h-.9v-5.9h.7l.1.8c.2-.3.4-.5.8-.7.3-.2.7-.2 1.1-.2.7 0 1.2.2 1.6.5.4.3.5.9.5 1.6v3.8h-.8zM223.6 93.4c-.9 0-1.5-.3-2-.8s-.7-1.3-.7-2.2c0-1 .2-1.7.7-2.3s1.2-.8 2-.8c.3 0 .6 0 .8.1.3.1.5.1.7.2l-.3.8c-.2-.1-.4-.1-.6-.2-.2-.1-.4-.1-.6-.1-1.2 0-1.8.8-1.8 2.3 0 .7.1 1.3.4 1.7s.7.6 1.3.6c.5 0 1-.1 1.5-.3v.8c-.3.1-.8.2-1.4.2zM226.4 85.9c0-.2 0-.4.2-.4.1-.1.2-.1.4-.1.1 0 .3 0 .4.1.1.1.2.2.2.4s-.1.4-.2.4c-.1.1-.2.1-.4.1s-.3 0-.4-.1c-.2-.1-.2-.2-.2-.4zm1 7.4h-.9v-5.9h.9v5.9zM233 91.7c0 .5-.2 1-.6 1.3-.4.3-1 .4-1.7.4-.8 0-1.4-.1-1.8-.4v-.8c.3.1.6.3.9.3s.6.1.9.1c.5 0 .8-.1 1.1-.2.2-.1.4-.4.4-.7 0-.2-.1-.4-.3-.6-.2-.2-.6-.4-1.2-.6-.5-.2-.9-.4-1.2-.5-.2-.2-.4-.3-.5-.5-.1-.2-.2-.4-.2-.7 0-.5.2-.9.6-1.1.4-.3.9-.4 1.6-.4.6 0 1.3.1 1.9.4l-.3.7c-.6-.2-1.1-.4-1.6-.4-.4 0-.7.1-1 .2s-.3.3-.3.5 0 .3.1.4c.1.1.2.2.4.3.2.1.5.2 1 .4.7.3 1.2.5 1.4.8s.4.7.4 1.1zM236.8 93.4c-.9 0-1.5-.3-2-.8s-.7-1.3-.7-2.2c0-1 .2-1.7.7-2.3s1.2-.8 2-.8c.3 0 .6 0 .8.1.3.1.5.1.7.2l-.3.8c-.2-.1-.4-.1-.6-.2-.2-.1-.4-.1-.6-.1-1.2 0-1.8.8-1.8 2.3 0 .7.1 1.3.4 1.7s.7.6 1.3.6c.5 0 1-.1 1.5-.3v.8c-.3.1-.8.2-1.4.2zM244.8 90.4c0 1-.2 1.7-.7 2.2-.5.5-1.2.8-2 .8-.5 0-1-.1-1.4-.4-.4-.2-.7-.6-.9-1.1-.2-.5-.3-1-.3-1.6 0-1 .2-1.7.7-2.2.5-.5 1.1-.8 2-.8.8 0 1.5.3 2 .8.4.6.6 1.3.6 2.3zm-4.5 0c0 .8.2 1.3.5 1.7.3.4.7.6 1.3.6s1-.2 1.3-.6c.3-.4.5-1 .5-1.7s-.2-1.3-.5-1.7c-.3-.4-.7-.6-1.3-.6-.6 0-1 .2-1.3.6-.3.4-.5.9-.5 1.7zM247.3 92.1l.1.1c-.1.4-.2.8-.4 1.2s-.4.9-.5 1.3h-.7c.1-.4.2-.8.3-1.4.1-.5.2-1 .2-1.3h1z"/></g><g><path d="M73.4 100.9c-.9 0-1.5.3-2 .9-.5.6-.7 1.4-.7 2.4s.2 1.8.7 2.4c.5.6 1.2.8 2.1.8.5 0 1.2-.1 1.9-.3v.8c-.5.2-1.2.3-2 .3-1.2 0-2-.4-2.7-1.1-.6-.7-.9-1.7-.9-3 0-.8.2-1.5.5-2.1.3-.6.7-1.1 1.3-1.4.6-.3 1.2-.5 2-.5s1.5.2 2.2.5l-.4.8c-.8-.4-1.4-.5-2-.5zM82 108l-1-2.5h-3.1l-1 2.5H76l3.1-7.9h.8L83 108h-1zm-1.3-3.3l-.9-2.4c-.1-.3-.2-.7-.4-1.1-.1.3-.2.7-.3 1.1l-.9 2.4h2.5zM87.5 102.1v3.8c0 .5.1.8.3 1.1s.6.4 1 .4c.6 0 1.1-.2 1.4-.5.3-.3.4-.9.4-1.6v-3.1h.9v5.9h-.7l-.1-.8c-.2.3-.4.5-.8.7-.3.2-.7.2-1.1.2-.7 0-1.3-.2-1.6-.5-.4-.3-.5-.9-.5-1.6v-3.9h.8zM97.3 106.4c0 .5-.2 1-.6 1.3-.4.3-1 .4-1.7.4-.8 0-1.4-.1-1.8-.4v-.8c.3.1.6.3.9.3.3.1.6.1.9.1.5 0 .8-.1 1.1-.2s.4-.4.4-.7c0-.2-.1-.4-.3-.6-.2-.2-.6-.4-1.2-.6-.5-.2-.9-.4-1.2-.5-.2-.2-.4-.3-.5-.5-.1-.2-.2-.4-.2-.7 0-.5.2-.9.6-1.1s.9-.4 1.6-.4c.6 0 1.3.1 1.9.4l-.3.7c-.6-.2-1.1-.4-1.6-.4-.4 0-.7.1-1 .2s-.3.3-.3.5 0 .3.1.4c.1.1.2.2.4.3s.5.2 1 .4c.7.3 1.2.5 1.4.8.2.4.4.7.4 1.1zM98.6 100.5c0-.2.1-.4.2-.4s.2-.1.4-.1c.1 0 .3 0 .4.1s.2.2.2.4-.1.4-.2.4-.2.1-.4.1-.3 0-.4-.1-.2-.2-.2-.4zm1 7.5h-.9v-5.9h.9v5.9zM105.5 108v-3.8c0-.5-.1-.8-.3-1.1s-.6-.4-1-.4c-.6 0-1.1.2-1.4.5s-.4.9-.4 1.6v3.1h-.9V102h.7l.1.8c.2-.3.4-.5.8-.7s.7-.2 1.1-.2c.7 0 1.2.2 1.6.5s.5.9.5 1.6v3.8h-.8zM113.1 102.1v.6l-1.1.1c.1.1.2.3.3.5s.1.4.1.7c0 .6-.2 1-.6 1.4s-.9.5-1.6.5h-.5c-.4.2-.6.5-.6.8 0 .2.1.3.2.4s.4.1.7.1h1c.6 0 1.1.1 1.5.4.3.3.5.7.5 1.2 0 .7-.3 1.1-.8 1.5s-1.3.5-2.3.5c-.8 0-1.4-.1-1.8-.4-.4-.3-.6-.7-.6-1.2 0-.4.1-.7.3-.9.2-.3.6-.4 1-.5-.2-.1-.3-.2-.4-.3-.1-.1-.2-.3-.2-.5s.1-.4.2-.6c.1-.2.3-.3.5-.5-.3-.1-.6-.3-.7-.6-.2-.3-.3-.6-.3-1 0-.6.2-1.1.6-1.5.4-.3.9-.5 1.6-.5.3 0 .6 0 .8.1h2.2zm-4.7 6.9c0 .3.1.6.4.7.3.2.7.2 1.2.2.7 0 1.3-.1 1.7-.3.4-.2.5-.5.5-.9 0-.3-.1-.5-.3-.7-.2-.1-.6-.2-1.1-.2h-1.1c-.4 0-.7.1-.9.3s-.4.5-.4.9zm.4-5c0 .4.1.7.3.9.2.2.6.3 1 .3.9 0 1.3-.4 1.3-1.3s-.4-1.3-1.3-1.3c-.4 0-.7.1-1 .3s-.3.7-.3 1.1zM120.6 100.9c-.9 0-1.5.3-2 .9-.5.6-.7 1.4-.7 2.4s.2 1.8.7 2.4c.5.6 1.2.8 2.1.8.5 0 1.2-.1 1.9-.3v.8c-.5.2-1.2.3-2 .3-1.2 0-2-.4-2.7-1.1-.6-.7-.9-1.7-.9-3 0-.8.2-1.5.5-2.1.3-.6.7-1.1 1.3-1.4.6-.3 1.2-.5 2-.5s1.5.2 2.2.5l-.4.8c-.8-.4-1.4-.5-2-.5zM128.1 108v-3.8c0-.5-.1-.8-.3-1.1s-.6-.4-1-.4c-.6 0-1.1.2-1.4.5-.3.3-.4.9-.4 1.7v3.1h-.9v-8.4h.9v3.3h.1c.2-.3.4-.5.7-.7.3-.2.7-.2 1.1-.2.7 0 1.3.2 1.6.5.4.3.5.9.5 1.6v3.8h-.9zM133.5 102c.3 0 .5 0 .7.1l-.1.8c-.2-.1-.5-.1-.6-.1-.5 0-.9.2-1.2.6-.3.4-.5.9-.5 1.4v3.2h-.9v-5.9h.7l.1 1.1c.2-.4.5-.7.8-.9s.6-.3 1-.3zM140.2 105.1c0 1-.2 1.7-.7 2.2-.5.5-1.2.8-2 .8-.5 0-1-.1-1.4-.4-.4-.2-.7-.6-.9-1.1-.2-.5-.3-1-.3-1.6 0-1 .2-1.7.7-2.2s1.1-.8 2-.8c.8 0 1.5.3 2 .8.3.6.6 1.3.6 2.3zm-4.5 0c0 .8.2 1.3.5 1.7.3.4.7.6 1.3.6s1-.2 1.3-.6c.3-.4.5-1 .5-1.7s-.2-1.3-.5-1.7-.7-.6-1.3-.6c-.6 0-1 .2-1.3.6-.4.3-.5.9-.5 1.7zM149.2 108v-3.8c0-.5-.1-.8-.3-1.1-.2-.2-.5-.4-.9-.4-.6 0-1 .2-1.2.5s-.4.8-.4 1.5v3.3h-.9v-3.8c0-.5-.1-.8-.3-1.1s-.5-.4-.9-.4c-.6 0-1 .2-1.2.5s-.4.9-.4 1.6v3.1h-.9V102h.7l.1.8c.2-.3.4-.5.7-.7.3-.2.6-.2 1-.2.9 0 1.5.3 1.8 1 .2-.3.4-.6.8-.7s.7-.3 1.1-.3c.7 0 1.2.2 1.5.5s.5.9.5 1.6v3.8h-.8zM154.5 108.1c-.9 0-1.6-.3-2.1-.8s-.8-1.3-.8-2.2c0-.9.2-1.7.7-2.3.5-.6 1.1-.8 1.9-.8.7 0 1.3.2 1.8.7s.6 1.1.6 1.9v.6h-4.1c0 .7.2 1.2.5 1.6.3.4.8.5 1.4.5.6 0 1.3-.1 1.9-.4v.8l-.9.3c-.2.1-.5.1-.9.1zm-.3-5.3c-.5 0-.8.2-1.1.5-.3.3-.4.7-.5 1.3h3.1c0-.6-.1-1-.4-1.3s-.6-.5-1.1-.5zM160.5 105c0-.9.1-1.8.4-2.7.3-.8.7-1.6 1.2-2.2h.9c-.5.7-.9 1.5-1.2 2.3s-.4 1.7-.4 2.6c0 .9.1 1.7.4 2.5s.6 1.6 1.1 2.2h-.9c-.5-.6-.9-1.3-1.2-2.1-.2-.8-.3-1.7-.3-2.6zM171.2 108h-.9l-1.6-5.3c-.1-.2-.2-.5-.3-.9-.1-.4-.1-.6-.1-.6-.1.5-.2 1-.4 1.6l-1.5 5.2h-.9l-2.1-7.9h1l1.2 4.9c.2.7.3 1.3.4 1.8.1-.7.2-1.3.4-1.9l1.4-4.8h1l1.5 4.8c.2.6.3 1.2.4 1.9.1-.5.2-1.1.4-1.9l1.2-4.8h1l-2.1 7.9zM174.4 100.5c0-.2 0-.4.2-.4s.2-.1.4-.1c.1 0 .3 0 .4.1.1.1.2.2.2.4s-.1.4-.2.4c-.1.1-.2.1-.4.1s-.3 0-.4-.1-.2-.2-.2-.4zm.9 7.5h-.9v-5.9h.9v5.9zM181.2 108v-3.8c0-.5-.1-.8-.3-1.1-.2-.2-.6-.4-1-.4-.6 0-1.1.2-1.4.5s-.4.9-.4 1.6v3.1h-.9V102h.7l.1.8c.2-.3.4-.5.8-.7.3-.2.7-.2 1.1-.2.7 0 1.2.2 1.6.5s.5.9.5 1.6v3.8h-.8zM188 107.2c-.5.6-1.1.9-1.9.9-.8 0-1.4-.3-1.8-.8-.4-.5-.6-1.3-.6-2.2 0-1 .2-1.7.6-2.3s1-.8 1.8-.8 1.4.3 1.8.9h.1v-3.2h.9v8.4h-.7l-.2-.9zm-1.8.2c.6 0 1-.2 1.3-.5.3-.3.4-.9.4-1.6v-.2c0-.8-.1-1.4-.4-1.8s-.7-.5-1.3-.5c-.5 0-.9.2-1.2.6s-.4 1-.4 1.7c0 .8.1 1.3.4 1.7s.7.6 1.2.6zM195.8 105.1c0 1-.2 1.7-.7 2.2-.5.5-1.2.8-2 .8-.5 0-1-.1-1.4-.4-.4-.2-.7-.6-.9-1.1-.2-.5-.3-1-.3-1.6 0-1 .2-1.7.7-2.2.5-.5 1.1-.8 2-.8.8 0 1.5.3 2 .8.3.6.6 1.3.6 2.3zm-4.5 0c0 .8.2 1.3.5 1.7.3.4.7.6 1.3.6s1-.2 1.3-.6c.3-.4.5-1 .5-1.7s-.2-1.3-.5-1.7-.7-.6-1.3-.6c-.6 0-1 .2-1.3.6s-.5.9-.5 1.7zM202 108l-1.1-3.5c-.1-.2-.2-.7-.4-1.4-.1.6-.3 1.1-.4 1.4L199 108h-1l-1.6-5.9h.9c.4 1.5.7 2.6.9 3.4.2.8.3 1.3.3 1.6 0-.2.1-.5.2-.8s.2-.6.2-.8l1.1-3.4h1l1.1 3.4c.2.6.3 1.1.4 1.6 0-.1.1-.3.1-.6.1-.3.4-1.7 1.1-4.3h.9L203 108h-1zM209.5 106.4c0 .5-.2 1-.6 1.3-.4.3-1 .4-1.7.4-.8 0-1.4-.1-1.8-.4v-.8c.3.1.6.3.9.3s.6.1.9.1c.5 0 .8-.1 1.1-.2.2-.1.4-.4.4-.7 0-.2-.1-.4-.3-.6-.2-.2-.6-.4-1.2-.6-.5-.2-.9-.4-1.2-.5-.2-.2-.4-.3-.5-.5-.1-.2-.2-.4-.2-.7 0-.5.2-.9.6-1.1.4-.3.9-.4 1.6-.4.6 0 1.3.1 1.9.4l-.3.7c-.6-.2-1.1-.4-1.6-.4-.4 0-.7.1-1 .2s-.3.3-.3.5 0 .3.1.4c.1.1.2.2.4.3.2.1.5.2 1 .4.7.3 1.2.5 1.4.8s.4.7.4 1.1zM212.8 105c0 .9-.1 1.8-.4 2.6-.3.8-.7 1.5-1.2 2.1h-.9c.5-.7.9-1.4 1.1-2.2.3-.8.4-1.7.4-2.5 0-.9-.1-1.7-.4-2.6s-.6-1.6-1.2-2.3h.9c.5.6.9 1.4 1.2 2.2.4.9.5 1.7.5 2.7z"/></g></g><defs><path id="a" d="M34 77c0-3.3 2.7-6 6-6h12c3.3 0 6 2.7 6 6v12c0 3.3-2.7 6-6 6H40c-3.3 0-6-2.7-6-6V77z"/></defs><clipPath id="b"><use xlink:href="#a" overflow="visible"/></clipPath><path clip-path="url(#b)" fill="#02AADC" d="M30.7 67.7h30.7v30.7H30.7z"/><g><defs><path id="c" d="M46 75c-4.4 0-8 3.6-8 8s3.6 8 8 8 8-3.6 8-8-3.6-8-8-8zm-7.2 8c0-1 .2-2 .6-2.9l3.4 9.4c-2.3-1.2-4-3.7-4-6.5zm7.2 7.2c-.7 0-1.4-.1-2-.3l2.2-6.3 2.2 6.1s0 .1.1.1c-.9.2-1.7.4-2.5.4zm1-10.6c.4 0 .8-.1.8-.1.4 0 .3-.6 0-.6 0 0-1.2.1-1.9.1-.8.1-1.9 0-1.9 0-.4 0-.4.6 0 .6 0 0 .4 0 .8.1l1.1 3.1-1.6 4.7-2.6-7.8c.4 0 .8-.1.8-.1.4 0 .3-.6 0-.6 0 0-1.2.1-1.9.1h-.5c1.3-2 3.5-3.2 6-3.2 1.9 0 3.6.7 4.9 1.9h-.1c-.7 0-1.2.6-1.2 1.3 0 .6.3 1.1.7 1.7.3.5.6 1.1.6 2 0 .6-.2 1.3-.5 2.3l-.7 2.4-2.8-7.9zm5.3-.1c.6 1 .9 2.2.9 3.5 0 2.7-1.4 5-3.6 6.2l2.2-6.4c.4-1 .5-1.8.5-2.6.1-.2 0-.4 0-.7z"/></defs><clipPath id="d"><use xlink:href="#c" overflow="visible"/></clipPath><path clip-path="url(#d)" fill="#FFF" d="M34.4 71.4h23.2v23.2H34.4z"/></g><path fill="#D8D8D8" d="M157 25h-42c-1.7 0-3-1.3-3-3s1.3-3 3-3h42c1.7 0 3 1.3 3 3s-1.3 3-3 3z"/></svg>