<svg enable-background="new 0 0 165.52107 105.9651" height="105.9651" viewBox="0 0 165.52107 105.9651" width="165.52107" xmlns="http://www.w3.org/2000/svg"><path d="m150.69807 0h-135.87489c-.5659 0-1.1328 0-1.69769.0033-.47751.0034-.95391.0087-1.43031.0217-1.039.0281-2.0869.0894-3.1129.2738-1.0424.1876-2.0124.4936-2.9587.9754-.9303.4731-1.782 1.0919-2.52009 1.8303-.73841.7384-1.35721 1.5887-1.83021 2.52-.4819.9463-.7881 1.9166-.9744 2.9598-.18539 1.0263-.2471 2.074-.2751 3.1119-.0128.4764-.01829.9528-.0214 1.4291-.0033.5661-.0022 1.1318-.0022 1.6989v76.3178c0 .5671-.0011 1.13181.0022 1.69901.00311.4763.0086.9527.0214 1.4291.028 1.03699.08971 2.08469.2751 3.11069.1863 1.0436.4925 2.0135.9744 2.9599.473.9313 1.0918 1.7827 1.83021 2.52.73809.7396 1.58979 1.3583 2.52009 1.8302.9463.4831 1.9163.7892 2.9587.9767 1.026.1832 2.0739.2456 3.1129.2737.4764.0108.9528.0172 1.43031.0194.56489.0044 1.13179.0044 1.69769.0044h135.87489c.5649 0 1.13181 0 1.69659-.0044.47641-.0022.95282-.0086 1.4314-.0194 1.0368-.0281 2.0845-.0905 3.11301-.2737 1.041-.1875 2.0112-.4936 2.9576-.9767.9313-.4719 1.7805-1.0906 2.52011-1.8302.7372-.7373 1.35599-1.5887 1.8302-2.52.48299-.9464.78889-1.9163.97429-2.9599.1855-1.026.2457-2.0737.2738-3.11069.013-.4764.01941-.9528.02161-1.4291.00439-.5672.00439-1.1319.00439-1.69901v-76.3178c0-.5671 0-1.1328-.00439-1.6989-.0022-.4763-.00861-.9527-.02161-1.4291-.02811-1.0379-.0883-2.0856-.2738-3.1119-.18539-1.0432-.4913-2.0135-.97429-2.9598-.47421-.9313-1.093-1.7816-1.8302-2.52-.73961-.7384-1.58881-1.3572-2.52011-1.8303-.9464-.4818-1.9166-.7878-2.9576-.9754-1.0285-.1844-2.0762-.2457-3.11301-.2738-.47858-.013-.95499-.0183-1.4314-.0217-.56478-.0033-1.13169-.0033-1.69659-.0033z"/><path d="m150.69807 3.532 1.67149.0032c.4528.0032.90561.0081 1.36092.0205.79201.0214 1.71849.0643 2.58209.2191.7507.1352 1.38029.3408 1.9845.6484.5965.3031 1.14301.7003 1.62019 1.1768.479.4797.87671 1.0271 1.18381 1.6302.30589.5995.51019 1.2261.64459 1.9823.1544.8542.1971 1.7832.21881 2.5801.01219.4498.01819.8996.0204 1.3601.00429.5569.0042 1.1135.0042 1.6715v76.3178c0 .558.00009 1.1136-.0043 1.6824-.00211.4497-.0081.8995-.0204 1.3501-.02161.7957-.0643 1.7242-.2206 2.5885-.13251.7458-.3367 1.3725-.64429 1.975-.30621.6016-.70331 1.1484-1.18022 1.6251-.47989.48-1.0246.876-1.62819 1.1819-.5997.3061-1.22821.51151-1.97151.6453-.88109.157-1.84639.2002-2.57339.2199-.4574.0103-.9126.01649-1.37889.0187-.55571.0043-1.1134.0042-1.6692.0042h-135.8749c-.0074 0-.0146 0-.0221 0-.5494 0-1.0999 0-1.6593-.0043-.4561-.00211-.9112-.0082-1.3512-.0182-.7436-.0201-1.7095-.0632-2.5834-.2193-.74969-.1348-1.3782-.3402-1.9858-.6503-.59789-.3032-1.1422-.6988-1.6223-1.1797-.4764-.4756-.8723-1.0207-1.1784-1.6232-.3064-.6019-.5114-1.2305-.64619-1.9852-.15581-.8626-.19861-1.7874-.22-2.5777-.01221-.4525-.01731-.9049-.02021-1.3547l-.0022-1.3279.0001-.3506v-76.3178l-.0001-.3506.0021-1.3251c.003-.4525.0081-.9049.02031-1.357.02139-.7911.06419-1.7163.22129-2.5861.1336-.7479.3385-1.3765.6465-1.9814.3037-.5979.7003-1.1437 1.17921-1.6225.477-.4772 1.02309-.8739 1.62479-1.1799.6011-.3061 1.2308-.5116 1.9805-.6465.8638-.1552 1.7909-.198 2.5849-.2195.4526-.0123.9052-.0172 1.3544-.0203l1.6771-.0033z" fill="#fff"/><path d="m45.1862 35.64053c1.41724-1.77266 2.37897-4.15282 2.12532-6.58506-2.07464.10316-4.60634 1.36871-6.07207 3.14276-1.31607 1.5192-2.4809 3.99902-2.17723 6.3293 2.32889.20201 4.65563-1.16408 6.12398-2.887"/><path d="m47.28506 38.98252c-3.38211-.20146-6.25773 1.91951-7.87286 1.91951-1.61602 0-4.08931-1.81799-6.76438-1.76899-3.48177.05114-6.71245 2.01976-8.4793 5.15079-3.63411 6.2636-.95904 15.55471 2.57494 20.65606 1.71618 2.5238 3.78447 5.30269 6.50976 5.20287 2.57494-.10104 3.58421-1.66732 6.71416-1.66732 3.12765 0 4.03679 1.66732 6.76252 1.61681 2.82665-.05054 4.59381-2.52506 6.30997-5.05132 1.96878-2.877 2.77473-5.65498 2.82542-5.80748-.0507-.05051-5.45058-2.12204-5.50065-8.33358-.05098-5.20101 4.23951-7.6749 4.44144-7.82832-2.42288-3.58345-6.20858-3.98751-7.52102-4.08903"/><path d="m76.73385 31.94381c7.35096 0 12.4697 5.06708 12.4697 12.44437 0 7.40363-5.22407 12.49704-12.65403 12.49704h-8.13892v12.94318h-5.88037v-37.8846h14.20362zm-8.32326 20.00549h6.74732c5.11975 0 8.0336-2.75636 8.0336-7.53479 0-4.77792-2.91385-7.50845-8.00727-7.50845h-6.77365z"/><path d="m90.73997 61.97864c0-4.8311 3.70182-7.79761 10.26583-8.16526l7.56061-.44614v-2.12639c0-3.07185-2.07423-4.90959-5.53905-4.90959-3.28251 0-5.33041 1.57492-5.82871 4.04313h-5.35574c.31499-4.98859 4.56777-8.66407 11.3941-8.66407 6.69466 0 10.97377 3.54432 10.97377 9.08388v19.03421h-5.43472v-4.54194h-.13065c-1.60125 3.07185-5.09341 5.01441-8.71623 5.01441-5.4084 0-9.18921-3.3605-9.18921-8.32224zm17.82644-2.49404v-2.17905l-6.8.41981c-3.38683.23649-5.30306 1.73291-5.30306 4.09579 0 2.41504 1.99523 3.99046 5.04075 3.99046 3.96413 0 7.06231-2.73053 7.06231-6.32701z"/><path d="m119.34167 79.9889v-4.5946c.4193.10483 1.36425.10483 1.83723.10483 2.6252 0 4.04313-1.10245 4.90908-3.9378 0-.05267.49931-1.68025.49931-1.70658l-9.97616-27.64562h6.14268l6.98432 22.47371h.10432l6.98433-22.47371h5.9857l-10.34483 29.06304c-2.36186 6.69517-5.0924 8.84789-10.81577 8.84789-.47297 0-1.8909-.05267-2.31021-.13116z"/></svg>