<svg height="100" viewBox="0 0 160 100" width="160" xmlns="http://www.w3.org/2000/svg"><g fill="none" fill-rule="evenodd" transform="translate(-1)"><path d="m149 .00000101c-8 .00000076-92.6992188-.00000261-140 0-4 .00000022-8 4-8 8v79.99999999c-.00000046 8 4 12 12 12 44.6232096 0 128 .000001 136 0 8 0 12-4 12-12v-76c0-7.99999999-4-11.99999999-12-11.99999999zm0 0" fill="#306fc5"/><path d="m14.5198284 36.625336-3.0987822-7.5509964-3.08107159 7.5509964zm68.2657601-3.0068014c-.622156.3776355-1.3580025.3902043-2.2395329.3902043h-5.4999956v-4.2071224h5.5748372c.7889782 0 1.6122351.0354212 2.1469807.341643.587306.2759425.9506588.8632485.9506588 1.6745079 0 .8278273-.3456422 1.493974-.9329482 1.8007672 0 0 .587306-.3067932 0 0zm39.2363865 3.0068014-3.13306-7.5509964-3.115922 7.5509964zm-73.1390289 8.1731522h-4.6413175l-.0171393-14.8346198-6.5649163 14.8346198h-3.9751708l-6.5820556-14.84776v14.84776h-9.2083649l-1.7396371-4.224833h-9.42660512l-1.75734771 4.224833h-4.91726l8.10745169-18.9411918h6.72659684l7.7001081 17.933402v-17.933402h7.3893158l5.9250497 12.8493197 5.4428647-12.8493197h7.5378562v18.9411918zm18.498427 0h-15.1242737v-18.9411918h15.1242737v3.9443201h-10.5966467v3.414145h10.3424141v3.8826186h-10.3424141v3.7826396h10.5966467zm21.3246947-13.8399702c0 3.0199415-2.0155796 4.5801875-3.1901917 5.0486612.9906505.3770642 1.8367597 1.0432109 2.2395328 1.5950958.6392952.9420892.749558 1.783628.749558 3.4752751v3.7209381h-4.5664761l-.0171392-2.3886446c0-1.1397622.10912-2.7788489-.7147081-3.6900874-.6615763-.6661467-1.6699374-.810688-3.2998831-.810688h-4.8601291v6.88942h-4.5270556v-18.9411918h10.4132564c2.3138031 0 4.0185903.0611301 5.482285.9072393 1.4322726.8461092 2.2909507 2.0812802 2.2909507 4.1939823zm7.2453458 13.8399702h-4.6196078v-18.9411918h4.6196078zm53.5933924 0h-6.415805l-8.581638-14.2164631v14.2164631h-9.220363l-1.761918-4.224833h-9.404895l-1.709358 4.224833h-5.297752c-2.200684 0-4.98696-.4867556-6.564916-2.0949915-1.591097-1.608236-2.4189243-3.7866387-2.4189243-7.2310631 0-2.8091283.4947539-5.3771641 2.4406333-7.4064551 1.463695-1.5116846 3.755788-2.2086821 6.875709-2.2086821h4.383086v4.058582h-4.291105c-1.652227 0-2.585175.245663-3.483845 1.1220516-.771839.797548-1.301443 2.3052335-1.301443 4.2905336 0 2.029291.403345 3.4924144 1.244883 4.448215.696998.7495579 1.963591.9769391 3.155342.9769391h2.03329l6.380955-14.89575h6.783728l7.665258 17.9156915v-17.9156915h6.893419l7.95834 13.191534v-13.191534h4.637319zm-149.54423469 3.7203668h7.73552926l1.7442076-4.2071224h3.90489973l1.7396371 4.2071224h15.2202537v-3.2164719l1.3585738 3.2301833h7.901209l1.3585737-3.2781733v3.2644619h37.8252527l-.0177106-6.905988h.7318474c.5124645.0177106.6621476.0651293.6621476.9112385v5.9947495h19.5633477v-1.6076646c1.577957.8455379 4.032302 1.6076646 7.261914 1.6076646h8.230283l1.761347-4.2071224h3.9049l1.722497 4.2071224h15.860121v-3.9963092l2.401784 3.9963092h12.709349v-26.4173466h-12.577947v3.1199206l-1.761347-3.1199206h-12.906451v3.1199206l-1.617377-3.1199206h-17.433506c-2.918249 0-5.483428.4073436-7.555567 1.5425354v-1.5425354h-12.0306333v1.5425354c-1.3185821-1.1700417-3.1153502-1.5425354-5.1132191-1.5425354h-43.952546l-2.9490992 6.8231482-3.0285111-6.8231482h-13.8439693v3.1199206l-1.5208257-3.1199206h-11.80668l-5.4828563 12.5602372v13.8571094zm161.03897969 13.9479477h-8.251422c-.823828 0-1.371142.0308507-1.832189.3422143-.477615.3067932-.661576.7621268-.661576 1.3631442 0 .7147081.403344 1.2008924.990079 1.4111343.477614.166251.99065.2148123 1.744779.2148123l2.453774.0657006c2.476055.0611301 4.128853.4867556 5.136642 1.5248248.183391.1445412.293653.3067931.419913.469045zm0 12.4905374c-1.099771 1.6082359-3.242752 2.4234945-6.143861 2.4234945h-8.74332v-4.0625812h8.707898c.86382 0 1.468265-.1136906 1.83219-.469045.315362-.2930817.535316-.7187072.535316-1.2357422 0-.5518849-.219954-.9900792-.553027-1.2528815-.328503-.2890826-.806689-.4204838-1.595096-.4204838-4.251113-.1445412-9.554578.1314012-9.554578-5.8639196 0-2.7479982 1.744779-5.6405377 6.495788-5.6405377h9.018118v-3.7694994h-8.378823c-2.528616 0-4.365375.6055879-5.666247 1.5471058v-1.5471058h-12.393415c-1.981872 0-4.308244.491326-5.408586 1.5471058v-1.5471058h-22.131383v1.5471058c-1.761347-1.2705921-4.733299-1.5471058-6.105012-1.5471058h-14.5980982v1.5471058c-1.3934236-1.3494328-4.4922058-1.5471058-6.3809546-1.5471058h-16.3377349l-3.7386487 4.0460131-3.5015553-4.0460131h-24.405195v26.4356285h23.9458622l3.8523393-4.1099998 3.6289573 4.1099998 14.7603496.0131401v-6.2187028h1.4511259c1.9584486.0302794 4.2682525-.0485613 6.3061131-.9295204v7.1345118h12.1746033v-6.8899914h.5873061c.7495579 0 .8232568.0308507.8232568.7798373v6.1095828h36.9842851c2.348082 0 4.802427-.6010175 6.161572-1.6916472v1.6916472h11.731267c2.441205 0 4.825279-.3422144 6.639187-1.218603zm-18.059662-7.5687069c.881531.9123811 1.354004 2.0641408 1.354004 4.0140198 0 4.0757213-2.546326 5.9781816-7.112231 5.9781816h-8.818161v-4.0625812h8.78274c.858678 0 1.467694-.1136906 1.849328-.469045.311364-.2930817.534746-.7187072.534746-1.2357422 0-.5518849-.241664-.9900792-.552456-1.2528815-.346214-.2890826-.823828-.4204838-1.612235-.4204838-4.233974-.1445412-9.536297.1314012-9.536297-5.8639196 0-2.7479982 1.726497-5.6405377 6.472936-5.6405377h9.076392v4.0323017h-8.305125c-.823257 0-1.358573.0308507-1.813907.3422143-.495897.3067932-.679858.7621268-.679858 1.3631443 0 .714708.421055 1.2008923.99065 1.4111342.477615.166251.990651.2148123 1.761918.2148123l2.437206.0657006c2.457773.0599875 4.14485.4850417 5.17035 1.5236822 0 0-1.0255-1.0386405 0 0zm-40.853192-1.1700417c-.605588.3593536-1.354575.3902043-2.2355338.3902043h-5.4999956v-4.2551124h5.5748371c.8061173 0 1.6128063.0171393 2.1606923.3422144.586735.3067931.937519.8935279.937519 1.7042159s-.350784 1.4636947-.937519 1.8184778c0 0 .586735-.3547831 0 0zm2.734287 2.3577939c1.007789.3719224 1.831618 1.0386405 2.217823 1.5905254.639295.9249499.731847 1.7881984.750129 3.4581358v3.755788h-4.545338v-2.3703627c0-1.1397623.109692-2.8274103-.731847-3.7083694-.661576-.6787155-1.669937-.8409674-3.3215928-.8409674h-4.8384193v6.9196995h-4.5493367v-18.9457623h10.4526768c2.292093 0 3.961459.1011217 5.447435.8940992 1.428845.8632485 2.327515 2.0458589 2.327515 4.2071224-.000572 3.0239406-2.017294 4.5670473-3.209045 5.0400915 0 0 1.191751-.4730442 0 0zm5.719378-10.1413131h15.110562v3.9180398h-10.601788v3.4444244h10.342985v3.8654794h-10.342985v3.7694994l10.601788.0171393v3.93118h-15.110562zm-30.5461996 8.743319h-5.8507796v-4.8247079h5.9033401c1.6345162 0 2.7691366.6661468 2.7691366 2.322944 0 1.6385154-1.08206 2.5017639-2.8216971 2.5017639zm-10.3601246 8.4793741-6.9511215-7.7172474 6.9511215-7.4721556zm-17.9511127-2.2252501h-11.1313923v-3.7694994h9.9396409v-3.8654794h-9.9396409v-3.4444244h11.3507751l4.9521099 5.5211341zm35.9936348-8.7558879c0 5.2629022-3.9266095 6.3495327-7.8840697 6.3495327h-5.6491074v6.3546745h-8.7998786l-5.5748371-6.2718346-5.7936487 6.2718346h-17.933402v-18.9457623h18.2093445l5.5702666 6.2101331 5.7587988-6.2101331h14.4666966c3.5929648 0 7.629837.9946496 7.629837 6.2415551zm0 0" fill="#fff"/></g></svg>