<svg enable-background="new -225 347 160 100" opacity=".5" viewBox="-225 347 160 100" xmlns="http://www.w3.org/2000/svg"><path d="m-77 347c-8 0-92.7 0-140 0-4 0-8 4-8 8v80c0 8 4 12 12 12h136s12-4 12-12v-76c0-8-4-12-12-12z" fill="#f4f4f4"/><path d="m-175.5 447h98.5c8 0 12-4 12-12v-47.6s-23.8 42-110.5 59.6z" fill="#8c8c8c"/><path d="m-173 395.9h1.4l4.5 6.6v-6.6h1.1v8.1h-1.4l-4.5-6.6v6.6h-1.1zm9.1 0h5.2v1h-4.1v2.4h3.8v1h-3.8v2.6h4.3v1h-5.4zm8.7 1h-2.6v-1h6.3v1h-2.6v7.1h-1.1zm3.8-1h1.1l1.8 6.5 1.9-6.5h1.3l1.9 6.5 1.8-6.5h1.1l-2.4 8.1h-1.2l-2-6.6-2 6.6h-1.2zm15.7 8.3c-.6 0-1.2-.1-1.7-.3s-1-.5-1.3-.9c-.4-.4-.7-.8-.9-1.3s-.3-1.1-.3-1.7.1-1.2.3-1.7.5-1 .9-1.3c.4-.4.8-.7 1.3-.9s1.1-.3 1.7-.3 1.2.1 1.7.3 1 .5 1.3.9c.4.4.7.8.9 1.3s.3 1.1.3 1.7-.1 1.2-.3 1.7-.5 1-.9 1.3c-.4.4-.8.7-1.3.9s-1.1.3-1.7.3zm0-1c.5 0 .9-.1 1.3-.3s.7-.4 1-.7.5-.6.6-1 .2-.8.2-1.2-.1-.9-.2-1.2-.3-.7-.6-1-.6-.5-1-.7-.8-.3-1.3-.3-.9.1-1.3.3-.7.4-1 .7-.5.6-.6 1-.2.8-.2 1.2.1.9.2 1.2c.1.4.3.7.6 1s.6.5 1 .7.9.3 1.3.3zm5.8-7.3h2.8c.5 0 .9.1 1.3.2s.6.3.8.5.3.5.4.7c.1.3.1.5.1.8s0 .5-.1.7-.2.5-.4.7-.4.4-.6.5-.5.2-.8.2l2.3 3.7h-1.4l-2.1-3.6h-1.2v3.6h-1.1zm1.1 3.6h1.4c.2 0 .4 0 .6-.1.2 0 .4-.1.6-.2s.3-.2.4-.4.1-.4.1-.7 0-.5-.1-.7-.2-.3-.4-.4-.3-.2-.6-.2c-.2 0-.4-.1-.6-.1h-1.4zm5.9-3.6h1.1v3.5h.1l3.6-3.5h1.5l-3.9 3.7 4.2 4.3h-1.6l-3.8-4h-.1v4h-1.1z"/><path d="m-210.9 370.9h7.5c1.3 0 2.5.2 3.6.6 1.2.4 2.2 1 3.1 1.8s1.6 1.8 2.2 3c.5 1.2.8 2.6.8 4.2s-.3 3.1-.9 4.3-1.4 2.2-2.4 3-2.1 1.4-3.3 1.8-2.4.6-3.5.6h-7.1zm6 16c1.1 0 2.1-.1 3-.4.9-.2 1.8-.6 2.5-1.1s1.3-1.2 1.7-2 .6-1.8.6-3-.2-2.1-.5-3c-.4-.8-.9-1.5-1.5-2s-1.4-.9-2.3-1.1-1.8-.4-2.9-.4h-3.1v13zm14.4-16h3.4v19.1h-3.4zm17 4.1c-.4-.5-.8-.9-1.4-1.1s-1.2-.4-1.9-.4c-.4 0-.8 0-1.1.1s-.7.2-1 .4-.5.5-.7.8-.3.7-.3 1.1c0 .6.2 1.1.7 1.5.4.3 1 .6 1.7.9s1.4.5 2.2.7 1.5.6 2.2 1 1.2 1 1.7 1.6c.4.7.7 1.6.7 2.7 0 1-.2 1.9-.6 2.7s-.9 1.4-1.5 1.9-1.4.9-2.2 1.1c-.8.3-1.7.4-2.7.4-1.2 0-2.3-.2-3.4-.6s-2-1.1-2.8-2l2.6-2.5c.4.6 1 1.1 1.6 1.5s1.4.5 2.1.5c.4 0 .8-.1 1.2-.2s.8-.3 1.1-.5.6-.5.8-.8.3-.7.3-1.1c0-.7-.2-1.2-.7-1.6-.4-.4-1-.7-1.7-1s-1.4-.5-2.2-.7-1.5-.6-2.2-1-1.2-.9-1.7-1.6-.7-1.6-.7-2.7c0-1 .2-1.8.6-2.6s.9-1.3 1.6-1.8 1.4-.8 2.3-1.1c.8-.2 1.7-.4 2.6-.4 1 0 2 .2 2.9.5s1.8.8 2.6 1.5c0 0-.8-.7 0 0zm19.3.4c-.7-.8-1.4-1.3-2-1.5-.7-.3-1.3-.4-2-.4-1 0-1.9.2-2.7.5s-1.5.8-2.1 1.5c-.6.6-1 1.3-1.3 2.2-.3.8-.5 1.7-.5 2.7s.2 2 .5 2.8c.3.9.8 1.6 1.3 2.2.6.6 1.3 1.1 2.1 1.5s1.7.5 2.7.5c.8 0 1.5-.2 2.3-.6.7-.4 1.4-1 2-1.8l2.8 2c-.9 1.2-1.9 2.1-3.2 2.6s-2.6.8-4 .8c-1.5 0-2.8-.2-4.1-.7-1.2-.5-2.3-1.2-3.2-2-.9-.9-1.6-1.9-2.1-3.1s-.8-2.6-.8-4.1.3-2.9.8-4.2 1.2-2.3 2.1-3.2 2-1.6 3.2-2c1.2-.5 2.6-.7 4.1-.7 1.3 0 2.5.2 3.6.7s2.1 1.2 3.1 2.3c0 0-1-1.1 0 0zm25.6-4.5h3.9l5.2 14.4 5.4-14.4h3.7l-7.7 19.1h-2.9zm20.2 0h12.7v3.1h-9.3v4.7h8.8v3.1h-8.8v5.2h9.7v3.1h-13.1zm16.5 0h6.6c.9 0 1.8.1 2.7.3s1.6.5 2.3.9 1.2 1 1.6 1.7.6 1.6.6 2.7c0 1.4-.4 2.5-1.1 3.5-.8.9-1.9 1.5-3.3 1.7l5.1 8.5h-4.1l-4.4-8.1h-2.5v8.1h-3.4v-19.3zm6.1 8.1c.5 0 1 0 1.5-.1.5 0 .9-.2 1.3-.3s.7-.4 1-.8.4-.8.4-1.5c0-.6-.1-1-.4-1.4-.2-.3-.5-.6-.9-.8s-.8-.3-1.3-.3c-.5-.1-.9-.1-1.3-.1h-2.9v5.2h2.6z"/><circle cx="-138.9" cy="380.5" fill="#8c8c8c" r="10"/></svg>