<svg height="100" viewBox="0 0 160 100" width="160" xmlns="http://www.w3.org/2000/svg"><g fill="none" fill-rule="evenodd"><path d="m148 .00000101c-8 .00000076-92.6992188-.00000261-140 0-4 .00000022-8 4-8 8v79.99999999c-.00000046 8 4 12 12 12 44.6232096 0 128 .000001 136 0 8 0 12-4 12-12v-76c0-7.99999999-4-11.99999999-12-11.99999999zm0 0" fill="#f4f4f4"/><path d="m49.5429687 100.000001c42.9860256 0 92.3909303.000001 98.4570313 0 8 0 12-4 12-12v-47.5712901s-23.84082 41.9746094-110.4570313 59.5712901zm0 0" fill="#d97b16"/><path d="m52.0384262 48.9208157h1.437821l4.4503981 6.6413634h.0228226v-6.6413634h1.0954826v8.0791843h-1.3921759l-4.4960432-6.6413634h-.0228226v6.6413634h-1.0954826zm9.0833767 0h5.2149537v1.027015h-4.1194711v2.4077795h3.8341892v1.0270149h-3.8341892v2.5903599h4.3248741v1.027015h-5.4203567zm8.6611595 1.027015h-2.6017712v-1.027015h6.299025v1.027015h-2.6017712v7.0521693h-1.0954826zm3.8341891-1.027015h1.1411278l1.7801592 6.4587829h.0228226l1.9056833-6.4587829h1.2552405l1.9056833 6.4587829h.0228225l1.7801593-6.4587829h1.1411277l-2.3507231 8.0791843h-1.152539l-1.9627397-6.5957183h-.0228226l-1.9513284 6.5957183h-1.152539zm15.7133288 8.2845873c-.616212 0-1.1829665-.1084061-1.7002803-.3252214-.5173138-.2168154-.9604473-.5154075-1.3294138-.8957853s-.6580493-.8292169-.8672571-1.3465307-.3138101-1.0764608-.3138101-1.6774578c0-.6009969.1046023-1.1601439.3138101-1.6774577s.4982906-.9661529.8672571-1.3465307.8121-.6789699 1.3294138-.8957853c.5173138-.2168153 1.0840683-.3252214 1.7002803-.3252214.6162121 0 1.1829665.1084061 1.7002803.3252214.5173139.2168154.9604474.5154075 1.3294138.8957853.3689665.3803778.6580493.8292169.8672571 1.3465307s.3138101 1.0764608.3138101 1.6774577c0 .600997-.1046023 1.160144-.3138101 1.6774578s-.4982906.9661529-.8672571 1.3465307c-.3689664.3803778-.8120999.6789699-1.3294138.8957853-.5173138.2168153-1.0840682.3252214-1.7002803.3252214zm0-1.027015c.464061 0 .8824703-.0855837 1.2552405-.2567537.3727703-.17117.6922828-.4012951.9585473-.6903823.2662645-.2890871.4716654-.6295201.616209-1.0213093.1445436-.3917891.2168143-.8082966.2168143-1.2495349 0-.4412382-.0722707-.8577457-.2168143-1.2495348-.1445436-.3917892-.3499445-.7322222-.616209-1.0213093-.2662645-.2890872-.585777-.5192123-.9585473-.6903823-.3727702-.17117-.7911795-.2567537-1.2552405-.2567537-.4640609 0-.8824702.0855837-1.2552405.2567537-.3727702.17117-.6922828.4012951-.9585473.6903823-.2662644.2890871-.4716654.6295201-.6162089 1.0213093-.1445436.3917891-.2168143.8082966-.2168143 1.2495348 0 .4412383.0722707.8577458.2168143 1.2495349.1445435.3917892.3499445.7322222.6162089 1.0213093.2662645.2890872.5857771.5192123.9585473.6903823.3727703.17117.7911796.2567537 1.2552405.2567537zm5.7855176-7.2575723h2.841408c.5173139 0 .9433306.0703688 1.2780631.2111086s.5990911.3195147.793084.5363301c.193992.2168153.329025.4602535.4051.7303217.076076.2700682.114113.5306231.114113.7816725 0 .2586569-.045645.5078006-.136935.7474387-.091291.239638-.22252.4564501-.39369.6504428-.1711695.1939926-.3803742.3575526-.6276198.4906849-.2472455.1331322-.5230153.2149122-.8273176.2453424l2.2936664 3.6858426h-1.3693529l-2.0540299-3.5603185h-1.2210067v3.5603185h-1.0954826zm1.0954826 3.5603185h1.4378209c.2130116 0 .4241181-.0171167.6333259-.0513507s.3955902-.0969954.5591526-.1882861c.1635625-.0912907.2947909-.2225191.3936891-.3936891s.1483466-.3936877.1483466-.6675597-.0494484-.4963897-.1483466-.6675597-.2301266-.3023984-.3936891-.3936891c-.1635624-.0912907-.3499448-.1540521-.5591526-.1882861s-.4203143-.0513507-.6333259-.0513507h-1.4378209zm5.8768075-3.5603185h1.095483v3.4918508h.09129l3.57173-3.4918508h1.529111l-3.902657 3.7314877 4.165116 4.3476966h-1.597578l-3.765722-4.0395922h-.09129v4.0395922h-1.095483zm0 0" fill="#000"/><path d="m14.1335 23.884h7.533c1.2600063 0 2.4749942.1934981 3.645.5805 1.1700059.3870019 2.2049955.976496 3.105 1.7685s1.6199973 1.786494 2.16 2.9835.81 2.6054919.81 4.2255c0 1.6380082-.3104969 3.055494-.9315 4.2525s-1.4219951 2.1869961-2.403 2.97-2.069994 1.3679981-3.267 1.755-2.3714942.5805-3.5235.5805h-7.128zm5.94 16.038c1.0620053 0 2.0654953-.1214988 3.0105-.3645s1.7684965-.6209974 2.4705-1.134 1.255498-1.1789959 1.6605-1.998.6075-1.8134941.6075-2.9835c0-1.1520058-.1799982-2.1419959-.54-2.97s-.8594968-1.4984974-1.4985-2.0115-1.3949956-.8909988-2.268-1.134-1.8314948-.3645-2.8755-.3645h-3.105v12.96zm14.472-16.038h3.402v19.116h-3.402zm16.956 4.104c-.3600018-.5220026-.841497-.9044988-1.4445-1.1475s-1.2374967-.3645-1.9035-.3645c-.396002 0-.7784982.0449996-1.1475.135-.3690018.0900005-.7019985.233999-.999.432s-.5354991.4544984-.7155.7695-.27.6884978-.27 1.1205c0 .6480032.2249977 1.1429983.675 1.485.4500022.3420017 1.0079967.6389987 1.674.891s1.394996.4949988 2.187.729 1.5209967.5579979 2.187.972 1.2239977.9629966 1.674 1.647c.4500022.6840034.675 1.5929943.675 2.727 0 1.0260051-.1889981 1.9214962-.567 2.6865s-.8864968 1.3994975-1.5255 1.9035-1.3814958.8819987-2.2275 1.134-1.7369953.378-2.673.378c-1.1880059 0-2.3309945-.197998-3.429-.594s-2.042996-1.0619953-2.835-1.998l2.565-2.484c.4140021.6300032.9584966 1.1204982 1.6335 1.4715s1.3904962.5265 2.1465.5265c.396002 0 .791998-.0539995 1.188-.162s.7559984-.2699989 1.08-.486.584999-.4904983.783-.8235.297-.7154978.297-1.1475c0-.7020035-.2249978-1.2419981-.675-1.62-.4500023-.3780019-1.0079967-.6974987-1.674-.9585s-1.394996-.5084988-2.187-.7425-1.5209967-.553498-2.187-.9585-1.2239978-.9449966-1.674-1.62c-.4500023-.6750034-.675-1.5794943-.675-2.7135 0-.9900049.202498-1.8449964.6075-2.565s.9359967-1.3184976 1.593-1.7955 1.4084958-.8324988 2.2545-1.0665 1.7099956-.351 2.592-.351c1.008005 0 1.9844953.1529985 2.9295.459s1.7954962.8099965 2.5515 1.512c0 0-.7560038-.7020035 0 0zm19.251.378c-.7020035-.7560038-1.3814967-1.2599987-2.0385-1.512s-1.3184967-.378-1.9845-.378c-.9900049 0-1.885496.1754982-2.6865.5265s-1.4894971.8369969-2.0655 1.458-1.0214984 1.3454959-1.3365 2.1735-.4725 1.7189952-.4725 2.673c0 1.0260051.1574984 1.9709957.4725 2.835s.7604971 1.6109969 1.3365 2.241c.5760029.6300032 1.264496 1.1249982 2.0655 1.485s1.6964951.54 2.6865.54c.7740039 0 1.5254964-.1844982 2.2545-.5535s1.4084969-.9584959 2.0385-1.7685l2.808 1.998c-.8640043 1.1880059-1.9169938 2.0519973-3.159 2.592s-2.564993.81-3.969.81c-1.4760074 0-2.8304938-.2384976-4.0635-.7155s-2.2949955-1.1519956-3.186-2.025-1.5884975-1.9214939-2.0925-3.1455-.756-2.5829925-.756-4.077c0-1.5300076.2519975-2.9204937.756-4.1715s1.2014955-2.3174956 2.0925-3.1995 1.9529938-1.5614976 3.186-2.0385 2.5874926-.7155 4.0635-.7155c1.2960065 0 2.4974945.2294977 3.6045.6885s2.1374952 1.2374945 3.0915 2.3355c0 0-.9540048-1.0980055 0 0zm25.65-4.482h3.915l5.211 14.445 5.373-14.445h3.672l-7.722 19.116h-2.943zm20.223 0h12.663v3.078h-9.261v4.698h8.775v3.078h-8.775v5.184h9.747v3.078h-13.149zm16.497 0h6.642c.918005 0 1.804496.0854991 2.6595.2565s1.615497.4634979 2.2815.8775 1.196998.9719965 1.593 1.674.594 1.5929946.594 2.673c0 1.3860069-.382496 2.5469953-1.1475 3.483s-1.858493 1.502999-3.2805 1.701l5.076 8.451h-4.104l-4.428-8.1h-2.484v8.1h-3.402zm6.048 8.1c.486002 0 .971998-.0224998 1.458-.0675s.931498-.1529991 1.3365-.324.733499-.4319982.9855-.783.378-.8414968.378-1.4715c0-.5580028-.116999-1.0079983-.351-1.35s-.539998-.5984991-.918-.7695-.796498-.2834997-1.2555-.3375-.904498-.081-1.3365-.081h-2.943v5.184zm0 0" fill="#000"/><circle cx="86.05" cy="33.45" fill="#d97b16" r="10.05"/></g></svg>