<?xml version="1.0" encoding="utf-8"?>
<!-- Generator: Adobe Illustrator 18.1.0, SVG Export Plug-In . SVG Version: 6.00 Build 0)  -->
<!DOCTYPE svg PUBLIC "-//W3C//DTD SVG 1.1//EN" "http://www.w3.org/Graphics/SVG/1.1/DTD/svg11.dtd">
<svg version="1.1" id="Layer_1" xmlns:sketch="http://www.bohemiancoding.com/sketch/ns" opacity="0.5"
	 xmlns="http://www.w3.org/2000/svg" xmlns:xlink="http://www.w3.org/1999/xlink" x="0px" y="0px" viewBox="-225 347 160 100"
	 enable-background="new -225 347 160 100" xml:space="preserve">
<title></title>
<g id="Page-1">
	<g id="DISCOVER">
		<path id="Rectangle-1" fill="#F4F4F4" d="M-77,347c-8,0-92.7,0-140,0c-4,0-8,4-8,8v80c0,8,4,12,12,12c44.6,0,128,0,136,0
			s12-4,12-12v-76C-65,351-69,347-77,347z"/>
		<path id="Rectangle-1-copy" fill="#8C8C8C" d="M-175.5,447c43,0,92.4,0,98.5,0c8,0,12-4,12-12v-47.6
			C-65,387.4-88.8,429.4-175.5,447z"/>
		<path id="NETWORK" d="M-173,395.9h1.4l4.5,6.6h0v-6.6h1.1v8.1h-1.4l-4.5-6.6h0v6.6h-1.1V395.9z M-163.9,395.9h5.2v1h-4.1v2.4h3.8
			v1h-3.8v2.6h4.3v1h-5.4V395.9z M-155.2,396.9h-2.6v-1h6.3v1h-2.6v7.1h-1.1V396.9z M-151.4,395.9h1.1l1.8,6.5h0l1.9-6.5h1.3
			l1.9,6.5h0l1.8-6.5h1.1l-2.4,8.1h-1.2l-2-6.6h0l-2,6.6h-1.2L-151.4,395.9z M-135.7,404.2c-0.6,0-1.2-0.1-1.7-0.3
			c-0.5-0.2-1-0.5-1.3-0.9c-0.4-0.4-0.7-0.8-0.9-1.3c-0.2-0.5-0.3-1.1-0.3-1.7c0-0.6,0.1-1.2,0.3-1.7c0.2-0.5,0.5-1,0.9-1.3
			c0.4-0.4,0.8-0.7,1.3-0.9c0.5-0.2,1.1-0.3,1.7-0.3s1.2,0.1,1.7,0.3c0.5,0.2,1,0.5,1.3,0.9c0.4,0.4,0.7,0.8,0.9,1.3
			c0.2,0.5,0.3,1.1,0.3,1.7c0,0.6-0.1,1.2-0.3,1.7c-0.2,0.5-0.5,1-0.9,1.3c-0.4,0.4-0.8,0.7-1.3,0.9
			C-134.5,404.1-135.1,404.2-135.7,404.2z M-135.7,403.2c0.5,0,0.9-0.1,1.3-0.3s0.7-0.4,1-0.7c0.3-0.3,0.5-0.6,0.6-1
			c0.1-0.4,0.2-0.8,0.2-1.2c0-0.4-0.1-0.9-0.2-1.2s-0.3-0.7-0.6-1c-0.3-0.3-0.6-0.5-1-0.7s-0.8-0.3-1.3-0.3c-0.5,0-0.9,0.1-1.3,0.3
			s-0.7,0.4-1,0.7c-0.3,0.3-0.5,0.6-0.6,1c-0.1,0.4-0.2,0.8-0.2,1.2c0,0.4,0.1,0.9,0.2,1.2c0.1,0.4,0.3,0.7,0.6,1
			c0.3,0.3,0.6,0.5,1,0.7S-136.1,403.2-135.7,403.2C-135.7,403.2-136.1,403.2-135.7,403.2z M-129.9,395.9h2.8c0.5,0,0.9,0.1,1.3,0.2
			s0.6,0.3,0.8,0.5c0.2,0.2,0.3,0.5,0.4,0.7c0.1,0.3,0.1,0.5,0.1,0.8c0,0.3,0,0.5-0.1,0.7c-0.1,0.2-0.2,0.5-0.4,0.7
			c-0.2,0.2-0.4,0.4-0.6,0.5c-0.2,0.1-0.5,0.2-0.8,0.2l2.3,3.7h-1.4l-2.1-3.6h-1.2v3.6h-1.1V395.9z M-128.8,399.5h1.4
			c0.2,0,0.4,0,0.6-0.1c0.2,0,0.4-0.1,0.6-0.2c0.2-0.1,0.3-0.2,0.4-0.4c0.1-0.2,0.1-0.4,0.1-0.7c0-0.3,0-0.5-0.1-0.7
			c-0.1-0.2-0.2-0.3-0.4-0.4c-0.2-0.1-0.3-0.2-0.6-0.2c-0.2,0-0.4-0.1-0.6-0.1h-1.4V399.5z M-122.9,395.9h1.1v3.5h0.1l3.6-3.5h1.5
			l-3.9,3.7l4.2,4.3h-1.6l-3.8-4h-0.1v4h-1.1V395.9z"/>
		<path d="M-210.9,370.9h7.5c1.3,0,2.5,0.2,3.6,0.6c1.2,0.4,2.2,1,3.1,1.8c0.9,0.8,1.6,1.8,2.2,3c0.5,1.2,0.8,2.6,0.8,4.2
			c0,1.6-0.3,3.1-0.9,4.3c-0.6,1.2-1.4,2.2-2.4,3c-1,0.8-2.1,1.4-3.3,1.8c-1.2,0.4-2.4,0.6-3.5,0.6h-7.1V370.9z M-204.9,386.9
			c1.1,0,2.1-0.1,3-0.4c0.9-0.2,1.8-0.6,2.5-1.1c0.7-0.5,1.3-1.2,1.7-2s0.6-1.8,0.6-3c0-1.2-0.2-2.1-0.5-3c-0.4-0.8-0.9-1.5-1.5-2
			s-1.4-0.9-2.3-1.1c-0.9-0.2-1.8-0.4-2.9-0.4h-3.1v13H-204.9z M-190.5,370.9h3.4V390h-3.4V370.9z M-173.5,375
			c-0.4-0.5-0.8-0.9-1.4-1.1c-0.6-0.2-1.2-0.4-1.9-0.4c-0.4,0-0.8,0-1.1,0.1s-0.7,0.2-1,0.4c-0.3,0.2-0.5,0.5-0.7,0.8
			c-0.2,0.3-0.3,0.7-0.3,1.1c0,0.6,0.2,1.1,0.7,1.5c0.4,0.3,1,0.6,1.7,0.9c0.7,0.3,1.4,0.5,2.2,0.7c0.8,0.2,1.5,0.6,2.2,1
			c0.7,0.4,1.2,1,1.7,1.6c0.4,0.7,0.7,1.6,0.7,2.7c0,1-0.2,1.9-0.6,2.7s-0.9,1.4-1.5,1.9c-0.6,0.5-1.4,0.9-2.2,1.1
			c-0.8,0.3-1.7,0.4-2.7,0.4c-1.2,0-2.3-0.2-3.4-0.6c-1.1-0.4-2-1.1-2.8-2l2.6-2.5c0.4,0.6,1,1.1,1.6,1.5s1.4,0.5,2.1,0.5
			c0.4,0,0.8-0.1,1.2-0.2c0.4-0.1,0.8-0.3,1.1-0.5c0.3-0.2,0.6-0.5,0.8-0.8s0.3-0.7,0.3-1.1c0-0.7-0.2-1.2-0.7-1.6
			c-0.4-0.4-1-0.7-1.7-1c-0.7-0.3-1.4-0.5-2.2-0.7c-0.8-0.2-1.5-0.6-2.2-1s-1.2-0.9-1.7-1.6c-0.5-0.7-0.7-1.6-0.7-2.7
			c0-1,0.2-1.8,0.6-2.6s0.9-1.3,1.6-1.8c0.7-0.5,1.4-0.8,2.3-1.1c0.8-0.2,1.7-0.4,2.6-0.4c1,0,2,0.2,2.9,0.5
			c0.9,0.3,1.8,0.8,2.6,1.5c0,0-0.8-0.7,0,0L-173.5,375z M-154.2,375.4c-0.7-0.8-1.4-1.3-2-1.5c-0.7-0.3-1.3-0.4-2-0.4
			c-1,0-1.9,0.2-2.7,0.5s-1.5,0.8-2.1,1.5c-0.6,0.6-1,1.3-1.3,2.2c-0.3,0.8-0.5,1.7-0.5,2.7c0,1,0.2,2,0.5,2.8
			c0.3,0.9,0.8,1.6,1.3,2.2c0.6,0.6,1.3,1.1,2.1,1.5c0.8,0.4,1.7,0.5,2.7,0.5c0.8,0,1.5-0.2,2.3-0.6c0.7-0.4,1.4-1,2-1.8l2.8,2
			c-0.9,1.2-1.9,2.1-3.2,2.6s-2.6,0.8-4,0.8c-1.5,0-2.8-0.2-4.1-0.7c-1.2-0.5-2.3-1.2-3.2-2c-0.9-0.9-1.6-1.9-2.1-3.1
			s-0.8-2.6-0.8-4.1c0-1.5,0.3-2.9,0.8-4.2s1.2-2.3,2.1-3.2c0.9-0.9,2-1.6,3.2-2c1.2-0.5,2.6-0.7,4.1-0.7c1.3,0,2.5,0.2,3.6,0.7
			c1.1,0.5,2.1,1.2,3.1,2.3c0,0-1-1.1,0,0L-154.2,375.4z M-128.6,370.9h3.9l5.2,14.4l5.4-14.4h3.7l-7.7,19.1h-2.9L-128.6,370.9z
			 M-108.4,370.9h12.7v3.1h-9.3v4.7h8.8v3.1h-8.8v5.2h9.7v3.1h-13.1V370.9z M-91.9,370.9h6.6c0.9,0,1.8,0.1,2.7,0.3
			c0.9,0.2,1.6,0.5,2.3,0.9c0.7,0.4,1.2,1,1.6,1.7c0.4,0.7,0.6,1.6,0.6,2.7c0,1.4-0.4,2.5-1.1,3.5c-0.8,0.9-1.9,1.5-3.3,1.7l5.1,8.5
			h-4.1l-4.4-8.1h-2.5v8.1h-3.4V370.9z M-85.8,379c0.5,0,1,0,1.5-0.1c0.5,0,0.9-0.2,1.3-0.3s0.7-0.4,1-0.8c0.3-0.4,0.4-0.8,0.4-1.5
			c0-0.6-0.1-1-0.4-1.4c-0.2-0.3-0.5-0.6-0.9-0.8c-0.4-0.2-0.8-0.3-1.3-0.3c-0.5-0.1-0.9-0.1-1.3-0.1h-2.9v5.2H-85.8z"/>
		<circle id="Oval-1" fill="#8C8C8C" cx="-138.9" cy="380.5" r="10"/>
	</g>
</g>
</svg>
