<svg height="100" viewBox="0 0 131.39 86.9" width="100" xmlns="http://www.w3.org/2000/svg"><g opacity=".5"><path d="m48.37 15.14h34.66v56.61h-34.66z" fill="#787878"/><path d="m51.94 43.45a35.94 35.94 0 0 1 13.75-28.3 36 36 0 1 0 0 56.61 35.94 35.94 0 0 1 -13.75-28.31z" fill="#404040"/><path d="m120.5 65.76v-1.16h.5v-.24h-1.19v.24h.47v1.16zm2.31 0v-1.4h-.36l-.42 1-.42-1h-.36v1.4h.26v-1.06l.39.91h.27l.39-.91v1.06z"/><path d="m123.94 43.45a36 36 0 0 1 -58.25 28.3 36 36 0 0 0 0-56.61 36 36 0 0 1 58.25 28.3z" fill="#b8b8b8"/></g></svg>