<svg height="100" viewBox="0 0 160 100" width="160" xmlns="http://www.w3.org/2000/svg"><g fill="none" fill-rule="evenodd"><path d="m0 9h160v80h-160z" fill="#f6f6f6"/><path d="m148 .00000101c-8 .00000076-92.6992188-.00000261-140 0-4 .00000022-8 4-8 8v11.99999999h160s-.000002 18.5719401 0-8c0-7.99999999-4-11.99999999-12-11.99999999zm0 0" fill="#265697"/><path d="m0 80s.00000097.000001 0 8.0000005c-.00000046 7.9999994 4 11.9999992 12 11.9999992 44.6232096 0 128 .0000003 136 0 8 0 12-3.9999998 12-11.9999992v-8.0000005zm0 0" fill="#d97b16"/><g fill="#265697"><path d="m111.614545 29.7821084c-2.242545-.8596256-5.756121-1.7821084-10.144272-1.7821084-11.1838791 0-19.0618488 5.7551133-19.1290912 14.0028374-.063 6.0969261 5.6241818 9.4979311 9.9175152 11.5277833 4.4057575 2.0797044 5.8867878 3.4062069 5.8655757 5.2633103-.0277879 2.8441774-3.5182424 4.1435862-6.7713333 4.1435862-4.5302727 0-6.937-.6430936-10.6542121-2.2273103l-1.4585455-.6743054-1.5885757 9.4985813c2.6434545 1.1843152 7.5322121 2.2106206 12.6080606 2.2637241 11.8976663 0 19.6214243-5.6890049 19.7092423-14.4965911.042636-4.8269951-2.973091-8.5002365-9.502818-11.5284335-3.9562728-1.9628769-6.3791213-3.2726897-6.3534546-5.2602759 0-1.7636847 2.0507878-3.6496158 6.4817876-3.6496158 3.701303-.0587389 6.382303.7659902 8.471485 1.6256158l1.014152.4896355z"/><path d="m140.638455 28.7779113h-8.74597c-2.709212 0-4.736879.7555862-5.926667 3.5186995l-16.809757 38.8853793h11.885363s1.943243-5.2284137 2.382758-6.3763152c1.298818 0 12.845.0182069 14.495515.0182069.338758 1.4853793 1.377091 6.3581083 1.377091 6.3581083h10.502545zm-13.95694 27.3489261c.936091-2.4447093 4.509485-11.8613596 4.509485-11.8613596-.066818.1129261.929091-2.4566305 1.500758-4.049734l.764909 3.6582858s2.167242 10.1284532 2.620333 12.2523743zm0 0"/><path d="m59.2498788 71.1685517 7.0765757-42.4311724h11.3185758l-7.0814545 42.4311724zm0 0"/><path d="m49.7568182 28.7683744-11.0812121 28.9348768-1.1806667-5.8801773c-2.0628788-6.7783842-8.4901515-14.1224828-15.6755455-17.7991921l10.132394 37.1080394 11.975303-.0138719 17.8190303-42.3496749z"/></g><path d="m28.3955758 28.7421478h-18.2511213l-.1444545.8828177c14.1991818 3.5121971 23.5946667 11.9998621 27.4947273 22.1981084l-3.9685758-19.4987192c-.6851515-2.6868178-2.672303-3.4885714-5.1305757-3.5822069" fill="#d97b16"/></g></svg>