<svg enable-background="new -225 347 160 100" viewBox="-225 347 160 100" xmlns="http://www.w3.org/2000/svg"><g opacity=".5"><path d="m-225 356h160v80h-160z" fill="#f6f6f6"/><path d="m-77 347c-8 0-92.7 0-140 0-4 0-8 4-8 8v12h160s0 18.6 0-8c0-8-4-12-12-12z" fill="#4f4f4f"/><path d="m-225 427v8s4 12 12 12h136s12-4 12-12v-8z" fill="#8c8c8c"/><g fill="#4f4f4f"><path d="m-113.4 376.8c-2.2-.9-5.8-1.8-10.1-1.8-11.2 0-19.1 5.8-19.1 14-.1 6.1 5.6 9.5 9.9 11.5 4.4 2.1 5.9 3.4 5.9 5.3 0 2.8-3.5 4.1-6.8 4.1-4.5 0-6.9-.6-10.7-2.2l-1.5-.7-1.6 9.5c2.6 1.2 7.5 2.2 12.6 2.3 11.9 0 19.6-5.7 19.7-14.5 0-4.8-3-8.5-9.5-11.5-4-2-6.4-3.3-6.4-5.3 0-1.8 2.1-3.6 6.5-3.6 3.7-.1 6.4.8 8.5 1.6l1 .5z"/><path d="m-84.4 375.8h-8.7c-2.7 0-4.7.8-5.9 3.5l-16.8 38.9h11.9s1.9-5.2 2.4-6.4h14.5c.3 1.5 1.4 6.4 1.4 6.4h10.5zm-13.9 27.3c.9-2.4 4.5-11.9 4.5-11.9-.1.1.9-2.5 1.5-4l.8 3.7s2.2 10.1 2.6 12.3z"/><path d="m-165.8 418.2 7.1-42.4h11.3l-7.1 42.4z"/><path d="m-175.2 375.8-11.1 28.9-1.2-5.9c-2.1-6.8-8.5-14.1-15.7-17.8l10.1 37.1h12l17.8-42.3z"/></g><path d="m-196.6 375.7h-18.3l-.1.9c14.2 3.5 23.6 12 27.5 22.2l-4-19.5c-.7-2.7-2.6-3.5-5.1-3.6" fill="#8c8c8c"/></g></svg>