<svg viewBox="0 0 1578.26 1295.38" xmlns="http://www.w3.org/2000/svg"><path d="m513.84 184.13a86.1 86.1 0 0 1 -62.73-31.74q-2.15-2.64-4.09-5.44t-3.65-5.74a85.87 85.87 0 0 1 -11.52-38.67q-.12-2.25-.12-4.52c0-1.34 0-2.67.11-4h-302.77l.78 248.72h390.53l-.5-158.53h-2c-1.33.03-2.7-.01-4.04-.08z" fill="#c3c4c7"/><path d="m1112.73 416.58v-34.42c-43.6 7.44-82.36 11.16-116.27 0s53.29 35.36 116.27 34.42z" fill="#c3c4c7"/><rect fill="#004e6e" height="37.66" rx="1.23" width="21.1" x="986.77" y="222.82"/><path d="m1149.58 473.08a46.78 46.78 0 0 1 -40.14-44.7l-1.72-50.85s25.75-5.12 48.61-48.1c24.22-45.56 29.07-126-29.07-169.56-26.19-19.64-47.57-44.31-55.79-60.52-23.23 45.03-45.63 120.63-147.68 113.77 0 0 14.37 159.82 67.66 168.93l-5.55 45.22a54.48 54.48 0 0 1 -47.58 47.46v1.9c6.58 11 42.87 65.93 108.64 65.93 58 0 99.53-42.73 114.21-60.35v-7.47z" fill="none"/><path d="m938.32 476.63v-1.9a54.48 54.48 0 0 0 47.58-47.46l5.55-45.22c-53.29-9.11-67.66-168.93-67.66-168.93 102.07 6.86 124.46-68.75 147.68-113.81 8.22 16.21 29.6 40.88 55.79 60.52 58.14 43.6 53.29 124 29.07 169.56-22.85 43-48.61 48.1-48.61 48.1l1.72 50.85a46.78 46.78 0 0 0 40.14 44.73l11.6 1.66v7.47c3.81-4.58 5.82-7.47 5.82-7.47a349.71 349.71 0 0 1 72.38 21.3c13.17-14.06 27.77-34.76 37.91-63.86 23-66.06-40.64-148.84-43.6-182.24-4.84-54.67 13.47-80.46-14.53-159.46-17.66-49.81-103.68-107.15-192.12-85.94-95.52 13.09-136.1 99.35-136.1 196.42 0 130-78.72 126.43-78.72 217.55 0 54.25 22.32 81 40.39 93.84a396.9 396.9 0 0 1 84.63-37.61s.35.65 1.08 1.9z" fill="#8e9196"/><path d="m962.54 789.63c85.51-48.45 109.5-14.4 126 0 32.56 28.49 171.11 139 214.58 173.66l-3.19-68 190.91-3.91s-26.22-301.18-251.47-395.34a349.71 349.71 0 0 0 -72.38-21.3s-2 2.89-5.82 7.47c-14.67 17.63-56.22 60.35-114.21 60.35-65.78 0-102.06-55-108.64-65.93-.73-1.21-1.1-1.9-1.1-1.9a396.9 396.9 0 0 0 -84.63 37.61c-204.35 122.04-191.75 383.87-191.75 383.87h182.31l-4.88 281h430c-111.29-62.81-155.53-256.76-155.53-256.76s-29.07-4.84-58.14-24.22c-25.81-17.21-29.07-53.29-29.07-53.29s-39.55-3.73-72.67 4.84c-11.38 2.95-14.53-4.84-19.38-19.38s4.84-33.92 29.06-38.77z" fill="#3895ba"/><path d="m928.74 210.7c.48 20.78 1.53 41.53 4.38 61.91s7.72 40.41 17 58a87.32 87.32 0 0 0 42.2 39.07c18.05 8 38.51 10.61 58.84 11.16 20.26.37 40.82-.86 58.77-8.65 17.95-7.56 32-22 39.8-40.24s11.39-38.6 13.34-59.05 2.6-41.36 3-62.23a4.3 4.3 0 0 1 8.59 0c.34 20.93.62 42-.79 63.13-1.6 21.08-4.6 42.58-13 63s-25.21 38.21-45.88 46.94c-20.62 9-42.92 10.42-64.2 9.83s-43.17-3.52-63.47-12.58c-5-2.39-10.09-4.61-14.6-8-2.3-1.58-4.68-3-6.91-4.73l-6.22-5.65c-4.39-3.54-7.44-8.3-11-12.54-3.35-4.43-5.85-9.39-8.76-14.08-9.85-19.73-14.51-41-17-62.1-2.29-21.14-2.7-42.24-2.54-63.27a4.3 4.3 0 0 1 8.59-.07z" fill="#004e6e"/><path d="m1062.21 224.38a165.05 165.05 0 0 1 3.19 29.33c.1 4.89.14 9.78-.17 14.67a113 113 0 0 1 -1.57 14.67 4.76 4.76 0 0 1 -9.35 0 113 113 0 0 1 -1.57-14.67c-.31-4.89-.27-9.78-.17-14.67a165.25 165.25 0 0 1 3.19-29.33 3.3 3.3 0 0 1 6.44 0z" fill="#004e6e"/><rect fill="#004e6e" height="37.66" rx="1.23" width="21.1" x="1107.88" y="222.82"/><path d="m1032.84 315.5a63.14 63.14 0 0 0 12.61 2.73c4.48.62 9.07.93 13.66 1.17a103.28 103.28 0 0 0 13.6-.45 39.82 39.82 0 0 0 12-2.9l.67-.31a4.28 4.28 0 0 1 4.82 6.92c-4.61 4.56-10.13 6.46-15.39 7.8s-10.66 1.59-16 1.7a62.75 62.75 0 0 1 -15.82-2.05c-5.17-1.52-10.45-3.39-15.06-7.53a4.31 4.31 0 0 1 4.25-7.28zm58.3-136.23c3.83-4.27 8.18-5.59 12.29-6.81a42.69 42.69 0 0 1 12.53-1.15c4.15.32 8.35.66 12.42 2.1a27.62 27.62 0 0 1 11.56 6.72 4.33 4.33 0 0 1 -4.61 7.08l-.56-.21a45.41 45.41 0 0 0 -9.14-2.22 85.12 85.12 0 0 0 -10.05-.72c-3.39 0-6.79.06-10.07.33a50.93 50.93 0 0 0 -8.64 1.27l-1.76.39a4.13 4.13 0 0 1 -4-6.79zm-73.58 6.4a50.9 50.9 0 0 0 -8.64-1.27c-3.28-.28-6.69-.29-10.07-.33a85.12 85.12 0 0 0 -10.05.72 45.45 45.45 0 0 0 -9.14 2.22l-.55.2a4.33 4.33 0 0 1 -4.61-7.07 27.62 27.62 0 0 1 11.56-6.72c4.07-1.44 8.27-1.78 12.42-2.1a42.69 42.69 0 0 1 12.53 1.15c4.11 1.22 8.46 2.54 12.29 6.81a4.13 4.13 0 0 1 -3.95 6.79z" fill="#004e6e"/><path d="m1526.05 1118.15c.15-39 2.38-77.82 5.13-116.6l9.2-116.25q4.78-58.11 10.24-116.16l10.68-116.12 8.46 9.22c-21-.31-42-.31-63-.87-21-.38-42-1.08-63-1.9a5.73 5.73 0 0 1 0-11.45c21-.82 42-1.52 63-1.9 21-.55 42-.56 63-.87a8.38 8.38 0 0 1 8.5 8.26v.96l-9.42 116.25q-4.6 58.12-9.81 116.19l-10.85 116.1c-3.93 38.67-8.39 77.3-14.92 115.75a3.64 3.64 0 0 1 -7.23-.62z" fill="#c3c4c7"/><circle cx="1051.73" cy="599.74" fill="#c3c4c7" r="11.04"/><path d="m972.23 886.52h-29.07c-48.45 0-58.14-164.72-58.14-164.72h150.18s-19.36 164.72-62.97 164.72z" fill="#fff"/><path d="m999.41 318.99a10.78 10.78 0 0 1 -.22-4 22.39 22.39 0 0 1 .9-3.53c1.05-2.18 2.08-4.38 4.43-6.07l3.79 1.43c.64 2.82 0 5.15-.68 7.49a22.2 22.2 0 0 1 -1.66 3.25 10.78 10.78 0 0 1 -2.77 2.83zm116.53 1.39a10.82 10.82 0 0 1 -2.77-2.83 22.39 22.39 0 0 1 -1.65-3.25c-.65-2.34-1.33-4.66-.69-7.49l3.79-1.43c2.35 1.7 3.37 3.89 4.43 6.07a22.39 22.39 0 0 1 .9 3.53 10.78 10.78 0 0 1 -.22 4zm16.16 657.64a4.3 4.3 0 0 1 -2.94-7.43l77.52-72.67a4.3 4.3 0 1 1 5.87 6.28l-77.52 72.67a4.29 4.29 0 0 1 -2.93 1.15z" fill="#c3c4c7"/><path d="m1408.24 1177.2h157.67v113.04" fill="#fff"/><path d="m1408.25 1173.57c26.28-4.63 52.56-5 78.83-5.36q39.42-.81 78.83-.23h.22a9.1 9.1 0 0 1 9 9.21l-.62 56.52c-.27 9.42-.41 18.84-.85 28.26s-1 18.84-2 28.26a5.76 5.76 0 0 1 -11.46 0c-1-9.42-1.55-18.84-2-28.26s-.58-18.84-.85-28.26l-.62-56.52 9.22 9.22q-39.42.53-78.83-.23c-26.28-.37-52.55-.72-78.83-5.35a3.68 3.68 0 0 1 0-7.26zm-1394.62 116.67-1.7-56.52c-.66-18.84-.83-37.68-1.24-56.52a6.42 6.42 0 0 1 6.28-6.56h.29c103.8-2 207.61-2.18 311.41-2.34l311.41-.44 311.41.68 155.71 1 77.85.6 77.85 1.3a5.73 5.73 0 0 1 0 11.45l-77.85 1.3-77.85.6-155.71 1-311.41.68-311.41-.44c-103.8-.16-207.61-.3-311.41-2.34l6.56-6.56c-.41 18.84-.58 37.68-1.24 56.52l-1.69 56.52a3.63 3.63 0 0 1 -7.25 0z" fill="#c3c4c7"/><path d="m956.11 787.25a111.41 111.41 0 0 1 50.14-25.3c18.89-4.14 39.05-2.48 57.54 3.79a102.76 102.76 0 0 1 26.42 13.48c4.36 3.33 7.51 6.07 11 8.92l10.35 8.56 41.83 34.15 83.75 68.49c28 22.72 56 45.53 82.67 69.9a5.741 5.741 0 0 1 -7.13 9c-29.77-20.56-58.22-42.76-86.52-65.17l-84.84-67.33-41.88-34.47-10.38-8.84c-3.42-3-7.05-6.22-9.81-8.43a85 85 0 0 0 -21.37-11.51 108.78 108.78 0 0 0 -49.13-5.52c-16.71 2-33.32 7.29-49.41 15.08a2.89 2.89 0 0 1 -3.18-4.77z" fill="#004e6e"/><path d="m945.45 842.64c6.06-3.58 12.48-7 19.36-8.88a89.57 89.57 0 0 1 21-4.13 104.37 104.37 0 0 1 21.38.43 107 107 0 0 1 21.35 4.75 8.18 8.18 0 0 1 5.5 6.7l.08.63a83.73 83.73 0 0 0 8.3 26.74 52.52 52.52 0 0 0 17.42 20.14 158.12 158.12 0 0 0 26.31 13.79 149.36 149.36 0 0 0 28 8.61 9.47 9.47 0 0 1 7.4 6.92v.06c14.91 57.73 37.31 115 68.9 165.48 15.92 25.12 34.39 48.73 56.84 67.4s49 31.87 77.39 35.15a127.19 127.19 0 0 0 42.37-1.87 96.43 96.43 0 0 0 37.53-17.8c22.26-17.3 36.64-43.93 45.92-71.74 9.38-28 14.38-57.74 17.51-87.65 1.62-15 2.6-30.06 3-45.19.71-15.12.68-30.35.39-45.45v-.11a2.87 2.87 0 0 1 5.7-.52c5 30.51 6.24 61.34 5.1 92.29-1.34 30.9-5.66 62-15.34 92-9.75 29.69-25.11 59.61-51.29 80.36a114.52 114.52 0 0 1 -44.4 21.42 144.74 144.74 0 0 1 -48.64 2.5c-32.49-3.55-62.84-18.56-87.3-38.86-24.64-20.35-44.47-45.31-61.11-71.69s-30.15-54.54-41.75-83.25a653.78 653.78 0 0 1 -28.66-88.46l7.41 7a165 165 0 0 1 -32-10 176 176 0 0 1 -29.22-15.61 70.23 70.23 0 0 1 -23.22-27 100 100 0 0 1 -9.91-33.17l5.58 7.32a92.45 92.45 0 0 0 -17.43-3.91 114.48 114.48 0 0 0 -18.33-1 102.51 102.51 0 0 0 -18.24 1.88 133.29 133.29 0 0 0 -17.91 4.87l-.42.14a5.73 5.73 0 0 1 -4.7-10.38zm-8.61-24.63a105 105 0 0 1 25.73-8.25 134 134 0 0 1 53.75 1.07 126.45 126.45 0 0 1 25.36 8.67 4.32 4.32 0 0 1 2 5.76 4.37 4.37 0 0 1 -4.88 2.34c-8.3-1.87-16.51-3.69-24.79-4.87a223.11 223.11 0 0 0 -24.84-2.41 168.71 168.71 0 0 0 -24.84 1 171.5 171.5 0 0 0 -24.51 4.75 4.31 4.31 0 0 1 -5.31-3 4.36 4.36 0 0 1 2.33-5.06zm-.73-17.53a79.12 79.12 0 0 1 25.25-11.39c8.87-2.55 18-3.47 27.12-3.92a124.13 124.13 0 0 1 27.21 2 108.56 108.56 0 0 1 26 8.15 4.32 4.32 0 0 1 -2.85 8.06 209.64 209.64 0 0 0 -24.91-4.26 201.58 201.58 0 0 0 -25.06-1.19 149.3 149.3 0 0 0 -24.82 2.56 103.2 103.2 0 0 0 -23.49 7.37l-.13.06a4.31 4.31 0 0 1 -4.3-7.42z" fill="#004e6e"/><path d="m1164.44 219.6a29.79 29.79 0 0 0 -21.92-10.59l-29.72-1a35.86 35.86 0 0 0 -30.13 13.87 4.82 4.82 0 0 0 -1.46-.3l-46-1.54h-.12a35 35 0 0 0 -3.31-4.15 36.29 36.29 0 0 0 -25.54-11.48l-29.74-1a30.64 30.64 0 0 0 -22.63 9.09 27.31 27.31 0 0 0 -7.7 21.17l.74 9.76c1.59 21.26 20.11 37.73 42.28 37.73h.56l7.4-.09c23.68-.29 42.89-18.29 43.73-41a33.23 33.23 0 0 0 -1.21-10.18l37.89 1.27a33.44 33.44 0 0 0 -1.94 10.05c-.83 22.69 17 41.95 40.62 43.83l7.37.59c1.19.1 2.37.14 3.55.14 20.86 0 38.94-14.74 41.95-34.86l1.46-9.69a27.17 27.17 0 0 0 -6.13-21.62zm-133.27 20.13c-.65 17.5-15.65 31.39-34.14 31.62l-7.4.09h-.44c-17.1 0-31.38-12.54-32.58-28.73l-.74-9.76a17.67 17.67 0 0 1 5-13.71 20.16 20.16 0 0 1 14.59-6.12h.7l29.73 1a26.58 26.58 0 0 1 18.75 8.39 23.83 23.83 0 0 1 6.53 17.23zm129.79.08-1.46 9.69c-2.42 16.23-17.78 27.93-35.11 26.48l-7.37-.59c-18.41-1.48-32.32-16.32-31.68-33.8.51-13.65 12.71-24.21 27.12-23.86l29.72 1a20 20 0 0 1 14.78 7.09 17.55 17.55 0 0 1 4 13.99z" fill="#8e9196"/><path d="m688.33 916.78c3 5.86 1.89 11.72 2.17 17.59l-.06 17.6c-.2 11.73-.24 23.49-1 35.2-.6 11.72-1.63 23.38-2.73 35s-2.2 23.22-6.75 34.63a2.26 2.26 0 0 1 -4.29-.26c-3.15-11.9-2.83-23.61-2.22-35.26s1-23.3 1.6-34.89l1.75-34.78.6-17.41c.44-5.81-.69-11.61 2.39-17.43a4.84 4.84 0 0 1 6.53-2.06 4.94 4.94 0 0 1 2.01 2.07zm88.96 112.87a36.61 36.61 0 0 1 5 5.26 61.86 61.86 0 0 1 4.09 5.78 40.35 40.35 0 0 1 3.36 6.22 31.78 31.78 0 0 1 2.12 7 4.65 4.65 0 0 1 -7.37 4.42 31.78 31.78 0 0 1 -5.15-5.15 40.23 40.23 0 0 1 -3.9-5.89 61.41 61.41 0 0 1 -3.18-6.33 36.58 36.58 0 0 1 -2.3-6.85 4.54 4.54 0 0 1 7.37-4.42zm341.16-646.96.67 25.1.34 12.55a105.76 105.76 0 0 0 .63 11.73c1.82 14.13 11.75 26.75 24.81 31.54a36 36 0 0 0 5 1.5l2.54.52 3.14.53q6.32 1 12.58 2.36 12.53 2.62 24.87 6a431.85 431.85 0 0 1 48.49 16.34 375.42 375.42 0 0 1 88.6 51.1c26.83 21.24 50.65 46.36 69.47 74.78a5.73 5.73 0 0 1 -9.3 6.69 364.31 364.31 0 0 0 -70-68.68c-26.11-19.73-55-35.56-85.27-48.12a414.88 414.88 0 0 0 -46.44-16.13q-11.84-3.35-23.86-6l-12-2.51-3-.6-3.58-.83a51.75 51.75 0 0 1 -7-2.34 54.13 54.13 0 0 1 -33-44.54 65.09 65.09 0 0 1 -.22-7.06l.17-6.27.33-12.55.67-25.1a5.73 5.73 0 0 1 11.46 0z" fill="#004e6e"/><g fill="#c3c4c7"><circle cx="320.13" cy="610.28" r="16.6"/><circle cx="320.13" cy="527.59" r="16.6"/><circle cx="320.13" cy="444.91" r="16.6"/><circle cx="320.13" cy="610.28" r="16.6"/><circle cx="320.13" cy="527.59" r="16.6"/><circle cx="320.13" cy="444.91" r="16.6"/></g><circle cx="517.92" cy="98.03" fill="#2ebd99" r="73.33"/><path d="m431.84 102.55-9.86.1-97.63.37-185.52.7q.48 115.17-.18 230.34c29.1.14 58.21.59 87.37 1l96.54 1.53 195.43 5v-1.18c-1.27-52.74-2.84-104.69-4.13-156.2a86.33 86.33 0 0 1 -82.02-81.66z" fill="none"/><path d="m513.84 184.13c1.29 51.5 2.86 103.46 4.13 156.2v1.18l-195.43-5-96.54-1.53c-29.17-.38-58.28-.84-87.37-1q.57-115.17.18-230.34l185.52-.7 97.63-.37 9.86-.1q-.12-2.25-.12-4.52a86.52 86.52 0 0 1 .92-12.49l-10.66-.1-97.63-.37-195.27-.74h-.05a9.68 9.68 0 0 0 -9.67 9.7v.05q.2 124.36 1.76 248.72v.15a8.66 8.66 0 0 0 8.74 8.57l99.11-1 98.73-1.53 97.72-2.3 96.19-2.69h1.24c1-52.68 2.23-106.15 3.2-160.09-2.67.25-5.38.39-8.12.39-1.36.02-2.73-.02-4.07-.09z" fill="#004e6e"/><path d="m324.75 216.53-4.69-2.91-4.91 2.93z" fill="#004e6e"/><path d="m508.24 128.43q0-4.23 2.27-6.39t6.59-2.16a8.92 8.92 0 0 1 6.47 2.21 9.78 9.78 0 0 1 0 12.61 8.76 8.76 0 0 1 -6.44 2.29 9 9 0 0 1 -6.54-2.24 8.38 8.38 0 0 1 -2.35-6.32zm15.05-17.22h-12.28l-2.57-49.18h17.4z" fill="#fff"/><path d="m880.61 1169.59h-261.35l-4-33.91h261.4a4 4 0 0 1 3.95 3.95z" fill="#c3c4c7"/><path d="m619.26 1178.18h-560.48a8.59 8.59 0 0 1 -8.51-7.42l-49.67-359.21a63.35 63.35 0 0 1 62.75-72h449.91a63.6 63.6 0 0 1 62.75 54.68l51.76 374.15a8.58 8.58 0 0 1 -8.51 9.77zm-553-17.18h543.14l-50.4-364.45a46.36 46.36 0 0 0 -45.74-39.85h-449.9a46.17 46.17 0 0 0 -45.74 52.51z" fill="#c3c4c7"/><path d="m320.05 213.62c-13-8.08-25.81-16.38-39-24.09q-22-13.29-44.3-26c-29.62-17.2-59.59-33.84-91.66-47a1.74 1.74 0 0 0 -1.78 2.94c26.51 22.33 55.14 41.18 84.11 59.46q21.62 13.89 43.58 27.21c14.51 9.1 29.46 17.46 44.18 26.22l.15.09a9.09 9.09 0 0 0 9.45-.11c30.8-19.23 61.76-38.2 92.26-57.92q17.14-10.82 34.05-22a86.59 86.59 0 0 1 -7.75-11.18q-17.34 9.74-34.47 19.82c-29.84 17.15-59.27 35-88.82 52.59" fill="#004e6e"/></svg>
