<svg xmlns="http://www.w3.org/2000/svg" viewBox="0 0 1566.21 1115.58"><title>customDomain</title><path d="M845.94 134.26a9.41 9.41 0 0 0-10.35 8.37l-34 320.5 255.63.73h11.22v11.15l-.21 72.9 447.73 47.47a9.41 9.41 0 0 0 10.35-8.37l39.91-376.42z" fill="#3895ba"/><path d="M1138.85 596.91c-9.2 55.4-17.39 110.95-26.13 166.42s-16.54 111.08-24.72 166.63l-11.54 83.44-10.75 83.56a7.25 7.25 0 0 0 14.32 2.17l14.49-83 13.7-83.11c8.65-55.48 17.57-110.92 25.77-166.47s16.72-111.05 24.35-166.69q3-20.86 5.89-41.73l-18.78-2q-3.32 20.38-6.6 40.78zM400.13 424.83q3.94 30.21 8 60.4 9.85.06 19.7.27-4.69-31.31-9.53-62.59m82.54 579.83l-13.27-101-3.82-27.37c-7-.11-11.24-.19-18.21-.4l1.79 30.65 15.43 100.64 16.22 100.53a7.24 7.24 0 0 0 14.34-2z" fill="#c3c4c7"/><path d="M8.348 76.286L728.63.2l39.765 376.436a9.41 9.41 0 0 1-8.37 10.346L39.733 463.07-.031 86.634a9.41 9.41 0 0 1 8.369-10.347z" fill="#187aa2"/><path d="M679.62 920.6c-.22 30.7.3 61.41.53 92.11.68 30.7 1.33 61.41 3 92.11a7.25 7.25 0 0 0 14.49 0c1.65-30.7 2.3-61.41 3-92.11.24-30.7.75-61.41.53-92.11-.18-16.3-.2-32.6-.3-48.91l-20.91.48c-.14 16.15-.16 32.29-.34 48.43z" fill="#c3c4c7"/><path d="M1057.23 463.86l-538.85-1.54h-92.63l-9.44.49a118.55 118.55 0 0 0-36.51 9.27 114 114 0 0 0-66.81 85.77 123.08 123.08 0 0 0-1.68 18.75v16.91l.77 269.43v11.44h11.38l142-.37c47.34 0 94.68-.44 142-1l71-.78 71-1.64q71-1.5 142-4.87v-5.43q-71-3.32-142-4.87l-71-1.64-71-.78c-47.34-.59-94.68-1.05-142-1l-130.58-.34.74-258.05.08-16.76a99 99 0 0 1 1.42-14.75 92.85 92.85 0 0 1 9.69-27.81 91.56 91.56 0 0 1 43-39.09 93.39 93.39 0 0 1 28.5-7.06l7.38-.36h92.61l527.7-1.51.29 100.36 1.32 111.57c.19 18.6.4 37.19 1 55.79a126.62 126.62 0 0 1-1.29 26.15 97.49 97.49 0 0 1-42.15 63.48c-14.61 10-32.26 15.33-50.31 16.66v5.43c38.28 2.23 78-19.29 97-54.54a115.51 115.51 0 0 0 10.78-27.84 143.65 143.65 0 0 0 3.09-29.35c.59-18.6.81-37.19 1-55.79l1.32-111.57.32-111.57V463.9z" fill="#187aa2"/><path d="M216.34 1104.74a144.55 144.55 0 0 0-15.6-48.12c-7.95-15-18.34-28.85-29-43.46l-.07-.09a7.34 7.34 0 0 1 10.09-10.36 119.31 119.31 0 0 1 38.16 44c9.08 17.67 13.77 38.44 10.9 58.23a7.31 7.31 0 0 1-14.47 0zm77.96-45.92c-1.86-15.44-6.27-30.36-11.23-44.91a250.05 250.05 0 0 0-19.29-41.68 270.54 270.54 0 0 0-23-33.56 42.1 42.1 0 0 0-30.17-71.92 43.2 43.2 0 0 0-30.36 12.88 41.68 41.68 0 0 0 1.12 59.6 39.67 39.67 0 0 0 29.24 10.48 37.67 37.67 0 0 0 17.19-2.66c6.18 11.6 12.39 23.05 17.93 34.78 6.35 13 12 26.14 17.13 39.46s8.81 27.08 12 40.88a249.77 249.77 0 0 1 5.2 42.22v.1a7.27 7.27 0 0 0 14.46.76 165.83 165.83 0 0 0-.22-46.43zM187.99 909.98a24 24 0 0 1 7-15.57 21.91 21.91 0 0 1 15.57-6.15c11.5 0 22 9.83 22.25 21.72 1 11.8-8.88 23.81-22.25 25.23-13.43-1.12-23.43-13.26-22.56-25.22z" fill="#c3c4c7"/><path d="M118.23 1097.58q157.08-1.74 314.15-2.61l314.15-.9 314.15.53 157.07 1.09 157.07 1.89a7.245 7.245 0 0 1 0 14.49l-157.07 1.89-157.07 1.09-314.15.53-314.15-.9q-157.07-.65-314.15-2.61a7.245 7.245 0 0 1 0-14.49z" fill="#8e9196"/><path d="M995.75 380.58q.65-6.09 4.24-8.87t9.84-2.11q6 .64 9 4.18t2.33 9.49q-.61 5.73-4.3 8.68t-9.64 2.32q-6.1-.65-9.09-4.23t-2.38-9.46zm152.14 26.63l-28.59-3-37.64-85.15-.65-.07q-.88 21.41-1.84 30.48l-5.29 49.92-20.1-2.13 11.25-106.11 28.37 3 37.65 84.34.51.05q1.1-20.79 2-29.36l5.32-50.21 20.25 2.18zm99.69 10.57l-61.1-6.48 11.25-106.08 61.1 6.48-2 18.43-38.6-4.09-2.47 23.29 35.92 3.81-2 18.43-35.92-3.81-2.9 27.36 38.6 4.09zm74.94 7.94l-22.49-2.38 9.26-87.36-28.81-3.05 2-18.72 80.11 8.49-2 18.72-28.81-3.05zM190.88 286.85q-.64-6.1 2.29-9.56t9.18-4.12q6-.64 9.66 2.21t4.27 8.79q.61 5.73-2.38 9.39t-8.94 4.28q-6.1.64-9.77-2.23t-4.31-8.76zm147.25-58.86q2.78 26.34-8.78 41.87t-35.95 18.11q-24.38 2.58-38.94-10.19t-17.33-39.26q-2.8-26.48 8.82-41.84t36.08-17.94q24.45-2.59 38.89 10.12t17.21 39.13zm-77.4 8.16q1.88 17.78 9.58 26.06t21.12 6.87q26.92-2.84 23.14-38.62t-30.56-33q-13.43 1.42-19.29 11.17t-3.99 27.52zm135.11-1.64l4.3 40.71-22.5 2.38-11.21-106.09 30.91-3.27q21.62-2.29 32.83 4.49t12.9 22.81a28.3 28.3 0 0 1-3.39 17.2 34.28 34.28 0 0 1-13.38 13l36.09 42.93-25 2.64-29.63-38zm-1.93-18.29l7.26-.77q10.67-1.13 15.37-5.22t3.9-11.71q-.8-7.54-6.32-10.19t-16.41-1.49l-6.82.72zm127.71-14.07l42.09-4.45 5.81 55a119.3 119.3 0 0 1-18.77 6.72 126.31 126.31 0 0 1-18.33 3.29q-24 2.54-38.17-10.24t-16.95-39.19q-2.72-25.69 10.46-41.61t39.23-18.68a79.28 79.28 0 0 1 32.14 3.16l-5.57 18.79a53.69 53.69 0 0 0-24.78-3.25q-14.58 1.54-22.33 12.27t-6 27.27q1.83 17.27 9.86 25.63t21.54 6.93a73 73 0 0 0 14.14-3l-2.34-22.13-20.1 2.13z" fill="#fff"/><path d="M472 717.49q0-6.13 3.28-9.27t9.56-3.14q6.06 0 9.38 3.21t3.32 9.19q0 5.77-3.36 9.08t-9.34 3.32q-6.13 0-9.49-3.25t-3.35-9.14zm101.13-78.95q-12.77 0-19.77 9.59t-7 26.74q0 35.68 26.78 35.68 11.24 0 27.22-5.62v19a75.59 75.59 0 0 1-29.33 5.47q-23.28 0-35.61-14.12t-12.33-40.53q0-16.64 6.06-29.15a43.77 43.77 0 0 1 17.4-19.19q11.35-6.68 26.6-6.68a71.79 71.79 0 0 1 31.23 7.52l-7.3 18.39a121.11 121.11 0 0 0-12-5 35.92 35.92 0 0 0-11.95-2.1zm157.23 35.9q0 26.49-13.13 40.72t-37.65 14.23q-24.52 0-37.65-14.23T628.8 674.3q0-26.63 13.17-40.68t37.76-14q24.59 0 37.62 14.16t13.01 40.66zm-77.86 0q0 17.88 6.79 26.92t20.29 9q27.07 0 27.07-36t-26.92-36q-13.5 0-20.36 9.08t-6.87 27zm157.09 53.49l-25.68-83.69h-.66q1.38 25.54 1.39 34.08v49.62h-20.21V621.25h30.79l25.25 81.58h.44l26.78-81.58h30.79v106.68h-21.09v-50.49q0-3.57.11-8.25t1-24.81h-.66l-27.51 83.55z" fill="#004e6e"/></svg>
