<svg height="721.25" width="1111.25" xmlns="http://www.w3.org/2000/svg"><g transform="matrix(.125 0 0 -.125 0 721.25)"><path d="m6630 2820h-612.52c-68.12 0-123.55 54.28-123.55 122.23s55.43 127.77 123.55 127.77h932.52v460h-932.52c-325.47 0-590.28-265.34-590.28-590s264.81-590 590.28-590h604.2c68.13 0 123.56-54.05 123.56-122 0-67.96-55.43-118-123.56-118h-1295.63c-109.99-210-216.95-390-434.08-480h1738.03c320 4.61 581.77 275.42 581.77 597.21 0 321.77-261.77 588.18-581.77 592.79" fill="#616364"/><path d="m4281.97 3530c-519.14 0-941.97-425.35-941.97-948 0-6.16 0-20 0-20v-1952h470v1020h470.98c519.16 0 940.5 431.01 940.5 953.66s-420.36 946.34-939.51 946.34zm0-1420h-471.97v473.66c0 264.68 210.73 480.02 471.97 480.02s473.77-215.34 473.77-480.02-212.53-473.66-473.77-473.66" fill="#616364"/><path d="m1852.03 1630c-444.4 0-818.02 316.67-919.12 730.37 0 0-29.219 136.79-29.219 226.85 0 90.07 27.661 228.26 27.661 228.26 101.828 412.68 474.988 719.98 918.658 719.98 521.8 0 949.99-424.18 949.99-945.98v-229.48h-1386.35c81.87-160 247.44-250 438.38-250h1246.26l1.71 1353.2c0 201.74-165.06 366.8-366.8 366.8h-1766.388c-201.746 0-366.812-160.06-366.812-361.8v-1766.39c0-201.75 165.066-371.81 366.812-371.81h1766.388c181.05 0 332.08 130 361.25 300z" fill="#c60c78"/><path d="m1850.01 3086.44c-190.21 0-355.61-116.44-437.81-266.44h875.64c-82.2 150-247.61 266.44-437.83 266.44" fill="#c60c78"/><path d="m2650 4404.41c0 431.11-358.28 780.59-800.23 780.59-434.63 0-788.12-338.05-799.73-759.28-.19-1.77-.04-3.51-.04-5.34v-234.58c0-28.06 22.85-55.8 51.61-55.8h294.41c28.77 0 53.98 27.74 53.98 55.8v218.61c0 215.28 179.3 390.43 400 390.43s400-175.15 400-390.43v-218.61c0-28.06 23.33-55.8 52.09-55.8h294.42c28.76 0 53.49 27.74 53.49 55.8z" fill="#c60c78"/><g fill="#616364"><path d="m4809.28 1020-42.56-240.988c-21.27-121.793-101.09-177.574-209.27-177.574-91.63 0-162.57 59.714-141.86 177.378l42.55 241.184h65.63l-42.58-240.988c-13-75.106 20.7-117.867 84.54-117.867 65.62 0 121.77 39.031 135.37 117.671l42.56 241.184zm-257.74 75.44c0-20.09 15.38-29.54 31.93-29.54 20.69 0 43.15 14.77 43.15 42.56 0 19.49-13.01 29.54-30.15 29.54-21.27 0-44.93-13.58-44.93-42.56zm141.88.6c0-20.69 15.96-30.14 33.11-30.14 18.32 0 42.56 14.77 42.56 41.97 0 19.49-14.2 30.13-30.16 30.13-21.27 0-45.51-13.58-45.51-41.96"/><path d="m4967.88 1020-29.56-166.512c25.41 34.266 76.24 52.399 111.71 52.399 73.31 0 124.14-42.957 124.14-122.754 0-112.906-78.62-180.809-179.1-180.809-39.03 0-72.13 14.492-92.22 51.137l-11.24-43.461h-57.34l72.71 410zm-46.11-281.016c-2.37-48.472 28.96-79.796 74.47-79.796 57.35 0 112.9 44.343 116.46 111.714 2.36 49.067-29.56 78.047-73.9 78.047-56.75 0-113.5-45.531-117.03-109.965"/><path d="m5293.71 730c-2.37-40 28.96-72.66 82.17-72.66 29.56 0 68.57 11.562 89.84 31.652l33.11-38.265c-36.04-33.071-89.26-49.543-134.18-49.543-83.94 0-133.01 50.261-133.01 127.121 0 102.261 80.39 178.48 183.25 178.48 94 0 147.2-56.785 115.28-176.785zm186.8 50c4.72 50-24.83 70.348-73.9 70.348-44.32 0-85.11-20.348-102.86-70.348z"/><path d="m5692.83 900-2.96-38.543c28.38 37.273 62.67 44.879 93.99 44.879 28.38 0 53.79-10.074 67.39-24.844l-36.64-53.211c-13.01 11.793-26.01 17.699-48.48 17.699-41.98 0-83.35-25.175-92.81-78.968l-27.78-157.012h-60.89l51.43 290z"/><path d="m6144.55 900 30.73-229.344 111.13 229.344h67.99l-152.51-290h-71.53l-28.97 191.309-46.7-95.043-50.83-96.266h-70.95l-51.43 290h68.58l30.15-229.344 111.72 229.344z"/><path d="m6432.59 730c-2.37-40 28.96-72.66 82.17-72.66 29.56 0 68.56 11.562 89.84 31.652l33.11-38.265c-36.05-33.071-89.26-49.543-134.19-49.543-83.94 0-133 50.261-133 127.121 0 102.261 80.39 178.48 183.25 178.48 94 0 147.2-56.785 115.28-176.785zm186.8 50c4.72 50-24.84 70.348-73.9 70.348-44.33 0-85.12-20.348-102.86-70.348z"/><path d="m6835.85 900-51.41-290h-60.9l51.43 290zm-53.79 79.004c0-20.688 15.38-31.359 31.94-31.359 23.64 0 45.51 15.398 45.51 44.343 0 19.532-14.79 30.762-30.74 30.762-21.88 0-46.71-14.21-46.71-43.746"/><path d="m7106.05 828.266c-18.91 21.277-43.15 27.191-72.11 27.191-40.21 0-68.58-13.613-68.58-39.019 0-21.282 23.05-30.172 57.35-33.11 53.19-4.726 121.18-22.469 106.99-97.543-10.05-54.387-64.43-86.305-140.1-86.305-47.28 0-92.82 10.641-123.55 53.793l39.61 43.153c21.87-30.133 60.3-42.559 94.58-43.153 28.96 0 63.26 10.641 68.58 37.832 5.32 26.004-17.75 36.051-60.3 40.215-49.67 4.723-104.04 23.028-104.04 78.012 0 72.723 78.61 98.133 137.74 98.133 44.92 0 78.03-10.043 105.22-39.024z"/><path d="m7298.25 900-27.77-156.172c-8.87-49.664 13.59-83.984 64.43-83.984 47.88 0 88.67 39.668 96.93 88.14l26.59 152.016h60.9l-51.41-290h-54.98l4.13 42.023c-34.28-32.511-67.99-47.847-108.76-47.847-71.54 0-114.1 51.281-98.73 139.34l27.79 156.484z"/><path d="m7786.65 610 27.79 155.227c8.85 50.257-8.26 83.543-63.84 83.543-48.48 0-89.28-38.993-97.54-86.872l-26.6-151.898h-60.9l51.45 290h55.54l-4.13-42.379c33.7 31.324 68.56 46.777 106.4 46.777 70.94 0 117.07-49.343 101.11-138.621l-27.79-155.777z"/><path d="m7993.03 570c-4.13-40 26.6-56.184 78.05-56.184 44.94 0 93.41 25.09 104.64 88.926l8.86 49.801c-26.6-37.238-75.08-51.941-111.12-51.941-74.51 0-126.52 44.343-126.52 124.769 0 114.652 85.11 180.887 181.47 180.887 40.8 0 77.45-19.367 90.47-52.477l10.04 46.219h59.11l-50.85-298.617c-18.9-110.559-101.07-144.871-176.14-144.871-89.88 0-139.51 43.488-127.12 113.488zm17.15 167.199c0-49.629 32.52-79.797 79.24-79.797 125.88 0 159.59 193.297 33.67 193.297-59.71 0-112.91-44.308-112.91-113.5"/></g></g></svg>