<?xml version="1.0" encoding="utf-8"?>
<!-- Generator: Adobe Illustrator 19.2.1, SVG Export Plug-In . SVG Version: 6.00 Build 0)  -->
<svg version="1.1" id="Layer_1" xmlns="http://www.w3.org/2000/svg" xmlns:xlink="http://www.w3.org/1999/xlink" x="0px" y="0px"
	 viewBox="0 0 52.4 45.4" style="enable-background:new 0 0 52.4 45.4;" xml:space="preserve">
<style type="text/css">
	.st0{fill-rule:evenodd;clip-rule:evenodd;fill:#CC2E74;}
</style>
<g>
	<g>
		<path d="M5.8,39.2h8.6V25.6H5.8V39.2z M44.9,4.4C38.5-0.3,29.8,0,29.8,0H0v45.4h29.8c0,0,9.2,0.6,16.1-5.1
			c5.6-4.7,6.5-13.2,6.5-18.1C52.4,17.4,50.7,8.8,44.9,4.4z M44.9,36.9c-5.6,5.9-14.4,5.5-14.4,5.5H3.1V3.1h27.4c0,0,7.5-0.3,13,4.4
			c5.3,4.5,5.8,10.6,5.8,15C49.4,26.5,48.8,32.8,44.9,36.9z M10.1,14c-2.6,0-4.6,2.1-4.6,4.6c0,2.5,2.1,4.6,4.6,4.6
			c2.6,0,4.6-2.1,4.6-4.6C14.7,16.1,12.7,14,10.1,14z"/>
	</g>
</g>
<g>
	<g>
		<path class="st0" d="M34.4,19.5h1.5l-0.8-2L34.4,19.5z M40.3,14.7h2.1v6.5h3.8c-0.2-3.4-1.5-8.4-4.8-10.9c-4.3-3.4-11-3.8-11-3.8
			H17.7v8.2h2.4c0,0,2.7,0.2,2.7,4.1c0,4-2.7,4.1-2.7,4.1h-2.4v16h12.7c0,0,7.5,0,12-4.1c2.9-2.7,3.6-8.3,3.8-11.9h-5.8V14.7z
			 M30.4,16.4h-4.5v1.4H30v1.7h-4.1v1.7h4.5v1.7h-6.2v-8.2h6.2V16.4z M37.2,22.9l-0.6-1.7h-2.8l-0.6,1.7H31l3.1-8.2h2.1l3.4,8.2
			H37.2z M20.8,18.8c0-2.2-1.4-2.4-1.4-2.4h-1.7v4.8h1.7C19.4,21.2,20.8,21.2,20.8,18.8z"/>
	</g>
</g>
</svg>
