<svg viewBox="0 0 1607.59 1598.9" xmlns="http://www.w3.org/2000/svg"><path d="m803.77 13.08c-204.2 4.34-401.89 91.24-540.92 236.79-69.52 71.69-126 156.41-162.93 249.82s-56.48 191.17-56.48 291.1 19.55 199.86 58.65 291.1 95.58 176 165.1 245.48 154.24 126 245.48 162.93a780.24 780.24 0 0 0 291.1 56.48c99.93 0 197.68-19.55 291.1-56.48 91.24-36.93 176-93.41 245.48-162.93s126-154.24 165.1-245.48 58.65-191.17 58.65-291.1c2.17-199.86-78.21-397.54-219.41-540.92-69.52-71.69-154.24-130.34-247.65-169.44a809.05 809.05 0 0 0 -295.44-63v-4.35zm0-13c206.37-2.17 414.92 78.2 564.81 225.93 73.86 73.86 134.69 160.75 176 258.51 41.27 95.58 63 202 63 306.3 2.17 210.72-84.72 419.27-234.61 569.16-73.86 73.86-162.93 134.69-260.68 176s-202 60.83-308.48 63c-210.72 0-421.44-86.89-569.16-236.79-73.86-73.86-134.69-165.1-173.79-260.68-39.1-97.76-60.83-202-60.83-308.48 0-210.72 89.07-419.27 239-564.81 76-71.69 165.1-130.34 260.68-169.44 97.76-36.93 199.86-56.48 304.13-52.14z" fill="#c3c4c7"/><path d="m881.98 1016.71c-52.14-2.17-104.27-2.17-156.41-2.17h-13v13c0 52.14 2.17 104.27 2.17 156.41v10.86h10.86c26.07-2.17 54.31-2.17 80.38-4.34l78.21-6.52c4.34-50 6.52-104.27 8.69-156.41v-10.86zm36.93-627.81h-247.68l2.17 13 23.9 234.61c4.34 39.1 6.52 78.2 10.86 117.31 2.17 39.1 6.52 78.2 10.86 117.31v6.52h6.52c52.14-2.17 106.45-4.34 158.58-6.52l23.9-232.44c8.69-78.2 17.38-156.41 23.9-236.79v-13z" fill="#187aa2"/></svg>
