<svg id="Layer_1" data-name="Layer 1" xmlns="http://www.w3.org/2000/svg" xmlns:xlink="http://www.w3.org/1999/xlink" viewBox="0 0 106 106"><defs><style>.cls-1,.cls-7{fill:none;}.cls-2{font-size:14px;font-family:NotoSans-Bold, Noto Sans;}.cls-11,.cls-13,.cls-2{fill:#006088;}.cls-11,.cls-2{font-weight:700;}.cls-3{clip-path:url(#clip-path);}.cls-4{isolation:isolate;}.cls-5{clip-path:url(#clip-path-2);}.cls-6{clip-path:url(#clip-path-3);}.cls-7{stroke:#6ab3d0;stroke-miterlimit:10;stroke-width:2px;}.cls-8{clip-path:url(#clip-path-4);}.cls-9{clip-path:url(#clip-path-5);}.cls-10{clip-path:url(#clip-path-6);}.cls-11{font-size:30px;font-family:Recoleta-Bold, Recoleta;}.cls-12{letter-spacing:-0.02em;}.cls-13{font-size:13px;font-family:Recoleta-SemiBold, Recoleta;font-weight:600;}</style><clipPath id="clip-path" transform="translate(1 1)"><circle class="cls-1" cx="52" cy="52" r="32"/></clipPath><clipPath id="clip-path-2" transform="translate(1 1)"><rect class="cls-1" x="9" y="9" width="85" height="85"/></clipPath><clipPath id="clip-path-3" transform="translate(1 1)"><rect class="cls-1" x="19" y="19" width="65" height="65"/></clipPath><clipPath id="clip-path-4" transform="translate(1 1)"><circle class="cls-1" cx="52" cy="52" r="52"/></clipPath><clipPath id="clip-path-5" transform="translate(1 1)"><rect class="cls-1" x="-11" y="-11" width="125" height="125"/></clipPath><clipPath id="clip-path-6" transform="translate(1 1)"><rect class="cls-1" width="104" height="104"/></clipPath></defs><title>30 Day Money Back badge</title><text class="cls-2" transform="matrix(0.48, -0.88, 0.88, 0.48, 17.31, 43.23)">M</text><text class="cls-2" transform="matrix(0.72, -0.7, 0.7, 0.72, 23.51, 31.77)">O</text><text class="cls-2" transform="matrix(0.89, -0.46, 0.46, 0.89, 31.4, 24.09)">N</text><text class="cls-2" transform="translate(41.38 18.9) rotate(-12.53)">E</text><text class="cls-2" transform="translate(48.92 17.23) rotate(0.36)">Y</text><text class="cls-2" transform="translate(57.54 17.28) rotate(9.94)"> </text><text class="cls-2" transform="translate(61.03 17.9) rotate(20.11)">B</text><text class="cls-2" transform="translate(69.75 21.08) rotate(34.45)">A</text><text class="cls-2" transform="translate(77.38 26.32) rotate(47.85)">C</text><text class="cls-2" transform="translate(83.29 32.84) rotate(60.74)">K</text><text class="cls-2" transform="matrix(0.59, 0.81, -0.81, 0.59, 11.05, 74.88)">G</text><text class="cls-2" transform="matrix(0.76, 0.65, -0.65, 0.76, 17.87, 84.26)">U</text><text class="cls-2" transform="translate(26.92 92.03) rotate(27.13)">A</text><text class="cls-2" transform="translate(36.82 97.1) rotate(13.74)">R</text><text class="cls-2" transform="translate(47.24 99.64) rotate(0.24)">A</text><text class="cls-2" transform="matrix(0.97, -0.25, 0.25, 0.97, 58.38, 99.69)">N</text><text class="cls-2" transform="translate(70.79 96.47) rotate(-28.3)">T</text><text class="cls-2" transform="translate(79.24 91.92) rotate(-39.44)">E</text><text class="cls-2" transform="matrix(0.64, -0.77, 0.77, 0.64, 86.45, 86)">E</text><g class="cls-3"><g class="cls-4"><g class="cls-5"><g class="cls-6"><circle class="cls-7" cx="53" cy="53" r="32"/></g></g></g></g><g class="cls-8"><g class="cls-4"><g class="cls-9"><g class="cls-10"><circle class="cls-7" cx="53" cy="53" r="52"/></g></g></g></g><text class="cls-11" transform="translate(34.43 57)"><tspan class="cls-12">3</tspan><tspan x="17.4" y="0">0</tspan></text><text class="cls-13" transform="translate(39.6 73)">DAY</text></svg>