<?xml version="1.0" encoding="utf-8"?>
<!-- Generator: Adobe Illustrator 16.0.0, SVG Export Plug-In . SVG Version: 6.00 Build 0)  -->
<!DOCTYPE svg PUBLIC "-//W3C//DTD SVG 1.1//EN" "http://www.w3.org/Graphics/SVG/1.1/DTD/svg11.dtd">
<svg version="1.1" id="Layer_1" xmlns="http://www.w3.org/2000/svg" xmlns:xlink="http://www.w3.org/1999/xlink" x="0px" y="0px"
	 width="309.961px" height="162.979px" viewBox="0 0 309.961 162.979" enable-background="new 0 0 309.961 162.979"
	 xml:space="preserve">
<g>
	<path fill-rule="evenodd" clip-rule="evenodd" fill="#FFFFFF" d="M0,162.979C0,108.653,0,54.327,0,0c103.32,0,206.641,0,309.961,0
		c0,54.327,0,108.653,0,162.979C206.641,162.979,103.32,162.979,0,162.979z M82.453,115.945c19.18,1.05,34.663-16.015,34.629-34.457
		C117.048,63.419,103.81,46.5,82.83,46.436c-20.555-0.062-34.308,15.109-34.683,34.667
		C47.772,100.669,63.083,115.937,82.453,115.945z M190.901,81.083c-0.911,19.174,14.806,33.877,31.491,34.956
		c21.329,1.378,37.238-14.793,37.194-34.52c-0.044-19.525-13.533-34.827-34.265-35.104C205.14,46.145,190.302,62.466,190.901,81.083
		z M119.802,59.427c6.77,1.116,6.743,1.127,9.727,8.029c5.831,13.492,11.516,27.052,17.687,40.387
		c1.348,2.913,4.088,5.695,6.896,7.285c3.234,1.831,6.42,1.804,8.43-3.159c7.498-18.512,15.619-36.771,23.308-55.208
		c1.011-2.424,0.875-5.326,1.317-8.328c-7.916,0-14.976,0-22.138,0c0,3.999,0,7.671,0,11.353c2.162,0.122,3.817,0.215,5.949,0.334
		c-4.851,11.937-9.606,23.641-14.777,36.367c-5.307-12.608-10.247-24.344-15.281-36.305c2.396-0.203,4.159-0.352,5.996-0.507
		c0-3.927,0-7.496,0-10.917c-0.638-0.285-0.93-0.527-1.225-0.53c-5.66-0.054-11.32-0.101-16.98-0.108
		c-10.672-0.015-10.672-0.004-9.185,10.896C119.545,59.163,119.707,59.291,119.802,59.427z"/>
	<path fill-rule="evenodd" clip-rule="evenodd" fill="#4D3692" d="M82.453,115.945c-19.37-0.008-34.68-15.276-34.306-34.842
		c0.375-19.558,14.127-34.729,34.683-34.667c20.98,0.063,34.218,16.983,34.252,35.053C117.115,99.93,101.632,116.995,82.453,115.945
		z M82.613,104.148c12.231,0.01,21.237-9.487,21.412-22.577c0.169-12.695-9.732-23.996-21.337-23.505
		c-12.284,0.52-21.274,9.436-21.088,23.436C61.78,95.046,70.128,104.138,82.613,104.148z"/>
	<path fill-rule="evenodd" clip-rule="evenodd" fill="#4D3692" d="M190.901,81.083c-0.599-18.617,14.238-34.938,34.42-34.668
		c20.732,0.277,34.221,15.579,34.265,35.104c0.044,19.727-15.865,35.898-37.194,34.52C205.708,114.96,189.99,100.257,190.901,81.083
		z M246.086,81.335c0.352-14.135-9.344-23.042-21.178-23.256c-10.052-0.182-18.007,7.257-20.646,18.144
		c-2.335,9.633,2.631,21.246,10.988,25.688C230.01,109.759,246.094,99.027,246.086,81.335z"/>
	<path fill-rule="evenodd" clip-rule="evenodd" fill="#4D3692" d="M119.802,59.427c-0.095-0.136-0.257-0.264-0.277-0.411
		c-1.487-10.9-1.487-10.911,9.185-10.896c5.66,0.008,11.321,0.054,16.98,0.108c0.294,0.003,0.586,0.245,1.225,0.53
		c0,3.421,0,6.989,0,10.917c-1.837,0.156-3.6,0.305-5.996,0.507c5.034,11.961,9.974,23.697,15.281,36.305
		c5.17-12.726,9.926-24.43,14.777-36.367c-2.132-0.12-3.787-0.213-5.949-0.334c0-3.681,0-7.354,0-11.353c7.163,0,14.222,0,22.138,0
		c-0.442,3.002-0.307,5.904-1.317,8.328c-7.689,18.437-15.81,36.696-23.308,55.208c-2.01,4.963-5.195,4.99-8.43,3.159
		c-2.808-1.589-5.548-4.372-6.896-7.285c-6.171-13.335-11.856-26.896-17.687-40.387C126.545,60.554,126.572,60.542,119.802,59.427z"
		/>
	<path fill-rule="evenodd" clip-rule="evenodd" fill="#FFFFFF" d="M82.613,104.148c-12.485-0.01-20.833-9.102-21.014-22.646
		c-0.186-14,8.805-22.916,21.088-23.436c11.605-0.491,21.506,10.811,21.337,23.505C103.851,94.661,94.844,104.158,82.613,104.148z"
		/>
	<path fill-rule="evenodd" clip-rule="evenodd" fill="#FFFFFF" d="M246.086,81.335c0.007,17.692-16.076,28.424-30.837,20.576
		c-8.356-4.443-13.323-16.055-10.988-25.688c2.64-10.887,10.594-18.325,20.646-18.144C236.743,58.293,246.438,67.2,246.086,81.335z"
		/>
</g>
</svg>
