<?xml version="1.0" encoding="utf-8"?>
<svg version="1.1"
	 id="Layer_1" xmlns:dc="http://purl.org/dc/elements/1.1/" xmlns:rdf="http://www.w3.org/1999/02/22-rdf-syntax-ns#" xmlns:cc="http://creativecommons.org/ns#"
	 xmlns="http://www.w3.org/2000/svg" xmlns:xlink="http://www.w3.org/1999/xlink" x="0px" y="0px" viewBox="-155 357.9 300 79.1"
	 style="enable-background:new -155 357.9 300 79.1;" xml:space="preserve">
<style type="text/css">
	.st0{clip-path:url(#SVGID_2_);}
	.st1{fill:#878787;}
	.st2{fill:#DEDEDE;}
	.st3{fill:#696969;}
</style>
<g transform="matrix(1.25,0,0,-1.25,-5.9169448,86.523103)">
	<g transform="matrix(1.6613986,0,0,1.6613986,-4.1890052,-4.9972634)">
		<g>
			<defs>
				<rect id="SVGID_1_" x="-159.2" y="-199.8" width="326" height="105.9"/>
			</defs>
			<clipPath id="SVGID_2_">
				<use xlink:href="#SVGID_1_"  style="overflow:visible;"/>
			</clipPath>
			<g class="st0">
				<g transform="translate(32.4187,40.9816)">
					<path class="st1" d="M-74.6-172.3c-1.7,1.9-4.7,2.7-8.6,2.7h-11.2c-0.8,0-1.5-0.6-1.6-1.4l-4.7-29.7c-0.1-0.6,0.4-1.1,1-1.1
						h6.9l1.7,11l-0.1-0.3c0.1,0.8,0.8,1.4,1.6,1.4h3.3c6.5,0,11.5,2.6,13,10.2c0,0.2,0.1,0.4,0.1,0.7
						C-72.7-176-73.1-174.1-74.6-172.3"/>
				</g>
				<g transform="translate(117.3312,26.8632)">
					<path class="st2" d="M-74.6-172.3c-0.4-2.8-2.6-2.8-4.6-2.8h-1.2l0.8,5.2c0,0.3,0.3,0.5,0.6,0.5h0.5c1.4,0,2.7,0,3.4-0.8
						C-74.6-170.7-74.5-171.4-74.6-172.3 M-75.5-165.1h-7.8c-0.5,0-1-0.4-1.1-0.9l-3.1-19.9c-0.1-0.4,0.2-0.7,0.6-0.7h4
						c0.4,0,0.7,0.3,0.7,0.6l0.9,5.6c0.1,0.5,0.5,0.9,1.1,0.9h2.5c5.1,0,8.1,2.5,8.8,7.4c0.3,2.1,0,3.8-1,5
						C-71-165.8-72.9-165.1-75.5-165.1"/>
				</g>
				<g transform="translate(62.0115,26.8632)">
					<path class="st1" d="M-74.6-172.3c-0.4-2.8-2.5-2.8-4.6-2.8h-1.2l0.8,5.2c0,0.3,0.3,0.5,0.6,0.5h0.5c1.4,0,2.7,0,3.4-0.8
						C-74.6-170.7-74.5-171.4-74.6-172.3 M-75.5-165.1h-7.8c-0.5,0-1-0.4-1.1-0.9l-3.1-19.9c-0.1-0.4,0.2-0.7,0.6-0.7h3.7
						c0.5,0,1,0.4,1.1,0.9l0.8,5.4c0.1,0.5,0.5,0.9,1.1,0.9h2.5c5.1,0,8.1,2.5,8.8,7.4c0.3,2.1,0,3.8-1,5
						C-71-165.8-72.9-165.1-75.5-165.1"/>
				</g>
				<g transform="translate(79.1228,19.7234)">
					<path class="st1" d="M-74.6-172.3c-0.4-2.1-2-3.5-4.2-3.5c-1.1,0-1.9,0.3-2.5,1c-0.5,0.7-0.8,1.6-0.6,2.6
						c0.3,2.1,2,3.6,4.2,3.6c1.1,0,1.9-0.4,2.5-1C-74.7-170.4-74.5-171.3-74.6-172.3 M-69.5-165.1h-3.7c-0.3,0-0.6-0.2-0.6-0.5
						l-0.2-1l-0.3,0.4c-0.8,1.2-2.6,1.6-4.4,1.6c-4.1,0-7.6-3.1-8.3-7.5c-0.4-2.2,0.1-4.3,1.4-5.7c1.1-1.3,2.8-1.9,4.7-1.9
						c3.3,0,5.1,2.1,5.1,2.1l-0.2-1c-0.1-0.4,0.2-0.7,0.6-0.7h3.3c0.5,0,1,0.4,1.1,0.9l2,12.7C-68.8-165.5-69.1-165.1-69.5-165.1"/>
				</g>
				<g transform="translate(134.4426,19.7234)">
					<path class="st2" d="M-74.6-172.3c-0.4-2.1-2-3.5-4.2-3.5c-1.1,0-1.9,0.3-2.5,1c-0.5,0.7-0.8,1.6-0.6,2.6
						c0.3,2.1,2,3.6,4.2,3.6c1.1,0,1.9-0.4,2.5-1C-74.7-170.4-74.5-171.3-74.6-172.3 M-69.5-165.1h-3.7c-0.3,0-0.6-0.2-0.6-0.5
						l-0.2-1l-0.3,0.4c-0.8,1.2-2.6,1.6-4.4,1.6c-4.1,0-7.6-3.1-8.3-7.5c-0.4-2.2,0.1-4.3,1.4-5.7c1.1-1.3,2.8-1.9,4.7-1.9
						c3.3,0,5.1,2.1,5.1,2.1l-0.2-1c-0.1-0.4,0.2-0.7,0.6-0.7h3.3c0.5,0,1,0.4,1.1,0.9l2,12.7C-68.8-165.5-69.1-165.1-69.5-165.1"/>
				</g>
				<g transform="translate(104.0795,26.9523)">
					<path class="st1" d="M-74.6-172.3h-3.7c-0.4,0-0.7-0.2-0.9-0.5l-5.1-7.6l-2.2,7.3c-0.1,0.5-0.6,0.8-1,0.8h-3.7
						c-0.4,0-0.8-0.4-0.6-0.9l4.1-12.1l-3.9-5.5c-0.3-0.4,0-1,0.5-1h3.7c0.4,0,0.7,0.2,0.9,0.5l12.4,17.9
						C-73.8-172.9-74.1-172.3-74.6-172.3"/>
				</g>
				<g transform="translate(143.996,33.5807)">
					<path class="st2" d="M-74.6-172.3l-3.2-20.3c-0.1-0.4,0.2-0.7,0.6-0.7h3.2c0.5,0,1,0.4,1.1,0.9l3.1,19.9
						c0.1,0.4-0.2,0.7-0.6,0.7H-74C-74.3-171.8-74.6-172-74.6-172.3"/>
				</g>
				<g transform="translate(32.4187,40.9816)">
					<path class="st1" d="M-74.6-172.3c-1.7,1.9-4.7,2.7-8.6,2.7h-11.2c-0.8,0-1.5-0.6-1.6-1.4l-4.7-29.7c-0.1-0.6,0.4-1.1,1-1.1
						h6.9l1.7,11l-0.1-0.3c0.1,0.8,0.8,1.4,1.6,1.4h3.3c6.5,0,11.5,2.6,13,10.2c0,0.2,0.1,0.4,0.1,0.7
						C-72.7-176-73.1-174.1-74.6-172.3"/>
				</g>
				<g transform="translate(17.8489,34.4853)">
					<path class="st1" d="M-74.6-172.3c0.1,0.5,0.4,0.9,0.8,1.1c0.2,0.1,0.4,0.1,0.6,0.1h8.8c1,0,2-0.1,2.9-0.2
						c0.3,0,0.5-0.1,0.7-0.1c0.2-0.1,0.5-0.1,0.7-0.2c0.1,0,0.2-0.1,0.3-0.1c0.4-0.1,0.8-0.3,1.2-0.5c0.4,2.8,0,4.7-1.5,6.5
						c-1.7,1.9-4.7,2.7-8.6,2.7h-11.2c-0.8,0-1.5-0.6-1.6-1.4l-4.7-29.7c-0.1-0.6,0.4-1.1,1-1.1h6.9l1.7,11
						C-76.5-184.2-74.6-172.3-74.6-172.3z"/>
				</g>
				<g transform="translate(33.9429,34.5226)">
					<path class="st2" d="M-74.6-172.3L-74.6-172.3c0-0.2-0.1-0.4-0.1-0.7c-1.5-7.6-6.6-10.2-13-10.2h-3.3c-0.8,0-1.5-0.6-1.6-1.4
						l-1.7-10.7l-0.5-3c-0.1-0.5,0.3-1,0.8-1h5.8c0.7,0,1.3,0.5,1.4,1.2l0.1,0.3l1.1,7l0.1,0.4c0.1,0.7,0.7,1.2,1.4,1.2h0.9
						c5.7,0,10.1,2.3,11.4,9c0.5,2.8,0.3,5.1-1.2,6.7C-73.5-173.1-74-172.7-74.6-172.3"/>
				</g>
				<g transform="translate(32.3922,35.1407)">
					<path class="st3" d="M-74.6-172.3c-0.2,0.1-0.5,0.1-0.7,0.2c-0.2,0.1-0.5,0.1-0.7,0.1c-0.9,0.1-1.9,0.2-2.9,0.2h-8.8
						c-0.2,0-0.4,0-0.6-0.1c-0.4-0.2-0.7-0.6-0.8-1.1l-1.9-11.9l-0.1-0.3c0.1,0.8,0.8,1.4,1.6,1.4h3.3c6.5,0,11.5,2.6,13,10.2
						c0,0.2,0.1,0.4,0.1,0.7c-0.4,0.2-0.8,0.4-1.2,0.5C-74.4-172.4-74.5-172.4-74.6-172.3"/>
				</g>
			</g>
		</g>
	</g>
</g>
</svg>
