<svg enable-background="new -155 357.9 300 79.1" viewBox="-155 357.9 300 79.1" xmlns="http://www.w3.org/2000/svg" xmlns:xlink="http://www.w3.org/1999/xlink"><clipPath id="a"><path d="m-159.2-199.8h326v105.9h-326z"/></clipPath><g clip-path="url(#a)" transform="matrix(2.07674825 0 0 -2.07674825 -11.15320125 92.76968175)"><path d="m-74.6-172.3c-1.7 1.9-4.7 2.7-8.6 2.7h-11.2c-.8 0-1.5-.6-1.6-1.4l-4.7-29.7c-.1-.6.4-1.1 1-1.1h6.9l1.7 11-.1-.3c.1.8.8 1.4 1.6 1.4h3.3c6.5 0 11.5 2.6 13 10.2 0 .2.1.4.1.7.5 2.8.1 4.7-1.4 6.5" fill="#8e9196" transform="translate(32.4187 40.9816)"/><path d="m-74.6-172.3c-.4-2.8-2.6-2.8-4.6-2.8h-1.2l.8 5.2c0 .3.3.5.6.5h.5c1.4 0 2.7 0 3.4-.8.5-.5.6-1.2.5-2.1m-.9 7.2h-7.8c-.5 0-1-.4-1.1-.9l-3.1-19.9c-.1-.4.2-.7.6-.7h4c.4 0 .7.3.7.6l.9 5.6c.1.5.5.9 1.1.9h2.5c5.1 0 8.1 2.5 8.8 7.4.3 2.1 0 3.8-1 5-1.1 1.3-3 2-5.6 2" fill="#dcdcde" transform="translate(117.3312 26.8632)"/><path d="m-74.6-172.3c-.4-2.8-2.5-2.8-4.6-2.8h-1.2l.8 5.2c0 .3.3.5.6.5h.5c1.4 0 2.7 0 3.4-.8.5-.5.6-1.2.5-2.1m-.9 7.2h-7.8c-.5 0-1-.4-1.1-.9l-3.1-19.9c-.1-.4.2-.7.6-.7h3.7c.5 0 1 .4 1.1.9l.8 5.4c.1.5.5.9 1.1.9h2.5c5.1 0 8.1 2.5 8.8 7.4.3 2.1 0 3.8-1 5-1.1 1.2-3 1.9-5.6 1.9" fill="#8e9196" transform="translate(62.0115 26.8632)"/><path d="m-74.6-172.3c-.4-2.1-2-3.5-4.2-3.5-1.1 0-1.9.3-2.5 1-.5.7-.8 1.6-.6 2.6.3 2.1 2 3.6 4.2 3.6 1.1 0 1.9-.4 2.5-1 .5-.8.7-1.7.6-2.7m5.1 7.2h-3.7c-.3 0-.6-.2-.6-.5l-.2-1-.3.4c-.8 1.2-2.6 1.6-4.4 1.6-4.1 0-7.6-3.1-8.3-7.5-.4-2.2.1-4.3 1.4-5.7 1.1-1.3 2.8-1.9 4.7-1.9 3.3 0 5.1 2.1 5.1 2.1l-.2-1c-.1-.4.2-.7.6-.7h3.3c.5 0 1 .4 1.1.9l2 12.7c.2.2-.1.6-.5.6" fill="#8e9196" transform="translate(79.1228 19.7234)"/><path d="m-74.6-172.3c-.4-2.1-2-3.5-4.2-3.5-1.1 0-1.9.3-2.5 1-.5.7-.8 1.6-.6 2.6.3 2.1 2 3.6 4.2 3.6 1.1 0 1.9-.4 2.5-1 .5-.8.7-1.7.6-2.7m5.1 7.2h-3.7c-.3 0-.6-.2-.6-.5l-.2-1-.3.4c-.8 1.2-2.6 1.6-4.4 1.6-4.1 0-7.6-3.1-8.3-7.5-.4-2.2.1-4.3 1.4-5.7 1.1-1.3 2.8-1.9 4.7-1.9 3.3 0 5.1 2.1 5.1 2.1l-.2-1c-.1-.4.2-.7.6-.7h3.3c.5 0 1 .4 1.1.9l2 12.7c.2.2-.1.6-.5.6" fill="#dcdcde" transform="translate(134.4426 19.7234)"/><path d="m-74.6-172.3h-3.7c-.4 0-.7-.2-.9-.5l-5.1-7.6-2.2 7.3c-.1.5-.6.8-1 .8h-3.7c-.4 0-.8-.4-.6-.9l4.1-12.1-3.9-5.5c-.3-.4 0-1 .5-1h3.7c.4 0 .7.2.9.5l12.4 17.9c.3.5 0 1.1-.5 1.1" fill="#8e9196" transform="translate(104.0795 26.9523)"/><path d="m-74.6-172.3-3.2-20.3c-.1-.4.2-.7.6-.7h3.2c.5 0 1 .4 1.1.9l3.1 19.9c.1.4-.2.7-.6.7h-3.6c-.3 0-.6-.2-.6-.5" fill="#dcdcde" transform="translate(143.996 33.5807)"/><path d="m-74.6-172.3c-1.7 1.9-4.7 2.7-8.6 2.7h-11.2c-.8 0-1.5-.6-1.6-1.4l-4.7-29.7c-.1-.6.4-1.1 1-1.1h6.9l1.7 11-.1-.3c.1.8.8 1.4 1.6 1.4h3.3c6.5 0 11.5 2.6 13 10.2 0 .2.1.4.1.7.5 2.8.1 4.7-1.4 6.5" fill="#8e9196" transform="translate(32.4187 40.9816)"/><path d="m-74.6-172.3c.1.5.4.9.8 1.1.2.1.4.1.6.1h8.8c1 0 2-.1 2.9-.2.3 0 .5-.1.7-.1.2-.1.5-.1.7-.2.1 0 .2-.1.3-.1.4-.1.8-.3 1.2-.5.4 2.8 0 4.7-1.5 6.5-1.7 1.9-4.7 2.7-8.6 2.7h-11.2c-.8 0-1.5-.6-1.6-1.4l-4.7-29.7c-.1-.6.4-1.1 1-1.1h6.9l1.7 11c.1 0 2 11.9 2 11.9z" fill="#8e9196" transform="translate(17.8489 34.4853)"/><path d="m-74.6-172.3c0-.2-.1-.4-.1-.7-1.5-7.6-6.6-10.2-13-10.2h-3.3c-.8 0-1.5-.6-1.6-1.4l-1.7-10.7-.5-3c-.1-.5.3-1 .8-1h5.8c.7 0 1.3.5 1.4 1.2l.1.3 1.1 7 .1.4c.1.7.7 1.2 1.4 1.2h.9c5.7 0 10.1 2.3 11.4 9 .5 2.8.3 5.1-1.2 6.7-.5.4-1 .8-1.6 1.2" fill="#dcdcde" transform="translate(33.9429 34.5226)"/><path d="m-74.6-172.3c-.2.1-.5.1-.7.2s-.5.1-.7.1c-.9.1-1.9.2-2.9.2h-8.8c-.2 0-.4 0-.6-.1-.4-.2-.7-.6-.8-1.1l-1.9-11.9-.1-.3c.1.8.8 1.4 1.6 1.4h3.3c6.5 0 11.5 2.6 13 10.2 0 .2.1.4.1.7-.4.2-.8.4-1.2.5-.1 0-.2 0-.3.1" fill="#646970" transform="translate(32.3922 35.1407)"/></g></svg>
