<svg enable-background="new 0 0 512 512" viewBox="0 0 512 512" xmlns="http://www.w3.org/2000/svg"><path d="m393.8 200.9c2-1.6 3-2.4 4-3.2 13.9-11.8 31.7-10.5 43.6 3.5 1.2 1.4 1.8 1.5 3 .3.8-.9 1.7-1.6 2.5-2.5 9.3-9.1 21.6-11.8 33.1-6.7 12.1 5.4 18.6 14.9 18.7 28.2.2 28.7.1 57.3.1 86 0 10.2-6.3 16.6-16.4 16.6-4 0-8-.3-12 .1-4.1.4-5.3-.9-5.3-5.2.2-28 .1-56 .1-84 0-1.2 0-2.3 0-3.5-.1-6.5-2.7-9.2-8.9-9.5-5.6-.3-9.5 3.1-10.1 8.8-.1 1.3 0 2.7 0 4v72.5c0 10.6-6.1 16.8-16.7 16.7-5.4-.1-12.7 2.4-15.8-1.1-2.7-3-.9-10.1-.9-15.4 0-24.8 0-49.7 0-74.5 0-8.8-5.7-13.3-13.1-10.3-4.6 1.9-6.1 5.6-6.1 10.4.1 23.2 0 46.3 0 69.5v5.5c-.3 9.7-6.5 15.8-16.1 15.9-4 .1-8-.3-12 .1-4.3.4-5.6-.8-5.5-5.4.2-39.3.1-78.6.1-118 0-1.7.1-3.3 0-5-.2-2.2.7-2.9 2.9-2.9 9.2.1 18.3.1 27.5 0 2.3 0 3.4.6 3.2 3.1-.2 1.8 0 3.4.1 6z" fill="#02b9ef"/><g fill="#06306f"><path d="m181.8 255.1v41c-.1 17.8-9.4 27-27.2 27.1-7.8 0-15.7.1-23.5 0-15.8-.2-27.4-10.7-28.2-26.5-.6-11.3-.7-22.7-.1-34 .8-16.2 13.2-27.6 29.6-27.8 4.3-.1 8.7 0 13 0 4.2-.1 5.8-2.5 5.7-6.5 0-4-1.8-5.8-5.8-5.6-4.5.1-9 .1-13.5 0-11-.2-17.1-6.2-17-17 0-4.4-2-10.3.9-12.9 2.5-2.2 8.2-.8 12.5-.8 11.2-.1 22.3 0 33.5 0 11.9 0 20 8.1 20.1 20.1.1 14.2 0 28.6 0 42.9zm-30.6 22.7c0-1.7 0-3.3 0-5 0-10.2 0-10.2-10.2-9.8-5.1.2-7.9 2.8-8 8.1-.1 4.2-.1 8.3 0 12.5.1 7.2 3.3 9.1 13.7 9.4 7.7.2 3.8-5.2 4.5-8.2.4-2.2-.1-4.7 0-7z"/><path d="m270.8 244.2c0 15.3.2 30.7-.1 46-.2 11.8-3 22.5-14.4 28.8-4.6 2.5-9.6 3.9-14.8 4-11.5.2-23 0-34.5.2-2.8 0-3.4-1-3.3-3.5.2-4.2-.1-8.3.1-12.5.2-8 6.3-14.1 14.3-14.4 5.2-.2 10.3-.1 15.5 0 4.2 0 6.5-1.7 6.5-6.2 0-4.6-2.2-6.2-6.4-6.3-7-.2-14 .8-20.9-1.2-11.9-3.5-20.6-13.4-20.9-25.7-.6-19.5-.2-39-.3-58.5 0-2.2.7-2.9 2.9-2.8 8.2.1 16.3.2 24.5 0 3.6-.1 3.1 1.9 3.1 4.1v44c0 6.4 3 9.8 8.6 10 6.6.2 9.5-2.5 9.5-9.2 0-14.8.1-29.7-.1-44.5 0-3.5.9-4.5 4.4-4.4 7.3.3 14.7.4 22 0 4-.2 4.6 1.3 4.5 4.8-.3 15.7-.2 31.5-.2 47.3z"/><path d="m16 266.9c0-16.3 0-32.7 0-49 0-16 9.8-26 25.9-25.8 10.5.1 21-1.2 31.4.8 13.3 2.6 21.7 12.9 21.8 26.6.1 14.5 0 29 0 43.5 0 18.2-10.7 29.3-28.9 29.8-5.5.2-11 .1-16.5 0-2.5-.1-3.6.7-3.5 3.4.2 4 .1 8 0 12-.2 8.6-6.3 14.8-14.8 14.9-5 .1-11.3 2.1-14.5-.8-3-2.7-.8-9.1-.9-13.9-.1-13.8 0-27.7 0-41.5zm30.2-24.5v9.5c0 11.3 0 11.3 11.3 10.3 4.9-.4 7.2-2.8 7.3-7.7.1-5.6-.2-11.3.1-16.9.6-16.2-2.4-14.6-15.6-14.7-2.4 0-3.2.7-3.2 3.1.2 5.4.1 10.9.1 16.4z"/></g><path d="m299.1 267.1c0-13.3-.1-26.7.1-40 0-3.1-.7-4.4-4.1-4.3-4.5.2-10.5 1.5-13-.7-3.1-2.9-.7-9.1-1.1-13.9 0-.3 0-.7 0-1 0-4.7-1.5-10.2.5-13.7s8.1-1.3 12.4-2.4c8.5-2.2 14.9-7.1 20.1-13.9 3.6-4.6 8.1-7.9 13.9-9 3.1-.6 5-.2 4.8 3.8-.3 5.6 0 11.3-.1 17-.1 2.4.8 3.2 3.2 3.1 4-.1 8 .1 12-.1 2.4-.1 3.2.8 3.1 3.2-.1 8.2-.1 16.3 0 24.5 0 2.3-.6 3.5-3.1 3.2-.5-.1-1 0-1.5 0-4.4.4-10.5-2-12.8 1-2.2 2.8-.8 8.6-.8 13.1 0 27.2-.1 54.3.1 81.5 0 3.8-1 5-4.8 4.7-3.6-.3-7.3 0-11-.1-10.8-.4-17.9-7.7-17.9-18.5 0-12.5 0-25 0-37.5z" fill="#02b9ef"/></svg>