<svg height="192" viewBox="0 0 200 192" width="200" xmlns="http://www.w3.org/2000/svg" xmlns:xlink="http://www.w3.org/1999/xlink"><mask id="a" fill="#fff"><path d="m.19497948.16351033h113.24989552v58.81912747h-113.24989552z" fill="#fff" fill-rule="evenodd"/></mask><mask id="b" fill="#fff"><path d="m0 191.059998h199.998477v-189.94268807h-199.998477z" fill="#fff" fill-rule="evenodd"/></mask><g fill="none" fill-rule="evenodd"><path d="m156.42339 191.059998h-156.42339v-109.8035952c0-16.4904217 13.3607182-29.8601461 29.8421628-29.8601461h94.3700082c17.789523 0 32.211219 14.4295512 32.211219 32.2287641z" fill="#dcdcde"/><path d="m69.442091 38.1757731-67.04353176 20.8068647s-5.52226263-7.5556328.91722807-22.5858775c6.43949069-15.0302446 30.16890229-29.73123404 54.29165689-33.81503375 9.0417389-1.53077845 21.5136359-2.16687895 32.0840882-2.41338944 14.7168726-.34132223 26.0138936 13.85457929 23.3669866 29.34853949-1.169724 6.8367875-3.720442 14.3148471-8.598584 21.8015259" fill="#c3c4c7" mask="url(#a)" transform="translate(86.032864)"/><path d="m118.434852 128.490642c0 21.596488-17.508018 39.105847-39.1067109 39.105847-21.5969654 0-39.1049837-17.509359-39.1049837-39.105847 0-21.596489 17.5080183-39.1058478 39.1049837-39.1058478 21.5986929 0 39.1067109 17.5093588 39.1067109 39.1058478" fill="#3895ba"/><path d="m40.2231574 128.490642h78.2116946v-22.346199h-78.2116946z" fill="#3895ba" mask="url(#b)"/><path d="m118.434852 106.144443c0 21.596489-17.508018 39.105848-39.1067109 39.105848-21.5969654 0-39.1049837-17.509359-39.1049837-39.105848 0-21.5964883 17.5080183-39.1058474 39.1049837-39.1058474 21.5986929 0 39.1067109 17.5093591 39.1067109 39.1058474" fill="#c3c4c7" mask="url(#b)"/><path d="m63.3990457 109.320139c3.9819982 3.539138 7.8523189 7.184279 11.7243846 10.83113l-2.4569033.157295 5.7461524-7.469804c1.9020061-2.499623 3.859851-4.956503 5.8229307-7.411673 1.9456301-2.465428 3.9174346-4.913759 5.9346081-7.327896 1.9909991-2.4329436 4.030857-4.8299828 6.1056142-7.1996665.4187903-.4770142 1.1551633-.5334353 1.6437521-.1213907.4536895.3812694.5304677 1.0360954.2024153 1.5096902-1.7955636 2.5782705-3.6295163 5.1291854-5.5105829 7.6459056-1.8548922 2.5338174-3.7568983 5.0351504-5.6815889 7.5176764-1.910731 2.494493-3.8232069 4.985568-5.7932664 7.433899l-5.8717896 7.375768-.0279193.035905c-.5461724.687311-1.5582491.808701-2.2579779.273556-.0593287-.044453-.1204023-.099164-.1710061-.150456-3.7202542-3.793887-7.4422533-7.587775-11.05432-11.487665-.4310051-.466756-.3961059-1.188262.0802681-1.612274.4467097-.396657 1.127244-.388109 1.5652289 0" fill="#fff" mask="url(#b)"/><path d="m143.176153 27.9327482c-49.0139549 8.7154682-74.8114965 55.1586912-65.2168444 57.9552649 9.4160512 2.7428601 29.1033774-34.3437965 57.5198284-37.0364084 21.924991-2.0792369 18.256801 7.9132294 5.672299 13.5063768-18.634611 8.2788285-21.875189 15.6861102-19.039898 20.9153911 2.835291 5.229281 37.36024-5.1235864 58.33212-20.9153911 12.613696-9.5003802 16.202889-23.5317643 16.202889-23.5317643" fill="#c3c4c7" mask="url(#b)"/><g fill="#004e6e"><path d="m143.053694 29.086533s-.309087.0601765-.906542.1770909c-.59918.115195-1.493635.2836892-2.614293.5433079-2.258584.5037634-5.589477 1.3324799-9.700859 2.7320137-4.104475 1.4167271-9.003254 3.4180259-14.314724 6.3116566-5.314925 2.879876-11.020093 6.6761543-16.6924541 11.4748014-5.6447327 4.808963-11.2980991 10.6529621-16.0259297 17.6609469-2.3034791 3.4988344-4.5068071 7.3398153-5.6067443 11.3991509-.2590119 1.0023688-.414419 2.0236502-.3729771 2.9142626.0259012.4367095.1001513.8441905.2279305 1.1175638.1346862.271654.2590119.397165.4506807.4951667l.1709478.0653345c.0966978.0292286-.088064-.0154739-.0241744-.0017193l.1070582.0223513.2123898.0464219c.2192967.0240706.2296572.0223512.4714017.0171933.3781573-.0189127.8063903-.1151951 1.2484373-.2682154.8927277-.3318304 1.8217171-.8665417 2.7248052-1.4958161 3.6209864-2.5841514 6.9777806-6.0623539 10.4399064-9.423642 3.4552187-3.4008327 6.9950481-6.8584032 10.783529-10.1388828 3.788481-3.2753216 7.827339-6.3890264 12.244356-9.0299156 4.406656-2.6374506 9.231184-4.7831732 14.371707-5.9265269 2.583212-.5983265 5.187145-.8407519 7.765177-.9800175 2.588392-.1151951 5.206139-.1341077 7.903316.3421464 1.346862.2561801 2.729985.6052038 4.116562 1.4184464.685519.412639 1.386578.9765789 1.921869 1.7932601.533564.8166813.79603 1.8861039.707966 2.8179802-.184762 1.8947005-1.124112 3.1738812-2.018566 4.2622164-.92899 1.0814579-1.963311 1.960035-3.03562 2.749207-2.127351 1.5663087-4.503353 2.764681-6.772298 3.7378211-2.234409.9903335-4.363487 2.0184922-6.454576 3.1584073-4.104476 2.2695142-8.141608 4.9121228-10.574593 8.3542194-1.191455 1.7107323-1.749194 3.6002748-1.293333 5.3178844.112239.4298322.264193.8562258.486943 1.2637068l.037988.0773698c.025901.0498605-.107058-.1753716-.020721-.0361059l.113965.1667749c-.00518-.0601765-.096697-.1117564-.027627-.0670538.046622.0515798.195122.1169143.345349.1839682.694152.261338 1.773368.3352691 2.797328.3232338 4.240888-.1341077 8.580201-1.2018109 12.662229-2.3262521 8.20377-2.3451647 15.74965-5.4107282 22.473599-8.6465052 6.723949-3.2564091 12.631147-6.7449275 17.535106-10.2523586 1.117204-.8338745 2.419171-1.8121727 3.399963-2.7045044.504209-.4573415.999786-.9078057 1.486728-1.3496732.466221-.4779735.925536-.9473503 1.37449-1.4064111 1.742286-1.8895425 3.244555-3.7275051 4.42565-5.5121686 2.422624-3.533221 3.838556-6.6194164 4.72265-8.7255944.426506-1.060826.730414-1.8826652.906542-2.4380084.167494-.53815.253831-.8166813.253831-.8166813l.027628-.0876858c.188216-.6034844.832292-.9421922 1.43838-.7547854.600907.1856875.93935.8166813.763221 1.4150077 0 0-.093244.3215146-.276279.9439116-.183035.6069232-.490396 1.4803423-.923809 2.608222-.897908 2.2351277-2.332834 5.4863787-4.824528 9.2448318-1.217356 1.8981392-2.769701 3.8650515-4.587964 5.8938596-.469675.4951668-.947984 1.0006495-1.436653 1.5147288-.526658.4934474-1.063676.9954915-1.611054 1.5061322-1.127565 1.040194-2.192968 1.8603139-3.510475 2.8781566-4.995476 3.7206279-11.023546 7.3260607-17.870094 10.6753135-6.850002 3.3406561-14.496033 6.4990634-22.920827 8.9559845-4.235708 1.176021-8.594015 2.3245327-13.454805 2.5153782-1.23635-.0017193-2.486514.0034387-3.964608-.507202-.378158-.1530203-.763222-.3197952-1.165554-.6309938-.172675-.115195-.450681-.3885683-.656163-.653345l-.129506-.1874068c.046622.0773698-.131233-.2028808-.134687-.2183548l-.058709-.115195c-.328082-.6017652-.580187-1.2654261-.759768-1.9497191-.369524-1.3720245-.341896-2.8712793.008633-4.2209525.334989-1.3651472.970432-2.5789934 1.700845-3.6707673 3.054614-4.2966031 7.352485-6.9821949 11.650356-9.4253613 2.161886-1.196653 4.429103-2.3039008 6.677326-3.3131469 2.232683-.9714208 4.278877-2.0339661 6.138582-3.4111486.916903-.6808543 1.771642-1.4304817 2.455433-2.236847.680338-.789172 1.179368-1.7072936 1.203542-2.3228134.029355-.5553432-.193395-.9439116-.999786-1.447675-.773582-.4590608-1.852798-.7702593-2.964823-.9662628-2.248223-.386849-4.691568-.4195163-7.1211-.3111986-2.439892.1237917-4.872877.3387078-7.198804.8716998-9.471202 2.0700721-17.849374 7.8005954-25.220852 14.1088133-3.707324 3.1807586-7.209165 6.5678366-10.6781977 9.951476-3.5070211 3.3595688-6.8275537 6.8240166-10.9026743 9.7176472-1.0325941.7100829-2.1463453 1.3703052-3.4517652 1.849998-.6613438.2269514-1.3813968.4040423-2.1670663.4384288-.3384422.02579-.9117219-.0223512-1.2639781-.0911244l-.2123897-.0464219-.1070583-.0240706s-.2607386-.0670538-.2313839-.0670538c-.2141165-.0790891-.428233-.151301-.6371693-.2544607-.8547393-.4109196-1.5333505-1.2052496-1.8700659-1.9789476-.347076-.7805754-.4472272-1.5250448-.4886692-2.2248117-.0552558-1.3960951.1726746-2.6426086.4783087-3.8272262 1.3088735-4.6954874 3.6486143-8.624154 6.0746924-12.303518 4.9661216-7.291674 10.8111568-13.2663421 16.6475583-18.1990969 5.8588495-4.9258774 11.8074895-8.7152784 17.2968145-11.619225 5.49796-2.9073852 10.559052-4.9018068 14.793033-6.3030599 4.246069-1.3874985 7.656392-2.1904251 10.006493-2.6838725 1.182821-.2578993 2.068642-.4126389 2.667823-.5209567.600908-.1083177.909995-.1650555.909995-.1650555.625082-.1134758 1.224263.2991632 1.339955.9215603.112239.6172391-.295274 1.2104075-.911722 1.3307606" mask="url(#b)"/><path d="m139.904445 19.0158308s-.950252.235172-2.611458.6454355c-.835806.1956906-1.853685.429146-2.95133.7827624-1.113251.3518997-2.370427.664318-3.731646 1.1535444-1.356016.4892265-2.855957.9218056-4.374973 1.572391-1.536356.6008044-3.145541 1.2565395-4.768599 2.0290023-1.659472.6934999-3.299871 1.563808-4.988822 2.4049342-1.650802.9046398-3.343221 1.807563-4.957609 2.830647-1.631728.9990519-3.230509 2.0410184-4.775535 3.1121669-1.553697 1.0574157-3.018957 2.1886446-4.418324 3.2941247-1.383761 1.1312289-2.6946923 2.2504416-3.8929113 3.3593549-1.2467719 1.0642821-2.2733213 2.2092437-3.2912005 3.206579-.9415816 1.0591323-1.8172698 2.0238525-2.5542351 2.9078933-.6970826.9080729-1.3490801 1.6805357-1.8155358 2.3551533-.9277093 1.3612511-1.4565903 2.1388637-1.4565903 2.1388637l-.0554892.0841126c-.3572114.5218415-1.0733683.6608848-1.6022494.3089851-.4976683-.3330173-.6485295-.9853192-.3676156-1.4968613 0 0 .4872641-.878891 1.3404099-2.4135171.4456473-.7570136 1.0664322-1.6170221 1.7409722-2.6383896.6988166-1.0007685 1.5762388-2.0581843 2.5264906-3.2203117 1.0178792-1.093464 2.0548328-2.3517201 3.3068068-3.5224304 1.1895488-1.2393736 2.5663735-2.4083673 3.9917507-3.6168425 1.446187-1.1792932 2.958266-2.3826186 4.562249-3.5086977.802859-.5596064 1.612654-1.1260791 2.425917-1.6925519l2.543831-1.5569417c1.694153-1.043683 3.464604-1.9620555 5.191704-2.8804279 1.763515-.8531423 3.478476-1.7337499 5.210778-2.4358328 1.706292-.7535804 3.405647-1.3612511 5.020035-1.9277238 1.597047-.6145371 3.171552-1.011068 4.591727-1.4625296 1.41324-.4634777 2.798735-.6917834 3.976145-.9956187 1.194751-.3021188 2.216098-.4703441 3.05884-.6145371 1.688951-.2815198 2.654809-.4428787 2.654809-.4428787.629455-.1047116 1.225964.3141349 1.33174.9389715.102308.5922215-.280914 1.1569776-.860082 1.3011707" mask="url(#b)"/><path d="m88.4124471 36.2782175s.4173717-.7444092 1.1460616-2.047555c.4515824-.642977.9886919-1.457873 1.642118-2.3346597.687637-.8131768 1.3872477-1.8223412 2.307518-2.7507037.8792174-.978219 1.8747514-1.983945 2.9609441-3.0103013 1.0725084-1.0435482 2.2579123-2.0716237 3.492922-3.1306446 1.2623782-1.0160412 2.5675202-2.0699045 3.9410832-3.0670346 1.349616-1.0366714 2.784759-1.9873834 4.192533-2.9827943 1.440274-.9403968 2.866864-1.911739 4.337928-2.7507036 1.448827-.8750676 2.889102-1.7105939 4.303718-2.4807909 2.801864-1.5919697 5.526754-2.86588938 7.85993-3.95241732 2.340018-1.07105524 4.329376-1.87219768 5.733729-2.40342733 1.404353-.52435288 2.206596-.82521109 2.206596-.82521109.591846-.22177549 1.248694.08080192 1.467643.67392239.205264.5552983-.042764 1.16904906-.559347 1.42692753l-.034211.01719189s-.756058.37478338-2.076595 1.02979469c-.663689.32148849-1.471064.70314862-2.37936 1.18624095-.911718.46761962-1.941463.99541089-3.063577 1.57133949-1.11014.6017164-2.329755 1.2154672-3.58358 1.9323693-1.248694.7289365-2.605152 1.4217699-3.956479 2.2297891-1.370142.7770738-2.762521 1.6160384-4.161743 2.4945444-1.414616.8561565-2.796732 1.8068685-4.223322 2.6870937-1.380405.9472735-2.793311 1.8550057-4.112137 2.8401015-1.347905.9489928-2.620547 1.947842-3.853846 2.9123075-1.216194.9799382-2.4101503 1.9134582-3.4723955 2.8676086-1.0793505.9369584-2.0680424 1.8550057-2.9335754 2.7421077-.9065861.8544373-1.6301443 1.7157514-2.326334 2.4429687-.6157942.7547243-1.1529037 1.4114548-1.5959334 1.9529996-.839875 1.2292206-1.3188261 1.9323693-1.3188261 1.9323693l-.0068422.0085959c-.3557922.5226337-1.0656662.6550113-1.5856702.2974199-.4909249-.3386804-.6328997-.9971301-.3489501-1.5094487" mask="url(#b)"/></g></g></svg>
