<svg height="83.22" preserveAspectRatio="xMidYMid meet" viewBox="8.46081081 8.14135135 388.03 87.22" width="384.03" xmlns="http://www.w3.org/2000/svg" xmlns:xlink="http://www.w3.org/1999/xlink"><defs><path id="a" d="m223.18 45.2 7.92 11.7 1.52-.06.13.55c8.84.11 13.76.17 14.74.18 3.62 5.37 5.63 8.36 6.03 8.95.44.81 1.23 1.58.73 2.75-2.85 0-25.66.05-28.51.06.06-1.63-.32-2.72-.91-3.54-.87-1.28-5.17-7.72-12.92-19.31-.11-.07-.68-.44-1.71-1.1z"/><path id="b" d="m223.18 45.2 7.92 11.7 1.52-.06.13.55c8.84.11 13.76.17 14.74.18 3.62 5.37 5.63 8.36 6.03 8.95.44.81 1.23 1.58.73 2.75-2.85 0-25.66.05-28.51.06.06-1.63-.32-2.72-.91-3.54-.87-1.28-5.17-7.72-12.92-19.31-.11-.07-.68-.44-1.71-1.1z"/><path id="c" d="m240.18 91.5c-.32.73-.81.76-1.28.86-1.95-.02-11.7-.08-29.24-.19.02-.05.12-.29.3-.73 1.1-.07 1.71-.11 1.83-.12 8.08-12.1 12.56-18.82 13.46-20.17.49-1.14.41-1.34.43-1.7h28.45c-8.37 13.23-13.02 20.58-13.95 22.05z"/><path id="d" d="m240.18 91.5c-.32.73-.81.76-1.28.86-1.95-.02-11.7-.08-29.24-.19.02-.05.12-.29.3-.73 1.1-.07 1.71-.11 1.83-.12 8.08-12.1 12.56-18.82 13.46-20.17.49-1.14.41-1.34.43-1.7h28.45c-8.37 13.23-13.02 20.58-13.95 22.05z"/><path id="e" d="m284.19 91.47c-.32.72-.81.75-1.28.85-1.95-.01-11.7-.07-29.25-.18.02-.05.12-.29.31-.74 1.1-.07 1.71-.11 1.83-.12 8.08-12.1 12.56-18.82 13.46-20.16.49-1.14.41-1.34.43-1.71h28.45c-8.37 13.23-13.02 20.59-13.95 22.06z"/><path id="f" d="m284.19 91.47c-.32.72-.81.75-1.28.85-1.95-.01-11.7-.07-29.25-.18.02-.05.12-.29.31-.74 1.1-.07 1.71-.11 1.83-.12 8.08-12.1 12.56-18.82 13.46-20.16.49-1.14.41-1.34.43-1.71h28.45c-8.37 13.23-13.02 20.59-13.95 22.06z"/><path id="g" d="m291.49 57.52c.6.9 5.43 8.06 6.03 8.96.44.81 1.23 1.58.73 2.74-2.85.01-25.66.06-28.51.06.06-1.63-.32-2.71-.91-3.53-4.73-6.51-8.86-12.42-14.19-19.54 3.81-1.53 8.44-.9 12.54-1.05 3.14.07 14.15.34 15.72.37 3.83 5.7 3.9 5.7 8.59 11.99z"/><path id="h" d="m291.49 57.52c.6.9 5.43 8.06 6.03 8.96.44.81 1.23 1.58.73 2.74-2.85.01-25.66.06-28.51.06.06-1.63-.32-2.71-.91-3.53-4.73-6.51-8.86-12.42-14.19-19.54 3.81-1.53 8.44-.9 12.54-1.05 3.14.07 14.15.34 15.72.37 3.83 5.7 3.9 5.7 8.59 11.99z"/><path id="i" d="m270.09 22.98c.59.89 5.35 8.06 5.94 8.95.43.81 1.21 1.58.72 2.75-2.81 0-25.29.05-28.1.06.06-1.63-.32-2.72-.9-3.54-4.66-6.51-8.73-12.42-13.98-19.54 3.75-1.53 8.31-.9 12.36-1.05 0 0 13.94.34 15.49.38 3.78 5.7 3.85 5.7 8.47 11.99z"/><path id="j" d="m270.09 22.98c.59.89 5.35 8.06 5.94 8.95.43.81 1.21 1.58.72 2.75-2.81 0-25.29.05-28.1.06.06-1.63-.32-2.72-.9-3.54-4.66-6.51-8.73-12.42-13.98-19.54 3.75-1.53 8.31-.9 12.36-1.05 0 0 13.94.34 15.49.38 3.78 5.7 3.85 5.7 8.47 11.99z"/><path id="k" d="m270.13 45.07c-5.25.35-13.35-.6-15.59 1.12-.47.75-2.82 4.47-7.06 11.16-1.46-.01-13.11-.13-14.57-.15-.04-.21-.06-.33-.07-.35.4-.05.68-.1.98-.2.98-1.45 5.91-8.68 14.78-21.69 1.87 0 11.21-.03 28.02-.08-4.04 6.34-6.2 9.74-6.49 10.19z"/><path id="l" d="m270.13 45.07c-5.25.35-13.35-.6-15.59 1.12-.47.75-2.82 4.47-7.06 11.16-1.46-.01-13.11-.13-14.57-.15-.04-.21-.06-.33-.07-.35.4-.05.68-.1.98-.2.98-1.45 5.91-8.68 14.78-21.69 1.87 0 11.21-.03 28.02-.08-4.04 6.34-6.2 9.74-6.49 10.19z"/><path id="m" d="m189.26 12.9h-79.08v79.07h79.08z"/><path id="n" d="m189.26 12.9h-79.08v79.07h79.08z"/><path id="o" d="m146.15 60.91h-3.9v19.95h3.9z"/><path id="p" d="m146.15 60.91h-3.9v19.95h3.9z"/><path id="q" d="m156.07 53.48h-6.38v27.38h6.38z"/><path id="r" d="m156.07 53.48h-6.38v27.38h6.38z"/><path id="s" d="m138.76 34.4s6.43-6.28 17.27-4.21c0 0 4.76.74 8.42 3.98 0 0 .54.51.96.1 0 0 .53-.42-.06-1.04 0 0-3.14-4.36-9.34-6.29 0 0-8.52-3.05-17.28 1.07 0 0-5.38 2.24-8.37 8.32 0 0-4.26 1.38-7.46 3.17 0 0-.94.37-.58 1.11 0 0 .3.52 1.13.13 0 0 2.96-1.02 5.82-1.66 0 0-2.3 5.96.1 13.36 1.07 3.3 3.02 6.65 6 9.35 0 0 .49.51 1.01.16 0 0 .47-.34.14-.88 0 0-2.38-3.58-3.3-8.66-.77-4.15-.4-9.87 2.48-14.41 0 0 10.96-1.53 20.31 1.99 0 0 15.87 5.18 11.87 14.78 0 0-1.16 3.34-5.54 6.36 0 0-.73.43-.34 1.04 0 0 .34.48 1.09.17 0 0 6.71-2.18 9.6-7.57 0 0 5.88-8.99-7.98-16.33 0 0-3.81-2.03-8.7-3.12 0 0-8.83-2.18-17.25-.91"/><path id="t" d="m138.76 34.4s6.43-6.28 17.27-4.21c0 0 4.76.74 8.42 3.98 0 0 .54.51.96.1 0 0 .53-.42-.06-1.04 0 0-3.14-4.36-9.34-6.29 0 0-8.52-3.05-17.28 1.07 0 0-5.38 2.24-8.37 8.32 0 0-4.26 1.38-7.46 3.17 0 0-.94.37-.58 1.11 0 0 .3.52 1.13.13 0 0 2.96-1.02 5.82-1.66 0 0-2.3 5.96.1 13.36 1.07 3.3 3.02 6.65 6 9.35 0 0 .49.51 1.01.16 0 0 .47-.34.14-.88 0 0-2.38-3.58-3.3-8.66-.77-4.15-.4-9.87 2.48-14.41 0 0 10.96-1.53 20.31 1.99 0 0 15.87 5.18 11.87 14.78 0 0-1.16 3.34-5.54 6.36 0 0-.73.43-.34 1.04 0 0 .34.48 1.09.17 0 0 6.71-2.18 9.6-7.57 0 0 5.88-8.99-7.98-16.33 0 0-3.81-2.03-8.7-3.12 0 0-8.83-2.18-17.25-.91"/><path id="u" d="m380.55 9.16.68.06.69.08.67.12.66.16.65.18.64.22.62.25.6.28.59.3.57.34.55.35.54.39.51.41.5.44.47.45.46.48.42.5.41.52.38.55.35.56.33.58.3.59.28.61.24.63.21.64.19.66.15.66.12.68.09.69.05.71.02.71v55.22l-.02.71-.05.7-.09.69-.12.68-.15.67-.19.65-.21.64-.24.63-.28.61-.3.59-.33.58-.35.56-.38.55-.41.51-.42.51-.46.48-.47.45-.5.44-.51.41-.54.38-.55.36-.57.33-.59.3-.6.28-.62.25-.64.21-.65.19-.66.16-.67.11-.69.09-.68.06-.71.01h-54.58l-.71-.01-.69-.06-.68-.09-.67-.11-.67-.16-.64-.19-.64-.21-.62-.25-.61-.28-.59-.3-.56-.33-.56-.36-.53-.38-.52-.41-.5-.44-.47-.45-.45-.48-.43-.51-.4-.51-.39-.55-.35-.56-.33-.58-.3-.59-.27-.61-.25-.63-.21-.64-.18-.65-.16-.67-.12-.68-.08-.69-.06-.7-.01-.71v-55.22l.01-.71.06-.71.08-.69.12-.68.16-.66.18-.66.21-.64.25-.63.27-.61.3-.59.33-.58.35-.56.39-.55.4-.52.43-.5.45-.48.47-.45.5-.44.52-.41.53-.39.56-.35.56-.34.59-.3.61-.28.62-.25.64-.22.64-.18.67-.16.67-.12.68-.08.69-.06.71-.02h54.58z"/><path id="v" d="m380.55 9.16.68.06.69.08.67.12.66.16.65.18.64.22.62.25.6.28.59.3.57.34.55.35.54.39.51.41.5.44.47.45.46.48.42.5.41.52.38.55.35.56.33.58.3.59.28.61.24.63.21.64.19.66.15.66.12.68.09.69.05.71.02.71v55.22l-.02.71-.05.7-.09.69-.12.68-.15.67-.19.65-.21.64-.24.63-.28.61-.3.59-.33.58-.35.56-.38.55-.41.51-.42.51-.46.48-.47.45-.5.44-.51.41-.54.38-.55.36-.57.33-.59.3-.6.28-.62.25-.64.21-.65.19-.66.16-.67.11-.69.09-.68.06-.71.01h-54.58l-.71-.01-.69-.06-.68-.09-.67-.11-.67-.16-.64-.19-.64-.21-.62-.25-.61-.28-.59-.3-.56-.33-.56-.36-.53-.38-.52-.41-.5-.44-.47-.45-.45-.48-.43-.51-.4-.51-.39-.55-.35-.56-.33-.58-.3-.59-.27-.61-.25-.63-.21-.64-.18-.65-.16-.67-.12-.68-.08-.69-.06-.7-.01-.71v-55.22l.01-.71.06-.71.08-.69.12-.68.16-.66.18-.66.21-.64.25-.63.27-.61.3-.59.33-.58.35-.56.39-.55.4-.52.43-.5.45-.48.47-.45.5-.44.52-.41.53-.39.56-.35.56-.34.59-.3.61-.28.62-.25.64-.22.64-.18.67-.16.67-.12.68-.08.69-.06.71-.02h54.58z"/><path id="w" d="m324.79 50.55h-6.36v27.62h6.36z"/><path id="x" d="m324.79 50.55h-6.36v27.62h6.36z"/><path id="y" d="m354.58 56.92.6.05.57.08.54.1.51.13.5.14.47.17.44.18.42.2.4.21.37.24.36.26.33.27.31.28.29.3.26.32.25.33.23.34.21.36.19.36.17.38.15.39.14.4.12.41.1.42.08.43.07.44.05.45.04.45.02.45.01.47v12.24h-5.18l-.7-2.15h-.07l-.13.15-.14.15-.15.15-.14.14-.15.14-.16.13-.16.13-.17.13-.17.12-.18.12-.18.1-.18.11-.19.11-.2.09-.4.18-.2.08-.21.09-.22.07-.21.07-.22.06-.23.06-.22.05-.23.05-.24.04-.23.04-.24.03-.24.02-.25.02-.24.01-.26.02h-.25l-.42-.01-.41-.03-.4-.04-.38-.06-.37-.08-.36-.1-.34-.1-.34-.13-.32-.13-.31-.15-.29-.17-.28-.17-.27-.19-.26-.2-.24-.21-.23-.21-.21-.23-.21-.24-.19-.24-.17-.26-.16-.25-.15-.27-.13-.27-.12-.27-.11-.28-.09-.29-.08-.29-.12-.58-.03-.29-.02-.3-.01-.29.02-.49.04-.48.07-.47.11-.44.13-.44.15-.41.19-.4.21-.39.25-.36.27-.36.29-.34.32-.32.34-.31.37-.29.4-.27.42-.26.44-.24.48-.23.49-.22.51-.19.53-.18.57-.17.58-.15.6-.13.62-.12.65-.1.67-.08.69-.07.7-.05.73-.04.75-.02.76-.01v-.31l-.01-.1-.01-.1-.02-.11-.03-.11-.03-.11-.03-.12-.05-.12-.06-.12-.06-.11-.07-.12-.08-.13-.08-.12-.1-.11-.11-.12-.12-.12-.13-.1-.14-.11-.16-.1-.16-.1-.17-.1-.19-.09-.21-.08-.22-.08-.23-.06-.24-.06-.27-.06-.27-.04-.29-.03-.3-.03-.33-.02h-.77l-.21.02-.21.02-.21.01-.21.03-.22.02-.21.03-.21.04-.21.04-.22.04-.21.04-.2.05-.21.05-.21.05-.6.18-.2.07-.19.06-.18.07-.19.07-.18.07-.18.08-.18.07-.17.07-.16.08-.16.08-.15.08-.15.08-.14.08-.14.09-1.2-4.07.15-.09.16-.09.17-.09.18-.09.18-.08.19-.09.2-.09.2-.08.21-.09.22-.08.23-.08.23-.08.24-.08.25-.08.52-.14.27-.07.27-.07.29-.06.28-.06.3-.05.3-.06.31-.04.31-.05.32-.03.33-.04.33-.03.34-.02.34-.02.36-.02.36-.01h.36l.64.01zm1.27 11.43h-.16l-.25.01-.24.01-.25.02-.23.02-.24.03-.23.02-.22.03-.21.03-.24.04-.21.04-.23.05-.21.04-.2.06-.2.06-.2.05-.38.14-.17.07-.34.16-.16.09-.15.09-.14.09-.14.11-.14.1-.12.11-.12.11-.1.12-.11.12-.09.13-.08.13-.08.14-.06.14-.06.15-.06.15-.04.16-.03.16-.02.18-.02.17v.34l.01.15.04.3.03.14.04.14.05.13.04.13.06.12.06.11.14.22.08.11.09.09.08.09.1.09.1.08.11.08.1.07.36.18.13.05.13.04.14.04.14.04.15.03.14.02.16.02.15.01.16.01h.35l.18-.01.19-.02.17-.02.18-.04.17-.03.33-.09.16-.06.31-.13.15-.07.14-.08.14-.07.13-.09.14-.09.13-.09.24-.2.12-.1.11-.11.2-.22.1-.12.09-.11.09-.12.08-.13.08-.11.07-.13.06-.12.07-.13.05-.13.04-.1.02-.04.01-.06.02-.07.02-.05.02-.13.03-.13.01-.13.02-.13.01-.14.01-.12v-2.45h-.95z"/><path id="z" d="m354.58 56.92.6.05.57.08.54.1.51.13.5.14.47.17.44.18.42.2.4.21.37.24.36.26.33.27.31.28.29.3.26.32.25.33.23.34.21.36.19.36.17.38.15.39.14.4.12.41.1.42.08.43.07.44.05.45.04.45.02.45.01.47v12.24h-5.18l-.7-2.15h-.07l-.13.15-.14.15-.15.15-.14.14-.15.14-.16.13-.16.13-.17.13-.17.12-.18.12-.18.1-.18.11-.19.11-.2.09-.4.18-.2.08-.21.09-.22.07-.21.07-.22.06-.23.06-.22.05-.23.05-.24.04-.23.04-.24.03-.24.02-.25.02-.24.01-.26.02h-.25l-.42-.01-.41-.03-.4-.04-.38-.06-.37-.08-.36-.1-.34-.1-.34-.13-.32-.13-.31-.15-.29-.17-.28-.17-.27-.19-.26-.2-.24-.21-.23-.21-.21-.23-.21-.24-.19-.24-.17-.26-.16-.25-.15-.27-.13-.27-.12-.27-.11-.28-.09-.29-.08-.29-.12-.58-.03-.29-.02-.3-.01-.29.02-.49.04-.48.07-.47.11-.44.13-.44.15-.41.19-.4.21-.39.25-.36.27-.36.29-.34.32-.32.34-.31.37-.29.4-.27.42-.26.44-.24.48-.23.49-.22.51-.19.53-.18.57-.17.58-.15.6-.13.62-.12.65-.1.67-.08.69-.07.7-.05.73-.04.75-.02.76-.01v-.31l-.01-.1-.01-.1-.02-.11-.03-.11-.03-.11-.03-.12-.05-.12-.06-.12-.06-.11-.07-.12-.08-.13-.08-.12-.1-.11-.11-.12-.12-.12-.13-.1-.14-.11-.16-.1-.16-.1-.17-.1-.19-.09-.21-.08-.22-.08-.23-.06-.24-.06-.27-.06-.27-.04-.29-.03-.3-.03-.33-.02h-.77l-.21.02-.21.02-.21.01-.21.03-.22.02-.21.03-.21.04-.21.04-.22.04-.21.04-.2.05-.21.05-.21.05-.6.18-.2.07-.19.06-.18.07-.19.07-.18.07-.18.08-.18.07-.17.07-.16.08-.16.08-.15.08-.15.08-.14.08-.14.09-1.2-4.07.15-.09.16-.09.17-.09.18-.09.18-.08.19-.09.2-.09.2-.08.21-.09.22-.08.23-.08.23-.08.24-.08.25-.08.52-.14.27-.07.27-.07.29-.06.28-.06.3-.05.3-.06.31-.04.31-.05.32-.03.33-.04.33-.03.34-.02.34-.02.36-.02.36-.01h.36l.64.01zm1.27 11.43h-.16l-.25.01-.24.01-.25.02-.23.02-.24.03-.23.02-.22.03-.21.03-.24.04-.21.04-.23.05-.21.04-.2.06-.2.06-.2.05-.38.14-.17.07-.34.16-.16.09-.15.09-.14.09-.14.11-.14.1-.12.11-.12.11-.1.12-.11.12-.09.13-.08.13-.08.14-.06.14-.06.15-.06.15-.04.16-.03.16-.02.18-.02.17v.34l.01.15.04.3.03.14.04.14.05.13.04.13.06.12.06.11.14.22.08.11.09.09.08.09.1.09.1.08.11.08.1.07.36.18.13.05.13.04.14.04.14.04.15.03.14.02.16.02.15.01.16.01h.35l.18-.01.19-.02.17-.02.18-.04.17-.03.33-.09.16-.06.31-.13.15-.07.14-.08.14-.07.13-.09.14-.09.13-.09.24-.2.12-.1.11-.11.2-.22.1-.12.09-.11.09-.12.08-.13.08-.11.07-.13.06-.12.07-.13.05-.13.04-.1.02-.04.01-.06.02-.07.02-.05.02-.13.03-.13.01-.13.02-.13.01-.14.01-.12v-2.45h-.95z"/><path id="A" d="m380.36 69.79-.01.17-.02.17-.02.17-.03.16-.03.16-.05.16-.05.14-.05.12-.06.12-.06.12-.06.12-.07.11-.07.12-.08.12-.08.11-.08.12-.09.11-.1.11-.1.11-.1.11-.1.1-.12.1-.12.1-.12.09-.12.09-.13.09-.14.08-.14.07-.14.07-.15.07-.16.06-.15.05-.17.05-.17.04-.17.03-.17.03-.19.02-.18.02h-.2l-.23-.01-.23-.01-.23-.03-.21-.04-.21-.05-.2-.06-.19-.07-.18-.09-.17-.08-.16-.11-.16-.11-.15-.13-.14-.13-.14-.14-.12-.15-.12-.16-.11-.17-.1-.18-.1-.19-.09-.2-.07-.21-.08-.22-.07-.22-.05-.24-.05-.24-.05-.25-.04-.26-.03-.27-.02-.27-.02-.29-.01-.29v-.3-10.94h-6.22v12.09.31l.01.29.01.29.02.28.02.28.03.28.03.26.03.27.04.25.04.25.05.24.05.24.06.23.06.23.06.22.07.22.07.21.09.2.07.21.09.19.09.19.08.19.1.18.1.18.09.17.11.17.11.17.11.16.11.15.12.15.12.15.12.14.13.14.13.13.13.12.14.12.14.12.14.12.14.11.15.1.16.1.15.09.16.09.16.09.16.07.17.08.17.07.17.07.18.06.18.06.18.05.18.05.19.05.18.04.19.04.2.03.19.03.2.03.2.02.2.02.2.01.21.01.2.01h.21.19l.18-.01h.17l.17-.01.18-.02.17-.01.17-.02.16-.02.16-.02.16-.04.16-.02.15-.04.15-.03.15-.04.15-.04.14-.04.27-.1.28-.09.25-.11.25-.1.24-.12.23-.11.22-.12.21-.13.2-.13.2-.13.18-.13.18-.14.17-.14.16-.14.15-.15.14-.15.14-.14.13-.15.11-.14.12-.13.11-.13.09-.13.09-.12.08-.12.8 2.94h5.04v-20.69h-6.3v12.13z"/><path id="B" d="m380.36 69.79-.01.17-.02.17-.02.17-.03.16-.03.16-.05.16-.05.14-.05.12-.06.12-.06.12-.06.12-.07.11-.07.12-.08.12-.08.11-.08.12-.09.11-.1.11-.1.11-.1.11-.1.1-.12.1-.12.1-.12.09-.12.09-.13.09-.14.08-.14.07-.14.07-.15.07-.16.06-.15.05-.17.05-.17.04-.17.03-.17.03-.19.02-.18.02h-.2l-.23-.01-.23-.01-.23-.03-.21-.04-.21-.05-.2-.06-.19-.07-.18-.09-.17-.08-.16-.11-.16-.11-.15-.13-.14-.13-.14-.14-.12-.15-.12-.16-.11-.17-.1-.18-.1-.19-.09-.2-.07-.21-.08-.22-.07-.22-.05-.24-.05-.24-.05-.25-.04-.26-.03-.27-.02-.27-.02-.29-.01-.29v-.3-10.94h-6.22v12.09.31l.01.29.01.29.02.28.02.28.03.28.03.26.03.27.04.25.04.25.05.24.05.24.06.23.06.23.06.22.07.22.07.21.09.2.07.21.09.19.09.19.08.19.1.18.1.18.09.17.11.17.11.17.11.16.11.15.12.15.12.15.12.14.13.14.13.13.13.12.14.12.14.12.14.12.14.11.15.1.16.1.15.09.16.09.16.09.16.07.17.08.17.07.17.07.18.06.18.06.18.05.18.05.19.05.18.04.19.04.2.03.19.03.2.03.2.02.2.02.2.01.21.01.2.01h.21.19l.18-.01h.17l.17-.01.18-.02.17-.01.17-.02.16-.02.16-.02.16-.04.16-.02.15-.04.15-.03.15-.04.15-.04.14-.04.27-.1.28-.09.25-.11.25-.1.24-.12.23-.11.22-.12.21-.13.2-.13.2-.13.18-.13.18-.14.17-.14.16-.14.15-.15.14-.15.14-.14.13-.15.11-.14.12-.13.11-.13.09-.13.09-.12.08-.12.8 2.94h5.04v-20.69h-6.3v12.13z"/><path id="C" d="m327.86 57.47v4.71h2.91v8.42.26l.01.25v.26l.01.24.02.24.02.24.02.23.02.24.03.22.03.22.04.22.04.21.04.21.04.21.05.19.05.2.06.19.06.19.06.18.07.17.07.18.07.17.08.16.08.16.08.15.09.15.09.15.1.14.09.14.11.13.1.13.11.11.1.11.11.1.1.1.11.1.12.09.12.09.12.1.13.09.13.08.14.09.14.07.14.09.15.07.15.07.16.07.15.07.16.06.17.06.16.06.17.05.18.05.18.04.18.04.18.04.18.04.19.03.19.02.2.02.19.02.2.01.2.01h.21.33l.31-.02.3-.01.26-.02.25-.03.24-.03.21-.03.2-.05.2-.04.18-.04.17-.06.16-.05.32-.11.32-.12v-4.81l-.09.03-.1.03-.13.03-.16.03-.18.03-.2.01-.21.02h-.23-.21l-.19-.01-.18-.02-.18-.04-.16-.03-.15-.04-.15-.06-.14-.06-.13-.06-.12-.08-.12-.09-.1-.08-.1-.1-.1-.11-.08-.11-.08-.12-.07-.13-.07-.14-.06-.14-.06-.15-.04-.16-.05-.16-.03-.17-.04-.18-.02-.19-.03-.19-.02-.2-.02-.21-.01-.21-.01-.22v-.23-.23-7.34h3.95v-4.71h-3.95v-6.92h-6.18v6.92z"/><path id="D" d="m327.86 57.47v4.71h2.91v8.42.26l.01.25v.26l.01.24.02.24.02.24.02.23.02.24.03.22.03.22.04.22.04.21.04.21.04.21.05.19.05.2.06.19.06.19.06.18.07.17.07.18.07.17.08.16.08.16.08.15.09.15.09.15.1.14.09.14.11.13.1.13.11.11.1.11.11.1.1.1.11.1.12.09.12.09.12.1.13.09.13.08.14.09.14.07.14.09.15.07.15.07.16.07.15.07.16.06.17.06.16.06.17.05.18.05.18.04.18.04.18.04.18.04.19.03.19.02.2.02.19.02.2.01.2.01h.21.33l.31-.02.3-.01.26-.02.25-.03.24-.03.21-.03.2-.05.2-.04.18-.04.17-.06.16-.05.32-.11.32-.12v-4.81l-.09.03-.1.03-.13.03-.16.03-.18.03-.2.01-.21.02h-.23-.21l-.19-.01-.18-.02-.18-.04-.16-.03-.15-.04-.15-.06-.14-.06-.13-.06-.12-.08-.12-.09-.1-.08-.1-.1-.1-.11-.08-.11-.08-.12-.07-.13-.07-.14-.06-.14-.06-.15-.04-.16-.05-.16-.03-.17-.04-.18-.02-.19-.03-.19-.02-.2-.02-.21-.01-.21-.01-.22v-.23-.23-7.34h3.95v-4.71h-3.95v-6.92h-6.18v6.92z"/><path id="E" d="m378.61 56.13 5.42-5.58h-6.02l-3.84 5.58z"/><path id="F" d="m378.61 56.13 5.42-5.58h-6.02l-3.84 5.58z"/><path id="G" d="m91.34 92.15h-81.88v-79.43h81.88z"/><path id="H" d="m91.34 92.15h-81.88v-79.43h81.88z"/><path id="I" d="m33.46 61.19 31.73-21.14-17.64-11.75-8.81 5.89 7.07 4.66-15.87 10.59-14.09-9.41 31.7-21.12 31.73 21.12-38.77 25.86z"/><path id="J" d="m33.46 61.19 31.73-21.14-17.64-11.75-8.81 5.89 7.07 4.66-15.87 10.59-14.09-9.41 31.7-21.12 31.73 21.12-38.77 25.86z"/><path id="K" d="m47.55 72.93 8.83-5.88-7.07-4.72 15.85-10.57 14.12 9.43-31.73 21.13-31.7-21.13 38.75-25.84 7.04 4.7-31.7 21.14z"/><path id="L" d="m47.55 72.93 8.83-5.88-7.07-4.72 15.85-10.57 14.12 9.43-31.73 21.13-31.7-21.13 38.75-25.84 7.04 4.7-31.7 21.14z"/></defs><use fill="#6dbbfd" xlink:href="#a"/><g fill="none"><use xlink:href="#a"/><use xlink:href="#b"/><use stroke="#6dbbfd" stroke-width=".75" xlink:href="#b"/></g><use fill="#016bbf" xlink:href="#c"/><use fill="none" xlink:href="#c"/><use fill="none" xlink:href="#d"/><use fill="none" stroke="#016bbf" stroke-width=".75" xlink:href="#d"/><use fill="#016bbf" xlink:href="#e"/><use fill="none" xlink:href="#e"/><use fill="none" xlink:href="#f"/><use fill="none" stroke="#016bbf" stroke-width=".75" xlink:href="#f"/><use fill="#6dbbfd" xlink:href="#g"/><use fill="none" xlink:href="#g"/><use fill="none" xlink:href="#h"/><use fill="none" stroke="#6dbbfd" stroke-width=".75" xlink:href="#h"/><use fill="#6dbbfd" xlink:href="#i"/><use fill="none" xlink:href="#i"/><use fill="none" xlink:href="#j"/><use fill="none" stroke="#6dbbfd" stroke-width=".75" xlink:href="#j"/><use fill="#016bbf" xlink:href="#k"/><use fill="none" xlink:href="#k"/><use fill="none" xlink:href="#l"/><use fill="none" stroke="#016bbf" stroke-width=".75" xlink:href="#l"/><use fill="#e41836" xlink:href="#m"/><use fill="none" xlink:href="#m"/><use fill="none" xlink:href="#n"/><use fill="none" xlink:href="#n"/><use fill="#fff" xlink:href="#o"/><use fill="none" xlink:href="#o"/><use fill="none" xlink:href="#p"/><use fill="none" xlink:href="#p"/><use fill="#fff" xlink:href="#q"/><use fill="none" xlink:href="#q"/><use fill="none" xlink:href="#r"/><use fill="none" xlink:href="#r"/><use fill="#fff" xlink:href="#s"/><use fill="none" xlink:href="#s"/><use fill="none" xlink:href="#t"/><use fill="none" xlink:href="#t"/><use fill="#1a5493" xlink:href="#u"/><use fill="none" xlink:href="#u"/><use fill="none" xlink:href="#v"/><use fill="none" xlink:href="#v"/><use fill="#fff212" xlink:href="#w"/><use fill="none" xlink:href="#w"/><use fill="none" xlink:href="#x"/><use fill="none" xlink:href="#x"/><use fill="#fff212" xlink:href="#y"/><use fill="none" xlink:href="#y"/><use fill="none" xlink:href="#z"/><use fill="none" xlink:href="#z"/><use fill="#fff212" xlink:href="#A"/><use fill="none" xlink:href="#A"/><use fill="none" xlink:href="#B"/><use fill="none" xlink:href="#B"/><use fill="#fff212" xlink:href="#C"/><use fill="none" xlink:href="#C"/><use fill="none" xlink:href="#D"/><use fill="none" xlink:href="#D"/><use fill="#fff212" xlink:href="#E"/><use fill="none" xlink:href="#E"/><use fill="none" xlink:href="#F"/><use fill="none" xlink:href="#F"/><use fill="#f9dc30" xlink:href="#G"/><use fill="none" xlink:href="#G"/><use fill="none" xlink:href="#H"/><use fill="none" xlink:href="#H"/><use fill="#1e447f" xlink:href="#I"/><use fill="none" xlink:href="#I"/><use fill="none" xlink:href="#J"/><use fill="none" xlink:href="#J"/><use fill="#1e447f" xlink:href="#K"/><use fill="none" xlink:href="#K"/><use fill="none" xlink:href="#L"/><use fill="none" xlink:href="#L"/></svg>