<?xml version="1.0" encoding="UTF-8" standalone="no"?>
<!DOCTYPE svg PUBLIC "-//W3C//DTD SVG 1.1//EN" "http://www.w3.org/Graphics/SVG/1.1/DTD/svg11.dtd">
<svg version="1.1" xmlns="http://www.w3.org/2000/svg" xmlns:xlink="http://www.w3.org/1999/xlink" preserveAspectRatio="xMidYMid meet" viewBox="8.460810810810784 8.141351351351304 388.03 87.22" width="384.03" height="83.22"><defs><path d="M223.18 45.2L231.1 56.9L232.62 56.84L232.75 57.39C241.59 57.5 246.51 57.56 247.49 57.57C251.11 62.94 253.12 65.93 253.52 66.52C253.96 67.33 254.75 68.1 254.25 69.27C251.4 69.27 228.59 69.32 225.74 69.33C225.8 67.7 225.42 66.61 224.83 65.79C223.96 64.51 219.66 58.07 211.91 46.48C211.8 46.41 211.23 46.04 210.2 45.38L223.18 45.2Z" id="b4nrcUefN"></path><path d="M223.18 45.2L231.1 56.9L232.62 56.84L232.75 57.39C241.59 57.5 246.51 57.56 247.49 57.57C251.11 62.94 253.12 65.93 253.52 66.52C253.96 67.33 254.75 68.1 254.25 69.27C251.4 69.27 228.59 69.32 225.74 69.33C225.8 67.7 225.42 66.61 224.83 65.79C223.96 64.51 219.66 58.07 211.91 46.48C211.8 46.41 211.23 46.04 210.2 45.38L223.18 45.2Z" id="b3ITf6qij"></path><path d="M240.18 91.5C239.86 92.23 239.37 92.26 238.9 92.36C236.95 92.34 227.2 92.28 209.66 92.17C209.68 92.12 209.78 91.88 209.96 91.44C211.06 91.37 211.67 91.33 211.79 91.32C219.87 79.22 224.35 72.5 225.25 71.15C225.74 70.01 225.66 69.81 225.68 69.45C229.47 69.45 238.96 69.45 254.13 69.45C245.76 82.68 241.11 90.03 240.18 91.5Z" id="bWJ81nxvH"></path><path d="M240.18 91.5C239.86 92.23 239.37 92.26 238.9 92.36C236.95 92.34 227.2 92.28 209.66 92.17C209.68 92.12 209.78 91.88 209.96 91.44C211.06 91.37 211.67 91.33 211.79 91.32C219.87 79.22 224.35 72.5 225.25 71.15C225.74 70.01 225.66 69.81 225.68 69.45C229.47 69.45 238.96 69.45 254.13 69.45C245.76 82.68 241.11 90.03 240.18 91.5Z" id="e1VMBhKgTg"></path><path d="M284.19 91.47C283.87 92.19 283.38 92.22 282.91 92.32C280.96 92.31 271.21 92.25 253.66 92.14C253.68 92.09 253.78 91.85 253.97 91.4C255.07 91.33 255.68 91.29 255.8 91.28C263.88 79.18 268.36 72.46 269.26 71.12C269.75 69.98 269.67 69.78 269.69 69.41C273.48 69.41 282.96 69.41 298.14 69.41C289.77 82.64 285.12 90 284.19 91.47Z" id="doxI6NCok"></path><path d="M284.19 91.47C283.87 92.19 283.38 92.22 282.91 92.32C280.96 92.31 271.21 92.25 253.66 92.14C253.68 92.09 253.78 91.85 253.97 91.4C255.07 91.33 255.68 91.29 255.8 91.28C263.88 79.18 268.36 72.46 269.26 71.12C269.75 69.98 269.67 69.78 269.69 69.41C273.48 69.41 282.96 69.41 298.14 69.41C289.77 82.64 285.12 90 284.19 91.47Z" id="b1nT3PFZej"></path><path d="M291.49 57.52C292.09 58.42 296.92 65.58 297.52 66.48C297.96 67.29 298.75 68.06 298.25 69.22C295.4 69.23 272.59 69.28 269.74 69.28C269.8 67.65 269.42 66.57 268.83 65.75C264.1 59.24 259.97 53.33 254.64 46.21C258.45 44.68 263.08 45.31 267.18 45.16C270.32 45.23 281.33 45.5 282.9 45.53C286.73 51.23 286.8 51.23 291.49 57.52Z" id="a84LzJVEW"></path><path d="M291.49 57.52C292.09 58.42 296.92 65.58 297.52 66.48C297.96 67.29 298.75 68.06 298.25 69.22C295.4 69.23 272.59 69.28 269.74 69.28C269.8 67.65 269.42 66.57 268.83 65.75C264.1 59.24 259.97 53.33 254.64 46.21C258.45 44.68 263.08 45.31 267.18 45.16C270.32 45.23 281.33 45.5 282.9 45.53C286.73 51.23 286.8 51.23 291.49 57.52Z" id="b21C8mFqzc"></path><path d="M270.09 22.98C270.68 23.87 275.44 31.04 276.03 31.93C276.46 32.74 277.24 33.51 276.75 34.68C273.94 34.68 251.46 34.73 248.65 34.74C248.71 33.11 248.33 32.02 247.75 31.2C243.09 24.69 239.02 18.78 233.77 11.66C237.52 10.13 242.08 10.76 246.13 10.61C246.13 10.61 260.07 10.95 261.62 10.99C265.4 16.69 265.47 16.69 270.09 22.98Z" id="b7KHLOC5n"></path><path d="M270.09 22.98C270.68 23.87 275.44 31.04 276.03 31.93C276.46 32.74 277.24 33.51 276.75 34.68C273.94 34.68 251.46 34.73 248.65 34.74C248.71 33.11 248.33 32.02 247.75 31.2C243.09 24.69 239.02 18.78 233.77 11.66C237.52 10.13 242.08 10.76 246.13 10.61C246.13 10.61 260.07 10.95 261.62 10.99C265.4 16.69 265.47 16.69 270.09 22.98Z" id="aGxEusi8p"></path><path d="M270.13 45.07C264.88 45.42 256.78 44.47 254.54 46.19C254.07 46.94 251.72 50.66 247.48 57.35C246.02 57.34 234.37 57.22 232.91 57.2C232.87 56.99 232.85 56.87 232.84 56.85C233.24 56.8 233.52 56.75 233.82 56.65C234.8 55.2 239.73 47.97 248.6 34.96C250.47 34.96 259.81 34.93 276.62 34.88C272.58 41.22 270.42 44.62 270.13 45.07Z" id="bpeZVG5z"></path><path d="M270.13 45.07C264.88 45.42 256.78 44.47 254.54 46.19C254.07 46.94 251.72 50.66 247.48 57.35C246.02 57.34 234.37 57.22 232.91 57.2C232.87 56.99 232.85 56.87 232.84 56.85C233.24 56.8 233.52 56.75 233.82 56.65C234.8 55.2 239.73 47.97 248.6 34.96C250.47 34.96 259.81 34.93 276.62 34.88C272.58 41.22 270.42 44.62 270.13 45.07Z" id="ds0FZ4ddf"></path><path d="M189.26 12.9L110.18 12.9L110.18 91.97L189.26 91.97L189.26 12.9Z" id="cm0NFlsO"></path><path d="M189.26 12.9L110.18 12.9L110.18 91.97L189.26 91.97L189.26 12.9Z" id="a1gnS5n3Fs"></path><path d="M146.15 60.91L142.25 60.91L142.25 80.86L146.15 80.86L146.15 60.91Z" id="c7op3MUh"></path><path d="M146.15 60.91L142.25 60.91L142.25 80.86L146.15 80.86L146.15 60.91Z" id="fI7qyE3Qn"></path><path d="M156.07 53.48L149.69 53.48L149.69 80.86L156.07 80.86L156.07 53.48Z" id="a7ZOqPg16"></path><path d="M156.07 53.48L149.69 53.48L149.69 80.86L156.07 80.86L156.07 53.48Z" id="clpJfAwZY"></path><path d="M138.76 34.4C138.76 34.4 145.19 28.12 156.03 30.19C156.03 30.19 160.79 30.93 164.45 34.17C164.45 34.17 164.99 34.68 165.41 34.27C165.41 34.27 165.94 33.85 165.35 33.23C165.35 33.23 162.21 28.87 156.01 26.94C156.01 26.94 147.49 23.89 138.73 28.01C138.73 28.01 133.35 30.25 130.36 36.33C130.36 36.33 126.1 37.71 122.9 39.5C122.9 39.5 121.96 39.87 122.32 40.61C122.32 40.61 122.62 41.13 123.45 40.74C123.45 40.74 126.41 39.72 129.27 39.08C129.27 39.08 126.97 45.04 129.37 52.44C130.44 55.74 132.39 59.09 135.37 61.79C135.37 61.79 135.86 62.3 136.38 61.95C136.38 61.95 136.85 61.61 136.52 61.07C136.52 61.07 134.14 57.49 133.22 52.41C132.45 48.26 132.82 42.54 135.7 38C135.7 38 146.66 36.47 156.01 39.99C156.01 39.99 171.88 45.17 167.88 54.77C167.88 54.77 166.72 58.11 162.34 61.13C162.34 61.13 161.61 61.56 162 62.17C162 62.17 162.34 62.65 163.09 62.34C163.09 62.34 169.8 60.16 172.69 54.77C172.69 54.77 178.57 45.78 164.71 38.44C164.71 38.44 160.9 36.41 156.01 35.32C156.01 35.32 147.18 33.14 138.76 34.41" id="a10SZD5NkJ"></path><path d="M138.76 34.4C138.76 34.4 145.19 28.12 156.03 30.19C156.03 30.19 160.79 30.93 164.45 34.17C164.45 34.17 164.99 34.68 165.41 34.27C165.41 34.27 165.94 33.85 165.35 33.23C165.35 33.23 162.21 28.87 156.01 26.94C156.01 26.94 147.49 23.89 138.73 28.01C138.73 28.01 133.35 30.25 130.36 36.33C130.36 36.33 126.1 37.71 122.9 39.5C122.9 39.5 121.96 39.87 122.32 40.61C122.32 40.61 122.62 41.13 123.45 40.74C123.45 40.74 126.41 39.72 129.27 39.08C129.27 39.08 126.97 45.04 129.37 52.44C130.44 55.74 132.39 59.09 135.37 61.79C135.37 61.79 135.86 62.3 136.38 61.95C136.38 61.95 136.85 61.61 136.52 61.07C136.52 61.07 134.14 57.49 133.22 52.41C132.45 48.26 132.82 42.54 135.7 38C135.7 38 146.66 36.47 156.01 39.99C156.01 39.99 171.88 45.17 167.88 54.77C167.88 54.77 166.72 58.11 162.34 61.13C162.34 61.13 161.61 61.56 162 62.17C162 62.17 162.34 62.65 163.09 62.34C163.09 62.34 169.8 60.16 172.69 54.77C172.69 54.77 178.57 45.78 164.71 38.44C164.71 38.44 160.9 36.41 156.01 35.32C156.01 35.32 147.18 33.14 138.76 34.41" id="c3kYl0OLtP"></path><path d="M380.55 9.16L381.23 9.22L381.92 9.3L382.59 9.42L383.25 9.58L383.9 9.76L384.54 9.98L385.16 10.23L385.76 10.51L386.35 10.81L386.92 11.15L387.47 11.5L388.01 11.89L388.52 12.3L389.02 12.74L389.49 13.19L389.95 13.67L390.37 14.17L390.78 14.69L391.16 15.24L391.51 15.8L391.84 16.38L392.14 16.97L392.42 17.58L392.66 18.21L392.87 18.85L393.06 19.51L393.21 20.17L393.33 20.85L393.42 21.54L393.47 22.25L393.49 22.96L393.49 78.18L393.47 78.89L393.42 79.59L393.33 80.28L393.21 80.96L393.06 81.63L392.87 82.28L392.66 82.92L392.42 83.55L392.14 84.16L391.84 84.75L391.51 85.33L391.16 85.89L390.78 86.44L390.37 86.95L389.95 87.46L389.49 87.94L389.02 88.39L388.52 88.83L388.01 89.24L387.47 89.62L386.92 89.98L386.35 90.31L385.76 90.61L385.16 90.89L384.54 91.14L383.9 91.35L383.25 91.54L382.59 91.7L381.92 91.81L381.23 91.9L380.55 91.96L379.84 91.97L325.26 91.97L324.55 91.96L323.86 91.9L323.18 91.81L322.51 91.7L321.84 91.54L321.2 91.35L320.56 91.14L319.94 90.89L319.33 90.61L318.74 90.31L318.18 89.98L317.62 89.62L317.09 89.24L316.57 88.83L316.07 88.39L315.6 87.94L315.15 87.46L314.72 86.95L314.32 86.44L313.93 85.89L313.58 85.33L313.25 84.75L312.95 84.16L312.68 83.55L312.43 82.92L312.22 82.28L312.04 81.63L311.88 80.96L311.76 80.28L311.68 79.59L311.62 78.89L311.61 78.18L311.61 22.96L311.62 22.25L311.68 21.54L311.76 20.85L311.88 20.17L312.04 19.51L312.22 18.85L312.43 18.21L312.68 17.58L312.95 16.97L313.25 16.38L313.58 15.8L313.93 15.24L314.32 14.69L314.72 14.17L315.15 13.67L315.6 13.19L316.07 12.74L316.57 12.3L317.09 11.89L317.62 11.5L318.18 11.15L318.74 10.81L319.33 10.51L319.94 10.23L320.56 9.98L321.2 9.76L321.84 9.58L322.51 9.42L323.18 9.3L323.86 9.22L324.55 9.16L325.26 9.14L379.84 9.14L380.55 9.16Z" id="b2CVeWYuA2"></path><path d="M380.55 9.16L381.23 9.22L381.92 9.3L382.59 9.42L383.25 9.58L383.9 9.76L384.54 9.98L385.16 10.23L385.76 10.51L386.35 10.81L386.92 11.15L387.47 11.5L388.01 11.89L388.52 12.3L389.02 12.74L389.49 13.19L389.95 13.67L390.37 14.17L390.78 14.69L391.16 15.24L391.51 15.8L391.84 16.38L392.14 16.97L392.42 17.58L392.66 18.21L392.87 18.85L393.06 19.51L393.21 20.17L393.33 20.85L393.42 21.54L393.47 22.25L393.49 22.96L393.49 78.18L393.47 78.89L393.42 79.59L393.33 80.28L393.21 80.96L393.06 81.63L392.87 82.28L392.66 82.92L392.42 83.55L392.14 84.16L391.84 84.75L391.51 85.33L391.16 85.89L390.78 86.44L390.37 86.95L389.95 87.46L389.49 87.94L389.02 88.39L388.52 88.83L388.01 89.24L387.47 89.62L386.92 89.98L386.35 90.31L385.76 90.61L385.16 90.89L384.54 91.14L383.9 91.35L383.25 91.54L382.59 91.7L381.92 91.81L381.23 91.9L380.55 91.96L379.84 91.97L325.26 91.97L324.55 91.96L323.86 91.9L323.18 91.81L322.51 91.7L321.84 91.54L321.2 91.35L320.56 91.14L319.94 90.89L319.33 90.61L318.74 90.31L318.18 89.98L317.62 89.62L317.09 89.24L316.57 88.83L316.07 88.39L315.6 87.94L315.15 87.46L314.72 86.95L314.32 86.44L313.93 85.89L313.58 85.33L313.25 84.75L312.95 84.16L312.68 83.55L312.43 82.92L312.22 82.28L312.04 81.63L311.88 80.96L311.76 80.28L311.68 79.59L311.62 78.89L311.61 78.18L311.61 22.96L311.62 22.25L311.68 21.54L311.76 20.85L311.88 20.17L312.04 19.51L312.22 18.85L312.43 18.21L312.68 17.58L312.95 16.97L313.25 16.38L313.58 15.8L313.93 15.24L314.32 14.69L314.72 14.17L315.15 13.67L315.6 13.19L316.07 12.74L316.57 12.3L317.09 11.89L317.62 11.5L318.18 11.15L318.74 10.81L319.33 10.51L319.94 10.23L320.56 9.98L321.2 9.76L321.84 9.58L322.51 9.42L323.18 9.3L323.86 9.22L324.55 9.16L325.26 9.14L379.84 9.14L380.55 9.16Z" id="a3ZbEfJL9P"></path><path d="M324.79 50.55L318.43 50.55L318.43 78.17L324.79 78.17L324.79 50.55Z" id="bGLSwiDqj"></path><path d="M324.79 50.55L318.43 50.55L318.43 78.17L324.79 78.17L324.79 50.55Z" id="beaf5V4MY"></path><path d="M354.58 56.92L355.18 56.97L355.75 57.05L356.29 57.15L356.8 57.28L357.3 57.42L357.77 57.59L358.21 57.77L358.63 57.97L359.03 58.18L359.4 58.42L359.76 58.68L360.09 58.95L360.4 59.23L360.69 59.53L360.95 59.85L361.2 60.18L361.43 60.52L361.64 60.88L361.83 61.24L362 61.62L362.15 62.01L362.29 62.41L362.41 62.82L362.51 63.24L362.59 63.67L362.66 64.11L362.71 64.56L362.75 65.01L362.77 65.46L362.78 65.93L362.78 78.17L357.6 78.17L356.9 76.02L356.83 76.02L356.7 76.17L356.56 76.32L356.41 76.47L356.27 76.61L356.12 76.75L355.96 76.88L355.8 77.01L355.63 77.14L355.46 77.26L355.28 77.38L355.1 77.48L354.92 77.59L354.73 77.7L354.53 77.79L354.13 77.97L353.93 78.05L353.72 78.14L353.5 78.21L353.29 78.28L353.07 78.34L352.84 78.4L352.62 78.45L352.39 78.5L352.15 78.54L351.92 78.58L351.68 78.61L351.44 78.63L351.19 78.65L350.95 78.66L350.69 78.68L350.44 78.68L350.02 78.67L349.61 78.64L349.21 78.6L348.83 78.54L348.46 78.46L348.1 78.36L347.76 78.26L347.42 78.13L347.1 78L346.79 77.85L346.5 77.68L346.22 77.51L345.95 77.32L345.69 77.12L345.45 76.91L345.22 76.7L345.01 76.47L344.8 76.23L344.61 75.99L344.44 75.73L344.28 75.48L344.13 75.21L344 74.94L343.88 74.67L343.77 74.39L343.68 74.1L343.6 73.81L343.48 73.23L343.45 72.94L343.43 72.64L343.42 72.35L343.44 71.86L343.48 71.38L343.55 70.91L343.66 70.47L343.79 70.03L343.94 69.62L344.13 69.22L344.34 68.83L344.59 68.47L344.86 68.11L345.15 67.77L345.47 67.45L345.81 67.14L346.18 66.85L346.58 66.58L347 66.32L347.44 66.08L347.92 65.85L348.41 65.63L348.92 65.44L349.45 65.26L350.02 65.09L350.6 64.94L351.2 64.81L351.82 64.69L352.47 64.59L353.14 64.51L353.83 64.44L354.53 64.39L355.26 64.35L356.01 64.33L356.77 64.32L356.77 64.01L356.76 63.91L356.75 63.81L356.73 63.7L356.7 63.59L356.67 63.48L356.64 63.36L356.59 63.24L356.53 63.12L356.47 63.01L356.4 62.89L356.32 62.76L356.24 62.64L356.14 62.53L356.03 62.41L355.91 62.29L355.78 62.19L355.64 62.08L355.48 61.98L355.32 61.88L355.15 61.78L354.96 61.69L354.75 61.61L354.53 61.53L354.3 61.47L354.06 61.41L353.79 61.35L353.52 61.31L353.23 61.28L352.93 61.25L352.6 61.23L351.83 61.23L351.62 61.25L351.41 61.27L351.2 61.28L350.99 61.31L350.77 61.33L350.56 61.36L350.35 61.4L350.14 61.44L349.92 61.48L349.71 61.52L349.51 61.57L349.3 61.62L349.09 61.67L348.49 61.85L348.29 61.92L348.1 61.98L347.92 62.05L347.73 62.12L347.55 62.19L347.37 62.27L347.19 62.34L347.02 62.41L346.86 62.49L346.7 62.57L346.55 62.65L346.4 62.73L346.26 62.81L346.12 62.9L344.92 58.83L345.07 58.74L345.23 58.65L345.4 58.56L345.58 58.47L345.76 58.39L345.95 58.3L346.15 58.21L346.35 58.13L346.56 58.04L346.78 57.96L347.01 57.88L347.24 57.8L347.48 57.72L347.73 57.64L348.25 57.5L348.52 57.43L348.79 57.36L349.08 57.3L349.36 57.24L349.66 57.19L349.96 57.13L350.27 57.09L350.58 57.04L350.9 57.01L351.23 56.97L351.56 56.94L351.9 56.92L352.24 56.9L352.6 56.88L352.96 56.87L353.32 56.87L353.96 56.88L354.58 56.92ZM355.85 68.35L355.69 68.35L355.44 68.36L355.2 68.37L354.95 68.39L354.72 68.41L354.48 68.44L354.25 68.46L354.03 68.49L353.82 68.52L353.58 68.56L353.37 68.6L353.14 68.65L352.93 68.69L352.73 68.75L352.53 68.81L352.33 68.86L351.95 69L351.78 69.07L351.44 69.23L351.28 69.32L351.13 69.41L350.99 69.5L350.85 69.61L350.71 69.71L350.59 69.82L350.47 69.93L350.37 70.05L350.26 70.17L350.17 70.3L350.09 70.43L350.01 70.57L349.95 70.71L349.89 70.86L349.83 71.01L349.79 71.17L349.76 71.33L349.74 71.51L349.72 71.68L349.72 72.02L349.73 72.17L349.77 72.47L349.8 72.61L349.84 72.75L349.89 72.88L349.93 73.01L349.99 73.13L350.05 73.24L350.19 73.46L350.27 73.57L350.36 73.66L350.44 73.75L350.54 73.84L350.64 73.92L350.75 74L350.85 74.07L351.21 74.25L351.34 74.3L351.47 74.34L351.61 74.38L351.75 74.42L351.9 74.45L352.04 74.47L352.2 74.49L352.35 74.5L352.51 74.51L352.86 74.51L353.04 74.5L353.23 74.48L353.4 74.46L353.58 74.42L353.75 74.39L354.08 74.3L354.24 74.24L354.55 74.11L354.7 74.04L354.84 73.96L354.98 73.89L355.11 73.8L355.25 73.71L355.38 73.62L355.62 73.42L355.74 73.32L355.85 73.21L356.05 72.99L356.15 72.87L356.24 72.76L356.33 72.64L356.41 72.51L356.49 72.4L356.56 72.27L356.62 72.15L356.69 72.02L356.74 71.89L356.78 71.79L356.8 71.75L356.81 71.69L356.83 71.62L356.85 71.57L356.87 71.44L356.9 71.31L356.91 71.18L356.93 71.05L356.94 70.91L356.95 70.79L356.95 68.34L356 68.34L355.85 68.35Z" id="b2cIkaRTDx"></path><path d="M354.58 56.92L355.18 56.97L355.75 57.05L356.29 57.15L356.8 57.28L357.3 57.42L357.77 57.59L358.21 57.77L358.63 57.97L359.03 58.18L359.4 58.42L359.76 58.68L360.09 58.95L360.4 59.23L360.69 59.53L360.95 59.85L361.2 60.18L361.43 60.52L361.64 60.88L361.83 61.24L362 61.62L362.15 62.01L362.29 62.41L362.41 62.82L362.51 63.24L362.59 63.67L362.66 64.11L362.71 64.56L362.75 65.01L362.77 65.46L362.78 65.93L362.78 78.17L357.6 78.17L356.9 76.02L356.83 76.02L356.7 76.17L356.56 76.32L356.41 76.47L356.27 76.61L356.12 76.75L355.96 76.88L355.8 77.01L355.63 77.14L355.46 77.26L355.28 77.38L355.1 77.48L354.92 77.59L354.73 77.7L354.53 77.79L354.13 77.97L353.93 78.05L353.72 78.14L353.5 78.21L353.29 78.28L353.07 78.34L352.84 78.4L352.62 78.45L352.39 78.5L352.15 78.54L351.92 78.58L351.68 78.61L351.44 78.63L351.19 78.65L350.95 78.66L350.69 78.68L350.44 78.68L350.02 78.67L349.61 78.64L349.21 78.6L348.83 78.54L348.46 78.46L348.1 78.36L347.76 78.26L347.42 78.13L347.1 78L346.79 77.85L346.5 77.68L346.22 77.51L345.95 77.32L345.69 77.12L345.45 76.91L345.22 76.7L345.01 76.47L344.8 76.23L344.61 75.99L344.44 75.73L344.28 75.48L344.13 75.21L344 74.94L343.88 74.67L343.77 74.39L343.68 74.1L343.6 73.81L343.48 73.23L343.45 72.94L343.43 72.64L343.42 72.35L343.44 71.86L343.48 71.38L343.55 70.91L343.66 70.47L343.79 70.03L343.94 69.62L344.13 69.22L344.34 68.83L344.59 68.47L344.86 68.11L345.15 67.77L345.47 67.45L345.81 67.14L346.18 66.85L346.58 66.58L347 66.32L347.44 66.08L347.92 65.85L348.41 65.63L348.92 65.44L349.45 65.26L350.02 65.09L350.6 64.94L351.2 64.81L351.82 64.69L352.47 64.59L353.14 64.51L353.83 64.44L354.53 64.39L355.26 64.35L356.01 64.33L356.77 64.32L356.77 64.01L356.76 63.91L356.75 63.81L356.73 63.7L356.7 63.59L356.67 63.48L356.64 63.36L356.59 63.24L356.53 63.12L356.47 63.01L356.4 62.89L356.32 62.76L356.24 62.64L356.14 62.53L356.03 62.41L355.91 62.29L355.78 62.19L355.64 62.08L355.48 61.98L355.32 61.88L355.15 61.78L354.96 61.69L354.75 61.61L354.53 61.53L354.3 61.47L354.06 61.41L353.79 61.35L353.52 61.31L353.23 61.28L352.93 61.25L352.6 61.23L351.83 61.23L351.62 61.25L351.41 61.27L351.2 61.28L350.99 61.31L350.77 61.33L350.56 61.36L350.35 61.4L350.14 61.44L349.92 61.48L349.71 61.52L349.51 61.57L349.3 61.62L349.09 61.67L348.49 61.85L348.29 61.92L348.1 61.98L347.92 62.05L347.73 62.12L347.55 62.19L347.37 62.27L347.19 62.34L347.02 62.41L346.86 62.49L346.7 62.57L346.55 62.65L346.4 62.73L346.26 62.81L346.12 62.9L344.92 58.83L345.07 58.74L345.23 58.65L345.4 58.56L345.58 58.47L345.76 58.39L345.95 58.3L346.15 58.21L346.35 58.13L346.56 58.04L346.78 57.96L347.01 57.88L347.24 57.8L347.48 57.72L347.73 57.64L348.25 57.5L348.52 57.43L348.79 57.36L349.08 57.3L349.36 57.24L349.66 57.19L349.96 57.13L350.27 57.09L350.58 57.04L350.9 57.01L351.23 56.97L351.56 56.94L351.9 56.92L352.24 56.9L352.6 56.88L352.96 56.87L353.32 56.87L353.96 56.88L354.58 56.92ZM355.85 68.35L355.69 68.35L355.44 68.36L355.2 68.37L354.95 68.39L354.72 68.41L354.48 68.44L354.25 68.46L354.03 68.49L353.82 68.52L353.58 68.56L353.37 68.6L353.14 68.65L352.93 68.69L352.73 68.75L352.53 68.81L352.33 68.86L351.95 69L351.78 69.07L351.44 69.23L351.28 69.32L351.13 69.41L350.99 69.5L350.85 69.61L350.71 69.71L350.59 69.82L350.47 69.93L350.37 70.05L350.26 70.17L350.17 70.3L350.09 70.43L350.01 70.57L349.95 70.71L349.89 70.86L349.83 71.01L349.79 71.17L349.76 71.33L349.74 71.51L349.72 71.68L349.72 72.02L349.73 72.17L349.77 72.47L349.8 72.61L349.84 72.75L349.89 72.88L349.93 73.01L349.99 73.13L350.05 73.24L350.19 73.46L350.27 73.57L350.36 73.66L350.44 73.75L350.54 73.84L350.64 73.92L350.75 74L350.85 74.07L351.21 74.25L351.34 74.3L351.47 74.34L351.61 74.38L351.75 74.42L351.9 74.45L352.04 74.47L352.2 74.49L352.35 74.5L352.51 74.51L352.86 74.51L353.04 74.5L353.23 74.48L353.4 74.46L353.58 74.42L353.75 74.39L354.08 74.3L354.24 74.24L354.55 74.11L354.7 74.04L354.84 73.96L354.98 73.89L355.11 73.8L355.25 73.71L355.38 73.62L355.62 73.42L355.74 73.32L355.85 73.21L356.05 72.99L356.15 72.87L356.24 72.76L356.33 72.64L356.41 72.51L356.49 72.4L356.56 72.27L356.62 72.15L356.69 72.02L356.74 71.89L356.78 71.79L356.8 71.75L356.81 71.69L356.83 71.62L356.85 71.57L356.87 71.44L356.9 71.31L356.91 71.18L356.93 71.05L356.94 70.91L356.95 70.79L356.95 68.34L356 68.34L355.85 68.35Z" id="a7GIcpyJE"></path><path d="M380.36 69.79L380.35 69.96L380.33 70.13L380.31 70.3L380.28 70.46L380.25 70.62L380.2 70.78L380.15 70.92L380.1 71.04L380.04 71.16L379.98 71.28L379.92 71.4L379.85 71.51L379.78 71.63L379.7 71.75L379.62 71.86L379.54 71.98L379.45 72.09L379.35 72.2L379.25 72.31L379.15 72.42L379.05 72.52L378.93 72.62L378.81 72.72L378.69 72.81L378.57 72.9L378.44 72.99L378.3 73.07L378.16 73.14L378.02 73.21L377.87 73.28L377.71 73.34L377.56 73.39L377.39 73.44L377.22 73.48L377.05 73.51L376.88 73.54L376.69 73.56L376.51 73.58L376.31 73.58L376.08 73.57L375.85 73.56L375.62 73.53L375.41 73.49L375.2 73.44L375 73.38L374.81 73.31L374.63 73.22L374.46 73.14L374.3 73.03L374.14 72.92L373.99 72.79L373.85 72.66L373.71 72.52L373.59 72.37L373.47 72.21L373.36 72.04L373.26 71.86L373.16 71.67L373.07 71.47L373 71.26L372.92 71.04L372.85 70.82L372.8 70.58L372.75 70.34L372.7 70.09L372.66 69.83L372.63 69.56L372.61 69.29L372.59 69L372.58 68.71L372.58 68.41L372.58 57.47L366.36 57.47L366.36 69.56L366.36 69.87L366.37 70.16L366.38 70.45L366.4 70.73L366.42 71.01L366.45 71.29L366.48 71.55L366.51 71.82L366.55 72.07L366.59 72.32L366.64 72.56L366.69 72.8L366.75 73.03L366.81 73.26L366.87 73.48L366.94 73.7L367.01 73.91L367.1 74.11L367.17 74.32L367.26 74.51L367.35 74.7L367.43 74.89L367.53 75.07L367.63 75.25L367.72 75.42L367.83 75.59L367.94 75.76L368.05 75.92L368.16 76.07L368.28 76.22L368.4 76.37L368.52 76.51L368.65 76.65L368.78 76.78L368.91 76.9L369.05 77.02L369.19 77.14L369.33 77.26L369.47 77.37L369.62 77.47L369.78 77.57L369.93 77.66L370.09 77.75L370.25 77.84L370.41 77.91L370.58 77.99L370.75 78.06L370.92 78.13L371.1 78.19L371.28 78.25L371.46 78.3L371.64 78.35L371.83 78.4L372.01 78.44L372.2 78.48L372.4 78.51L372.59 78.54L372.79 78.57L372.99 78.59L373.19 78.61L373.39 78.62L373.6 78.63L373.8 78.64L374.01 78.64L374.2 78.64L374.38 78.63L374.55 78.63L374.72 78.62L374.9 78.6L375.07 78.59L375.24 78.57L375.4 78.55L375.56 78.53L375.72 78.49L375.88 78.47L376.03 78.43L376.18 78.4L376.33 78.36L376.48 78.32L376.62 78.28L376.89 78.18L377.17 78.09L377.42 77.98L377.67 77.88L377.91 77.76L378.14 77.65L378.36 77.53L378.57 77.4L378.77 77.27L378.97 77.14L379.15 77.01L379.33 76.87L379.5 76.73L379.66 76.59L379.81 76.44L379.95 76.29L380.09 76.15L380.22 76L380.33 75.86L380.45 75.73L380.56 75.6L380.65 75.47L380.74 75.35L380.82 75.23L381.62 78.17L386.66 78.17L386.66 57.48L380.36 57.48L380.36 69.61L380.36 69.79Z" id="b1ihEf2XnE"></path><path d="M380.36 69.79L380.35 69.96L380.33 70.13L380.31 70.3L380.28 70.46L380.25 70.62L380.2 70.78L380.15 70.92L380.1 71.04L380.04 71.16L379.98 71.28L379.92 71.4L379.85 71.51L379.78 71.63L379.7 71.75L379.62 71.86L379.54 71.98L379.45 72.09L379.35 72.2L379.25 72.31L379.15 72.42L379.05 72.52L378.93 72.62L378.81 72.72L378.69 72.81L378.57 72.9L378.44 72.99L378.3 73.07L378.16 73.14L378.02 73.21L377.87 73.28L377.71 73.34L377.56 73.39L377.39 73.44L377.22 73.48L377.05 73.51L376.88 73.54L376.69 73.56L376.51 73.58L376.31 73.58L376.08 73.57L375.85 73.56L375.62 73.53L375.41 73.49L375.2 73.44L375 73.38L374.81 73.31L374.63 73.22L374.46 73.14L374.3 73.03L374.14 72.92L373.99 72.79L373.85 72.66L373.71 72.52L373.59 72.37L373.47 72.21L373.36 72.04L373.26 71.86L373.16 71.67L373.07 71.47L373 71.26L372.92 71.04L372.85 70.82L372.8 70.58L372.75 70.34L372.7 70.09L372.66 69.83L372.63 69.56L372.61 69.29L372.59 69L372.58 68.71L372.58 68.41L372.58 57.47L366.36 57.47L366.36 69.56L366.36 69.87L366.37 70.16L366.38 70.45L366.4 70.73L366.42 71.01L366.45 71.29L366.48 71.55L366.51 71.82L366.55 72.07L366.59 72.32L366.64 72.56L366.69 72.8L366.75 73.03L366.81 73.26L366.87 73.48L366.94 73.7L367.01 73.91L367.1 74.11L367.17 74.32L367.26 74.51L367.35 74.7L367.43 74.89L367.53 75.07L367.63 75.25L367.72 75.42L367.83 75.59L367.94 75.76L368.05 75.92L368.16 76.07L368.28 76.22L368.4 76.37L368.52 76.51L368.65 76.65L368.78 76.78L368.91 76.9L369.05 77.02L369.19 77.14L369.33 77.26L369.47 77.37L369.62 77.47L369.78 77.57L369.93 77.66L370.09 77.75L370.25 77.84L370.41 77.91L370.58 77.99L370.75 78.06L370.92 78.13L371.1 78.19L371.28 78.25L371.46 78.3L371.64 78.35L371.83 78.4L372.01 78.44L372.2 78.48L372.4 78.51L372.59 78.54L372.79 78.57L372.99 78.59L373.19 78.61L373.39 78.62L373.6 78.63L373.8 78.64L374.01 78.64L374.2 78.64L374.38 78.63L374.55 78.63L374.72 78.62L374.9 78.6L375.07 78.59L375.24 78.57L375.4 78.55L375.56 78.53L375.72 78.49L375.88 78.47L376.03 78.43L376.18 78.4L376.33 78.36L376.48 78.32L376.62 78.28L376.89 78.18L377.17 78.09L377.42 77.98L377.67 77.88L377.91 77.76L378.14 77.65L378.36 77.53L378.57 77.4L378.77 77.27L378.97 77.14L379.15 77.01L379.33 76.87L379.5 76.73L379.66 76.59L379.81 76.44L379.95 76.29L380.09 76.15L380.22 76L380.33 75.86L380.45 75.73L380.56 75.6L380.65 75.47L380.74 75.35L380.82 75.23L381.62 78.17L386.66 78.17L386.66 57.48L380.36 57.48L380.36 69.61L380.36 69.79Z" id="i4UBXQAaAy"></path><path d="M327.86 57.47L327.86 62.18L330.77 62.18L330.77 70.6L330.77 70.86L330.78 71.11L330.78 71.37L330.79 71.61L330.81 71.85L330.83 72.09L330.85 72.32L330.87 72.56L330.9 72.78L330.93 73L330.97 73.22L331.01 73.43L331.05 73.64L331.09 73.85L331.14 74.04L331.19 74.24L331.25 74.43L331.31 74.62L331.37 74.8L331.44 74.97L331.51 75.15L331.58 75.32L331.66 75.48L331.74 75.64L331.82 75.79L331.91 75.94L332 76.09L332.1 76.23L332.19 76.37L332.3 76.5L332.4 76.63L332.51 76.74L332.61 76.85L332.72 76.95L332.82 77.05L332.93 77.15L333.05 77.24L333.17 77.33L333.29 77.43L333.42 77.52L333.55 77.6L333.69 77.69L333.83 77.76L333.97 77.85L334.12 77.92L334.27 77.99L334.43 78.06L334.58 78.13L334.74 78.19L334.91 78.25L335.07 78.31L335.24 78.36L335.42 78.41L335.6 78.45L335.78 78.49L335.96 78.53L336.14 78.57L336.33 78.6L336.52 78.62L336.72 78.64L336.91 78.66L337.11 78.67L337.31 78.68L337.52 78.68L337.85 78.68L338.16 78.66L338.46 78.65L338.72 78.63L338.97 78.6L339.21 78.57L339.42 78.54L339.62 78.49L339.82 78.45L340 78.41L340.17 78.35L340.33 78.3L340.65 78.19L340.97 78.07L340.97 73.26L340.88 73.29L340.78 73.32L340.65 73.35L340.49 73.38L340.31 73.41L340.11 73.42L339.9 73.44L339.67 73.44L339.46 73.44L339.27 73.43L339.09 73.41L338.91 73.37L338.75 73.34L338.6 73.3L338.45 73.24L338.31 73.18L338.18 73.12L338.06 73.04L337.94 72.95L337.84 72.87L337.74 72.77L337.64 72.66L337.56 72.55L337.48 72.43L337.41 72.3L337.34 72.16L337.28 72.02L337.22 71.87L337.18 71.71L337.13 71.55L337.1 71.38L337.06 71.2L337.04 71.01L337.01 70.82L336.99 70.62L336.97 70.41L336.96 70.2L336.95 69.98L336.95 69.75L336.95 69.52L336.95 62.18L340.9 62.18L340.9 57.47L336.95 57.47L336.95 50.55L330.77 50.55L330.77 57.47L327.86 57.47Z" id="e3lsgF2DQf"></path><path d="M327.86 57.47L327.86 62.18L330.77 62.18L330.77 70.6L330.77 70.86L330.78 71.11L330.78 71.37L330.79 71.61L330.81 71.85L330.83 72.09L330.85 72.32L330.87 72.56L330.9 72.78L330.93 73L330.97 73.22L331.01 73.43L331.05 73.64L331.09 73.85L331.14 74.04L331.19 74.24L331.25 74.43L331.31 74.62L331.37 74.8L331.44 74.97L331.51 75.15L331.58 75.32L331.66 75.48L331.74 75.64L331.82 75.79L331.91 75.94L332 76.09L332.1 76.23L332.19 76.37L332.3 76.5L332.4 76.63L332.51 76.74L332.61 76.85L332.72 76.95L332.82 77.05L332.93 77.15L333.05 77.24L333.17 77.33L333.29 77.43L333.42 77.52L333.55 77.6L333.69 77.69L333.83 77.76L333.97 77.85L334.12 77.92L334.27 77.99L334.43 78.06L334.58 78.13L334.74 78.19L334.91 78.25L335.07 78.31L335.24 78.36L335.42 78.41L335.6 78.45L335.78 78.49L335.96 78.53L336.14 78.57L336.33 78.6L336.52 78.62L336.72 78.64L336.91 78.66L337.11 78.67L337.31 78.68L337.52 78.68L337.85 78.68L338.16 78.66L338.46 78.65L338.72 78.63L338.97 78.6L339.21 78.57L339.42 78.54L339.62 78.49L339.82 78.45L340 78.41L340.17 78.35L340.33 78.3L340.65 78.19L340.97 78.07L340.97 73.26L340.88 73.29L340.78 73.32L340.65 73.35L340.49 73.38L340.31 73.41L340.11 73.42L339.9 73.44L339.67 73.44L339.46 73.44L339.27 73.43L339.09 73.41L338.91 73.37L338.75 73.34L338.6 73.3L338.45 73.24L338.31 73.18L338.18 73.12L338.06 73.04L337.94 72.95L337.84 72.87L337.74 72.77L337.64 72.66L337.56 72.55L337.48 72.43L337.41 72.3L337.34 72.16L337.28 72.02L337.22 71.87L337.18 71.71L337.13 71.55L337.1 71.38L337.06 71.2L337.04 71.01L337.01 70.82L336.99 70.62L336.97 70.41L336.96 70.2L336.95 69.98L336.95 69.75L336.95 69.52L336.95 62.18L340.9 62.18L340.9 57.47L336.95 57.47L336.95 50.55L330.77 50.55L330.77 57.47L327.86 57.47Z" id="ciLP3dbCC"></path><path d="M378.61 56.13L384.03 50.55L378.01 50.55L374.17 56.13L378.61 56.13Z" id="bw30Fwx0K"></path><path d="M378.61 56.13L384.03 50.55L378.01 50.55L374.17 56.13L378.61 56.13Z" id="b1FLUjoQvq"></path><path d="M91.34 92.15L9.46 92.15L9.46 12.72L91.34 12.72L91.34 92.15Z" id="bA0Iwv39D"></path><path d="M91.34 92.15L9.46 92.15L9.46 12.72L91.34 12.72L91.34 92.15Z" id="aZT9CYMBR"></path><path d="M33.46 61.19L65.19 40.05L47.55 28.3L38.74 34.19L45.81 38.85L29.94 49.44L15.85 40.03L47.55 18.91L79.28 40.03L40.51 65.89L33.46 61.19Z" id="h4h9SJlsLY"></path><path d="M33.46 61.19L65.19 40.05L47.55 28.3L38.74 34.19L45.81 38.85L29.94 49.44L15.85 40.03L47.55 18.91L79.28 40.03L40.51 65.89L33.46 61.19Z" id="h1P4M4Yio"></path><path d="M47.55 72.93L56.38 67.05L49.31 62.33L65.16 51.76L79.28 61.19L47.55 82.32L15.85 61.19L54.6 35.35L61.64 40.05L29.94 61.19L47.55 72.93Z" id="b2QxSIYZpm"></path><path d="M47.55 72.93L56.38 67.05L49.31 62.33L65.16 51.76L79.28 61.19L47.55 82.32L15.85 61.19L54.6 35.35L61.64 40.05L29.94 61.19L47.55 72.93Z" id="g7mMuKDPq"></path></defs><g><g><use xlink:href="#b4nrcUefN" opacity="1" fill="#6dbbfd" fill-opacity="1"></use><g><use xlink:href="#b4nrcUefN" opacity="1" fill-opacity="0" stroke="#000000" stroke-width="1" stroke-opacity="0"></use></g></g><g><use xlink:href="#b3ITf6qij" opacity="1" fill="#000000" fill-opacity="0"></use><g><use xlink:href="#b3ITf6qij" opacity="1" fill-opacity="0" stroke="#6dbbfd" stroke-width="0.75" stroke-opacity="1"></use></g></g><g><use xlink:href="#bWJ81nxvH" opacity="1" fill="#016bbf" fill-opacity="1"></use><g><use xlink:href="#bWJ81nxvH" opacity="1" fill-opacity="0" stroke="#000000" stroke-width="1" stroke-opacity="0"></use></g></g><g><use xlink:href="#e1VMBhKgTg" opacity="1" fill="#000000" fill-opacity="0"></use><g><use xlink:href="#e1VMBhKgTg" opacity="1" fill-opacity="0" stroke="#016bbf" stroke-width="0.75" stroke-opacity="1"></use></g></g><g><use xlink:href="#doxI6NCok" opacity="1" fill="#016bbf" fill-opacity="1"></use><g><use xlink:href="#doxI6NCok" opacity="1" fill-opacity="0" stroke="#000000" stroke-width="1" stroke-opacity="0"></use></g></g><g><use xlink:href="#b1nT3PFZej" opacity="1" fill="#000000" fill-opacity="0"></use><g><use xlink:href="#b1nT3PFZej" opacity="1" fill-opacity="0" stroke="#016bbf" stroke-width="0.75" stroke-opacity="1"></use></g></g><g><use xlink:href="#a84LzJVEW" opacity="1" fill="#6dbbfd" fill-opacity="1"></use><g><use xlink:href="#a84LzJVEW" opacity="1" fill-opacity="0" stroke="#000000" stroke-width="1" stroke-opacity="0"></use></g></g><g><use xlink:href="#b21C8mFqzc" opacity="1" fill="#000000" fill-opacity="0"></use><g><use xlink:href="#b21C8mFqzc" opacity="1" fill-opacity="0" stroke="#6dbbfd" stroke-width="0.75" stroke-opacity="1"></use></g></g><g><use xlink:href="#b7KHLOC5n" opacity="1" fill="#6dbbfd" fill-opacity="1"></use><g><use xlink:href="#b7KHLOC5n" opacity="1" fill-opacity="0" stroke="#000000" stroke-width="1" stroke-opacity="0"></use></g></g><g><use xlink:href="#aGxEusi8p" opacity="1" fill="#000000" fill-opacity="0"></use><g><use xlink:href="#aGxEusi8p" opacity="1" fill-opacity="0" stroke="#6dbbfd" stroke-width="0.75" stroke-opacity="1"></use></g></g><g><use xlink:href="#bpeZVG5z" opacity="1" fill="#016bbf" fill-opacity="1"></use><g><use xlink:href="#bpeZVG5z" opacity="1" fill-opacity="0" stroke="#000000" stroke-width="1" stroke-opacity="0"></use></g></g><g><use xlink:href="#ds0FZ4ddf" opacity="1" fill="#000000" fill-opacity="0"></use><g><use xlink:href="#ds0FZ4ddf" opacity="1" fill-opacity="0" stroke="#016bbf" stroke-width="0.75" stroke-opacity="1"></use></g></g><g><use xlink:href="#cm0NFlsO" opacity="1" fill="#e41836" fill-opacity="1"></use><g><use xlink:href="#cm0NFlsO" opacity="1" fill-opacity="0" stroke="#000000" stroke-width="1" stroke-opacity="0"></use></g></g><g><use xlink:href="#a1gnS5n3Fs" opacity="1" fill="#000000" fill-opacity="0"></use><g><use xlink:href="#a1gnS5n3Fs" opacity="1" fill-opacity="0" stroke="#000000" stroke-width="1" stroke-opacity="0"></use></g></g><g><use xlink:href="#c7op3MUh" opacity="1" fill="#ffffff" fill-opacity="1"></use><g><use xlink:href="#c7op3MUh" opacity="1" fill-opacity="0" stroke="#000000" stroke-width="1" stroke-opacity="0"></use></g></g><g><use xlink:href="#fI7qyE3Qn" opacity="1" fill="#000000" fill-opacity="0"></use><g><use xlink:href="#fI7qyE3Qn" opacity="1" fill-opacity="0" stroke="#000000" stroke-width="1" stroke-opacity="0"></use></g></g><g><use xlink:href="#a7ZOqPg16" opacity="1" fill="#ffffff" fill-opacity="1"></use><g><use xlink:href="#a7ZOqPg16" opacity="1" fill-opacity="0" stroke="#000000" stroke-width="1" stroke-opacity="0"></use></g></g><g><use xlink:href="#clpJfAwZY" opacity="1" fill="#000000" fill-opacity="0"></use><g><use xlink:href="#clpJfAwZY" opacity="1" fill-opacity="0" stroke="#000000" stroke-width="1" stroke-opacity="0"></use></g></g><g><use xlink:href="#a10SZD5NkJ" opacity="1" fill="#ffffff" fill-opacity="1"></use><g><use xlink:href="#a10SZD5NkJ" opacity="1" fill-opacity="0" stroke="#000000" stroke-width="1" stroke-opacity="0"></use></g></g><g><use xlink:href="#c3kYl0OLtP" opacity="1" fill="#000000" fill-opacity="0"></use><g><use xlink:href="#c3kYl0OLtP" opacity="1" fill-opacity="0" stroke="#000000" stroke-width="1" stroke-opacity="0"></use></g></g><g><use xlink:href="#b2CVeWYuA2" opacity="1" fill="#1a5493" fill-opacity="1"></use><g><use xlink:href="#b2CVeWYuA2" opacity="1" fill-opacity="0" stroke="#000000" stroke-width="1" stroke-opacity="0"></use></g></g><g><use xlink:href="#a3ZbEfJL9P" opacity="1" fill="#000000" fill-opacity="0"></use><g><use xlink:href="#a3ZbEfJL9P" opacity="1" fill-opacity="0" stroke="#000000" stroke-width="1" stroke-opacity="0"></use></g></g><g><use xlink:href="#bGLSwiDqj" opacity="1" fill="#fff212" fill-opacity="1"></use><g><use xlink:href="#bGLSwiDqj" opacity="1" fill-opacity="0" stroke="#000000" stroke-width="1" stroke-opacity="0"></use></g></g><g><use xlink:href="#beaf5V4MY" opacity="1" fill="#000000" fill-opacity="0"></use><g><use xlink:href="#beaf5V4MY" opacity="1" fill-opacity="0" stroke="#000000" stroke-width="1" stroke-opacity="0"></use></g></g><g><use xlink:href="#b2cIkaRTDx" opacity="1" fill="#fff212" fill-opacity="1"></use><g><use xlink:href="#b2cIkaRTDx" opacity="1" fill-opacity="0" stroke="#000000" stroke-width="1" stroke-opacity="0"></use></g></g><g><use xlink:href="#a7GIcpyJE" opacity="1" fill="#000000" fill-opacity="0"></use><g><use xlink:href="#a7GIcpyJE" opacity="1" fill-opacity="0" stroke="#000000" stroke-width="1" stroke-opacity="0"></use></g></g><g><use xlink:href="#b1ihEf2XnE" opacity="1" fill="#fff212" fill-opacity="1"></use><g><use xlink:href="#b1ihEf2XnE" opacity="1" fill-opacity="0" stroke="#000000" stroke-width="1" stroke-opacity="0"></use></g></g><g><use xlink:href="#i4UBXQAaAy" opacity="1" fill="#000000" fill-opacity="0"></use><g><use xlink:href="#i4UBXQAaAy" opacity="1" fill-opacity="0" stroke="#000000" stroke-width="1" stroke-opacity="0"></use></g></g><g><use xlink:href="#e3lsgF2DQf" opacity="1" fill="#fff212" fill-opacity="1"></use><g><use xlink:href="#e3lsgF2DQf" opacity="1" fill-opacity="0" stroke="#000000" stroke-width="1" stroke-opacity="0"></use></g></g><g><use xlink:href="#ciLP3dbCC" opacity="1" fill="#000000" fill-opacity="0"></use><g><use xlink:href="#ciLP3dbCC" opacity="1" fill-opacity="0" stroke="#000000" stroke-width="1" stroke-opacity="0"></use></g></g><g><use xlink:href="#bw30Fwx0K" opacity="1" fill="#fff212" fill-opacity="1"></use><g><use xlink:href="#bw30Fwx0K" opacity="1" fill-opacity="0" stroke="#000000" stroke-width="1" stroke-opacity="0"></use></g></g><g><use xlink:href="#b1FLUjoQvq" opacity="1" fill="#000000" fill-opacity="0"></use><g><use xlink:href="#b1FLUjoQvq" opacity="1" fill-opacity="0" stroke="#000000" stroke-width="1" stroke-opacity="0"></use></g></g><g><use xlink:href="#bA0Iwv39D" opacity="1" fill="#f9dc30" fill-opacity="1"></use><g><use xlink:href="#bA0Iwv39D" opacity="1" fill-opacity="0" stroke="#000000" stroke-width="1" stroke-opacity="0"></use></g></g><g><use xlink:href="#aZT9CYMBR" opacity="1" fill="#000000" fill-opacity="0"></use><g><use xlink:href="#aZT9CYMBR" opacity="1" fill-opacity="0" stroke="#000000" stroke-width="1" stroke-opacity="0"></use></g></g><g><use xlink:href="#h4h9SJlsLY" opacity="1" fill="#1e447f" fill-opacity="1"></use><g><use xlink:href="#h4h9SJlsLY" opacity="1" fill-opacity="0" stroke="#000000" stroke-width="1" stroke-opacity="0"></use></g></g><g><use xlink:href="#h1P4M4Yio" opacity="1" fill="#000000" fill-opacity="0"></use><g><use xlink:href="#h1P4M4Yio" opacity="1" fill-opacity="0" stroke="#000000" stroke-width="1" stroke-opacity="0"></use></g></g><g><use xlink:href="#b2QxSIYZpm" opacity="1" fill="#1e447f" fill-opacity="1"></use><g><use xlink:href="#b2QxSIYZpm" opacity="1" fill-opacity="0" stroke="#000000" stroke-width="1" stroke-opacity="0"></use></g></g><g><use xlink:href="#g7mMuKDPq" opacity="1" fill="#000000" fill-opacity="0"></use><g><use xlink:href="#g7mMuKDPq" opacity="1" fill-opacity="0" stroke="#000000" stroke-width="1" stroke-opacity="0"></use></g></g></g></svg>