<?xml version="1.0" encoding="utf-8"?>
<!-- Generator: Adobe Illustrator 22.0.1, SVG Export Plug-In . SVG Version: 6.00 Build 0)  -->
<svg version="1.1" id="Layer_1" xmlns="http://www.w3.org/2000/svg" xmlns:xlink="http://www.w3.org/1999/xlink" x="0px" y="0px"
	 viewBox="0 0 512 96" style="enable-background:new 0 0 512 96;" xml:space="preserve">
<style type="text/css">
	.st0{fill:#73CF11;}
	.st1{fill:#E5E5E5;}
	.st2{fill:#FFFFFF;}
</style>
<rect y="0" class="st0" width="96" height="96"/>
<rect x="104" y="0" class="st0" width="96" height="96"/>
<rect x="208" y="0" class="st0" width="96" height="96"/>
<rect x="312" y="0" class="st0" width="96" height="96"/>
<rect x="416" y="0" class="st1" width="96" height="96"/>
<g>
	<path class="st2" d="M48,64.7L62.6,61l6.1,18.8L48,64.7z M81.6,40.4H55.9L48,16.2l-7.9,24.2H14.4l20.8,15l-7.9,24.2l20.8-15
		l12.8-9.2L81.6,40.4L81.6,40.4L81.6,40.4L81.6,40.4z"/>
</g>
<g>
	<path class="st2" d="M152,64.7l14.6-3.7l6.1,18.8L152,64.7z M185.6,40.4h-25.7L152,16.2l-7.9,24.2h-25.7l20.8,15l-7.9,24.2l20.8-15
		l12.8-9.2L185.6,40.4L185.6,40.4L185.6,40.4L185.6,40.4z"/>
</g>
<g>
	<path class="st2" d="M256,64.7l14.6-3.7l6.1,18.8L256,64.7z M289.6,40.4h-25.7L256,16.2l-7.9,24.2h-25.7l20.8,15l-7.9,24.2l20.8-15
		l12.8-9.2L289.6,40.4L289.6,40.4L289.6,40.4L289.6,40.4z"/>
</g>
<g>
	<path class="st2" d="M360,64.7l14.6-3.7l6.1,18.8L360,64.7z M393.6,40.4h-25.7L360,16.2l-7.9,24.2h-25.7l20.8,15l-7.9,24.2l20.8-15
		l12.8-9.2L393.6,40.4L393.6,40.4L393.6,40.4L393.6,40.4z"/>
</g>
<g>
	<path class="st2" d="M464,64.7l14.6-3.7l6.1,18.8L464,64.7z M497.6,40.4h-25.7L464,16.2l-7.9,24.2h-25.7l20.8,15l-7.9,24.2l20.8-15
		l12.8-9.2L497.6,40.4L497.6,40.4L497.6,40.4L497.6,40.4z"/>
</g>
</svg>
