<svg enable-background="new 0 0 1573.8 1224.9" viewBox="0 0 1573.8 1224.9" xmlns="http://www.w3.org/2000/svg"><path d="m452 158.4c-47.2-1.2-84.6-40.4-83.4-87.6.2-7.3 1.3-14.6 3.3-21.6-48.1-24.5-105.7-21.5-151 8-17.3 11.3-32.1 26-43.5 43.2-33.3 50.5-33.3 116 .1 166.5 12.2 18.4 28.3 33.8 47.1 45.4 48.1 29.3 108.5 29.5 156.7.3 21.1-12.8 38.8-30.6 51.5-51.8 14-23.3 21.3-50.1 21.3-77.3 0-8.4-.7-16.8-2.1-25.1z" fill="#c3c4c7"/><path d="m452.1 158.4c13.9 82.2-41.5 160.2-123.7 174.1s-160.2-41.5-174.1-123.7c-13.9-82.3 41.5-160.2 123.7-174.1 32-5.4 65-.4 93.9 14.4 1.6-5.5 3.7-10.8 6.4-15.9-23.3-11.7-49-17.7-75-17.7-92.6 0-168 75.3-168 168s75.3 168 168 168 168-75.3 168-168c0-8.8-.7-17.6-2.1-26.4-5 .9-10 1.3-15 1.3-.7.1-1.5 0-2.1 0z" fill="#004e6e"/><path d="m1092.7 515.9c20.9 71.2 136.2 73.9 161.6 3.9l1.4-3.9 1 .2c-8-6.6-16.4-24.4-11.2-71.5l1.2-28.1c30.5-22.8 60.6-62.9 75.7-132.1 0 0 21.7-187.8-70.8-213.9-239.5-67.6-210.8 158.4-210.8 158.4 0 78.5 29.2 147.4 66.6 185.2l.7 64.6s2.1 15.5-17.1 37.6z" fill="#c3c4c7"/><path d="m1552.6 882.7c-16.9-178.2-131.4-332-295.9-366.6l-1-.2-1.4 3.9c-25.4 70.1-140.7 67.3-161.6-3.9l-1.9.4c-146.9 27.5-252.2 180.2-252.2 371.3l-.3 47h58.9c32.3 0 63.3 13.2 85.6 36.6 7.9 8.2 12 19.4 11.3 30.8l-5.3 87.9-151.4-16.5-.2 24.9h721.7c-.1-.1 18 40.9-6.3-215.6z" fill="#3895ba"/><path d="m1044.9 188.8c3 28 3.5 55.9 7.7 83.4 3.8 27.5 10 54.8 20.1 80.4 10 25.4 24.3 49.6 45.3 65.7 10.4 7.9 22.4 13.5 35.2 16.2 13 2.5 26.3 2.6 39.3.2 13.1-2.4 25.8-6.9 37.4-13.4 11.7-6.7 22.4-15 31.8-24.6 19-19.3 33.4-43.3 44.1-68.6 21.2-51.1 29.2-107 33.1-163 .1-1.2 1.1-2.1 2.3-2 1.1.1 1.9.9 2 2 1.9 28.4.9 57-3 85.2-2.1 14.2-4.9 28.2-8.4 42.1-3.7 13.9-8.3 27.5-13.8 40.8-11.1 26.5-26 52-46.5 73.1-10.3 10.6-22 19.7-34.7 27.2-13 7.4-27.1 12.5-41.7 15.3-14.7 2.5-29.9 3-44.8-.1-14.9-3.3-28.8-9.8-40.8-19.1-24-18.7-39-45.1-49.4-71.9-10.4-27-16.5-55.2-20.3-83.5-3.6-28.3-6.1-56.8-3.2-85.2.3-2.4 2.4-4.1 4.7-3.8 1.8 0 3.4 1.5 3.6 3.6z" fill="#004e6e"/><path d="m1256.4 165.8c14.8 27.8 14 71.4 11 101.5-2 20.3 9.5 39.5 28.4 47.3l21.2 11.1c22.2-51.3 41.3-106.6 39-154-33.3-.1-66.6-2.1-99.6-5.9z" fill="#004e6e"/><path d="m720.8 899.2-17.7-309.2c-2.2-37.9-33.5-67.5-71.5-67.5h-487.4c-39.5 0-71.6 32-71.6 71.6 0 1.4 0 2.7.1 4.1l17.7 309.2c2.2 37.9 33.5 67.5 71.5 67.5h121.3v-17.1h-121.3c-28.9 0-52.8-22.6-54.4-51.4l-17.8-309.3c-1.7-30.1 21.3-55.8 51.3-57.6 1-.1 2.1-.1 3.1-.1h487.4c28.9 0 52.8 22.6 54.5 51.4l17.7 309.2c1.7 30.1-21.3 55.8-51.3 57.6-1 .1-2.1.1-3.1.1h-148.1v17.1h148.1c39.5 0 71.6-32 71.6-71.6 0-1.3 0-2.7-.1-4z" fill="#c3c4c7"/><path d="m498.7 1106.8h-212.3c-4.7 0-8.5-3.8-8.5-8.5v-289.3c0-16.4 13.3-29.7 29.7-29.7h191.2c4.7 0 8.5 3.8 8.5 8.5v310.5c0 4.6-3.9 8.5-8.6 8.5zm-203.8-17.1h195.3v-293.4h-182.7c-7 0-12.7 5.7-12.7 12.7z" fill="#c3c4c7"/><path d="m989.6 1111.6h-367.5v-26.7c0-22 23.6-39.2 50.7-36.9l316.8 24.8z" fill="#dcdcde"/><path d="m807.4 1047.3c-9.1-5.5-18-11.4-26.6-17.6s-17.2-12.4-25.7-18.8l2.4.9c-16-.7-32-1.1-47.9-2l-47.9-2.6 3-7.4c12.8 11.6 25.7 23.2 38 35.3 1.1 1.1 1.1 2.9 0 4-1 1-2.6 1.1-3.8.2-13.6-10.7-26.7-22-39.9-33.2-1.8-1.5-2-4.2-.5-6 .8-1 2.1-1.5 3.4-1.5h.1l47.9 1.9c16 .6 31.9 1.7 47.9 2.5.9 0 1.7.3 2.4.9 8.4 6.4 16.8 12.9 25.1 19.6 8.2 6.7 16.3 13.6 24.1 20.9.7.7.8 1.8.1 2.6-.5.6-1.4.7-2.1.3zm-94.9-82c8-.9 16-1.2 24.1-1.1 8-.1 16 .5 24 .7 16 .5 32 1.2 47.9 2.2h.1c1.7.1 3.1 1.1 3.8 2.7 9.5 22 19.1 43.8 27.4 66.3.6 1.5-.2 3.1-1.7 3.7-1.4.5-2.9-.1-3.5-1.4-11-21.3-20.6-43.2-30.4-65l3.9 2.7c-16-.5-32-1.2-47.9-2.2-8-.5-16-.7-23.9-1.6-8-.6-16-1.7-23.8-3.3-1-.2-1.6-1.1-1.4-2.1 0-.9.6-1.5 1.4-1.6zm158-11.9c1.7 7 1.9 14 1.8 21s-.2 13.9-.5 20.9l-1.2 20.9c-.3 7-1 14-2.3 20.8-.3 1.6-1.8 2.6-3.4 2.3-1.2-.2-2.2-1.3-2.3-2.5-.7-7-1-14-.7-20.9l.4-20.9c.3-7 .6-13.9 1.1-20.9s1.1-13.9 3.4-20.8c.3-1 1.4-1.5 2.4-1.2.7.1 1.1.6 1.3 1.3zm59.5 13.1c-1.2 6.8-3.8 12.9-6.6 18.9s-5.7 12-8.6 17.9l-9.2 17.6c-3 6-6.4 11.7-10.3 17.1-1 1.3-2.8 1.6-4 .6-1-.7-1.4-2-1-3.1 2.1-6.3 4.6-12.5 7.6-18.5l8.6-18c3-5.9 6-11.8 9.2-17.6s6.5-11.6 11.2-16.6c.7-.8 1.9-.8 2.7-.1.3.5.5 1.1.4 1.8zm-20.2 77c4.1-6 9.2-10.9 14.5-15.6s10.5-9.3 15.9-13.8l16.3-13.3c5.4-4.6 11.1-8.7 17.1-12.5 1.4-.8 3.1-.4 4 1 .7 1.1.5 2.4-.3 3.4-4.7 5.3-9.7 10.2-15.1 14.7l-15.9 13.9c-5.4 4.5-10.8 9-16.3 13.3s-11.1 8.6-17.8 11.6c-.9.4-2 0-2.5-.9-.3-.5-.2-1.2.1-1.8zm655.5 181.4c-4.7 0-8.5-3.8-8.5-8.5v-105.1h-1539.7v105.1c0 4.7-3.8 8.5-8.5 8.5s-8.5-3.8-8.5-8.5v-113.6c0-4.7 3.8-8.5 8.5-8.5h1556.8c4.7 0 8.5 3.8 8.5 8.5v113.6c-.1 4.7-3.9 8.5-8.6 8.5z" fill="#c3c4c7"/><g fill="#004e6e"><path d="m1157.6 260c1.9 10.2 3 20.5 3.2 30.8.1 5.1.1 10.3-.2 15.4-.2 5.2-.7 10.3-1.6 15.4-.5 2.6-2.9 4.3-5.5 3.8-1.9-.3-3.5-1.9-3.8-3.8-.8-5.1-1.4-10.3-1.6-15.4-.3-5.1-.3-10.3-.2-15.4.2-10.4 1.2-20.7 3.2-30.8.4-1.8 2.1-2.9 3.9-2.5 1.4.3 2.3 1.3 2.6 2.5z"/><path d="m1086.1 251.2h19.6c.7 0 1.3.6 1.3 1.3v37c0 .7-.6 1.3-1.3 1.3h-19.6c-.7 0-1.3-.6-1.3-1.3v-37c0-.7.6-1.3 1.3-1.3z"/><path d="m1200.6 251.2h19.6c.7 0 1.3.6 1.3 1.3v37c0 .7-.6 1.3-1.3 1.3h-19.6c-.7 0-1.3-.6-1.3-1.3v-37c0-.7.6-1.3 1.3-1.3z"/><path d="m1156.8 388.9c-11.7 0-22.6-4.8-28.3-12.6-2.1-2.8-1.5-6.9 1.4-8.9 2.8-2.1 6.9-1.5 8.9 1.4 3.5 4.7 11.2 7.7 19.2 7.3 7.2-.3 12.9-3.1 15.7-7.7 1.8-3 5.8-4 8.8-2.2s4 5.8 2.2 8.8c0 0-.1.1-.1.1-5.1 8.3-14.6 13.3-26.1 13.7-.5.1-1.1.1-1.7.1zm44.9-190.2c4.7-3.6 9.4-4.1 13.9-4.5 4.4-.2 8.8.2 13.1 1.3 4.2 1.1 8.4 2.3 12.4 4.5 4.2 2.1 7.8 5.2 10.6 9 1.3 2 .7 4.7-1.3 5.9-1.4.9-3.2.9-4.6.1l-.4-.3c-2.9-1.7-5.9-3.1-9.1-4.2-3.4-1.1-6.8-2-10.3-2.7-3.5-.6-7.1-1.3-10.6-1.6-3.1-.4-6.2-.5-9.3-.2l-1.6.1c-2.3.2-4.3-1.5-4.4-3.8-.1-1.4.5-2.7 1.6-3.6zm-96 7.3c-3.1-.2-6.2-.2-9.3.2-3.5.3-7 1-10.6 1.6-3.5.7-6.9 1.6-10.3 2.7-3.2 1.1-6.2 2.5-9.1 4.2l-.4.3c-2 1.2-4.7.6-5.9-1.4-.9-1.4-.8-3.2.1-4.6 2.7-3.8 6.4-6.9 10.6-9 3.9-2.2 8.2-3.4 12.4-4.5 4.3-1.1 8.7-1.5 13.1-1.3 4.4.4 9.2.9 13.9 4.5 1.8 1.4 2.2 4 .8 5.8-.8 1.1-2.2 1.7-3.6 1.6z"/></g><path d="m1015.1 136.2c25.5-173.8 341-167.8 341 33.7" fill="#3895ba"/><path d="m1369.4 171.1c-35.7-4.2-71.5-7.5-107.3-10.9l-61.4-5.6c-.1-.5-.5-.9-.9-1.2-20.7-10.5-42-19.7-63.8-27.5s-44.1-14.8-66.9-19.8c-22.9-4.6-46.5-7.5-70.2-4.9-12 1.2-23.7 4.5-34.5 9.9-10.8 5.5-20.2 13.5-27.2 23.4-.9 1.3-.6 3.1.7 4 1.1.7 2.5.7 3.5-.1 35 4.9 70.1 8.4 105.2 11.7l107.4 9.8 107.5 9.1c35.8 2.9 71.7 5.9 107.6 8 1.6.1 2.9-1.2 2.9-2.7-.2-1.7-1.2-2.9-2.6-3.2z" fill="#c3c4c7"/><path d="m1343.2 777.2c4.2 12.7 4.2 25.8 5.8 38.8l3.8 39c2.5 26 5.2 52 7.4 78 2.4 26 4.5 52.1 6.5 78.1s4.1 52.1 2.6 78.5c-.1 1.2-1.1 2.1-2.3 2-.9-.1-1.7-.7-2-1.6-6.2-25.7-9-51.7-11.5-77.7s-5.3-52-7.6-78c-2.5-26-4.5-52.1-6.7-78.1l-3.3-39.1c-.8-13-3.1-26-1.3-39.2.3-2.4 2.5-4.1 4.9-3.7 1.8.2 3.2 1.4 3.7 3zm-380.5 26.8c3.5-3.1 7-2 10.5-2.5l10.5-.5c7-.2 14-.7 21.1-.6 7-.1 14.1 0 21.1.2s14.1.4 21.2 4.1c1.2.6 1.7 2.1 1 3.3-.2.4-.6.8-1 1-7 4-14 4.5-21 4.8s-14 .8-21.1.9c-7 .3-14.1.1-21.1.1l-10.5-.2c-3.5-.3-7 .9-10.6-2.1-2.4-2-2.7-5.6-.7-7.9.2-.2.4-.4.6-.6z" fill="#004e6e"/><path d="m266.8 138.7 41.4 51.9-80.3 70.9" fill="#c3c4c7"/><path d="m315.7 184.8c-6.9-8.8-14.1-17.1-21.2-25.7l-10.6-12.8c-3.8-4.1-6.2-9.2-12.7-11.1-.7-.2-1.5-.3-2.3-.3-3.9.2-6.8 3.5-6.6 7.4.4 6.8 4.9 10.3 8 14.9l10.1 13.2c4.9 6.4 9.7 12.8 14.7 19.2-11.1 9.9-22 19.8-32.9 29.9-6.6 6.1-13.2 12-19.3 18.6-6.3 6.5-12 13.7-16.8 21.4-.8 1.4-.3 3.3 1.1 4.1.8.5 1.8.5 2.7.2 8.2-3.9 16-8.6 23.3-14.1 7.3-5.3 14-11.1 20.8-16.9 13.7-11.4 27.2-23.1 40.6-34.9 3.7-3.4 4.2-9.2 1.1-13.1z" fill="#004e6e"/><path d="m173.2 419.5h260.2" fill="#fff"/><path d="m173.2 416.6c10.8-2 21.7-1.3 32.5-1.5l32.5-.2c21.7 0 43.4-.4 65-.2l65 .4c21.7 0 43.4.5 65 2.9.8.1 1.3.8 1.3 1.6-.1.7-.6 1.2-1.3 1.3-21.7 2.5-43.4 3-65 2.9l-65 .4c-21.7.2-43.4-.1-65-.2l-32.5-.2c-10.8-.2-21.7.5-32.5-1.5-1.6-.3-2.6-1.8-2.3-3.4.2-1.2 1.1-2.1 2.3-2.3z" fill="#c3c4c7"/><path d="m1249.7 419.5c3 14.9 1.9 29.8 2.3 44.6l.1 22.3v5.6c0 1.4.2 2.8.5 4.2.6 2.8 1.7 5.4 3.3 7.8 3.2 4.8 8.2 8 13.8 9.1 7.4 1.6 14.8 3.4 22.1 5.4 14.7 3.9 29 8.9 43 14.7 28.3 11.4 54.7 27 78.3 46.4 23.4 19.4 43.6 43.9 54.4 72.3.4 1.1-.1 2.3-1.2 2.8-.9.3-2 0-2.5-.8-17.3-24.1-36.5-45.7-59-64.1-11.4-9-23.5-17.1-36.1-24.2-12.6-7.3-25.7-13.7-39.2-19.1-13.5-5.5-27.3-10.3-41.4-14.4-7-2-14.1-3.8-21.2-5.5-13.9-2.9-24.7-13.9-27.4-27.9-.4-2.3-.6-4.5-.7-6.8v-5.6l.1-22.3c.4-14.9-.8-29.8 2.3-44.6.5-2.4 2.8-3.9 5.2-3.4 1.6.4 2.9 1.8 3.3 3.5z" fill="#004e6e"/><circle cx="454.2" cy="72.8" fill="#ff8085" r="72.8"/><text fill="#fff" font-family="'NotoSans-Bold'" font-size="102.401" transform="translate(433.39 109.32)">?</text></svg>
