<svg height="150" viewBox="0 0 150 150" width="150" xmlns="http://www.w3.org/2000/svg"><path d="m55 92.780547a4.9681182 4.9681182 0 0 1 -6.458554-1.968848l-.331207-.699216-13.432321-29.311894a2.4472583 2.4472583 0 0 1 3.864093-2.796867l15.732371 11.205867a7.249772 7.249772 0 0 0 6.348153.791218l74.006545-32.955184c-13.28511-15.62197-35.089628-25.926215-59.783007-25.926215-40.480962 0-73.1969389 27.324648-73.1969389 61.015851 0 18.400434 9.9362349 34.960831 25.2822019 46.111501a4.9681182 4.9681182 0 0 1 2.060846 3.97449 5.8145381 5.8145381 0 0 1 -.239205 1.56405l-3.312078 12.45708a7.1761707 7.1761707 0 0 0 -.404809 1.84006 2.484059 2.484059 0 0 0 2.465658 2.46564 2.7600657 2.7600657 0 0 0 1.416832-.44161l16.026783-9.20022a7.6729824 7.6729824 0 0 1 3.882494-1.12242 7.4521771 7.4521771 0 0 1 2.152849.3312 86.592457 86.592457 0 0 0 23.920568 3.3489c40.480966 0 73.196966-27.32467 73.196966-61.015867a52.809254 52.809254 0 0 0 -8.35383-28.299872l-84.329196 48.35635z" fill="#00c800" stroke-width="1.840044"/></svg>