<svg viewBox="0 0 1586.92 796.3" xmlns="http://www.w3.org/2000/svg"><path d="m1496.41 784.31c-249.15-5.32-498.3-4.78-747.45-5.73l-238.39.63c0 2-.18 4.06-.23 6.12a2.54 2.54 0 0 1 -2.6 2.39c-25.18-1-50.28-1.26-75.48-1.23-91.29.1-182.56-2.09-273.85-2.1a2.23 2.23 0 0 1 -2.3-2.37q-77.29 1.31-154.58 3.85a1.57 1.57 0 0 0 0 3.13c124.57 4.31 249.15 5.22 373.72 6.3l373.72 1c249.15-.94 498.3-.41 747.45-5.73a3.13 3.13 0 0 0 0-6.26z" fill="#f6f6f6"/><path d="m438.93 235.33h715.25v274.36h-727.56v-262.05a12.31 12.31 0 0 1 12.31-12.31z" fill="#e1e2e2"/><path d="m1085.18 590.75h-110.92a12.31 12.31 0 0 0 -12.31 12.31v176.56h192.22v-169.86c-58.49 23.24-105.16 39.24-105.16 39.24s21.57-20.61 36.17-58.25z" fill="#6f93ad"/><path d="m1514.19 297.98h-472.17a72.73 72.73 0 0 0 -72.73 72.73v133.67a72.73 72.73 0 0 0 72.73 72.73h47.88c-1.45 4.77-3 9.32-4.72 13.64-14.6 37.64-36.16 58.25-36.16 58.25s46.66-16 105.16-39.24c24.69-9.81 51.49-20.92 77.78-32.66h282.22a72.73 72.73 0 0 0 72.73-72.73v-133.66a72.73 72.73 0 0 0 -72.72-72.73z" fill="#fcd56e"/><path d="m509.73 590.75.59 188.86h372.59v-188.86z" fill="#e1e2e2"/><path d="m509.7 557.57h-.06c-118.67-1-237.34-.66-356-1.06a4.41 4.41 0 0 0 -4.39 4.44l1.18 226.73a3.94 3.94 0 0 0 4 3.91l179.17-1.14 177.38-2.27h.56l1.54-227.29a3.33 3.33 0 0 0 -3.38-3.32zm-178.52 227.28-172.87-1.11-.24-218.38c116.08-.37 232.16-.08 348.25-1l2.93 222.23v.55z" fill="#ccced0"/><path d="m167.42 582.79 160.23 97.03 169.54-103.41" fill="#fff"/><path d="m167.84 582.12c14 7 27.69 14.54 41.33 22.16s27.12 15.48 40.48 23.56l40.23 24c13.47 7.9 26.64 16.27 40 24.39h-4.38l85.1-51.16q42.58-25.54 85.81-50a1.57 1.57 0 0 1 1.63 2.67q-41.6 27.14-83.72 53.42l-84.48 52.26a4.23 4.23 0 0 1 -4.38 0c-13.38-8.05-26.9-15.85-40.14-24.12l-39.89-24.54c-13.35-8.09-26.48-16.54-39.64-25s-26.08-17.2-38.79-26.35a.79.79 0 0 1 .81-1.34z" fill="#ccced0"/><path d="m540.57 430.03 71.15-104.88 81.36 104.88z" fill="#6f93ad"/><path d="m1284.21 368.1 12.12-6.8 9.44 10.21 13.63-2.71 5.81 12.62 13.81 1.63 1.63 13.81 12.62 5.81-2.71 13.63 10.21 9.44-6.8 12.12 6.8 12.13-10.21 9.43 2.71 13.63-12.62 5.82-1.63 13.8-13.81 1.63-5.81 12.63-13.63-2.72-9.44 10.21-12.12-6.79-12.13 6.79-9.43-10.21-13.63 2.72-5.82-12.63-13.8-1.63-1.63-13.8-12.63-5.82 2.72-13.63-10.21-9.43 6.79-12.13-6.79-12.12 10.21-9.44-2.72-13.63 12.63-5.81 1.63-13.81 13.8-1.63 5.82-12.62 13.63 2.71 9.43-10.21z" fill="#fff"/><path d="m320.47 560.73h11.75l5.16-409.17h-11.75zm912.49-409.17h11.75v146.42h-11.75zm0 425.54v196.86h-722.84c-.14 3.92.64 7.84.33 11.75h728.39a5.88 5.88 0 0 0 5.87-5.87v-202.74z" fill="#ccced0"/><path d="m325.99 153.55v-89.45c0-35.4 24.18-64.1 54-64.1h811.85c29.82 0 54 28.7 54 64.1v89.45z" fill="#ccced0"/><path d="m1263.68 153.52c-80 6.33-160 5.87-240 6.24l-240 1.05-240-1.05c-80-.37-160 .1-240-6.24v-3.92c80-6.34 160-5.86 240-6.24l240-1.05 240 1.05c80 .37 160-.09 240 6.24z" fill="#204a69"/></svg>