<svg width="20" height="20" viewBox="0 0 20 20" fill="none" xmlns="http://www.w3.org/2000/svg">
	<path
		d="M8.57465 3.21659L1.51632 14.9999C1.37079 15.2519 1.29379 15.5377 1.29298 15.8287C1.29216 16.1197 1.36756 16.4059 1.51167 16.6587C1.65579 16.9115 1.86359 17.1222 2.11441 17.2698C2.36523 17.4174 2.65032 17.4967 2.94132 17.4999H17.058C17.349 17.4967 17.6341 17.4174 17.8849 17.2698C18.1357 17.1222 18.3435 16.9115 18.4876 16.6587C18.6317 16.4059 18.7071 16.1197 18.7063 15.8287C18.7055 15.5377 18.6285 15.2519 18.483 14.9999L11.4247 3.21659C11.2761 2.97168 11.0669 2.76919 10.8173 2.62866C10.5677 2.48813 10.2861 2.41431 9.99965 2.41431C9.71321 2.41431 9.43159 2.48813 9.18199 2.62866C8.93238 2.76919 8.72321 2.97168 8.57465 3.21659V3.21659Z"
		stroke="#E65054" stroke-width="2" stroke-linecap="round" stroke-linejoin="round"/>
	<path d="M10 7.5V10.8333" stroke="#E65054" stroke-width="2" stroke-linecap="round" stroke-linejoin="round"/>
	<path d="M10 14.1667H10.0083" stroke="#E65054" stroke-width="2" stroke-linecap="round" stroke-linejoin="round"/>
</svg>
