<svg width="28" height="26" viewBox="0 0 28 26" fill="none" xmlns="http://www.w3.org/2000/svg">
<g clip-path="url(#clip0_4595_81094)">
<path fill-rule="evenodd" clip-rule="evenodd" d="M23.3155 12.4291C23.3155 7.83557 19.9588 3.73882 13.8894 3.73882C7.82004 3.73882 4.49882 7.83557 4.49882 12.4291V12.9994C4.49882 17.5936 7.82004 21.7605 13.8894 21.7605C19.9588 21.7605 23.3155 17.5936 23.3155 12.9994V12.4291ZM13.8894 25.5C5.46285 25.5 0 19.446 0 13.1416V12.359C0 5.94713 5.46285 0 13.8894 0C22.3522 0 27.815 5.94713 27.815 12.359V13.1416C27.815 19.446 22.3522 25.5 13.8894 25.5Z" fill="#00A3E0"/>
<path fill-rule="evenodd" clip-rule="evenodd" d="M16.8742 8.41476C17.6436 8.91905 17.8592 9.96731 17.36 10.754L13.4687 16.8822C12.9688 17.6696 11.9403 17.8973 11.1723 17.393C10.4042 16.8874 10.186 15.8418 10.6865 15.0544L14.5778 8.92621C15.0777 8.13952 16.1062 7.91112 16.8742 8.41476Z" fill="white"/>
</g>
<defs>
<clipPath id="clip0_4595_81094">
<rect width="27.815" height="25.5" fill="white"/>
</clipPath>
</defs>
</svg>
