<?xml version="1.0" encoding="UTF-8"?><svg width="72px" height="72px" viewBox="0 0 72 72" version="1.1" xmlns="http://www.w3.org/2000/svg" xmlns:xlink="http://www.w3.org/1999/xlink"><defs><circle id="path-1" cx="36" cy="36" r="36"></circle><rect id="path-3" x="0" y="0" width="72" height="72"></rect><path d="M4.27262212,31.0631214 C2.61992908,22.8380794 1,6.93932335 1,4 L1,-6.82121026e-13 L21,-6.82121026e-13 L21,4 C21,6.93932335 19.3800709,22.8380794 17.7273779,31.0631214 C20.3673123,33.0726922 21.6080901,36.3514593 21,40 C20.0848476,45.4909145 14,55 12,58 L10,58 C8,55 2,46 1,40 C0.391909887,36.3514593 1.6326877,33.0726922 4.27262212,31.0631214 Z M11.8884866,42.2302684 C12.7741298,41.877123 13.4000001,41.0117003 13.4000001,40.0000978 C13.4000001,38.6746143 12.3254835,37.6000977 11,37.6000977 C9.67451655,37.6000977 8.5999999,38.6746143 8.5999999,40.0000978 C8.5999999,41.0117003 9.22587023,41.877123 10.1115134,42.2302684 L10.7003743,54.007486 C10.7080695,54.1613906 10.831114,54.2844351 10.9850187,54.2921304 C11.1504974,54.3004043 11.2913518,54.1729647 11.2996257,54.007486 L11.8884866,42.2302684 Z" id="path-5"></path></defs><g id="Plan/Business" stroke="none" stroke-width="1" fill="none" fill-rule="evenodd"><g id="plan"><mask id="mask-2" fill="white"><use xlink:href="#path-1"></use></mask><use id="bg" fill="#E38A40" fill-rule="nonzero" xlink:href="#path-1"></use><path d="M-2.7000624e-13,54 C2.66666667,54 12.6666667,54 30,54 C8,55.305701 5.33333333,60.6300026 22,69.9729047 C7.33333333,69.9729047 -2.7000624e-13,64.6486032 -2.7000624e-13,54 Z" id="line" fill="#B95E1B" mask="url(#mask-2)"></path><g id="icon" mask="url(#mask-2)"><g transform="translate(36.000000, 36.000000) rotate(30.000000) translate(-36.000000, -36.000000) "><mask id="mask-4" fill="white"><use xlink:href="#path-3"></use></mask><g id="bounds" stroke="none" fill="none"></g><g id="pen" stroke="none" stroke-width="1" fill="none" fill-rule="evenodd" mask="url(#mask-4)"><g transform="translate(25.000000, -4.000000)"><mask id="mask-6" fill="white"><use xlink:href="#path-5"></use></mask><use id="shape" stroke="none" fill="#FFFFFF" fill-rule="evenodd" xlink:href="#path-5"></use><rect id="alt" stroke="none" fill="#BB4F10" fill-rule="evenodd" mask="url(#mask-6)" x="-1" y="2.27373675e-13" width="24" height="26"></rect></g></g></g></g></g></g></svg>