<svg height="72" viewBox="0 0 72 72" width="72" xmlns="http://www.w3.org/2000/svg" xmlns:xlink="http://www.w3.org/1999/xlink"><defs><circle id="a" cx="36" cy="36" r="36"/><path id="b" d="m0 0h29l3.1532462 1.57662312c.3704839.18524194.5206522.63574672.3354102 1.00623059-.127141.25428215-.3871268.41481794-.6714228.41458956l-31.8172336-.02555891z"/><path id="c" d="m10.8024361 56.4035209c3.2321181-6.4657274 5.1323321-10.266901 5.700642-11.4035209 1-2 1.5015391-3 1.5015391-5s0-15.2738488 0-39.82154639h-17.99999999v39.82154639c0 2 .56646126 3 1.56646126 5 .56810529 1.1362106 2.45144051 4.9350559 5.65000567 11.3965361l-.00000487.0000024c.49003244.9899236 1.68977382 1.3951653 2.67969736.9051329.39032987-.1932213.70691767-.5085771.90165947-.8981505z"/><mask id="d" fill="#fff"><use fill="#fff" fill-rule="evenodd" xlink:href="#a"/></mask><mask id="e" fill="#fff"><use fill="#fff" fill-rule="evenodd" xlink:href="#b"/></mask><mask id="f" fill="#fff"><path d="m0 0h72v72h-72z" fill="#fff" fill-rule="evenodd"/></mask><mask id="g" fill="#fff"><use fill="#fff" fill-rule="evenodd" xlink:href="#c"/></mask></defs><g fill="none" fill-rule="evenodd"><use fill="#969ca1" fill-rule="nonzero" xlink:href="#a"/><g mask="url(#d)"><g fill-rule="evenodd" transform="translate(-4 53)"><use fill="#b0b5b8" xlink:href="#b"/><path d="m0 0h40v1h-40z" fill="#ccced0" mask="url(#e)"/></g></g><g mask="url(#d)"><g fill="none" fill-rule="evenodd" mask="url(#f)" transform="matrix(.8660254 .5 -.5 .8660254 22.820007 -13.176915)"><g transform="translate(27 -2)"><use fill="#fff" fill-rule="evenodd" xlink:href="#c"/><g fill-rule="nonzero"><path d="m-5-2h28v44h-28z" fill="#e1e2e2" mask="url(#g)"/><path d="m-5 0h28v38h-28z" fill="#50575d" mask="url(#g)"/><path d="m9.00307814 22c-4 0-4-10.2974508-4-23 0-8.46836616 0-16.1350328 0-23h7.99999996v23c0 12.7025492 0 23-3.99999996 23zm-11.00307814 8h22v4h-22z" fill="#3d4145" mask="url(#g)"/></g></g></g></g></g></svg>