<svg height="72" viewBox="0 0 72 72" width="72" xmlns="http://www.w3.org/2000/svg" xmlns:xlink="http://www.w3.org/1999/xlink"><defs><circle id="a" cx="36" cy="36" r="36"/><path id="b" d="m4.5 29.8771834c-1.65269304-8.225042-4.5-22.93786005-4.5-25.8771834v-4h24v4c0 2.93932335-2.847307 17.6521414-4.5 25.8771834 2.6080901 3.1228166 2.6080901 6.4742759 2 10.1228166-.9151524 5.4909145-6.5 15-8.5 18h-2c-2-3-7.5-12-8.5-18-.60809011-3.6485407-.60809011-7 2-10.1228166zm7.488761 8.1228166c-1.5112265 0-1.4887548 1-1.4887548 2 0 .6666667.425091 5.3358287 1.2752728 14.007486.0057714.1539046.0980542.2769491.213482.2846444.1241082.0082739.2297483-.1191657.2359537-.2846444.8501819-8.6716573 1.2752728-13.3408193 1.2752728-14.007486 0-1 0-2-1.5112265-2z"/><mask id="c" fill="#fff"><use fill="#fff" fill-rule="evenodd" xlink:href="#a"/></mask><mask id="d" fill="#fff"><path d="m0 0h72v72h-72z" fill="#fff" fill-rule="evenodd"/></mask><mask id="e" fill="#fff"><use fill="#fff" fill-rule="evenodd" xlink:href="#b"/></mask></defs><g fill="none" fill-rule="evenodd"><use fill="#aa5fe6" fill-rule="nonzero" xlink:href="#a"/><path d="m-1 54h28.5l-27.5 8z" fill="#8051b4" fill-rule="nonzero" mask="url(#c)"/><g mask="url(#c)"><g fill="none" fill-rule="evenodd" mask="url(#d)" transform="matrix(.8660254 .5 -.5 .8660254 22.823085 -13.176915)"><g fill-rule="evenodd" transform="translate(24 -4)"><use fill="#fff" xlink:href="#b"/><path d="m0 0h24v26h-24z" fill="#4b3264" mask="url(#e)"/><path d="m0-5h24v25h-24z" fill="#634581" mask="url(#e)"/></g></g></g></g></svg>