<svg height="72" viewBox="0 0 72 72" width="72" xmlns="http://www.w3.org/2000/svg" xmlns:xlink="http://www.w3.org/1999/xlink"><defs><circle id="a" cx="36" cy="36" r="36"/><path id="b" d="m4.27262212 31.0631214c-1.65269304-8.225042-3.27262212-24.12379805-3.27262212-27.0631214v-4h20v4c0 2.93932335-1.6199291 18.8380794-3.2726221 27.0631214 2.6399344 2.0095708 3.8807122 5.2883379 3.2726221 8.9368786-.9151524 5.4909145-7 15-9 18h-2c-2-3-8-12-9-18-.60809011-3.6485407.6326877-6.9273078 3.27262212-8.9368786zm7.61586448 11.167147c.8856432-.3531454 1.5115135-1.2185681 1.5115135-2.2301706 0-1.3254835-1.0745166-2.4000001-2.4000001-2.4000001-1.32548345 0-2.4000001 1.0745166-2.4000001 2.4000001 0 1.0116025.62587033 1.8770252 1.5115135 2.2301706l.5888609 11.7772176c.0076952.1539046.1307397.2769491.2846444.2846444.1654787.0082739.3063331-.1191657.314607-.2846444z"/><mask id="c" fill="#fff"><use fill="#fff" fill-rule="evenodd" xlink:href="#a"/></mask><mask id="d" fill="#fff"><path d="m0 0h72v72h-72z" fill="#fff" fill-rule="evenodd"/></mask><mask id="e" fill="#fff"><use fill="#fff" fill-rule="evenodd" xlink:href="#b"/></mask></defs><g fill="none" fill-rule="evenodd"><use fill="#e38a40" fill-rule="nonzero" xlink:href="#a"/><path d="m0 54h30c-22 1.305701-24.66666667 6.6300026-8 15.9729047-14.66666667 0-22-5.3243015-22-15.9729047z" fill="#b95e1b" mask="url(#c)"/><g mask="url(#c)"><g fill="none" fill-rule="evenodd" mask="url(#d)" transform="matrix(.8660254 .5 -.5 .8660254 22.823085 -13.176915)"><g fill-rule="evenodd" transform="translate(25 -4)"><use fill="#fff" xlink:href="#b"/><path d="m-1 0h24v26h-24z" fill="#bb4f10" mask="url(#e)"/></g></g></g></g></svg>