<svg height="72" viewBox="0 0 72 72" width="72" xmlns="http://www.w3.org/2000/svg" xmlns:xlink="http://www.w3.org/1999/xlink"><defs><circle id="a" cx="36" cy="36" r="36"/><path id="b" d="m.14304662 34.3576165 8.92847669 22.3211918c.20511341.5127835.78708385.7621994 1.29986739.557086.2541026-.1016411.4554449-.3029834.557086-.557086l8.9284767-22.3211918c.0944962-.2362405.1430466-.4883424.1430466-.7427813v-33.6148352h-20v33.6148352c0 .2544389.0485504.5065408.14304662.7427813z"/><mask id="c" fill="#fff"><use fill="#fff" fill-rule="evenodd" xlink:href="#a"/></mask><mask id="d" fill="#fff"><path d="m0 0h72v72h-72z" fill="#fff" fill-rule="evenodd"/></mask><mask id="e" fill="#fff"><use fill="#fff" fill-rule="evenodd" xlink:href="#b"/></mask></defs><g fill="none" fill-rule="evenodd"><use fill="#438c7d" xlink:href="#a"/><rect fill="#007565" height="1" mask="url(#c)" rx=".5" width="28" x="-2" y="54"/><g mask="url(#c)"><g fill="none" fill-rule="evenodd" mask="url(#d)" transform="matrix(.8660254 .5 -.5 .8660254 22.820007 -13.176915)"><g fill-rule="evenodd" transform="translate(26 -2)"><use fill="#195d52" xlink:href="#b"/><path d="m9.00307814 0h1.99999996v22.4625166c0 4.0118343.4177153 5.4666224 1.2020972 6.9332891.7843819 1.4666666 1.9354305 2.6177152 3.4020972 3.4020971 1.2614945.6746547 2.5142015 1.0780534 5.3927275 1.1777139v16.0243833h-22v-16.0241708c2.88289694-.0992982 4.13649028-.5027909 5.39888381-1.1779264 1.46666666-.7843819 2.61771525-1.9354305 3.40209716-3.4020971.78438192-1.4666667 1.20209717-2.9214548 1.20209717-6.9332891z" fill="#fff" mask="url(#e)"/></g></g></g></g></svg>