<svg enable-background="new 0 0 200 200" viewBox="0 0 200 200" xmlns="http://www.w3.org/2000/svg"><path d="m133.4 7.6v98.3h-.2c-9.1 0-16.5-7.4-16.5-16.5v.2c0 9.1-7.4 16.5-16.5 16.5h-.3c-9.1 0-16.5-7.4-16.5-16.5v-.2c0 9.1-7.6 16.5-16.7 16.5v-98.3c-37.5 13.6-64.3 49.5-64.3 91.7 0 53.9 43.7 97.6 97.6 97.6s97.6-43.7 97.6-97.6c0-42.2-26.8-78.1-64.2-91.7z" fill="#d3dee6"/><circle cx="100" cy="99.3" fill="none" r="97.6"/><path d="m133 105.9h.2z" fill="#fff"/><path d="m99.8 105.9h.4z" fill="#91aec2"/><path d="m133.4 105.9-33.4-32.7-33.4 32.7 33.4 59.8z" fill="#fff"/><path d="m100.1 133.6h-.1c-6.3 0-11.6 5.1-11.6 11.4l11.6 20.7 11.6-20.7c0-6.3-5.2-11.4-11.5-11.4z" fill="#485567"/><path d="m100 1.7c-5.7 0-11.3.5-16.7 1.4v86.2.2c0 9.1 7.4 16.5 16.5 16.5h.3c9.1 0 16.5-7.4 16.5-16.5v-.2-86.1c-5.3-1-10.9-1.5-16.6-1.5z" fill="#91aec2"/><path d="m83.3 89.4v-86.2c-5.7 1-11.3 2.5-16.7 4.4v98.3c9.2 0 16.7-7.4 16.7-16.5z" fill="#b1c6d4"/><path d="m116.7 89.4c0 9.1 7.4 16.5 16.5 16.5h.2v-98.3c-5.4-1.9-10.9-3.4-16.7-4.4z" fill="#485567"/></svg>