<svg width="72" height="72" xmlns="http://www.w3.org/2000/svg" xmlns:xlink="http://www.w3.org/1999/xlink"><defs><circle id="a" cx="36" cy="36" r="36"/><path d="M14 50v2.959c0 .478-.027.649-.088.834a1.33 1.33 0 01-.283.49c-.13.145-.265.254-.68.493l-4.7 2.708A1.5 1.5 0 016 56.184V50H4c0-10.667-1.333-21-4-31V0h20v19c-2.667 10-4 20.333-4 31h-2z" id="c"/></defs><g fill="none" fill-rule="evenodd"><mask id="b" fill="#fff"><use xlink:href="#a"/></mask><use fill="#deb100" fill-rule="nonzero" xlink:href="#a"/><path fill="#c08c00" mask="url(#b)" d="M-4 54h32l-3 2H-4z"/><g mask="url(#b)"><g transform="rotate(30 26.732 85.517)"><mask id="d" fill="#fff"><use xlink:href="#c"/></mask><use fill="#7d5600" xlink:href="#c"/><path fill="#FFF" mask="url(#d)" d="M-4 22h28v28H-4z"/></g></g></g></svg>