<svg width="72" height="72" xmlns="http://www.w3.org/2000/svg" xmlns:xlink="http://www.w3.org/1999/xlink"><defs><circle id="a" cx="36" cy="36" r="36"/><path d="M4.5 29.877C2.847 21.652 0 6.94 0 4V0h24v4c0 2.94-2.847 17.652-4.5 25.877C22.108 33 22.108 36.351 21.5 40c-.915 5.49-6.5 15-8.5 18h-2c-2-3-7.5-12-8.5-18-.608-3.649-.608-7 2-10.123zM11.989 38c-1.511 0-1.489 1-1.489 2 0 .667.425 5.336 1.275 14.007.006.154.098.277.214.285.124.008.23-.119.236-.285.85-8.671 1.275-13.34 1.275-14.007 0-1 0-2-1.511-2z" id="c"/></defs><g fill="none" fill-rule="evenodd"><mask id="b" fill="#fff"><use xlink:href="#a"/></mask><use fill="#C475BD" fill-rule="nonzero" xlink:href="#a"/><path fill="#984A9C" fill-rule="nonzero" mask="url(#b)" d="M-1 54h28.5L0 62z"/><g mask="url(#b)"><g transform="rotate(30 31.464 82.785)"><mask id="d" fill="#fff"><use xlink:href="#c"/></mask><use fill="#FFF" xlink:href="#c"/><path fill="#662C6E" mask="url(#d)" d="M0 0h24v26H0z"/></g></g></g></svg>