<svg height="72" viewBox="0 0 72 72" width="72" xmlns="http://www.w3.org/2000/svg" xmlns:xlink="http://www.w3.org/1999/xlink"><defs><circle id="a" cx="36" cy="36" r="36"/><path id="b" d="m14 50v2.9587014c0 .4778468-.0274928.6489396-.0876221.834241-.0601294.1853014-.1528952.3458037-.2834412.4904062-.130546.1446026-.2650722.253833-.6791224.4923703l-4.70102619 2.708296c-.71782494.4135443-1.63498089.166876-2.04852515-.5509489-.13120295-.2277405-.20026296-.4859575-.20026296-.7487881v-6.1842779h-2c0-10.6666667-1.33333333-21-4-31v-19h20v19c-2.6666667 10-4 20.3333333-4 31z"/><mask id="c" fill="#fff"><use fill="#fff" fill-rule="evenodd" xlink:href="#a"/></mask><mask id="d" fill="#fff"><path d="m0 0h72v72h-72z" fill="#fff" fill-rule="evenodd"/></mask><mask id="e" fill="#fff"><use fill="#fff" fill-rule="evenodd" xlink:href="#b"/></mask></defs><g fill="none" fill-rule="evenodd"><use fill="#e0bd56" fill-rule="nonzero" xlink:href="#a"/><path d="m-4 54h32l-3 2h-29z" fill="#ba9830" mask="url(#c)"/><g mask="url(#c)"><g fill="none" fill-rule="evenodd" mask="url(#d)" transform="matrix(.8660254 .5 -.5 .8660254 22.823085 -13.176915)"><g fill-rule="evenodd" transform="translate(26 -2)"><use fill="#826b32" xlink:href="#b"/><path d="m-4 22h28v28h-28z" fill="#fff" mask="url(#e)"/></g></g></g></g></svg>