<svg width="69" height="27" viewBox="0 0 69 27" fill="none" xmlns="http://www.w3.org/2000/svg">
<mask id="mask0_233_14621" style="mask-type:alpha" maskUnits="userSpaceOnUse" x="0" y="8" width="68" height="13">
<path d="M67.759 8H0.5V20.3949H67.759V8Z" fill="white"/>
</mask>
<g mask="url(#mask0_233_14621)">
<path d="M0.498413 8.00168H5.42934C6.36858 8.00168 7.07299 8.23604 7.59479 8.62663C8.16877 9.09535 8.48184 9.77239 8.48184 10.6057C8.48184 11.5691 8.09049 12.168 7.30781 12.5326V12.5847C8.35139 12.9232 8.95144 13.8606 8.95144 14.9804C8.95144 16.048 8.534 16.8813 7.85569 17.4021C7.28171 17.8187 6.5512 18.001 5.5598 18.001H0.498413V8.00168ZM4.93365 11.9077C5.45544 11.9077 5.84678 11.6212 5.84678 11.0223C5.84678 10.4494 5.45544 10.163 4.90757 10.163H3.21174V11.8816H4.93365V11.9077ZM5.16845 15.7876C5.76852 15.7876 6.21204 15.423 6.21204 14.772C6.21204 14.069 5.74242 13.7565 5.16845 13.7565H3.23782V15.8136H5.16845V15.7876Z" fill="#50575E"/>
<path d="M9.39612 8.00168H11.979V18.027H9.39612V8.00168Z" fill="#50575E"/>
<path d="M12.5009 14.4623C12.5009 12.1968 13.9619 10.6865 16.2317 10.6865C18.5015 10.6865 19.9364 12.2228 19.9364 14.4623C19.9364 16.7277 18.5015 18.238 16.2317 18.238C13.9619 18.238 12.5009 16.7277 12.5009 14.4623ZM17.3535 14.4623C17.3535 13.2123 16.9622 12.4312 16.1795 12.4312C15.3968 12.4312 15.0316 13.2123 15.0316 14.4623C15.0316 15.7122 15.3968 16.5194 16.1795 16.5194C16.9622 16.4934 17.3535 15.7122 17.3535 14.4623Z" fill="#50575E"/>
<path d="M20.2223 14.4623C20.2223 12.1968 21.6834 10.6865 23.9531 10.6865C26.2229 10.6865 27.6318 12.1968 27.6318 14.4623C27.6318 16.7277 26.1968 18.238 23.927 18.238C21.6834 18.238 20.2223 16.7277 20.2223 14.4623ZM25.0749 14.4623C25.0749 13.2123 24.6835 12.4312 23.901 12.4312C23.1182 12.4312 22.753 13.2123 22.753 14.4623C22.753 15.7122 23.1182 16.5194 23.901 16.5194C24.6835 16.4934 25.0749 15.7122 25.0749 14.4623Z" fill="#50575E"/>
<path d="M28.1521 10.8806H30.5522V11.9482H30.6044C31.074 11.115 31.7262 10.6723 32.7698 10.6723C33.683 10.6723 34.3613 11.115 34.7005 11.8961H34.7527C35.3267 10.9587 36.0834 10.6723 36.9703 10.6723C38.64 10.6723 39.3446 11.8961 39.3446 13.5367V18.0155H36.8399V13.9793C36.8399 13.2502 36.6052 12.7815 35.9789 12.7815C35.3527 12.7815 35.0398 13.3544 35.0398 14.1356V18.0155H32.5351V13.9793C32.5351 13.2502 32.3002 12.7815 31.6741 12.7815C31.048 12.7815 30.735 13.3544 30.735 14.1356V18.0155H28.1521V10.8806Z" fill="#50575E"/>
<path d="M42.5033 17.0635H42.4772V18.0009H40.0769V8.00168H42.5816V11.5952H42.6337C43.1034 10.9702 43.7556 10.6317 44.6688 10.6317C46.4689 10.6317 47.5125 12.2461 47.5125 14.4075C47.5125 16.8292 46.3906 18.2353 44.5123 18.2353C43.7295 18.2353 42.9208 17.8707 42.5033 17.0635ZM44.9296 14.3814C44.9296 13.2357 44.5123 12.4805 43.7556 12.4805C42.973 12.4805 42.5033 13.2357 42.5033 14.3814C42.5033 15.5272 42.999 16.2823 43.7556 16.2823C44.5123 16.2823 44.9296 15.5532 44.9296 14.3814Z" fill="#50575E"/>
<path d="M47.8019 14.448C47.8019 12.2086 49.289 10.6723 51.4284 10.6723C52.4981 10.6723 53.3069 11.0108 53.933 11.6097C54.768 12.4169 55.1331 13.6669 55.107 15.1251H50.3065C50.4109 16.0104 50.8283 16.4792 51.5851 16.4792C52.0284 16.4792 52.4198 16.2708 52.5763 15.8021H55.0027C54.5852 17.4426 53.3069 18.2499 51.5066 18.2499C49.289 18.2238 47.8019 16.7135 47.8019 14.448ZM50.3065 13.6929H52.6026C52.5502 12.8336 52.0808 12.3909 51.4805 12.3909C50.7762 12.3649 50.3848 12.8596 50.3065 13.6929Z" fill="#50575E"/>
<path d="M57.9483 12.0986H58.0005C58.5223 11.1091 59.2006 10.7185 60.0616 10.7185C60.2702 10.7185 60.4006 10.7445 60.4791 10.7966V12.984H60.4267C58.9398 12.7236 58.0787 13.4266 58.0787 15.0411V18.0357H55.548V10.8747H57.9483V12.0986Z" fill="#50575E"/>
<path d="M60.7438 18.032H63.17C63.2743 18.3445 63.5875 18.6309 64.1875 18.6309C64.9964 18.6309 65.2832 18.1362 65.2832 17.381V16.8602H65.2311C64.8397 17.3289 64.2918 17.6674 63.5092 17.6674C61.9699 17.6674 60.6132 16.5217 60.6132 14.2823C60.6132 12.2251 61.7089 10.6367 63.3788 10.6367C64.344 10.6367 64.9179 11.0273 65.3093 11.6262H65.3615V10.845H67.7618V17.0425C67.7618 18.1882 67.3704 19.0736 66.7704 19.5944C66.1443 20.1412 65.2572 20.3756 64.2397 20.3756C62.3091 20.4016 60.9785 19.6204 60.7438 18.032ZM65.3876 14.1781C65.3876 13.2928 64.9703 12.5637 64.2397 12.5637C63.5353 12.5637 63.0917 13.1886 63.0917 14.1781C63.0917 15.1416 63.5353 15.8186 64.2397 15.8186C64.9442 15.8186 65.3876 15.1155 65.3876 14.1781Z" fill="#50575E"/>
</g>
</svg>
