<svg width="31" height="18" viewBox="0 0 31 18" fill="none" xmlns="http://www.w3.org/2000/svg">
<path d="M2.12484 6.41096C1.22747 4.7871 1.78788 2.69387 3.37656 1.7356C4.96524 0.777326 6.98059 1.31689 7.87796 2.94074L12.3259 10.9895C13.2232 12.6134 12.6628 14.7066 11.0742 15.6649C9.48548 16.6232 7.47013 16.0836 6.57276 14.4597L2.12484 6.41096Z" fill="white"/>
<path fill-rule="evenodd" clip-rule="evenodd" d="M11.5334 11.4675L7.08546 3.41877C6.43532 2.24229 4.9752 1.85138 3.82421 2.54564C2.67321 3.23991 2.26719 4.75645 2.91734 5.93293L7.36525 13.9817C8.0154 15.1582 9.47551 15.5491 10.6265 14.8548C11.7775 14.1606 12.1835 12.644 11.5334 11.4675ZM3.37656 1.7356C1.78788 2.69387 1.22747 4.7871 2.12484 6.41096L6.57276 14.4597C7.47013 16.0836 9.48548 16.6232 11.0742 15.6649C12.6628 14.7066 13.2232 12.6134 12.3259 10.9895L7.87796 2.94074C6.98059 1.31689 4.96524 0.777326 3.37656 1.7356Z" fill="black"/>
<path fill-rule="evenodd" clip-rule="evenodd" d="M13.7022 11.7116L12.1524 14.5076C11.245 16.1447 9.2071 16.6886 7.60063 15.7225C5.99416 14.7565 5.42747 12.6462 6.3349 11.0091L10.6276 3.26451C10.7503 2.98674 10.9088 2.7238 11.1007 2.48388C11.73 1.65765 12.6861 1.20391 13.6735 1.20155C14.6871 1.18606 15.6739 1.64683 16.3152 2.49882C16.501 2.73375 16.655 2.99042 16.775 3.26124L21.0693 11.0087C21.9768 12.6458 21.4101 14.7561 19.8036 15.7222C18.1971 16.6882 16.1592 16.1443 15.2518 14.5072L13.7022 11.7116Z" fill="white"/>
<path fill-rule="evenodd" clip-rule="evenodd" d="M13.7022 9.78253L16.0709 14.0559C16.7216 15.2298 18.1682 15.616 19.3202 14.9232C20.4959 14.2162 20.9143 12.6581 20.2502 11.46L15.9357 3.67623L15.9189 3.63828C15.8301 3.43786 15.7166 3.24886 15.5804 3.07665L15.5734 3.06782L15.5666 3.05883C15.1081 2.4496 14.4069 2.1235 13.6878 2.13449L13.6818 2.13458L13.6757 2.13459C12.9753 2.13627 12.2959 2.45745 11.846 3.04818L11.8393 3.05697L11.8324 3.06561C11.6917 3.24143 11.5749 3.43503 11.4841 3.64061L11.4671 3.67905L7.15401 11.4604C6.48991 12.6585 6.90831 14.2165 8.08401 14.9236C9.23598 15.6163 10.6826 15.2302 11.3333 14.0563L13.7022 9.78253ZM10.6276 3.26451L6.3349 11.0091C5.42747 12.6462 5.99416 14.7565 7.60063 15.7225C9.2071 16.6886 11.245 16.1447 12.1524 14.5076L13.7022 11.7116L15.2518 14.5072C16.1592 16.1443 18.1971 16.6882 19.8036 15.7222C21.4101 14.7561 21.9768 12.6458 21.0693 11.0087L16.775 3.26124C16.655 2.99042 16.501 2.73375 16.3152 2.49882C15.6739 1.64683 14.6871 1.18606 13.6735 1.20155C12.6861 1.20391 11.73 1.65765 11.1007 2.48388C10.9088 2.7238 10.7503 2.98674 10.6276 3.26451Z" fill="black"/>
<path fill-rule="evenodd" clip-rule="evenodd" d="M30.498 5.84677C30.498 3.28108 28.4654 1.20117 25.958 1.20117H23.2726C23.1141 1.20117 22.9575 1.20948 22.8032 1.2257C21.5766 1.09385 20.345 1.70613 19.7 2.90049L19.5273 3.22024C19.3622 3.46625 19.2197 3.72933 19.1028 4.00638L15.3197 11.0113C14.436 12.6477 14.9879 14.7571 16.5524 15.7227C18.1169 16.6884 20.1016 16.1447 20.9854 14.5083L23.155 10.4908C23.1941 10.4918 23.2333 10.4924 23.2726 10.4924H25.958C28.4654 10.4924 30.498 8.41246 30.498 5.84677Z" fill="white"/>
<path fill-rule="evenodd" clip-rule="evenodd" d="M22.8021 2.16336L22.7079 2.15324C21.8389 2.05982 20.9624 2.49111 20.4977 3.35159L19.7 2.90049C20.345 1.70613 21.5766 1.09385 22.8032 1.2257C22.9575 1.20948 23.1141 1.20117 23.2726 1.20117H25.958C28.4654 1.20117 30.498 3.28108 30.498 5.84677C30.498 8.41246 28.4654 10.4924 25.958 10.4924H23.2726C23.2333 10.4924 23.1941 10.4918 23.155 10.4908L20.9854 14.5083C20.1016 16.1447 18.1169 16.6884 16.5524 15.7227C14.9879 14.7571 14.436 12.6477 15.3197 11.0113L19.1028 4.00638C19.2197 3.72933 19.3622 3.46625 19.5273 3.22024L19.7 2.90049L20.4977 3.35159L20.3037 3.71091L20.2787 3.74818C20.1467 3.94491 20.0328 4.15509 19.9395 4.37618L19.9219 4.4178L16.1174 11.4624C15.4707 12.66 15.8781 14.2174 17.0232 14.9241C18.1451 15.6166 19.5539 15.2306 20.1876 14.0572L22.625 9.54411L23.1782 9.55849C23.2095 9.55931 23.241 9.55972 23.2726 9.55972H25.958C27.962 9.55972 29.5865 7.89737 29.5865 5.84677C29.5865 3.79616 27.962 2.13381 25.958 2.13381H23.2726C23.1452 2.13381 23.0197 2.14049 22.8963 2.15346L22.8021 2.16336Z" fill="black"/>
</svg>
