<svg width="40" height="27" viewBox="0 0 40 27" fill="none" xmlns="http://www.w3.org/2000/svg">
<path d="M13.417 17.1816V8.32266C13.417 4.98865 17.7227 3.38791 20.0007 7.26239C20.1662 7.54196 23.7538 13.7275 23.7538 13.7275V8.32266C23.7538 4.98865 28.0576 3.38791 30.3354 7.26239C30.501 7.54196 34.0887 13.7275 34.0887 13.7275V5.06734H36.2363V19.6065C36.2417 19.7048 36.214 19.802 36.1571 19.8825C36.1005 19.9629 36.0183 20.0218 35.9239 20.0497C35.6964 20.1118 35.4564 19.971 35.2805 19.6728C35.2454 19.6148 33.4183 16.4713 31.6637 13.4334L28.4444 7.88571C27.9934 7.11952 27.3209 6.98491 26.843 7.11537C26.5677 7.19248 26.3256 7.35905 26.1553 7.58886C25.9848 7.81866 25.8956 8.09866 25.9015 8.38478V19.6065C25.9067 19.7047 25.8785 19.8018 25.8219 19.8822C25.7653 19.9625 25.6832 20.0215 25.5891 20.0497C25.3596 20.1118 25.1194 19.971 24.9457 19.6728C24.9146 19.621 23.2202 16.6991 21.5835 13.8745C19.4979 10.2754 18.1282 7.91471 18.1075 7.8795C17.6565 7.11123 16.982 6.9787 16.4999 7.10916C16.2243 7.1862 15.9821 7.35269 15.8113 7.58245C15.6406 7.81223 15.5509 8.09225 15.5564 8.37857V19.3642C15.5471 19.5104 15.4847 19.648 15.3811 19.7514C15.2775 19.8547 15.1397 19.9166 14.9936 19.9254H9.42169C7.8501 19.9254 6.34285 19.3006 5.23157 18.1883C4.12027 17.0761 3.49597 15.5676 3.49597 13.9946C3.49597 12.4217 4.12027 10.9131 5.23157 9.8009C6.34285 8.68865 7.8501 8.06381 9.42169 8.06381H12.3184V10.2092H9.44651C8.44342 10.2092 7.4814 10.608 6.7721 11.3179C6.06281 12.0278 5.66432 12.9906 5.66432 13.9946C5.66432 14.9986 6.06281 15.9614 6.7721 16.6713C7.4814 17.3812 8.44342 17.78 9.44651 17.78H12.8252C12.9036 17.7806 12.9814 17.7655 13.0538 17.7355C13.1263 17.7056 13.192 17.6614 13.2471 17.6056C13.3023 17.5499 13.3457 17.4836 13.3749 17.4108C13.4041 17.338 13.4184 17.26 13.417 17.1816ZM39.2324 19.6769C39.2324 23.0109 34.9267 24.6117 32.6486 20.7392C32.4853 20.4597 28.8954 14.2721 28.8954 14.2721V19.6769C28.8954 23.0109 24.5918 24.6117 22.3138 20.7392C22.1483 20.4597 18.5606 14.2721 18.5606 14.2721V19.3684C18.5606 21.6815 17.1889 22.9343 15.0433 22.9343H9.42584C7.05854 22.9343 4.78824 21.9931 3.11432 20.3177C1.4404 18.6424 0.5 16.3701 0.5 14.0008C0.5 11.6315 1.4404 9.35925 3.11432 7.68389C4.78824 6.00854 7.05854 5.06734 9.42584 5.06734H12.3225V7.21269H9.42584C8.53516 7.21269 7.65321 7.38828 6.83035 7.72942C6.00749 8.07054 5.25982 8.57055 4.63001 9.2009C4.00022 9.83123 3.50064 10.5795 3.15979 11.4031C2.81896 12.2267 2.64352 13.1094 2.64352 14.0008C2.64352 14.8923 2.81896 15.7749 3.15979 16.5985C3.50064 17.4221 4.00022 18.1704 4.63001 18.8008C5.25982 19.4311 6.00749 19.9311 6.83035 20.2722C7.65321 20.6134 8.53516 20.7889 9.42584 20.7889H14.9936C15.3674 20.7815 15.7238 20.6298 15.9883 20.3654C16.2529 20.101 16.405 19.7445 16.413 19.3704V8.38478C16.4077 8.28675 16.4357 8.18983 16.4924 8.10973C16.5491 8.02966 16.6312 7.97114 16.7254 7.9437C16.953 7.88158 17.193 8.02238 17.3689 8.32058L20.8428 14.3114C22.8622 17.7966 24.1883 20.0849 24.205 20.1097C24.658 20.8759 25.3327 21.0105 25.8147 20.878C26.0902 20.8007 26.3321 20.6338 26.5022 20.4035C26.6723 20.1732 26.761 19.8928 26.754 19.6065V8.38685C26.7484 8.2891 26.7757 8.19226 26.8315 8.1119C26.8875 8.03155 26.9688 7.97232 27.0623 7.9437C27.2879 7.88158 27.5257 8.02238 27.6997 8.32058L30.919 13.8724L34.5377 20.1159C34.8915 20.7165 35.384 20.9298 35.8122 20.9298C35.9248 20.9298 36.037 20.9144 36.1454 20.8842C36.4244 20.8091 36.6702 20.6423 36.8433 20.4105C37.0162 20.1788 37.1062 19.8957 37.0993 19.6065V5.06734H39.2385L39.2324 19.6769Z" fill="#50575E"/>
</svg>
