<svg width="84" height="27" viewBox="0 0 84 27" fill="none" xmlns="http://www.w3.org/2000/svg">
<path fill-rule="evenodd" clip-rule="evenodd" d="M43.4616 7.9635L43.6383 8.48906L41.121 9.0584V9.0146L43.5499 7L43.6383 7.0438L43.4616 7.9635ZM5.77226 18.5592C6.06051 18.4388 6.32151 18.2624 6.53985 18.0404L7.59979 16.3323H7.68812V18.9601H7.59979L6.62818 18.3907C6.1364 18.8103 5.51037 19.0431 4.8616 19.0476C2.87423 19.0476 0.666016 17.6024 0.666016 15.0622C0.666016 12.5221 2.91839 11.0768 4.81745 11.0768C5.4323 11.0785 6.02674 11.2956 6.4957 11.69L7.51148 11.1644H7.59979V13.6608H7.51148L6.40737 11.9965C6.21122 11.7703 5.96683 11.59 5.69189 11.4688C5.41693 11.3477 5.11824 11.2886 4.81745 11.2958C2.87423 11.2958 2.43258 13.0038 2.43258 15.0184C2.43258 17.033 2.91839 18.7411 4.8616 18.7411C5.17438 18.7414 5.48403 18.6795 5.77226 18.5592ZM13.777 11.0353C11.9221 11.0353 9.71387 12.6119 9.71387 15.0207C9.71387 17.4295 11.9221 19.0061 13.777 19.0061C15.6319 19.0061 17.8401 17.4295 17.8401 15.0207C17.8401 12.6119 15.676 11.0353 13.777 11.0353ZM13.777 18.7433C11.9221 18.7433 11.4363 17.1229 11.4363 15.0207C11.4363 12.9185 11.9221 11.2981 13.777 11.2981C15.6319 11.2981 16.1177 12.9185 16.1177 15.0207C16.1177 17.1229 15.676 18.7433 13.777 18.7433ZM25.8402 11.3863H24.8686V11.1674H27.0769V11.3863H26.1493V19.0068H26.061L20.4964 11.3863V18.6564H21.468V18.8754H19.2598V18.6564H20.1872V11.3863H19.2598V11.1674H22.3513L25.7962 16.2039H25.8402V11.3863ZM32.242 11.1674H28.7528V11.3863H29.7688V18.6564H28.7528V18.8754H32.242C33.9643 18.8754 36.8349 18.1309 36.8349 14.9776C36.8349 11.8243 33.9643 11.1674 32.242 11.1674ZM32.1536 18.6564H31.3144V11.3863H32.1536C34.185 11.3863 35.1126 12.8316 35.1126 15.0214C35.1126 17.2112 34.185 18.6564 32.1536 18.6564ZM40.8527 18.6564H43.7677C44.3266 17.9386 44.7733 17.1414 45.0925 16.2915H45.1809V18.8754H38.2912V18.6564H39.3069V11.3863H38.2912V11.1674H44.9601V13.2258H44.8718C44.8718 13.2258 44.2092 11.8681 43.4584 11.3863H40.8527V14.6272H42.3102C42.7261 14.1873 43.0691 13.6847 43.3259 13.1382H43.4143V16.3353H43.3259C43.0691 15.7887 42.7261 15.2861 42.3102 14.8462H40.8527V18.6564ZM55.6938 11.3863H56.6652V16.2039H56.6211L53.1763 11.1674H50.0406V11.3863H51.0122V18.6564H50.0406V18.8754H52.2489V18.6564H51.3213V11.3863L56.8862 19.0068H56.9303V11.3863H57.9019V11.1674H55.6938V11.3863ZM62.8 10.8976H62.8883L66.4216 18.6056H67.3489V18.8246H63.7274V18.6056H64.7433L63.4625 15.8465H60.945L59.7526 18.6056H60.6359V18.8246H58.5602V18.6056H59.4876L62.8 10.8976ZM62.2258 12.9998L61.0774 15.6713H63.4182L62.2258 12.9998ZM72.8297 14.3679L71.2839 13.8424C70.533 13.5796 69.9147 13.2293 69.9147 12.4847C69.9147 11.7402 70.5773 11.2584 71.593 11.2584C71.8464 11.2374 72.1013 11.2738 72.3386 11.3649C72.5758 11.4559 72.789 11.5993 72.9621 11.784L74.0662 13.4482H74.1545V10.9957H74.0662L73.0505 11.5212C72.6467 11.1735 72.1277 10.9863 71.593 10.9957C71.2783 10.9779 70.9634 11.0234 70.6668 11.1293C70.3703 11.2353 70.0985 11.3995 69.8675 11.6122C69.6364 11.8248 69.4512 12.0816 69.3227 12.367C69.1944 12.6524 69.1254 12.9606 69.1198 13.273C69.1198 14.3679 69.9147 14.9373 70.754 15.2439L72.2996 15.8132C73.1388 16.1198 73.6687 16.4701 73.6687 17.2585C73.6687 18.0468 73.1388 18.7037 71.8138 18.7037C71.1703 18.6726 70.5526 18.443 70.0471 18.0468L68.899 16.1636H68.7664V18.8351H68.899L69.8707 18.3096C70.4061 18.7125 71.0539 18.9419 71.7254 18.9665C73.4037 18.9665 74.508 17.784 74.508 16.4701C74.508 15.1563 73.8011 14.6745 72.8297 14.3679ZM76.3163 13.5761V11.2112H83.5152V13.5761H83.4268C83.0492 12.8005 82.5902 12.0666 82.0577 11.3863H80.6885V18.6564H81.925V18.8754H77.9062V18.6564H79.1427V11.3863H77.7738C77.241 12.0666 76.7821 12.8005 76.4047 13.5761H76.3163Z" fill="#50575E"/>
</svg>
