<svg width="57" height="27" viewBox="0 0 57 27" fill="none" xmlns="http://www.w3.org/2000/svg">
<path d="M48.2196 13.002C47.2863 13.2188 44.8214 13.3393 44.8214 13.3393L44.5181 14.3191C44.5181 14.3191 45.7387 14.2147 46.6321 14.303C46.6321 14.303 46.9193 14.2789 46.9512 14.6242C46.9672 14.9776 46.9274 15.3471 46.9274 15.3471C46.9274 15.3471 46.9033 15.5639 46.6083 15.6201C46.2652 15.6763 43.9517 15.7807 43.9517 15.7807L43.5768 17.0497C43.5768 17.0497 43.4412 17.3388 43.7524 17.2585C44.0394 17.1782 46.4647 16.7124 46.7837 16.7766C47.1188 16.8569 47.5018 17.3227 47.39 17.7403C47.2624 18.2463 44.8372 19.8044 43.3695 19.6999C43.3695 19.6999 42.5956 19.7481 41.9495 18.6961C41.3272 17.6921 42.1648 15.8048 42.1648 15.8048C42.1648 15.8048 41.7898 14.9214 42.069 14.6001C42.069 14.6001 42.2287 14.4636 42.7074 14.4235L43.3056 13.1867C43.3056 13.1867 42.6276 13.2268 42.2287 12.7289C41.8618 12.247 41.8299 12.0382 42.1169 11.9097C42.4201 11.7491 45.2281 11.2431 47.1587 11.3074C47.1587 11.3074 47.8366 11.2271 48.4351 12.4077C48.4351 12.4077 48.7063 12.8895 48.2276 13.002H48.2196ZM40.9442 17.7564C40.7051 18.3427 40.043 18.9611 39.2452 18.5836C38.4315 18.1981 37.147 15.5639 37.147 15.5639C37.147 15.5639 36.6686 14.5841 36.5728 14.6162C36.5728 14.6162 36.4691 14.4235 36.4132 15.4997C36.3335 16.5678 36.4292 18.6479 35.9904 18.9771C35.5916 19.2984 35.113 19.1619 34.8418 18.7844C34.6182 18.4069 34.5225 17.4994 34.6503 15.9173C34.7939 14.3351 35.1528 12.6486 35.6074 12.1266C36.0861 11.5965 36.4691 11.982 36.6127 12.1266C36.6127 12.1266 37.227 12.6887 38.264 14.3512L38.4395 14.6564C38.4395 14.6564 39.3808 16.2385 39.4766 16.2305C39.4766 16.2305 39.5563 16.3108 39.6202 16.2466C39.7159 16.2225 39.6838 15.7085 39.6838 15.7085C39.6838 15.7085 39.5084 13.9978 38.631 11.1066C38.631 11.1066 38.5034 10.7372 38.5911 10.3838C38.6708 10.0626 39.0139 10.2232 39.0139 10.2232C39.0139 10.2232 40.338 10.8657 40.9843 13.0341C41.6224 15.2025 41.1916 17.1701 40.9522 17.7564H40.9442ZM34.4508 12.1908C34.3232 12.4157 34.2673 12.7289 33.717 12.8172C33.717 12.8172 28.3722 13.1947 28.1088 13.5722C28.1088 13.5722 27.9333 13.7971 28.2206 13.8533C28.5236 13.9175 29.7363 14.0781 30.3105 14.1103C30.9328 14.1103 33.0228 14.1263 33.7887 15.074C33.7887 15.074 34.2275 15.5237 34.2115 16.5437C34.1954 17.5878 34.012 17.9572 33.6052 18.3346C33.1824 18.688 29.5607 20.3264 27.2233 17.8206C27.2233 17.8206 26.1544 16.616 27.5983 15.7004C27.5983 15.7004 28.6353 15.0579 31.2917 15.8048C31.2917 15.8048 32.0894 16.094 32.0576 16.3911C32.0097 16.7124 31.3955 17.0336 30.502 17.0175C29.6406 16.9934 29.0023 16.5758 29.1298 16.6481C29.2496 16.6883 28.1965 16.1341 27.8694 16.5116C27.5504 16.865 27.6301 17.0737 27.9494 17.2906C28.7471 17.7564 31.8822 17.5878 32.8155 16.5357C32.8155 16.5357 33.1904 16.11 32.624 15.7647C32.0656 15.4434 30.4383 15.2426 29.808 15.2185C29.2098 15.1864 26.9682 15.2185 26.6331 14.6323C26.6331 14.6323 26.3141 14.2147 26.6649 13.0742C27.0319 11.8696 29.6406 11.4038 30.7732 11.3074C30.7732 11.3074 33.8844 11.1789 34.4668 11.8214C34.4668 11.8214 34.5465 11.9659 34.4508 12.1828V12.1908ZM25.6279 19.2502C25.2529 19.5313 24.4552 19.4108 24.2239 19.0896C24.0006 18.8085 23.9208 17.7002 23.9607 15.9574C24.0166 14.1745 24.0404 11.99 24.4394 11.6367C24.8381 11.2913 25.0775 11.5965 25.2369 11.8294C25.3965 12.0703 25.604 12.3354 25.6359 12.8895C25.6837 13.4517 25.8193 16.3429 25.8193 16.3429C25.8193 16.3429 25.9948 18.9771 25.6359 19.2502H25.6279ZM26.4256 9.85374C25.3248 10.2312 24.575 10.1108 23.9367 9.82965C23.6575 10.3356 23.49 10.4882 23.2825 10.5203C22.9635 10.5525 22.6843 10.0385 22.6444 9.87784C22.5806 9.75738 22.429 9.54052 22.6125 9.05062C21.9903 8.48844 21.9424 7.73351 22.0541 7.22757C22.1976 6.63324 23.2507 4.40059 26.4416 4.13556C26.4416 4.13556 28.005 4.02312 28.2764 4.85837H28.3243C28.3243 4.85837 29.8398 4.85837 29.808 6.22366C29.808 7.58896 28.1328 9.29156 26.4256 9.87784V9.85374ZM27.8456 5.96667C26.8404 6.1273 25.2928 7.47653 24.5509 8.59285C25.6918 8.80166 27.686 8.72135 28.5795 6.90632C28.5795 6.90632 29.0023 5.76588 27.8456 5.96667ZM23.4341 6.85008C23.1151 7.37212 23.0991 7.68534 23.2507 7.89414C23.6256 7.33195 24.2878 6.44854 25.2848 5.75786C24.5191 5.83817 23.873 6.15942 23.4341 6.85008ZM50.6128 19.194C49.879 21.009 49.2567 22.8482 48.8978 25.6028C48.8978 25.6028 48.8181 26.141 48.3792 25.9641C47.9404 25.8036 47.2226 25.0808 47.0629 24.0609C46.9033 22.7277 47.4938 20.479 48.6983 17.8929C48.3474 17.3308 48.1 16.4955 48.2995 15.323C48.2995 15.323 48.6186 13.1546 50.7724 11.195C50.7724 11.195 51.0276 10.9781 51.1712 11.0504C51.3468 11.1307 51.2749 11.8214 51.1313 12.1747C51.0037 12.5121 50.0464 14.1825 50.0464 14.1825C50.0464 14.1825 49.4481 15.323 49.6156 16.2144C50.7484 14.4636 53.325 10.9138 54.9205 12.0382C55.9338 12.761 55.9338 15.0901 55.1759 16.4393C54.5776 17.5074 52.8864 19.716 50.6288 19.202L50.6128 19.194ZM53.9473 13.7408C53.3571 14.3833 52.304 15.6041 51.4744 17.2585C52.3519 17.1621 53.2055 16.6722 53.4686 16.4232C53.8914 16.0458 54.8648 15.0258 54.7132 13.6766C54.7132 13.6766 54.6175 12.9698 53.9473 13.7408ZM18.209 20.1416C15.385 21.009 12.7206 20.6075 11.2687 20.222C11.2289 20.8163 11.165 21.0652 11.0693 21.1616C10.9576 21.2901 10.0322 21.8202 9.5217 21.0652C9.29835 20.7038 9.18667 20.0533 9.12284 19.459C5.85215 17.9652 4.33645 15.7647 4.28858 15.6844C4.20881 15.6041 3.46694 14.825 4.20881 13.8613C4.90284 12.9939 7.2003 12.1185 9.25845 11.7732C9.33822 10.0063 9.52967 8.64104 9.77699 8.03871C10.0721 7.3159 10.4471 7.9584 10.7821 8.44027C11.0533 8.80166 11.2209 10.3517 11.2368 11.5885C12.577 11.5242 13.3907 11.6206 14.8825 11.9097C16.8449 12.247 18.1532 13.259 18.0494 14.3994C17.9537 15.5237 16.9326 15.9895 16.5338 16.0217C16.1349 16.0538 15.4967 15.7566 15.4967 15.7566C15.05 15.5478 15.4568 15.3551 15.9754 15.1302C16.5497 14.8491 16.4221 14.568 16.4221 14.568C16.2147 13.9255 13.6699 13.4999 11.1411 13.4999C11.1411 14.9053 11.1969 17.2344 11.2368 18.5916C13.0078 18.9289 14.332 18.8567 14.332 18.8567C14.332 18.8567 20.7937 18.672 20.9771 14.5199C21.1766 10.3597 14.5155 6.37626 9.60945 5.12339C4.71138 3.83038 1.93528 4.74593 1.69596 4.8664C1.43271 4.9949 1.67203 5.04308 1.67203 5.04308C1.67203 5.04308 1.93528 5.08324 2.41392 5.24387C2.89256 5.40449 2.50965 5.64543 2.50965 5.64543C1.67203 5.93453 0.738686 5.76588 0.555208 5.38039C0.37173 5.00293 0.674868 4.65759 1.03385 4.15162C1.36889 3.6296 1.7518 3.64566 1.7518 3.64566C7.81456 1.5174 15.2175 5.3322 15.2175 5.3322C22.1418 8.84985 23.3224 12.9859 23.1948 14.5921C23.083 16.1743 22.4769 18.8486 18.209 20.1497V20.1416ZM4.88689 14.3994C4.20084 14.7206 4.67948 15.2346 4.67948 15.2346C5.9718 16.624 7.5513 17.4994 9.067 18.0455C9.24251 15.6362 9.22654 14.7768 9.22654 13.5641C6.88121 13.7248 5.52508 14.1103 4.88689 14.3994Z" fill="#50575E"/>
</svg>
