<svg width="78" height="27" viewBox="0 0 78 27" fill="none" xmlns="http://www.w3.org/2000/svg">
<mask id="mask0_233_14595" style="mask-type:alpha" maskUnits="userSpaceOnUse" x="0" y="10" width="77" height="9">
<path d="M76.9837 10H0.5V18.1053H76.9837V10Z" fill="white"/>
</mask>
<g mask="url(#mask0_233_14595)">
<path fill-rule="evenodd" clip-rule="evenodd" d="M6.56852 10.2576V11.2848C6.56852 11.3518 6.52211 11.3964 6.45265 11.3964H1.87805V13.4953H5.65369C5.72317 13.4953 5.76942 13.54 5.76942 13.607V14.6341C5.76942 14.7011 5.72317 14.7457 5.65369 14.7457H1.87805V17.8494C1.87805 17.9164 1.83193 17.961 1.76232 17.961H0.615731C0.546263 17.961 0.5 17.9164 0.5 17.8494V10.2576C0.5 10.1907 0.546263 10.1459 0.615731 10.1459H6.45265C6.52211 10.1459 6.56852 10.1907 6.56852 10.2576Z" fill="#50575E"/>
<path fill-rule="evenodd" clip-rule="evenodd" d="M13.4785 14.6562C13.0558 13.5287 12.5868 12.401 12.106 11.3738H11.834C11.3533 12.401 10.8785 13.5287 10.4558 14.6562H13.4785ZM15.9047 17.9608H14.6424C14.5729 17.9608 14.5266 17.9273 14.5093 17.8603C14.3413 17.2184 14.1386 16.543 13.907 15.8619H10.0331C9.80149 16.543 9.59868 17.2184 9.43654 17.8603C9.41921 17.9273 9.37294 17.9608 9.30348 17.9608H8.08743C8.00636 17.9608 7.95994 17.9162 7.98315 17.8381C8.71279 15.3484 9.82455 12.6021 10.9479 10.2911C11.0001 10.1849 11.0638 10.1459 11.1738 10.1459H12.8183C12.9283 10.1459 12.992 10.1849 13.0442 10.2911C14.1792 12.5964 15.2736 15.3484 16.009 17.8381C16.0322 17.9162 15.9858 17.9608 15.9047 17.9608Z" fill="#50575E"/>
<path fill-rule="evenodd" clip-rule="evenodd" d="M17.9731 14.1203C17.9731 11.6976 19.6292 10.0006 21.9918 10.0006H22.1655C23.648 10.0006 24.7946 10.7263 25.4024 11.7757C25.4429 11.8427 25.4313 11.8986 25.362 11.932L24.3428 12.4176C24.2733 12.4512 24.1863 12.4512 24.14 12.3675C23.7117 11.653 23.0688 11.2734 22.1192 11.2734H21.9454C20.4572 11.2734 19.4324 12.4121 19.4324 14.0645C19.4324 15.7222 20.4399 16.8332 21.9454 16.8332H22.1192C23.092 16.8332 23.6594 16.5149 24.0937 16.0293C24.1516 15.9679 24.2154 15.9568 24.2849 15.9902L25.3329 16.4815C25.3734 16.5038 25.3908 16.5317 25.3908 16.5595C25.3908 16.5876 25.3792 16.6099 25.3561 16.6433C24.7134 17.5476 23.5552 18.1059 22.1424 18.1059H21.9686C19.5655 18.1059 17.9731 16.5149 17.9731 14.1203Z" fill="#50575E"/>
<path fill-rule="evenodd" clip-rule="evenodd" d="M34.6275 16.8222V17.8494C34.6275 17.9164 34.581 17.9609 34.5114 17.9609H28.4314C28.3618 17.9609 28.3156 17.9164 28.3156 17.8494V10.2576C28.3156 10.1907 28.3618 10.1459 28.4314 10.1459H34.4072C34.4767 10.1459 34.523 10.1907 34.523 10.2576V11.2848C34.523 11.3518 34.4767 11.3964 34.4072 11.3964H29.6936V13.4282H33.527C33.5965 13.4282 33.643 13.4729 33.643 13.5399V14.5558C33.643 14.6228 33.5965 14.6675 33.527 14.6675H29.6936V16.7105H34.5114C34.581 16.7105 34.6275 16.7551 34.6275 16.8222Z" fill="#50575E"/>
<path fill-rule="evenodd" clip-rule="evenodd" d="M43.6882 15.7001C43.6882 14.9745 43.1904 14.645 42.0959 14.645H39.3684V16.7439H42.0959C43.2078 16.7439 43.6882 16.4313 43.6882 15.7001ZM41.7079 11.3628H39.3684V13.4617H41.7079C42.7561 13.4617 43.2364 13.1324 43.2364 12.4123C43.2364 11.6921 42.7561 11.3628 41.7079 11.3628ZM45.1011 15.8173C45.1011 17.185 44.0127 17.961 42.0901 17.961H38.1062C38.0366 17.961 37.9904 17.9162 37.9904 17.8494V10.2576C37.9904 10.1905 38.0366 10.1459 38.1062 10.1459H41.7369C43.6072 10.1459 44.6263 10.8605 44.6263 12.1667C44.6263 13.0264 44.1748 13.5901 43.2599 13.8525C44.5451 14.1148 45.1011 14.8573 45.1011 15.8173Z" fill="#50575E"/>
<path fill-rule="evenodd" clip-rule="evenodd" d="M51.8672 16.8332C53.5291 16.8332 54.577 15.7334 54.577 14.0533C54.577 12.3731 53.5291 11.2733 51.8672 11.2733H51.6934C50.0314 11.2733 48.9834 12.3731 48.9834 14.0533C48.9834 15.7334 50.0314 16.8332 51.6934 16.8332H51.8672ZM47.5244 14.0533C47.5244 11.6976 49.1456 10.0006 51.6934 10.0006H51.8672C54.4149 10.0006 56.0365 11.6976 56.0365 14.0533C56.0365 16.4089 54.4149 18.1059 51.8672 18.1059H51.6934C49.1456 18.1059 47.5244 16.4089 47.5244 14.0533Z" fill="#50575E"/>
<path fill-rule="evenodd" clip-rule="evenodd" d="M62.7332 16.8332C64.395 16.8332 65.443 15.7334 65.443 14.0533C65.443 12.3731 64.395 11.2733 62.7332 11.2733H62.5592C60.8973 11.2733 59.8494 12.3731 59.8494 14.0533C59.8494 15.7334 60.8973 16.8332 62.5592 16.8332H62.7332ZM58.3901 14.0533C58.3901 11.6976 60.0115 10.0006 62.5592 10.0006H62.7332C65.281 10.0006 66.9024 11.6976 66.9024 14.0533C66.9024 16.4089 65.281 18.1059 62.7332 18.1059H62.5592C60.0115 18.1059 58.3901 16.4089 58.3901 14.0533Z" fill="#50575E"/>
<path fill-rule="evenodd" clip-rule="evenodd" d="M76.8847 17.9609H75.3908C75.2922 17.9609 75.2517 17.9386 75.188 17.8661C74.14 16.6771 72.9008 15.4937 71.8468 14.6228H71.1753V17.8494C71.1753 17.9164 71.129 17.9609 71.0594 17.9609H69.9128C69.8435 17.9609 69.797 17.9164 69.797 17.8494V10.2576C69.797 10.1907 69.8435 10.1459 69.9128 10.1459H71.0594C71.129 10.1459 71.1753 10.1907 71.1753 10.2576V13.339H71.8585C72.9876 12.3566 74.03 11.2958 74.8811 10.2297C74.9391 10.1571 74.9854 10.1459 75.0549 10.1459H76.4676C76.5374 10.1459 76.5721 10.1795 76.5721 10.2242C76.5721 10.2465 76.5604 10.2743 76.5316 10.3079C75.2866 11.7871 74.0532 12.9985 72.9125 13.9363C74.3482 15.1086 75.7093 16.4146 76.9487 17.8214C77.0119 17.894 76.9773 17.9609 76.8847 17.9609Z" fill="#50575E"/>
</g>
</svg>
