<svg width="248" height="148" viewBox="0 0 248 148" fill="none" xmlns="http://www.w3.org/2000/svg">
<path d="M86.7552 26.1547C86.9151 26.0537 87.1004 26 87.2896 26H207.547C208.549 26 208.928 27.3098 208.081 27.8453L124.245 80.8453C124.085 80.9463 123.9 81 123.71 81H3.45323C2.45123 81 2.07191 79.6902 2.91886 79.1547L86.7552 26.1547Z" fill="white" stroke="#003A5F" stroke-width="1.8" stroke-miterlimit="10" stroke-linecap="round" stroke-linejoin="round"/>
<path d="M90.6919 27H198L126.308 73H14L90.6919 27Z" fill="#F2F2F2"/>
<path d="M86.7552 14.1547C86.9151 14.0537 87.1004 14 87.2896 14H207.547C208.549 14 208.928 15.3098 208.081 15.8453L124.245 68.8453C124.085 68.9463 123.9 69 123.71 69H3.45323C2.45123 69 2.07191 67.6902 2.91886 67.1547L86.7552 14.1547Z" fill="white" stroke="#003A5F" stroke-width="1.8" stroke-miterlimit="10" stroke-linecap="round" stroke-linejoin="round"/>
<path d="M90.6919 15H198L126.308 61H14L90.6919 15Z" fill="#8BBECE"/>
<path d="M86.7552 1.15474C86.9151 1.05366 87.1004 1 87.2896 1H207.547C208.549 1 208.928 2.30983 208.081 2.84526L124.245 55.8453C124.085 55.9463 123.9 56 123.71 56H3.45323C2.45123 56 2.07191 54.6902 2.91886 54.1547L86.7552 1.15474Z" fill="white" stroke="#003A5F" stroke-width="1.8" stroke-miterlimit="10" stroke-linecap="round" stroke-linejoin="round"/>
<path d="M86.7552 1.15474C86.9151 1.05366 87.1004 1 87.2896 1H207.547C208.549 1 208.928 2.30983 208.081 2.84526L124.245 55.8453C124.085 55.9463 123.9 56 123.71 56H3.45323C2.45123 56 2.07191 54.6902 2.91886 54.1547L86.7552 1.15474Z" fill="white" stroke="#003A5F" stroke-width="1.8" stroke-miterlimit="10" stroke-linecap="round" stroke-linejoin="round"/>
<path d="M92.3934 2H193L55.6066 47H21L92.3934 2Z" fill="url(#paint0_linear_2683_63674)"/>
<path d="M59.3689 32.5927C59.0458 32.7196 59.1131 33.2745 59.4656 33.2973L126.446 33.6879L116.633 21.7973L108.155 23.993L99.5527 15.859C99.5527 15.859 66.2524 29.8445 59.3689 32.5927Z" fill="white" stroke="#003A5F" stroke-width="1.8" stroke-miterlimit="10" stroke-linecap="round" stroke-linejoin="round"/>
<path d="M95.9932 17.7042L106.956 28.0258L119.116 25.0198L126.447 33.6881L59.3696 32.5929" fill="#003B62"/>
<path d="M124.753 18.3515C125.568 20.0403 128.14 20.4875 130.498 19.3503C132.857 18.2132 134.109 15.9224 133.295 14.2336C132.48 12.5448 129.908 12.0976 127.55 13.2347C125.191 14.3719 123.939 16.6627 124.753 18.3515Z" fill="white" stroke="#003B62" stroke-width="1.8" stroke-miterlimit="10" stroke-linecap="round" stroke-linejoin="round"/>
<defs>
<linearGradient id="paint0_linear_2683_63674" x1="157.49" y1="-3.07042" x2="84.2888" y2="86.2378" gradientUnits="userSpaceOnUse">
<stop stop-color="#ECECEC"/>
<stop offset="1" stop-color="#F2F2F2"/>
</linearGradient>
</defs>
</svg>
