<svg width="24" height="24" viewBox="0 0 24 24" fill="none" xmlns="http://www.w3.org/2000/svg">
<rect width="24" height="24" rx="4" fill="#0675C4"/>
<path d="M18 14.8006V9.19943C17.9998 8.95387 17.938 8.71269 17.821 8.5001C17.704 8.2875 17.5358 8.11096 17.3333 7.98818L12.6667 5.1876C12.464 5.0647 12.234 5 12 5C11.766 5 11.536 5.0647 11.3333 5.1876L6.66667 7.98818C6.46418 8.11096 6.29599 8.2875 6.17897 8.5001C6.06196 8.71269 6.00024 8.95387 6 9.19943V14.8006C6.00024 15.0461 6.06196 15.2873 6.17897 15.4999C6.29599 15.7125 6.46418 15.889 6.66667 16.0118L11.3333 18.8124C11.536 18.9353 11.766 19 12 19C12.234 19 12.464 18.9353 12.6667 18.8124L17.3333 16.0118C17.5358 15.889 17.704 15.7125 17.821 15.4999C17.938 15.2873 17.9998 15.0461 18 14.8006Z" stroke="white" stroke-linecap="round" stroke-linejoin="round"/>
<path d="M6 9L12 12L18 9" stroke="white" stroke-linecap="round" stroke-linejoin="round"/>
<path d="M12 19V12" stroke="white" stroke-linecap="round" stroke-linejoin="round"/>
</svg>
