<svg width="39" height="27" viewBox="0 0 39 27" fill="none" xmlns="http://www.w3.org/2000/svg">
<path d="M25.2187 12.6117C25.2187 12.9917 25.1405 13.2926 24.988 13.5041C24.8364 13.7139 24.6076 13.8162 24.2885 13.8162C23.9693 13.8162 23.7414 13.7139 23.5919 13.5041C23.4403 13.2926 23.364 12.9917 23.364 12.6117C23.364 12.2317 23.4403 11.9325 23.5908 11.7227C23.7406 11.5155 23.9685 11.4141 24.2885 11.4141C24.6076 11.4141 24.8364 11.5147 24.988 11.7227C25.1405 11.9325 25.2187 12.2325 25.2187 12.6117Z" fill="#50575E"/>
<path d="M32.1641 12.2453C32.1988 12.0338 32.2619 11.8584 32.3607 11.7217C32.5096 11.5136 32.7364 11.3984 33.0566 11.3984C33.3758 11.3984 33.5865 11.5136 33.7382 11.7217C33.8389 11.8593 33.8821 12.0415 33.9001 12.2461L32.1641 12.2453Z" fill="#50575E"/>
<path d="M14.8599 11.7217C14.762 11.8584 14.6989 12.0338 14.6641 12.2453L16.3992 12.2461C16.3823 12.0415 16.338 11.8593 16.2382 11.7217C16.0866 11.5136 15.8748 11.3984 15.5556 11.3984C15.2365 11.3984 15.0096 11.5136 14.8599 11.7217Z" fill="#50575E"/>
<path d="M9.87776 13.6948C9.78189 13.6253 9.76953 13.608 9.73764 13.5635C9.6887 13.4956 9.66406 13.3982 9.66406 13.2744C9.66406 13.0792 9.73466 12.9382 9.88153 12.8445C9.88059 12.8445 10.0915 12.6777 10.5876 12.6838C10.936 12.6881 11.2485 12.7353 11.2485 12.7353V13.7455C11.2485 13.7455 10.9398 13.8057 10.5914 13.8246C10.0962 13.8513 9.87588 13.6939 9.87776 13.6948Z" fill="#50575E"/>
<path fill-rule="evenodd" clip-rule="evenodd" d="M16.2542 2.92656C17.475 1.63867 19.1747 0.839969 21.0542 0.839969C23.5535 0.839969 25.7338 2.25081 26.8942 4.346C27.9038 3.88949 29.02 3.63584 30.1951 3.63584C34.7022 3.63584 38.3569 7.36886 38.3569 11.9728C38.3569 16.5776 34.703 20.3107 30.1951 20.3107C29.645 20.3107 29.1075 20.2539 28.5871 20.1481C27.565 21.9948 25.6165 23.2422 23.3795 23.2422C22.4441 23.2422 21.5585 23.0238 20.7699 22.6336C19.7341 25.1027 17.3188 26.8343 14.5045 26.8343C11.5739 26.8343 9.07538 24.9567 8.1169 22.3225C7.69835 22.4117 7.26369 22.4592 6.81799 22.4592C3.32875 22.4592 0.5 19.5644 0.5 15.9938C0.5 13.6003 1.77005 11.5111 3.65899 10.3934C3.27017 9.48726 3.05454 8.48739 3.05454 7.43591C3.05539 3.32978 6.34765 0 10.4074 0C12.7921 0 14.9103 1.14776 16.2542 2.92656ZM5.98341 13.9149C5.96379 13.9667 5.98235 13.9846 5.99371 13.9955C5.99612 13.9978 5.99821 13.9998 5.99954 14.0018C6.0576 14.0445 6.11566 14.0775 6.17465 14.111L6.19989 14.1254L6.21517 14.1342C6.60147 14.3414 6.96652 14.4016 7.34769 14.4016C8.12449 14.4016 8.60671 13.9837 8.60671 13.3105V13.2977C8.60671 12.6752 8.06168 12.4482 7.55144 12.2849L7.48438 12.2634C7.09896 12.137 6.76701 12.0269 6.76701 11.7707V11.7578C6.76701 11.5377 6.96142 11.3761 7.26195 11.3761C7.59645 11.3761 7.9929 11.4887 8.24844 11.6323C8.24844 11.6323 8.324 11.6813 8.35117 11.6074C8.36645 11.567 8.49549 11.2153 8.50907 11.1767C8.52352 11.1354 8.49804 11.1045 8.47087 11.0881C8.17883 10.9084 7.77557 10.7855 7.35789 10.7855L7.28063 10.7863C6.56919 10.7863 6.0734 11.2214 6.0734 11.8447V11.8576C6.0734 12.5136 6.62097 12.7276 7.13376 12.8755L7.2161 12.9013C7.58965 13.0174 7.91226 13.118 7.91226 13.3836V13.3974C7.91226 13.6407 7.70256 13.8221 7.36552 13.8221C7.23393 13.8221 6.81625 13.8195 6.36544 13.5306C6.33583 13.5128 6.31302 13.4978 6.29152 13.4837C6.27364 13.4719 6.25652 13.4607 6.23725 13.449C6.21517 13.4352 6.15914 13.4103 6.13453 13.4842L5.98341 13.9149ZM17.3622 13.9955C17.3508 13.9846 17.3323 13.9667 17.3519 13.9149L17.5038 13.4842C17.5259 13.4137 17.5921 13.4404 17.6057 13.449C17.6184 13.4571 17.6302 13.4648 17.6421 13.4726C17.6691 13.4902 17.6962 13.508 17.7339 13.5306C18.1856 13.8195 18.6024 13.8221 18.734 13.8221C19.0719 13.8221 19.2816 13.6407 19.2816 13.3974V13.3836C19.2816 13.118 18.9581 13.0174 18.5846 12.9013L18.5022 12.8755C17.9903 12.7276 17.4419 12.5136 17.4419 11.8576V11.8447C17.4419 11.2214 17.9377 10.7863 18.6491 10.7863L18.7263 10.7855C19.144 10.7855 19.5473 10.9084 19.8393 11.0881C19.8665 11.1045 19.892 11.1354 19.8775 11.1767C19.864 11.2153 19.7349 11.567 19.7196 11.6074C19.6925 11.6813 19.6169 11.6323 19.6169 11.6323C19.3614 11.4887 18.9649 11.3761 18.6304 11.3761C18.3299 11.3761 18.1355 11.5377 18.1355 11.7578V11.7707C18.1355 12.0269 18.4674 12.137 18.8528 12.2634L18.9199 12.2849C19.4301 12.4482 19.9753 12.6752 19.9753 13.2977V13.3105C19.9753 13.9837 19.493 14.4016 18.7162 14.4016C18.335 14.4016 17.9699 14.3414 17.5836 14.1342C17.5701 14.1263 17.5566 14.1187 17.5431 14.111C17.4841 14.0775 17.4261 14.0445 17.368 14.0018C17.3667 13.9998 17.3646 13.9978 17.3622 13.9955ZM25.761 11.8911C25.6973 11.6727 25.598 11.481 25.4662 11.3211C25.3347 11.1603 25.1667 11.0314 24.9679 10.9377C24.7701 10.8439 24.5359 10.7967 24.2736 10.7967C24.0103 10.7967 23.776 10.8448 23.5782 10.9377C23.3804 11.0314 23.2124 11.1603 23.0807 11.3211C22.9484 11.481 22.8489 11.6736 22.7861 11.8911C22.7224 12.1078 22.6901 12.3451 22.6901 12.5961C22.6901 12.8471 22.7224 13.0853 22.7861 13.3019C22.8499 13.5195 22.9484 13.7112 23.0807 13.872C23.2124 14.0327 23.3804 14.1608 23.579 14.252C23.777 14.3431 24.0113 14.3895 24.2743 14.3895C24.5366 14.3895 24.7701 14.3431 24.9689 14.252C25.1667 14.1608 25.3347 14.0319 25.4672 13.872C25.5988 13.712 25.699 13.5195 25.7618 13.3019C25.8255 13.0853 25.8578 12.848 25.8578 12.5961C25.8568 12.3451 25.8245 12.1078 25.761 11.8911ZM31.0007 13.6596C31.0007 13.6596 31.0627 13.6355 31.084 13.6992L31.241 14.1436C31.2613 14.1987 31.2145 14.2219 31.2145 14.2219C30.9692 14.3199 30.6289 14.3878 30.2969 14.3878C29.7348 14.3878 29.3045 14.2236 29.0175 13.8995C28.7304 13.5779 28.5862 13.1377 28.5862 12.5935C28.5862 12.3416 28.6219 12.1035 28.6924 11.8868C28.7629 11.6693 28.8682 11.4776 29.0072 11.3168C29.1465 11.156 29.3223 11.0271 29.5295 10.9342C29.7373 10.8405 29.9803 10.7932 30.2519 10.7932C30.4344 10.7932 30.5992 10.8044 30.7384 10.8259C30.8887 10.8491 31.0865 10.9033 31.1705 10.9368C31.1865 10.9428 31.2282 10.9643 31.2112 11.0142C31.1601 11.1631 31.1224 11.2674 31.0768 11.3933L31.0515 11.463C31.0277 11.53 30.9769 11.5077 30.9769 11.5077C30.7629 11.4406 30.5592 11.4088 30.2919 11.4088C29.9718 11.4088 29.7306 11.518 29.5728 11.7295C29.414 11.9427 29.3248 12.2221 29.324 12.5935C29.323 13.0019 29.4242 13.3037 29.6025 13.4911C29.7816 13.6776 30.0311 13.7722 30.3444 13.7722C30.4726 13.7722 30.5914 13.7636 30.6992 13.7464C30.8062 13.7292 30.9065 13.6966 31.0007 13.6596ZM34.3999 11.7673C34.3447 11.5567 34.2089 11.3443 34.1197 11.2472C33.9789 11.0924 33.8396 10.9849 33.7028 10.9256C33.5246 10.8482 33.3098 10.7967 33.0738 10.7967C32.8005 10.7967 32.5517 10.8431 32.3497 10.9394C32.1476 11.0348 31.9778 11.1663 31.8446 11.3297C31.7113 11.4922 31.6111 11.6865 31.5473 11.9066C31.4838 12.125 31.4515 12.3631 31.4515 12.615C31.4515 12.8712 31.4845 13.1102 31.5508 13.3243C31.6178 13.541 31.724 13.731 31.8683 13.8892C32.0126 14.0482 32.1986 14.172 32.4201 14.2597C32.6409 14.3457 32.9092 14.3912 33.2165 14.3895C33.8498 14.3878 34.1844 14.2451 34.3219 14.1677C34.3464 14.154 34.3694 14.1299 34.3404 14.0611L34.1961 13.6544C34.1741 13.5943 34.1139 13.6158 34.1139 13.6158C34.1063 13.6186 34.0986 13.6215 34.0909 13.6245L34.0721 13.6318C33.9167 13.6923 33.6891 13.7807 33.213 13.78C32.8727 13.7791 32.6204 13.6777 32.4626 13.5186C32.3004 13.3561 32.2206 13.1171 32.2071 12.7801L34.4007 12.7818C34.4007 12.7818 34.4584 12.781 34.4644 12.7233L34.4648 12.7204C34.4718 12.6757 34.5369 12.2536 34.3999 11.7673ZM16.5471 11.2472C16.6362 11.3443 16.772 11.5567 16.8272 11.7673C16.9642 12.2536 16.8991 12.6757 16.8922 12.7204L16.8918 12.7233C16.8858 12.781 16.8281 12.7818 16.8281 12.7818L14.6344 12.7801C14.6479 13.1171 14.7278 13.3561 14.8899 13.5186C15.0478 13.6777 15.3008 13.7791 15.6404 13.78C16.1165 13.7807 16.3439 13.6923 16.4994 13.6318L16.514 13.6262L16.526 13.6215L16.5411 13.6158C16.5411 13.6158 16.6014 13.5943 16.6235 13.6544L16.7678 14.0611C16.7967 14.1299 16.7737 14.154 16.7491 14.1677C16.6116 14.2451 16.2771 14.3878 15.6438 14.3895C15.3365 14.3912 15.0682 14.3457 14.8474 14.2597C14.6259 14.172 14.4399 14.0482 14.2956 13.8892C14.1513 13.731 14.0452 13.541 13.9781 13.3243C13.9119 13.1102 13.8788 12.8712 13.8788 12.615C13.8788 12.3631 13.911 12.125 13.9747 11.9066C14.0384 11.6865 14.1386 11.4922 14.2718 11.3297C14.4051 11.1663 14.5749 11.0348 14.777 10.9394C14.979 10.8431 15.2278 10.7967 15.502 10.7967C15.7372 10.7967 15.9511 10.8482 16.1302 10.9256C16.2678 10.9849 16.4062 11.0924 16.5471 11.2472ZM10.775 12.1258C10.6859 12.1189 10.5704 12.1155 10.4329 12.1155C10.2444 12.1155 10.0627 12.1396 9.89209 12.186C9.72059 12.2324 9.56692 12.3046 9.4345 12.4009C9.30121 12.4981 9.19424 12.621 9.11613 12.768C9.03803 12.9142 8.99897 13.087 8.99897 13.2796C8.99897 13.4765 9.03208 13.6475 9.10001 13.7868C9.16707 13.927 9.263 14.0448 9.3861 14.1342C9.50836 14.2244 9.65861 14.2906 9.83265 14.3302C10.005 14.3706 10.2003 14.3904 10.4142 14.3904C10.6392 14.3904 10.8633 14.3714 11.0806 14.3336C11.2963 14.2967 11.5595 14.2425 11.6333 14.2253C11.7063 14.2081 11.787 14.1857 11.787 14.1857C11.8413 14.172 11.8371 14.1127 11.8371 14.1127L11.8362 12.0811C11.8362 11.6349 11.7191 11.3048 11.4881 11.0993C11.2581 10.8955 10.9185 10.7923 10.4796 10.7923C10.3149 10.7923 10.0508 10.8147 9.89124 10.8474C9.89124 10.8474 9.41242 10.9411 9.21545 11.0984C9.21545 11.0984 9.17217 11.1251 9.19509 11.187L9.35044 11.6099C9.36997 11.665 9.4226 11.6461 9.4226 11.6461C9.4226 11.6461 9.43958 11.6392 9.45911 11.6272C9.88104 11.395 10.4151 11.4019 10.4151 11.4019C10.6519 11.4019 10.8344 11.4509 10.9575 11.5455C11.0772 11.6392 11.1375 11.7785 11.1375 12.0751V12.1688C10.949 12.1413 10.775 12.1258 10.775 12.1258ZM28.4403 10.9007C28.4546 10.9067 28.4904 10.9308 28.4734 10.9806C28.4529 11.0408 28.3461 11.3452 28.3086 11.4475C28.2943 11.4853 28.2704 11.512 28.2281 11.5077C28.2281 11.5077 28.1023 11.4776 27.9868 11.4776C27.908 11.4776 27.795 11.4879 27.6932 11.5197C27.593 11.5507 27.5013 11.6057 27.4215 11.6848C27.3417 11.7639 27.2772 11.8731 27.2297 12.0115C27.1812 12.1508 27.1567 12.3717 27.1567 12.5944V14.2502C27.1567 14.2872 27.1269 14.3173 27.0904 14.3173H26.5139C26.4766 14.3173 26.4469 14.2872 26.4469 14.2502V10.9351C26.4469 10.8981 26.4731 10.868 26.5096 10.868H27.0727C27.1092 10.868 27.1354 10.8981 27.1354 10.9351L27.1362 11.2059C27.2195 11.0916 27.3697 10.991 27.5065 10.9291C27.644 10.8672 27.7968 10.8199 28.0726 10.8371C28.2161 10.8465 28.4029 10.8869 28.4403 10.9007ZM23.0619 9.44428C22.9914 9.42194 22.9287 9.40732 22.8447 9.39272C22.7599 9.37724 22.6596 9.36864 22.5466 9.36864C22.1503 9.36864 21.837 9.48212 21.618 9.70652C21.3997 9.92919 21.2512 10.2679 21.1764 10.7141L21.1502 10.8646H20.6518C20.6518 10.8646 20.5906 10.862 20.5779 10.9291L20.4964 11.3907C20.4906 11.4346 20.5091 11.4621 20.5678 11.4621H21.0524L20.5601 14.2434C20.5219 14.4669 20.4778 14.6509 20.4286 14.791C20.3811 14.9294 20.3333 15.0318 20.2758 15.1074C20.2196 15.1796 20.167 15.2338 20.0745 15.2648C19.999 15.2897 19.9115 15.3017 19.8165 15.3017C19.7638 15.3017 19.6933 15.2931 19.6407 15.282C19.5908 15.2722 19.5638 15.2609 19.5279 15.2458L19.5218 15.2433C19.5218 15.2433 19.4649 15.2209 19.442 15.2785C19.4242 15.3258 19.2952 15.686 19.2799 15.7307C19.2646 15.7746 19.2858 15.809 19.3138 15.8193C19.3783 15.8425 19.4259 15.858 19.5142 15.8786C19.6364 15.9078 19.7392 15.9096 19.836 15.9096C20.038 15.9096 20.2223 15.8812 20.3741 15.8253C20.5278 15.7686 20.6611 15.6705 20.7799 15.539C20.9074 15.3963 20.9879 15.2458 21.0652 15.0412C21.1417 14.8392 21.2062 14.5873 21.2579 14.295L21.752 11.4621H22.4746C22.4746 11.4621 22.5356 11.4647 22.5484 11.3976L22.6299 10.9359C22.6359 10.8921 22.6171 10.8646 22.5586 10.8646H21.8573C21.8579 10.8625 21.8586 10.8564 21.8602 10.8468C21.8698 10.7834 21.9029 10.5678 21.9728 10.3634C22.0076 10.2628 22.0721 10.182 22.1273 10.1261C22.1808 10.071 22.2428 10.0324 22.3106 10.01C22.3803 9.98764 22.4593 9.97648 22.5459 9.97648C22.6121 9.97648 22.6766 9.98422 22.7259 9.99452C22.7921 10.0088 22.8188 10.0165 22.8365 10.0217L22.8379 10.022C22.9092 10.0444 22.9184 10.0229 22.9329 9.98851L23.1002 9.52168C23.1197 9.4718 23.0772 9.45031 23.0619 9.44428ZM13.1962 14.3182C13.2327 14.3182 13.259 14.2872 13.259 14.2502V9.50791C13.259 9.47092 13.2327 9.44084 13.1962 9.44084H12.6138C12.5773 9.44084 12.551 9.47092 12.551 9.50791V14.2502C12.551 14.2881 12.5773 14.3182 12.6138 14.3182H13.1962Z" fill="#50575E"/>
</svg>
