<svg width="248" height="148" viewBox="0 0 248 148" fill="none" xmlns="http://www.w3.org/2000/svg">
<g clip-path="url(#clip0_853_33581)">
<path d="M149.1 84.7596H0.667877C0.545206 84.7596 0.422535 84.7596 0.299863 84.6369C0.177192 84.5143 0.0545206 84.3916 0.0545206 84.3916C0.0545206 84.3916 -0.0681508 84.1462 0.0545206 84.0236C0.0545206 83.9009 0.177192 83.7782 0.299863 83.6555L63.5983 26.2453C63.5983 26 63.721 26 63.9663 26H211.295C211.417 26 211.54 26 211.663 26.1227C211.785 26.2453 211.908 26.368 211.908 26.368C212.031 26.4907 212.031 26.6134 211.908 26.736C211.908 26.8587 211.785 26.9814 211.663 27.104L149.468 84.5142C149.346 84.6369 149.223 84.7596 149.1 84.7596Z" fill="white"/>
<path d="M148.978 93.3457L203.934 43.9092H211.295C211.417 43.9092 211.54 43.9092 211.663 44.0318C211.785 44.1545 211.908 44.2772 211.908 44.2772C212.031 44.3999 212.031 44.5225 211.908 44.6452C211.908 44.7679 211.785 44.8906 211.663 45.0132L149.468 101.319C149.346 101.442 149.223 101.565 148.978 101.565H0.667877C0.545206 101.565 0.422535 101.565 0.299863 101.442C0.177192 101.319 0.0545206 101.197 0.0545206 101.197C0.0545206 101.197 -0.0681508 100.951 0.0545206 100.829C0.177192 100.706 0.177192 100.583 0.299863 100.461L9.1322 93.3457H148.978Z" fill="white"/>
<path d="M149.1 84.7601L204.67 34.4648H211.295C211.417 34.4648 211.54 34.4648 211.663 34.5875C211.785 34.7102 211.908 34.8329 211.908 34.8329C212.031 34.9555 212.031 35.0782 211.908 35.2009C211.908 35.3235 211.785 35.4462 211.663 35.5689L149.468 93.1018C149.346 93.2244 149.223 93.3471 148.978 93.3471H0.667877C0.545206 93.3471 0.422535 93.3471 0.299863 93.2244C0.177192 93.1018 0.0545206 92.9791 0.0545206 92.9791C0.0545206 92.9791 -0.0681508 92.7337 0.0545206 92.6111C0.0545206 92.4884 0.177192 92.3657 0.299863 92.2431L8.51885 84.8828L149.1 84.7601Z" fill="white"/>
<path d="M150.326 88.0722H4.71533L8.39547 84.7601H149.345L204.67 34.4648H210.558L152.412 87.2135C151.798 87.7042 151.062 88.0722 150.326 88.0722Z" fill="#8BBECE"/>
<path d="M151.553 97.2718H4.71533L8.39547 93.9597H149.345L204.67 43.7871H210.558L151.553 97.2718Z" fill="url(#paint0_linear_853_33581)"/>
<path d="M149.1 84.7596H1.64921C1.52654 84.7596 1.40387 84.7596 1.28119 84.6369C1.15852 84.5143 1.03585 84.3916 1.03585 84.3916C0.91318 84.2689 0.91318 84.1462 1.03585 84.0236C1.03585 83.9009 1.15852 83.7782 1.28119 83.6555L63.5983 26.2453C63.5983 26 63.7209 26 63.9663 26H211.295C211.417 26 211.54 26 211.663 26.1227C211.785 26.2453 211.908 26.368 211.908 26.368C212.031 26.4907 212.031 26.6134 211.908 26.736C211.908 26.8587 211.785 26.9814 211.663 27.104L149.468 84.5142C149.346 84.6369 149.223 84.7596 149.1 84.7596Z" stroke="#003B62" stroke-width="2.20808" stroke-linecap="round" stroke-linejoin="round"/>
<path d="M187.373 34.4643H108.986L115.855 28.3307C115.978 28.3307 116.101 28.208 116.101 28.208H193.016C193.261 28.208 193.261 28.3307 193.384 28.4534C193.506 28.576 193.629 28.6987 193.629 28.8214C193.629 29.0667 193.629 29.0667 193.506 29.3121C193.874 29.4347 187.373 34.4643 187.373 34.4643Z" fill="url(#paint1_linear_853_33581)"/>
<path d="M187.619 38.389L189.704 36.4262L63.4755 35.9355L60.8994 38.389H187.619Z" fill="#8BBECE"/>
<path d="M48.6314 50.7793H97.8227L43.7246 67.2173L30.4761 67.3399L48.6314 50.7793Z" fill="url(#paint2_linear_853_33581)"/>
<path d="M99.6634 50.7793L77.0918 71.5108H26.0605L48.6321 50.902H99.6634V50.7793Z" stroke="#003B62" stroke-width="2.20808" stroke-linecap="round" stroke-linejoin="round"/>
<path d="M191.668 34.4648L187.497 38.2677H60.7773L64.9482 34.4648H191.668Z" stroke="#003B62" stroke-width="2.20808" stroke-linecap="round" stroke-linejoin="round"/>
<path d="M154.867 67.9541L151.432 71.1436H90.2188L93.6536 67.9541H154.867Z" stroke="#003B62" stroke-width="2.20808" stroke-linecap="round" stroke-linejoin="round"/>
<path d="M149.1 84.7595L203.812 34.5869H211.295C211.417 34.5869 211.54 34.5869 211.663 34.7096C211.785 34.8323 211.908 34.9549 211.908 34.9549C212.031 35.0776 212.031 35.2003 211.908 35.3229C211.908 35.4456 211.785 35.5683 211.663 35.691L149.468 93.1012C149.346 93.2238 149.223 93.3465 148.978 93.3465H0.667877C0.545206 93.3465 0.422535 93.3465 0.299863 93.2238C0.177192 93.1012 0.0545206 92.9785 0.0545206 92.9785C0.0545206 92.9785 -0.0681508 92.7332 0.0545206 92.6105C0.0545206 92.4878 0.177192 92.3651 0.299863 92.2425L8.51885 84.8822L149.1 84.7595Z" stroke="#003B62" stroke-width="2.20808" stroke-miterlimit="10"/>
<path d="M148.978 93.3457L202.953 43.9092H211.172C211.295 43.9092 211.417 43.9092 211.54 44.0318C211.663 44.1545 211.785 44.2772 211.785 44.2772C211.908 44.3999 211.908 44.5225 211.785 44.6452C211.785 44.7679 211.663 44.8906 211.54 45.0132L149.468 101.319C149.346 101.442 149.223 101.565 148.978 101.565H0.667877C0.545206 101.565 0.422535 101.565 0.299863 101.442C0.177192 101.319 0.0545206 101.197 0.0545206 101.197C0.0545206 101.197 -0.0681508 100.951 0.0545206 100.829C0.177192 100.706 0.177192 100.583 0.299863 100.461L9.1322 93.3457H148.978V93.3457Z" stroke="#003B62" stroke-width="2.20808" stroke-miterlimit="10"/>
<path d="M172.408 50.7803L161.245 60.8393H100.154L111.317 50.7803H172.408Z" stroke="#003B62" stroke-width="2.20808" stroke-linecap="round" stroke-linejoin="round"/>
<path d="M45.3191 64.8868C45.1964 64.8868 45.1964 65.1321 45.3191 65.1321L72.7974 65.2548L68.7493 60.348L65.3145 61.2067L61.757 57.8945C61.8797 58.0172 48.1405 63.7828 45.3191 64.8868Z" fill="white" stroke="#003A5F" stroke-width="2.20808" stroke-miterlimit="10" stroke-linecap="round" stroke-linejoin="round"/>
<path d="M59.6728 59.2451L64.7023 63.9066L70.4678 62.1892L72.9213 65.3787L45.4429 64.888" fill="#003B62"/>
<path d="M76.1084 58.2633C76.231 57.4046 75.495 56.6686 74.391 56.5459C73.2869 56.4232 72.3055 57.0366 72.0602 57.8953C71.9375 58.754 72.6736 59.49 73.7776 59.6127C74.8816 59.6127 75.863 59.122 76.1084 58.2633Z" fill="white" stroke="#003B62" stroke-width="2.20808" stroke-miterlimit="10" stroke-linecap="round" stroke-linejoin="round"/>
</g>
<defs>
<linearGradient id="paint0_linear_853_33581" x1="4.69264" y1="70.5728" x2="210.482" y2="70.5728" gradientUnits="userSpaceOnUse">
<stop stop-color="#EAEAEA"/>
<stop offset="1" stop-color="#F0F0F0"/>
</linearGradient>
<linearGradient id="paint1_linear_853_33581" x1="25533.8" y1="31.3944" x2="36195.8" y2="31.3944" gradientUnits="userSpaceOnUse">
<stop stop-color="#EAEAEA"/>
<stop offset="1" stop-color="#F0F0F0"/>
</linearGradient>
<linearGradient id="paint2_linear_853_33581" x1="76.3496" y1="44.2387" x2="52.991" y2="78.472" gradientUnits="userSpaceOnUse">
<stop stop-color="#ECECEC"/>
<stop offset="1" stop-color="#F2F2F2"/>
</linearGradient>
<clipPath id="clip0_853_33581">
<rect width="248" height="148" fill="white"/>
</clipPath>
</defs>
</svg>
