<svg width="145" height="214" viewBox="0 0 145 214" fill="none" xmlns="http://www.w3.org/2000/svg">
<g clip-path="url(#clip0)">
<path d="M58.0325 195.556V197.858L85.67 209.011L95.9817 205.519L86.7772 195.985C83.4838 193.704 79.2878 192.958 75.4937 194.253C75.261 194.331 74.0353 195.415 73.8096 195.507L71.6291 191.437L58.0325 195.556Z" fill="#E5E5E5"/>
<path d="M37.5811 182.776C37.5811 182.776 33.3723 186.508 36.5811 191.789C39.7898 197.07 41.5 198 45.6995 197.006C47.9492 196.197 53.385 192.507 54.464 192.239C54.464 192.239 54.6897 193.788 55.8674 193.838C57.0451 193.887 61.2411 190.24 61.2411 190.24C61.2411 190.24 63.8645 188.852 65.3173 186.163C65.3173 186.163 67.2496 184.726 67.7009 182.424C68.1523 180.121 68.3286 176.791 68.3286 176.791C68.3286 176.791 71.1918 182.755 72.5246 182.818C73.8575 182.882 74.0056 180.98 73.1452 179.044C72.2919 177.108 67.4336 169.063 64.4999 168.5C61.5662 167.936 51.354 166.031 49.0691 168.193C46.7842 170.355 46.3681 172.967 37.5811 182.776Z" fill="#F2BD97"/>
<path d="M102.102 111.033C102.102 111.033 105.874 111.153 108.399 110.294C110.917 109.435 114.238 109.055 115.113 106.64L107.553 92.6274C107.553 92.6274 103.999 81.3544 101.558 78.2633C99.1184 75.1722 86.9816 65.2161 75.1904 69.9689C75.1904 69.9689 75.6488 72.1095 77.6657 72.3841C79.6826 72.6587 86.7559 71.2434 88.5543 72.6024C90.3526 73.9613 93.4555 76.3553 93.0747 76.4046C92.6939 76.4539 85.6699 76.8554 83.6812 77.7285C81.6995 78.6016 75.9732 85.3188 76.8476 86.6777C77.7221 88.0367 79.7884 87.4945 80.6064 86.6214C81.4245 85.7483 83.653 83.1431 84.8519 82.9811C84.8519 82.9811 81.4527 85.4948 81.8758 87.2833C82.299 89.0788 83.6812 89.6421 83.6812 89.6421C83.6812 89.6421 82.0028 90.8462 82.306 92.3178C82.6163 93.7894 82.5105 94.6907 85.3949 96.4158C88.2792 98.1409 89.5627 100.366 92.6516 99.5843C92.6516 99.5843 95.2397 105.407 100.987 107.076L102.102 111.033Z" fill="#F2BD97"/>
<path d="M58.7954 81.6429C58.7954 81.6429 60.9999 88 71.5021 89.4095C74.9999 89.879 81.5867 90.029 82.2708 87.3111C82.2708 87.3111 81.3822 85.5086 82.2708 84.2271C82.2708 84.2271 80.7263 86.0014 79.5627 86.2761C78.3991 86.5507 82.629 81.4732 82.6572 80.1776C82.6784 78.8891 82.4999 78.9999 82.2708 76.6085L83.5091 73.0315C83.5091 73.0315 81.66 72.9189 86.3497 65.8776C86.3497 65.8776 91.9915 57.8577 92.2313 50.1194C92.471 42.3811 92.8095 41.1277 91.928 36.6284C91.0465 32.1291 91.5684 24.3978 90.2496 21.6658C88.9996 16.9999 91.3751 15.6174 88.2157 12.7798C88.2157 12.7798 84.33 18.3001 78.0042 19.5957C71.6784 20.8913 63.6953 21.8207 58.928 20.9124C58.928 20.9124 60.2609 37.8606 57.0874 42.7895C57.0874 42.7895 53.6107 40.5433 51.8829 42.0149C50.1551 43.4866 51.2482 50.6686 53.5331 53.6822C55.818 56.6888 57.7715 56.4776 59.2524 54.1258C59.2524 54.1258 62.3342 65.3495 61.6572 71.8556C60.9732 78.3899 60.0155 76.6225 58.7954 81.6429Z" fill="#F2BD97"/>
<path d="M59.2384 54.1471C59.2384 54.1471 61.6291 62.9346 61.6361 67.4057C61.6361 80.0001 59.7059 79.7328 58.5 81.5001C58.5 81.5001 57.4401 81.4298 55 82.0001C52.5599 82.5705 47.7856 83.4738 41.4739 81.4248C35.1622 79.3758 31.9958 74.9117 30.7616 70.7081C29.5204 66.5115 28.0183 59.6956 28.2017 56.5482C28.3921 53.4008 27.9478 47.8875 30.3456 39.3958C32.7433 30.904 38.4697 20.3704 41.3399 16.7864C44.2102 13.2024 47.4189 12.6039 52.2637 10.0691C57.1086 7.53424 67.7503 6.32315 76.1636 6.35131C84.5769 6.37243 89.6826 9.04106 89.6826 9.04106C89.6826 9.04106 90.275 8.99362 94.0056 13.5C97.7433 18.0064 101.052 21.6869 104 28.6507C110 38.5001 110.5 47.5002 111 52.5001C112 66.5 105 77 105 77C105 77 94.4006 66.9858 90 66.5C90 66.5 97.1439 57.372 96.5726 44.1908C96.5726 44.1908 95.3173 32.1574 95.3385 29.6507C95.3597 27.144 95.0635 24.039 94.0056 22.159C92.9408 20.279 90.4372 14.9838 88.0113 12.618C88.0113 12.618 85.4443 17.8146 81.3329 19.4129C77.2214 21.0113 73.8858 22.8281 68.6178 23.166C68.6178 23.166 61.0578 24.4054 58.914 23.7788C58.914 23.7788 59.196 22.9968 59.189 24.9331C59.1749 26.8694 59.5275 40.5787 57.158 42.6981C57.158 42.6981 53.2863 40.3322 51.89 42.17C50.4866 44.0078 50.3456 46.951 52.4189 51.4855C54.4993 56.0271 56.0931 56.168 57.0099 56.0694C57.9337 55.9708 58.8999 55.1259 59.2384 54.1471Z" fill="#02395C"/>
<path d="M93.244 76.4045C93.244 76.4045 89.1679 72.567 87.6587 72.2713C86.1495 71.9755 85.1481 72.0389 85.1481 72.0389C85.1481 72.0389 84.9859 72.074 83.4697 72.4753C81.0001 72.5 81.3399 73.9682 81.3399 73.9682L82.2708 79.4747C82.2708 79.4747 83.9563 77.1228 85.5642 77.2848C87.1721 77.4467 93.244 76.4045 93.244 76.4045Z" fill="#02395C"/>
<path d="M40.9168 179.016C40.9168 179.016 38.5544 181.572 37.7786 182.579C37.0029 183.586 35.6348 185.909 36.3047 188.226C36.9535 190.472 36.2137 193.972 39.5 196C39.7045 196.127 41.4648 197.261 41.5 197.5L41.89 197.915C41.9606 198.379 41.6291 197.816 41.1637 197.858C40.3456 197.936 39.0621 198.112 37.7434 198.478C35.5572 199.083 27.3202 202.935 24.4429 203.125C21.5656 203.315 16.9112 203.562 13.7025 201.66C10.4937 199.759 7.36959 197.788 5.23278 194.669C3.09596 191.542 0.684115 186.987 0.719376 184.635C0.754637 182.283 1.15661 174.58 2.63757 169.053C4.11853 163.525 5.99441 152.196 7.47537 148.161C8.95633 144.127 16.1072 124.425 18.103 120.96C20.1058 117.496 26.9676 105.589 35.8393 102.076C47.5953 97.4217 49.1961 97.4223 82.6869 92.9088C82.962 92.8736 88.1242 99.4501 92.6517 98.5841C92.6517 98.5841 94.2807 101.196 95.9944 103.203C96.8407 104.196 97.8491 104.492 100.247 105.801C101.544 106.512 101.009 107.85 101.516 108.4L99.1608 110.216C104.739 115.856 110.762 120.595 115.268 120.264C127.645 119.363 120.36 101.668 121.601 103.619C125.741 110.111 133.427 123.728 136.707 134.924C139.986 146.119 144.662 164.215 144.267 171.954C143.872 179.692 140.677 190.183 134.175 192.345C128.117 194.366 121.037 190.634 121.037 190.634C121.037 190.634 103 194.481 96.2497 195.5C93.0002 195.99 82.0002 188.5 80.7814 188.965C78.1721 189.338 75.6489 190.43 74.7039 190.5C74.3301 190.528 74.048 188.12 74.048 187.747C74.048 186.895 71.8759 183.339 71.7137 182.41C71.7137 182.41 73.3075 183.959 74.0127 181.945C74.1185 181.649 73.8576 181.332 73.7659 181.03C71.9324 174.622 67.567 167.729 65.5924 166.644C65.4161 166.546 65.2821 166.391 65.2187 166.201L56.2553 140.395C56.1566 140.099 55.8957 139.888 55.5924 139.846C54.9154 139.754 53.6954 139.817 52.7786 141.148C52.6376 141.352 52.6164 141.613 52.694 141.845L60.3174 164.546C60.5078 165.124 60.0353 165.701 59.4359 165.624C56.8407 165.286 51.1284 164.757 49.0762 166.243C48.9845 166.307 48.914 166.391 48.8576 166.49C48.103 167.785 42.5388 177.22 40.9168 179.016Z" fill="#ECCDE0"/>
<path d="M67.9337 182.811L70.7616 190.557L71.622 191.437L58.0254 195.549V196.872C55.5988 196.872 36.0608 197.147 44.9506 196.499C46.3047 196.394 50.6065 194.288 51.7207 193.655C52.835 193.021 54.2525 192.303 54.2525 192.303C54.2525 192.303 55.1481 193.817 55.8604 193.838C56.5726 193.859 59.8449 191.549 61.2341 190.24C61.2341 190.24 62.031 189.923 62.8279 189.247C63.6248 188.571 64.8872 186.867 65.0423 186.304C65.0423 186.304 65.7334 186.015 66.1566 185.487C66.5797 184.952 67.9337 182.811 67.9337 182.811Z" fill="#EBCEE0"/>
<path d="M115 106C115 106 109.788 90.9871 107.722 85.3471C105.655 79.7071 104.273 76.3977 101.516 74.06C98.7584 71.7223 94.0687 66.6245 87.4538 66.8991C80.8388 67.1737 75.049 69.6522 75.1829 70.3423C75.324 71.0323 76.4241 73.0954 80.4227 72.5462C84.4213 71.9969 86.9037 71.7223 88.2789 72.5462C89.654 73.37 93.2436 76.3977 93.2436 76.3977C93.2436 76.3977 88.5 76.5002 86.5 77.0002C81 79.0002 78.2468 84.2627 78 85.3471C77.5698 87.2482 78.6315 87.8186 79.7316 87.2693C80.8317 86.7201 83 83.7359 85.3804 82.7278C88.2789 81.5002 93.5 82.0002 93.5 82.0002" stroke="#02395C" stroke-width="1.4" stroke-miterlimit="10" stroke-linecap="round" stroke-linejoin="round"/>
<path d="M85.3875 82.7346C85.3875 82.7346 83 83.5001 81.9531 85.9101C81.9531 88.459 83.6738 88.6491 83.6738 88.6491" stroke="#02395C" stroke-width="1.1123" stroke-miterlimit="10" stroke-linecap="round" stroke-linejoin="round"/>
<path d="M92.6368 86.2834C92.6368 86.2834 85.5 84.9241 82.799 89.6843C80.8495 93.1201 89.9188 100.984 92.6368 98.5844" stroke="#02395C" stroke-width="1.4" stroke-miterlimit="10" stroke-linecap="round" stroke-linejoin="round"/>
<path d="M88.1172 92.7751C88.1172 92.7751 89.6193 93.7468 91.4176 96.4929C93.2159 99.2319 95.0142 104.428 100.973 106.034M100.973 106.034L102.109 111.04M100.973 106.034C101.482 106.189 102.5 106.5 104 106.5" stroke="#02395C" stroke-width="1.4" stroke-miterlimit="10" stroke-linecap="round" stroke-linejoin="round"/>
<path d="M59.2667 54.0979C59.2667 54.0979 67 77.0001 56.2695 84.4597C61 92.5001 80 94.5001 83 88.5001" stroke="#02395C" stroke-width="1.4" stroke-miterlimit="10" stroke-linecap="round" stroke-linejoin="round"/>
<path d="M59.2658 54.0979C59.2658 54.0979 57.5168 57.9635 54.4985 54.9217C50.7608 51.1617 47.5592 37.2976 57.0796 42.8108C57.0796 42.8108 60.5 41.5001 58.7721 23.9126C58.7721 23.9126 84.5 24.5001 90.2587 9.92127C95.0119 -4.54844 56.459 2.61408 45.9301 12.5C35.4012 22.3858 26.9033 39.8676 28.2855 57.9002C29.6678 75.9327 36.0077 81.108 45.9301 82.3684C55.8525 83.6358 58.7721 81.5002 58.7721 81.5002" stroke="#02395C" stroke-width="1.5" stroke-miterlimit="10" stroke-linecap="round" stroke-linejoin="round"/>
<path d="M88.0176 12.6179C88.0176 12.6179 95.0204 21.2648 95.105 27.5738C95.1967 33.8827 96.2404 37.8677 96.4943 42.0714C97.4322 57.7451 89.9993 66.5 89.9993 66.5" stroke="#02395C" stroke-width="1.1123" stroke-miterlimit="10" stroke-linecap="round" stroke-linejoin="round"/>
<path d="M67 67.0002C68.5 69.0002 71.4999 73.5002 81.4999 72.5002" stroke="#02395C" stroke-width="1.4" stroke-miterlimit="10" stroke-linecap="round" stroke-linejoin="round"/>
<path d="M81.502 73.0527L82.2706 76.6226" stroke="#02395C" stroke-width="1.1123" stroke-miterlimit="10" stroke-linecap="round" stroke-linejoin="round"/>
<path d="M56.2691 84.4595C56.2691 84.4595 31.2408 97.7463 26.7345 102.865C22.2352 107.977 16.798 115.997 10.4369 137.557C4.07582 159.118 -0.0849662 180.199 0.824766 185.839C1.7345 191.479 9.01941 201.844 18.4905 203.118C27.9616 204.393 34.665 197.958 42.5 197.5" stroke="#02395C" stroke-width="1.5" stroke-miterlimit="10" stroke-linecap="round" stroke-linejoin="round"/>
<path d="M109.831 90.2966C137.017 114.117 143.73 161.772 144.217 169.848C144.704 177.925 141.304 194.894 127.546 193.12C113.787 191.345 106.671 166.778 104.887 147.549C103.11 128.319 99 110.5 99 110.5C99 110.5 101.17 111.962 108.244 110.336C114.57 108.878 116.495 104.266 116.833 103.309C116.855 103.252 116.932 103.245 116.953 103.302C117.891 105.823 126.973 123.565 131 133" stroke="#02395C" stroke-width="1.5" stroke-miterlimit="10" stroke-linecap="round" stroke-linejoin="round"/>
<path d="M117 103C117 103 116.241 102.943 114.422 103.626" stroke="#02395C" stroke-width="1.1123" stroke-miterlimit="10" stroke-linecap="round" stroke-linejoin="round"/>
<path d="M99 110.5C99 110.5 99.9079 109.238 101.509 108.407" stroke="#02395C" stroke-width="1.1123" stroke-miterlimit="10" stroke-linecap="round" stroke-linejoin="round"/>
<path d="M52.2588 193.303C52.2588 193.303 55.0627 194.246 56.2687 193.753C57.4675 193.268 58.9344 191.944 60.7397 190.557C62.5451 189.17 61.5508 187.768 61.2969 186.874C60.6692 184.649 56.2687 184.811 56.2687 184.811" stroke="#02395C" stroke-width="1.4" stroke-miterlimit="10" stroke-linecap="round" stroke-linejoin="round"/>
<path d="M56.5654 170.876C56.5654 170.876 65.5499 172.2 66.9462 174.073" stroke="#02395C" stroke-width="1.4" stroke-miterlimit="10" stroke-linecap="round" stroke-linejoin="round"/>
<path d="M55.5654 177.862C55.5654 177.862 63.533 178.53 64.5062 180.41" stroke="#02395C" stroke-width="1.4" stroke-miterlimit="10" stroke-linecap="round" stroke-linejoin="round"/>
<path d="M64.5059 180.403C64.5059 180.403 66.5933 185.205 64.1603 187.846C61.7273 190.486 60.7471 190.557 60.7471 190.557" stroke="#02395C" stroke-width="1.4" stroke-miterlimit="10" stroke-linecap="round" stroke-linejoin="round"/>
<path d="M18 173.5C18 173.5 22 172.642 26.9506 173.489C33.5 174.61 36.2341 179.516 40.9097 179.016" stroke="#02395C" stroke-width="1.5" stroke-miterlimit="10" stroke-linecap="round" stroke-linejoin="round"/>
<path d="M32.4382 174.834C33.9998 174.834 41.0003 155 43.4996 133.5" stroke="#02395C" stroke-width="1.5" stroke-miterlimit="10" stroke-linecap="round" stroke-linejoin="round"/>
<path d="M61.0001 165.5L52.5245 141.451C52.5245 141.451 53.138 139.445 56.0012 139.93L65.7001 166.5" stroke="#02395C" stroke-width="1.4" stroke-miterlimit="10" stroke-linecap="round" stroke-linejoin="round"/>
<path d="M85.6698 207.111L58.0322 195.556L79.7741 188.972L107.412 200.527L85.6698 207.111Z" stroke="#02395C" stroke-width="1.4" stroke-miterlimit="10" stroke-linecap="round" stroke-linejoin="round"/>
<path d="M85.6063 209.011L58.0322 197.5V195.556L85.6697 207.111L85.6063 209.011Z" fill="#02395C" stroke="#02395C" stroke-width="1.4" stroke-miterlimit="10" stroke-linecap="round" stroke-linejoin="round"/>
<path d="M107.412 202.5L85.6699 209.011V207.111L107.412 200.527V202.5Z" stroke="#02395C" stroke-width="1.4" stroke-miterlimit="10" stroke-linecap="round" stroke-linejoin="round"/>
<path d="M85.6758 39.8535C87.333 39.8535 89.9579 34.8543 93.3218 36.8329" stroke="#02395C" stroke-width="1.4" stroke-miterlimit="10" stroke-linecap="round" stroke-linejoin="round"/>
<path d="M90.6559 40.9873C91.6881 40.9873 92.5248 40.0574 92.5248 38.9102C92.5248 37.763 91.6881 36.833 90.6559 36.833C89.6238 36.833 88.7871 37.763 88.7871 38.9102C88.7871 40.0574 89.6238 40.9873 90.6559 40.9873Z" fill="#02395C"/>
<path d="M94.2948 34.1084C94.2948 34.1084 92.8173 30.5286 87.5 31.5002" stroke="#02395C" stroke-width="1.4" stroke-miterlimit="10" stroke-linecap="round" stroke-linejoin="round"/>
<path d="M76 40.5002C76 40.5002 74.8431 39.3818 71.846 37.6286C70.7317 36.9738 68.468 36.34 66.2959 38.1144" stroke="#02395C" stroke-width="1.4" stroke-miterlimit="10" stroke-linecap="round" stroke-linejoin="round"/>
<path d="M71.7187 41.7408C72.8794 41.7408 73.8203 40.8013 73.8203 39.6425C73.8203 38.4836 72.8794 37.5442 71.7187 37.5442C70.5581 37.5442 69.6172 38.4836 69.6172 39.6425C69.6172 40.8013 70.5581 41.7408 71.7187 41.7408Z" fill="#02395C"/>
<path d="M63.6318 34.6364C63.6318 34.6364 65.9309 30.2427 72.2214 31.3904" stroke="#02395C" stroke-width="1.4" stroke-miterlimit="10" stroke-linecap="round" stroke-linejoin="round"/>
<path d="M81.5175 39.6851C81.5175 39.6851 81.5175 46.0001 84.1479 51.936C84.1479 51.936 82.5 52.9007 80.5781 52.9007" stroke="#02395C" stroke-width="1.4" stroke-miterlimit="10" stroke-linecap="round" stroke-linejoin="round"/>
<path d="M81.0297 60.1953C81.0297 60.1953 76.8255 63.5887 74.75 58.448" stroke="#02395C" stroke-width="1.5" stroke-miterlimit="10" stroke-linecap="round" stroke-linejoin="round"/>
<path d="M69.2309 55.0303C69.8384 55.0303 70.3309 54.5378 70.3309 53.9303C70.3309 53.3228 69.8384 52.8303 69.2309 52.8303C68.6233 52.8303 68.1309 53.3228 68.1309 53.9303C68.1309 54.5378 68.6233 55.0303 69.2309 55.0303Z" fill="#02395C"/>
<path d="M115 106L116.5 103.5H114.5L115 106Z" fill="#02395C"/>
<path d="M98.5 110.5L101 109L102 111.5L98.5 110.5Z" fill="#02395C"/>
</g>
<path d="M67.6874 182.883L70.8449 192.085L73.7598 195.105L74.261 190.465L71.4996 182.5" fill="#FDFDFD"/>
<path d="M67.6874 182.883L70.8449 192.085L73.7598 195.105L74.261 190.465L71.4996 182.5" stroke="#02395C" stroke-width="1.4" stroke-miterlimit="10" stroke-linecap="round" stroke-linejoin="round"/>
<path d="M68.3286 176.784C68.3286 176.784 68.6036 184.769 65.0493 186.297" stroke="#02395C" stroke-width="1.4" stroke-miterlimit="10" stroke-linecap="round" stroke-linejoin="round"/>
<path d="M66.9394 174.073L71.4316 182.241C71.6432 182.579 73.1382 183.135 73.371 182.811C74.8237 180.783 71.4669 175.735 69.3794 171.496C67.0804 166.835 66.0367 166.49 63.3216 166.138C60.6065 165.786 54.8237 165.096 52.8068 165.236C50.7899 165.377 49.1185 165.793 48.4203 167.046C47.7222 168.299 44.9365 173.235 42.708 176.573C40.4796 179.91 36.9999 183.5 36.9999 183.5C34.7796 187.448 36.8013 197.5 42.4999 197.5C45.3419 197.204 49.2807 195.232 52.292 193.239C54.189 191.979 56.2694 191.873 56.2694 191.873" stroke="#02395C" stroke-width="1.4" stroke-miterlimit="10" stroke-linecap="round" stroke-linejoin="round"/>
<defs>
<clipPath id="clip0">
<rect width="145" height="213.504" fill="white"/>
</clipPath>
</defs>
</svg>
