<svg width="142" height="214" viewBox="0 0 142 214" fill="none" xmlns="http://www.w3.org/2000/svg">
<g clip-path="url(#clip0)">
<path d="M83.5 91.5C75.264 87.5431 70.7229 86.8813 68.3305 79.3142C67.1029 75.4314 66.0807 72.4508 66.0807 72.4508C66.0807 72.4508 66.3856 72.399 68.826 70.5574C71.259 68.7158 74.4832 66.6302 75.6368 60.9501C80.7098 36.0553 70.7265 10.3765 61.4383 12.8911C61.4383 12.8911 54.6258 11.5007 50.3145 14.3703C46.0031 17.2325 43.9103 22.9792 44.2357 27.9345C44.5611 32.8898 45.0566 43.932 42.9786 44.9748C42.9786 44.9748 38.1792 40.9736 36.1233 43.074C34.0675 45.1745 35.5465 50.0262 37.0847 51.7125C38.6229 53.3988 40.553 54.5821 42.1355 54.8854C42.1355 54.8854 43.7698 62.6585 43.4223 67.7174C43.0747 72.7688 41.6491 82.9959 38.0847 87.5C48 107 79 124.5 83.5 91.5Z" fill="#D69D7C"/>
<path d="M12.8687 179.936C12.8687 179.936 20.8997 211.48 31.8222 212.538C31.8222 212.538 38.1154 210.297 42.2344 206.547C46.3535 202.797 54.3032 194.373 57.7271 189.951C61.151 185.528 75.283 166.809 78.1375 160.833C78.1375 160.833 79.7348 159.05 81.3321 158.57C82.9295 158.089 93.7387 152.28 94.0493 151.651C94.0493 151.651 95.451 153.536 98.2537 153.632C98.2537 153.632 111.626 186.992 114 189.951C116.381 192.909 115.666 190.912 123.882 196.496C132.09 202.08 139.117 199.314 140.5 196.03C141.883 192.746 139.898 187.724 139.291 184.13C138.678 180.536 129 166.5 126.855 157.497C126.855 157.497 127.254 157.27 123.645 157.699C123.645 157.699 111.102 143.878 109.357 142.399C109.357 142.399 110.417 138.955 109.441 137.957C108.465 136.959 106.098 138.904 106.098 138.904C106.098 138.904 111.822 132.713 111.408 130.65C110.994 128.586 110.165 127.808 108.021 128.992C108.021 128.992 111.275 123.064 110.38 122.125C109.485 121.186 109 122.677 104.954 125.026C104.954 125.026 111.18 116.52 108.887 116.343C106.595 116.165 99.1115 125.678 98.2093 126.573C97.773 127.002 105.618 117.579 104.576 116.67C102.489 114.849 92.1881 124.563 92.1881 124.563C92.1881 124.563 81.1565 117.694 79.5 118.5C77.8664 121.548 86.6196 125.872 88.5053 127.107C88.5053 127.107 88.8545 128.37 86 126.573C83.1455 124.776 75.7242 119.42 74.4893 120.5C72 123.677 81.554 128.644 83.1735 130.537C83.1735 130.537 76.5919 126.638 75.2682 126.157C73.1828 125.388 75.2682 131 78.6921 133.238C78.6921 133.238 74.2033 135.879 73.412 133.934C73.0127 132.957 74.4786 125.178 73.9757 123.677C73.3767 119.872 72.5 119 71 121.026C71 123.677 62.5 132.5 68.8419 149.476C60 162.5 44 170.5 39 178L39.2263 167C38.2337 166.993 26.5 168.5 12.8687 179.936Z" fill="#D69D7C"/>
<path d="M137.5 199.5C138.765 182 129.333 167.667 122.5 160C121.5 158.333 122 158 132 170C142 182 141.5 195 137.5 199.5Z" fill="white"/>
<path d="M12.8986 106.157C12.8986 106.157 15.3447 103.85 18.3175 102.718C21.2978 101.579 30.7265 94.8162 33.1964 92.627C35.6664 90.4452 40.0442 85.9041 41.1757 81.4443C42.3071 76.9845 44.8305 71.8148 44.4016 68.0502C43.9801 64.2857 43.5421 60.5507 42.2036 55.196C42.2036 55.196 39.2637 53.5098 37.9696 49.7304C36.6754 45.9511 37.0821 44.2072 39.5373 43.4158C41.9925 42.6244 42.9061 45.0784 42.9061 45.0784C42.9061 45.0784 44.3999 43.3551 44.4665 40.9366C44.533 38.5181 43.8675 33.2701 44.289 29.6978C44.7105 26.1256 47 14.0005 60.4768 13.8763C60.4768 13.8763 69.4816 14.2668 74 19.9025C78.5258 25.5382 78.9792 30.4122 79.7483 36.0405C80.5174 41.6688 81.1756 53.2139 79.6892 58.576C78.2028 63.9381 77.6572 70.8311 67.3633 72.4212C67.3633 72.4212 67.2819 75.6089 68.5317 79.0702C73.7418 93.5 86.6529 90.838 96.4242 98.4106C96.4242 98.4106 99.1012 94.4982 98.5762 88.7515C98.0511 83.0049 94.9804 68.2912 94 66.5C86.0637 52 86.3669 43.7841 86.0637 38.5921C85.7605 33.4001 82.9726 25.4199 81.8411 22.8461C80.7097 20.2797 77.2562 17.5654 74.5274 14.0005C71.7986 9.43567 70.5 5.5 63.9968 4.43599C58.628 3.00118 56.2986 7.02458 52.8377 7.84553C49.3768 8.66649 42.6473 7.06156 36.3911 10.7595C30.1349 14.4575 27.1103 14.9028 25.2911 19.9025C23.4719 24.9022 23.3906 30.9521 23.3018 33.1635C23.2131 35.3675 23.2131 48.6432 22.7842 50.0263C22.3552 51.4093 20.4917 57.4074 17.9848 61.2163C15.4778 65.0327 10.4196 74.8693 9.51741 77.4727C8.61522 80.076 6.40409 88.4927 7.03267 92.4569C7.7426 96.9389 8.80176 101.483 12.8986 106.157Z" fill="#02395C"/>
<path d="M52.7524 194.547C52.7524 194.547 58.835 191.792 74.2537 166.047C74.2537 166.047 77.441 160.552 78.3062 160.167C79.1715 159.782 80.6431 158.577 81.952 157.948C83.2609 157.32 94.1457 151.228 94.5747 150.651C94.5747 150.651 97 152 99.8087 153.683C99.8087 153.683 104 158.683 113.5 187C99.8087 194.547 66.0247 196.753 52.7524 194.547Z" fill="#FFBF86"/>
<path d="M12.3791 179.936L14.1318 185.535C14.1318 185.535 9.83856 186.983 8.50006 184.535C8.50006 184.535 8.16234 168.975 7.36368 162.164C4.40998 124.39 1.9999 112.642 17.3658 104.455C21.544 102.228 30.8036 95.7687 34.9004 91.8267C34.9004 91.8267 45.274 103.144 55.0577 106.798C64.8414 110.451 69.0845 110.8 71.4657 110.001C76.4999 108.313 80.6069 99.176 82.5518 96.3434C98.5 98.5 104.863 107.5 108.11 114.908C112.483 122.147 130.4 165.854 126.5 157.778C126.5 157.778 128.097 157.053 122.994 157.778L110.009 144.132C110.009 144.132 107.842 138.955 105.89 136.995C105.89 136.995 106.422 135.967 106.452 135.871C106.481 135.775 109.58 132.425 109.232 130.687C109.232 130.687 109.872 127.799 108.2 129.005C108.2 129.005 110.615 125.694 110.941 123.261C110.941 123.261 111.007 120.443 108.034 122.344C108.034 122.344 110.563 118.616 109.772 117.315C108.981 116.02 106.134 116.997 103.863 119.275C103.863 119.275 105.224 117.219 104.019 116.176C102.821 115.133 99.1528 117.662 97.6664 119.119C96.18 120.576 95.4035 121.56 95.4035 121.56C95.4035 121.56 90.4266 115.325 88.7553 116.523C87.0767 117.721 89.6058 122.314 91.0774 123.764C91.0774 123.764 89.9238 123.32 88.5631 122.558C87.2024 121.797 80.7835 116.834 79.4597 117.818C78.136 118.801 79.2749 121.664 81.6117 123.276C81.6117 123.276 75.1928 119.156 74.0244 120.273C72.8559 121.39 73.943 124.193 75.9323 125.687C75.9323 125.687 74.4459 125.132 74.3719 126.419C74.298 127.706 74.0466 130.45 78.2248 133.223C78.2248 133.223 75.5864 135.331 74.4476 134.577C73.3161 133.822 72.7598 131.352 72.8559 129.836C72.9521 128.32 74.0909 122.189 72.5084 120.273C71.5 120 70.6909 121.31 70.1214 122.671C69.552 124.032 68.9382 127.773 68.0656 129.451C67.1856 131.13 65.6162 136.263 65.9933 139.029C66.3705 141.795 67.1766 146.203 68.345 149.021C68.345 149.021 64.5587 156.706 57.3485 161.165C50.1309 165.625 39.6891 173.635 39.6891 173.635L38.7664 167.112C38.7664 167.112 29.0402 167.881 23.1907 171.468C17.319 175.055 12.3791 179.936 12.3791 179.936Z" fill="#FDBF88"/>
<path d="M48 103C32.5 98 7.99999 108.5 4.99997 125.5C2.49999 108 27.9999 99 34.5 92C35.7 94 44.6666 100.833 48 103Z" fill="white"/>
<path d="M83.8971 130.398C83.8971 130.398 76.1454 126.676 73.6311 123.215C72.0001 119.5 74.0617 119.541 75.8143 120.229C77.5743 120.924 85.1173 125.857 88.3046 127.218" stroke="#02395C" stroke-width="1.4" stroke-miterlimit="10" stroke-linecap="round" stroke-linejoin="round"/>
<path d="M51.0604 62.6527C54.4844 68.3994 64.5588 78.3602 74.9637 68.5014C85.3685 58.6426 79.2232 23.9777 74.1576 16.5817C69.092 9.19317 60.4694 12.8838 60.4694 12.8838C42.5363 10.1473 43.9044 29.0365 44.459 36.5656C45.0063 44.0947 42.9061 45.0858 42.9061 45.0858C42.9061 45.0858 38.6425 40.4057 37.4149 45.6124C36.1873 50.8192 39.8536 55.634 43.137 55.9076C43.137 55.9076 48.1566 79.551 34.0616 92.0058C25.5 102 4.74683 104.091 4.74683 124.652C4.74683 139.325 8.37114 184.884 8.37114 184.884C8.37114 184.884 19.3619 168.887 38.8035 166.979" stroke="#02395C" stroke-width="1.4" stroke-miterlimit="10" stroke-linecap="round" stroke-linejoin="round"/>
<path d="M103 120.5C103 120.5 106.5 116 109 117C111.529 118.797 98.9551 132.882 95.2798 135.663" stroke="#02395C" stroke-width="1.19831" stroke-miterlimit="10" stroke-linecap="round" stroke-linejoin="round"/>
<path d="M106 124C106 124 110.852 120.14 110.933 123.246C111.015 126.345 100.345 137.696 99.0364 138.436" stroke="#02395C" stroke-width="1.19831" stroke-miterlimit="10" stroke-linecap="round" stroke-linejoin="round"/>
<path d="M109 129C110 130 105.912 136.204 102.666 140.693C99.4193 145.183 93.6955 152.15 89.1106 154.539C84.5256 156.927 79.2825 158.74 77.6556 160.84C76.0361 162.94 49.4952 206.946 32.1242 212.39C32.1242 212.39 23.9669 216.832 13 180" stroke="#02395C" stroke-width="1.4" stroke-miterlimit="10" stroke-linecap="round" stroke-linejoin="round"/>
<path d="M8.37134 184.884C8.37134 184.884 8.74109 187.34 14.1395 185.543" stroke="#02395C" stroke-width="1.19831" stroke-miterlimit="10" stroke-linecap="round" stroke-linejoin="round"/>
<path d="M39.4378 173.827C39.4378 173.827 39.4378 169.5 36.5 149" stroke="#02395C" stroke-width="1.4" stroke-miterlimit="10" stroke-linecap="round" stroke-linejoin="round"/>
<path d="M67.1194 72.8354C68.9231 95.703 93.1892 89.3527 103.787 104.444C108.549 111.234 127 159 127 159C127 159 127.302 157.5 122 157.5" stroke="#02395C" stroke-width="1.4" stroke-miterlimit="10" stroke-linecap="round" stroke-linejoin="round"/>
<path d="M105.757 136.655C105.757 136.655 109.084 142.145 110.001 145.132C110.001 145.132 133.805 169.057 137.835 179.182C141.858 189.307 142.34 199.565 133.51 199.691C126.77 198.209 118.679 195.563 114.5 189.756C109.682 183.061 109.747 172.163 100.5 154C100.5 154 96 152 94.5 150.5" stroke="#02395C" stroke-width="1.4" stroke-miterlimit="10" stroke-linecap="round" stroke-linejoin="round"/>
<path d="M82.9947 124.348C82.9947 124.348 77.5372 120.732 79.1123 118.239C80.6875 115.747 87.7276 123.113 91.9797 124.348" stroke="#02395C" stroke-width="1.4" stroke-miterlimit="10" stroke-linecap="round" stroke-linejoin="round"/>
<path d="M91.3659 124.126C91.3659 124.126 86.8697 118.853 88.3118 116.804C89.7538 114.756 95.3889 121.56 95.3889 121.56" fill="#D69D7C"/>
<path d="M91.3659 124.126C91.3659 124.126 86.8697 118.853 88.3118 116.804C89.7538 114.756 95.3889 121.56 95.3889 121.56" stroke="#02395C" stroke-width="1.4" stroke-miterlimit="10" stroke-linecap="round" stroke-linejoin="round"/>
<path d="M76.0655 125.761C76.0655 125.761 73.9653 124.6 74.2833 127.706C74.6013 130.812 78.3949 133.364 78.3949 133.364" stroke="#02395C" stroke-width="1.4" stroke-miterlimit="10" stroke-linecap="round" stroke-linejoin="round"/>
<path d="M109 149C109 149 110.5 146.5 109.5 143.5" stroke="#02395C" stroke-width="1.19831" stroke-miterlimit="10" stroke-linecap="round" stroke-linejoin="round"/>
<path d="M130 167.5C130 167.5 129 163 126.381 157.49" stroke="#02395C" stroke-width="1.19831" stroke-miterlimit="10" stroke-linecap="round" stroke-linejoin="round"/>
<path d="M12.899 106.157C12.899 106.157 4.10456 96.9536 8.03134 82.0729C11.9581 67.1922 22.9102 57.9251 23.0507 46.5501C23.1912 35.1751 21.091 16.2858 34.1507 8.56441C47.2104 0.843019 48.8817 8.36471 57.1641 2.04117C57.1641 2.04117 65.3061 -3.5132 73.8696 8.63837C90.5824 32.3498 83.9343 46.7054 90.2496 58.3466C91.5142 60.669 92.6604 63.0505 93.5257 65.5503C96.4689 74.0335 101.536 90.2815 96.5 97.5" stroke="#02395C" stroke-width="1.19831" stroke-miterlimit="10" stroke-linecap="round" stroke-linejoin="round"/>
<path d="M61.8613 57.7788C61.8613 57.7788 64.5 61.5 68.3821 58.539" stroke="#02395C" stroke-width="1.5" stroke-miterlimit="10" stroke-linecap="round" stroke-linejoin="round"/>
<path d="M70.3712 38.675C69.9793 37.536 79.896 33.2833 78.5723 36.7594" stroke="#02395C" stroke-width="1.4" stroke-miterlimit="10" stroke-linecap="round" stroke-linejoin="round"/>
<path d="M77.7219 32.455C77.7219 32.455 76.4869 29.9034 72.8855 30.4433" stroke="#02395C" stroke-width="1.4" stroke-miterlimit="10" stroke-linecap="round" stroke-linejoin="round"/>
<path d="M50.5122 34.6916C50.5122 34.6916 53 30.5 58.7462 31.103" stroke="#02395C" stroke-width="1.4" stroke-miterlimit="10" stroke-linecap="round" stroke-linejoin="round"/>
<path d="M62.7324 39.5404C63.2353 38.076 50.8042 33.3574 52.5124 37.8393" stroke="#02395C" stroke-width="1.4" stroke-miterlimit="10" stroke-linecap="round" stroke-linejoin="round"/>
<path d="M57.09 40.1098C58.1396 40.1098 58.9905 39.2588 58.9905 38.209C58.9905 37.1592 58.1396 36.3082 57.09 36.3082C56.0403 36.3082 55.1895 37.1592 55.1895 38.209C55.1895 39.2588 56.0403 40.1098 57.09 40.1098Z" fill="#02395C"/>
<path d="M73.9876 39.74C74.9596 39.74 75.7476 38.9519 75.7476 37.9797C75.7476 37.0076 74.9596 36.2195 73.9876 36.2195C73.0155 36.2195 72.2275 37.0076 72.2275 37.9797C72.2275 38.9519 73.0155 39.74 73.9876 39.74Z" fill="#02395C"/>
<path d="M66.9998 39C66.9998 39 68.0865 44.7805 69.5865 48.2805C71.5126 52.0746 68.4568 51.6154 66.9999 52" stroke="#02395C" stroke-width="1.4" stroke-miterlimit="10" stroke-linecap="round" stroke-linejoin="round"/>
<path d="M29.8128 186.178C29.8128 185.609 29.1439 182.222 39.4378 173.835C49.7318 165.448 61.7339 160.685 68.4043 149.243C66.5 144 65.6888 139.935 66.5167 135.5C68 131 68.4891 130.554 69.5 125.5C71 118 74.0632 117.897 74.0632 120.641C74.0632 121.46 73.3146 127 73.348 130.5C73.37 132.811 73.7328 134.668 74.8766 134.703C77.5684 134.784 84.2507 131.099 88 128C89.4324 126.816 102.769 114.874 104.152 116.257C105.535 117.64 101.298 122.706 99.2565 124.585C97.2155 126.464 92.0759 131.929 89.7095 133.564" fill="#D69D7C"/>
<path d="M29.8128 186.178C29.8128 185.609 29.1439 182.222 39.4378 173.835C49.7318 165.448 61.734 160.685 68.4043 149.243C66.5 144 65.6888 139.935 66.5167 135.5C68 131 68.4891 130.554 69.5 125.5C71 118 74.0632 117.897 74.0632 120.641M74.0632 120.641C74.0632 121.46 73.3146 127 73.348 130.5M74.0632 120.641L73.348 130.5M89.7095 133.564C92.0759 131.929 97.2155 126.464 99.2565 124.585C101.298 122.706 105.535 117.64 104.152 116.257C102.769 114.874 89.4324 126.816 88 128C84.2507 131.099 77.5684 134.784 74.8766 134.703C73.7328 134.668 73.37 132.811 73.348 130.5" stroke="#02395C" stroke-width="1.4" stroke-miterlimit="10" stroke-linecap="round" stroke-linejoin="round"/>
<path d="M12.5 180L14 185.5C10 187.1 8.66667 185.833 8.5 185L12.5 180Z" fill="#02395C"/>
<path d="M34 91.5C46.8333 102.667 75.5 127.5 83.5 92.5" stroke="#02395C" stroke-width="1.5"/>
</g>
<defs>
<clipPath id="clip0">
<rect width="142" height="213.3" fill="white"/>
</clipPath>
</defs>
</svg>
