<svg width="251" height="117" viewBox="0 0 251 117" fill="none" xmlns="http://www.w3.org/2000/svg">
<path d="M167 25.5073L204 3.00732L110.5 92.0073L84.5 101.484L167 25.5073Z" fill="#F0F0F0"/>
<path d="M78.4124 107.118L108.787 96.0078L156.585 115.899L249.158 21.5266L204.579 2.15005L168.324 24.2643L121.174 1C121.174 1 81.9758 23.0542 80.9458 23.908C79.9158 24.7619 1 97.3805 1 97.3805C1.17619 98.2343 31.5673 85.0039 31.5673 85.0039C31.5808 85.0039 73.4385 106.603 78.4124 107.118Z" fill="url(#paint0_linear_3817_1796)" stroke="#003A5F" stroke-width="1.8" stroke-miterlimit="10" stroke-linecap="round" stroke-linejoin="round"/>
<path d="M161.478 48.9934L161.478 48.9948C161.176 49.6325 160.885 50.3578 160.7 51.0993C160.519 51.8273 160.415 52.6724 160.589 53.5033C160.775 54.3874 161.268 55.2047 162.156 55.7615C162.993 56.2865 164.051 56.5 165.256 56.5C166.527 56.5 168.081 56.1702 169.68 55.6686C171.303 55.1593 173.069 54.4418 174.794 53.5968C178.191 51.9336 181.656 49.6656 183.52 47.338C185.008 45.4797 186.107 45.2076 186.79 45.2828C187.583 45.3701 188.501 45.9834 189.452 47.2087C190.489 48.5435 191.747 50.1175 193.513 51.2997C195.327 52.5135 197.599 53.2691 200.607 53.1512L200.61 53.151C203.324 53.0387 205.802 52.812 207.829 52.1218C209.926 51.4077 211.623 50.1675 212.608 48.0386C212.949 47.3008 213.238 46.7391 213.486 46.2574C213.509 46.2141 213.531 46.1714 213.552 46.1294C213.804 45.6404 214.05 45.159 214.22 44.6733C214.615 43.5513 214.556 42.5609 214.268 41.0858L214.267 41.0795C214.221 40.8478 214.172 40.5754 214.123 40.3037C214.057 39.9345 213.992 39.5667 213.933 39.3051C213.817 38.7879 213.626 38.1183 213.146 37.5603C212.618 36.9463 211.919 36.6618 211.184 36.5452C210.49 36.4351 209.657 36.457 208.69 36.5436C206.813 36.7118 205.506 36.7418 204.487 36.518C203.563 36.3152 202.854 35.8984 202.187 35.0167C201.895 34.631 201.632 34.0451 201.36 33.2542C201.233 32.8835 201.114 32.5001 200.989 32.0966L200.975 32.0521C200.848 31.6418 200.713 31.208 200.567 30.7953C200.295 30.023 199.908 29.078 199.252 28.407C198.897 28.0434 198.432 27.7267 197.843 27.5818C197.254 27.4369 196.663 27.4939 196.107 27.6776C195.683 27.8173 195.218 27.9534 194.707 28.1029C191.996 28.8957 188.002 30.0642 182.156 34.1306C177.557 37.3261 170.794 40.3102 167.16 41.8015C165.201 42.6011 163.653 44.1466 162.802 46.0817C162.385 47.0244 161.912 48.0792 161.478 48.9934Z" fill="#8BBECE" stroke="white" stroke-width="3"/>
<path d="M84.1623 93.493L84.1656 93.4884C85.6079 91.5113 86.5505 88.422 87.1691 85.0825C87.7983 81.6859 88.129 77.8136 88.2227 74.1004C88.3164 70.3869 88.1742 66.7881 87.8419 63.9328C87.6761 62.5084 87.4592 61.235 87.1889 60.2108C87.0537 59.6989 86.898 59.2211 86.7153 58.8052C86.5407 58.4079 86.3009 57.9715 85.9553 57.6241L85.9553 57.6241L85.9525 57.6212C85.0817 56.7504 84.1177 56.2677 83.0865 56.089C82.0958 55.9173 81.1342 56.0427 80.2847 56.2238C79.8043 56.3262 79.239 56.4778 78.7124 56.6191C78.3897 56.7057 78.0815 56.7884 77.8164 56.8534C77.0219 57.0483 76.2797 57.1819 75.5405 57.1819C72.658 57.1819 71.2054 59.5742 70.4582 61.816C69.6813 64.1466 69.3686 67.1129 69.1659 69.7479C69.1219 70.3199 68.7848 70.8352 67.7253 71.375C66.6328 71.9316 65.1363 72.3195 63.3929 72.7462C63.3016 72.7686 63.2095 72.791 63.1169 72.8136C61.5335 73.2002 59.7727 73.63 58.3252 74.2811C56.797 74.9684 55.2388 76.0696 54.7698 78.0078L54.7696 78.0087C54.4392 79.3782 54.3646 80.5934 54.8181 81.6475C55.2835 82.7292 56.1696 83.3198 56.9162 83.7392C57.2084 83.9033 57.5094 84.0586 57.8193 84.2185C59.1241 84.8917 60.588 85.6469 62.2209 87.4876L62.2224 87.4893C63.3669 88.7753 64.9819 89.808 66.701 90.6432C68.4368 91.4865 70.3764 92.1748 72.2579 92.7302C76.0208 93.8408 79.6789 94.456 81.2799 94.6975L81.2865 94.6985C82.3932 94.8605 83.4963 94.3988 84.1623 93.493Z" fill="#8BBECE" stroke="white" stroke-width="3"/>
<path d="M78.8504 106.62L97.8746 88.5614" stroke="#003A5F" stroke-width="1.8" stroke-miterlimit="10" stroke-linecap="round" stroke-linejoin="round"/>
<path d="M146.833 43.915L168.293 23.9048" stroke="#003A5F" stroke-width="1.8" stroke-miterlimit="10" stroke-linecap="round" stroke-linejoin="round"/>
<path d="M71.5458 37.6406C71.5458 37.6406 70.8546 38.508 69.9872 39.8497" stroke="#003A5F" stroke-width="2" stroke-linecap="round" stroke-linejoin="round"/>
<path d="M114.375 68.6113C114.85 69.3567 115.324 70.1157 115.812 70.9153C115.812 70.9153 116.652 70.3461 118.075 69.438" stroke="#003A5F" stroke-width="1.8" stroke-linecap="round" stroke-linejoin="round"/>
<path d="M121.559 67.2439C128.254 63.1103 139.245 56.8489 145.818 55.8324C154.506 54.4772 145.818 73.5078 151.388 81.4471" stroke="#003A5F" stroke-width="2" stroke-linecap="round" stroke-linejoin="round" stroke-dasharray="5.49 5.49"/>
<path d="M159.287 94.3059L160.404 94.0268C160.887 93.9037 161.181 93.387 161.062 92.8648L160.116 88.8725L163.918 87.9068C164.401 87.7837 164.695 87.267 164.576 86.7448L164.296 85.5593C164.176 85.0371 163.676 84.7207 163.194 84.8437L159.391 85.8095L158.414 81.6747C158.294 81.1525 157.794 80.836 157.312 80.9591L156.195 81.2383C155.713 81.3613 155.418 81.878 155.538 82.4002L156.515 86.535L152.693 87.5037C152.211 87.6268 151.917 88.1435 152.036 88.6657L152.316 89.8512C152.435 90.3734 152.936 90.6898 153.418 90.5668L157.24 89.5981L158.185 93.5904C158.303 94.103 158.805 94.429 159.287 94.3059Z" fill="#003A5F"/>
<path d="M81.4998 24.5073L121.5 2.00732L35.9998 80.0073L10 90.4837L81.4998 24.5073Z" fill="#EDEDED"/>
<path d="M47.6587 69.6923L93.1605 26.8931" stroke="#003A5F" stroke-width="1.8" stroke-miterlimit="10" stroke-linecap="round" stroke-linejoin="round"/>
<path d="M68.3633 44.3467C66.7505 47.7078 65.7747 51.7058 68.6208 53.7929C73.9064 57.6826 93.6121 38.0175 114.619 68.9585" stroke="#003A5F" stroke-width="1.8" stroke-linecap="round" stroke-linejoin="round" stroke-dasharray="5.34 5.34"/>
<path d="M115.131 23.8799C116.357 22.8404 118.187 21.9706 119.76 21.3551C121.341 20.7359 123.234 20.579 124.964 21.361M115.131 23.8799L124.964 21.361M115.131 23.8799C114.532 24.388 113.891 25.0903 113.654 25.9917M115.131 23.8799L113.654 25.9917M124.964 21.361C125.393 21.5546 125.819 21.7811 126.188 22.0367M124.964 21.361L126.188 22.0367M113.654 25.9917C113.375 27.0466 113.727 28.0402 114.489 28.8062M113.654 25.9917L114.489 28.8062M114.489 28.8062C115.219 29.5401 115.538 30.1137 115.669 30.4935C115.746 30.7152 115.722 31.0158 115.554 31.8315C115.547 31.8647 115.54 31.8994 115.532 31.9354C115.395 32.5876 115.167 33.6778 115.538 34.7572C116.005 36.1129 117.122 37.2133 118.967 37.4824C120.661 37.7293 122.86 37.2633 125.68 35.9941C127.67 35.0987 129.104 34.1211 129.817 32.9562C130.201 32.329 130.385 31.6293 130.298 30.9026C130.214 30.1965 129.89 29.6068 129.508 29.1422C128.774 28.2511 127.642 27.596 126.584 27.1235C126.041 26.8812 125.472 26.6672 124.908 26.4824C125.089 26.4136 125.296 26.3422 125.534 26.2696C126.042 26.1147 126.686 25.8429 127.106 25.2804C127.342 24.9638 127.493 24.5715 127.498 24.1359M114.489 28.8062L127.498 24.1359M127.498 24.1359C127.503 23.7189 127.373 23.368 127.226 23.1076M127.498 24.1359L127.226 23.1076M127.226 23.1076C126.954 22.6225 126.527 22.2716 126.188 22.0367M127.226 23.1076L126.188 22.0367" fill="#8BBECE" stroke="white" stroke-width="3"/>
<defs>
<linearGradient id="paint0_linear_3817_1796" x1="16.5" y1="16.5" x2="94" y2="100.5" gradientUnits="userSpaceOnUse">
<stop offset="0.523611" stop-color="#F2F2F2"/>
<stop offset="0.531841" stop-color="white" stop-opacity="0"/>
</linearGradient>
</defs>
</svg>
