<svg width="171" height="128" viewBox="0 0 171 128" fill="none" xmlns="http://www.w3.org/2000/svg">
<path d="M91.6 48.0001L63 46.2001C62.6 46.2001 62.4 45.9001 62.4 45.5001V26.2001C62.4 25.8001 62.7 25.6001 63 25.6001L91.6 27.4001C92 27.4001 92.2 27.7001 92.2 28.1001V47.5001C92.2 47.8001 91.9 48.0001 91.6 48.0001Z" fill="#8BBECE"/>
<path d="M139.8 51.0001L111.2 49.2001C110.8 49.2001 110.6 48.9001 110.6 48.5001V29.2001C110.6 28.8001 110.9 28.6001 111.2 28.6001L139.8 30.4001C140.2 30.4001 140.4 30.7001 140.4 31.1001V50.5001C140.5 50.8001 140.2 51.0001 139.8 51.0001Z" fill="#8BBECE"/>
<path d="M92.7 87.7003L64 86.0003C63.6 86.0003 63.4 85.7003 63.4 85.3003V65.9003C63.4 65.5003 63.7 65.3003 64 65.3003L92.7 67.0003C93.1 67.0003 93.3 67.3003 93.3 67.7003V87.1003C93.3 87.5003 93 87.8003 92.7 87.7003Z" fill="#8BBECE"/>
<path d="M39.7001 37.7004L10.9001 35.9004C10.5001 35.9004 10.2001 35.6004 10.2001 35.2004C10.2001 34.8004 10.5001 34.5004 10.9001 34.6004L39.7001 36.4004C40.1001 36.4004 40.4001 36.7004 40.4001 37.1004C40.4001 37.5004 40.1001 37.8004 39.7001 37.7004Z" fill="#8BBECE"/>
<path d="M39.7001 46.1003L10.9001 44.3003C10.5001 44.3003 10.2001 44.0003 10.2001 43.6003C10.2001 43.2003 10.5001 42.9003 10.9001 43.0003L39.7001 44.8003C40.1001 44.8003 40.4001 45.1003 40.4001 45.5003C40.4001 45.9003 40.1001 46.2003 39.7001 46.1003Z" fill="#8BBECE"/>
<path d="M40.1001 54.6003L11.3001 52.8003C10.9001 52.8003 10.6001 52.5003 10.6001 52.1003C10.6001 51.7003 10.9001 51.4003 11.3001 51.5003L40.1001 53.3003C40.5001 53.3003 40.8001 53.6003 40.8001 54.0003C40.7001 54.3003 40.4001 54.6003 40.1001 54.6003Z" fill="#8BBECE"/>
<path d="M25.2001 24.9001L13.8001 24.2001C12.9001 24.1001 12.1001 23.3001 12.1001 22.3001C12.1001 21.3001 12.9001 20.6001 13.8001 20.6001L25.2001 21.3001C26.1001 21.4001 26.9001 22.2001 26.9001 23.2001C26.9001 24.3001 26.1001 25.0001 25.2001 24.9001Z" fill="#8BBECE"/>
<path d="M9.7001 33.1002C9.4001 33.4002 9.2001 33.9002 9.2001 34.4002C9.2001 35.5002 10.0001 36.4002 11.1001 36.5002L38.1001 38.2002V42.7002L11.0001 41.0002C10.5001 41.0002 10.0001 41.2002 9.7001 41.5002C9.4001 41.8002 9.2001 42.3002 9.2001 42.8002C9.2001 43.9002 10.0001 44.8002 11.1001 44.9002L38.1001 46.6002V51.1002L11.1001 49.4002C10.6001 49.4002 10.1001 49.6002 9.8001 49.9002C9.5001 50.2002 9.3001 50.7002 9.3001 51.2002C9.3001 52.3002 10.1001 53.2002 11.2001 53.3002L38.0001 55.0002V101.4C38.0001 101.8 37.7001 102 37.4001 102L6.7001 100.1C6.3001 100.1 6.1001 99.8002 6.1001 99.4002V24.3002C6.1001 23.9002 6.4001 23.7002 6.7001 23.7002L37.4001 25.6002C37.8001 25.6002 38.0001 25.9002 38.0001 26.3002V34.3002L11.0001 32.6002C10.5001 32.6002 10.0001 32.8002 9.7001 33.1002Z" fill="url(#paint0_linear_1022_4730)"/>
<path d="M150.6 20.1001L1.30005 10.8001V9.1001L150.6 18.4001V20.1001Z" fill="#003B62"/>
<path d="M149.3 112.8L2.60005 103.6C1.90005 103.6 1.30005 102.9 1.30005 102.2V6.60029C1.30005 5.90029 1.90005 5.30029 2.60005 5.30029L149.3 14.5003C150 14.5003 150.6 15.2003 150.6 15.9003V111.5C150.6 112.3 150 112.8 149.3 112.8Z" stroke="#003B62" stroke-width="1.8" stroke-miterlimit="10" stroke-linecap="round" stroke-linejoin="round"/>
<path d="M154 108.1L150.5 107.9V15.9002C150.5 15.2002 149.9 14.5002 149.2 14.5002L6 5.60019V2.00019C6 1.30019 6.6 0.700195 7.3 0.700195L154 9.80019C154.7 9.80019 155.3 10.5002 155.3 11.2002V106.8C155.3 107.6 154.7 108.1 154 108.1Z" fill="#003B62"/>
<path d="M40.7001 36.4001C40.7001 36.9001 40.5001 37.4001 40.2001 37.7001C39.9001 38.0001 39.4001 38.2001 38.9001 38.2001L11.0001 36.5001C10.0001 36.4001 9.1001 35.5001 9.1001 34.4001C9.1001 33.9001 9.3001 33.4001 9.6001 33.1001C9.9001 32.8001 10.4001 32.6001 10.9001 32.6001L38.8001 34.3001C39.9001 34.5001 40.7001 35.4001 40.7001 36.4001Z" stroke="#003B62" stroke-width="1.8" stroke-miterlimit="10" stroke-linecap="round" stroke-linejoin="round"/>
<path d="M40.7001 44.8C40.7001 45.3 40.5001 45.8 40.2001 46.1C39.9001 46.4 39.4001 46.6 38.9001 46.6L11.0001 44.9C10.0001 44.8 9.1001 43.9 9.1001 42.8C9.1001 42.3 9.3001 41.8 9.6001 41.5C10.0001 41.2 10.5001 41 11.0001 41L38.9001 42.7C39.9001 42.8 40.7001 43.8 40.7001 44.8Z" stroke="#003B62" stroke-width="1.8" stroke-miterlimit="10" stroke-linecap="round" stroke-linejoin="round"/>
<path d="M40.7001 53.2004C40.7001 53.7004 40.5001 54.2004 40.2001 54.5004C39.9001 54.8004 39.4001 55.0004 38.9001 55.0004L11.0001 53.3004C10.0001 53.2004 9.1001 52.3004 9.1001 51.2004C9.1001 50.7004 9.3001 50.2004 9.6001 49.9004C9.9001 49.6004 10.4001 49.4004 10.9001 49.4004L38.8001 51.1004C39.9001 51.2004 40.7001 52.2004 40.7001 53.2004Z" stroke="#003B62" stroke-width="1.8" stroke-miterlimit="10" stroke-linecap="round" stroke-linejoin="round"/>
<path d="M93.7 50.1001L56.9001 47.8001C56.5001 47.8001 56.3 47.5001 56.3 47.1001V21.7001C56.3 21.3001 56.6001 21.1001 56.9001 21.1001L93.7 23.4001C94.1 23.4001 94.3001 23.7001 94.3001 24.1001V49.6001C94.3001 49.9001 94 50.2001 93.7 50.1001Z" stroke="#003B62" stroke-width="1.8" stroke-miterlimit="10" stroke-linecap="round" stroke-linejoin="round"/>
<path d="M25.4001 24.8003L11.4001 23.9003C10.2001 23.8003 9.20007 22.7003 9.20007 21.4003C9.20007 20.1003 10.2001 19.1003 11.4001 19.2003L25.4001 20.1003C26.6001 20.2003 27.6001 21.3003 27.6001 22.6003C27.6001 23.9003 26.6001 24.9003 25.4001 24.8003Z" stroke="#003B62" stroke-width="1.8" stroke-miterlimit="10" stroke-linecap="round" stroke-linejoin="round"/>
<path d="M2.1001 10.9004L150.6 20.1004" stroke="#003B62" stroke-width="1.8" stroke-miterlimit="10" stroke-linecap="round" stroke-linejoin="round"/>
<path d="M46.6001 13.6001V106.4" stroke="#003B62" stroke-width="1.8" stroke-miterlimit="10" stroke-linecap="round" stroke-linejoin="round"/>
<path d="M81.8 45.5L91.1 46" stroke="#003B62" stroke-width="1.8" stroke-miterlimit="10" stroke-linecap="round" stroke-linejoin="round"/>
<path d="M56.2001 52.3003L79.0001 53.7003" stroke="#003B62" stroke-width="1.8" stroke-miterlimit="10" stroke-linecap="round" stroke-linejoin="round"/>
<path d="M141.8 53.2001L105 50.9001C104.6 50.9001 104.4 50.6001 104.4 50.2001V24.7001C104.4 24.3001 104.7 24.1001 105 24.1001L141.8 26.4001C142.2 26.4001 142.4 26.7001 142.4 27.1001V52.6001C142.4 52.9001 142.1 53.2001 141.8 53.2001Z" stroke="#003B62" stroke-width="1.8" stroke-miterlimit="10" stroke-linecap="round" stroke-linejoin="round"/>
<path d="M129.9 48.5L139.2 49.1" stroke="#003B62" stroke-width="1.8" stroke-miterlimit="10" stroke-linecap="round" stroke-linejoin="round"/>
<path d="M104.3 55.3003L127.1 56.7003" stroke="#003B62" stroke-width="1.8" stroke-miterlimit="10" stroke-linecap="round" stroke-linejoin="round"/>
<path d="M94.7 89.8002L57.9001 87.5002C57.5001 87.5002 57.3 87.2002 57.3 86.8002V61.3002C57.3 60.9002 57.6001 60.7002 57.9001 60.7002L94.7 63.0002C95.1 63.0002 95.3001 63.3002 95.3001 63.7002V89.2002C95.4001 89.5002 95.1 89.8002 94.7 89.8002Z" stroke="#003B62" stroke-width="1.8" stroke-miterlimit="10" stroke-linecap="round" stroke-linejoin="round"/>
<path d="M82.9 85.1001L92.2 85.7001" stroke="#003B62" stroke-width="1.8" stroke-miterlimit="10" stroke-linecap="round" stroke-linejoin="round"/>
<path d="M57.3 91.9004L80 93.3004" stroke="#003B62" stroke-width="1.8" stroke-miterlimit="10" stroke-linecap="round" stroke-linejoin="round"/>
<path d="M60.8001 42.8003L80.6 24.8003L88.8001 25.3003L74.2 44.0003L61.3001 43.9003C60.7001 43.9003 60.4001 43.1003 60.8001 42.8003Z" fill="url(#paint1_linear_1022_4730)"/>
<path d="M109.4 45.8003L129.2 27.8003L137.4 28.3003L122.7 47.1003L109.9 47.0003C109.3 47.0003 109 46.2003 109.4 45.8003Z" fill="url(#paint2_linear_1022_4730)"/>
<path d="M59.5 83L79.3 65L87.5 65.5L72.8 84.3L60 84.2C59.4 84.2 59 83.4 59.5 83Z" fill="url(#paint3_linear_1022_4730)"/>
<path d="M166.5 71.7002L148.6 70.6002V67.9002C148.6 67.5002 148.6 67.0002 148.5 66.6002C147.7 62.0002 143 58.1002 137.2 57.5002C132.1 57.0002 127.8 59.3002 126.4 62.9002C124.2 64.3002 122.7 66.4002 122.6 69.0002L116.9 68.6002L108.7 72.1002L105.2 122.9C105.2 123.4 105.5 123.8 106 123.9L159.8 127.3L169.8 121.4L166.5 71.7002ZM137.2 60.1002C141.2 60.5002 144.5 63.2002 145.2 66.4002C145.3 66.8002 145.3 67.1002 145.3 67.5002V70.4002H145.2C144.4 65.8002 139.7 61.9002 133.9 61.3002C133.2 61.2002 132.5 61.2002 131.8 61.2002C133.3 60.3002 135.1 59.9002 137.2 60.1002ZM129.3 64.6002C130.6 64.0002 132.2 63.7002 133.9 63.9002C137.9 64.3002 141.2 67.0002 141.9 70.2002L125.9 69.2002C126.1 67.1002 127.4 65.5002 129.3 64.6002Z" fill="white"/>
<path d="M109.8 78.2002C109.7 80.1002 107.9 112.8 107.5 120.3C107.5 121 108.2 121.6 109 121.7L152.2 123.8L109.8 78.2002Z" fill="url(#paint4_linear_1022_4730)"/>
<path d="M120.8 81.9004C120.8 81.9004 121 86.1004 129.2 86.7004C137.4 87.3004 145.4 87.8004 145.4 87.8004L145.3 83.6004C145.3 83.6004 144.7 83.2004 142.7 83.2004C140.6 83.3004 120.8 81.9004 120.8 81.9004Z" fill="#8BBECE"/>
<path d="M161 74.6004L145.5 73.5004V70.4004L166.5 71.7004L161 74.6004Z" fill="#003B62"/>
<path d="M142 73.3004L125.9 72.3004V69.4004L142 70.2004V73.3004Z" fill="#003B62"/>
<path d="M116.9 68.5005C117 68.9005 122.6 72.1005 122.6 72.1005V68.9005L116.9 68.5005Z" fill="#003B62"/>
<path d="M126.8 62.5003C126.9 62.4003 129 61.2003 131.8 61.1003C131.8 61.1003 134 59.3003 138.2 60.1003C142.3 61.0003 146 64.2003 145.3 69.7003V70.3003L148.1 70.5003C148.1 70.5003 148.6 61.0003 138.7 59.3003C129.7 57.8003 126.8 62.5003 126.8 62.5003Z" fill="#003B62"/>
<path d="M126.5 67.1002C126.5 67.1002 128.4 69.2002 129.1 69.4002V64.7002L126.5 67.1002Z" fill="#003B62"/>
<path d="M159.2 127C159.2 127 159.8 127.2 161.9 126C164 124.8 167.2 123.1 167.2 123.1L163.1 73.5005L159.8 75.3005L159.9 125.8C159.8 125.8 159.9 126.7 159.2 127Z" fill="#8BBECE"/>
<path d="M165.6 123.9L163.9 86.4004" stroke="#003B62" stroke-width="1.8" stroke-miterlimit="10" stroke-linecap="round" stroke-linejoin="round"/>
<path d="M169.9 121.3C169.9 121.5 169.8 121.7 169.6 121.8L160.7 126.7C160.2 127 159.6 127.1 159 127.1L156.6 127L158.8 127.1C159.4 127.1 160 126.7 160 126.2L159.9 75.3002L166.6 71.7002L169.9 121.3Z" stroke="#003B62" stroke-width="1.8" stroke-miterlimit="10" stroke-linecap="round" stroke-linejoin="round"/>
<path d="M159.7 75.3001L159.8 126.2C159.8 126.7 159.3 127.1 158.6 127.1L156.4 127L106.1 124C105.5 124 105 123.5 105.1 123L108.6 72.1001L159.7 75.3001Z" stroke="#003B62" stroke-width="1.8" stroke-miterlimit="10" stroke-linecap="round" stroke-linejoin="round"/>
<path d="M122.6 68.9C122.6 69 122.6 69.2 122.6 69.3V72.9L108.7 72L116.9 68.5L122.6 68.9Z" stroke="#003B62" stroke-width="1.8" stroke-miterlimit="10" stroke-linecap="round" stroke-linejoin="round"/>
<path d="M141.9 70.2002C142 70.6002 142 70.9002 142 71.3002V74.2002L125.8 73.2002V69.7002C125.8 69.5002 125.8 69.4002 125.8 69.2002L141.9 70.2002Z" stroke="#003B62" stroke-width="1.8" stroke-miterlimit="10" stroke-linecap="round" stroke-linejoin="round"/>
<path d="M166.5 71.6999L159.8 75.2999L145.4 74.3999V71.6999C145.4 71.2999 145.4 70.7999 145.3 70.3999L166.5 71.6999Z" stroke="#003B62" stroke-width="1.8" stroke-miterlimit="10" stroke-linecap="round" stroke-linejoin="round"/>
<path d="M145.3 71.7002V74.4002L142 74.2002V71.3002C142 70.9002 142 70.5002 141.9 70.2002C141.2 67.0002 137.9 64.3002 133.9 63.9002C132.2 63.7002 130.6 64.0002 129.3 64.6002C127.4 65.5002 126.1 67.1002 125.9 69.2002C125.9 69.4002 125.9 69.5002 125.9 69.7002V73.2002L122.6 73.0002V69.4002C122.6 69.3002 122.6 69.1002 122.6 69.0002C122.7 66.4002 124.2 64.2002 126.4 62.8002C127.9 61.9002 129.8 61.3002 131.9 61.2002C132.6 61.2002 133.3 61.2002 134 61.3002C139.7 61.9002 144.5 65.9002 145.3 70.4002C145.3 70.8002 145.3 71.2002 145.3 71.7002Z" stroke="#003B62" stroke-width="1.8" stroke-miterlimit="10" stroke-linecap="round" stroke-linejoin="round"/>
<path d="M129.3 64.6001C129.2 64.9001 129.2 65.1001 129.2 65.4001C129.2 65.6001 129.2 65.7001 129.2 65.9001V69.4001L125.9 69.2001C126 67.1001 127.4 65.5001 129.3 64.6001Z" stroke="#003B62" stroke-width="1.8" stroke-miterlimit="10" stroke-linecap="round" stroke-linejoin="round"/>
<path d="M148.6 67.9001V70.6001L145.3 70.4001V67.5001C145.3 67.1001 145.3 66.7001 145.2 66.4001C144.6 63.2001 141.2 60.5001 137.2 60.1001C135.1 59.9001 133.3 60.3001 131.8 61.2001C129.7 61.3001 127.8 61.9001 126.3 62.8001C127.7 59.2001 132.1 56.9001 137.1 57.4001C142.8 58.0001 147.6 62.0001 148.4 66.5001C148.6 67.0001 148.6 67.4001 148.6 67.9001Z" stroke="#003B62" stroke-width="1.8" stroke-miterlimit="10" stroke-linecap="round" stroke-linejoin="round"/>
<path d="M144.4 89.3001L121 87.8001C120.6 87.8001 120.3 87.5001 120.3 87.2001L120.5 82.5001C120.5 82.2001 120.9 81.9001 121.3 82.0001L144.7 83.5001C145.1 83.5001 145.4 83.8001 145.4 84.1001L145.2 88.8001C145.1 89.1001 144.8 89.4001 144.4 89.3001Z" stroke="#003B62" stroke-width="1.8" stroke-miterlimit="10" stroke-linecap="round" stroke-linejoin="round"/>
<defs>
<linearGradient id="paint0_linear_1022_4730" x1="6.02447" y1="61.8268" x2="37.9688" y2="61.8268" gradientUnits="userSpaceOnUse">
<stop stop-color="#E9E9E9"/>
<stop offset="1" stop-color="#EFEFEF"/>
</linearGradient>
<linearGradient id="paint1_linear_1022_4730" x1="60.6345" y1="33.6785" x2="88.8888" y2="33.6785" gradientUnits="userSpaceOnUse">
<stop stop-color="#E9E9E9"/>
<stop offset="1" stop-color="#EFEFEF"/>
</linearGradient>
<linearGradient id="paint2_linear_1022_4730" x1="109.238" y1="36.7157" x2="137.492" y2="36.7157" gradientUnits="userSpaceOnUse">
<stop stop-color="#E9E9E9"/>
<stop offset="1" stop-color="#EFEFEF"/>
</linearGradient>
<linearGradient id="paint3_linear_1022_4730" x1="59.2773" y1="73.9253" x2="87.5316" y2="73.9253" gradientUnits="userSpaceOnUse">
<stop stop-color="#E9E9E9"/>
<stop offset="1" stop-color="#EFEFEF"/>
</linearGradient>
<linearGradient id="paint4_linear_1022_4730" x1="107.472" y1="99.8461" x2="152.155" y2="99.7649" gradientUnits="userSpaceOnUse">
<stop stop-color="#E9E9E9"/>
<stop offset="1" stop-color="#EFEFEF"/>
</linearGradient>
</defs>
</svg>
