<svg width="38" height="27" viewBox="0 0 38 27" fill="none" xmlns="http://www.w3.org/2000/svg">
<mask id="mask0_233_14563" style="mask-type:alpha" maskUnits="userSpaceOnUse" x="0" y="9" width="37" height="11">
<path d="M36.9986 9H0.5V19.8381H36.9986V9Z" fill="white"/>
</mask>
<g mask="url(#mask0_233_14563)">
<path d="M0.5 9.02393H9.87516V11.1772H9.70485L9.72465 9.7975H6.02132V19.5111H7.09073V19.8301H3.43097V19.5111H4.42117V9.7975H0.678235V11.1772H0.5V9.02393ZM10.3227 9.02393H14.0063V9.32299H12.9566V19.5151H14.0023V19.8341H10.3188V19.5151H11.3882V9.319H10.3188V9.02393H10.3227ZM17.2541 9H17.9591L21.405 17.3339L24.8271 9H25.5123L27.4334 19.5111H28.3997V19.8301H24.5974V19.5111H25.5757L24.3874 12.7921L21.3456 19.8381H20.6326L17.6224 12.7961L16.355 19.5191H17.2778L17.258 19.8381H14.4578L14.4776 19.5191H15.3331L17.2541 9ZM28.7206 9.02393H36.8283L36.848 11.1573H36.7016L36.6342 9.84137L31.3267 9.78155V14.0482H35.842L35.949 13.0513H36.147C36.0995 13.9605 36.0995 14.8457 36.147 15.7469H35.949L35.842 14.7181H31.3267V19.1283H36.8322L36.848 17.6609H36.9986V19.8341H28.7206V19.531L29.79 19.5151V9.34293L28.7206 9.32299V9.02791V9.02393Z" fill="#50575E"/>
</g>
</svg>
