<svg width="30" height="19" viewBox="0 0 30 19" fill="none" xmlns="http://www.w3.org/2000/svg">
<path fill-rule="evenodd" clip-rule="evenodd" d="M4.82757 1.72861H25.7042C26.0179 1.72861 26.3286 1.79131 26.6185 1.91312C26.9084 2.03493 27.1718 2.21347 27.3936 2.43854C27.6154 2.66361 27.7914 2.9308 27.9113 3.22484C28.0313 3.51888 28.093 3.83402 28.0929 4.15225V12.23C28.0929 12.5481 28.0311 12.8631 27.911 13.1569C27.791 13.4508 27.615 13.7178 27.3932 13.9427C27.1714 14.1675 26.908 14.3459 26.6182 14.4675C26.3284 14.5892 26.0178 14.6517 25.7042 14.6516H18.2169L19.2417 17.2063L14.7187 14.6516H4.82454C4.19171 14.6508 3.58506 14.3953 3.13777 13.9413C2.69048 13.4873 2.43911 12.8718 2.43884 12.23V4.15225C2.43884 3.50964 2.69048 2.89333 3.13842 2.43884C3.58637 1.98435 4.19394 1.72889 4.82757 1.72861V1.72861Z" fill="#7D57A4"/>
<path d="M3.73257 3.92236C3.81158 3.82222 3.9113 3.74088 4.02469 3.68409C4.13808 3.6273 4.26238 3.59644 4.38882 3.59368C4.92121 3.55614 5.22679 3.81075 5.30554 4.35753C5.634 6.57535 5.98567 8.45801 6.36057 10.0055L8.65843 5.57395C8.86641 5.17394 9.12925 4.96233 9.44693 4.93912C9.90731 4.90635 10.1951 5.20363 10.3101 5.83096C10.5264 7.07148 10.8587 8.28828 11.3026 9.46487C11.5785 6.7658 12.0393 4.81454 12.6847 3.61109C12.747 3.47611 12.8444 3.36092 12.9665 3.27793C13.0885 3.19493 13.2306 3.14727 13.3773 3.14008C13.6163 3.12016 13.8535 3.19546 14.0386 3.34999C14.1331 3.42234 14.2107 3.51488 14.266 3.62105C14.3214 3.72721 14.353 3.84441 14.3587 3.96434C14.3756 4.14136 14.3404 4.3195 14.2577 4.47631C13.8485 5.2463 13.5119 6.52655 13.2481 8.31705C12.9876 10.0454 12.8914 11.3974 12.9593 12.3728C12.9832 12.6119 12.9409 12.853 12.8372 13.0691C12.7868 13.1781 12.7084 13.2714 12.6101 13.339C12.5118 13.4066 12.3974 13.446 12.2789 13.4531C12.0022 13.4735 11.7266 13.3414 11.449 13.0588C10.4744 12.0452 9.70035 10.5369 9.12689 8.53412C8.45382 9.89935 7.94902 10.9205 7.61248 11.5977C6.99662 12.7991 6.46894 13.4152 6.02942 13.4459C5.74404 13.4664 5.50106 13.2234 5.30049 12.7169C4.76203 11.3264 4.18454 8.63617 3.56801 4.64628C3.54364 4.52066 3.54571 4.39125 3.57406 4.2665C3.60242 4.14175 3.65644 4.02448 3.73257 3.92236V3.92236Z" fill="white"/>
<path d="M26.2674 5.59417C26.0942 5.27709 25.8542 5.00262 25.5645 4.79025C25.2749 4.57789 24.9426 4.43285 24.5914 4.36546C24.4042 4.32532 24.2134 4.30473 24.022 4.30402C23.0178 4.30402 22.1973 4.83408 21.5606 5.89418C21.0184 6.79567 20.7361 7.83323 20.7458 8.88916C20.7458 9.7083 20.9141 10.4104 21.2507 10.9954C21.4237 11.3128 21.6637 11.5875 21.9536 11.7999C22.2435 12.0123 22.5761 12.1572 22.9276 12.2241C23.1144 12.2651 23.3049 12.286 23.496 12.2865C24.5103 12.2865 25.3305 11.7565 25.9564 10.6964C26.4986 9.78844 26.781 8.74543 26.7722 7.684C26.7722 6.86486 26.6039 6.16825 26.2674 5.59417ZM24.9448 8.5441C24.8014 9.24037 24.5356 9.76496 24.1472 10.1179C23.8396 10.3984 23.5576 10.5128 23.3012 10.4609C23.0447 10.409 22.8391 10.1796 22.6843 9.77281C22.5657 9.46421 22.5031 9.13639 22.4995 8.8052C22.4985 8.54313 22.5243 8.28167 22.5763 8.02497C22.6762 7.57074 22.8643 7.14123 23.1295 6.76144C23.4782 6.24197 23.8423 6.02388 24.2219 6.10716C24.4784 6.15972 24.6836 6.38839 24.8378 6.79319C24.956 7.10151 25.0182 7.42897 25.0215 7.75977C25.0228 8.0232 24.9971 8.28606 24.9448 8.5441V8.5441Z" fill="white"/>
<path d="M19.6972 5.59417C19.524 5.27709 19.284 5.00262 18.9943 4.79025C18.7047 4.57789 18.3724 4.43285 18.0212 4.36546C17.834 4.32532 17.6432 4.30473 17.4518 4.30402C16.4469 4.30402 15.6268 4.83408 14.9914 5.89418C14.4485 6.79539 14.1658 7.83307 14.1757 8.88916C14.1757 9.7083 14.3439 10.4104 14.6805 10.9954C14.8532 11.313 15.0932 11.5879 15.3831 11.8004C15.6731 12.0128 16.0058 12.1575 16.3574 12.2241C16.5442 12.2651 16.7347 12.286 16.9258 12.2865C17.9408 12.2865 18.7613 11.7565 19.3872 10.6964C19.9313 9.78892 20.2162 8.74603 20.2101 7.684C20.2101 6.86486 20.0418 6.16825 19.7053 5.59417H19.6972ZM18.3746 8.5441C18.2312 9.24173 17.9647 9.767 17.575 10.1199C17.2667 10.4005 16.9847 10.5148 16.729 10.4629C16.4732 10.4111 16.2682 10.181 16.1141 9.77281C15.9955 9.46421 15.9329 9.13639 15.9293 8.8052C15.9284 8.54313 15.9541 8.28167 16.0061 8.02497C16.1069 7.57103 16.2949 7.14168 16.5593 6.76144C16.9066 6.24334 17.2708 6.02592 17.6517 6.1092C17.9082 6.16176 18.1131 6.39044 18.2666 6.79523C18.3851 7.1035 18.4477 7.43096 18.4513 7.76182C18.4524 8.02388 18.4267 8.28535 18.3746 8.54205V8.5441Z" fill="white"/>
</svg>
