<svg width="24" height="24" viewBox="0 0 24 24" fill="none" xmlns="http://www.w3.org/2000/svg">
<path d="M5.5 18L5.5 6C5.5 5.72386 5.72386 5.5 6 5.5H9V4H6C4.89543 4 4 4.89543 4 6L4 18C4 19.1046 4.89543 20 6 20H9V18.5H6C5.72386 18.5 5.5 18.2761 5.5 18Z" fill="black"/>
<path d="M12.75 2L12.75 22H11.25L11.25 2L12.75 2Z" fill="black"/>
<path d="M16.5 4V5.5L15 5.5L15 4H16.5Z" fill="black"/>
<path d="M20 6C20 4.89543 19.1046 4 18 4V5.5C18.2761 5.5 18.5 5.72386 18.5 6H20Z" fill="black"/>
<path d="M18.5 16.5L18.5 14.5H20V16.5H18.5Z" fill="black"/>
<path d="M20 13H18.5V11H20V13Z" fill="black"/>
<path d="M18 18.5C18.2761 18.5 18.5 18.2761 18.5 18H20C20 19.1046 19.1046 20 18 20V18.5Z" fill="black"/>
<path d="M16.5 20V18.5H15V20H16.5Z" fill="black"/>
<path d="M18.5 9.5H20V7.5H18.5V9.5Z" fill="black"/>
</svg>
