<svg width="24" height="24" viewBox="0 0 24 24" fill="none" xmlns="http://www.w3.org/2000/svg">
<path d="M12.0664 4V2.25L15.0664 4.75L12.0664 7.25V5.5C8.47657 5.5 5.56641 8.41015 5.56641 12C5.56641 14.892 7.45514 17.3429 10.0664 18.1865V18.3749L10.1196 18.2019C10.4843 18.3169 10.852 18.3978 11.2192 18.4463L11.0225 19.9334C10.7032 19.8912 10.3839 19.8292 10.0664 19.7468V19.748C6.61595 18.8599 4.06641 15.7277 4.06641 12C4.06641 7.58172 7.64814 4 12.0664 4Z" fill="black"/>
<path d="M19.9996 10.9555C19.8152 9.56507 19.2674 8.24244 18.4146 7.12891L17.2237 8.04094C17.917 8.94618 18.3627 10.0223 18.5126 11.1527L19.9996 10.9555Z" fill="black"/>
<path d="M18.5132 12.8474L20.0003 13.0441C19.9106 13.722 19.7319 14.3995 19.4577 15.0613C19.1836 15.7231 18.8309 16.3286 18.4149 16.8713L17.2244 15.9589C17.5615 15.519 17.8483 15.0272 18.0719 14.4873C18.2955 13.9474 18.4405 13.3968 18.5132 12.8474Z" fill="black"/>
<path d="M16.0256 17.1568L16.9376 18.3477C15.8241 19.2005 14.5015 19.7484 13.1111 19.9327L12.9139 18.4457C14.0442 18.2959 15.1203 17.8501 16.0256 17.1568Z" fill="black"/>
</svg>
