<svg width="202" height="140" viewBox="0 0 202 140" fill="none" xmlns="http://www.w3.org/2000/svg">
<rect width="59.4118" height="38" rx="2" fill="#F6F7F7"/>
<rect y="40" width="27.7255" height="3" rx="1.5" fill="#F6F7F7"/>
<rect x="71" width="59.4118" height="38" rx="2" fill="#F6F7F7"/>
<rect x="71" y="40" width="27.7255" height="3" rx="1.5" fill="#F6F7F7"/>
<rect x="142" width="59.4118" height="38" rx="2" fill="#F6F7F7"/>
<rect x="142" y="40" width="27.7255" height="3" rx="1.5" fill="#F6F7F7"/>
<rect y="51" width="59.4118" height="38" rx="2" fill="#F6F7F7"/>
<rect y="91" width="27.7255" height="3" rx="1.5" fill="#F6F7F7"/>
<rect x="71" y="51" width="59.4118" height="38" rx="2" fill="#F6F7F7"/>
<rect x="71" y="91" width="27.7255" height="3" rx="1.5" fill="#F6F7F7"/>
<rect x="142" y="51" width="59.4118" height="38" rx="2" fill="#F6F7F7"/>
<rect x="142" y="91" width="27.7255" height="3" rx="1.5" fill="#F6F7F7"/>
<rect y="102" width="59.4118" height="38" fill="#F6F7F7"/>
<rect x="71" y="102" width="59.4118" height="38" rx="2" fill="#F6F7F7"/>
<rect x="142" y="102" width="59.4118" height="38" rx="2" fill="#F6F7F7"/>
</svg>
