<svg width="137" height="138" viewBox="0 0 137 138" fill="none" xmlns="http://www.w3.org/2000/svg">
<rect x="25" y="34" width="112" height="3" rx="1.5" fill="#F6F7F7"/>
<rect x="25" y="40" width="112" height="3" rx="1.5" fill="#F6F7F7"/>
<ellipse cx="9.5" cy="39" rx="9.5" ry="9" fill="#F6F7F7"/>
<path d="M14.5 38.134C15.1667 38.5189 15.1667 39.4811 14.5 39.866L8.5 43.3301C7.83333 43.715 7 43.2339 7 42.4641L7 35.5359C7 34.7661 7.83333 34.285 8.5 34.6699L14.5 38.134Z" fill="white"/>
<rect x="25" y="4" width="112" height="3" rx="1.5" fill="#F6F7F7"/>
<rect x="25" y="10" width="112" height="3" rx="1.5" fill="#F6F7F7"/>
<ellipse cx="9.5" cy="9" rx="9.5" ry="9" fill="#F6F7F7"/>
<path d="M14.5 8.13397C15.1667 8.51888 15.1667 9.48113 14.5 9.86603L8.5 13.3301C7.83333 13.715 7 13.2339 7 12.4641L7 5.5359C7 4.7661 7.83333 4.28497 8.5 4.66987L14.5 8.13397Z" fill="white"/>
<rect x="25" y="64" width="112" height="3" rx="1.5" fill="#F6F7F7"/>
<rect x="25" y="70" width="112" height="3" rx="1.5" fill="#F6F7F7"/>
<ellipse cx="9.5" cy="69" rx="9.5" ry="9" fill="#F6F7F7"/>
<path d="M14.5 68.134C15.1667 68.5189 15.1667 69.4811 14.5 69.866L8.5 73.3301C7.83333 73.715 7 73.2339 7 72.4641L7 65.5359C7 64.7661 7.83333 64.285 8.5 64.6699L14.5 68.134Z" fill="white"/>
<rect x="25" y="94" width="112" height="3" rx="1.5" fill="#F6F7F7"/>
<rect x="25" y="100" width="112" height="3" rx="1.5" fill="#F6F7F7"/>
<ellipse cx="9.5" cy="99" rx="9.5" ry="9" fill="#F6F7F7"/>
<path d="M14.5 98.134C15.1667 98.5189 15.1667 99.4811 14.5 99.866L8.5 103.33C7.83333 103.715 7 103.234 7 102.464L7 95.5359C7 94.7661 7.83333 94.285 8.5 94.6699L14.5 98.134Z" fill="white"/>
<rect x="25" y="124" width="112" height="3" rx="1.5" fill="#F6F7F7"/>
<rect x="25" y="130" width="112" height="3" rx="1.5" fill="#F6F7F7"/>
<ellipse cx="9.5" cy="129" rx="9.5" ry="9" fill="#F6F7F7"/>
<path d="M14.5 128.134C15.1667 128.519 15.1667 129.481 14.5 129.866L8.5 133.33C7.83333 133.715 7 133.234 7 132.464L7 125.536C7 124.766 7.83333 124.285 8.5 124.67L14.5 128.134Z" fill="white"/>
</svg>
