<svg
  width="16"
  height="4"
  fill="none"
  xmlns="http://www.w3.org/2000/svg"
>
  <path
    d="M3.771 1.645c0 .909-.729 1.645-1.628 1.645-.9 0-1.629-.736-1.629-1.645C.514.737 1.244 0 2.143 0c.9 0 1.628.737 1.628 1.645ZM9.743 1.645c0 .909-.73 1.645-1.629 1.645-.9 0-1.628-.736-1.628-1.645C6.486.737 7.215 0 8.114 0c.9 0 1.629.737 1.629 1.645ZM15.714 1.645c0 .909-.729 1.645-1.628 1.645-.9 0-1.629-.736-1.629-1.645 0-.908.73-1.645 1.629-1.645s1.628.737 1.628 1.645Z"
    fill="#000"
    fill-opacity="0.12"
  ></path>
</svg>
