<svg viewBox="0 0 124 33" xmlns="http://www.w3.org/2000/svg"><path d="m46.2 6.7h-6.8c-.5 0-.9.3-.9.8l-2.8 17.5c-.1.3.2.7.6.7h3.3c.5 0 .9-.3.9-.8l.7-4.7c.1-.5.5-.8.9-.8h2.2c4.5 0 7.1-2.2 7.8-6.5.3-1.9 0-3.4-.9-4.4-1-1.1-2.7-1.8-5-1.8zm.8 6.5c-.4 2.5-2.2 2.5-4.1 2.5h-1l.7-4.6c0-.3.3-.5.6-.5h.5c1.2 0 2.4 0 3 .7.3.4.4 1 .3 1.9zm19.7-.1h-3.3c-.3 0-.5.2-.6.5l-.1.9-.2-.3c-.7-1-2.3-1.4-3.9-1.4-3.6 0-6.7 2.7-7.3 6.6-.3 1.9.1 3.8 1.2 5 1 1.2 2.4 1.7 4.1 1.7 2.9 0 4.5-1.9 4.5-1.9l-.1.9c-.1.3.2.7.6.7h2.9c.5 0 .9-.3.9-.8l1.8-11.2c.1-.4-.2-.7-.5-.7zm-4.6 6.3c-.3 1.9-1.8 3.1-3.7 3.1-1 0-1.7-.3-2.2-.9s-.7-1.4-.5-2.3c.3-1.9 1.8-3.2 3.7-3.2.9 0 1.7.3 2.2.9.4.7.6 1.5.5 2.4zm22-6.3h-3.3c-.3 0-.6.2-.8.4l-4.5 6.7-1.9-6.4c-.1-.4-.5-.7-.9-.7h-3.2c-.4 0-.7.4-.5.8l3.6 10.6-3.4 4.8c-.3.4 0 .9.5.9h3.3c.3 0 .6-.2.8-.4l10.8-15.8c.2-.4 0-.9-.5-.9z" fill="#253b80"/><path d="m95 6.7h-6.8c-.5 0-.9.3-.9.8l-2.8 17.5c-.1.3.2.7.6.7h3.5c.3 0 .6-.2.7-.6l.8-5c.1-.5.5-.8.9-.8h2.2c4.5 0 7.1-2.2 7.8-6.5.3-1.9 0-3.4-.9-4.4-1.1-1-2.8-1.7-5.1-1.7zm.8 6.5c-.4 2.5-2.2 2.5-4.1 2.5h-1l.7-4.6c0-.3.3-.5.6-.5h.5c1.2 0 2.4 0 3 .7.3.4.4 1 .3 1.9zm19.6-.1h-3.3c-.3 0-.5.2-.6.5l-.1.9-.2-.3c-.7-1-2.3-1.4-3.9-1.4-3.6 0-6.7 2.7-7.3 6.6-.3 1.9.1 3.8 1.2 5 1 1.2 2.4 1.7 4.1 1.7 2.9 0 4.5-1.9 4.5-1.9l-.1.9c-.1.3.2.7.6.7h2.9c.5 0 .9-.3.9-.8l1.8-11.2c.2-.4-.1-.7-.5-.7zm-4.5 6.3c-.3 1.9-1.8 3.1-3.7 3.1-.9 0-1.7-.3-2.2-.9s-.7-1.4-.5-2.3c.3-1.9 1.8-3.2 3.7-3.2.9 0 1.7.3 2.2.9.4.7.6 1.5.5 2.4zm8.4-12.2-2.8 17.9c-.1.3.2.7.6.7h2.8c.5 0 .9-.3.9-.8l2.8-17.5c.1-.3-.2-.7-.6-.7h-3.2c-.2-.1-.5.2-.5.4z" fill="#179bd7"/><path d="m7.3 29.2.5-3.3h-6.7l3.8-24.6c0-.1.1-.2.1-.2.1 0 .2-.1.2-.1h9.4c3.1 0 5.3.7 6.4 2 .5.6.9 1.2 1 1.9.2.7.2 1.6 0 2.6v.8l.5.3c.4.2.8.5 1.1.8.5.5.7 1.2.9 1.9.1.8.1 1.7-.1 2.8-.2 1.2-.6 2.3-1.2 3.2-.5.8-1.1 1.5-1.8 2s-1.5.9-2.5 1.1c-.9.2-1.9.4-3.1.4h-.7c-.5 0-1 .2-1.4.5s-.7.8-.7 1.3l-.1.3-.9 5.9v.2c0 .1 0 .1-.1.1h-.1c0 .1-4.5.1-4.5.1z" fill="#253b80"/><path d="m23 7.7v.5c-1.2 6.4-5.5 8.5-10.9 8.5h-2.8c-.7 0-1.2.5-1.3 1.1l-1.4 8.9-.4 2.5c-.1.4.3.8.7.8h4.9c.6 0 1.1-.4 1.2-1v-.2l.9-5.8.1-.3c.1-.6.6-1 1.2-1h.7c4.7 0 8.4-1.9 9.5-7.5.5-2.3.2-4.3-1-5.6-.4-.3-.8-.7-1.4-.9z" fill="#179bd7"/><path d="m21.8 7.2c-.2-.1-.4-.2-.6-.2s-.4-.1-.6-.1c-.7-.1-1.6-.2-2.4-.2h-7.4c-.2 0-.4 0-.5.1-.4.2-.6.5-.7.9l-1.6 9.9v.3c.1-.7.7-1.1 1.3-1.1h2.8c5.4 0 9.6-2.2 10.9-8.5v-.6c-.3-.2-.7-.3-1-.4-.1-.1-.2-.1-.2-.1z" fill="#222d65"/><path d="m9.6 7.7c.1-.4.3-.7.7-.9.2-.1.3-.1.5-.1h7.4c.9 0 1.7.1 2.4.2.2 0 .4.1.6.1s.4.1.6.2c.1 0 .2.1.3.1.4.1.7.3 1 .4.4-2.3 0-3.9-1.3-5.4-1.4-1.6-3.9-2.3-7.2-2.3h-9.4c-.6 0-1.2.5-1.3 1.1l-3.9 24.8c-.1.5.3.9.8.9h5.8l1.4-9.2z" fill="#253b80"/></svg>