<svg xmlns="http://www.w3.org/2000/svg" xmlns:xlink="http://www.w3.org/1999/xlink" viewBox="0 0 148.2 186.875"><defs><style>.a{fill:none;}.b{clip-path:url(#a);}.c{fill:#dcdcde;}.d{fill:#187aa2;}.e{fill:#98c6d9;}.f{fill:#003c56;}.g{fill:#6ab3d0;}.h{fill:#006088;}.i{fill:#f6f7f7;}</style><clipPath id="a" transform="translate(0 0)"><rect class="a" width="148.2" height="186.88"/></clipPath></defs><title>woocommerce-store-creation</title><g class="b"><path class="c" d="M76.3,186.875a71.9,71.9,0,1,0-71.9-71.9A71.9,71.9,0,0,0,76.3,186.875Z" transform="translate(0 0)"/><path class="d" d="M107,94.575l.3,36,6.2-.9s-8.8-11.3-19.1-12.2a113.28,113.28,0,0,1-18-3s-9.2,9.3-8.4,13.1c.9,3.9,28.8,29.1,41.5,19.4,15.6-12,14.3-44.2,2.9-61.7a27.8536,27.8536,0,0,0-21.6-13.1Z" transform="translate(0 0)"/><path class="d" d="M35.7,108.575s-7.3-26.8,20.4-35.3c24.4-7.5,24.9-1.4,32-1.3,11.1.1,20.3,14.4,22.3,32.2,3.4,29.6-4.6,49.2-4.6,49.2l-6.7-12.6s-27.6-8.2-30.1-15.2,8.3-22.3,8.3-22.3Z" transform="translate(0 0)"/><path class="e" d="M20,86.175s-8.9-13-12.2-11-7.5,9-6.2,11.9,14.6,5.8,14.6,5.8Z" transform="translate(0 0)"/><path class="f" d="M36.3,48.575l-3.5,5.6-6.1-3.8,3.9-6.2c-3.1-.5-6.5,1-8.9,3.5-3.3,3.3-2.4,7.6.1,10.8L0,93.075l6.1,3.8,21.6-34.3c3,.9,6.2.5,8.4-1.9,2.5-2.9,2.2-8.3.2-12.1Z" transform="translate(0 0)"/><path class="e" d="M1.6,87.075c-2-4.6,4.8-10.8,4.8-10.8l2.7,1.9s3,6.5.2,9.2C8,88.575,3.6,91.675,1.6,87.075Zm12.1-4.6a6.5306,6.5306,0,0,0,0,5l3.9-4.3s-3.5-7-5-6.7c-.8423.1685-.2341,1.6614.3727,3.1506C13.4464,80.7884,13.9192,81.9489,13.7,82.475Z" transform="translate(0 0)"/><path class="d" d="M47.1,107.375s-3.6-4-7.7-8.9-19-12.4-19-12.4-6,6.7-6.2,7.6,4.5,11.1,13.1,19.1c10.9,10.3,17.9,10.7,17.9,10.7Z" transform="translate(0 0)"/><path class="f" d="M40,43.075c2.4,12.5,14.5,11.8,14.5,11.8s8.9-16.8,2.4-21.6S37.6,30.575,40,43.075Zm45.9,15s4.3,5.5,11.4.7,5-15.3,5-15.3,6-3.1,2.6-8.5-16.3-1.2-16.3-1.2Zm18.9,61.8c.1-11.1-4.2-28.3-4.2-28.3s-12.6,2-27.4,2.8c-17.1.9-23.8-5-23.8-5a40.269,40.269,0,0,0-6.1,20.9c.2,17.4,6.4,26.9,6.4,26.9s-15.6,21.3-12.3,38.3a71.9262,71.9262,0,0,0,81.9-2.9c-.5-16.8-17.2-36.3-17.2-36.3S104.7,127.375,104.8,119.875Z" transform="translate(0 0)"/><path class="e" d="M59,72.975c0-2.5,21.8-5.2,29.1-1.1,0,0-4.4,14.4-15.1,15C73,86.975,58.9,81.875,59,72.975Z" transform="translate(0 0)"/><path class="e" d="M62,55.275H85.5v24H62Z" transform="translate(0 0)"/><path class="e" d="M87.4,26.275c6.1,13.2,4.8,38.6-16.1,38.6s-22.2-25.4-16.1-38.6" transform="translate(0 0)"/><path class="g" d="M62,63.475v7.1s12.8-1.3,17.7-7.2l-8.2,1.5Z" transform="translate(0 0)"/><path class="h" d="M71.3,65.8749c-7.1152,0-12.7334-2.9043-16.2471-8.3984-5.7964-9.0645-4.7178-23.0571-.76-31.6211a1,1,0,0,1,1.8154.8389c-3.7349,8.082-4.7832,21.24.63,29.7046C59.91,61.36,64.81,63.8749,71.3,63.8749s11.39-2.5151,14.5625-7.4761c5.4131-8.4648,4.3652-21.6221.63-29.7046a1,1,0,0,1,1.8164-.8389c3.957,8.564,5.0352,22.5571-.7617,31.6211C84.0332,62.9706,78.415,65.8749,71.3,65.8749Z" transform="translate(0 0)"/><path class="h" d="M71.3,51.475a.7786.7786,0,0,1-.9.6.9016.9016,0,0,1-.6-.6,21.7169,21.7169,0,0,1-.3-4.4,32.93,32.93,0,0,1,.5-4.4.5483.5483,0,0,1,.6-.4c.3.1.5.2.5.4a32.93,32.93,0,0,1,.5,4.4h0A21.7174,21.7174,0,0,1,71.3,51.475Zm11.3,30.1c2.3-2.7,3.7-6,5.1-9.4a.3653.3653,0,0,1,.5-.2c.1.1.2.2.2.3a18.6581,18.6581,0,0,1-4.2,10.5,13.3854,13.3854,0,0,1-4.7,3.8,10.7327,10.7327,0,0,1-5.9,1.6,15.2627,15.2627,0,0,1-3-.3,13.3149,13.3149,0,0,1-2.8-1h0a12.5208,12.5208,0,0,1-4.6-3.6,18.77,18.77,0,0,1-3.2-4.9,12.1925,12.1925,0,0,1-1.7-5.5.6835.6835,0,0,1,.7-.7c.2-.2.4-.1.6.2a16.7421,16.7421,0,0,1,1.3542,2.9092c.2606.6712.52,1.3393.8458,1.9908a18.641,18.641,0,0,0,2.9,4.4,12.0028,12.0028,0,0,0,4,3.1,13.3937,13.3937,0,0,0,4.9,1A11.5119,11.5119,0,0,0,82.6,81.575Z" transform="translate(0 0)"/><path class="f" d="M60.8,45.575a1.5605,1.5605,0,0,0,1.6,1.5,1.538,1.538,0,0,0,1.5-1.5v-2.5a1.538,1.538,0,0,0-1.5-1.5h-.1a1.538,1.538,0,0,0-1.5,1.5Zm16.2,0a1.5605,1.5605,0,0,0,1.6,1.5,1.538,1.538,0,0,0,1.5-1.5v-2.5a1.538,1.538,0,0,0-1.5-1.5h-.1a1.538,1.538,0,0,0-1.5,1.5Z" transform="translate(0 0)"/><path class="f" d="M77.5,34.675a3.4055,3.4055,0,0,0-2,.8c-.2.2-.3.4-.2.5,0,.4.3.6.7.6h1.6a7.5688,7.5688,0,0,1,1.5.1,11.4648,11.4648,0,0,1,2.8.8H82a.6159.6159,0,0,0,.7-.1.6328.6328,0,0,0,.1-.9,4.8133,4.8133,0,0,0-1.6-1.2,12.09,12.09,0,0,0-1.8-.5A6.079,6.079,0,0,0,77.5,34.675Zm-13.9,1.9H62.3c-.25,0-.5.025-.75.05s-.5.05-.75.05a8.2894,8.2894,0,0,0-2.8.8h-.1a.6867.6867,0,0,1-.9-.3.616.616,0,0,1,.1-.7,3.11,3.11,0,0,1,1.6-1.2,6.07,6.07,0,0,1,1.8-.5,11.4827,11.4827,0,0,1,1.9-.1l.0581.01a3.59,3.59,0,0,1,1.9419.79.6328.6328,0,0,1,.1.9c-.1.2-.3.2-.5.2Zm4.6,19.2a5.0293,5.0293,0,0,0,2.7.8,3.4636,3.4636,0,0,0,2.6-.9h.1a.76.76,0,0,1,1,0,.6159.6159,0,0,1,.1.7,3.7481,3.7481,0,0,1-1.6,1.7,4.1932,4.1932,0,0,1-2.2.5,3.8449,3.8449,0,0,1-2.1-.5,3.53,3.53,0,0,1-1.7-1.5.6867.6867,0,0,1,.3-.9A.7829.7829,0,0,1,68.2,55.775Z" transform="translate(0 0)"/><path class="i" d="M55.5,45.475l.9985-.0555-.0018-.0253Zm-.3-3.7.9967-.0808-.0028-.03Zm12.5,0,.9967.0808q.0033-.04.0033-.0808Zm-.3,3.7.9864.1644c.0046-.0277.0081-.0556.01-.0836Zm5.7,0,.9985-.0555-.0018-.0253Zm-.3-3.7.9967-.0808-.0028-.03Zm12.5,0,.9967.0808q.0033-.04.0033-.0808Zm-.3,3.7.9939.11.0028-.03Zm-17.4-4.8a1,1,0,0,0,0,2Zm5.1,2a1,1,0,0,0,0-2Zm-8.3,5h-6v2h6Zm-6,0a2.193,2.193,0,0,1-1.9015-2.2555l-1.997.111A4.1727,4.1727,0,0,0,58.4,49.675Zm-1.9033-2.2808-.3-3.7-1.9934.1616.3,3.7Zm-.3028-3.73a.6647.6647,0,0,1,.1148-.472A.2423.2423,0,0,1,56.5,41.075v-2a2.44,2.44,0,0,0-2.2939,2.81Zm.3061-.59h9.9v-2H56.5Zm9.9,0c.0261,0,.0686,0,.1385.0968a1.0628,1.0628,0,0,1,.1615.6032h2a3.0469,3.0469,0,0,0-.5385-1.7718A2.15,2.15,0,0,0,66.4,39.075Zm.3033.6192-.3,3.7,1.9934.1616.3-3.7Zm-.29,3.6164C66.1545,46.8651,65.205,47.675,64.4,47.675v2c2.195,0,3.6455-1.99,3.9864-4.0356ZM82,47.675H76v2h6Zm-6,0a2.1931,2.1931,0,0,1-1.9015-2.2555l-1.997.111A4.1727,4.1727,0,0,0,76,49.675Zm-1.9033-2.2808-.3-3.7-1.9934.1616.3,3.7Zm-.3028-3.73a.6647.6647,0,0,1,.1148-.472A.2423.2423,0,0,1,74.1,41.075v-2a2.44,2.44,0,0,0-2.2939,2.81Zm.3061-.59H84v-2H74.1Zm9.9,0c.0261,0,.0686,0,.1385.0968a1.0628,1.0628,0,0,1,.1615.6032h2a3.0469,3.0469,0,0,0-.5385-1.7718A2.15,2.15,0,0,0,84,39.075Zm.3033.6192-.3,3.7,1.9934.1616.3-3.7Zm-.2972,3.67A2.3586,2.3586,0,0,1,82,47.675v2c2.1607,0,3.7561-1.9491,3.9939-4.09ZM67.6,42.675h5.1v-2H67.6Zm5.1-2H67.6v2h5.1Z" transform="translate(0 0)"/><path class="f" d="M54.8,18.975c1,13.2,7.8,26.7,35.7,25.3,0,0,7-28.4-14.8-29.4" transform="translate(0 0)"/><path class="d" d="M48.2,25.075s-17.8,13.5,18.3,13.4c48.4-.1,29.3-13.8,29.3-13.8Z" transform="translate(0 0)"/><path class="d" d="M47.9,28.675s3.4-26.7,24.8-25.9c24.3.9,23.9,26.5,23.9,26.5" transform="translate(0 0)"/><path class="f" d="M47.7,28.675a36.1073,36.1073,0,0,1,2.3-9.7,33.0387,33.0387,0,0,1,4.9-8.8,21.0107,21.0107,0,0,1,18-8.1,27.9577,27.9577,0,0,1,9.9,2.2,24.2507,24.2507,0,0,1,4.4,2.6,21.019,21.019,0,0,1,3.7,3.6,26.5158,26.5158,0,0,1,4.6,9,33.3736,33.3736,0,0,1,1.4,9.9h-.6a34.8081,34.8081,0,0,0-1.9-9.6,25.4229,25.4229,0,0,0-4.6-8.4,22.0179,22.0179,0,0,0-3.5-3.3,24.37,24.37,0,0,0-4.1-2.4,24.7255,24.7255,0,0,0-9.4-2,19.5807,19.5807,0,0,0-16.8,7.4,33.3557,33.3557,0,0,0-5,8.3,36.1093,36.1093,0,0,0-1.7,4.6c-.5,1.6-.9,3.2-1.3,4.8Z" transform="translate(0 0)"/><path class="d" d="M51.5,26.475s8.3-6.4,10.6-11.6,5.3-14.4,9.1-14,2.3,11.5,6.5,17a96.039,96.039,0,0,0,8.9,9.3" transform="translate(0 0)"/><path class="f" d="M51.4,26.375a76.6324,76.6324,0,0,0,5.7-5.7,23.23,23.23,0,0,0,4.5-6.4c1-2.5,2-5,3.1-7.5a33.54,33.54,0,0,1,2-3.7,7.4562,7.4562,0,0,1,1.4-1.7,5.3875,5.3875,0,0,1,2.1-1.3,3.295,3.295,0,0,1,1.4,0,3.2931,3.2931,0,0,1,1.3.7,5.6591,5.6591,0,0,1,1.2,2.1,20.096,20.096,0,0,1,.9,4.1,40.2351,40.2351,0,0,0,1.8,7.8,10.91,10.91,0,0,0,1.9,3.3c.8,1,1.7,2.1,2.6,3.1,1.8,2,3.7,3.9,5.6,5.8l-.4.4a78.2038,78.2038,0,0,1-6-5.5c-1-1-1.9-2-2.8-3a12.013,12.013,0,0,1-2.2-3.6,39.0429,39.0429,0,0,1-2-8,23.3923,23.3923,0,0,0-.9-3.8,3.6872,3.6872,0,0,0-.8-1.4,1.3322,1.3322,0,0,0-.5-.3h-.6a4.9244,4.9244,0,0,0-2.5,2.3,37.1843,37.1843,0,0,0-1.9,3.4c-1.2,2.4-2.2,4.9-3.3,7.4a23.4843,23.4843,0,0,1-5,6.6,62.0807,62.0807,0,0,1-6.3,5.2Z" transform="translate(0 0)"/><path class="f" d="M50.5,29.875a44.4462,44.4462,0,0,1,9.5-1.9l4.8-.3c1.6,0,3.2-.1,4.8,0,1.6,0,3.2.2,4.8.3a39.6676,39.6676,0,0,1,4.8.7,49.0819,49.0819,0,0,1,9.3,2.5l-.2.6c-3.1-.6-6.2-1.2-9.4-1.6-1.6-.2-3.1-.4-4.7-.5s-3.2-.2-4.7-.2c-3.2-.1-6.3-.1-9.5.1s-6.3.4-9.5.7Z" transform="translate(0 0)"/><path class="d" d="M105.2,160.675a5.6043,5.6043,0,0,1-1.1,3.5,8.1426,8.1426,0,0,1-2.8,2.4,10.9778,10.9778,0,0,1-3.5,1.1c-.6.1-1.2.1-1.8.2a10.8681,10.8681,0,0,1-1.8-.1v-.4c.6-.1,1.2-.2,1.7-.3l1.7-.4a10.528,10.528,0,0,0,3.1-1.2,8.6033,8.6033,0,0,0,2.6-2,9.2472,9.2472,0,0,0,1.7-2.9Z" transform="translate(0 0)"/><path class="f" d="M56.6,72.975a45.35,45.35,0,0,1-1.4,6.6c-.3,1.1-.6,2.1-.9,3.2s-.6,2.1-.8,3.2a45.17,45.17,0,0,0-1.2,6.4,33.9222,33.9222,0,0,0-.3,6.4l-1.2.3a15.2187,15.2187,0,0,1-1.5-7,32.6591,32.6591,0,0,1,.8-7,36.5231,36.5231,0,0,1,2.2-6.6,18.1854,18.1854,0,0,1,1.6-3.1,14.2476,14.2476,0,0,1,2.2-2.8Z" transform="translate(0 0)"/><path class="f" d="M91,72.075a11.3575,11.3575,0,0,1,2.3,3.1,21.6944,21.6944,0,0,1,1.5,3.5,47.3813,47.3813,0,0,1,1.8,7.2c.4,2.5.6,4.9.8,7.4a36.69,36.69,0,0,1-.3,7.4l-1.1.1a23.2549,23.2549,0,0,1-.8-3.6l-.6-3.6c-.4-2.4-.8-4.8-1.2-7.1-.4-2.4-.8-4.7-1.4-7-.5-2.3-1-4.6-1.4-7.1Z" transform="translate(0 0)"/><path class="d" d="M100.6,91.575s-1.9,4.6-1.1,14.4c1.3,15.6,6.8,22.9,6.8,22.9l2.4-14.1-3.2-26.1Z" transform="translate(0 0)"/><path class="d" d="M99.5,134.675c-3.3,10.2-2.9,14.1-2.9,14.1a23.5266,23.5266,0,0,0,7.9,2.8c4.5.7,10.1-10.5,10.1-10.5l-6.3-20.2A36.9636,36.9636,0,0,0,99.5,134.675Z" transform="translate(0 0)"/><path class="h" d="M39.3,98.375a1.5355,1.5355,0,0,0-.5-1.3,4.7407,4.7407,0,0,0-1-1,10.6275,10.6275,0,0,0-1.1-.9l-.6-.4a.5737.5737,0,0,0-.7-.2,1.47,1.47,0,0,0-.5.6v.1c.1.4.3.4.5.6l.5.4a9.0157,9.0157,0,0,1,1,.9l.9.9a2.9786,2.9786,0,0,0,1.1.7H39c.2-.1.3-.2.3-.4Z" transform="translate(0 0)"/></g></svg>
