<svg viewBox="0 0 144 181" xmlns="http://www.w3.org/2000/svg"><circle cx="71.8" cy="109.1" fill="#ccced0" r="71.9"/><path d="m123.8 80.4s2.2-10.6 4.1-13.1.2-9.8 2.5-11 5.9-.5 9.1 5.6-.4 13.8-.4 13.8l-7 10z" fill="#a7c1d1"/><path d="m138.2 59.5c1 1.1 1.9 2.3 2.5 3.7s1.1 2.9 1.2 4.4c.2 1.5.1 3.1-.3 4.6-.3 1.5-.9 3-1.8 4.3-.8 1.2-1.5 2.4-2.3 3.6s-1.5 2.4-2.3 3.7c-1.5 2.5-2.9 5-4.6 7.3-.2.3-.6.4-.9.1-.3-.2-.3-.5-.2-.8 1.1-2.7 2.6-5.2 4-7.7s2.9-5 4.6-7.4c1.5-2.1 2.1-4.9 1.9-7.6-.1-1.3-.3-2.7-.7-4s-1-2.6-1.7-3.9c-.1-.2 0-.4.1-.5.2 0 .4.1.5.2z" fill="#204a69"/><path d="m127.2 70s-2.4-7.6-4.9-6.4c-2.7 1.6 3.6 7 2.1 15.2" fill="#a7c1d1"/><path d="m127.1 70c-.7-1.3-1.4-2.6-2.1-3.8-.4-.6-.8-1.2-1.2-1.6-.2-.2-.5-.4-.6-.4-.2-.1-.3 0-.5 0h.1c-.2.1-.2.2-.2.3v.6c.1.5.3 1.1.6 1.7.5 1.2 1 2.5 1.4 3.8s.7 2.7.7 4.1c.1 1.4-.1 2.8-.5 4.1-.1.2-.2.2-.4.2-.1 0-.2-.2-.2-.3 0-1.3 0-2.6-.2-3.9s-.5-2.5-.9-3.7-1-2.4-1.5-3.6c-.2-.6-.5-1.3-.7-2.1-.1-.4-.1-.8 0-1.4.1-.5.6-1 1-1.2h.1c.5-.3 1.2-.3 1.7 0 .5.2.9.5 1.1.8.6.6 1 1.3 1.3 2s.6 1.4.8 2.1.4 1.4.5 2.2c0 .1 0 .2-.1.2s-.2 0-.2-.1z" fill="#204a69"/><path d="m99.5 111.3s6.7 14.8 14.7 11.9c16.5-6 18-32.7 21-37.7l-13.1-6-15.3 23.7z" fill="#0484c1"/><path d="m91.5 68c22.6-.5 32.4 36.3 17.5 45-10.9 6.4-17 2.9-27.8-1.9l7.9-11.6" fill="#0484c1"/><g fill="#a7c1d1"><path d="m59.4 67.4c6.7-3.9 25.5-2.4 32.1.6 0 0-7.9 16.6-16.6 17.4"/><path d="m63.5 49.4h23.5v33.8h-23.5z"/><path d="m88.9 20.4c6.1 13.2 4.8 38.6-16.1 38.6s-22.2-25.4-16.1-38.6"/></g><path d="m63.5 57.6v7.1s12.8-1.3 17.7-7.2l-8.2 1.5z" fill="#86a7be"/><path d="m44.6 139.8c-5.7 7.6-9.8 17.7-12.5 29.2 11.4 7.6 25 12 39.7 12 16 0 30.7-5.2 42.6-14-4.1-14.2-10.1-23.8-16.9-30.6.1 0-33.4-22.3-52.9 3.4z" fill="#0484c1"/><path d="m87.4 52.2s3.5 5.2 11.4.7 5-15.3 5-15.3 5-3.4 3.6-12.1c-1.2-7.3-9.5-10.1-9.5-10.1s1.2-5.6-5.9-11.7c-8.2-7-18.7-.9-18.7-.9s-5.9-4.8-17-1.4c-13.8 4.3-9.9 17.5-9.9 17.5-13.5 6.8-8.1 29.3 9.6 30.1 0 0-10.6-38.2 18-38.2 30.4 0 13.4 41.4 13.4 41.4" fill="#204a69"/><path d="m88.9 20.4c6.1 13.2 4.8 38.6-16.1 38.6s-22.2-25.4-16.1-38.6" style="fill:none;stroke:#025085;stroke-width:2;stroke-linecap:round;stroke-linejoin:round;stroke-miterlimit:10"/><path d="m106.1 101c-.8 31.1-4.5 41.1-31.7 41.6-19.5.4-40.5 1.8-41.4-38-.3-12.6 14.1-33.9 27-38.1 0 0 4.1 14.6 14.9 14.6s14.7-14.4 14.7-14.4c13.6 4 16.8 20.9 16.5 34.3z" fill="#0484c1"/><path d="m99 134.1c1.8-4.5 3.4-9.1 4.6-13.8.6-2.3 1.2-4.7 1.6-7.1.5-2.4.8-4.8 1-7.2.4-4.8.3-9.6-.8-14.3-1-4.7-3.3-9-6.8-12.4-.1-.1-.1-.3 0-.5.1-.1.3-.1.4 0 4 3 6.9 7.5 8.2 12.4.7 2.4 1.1 4.9 1.2 7.4s0 5-.2 7.5c-.4 5-1.4 9.8-2.8 14.6s-3.1 9.4-5.2 13.9c-.2.3-.6.5-.9.3-.3-.1-.5-.5-.3-.8z" fill="#204a69"/><circle cx="60.7" cy="83.3" fill="#204a69" r="3.4"/><path d="m67 81.9-12.4 1.3c-1.8.2-3.2 1.9-3 3.7l.1.7c.2 1.8 1.9 3.2 3.7 3l12.4-1.3c1.8-.2 3.2-1.9 3-3.7l-.1-.7c-.2-1.8-1.9-3.2-3.7-3z" fill="#204a69"/><path d="m86.7 138-38.8 4.2c-1 .1-1.9-.6-2-1.6l-5.4-50.1c-.1-1 .6-1.9 1.6-2l38.8-4.2c1-.1 1.9.6 2 1.6l5.4 50.1c.1 1-.6 1.9-1.6 2z" fill="#fff"/><path d="m86.7 138.7c-3.9.6-7.9 1.1-11.8 1.6l-11.8 1.3-11.8 1.3-3 .3h-1c-.4 0-.8-.2-1.1-.4-.7-.4-1.2-1.1-1.4-1.8-.1-.4-.1-.6-.1-.9l-.1-.7-.2-1.5-.3-3-2.6-23.7-1.3-11.8-.6-5.9-.3-3c-.1-.7.1-1.6.6-2.2s1.2-1.1 2-1.1l23.7-2.5 11.8-1.2 3-.3h1c.4 0 .8.2 1.1.4.7.4 1.2 1.1 1.4 1.8.1.4.1.6.1.9l.1.7.2 1.5.3 3 1.2 11.8 1.2 11.9c.4 3.9.7 7.9 1.1 11.9.2 2 .3 4 .5 5.9l.2 3c.1.6-.1 1.2-.5 1.7s-1 .8-1.5.8zm-.1-1.1c.8-.1 1.4-.9 1.2-1.7l-.4-3c-.3-2-.5-3.9-.8-5.9-.5-3.9-1-7.9-1.5-11.8l-1.4-11.8-1.3-11.8-.6-5.8c0-.2-.2-.4-.4-.5-.1-.1-.2-.1-.3-.1h-.5l-3 .3-11.8 1.3-23.7 2.6c-.4 0-.7.4-.6.9l.3 3 .6 5.9 1.2 11.8 2.5 23.7.6 5.8c0 .2.2.4.4.5.1.1.2.1.3.1h.5l3-.3 11.8-1.2 11.8-1.2c3.9-.4 7.9-.7 11.9-.9z" fill="#204a69"/><path d="m25.5 106.8c-5.6 8.9-10.3 26.3 1.1 33.1 19.1 11.3 49-17.2 51.8-20.7s10.5-4.4 13.7-9.2 4.5-11.7 2.8-14.3-4.3-.4-4.3-.4c-2.2 6.3-10.9 10.8-10.9 10.8s5.5-8.1 2.1-8.4c-3.7-.4-7.6 7.3-10.7 11.4-3.1 4-29.1.4-37.1 15.8" fill="#a7c1d1"/><path d="m61.2 66.3c.9 1.6 1.3 3.3 2.1 4.9s1.7 3.1 2.9 4.4c1.1 1.3 2.5 2.4 4 3.1s3.2 1.1 4.9 1.1c3.4.1 6.7-1.4 9-4.1 2.3-2.6 3.8-5.9 5.2-9.3.1-.2.3-.3.4-.2s.2.2.2.3c-.3 3.8-1.8 7.5-4.3 10.5-1.3 1.5-2.8 2.8-4.7 3.7-1.9 1.1-3.9 1.5-5.9 1.5-1 0-2-.1-3-.3s-1.9-.6-2.8-1c-1.8-.9-3.4-2.2-4.6-3.7-1.3-1.5-2.3-3.2-3.1-4.9-.8-1.8-1.6-3.5-1.6-5.5 0-.4.3-.7.7-.7.2-.2.4-.1.6.2zm50.5 89c-.6-1.2-1-2.4-1.7-3.6l-1.9-3.5c-2.7-4.5-5.6-9-9.7-12.4-.2-.2-.6-.2-.9 0s-.3.7-.1 1c3.3 3.9 6.4 8 8.9 12.5l1.8 3.4c.6 1.1 1.1 2.3 1.6 3.5 1.1 2.3 1.9 4.8 2.8 7.2.5 1.4.9 2.7 1.3 4.1.6-.5 1.2-.9 1.9-1.4-.3-1.1-.7-2.3-1.1-3.4-.9-2.5-1.8-5-2.9-7.4zm-39.1-118.5c.3 1.5.4 2.9.5 4.4 0 1.5 0 2.9-.3 4.4-.1.4-.5.7-.9.6-.3-.1-.5-.3-.6-.6-.3-1.5-.3-2.9-.3-4.4.1-1.5.2-2.9.5-4.4.1-.3.3-.4.6-.4.3.1.5.2.5.4z" fill="#204a69"/><path d="m63.9 41.2c-.9 0-1.6-.7-1.6-1.5v-2.5c0-.8.7-1.5 1.5-1.5h.1c.8 0 1.5.7 1.5 1.5v2.5c0 .8-.7 1.5-1.5 1.5zm16.2 0c-.9 0-1.6-.7-1.6-1.5v-2.5c0-.8.7-1.5 1.5-1.5h.1c.8 0 1.5.7 1.5 1.5v2.5c0 .8-.7 1.5-1.5 1.5z" fill="#025085"/><path d="m69.7 49.9c.8.5 1.7.8 2.7.8s1.9-.2 2.6-.9h.1c.3-.3.7-.2 1 0 .2.2.2.5.1.7-.3.7-.9 1.3-1.6 1.7s-1.4.5-2.2.5c-.7 0-1.5-.1-2.1-.5-.7-.3-1.3-.8-1.7-1.5-.2-.3 0-.7.3-.9.3-.1.5-.1.8.1zm-4.6-19.2h-1.3c-.5 0-1 .1-1.5.1-1 .1-2 .4-2.8.8h-.1c-.3.2-.7 0-.9-.3-.1-.2-.1-.5.1-.7.4-.6 1-1 1.6-1.2.6-.3 1.2-.4 1.8-.5s1.2-.1 1.9-.1c.6.1 1.3.2 2 .8.3.2.3.6.1.9-.1.2-.3.2-.5.2zm11.9-1.1c.7-.6 1.3-.7 2-.8.6-.1 1.3 0 1.9.1s1.2.3 1.8.5c.6.3 1.2.7 1.6 1.2.2.3.2.7-.1.9-.2.2-.5.2-.7.1h-.1c-.8-.4-1.8-.6-2.8-.8-.5-.1-1-.1-1.5-.1h-1.6c-.4 0-.7-.2-.7-.6-.1-.1 0-.3.2-.5z" fill="#204a69"/><path d="m57.8 67.8s-11.3.7-21.5 9.7c-12.9 11.5-28.2 54.8-12.6 66.8 12.7 9.7 52.8-17.3 53.7-21.2.8-3.8-8.4-13.1-8.4-13.1s-7.7 2.1-18 3-19.1 12.2-19.1 12.2l6.2.9.3-36z" fill="#0484c1"/><path d="m33.5 124.5c1.1-2.7 3.1-5.1 5.5-6.9s5-3.1 7.8-4c5.5-1.9 11.2-2.7 16.8-3.4 1.4-.2 2.8-.4 4.1-.7.7-.2 1.3-.3 1.8-.6.3-.1.5-.2.7-.4.1-.1.2-.1.2-.2l.3-.4c1.6-2.2 3.1-4.7 4.8-7 .9-1.2 1.8-2.3 3.1-3.3.6-.5 1.4-.9 2.3-1.1.5-.1.9-.1 1.5 0 .3.1.7.2.9.5.3.3.5.6.6.9.2.6.1 1.1.1 1.6l-.3 1.2c-.2.8-.5 1.4-.9 2.1-.7 1.3-1.4 2.6-2.2 3.8l-1.5-1.6c1.1-.6 2.2-1.3 3.2-2s2-1.5 3-2.3c.9-.8 1.8-1.7 2.6-2.7.8-.9 1.6-1.9 2.3-3 .1-.2.3-.2.5-.1.1.1.2.2.1.3-.2 1.4-.7 2.7-1.5 3.8-.7 1.2-1.7 2.2-2.7 3.1s-2 1.8-3.1 2.6-2.2 1.5-3.4 2.2c-.5.3-1.2.1-1.5-.4-.2-.4-.2-.8 0-1.2.7-1.1 1.4-2.3 2-3.5.3-.6.6-1.2.8-1.8s.3-1.2.2-1.4c0 0 .1.1 0 0h-.5c-.4.1-.9.3-1.4.7-1 .7-1.9 1.8-2.7 2.8-1.7 2.2-3.1 4.6-4.9 6.9l-.4.5c-.2.2-.4.4-.6.5-.4.3-.8.5-1.2.6-.8.3-1.5.5-2.2.7-1.4.3-2.9.5-4.3.7-5.6.7-11.2 1.4-16.4 3.3-2.6.9-5.1 2.1-7.2 3.7-2.2 1.6-4 3.6-5.5 5.9-.2.3-.6.4-.9.2 0 0-.1-.3.1-.6zm78-30.4c-.1-.5.1-.6.3-.9l.5-.8c.3-.5.7-1 1.1-1.4.4-.5.8-.9 1.3-1.3.4-.4 1-.8 1.7-.7.2 0 .3.1.3.3v.1c-.2.7-.6 1.1-.9 1.5-.4.4-.7.8-1.1 1.2-.3.4-.7.8-1.1 1.3l-.5.7c-.2.2-.2.5-.7.6h-.1c-.3-.1-.7-.3-.8-.6z" fill="#204a69"/><path d="m65.9 42.8h-6c-1.5 0-2.8-1.4-2.9-3.2l-.3-3.7c-.1-.9.5-1.7 1.3-1.7h9.9c.8 0 1.3.8 1.3 1.7l-.3 3.7c-.3 1.8-1.5 3.2-3 3.2zm17.6 0h-6c-1.5 0-2.8-1.4-2.9-3.2l-.3-3.7c-.1-.9.5-1.7 1.3-1.7h9.9c.8 0 1.3.8 1.3 1.7l-.3 3.7c-.2 1.8-1.5 3.2-3 3.2zm-14.4-7h5.1" style="fill:none;stroke:#f6f6f6;stroke-width:2;stroke-linecap:round;stroke-linejoin:round;stroke-miterlimit:10"/><path d="m54.9 9.2c1 13.2 9.2 30.6 37.1 29.2 0 0 7-28.4-14.8-29.4" fill="#204a69"/></svg>