<svg xmlns="http://www.w3.org/2000/svg" xmlns:xlink="http://www.w3.org/1999/xlink" viewBox="0 0 243.383 157.9"><defs><style>.a{fill:none;}.b{clip-path:url(#a);}.c{fill:#fff;}.d,.k{fill:#c3c4c7;}.e,.i{fill:#787c82;}.f,.j{fill:#187aa2;}.g{fill:#98c6d9;}.h{fill:#6ab3d0;}.i,.k{opacity:0.26;}.i,.j,.k{isolation:isolate;}.j{opacity:0.83;}.l{fill:#bedae6;}.m{fill:#004e6e;}</style><clipPath id="a" transform="translate(0 0)"><rect class="a" width="243.38" height="157.9"/></clipPath></defs><title>woocommerce-reports</title><g class="b"><path class="c" d="M237.783,138.7l2.3,18.8Z" transform="translate(0 0)"/><path class="d" d="M237.883,138.6a35.6,35.6,0,0,1,1,4.7c.2,1.6.5,3.1.6,4.7.3,3.1.7,6.3.8,9.4a.2.2,0,1,1-.4,0c-.7-3.1-1.1-6.2-1.5-9.4-.2-1.6-.4-3.1-.5-4.7s-.2-3.2-.2-4.7Z" transform="translate(0 0)"/><path class="c" d="M215.783,119.2c-9.4,1.3-17.1,6.1-18,10.5a50.466,50.466,0,0,1-1.3,5.5" transform="translate(0 0)"/><path class="d" d="M215.783,119.3a37.1932,37.1932,0,0,0-12.6,4.9,11.9539,11.9539,0,0,0-4.5,4.7c-.2.5-.3.9-.5,1.5l-.4,1.7a21.2894,21.2894,0,0,1-1.1,3.3c0,.1-.2.1-.3.1s-.1-.1-.1-.2c.1-1.1.3-2.3.5-3.4l.3-1.7a16.6924,16.6924,0,0,1,.5-1.8,12.914,12.914,0,0,1,5-5.1,25.62,25.62,0,0,1,6.3-2.9,31.43,31.43,0,0,1,6.8-1.3c.1,0,.1,0,.1.1.1.1,0,.1,0,.1Z" transform="translate(0 0)"/><path class="c" d="M215.783,128.4a61.7154,61.7154,0,0,1,.1-10.7l1.1-8.7a7.3078,7.3078,0,0,1,7.1-6.5h11.6a7.3112,7.3112,0,0,1,7.1,8.4l-1.1,8.7a7.4142,7.4142,0,0,1-2.2,4.5" transform="translate(0 0)"/><path class="e" d="M215.683,128.4a60.4817,60.4817,0,0,1-.4-8.5,31.255,31.255,0,0,1,.4-4.3l.5-4.2.3-2.1a8.7339,8.7339,0,0,1,.5-2.2,7.8027,7.8027,0,0,1,2.6-3.6,7.168,7.168,0,0,1,4.2-1.5h10.6a16.9506,16.9506,0,0,1,2.2.1,7.72,7.72,0,0,1,6.5,5.6,8.3287,8.3287,0,0,1,.3,2.2,4.1023,4.1023,0,0,1-.1,1.1l-.1,1.1-.6,4.2a30.6677,30.6677,0,0,1-.7,4.2,7.8133,7.8133,0,0,1-2.2,3.7.2121.2121,0,0,1-.3-.3,7.4177,7.4177,0,0,0,1.9-3.6c.2-1.3.3-2.8.5-4.2l.5-4.2.1-1.1a3.3519,3.3519,0,0,0,0-1,6.9287,6.9287,0,0,0-.3-2,6.7641,6.7641,0,0,0-5.7-4.8h-12.6a5.8761,5.8761,0,0,0-3.6,1.3,7.031,7.031,0,0,0-2.3,3.1,5.8474,5.8474,0,0,0-.4,1.9l-.3,2.1-.6,4.2c-.2,1.4-.4,2.8-.5,4.2-.2,2.8-.2,5.6-.2,8.4,0,.1,0,.1-.1.1-.1.2-.1.2-.1.1Z" transform="translate(0 0)"/><path class="c" d="M228.683,139.7h-27.8a4.4,4.4,0,0,1,0-8.8h27.8a4.3745,4.3745,0,0,1,4.4,4.4A4.3127,4.3127,0,0,1,228.683,139.7Z" transform="translate(0 0)"/><path class="d" d="M212.989,140.138c5.231-.057,10.434-.113,15.694-.338a4.3746,4.3746,0,0,0,4.4-2.7,4.9651,4.9651,0,0,0-1-5.2,4.5228,4.5228,0,0,0-2.4-1.4,25.2821,25.2821,0,0,0-2.7-.1l-5.2-.1-20.9-.1a5.0375,5.0375,0,0,0-4.6,3.1,4.9473,4.9473,0,0,0,1.1,5.4,4.8047,4.8047,0,0,0,2.5,1.4,8.54,8.54,0,0,0,2.034.113c.219-.007.439-.013.666-.013h5.2Q210.393,140.1625,212.989,140.138Zm19.494-3.238a4.0466,4.0466,0,0,1-3.8,2.6v.1c-5.26-.225-10.463-.281-15.694-.338q-2.5965-.027-5.206-.062h-5.2a19.2921,19.2921,0,0,1-2.5-.1,4.3327,4.3327,0,0,1-2-1.1,3.8189,3.8189,0,0,1-.8-4.2,4.0617,4.0617,0,0,1,3.6-2.4l20.9-.1,5.2-.1a10.2438,10.2438,0,0,0,1.25.05,10.244,10.244,0,0,1,1.25.05,4.2734,4.2734,0,0,1,2.1,1.1A4.3489,4.3489,0,0,1,232.483,136.9Z" transform="translate(0 0)"/><path class="c" d="M241.683,119.6c-9.4,1.3-17.1,6.1-18,10.5s-2.3,9.6-2.3,9.6h18.1Z" transform="translate(0 0)"/><path class="e" d="M240.883,129.5l.9-10a5.283,5.283,0,0,1-1.3.1l-1,.1c-.35.05-.675.125-1,.2s-.65.15-1,.2c-1.05.242-2.035.55-3.06.87-.244.076-.49.153-.74.23a24.3452,24.3452,0,0,0-7.1,3.8,11.493,11.493,0,0,0-2.8,3,11.9184,11.9184,0,0,0-.8,2l-.4,1.9c-.6,2.6-1.2,5.2-1.9,7.7v.1a.6452.6452,0,0,0,.6.6l18.1-.1a.5357.5357,0,0,0,.5-.5C240.283,136.3,240.583,132.9,240.883,129.5Zm.2-9.7a3.11,3.11,0,0,0,.4-.1l-1.2,10.1c-.475,3.133-.859,6.265-1.239,9.398l-16.969-.094c.619-2.285,1.163-4.644,1.708-7.004h0l.4-1.9a5.0938,5.0938,0,0,1,.7-1.7,9.5205,9.5205,0,0,1,2.5-2.8,27.631,27.631,0,0,1,6.7-3.8c1.2-.5,2.4-.9,3.7-1.3.3-.1.625-.175.95-.25s.65-.15.95-.25l1-.2A3.1073,3.1073,0,0,1,241.083,119.8Zm-19.008,19.304-.692-.004.5.7Q221.98,139.4535,222.075,139.104Zm16.969.094c-.021.167-.041.335-.061.502l.5-.5Z" transform="translate(0 0)"/><path class="c" d="M198.683,138.7l-2.2,18.8Z" transform="translate(0 0)"/><path class="d" d="M198.783,138.7a24.319,24.319,0,0,1-.2,4.7c-.1,1.6-.3,3.1-.5,4.7-.4,3.1-.8,6.3-1.5,9.4a.2.2,0,0,1-.4,0c0-3.2.5-6.3.8-9.4.2-1.6.4-3.1.6-4.7a26.2837,26.2837,0,0,1,1-4.7c.1-.1.1-.1.2,0Z" transform="translate(0 0)"/><path class="c" d="M221.283,138.7l-2.3,18.8Z" transform="translate(0 0)"/><path class="e" d="M221.383,138.7a24.319,24.319,0,0,1-.2,4.7c-.1,1.6-.3,3.1-.5,4.7-.4,3.1-.8,6.3-1.5,9.4a.2.2,0,0,1-.4,0c0-3.2.5-6.3.8-9.4.2-1.6.4-3.1.6-4.7a26.2824,26.2824,0,0,1,1-4.7c0-.1.1-.1.2,0Z" transform="translate(0 0)"/><path class="d" d="M225.383,113.6a.8.8,0,1,0-.8-.8A.8.8,0,0,0,225.383,113.6Z" transform="translate(0 0)"/><path class="d" d="M233.983,113.6a.8.8,0,1,0-.8-.8A.8.8,0,0,0,233.983,113.6Z" transform="translate(0 0)"/><path class="c" d="M24.9829,119.9c5-3.8,5.2-12,.6-21.1s-17.6-18.3-23.6-9.2,12.2,35.5,19.8,31.4" transform="translate(0 0)"/><path class="e" d="M24.8829,119.8a9.5558,9.5558,0,0,0,3.1-4.8,16.1076,16.1076,0,0,0,.4-5.8,28.6918,28.6918,0,0,0-3.7-11,28.7452,28.7452,0,0,0-7.7-8.6,20.8287,20.8287,0,0,0-5.1-2.7,8.6441,8.6441,0,0,0-5.5-.2,7.7536,7.7536,0,0,0-4.2,3.4,9.0174,9.0174,0,0,0-.9,5.4,31.8231,31.8231,0,0,0,3.7,11,48.6616,48.6616,0,0,0,6.7,9.6,26.7056,26.7056,0,0,0,4.4,3.8,12.2715,12.2715,0,0,0,2.6,1.2,4.1462,4.1462,0,0,0,2.7-.2c.1-.1.2,0,.3.1a.3674.3674,0,0,1-.1.3,4.4508,4.4508,0,0,1-3,.4,9.6117,9.6117,0,0,1-2.8-1.1,24.4632,24.4632,0,0,1-4.7-3.8,47.711,47.711,0,0,1-7.1-9.6,30.424,30.424,0,0,1-3.9-11.3,10.0464,10.0464,0,0,1,1-6.1,9.04,9.04,0,0,1,4.8-4,10.0986,10.0986,0,0,1,6.2.3,20.9915,20.9915,0,0,1,5.3,2.9,28.3949,28.3949,0,0,1,7.9,9,28.7341,28.7341,0,0,1,3.6,11.4,15.2384,15.2384,0,0,1-.7,6,10.5355,10.5355,0,0,1-3.5,4.8h-.1c.3-.3.3-.3.3-.4Z" transform="translate(0 0)"/><path class="c" d="M32.8829,124.9c-3.2-5.2-1.1-13.9,5.2-19.5l1.8,6.2.9-7.1c2.4-.8,6.2-.8,8.2,1.4,8.4,8.9-6.7,22.9-13.6,19.9" transform="translate(0 0)"/><path class="e" d="M32.7829,124.9a10.6944,10.6944,0,0,1-1.7-5.2,17.3254,17.3254,0,0,1,.7-5.5,21.4579,21.4579,0,0,1,5.9-9.2.4833.4833,0,0,1,.7,0c.1.1.1.1.1.2l1.8,6.2-1,.1.9-7.1a.43.43,0,0,1,.4-.4,11.0864,11.0864,0,0,1,5.1-.4,10.6394,10.6394,0,0,1,2.5.9,6.5582,6.5582,0,0,1,1.9,1.8,9.5552,9.5552,0,0,1,1.9,4.8,10.61,10.61,0,0,1-.9,5,18.8682,18.8682,0,0,1-6.3,7.7,15.6734,15.6734,0,0,1-4.5,2.2,7.1735,7.1735,0,0,1-5-.1c-.1,0-.1-.2-.1-.3s.2-.1.3-.1a6.636,6.636,0,0,0,4.6-.2,14.3958,14.3958,0,0,0,4.2-2.3,17.8588,17.8588,0,0,0,5.9-7.4,10.2288,10.2288,0,0,0,.8-4.5,7.4046,7.4046,0,0,0-1.7-4.2c-1.7-2.6-5.4-2.9-8.3-2l.4-.4-1,7.1a.4406.4406,0,0,1-.6.4.43.43,0,0,1-.4-.4l-1.7-6.2.8.2a20.1633,20.1633,0,0,0-5.9,8.7,15.81,15.81,0,0,0-.9,5.2,9.9347,9.9347,0,0,0,1.3,5.1v.1c-.1.3-.2.3-.2.2Z" transform="translate(0 0)"/><path class="d" d="M25.319,128.954q.08,1.02.1639,2.046c.1.1.2.1.1,0a48.8061,48.8061,0,0,0-.3-10.8,48.1344,48.1344,0,0,0-2.9-10.5,32.7787,32.7787,0,0,0-5.7-9.3,32.5915,32.5915,0,0,0-8.4-6.8.3674.3674,0,0,0-.3.1c0,.1,0,.2.2.2a40.9735,40.9735,0,0,1,7.9,7.1,37.7261,37.7261,0,0,1,5.4,9.1,51.624,51.624,0,0,1,2.9,10.2C24.8687,123.215,25.0923,126.064,25.319,128.954Zm6.5639-3.354a14.39,14.39,0,0,0-1.4,5.4.3491.3491,0,0,0,.2.1.0979.0979,0,0,0,.1-.1,43.98,43.98,0,0,1,2.1-5,26.5669,26.5669,0,0,1,2.9-4.5,45.9831,45.9831,0,0,1,5.5217-5.972c.6626-.637,1.3267-1.276,1.9783-1.928a.3247.3247,0,0,1,.0222-.1c.0222-.067.0444-.133-.0222-.2a.3266.3266,0,0,1-.1-.022c-.0667-.022-.1334-.045-.2.022a41.5438,41.5438,0,0,0-8.2,7.5A29.1717,29.1717,0,0,0,31.8829,125.6Z" transform="translate(0 0)"/><path class="d" d="M22.0829,155.6a10.9133,10.9133,0,0,0,5.6,1.2,9.8167,9.8167,0,0,0,5.6-1.2,13.5532,13.5532,0,0,0,4.5-3.7,15.75,15.75,0,0,0,3.1-11.1v-.1l-2.9-9.9a.6644.6644,0,0,0-.5-.4h-19.6a.6644.6644,0,0,0-.5.4l-2.9,9.9v.1a15.2811,15.2811,0,0,0,3.1,11.1A12.4464,12.4464,0,0,0,22.0829,155.6Zm11-.5a11.431,11.431,0,0,1-5.4,1.4v.2a12.4252,12.4252,0,0,1-9.5-5.2,15.4124,15.4124,0,0,1-2.4-5,14.6494,14.6494,0,0,1-.4-5.5v.1l2.8-9.5h19.1l2.7,9.5V141a14.57,14.57,0,0,1-2.7,10.5A13.2076,13.2076,0,0,1,33.0829,155.1Z" transform="translate(0 0)"/><path class="d" d="M14.9829,135.7c2.2-.3,4.4-.3,6.6-.4l6.6-.1c4.4.1,8.8,0,13.2.4a.2.2,0,1,1,0,.4c-4.4.3-8.8.3-13.2.4l-6.6-.1c-2.2-.1-4.4-.1-6.6-.4-.1,0-.1-.1,0-.2Z" transform="translate(0 0)"/><path class="f" d="M50.5829,21.1V8.2a8.2371,8.2371,0,0,1,8.2-8.2h121.2a8.2371,8.2371,0,0,1,8.2,8.2v13h-137.6Z" transform="translate(0 0)"/><path class="g" d="M50.6829,120.3V21.1h137.6v99.7l-103-1.6" transform="translate(0 0)"/><path class="c" d="M175.983,106.7h-40.2V34.5h40.2" transform="translate(0 0)"/><path class="h" d="M160.383,64h-15V50.1a6.4449,6.4449,0,0,1,6.4-6.4h15.2V57.4A6.53,6.53,0,0,1,160.383,64Z" transform="translate(0 0)"/><path class="i" d="M166.783,95.9h-21.4V71.4h21.6V95.6C167.083,95.8,166.983,95.9,166.783,95.9Z" transform="translate(0 0)"/><path class="c" d="M63.3829,46.8h64.3V34.5h-64.3Zm0,60.5h64.3V55.8h-64.3Z" transform="translate(0 0)"/><path class="j" d="M104.183,83.1h-14.5a14.5,14.5,0,1,0,14.5-14.5h-.3Z" transform="translate(0 0)"/><path class="k" d="M97.1829,78.8V64.3a14.51,14.51,0,0,0-14.5,14.5Z" transform="translate(0 0)"/><path class="c" d="M66.1829,12.8a2,2,0,1,0-2-2A2,2,0,0,0,66.1829,12.8Z" transform="translate(0 0)"/><path class="h" d="M76.8829,12.8a2,2,0,1,0-2-2A2,2,0,0,0,76.8829,12.8Z" transform="translate(0 0)"/><path class="h" d="M87.5829,12.8a2,2,0,1,0-2-2A2,2,0,0,0,87.5829,12.8Z" transform="translate(0 0)"/><path class="l" d="M193.983,20.8l-147.9.7Z" transform="translate(0 0)"/><path class="m" d="M193.983,21c-12.3.9-24.6.9-37,1l-37,.3-37,.1c-12.3,0-24.7.1-37-.6v-.5c12.3-.9,24.6-.9,37-1l37-.3,37-.1c12.3,0,24.7-.1,37,.6Z" transform="translate(0 0)"/><path class="c" d="M51.1829,132.2a4.23,4.23,0,0,0-2.9-2.5,4.0977,4.0977,0,0,0-2.6.4,1.0808,1.0808,0,0,0-.4,1.6,3.7949,3.7949,0,0,0,2.3,1.4A4.0225,4.0225,0,0,0,51.1829,132.2Z" transform="translate(0 0)"/><path class="c" d="M58.1829,128.9a1.1784,1.1784,0,0,0,.3-1.7,3.5393,3.5393,0,0,0-2.4-1.3,4.4591,4.4591,0,0,0-3.5,1.4,4.2693,4.2693,0,0,0,3.2,2.1A4.4914,4.4914,0,0,0,58.1829,128.9Z" transform="translate(0 0)"/><path class="c" d="M60.2829,125.1a1.1461,1.1461,0,0,0,.7-1.6,3.4843,3.4843,0,0,0-2.1-1.8,4.3753,4.3753,0,0,0-3.7.5,4.1779,4.1779,0,0,0,2.6,2.8A3.6236,3.6236,0,0,0,60.2829,125.1Z" transform="translate(0 0)"/><path class="c" d="M52.3829,127.2a3.9479,3.9479,0,0,0-1.9-3.3,4.31,4.31,0,0,0-2.6-.5,1.0908,1.0908,0,0,0-.9,1.4,3.6361,3.6361,0,0,0,1.7,2.1,4.291,4.291,0,0,0,3.7.3Z" transform="translate(0 0)"/><path class="c" d="M54.9829,122.2a4.3628,4.3628,0,0,0-1.3-3.6,4.1426,4.1426,0,0,0-2.2-.9,1.2923,1.2923,0,0,0-1.4,1.6,4.0792,4.0792,0,0,0,1.3,2A4.3391,4.3391,0,0,0,54.9829,122.2Z" transform="translate(0 0)"/><path class="c" d="M58.3829,128c0-.1-.1-.2-.1-.3l-.3-.3a4.0132,4.0132,0,0,0-1.6-.8,3.7221,3.7221,0,0,0-1.8.2,4.0283,4.0283,0,0,0-1.1561.681,1.5052,1.5052,0,0,0,.6561.719,7.458,7.458,0,0,0,1.2.7,5.4055,5.4055,0,0,0,2.8-.1A1.1355,1.1355,0,0,0,58.3829,128Z" transform="translate(0 0)"/><path class="c" d="M60.6829,124.3a.6012.6012,0,0,0-.1-.4c0-.1-.1-.2-.2-.3a5.2625,5.2625,0,0,0-1.4-1.2,3.5913,3.5913,0,0,0-1.8-.2,2.6135,2.6135,0,0,0-1.3289.415,1.977,1.977,0,0,0,.4289.685,4.7407,4.7407,0,0,0,1,1,4.6224,4.6224,0,0,0,2.9.6A3.8073,3.8073,0,0,0,60.6829,124.3Z" transform="translate(0 0)"/><path class="e" d="M57.3829,136.5a.43.43,0,0,1,.4.4v.2c-.7,1.5-1.4,3-2.1,4.4V141a20.704,20.704,0,0,1,1.8,4.7,14.3047,14.3047,0,0,1,.5,5.1,7.4041,7.4041,0,0,1-2.4,4.7,6.4235,6.4235,0,0,1-4.5464,1.5h-.2536a8.278,8.278,0,0,1-5-1.6,7.1711,7.1711,0,0,1-2.4-4.7,14.77,14.77,0,0,1,.5-5.1,20.7041,20.7041,0,0,1,1.8-4.7v.5l-2.2-4.4a.4809.4809,0,0,1,.2-.6h7.7c.0211,0,1.5534.001,3.3319,0C55.5948,136.399,56.5554,136.533,57.3829,136.5Z" transform="translate(0 0)"/><path class="c" d="M57.3829,131.6a3.8793,3.8793,0,0,0-2.5-1.1,3.1976,3.1976,0,0,0-2.8813,1.758A2.823,2.823,0,0,0,54.7829,134a3.7267,3.7267,0,0,0,2.5-.7A1.0825,1.0825,0,0,0,57.3829,131.6Z" transform="translate(0 0)"/><path class="f" d="M185.483,154.5c-1.3.4-5.3,1.2-6.5,1.6a.921.921,0,0,0,.3,1.8h10.8a2.0251,2.0251,0,0,0,2-2.3l-.2-1.2Z" transform="translate(0 0)"/><path class="d" d="M187.983,79.8h-6.1l-1-13.7h7.1Z" transform="translate(0 0)"/><path class="m" d="M194.283,77.9c3-.4,11.2,9.9,12.7,13.8,1.5,4-8.3,6.3-8.3,6.3" transform="translate(0 0)"/><path class="m" d="M198.6826,98.5a.5.5,0,0,1-.1143-.9863c.0645-.0156,6.4678-1.5469,7.8359-4.1094a1.77,1.77,0,0,0,.1113-1.5293c-1.56-4.0537-9.6279-13.8047-12.166-13.48a.5.5,0,1,1-.1328-.9912c3.4854-.481,11.8184,10.438,13.2334,14.1157a2.7569,2.7569,0,0,1-.1641,2.3564c-1.5811,2.959-8.208,4.5449-8.4893,4.61A.4624.4624,0,0,1,198.6826,98.5Z" transform="translate(0 0)"/><path class="d" d="M204.883,127.3s5.7,10.9,4.9,21.3l-.9,2.7-18.1-25" transform="translate(0 0)"/><path class="m" d="M208.8828,151.8a.5007.5007,0,0,1-.4053-.207l-18.1-25a.5.5,0,1,1,.8105-.5859l17.5283,24.2109.5723-1.7178c.7529-10.1221-4.793-20.8613-4.85-20.9687a.5.5,0,0,1,.8867-.4629c.2354.45,5.7568,11.1465,4.9551,21.5693a.5032.5032,0,0,1-.0234.12l-.9,2.7a.5007.5007,0,0,1-.4746.3418Zm.9-3.2h0Z" transform="translate(0 0)"/><path class="d" d="M183.083,125.4s1.3,25.9,2.7,30.3l5.4-.1c.3-9.1,3.4-20.7,3.7-32.4" transform="translate(0 0)"/><path class="m" d="M185.7832,156.2a.5.5,0,0,1-.4766-.3486c-1.4043-4.41-2.67-29.3662-2.7227-30.4258a.4987.4987,0,0,1,.4736-.5244.4674.4674,0,0,1,.5244.4736c.0127.252,1.249,24.6377,2.5771,29.8184l4.542-.084a128.4151,128.4151,0,0,1,1.6406-13.5391,143.5911,143.5911,0,0,0,2.041-18.3828.5157.5157,0,0,1,.5127-.4873.5.5,0,0,1,.4873.5127A144.4357,144.4357,0,0,1,193.33,141.724a121.5266,121.5266,0,0,0-1.6475,13.8926.5.5,0,0,1-.4912.4834l-5.3994.1Z" transform="translate(0 0)"/><path class="m" d="M180.883,72.7a6.7412,6.7412,0,0,0,2.8-.1.0979.0979,0,0,1,.1.1l-2.3,2.4-.6-2.6" transform="translate(0 0)"/><path class="m" d="M181.2393,75.9886l-.7832-3.39.4756-.11.05-.2153a6.3785,6.3785,0,0,0,2.5889-.0967l.1123-.0146a.5336.5336,0,0,1,.5391.5381v.1763Zm.2627-2.7554.2256.978.957-.9985A6.9005,6.9005,0,0,1,181.502,73.2333Z" transform="translate(0 0)"/><path class="d" d="M182.483,57c-3.1-.1-5.9,1.3-6.3,4.1-.4,2.4-2.4,2.9-2.5,4.2,0,.9,1.6,1.1,1.8,2a6.6364,6.6364,0,0,0,6.3,5.4,5.845,5.845,0,0,0,1.9-.2" transform="translate(0 0)"/><path class="m" d="M181.7832,73.2a7.13,7.13,0,0,1-6.7871-5.7866c-.0527-.2373-.3867-.4531-.71-.6616-.4912-.3169-1.1035-.7119-1.1035-1.4517a2.9208,2.9208,0,0,1,1.0693-1.82,4.3614,4.3614,0,0,0,1.4375-2.4619c.4014-2.8164,3.1445-4.6484,6.8105-4.5176a.5.5,0,0,1-.0166,1l-.0166,0c-2.5937-.0825-5.4092,1.0186-5.7891,3.6714a5.2811,5.2811,0,0,1-1.7109,3.0083c-.4219.4316-.7559.7729-.7861,1.16.002.1426.2578.3213.6475.5728a2.2312,2.2312,0,0,1,1.1436,1.28,6.1613,6.1613,0,0,0,5.8408,5.0093,5.33,5.33,0,0,0,1.7324-.1816.5.5,0,0,1,.2754.9609A6.2853,6.2853,0,0,1,181.7832,73.2Z" transform="translate(0 0)"/><path class="m" d="M176.2832,69.8a.5.5,0,0,1-.1855-.9644,2.2668,2.2668,0,0,0,1.1211-1.1216.5.5,0,1,1,.9277.3711,3.258,3.258,0,0,1-1.6777,1.6792A.497.497,0,0,1,176.2832,69.8Z" transform="translate(0 0)"/><path class="m" d="M177.183,64.8a.43.43,0,0,0,.4-.4v-.8a.4.4,0,1,0-.8,0v.7A.4575.4575,0,0,0,177.183,64.8Z" transform="translate(0 0)"/><path class="f" d="M196.283,80.2c-3.2-4.8-6.7-6.8-15.1-4.1l-.9,21.4c-.7,6.9,1.6,30.6,1.6,30.6h24c.597-15.312-1.706-20.916-3.702-25.773a39.0929,39.0929,0,0,1-1.798-5.027,24.2554,24.2554,0,0,1-.761-6.4614C199.58,87.7878,199.544,85.1539,196.283,80.2Zm17.2,77.6c-1.8.4-7.4-9.4-7.4-9.4l3.7-.2c1.6-.2,2,.8,2.4,2.4.126.464.306,1.043.501,1.67C213.413,154.619,214.351,157.642,213.483,157.8Z" transform="translate(0 0)"/><path class="d" d="M176.383,84.7a12.5856,12.5856,0,0,1-2.9-3.4c-1.9-3.4-6.8-9.2-8-7.6s.9,6.9,2.7,7.8c1.3,4.3,8.2,18.7,12.3,17.6s7.4-23,1.7-22.7-6.1,12.9-6.1,12.9" transform="translate(0 0)"/><path class="m" d="M180.0479,99.6566c-4.5986,0-10.9932-13.7891-12.2842-17.8193-1.2656-.8018-2.4609-3.1646-2.918-5.1021-.2471-1.0474-.4062-2.4761.2373-3.335a1.1633,1.1633,0,0,1,1.0635-.47c2.1719.145,6.2744,5.4443,7.7734,8.126a12.7683,12.7683,0,0,0,2.332,2.876c.7705-3.6484,2.4131-7.8477,5.9043-8.0317,1.2021-.07,2.7666.6323,3.3506,4.312.9316,5.8721-1.3779,18.4277-4.8936,19.3711A2.2127,2.2127,0,0,1,180.0479,99.6566Zm-14.0029-25.73a.1683.1683,0,0,0-.1611.0732,3.4318,3.4318,0,0,0-.0645,2.5059c.4717,1.999,1.6563,4.0815,2.5869,4.5474a.5.5,0,0,1,.2549.3027c1.38,4.5605,8.2207,18.1982,11.6924,17.2607,2.5322-.6787,5.1406-12.1055,4.166-18.248-.2578-1.6245-.8838-3.5459-2.3105-3.4692-5.1768.2725-5.6221,12.2954-5.626,12.4165a.5094.5094,0,0,1-.5156.4844.5006.5006,0,0,1-.4844-.5156,33.6778,33.6778,0,0,1,.4541-4.2207,13.1439,13.1439,0,0,1-2.9844-3.51c-1.78-3.1846-5.55-7.5312-6.9727-7.6265Z" transform="translate(0 0)"/><path class="m" d="M196.483,70.7a8.2549,8.2549,0,0,0-2.1-2.4,4.254,4.254,0,0,1-1.4-2.3,8.5657,8.5657,0,0,0-1.2-3.4,6.89,6.89,0,0,0-3.8-2.6,6.0282,6.0282,0,0,0-4.3-3.3,7.2586,7.2586,0,0,0-5.5.8c-.4,3.2.9,6.7,3.8,6.9-.5,2.4.9,5.7,3.6,6.5a8.6787,8.6787,0,0,0,1.3,5.9c2.2,3.6,6.2,5.1,8.8,3.5,2.6-1.8,3-6,.8-9.6Z" transform="translate(0 0)"/><path class="e" d="M55.4829,121.737s-.1616-4.003-3.2-4.537-2.9515,1.852-2.6258,2.525A4.9324,4.9324,0,0,0,51.3829,122a4.7862,4.7862,0,0,0,2.45.7A2.8075,2.8075,0,0,0,55.4829,121.737Z" transform="translate(0 0)"/><path class="c" d="M49.9829,136.9h7.6l-2.2,4.4a20.226,20.226,0,0,1,2.2,8.3c0,4.2-2.6,6.9-6.9,6.9h.2c-4.3,0-6.9-2.7-6.9-6.9a20.226,20.226,0,0,1,2.2-8.3l-2.2-4.4h6Z" transform="translate(0 0)"/><path class="e" d="M55.9048,121.189s2.8856-.732,4.3781.811,1.0132,2.233.8158,2.579-.7908,1.171-2.7158,1.046-2.4679-.959-3.509-2.376S55.9048,121.189,55.9048,121.189Z" transform="translate(0 0)"/><path class="e" d="M52.5269,126.78s1.8981-1.92,3.756-1.28,2.9,1.283,2.9,2.3-.9387,1.551-1.7608,1.835a5.5986,5.5986,0,0,1-3.7517-.215,2.119,2.119,0,0,1-1.3875-1.819Z" transform="translate(0 0)"/><path class="e" d="M51.46,131.794s1.1861-1.833,2.6383-1.833a5.1709,5.1709,0,0,1,3.285.916,1.5263,1.5263,0,0,1,.1,2.584,3.7337,3.7337,0,0,1-3.0393,1.09,3.409,3.409,0,0,1-2.7991-1.509C51.0079,132.056,51.46,131.794,51.46,131.794Z" transform="translate(0 0)"/><path class="c" d="M60.6829,124.3a.6012.6012,0,0,0-.1-.4c0-.1-.1-.2-.2-.3a5.2625,5.2625,0,0,0-1.4-1.2,3.5913,3.5913,0,0,0-1.8-.2,2.6135,2.6135,0,0,0-1.3289.415,1.977,1.977,0,0,0,.4289.685,4.7407,4.7407,0,0,0,1,1,4.6224,4.6224,0,0,0,2.9.6A3.8073,3.8073,0,0,0,60.6829,124.3Z" transform="translate(0 0)"/><path class="c" d="M58.3829,128c0-.1-.1-.2-.1-.3l-.3-.3a4.0132,4.0132,0,0,0-1.6-.8,3.7221,3.7221,0,0,0-1.8.2,4.0283,4.0283,0,0,0-1.1561.681,1.5052,1.5052,0,0,0,.6561.719,7.458,7.458,0,0,0,1.2.7,5.4055,5.4055,0,0,0,2.8-.1A1.1355,1.1355,0,0,0,58.3829,128Z" transform="translate(0 0)"/><path class="e" d="M52.3829,125.883s-.84-3.463-4.2541-3.183-1.1473,3.596-.2647,4.189a4.0776,4.0776,0,0,0,3.5955.712A1.364,1.364,0,0,0,52.3829,125.883Z" transform="translate(0 0)"/><path class="e" d="M51.46,132.073a4.667,4.667,0,0,0-2.8767-2.873c-2.26-.762-4.1375.652-4.1375,1.437a2.493,2.493,0,0,0,1.1375,2.204,3.5411,3.5411,0,0,0,3.5866.828A4.5863,4.5863,0,0,0,51.46,132.073Z" transform="translate(0 0)"/><path class="e" d="M51.0079,136.7s-.957-7.718,1.375-11.468,3.5219-4.598,3.5219-4.598l.6952.506s-3.7171,3.785-4.2171,7.841a71.1256,71.1256,0,0,0-.5,7.719Z" transform="translate(0 0)"/><path class="c" d="M54.8829,121.779s-.6894-2.226-2.0947-2.93-2.0947-.449-2.0947.272.5914,1.554,1.7841,2.36A2.691,2.691,0,0,0,54.8829,121.779Z" transform="translate(0 0)"/><path class="c" d="M51.9172,126.076a4.8008,4.8008,0,0,0-3.0343-2.176c-1.8407-.206-1.092,1.074-.6481,1.725a3.0211,3.0211,0,0,0,2.1613,1.305l1.0635.17Z" transform="translate(0 0)"/><path class="c" d="M57.1912,131.6a3.6821,3.6821,0,0,0-2.4109-1.1,3.0914,3.0914,0,0,0-2.7787,1.758A2.7361,2.7361,0,0,0,54.6838,134a3.5039,3.5039,0,0,0,2.411-.7A1.1071,1.1071,0,0,0,57.1912,131.6Z" transform="translate(0 0)"/><path class="c" d="M50.903,132.045s-1.6311-1.811-2.9505-1.811-1.3476.052-1.8586.369-.5717.473-.366.958a2.6276,2.6276,0,0,0,2.1362,1.28,3.95,3.95,0,0,0,2.2136-.279A1.4614,1.4614,0,0,0,50.903,132.045Z" transform="translate(0 0)"/></g></svg>
