<svg xmlns="http://www.w3.org/2000/svg" viewBox="0 0 199.14 200.719"><defs><clipPath id="a"><path fill="none" d="M0 0h198.14v199.72H0z"/></clipPath><style>.c{fill:#fff}.d{fill:#bedae6}.e{fill:#c3c4c7}.f{fill:#004e6e}.g{fill:#6ab3d0}.i{fill:#98c6d9}</style></defs><g clip-path="url(#a)"><path class="c" d="M171.03 83.939a1.87 1.87 0 001.4 2.61l16 3.51a2.85 2.85 0 003.18-1.58 1.87 1.87 0 00-1.4-2.61l-16-3.51a2.85 2.85 0 00-3.14 1.62z"/><path class="d" d="M189.04 91.123a3.89 3.89 0 01-.82-.087l-16.004-3.51a2.825 2.825 0 01-2.008-1.464 2.89 2.89 0 01-.09-2.533.997.997 0 01.223-.315 3.832 3.832 0 014.06-1.837l16.023 3.515a2.855 2.855 0 012.01 1.466 2.89 2.89 0 01.09 2.529 3.84 3.84 0 01-3.485 2.236zm-17.163-6.554a.88.88 0 00.093.547.868.868 0 00.624.446l16.05 3.52a1.845 1.845 0 002.06-1.027.87.87 0 00-.657-1.2l-16.05-3.52a1.837 1.837 0 00-2.015 1.057.989.989 0 01-.105.177z"/><path class="c" d="M171.03 83.939a1.87 1.87 0 001.4 2.61l16 3.51a2.85 2.85 0 003.18-1.58 1.87 1.87 0 00-1.4-2.61l-16-3.51a2.85 2.85 0 00-3.14 1.62z"/><path class="e" d="M189.04 91.123a3.89 3.89 0 01-.82-.087l-16.004-3.51a2.825 2.825 0 01-2.008-1.464 2.89 2.89 0 01-.09-2.533.997.997 0 01.223-.315 3.832 3.832 0 014.06-1.837l16.023 3.515a2.855 2.855 0 012.01 1.466 2.89 2.89 0 01.09 2.529 3.84 3.84 0 01-3.485 2.236zm-17.163-6.554a.88.88 0 00.093.547.868.868 0 00.624.446l16.05 3.52a1.845 1.845 0 002.06-1.027.87.87 0 00-.657-1.2l-16.05-3.52a1.837 1.837 0 00-2.015 1.057.989.989 0 01-.105.177z"/><path class="c" d="M172.02 129.859h-57.13a7.39 7.39 0 01-7.38-7l1.93-36.24a7.39 7.39 0 017.38-7.81h57.12a7.39 7.39 0 017.38 7l-1.93 36.24a7.39 7.39 0 01-7.37 7.81z"/><path class="e" d="M172.02 130.859h-57.13a8.39 8.39 0 01-8.379-7.948v-.105l1.929-36.188a8.39 8.39 0 018.379-8.81h57.121a8.389 8.389 0 018.379 7.948v.106l-1.929 36.187a8.388 8.388 0 01-8.37 8.81zm-63.508-8.002a6.388 6.388 0 006.378 6.002h57.128a6.39 6.39 0 006.373-6.752 1.042 1.042 0 010-.11l1.927-36.187a6.388 6.388 0 00-6.378-6.002h-57.122a6.39 6.39 0 00-6.38 6.754 1.03 1.03 0 01.001.11z"/><path class="c" d="M169.64 148.539c1.7-17 7.31-29.5 14-29.5 8 0 14.5 18.06 14.5 40.34s-6.49 40.34-14.5 40.34"/><path class="e" d="M183.64 200.72a1 1 0 010-2c7.317 0 13.5-18.017 13.5-39.34 0-23.533-6.98-39.34-13.5-39.34-5.878 0-11.348 12.027-13.005 28.6a1 1 0 11-1.99-.2c1.818-18.184 7.845-30.4 14.995-30.4 8.692 0 15.5 18.158 15.5 41.34s-6.809 41.34-15.5 41.34zM128.28 48.478v-4c-5.08.87-9.59 1.3-13.53 0s6.2 4.12 13.53 4z"/><path class="f" d="M114.85 25.939a1.23 1.23 0 011.23 1.23v1.92a1.23 1.23 0 01-1.23 1.23 1.23 1.23 0 01-1.23-1.23v-1.92a1.23 1.23 0 011.23-1.23zM117.24 21.639l-.21-.09h-.41a13.535 13.535 0 00-1.59-.08 8.214 8.214 0 00-1.59.16 3.24 3.24 0 00-.48.12l-.17.06h-.09a.5.5 0 01-.59-.33.512.512 0 01.11-.47 2.819 2.819 0 01.82-.57 5.438 5.438 0 01.91-.32 7.715 7.715 0 011.07-.13 4.821 4.821 0 011.07.06 4.184 4.184 0 01.93.26 2.282 2.282 0 01.37.18 3.469 3.469 0 01.32.22 1.484 1.484 0 01.16.18.51.51 0 01-.13.72.52.52 0 01-.5.03z"/><path class="g" d="M142.36 29.088c-.56-6.36 1.57-9.37-1.69-18.56-2.06-5.8-12.07-12.47-22.36-10-11.12 1.52-15.84 11.56-15.84 22.86 0 15.13-9.16 14.72-9.16 25.32s7.33 12.2 7.33 12.2a18.588 18.588 0 007.35-.39v-5.26a6.34 6.34 0 005.54-5.52l.65-5.26c-6.2-1.06-7.88-19.66-7.88-19.66 11.88.8 14.49-8 17.19-13.25a24.005 24.005 0 006.49 7c6.77 5.08 6.2 14.43 3.38 19.74-2.66 5-5.66 5.6-5.66 5.6l.2 5.92a5.45 5.45 0 004.67 5.21l1.35.19v5.39h5.48s5.36-2.65 8-10.34-4.7-17.3-5.04-21.19z"/><path class="f" d="M106.86 24.479l.08 2.51c.06.79.1 1.74.21 2.84l.2 1.74.32 1.9c.14.65.31 1.33.49 2a17.55 17.55 0 00.76 2.06 10.264 10.264 0 002.66 3.75 10.501 10.501 0 004.33 2.3 21.007 21.007 0 005.2.71h1.31l1.36-.07a8.26 8.26 0 001.29-.16 8.786 8.786 0 001.24-.24 9 9 0 004.25-2.28 9.84 9.84 0 002.39-3.89 20.586 20.586 0 001-4.16c.2-1.33.28-2.57.36-3.66s.11-2.06.13-2.86l.06-2.5a.5.5 0 111 0v5.42a36.757 36.757 0 01-.27 3.78 21.886 21.886 0 01-1 4.45 10.87 10.87 0 01-2.69 4.46 10.489 10.489 0 01-4.9 2.69 10.238 10.238 0 01-1.41.28 9.932 9.932 0 01-1.41.18l-1.36.06h-1.43a22.396 22.396 0 01-5.56-.79 11.946 11.946 0 01-4.88-2.64 11.56 11.56 0 01-2.93-4.27 18.86 18.86 0 01-.78-2.24c-.18-.74-.34-1.45-.48-2.14l-.29-2-.15-1.79c-.08-1.12-.09-2.11-.13-2.92v-2.51a.5.5 0 011 0z"/><path class="f" d="M122.4 26.108s.1.43.19 1.07a22.536 22.536 0 01.19 2.35 20.707 20.707 0 01-.06 2.35 10.409 10.409 0 01-.14 1.07.55.55 0 01-1.09 0 10.409 10.409 0 01-.14-1.07 20.942 20.942 0 01-.06-2.35 22.536 22.536 0 01.19-2.35c.09-.64.19-1.07.19-1.07a.39.39 0 01.75 0z"/><rect class="f" x="127.72" y="25.939" width="2.46" height="4.38" rx="1.23" ry="1.23"/><path class="f" d="M125.96 20.659a1.573 1.573 0 00-.16.18l-.02.01a.51.51 0 00.62.77l.21-.09h.41a13.557 13.557 0 011.59-.08 8.206 8.206 0 011.59.16 3.227 3.227 0 01.48.12l.17.06h.1a.5.5 0 00.5-.83 2.819 2.819 0 00-.82-.57 5.438 5.438 0 00-.91-.32 7.73 7.73 0 00-1.07-.13 4.821 4.821 0 00-1.07.06 4.184 4.184 0 00-.93.26 2.324 2.324 0 00-.37.18 3.47 3.47 0 00-.32.22zm-6.73 16.15l-.28-.11a.524.524 0 00-.52.89l.23.2a4.124 4.124 0 00.36.22 3.716 3.716 0 00.46.22 6.998 6.998 0 002.52.47 10.259 10.259 0 001.36-.09 6.914 6.914 0 001.19-.31 3.994 3.994 0 00.81-.45l.28-.25a.49.49 0 00-.5-.82h-.13l-.21.09a4.104 4.104 0 01-.62.17 10.636 10.636 0 01-2.15.13 17.492 17.492 0 01-2.17-.22 8.065 8.065 0 01-.247-.065 1.532 1.532 0 00-.383-.075z"/><path d="M172.29 103.759s-3.68-42.29-37.7-48.5c0 0-5.47 7.9-14 7.9s-12.77-7.9-12.77-7.9c-34 10.71-32.18 49.06-32.18 49.06h21.22l-.57 32.71h55.28l-1.46-32.82z" fill="#187aa2"/><path class="g" d="M121.18 71.088a1.28 1.28 0 10-1.28-1.28 1.28 1.28 0 001.28 1.28z"/><path class="c" d="M111.92 103.189h-3.38c-5.64 0-6.77-19.17-6.77-19.17h17.48s-2.25 19.17-7.33 19.17z"/><path class="c" d="M154.78 139.279c-19.17 0-26.5-32.14-26.5-32.14a19.349 19.349 0 01-6.77-2.82c-3-2-3.38-6.2-3.38-6.2a28.683 28.683 0 00-8.46.56c-1.33.34-1.69-.56-2.26-2.26s.56-3.95 3.38-4.51c10-5.64 12.75-1.68 14.66 0 4.51 3.95 26.5 21.43 26.5 21.43"/><path class="d" d="M115.11 36.839a1.083 1.083 0 000 .29l.43.17a1.097 1.097 0 00.22-.2 1.782 1.782 0 00.3-.51 2.013 2.013 0 00.11-.58 1.278 1.278 0 000-.29l-.44-.17a1.295 1.295 0 00-.21.2 1.985 1.985 0 00-.3.51 1.795 1.795 0 00-.11.58zm13.32.26a1.097 1.097 0 00.22.2l.43-.17a1.083 1.083 0 000-.29 1.769 1.769 0 00-.11-.58 1.985 1.985 0 00-.3-.51 1.295 1.295 0 00-.21-.2l-.44.17a1.278 1.278 0 000 .29 2.013 2.013 0 00.11.58 1.782 1.782 0 00.3.51z"/><path class="e" d="M130.54 113.849a.5.5 0 01-.342-.864l9.02-8.46a.5.5 0 01.684.728l-9.02 8.46a.496.496 0 01-.342.136z"/><path class="i" d="M57 133.079h43.42a3.95 3.95 0 013.95 3.95H57v-3.95z"/><path class="i" d="M73.9 137.029H8.65l-5.78-41.81a6.37 6.37 0 016.31-7.25h52.37a6.37 6.37 0 016.31 5.5z"/><path class="c" d="M162.68 137.029h18.35v13.16"/><path class="e" d="M162.68 136.609a56.855 56.855 0 019.18-.62q4.59-.09 9.18 0a1.06 1.06 0 011 1.07l-.07 6.58c0 1.1 0 2.19-.1 3.29s-.12 2.19-.24 3.29a.67.67 0 01-1.33 0c-.12-1.1-.18-2.19-.24-3.29s-.07-2.19-.1-3.29l-.07-6.58 1.07 1.07q-4.59.06-9.18 0a57.08 57.08 0 01-9.18-.62.43.43 0 010-.84z"/><path class="c" d="M166.94 131.649l-4.26 1.5-11.4-1.33 2.17-6.84 9.23-1.66 6.13 3.67zM.76 137.029v13.16l145-13.16z"/><path class="e" d="M.34 150.189l-.2-6.58c-.08-2.19-.1-4.39-.14-6.58a.749.749 0 01.73-.76c6-.14 12.08-.15 18.12-.22l18.12-.05 36.25-.05 36.25.08 18.13.12 9.06.07 9.06.15a.67.67 0 010 1.33l-9.06.15-9.06.07-18.12.12-36.25.08-36.25-.05-18.12-.05c-6-.07-12.08-.08-18.12-.22l.76-.76c0 2.19-.07 4.39-.14 6.58l-.2 6.58a.42.42 0 01-.84 0z"/><path class="f" d="M110.06 91.629l.44-.36a11.731 11.731 0 011.34-.95 7.682 7.682 0 011.05-.59 9.329 9.329 0 011.3-.56 12.164 12.164 0 013.36-.72 12.466 12.466 0 014.08.39 12.089 12.089 0 014.2 2l3.53 2.91 3.64 3 13.4 11c3.65 3 6 5.14 6 5.14a.67.67 0 01-.83 1s-2.62-1.77-6.35-4.67c-1.88-1.43-4-3.16-6.35-5l-7.27-5.74-3.64-3c-1.19-1-2.41-2-3.46-2.93a9.994 9.994 0 00-3.41-1.71 12.295 12.295 0 00-3.47-.47 13.747 13.747 0 00-3 .34 16.283 16.283 0 00-2.26.67 12.147 12.147 0 00-1.45.61l-.53.23a.34.34 0 01-.35-.57z"/><path class="f" d="M108.18 92.879l-.44.29.06.01a.501.501 0 10.48.88l.48-.21a1.95 1.95 0 01.287-.115c.075-.025.153-.052.233-.085a3.139 3.139 0 01.354-.114c.112-.032.23-.065.346-.106a16.337 16.337 0 013.94-.54 21.351 21.351 0 012.14.07c.68.06 1.32.12 1.86.22l.468.084c.338.06.626.11.842.166l.5.1a.5.5 0 00.3-.95l-.5-.22a10.404 10.404 0 00-1.36-.46 14.123 14.123 0 00-4.33-.5 15.692 15.692 0 00-2.33.26 13.176 13.176 0 00-2 .57l-.198.083a6.117 6.117 0 00-.562.257l-.23.121c-.131.069-.25.13-.34.189zm-.37 2.33l.48-.21a12.325 12.325 0 011.35-.47 15.186 15.186 0 012-.41 17.265 17.265 0 012.31-.12 14.411 14.411 0 012.3.22 15.157 15.157 0 012 .47 12.206 12.206 0 011.33.48l.49.22a.5.5 0 01-.31.95l-.5-.11c-.208-.054-.483-.108-.804-.17l-.506-.1a27.243 27.243 0 00-4-.46 19.082 19.082 0 00-4 .28l-.07.012a11.305 11.305 0 00-1.21.258l-.51.13a.5.5 0 01-.33-.94zm1.02 2.86a9.704 9.704 0 011-.57 7.613 7.613 0 011.19-.46 10.428 10.428 0 012.45-.48 12.148 12.148 0 012.49.05q.615.075 1.23.21l.61.15.09.025c.176.05.345.098.55.174a1 1 0 01.64.8v.05a3.196 3.196 0 00.113.664l.027.116c.06.26.13.54.21.81a9.467 9.467 0 00.62 1.531 6.79 6.79 0 00.88 1.32 4.836 4.836 0 00.54.55 6.717 6.717 0 00.59.46l.032.02c.242.155.508.325.728.45.057.032.116.065.175.1.18.103.37.212.565.31a14.157 14.157 0 001.57.73l.111.042c.526.204 1.005.389 1.519.548l.83.24c.27.07.57.14.8.18a1.079 1.079 0 01.86.81c.4 1.66.92 3.36 1.46 5s1.16 3.31 1.82 4.93a60.068 60.068 0 004.73 9.32 33.151 33.151 0 006.62 7.85 17.316 17.316 0 009 4.09 5.861 5.861 0 01.657.05c.195.022.39.045.583.05h1.27a14.2 14.2 0 002.43-.32 11.237 11.237 0 004.37-2.07 17.313 17.313 0 005.42-8.32 47.85 47.85 0 002-10.2c.19-1.74.3-3.5.35-5.26s.08-3.53 0-5.29a.331.331 0 11.66-.06 49.967 49.967 0 01.57 5.35c.08 1.79.09 3.59 0 5.39a40.566 40.566 0 01-1.79 10.71 24.34 24.34 0 01-2.27 5.06 15.715 15.715 0 01-3.7 4.29 13.336 13.336 0 01-5.17 2.49 16.285 16.285 0 01-2.85.39h-1.3a13.363 13.363 0 01-1.41-.1 17.805 17.805 0 01-5.43-1.53 21.792 21.792 0 01-4.73-3 34.695 34.695 0 01-7.11-8.34 62.24 62.24 0 01-4.86-9.69q-1-2.511-1.85-5.08a69.13 69.13 0 01-1.328-4.559l-.215-.051-.087-.02-.93-.27c-.61-.19-1.22-.42-1.81-.67s-1.17-.52-1.74-.83c-.28-.15-.57-.31-.85-.48-.176-.107-.336-.21-.498-.314a30.6 30.6 0 00-.292-.186 8.205 8.205 0 01-.85-.67 6.72 6.72 0 01-.73-.76 8.892 8.892 0 01-1.13-1.73 11.563 11.563 0 01-.74-1.87c-.09-.32-.18-.64-.25-1a10.967 10.967 0 01-.065-.312l-.425-.108a9.6 9.6 0 00-1.05-.18c-.35-.04-.71-.08-1.07-.1a9.484 9.484 0 00-.711-.004c-.119.002-.239.004-.359.004a6.401 6.401 0 00-1.07.06c-.141.024-.281.041-.42.058a6.385 6.385 0 00-.64.102l-.331.074c-.233.052-.458.101-.669.156-.155.04-.335.1-.522.162s-.383.128-.568.178a.67.67 0 01-.51-1.23z"/><path class="e" d="M113.96 32.148v-.565h-.02zm-4.42-3.87l-.563.045.001.01zm-.09-1.14l-.564.028.001.017zm2.95-2.91l-.035.564.015.001zm3.46.12l-.02.565h.015zm3.49 3.57l.564.034.001-.025zm10.24 4.77l.056-.562h-.01zm4.69-3.56l.557.098.002-.013zm.17-1.13l.559.085.002-.015zm-2.72-3.1l-.02.565h.016zm-3.46-.12l-.031.565h.011zm-3.74 3.32l-.564-.035-.001.027zm-9.71 3.485h-.86v1.13h.86zm-.88 0a3.725 3.725 0 01-3.838-3.36l-1.124.11a4.855 4.855 0 005.002 4.38zm-3.837-3.35l-.09-1.14-1.126.09.09 1.14zm-.089-1.123a2.22 2.22 0 01.657-1.684l-.793-.805a3.34 3.34 0 00-.992 2.544zm.657-1.684a2.217 2.217 0 011.694-.634l.07-1.128a3.343 3.343 0 00-2.557.957zm1.709-.633l3.46.12.04-1.13-3.46-.12zm3.475.12a2.953 2.953 0 012.088.889l.808-.79a4.083 4.083 0 00-2.886-1.23zm2.088.889a2.956 2.956 0 01.842 2.108l1.13.016a4.084 4.084 0 00-1.164-2.914zm.843 2.082a3.935 3.935 0 01-3.961 3.699l-.01 1.13a5.065 5.065 0 005.099-4.761zm9.898 5.297l.86.07.092-1.126-.86-.07zm.851.069a4.896 4.896 0 005.302-4.025l-1.113-.195a3.766 3.766 0 01-4.078 3.095zm5.304-4.038l.17-1.13-1.118-.168-.17 1.13zm.172-1.145a3.326 3.326 0 00-.801-2.602l-.849.745a2.193 2.193 0 01.528 1.718zm-.801-2.602a3.324 3.324 0 00-2.476-1.132l-.008 1.13a2.194 2.194 0 011.635.747zm-2.46-1.132l-3.46-.12-.04 1.13 3.46.12zm-3.449-.12a4.115 4.115 0 00-4.335 3.848l1.128.072a2.985 2.985 0 013.145-2.792zm-4.336 3.877a5.025 5.025 0 004.732 5.093l.066-1.128a3.895 3.895 0 01-3.668-3.948z"/><path class="e" d="M124.59 26.924h-.019l-5.35-.18a.564.564 0 01-.546-.584.573.573 0 01.584-.545l5.35.18a.565.565 0 01-.02 1.13z"/><path class="f" d="M128.99 46.539l-.05-2h-.08a.67.67 0 00-1.33 0l-.05 2-.06 2.31v1.46a6.147 6.147 0 00.4 1.8 6.27 6.27 0 004.68 3.92l1.94.4a48.693 48.693 0 018 2.54 46.146 46.146 0 017.44 3.87 43.303 43.303 0 015.79 4.46 41.31 41.31 0 013.59 3.74c.81.96 1.25 1.53 1.25 1.53a.67.67 0 001.07-.79l-.3-.44-.121-.178a18.145 18.145 0 00-.759-1.052 35.279 35.279 0 00-3.55-4.07 38.499 38.499 0 00-5.93-4.82 43.582 43.582 0 00-7.74-4.09 50.65 50.65 0 00-8.36-2.56c-.66-.15-1.35-.28-2-.38a4.422 4.422 0 01-1.5-.53 4.532 4.532 0 01-1.93-2.19 5.313 5.313 0 01-.34-1.25v-1.37zm-50.11 60.18a1.857 1.857 0 01.22.7 8.706 8.706 0 01.012 1.082c-.006.24-.012.502-.012.778 0 1.54 0 3.59-.13 5.63a100.813 100.813 0 01-.276 3.64c-.063.727-.118 1.368-.204 1.96a12.572 12.572 0 01-.38 1.82 5.346 5.346 0 01-.24.69.272.272 0 01-.36.13.27.27 0 01-.14-.16 5.256 5.256 0 01-.16-.71 11.906 11.906 0 01-.15-1.86c0-.482.024-1.011.048-1.573.015-.335.03-.682.042-1.037.023-.732.064-1.523.104-2.304v-.001l.036-.695.16-3 .1-2.6a13.627 13.627 0 01.07-1.84 1.855 1.855 0 01.22-.7.61.61 0 011.04.05zm10.35 13.13a4.267 4.267 0 01.38.37 6.88 6.88 0 01.68.91 4.492 4.492 0 01.5 1 2.58 2.58 0 01.14.52.55.55 0 01-.86.51 2.616 2.616 0 01-.39-.36 4.515 4.515 0 01-.66-.92 6.99 6.99 0 01-.49-1 4.395 4.395 0 01-.15-.51.53.53 0 01.86-.51z"/><path class="c" d="M163.95 140.319h11v11h-11z"/></g></svg>