<svg viewBox="0 0 245.2 161.5" xmlns="http://www.w3.org/2000/svg"><path d="m238.8 140.4 2.3 18.8" fill="#fff"/><path d="m238.9 140.3c.5 1.5.7 3.1 1 4.7.2 1.6.5 3.1.6 4.7.3 3.1.7 6.3.8 9.4 0 .1-.1.2-.2.2s-.2-.1-.2-.2c-.7-3.1-1.1-6.2-1.5-9.4-.2-1.6-.4-3.1-.5-4.7s-.2-3.2-.2-4.7z" fill="#f6f6f6"/><path d="m216.8 120.9c-9.4 1.3-17.1 6.1-18 10.5s-1.3 5.5-1.3 5.5" fill="#fff"/><path d="m216.8 121c-4.5 1-8.8 2.4-12.6 4.9-1.8 1.2-3.6 2.7-4.5 4.7-.2.5-.3.9-.5 1.5l-.4 1.7c-.3 1.1-.6 2.2-1.1 3.3 0 .1-.2.1-.3.1s-.1-.1-.1-.2c.1-1.1.3-2.3.5-3.4l.3-1.7c.1-.5.3-1.2.5-1.8 1.1-2.3 3-3.8 5-5.1s4.1-2.2 6.3-2.9 4.5-1.1 6.8-1.3c.1 0 .1 0 .1.1.1.1 0 .1 0 .1z" fill="#f6f6f6"/><path d="m216.8 130.1s-.5-6.2.1-10.7l1.1-8.7c.5-3.7 3.5-6.5 7.1-6.5h11.6c4.3 0 7.7 3.9 7.1 8.4l-1.1 8.7c-.2 1.8-1 3.3-2.2 4.5" fill="#fff"/><path d="m216.7 130.1c-.3-2.8-.5-5.7-.4-8.5 0-1.4.2-2.9.4-4.3l.5-4.2.3-2.1c.1-.7.2-1.5.5-2.2.5-1.4 1.4-2.7 2.6-3.6s2.7-1.5 4.2-1.5h10.6c.7 0 1.4 0 2.2.1 3.1.3 5.7 2.7 6.5 5.6.2.7.3 1.5.3 2.2 0 .4 0 .7-.1 1.1l-.1 1.1-.6 4.2c-.2 1.4-.3 2.8-.7 4.2s-1.1 2.7-2.2 3.7c-.1.1-.2.1-.3 0s-.1-.2 0-.3c1-1 1.6-2.3 1.9-3.6.2-1.3.3-2.8.5-4.2l.5-4.2.1-1.1c0-.3.1-.7 0-1 0-.7-.1-1.3-.3-2-.8-2.5-3-4.6-5.7-4.8h-12.6c-1.3 0-2.6.5-3.6 1.3s-1.9 1.9-2.3 3.1c-.2.6-.4 1.2-.4 1.9l-.3 2.1-.6 4.2c-.2 1.4-.4 2.8-.5 4.2-.2 2.8-.2 5.6-.2 8.4 0 .1 0 .1-.1.1-.1.2-.1.2-.1.1z" fill="#ccced0"/><path d="m229.7 141.4h-27.8c-2.5 0-4.4-2-4.4-4.4 0-2.5 2-4.4 4.4-4.4h27.8c2.5 0 4.4 2 4.4 4.4.1 2.4-1.9 4.4-4.4 4.4z" fill="#fff"/><path d="m229.7 141.5c-7 .3-13.9.3-20.9.4h-5.2c-.9 0-1.7.1-2.7-.1s-1.8-.7-2.5-1.4c-1.4-1.4-1.9-3.6-1.1-5.4.7-1.8 2.6-3.1 4.6-3.1l20.9.1 5.2.1c.9 0 1.7 0 2.7.1.9.2 1.8.7 2.4 1.4 1.3 1.3 1.7 3.5 1 5.2s-2.5 2.9-4.4 2.7zm0-.3c1.7 0 3.3-1.1 3.8-2.6.6-1.5.2-3.4-.9-4.5-.6-.6-1.3-.9-2.1-1.1-.8-.1-1.7 0-2.5-.1l-5.2.1-20.9.1c-1.5 0-3 1-3.6 2.4s-.3 3.2.8 4.2c.5.5 1.2.9 2 1.1.7.1 1.6.1 2.5.1h5.2c7 .1 13.9.1 20.9.4z" fill="#f6f6f6"/><path d="m242.7 121.3c-9.4 1.3-17.1 6.1-18 10.5s-2.3 9.6-2.3 9.6h18.1z" fill="#fff"/><path d="m242.5 121.4c-.3.1-.5.1-.8.2l-1 .2c-.6.2-1.3.3-1.9.5-1.3.4-2.5.8-3.7 1.3-2.4 1-4.7 2.2-6.7 3.8-1 .8-1.9 1.7-2.5 2.8-.3.5-.6 1.1-.7 1.7l-.4 1.9c-.6 2.6-1.2 5.2-1.9 7.7l-.5-.7 18.1.1-.5.5c.4-3.3.8-6.6 1.3-9.9zm.3-.2-.9 10c-.3 3.4-.6 6.8-1 10.2 0 .3-.3.5-.5.5l-18.1.1c-.3 0-.6-.3-.6-.6v-.1c.7-2.5 1.3-5.1 1.9-7.7l.4-1.9c.2-.7.5-1.4.8-2 .8-1.2 1.7-2.2 2.8-3 2.1-1.7 4.6-2.9 7.1-3.8 1.3-.4 2.5-.8 3.8-1.1.7-.1 1.3-.3 2-.4l1-.1c.5 0 .9 0 1.3-.1z" fill="#ccced0"/><path d="m199.7 140.4-2.2 18.8" fill="#fff"/><path d="m199.8 140.4c.1 1.6 0 3.2-.2 4.7-.1 1.6-.3 3.1-.5 4.7-.4 3.1-.8 6.3-1.5 9.4 0 .1-.1.2-.2.2s-.2-.1-.2-.2c0-3.2.5-6.3.8-9.4.2-1.6.4-3.1.6-4.7s.5-3.1 1-4.7c.1-.1.1-.1.2 0 0-.1 0-.1 0 0z" fill="#f6f6f6"/><path d="m222.3 140.4-2.3 18.8" fill="#fff"/><path d="m222.4 140.4c.1 1.6 0 3.2-.2 4.7-.1 1.6-.3 3.1-.5 4.7-.4 3.1-.8 6.3-1.5 9.4 0 .1-.1.2-.2.2s-.2-.1-.2-.2c0-3.2.5-6.3.8-9.4.2-1.6.4-3.1.6-4.7s.5-3.1 1-4.7c0-.1.1-.1.2 0 0-.1 0-.1 0 0z" fill="#ccced0"/><circle cx="226.4" cy="114.5" fill="#f6f6f6" r=".8"/><circle cx="235" cy="114.5" fill="#f6f6f6" r=".8"/><path d="m26 121.6c5-3.8 5.2-12 .6-21.1s-17.6-18.3-23.6-9.2 12.2 35.5 19.8 31.4" fill="#fff"/><path d="m25.9 121.5c1.5-1.2 2.6-3 3.1-4.8.5-1.9.6-3.8.4-5.8-.4-3.9-1.8-7.6-3.7-11-1.9-3.3-4.6-6.3-7.7-8.6-1.6-1.1-3.3-2.1-5.1-2.7s-3.7-.8-5.5-.2c-1.7.5-3.2 1.8-4.2 3.4-.9 1.6-1.1 3.5-.9 5.4.4 3.8 1.9 7.5 3.7 11 1.8 3.4 4.1 6.7 6.7 9.6 1.3 1.4 2.8 2.7 4.4 3.8.8.5 1.7.9 2.6 1.2.9.2 1.9.2 2.7-.2.1-.1.2 0 .3.1 0 .1 0 .2-.1.3-.9.5-2 .6-3 .4s-1.9-.6-2.8-1.1c-1.7-1-3.3-2.4-4.7-3.8-2.8-2.9-5.1-6.1-7.1-9.6-1.9-3.5-3.5-7.3-3.9-11.3-.2-2-.1-4.2 1-6.1 1.1-1.8 2.7-3.3 4.8-4 2.1-.6 4.2-.4 6.2.3 1.9.7 3.7 1.7 5.3 2.9 3.2 2.4 6 5.5 7.9 9s3.3 7.4 3.6 11.4c.1 2 0 4.1-.7 6s-1.9 3.6-3.5 4.8h-.1c.3-.3.3-.3.3-.4z" fill="#ccced0"/><path d="m33.9 126.6c-3.2-5.2-1.1-13.9 5.2-19.5l1.8 6.2.9-7.1c2.4-.8 6.2-.8 8.2 1.4 8.4 8.9-6.7 22.9-13.6 19.9" fill="#fff"/><path d="m33.8 126.6c-1-1.5-1.6-3.4-1.7-5.2s.2-3.7.7-5.5c1.1-3.5 3.2-6.7 5.9-9.2.2-.2.5-.2.7 0 .1.1.1.1.1.2l1.8 6.2-1 .1.9-7.1c0-.2.2-.4.4-.4 1.7-.5 3.4-.7 5.1-.4.9.2 1.7.5 2.5.9.8.5 1.4 1.1 1.9 1.8 1.1 1.4 1.7 3.1 1.9 4.8.1 1.7-.2 3.5-.9 5-1.3 3.1-3.6 5.7-6.3 7.7-1.4 1-2.9 1.7-4.5 2.2s-3.4.6-5-.1c-.1 0-.1-.2-.1-.3s.2-.1.3-.1c1.5.6 3.1.3 4.6-.2s2.9-1.3 4.2-2.3c2.5-1.9 4.7-4.4 5.9-7.4.6-1.5.9-3 .8-4.5s-.7-3-1.7-4.2c-1.7-2.6-5.4-2.9-8.3-2l.4-.4-1 7.1c0 .3-.3.5-.6.4-.2 0-.4-.2-.4-.4l-1.7-6.2.8.2c-2.7 2.3-4.7 5.3-5.9 8.7-.6 1.7-.9 3.5-.9 5.2 0 1.8.4 3.6 1.3 5.1v.1c-.1.3-.2.3-.2.2z" fill="#ccced0"/><path d="m31.5 132.7c.1-1.9.6-3.7 1.4-5.4s1.8-3.3 2.9-4.8c2.4-2.9 5.2-5.4 8.2-7.5.1-.1.2 0 .3 0 .1.1 0 .2 0 .3-2.6 2.6-5.4 5-7.5 7.9-1.1 1.4-2.1 2.9-2.9 4.5s-1.5 3.3-2.1 5c0 .1-.1.1-.1.1-.1 0-.2-.1-.2-.1zm-5 0c-.3-3.6-.5-7.1-1.1-10.7-.6-3.5-1.6-6.9-2.9-10.2-1.4-3.3-3.2-6.4-5.4-9.1-2.3-2.7-5-5.1-7.9-7.1-.2 0-.2-.1-.2-.2.1-.1.2-.1.3-.1 3.2 1.8 6 4.1 8.4 6.8s4.3 5.9 5.7 9.3 2.3 6.9 2.9 10.5c.5 3.6.6 7.2.3 10.8.1.1 0 .1-.1 0z" fill="#f6f6f6"/><path d="m28.7 158.5c-1.9.1-3.9-.3-5.6-1.2-1.8-.9-3.3-2.1-4.5-3.7-2.4-3.1-3.6-7.2-3.1-11.1v-.1l2.9-9.9c.1-.2.3-.4.5-.4h19.6c.2 0 .4.2.5.4l2.9 9.9v.1c.4 3.9-.7 8-3.1 11.1-1.2 1.5-2.7 2.8-4.5 3.7-1.7.9-3.6 1.4-5.6 1.2zm0-.3c1.9 0 3.7-.5 5.4-1.4 1.6-.9 3.1-2.1 4.2-3.6 2.2-3 3.2-6.8 2.7-10.5v.1l-3-9.9.5.4h-19.6l.5-.4-3 9.9v-.1c-.2 1.8-.1 3.7.4 5.5s1.3 3.5 2.4 5c2.2 3 5.7 5.1 9.5 5.2z" fill="#f6f6f6"/><path d="m16 137.5h26.4" fill="#fff"/><path d="m16 137.4c2.2-.3 4.4-.3 6.6-.4l6.6-.1c4.4.1 8.8 0 13.2.4.1 0 .2.1.2.2s-.1.2-.2.2c-4.4.3-8.8.3-13.2.4l-6.6-.1c-2.2-.1-4.4-.1-6.6-.4-.1 0-.1-.1 0-.2-.1 0-.1 0 0 0z" fill="#ccced0"/><path d="m51.6 22.8v-12.9c0-4.5 3.7-8.2 8.2-8.2h121.2c4.5 0 8.2 3.7 8.2 8.2v13h-137.6z" fill="#0ea9df"/><path d="m51.7 122v-99.2h137.6v99.7l-103-1.6" fill="#c8e7f5"/><path d="m177 108.4h-40.2v-72.2h40.2" fill="#fff"/><path d="m161.4 65.7h-15v-13.9c0-3.5 2.9-6.4 6.4-6.4h15.2v13.7c.1 3.6-2.9 6.6-6.6 6.6z" fill="#c8e7f5"/><path d="m167.8 97.6h-21.4v-24.5h21.6v24.2c.1.2 0 .3-.2.3z" fill="#86a7be" opacity=".26"/><path d="m122.8 109h-58.4v-51.5h64.3v51.5m-5.9-60.5h-58.4v-12.3h64.3v12.3" fill="#fff"/><path d="m105.2 84.8h-14.5c0 8 6.5 14.5 14.5 14.5s14.5-6.5 14.5-14.5-6.5-14.5-14.5-14.5h-.3z" fill="#81cfef" opacity=".83"/><path d="m98.2 80.5v-14.5c-8 0-14.5 6.5-14.5 14.5z" fill="#81cfef" opacity=".26"/><circle cx="67.2" cy="12.5" fill="#fff" r="2"/><circle cx="77.9" cy="12.5" fill="#81cfef" r="2"/><circle cx="88.6" cy="12.5" fill="#81cfef" r="2"/><path d="m195 22.5-147.9.7" fill="#def1f9"/><path d="m195 22.7c-12.3.9-24.6.9-37 1l-37 .3-37 .1c-12.3 0-24.7.1-37-.6v-.5c12.3-.9 24.6-.9 37-1l37-.3 37-.1c12.3 0 24.7-.1 37 .6z" fill="#204a69"/><path d="m52.2 133.9s-.8-2.1-2.9-2.5c-1.1-.2-2 .1-2.6.4s-.8 1.1-.4 1.6c.5.6 1.2 1.2 2.3 1.4 2.2.5 3.6-.9 3.6-.9zm6.1 1.1c.6-.4.6-1.2.1-1.7-.6-.5-1.4-1.1-2.5-1.1-2.1 0-3.4 1.7-3.4 1.7s1.1 1.8 3.3 1.8c1.1.1 1.9-.3 2.5-.7zm.9-4.4c.6-.4.7-1.2.3-1.7-.5-.6-1.3-1.2-2.4-1.3-2.1-.2-3.5 1.4-3.5 1.4s1 1.9 3.2 2.1c.9.1 1.8-.2 2.4-.5zm2.1-3.8c.7-.2 1-1 .7-1.6-.4-.7-1-1.5-2.1-1.8-2-.7-3.7.5-3.7.5s.5 2.1 2.6 2.8c.9.4 1.8.3 2.5.1zm-7.9 2.1s0-2.3-1.9-3.3c-.9-.5-1.9-.6-2.6-.5s-1.1.8-.9 1.4c.2.7.7 1.5 1.7 2.1 2 1.1 3.7.3 3.7.3zm2.6-5s.3-2.2-1.3-3.6c-.7-.6-1.5-.8-2.2-.9-.9-.1-1.6.7-1.4 1.6.2.7.6 1.4 1.3 2 1.8 1.4 3.6.9 3.6.9z" fill="#fff"/><path d="m52.4 138.6c0-7.5.1-11.5 4.9-16.1" fill="none" stroke="#c7d6e0" stroke-miterlimit="10" stroke-width=".8756"/><path d="m50.8 138.6h7.6l-2.2 4.4s2.2 4.1 2.2 8.3-2.6 6.9-6.9 6.9h.2c-4.3 0-6.9-2.7-6.9-6.9s2.2-8.3 2.2-8.3l-2.2-4.4h7.6z" fill="#fff"/><g fill="#ccced0"><path d="m52 133.8-.2-.2-.3-.3c-.2-.2-.4-.4-.7-.6-.5-.3-1-.6-1.5-.7s-1.1-.1-1.6.1c-.3.1-.5.2-.8.3-.2.1-.2.2-.3.3v.4c.1.2.3.4.5.6.4.4.9.6 1.4.7s1.1.2 1.7.1c.3 0 .6-.1.8-.2.1-.1.3-.1.4-.2l.2-.1.4-.2c.1 0 .1 0 0 0zm.3.4-.1.1-.2.2c-.1.1-.3.2-.4.3-.3.2-.6.3-.9.5-.7.2-1.4.3-2.1.2s-1.4-.4-2-.9c-.3-.2-.5-.5-.8-.8-.3-.4-.4-.9-.3-1.4s.5-.9.9-1.1c.3-.2.7-.3 1-.4.7-.2 1.5-.2 2.2 0s1.4.6 1.8 1.2l.6.9c.1.2.1.3.2.5l.1.2z"/><path d="m58.2 134.9c.2-.3.3-.6.2-.8 0-.1-.1-.2-.2-.3s-.2-.1-.3-.2c-.5-.4-1.1-.6-1.7-.7-.6 0-1.2.1-1.8.3-.5.3-1.1.7-1.5 1.1v-.7c.2.3.6.7 1 1s.8.5 1.3.6c1 .3 2 .2 3-.3zm.2.3c-.9.8-2.1 1.2-3.3 1-.6-.1-1.2-.3-1.7-.7s-1-.7-1.3-1.3c-.1-.2-.1-.5 0-.7.5-.7 1.2-1.2 1.9-1.5.8-.3 1.6-.5 2.4-.3.8.1 1.6.6 2.2 1.1.1.1.3.3.4.6.1.2.1.5.1.7-.1.5-.4.9-.7 1.1z"/><path d="m59.1 130.5c.2-.2.3-.5.3-.8 0-.1-.1-.2-.1-.3l-.3-.3c-.5-.4-1.1-.7-1.6-.8-.6-.1-1.2 0-1.8.2s-1.1.6-1.5 1l.1-.7c.2.4.5.8.9 1.1s.8.5 1.2.7c.7.2 1.8.2 2.8-.1zm.2.3c-.9.7-2.2 1-3.4.8-.6-.1-1.2-.4-1.7-.8s-.9-.8-1.2-1.4c-.1-.2-.1-.5.1-.7.6-.6 1.3-1.1 2-1.4.8-.3 1.6-.3 2.5-.1.8.2 1.6.7 2.1 1.3.1.1.3.3.4.6.1.2.1.5.1.7-.3.4-.6.8-.9 1zm1.9-4.1c.3-.2.4-.5.5-.7 0-.1 0-.3-.1-.4 0-.1-.1-.2-.2-.3-.4-.5-.9-.9-1.4-1.2-.5-.2-1.2-.3-1.8-.2s-1.3.3-1.7.6l.2-.7c.1.4.3.9.6 1.2.3.4.6.7 1 1 .8.5 1.8.7 2.9.6zm.1.3c-1.1.4-2.4.5-3.5-.1-.6-.3-1.1-.7-1.4-1.2-.4-.5-.7-1-.9-1.7-.1-.2 0-.5.2-.6.7-.5 1.5-.7 2.3-.8s1.7.1 2.4.4c.8.4 1.3 1 1.7 1.8.1.2.2.4.2.7 0 .2 0 .5-.1.7-.2.4-.6.7-1 .7z"/><path d="m53.3 128.7-.1-.3c-.1-.1-.1-.3-.2-.4-.1-.3-.3-.5-.4-.8-.3-.5-.7-.9-1.2-1.1-.5-.3-1-.4-1.5-.5h-.8c-.2 0-.2.1-.3.2s-.1.2-.1.4c.1.2.2.5.3.7.3.5.6.9 1.1 1.2s1 .5 1.6.6c.3.1.6.1.9.1h.6l.1-.1s0-.1 0 0zm.1.4-.2.1-.2.1c-.2.1-.3.1-.5.1-.3.1-.7.1-1 .1-.7 0-1.4-.2-2-.5s-1.2-.9-1.6-1.5c-.2-.3-.3-.6-.5-1-.1-.5-.1-1 .2-1.4s.8-.7 1.3-.7h1.1c.7.1 1.4.3 2 .8.6.4 1.1 1 1.3 1.7.1.3.2.7.2 1v1.1zm2.5-5.4-.1-.3c0-.1-.1-.3-.1-.4-.1-.3-.2-.6-.3-.8-.2-.5-.6-1-1-1.3s-.9-.6-1.4-.7c-.1 0-.3-.1-.4-.1h-.2-.1c-.2 0-.3.1-.4.2-.2.3-.3.5 0 1.1.2.5.5.9.9 1.3s.9.6 1.4.8c.3.1.6.2.8.2h.9s0-.1 0 0zm.1.4-.2.1-.2.1c-.2 0-.3.1-.5.1h-1c-.7-.1-1.4-.4-1.9-.8-.6-.4-1-1-1.3-1.7-.1-.3-.3-.6-.3-1.1s.2-.9.5-1.3.8-.6 1.3-.6h.6c.2 0 .4.1.5.1.7.2 1.3.6 1.9 1.1.5.5.9 1.2 1 1.9.1.3.1.7.1 1 0 .2 0 .3-.1.5v.5z"/><path d="m52.3 138.6c-.3-1.5-.4-2.9-.4-4.4s.1-3 .4-4.4c.4-1.5.9-2.9 1.7-4.2s1.9-2.4 3.1-3.2c.1-.1.2-.1.3.1.1.1.1.2 0 .3-.9 1.1-1.8 2.3-2.5 3.5s-1.2 2.5-1.4 3.9c-.3 1.4-.4 2.8-.6 4.2-.1 1.4-.2 2.9-.5 4.3.1 0 .1 0-.1-.1.1.1 0 0 0 0z"/><path d="m50.8 138.5c2.5-.1 5.1-.2 7.6-.3.2 0 .4.2.4.4v.2c-.7 1.5-1.4 3-2.1 4.4v-.5c.8 1.5 1.4 3.1 1.8 4.7s.7 3.3.5 5.1c-.2 1.7-1 3.5-2.4 4.7s-3.3 1.6-5 1.6v-1.3h.2c.4 0 .6.3.6.6s-.3.6-.6.6c-1.7 0-3.6-.5-5-1.6-1.4-1.2-2.2-2.9-2.4-4.7-.2-1.7.1-3.4.5-5.1.4-1.6 1-3.2 1.8-4.7v.5l-2.2-4.4c-.1-.2 0-.5.2-.6h.2c2.5 0 5.1.1 7.6.2v.5h-1.7zm0-.1h1.7c.1 0 .3.1.3.3 0 .1-.1.3-.3.3-2.5.1-5.1.1-7.6.2l.4-.6 2.3 4.3c.1.1.1.3 0 .4-.7 1.4-1.2 2.9-1.6 4.5-.4 1.5-.6 3.1-.4 4.6s.8 2.9 2 3.8c1.1.9 2.7 1.3 4.2 1.3v1.3h-.2c-.4 0-.6-.3-.6-.6s.3-.6.6-.6c1.5 0 3.1-.4 4.2-1.3 1.2-.9 1.8-2.3 2-3.8s0-3.1-.4-4.6-.9-3.1-1.6-4.5c-.1-.1-.1-.3 0-.5.8-1.4 1.5-2.9 2.3-4.3l.4.6c-2.5-.1-5.1-.2-7.6-.3v-.5z"/></g><path d="m186.5 156.2c-1.3.4-5.3 1.2-6.5 1.6-1 .3-.8 1.8.3 1.8h10.8c1.2 0 2.2-1.1 2-2.3l-.2-1.2z" fill="#0ea9df"/><path d="m189 81.5h-6.1l-1-13.7h7.1z" fill="#ccced0"/><path d="m195.3 79.6c3-.4 11.2 9.9 12.7 13.8 1.5 4-8.3 6.3-8.3 6.3" fill="#015082" stroke="#015082" stroke-linecap="round" stroke-linejoin="round" stroke-miterlimit="10"/><path d="m205.9 129s5.7 10.9 4.9 21.3l-.9 2.7-18.1-25" fill="#ccced0" stroke="#015082" stroke-linecap="round" stroke-linejoin="round" stroke-miterlimit="10"/><path d="m184.1 127.1s1.3 25.9 2.7 30.3l5.4-.1c.3-9.1 3.4-20.7 3.7-32.4" fill="#ccced0" stroke="#015082" stroke-linecap="round" stroke-linejoin="round" stroke-miterlimit="10"/><path d="m181.9 74.4c1.3.3 2.8-.1 2.8-.1.1 0 .1.1.1.1l-2.3 2.4-.6-2.6" fill="#015082" stroke="#015082" stroke-miterlimit="10" stroke-width=".8764"/><path d="m183.5 58.7c-3.1-.1-5.9 1.3-6.3 4.1-.4 2.4-2.4 2.9-2.5 4.2 0 .9 1.6 1.1 1.8 2 .7 3 2.9 5.2 6.3 5.4.8 0 1.2 0 1.9-.2" fill="#ccced0" stroke="#015082" stroke-linecap="round" stroke-linejoin="round" stroke-miterlimit="10"/><path d="m178.7 69.6c-.4 1-1.4 1.4-1.4 1.4" fill="none" stroke="#015082" stroke-linecap="round" stroke-linejoin="round" stroke-miterlimit="10"/><path d="m178.2 66.5c.2 0 .4-.2.4-.4v-.8c0-.2-.2-.4-.4-.4s-.4.2-.4.4v.7c0 .3.2.5.4.5z" fill="#015082"/><path d="m182.2 77.8c8.4-2.7 11.9-.7 15.1 4.1 5.2 7.9 2.2 9.9 4.1 17.1s6.3 10.3 5.5 30.8h-24s-2.3-23.7-1.6-30.6m25.8 50.9s5.6 9.8 7.4 9.4c1.1-.2-.7-5-1.3-7.2-.4-1.6-.8-2.6-2.4-2.4z" fill="#0ea9df"/><path d="m177.4 86.4s-1.6-1.2-2.9-3.4c-1.9-3.4-6.8-9.2-8-7.6s.9 6.9 2.7 7.8c1.3 4.3 8.2 18.7 12.3 17.6s7.4-23 1.7-22.7-6.1 12.9-6.1 12.9" fill="#ccced0" stroke="#015082" stroke-linecap="round" stroke-linejoin="round" stroke-miterlimit="10"/><path d="m197.5 72.4c-.6-1-1.3-1.8-2.1-2.4-.7-.6-1.2-1.4-1.4-2.3-.2-1.3-.6-2.5-1.2-3.4-.8-1.2-2.3-2.2-3.8-2.6-1.4-2.4-2.6-2.8-4.3-3.3-2.8-.9-5.5.8-5.5.8-.4 3.2.9 6.7 3.8 6.9-.5 2.4.9 5.7 3.6 6.5-.3 1.8.1 4 1.3 5.9 2.2 3.6 6.2 5.1 8.8 3.5 2.6-1.8 3-6 .8-9.6z" fill="#015082"/></svg>