<svg viewBox="0 0 148.2 187.1" xmlns="http://www.w3.org/2000/svg"><circle cx="76.3" cy="115.2" fill="#ccced0" r="71.9"/><path d="m107 94.8.3 36 6.2-.9s-8.8-11.3-19.1-12.2-18-3-18-3-9.2 9.3-8.4 13.1c.9 3.9 28.8 29.1 41.5 19.4 15.6-12 14.3-44.2 2.9-61.7-8.4-13-21.6-13.1-21.6-13.1z" fill="#0985c2"/><path d="m35.7 108.8s-7.3-26.8 20.4-35.3c24.4-7.5 24.9-1.4 32-1.3 11.1.1 20.3 14.4 22.3 32.2 3.4 29.6-4.6 49.2-4.6 49.2l-6.7-12.6s-27.6-8.2-30.1-15.2 8.3-22.3 8.3-22.3z" fill="#0985c2"/><path d="m20 86.4s-8.9-13-12.2-11-7.5 9-6.2 11.9 14.6 5.8 14.6 5.8z" fill="#a7c1d1"/><path d="m36.3 48.8-3.5 5.6-6.1-3.8 3.9-6.2c-3.1-.5-6.5 1-8.9 3.5-3.3 3.3-2.4 7.6.1 10.8l-21.8 34.6 6.1 3.8 21.6-34.3c3 .9 6.2.5 8.4-1.9 2.5-2.9 2.2-8.3.2-12.1z" fill="#025182"/><path d="m6.4 76.5s-6.8 6.2-4.8 10.8 6.4 1.5 7.7.3c2.8-2.7-.2-9.2-.2-9.2zm7.3 11.2s-1.1-2.2 0-5c.5-1.2-2.6-5.7-1.1-6s5 6.7 5 6.7" fill="#a7c1d1"/><path d="m47.1 107.6s-3.6-4-7.7-8.9-19-12.4-19-12.4-6 6.7-6.2 7.6 4.5 11.1 13.1 19.1c10.9 10.3 17.9 10.7 17.9 10.7z" fill="#0985c2"/><path d="m104.8 120.1c.1-11.1-4.2-28.3-4.2-28.3s-12.6 2-27.4 2.8c-17.1.9-23.8-5-23.8-5s-6.2 9.1-6.1 20.9c.2 17.4 6.4 26.9 6.4 26.9s-15.6 21.3-12.3 38.3c11.2 7.2 24.6 11.4 38.9 11.4 16.1 0 31-5.3 43-14.3-.5-16.8-17.2-36.3-17.2-36.3s2.6-8.9 2.7-16.4zm-18.9-61.8s4.3 5.5 11.4.7 5-15.3 5-15.3 6-3.1 2.6-8.5-16.3-1.2-16.3-1.2zm-31.4-3.2s-12.1.7-14.5-11.8 10.4-14.6 16.9-9.8-2.4 21.6-2.4 21.6z" fill="#025182"/><g fill="#a7c1d1"><path d="m59 73.2c0-2.5 21.8-5.2 29.1-1.1 0 0-4.4 14.4-15.1 15 0 .1-14.1-5-14-13.9z"/><path d="m62 55.5h23.5v24h-23.5z"/><path d="m87.4 26.5c6.1 13.2 4.8 38.6-16.1 38.6s-22.2-25.4-16.1-38.6"/></g><path d="m62 63.7v7.1s12.8-1.3 17.7-7.2l-8.2 1.5z" fill="#86a7be"/><path d="m87.4 26.5c6.1 13.2 4.8 38.6-16.1 38.6s-22.2-25.4-16.1-38.6" style="fill:none;stroke:#045186;stroke-width:2;stroke-linecap:round;stroke-linejoin:round;stroke-miterlimit:10"/><path d="m70.4 52.3c.4.1.8-.2.9-.6.3-1.5.3-2.9.3-4.4-.1-1.5-.2-2.9-.5-4.4 0-.2-.2-.3-.5-.4-.3 0-.5.1-.6.4-.3 1.5-.4 2.9-.5 4.4 0 1.5 0 2.9.3 4.4.1.3.3.5.6.6zm17.3 20.1c-1.4 3.4-2.8 6.7-5.1 9.4s-5.6 4.3-9 4.2c-1.7 0-3.4-.4-4.9-1-1.5-.7-2.9-1.8-4-3.1-1.2-1.3-2.1-2.8-2.9-4.4s-1.2-3.3-2.2-4.9c-.2-.3-.4-.4-.6-.2-.4 0-.7.3-.7.7 0 2 .8 3.7 1.7 5.5.8 1.7 1.8 3.4 3.2 4.9 1.2 1.5 2.8 2.8 4.6 3.6.9.4 1.8.8 2.8 1s2 .3 3 .3c2 0 4-.4 5.9-1.6 1.9-.9 3.4-2.2 4.7-3.8 2.5-3 3.9-6.7 4.2-10.5 0-.1-.1-.2-.2-.3-.2-.1-.4 0-.5.2z" fill="#025182"/><path d="m62.4 47.3c-.9 0-1.6-.7-1.6-1.5v-2.5c0-.8.7-1.5 1.5-1.5h.1c.8 0 1.5.7 1.5 1.5v2.5c0 .8-.7 1.5-1.5 1.5zm16.2 0c-.9 0-1.6-.7-1.6-1.5v-2.5c0-.8.7-1.5 1.5-1.5h.1c.8 0 1.5.7 1.5 1.5v2.5c0 .8-.7 1.5-1.5 1.5z" fill="#045186"/><path d="m68.2 56c.8.5 1.7.8 2.7.8s1.9-.2 2.6-.9h.1c.3-.3.7-.2 1 0 .2.2.2.5.1.7-.3.7-.9 1.3-1.6 1.7s-1.4.5-2.2.5c-.7 0-1.5-.1-2.1-.5-.7-.3-1.3-.8-1.7-1.5-.2-.3 0-.7.3-.9.3-.1.5-.1.8.1zm-4.6-19.2h-1.3c-.5 0-1 .1-1.5.1-1 .1-2 .4-2.8.8h-.1c-.3.2-.7 0-.9-.3-.1-.2-.1-.5.1-.7.4-.6 1-1 1.6-1.2.6-.3 1.2-.4 1.8-.5s1.2-.1 1.9-.1c.6.1 1.3.2 2 .8.3.2.3.6.1.9-.1.2-.3.2-.5.2zm11.9-1.1c.7-.6 1.3-.7 2-.8.6-.1 1.3 0 1.9.1s1.2.3 1.8.5c.6.3 1.2.7 1.6 1.2.2.3.2.7-.1.9-.2.2-.5.2-.7.1h-.1c-.8-.4-1.8-.6-2.8-.8-.5-.1-1-.1-1.5-.1h-1.6c-.4 0-.7-.2-.7-.6-.1-.1 0-.3.2-.5z" fill="#025182"/><path d="m64.4 48.9h-6c-1.5 0-2.8-1.4-2.9-3.2l-.3-3.7c-.1-.9.5-1.7 1.3-1.7h9.9c.8 0 1.3.8 1.3 1.7l-.3 3.7c-.3 1.8-1.5 3.2-3 3.2zm17.6 0h-6c-1.5 0-2.8-1.4-2.9-3.2l-.3-3.7c-.1-.9.5-1.7 1.3-1.7h9.9c.8 0 1.3.8 1.3 1.7l-.3 3.7c-.2 1.8-1.5 3.2-3 3.2zm-14.4-7h5.1" style="fill:none;stroke:#f6f6f6;stroke-width:2;stroke-linecap:round;stroke-linejoin:round;stroke-miterlimit:10"/><path d="m54.8 19.2c1 13.2 7.8 26.7 35.7 25.3 0 0 7-28.4-14.8-29.4" fill="#025182"/><path d="m48.2 25.3s-17.8 13.5 18.3 13.4c48.4-.1 29.3-13.8 29.3-13.8z" fill="#0985c2"/><path d="m47.9 28.9s3.4-26.7 24.8-25.9c24.3.9 23.9 26.5 23.9 26.5" fill="#0985c2"/><path d="m47.7 28.9c.3-3.3 1.1-6.6 2.3-9.7s2.8-6.2 4.9-8.8 4.8-4.9 8-6.3c3.1-1.4 6.6-2 10-1.8s6.8.8 9.9 2.2c1.6.7 3 1.6 4.4 2.6s2.6 2.3 3.7 3.6c2.1 2.7 3.7 5.8 4.6 9 1 3.2 1.4 6.6 1.4 9.9h-.6c-.2-3.3-.8-6.5-1.9-9.6s-2.5-6-4.6-8.4c-1-1.2-2.2-2.3-3.5-3.3-1.3-.9-2.7-1.8-4.1-2.4-2.9-1.3-6.1-1.9-9.4-2-3.2-.1-6.4.3-9.3 1.6s-5.4 3.3-7.5 5.8-3.7 5.3-5 8.3c-.7 1.5-1.2 3-1.7 4.6s-.9 3.2-1.3 4.8z" fill="#025182"/><path d="m51.5 26.7s8.3-6.4 10.6-11.6 5.3-14.4 9.1-14 2.3 11.5 6.5 17c3 3.9 8.9 9.3 8.9 9.3" fill="#0985c2"/><path d="m51.4 26.6c2-1.8 3.9-3.7 5.7-5.7s3.5-4 4.5-6.4c1-2.5 2-5 3.1-7.5.6-1.2 1.2-2.5 2-3.7.4-.6.8-1.2 1.4-1.7.5-.5 1.2-1 2.1-1.3.4-.1.9-.1 1.4 0s.9.4 1.3.7c.7.7.9 1.4 1.2 2.1.5 1.4.7 2.7.9 4.1.4 2.7.9 5.3 1.8 7.8.5 1.2 1 2.3 1.9 3.3.8 1 1.7 2.1 2.6 3.1 1.8 2 3.7 3.9 5.6 5.8l-.4.4c-2.1-1.7-4.1-3.6-6-5.5-1-1-1.9-2-2.8-3s-1.7-2.3-2.2-3.6c-1.1-2.6-1.5-5.4-2-8-.2-1.3-.5-2.6-.9-3.8-.2-.6-.5-1.1-.8-1.4-.2-.2-.3-.2-.5-.3h-.6c-.9.2-1.8 1.2-2.5 2.3s-1.3 2.2-1.9 3.4c-1.2 2.4-2.2 4.9-3.3 7.4-1.2 2.6-3.1 4.7-5 6.6-2 1.9-4.1 3.6-6.3 5.2z" fill="#025182"/><path d="m50.5 30.1c3.1-1 6.3-1.6 9.5-1.9l4.8-.3c1.6 0 3.2-.1 4.8 0 1.6 0 3.2.2 4.8.3 1.6.2 3.2.3 4.8.7 3.2.5 6.3 1.4 9.3 2.5l-.2.6c-3.1-.6-6.2-1.2-9.4-1.6-1.6-.2-3.1-.4-4.7-.5s-3.2-.2-4.7-.2c-3.2-.1-6.3-.1-9.5.1s-6.3.4-9.5.7z" fill="#025182"/><path d="m105.2 160.9c.1 1.2-.4 2.5-1.1 3.5s-1.7 1.8-2.8 2.4-2.3.9-3.5 1.1c-.6.1-1.2.1-1.8.2-.6 0-1.2 0-1.8-.1v-.4c.6-.1 1.2-.2 1.7-.3l1.7-.4c1.1-.3 2.2-.6 3.1-1.2 1-.5 1.9-1.2 2.6-2s1.3-1.8 1.7-2.9z" fill="#0985c2"/><path d="m56.6 73.2c-.3 2.3-.8 4.5-1.4 6.6-.3 1.1-.6 2.1-.9 3.2s-.6 2.1-.8 3.2c-.5 2.1-1 4.2-1.2 6.4-.3 2.1-.4 4.2-.3 6.4l-1.2.3c-1.1-2.1-1.5-4.6-1.5-7s.3-4.7.8-7 1.3-4.5 2.2-6.6c.4-1.1 1-2.1 1.6-3.1s1.3-1.9 2.2-2.8z" fill="#025182"/><path d="m91 72.3c1 .9 1.7 2 2.3 3.1s1.1 2.3 1.5 3.5c.8 2.4 1.4 4.8 1.8 7.2.4 2.5.6 4.9.8 7.4.1 2.5.1 4.9-.3 7.4l-1.1.1c-.4-1.2-.6-2.4-.8-3.6l-.6-3.6c-.4-2.4-.8-4.8-1.2-7.1-.4-2.4-.8-4.7-1.4-7-.5-2.3-1-4.6-1.4-7.1z" fill="#025182"/><path d="m100.6 91.8s-1.9 4.6-1.1 14.4c1.3 15.6 6.8 22.9 6.8 22.9l2.4-14.1-3.2-26.1z" fill="#0985c2"/><path d="m99.5 134.9c-3.3 10.2-2.9 14.1-2.9 14.1s3.4 2.1 7.9 2.8 10.1-10.5 10.1-10.5l-6.3-20.2s-6.2 5.8-8.8 13.8z" fill="#0985c2"/><path d="m39.3 98.6c.1-.5-.2-1-.5-1.3-.3-.4-.6-.7-1-1-.3-.3-.7-.6-1.1-.9l-.6-.4c-.2-.2-.3-.3-.7-.2-.2.1-.4.4-.5.6v.1c.1.4.3.4.5.6l.5.4c.4.3.7.6 1 .9l.9.9c.3.2.6.6 1.1.7h.1c.2-.1.3-.2.3-.4z" fill="#025182"/></svg>