<svg width="199" height="200" viewBox="0 0 199 200" fill="none" xmlns="http://www.w3.org/2000/svg">
<path d="M171.03 83.9385C170.793 84.4676 170.814 85.0768 171.088 85.5877C171.363 86.0987 171.858 86.4536 172.43 86.5485L188.43 90.0585C189.729 90.3372 191.048 89.6819 191.61 88.4785C191.847 87.9495 191.826 87.3403 191.552 86.8294C191.278 86.3184 190.782 85.9635 190.21 85.8685L174.21 82.3585C172.915 82.1063 171.615 82.7766 171.07 83.9785L171.03 83.9385Z" fill="white" stroke="#C8D6DB" stroke-width="2" stroke-linecap="round" stroke-linejoin="round"/>
<path d="M171.03 83.9385C170.793 84.4676 170.814 85.0768 171.088 85.5877C171.363 86.0987 171.858 86.4536 172.43 86.5485L188.43 90.0585C189.729 90.3372 191.048 89.6819 191.61 88.4785C191.847 87.9495 191.826 87.3403 191.552 86.8294C191.278 86.3184 190.782 85.9635 190.21 85.8685L174.21 82.3585C172.915 82.1063 171.615 82.7766 171.07 83.9785L171.03 83.9385Z" fill="white" stroke="#CCCED0" stroke-width="2" stroke-linecap="round" stroke-linejoin="round"/>
<path d="M172.02 129.859H114.89C110.96 129.859 107.717 126.783 107.51 122.859L109.44 86.6185C109.325 84.5886 110.05 82.6008 111.447 81.123C112.843 79.6452 114.787 78.808 116.82 78.8085H173.94C177.87 78.8084 181.113 81.8841 181.32 85.8085L179.39 122.049C179.506 124.077 178.781 126.063 177.387 127.54C175.993 129.018 174.052 129.856 172.02 129.859V129.859Z" fill="white" stroke="#CCCED0" stroke-width="2" stroke-linecap="round" stroke-linejoin="round"/>
<path d="M169.64 148.539C171.34 131.539 176.95 119.039 183.64 119.039C191.64 119.039 198.14 137.099 198.14 159.379C198.14 181.659 191.65 199.719 183.64 199.719" fill="white"/>
<path d="M169.64 148.539C171.34 131.539 176.95 119.039 183.64 119.039C191.64 119.039 198.14 137.099 198.14 159.379C198.14 181.659 191.65 199.719 183.64 199.719" stroke="#CCCED0" stroke-width="2" stroke-linecap="round" stroke-linejoin="round"/>
<path d="M128.28 48.4785V44.4785C123.2 45.3485 118.69 45.7785 114.75 44.4785C110.81 43.1785 120.95 48.5985 128.28 48.4785Z" fill="#CCCED0"/>
<rect x="113.62" y="25.9386" width="2.46" height="4.38" rx="1.23" fill="#204A69"/>
<path d="M117.24 21.6385L117.03 21.5485H116.62C116.092 21.4907 115.561 21.4639 115.03 21.4685C114.496 21.47 113.964 21.5236 113.44 21.6285C113.277 21.6562 113.117 21.6963 112.96 21.7485L112.79 21.8085H112.7C112.448 21.8683 112.191 21.725 112.11 21.4785C112.066 21.3133 112.107 21.1368 112.22 21.0085C112.457 20.7713 112.735 20.5782 113.04 20.4385C113.333 20.3051 113.638 20.198 113.95 20.1185C114.303 20.0503 114.661 20.0068 115.02 19.9885C115.378 19.9687 115.737 19.9888 116.09 20.0485C116.409 20.099 116.721 20.1862 117.02 20.3085C117.149 20.3573 117.272 20.4175 117.39 20.4885C117.51 20.5585 117.63 20.6485 117.71 20.7085C117.768 20.7642 117.822 20.8244 117.87 20.8885C117.95 21.0006 117.982 21.1404 117.957 21.276C117.933 21.4116 117.854 21.5316 117.74 21.6085C117.59 21.7034 117.401 21.7148 117.24 21.6385V21.6385Z" fill="#204A69"/>
<path d="M142.36 29.0885C141.8 22.7285 143.93 19.7185 140.67 10.5285C138.61 4.72855 128.6 -1.94145 118.31 0.528548C107.19 2.04855 102.47 12.0885 102.47 23.3885C102.47 38.5185 93.3101 38.1085 93.3101 48.7085C93.3101 59.3085 100.64 60.9085 100.64 60.9085C103.092 61.2697 105.591 61.1371 107.99 60.5185V55.2585C110.887 54.9123 113.173 52.634 113.53 49.7385L114.18 44.4785C107.98 43.4186 106.3 24.8185 106.3 24.8185C118.18 25.6185 120.79 16.8185 123.49 11.5685C125.163 14.3129 127.37 16.6933 129.98 18.5685C136.75 23.6485 136.18 32.9985 133.36 38.3085C130.7 43.3085 127.7 43.9085 127.7 43.9085L127.9 49.8285C127.989 52.4671 129.957 54.6622 132.57 55.0385L133.92 55.2285V60.6185H139.4C139.4 60.6185 144.76 57.9685 147.4 50.2785C150.04 42.5885 142.7 32.9785 142.36 29.0885V29.0885Z" fill="#95ADC1"/>
<path d="M106.86 24.4786L106.94 26.9886C107 27.7786 107.04 28.7286 107.15 29.8286L107.35 31.5686L107.67 33.4686C107.81 34.1186 107.98 34.7986 108.16 35.4686C108.37 36.1704 108.624 36.8585 108.92 37.5286C109.512 38.9637 110.421 40.2459 111.58 41.2786C112.822 42.3762 114.305 43.1643 115.91 43.5786C117.607 44.0317 119.354 44.2703 121.11 44.2886H122.42L123.78 44.2186C124.214 44.1992 124.645 44.1457 125.07 44.0586C125.489 44.0084 125.903 43.9282 126.31 43.8186C127.908 43.4594 129.377 42.6711 130.56 41.5386C131.651 40.4472 132.469 39.1147 132.95 37.6486C133.427 36.3004 133.762 34.9062 133.95 33.4886C134.15 32.1586 134.23 30.9186 134.31 29.8286C134.39 28.7386 134.42 27.7686 134.44 26.9686L134.5 24.4686C134.5 24.1924 134.724 23.9686 135 23.9686C135.276 23.9686 135.5 24.1924 135.5 24.4686V29.8886C135.475 31.1523 135.385 32.414 135.23 33.6686C135.053 35.1826 134.717 36.6741 134.23 38.1186C133.708 39.8012 132.785 41.3318 131.54 42.5786C130.18 43.9019 128.487 44.8316 126.64 45.2686C126.177 45.3949 125.706 45.4884 125.23 45.5486C124.765 45.6422 124.294 45.7023 123.82 45.7286L122.46 45.7886H121.03C119.151 45.7596 117.283 45.4942 115.47 44.9986C113.659 44.5139 111.987 43.6095 110.59 42.3586C109.303 41.1751 108.301 39.7151 107.66 38.0886C107.353 37.359 107.093 36.6109 106.88 35.8486C106.7 35.1086 106.54 34.3986 106.4 33.7086L106.11 31.7086L105.96 29.9186C105.88 28.7986 105.87 27.8086 105.83 26.9986V24.4886C105.83 24.2124 106.054 23.9886 106.33 23.9886C106.606 23.9886 106.83 24.2124 106.83 24.4886L106.86 24.4786Z" fill="#204A69"/>
<path d="M122.4 26.1085C122.4 26.1085 122.5 26.5385 122.59 27.1785C122.694 27.958 122.758 28.7424 122.78 29.5285C122.805 30.3124 122.784 31.097 122.72 31.8785C122.692 32.2374 122.645 32.5945 122.58 32.9485C122.543 33.2212 122.31 33.4246 122.035 33.4246C121.76 33.4246 121.527 33.2212 121.49 32.9485C121.425 32.5945 121.378 32.2374 121.35 31.8785C121.286 31.097 121.266 30.3124 121.29 29.5285C121.312 28.7424 121.376 27.958 121.48 27.1785C121.57 26.5385 121.67 26.1085 121.67 26.1085C121.718 25.9411 121.871 25.8257 122.045 25.8257C122.219 25.8257 122.372 25.9411 122.42 26.1085H122.4Z" fill="#204A69"/>
<rect x="127.72" y="25.9386" width="2.46" height="4.38" rx="1.23" fill="#204A69"/>
<path fill-rule="evenodd" clip-rule="evenodd" d="M125.96 20.6585C125.902 20.7142 125.849 20.7744 125.8 20.8385L125.78 20.8485C125.64 21.0351 125.644 21.2929 125.791 21.4746C125.937 21.6563 126.188 21.7156 126.4 21.6185L126.61 21.5285H127.02C127.548 21.4707 128.079 21.444 128.61 21.4485C129.144 21.45 129.677 21.5036 130.2 21.6085C130.363 21.6361 130.523 21.6763 130.68 21.7285L130.85 21.7885H130.95C131.169 21.8544 131.405 21.7635 131.522 21.5678C131.64 21.372 131.611 21.1212 131.45 20.9585C131.213 20.7213 130.935 20.5282 130.63 20.3885C130.337 20.2551 130.032 20.148 129.72 20.0685C129.367 20.0003 129.009 19.9569 128.65 19.9385C128.292 19.9187 127.933 19.9388 127.58 19.9985C127.261 20.049 126.949 20.1362 126.65 20.2585C126.522 20.3073 126.398 20.3675 126.28 20.4385C126.16 20.5085 126.04 20.5985 125.96 20.6585ZM119.23 36.8085L118.95 36.6985C118.74 36.6222 118.505 36.6911 118.37 36.8685C118.282 36.9719 118.239 37.1059 118.251 37.241C118.262 37.3761 118.326 37.5012 118.43 37.5885L118.66 37.7885C118.74 37.8485 118.88 37.9285 119.02 38.0085C119.168 38.0923 119.322 38.1658 119.48 38.2285C120.284 38.539 121.138 38.6983 122 38.6985C122.455 38.6987 122.909 38.6686 123.36 38.6085C123.765 38.5408 124.163 38.437 124.55 38.2985C124.837 38.1804 125.108 38.0294 125.36 37.8485L125.64 37.5985C125.811 37.4401 125.847 37.1832 125.725 36.9842C125.604 36.7852 125.359 36.6992 125.14 36.7785H125.01L124.8 36.8685C124.598 36.9413 124.391 36.9981 124.18 37.0385C123.47 37.1545 122.749 37.198 122.03 37.1685C121.303 37.1404 120.578 37.0669 119.86 36.9485C119.768 36.9262 119.686 36.9039 119.613 36.8838C119.457 36.841 119.339 36.8085 119.23 36.8085Z" fill="#204A69"/>
<path d="M172.29 103.759C172.29 103.759 168.61 61.4685 134.59 55.2585C134.59 55.2585 129.12 63.1585 120.59 63.1585C112.06 63.1585 107.82 55.2585 107.82 55.2585C73.8201 65.9685 75.6401 104.319 75.6401 104.319H96.8601L96.2901 137.029H151.57L150.11 104.209L172.29 103.759Z" fill="#46799A"/>
<path d="M121.18 71.0885C121.887 71.0885 122.46 70.5155 122.46 69.8085C122.46 69.1016 121.887 68.5285 121.18 68.5285C120.473 68.5285 119.9 69.1016 119.9 69.8085C119.9 70.5155 120.473 71.0885 121.18 71.0885Z" fill="#95ADC1"/>
<path d="M111.92 103.189H108.54C102.9 103.189 101.77 84.0186 101.77 84.0186H119.25C119.25 84.0186 117 103.189 111.92 103.189V103.189Z" fill="white"/>
<path d="M154.78 139.279C135.61 139.279 128.28 107.139 128.28 107.139C125.864 106.639 123.566 105.682 121.51 104.319C118.51 102.319 118.13 98.1185 118.13 98.1185C115.298 97.885 112.447 98.0738 109.67 98.6785C108.34 99.0185 107.98 98.1185 107.41 96.4185C106.84 94.7185 107.97 92.4685 110.79 91.9085C120.79 86.2685 123.54 90.2285 125.45 91.9085C129.96 95.8585 151.95 113.339 151.95 113.339" fill="white"/>
<path fill-rule="evenodd" clip-rule="evenodd" d="M115.11 36.8386C115.097 36.9348 115.097 37.0323 115.11 37.1286L115.54 37.2986C115.622 37.2423 115.696 37.175 115.76 37.0986C115.888 36.9464 115.989 36.774 116.06 36.5886C116.125 36.4017 116.162 36.2063 116.17 36.0086C116.181 35.9122 116.181 35.8149 116.17 35.7186L115.73 35.5486C115.653 35.6072 115.582 35.6743 115.52 35.7486C115.395 35.9027 115.294 36.0746 115.22 36.2586C115.152 36.4445 115.114 36.6405 115.11 36.8386ZM128.43 37.0986C128.494 37.175 128.568 37.2423 128.65 37.2986L129.08 37.1286C129.093 37.0323 129.093 36.9348 129.08 36.8386C129.076 36.6405 129.039 36.4445 128.97 36.2586C128.896 36.0746 128.795 35.9027 128.67 35.7486C128.608 35.6743 128.537 35.6072 128.46 35.5486L128.02 35.7186C128.009 35.8149 128.009 35.9122 128.02 36.0086C128.028 36.2063 128.065 36.4017 128.13 36.5886C128.201 36.774 128.302 36.9464 128.43 37.0986Z" fill="#C8D6DB"/>
<path d="M130.54 113.349L139.56 104.889" stroke="#CCCED0" stroke-linecap="round" stroke-linejoin="round"/>
<path d="M57.0001 133.079H100.42C102.602 133.079 104.37 134.847 104.37 137.029H57.0001V133.079V133.079Z" fill="#BBC9D5"/>
<path d="M73.9001 137.029H8.65007L2.87007 95.2186C2.61545 93.3931 3.16398 91.5469 4.37401 90.1566C5.58404 88.7663 7.33695 87.9682 9.18007 87.9686H61.5501C64.7318 87.9687 67.4255 90.3166 67.8601 93.4686L73.9001 137.029Z" fill="#BBC9D5"/>
<path d="M162.68 137.029H181.03V150.189" fill="white"/>
<path d="M162.68 136.609C165.718 136.155 168.788 135.947 171.86 135.989C174.92 135.929 177.98 135.929 181.04 135.989C181.606 136.021 182.046 136.492 182.04 137.059L181.97 143.639C181.97 144.739 181.97 145.829 181.87 146.929C181.77 148.029 181.75 149.119 181.63 150.219C181.589 150.554 181.304 150.807 180.965 150.807C180.627 150.807 180.341 150.554 180.3 150.219C180.18 149.119 180.12 148.029 180.06 146.929C180 145.829 179.99 144.739 179.96 143.639L179.89 137.059L180.96 138.129C177.9 138.169 174.84 138.169 171.78 138.129C168.708 138.17 165.638 137.962 162.6 137.509C162.403 137.465 162.262 137.29 162.262 137.089C162.262 136.887 162.403 136.712 162.6 136.669L162.68 136.609Z" fill="#CCCED0"/>
<path fill-rule="evenodd" clip-rule="evenodd" d="M166.94 131.649L162.68 133.149L151.28 131.819L153.45 124.979L162.68 123.319L168.81 126.989L166.94 131.649ZM0.760071 137.029V150.189L145.76 137.029H0.760071Z" fill="white"/>
<path d="M0.340072 150.189L0.140072 143.609C0.0600717 141.419 0.0400717 139.219 7.16674e-05 137.029C-0.00554585 136.618 0.319773 136.279 0.730072 136.269C6.73007 136.129 12.8101 136.119 18.8501 136.049L36.9701 135.999L73.2201 135.949L109.47 136.029L127.6 136.149L136.66 136.219L145.72 136.369C146.056 136.41 146.308 136.695 146.308 137.034C146.308 137.372 146.056 137.657 145.72 137.699L136.66 137.849L127.6 137.919L109.48 138.039L73.2301 138.119L36.9801 138.069L18.8601 138.019C12.8601 137.949 6.78007 137.939 0.740072 137.799L1.50007 137.039C1.50007 139.229 1.43007 141.429 1.36007 143.619L1.16007 150.199C1.16007 150.431 0.972031 150.619 0.740072 150.619C0.508112 150.619 0.320072 150.431 0.320072 150.199L0.340072 150.189Z" fill="#CCCED0"/>
<path d="M110.06 91.6286L110.5 91.2686C110.924 90.9209 111.372 90.6034 111.84 90.3186C112.174 90.0948 112.525 89.8975 112.89 89.7286C113.309 89.5092 113.743 89.322 114.19 89.1686C115.27 88.7708 116.402 88.5284 117.55 88.4486C118.922 88.3526 120.301 88.4844 121.63 88.8386C123.146 89.2271 124.573 89.9063 125.83 90.8386L129.36 93.7486L133 96.7486L146.4 107.749C150.05 110.749 152.4 112.889 152.4 112.889C152.581 113.136 152.571 113.476 152.375 113.712C152.179 113.948 151.847 114.021 151.57 113.889C151.57 113.889 148.95 112.119 145.22 109.219C143.34 107.789 141.22 106.059 138.87 104.219L131.6 98.4786L127.96 95.4786C126.77 94.4786 125.55 93.4786 124.5 92.5486C123.484 91.765 122.326 91.1845 121.09 90.8386C119.962 90.5172 118.793 90.3589 117.62 90.3686C116.611 90.3714 115.605 90.4854 114.62 90.7086C113.852 90.877 113.096 91.1009 112.36 91.3786C111.864 91.5503 111.38 91.7541 110.91 91.9886L110.38 92.2186C110.227 92.2779 110.053 92.2193 109.968 92.0794C109.882 91.9395 109.908 91.7582 110.03 91.6486L110.06 91.6286Z" fill="#204A69"/>
<path fill-rule="evenodd" clip-rule="evenodd" d="M108.18 92.8785L107.74 93.1685L107.8 93.1785C107.557 93.3111 107.468 93.6155 107.6 93.8585C107.733 94.1016 108.037 94.1911 108.28 94.0585L108.76 93.8485C108.847 93.8023 108.944 93.7694 109.047 93.7344C109.122 93.7089 109.2 93.6823 109.28 93.6485C109.382 93.6056 109.504 93.5713 109.634 93.5348C109.746 93.5033 109.864 93.4702 109.98 93.4285C111.266 93.0887 112.59 92.9074 113.92 92.8885C114.65 92.8785 115.38 92.8985 116.06 92.9585C116.74 93.0185 117.38 93.0785 117.92 93.1785C118.084 93.2089 118.241 93.2365 118.388 93.2625C118.726 93.322 119.014 93.3729 119.23 93.4285L119.73 93.5285C119.983 93.5849 120.237 93.4384 120.316 93.1911C120.394 92.9438 120.27 92.6778 120.03 92.5785L119.53 92.3585C119.088 92.174 118.633 92.0203 118.17 91.8985C116.761 91.5088 115.301 91.3401 113.84 91.3985C113.058 91.4269 112.279 91.5139 111.51 91.6585C110.829 91.7955 110.161 91.9861 109.51 92.2285C109.443 92.2574 109.377 92.2851 109.312 92.3122C109.107 92.3978 108.917 92.4774 108.75 92.5685C108.671 92.6115 108.594 92.6519 108.52 92.6903C108.389 92.7589 108.27 92.8208 108.18 92.8785ZM107.81 95.2085L108.29 94.9985C108.731 94.8158 109.181 94.6589 109.64 94.5285C110.297 94.3471 110.965 94.2101 111.64 94.1185C112.407 94.0269 113.178 93.9868 113.95 93.9985C114.721 94.0102 115.491 94.0837 116.25 94.2185C116.927 94.3298 117.595 94.4869 118.25 94.6885C118.702 94.8226 119.146 94.9828 119.58 95.1685L120.07 95.3885C120.322 95.4815 120.456 95.7573 120.373 96.0129C120.289 96.2685 120.019 96.4123 119.76 96.3385L119.26 96.2285C119.052 96.175 118.777 96.1214 118.456 96.0588L118.456 96.0588L118.456 96.0588C118.298 96.0279 118.128 95.9949 117.95 95.9585C116.63 95.7067 115.293 95.553 113.95 95.4985C112.611 95.4511 111.27 95.5449 109.95 95.7785L109.88 95.7913L109.88 95.7913C109.362 95.8854 108.938 95.9624 108.67 96.0485L108.16 96.1785C107.909 96.2429 107.65 96.1045 107.564 95.8598C107.478 95.6151 107.594 95.3453 107.83 95.2385L107.81 95.2085ZM108.83 98.0685C109.152 97.8587 109.486 97.6684 109.83 97.4985C110.213 97.3122 110.611 97.1583 111.02 97.0385C111.815 96.7809 112.637 96.6198 113.47 96.5585C114.3 96.4898 115.134 96.5066 115.96 96.6085C116.37 96.6585 116.78 96.7285 117.19 96.8185L117.8 96.9685L117.89 96.994C118.066 97.0438 118.235 97.0915 118.44 97.1685C118.784 97.2974 119.03 97.6046 119.08 97.9685V98.0185C119.08 98.2062 119.138 98.452 119.193 98.6816L119.193 98.6816C119.202 98.7212 119.211 98.7603 119.22 98.7985C119.28 99.0585 119.35 99.3385 119.43 99.6085C119.592 100.136 119.799 100.648 120.05 101.139C120.291 101.612 120.586 102.055 120.93 102.459C121.095 102.656 121.275 102.84 121.47 103.009C121.658 103.173 121.855 103.327 122.06 103.469L122.092 103.489C122.334 103.644 122.6 103.814 122.82 103.939C122.877 103.971 122.936 104.004 122.995 104.039C123.175 104.142 123.365 104.251 123.56 104.349C124.07 104.619 124.56 104.859 125.13 105.079L125.241 105.121L125.241 105.121C125.767 105.325 126.246 105.51 126.76 105.669L127.59 105.909C127.86 105.979 128.16 106.049 128.39 106.089C128.812 106.164 129.15 106.482 129.25 106.899C129.65 108.559 130.17 110.259 130.71 111.899C131.25 113.539 131.87 115.209 132.53 116.829C133.833 120.067 135.415 123.185 137.26 126.149C139.045 129.093 141.279 131.742 143.88 133.999C146.419 136.208 149.546 137.629 152.88 138.089C153.097 138.089 153.317 138.114 153.537 138.139L153.537 138.139C153.732 138.161 153.927 138.184 154.12 138.189H155.39C156.208 138.153 157.021 138.045 157.82 137.869C159.41 137.504 160.901 136.798 162.19 135.799C164.77 133.614 166.655 130.722 167.61 127.479C168.645 124.161 169.316 120.741 169.61 117.279C169.8 115.539 169.91 113.779 169.96 112.019C170.01 110.259 170.04 108.489 169.96 106.729C169.944 106.546 170.078 106.385 170.26 106.369C170.442 106.352 170.604 106.486 170.62 106.669C170.906 108.44 171.096 110.226 171.19 112.019C171.27 113.809 171.28 115.609 171.19 117.409C171.076 121.043 170.474 124.645 169.4 128.119C168.839 129.886 168.077 131.584 167.13 133.179C166.167 134.821 164.913 136.275 163.43 137.469C161.908 138.664 160.144 139.514 158.26 139.959C157.324 140.173 156.37 140.303 155.41 140.349H154.11C153.64 140.349 153.17 140.299 152.7 140.249C150.82 140.031 148.987 139.514 147.27 138.719C145.571 137.927 143.981 136.918 142.54 135.719C139.743 133.333 137.343 130.518 135.43 127.379C133.531 124.296 131.905 121.054 130.57 117.689C129.903 116.015 129.287 114.322 128.72 112.609C128.229 111.1 127.784 109.608 127.392 108.05C127.322 108.033 127.25 108.016 127.177 107.999L127.09 107.979L126.16 107.709C125.55 107.519 124.94 107.289 124.35 107.039C123.76 106.789 123.18 106.519 122.61 106.209C122.33 106.059 122.04 105.899 121.76 105.729C121.584 105.622 121.424 105.519 121.262 105.415L121.262 105.415C121.166 105.353 121.07 105.292 120.97 105.229C120.672 105.024 120.388 104.801 120.12 104.559C119.857 104.325 119.613 104.071 119.39 103.799C118.947 103.268 118.568 102.687 118.26 102.069C117.959 101.468 117.712 100.842 117.52 100.199L117.52 100.199L117.52 100.199C117.43 99.8785 117.34 99.5585 117.27 99.1985C117.247 99.095 117.225 98.9911 117.205 98.8869L116.78 98.7785C116.43 98.6985 116.08 98.6385 115.73 98.5985C115.38 98.5585 115.02 98.5185 114.66 98.4985C114.42 98.4852 114.185 98.4896 113.949 98.4941H113.949C113.83 98.4963 113.71 98.4985 113.59 98.4985C113.23 98.4985 112.88 98.4985 112.52 98.5585C112.379 98.5821 112.239 98.5995 112.1 98.6168H112.1C111.885 98.6435 111.673 98.6699 111.46 98.7185C111.349 98.744 111.238 98.7685 111.129 98.7926C110.896 98.8442 110.671 98.894 110.46 98.9485C110.305 98.9885 110.125 99.0485 109.938 99.111C109.75 99.1735 109.555 99.2385 109.37 99.2885C109.042 99.383 108.696 99.2163 108.566 98.9014C108.435 98.5864 108.562 98.2236 108.86 98.0585L108.83 98.0685Z" fill="#204A69"/>
<path d="M113.96 32.1485V31.5835C113.953 31.5835 113.947 31.5837 113.94 31.5839L113.96 32.1485ZM109.54 28.2785L108.977 28.323L108.978 28.3335L109.54 28.2785ZM109.45 27.1385L108.886 27.1661C108.886 27.1717 108.886 27.1774 108.887 27.183L109.45 27.1385ZM112.4 24.2285L112.365 24.7924C112.37 24.7928 112.375 24.793 112.38 24.7932L112.4 24.2285ZM115.86 24.3485L115.84 24.9132C115.845 24.9134 115.85 24.9135 115.855 24.9135L115.86 24.3485ZM119.35 27.9185L119.914 27.9524C119.915 27.9438 119.915 27.9352 119.915 27.9266L119.35 27.9185ZM129.59 32.6885L129.646 32.1262L129.636 32.1254L129.59 32.6885ZM134.28 29.1285L134.837 29.2263L134.839 29.2126L134.28 29.1285ZM134.45 27.9985L135.009 28.0826C135.01 28.0778 135.01 28.073 135.011 28.0682L134.45 27.9985ZM131.73 24.8985L131.71 25.4632C131.716 25.4634 131.721 25.4635 131.726 25.4635L131.73 24.8985ZM128.27 24.7785L128.239 25.3428L128.25 25.3432L128.27 24.7785ZM124.53 28.0985L123.966 28.0628C123.966 28.0719 123.965 28.0809 123.965 28.09L124.53 28.0985ZM114.82 31.5835H113.96V32.7135H114.82V31.5835ZM113.94 31.5839C111.974 31.6528 110.294 30.1813 110.102 28.2236L108.978 28.3335C109.227 30.8852 111.418 32.803 113.98 32.7132L113.94 31.5839ZM110.103 28.2341L110.013 27.0941L108.887 27.183L108.977 28.323L110.103 28.2341ZM110.014 27.111C109.984 26.4816 110.223 25.8688 110.671 25.4262L109.878 24.6218C109.2 25.2901 108.839 26.2155 108.886 27.1661L110.014 27.111ZM110.671 25.4262C111.12 24.9837 111.736 24.7532 112.365 24.7924L112.435 23.6646C111.485 23.6053 110.555 23.9534 109.878 24.6218L110.671 25.4262ZM112.38 24.7932L115.84 24.9132L115.88 23.7839L112.42 23.6639L112.38 24.7932ZM115.855 24.9135C116.642 24.9201 117.394 25.2402 117.943 25.8027L118.751 25.0128C117.991 24.2351 116.952 23.7927 115.865 23.7836L115.855 24.9135ZM117.943 25.8027C118.493 26.3653 118.796 27.1239 118.785 27.9105L119.915 27.9266C119.93 26.8392 119.512 25.7905 118.751 25.0128L117.943 25.8027ZM118.786 27.8847C118.66 29.9754 116.919 31.6013 114.825 31.5836L114.815 32.7135C117.511 32.7363 119.752 30.6435 119.914 27.9524L118.786 27.8847ZM128.684 33.1817L129.544 33.2517L129.636 32.1254L128.776 32.0554L128.684 33.1817ZM129.535 33.2508C132.082 33.5023 134.394 31.7479 134.837 29.2263L133.724 29.0308C133.383 30.9703 131.605 32.3197 129.646 32.1263L129.535 33.2508ZM134.839 29.2126L135.009 28.0826L133.891 27.9145L133.721 29.0445L134.839 29.2126ZM135.011 28.0682C135.128 27.1261 134.836 26.1791 134.21 25.4655L133.361 26.2108C133.774 26.6818 133.967 27.3071 133.889 27.9289L135.011 28.0682ZM134.21 25.4655C133.584 24.752 132.683 24.3401 131.734 24.3336L131.726 25.4635C132.353 25.4678 132.948 25.7398 133.361 26.2108L134.21 25.4655ZM131.75 24.3339L128.29 24.2139L128.25 25.3432L131.71 25.4632L131.75 24.3339ZM128.301 24.2144C126.045 24.0889 124.109 25.8071 123.966 28.0628L125.094 28.1343C125.198 26.498 126.602 25.2516 128.239 25.3427L128.301 24.2144ZM123.965 28.09C123.924 30.7808 126.011 33.026 128.697 33.1826L128.763 32.0545C126.681 31.9331 125.063 30.1928 125.095 28.1071L123.965 28.09Z" fill="#CCCED0"/>
<path d="M119.24 26.1786L124.59 26.3586" stroke="#CCCED0" stroke-width="1.13" stroke-linecap="round" stroke-linejoin="round"/>
<path fill-rule="evenodd" clip-rule="evenodd" d="M128.99 46.5386L128.94 44.5386H128.86C128.819 44.2026 128.534 43.9503 128.195 43.9503C127.857 43.9503 127.571 44.2026 127.53 44.5386L127.48 46.5386L127.42 48.8486V50.3086C127.462 50.9253 127.597 51.5321 127.82 52.1086C128.596 54.1377 130.366 55.6208 132.5 56.0286L134.44 56.4286C137.175 57.0434 139.851 57.8932 142.44 58.9686C145.032 60.0301 147.523 61.3255 149.88 62.8386C151.932 64.1593 153.869 65.6513 155.67 67.2986C156.944 68.4691 158.143 69.7182 159.26 71.0386C160.07 71.9986 160.51 72.5686 160.51 72.5686C160.743 72.8144 161.122 72.848 161.395 72.647C161.667 72.4459 161.746 72.0733 161.58 71.7786L161.28 71.3386C161.243 71.2841 161.202 71.2247 161.159 71.1608C160.971 70.8843 160.725 70.5228 160.4 70.1086C159.322 68.6632 158.136 67.3026 156.85 66.0386C155.038 64.2394 153.052 62.6247 150.92 61.2186C148.484 59.5991 145.891 58.2288 143.18 57.1286C140.472 56.0358 137.675 55.1793 134.82 54.5686C134.16 54.4186 133.47 54.2886 132.82 54.1886C132.292 54.1041 131.784 53.9245 131.32 53.6586C130.453 53.1615 129.774 52.3915 129.39 51.4686C129.226 51.0673 129.112 50.6475 129.05 50.2186V48.8486L128.99 46.5386ZM78.8801 106.719C78.9992 106.935 79.0739 107.173 79.1001 107.419C79.1321 107.701 79.1231 108.07 79.1124 108.501C79.1065 108.742 79.1001 109.003 79.1001 109.279C79.1001 110.819 79.1001 112.869 78.9701 114.909C78.9101 115.909 78.8401 116.909 78.7501 117.909C78.7302 118.13 78.7117 118.343 78.6939 118.55C78.6311 119.276 78.5757 119.917 78.4901 120.509C78.4086 121.124 78.2816 121.732 78.1101 122.329C78.0461 122.564 77.9659 122.794 77.8701 123.019C77.8397 123.084 77.7846 123.134 77.7171 123.158C77.6495 123.183 77.575 123.179 77.5101 123.149C77.4435 123.117 77.3929 123.059 77.3701 122.989C77.3004 122.756 77.2469 122.519 77.2101 122.279C77.1115 121.663 77.0613 121.042 77.0601 120.419C77.0601 119.937 77.0836 119.408 77.1085 118.846C77.1234 118.511 77.1388 118.164 77.1501 117.809C77.1732 117.077 77.2141 116.286 77.2545 115.505L77.2545 115.504C77.2666 115.271 77.2786 115.038 77.2901 114.809L77.4501 111.809L77.5501 109.209C77.5501 108.449 77.5501 107.819 77.6201 107.369C77.6462 107.123 77.721 106.885 77.8401 106.669C77.9243 106.535 78.0584 106.441 78.2125 106.407C78.3665 106.373 78.5277 106.403 78.6601 106.489C78.7528 106.544 78.8288 106.623 78.8801 106.719ZM89.2301 119.849C89.3642 119.964 89.4911 120.088 89.6101 120.219C89.8613 120.503 90.0887 120.807 90.2901 121.129C90.4977 121.44 90.6656 121.776 90.7901 122.129C90.8547 122.297 90.9017 122.471 90.9301 122.649C90.9527 122.862 90.8486 123.07 90.6637 123.179C90.4787 123.289 90.2468 123.281 90.0701 123.159C89.928 123.052 89.7973 122.932 89.6801 122.799C89.4222 122.521 89.2005 122.212 89.0201 121.879C88.8302 121.559 88.6663 121.224 88.5301 120.879C88.4697 120.712 88.4196 120.541 88.3801 120.369C88.3361 120.148 88.4361 119.924 88.6295 119.809C88.8229 119.694 89.0676 119.714 89.2401 119.859L89.2301 119.849Z" fill="#204A69"/>
<path d="M163.95 140.319H174.95V151.319H163.95V140.319Z" fill="white"/>
</svg>
