<svg xmlns="http://www.w3.org/2000/svg" viewBox="0 0 243.383 157.9"><defs><clipPath id="a"><path fill="none" d="M0 0h243.38v157.9H0z"/></clipPath><style>.c{fill:#fff}.d{fill:#c3c4c7}.e{fill:#787c82}.f{fill:#187aa2}.h{fill:#6ab3d0}.m{fill:#004e6e}</style></defs><g clip-path="url(#a)"><path class="c" d="M237.783 138.7l2.3 18.8z"/><path class="d" d="M237.883 138.6a35.6 35.6 0 011 4.7c.2 1.6.5 3.1.6 4.7.3 3.1.7 6.3.8 9.4a.2.2 0 11-.4 0c-.7-3.1-1.1-6.2-1.5-9.4-.2-1.6-.4-3.1-.5-4.7s-.2-3.2-.2-4.7z"/><path class="c" d="M215.783 119.2c-9.4 1.3-17.1 6.1-18 10.5a50.466 50.466 0 01-1.3 5.5"/><path class="d" d="M215.783 119.3a37.193 37.193 0 00-12.6 4.9 11.954 11.954 0 00-4.5 4.7c-.2.5-.3.9-.5 1.5l-.4 1.7a21.29 21.29 0 01-1.1 3.3c0 .1-.2.1-.3.1s-.1-.1-.1-.2c.1-1.1.3-2.3.5-3.4l.3-1.7a16.692 16.692 0 01.5-1.8 12.914 12.914 0 015-5.1 25.62 25.62 0 016.3-2.9 31.43 31.43 0 016.8-1.3c.1 0 .1 0 .1.1.1.1 0 .1 0 .1z"/><path class="c" d="M215.783 128.4a61.715 61.715 0 01.1-10.7l1.1-8.7a7.308 7.308 0 017.1-6.5h11.6a7.311 7.311 0 017.1 8.4l-1.1 8.7a7.414 7.414 0 01-2.2 4.5"/><path class="e" d="M215.683 128.4a60.482 60.482 0 01-.4-8.5 31.255 31.255 0 01.4-4.3l.5-4.2.3-2.1a8.734 8.734 0 01.5-2.2 7.803 7.803 0 012.6-3.6 7.168 7.168 0 014.2-1.5h10.6a16.95 16.95 0 012.2.1 7.72 7.72 0 016.5 5.6 8.329 8.329 0 01.3 2.2 4.102 4.102 0 01-.1 1.1l-.1 1.1-.6 4.2a30.668 30.668 0 01-.7 4.2 7.813 7.813 0 01-2.2 3.7.212.212 0 01-.3-.3 7.418 7.418 0 001.9-3.6c.2-1.3.3-2.8.5-4.2l.5-4.2.1-1.1a3.352 3.352 0 000-1 6.929 6.929 0 00-.3-2 6.764 6.764 0 00-5.7-4.8h-12.6a5.876 5.876 0 00-3.6 1.3 7.031 7.031 0 00-2.3 3.1 5.847 5.847 0 00-.4 1.9l-.3 2.1-.6 4.2c-.2 1.4-.4 2.8-.5 4.2-.2 2.8-.2 5.6-.2 8.4 0 .1 0 .1-.1.1-.1.2-.1.2-.1.1z"/><path class="c" d="M228.683 139.7h-27.8a4.4 4.4 0 010-8.8h27.8a4.375 4.375 0 014.4 4.4 4.313 4.313 0 01-4.4 4.4z"/><path class="d" d="M212.989 140.138c5.231-.057 10.434-.113 15.694-.338a4.375 4.375 0 004.4-2.7 4.965 4.965 0 00-1-5.2 4.523 4.523 0 00-2.4-1.4 25.282 25.282 0 00-2.7-.1l-5.2-.1-20.9-.1a5.037 5.037 0 00-4.6 3.1 4.947 4.947 0 001.1 5.4 4.805 4.805 0 002.5 1.4 8.54 8.54 0 002.034.113c.219-.007.439-.013.666-.013h5.2q2.61-.037 5.206-.062zm19.494-3.238a4.047 4.047 0 01-3.8 2.6v.1c-5.26-.225-10.463-.281-15.694-.338q-2.596-.027-5.206-.062h-5.2a19.292 19.292 0 01-2.5-.1 4.333 4.333 0 01-2-1.1 3.819 3.819 0 01-.8-4.2 4.062 4.062 0 013.6-2.4l20.9-.1 5.2-.1a10.244 10.244 0 001.25.05 10.244 10.244 0 011.25.05 4.273 4.273 0 012.1 1.1 4.349 4.349 0 01.9 4.5z"/><path class="c" d="M241.683 119.6c-9.4 1.3-17.1 6.1-18 10.5s-2.3 9.6-2.3 9.6h18.1z"/><path class="e" d="M240.883 129.5l.9-10a5.283 5.283 0 01-1.3.1l-1 .1c-.35.05-.675.125-1 .2s-.65.15-1 .2c-1.05.242-2.035.55-3.06.87l-.74.23a24.345 24.345 0 00-7.1 3.8 11.493 11.493 0 00-2.8 3 11.918 11.918 0 00-.8 2l-.4 1.9c-.6 2.6-1.2 5.2-1.9 7.7v.1a.645.645 0 00.6.6l18.1-.1a.536.536 0 00.5-.5c.4-3.4.7-6.8 1-10.2zm.2-9.7a3.11 3.11 0 00.4-.1l-1.2 10.1c-.475 3.133-.859 6.265-1.239 9.398l-16.969-.094c.619-2.285 1.163-4.644 1.708-7.004l.4-1.9a5.094 5.094 0 01.7-1.7 9.52 9.52 0 012.5-2.8 27.631 27.631 0 016.7-3.8c1.2-.5 2.4-.9 3.7-1.3.3-.1.625-.175.95-.25s.65-.15.95-.25l1-.2a3.107 3.107 0 01.4-.1zm-19.008 19.304l-.692-.004.5.7q.097-.347.192-.696zm16.969.094l-.061.502.5-.5z"/><path class="c" d="M198.683 138.7l-2.2 18.8z"/><path class="d" d="M198.783 138.7a24.319 24.319 0 01-.2 4.7c-.1 1.6-.3 3.1-.5 4.7-.4 3.1-.8 6.3-1.5 9.4a.2.2 0 01-.4 0c0-3.2.5-6.3.8-9.4.2-1.6.4-3.1.6-4.7a26.284 26.284 0 011-4.7c.1-.1.1-.1.2 0z"/><path class="c" d="M221.283 138.7l-2.3 18.8z"/><path class="e" d="M221.383 138.7a24.319 24.319 0 01-.2 4.7c-.1 1.6-.3 3.1-.5 4.7-.4 3.1-.8 6.3-1.5 9.4a.2.2 0 01-.4 0c0-3.2.5-6.3.8-9.4.2-1.6.4-3.1.6-4.7a26.282 26.282 0 011-4.7c0-.1.1-.1.2 0z"/><path class="d" d="M225.383 113.6a.8.8 0 10-.8-.8.8.8 0 00.8.8zM233.983 113.6a.8.8 0 10-.8-.8.8.8 0 00.8.8z"/><path class="c" d="M24.983 119.9c5-3.8 5.2-12 .6-21.1s-17.6-18.3-23.6-9.2 12.2 35.5 19.8 31.4"/><path class="e" d="M24.883 119.8a9.556 9.556 0 003.1-4.8 16.108 16.108 0 00.4-5.8 28.692 28.692 0 00-3.7-11 28.745 28.745 0 00-7.7-8.6 20.829 20.829 0 00-5.1-2.7 8.644 8.644 0 00-5.5-.2 7.754 7.754 0 00-4.2 3.4 9.017 9.017 0 00-.9 5.4 31.823 31.823 0 003.7 11 48.662 48.662 0 006.7 9.6 26.706 26.706 0 004.4 3.8 12.271 12.271 0 002.6 1.2 4.146 4.146 0 002.7-.2c.1-.1.2 0 .3.1a.367.367 0 01-.1.3 4.45 4.45 0 01-3 .4 9.612 9.612 0 01-2.8-1.1 24.463 24.463 0 01-4.7-3.8 47.711 47.711 0 01-7.1-9.6 30.424 30.424 0 01-3.9-11.3 10.046 10.046 0 011-6.1 9.04 9.04 0 014.8-4 10.099 10.099 0 016.2.3 20.991 20.991 0 015.3 2.9 28.395 28.395 0 017.9 9 28.734 28.734 0 013.6 11.4 15.238 15.238 0 01-.7 6 10.536 10.536 0 01-3.5 4.8h-.1c.3-.3.3-.3.3-.4z"/><path class="c" d="M32.883 124.9c-3.2-5.2-1.1-13.9 5.2-19.5l1.8 6.2.9-7.1c2.4-.8 6.2-.8 8.2 1.4 8.4 8.9-6.7 22.9-13.6 19.9"/><path class="e" d="M32.783 124.9a10.694 10.694 0 01-1.7-5.2 17.325 17.325 0 01.7-5.5 21.458 21.458 0 015.9-9.2.483.483 0 01.7 0c.1.1.1.1.1.2l1.8 6.2-1 .1.9-7.1a.43.43 0 01.4-.4 11.086 11.086 0 015.1-.4 10.64 10.64 0 012.5.9 6.558 6.558 0 011.9 1.8 9.555 9.555 0 011.9 4.8 10.61 10.61 0 01-.9 5 18.868 18.868 0 01-6.3 7.7 15.673 15.673 0 01-4.5 2.2 7.173 7.173 0 01-5-.1c-.1 0-.1-.2-.1-.3s.2-.1.3-.1a6.636 6.636 0 004.6-.2 14.396 14.396 0 004.2-2.3 17.859 17.859 0 005.9-7.4 10.229 10.229 0 00.8-4.5 7.405 7.405 0 00-1.7-4.2c-1.7-2.6-5.4-2.9-8.3-2l.4-.4-1 7.1a.44.44 0 01-.6.4.43.43 0 01-.4-.4l-1.7-6.2.8.2a20.163 20.163 0 00-5.9 8.7 15.81 15.81 0 00-.9 5.2 9.935 9.935 0 001.3 5.1v.1c-.1.3-.2.3-.2.2z"/><path class="d" d="M25.319 128.954q.08 1.02.164 2.046c.1.1.2.1.1 0a48.806 48.806 0 00-.3-10.8 48.134 48.134 0 00-2.9-10.5 32.779 32.779 0 00-5.7-9.3 32.592 32.592 0 00-8.4-6.8.367.367 0 00-.3.1c0 .1 0 .2.2.2a40.974 40.974 0 017.9 7.1 37.726 37.726 0 015.4 9.1 51.624 51.624 0 012.9 10.2c.486 2.915.71 5.764.936 8.654zm6.564-3.354a14.39 14.39 0 00-1.4 5.4.35.35 0 00.2.1.098.098 0 00.1-.1 43.98 43.98 0 012.1-5 26.567 26.567 0 012.9-4.5 45.983 45.983 0 015.522-5.972c.662-.637 1.326-1.276 1.978-1.928a.325.325 0 01.022-.1c.022-.067.044-.133-.022-.2a.327.327 0 01-.1-.022c-.067-.022-.134-.045-.2.022a41.544 41.544 0 00-8.2 7.5 29.172 29.172 0 00-2.9 4.8z"/><path class="d" d="M22.083 155.6a10.913 10.913 0 005.6 1.2 9.817 9.817 0 005.6-1.2 13.553 13.553 0 004.5-3.7 15.75 15.75 0 003.1-11.1v-.1l-2.9-9.9a.664.664 0 00-.5-.4h-19.6a.664.664 0 00-.5.4l-2.9 9.9v.1a15.281 15.281 0 003.1 11.1 12.446 12.446 0 004.5 3.7zm11-.5a11.431 11.431 0 01-5.4 1.4v.2a12.425 12.425 0 01-9.5-5.2 15.412 15.412 0 01-2.4-5 14.65 14.65 0 01-.4-5.5v.1l2.8-9.5h19.1l2.7 9.5v-.1a14.57 14.57 0 01-2.7 10.5 13.208 13.208 0 01-4.2 3.6z"/><path class="d" d="M14.983 135.7c2.2-.3 4.4-.3 6.6-.4l6.6-.1c4.4.1 8.8 0 13.2.4a.2.2 0 110 .4c-4.4.3-8.8.3-13.2.4l-6.6-.1c-2.2-.1-4.4-.1-6.6-.4-.1 0-.1-.1 0-.2z"/><path class="f" d="M50.583 21.1V8.2a8.237 8.237 0 018.2-8.2h121.2a8.237 8.237 0 018.2 8.2v13h-137.6z"/><path d="M50.683 120.3V21.1h137.6v99.7l-103-1.6" fill="#98c6d9"/><path class="c" d="M175.983 106.7h-40.2V34.5h40.2"/><path class="h" d="M160.383 64h-15V50.1a6.445 6.445 0 016.4-6.4h15.2v13.7a6.53 6.53 0 01-6.6 6.6z"/><path d="M166.783 95.9h-21.4V71.4h21.6v24.2c.1.2 0 .3-.2.3z" style="isolation:isolate" opacity=".26" fill="#787c82"/><path class="c" d="M63.383 46.8h64.3V34.5h-64.3zm0 60.5h64.3V55.8h-64.3z"/><path d="M104.183 83.1h-14.5a14.5 14.5 0 1014.5-14.5h-.3z" style="isolation:isolate" opacity=".83" fill="#187aa2"/><path d="M97.183 78.8V64.3a14.51 14.51 0 00-14.5 14.5z" style="isolation:isolate" opacity=".26" fill="#c3c4c7"/><path class="c" d="M66.183 12.8a2 2 0 10-2-2 2 2 0 002 2z"/><path class="h" d="M76.883 12.8a2 2 0 10-2-2 2 2 0 002 2zM87.583 12.8a2 2 0 10-2-2 2 2 0 002 2z"/><path d="M193.983 20.8l-147.9.7z" fill="#bedae6"/><path class="m" d="M193.983 21c-12.3.9-24.6.9-37 1l-37 .3-37 .1c-12.3 0-24.7.1-37-.6v-.5c12.3-.9 24.6-.9 37-1l37-.3 37-.1c12.3 0 24.7-.1 37 .6z"/><path class="c" d="M51.183 132.2a4.23 4.23 0 00-2.9-2.5 4.098 4.098 0 00-2.6.4 1.08 1.08 0 00-.4 1.6 3.795 3.795 0 002.3 1.4 4.022 4.022 0 003.6-.9zM58.183 128.9a1.178 1.178 0 00.3-1.7 3.54 3.54 0 00-2.4-1.3 4.46 4.46 0 00-3.5 1.4 4.27 4.27 0 003.2 2.1 4.491 4.491 0 002.4-.5zM60.283 125.1a1.146 1.146 0 00.7-1.6 3.484 3.484 0 00-2.1-1.8 4.375 4.375 0 00-3.7.5 4.178 4.178 0 002.6 2.8 3.624 3.624 0 002.5.1zM52.383 127.2a3.948 3.948 0 00-1.9-3.3 4.31 4.31 0 00-2.6-.5 1.09 1.09 0 00-.9 1.4 3.636 3.636 0 001.7 2.1 4.291 4.291 0 003.7.3zM54.983 122.2a4.363 4.363 0 00-1.3-3.6 4.143 4.143 0 00-2.2-.9 1.292 1.292 0 00-1.4 1.6 4.08 4.08 0 001.3 2 4.34 4.34 0 003.6.9z"/><path class="c" d="M58.383 128c0-.1-.1-.2-.1-.3l-.3-.3a4.013 4.013 0 00-1.6-.8 3.722 3.722 0 00-1.8.2 4.028 4.028 0 00-1.156.681 1.505 1.505 0 00.656.719 7.458 7.458 0 001.2.7 5.405 5.405 0 002.8-.1 1.135 1.135 0 00.3-.8zM60.683 124.3a.601.601 0 00-.1-.4c0-.1-.1-.2-.2-.3a5.263 5.263 0 00-1.4-1.2 3.591 3.591 0 00-1.8-.2 2.614 2.614 0 00-1.329.415 1.977 1.977 0 00.429.685 4.74 4.74 0 001 1 4.622 4.622 0 002.9.6 3.807 3.807 0 00.5-.6z"/><path class="e" d="M57.383 136.5a.43.43 0 01.4.4v.2c-.7 1.5-1.4 3-2.1 4.4v-.5a20.704 20.704 0 011.8 4.7 14.305 14.305 0 01.5 5.1 7.404 7.404 0 01-2.4 4.7 6.423 6.423 0 01-4.547 1.5h-.253a8.278 8.278 0 01-5-1.6 7.171 7.171 0 01-2.4-4.7 14.77 14.77 0 01.5-5.1 20.704 20.704 0 011.8-4.7v.5l-2.2-4.4a.48.48 0 01.2-.6h11.032c.88-.001 1.84.133 2.668.1z"/><path class="c" d="M57.383 131.6a3.88 3.88 0 00-2.5-1.1 3.198 3.198 0 00-2.881 1.758 2.823 2.823 0 002.78 1.742 3.727 3.727 0 002.5-.7 1.083 1.083 0 00.1-1.7z"/><path class="f" d="M185.483 154.5c-1.3.4-5.3 1.2-6.5 1.6a.921.921 0 00.3 1.8h10.8a2.025 2.025 0 002-2.3l-.2-1.2z"/><path class="d" d="M187.983 79.8h-6.1l-1-13.7h7.1z"/><path class="m" d="M194.283 77.9c3-.4 11.2 9.9 12.7 13.8 1.5 4-8.3 6.3-8.3 6.3"/><path class="m" d="M198.683 98.5a.5.5 0 01-.115-.986c.065-.016 6.468-1.547 7.836-4.11a1.77 1.77 0 00.112-1.529c-1.56-4.054-9.628-13.805-12.166-13.48a.5.5 0 11-.133-.991c3.485-.481 11.818 10.438 13.233 14.115a2.757 2.757 0 01-.164 2.357c-1.581 2.959-8.208 4.545-8.49 4.61a.462.462 0 01-.113.014z"/><path class="d" d="M204.883 127.3s5.7 10.9 4.9 21.3l-.9 2.7-18.1-25"/><path class="m" d="M208.883 151.8a.5.5 0 01-.406-.207l-18.1-25a.5.5 0 11.811-.586l17.528 24.211.573-1.718c.753-10.122-4.793-20.861-4.85-20.968a.5.5 0 01.886-.463c.236.45 5.757 11.146 4.955 21.569a.503.503 0 01-.023.12l-.9 2.7a.5.5 0 01-.475.342zm.9-3.2z"/><path class="d" d="M183.083 125.4s1.3 25.9 2.7 30.3l5.4-.1c.3-9.1 3.4-20.7 3.7-32.4"/><path class="m" d="M185.783 156.2a.5.5 0 01-.476-.349c-1.405-4.41-2.67-29.366-2.723-30.425a.499.499 0 01.473-.525.467.467 0 01.525.474c.013.252 1.249 24.637 2.577 29.818l4.542-.084a128.415 128.415 0 011.64-13.539 143.591 143.591 0 002.042-18.383.516.516 0 01.512-.487.5.5 0 01.488.513 144.436 144.436 0 01-2.053 18.511 121.527 121.527 0 00-1.647 13.893.5.5 0 01-.492.483l-5.4.1zM180.883 72.7a6.741 6.741 0 002.8-.1.098.098 0 01.1.1l-2.3 2.4-.6-2.6"/><path class="m" d="M181.24 75.989l-.784-3.39.476-.11.05-.216a6.378 6.378 0 002.589-.096l.112-.015a.534.534 0 01.539.538v.176zm.262-2.756l.226.978.957-.998a6.9 6.9 0 01-1.183.02z"/><path class="d" d="M182.483 57c-3.1-.1-5.9 1.3-6.3 4.1-.4 2.4-2.4 2.9-2.5 4.2 0 .9 1.6 1.1 1.8 2a6.636 6.636 0 006.3 5.4 5.845 5.845 0 001.9-.2"/><path class="m" d="M181.783 73.2a7.13 7.13 0 01-6.787-5.787c-.053-.237-.387-.453-.71-.661-.491-.317-1.103-.712-1.103-1.452a2.92 2.92 0 011.069-1.82 4.361 4.361 0 001.437-2.462c.402-2.816 3.145-4.648 6.81-4.517a.5.5 0 01-.016 1h-.016c-2.594-.083-5.41 1.018-5.79 3.671a5.281 5.281 0 01-1.71 3.008c-.422.432-.756.773-.786 1.16.002.143.257.322.647.573a2.231 2.231 0 011.144 1.28 6.161 6.161 0 005.84 5.01 5.33 5.33 0 001.733-.182.5.5 0 01.275.96 6.285 6.285 0 01-2.037.219z"/><path class="m" d="M176.283 69.8a.5.5 0 01-.185-.964 2.267 2.267 0 001.12-1.122.5.5 0 11.929.371 3.258 3.258 0 01-1.678 1.68.497.497 0 01-.186.035zM177.183 64.8a.43.43 0 00.4-.4v-.8a.4.4 0 10-.8 0v.7a.458.458 0 00.4.5z"/><path class="f" d="M196.283 80.2c-3.2-4.8-6.7-6.8-15.1-4.1l-.9 21.4c-.7 6.9 1.6 30.6 1.6 30.6h24c.597-15.312-1.706-20.916-3.702-25.773a39.093 39.093 0 01-1.798-5.027 24.255 24.255 0 01-.761-6.461c-.042-3.051-.078-5.685-3.339-10.639zm17.2 77.6c-1.8.4-7.4-9.4-7.4-9.4l3.7-.2c1.6-.2 2 .8 2.4 2.4.126.464.306 1.043.501 1.67.729 2.349 1.667 5.372.799 5.53z"/><path class="d" d="M176.383 84.7a12.586 12.586 0 01-2.9-3.4c-1.9-3.4-6.8-9.2-8-7.6s.9 6.9 2.7 7.8c1.3 4.3 8.2 18.7 12.3 17.6s7.4-23 1.7-22.7-6.1 12.9-6.1 12.9"/><path class="m" d="M180.048 99.657c-4.599 0-10.993-13.79-12.284-17.82-1.266-.802-2.461-3.164-2.918-5.102-.247-1.047-.407-2.476.237-3.335a1.163 1.163 0 011.063-.47c2.172.145 6.275 5.444 7.774 8.126a12.768 12.768 0 002.332 2.876c.77-3.648 2.413-7.847 5.904-8.031 1.202-.07 2.767.632 3.35 4.312.932 5.872-1.377 18.427-4.893 19.37a2.213 2.213 0 01-.565.074zm-14.003-25.73a.168.168 0 00-.161.073 3.432 3.432 0 00-.065 2.506c.472 1.999 1.657 4.081 2.587 4.547a.5.5 0 01.255.303c1.38 4.56 8.22 18.198 11.693 17.26 2.532-.678 5.14-12.105 4.166-18.248-.258-1.624-.884-3.545-2.31-3.469-5.178.273-5.623 12.296-5.627 12.417a.51.51 0 01-.516.484.5.5 0 01-.484-.515 33.678 33.678 0 01.454-4.221 13.144 13.144 0 01-2.984-3.51c-1.78-3.185-5.55-7.531-6.973-7.627zM196.483 70.7a8.255 8.255 0 00-2.1-2.4 4.254 4.254 0 01-1.4-2.3 8.566 8.566 0 00-1.2-3.4 6.89 6.89 0 00-3.8-2.6 6.028 6.028 0 00-4.3-3.3 7.259 7.259 0 00-5.5.8c-.4 3.2.9 6.7 3.8 6.9-.5 2.4.9 5.7 3.6 6.5a8.679 8.679 0 001.3 5.9c2.2 3.6 6.2 5.1 8.8 3.5 2.6-1.8 3-6 .8-9.6z"/><path class="e" d="M55.483 121.737s-.162-4.003-3.2-4.537-2.952 1.852-2.626 2.525A4.932 4.932 0 0051.383 122a4.786 4.786 0 002.45.7 2.808 2.808 0 001.65-.963z"/><path class="c" d="M49.983 136.9h7.6l-2.2 4.4a20.226 20.226 0 012.2 8.3c0 4.2-2.6 6.9-6.9 6.9h.2c-4.3 0-6.9-2.7-6.9-6.9a20.226 20.226 0 012.2-8.3l-2.2-4.4h6z"/><path class="e" d="M55.905 121.189s2.885-.732 4.378.811 1.013 2.233.816 2.579-.791 1.171-2.716 1.046-2.468-.959-3.51-2.376 1.032-2.06 1.032-2.06zM52.527 126.78s1.898-1.92 3.756-1.28 2.9 1.283 2.9 2.3-.939 1.551-1.76 1.835a5.599 5.599 0 01-3.753-.215 2.119 2.119 0 01-1.387-1.819zM51.46 131.794s1.186-1.833 2.638-1.833a5.17 5.17 0 013.285.916 1.526 1.526 0 01.1 2.584 3.734 3.734 0 01-3.039 1.09 3.409 3.409 0 01-2.8-1.509c-.636-.986-.184-1.248-.184-1.248z"/><path class="c" d="M60.683 124.3a.601.601 0 00-.1-.4c0-.1-.1-.2-.2-.3a5.263 5.263 0 00-1.4-1.2 3.591 3.591 0 00-1.8-.2 2.614 2.614 0 00-1.329.415 1.977 1.977 0 00.429.685 4.74 4.74 0 001 1 4.622 4.622 0 002.9.6 3.807 3.807 0 00.5-.6zM58.383 128c0-.1-.1-.2-.1-.3l-.3-.3a4.013 4.013 0 00-1.6-.8 3.722 3.722 0 00-1.8.2 4.028 4.028 0 00-1.156.681 1.505 1.505 0 00.656.719 7.458 7.458 0 001.2.7 5.405 5.405 0 002.8-.1 1.135 1.135 0 00.3-.8z"/><path class="e" d="M52.383 125.883s-.84-3.463-4.254-3.183-1.147 3.596-.265 4.189a4.078 4.078 0 003.596.712 1.364 1.364 0 00.923-1.718zM51.46 132.073a4.667 4.667 0 00-2.877-2.873c-2.26-.762-4.137.652-4.137 1.437a2.493 2.493 0 001.137 2.204 3.541 3.541 0 003.587.828 4.586 4.586 0 002.29-1.596z"/><path class="e" d="M51.008 136.7s-.957-7.718 1.375-11.468 3.522-4.598 3.522-4.598l.695.506s-3.717 3.785-4.217 7.841a71.126 71.126 0 00-.5 7.719z"/><path class="c" d="M54.883 121.779s-.69-2.226-2.095-2.93-2.095-.449-2.095.272.592 1.554 1.785 2.36a2.691 2.691 0 002.405.298zM51.917 126.076a4.8 4.8 0 00-3.034-2.176c-1.84-.206-1.092 1.074-.648 1.725a3.021 3.021 0 002.161 1.305l1.064.17zM57.191 131.6a3.682 3.682 0 00-2.41-1.1 3.091 3.091 0 00-2.78 1.758A2.736 2.736 0 0054.685 134a3.504 3.504 0 002.41-.7 1.107 1.107 0 00.097-1.7zM50.903 132.045s-1.631-1.811-2.95-1.811-1.348.052-1.86.369-.57.473-.365.958a2.628 2.628 0 002.136 1.28 3.95 3.95 0 002.214-.279 1.461 1.461 0 00.825-.517z"/></g></svg>