<svg xmlns="http://www.w3.org/2000/svg" viewBox="0 0 737.5 116.618"><defs><style>.a{fill:#c3c4c7;}.b{fill:#004e6e;}.c{fill:#6ab3d0;}.d{fill:#fff;}.e{fill:#187aa2;}.f{fill:#006088;}.g{fill:#006088;}.h{fill:#003c56;}.i{fill:#787c82;}.j{fill:#50575e;}</style></defs><title>woocommerce-share</title><path class="a" d="M504.4,54.2182c4.1,18.8,18.7,21.8,23.1,21.6,5.7-.3,18.2-13.1,18.2-29,0,0,2.7-30.4-29.5-21.3-12.5,3.4-11.8,28.7-11.8,28.7Z" transform="translate(0 0)"/><path class="b" d="M499.3,43.1182c-3.7-6.8,3.5-18.7,14.3-15l-9.3,28.5A52.7045,52.7045,0,0,0,499.3,43.1182Zm16.3,10.1a1.6855,1.6855,0,0,0,1.7,1.7,1.7524,1.7524,0,0,0,1.7-1.7v-2.7a1.7,1.7,0,0,0-3.4,0Z" transform="translate(0 0)"/><path class="b" d="M505,54.0182c1.1,2.7,1.8,5.5,3.2,8a23.8215,23.8215,0,0,0,5.1,6.7,25.144,25.144,0,0,0,7.1,4.5,30.3757,30.3757,0,0,0,4,1.2,15.027,15.027,0,0,0,2,.2h1c.3,0,.6-.1.9-.1a9.2889,9.2889,0,0,0,3.5-1.9,27.8892,27.8892,0,0,0,3.2-2.8,34.9793,34.9793,0,0,0,5.2-6.8,39.0486,39.0486,0,0,0,5.2-16.3c0-.2.2-.3.4-.3a.2652.2652,0,0,1,.3.3c.6,6-1.2,12.1-4.1,17.3a38.2913,38.2913,0,0,1-5.4,7.3c-1.1,1.1-2.2,2.1-3.4,3.1a14.5379,14.5379,0,0,1-4.3,2.2,5.8531,5.8531,0,0,1-1.3.2h-1.2a8.5242,8.5242,0,0,1-2.3-.3,22.26,22.26,0,0,1-4.4-1.3,23.26,23.26,0,0,1-7.7-5,24.7588,24.7588,0,0,1-5.4-7.4,37.887,37.887,0,0,1-1.8-4.2,16.399,16.399,0,0,1-.9-4.4.6687.6687,0,0,1,.6-.7c.1.1.4.3.5.5Z" transform="translate(0 0)"/><path class="b" d="M527.9,48.9182a39.073,39.073,0,0,1,.5,4.8,25.8019,25.8019,0,0,1-.3,4.8c-.1.4-.4.7-.8.6-.3-.1-.6-.3-.6-.6a25.8071,25.8071,0,0,1-.3-4.8,39.0492,39.0492,0,0,1,.5-4.8c.1-.3.3-.5.6-.4.2.1.4.3.4.4Z" transform="translate(0 0)"/><path class="b" d="M537.2,54.9182a1.6855,1.6855,0,0,1-1.7-1.7v-2.7a1.7,1.7,0,0,1,3.4,0v2.7A1.7524,1.7524,0,0,1,537.2,54.9182Z" transform="translate(0 0)"/><path class="b" d="M519.2,42.4182a5.9014,5.9014,0,0,1,1.4.2h.2a.4711.4711,0,0,0,.6-.1.7464.7464,0,0,0,0-.9,3.6541,3.6541,0,0,0-2-1.1,6.4785,6.4785,0,0,0-2-.2,6.929,6.929,0,0,0-2,.3,4.1227,4.1227,0,0,0-1.9,1.1.6184.6184,0,0,0-.2.7.74.74,0,0,0,.9.4h.1a8.2788,8.2788,0,0,1,3.2-.5c.314,0,.627.0274.927.0535C518.7,42.3955,518.961,42.4182,519.2,42.4182Zm13.5-.8a3.6537,3.6537,0,0,1,2-1.1,7.1444,7.1444,0,0,1,2-.2,6.4479,6.4479,0,0,1,2,.3,4.1225,4.1225,0,0,1,1.9,1.1.5606.5606,0,0,1,0,.9.9519.9519,0,0,1-.7.2h-.1a8.2784,8.2784,0,0,0-3.2-.5,9.7013,9.7013,0,0,0-1.7.1,5.2126,5.2126,0,0,0-1.4.2l-.2.1a.68.68,0,0,1-.8-.4A1.1652,1.1652,0,0,1,532.7,41.6182Zm-9.8,22.9,2.3.1c.4,0,.775.025,1.15.05s.75.05,1.15.05c.75,0,1.5-.025,2.25-.05s1.5-.05,2.25-.05a.6687.6687,0,0,1,.7.6.8418.8418,0,0,1-.4.7,13.0905,13.0905,0,0,1-4.8.8,20.0406,20.0406,0,0,1-2.23-.17h0l-.27-.03a7.2839,7.2839,0,0,1-2.4-.7.7511.7511,0,0,1-.4-.9A.8418.8418,0,0,1,522.9,64.5182Z" transform="translate(0 0)"/><path class="b" d="M534.4,16.0182c13,4.4,14.8,9.8,13.8,30.6,0,0-2.4-5.5-24.9-9.6-22.5-4.2-16.9-22.4-16.9-22.4.815,1.9367,5.813,1.51,11.67,1.0091C523.705,15.1457,530.134,14.5962,534.4,16.0182Zm-37,76.4a11.3358,11.3358,0,0,1-2.851,1.3466c-.553.2-1.108.4007-1.649.6534-1.5.6-3,1.3-4.4,2a76.105,76.105,0,0,0-8.3,5,43.2622,43.2622,0,0,0-7.1,6.4,39.684,39.684,0,0,0-5.3,8c-.1.2-.3.2-.5.1h0c-.1-.1-.2-.2-.2-.3a18.48,18.48,0,0,1,4.4-9.1,40.3907,40.3907,0,0,1,7.4-6.9,47.2239,47.2239,0,0,1,8.7-5.1c1.5-.7,3-1.4,4.6-2,.272-.102.541-.2068.808-.3111l.001,0A13.0838,13.0838,0,0,1,497,91.1182a.6835.6835,0,0,1,.7.7A.6047.6047,0,0,1,497.4,92.4182Zm54.4-1.2a14.2236,14.2236,0,0,1,4.414,1.2448l.002.0009q.1935.0777.384.1543c1.6.6,3.1,1.3,4.6,2a63.7635,63.7635,0,0,1,8.7,5.1,43.8969,43.8969,0,0,1,7.4,6.9,19.375,19.375,0,0,1,4.4,9.1c0,.2-.1.4-.3.4-.1,0-.3-.1-.3-.2a55.4689,55.4689,0,0,0-5.3-8,43.262,43.262,0,0,0-7.1-6.4,53.8005,53.8005,0,0,0-8.3-5c-1.4-.7-2.9-1.4-4.4-2-.541-.2527-1.096-.4532-1.649-.6534a11.3389,11.3389,0,0,1-2.851-1.3466.7515.7515,0,0,1-.2-1A.55.55,0,0,1,551.8,91.2182Z" transform="translate(0 0)"/><path class="c" d="M505.7,77.4183a2.6663,2.6663,0,0,1,1.4-.7l1.5-.3a15.0377,15.0377,0,0,1,3,0,22.25,22.25,0,0,1,5.8,1.3,20.07,20.07,0,0,1,5.2,2.8l1.2.9a11.4114,11.4114,0,0,1,1.1,1.1,5.7277,5.7277,0,0,1,1.4,2.8c0,.2-.1.4-.3.4a.3673.3673,0,0,1-.3-.1,26.5227,26.5227,0,0,0-4.2-3.3,27.8319,27.8319,0,0,0-4.9-2.4,23.303,23.303,0,0,0-5.2-1.3,11.2951,11.2951,0,0,0-2.6,0l-1.3.2a3.2675,3.2675,0,0,1-1.4,0H506a.7155.7155,0,0,1-.5-.9.7638.7638,0,0,1,.2-.5Z" transform="translate(0 0)"/><path class="c" d="M545.3,81.8182a2.8361,2.8361,0,0,1-1.3-.4l-.6-.3-.6-.2c-.4-.1-.8-.3-1.2-.4l-1.3-.3a18.1205,18.1205,0,0,0-5.2,0,29.5855,29.5855,0,0,0-5.1,1.4c-1.7.7-3.3,1.5-5.1,2.1-.2.1-.4,0-.4-.2a.3674.3674,0,0,1,.1-.3,11.406,11.406,0,0,1,4.7-3.4,26.1737,26.1737,0,0,1,5.6-1.8,15.1561,15.1561,0,0,1,6,.1l1.5.4a7.8382,7.8382,0,0,0,1.4.5l.7.3.7.4a5.2419,5.2419,0,0,1,1.1,1,.7754.7754,0,0,1-.2,1,.6011.6011,0,0,1-.4.1Z" transform="translate(0 0)"/><path class="c" d="M510,86.7182a3.1258,3.1258,0,0,1,.9,1.1l.8,1.2.9,1.2.9,1.1a26.14,26.14,0,0,0,4.4,3.7,20.4677,20.4677,0,0,0,5.1,2.6,25.2609,25.2609,0,0,0,5.6,1.1c.2,0,.3.2.3.4,0,.1-.1.2-.2.3a8.5828,8.5828,0,0,1-6.3.2,18.7156,18.7156,0,0,1-5.7-2.7,23.5546,23.5546,0,0,1-4.7-4.2l-1-1.2-.9-1.3c-.3-.5-.5-.9-.8-1.4a4.1929,4.1929,0,0,1-.4-1.6.6835.6835,0,0,1,.7-.7c.1,0,.2.1.4.2Z" transform="translate(0 0)"/><path class="c" d="M503.9,83.8182a16.6053,16.6053,0,0,1-1.4,1.3l-.7.7a5.547,5.547,0,0,0-.6.8,8.6263,8.6263,0,0,0-1.6,3.5,8.1312,8.1312,0,0,0,0,3.8,10.0339,10.0339,0,0,0,1.5,3.5,9.9056,9.9056,0,0,0,2.7,2.7l.8.5a3.5518,3.5518,0,0,0,.9.4,11.7642,11.7642,0,0,0,2,.7l4,1.3a29.7809,29.7809,0,0,0,4,1.1h.1c.2,0,.3.2.3.4,0,.1-.1.2-.2.3a6.3436,6.3436,0,0,1-2.3.3,7.7984,7.7984,0,0,1-2.2-.3,28.7564,28.7564,0,0,1-4.2-1.1,17.2331,17.2331,0,0,1-2.1-.7,5.36,5.36,0,0,1-1.1-.5l-1-.6a13.3357,13.3357,0,0,1-3.4-3.3,11.3866,11.3866,0,0,1-1.8-4.4,12.347,12.347,0,0,1,.1-4.7,11.3049,11.3049,0,0,1,2-4.3c.3-.3.5-.6.8-.9l.9-.8a4.0741,4.0741,0,0,1,2.2-1,.76.76,0,0,1,.8.6,4.2353,4.2353,0,0,0-.5.7Z" transform="translate(0 0)"/><path class="c" d="M533.1,103.218a10.6591,10.6591,0,0,1,3-.6l3-.6a28.0444,28.0444,0,0,0,5.7-2.2,13.9274,13.9274,0,0,0,4.6-3.7,10.5313,10.5313,0,0,0,1.8-5.4c0-.2.2-.3.4-.3.1,0,.2.1.3.2a6.466,6.466,0,0,1,.6,3.4,7.8879,7.8879,0,0,1-1.3,3.3,12.95,12.95,0,0,1-5.2,4.4,24.5109,24.5109,0,0,1-6.2,2.3,19.8474,19.8474,0,0,1-3.2.6,6.1706,6.1706,0,0,1-3.3-.1.74.74,0,0,1-.4-.9C532.8,103.418,532.9,103.218,533.1,103.218Z" transform="translate(0 0)"/><path class="c" d="M540.7,89.8182c.6-.7,1.3-.6,1.9-.9s1.3-.5,1.8-.8a14.4346,14.4346,0,0,0,3.2-2.3,14.7534,14.7534,0,0,0,2.6-3,33.921,33.921,0,0,1,2.3-3.4.33.33,0,0,1,.5,0c.1.1.1.1.1.2a6.8386,6.8386,0,0,1-1.2,4.4,16.5476,16.5476,0,0,1-2.8,3.6,14.2393,14.2393,0,0,1-3.8,2.6,18.9447,18.9447,0,0,1-2.1.9,4.3145,4.3145,0,0,1-2.3.3.8252.8252,0,0,1-.5-1A3.3254,3.3254,0,0,1,540.7,89.8182Z" transform="translate(0 0)"/><path class="b" d="M264.4,38.3676a46.4,46.4,0,0,1,1.6,5.3c.5,1.8,1,3.5,1.6,5.2,1.2,3.4,2.6,6.8,5,9.2a11.9133,11.9133,0,0,0,4.2,2.8,17.28,17.28,0,0,0,5.1,1.2,48.8626,48.8626,0,0,0,5.4.3,16.9962,16.9962,0,0,0,5.1-.6,16.2957,16.2957,0,0,0,4.5-2.4,15.9161,15.9161,0,0,0,3.4-3.9,35.82,35.82,0,0,0,4.2-9.8c1.9-7,2.5-14.3,3.1-21.6,0-.2.2-.3.4-.3a.2652.2652,0,0,1,.3.3,72.3084,72.3084,0,0,1-1.8,22.2,36.5824,36.5824,0,0,1-4.4,10.4,22.68,22.68,0,0,1-3.8,4.4,16.5724,16.5724,0,0,1-5.2,2.9,19.3343,19.3343,0,0,1-5.8.8,52.5275,52.5275,0,0,1-5.6-.3,22.1116,22.1116,0,0,1-5.6-1.5,14.912,14.912,0,0,1-4.9-3.4,19.5416,19.5416,0,0,1-3.3-4.8,34.3712,34.3712,0,0,1-2.1-5.3,54.3791,54.3791,0,0,1-1.5-5.4,25.2737,25.2737,0,0,1-.9-5.5.6687.6687,0,0,1,.6-.7A1.1252,1.1252,0,0,1,264.4,38.3676Z" transform="translate(0 0)"/><path class="c" d="M267.9,77.6675l18.7,8.4,14.1-7.6s40.8,6.3,40.8,37.8995H233C233,104.667,243,85.6675,267.9,77.6675Z" transform="translate(0 0)"/><path class="b" d="M288.3,35.8675a14.679,14.679,0,0,1,.5,2.9,9.5506,9.5506,0,0,1-.3,2.9.7155.7155,0,0,1-.9.5c-.3-.1-.5-.3-.5-.5a9.55,9.55,0,0,1-.3-2.9,14.6835,14.6835,0,0,1,.5-2.9.5166.5166,0,0,1,.7-.3A.2652.2652,0,0,1,288.3,35.8675Z" transform="translate(0 0)"/><path class="b" d="M298.5,40.8675a1.8987,1.8987,0,0,1-1.9-1.9v-3a1.9,1.9,0,1,1,3.8,0v3A1.9669,1.9669,0,0,1,298.5,40.8675Z" transform="translate(0 0)"/><path class="b" d="M274.9,38.9675a1.8987,1.8987,0,0,0,1.9,1.9,1.967,1.967,0,0,0,1.9-1.9v-3a1.9,1.9,0,0,0-3.8,0Zm3.5,24.7c0-3,3.8-5.4,8.5-5.4s8.5,1.5,8.5,4.5Zm19.7-2.8a46.2277,46.2277,0,0,1,.306,6.9019h0c-.003.4638-.006.9295-.006,1.398v2a5.6622,5.6622,0,0,0,.3,1.8,6.88,6.88,0,0,0,1.8,3.1,6.2247,6.2247,0,0,0,3,1.8l.4.1.5.1c.183.0459.346.0707.497.0938h0a2.9779,2.9779,0,0,1,.503.1062c.35.1.7.175,1.05.25h0c.35.075.7.15,1.05.25a53.1986,53.1986,0,0,1,7.9,2.9,58.9911,58.9911,0,0,1,14.3,8.9,34.2016,34.2016,0,0,1,5.7,6.3,22.1445,22.1445,0,0,1,3.4,7.7005c0,.2-.1.399-.3.399s-.3.001-.4-.199a35.8086,35.8086,0,0,0-9.9-12.6,57.2827,57.2827,0,0,0-13.8-8.4,53.4218,53.4218,0,0,0-7.6-2.8,13.3207,13.3207,0,0,0-1.9-.5,3.5528,3.5528,0,0,0-1-.2l-.5-.1-.6-.1a9.15,9.15,0,0,1-4-2.4,8.9537,8.9537,0,0,1-2.3-4,15.7179,15.7179,0,0,1-.4-2.3v-2.1c0-.4685-.003-.9342-.006-1.398h0a46.2277,46.2277,0,0,1,.306-6.9019.76.76,0,0,1,.8-.6C297.9,60.3675,298.1,60.5675,298.1,60.8675ZM279.475,27.0429a4.3726,4.3726,0,0,1,1.125.2247l.3-.1a.44.44,0,0,0,.5-.1.4833.4833,0,0,0,0-.7,4.1122,4.1122,0,0,0-2.1-1.2,8.2166,8.2166,0,0,0-4.4,0,4.4506,4.4506,0,0,0-2.1,1.2.7777.7777,0,0,0-.2.8c.1.4.5.5.9.4h.1a18.2243,18.2243,0,0,1,3.5-.6h1.8C279.093,27,279.285,27.0215,279.475,27.0429Zm14.325-.5753a3.7544,3.7544,0,0,1,2.1-1.2,8.2167,8.2167,0,0,1,4.4,0,4.9816,4.9816,0,0,1,2.1,1.2.668.668,0,0,1,0,1,.7777.7777,0,0,1-.8.2h-.1a9.5089,9.5089,0,0,0-3.5-.6h-1.8a4.6712,4.6712,0,0,0-1.7.3h-.1a.4193.4193,0,0,1-.6-.3.4144.4144,0,0,1-.034-.5343Zm-10.8,26.5a8.4934,8.4934,0,0,0,2.4.5,20.9208,20.9208,0,0,0,5-.1,7.0894,7.0894,0,0,0,2.2-.6l.1-.1a.7774.7774,0,0,1,1,.3.755.755,0,0,1-.1.8,6.0508,6.0508,0,0,1-2.55,1.35l-.15.05a9.0373,9.0373,0,0,1-2.8.2,13.5057,13.5057,0,0,1-2.8-.4h0a7.071,7.071,0,0,1-2.6-1.3.4833.4833,0,0,1,0-.7C282.5,52.8676,282.8,52.8676,283,52.9676Z" transform="translate(0 0)"/><path class="b" d="M289.3,48.1675c-.5-3.1-10.6-.9-9.8,1.7C279.8,50.8675,289.5,49.3675,289.3,48.1675Z" transform="translate(0 0)"/><path class="b" d="M289.3,48.1675c-.5-3.1-10.6-.9-9.8,1.7C279.8,50.8675,289.5,49.3675,289.3,48.1675Z" transform="translate(0 0)"/><path class="b" d="M285.7,48.1675c.5-3.1,10.6-.9,9.8,1.7C295.2,50.8675,285.5,49.3675,285.7,48.1675Z" transform="translate(0 0)"/><path class="b" d="M262.3,24.9675a2.8676,2.8676,0,0,0,4.1,2.5c9.3-4.4,32.7-19.6,20.4-20.4C271.8,6.0675,262.2,16.3675,262.3,24.9675Zm23.4,23.2c.5-3.1,10.6-.9,9.8,1.7C295.2,50.8675,285.5,49.3675,285.7,48.1675Z" transform="translate(0 0)"/><path class="b" d="M305.4,23.2676a2.739,2.739,0,0,0,2.2-3.4c-2.1-8.9-15.5-17.4-29.1-10-10.8,5.8,9.6,16.3,26.9,13.4Z" transform="translate(0 0)"/><path class="d" d="M92.9,106.718c2.7-30.6,1.3-26.9,19.7-40.5Z" transform="translate(0 0)"/><path class="d" d="M177.4,106.718c-2.7-30.6-1.3-26.9-19.7-40.5Z" transform="translate(0 0)"/><path class="e" d="M163.2,61.2182a8.3924,8.3924,0,0,0-1.3-4.4,13.1382,13.1382,0,0,0,1.6-6,8.1918,8.1918,0,0,0-2.9-6.3,6.4437,6.4437,0,0,0,1.7-4.5,11.0272,11.0272,0,0,0-2.8-6.9c1.7-4.4,1.6-9.5-1.9-12.6,2.7-6.6-9.4-23.7-23.9-20-14.4-3.6-26.5,13.3-24,19.9a10.6147,10.6147,0,0,0-1.7,2v.1a5.7354,5.7354,0,0,1-.4.7v.1c-.1.2-.2.5-.3.7v.1a9.7373,9.7373,0,0,0-.6,3.4v.9a2.7684,2.7684,0,0,0,.1.9,16.8968,16.8968,0,0,0,1.2,4.4c-.2.2-.3.5-.5.7a4.3478,4.3478,0,0,0-.4.7.0979.0979,0,0,1-.1.1,4.876,4.876,0,0,0-.3.7.0979.0979,0,0,1-.1.1l-.3.6c0,.1,0,.1-.1.2-.1.2-.1.4-.2.6,0,.1,0,.2-.1.2a1.2684,1.2684,0,0,0-.1.6c0,.1,0,.2-.1.2,0,.2-.1.4-.1.6v1.9a.7559.7559,0,0,0,.1.4c0,.1.1.2.1.4,0,.1,0,.2.1.2,0,.1.1.3.1.4s0,.1.1.2c.1.2.1.3.2.4v.1c.1.2.2.3.3.5v.1c.1.2.2.3.3.5a1.7555,1.7555,0,0,0,.4.5l-.6.6-.1.1a1.7558,1.7558,0,0,0-.4.5c0,.1-.1.1-.1.2-.1.2-.2.3-.3.5a.3491.3491,0,0,1-.1.2c-.1.2-.2.3-.3.5,0,.1-.1.2-.1.3-.1.2-.1.3-.2.5,0,.1-.1.2-.1.3-.1.2-.1.4-.2.5,0,.1-.1.2-.1.3,0,.2-.1.4-.1.6v.3c0,.3-.1.6-.1.9a12.4758,12.4758,0,0,0,1.3,5.2,6.525,6.525,0,0,0-1.3,3.9,6.42,6.42,0,0,0,1.9,4.6,11.5014,11.5014,0,0,0-3,7.2l7.6-5.2h.2a4.8688,4.8688,0,0,0,1.2-.1v.2l.4-.3a7.04,7.04,0,0,0,4.4-3.5l4.7-3.8,1.6-7.9-2.9-2.3v-1.6c0-.2-.1-.4-.1-.6,0-.1,0-.1-.1-.2,0-.2-.1-.3-.1-.5,0-.1,0-.1-.1-.2-.1-.2-.1-.3-.2-.5a.0979.0979,0,0,0-.1-.1,1.38,1.38,0,0,0-.3-.4.0979.0979,0,0,0-.1-.1c-.1-.1-.2-.3-.4-.4H119a2.1814,2.1814,0,0,0-.5-.4l-.6-.3a5.5765,5.5765,0,0,0,.7-1.6v-.1c.1-.2.1-.5.2-.8v-.2c0-.3.1-.6.1-.9v-.9a.9015.9015,0,0,0-.1-.5v-.3c0-.1-.1-.3-.1-.4a.3674.3674,0,0,0-.1-.3c0-.2-.1-.3-.1-.5,0-.1,0-.1-.1-.2a4.8753,4.8753,0,0,1-.3-.7.3491.3491,0,0,0-.1-.2c-.1-.1-.1-.3-.2-.4,0-.1-.1-.2-.1-.3-.1-.1-.1-.2-.2-.4-.1-.1-.1-.2-.2-.3s-.1-.2-.2-.3-.1-.2-.2-.3-.2-.2-.2-.3a1.7556,1.7556,0,0,0-.4-.5c-.1-.1-.2-.2-.2-.3l-.3-.3c-.1-.1-.2-.1-.2-.2-.1-.1-.2-.2-.3-.2-.1-.1-.2-.1-.2-.2-.1-.1-.2-.1-.3-.2s-.2-.1-.3-.2-.2-.1-.3-.2c-.1-.9-.1-1.9-.2-2.8v-7.8c8.1-3,16.8-8.3,19.5-16.7,2.7,8.4,11.3,13.7,19.4,16.6a74.3994,74.3994,0,0,1-.4,11.2,10.8075,10.8075,0,0,0-3.8,7.7,6.8182,6.8182,0,0,0,1,3.5,4.687,4.687,0,0,0-2.5,4.5l-2.9,2.2.8,8.2,2.6,1.5v.4a3.1394,3.1394,0,0,0,.9.1l1.3.8c.1,4,3,7.1,6.5,7.1a5.5031,5.5031,0,0,0,3.5-1.2l3.3,2-1.3-4.3c.9-.5,1.3-1.8,1.3-3.2Z" transform="translate(0 0)"/><path class="c" d="M163.4,105.218h-5.3v-8.7a2.5819,2.5819,0,0,1,2.6-2.6h2.6v11.3Z" transform="translate(0 0)"/><path class="d" d="M149.6,84.3182l-31.9-9.6,5.8-23.4,21.1-.9Z" transform="translate(0 0)"/><path class="d" d="M113.6,22.0182c-.6,28.8,10.5,30.7,20.4,30.7,11.6,0,18.2-6.1,19.5-30.7" transform="translate(0 0)"/><path class="d" d="M138,90.7182l-16.9-31.7-10.6,8.9,13,12.4-.1.3a8.83,8.83,0,0,0,3.4,9.3l8.9,6.3" transform="translate(0 0)"/><path class="d" d="M133,96.2182l12.4-37.6,13.5,8.8-11.3,14.6a8.2228,8.2228,0,0,1,.2,2.7c-1,9.8-7.7,15.3-15.4,17.6v13.5" transform="translate(0 0)"/><path class="f" d="M132.695,94.74q-.1545.6392-.295,1.2786c-.1.3.1.6.3.6a.6586.6586,0,0,0,.9-.3q.1695-.3918.335-.7881c.546.3389,1.099.67,1.665.9882.1.1.3,0,.4-.1a.33.33,0,0,0,0-.5c-.557-.438-1.115-.8918-1.672-1.3489.683-1.7063,1.309-3.4567,1.897-5.1994.37.5881.759,1.1708,1.175,1.7483a1.0226,1.0226,0,0,0,1,.2.74.74,0,0,0,.4-.9,36.3146,36.3146,0,0,0-1.656-3.8357l2.956-8.9644,5.749-17.4337c3.778,2.5178,7.556,5.03,11.334,7.4765L150.9,75.9182l-3.5,4.6-.4.6-.2.3-.1.1c-.101.4565-.158.7136-.187.85-.003.0124-.008.029-.013.05v.0093c-.025.1157-.015.0777-.002.02l.002-.007v.1782a5.019,5.019,0,0,1,.2,1.2,11.4669,11.4669,0,0,1-.171,1.6569c-.046.3115-.094.6273-.129.9431a17.4532,17.4532,0,0,1-4.9,9.5,23.292,23.292,0,0,1-9.5,5.5,1.1493,1.1493,0,0,0-.6.9c0,2.208.092,4.324.188,6.524l.012.276c.1,2.3.2,4.5.4,6.8a.2652.2652,0,0,0,.3.3c.2,0,.4-.1.4-.3.2-2.3.3-4.5.4-6.8l.012-.276c.085-1.955.167-3.843.185-5.788a22.77,22.77,0,0,0,9.803-5.6358,19.5883,19.5883,0,0,0,5.6-10.6c.032-.3193.074-.6386.117-.9611A16.2028,16.2028,0,0,0,149,83.7182a7.4554,7.4554,0,0,0-.134-1.25l.034-.05.4-.6,3.5-4.6,6.925-8.8759c1.477,1.3062,3.034,2.5144,4.587,3.72.834.6479,1.668,1.295,2.488,1.9562,3.1,2.5,5.7,5.3,6.6,9a63.501,63.501,0,0,1,1.9,11.7l.6,6c.1.667.156,1.334.211,2h0a15.7092,15.7092,0,0,0,.689,4c0,.3.2.5.6.3a.76.76,0,0,0,.8-.6,17.2116,17.2116,0,0,0-.056-4.2c-.057-.6-.114-1.2-.144-1.8l-.5-6q-.15-3-.6-6l-.041-.2729a41.7553,41.7553,0,0,0-1.159-5.8271,18.5217,18.5217,0,0,0-.778-2c-.144-.3333-.289-.6666-.422-1l-.8-1.4a6.8424,6.8424,0,0,0-.654-.8727h0v0c-.122-.1453-.24-.2862-.346-.427a26.4164,26.4164,0,0,0-4.6-4.3,69.1024,69.1024,0,0,0-8.255-5.5854.9.9,0,0,0-.245-.2147c-2.25-1.45-4.5-2.925-6.75-4.4s-4.5-2.95-6.75-4.4a.3554.3554,0,0,1-.15-.05.3553.3553,0,0,0-.15-.05,1.0808,1.0808,0,0,0-1.4.7l-6.1,18.8L135.945,84.26q-.36-.675-.721-1.3414h0c-.058-.1059-.115-.2116-.172-.3172-.05-.0944-.101-.1886-.152-.2827l-4.2-7.9-8.4-15.9a.263.263,0,0,0-.008-.0887c-.01-.0294-.034-.0538-.092-.1113a1.215,1.215,0,0,0-1.6-.1l-10.6,8.9-.1.1a.9.9,0,0,0-.245.299,70.2155,70.2155,0,0,0-7.255,5.001,30.8961,30.8961,0,0,0-4.6,4.3,6.42,6.42,0,0,0-1,1.3l-.8,1.4a18.7692,18.7692,0,0,0-1.2,3,41.7854,41.7854,0,0,0-1.1592,5.8272l-.0408.2728-.6,6-.5,6c-.03.6-.087,1.2-.144,1.8a17.2116,17.2116,0,0,0-.056,4.2.6338.6338,0,0,0,.5.6.608.608,0,0,0,.9-.4,17.9521,17.9521,0,0,0,.7864-4.666c.0346-.445.0691-.889.1136-1.334l.6-6a73.247,73.247,0,0,1,1.9-11.7c.9-3.7,3.5-6.5,6.6-9q.444-.3437.89-.6876c1.862-1.4375,3.747-2.8919,5.568-4.47l12.404,11.647a9.7864,9.7864,0,0,0,.338,5.3109,8.8472,8.8472,0,0,0,3.6,4.7l4.5,3C131.563,93.9938,132.127,94.3694,132.695,94.74Zm16.092-12.7711c.04-.1855.03-.1457.015-.0793S148.766,82.049,148.787,81.9685Z" transform="translate(0 0)"/><path class="a" d="M117.996,27.6277a2.808,2.808,0,0,1,3.062-2.91l4.8.2h0l.006,0a3.82,3.82,0,0,1,3.837,3.8622h0v.0072a5.3423,5.3423,0,0,1-5.316,4.9312H123.2a4.9422,4.9422,0,0,1-5.102-4.4634v-.001l-.1-1.598-.001-.0141Zm6.404,8.09v-1l.029,1a7.3392,7.3392,0,0,0,7.27-6.8648,5.5742,5.5742,0,0,0-.123-1.405l4.462.1223a5.5626,5.5626,0,0,0-.237,1.41l-.001.0192v.0192a7.4049,7.4049,0,0,0,6.81,7.2959l.09-.9959-.083.9965,1.195.1a6.9811,6.9811,0,0,0,7.574-5.7317l.004-.02.002-.02.2-1.5946a4.8535,4.8535,0,0,0-4.75-5.4285l-4.8-.2h0l-.006,0a6.11,6.11,0,0,0-4.931,2.18l-6.426-.1761a6.0443,6.0443,0,0,0-4.74-2.5038l-4.797-.2a4.8053,4.8053,0,0,0-5.139,5.0747l.099,1.5868v.002a6.94,6.94,0,0,0,7.098,6.3356Zm18.391-1.3959-.004,0a5.4056,5.4056,0,0,1-4.987-5.2842,3.9306,3.9306,0,0,1,4.162-3.62h.002l4.794.2a2.8551,2.8551,0,0,1,2.851,3.1658h0l-.001.0111-.198,1.5788a4.9823,4.9823,0,0,1-5.417,4.05h0l-.01-.0009ZM154.8,104.418c-1.3,0-2.7.1-4,.2a.5764.5764,0,0,0-.6.6.6611.6611,0,0,0,.6.7c1.3.1,2.7.2,4,.2,1.3.1,2.7.1,4,.1.87.067,1.785.044,2.685.022.445-.011.885-.022,1.315-.022.44-.034.892-.056,1.347-.079a26.2091,26.2091,0,0,0,2.653-.221.6452.6452,0,0,0,.6-.6.6611.6611,0,0,0-.6-.7,26.2113,26.2113,0,0,0-2.653-.221c-.455-.023-.907-.045-1.347-.079h-4C157.5,104.318,156.1,104.318,154.8,104.418Z" transform="translate(0 0)"/><path class="g" d="M126.3,20.7183a5.9018,5.9018,0,0,1,1.4.2l.1.1a.6612.6612,0,0,0,.6-.1.6328.6328,0,0,0,.1-.9,3.6538,3.6538,0,0,0-2-1.1,6.4782,6.4782,0,0,0-2-.2,4.7668,4.7668,0,0,0-2,.4q-.0735.0369-.15.0742h0a3.2679,3.2679,0,0,0-1.55,1.2255v.2c0,.2.2.3.4.3.076-.0127.151-.0254.224-.0379h0a8.4194,8.4194,0,0,1,1.476-.1621,9.702,9.702,0,0,1,1.7-.1c.314,0,.627.0273.927.0534C125.8,20.6955,126.061,20.7183,126.3,20.7183Zm-1.9,11.1a1.6855,1.6855,0,0,1-1.7-1.7v-2.7a1.7,1.7,0,0,1,3.4,0v2.7A1.7524,1.7524,0,0,1,124.4,31.8183Zm6.336,22.1109a20.294,20.294,0,0,1-2.836-.411,20.7486,20.7486,0,0,1-5.3-1.8l-1.2-.8a2.0856,2.0856,0,0,1-.3-.2,2.0852,2.0852,0,0,0-.3-.2l-.5-.5-1.1-1-.9-1.1a18.83,18.83,0,0,1-1.6-2.3h0a11.73,11.73,0,0,1-.781-1.5792c-.136-.3139-.271-.6242-.419-.9208a11.0313,11.0313,0,0,1-.646-1.7845c-.081-.27-.163-.5427-.254-.8155l-.4-1.3-.3-1.3c-.2-.9-.4-1.8-.5-2.6l-.3-2.7a24.5192,24.5192,0,0,1-.2-2.7l-.2-2.7a47.08,47.08,0,0,1,.3-5.3c0-.4.4-.6.8-.6a1.2755,1.2755,0,0,1,.5.7,29.833,29.833,0,0,1,.336,3.8819h0c.02.4437.039.8842.064,1.3181l.016.2685h0c.095,1.62.195,3.3208.384,4.9315l.3,2.6a18.4244,18.4244,0,0,0,.5,2.5l.3,1.2.4,1.2c.1.2667.189.5334.278.8h0a11.8541,11.8541,0,0,0,.622,1.6,14.911,14.911,0,0,0,6.1,7.4,20.85,20.85,0,0,0,9.7,2,40.704,40.704,0,0,0,5-.3,14.7984,14.7984,0,0,0,4.6-1.6,15.1551,15.1551,0,0,0,6.1-7.5,46.673,46.673,0,0,0,2.7-9.9c.514-2.495.866-5.044,1.215-7.5677v-.0026c.126-.9145.252-1.8256.385-2.73,0-.2.2-.3.4-.3a.3193.3193,0,0,1,.3.3,62.7422,62.7422,0,0,1-.5,10.6,42.8519,42.8519,0,0,1-2.6,10.4,18.8124,18.8124,0,0,1-5.938,7.9588l.438,4.6413A48.2459,48.2459,0,0,1,130.736,53.9292ZM142.6,30.1183a1.6855,1.6855,0,0,0,1.7,1.7,1.7524,1.7524,0,0,0,1.7-1.7v-2.7a1.7,1.7,0,1,0-3.4,0Zm-11.1,13.3a13.0946,13.0946,0,0,1,2.8,0,6.602,6.602,0,0,1,1.4.1c.167.0333.322.0555.478.0777a5.3477,5.3477,0,0,1,1.022.2223.55.55,0,0,1,.3.5.13.13,0,0,1-.05.1.13.13,0,0,0-.05.1,2.7513,2.7513,0,0,1-1.5.8,4.4036,4.4036,0,0,1-1.6.2,5.4666,5.4666,0,0,1-3.1-.7.6867.6867,0,0,1-.3-.9A.6048.6048,0,0,1,131.5,43.4183Zm3.2-13.5a.6169.6169,0,0,1,.364.5936.5049.5049,0,0,0,.036.2064l.1.8c0,.2038.012.3961.023.5847a4.7621,4.7621,0,0,1-.023,1.1153,9.7029,9.7029,0,0,1-.1,1.7,2.1189,2.1189,0,0,1-.7,1.7.4833.4833,0,0,1-.7,0,2.1189,2.1189,0,0,1-.7-1.7c0-.3-.025-.575-.05-.85s-.05-.55-.05-.85v-1.7l.1-.8a.917.917,0,0,0,.036-.2664.4866.4866,0,0,1,.364-.5336A1.22,1.22,0,0,1,134.7,29.9183Zm5.1-9.9a3.6537,3.6537,0,0,1,2-1.1,7.1445,7.1445,0,0,1,2-.2,4.4771,4.4771,0,0,1,2,.4,4.31,4.31,0,0,1,1.7,1.3.44.44,0,0,1-.1.5.32.32,0,0,0-.109.027c-.053.02-.091.0348-.091-.027-.3-.05-.575-.075-.85-.1s-.55-.05-.85-.1c-.3,0-.575-.025-.85-.05s-.55-.05-.85-.05a9.7019,9.7019,0,0,0-1.7.1,5.2124,5.2124,0,0,0-1.4.2l-.3.1a.6569.6569,0,0,1-.8-.5A.7638.7638,0,0,1,139.8,20.0183Zm-12.3,21.7a.8.8,0,1,1-.8-.8A.8.8,0,0,1,127.5,41.7182Z" transform="translate(0 0)"/><path class="a" d="M663.5,82.9182c1.5-.6,3.1-1.2,4.5-1.7,3.5-1.3,7.3-4.5,7.3-8.2v-10.2c0-11.4,22-2.1,22-2.1s-1.3,14.7.6,17.5,12.7,6.4,12.7,6.4l-22.9,15.4Z" transform="translate(0 0)"/><path class="e" d="M697.2,71.4182l.3-4.8c-7.2.8-15.5,2.5-21,1.3S685.2,71.8182,697.2,71.4182Z" transform="translate(0 0)"/><path class="a" d="M706.5,42.3182c0,15.9,1.2,25.1-18.2,25.1-23.3,0-22.2-2.9-22.2-23v-12.8s7.9-12.1,22.2-12.5,18.2,15.8,18.2,15.8Z" transform="translate(0 0)"/><path class="g" d="M670,80.3182l17.2,7.7,12.9-6.9s37.4,5.8,37.4,34.7H638.1C638,105.118,647.2,87.7182,670,80.3182Z" transform="translate(0 0)"/><path class="h" d="M681.6,34.2182a6.8033,6.8033,0,0,0-1.5-.2h-1.7a14.3547,14.3547,0,0,0-3.1.5h-.1a.7512.7512,0,0,1-.9-.4.5738.5738,0,0,1,.2-.7,4.1227,4.1227,0,0,1,1.9-1.1,7.4688,7.4688,0,0,1,2-.3,6.4481,6.4481,0,0,1,2,.3,3.6828,3.6828,0,0,1,1.9,1.1.4284.4284,0,0,1-.1.7.7494.7494,0,0,1-.5.1Z" transform="translate(0 0)"/><path class="b" d="M690.505,16.9659a3.1076,3.1076,0,0,0-.105-.5477l-6.2-1.3c-18.1-1.7-25.7,17.2-21.2,21.7,8.9,8.9,28.6-9.8,27.6-19.3A4.7874,4.7874,0,0,1,690.505,16.9659ZM687.5,61.4182c-5.3,0-9.6,2.7-9.6,6.1h19.2C697.1,64.1182,692.8,61.4182,687.5,61.4182Z" transform="translate(0 0)"/><path class="b" d="M676.4,44.9182a1.6854,1.6854,0,0,0,1.7,1.7,1.6257,1.6257,0,0,0,1.7-1.7v-2.7a1.7,1.7,0,1,0-3.4,0ZM698.064,71.891a26.4216,26.4216,0,0,0-.364-5.1728c0-.3-.2-.5-.5-.4a.6181.6181,0,0,0-.8.5,30.7128,30.7128,0,0,0-.4041,6.33c.002.3551.004.7117.004,1.07a9.0932,9.0932,0,0,0,3.6,7.2,11.4008,11.4008,0,0,0,1.9,1,6.0925,6.0925,0,0,0,1.593.4429c.11.02.214.0385.307.0571a19.9557,19.9557,0,0,1,3.5.9,54.5646,54.5646,0,0,1,6.7,2.6,48.8636,48.8636,0,0,1,6.4,3.4,38.8156,38.8156,0,0,1,5.8,4.2,34.1936,34.1936,0,0,1,8.7,11.2c.1.2.2.2.4.2s.3-.2.3-.4a20.1425,20.1425,0,0,0-3-6.9,29.5044,29.5044,0,0,0-5-5.6,49.2926,49.2926,0,0,0-12.6-8.1,45.929,45.929,0,0,0-7-2.7c-1.002-.334-2.073-.5982-3.098-.8509q-.3045-.075-.602-.1491a7.4906,7.4906,0,0,1-1.6-.4,6.1085,6.1085,0,0,1-1.4-.7,6.5554,6.5554,0,0,1-2.8-5.5C698.07,73.3686,698.067,72.628,698.064,71.891Z" transform="translate(0 0)"/><path class="b" d="M666.8,44.5182a78.69,78.69,0,0,1,.4,9.7,35.5841,35.5841,0,0,0,.5,4.7,10.2,10.2,0,0,0,1.6,4,6.101,6.101,0,0,0,1.5,1.3,12.1478,12.1478,0,0,0,2,.9,22.4305,22.4305,0,0,0,4.5.9c3.1.3,6.4.4,9.6.4a48.4066,48.4066,0,0,0,9.4-.7,15.214,15.214,0,0,0,4.2-1.6,8.9066,8.9066,0,0,0,3-3.1,15.0149,15.0149,0,0,0,1.5-4.2,35.49,35.49,0,0,0,.6-4.7c.2-3.2.3-6.4.6-9.7,0-.2.2-.3.4-.3a.2652.2652,0,0,1,.3.3c.3,3.2.5,6.5.5,9.7a28.8592,28.8592,0,0,1-.4,5,17.585,17.585,0,0,1-1.6,4.9,11.5161,11.5161,0,0,1-3.7,3.9,17.7974,17.7974,0,0,1-4.8,1.9,37.149,37.149,0,0,1-9.9.8,80.42,80.42,0,0,1-9.8-.5,31.6,31.6,0,0,1-5-1,25.5736,25.5736,0,0,1-2.4-1.1,9.0945,9.0945,0,0,1-2.1-1.8,10.8691,10.8691,0,0,1-2-4.9,28.1018,28.1018,0,0,1-.4-5,62.5222,62.5222,0,0,1,.3-9.7.76.76,0,0,1,.8-.6c.2-.1.4.2.4.5Z" transform="translate(0 0)"/><path class="b" d="M688.8,42.0182a13.1761,13.1761,0,0,1,.5,2.6,7.4337,7.4337,0,0,1-.3,2.6.7155.7155,0,0,1-.9.5,1.2055,1.2055,0,0,1-.5-.5,8.0106,8.0106,0,0,1-.3-2.6,10.8934,10.8934,0,0,1,.5-2.6.5166.5166,0,0,1,.7-.3Z" transform="translate(0 0)"/><path class="b" d="M698,46.6182a1.6855,1.6855,0,0,1-1.7-1.7v-2.7a1.7,1.7,0,0,1,3.4,0v2.7A1.6855,1.6855,0,0,1,698,46.6182Z" transform="translate(0 0)"/><path class="h" d="M695.6,32.3182a3.4083,3.4083,0,0,0-1.9,1.1c-.015.03-.03.0574-.044.0838a.5359.5359,0,0,0-.056.5162.4856.4856,0,0,0,.6.3h.2a6.8035,6.8035,0,0,1,1.5-.2h1.7a10.0688,10.0688,0,0,1,3.1.5h.1a.7224.7224,0,0,0,.7-1.2,3.6828,3.6828,0,0,0-1.9-1.1,6.4475,6.4475,0,0,0-2-.3A6.93,6.93,0,0,0,695.6,32.3182Zm-9.6,25.8a14.3456,14.3456,0,0,1-2.2-.4c-.2-.1-.4-.1-.4.1a.4833.4833,0,0,0,0,.7,5.8387,5.8387,0,0,0,2.224,1.2344c.059.022.118.0438.176.0656.083.0183.164.0367.245.0548a10.5065,10.5065,0,0,0,2.355.3452,11.8445,11.8445,0,0,0,2.6-.2,5.0458,5.0458,0,0,0,2.5-1.3.7548.7548,0,0,0,.1-.8.7305.7305,0,0,0-1-.4l-.1.1a6.5286,6.5286,0,0,1-2,.5c-.338,0-.677.0233-1.026.0475-.374.0258-.761.0525-1.174.0525A17.7015,17.7015,0,0,1,686,58.1182Z" transform="translate(0 0)"/><path class="b" d="M690,52.2182c-.7-3.3-10.3.4-9.4,3.1C681.6,57.9182,690.6,55.0182,690,52.2182Z" transform="translate(0 0)"/><path class="b" d="M705.5,38.0183c-4.5-10.2-12.9-16.3-20.2-17.2l-2.5-4.4,5.8-1.3c15.5-1.7,23.1,12,20.6,22.6A1.9676,1.9676,0,0,1,705.5,38.0183Zm-19.1,14.2c.7-3.3,10.3.4,9.4,3.1S685.8,55.0183,686.4,52.2183Z" transform="translate(0 0)"/><path class="a" d="M49.7,85.3183l-3.7-5,6.8-.1Z" transform="translate(0 0)"/><path class="b" d="M58.7,37.0183a3.6537,3.6537,0,0,1,2-1.1,7.1445,7.1445,0,0,1,2-.2,6.4477,6.4477,0,0,1,2,.3,4.1228,4.1228,0,0,1,1.9,1.1.5606.5606,0,0,1,0,.9.952.952,0,0,1-.7.2h-.1a8.2785,8.2785,0,0,0-3.2-.5,9.7021,9.7021,0,0,0-1.7.1,5.2124,5.2124,0,0,0-1.4.2l-.2.1a.68.68,0,0,1-.8-.4.8437.8437,0,0,1,.2-.7Z" transform="translate(0 0)"/><path class="b" d="M45.6,38.5182c-.2909.2182-.37.1719-.5073.0919a.9791.9791,0,0,0-.1927-.0919,1.7018,1.7018,0,0,0-.7-.1,8.6019,8.6019,0,0,0-1.6-.1,8.0828,8.0828,0,0,0-1.6.1,3.2433,3.2433,0,0,1-1.7,0h-.1c-.2-.1-.4-.3-.3-.5a2.1612,2.1612,0,0,1,1.7-1.5,15.5247,15.5247,0,0,1,2.1-.4,7.4872,7.4872,0,0,1,2.1.2c.3.1.7.2,1.1.3a1.4944,1.4944,0,0,0,.2717.1283c.2942.1168.6283.2493.6283.7717a.7127.7127,0,0,1-.3.6ZM61.7378,80.7339a5.177,5.177,0,0,1-1.8742.2483h0c-.314.003-.6343.0061-.9635.036H55.8c-1,0-2.025.025-3.05.05s-2.05.05-3.05.05c-2,0-4.1,0-6.1-.1a21.1923,21.1923,0,0,1-6.1-.7c-.2-.1-.3-.2-.2-.4a.2151.2151,0,0,1,.2-.2,21.1922,21.1922,0,0,1,6.1-.7c2-.1,4.1-.1,6.1-.1s4.1,0,6.1.1h3.1c.3.03.6.033.9035.036h0a6.7267,6.7267,0,0,1,1.5178.1329A8.568,8.568,0,0,1,61.2,78.0182c0-.4352-.0028-.8676-.0056-1.2981-.0054-.84-.0108-1.6729.0047-2.5057A89.0173,89.0173,0,0,1,46.01,72.26c-.6667-.0637-1.3366-.1431-2.01-.2422a21.454,21.454,0,0,1-5-1.2,12.972,12.972,0,0,1-4.4-2.9,11.9145,11.9145,0,0,1-2.7-4.6,28.0326,28.0326,0,0,1-1.2-5,36.4908,36.4908,0,0,1-.2-9.9.76.76,0,0,1,.8-.6c.4-.2.6.1.6.4.2487,1.5918.349,3.2085.4485,4.8129.1005,1.6208.2,3.2292.4515,4.7871.5,3.1,1.4,6.2,3.4,8.4,2,2.1,5.1,3,8.2,3.5a76.1942,76.1942,0,0,0,9.6.5,19.07,19.07,0,0,0,8.9-2,12.4413,12.4413,0,0,0,5.6-6.9,35.7449,35.7449,0,0,0,1.9-9.3c.15-1.6.275-3.225.4-4.85s.25-3.25.4-4.85c0-.2.2-.3.4-.3a.2652.2652,0,0,1,.3.3,81.2442,81.2442,0,0,1,.3,9.9,33.7365,33.7365,0,0,1-1.7,9.9,14.2314,14.2314,0,0,1-6.5,8q-.5185.301-1.0514.555a29.1107,29.1107,0,0,1,.3154,5.0722c.003.763.006,1.5224.036,2.2728a6.6218,6.6218,0,0,0,3.2,5.4,4.7145,4.7145,0,0,0,1.5.6,3.11,3.11,0,0,0,.4.1,3.109,3.109,0,0,1,.4.1l1,.2c.65.15,1.275.3,1.9.45s1.25.3,1.9.45a63.3717,63.3717,0,0,1,7.3,2.6,54.7217,54.7217,0,0,1,13.3,8,31.7651,31.7651,0,0,1,5.4,5.6,18.493,18.493,0,0,1,3.3,7.1c0,.2-.1.4-.3.4s-.3,0-.4-.2a34.28,34.28,0,0,0-9.4-11.3,57.2137,57.2137,0,0,0-12.9-7.5,66.1383,66.1383,0,0,0-7-2.6,23.691,23.691,0,0,0-3.6-.9l-.9-.1a2.8057,2.8057,0,0,0-.3456-.0816,1.7565,1.7565,0,0,1-.6544-.2184,7.2181,7.2181,0,0,1-2-.9A8.7643,8.7643,0,0,1,61.7378,80.7339ZM54.4,49.2182a39.0641,39.0641,0,0,0-.5-4.8c-.1-.2-.2-.4-.4-.4-.3-.1-.5.1-.6.4a39.0626,39.0626,0,0,0-.5,4.8,19.3871,19.3871,0,0,0,.3,4.8c0,.3.3.5.6.6.4.1.7-.2.8-.6a25.8058,25.8058,0,0,0,.3-4.8Zm-11.2,1.1a1.6855,1.6855,0,0,1-1.7-1.7v-2.7a1.7,1.7,0,0,1,3.4,0v2.7A1.6257,1.6257,0,0,1,43.2,50.3182Zm18.2-1.7a1.6855,1.6855,0,0,0,1.7,1.7,1.6257,1.6257,0,0,0,1.7-1.7v-2.7a1.7,1.7,0,1,0-3.4,0ZM47.3547,58.5647a.9621.9621,0,0,0-.7547-.1465h-.4a.7918.7918,0,0,0-.5.8c.0936.6551.7126.96,1.1195,1.16l.031.0152.05.0246a5.3287,5.3287,0,0,0,.9994.449c.1286.0469.2607.095.4006.151a8.8653,8.8653,0,0,0,2.8.7,9.4172,9.4172,0,0,0,2.9.1,3.28,3.28,0,0,0,2.8-1.2.0979.0979,0,0,0,.1-.1c0-.2-.1-.3-.3-.4h-.1a8.01,8.01,0,0,0-2.6-.3,20.4462,20.4462,0,0,1-2.3548-.1726h0L51.3,59.6182a22.1129,22.1129,0,0,1-2.5-.5h0a3.5822,3.5822,0,0,1-1.1-.4,1.2767,1.2767,0,0,1-.3453-.1535Z" transform="translate(0 0)"/><path class="g" d="M44,38.1182c-6.6-3.3-8.8-7.8-9.6-10.8-1-3.7-1.3-13.2,12.6-15.6,26.8711-4.623,30.0883,22.7564,30.7357,28.2663.0248.211.0459.39.0643.5337.6,4.3-1,9.4-2,12.2a1.1479,1.1479,0,0,1-2,.3,16.2213,16.2213,0,0,0-9.1-6.3c-1.8447-.4883-3.3362-1.9481-4.8737-3.4529A16.9823,16.9823,0,0,0,55.6,39.9182a15.0184,15.0184,0,0,0-6.6778-1.09A11.1752,11.1752,0,0,1,44,38.1182Zm27.4,48-45.9-.2c-18.5,9.8-25.5,29.9-25.5,30H106.2C99.7,90.9182,71.4,86.1182,71.4,86.1182Z" transform="translate(0 0)"/><path class="c" d="M30.6,44.5183c-.6-.6-.4-1.2-.6-1.8-.1-.6-.1-1.2-.2-1.8a22.8545,22.8545,0,0,1,0-3.7,16.0884,16.0884,0,0,1,.7-3.7,5.4147,5.4147,0,0,1,2.1-3.3c.2-.1.4-.1.5.1,0,.1.1.1.1.2a29.802,29.802,0,0,1-.6,3.4c-.2,1.1-.3,2.2-.4,3.4s-.1,2.3-.1,3.5v1.8c0,.6.2,1.2-.2,1.8v.1a.8287.8287,0,0,1-1.1.3c-.1-.2-.1-.3-.2-.3Z" transform="translate(0 0)"/><path class="c" d="M27.6,57.0183a1.4,1.4,0,1,0-1.4-1.4A1.4,1.4,0,0,0,27.6,57.0183Z" transform="translate(0 0)"/><path class="a" d="M190.9,54.5182c5.7-.6,32.7-1.3,37,.1,0,0-2.9,18.3-17.9,18.2C194.8,72.6182,190.9,54.5182,190.9,54.5182Z" transform="translate(0 0)"/><path class="b" d="M203,30.6182c-.4-.1-1-.2-1.6-.3a10.8687,10.8687,0,0,0-1.8-.1,9.8929,9.8929,0,0,0-3.5.6H196a.74.74,0,0,1-.9-.4.7578.7578,0,0,1,.1-.7,5.9293,5.9293,0,0,1,2-1.2,14.8932,14.8932,0,0,1,1.966-.367h0l.234-.033a8.204,8.204,0,0,1,2.2.2l.091.026a3.9176,3.9176,0,0,1,2.109,1.174.7463.7463,0,0,1,0,.9.5925.5925,0,0,1-.7.1Zm15.3-2.2a4.3827,4.3827,0,0,0-2.2,1.2.8214.8214,0,0,0-.1.7.68.68,0,0,0,.8.4l.2-.1c.4-.1,1-.2,1.6-.3h0a10.8687,10.8687,0,0,1,1.8-.1,9.8929,9.8929,0,0,1,3.5.6h.1a.4941.4941,0,0,0,.7-.1.5606.5606,0,0,0,0-.9,4.6644,4.6644,0,0,0-2-1.2,5.7,5.7,0,0,0-2.2-.4A8.2039,8.2039,0,0,0,218.3,28.4182Zm-10.4,29a8.5607,8.5607,0,0,1-2.3-.5c-.4-.2-.7-.1-.7.1a.6424.6424,0,0,0,.1.9,6.1476,6.1476,0,0,0,2.7,1.3,9.0338,9.0338,0,0,0,2.8.4,13.3293,13.3293,0,0,0,2.8-.3,5.2263,5.2263,0,0,0,2.7-1.3.7549.7549,0,0,0,.1-.8.6867.6867,0,0,0-.9-.3h-.1a7.09,7.09,0,0,1-2.2.6,20.9022,20.9022,0,0,1-2.5.1A19.4816,19.4816,0,0,1,207.9,57.4182Zm-10.5-15.2a1.8987,1.8987,0,0,0,1.9,1.9,1.9669,1.9669,0,0,0,1.9-1.9v-3a1.9,1.9,0,1,0-3.8,0Zm13.888,1.856a25.41,25.41,0,0,0-.488-3.656c0-.1-.2-.3-.5-.4a.6219.6219,0,0,0-.6.4,23.2052,23.2052,0,0,0-.5,3.8h0a16.6771,16.6771,0,0,0,.3,3.8.9016.9016,0,0,0,.6.6.7786.7786,0,0,0,.9-.6,15.8333,15.8333,0,0,0,.3-3.8Zm9.712.044a1.8987,1.8987,0,0,1-1.9-1.9v-3a1.9,1.9,0,1,1,3.8,0v3A1.9669,1.9669,0,0,1,221,44.1182Z" transform="translate(0 0)"/><path class="a" d="M231.1,46.0182a99.7349,99.7349,0,0,0,1.4-10.8,38.0646,38.0646,0,0,0-.6-11.1,28.99,28.99,0,0,0-4-10.2,23.9,23.9,0,0,0-7.7-7.8,20.5031,20.5031,0,0,0-10.6-3.1,21.0465,21.0465,0,0,0-5.6.8,19.8,19.8,0,0,0-5.1,2.4,23.5264,23.5264,0,0,0-7.4,8.3,37.5185,37.5185,0,0,0-3.8,10.3,57.737,57.737,0,0,0-1.2,10.9c0,1.9,0,3.7.1,5.5l.005.0964a33.7205,33.7205,0,0,0,.595,5.4036,30.5431,30.5431,0,0,0,3.9,10.4,21.1317,21.1317,0,0,0,8,7.7,23.7975,23.7975,0,0,0,10.7,2.9,20.9714,20.9714,0,0,0,5.6-.7,15.9983,15.9983,0,0,0,5.2-2.2,19.4938,19.4938,0,0,0,7.2-8.4A42.0131,42.0131,0,0,0,231.1,46.0182Zm-.5-21.4a40.9439,40.9439,0,0,1,.6,10.5,97.9432,97.9432,0,0,1-1.4,10.7,39.14,39.14,0,0,1-3.3,10,19.2767,19.2767,0,0,1-6.7,7.7,17.81,17.81,0,0,1-9.8,2.6,21.37,21.37,0,0,1-9.9-2.8,20.6887,20.6887,0,0,1-7.3-7.1,27.5414,27.5414,0,0,1-3.5-9.7,61.7335,61.7335,0,0,1,.4-21,34.3543,34.3543,0,0,1,3.5-9.9,22.9459,22.9459,0,0,1,6.8-7.7,16.5287,16.5287,0,0,1,4.6-2.3,18.0742,18.0742,0,0,1,5.1-.8,18.886,18.886,0,0,1,9.8,2.8,23.1269,23.1269,0,0,1,7.3,7.3A30.2083,30.2083,0,0,1,230.6,24.6182Z" transform="translate(0 0)"/><path class="a" d="M183.5,37.5182c.1,1.1.2,2.3.2,3.5a21.7377,21.7377,0,0,1-.2,3.6.6182.6182,0,0,1-.8.5c-.3-.1-.5-.2-.5-.5a14.7225,14.7225,0,0,1-.4-3.6,16.1,16.1,0,0,1,.4-3.7.542.542,0,0,1,.8-.4A.6338.6338,0,0,1,183.5,37.5182Z" transform="translate(0 0)"/><path class="e" d="M207.8,40.4183l-.2-4c0-.3-.2-.6-.7-.8a.5627.5627,0,0,0-.7.6l-.2,4v1a2.7684,2.7684,0,0,1-.1.9h0a4.7953,4.7953,0,0,1-.5,1.7,5.12,5.12,0,0,1-2.3,2.3,3.6533,3.6533,0,0,1-1.5.3h-4a4.0126,4.0126,0,0,1-1.5-.3,4.6788,4.6788,0,0,1-2.3-2.3,7.4936,7.4936,0,0,1-.5-1.6,2.7684,2.7684,0,0,1-.1-.9v-1c-.05-.65-.075-1.325-.1-2s-.05-1.35-.1-2a.6452.6452,0,0,0-.6-.6c-.4,0-.7.2-.7.6-.05.65-.075,1.325-.1,2s-.05,1.35-.1,2v1a1.6613,1.6613,0,0,1,.05.5125,2.3846,2.3846,0,0,0,.05.5875,7.9443,7.9443,0,0,0,.6,2.2,6.8331,6.8331,0,0,0,3.2,3.3,4.6453,4.6453,0,0,0,2.3.6h4a5.932,5.932,0,0,0,2.3-.5,6.6313,6.6313,0,0,0,3.1-3.3,9.0168,9.0168,0,0,0,.6-2.2,4.1017,4.1017,0,0,0,.1-1.1h0Zm21.8-1.45c-.025-.65-.05-1.3-.1-1.95a.5874.5874,0,0,0-.4-.6c-.4,0-.7.2-.7.6-.05.65-.075,1.3-.1,1.95s-.05,1.3-.1,1.95a8.8646,8.8646,0,0,1-.166,1.6008c-.011.0654-.023.1316-.034.1992a4.4182,4.4182,0,0,1-.6,1.6,5.4191,5.4191,0,0,1-2.4,2.1,7.7721,7.7721,0,0,1-1.6.2h-3.9a4.1907,4.1907,0,0,1-1.5-.4,5.1338,5.1338,0,0,1-2.2-2.4,4.2837,4.2837,0,0,1-.5-1.6,2.7684,2.7684,0,0,1-.1-.9v-1c-.05-.65-.075-1.3-.1-1.95s-.05-1.3-.1-1.95a.6452.6452,0,0,0-.6-.6c-.4,0-.7.2-.7.6-.05.65-.075,1.3-.1,1.95s-.05,1.3-.1,1.95v2.1a5.45,5.45,0,0,0,.5,2.2,6.6465,6.6465,0,0,0,3,3.4,8.6482,8.6482,0,0,0,2.3.6h4a6.2,6.2,0,0,0,2.3-.4,6.6557,6.6557,0,0,0,3.3-3.1,8.64,8.64,0,0,0,.7-2.1,15.4852,15.4852,0,0,0,.1-2.1C229.65,40.2683,229.625,39.6183,229.6,38.9683Z" transform="translate(0 0)"/><path class="a" d="M188.9,36.4182l42,.5Z" transform="translate(0 0)"/><path class="g" d="M199.4,35.52c-3.5,0-7,0-10.5.1a.5764.5764,0,0,0-.6.6.6687.6687,0,0,0,.6.7c3.5.2,7,.3,10.5.4,1.75.05,3.5.075,5.25.1s3.5.05,5.25.1c3.5.1,7,.1,10.5.1s7,0,10.5-.1a.6452.6452,0,0,0,.6-.6.6687.6687,0,0,0-.6-.7c-3.5-.2-7-.3-10.5-.4s-7-.2-10.5-.2C206.4,35.52,202.9,35.52,199.4,35.52Zm9.5,57.4982c-10.9,0-22.8-9.3-22.8-9.3-20,10.7-29.7,32.1-29.7,32.1H262.3c-8.4-23.1-33.5-31.4-33.5-31.4S219.8,93.0182,208.9,93.0182Z" transform="translate(0 0)"/><path class="a" d="M220.06,75.0563a2.0914,2.0914,0,0,0-.76-1.6381c-.1-.2-.3-.2-.5,0a2.0914,2.0914,0,0,0-.76,1.6381c-.011.1183-.022.2385-.04.3619a20.0488,20.0488,0,0,0,0,4c.018.1234.029.2436.04.3619.007.0663.013.1319.02.1972q-.6015.2993-1.199.6051-.5295.2687-1.061.5359c-1.3.65-2.6,1.325-3.9,2-1.144.5937-2.287,1.1874-3.431,1.7642L200.9,81.5183q-.3915-.174-.783-.35a31.3423,31.3423,0,0,0-7.617-2.65.1722.1722,0,0,0-.138-.05c-.037,0-.062,0-.062-.05a.3042.3042,0,0,0,0,.4,32.1713,32.1713,0,0,0,7.024,4.1281q.387.1854.776.3719c1.546.7729,3.127,1.51,4.723,2.2547,1.088.5076,2.182,1.0182,3.277,1.5453a.9083.9083,0,0,0,1,0c2.6-1.4,5.2-2.8,7.7-4.2q.495-.2772.994-.5511a29.0949,29.0949,0,0,0,6.306-4.2489c.1,0,.1-.1.1-.2s-.2-.2-.3-.2a21.7308,21.7308,0,0,0-3.75,1.275c.05-.5286.05-1.0205.05-1.5751a13.4033,13.4033,0,0,0-.1-2C220.082,75.2948,220.071,75.1746,220.06,75.0563Z" transform="translate(0 0)"/><path class="h" d="M378.4,30.8182a4.3827,4.3827,0,0,1,2.2-1.2,8.2037,8.2037,0,0,1,2.2-.2,5.7,5.7,0,0,1,2.2.4,4.6645,4.6645,0,0,1,2,1.2.5606.5606,0,0,1,0,.9.4941.4941,0,0,1-.7.1h-.1a9.893,9.893,0,0,0-3.5-.6,10.8689,10.8689,0,0,0-1.8.1c-.6.1-1.2.2-1.6.3l-.2.1a.68.68,0,0,1-.8-.4.4828.4828,0,0,1,.1-.7Z" transform="translate(0 0)"/><path class="g" d="M395.326,49.1425c2.802,19.474,6.243,43.3914-7.826,45.4757,0,0,3.6-6.1,2.4-12.1-7.849-.5119-7.546-9.8309-7.288-17.773.045-1.3671.088-2.6934.088-3.927,6.6-7.3,8.9-18.9,8.9-18.9-2.59-4.1522-7.444-7.4192-12.462-10.796C370.985,25.6344,362.4,19.8566,362.4,9.5182c14.5-2.2,30.6.8,31,22.2A156.6551,156.6551,0,0,0,395.326,49.1425ZM348.9,83.2182l5.5-3a14.6482,14.6482,0,0,0,7.6-12.2l.3-5.6c-12.1-7.3-12.5-20.8-12.5-20.8Z" transform="translate(0 0)"/><path class="e" d="M346.8,83.2182l25.3,6.7,17.8-7.4s21.3,6.1,28.3,33.3H325.1c.1,0,1.5-21.9,21.7-32.6Z" transform="translate(0 0)"/><path class="h" d="M362.4,44.3182a1.8987,1.8987,0,0,1-1.9-1.9v-3a1.9,1.9,0,1,1,3.8,0v3A1.8387,1.8387,0,0,1,362.4,44.3182Z" transform="translate(0 0)"/><path class="h" d="M374,37.9182a47.4844,47.4844,0,0,1,.5,5.3,31.4185,31.4185,0,0,1-.3,5.3c-.1.4-.4.7-.8.6-.3-.1-.6-.3-.6-.6a31.4185,31.4185,0,0,1-.3-5.3,47.4844,47.4844,0,0,1,.5-5.3c.1-.3.3-.5.6-.4.2,0,.3.2.4.4Z" transform="translate(0 0)"/><path class="h" d="M382.2,42.4182a1.8987,1.8987,0,0,0,1.9,1.9,1.8387,1.8387,0,0,0,1.9-1.9v-3a1.9,1.9,0,1,0-3.8,0Zm-9.7,13.1a17.2267,17.2267,0,0,1-4.4-.9.5738.5738,0,0,0-.7.2.7579.7579,0,0,0,.1,1,6.5376,6.5376,0,0,0,2.3,1.3,12.5888,12.5888,0,0,0,2.7.4,6.4616,6.4616,0,0,0,2.7-.5,4.3206,4.3206,0,0,0,2.1-1.7v-.3a.3653.3653,0,0,0-.5-.2A9.2832,9.2832,0,0,1,372.5,55.5182Z" transform="translate(0 0)"/><path class="h" d="M364.639,31.35a.8939.8939,0,0,0,.761-.132,1.5383,1.5383,0,0,0,.6-1.1.7894.7894,0,0,0-.608-.573,1.17,1.17,0,0,1-.292-.127c-.2-.05-.375-.1-.55-.15s-.35-.1-.55-.15a9.0791,9.0791,0,0,0-2.3-.3,5.867,5.867,0,0,0-2.3.4,2.2885,2.2885,0,0,0-1.7,1.6v.1a.4575.4575,0,0,0,.4.5,3.8545,3.8545,0,0,0,1.9-.2,4.6783,4.6783,0,0,1,1.7-.2,10.8687,10.8687,0,0,1,1.8.1,2.9064,2.9064,0,0,0,.45.1,2.9066,2.9066,0,0,1,.45.1A1.1509,1.1509,0,0,1,364.639,31.35ZM383.9,68.6182a68.069,68.069,0,0,0-.5-7.8.6687.6687,0,0,0-.7-.6.6611.6611,0,0,0-.7.6,67.6688,67.6688,0,0,0-.1,7.8l.1,3.9v2a7.6132,7.6132,0,0,0,.3,2.1,9.5353,9.5353,0,0,0,5.5,6.4,8.3018,8.3018,0,0,0,2.1.6,11.6267,11.6267,0,0,1,1.8.4,23.6732,23.6732,0,0,1,3.4,1.3,32.883,32.883,0,0,1,11.3,9.7,82.3067,82.3067,0,0,1,6.466,11.1068c.376.73.752,1.462,1.134,2.193.1.2.2.2.4.2s.3-.2.3-.4a38.1124,38.1124,0,0,0-6.6-14.3,31.7481,31.7481,0,0,0-12-10.4,24.6388,24.6388,0,0,0-3.8-1.4c-.13-.037-.256-.0739-.379-.11a11.2961,11.2961,0,0,0-1.621-.39c-.224-.0641-.428-.1179-.618-.168a9.1259,9.1259,0,0,1-1.082-.332,7.2919,7.2919,0,0,1-4.3-4.9c-.013-.0762-.025-.1508-.038-.2241a8.4056,8.4056,0,0,1-.162-1.4759l-.1-1.9Z" transform="translate(0 0)"/><path class="g" d="M367,9.1181c-20.2,0-22.8,23.3-20.9,35.3s-7.1,30.8-7.2,40.6c-.1,7.3,8,9.7,14.2,9.7,14,0,9-26.7,9.3-32.2-11.1-3.1-12.1-22.8-12.1-22.8S370.3,22.3182,367,9.1181Z" transform="translate(0 0)"/><path class="h" d="M351,39.6182c.5,2.9.7,5.8,1.6,8.5a26.604,26.604,0,0,0,3.9,7.7,29.4064,29.4064,0,0,0,6,6.2,22.5478,22.5478,0,0,0,3.6,2.4,14.5919,14.5919,0,0,0,3.9,1.6,3.9764,3.9764,0,0,0,1.8.2,18.0317,18.0317,0,0,0,1.9-.5,16.1543,16.1543,0,0,0,3.6-2.1,32.0364,32.0364,0,0,0,6.1-6.1,55.1552,55.1552,0,0,0,7.9-15.7c.1-.2.2-.3.4-.2s.2.2.2.4a36.4744,36.4744,0,0,1-6.9,16.8,33.3653,33.3653,0,0,1-6.4,6.6,15.2369,15.2369,0,0,1-4.1,2.4,10.2725,10.2725,0,0,1-2.5.7,10.9786,10.9786,0,0,1-2.6-.2,24.5072,24.5072,0,0,1-8.3-4.4,33.8927,33.8927,0,0,1-6.4-6.7,29.2126,29.2126,0,0,1-4.1-8.3,20.6153,20.6153,0,0,1-1-9.2.76.76,0,0,1,.8-.6.6338.6338,0,0,1,.6.5Z" transform="translate(0 0)"/><path class="d" d="M349.3,54.3183a1.3,1.3,0,1,0-1.3-1.3A1.3,1.3,0,0,0,349.3,54.3183Z" transform="translate(0 0)"/><path class="d" d="M391.9,54.3183a1.3,1.3,0,1,0-1.3-1.3A1.3,1.3,0,0,0,391.9,54.3183Z" transform="translate(0 0)"/><path class="i" d="M621,20.3182v-.5c5.871,3.9993,6.385,14.5873,6.53,17.594a3.237,3.237,0,0,0,.07.806c-2.7.1-6.8-6.8-8.9-12.5a4.4531,4.4531,0,0,0-4.3-2.6H599.8a4.5542,4.5542,0,0,0-4.3,2.6c-2.2,5.6-6.3,11.7-8.9,11.6,0,0-.1-13.7,6.9-18.4v.5a17.0085,17.0085,0,0,1,12.6-5.6C616.4,13.8182,619.9,17.6182,621,20.3182Zm-3.7,48.8v4.3a54.301,54.301,0,0,1-19.1-3.5c4.498,1.0442,9.447.411,14.952-.2932C614.501,69.4525,615.883,69.2757,617.3,69.1182Z" transform="translate(0 0)"/><path class="h" d="M600.4,37.8182a5.9024,5.9024,0,0,0-1.4-.2c-.239,0-.5-.0228-.773-.0466-.3-.0261-.613-.0534-.927-.0534a8.2787,8.2787,0,0,0-3.2.5H594a.74.74,0,0,1-.9-.4.6184.6184,0,0,1,.2-.7,4.123,4.123,0,0,1,1.9-1.1,6.9292,6.9292,0,0,1,2-.3,6.4783,6.4783,0,0,1,2,.2,3.6538,3.6538,0,0,1,2,1.1.7462.7462,0,0,1,0,.9.4711.4711,0,0,1-.6.1Zm14.1-2.1a3.6536,3.6536,0,0,0-2,1.1c-.2.1-.2.4-.2.7a.68.68,0,0,0,.8.4l.2-.1a5.2125,5.2125,0,0,1,1.4-.2,9.702,9.702,0,0,1,1.7-.1,8.2782,8.2782,0,0,1,3.2.5h.1a.952.952,0,0,0,.7-.2.5606.5606,0,0,0,0-.9,4.123,4.123,0,0,0-1.9-1.1,6.4475,6.4475,0,0,0-2-.3A7.1446,7.1446,0,0,0,614.5,35.7182Zm-9.5,24a10.8051,10.8051,0,0,1-2.1-.5c-.4-.2-.7-.1-.8.4a.6425.6425,0,0,0,.1.9,7.1607,7.1607,0,0,0,2.5,1.2,11.4167,11.4167,0,0,0,5.2,0,6.6715,6.6715,0,0,0,2.5-1.3.7551.7551,0,0,0,.1-.8.6867.6867,0,0,0-.9-.3h-.1a6.5287,6.5287,0,0,1-2,.5,15.483,15.483,0,0,1-2.2.1A16.4134,16.4134,0,0,1,605,59.7182Zm3.2-10.7a39.0731,39.0731,0,0,0-.5-4.8c-.1-.2-.2-.4-.4-.4-.3-.1-.5.1-.6.4a39.0612,39.0612,0,0,0-.5,4.8h0a25.8082,25.8082,0,0,0,.3,4.8c0,.3.3.5.6.6.4.1.7-.2.8-.6a25.8082,25.8082,0,0,0,.3-4.8Zm-12.8-.6a1.6854,1.6854,0,0,0,1.7,1.7,1.7524,1.7524,0,0,0,1.7-1.7v-2.7a1.7,1.7,0,1,0-3.4,0Zm21.5,1.7a1.6855,1.6855,0,0,1-1.7-1.7v-2.7a1.7,1.7,0,1,1,3.4,0v2.7A1.6257,1.6257,0,0,1,616.9,50.1182Z" transform="translate(0 0)"/><path class="i" d="M618.1,68.2182a32.5273,32.5273,0,0,1,.3,4.4,21.7137,21.7137,0,0,1-.3,4.4.6181.6181,0,0,1-.8.5c-.3-.1-.5-.3-.5-.5a21.718,21.718,0,0,1-.3-4.4,32.5272,32.5272,0,0,1,.3-4.4.76.76,0,0,1,.8-.6A.6337.6337,0,0,1,618.1,68.2182Z" transform="translate(0 0)"/><path class="i" d="M627.6,42.0182a67.1205,67.1205,0,0,1-1.3,9.9,46.4676,46.4676,0,0,1-3,9.6,19.1,19.1,0,0,1-6.6,7.8,21.8314,21.8314,0,0,1-4.7,2.1,17.7932,17.7932,0,0,1-5.1.6,21.1994,21.1994,0,0,1-9.8-2.7,20.98,20.98,0,0,1-7.4-7.1,27.4582,27.4582,0,0,1-3.6-9.5,29.2123,29.2123,0,0,1-.5-5c-.1-1.7-.1-3.3-.1-5a56.68,56.68,0,0,1,1.1-10,35.96,35.96,0,0,1,3.4-9.5,20.6838,20.6838,0,0,1,6.8-7.6,15.5841,15.5841,0,0,1,4.7-2.2,18.0745,18.0745,0,0,1,5.1-.8,18.716,18.716,0,0,1,9.8,2.9,22.2019,22.2019,0,0,1,7.1,7.2,26.9622,26.9622,0,0,1,3.6,9.4A40.6261,40.6261,0,0,1,627.6,42.0182Zm-1.4-.1c.5-6.4-.6-13.1-4.1-18.5a21.4264,21.4264,0,0,0-6.7-6.7,16.7582,16.7582,0,0,0-8.9-2.6,17.6568,17.6568,0,0,0-4.6.7,16.5188,16.5188,0,0,0-4.2,2.1,20.7888,20.7888,0,0,0-6.2,7,35.762,35.762,0,0,0-3.2,9,52.1483,52.1483,0,0,0-1,9.6,51.1038,51.1038,0,0,0,.7,9.6,25.693,25.693,0,0,0,3.2,8.9,18.1771,18.1771,0,0,0,6.7,6.5,20.364,20.364,0,0,0,9,2.6,15.7778,15.7778,0,0,0,15-9.5,41.294,41.294,0,0,0,3-9.2A58.7527,58.7527,0,0,0,626.2,41.9182Zm-43.3,5.4c0-1.1-.1-2.2-.2-3.2-.1-.3-.2-.6-.5-.6a.5419.5419,0,0,0-.8.4,13.6869,13.6869,0,0,0-.4,3.4,12.4207,12.4207,0,0,0,.4,3.3.6422.6422,0,0,0,.5.5.6182.6182,0,0,0,.8-.5A18.2863,18.2863,0,0,0,582.9,47.3182Z" transform="translate(0 0)"/><path class="a" d="M604.902,44.969h0c-.0229-.5494-.045-1.0886-.084-1.6265l-.018-.2243a.75.75,0,0,0-.3-.6c-.4,0-.7.2-.7.6l-.016.2109-.006.0676h0c-.092,1.1938-.178,2.3076-.178,3.4215v.9a2.2023,2.2023,0,0,1-.1.8,8.7967,8.7967,0,0,1-.5,1.5,4.7378,4.7378,0,0,1-2.1,2.1,3.5294,3.5294,0,0,1-1.4.3h-3.6a3.1942,3.1942,0,0,1-1.4-.3,4.7375,4.7375,0,0,1-2.1-2.1,4.4221,4.4221,0,0,1-.5-1.5,2.2011,2.2011,0,0,1-.1-.8v-.9c-.049-.6365-.074-1.249-.098-1.8492h0c-.025-.6077-.05-1.2029-.098-1.7976l-.004-.0532a.6452.6452,0,0,0-.6-.6c-.4,0-.7.2-.7.6l-.003.0362c-.047.6235-.071,1.2241-.095,1.813-.026.6258-.051,1.2383-.1021,1.8508v1.9a4.5521,4.5521,0,0,0,.5,2,5.5667,5.5667,0,0,0,5.1,3.6h3.6a5.45,5.45,0,0,0,2.2-.5,6.694,6.694,0,0,0,2.9-3.1,6.53,6.53,0,0,0,.5-2h0a3.4027,3.4027,0,0,0,.1-1h0v-.9C604.951,46.1817,604.926,45.5692,604.902,44.969ZM617.5,59.7182a4.0123,4.0123,0,0,0-.3-1.5,1.3816,1.3816,0,0,0-.3-.4.819.819,0,0,0-1,.4,4.0124,4.0124,0,0,0-.3,1.5,2.7042,2.7042,0,0,0,.3,1.5l.3.3a.714.714,0,0,0,1-.3A2.7046,2.7046,0,0,0,617.5,59.7182Zm7.3-16.1c.05.6.075,1.2.1,1.8s.05,1.2.1,1.8a14.0873,14.0873,0,0,1-.1,2,5.3337,5.3337,0,0,1-.7,2,6.2794,6.2794,0,0,1-3.1,2.9,5.5551,5.5551,0,0,1-2.1.4h-3.7a5.0916,5.0916,0,0,1-2.1-.6,6.0262,6.0262,0,0,1-2.8-3.1,6.5269,6.5269,0,0,1-.5-2v-1.9c.05-.6.075-1.2.1-1.8.024-.5691.047-1.1382.092-1.7074.003-.0308.005-.0617.008-.0926,0-.4.3-.6.7-.6a.6453.6453,0,0,1,.6.6l.009.11c.044.5634.067,1.1269.091,1.69h0c.025.6.05,1.2.1,1.8v.9a2.2011,2.2011,0,0,0,.1.8,8.3328,8.3328,0,0,0,.4,1.5,4.0984,4.0984,0,0,0,2,2.1,5.25,5.25,0,0,0,1.098.3509h0c.07.0166.137.0329.202.0491h3.5a2.9654,2.9654,0,0,0,1.4-.2,3.8789,3.8789,0,0,0,2.1-1.9,3.3274,3.3274,0,0,0,.439-.9536h0c.05-.147.101-.2966.161-.4463.052-.2625.077-.5249.104-.8018h0c.024-.2506.048-.5131.096-.7981.05-.6.075-1.2.1-1.8s.05-1.2.1-1.8a.5849.5849,0,0,1,.093-.3338.6982.6982,0,0,1,.607-.2662c.394-.2958.691-.1056.7.2831Z" transform="translate(0 0)"/><path class="i" d="M587.5,42.4182c3.2-.1,6.4-.1,9.6-.1h9.6c3.2,0,6.4.1,9.6.2s6.4.2,9.6.4a.6687.6687,0,0,1,.6.7.6452.6452,0,0,1-.6.6c-3.2.1-6.4.1-9.6.1s-6.4,0-9.6-.1-6.4-.1-9.6-.2l-9.6-.3a.6687.6687,0,0,1-.6-.7A.6452.6452,0,0,1,587.5,42.4182Z" transform="translate(0 0)"/><path class="a" d="M606.9,88.9182l1.2,3a1.02,1.02,0,0,0,.8.5.68.68,0,0,0,.4-.8l-1-3.1-.5-1.6c-.042-.1061-.085-.2212-.129-.3415A4.8788,4.8788,0,0,0,607,85.2182a6.11,6.11,0,0,0-3-2.3c-.5-.2-1.025-.4-1.55-.6s-1.05-.4-1.55-.6l-6.2-2-6.3-1.9a1.0054,1.0054,0,0,0-1.1.5l-1.2,2.7c-.2.45-.375.9-.55,1.35s-.35.9-.55,1.35a.67.67,0,0,0,.3.8.6514.6514,0,0,0,.9-.2c.25-.45.5-.875.75-1.3s.5-.85.75-1.3c.133-.24.267-.4733.398-.7031.223-.3893.441-.769.643-1.1577l5.459,1.7608,6.2,1.9,3.1,1.1a3.8207,3.8207,0,0,1,2.2,1.5c.2.4.4.8.6,1.3Zm3.15-6.95c-.45.175-.9.35-1.35.55a.5688.5688,0,0,0-.4.7.6182.6182,0,0,0,.8.5q.2055-.0456.4171-.0916a23.5288,23.5288,0,0,0,2.383-.6084c.45-.15.925-.275,1.4-.4s.95-.25,1.4-.4c1.633-.43,3.265-.9331,4.835-1.447.0891.1647.177.3308.265.497.225.425.45.85.7,1.25.5.9,1,1.7,1.5,2.5a.67.67,0,0,0,.8.3.74.74,0,0,0,.4-.9c-.3-.9-.7-1.8-1.1-2.7h0c-.4-.8-.8-1.7-1.2-2.6v0a.9476.9476,0,0,0-1.1-.5c-1.9.6-3.8,1.2-5.6,1.8-.58.174-1.126.3815-1.658.5837-.386.1466-.764.29-1.142.4163C610.95,81.6182,610.5,81.7932,610.05,81.9682Z" transform="translate(0 0)"/><path class="c" d="M585,86.4182s10.9,8.5,20.9,8.5,18.2-7.9,18.2-7.9,23,7.6,30.7,28.8h-97s8.8-19.6,27.2-29.4Z" transform="translate(0 0)"/><path class="c" d="M419.3,86.9182l19.4,10.1,18.1-9.9s25.5,3.9,31.4,28.8H392.6c0-.1,0-19.6,26.7-29Z" transform="translate(0 0)"/><path class="c" d="M426.1,82.7182a3.9255,3.9255,0,0,1,1.3.6,5.1707,5.1707,0,0,0,1.3.6,7.8373,7.8373,0,0,0,1.4.5c.5.1,1,.3,1.5.4a31.7811,31.7811,0,0,0,6.2.5,42.0532,42.0532,0,0,0,6.2-.5,30.2948,30.2948,0,0,0,5.9-1.6h.1c.2-.1.4,0,.4.2a.3674.3674,0,0,1-.1.3,13.5755,13.5755,0,0,1-1.2,1.2c-.2.2-.5.3-.7.5a5.9363,5.9363,0,0,1-.8.4,11.9093,11.9093,0,0,1-3.2,1,31.464,31.464,0,0,1-13.2,0c-.5-.1-1.1-.3-1.6-.4a10.41,10.41,0,0,1-1.6-.6,5.4459,5.4459,0,0,1-2.8-2.2.6867.6867,0,0,1,.3-.9.6012.6012,0,0,1,.4-.1Z" transform="translate(0 0)"/><path class="j" d="M448.9,74.7182l-1-6.3c-3.4,3.2-13.4,4.5-20.5,1.1C427.4,69.4182,436.9,75.1182,448.9,74.7182Z" transform="translate(0 0)"/><path class="b" d="M443.55,36.5434a.8865.8865,0,0,0-.65.7748c-.1.2,0,.4.6.7l.6.4a.4652.4652,0,0,0,.459.05.6116.6116,0,0,1,.241-.05,1.2915,1.2915,0,0,0,.279-.0424,1.82,1.82,0,0,1,.421-.0576,8.0831,8.0831,0,0,1,1.6-.1,8.6022,8.6022,0,0,1,1.6.1l.075.0151a3.1248,3.1248,0,0,0,1.625-.0151h.1a.3821.3821,0,0,0,.3-.5,2.3126,2.3126,0,0,0-1.7-1.5,5.2224,5.2224,0,0,0-2.1-.4,14.9193,14.9193,0,0,0-2.1.2c-.2.05-.375.1-.55.15s-.35.1-.55.15A1.5492,1.5492,0,0,1,443.55,36.5434ZM427.4,50.6182a1.6855,1.6855,0,0,1-1.7-1.7v-2.7a1.7,1.7,0,1,1,3.4,0v2.6A1.6534,1.6534,0,0,1,427.4,50.6182Zm10.8-4a.6345.6345,0,0,1,.364.63.9288.9288,0,0,0,.036.27l.1.9c0,.2.011.4.022.6h0a5.4133,5.4133,0,0,1-.022,1.2,10.868,10.868,0,0,1-.1,1.8,2.3138,2.3138,0,0,1-.7,1.8.4833.4833,0,0,1-.7,0,2.3138,2.3138,0,0,1-.7-1.8c0-.3-.025-.6-.05-.9h0c-.025-.3-.05-.6-.05-.9v-1.8l.1-.9a.93.93,0,0,0,.036-.27.6345.6345,0,0,1,.364-.63A1.0514,1.0514,0,0,1,438.2,46.6182Zm7.4,2.3a1.6855,1.6855,0,0,0,1.7,1.7,1.6534,1.6534,0,0,0,1.7-1.8v-2.6a1.7,1.7,0,1,0-3.4,0Zm-12.4,10.7a.9844.9844,0,0,1,.827.0131,2.837,2.837,0,0,0,.273.0869,3.5951,3.5951,0,0,0,1.1.2,16.221,16.221,0,0,0,4.4.1l.116-.0167A7.402,7.402,0,0,1,442,59.9182h.1a.43.43,0,0,1,.4.4v.1a2.94,2.94,0,0,1-1,1.2,3.1581,3.1581,0,0,1-1.18.47h0q-.0615.015-.12.03a12.2165,12.2165,0,0,1-2.6.3,11.5292,11.5292,0,0,1-2.6-.3c-.065-.0162-.133-.0324-.202-.0491a5.243,5.243,0,0,1-1.098-.3509c-.082-.041-.172-.0778-.265-.1155h0c-.36-.1465-.756-.3075-.835-.7845a.8765.8765,0,0,1,.5-1Z" transform="translate(0 0)"/><path class="j" d="M457,52.2182a63.823,63.823,0,0,0,1-9.8,34.7578,34.7578,0,0,0-4.5-19.2,24.0353,24.0353,0,0,0-7.2-7,18.5384,18.5384,0,0,0-9.7-2.8,16.6411,16.6411,0,0,0-9.6,3.1,22.2428,22.2428,0,0,0-6.6,7.7c-3.2,6-4.2,12.8-4.3,19.4a56.0783,56.0783,0,0,0,.7,10,24.6846,24.6846,0,0,0,3.7,9.4,20.472,20.472,0,0,0,7.5,6.8,20.9836,20.9836,0,0,0,9.8,2.5,18.6425,18.6425,0,0,0,9.7-2.9,19.3551,19.3551,0,0,0,6.5-7.7A35.0553,35.0553,0,0,0,457,52.2182Zm-5-28.1c3.5,5.3,4.8,11.9,4.6,18.3a78.1284,78.1284,0,0,1-1,9.6,38.8791,38.8791,0,0,1-3,9.1,18.8058,18.8058,0,0,1-6.1,7,16.4093,16.4093,0,0,1-8.9,2.5,19.098,19.098,0,0,1-15.8-8.6,24.3308,24.3308,0,0,1-3.4-8.7,51.1013,51.1013,0,0,1-.7-9.6c.1-6.4,1-12.9,3.9-18.6a21.6716,21.6716,0,0,1,6-7.1,15.1306,15.1306,0,0,1,8.7-2.9,17.5887,17.5887,0,0,1,8.9,2.5A22.1865,22.1865,0,0,1,452,24.1182Z" transform="translate(0 0)"/><path class="b" d="M430.8,38.3182c-.4.3-.4.1-.7,0a1.7019,1.7019,0,0,0-.7-.1,8.6019,8.6019,0,0,0-1.6-.1,8.0826,8.0826,0,0,0-1.6.1,3.2433,3.2433,0,0,1-1.7,0h-.1c-.2-.1-.4-.3-.3-.5a2.1612,2.1612,0,0,1,1.7-1.5,15.5262,15.5262,0,0,1,2.1-.4,7.4872,7.4872,0,0,1,2.1.2c.3.1.7.2,1.1.3.3.2.9.2.9.9a.7128.7128,0,0,1-.3.6Z" transform="translate(0 0)"/><path class="j" d="M445.8,16.4182a38.0931,38.0931,0,0,0-11.7-2c-13.1-.2-18.4,20.4-17.5,31.8l-3,33.6h14.1l1.2-10.4s-10.6-3.2-12-21c10.5-4,14.3-15.3,14.3-15.3s14.9,1.8,19.4-7.5c.6,1,1.2,2,1.8,3.1,4,7.3,4,17.2,3.9,19a19.9794,19.9794,0,0,0,1-2.1c-2.2,17.3-11.6,24.8-11.6,24.8l1.7,9.4,11.7.1-1.4-34.8C469.8,18.9182,454.3,17.6182,445.8,16.4182Z" transform="translate(0 0)"/><path class="d" d="M439.6,94.4182c.2,1.8.2,3.6.3,5.4,0,1.8.1,3.6,0,5.4,0,1.8,0,3.6-.1,5.4,0,1.8-.1,3.6-.2,5.4,0,.4-.3.6-.7.6a.6452.6452,0,0,1-.6-.6c-.1-1.8-.2-3.6-.2-5.4-.1-1.8-.1-3.6-.1-5.4v-5.4c.1-1.8.1-3.6.3-5.4a.6612.6612,0,0,1,.7-.6A.6453.6453,0,0,1,439.6,94.4182Z" transform="translate(0 0)"/><path class="d" d="M133.012,93.4908c.559-2.1136,1.226-4.2157,1.944-6.2773-.592-1.065-1.151-2.1467-1.72-3.2452h0q-.1665-.324-.336-.65l-4.3-7.9-7.864-14.6171-8.586,7.1281,12.15,11.589a.9593.9593,0,0,1,.3,1,7.8724,7.8724,0,0,0,.1,4.8,8.3369,8.3369,0,0,0,2.8,3.9c.7.55,1.425,1.1,2.15,1.65v.0005c.725.55,1.45,1.1,2.15,1.65C132.204,92.8357,132.608,93.1615,133.012,93.4908Z" transform="translate(0 0)"/></svg>
