<svg xmlns="http://www.w3.org/2000/svg" xmlns:xlink="http://www.w3.org/1999/xlink" viewBox="0 0 199.1396 200.7191"><defs><style>.a{fill:none;}.b{clip-path:url(#a);}.c{fill:#fff;}.d{fill:#bedae6;}.e{fill:#c3c4c7;}.f{fill:#004e6e;}.g{fill:#6ab3d0;}.h{fill:#187aa2;}.i{fill:#98c6d9;}</style><clipPath id="a" transform="translate(0 0)"><rect class="a" width="198.14" height="199.72"/></clipPath></defs><title>woocommerce-relaxed</title><g class="b"><path class="c" d="M171.03,83.9385a1.8695,1.8695,0,0,0,1.4,2.61l16,3.51a2.85,2.85,0,0,0,3.18-1.58,1.87,1.87,0,0,0-1.4-2.61l-16-3.51a2.85,2.85,0,0,0-3.14,1.62Z" transform="translate(0 0)"/><path class="d" d="M189.0391,91.1234a3.89,3.89,0,0,1-.8193-.0874l-16.0039-3.5107a2.8245,2.8245,0,0,1-2.0078-1.4629,2.89,2.89,0,0,1-.09-2.5332.9968.9968,0,0,1,.2227-.3149,3.8316,3.8316,0,0,1,4.0605-1.8374l16.0225,3.5151a2.8547,2.8547,0,0,1,2.01,1.4658,2.8892,2.8892,0,0,1,.09,2.5288A3.84,3.84,0,0,1,189.0391,91.1234ZM171.877,84.5687a.88.88,0,0,0,.0928.5469.8679.8679,0,0,0,.624.4468l16.05,3.52a1.8447,1.8447,0,0,0,2.0605-1.0269.87.87,0,0,0-.6572-1.2l-16.0508-3.5205a1.8367,1.8367,0,0,0-2.0146,1.0566A.9888.9888,0,0,1,171.877,84.5687Z" transform="translate(0 0)"/><path class="c" d="M171.03,83.9385a1.8695,1.8695,0,0,0,1.4,2.61l16,3.51a2.85,2.85,0,0,0,3.18-1.58,1.87,1.87,0,0,0-1.4-2.61l-16-3.51a2.85,2.85,0,0,0-3.14,1.62Z" transform="translate(0 0)"/><path class="e" d="M189.0391,91.1234a3.89,3.89,0,0,1-.8193-.0874l-16.0039-3.5107a2.8245,2.8245,0,0,1-2.0078-1.4629,2.89,2.89,0,0,1-.09-2.5332.9968.9968,0,0,1,.2227-.3149,3.8316,3.8316,0,0,1,4.0605-1.8374l16.0225,3.5151a2.8547,2.8547,0,0,1,2.01,1.4658,2.8892,2.8892,0,0,1,.09,2.5288A3.84,3.84,0,0,1,189.0391,91.1234ZM171.877,84.5687a.88.88,0,0,0,.0928.5469.8679.8679,0,0,0,.624.4468l16.05,3.52a1.8447,1.8447,0,0,0,2.0605-1.0269.87.87,0,0,0-.6572-1.2l-16.0508-3.5205a1.8367,1.8367,0,0,0-2.0146,1.0566A.9888.9888,0,0,1,171.877,84.5687Z" transform="translate(0 0)"/><path class="c" d="M172.02,129.859H114.89a7.39,7.39,0,0,1-7.38-7l1.93-36.2405a7.39,7.39,0,0,1,7.38-7.81h57.12a7.39,7.39,0,0,1,7.38,7l-1.93,36.2405a7.3909,7.3909,0,0,1-7.37,7.81Z" transform="translate(0 0)"/><path class="e" d="M172.0205,130.8587H114.89a8.3892,8.3892,0,0,1-8.3789-7.9473q-.0015-.0527,0-.1055l1.9287-36.1875a8.39,8.39,0,0,1,8.3789-8.81H173.94a8.3888,8.3888,0,0,1,8.3789,7.9473c.001.0352.001.0708,0,.106l-1.9287,36.1875a8.3883,8.3883,0,0,1-8.37,8.81Zm-63.5088-8.002a6.3881,6.3881,0,0,0,6.3779,6.002h57.1289a6.3909,6.3909,0,0,0,6.373-6.752,1.0422,1.0422,0,0,1-.001-.11L180.3184,85.81a6.3881,6.3881,0,0,0-6.3779-6.0015H116.8184a6.39,6.39,0,0,0-6.38,6.7534,1.0308,1.0308,0,0,1,.001.11Z" transform="translate(0 0)"/><path class="c" d="M169.64,148.539c1.7-17,7.31-29.5,14-29.5,8,0,14.5,18.06,14.5,40.34s-6.49,40.34-14.5,40.34" transform="translate(0 0)"/><path class="e" d="M183.64,200.7191a1,1,0,0,1,0-2c7.3174,0,13.5-18.0156,13.5-39.34,0-23.5322-6.98-39.34-13.5-39.34-5.8779,0-11.3477,12.0283-13.0049,28.6a1,1,0,1,1-1.99-.1992c1.8184-18.1836,7.8447-30.4,14.9951-30.4,8.6914,0,15.5,18.1582,15.5,41.34S192.3311,200.7191,183.64,200.7191Z" transform="translate(0 0)"/><path class="e" d="M128.28,48.4785v-4c-5.08.87-9.59,1.3-13.53,0S120.95,48.5985,128.28,48.4785Z" transform="translate(0 0)"/><path class="f" d="M114.85,25.9386h0a1.23,1.23,0,0,1,1.23,1.23v1.92a1.23,1.23,0,0,1-1.23,1.23h0a1.23,1.23,0,0,1-1.23-1.23v-1.92A1.23,1.23,0,0,1,114.85,25.9386Z" transform="translate(0 0)"/><path class="f" d="M117.24,21.6385l-.21-.09h-.41a13.535,13.535,0,0,0-1.59-.08,8.2136,8.2136,0,0,0-1.59.16,3.24,3.24,0,0,0-.48.12l-.17.06h-.09a.5.5,0,0,1-.59-.33.5118.5118,0,0,1,.11-.47,2.8189,2.8189,0,0,1,.82-.57,5.438,5.438,0,0,1,.91-.32,7.715,7.715,0,0,1,1.07-.13,4.821,4.821,0,0,1,1.07.06,4.1843,4.1843,0,0,1,.93.26,2.282,2.282,0,0,1,.37.18,3.469,3.469,0,0,1,.32.22,1.4839,1.4839,0,0,1,.16.18.51.51,0,0,1-.13.72.52.52,0,0,1-.5.03Z" transform="translate(0 0)"/><path class="g" d="M142.36,29.0885c-.56-6.36,1.57-9.37-1.69-18.56-2.06-5.8-12.07-12.47-22.36-10-11.12,1.52-15.84,11.56-15.84,22.86,0,15.13-9.16,14.72-9.16,25.32s7.33,12.2,7.33,12.2a18.5876,18.5876,0,0,0,7.35-.39v-5.26a6.34,6.34,0,0,0,5.54-5.52l.65-5.26c-6.2-1.06-7.88-19.66-7.88-19.66,11.88.8,14.49-8,17.19-13.25a24.0047,24.0047,0,0,0,6.49,7c6.77,5.08,6.2,14.43,3.38,19.74-2.66,5-5.66,5.6-5.66,5.6l.2,5.92a5.45,5.45,0,0,0,4.67,5.21l1.35.19v5.39h5.48s5.36-2.65,8-10.34-4.7-17.3-5.04-21.19Z" transform="translate(0 0)"/><path class="f" d="M106.86,24.4786l.08,2.51c.06.79.1,1.74.21,2.84l.2,1.74.32,1.9c.14.65.31,1.33.49,2a17.5509,17.5509,0,0,0,.76,2.06,10.2644,10.2644,0,0,0,2.66,3.75,10.5012,10.5012,0,0,0,4.33,2.3,21.0068,21.0068,0,0,0,5.2.71h1.31l1.36-.07a8.2607,8.2607,0,0,0,1.29-.16,8.7863,8.7863,0,0,0,1.24-.24,8.9994,8.9994,0,0,0,4.25-2.28,9.84,9.84,0,0,0,2.39-3.89,20.5857,20.5857,0,0,0,1-4.16c.2-1.33.28-2.57.36-3.66s.11-2.06.13-2.86l.06-2.5a.5.5,0,1,1,1,0v5.42a36.757,36.757,0,0,1-.27,3.78,21.8862,21.8862,0,0,1-1,4.45,10.87,10.87,0,0,1-2.69,4.46,10.4887,10.4887,0,0,1-4.9,2.69,10.2376,10.2376,0,0,1-1.41.28,9.9318,9.9318,0,0,1-1.41.18l-1.36.06h-1.43a22.3963,22.3963,0,0,1-5.56-.79,11.9458,11.9458,0,0,1-4.88-2.64,11.5592,11.5592,0,0,1-2.93-4.27,18.8609,18.8609,0,0,1-.78-2.24c-.18-.74-.34-1.45-.48-2.14l-.29-2-.15-1.79c-.08-1.12-.09-2.11-.13-2.92v-2.51a.5.5,0,0,1,1,0Z" transform="translate(0 0)"/><path class="f" d="M122.4,26.1085s.1.43.19,1.07a22.5363,22.5363,0,0,1,.19,2.35,20.7069,20.7069,0,0,1-.06,2.35,10.4086,10.4086,0,0,1-.14,1.07.55.55,0,0,1-1.09,0,10.4086,10.4086,0,0,1-.14-1.07,20.9415,20.9415,0,0,1-.06-2.35,22.5363,22.5363,0,0,1,.19-2.35c.09-.64.19-1.07.19-1.07a.39.39,0,0,1,.75,0Z" transform="translate(0 0)"/><rect class="f" x="127.72" y="25.9386" width="2.46" height="4.38" rx="1.23" ry="1.23"/><path class="f" d="M125.96,20.6585a1.5729,1.5729,0,0,0-.16.18l-.02.01a.51.51,0,0,0,.62.77l.21-.09h.41a13.5568,13.5568,0,0,1,1.59-.08,8.2059,8.2059,0,0,1,1.59.16,3.2271,3.2271,0,0,1,.48.12l.17.06h.1a.5.5,0,0,0,.5-.83,2.8189,2.8189,0,0,0-.82-.57,5.438,5.438,0,0,0-.91-.32,7.73,7.73,0,0,0-1.07-.13,4.821,4.821,0,0,0-1.07.06,4.1843,4.1843,0,0,0-.93.26,2.3238,2.3238,0,0,0-.37.18A3.47,3.47,0,0,0,125.96,20.6585Zm-6.73,16.15-.28-.11a.5243.5243,0,0,0-.52.89l.23.2a4.1239,4.1239,0,0,0,.36.22,3.7162,3.7162,0,0,0,.46.22,6.9981,6.9981,0,0,0,2.52.47,10.2589,10.2589,0,0,0,1.36-.09,6.9143,6.9143,0,0,0,1.19-.31,3.9943,3.9943,0,0,0,.81-.45l.28-.25a.49.49,0,0,0-.5-.82h-.13l-.21.09a4.1037,4.1037,0,0,1-.62.17,10.6357,10.6357,0,0,1-2.15.13,17.4921,17.4921,0,0,1-2.17-.22c-.092-.0223-.174-.0446-.247-.0647A1.5318,1.5318,0,0,0,119.23,36.8085Z" transform="translate(0 0)"/><path class="h" d="M172.29,103.759s-3.68-42.2905-37.7-48.5005c0,0-5.47,7.9-14,7.9s-12.77-7.9-12.77-7.9c-34,10.71-32.18,49.0605-32.18,49.0605H96.86l-.57,32.71h55.28l-1.46-32.82Z" transform="translate(0 0)"/><path class="g" d="M121.18,71.0885a1.28,1.28,0,1,0-1.28-1.28A1.28,1.28,0,0,0,121.18,71.0885Z" transform="translate(0 0)"/><path class="c" d="M111.92,103.189h-3.38c-5.64,0-6.77-19.17-6.77-19.17h17.48s-2.25,19.17-7.33,19.17Z" transform="translate(0 0)"/><path class="c" d="M154.78,139.279c-19.17,0-26.5-32.14-26.5-32.14a19.3485,19.3485,0,0,1-6.77-2.82c-3-2-3.38-6.2005-3.38-6.2005a28.6834,28.6834,0,0,0-8.46.56c-1.33.34-1.69-.56-2.26-2.26s.56-3.95,3.38-4.51c10-5.64,12.75-1.68,14.66,0,4.51,3.95,26.5,21.43,26.5,21.43" transform="translate(0 0)"/><path class="d" d="M115.11,36.8386a1.083,1.083,0,0,0,0,.29l.43.17a1.0973,1.0973,0,0,0,.22-.2,1.7815,1.7815,0,0,0,.3-.51,2.0131,2.0131,0,0,0,.11-.58,1.2782,1.2782,0,0,0,0-.29l-.44-.17a1.2953,1.2953,0,0,0-.21.2,1.985,1.985,0,0,0-.3.51A1.7951,1.7951,0,0,0,115.11,36.8386Zm13.32.26a1.0975,1.0975,0,0,0,.22.2l.43-.17a1.083,1.083,0,0,0,0-.29,1.7689,1.7689,0,0,0-.11-.58,1.9852,1.9852,0,0,0-.3-.51,1.2952,1.2952,0,0,0-.21-.2l-.44.17a1.2782,1.2782,0,0,0,0,.29,2.013,2.013,0,0,0,.11.58A1.7817,1.7817,0,0,0,128.43,37.0986Z" transform="translate(0 0)"/><path class="e" d="M130.54,113.849a.5.5,0,0,1-.3418-.8643l9.02-8.46a.5.5,0,0,1,.6836.7285l-9.02,8.46A.4964.4964,0,0,1,130.54,113.849Z" transform="translate(0 0)"/><path class="i" d="M57,133.079h43.42a3.9494,3.9494,0,0,1,3.95,3.95H57v-3.95Z" transform="translate(0 0)"/><path class="i" d="M73.9,137.029H8.65l-5.78-41.81a6.37,6.37,0,0,1,6.31-7.25H61.55a6.37,6.37,0,0,1,6.31,5.5Z" transform="translate(0 0)"/><path class="c" d="M162.68,137.029h18.35v13.16" transform="translate(0 0)"/><path class="e" d="M162.68,136.609a56.8547,56.8547,0,0,1,9.18-.62q4.59-.09,9.18,0a1.06,1.06,0,0,1,1,1.07l-.07,6.58c0,1.1,0,2.19-.1,3.29s-.12,2.19-.24,3.29a.67.67,0,0,1-1.33,0c-.12-1.1-.18-2.19-.24-3.29s-.07-2.19-.1-3.29l-.07-6.58,1.07,1.07q-4.59.06-9.18,0a57.0809,57.0809,0,0,1-9.18-.62.43.43,0,0,1,0-.84Z" transform="translate(0 0)"/><path class="c" d="M166.94,131.649l-4.26,1.5-11.4-1.33,2.17-6.84,9.23-1.66,6.13,3.67ZM.76,137.029v13.16l145-13.16Z" transform="translate(0 0)"/><path class="e" d="M.34,150.189l-.2-6.58c-.08-2.19-.1-4.39-.14-6.58a.749.749,0,0,1,.73-.76c6-.14,12.08-.15,18.12-.22l18.12-.05,36.25-.05,36.25.08,18.13.12,9.06.07,9.06.15a.67.67,0,0,1,0,1.33l-9.06.15-9.06.07-18.12.12-36.25.08-36.25-.05-18.12-.05c-6-.07-12.08-.08-18.12-.22l.76-.76c0,2.19-.07,4.39-.14,6.58l-.2,6.58a.42.42,0,0,1-.84,0Z" transform="translate(0 0)"/><path class="f" d="M110.06,91.6286l.44-.36a11.7311,11.7311,0,0,1,1.34-.95,7.6817,7.6817,0,0,1,1.05-.59,9.3285,9.3285,0,0,1,1.3-.56,12.1643,12.1643,0,0,1,3.36-.72,12.4661,12.4661,0,0,1,4.08.39,12.0887,12.0887,0,0,1,4.2,2l3.53,2.91,3.64,3,13.4,11c3.65,3,6,5.14,6,5.14a.67.67,0,0,1-.83,1s-2.62-1.77-6.35-4.67c-1.88-1.43-4-3.16-6.35-5l-7.27-5.74-3.64-3c-1.19-1-2.41-2-3.46-2.93a9.9938,9.9938,0,0,0-3.41-1.71,12.2947,12.2947,0,0,0-3.47-.47,13.7468,13.7468,0,0,0-3,.34,16.2834,16.2834,0,0,0-2.26.67,12.1473,12.1473,0,0,0-1.45.61l-.53.23a.34.34,0,0,1-.35-.57Z" transform="translate(0 0)"/><path class="f" d="M108.18,92.8785l-.44.29.06.01a.5012.5012,0,1,0,.48.88l.48-.21a1.95,1.95,0,0,1,.287-.1141c.075-.0255.153-.0521.233-.0859a3.139,3.139,0,0,1,.354-.1137c.112-.0315.23-.0646.346-.1063a16.3367,16.3367,0,0,1,3.94-.54,21.3514,21.3514,0,0,1,2.14.07c.68.06,1.32.12,1.86.22.164.03.321.058.468.084.338.06.626.11.842.166l.5.1a.5.5,0,0,0,.3-.95l-.5-.22a10.4043,10.4043,0,0,0-1.36-.46,14.1234,14.1234,0,0,0-4.33-.5,15.692,15.692,0,0,0-2.33.26,13.1758,13.1758,0,0,0-2,.57c-.067.0289-.133.0566-.198.0837a6.1175,6.1175,0,0,0-.562.2563c-.079.043-.156.0834-.23.1218C108.389,92.7589,108.27,92.8208,108.18,92.8785Zm-.37,2.33.48-.21a12.3253,12.3253,0,0,1,1.35-.47,15.1863,15.1863,0,0,1,2-.41,17.2655,17.2655,0,0,1,2.31-.12,14.4114,14.4114,0,0,1,2.3.22,15.157,15.157,0,0,1,2,.47,12.2058,12.2058,0,0,1,1.33.48l.49.22a.5.5,0,0,1-.31.95l-.5-.11c-.208-.0535-.483-.1071-.804-.17h0c-.158-.0309-.328-.0639-.506-.1a27.2426,27.2426,0,0,0-4-.46,19.0824,19.0824,0,0,0-4,.28l-.07.0128h0a11.3047,11.3047,0,0,0-1.21.2572l-.51.13a.5.5,0,0,1-.33-.94Zm1.02,2.86a9.7044,9.7044,0,0,1,1-.57,7.6131,7.6131,0,0,1,1.19-.46,10.4284,10.4284,0,0,1,2.45-.48,12.1478,12.1478,0,0,1,2.49.05q.615.075,1.23.21l.61.15.09.0255c.176.05.345.0975.55.1745a1,1,0,0,1,.64.8v.05a3.1955,3.1955,0,0,0,.113.6631h0c.009.04.018.0787.027.1169.06.26.13.54.21.81a9.4673,9.4673,0,0,0,.62,1.5305,6.79,6.79,0,0,0,.88,1.32,4.8358,4.8358,0,0,0,.54.55,6.7166,6.7166,0,0,0,.59.46l.032.02c.242.155.508.325.728.45.057.032.116.065.175.1.18.103.37.212.565.31a14.1567,14.1567,0,0,0,1.57.73l.111.042h0c.526.204,1.005.389,1.519.548l.83.24c.27.07.57.14.8.18a1.0785,1.0785,0,0,1,.86.81c.4,1.66.92,3.36,1.46,5s1.16,3.31,1.82,4.93a60.0681,60.0681,0,0,0,4.73,9.32,33.1514,33.1514,0,0,0,6.62,7.85,17.3164,17.3164,0,0,0,9,4.09,5.8613,5.8613,0,0,1,.657.05h0c.195.022.39.045.583.05h1.27a14.2,14.2,0,0,0,2.43-.32,11.2368,11.2368,0,0,0,4.37-2.07,17.313,17.313,0,0,0,5.42-8.32,47.85,47.85,0,0,0,2-10.2c.19-1.74.3-3.5.35-5.26s.08-3.53,0-5.29a.3314.3314,0,1,1,.66-.06,49.9668,49.9668,0,0,1,.57,5.35c.08,1.79.09,3.59,0,5.39a40.5656,40.5656,0,0,1-1.79,10.71,24.34,24.34,0,0,1-2.27,5.06,15.7151,15.7151,0,0,1-3.7,4.29,13.336,13.336,0,0,1-5.17,2.49,16.2849,16.2849,0,0,1-2.85.39h-1.3a13.3627,13.3627,0,0,1-1.41-.1,17.805,17.805,0,0,1-5.43-1.53,21.7916,21.7916,0,0,1-4.73-3,34.6949,34.6949,0,0,1-7.11-8.34,62.24,62.24,0,0,1-4.86-9.69q-1.0005-2.511-1.85-5.08c-.491-1.509-.936-3.001-1.328-4.559-.07-.017-.142-.034-.215-.051l-.087-.02-.93-.27c-.61-.19-1.22-.42-1.81-.67s-1.17-.52-1.74-.83c-.28-.15-.57-.31-.85-.48-.176-.107-.336-.21-.498-.314h0c-.096-.062-.192-.123-.292-.186a8.2048,8.2048,0,0,1-.85-.67,6.72,6.72,0,0,1-.73-.76,8.8924,8.8924,0,0,1-1.13-1.73,11.5634,11.5634,0,0,1-.74-1.87h0c-.09-.32-.18-.64-.25-1-.023-.1035-.045-.2074-.065-.3116l-.425-.1084a9.6005,9.6005,0,0,0-1.05-.18c-.35-.04-.71-.08-1.07-.1-.24-.0133-.475-.0089-.711-.0044h0c-.119.0022-.239.0044-.359.0044a6.4013,6.4013,0,0,0-1.07.06c-.141.0236-.281.041-.42.0583h0a6.3846,6.3846,0,0,0-.64.1017c-.111.0255-.222.05-.331.0741-.233.0516-.458.1014-.669.1559-.155.04-.335.1-.522.1625s-.383.1275-.568.1775a.67.67,0,0,1-.51-1.23Z" transform="translate(0 0)"/><path class="e" d="M113.96,32.1485v-.565l-.02,0Zm-4.42-3.87-.563.0445.001.01Zm-.09-1.14-.564.0276.001.0169Zm2.95-2.91-.035.5639.015.0008Zm3.46.12-.02.5647.015,0Zm3.49,3.57.564.0339.001-.0258Zm10.24,4.77.056-.5623-.01-.0008Zm4.69-3.56.557.0978.002-.0137Zm.17-1.13.559.0841.002-.0144Zm-2.72-3.1-.02.5647.016,0Zm-3.46-.12-.031.5643.011,0Zm-3.74,3.32-.564-.0357-.001.0272Zm-9.71,3.485h-.86v1.13h.86Zm-.88,0a3.7255,3.7255,0,0,1-3.838-3.36l-1.124.11a4.8548,4.8548,0,0,0,5.002,4.38Zm-3.837-3.35-.09-1.14-1.126.0889.09,1.14Zm-.089-1.1231a2.22,2.22,0,0,1,.657-1.6848l-.793-.8044a3.3409,3.3409,0,0,0-.992,2.5443Zm.657-1.6848a2.217,2.217,0,0,1,1.694-.6338l.07-1.1278a3.3428,3.3428,0,0,0-2.557.9572Zm1.709-.633,3.46.12.04-1.1293-3.46-.12Zm3.475.12a2.9525,2.9525,0,0,1,2.088.8892l.808-.79a4.0835,4.0835,0,0,0-2.886-1.2292Zm2.088.8892a2.9561,2.9561,0,0,1,.842,2.1078l1.13.0161a4.0844,4.0844,0,0,0-1.164-2.9138Zm.843,2.082a3.9353,3.9353,0,0,1-3.961,3.6989l-.01,1.13a5.0653,5.0653,0,0,0,5.099-4.7611Zm9.898,5.297.86.07.092-1.1263-.86-.07Zm.851.0691a4.8956,4.8956,0,0,0,5.302-4.0245l-1.113-.1955a3.7657,3.7657,0,0,1-4.078,3.0955Zm5.304-4.0382.17-1.13-1.118-.1681-.17,1.13Zm.172-1.1444a3.3257,3.3257,0,0,0-.801-2.6027l-.849.7453a2.1929,2.1929,0,0,1,.528,1.7181Zm-.801-2.6027a3.3243,3.3243,0,0,0-2.476-1.1319l-.008,1.13a2.1944,2.1944,0,0,1,1.635.7473Zm-2.46-1.1316-3.46-.12-.04,1.1293,3.46.12Zm-3.449-.12a4.1153,4.1153,0,0,0-4.335,3.8484l1.128.0715a2.9853,2.9853,0,0,1,3.145-2.7916ZM123.965,28.09a5.0252,5.0252,0,0,0,4.732,5.0926l.066-1.1281a3.8951,3.8951,0,0,1-3.668-3.9474Z" transform="translate(0 0)"/><path class="e" d="M124.59,26.9237l-.0186,0-5.35-.18a.5642.5642,0,0,1-.5459-.5835.5728.5728,0,0,1,.583-.5454l5.35.18a.5649.5649,0,0,1-.0186,1.1294Z" transform="translate(0 0)"/><path class="f" d="M128.99,46.5386l-.05-2h-.08a.67.67,0,0,0-1.33,0l-.05,2-.06,2.31v1.46a6.1473,6.1473,0,0,0,.4,1.8,6.2705,6.2705,0,0,0,4.68,3.92l1.94.4a48.6927,48.6927,0,0,1,8,2.54,46.1464,46.1464,0,0,1,7.44,3.87,43.303,43.303,0,0,1,5.79,4.46,41.31,41.31,0,0,1,3.59,3.74c.81.96,1.25,1.53,1.25,1.53a.67.67,0,0,0,1.07-.79l-.3-.44c-.037-.0545-.078-.1139-.121-.1778-.188-.2765-.434-.638-.759-1.0522a35.2789,35.2789,0,0,0-3.55-4.07,38.4987,38.4987,0,0,0-5.93-4.82,43.5821,43.5821,0,0,0-7.74-4.09,50.65,50.65,0,0,0-8.36-2.56c-.66-.15-1.35-.28-2-.38a4.4217,4.4217,0,0,1-1.5-.53,4.532,4.532,0,0,1-1.93-2.19,5.3132,5.3132,0,0,1-.34-1.25v-1.37Zm-50.11,60.18a1.8566,1.8566,0,0,1,.22.7,8.7057,8.7057,0,0,1,.0123,1.082c-.0059.241-.0123.502-.0123.778,0,1.54,0,3.59-.13,5.63-.06,1-.13,2-.22,3-.02.221-.0384.434-.0562.641-.0628.726-.1182,1.367-.2038,1.959a12.5715,12.5715,0,0,1-.38,1.82,5.3464,5.3464,0,0,1-.24.69.2719.2719,0,0,1-.36.13.2707.2707,0,0,1-.14-.16,5.2564,5.2564,0,0,1-.16-.71,11.9062,11.9062,0,0,1-.15-1.86c0-.482.0235-1.011.0484-1.573.0149-.335.03-.682.0416-1.037.0231-.732.064-1.523.1044-2.304v-.001c.0121-.233.0241-.466.0356-.695l.16-3,.1-2.6a13.6267,13.6267,0,0,1,.07-1.84,1.8549,1.8549,0,0,1,.22-.7.61.61,0,0,1,1.04.05Zm10.35,13.13a4.267,4.267,0,0,1,.38.37,6.8792,6.8792,0,0,1,.68.91,4.4923,4.4923,0,0,1,.5,1,2.5809,2.5809,0,0,1,.14.52.5505.5505,0,0,1-.86.51,2.6157,2.6157,0,0,1-.39-.36,4.5146,4.5146,0,0,1-.66-.92,6.9906,6.9906,0,0,1-.49-1,4.3954,4.3954,0,0,1-.15-.51.53.53,0,0,1,.86-.51Z" transform="translate(0 0)"/><path class="c" d="M163.95,140.319h11v11h-11Z" transform="translate(0 0)"/></g></svg>
