<svg width="219" height="77" viewBox="0 0 219 77" fill="none" xmlns="http://www.w3.org/2000/svg">
<g clip-path="url(#clip0)">
<path d="M3 57.8C12.5 45.7 46 31.7 71.7 32.2C101.5 32.8 114.1 39.4 137 38.4C176.7 36.7 169.5 3.70001 215.9 3.70001V70.9H3V57.8Z" fill="#95ADC1"/>
<path fill-rule="evenodd" clip-rule="evenodd" d="M188.759 33.1109C188.707 29.3678 188.655 25.6674 188 21.9H187.5C186.845 25.6674 186.793 29.3677 186.741 33.1109C186.73 33.9381 186.718 34.7674 186.7 35.6C186.6 40.2 186.6 44.7 186.6 49.3C186.6 53.9 186.6 58.4 186.7 63C186.718 63.8326 186.73 64.662 186.741 65.4892C186.793 69.2323 186.845 72.9326 187.5 76.7H188C188.655 72.9326 188.707 69.2323 188.759 65.4892C188.77 64.6619 188.782 63.8326 188.8 63C188.9 58.4 188.9 53.9 188.9 49.3C188.9 44.7 188.9 40.2 188.8 35.6C188.782 34.7674 188.77 33.9381 188.759 33.1109ZM161.9 43C162.556 45.132 162.607 47.2639 162.659 49.4509V49.4515C162.67 49.9315 162.682 50.4141 162.7 50.9C162.8 53.5 162.8 56.1 162.8 58.8C162.8 61.4 162.8 64 162.7 66.7C162.682 67.1738 162.67 67.6475 162.659 68.1219C162.607 70.2508 162.554 72.392 161.9 74.6H161.4C160.744 72.4681 160.693 70.3362 160.641 68.1491V68.1486C160.63 67.6686 160.618 67.1859 160.6 66.7C160.5 64.1 160.5 61.5 160.5 58.8C160.5 56.2 160.5 53.6 160.6 50.9C160.618 50.4263 160.63 49.9525 160.641 49.4782C160.693 47.3492 160.746 45.208 161.4 43H161.9ZM84.559 49.4054C84.5068 47.3002 84.456 45.2501 83.8 43.2H83.3C82.6458 45.3262 82.5934 47.3855 82.5414 49.4326V49.4326C82.5298 49.8888 82.5182 50.3444 82.5 50.8C82.4 53.4 82.4 55.9 82.4 58.4C82.4 61 82.4 63.5 82.5 66C82.518 66.468 82.5295 66.9326 82.541 67.3947C82.5932 69.4999 82.644 71.55 83.3 73.6H83.8C84.4542 71.4739 84.5066 69.4146 84.5586 67.3675V67.3674C84.5702 66.9112 84.5818 66.4556 84.6 66C84.7 63.4 84.7 60.9 84.7 58.4C84.7 55.8 84.7 53.3 84.6 50.8C84.582 50.3321 84.5705 49.8674 84.559 49.4054ZM57.8 44.4C58.4561 46.3683 58.5069 48.3365 58.559 50.3599C58.5705 50.8038 58.582 51.2503 58.6 51.7C58.7 54.1 58.7 56.5 58.7 59C58.7 61.4 58.7 63.8 58.6 66.3C58.5818 66.7374 58.5702 67.1747 58.5586 67.6127L58.5586 67.6129C58.5066 69.5782 58.4542 71.5557 57.8 73.6H57.3C56.6439 71.6318 56.5931 69.6635 56.541 67.6401C56.5295 67.1963 56.518 66.7498 56.5 66.3C56.4 63.9 56.4 61.5 56.4 59C56.4 56.6 56.4 54.2 56.5 51.7C56.5182 51.2627 56.5298 50.8253 56.5414 50.3874L56.5414 50.3872C56.5934 48.4219 56.6458 46.4444 57.3 44.4H57.8ZM31.7 52.5C32.3562 53.9765 32.4069 55.3857 32.4591 56.838C32.4705 57.1562 32.482 57.4765 32.5 57.8C32.6 59.6 32.6 61.3 32.6 63.1C32.6 64.9 32.6 66.6 32.5 68.4C32.482 68.7235 32.4705 69.0438 32.4591 69.362C32.4069 70.8143 32.3562 72.2235 31.7 73.7H31.2C30.5438 72.2235 30.4931 70.8143 30.4409 69.362C30.4295 69.0438 30.418 68.7235 30.4 68.4C30.3 66.6 30.3 64.9 30.3 63.1C30.3 61.3 30.3 59.6 30.4 57.8C30.418 57.4765 30.4295 57.1562 30.4409 56.838C30.4931 55.3857 30.5438 53.9765 31.2 52.5H31.7ZM109.9 48.1C110.555 49.8182 110.607 51.5364 110.659 53.2546C110.67 53.6364 110.682 54.0182 110.7 54.4C110.8 56.5 110.8 58.6 110.8 60.7C110.8 62.8 110.8 64.9 110.7 67C110.682 67.3818 110.67 67.7637 110.659 68.1455C110.607 69.8637 110.555 71.5818 109.9 73.3H109.4C108.745 71.5818 108.693 69.8637 108.641 68.1455C108.63 67.7636 108.618 67.3818 108.6 67C108.5 64.9 108.5 62.8 108.5 60.7C108.5 58.6 108.5 56.5 108.6 54.4C108.618 54.0182 108.63 53.6364 108.641 53.2546C108.693 51.5364 108.745 49.8182 109.4 48.1H109.9ZM136.659 54.2091C136.607 52.5728 136.555 50.9364 135.9 49.3H135.4C134.745 50.9364 134.693 52.5728 134.641 54.2091C134.63 54.5728 134.618 54.9364 134.6 55.3C134.5 57.3 134.5 59.3 134.5 61.3C134.5 63.3 134.5 65.3 134.6 67.3C134.618 67.6637 134.63 68.0273 134.641 68.3909C134.693 70.0273 134.745 71.6637 135.4 73.3H135.9C136.555 71.6637 136.607 70.0273 136.659 68.3909C136.67 68.0273 136.682 67.6637 136.7 67.3C136.8 65.3 136.8 63.3 136.8 61.3C136.8 59.3 136.8 57.3 136.7 55.3C136.682 54.9364 136.67 54.5728 136.659 54.2091Z" fill="white"/>
<path d="M215.9 70.7C198.1 71.5 180.4 71.5 162.6 71.5L109.3 71.6L56 71.5C38.2 71.5 20.5 71.5 2.7 70.7C2.6 70.7 2.5 70.6 2.5 70.4C2.5 70.3 2.6 70.2 2.7 70.2C20.5 69.4 38.2 69.4 56 69.4L109.3 69.3L162.6 69.4C180.4 69.4 198.1 69.4 215.9 70.2C216 70.2 216.1 70.3 216.1 70.5C216.2 70.6 216.1 70.7 215.9 70.7V70.7Z" fill="#50575D"/>
<path d="M2.8 57.7C4.2 55.7 6 54 7.8 52.5C9.6 50.9 11.6 49.5 13.6 48.2C17.7 45.6 21.9 43.3 26.3 41.4C35.1 37.5 44.4 34.6 53.9 32.8C58.6 31.9 63.5 31.3 68.3 31.2C69.5 31.1 70.7 31.2 71.9 31.2L75.5 31.3C77.9 31.4 80.3 31.5 82.7 31.7C87.5 32 92.3 32.6 97 33.3C101.8 34 106.5 34.8 111.2 35.5C115.9 36.2 120.6 36.9 125.3 37.2C130 37.5 134.8 37.5 139.5 37.2C144.2 36.8 148.8 35.9 153.1 34.2C157.4 32.5 161.4 30 165 27C168.6 24 172 20.6 175.6 17.4C179.2 14.2 183.1 11.1 187.4 8.90003C191.7 6.70003 196.4 5.10003 201.2 4.40003C206 3.60003 210.8 3.40003 215.6 3.60003C215.7 3.60003 215.8 3.70003 215.8 3.90003C215.8 4.00003 215.7 4.10003 215.6 4.10003C210.8 4.30003 206.1 4.80003 201.5 5.80003C196.9 6.80003 192.4 8.30003 188.3 10.6C184.2 12.8 180.4 15.7 176.9 18.9C173.4 22.1 170.1 25.5 166.3 28.7C162.6 31.8 158.4 34.5 153.8 36.3C149.2 38.1 144.4 39.1 139.5 39.5C134.6 39.9 129.8 39.9 125 39.6C120.2 39.3 115.4 38.6 110.7 37.9C106 37.1 101.3 36.3 96.5 35.6C91.8 34.9 87.1 34.3 82.3 34C79.9 33.8 77.6 33.7 75.2 33.6L72 33.3H68.5C63.8 33.4 59.1 34 54.4 34.8C49.7 35.7 45.1 36.8 40.6 38.2C36.1 39.6 31.6 41.2 27.2 43C22.8 44.9 18.5 46.9 14.5 49.3C10.5 51.7 6.5 54.4 3.3 58C3.2 58.1 3.1 58.1 2.9 58C2.8 57.9 2.8 57.8 2.8 57.7H2.8Z" fill="#016087"/>
<path d="M31.6 43.6C33.2569 43.6 34.6 42.1225 34.6 40.3C34.6 38.4775 33.2569 37 31.6 37C29.9431 37 28.6 38.4775 28.6 40.3C28.6 42.1225 29.9431 43.6 31.6 43.6Z" fill="#016087"/>
<path d="M109.8 39.3C111.457 39.3 112.8 37.8226 112.8 36C112.8 34.1775 111.457 32.7 109.8 32.7C108.143 32.7 106.8 34.1775 106.8 36C106.8 37.8226 108.143 39.3 109.8 39.3Z" fill="#016087"/>
<path d="M58.1 36C59.7569 36 61.1 34.5226 61.1 32.7C61.1 30.8775 59.7569 29.4 58.1 29.4C56.4431 29.4 55.1 30.8775 55.1 32.7C55.1 34.5226 56.4431 36 58.1 36Z" fill="#016087"/>
<path d="M83.8 36.1C85.4569 36.1 86.8 34.6225 86.8 32.8C86.8 30.9775 85.4569 29.5 83.8 29.5C82.1431 29.5 80.8 30.9775 80.8 32.8C80.8 34.6225 82.1431 36.1 83.8 36.1Z" fill="#016087"/>
<path d="M135.5 41.3C137.157 41.3 138.5 39.8226 138.5 38C138.5 36.1775 137.157 34.7 135.5 34.7C133.843 34.7 132.5 36.1775 132.5 38C132.5 39.8226 133.843 41.3 135.5 41.3Z" fill="#016087"/>
<path d="M161.3 33.8C162.957 33.8 164.3 32.3226 164.3 30.5C164.3 28.6775 162.957 27.2 161.3 27.2C159.643 27.2 158.3 28.6775 158.3 30.5C158.3 32.3226 159.643 33.8 161.3 33.8Z" fill="#016087"/>
<path d="M3 61.1C4.65685 61.1 6 59.6225 6 57.8C6 55.9775 4.65685 54.5 3 54.5C1.34315 54.5 0 55.9775 0 57.8C0 59.6225 1.34315 61.1 3 61.1Z" fill="#016087"/>
<path d="M187.4 12.9C189.057 12.9 190.4 11.4225 190.4 9.59999C190.4 7.77745 189.057 6.29999 187.4 6.29999C185.743 6.29999 184.4 7.77745 184.4 9.59999C184.4 11.4225 185.743 12.9 187.4 12.9Z" fill="#016087"/>
<path d="M215.6 6.6C217.257 6.6 218.6 5.12254 218.6 3.3C218.6 1.47746 217.257 0 215.6 0C213.943 0 212.6 1.47746 212.6 3.3C212.6 5.12254 213.943 6.6 215.6 6.6Z" fill="#016087"/>
</g>
<defs>
<clipPath id="clip0">
<rect width="218.6" height="76.7" fill="white"/>
</clipPath>
</defs>
</svg>
