<svg width="144" height="181" viewBox="0 0 144 181" fill="none" xmlns="http://www.w3.org/2000/svg">
<path d="M71.9 180.818C111.609 180.818 143.8 148.627 143.8 108.918C143.8 69.2083 111.609 37.0176 71.9 37.0176C32.1907 37.0176 0 69.2083 0 108.918C0 148.627 32.1907 180.818 71.9 180.818Z" fill="#E1E2E2"/>
<path d="M123.9 80.2176C123.9 80.2176 126.1 69.6176 128 67.1176C129.9 64.6176 128.2 57.3176 130.5 56.1176C132.8 54.9176 136.4 55.6176 139.6 61.7176C142.8 67.8176 139.2 75.5176 139.2 75.5176L132.2 85.5176L123.9 80.2176Z" fill="#BBC9D5"/>
<path d="M138.3 59.3176C139.3 60.4176 140.2 61.6176 140.8 63.0176C141.4 64.4176 141.9 65.9176 142 67.4176C142.2 68.9176 142.1 70.5176 141.7 72.0176C141.4 73.5176 140.8 75.0176 139.9 76.3176C139.1 77.5176 138.4 78.7176 137.6 79.9176C136.8 81.1176 136.1 82.3176 135.3 83.6176C133.8 86.1176 132.4 88.6176 130.7 90.9176C130.5 91.2176 130.1 91.3176 129.8 91.0176C129.5 90.8176 129.5 90.5176 129.6 90.2176C130.7 87.5176 132.2 85.0176 133.6 82.5176C135 80.0176 136.5 77.5176 138.2 75.1176C139.7 73.0176 140.3 70.2176 140.1 67.5176C140 66.2176 139.8 64.8176 139.4 63.5176C139 62.2176 138.4 60.9176 137.7 59.6176C137.6 59.4176 137.7 59.2176 137.8 59.1176C138 59.1176 138.2 59.2176 138.3 59.3176V59.3176Z" fill="#016087"/>
<path d="M127.3 69.8176C127.3 69.8176 124.9 62.2176 122.4 63.4176C119.7 65.0176 126 70.4176 124.5 78.6176" fill="#BBC9D5"/>
<path d="M127.2 69.8176C126.5 68.5176 125.8 67.2176 125.1 66.0176C124.7 65.4176 124.3 64.8176 123.9 64.4176C123.7 64.2176 123.4 64.0176 123.3 64.0176C123.1 63.9176 123 64.0176 122.8 64.0176H122.9C122.7 64.1176 122.7 64.2176 122.7 64.3176V64.9176C122.8 65.4176 123 66.0176 123.3 66.6176C123.8 67.8176 124.3 69.1176 124.7 70.4176C125.1 71.7176 125.4 73.1176 125.4 74.5176C125.5 75.9176 125.3 77.3176 124.9 78.6176C124.8 78.8176 124.7 78.8176 124.5 78.8176C124.4 78.8176 124.3 78.6176 124.3 78.5176C124.3 77.2176 124.3 75.9176 124.1 74.6176C123.9 73.3176 123.6 72.1176 123.2 70.9176C122.8 69.7176 122.2 68.5176 121.7 67.3176C121.5 66.7176 121.2 66.0176 121 65.2176C120.9 64.8176 120.9 64.4176 121 63.8176C121.1 63.3176 121.6 62.8176 122 62.6176H122.1C122.6 62.3176 123.3 62.3176 123.8 62.6176C124.3 62.8176 124.7 63.1176 124.9 63.4176C125.5 64.0176 125.9 64.7176 126.2 65.4176C126.5 66.1176 126.8 66.8176 127 67.5176C127.2 68.2176 127.4 68.9176 127.5 69.7176C127.5 69.8176 127.5 69.9176 127.4 69.9176C127.3 69.9176 127.2 69.9176 127.2 69.8176V69.8176Z" fill="#016087"/>
<path d="M99.6 111.118C99.6 111.118 106.3 125.918 114.3 123.018C130.8 117.018 132.3 90.3176 135.3 85.3176L122.2 79.3176L106.9 103.018L99.6 111.118Z" fill="#46799A"/>
<path d="M91.6 67.8176C114.2 67.3176 124 104.118 109.1 112.818C98.2 119.218 92.1 115.718 81.3 110.918L89.2 99.3176" fill="#46799A"/>
<path d="M59.5 67.2176C66.2 63.3176 85 64.8176 91.6 67.8176C91.6 67.8176 83.7 84.4176 75 85.2176" fill="#BBC9D5"/>
<path d="M63.6 49.2176H87.1V83.0176H63.6V49.2176Z" fill="#BBC9D5"/>
<path d="M89 20.2176C95.1 33.4176 93.8 58.8176 72.9 58.8176C52 58.8176 50.7 33.4176 56.8 20.2176" fill="#BBC9D5"/>
<path d="M63.6 57.4176V64.5176C63.6 64.5176 76.4 63.2176 81.3 57.3176L73.1 58.8176L63.6 57.4176Z" fill="#95ADC1"/>
<path d="M44.7 139.618C39 147.218 34.9 157.318 32.2 168.818C43.6 176.418 57.2 180.818 71.9 180.818C87.9 180.818 102.6 175.618 114.5 166.818C110.4 152.618 104.4 143.018 97.6 136.218C97.7 136.218 64.2 113.918 44.7 139.618Z" fill="#46799A"/>
<path d="M87.5 52.0176C87.5 52.0176 91 57.2176 98.9 52.7176C106.8 48.2176 103.9 37.4176 103.9 37.4176C103.9 37.4176 108.9 34.0176 107.5 25.3176C106.3 18.0176 98 15.2176 98 15.2176C98 15.2176 99.2 9.61756 92.1 3.51756C83.9 -3.48244 73.4 2.61756 73.4 2.61756C73.4 2.61756 67.5 -2.18244 56.4 1.21756C42.6 5.51756 46.5 18.7176 46.5 18.7176C33 25.5176 38.4 48.0176 56.1 48.8176C56.1 48.8176 45.5 10.6176 74.1 10.6176C104.5 10.6176 87.5 52.0176 87.5 52.0176" fill="#23354B"/>
<path d="M89 20.2176C95.1 33.4176 93.8 58.8176 72.9 58.8176C52 58.8176 50.7 33.4176 56.8 20.2176" stroke="#016087" stroke-width="2" stroke-linecap="round" stroke-linejoin="round"/>
<path d="M106.2 100.818C105.4 131.918 101.7 141.918 74.5 142.418C55 142.818 34 144.218 33.1 104.418C32.8 91.8176 47.2 70.5176 60.1 66.3176C60.1 66.3176 64.2 80.9176 75 80.9176C85.8 80.9176 89.7 66.5176 89.7 66.5176C103.3 70.5176 106.5 87.4176 106.2 100.818Z" fill="#46799A"/>
<path d="M99.1 133.918C100.9 129.418 102.5 124.818 103.7 120.118C104.3 117.818 104.9 115.418 105.3 113.018C105.8 110.618 106.1 108.218 106.3 105.818C106.7 101.018 106.6 96.2176 105.5 91.5176C104.5 86.8176 102.2 82.5176 98.7 79.1176C98.6 79.0176 98.6 78.8176 98.7 78.6176C98.8 78.5176 99 78.5176 99.1 78.6176C103.1 81.6176 106 86.1176 107.3 91.0176C108 93.4176 108.4 95.9176 108.5 98.4176C108.6 100.918 108.5 103.418 108.3 105.918C107.9 110.918 106.9 115.718 105.5 120.518C104.1 125.318 102.4 129.918 100.3 134.418C100.1 134.718 99.7 134.918 99.4 134.718C99.1 134.618 98.9 134.218 99.1 133.918Z" fill="#016087"/>
<path d="M60.8 86.5176C62.6778 86.5176 64.2 84.9953 64.2 83.1176C64.2 81.2398 62.6778 79.7176 60.8 79.7176C58.9222 79.7176 57.4 81.2398 57.4 83.1176C57.4 84.9953 58.9222 86.5176 60.8 86.5176Z" fill="#23354B"/>
<path d="M67.1 81.7176L54.7 83.0176C52.9 83.2176 51.5 84.9176 51.7 86.7176L51.8 87.4176C52 89.2176 53.7 90.6176 55.5 90.4176L67.9 89.1176C69.7 88.9176 71.1 87.2176 70.9 85.4176L70.8 84.7176C70.6 82.9176 68.9 81.5176 67.1 81.7176V81.7176Z" fill="#23354B"/>
<path d="M86.8 137.818L48 142.018C47 142.118 46.1 141.418 46 140.418L40.6 90.3176C40.5 89.3176 41.2 88.4176 42.2 88.3176L81 84.1176C82 84.0176 82.9 84.7176 83 85.7176L88.4 135.818C88.5 136.818 87.8 137.718 86.8 137.818V137.818Z" fill="white"/>
<path fill-rule="evenodd" clip-rule="evenodd" d="M76.1943 139.965C79.7136 139.515 83.2971 139.056 86.8 138.518L86.9 138.318C87.4 138.318 88 138.018 88.4 137.518C88.8 137.018 89 136.418 88.9 135.818L88.7 132.818C88.5963 131.833 88.5196 130.821 88.4418 129.797C88.3695 128.844 88.2963 127.881 88.2 126.918C88.0084 125.002 87.8398 123.086 87.6721 121.181C87.4897 119.109 87.3084 117.05 87.1 115.018L85.9 103.118L84.7 91.3176L84.4 88.3176L84.2 86.8176L84.1 86.1176C84.1 85.8176 84.1 85.6176 84 85.2176C83.8 84.5176 83.3 83.8176 82.6 83.4176C82.3 83.2176 81.9 83.0176 81.5 83.0176H80.5L77.5 83.3176L65.7 84.5176L42 87.0176C41.2 87.0176 40.5 87.5176 40 88.1176C39.5 88.7176 39.3 89.6176 39.4 90.3176L39.7 93.3176L40.3 99.2176L41.6 111.018L44.2 134.718L44.5 137.718L44.7 139.218L44.8 139.918C44.8 140.218 44.8 140.418 44.9 140.818C45.1 141.518 45.6 142.218 46.3 142.618C46.6 142.818 47 143.018 47.4 143.018H48.4L51.4 142.718L63.2 141.418L75 140.118C75.3971 140.067 75.7953 140.016 76.1943 139.965ZM87.9 135.718C88.1 136.518 87.5 137.318 86.7 137.418L86.5 137.318C82.5 137.518 78.5 137.818 74.6 138.218L62.8 139.418L51 140.618L48 140.918H47.5C47.4 140.918 47.3 140.918 47.2 140.818C47 140.718 46.8 140.518 46.8 140.318L46.2 134.518L43.7 110.818L42.5 99.0176L41.9 93.1176L41.6 90.1176C41.5 89.6176 41.8 89.2176 42.2 89.2176L65.9 86.6176L77.7 85.3176L80.7 85.0176H81.2C81.3 85.0176 81.4 85.0176 81.5 85.1176C81.7 85.2176 81.9 85.4176 81.9 85.6176L82.5 91.4176L83.8 103.218L85.2 115.018C85.45 116.968 85.7 118.943 85.95 120.918C86.2 122.893 86.45 124.868 86.7 126.818C86.85 127.818 86.975 128.793 87.1 129.767C87.225 130.743 87.35 131.718 87.5 132.718L87.9 135.718Z" fill="#23354B"/>
<path d="M25.6 106.618C20 115.518 15.3 132.918 26.7 139.718C45.8 151.018 75.7 122.518 78.5 119.018C81.3 115.518 89 114.618 92.2 109.818C95.4 105.018 96.7 98.1176 95 95.5176C93.3 92.9176 90.7 95.1176 90.7 95.1176C88.5 101.418 79.8 105.918 79.8 105.918C79.8 105.918 85.3 97.8176 81.9 97.5176C78.2 97.1176 74.3 104.818 71.2 108.918C68.1 112.918 42.1 109.318 34.1 124.718" fill="#BBC9D5"/>
<path fill-rule="evenodd" clip-rule="evenodd" d="M73.2 41.0176C73.1 39.5176 73 38.1176 72.7 36.6176C72.7 36.4176 72.5 36.3176 72.2 36.2176C71.9 36.2176 71.7 36.3176 71.6 36.6176C71.3 38.1176 71.2 39.5176 71.1 41.0176C71.1 42.5176 71.1 43.9176 71.4 45.4176C71.5 45.7176 71.7 45.9176 72 46.0176C72.4 46.1176 72.8 45.8176 72.9 45.4176C73.2 43.9176 73.2 42.5176 73.2 41.0176ZM61.3 66.1176C61.7961 66.9996 62.1403 67.912 62.4833 68.8213C62.7626 69.5614 63.041 70.2996 63.4 71.0176C64.2 72.6176 65.1 74.1176 66.3 75.4176C67.4 76.7176 68.8 77.8176 70.3 78.5176C71.8 79.2176 73.5 79.6176 75.2 79.6176C78.6 79.7176 81.9 78.2176 84.2 75.5176C86.5 72.9176 88 69.6176 89.4 66.2176C89.5 66.0176 89.7 65.9176 89.8 66.0176C89.9 66.1176 90 66.2176 90 66.3176C89.7 70.1176 88.2 73.8176 85.7 76.8176C84.4 78.3176 82.9 79.6176 81 80.5176C79.1 81.6176 77.1 82.0176 75.1 82.0176C74.1 82.0176 73.1 81.9176 72.1 81.7176C71.1 81.5176 70.2 81.1176 69.3001 80.7176L69.3 80.7176L69.3 80.7176C67.5 79.8176 65.9 78.5176 64.7 77.0176C63.4 75.5176 62.4 73.8176 61.6 72.1176L61.4908 71.8722C60.7288 70.1621 60 68.5265 60 66.6176C60 66.2176 60.3 65.9176 60.7 65.9176C60.9 65.7176 61.1 65.8176 61.3 66.1176ZM111.8 155.118C111.56 154.638 111.352 154.158 111.144 153.678C110.832 152.958 110.52 152.238 110.1 151.518L108.2 148.018C105.5 143.518 102.6 139.018 98.5 135.618C98.3 135.418 97.9 135.418 97.6 135.618C97.3 135.818 97.3 136.318 97.5 136.618C100.8 140.518 103.9 144.618 106.4 149.118L108.2 152.518C108.8 153.618 109.3 154.818 109.8 156.018C110.606 157.702 111.25 159.493 111.891 161.274C112.125 161.925 112.359 162.575 112.6 163.218C113.1 164.618 113.5 165.918 113.9 167.318C114.363 166.932 114.826 166.605 115.335 166.247L115.336 166.246C115.486 166.14 115.64 166.032 115.8 165.918C115.5 164.818 115.1 163.618 114.7 162.518C113.8 160.018 112.9 157.518 111.8 155.118Z" fill="#016087"/>
<path fill-rule="evenodd" clip-rule="evenodd" d="M62.4 39.5176C62.4 40.3176 63.1 41.0176 64 41.0176C64.8 41.0176 65.5 40.3176 65.5 39.5176V37.0176C65.5 36.2176 64.8 35.5176 64 35.5176H63.9C63.1 35.5176 62.4 36.2176 62.4 37.0176V39.5176ZM78.6 39.5176C78.6 40.3176 79.3 41.0176 80.2 41.0176C81 41.0176 81.7 40.3176 81.7 39.5176V37.0176C81.7 36.2176 81 35.5176 80.2 35.5176H80.1C79.3 35.5176 78.6 36.2176 78.6 37.0176V39.5176Z" fill="#016087"/>
<path fill-rule="evenodd" clip-rule="evenodd" d="M79.1 28.6176C78.4 28.7176 77.8 28.8176 77.1 29.4176C76.9 29.6176 76.8 29.8176 76.9 29.9176C76.9 30.3176 77.2 30.5176 77.6 30.5176H79.2C79.7 30.5176 80.2 30.5176 80.7 30.6176C81.7 30.8176 82.7 31.0176 83.5 31.4176H83.6C83.8 31.5176 84.1 31.5176 84.3 31.3176C84.6 31.1176 84.6 30.7176 84.4 30.4176C84 29.9176 83.4 29.5176 82.8 29.2176C82.2 29.0176 81.6 28.8176 81 28.7176C80.4 28.6176 79.7 28.5176 79.1 28.6176ZM65.2 30.5176H63.9C63.65 30.5176 63.4 30.5426 63.15 30.5676C62.9 30.5926 62.65 30.6176 62.4 30.6176C61.4 30.7176 60.4 31.0176 59.6 31.4176H59.5C59.2 31.6176 58.8 31.4176 58.6 31.1176C58.5 30.9176 58.5 30.6176 58.7 30.4176C59.1 29.8176 59.7 29.4176 60.3 29.2176C60.9 28.9176 61.5 28.8176 62.1 28.7176C62.7 28.6176 63.3 28.6176 64 28.6176L64.0581 28.6272C64.6449 28.7245 65.3225 28.8368 66 29.4176C66.3 29.6176 66.3 30.0176 66.1 30.3176C66 30.5176 65.8 30.5176 65.6 30.5176H65.2ZM69.8 49.7176C70.6 50.2176 71.5 50.5176 72.5 50.5176C73.5 50.5176 74.4 50.3176 75.1 49.6176H75.2C75.5 49.3176 75.9 49.4176 76.2 49.6176C76.4 49.8176 76.4 50.1176 76.3 50.3176C76 51.0176 75.4 51.6176 74.7 52.0176C74 52.4176 73.3 52.5176 72.5 52.5176C71.8 52.5176 71 52.4176 70.4 52.0176C69.7 51.7176 69.1 51.2176 68.7 50.5176C68.5 50.2176 68.7 49.8176 69 49.6176C69.3 49.5176 69.5 49.5176 69.8 49.7176Z" fill="#23354B"/>
<path d="M57.9 67.6176C57.9 67.6176 46.6 68.3176 36.4 77.3176C23.5 88.8176 8.2 132.118 23.8 144.118C36.5 153.818 76.6 126.818 77.5 122.918C78.3 119.118 69.1 109.818 69.1 109.818C69.1 109.818 61.4 111.918 51.1 112.818C40.8 113.718 32 125.018 32 125.018L38.2 125.918L38.5 89.9176L57.9 67.6176Z" fill="#46799A"/>
<path fill-rule="evenodd" clip-rule="evenodd" d="M111.781 93.1799C111.631 93.3743 111.52 93.5186 111.6 93.9176C111.7 94.2176 112.1 94.4176 112.4 94.5176H112.5C112.852 94.4471 112.956 94.2775 113.057 94.1134C113.099 94.0446 113.141 93.9767 113.2 93.9176L113.7 93.2176C113.888 92.9831 114.075 92.7707 114.252 92.5699C114.453 92.3424 114.641 92.13 114.8 91.9176C115 91.7176 115.175 91.5176 115.35 91.3176C115.525 91.1176 115.7 90.9176 115.9 90.7176C115.956 90.6433 116.015 90.5691 116.075 90.493C116.342 90.1588 116.637 89.7877 116.8 89.2176V89.1176C116.8 88.9176 116.7 88.8176 116.5 88.8176C115.8 88.7176 115.2 89.1176 114.8 89.5176C114.3 89.9176 113.9 90.3176 113.5 90.8176C113.1 91.2176 112.7 91.7176 112.4 92.2176L111.9 93.0176C111.86 93.0782 111.819 93.1307 111.781 93.1799ZM39.1 117.418C36.7 119.218 34.7 121.618 33.6 124.318C33.4 124.618 33.5 124.918 33.5 124.918C33.8 125.118 34.2 125.018 34.4 124.718C35.9 122.418 37.7 120.418 39.9 118.818C42 117.218 44.5 116.018 47.1 115.118C52.3 113.218 57.9 112.518 63.5 111.818H63.5C63.6546 111.795 63.8104 111.773 63.9672 111.751C65.23 111.572 66.5546 111.384 67.8 111.118C68.5 110.918 69.2 110.718 70 110.418C70.4 110.318 70.8 110.118 71.2 109.818C71.4 109.718 71.6 109.518 71.8 109.318L72.2 108.818C73.1322 107.626 73.957 106.409 74.7719 105.206C75.5305 104.085 76.2804 102.978 77.1 101.918C77.9 100.918 78.8 99.8176 79.8 99.1176C80.3 98.7176 80.8 98.5176 81.2 98.4176H81.7C81.8 98.6176 81.7 99.2176 81.5 99.8176C81.3 100.418 81 101.018 80.7 101.617L80.7 101.618C80.1 102.818 79.4 104.018 78.7 105.118C78.5 105.518 78.5 105.918 78.7 106.318C79 106.818 79.7 107.018 80.2 106.718C81.4 106.018 82.5 105.318 83.6 104.518C84.7 103.718 85.7 102.818 86.7 101.918C87.7 101.018 88.7 100.018 89.4 98.8176C90.2 97.7176 90.7 96.4176 90.9 95.0176C91 94.9176 90.9 94.8176 90.8 94.7176C90.6 94.6176 90.4 94.6176 90.3 94.8176C89.6 95.9176 88.8 96.9176 88 97.8176C87.2 98.8176 86.3 99.7176 85.4 100.518C84.617 101.144 83.8341 101.77 83.0511 102.349C83.3764 101.758 83.626 101.213 83.8 100.518L84.1 99.3176C84.1 99.1941 84.1061 99.0706 84.1123 98.9456C84.1311 98.5645 84.1506 98.1694 84 97.7176C83.9 97.4176 83.7 97.1176 83.4 96.8176C83.2217 96.5501 82.8844 96.4416 82.6008 96.3504C82.5663 96.3393 82.5325 96.3284 82.5 96.3176C81.9 96.2176 81.5 96.2176 81 96.3176C80.1 96.5176 79.3 96.9176 78.7 97.4176C77.4 98.4176 76.5 99.5176 75.6 100.718C74.7046 101.929 73.8647 103.196 73.0365 104.445C72.2922 105.568 71.5573 106.676 70.8 107.718L70.5 108.118C70.5 108.179 70.4618 108.203 70.409 108.236C70.3764 108.256 70.3382 108.279 70.3 108.318C70.1 108.518 69.9 108.618 69.6 108.718C69.2234 108.944 68.7901 109.056 68.3 109.183C68.1394 109.225 67.9728 109.268 67.8 109.318C66.5 109.618 65.1001 109.818 63.7001 110.018L63.7 110.018C58.1 110.718 52.4 111.518 46.9 113.418C44.1 114.318 41.5 115.618 39.1 117.418Z" fill="#016087"/>
<path d="M57.1 39.4176L58.0985 39.3621C58.098 39.3536 58.0974 39.3452 58.0967 39.3367L57.1 39.4176ZM56.8 35.7176L57.7967 35.6367C57.7959 35.6269 57.795 35.617 57.7939 35.6071L56.8 35.7176ZM69.3 35.7176L70.2967 35.7984C70.2989 35.7715 70.3 35.7445 70.3 35.7176H69.3ZM69 39.4176L69.9864 39.582C69.991 39.5543 69.9945 39.5264 69.9967 39.4984L69 39.4176ZM74.7 39.4176L75.6985 39.3621C75.698 39.3536 75.6974 39.3452 75.6967 39.3367L74.7 39.4176ZM74.4 35.7176L75.3967 35.6367C75.3959 35.6269 75.395 35.617 75.3939 35.6071L74.4 35.7176ZM86.9 35.7176L87.8967 35.7984C87.8989 35.7715 87.9 35.7445 87.9 35.7176H86.9ZM86.6 39.4176L87.5939 39.528C87.595 39.5181 87.5959 39.5083 87.5967 39.4984L86.6 39.4176ZM69.2 34.6176C68.6477 34.6176 68.2 35.0653 68.2 35.6176C68.2 36.1698 68.6477 36.6176 69.2 36.6176V34.6176ZM74.3 36.6176C74.8523 36.6176 75.3 36.1698 75.3 35.6176C75.3 35.0653 74.8523 34.6176 74.3 34.6176V36.6176ZM66 41.6176H60V43.6176H66V41.6176ZM60 41.6176C59.1597 41.6176 58.1767 40.7713 58.0985 39.3621L56.1015 39.473C56.2232 41.6638 57.8403 43.6176 60 43.6176V41.6176ZM58.0967 39.3367L57.7967 35.6367L55.8033 35.7984L56.1033 39.4984L58.0967 39.3367ZM57.7939 35.6071C57.7715 35.4055 57.8305 35.238 57.9087 35.1351C57.9839 35.0361 58.0544 35.0176 58.1 35.0176V33.0176C56.5496 33.0176 55.6586 34.5005 55.8061 35.828L57.7939 35.6071ZM58.1 35.0176H68V33.0176H58.1V35.0176ZM68 35.0176C68.0261 35.0176 68.0686 35.0173 68.1385 35.1144C68.2209 35.2288 68.3 35.4401 68.3 35.7176H70.3C70.3 35.095 70.1291 34.4563 69.7615 33.9458C69.3814 33.4178 68.7739 33.0176 68 33.0176V35.0176ZM68.3033 35.6367L68.0033 39.3367L69.9967 39.4984L70.2967 35.7984L68.3033 35.6367ZM68.0136 39.2532C67.7545 40.8076 66.805 41.6176 66 41.6176V43.6176C68.195 43.6176 69.6455 41.6275 69.9864 39.582L68.0136 39.2532ZM83.6 41.6176H77.6V43.6176H83.6V41.6176ZM77.6 41.6176C76.7597 41.6176 75.7767 40.7713 75.6985 39.3621L73.7015 39.473C73.8232 41.6638 75.4403 43.6176 77.6 43.6176V41.6176ZM75.6967 39.3367L75.3967 35.6367L73.4033 35.7984L73.7033 39.4984L75.6967 39.3367ZM75.3939 35.6071C75.3715 35.4055 75.4305 35.238 75.5087 35.1351C75.5839 35.0361 75.6544 35.0176 75.7 35.0176V33.0176C74.1496 33.0176 73.2586 34.5005 73.4061 35.828L75.3939 35.6071ZM75.7 35.0176H85.6V33.0176H75.7V35.0176ZM85.6 35.0176C85.6261 35.0176 85.6686 35.0173 85.7385 35.1144C85.8209 35.2288 85.9 35.4401 85.9 35.7176H87.9C87.9 35.095 87.7291 34.4563 87.3615 33.9458C86.9814 33.4178 86.3739 33.0176 85.6 33.0176V35.0176ZM85.9033 35.6367L85.6033 39.3367L87.5967 39.4984L87.8967 35.7984L85.9033 35.6367ZM85.6061 39.3071C85.4439 40.7667 84.4393 41.6176 83.6 41.6176V43.6176C85.7607 43.6176 87.3561 41.6684 87.5939 39.528L85.6061 39.3071ZM69.2 36.6176H74.3V34.6176H69.2V36.6176ZM74.3 34.6176H69.2V36.6176H74.3V34.6176Z" fill="#F6F6F6"/>
<path d="M55 9.01757C56 22.2176 64.2 39.6176 92.1 38.2176C92.1 38.2176 99.1 9.81757 77.3 8.81757" fill="#23354B"/>
</svg>
