<svg xmlns="http://www.w3.org/2000/svg" viewBox="0 0 737.5 116.618"><defs><style>.a{fill:#c3c4c7}.b{fill:#004e6e}.c{fill:#6ab3d0}.d{fill:#fff}.e{fill:#187aa2}.g{fill:#006088}.h{fill:#003c56}.i{fill:#787c82}.j{fill:#50575e}</style></defs><path class="a" d="M504.4 54.218c4.1 18.8 18.7 21.8 23.1 21.6 5.7-.3 18.2-13.1 18.2-29 0 0 2.7-30.4-29.5-21.3-12.5 3.4-11.8 28.7-11.8 28.7z"/><path class="b" d="M499.3 43.118c-3.7-6.8 3.5-18.7 14.3-15l-9.3 28.5a52.705 52.705 0 00-5-13.5zm16.3 10.1a1.685 1.685 0 001.7 1.7 1.752 1.752 0 001.7-1.7v-2.7a1.7 1.7 0 00-3.4 0z"/><path class="b" d="M505 54.018c1.1 2.7 1.8 5.5 3.2 8a23.822 23.822 0 005.1 6.7 25.144 25.144 0 007.1 4.5 30.376 30.376 0 004 1.2 15.027 15.027 0 002 .2h1c.3 0 .6-.1.9-.1a9.289 9.289 0 003.5-1.9 27.89 27.89 0 003.2-2.8 34.98 34.98 0 005.2-6.8 39.049 39.049 0 005.2-16.3c0-.2.2-.3.4-.3a.265.265 0 01.3.3c.6 6-1.2 12.1-4.1 17.3a38.291 38.291 0 01-5.4 7.3c-1.1 1.1-2.2 2.1-3.4 3.1a14.538 14.538 0 01-4.3 2.2 5.853 5.853 0 01-1.3.2h-1.2a8.524 8.524 0 01-2.3-.3 22.26 22.26 0 01-4.4-1.3 23.26 23.26 0 01-7.7-5 24.759 24.759 0 01-5.4-7.4 37.887 37.887 0 01-1.8-4.2 16.399 16.399 0 01-.9-4.4.669.669 0 01.6-.7c.1.1.4.3.5.5z"/><path class="b" d="M527.9 48.918a39.073 39.073 0 01.5 4.8 25.802 25.802 0 01-.3 4.8c-.1.4-.4.7-.8.6-.3-.1-.6-.3-.6-.6a25.807 25.807 0 01-.3-4.8 39.05 39.05 0 01.5-4.8c.1-.3.3-.5.6-.4.2.1.4.3.4.4zM537.2 54.918a1.685 1.685 0 01-1.7-1.7v-2.7a1.7 1.7 0 013.4 0v2.7a1.752 1.752 0 01-1.7 1.7zM519.2 42.418a5.901 5.901 0 011.4.2h.2a.471.471 0 00.6-.1.746.746 0 000-.9 3.654 3.654 0 00-2-1.1 6.479 6.479 0 00-2-.2 6.929 6.929 0 00-2 .3 4.123 4.123 0 00-1.9 1.1.618.618 0 00-.2.7.74.74 0 00.9.4h.1a8.279 8.279 0 013.2-.5c.314 0 .627.028.927.054.273.023.534.046.773.046zm13.5-.8a3.654 3.654 0 012-1.1 7.144 7.144 0 012-.2 6.448 6.448 0 012 .3 4.122 4.122 0 011.9 1.1.56.56 0 010 .9.952.952 0 01-.7.2h-.1a8.278 8.278 0 00-3.2-.5 9.701 9.701 0 00-1.7.1 5.213 5.213 0 00-1.4.2l-.2.1a.68.68 0 01-.8-.4 1.165 1.165 0 01.2-.7zm-9.8 22.9l2.3.1c.4 0 .775.025 1.15.05s.75.05 1.15.05c.75 0 1.5-.025 2.25-.05s1.5-.05 2.25-.05a.669.669 0 01.7.6.842.842 0 01-.4.7 13.09 13.09 0 01-4.8.8 20.04 20.04 0 01-2.23-.17l-.27-.03a7.284 7.284 0 01-2.4-.7.751.751 0 01-.4-.9.842.842 0 01.7-.4z"/><path class="b" d="M534.4 16.018c13 4.4 14.8 9.8 13.8 30.6 0 0-2.4-5.5-24.9-9.6-22.5-4.2-16.9-22.4-16.9-22.4.815 1.937 5.813 1.51 11.67 1.01 5.635-.482 12.064-1.032 16.33.39zm-37 76.4a11.336 11.336 0 01-2.851 1.347c-.553.2-1.108.4-1.649.653-1.5.6-3 1.3-4.4 2a76.105 76.105 0 00-8.3 5 43.262 43.262 0 00-7.1 6.4 39.684 39.684 0 00-5.3 8c-.1.2-.3.2-.5.1-.1-.1-.2-.2-.2-.3a18.48 18.48 0 014.4-9.1 40.39 40.39 0 017.4-6.9 47.224 47.224 0 018.7-5.1c1.5-.7 3-1.4 4.6-2 .272-.102.541-.207.808-.31h.001a13.084 13.084 0 013.991-1.09.683.683 0 01.7.7.605.605 0 01-.3.6zm54.4-1.2a14.224 14.224 0 014.414 1.245h.002q.193.079.384.155c1.6.6 3.1 1.3 4.6 2a63.764 63.764 0 018.7 5.1 43.897 43.897 0 017.4 6.9 19.375 19.375 0 014.4 9.1c0 .2-.1.4-.3.4-.1 0-.3-.1-.3-.2a55.469 55.469 0 00-5.3-8 43.262 43.262 0 00-7.1-6.4 53.8 53.8 0 00-8.3-5c-1.4-.7-2.9-1.4-4.4-2-.541-.252-1.096-.453-1.649-.653a11.339 11.339 0 01-2.851-1.347.751.751 0 01-.2-1 .55.55 0 01.5-.3z"/><path class="c" d="M505.7 77.418a2.666 2.666 0 011.4-.7l1.5-.3a15.038 15.038 0 013 0 22.25 22.25 0 015.8 1.3 20.07 20.07 0 015.2 2.8l1.2.9a11.411 11.411 0 011.1 1.1 5.728 5.728 0 011.4 2.8c0 .2-.1.4-.3.4a.367.367 0 01-.3-.1 26.523 26.523 0 00-4.2-3.3 27.832 27.832 0 00-4.9-2.4 23.303 23.303 0 00-5.2-1.3 11.295 11.295 0 00-2.6 0l-1.3.2a3.268 3.268 0 01-1.4 0h-.1a.716.716 0 01-.5-.9.764.764 0 01.2-.5z"/><path class="c" d="M545.3 81.818a2.836 2.836 0 01-1.3-.4l-.6-.3-.6-.2c-.4-.1-.8-.3-1.2-.4l-1.3-.3a18.12 18.12 0 00-5.2 0 29.585 29.585 0 00-5.1 1.4c-1.7.7-3.3 1.5-5.1 2.1-.2.1-.4 0-.4-.2a.367.367 0 01.1-.3 11.406 11.406 0 014.7-3.4 26.174 26.174 0 015.6-1.8 15.156 15.156 0 016 .1l1.5.4a7.838 7.838 0 001.4.5l.7.3.7.4a5.242 5.242 0 011.1 1 .775.775 0 01-.2 1 .601.601 0 01-.4.1zM510 86.718a3.126 3.126 0 01.9 1.1l.8 1.2.9 1.2.9 1.1a26.14 26.14 0 004.4 3.7 20.468 20.468 0 005.1 2.6 25.26 25.26 0 005.6 1.1c.2 0 .3.2.3.4 0 .1-.1.2-.2.3a8.583 8.583 0 01-6.3.2 18.716 18.716 0 01-5.7-2.7 23.555 23.555 0 01-4.7-4.2l-1-1.2-.9-1.3c-.3-.5-.5-.9-.8-1.4a4.193 4.193 0 01-.4-1.6.683.683 0 01.7-.7c.1 0 .2.1.4.2zM503.9 83.818a16.605 16.605 0 01-1.4 1.3l-.7.7a5.547 5.547 0 00-.6.8 8.626 8.626 0 00-1.6 3.5 8.131 8.131 0 000 3.8 10.034 10.034 0 001.5 3.5 9.906 9.906 0 002.7 2.7l.8.5a3.552 3.552 0 00.9.4 11.764 11.764 0 002 .7l4 1.3a29.78 29.78 0 004 1.1h.1c.2 0 .3.2.3.4 0 .1-.1.2-.2.3a6.344 6.344 0 01-2.3.3 7.798 7.798 0 01-2.2-.3 28.756 28.756 0 01-4.2-1.1 17.233 17.233 0 01-2.1-.7 5.36 5.36 0 01-1.1-.5l-1-.6a13.336 13.336 0 01-3.4-3.3 11.387 11.387 0 01-1.8-4.4 12.347 12.347 0 01.1-4.7 11.305 11.305 0 012-4.3c.3-.3.5-.6.8-.9l.9-.8a4.074 4.074 0 012.2-1 .76.76 0 01.8.6 4.235 4.235 0 00-.5.7zM533.1 103.218a10.66 10.66 0 013-.6l3-.6a28.044 28.044 0 005.7-2.2 13.927 13.927 0 004.6-3.7 10.531 10.531 0 001.8-5.4c0-.2.2-.3.4-.3.1 0 .2.1.3.2a6.466 6.466 0 01.6 3.4 7.888 7.888 0 01-1.3 3.3 12.95 12.95 0 01-5.2 4.4 24.51 24.51 0 01-6.2 2.3 19.847 19.847 0 01-3.2.6 6.17 6.17 0 01-3.3-.1.74.74 0 01-.4-.9c-.1-.2 0-.4.2-.4zM540.7 89.818c.6-.7 1.3-.6 1.9-.9s1.3-.5 1.8-.8a14.435 14.435 0 003.2-2.3 14.753 14.753 0 002.6-3 33.921 33.921 0 012.3-3.4.33.33 0 01.5 0c.1.1.1.1.1.2a6.839 6.839 0 01-1.2 4.4 16.548 16.548 0 01-2.8 3.6 14.24 14.24 0 01-3.8 2.6 18.945 18.945 0 01-2.1.9 4.314 4.314 0 01-2.3.3.825.825 0 01-.5-1 3.325 3.325 0 01.3-.6z"/><path class="b" d="M264.4 38.368a46.4 46.4 0 011.6 5.3c.5 1.8 1 3.5 1.6 5.2 1.2 3.4 2.6 6.8 5 9.2a11.913 11.913 0 004.2 2.8 17.28 17.28 0 005.1 1.2 48.863 48.863 0 005.4.3 16.996 16.996 0 005.1-.6 16.296 16.296 0 004.5-2.4 15.916 15.916 0 003.4-3.9 35.82 35.82 0 004.2-9.8c1.9-7 2.5-14.3 3.1-21.6 0-.2.2-.3.4-.3a.265.265 0 01.3.3 72.308 72.308 0 01-1.8 22.2 36.582 36.582 0 01-4.4 10.4 22.68 22.68 0 01-3.8 4.4 16.572 16.572 0 01-5.2 2.9 19.334 19.334 0 01-5.8.8 52.528 52.528 0 01-5.6-.3 22.112 22.112 0 01-5.6-1.5 14.912 14.912 0 01-4.9-3.4 19.542 19.542 0 01-3.3-4.8 34.371 34.371 0 01-2.1-5.3 54.38 54.38 0 01-1.5-5.4 25.274 25.274 0 01-.9-5.5.669.669 0 01.6-.7 1.125 1.125 0 01.4.5z"/><path class="c" d="M267.9 77.668l18.7 8.4 14.1-7.6s40.8 6.3 40.8 37.899H233c0-11.7 10-30.7 34.9-38.7z"/><path class="b" d="M288.3 35.867a14.679 14.679 0 01.5 2.9 9.55 9.55 0 01-.3 2.9.716.716 0 01-.9.5c-.3-.1-.5-.3-.5-.5a9.55 9.55 0 01-.3-2.9 14.684 14.684 0 01.5-2.9.517.517 0 01.7-.3.265.265 0 01.3.3zM298.5 40.867a1.899 1.899 0 01-1.9-1.9v-3a1.9 1.9 0 113.8 0v3a1.967 1.967 0 01-1.9 1.9zM274.9 38.968a1.899 1.899 0 001.9 1.9 1.967 1.967 0 001.9-1.9v-3a1.9 1.9 0 00-3.8 0zm3.5 24.7c0-3 3.8-5.4 8.5-5.4s8.5 1.5 8.5 4.5zm19.7-2.8a46.228 46.228 0 01.306 6.901c-.003.464-.006.93-.006 1.398v2a5.662 5.662 0 00.3 1.8 6.88 6.88 0 001.8 3.1 6.225 6.225 0 003 1.8l.4.1.5.1c.183.046.346.071.497.094a2.978 2.978 0 01.503.106c.35.1.7.175 1.05.25.35.075.7.15 1.05.25a53.199 53.199 0 017.9 2.9 58.991 58.991 0 0114.3 8.9 34.202 34.202 0 015.7 6.3 22.145 22.145 0 013.4 7.7c0 .2-.1.4-.3.4s-.3 0-.4-.2a35.809 35.809 0 00-9.9-12.6 57.283 57.283 0 00-13.8-8.4 53.422 53.422 0 00-7.6-2.8 13.32 13.32 0 00-1.9-.5 3.553 3.553 0 00-1-.2l-.5-.1-.6-.1a9.15 9.15 0 01-4-2.4 8.954 8.954 0 01-2.3-4 15.718 15.718 0 01-.4-2.3v-2.1c0-.468-.003-.933-.006-1.397a46.228 46.228 0 01.306-6.902.76.76 0 01.8-.6c.7 0 .9.2.9.5zm-18.625-33.825a4.373 4.373 0 011.125.225l.3-.1a.44.44 0 00.5-.1.483.483 0 000-.7 4.112 4.112 0 00-2.1-1.2 8.217 8.217 0 00-4.4 0 4.45 4.45 0 00-2.1 1.2.778.778 0 00-.2.8c.1.4.5.5.9.4h.1a18.224 18.224 0 013.5-.6h1.8c.193.032.385.053.575.075zm14.325-.575a3.754 3.754 0 012.1-1.2 8.217 8.217 0 014.4 0 4.982 4.982 0 012.1 1.2.668.668 0 010 1 .778.778 0 01-.8.2h-.1a9.509 9.509 0 00-3.5-.6h-1.8a4.671 4.671 0 00-1.7.3h-.1a.42.42 0 01-.6-.3.414.414 0 01-.034-.535zm-10.8 26.5a8.493 8.493 0 002.4.5 20.92 20.92 0 005-.1 7.09 7.09 0 002.2-.6l.1-.1a.777.777 0 011 .3.755.755 0 01-.1.8 6.05 6.05 0 01-2.55 1.35l-.15.05a9.037 9.037 0 01-2.8.2 13.506 13.506 0 01-2.8-.4 7.071 7.071 0 01-2.6-1.3.483.483 0 010-.7c-.2-.1.1-.1.3 0zM289.3 48.167c-.5-3.1-10.6-.9-9.8 1.7.3 1 10-.5 9.8-1.7z"/><path class="b" d="M289.3 48.167c-.5-3.1-10.6-.9-9.8 1.7.3 1 10-.5 9.8-1.7z"/><path class="b" d="M285.7 48.167c.5-3.1 10.6-.9 9.8 1.7-.3 1-10-.5-9.8-1.7z"/><path class="b" d="M262.3 24.968a2.868 2.868 0 004.1 2.5c9.3-4.4 32.7-19.6 20.4-20.4-15-1-24.6 9.3-24.5 17.9zm23.4 23.2c.5-3.1 10.6-.9 9.8 1.7-.3 1-10-.5-9.8-1.7z"/><path class="b" d="M305.4 23.268a2.739 2.739 0 002.2-3.4c-2.1-8.9-15.5-17.4-29.1-10-10.8 5.8 9.6 16.3 26.9 13.4z"/><path class="d" d="M92.9 106.718c2.7-30.6 1.3-26.9 19.7-40.5zM177.4 106.718c-2.7-30.6-1.3-26.9-19.7-40.5z"/><path class="e" d="M163.2 61.218a8.392 8.392 0 00-1.3-4.4 13.138 13.138 0 001.6-6 8.192 8.192 0 00-2.9-6.3 6.444 6.444 0 001.7-4.5 11.027 11.027 0 00-2.8-6.9c1.7-4.4 1.6-9.5-1.9-12.6 2.7-6.6-9.4-23.7-23.9-20-14.4-3.6-26.5 13.3-24 19.9a10.615 10.615 0 00-1.7 2v.1a5.735 5.735 0 01-.4.7v.1c-.1.2-.2.5-.3.7v.1a9.737 9.737 0 00-.6 3.4v.9a2.768 2.768 0 00.1.9 16.897 16.897 0 001.2 4.4c-.2.2-.3.5-.5.7a4.348 4.348 0 00-.4.7.098.098 0 01-.1.1 4.876 4.876 0 00-.3.7.098.098 0 01-.1.1l-.3.6c0 .1 0 .1-.1.2-.1.2-.1.4-.2.6 0 .1 0 .2-.1.2a1.268 1.268 0 00-.1.6c0 .1 0 .2-.1.2 0 .2-.1.4-.1.6v1.9a.756.756 0 00.1.4c0 .1.1.2.1.4 0 .1 0 .2.1.2 0 .1.1.3.1.4s0 .1.1.2c.1.2.1.3.2.4v.1c.1.2.2.3.3.5v.1c.1.2.2.3.3.5a1.756 1.756 0 00.4.5l-.6.6-.1.1a1.756 1.756 0 00-.4.5c0 .1-.1.1-.1.2-.1.2-.2.3-.3.5a.35.35 0 01-.1.2c-.1.2-.2.3-.3.5 0 .1-.1.2-.1.3-.1.2-.1.3-.2.5 0 .1-.1.2-.1.3-.1.2-.1.4-.2.5 0 .1-.1.2-.1.3 0 .2-.1.4-.1.6v.3c0 .3-.1.6-.1.9a12.476 12.476 0 001.3 5.2 6.525 6.525 0 00-1.3 3.9 6.42 6.42 0 001.9 4.6 11.501 11.501 0 00-3 7.2l7.6-5.2h.2a4.869 4.869 0 001.2-.1v.2l.4-.3a7.04 7.04 0 004.4-3.5l4.7-3.8 1.6-7.9-2.9-2.3v-1.6c0-.2-.1-.4-.1-.6 0-.1 0-.1-.1-.2 0-.2-.1-.3-.1-.5 0-.1 0-.1-.1-.2-.1-.2-.1-.3-.2-.5a.098.098 0 00-.1-.1 1.38 1.38 0 00-.3-.4.098.098 0 00-.1-.1c-.1-.1-.2-.3-.4-.4h-.1a2.181 2.181 0 00-.5-.4l-.6-.3a5.577 5.577 0 00.7-1.6v-.1c.1-.2.1-.5.2-.8v-.2c0-.3.1-.6.1-.9v-.9a.901.901 0 00-.1-.5v-.3c0-.1-.1-.3-.1-.4a.367.367 0 00-.1-.3c0-.2-.1-.3-.1-.5 0-.1 0-.1-.1-.2a4.875 4.875 0 01-.3-.7.35.35 0 00-.1-.2c-.1-.1-.1-.3-.2-.4 0-.1-.1-.2-.1-.3-.1-.1-.1-.2-.2-.4-.1-.1-.1-.2-.2-.3s-.1-.2-.2-.3-.1-.2-.2-.3-.2-.2-.2-.3a1.756 1.756 0 00-.4-.5c-.1-.1-.2-.2-.2-.3l-.3-.3c-.1-.1-.2-.1-.2-.2-.1-.1-.2-.2-.3-.2-.1-.1-.2-.1-.2-.2-.1-.1-.2-.1-.3-.2s-.2-.1-.3-.2-.2-.1-.3-.2c-.1-.9-.1-1.9-.2-2.8v-7.8c8.1-3 16.8-8.3 19.5-16.7 2.7 8.4 11.3 13.7 19.4 16.6a74.4 74.4 0 01-.4 11.2 10.807 10.807 0 00-3.8 7.7 6.818 6.818 0 001 3.5 4.687 4.687 0 00-2.5 4.5l-2.9 2.2.8 8.2 2.6 1.5v.4a3.14 3.14 0 00.9.1l1.3.8c.1 4 3 7.1 6.5 7.1a5.503 5.503 0 003.5-1.2l3.3 2-1.3-4.3c.9-.5 1.3-1.8 1.3-3.2z"/><path class="c" d="M163.4 105.218h-5.3v-8.7a2.582 2.582 0 012.6-2.6h2.6v11.3z"/><path class="d" d="M149.6 84.318l-31.9-9.6 5.8-23.4 21.1-.9z"/><path class="d" d="M113.6 22.018c-.6 28.8 10.5 30.7 20.4 30.7 11.6 0 18.2-6.1 19.5-30.7M138 90.718l-16.9-31.7-10.6 8.9 13 12.4-.1.3a8.83 8.83 0 003.4 9.3l8.9 6.3"/><path class="d" d="M133 96.218l12.4-37.6 13.5 8.8-11.3 14.6a8.223 8.223 0 01.2 2.7c-1 9.8-7.7 15.3-15.4 17.6v13.5"/><path d="M132.695 94.74q-.154.64-.295 1.279c-.1.3.1.6.3.6a.659.659 0 00.9-.3q.17-.392.335-.789c.546.34 1.099.67 1.665.989.1.1.3 0 .4-.1a.33.33 0 000-.5c-.557-.438-1.115-.892-1.672-1.35a100.399 100.399 0 001.897-5.199c.37.588.759 1.171 1.175 1.749a1.023 1.023 0 001 .2.74.74 0 00.4-.9 36.315 36.315 0 00-1.656-3.836l2.956-8.964 5.749-17.434c3.778 2.518 7.556 5.03 11.334 7.476l-6.283 8.257-3.5 4.6-.4.6-.2.3-.1.1-.187.85-.013.05v.01c-.025.115-.015.077-.002.02l.002-.008v.179a5.019 5.019 0 01.2 1.2 11.467 11.467 0 01-.171 1.657c-.046.311-.094.627-.129.943a17.453 17.453 0 01-4.9 9.5 23.292 23.292 0 01-9.5 5.5 1.15 1.15 0 00-.6.9c0 2.208.092 4.324.188 6.524l.012.276c.1 2.3.2 4.5.4 6.8a.265.265 0 00.3.3c.2 0 .4-.1.4-.3.2-2.3.3-4.5.4-6.8l.012-.276c.085-1.955.167-3.843.185-5.788a22.77 22.77 0 009.803-5.636 19.588 19.588 0 005.6-10.6c.032-.32.074-.639.117-.961a16.203 16.203 0 00.183-2.14 7.455 7.455 0 00-.134-1.25l.034-.05.4-.6 3.5-4.6 6.925-8.876c1.477 1.307 3.034 2.515 4.587 3.72.834.648 1.668 1.295 2.488 1.957 3.1 2.5 5.7 5.3 6.6 9a63.501 63.501 0 011.9 11.7l.6 6c.1.667.156 1.334.211 2a15.71 15.71 0 00.689 4c0 .3.2.5.6.3a.76.76 0 00.8-.6 17.212 17.212 0 00-.056-4.2c-.057-.6-.114-1.2-.144-1.8l-.5-6q-.15-3-.6-6l-.041-.273a41.755 41.755 0 00-1.159-5.827 18.522 18.522 0 00-.778-2c-.144-.334-.289-.667-.422-1l-.8-1.4a6.842 6.842 0 00-.654-.873c-.122-.146-.24-.286-.346-.427a26.416 26.416 0 00-4.6-4.3 69.102 69.102 0 00-8.255-5.586.9.9 0 00-.245-.214c-2.25-1.45-4.5-2.925-6.75-4.4s-4.5-2.95-6.75-4.4a.355.355 0 01-.15-.05.355.355 0 00-.15-.05 1.08 1.08 0 00-1.4.7l-6.1 18.8-2.355 7.141q-.36-.675-.721-1.341l-.172-.318-.152-.282-4.2-7.9-8.4-15.9a.263.263 0 00-.008-.089c-.01-.03-.034-.054-.092-.111a1.215 1.215 0 00-1.6-.1l-10.6 8.9-.1.1a.9.9 0 00-.245.299 70.216 70.216 0 00-7.255 5 30.896 30.896 0 00-4.6 4.3 6.42 6.42 0 00-1 1.3l-.8 1.4a18.77 18.77 0 00-1.2 3 41.785 41.785 0 00-1.16 5.828l-.04.273-.6 6-.5 6c-.03.6-.087 1.2-.144 1.8a17.212 17.212 0 00-.056 4.2.634.634 0 00.5.6.608.608 0 00.9-.4 17.952 17.952 0 00.786-4.666c.035-.445.07-.89.114-1.334l.6-6a73.247 73.247 0 011.9-11.7c.9-3.7 3.5-6.5 6.6-9l.89-.688c1.862-1.437 3.747-2.892 5.568-4.47l12.404 11.647a9.786 9.786 0 00.338 5.311 8.847 8.847 0 003.6 4.7l4.5 3c.563.375 1.127.75 1.695 1.121zm16.092-12.771c.04-.186.03-.146.015-.08s-.036.16-.015.08z" fill="#006088"/><path class="a" d="M117.996 27.628a2.808 2.808 0 013.062-2.91l4.8.2h.006a3.82 3.82 0 013.837 3.862v.007a5.342 5.342 0 01-5.316 4.931H123.2a4.942 4.942 0 01-5.102-4.463v-.001l-.1-1.598-.001-.014zm6.404 8.09v-1l.029 1a7.34 7.34 0 007.27-6.865 5.574 5.574 0 00-.123-1.405l4.462.122a5.563 5.563 0 00-.237 1.41l-.001.02v.019a7.405 7.405 0 006.81 7.296l.09-.996-.083.996 1.195.1a6.981 6.981 0 007.574-5.732l.004-.02.002-.02.2-1.594a4.854 4.854 0 00-4.75-5.429l-4.8-.2h-.006a6.11 6.11 0 00-4.931 2.18l-6.426-.176a6.044 6.044 0 00-4.74-2.504l-4.797-.2a4.805 4.805 0 00-5.139 5.075l.099 1.587v.002a6.94 6.94 0 007.098 6.336zm18.391-1.396h-.004a5.406 5.406 0 01-4.987-5.284 3.93 3.93 0 014.162-3.62h.002l4.794.2a2.855 2.855 0 012.851 3.165l-.001.012-.198 1.578a4.982 4.982 0 01-5.417 4.05h-.01zm12.009 70.096c-1.3 0-2.7.1-4 .2a.576.576 0 00-.6.6.661.661 0 00.6.7c1.3.1 2.7.2 4 .2 1.3.1 2.7.1 4 .1.87.067 1.785.044 2.685.022.445-.011.885-.022 1.315-.022.44-.034.892-.056 1.347-.079a26.21 26.21 0 002.653-.221.645.645 0 00.6-.6.661.661 0 00-.6-.7 26.211 26.211 0 00-2.653-.221c-.455-.023-.907-.045-1.347-.079h-4c-1.3 0-2.7 0-4 .1z"/><path class="g" d="M126.3 20.718a5.902 5.902 0 011.4.2l.1.1a.661.661 0 00.6-.1.633.633 0 00.1-.9 3.654 3.654 0 00-2-1.1 6.478 6.478 0 00-2-.2 4.767 4.767 0 00-2 .4l-.15.074a3.268 3.268 0 00-1.55 1.226v.2c0 .2.2.3.4.3l.224-.038a8.42 8.42 0 011.476-.162 9.702 9.702 0 011.7-.1c.314 0 .627.027.927.053.273.024.534.047.773.047zm-1.9 11.1a1.685 1.685 0 01-1.7-1.7v-2.7a1.7 1.7 0 013.4 0v2.7a1.752 1.752 0 01-1.7 1.7zm6.336 22.111a20.294 20.294 0 01-2.836-.41 20.749 20.749 0 01-5.3-1.8l-1.2-.8a2.086 2.086 0 01-.3-.2 2.085 2.085 0 00-.3-.2l-.5-.5-1.1-1-.9-1.1a18.83 18.83 0 01-1.6-2.3 11.73 11.73 0 01-.781-1.58 18.863 18.863 0 00-.419-.92 11.031 11.031 0 01-.646-1.785c-.081-.27-.163-.543-.254-.816l-.4-1.3-.3-1.3c-.2-.9-.4-1.8-.5-2.6l-.3-2.7a24.52 24.52 0 01-.2-2.7l-.2-2.7a47.08 47.08 0 01.3-5.3c0-.4.4-.6.8-.6a1.276 1.276 0 01.5.7 29.833 29.833 0 01.336 3.882c.02.444.039.884.064 1.318l.016.269c.095 1.62.195 3.32.384 4.931l.3 2.6a18.424 18.424 0 00.5 2.5l.3 1.2.4 1.2c.1.267.189.534.278.8a11.854 11.854 0 00.622 1.6 14.911 14.911 0 006.1 7.4 20.85 20.85 0 009.7 2 40.704 40.704 0 005-.3 14.798 14.798 0 004.6-1.6 15.155 15.155 0 006.1-7.5 46.673 46.673 0 002.7-9.9c.514-2.495.866-5.044 1.215-7.567v-.003c.126-.915.252-1.826.385-2.73 0-.2.2-.3.4-.3a.32.32 0 01.3.3 62.742 62.742 0 01-.5 10.6 42.852 42.852 0 01-2.6 10.4 18.812 18.812 0 01-5.938 7.959l.438 4.641a48.246 48.246 0 01-14.664-1.789zM142.6 30.12a1.685 1.685 0 001.7 1.7 1.752 1.752 0 001.7-1.7v-2.7a1.7 1.7 0 10-3.4 0zm-11.1 13.3a13.095 13.095 0 012.8 0 6.602 6.602 0 011.4.1c.167.033.322.055.478.077a5.348 5.348 0 011.022.222.55.55 0 01.3.5.13.13 0 01-.05.1.13.13 0 00-.05.1 2.751 2.751 0 01-1.5.8 4.404 4.404 0 01-1.6.2 5.467 5.467 0 01-3.1-.7.687.687 0 01-.3-.9.605.605 0 01.6-.5zm3.2-13.5a.617.617 0 01.364.593.505.505 0 00.036.206l.1.8c0 .204.012.396.023.585a4.762 4.762 0 01-.023 1.115 9.703 9.703 0 01-.1 1.7 2.119 2.119 0 01-.7 1.7.483.483 0 01-.7 0 2.119 2.119 0 01-.7-1.7c0-.3-.025-.575-.05-.85s-.05-.55-.05-.85v-1.7l.1-.8a.917.917 0 00.036-.266.487.487 0 01.364-.534 1.22 1.22 0 011.3 0zm5.1-9.9a3.654 3.654 0 012-1.1 7.144 7.144 0 012-.2 4.477 4.477 0 012 .4 4.31 4.31 0 011.7 1.3.44.44 0 01-.1.5.32.32 0 00-.109.026c-.053.02-.091.035-.091-.027-.3-.05-.575-.075-.85-.1s-.55-.05-.85-.1c-.3 0-.575-.025-.85-.05s-.55-.05-.85-.05a9.702 9.702 0 00-1.7.1 5.212 5.212 0 00-1.4.2l-.3.1a.657.657 0 01-.8-.5.764.764 0 01.2-.5zm-12.3 21.7a.8.8 0 11-.8-.8.8.8 0 01.8.8z"/><path class="a" d="M663.5 82.918c1.5-.6 3.1-1.2 4.5-1.7 3.5-1.3 7.3-4.5 7.3-8.2v-10.2c0-11.4 22-2.1 22-2.1s-1.3 14.7.6 17.5 12.7 6.4 12.7 6.4l-22.9 15.4z"/><path class="e" d="M697.2 71.418l.3-4.8c-7.2.8-15.5 2.5-21 1.3s8.7 3.9 20.7 3.5z"/><path class="a" d="M706.5 42.318c0 15.9 1.2 25.1-18.2 25.1-23.3 0-22.2-2.9-22.2-23v-12.8s7.9-12.1 22.2-12.5 18.2 15.8 18.2 15.8z"/><path class="g" d="M670 80.318l17.2 7.7 12.9-6.9s37.4 5.8 37.4 34.7h-99.4c-.1-10.7 9.1-28.1 31.9-35.5z"/><path class="h" d="M681.6 34.218a6.803 6.803 0 00-1.5-.2h-1.7a14.355 14.355 0 00-3.1.5h-.1a.751.751 0 01-.9-.4.574.574 0 01.2-.7 4.123 4.123 0 011.9-1.1 7.469 7.469 0 012-.3 6.448 6.448 0 012 .3 3.683 3.683 0 011.9 1.1.428.428 0 01-.1.7.75.75 0 01-.5.1z"/><path class="b" d="M690.505 16.966a3.108 3.108 0 00-.105-.548l-6.2-1.3c-18.1-1.7-25.7 17.2-21.2 21.7 8.9 8.9 28.6-9.8 27.6-19.3a4.787 4.787 0 01-.095-.552zM687.5 61.418c-5.3 0-9.6 2.7-9.6 6.1h19.2c0-3.4-4.3-6.1-9.6-6.1z"/><path class="b" d="M676.4 44.918a1.685 1.685 0 001.7 1.7 1.626 1.626 0 001.7-1.7v-2.7a1.7 1.7 0 10-3.4 0zm21.664 26.973a26.422 26.422 0 00-.364-5.173c0-.3-.2-.5-.5-.4a.618.618 0 00-.8.5 30.713 30.713 0 00-.404 6.33c.002.355.004.712.004 1.07a9.093 9.093 0 003.6 7.2 11.4 11.4 0 001.9 1 6.093 6.093 0 001.593.443l.307.057a19.956 19.956 0 013.5.9 54.565 54.565 0 016.7 2.6 48.864 48.864 0 016.4 3.4 38.816 38.816 0 015.8 4.2 34.194 34.194 0 018.7 11.2c.1.2.2.2.4.2s.3-.2.3-.4a20.142 20.142 0 00-3-6.9 29.504 29.504 0 00-5-5.6 49.293 49.293 0 00-12.6-8.1 45.929 45.929 0 00-7-2.7c-1.002-.334-2.073-.598-3.098-.85l-.602-.15a7.49 7.49 0 01-1.6-.4 6.109 6.109 0 01-1.4-.7 6.555 6.555 0 01-2.8-5.5c-.03-.75-.033-1.49-.036-2.227z"/><path class="b" d="M666.8 44.518a78.69 78.69 0 01.4 9.7 35.584 35.584 0 00.5 4.7 10.2 10.2 0 001.6 4 6.101 6.101 0 001.5 1.3 12.148 12.148 0 002 .9 22.43 22.43 0 004.5.9c3.1.3 6.4.4 9.6.4a48.407 48.407 0 009.4-.7 15.214 15.214 0 004.2-1.6 8.907 8.907 0 003-3.1 15.015 15.015 0 001.5-4.2 35.49 35.49 0 00.6-4.7c.2-3.2.3-6.4.6-9.7 0-.2.2-.3.4-.3a.265.265 0 01.3.3c.3 3.2.5 6.5.5 9.7a28.86 28.86 0 01-.4 5 17.585 17.585 0 01-1.6 4.9 11.516 11.516 0 01-3.7 3.9 17.797 17.797 0 01-4.8 1.9 37.149 37.149 0 01-9.9.8 80.42 80.42 0 01-9.8-.5 31.6 31.6 0 01-5-1 25.574 25.574 0 01-2.4-1.1 9.095 9.095 0 01-2.1-1.8 10.87 10.87 0 01-2-4.9 28.102 28.102 0 01-.4-5 62.522 62.522 0 01.3-9.7.76.76 0 01.8-.6c.2-.1.4.2.4.5z"/><path class="b" d="M688.8 42.018a13.176 13.176 0 01.5 2.6 7.434 7.434 0 01-.3 2.6.716.716 0 01-.9.5 1.206 1.206 0 01-.5-.5 8.01 8.01 0 01-.3-2.6 10.893 10.893 0 01.5-2.6.517.517 0 01.7-.3zM698 46.618a1.685 1.685 0 01-1.7-1.7v-2.7a1.7 1.7 0 013.4 0v2.7a1.685 1.685 0 01-1.7 1.7z"/><path class="h" d="M695.6 32.318a3.408 3.408 0 00-1.9 1.1l-.044.084a.536.536 0 00-.056.516.486.486 0 00.6.3h.2a6.803 6.803 0 011.5-.2h1.7a10.069 10.069 0 013.1.5h.1a.722.722 0 00.7-1.2 3.683 3.683 0 00-1.9-1.1 6.447 6.447 0 00-2-.3 6.93 6.93 0 00-2 .3zm-9.6 25.8a14.346 14.346 0 01-2.2-.4c-.2-.1-.4-.1-.4.1a.483.483 0 000 .7 5.839 5.839 0 002.224 1.235l.176.065.245.055a10.507 10.507 0 002.355.345 11.845 11.845 0 002.6-.2 5.046 5.046 0 002.5-1.3.755.755 0 00.1-.8.73.73 0 00-1-.4l-.1.1a6.529 6.529 0 01-2 .5c-.338 0-.677.024-1.026.048-.374.026-.761.052-1.174.052a17.701 17.701 0 01-2.3-.1z"/><path class="b" d="M690 52.218c-.7-3.3-10.3.4-9.4 3.1 1 2.6 10-.3 9.4-3.1z"/><path class="b" d="M705.5 38.018c-4.5-10.2-12.9-16.3-20.2-17.2l-2.5-4.4 5.8-1.3c15.5-1.7 23.1 12 20.6 22.6a1.968 1.968 0 01-3.7.3zm-19.1 14.2c.7-3.3 10.3.4 9.4 3.1s-10-.3-9.4-3.1z"/><path class="a" d="M49.7 85.318l-3.7-5 6.8-.1z"/><path class="b" d="M58.7 37.018a3.654 3.654 0 012-1.1 7.144 7.144 0 012-.2 6.448 6.448 0 012 .3 4.123 4.123 0 011.9 1.1.56.56 0 010 .9.952.952 0 01-.7.2h-.1a8.278 8.278 0 00-3.2-.5 9.702 9.702 0 00-1.7.1 5.212 5.212 0 00-1.4.2l-.2.1a.68.68 0 01-.8-.4.844.844 0 01.2-.7zM45.6 38.518c-.29.218-.37.172-.507.092a.98.98 0 00-.193-.092 1.702 1.702 0 00-.7-.1 8.602 8.602 0 00-1.6-.1 8.083 8.083 0 00-1.6.1 3.243 3.243 0 01-1.7 0h-.1c-.2-.1-.4-.3-.3-.5a2.161 2.161 0 011.7-1.5 15.525 15.525 0 012.1-.4 7.487 7.487 0 012.1.2c.3.1.7.2 1.1.3a1.494 1.494 0 00.272.128c.294.117.628.25.628.772a.713.713 0 01-.3.6zm16.138 42.216a5.177 5.177 0 01-1.874.248 11.78 11.78 0 00-.964.036h-3.1c-1 0-2.025.025-3.05.05s-2.05.05-3.05.05c-2 0-4.1 0-6.1-.1a21.192 21.192 0 01-6.1-.7c-.2-.1-.3-.2-.2-.4a.215.215 0 01.2-.2 21.192 21.192 0 016.1-.7c2-.1 4.1-.1 6.1-.1s4.1 0 6.1.1h3.1c.3.03.6.033.904.036a6.727 6.727 0 011.517.133 8.568 8.568 0 01-.121-1.169c0-.435-.003-.867-.006-1.298-.005-.84-.01-1.673.005-2.506A89.017 89.017 0 0146.01 72.26a39.787 39.787 0 01-2.01-.242 21.454 21.454 0 01-5-1.2 12.972 12.972 0 01-4.4-2.9 11.915 11.915 0 01-2.7-4.6 28.033 28.033 0 01-1.2-5 36.49 36.49 0 01-.2-9.9.76.76 0 01.8-.6c.4-.2.6.1.6.4.249 1.592.349 3.208.449 4.813.1 1.62.2 3.229.451 4.787.5 3.1 1.4 6.2 3.4 8.4 2 2.1 5.1 3 8.2 3.5a76.194 76.194 0 009.6.5 19.07 19.07 0 008.9-2 12.441 12.441 0 005.6-6.9 35.745 35.745 0 001.9-9.3c.15-1.6.275-3.225.4-4.85s.25-3.25.4-4.85c0-.2.2-.3.4-.3a.265.265 0 01.3.3 81.244 81.244 0 01.3 9.9 33.736 33.736 0 01-1.7 9.9 14.231 14.231 0 01-6.5 8q-.518.3-1.051.555a29.11 29.11 0 01.315 5.072c.003.763.006 1.522.036 2.273a6.622 6.622 0 003.2 5.4 4.715 4.715 0 001.5.6 3.11 3.11 0 00.4.1 3.109 3.109 0 01.4.1l1 .2c.65.15 1.275.3 1.9.45s1.25.3 1.9.45a63.372 63.372 0 017.3 2.6 54.722 54.722 0 0113.3 8 31.765 31.765 0 015.4 5.6 18.493 18.493 0 013.3 7.1c0 .2-.1.4-.3.4s-.3 0-.4-.2a34.28 34.28 0 00-9.4-11.3 57.214 57.214 0 00-12.9-7.5 66.138 66.138 0 00-7-2.6 23.691 23.691 0 00-3.6-.9l-.9-.1a2.806 2.806 0 00-.346-.082 1.756 1.756 0 01-.654-.218 7.218 7.218 0 01-2-.9 8.764 8.764 0 01-3.662-4.484zM54.4 49.218a39.064 39.064 0 00-.5-4.8c-.1-.2-.2-.4-.4-.4-.3-.1-.5.1-.6.4a39.063 39.063 0 00-.5 4.8 19.387 19.387 0 00.3 4.8c0 .3.3.5.6.6.4.1.7-.2.8-.6a25.806 25.806 0 00.3-4.8zm-11.2 1.1a1.685 1.685 0 01-1.7-1.7v-2.7a1.7 1.7 0 013.4 0v2.7a1.626 1.626 0 01-1.7 1.7zm18.2-1.7a1.685 1.685 0 001.7 1.7 1.626 1.626 0 001.7-1.7v-2.7a1.7 1.7 0 10-3.4 0zm-14.045 9.947a.962.962 0 00-.755-.147h-.4a.792.792 0 00-.5.8c.094.655.713.96 1.12 1.16l.03.015.05.025a5.329 5.329 0 001 .449c.129.047.26.095.4.151a8.865 8.865 0 002.8.7 9.417 9.417 0 002.9.1 3.28 3.28 0 002.8-1.2.098.098 0 00.1-.1c0-.2-.1-.3-.3-.4h-.1a8.01 8.01 0 00-2.6-.3 20.446 20.446 0 01-2.354-.173l-.246-.027a22.113 22.113 0 01-2.5-.5 3.582 3.582 0 01-1.1-.4 1.277 1.277 0 01-.345-.153z"/><path class="g" d="M44 38.118c-6.6-3.3-8.8-7.8-9.6-10.8-1-3.7-1.3-13.2 12.6-15.6 26.871-4.623 30.088 22.757 30.736 28.267l.064.533c.6 4.3-1 9.4-2 12.2a1.148 1.148 0 01-2 .3 16.221 16.221 0 00-9.1-6.3c-1.845-.488-3.336-1.948-4.874-3.453a16.982 16.982 0 00-4.226-3.347 15.018 15.018 0 00-6.678-1.09 11.175 11.175 0 01-4.922-.71zm27.4 48l-45.9-.2c-18.5 9.8-25.5 29.9-25.5 30h106.2c-6.5-25-34.8-29.8-34.8-29.8z"/><path class="c" d="M30.6 44.518c-.6-.6-.4-1.2-.6-1.8-.1-.6-.1-1.2-.2-1.8a22.855 22.855 0 010-3.7 16.088 16.088 0 01.7-3.7 5.415 5.415 0 012.1-3.3c.2-.1.4-.1.5.1 0 .1.1.1.1.2a29.802 29.802 0 01-.6 3.4c-.2 1.1-.3 2.2-.4 3.4s-.1 2.3-.1 3.5v1.8c0 .6.2 1.2-.2 1.8v.1a.829.829 0 01-1.1.3c-.1-.2-.1-.3-.2-.3zM27.6 57.018a1.4 1.4 0 10-1.4-1.4 1.4 1.4 0 001.4 1.4z"/><path class="a" d="M190.9 54.518c5.7-.6 32.7-1.3 37 .1 0 0-2.9 18.3-17.9 18.2-15.2-.2-19.1-18.3-19.1-18.3z"/><path class="b" d="M203 30.618c-.4-.1-1-.2-1.6-.3a10.869 10.869 0 00-1.8-.1 9.893 9.893 0 00-3.5.6h-.1a.74.74 0 01-.9-.4.758.758 0 01.1-.7 5.93 5.93 0 012-1.2 14.893 14.893 0 011.966-.367l.234-.033a8.204 8.204 0 012.2.2l.091.026a3.918 3.918 0 012.109 1.174.746.746 0 010 .9.593.593 0 01-.7.1zm15.3-2.2a4.383 4.383 0 00-2.2 1.2.821.821 0 00-.1.7.68.68 0 00.8.4l.2-.1c.4-.1 1-.2 1.6-.3a10.869 10.869 0 011.8-.1 9.893 9.893 0 013.5.6h.1a.494.494 0 00.7-.1.56.56 0 000-.9 4.664 4.664 0 00-2-1.2 5.7 5.7 0 00-2.2-.4 8.204 8.204 0 00-2.2.2zm-10.4 29a8.56 8.56 0 01-2.3-.5c-.4-.2-.7-.1-.7.1a.642.642 0 00.1.9 6.148 6.148 0 002.7 1.3 9.034 9.034 0 002.8.4 13.33 13.33 0 002.8-.3 5.226 5.226 0 002.7-1.3.755.755 0 00.1-.8.687.687 0 00-.9-.3h-.1a7.09 7.09 0 01-2.2.6 20.902 20.902 0 01-2.5.1 19.482 19.482 0 01-2.5-.2zm-10.5-15.2a1.899 1.899 0 001.9 1.9 1.967 1.967 0 001.9-1.9v-3a1.9 1.9 0 10-3.8 0zm13.888 1.856a25.41 25.41 0 00-.488-3.656c0-.1-.2-.3-.5-.4a.622.622 0 00-.6.4 23.205 23.205 0 00-.5 3.8 16.677 16.677 0 00.3 3.8.902.902 0 00.6.6.779.779 0 00.9-.6 15.833 15.833 0 00.3-3.8zm9.712.044a1.899 1.899 0 01-1.9-1.9v-3a1.9 1.9 0 113.8 0v3a1.967 1.967 0 01-1.9 1.9z"/><path class="a" d="M231.1 46.018a99.735 99.735 0 001.4-10.8 38.065 38.065 0 00-.6-11.1 28.99 28.99 0 00-4-10.2 23.9 23.9 0 00-7.7-7.8 20.503 20.503 0 00-10.6-3.1 21.047 21.047 0 00-5.6.8 19.8 19.8 0 00-5.1 2.4 23.526 23.526 0 00-7.4 8.3 37.519 37.519 0 00-3.8 10.3 57.737 57.737 0 00-1.2 10.9c0 1.9 0 3.7.1 5.5l.005.097a33.72 33.72 0 00.595 5.403 30.543 30.543 0 003.9 10.4 21.132 21.132 0 008 7.7 23.797 23.797 0 0010.7 2.9 20.971 20.971 0 005.6-.7 15.998 15.998 0 005.2-2.2 19.494 19.494 0 007.2-8.4 42.013 42.013 0 003.3-10.4zm-.5-21.4a40.944 40.944 0 01.6 10.5 97.943 97.943 0 01-1.4 10.7 39.14 39.14 0 01-3.3 10 19.277 19.277 0 01-6.7 7.7 17.81 17.81 0 01-9.8 2.6 21.37 21.37 0 01-9.9-2.8 20.689 20.689 0 01-7.3-7.1 27.541 27.541 0 01-3.5-9.7 61.733 61.733 0 01.4-21 34.354 34.354 0 013.5-9.9 22.946 22.946 0 016.8-7.7 16.529 16.529 0 014.6-2.3 18.074 18.074 0 015.1-.8 18.886 18.886 0 019.8 2.8 23.127 23.127 0 017.3 7.3 30.208 30.208 0 013.8 9.7zM183.5 37.518c.1 1.1.2 2.3.2 3.5a21.738 21.738 0 01-.2 3.6.618.618 0 01-.8.5c-.3-.1-.5-.2-.5-.5a14.723 14.723 0 01-.4-3.6 16.1 16.1 0 01.4-3.7.542.542 0 01.8-.4.634.634 0 01.5.6z"/><path class="e" d="M207.8 40.418l-.2-4c0-.3-.2-.6-.7-.8a.563.563 0 00-.7.6l-.2 4v1a2.768 2.768 0 01-.1.9 4.795 4.795 0 01-.5 1.7 5.12 5.12 0 01-2.3 2.3 3.653 3.653 0 01-1.5.3h-4a4.013 4.013 0 01-1.5-.3 4.679 4.679 0 01-2.3-2.3 7.494 7.494 0 01-.5-1.6 2.768 2.768 0 01-.1-.9v-1c-.05-.65-.075-1.325-.1-2s-.05-1.35-.1-2a.645.645 0 00-.6-.6c-.4 0-.7.2-.7.6-.05.65-.075 1.325-.1 2s-.05 1.35-.1 2v1a1.661 1.661 0 01.05.513 2.385 2.385 0 00.05.587 7.944 7.944 0 00.6 2.2 6.833 6.833 0 003.2 3.3 4.645 4.645 0 002.3.6h4a5.932 5.932 0 002.3-.5 6.631 6.631 0 003.1-3.3 9.017 9.017 0 00.6-2.2 4.102 4.102 0 00.1-1.1zm21.8-1.45c-.025-.65-.05-1.3-.1-1.95a.587.587 0 00-.4-.6c-.4 0-.7.2-.7.6-.05.65-.075 1.3-.1 1.95s-.05 1.3-.1 1.95a8.865 8.865 0 01-.166 1.601l-.034.2a4.418 4.418 0 01-.6 1.6 5.42 5.42 0 01-2.4 2.1 7.772 7.772 0 01-1.6.2h-3.9a4.19 4.19 0 01-1.5-.4 5.134 5.134 0 01-2.2-2.4 4.284 4.284 0 01-.5-1.6 2.768 2.768 0 01-.1-.9v-1c-.05-.65-.075-1.3-.1-1.95s-.05-1.3-.1-1.95a.645.645 0 00-.6-.6c-.4 0-.7.2-.7.6-.05.65-.075 1.3-.1 1.95s-.05 1.3-.1 1.95v2.1a5.45 5.45 0 00.5 2.2 6.646 6.646 0 003 3.4 8.648 8.648 0 002.3.6h4a6.2 6.2 0 002.3-.4 6.656 6.656 0 003.3-3.1 8.64 8.64 0 00.7-2.1 15.485 15.485 0 00.1-2.1c-.05-.65-.075-1.3-.1-1.95z"/><path class="a" d="M188.9 36.418l42 .5z"/><path class="g" d="M199.4 35.52c-3.5 0-7 0-10.5.1a.576.576 0 00-.6.6.669.669 0 00.6.7c3.5.2 7 .3 10.5.4 1.75.05 3.5.075 5.25.1s3.5.05 5.25.1c3.5.1 7 .1 10.5.1s7 0 10.5-.1a.645.645 0 00.6-.6.669.669 0 00-.6-.7c-3.5-.2-7-.3-10.5-.4s-7-.2-10.5-.2c-3.5-.1-7-.1-10.5-.1zm9.5 57.498c-10.9 0-22.8-9.3-22.8-9.3-20 10.7-29.7 32.1-29.7 32.1h105.9c-8.4-23.1-33.5-31.4-33.5-31.4s-9 8.6-19.9 8.6z"/><path class="a" d="M220.06 75.056a2.091 2.091 0 00-.76-1.638c-.1-.2-.3-.2-.5 0a2.091 2.091 0 00-.76 1.638c-.011.119-.022.239-.04.362a20.049 20.049 0 000 4c.018.124.029.244.04.362l.02.197q-.601.3-1.199.605-.53.27-1.061.536c-1.3.65-2.6 1.325-3.9 2-1.144.594-2.287 1.188-3.431 1.764l-7.569-3.364q-.392-.174-.783-.35a31.342 31.342 0 00-7.617-2.65.172.172 0 00-.138-.05c-.037 0-.062 0-.062-.05a.304.304 0 000 .4 32.171 32.171 0 007.024 4.128l.776.372c1.546.773 3.127 1.51 4.723 2.255 1.088.508 2.182 1.018 3.277 1.545a.908.908 0 001 0c2.6-1.4 5.2-2.8 7.7-4.2q.495-.277.994-.55a29.095 29.095 0 006.306-4.25c.1 0 .1-.1.1-.2s-.2-.2-.3-.2a21.73 21.73 0 00-3.75 1.275c.05-.528.05-1.02.05-1.575a13.403 13.403 0 00-.1-2c-.018-.123-.029-.243-.04-.362z"/><path class="h" d="M378.4 30.818a4.383 4.383 0 012.2-1.2 8.204 8.204 0 012.2-.2 5.7 5.7 0 012.2.4 4.665 4.665 0 012 1.2.56.56 0 010 .9.494.494 0 01-.7.1h-.1a9.893 9.893 0 00-3.5-.6 10.869 10.869 0 00-1.8.1c-.6.1-1.2.2-1.6.3l-.2.1a.68.68 0 01-.8-.4.483.483 0 01.1-.7z"/><path class="g" d="M395.326 49.142c2.802 19.474 6.243 43.392-7.826 45.476 0 0 3.6-6.1 2.4-12.1-7.849-.512-7.546-9.83-7.288-17.773.045-1.367.088-2.693.088-3.927 6.6-7.3 8.9-18.9 8.9-18.9-2.59-4.152-7.444-7.419-12.462-10.796-8.153-5.488-16.738-11.265-16.738-21.604 14.5-2.2 30.6.8 31 22.2a156.655 156.655 0 001.926 17.424zM348.9 83.219l5.5-3a14.648 14.648 0 007.6-12.2l.3-5.6c-12.1-7.3-12.5-20.8-12.5-20.8z"/><path class="e" d="M346.8 83.218l25.3 6.7 17.8-7.4s21.3 6.1 28.3 33.3h-93.1c.1 0 1.5-21.9 21.7-32.6z"/><path class="h" d="M362.4 44.318a1.899 1.899 0 01-1.9-1.9v-3a1.9 1.9 0 113.8 0v3a1.839 1.839 0 01-1.9 1.9zM374 37.918a47.484 47.484 0 01.5 5.3 31.419 31.419 0 01-.3 5.3c-.1.4-.4.7-.8.6-.3-.1-.6-.3-.6-.6a31.419 31.419 0 01-.3-5.3 47.484 47.484 0 01.5-5.3c.1-.3.3-.5.6-.4.2 0 .3.2.4.4zM382.2 42.418a1.899 1.899 0 001.9 1.9 1.839 1.839 0 001.9-1.9v-3a1.9 1.9 0 10-3.8 0zm-9.7 13.1a17.227 17.227 0 01-4.4-.9.574.574 0 00-.7.2.758.758 0 00.1 1 6.538 6.538 0 002.3 1.3 12.589 12.589 0 002.7.4 6.462 6.462 0 002.7-.5 4.32 4.32 0 002.1-1.7v-.3a.365.365 0 00-.5-.2 9.283 9.283 0 01-4.3.7zM364.639 31.35a.894.894 0 00.761-.132 1.538 1.538 0 00.6-1.1.79.79 0 00-.608-.573 1.17 1.17 0 01-.292-.127c-.2-.05-.375-.1-.55-.15s-.35-.1-.55-.15a9.08 9.08 0 00-2.3-.3 5.867 5.867 0 00-2.3.4 2.288 2.288 0 00-1.7 1.6v.1a.458.458 0 00.4.5 3.854 3.854 0 001.9-.2 4.678 4.678 0 011.7-.2 10.869 10.869 0 011.8.1 2.906 2.906 0 00.45.1 2.907 2.907 0 01.45.1 1.15 1.15 0 01.239.032zM383.9 68.618a68.069 68.069 0 00-.5-7.8.669.669 0 00-.7-.6.661.661 0 00-.7.6 67.669 67.669 0 00-.1 7.8l.1 3.9v2a7.613 7.613 0 00.3 2.1 9.535 9.535 0 005.5 6.4 8.302 8.302 0 002.1.6 11.627 11.627 0 011.8.4 23.673 23.673 0 013.4 1.3 32.883 32.883 0 0111.3 9.7 82.307 82.307 0 016.466 11.107c.376.73.752 1.462 1.134 2.193.1.2.2.2.4.2s.3-.2.3-.4a38.112 38.112 0 00-6.6-14.3 31.748 31.748 0 00-12-10.4 24.639 24.639 0 00-3.8-1.4l-.379-.11a11.296 11.296 0 00-1.621-.39 29.728 29.728 0 00-.618-.168 9.126 9.126 0 01-1.082-.332 7.292 7.292 0 01-4.3-4.9l-.038-.224a8.406 8.406 0 01-.162-1.476l-.1-1.9z"/><path class="g" d="M367 9.118c-20.2 0-22.8 23.3-20.9 35.3s-7.1 30.8-7.2 40.6c-.1 7.3 8 9.7 14.2 9.7 14 0 9-26.7 9.3-32.2-11.1-3.1-12.1-22.8-12.1-22.8s20-17.4 16.7-30.6z"/><path class="h" d="M351 39.618c.5 2.9.7 5.8 1.6 8.5a26.604 26.604 0 003.9 7.7 29.406 29.406 0 006 6.2 22.548 22.548 0 003.6 2.4 14.592 14.592 0 003.9 1.6 3.976 3.976 0 001.8.2 18.032 18.032 0 001.9-.5 16.154 16.154 0 003.6-2.1 32.036 32.036 0 006.1-6.1 55.155 55.155 0 007.9-15.7c.1-.2.2-.3.4-.2s.2.2.2.4a36.474 36.474 0 01-6.9 16.8 33.365 33.365 0 01-6.4 6.6 15.237 15.237 0 01-4.1 2.4 10.273 10.273 0 01-2.5.7 10.979 10.979 0 01-2.6-.2 24.507 24.507 0 01-8.3-4.4 33.893 33.893 0 01-6.4-6.7 29.213 29.213 0 01-4.1-8.3 20.615 20.615 0 01-1-9.2.76.76 0 01.8-.6.634.634 0 01.6.5z"/><path class="d" d="M349.3 54.318a1.3 1.3 0 10-1.3-1.3 1.3 1.3 0 001.3 1.3zM391.9 54.318a1.3 1.3 0 10-1.3-1.3 1.3 1.3 0 001.3 1.3z"/><path class="i" d="M621 20.318v-.5c5.871 4 6.385 14.588 6.53 17.594a3.237 3.237 0 00.07.806c-2.7.1-6.8-6.8-8.9-12.5a4.453 4.453 0 00-4.3-2.6h-14.6a4.554 4.554 0 00-4.3 2.6c-2.2 5.6-6.3 11.7-8.9 11.6 0 0-.1-13.7 6.9-18.4v.5a17.009 17.009 0 0112.6-5.6c10.3 0 13.8 3.8 14.9 6.5zm-3.7 48.8v4.3a54.301 54.301 0 01-19.1-3.5c4.498 1.044 9.447.411 14.952-.293 1.349-.172 2.731-.35 4.148-.507z"/><path class="h" d="M600.4 37.818a5.902 5.902 0 00-1.4-.2c-.239 0-.5-.023-.773-.046-.3-.027-.613-.054-.927-.054a8.279 8.279 0 00-3.2.5h-.1a.74.74 0 01-.9-.4.618.618 0 01.2-.7 4.123 4.123 0 011.9-1.1 6.93 6.93 0 012-.3 6.478 6.478 0 012 .2 3.654 3.654 0 012 1.1.746.746 0 010 .9.471.471 0 01-.6.1zm14.1-2.1a3.654 3.654 0 00-2 1.1c-.2.1-.2.4-.2.7a.68.68 0 00.8.4l.2-.1a5.213 5.213 0 011.4-.2 9.702 9.702 0 011.7-.1 8.278 8.278 0 013.2.5h.1a.952.952 0 00.7-.2.56.56 0 000-.9 4.123 4.123 0 00-1.9-1.1 6.447 6.447 0 00-2-.3 7.145 7.145 0 00-2 .2zm-9.5 24a10.805 10.805 0 01-2.1-.5c-.4-.2-.7-.1-.8.4a.642.642 0 00.1.9 7.16 7.16 0 002.5 1.2 11.417 11.417 0 005.2 0 6.671 6.671 0 002.5-1.3.755.755 0 00.1-.8.687.687 0 00-.9-.3h-.1a6.529 6.529 0 01-2 .5 15.483 15.483 0 01-2.2.1 16.413 16.413 0 01-2.3-.2zm3.2-10.7a39.073 39.073 0 00-.5-4.8c-.1-.2-.2-.4-.4-.4-.3-.1-.5.1-.6.4a39.061 39.061 0 00-.5 4.8 25.808 25.808 0 00.3 4.8c0 .3.3.5.6.6.4.1.7-.2.8-.6a25.808 25.808 0 00.3-4.8zm-12.8-.6a1.685 1.685 0 001.7 1.7 1.752 1.752 0 001.7-1.7v-2.7a1.7 1.7 0 10-3.4 0zm21.5 1.7a1.685 1.685 0 01-1.7-1.7v-2.7a1.7 1.7 0 113.4 0v2.7a1.626 1.626 0 01-1.7 1.7z"/><path class="i" d="M618.1 68.218a32.527 32.527 0 01.3 4.4 21.714 21.714 0 01-.3 4.4.618.618 0 01-.8.5c-.3-.1-.5-.3-.5-.5a21.718 21.718 0 01-.3-4.4 32.527 32.527 0 01.3-4.4.76.76 0 01.8-.6.634.634 0 01.5.6z"/><path class="i" d="M627.6 42.018a67.12 67.12 0 01-1.3 9.9 46.468 46.468 0 01-3 9.6 19.1 19.1 0 01-6.6 7.8 21.831 21.831 0 01-4.7 2.1 17.793 17.793 0 01-5.1.6 21.2 21.2 0 01-9.8-2.7 20.98 20.98 0 01-7.4-7.1 27.458 27.458 0 01-3.6-9.5 29.212 29.212 0 01-.5-5c-.1-1.7-.1-3.3-.1-5a56.68 56.68 0 011.1-10 35.96 35.96 0 013.4-9.5 20.684 20.684 0 016.8-7.6 15.584 15.584 0 014.7-2.2 18.075 18.075 0 015.1-.8 18.716 18.716 0 019.8 2.9 22.202 22.202 0 017.1 7.2 26.962 26.962 0 013.6 9.4 40.626 40.626 0 01.5 9.9zm-1.4-.1c.5-6.4-.6-13.1-4.1-18.5a21.426 21.426 0 00-6.7-6.7 16.758 16.758 0 00-8.9-2.6 17.657 17.657 0 00-4.6.7 16.519 16.519 0 00-4.2 2.1 20.789 20.789 0 00-6.2 7 35.762 35.762 0 00-3.2 9 52.148 52.148 0 00-1 9.6 51.104 51.104 0 00.7 9.6 25.693 25.693 0 003.2 8.9 18.177 18.177 0 006.7 6.5 20.364 20.364 0 009 2.6 15.778 15.778 0 0015-9.5 41.294 41.294 0 003-9.2 58.753 58.753 0 001.3-9.5zm-43.3 5.4c0-1.1-.1-2.2-.2-3.2-.1-.3-.2-.6-.5-.6a.542.542 0 00-.8.4 13.687 13.687 0 00-.4 3.4 12.42 12.42 0 00.4 3.3.642.642 0 00.5.5.618.618 0 00.8-.5 18.286 18.286 0 00.2-3.3z"/><path class="a" d="M604.902 44.969c-.023-.55-.045-1.089-.084-1.627l-.018-.224a.75.75 0 00-.3-.6c-.4 0-.7.2-.7.6l-.016.211-.006.068c-.092 1.194-.178 2.307-.178 3.421v.9a2.202 2.202 0 01-.1.8 8.797 8.797 0 01-.5 1.5 4.738 4.738 0 01-2.1 2.1 3.53 3.53 0 01-1.4.3h-3.6a3.194 3.194 0 01-1.4-.3 4.737 4.737 0 01-2.1-2.1 4.422 4.422 0 01-.5-1.5 2.201 2.201 0 01-.1-.8v-.9a49.596 49.596 0 01-.098-1.849 45.638 45.638 0 00-.098-1.798l-.004-.053a.645.645 0 00-.6-.6c-.4 0-.7.2-.7.6l-.003.036c-.047.624-.071 1.224-.095 1.813-.026.626-.051 1.239-.102 1.851v1.9a4.552 4.552 0 00.5 2 5.567 5.567 0 005.1 3.6h3.6a5.45 5.45 0 002.2-.5 6.694 6.694 0 002.9-3.1 6.53 6.53 0 00.5-2 3.403 3.403 0 00.1-1v-.9a49.807 49.807 0 01-.098-1.849zm12.598 14.75a4.012 4.012 0 00-.3-1.5 1.382 1.382 0 00-.3-.4.819.819 0 00-1 .4 4.012 4.012 0 00-.3 1.5 2.704 2.704 0 00.3 1.5l.3.3a.714.714 0 001-.3 2.705 2.705 0 00.3-1.5zm7.3-16.1c.05.6.075 1.2.1 1.8s.05 1.2.1 1.8a14.087 14.087 0 01-.1 2 5.334 5.334 0 01-.7 2 6.28 6.28 0 01-3.1 2.9 5.555 5.555 0 01-2.1.4h-3.7a5.092 5.092 0 01-2.1-.6 6.026 6.026 0 01-2.8-3.1 6.527 6.527 0 01-.5-2v-1.9c.05-.6.075-1.2.1-1.8.024-.57.047-1.139.092-1.708l.008-.093c0-.4.3-.6.7-.6a.645.645 0 01.6.6l.009.11c.044.564.067 1.127.091 1.69.025.6.05 1.2.1 1.8v.9a2.201 2.201 0 00.1.8 8.333 8.333 0 00.4 1.5 4.098 4.098 0 002 2.1 5.25 5.25 0 001.098.351l.202.05h3.5a2.965 2.965 0 001.4-.2 3.879 3.879 0 002.1-1.9 3.327 3.327 0 00.439-.954c.05-.147.101-.297.161-.447.052-.262.077-.525.104-.802.024-.25.048-.513.096-.798.05-.6.075-1.2.1-1.8s.05-1.2.1-1.8a.585.585 0 01.093-.333.698.698 0 01.607-.267c.394-.295.691-.105.7.284z"/><path class="i" d="M587.5 42.418c3.2-.1 6.4-.1 9.6-.1h9.6c3.2 0 6.4.1 9.6.2s6.4.2 9.6.4a.669.669 0 01.6.7.645.645 0 01-.6.6c-3.2.1-6.4.1-9.6.1s-6.4 0-9.6-.1-6.4-.1-9.6-.2l-9.6-.3a.669.669 0 01-.6-.7.645.645 0 01.6-.6z"/><path class="a" d="M606.9 88.918l1.2 3a1.02 1.02 0 00.8.5.68.68 0 00.4-.8l-1-3.1-.5-1.6a14.105 14.105 0 01-.129-.341 4.879 4.879 0 00-.671-1.359 6.11 6.11 0 00-3-2.3c-.5-.2-1.025-.4-1.55-.6s-1.05-.4-1.55-.6l-6.2-2-6.3-1.9a1.005 1.005 0 00-1.1.5l-1.2 2.7c-.2.45-.375.9-.55 1.35s-.35.9-.55 1.35a.67.67 0 00.3.8.651.651 0 00.9-.2c.25-.45.5-.875.75-1.3s.5-.85.75-1.3c.133-.24.267-.473.398-.703.223-.39.441-.769.643-1.158l5.459 1.761 6.2 1.9 3.1 1.1a3.82 3.82 0 012.2 1.5c.2.4.4.8.6 1.3zm3.15-6.95c-.45.175-.9.35-1.35.55a.569.569 0 00-.4.7.618.618 0 00.8.5l.417-.091a23.529 23.529 0 002.383-.609c.45-.15.925-.275 1.4-.4s.95-.25 1.4-.4a86.264 86.264 0 004.835-1.447c.09.165.177.331.265.497.225.425.45.85.7 1.25.5.9 1 1.7 1.5 2.5a.67.67 0 00.8.3.74.74 0 00.4-.9c-.3-.9-.7-1.8-1.1-2.7-.4-.8-.8-1.7-1.2-2.6a.948.948 0 00-1.1-.5c-1.9.6-3.8 1.2-5.6 1.8-.58.174-1.126.382-1.658.584-.386.146-.764.29-1.142.416-.45.2-.9.375-1.35.55z"/><path class="c" d="M585 86.418s10.9 8.5 20.9 8.5 18.2-7.9 18.2-7.9 23 7.6 30.7 28.8h-97s8.8-19.6 27.2-29.4zM419.3 86.918l19.4 10.1 18.1-9.9s25.5 3.9 31.4 28.8h-95.6c0-.1 0-19.6 26.7-29z"/><path class="c" d="M426.1 82.718a3.925 3.925 0 011.3.6 5.17 5.17 0 001.3.6 7.837 7.837 0 001.4.5c.5.1 1 .3 1.5.4a31.781 31.781 0 006.2.5 42.053 42.053 0 006.2-.5 30.295 30.295 0 005.9-1.6h.1c.2-.1.4 0 .4.2a.367.367 0 01-.1.3 13.575 13.575 0 01-1.2 1.2c-.2.2-.5.3-.7.5a5.936 5.936 0 01-.8.4 11.91 11.91 0 01-3.2 1 31.464 31.464 0 01-13.2 0c-.5-.1-1.1-.3-1.6-.4a10.41 10.41 0 01-1.6-.6 5.446 5.446 0 01-2.8-2.2.687.687 0 01.3-.9.601.601 0 01.4-.1z"/><path class="j" d="M448.9 74.718l-1-6.3c-3.4 3.2-13.4 4.5-20.5 1.1 0-.1 9.5 5.6 21.5 5.2z"/><path class="b" d="M443.55 36.543a.886.886 0 00-.65.775c-.1.2 0 .4.6.7l.6.4a.465.465 0 00.459.05.612.612 0 01.241-.05 1.292 1.292 0 00.279-.042 1.82 1.82 0 01.421-.058 8.083 8.083 0 011.6-.1 8.602 8.602 0 011.6.1l.075.015a3.125 3.125 0 001.625-.015h.1a.382.382 0 00.3-.5 2.313 2.313 0 00-1.7-1.5 5.222 5.222 0 00-2.1-.4 14.92 14.92 0 00-2.1.2c-.2.05-.375.1-.55.15s-.35.1-.55.15a1.55 1.55 0 01-.25.125zM427.4 50.618a1.685 1.685 0 01-1.7-1.7v-2.7a1.7 1.7 0 113.4 0v2.6a1.653 1.653 0 01-1.7 1.8zm10.8-4a.634.634 0 01.364.63.929.929 0 00.036.27l.1.9c0 .2.011.4.022.6a5.413 5.413 0 01-.022 1.2 10.868 10.868 0 01-.1 1.8 2.314 2.314 0 01-.7 1.8.483.483 0 01-.7 0 2.314 2.314 0 01-.7-1.8c0-.3-.025-.6-.05-.9-.025-.3-.05-.6-.05-.9v-1.8l.1-.9a.93.93 0 00.036-.27.634.634 0 01.364-.63 1.051 1.051 0 011.3 0zm7.4 2.3a1.685 1.685 0 001.7 1.7 1.653 1.653 0 001.7-1.8v-2.6a1.7 1.7 0 10-3.4 0zm-12.4 10.7a.984.984 0 01.827.013 2.837 2.837 0 00.273.087 3.595 3.595 0 001.1.2 16.221 16.221 0 004.4.1l.116-.016a7.402 7.402 0 012.084-.084h.1a.43.43 0 01.4.4v.1a2.94 2.94 0 01-1 1.2 3.158 3.158 0 01-1.18.47l-.12.03a12.216 12.216 0 01-2.6.3 11.53 11.53 0 01-2.6-.3l-.202-.049a5.243 5.243 0 01-1.098-.35 3.753 3.753 0 00-.265-.116c-.36-.147-.756-.308-.835-.785a.876.876 0 01.5-1z"/><path class="j" d="M457 52.218a63.823 63.823 0 001-9.8 34.758 34.758 0 00-4.5-19.2 24.035 24.035 0 00-7.2-7 18.538 18.538 0 00-9.7-2.8 16.641 16.641 0 00-9.6 3.1 22.243 22.243 0 00-6.6 7.7c-3.2 6-4.2 12.8-4.3 19.4a56.078 56.078 0 00.7 10 24.685 24.685 0 003.7 9.4 20.472 20.472 0 007.5 6.8 20.984 20.984 0 009.8 2.5 18.642 18.642 0 009.7-2.9 19.355 19.355 0 006.5-7.7 35.055 35.055 0 003-9.5zm-5-28.1c3.5 5.3 4.8 11.9 4.6 18.3a78.128 78.128 0 01-1 9.6 38.88 38.88 0 01-3 9.1 18.806 18.806 0 01-6.1 7 16.41 16.41 0 01-8.9 2.5 19.098 19.098 0 01-15.8-8.6 24.33 24.33 0 01-3.4-8.7 51.101 51.101 0 01-.7-9.6c.1-6.4 1-12.9 3.9-18.6a21.672 21.672 0 016-7.1 15.13 15.13 0 018.7-2.9 17.589 17.589 0 018.9 2.5 22.186 22.186 0 016.8 6.5z"/><path class="b" d="M430.8 38.318c-.4.3-.4.1-.7 0a1.702 1.702 0 00-.7-.1 8.602 8.602 0 00-1.6-.1 8.083 8.083 0 00-1.6.1 3.243 3.243 0 01-1.7 0h-.1c-.2-.1-.4-.3-.3-.5a2.161 2.161 0 011.7-1.5 15.526 15.526 0 012.1-.4 7.487 7.487 0 012.1.2c.3.1.7.2 1.1.3.3.2.9.2.9.9a.713.713 0 01-.3.6z"/><path class="j" d="M445.8 16.418a38.093 38.093 0 00-11.7-2c-13.1-.2-18.4 20.4-17.5 31.8l-3 33.6h14.1l1.2-10.4s-10.6-3.2-12-21c10.5-4 14.3-15.3 14.3-15.3s14.9 1.8 19.4-7.5c.6 1 1.2 2 1.8 3.1 4 7.3 4 17.2 3.9 19a19.98 19.98 0 001-2.1c-2.2 17.3-11.6 24.8-11.6 24.8l1.7 9.4 11.7.1-1.4-34.8c12.1-26.2-3.4-27.5-11.9-28.7z"/><path class="d" d="M439.6 94.418c.2 1.8.2 3.6.3 5.4 0 1.8.1 3.6 0 5.4 0 1.8 0 3.6-.1 5.4 0 1.8-.1 3.6-.2 5.4 0 .4-.3.6-.7.6a.645.645 0 01-.6-.6c-.1-1.8-.2-3.6-.2-5.4-.1-1.8-.1-3.6-.1-5.4v-5.4c.1-1.8.1-3.6.3-5.4a.661.661 0 01.7-.6.645.645 0 01.6.6zM133.012 93.49a86.089 86.089 0 011.944-6.277c-.592-1.064-1.151-2.146-1.72-3.245l-.336-.65-4.3-7.9-7.864-14.617-8.586 7.128 12.15 11.59a.96.96 0 01.3 1 7.872 7.872 0 00.1 4.8 8.337 8.337 0 002.8 3.9c.7.55 1.425 1.1 2.15 1.65.725.55 1.45 1.1 2.15 1.65.404.317.808.642 1.212.972z"/></svg>