<svg xmlns="http://www.w3.org/2000/svg" xmlns:xlink="http://www.w3.org/1999/xlink" viewBox="0 0 143.8 180.818"><defs><style>.a{fill:none;}.b{clip-path:url(#a);}.c{fill:#dcdcde;}.d{fill:#98c6d9;}.e{fill:#006088;}.f{fill:#187aa2;}.g{fill:#6ab3d0;}.h{fill:#003c56;}.i{fill:#fff;}.j{fill:#f6f7f7;}</style><clipPath id="a" transform="translate(0 0)"><rect class="a" width="143.8" height="180.82"/></clipPath></defs><title>woocommerce-setup</title><g class="b"><path class="c" d="M71.9,180.818A71.9,71.9,0,1,0,0,108.918,71.9,71.9,0,0,0,71.9,180.818Z" transform="translate(0 0)"/><path class="d" d="M123.9,80.2176s2.2-10.6,4.1-13.1.2-9.8,2.5-11,5.9-.5,9.1,5.6-.4,13.8-.4,13.8l-7,10Z" transform="translate(0 0)"/><path class="e" d="M138.3,59.3176a13.403,13.403,0,0,1,2.5,3.7,13.725,13.725,0,0,1,1.2,4.4,11.9423,11.9423,0,0,1-.3,4.6,11.6022,11.6022,0,0,1-1.8,4.3c-.8,1.2-1.5,2.4-2.3,3.6s-1.5,2.4-2.3,3.7c-1.5,2.5-2.9,5-4.6,7.3a.5637.5637,0,0,1-.9.1.627.627,0,0,1-.2-.8,70.0838,70.0838,0,0,1,4-7.7,82.3308,82.3308,0,0,1,4.6-7.4,11.7317,11.7317,0,0,0,1.9-7.6,18.6541,18.6541,0,0,0-.7-4,21.98,21.98,0,0,0-1.7-3.9.44.44,0,0,1,.1-.5.7639.7639,0,0,1,.5.2Z" transform="translate(0 0)"/><path class="d" d="M127.3,69.8176s-2.4-7.6-4.9-6.4c-2.7,1.6,3.6,7,2.1,15.2" transform="translate(0 0)"/><path class="e" d="M127.2,69.8176c-.7-1.3-1.4-2.6-2.1-3.8a11.0935,11.0935,0,0,0-1.2-1.6,1.5212,1.5212,0,0,0-.6-.4c-.2-.1-.3,0-.5,0h.1c-.2.1-.2.2-.2.3v.6a6.9733,6.9733,0,0,0,.6,1.7c.5,1.2,1,2.5,1.4,3.8a14.1031,14.1031,0,0,1,.7,4.1,11.28,11.28,0,0,1-.5,4.1c-.1.2-.2.2-.4.2-.1,0-.2-.2-.2-.3a25.4869,25.4869,0,0,0-.2-3.9,22.2125,22.2125,0,0,0-.9-3.7c-.4-1.2-1-2.4-1.5-3.6-.2-.6-.5-1.3-.7-2.1a3.2676,3.2676,0,0,1,0-1.4,2.0036,2.0036,0,0,1,1-1.2h.1a1.7181,1.7181,0,0,1,1.7,0,2.4211,2.4211,0,0,1,1.1.8,6.2511,6.2511,0,0,1,1.3,2,18.0268,18.0268,0,0,1,.8,2.1,14.191,14.191,0,0,1,.5,2.2c0,.1,0,.2-.1.2s-.2,0-.2-.1Z" transform="translate(0 0)"/><path class="f" d="M99.6,111.118s6.7,14.8,14.7,11.9c16.5-6,18-32.7,21-37.7l-13.1-6-15.3,23.7Z" transform="translate(0 0)"/><path class="f" d="M91.6,67.8176c22.6-.5,32.4,36.3,17.5,45-10.9,6.4-17,2.9-27.8-1.9l7.9-11.6" transform="translate(0 0)"/><path class="d" d="M59.5,67.2176c6.7-3.9,25.5-2.4,32.1.6,0,0-7.9,16.6-16.6,17.4" transform="translate(0 0)"/><path class="d" d="M63.6,49.2176H87.1v33.8H63.6Z" transform="translate(0 0)"/><path class="d" d="M89,20.2176c6.1,13.2,4.8,38.6-16.1,38.6s-22.2-25.4-16.1-38.6" transform="translate(0 0)"/><path class="g" d="M63.6,57.4176v7.1s12.8-1.3,17.7-7.2l-8.2,1.5Z" transform="translate(0 0)"/><path class="f" d="M44.7,139.618c-5.7,7.6-9.8,17.7-12.5,29.2a71.7446,71.7446,0,0,0,82.3-2c-4.1-14.2-10.1-23.8-16.9-30.6C97.7,136.218,64.2,113.918,44.7,139.618Z" transform="translate(0 0)"/><path class="h" d="M87.5,52.0176s3.5,5.2,11.4.7,5-15.3,5-15.3,5-3.4,3.6-12.1c-1.2-7.3-9.5-10.1-9.5-10.1s1.2-5.6-5.9-11.7c-8.2-7-18.7-.9-18.7-.9s-5.9-4.8-17-1.4c-13.8,4.3-9.9,17.5-9.9,17.5-13.5,6.8-8.1,29.3,9.6,30.1,0,0-10.6-38.2,18-38.2,30.4,0,13.4,41.4,13.4,41.4" transform="translate(0 0)"/><path class="e" d="M72.9,59.8177c-7.1152,0-12.7329-2.9043-16.2471-8.3984-5.7964-9.0645-4.7183-23.0571-.7607-31.6211a1,1,0,0,1,1.8154.8389c-3.7349,8.082-4.7832,21.2393.63,29.7046C61.51,55.3026,66.41,57.8177,72.9,57.8177s11.3892-2.5151,14.562-7.4761c5.4131-8.4653,4.3652-21.6226.63-29.7046a1,1,0,0,1,1.8164-.8389c3.957,8.564,5.0352,22.5566-.7617,31.6211C85.6328,56.9134,80.0146,59.8177,72.9,59.8177Z" transform="translate(0 0)"/><path class="f" d="M106.2,100.818c-.8,31.1-4.5,41.1-31.7,41.6-19.5.4-40.5,1.8-41.4-38-.3-12.6,14.1-33.9,27-38.1,0,0,4.1,14.6,14.9,14.6s14.7-14.4,14.7-14.4C103.3,70.5176,106.5,87.4176,106.2,100.818Z" transform="translate(0 0)"/><path class="e" d="M99.1,133.918a111.64,111.64,0,0,0,4.6-13.8c.6-2.3,1.2-4.7,1.6-7.1a59.33,59.33,0,0,0,1-7.2,45.7707,45.7707,0,0,0-.8-14.3,24.1928,24.1928,0,0,0-6.8-12.4.4464.4464,0,0,1,0-.5.3042.3042,0,0,1,.4,0,22.9406,22.9406,0,0,1,8.2,12.4,30.9119,30.9119,0,0,1,1.2,7.4,62.6282,62.6282,0,0,1-.2,7.5,72.43,72.43,0,0,1-2.8,14.6,96.65,96.65,0,0,1-5.2,13.9.6867.6867,0,0,1-.9.3A.5529.5529,0,0,1,99.1,133.918Z" transform="translate(0 0)"/><path class="h" d="M60.8,86.5176a3.4,3.4,0,1,0-3.4-3.4A3.4,3.4,0,0,0,60.8,86.5176Z" transform="translate(0 0)"/><path class="h" d="M67.1,81.7176l-12.4,1.3a3.4333,3.4333,0,0,0-3,3.7l.1.7a3.4333,3.4333,0,0,0,3.7,3l12.4-1.3a3.4333,3.4333,0,0,0,3-3.7l-.1-.7a3.4333,3.4333,0,0,0-3.7-3Z" transform="translate(0 0)"/><path class="i" d="M86.8,137.818l-38.8,4.2a1.8051,1.8051,0,0,1-2-1.6l-5.4-50.1a1.8051,1.8051,0,0,1,1.6-2l38.8-4.2a1.8051,1.8051,0,0,1,2,1.6l5.4,50.1a1.8051,1.8051,0,0,1-1.6,2Z" transform="translate(0 0)"/><path class="h" d="M76.1943,139.965c3.5193-.45,7.1028-.909,10.6057-1.447l.1-.2a2.0571,2.0571,0,0,0,1.5-.8,2.1553,2.1553,0,0,0,.5-1.7l-.2-3c-.1037-.985-.18-1.997-.2582-3.021-.0723-.953-.1455-1.916-.2418-2.879-.1916-1.916-.36-3.832-.5279-5.737-.1824-2.072-.3637-4.131-.5721-6.163l-1.2-11.9-1.2-11.8-.3-3-.2-1.5-.1-.7a2.9527,2.9527,0,0,0-1.5-2.7,2.0969,2.0969,0,0,0-1.1-.4h-1l-3,.3-11.8,1.2-23.7,2.5a2.7164,2.7164,0,0,0-2,1.1,2.9766,2.9766,0,0,0-.6,2.2l.3,3,.6,5.9,1.3,11.8,2.6,23.7.3,3,.2,1.5.1.7a2.9528,2.9528,0,0,0,1.5,2.7,2.097,2.097,0,0,0,1.1.4h1l3-.3,11.8-1.3,11.8-1.3Q75.5957,140.0415,76.1943,139.965ZM87.9,135.718a1.4113,1.4113,0,0,1-1.2,1.7l-.2-.1c-4,.2-8,.5-11.9.9l-11.8,1.2-11.8,1.2-3,.3h-.5a.3674.3674,0,0,1-.3-.1.6644.6644,0,0,1-.4-.5l-.6-5.8-2.5-23.7-1.2-11.8-.6-5.9-.3-3a.6892.6892,0,0,1,.6-.9l23.7-2.6,11.8-1.3,3-.3h.5a.3674.3674,0,0,1,.3.1.6644.6644,0,0,1,.4.5l.6,5.8,1.3,11.8,1.4,11.8c.25,1.95.5,3.925.75,5.9s.5,3.95.75,5.9c.15,1,.275,1.975.4,2.949.125.976.25,1.951.4,2.951Z" transform="translate(0 0)"/><path class="d" d="M25.6,106.618c-5.6,8.9-10.3,26.3,1.1,33.1,19.1,11.3,49-17.2,51.8-20.7s10.5-4.4,13.7-9.2,4.5-11.7,2.8-14.3-4.3-.4-4.3-.4c-2.2,6.3-10.9,10.8-10.9,10.8s5.5-8.1,2.1-8.4c-3.7-.4-7.6,7.3-10.7,11.4-3.1,4-29.1.4-37.1,15.8" transform="translate(0 0)"/><path class="e" d="M73.2,41.0176a32.93,32.93,0,0,0-.5-4.4c0-.2-.2-.3-.5-.4a.5483.5483,0,0,0-.6.4,32.931,32.931,0,0,0-.5,4.4,21.7169,21.7169,0,0,0,.3,4.4.9016.9016,0,0,0,.6.6.7786.7786,0,0,0,.9-.6A21.7174,21.7174,0,0,0,73.2,41.0176Zm-11.9,25.1a19.2291,19.2291,0,0,1,1.1833,2.7037A23.0219,23.0219,0,0,0,63.4,71.0176a18.6406,18.6406,0,0,0,2.9,4.4,12.0027,12.0027,0,0,0,4,3.1,11.7024,11.7024,0,0,0,4.9,1.1,11.4149,11.4149,0,0,0,9-4.1,32.39,32.39,0,0,0,5.2-9.3c.1-.2.3-.3.4-.2s.2.2.2.3a18.7842,18.7842,0,0,1-4.3,10.5,14.3107,14.3107,0,0,1-4.7,3.7,11.5253,11.5253,0,0,1-5.9,1.5,15.2622,15.2622,0,0,1-3-.3,13.3121,13.3121,0,0,1-2.8-1h0a13.927,13.927,0,0,1-4.6-3.7,21.2621,21.2621,0,0,1-3.1-4.9l-.1092-.2454A12.7782,12.7782,0,0,1,60,66.6176a.6835.6835,0,0,1,.7-.7C60.9,65.7176,61.1,65.8176,61.3,66.1176Zm50.5,89c-.24-.48-.448-.96-.656-1.44a19.7437,19.7437,0,0,0-1.044-2.16l-1.9-3.5c-2.7-4.5-5.6-9-9.7-12.4a.7463.7463,0,0,0-.9,0,.7579.7579,0,0,0-.1,1,78.6983,78.6983,0,0,1,8.9,12.5l1.8,3.4a37.2686,37.2686,0,0,1,1.6,3.5,56.4156,56.4156,0,0,1,2.091,5.256c.234.651.468,1.301.709,1.944.5,1.4.9,2.7,1.3,4.1.463-.386.926-.713,1.435-1.071l.001-.001c.15-.106.304-.214.464-.328-.3-1.1-.7-2.3-1.1-3.4C113.8,160.018,112.9,157.518,111.8,155.118Z" transform="translate(0 0)"/><path class="e" d="M62.4,39.5176a1.5605,1.5605,0,0,0,1.6,1.5,1.538,1.538,0,0,0,1.5-1.5v-2.5a1.538,1.538,0,0,0-1.5-1.5h-.1a1.538,1.538,0,0,0-1.5,1.5Zm16.2,0a1.5605,1.5605,0,0,0,1.6,1.5,1.538,1.538,0,0,0,1.5-1.5v-2.5a1.538,1.538,0,0,0-1.5-1.5h-.1a1.538,1.538,0,0,0-1.5,1.5Z" transform="translate(0 0)"/><path class="h" d="M79.1,28.6176a3.4055,3.4055,0,0,0-2,.8c-.2.2-.3.4-.2.5,0,.4.3.6.7.6h1.6a7.5687,7.5687,0,0,1,1.5.1,11.4647,11.4647,0,0,1,2.8.8h.1a.616.616,0,0,0,.7-.1.6328.6328,0,0,0,.1-.9,4.8134,4.8134,0,0,0-1.6-1.2,12.0907,12.0907,0,0,0-1.8-.5A6.079,6.079,0,0,0,79.1,28.6176Zm-13.9,1.9H63.9c-.25,0-.5.025-.75.05s-.5.05-.75.05a8.2893,8.2893,0,0,0-2.8.8h-.1a.6867.6867,0,0,1-.9-.3.6159.6159,0,0,1,.1-.7,3.11,3.11,0,0,1,1.6-1.2,6.07,6.07,0,0,1,1.8-.5,11.483,11.483,0,0,1,1.9-.1l.0581.01a3.5892,3.5892,0,0,1,1.9419.79.6328.6328,0,0,1,.1.9c-.1.2-.3.2-.5.2Zm4.6,19.2a5.0293,5.0293,0,0,0,2.7.8,3.4636,3.4636,0,0,0,2.6-.9h.1a.76.76,0,0,1,1,0,.6159.6159,0,0,1,.1.7,3.7481,3.7481,0,0,1-1.6,1.7,4.1932,4.1932,0,0,1-2.2.5,3.8449,3.8449,0,0,1-2.1-.5,3.53,3.53,0,0,1-1.7-1.5.6867.6867,0,0,1,.3-.9A.7829.7829,0,0,1,69.8,49.7176Z" transform="translate(0 0)"/><path class="f" d="M57.9,67.6176a39.4092,39.4092,0,0,0-21.5,9.7c-12.9,11.5-28.2,54.8-12.6,66.8,12.7,9.7,52.8-17.3,53.7-21.2.8-3.8-8.4-13.1-8.4-13.1a113.28,113.28,0,0,1-18,3c-10.3.9-19.1,12.2-19.1,12.2l6.2.9.3-36Z" transform="translate(0 0)"/><path class="e" d="M111.781,93.18a.7454.7454,0,0,0-.181.7377c.1.3.5.5.8.6h.1a.7329.7329,0,0,0,.557-.4042,1.011,1.011,0,0,1,.143-.1958l.5-.7c.188-.2345.375-.4469.552-.6477.201-.2275.389-.44.548-.6523.2-.2.375-.4.55-.6s.35-.4.55-.6c.056-.0743.115-.1485.175-.2246a3.4838,3.4838,0,0,0,.725-1.2754v-.1a.2652.2652,0,0,0-.3-.3,2.06,2.06,0,0,0-1.7.7,7.9934,7.9934,0,0,0-1.3,1.3,7.5511,7.5511,0,0,0-1.1,1.4l-.5.8C111.86,93.0782,111.819,93.1307,111.781,93.18ZM39.1,117.418a16.7462,16.7462,0,0,0-5.5,6.9.7347.7347,0,0,0-.1.6.6514.6514,0,0,0,.9-.2,22.1055,22.1055,0,0,1,5.5-5.9,25.82,25.82,0,0,1,7.2-3.7c5.2-1.9,10.8-2.6,16.4-3.3h0c.1546-.023.31-.045.4672-.067,1.2628-.179,2.5874-.367,3.8328-.633.7-.2,1.4-.4,2.2-.7a3.3794,3.3794,0,0,0,1.2-.6,2.6514,2.6514,0,0,0,.6-.5l.4-.5c.9322-1.192,1.757-2.409,2.5719-3.612.7586-1.121,1.5085-2.228,2.3281-3.288a14.3844,14.3844,0,0,1,2.7-2.8,3.6532,3.6532,0,0,1,1.4-.7h.5a2.6731,2.6731,0,0,1-.2,1.4,14.0716,14.0716,0,0,1-.8,1.7994v.001a39.7218,39.7218,0,0,1-2,3.5,1.275,1.275,0,0,0,0,1.2,1.1289,1.1289,0,0,0,1.5.4,39.5569,39.5569,0,0,0,3.4-2.2,38.7578,38.7578,0,0,0,3.1-2.6,13.3824,13.3824,0,0,0,2.7-3.1,8.45,8.45,0,0,0,1.5-3.8c.1-.1,0-.2-.1-.3-.2-.1-.4-.1-.5.1a23.7207,23.7207,0,0,1-2.3,3,22.2891,22.2891,0,0,1-2.6,2.7c-.783.626-1.5659,1.252-2.3489,1.831a7.3029,7.3029,0,0,0,.7489-1.831l.3-1.2c0-.1235.0061-.247.0123-.372A3.1459,3.1459,0,0,0,84,97.7176a2.3614,2.3614,0,0,0-.6-.9,1.43,1.43,0,0,0-.7992-.4672c-.0345-.0111-.0683-.022-.1008-.0328a3.7784,3.7784,0,0,0-1.5,0,5.4817,5.4817,0,0,0-2.3,1.1,16.0131,16.0131,0,0,0-3.1,3.3c-.8954,1.211-1.7353,2.478-2.5635,3.727-.7443,1.123-1.4792,2.231-2.2365,3.273l-.3.4c0,.061-.0382.085-.091.118a.5231.5231,0,0,0-.109.082,1.6119,1.6119,0,0,1-.7.4,4.8512,4.8512,0,0,1-1.3.465c-.1606.042-.3272.085-.5.135-1.3.3-2.7.5-4.1.7h0a82.106,82.106,0,0,0-16.8,3.4A26.23,26.23,0,0,0,39.1,117.418Z" transform="translate(0 0)"/><path class="j" d="M57.1,39.4176l.9985-.0555-.0018-.0254Zm-.3-3.7.9967-.0809-.0028-.03Zm12.5,0,.9967.0808c.0022-.0269.0033-.0539.0033-.0808Zm-.3,3.7.9864.1644c.0046-.0277.0081-.0556.01-.0836Zm5.7,0,.9985-.0555-.0018-.0254Zm-.3-3.7.9967-.0809-.0028-.03Zm12.5,0,.9967.0808c.0022-.0269.0033-.0539.0033-.0808Zm-.3,3.7.9939.11.0028-.03Zm-17.4-4.8a1,1,0,0,0,0,2Zm5.1,2a1,1,0,0,0,0-2Zm-8.3,5H60v2h6Zm-6,0a2.1931,2.1931,0,0,1-1.9015-2.2555l-1.997.1109A4.1727,4.1727,0,0,0,60,43.6176Zm-1.9033-2.2809-.3-3.7-1.9934.1617.3,3.7Zm-.3028-3.73a.6648.6648,0,0,1,.1148-.472.2424.2424,0,0,1,.1913-.1175v-2a2.44,2.44,0,0,0-2.2939,2.81Zm.3061-.59H68v-2H58.1Zm9.9,0c.0261,0,.0686,0,.1385.0968a1.0628,1.0628,0,0,1,.1615.6032h2a3.0464,3.0464,0,0,0-.5385-1.7718A2.15,2.15,0,0,0,68,33.0176Zm.3033.6191-.3,3.7,1.9934.1617.3-3.7Zm-.29,3.6165C67.7545,40.8076,66.805,41.6176,66,41.6176v2c2.195,0,3.6455-1.99,3.9864-4.0356ZM83.6,41.6176h-6v2h6Zm-6,0a2.1931,2.1931,0,0,1-1.9015-2.2555l-1.997.1109A4.1727,4.1727,0,0,0,77.6,43.6176Zm-1.9033-2.2809-.3-3.7-1.9934.1617.3,3.7Zm-.3028-3.73a.6648.6648,0,0,1,.1148-.472.2424.2424,0,0,1,.1913-.1175v-2a2.44,2.44,0,0,0-2.2939,2.81Zm.3061-.59h9.9v-2H75.7Zm9.9,0c.0261,0,.0686,0,.1385.0968a1.0628,1.0628,0,0,1,.1615.6032h2a3.0464,3.0464,0,0,0-.5385-1.7718A2.15,2.15,0,0,0,85.6,33.0176Zm.3033.6191-.3,3.7,1.9934.1617.3-3.7Zm-.2972,3.67A2.3586,2.3586,0,0,1,83.6,41.6176v2c2.1607,0,3.7561-1.9492,3.9939-4.09ZM69.2,36.6176h5.1v-2H69.2Zm5.1-2H69.2v2h5.1Z" transform="translate(0 0)"/><path class="h" d="M55,9.0176c1,13.2,9.2,30.6,37.1,29.2,0,0,7-28.4-14.8-29.4" transform="translate(0 0)"/></g></svg>
