<svg width="738" height="117" viewBox="0 0 738 117" fill="none" xmlns="http://www.w3.org/2000/svg">
<path d="M504.4 54.2182C508.5 73.0182 523.1 76.0182 527.5 75.8182C533.2 75.5182 545.7 62.7182 545.7 46.8182C545.7 46.8182 548.4 16.4182 516.2 25.5182C503.7 28.9182 504.4 54.2182 504.4 54.2182V54.2182Z" fill="#CCCED0"/>
<path fill-rule="evenodd" clip-rule="evenodd" d="M499.3 43.1182C495.6 36.3182 502.8 24.4182 513.6 28.1182L504.3 56.6182C504.3 56.6182 503 49.9182 499.3 43.1182ZM515.6 53.2182C515.6 54.1182 516.3 54.9182 517.3 54.9182C518.2 54.9182 519 54.1182 519 53.2182V50.5182C519 49.6182 518.3 48.8182 517.3 48.8182C516.4 48.8182 515.6 49.5182 515.6 50.5182V53.2182Z" fill="#204A69"/>
<path d="M505 54.0182C506.1 56.7182 506.8 59.5182 508.2 62.0182C509.5 64.5182 511.2 66.8182 513.3 68.7182C515.4 70.6182 517.8 72.1182 520.4 73.2182C521.7 73.7182 523.1 74.1182 524.4 74.4182C525.1 74.5182 525.8 74.6182 526.4 74.6182H527.4C527.7 74.6182 528 74.5182 528.3 74.5182C529.5 74.2182 530.7 73.5182 531.8 72.6182C532.9 71.8182 534 70.8182 535 69.8182C537 67.8182 538.7 65.5182 540.2 63.0182C543.1 58.0182 544.9 52.5182 545.4 46.7182C545.4 46.5182 545.6 46.4182 545.8 46.4182C546 46.4182 546.1 46.5182 546.1 46.7182C546.7 52.7182 544.9 58.8182 542 64.0182C540.5 66.6182 538.7 69.1182 536.6 71.3182C535.5 72.4182 534.4 73.4182 533.2 74.4182C531.9 75.3182 530.6 76.1182 528.9 76.6182C528.5 76.7182 528 76.8182 527.6 76.8182H526.4C525.6 76.8182 524.8 76.7182 524.1 76.5182C522.6 76.2182 521.1 75.8182 519.7 75.2182C516.8 74.0182 514.2 72.4182 512 70.2182C509.8 68.1182 507.9 65.6182 506.6 62.8182C505.9 61.4182 505.3 60.0182 504.8 58.6182C504.3 57.2182 504 55.7182 503.9 54.2182C503.9 53.8182 504.2 53.5182 504.5 53.5182C504.6 53.6182 504.9 53.8182 505 54.0182V54.0182Z" fill="#204A69"/>
<path d="M527.9 48.9182C528.2 50.5182 528.3 52.1182 528.4 53.7182C528.4 55.3182 528.4 56.9182 528.1 58.5182C528 58.9182 527.7 59.2182 527.3 59.1182C527 59.0182 526.7 58.8182 526.7 58.5182C526.4 56.9182 526.4 55.3182 526.4 53.7182C526.5 52.1182 526.6 50.5182 526.9 48.9182C527 48.6182 527.2 48.4182 527.5 48.5182C527.7 48.6182 527.9 48.8182 527.9 48.9182V48.9182Z" fill="#204A69"/>
<path d="M537.2 54.9182C536.2 54.9182 535.5 54.1182 535.5 53.2182V50.5182C535.5 49.5182 536.3 48.8182 537.2 48.8182C538.2 48.8182 538.9 49.6182 538.9 50.5182V53.2182C538.9 54.1182 538.1 54.9182 537.2 54.9182Z" fill="#204A69"/>
<path fill-rule="evenodd" clip-rule="evenodd" d="M519.2 42.4182C519.7 42.4182 520.2 42.5182 520.6 42.6182H520.8C521 42.7182 521.2 42.7182 521.4 42.5182C521.6 42.3182 521.6 41.9182 521.4 41.6182C520.8 40.9182 520.1 40.7182 519.4 40.5182C518.8 40.3182 518.1 40.3182 517.4 40.3182C516.7 40.3182 516.1 40.4182 515.4 40.6182C514.7 40.8182 514.1 41.1182 513.5 41.7182C513.3 41.9182 513.2 42.1182 513.3 42.4182C513.5 42.8182 513.9 42.9182 514.2 42.8182H514.3C515.2 42.4182 516.4 42.3182 517.5 42.3182C517.814 42.3182 518.127 42.3456 518.427 42.3717C518.7 42.3955 518.961 42.4182 519.2 42.4182ZM532.7 41.6182C533.3 40.9182 534 40.7182 534.7 40.5182C535.4 40.3182 536.1 40.3182 536.7 40.3182C537.4 40.3182 538.1 40.4182 538.7 40.6182C539.4 40.8182 540 41.1182 540.6 41.7182C540.9 42.0182 540.9 42.4182 540.6 42.6182C540.4 42.8182 540.1 42.8182 539.9 42.8182H539.8C538.9 42.4182 537.7 42.3182 536.6 42.3182C536 42.3182 535.5 42.3182 534.9 42.4182C534.4 42.4182 533.8 42.5182 533.5 42.6182L533.3 42.7182C533 42.8182 532.6 42.6182 532.5 42.3182C532.5 42.0182 532.6 41.7182 532.7 41.6182ZM522.9 64.5182L525.2 64.6182C525.6 64.6182 525.975 64.6432 526.35 64.6682C526.725 64.6932 527.1 64.7182 527.5 64.7182C528.25 64.7182 529 64.6932 529.75 64.6682C530.5 64.6432 531.25 64.6182 532 64.6182C532.4 64.6182 532.7 64.9182 532.7 65.2182C532.7 65.5182 532.5 65.8182 532.3 65.9182C530.8 66.5182 529.1 66.7182 527.5 66.7182C526.781 66.7182 526.062 66.6374 525.27 66.5484H525.27L525 66.5182C524.2 66.4182 523.4 66.2182 522.6 65.8182C522.3 65.7182 522.1 65.3182 522.2 64.9182C522.3 64.7182 522.6 64.5182 522.9 64.5182Z" fill="#204A69"/>
<path fill-rule="evenodd" clip-rule="evenodd" d="M534.4 16.0182C547.4 20.4182 549.2 25.8182 548.2 46.6182C548.2 46.6182 545.8 41.1182 523.3 37.0182C500.8 32.8182 506.4 14.6182 506.4 14.6182C507.215 16.5549 512.213 16.1278 518.07 15.6273C523.705 15.1457 530.134 14.5962 534.4 16.0182ZM497.4 92.4182C496.505 93.0573 495.529 93.4104 494.549 93.7648C493.996 93.965 493.441 94.1655 492.9 94.4182C491.4 95.0182 489.9 95.7182 488.5 96.4182C485.6 97.9182 482.8 99.6182 480.2 101.418C477.6 103.318 475.2 105.418 473.1 107.818C471 110.218 469.3 112.918 467.8 115.818C467.7 116.018 467.5 116.018 467.3 115.918L467.3 115.918C467.2 115.818 467.1 115.718 467.1 115.618C467.6 112.218 469.3 109.118 471.5 106.518C473.6 103.918 476.2 101.618 478.9 99.6182C481.6 97.6182 484.5 95.9182 487.6 94.5182C489.1 93.8182 490.6 93.1182 492.2 92.5182C492.472 92.4162 492.741 92.3114 493.008 92.2071L493.009 92.2067C494.316 91.6974 495.589 91.2011 497 91.1182C497.4 91.1182 497.7 91.4182 497.7 91.8182C497.7 92.1182 497.6 92.3182 497.4 92.4182ZM551.8 91.2182C553.355 91.3096 554.826 91.9032 556.214 92.463L556.216 92.4639C556.345 92.5157 556.473 92.5673 556.6 92.6182C558.2 93.2182 559.7 93.9182 561.2 94.6182C564.2 96.1182 567.1 97.7182 569.9 99.7182C572.6 101.718 575.1 104.018 577.3 106.618C579.4 109.218 581.2 112.318 581.7 115.718C581.7 115.918 581.6 116.118 581.4 116.118C581.3 116.118 581.1 116.018 581.1 115.918C579.5 113.018 577.8 110.418 575.8 107.918C573.7 105.518 571.3 103.418 568.7 101.518C566.1 99.6182 563.3 97.9182 560.4 96.5182C559 95.8182 557.5 95.1182 556 94.5182C555.459 94.2655 554.904 94.065 554.351 93.8648C553.371 93.5104 552.395 93.1572 551.5 92.5182C551.2 92.3182 551.1 91.9182 551.3 91.5182C551.4 91.3182 551.6 91.2182 551.8 91.2182Z" fill="#204A69"/>
<path d="M505.7 77.4183C506.1 77.0183 506.6 76.8183 507.1 76.7183L508.6 76.4183C509.6 76.3183 510.6 76.3183 511.6 76.4183C513.6 76.6183 515.6 77.0183 517.4 77.7183C519.3 78.4183 521 79.3183 522.6 80.5183L523.8 81.4183C524.2 81.8183 524.6 82.1183 524.9 82.5183C525.6 83.3183 526.1 84.2183 526.3 85.3183C526.3 85.5183 526.2 85.7183 526 85.7183C525.9 85.7183 525.8 85.7183 525.7 85.6183C524.4 84.3183 523 83.3183 521.5 82.3183C520 81.3183 518.3 80.6183 516.6 79.9183C514.9 79.3183 513.2 78.8183 511.4 78.6183C510.5 78.5183 509.6 78.5183 508.8 78.6183L507.5 78.8183C507.1 78.9183 506.7 78.9183 506.1 78.8183H506C505.6 78.7183 505.4 78.3183 505.5 77.9183C505.5 77.7183 505.6 77.5183 505.7 77.4183V77.4183Z" fill="#95ADC1"/>
<path d="M545.3 81.8182C544.8 81.8182 544.4 81.6182 544 81.4182L543.4 81.1182L542.8 80.9182C542.4 80.8182 542 80.6182 541.6 80.5182L540.3 80.2182C538.6 79.9182 536.8 80.0182 535.1 80.2182C533.4 80.5182 531.6 81.0182 530 81.6182C528.3 82.3182 526.7 83.1182 524.9 83.7182C524.7 83.8182 524.5 83.7182 524.5 83.5182C524.5 83.4182 524.5 83.3182 524.6 83.2182C525.8 81.6182 527.5 80.6182 529.3 79.8182C531.1 79.0182 532.9 78.4182 534.9 78.0182C536.9 77.6182 538.9 77.7182 540.9 78.1182L542.4 78.5182C542.9 78.7182 543.3 78.9182 543.8 79.0182L544.5 79.3182L545.2 79.7182C545.6 80.0182 546 80.3182 546.3 80.7182C546.5 81.0182 546.4 81.5182 546.1 81.7182C546 81.8182 545.8 81.8182 545.7 81.8182H545.3Z" fill="#95ADC1"/>
<path d="M510 86.7182C510.4 87.0182 510.7 87.4182 510.9 87.8182L511.7 89.0182L512.6 90.2182L513.5 91.3182C514.8 92.7182 516.3 93.9182 517.9 95.0182C519.5 96.1182 521.2 97.0182 523 97.6182C524.8 98.2182 526.6 98.5182 528.6 98.7182C528.8 98.7182 528.9 98.9182 528.9 99.1182C528.9 99.2182 528.8 99.3182 528.7 99.4182C526.7 100.418 524.4 100.218 522.4 99.6182C520.3 99.0182 518.4 98.1182 516.7 96.9182C514.9 95.7182 513.4 94.3182 512 92.7182L511 91.5182L510.1 90.2182C509.8 89.7182 509.6 89.3182 509.3 88.8182C509.1 88.3182 508.9 87.8182 508.9 87.2182C508.9 86.8182 509.2 86.5182 509.6 86.5182C509.7 86.5182 509.8 86.6182 510 86.7182V86.7182Z" fill="#95ADC1"/>
<path d="M503.9 83.8182C503.4 84.3182 503 84.7182 502.5 85.1182L501.8 85.8182C501.6 86.0182 501.4 86.3182 501.2 86.6182C500.5 87.6182 499.8 88.8182 499.6 90.1182C499.3 91.4182 499.3 92.7182 499.6 93.9182C499.9 95.2182 500.4 96.4182 501.1 97.4182C501.8 98.5182 502.8 99.4182 503.8 100.118L504.6 100.618C504.9 100.818 505.2 100.918 505.5 101.018C506.1 101.318 506.8 101.518 507.5 101.718L511.5 103.018C512.8 103.418 514.2 103.918 515.5 104.118H515.6C515.8 104.118 515.9 104.318 515.9 104.518C515.9 104.618 515.8 104.718 515.7 104.818C514.9 105.118 514.1 105.118 513.4 105.118C512.6 105.118 511.9 105.018 511.2 104.818C509.7 104.618 508.4 104.118 507 103.718C506.3 103.518 505.6 103.318 504.9 103.018C504.5 102.918 504.2 102.718 503.8 102.518L502.8 101.918C501.5 101.018 500.3 99.9182 499.4 98.6182C498.5 97.3182 497.9 95.8182 497.6 94.2182C497.3 92.6182 497.4 91.0182 497.7 89.5182C498 87.9182 498.8 86.5182 499.7 85.2182C500 84.9182 500.2 84.6182 500.5 84.3182L501.4 83.5182C502 83.0182 502.7 82.6182 503.6 82.5182C504 82.5182 504.3 82.7182 504.4 83.1182C504.2 83.3182 504.1 83.5182 503.9 83.8182V83.8182Z" fill="#95ADC1"/>
<path d="M533.1 103.218C534.1 102.718 535.1 102.818 536.1 102.618L539.1 102.018C541.1 101.518 543 100.718 544.8 99.8182C546.6 98.8182 548.2 97.7182 549.4 96.1182C550.5 94.6182 551 92.8182 551.2 90.7182C551.2 90.5182 551.4 90.4182 551.6 90.4182C551.7 90.4182 551.8 90.5182 551.9 90.6182C552.4 91.6182 552.6 92.8182 552.5 94.0182C552.4 95.2182 551.8 96.3182 551.2 97.3182C549.9 99.3182 548 100.718 546 101.718C544 102.818 541.9 103.518 539.8 104.018C538.7 104.318 537.6 104.518 536.6 104.618C535.5 104.718 534.4 105.018 533.3 104.518C532.9 104.318 532.8 103.918 532.9 103.618C532.8 103.418 532.9 103.218 533.1 103.218Z" fill="#95ADC1"/>
<path d="M540.7 89.8182C541.3 89.1182 542 89.2182 542.6 88.9182C543.2 88.6182 543.9 88.4182 544.4 88.1182C545.6 87.5182 546.6 86.7182 547.6 85.8182C548.6 84.9182 549.5 83.9182 550.2 82.8182C550.9 81.7182 551.6 80.5182 552.5 79.4182C552.6 79.3182 552.8 79.2182 553 79.4182C553.1 79.5182 553.1 79.5182 553.1 79.6182C553.3 81.2182 552.7 82.7182 551.9 84.0182C551.1 85.3182 550.2 86.6182 549.1 87.6182C548 88.7182 546.7 89.5182 545.3 90.2182C544.6 90.6182 543.9 90.8182 543.2 91.1182C542.5 91.3182 541.8 91.6182 540.9 91.4182C540.5 91.3182 540.3 90.8182 540.4 90.4182C540.5 90.1182 540.6 90.0182 540.7 89.8182Z" fill="#95ADC1"/>
<path d="M264.4 38.3676C265.1 40.0676 265.5 41.8676 266 43.6676C266.5 45.4676 267 47.1676 267.6 48.8676C268.8 52.2676 270.2 55.6676 272.6 58.0676C273.8 59.2676 275.2 60.2676 276.8 60.8676C278.4 61.5676 280.1 61.8676 281.9 62.0676C283.7 62.2676 285.5 62.3676 287.3 62.3676C289.1 62.3676 290.8 62.2676 292.4 61.7676C294 61.2676 295.5 60.3676 296.9 59.3676C298.2 58.2676 299.4 56.9676 300.3 55.4676C302.2 52.5676 303.5 49.1676 304.5 45.6676C306.4 38.6676 307 31.3676 307.6 24.0676C307.6 23.8676 307.8 23.7676 308 23.7676C308.2 23.7676 308.3 23.8676 308.3 24.0676C308.7 31.4676 308.4 38.9676 306.5 46.2676C305.5 49.8676 304.2 53.4676 302.1 56.6676C301 58.2676 299.8 59.7676 298.3 61.0676C296.8 62.3676 295 63.2676 293.1 63.9676C291.2 64.5676 289.2 64.7676 287.3 64.7676C285.4 64.7676 283.6 64.6676 281.7 64.4676C279.8 64.1676 277.9 63.7676 276.1 62.9676C274.3 62.1676 272.6 61.0676 271.2 59.5676C269.8 58.1676 268.8 56.4676 267.9 54.7676C267 53.0676 266.4 51.2676 265.8 49.4676C265.2 47.6676 264.7 45.8676 264.3 44.0676C263.8 42.2676 263.5 40.4676 263.4 38.5676C263.4 38.1676 263.7 37.8676 264 37.8676C264 37.8676 264.3 38.0676 264.4 38.3676Z" fill="#204A69"/>
<path d="M267.9 77.6675L286.6 86.0675L300.7 78.4675C300.7 78.4675 341.5 84.7675 341.5 116.367H233C233 104.667 243 85.6675 267.9 77.6675Z" fill="#95ADC1"/>
<path d="M288.3 35.8675C288.6 36.8675 288.7 37.7675 288.8 38.7675C288.8 39.7675 288.8 40.6675 288.5 41.6675C288.4 42.0675 288 42.2675 287.6 42.1675C287.3 42.0675 287.1 41.8675 287.1 41.6675C286.8 40.6675 286.8 39.7675 286.8 38.7675C286.9 37.7675 287 36.8675 287.3 35.8675C287.4 35.5675 287.7 35.4675 288 35.5675C288.2 35.5675 288.3 35.6675 288.3 35.8675Z" fill="#204A69"/>
<path d="M298.5 40.8675C297.5 40.8675 296.6 40.0675 296.6 38.9675V35.9675C296.6 34.9675 297.4 34.0675 298.5 34.0675C299.5 34.0675 300.4 34.8675 300.4 35.9675V38.9675C300.4 39.9675 299.5 40.8675 298.5 40.8675Z" fill="#204A69"/>
<path fill-rule="evenodd" clip-rule="evenodd" d="M274.9 38.9675C274.9 40.0675 275.8 40.8675 276.8 40.8675C277.8 40.8675 278.7 39.9675 278.7 38.9675V35.9675C278.7 34.8675 277.8 34.0675 276.8 34.0675C275.7 34.0675 274.9 34.9675 274.9 35.9675V38.9675ZM278.4 63.6675C278.4 60.6675 282.2 58.2675 286.9 58.2675C291.6 58.2675 295.4 59.7675 295.4 62.7675L278.4 63.6675ZM298.1 60.8675C298.433 63.199 298.419 65.4611 298.406 67.7694V67.7695C298.403 68.2333 298.4 68.699 298.4 69.1675V71.1675C298.4 71.7675 298.5 72.3675 298.7 72.9675C299 74.1675 299.7 75.2675 300.5 76.0675C301.3 76.9675 302.4 77.5675 303.5 77.8675L303.9 77.9675L304.4 78.0675C304.583 78.1134 304.746 78.1382 304.897 78.1613L304.897 78.1613C305.075 78.1885 305.238 78.2134 305.4 78.2675C305.75 78.3675 306.1 78.4425 306.45 78.5175L306.45 78.5175C306.8 78.5925 307.15 78.6675 307.5 78.7675C310.2 79.5675 312.9 80.4675 315.4 81.6675C320.5 83.9675 325.4 86.8675 329.7 90.5675C331.8 92.4675 333.8 94.4675 335.4 96.8675C337 99.1675 338.2 101.868 338.8 104.568C338.8 104.768 338.7 104.967 338.5 104.967C338.3 104.967 338.2 104.968 338.1 104.768C335.8 99.7675 332.4 95.6675 328.2 92.1675C324.1 88.6675 319.3 85.9675 314.4 83.7675C311.9 82.6675 309.4 81.6675 306.8 80.9675C306.2 80.7675 305.5 80.5675 304.9 80.4675C304.6 80.3675 304.2 80.2675 303.9 80.2675L303.4 80.1675L302.8 80.0675C301.3 79.6675 299.9 78.7675 298.8 77.6675C297.7 76.5675 296.9 75.1675 296.5 73.6675C296.3 72.9675 296.2 72.1675 296.1 71.3675V69.2675C296.1 68.799 296.097 68.3333 296.094 67.8695V67.8694C296.081 65.5611 296.067 63.299 296.4 60.9675C296.5 60.5675 296.8 60.3675 297.2 60.3675C297.9 60.3675 298.1 60.5675 298.1 60.8675ZM279.475 27.0429C279.875 27.0882 280.261 27.1318 280.6 27.2676L280.9 27.1676C281.1 27.2676 281.3 27.1676 281.4 27.0676C281.6 26.8676 281.6 26.5676 281.4 26.3676C280.8 25.6676 280 25.3676 279.3 25.1676C278.6 24.9676 277.8 24.8676 277.1 24.8676C276.4 24.8676 275.6 24.9676 274.9 25.1676C274.1 25.3676 273.4 25.7676 272.8 26.3676C272.6 26.5676 272.5 26.8676 272.6 27.1676C272.7 27.5676 273.1 27.6676 273.5 27.5676H273.6C274.6 27.2676 275.9 27.0676 277.1 26.9676H278.9C279.093 26.9997 279.285 27.0215 279.475 27.0429ZM293.8 26.4676C294.4 25.7676 295.1 25.4676 295.9 25.2676C296.6 25.0676 297.4 24.9676 298.1 24.9676C298.8 24.9676 299.6 25.0676 300.3 25.2676C301 25.4676 301.8 25.8676 302.4 26.4676C302.7 26.7676 302.7 27.1676 302.4 27.4676C302.2 27.6676 301.9 27.7676 301.6 27.6676H301.5C300.5 27.2676 299.3 27.0676 298 27.0676H296.2C295.6 27.0676 295 27.1676 294.5 27.3676H294.4C294.1 27.4676 293.9 27.3676 293.8 27.0676C293.623 26.8022 293.681 26.6933 293.766 26.5333C293.777 26.5124 293.788 26.4907 293.8 26.4676ZM283 52.9676C283.7 53.2676 284.5 53.3676 285.4 53.4676C286.2 53.5676 287.1 53.5676 287.9 53.5676C288.7 53.5676 289.6 53.4676 290.4 53.3676C291.2 53.2676 292 53.0676 292.6 52.7676L292.7 52.6676C293.1 52.4676 293.5 52.6676 293.7 52.9676C293.8 53.2676 293.8 53.5676 293.6 53.7676C292.844 54.5233 291.91 54.8329 291.05 55.1177L290.9 55.1676C289.9 55.3676 289 55.4676 288.1 55.3676C287.2 55.3676 286.2 55.1676 285.3 54.9676L285.3 54.9675C284.4 54.6675 283.5 54.3675 282.7 53.6676C282.5 53.4676 282.5 53.1676 282.7 52.9676C282.5 52.8676 282.8 52.8676 283 52.9676Z" fill="#204A69"/>
<path d="M289.3 48.1675C288.8 45.0675 278.7 47.2675 279.5 49.8675C279.8 50.8675 289.5 49.3675 289.3 48.1675Z" fill="#204A69"/>
<path d="M289.3 48.1675C288.8 45.0675 278.7 47.2675 279.5 49.8675C279.8 50.8675 289.5 49.3675 289.3 48.1675Z" fill="#204A69"/>
<path d="M285.7 48.1675C286.2 45.0675 296.3 47.2675 295.5 49.8675C295.2 50.8675 285.5 49.3675 285.7 48.1675Z" fill="#204A69"/>
<path fill-rule="evenodd" clip-rule="evenodd" d="M262.3 24.9675C262.3 26.9675 264.5 28.3675 266.4 27.4675C275.7 23.0675 299.1 7.86754 286.8 7.06754C271.8 6.06754 262.2 16.3675 262.3 24.9675ZM285.7 48.1675C286.2 45.0675 296.3 47.2675 295.5 49.8675C295.2 50.8675 285.5 49.3675 285.7 48.1675Z" fill="#204A69"/>
<path d="M305.4 23.2676C307 22.9676 308 21.4676 307.6 19.8676C305.5 10.9676 292.1 2.46755 278.5 9.86755C267.7 15.6676 288.1 26.1676 305.4 23.2676V23.2676Z" fill="#204A69"/>
<path d="M92.9001 106.718C95.6001 76.1183 94.2001 79.8183 112.6 66.2183Z" fill="white"/>
<path d="M177.4 106.718C174.7 76.1183 176.1 79.8183 157.7 66.2183Z" fill="white"/>
<path d="M163.2 61.2182C163.2 59.6182 162.7 58.1182 161.9 56.8182C162.9 54.9182 163.5 52.8182 163.5 50.8182C163.5 48.3182 162.4 46.0182 160.6 44.5182C161.7 43.3182 162.3 41.8182 162.3 40.0182C162.3 37.7182 161.2 35.0182 159.5 33.1182C161.2 28.7182 161.1 23.6182 157.6 20.5182C160.3 13.9182 148.2 -3.18179 133.7 0.518215C119.3 -3.08178 107.2 13.8182 109.7 20.4182C109 21.0182 108.5 21.7182 108 22.4182V22.5182C107.9 22.7182 107.8 22.9182 107.6 23.2182V23.3182C107.5 23.5182 107.4 23.8182 107.3 24.0182V24.1182C106.9 25.2182 106.7 26.3182 106.7 27.5182V28.4182C106.7 28.7182 106.7 29.0182 106.8 29.3182C107 30.8182 107.4 32.3182 108 33.7182C107.8 33.9182 107.7 34.2182 107.5 34.4182C107.4 34.6182 107.2 34.8182 107.1 35.1182C107.1 35.1182 107.1 35.2182 107 35.2182C106.9 35.4182 106.8 35.6182 106.7 35.9182C106.7 35.9182 106.7 36.0182 106.6 36.0182L106.3 36.6182C106.3 36.7182 106.3 36.7182 106.2 36.8182C106.1 37.0182 106.1 37.2182 106 37.4182C106 37.5182 106 37.6182 105.9 37.6182C105.8 37.8182 105.8 38.0182 105.8 38.2182C105.8 38.3182 105.8 38.4182 105.7 38.4182C105.7 38.6182 105.6 38.8182 105.6 39.0182V40.9182C105.6 41.0182 105.6 41.1182 105.7 41.3182C105.7 41.4182 105.8 41.5182 105.8 41.7182C105.8 41.8182 105.8 41.9182 105.9 41.9182C105.9 42.0182 106 42.2182 106 42.3182C106 42.4182 106 42.4182 106.1 42.5182C106.2 42.7182 106.2 42.8182 106.3 42.9182V43.0182C106.4 43.2182 106.5 43.3182 106.6 43.5182V43.6182C106.7 43.8182 106.8 43.9182 106.9 44.1182C107 44.3182 107.1 44.4182 107.3 44.6182L106.7 45.2182L106.6 45.3182C106.4 45.5182 106.3 45.6182 106.2 45.8182C106.2 45.9182 106.1 45.9182 106.1 46.0182C106 46.2182 105.9 46.3182 105.8 46.5182C105.8 46.6182 105.7 46.7182 105.7 46.7182C105.6 46.9182 105.5 47.0182 105.4 47.2182C105.4 47.3182 105.3 47.4182 105.3 47.5182C105.2 47.7182 105.2 47.8182 105.1 48.0182C105.1 48.1182 105 48.2182 105 48.3182C104.9 48.5182 104.9 48.7182 104.8 48.8182C104.8 48.9182 104.7 49.0182 104.7 49.1182C104.7 49.3182 104.6 49.5182 104.6 49.7182V50.0182C104.6 50.3182 104.5 50.6182 104.5 50.9182C104.5 52.6182 105 54.4182 105.8 56.1182C105 57.2182 104.5 58.5182 104.5 60.0182C104.5 61.8182 105.2 63.4182 106.4 64.6182C104.6 66.5182 103.4 69.5182 103.4 71.8182L111 66.6182H111.2C111.6 66.6182 112 66.6182 112.4 66.5182V66.7182L112.8 66.4182C114.7 65.9182 116.3 64.6182 117.2 62.9182L121.9 59.1182L123.5 51.2182L120.6 48.9182V48.3182V47.5182V47.3182C120.6 47.1182 120.5 46.9182 120.5 46.7182C120.5 46.6182 120.5 46.6182 120.4 46.5182C120.4 46.3182 120.3 46.2182 120.3 46.0182C120.3 45.9182 120.3 45.9182 120.2 45.8182C120.1 45.6182 120.1 45.5182 120 45.3182C120 45.3182 120 45.2182 119.9 45.2182C119.8 45.0182 119.7 44.9182 119.6 44.8182C119.6 44.8182 119.6 44.7182 119.5 44.7182C119.4 44.6182 119.3 44.4182 119.1 44.3182H119C118.9 44.2182 118.7 44.0182 118.5 43.9182L117.9 43.6182C118.2 43.1182 118.5 42.5182 118.6 42.0182V41.9182C118.7 41.7182 118.7 41.4182 118.8 41.1182V40.9182C118.8 40.6182 118.9 40.3182 118.9 40.0182V39.3182V39.1182C118.9 38.9182 118.9 38.8182 118.8 38.6182V38.3182C118.8 38.2182 118.7 38.0182 118.7 37.9182C118.7 37.8182 118.7 37.7182 118.6 37.6182C118.6 37.4182 118.5 37.3182 118.5 37.1182C118.5 37.0182 118.5 37.0182 118.4 36.9182C118.3 36.7182 118.2 36.5182 118.1 36.2182C118.1 36.1182 118 36.0182 118 36.0182C117.9 35.9182 117.9 35.7182 117.8 35.6182C117.8 35.5182 117.7 35.4182 117.7 35.3182C117.6 35.2182 117.6 35.1182 117.5 34.9182C117.4 34.8182 117.4 34.7182 117.3 34.6182C117.2 34.5182 117.2 34.4182 117.1 34.3182C117 34.2182 117 34.1182 116.9 34.0182C116.8 33.9182 116.7 33.8182 116.7 33.7182C116.6 33.5182 116.5 33.4182 116.3 33.2182C116.2 33.1182 116.1 33.0182 116.1 32.9182L115.8 32.6182C115.7 32.5182 115.6 32.5182 115.6 32.4182C115.5 32.3182 115.4 32.2182 115.3 32.2182C115.2 32.1182 115.1 32.1182 115.1 32.0182C115 31.9182 114.9 31.9182 114.8 31.8182C114.7 31.7182 114.6 31.7182 114.5 31.6182C114.4 31.5182 114.3 31.5182 114.2 31.4182C114.1 30.5182 114.1 29.5182 114 28.6182V28.5182V27.1182V27.0182V25.7182V25.6182V21.9182V21.8182V20.8182C122.1 17.8182 130.8 12.5182 133.5 4.11822C136.2 12.5182 144.8 17.8182 152.9 20.7182C153 23.5182 153 28.0182 152.5 31.9182C150.3 33.6182 148.7 37.0182 148.7 39.6182C148.7 40.9182 149.1 42.1182 149.7 43.1182C148.2 43.9182 147.2 45.3182 147.2 47.6182L144.3 49.8182L145.1 58.0182L147.7 59.5182V59.9182C147.7 59.9182 148 60.0182 148.6 60.0182L149.9 60.8182C150 64.8182 152.9 67.9182 156.4 67.9182C157.7 67.9182 158.9 67.5182 159.9 66.7182L163.2 68.7182L161.9 64.4182C162.8 63.9182 163.2 62.6182 163.2 61.2182V61.2182Z" fill="#46799A"/>
<path d="M163.4 105.218H158.1V96.5182C158.1 95.0182 159.3 93.9182 160.7 93.9182H163.3V105.218H163.4Z" fill="#95ADC1"/>
<path d="M149.6 84.3182L117.7 74.7182L123.5 51.3182L144.6 50.4182L149.6 84.3182Z" fill="white"/>
<path d="M113.6 22.0182C113 50.8182 124.1 52.7182 134 52.7182C145.6 52.7182 152.2 46.6182 153.5 22.0182" fill="white"/>
<path d="M138 90.7182L121.1 59.0182L110.5 67.9182L123.5 80.3182L123.4 80.6182C122.5 84.1182 123.9 87.8182 126.8 89.9182L135.7 96.2182" fill="white"/>
<path d="M133 96.2182L145.4 58.6182L158.9 67.4182L147.6 82.0182C147.8 82.9182 147.9 83.8182 147.8 84.7182C146.8 94.5182 140.1 100.018 132.4 102.318V115.818" fill="white"/>
<path fill-rule="evenodd" clip-rule="evenodd" d="M132.695 94.7396C132.592 95.1657 132.493 95.5919 132.4 96.0182C132.3 96.3182 132.5 96.6182 132.7 96.6182C133.1 96.8182 133.4 96.6182 133.6 96.3182C133.713 96.057 133.825 95.7942 133.935 95.5301C134.481 95.869 135.034 96.1999 135.6 96.5183C135.7 96.6183 135.9 96.5183 136 96.4183C136.2 96.2183 136.1 96.0183 136 95.9183C135.443 95.4803 134.885 95.0265 134.328 94.5694C135.011 92.8631 135.637 91.1127 136.225 89.37C136.595 89.9581 136.984 90.5408 137.4 91.1183C137.6 91.3183 137.9 91.4183 138.4 91.3183C138.8 91.1183 138.9 90.7183 138.8 90.4183C138.336 89.1181 137.764 87.8396 137.144 86.5826L140.1 77.6182L145.849 60.1845C149.627 62.7023 153.405 65.2142 157.183 67.661L150.9 75.9182L147.4 80.5182L147 81.1182L146.8 81.4182L146.7 81.5182C146.599 81.9747 146.542 82.2318 146.513 82.3678C146.51 82.3802 146.505 82.3968 146.5 82.4182V82.4275C146.475 82.5432 146.485 82.5052 146.498 82.447C146.499 82.4447 146.5 82.4424 146.5 82.44V82.6182C146.6 83.0182 146.7 83.4182 146.7 83.8182C146.7 84.3375 146.616 84.8989 146.529 85.4751C146.483 85.7866 146.435 86.1024 146.4 86.4182C145.8 90.0182 144.1 93.3182 141.5 95.9182C138.9 98.5182 135.5 100.318 132 101.418C131.7 101.618 131.4 101.918 131.4 102.318C131.4 104.526 131.492 106.642 131.588 108.842L131.6 109.118C131.7 111.418 131.8 113.618 132 115.918C132 116.118 132.1 116.218 132.3 116.218C132.5 116.218 132.7 116.118 132.7 115.918C132.9 113.618 133 111.418 133.1 109.118L133.112 108.842C133.197 106.887 133.279 104.999 133.297 103.054C136.886 102.016 140.352 100.166 143.1 97.4182C146 94.6182 148 90.8182 148.7 86.8182C148.732 86.4989 148.774 86.1796 148.817 85.8571C148.907 85.1694 149 84.467 149 83.7182C149 83.3307 148.94 82.8832 148.866 82.4687L148.9 82.4182L149.3 81.8182L152.8 77.2182L159.725 68.3423C161.202 69.6485 162.759 70.8567 164.312 72.0621C165.146 72.71 165.98 73.3571 166.8 74.0183C169.9 76.5183 172.5 79.3183 173.4 83.0183C174.5 86.7183 174.9 90.7183 175.3 94.7183L175.9 100.718C176 101.385 176.056 102.052 176.111 102.718V102.718C176.222 104.052 176.333 105.385 176.8 106.718C176.8 107.018 177 107.218 177.4 107.018C177.8 107.018 178.1 106.818 178.2 106.418C178.41 105.018 178.277 103.618 178.144 102.218C178.087 101.618 178.03 101.018 178 100.418L177.5 94.4183C177.4 92.4183 177.2 90.4183 176.9 88.4183L176.859 88.1454C176.572 86.2279 176.273 84.2275 175.7 82.3183C175.5 81.6516 175.211 80.9849 174.922 80.3182C174.778 79.9849 174.633 79.6516 174.5 79.3183L173.7 77.9183C173.506 77.5945 173.27 77.3127 173.046 77.0456L173.046 77.0455L173.046 77.0455L173.046 77.0453C172.924 76.9 172.806 76.7591 172.7 76.6183C171.3 74.9183 169.7 73.5183 168.1 72.3183C165.454 70.2514 162.741 68.3896 159.845 66.7329C159.779 66.6493 159.697 66.5763 159.6 66.5182C157.35 65.0682 155.1 63.5932 152.85 62.1182C150.6 60.6432 148.35 59.1682 146.1 57.7182C146.05 57.7182 146 57.6932 145.95 57.6682C145.9 57.6432 145.85 57.6182 145.8 57.6182C145.2 57.4182 144.6 57.7182 144.4 58.3182L138.3 77.1182L135.945 84.2597C135.705 83.8097 135.464 83.3626 135.224 82.9183L135.224 82.9182C135.166 82.8123 135.109 82.7066 135.052 82.601C135.002 82.5066 134.951 82.4124 134.9 82.3183L130.7 74.4183L122.3 58.5183C122.3 58.4758 122.3 58.4513 122.292 58.4296C122.282 58.4002 122.258 58.3758 122.2 58.3183C121.8 57.9183 121.1 57.8183 120.6 58.2183L110 67.1183L109.9 67.2183C109.791 67.3057 109.71 67.4075 109.655 67.5173C107.131 69.024 104.739 70.691 102.4 72.5183C100.8 73.8183 99.2001 75.1183 97.8001 76.8183C97.4001 77.2183 97.1001 77.6183 96.8001 78.1183L96.0001 79.5183C95.5001 80.5183 95.1001 81.5183 94.8001 82.5183C94.2273 84.4275 93.9279 86.4279 93.6409 88.3455L93.6001 88.6183L93.0001 94.6182L92.5001 100.618C92.4701 101.218 92.4131 101.818 92.3561 102.418C92.2231 103.818 92.0901 105.218 92.3001 106.618C92.3001 106.918 92.5001 107.118 92.8001 107.218C93.2001 107.418 93.6001 107.218 93.7001 106.818C94.2445 105.263 94.3655 103.707 94.4865 102.152C94.5211 101.707 94.5556 101.263 94.6001 100.818L95.2001 94.8183C95.6001 90.8183 96.1001 86.8183 97.1001 83.1183C98.0001 79.4183 100.6 76.6183 103.7 74.1183C103.996 73.8892 104.293 73.6602 104.59 73.4307C106.452 71.9932 108.337 70.5388 110.158 68.9604L122.562 80.6074C122.207 82.346 122.272 84.2127 122.9 85.9183C123.5 87.8183 124.8 89.5183 126.5 90.6183L131 93.6183C131.563 93.9938 132.127 94.3694 132.695 94.7396ZM133.012 93.4908C133.571 91.3772 134.238 89.2751 134.956 87.2135C134.364 86.1485 133.805 85.0668 133.236 83.9683L133.236 83.9683C133.125 83.7523 133.013 83.5356 132.9 83.3183L128.6 75.4183L120.736 60.8012L112.15 67.9293L124.3 79.5183C124.6 79.8183 124.7 80.1183 124.6 80.5183C124.1 82.1183 124.2 83.7183 124.7 85.3183C125.2 86.8183 126.2 88.2183 127.5 89.2183C128.2 89.7682 128.925 90.3181 129.65 90.868L129.65 90.8683L129.65 90.8685C130.375 91.4184 131.1 91.9683 131.8 92.5183C132.204 92.8357 132.608 93.1615 133.012 93.4908ZM148.787 81.9685C148.827 81.783 148.817 81.8228 148.802 81.8892C148.786 81.9558 148.766 82.049 148.787 81.9685Z" fill="#016087"/>
<path fill-rule="evenodd" clip-rule="evenodd" d="M117.996 27.6277C117.857 26.0952 119.195 24.6397 121.058 24.7173L125.858 24.9173L125.858 24.9173L125.864 24.9176C128.155 24.9994 129.778 26.7752 129.701 28.7798L129.701 28.7798L129.701 28.787C129.619 31.3947 127.311 33.6252 124.385 33.7182H123.2C120.464 33.7182 118.261 31.7666 118.098 29.2548L118.098 29.2538L117.998 27.6558L117.997 27.6417L117.996 27.6277ZM124.4 35.7182V34.7182L124.429 35.7178C128.295 35.6041 131.579 32.6394 131.699 28.853C131.718 28.3693 131.674 27.8988 131.576 27.448L136.038 27.5703C135.901 28.0192 135.82 28.4913 135.801 28.9798L135.8 28.999V29.0182C135.8 32.8654 138.825 35.97 142.61 36.3141L142.7 35.3182L142.617 36.3147L143.812 36.4143C147.525 36.7596 150.799 34.2055 151.386 30.6826L151.39 30.6625L151.392 30.6422L151.592 29.0476C151.973 26.2255 149.787 23.7418 146.842 23.6191L142.042 23.4191V23.419L142.036 23.4188C140.053 23.348 138.255 24.2114 137.105 25.5988L130.679 25.4227C129.646 23.9647 127.924 22.9908 125.939 22.9189L121.142 22.7191C118.21 22.5969 115.752 24.933 116.003 27.7938L116.102 29.3806L116.102 29.3826C116.34 33.0703 119.537 35.7182 123.2 35.7182H124.4ZM142.791 34.3223L142.787 34.322C139.98 34.065 137.81 31.7807 137.8 29.0378C137.888 27.0334 139.684 25.3376 141.962 25.4175L141.964 25.4176L146.758 25.6173C148.611 25.6945 149.824 27.2076 149.609 28.7831L149.609 28.7831L149.608 28.7942L149.41 30.373C148.989 32.8387 146.672 34.6736 143.993 34.4226L143.993 34.4225L143.983 34.4216L142.791 34.3223ZM154.8 104.418C153.5 104.418 152.1 104.518 150.8 104.618C150.5 104.618 150.2 104.818 150.2 105.218C150.2 105.518 150.4 105.918 150.8 105.918C152.1 106.018 153.5 106.118 154.8 106.118C156.1 106.218 157.5 106.218 158.8 106.218C159.67 106.285 160.585 106.262 161.485 106.24C161.93 106.229 162.37 106.218 162.8 106.218C163.24 106.184 163.692 106.162 164.147 106.139C165.037 106.095 165.94 106.05 166.8 105.918C167.1 105.918 167.4 105.618 167.4 105.318C167.4 105.018 167.2 104.618 166.8 104.618C165.94 104.486 165.037 104.441 164.147 104.397C163.692 104.374 163.24 104.352 162.8 104.318H158.8C157.5 104.318 156.1 104.318 154.8 104.418Z" fill="#CCCED0"/>
<path fill-rule="evenodd" clip-rule="evenodd" d="M126.3 20.7183C126.8 20.7183 127.3 20.8183 127.7 20.9183L127.8 21.0183C128 21.1183 128.2 21.0183 128.4 20.9183C128.7 20.7183 128.7 20.3183 128.5 20.0183C127.9 19.3183 127.2 19.1183 126.5 18.9183C125.9 18.7183 125.2 18.7183 124.5 18.7183C123.8 18.7183 123.2 18.8183 122.5 19.1183C122.451 19.1429 122.401 19.1676 122.35 19.1925L122.35 19.1926L122.35 19.1927L122.35 19.1928L122.35 19.1928C121.787 19.4705 121.167 19.7761 120.8 20.4183V20.6183C120.8 20.8183 121 20.9183 121.2 20.9183C121.276 20.9056 121.351 20.8929 121.424 20.8804L121.424 20.8804L121.424 20.8804L121.424 20.8804C121.929 20.7945 122.376 20.7183 122.9 20.7183C123.5 20.6183 124 20.6183 124.6 20.6183C124.914 20.6183 125.227 20.6456 125.527 20.6717C125.8 20.6955 126.061 20.7183 126.3 20.7183ZM124.4 31.8183C123.4 31.8183 122.7 31.0183 122.7 30.1183V27.4183C122.7 26.4183 123.5 25.7183 124.4 25.7183C125.4 25.7183 126.1 26.5183 126.1 27.4183V30.1183C126.1 31.0183 125.3 31.8183 124.4 31.8183ZM130.736 53.9292C129.791 53.8557 128.846 53.7283 127.9 53.5182C126.1 53.2182 124.3 52.5182 122.6 51.7182L121.4 50.9182C121.3 50.8682 121.2 50.7932 121.1 50.7182C121 50.6432 120.9 50.5682 120.8 50.5182L120.3 50.0182L119.2 49.0182L118.3 47.9182C117.7 47.2182 117.2 46.4182 116.7 45.6183L116.7 45.6182C116.385 45.1148 116.15 44.5718 115.919 44.039C115.783 43.7251 115.648 43.4148 115.5 43.1182C115.221 42.5607 115.04 41.9546 114.854 41.3337C114.773 41.0637 114.691 40.791 114.6 40.5182L114.2 39.2182L113.9 37.9182C113.7 37.0182 113.5 36.1182 113.4 35.3182L113.1 32.6182C113 31.7182 112.9 30.8182 112.9 29.9182L112.7 27.2182C112.7 25.4182 112.8 23.7182 113 21.9182C113 21.5182 113.4 21.3182 113.8 21.3182C114 21.4182 114.2 21.7182 114.3 22.0182C114.523 23.2843 114.581 24.6057 114.636 25.9001L114.636 25.9001L114.636 25.9001C114.656 26.3438 114.675 26.7843 114.7 27.2182L114.716 27.4867L114.716 27.4867C114.811 29.1069 114.911 30.8075 115.1 32.4182L115.4 35.0182C115.5 35.9182 115.7 36.7182 115.9 37.5182L116.2 38.7182L116.6 39.9182C116.7 40.1849 116.789 40.4516 116.878 40.7182L116.878 40.7183C117.056 41.2516 117.233 41.7849 117.5 42.3182C118.8 45.4182 120.8 48.1182 123.6 49.7182C126.5 51.2182 129.8 51.7182 133.3 51.7182C135 51.7182 136.7 51.6182 138.3 51.4182C139.9 51.1182 141.5 50.6182 142.9 49.8182C145.7 48.2182 147.7 45.4182 149 42.3182C150.3 39.2182 151.1 35.8182 151.7 32.4182C152.214 29.9232 152.566 27.3742 152.915 24.8505L152.915 24.8492L152.915 24.8479C153.041 23.9334 153.167 23.0223 153.3 22.1182C153.3 21.9182 153.5 21.8182 153.7 21.8182C153.9 21.8182 154 22.0182 154 22.1182C154.1 25.6182 154 29.2182 153.5 32.7182C153 36.2182 152.3 39.7182 150.9 43.1182C149.641 46.0865 147.734 49.0548 144.962 51.077L145.4 55.7183C139.786 55.9522 134.632 55.0043 130.736 53.9292ZM142.6 30.1183C142.6 31.0183 143.3 31.8183 144.3 31.8183C145.2 31.8183 146 31.0183 146 30.1183V27.4183C146 26.5183 145.3 25.7183 144.3 25.7183C143.4 25.7183 142.6 26.4183 142.6 27.4183V30.1183ZM131.5 43.4183C132.5 43.3183 133.4 43.3183 134.3 43.4183C134.8 43.4183 135.2 43.4183 135.7 43.5183C135.867 43.5516 136.022 43.5738 136.178 43.596C136.489 43.6405 136.8 43.6849 137.2 43.8183C137.4 43.9183 137.5 44.1183 137.5 44.3183C137.5 44.3683 137.475 44.3933 137.45 44.4183C137.425 44.4433 137.4 44.4683 137.4 44.5183C137 44.9183 136.5 45.2183 135.9 45.3183C135.4 45.5183 134.8 45.5183 134.3 45.5183C133.2 45.5183 132.1 45.4183 131.2 44.8183C130.9 44.6183 130.7 44.2183 130.9 43.9183C131 43.5183 131.3 43.4183 131.5 43.4183ZM134.7 29.9183C135.049 30.1274 135.057 30.3366 135.064 30.5119C135.067 30.588 135.07 30.6577 135.1 30.7183L135.2 31.5183C135.2 31.7221 135.212 31.9144 135.223 32.103C135.245 32.4696 135.266 32.8221 135.2 33.2183C135.2 33.8183 135.2 34.3183 135.1 34.9183C135.1 35.5183 135 36.0183 134.4 36.6183C134.2 36.8183 133.9 36.8183 133.7 36.6183C133.1 36.0183 133 35.5183 133 34.9183C133 34.6183 132.975 34.3433 132.95 34.0683C132.925 33.7933 132.9 33.5183 132.9 33.2183V31.5183L133 30.7183C133.03 30.6286 133.033 30.5389 133.036 30.4519C133.043 30.2478 133.05 30.0585 133.4 29.9183C133.8 29.6183 134.3 29.7183 134.7 29.9183ZM139.8 20.0183C140.4 19.3183 141.1 19.1183 141.8 18.9183C142.5 18.7183 143.2 18.7183 143.8 18.7183C144.5 18.7183 145.2 18.8183 145.8 19.1183C146.4 19.4183 147.1 19.8183 147.5 20.4183C147.6 20.6183 147.5 20.8183 147.4 20.9183C147.362 20.9183 147.324 20.9329 147.291 20.9453C147.238 20.9655 147.2 20.9801 147.2 20.9183C146.9 20.8683 146.625 20.8433 146.35 20.8183C146.075 20.7933 145.8 20.7683 145.5 20.7183C145.2 20.7183 144.925 20.6933 144.65 20.6683C144.375 20.6433 144.1 20.6183 143.8 20.6183C143.2 20.6183 142.7 20.6183 142.1 20.7183C141.6 20.7183 141 20.8183 140.7 20.9183L140.4 21.0183C140.1 21.1183 139.7 20.9183 139.6 20.5183C139.6 20.3183 139.7 20.1183 139.8 20.0183ZM127.5 41.7182C127.5 42.16 127.142 42.5182 126.7 42.5182C126.258 42.5182 125.9 42.16 125.9 41.7182C125.9 41.2764 126.258 40.9182 126.7 40.9182C127.142 40.9182 127.5 41.2764 127.5 41.7182Z" fill="#016087"/>
<path d="M663.5 82.9182C665 82.3182 666.6 81.7182 668 81.2182C671.5 79.9182 675.3 76.7182 675.3 73.0182V62.8182C675.3 51.4182 697.3 60.7182 697.3 60.7182C697.3 60.7182 696 75.4182 697.9 78.2182C699.8 81.0182 710.6 84.6182 710.6 84.6182L687.7 100.018L663.5 82.9182Z" fill="#CCCED0"/>
<path d="M697.2 71.4182L697.5 66.6182C690.3 67.4182 682 69.1182 676.5 67.9182C671 66.7182 685.2 71.8182 697.2 71.4182Z" fill="#46799A"/>
<path d="M706.5 42.3182C706.5 58.2182 707.7 67.4183 688.3 67.4183C665 67.4183 666.1 64.5182 666.1 44.4182V31.6182C666.1 31.6182 674 19.5182 688.3 19.1182C702.6 18.7182 706.5 34.9182 706.5 34.9182V42.3182Z" fill="#CCCED0"/>
<path d="M670 80.3182L687.2 88.0182L700.1 81.1182C700.1 81.1182 737.5 86.9182 737.5 115.818H638.1C638 105.118 647.2 87.7182 670 80.3182Z" fill="#016087"/>
<path d="M681.6 34.2182C681.2 34.1182 680.6 34.0182 680.1 34.0182H678.4C677.3 34.1182 676.2 34.2182 675.3 34.5182H675.2C674.8 34.6182 674.4 34.4182 674.3 34.1182C674.2 33.8182 674.3 33.5182 674.5 33.4182C675.1 32.8182 675.7 32.5182 676.4 32.3182C677.1 32.1182 677.8 32.0182 678.4 32.0182C679.1 32.0182 679.8 32.1182 680.4 32.3182C681.1 32.5182 681.8 32.8182 682.3 33.4182C682.5 33.6182 682.5 33.9182 682.2 34.1182C682.1 34.2182 681.9 34.2182 681.7 34.2182H681.6Z" fill="#23354B"/>
<path fill-rule="evenodd" clip-rule="evenodd" d="M690.505 16.9659C690.478 16.7651 690.453 16.5775 690.4 16.4182L684.2 15.1182C666.1 13.4182 658.5 32.3182 663 36.8182C671.9 45.7182 691.6 27.0182 690.6 17.5182C690.553 17.3306 690.528 17.1431 690.505 16.9659ZM687.5 61.4182C682.2 61.4182 677.9 64.1182 677.9 67.5182H697.1C697.1 64.1182 692.8 61.4182 687.5 61.4182Z" fill="#204A69"/>
<path fill-rule="evenodd" clip-rule="evenodd" d="M676.4 44.9182C676.4 45.8182 677.1 46.6182 678.1 46.6182C679.1 46.6182 679.9 45.8182 679.8 44.9182V42.2182C679.8 41.3182 679.1 40.5182 678.1 40.5182C677.2 40.5182 676.4 41.2182 676.4 42.2182V44.9182ZM698.064 71.891C698.057 70.17 698.05 68.4686 697.7 66.7182C697.7 66.4182 697.5 66.2182 697.2 66.3182C696.8 66.2182 696.5 66.4182 696.4 66.8182C695.972 68.9596 695.984 71.0276 695.996 73.1479C695.998 73.503 696 73.8596 696 74.2182C696 76.9182 697.3 79.7182 699.6 81.4182C700.2 81.8182 700.8 82.1182 701.5 82.4182C701.988 82.6623 702.609 82.774 703.093 82.8611C703.203 82.881 703.307 82.8996 703.4 82.9182C704.6 83.1182 705.8 83.4182 706.9 83.8182C709.2 84.5182 711.4 85.4182 713.6 86.4182C715.8 87.4182 718 88.5182 720 89.8182C722 91.0182 724 92.4182 725.8 94.0182C729.4 97.1182 732.4 100.818 734.5 105.218C734.6 105.418 734.7 105.418 734.9 105.418C735.1 105.418 735.2 105.218 735.2 105.018C734.7 102.618 733.6 100.218 732.2 98.1182C730.8 96.0182 729.1 94.2182 727.2 92.5182C723.5 89.1182 719.1 86.5182 714.6 84.4182C712.3 83.3182 710 82.4182 707.6 81.7182C706.598 81.3842 705.527 81.12 704.502 80.8673C704.299 80.8173 704.098 80.7677 703.9 80.7182C703.3 80.6182 702.8 80.5182 702.3 80.3182C701.8 80.1182 701.3 79.9182 700.9 79.6182C699.1 78.4182 698.1 76.3182 698.1 74.1182C698.07 73.3686 698.067 72.628 698.064 71.891Z" fill="#204A69"/>
<path d="M666.8 44.5182C667.3 47.7182 667.1 51.0182 667.2 54.2182C667.3 55.8182 667.4 57.4182 667.7 58.9182C668 60.4182 668.5 61.8182 669.3 62.9182C669.7 63.4182 670.3 63.9182 670.8 64.2182C671.4 64.5182 672.1 64.9182 672.8 65.1182C674.2 65.6182 675.8 65.8182 677.3 66.0182C680.4 66.3182 683.7 66.4182 686.9 66.4182C690.1 66.4182 693.3 66.3182 696.3 65.7182C697.8 65.4182 699.2 64.8182 700.5 64.1182C701.7 63.3182 702.8 62.3182 703.5 61.0182C704.2 59.7182 704.7 58.3182 705 56.8182C705.3 55.3182 705.5 53.7182 705.6 52.1182C705.8 48.9182 705.9 45.7182 706.2 42.4182C706.2 42.2182 706.4 42.1182 706.6 42.1182C706.8 42.1182 706.9 42.2182 706.9 42.4182C707.2 45.6182 707.4 48.9182 707.4 52.1182C707.4 53.7182 707.3 55.4182 707 57.1182C706.7 58.8182 706.2 60.4182 705.4 62.0182C704.5 63.6182 703.2 64.9182 701.7 65.9182C700.2 66.8182 698.5 67.4182 696.9 67.8182C693.6 68.6182 690.2 68.7182 687 68.6182C683.7 68.6182 680.5 68.5182 677.2 68.1182C675.6 67.9182 673.9 67.6182 672.2 67.1182C671.4 66.8182 670.6 66.4182 669.8 66.0182C669 65.5182 668.3 64.9182 667.7 64.2182C666.5 62.7182 666 60.9182 665.7 59.3182C665.4 57.6182 665.3 56.0182 665.3 54.3182C665.3 51.0182 665.1 47.8182 665.6 44.6182C665.7 44.2182 666 44.0182 666.4 44.0182C666.6 43.9182 666.8 44.2182 666.8 44.5182V44.5182Z" fill="#204A69"/>
<path d="M688.8 42.0182C689.1 42.9182 689.2 43.8182 689.3 44.6182C689.3 45.5182 689.3 46.4182 689 47.2182C688.9 47.6182 688.5 47.8182 688.1 47.7182C687.9 47.6182 687.7 47.4182 687.6 47.2182C687.3 46.3182 687.3 45.4182 687.3 44.6182C687.4 43.7182 687.5 42.8182 687.8 42.0182C687.9 41.7182 688.2 41.6182 688.5 41.7182L688.8 42.0182Z" fill="#204A69"/>
<path d="M698 46.6182C697 46.6182 696.3 45.8182 696.3 44.9182V42.2182C696.3 41.2182 697.1 40.5182 698 40.5182C699 40.5182 699.7 41.3182 699.7 42.2182V44.9182C699.7 45.8182 699 46.6182 698 46.6182Z" fill="#204A69"/>
<path fill-rule="evenodd" clip-rule="evenodd" d="M695.6 32.3182C694.9 32.5182 694.3 32.7182 693.7 33.4182C693.685 33.448 693.67 33.4756 693.656 33.502C693.575 33.6525 693.515 33.763 693.6 34.0182C693.7 34.2182 693.9 34.4182 694.2 34.3182H694.4C694.8 34.2182 695.4 34.1182 695.9 34.1182H697.6C698.7 34.1182 699.8 34.3182 700.7 34.6182H700.8C701 34.7182 701.3 34.6182 701.5 34.4182C701.8 34.2182 701.8 33.7182 701.5 33.4182C701 32.8182 700.3 32.5182 699.6 32.3182C699 32.1182 698.3 32.0182 697.6 32.0182C696.9 32.0182 696.3 32.1182 695.6 32.3182ZM686 58.1182C685.2 58.0182 684.5 57.9182 683.8 57.7182C683.6 57.6182 683.4 57.6182 683.4 57.8182C683.2 58.0182 683.2 58.3182 683.4 58.5182C684.049 59.1673 684.87 59.4725 685.624 59.7526C685.683 59.7746 685.742 59.7964 685.8 59.8182C685.883 59.8365 685.964 59.8549 686.045 59.873C686.848 60.0532 687.583 60.2182 688.4 60.2182C689.2 60.2182 690.1 60.2182 691 60.0182C691.8 59.8182 692.7 59.5182 693.5 58.7182C693.7 58.5182 693.7 58.2182 693.6 57.9182C693.4 57.5182 693 57.3182 692.6 57.5182L692.5 57.6182C691.9 57.9182 691.2 58.0182 690.5 58.1182C690.162 58.1182 689.823 58.1415 689.474 58.1657C689.1 58.1915 688.713 58.2182 688.3 58.2182C687.5 58.2182 686.8 58.2182 686 58.1182Z" fill="#23354B"/>
<path d="M690 52.2182C689.3 48.9182 679.7 52.6182 680.6 55.3182C681.6 57.9182 690.6 55.0182 690 52.2182Z" fill="#204A69"/>
<path fill-rule="evenodd" clip-rule="evenodd" d="M705.5 38.0183C701 27.8183 692.6 21.7183 685.3 20.8183L682.8 16.4183L688.6 15.1183C704.1 13.4183 711.7 27.1183 709.2 37.7183C708.7 39.5183 706.2 39.7183 705.5 38.0183ZM686.4 52.2183C687.1 48.9183 696.7 52.6183 695.8 55.3183C694.9 58.0183 685.8 55.0183 686.4 52.2183Z" fill="#204A69"/>
<path d="M49.7 85.3183L46 80.3183L52.8 80.2183L49.7 85.3183Z" fill="#CCCED0"/>
<path d="M58.7 37.0183C59.3 36.3183 60 36.1183 60.7 35.9183C61.4 35.7183 62.1 35.7183 62.7 35.7183C63.4 35.7183 64.1 35.8183 64.7 36.0183C65.4 36.2183 66 36.5183 66.6 37.1183C66.9 37.4183 66.9 37.8183 66.6 38.0183C66.4 38.2183 66.1 38.2183 65.9 38.2183H65.8C64.9 37.8183 63.7 37.7183 62.6 37.7183C62 37.7183 61.5 37.7183 60.9 37.8183C60.4 37.8183 59.8 37.9183 59.5 38.0183L59.3 38.1183C59 38.2183 58.6 38.0183 58.5 37.7183C58.5 37.4183 58.5 37.2183 58.7 37.0183V37.0183Z" fill="#204A69"/>
<path fill-rule="evenodd" clip-rule="evenodd" d="M45.6 38.5182C45.3091 38.7364 45.2298 38.6901 45.0927 38.6101C45.0413 38.5802 44.9818 38.5455 44.9 38.5182C44.7 38.4182 44.4 38.4182 44.2 38.4182C43.7 38.3182 43.1 38.3182 42.6 38.3182C42 38.3182 41.5 38.3182 41 38.4182C40.5 38.5182 40 38.6182 39.3 38.4182H39.2C39 38.3182 38.8 38.1182 38.9 37.9182C39.1 37.0182 39.9 36.6182 40.6 36.4182C41.3 36.2182 42 36.1182 42.7 36.0182C43.4 36.0182 44.1 36.0182 44.8 36.2182C45.1 36.3182 45.5 36.4182 45.9 36.5182C45.9762 36.5689 46.0716 36.6068 46.1717 36.6465C46.4659 36.7633 46.8 36.8958 46.8 37.4182C46.8 37.6182 46.7 37.9182 46.5 38.0182L45.6 38.5182ZM61.7378 80.7339C61.124 80.9702 60.507 80.9761 59.8636 80.9822H59.8635C59.5495 80.9852 59.2292 80.9883 58.9 81.0182H55.8C54.8 81.0182 53.775 81.0432 52.75 81.0682C51.725 81.0932 50.7 81.1182 49.7 81.1182C47.7 81.1182 45.6 81.1182 43.6 81.0182C41.6 81.0182 39.5 80.9182 37.5 80.3182C37.3 80.2182 37.2 80.1182 37.3 79.9182C37.3 79.8182 37.4 79.7182 37.5 79.7182C39.5 79.1182 41.6 79.0182 43.6 79.0182C45.6 78.9182 47.7 78.9182 49.7 78.9182C51.7 78.9182 53.8 78.9182 55.8 79.0182H58.9C59.2003 79.0482 59.5005 79.0512 59.8035 79.0542H59.8036H59.8037C60.2985 79.0591 60.8005 79.0641 61.3215 79.1871C61.2546 78.8013 61.2135 78.4106 61.2 78.0182C61.2 77.583 61.1972 77.1506 61.1944 76.7201C61.189 75.8801 61.1836 75.0472 61.1991 74.2144C56.2351 74.1318 50.2573 73.137 46.0104 72.2604C45.3437 72.1967 44.6738 72.1173 44 72.0182C42.3 71.8182 40.6 71.4182 39 70.8182C37.4 70.1182 35.8 69.2182 34.6 67.9182C33.3 66.6182 32.5 65.0182 31.9 63.3182C31.3 61.7182 31 60.0182 30.7 58.3182C30.3 55.0182 30 51.7182 30.5 48.4182C30.6 48.0182 30.9 47.8182 31.3 47.8182C31.7 47.6182 31.9 47.9182 31.9 48.2182C32.1487 49.81 32.249 51.4267 32.3485 53.0311C32.449 54.6519 32.5487 56.2603 32.8 57.8182C33.3 60.9182 34.2 64.0182 36.2 66.2182C38.2 68.3182 41.3 69.2182 44.4 69.7182C47.5 70.1182 50.8 70.2182 54 70.2182C57.1 70.2182 60.3 69.6182 62.9 68.2182C65.6 66.8182 67.4 64.2182 68.5 61.3182C69.6 58.4182 70.1 55.2182 70.4 52.0182C70.55 50.4182 70.675 48.7932 70.8 47.1682C70.925 45.5432 71.05 43.9182 71.2 42.3182C71.2 42.1182 71.4 42.0182 71.6 42.0182C71.8 42.0182 71.9 42.1182 71.9 42.3182C72.2 45.6182 72.3 48.8182 72.2 52.2182C72.1 55.5182 71.6 58.9182 70.5 62.1182C69.4 65.3182 67.2 68.4182 64 70.1182C63.6543 70.3189 63.3036 70.5035 62.9486 70.6732C63.2506 72.3423 63.2574 74.0527 63.264 75.7454C63.267 76.5084 63.27 77.2678 63.3 78.0182C63.4 80.2182 64.6 82.3182 66.5 83.4182C67 83.7182 67.5 83.9182 68 84.0182C68.15 84.0682 68.275 84.0932 68.4 84.1182C68.525 84.1432 68.65 84.1682 68.8 84.2182L69.8 84.4182C70.45 84.5682 71.075 84.7182 71.7 84.8682C72.325 85.0182 72.95 85.1682 73.6 85.3182C76.1 86.0182 78.5 86.9182 80.9 87.9182C85.6 90.0182 90.2 92.5182 94.2 95.9182C96.2 97.6182 98.1 99.4182 99.6 101.518C101.2 103.618 102.3 106.018 102.9 108.618C102.9 108.818 102.8 109.018 102.6 109.018C102.4 109.018 102.3 109.018 102.2 108.818C100 104.318 96.6 100.618 92.8 97.5182C88.9 94.4182 84.5 92.0182 79.9 90.0182C77.6 89.0182 75.2 88.1182 72.9 87.4182C71.7 87.0182 70.5 86.7182 69.3 86.5182L68.4 86.4182C68.2943 86.383 68.1762 86.3602 68.0544 86.3366C67.8306 86.2934 67.5943 86.2477 67.4 86.1182C66.7 85.9182 66 85.6182 65.4 85.2182C63.7006 84.1985 62.417 82.5781 61.7378 80.7339ZM54.4 49.2182C54.3 47.6182 54.2 46.0182 53.9 44.4182C53.8 44.2182 53.7 44.0182 53.5 44.0182C53.2 43.9182 53 44.1182 52.9 44.4182C52.6 46.0182 52.5 47.6182 52.4 49.2182C52.3 50.8182 52.4 52.4182 52.7 54.0182C52.7 54.3182 53 54.5182 53.3 54.6182C53.7 54.7182 54 54.4182 54.1 54.0182C54.4 52.4182 54.4 50.8182 54.4 49.2182V49.2182ZM43.2 50.3182C42.2 50.3182 41.5 49.5182 41.5 48.6182V45.9182C41.5 44.9182 42.3 44.2182 43.2 44.2182C44.2 44.2182 44.9 45.0182 44.9 45.9182V48.6182C45 49.5182 44.2 50.3182 43.2 50.3182ZM61.4 48.6182C61.4 49.5182 62.1 50.3182 63.1 50.3182C64.1 50.3182 64.9 49.5182 64.8 48.6182V45.9182C64.8 45.0182 64.1 44.2182 63.1 44.2182C62.2 44.2182 61.4 44.9182 61.4 45.9182V48.6182ZM47.3547 58.5647C47.168 58.4567 46.9891 58.3533 46.6 58.4182H46.2C45.9 58.5182 45.7 58.8182 45.7 59.2182C45.7936 59.8733 46.4126 60.178 46.8195 60.3784L46.8505 60.3936L46.9 60.4182C47.2601 60.6342 47.5683 60.7466 47.8994 60.8672C48.028 60.9141 48.1601 60.9622 48.3 61.0182C49.2 61.4182 50.1 61.6182 51.1 61.7182C52.1 61.9182 53 61.9182 54 61.8182C54.9 61.8182 56.1 61.6182 56.8 60.6182C56.9 60.6182 56.9 60.5182 56.9 60.5182C56.9 60.3182 56.8 60.2182 56.6 60.1182H56.5C55.5 59.8182 54.8 59.8182 53.9 59.8182C53.0825 59.8182 52.3476 59.7357 51.5452 59.6456H51.5452H51.5452H51.5452H51.5452L51.3 59.6182C50.5 59.5182 49.6 59.3182 48.8 59.1182L48.8 59.1182C48.4 59.0182 48 58.9182 47.7 58.7182C47.5594 58.6831 47.4559 58.6232 47.3547 58.5647L47.3547 58.5647Z" fill="#204A69"/>
<path fill-rule="evenodd" clip-rule="evenodd" d="M44 38.1182C37.4 34.8182 35.2 30.3182 34.4 27.3182C33.4 23.6182 33.1 14.1182 47 11.7182C73.8711 7.09524 77.0883 34.4746 77.7357 39.9845C77.7605 40.1955 77.7816 40.3744 77.8 40.5182C78.4 44.8182 76.8 49.9182 75.8 52.7182C75.5 53.6182 74.3 53.7182 73.8 53.0182C72.4 51.0182 69.4 47.9182 64.7 46.7182C62.8553 46.2299 61.3638 44.7701 59.8263 43.2653C58.53 41.9966 57.201 40.6959 55.6 39.9182C53.3494 38.8465 51.0415 38.8372 48.9222 38.8287C47.0865 38.8213 45.3925 38.8145 44 38.1182ZM71.4 86.1182L25.5 85.9182C7 95.7182 0 115.818 0 115.918H106.2C99.7 90.9182 71.4 86.1182 71.4 86.1182Z" fill="#016087"/>
<path d="M30.6 44.5183C30 43.9183 30.2 43.3183 30 42.7183C29.9 42.1183 29.9 41.5183 29.8 40.9183C29.7 39.7183 29.7 38.4183 29.8 37.2183C29.9 36.0183 30.1 34.7183 30.5 33.5183C30.8 32.3183 31.4 31.0183 32.6 30.2183C32.8 30.1183 33 30.1183 33.1 30.3183C33.1 30.4183 33.2 30.4183 33.2 30.5183C33.1 31.8183 32.8 32.8183 32.6 33.9183C32.4 35.0183 32.3 36.1183 32.2 37.3183C32.1 38.5183 32.1 39.6183 32.1 40.8183V42.6183C32.1 43.2183 32.3 43.8183 31.9 44.4183V44.5183C31.7 44.9183 31.1 45.0183 30.8 44.8183C30.7 44.6183 30.7 44.5183 30.6 44.5183V44.5183Z" fill="#95ADC1"/>
<path d="M27.6 57.0183C28.3732 57.0183 29 56.3915 29 55.6183C29 54.8451 28.3732 54.2183 27.6 54.2183C26.8268 54.2183 26.2 54.8451 26.2 55.6183C26.2 56.3915 26.8268 57.0183 27.6 57.0183Z" fill="#95ADC1"/>
<path d="M190.9 54.5182C196.6 53.9182 223.6 53.2182 227.9 54.6182C227.9 54.6182 225 72.9182 210 72.8182C194.8 72.6182 190.9 54.5182 190.9 54.5182Z" fill="#CCCED0"/>
<path fill-rule="evenodd" clip-rule="evenodd" d="M203 30.6182C202.6 30.5182 202 30.4182 201.4 30.3182C200.8 30.2182 200.2 30.2182 199.6 30.2182C198.4 30.2182 197.1 30.4182 196.1 30.8182H196C195.7 30.9182 195.3 30.8182 195.1 30.4182C195 30.1182 195.1 29.8182 195.2 29.7182C195.8 29.1182 196.5 28.8182 197.2 28.5182C197.823 28.3401 198.526 28.2413 199.166 28.1512L199.166 28.1512C199.245 28.1401 199.323 28.1291 199.4 28.1182C200.1 28.1182 200.9 28.1182 201.6 28.3182L201.691 28.3442C202.369 28.5366 203.13 28.7528 203.8 29.5182C204 29.8182 204 30.2182 203.8 30.4182C203.6 30.6182 203.4 30.6182 203.1 30.5182L203 30.6182ZM218.3 28.4182C217.5 28.6182 216.8 28.9182 216.1 29.6182C216 29.8182 215.9 30.0182 216 30.3182C216.1 30.6182 216.5 30.8182 216.8 30.7182L217 30.6182C217.4 30.5182 218 30.4182 218.6 30.3182L218.6 30.3182C219.2 30.2182 219.8 30.2182 220.4 30.2182C221.6 30.2182 222.9 30.4182 223.9 30.8182H224C224.2 31.0182 224.5 30.9182 224.7 30.7182C225 30.5182 225 30.1182 224.7 29.8182C224.1 29.2182 223.4 28.8182 222.7 28.6182C222 28.3182 221.2 28.2182 220.5 28.2182C219.8 28.2182 219 28.2182 218.3 28.4182ZM207.9 57.4182C207.1 57.3182 206.3 57.2182 205.6 56.9182C205.2 56.7182 204.9 56.8182 204.9 57.0182C204.7 57.2182 204.7 57.7182 205 57.9182C205.8 58.6182 206.8 59.0182 207.7 59.2182C208.6 59.5182 209.6 59.6182 210.5 59.6182C211.4 59.6182 212.4 59.5182 213.3 59.3182C214.2 59.1182 215.2 58.8182 216 58.0182C216.2 57.8182 216.2 57.5182 216.1 57.2182C215.9 56.9182 215.5 56.7182 215.2 56.9182H215.1C214.5 57.2182 213.7 57.4182 212.9 57.5182C212.1 57.6182 211.2 57.6182 210.4 57.6182C209.5 57.6182 208.7 57.5182 207.9 57.4182ZM197.4 42.2182C197.4 43.3182 198.3 44.1182 199.3 44.1182C200.3 44.1182 201.2 43.2182 201.2 42.2182V39.2182C201.2 38.1182 200.3 37.3182 199.3 37.3182C198.2 37.3182 197.4 38.2182 197.4 39.2182V42.2182ZM211.288 44.0742C211.192 42.9145 211.088 41.6664 210.8 40.4182C210.8 40.3182 210.6 40.1182 210.3 40.0182C210.1 40.0182 209.8 40.1182 209.7 40.4182C209.4 41.6182 209.3 42.9182 209.2 44.2182V44.2182C209.2 45.4182 209.2 46.7182 209.5 48.0182C209.6 48.3182 209.8 48.5182 210.1 48.6182C210.5 48.7182 210.9 48.4182 211 48.0182C211.3 46.8182 211.3 45.5182 211.3 44.2182L211.288 44.0742ZM221 44.1182C220 44.1182 219.1 43.3182 219.1 42.2182V39.2182C219.1 38.2182 219.9 37.3182 221 37.3182C222 37.3182 222.9 38.1182 222.9 39.2182V42.2182C222.9 43.2182 222 44.1182 221 44.1182Z" fill="#204A69"/>
<path fill-rule="evenodd" clip-rule="evenodd" d="M231.1 46.0182C231.8 42.4182 232.2 38.8182 232.5 35.2182C232.8 31.6182 232.7 27.9182 231.9 24.1182C231.2 20.5182 229.9 17.0182 227.9 13.9182C226 10.8182 223.4 8.11819 220.2 6.11819C217.1 4.21819 213.4 3.01819 209.6 3.01819C207.7 3.01819 205.8 3.31819 204 3.81819C202.2 4.31819 200.5 5.21819 198.9 6.21819C195.7 8.31819 193.3 11.3182 191.5 14.5182C189.7 17.7182 188.5 21.2182 187.7 24.8182C186.9 28.4182 186.6 32.1182 186.5 35.7182C186.5 37.6182 186.5 39.4182 186.6 41.2182L186.605 41.3146C186.704 43.086 186.807 44.9503 187.2 46.7182C187.9 50.3182 189.1 53.9182 191.1 57.1182C193 60.3182 195.8 63.0182 199.1 64.8182C202.4 66.6182 206.1 67.6182 209.8 67.7182C211.7 67.7182 213.6 67.5182 215.4 67.0182C217.3 66.6182 219 65.8182 220.6 64.8182C223.9 62.8182 226.2 59.7182 227.8 56.4182C229.4 53.1182 230.4 49.6182 231.1 46.0182ZM230.6 24.6182C231.3 28.0182 231.4 31.6182 231.2 35.1182C230.9 38.7182 230.5 42.2182 229.8 45.8182C229.1 49.2182 228.1 52.7182 226.5 55.8182C224.9 58.9182 222.7 61.7182 219.8 63.5182C216.9 65.4182 213.4 66.1182 210 66.1182C206.5 66.0182 203.1 65.0182 200.1 63.3182C197.1 61.6182 194.6 59.1182 192.8 56.2182C191 53.3182 189.9 49.9182 189.3 46.5182C188.7 43.1182 188.6 39.5182 188.6 36.0182C188.7 32.5182 189 28.9182 189.7 25.5182C190.4 22.0182 191.5 18.7182 193.2 15.6182C194.9 12.6182 197.2 9.81819 200 7.91819C201.4 6.91819 203 6.11819 204.6 5.61819C206.3 5.11819 208 4.81819 209.7 4.81819C213.1 4.81819 216.6 5.81819 219.5 7.61819C222.4 9.41819 224.9 11.9182 226.8 14.9182C228.6 17.8182 229.9 21.2182 230.6 24.6182Z" fill="#CCCED0"/>
<path d="M183.5 37.5182C183.6 38.6182 183.7 39.8182 183.7 41.0182C183.7 42.2182 183.7 43.4182 183.5 44.6182C183.4 45.0182 183.1 45.2182 182.7 45.1182C182.4 45.0182 182.2 44.9182 182.2 44.6182C181.9 43.4182 181.8 42.2182 181.8 41.0182C181.8 39.8182 181.9 38.6182 182.2 37.3182C182.3 36.9182 182.7 36.7182 183 36.9182C183.3 37.0182 183.5 37.2182 183.5 37.5182Z" fill="#CCCED0"/>
<path fill-rule="evenodd" clip-rule="evenodd" d="M207.8 40.4183L207.6 36.4183C207.6 36.1183 207.4 35.8183 206.9 35.6183C206.5 35.5183 206.2 35.8183 206.2 36.2183L206 40.2183V41.2183C206 41.5183 206 41.8183 205.9 42.1183V42.1183C205.8 42.7183 205.7 43.3183 205.4 43.8183C204.9 44.8183 204.1 45.6183 203.1 46.1183C202.7 46.3183 202.1 46.4183 201.6 46.4183H197.6C197.1 46.4183 196.6 46.3183 196.1 46.1183C195.1 45.7183 194.3 44.8183 193.8 43.8183C193.6 43.3183 193.4 42.8183 193.3 42.2183C193.2 41.9183 193.2 41.6183 193.2 41.3183V40.3183C193.15 39.6683 193.125 38.9933 193.1 38.3183C193.075 37.6433 193.05 36.9683 193 36.3183C193 36.0183 192.7 35.7183 192.4 35.7183C192 35.7183 191.7 35.9183 191.7 36.3183C191.65 36.9683 191.625 37.6433 191.6 38.3183C191.575 38.9933 191.55 39.6683 191.5 40.3183V41.3183C191.55 41.4683 191.55 41.6433 191.55 41.8308C191.55 42.0183 191.55 42.2183 191.6 42.4183C191.7 43.2183 191.9 43.9183 192.2 44.6183C192.9 46.0183 193.9 47.2183 195.4 47.9183C196.1 48.3183 196.9 48.5183 197.7 48.5183H201.7C202.5 48.5183 203.3 48.3183 204 48.0183C205.4 47.3183 206.5 46.1183 207.1 44.7183C207.4 44.0183 207.6 43.2183 207.7 42.5183C207.8 42.1183 207.8 41.8183 207.8 41.4183V41.4183V40.4183ZM229.6 38.9683C229.575 38.3183 229.55 37.6683 229.5 37.0183C229.5 36.6183 229.2 36.4183 229.1 36.4183C228.7 36.4183 228.4 36.6183 228.4 37.0183C228.35 37.6683 228.325 38.3183 228.3 38.9683C228.275 39.6183 228.25 40.2683 228.2 40.9183C228.2 41.5395 228.121 42.0032 228.034 42.5191C228.023 42.5845 228.011 42.6507 228 42.7183C227.9 43.3183 227.7 43.8183 227.4 44.3183C226.8 45.2183 226 46.0183 225 46.4183C224.5 46.5183 224 46.6183 223.4 46.6183H219.5C219 46.6183 218.5 46.4183 218 46.2183C217 45.7183 216.3 44.8183 215.8 43.8183C215.5 43.3183 215.4 42.8183 215.3 42.2183C215.2 41.9183 215.2 41.6183 215.2 41.3183V40.3183C215.15 39.6683 215.125 39.0183 215.1 38.3683C215.075 37.7183 215.05 37.0683 215 36.4183C215 36.1183 214.7 35.8183 214.4 35.8183C214 35.8183 213.7 36.0183 213.7 36.4183C213.65 37.0683 213.625 37.7183 213.6 38.3683C213.575 39.0183 213.55 39.6683 213.5 40.3183V42.4183C213.5 43.2183 213.7 43.9183 214 44.6183C214.6 46.0183 215.6 47.3183 217 48.0183C217.7 48.3183 218.5 48.5183 219.3 48.6183H223.3C224 48.6183 224.9 48.5183 225.6 48.2183C227.1 47.6183 228.2 46.4183 228.9 45.1183C229.2 44.4183 229.5 43.7183 229.6 43.0183C229.7 42.3183 229.7 41.5183 229.7 40.9183C229.65 40.2683 229.625 39.6183 229.6 38.9683Z" fill="#46799A"/>
<path d="M188.9 36.4182L230.9 36.9182Z" fill="#CCCED0"/>
<path fill-rule="evenodd" clip-rule="evenodd" d="M199.4 35.52C195.9 35.52 192.4 35.52 188.9 35.62C188.5 35.62 188.3 35.92 188.3 36.22C188.3 36.62 188.6 36.92 188.9 36.92C192.4 37.12 195.9 37.22 199.4 37.32C201.15 37.37 202.9 37.395 204.65 37.42C206.4 37.445 208.15 37.47 209.9 37.52C213.4 37.62 216.9 37.62 220.4 37.62C223.9 37.62 227.4 37.62 230.9 37.52C231.2 37.52 231.5 37.22 231.5 36.92C231.5 36.52 231.2 36.22 230.9 36.22C227.4 36.02 223.9 35.92 220.4 35.82C216.9 35.72 213.4 35.62 209.9 35.62C206.4 35.52 202.9 35.52 199.4 35.52ZM208.9 93.0182C198 93.0182 186.1 83.7183 186.1 83.7183C166.1 94.4183 156.4 115.818 156.4 115.818H262.3C253.9 92.7182 228.8 84.4183 228.8 84.4183C228.8 84.4183 219.8 93.0182 208.9 93.0182Z" fill="#016087"/>
<path fill-rule="evenodd" clip-rule="evenodd" d="M220.06 75.0563C220.007 74.5036 219.959 73.9948 219.3 73.4182C219.2 73.2182 219 73.2182 218.8 73.4182C218.141 73.9948 218.093 74.5036 218.04 75.0563C218.029 75.1746 218.018 75.2948 218 75.4182C217.9 76.1182 217.9 76.7182 217.9 77.4182C217.9 78.1182 217.9 78.7182 218 79.4182C218.018 79.5416 218.029 79.6618 218.04 79.7801C218.047 79.8464 218.053 79.912 218.06 79.9773C217.659 80.1768 217.26 80.3795 216.861 80.5824C216.508 80.7615 216.155 80.9408 215.8 81.1183C214.5 81.7683 213.2 82.4433 211.9 83.1183C210.756 83.712 209.613 84.3057 208.469 84.8825L200.9 81.5183C200.639 81.4023 200.378 81.2853 200.117 81.1682C197.675 80.0744 195.21 78.9699 192.5 78.5183C192.45 78.4683 192.4 78.4683 192.362 78.4683C192.325 78.4683 192.3 78.4683 192.3 78.4183C192.2 78.5183 192.2 78.7183 192.3 78.8183C194.47 80.6266 196.885 81.7809 199.324 82.9464C199.582 83.07 199.841 83.1937 200.1 83.3183C201.646 84.0912 203.227 84.8288 204.823 85.573C205.911 86.0806 207.005 86.5912 208.1 87.1183C208.4 87.3183 208.8 87.3183 209.1 87.1183C211.7 85.7183 214.3 84.3183 216.8 82.9183C217.13 82.7335 217.462 82.5505 217.794 82.3672C219.979 81.1612 222.19 79.9411 224.1 78.1183C224.2 78.1183 224.2 78.0183 224.2 77.9183C224.2 77.8183 224 77.7183 223.9 77.7183C222.569 78.0288 221.337 78.4771 220.15 78.9933C220.2 78.4647 220.2 77.9728 220.2 77.4182C220.2 76.7182 220.2 76.1182 220.1 75.4182C220.082 75.2948 220.071 75.1746 220.06 75.0563Z" fill="#CCCED0"/>
<path d="M378.4 30.8182C379.1 30.1182 379.8 29.8182 380.6 29.6182C381.3 29.4182 382.1 29.4182 382.8 29.4182C383.5 29.4182 384.3 29.5182 385 29.8182C385.7 30.0182 386.4 30.4182 387 31.0182C387.3 31.3182 387.3 31.7182 387 31.9182C386.8 32.1182 386.5 32.2182 386.3 32.0182H386.2C385.2 31.6182 383.9 31.4182 382.7 31.4182C382.1 31.4182 381.5 31.4182 380.9 31.5182C380.3 31.6182 379.7 31.7182 379.3 31.8182L379.1 31.9182C378.8 32.0182 378.4 31.8182 378.3 31.5182C378.1 31.2182 378.2 31.0182 378.4 30.8182V30.8182Z" fill="#23354B"/>
<path fill-rule="evenodd" clip-rule="evenodd" d="M395.326 49.1425C398.128 68.6165 401.569 92.5339 387.5 94.6182C387.5 94.6182 391.1 88.5182 389.9 82.5182C382.051 82.0063 382.354 72.6873 382.612 64.7452C382.657 63.3781 382.7 62.0518 382.7 60.8182C389.3 53.5182 391.6 41.9182 391.6 41.9182C389.01 37.766 384.156 34.499 379.138 31.1222C370.985 25.6344 362.4 19.8566 362.4 9.51819C376.9 7.31819 393 10.3182 393.4 31.7182C393.477 36.2933 394.363 42.456 395.326 49.1425ZM348.9 83.2182L354.4 80.2182C358.9 77.7182 361.8 73.1182 362 68.0182L362.3 62.4182C350.2 55.1182 349.8 41.6182 349.8 41.6182L348.9 83.2182Z" fill="#016087"/>
<path d="M346.8 83.2182L372.1 89.9182L389.9 82.5182C389.9 82.5182 411.2 88.6182 418.2 115.818H325.1C325.2 115.818 326.6 93.9182 346.8 83.2182V83.2182Z" fill="#46799A"/>
<path d="M362.4 44.3182C361.4 44.3182 360.5 43.5182 360.5 42.4182V39.4182C360.5 38.4182 361.3 37.5182 362.4 37.5182C363.4 37.5182 364.3 38.3182 364.3 39.4182V42.4182C364.3 43.5182 363.5 44.3182 362.4 44.3182Z" fill="#23354B"/>
<path d="M374 37.9182C374.3 39.7182 374.4 41.4182 374.5 43.2182C374.5 45.0182 374.5 46.7182 374.2 48.5182C374.1 48.9182 373.8 49.2182 373.4 49.1182C373.1 49.0182 372.8 48.8182 372.8 48.5182C372.5 46.7182 372.5 45.0182 372.5 43.2182C372.6 41.4182 372.7 39.7182 373 37.9182C373.1 37.6182 373.3 37.4182 373.6 37.5182C373.8 37.5182 373.9 37.7182 374 37.9182V37.9182Z" fill="#23354B"/>
<path fill-rule="evenodd" clip-rule="evenodd" d="M382.2 42.4182C382.2 43.5182 383.1 44.3182 384.1 44.3182C385.2 44.3182 386 43.5182 386 42.4182V39.4182C386 38.3182 385.1 37.5182 384.1 37.5182C383 37.5182 382.2 38.4182 382.2 39.4182V42.4182ZM372.5 55.5182C371 55.4182 369.6 55.1182 368.1 54.6182C367.8 54.5182 367.5 54.6182 367.4 54.8182C367.2 55.1182 367.2 55.6182 367.5 55.8182C368.1 56.4182 369 56.8182 369.8 57.1182C370.7 57.3182 371.6 57.5182 372.5 57.5182C373.4 57.5182 374.3 57.4182 375.2 57.0182C376 56.7182 376.8 56.1182 377.3 55.3182V55.0182C377.2 54.8182 377 54.7182 376.8 54.8182C375.3 55.4182 374 55.6182 372.5 55.5182Z" fill="#23354B"/>
<path fill-rule="evenodd" clip-rule="evenodd" d="M364.639 31.3502C364.837 31.3913 365.041 31.4337 365.4 31.2182C365.8 30.9182 366 30.4182 366 30.1182C365.861 29.7 365.624 29.6219 365.392 29.5452C365.291 29.5119 365.191 29.4788 365.1 29.4182C364.9 29.3682 364.725 29.3182 364.55 29.2682C364.375 29.2182 364.2 29.1682 364 29.1182C363.2 28.9182 362.5 28.8182 361.7 28.8182C360.9 28.8182 360.1 28.9182 359.4 29.2182C358.7 29.4182 357.9 29.9182 357.7 30.8182V30.9182C357.7 31.2182 357.9 31.4182 358.1 31.4182C358.9 31.5182 359.4 31.4182 360 31.2182C360.5 31.0182 361.1 31.0182 361.7 31.0182C362.3 31.0182 362.9 31.0182 363.5 31.1182C363.65 31.1682 363.8 31.1932 363.95 31.2182C364.1 31.2432 364.25 31.2682 364.4 31.3182C364.485 31.3182 364.561 31.3341 364.639 31.3502ZM383.9 68.6182C383.9 66.0182 383.7 63.4182 383.4 60.8182C383.4 60.5182 383.1 60.2182 382.7 60.2182C382.4 60.2182 382 60.4182 382 60.8182C381.8 63.4182 381.8 66.0182 381.9 68.6182L382 72.5182V74.5182C382 75.2182 382.1 75.9182 382.3 76.6182C383 79.4182 385.1 81.9182 387.8 83.0182C388.5 83.3182 389.2 83.5182 389.9 83.6182C390.5 83.7182 391.1 83.8182 391.7 84.0182C392.8 84.3182 394 84.8182 395.1 85.3182C399.6 87.5182 403.3 91.0182 406.4 95.0182C408.923 98.4661 410.88 102.268 412.866 106.125C413.242 106.855 413.618 107.587 414 108.318C414.1 108.518 414.2 108.518 414.4 108.518C414.6 108.518 414.7 108.318 414.7 108.118C413.6 102.918 411.2 98.1182 408.1 93.8182C405 89.5182 401 85.7182 396.1 83.4182C394.9 82.8182 393.6 82.4182 392.3 82.0182C392.17 81.9812 392.044 81.9443 391.921 81.9079C391.375 81.7477 390.87 81.5997 390.3 81.5182C390.076 81.4541 389.872 81.4003 389.682 81.3502C389.279 81.2439 388.94 81.1541 388.6 81.0182C386.5 80.2182 384.9 78.3182 384.3 76.1182C384.287 76.042 384.275 75.9674 384.262 75.8941C384.176 75.3896 384.1 74.942 384.1 74.4182L384 72.5182L383.9 68.6182Z" fill="#23354B"/>
<path d="M367 9.11816C346.8 9.11816 344.2 32.4182 346.1 44.4182C348 56.4182 339 75.2182 338.9 85.0182C338.8 92.3182 346.9 94.7182 353.1 94.7182C367.1 94.7182 362.1 68.0182 362.4 62.5182C351.3 59.4182 350.3 39.7182 350.3 39.7182C350.3 39.7182 370.3 22.3182 367 9.11816Z" fill="#016087"/>
<path d="M351 39.6182C351.5 42.5182 351.7 45.4182 352.6 48.1182C353.5 50.9182 354.8 53.5182 356.5 55.8182C358.2 58.1182 360.2 60.3182 362.5 62.0182C363.6 62.9182 364.8 63.7182 366.1 64.4182C367.3 65.1182 368.7 65.7182 370 66.0182C370.7 66.2182 371.3 66.3182 371.8 66.2182C372.4 66.1182 373 65.9182 373.7 65.7182C375 65.2182 376.2 64.4182 377.3 63.6182C379.6 61.9182 381.6 59.8182 383.4 57.5182C386.9 52.8182 389.4 47.5182 391.3 41.8182C391.4 41.6182 391.5 41.5182 391.7 41.6182C391.9 41.7182 391.9 41.8182 391.9 42.0182C391.2 48.0182 388.6 53.8182 385 58.8182C383.2 61.3182 381 63.5182 378.6 65.4182C377.4 66.4182 376 67.2182 374.5 67.8182C373.7 68.1182 372.9 68.4182 372 68.5182C371.1 68.6182 370.2 68.4182 369.4 68.3182C366.2 67.4182 363.6 65.8182 361.1 63.9182C358.7 62.0182 356.5 59.7182 354.7 57.2182C352.9 54.7182 351.5 51.8182 350.6 48.9182C349.7 45.9182 349.1 42.8182 349.6 39.7182C349.7 39.3182 350 39.1182 350.4 39.1182C350.7 39.1182 350.9 39.3182 351 39.6182V39.6182Z" fill="#23354B"/>
<path d="M349.3 54.3183C350.018 54.3183 350.6 53.7362 350.6 53.0183C350.6 52.3003 350.018 51.7183 349.3 51.7183C348.582 51.7183 348 52.3003 348 53.0183C348 53.7362 348.582 54.3183 349.3 54.3183Z" fill="white"/>
<path d="M391.9 54.3183C392.618 54.3183 393.2 53.7362 393.2 53.0183C393.2 52.3003 392.618 51.7183 391.9 51.7183C391.182 51.7183 390.6 52.3003 390.6 53.0183C390.6 53.7362 391.182 54.3183 391.9 54.3183Z" fill="white"/>
<path fill-rule="evenodd" clip-rule="evenodd" d="M621 20.3182V19.8182C626.871 23.8175 627.385 34.4055 627.53 37.4122C627.556 37.9391 627.57 38.2331 627.6 38.2182C624.9 38.3182 620.8 31.4182 618.7 25.7182C618.2 24.2182 616.4 23.1182 614.4 23.1182H599.8C597.8 23.1182 596.1 24.2182 595.5 25.7182C593.3 31.3182 589.2 37.4182 586.6 37.3182C586.6 37.3182 586.5 23.6182 593.5 18.9182V19.4182C595.9 16.8182 600.1 13.8182 606.1 13.8182C616.4 13.8182 619.9 17.6182 621 20.3182ZM617.3 69.1182V73.4182C606.9 73.5182 598.2 69.9182 598.2 69.9182C602.698 70.9624 607.647 70.3292 613.152 69.625C614.501 69.4525 615.883 69.2757 617.3 69.1182Z" fill="#7C848B"/>
<path fill-rule="evenodd" clip-rule="evenodd" d="M600.4 37.8182C600 37.7182 599.5 37.6182 599 37.6182C598.761 37.6182 598.5 37.5954 598.227 37.5716C597.927 37.5455 597.614 37.5182 597.3 37.5182C596.2 37.5182 595 37.6182 594.1 38.0182H594C593.7 38.1182 593.3 38.0182 593.1 37.6182C593 37.3182 593.1 37.1182 593.3 36.9182C593.9 36.3182 594.5 36.0182 595.2 35.8182C595.9 35.6182 596.5 35.5182 597.2 35.5182C597.9 35.5182 598.6 35.5182 599.2 35.7182C599.9 35.9182 600.6 36.1182 601.2 36.8182C601.4 37.1182 601.4 37.5182 601.2 37.7182C601 37.9182 600.8 37.9182 600.6 37.8182H600.4ZM614.5 35.7182C613.8 35.9182 613.1 36.1182 612.5 36.8182C612.3 36.9182 612.3 37.2182 612.3 37.5182C612.4 37.8182 612.8 38.0182 613.1 37.9182L613.3 37.8182C613.6 37.7182 614.2 37.6182 614.7 37.6182C615.3 37.5182 615.8 37.5182 616.4 37.5182C617.5 37.5182 618.7 37.6182 619.6 38.0182H619.7C619.9 38.0182 620.2 38.0182 620.4 37.8182C620.7 37.6182 620.7 37.2182 620.4 36.9182C619.8 36.3182 619.2 36.0182 618.5 35.8182C617.9 35.6182 617.2 35.5182 616.5 35.5182C615.9 35.5182 615.2 35.5182 614.5 35.7182ZM605 59.7182C604.2 59.6182 603.5 59.4182 602.9 59.2182C602.5 59.0182 602.2 59.1182 602.1 59.6182C601.9 59.8182 601.9 60.3182 602.2 60.5182C603 61.1182 603.9 61.5182 604.7 61.7182C605.6 61.9182 606.4 62.0182 607.3 62.0182C608.2 62.0182 609 61.9182 609.9 61.7182C610.8 61.4182 611.6 61.1182 612.4 60.4182C612.6 60.2182 612.6 59.9182 612.5 59.6182C612.3 59.3182 611.9 59.1182 611.6 59.3182H611.5C610.9 59.6182 610.2 59.7182 609.5 59.8182C608.8 59.9182 608.1 59.9182 607.3 59.9182C606.5 59.9182 605.7 59.8182 605 59.7182ZM608.2 49.0182C608.1 47.4182 608 45.8182 607.7 44.2182C607.6 44.0182 607.5 43.8182 607.3 43.8182C607 43.7182 606.8 43.9182 606.7 44.2182C606.4 45.8182 606.3 47.4182 606.2 49.0182L606.2 49.0182L606.2 49.0182C606.2 50.6182 606.2 52.2183 606.5 53.8183C606.5 54.1182 606.8 54.3182 607.1 54.4182C607.5 54.5182 607.8 54.2183 607.9 53.8183C608.2 52.2183 608.2 50.6182 608.2 49.0182L608.2 49.0182ZM595.4 48.4182C595.4 49.3182 596.1 50.1182 597.1 50.1182C598 50.1182 598.8 49.3182 598.8 48.4182V45.7182C598.8 44.8182 598.1 44.0182 597.1 44.0182C596.2 44.0182 595.4 44.7182 595.4 45.7182V48.4182ZM616.9 50.1182C615.9 50.1182 615.2 49.3182 615.2 48.4182V45.7182C615.2 44.7182 616 44.0182 616.9 44.0182C617.9 44.0182 618.6 44.8182 618.6 45.7182V48.4182C618.7 49.3182 617.9 50.1182 616.9 50.1182Z" fill="#23354B"/>
<path d="M618.1 68.2182C618.3 69.7182 618.4 71.1182 618.4 72.6182C618.4 74.1182 618.4 75.5182 618.1 77.0182C618 77.4182 617.7 77.6182 617.3 77.5182C617 77.4182 616.8 77.2182 616.8 77.0182C616.5 75.5182 616.5 74.1182 616.5 72.6182C616.5 71.1182 616.6 69.7182 616.8 68.2182C616.9 67.8182 617.2 67.6182 617.6 67.6182C617.9 67.7182 618.1 67.9182 618.1 68.2182Z" fill="#7C848B"/>
<path fill-rule="evenodd" clip-rule="evenodd" d="M627.6 42.0182C627.4 45.3182 627 48.6182 626.3 51.9182C625.6 55.2182 624.7 58.4182 623.3 61.5182C621.8 64.5182 619.7 67.4182 616.7 69.3182C615.2 70.2182 613.6 70.9182 612 71.4182C610.3 71.8182 608.6 72.1182 606.9 72.0182C603.5 71.9182 600.1 71.0182 597.1 69.3182C594.1 67.6182 591.5 65.1182 589.7 62.2182C587.9 59.3182 586.7 56.0182 586.1 52.7182C585.8 51.0182 585.6 49.3182 585.6 47.7182C585.5 46.0182 585.5 44.4182 585.5 42.7182C585.6 39.4182 585.9 36.0182 586.6 32.7182C587.3 29.4182 588.4 26.2182 590 23.2182C591.6 20.2182 593.9 17.5182 596.8 15.6182C598.2 14.6182 599.8 13.9182 601.5 13.4182C603.2 12.9182 604.9 12.6182 606.6 12.6182C610.1 12.6182 613.5 13.7182 616.4 15.5182C619.3 17.3182 621.7 19.8182 623.5 22.7182C625.3 25.6182 626.5 28.8182 627.1 32.1182C627.7 35.3182 627.8 38.6182 627.6 42.0182ZM626.2 41.9182C626.7 35.5182 625.6 28.8182 622.1 23.4182C620.4 20.7182 618.1 18.4182 615.4 16.7182C612.7 15.0182 609.6 14.1182 606.5 14.1182C604.9 14.1182 603.4 14.4182 601.9 14.8182C600.4 15.3182 599 16.0182 597.7 16.9182C595.1 18.7182 593 21.2182 591.5 23.9182C590 26.7182 589 29.8182 588.3 32.9182C587.6 36.1182 587.4 39.3182 587.3 42.5182C587.3 45.7182 587.4 49.0182 588 52.1182C588.5 55.2182 589.6 58.3182 591.2 61.0182C592.8 63.7182 595.1 65.9182 597.9 67.5182C600.6 69.0182 603.8 70.0182 606.9 70.1182C610 70.1182 613.2 69.4182 615.8 67.7182C618.5 66.1182 620.5 63.5182 621.9 60.6182C623.3 57.7182 624.2 54.6182 624.9 51.4182C625.6 48.4182 626 45.1182 626.2 41.9182ZM582.9 47.3182C582.9 46.2182 582.8 45.1182 582.7 44.1182C582.6 43.8182 582.5 43.5182 582.2 43.5182C581.9 43.3182 581.5 43.5182 581.4 43.9182C581.1 45.1182 581 46.2182 581 47.3182C581 48.4182 581.1 49.5182 581.4 50.6182C581.5 50.9182 581.6 51.0182 581.9 51.1182C582.3 51.2182 582.6 51.0182 582.7 50.6182C582.9 49.5182 582.9 48.4182 582.9 47.3182Z" fill="#7C848B"/>
<path fill-rule="evenodd" clip-rule="evenodd" d="M604.902 44.969V44.969V44.969C604.879 44.4196 604.857 43.8804 604.818 43.3425C604.812 43.2677 604.806 43.193 604.8 43.1182C604.8 42.7182 604.5 42.5182 604.5 42.5182C604.1 42.5182 603.8 42.7182 603.8 43.1182L603.784 43.3291L603.778 43.3967V43.3967V43.3967C603.686 44.5905 603.6 45.7043 603.6 46.8182V47.7182C603.6 48.0182 603.6 48.2182 603.5 48.5182C603.4 49.0182 603.2 49.5182 603 50.0182C602.5 50.9182 601.8 51.7182 600.9 52.1182C600.4 52.3182 600 52.4182 599.5 52.4182H595.9C595.4 52.4182 594.9 52.3182 594.5 52.1182C593.6 51.7182 592.9 50.9182 592.4 50.0182C592.1 49.5182 592 49.0182 591.9 48.5182C591.8 48.2182 591.8 48.0182 591.8 47.7182V46.8182C591.751 46.1817 591.726 45.5692 591.702 44.969V44.969L591.702 44.969C591.677 44.3613 591.652 43.7661 591.604 43.1714C591.603 43.1536 591.601 43.1359 591.6 43.1182C591.6 42.8182 591.3 42.5182 591 42.5182C590.6 42.5182 590.3 42.7182 590.3 43.1182C590.299 43.1303 590.298 43.1424 590.297 43.1544C590.25 43.7779 590.226 44.3785 590.202 44.9674C590.176 45.5932 590.151 46.2057 590.1 46.8182V48.7182C590.1 49.4182 590.3 50.1182 590.6 50.7182C591.1 52.0182 592.1 53.2182 593.5 53.8182C594.2 54.1182 594.9 54.3182 595.7 54.3182H599.3C600.1 54.3182 600.8 54.1182 601.5 53.8182C602.8 53.1182 603.8 52.0182 604.4 50.7182C604.7 50.1182 604.8 49.4182 604.9 48.7182V48.7182C605 48.4182 605 48.0182 605 47.7182V47.7182V46.8182C604.951 46.1817 604.926 45.5692 604.902 44.969ZM617.5 59.7182C617.5 59.2182 617.4 58.7182 617.2 58.2182C617.1 58.0182 617 57.9182 616.9 57.8182C616.5 57.7182 616.1 57.8182 615.9 58.2182C615.7 58.7182 615.6 59.2182 615.6 59.7182C615.6 60.2182 615.6 60.7182 615.9 61.2182L616.2 61.5182C616.5 61.7182 617 61.6182 617.2 61.2182C617.5 60.7182 617.5 60.2182 617.5 59.7182ZM624.8 43.6182C624.85 44.2182 624.875 44.8182 624.9 45.4182C624.925 46.0182 624.95 46.6182 625 47.2182C625 47.8182 625 48.5182 624.9 49.2182C624.8 49.9182 624.6 50.5182 624.2 51.2182C623.6 52.4182 622.5 53.5182 621.1 54.1182C620.4 54.4182 619.6 54.5182 619 54.5182H615.3C614.6 54.5182 613.8 54.2182 613.2 53.9182C611.9 53.2182 610.9 52.1182 610.4 50.8182C610.1 50.2182 610 49.5182 609.9 48.8182V46.9182C609.95 46.3182 609.975 45.7182 610 45.1182C610.024 44.5491 610.047 43.98 610.092 43.4108C610.095 43.38 610.097 43.3491 610.1 43.3182C610.1 42.9182 610.4 42.7182 610.8 42.7182C611.1 42.7182 611.4 43.0182 611.4 43.3182C611.403 43.3548 611.406 43.3913 611.409 43.4279C611.453 43.9913 611.476 44.5548 611.5 45.1182L611.5 45.1183C611.525 45.7183 611.55 46.3182 611.6 46.9182V47.8182C611.6 48.1182 611.6 48.3182 611.7 48.6182C611.8 49.1182 611.9 49.6182 612.1 50.1182C612.5 51.0182 613.2 51.8182 614.1 52.2182C614.435 52.3857 614.84 52.4831 615.198 52.5691L615.198 52.5691C615.268 52.5857 615.335 52.602 615.4 52.6182H618.9C619.5 52.6182 619.9 52.6182 620.3 52.4182C621.2 52.1182 621.9 51.4182 622.4 50.5182C622.61 50.2379 622.722 49.9086 622.839 49.5646L622.839 49.5645C622.889 49.4175 622.94 49.2679 623 49.1182C623.052 48.8557 623.077 48.5933 623.104 48.3164L623.104 48.3163C623.128 48.0657 623.152 47.8032 623.2 47.5182C623.25 46.9182 623.275 46.3182 623.3 45.7182C623.325 45.1182 623.35 44.5182 623.4 43.9182C623.4 43.7846 623.433 43.6734 623.493 43.5844C623.611 43.4069 623.834 43.3182 624.1 43.3182C624.494 43.0224 624.791 43.2126 624.8 43.6013C624.8 43.6069 624.8 43.6125 624.8 43.6182Z" fill="#CCCED0"/>
<path d="M587.5 42.4182C590.7 42.3182 593.9 42.3182 597.1 42.3182H606.7C609.9 42.3182 613.1 42.4182 616.3 42.5182C619.5 42.6182 622.7 42.7182 625.9 42.9182C626.2 42.9182 626.5 43.2182 626.5 43.6182C626.5 43.9182 626.2 44.2182 625.9 44.2182C622.7 44.3182 619.5 44.3182 616.3 44.3182C613.1 44.3182 609.9 44.3182 606.7 44.2182C603.5 44.1182 600.3 44.1182 597.1 44.0182L587.5 43.7182C587.2 43.7182 586.9 43.4182 586.9 43.0182C586.9 42.7182 587.2 42.4182 587.5 42.4182Z" fill="#7C848B"/>
<path fill-rule="evenodd" clip-rule="evenodd" d="M606.9 88.9182L608.1 91.9182C608.3 92.2182 608.6 92.4182 608.9 92.4182C609.2 92.3182 609.4 91.9182 609.3 91.6182L608.3 88.5182L607.8 86.9182C607.758 86.8121 607.715 86.697 607.671 86.5767C607.506 86.1301 607.315 85.6121 607 85.2182C606.3 84.1182 605.1 83.3182 604 82.9182C603.5 82.7182 602.975 82.5182 602.45 82.3182C601.925 82.1182 601.4 81.9182 600.9 81.7182L594.7 79.7182L588.4 77.8182C588 77.7182 587.5 77.9182 587.3 78.3182L586.1 81.0182C585.9 81.4682 585.725 81.9182 585.55 82.3682C585.375 82.8182 585.2 83.2682 585 83.7182C584.9 84.0182 585 84.3182 585.3 84.5182C585.6 84.7182 586 84.6182 586.2 84.3182C586.45 83.8682 586.7 83.4432 586.95 83.0182C587.2 82.5932 587.45 82.1682 587.7 81.7182C587.833 81.478 587.967 81.2449 588.098 81.0151C588.321 80.6258 588.539 80.2461 588.741 79.8574L594.2 81.6182L600.4 83.5182L603.5 84.6182C604.4 84.8182 605.2 85.4182 605.7 86.1182C605.9 86.5182 606.1 86.9182 606.3 87.4182L606.9 88.9182ZM610.05 81.9682C609.6 82.1432 609.15 82.3182 608.7 82.5182C608.4 82.6182 608.2 82.9182 608.3 83.2182C608.4 83.6182 608.7 83.8182 609.1 83.7182C609.237 83.6878 609.376 83.6574 609.517 83.6266C610.302 83.4551 611.137 83.2726 611.9 83.0182C612.35 82.8682 612.825 82.7432 613.3 82.6182C613.775 82.4932 614.25 82.3682 614.7 82.2182C616.333 81.7886 617.965 81.2851 619.535 80.7712C619.624 80.9359 619.712 81.102 619.8 81.2682C620.025 81.6932 620.25 82.1182 620.5 82.5182C621 83.4182 621.5 84.2182 622 85.0182C622.2 85.3182 622.5 85.4182 622.8 85.3182C623.2 85.1182 623.3 84.7182 623.2 84.4182C622.9 83.5182 622.5 82.6183 622.1 81.7183L622.1 81.7182C621.7 80.9183 621.3 80.0184 620.9 79.1184L620.9 79.1182C620.7 78.7182 620.3 78.5182 619.8 78.6182C617.9 79.2182 616 79.8182 614.2 80.4182C613.62 80.5922 613.074 80.7997 612.542 81.0019C612.156 81.1485 611.778 81.2922 611.4 81.4182C610.95 81.6182 610.5 81.7932 610.05 81.9682Z" fill="#CCCED0"/>
<path d="M585 86.4182C585 86.4182 595.9 94.9182 605.9 94.9182C615.9 94.9182 624.1 87.0182 624.1 87.0182C624.1 87.0182 647.1 94.6182 654.8 115.818H557.8C557.8 115.818 566.6 96.2182 585 86.4182V86.4182Z" fill="#95ADC1"/>
<path d="M419.3 86.9182L438.7 97.0182L456.8 87.1182C456.8 87.1182 482.3 91.0182 488.2 115.918H392.6C392.6 115.818 392.6 96.3182 419.3 86.9182V86.9182Z" fill="#95ADC1"/>
<path d="M426.1 82.7182C426.7 82.8182 427 83.1182 427.4 83.3182C427.8 83.5182 428.2 83.8182 428.7 83.9182C429.2 84.1182 429.6 84.3182 430.1 84.4182C430.6 84.5182 431.1 84.7182 431.6 84.8182C433.6 85.2182 435.7 85.3182 437.8 85.3182C439.9 85.3182 442 85.1182 444 84.8182C446 84.4182 448 84.0182 449.9 83.2182H450C450.2 83.1182 450.4 83.2182 450.4 83.4182C450.4 83.5182 450.4 83.6182 450.3 83.7182C449.9 84.1182 449.5 84.6182 449.1 84.9182C448.9 85.1182 448.6 85.2182 448.4 85.4182C448.2 85.5182 447.9 85.7182 447.6 85.8182C446.6 86.3182 445.5 86.6182 444.4 86.8182C442.2 87.3182 440 87.5182 437.8 87.5182C435.6 87.5182 433.4 87.3182 431.2 86.8182C430.7 86.7182 430.1 86.5182 429.6 86.4182C429.1 86.3182 428.5 86.0182 428 85.8182C427 85.3182 425.8 84.8182 425.2 83.6182C425 83.3182 425.2 82.9182 425.5 82.7182C425.6 82.6182 425.8 82.6182 425.9 82.6182L426.1 82.7182Z" fill="#95ADC1"/>
<path d="M448.9 74.7182L447.9 68.4182C444.5 71.6182 434.5 72.9182 427.4 69.5182C427.4 69.4182 436.9 75.1182 448.9 74.7182Z" fill="#50575D"/>
<path fill-rule="evenodd" clip-rule="evenodd" d="M443.55 36.5434C443.277 36.6609 442.975 36.7911 442.9 37.3182C442.8 37.5182 442.9 37.7182 443.5 38.0182L444.1 38.4182C444.355 38.5457 444.447 38.5107 444.559 38.4685C444.622 38.4445 444.691 38.4182 444.8 38.4182C444.89 38.4182 444.98 38.398 445.079 38.3758C445.2 38.3485 445.335 38.3182 445.5 38.3182C446 38.2182 446.5 38.2182 447.1 38.2182C447.6 38.2182 448.2 38.2182 448.7 38.3182C448.725 38.3233 448.75 38.3283 448.775 38.3333C449.241 38.4275 449.64 38.5081 450.4 38.3182H450.5C450.7 38.3182 450.9 38.0182 450.8 37.8182C450.5 36.9182 449.8 36.5182 449.1 36.3182C448.4 36.0182 447.7 35.9182 447 35.9182C446.3 35.9182 445.6 36.0182 444.9 36.1182C444.7 36.1682 444.525 36.2182 444.35 36.2682C444.175 36.3182 444 36.3682 443.8 36.4182C443.726 36.4676 443.64 36.5048 443.55 36.5434ZM427.4 50.6182C426.4 50.6182 425.7 49.8182 425.7 48.9182V46.2182C425.7 45.2182 426.5 44.5182 427.4 44.5182C428.4 44.5182 429.1 45.3182 429.1 46.2182V48.8182C429.2 49.8182 428.4 50.6182 427.4 50.6182ZM438.2 46.6182C438.55 46.8282 438.557 47.0382 438.564 47.2482C438.567 47.3382 438.57 47.4282 438.6 47.5182L438.7 48.4182C438.7 48.6182 438.711 48.8182 438.722 49.0182V49.0182C438.744 49.4182 438.767 49.8182 438.7 50.2182C438.7 50.8182 438.7 51.4182 438.6 52.0182C438.6 52.6182 438.5 53.2182 437.9 53.8182C437.7 54.0182 437.4 54.0182 437.2 53.8182C436.6 53.2182 436.5 52.6182 436.5 52.0182C436.5 51.7182 436.475 51.4182 436.45 51.1182L436.45 51.1182L436.45 51.1182C436.425 50.8182 436.4 50.5182 436.4 50.2182V48.4182L436.5 47.5182C436.53 47.4282 436.533 47.3382 436.536 47.2482C436.543 47.0382 436.55 46.8282 436.9 46.6182C437.3 46.3182 437.8 46.3182 438.2 46.6182ZM445.6 48.9182C445.6 49.8182 446.3 50.6182 447.3 50.6182C448.3 50.6182 449.1 49.8182 449 48.8182V46.2182C449 45.3182 448.3 44.5182 447.3 44.5182C446.4 44.5182 445.6 45.2182 445.6 46.2182V48.9182ZM433.2 59.6182C433.574 59.4688 433.78 59.5427 434.027 59.6313C434.111 59.6613 434.199 59.6929 434.3 59.7182C434.6 59.8182 435 59.9182 435.4 59.9182C436.1 60.0182 436.9 60.1182 437.6 60.1182C438.3 60.1182 439.1 60.1182 439.8 60.0182L439.916 60.0015C440.568 59.9077 441.15 59.8238 442 59.9182H442.1C442.3 59.9182 442.5 60.1182 442.5 60.3182V60.4182C442.3 60.9182 441.9 61.3182 441.5 61.6182C441.139 61.8888 440.697 61.9967 440.32 62.0886L440.32 62.0886C440.279 62.0986 440.239 62.1084 440.2 62.1182C439.3 62.3182 438.4 62.4182 437.6 62.4182C436.7 62.4182 435.9 62.3182 435 62.1182C434.935 62.102 434.867 62.0858 434.798 62.0691C434.44 61.9831 434.035 61.8858 433.7 61.7182C433.618 61.6772 433.528 61.6404 433.435 61.6027L433.435 61.6027C433.075 61.4562 432.679 61.2952 432.6 60.8182C432.5 60.4182 432.7 60.0182 433.1 59.8182L433.2 59.6182Z" fill="#204A69"/>
<path fill-rule="evenodd" clip-rule="evenodd" d="M457 52.2182C457.6 49.0182 457.9 45.7182 458 42.4182C458.3 35.8182 456.9 28.9182 453.5 23.2182C451.6 20.4182 449.2 18.0182 446.3 16.2182C443.4 14.4182 440 13.4182 436.6 13.4182C433.2 13.4182 429.8 14.5182 427 16.5182C424.2 18.5182 422 21.2182 420.4 24.2182C417.2 30.2182 416.2 37.0182 416.1 43.6182C416.1 46.9182 416.2 50.3182 416.8 53.6182C417.4 56.9182 418.6 60.2182 420.5 63.0182C422.3 65.8182 425 68.2182 428 69.8182C431 71.4182 434.4 72.3182 437.8 72.3182C441.2 72.2182 444.6 71.3182 447.5 69.4182C450.4 67.5182 452.5 64.7182 454 61.7182C455.5 58.7182 456.4 55.5182 457 52.2182ZM452 24.1182C455.5 29.4182 456.8 36.0182 456.6 42.4182C456.5 45.6182 456.1 48.8182 455.6 52.0182C454.9 55.2182 454 58.3182 452.6 61.1182C451.1 63.9182 449.1 66.4182 446.5 68.1182C443.9 69.8182 440.7 70.6182 437.6 70.6182C431.3 70.5182 425.1 67.3182 421.8 62.0182C420.1 59.4182 419 56.4182 418.4 53.3182C417.8 50.2182 417.7 46.9182 417.7 43.7182C417.8 37.3182 418.7 30.8182 421.6 25.1182C423.1 22.4182 425.1 19.8182 427.6 18.0182C430.1 16.2182 433.2 15.1182 436.3 15.1182C439.4 15.1182 442.5 16.0182 445.2 17.6182C447.9 19.2182 450.2 21.5182 452 24.1182Z" fill="#50575D"/>
<path d="M430.8 38.3182C430.4 38.6182 430.4 38.4182 430.1 38.3182C429.9 38.2182 429.6 38.2182 429.4 38.2182C428.9 38.1182 428.3 38.1182 427.8 38.1182C427.2 38.1182 426.7 38.1182 426.2 38.2182C425.7 38.3182 425.2 38.4182 424.5 38.2182H424.4C424.2 38.1182 424 37.9182 424.1 37.7182C424.3 36.8182 425.1 36.4182 425.8 36.2182C426.5 36.0182 427.2 35.9182 427.9 35.8182C428.6 35.8182 429.3 35.8182 430 36.0182C430.3 36.1182 430.7 36.2182 431.1 36.3182C431.4 36.5182 432 36.5182 432 37.2182C432 37.4182 431.9 37.7182 431.7 37.8182L430.8 38.3182Z" fill="#204A69"/>
<path d="M445.8 16.4182C442.9 15.4182 439 14.5182 434.1 14.4182C421 14.2182 415.7 34.8182 416.6 46.2182L413.6 79.8182H427.7L428.9 69.4182C428.9 69.4182 418.3 66.2182 416.9 48.4182C427.4 44.4182 431.2 33.1182 431.2 33.1182C431.2 33.1182 446.1 34.9182 450.6 25.6182C451.2 26.6182 451.8 27.6182 452.4 28.7182C456.4 36.0182 456.4 45.9182 456.3 47.7182C456.7 47.0182 457 46.3182 457.3 45.6182C455.1 62.9182 445.7 70.4182 445.7 70.4182L447.4 79.8182L459.1 79.9182L457.7 45.1182C469.8 18.9182 454.3 17.6182 445.8 16.4182Z" fill="#50575D"/>
<path d="M439.6 94.4182C439.8 96.2182 439.8 98.0182 439.9 99.8182C439.9 101.618 440 103.418 439.9 105.218C439.9 107.018 439.9 108.818 439.8 110.618C439.8 112.418 439.7 114.218 439.6 116.018C439.6 116.418 439.3 116.618 438.9 116.618C438.6 116.618 438.3 116.318 438.3 116.018C438.2 114.218 438.1 112.418 438.1 110.618C438 108.818 438 107.018 438 105.218V99.8182C438.1 98.0182 438.1 96.2182 438.3 94.4182C438.3 94.0182 438.7 93.8182 439 93.8182C439.3 93.8182 439.6 94.1182 439.6 94.4182Z" fill="white"/>
</svg>
