<svg xmlns="http://www.w3.org/2000/svg" fill="none">
    <defs>
        <filter id="shadow" x="-14.101" y="0.899" width="484.066" height="381.202"
            filterUnits="userSpaceOnUse" color-interpolation-filters="sRGB">
            <feFlood flood-opacity="0" result="BackgroundImageFix" />
            <feColorMatrix in="SourceAlpha" values="0 0 0 0 0 0 0 0 0 0 0 0 0 0 0 0 0 0 127 0" result="hardAlpha" />
            <feOffset />
            <feGaussianBlur stdDeviation="27.05" />
            <feColorMatrix values="0 0 0 0 0 0 0 0 0 0 0 0 0 0 0 0 0 0 0.08 0" />
            <feBlend in2="BackgroundImageFix" result="effect1_dropShadow_3568_12212" />
            <feBlend in="SourceGraphic" in2="effect1_dropShadow_3568_12212" result="shape" />
        </filter>
        <symbol id="stats" width="456" height="383" viewBox="0 0 456 383" fill="none">
            <g filter="url(#shadow)" >
                <rect  width="375.864" height="273" x="40" y="55" fill="#fff" rx="12.27" />
            </g>
            <g>
                <rect width="375.864" height="273" x="40" y="55" fill="#fff" rx="12.27" />
                <path
                    fill="#101517"
                    fill-rule="evenodd"
                    d="M91.053 101.218a2.687 2.687 0 1 0 0-5.374 2.687 2.687 0 0 0 0 5.374Zm0-1.612a1.075 1.075 0 1 0
    0-2.15 1.075 1.075 0 0 0 0 2.15Z"
                    clip-rule="evenodd"
                />
                <path
                    fill="#101517"
                    d="M88.635 107.667v-2.15a2.956 2.956 0 0 0-2.956-2.956h-4.3a2.956 2.956 0 0 0-2.955
    2.956v2.15h1.612v-2.15c0-.742.602-1.344 1.343-1.344h4.3c.742 0 1.343.602 1.343
    1.344v2.15h1.612ZM96.158
    105.517v2.15h-1.612v-2.15c0-.742-.602-1.344-1.344-1.344h-2.687v-1.612h2.687a2.956 2.956 0 0 1 2.956
    2.956Z"
                />
                <path
                    fill="#101517"
                    fill-rule="evenodd"
                    d="M86.216 98.53a2.687 2.687 0 1 1-5.374.001 2.687 2.687 0 0 1 5.374 0Zm-1.612 0a1.075 1.075 0 1
    1-2.15 0 1.075 1.075 0 0 1 2.15 0Z"
                    clip-rule="evenodd"
                />
                <g clip-path="url(#b)">
                    <rect
                        width="109.63"
                        height="24.721"
                        fill="#069E08"
                        rx="4.299"
                        transform="matrix(0 -1 -1 0 233.464 293.605)"
                    />
                </g>
                <g clip-path="url(#c)">
                    <rect
                        width="152.622"
                        height="25.795"
                        fill="#069E08"
                        rx="4.299"
                        transform="matrix(0 -1 -1 0 200.146 293.605)"
                    />
                </g>
                <g clip-path="url(#d)">
                    <rect
                        width="96.732"
                        height="24.721"
                        fill="#069E08"
                        rx="4.299"
                        transform="matrix(0 -1 -1 0 165.752 293.605)"
                    />
                </g>
                <g clip-path="url(#e)">
                    <rect
                        width="119.303"
                        height="24.721"
                        fill="#069E08"
                        rx="4.299"
                        transform="matrix(0 -1 -1 0 132.433 293.605)"
                    />
                </g>
                <g clip-path="url(#f)">
                    <rect
                        width="85.984"
                        height="24.721"
                        fill="#069E08"
                        rx="4.299"
                        transform="matrix(0 -1 -1 0 99.114 293.605)"
                    />
                </g>
                <path
                    fill="#E9EFF5"
                    d="M267.858 205.111c0-5.976 4.844-10.82 10.82-10.82h91.972c5.976 0 10.82 4.844 10.82 10.82s-4.844
    10.82-10.82 10.82h-91.972c-5.976 0-10.82-4.844-10.82-10.82ZM267.858 243.947c0-5.976 4.844-10.82
    10.82-10.82h91.972c5.976 0 10.82 4.844 10.82 10.82s-4.844 10.82-10.82 10.82h-91.972c-5.976
    0-10.82-4.844-10.82-10.82ZM267.858 282.785c0-5.976 4.844-10.82 10.82-10.82h52.749c5.975 0 10.82
    4.844 10.82 10.82s-4.845 10.82-10.82 10.82h-52.749c-5.976 0-10.82-4.844-10.82-10.82Z"
                />
                <path
                    fill="#101517"
                    fill-rule="evenodd"
                    d="m361.716 99.818.473-.473h6.246v-5.508h-7.523v6.787l.804-.806Zm7.257 1.139h-6.116l-2.104
    2.107a.852.852 0 0 1-1.454-.602v-9.163c0-.593.482-1.074 1.075-1.074h8.599c.593 0 1.074.48 1.074
    1.074v6.584c0 .593-.481 1.074-1.074 1.074Zm5.106
    8.534-.472-.473h-6.247v-5.508h7.524v6.787l-.805-.806Zm-7.256 1.14h6.116l2.103 2.106a.85.85 0 0 0
    1.454-.602v-9.162c0-.594-.481-1.075-1.075-1.075h-8.598c-.594 0-1.075.481-1.075 1.075v6.583c0
    .593.481 1.075 1.075 1.075Z"
                    clip-rule="evenodd"
                    opacity="0.5"
                />
            </g>
            <defs>
                <clipPath id="b">
                    <rect
                        width="109.63"
                        height="24.721"
                        fill="#fff"
                        rx="4.299"
                        transform="matrix(0 -1 -1 0 233.464 293.605)"
                    />
                </clipPath>
                <clipPath id="c">
                    <rect
                        width="152.622"
                        height="25.795"
                        fill="#fff"
                        rx="4.299"
                        transform="matrix(0 -1 -1 0 200.146 293.605)"
                    />
                </clipPath>
                <clipPath id="d">
                    <rect
                        width="96.732"
                        height="24.721"
                        fill="#fff"
                        rx="4.299"
                        transform="matrix(0 -1 -1 0 165.752 293.605)"
                    />
                </clipPath>
                <clipPath id="e">
                    <rect
                        width="119.303"
                        height="24.721"
                        fill="#fff"
                        rx="4.299"
                        transform="matrix(0 -1 -1 0 132.433 293.605)"
                    />
                </clipPath>
                <clipPath id="f">
                    <rect
                        width="85.984"
                        height="24.721"
                        fill="#fff"
                        rx="4.299"
                        transform="matrix(0 -1 -1 0 99.114 293.605)"
                    />
                </clipPath>
            </defs>
        </symbol>
        <symbol id="free-diff" fill="none">
            <g id="stats-svg-free">
                <!-- <path
                fill="#758391"
                d="m321.328 165.094-.953-2.914h-4.148l-.969 2.914h-2.039l4-11.274h2.265l4.008
11.274h-2.164Zm-3.086-9.156-1.547 4.687h3.211l-1.531-4.687h-.133Zm7.028-2.118h4.226c3.352 0 5.305
2.047 5.305 5.586 0 3.617-1.93 5.688-5.305 5.688h-4.226V153.82Zm2.015 1.696v7.882h1.946c2.242 0
3.515-1.421 3.515-3.96 0-2.485-1.304-3.922-3.515-3.922h-1.946Z"
            /> -->
                <!-- <rect
                width="111.612"
                height="34"
                x="268.858"
                y="142.094"
                stroke="#E9EFF5"
                stroke-width="2"
                rx="3"
            /> -->
                <circle cx="368" cy="101" r="18.25" stroke="#D63638" stroke-width="1.5" />
                <path stroke="#D63638" stroke-width="1.5" d="m381.45 88.61-25.84 25.84" />
            </g>
        </symbol>
    </defs>
</svg>