<svg width="24" height="24" viewBox="0 0 24 24" fill="none" xmlns="http://www.w3.org/2000/svg">
<path d="M17.2206 19.595L17.0009 19.375L16.69 19.375L11 19.375C10.8619 19.375 10.75 19.2631 10.75 19.125L10.75 13C10.75 12.8619 10.8619 12.75 11 12.75L19 12.75C19.1381 12.75 19.25 12.8619 19.25 13L19.25 21.5247C19.25 21.5403 19.2414 21.5546 19.2277 21.5619C19.2113 21.5706 19.1912 21.5676 19.1781 21.5545L17.2206 19.595Z" stroke="white" stroke-width="1.5"/>
<path d="M6.77939 10.595L6.99911 10.375L7.31 10.375L13 10.375C13.1381 10.375 13.25 10.2631 13.25 10.125L13.25 4C13.25 3.86193 13.1381 3.75 13 3.75L5 3.75C4.86193 3.75 4.75 3.86193 4.75 4L4.75 12.5247C4.75 12.5403 4.75857 12.5546 4.7723 12.5619C4.78866 12.5706 4.8088 12.5676 4.82191 12.5545L6.77939 10.595Z" stroke="white" stroke-width="1.5"/>
</svg>
