<svg width="24" height="24" viewBox="0 0 24 24" fill="none" xmlns="http://www.w3.org/2000/svg">
<path d="M15.03 13.97L12.75 11.69V8.49997C12.75 8.30106 12.671 8.11029 12.5303 7.96964C12.3897 7.82899 12.1989 7.74997 12 7.74997C11.8011 7.74997 11.6103 7.82899 11.4697 7.96964C11.329 8.11029 11.25 8.30106 11.25 8.49997V12C11.2498 12.0981 11.2689 12.1954 11.3063 12.2862C11.3438 12.3769 11.3987 12.4594 11.468 12.529L12.75 11.69L11.47 12.531L13.97 15.031C14.0392 15.1026 14.122 15.1597 14.2135 15.1989C14.305 15.2382 14.4035 15.2588 14.5031 15.2597C14.6026 15.2605 14.7014 15.2414 14.7935 15.2037C14.8857 15.1659 14.9694 15.1102 15.0398 15.0398C15.1102 14.9693 15.1658 14.8855 15.2035 14.7934C15.2412 14.7012 15.2601 14.6024 15.2592 14.5028C15.2583 14.4032 15.2375 14.3048 15.1982 14.2133C15.1588 14.1219 15.1017 14.0391 15.03 13.97Z" fill="#787C82"/>
<circle cx="12" cy="12" r="7.25" stroke="#787C82" stroke-width="1.5"/>
</svg>
