<svg width="151" height="151" fill="none" xmlns="http://www.w3.org/2000/svg"><path d="M75.73.412c-41.25 0-75 33.75-75 75s33.75 75 75 75 75-33.75 75-75-33.75-75-75-75z" fill="#069E08"/><path d="M75.73 12.566c34.566 0 62.847 28.28 62.847 62.846 0 34.566-28.281 62.847-62.846 62.847-34.566 0-62.847-28.281-62.847-62.847 0-34.565 28.281-62.846 62.847-62.846zm0-8.978c-39.503 0-71.824 32.32-71.824 71.824s32.321 71.825 71.825 71.825c39.503 0 71.824-32.321 71.824-71.825 0-39.503-32.321-71.824-71.824-71.824z" fill="#069E08"/><path d="M105.647 72.384L77.845 66.12l7.997-35.336L45.814 78.44l27.802 6.265-7.997 35.336 40.028-47.658z" fill="#fff"/></svg>