<svg
	width="354"
	height="222"
	viewBox="0 0 354 222"
	fill="none"
	xmlns="http://www.w3.org/2000/svg"
>
	<path
		d="M349.91 20.7676L350.687 199.726C350.741 211.239 341.399 220.62 329.841 220.673L21.805 222C10.2475 222.053 0.831087 212.746 0.777826 201.232L0.000226611 22.2745C-0.0530337 10.7607 9.28882 1.37982 20.8463 1.32676L328.883 0.000281943C333.016 -0.0209417 336.893 1.15697 340.142 3.22628C346 6.89797 349.878 13.3712 349.91 20.7676Z"
		fill="url(#paint0_linear_3906_5033)"
	/>
	<path
		d="M265.289 0.637695C230.478 30.0006 226.238 66.8237 186.453 137.732C166.821 172.709 147.296 200.405 131.36 221.884L103.771 222C94.8451 222.043 87.1969 216.493 84.1504 208.661C89.519 203.281 94.6746 197.805 99.3402 192.5C166.459 116.179 143.898 65.3274 206.159 5.55097C207.831 3.93798 209.514 2.37804 211.197 0.871157L265.289 0.637695Z"
		fill="url(#paint1_linear_3906_5033)"
	/>
	<path
		d="M353.223 20.7678L353.425 67.0141C338.352 87.686 310.029 120.88 268.485 140.14C227.39 159.199 205.287 149.829 173.501 177.844C164.702 185.591 148.458 200.331 144.815 221.48L116.268 221.607C128.411 202.846 138.2 181.282 162.466 153.034C208.216 99.7941 233.653 106.384 263.426 54.6938C265.876 50.4384 281.311 23.2297 285.912 0.212652L332.195 0.0110241C336.328 -0.0101995 340.206 1.16771 343.455 3.23702C349.313 6.8981 353.191 13.3713 353.223 20.7678Z"
		fill="url(#paint2_linear_3906_5033)"
	/>
	<path
		d="M291.791 0.202148C287.179 23.2298 271.744 50.4386 269.294 54.6939C239.522 106.384 214.085 99.7942 168.334 153.034C144.058 181.282 134.279 202.846 122.136 221.607L58.5859 221.883C74.5108 200.405 94.0466 172.697 113.678 137.731C153.464 66.8232 157.693 30.0108 192.514 0.637233L291.791 0.202148Z"
		fill="url(#paint3_linear_3906_5033)"
	/>
	<path
		d="M353.754 143.387L353.999 199.714C354.052 211.228 344.711 220.609 333.153 220.662L224.172 221.129C241.247 202.282 263.542 181.876 295.115 166.436C318.847 154.837 336.988 151.356 353.754 143.387Z"
		fill="url(#paint4_linear_3906_5033)"
	/>
	<path
		d="M353.425 67.0137L353.755 143.387C336.989 151.356 318.849 154.837 295.116 166.436C263.554 181.876 241.248 202.283 224.173 221.129L144.805 221.469C148.437 200.319 164.692 185.58 173.491 177.833C205.287 149.818 227.379 159.188 268.475 140.129C310.029 120.879 338.353 87.6855 353.425 67.0137Z"
		fill="url(#paint5_linear_3906_5033)"
	/>
	<defs>
		<linearGradient
			id="paint0_linear_3906_5033"
			x1="39.2161"
			y1="247.792"
			x2="310.432"
			y2="-26.8201"
			gradientUnits="userSpaceOnUse"
		>
			<stop stop-color="#1B16FF" />
			<stop offset="1" />
		</linearGradient>
		<linearGradient
			id="paint1_linear_3906_5033"
			x1="83.7293"
			y1="111.749"
			x2="265.765"
			y2="110.957"
			gradientUnits="userSpaceOnUse"
		>
			<stop stop-color="#35C4FE" />
			<stop offset="1" stop-color="#FCEE21" />
		</linearGradient>
		<linearGradient
			id="paint2_linear_3906_5033"
			x1="115.779"
			y1="111.27"
			x2="353.61"
			y2="110.237"
			gradientUnits="userSpaceOnUse"
		>
			<stop stop-color="#1B16FF" />
			<stop offset="1" />
		</linearGradient>
		<linearGradient
			id="paint3_linear_3906_5033"
			x1="58.0988"
			y1="111.545"
			x2="292.265"
			y2="110.527"
			gradientUnits="userSpaceOnUse"
		>
			<stop stop-color="#1B16FF" />
			<stop offset="1" />
		</linearGradient>
		<linearGradient
			id="paint4_linear_3906_5033"
			x1="224.001"
			y1="182.543"
			x2="353.921"
			y2="181.978"
			gradientUnits="userSpaceOnUse"
		>
			<stop stop-color="#1B16FF" />
			<stop offset="1" />
		</linearGradient>
		<linearGradient
			id="paint5_linear_3906_5033"
			x1="144.47"
			y1="144.697"
			x2="353.756"
			y2="143.787"
			gradientUnits="userSpaceOnUse"
		>
			<stop stop-color="#1B16FF" />
			<stop offset="1" />
		</linearGradient>
	</defs>
</svg>
