<svg
	width="350"
	height="222"
	viewBox="0 0 350 222"
	fill="none"
	xmlns="http://www.w3.org/2000/svg"
>
	<path
		d="M349.92 20.939V200.569C349.92 212.127 340.539 221.508 328.981 221.508H20.939C9.3811 221.508 0 212.127 0 200.569V20.939C0 9.3811 9.3811 0 20.939 0H328.991C333.127 0 336.994 1.20244 340.228 3.28597C346.054 6.98658 349.92 13.5171 349.92 20.939Z"
		fill="url(#paint0_linear_3906_5461)"
	/>
	<path
		d="M349.92 20.939V157.333C317.009 169.813 279.909 165.605 270.901 149.756C264.298 138.135 277.764 129.076 274.022 107.639C272.239 97.4805 267.564 90.0585 260.898 83.0512C251.973 73.6287 239.462 64.9732 225.665 51.4768C216.792 42.8006 195.044 21.5299 183.186 0H328.981C333.117 0 336.984 1.20244 340.228 3.29634C346.064 6.98659 349.92 13.5067 349.92 20.939Z"
		fill="url(#paint1_linear_3906_5461)"
	/>
	<path
		d="M349.919 68.2177V200.569C349.919 212.127 340.549 221.498 328.991 221.498H20.9384C9.3805 221.498 0.00976562 212.127 0.00976562 200.569V98.9421C6.04269 92.9714 13.1018 87.3842 21.322 82.6781C46.3866 68.3006 70.6116 69.2647 118.035 71.7628C175.172 74.7689 179.194 84.5543 219.424 85.7982C235.978 86.3165 249.454 85.0933 260.898 83.0513C299.469 76.075 314.748 59.4793 345.773 67.0775C347.152 67.4196 348.53 67.7927 349.919 68.2177Z"
		fill="url(#paint2_linear_3906_5461)"
	/>
	<path
		d="M107.795 0C102.093 55.6543 56.4524 99.4811 0 102.352V20.939C0 9.3811 9.3811 0 20.939 0H107.795Z"
		fill="url(#paint3_linear_3906_5461)"
	/>
	<path
		opacity="0.33"
		d="M259.747 221.498H112.562L176.147 157.913C181.651 152.419 190.648 152.419 196.153 157.913L259.747 221.498Z"
		fill="url(#paint4_linear_3906_5461)"
	/>
	<path
		opacity="0.27"
		d="M349.92 198.112V200.559C349.92 212.117 340.539 221.498 328.981 221.498H20.939C9.3811 221.498 0 212.117 0 200.559V118.192C5.80488 115.102 12.5116 112.749 20.0268 111.92C37.4415 110.023 51.1037 117.279 67.15 126.059C97.9262 142.904 102.767 156.224 120.171 167.295C153.653 188.596 181.164 168.238 237.99 169.648C280.801 170.726 326.265 183.787 349.92 198.112Z"
		fill="url(#paint5_linear_3906_5461)"
	/>
	<path
		opacity="0.53"
		d="M349.92 20.939V200.569C349.92 212.127 340.539 221.508 328.981 221.508H20.939C9.3811 221.508 0 212.127 0 200.569V20.939C0 9.3811 9.3811 0 20.939 0H328.991C333.127 0 336.994 1.20244 340.228 3.28597C346.054 6.98658 349.92 13.5171 349.92 20.939Z"
		fill="url(#paint6_linear_3906_5461)"
	/>
	<defs>
		<linearGradient
			id="paint0_linear_3906_5461"
			x1="38.242"
			y1="247.473"
			x2="311.681"
			y2="-25.9669"
			gradientUnits="userSpaceOnUse"
		>
			<stop stop-color="#1B1464" />
			<stop offset="1" stop-color="#83EFFF" />
		</linearGradient>
		<linearGradient
			id="paint1_linear_3906_5461"
			x1="232.73"
			y1="112.485"
			x2="341.432"
			y2="3.78344"
			gradientUnits="userSpaceOnUse"
		>
			<stop stop-color="#83EFFF" />
			<stop offset="1" stop-color="#1B1464" />
		</linearGradient>
		<linearGradient
			id="paint2_linear_3906_5461"
			x1="59.9127"
			y1="269.14"
			x2="305.376"
			y2="23.6763"
			gradientUnits="userSpaceOnUse"
		>
			<stop stop-color="#1B1464" />
			<stop offset="1" stop-color="#83EFFF" />
		</linearGradient>
		<linearGradient
			id="paint3_linear_3906_5461"
			x1="-12.1185"
			y1="90.2302"
			x2="92.9518"
			y2="-14.8401"
			gradientUnits="userSpaceOnUse"
		>
			<stop stop-color="#1B1464" />
			<stop offset="1" stop-color="#83EFFF" />
		</linearGradient>
		<linearGradient
			id="paint4_linear_3906_5461"
			x1="149.36"
			y1="258.296"
			x2="222.95"
			y2="184.706"
			gradientUnits="userSpaceOnUse"
		>
			<stop stop-color="#02B6FD" />
			<stop offset="1" stop-color="#83EFFF" />
		</linearGradient>
		<linearGradient
			id="paint5_linear_3906_5461"
			x1="64.7239"
			y1="273.954"
			x2="245.244"
			y2="93.4347"
			gradientUnits="userSpaceOnUse"
		>
			<stop stop-color="#1B1464" />
			<stop offset="1" stop-color="#83EFFF" />
		</linearGradient>
		<linearGradient
			id="paint6_linear_3906_5461"
			x1="38.242"
			y1="247.473"
			x2="311.681"
			y2="-25.9669"
			gradientUnits="userSpaceOnUse"
		>
			<stop stop-color="#02CAFD" />
			<stop offset="1" stop-color="#069E08" />
		</linearGradient>
	</defs>
</svg>
