<?xml version="1.0" encoding="utf-8"?>
<svg viewBox="0 0 43 46" fill="none" xmlns="http://www.w3.org/2000/svg">
  <mask id="path-1-inside-1_4392_12654" fill="white">
    <path fill-rule="evenodd" clip-rule="evenodd" d="M 32.814 28.032 C 32.814 26.54 33.411 25.129 34.234 23.884 C 35.828 21.474 36.756 18.584 36.756 15.477 C 36.756 7.048 29.923 0.215 21.493 0.215 C 13.064 0.215 6.231 7.048 6.231 15.477 C 6.231 19.066 7.469 22.365 9.542 24.971 C 10.435 26.093 11.064 27.434 11.064 28.867 C 11.064 31.728 13.384 34.048 16.245 34.048 L 26.798 34.048 C 30.121 34.048 32.814 31.354 32.814 28.032 Z"/>
  </mask>
  <path d="M 9.543 24.971 L 6.706 27.228 L 9.543 24.971 Z M 34.234 23.885 L 31.21 21.885 L 34.234 23.885 Z M 33.131 15.478 C 33.131 17.851 32.424 20.049 31.21 21.885 L 37.258 25.884 C 39.232 22.898 40.381 19.317 40.381 15.478 L 33.131 15.478 Z M 21.494 3.84 C 27.921 3.84 33.131 9.05 33.131 15.478 L 40.381 15.478 C 40.381 5.046 31.925 -3.41 21.494 -3.41 L 21.494 3.84 Z M 9.856 15.478 C 9.856 9.05 15.066 3.84 21.494 3.84 L 21.494 -3.41 C 11.062 -3.41 2.606 5.046 2.606 15.478 L 9.856 15.478 Z M 12.379 22.715 C 10.798 20.727 9.856 18.217 9.856 15.478 L 2.606 15.478 C 2.606 19.915 4.141 24.004 6.706 27.228 L 12.379 22.715 Z M 26.798 30.423 L 16.245 30.423 L 16.245 37.673 L 26.798 37.673 L 26.798 30.423 Z M 7.44 28.868 C 7.44 33.731 11.382 37.673 16.245 37.673 L 16.245 30.423 C 15.386 30.423 14.69 29.727 14.69 28.868 L 7.44 28.868 Z M 6.706 27.228 C 7.272 27.94 7.44 28.508 7.44 28.868 L 14.69 28.868 C 14.69 26.361 13.597 24.246 12.379 22.715 L 6.706 27.228 Z M 26.798 37.673 C 32.123 37.673 36.44 33.357 36.44 28.032 L 29.19 28.032 C 29.19 29.353 28.119 30.423 26.798 30.423 L 26.798 37.673 Z M 31.21 21.885 C 30.165 23.466 29.19 25.574 29.19 28.032 L 36.44 28.032 C 36.44 27.507 36.657 26.792 37.258 25.884 L 31.21 21.885 Z" fill="black" mask="url(#path-1-inside-1_4392_12654)" transform="matrix(1, 0, 0, 1, 0, 1.7763568394002505e-15)"/>
  <line x1="13.481" y1="38.069" x2="30.398" y2="38.069" stroke="black" stroke-width="3.625" transform="matrix(1, 0, 0, 1, 0, 1.7763568394002505e-15)"/>
  <line x1="18.315" y1="43.903" x2="25.565" y2="43.903" stroke="black" stroke-width="3.625" transform="matrix(1, 0, 0, 1, 0, 1.7763568394002505e-15)"/>
</svg>