<svg width="28" height="28" viewBox="0 0 28 28" fill="none" xmlns="http://www.w3.org/2000/svg">
<path fill-rule="evenodd" clip-rule="evenodd" d="M9.23472 25.25L19.2817 3.27214L18.1396 2.75L16.5552 6.21581C15.6955 5.77364 14.7204 5.52405 13.6871 5.52405C12.3541 5.52405 11.118 5.93946 10.1014 6.64788L7.64629 4.19282L6.31423 5.52488L8.73341 7.94406C8.02368 8.85373 7.55904 9.96397 7.43876 11.1755H4.896V13.0593H7.40775V14.9431H4.896V16.827H7.53336C7.84843 18.3791 8.73597 19.7233 9.96601 20.6296L8.09253 24.7279L9.23472 25.25ZM10.7738 18.8626C9.86466 18.0573 9.29157 16.8811 9.29157 15.5711V11.8034C9.29157 9.37583 11.2595 7.40787 13.6871 7.40787C14.441 7.40787 15.1506 7.59765 15.7706 7.93205L10.7738 18.8626ZM17.9013 10.5495L18.9172 8.32706C19.4709 9.15835 19.8316 10.1291 19.9355 11.1755H22.4783V13.0593H19.9665V14.9431H22.4783V16.827H19.8409C19.2591 19.6932 16.7251 21.8505 13.6871 21.8505C13.3741 21.8505 13.0665 21.8276 12.7658 21.7833L13.5967 19.9657C13.6268 19.9663 13.6569 19.9666 13.6871 19.9666C16.1147 19.9666 18.0827 17.9987 18.0827 15.5711V11.8034C18.0827 11.3678 18.0193 10.9469 17.9013 10.5495Z" fill="#1E1E1E"/>
</svg>
