<svg width="22" height="17" viewBox="0 0 22 17" fill="none" xmlns="http://www.w3.org/2000/svg">
<g style="mix-blend-mode:screen">
<path fill-rule="evenodd" clip-rule="evenodd" d="M14.9416 0.761963V14.7873L6.67661 12.3662V16.762H5.12692V11.9123L2.31168 11.0876C1.22265 10.7686 0.477905 9.79822 0.477905 8.69821V6.85106C0.477905 5.75105 1.22265 4.78065 2.31168 4.46164L14.9416 0.761963ZM13.3919 12.7681L6.67661 10.8009L6.67661 4.74833L13.3919 2.78121V12.7681ZM5.12692 5.20228L5.12692 10.347L2.7611 9.65398C2.32549 9.52638 2.02759 9.13822 2.02759 8.69821V6.85106C2.02759 6.41106 2.32549 6.0229 2.7611 5.89529L5.12692 5.20228ZM17.0081 8.52456H21.1405V7.02654H17.0081V8.52456ZM21.1403 12.768L17.0078 11.7694V10.2713L21.1403 11.27V12.768ZM17.0081 5.27836L21.1405 4.27968V2.78165L17.0081 3.78034V5.27836Z" fill="white"/>
</g>
</svg>
