<svg width="22" height="17" viewBox="0 0 22 17" fill="none" xmlns="http://www.w3.org/2000/svg">
<g clip-path="url(#clip0_4981_5866)">
<path d="M12.3586 1.2895L17.3706 14.4598C17.8028 15.5867 18.4669 15.9952 19.6025 16.0906C19.644 16.0925 19.6846 16.1029 19.722 16.1211C19.7593 16.1393 19.7925 16.165 19.8195 16.1965C19.8465 16.2281 19.8667 16.2648 19.879 16.3045C19.8912 16.3441 19.8952 16.3859 19.8907 16.4271C19.8923 16.4697 19.8855 16.5122 19.8707 16.5522C19.8558 16.5922 19.8331 16.6288 19.804 16.6599C19.7748 16.6911 19.7398 16.7161 19.7009 16.7337C19.662 16.7512 19.6201 16.7609 19.5774 16.7621H14.0877C14.0433 16.7631 13.9992 16.7552 13.9579 16.7388C13.9167 16.7223 13.8792 16.6977 13.8478 16.6664C13.8163 16.6351 13.7915 16.5978 13.7749 16.5567C13.7582 16.5155 13.7501 16.4715 13.751 16.4271C13.7477 16.3841 13.7534 16.3409 13.7677 16.3001C13.782 16.2594 13.8046 16.2221 13.834 16.1905C13.8634 16.1589 13.899 16.1337 13.9386 16.1165C13.9783 16.0993 14.021 16.0905 14.0642 16.0906C14.6155 16.0906 15.2405 15.9466 15.2405 15.2752C15.2356 14.9952 15.1782 14.7187 15.0713 14.4598L13.8684 11.2686C13.8199 11.1246 13.7964 11.0761 13.6523 11.0761H9.071C8.35053 11.0761 7.46247 11.0761 7.05368 11.9885L5.9573 14.4598C5.8458 14.684 5.7803 14.9283 5.76465 15.1782C5.76465 16.0421 6.89392 16.0906 7.48753 16.0906C7.53072 16.0905 7.57347 16.0993 7.61309 16.1165C7.65271 16.1337 7.68835 16.1589 7.71777 16.1905C7.74718 16.2221 7.76974 16.2594 7.78403 16.3001C7.79831 16.3409 7.80402 16.3841 7.80078 16.4271C7.80165 16.4715 7.79347 16.5157 7.77671 16.5568C7.75996 16.598 7.73499 16.6353 7.70334 16.6665C7.67168 16.6977 7.634 16.7221 7.59259 16.7383C7.55117 16.7544 7.5069 16.762 7.46247 16.7605H2.59143C2.54712 16.7616 2.50306 16.7536 2.46191 16.7372C2.42075 16.7207 2.38338 16.6961 2.35204 16.6648C2.32069 16.6335 2.29604 16.5961 2.27958 16.555C2.26312 16.5139 2.25518 16.4698 2.25625 16.4256C2.25301 16.3825 2.25872 16.3393 2.273 16.2986C2.28729 16.2578 2.30985 16.2205 2.33926 16.1889C2.36868 16.1573 2.40432 16.1321 2.44394 16.1149C2.48356 16.0978 2.52631 16.0889 2.5695 16.0891C3.74576 16.0171 4.13575 15.463 4.58527 14.4582L10.371 1.7919C10.6357 1.23942 11.2121 0.760498 11.7399 0.760498C12.1189 0.762063 12.2395 0.978047 12.3586 1.2895ZM7.97306 9.8772C7.94406 9.91988 7.92727 9.96967 7.92451 10.0212C7.92451 10.0697 7.97306 10.0932 8.06861 10.0932H12.8222C13.1574 10.0932 13.3014 10.0212 13.3014 9.8052C13.301 9.69681 13.2764 9.58987 13.2294 9.49218L11.909 5.94097C11.5958 5.12556 11.1416 4.0472 10.9975 3.15823C10.9975 3.11128 10.9724 3.08623 10.9489 3.08623C10.9254 3.08623 10.9019 3.11128 10.9019 3.15823C10.7217 3.76945 10.4885 4.36383 10.205 4.93462L7.97306 9.8772Z" fill="white"/>
<path d="M12.3586 1.2895L17.3706 14.4598C17.8028 15.5867 18.4669 15.9952 19.6025 16.0906C19.644 16.0925 19.6846 16.1029 19.722 16.1211C19.7593 16.1393 19.7925 16.165 19.8195 16.1965C19.8465 16.2281 19.8667 16.2648 19.879 16.3045C19.8912 16.3441 19.8952 16.3859 19.8907 16.4271C19.8923 16.4697 19.8855 16.5122 19.8707 16.5522C19.8558 16.5922 19.8331 16.6288 19.804 16.6599C19.7749 16.6911 19.7398 16.7161 19.7009 16.7337C19.662 16.7512 19.6201 16.7609 19.5774 16.7621H14.0877C14.0433 16.7631 13.9992 16.7552 13.958 16.7388C13.9167 16.7223 13.8792 16.6977 13.8478 16.6664C13.8163 16.6351 13.7915 16.5978 13.7749 16.5567C13.7582 16.5156 13.7501 16.4715 13.751 16.4271C13.7477 16.3841 13.7534 16.3409 13.7677 16.3001C13.782 16.2594 13.8046 16.2221 13.834 16.1905C13.8634 16.1589 13.899 16.1337 13.9386 16.1165C13.9783 16.0993 14.021 16.0905 14.0642 16.0906C14.6155 16.0906 15.2405 15.9466 15.2405 15.2752C15.2356 14.9952 15.1782 14.7187 15.0713 14.4598L13.8684 11.2686C13.8199 11.1246 13.7964 11.0761 13.6523 11.0761H9.071C8.35053 11.0761 7.46247 11.0761 7.05368 11.9885L5.9573 14.4598C5.8458 14.684 5.78031 14.9283 5.76465 15.1782C5.76465 16.0421 6.89392 16.0906 7.48753 16.0906C7.53072 16.0905 7.57347 16.0993 7.61309 16.1165C7.65271 16.1337 7.68835 16.1589 7.71777 16.1905C7.74718 16.2221 7.76974 16.2594 7.78403 16.3001C7.79831 16.3409 7.80402 16.3841 7.80078 16.4271C7.80165 16.4715 7.79347 16.5157 7.77671 16.5568C7.75996 16.598 7.73499 16.6353 7.70334 16.6665C7.67168 16.6977 7.634 16.7221 7.59259 16.7383C7.55117 16.7544 7.5069 16.762 7.46247 16.7605H2.59143C2.54712 16.7616 2.50306 16.7536 2.46191 16.7372C2.42075 16.7207 2.38338 16.6961 2.35204 16.6648C2.32069 16.6335 2.29604 16.5961 2.27958 16.555C2.26312 16.5139 2.25518 16.4698 2.25625 16.4256C2.25301 16.3825 2.25872 16.3393 2.273 16.2986C2.28729 16.2578 2.30985 16.2205 2.33926 16.1889C2.36868 16.1573 2.40432 16.1321 2.44394 16.1149C2.48356 16.0978 2.52631 16.089 2.5695 16.0891C3.74576 16.0171 4.13575 15.463 4.58527 14.4582L10.371 1.7919C10.6357 1.23942 11.2121 0.760498 11.7399 0.760498C12.1189 0.762063 12.2395 0.978047 12.3586 1.2895ZM7.97306 9.8772C7.94406 9.91988 7.92727 9.96967 7.92451 10.0212C7.92451 10.0697 7.97306 10.0932 8.06861 10.0932H12.8222C13.1574 10.0932 13.3014 10.0212 13.3014 9.8052C13.301 9.69681 13.2764 9.58988 13.2294 9.49218L11.9091 5.94097C11.5958 5.12556 11.1416 4.0472 10.9975 3.15823C10.9975 3.11128 10.9724 3.08623 10.9489 3.08623C10.9254 3.08623 10.902 3.11128 10.902 3.15823C10.7217 3.76945 10.4885 4.36383 10.205 4.93462L7.97306 9.8772Z" fill="white"/>
<path d="M21.3864 9.31194C21.3864 9.92859 21.0371 10.2776 20.4059 10.2776C19.7747 10.2776 19.5241 9.95676 19.5241 9.46689C19.5241 8.85024 19.889 8.50122 20.5046 8.50122C21.1201 8.50122 21.3864 8.83615 21.3864 9.31194Z" fill="white"/>
<path d="M2.5772 9.3323C2.5772 9.94739 2.22636 10.298 1.59672 10.298C0.967091 10.298 0.711792 9.97556 0.711792 9.48569C0.711792 8.8706 1.07673 8.52002 1.69226 8.52002C2.3078 8.52002 2.5772 8.85651 2.5772 9.3323Z" fill="white"/>
</g>
<defs>
<clipPath id="clip0_4981_5866">
<rect width="20.6667" height="16" fill="white" transform="translate(0.713989 0.761841)"/>
</clipPath>
</defs>
</svg>
