<svg width="552" height="562" viewBox="0 0 552 562" fill="none" xmlns="http://www.w3.org/2000/svg">
<rect width="552" height="562" rx="4" fill="#F9F9F6"/>
<mask id="mask0_2409:848" style="mask-type:alpha" maskUnits="userSpaceOnUse" x="0" y="0" width="552" height="562">
<path d="M0 8.00001C0 3.58174 3.58172 0 8 0H544C548.418 0 552 3.58172 552 8V554C552 558.418 548.418 562 544 562H8C3.58172 562 0 558.418 0 554V8.00001Z" fill="#F9F9F6"/>
</mask>
<g mask="url(#mask0_2409:848)">
<g opacity="0.5" filter="url(#filter0_f_2409:848)">
<g filter="url(#filter1_d_2409:848)">
<rect x="278" y="56" width="456" height="116" rx="8" fill="white"/>
</g>
<mask id="mask1_2409:848" style="mask-type:alpha" maskUnits="userSpaceOnUse" x="302" y="80" width="68" height="68">
<circle cx="336" cy="114" r="34" fill="#DCDCDE"/>
</mask>
<g mask="url(#mask1_2409:848)">
<circle cx="336" cy="114" r="34" fill="#FACFD2"/>
</g>
<path d="M404 99C404 96.2386 406.239 94 409 94H486C488.761 94 491 96.2386 491 99C491 101.761 488.761 104 486 104H409C406.239 104 404 101.761 404 99Z" fill="#E9EFF5"/>
<path d="M404 129C404 126.239 406.239 124 409 124H676C678.761 124 681 126.239 681 129C681 131.761 678.761 134 676 134H409C406.239 134 404 131.761 404 129Z" fill="#E9EFF5"/>
</g>
<g opacity="0.5" filter="url(#filter2_f_2409:848)">
<g filter="url(#filter3_d_2409:848)">
<rect x="230" y="357" width="456" height="116" rx="8" fill="white"/>
</g>
<mask id="mask2_2409:848" style="mask-type:alpha" maskUnits="userSpaceOnUse" x="254" y="381" width="68" height="68">
<circle cx="288" cy="415" r="34" fill="#DCDCDE"/>
</mask>
<g mask="url(#mask2_2409:848)">
<circle cx="288" cy="415" r="34" fill="#CED9F2"/>
</g>
<path d="M356 400C356 397.239 358.239 395 361 395H495C497.761 395 500 397.239 500 400C500 402.761 497.761 405 495 405H361C358.239 405 356 402.761 356 400Z" fill="#E9EFF5"/>
<path d="M356 430C356 427.239 358.239 425 361 425H480C482.761 425 485 427.239 485 430C485 432.761 482.761 435 480 435H361C358.239 435 356 432.761 356 430Z" fill="#E9EFF5"/>
</g>
<g opacity="0.7" filter="url(#filter4_f_2409:848)">
<g filter="url(#filter5_d_2409:848)">
<rect x="23" y="333" width="140" height="140" rx="8" fill="white"/>
</g>
<circle cx="93" cy="403" r="34" fill="#E3AED4"/>
</g>
<g opacity="0.7" filter="url(#filter6_f_2409:848)">
<g filter="url(#filter7_d_2409:848)">
<rect x="482" y="191" width="140" height="140" rx="8" fill="white"/>
</g>
<circle cx="552" cy="261" r="34" fill="#F5E6B3"/>
</g>
</g>
<defs>
<filter id="filter0_f_2409:848" x="270" y="48" width="472" height="132" filterUnits="userSpaceOnUse" color-interpolation-filters="sRGB">
<feFlood flood-opacity="0" result="BackgroundImageFix"/>
<feBlend mode="normal" in="SourceGraphic" in2="BackgroundImageFix" result="shape"/>
<feGaussianBlur stdDeviation="4" result="effect1_foregroundBlur_2409:848"/>
</filter>
<filter id="filter1_d_2409:848" x="238" y="16" width="536" height="196" filterUnits="userSpaceOnUse" color-interpolation-filters="sRGB">
<feFlood flood-opacity="0" result="BackgroundImageFix"/>
<feColorMatrix in="SourceAlpha" type="matrix" values="0 0 0 0 0 0 0 0 0 0 0 0 0 0 0 0 0 0 127 0" result="hardAlpha"/>
<feOffset/>
<feGaussianBlur stdDeviation="20"/>
<feColorMatrix type="matrix" values="0 0 0 0 0 0 0 0 0 0 0 0 0 0 0 0 0 0 0.08 0"/>
<feBlend mode="normal" in2="BackgroundImageFix" result="effect1_dropShadow_2409:848"/>
<feBlend mode="normal" in="SourceGraphic" in2="effect1_dropShadow_2409:848" result="shape"/>
</filter>
<filter id="filter2_f_2409:848" x="208" y="335" width="500" height="160" filterUnits="userSpaceOnUse" color-interpolation-filters="sRGB">
<feFlood flood-opacity="0" result="BackgroundImageFix"/>
<feBlend mode="normal" in="SourceGraphic" in2="BackgroundImageFix" result="shape"/>
<feGaussianBlur stdDeviation="11" result="effect1_foregroundBlur_2409:848"/>
</filter>
<filter id="filter3_d_2409:848" x="190" y="317" width="536" height="196" filterUnits="userSpaceOnUse" color-interpolation-filters="sRGB">
<feFlood flood-opacity="0" result="BackgroundImageFix"/>
<feColorMatrix in="SourceAlpha" type="matrix" values="0 0 0 0 0 0 0 0 0 0 0 0 0 0 0 0 0 0 127 0" result="hardAlpha"/>
<feOffset/>
<feGaussianBlur stdDeviation="20"/>
<feColorMatrix type="matrix" values="0 0 0 0 0 0 0 0 0 0 0 0 0 0 0 0 0 0 0.08 0"/>
<feBlend mode="normal" in2="BackgroundImageFix" result="effect1_dropShadow_2409:848"/>
<feBlend mode="normal" in="SourceGraphic" in2="effect1_dropShadow_2409:848" result="shape"/>
</filter>
<filter id="filter4_f_2409:848" x="19" y="329" width="148" height="148" filterUnits="userSpaceOnUse" color-interpolation-filters="sRGB">
<feFlood flood-opacity="0" result="BackgroundImageFix"/>
<feBlend mode="normal" in="SourceGraphic" in2="BackgroundImageFix" result="shape"/>
<feGaussianBlur stdDeviation="2" result="effect1_foregroundBlur_2409:848"/>
</filter>
<filter id="filter5_d_2409:848" x="-17" y="293" width="220" height="220" filterUnits="userSpaceOnUse" color-interpolation-filters="sRGB">
<feFlood flood-opacity="0" result="BackgroundImageFix"/>
<feColorMatrix in="SourceAlpha" type="matrix" values="0 0 0 0 0 0 0 0 0 0 0 0 0 0 0 0 0 0 127 0" result="hardAlpha"/>
<feOffset/>
<feGaussianBlur stdDeviation="20"/>
<feColorMatrix type="matrix" values="0 0 0 0 0 0 0 0 0 0 0 0 0 0 0 0 0 0 0.08 0"/>
<feBlend mode="normal" in2="BackgroundImageFix" result="effect1_dropShadow_2409:848"/>
<feBlend mode="normal" in="SourceGraphic" in2="effect1_dropShadow_2409:848" result="shape"/>
</filter>
<filter id="filter6_f_2409:848" x="470" y="179" width="164" height="164" filterUnits="userSpaceOnUse" color-interpolation-filters="sRGB">
<feFlood flood-opacity="0" result="BackgroundImageFix"/>
<feBlend mode="normal" in="SourceGraphic" in2="BackgroundImageFix" result="shape"/>
<feGaussianBlur stdDeviation="6" result="effect1_foregroundBlur_2409:848"/>
</filter>
<filter id="filter7_d_2409:848" x="442" y="151" width="220" height="220" filterUnits="userSpaceOnUse" color-interpolation-filters="sRGB">
<feFlood flood-opacity="0" result="BackgroundImageFix"/>
<feColorMatrix in="SourceAlpha" type="matrix" values="0 0 0 0 0 0 0 0 0 0 0 0 0 0 0 0 0 0 127 0" result="hardAlpha"/>
<feOffset/>
<feGaussianBlur stdDeviation="20"/>
<feColorMatrix type="matrix" values="0 0 0 0 0 0 0 0 0 0 0 0 0 0 0 0 0 0 0.08 0"/>
<feBlend mode="normal" in2="BackgroundImageFix" result="effect1_dropShadow_2409:848"/>
<feBlend mode="normal" in="SourceGraphic" in2="effect1_dropShadow_2409:848" result="shape"/>
</filter>
</defs>
</svg>
