<svg width="20" height="20" viewBox="0 0 20 20" fill="none" xmlns="http://www.w3.org/2000/svg">
<path fill-rule="evenodd" clip-rule="evenodd" d="M16.4583 14.1666C16.4583 15.4322 15.4323 16.4583 14.1666 16.4583H11.4583V15.2083H14.1666C14.7419 15.2083 15.2083 14.7419 15.2083 14.1666L15.2083 5.83325C15.2083 5.25795 14.7419 4.79158 14.1666 4.79158L5.83331 4.79158C5.25802 4.79158 4.79165 5.25795 4.79165 5.83325L4.79165 8.86566H3.54165L3.54165 5.83325C3.54165 4.5676 4.56766 3.54158 5.83331 3.54158L14.1666 3.54158C15.4323 3.54158 16.4583 4.5676 16.4583 5.83325V14.1666Z" fill="#1E1E1E"/>
<path fill-rule="evenodd" clip-rule="evenodd" d="M7.23821 11.7432L4.1338 11.7572L4.12815 10.5072L9.38438 10.4835L9.33929 15.7209L8.08934 15.7102L8.11582 12.6333L2.79505 17.9541L1.91117 17.0702L7.23821 11.7432Z" fill="#1E1E1E"/>
</svg>
