<svg width="30" height="30" viewBox="0 0 30 30" fill="none" xmlns="http://www.w3.org/2000/svg">
<path fill-rule="evenodd" clip-rule="evenodd" d="M5.75098 9.875V7H24.251V9.875H5.75098ZM3.75098 6.58333C3.75098 5.70888 4.45986 5 5.33431 5H24.6676C25.5421 5 26.251 5.70888 26.251 6.58333V10.2917C26.251 11.0517 25.7154 11.6867 25.0011 11.8398V12V23.4167C25.0011 24.2911 24.2922 25 23.4178 25H6.58443C5.70998 25 5.0011 24.2911 5.0011 23.4167V12V11.8399C4.28665 11.6868 3.75098 11.0518 3.75098 10.2917V6.58333ZM7.0011 12H23.0011V23H7.0011V12Z" fill="black"/>
</svg>
