<svg width="14" height="14" viewBox="0 0 14 14" fill="none" xmlns="http://www.w3.org/2000/svg">
<path d="M9.10298 3.128L11.363 0.868C10.6757 0.62291 9.93452 0.570472 9.2196 0.716362C8.50469 0.862252 7.84329 1.20091 7.30701 1.69568C6.77074 2.19046 6.38001 2.82249 6.17712 3.52337C5.97424 4.22424 5.96693 4.96727 6.15598 5.672L0.827984 11C0.636963 11.1845 0.484598 11.4052 0.37978 11.6492C0.274962 11.8932 0.21979 12.1556 0.217483 12.4212C0.215175 12.6868 0.265779 12.9501 0.36634 13.1959C0.466902 13.4417 0.615408 13.665 0.803194 13.8528C0.990979 14.0406 1.21428 14.1891 1.46008 14.2896C1.70587 14.3902 1.96923 14.4408 2.23479 14.4385C2.50034 14.4362 2.76278 14.381 3.00679 14.2762C3.2508 14.1714 3.47149 14.019 3.65598 13.828L8.98498 8.5C9.68983 8.68916 10.433 8.68189 11.134 8.47897C11.835 8.27605 12.4671 7.88522 12.962 7.34879C13.4568 6.81237 13.7954 6.1508 13.9412 5.43572C14.087 4.72065 14.0343 3.97931 13.789 3.292L11.528 5.552L9.61598 5.04L9.10298 3.128ZM1.88898 12.768C1.84123 12.7219 1.80314 12.6667 1.77693 12.6057C1.75073 12.5447 1.73694 12.4791 1.73636 12.4127C1.73578 12.3463 1.74843 12.2805 1.77357 12.219C1.79871 12.1576 1.83584 12.1017 1.88279 12.0548C1.92973 12.0079 1.98556 11.9707 2.04701 11.9456C2.10845 11.9204 2.17429 11.9078 2.24068 11.9084C2.30707 11.909 2.37268 11.9227 2.43369 11.9489C2.49469 11.9752 2.54986 12.0132 2.59598 12.061C2.68706 12.1553 2.73746 12.2816 2.73632 12.4127C2.73518 12.5438 2.6826 12.6692 2.58989 12.7619C2.49719 12.8546 2.37178 12.9072 2.24068 12.9083C2.10959 12.9095 1.98328 12.8591 1.88898 12.768Z" fill="#008710"/>
</svg>
