<svg width="16" height="18" viewBox="0 0 16 18" fill="none" xmlns="http://www.w3.org/2000/svg">
<path d="M0.0554235 3.75092C0.0456555 3.68254 0.0407715 3.61905 0.0407715 3.56044C0.0407715 3.35531 0.0896114 3.16484 0.187291 2.98901C0.314276 2.75458 0.504752 2.57875 0.75872 2.46154L7.49865 0.0586081C7.61586 0.019536 7.73796 0 7.86495 0L8.23125 0.0586081L14.9712 2.46154C15.2251 2.57875 15.4156 2.75458 15.5426 2.98901C15.6403 3.1746 15.6891 3.36508 15.6891 3.56044C15.6891 3.61905 15.6842 3.68254 15.6745 3.75092C15.6745 3.76068 15.6696 3.78999 15.6598 3.83883C15.5817 4.19048 15.4938 4.54701 15.3961 4.90842C15.2984 5.26007 15.1226 5.86081 14.8686 6.71062C14.6146 7.56044 14.3021 8.40049 13.9309 9.23077C13.5695 10.061 13.1397 10.9597 12.6415 11.9267C12.1531 12.884 11.5524 13.8266 10.8393 14.7546C10.136 15.6825 9.38387 16.5079 8.5829 17.2308C8.38754 17.4261 8.14334 17.5238 7.8503 17.5238C7.57679 17.5238 7.34236 17.4261 7.147 17.2308C6.15066 16.3419 5.22758 15.2723 4.37777 14.022C3.52795 12.7717 2.85396 11.6093 2.35579 10.5348C1.85762 9.46032 1.41806 8.37118 1.03711 7.2674C0.665924 6.15385 0.41684 5.3431 0.289856 4.83517C0.172639 4.32723 0.0944955 3.96581 0.0554235 3.75092ZM0.700112 3.83883C0.719648 3.96581 0.75872 4.16117 0.817328 4.42491C0.885704 4.67888 1.0078 5.11355 1.18363 5.72894C1.35945 6.33455 1.55481 6.95971 1.76971 7.6044C1.99437 8.23932 2.2923 8.9768 2.66348 9.81685C3.04443 10.6471 3.44981 11.4432 3.8796 12.2051C4.31916 12.967 4.84663 13.7485 5.46202 14.5495C6.0774 15.3504 6.72697 16.0586 7.41074 16.674C7.54749 16.7717 7.69889 16.8205 7.86495 16.8205C8.031 16.8205 8.17264 16.7717 8.28986 16.674C9.23735 15.8242 10.1116 14.8034 10.9126 13.6117C11.7233 12.42 12.3582 11.3211 12.8173 10.315C13.2862 9.29914 13.7013 8.25397 14.0627 7.17949C14.4242 6.09524 14.6586 5.32845 14.766 4.87912C14.8833 4.42979 14.9614 4.08303 15.0005 3.83883C15.0102 3.78999 15.0151 3.74115 15.0151 3.69231C15.0249 3.58486 15.0005 3.47741 14.9419 3.36996C14.8637 3.21368 14.7465 3.10623 14.5902 3.04762L8.08473 0.703297C8.05542 0.703297 8.01635 0.698413 7.96751 0.688645C7.91867 0.678877 7.8796 0.673993 7.8503 0.673993L7.64517 0.703297L1.13967 3.04762C0.983384 3.10623 0.866168 3.21368 0.788024 3.36996C0.729416 3.47741 0.695228 3.58974 0.68546 3.70696C0.68546 3.7558 0.690344 3.79976 0.700112 3.83883ZM3.16165 4.42491H5.62319L7.8503 10.1392L10.1067 4.42491H12.5682C12.5096 4.57143 12.4315 4.78632 12.3338 5.0696C12.2361 5.3431 12.1433 5.59219 12.0554 5.81685C11.9675 6.04151 11.8747 6.25153 11.777 6.44689C11.7575 6.48596 11.7233 6.51526 11.6745 6.5348C11.6354 6.55433 11.5866 6.57387 11.528 6.59341C11.4693 6.60317 11.4254 6.61294 11.3961 6.62271C11.3472 6.65201 11.3033 6.6862 11.2642 6.72528C11.2349 6.75458 11.2056 6.79854 11.1763 6.85714C11.1568 6.90598 11.1372 6.94506 11.1177 6.97436C11.1079 7.00366 11.0884 7.05739 11.0591 7.13553C11.0395 7.20391 11.0249 7.24786 11.0151 7.2674L10.6635 8.14652C9.60854 10.8132 8.98339 12.3956 8.78802 12.8938H6.94187L6.15066 10.9597C6.07252 10.7253 5.93577 10.3736 5.74041 9.90476C5.66226 9.67033 5.52551 9.31868 5.33015 8.84982L4.89059 7.76557C4.85152 7.67766 4.80756 7.56044 4.75872 7.41392C4.70988 7.2674 4.65616 7.13553 4.59755 7.01832C4.54871 6.9011 4.48033 6.78877 4.39242 6.68132C4.35335 6.64225 4.30939 6.61783 4.26055 6.60806C4.21171 6.58852 4.15799 6.57875 4.09938 6.57875C4.04077 6.57875 4.0017 6.57387 3.98216 6.5641C3.73796 5.96825 3.46446 5.25519 3.16165 4.42491Z" fill="white"/>
</svg>
