<svg width="22" height="15" viewBox="0 0 22 15" fill="none" xmlns="http://www.w3.org/2000/svg">
<path fill-rule="evenodd" clip-rule="evenodd" d="M2.38499 0C3.33414 0 4.1681 0.626832 4.42797 1.53558L6.99756 10.521C7.00016 10.5301 7.00435 10.5384 7.00978 10.5456L10.054 0H11.7569H16.4644C19.7639 0 21.9757 2.13699 21.9757 5.37215C21.9757 8.64441 19.7059 10.6849 16.3194 10.6849H14.0859H11.2078L10.6486 12.4079C10.1472 13.953 8.7021 15 7.07095 15C5.43979 15 3.99471 13.953 3.49326 12.4079L0.363697 2.76459C-0.0794737 1.39902 0.943404 0 2.38499 0ZM12.2481 7.47945H15.5072C16.9213 7.47945 17.7697 6.67066 17.7697 5.37215C17.7697 4.06621 16.9213 3.29452 15.5072 3.29452H13.6062L12.2481 7.47945Z" fill="white"/>
</svg>
