<svg xmlns="http://www.w3.org/2000/svg" width="24" height="25" viewBox="0 0 24 25" fill="none">
  <mask id="path-1-inside-1_4206_1590" fill="white">
    <path fill-rule="evenodd" clip-rule="evenodd" d="M17 15.0104C17 14.3931 17.2469 13.8092 17.5874 13.2943C18.247 12.2967 18.631 11.101 18.631 9.81552C18.631 6.32756 15.8035 3.5 12.3155 3.5C8.82756 3.5 6 6.32756 6 9.81552C6 11.3004 6.51248 12.6657 7.37022 13.744C7.7394 14.2081 8 14.7632 8 15.3562C8 16.5402 8.9598 17.5 10.1438 17.5H14.5104C15.8854 17.5 17 16.3854 17 15.0104Z"/>
  </mask>
  <path d="M17.5874 13.2943L18.8386 14.1216L17.5874 13.2943ZM17.131 9.81552C17.131 10.7978 16.8385 11.7072 16.3362 12.467L18.8386 14.1216C19.6555 12.8862 20.131 11.4041 20.131 9.81552H17.131ZM12.3155 5C14.9751 5 17.131 7.15598 17.131 9.81552H20.131C20.131 5.49913 16.6319 2 12.3155 2V5ZM7.5 9.81552C7.5 7.15598 9.65598 5 12.3155 5V2C7.99913 2 4.5 5.49913 4.5 9.81552H7.5ZM8.54413 12.8102C7.88993 11.9878 7.5 10.9493 7.5 9.81552H4.5C4.5 11.6516 5.13503 13.3436 6.19631 14.6778L8.54413 12.8102ZM14.5104 16H10.1438V19H14.5104V16ZM6.5 15.3562C6.5 17.3686 8.13138 19 10.1438 19V16C9.78823 16 9.5 15.7118 9.5 15.3562H6.5ZM6.19631 14.6778C6.43077 14.9725 6.5 15.2075 6.5 15.3562H9.5C9.5 14.3188 9.04803 13.4437 8.54413 12.8102L6.19631 14.6778ZM14.5104 19C16.7138 19 18.5 17.2138 18.5 15.0104H15.5C15.5 15.557 15.057 16 14.5104 16V19ZM16.3362 12.467C15.9038 13.121 15.5 13.9931 15.5 15.0104H18.5C18.5 14.7931 18.5901 14.4975 18.8386 14.1216L16.3362 12.467Z" fill="black" mask="url(#path-1-inside-1_4206_1590)"/>
  <line x1="9" y1="18.75" x2="16" y2="18.75" stroke="black" stroke-width="1.5"/>
  <line x1="11" y1="20.75" x2="14" y2="20.75" stroke="black" stroke-width="1.5"/>
</svg>