<svg width="24" height="17" viewBox="0 0 24 17" fill="none" xmlns="http://www.w3.org/2000/svg">
<path fill-rule="evenodd" clip-rule="evenodd" d="M16.8639 6.46067C17.9853 6.46067 18.8944 5.55159 18.8944 4.43019C18.8944 3.30878 17.9853 2.3997 16.8639 2.3997C15.7425 2.3997 14.8334 3.30878 14.8334 4.43019C14.8334 5.55159 15.7425 6.46067 16.8639 6.46067ZM16.8639 8.03994C18.8575 8.03994 20.4737 6.4238 20.4737 4.43019C20.4737 2.43658 18.8575 0.820435 16.8639 0.820435C14.8703 0.820435 13.2541 2.43658 13.2541 4.43019C13.2541 6.4238 14.8703 8.03994 16.8639 8.03994ZM13.3216 16.7032V13.8154C13.3216 11.7844 11.6752 10.1379 9.6442 10.1379H3.8686C1.83761 10.1379 0.191162 11.7844 0.191162 13.8154V16.7032H1.77043V13.8154C1.77043 12.6566 2.70981 11.7172 3.8686 11.7172H9.6442C10.803 11.7172 11.7424 12.6566 11.7424 13.8154V16.7032H13.3216ZM23.4293 13.8154V16.7032H21.85V13.8154C21.85 12.6566 20.9106 11.7172 19.7518 11.7172H16.1421V10.1379H19.7518C21.7828 10.1379 23.4293 11.7844 23.4293 13.8154ZM8.787 4.43019C8.787 5.55159 7.87792 6.46067 6.75651 6.46067C5.63511 6.46067 4.72603 5.55159 4.72603 4.43019C4.72603 3.30878 5.63511 2.3997 6.75651 2.3997C7.87792 2.3997 8.787 3.30878 8.787 4.43019ZM10.3663 4.43019C10.3663 6.4238 8.75013 8.03994 6.75651 8.03994C4.7629 8.03994 3.14676 6.4238 3.14676 4.43019C3.14676 2.43658 4.7629 0.820435 6.75651 0.820435C8.75013 0.820435 10.3663 2.43658 10.3663 4.43019Z" fill="black"/>
</svg>
