<svg width="22" height="15" viewBox="0 0 22 15" fill="none" xmlns="http://www.w3.org/2000/svg">
<path fill-rule="evenodd" clip-rule="evenodd" d="M2.38548 0C3.33463 0 4.16858 0.626832 4.42846 1.53558L6.99805 10.521C7.00065 10.5301 7.00484 10.5384 7.01027 10.5456L10.0544 0H11.7574H16.4649C19.7644 0 21.9762 2.13699 21.9762 5.37215C21.9762 8.64441 19.7064 10.6849 16.3199 10.6849H14.0864H11.2083L10.6491 12.4079C10.1477 13.953 8.70259 15 7.07143 15C5.44028 15 3.99519 13.953 3.49375 12.4079L0.364185 2.76459C-0.0789854 1.39902 0.943892 0 2.38548 0ZM12.2486 7.47945H15.5077C16.9218 7.47945 17.7702 6.67066 17.7702 5.37215C17.7702 4.06621 16.9218 3.29452 15.5077 3.29452H13.6067L12.2486 7.47945Z" fill="black"/>
</svg>
