<svg xmlns="http://www.w3.org/2000/svg" width="18" height="18" viewBox="0 0 18 18" fill="none">
<path d="M7.66233 6.62699C7.34824 6.84685 7.25 7.07866 7.25 7.25C7.25 7.42134 7.34824 7.65315 7.66233 7.87301C7.97406 8.09122 8.44465 8.25 9 8.25C9.82537 8.25 10.6048 8.48297 11.1979 8.89814C11.7886 9.31165 12.25 9.95484 12.25 10.75C12.25 11.5452 11.7886 12.1884 11.1979 12.6019C10.7886 12.8884 10.2906 13.0881 9.75 13.1844V13.5C9.75 13.9142 9.41421 14.25 9 14.25C8.58579 14.25 8.25 13.9142 8.25 13.5V13.1844C7.70941 13.0881 7.21141 12.8884 6.80214 12.6019C6.21141 12.1884 5.75 11.5452 5.75 10.75C5.75 10.3358 6.08579 10 6.5 10C6.91421 10 7.25 10.3358 7.25 10.75C7.25 10.9213 7.34824 11.1531 7.66233 11.373C7.97406 11.5912 8.44465 11.75 9 11.75C9.55535 11.75 10.0259 11.5912 10.3377 11.373C10.6518 11.1531 10.75 10.9213 10.75 10.75C10.75 10.5787 10.6518 10.3469 10.3377 10.127C10.0259 9.90878 9.55535 9.75 9 9.75C8.17463 9.75 7.39523 9.51703 6.80214 9.10186C6.21141 8.68835 5.75 8.04516 5.75 7.25C5.75 6.45484 6.21141 5.81165 6.80214 5.39814C7.21141 5.11165 7.70941 4.91191 8.25 4.81563V4.5C8.25 4.08579 8.58579 3.75 9 3.75C9.41421 3.75 9.75 4.08579 9.75 4.5V4.81563C10.2906 4.91191 10.7886 5.11165 11.1979 5.39814C11.7886 5.81165 12.25 6.45484 12.25 7.25C12.25 7.66421 11.9142 8 11.5 8C11.0858 8 10.75 7.66421 10.75 7.25C10.75 7.07866 10.6518 6.84685 10.3377 6.62699C10.0259 6.40878 9.55535 6.25 9 6.25C8.44465 6.25 7.97406 6.40878 7.66233 6.62699Z" fill="#1E1E1E"/>
<path fill-rule="evenodd" clip-rule="evenodd" d="M0.25 9C0.25 4.16751 4.16751 0.25 9 0.25C13.8325 0.25 17.75 4.16751 17.75 9C17.75 13.8325 13.8325 17.75 9 17.75C4.16751 17.75 0.25 13.8325 0.25 9ZM9 1.75C4.99594 1.75 1.75 4.99594 1.75 9C1.75 13.0041 4.99594 16.25 9 16.25C13.0041 16.25 16.25 13.0041 16.25 9C16.25 4.99594 13.0041 1.75 9 1.75Z" fill="#1E1E1E"/>
</svg>
