<svg width="24" height="17" viewBox="0 0 24 17" fill="none" xmlns="http://www.w3.org/2000/svg">
<path fill-rule="evenodd" clip-rule="evenodd" d="M16.8633 6.46079C17.9847 6.46079 18.8938 5.55171 18.8938 4.43031C18.8938 3.3089 17.9847 2.39982 16.8633 2.39982C15.7419 2.39982 14.8328 3.3089 14.8328 4.43031C14.8328 5.55171 15.7419 6.46079 16.8633 6.46079ZM16.8633 8.04006C18.8569 8.04006 20.473 6.42392 20.473 4.43031C20.473 2.4367 18.8569 0.820557 16.8633 0.820557C14.8697 0.820557 13.2535 2.4367 13.2535 4.43031C13.2535 6.42392 14.8697 8.04006 16.8633 8.04006ZM13.321 16.7033V13.8155C13.321 11.7845 11.6746 10.138 9.64359 10.138H3.86799C1.837 10.138 0.190552 11.7845 0.190552 13.8155V16.7033H1.76982V13.8155C1.76982 12.6567 2.7092 11.7173 3.86799 11.7173H9.64359C10.8024 11.7173 11.7418 12.6567 11.7418 13.8155V16.7033H13.321ZM23.4286 13.8155V16.7033H21.8494V13.8155C21.8494 12.6567 20.91 11.7173 19.7512 11.7173H16.1415V10.138H19.7512C21.7822 10.138 23.4286 11.7845 23.4286 13.8155ZM8.78639 4.43031C8.78639 5.55171 7.87731 6.46079 6.7559 6.46079C5.6345 6.46079 4.72542 5.55171 4.72542 4.43031C4.72542 3.3089 5.6345 2.39982 6.7559 2.39982C7.87731 2.39982 8.78639 3.3089 8.78639 4.43031ZM10.3657 4.43031C10.3657 6.42392 8.74952 8.04006 6.7559 8.04006C4.76229 8.04006 3.14615 6.42392 3.14615 4.43031C3.14615 2.4367 4.76229 0.820557 6.7559 0.820557C8.74952 0.820557 10.3657 2.4367 10.3657 4.43031Z" fill="white"/>
</svg>
