<svg width="38" height="38" viewBox="0 0 38 38" fill="none" xmlns="http://www.w3.org/2000/svg">
<path fill-rule="evenodd" clip-rule="evenodd" d="M13.8814 20.8221C14.495 20.8221 15.0835 20.5784 15.5173 20.1445C15.9512 19.7106 16.195 19.1222 16.195 18.5086C16.195 17.895 15.9512 17.3065 15.5173 16.8726C15.0835 16.4387 14.495 16.195 13.8814 16.195C13.2678 16.195 12.6794 16.4387 12.2455 16.8726C11.8116 17.3065 11.5678 17.895 11.5678 18.5086C11.5678 19.1222 11.8116 19.7106 12.2455 20.1445C12.6794 20.5784 13.2678 20.8221 13.8814 20.8221ZM13.8814 24.6781C15.1804 24.6777 16.4461 24.2675 17.4985 23.506C18.5508 22.7444 19.3361 21.6703 19.7424 20.4365H23.1357V24.6781H26.9916V20.4365H29.3051V16.5806H19.7424C19.2808 15.1905 18.3398 14.0099 17.0877 13.2497C15.8356 12.4896 14.354 12.1995 12.9077 12.4313C11.4614 12.6631 10.1447 13.4016 9.19284 14.515C8.24099 15.6283 7.71608 17.0438 7.71191 18.5086C7.71191 20.1448 8.36191 21.714 9.51892 22.871C10.6759 24.0281 12.2452 24.6781 13.8814 24.6781Z" fill="black"/>
</svg>
