<svg xmlns="http://www.w3.org/2000/svg" xmlns:xlink="http://www.w3.org/1999/xlink" viewBox="0 0 552 562"><defs><mask id="jp-licensing-checkout-footer-bg-a" x="0" y="0" width="552" height="562" maskUnits="userSpaceOnUse"><path d="M0,8A8,8,0,0,1,8,0H544a8,8,0,0,1,8,8V554a8,8,0,0,1-8,8H8a8,8,0,0,1-8-8Z" style="fill:#f9f9f6"/></mask><mask id="jp-licensing-checkout-footer-bg-b" x="302" y="80" width="68" height="68" maskUnits="userSpaceOnUse"><circle cx="336" cy="114" r="34" style="fill:#dcdcde"/></mask><mask id="jp-licensing-checkout-footer-bg-c" x="254" y="381" width="68" height="68" maskUnits="userSpaceOnUse"><circle cx="288" cy="415" r="34" style="fill:#dcdcde"/></mask></defs><rect width="552" height="562" rx="4" style="fill:#f9f9f6"/><g style="mask:url(#jp-licensing-checkout-footer-bg-a)"><g style="opacity:0.5"><rect x="278" y="56" width="456" height="116" rx="8" style="fill:#fff"/><g style="mask:url(#jp-licensing-checkout-footer-bg-b)"><circle cx="336" cy="114" r="34" style="fill:#facfd2"/></g><path d="M404,99a5,5,0,0,1,5-5h77a5,5,0,0,1,5,5h0a5,5,0,0,1-5,5H409a5,5,0,0,1-5-5Z" style="fill:#e9eff5"/><path d="M404,129a5,5,0,0,1,5-5H676a5,5,0,0,1,5,5h0a5,5,0,0,1-5,5H409a5,5,0,0,1-5-5Z" style="fill:#e9eff5"/></g><g style="opacity:0.5"><rect x="230" y="357" width="456" height="116" rx="8" style="fill:#fff"/><g style="mask:url(#jp-licensing-checkout-footer-bg-c)"><circle cx="288" cy="415" r="34" style="fill:#ced9f2"/></g><path d="M356,400a5,5,0,0,1,5-5H495a5,5,0,0,1,5,5h0a5,5,0,0,1-5,5H361a5,5,0,0,1-5-5Z" style="fill:#e9eff5"/><path d="M356,430a5,5,0,0,1,5-5H480a5,5,0,0,1,5,5h0a5,5,0,0,1-5,5H361a5,5,0,0,1-5-5Z" style="fill:#e9eff5"/></g><g style="opacity:0.699999988079071"><rect x="23" y="333" width="140" height="140" rx="8" style="fill:#fff"/><circle cx="93" cy="403" r="34" style="fill:#e3aed4"/></g><g style="opacity:0.699999988079071"><rect x="482" y="191" width="140" height="140" rx="8" style="fill:#fff"/><circle cx="552" cy="261" r="34" style="fill:#f5e6b3"/></g></g></svg>
