<svg width="573" height="478" fill="none" xmlns="http://www.w3.org/2000/svg"><g filter="url(#licensing-activation-plugin-banner-a)"><path d="M85 48c0-8.837 7.163-16 16-16h452v438H85V48Z" fill="#DFE1E5"/></g><path d="M173 56c0-8.837 7.163-16 16-16h364v114H85V79l80.045-.455a8 8 0 0 0 7.955-8V56Z" fill="#fff"/><rect opacity=".2" x="193" y="54" width="65" height="12" rx="6" fill="#3C434A"/><path d="M101 106c0-11.046 8.954-20 20-20h432v40H121c-11.046 0-20-8.954-20-20Z" fill="#E9EBEC"/><path d="M120.555 115.039c1.468 0 2.14-.57 2.836-2.469l3.195-8.695h-1.43l-2.25 6.766h-.023l-2.25-6.766h-1.453l3 8.133-.188.57c-.312.945-.734 1.313-1.492 1.313-.172 0-.383-.008-.531-.039v1.14c.148.031.422.047.586.047Zm10.642-2.898c2.242 0 3.758-1.618 3.758-4.203 0-2.594-1.516-4.204-3.758-4.204-2.25 0-3.766 1.61-3.766 4.204 0 2.585 1.516 4.203 3.766 4.203Zm0-1.196c-1.438 0-2.383-1.093-2.383-3.007 0-1.915.945-3.008 2.383-3.008 1.437 0 2.375 1.093 2.375 3.008 0 1.914-.938 3.007-2.375 3.007Zm12.205-7.07h-1.36v4.773c0 1.383-.797 2.29-2.117 2.29-1.258 0-1.875-.711-1.875-2.032v-5.031h-1.359v5.273c0 1.844 1.039 2.993 2.812 2.993 1.25 0 2.094-.524 2.578-1.461h.031V112h1.29v-8.125Zm2.165 8.125h1.36v-5.062c0-1.149.687-1.907 1.742-1.907.328 0 .617.039.726.078v-1.32c-.109-.016-.312-.055-.547-.055-.953 0-1.703.571-1.968 1.469h-.032v-1.328h-1.281V112Zm8.252-1.133c-1.399 0-2.313-1.14-2.313-2.961 0-1.82.914-2.976 2.313-2.976 1.414 0 2.359 1.187 2.359 2.976s-.945 2.961-2.359 2.961Zm.047 4.195c2.242 0 3.672-1.289 3.672-3.226v-7.961h-1.297v1.367h-.024c-.539-.945-1.492-1.508-2.64-1.508-2.102 0-3.461 1.625-3.461 4.172 0 2.524 1.359 4.156 3.429 4.156 1.141 0 2.102-.578 2.602-1.46h.031v1.281c0 1.211-.851 2.023-2.258 2.023-1.015 0-1.82-.492-2.086-1.234h-1.398c.227 1.383 1.641 2.39 3.43 2.39Zm5.845-3.062h1.359v-5.062c0-1.149.688-1.907 1.742-1.907.329 0 .618.039.727.078v-1.32c-.109-.016-.312-.055-.547-.055-.953 0-1.703.571-1.969 1.469h-.031v-1.328h-1.281V112Zm8.314.141c2.242 0 3.758-1.618 3.758-4.203 0-2.594-1.516-4.204-3.758-4.204-2.25 0-3.766 1.61-3.766 4.204 0 2.585 1.516 4.203 3.766 4.203Zm0-1.196c-1.437 0-2.383-1.093-2.383-3.007 0-1.915.946-3.008 2.383-3.008 1.438 0 2.375 1.093 2.375 3.008 0 1.914-.937 3.007-2.375 3.007Zm8.9 1.196c2.242 0 3.758-1.618 3.758-4.203 0-2.594-1.516-4.204-3.758-4.204-2.25 0-3.766 1.61-3.766 4.204 0 2.585 1.516 4.203 3.766 4.203Zm0-1.196c-1.438 0-2.383-1.093-2.383-3.007 0-1.915.945-3.008 2.383-3.008 1.437 0 2.375 1.093 2.375 3.008 0 1.914-.938 3.007-2.375 3.007Zm11.963-7.07h-1.415l-2.25 6.68h-.031l-2.242-6.68h-1.43l2.993 8.125h1.39l2.985-8.125Zm2.142 11.164c1.468 0 2.14-.57 2.836-2.469l3.195-8.695h-1.43l-2.25 6.766h-.023l-2.25-6.766h-1.453l3 8.133-.188.57c-.312.945-.734 1.313-1.492 1.313-.172 0-.383-.008-.531-.039v1.14c.148.031.422.047.586.047Zm10.353-2.898c1.172 0 2.101-.579 2.625-1.516h.023V112h1.297v-11.273h-1.359v4.468h-.031c-.485-.89-1.422-1.461-2.586-1.461-2.047 0-3.446 1.657-3.446 4.204 0 2.546 1.406 4.203 3.477 4.203Zm.258-7.211c1.398 0 2.336 1.195 2.336 3.008 0 1.82-.938 3.007-2.336 3.007-1.438 0-2.344-1.164-2.344-3.007 0-1.836.906-3.008 2.344-3.008Zm9.29 7.211c2.242 0 3.758-1.618 3.758-4.203 0-2.594-1.516-4.204-3.758-4.204-2.25 0-3.765 1.61-3.765 4.204 0 2.585 1.515 4.203 3.765 4.203Zm0-1.196c-1.437 0-2.383-1.093-2.383-3.007 0-1.915.946-3.008 2.383-3.008 1.438 0 2.375 1.093 2.375 3.008 0 1.914-.937 3.007-2.375 3.007Zm5.533 1.055h1.359v-5.094c0-1.125.782-1.968 1.86-1.968 1.008 0 1.664.64 1.664 1.617V112h1.359v-5.164c0-1.102.758-1.898 1.836-1.898 1.071 0 1.688.656 1.688 1.765V112h1.359v-5.609c0-1.61-1.039-2.657-2.648-2.657-1.141 0-2.094.578-2.547 1.547h-.031c-.352-.984-1.172-1.547-2.282-1.547-1.093 0-1.922.578-2.304 1.438h-.032v-1.297h-1.281V112Zm15.939-1.016c-.976 0-1.625-.507-1.625-1.281 0-.765.625-1.25 1.719-1.32l2.172-.133v.664c0 1.172-.985 2.07-2.266 2.07Zm-.305 1.157c1.094 0 2.125-.61 2.61-1.539h.031V112h1.289v-5.617c0-1.617-1.203-2.649-3.109-2.649-1.922 0-3.125 1.078-3.219 2.485h1.312c.172-.797.829-1.289 1.875-1.289 1.125 0 1.782.593 1.782 1.586v.679l-2.328.133c-1.875.11-2.946.984-2.946 2.375 0 1.461 1.086 2.438 2.703 2.438Zm6.127-.141h1.359v-8.125h-1.359V112Zm.68-9.492a.852.852 0 0 0 .851-.844.847.847 0 0 0-1.695 0 .85.85 0 0 0 .844.844ZM241.82 112h1.36v-4.781c0-1.375.836-2.281 2.117-2.281 1.25 0 1.867.718 1.867 2.031V112h1.359v-5.273c0-1.844-1.031-2.993-2.812-2.993-1.258 0-2.125.563-2.578 1.438h-.031v-1.297h-1.282V112Zm9.986.078c.5 0 .891-.39.891-.89s-.391-.891-.891-.891a.88.88 0 0 0-.89.891c0 .5.39.89.89.89Zm9.596-5.539c-.172-1.461-1.383-2.805-3.414-2.805-2.243 0-3.735 1.641-3.735 4.204 0 2.617 1.5 4.203 3.75 4.203 1.844 0 3.203-1.141 3.414-2.758h-1.336c-.234.976-.961 1.562-2.07 1.562-1.406 0-2.375-1.117-2.375-3.007 0-1.844.953-3.008 2.359-3.008 1.196 0 1.883.726 2.078 1.609h1.329Zm5.032 5.602c2.243 0 3.758-1.618 3.758-4.203 0-2.594-1.515-4.204-3.758-4.204-2.25 0-3.765 1.61-3.765 4.204 0 2.585 1.515 4.203 3.765 4.203Zm0-1.196c-1.437 0-2.382-1.093-2.382-3.007 0-1.915.945-3.008 2.382-3.008 1.438 0 2.375 1.093 2.375 3.008 0 1.914-.937 3.007-2.375 3.007Zm5.533 1.055h1.36v-5.094c0-1.125.781-1.968 1.859-1.968 1.008 0 1.664.64 1.664 1.617V112h1.359v-5.164c0-1.102.758-1.898 1.836-1.898 1.071 0 1.688.656 1.688 1.765V112h1.359v-5.609c0-1.61-1.039-2.657-2.648-2.657-1.141 0-2.094.578-2.547 1.547h-.031c-.352-.984-1.172-1.547-2.282-1.547-1.093 0-1.921.578-2.304 1.438h-.032v-1.297h-1.281V112Zm13.541 2.398 3.992-13.671h-1.164l-3.992 13.671h1.164Zm15.611-10.523h-1.344l-1.625 6.609h-.031l-1.844-6.609h-1.313l-1.835 6.609h-.032l-1.625-6.609h-1.351l2.273 8.125h1.383l1.828-6.289h.031L297.47 112h1.383l2.266-8.125Zm5.462-.141c-1.179 0-2.125.602-2.625 1.516h-.031v-1.375h-1.289v10.836h1.359v-4.031h.032c.484.89 1.421 1.461 2.586 1.461 2.046 0 3.445-1.657 3.445-4.203 0-2.547-1.406-4.204-3.477-4.204Zm-.265 7.211c-1.391 0-2.328-1.195-2.328-3.007 0-1.805.937-3.008 2.328-3.008 1.445 0 2.351 1.172 2.351 3.008 0 1.843-.906 3.007-2.351 3.007Zm10.626-2.883v-1.265h-5.125v1.265h5.125Zm4.83 2.922c-.977 0-1.625-.507-1.625-1.281 0-.765.625-1.25 1.719-1.32l2.172-.133v.664c0 1.172-.985 2.07-2.266 2.07Zm-.305 1.157c1.094 0 2.125-.61 2.61-1.539h.031V112h1.289v-5.617c0-1.617-1.203-2.649-3.109-2.649-1.922 0-3.125 1.078-3.219 2.485h1.312c.172-.797.828-1.289 1.875-1.289 1.125 0 1.782.593 1.782 1.586v.679l-2.329.133c-1.875.11-2.945.984-2.945 2.375 0 1.461 1.086 2.438 2.703 2.438Zm9.135 0c1.171 0 2.101-.579 2.625-1.516h.023V112h1.297v-11.273h-1.359v4.468h-.032c-.484-.89-1.422-1.461-2.586-1.461-2.047 0-3.445 1.657-3.445 4.204 0 2.546 1.406 4.203 3.477 4.203Zm.257-7.211c1.399 0 2.336 1.195 2.336 3.008 0 1.82-.937 3.007-2.336 3.007-1.437 0-2.343-1.164-2.343-3.007 0-1.836.906-3.008 2.343-3.008Zm5.924 7.07h1.359v-5.094c0-1.125.781-1.968 1.86-1.968 1.007 0 1.664.64 1.664 1.617V112h1.359v-5.164c0-1.102.758-1.898 1.836-1.898 1.07 0 1.687.656 1.687 1.765V112h1.36v-5.609c0-1.61-1.039-2.657-2.649-2.657-1.14 0-2.093.578-2.547 1.547h-.031c-.351-.984-1.172-1.547-2.281-1.547-1.094 0-1.922.578-2.305 1.438h-.031v-1.297h-1.281V112Zm13.33 0h1.359v-8.125h-1.359V112Zm.679-9.492a.852.852 0 0 0 .852-.844.847.847 0 0 0-.852-.844.845.845 0 0 0-.844.844.85.85 0 0 0 .844.844Zm2.916 9.492h1.359v-4.781c0-1.375.836-2.281 2.117-2.281 1.25 0 1.868.718 1.868 2.031V112h1.359v-5.273c0-1.844-1.031-2.993-2.813-2.993-1.257 0-2.125.563-2.578 1.438h-.031v-1.297h-1.281V112Z" fill="#50575E"/><circle cx="111" cy="58" r="6" fill="#ED695E"/><circle cx="131" cy="58" r="6" fill="#F5BE4F"/><circle cx="151" cy="58" r="6" fill="#61C454"/><g filter="url(#licensing-activation-plugin-banner-b)"><path d="M85 154c0-8.837 7.163-16 16-16h452v328a4 4 0 0 1-4 4H85V154Z" fill="#F6F7F7"/></g><g filter="url(#licensing-activation-plugin-banner-c)"><path fill="#2C3338" d="M227 179h326v56H227z"/><path fill="#787C82" d="M227 179h47v56h-47z"/><circle cx="251" cy="207" r="8" stroke="#fff" stroke-width="1.5"/><path fill="#fff" d="M250 206h2v6h-2zM250 202h2v2h-2zM302.622 212h1.627l-3.561-9.864h-1.648L295.479 212h1.572l.909-2.618h3.76l.902 2.618Zm-2.837-8.073h.116l1.429 4.17h-2.98l1.435-4.17Zm11.908 3.062c-.191-1.49-1.319-2.577-3.185-2.577-2.167 0-3.487 1.456-3.487 3.842 0 2.427 1.327 3.89 3.494 3.89 1.839 0 2.987-1.04 3.178-2.537h-1.428c-.192.8-.827 1.224-1.757 1.224-1.224 0-1.983-.964-1.983-2.577 0-1.586.752-2.529 1.983-2.529.984 0 1.586.54 1.757 1.264h1.428Zm2.311-4.286v1.887h-1.183v1.237h1.183v4.204c0 1.436.649 2.01 2.283 2.01.287 0 .561-.034.8-.075v-1.224a4.737 4.737 0 0 1-.561.034c-.731 0-1.052-.341-1.052-1.121v-3.828h1.613v-1.237h-1.613v-1.887h-1.47Zm4.84 9.297h1.463v-7.444h-1.463V212Zm.731-8.75c.547 0 .95-.39.95-.896 0-.512-.403-.902-.95-.902-.547 0-.95.39-.95.902 0 .506.403.896.95.896Zm9.195 1.306h-1.559l-1.846 5.872h-.116l-1.853-5.872h-1.572l2.687 7.444h1.579l2.68-7.444Zm3.664 6.33c-.8 0-1.381-.39-1.381-1.06 0-.656.465-1.005 1.49-1.073l1.818-.116v.622c0 .923-.82 1.627-1.927 1.627Zm-.376 1.237c.977 0 1.791-.424 2.235-1.169h.116V212h1.415v-5.086c0-1.572-1.053-2.502-2.919-2.502-1.688 0-2.891.82-3.042 2.099h1.422c.164-.527.732-.827 1.552-.827 1.005 0 1.524.444 1.524 1.23v.643l-2.016.116c-1.771.109-2.769.882-2.769 2.222 0 1.36 1.046 2.228 2.482 2.228Zm6.378-9.42v1.887h-1.183v1.237h1.183v4.204c0 1.436.649 2.01 2.283 2.01.287 0 .56-.034.8-.075v-1.224a4.75 4.75 0 0 1-.561.034c-.731 0-1.053-.341-1.053-1.121v-3.828h1.614v-1.237h-1.614v-1.887h-1.469Zm7.786 2.96c1.087 0 1.798.759 1.832 1.928h-3.76c.082-1.162.841-1.928 1.928-1.928Zm1.825 4.327c-.274.581-.882.903-1.771.903-1.175 0-1.934-.828-1.982-2.133v-.082h5.257v-.513c0-2.338-1.251-3.753-3.322-3.753-2.099 0-3.432 1.511-3.432 3.89 0 2.379 1.306 3.842 3.438 3.842 1.703 0 2.892-.821 3.227-2.154h-1.415Z"/><path d="m524.503 201.167 11.33 11.666m-11.667 0 11.33-11.666" stroke="#fff" stroke-width="1.5" opacity=".5"/></g><path fill="#3C434A" d="M85 134h126v336H85z"/><path fill="#1689DB" d="M85 196h126v27H85z"/><path fill="#3C434A" d="M85 134h468v30H85z"/><rect opacity=".2" x="101" y="204" width="92" height="12" rx="6" fill="#fff"/><rect opacity=".2" x="101" y="268" width="92" height="12" rx="6" fill="#fff"/><rect opacity=".2" x="101" y="332" width="92" height="12" rx="6" fill="#fff"/><rect opacity=".2" x="101" y="172" width="65" height="12" rx="6" fill="#fff"/><rect opacity=".2" x="101" y="236" width="65" height="12" rx="6" fill="#fff"/><rect opacity=".2" x="101" y="300" width="65" height="12" rx="6" fill="#fff"/><mask id="licensing-activation-plugin-banner-d" style="mask-type:alpha" maskUnits="userSpaceOnUse" x="353" y="355" width="60" height="32"><path fill-rule="evenodd" clip-rule="evenodd" d="M369.666 355c6.96 0 12.88 4.453 15.067 10.667h27.6v10.666h-5.334V387h-10.666v-10.667h-11.6c-2.187 6.214-8.107 10.667-15.067 10.667-8.827 0-16-7.173-16-16s7.173-16 16-16Zm-5.333 16c0 2.933 2.4 5.333 5.333 5.333 2.933 0 5.333-2.4 5.333-5.333 0-2.933-2.4-5.333-5.333-5.333-2.933 0-5.333 2.4-5.333 5.333Z" fill="#fff"/></mask><g mask="url(#licensing-activation-plugin-banner-d)"><path fill="#DCDCDE" d="M351 339h64v64h-64z"/></g><rect y="236" width="553" height="236" rx="4" fill="url(#licensing-activation-plugin-banner-e)"/><defs><filter id="licensing-activation-plugin-banner-a" x="53" y="0" width="508" height="478" filterUnits="userSpaceOnUse" color-interpolation-filters="sRGB"><feFlood flood-opacity="0" result="BackgroundImageFix"/><feColorMatrix in="SourceAlpha" values="0 0 0 0 0 0 0 0 0 0 0 0 0 0 0 0 0 0 127 0" result="hardAlpha"/><feOffset dx="-12" dy="-12"/><feGaussianBlur stdDeviation="10"/><feComposite in2="hardAlpha" operator="out"/><feColorMatrix values="0 0 0 0 0 0 0 0 0 0 0 0 0 0 0 0 0 0 0.07 0"/><feBlend in2="BackgroundImageFix" result="effect1_dropShadow_2514:2936"/><feBlend in="SourceGraphic" in2="effect1_dropShadow_2514:2936" result="shape"/></filter><filter id="licensing-activation-plugin-banner-b" x="53" y="106" width="508" height="372" filterUnits="userSpaceOnUse" color-interpolation-filters="sRGB"><feFlood flood-opacity="0" result="BackgroundImageFix"/><feColorMatrix in="SourceAlpha" values="0 0 0 0 0 0 0 0 0 0 0 0 0 0 0 0 0 0 127 0" result="hardAlpha"/><feOffset dx="-12" dy="-12"/><feGaussianBlur stdDeviation="10"/><feComposite in2="hardAlpha" operator="out"/><feColorMatrix values="0 0 0 0 0 0 0 0 0 0 0 0 0 0 0 0 0 0 0.07 0"/><feBlend in2="BackgroundImageFix" result="effect1_dropShadow_2514:2936"/><feBlend in="SourceGraphic" in2="effect1_dropShadow_2514:2936" result="shape"/></filter><filter id="licensing-activation-plugin-banner-c" x="207" y="171" width="366" height="96" filterUnits="userSpaceOnUse" color-interpolation-filters="sRGB"><feFlood flood-opacity="0" result="BackgroundImageFix"/><feColorMatrix in="SourceAlpha" values="0 0 0 0 0 0 0 0 0 0 0 0 0 0 0 0 0 0 127 0" result="hardAlpha"/><feOffset dy="12"/><feGaussianBlur stdDeviation="10"/><feComposite in2="hardAlpha" operator="out"/><feColorMatrix values="0 0 0 0 0 0 0 0 0 0 0 0 0 0 0 0 0 0 0.25 0"/><feBlend in2="BackgroundImageFix" result="effect1_dropShadow_2514:2936"/><feBlend in="SourceGraphic" in2="effect1_dropShadow_2514:2936" result="shape"/></filter><linearGradient id="licensing-activation-plugin-banner-e" x1="276.5" y1="236" x2="276.5" y2="472" gradientUnits="userSpaceOnUse"><stop stop-color="#F9F9F6" stop-opacity="0"/><stop offset="1" stop-color="#F9F9F6"/></linearGradient></defs></svg>
