<svg width="166" height="72" viewBox="0 0 166 72" fill="none" xmlns="http://www.w3.org/2000/svg">
<path fill-rule="evenodd" clip-rule="evenodd" d="M166.001 37.1842C166.001 25.0507 160.283 15.4766 149.355 15.4766C138.38 15.4766 131.74 25.0507 131.74 37.0894C131.74 51.3557 139.579 58.56 150.83 58.56C156.317 58.56 160.467 57.2803 163.603 55.4792V45.9999C160.467 47.6114 156.871 48.6067 152.306 48.6067C147.833 48.6067 143.867 46.9953 143.36 41.4025H165.909C165.909 40.7863 166.001 38.3217 166.001 37.1842ZM143.222 32.6815C143.222 27.3257 146.404 25.0981 149.309 25.0981C152.121 25.0981 155.119 27.3257 155.119 32.6815H143.222Z" fill="#32325D"/>
<path fill-rule="evenodd" clip-rule="evenodd" d="M113.94 15.4766C109.421 15.4766 106.516 17.6568 104.902 19.1735L104.303 16.2349H94.1582V71.4993L105.686 68.9872L105.732 55.574C107.392 56.8063 109.836 58.56 113.894 58.56C122.148 58.56 129.664 51.7349 129.664 36.7102C129.618 22.9652 122.009 15.4766 113.94 15.4766ZM111.173 48.1328C108.453 48.1328 106.839 47.1374 105.732 45.9051L105.686 28.321C106.885 26.9465 108.545 25.9986 111.173 25.9986C115.369 25.9986 118.274 30.833 118.274 37.042C118.274 43.3931 115.415 48.1328 111.173 48.1328Z" fill="#32325D"/>
<path fill-rule="evenodd" clip-rule="evenodd" d="M78.2969 12.6809L89.8708 10.1215V0.5L78.2969 3.01202V12.6809Z" fill="#32325D"/>
<path d="M89.8708 16.2832H78.2969V57.7552H89.8708V16.2832Z" fill="#32325D"/>
<path fill-rule="evenodd" clip-rule="evenodd" d="M65.8931 19.7902L65.1553 16.2829H55.1953V57.7549H66.7231V29.6487C69.4436 25.9992 74.0548 26.6627 75.4842 27.1841V16.2829C74.0086 15.7141 68.6136 14.6714 65.8931 19.7902Z" fill="#32325D"/>
<path fill-rule="evenodd" clip-rule="evenodd" d="M42.8363 5.99805L31.5852 8.46267L31.5391 46.4273C31.5391 53.442 36.6574 58.6082 43.4818 58.6082C47.263 58.6082 50.0296 57.8973 51.5513 57.0441V47.4226C50.0757 48.0388 42.7902 50.219 42.7902 43.2043V26.3786H51.5513V16.2831H42.7902L42.8363 5.99805Z" fill="#32325D"/>
<path fill-rule="evenodd" clip-rule="evenodd" d="M11.6661 28.321C11.6661 26.4726 13.1417 25.7616 15.5856 25.7616C19.09 25.7616 23.5167 26.8517 27.0211 28.795V17.6568C23.1939 16.0927 19.4128 15.4766 15.5856 15.4766C6.225 15.4766 0 20.5006 0 28.8898C0 41.9712 17.5222 39.8858 17.5222 45.526C17.5222 47.7062 15.6778 48.4172 13.0956 48.4172C9.26834 48.4172 4.38056 46.8057 0.507222 44.6254V55.9058C4.79556 57.8017 9.13 58.6074 13.0956 58.6074C22.6867 58.6074 29.2806 53.7256 29.2806 45.2416C29.2344 31.1174 11.6661 33.6294 11.6661 28.321Z" fill="#32325D"/>
</svg>
