<svg width="48" height="20" viewBox="0 0 48 20" fill="none" xmlns="http://www.w3.org/2000/svg">
<path fill-rule="evenodd" clip-rule="evenodd" d="M47.712 11.52H41.264C41.416 13.064 42.544 13.56 43.824 13.56C45.136 13.56 46.192 13.264 47.064 12.8V15.456C45.9574 16.0927 44.6912 16.3982 43.416 16.336C40.208 16.336 37.952 14.336 37.952 10.352C37.952 7.00001 39.864 4.33601 42.992 4.33601C46.128 4.33601 47.76 6.96001 47.76 10.336C47.76 10.656 47.728 11.344 47.712 11.52ZM42.976 7.02401C42.152 7.02401 41.24 7.60801 41.24 9.08801H44.64C44.64 7.60801 43.784 7.02401 42.976 7.02401ZM32.76 16.336C31.608 16.336 30.904 15.856 30.44 15.504L30.424 19.208L27.128 19.904V4.55201H30.136L30.2 5.36801C30.8977 4.70624 31.8224 4.33693 32.784 4.33601C35.104 4.33601 37.28 6.41601 37.28 10.256C37.28 14.44 35.12 16.336 32.76 16.336ZM32 7.25601C31.24 7.25601 30.768 7.52801 30.424 7.90401L30.44 12.8C30.76 13.152 31.224 13.424 32 13.424C33.216 13.424 34.032 12.104 34.032 10.328C34.032 8.60801 33.2 7.25601 32 7.25601ZM22.592 4.55201H25.896V16.104H22.592V4.55201ZM22.592 0.792008L25.896 0.0960083V2.78401L22.592 3.48801V0.800008V0.792008ZM19.136 8.27201V16.104H15.84V4.55201H18.8L18.896 5.52801C19.696 4.11201 21.352 4.40001 21.792 4.55201V7.58401C21.376 7.44801 19.96 7.24001 19.136 8.27201ZM12.296 12.048C12.296 13.992 14.376 13.392 14.792 13.216V15.904C14.352 16.144 13.56 16.336 12.48 16.336C12.0299 16.3491 11.5818 16.2706 11.163 16.1051C10.7442 15.9395 10.3634 15.6906 10.0439 15.3733C9.72434 15.056 9.47269 14.677 9.30423 14.2594C9.13578 13.8417 9.05404 13.3942 9.064 12.944L9.072 2.40801L12.288 1.72001V4.55201H14.8V7.37601H12.296V12.056V12.048ZM8.368 12.608C8.368 14.984 6.52 16.336 3.784 16.336C2.55625 16.3351 1.3418 16.0818 0.216 15.592V12.448C1.32 13.048 2.696 13.496 3.784 13.496C4.52 13.496 5.008 13.304 5.008 12.696C5.008 11.112 0 11.704 0 8.05601C0 5.72801 1.824 4.33601 4.496 4.33601C5.584 4.33601 6.672 4.49601 7.768 4.93601V8.04001C6.75516 7.50696 5.63228 7.21665 4.488 7.19201C3.8 7.19201 3.336 7.39201 3.336 7.91201C3.336 9.39201 8.368 8.68801 8.368 12.616V12.608Z" fill="white"/>
</svg>
