<svg width="216" height="25" viewBox="0 0 216 25" fill="none" xmlns="http://www.w3.org/2000/svg">
<g clip-path="url(#clip0_3906_5853)">
<path d="M22.5 4.5H2.5C1.39543 4.5 0.5 5.39543 0.5 6.5V18.5C0.5 19.6046 1.39543 20.5 2.5 20.5H22.5C23.6046 20.5 24.5 19.6046 24.5 18.5V6.5C24.5 5.39543 23.6046 4.5 22.5 4.5Z" fill="#252525"/>
<path d="M9.5 17.5C12.2614 17.5 14.5 15.2614 14.5 12.5C14.5 9.73858 12.2614 7.5 9.5 7.5C6.73858 7.5 4.5 9.73858 4.5 12.5C4.5 15.2614 6.73858 17.5 9.5 17.5Z" fill="#EB001B"/>
<path d="M15.5 17.5C18.2614 17.5 20.5 15.2614 20.5 12.5C20.5 9.73858 18.2614 7.5 15.5 7.5C12.7386 7.5 10.5 9.73858 10.5 12.5C10.5 15.2614 12.7386 17.5 15.5 17.5Z" fill="#F79E1B"/>
<path fill-rule="evenodd" clip-rule="evenodd" d="M12.5 8.5C13.7144 9.41221 14.5 10.8645 14.5 12.5004C14.5 14.1362 13.7144 15.5885 12.5 16.5007C11.2856 15.5885 10.5 14.1362 10.5 12.5004C10.5 10.8645 11.2856 9.41221 12.5 8.5Z" fill="#FF5F00"/>
</g>
<g clip-path="url(#clip1_3906_5853)">
<path d="M54.25 4.75H34.75C33.6454 4.75 32.75 5.64543 32.75 6.75V18.25C32.75 19.3546 33.6454 20.25 34.75 20.25H54.25C55.3546 20.25 56.25 19.3546 56.25 18.25V6.75C56.25 5.64543 55.3546 4.75 54.25 4.75Z" fill="white" stroke="black" stroke-opacity="0.2" stroke-width="0.5"/>
<path d="M35.2877 10.4144C34.7646 10.1275 34.1675 9.89674 33.5 9.73659L33.528 9.61188H36.265C36.636 9.62489 36.937 9.73651 37.0349 10.1307L37.6298 12.9666L37.812 13.8207L39.478 9.61188H41.2768L38.6029 15.7775H36.804L35.2877 10.4144ZM42.6 15.7841H40.8988L41.9628 9.61188H43.6639L42.6 15.7841ZM48.7668 9.76277L48.5354 11.0956L48.3816 11.03C48.0737 10.9052 47.6674 10.7805 47.1144 10.7937C46.4427 10.7937 46.1415 11.0628 46.1345 11.3255C46.1345 11.6144 46.4989 11.8048 47.0939 12.0873C48.074 12.5272 48.5286 13.0656 48.5218 13.7682C48.5081 15.0486 47.346 15.8761 45.5611 15.8761C44.7979 15.8694 44.0628 15.7181 43.6638 15.5476L43.9019 14.162L44.1259 14.2607C44.6789 14.4907 45.0428 14.589 45.722 14.589C46.2118 14.589 46.7369 14.3984 46.7436 13.9849C46.7436 13.7157 46.5199 13.5185 45.8617 13.2165C45.2178 12.9209 44.3568 12.4285 44.3708 11.542C44.3781 10.3404 45.5611 9.5 47.241 9.5C47.899 9.5 48.4312 9.63789 48.7668 9.76277ZM51.0278 13.5975H52.4417C52.3718 13.2889 52.0496 11.8115 52.0496 11.8115L51.9307 11.2796C51.8467 11.5094 51.6999 11.8837 51.7069 11.8706C51.7069 11.8706 51.1678 13.2429 51.0278 13.5975ZM53.1276 9.61188L54.5 15.784H52.9249C52.9249 15.784 52.7708 15.0748 52.7219 14.8581H50.5378C50.4746 15.0222 50.1808 15.784 50.1808 15.784H48.3958L50.9226 10.124C51.0977 9.72342 51.406 9.61188 51.8118 9.61188H53.1276Z" fill="#171E6C"/>
</g>
<g clip-path="url(#clip2_3906_5853)">
<path d="M64.7051 20.5H69.2229C70.2507 20.5 71.4819 19.3053 71.4819 18.3667V4.5H66.964C65.9362 4.5 64.7051 5.69467 64.7051 7.7V20.5Z" fill="#047AB1"/>
<path d="M67.269 15.3167C66.4016 15.3168 65.5386 15.2019 64.7051 14.9753V13.802C65.3519 14.1797 66.0912 14.3928 66.8511 14.4207C67.7207 14.4207 68.2064 13.8447 68.2064 13.0553V9.83398H70.3524V13.0553C70.3524 14.314 69.6521 15.3167 67.269 15.3167Z" fill="white"/>
<path d="M72.6113 20.5H77.1292C78.157 20.5 79.3881 19.3053 79.3881 18.3667V4.5H74.8703C73.8424 4.5 72.6113 5.69467 72.6113 7.7V20.5Z" fill="#D42D06"/>
<path d="M72.6113 10.5791C73.2664 9.98174 74.3959 9.60841 76.2256 9.69374C77.2195 9.73641 78.2586 10.0137 78.2586 10.0137V11.1977C77.6643 10.8583 76.9963 10.6504 76.3047 10.5897C74.9154 10.4724 74.0683 11.2084 74.0683 12.4991C74.0683 13.7897 74.9154 14.5257 76.3047 14.4191C76.9967 14.353 77.6643 14.1416 78.2586 13.8004V14.9737C78.2586 14.9737 77.2195 15.2617 76.2256 15.3044C74.3959 15.3897 73.2664 15.0164 72.6113 14.4191V10.5791Z" fill="white"/>
<path d="M80.5176 20.5H85.0354C86.0632 20.5 87.2944 19.3053 87.2944 18.3667V4.5H82.7765C81.7487 4.5 80.5176 5.69467 80.5176 7.7V20.5Z" fill="#67B637"/>
<path d="M86.1649 13.7807C86.1649 14.634 85.4646 15.1673 84.5272 15.1673H80.5176V9.83398H84.1657L84.4255 9.84465C85.25 9.88732 85.8599 10.346 85.8599 11.1353C85.8599 11.754 85.442 12.2873 84.6853 12.4153V12.4473C85.5211 12.5007 86.1649 13.002 86.1649 13.7807ZM83.2848 10.6767C83.2362 10.6698 83.1871 10.6662 83.1379 10.666H81.7826V12.01H83.2848C83.5671 11.946 83.8043 11.7007 83.8043 11.338C83.8043 10.9753 83.5671 10.73 83.2848 10.6767ZM83.4542 12.8527C83.3944 12.8438 83.3339 12.8402 83.2735 12.842H81.7826V14.3033H83.2735L83.4542 14.282C83.7366 14.218 83.9737 13.9407 83.9737 13.5673C83.9737 13.194 83.7478 12.9273 83.4542 12.8527Z" fill="white"/>
</g>
<g clip-path="url(#clip3_3906_5853)">
<path d="M117.497 20.2499L117.499 20.2499C118.454 20.2581 119.238 19.4773 119.25 18.5042L119.25 6.5063C119.246 6.03569 119.059 5.58617 118.73 5.2568C118.401 4.92827 117.959 4.74615 117.497 4.75007L97.5006 4.75006C97.0411 4.74615 96.5986 4.92827 96.2703 5.2568C95.9411 5.58617 95.7538 6.03569 95.75 6.50426L95.75 18.4937C95.7538 18.9643 95.9411 19.4138 96.2703 19.7432C96.5986 20.0717 97.0411 20.2538 97.5028 20.2499H117.497ZM117.496 20.7499C117.496 20.7499 117.495 20.7499 117.495 20.7499L117.497 20.7499H117.496Z" fill="white" stroke="black" stroke-opacity="0.2" stroke-width="0.5"/>
<path d="M105.502 6.55116V6.53516H109.502V6.55116C112.637 6.78059 115.064 9.39134 115.064 12.5352C115.064 15.679 112.637 18.2897 109.502 18.5192V18.5352H105.502V18.5192C102.366 18.2897 99.9395 15.679 99.9395 12.5352C99.9395 9.39134 102.366 6.78059 105.502 6.55116Z" fill="#0165AC"/>
<path d="M107.101 15.9279C108.536 15.4177 109.495 14.0592 109.495 12.5359C109.495 11.0126 108.536 9.65422 107.101 9.14394V15.9279ZM104.701 9.14394C103.266 9.65422 102.307 11.0126 102.307 12.5359C102.307 14.0592 103.266 15.4177 104.701 15.9279V9.14394ZM105.901 17.7359C103.029 17.7359 100.701 15.4078 100.701 12.5359C100.701 9.66406 103.029 7.33594 105.901 7.33594C108.773 7.33594 111.101 9.66406 111.101 12.5359C111.101 15.4078 108.773 17.7359 105.901 17.7359Z" fill="white"/>
</g>
<g clip-path="url(#clip4_3906_5853)">
<path d="M149.497 20.2499L149.499 20.2499C150.454 20.2581 151.238 19.4773 151.25 18.5042L151.25 6.5063C151.246 6.03569 151.059 5.58617 150.73 5.2568C150.401 4.92827 149.959 4.74615 149.497 4.75007L129.501 4.75006C129.041 4.74615 128.599 4.92827 128.27 5.2568C127.941 5.58617 127.754 6.03569 127.75 6.50426L127.75 18.4937C127.754 18.9643 127.941 19.4138 128.27 19.7432C128.599 20.0717 129.041 20.2538 129.503 20.2499H149.497ZM149.496 20.7499C149.496 20.7499 149.495 20.7499 149.495 20.7499L149.497 20.7499H149.496Z" fill="white" stroke="black" stroke-opacity="0.2" stroke-width="0.5"/>
<path d="M140.113 20.5002H149.498C150.025 20.5046 150.532 20.2995 150.907 19.9301C151.283 19.5607 151.496 19.0573 151.501 18.5305V16.1719C147.957 18.2062 144.114 19.667 140.113 20.5002Z" fill="#F27712"/>
<path d="M150.673 13.7959H149.821L148.861 12.5297H148.77V13.7959H148.074V10.6511H149.101C149.903 10.6511 150.367 10.9822 150.367 11.578C150.367 12.0663 150.077 12.3808 149.556 12.4801L150.673 13.7959ZM149.647 11.6028C149.647 11.2966 149.415 11.1394 148.985 11.1394H148.77V12.0911H148.968C149.415 12.0911 149.647 11.9256 149.647 11.6028ZM145.641 10.6511H147.611V11.1808H146.336V11.8842H147.561V12.4222H146.336V13.2746H147.611V13.8042H145.641V10.6511ZM143.407 13.8787L141.901 10.6428H142.662L143.614 12.7615L144.574 10.6428H145.318L143.796 13.8787H143.423H143.407ZM137.109 13.8704C136.05 13.8704 135.222 13.1504 135.222 12.2153C135.222 11.3049 136.066 10.5684 137.125 10.5684C137.423 10.5684 137.672 10.6263 137.978 10.7587V11.487C137.746 11.2592 137.434 11.1314 137.109 11.1311C136.447 11.1311 135.942 11.6111 135.942 12.2153C135.942 12.8525 136.438 13.3077 137.142 13.3077C137.456 13.3077 137.696 13.2084 137.978 12.9601V13.6884C137.663 13.8208 137.398 13.8704 137.109 13.8704ZM135.007 12.8359C135.007 13.4484 134.502 13.8704 133.774 13.8704C133.244 13.8704 132.863 13.6884 132.541 13.2746L132.996 12.8856C133.153 13.167 133.418 13.3077 133.749 13.3077C134.063 13.3077 134.287 13.1173 134.287 12.869C134.287 12.7284 134.221 12.6208 134.08 12.538C133.926 12.4632 133.765 12.4022 133.6 12.3559C132.946 12.149 132.723 11.9256 132.723 11.487C132.723 10.9739 133.203 10.5849 133.832 10.5849C134.229 10.5849 134.585 10.709 134.883 10.9408L134.518 11.3546C134.374 11.1963 134.17 11.1062 133.956 11.1063C133.658 11.1063 133.443 11.2553 133.443 11.4539C133.443 11.6194 133.567 11.7104 133.981 11.8511C134.775 12.0994 135.007 12.3311 135.007 12.8442V12.8359ZM131.589 10.6511H132.284V13.8042H131.589V10.6511ZM129.354 13.8042H128.328V10.6511H129.354C130.48 10.6511 131.258 11.2966 131.258 12.2235C131.258 12.6953 131.026 13.1422 130.621 13.4401C130.273 13.6884 129.884 13.8042 129.346 13.8042H129.354ZM130.165 11.4373C129.934 11.2553 129.669 11.189 129.214 11.189H129.023V13.2746H129.214C129.661 13.2746 129.942 13.1918 130.165 13.0263C130.405 12.8277 130.546 12.5297 130.546 12.2235C130.546 11.9173 130.405 11.6277 130.165 11.4373Z" fill="black"/>
<path d="M139.913 10.5684C139.003 10.5684 138.258 11.2966 138.258 12.1987C138.258 13.1587 138.97 13.8787 139.913 13.8787C140.84 13.8787 141.568 13.1504 141.568 12.2235C141.568 11.2966 140.848 10.5684 139.913 10.5684Z" fill="#F27712"/>
</g>
<g clip-path="url(#clip5_3906_5853)">
<path d="M164.046 4.5H169.84C170.648 4.5 171.151 5.22566 170.963 6.11891L168.265 18.8675C168.075 19.7576 167.265 20.4839 166.456 20.4839H160.663C159.855 20.4839 159.351 19.7576 159.54 18.8675L162.238 6.11891C162.427 5.22566 163.236 4.5 164.046 4.5Z" fill="#DD2423"/>
<path d="M169.358 4.5H176.021C176.829 4.5 176.465 5.22566 176.274 6.11891L173.577 18.8675C173.388 19.7576 173.447 20.4839 172.637 20.4839H165.974C165.164 20.4839 164.662 19.7576 164.853 18.8675L167.55 6.11891C167.741 5.22566 168.549 4.5 169.358 4.5Z" fill="#16315E"/>
<path d="M175.756 4.5H181.55C182.36 4.5 182.863 5.22566 182.673 6.11891L179.976 18.8675C179.785 19.7576 178.975 20.4839 178.165 20.4839H172.374C171.564 20.4839 171.061 19.7576 171.251 18.8675L173.948 6.11891C174.137 5.22566 174.946 4.5 175.756 4.5Z" fill="#036862"/>
<path d="M165.558 8.58501C164.963 8.59169 164.787 8.58501 164.73 8.5704C164.709 8.68341 164.307 10.725 164.306 10.7267C164.219 11.1398 164.156 11.4342 163.942 11.6243C163.821 11.7348 163.679 11.7882 163.515 11.7882C163.25 11.7882 163.096 11.6437 163.071 11.3698L163.066 11.2758C163.066 11.2758 163.146 10.7225 163.146 10.7194C163.146 10.7194 163.568 8.85892 163.644 8.61299C163.648 8.599 163.649 8.59169 163.65 8.58501C162.828 8.59294 162.683 8.58501 162.673 8.5704C162.667 8.59045 162.647 8.7058 162.647 8.7058L162.216 10.8027L162.179 10.9806L162.107 11.5623C162.107 11.7348 162.138 11.8757 162.199 11.9948C162.396 12.3724 162.956 12.4289 163.272 12.4289C163.681 12.4289 164.063 12.3335 164.322 12.1592C164.771 11.8671 164.889 11.4106 164.994 11.0048L165.042 10.7967C165.042 10.7967 165.477 8.86436 165.551 8.61299C165.553 8.599 165.555 8.59169 165.558 8.58501ZM167.037 10.1438C166.933 10.1438 166.741 10.1718 166.569 10.2646C166.507 10.2999 166.448 10.3406 166.385 10.3812L166.442 10.1578L166.411 10.1202C166.046 10.2015 165.964 10.2124 165.627 10.2646L165.599 10.2853C165.56 10.6424 165.525 10.9108 165.38 11.6127C165.325 11.8714 165.268 12.1326 165.21 12.3906L165.226 12.4234C165.571 12.4034 165.676 12.4034 165.976 12.4088L166 12.3797C166.038 12.1647 166.043 12.1144 166.128 11.6789C166.167 11.4725 166.25 11.0189 166.291 10.8574C166.366 10.8191 166.44 10.7815 166.511 10.7815C166.679 10.7815 166.658 10.943 166.652 11.0074C166.645 11.1154 166.583 11.4683 166.52 11.7713L166.479 11.9668C166.449 12.1113 166.417 12.2516 166.388 12.3948L166.401 12.4234C166.741 12.4034 166.845 12.4034 167.135 12.4088L167.17 12.3797C167.222 12.0439 167.238 11.9541 167.331 11.4652L167.378 11.2406C167.469 10.8009 167.514 10.578 167.446 10.3964C167.373 10.1929 167.198 10.1438 167.037 10.1438ZM168.689 10.6041C168.509 10.6423 168.393 10.6678 168.279 10.6843C168.165 10.7044 168.054 10.7226 167.879 10.7493L167.865 10.7631L167.853 10.7742C167.834 10.9175 167.822 11.0414 167.798 11.1871C167.777 11.3377 167.746 11.5089 167.694 11.7548C167.655 11.943 167.634 12.0086 167.612 12.0749C167.59 12.1411 167.565 12.2055 167.521 12.3906L167.531 12.4077L167.54 12.4234C167.703 12.4148 167.81 12.4088 167.92 12.4077C168.03 12.4033 168.143 12.4077 168.319 12.4088L168.335 12.395L168.351 12.3797C168.377 12.2128 168.38 12.1678 168.396 12.0864C168.411 11.999 168.438 11.8781 168.503 11.555C168.534 11.4033 168.568 11.252 168.6 11.0972C168.633 10.943 168.668 10.7911 168.701 10.6394L168.696 10.6211L168.689 10.6041ZM168.693 9.9835C168.529 9.8767 168.24 9.91059 168.046 10.0581C167.853 10.2027 167.831 10.4079 167.994 10.5161C168.156 10.6199 168.446 10.589 168.638 10.4402C168.831 10.2925 168.855 10.0892 168.693 9.9835ZM169.687 12.4569C170.02 12.4569 170.361 12.356 170.617 12.0566C170.815 11.8138 170.905 11.4525 170.937 11.3037C171.039 10.8106 170.959 10.5804 170.86 10.4401C170.708 10.2264 170.44 10.1578 170.162 10.1578C169.995 10.1578 169.596 10.176 169.285 10.4918C169.062 10.7195 168.959 11.0285 168.896 11.3248C168.833 11.6267 168.761 12.1702 169.215 12.3725C169.355 12.4387 169.557 12.4569 169.687 12.4569ZM169.661 11.3474C169.738 10.974 169.829 10.6606 170.06 10.6606C170.241 10.6606 170.254 10.8938 170.173 11.2684C170.159 11.3516 170.093 11.6608 170.003 11.7925C169.941 11.8896 169.867 11.9485 169.786 11.9485C169.761 11.9485 169.617 11.9485 169.615 11.7124C169.613 11.5958 169.635 11.4767 169.661 11.3474ZM171.768 12.4088L171.794 12.3798C171.831 12.1648 171.837 12.1143 171.919 11.679C171.959 11.4725 172.044 11.0189 172.084 10.8574C172.159 10.819 172.231 10.7814 172.304 10.7814C172.471 10.7814 172.451 10.9429 172.444 11.0073C172.438 11.1155 172.377 11.4682 172.313 11.7712L172.273 11.9667C172.243 12.1113 172.21 12.2515 172.181 12.3949L172.193 12.4235C172.535 12.4034 172.635 12.4034 172.927 12.4088L172.962 12.3798C173.014 12.0438 173.028 11.954 173.124 11.4652L173.169 11.2404C173.261 10.8008 173.307 10.5781 173.239 10.3965C173.164 10.193 172.988 10.1439 172.83 10.1439C172.725 10.1439 172.533 10.1717 172.362 10.2647C172.301 10.2999 172.239 10.3405 172.179 10.3812L172.231 10.1579L172.203 10.1201C171.839 10.2015 171.755 10.2124 171.419 10.2647L171.393 10.2853C171.352 10.6424 171.319 10.9107 171.174 11.6128C171.119 11.8714 171.061 12.1326 171.004 12.3907L171.02 12.4235C171.365 12.4034 171.469 12.4034 171.768 12.4088ZM174.277 12.4234C174.298 12.308 174.426 11.6243 174.427 11.6243C174.427 11.6243 174.536 11.1227 174.542 11.1045C174.542 11.1045 174.576 11.0523 174.611 11.0316H174.661C175.135 11.0316 175.671 11.0316 176.091 10.6916C176.376 10.4584 176.572 10.1141 176.659 9.69561C176.681 9.59301 176.698 9.47098 176.698 9.34895C176.698 9.18867 176.669 9.03011 176.584 8.90621C176.37 8.57649 175.944 8.57043 175.452 8.56794C175.45 8.56794 175.209 8.57043 175.209 8.57043C174.579 8.57898 174.327 8.57649 174.223 8.5625C174.214 8.61302 174.198 8.70288 174.198 8.70288C174.198 8.70288 173.972 9.85418 173.972 9.85604C173.972 9.85604 173.432 12.3038 173.406 12.4192C173.957 12.4119 174.182 12.4119 174.277 12.4234ZM174.695 10.3782C174.695 10.3782 174.935 9.22925 174.934 9.2336L174.942 9.17468L174.945 9.12976L175.041 9.14064C175.041 9.14064 175.536 9.18743 175.547 9.18867C175.743 9.27184 175.823 9.48621 175.767 9.76603C175.716 10.0218 175.565 10.2368 175.371 10.3406C175.212 10.4286 175.017 10.4359 174.815 10.4359H174.685L174.695 10.3782ZM176.189 11.3687C176.126 11.6662 176.053 12.2097 176.504 12.4034C176.649 12.4708 176.778 12.4909 176.909 12.4836C177.047 12.4754 177.176 12.3989 177.295 12.2888C177.284 12.334 177.273 12.3793 177.262 12.4247L177.283 12.4537C177.608 12.4387 177.709 12.4387 178.061 12.4416L178.093 12.4149C178.144 12.0822 178.192 11.7592 178.326 11.1227C178.391 10.8179 178.456 10.516 178.523 10.2124L178.512 10.179C178.149 10.2531 178.052 10.269 177.702 10.3235L177.676 10.3473C177.672 10.3783 177.668 10.408 177.665 10.4376C177.611 10.341 177.532 10.2584 177.41 10.207C177.255 10.1396 176.89 10.2264 176.576 10.541C176.355 10.7657 176.249 11.0735 176.189 11.3687ZM176.952 11.3869C177.03 11.0201 177.12 10.7098 177.351 10.7098C177.498 10.7098 177.575 10.8586 177.559 11.1123C177.547 11.1756 177.533 11.2423 177.517 11.3177C177.494 11.4267 177.469 11.5347 177.445 11.6429C177.42 11.7169 177.391 11.7867 177.359 11.8332C177.299 11.9261 177.158 11.9838 177.076 11.9838C177.053 11.9838 176.91 11.9838 176.905 11.7519C176.904 11.6364 176.925 11.5174 176.952 11.3869ZM180.939 10.176L180.911 10.1407C180.551 10.2209 180.486 10.2337 180.156 10.2828L180.131 10.3095C180.13 10.3139 180.129 10.3206 180.128 10.3266L180.127 10.3206C179.881 10.9453 179.888 10.8106 179.687 11.3024C179.686 11.28 179.686 11.2661 179.685 11.2423L179.635 10.176L179.604 10.1407C179.227 10.2209 179.218 10.2337 178.87 10.2828L178.843 10.3095C178.839 10.3223 178.839 10.3363 178.837 10.3515L178.839 10.3569C178.883 10.6016 178.872 10.5471 178.916 10.9332C178.936 11.1227 178.963 11.3133 178.983 11.5005C179.018 11.8137 179.037 11.9679 179.079 12.446C178.844 12.8728 178.788 13.0344 178.562 13.409L178.564 13.4127L178.404 13.6901C178.386 13.7193 178.37 13.7393 178.346 13.7479C178.321 13.7617 178.288 13.7642 178.242 13.7642H178.154L178.023 14.2446L178.473 14.2531C178.737 14.2519 178.903 14.1159 178.992 13.933L179.275 13.3992H179.271L179.301 13.3616C179.491 12.9105 180.939 10.176 180.939 10.176ZM176.189 16.4848H175.998L176.705 13.9118H176.939L177.014 13.6468L177.021 13.9415C177.012 14.1237 177.142 14.2852 177.484 14.2585H177.88L178.016 13.763H177.867C177.781 13.763 177.742 13.7393 177.747 13.6883L177.74 13.3884H177.007V13.39C176.77 13.3954 176.063 13.415 175.92 13.457C175.747 13.5061 175.564 13.6507 175.564 13.6507L175.636 13.3853H174.95L174.808 13.9118L174.092 16.5241H173.953L173.816 17.0159H175.181L175.135 17.18H175.808L175.852 17.0159H176.041L176.189 16.4848ZM175.629 14.4346C175.519 14.468 175.315 14.5694 175.315 14.5694L175.497 13.9118H176.041L175.91 14.3909C175.91 14.3909 175.742 14.4018 175.629 14.4346ZM175.639 15.374C175.639 15.374 175.468 15.3977 175.356 15.4256C175.245 15.4626 175.037 15.5792 175.037 15.5792L175.225 14.8949H175.772L175.639 15.374ZM175.334 16.4908H174.788L174.947 15.9133H175.491L175.334 16.4908ZM176.65 14.8949H177.437L177.324 15.2982H176.526L176.406 15.739H177.104L176.576 16.5581C176.539 16.6183 176.506 16.6396 176.469 16.6565C176.432 16.6772 176.383 16.7015 176.327 16.7015H176.133L176 17.1843H176.507C176.77 17.1843 176.925 17.0525 177.04 16.8795L177.403 16.3335L177.48 16.8879C177.497 16.9917 177.565 17.0525 177.611 17.0761C177.661 17.1041 177.714 17.1521 177.788 17.1593C177.867 17.163 177.924 17.166 177.962 17.166H178.211L178.361 16.6256H178.263C178.206 16.6256 178.109 16.6152 178.093 16.5958C178.076 16.5721 178.076 16.5357 178.067 16.4804L177.988 15.9248H177.665L177.807 15.739H178.603L178.725 15.2982H177.988L178.103 14.8949H178.838L178.974 14.3976H176.784L176.65 14.8949ZM170.001 16.6031L170.185 15.9303H170.94L171.078 15.4299H170.322L170.438 15.0158H171.176L171.313 14.5312H169.465L169.331 15.0158H169.751L169.639 15.4299H169.218L169.078 15.9388H169.498L169.253 16.829C169.22 16.9468 169.269 16.9917 169.3 17.0465C169.331 17.0998 169.363 17.1351 169.435 17.1551C169.509 17.1733 169.559 17.1842 169.628 17.1842H170.48L170.631 16.6298L170.254 16.6869C170.181 16.6869 169.979 16.6773 170.001 16.6031ZM170.088 13.3823L169.897 13.763C169.856 13.8461 169.819 13.8978 169.786 13.9215C169.756 13.9416 169.698 13.95 169.614 13.95H169.515L169.381 14.437H169.713C169.872 14.437 169.995 14.3727 170.053 14.3405C170.116 14.3035 170.132 14.3246 170.181 14.273L170.293 14.1662H171.328L171.466 13.6591H170.708L170.84 13.3823H170.088ZM171.616 16.6129C171.599 16.5849 171.612 16.5356 171.638 16.433L171.921 15.4019H172.928C173.075 15.3996 173.181 15.3977 173.25 15.3923C173.324 15.3837 173.404 15.3546 173.492 15.3024C173.583 15.2477 173.629 15.19 173.668 15.1238C173.712 15.0577 173.782 14.9131 173.842 14.6902L174.198 13.3853L173.153 13.392C173.153 13.392 172.831 13.4442 172.689 13.5019C172.547 13.5663 172.342 13.746 172.342 13.746L172.437 13.3883H171.791L170.888 16.6869C170.856 16.815 170.834 16.9079 170.829 16.9637C170.828 17.0239 170.898 17.0834 170.944 17.1284C170.998 17.1733 171.078 17.166 171.155 17.1733C171.235 17.18 171.35 17.1842 171.508 17.1842H172.004L172.156 16.6183L171.712 16.6645C171.665 16.6645 171.631 16.6365 171.616 16.6129ZM172.104 14.7054H173.162L173.094 14.9374C173.085 14.9428 173.062 14.9259 172.955 14.9399H172.039L172.104 14.7054ZM172.316 13.9276H173.382L173.306 14.2069C173.306 14.2069 172.803 14.2015 172.722 14.2178C172.368 14.2853 172.161 14.4936 172.161 14.4936L172.316 13.9276ZM173.118 15.7141C173.109 15.7488 173.095 15.7699 173.076 15.7858C173.055 15.801 173.02 15.8064 172.968 15.8064H172.817L172.826 15.524H172.199L172.174 16.9049C172.173 17.0045 172.182 17.0622 172.248 17.1084C172.314 17.166 172.518 17.1733 172.793 17.1733H173.186L173.328 16.6565L172.986 16.6771L172.872 16.6844C172.856 16.6771 172.842 16.6704 172.825 16.6523C172.811 16.6366 172.786 16.6462 172.79 16.5466L172.793 16.1926L173.152 16.1763C173.345 16.1763 173.428 16.1069 173.499 16.0409C173.566 15.9776 173.588 15.9048 173.613 15.8064L173.674 15.493H173.181L173.118 15.7141Z" fill="#FEFEFE"/>
</g>
<g clip-path="url(#clip6_3906_5853)">
<path d="M213.5 4.5H193.5C192.395 4.5 191.5 5.39543 191.5 6.5V18.5C191.5 19.6046 192.395 20.5 193.5 20.5H213.5C214.605 20.5 215.5 19.6046 215.5 18.5V6.5C215.5 5.39543 214.605 4.5 213.5 4.5Z" fill="#016FD0"/>
<path fill-rule="evenodd" clip-rule="evenodd" d="M205.264 17.8948V12.1934L215.411 12.2025V13.7774L214.238 15.0308L215.411 16.2956V17.9039H213.539L212.543 16.8058L211.555 17.9081L205.264 17.8948Z" fill="#FFFFFE"/>
<path fill-rule="evenodd" clip-rule="evenodd" d="M205.941 17.2692V12.8203H209.714V13.8452H207.163V14.5409H209.653V15.5487H207.163V16.232H209.714V17.2692H205.941Z" fill="#016FD0"/>
<path fill-rule="evenodd" clip-rule="evenodd" d="M209.695 17.2691L211.783 15.0421L209.695 12.8203H211.311L212.586 14.2303L213.866 12.8203H215.412V12.8553L213.369 15.0421L215.412 17.206V17.2691H213.85L212.552 15.8449L211.267 17.2691H209.695Z" fill="#016FD0"/>
<path fill-rule="evenodd" clip-rule="evenodd" d="M205.737 7.13281H208.183L209.042 9.08366V7.13281H212.062L212.583 8.59438L213.105 7.13281H215.411V12.8342H203.225L205.737 7.13281Z" fill="#FFFFFE"/>
<path fill-rule="evenodd" clip-rule="evenodd" d="M206.201 7.75L204.227 12.1952H205.58L205.953 11.305H207.971L208.343 12.1952H209.731L207.765 7.75H206.201ZM206.37 10.3074L206.962 8.89236L207.554 10.3074H206.37Z" fill="#016FD0"/>
<path fill-rule="evenodd" clip-rule="evenodd" d="M209.713 12.1951V7.75L211.616 7.75654L212.595 10.4893L213.581 7.75H215.413V12.1951L214.234 12.2055V9.15217L213.121 12.1951H212.046L210.91 9.14174V12.1951H209.713Z" fill="#016FD0"/>
</g>
<defs>
<clipPath id="clip0_3906_5853">
<rect width="24" height="16" fill="white" transform="translate(0.5 4.5)"/>
</clipPath>
<clipPath id="clip1_3906_5853">
<rect width="24" height="16" fill="white" transform="translate(32.5 4.5)"/>
</clipPath>
<clipPath id="clip2_3906_5853">
<rect width="23" height="16" fill="white" transform="translate(64.5 4.5)"/>
</clipPath>
<clipPath id="clip3_3906_5853">
<rect width="24" height="16" fill="white" transform="translate(95.5 4.5)"/>
</clipPath>
<clipPath id="clip4_3906_5853">
<rect width="24" height="16" fill="white" transform="translate(127.5 4.5)"/>
</clipPath>
<clipPath id="clip5_3906_5853">
<rect width="24" height="16" fill="white" transform="translate(159.5 4.5)"/>
</clipPath>
<clipPath id="clip6_3906_5853">
<rect width="24" height="16" fill="white" transform="translate(191.5 4.5)"/>
</clipPath>
</defs>
</svg>
