<svg width="20" height="20" fill="none" xmlns="http://www.w3.org/2000/svg"><path d="M3.104 4.53s1.657 8.291 6.89 12.907c.127-.11.25-.228.374-.342l.05-.046.046-.045.137-.133.04-.045.046-.046c.128-.123.252-.251.37-.379l.041-.046.041-.045.128-.137.041-.046.041-.046c.114-.127.229-.26.338-.392l.037-.046.04-.046c.042-.045.079-.095.115-.141l.037-.046a.353.353 0 00.036-.05l.315-.402.032-.045.037-.05.105-.142.036-.05.037-.046.283-.411.036-.046.032-.05.1-.146.033-.05.032-.05c.086-.137.178-.274.264-.416l.032-.05.028-.05.091-.146.032-.05a.188.188 0 01.032-.05l.247-.425.027-.05.027-.051c.032-.05.06-.1.087-.15l.027-.05.028-.051c.082-.146.16-.288.233-.43l.027-.05.027-.05c.024-.053.05-.105.078-.155l.028-.055a.54.54 0 00.022-.05c.073-.146.146-.288.215-.434l.027-.05.023-.05.078-.155.023-.055a.17.17 0 00.022-.05 14.625 14.625 0 00.229-.512.248.248 0 010-.05c.023-.055.04-.105.068-.16a.243.243 0 01.023-.05.279.279 0 010-.055c.064-.146.123-.297.187-.456V9.41a.17.17 0 000-.05c.023-.055.046-.105.064-.16l.023-.055a.543.543 0 00.023-.05c.06-.15.119-.302.173-.457v-.055l.023-.054c0-.05.037-.105.06-.16v-.055a.234.234 0 000-.05c.057-.155.112-.308.164-.457v-.055a.25.25 0 000-.054l.055-.165a.222.222 0 000-.05v-.055c.055-.16.105-.31.15-.456v-.055a.25.25 0 010-.055c0-.055.032-.11.05-.164v-.055a.25.25 0 000-.055c.05-.16.096-.315.138-.456v-.11c0-.055.032-.114.045-.164a.25.25 0 000-.055v-.055l.123-.457V5.178c0-.06.032-.114.042-.164V4.9c.059-.242.086-.38.086-.38L9.993 2.106 3.103 4.53zm7.182 12.15l-.046.04c-.046.046-.091.092-.142.133l-.045.046-.05.04v-.415l.337.119-.054.037zm.675-.699l-.045.046-.128.137-.041.045-.041.046-.713-.251v-.42l1.01.351-.042.046zm.626-.717l-.041.046c-.036.049-.074.096-.114.141l-.037.046-.041.05-1.347-.456v-.425l1.616.57-.036.028zm4.648-9.556v.055c0 .05-.032.11-.046.164a.25.25 0 000 .055l-.036.04-1.37-.456-.178.457 1.37.488v.11c0 .018-.032.105-.05.164V6.89l-1.412-.493-.178.457 1.439.507c-.02.054-.02.054-.037.109l-.055.165a.385.385 0 000 .054v.05l-1.456-.51-.178.456 1.47.516v.109c0 .019-.041.105-.06.16l-.022.055v.05l-1.868-.657a.634.634 0 00-.086.155l-.028.068-.091.215 1.895.671v.05l-.023.055c0 .05-.041.105-.064.16a.542.542 0 00-.023.05.279.279 0 010 .055l-1.895-.667-.178.457 1.708.616a.169.169 0 01-.023.05.279.279 0 01-.023.055l-.068.156a.28.28 0 01-.023.054l-.023.05-1.877-.661-.182.456 1.863.626-.028.054a.25.25 0 01-.022.05l-.074.156-.022.05-.028.055-1.826-.648-.178.456 1.799.635-.028.05-.027.05a2.44 2.44 0 01-.078.156l-.027.05-.027.05-1.772-.612-.183.457 1.713.602-.028.05-.027.05c-.028.051-.055.101-.087.152l-.027.05-.028.05-1.666-.593-.17.456 1.594.562-.027.05-.032.05c-.032.05-.06.1-.091.146l-.028.05-.045.055-1.535-.538-.182.456 1.447.507-.032.05-.032.05-.1.146-.032.05-.037.046-1.37-.48-.155.384h-.205l1.438.507-.032.046-.036.05-.105.142a.339.339 0 00-.037.05l-.037.045-1.93-.68V14h-.937L6.665 8.105l-.028-.069s-.15-.383-.456-.383h-.164l-.854-2.15h2.543l2.283 5.748.296-.74-.296-.105v-.425l.456.156.178-.457-.62-.219v-.42l.767.27.178-.457-.946-.334v-.424l1.096.383.178-.456-1.274-.457v-.424l1.42.497.178-.456-1.598-.562v-.425l1.745.617.182-.457-1.927-.675v-.366l2.073.73.178-.456-2.26-.785v-.42l3.196 1.118h1.448l-4.644-1.63v-.424l6.26 2.2a.229.229 0 00-.018.06zm.224-.858v.059a.407.407 0 01-.042.164v.11L10.025 2.94v-.425l6.48 2.283-.046.05z" fill="#AF1E23"/><path d="M17.249 3.49l-6.89-2.425a1.06 1.06 0 00-.73 0l-6.89 2.424a1.105 1.105 0 00-.717 1.26c.068.361 1.803 8.717 7.241 13.497a1.096 1.096 0 001.461 0c5.429-4.78 7.173-13.136 7.255-13.496a1.105 1.105 0 00-.73-1.26zm.324 1.164C17.5 5 15.8 13.237 10.455 17.93a.717.717 0 01-.913 0C4.186 13.251 2.487 5.014 2.414 4.654a.703.703 0 01.457-.8l6.89-2.396a.657.657 0 01.456 0l6.9 2.41a.708.708 0 01.456.786z" fill="#AF1E23"/></svg>
