<svg width="49" height="29" fill="none" xmlns="http://www.w3.org/2000/svg"><path d="M25 14.5C25 7.612 19.387 2 12.5 2 5.6 2 0 7.612 0 14.5 0 21.4 5.6 27 12.5 27 19.387 27 25 21.4 25 14.5ZM9.725 21.212 5.463 9.775c.687-.025 1.462-.1 1.462-.1.625-.075.55-1.413-.075-1.388 0 0-1.813.138-2.962.138-.225 0-.463 0-.725-.013C5.15 5.362 8.588 3.387 12.5 3.387c2.912 0 5.563 1.088 7.563 2.925C19.212 6.175 18 6.8 18 8.287c0 .925.563 1.7 1.125 2.625.438.763.688 1.7.688 3.075 0 1.863-1.75 6.25-1.75 6.25L14.274 9.775c.675-.025 1.025-.213 1.025-.213.625-.062.55-1.562-.075-1.525 0 0-1.8.15-2.975.15-1.088 0-2.912-.15-2.912-.15-.625-.037-.7 1.5-.075 1.525l1.15.1 1.575 4.263-2.263 7.287ZM21.762 14.5c.3-.8.925-2.338.538-5.313.875 1.613 1.313 3.388 1.313 5.313 0 4.112-2.163 7.8-5.5 9.725 1.212-3.238 2.425-6.5 3.65-9.725ZM7.625 24.612c-3.725-1.8-6.237-5.7-6.237-10.112 0-1.625.287-3.1.9-4.488 1.775 4.863 3.55 9.738 5.337 14.6Zm5.037-8.287 3.225 8.725c-1.075.362-2.2.562-3.387.562a9.846 9.846 0 0 1-2.863-.412c1.013-2.975 2.025-5.925 3.025-8.875Z" fill="#3F5BE0"/><path d="M34.166 2c-6.886 0-12.5 5.599-12.5 12.5 0 6.902 5.598 12.5 12.5 12.5s12.5-5.598 12.5-12.5c0-6.901-5.598-12.5-12.5-12.5Zm-.644 14.571h-6.227l6.227-12.117v12.117Zm1.273 7.945V12.399h6.211l-6.211 12.117Z" fill="#069E08"/><path fill-rule="evenodd" clip-rule="evenodd" d="m33.522 4.454-6.227 12.117h6.227V4.454Zm-1.5 10.617v-4.416l-2.27 4.416h2.27Zm2.773-2.672v12.117l6.211-12.117h-6.211Zm1.5 1.5h2.257l-2.257 4.403v-4.403Zm-16.129.602c0-7.732 6.286-14 14-14 7.73 0 14 6.27 14 14s-6.27 14-14 14-14-6.27-14-14Zm1.5 0c0-6.902 5.613-12.5 12.5-12.5 6.902 0 12.5 5.598 12.5 12.5 0 6.901-5.598 12.5-12.5 12.5s-12.5-5.599-12.5-12.5Z" fill="#fff"/></svg>