<svg xmlns="http://www.w3.org/2000/svg" width="49" height="29" fill="none"><g clip-path="url(#wp-to-jp-rtl-a)"><path fill="#3F5BE0" d="M49 14.5C49 7.612 43.388 2 36.5 2 29.6 2 24 7.612 24 14.5 24 21.4 29.6 27 36.5 27 43.388 27 49 21.4 49 14.5Zm-15.275 6.712L29.462 9.775c.688-.025 1.463-.1 1.463-.1.625-.075.55-1.413-.075-1.388 0 0-1.813.138-2.963.138-.224 0-.462 0-.724-.013 1.987-3.05 5.424-5.025 9.337-5.025 2.913 0 5.563 1.088 7.563 2.925C43.212 6.175 42 6.8 42 8.287c0 .925.563 1.7 1.125 2.625.438.763.688 1.7.688 3.075 0 1.863-1.75 6.25-1.75 6.25L38.275 9.776c.675-.025 1.025-.213 1.025-.213.625-.062.55-1.562-.075-1.524 0 0-1.8.15-2.975.15-1.087 0-2.913-.15-2.913-.15-.625-.038-.7 1.5-.075 1.524l1.15.1 1.575 4.263-2.262 7.287ZM45.763 14.5c.3-.8.925-2.338.537-5.313.875 1.613 1.313 3.388 1.313 5.313 0 4.113-2.163 7.8-5.5 9.725 1.212-3.238 2.425-6.5 3.65-9.725ZM31.625 24.613c-3.725-1.8-6.238-5.7-6.238-10.113 0-1.625.288-3.1.9-4.488 1.776 4.863 3.55 9.738 5.338 14.6Zm5.038-8.288 3.225 8.725c-1.075.363-2.2.563-3.388.563a9.846 9.846 0 0 1-2.862-.413c1.012-2.975 2.025-5.925 3.025-8.875Z"/><path fill="#069E08" d="M14.834 2c-6.886 0-12.5 5.598-12.5 12.5S7.934 27 14.835 27c6.902 0 12.5-5.598 12.5-12.5S21.736 2 14.834 2Zm-.644 14.57H7.963L14.19 4.454V16.57Zm1.273 7.945V12.4h6.212l-6.212 12.116Z"/><path fill="#fff" fill-rule="evenodd" d="M14.19 4.454 7.963 16.571h6.227V4.454Zm-1.5 10.617v-4.416l-2.27 4.416h2.27Zm2.773-2.672v12.117l6.212-12.117h-6.212Zm1.5 1.5h2.257l-2.257 4.403v-4.403Zm-16.129.602c0-7.732 6.287-14 14-14 7.73 0 14 6.27 14 14s-6.27 14-14 14-14-6.27-14-14Zm1.5 0c0-6.902 5.614-12.5 12.5-12.5 6.902 0 12.5 5.598 12.5 12.5 0 6.901-5.598 12.5-12.5 12.5-6.901 0-12.5-5.599-12.5-12.5Z" clip-rule="evenodd"/></g><defs><clipPath id="wp-to-jp-rtl-a"><path fill="#fff" d="M49 0H0v29h49z"/></clipPath></defs></svg>
