<svg width="49" height="29" fill="none" xmlns="http://www.w3.org/2000/svg"><path d="M25 14.5C25 7.612 19.387 2 12.5 2 5.6 2 0 7.612 0 14.5 0 21.4 5.6 27 12.5 27 19.387 27 25 21.4 25 14.5ZM9.725 21.212 5.463 9.775a28.59 28.59 0 0 0 1.462-.1c.625-.075.55-1.413-.075-1.388 0 0-1.813.138-2.962.138-.225 0-.463 0-.725-.013C5.15 5.362 8.588 3.387 12.5 3.387c2.912 0 5.563 1.088 7.563 2.925C19.212 6.175 18 6.8 18 8.287c0 .925.563 1.7 1.125 2.625.438.763.688 1.7.688 3.075 0 1.863-1.75 6.25-1.75 6.25L14.274 9.776c.675-.025 1.025-.213 1.025-.213.625-.062.55-1.562-.075-1.524 0 0-1.8.15-2.975.15-1.088 0-2.912-.15-2.912-.15-.625-.038-.7 1.5-.075 1.524l1.15.1 1.575 4.263-2.263 7.287ZM21.762 14.5c.3-.8.925-2.338.538-5.313.875 1.613 1.313 3.388 1.313 5.313 0 4.113-2.163 7.8-5.5 9.725 1.212-3.238 2.425-6.5 3.65-9.725ZM7.625 24.613c-3.725-1.8-6.237-5.7-6.237-10.113 0-1.625.287-3.1.9-4.488 1.775 4.863 3.55 9.738 5.337 14.6Zm5.037-8.288 3.225 8.725c-1.075.363-2.2.563-3.387.563a9.846 9.846 0 0 1-2.863-.413c1.013-2.975 2.025-5.925 3.025-8.875Z" fill="#3F5BE0"/><path d="M34.166 1.25c-7.3 0-13.25 5.934-13.25 13.25 0 7.317 5.934 13.25 13.25 13.25s13.25-5.933 13.25-13.25c0-7.316-5.934-13.25-13.25-13.25Zm-1.394 14.571h-4.249l4.249-8.266v8.266Zm7.007-2.672-4.234 8.26v-8.26h4.234Z" fill="#069E08" stroke="#fff" stroke-width="1.5"/></svg>