<svg enable-background="new 0 0 160 160" viewBox="0 0 160 160" xmlns="http://www.w3.org/2000/svg"><path d="m137.6 84.2v-5.8l-.1-11.7v-2.9c0-1-.1-2-.3-3-.4-2-1.2-3.9-2.3-5.6-2.2-3.4-5.7-6-9.7-6.9-1-.2-2-.4-3-.4h-19.2v-4.6c0-8.4-6.8-15.3-15.3-15.3h-48c-8.4 0-15.3 6.8-15.3 15.3v22.7c0 8.4 6.8 15.3 15.3 15.3h.3l-5 12.7c13.3-2.6 19.6-12.8 19.6-12.8h8.4v5.8c.1 4.1 1.9 8.1 4.9 10.9 2.9 2.9 7 4.5 11.1 4.5l23.1.2c1.1 1.6 2.3 3 3.7 4.3 1.5 1.4 3.1 2.7 4.8 3.9 3.4 2.3 7.3 3.9 11.4 4.6h.5c.5-.2.8-.7.7-1.3l-3.4-11.5h1.6c1 0 2.1-.1 3.1-.3 2-.4 4-1.1 5.7-2.3 3.5-2.2 6.1-5.8 7-9.8.2-1 .4-2 .4-3zm-1.6-17.5v20.4c-.1.9-.2 1.8-.4 2.7-.9 3.6-3.2 6.7-6.3 8.6-1.6 1-3.3 1.6-5.1 1.9-.9.2-1.8.2-2.7.2h-3.2c-.5.2-.8.7-.7 1.2l3.2 11.1c-3.2-.8-6.2-2.2-9-4-1.6-1.1-3.1-2.3-4.5-3.6s-2.7-2.8-3.7-4.3c-.2-.3-.5-.4-.8-.4l-23.6.2c-3.7 0-7.4-1.4-10-4-2.7-2.5-4.4-6.1-4.5-9.9l-.1-23.3c0-3.8 1.5-7.5 4.1-10.2s6.3-4.3 10-4.5c7.8 0 15.6-.1 23.3 0l11.7.1h8.7c.9 0 1.9.2 2.8.4 3.6.9 6.9 3.2 8.8 6.4 1 1.6 1.7 3.3 2 5.2.2.9.2 1.8.2 2.8z" fill="#6ab3d0"/><path d="m129.3 125.4c-1.2-2.7-.7-6.1 1.1-8.6.9-1.2 2.1-2.3 3.4-3 1.4-.7 2.9-1.1 4.4-1.2 3.1-.1 6.2 1.4 8.1 3.8s2.6 5.7 1.7 8.5c0 .2-.2.2-.4.2-.1 0-.2-.2-.2-.3.3-2.7-.5-5.5-2.3-7.4-.9-1-1.9-1.8-3.1-2.3s-2.5-.8-3.8-.7c-2.6.1-5.1 1.3-6.7 3.4s-2.4 4.8-2 7.6c0 .1 0 .2-.1.2 0-.1 0-.2-.1-.2zm16.5 4.1c-.5 1.3-1.6 2.4-3 3.1-.7.4-1.4.6-2.1.8-.7.1-1.5.2-2.2.2-1.5-.1-3-.6-4.2-1.3-1.2-.8-2.3-1.9-2.8-3.3-.1-.2 0-.3.2-.4.1 0 .3 0 .3.1.9 1 1.9 1.7 3 2.3s2.3.9 3.6.9c1.2 0 2.5-.2 3.6-.6 1.2-.5 2.2-1.1 3.4-1.9h.2zm-19.2-4.6c1.3 0 2.5-.4 3.8-.7 1.2-.4 2.4-.9 3.5-1.6 1.1-.6 2.1-1.4 2.9-2.4s1.3-2.1 1.6-3.3c0-.2.2-.3.4-.2.1 0 .2.1.2.2.3 1.4-.2 3-1 4.2s-2 2.2-3.2 3-2.6 1.3-4 1.6l-1.1.2h-1.1c-.7 0-1.5-.2-2.1-.6-.1 0-.1-.1 0-.2 0-.2 0-.2.1-.2zm23.1.3c-1.3.4-2.6.4-3.9.1s-2.6-.7-3.8-1.4-2.2-1.7-2.9-3c-.7-1.2-.9-2.7-.6-4 0-.2.2-.3.4-.2.1 0 .2.1.2.2.3 1.2.7 2.3 1.3 3.2s1.5 1.7 2.5 2.3 2.1 1.1 3.2 1.4c1.2.4 2.3.7 3.6 1.1.1 0 .1.1.1.2-.1 0-.1 0-.1.1zm-138.3-25.3c.1-1.1.5-2.2 1-3.3.6-1 1.3-1.9 2.2-2.7 1.8-1.6 4.2-2.4 6.6-2.3s4.8 1 6.6 2.6 3 3.9 3.3 6.3-.3 4.9-1.6 6.9-3.3 3.6-5.7 4.2c-2.3.7-4.8.5-7-.5-2.1-1-3.9-2.8-4.8-4.9-.1-.2 0-.3.2-.4.1-.1.3 0 .4.1 1.1 1.9 2.8 3.3 4.7 4.1 1.9.7 4.1.8 6.1.2s3.7-1.9 4.7-3.7c1.1-1.7 1.6-3.8 1.3-5.8s-1.2-3.9-2.7-5.3-3.5-2.2-5.5-2.3-4.1.5-5.8 1.7-3 3-3.6 5.1c0 .1-.1.1-.2.1-.2 0-.2 0-.2-.1zm-1.7-.4c.8.2 1.4.4 2.1.6s1.4.4 2 .5c1.4.3 2.7.3 4.1.2s2.7-.4 4-.9 2.6-1.1 3.8-1.8c.1-.1.3 0 .4.1s0 .3 0 .3c-1 1.2-2.3 2-3.7 2.7s-2.9 1.1-4.4 1.2c-.8.1-1.6 0-2.3 0-.8-.1-1.5-.2-2.3-.5-1.5-.4-2.9-1.2-4-2.3-.1-.1-.1-.2 0-.2.2.1.3.1.3.1z" fill="#a7aaad"/><g fill="#6ab3d0"><circle cx="83.7" cy="76.5" r="2.6"/><circle cx="100.2" cy="76.5" r="2.6"/><circle cx="116.7" cy="76.5" r="2.6"/></g></svg>
