<svg viewBox="0 0 160 160" xmlns="http://www.w3.org/2000/svg"><g fill="#a7aaad"><path d="m137.6 84.2v-5.8l-.1-11.7v-2.9a15.26 15.26 0 0 0 -.3-3 16.19 16.19 0 0 0 -2.3-5.6 15.91 15.91 0 0 0 -9.7-6.9 15.44 15.44 0 0 0 -3-.4h-19.2v-4.6a15.3 15.3 0 0 0 -15.3-15.3h-48a15.3 15.3 0 0 0 -15.3 15.3v22.7a15.3 15.3 0 0 0 15.3 15.3h.3l-5 12.7a31.36 31.36 0 0 0 19.6-12.8h8.4v5.8a15.58 15.58 0 0 0 4.9 10.9 15.83 15.83 0 0 0 11.1 4.5l23.1.2a25.43 25.43 0 0 0 3.7 4.3 45.37 45.37 0 0 0 4.8 3.9 29.18 29.18 0 0 0 11.4 4.6h.5a1.15 1.15 0 0 0 .7-1.3l-3.4-11.5h1.6a16.28 16.28 0 0 0 3.1-.3 14.9 14.9 0 0 0 5.7-2.3 15.88 15.88 0 0 0 7-9.8 15.44 15.44 0 0 0 .4-3zm-1.6-17.5v20.4a25.12 25.12 0 0 1 -.4 2.7 14.15 14.15 0 0 1 -6.3 8.6 13.74 13.74 0 0 1 -5.1 1.9 12.29 12.29 0 0 1 -2.7.2h-3.2a1.09 1.09 0 0 0 -.7 1.2l3.2 11.1a30.24 30.24 0 0 1 -9-4 39.43 39.43 0 0 1 -4.5-3.6 24.81 24.81 0 0 1 -3.7-4.3.91.91 0 0 0 -.8-.4l-23.6.2a14.52 14.52 0 0 1 -14.5-13.9l-.1-23.3a14.8 14.8 0 0 1 4.1-10.2 15.19 15.19 0 0 1 10-4.5c7.8 0 15.6-.1 23.3 0l11.7.1h8.7a13.51 13.51 0 0 1 2.8.4 14.34 14.34 0 0 1 8.8 6.4 13.74 13.74 0 0 1 2 5.2 12.75 12.75 0 0 1 .2 2.8zm-6.7 58.7a8.91 8.91 0 0 1 1.1-8.6 10.84 10.84 0 0 1 3.4-3 11.57 11.57 0 0 1 4.4-1.2 10.14 10.14 0 0 1 8.1 3.8 9.4 9.4 0 0 1 1.7 8.5c0 .2-.2.2-.4.2s-.2-.2-.2-.3a9.34 9.34 0 0 0 -2.3-7.4 8.67 8.67 0 0 0 -3.1-2.3 8.3 8.3 0 0 0 -3.8-.7 8.83 8.83 0 0 0 -6.7 3.4 10.14 10.14 0 0 0 -2 7.6c0 .1 0 .2-.1.2s0-.2-.1-.2zm16.5 4.1a6 6 0 0 1 -3 3.1 9 9 0 0 1 -2.1.8 16.35 16.35 0 0 1 -2.2.2 9.86 9.86 0 0 1 -4.2-1.3 6.94 6.94 0 0 1 -2.8-3.3c-.1-.2 0-.3.2-.4s.3 0 .3.1a10.93 10.93 0 0 0 3 2.3 7.4 7.4 0 0 0 3.6.9 10.88 10.88 0 0 0 3.6-.6 19.34 19.34 0 0 0 3.4-1.9h.2zm-19.2-4.6a16.92 16.92 0 0 0 3.8-.7 15.76 15.76 0 0 0 3.5-1.6 9.55 9.55 0 0 0 2.9-2.4 8.45 8.45 0 0 0 1.6-3.3c0-.2.2-.3.4-.2a.22.22 0 0 1 .2.2 5.77 5.77 0 0 1 -1 4.2 11.45 11.45 0 0 1 -3.2 3 11.59 11.59 0 0 1 -4 1.6l-1.1.2h-1.1a3.94 3.94 0 0 1 -2.1-.6c-.1 0-.1-.1 0-.2s0-.2.1-.2zm23.1.3a7.38 7.38 0 0 1 -3.9.1 13.41 13.41 0 0 1 -3.8-1.4 7.62 7.62 0 0 1 -2.9-3 5.62 5.62 0 0 1 -.6-4c0-.2.2-.3.4-.2a.22.22 0 0 1 .2.2 10.23 10.23 0 0 0 1.3 3.2 7.91 7.91 0 0 0 2.5 2.3 13 13 0 0 0 3.2 1.4c1.2.4 2.3.7 3.6 1.1.1 0 .1.1.1.2s-.1 0-.1.1zm-138.3-25.3a10.42 10.42 0 0 1 1-3.3 11.33 11.33 0 0 1 2.2-2.7 9.37 9.37 0 0 1 6.6-2.3 10.69 10.69 0 0 1 6.6 2.6 10.24 10.24 0 0 1 3.3 6.3 10.45 10.45 0 0 1 -1.6 6.9 9.72 9.72 0 0 1 -5.7 4.2 9.79 9.79 0 0 1 -11.8-5.4c-.1-.2 0-.3.2-.4s.3 0 .4.1a9.82 9.82 0 0 0 4.7 4.1 9.78 9.78 0 0 0 6.1.2 7.93 7.93 0 0 0 4.7-3.7 8.49 8.49 0 0 0 1.3-5.8 9 9 0 0 0 -2.7-5.3 8.77 8.77 0 0 0 -5.5-2.3 9.33 9.33 0 0 0 -9.4 6.8c0 .1-.1.1-.2.1s-.2 0-.2-.1zm-1.7-.4c.8.2 1.4.4 2.1.6a19.45 19.45 0 0 0 2 .5 14.13 14.13 0 0 0 4.1.2 13.67 13.67 0 0 0 4-.9 26.4 26.4 0 0 0 3.8-1.8c.1-.1.3 0 .4.1s0 .3 0 .3a11.05 11.05 0 0 1 -3.7 2.7 11.57 11.57 0 0 1 -4.4 1.2 17.63 17.63 0 0 1 -2.3 0 9.48 9.48 0 0 1 -2.3-.5 9 9 0 0 1 -4-2.3c-.1-.1-.1-.2 0-.2a.77.77 0 0 0 .3.1z"/><circle cx="83.7" cy="76.5" r="2.6"/><circle cx="100.2" cy="76.5" r="2.6"/><circle cx="116.7" cy="76.5" r="2.6"/></g></svg>
