<svg viewBox="0 0 388 197" xmlns="http://www.w3.org/2000/svg"><g transform="translate(32 28)"><path d="m294.3 188.7c-.1.1-.3.1-.4.2 0 .7-.1 1.3-.2 2-.2 2.4-.5 4.7-.8 7-.6 4.6-1.2 9.1-2.2 13.6 10.4.1 20.7.3 31 .5 0 0 0-.1-.1-.1-1.1-4.6-1.6-9.3-2.3-14-.3-2.4-.5-4.7-.8-7-.1-1.6-.2-3.1-.3-4.7l-22.9.1c.4 1-.1 1.9-1 2.4z" fill="none"/><path d="m280.2 208.2c-.7-4.3-2.2-10.8-3.7-16.7-1.1 0-2.2-.1-3.3-.1-1.8 8.6-4.5 13.3-6 17.9.1.7.1 1.4 0 2.1l8 .1c1.2-.9 2.7-1.9 4.3-3.3.1-.1.2-.1.3-.1.3-.1.4 0 .4.1z" fill="none"/><path d="m292.6 190.9c.1-.4.1-.8.2-1.1-2 .7-4.1 1.2-6.3 1.4 1.6 4.8.1 12.2.1 17.3.4 1.4.4 2.4.2 3.1h3.7c.1-4.6.7-9.2 1.2-13.8.2-2.3.6-4.6.9-6.9z" fill="none"/><path d="m277.7 155.8c4.5-2.8 5.2-11.1 5.3-15.7-2.9-1.8-6.1-6-8.6-10.3v27c.4-.2.9-.3 1.3-.5.6-.2 1.3-.4 2-.5z" fill="none"/><path d="m260.2 189.3c0 .5-.1 1.1-.1 1.6-.2 2.4-.5 4.7-.8 7-.6 4.1-1.1 8.1-1.9 12.1.8-.5 1.7-1 2.6-1.6.1-.1.2-.1.3 0l1.8-18.6c-.7-.1-1.3-.3-1.9-.5z" fill="none"/><path d="m280 121.5c.3-1.1.7-2.2 1.1-3.3l.2-1.6c-.1 0-.2 0-.2-.1-.1-.1-.2-.3-.1-.5.5-1.1 1.1-2.1 1.8-3l.4-.6c.5-1 1.1-1.9 1.8-2.7l.8-1.2c-.3-1.7-1-3.3-2-4.6 0 0-.1 0-.1.1v.2c-1.7.2-3.1 0-4.2-.5-2-.6-3.7-1.7-4.9-3.3v14.2c1.1 1.2 2.1 2.5 3 3.8.4 1.1 1.3 2.2 2.4 3.1z" fill="none"/><path d="m310 123.9c.8 2.1-.8 3.9-3.1 5.2h1c1-.6 1.9-1.5 2.5-2.5.5-.9.6-2.1.2-3.1-.4-.9-.8-1.7-1.3-2.5-.2.1-.4.2-.5.3.5.9.9 1.8 1.2 2.6z" fill="#004e6e"/><path d="m309.6 124.1c.3.6.2 1.3-.1 1.9-.5.8-1.4 1.6-2.5 2.2 0 .2.1.5.1.7 2.4-1.3 4.1-3 3.2-5.1l-1.2-2.4c-.2.1-.4.2-.5.4.3.8.7 1.5 1 2.3z" fill="#004e6e"/><path d="m144.6 47.9v-.5h-60.5v64.3h.2v-63.8z" fill="#f6f7f7"/><path d="m71.1 181.8c-.1-.2-.1-.3 0-.5s.2-.3.3-.4c.1 0 .2-.1.3-.1 3.5 0 6.9.1 10.4.2-.1-1.8-.2-3.5-.2-5.3-.4.3-.9.5-1.4.7-1 .4-2.1.5-3.1.3-1.1-.2-2.1-.6-3-1.3-.4-.3-.8-.7-1.2-1.2-.4-.6-.6-1.4-.4-2.1s.7-1.3 1.4-1.7c.5-.2 1-.4 1.5-.5 1.1-.2 2.2-.2 3.2.1 1.1.3 2 .9 2.7 1.7.1.1.2.3.3.4.1-1.4.2-2.8.5-4.1v-.1h-.8c-1.1 0-2.1-.3-3-.8-1-.5-1.8-1.3-2.4-2.2-.3-.5-.5-1-.7-1.5-.2-.7-.1-1.5.3-2.1s1.1-1 1.9-1.1c.5-.1 1.1-.1 1.6 0 1.1.1 2.1.5 3 1.1.7.5 1.2 1.1 1.6 1.8.1-.2.2-.3.3-.5v-2.9c-.6-.2-1.2-.5-1.7-.9-.9-.6-1.6-1.5-2-2.5-.3-.5-.4-1.1-.5-1.7 0-.7.3-1.4.7-1.9.5-.5 1.2-.8 1.9-.9h.5l.4.1c.2 0 .5.1.7.2l.1-32.6 61.3.6-.1 49.3-53.2.8c-1.3.7-2.8.9-4.3.7-.5-.1-1.1-.3-1.5-.6h-1.6c-.1.5-.2 1.1-.3 1.6.2-.1.4-.2.5-.3 1.1-.5 2.4-.7 3.7-.5 1.2.2 2.4.8 3.2 1.7.2.2.5.5.6.8.2.3.2.7.2 1.1-.1.7-.5 1.3-1.1 1.5l.1.1c-1.4 1.2-3.2 1.8-5 1.5-.9-.1-1.8-.5-2.6-1l-.1-.1c-.1 1.3-.1 2.7-.3 4.2 2.6-.1 5.3-.2 7.9-.3.2 0 .4.1.5.3s.1.4 0 .6c-.1.3-.3.6-.4.9h164.7v-1.4c-.7-1.8-.7-3.8.1-5.5.1-.3.2-.5.4-.8.1-.3.1-.6.2-.9 0-.2.1-.4.1-.5l.5-2.5c.2-.9.4-1.8.8-2.6 1-1.9 2.4-3.6 4-5 2.7-2.7 6.2-4.7 10.5-6 .3-.1.7-.2 1-.4v-27.2c-2.6-4.2-4.6-8.4-5.4-10.6-1.9-1.1-3.7-4.3-4.3-6.9-.3-1.6-.2-2.8.5-3.6.4-.4.9-.6 1.4-.5 2 .2 5.3 3.2 7.8 6.2v-14.2c-.8-1-1.5-2.1-2-3.3-.2-.4-.7-.6-1.2-.8-.8-.3-1.8-.8-1.9-1.8s.5-1.8 1.1-2.7c.5-.7 1-1.5 1.3-2.4-.1-.1-.1-.3-.1-.4l.1-.2c.1 0 .1-.1.2-.1.1-.4.1-.8.1-1.2 0-1.5.4-3 1.1-4.3v-.1c.1-1 .6-1.8 1.4-2.4v-44.7h-3.7c-.8 0-1.5-.7-1.5-1.5h-4.4c0 .8-.7 1.5-1.5 1.5h-7.3c-.8 0-1.5-.7-1.5-1.5h-4.3c0 .8-.7 1.5-1.5 1.5h-7.3c-.8 0-1.5-.7-1.5-1.5h-4.4c0 .8-.7 1.5-1.5 1.5h-7.3c-.8 0-1.5-.7-1.5-1.5h-4.4c0 .8-.7 1.5-1.5 1.5h-7.3c-.8 0-1.5-.7-1.5-1.5h-4.3c0 .8-.7 1.5-1.5 1.5h-7.3c-.8 0-1.5-.7-1.5-1.5h-4.4c0 .8-.7 1.5-1.5 1.5h-7.3c-.8 0-1.5-.7-1.5-1.5h-4.4c0 .8-.7 1.5-1.5 1.5h-7.3c-.8 0-1.5-.7-1.5-1.5h-4.3c0 .8-.7 1.5-1.5 1.5h-7.3c-.8 0-1.5-.7-1.5-1.5h-4.4c0 .8-.7 1.5-1.5 1.5h-7.3c-.8 0-1.5-.7-1.5-1.5h-4.4c0 .8-.7 1.5-1.5 1.5h-7.3c-.8 0-1.5-.7-1.5-1.5h-4.3c0 .8-.7 1.5-1.5 1.5h-7.3c-.8 0-1.5-.7-1.5-1.5h-4.3c0 .8-.7 1.5-1.5 1.5h-7.4c-.8 0-1.5-.7-1.5-1.5h-4.4c0 .4-.2.8-.4 1.1s-.7.4-1.1.4h-7.3c-.4 0-.8-.2-1.1-.4s-.4-.7-.4-1.1h-4.4c0 .8-.7 1.5-1.5 1.5h-3.7v96.5c1.2.2 2.3.7 3.3 1.3 1.1.7 2.1 1.6 2.9 2.7 1.6 2.1 2.6 4.5 2.8 7.1s-.3 5.1-1.3 7.5c-1.7 3.9-4.4 7.4-7.7 10v22h2.7zm116.2-20c-3 0-5.4-2.4-5.4-5.4s2.4-5.4 5.4-5.4 5.4 2.4 5.4 5.4c0 2.9-2.4 5.4-5.4 5.4zm17.9 0c-2.2 0-4.2-1.3-5-3.3s-.4-4.3 1.2-5.9c1.5-1.5 3.9-2 5.9-1.2s3.3 2.8 3.3 5c.1 2.9-2.4 5.4-5.4 5.4zm16.5 0c-3 0-5.4-2.4-5.4-5.4s2.4-5.4 5.4-5.4 5.4 2.4 5.4 5.4c0 2.9-2.4 5.4-5.4 5.4zm37-56.4c-7.7.2-15.5.3-23.2.4l-23.2.1c-7.7 0-15.5 0-23.2-.1l-23.2-.3c-.5 0-.9-.4-.9-.9s.4-.9.9-.9c7.7-.1 15.5-.3 23.2-.3s15.5-.1 23.2-.1l23.2.1c7.7.1 15.5.2 23.2.4.5 0 .9.4.9.9s-.4.8-.9.7zm0-14.8c.5 0 .9.4.9.9s-.4.9-.9.9c-7.7.2-15.5.3-23.2.4l-23.2.1c-7.7 0-15.5 0-23.2-.1l-23.2-.3c-.5 0-.9-.4-.9-.9s.4-.9.9-.9c7.7-.1 15.5-.3 23.2-.3s15.5-.1 23.2-.1l23.2.1c7.7-.1 15.4 0 23.2.2zm-93-33.2c5.8-.1 11.5-.3 17.3-.3 5.8-.1 11.5-.1 17.3-.1s11.5 0 17.3.1c5.8 0 11.5.2 17.3.4.5 0 .9.4.9.9s-.4.9-.9.9c-5.8.2-11.5.3-17.3.4s-11.5.1-17.3.1-11.5 0-17.3-.1l-17.3-.3c-.5 0-.9-.4-.9-.9s.4-1 .9-1.1zm0 20.6c7-.1 14-.3 21-.3s14-.1 21-.1 14 0 21 .1c7 0 14 .2 21 .4.5 0 .9.4.9.9s-.4.9-.9.9c-7 .2-14 .3-21 .4s-14 .1-21 .1-14 0-21-.1l-21-.3c-.5 0-.9-.4-.9-.9 0-.6.4-1 .9-1.1zm0 38.9c7-.1 14-.3 21-.3s14-.1 21-.1 14 0 21 .1c7 0 14 .2 21 .4.5 0 .9.4.9.9s-.4.9-.9.9c-7 .2-14 .3-21 .4s-14 .1-21 .1-14 0-21-.1l-21-.3c-.5 0-.9-.4-.9-.9 0-.6.4-1 .9-1.1zm0 14.1c7-.1 14-.3 21-.3 7-.1 14-.1 21-.1s14 0 21 .1c7 0 14 .2 21 .4.5 0 .9.4.9.9s-.4.9-.9.9c-7 .2-14 .3-21 .4s-14 .1-21 .1-14 0-21-.1l-21-.3c-.5 0-.9-.4-.9-.9 0-.7.4-1.1.9-1.1zm3.7 20c3 0 5.4 2.4 5.4 5.4s-2.4 5.4-5.4 5.4-5.4-2.4-5.4-5.4c0-1.4.6-2.8 1.6-3.8 1-1.1 2.3-1.7 3.8-1.6zm-86.1-104.1c0-.1.1-.3.2-.4s.2-.2.4-.2h61.7c.3 0 .5.2.5.5l.4 32.4.2 16.2c0 5.4.1 10.8 0 16.2 0 .2-.2.3-.3.3-.2 0-.3-.2-.3-.3-.1-2.4-.1-4.8-.2-7.1v7.8h-6.7c0 .1-.1.2-.2.2l-13.8.2-13.8.1c-9.2.1-18.4.1-27.5.1-.3 0-.5-.2-.5-.5z" fill="#f6f7f7"/><path d="m82.9 165c-.1-.1-.1-.2-.2-.3-.4-.7-1-1.3-1.7-1.7s-1.4-.7-2.2-.7h-1.2c-.2 0-.4.1-.5.3s-.2.4-.1.6c.1.4.3.7.4 1.1.4.7.9 1.3 1.6 1.7.9.7 2.1 1 3.2 1 .3-.7.5-1.3.7-2z" fill="#fff"/><path d="m83.1 154.1h-.5c-.2 0-.4.1-.6.3-.3.4-.4.7 0 1.6.3.7.8 1.4 1.4 1.9.2.2.5.4.7.5v-4c-.1 0-.3-.1-.4-.1-.2-.1-.4-.2-.6-.2z" fill="#f6f7f7"/><path d="m72.4 32.7h-2.2v-2.2c0-.8-.7-1.5-1.5-1.5s-1.5.7-1.5 1.5v3.7c0 .8.7 1.5 1.5 1.5h3.7c.8 0 1.5-.7 1.5-1.5 0-.4-.2-.8-.4-1.1s-.7-.4-1.1-.4z" fill="#dcdcde"/><path d="m77.8 2.9c-.1-.4-.4-.7-.8-.8-.4-.2-.8-.2-1.1 0-2.6 1-4.9 2.9-6.4 5.4-.2.3-.3.8-.2 1.1s.3.7.6 1h.1c.7.4 1.5.2 1.9-.5 1.2-1.9 3-3.4 5-4.2.7-.3 1.1-1.1.9-2 0 .1 0 .1 0 0z" fill="#dcdcde"/><path d="m84.1 1.2h7.5c.9 0 1.6.7 1.6 1.6s-.7 1.6-1.6 1.6h-7.5c-.9 0-1.6-.7-1.6-1.6s.7-1.6 1.6-1.6z" fill="#dcdcde"/><path d="m274.3 13.7c-.9 0-1.6.7-1.6 1.5v7.6c0 .8.7 1.5 1.6 1.5s1.6-.7 1.6-1.5v-7.6c0-.8-.7-1.5-1.6-1.5z" fill="#dcdcde"/><path d="m68.8 24.3c.9 0 1.6-.7 1.6-1.5v-7.6c0-.8-.7-1.5-1.5-1.5h-.1c-.9 0-1.6.7-1.6 1.5v7.6c0 .8.7 1.5 1.6 1.5z" fill="#dcdcde"/><path d="m236.2 1.2h7.5c.9 0 1.6.7 1.6 1.6s-.7 1.6-1.6 1.6h-7.5c-.9 0-1.6-.7-1.6-1.6s.7-1.6 1.6-1.6z" fill="#dcdcde"/><path d="m205.6 1.2h7.5c.9 0 1.6.7 1.6 1.6s-.7 1.6-1.6 1.6h-7.5c-.9 0-1.6-.7-1.6-1.6s.7-1.6 1.6-1.6z" fill="#dcdcde"/><path d="m220.9 1.2h7.5c.9 0 1.6.7 1.6 1.6s-.7 1.6-1.6 1.6h-7.5c-.9 0-1.6-.7-1.6-1.6s.7-1.6 1.6-1.6z" fill="#dcdcde"/><path d="m251.1 1.2h7.5c.9 0 1.6.7 1.6 1.6s-.7 1.6-1.6 1.6h-7.5c-.9 0-1.6-.7-1.6-1.6.1-.9.8-1.6 1.6-1.6z" fill="#dcdcde"/><path d="m270.9 8.8c.4.6 1.3.8 1.9.4h.1c.7-.5.8-1.4.4-2-1.6-2.3-3.8-4.1-6.4-5.1-.4-.1-.8-.1-1.1 0s-.6.5-.8.8v.1c-.2.7.2 1.5.9 1.8 2 .8 3.8 2.1 5 4z" fill="#dcdcde"/><path d="m190.6 1.2h7.5c.9 0 1.6.7 1.6 1.6s-.7 1.6-1.6 1.6h-7.5c-.9 0-1.6-.7-1.6-1.6s.7-1.6 1.6-1.6z" fill="#dcdcde"/><path d="m144.6 1.2h7.5c.9 0 1.6.7 1.6 1.6s-.7 1.6-1.6 1.6h-7.5c-.9 0-1.6-.7-1.6-1.6.1-.9.8-1.6 1.6-1.6z" fill="#dcdcde"/><path d="m99 1.2h7.5c.9 0 1.6.7 1.6 1.6s-.7 1.6-1.6 1.6h-7.5c-.9 0-1.6-.7-1.6-1.6.1-.9.8-1.6 1.6-1.6z" fill="#dcdcde"/><path d="m129.7 1.2h7.5c.9 0 1.6.7 1.6 1.6s-.7 1.6-1.6 1.6h-7.5c-.9 0-1.6-.7-1.6-1.6s.7-1.6 1.6-1.6z" fill="#dcdcde"/><path d="m160 1.2h7.5c.9 0 1.6.7 1.6 1.6s-.7 1.6-1.6 1.6h-7.5c-.9 0-1.6-.7-1.6-1.6s.7-1.6 1.6-1.6z" fill="#dcdcde"/><path d="m175.3 1.2h7.5c.9 0 1.6.7 1.6 1.6s-.7 1.6-1.6 1.6h-7.5c-.9 0-1.6-.7-1.6-1.6s.7-1.6 1.6-1.6z" fill="#dcdcde"/><path d="m114.4 1.2h7.5c.9 0 1.6.7 1.6 1.6s-.7 1.6-1.6 1.6h-7.5c-.9 0-1.6-.7-1.6-1.6s.7-1.6 1.6-1.6z" fill="#dcdcde"/><path d="m274 29c-.8 0-1.5.7-1.5 1.5v2.2h-2.2c-.8 0-1.5.7-1.5 1.5s.7 1.5 1.5 1.5h3.7c.8 0 1.5-.7 1.5-1.5v-3.7c0-.4-.2-.8-.4-1.1-.3-.2-.7-.4-1.1-.4z" fill="#dcdcde"/><path d="m233.6 32.5h-7.3c-.8 0-1.5.7-1.5 1.6s.7 1.6 1.5 1.6h7.3c.8 0 1.5-.7 1.5-1.6-.1-.9-.7-1.6-1.5-1.6z" fill="#dcdcde"/><path d="m248.5 32.5h-7.3c-.8 0-1.5.7-1.5 1.6s.7 1.6 1.5 1.6h7.3c.8 0 1.5-.7 1.5-1.6s-.7-1.6-1.5-1.6z" fill="#dcdcde"/><path d="m219 32.5h-7.3c-.8 0-1.5.7-1.5 1.6s.7 1.6 1.5 1.6h7.3c.8 0 1.5-.7 1.5-1.6s-.7-1.6-1.5-1.6z" fill="#dcdcde"/><path d="m87 32.5h-7.3c-.4 0-.8.2-1 .5-.3.3-.4.7-.4 1.1 0 .9.7 1.6 1.5 1.6h7.2c.4 0 .8-.2 1-.5.3-.3.4-.7.4-1.1 0-.9-.6-1.6-1.4-1.6z" fill="#dcdcde"/><path d="m204.5 32.5h-7.3c-.8 0-1.5.7-1.5 1.6s.7 1.6 1.5 1.6h7.3c.8 0 1.5-.7 1.5-1.6-.1-.9-.7-1.6-1.5-1.6z" fill="#dcdcde"/><path d="m263 32.5h-7.3c-.8 0-1.5.7-1.5 1.6s.7 1.6 1.5 1.6h7.3c.8 0 1.5-.7 1.5-1.6s-.7-1.6-1.5-1.6z" fill="#dcdcde"/><path d="m189.5 32.5h-7.3c-.8 0-1.5.7-1.5 1.6s.7 1.6 1.5 1.6h7.3c.8 0 1.5-.7 1.5-1.6s-.6-1.6-1.5-1.6z" fill="#dcdcde"/><path d="m175 32.5h-7.3c-.8 0-1.5.7-1.5 1.6s.7 1.6 1.5 1.6h7.3c.4 0 .8-.2 1-.5.3-.3.4-.7.4-1.1.1-.9-.6-1.6-1.4-1.6z" fill="#dcdcde"/><path d="m116 32.5h-7.3c-.8 0-1.5.7-1.5 1.6s.7 1.6 1.5 1.6h7.3c.8 0 1.5-.7 1.5-1.6s-.6-1.6-1.5-1.6z" fill="#dcdcde"/><path d="m145.5 32.5h-7.3c-.8 0-1.5.7-1.5 1.6s.7 1.6 1.5 1.6h7.3c.8 0 1.5-.7 1.5-1.6s-.7-1.6-1.5-1.6z" fill="#dcdcde"/><path d="m131 32.5h-7.3c-.8 0-1.5.7-1.5 1.6s.7 1.6 1.5 1.6h7.3c.4 0 .8-.2 1-.5s.4-.7.4-1.1c.1-.9-.6-1.6-1.4-1.6z" fill="#dcdcde"/><path d="m160.5 32.5h-7.3c-.8 0-1.5.7-1.5 1.6s.7 1.6 1.5 1.6h7.3c.8 0 1.5-.7 1.5-1.6-.1-.9-.7-1.6-1.5-1.6z" fill="#dcdcde"/><path d="m101.5 32.5h-7.3c-.8 0-1.5.7-1.5 1.6s.7 1.6 1.5 1.6h7.3c.8 0 1.5-.7 1.5-1.6s-.7-1.6-1.5-1.6z" fill="#dcdcde"/><path d="m267.4 211.3c-.1 1.2-1 2.3-2.1 2.7h6.6c.6-.6 1.9-1.4 3.7-2.6z" fill="#f6f7f7"/><path d="m322.1 211.9c-.1 0-.2-.1-.2-.1-10.3-.2-20.6-.3-30.9-.4 0 .1 0 .2-.1.4 0 .1-.2.2-.3.2s-.3-.1-.3-.3v-.3h-3.7c-.3.7-.8 1.3-1.5 1.6s-1.4.6-2.1.8c14.4-.1 28.7-.3 43.1-.6.3 0 .5-.3.5-.6s-.2-.5-.5-.6l-3.8-.1z" fill="#f6f7f7"/><path d="m255.5 211.2c-27.8-.2-55.6-.2-83.4-.3l-77.1.2-9.8.1c-1.1.3-2.3.5-3.4.6h-.5c-1.1 0-2.2-.2-3.2-.5-20 .2-40.1.4-60.1 1.1-.2 0-.3.1-.3.3s.1.3.3.3c25.7.9 51.4 1 77.1 1.3l77.1.2c26.3-.1 52.5-.1 78.8-.3 0-.7 1.7-1.5 4.5-3z" fill="#f6f7f7"/><path d="m258.5 103.6c-7.7-.2-15.5-.3-23.2-.4l-23.2-.1c-7.7 0-15.5 0-23.2.1l-23.2.3c-.5 0-.9.4-.9.9s.4.9.9.9c7.7.1 15.5.3 23.2.3s15.5.1 23.2.1l23.2-.1c7.7-.1 15.5-.2 23.2-.4.5 0 .9-.4.9-.9s-.4-.8-.9-.7z" fill="#c3c4c7"/><path d="m212 90.2c-7.7 0-15.5 0-23.2.1l-23.2.3c-.5 0-.9.4-.9.9s.4.9.9.9c7.7.1 15.5.3 23.2.3s15.5.1 23.2.1l23.2-.1c7.7-.1 15.5-.2 23.2-.4.5 0 .9-.4.9-.9s-.4-.9-.9-.9c-7.7-.2-15.5-.3-23.2-.4z" fill="#c3c4c7"/><path d="m165.6 79.9c7 .1 14 .3 21.1.3s14 .1 21.1.1c7 0 14 0 21.1-.1 7 0 14-.2 21.1-.4.5 0 .9-.4.9-.9s-.4-.9-.9-.9c-7-.2-14-.3-21.1-.4-7-.1-14-.1-21.1-.1-7 0-14 0-21.1.1l-21.1.3c-.5 0-.9.4-.9.9 0 .7.4 1.1.9 1.1z" fill="#c3c4c7"/><path d="m165.6 59.5c5.8.1 11.5.3 17.3.3 5.8.1 11.5.1 17.3.1s11.5 0 17.3-.1c5.8 0 11.5-.2 17.3-.4.5 0 .9-.4.9-.9s-.4-.9-.9-.9c-5.8-.2-11.5-.3-17.3-.4s-11.5-.1-17.3-.1-11.5 0-17.3.1l-17.3.3c-.5 0-.9.4-.9.9 0 .7.4 1.1.9 1.1z" fill="#c3c4c7"/><path d="m165.6 118.7c7 .1 14 .3 21.1.3s14 .1 21.1.1c7 0 14 0 21.1-.1 7 0 14-.2 21.1-.4.5 0 .9-.4.9-.9s-.4-.9-.9-.9c-7-.2-14-.3-21.1-.4-7-.1-14-.1-21.1-.1s-14 0-21.1.1l-21.1.3c-.5 0-.9.4-.9.9s.4 1.1.9 1.1z" fill="#c3c4c7"/><path d="m165.6 132.8c7 .1 14 .3 21.1.3 7 .1 14 .1 21.1.1s14 0 21.1-.1c7 0 14-.2 21.1-.4.5 0 .9-.4.9-.9s-.4-.9-.9-.9c-7-.2-14-.3-21.1-.4-7-.1-14-.1-21.1-.1-7 0-14 0-21.1.1l-21.1.3c-.5 0-.9.4-.9.9s.4 1.1.9 1.1z" fill="#c3c4c7"/><path d="m322 212-3.2-25.7h-.5c0 1.6.1 3.1.3 4.7.2 2.4.5 4.7.8 7 .7 4.7 1.2 9.4 2.3 14 0 0 0 .1.1.1h.5s.1-.1.1-.2c-.1-4.7-.7-9.4-1.2-14.1-.3-2.4-.6-4.7-1-7-.2-1.5-.5-3-.9-4.6h-.5z" fill="#f6f7f7"/><path d="m275.8 156.8c.7-.1 1.4-.4 2-.8-.7.2-1.5.4-2.2.6-.5.1-.9.3-1.4.5v.1c.6-.1 1.1-.3 1.6-.4z" fill="#f6f7f7"/><path d="m258.8 168.4c-.4.8-.7 1.7-.8 2.6l-.5 2.5c0 .2-.1.4-.1.5.9-4.3 2.7-7.8 5.5-10.6-1.7 1.4-3.1 3.1-4.1 5z" fill="#f6f7f7"/><path d="m295.3 171.5c-.3.1-.6.3-.9.5h1.8l.1-.8h-.3c-.2.2-.4.2-.7.3z" fill="#f6f7f7"/><path d="m256.7 179v-.2c0-.2 0-.5.1-.7 0-.4.1-.9.1-1.3 0-.2 0-.5.1-.7 0-.3.1-.6.1-.9-.1.3-.2.5-.3.8-.6 1.7-.6 3.7 0 5.5-.1-.9-.1-1.7-.1-2.5z" fill="#f6f7f7"/><path d="m293.6 172.9h2.6l.2-.8h-2c-.3.2-.6.5-.8.8z" fill="#f6f7f7"/><path d="m260.1 190.8c0-.5.1-1.1.1-1.6-.2-.1-.4-.2-.6-.2l-2.5 21.2.5-.3c.8-4 1.3-8 1.8-12.1.2-2.4.4-4.7.7-7z" fill="#f6f7f7"/><path d="m259.1 189c-.1.6-.2 1.3-.3 1.9-.4 2.3-.7 4.6-1 6.9-.5 4.2-1 8.5-1.2 12.7l.4-.2 2.7-21.1c-.1-.1-.4-.2-.6-.2z" fill="#f6f7f7"/><path d="m314 145.5c0-.7-.6-1.2-1.2-1.2-.3 0-.5.1-.7.3.3.7.6 1.4 1 2.1.5-.2.9-.7.9-1.2z" fill="#f6f7f7"/><path d="m88.8 52.5v51.4h9.3v-.8h-.2c-.1 0-.2-.1-.2-.3-.2-.9 0-1.7 0-2.6l.2-2.6c.2-1.7.3-3.5.8-5.2.2-.9.7-1.7 1.3-2.5.6-.7 1.3-1.3 2-1.8.2-.1.4-.3.6-.4.1-1.1.5-2.1 1.3-2.9-1-1-1.1-2.5-.3-3.6-.3-.7-.5-1.5-.5-2.2v-.9s0-.2.1-.2v-.1s.1-.1.1-.2l.1-.1c0-.1.1-.1.1-.2l.1-.1c0-.1.1-.1.1-.2l.1-.1.2-.2v-.1c.1-.1.2-.2.3-.2l-.2-.2c0-.1-.1-.1-.1-.2s-.1-.1-.1-.2-.1-.1-.1-.2v-.1c0-.1 0-.1-.1-.2v-1.6s0-.2.1-.2v-.1c0-.1.1-.2.1-.3v-.1c0-.1.1-.2.1-.3v-.1c0-.1.1-.2.1-.3.1-.1.1-.2.2-.3s.1-.2.2-.3c-.3-.6-.4-1.3-.5-1.9v-.8c0-.5.1-1 .3-1.5 0-.1.1-.2.1-.3s.1-.2.2-.3c.2-.3.4-.6.7-.9-1.1-2.9 4.1-10.1 10.3-8.5 6.2-1.6 11.4 5.8 10.3 8.6 1.5 1.3 1.5 3.5.8 5.4.7.8 1.2 1.9 1.2 3 0 .7-.3 1.4-.7 1.9.8.7 1.3 1.7 1.3 2.7 0 .9-.3 1.8-.7 2.6.7 1.1.7 2.4.1 3.5l.5 1.7c.7.5 1.4.9 2.1 1.5.7.5 1.4 1.2 2 1.8.6.7 1 1.6 1.3 2.5.5 1.8.6 3.5.8 5.2l.2 2.6c0 .9.2 1.7 0 2.6 0 .2-.2.3-.4.3 0 0-.1 0-.1-.1l.1.8h6.8c0-17.3.1-34.6.3-51.9 0 0 0-.1.1-.1h.1v-.1h-3.8c-7.6.2-15.3.3-22.9.4l-26.2.1z" fill="#dcdcde"/><path d="m128.5 101.5v-4.3h-1.2c-.7 0-1.2.5-1.2 1.1v3.2z" fill="#c3c4c7"/><path d="m115.3 80.4h-.9c1.9.6 3.9.8 5.9.8l-.2-2c-.1.1-.2.1-.3.2-1.4.8-2.9 1.1-4.5 1z" fill="#004e6e"/><path d="m85.1 169.7c-.1.4-.1.8-.2 1.2h1.6c-.3-.2-.7-.5-1-.7-.1-.2-.3-.3-.4-.5z" fill="#c3c4c7"/><path d="m86.6 168.5c.5.4 1.1.8 1.8 1 1.4.4 2.9.4 4.3-.2l.1.1c.3-.3.5-.7.4-1.1 0-.2-.1-.3-.2-.5l-.4-.4c-1.4-1.2-3.3-1.5-5.1-.9-.6.2-1.2.6-1.8 1 .2.4.5.7.9 1z" fill="#fff"/><path d="m91.7 162.8c1.3.8 2.8 1.1 4.3.9v.2c.4-.2.6-.6.7-1.1 0-.2 0-.4-.1-.5-.1-.2-.2-.3-.3-.5-1.1-1.6-2.9-2.4-4.8-2.1-.5.1-1 .2-1.5.4-.1.1-.3.3-.4.5.2.3.3.7.6 1 .4.4.9.9 1.5 1.2z" fill="#fff"/><path d="m85.5 159.3c.3.1.6.2 1 .2.4-.5.7-.9 1.1-1.3l-.3-.9c-.3-.8-.8-1.4-1.5-2-.5-.4-1.1-.7-1.7-.9v4.1c.5.4.9.6 1.4.8z" fill="#c3c4c7"/><path d="m83.1 154.1h-.5c-.2 0-.4.1-.6.3-.3.4-.4.7 0 1.6.3.7.8 1.4 1.4 1.9.2.2.5.4.7.5v-4c-.1 0-.3-.1-.4-.1-.2-.1-.4-.2-.6-.2z" fill="#fff"/><path d="m85.5 159.3c.3.1.6.2 1 .2.4-.5.7-.9 1.1-1.3l-.3-.9c-.3-.8-.8-1.4-1.5-2-.5-.4-1.1-.7-1.7-.9v4.1c.5.4.9.6 1.4.8z" fill="#fff"/><path d="m85.7 160.2h-.4c-.4-.1-.8-.1-1.1-.3v2.7c.2-.4.4-.7.6-1.1s.5-.8.9-1.3z" fill="#c3c4c7"/><path d="m120.6 149.5c-3.4 2.5-7.1 4.7-10.9 6.4.4.3.7.5 1.1.7 6.4 3.8 13.6.9 16.5-5.4 1.2-2.5 1.5-5.4.9-8.1-2.3 2.3-4.9 4.5-7.6 6.4z" fill="#dcdcde"/><path d="m119.5 147.7c3-2 5.7-4.3 8.2-6.8-1.2-3.1-3.6-5.6-6.7-6.9-6.4-2.7-14.2-.7-16.6 6.7-1.8 5.4-.3 10.2 3.6 13.7l.5-.2c3.9-1.7 7.5-4.1 11-6.5z" fill="#dcdcde"/><path d="m85 175.8c.6.4 1.2.7 1.9.8 1.4.3 3 .1 4.3-.5l.1.1c.3-.3.4-.8.3-1.2 0-.2-.1-.3-.2-.5-.1-.1-.3-.3-.5-.4-1.5-1.1-3.5-1.3-5.1-.5-.6.3-1.1.6-1.6 1v.2c.2.5.5.8.8 1z" fill="#f6f7f7"/><path d="m83.2 181.1c0-.9-.1-1.9-.1-2.8v-2.2l-.1-.1-.4 5h.4s.1 0 .2.1z" fill="#c3c4c7"/><path d="m91.3 181.5c-.2.2-.4.5-.5.8h1.2z" fill="#f6f7f7"/><ellipse cx="169.4" cy="156.4" fill="#c3c4c7" rx="5.5" ry="5.5"/><ellipse cx="187.1" cy="156.4" fill="#c3c4c7" rx="5.5" ry="5.5"/><ellipse cx="205.2" cy="156.4" fill="#c3c4c7" rx="5.5" ry="5.5"/><ellipse cx="221.7" cy="156.4" fill="#c3c4c7" rx="5.5" ry="5.5"/><path d="m119.5 68.9v1.2c0 .4.4.8.8.8s.8-.4.8-.8v-1.2c0-.3-.2-.6-.5-.7h-.6c-.3.1-.5.4-.5.7z" fill="#004e6e"/><path d="m118.8 74.5c-.5.5-1.1.9-1.8 1.2-.7.2-1.4.1-2.1-.1-.2 0-.3 0-.4.2s0 .3.1.4c.8.6 1.8.8 2.7.5s1.6-1.1 1.8-2c0-.1 0-.1-.1-.2z" fill="#004e6e"/><path d="m110.2 66.2h1.5c.4 0 .9 0 1.3.1h.2c.1 0 .3-.1.3-.2.1-.1 0-.3 0-.4-.2-.3-.5-.4-.9-.5-.3-.1-.6-.1-.9-.1-.6 0-1.3.3-1.6.8v.1c0 .1 0 .1.1.2-.1 0 0 0 0 0z" fill="#004e6e"/><path d="m115.6 72.9c.1.1.2.1.3 0 .2-.2.4-.5.4-.7v-1.8c0-.1.1-.2-.2-.4-.2-.1-.5-.1-.7 0s-.2.2-.2.4v1.8c0 .2.1.5.4.7z" fill="#004e6e"/><path d="m118.3 66.2h.2c.4 0 .9-.1 1.3-.1h1.4c.1 0 .1 0 .2-.1v-.2c-.4-.5-1-.8-1.6-.8-.3 0-.6 0-.9.1s-.7.3-.9.5c-.1.1-.1.3 0 .4 0 .2.1.3.3.2z" fill="#004e6e"/><path d="m112.4 70.2v-1.2c0-.4-.4-.8-.8-.8s-.8.3-.8.8v1.2c0 .4.4.8.8.8s.8-.4.8-.8z" fill="#004e6e"/><path d="m118.7 78.8 1.3-.1 1.2-.9c0-.8.4-1.5 1-1.9-.2-.3-.3-.7-.4-1l-1.5 3.3z" fill="#004e6e"/><path d="m110 78s0 .1 0 0l1.2 1.2 1.5-.1z" fill="#004e6e"/><path d="m116.3 79.6c1.2-.1 2.4-.3 3.5-.7v-.1l-1.3.1z" fill="#004e6e"/><path d="m111.3 79.3c1 .2 2 .4 3 .5l-1.5-.5h-1.5l-.1.4c1 .4 2.1.7 3.1.7-1-.3-2-.7-3-1.1z" fill="#004e6e"/><path d="m116.6 79.6-.7.2c-.3.1-.5.1-.8 0l-.8-.3c-1.1-.1-2.1-.2-3.1-.5 1 .5 2.1.9 3.2 1.2h.9c1.6.1 3.2-.3 4.6-1 .1-.1.2-.1.3-.2v-.3c-1.1.6-2.4.8-3.6.9z" fill="#004e6e"/><path d="m113.6 79.1c-.9-.1-1.7-.3-2.5-.7-.5-.3-1-.7-1.4-1.2v1l2.9 1z" fill="#004e6e"/><path d="m123 72.1c.2-.2.4-.5.7-.7l.3-3.1.2-.4v-1.3c-.4 1.9-.7 3.7-1.2 5.5z" fill="#004e6e"/><path d="m122 75c-.5 1.3-1.4 2.5-2.6 3.3-.4.2-.7.4-1.1.5h.6l1.8-.7 1.6-3.5v-.1c-.2.2-.2.4-.3.5z" fill="#004e6e"/><path d="m116.7 79.5 2.4-.7h-.6c-1 .2-2 .3-3 .3-.6 0-1.1 0-1.7-.1h-.9l1.6.5c.7.1 1.4.1 2.2 0z" fill="#004e6e"/><path d="m286.6 208.4s-2.3 1.6-4.2 1.3c-.8-.1-2.1-.6-2.1-1.1v-.2c-.1-.1-.1-.2-.3-.2-.1 0-.2 0-.3.1-1.6 1.3-3.1 2.4-4.4 3.2-1.7 1.1-3 1.9-3.6 2.5-.4.4-.6.7-.4 1 1.1 1.5 8.1 0 11.9-1.1.7-.2 1.4-.5 2.1-.8s1.3-.9 1.5-1.6c.2-.8.2-1.7-.2-3.1z" fill="#004e6e"/><path d="m267.1 209.1c-.2.1-3.1 1.5-4.8.9-.8-.2-1.7-.9-1.7-1.4 0-.2-.1-.4-.3-.4h-.3c-.9.6-1.8 1.2-2.7 1.6l-.5.3-.4.2c-.4.2-.8.5-1.2.7-2.7 1.5-4.5 2.2-4.5 2.9v.3c1.1 2.1 12.4.4 14.2-.3.1 0 .1 0 .1-.1 1.1-.4 2-1.5 2.1-2.7.2-.7.2-1.4 0-2z" fill="#004e6e"/><path d="m308.1 121.9c-1 .7-1.9 1.6-1.9 2.1.2 1.3.4 2.7.6 4.1 1-.7 1.9-1.4 2.3-2.2.3-.6.4-1.3.1-1.9s-.7-1.4-1.1-2.1z" fill="#a7aaad"/><path d="m114.2 80.4c-1.1-.1-2.2-.3-3.3-.8l-.5 2.6.1.1 3.6 6.9 1.8 3.4.4.7 1-3 2.6-8.2c.1-.2.3-.4.5-.4l-.1-.6c-2.1.1-4.1-.2-6.1-.7z" fill="#a7aaad"/><path d="m120.7 97.5 1.2.9-.3-3.1c-.2.7-.5 1.5-.9 2.2z" fill="#a7aaad"/><path d="m112.1 67.9-2-.1c-.3 0-.6.1-.8.4-.2.2-.3.5-.3.8v.7c.1 1 1 1.8 2 1.8h.5c1.1 0 2-.8 2.1-1.9 0-.4-.1-.7-.4-1-.3-.5-.7-.7-1.1-.7zm.1 2.1c0 .4-.3.7-.7.7s-.7-.3-.7-.7v-1.1c0-.4.3-.7.7-.7s.7.3.7.7z" fill="#a7aaad"/><path d="m121.1 68.3h-.8c.3.1.4.4.4.7v1c0 .4-.3.7-.7.7s-.7-.3-.7-.7v-1.1c0-.3.2-.6.5-.7h-.7c-.4 0-.8.1-1.1.4s-.5.6-.5 1c0 1.1.9 2 2 2.1h.5c1 .1 2-.6 2.2-1.6l.1-.6c0-.3 0-.6-.2-.8-.3-.3-.6-.4-1-.4z" fill="#a7aaad"/><path d="m115.4 59.2c-1.2 3.5-4.8 5.8-8.3 7l-.2.1v.1c.1.1.1.1.1.2.1.7.2 1.5.2 2.2.1.7.1 1.5.2 2.2h.1l.1.1.1.1.1.1.1.1.2.2.1.1.1.1.1.1.1.1.1.2.1.1.1.2v.1c0 .1.1.2.1.3v.1c0 .1 0 .1.1.2v1.5c0 .1 0 .2-.1.3l-.3.6c0 .1.1.2.1.3.1 0 .1.1.2.2l.2.2c0 .1.1.1.1.2v.1c0 .1.1.1.1.2v.1c0 .1 0 .1.1.2.4.5.9.9 1.4 1.2.8.4 1.6.6 2.5.7.6.1 1.1.1 1.7.1 1 0 2-.1 3-.3.4-.1.8-.3 1.2-.5 1.2-.8 2.1-1.9 2.6-3.2.1-.2.1-.4.2-.5v-.3c0-.9.3-1.7.8-2.4.1-.4.2-.9.3-1.3-.4 1.4-1.6 2.3-3.1 2.3h-.8c-1.7-.1-3.1-1.5-3-3.2 0-.2 0-.3.1-.5l-1.7-.1v.5c-.1 1.7-1.5 3-3.3 3h-.6c-1.6 0-3-1.2-3.2-2.8l-.1-.7c0-.6.2-1.2.6-1.6.5-.5 1.1-.7 1.7-.7l2.1.1c.7 0 1.4.3 1.9.9l.2.2 2.8.1c.5-.6 1.3-1 2.2-.9l2.1.1c.7 0 1.3.3 1.7.8s.6 1.1.5 1.6v.3l.6-3.3v-.3c-3.5-1.4-7.2-3.6-8.4-7.2zm-.4 11.6v-.4c0-.1-.1-.2.2-.4.2-.1.5-.1.7 0 .3.1.2.2.2.4v1.8c0 .3-.1.6-.4.7-.1.1-.3.1-.4 0-.2-.2-.4-.4-.4-.7v-.7c0-.3.1-.5.1-.7zm-.8 5.1c.1-.1.3-.2.4-.1.7.2 1.4.3 2.2.1.7-.3 1.3-.7 1.9-1.2.1-.1.1-.1.2 0 .1 0 .1.1.1.2-.2 1-.9 1.8-1.9 2-1 .3-2 .1-2.8-.5-.1-.1-.1-.1-.1-.2-.1-.1-.1-.2 0-.3zm-1.8-1.2c.2 0 .3.1.3.3s-.2.3-.3.3-.3-.1-.3-.3c0-.1 0-.2.1-.2s.1-.1.2-.1zm5.6-8.9c.2-.3.6-.4.9-.5s.6-.1.9-.1c.6 0 1.3.3 1.6.8v.2c0 .1-.1.1-.2.1h-1.4c-.4 0-.9 0-1.3.1h-.2c-.1 0-.3-.1-.3-.2-.1-.2-.1-.4 0-.4zm-8.2.2c.4-.5 1-.8 1.6-.8.3 0 .6 0 .9.1s.7.3.9.5c.1.1.1.3 0 .4s-.2.2-.3.2h-.2c-.4 0-.9-.1-1.3-.1h-1.4c-.1 0-.1 0-.1-.1z" fill="#a7aaad"/><path d="m279.1 103.5c1.1.7 2.5 1 4.3.7v-.3h-.1c-.4.1-.8.1-1.3.1-1 0-2-.2-2.9-.5z" fill="#a7aaad"/><path d="m271.3 95.3c.2.1.4.2.7.3.5.2.9.6 1.1 1.1.1.2.2.3.2.5.1.3.3.6.4.9h.3c.2 0 .4-.1.5-.1.3-.1.7-.2 1-.5.2-.1.4-.1.6-.1.2.1.3.3.3.5s-.1.4-.2.5c-.3.2-.7.4-1.1.6-.2.1-.5.2-.7.2.6.8 1.2 1.5 2 2 1.9 1.5 4.2 2.1 6.6 1.9h.1c.1 0 .1 0 .2.1.1 0 .2.1.3.2s.1.1.1.2c0 .2-.1.4-.2.5a8.7 8.7 0 0 1 2 4.6l1.4-2.2c-1.7-1.2-1.2-3.9-1.2-3.9v-1.3c0-.6-.1-1.2-.2-1.7-.5-2.3-1.6-3.2-1.6-3.2-2.1-3.4-1.3-5.6-.9-6.3-2.3-1.3-5.3-1.7-5.3-1.7-.7-.1-1.4-.3-2.1-.7-.3 0-.6 0-.8.1h-.2c-.1 0-.2-.1-.3-.2l-.1-.1c0-.1 0-.2.1-.2.1-.1.2-.2.3-.2l-.2-.2c-.2-.2-.3-.4-.5-.5-.4-.5-.7-1-.9-1.6-.3.9-.5 1.8-.5 2.8 0 .5-.1.9-.1 1.4l.3.2.1.1c.3-.3.7-.5 1.1-.6h.7l1.8.2c.5.1 1 .3 1.4.8.3.4.4.9.3 1.4l-.1.6c-.3 1.2-1.4 2-2.6 2h-.4l-.4-.1c-.2 0-.4-.1-.5-.1-.3-.1-.5-.2-.8-.4-.7-.6-1.1-1.5-1.1-2.4 0-.2.1-.4.2-.6h-.1c-.3.9-.8 1.7-1.4 2.4-.5.7-.9 1.3-.9 2 .1.2.5.4 1.3.8z" fill="#a7aaad"/><path d="m274.1 92.2c.2.1.5.2.7.2l.4.1c.9.2 1.8-.4 2.1-1.3l.1-.6c.1-.2 0-.5-.1-.7-.2-.2-.4-.4-.7-.4l-1.8-.2h-.7c-.5.1-.9.6-.9 1.1-.1.5.2 1.1.6 1.4.1.2.2.3.3.4zm.5-1.9c0-.4.3-.7.7-.7s.7.3.7.7v1.2c0 .4-.3.7-.7.7s-.7-.3-.7-.7z" fill="#a7aaad"/><path d="m260.6 208.2c.2.1.3.2.3.4-.1.5.9 1.1 1.7 1.4 1.7.5 4.5-.8 4.8-.9 1.5-4.6 4.1-9.3 5.9-17.9-3.6-.2-7.3-.7-10.8-1.5z" fill="#a7aaad"/><path d="m278.7 191.4h-2c1.5 5.9 3 12.3 3.7 16.7v.2c0 .5 1.3 1 2.1 1.1 1.9.3 4.2-1.3 4.2-1.3v.1c0-5.1 1.5-12.4-.1-17.2-2.7.2-5.3.4-7.9.4z" fill="#a7aaad"/><path d="m282.4 124.6c-.2-.2-.4-.3-.6-.5l-.1-.1c-.3 1.5-.5 3-.5 4.6 0 .3-.3.6-.7.6s-.6-.3-.6-.7c.1-1.6.3-3.3.6-4.9-1.7-1.2-3.1-2.7-4.2-4.4-.6-.9-1.2-1.8-1.9-2.6-2.7-3.4-6.4-6.8-8-6.9h-.1c-.1 0-.2 0-.3.1-.4.4-.4 1.3-.2 2.5.5 2.5 2.4 5.5 3.8 6.1.2.1.3.2.3.4 1.2 3.1 2.6 6 4.3 8.9 2.6 4.5 5.9 9.2 8.8 11.4.2.1.4.3.5.4l.2.1c.1.1.2.1.3.2s.2.1.4.2.4.2.7.2c.9.3 1.9.1 2.5-.6s1.2-1.4 1.6-2.3c.1-.2.2-.4.3-.5.1-.2.2-.4.3-.5.4-.9.8-1.9 1.1-2.9.5-1.5.8-3 1.1-4.5-2.4-.6-6.2-1.7-9.1-3.8-.1-.2-.3-.3-.5-.5z" fill="#a7aaad"/><g fill="#004e6e"><path d="m279.4 103.9c-.6-.3-1.2-.8-1.7-1.3-1.4-.7-2.5-1.8-3.4-3v.9c1.3 1.6 3.1 2.8 5.1 3.4z"/><path d="m272.1 88.6h.1c.1-.4.1-.8.1-1.2 0-1.2.3-2.4.8-3.5-.1-.3-.2-.5-.2-.8-.8 1.3-1.2 2.8-1.2 4.3 0 .4-.1.8-.1 1.2.1-.1.3-.1.5 0z"/><path d="m272.8 96.9c0-.1 0-.1 0 0-.3-.2-.5-.4-.6-.6-.9-.6-2.4-.8-2.5-1.9-.2-1.4 1.5-2.5 2.3-4.6l-.3-.2c-.1 0-.1-.1-.2-.1-.3.8-.7 1.6-1.3 2.3-.6.9-1.2 1.7-1.1 2.6.1 1.1 1.1 1.5 1.9 1.8.6.2 1.1.5 1.2.8.5 1.2 1.1 2.3 2 3.3v-.9c-.5-.7-1-1.6-1.4-2.5z"/><path d="m283.3 103.5c0-.2 0-.4.1-.6-.1 0-.1 0-.2-.1h-.2l.2.5c-2 .2-4-.1-5.7-1 .5.5 1 .9 1.6 1.2.9.3 1.9.4 2.9.4.4 0 .8 0 1.2-.1h.1z"/><path d="m274.7 98.9c.2-.1.5-.1.7-.2-.1-.2-.2-.5-.3-.7-.1-.1-.1-.3-.2-.4-.2.1-.3.1-.5.1v1.6c.8 1.3 1.9 2.3 3.1 3-.4-.4-.7-.9-1-1.3-.7-.6-1.3-1.3-1.8-2.1z"/><path d="m272 95.4-.6-.3c-.7-.3-1.2-.6-1.2-1-.1-.6.3-1.2.9-2s1-1.6 1.4-2.5l-.3-.1-.2-.1c-.8 2.2-2.4 3.3-2.3 4.7.1 1.1 1.6 1.3 2.5 1.9 0-.1-.1-.2-.1-.3-.1-.1-.1-.2-.1-.3z"/><path d="m272.9 89c.1-.5.2-1 .2-1.5 0-1 .2-1.9.5-2.9-.1-.3-.2-.5-.3-.8-.5 1.1-.8 2.4-.8 3.6 0 .4 0 .8-.1 1.2l.4.1z"/><path d="m274 98.1c-.2-.3-.3-.6-.4-.9-.3-.1-.6-.2-.8-.4v.1c.4 1 .9 1.9 1.5 2.7v-1.5z"/><path d="m276.6 97.5c-.2-.2-.6-.3-.8-.1-.3.2-.7.4-1 .4l.3.3c.1.2.2.5.3.7.4-.1.8-.3 1.1-.5.1-.1.2-.2.2-.4s0-.3-.1-.4z"/><path d="m283.4 103.4-.2-.5c-2.3.3-4.7-.4-6.5-1.8.3.4.6.9 1 1.2 1.7 1 3.7 1.4 5.7 1.1z"/><path d="m273.3 96.3c-.3-.5-.7-.9-1.3-1.1v.3c0 .1.1.2.1.3.3.1.5.3.6.6.3.1.6.3.9.4-.2-.2-.3-.3-.3-.5z"/><path d="m275.5 92.5c.4 0 .8-.3.8-.7v-1.3c0-.4-.4-.7-.8-.7s-.8.3-.8.7v1.3c0 .2.1.4.2.5.2.1.4.2.6.2z"/><path d="m276.7 118.7c1.1 1.7 2.4 3.1 4 4.3l-.3 4.8c.1-1.5.3-3 .6-4.5-.4-.4-.8-.9-1.1-1.4-.1-.1-.1-.2-.1-.4-1-.9-1.9-2-2.7-3.2-.9-1.4-1.9-2.7-2.9-3.9v1c1 1.1 1.8 2.2 2.5 3.3z"/><path d="m283 140.3v-.7c-2.9-2-6.1-6.6-8.6-11v1.3c2.5 4.3 5.7 8.6 8.6 10.4z"/><path d="m269.5 118.7c-2.5-1.1-5.5-7.7-3.8-9.6 1.3-1.4 5.6 2.4 8.7 6.2v-1c-2.5-3-5.8-6-7.8-6.2-.5-.1-1 .1-1.4.5-.7.7-.8 2-.5 3.6.5 2.6 2.3 5.8 4.3 6.9.8 2.2 2.8 6.4 5.4 10.6v-1.3c-2.4-3.8-4.2-7.7-4.9-9.7z"/><path d="m292.5 128.6c-.3 1.2-.6 2.4-.9 3.5l.9-.6c.3-.9.5-1.9.7-2.8z"/><path d="m290.4 136 .7-.1c.5-1.4 1-2.8 1.3-4.3-.3.2-.5.4-.8.6-.3 1.4-.7 2.6-1.2 3.8z"/><path d="m286.5 140.4c-.4.1-.8.1-1.2 0l.2.7h.3c.3 0 .5 0 .8-.1l.6-.3.1-.8c-.2.2-.5.4-.8.5z"/><path d="m287.4 140-.1.8c1.1-.6 2.2-2 3.1-3.9l-.7.1c-.7 1.3-1.5 2.4-2.3 3z"/><path d="m284.7 140.2c-.2-.1-.4-.1-.6-.2l.3.6c.2.1.4.1.5.2z"/><path d="m285.3 141.1-.2-.6c-.2 0-.4-.1-.6-.2l.2.7c.3.1.5.1.6.1z"/><path d="m290.1 136.4.6-.1c.1-.2.1-.5.2-.7l-.6.1c-.1.2-.2.5-.2.7z"/><path d="m289.7 137.2.6-.1c.1-.2.1-.5.2-.7l-.6.1c-.1.2-.2.5-.2.7z"/><path d="m274.3 127.4v1.2c2.6 4.4 5.8 8.9 8.6 10.9v-.8c-2.8-2.1-6-6.8-8.6-11.3z"/><path d="m276.2 119.2c1.1 1.7 2.6 3.2 4.3 4.4-.3 1.6-.5 3.2-.6 4.8 0 .3.3.6.6.7.4 0 .6-.3.7-.6.1-1.5.3-3 .6-4.5l-.6-.6c-.3 1.4-.5 2.9-.6 4.4l.3-4.6c-1.6-1.1-3.1-2.6-4.1-4.2-.8-1.1-1.6-2.2-2.4-3.2v1c.6.6 1.2 1.5 1.8 2.4z"/><path d="m269.9 118.6c-.1-.2-.2-.3-.4-.4-1.4-.6-3.3-3.6-3.9-6.1-.3-1.2-.2-2 .2-2.5.1-.1.2-.1.3-.1h.1c1.6.1 5.3 3.5 8.1 6.8v-1c-3.2-3.7-7.6-7.6-8.9-6.2-1.7 1.9 1.3 8.4 3.9 9.5.7 2 2.6 5.9 5 9.8v-1.2c-1.7-2.6-3.1-5.5-4.4-8.6z"/><path d="m290.8 132.9.8-.8c.3-1.1.6-2.3.8-3.4l-.6-.1c-.2 1.4-.5 2.9-1 4.3z"/><path d="m289.7 135.6.7-.1c.5-1.1.9-2.3 1.3-3.5-.3.2-.6.5-.9.8-.4 1-.7 1.9-1.1 2.8z"/><path d="m284.9 139.9.2.8c.4.1.8.1 1.2 0 .3-.1.6-.2.8-.4l.1-.6c0-.2 0-.3.1-.5-.6.8-1.5 1-2.4.7z"/><path d="m287.4 139.1c0 .1 0 .3-.1.4l-.1.5c.8-.6 1.6-1.7 2.4-3.1l-.7.1c-.3.7-.8 1.4-1.5 2.1z"/><path d="m284.9 140.3-.3-.6c-.1 0-.3-.1-.5-.2v.6c.3.1.6.2.8.2z"/><path d="m285.1 139.7c-.2 0-.4-.1-.6-.2l.2.7c.2.1.4.1.5.1z"/><path d="m289.3 136.4.6-.1c.1-.2.1-.5.2-.7l-.6.1c-.1.3-.2.5-.2.7z"/><path d="m289.3 137.2.9-.1c.1-.2.2-.5.3-.7l-.9.1c-.1.2-.2.5-.3.7z"/></g><path d="m102.5 88.9c.9-.7 1.8-1.4 2.7-2.2l.3.3 4.9 4.6c-.2.8-.1 1.6.2 2.3.3.8.9 1.6 1.6 2 .9.6 1.8 1.2 2.7 1.7 0 .2-.1.3-.1.5s0 .3.2.4h.1c.1 0 .3 0 .4-.2.1-.1.1-.2.1-.3s.1-.1.1-.2.1-.2.1-.2c.3-.7.6-1.4.8-2.1.1-.2.1-.4.2-.5l.1-.2.1-.3 1.4-4 2.3-6.8.2-.5 1.9 1.3c-.1-.3-.1-.5-.1-.8v-.1l-.6-.3h-.4v-.2l-.6-.3-.1-.1-.4-.2-.1-.6c-.2 0-.4.2-.5.4l-2.6 8.1-1 3-.4-.7-1.8-3.4-3.6-6.8s0-.1-.1-.1l-.1.5-.2.1-.2.1-.3.2-1.3 1.1c-.4.7-1 1.3-1.8 1.5l-.2.1v-.1h-.8l-.8.5-2.5 1.7v-.2c-.2.1-.4.3-.6.4-.7.5-1.4 1.2-2 1.9s-1 1.6-1.3 2.5c-.5 1.8-.6 3.5-.8 5.2l-.2 2.6c0 .9-.2 1.7 0 2.6 0 .1.1.2.2.3h.2c.1 0 .3-.1.3-.2.2-.4.3-.9.3-1.4 0-.4.1-.8.1-1.2l.3-2.6c.1-1.7.4-3.4.8-5 .5-1.9 1.6-3 2.9-4.1zm7.3-5.7.1.2 3.2 6 1.8 3.4.6 1.1c.1.2.2.3.3.5-.3.9-.5 1.8-.8 2.7-.8-.6-1.5-1.2-2.3-1.8-.6-.4-1-1-1.2-1.6s-.2-1.3 0-2c.1-.2 0-.4-.1-.5l-.1-.1-2.6-2.5-2.4-2.3z" fill="#187aa2"/><path d="m134.5 97.6c-.2-1.7-.3-3.5-.8-5.3-.3-.9-.7-1.8-1.3-2.5s-1.3-1.3-2-1.9l-2.1-1.5v.2l-1.4-.8c-.1 0-.1.1-.2.1-.1.1-.2.1-.3.2l-.1.1s-.1 0-.2.1h-.1c-.2 0-.3.1-.5.1h-.2l-2.4 3.1-1.4 1.9-.1.1-.2.2-.1.1c-.2 1-.1.3-.1.5v.1c0 .2.1.3.1.5 0 .4 0 .8-.1 1.1-.2 1-.5 1.9-1.1 2.7-.3.5-.6 1-1 1.4-1.1 1-2.4 1.8-3.8 2.3-.1 0-.2.1-.2.1-.2.1-.3.2-.3.4 0 .6.1 1.3.2 1.9 0 .1.1.1.2.1s.2-.1.2-.1c.2-.5.3-1 .3-1.5 1.6-.5 3.1-1.3 4.3-2.4.5-.5.9-1 1.2-1.5.5-.7.8-1.5 1-2.3.1-.3.2-.5.2-.8.1-.5.1-.9.1-1.4 0-.2 0-.4-.1-.6l.2-.2 1.5-2 2.7-3.5.2-.3c1 .9 2 1.7 3 2.5 1.3 1.1 2.4 2.3 2.8 3.8.4 1.7.7 3.3.8 5l.3 2.6c0 .4.1.8.1 1.2 0 .5.1.9.3 1.4 0 .1.1.1.1.2l.1.1c.2 0 .4-.1.4-.3.2-.9 0-1.7 0-2.6z" fill="#187aa2"/><path d="m130.5 132.6c-.6-.1-1.2-.1-1.8 0-1.1.2-2.2.6-3.2 1.2-.2.1-.3.3-.2.5s.3.3.5.2c1-.3 2-.6 3-.6 1-.1 2 .2 2.2.7s.1 1.5-.4 2.3c-.5.9-1 1.7-1.7 2.5-.4.5-.9 1-1.4 1.4-2.5 2.5-5.3 4.8-8.3 6.8-3.5 2.4-7.1 4.8-11 6.6l-.5.2c-1.7.8-3.5 1.4-5.3 1.7-1 .1-2-.1-2.1-.7-.2-.7.5-1.8 1.2-2.5.1-.1.1-.2 0-.2-.1-.1-.2-.1-.3-.1-.5.3-.9.7-1.3 1.1-.4.5-.7 1.1-.7 1.8.1.8.6 1.4 1.3 1.7.6.2 1.2.4 1.9.4 2.4 0 4.6-.7 6.6-1.6.1-.1.3-.1.4-.2 3.9-1.7 7.6-3.9 11-6.4 2.7-1.9 5.3-4.1 7.7-6.4.8-.8 1.5-1.6 2.2-2.5s1.3-1.9 1.8-3c.3-.6.4-1.2.5-1.8.1-.7-.1-1.5-.5-2.1-.2-.5-.9-.9-1.6-1z" fill="#187aa2"/><ellipse cx="112.4" cy="74.9" fill="#187aa2" rx="1" ry="1"/><path d="m312.1 144.1c-1.5-3.3-3.2-6.5-5.2-9.6 0-1.7 0-3.3-.1-4.8v-.9c0-.2 0-.5-.1-.7-.1-1.5-.3-2.9-.6-4.2 0-.6 1-1.4 2-2.2.2-.1.3-.2.5-.4.2-.1.4-.2.5-.3s.4-.2.5-.3c.2-.1.3-.4.2-.6-.7-1.7-1.6-3.3-2.7-4.7-.1.1-.3.2-.5.3-.1 0-.2.1-.3.1s-.1 0-.2.1c1 1.3 1.8 2.7 2.5 4.2l-.2.1c-.2.1-.3.2-.5.3s-.3.2-.5.4c-.7.4-1.3 1-1.8 1.6l-.1.1-2.4-7.1c-.1-.1-.2-.1-.4-.2s-.2-.2-.4-.3c-.2-.2-.4-.3-.6-.5v-2c-.1-.1-.2-.1-.3-.2l-.3-.3-.2.2.1-.2-.3.3c.3.5.6.9.9 1.4l3.5 10.2c.3 1.8.5 3.5.7 5.3v.4c.1 1.4.1 2.9.1 4.5l-15 1.3c-.1.2-.2.4-.2.5-.1.2-.2.4-.2.5l15.4-1.3h.3l.2.4c.1.2.3.5.5.8 2 3.5 7.1 12.6 8.2 20.4.2-.1.3-.1.5-.2.2 0 .3-.1.5-.1-.5-3.4-1.7-7-3-10.3-.4-.6-.7-1.3-1-2z" fill="#187aa2"/><path d="m293.5 171.3c-.3.2-.5.5-.7.7s-.3.5-.4.7c-1 2.2.1 5.4 1 8.2.1.4.3.9.4 1.3l.2-.9c.1-.3.2-.6.2-.9-1.1-3.5-1.8-6.1-.7-7.6.2-.3.5-.5.7-.7.3-.2.6-.4 1-.5.3-.1.6-.1.8-.2.1 0 .2-.1.3-.1l.1-.5v-.1c0-.2.1-.4.2-.6-.6.1-1.2.2-1.8.5-.4.2-.8.4-1.3.7z" fill="#187aa2"/><path d="m294.6 186.2c0 .5-.2 1-.5 1.4v1.3c.1-.1.2-.1.3-.2.8-.5 1.3-1.5 1.2-2.5z" fill="#187aa2"/><path d="m276.3 190.7c-.9 0-1.9-.1-2.8-.1-3.7-.2-7.4-.7-11-1.5-.7-.2-1.4-.4-2-.6-.2-.1-.4-.1-.6-.2l-.6-.3h-.1c-.8-.4-1.1-.8-1.2-1l-.1-.5c-.1-1-.2-2-.2-2.9v-1.6c0-1.3 0-2.5.1-3.7 0-.2.1-.5.1-.7.1-.9.2-1.7.4-2.5.1-.6.2-1.1.4-1.7 2-7.7 7.2-12.8 15.7-15 .5-.1.9-.2 1.4-.3.1 0 .2-.1.3-.1.7-.1 1.3-.4 1.9-.7.5-.3 1-.6 1.4-1 .3-.2.5-.4.7-.7 3.3-3.6 4-10.4 4.1-14.7-.2-.1-.3-.2-.5-.3s-.3-.2-.5-.3c0 4.7-.8 13-5.3 15.8-.6.4-1.3.6-2 .8-.5.1-1 .2-1.5.4-.3.1-.7.2-1 .3-4.4 1.3-7.9 3.3-10.5 6-2.7 2.8-4.5 6.4-5.4 10.7-.1.3-.1.6-.2.9s-.1.6-.1.9c0 .2-.1.5-.1.7-.1.4-.1.9-.1 1.3v.9c0 .8-.1 1.7-.1 2.6v1.4c0 1.2.1 2.3.3 3.5l.1.5c.1.7.6 1.3 1.7 1.8.1.1.2.1.3.1l.6.3c.2.1.4.2.7.2.6.2 1.3.4 2 .5 3.6.8 7.2 1.3 10.9 1.5 1.1.1 2.2.1 3.3.1h2c2.6 0 5.3-.1 7.9-.5 2.1-.2 4.2-.7 6.2-1.4 0-.2.1-.4.1-.6s.1-.4.1-.6c-1.8.8-4.1 1.4-6.7 1.7-3.5.5-6.8.7-10.1.6z" fill="#187aa2"/><path d="m291.2 107.8c-.1-.2-.1-.4-.1-.4l-.3-.3c-.1 0-.2-.1-.3-.1l.2.1z" fill="#187aa2"/><path d="m281.5 117.1c-.2.4-.3.7-.5 1.1-.5 1.1-.8 2.1-1.1 3.3 0 .1 0 .2.1.4.3.5.7 1 1.1 1.4.2.2.4.4.5.6l.1.1c.2.2.4.3.6.5s.4.3.6.4c2.8 2 6.6 3.2 9 3.7l.6.1.6.1c.6.1 1 .2 1.1.2h.1c.3 0 .5-.2.5-.4 1.1-7.2.5-12.2-1.8-15.1-.8-1.1-1.9-1.8-3.2-2.1l2.5-2.1c-.2-.1-.4-.3-.5-.5l-.3-.6-2.6 2.2-.8.7-.2.2-.1.1-.1.1c-1.7.3-3.1 1.4-4.2 2.8v-.1c.1-.2.2-.3.4-.5l2-2.9 1.1-1.6.8-1.2.6-.9.1-.2c-.2 0-.5-.1-.7-.2l-.6-.3-1.4 2.2-.8 1.2c-.7.8-1.3 1.8-1.8 2.7l-.4.6c-.7 1-1.3 2-1.8 3-.1.2 0 .4.1.5.2.1.4.1.6 0l.1-.1c.3-.3.5-.6.7-.9l.2-.2-.2.3c-.5.4-.8.9-1 1.4zm10.6-3c.5.7 1 1.5 1.2 2.4.8 2.3 1.2 5.8.4 11.4l-.5-.1-.6-.1-.6-.1c-2.5-.6-6.6-1.9-9.3-4.1-.2-.2-.4-.3-.6-.5l-.3-.3-.3-.3c-.1-.1-.1-.2-.2-.3s-.2-.3-.3-.5c.1-.2.2-.6.3-1.1l.1-.2v-.1l.1-.2.1-.4.3-.6.1-.1.6-1.2c1-2.1 2.6-4.3 4.7-5 .2-.1.5-.1.7-.2.4-.1.9-.1 1.3 0 0-.2 1.4-.1 2.8 1.6z" fill="#187aa2"/><path d="m127.2 76.5c.5-.5.7-1.2.7-1.9 0-1.1-.5-2.2-1.2-3 .7-1.9.7-4.1-.8-5.4 1.2-2.9-4.1-10.2-10.3-8.6-6.2-1.6-11.4 5.7-10.4 8.6-.3.3-.5.5-.7.9-.1.1-.1.2-.2.3 0 .1-.1.2-.1.3-.2.5-.2 1-.3 1.5v.8c.1.7.3 1.3.5 1.9-.1.1-.1.2-.2.3s-.1.2-.2.3c0 .1-.1.2-.1.3v.1c0 .1-.1.2-.1.3v.1c0 .1-.1.2-.1.3v.1c0 .1 0 .2-.1.2s0 .1 0 .1v1.5s0 .1.1.2v.1c0 .1.1.1.1.2s.1.1.1.2.1.1.1.2.1.1.2.2c-.1.1-.2.2-.3.2v.1l-.2.2-.1.1c-.1.1-.1.1-.1.2l-.1.1c0 .1-.1.1-.1.2l-.1.1c0 .1-.1.1-.1.2v.1s0 .2-.1.2v.9c0 .8.2 1.6.5 2.3-.8 1.1-.7 2.7.3 3.7-.7.8-1.2 1.8-1.3 2.9v.2l2.5-1.7.8-.5h.7v.1l.2-.1c.8-.2 1.5-.8 1.9-1.5l1.3-1.1.3-.2.2-.1v-.1l.2-.1.1-.5.5-2.6.1-.4-1.2-1v-1.1c0-.1 0-.1-.1-.2v-.1c0-.1-.1-.1-.1-.2v-.1l-.2-.2c0-.1-.1-.1-.2-.2l-.2-.2c-.1 0-.1-.1-.2-.1 0 0 0-.1.1-.1l.3-.6c0-.1.1-.2.1-.3v-1.5c0-.1 0-.1-.1-.2v-.1c0-.1-.1-.2-.1-.3v-.1l-.1-.2-.1-.1-.1-.2-.1-.1-.1-.1-.1-.1-.1-.1-.2-.2-.1-.1-.1-.1-.1-.1-.1-.1h-.1l-.1-.1h-.1l-.1-.1c0-.4-.1-.8-.1-1.2v-3.2l.2-.1c3.5-1.3 7.1-3.5 8.2-7.1 1.2 3.6 4.9 5.9 8.4 7.2v1.6c0 1.1-.1 2.1-.2 3.2-.1.1-.1.2-.2.2-.2.2-.4.4-.6.7-.5.7-.8 1.6-.8 2.4v.4c.1.4.2.7.4 1.1-.7.4-1.1 1.2-1.1 2l-1.2.9v-.3.3l.2 1.9.1.6.1.6.4.2.1.1.6.4v.2h.4l.6.3v.1c0 .3.1.5.1.8.3 1.2 1.3 2 2.5 2.1h.2c.2 0 .3 0 .5-.1h.1c.1 0 .1 0 .2-.1.1 0 .1-.1.1-.1.1 0 .2-.1.3-.2.1 0 .1-.1.2-.1l1.4.8v-.2l-.5-1.7c.6-1.1.5-2.5-.1-3.5.4-.8.7-1.7.7-2.6-.4-.7-.8-1.7-1.7-2.3z" fill="#3895ba"/><path d="m307.3 107.5c.2-1.3.1-2.7-.4-4-.6-1.5-1.7-2.6-3.2-3.2.4-1 .4-2.1 0-3.1-.6-1.5-1.8-2.8-3.3-3.6 0-3-1.2-6.1-4-7.3.1-4.4-10.6-11.8-18.6-7.6-.1.1-2.2.5-3.6 1.7-.8.6-1.3 1.5-1.4 2.4v.1c0 .3.1.5.2.8s.2.5.3.8c.2.6.5 1.1.9 1.6.1.2.3.4.5.5l.2.2c.4-.2.8-.3 1.2-.3.6 0 1.1.2 1.4.7v.2l-.1.1h-1.5c.6.4 1.3.6 2.1.7 0 0 3.1.3 5.3 1.6-.4.7-1.2 3 .9 6.3 0 0 1.2.9 1.6 3.2.1.6.2 1.2.2 1.8v1.3s-.5 2.7 1.2 3.9l.6.3c.2.1.5.2.7.2h1s.2 0 .5.1c.2 0 .3.1.5.1.1 0 .3.1.4.1.2.1.3.2.4.4 0 0 .1.2.2.5 0 0 0 .1.1.1l.3.6c.1.2.3.4.5.5.1.1.3.2.5.2.6 0 1.1 0 1.7.1 1.5.2 3.5.9 4.2 2.7 0 0 1.1 1 2.3.2l.3-.3.1-.1.2-.2.3.3c.1.1.2.2.3.2v2c.2.2.4.4.6.5.1.1.2.2.4.3.1.1.2.1.4.2s.3.1.4.2.3.1.5.2c.3.1.6.1.9.1h.7c.2 0 .4-.1.6-.1.1 0 .1 0 .2-.1.1 0 .2-.1.3-.1.2-.1.3-.2.5-.3.5-.3.8-.7 1.1-1.1l.7-1.9c-.1-1.7-.9-3.5-2.3-4.7z" fill="#3895ba"/><path d="m274.7 87.6c0 .1.1.2.3.2h.2c.2 0 .5 0 .8-.1-.3-.2-.6-.4-.8-.7-.1.1-.2.2-.3.2-.1.2-.2.3-.2.4z" fill="#004e6e"/><path d="m276 87.4h1.3c.1 0 .1 0 .1-.1v-.1c-.3-.4-.9-.6-1.5-.6-.4 0-.9.1-1.3.2.3.2.6.4.9.5z" fill="#004e6e"/><path d="m325 137.8c-1.1-3.8-4.5-6.8-8.4-7.2-.9-.1-2-.1-3.1-.1h-6.5v-.8c.1 1.5.1 3.1.1 4.8 1.9 3.1 3.7 6.3 5.2 9.5.2-.2.4-.2.7-.2.7 0 1.2.5 1.2 1.2 0 .6-.4 1-1 1.1 1.4 3.3 2.6 6.9 3.1 10.3.8-.2 1.5-.4 2.3-.6 1-.2 2-.4 2.9-.5l1.5-.2c.3 0 .6-.1 1-.1l.6-5.1.7-6.2.2-1.6c0-.5.1-1 .1-1.5-.2-.9-.4-1.9-.6-2.8z" fill="#fff"/><path d="m264.4 34.5h4.3c0-.8.7-1.5 1.5-1.5h2.2v-2.2c0-.8.7-1.5 1.5-1.5v-4.7c-.8 0-1.5-.7-1.5-1.5v-7.6c0-.8.6-1.5 1.4-1.5-.1-1.5-.6-3.1-1.3-4.4-.7.4-1.5.2-2-.5-1.2-1.9-3-3.3-5.1-4.1-.7-.3-1.1-1.1-.9-1.8-1-.2-1.9-.4-2.9-.4h-1.6c0 .8-.7 1.5-1.5 1.5h-7.6c-.8 0-1.5-.7-1.5-1.5h-4.6c0 .8-.7 1.5-1.5 1.5h-7.6c-.8 0-1.5-.7-1.5-1.5h-4.6c0 .8-.7 1.5-1.5 1.5h-7.6c-.8 0-1.5-.7-1.5-1.5h-4.6c0 .8-.7 1.5-1.5 1.5h-7.6c-.8 0-1.5-.7-1.5-1.5h-4.6c0 .8-.7 1.5-1.5 1.5h-7.6c-.8 0-1.5-.7-1.5-1.5h-4.6c0 .4-.2.8-.4 1.1s-.7.4-1.1.4h-7.6c-.8 0-1.5-.7-1.5-1.5h-4.6c0 .8-.7 1.5-1.5 1.5h-7.6c-.8 0-1.5-.7-1.5-1.5h-4.6c0 .8-.7 1.5-1.5 1.5h-7.6c-.4 0-.8-.2-1.1-.4s-.4-.8-.4-1.1h-4.6c0 .8-.7 1.5-1.5 1.5h-7.6c-.8 0-1.5-.7-1.5-1.5h-4.6c0 .8-.7 1.5-1.5 1.5h-7.6c-.8 0-1.5-.7-1.5-1.5h-4.6c0 .8-.7 1.5-1.5 1.5h-7.6c-.8 0-1.5-.7-1.5-1.5h-4.6c0 .8-.7 1.5-1.5 1.5h-7.6c-.8 0-1.5-.7-1.5-1.5h-1.6c-1 0-2 .1-3 .4.2.7-.2 1.5-.9 1.8-2.1.8-3.9 2.3-5.1 4.1-.4.7-1.3.9-2 .5-.6 1.4-1 2.9-1.2 4.4.8 0 1.4.7 1.4 1.5v7.6c0 .8-.7 1.5-1.5 1.5v4.6c.8 0 1.5.7 1.5 1.5v2.3h2.2c.8 0 1.5.7 1.5 1.5h4.5c0-.8.7-1.5 1.5-1.5h7.3c.4 0 .8.2 1.1.4s.4.7.4 1.1h4.4c0-.8.7-1.5 1.5-1.5h7.3c.4 0 .8.2 1.1.4s.4.7.4 1.1h4.3c0-.8.7-1.5 1.5-1.5h7.3c.8 0 1.5.7 1.5 1.5h4.4c0-.8.7-1.5 1.5-1.5h7.3c.8 0 1.5.7 1.5 1.5h4.4c0-.4.2-.8.4-1.1s.7-.4 1.1-.4h7.3c.8 0 1.5.7 1.5 1.5h4.4c0-.8.7-1.5 1.5-1.5h7.3c.8 0 1.5.7 1.5 1.5h4.4c0-.8.7-1.5 1.5-1.5h7.4c.8 0 1.5.7 1.5 1.5h4.4c0-.8.7-1.5 1.5-1.5h7.3c.8 0 1.5.7 1.5 1.5h4.3c0-.8.7-1.5 1.5-1.5h7.3c.8 0 1.5.7 1.5 1.5h4.4c0-.8.7-1.5 1.5-1.5h7.3c.8 0 1.5.7 1.5 1.5h4.4c0-.8.7-1.5 1.5-1.5h7.4c.8 0 1.5.7 1.5 1.5h4.4c0-.8.7-1.5 1.5-1.5h7.3c.8 0 1.5.7 1.5 1.5h4.4c0-.8.7-1.5 1.5-1.5h7.3c.5 0 1.2.7 1.2 1.5z" fill="#fff"/><path d="m293.8 172.9c-1.1 1.5-.4 4.1.7 7.4.6-2.2 1.1-4.4 1.6-6.6l.2-.9h-1.6z" fill="#fff"/><path d="m145.4 79.4-.4-31.5h-60.5v64.1c9 0 17.9 0 26.9.1l13.8.1 13.8.2c.1 0 .2.1.2.2h6.7v-7.8c-.1-3-.1-6.1-.2-9.1zm-3.7 25.7h-53.4c-.3 0-.5-.2-.5-.5v-52.8c0-.3.2-.5.5-.5l26.7-.3c8.9-.1 17.8-.3 26.7-.2.2 0 .3.2.3.3 0 .2-.2.3-.3.3-1.2 0-2.5.1-3.7.1h3.8v.1c.1 0 .1.1.1.2.3 17.6.4 35.2.3 52.8 0 .3-.3.5-.5.5z" fill="#fff"/><path d="m134.2 102.9c-.1 0-.1-.1-.1-.2-.2-.4-.3-.9-.3-1.4 0-.4-.1-.8-.1-1.2l-.3-2.6c-.1-1.7-.4-3.3-.8-4.9s-1.5-2.7-2.8-3.8l-3-2.4-.2.2-2.7 3.5-1.5 1.9-.2.2c0 .2.1.4.1.5 0 .5-.1.9-.1 1.3-.1.3-.1.5-.2.8l.3 3.2-1.4-.9c-.3.5-.7 1-1.2 1.5-1.2 1.1-2.6 1.9-4.2 2.4l-.3 1.5c0 .1-.1.1-.2.1s-.2-.1-.2-.1c-.1-.6-.2-1.2-.2-1.9 0-.2.1-.4.3-.4.1 0 .2-.1.2-.1 1.4-.5 2.7-1.2 3.8-2.3.4-.4.7-.9 1-1.3.5-.8.9-1.7 1.1-2.7.1-.4.1-.7.1-1.1 0-.2 0-.3-.1-.5v-.2c0-.2-.1.5.1-.5l.1-.1.2-.2.1-.1 1.4-1.8 2.4-3.1c-1.2-.1-2.2-1-2.5-2.1l-1.9-1.2-.2.5-2.3 6.8-1.3 4-.1.3v.5c-.1.2-.1.4-.2.5-.2.7-.5 1.4-.8 2.1 0 .1-.1.2-.1.2 0 .1-.1.1-.1.2s-.1.2-.1.3c-.1.1-.2.2-.4.2h-.1c-.1-.1-.2-.2-.2-.4s.1-.3.1-.5c-.9-.6-1.8-1.1-2.7-1.7-.7-.5-1.3-1.2-1.6-2-.3-.7-.3-1.5-.2-2.3l-4.9-4.6-.3-.3c-.9.8-1.8 1.5-2.7 2.2-1.3 1.1-2.4 2.2-2.8 3.8s-.7 3.3-.8 4.9l-.3 2.6c0 .4-.1.8-.1 1.2 0 .5-.1.9-.3 1.4-.1.1-.2.2-.3.2v.8h-9.3v.1h52.3v-.1h-6.8zm-11.2-1.1c1.1-.1 2.1-.1 3.1-.2v-3.2c0-.6.5-1.1 1.1-1.1h1.2v4.4c.5 0 1 .1 1.5.1.2 0 .3.2.3.4s-.1.3-.3.4c-1.1.1-2.3.2-3.4.2s-2.3 0-3.4-.2c-.2 0-.3-.2-.3-.4s0-.4.2-.4z" fill="#fff"/><path d="m111.5 91.2c.2.2.3.4.2.6-.2.6-.2 1.3 0 2 .2.6.6 1.2 1.2 1.6.8.6 1.5 1.2 2.3 1.8.2-.9.5-1.8.8-2.6-.1-.2-.2-.3-.3-.5l-.6-1.1-1.8-3.4-3.2-5.9-.1-.2-3.5 2.9 2.3 2.3z" fill="#fff"/><path d="m289.7 111.5c1.3.3 2.5 1 3.3 2.1 2.3 2.9 3 8 1.8 15.2 0 .3-.3.4-.5.4h-.1c-.1 0-.5-.1-1.1-.2-.2 1-.4 1.9-.7 2.9-.4 1.4-.8 2.8-1.4 4.1l15.2-1.3c0-1.6 0-3.1-.1-4.5v-.4c-.1-1.8-.4-3.6-.7-5.4l-3.5-10.3-.9-1.5c-1.2.9-2.3-.2-2.3-.2-.8-1.8-2.8-2.5-4.3-2.7-.6-.1-1.1-.1-1.7-.1-.2 0-.3-.1-.5-.2z" fill="#fff"/><path d="m293.3 184.8.1-.3c.2-.8.4-1.7.7-2.5-.1-.4-.3-.9-.4-1.3-.9-2.7-2-5.9-1-8.1.1-.3.3-.5.4-.7.2-.3.4-.5.7-.7.4-.3.9-.6 1.4-.7.6-.2 1.2-.4 1.8-.4.3-.8.6-1.6 1-2.3s.9-1.3 1.5-1.9c.8-.9 1.7-1.8 2.7-2.6 3.2-2.4 6.8-4.3 10.6-5.6.8-.3 1.6-.5 2.4-.8-1.1-7.8-6.1-16.9-8.2-20.4-.2-.3-.3-.6-.5-.8l-.2-.4h-.3l-15.4 1.3c-1 2-2.1 3.4-3.2 4l-.6.3c-.3.1-.5.1-.8.1h-.3c-.2 0-.4-.1-.6-.1-.2-.1-.4-.1-.6-.2-.1 0-.2-.1-.3-.1-.1 4.3-.7 11-4.1 14.7l-.7.7c-.4.4-.9.7-1.4 1-.6.3-1.2.6-1.9.7-.1 0-.2.1-.3.1-.5.1-.9.2-1.4.3-8.4 2.2-13.7 7.2-15.7 14.9-.1.5-.2 1.1-.4 1.7-.2.8-.3 1.6-.4 2.5 0 .2-.1.5-.1.7-.1 1.2-.1 2.4-.1 3.7v1.6c0 .9.1 1.9.2 2.9l.1.5c0 .2.3.6 1.2 1h.1l.6.3c.2.1.4.2.6.2.6.2 1.3.4 2 .6 3.6.8 7.3 1.3 11 1.5.9.1 1.9.1 2.8.1 3.3.1 6.5 0 9.8-.4 2.6-.3 5-.9 6.7-1.7.2-.8.3-1.7.5-2.5-.1-.1-.1-.3-.2-.4.2-.3.2-.4.2-.5z" fill="#fff"/><path d="m287.6 111.6.1-.1.1-.1.2-.2.8-.7 2.5-2.2c0-.1 0-.1-.1-.1l-.7-.8-.2-.2c-.2 0-.3-.1-.5-.1-.3 0-.5-.1-.5-.1h-1l-.1.2-.6.9-.8 1.2-1.1 1.7-1.9 2.9c-.1.2-.2.3-.4.5v.1c1.1-1.4 2.5-2.6 4.2-2.9z" fill="#fff"/><path d="m282.4 115.5.2-.3-.2.2c-.2.3-.5.6-.8.8l-.1.1c-.1.1-.3.1-.4.1l-.1 1.6c.2-.3.3-.7.5-1z" fill="#fff"/><path d="m281.6 122.1.3.3.3.3c.2.2.4.3.6.5 2.7 2.2 6.8 3.5 9.4 4.2l.6.1.6.1.5.1c.8-5.6.4-9.2-.4-11.5-.3-.9-.7-1.7-1.3-2.4-1.3-1.7-2.8-1.8-2.8-1.8-.7-.1-1.4 0-2.1.2-2.2.7-3.7 2.9-4.8 5l-.6 1.2-.1.1-.3.6-.1.4-.1.2v.1l-.1.2c-.2.5-.3.9-.3 1.1.1.2.2.3.4.5s.2.5.3.5z" fill="#fff"/><path d="m305.9 122.6c.5-.6 1.1-1.1 1.8-1.6.2-.1.4-.2.5-.4.2-.1.4-.2.5-.3l.2-.1c-.7-1.5-1.5-2.9-2.5-4.2-.2.1-.4.1-.6.1h-.7c-.3 0-.6-.1-.9-.1-.2 0-.3-.1-.4-.2s-.3-.1-.4-.2l2.4 7.1c0-.1.1-.1.1-.1z" fill="#fff"/><path d="m321.5 156.2c-1 .2-1.9.5-2.8.8-.8.2-1.6.5-2.4.8l-.5.2c-.2.1-.3.1-.5.2-.7.3-1.4.5-2.1.8-3.6 1.5-7.1 3.3-10 5.7-.4.3-.7.6-1.1 1-1 .9-1.9 2-2.7 3.2-.3.4-.5.9-.7 1.3-.1.2-.1.4-.2.5-.1.2-.1.4-.2.5v.1l-.1.3-.1.7-.1.7-.3 1.3c-.7 3.1-1.5 6.3-2.2 9.4-.1.4-.2.7-.3 1.1h25.2c.5-4.7 1.2-9.3 1.8-14l1.6-11.6c-.1-.2-.2-.4-.2-.7 0-.6 0-1.3.2-1.9 0-.3.1-.6.1-.9-.3.1-.6.1-.9.2z" fill="#fff"/><path d="m316.9 129.2c-1.2-.1-2.2-.1-3.3-.1h-3.2l-2.4-.1h-1v1.7h6.5c1.1 0 2.1 0 3.1.1 3.9.4 7.3 3.4 8.5 7.2.3.9.4 1.9.5 2.9 0 .5 0 1-.1 1.5l-.2 1.6-.7 6.3-.6 5.1c-.3 0-.7 0-1 .1l-1.5.2c-1 .2-2 .3-2.9.5-.8.2-1.6.4-2.3.6-.2 0-.4.1-.5.1-.2.1-.3.1-.5.2-.8.2-1.6.5-2.4.8-3.8 1.3-7.4 3.2-10.6 5.6-1 .8-1.9 1.6-2.7 2.6-.5.6-1 1.2-1.5 1.9-.4.7-.8 1.5-1 2.3-.1.2-.1.4-.2.6v.1l-.1.5v.1l-.2.7-.2.7-.2.9c-.5 2.3-1.1 4.5-1.6 6.7-.1.3-.2.6-.2.9l-.2.9c-.2.9-.4 1.7-.7 2.6l-.1.3v.2c0 .2.1.3.2.5-.2.8-.4 1.7-.5 2.5 0 .2-.1.4-.1.6s-.1.4-.1.6c-.1.4-.1.8-.2 1.1-.3 2.3-.7 4.7-.9 7-.5 4.6-1.1 9.2-1.2 13.8v.3c0 .1.1.3.3.3.1 0 .3-.1.3-.2s0-.2.1-.4c1-4.5 1.5-9.1 2.2-13.6.3-2.4.5-4.7.8-7 .1-.7.1-1.3.2-2v-1.3c0-.5 0-.9.1-1.3h1.6l22.8-.1h2.5c.4 0 .7-.3.8-.7.6-5.1 1-10.2 1.5-15.3l1.2-12.8c.1-.2.2-.4.2-.7.5-2.2.6-4.2 1-6.3l.9-6.3.2-1.6c.1-.6.1-1.1.1-1.7 0-1.1-.2-2.2-.5-3.3-1.5-4.4-5.4-7.9-10-8.4zm7 27.3c-.1.6-.2 1.3-.2 1.9 0 .2.1.4.2.7l-1.6 11.6c-.6 4.7-1.3 9.4-1.8 14h-25.2c.1-.4.2-.7.3-1.1.8-3.1 1.5-6.3 2.3-9.4l.3-1.3.1-.7.1-.7.1-.3v-.1c0-.2.1-.4.2-.5.1-.2.1-.4.2-.5.2-.5.4-.9.7-1.3.7-1.2 1.7-2.2 2.7-3.2.4-.3.7-.7 1.1-1 3-2.5 6.5-4.3 10.1-5.7.7-.3 1.4-.5 2.1-.8.2-.1.3-.1.5-.2l.5-.2c.8-.3 1.6-.5 2.4-.8.9-.3 1.9-.5 2.8-.8l1.4-.3c.3-.1.6-.1.9-.2-.1.3-.1.6-.2.9z" fill="#c3c4c7"/><path d="m146.4 79.2-.4-32.4c0-.3-.2-.5-.5-.5h-61.7c-.3 0-.5.2-.5.5v65.6c0 .3.2.5.5.5 9.2 0 18.3 0 27.5-.1l13.8-.1 13.8-.2c.1 0 .2-.1.2-.2s-.1-.2-.2-.2l-13.8-.2-13.8-.1c-8.9-.1-17.9-.1-26.8-.1h-.2v-64.4h60.7v.4l.4 31.5.2 16.2c.1 3 .1 6 .2 9.1 0 2.4.1 4.8.2 7.2 0 .2.2.3.3.3s.3-.2.3-.3c.1-5.4 0-10.8 0-16.2z" fill="#c3c4c7"/><path d="m141.4 51.9h-.2c-.1 0-.1.1-.1.1-.3 17.3-.3 34.6-.3 51.9v.1h-52.1v-51.5l26.1-.3c7.6-.1 15.3-.2 22.9-.4 1.2 0 2.5-.1 3.7-.1.2 0 .3-.2.3-.3s-.2-.3-.3-.3c-8.9-.1-17.7.1-26.6.2l-26.6.3c-.3 0-.5.2-.5.5v52.5c0 .3.2.5.5.5h53.2c.3 0 .5-.2.5-.5 0-17.5-.1-35-.3-52.5-.1-.2-.1-.2-.2-.2z" fill="#c3c4c7"/><path d="m122.9 102.9c1.1.1 2.3.2 3.4.2 1.2 0 2.3 0 3.4-.2.2 0 .3-.2.3-.4s-.1-.4-.3-.4c-.5-.1-1-.1-1.5-.1-.7 0-1.3-.1-2-.1h-.3c-1.1 0-2.1.1-3.1.2-.2 0-.3.2-.3.4s.3.4.4.4z" fill="#c3c4c7"/><path d="m68.8 94.1h12.2v72.9h-12.2z" fill="#f6f7f7"/><path d="m119.4 72.9h.8c1.5 0 2.9-1.1 3.1-2.7l.1-.7c.1-.6-.1-1.2-.5-1.7s-1-.8-1.7-.8l-2.1-.1c-.8 0-1.6.3-2.2 1l-2.8-.1c-.1-.1-.1-.2-.2-.2-.5-.5-1.2-.9-1.9-.9l-2.1-.1c-.6 0-1.3.2-1.7.7-.4.4-.6 1-.6 1.7l.1.7c.2 1.7 1.5 2.9 3.2 2.9h.6c1.7 0 3.2-1.4 3.3-3.1v-.5l1.7.1c0 .2-.1.4-.1.5-.1 1.7 1.3 3.2 3 3.3zm-.3-4.8h2c.3 0 .7.2.9.4s.3.5.2.8l-.1.7c-.2 1.1-1.2 1.8-2.2 1.7h-.5c-1.2-.1-2.1-1-2-2.2 0-.4.2-.8.6-1.1.3-.2.7-.4 1.1-.3zm-7.6 3.4h-.5c-1.1 0-2-.8-2.1-1.9l-.1-.7c0-.3.1-.6.3-.8s.5-.4.9-.4l2.1.1c.5 0 .9.2 1.2.5s.4.7.4 1.1c-.1 1.2-1.1 2.1-2.2 2.1z" fill="#c3c4c7"/><path d="m276.9 88.8-1.8-.2h-.7c-.4.1-.8.3-1.1.6l-.1-.1-.3-.2-.1-.1-.3-.1h-.1c-.1-.1-.3-.1-.4 0-.1 0-.1.1-.2.1l-.1.2c0 .1 0 .3.1.4l.2.2.3.2.2.1.3.1h.1c-.1.2-.1.4-.2.6-.1.9.3 1.9 1.1 2.4.2.2.5.3.8.4.2.1.4.1.5.1l.4.1h.4c1.2 0 2.3-.8 2.6-2l.1-.6c.1-.5 0-1-.3-1.5-.3-.3-.8-.6-1.4-.7zm.8 2.1-.1.6c-.2.9-1.1 1.5-2 1.3l-.4-.1c-.2 0-.5-.1-.7-.2l-.3-.3c-.4-.4-.6-.9-.6-1.5.1-.5.4-.9.9-1.1h.7l1.8.2c.3 0 .6.2.7.4 0 .1.1.4 0 .7z" fill="#c3c4c7"/><path d="m70.7 147.4h27.9v35.3h-27.9z" fill="#f6f7f7"/><path d="m86.9 154.1c.8.7 1.3 1.7 1.5 2.8v.3l.6-.6c.2-.2.4-.3.7-.3s.5.1.7.3l.9 1c.1.1.2.2.2.4 1.2-.1 2.3.2 3.4.7 1.1.6 2 1.5 2.5 2.6.2.3.3.6.3 1s0 .7-.2 1.1c-.3.6-.9 1-1.5 1.1v.2c-1.7.7-3.6.7-5.2-.1-.8-.4-1.6-1-2.2-1.7-.1-.2-.2-.4-.4-.5-.4.5-.7 1-1 1.5-.3.4-.5.9-.8 1.4l.2-.1c1.2-.4 2.5-.5 3.7-.2s2.3 1 3.1 1.9c.2.3.4.6.5.9s.2.7.1 1.1c-.1.7-.6 1.2-1.2 1.4l.1.1c-.3.2-.5.3-.8.5l53.1-.8.1-49.2-61.1-.9-.1 32.5h.1c1 .3 1.9.8 2.7 1.6zm13.2-.3c.4-.4.8-.8 1.3-1.1.1-.1.2 0 .3.1s.1.2 0 .2c-.7.8-1.3 1.8-1.2 2.5.1.6 1.1.8 2.1.7 1.8-.3 3.6-.8 5.3-1.6-3.9-3.5-5.3-8.3-3.6-13.7 2.4-7.4 10.2-9.4 16.6-6.7 3.1 1.3 5.5 3.8 6.7 6.9.5-.5.9-.9 1.3-1.4.7-.8 1.2-1.6 1.7-2.5.4-.8.6-1.8.4-2.3-.3-.5-1.3-.8-2.2-.7-1 .1-2 .3-3 .6-.1.1-.3 0-.4 0-.1-.1-.2-.2-.2-.4 0-.1.1-.3.2-.3 1-.5 2.1-.9 3.2-1.1.6-.1 1.2-.1 1.8 0 .7.1 1.4.5 1.8 1.1s.6 1.4.5 2.1c-.1.6-.3 1.2-.5 1.8-.5 1-1.1 2-1.8 2.9s-1.4 1.7-2.2 2.5c.6 2.7.3 5.5-.9 8.1-3 6.3-10.2 9.2-16.6 5.4-.4-.2-.8-.5-1.1-.7-.1.1-.3.1-.4.2-2.1.8-4.2 1.6-6.6 1.6-.6 0-1.3-.1-1.8-.4-.7-.3-1.2-.9-1.3-1.7 0-.9.2-1.6.6-2.1z" fill="#c3c4c7"/><path d="m84.1 142.3h14.5v28.2h-14.5z" fill="#c3c4c7"/><path d="m66.4 156c-.2.1-.3.2-.5.2-.4.2-.8.3-1.3.3-.8.1-1.7.1-2.5-.1s-1.5-.5-2.1-1.1c-.3-.3-.6-.5-.8-.9-.1-.2-.1-.4-.1-.6.1-.2.2-.4.4-.4.4-.2.7-.3 1.1-.4.8-.2 1.6-.3 2.4-.1s1.6.5 2.2 1c.3.3.7.6 1 .9l.2.2z" fill="#fff"/></g><g transform="translate(.393 77.227)"><path d="m103.3 95.3c4.6.1 9.1.1 13.6.3l-1.4-5.2h-25.5l-1.6 5.3c2-.2 4-.2 6-.3z" fill="#fff"/><path d="m94.3 96.6c-2.1-.1-4.1-.1-6.2-.3l-2 15.5c-.3 2.4-.1 4.9.4 7.2.6 2.4 1.7 4.7 3.1 6.6 2.9 4 7.6 6.7 12.7 6.9v-.1c2.5 0 5-.7 7.2-1.9 2.1-1.2 4.1-2.9 5.5-4.8 3-4 4.3-8.9 3.7-14l-1.7-15.3c-4.7.2-9.2.2-13.9.3z" fill="#fff"/><g fill="#c3c4c7"><path d="m109.6 81.6h-.2c-.2-.2-.3-.4-.4-.6-.3.4-.5 1-.7 1.5-1 2.1-1.6 4.3-1.9 6.6h.4c.8-2.1 1.7-4 2.7-6 .3-.4.4-.8.7-1.3l-.6-.2c.1-.1 0 0 0 0z"/><path d="m123.6 66.3c.1-.1.1-.3 0-.4s-.3-.1-.4 0c-4.1 2.8-7.8 6.2-10.9 10-1.2 1.4-2.1 3-3 4.6.2.3.3.5.4.8v.1l.5.2c1-1.7 2.1-3.3 3.2-4.8 2.9-3.8 6.7-7.1 10.2-10.5z"/><path d="m99.4 75c0-.2-.1-.4-.1-.5l-.3.3h-.2l-.8.2c0 .1 0 .2.1.3.7 4.3 1.1 8.8 1.4 13.2h.4c.3-4.4.2-9-.5-13.5z"/><path d="m99 74.8c.2-.1.3-.3.4-.4-.7-4.5-2-8.9-3.8-13.2-1.9-4.5-4.5-8.7-7.7-12.4s-7.1-6.7-11.4-9.1c-.1-.1-.3 0-.4.1 0 .1-.1.1 0 .2 0 .1.1.1.1.2 3.9 2.7 7.5 5.8 10.7 9.5 3 3.7 5.5 7.7 7.3 12.1 1.8 4.3 3.1 8.8 3.9 13.3l.9-.3c-.1.1 0 0 0 0z"/><path d="m106.6 89.8c-.1 0-.1-.1-.1-.2 0-.3.1-.4.1-.7h-6.5v.8s0 .1-.1.1h-.1c-.1 0-.1-.1-.1-.1 0-.3 0-.5-.1-.8h-10c-.4 0-.6.2-.7.5l-1.9 6.4c.5-.1 1-.1 1.5-.1l1.6-5.4h-.5l.7-.5-.3.5h25.2l-.2-.5.7.5h-.5l1.5 5.3c.4 0 1 .1 1.4.1l-1.8-6.3c-.1-.3-.4-.5-.7-.5h-8.9z"/><path d="m119.4 112c.6 4.9-.6 10-3.7 14.1-1.5 2-3.4 3.7-5.6 4.8-2.2 1.2-4.7 1.9-7.2 1.9v.1c-5.2-.1-9.9-2.9-12.9-6.9-1.5-2-2.6-4.3-3.1-6.7-.6-2.4-.8-4.8-.4-7.3v.1-.1.1l2-15.6c-.4 0-1-.1-1.4-.1l-1.9 15.4v.1c-.6 5.3.9 10.7 4.2 14.9 1.6 2.1 3.7 3.8 6.1 4.9 2.3 1.2 4.9 1.7 7.6 1.6v.1c2.6 0 5.2-.5 7.6-1.7 2.3-1.2 4.4-2.9 6-4.9 3.2-4.2 4.7-9.5 4.2-14.9v-.1l-1.9-15.3c-.4 0-1 .1-1.4.1z"/></g><path d="m106.4 89.5c0 .1.1.1 0 0 .2.1.3.1.3 0 .1-.2.3-.4.4-.6h-.6c0 .2-.1.4-.1.6z" fill="#f6f7f7"/><path d="m98.5 45.8c-2.6-4.5-6.1-8.3-10.3-11.5-2.1-1.5-4.3-2.8-6.7-3.6s-5-1.1-7.2-.4c-2.4.7-4.4 2.5-5.6 4.6-1.3 2.1-1.4 4.7-1.2 7.2.5 5.1 2.6 10 4.9 14.6 2.4 4.7 5.5 8.9 8.9 12.7 1.8 1.9 3.8 3.6 5.9 5 1.1.7 2.2 1.3 3.5 1.6 1.2.4 2.5.3 3.7-.3.1-.1.3 0 .4.1l3.1-1.1c-.7-4.6-2.1-9-3.8-13.3-1.8-4.4-4.2-8.4-7.2-12.1-3-3.6-6.6-6.8-10.5-9.5-.1 0-.1-.1-.1-.2v-.2c.1-.1.3-.2.4-.1 4.2 2.3 8.1 5.5 11.2 9 3.1 3.7 5.7 7.9 7.6 12.4 1.7 4.2 3 8.6 3.7 13.2 1.8-1.6 3.1-3.7 3.8-6 .7-2.5.9-5.1.5-7.7-.6-5-2.5-10-5-14.4z" fill="#fff"/><path d="m131.2 57.8c-1.1-1.4-2.6-2.5-4.4-3-2.1-.5-4.2-.4-6.3.1l-1.3 8.9c-.1.3-.4.5-.6.5-.3 0-.6-.2-.7-.4l-2.1-7.2c-3.2 3-5.6 6.7-7.1 10.8-.8 2.2-1.2 4.6-1.2 7 0 2.1.4 4.1 1.3 6 .9-1.6 1.9-3.1 3-4.6 3.1-3.8 6.8-7.2 10.9-10 .1-.1.3-.1.4 0s.1.3 0 .4c-3.4 3.5-7.2 6.7-10.1 10.6-1.2 1.5-2.2 3.1-3.2 4.8l2.4.9c.1-.1.2-.2.4-.1 2 .8 4.2.4 6.2-.2 2-.7 3.8-1.7 5.5-3 .8-.6 1.5-1.3 2.2-1.9 2.4-2.2 4.3-4.9 5.5-7.9.8-1.9 1.2-4 1-6.1.3-2.1-.5-3.9-1.8-5.6z" fill="#fff"/><path d="m90.7 77.2c1.3.4 2.8.2 4-.4.1-.1.2-.2.1-.3s-.2-.2-.4-.1c-1.2.5-2.4.6-3.7.3s-2.4-.9-3.5-1.6c-2.1-1.4-4.2-3.1-5.9-5-3.6-3.8-6.5-8.1-9-12.8-2.4-4.7-4.5-9.6-5-14.7-.3-2.5 0-5.2 1.3-7.2 1.3-2.1 3.2-4 5.6-4.7 2.3-.7 4.9-.4 7.3.4s4.7 2.1 6.8 3.6c4.2 3 7.7 7 10.3 11.5 2.5 4.6 4.4 9.6 5 14.7.3 2.6.1 5.2-.5 7.7-.6 2.3-2 4.5-3.8 6.1l-.4.4s-.1.1 0 .2c0 .1.1.1.2 0l.3-.3c2.1-1.6 3.6-3.8 4.4-6.2.8-2.6 1.1-5.3.9-8-.4-5.4-2.3-10.6-4.8-15.3-2.7-4.7-6.3-8.8-10.6-12-2.4-1.6-4.8-3-7.3-3.8-2.6-.9-5.5-1.3-8.2-.4-2.8.9-5 2.9-6.4 5.2-1.4 2.6-1.6 5.5-1.3 8.2.6 5.5 2.7 10.5 5.3 15.1 2.6 4.7 5.7 9 9.4 12.9 1.9 2 3.9 3.7 6.2 5.1 1.2.6 2.4 1.1 3.7 1.4z" fill="#c3c4c7"/><path d="m133.7 69.7c.9-2.1 1.3-4.4 1.2-6.7s-1.1-4.6-2.5-6.4c-.7-1-1.5-1.8-2.6-2.4-.9-.5-1.9-.9-3-1.2-.1 0-.2-.1-.4-.1-2.2-.4-4.7-.3-6.8.4-.3.1-.4.3-.4.5l-.8 6.1-1.4-4.8c-.1-.2-.3-.4-.4-.4-.2-.1-.4 0-.6.2-3.7 3.2-6.4 7.4-7.9 12.2-.7 2.3-1 4.8-.9 7.2.2 2.2.8 4.4 1.9 6.3.1.2.3.4.4.6 0 .1.1.1.2 0l.1-.1v-.1c-.2-.3-.3-.5-.4-.8-.9-1.9-1.3-3.8-1.3-5.9 0-2.3.4-4.7 1.2-7 1.4-4.1 3.8-7.9 7.1-10.8l2.1 7.2c.1.3.4.4.7.4.4 0 .5-.3.6-.5l1.3-8.9c2.1-.5 4.2-.6 6.3-.1 1.8.4 3.3 1.4 4.4 3 1.3 1.6 2.1 3.6 2.2 5.5.2 2.1-.2 4.1-1 6-1.3 3-3.2 5.6-5.5 7.9-.7.7-1.4 1.3-2.2 1.9-1.7 1.3-3.6 2.3-5.5 3-2 .6-4.2 1-6.2.2-.1-.1-.3 0-.4.1s0 .3.1.4c2.1 1 4.5.8 6.6.2s4.1-1.7 6-3c.5-.4 1.1-.8 1.6-1.3 2.4-2.3 4.7-5.4 6.2-8.8z" fill="#c3c4c7"/><path d="m121.3 95.7c-.9-.1-1.7-.1-2.6-.2-.4 0-1-.1-1.5-.1-4.6-.2-9.1-.2-13.7-.3l-8.9.1c-2 .1-4 .1-6 .3-.5 0-1 .1-1.5.1-.5.1-.9.1-1.3.1-.1 0-.2.1-.2.1 0 .1.1.1.2.1.4.1.7.1 1.2.1.4 0 1 .1 1.4.1 2.1.2 4.1.2 6.3.3l8.9.1c4.7-.1 9.3-.1 14-.3.4 0 1-.1 1.4-.1.8 0 1.6-.1 2.3-.1.2 0 .3-.1.3-.3-.1.1-.2 0-.3 0z" fill="#c3c4c7"/></g></svg>
