<svg id="Layer_1" xmlns="http://www.w3.org/2000/svg" viewBox="0 0 388 197"><style>.st0{fill:none}.st1{fill:#F6F6F6}.st2{fill:#F6F6F6}.st3{fill:#CCCED0}.st4{fill:#E1E2E2}.st5{fill:#46799A}.st6{fill:#fff}.st7{fill:#E1E2E2}.st9{fill:#204A69}.st10{fill:#6F93AD}.st11{fill:#B0B5B8}.st12{fill:#204A69}</style><g id="Page-1"><g id="Create-a-tagline"><g id="tagline" transform="translate(10 21)"><path id="Shape_2_" class="st0" d="M330.7 58.5l.2.5.9 3.3-.6-.1-1.7 16.2c-3.4-1.2-7-2.3-10.5-3.1-1.1-.7-2.2-1.3-3.4-1.7-1-.4-3.9-.8-7.3-1v-5.8l22.4-8.3z"/><path id="Shape_5_" class="st0" d="M285.8 201.7c0 4.3-.1 8.6-.4 11.5-.1.3-.1.5-.2.7s0 .4.1.6c0 .8-.2 1.5-.4 2.3-.7 1.4-7.1 2.7-9.5 3.9-.4.2-.8.5-1.1.9l-7.6-.1-81-.2c-11.5 0-22.9.1-34.4.1 1.7-.7 3.1-1.8 4.3-3.2 1.2-1.5 2-3.3 2.2-5.3.1-1.9.1-3.6.2-5.3l.4-10.6.2-5.4h126.6c.1 1.1.1 2.3.2 3.5.1 2.3.3 4.5.4 6.6z"/><path id="Shape_6_" class="st0" d="M302 184.5c.4-.1.7-.5.6-.9l2.6-.4c.1.2.2.4.4.5.6.4 1.7.7 3 .8 1.9 18.5 4.7 37.2 4.7 37.3-5.6-.1-11.3-.2-16.9-.2 3-13 4.2-32.2 4.5-37.1.5.1.9.1 1.1 0z"/><path id="Shape_7_" class="st0" d="M298 70.5l.1 1.3c0 .2.1.4.3.5v.1c-1.3 0-2.6.2-3.8.5v-1.1l3.4-1.3z"/><path id="Shape_10_" class="st1" d="M288 77.2c-3.6 5.3-6.5 15.4-6.5 15.4l-13.7-8.4c-.4-.7-.8-1.4-1.3-2.1l28.1-10.3v1.1c-.2 0-.4.1-.6.2-3.2 1.4-5 2.3-6 4.1z"/><path id="Shape_11_" class="st1" d="M81.5 150c-.2-2.7-1.3-5.4-2.9-7.5-.1-.1-.2-.2-.3-.4V36.5h3.9c.9 0 1.6-.7 1.6-1.6h4.6c0 .9.7 1.6 1.6 1.6h7.7c.9 0 1.6-.7 1.6-1.6h4.6c0 .9.7 1.6 1.6 1.6h7.7c.9 0 1.6-.7 1.6-1.6h4.6c0 .9.7 1.6 1.6 1.6h7.7c.9 0 1.6-.7 1.6-1.6h4.6c0 .9.7 1.6 1.6 1.6h7.7c.9 0 1.6-.7 1.6-1.6h4.6c0 .9.7 1.6 1.6 1.6h7.7c.9 0 1.6-.7 1.6-1.6h4.6c0 .9.7 1.6 1.6 1.6h7.7c.9 0 1.6-.7 1.6-1.6h4.6c0 .9.7 1.6 1.6 1.6h7.7c.4 0 .8-.2 1.1-.5s.5-.7.5-1.1h4.6c0 .9.7 1.6 1.6 1.6h7.7c.9 0 1.6-.7 1.6-1.6h4.6c0 .9.7 1.6 1.6 1.6h7.7c.9 0 1.6-.7 1.6-1.6h4.6c0 .9.7 1.6 1.6 1.6h7.7c.4 0 .8-.2 1.1-.5s.5-.7.5-1.1h4.6c0 .9.7 1.6 1.6 1.6h7.7c.9 0 1.6-.7 1.6-1.6h4.6c0 .4.2.8.5 1.1s.7.5 1.1.5h7.7c.9 0 1.6-.7 1.6-1.6h4.6c0 .9.7 1.6 1.6 1.6h7.7c.9 0 1.6-.7 1.6-1.6h4.6c0 .9.7 1.6 1.6 1.6h3.9V45l-.3.3-45.9 16.8V62L231 68.7l-11.4 14.8c0-.1-.1-.2-.1-.4-3.4.9-6.7 2-10 2.8-2.1.6-4.2 1-6.4 1.2-2.2.3-4.3.4-6.5.4-8.7 0-17.5-2-26.3-3.8-4.4-.9-8.9-1.8-13.4-2.2s-9.2-.3-13.7.7c-.2 0-.3.3-.3.5s.2.3.4.3c9 .2 17.6 2 26.4 3.9 8.8 1.9 17.7 4.1 27 4.2 2.3 0 4.7-.1 7-.4s4.6-.7 6.9-1.4c2.7-.7 5.4-1.5 8-2.3l7 1.6v-.1l14.5 3.4h.1v.1l16-5.8c-.1.1-.1.3 0 .4.8 3.2 2.2 5.1 7.6 5.7h.1c.1 0 .3 0 .4-.1l-.1.3s15.5 17.8 24.8 14.7l.6 16.7H288c-.2 0-.4.1-.6.2-.1.1-.2.3-.2.6 0 .2.1.5.3.6-1.7.9-2.8 2.6-3.1 4.5-.1.5-.1 1-.2 1.5-.1.1-.1.2-.2.4-3.4 21.3-1.7 40-1 48 .1 1.3.2 2.3.2 3 0 .8.5 1.5 1.1 2 .5.4 1.1.6 1.7.8 0 1.9.1 4 .3 6.2H158.6l1.3-36.8c0-.2-.1-.4-.2-.5s-.3-.2-.5-.2l-16.6.1v-6.9c0-14.4-11.7-26.1-26.1-26.1h-4.3l1.7-2.7c.1 0 .2 0 .3-.1 1.2-2.2 1.1-4.8.5-7.1-.6-2.3-1.5-4.6-2.6-6.7-1.2-2.1-2.5-4.1-4-6s-3.2-3.6-5.1-5.1c-.2-.2-.5-.2-.7-.2-.3.1-.5.2-.6.5-2.6 5.5-3.8 11.9-2.6 18.1.7 3 2 6 4.3 8.2.5.4 1 .8 1.6 1.2H93.2v43l-.2.2v-.3c-.2-1.1-.8-2.1-1.6-2.9-.8-.8-1.8-1.4-2.9-1.7-.3-.1-.5-.1-.8-.2l-.4-.1h-.5c-.8 0-1.5.4-2 .9-.5.6-.8 1.3-.8 2 0 .6.2 1.2.5 1.8.5 1 1.2 2 2.1 2.6s1.9 1.1 3 1.2h.5c-.4.5-.7 1-1 1.5-.4.6-.7 1.2-.9 1.8-.4-.8-1-1.5-1.7-2-1-.7-2.1-1.1-3.2-1.2-.6-.1-1.1-.1-1.7 0-.8.1-1.5.5-2 1.1-.5.7-.6 1.5-.4 2.3.2.6.4 1.1.8 1.6.6 1 1.5 1.8 2.5 2.3s2.1.8 3.2.8c.3 0 .6 0 .9-.1v.1c-.3 1.5-.5 2.9-.5 4.4-.1-.2-.2-.4-.4-.5-.7-.9-1.7-1.5-2.8-1.8-1.1-.3-2.3-.3-3.4-.1-.3.1-.7.2-1 .4v-17.2c.7-1.1 1.3-2.3 1.9-3.6.8-2.3 1.3-5 1.1-7.7zm121.7-75.2V46.1l-30.3-.4v28.7l30.3.4zm-74 30l14.7.3 14.7.2 29.5.1c9.8 0 19.6 0 29.5-.1 9.8-.1 19.6-.2 29.5-.4.6 0 1-.5 1-1s-.4-1-1-1c-9.8-.2-19.6-.3-29.5-.4-9.8-.1-19.6-.1-29.5-.1l-29.5.1-14.7.2-14.7.3c-.6 0-1 .5-1 1s.4.7 1 .8z"/><path id="Shape_13_" class="st2" d="M85.6 222.2h.4c1.2 0 2.3-.2 3.5-.5 9.9-.1 19.8-.1 29.7-.1 1.7.7 3.5 1 5.3.9h21c2 .1 4-.2 5.8-1 11.5 0 22.9-.1 34.4-.1l81 .2 7.6.1c-.5.8.5 1.4.5 1.4l21.5-.3c.1-.3.1-.6.2-.9 5.6.1 11.3.1 16.9.2.1.4.4.6.8.6h.1c.3 0 .6-.3.6-.6 10.9.2 21.9.4 32.8.7.2 0 .3.1.3.3s-.1.3-.3.3c-27 .9-54 1.1-81 1.3l-81 .2c-54-.2-108-.1-162-1.1-.3 0-.6-.3-.6-.6s.3-.6.6-.6c19.5-.4 39-.7 58.6-.8 1 .2 2.1.4 3.3.4z"/><path id="Shape_25_" class="st2" d="M86.8 221.7h2.7c-1.1.3-2.3.5-3.5.5.3 0 .6-.2.8-.5z"/><g id="Group" transform="matrix(-1 0 0 1 203.429 45.57)"><path id="Shape_26_" class="st3" d="M30.7.5v28.7L.3 28.9V.2l30.4.3zM5 9.6c.3.7.7 1.3 1.2 2 .5.6 1 1.2 1.5 1.7-.3 1.7-.1 3.4.6 4.9 1.9 4 6.5 5.9 10.6 3.5.2-.1.3-.2.5-.3.1.1.3.1.4.2 1.3.5 2.7 1 4.3 1 .4 0 .8-.1 1.2-.3.5-.2.8-.7.9-1.2-.1-1-.8-1.5-1.3-1.9h-.2s-.1.2 0 .2c.4.5.8 1.2.7 1.6-.1.3-.6.4-1.2.3-1.1-.2-2.2-.6-3.2-1.1 2.4-2.2 3.2-5.2 2.1-8.7-1.5-4.8-6.5-6.1-10.6-4.3-2 .7-3.5 2.2-4.3 4.1l-.8-.8c-.4-.5-.7-1-1-1.5-.3-.6-.4-1.1-.3-1.4.1-.2.6-.5 1.3-.4.3 0 .6 0 .9.1l1 .2c.2 0 .3-.1.4-.2s0-.3-.1-.4c-.7-.3-1.4-.6-2.1-.7l-.6-.1h-.6c-.6.1-1 .4-1.3.8-.2.2-.3.5-.3.8v.7c0 .4.1.8.3 1.2z"/><path id="Shape_27_" class="st4" d="M13.6 15.7c-1.9-1.3-3.7-2.7-5.3-4.4.7-1.8 2.2-3.3 4.1-4.1 4.1-1.8 9.1-.5 10.6 4.3 1.1 3.4.2 6.4-2.1 8.7l-.4-.2c-2.4-1.3-4.7-2.7-6.9-4.3z"/><path id="Shape_28_" class="st4" d="M19.4 21.3c-.2.1-.3.2-.5.3-4.1 2.4-8.7.6-10.6-3.5-.7-1.5-.9-3.3-.6-4.9 1.5 1.5 3.1 2.8 4.8 4 2.1 1.7 4.4 3 6.9 4.1z"/><path id="Shape_29_" class="st5" d="M4.6 7.7c.1-.3.2-.5.4-.8.3-.4.8-.7 1.3-.8h.6l.6.1c.7.2 1.4.4 2 .8.1.1.2.3.1.4s-.2.2-.3.2l-1-.2c-.3-.1-.6-.1-1-.1-.6-.1-1.1.1-1.2.4-.1.2 0 .8.3 1.3s.6 1 1 1.5c.3.3.5.6.8.8 1.6 1.6 3.4 3.1 5.3 4.4 2.2 1.6 4.5 3 6.9 4.2l.4.2c1 .5 2.1.9 3.2 1.1.6.1 1.1 0 1.2-.3.1-.4-.2-1.1-.7-1.6-.1-.1 0-.2 0-.2s.2-.1.2 0c.6.4 1.2.9 1.3 1.9-.1.5-.4 1-.9 1.2-.4.2-.8.3-1.2.3-1.6 0-3-.4-4.3-1-.1-.1-.3-.1-.4-.2-2.5-1.1-4.8-2.5-7-4.1-1.7-1.2-3.3-2.6-4.8-4-.5-.5-1-1.1-1.5-1.7-.5-.6-.8-1.3-1.2-2 .1-.3 0-.7-.1-1.1v-.7z"/></g><path id="Shape_30_" class="st4" d="M239.1 92.1l-14.6-3.4-3.2-8.4-2.6 3.3v-.1l11.4-14.8 18.2-6.7v.1l-18.1 6.6 8.9 23.4z"/><path id="Shape_31_" class="st3" d="M322.6 43.7l-.6-.1-1.9.7-8 2.9c-.8-1.5-1.8-2.8-3.1-3.4-1.6-.9-3.4-1.5-5.2-1.9l30.8-11.3c.5 1.7 1 3.4 1.6 5 .7 2.3 1.6 4.6 2.4 6.9.8 2.3 1.7 4.6 2.6 6.8.7 1.6 1.3 3.2 2 4.7l-.7.3c-.1-.3-.1-.6-.2-.9-.1-.2-.2-.4-.4-.5-.2-.1-.4-.1-.6-.1-.2.1-.3.2-.4.3l-4.5 1.1h-.4c-.4.1-.7.5-.6.9.1.3.1.5.1.8-1.2-1.4-3.4-3.9-5.1-3.9-.4 0-.8.2-1 .5-.6.9-.1 2.5 1.4 6.1l-22.5 8.2V66c2.9-1.4 4.6-4.9 5.1-8.8l.6-.2 9.5-3.5 1.9-.7.3-.4c1.1-1.5 1.4-3.5.8-5.2-.6-1.8-2.1-3.1-3.9-3.5z"/><path id="Shape_32_" class="st3" d="M290.4 53.6c.1-.1.3-.2.5-.2l.2.2c-.1.5-.1 1-.2 1.5l-1.2-.4c.1-.5.3-.9.7-1.1z"/><path id="Shape_33_" class="st3" d="M290.1 58c-.3-.2-.6-.9-.6-1.8l1.4.5c0 .4 0 .8.1 1.2-.3.1-.7.3-.9.1z"/><path id="Shape_34_" class="st3" d="M248.4 62.1l45.9-16.8c-1 1.4-1.8 3-2.3 4.6-.1.2-.1.4-.2.7-.2.4-.3.8-.4 1.3-.3-.1-.6-.1-1-.1-1.1.2-2.3 1.3-2.5 3.2-.2 1.5 0 3.6 1.3 4.4.3.2.7.3 1 .3s.6-.1.9-.2v.2c.6 2.8 1.3 5.3 3.4 7 .9.7 2 1.2 3.1 1.4l.3 2.5-3.4 1.2-28.1 10.3c-1.3-1.8-2.8-3-4-3.5-.6-.3-1.2-.3-1.8 0-1.3.7-.5 2.2.1 3.3.3.6.7 1.4.7 1.9l-.8.3c-.2-.1-.4-.3-.5-.5s-.3-.3-.5-.3-.4 0-.6.1c-.1.1-.2.2-.2.3l-1.8 1.2-1.3.8h-.1c-.3.1-.5.3-.6.5L239 92v-.1l-8.9-23.3 18.3-6.5z"/><path id="Shape_35_" class="st6" d="M293.1 30.9v2.4h-2.4c-.9 0-1.6.7-1.6 1.6h-4.6c0-.9-.7-1.6-1.6-1.6h-7.7c-.9 0-1.6.7-1.6 1.6H269c0-.9-.7-1.6-1.6-1.6h-7.7c-.4 0-.8.2-1.1.5-.3.3-.5.7-.5 1.1h-4.6c0-.9-.7-1.6-1.6-1.6h-7.7c-.9 0-1.6.7-1.6 1.6H238c0-.4-.2-.8-.5-1.1s-.7-.5-1.1-.5h-7.7c-.9 0-1.6.7-1.6 1.6h-4.6c0-.4-.2-.8-.5-1.1s-.7-.5-1.1-.5h-7.7c-.9 0-1.6.7-1.6 1.6H207c0-.9-.7-1.6-1.6-1.6H198c-.9 0-1.6.7-1.6 1.6h-4.6c0-.4-.2-.8-.5-1.1s-.7-.5-1.1-.5h-7.7c-.9 0-1.6.7-1.6 1.6h-4.6c0-.9-.7-1.6-1.6-1.6H167c-.9 0-1.6.7-1.6 1.6H161c0-.9-.7-1.6-1.6-1.6h-7.7c-.9 0-1.6.7-1.6 1.6h-4.6c0-.9-.7-1.6-1.6-1.6h-7.7c-.9 0-1.6.7-1.6 1.6H130c0-.9-.7-1.6-1.6-1.6h-7.7c-.9 0-1.6.7-1.6 1.6h-4.6c0-.9-.7-1.6-1.6-1.6h-7.7c-.9 0-1.6.7-1.6 1.6H99c0-.9-.7-1.6-1.6-1.6H90c-.9 0-1.6.7-1.6 1.6h-4.6c0-.9-.7-1.6-1.6-1.6h-2.4v-2.4c0-.9-.7-1.6-1.6-1.6v-4.9c.9 0 1.6-.7 1.6-1.6v-8c0-.8-.7-1.5-1.5-1.6.1-1.6.6-3.2 1.3-4.7.7.4 1.6.2 2.1-.5 1.3-2 3.2-3.5 5.4-4.3.8-.3 1.2-1.1.9-1.9 1-.3 2-.4 3.1-.4H93c0 .4.2.8.5 1.1s.7.5 1.1.5h8c.9 0 1.6-.7 1.6-1.6h4.9c0 .9.7 1.6 1.6 1.6h8c.9 0 1.6-.7 1.6-1.6h4.9c0 .9.7 1.6 1.6 1.6h8c.9 0 1.6-.7 1.6-1.6h4.9c0 .9.7 1.6 1.6 1.6h8c.9 0 1.6-.7 1.6-1.6h4.9c0 .9.7 1.6 1.6 1.6h8c.9 0 1.6-.7 1.6-1.6h4.9c0 .9.7 1.6 1.6 1.6h8c.9 0 1.6-.7 1.6-1.6h4.9c0 .9.7 1.6 1.6 1.6h8c.9 0 1.6-.7 1.6-1.6h4.9c0 .9.7 1.6 1.6 1.6h8c.9 0 1.6-.7 1.6-1.6h4.9c0 .9.7 1.6 1.6 1.6h8c.9 0 1.6-.7 1.6-1.6h4.9c0 .9.7 1.6 1.6 1.6h8c.9 0 1.6-.7 1.6-1.6h4.9c0 .9.7 1.6 1.6 1.6h8c.4 0 .8-.2 1.1-.5s-.7-.5-.7-.9h4.9c0 .9.7 1.6 1.6 1.6h8c.9 0 1.6-.7 1.6-1.6h1.7c1.1 0 2.1.1 3.1.4-.2.8.2 1.6.9 1.9 2.2.9 4.1 2.4 5.4 4.3.4.7 1.4.9 2.1.5.7 1.5 1.2 3 1.3 4.7-.8 0-1.5.7-1.5 1.6v8c0 .4.2.8.5 1.1.3.3.7.5 1.1.5v4.9c-.4 0-.8.2-1.1.5-.4.1-.5.5-.5.9z"/><path id="Shape_36_" class="st7" d="M268.9 1.6c0-.9.7-1.6 1.6-1.6h8c.9 0 1.6.7 1.6 1.6 0 .4-.2.8-.5 1.1s-.7.5-1.1.5h-8c-.9 0-1.6-.8-1.6-1.6z"/><path id="Shape_37_" class="st7" d="M78.3 13.3c.9 0 1.6.7 1.6 1.6v8c0 .9-.7 1.6-1.6 1.6s-1.6-.7-1.6-1.6v-8c0-.9.7-1.6 1.6-1.6z"/><path id="Shape_38_" class="st7" d="M294.6 24.5c-.4 0-.8-.2-1.1-.5s-.5-.7-.5-1.1v-8c0-.8.7-1.5 1.5-1.6h.1c.9 0 1.6.7 1.6 1.6v8c0 .9-.7 1.6-1.6 1.6z"/><path id="Shape_39_" class="st7" d="M284.9 1.9c.3-.8 1.2-1.2 2-.9 2.8 1.1 5.2 3 6.9 5.5.5.7.3 1.7-.4 2.2h-.1c-.7.4-1.6.2-2.1-.5-1.3-2-3.2-3.5-5.4-4.3-.8-.3-1.2-1.1-.9-2 0 .1 0 0 0 0z"/><path id="Shape_40_" class="st7" d="M78.3 29.4c.9 0 1.6.7 1.6 1.6v2.4h2.4c.9 0 1.6.7 1.6 1.6 0 .9-.7 1.6-1.6 1.6h-3.9c-.9 0-1.6-.7-1.6-1.6v-4c0-.4.2-.8.4-1.1s.7-.5 1.1-.5z"/><path id="Shape_41_" class="st7" d="M290.7 33.3h2.3v-2.4c0-.9.7-1.6 1.6-1.6s1.6.7 1.6 1.6v3.9c0 .9-.7 1.6-1.6 1.6h-3.9c-.9 0-1.6-.7-1.6-1.6 0-.8.7-1.5 1.6-1.5z"/><path id="Shape_42_" class="st7" d="M236.9 1.6c0-.9.7-1.6 1.6-1.6h8c.9 0 1.6.7 1.6 1.6 0 .4-.2.8-.5 1.1s-.7.5-1.1.5h-8c-.9-.1-1.6-.8-1.6-1.6z"/><path id="Shape_43_" class="st7" d="M230.5 3.2h-8c-.9 0-1.6-.7-1.6-1.6s.7-1.6 1.6-1.6h8c.9 0 1.6.7 1.6 1.6 0 .8-.7 1.6-1.6 1.6z"/><path id="Shape_44_" class="st7" d="M252.9 1.6c0-.9.7-1.6 1.6-1.6h8c.4 0 .8.2 1.1.5s.5.7.5 1.1-.2.8-.5 1.1-.7.5-1.1.5h-8c-.9-.1-1.6-.8-1.6-1.6z"/><path id="Shape_45_" class="st7" d="M124.9 1.6c0-.9.7-1.6 1.6-1.6h8c.9 0 1.6.7 1.6 1.6 0 .4-.2.8-.5 1.1s-.7.5-1.1.5h-8c-.4 0-.8-.2-1.1-.5-.3-.3-.5-.7-.5-1.1z"/><path id="Shape_46_" class="st7" d="M244.4 33.3h7.7c.9 0 1.6.7 1.6 1.6 0 .9-.7 1.6-1.6 1.6h-7.7c-.9 0-1.6-.7-1.6-1.6 0-.9.7-1.6 1.6-1.6z"/><path id="Shape_47_" class="st7" d="M259.8 33.3h7.7c.9 0 1.6.7 1.6 1.6 0 .9-.7 1.6-1.6 1.6h-7.7c-.4 0-.8-.2-1.1-.5-.3-.3-.5-.7-.5-1.1.1-.9.8-1.6 1.6-1.6z"/><path id="Shape_48_" class="st7" d="M213.5 33.3h7.7c.9 0 1.6.7 1.6 1.6 0 .9-.7 1.6-1.6 1.6h-7.7c-.9 0-1.6-.7-1.6-1.6 0-.4.2-.8.5-1.1s.7-.5 1.1-.5z"/><path id="Shape_49_" class="st7" d="M275.3 33.3h7.7c.9 0 1.6.7 1.6 1.6 0 .9-.7 1.6-1.6 1.6h-7.7c-.9 0-1.6-.7-1.6-1.6 0-.9.7-1.6 1.6-1.6z"/><path id="Shape_50_" class="st7" d="M228.9 33.3h7.7c.4 0 .8.2 1.1.5s.5.7.5 1.1c0 .4-.2.8-.5 1.1s-.7.5-1.1.5h-7.7c-.9 0-1.6-.7-1.6-1.6.1-.9.8-1.6 1.6-1.6z"/><path id="Shape_51_" class="st7" d="M109 1.6c0-.9.7-1.6 1.6-1.6h8c.9 0 1.6.7 1.6 1.6 0 .4-.2.8-.5 1.1s-.7.5-1.1.5h-8c-.4 0-.8-.2-1.1-.5-.4-.3-.6-.7-.5-1.1z"/><path id="Shape_52_" class="st7" d="M182.5 3.2h-8c-.9 0-1.6-.7-1.6-1.6s.7-1.6 1.6-1.6h8c.9 0 1.6.7 1.6 1.6 0 .8-.7 1.6-1.6 1.6z"/><path id="Shape_53_" class="st7" d="M166.5 3.2h-8c-.9 0-1.6-.7-1.6-1.6s.7-1.6 1.6-1.6h8c.9 0 1.6.7 1.6 1.6 0 .8-.7 1.6-1.6 1.6z"/><path id="Shape_54_" class="st7" d="M150.5 3.2h-8c-.9 0-1.6-.7-1.6-1.6s.7-1.6 1.6-1.6h8c.9 0 1.6.7 1.6 1.6 0 .8-.7 1.6-1.6 1.6z"/><path id="Shape_55_" class="st7" d="M93 1.6c0-.9.7-1.6 1.5-1.6h8c.9 0 1.6.7 1.6 1.6 0 .4-.2.8-.5 1.1s-.7.5-1.1.5h-8c-.4 0-.8-.2-1.1-.5-.3-.3-.4-.7-.4-1.1z"/><path id="Shape_56_" class="st7" d="M81.8 8.2c-.5.7-1.4.9-2.1.5h-.1c-.7-.5-.9-1.5-.4-2.2C80.9 4 83.3 2.1 86.1 1c.4-.1.8-.1 1.2 0s.7.5.8.9V2c.2.8-.2 1.6-.9 1.9-2.2.8-4.1 2.3-5.4 4.3z"/><path id="Shape_57_" class="st7" d="M214.5 3.2h-8c-.9 0-1.6-.7-1.6-1.6s.7-1.6 1.6-1.6h8c.9 0 1.6.7 1.6 1.6 0 .8-.7 1.6-1.6 1.6z"/><path id="Shape_58_" class="st7" d="M198.5 3.2h-8c-.9 0-1.6-.7-1.6-1.6s.7-1.6 1.6-1.6h8c.9 0 1.6.7 1.6 1.6 0 .8-.7 1.6-1.6 1.6z"/><path id="Shape_59_" class="st7" d="M136.3 33.3h7.7c.9 0 1.6.7 1.6 1.6 0 .9-.7 1.6-1.6 1.6h-7.7c-.9 0-1.6-.7-1.6-1.6 0-.9.7-1.6 1.6-1.6z"/><path id="Shape_60_" class="st7" d="M90 33.3h7.7c.9 0 1.6.7 1.6 1.6 0 .9-.7 1.6-1.6 1.6H90c-.9 0-1.6-.7-1.6-1.6 0-.9.7-1.6 1.6-1.6z"/><path id="Shape_61_" class="st7" d="M105.4 33.3h7.7c.9 0 1.6.7 1.6 1.6 0 .9-.7 1.6-1.6 1.6h-7.7c-.9 0-1.6-.7-1.6-1.6 0-.4.2-.8.5-1.1s.7-.5 1.1-.5z"/><path id="Shape_62_" class="st7" d="M151.7 33.3h7.7c.9 0 1.6.7 1.6 1.6 0 .9-.7 1.6-1.6 1.6h-7.7c-.9 0-1.6-.7-1.6-1.6.1-.9.8-1.6 1.6-1.6z"/><path id="Shape_63_" class="st7" d="M167.2 33.3h7.7c.9 0 1.6.7 1.6 1.6 0 .9-.7 1.6-1.6 1.6h-7.7c-.9 0-1.6-.7-1.6-1.6 0-.9.7-1.6 1.6-1.6z"/><path id="Shape_64_" class="st7" d="M120.8 33.3h7.7c.9 0 1.6.7 1.6 1.6 0 .9-.7 1.6-1.6 1.6h-7.7c-.9 0-1.6-.7-1.6-1.6.1-.9.8-1.6 1.6-1.6z"/><path id="Shape_65_" class="st7" d="M198.1 33.3h7.7c.9 0 1.6.7 1.6 1.6 0 .9-.7 1.6-1.6 1.6h-7.7c-.9 0-1.6-.7-1.6-1.6 0-.9.7-1.6 1.6-1.6z"/><path id="Shape_66_" class="st7" d="M182.6 33.3h7.7c.4 0 .8.2 1.1.5s.5.7.5 1.1c0 .4-.2.8-.5 1.1s-.7.5-1.1.5h-7.7c-.9 0-1.6-.7-1.6-1.6 0-.9.7-1.6 1.6-1.6z"/><path id="Shape_75_" class="st6" d="M312 47.2l8-2.9 1.9-.7.6.1c1.8.4 3.3 1.7 4 3.5.6 1.8.4 3.7-.8 5.2l-.3.4-1.9.7L314 57l-.7.3c.5-3.6.1-7.3-1.3-10.1z"/><path id="Shape_76_" class="st5" d="M341.5 41.4c-.9-2.3-1.7-4.5-2.6-6.8-.7-1.6-1.4-3.3-2.1-4.9l2.6-.9c4.3-1.6 9.1.6 10.7 4.9l5.9 15.6-10.6 3.9c-.5-1.6-1-3.2-1.5-4.9-.8-2.4-1.5-4.7-2.4-6.9z"/><path id="Shape_80_" class="st1" d="M77.9 82.2h90.6v109.7H77.9V82.2z"/><path id="Shape_82_" d="M334.6 27.4c.5-.2 1.1 0 1.4.5.3.6.5 1.2.8 1.8.7 1.6 1.4 3.3 2.1 4.9.9 2.2 1.7 4.5 2.6 6.8s1.7 4.6 2.4 6.9c.5 1.6 1 3.2 1.5 4.9l.6 2.1c.1.5-.2 1-.7 1.2s-1 0-1.3-.4c-.3-.6-.6-1.3-.9-2-.7-1.6-1.4-3.1-2-4.7-.9-2.3-1.8-4.5-2.6-6.8s-1.7-4.6-2.4-6.9c-.5-1.7-1.1-3.3-1.6-5-.2-.6-.4-1.3-.6-1.9 0-.7.3-1.2.7-1.4z" fill="#CCCED0"/><path id="Shape_83_" class="st9" d="M129.2 102.7l14.7-.3 14.7-.2 29.5-.1c9.8 0 19.6 0 29.5.1 9.8.1 19.6.2 29.5.4.6 0 1 .5 1 1s-.4 1-1 1c-9.8.2-19.6.3-29.5.4-9.8.1-19.6.1-29.5.1l-29.5-.1-14.7-.2-14.7-.3c-.6 0-1-.5-1-1s.4-.8 1-.8z"/><path id="Shape_84_" class="st9" d="M216.3 86.8l1.3.3c-2.6.8-5.3 1.6-8 2.3-2.2.6-4.5 1.1-6.9 1.4-2.3.3-4.6.4-7 .4-9.3-.1-18.2-2.2-27-4.2-8.7-2-17.4-3.7-26.4-3.9-.2 0-.3-.1-.4-.3 0-.2.1-.4.3-.5 4.5-1 9.1-1.1 13.7-.7 4.6.4 9 1.3 13.4 2.2 8.8 1.8 17.6 3.7 26.3 3.8 2.2 0 4.3-.1 6.5-.4s4.3-.7 6.4-1.2c3.3-.8 6.6-1.9 10-2.8 0 .1.1.2.1.4v.1l-2.3 3.1z"/><path id="Shape_85_" class="st3" d="M324.6 153.2c-1.2.1-2.3-.3-3.2-1.1-.6-.6-.9-1.4-.9-2.2l5.6-.6.3 3.5h-.1l-1.7.4z"/><path id="Shape_86_" class="st3" d="M283.8 131c-.3 0-.5.1-.7.3.1-.5.1-1 .2-1.5.2-1.9 1.4-3.6 3-4.5.1.1.3.2.5.2l7.8-.1 28.7-.3 1.6 20c0 .4.4.7.8.7h.1l.2 1.9-7.7.8c-.4 0-.7.4-.7.8s.4.8.8.7h.1l.5-.1c0 1.2.5 2.3 1.4 3.2 1.1 1 2.5 1.6 4 1.6h.6l1.6-.4.2 2.8c-.4 0-.7.4-.7.8l1.4 24c-7.2 1-18.7 2-20.9.6-1.2-1.4-1.4-17.3-.9-31.9 0-.4-.3-.8-.8-.8-.4 0-.8.3-.8.8-.3 8.9-.7 28.9 1.2 32.7l-2.6.4v-.1c0-.2-.2-.4-.3-.5s-.4-.2-.6-.1c-1.6.3-4.3.8-7.1 1.1-4.2.5-8.8.6-10.4-.7-.3-.2-.5-.5-.5-.8 0-.7-.1-1.8-.2-3.1-.7-7.9-2.3-26.5 1-47.6 0-.2 0-.4-.1-.6-.3-.2-.5-.3-.7-.3z"/><path id="Shape_87_" class="st10" d="M282.9 131.6c.1-.4.5-.7.9-.7.4.1.7.5.7.9-3.4 21.1-1.7 39.7-1 47.7.1 1.3.2 2.4.2 3.1 0 .3.2.6.5.8 1.6 1.2 6.2 1.1 10.4.7 2.8-.3 5.5-.8 7.1-1.1.2 0 .4 0 .6.1s.3.3.3.5v.1c.1.4-.2.8-.6.9-.2 0-.6.1-1.1.2-1.4.3-3.7.7-6.4 1-1.7.2-3.3.3-5 .3-1 0-2.1-.1-3.1-.2v-.9c-.1-.4-.4-.6-.8-.6s-.8.4-.8.8v.3c-.6-.2-1.2-.4-1.7-.8-.6-.5-1.1-1.2-1.1-2 0-.7-.1-1.7-.2-3-.6-8-2.3-26.8 1.1-48.1z"/><path id="Shape_88_" class="st10" d="M304.8 149.9c.4 0 .8.4.8.8-.5 14.6-.3 30.5.9 31.9 2.2 1.5 13.7.5 20.9-.6l-1.4-24c0-.4.3-.8.7-.8.2 0 .4.1.6.2.2.1.3.3.3.5l1.4 24.7c0 .4-.3.8-.7.8-.4.1-1.5.2-2.9.4-3.4.4-8.9 1-13.3 1h-1.9l-.1-.6c0-.1 0-.1-.1-.2-.1-.3-.5-.5-.8-.5-.4.1-.7.4-.7.9v.3c-1.3-.1-2.4-.4-3-.8-.2-.1-.3-.3-.4-.5-1.9-3.8-1.5-23.9-1.2-32.7.1-.5.4-.8.9-.8z"/><path id="Shape_89_" class="st10" d="M325.7 145.8c-.5 0-.8-.3-.8-.7l-1.6-20h.8c.4 0 .7-.4.7-.8v-.2.1l1.7 20.7c0 .5-.4.9-.8.9z"/><path id="Shape_90_" class="st10" d="M327.1 149.2l-1.1.1-5.6.6c0 .8.3 1.6.9 2.2.9.8 2 1.2 3.2 1.1l1.7-.4h.1c.4-.1.8.2.9.6.1.4-.2.8-.6.9l-.2.1-1.6.4h-.6c-1.5 0-2.9-.5-4-1.6-.9-.8-1.4-2-1.4-3.2l-.5.1h-.1c-.4 0-.8-.3-.8-.7s.3-.8.7-.8l7.7-.8 1-.1c.2 0 .4 0 .6.2.2.1.3.3.3.5.1.4-.2.8-.6.8z"/><path id="Shape_91_" class="st11" d="M275.3 220.8c2.4-1.2 8.8-2.5 9.5-3.9.3-.7.4-1.5.4-2.3.2.3.5.4.8.4s.6-.2.7-.5c1.2-4 .7-11.8.2-19.3-.1-1.2-.1-2.3-.2-3.4-.1-2.1-.2-4.1-.3-5.9 1 .1 2 .2 3.1.2 1.7 0 3.3-.1 5-.3 2.6-.3 5-.7 6.4-1-.3 4.9-1.5 24.1-4.5 37.1-.1.3-.1.6-.2.9l-21.5.3s-.9-.6-.5-1.4c.3-.4.7-.7 1.1-.9z"/><path id="Shape_92_" class="st11" d="M312.1 184.9c4.4 0 10-.6 13.3-1-.7 5.4-3.8 29.7-2.6 32.2.7 1.4 7.1 2.7 9.5 3.9 2.3 1.1.6 2.2.6 2.2l-18-.3v-.1c0-.2-2.8-18.6-4.7-37 .6 0 1.2.1 1.9.1z"/><path id="Shape_93_" class="st11" d="M299.7 71.6l-.2-1.6-.3-2.7c0-.3-.3-.6-.7-.7-1.9-.3-3.1-1.1-3.9-2.3-1-1.3-1.4-3-1.8-5-.1-.7-.2-1.4-.3-2.2l2.1.7.7.2-.2 2.1c0 1.7.9 3.2 2.4 4 2.1 1.2 5.3 3.2 9.4 2.2.5-.1.9-.3 1.3-.5v6.5c-3-.2-5.9-.3-8.9-.2.2.1.4-.2.4-.5z"/><path id="Shape_94_" class="st11" d="M294.6 56.2l-2.1-.7c0-1 .2-1.9.4-2.8.5.3 1.1.4 1.7.4h1.2l-.4 3.4-.8-.3z"/><path id="Shape_95_" class="st11" d="M257 84.9l1.8-1.2c-.1.3-.1.6 0 .8.1.1.1.2.2.2.4.6 1 1 1.7 1.1.6.1 1.2-.1 1.7-.5.7-.6.8-1.3.6-2.1-.2-.7-.5-1.4-.8-2.1-.2-.4-.4-.8-.6-1.3.2 0 .3.1.5.1.8.4 1.9 1.3 2.8 2.5.7.9 1.3 1.9 1.8 2.9l-3.3 6c0-.4-.3-.7-.7-.8-4.5-.5-5.6-1.8-6.2-4.5-.1-.2-.2-.4-.4-.5h-.1c-.1-.1-.2-.1-.4-.1l1.4-.5z"/><path id="Shape_96_" class="st11" d="M331.8 62.3l-.9-3.3c.5 1.1 1 2.4 1.3 3.4l-.4-.1z"/><path id="Shape_97_" class="st11" d="M332.2 58c-.6-1.5-1.4-3.5-1.5-4.4 1 .4 2.7 2.1 3.8 3.6.1.2.3.4.4.5s.2.2.4.3c.2.1.4.1.6 0 .6-.4 1-1 1.1-1.7.1-.5.1-1 0-1.5-.1-.3-.3-.5-.6-.6l4.5-1.1c-.2.2-.2.5-.1.7.1.4.2.7.2 1 .9 4.2-.7 7.9-1.2 8.5-.1.1-.1.2-.2.3l-5.7-.9c0-.1 0-.1-.1-.2-.3-1.1-.9-2.5-1.5-4l-.1-.5z"/><path id="Shape_98_" class="st12" d="M263.1 92.2l.1-.1.3-.6 3.3-6 .6-1.2.2-.4.2.1 13.7 8.4s2.9-10.1 6.5-15.4c1-1.7 2.8-2.7 6-4 .2-.1.4-.1.6-.2 1.3-.3 2.5-.5 3.8-.5h.9c3-.1 6 0 8.9.2 3.4.2 6.3.6 7.3 1 1.2.4 2.4 1 3.4 1.7 3.6.8 7.1 1.9 10.5 3.1l1.7-16.2.6.1.4.1.9.1.7.1h.1l5.7.9 1 .2h.1s0 .2.1.6c.7 3.9 4 24.8-4.6 28.6-5.2 2.2-10.2 2.2-13.8 1.8l.7 28.8v.5l-28.5.5-3.2.1h-3v-.7l-.6-16.7c-9.3 3.1-24.8-14.7-24.8-14.7l.2-.2z"/><path id="Shape_99_" class="st12" d="M308.2 66c-.4.2-.9.4-1.3.5-4.1.9-7.3-1-9.4-2.2-1.5-.8-2.4-2.4-2.4-4l.2-2.1.2-1.6.4-3.4h-1.2c-.6 0-1.2-.2-1.7-.4-.1-.1-.2-.1-.4-.2-.5-.5-.8-1.2-.6-1.9 0-.2.1-.5.2-.7.5-1.6 1.3-3.2 2.3-4.6l.3-.3c2.5-3.1 5.8-3.8 9.2-3.1 1.8.4 3.5 1 5.2 1.9 1.3.7 2.3 1.9 3.1 3.4 1.4 2.8 1.8 6.6 1.3 10.1-.8 3.7-2.5 7.2-5.4 8.6z"/><path id="Shape_100_" class="st9" d="M255.1 86.2c.1-.2.3-.4.5-.4h.1c.1 0 .2 0 .4.1h.1c.2.1.3.3.4.5.6 2.7 1.7 4 6.2 4.5.4 0 .7.4.7.8l-.3.6-.1.1c-.1.1-.3.1-.4.1h-.1c-5.4-.6-6.8-2.5-7.6-5.7 0-.3 0-.4.1-.6z"/><path id="Shape_101_" class="st9" d="M261.6 80c.2.4.3.9.6 1.3.4.6.6 1.3.8 2.1.2.8.1 1.5-.6 2.1-.5.4-1.1.6-1.7.5-.7-.1-1.3-.5-1.7-1.1-.1-.1-.1-.2-.2-.2-.2-.2-.2-.6 0-.8.1-.1.1-.2.2-.3.2-.1.4-.2.6-.1.2 0 .4.2.5.3.1.2.3.4.5.5.1.1.2.1.3.1.2 0 .3 0 .5-.2.1-.1.1-.2.1-.3 0-.5-.4-1.3-.7-1.9-.6-1.2-1.3-2.6-.1-3.3.6-.3 1.2-.3 1.8 0 1.2.4 2.7 1.7 4 3.5.5.7.9 1.3 1.3 2.1l-.2-.1-.2.4-.6 1.2c-.5-1-1.1-2-1.8-2.9-1-1.2-2-2.1-2.8-2.5-.2-.3-.4-.4-.6-.4z"/><path id="Shape_102_" class="st9" d="M298.6 72.4c-.1 0-.1-.1-.2-.1-.2-.1-.3-.3-.3-.5l-.1-1.3-.3-2.5c-1.1-.2-2.2-.7-3.1-1.4-2-1.6-2.8-4.2-3.4-7v-.2c-.3.1-.6.2-.9.2-.4 0-.7-.1-1-.3-1.3-.8-1.5-2.8-1.3-4.4.2-1.9 1.5-3 2.5-3.2.3-.1.6-.1 1 .1.1-.4.3-.9.4-1.3-.2.7.1 1.4.6 1.9.1.1.2.2.4.2-.2.9-.4 1.9-.4 2.8l2.1.7.9.3-.2 1.6-.7-.2-2.1-.7c0 .7.1 1.5.3 2.2.4 2 .9 3.7 1.8 5 .8 1.1 2 1.9 3.9 2.3.3.1.6.3.7.7l.3 2.7.2 1.6c0 .3-.1.6-.4.8h-.7zM290.1 58c.2.1.6 0 .8-.2 0-.4-.1-.8-.1-1.2l-1.4-.5c.1 1 .4 1.7.7 1.9zm.7-4.7c-.2 0-.3.1-.5.2-.3.3-.6.6-.7 1l1.2.4c0-.5.1-1 .2-1.5 0 0-.1 0-.2-.1z"/><path id="Shape_103_" class="st9" d="M286.8 125.4c-.4 0-.8-.4-.8-.8 0-.2.1-.4.2-.6.1-.1.3-.2.6-.2h1.6v.7h3l3.2-.1 28.5-.5v-.5h1c.1.1.3.2.4.3 0 0 0 .1.1.1v.4c0 .4-.3.7-.7.8h-.8l-28.7.3-7.6.1z"/><path id="Shape_104_" class="st9" d="M330.3 51.9c1.7 0 4 2.5 5.1 3.9 0-.3 0-.5-.1-.8-.1-.4.2-.8.6-.9h.4c.3.1.5.3.6.6.1.5.1 1 0 1.5-.1.7-.5 1.3-1.1 1.7-.2.1-.4.1-.6 0-.2 0-.3-.1-.4-.3s-.2-.3-.4-.5c-1.1-1.4-2.8-3.2-3.8-3.6.1.9.9 2.9 1.5 4.4l.2.4c.6 1.5 1.2 2.9 1.5 4 0 .1 0 .1.1.2h-.1l-.7-.1-.9-.1c-.3-1-.8-2.2-1.3-3.4l-.2-.5c-1.4-3.6-2-5.2-1.4-6.1.2-.2.6-.4 1-.4z"/><path id="Shape_105_" class="st9" d="M341 54.8c-.1-.4-.1-.7-.2-1-.1-.4.1-.8.5-1 .2-.1.4 0 .6.1s.3.3.4.5c.1.3.1.6.2.9 1 4.7-.6 9-1.5 10.1 0 0-.1 0-.1.1-.1-.4-.1-.6-.1-.6h-.1l-1-.2c0-.1.1-.2.2-.3.4-.8 1.9-4.4 1.1-8.6z"/><path id="Shape_106_" class="st9" d="M285.7 184.4c.4 0 .7.3.8.6v.9c0 1.8.1 3.8.3 5.9.1 1.1.1 2.2.2 3.4.5 7.5 1 15.3-.2 19.3-.1.4-.6.7-1 .5-.4-.1-.6-.6-.5-1 .1-.2.1-.5.2-.7.6-2.7.6-6.9.4-11.5-.1-2.1-.2-4.3-.4-6.5-.1-1.2-.1-2.4-.2-3.5-.1-2.2-.2-4.3-.3-6.2v-.3c-.1-.6.2-.9.7-.9z"/><path id="Shape_107_" class="st9" d="M309.3 183.5c.3 0 .7.2.8.5 0 .1.1.1.1.2l.1.6c1.9 18.4 4.7 36.8 4.7 37v.3c-.1.3-.3.5-.6.6h-.1c-.4 0-.7-.2-.8-.6 0-.2-2.8-18.8-4.7-37.3v-.3c-.3-.5 0-.9.5-1z"/><path id="Shape_108_" class="st9" d="M216.3 86.8l2.4-3.2 2.6-3.3 3.2 8.4v.1l-6.9-1.6-1.3-.4z"/></g></g></g><path id="Shape_8_" class="st1" d="M136.5 212.7c.1-.3.3-.6.5-.9.1-.2.1-.3 0-.5s-.2-.3-.3-.4c-.1 0-.2-.1-.3-.1-2.8.1-5.5.2-8.3.3l.4-4.4c.8.6 1.8.9 2.7 1 1.9.2 3.8-.4 5.2-1.6l-.1-.1c.6-.3 1.1-.9 1.2-1.6 0-.4 0-.8-.2-1.1l-.6-.9c-.9-.9-2.1-1.6-3.4-1.8-1.3-.2-2.6 0-3.8.5-.2.1-.4.2-.5.3.1-.9.3-1.8.5-2.7.1.1.3.2.4.4.8.6 1.7 1.1 2.6 1.3 1.9.4 3.8 0 5.4-1.2l-.1-.2c.7-.2 1.2-.8 1.3-1.5.1-.4 0-.8-.1-1.1s-.3-.6-.6-.9c-.8-1-2-1.7-3.2-2-1.3-.3-2.6-.2-3.9.2l-.1.1c.2-.5.5-1 .8-1.4.3-.5.7-1.1 1.1-1.6.1.2.2.3.3.5v.4h.4c.5.6 1.2 1.1 2 1.5 1.7.8 3.7.9 5.5.1v-.2c.7-.1 1.3-.5 1.6-1.2 0-.1.1-.2.1-.3h7.2c.4 7 .7 14 1.2 21.1h-14.9z"/><path id="Shape_22_" class="st1" d="M127.4 211.7h.4c.2 0 .3-.1.3-.3v-.4c2.8-.1 5.5-.2 8.3-.3.1 0 .2 0 .3.1.2.1.3.2.3.4.1.2.1.3 0 .5-.1.3-.3.6-.5.9H135l.4-.6h1.1l-.6-.9c-.2.3-.3.6-.5.9-2.7 0-5.4-.1-8-.3 0 .1 0 .1 0 0z"/><path id="Shape_23_" class="st1" d="M136.4 212.1h-1.1c.2-.3.3-.6.5-.9l.6.9z"/><path id="Shape_24_" class="st1" d="M126.1 211.6l.9.1v.1c-.9 0-1.7-.1-2.6-.1v-.4c.5 0 1.1 0 1.6-.1.1.1.1.3.1.4z"/></svg>