<svg enable-background="new 0 0 388 197" viewBox="0 0 388 197" xmlns="http://www.w3.org/2000/svg"><path d="m86.1 129h93.6v90.7h-93.6z" fill="#f6f7f7"/><path d="m99.8 134.4h70.2v72.2h-70.2z" fill="#a7aaad"/><path d="m199 246.2c-1 .6-4.1 1.9-7.6 3.1h7.4c0-1.1.1-2.1.2-3.1zm95-10.5 1-13.2c.1-.9.1-1.8.2-2.8h-63.6l3.9 18.6c.2-.1.4 0 .6.1 6.8 6.7 12 9.4 11.9 10.9 15.1 0 30.2.1 45.3.2-.1-.2-.2-.4-.2-.6zm-66.7 9.5c.2 1.2.3 2.4.3 3.6 0 .2-.1.4-.3.4s-.3-.1-.3-.2c-.3-1.2-.5-2.5-.7-3.8l-.1-.9c-1.4-1.5-1.6-3.6-.6-6.6-1.6-6.4-4-9.1-6.4-17.9h-16.7c.4 6.7-1 12.5-1.7 19 1.1 3 .9 4.9-.4 6.4l-.1.9c-.1 1.1-.3 2.2-.6 3.3l39.1.1c-4.9-1.4-10.1-3.4-11.5-4.3zm96.1-19.3c1.9-.2 3.4-1.9 3.3-3.6 0-.9-.4-1.6-1-2.2s-1.4-.9-2.3-.9c-1.7 0-3.2 1.4-3.2 3.1-.2 1.7 1.2 3.4 3.2 3.6z" fill="none"/><path d="m89.5 62.2h-2.4v-2.4c0-.9-.7-1.6-1.6-1.6s-1.6.7-1.6 1.6v3.9c0 .9.7 1.6 1.6 1.6h3.9c.9 0 1.6-.7 1.6-1.6.1-.8-.6-1.5-1.5-1.5zm12.3-33.2h8c.9 0 1.6.7 1.6 1.6s-.7 1.6-1.6 1.6h-8c-.9 0-1.6-.7-1.6-1.6s.7-1.6 1.6-1.6zm200 13.3c-.9 0-1.6.7-1.6 1.5v8c0 .9.7 1.6 1.6 1.6s1.6-.7 1.6-1.6v-7.9c0-1-.7-1.6-1.6-1.6zm-206.5-11.4c-.3-.8-1.2-1.2-2-.9-2.8 1.1-5.2 3-6.9 5.5-.5.7-.3 1.7.4 2.2h.1c.7.4 1.6.2 2.1-.5 1.3-2 3.2-3.5 5.4-4.3.8-.3 1.2-1.1.9-1.9zm-9.7 22.5c.9 0 1.6-.7 1.6-1.6v-8c0-.9-.7-1.5-1.5-1.5h-.1c-.9 0-1.6.7-1.6 1.6v8c.1.8.7 1.5 1.6 1.5zm144.1-24.4h8c.9 0 1.6.7 1.6 1.6s-.7 1.6-1.6 1.6h-8c-.9 0-1.6-.7-1.6-1.6s.7-1.6 1.6-1.6zm-32 0h8c.9 0 1.6.7 1.6 1.6s-.7 1.6-1.6 1.6h-8c-.9 0-1.6-.7-1.6-1.6s.7-1.6 1.6-1.6zm16 0h8c.9 0 1.6.7 1.6 1.6s-.7 1.6-1.6 1.6h-8c-.9 0-1.6-.7-1.6-1.6s.7-1.6 1.6-1.6zm84.7 8.1c.5.7 1.4.9 2.1.5h.1c.7-.5.9-1.5.4-2.2-1.7-2.5-4.1-4.4-6.9-5.5-.8-.3-1.7.1-2 .9v.1.1c-.2.8.2 1.6.9 1.9 2.2.8 4.1 2.3 5.4 4.2zm-52.8-8.1h8c.9 0 1.6.7 1.6 1.6s-.7 1.6-1.6 1.6h-8c-.9 0-1.6-.7-1.6-1.6s.8-1.6 1.6-1.6zm32 0h8c.9 0 1.6.7 1.6 1.6s-.7 1.6-1.6 1.6h-8c-.9 0-1.6-.7-1.6-1.6s.8-1.6 1.6-1.6zm-16 0h8c.9 0 1.6.7 1.6 1.6s-.7 1.6-1.6 1.6h-8c-.9 0-1.6-.7-1.6-1.6s.8-1.6 1.6-1.6zm-95.9 0h8c.9 0 1.6.7 1.6 1.6s-.7 1.6-1.6 1.6h-8c-.9 0-1.6-.7-1.6-1.6s.7-1.6 1.6-1.6zm16 0h8c.9 0 1.6.7 1.6 1.6s-.7 1.6-1.6 1.6h-8c-.9 0-1.6-.7-1.6-1.6s.7-1.6 1.6-1.6zm-64 0h8c.9 0 1.6.7 1.6 1.6s-.7 1.6-1.6 1.6h-8c-.9 0-1.6-.7-1.6-1.6s.8-1.6 1.6-1.6zm32 0h8c.9 0 1.6.7 1.6 1.6s-.7 1.6-1.6 1.6h-8c-.9 0-1.6-.7-1.6-1.6s.8-1.6 1.6-1.6zm-16 0h8c.9 0 1.6.7 1.6 1.6s-.7 1.6-1.6 1.6h-8c-.9 0-1.6-.7-1.6-1.6s.8-1.6 1.6-1.6zm168.1 29.2c-.9 0-1.6.7-1.6 1.6v2.4h-2.4c-.9 0-1.6.7-1.6 1.6s.7 1.6 1.6 1.6h3.9c.9 0 1.6-.7 1.6-1.6v-3.9c.1-1-.6-1.7-1.5-1.7.1 0 .1 0 0 0zm-189.1 4h7.7c.9 0 1.6.7 1.6 1.6s-.7 1.6-1.6 1.6h-7.7c-.9 0-1.6-.7-1.6-1.6 0-1 .7-1.6 1.6-1.6zm154.3 0h7.7c.9 0 1.6.7 1.6 1.6s-.7 1.6-1.6 1.6h-7.7c-.9 0-1.6-.7-1.6-1.6.1-1 .8-1.6 1.6-1.6zm15.5 0h7.7c.9 0 1.6.7 1.6 1.6s-.7 1.6-1.6 1.6h-7.7c-.9 0-1.6-.7-1.6-1.6 0-1 .7-1.6 1.6-1.6zm-61.8 0h7.7c.9 0 1.6.7 1.6 1.6s-.7 1.6-1.6 1.6h-7.7c-.9 0-1.6-.7-1.6-1.6.1-1 .8-1.6 1.6-1.6zm-123.5 0h7.7c.9 0 1.6.7 1.6 1.6s-.7 1.6-1.6 1.6h-7.7c-.9 0-1.6-.7-1.6-1.6.1-1 .8-1.6 1.6-1.6zm154.4 0h7.7c.9 0 1.6.7 1.6 1.6s-.7 1.6-1.6 1.6h-7.7c-.9 0-1.6-.7-1.6-1.6 0-1 .7-1.6 1.6-1.6zm-15.4 0h7.7c.9 0 1.6.7 1.6 1.6s-.7 1.6-1.6 1.6h-7.7c-.9 0-1.6-.7-1.6-1.6 0-1 .7-1.6 1.6-1.6zm-61.8 0h7.7c.9 0 1.6.7 1.6 1.6s-.7 1.6-1.6 1.6h-7.7c-.9 0-1.6-.7-1.6-1.6 0-1 .8-1.6 1.6-1.6zm30.9 0h7.7c.9 0 1.6.7 1.6 1.6s-.7 1.6-1.6 1.6h-7.7c-.9 0-1.6-.7-1.6-1.6 0-1 .7-1.6 1.6-1.6zm-46.3 0h7.7c.9 0 1.6.7 1.6 1.6s-.7 1.6-1.6 1.6h-7.7c-.9 0-1.6-.7-1.6-1.6 0-1 .7-1.6 1.6-1.6zm-30.9 0h7.7c.9 0 1.6.7 1.6 1.6s-.7 1.6-1.6 1.6h-7.7c-.9 0-1.6-.7-1.6-1.6.1-1 .7-1.6 1.6-1.6zm15.5 0h7.7c.9 0 1.6.7 1.6 1.6s-.7 1.6-1.6 1.6h-7.7c-.9 0-1.6-.7-1.6-1.6 0-1 .7-1.6 1.6-1.6zm46.3 0h7.7c.9 0 1.6.7 1.6 1.6s-.7 1.6-1.6 1.6h-7.7c-.9 0-1.6-.7-1.6-1.6 0-1 .7-1.6 1.6-1.6z" fill="#dcdcde"/><path d="m120.7 143.4c.5 0 1 0 1.5.1 2.2.4 3.9 2.1 4.3 4.3.1.8.1 1.2.1 1.9l.1 3.6.3 7.1.3 7.1v1h1.3 2.8 1.4c.7 0 1.4.3 1.9.9.2.3.4.7.4 1.1v.7l.1 1.4.1 2.8c.1 3.4.2 6.8.2 10.1l28.1.2c.3 0 .4.2.4.4l-.2 12.9h-.1c.2 2.5.4 4.9.5 7.4h12.5v-63.9c-2.9-3.6-6.2-8.4-6.3-11.1-.1-4.8 2.4-6.1 6.1-10.3l.2.1v-.1c-.1-.1-.2-.2-.2-.4h-76.9v22.8l21.1-.1c-.1 0-.1 0 0 0z" fill="#a7aaad"/><g fill="#f6f7f7"><path d="m91.3 180.9v-3.4c-1.9 0-3.7-.1-5.6-.1v7.9h7.5c-1.3-1.1-2-2.7-1.9-4.4zm208.9-18.3-7.2-.8c-1.6-.2-3.3-.4-4.9-.5v45.8h-59.1l2.7 12.6h63.6c.6-7.9 1.3-15.8 1.9-23.7.8-8.8 1.5-17.6 2.4-26.4.1-2.3.4-4.6.6-7zm-2.3-97.3c-.9 0-1.6-.7-1.6-1.6h-4.6c0 .9-.7 1.6-1.6 1.6h-7.7c-.9 0-1.6-.7-1.6-1.6h-4.6c0 .9-.7 1.6-1.6 1.6h-7.6c-.9 0-1.6-.7-1.6-1.6h-4.6c0 .9-.7 1.6-1.6 1.6h-7.7c-.9 0-1.6-.7-1.6-1.6h-4.6c0 .9-.7 1.6-1.6 1.6h-7.7c-.9 0-1.6-.7-1.6-1.6h-4.6c0 .9-.7 1.6-1.6 1.6h-7.7c-.9 0-1.6-.7-1.6-1.6h-4.6c0 .9-.7 1.6-1.6 1.6h-7.7c-.9 0-1.6-.7-1.6-1.6h-4.4c0 .9-.7 1.6-1.6 1.6h-7.7c-.9 0-1.6-.7-1.6-1.6h-4.6c0 .9-.7 1.6-1.6 1.6h-7.7c-.9 0-1.6-.7-1.6-1.6h-4.6c0 .9-.7 1.6-1.6 1.6h-7.7c-.9 0-1.6-.7-1.6-1.6h-4.6c0 .9-.7 1.6-1.6 1.6h-7.7c-.9 0-1.6-.7-1.6-1.6h-4.6c0 .9-.7 1.6-1.6 1.6h-7.7c-.9 0-1.6-.7-1.6-1.6h-4.1c0 .9-.7 1.6-1.6 1.6h-7.7c-.9 0-1.6-.7-1.6-1.6h-4.6c0 .9-.7 1.6-1.6 1.6h-7.7c-.9 0-1.6-.7-1.6-1.6h-4.6c0 .9-.7 1.6-1.6 1.6h-3.9v78.2h13.9v-22.8h77c-.3-.7-.2-1.5.3-2.1 2-2.4 5.9-7.3 10-11h-86.8v-18c0-6.6 5.4-12 12-12h79.5c.3-.2.7-.4 1-.6 0 0-2-6.5 4.9-8.6 5.5-1.7 8.4.7 8.4.7s5.2-3 9.2.4c3.5 3 2.9 5.8 2.9 5.8 1.4.5 2.6 1.3 3.5 2.4h66.8v25l13.7 1.1v-38.5zm-81.6 143.8c-.3-.6-.5-1.3-.8-2h-13.5c-.8 3.7-.6 5.8 0 9.5.2 1.1.3 2.1.3 3.1h16.7c-.6-2.3-1.1-4.6-1.6-6.9-.1-1.2-.5-2.5-1.1-3.7z"/><path d="m235.5 121c.3.2.5.4.7.6h14.1l.3-4.4.8-9.8h-26c3.9 3.6 7.9 8.5 10.1 11 .6.8.6 1.9 0 2.6zm62.7 98.8h3.6v-43.1c-.5 6.5-1.1 13.1-1.6 19.6-.6 7.8-1.3 15.7-2 23.5zm-111.4-91.1-.8-.6-3.3 3.9.1.1c.3.3.6.6.9 1s.5.7.8 1.1l.3.6c.1.2.2.4.1.7 0 0 0 0-.1.1 1.2 2.2 2.2 4.6 2.8 7 .8-1.9 1.8-3.6 2.9-5.3.1-.1.2-.2.3-.4-1.1-2.1-1.9-5.2-2.3-9.7zm.7 74.8c-2.1 0-4.2.1-6.3-.2-.2 0-.3-.2-.3-.4 0-.1.1-.3.3-.3.6-.1 1.3-.1 1.9-.1-1.7-13.5-2.3-32.2.8-47.4l-1.1 2.4c-3.3-.4-1.7-10.1-1.7-10.1s-1.9-2.1-4.2-5v63.9h-12.5c.1 1.8.1 3.5.1 5.3l.1 8.1h26.3c-.4-5.6-.8-11.4-1.2-16.3z"/><path d="m356.4 250.4c-11.3-.2-22.5-.4-33.8-.5 0 .1-.1.3-.1.4-.1.6-.6 1-1.2.9-.5-.1-.8-.4-.9-.9 0-.2 0-.3 0-.5l-7-.1v.5c0 .6-.5 1-1.1 1-.5 0-.9-.4-1-.9 0-.2 0-.4-.1-.6-5.4 0-10.7-.1-16.1-.1-.3.5-.9.6-1.4.3-.1-.1-.2-.2-.3-.3-15.1-.1-30.2-.2-45.3-.2 0 .1-.1.2-.1.4-1 1.3-5 .7-9.2-.4l-39.1-.1-.1.5c0 .2-.2.3-.4.2-.1 0-.2-.2-.3-.3 0-.1 0-.3 0-.5h-7.4c-5.2 1.7-11.2 3.1-12.5 1.4-.3-.4-.1-.8.4-1.4h-15.3v.5c0 .2-.2.3-.4.3-.1 0-.2-.1-.3-.3 0-.2 0-.4 0-.5l-49.8.1c-13.6.1-27.1.2-40.7.4 0 .2-.2.3-.4.3-.1 0-.3-.1-.3-.3-4.8.1-9.7.1-14.5.2l-5.2.1h-.9-.2-.9l-4.7.1c-4.4.1-8.7.2-13.1.4-.2 0-.3.2-.3.4 0 .1.1.2.3.3 27 .9 54 1 80.9 1.2l80.9.2c54-.2 107.9-.1 161.9-1.1.4 0 .6-.3.6-.6.1-.2-.2-.4-.6-.5z"/></g><path d="m229.4 132.1.1-.1-2.9-3.4-1.3-1.3c-.4 1.5-.9 3.1-1.6 4.5-.7 1.7-1.6 3.3-2.8 4.6 0 0-.1.1-.1 0 1.2 1.6 2.3 3.3 3.2 5 .2.4.4.8.5 1.1.7-2.5 1.6-4.9 2.9-7.2l-.1-.1c-.1-.3.1-.5.1-.7l.3-.6c.2-.4.5-.8.8-1.1.3-.1.6-.4.9-.7zm-9.8 4.7c.6.7 1.1 1.4 1.6 2.2-.5-.7-1-1.5-1.6-2.2zm53 22.7v-.4l-9.1-.8v.4c-5.6-.1-11-3.7-13.3-9-.6-1.3-1-2.7-1.2-4.1s-.2-2.8-.1-4.3c.1-2.7.3-5.4.5-8l.8-11.6h-14.1c3.4 3.7 5.6 5.1 5.5 9.6-.1 4.8-10.5 16.1-10.5 16.1s1.6 9.6-1.7 10.1l-.6-1.4c.9 3.7 1.5 7.5 1.9 11.3 1.2 11.8 1 23.6-1.2 35.3.8 0 1.6 0 2.4.1.1 0 .2.1.2.2s-.1.2-.2.2c-1.2.1-2.5.1-3.7.2l.8 3.9h59.1v-45.9c-5.1-.6-10.3-1.3-15.5-1.9zm-52-23.1.6-1.3c-.2.4-.5.7-.8 1 .1.1.2.3.2.3zm-14.1 67.1h-3.7c-.2 1.2-.4 2.4-.6 3.6v.1h13.5c-.4-1.2-.7-2.4-1-3.7z" fill="#dcdcde"/><path d="m359.7 122.2c-.6-7.5-6.3-13.6-13.7-14.9l-1.4-.2-1.2-.1-2.4-.2-9.7-.8-29.4-2.4-13.7-1.1-34.5-2.8-1.6-.1-.1 1.6-.5 6.2-.8 9.8-.3 4.4-.8 11.6c-.2 2.7-.4 5.4-.5 8-.1 1.4-.1 2.8.1 4.2s.6 2.8 1.2 4.1c2.3 5.3 7.8 8.9 13.3 9v-.4-.4c-2.6-.4-5-1.4-7.1-3-3-2.3-4.9-5.8-5.3-9.6-.1-1.3 0-2.5.1-3.8.3-2.7.6-5.3.8-8l1.1-11.9.4-4.1.9-10.1.4-4.3 33.2 2.9 13.7 1.2 29.1 2.5 9.7.8 2.4.2 1.2.1 1.1.1c1.4.2 2.8.7 4 1.4 2.5 1.4 4.6 3.5 5.7 6.1.6 1.3.9 2.7 1.1 4.1.1.7.1 1.4 0 2.1l-.2 2.4-3 37-18.9-1.5c-6.8-.6-13.7-1.1-20.5-1.6l-10.3-.7h-.4l-.1 1.3c0 .4-.1.9-.1 1.3h.4l10.2 1c6.8.6 13.6 1.3 20.4 1.9l20.5 1.8 1.6.1.1-1.6 3.4-38.7.2-2.4c.3-.7.3-1.6.2-2.5z" fill="#187aa2"/><path d="m288.2 159.4c-5.1-.3-10.3-.5-15.5-.7v.4.4c5.2.7 10.3 1.3 15.5 1.9 1.6.2 3.3.4 4.9.5l7.2.8c0-.4.1-.8.1-1.2l.1-1.2-7.2-.4c-1.8-.3-3.5-.4-5.1-.5z" fill="#187aa2"/><path d="m205.4 97.1c-1.6 0-3.2-.3-4.6-1v3.3s5.3-.5 8-2.9c-1 .4-2.2.6-3.4.6z" fill="#8e9196"/><path d="m200.8 99.4v1.6l.7.7 1.8 1.8 3.2 3.2 3.2-3.1c.9-.9 1.8-1.6 2.7-2.4v-6.9c-1 1.1-2.2 1.9-3.6 2.3-2.7 2.2-7.9 2.8-8 2.8zm9-12.3c0 .4-.4.8-.8.8s-.8-.4-.8-.8v-1.1c-2.5-.5-4.8-1.6-6.7-3.3-.4 0-.9 0-1.3.1-.5 0-.9.2-1.4.4h-.1c-.2.1-.4 0-.5-.1s0-.2 0-.4c.4-.5 1-.8 1.7-.9h.5c-1.1-1.2-2-2.6-2.6-4.1v.1c-1.8 4-2.4 10.5.3 14.6.6 1 1.5 1.9 2.6 2.5.8.5 1.6.8 2.5.9h4.3c2-.4 3.7-1.6 4.8-3.2 0-.1.1-.1.1-.2.6-1 1.1-2.1 1.4-3.2l.1-.4c.2-.8.3-1.5.3-2.3-1.5.1-3.1 0-4.6-.2zm-4.9-1.4c0-.1.2-.2.3-.2s.2.1.2.2c.1.7.2 1.4.2 2.1s0 1.4-.1 2.1c0 .2-.2.3-.4.3s-.3-.2-.3-.3c-.1-.7-.2-1.4-.1-2.1-.1-.7 0-1.4.2-2.1zm-4.7 1.4v-1.2c0-.4.4-.7.8-.7s.7.3.7.7v1.2c0 .4-.4.7-.8.7-.3-.1-.6-.4-.7-.7zm6.9 5.3c-.1.4-.4.6-.8.8-.3.2-.7.2-1.1.2-.8 0-1.5-.4-1.9-1-.1-.2 0-.4.1-.5s.3 0 .3 0h.1c.4.2.9.4 1.4.4s.9-.1 1.3-.4c.2-.1.4-.1.5.1s.1.3.1.4zm21.9 114.8-.8-3.9c-3 .1-6 .2-9 .2h-4.6c.3 1.2.6 2.5 1 3.7.2.7.5 1.3.8 2 .6 1.2 1 2.5 1.2 3.8.5 2.7 1.1 4.9 1.6 6.9 2.4 8.8 4.8 11.5 6.4 17.9 0 0 4 3 6.8 2.8 1.3-.1 2.8-.8 2.8-1.5 0-.2.2-.4.4-.5l-3.9-18.6zm-26.9-.1c.2-1.1.5-2.3.6-3.6h-13.3c.4 4.9.9 10.6 1.2 16.3.5 7.5.8 14.8.7 19.7.1.1.2.2.2.4 0 .7 1.6 1.4 2.8 1.5 2.8.2 6.2-2.5 6.2-2.5.7-6.6 2.1-12.3 1.7-19-.1-1-.2-2-.3-3.1-.6-3.8-.8-5.8 0-9.5zm28.8-75.4c-.1.4-.4.8-.7 1.1s-.5.6-.8 1c-.2.4-.5.6-.7 1l-.3.5c-.1.2-.1.4-.4.5h-.1c-.2 0-.4 0-.5-.2-1.3 2.3-2.2 4.7-2.9 7.2.5 1 .9 2 1.3 3 .6 1.4 1 2.8 1.5 4.2.6 2 1.1 4.1 1.6 6.1l.6 1.4c3.3-.4 1.7-10.1 1.7-10.1s10.3-11.3 10.5-16.1c.1-4.5-2.1-5.9-5.5-9.6-.2-.2-.4-.4-.6-.7-.1.1-.2.3-.4.4l-.3.3-8.2 7 2.9 3.4-.1.1c.3-.3.8-.6 1.2-.6.1-.1.2 0 .2.1-.1 0-.1 0 0 0zm-46.5 4.1c-.4-.1-.4-.3-.5-.5l-.3-.5c-.2-.4-.5-.7-.7-1s-.5-.6-.8-1c-.3-.3-.6-.7-.7-1.1 0-.1 0-.2.1-.2h.1c.5 0 .9.3 1.2.6l-.1-.1 3.3-3.9-8.9-6.7c-.1-.1-.1-.2-.2-.2l-.1-.1-.2-.1c-3.7 4.3-6.2 5.5-6.1 10.3.1 2.7 3.4 7.5 6.3 11.1 1.3 1.7 2.7 3.4 4.2 5 0 0-1.6 9.6 1.7 10.1l1.1-2.4c.8-4.3 2.1-8.5 3.8-12.5-.7-2.5-1.6-4.8-2.8-7 0 .1-.2.3-.4.2z" fill="#a7aaad"/><path d="m186.8 128.7 1.9-1.5c-.2-2-.2-4.2-.2-6.8 0-3.5 1.3-8.7 3.6-13 1-1.9 2.3-3.6 3.8-5.1-2.8.2-5.9 2.3-9 5.1-4.2 3.8-8 8.6-10 11-.5.6-.6 1.4-.3 2.1.1.1.1.2.2.4 0 0 .1.1.1.1.1.1.1.2.2.2l8.8 6.7zm37.7-3.1c.3-1.3.5-2.6.6-3.9 0-.1 0-.2 0-.4l.1-1.3v-1.3c0-.9-.2-1.7 0-2.6.1-.2.3-.3.5-.2.1 0 .2.1.2.2.3.9.4 1.8.4 2.7v1.4l-.1 1.4v.3c-.1 1.7-.4 3.3-.8 4.9v.2c0 .1-.1.2-.1.4 0 .1 0 .1-.1.2l1.3 1.3 8.2-7 .3-.3c.1-.1.3-.2.4-.4.6-.8.6-1.8 0-2.5-2.2-2.6-6.1-7.5-10.1-11-2.3-2.1-4.7-3.8-6.6-4.2 1.3 1.2 2.5 2.6 3.4 4.2 1.8 3 2.8 6.5 2.9 10 0 1.5 0 2.9-.1 4.3-.1 1-.2 2.3-.4 3.6zm-30 115.7c-1.3-.1-2.8-.8-2.8-1.5 0-.1-.1-.2-.2-.4-.2-.2-.6-.2-.8 0-5.5 5.4-10 8.2-11.4 9.9-.5.6-.6 1-.4 1.4 1.3 1.6 7.3.3 12.5-1.4 3.5-1.1 6.6-2.5 7.6-3.1h.1c.4-.3.8-.6 1.1-1 1.3-1.4 1.5-3.3.4-6.4.1 0-3.3 2.8-6.1 2.5zm41.6-2.8c-.2-.2-.6-.2-.8 0-.1.1-.2.2-.1.4 0 .7-1.6 1.4-2.8 1.5-2.8.2-6.8-2.8-6.8-2.8-1.1 3-.8 5.1.6 6.6.4.4.7.7 1.1 1h.1c1.3.8 6.4 2.9 11.3 4.1 4.2 1.1 8.2 1.7 9.2.4.1-.1.1-.2.1-.4.2-1.4-5-4.1-11.9-10.8zm-35.1-150.7c.4 0 .8-.4.8-.8v-1.2c0-.4-.4-.7-.8-.7s-.7.3-.7.7v1.2c-.1.5.3.8.7.8zm8 0c.4 0 .8-.4.8-.8v-1.2c0-.4-.4-.8-.8-.8s-.8.4-.8.8v1.2c0 .5.4.8.8.8z" fill="#004e6e"/><path d="m224.2 144.2c-.8-1.8-1.8-3.5-2.9-5.1-.5-.8-1-1.5-1.6-2.2h.1c.2-.2.5-.4.6-.7.3-.3.6-.7.8-1 1.5-2 2.5-4.8 3.2-8.6 0-.3.1-.6.1-.9.2-1.2.3-2.5.4-3.9.1-1.3.1-2.8.1-4.2-.1-3.5-1.1-6.9-2.9-10-.9-1.6-2-3-3.4-4.2-1.4-1.3-3.1-2.3-5-2.9h-.1l-.2.2-1 1-5.8 5.8-.3-.3-5.5-5.4-1.4-1.4-.1-.1c-.1 0-.2.1-.3.1-1.2.4-2.3 1.1-3.3 2-1.5 1.5-2.8 3.2-3.8 5.1-2.3 4.3-3.6 9.5-3.6 13 0 2.6.1 4.8.2 6.8.4 4.5 1.1 7.6 2.3 9.7-.1.1-.2.2-.3.4-1.1 1.7-2.1 3.4-2.9 5.3-1.7 4-3 8.2-3.8 12.5-3.1 15.1-2.5 33.9-.8 47.4 0 .1 0 .3.1.5h9.7 10.1 11.5 13.7 1.2v-.1c.5-5.5.8-10.6.9-15.4.1-2.8.1-5.4.1-7.9-.1-11.4-1.3-20.1-3.2-27-.7-3.1-1.7-5.8-2.9-8.5zm118-14.1c-3.1-1-6.3-1.6-9.6-1.9s-6.6-.1-9.7-.2c-6.2-.3-12.7-1.1-18.9-2.1-.7-.1-1.5-.2-2.2-.4-5.6-1-11.2-2.2-17.1-2.3-3.2-.1-6.5.2-9.6.9-.1 0-.2 0-.3.1-3.2.8-6.3 2.1-9.1 3.8-.2.1-.2.4-.1.5s.2.2.4.2c3.2-.6 6.2-1.4 9.3-1.8 1.2-.2 2.5-.3 3.7-.4 1.8-.1 3.7-.2 5.6-.1 5.7.3 11.4 1.6 17.2 2.8.5.1 1 .2 1.6.3 3.2.6 6.5 1 9.6 1.3 3.3.4 6.5.6 9.8.6s6.4-.2 9.6-.1c3.2 0 6.4.1 9.6-.3.1 0 .3-.1.3-.3.2-.3.1-.5-.1-.6z" fill="#c3c4c7"/><path d="m214.6 63.7h4.6c0-.9.7-1.6 1.6-1.6h7.7c.9 0 1.6.7 1.6 1.6h4.6c0-.9.7-1.6 1.6-1.6h7.7c.9 0 1.6.7 1.6 1.6h4.6c0-.9.7-1.6 1.6-1.6h7.7c.9 0 1.6.7 1.6 1.6h4.6c0-.9.7-1.6 1.6-1.6h7.7c.9 0 1.6.7 1.6 1.6h4.6c0-.9.7-1.6 1.6-1.6h7.7c.9 0 1.6.7 1.6 1.6h4.6c0-.9.7-1.6 1.6-1.6h2.4v-2.4c0-.9.7-1.6 1.6-1.6v-4.9c-.9 0-1.6-.7-1.6-1.6v-7.9c0-.9.7-1.5 1.5-1.5-.1-1.6-.6-3.2-1.3-4.6-.7.4-1.6.2-2.1-.5-1.3-2-3.2-3.5-5.4-4.3-.8-.3-1.2-1.1-.9-1.9-1-.3-2-.4-3.1-.4h-1.8c0 .9-.7 1.6-1.6 1.6h-8c-.9 0-1.6-.7-1.6-1.6h-4.8c0 .9-.7 1.6-1.6 1.6h-8c-.9 0-1.6-.7-1.6-1.6h-4.8c0 .9-.7 1.6-1.5 1.6h-8c-.9 0-1.6-.7-1.6-1.6h-4.8c0 .9-.7 1.6-1.6 1.6h-8c-.9 0-1.6-.7-1.6-1.6h-4.8c0 .9-.7 1.6-1.6 1.6h-8c-.9 0-1.6-.7-1.6-1.6h-4.9c0 .9-.7 1.6-1.6 1.6h-8c-.9 0-1.6-.7-1.6-1.6h-4.8c0 .9-.7 1.6-1.6 1.6h-8c-.9 0-1.6-.7-1.6-1.6h-4.8c0 .9-.7 1.6-1.6 1.6h-8c-.9 0-1.6-.7-1.6-1.6h-4.8c0 .9-.7 1.6-1.6 1.6h-8c-.9 0-1.6-.7-1.6-1.6h-4.8c0 .9-.7 1.6-1.6 1.6h-8c-.9 0-1.6-.7-1.6-1.6h-4.8c0 .9-.7 1.6-1.6 1.6h-8c-.9 0-1.6-.7-1.6-1.6h-4.9c0 .9-.7 1.6-1.6 1.6h-8c-.9 0-1.6-.7-1.6-1.6h-1.7c-1 0-2.1.1-3.1.4.3.8-.2 1.6-.9 1.9-2.2.9-4.1 2.4-5.4 4.3-.5.7-1.4.9-2.1.5-.7 1.5-1.2 3-1.3 4.6.9 0 1.5.7 1.5 1.5v8c0 .9-.7 1.6-1.6 1.6v4.9c.9 0 1.6.7 1.6 1.6v2.4h2.4c.9 0 1.6.7 1.6 1.6h4.6c0-.9.7-1.6 1.6-1.6h7.7c.9 0 1.6.7 1.6 1.6h4.6c0-.9.7-1.6 1.6-1.6h7.7c.9 0 1.6.7 1.6 1.6h4.6c0-.9.7-1.6 1.6-1.6h7.7c.9 0 1.6.7 1.6 1.6h4.6c0-.9.7-1.6 1.6-1.6h7.7c.9 0 1.6.7 1.6 1.6h4.6c0-.9.7-1.6 1.6-1.6h7.7c.9 0 1.6.7 1.6 1.6h4.6c0-.9.7-1.6 1.6-1.6h7.7c.9 0 1.6.7 1.6 1.6h4.6c0-.9.7-1.6 1.6-1.6h7.7c.9 0 1.6.7 1.6 1.6h4.5c0-.9.7-1.6 1.6-1.6h7.7c.3-.1 1 .6 1 1.5zm37.3 37.5.1-1.6 1.6.1 34.5 2.8v-25h-66.8c.6.7 1 1.6 1.2 2.5.7 4.3-1.8 6-1.8 6s1.4 5.4-2.5 7.5c-2.9 1.6-4.6.6-5.3 0l-.5.6v6.1c.2.1.5.1.8.2.1-.1.2-.2.4-.3.1-.1.2 0 .3 0v.1c1.9.6 3.6 1.5 5 2.9 1.9.4 4.3 2.1 6.6 4.2h26zm-51.1-5.1c-1.4-.7-2.6-1.8-3.4-3.1-.4-.6-.7-1.3-1-2 .1.5.1.7.1.7-8.3-.4-10.6-10.3-5.1-14.1h-79.4c-6.6 0-12 5.4-12 12v17.9h86.9c3-2.7 6.2-4.9 9-5.1.9-.9 2-1.6 3.3-2 0-.1 0-.3.1-.4s.3-.1.4 0 .2.1.3.2c.3-.1.6-.2.9-.2z" fill="#fff"/><path d="m356.2 122.5c-.1-1.4-.5-2.8-1.1-4.1-1.2-2.6-3.2-4.8-5.7-6.1-1.3-.7-2.6-1.1-4-1.4l-1.1-.1-1.2-.1-2.4-.2-9.7-.8-29.1-2.5-13.7-1.2-33.2-2.9-.4 4.3-.9 10.1-.4 4.1-1.1 11.9c-.2 2.7-.5 5.3-.8 8-.2 1.2-.2 2.5-.1 3.8.4 3.8 2.3 7.3 5.3 9.6 2 1.6 4.5 2.6 7.1 3v.4l9.1.8v-.4c5.2.2 10.3.4 15.5.7l5.1.3 7.2.4c.5-4.6.9-9.3 1.4-13.9.1-1 .2-2 .3-3 0-.6.5-1 1.1-1s1 .5 1 1.1c-.4 5.6-.8 11.3-1.1 16.9h.4l10.3.8c6.8.5 13.7 1 20.5 1.6l18.8 1.5 3-37 .2-2.4c-.3-.7-.3-1.5-.3-2.2zm-14.1 8.4c-3.3.4-6.5.3-9.6.3-3.2-.1-6.2.1-9.6.1-3.3 0-6.6-.2-9.8-.6-3.2-.3-6.5-.7-9.6-1.3-.5-.1-1-.2-1.6-.3-5.8-1.1-11.5-2.5-17.2-2.8-1.9-.1-3.7-.1-5.6.1-1.2.1-2.5.2-3.7.4-3.1.4-6.1 1.1-9.3 1.8-.2 0-.4-.1-.5-.3 0-.1 0-.3.2-.4 2.8-1.7 5.9-3.1 9.1-3.9.1 0 .2 0 .3-.1 3.1-.7 6.4-1 9.6-.9 5.9.1 11.6 1.3 17.1 2.3.7.1 1.5.2 2.2.4 6.2 1 12.7 1.8 18.9 2.1 3.1.1 6.4-.1 9.7.3 3.3.2 6.5.9 9.6 1.9.2.1.3.3.3.5-.2.2-.3.4-.5.4z" fill="#fff"/><path d="m303.3 142.3c-.6-.1-1.1.4-1.1.9-.1 1-.2 2-.3 3-.5 4.6-.9 9.3-1.4 13.9l-.1 1.2c0 .4-.1.8-.1 1.3-.2 2.3-.5 4.7-.7 7-.9 8.8-1.6 17.6-2.4 26.4-.7 7.9-1.3 15.8-1.9 23.7-.1.9-.1 1.8-.2 2.8l-1 13.2-.9 13.3c0 .6.4 1.1 1 1.1.4 0 .7-.1.9-.4.1-.1.2-.3.2-.5l1.4-13.2 1.3-13.2c.1-1 .2-2 .3-3 .7-7.8 1.4-15.6 2-23.4.5-6.5 1.1-13.1 1.6-19.6l.5-6.8c.2-2.3.4-4.6.5-7 0-.4.1-.9.1-1.3l.1-1.3c.4-5.6.8-11.3 1.1-16.9.1-.6-.4-1.1-.9-1.2zm24.2 93.4c-2.3 1.6-4.2 3.8-5.5 6.4-1.3 2.4-1.9 5.2-1.6 7.9v.5c.1.6.6 1 1.2.9.5-.1.8-.4.9-.9 0-.1.1-.3.1-.4.3-2.3 1.1-4.5 2.2-6.5 1.1-2.2 2.7-4.1 4.2-6.3.3-.5.2-1.2-.3-1.5-.4-.3-.8-.4-1.2-.1zm-4.1-7.7c1.5.1 3.1-.5 4.2-1.5 2.4-2.3 2.5-6.1.3-8.5l-.1-.1c-1.1-1.2-2.7-1.8-4.4-1.9-3.3-.1-6.1 2.6-6.2 5.9 0 1.6.6 3.3 1.8 4.4-1.2 1.5-2.4 3.1-3.4 4.8-1.1 1.9-2 3.9-2.8 6s-1.3 4.3-1.6 6.5c-.3 2-.3 4-.1 6 0 .2 0 .4.1.6.1.6.6 1 1.2.9.5-.1.9-.5.9-1 0-.2 0-.3 0-.5.1-1.9.3-3.8.7-5.6.4-2 1-4 1.7-5.9.8-1.9 1.6-3.8 2.5-5.7.8-1.7 1.7-3.4 2.6-5 .9.6 1.7.7 2.6.6zm0-8.8c.8 0 1.6.3 2.3.9.6.6 1 1.4 1 2.2.1 1.7-1.3 3.5-3.3 3.6-1.9-.2-3.4-1.9-3.2-3.6 0-1.7 1.4-3.1 3.2-3.1zm-110.9-118.1c.2-.2.5-.4.8-.6-.3-.1-.5-.1-.8-.2zm-11.7-.1v-1c-.3.1-.6.1-.9.2.4.3.7.5.9.8z" fill="#c3c4c7"/><path d="m222.6 80.1c-.2-.9-.6-1.8-1.2-2.5-.9-1.1-2.2-1.9-3.5-2.4 0 0 .6-2.8-2.9-5.8-4.1-3.4-9.2-.4-9.2-.4s-2.9-2.4-8.4-.7c-6.8 2.1-4.9 8.6-4.9 8.6-.4.2-.7.4-1 .6-5.4 3.9-3.2 13.8 5.1 14.1 0 0-.1-.3-.1-.7-.4-1.1-.7-2.2-.9-3.4.1 1.2.4 2.3.9 3.4.2.7.6 1.4 1 2 .9 1.3 2 2.4 3.4 3.1s3 1 4.6 1c1.2 0 2.3-.2 3.4-.5 1.4-.5 2.6-1.2 3.6-2.3.2-.2.4-.4.5-.6.7.6 2.4 1.6 5.3 0 3.9-2.2 2.5-7.5 2.5-7.5s2.4-1.7 1.8-6zm-10.1 12.5c-1.1 1.6-2.8 2.8-4.8 3.2-1.4.3-2.9.3-4.3 0-.9-.2-1.7-.5-2.5-.9-1-.6-1.9-1.5-2.6-2.5-2.7-4.1-2.2-10.6-.3-14.6v-.1c.6 1.5 1.5 2.9 2.6 4.1h-.5c-.7.1-1.3.4-1.7.9-.1.1-.1.4 0 .5s.2.1.4 0h.1c.4-.2.9-.3 1.4-.4.4-.1.9-.1 1.3-.1 1.9 1.6 4.2 2.8 6.7 3.3v-.1c0-.4.4-.8.8-.8s.8.4.8.8v.4c1.5.2 3.1.3 4.6.2 0 .8-.1 1.6-.3 2.3 0 .1-.1.2-.1.4-.3 1.1-.7 2.2-1.4 3.3-.1 0-.2.1-.2.1zm14.8 43c.1.2.3.2.5.2h.1c.3-.1.3-.3.4-.5l.3-.5c.2-.4.5-.7.7-1s.5-.6.8-1c.3-.3.6-.7.7-1.1 0-.1 0-.2-.1-.2h-.1c-.5 0-.9.3-1.2.6s-.6.6-.9 1c-.3.3-.5.7-.8 1.1l-.3.6c-.1.2-.2.4-.1.7zm-45.3-2.8c.3.3.5.6.8 1 .2.4.5.6.7 1l.3.5c.1.2.1.4.4.5h.1c.2 0 .4 0 .5-.2l.1-.1c.1-.3-.1-.5-.1-.7l-.3-.6c-.2-.4-.5-.8-.8-1.1-.3-.4-.6-.7-.9-1s-.8-.6-1.2-.6h-.1c-.1 0-.2.1-.1.2 0 .4.3.8.6 1.1zm18.8-31.8c-.3-.3-.6-.5-.9-.8-.1-.1-.2-.2-.3-.2-.1-.1-.3-.1-.4 0s-.2.2-.1.4c.1 0 .2-.1.2-.1l.1.1 1.4 1.4 5.4 5.4.3.3 5.9-5.9 1-1 .2-.2h.1v-.1c-.1-.1-.1-.1-.3 0-.1.1-.2.2-.4.3-.3.2-.5.4-.8.6-.9.8-1.8 1.6-2.7 2.4l-3.2 3.1c-1.1-1.1-2.1-2.1-3.2-3.2l-1.8-1.8c0-.2-.2-.5-.5-.7zm-2 148.3v.5c0 .2.1.4.3.4s.3-.1.3-.2l.1-.5c.2-1.1.4-2.2.6-3.3l.1-.9c-.3.4-.7.7-1.1 1-.1.9-.2 1.9-.3 3zm27.3-5.1.1.9c.2 1.3.4 2.6.7 3.8 0 .2.2.3.4.2.1 0 .2-.2.2-.3 0-1.2-.1-2.4-.3-3.6-.3-.3-.7-.6-1.1-1z" fill="#004e6e"/><path d="m205 90.3c.2 0 .4-.1.4-.2.1-.7.2-1.4.1-2.1 0-.7-.1-1.4-.2-2.1 0-.1-.2-.2-.3-.2s-.2.1-.2.2c-.1.7-.2 1.4-.2 2.1s0 1.4.1 2.1c0 0 .2.1.3.2zm-1.1 1.8c-.1-.1-.4-.1-.5.1-.1.1-.1.2 0 .3.4.7 1.1 1 1.9 1 .4 0 .8-.1 1.1-.2.4-.2.6-.5.8-.8 0-.2-.1-.4-.2-.4s-.2 0-.3 0c-.4.3-.8.5-1.3.4-.6 0-1-.1-1.5-.4z" fill="#004e6e"/><path d="m172.8 239.5c.2-.2.6-.2.8 0 .1-5-.2-12.3-.7-19.7h-26.3v4.6c-.1 8.3 0 16.6-.5 24.9h15.3c1.4-1.6 5.9-4.4 11.4-9.8zm-27.9-19.7h-77.1v-20h-12.6c.1 2.8.2 5.6.3 8.4l.1 13.9c-.1 9.3 0 18.5-.6 27.8 13.6-.2 27.1-.3 40.7-.4l49.8-.1c-.5-8.3-.5-16.6-.5-25z" fill="none"/><path d="m114.4 182.3-.6-10.4h-6.2l.2 3.1.4 7.2z" fill="#f6f7f7"/><path d="m77 185.3h4.8 12.7 5.5c-1.1-.1-2.2-.1-3.4-.2-1.5-.5-2.6-1.8-2.9-3.3-.1-.8 0-2 0-3v-1h-1.8v1.1c.1 1.1-.1 2.1.2 3.4.3 1.2 1 2.2 1.9 2.9l-4.5-.1-6.1-.1h-4.4c-.4 0-.8-.1-1.2-.2-1.6-.5-2.7-2-2.7-3.8v-3.3h-.5-1.1v3.4c0 1.7.7 3.3 2 4.4zm18.9 7.1c-.1 0-.1 0 0 0-.1.1-.1.3 0 .3.7.4 1.4.6 2.1.6.7.1 1.4.1 2.1.1s1.4-.1 2.1-.1c.7-.1 1.4-.2 2.1-.5.2-.1.3-.2.2-.4 0-.1-.1-.1-.2-.2-.7-.2-1.4-.4-2.1-.5-1.4-.1-2.8-.1-4.2 0-.8.1-1.5.3-2.1.7z" fill="#f6f7f7"/><path d="m92.1 182.2c-.3-1.3-.1-2.2-.2-3.4v-1.1l-9.2-.1h-1l-6.7-.1v3.4c0 1.7 1.1 3.2 2.7 3.8.4.1.8.2 1.2.2h4.5l6.1.1 4.5.1c-1-.8-1.6-1.8-1.9-2.9zm-31.4-23.7c.1 6.2.1 12.4 0 18.5h.4c0-.1.1-.1.1-.1 1.6 0 3.2-.1 4.8-.1h1.7c1.9 0 3.7-.1 5.6-.1h1.6l6.7-.1h1c3 0 6.1-.1 9.1-.1h1.8c3.2 0 6.4 0 9.6-.1h.8.3v-6.6c.1-.9 1.4-1.1 2-1.1h1.4v-.9l-.3-7.1-.3-7.1-.2-3.6c0-.6 0-1.3-.1-1.7-.1-.5-.2-.9-.5-1.3-.5-.8-1.3-1.4-2.3-1.5-.1 0-.3 0-.4 0h-1.8l-20-.5h-13.9-2.4l.1 12.8c.1 4.5 0 9 0 13.6 0 .2-.1.3-.3.3s-.3-.1-.3-.3c-.2-4.5-.4-9-.5-13.5l-.4-12.9h-.9c-.6-.1-1.2.1-1.7.5s-.8.9-.8 1.5v2.3z" fill="#fff"/><path d="m116.8 185.5c-.4-3.4-.7-6.7-1-10l-.2-2.8-.1-1.4v-.7c0-.1 0-.1-.1-.2-.2-.2-.4-.3-.6-.2h-1.4-2.8-4.2c-.3 0-.5.1-.6.2 0 0-.1.1-.1.2v.6l.1 1.4s0 1.8.1 4.1c.1 3.1.1 7.2.1 8.8zm-8.1-13.6h5.1l.6 10.3h-6.2l-.4-7.2-.2-3.1zm36.6 14.7-27.7.2c-.1.1-.3.2-.4.1 0 0-.1 0-.1-.1l-16.9.1h-18.5-13.9-12.2v11h12.3 13.9l18.2.1 22.8.2 22.9.4v-.1zm-41 6.3c-.7.2-1.4.4-2.1.5-1.4.1-2.8.1-4.2 0-.7 0-1.5-.3-2.1-.6-.1 0-.1-.2-.1-.2s0 0 .1-.1c.7-.4 1.4-.6 2.1-.6.7-.1 1.4-.1 2.1-.1s1.4.1 2.1.1c.7.1 1.4.2 2.1.5.2.1.3.2.2.4 0 0-.1 0-.2.1z" fill="#fff"/><path d="m146.5 211.7c0-1.8-.1-3.5-.1-5.3-.1-2.5-.2-4.9-.5-7.4h.1l.2-12.9c0-.2-.2-.4-.4-.4l-28.1-.2c0-3.4-.1-6.8-.2-10.1l-.1-2.8-.1-1.4v-.7c0-.4-.2-.8-.4-1.1-.5-.5-1.1-.9-1.9-.9h-1.4l-2.8-.1h-1.3v-1l-.3-7.1-.3-7.1-.1-3.6c0-.6 0-1.1-.1-1.9-.3-2.2-2.1-4-4.3-4.3-.5-.1-1-.1-1.5-.1h-.1l-21 .1h-13.9-2.3-2.3c-1 0-1.9.3-2.6.9s-1.2 1.5-1.3 2.5v2.4l.3 9.3c.1 6.2.4 12.4.6 18.5 0 .2.1.3.3.3s.3-.1.3-.3c0-6.2 0-12.4 0-18.5l-.1-9.3c0-.8 0-1.6 0-2.2.1-.6.4-1.2.8-1.5.5-.4 1.1-.6 1.7-.5h.9l.4 12.8c.1 4.5.3 9 .5 13.5 0 .2.1.3.3.3.1 0 .3-.1.3-.3 0-4.5 0-9 0-13.6l-.1-12.8h2.4 13.9l20.1.1h1.8.4c1 .2 1.8.7 2.3 1.5.3.4.4.9.5 1.3 0 .4.1 1.1.1 1.7l.2 3.6.3 7.1.3 7.1v.9h-1.4c-.6 0-1.9.2-2 1.1v6.6h-.4-.8c-3.2 0-6.4 0-9.6.1h-1.8c-3 0-6.1.1-9.1.1h-1l-6.7.1h-1.6c-1.9 0-3.7.1-5.6.1h-1.7c-1.6 0-3.2.1-4.8.1-.1 0-.1.1-.1.1s.1.1.1.1c2.2.1 4.3.1 6.5.2 1.9 0 3.7.1 5.6.1h1.1.4l6.7.1h1l9.2.1h1.7c3.5 0 7 .1 10.5.1h.1.3c.2 2.5.5 5.1.9 7.6h-5.2-5.8-12.7-13.9-13.1c-.5 0-.9.4-.9.9v12.8c0 .3.1.5.4.7-.1 2.9-.2 5.7-.3 8.5l-.1 14.3c.1 9.3 0 18.5.6 27.8 0 .2.2.3.4.3.1 0 .3-.1.3-.3.5-9.3.5-18.5.6-27.8l-.3-14c-.1-2.8-.1-5.6-.3-8.4h12.6 13.9l18.7-.1 22.8-.2 22.3-.4c-.2 2.5-.4 4.9-.5 7.3-.1 1.8-.1 3.5-.1 5.3l-.1 8.1v4.6c.1 8.3 0 16.6.5 25v.5s.2.3.4.3c.1 0 .3-.1.3-.3s0-.4 0-.5c.5-8.3.5-16.6.5-24.9v-4.6zm-91-24.7h12.2 13.9 18.5l16.9-.1c.1.1.3.2.4.1 0 0 .1 0 .1-.1l27.7-.2.2 12.1v.1l-22.9-.4-22.8-.2-18.2-.1h-13.9-12.3zm50.3-14.5-.1-1.4v-.4-.2c0-.1 0-.1.1-.2.2-.2.4-.3.6-.2h4.2 2.8 1.4c.2 0 .5.1.6.2 0 0 .1.1.1.2v.7l.1 1.4.2 2.8c.2 3.4.6 6.7 1 10l-10.9-.1c.1-1.5 0-5.6-.1-8.8 0-2.1 0-4 0-4z" fill="#c3c4c7"/><path d="m104.6 148.7c0-.8-.7-1.4-1.5-1.4h-35.1l.5 23.8v3h35.1.4c.1 0 .3 0 .4-.1v-1c0-1.4-.1-2.8 0-3.4 0-.5.3-.9 1-1z" fill="#8e9196" opacity=".26"/><path d="m229.6 202c2.2-11.6 2.3-22.8 1.1-34.6-.4-3.8-1-7.6-1.9-11.3-.5-2.1-1-4.1-1.6-6.1-.4-1.4-.9-2.9-1.5-4.2-.4-1-.8-2-1.3-3-.2-.4-.4-.8-.5-1.1-.9-1.8-2-3.5-3.2-5h.1c1.2-1.4 2.1-3 2.8-4.6.6-1.5 1.1-3 1.6-4.5 0-.1 0-.1.1-.2 0-.1.1-.2.1-.4 0-.1 0-.1 0-.2.4-1.6.6-3.2.8-4.9 0-.1 0-.2 0-.3l.1-1.4v-1.4c0-.9-.1-1.8-.4-2.7-.1-.2-.3-.2-.5-.1-.1 0-.1.1-.2.2-.2.9.1 1.8 0 2.6v1.3l-.1 1.3v.4c-.1 1.3-.3 2.6-.6 3.9 0 .3-.1.6-.1.9-.6 3.8-1.7 6.5-3.2 8.6l-.6 1.3v.1c-.1-.1-.2-.2-.3-.4-.2.2-.4.5-.6.7.6.7 1.1 1.5 1.6 2.3 1.1 1.6 2.1 3.4 2.9 5.1 1.2 2.7 2.2 5.4 3 8.3 1.9 6.9 3 15.6 3.2 27v5.7l-.1 2.1c-.1 4.7-.4 9.1-.9 14.6l-25.8.2c0-.1-20.4.5-20.4.3-.6 0-1.3.1-1.9.1-.2 0-.3.2-.3.4 0 .1.1.3.3.3 2.1.2 4.2.1 6.3.2h19.1 8.1 4.6c3 0 6-.1 9-.2 1.2 0 2.5-.1 3.7-.2.1 0 .2-.1.2-.2s.2-.6-.6-.8c-.7 0-1.4-.1-2.1-.1z" fill="#004e6e"/></svg>
