<svg id="Layer_1" xmlns="http://www.w3.org/2000/svg" viewBox="0 0 388 197"><style>.st0{fill:#F6F6F6}.st1{fill:#fff}.st2{fill:none}.st3{fill:#E1E2E2}.st5{fill:#E1E2E2}.st6{fill:#46799A}.st8{fill:#B0B5B8}.st9{fill:#204A69}.st10{fill:#CCCED0}.st11{fill:#CCCED0}.st12{fill:#204A69}</style><g id="Page-1"><g id="_x39_-domains"><g id="_x39_-registerYourOwnDomain" transform="translate(32 29)"><path id="Rectangle-4" class="st0" d="M54.1 100h93.6v90.7H54.1V100z"/><path id="Rectangle" class="st1" d="M67.8 105.4h70.3v72.2H67.8v-72.2z"/><path id="Shape" class="st2" d="M167 217.2c-1 .6-4.1 1.9-7.6 3.1h7.3c.1-1.1.2-2.1.3-3.1z"/><path id="Shape_1_" class="st2" d="M262 206.7l1-13.2c.1-.9.1-1.8.2-2.8h-63.6l3.9 18.6c.2-.1.4 0 .6.1 6.8 6.7 12 9.4 11.9 10.9 15.1 0 30.2.1 45.3.2-.1-.2-.2-.4-.2-.6l.9-13.2z"/><path id="Shape_2_" class="st2" d="M195.3 216.2c.2 1.2.3 2.4.3 3.6 0 .2-.1.4-.3.4-.1 0-.3-.1-.3-.3-.3-1.3-.5-2.5-.7-3.8 0-.3-.1-.6-.1-.9-1.4-1.5-1.6-3.6-.6-6.6-1.6-6.4-4-9.1-6.4-17.9h-16.7c.4 6.7-1 12.5-1.7 19 1.1 3 .9 4.9-.4 6.4 0 .3-.1.6-.1.9-.1 1.1-.3 2.2-.6 3.3 13 0 26.1.1 39.1.1-4.9-1.3-10.1-3.3-11.5-4.2z"/><path id="Shape_4_" class="st3" d="M57.5 33.2h-2.4v-2.4c0-.9-.7-1.6-1.6-1.6-.9 0-1.6.7-1.6 1.6v3.9c0 .9.7 1.6 1.6 1.6h3.9c.9 0 1.6-.7 1.6-1.6.1-.8-.6-1.5-1.5-1.5z"/><path id="Shape_5_" class="st3" d="M69.8 0h8c.9 0 1.6.7 1.6 1.6s-.7 1.6-1.6 1.6h-8c-.9 0-1.6-.7-1.6-1.6S68.9 0 69.8 0z"/><path id="Shape_6_" class="st3" d="M269.8 13.3c-.9 0-1.6.7-1.6 1.5v8c0 .9.7 1.6 1.6 1.6s1.6-.7 1.6-1.6v-7.9c0-1-.7-1.6-1.6-1.6z"/><path id="Shape_7_" class="st3" d="M63.3 1.9C63 1 62.1.6 61.3 1c-2.8 1.1-5.2 3-6.9 5.5-.5.7-.3 1.7.4 2.2h.1c.7.4 1.6.2 2.1-.5 1.3-2 3.2-3.5 5.4-4.3.8-.3 1.2-1.1.9-2z"/><path id="Shape_8_" class="st3" d="M53.6 24.4c.9 0 1.6-.7 1.6-1.6v-8c0-.9-.7-1.5-1.5-1.5h-.1c-.9 0-1.6.7-1.6 1.6v8c0 .8.7 1.5 1.6 1.5z"/><path id="Shape_9_" class="st3" d="M197.7 0h8c.9 0 1.6.7 1.6 1.6s-.7 1.6-1.6 1.6h-8c-.9 0-1.6-.7-1.6-1.6s.7-1.6 1.6-1.6z"/><path id="Shape_10_" class="st3" d="M165.7 0h8c.9 0 1.6.7 1.6 1.6s-.7 1.6-1.6 1.6h-8c-.9 0-1.6-.7-1.6-1.6s.7-1.6 1.6-1.6z"/><path id="Shape_11_" class="st3" d="M181.7 0h8c.9 0 1.6.7 1.6 1.6s-.7 1.6-1.6 1.6h-8c-.9 0-1.6-.7-1.6-1.6s.7-1.6 1.6-1.6z"/><path id="Shape_12_" class="st3" d="M266.4 8.1c.5.7 1.4.9 2.1.5h.1c.7-.5.9-1.5.4-2.2-1.7-2.5-4.1-4.4-6.9-5.5-.8-.3-1.7.1-2 .9v.1c-.3.8.2 1.6.9 1.9 2.2.9 4.1 2.4 5.4 4.3z"/><path id="Shape_13_" class="st3" d="M213.6 0h8c.9 0 1.6.7 1.6 1.6s-.7 1.6-1.6 1.6h-8c-.9 0-1.6-.7-1.6-1.6.1-.9.8-1.6 1.6-1.6z"/><path id="Shape_14_" class="st3" d="M245.6 0h8c.9 0 1.6.7 1.6 1.6s-.7 1.6-1.6 1.6h-8c-.9 0-1.6-.7-1.6-1.6s.8-1.6 1.6-1.6z"/><path id="Shape_15_" class="st3" d="M229.6 0h8c.9 0 1.6.7 1.6 1.6s-.7 1.6-1.6 1.6h-8c-.9 0-1.6-.7-1.6-1.6.1-.9.8-1.6 1.6-1.6z"/><path id="Shape_16_" class="st3" d="M133.7 0h8c.9 0 1.6.7 1.6 1.6s-.7 1.6-1.6 1.6h-8c-.9 0-1.6-.7-1.6-1.6s.7-1.6 1.6-1.6z"/><path id="Shape_17_" class="st3" d="M149.7 0h8c.9 0 1.6.7 1.6 1.6s-.7 1.6-1.6 1.6h-8c-.9 0-1.6-.7-1.6-1.6s.7-1.6 1.6-1.6z"/><path id="Shape_18_" class="st3" d="M85.7 0h8c.9 0 1.6.7 1.6 1.6s-.7 1.6-1.6 1.6h-8c-.9 0-1.6-.7-1.6-1.6.1-.9.8-1.6 1.6-1.6z"/><path id="Shape_19_" class="st3" d="M117.7 0h8c.9 0 1.6.7 1.6 1.6s-.7 1.6-1.6 1.6h-8c-.9 0-1.6-.7-1.6-1.6s.8-1.6 1.6-1.6z"/><path id="Shape_20_" class="st3" d="M101.7 0h8c.9 0 1.6.7 1.6 1.6s-.7 1.6-1.6 1.6h-8c-.9 0-1.6-.7-1.6-1.6.1-.9.8-1.6 1.6-1.6z"/><path id="Shape_21_" class="st3" d="M269.8 29.2c-.9 0-1.6.7-1.6 1.6v2.4h-2.4c-.9 0-1.6.7-1.6 1.6 0 .9.7 1.6 1.6 1.6h3.9c.9 0 1.6-.7 1.6-1.6v-3.9c.1-1-.6-1.7-1.5-1.7.1 0 .1 0 0 0z"/><path id="Shape_22_" class="st3" d="M80.7 33.2h7.7c.9 0 1.6.7 1.6 1.6 0 .9-.7 1.6-1.6 1.6h-7.7c-.9 0-1.6-.7-1.6-1.6 0-1 .7-1.6 1.6-1.6z"/><path id="Shape_23_" class="st3" d="M235 33.2h7.7c.9 0 1.6.7 1.6 1.6 0 .9-.7 1.6-1.6 1.6H235c-.9 0-1.6-.7-1.6-1.6.1-1 .8-1.6 1.6-1.6z"/><path id="Shape_24_" class="st3" d="M250.5 33.2h7.7c.9 0 1.6.7 1.6 1.6 0 .9-.7 1.6-1.6 1.6h-7.7c-.9 0-1.6-.7-1.6-1.6 0-1 .7-1.6 1.6-1.6z"/><path id="Shape_25_" class="st3" d="M188.7 33.2h7.7c.9 0 1.6.7 1.6 1.6 0 .9-.7 1.6-1.6 1.6h-7.7c-.9 0-1.6-.7-1.6-1.6.1-1 .8-1.6 1.6-1.6z"/><path id="Shape_26_" class="st3" d="M65.2 33.2h7.7c.9 0 1.6.7 1.6 1.6 0 .9-.7 1.6-1.6 1.6h-7.7c-.9 0-1.6-.7-1.6-1.6.1-1 .8-1.6 1.6-1.6z"/><path id="Shape_27_" class="st3" d="M219.6 33.2h7.7c.9 0 1.6.7 1.6 1.6 0 .9-.7 1.6-1.6 1.6h-7.7c-.9 0-1.6-.7-1.6-1.6 0-1 .7-1.6 1.6-1.6z"/><path id="Shape_28_" class="st3" d="M204.2 33.2h7.7c.9 0 1.6.7 1.6 1.6 0 .9-.7 1.6-1.6 1.6h-7.7c-.9 0-1.6-.7-1.6-1.6 0-1 .7-1.6 1.6-1.6z"/><path id="Shape_29_" class="st3" d="M142.4 33.2h7.7c.9 0 1.6.7 1.6 1.6 0 .9-.7 1.6-1.6 1.6h-7.7c-.9 0-1.6-.7-1.6-1.6 0-1 .8-1.6 1.6-1.6z"/><path id="Shape_30_" class="st3" d="M173.3 33.2h7.7c.9 0 1.6.7 1.6 1.6 0 .9-.7 1.6-1.6 1.6h-7.7c-.9 0-1.6-.7-1.6-1.6 0-1 .7-1.6 1.6-1.6z"/><path id="Shape_31_" class="st3" d="M127 33.2h7.7c.9 0 1.6.7 1.6 1.6 0 .9-.7 1.6-1.6 1.6H127c-.9 0-1.6-.7-1.6-1.6 0-1 .7-1.6 1.6-1.6z"/><path id="Shape_32_" class="st3" d="M96.1 33.2h7.7c.9 0 1.6.7 1.6 1.6 0 .9-.7 1.6-1.6 1.6h-7.7c-.9 0-1.6-.7-1.6-1.6.1-1 .7-1.6 1.6-1.6z"/><path id="Shape_33_" class="st3" d="M111.6 33.2h7.7c.9 0 1.6.7 1.6 1.6 0 .9-.7 1.6-1.6 1.6h-7.7c-.9 0-1.6-.7-1.6-1.6 0-1 .7-1.6 1.6-1.6z"/><path id="Shape_34_" class="st3" d="M157.9 33.2h7.7c.9 0 1.6.7 1.6 1.6 0 .9-.7 1.6-1.6 1.6h-7.7c-.9 0-1.6-.7-1.6-1.6 0-1 .7-1.6 1.6-1.6z"/><path id="Shape_35_" class="st1" d="M88.7 114.4c.5 0 1 0 1.5.1 2.2.4 3.9 2.1 4.3 4.3.1.8.1 1.3.1 1.9l.1 3.6.3 7.1.3 7.1v1h5.5c.7 0 1.4.3 1.9.9.3.3.4.7.4 1.1v.7l.1 1.4.1 2.8c.1 3.4.2 6.8.2 10.1l28.1.2c.3 0 .4.2.4.4l-.2 12.9h-.1c.3 2.5.4 4.9.5 7.4h12.5v-63.9c-2.9-3.6-6.2-8.4-6.3-11.1-.1-4.8 2.4-6.1 6.1-10.3l.2.1v-.1c-.1-.1-.2-.2-.3-.4H67.6v22.8l21.1-.1c-.1 0-.1 0 0 0z"/><path id="Shape_36_" class="st0" d="M59.3 151.9v-3.4c-1.9 0-3.7-.1-5.6-.1v7.9h7.5c-1.3-1.1-2-2.7-1.9-4.4z"/><path id="Shape_37_" class="st0" d="M268.2 133.6l-7.2-.8c-1.6-.2-3.3-.4-4.9-.5v45.8H197l2.7 12.6h63.6c.6-7.9 1.3-15.8 1.9-23.7.8-8.8 1.5-17.6 2.4-26.4.1-2.3.4-4.6.6-7z"/><path id="Shape_38_" class="st0" d="M265.9 36.3c-.9 0-1.6-.7-1.6-1.6h-4.6c0 .9-.7 1.6-1.6 1.6h-7.7c-.9 0-1.6-.7-1.6-1.6h-4.6c0 .9-.7 1.6-1.6 1.6H235c-.9 0-1.6-.7-1.6-1.6h-4.6c0 .9-.7 1.6-1.6 1.6h-7.7c-.9 0-1.6-.7-1.6-1.6h-4.6c0 .9-.7 1.6-1.6 1.6H204c-.9 0-1.6-.7-1.6-1.6h-4.6c0 .9-.7 1.6-1.6 1.6h-7.7c-.9 0-1.6-.7-1.6-1.6h-4.6c0 .9-.7 1.6-1.6 1.6H173c-.9 0-1.6-.7-1.6-1.6H167c0 .9-.7 1.6-1.6 1.6h-7.7c-.9 0-1.6-.7-1.6-1.6h-4.6c0 .9-.7 1.6-1.6 1.6h-7.7c-.9 0-1.6-.7-1.6-1.6H136c0 .9-.7 1.6-1.6 1.6h-7.7c-.9 0-1.6-.7-1.6-1.6h-4.6c0 .9-.7 1.6-1.6 1.6h-7.7c-.9 0-1.6-.7-1.6-1.6H105c0 .9-.7 1.6-1.6 1.6h-7.7c-.9 0-1.6-.7-1.6-1.6H90c0 .9-.7 1.6-1.6 1.6h-7.7c-.9 0-1.6-.7-1.6-1.6h-4.6c0 .9-.7 1.6-1.6 1.6h-7.7c-.9 0-1.6-.7-1.6-1.6H59c0 .9-.7 1.6-1.6 1.6h-3.9v78.2h13.9V91.6h77c-.3-.7-.2-1.5.3-2.1 2-2.4 5.9-7.3 10-11H67.9V60.6c0-6.6 5.4-12 12-12h79.5c.3-.3.7-.4 1-.6 0 0-2-6.5 4.9-8.6 5.5-1.7 8.4.7 8.4.7s5.2-3 9.2.4c3.5 3 2.9 5.8 2.9 5.8 1.4.5 2.5 1.3 3.5 2.4h66.8v25l13.7 1.1V36.3h-3.9z"/><path id="Shape_39_" class="st0" d="M184.3 180.1c-.3-.6-.5-1.3-.8-2H170c-.8 3.7-.6 5.8 0 9.5.2 1.1.3 2.1.3 3.1H187c-.5-2-1.1-4.2-1.6-6.9-.1-1.2-.5-2.5-1.1-3.7z"/><path id="Shape_40_" class="st0" d="M203.5 92c.3.2.5.4.7.6h14.1l.3-4.4.8-9.8h-26c3.9 3.6 7.9 8.5 10.1 11 .6.8.6 1.9 0 2.6z"/><path id="Shape_41_" class="st0" d="M266.2 190.8h3.6v-43.1c-.5 6.5-1.1 13.1-1.6 19.6-.6 7.8-1.3 15.7-2 23.5z"/><path id="Shape_42_" class="st0" d="M154.8 99.7l-.8-.6-3.3 3.9.1.1c.3.3.6.6.9 1 .3.4.5.7.8 1.1l.3.6c.1.2.3.4.1.7l-.1.1c1.2 2.2 2.2 4.6 2.8 7 .8-1.9 1.8-3.6 2.9-5.3.1-.1.2-.3.3-.4-1.1-2.1-1.9-5.2-2.3-9.7l-1.7 1.5z"/><path id="Shape_43_" class="st0" d="M155.5 174.5c-2.1 0-4.2.1-6.3-.2-.2 0-.3-.2-.3-.4 0-.1.1-.3.3-.3.6-.1 1.3-.1 1.9-.1-1.7-13.5-2.3-32.2.8-47.4l-1.1 2.4c-3.3-.4-1.7-10.1-1.7-10.1s-1.9-2.1-4.2-5v63.9h-12.5c.1 1.8.1 3.5.1 5.3l.1 8.1h26.3c-.4-5.6-.8-11.4-1.2-16.3l-2.2.1z"/><path id="Shape_72_" d="M279.2 220.7c-5.4 0-10.7-.1-16.1-.1-.3.5-.9.6-1.4.3l-.3-.3c-15.1-.1-30.2-.2-45.3-.2 0 .1-.1.3-.1.4-1 1.3-5 .7-9.2-.4-13 0-26.1-.1-39.1-.1 0 .2-.1.4-.1.5 0 .2-.2.3-.4.3-.1 0-.3-.2-.3-.3v-.5h-7.3c-5.2 1.7-11.2 3.1-12.5 1.4-.3-.4-.1-.8.4-1.4h-15.3v.5c0 .1-.2.3-.4.3-.1 0-.3-.1-.3-.3v-.5l-49.8.1c-13.6.1-27.1.2-40.7.4 0 .2-.2.3-.4.3-.1 0-.3-.1-.3-.3-4.8.1-9.7.1-14.5.3-1.8 0-3.5.1-5.2.1h-2.1c-1.6 0-3.1.1-4.7.1-4.4.1-8.7.2-13.1.4-.2 0-.3.2-.3.4 0 .1.1.3.3.3 27 .9 54 1 80.9 1.3l80.9.2c54-.2 107.9-.1 161.9-1.1.4 0 .6-.3.6-.6.1-.5-.2-.7-.6-.8-11.3-.2-22.5-.4-33.8-.5l-11.4-.2z" fill="#F6F6F6"/><path id="Shape_45_" class="st1" d="M197.4 103.1l.1-.1-2.9-3.4-1.3-1.3c-.4 1.5-.9 3.1-1.6 4.5-.7 1.7-1.6 3.3-2.8 4.6 0 0-.1.1-.1 0 1.2 1.6 2.3 3.3 3.2 5 .2.4.4.8.5 1.1.7-2.5 1.6-4.9 2.9-7.2l-.1-.1c-.1-.3.1-.5.1-.7l.3-.6c.2-.4.5-.8.8-1.1.3-.1.6-.4.9-.7z"/><path id="Shape_47_" class="st1" d="M240.6 130.5v-.4l-9.1-.8v.4c-5.6-.1-11-3.7-13.3-9-.6-1.3-1-2.7-1.2-4.1s-.2-2.8-.1-4.3c.1-2.7.3-5.4.5-8l.8-11.6h-14.1c3.4 3.7 5.6 5.1 5.5 9.6-.1 4.8-10.5 16.1-10.5 16.1s1.6 9.6-1.7 10.1l-.6-1.4c.9 3.8 1.5 7.5 1.9 11.3 1.2 11.8 1 23.7-1.2 35.3.8 0 1.6 0 2.4.1.1 0 .2.1.2.2s-.1.2-.2.2c-1.2.1-2.5.1-3.7.2l.8 3.9h59.1v-45.9c-5.1-.6-10.3-1.3-15.5-1.9z"/><path id="Shape_48_" class="st5" d="M188.6 107.4l.6-1.3c-.3.4-.5.7-.8 1 .1.1.2.3.2.3z"/><path id="Shape_49_" class="st5" d="M174.5 174.5h-3.7c-.2 1.3-.4 2.5-.6 3.6v.1h13.5c-.4-1.2-.8-2.4-1-3.7h-8.2z"/><path id="Shape_50_" class="st6" d="M327.7 93.2c-.6-7.5-6.3-13.6-13.7-14.9l-1.4-.2-1.2-.1-2.4-.2-9.7-.8-29.4-2.4-13.7-1.1-34.5-2.8-1.6-.1-.1 1.6-.5 6.2-.8 9.8-.3 4.4-.8 11.6c-.2 2.7-.4 5.4-.5 8-.1 1.4-.1 2.9.1 4.3s.6 2.8 1.2 4.1c2.3 5.3 7.8 8.9 13.3 9v-.8c-2.6-.4-5-1.4-7.1-3-3-2.4-4.9-5.8-5.3-9.6-.1-1.3 0-2.5.1-3.8.3-2.7.6-5.3.8-8l1.1-11.9.4-4.1.9-10.1.4-4.3 33.2 2.9 13.7 1.2 29.1 2.5 9.7.8 2.4.2 1.2.1 1.1.1c1.4.3 2.8.7 4 1.4 2.5 1.4 4.6 3.5 5.7 6.1.6 1.3.9 2.7 1.1 4.1.1.7.1 1.4 0 2.1l-.2 2.4-3 37-18.9-1.5c-6.8-.6-13.7-1.1-20.5-1.6l-10.3-.7h-.4c0 .4-.1.9-.1 1.3s-.1.9-.1 1.3h.4l10.2 1c6.8.6 13.6 1.3 20.4 1.9l20.5 1.8 1.6.1.1-1.6 3.4-38.7.2-2.4c.3-.8.3-1.7.2-2.6z"/><path id="Shape_51_" class="st6" d="M256.2 130.4c-5.2-.3-10.3-.5-15.5-.7v.8c5.2.7 10.3 1.3 15.5 1.9 1.6.2 3.3.4 4.9.5l7.2.8c0-.4.1-.8.1-1.3 0-.4.1-.8.1-1.3l-7.2-.4c-1.8-.1-3.5-.2-5.1-.3z"/><path id="Shape_52_" d="M173.4 68.1c-1.6 0-3.2-.3-4.6-1v3.3s5.3-.5 8-2.9c-1 .4-2.2.6-3.4.6z" fill="#969CA1"/><path id="Shape_53_" class="st8" d="M168.8 70.4V72l.7.7 1.8 1.8c1.1 1.1 2.2 2.1 3.2 3.2l3.2-3.1c.9-.9 1.8-1.6 2.7-2.4v-6.9c-1 1.1-2.2 1.9-3.6 2.3-2.7 2.2-7.9 2.8-8 2.8z"/><path id="Shape_54_" class="st8" d="M177.8 58.1c0 .4-.4.8-.8.8s-.8-.4-.8-.8V57c-2.5-.5-4.8-1.6-6.7-3.3-.4 0-.9 0-1.3.1-.5 0-.9.2-1.4.4h-.1c-.2.1-.4 0-.5-.1s0-.3 0-.4c.4-.5 1-.8 1.7-.9h.5c-1.1-1.2-2-2.6-2.6-4.1v.1c-1.8 4-2.4 10.5.3 14.6.6 1 1.5 1.9 2.6 2.5.8.5 1.6.8 2.5.9h4.3c2-.4 3.7-1.6 4.8-3.2 0-.1.1-.1.1-.2.6-1 1.1-2.1 1.4-3.3l.1-.4c.2-.8.3-1.5.3-2.3-1.5.1-3.1 0-4.6-.2l.2.9zm-4.9-1.4c0-.1.2-.2.3-.2s.2.1.2.2c.1.7.3 1.4.3 2.1 0 .7 0 1.4-.1 2.1 0 .2-.2.4-.4.4s-.4-.2-.4-.4c-.1-.7-.2-1.4-.1-2.1-.1-.7 0-1.4.2-2.1zm-4.7 1.4v-1.2c0-.4.4-.8.8-.7.4 0 .7.3.7.7v1.2c0 .4-.4.8-.8.7-.3-.1-.6-.4-.7-.7zm6.9 5.3c-.1.4-.4.6-.8.8-.3.2-.7.3-1.1.3-.8 0-1.5-.4-1.9-1-.1-.2 0-.4.1-.5s.3 0 .3 0h.1c.4.3.9.4 1.4.4s.9-.1 1.3-.4c.2-.1.4-.1.5.1.1.1.1.2.1.3z"/><path id="Shape_55_" class="st8" d="M197 178.2l-.8-3.9c-3 .1-6 .2-9 .2h-4.6c.3 1.3.6 2.5 1 3.7.2.7.5 1.3.8 2 .6 1.2 1 2.5 1.2 3.8.5 2.7 1.1 4.9 1.6 6.9 2.4 8.8 4.8 11.5 6.4 17.9 0 0 4 3 6.8 2.8 1.3-.1 2.8-.8 2.8-1.5 0-.3.2-.4.4-.5l-3.9-18.6-2.7-12.8z"/><path id="Shape_56_" class="st8" d="M170.1 178.1c.3-1.1.5-2.3.6-3.6h-13.3c.4 4.9.9 10.6 1.2 16.3.5 7.5.8 14.8.7 19.7.1.1.2.2.2.4 0 .7 1.6 1.4 2.8 1.5 2.8.3 6.2-2.5 6.2-2.5.7-6.6 2.2-12.3 1.7-19-.1-1-.2-2-.3-3.1-.6-3.8-.8-5.8 0-9.5l.2-.2z"/><path id="Shape_57_" class="st8" d="M198.9 102.7c-.1.4-.4.8-.7 1.1-.3.3-.5.6-.8 1-.2.4-.5.6-.7 1l-.3.5c-.1.2-.1.4-.4.5h-.1c-.2 0-.4 0-.5-.2-1.3 2.3-2.2 4.7-2.9 7.2.5 1 .9 2 1.3 3 .6 1.4 1 2.8 1.5 4.2.6 2 1.1 4.1 1.6 6.1l.6 1.4c3.3-.4 1.7-10.1 1.7-10.1s10.3-11.3 10.5-16.1c.1-4.5-2.1-5.9-5.5-9.6-.2-.2-.4-.4-.6-.7-.1.1-.2.3-.4.4l-.3.3-8.2 7 2.9 3.4-.1.1c.3-.4.8-.6 1.2-.6.1-.1.2 0 .2.1-.1 0-.1 0 0 0z"/><path id="Shape_58_" class="st8" d="M152.4 106.8c-.4-.1-.4-.3-.5-.5l-.3-.5c-.2-.4-.5-.7-.7-1-.3-.3-.5-.6-.8-1-.3-.3-.6-.7-.7-1.1 0-.1 0-.2.1-.3h.1c.5 0 .9.3 1.2.6l-.1-.1L154 99l-8.9-6.7c-.1-.1-.1-.2-.2-.3l-.1-.1-.2-.1c-3.7 4.3-6.2 5.5-6.1 10.3.1 2.7 3.4 7.5 6.3 11.1 2.2 2.8 4.2 5 4.2 5s-1.6 9.6 1.7 10.1l1.1-2.4c.8-4.3 2.1-8.5 3.8-12.5-.7-2.5-1.6-4.8-2.8-7 0 .3-.2.5-.4.4z"/><path id="Shape_59_" class="st9" d="M154.8 99.7l1.9-1.5c-.2-2-.3-4.2-.3-6.8 0-3.5 1.3-8.7 3.6-13 1-1.9 2.3-3.6 3.8-5.1-2.8.2-5.9 2.3-9 5.1-4.2 3.8-8 8.6-10 11-.5.6-.6 1.4-.3 2.1.1.1.1.3.3.4l.1.1c.1.1.1.2.2.3l8.8 6.7.9.7z"/><path id="Shape_60_" class="st9" d="M192.5 96.6c.3-1.3.5-2.6.6-3.9v-.4l.1-1.3v-1.3c0-.9-.2-1.7 0-2.6.1-.2.3-.3.5-.2.1 0 .2.1.2.2.3.9.4 1.8.4 2.7v1.4l-.1 1.4v.3c-.1 1.6-.4 3.3-.8 4.9v.2c0 .1-.1.3-.1.4s0 .1-.1.2l1.3 1.3 8.2-7 .3-.3.4-.4c.6-.8.6-1.8 0-2.5-2.2-2.6-6.1-7.5-10.1-11-2.3-2.1-4.7-3.8-6.6-4.2 1.3 1.2 2.5 2.6 3.4 4.2 1.8 3 2.8 6.5 2.9 10 0 1.5 0 2.9-.1 4.3-.1 1.1-.2 2.4-.4 3.6z"/><path id="Shape_61_" class="st9" d="M162.5 212.3c-1.3-.1-2.8-.8-2.8-1.5 0-.1-.1-.3-.2-.4-.2-.2-.6-.2-.8 0-5.5 5.4-10 8.2-11.4 9.9-.5.6-.6 1-.4 1.4 1.3 1.6 7.3.3 12.5-1.4 3.5-1.1 6.6-2.5 7.6-3.1h.1c.4-.3.8-.6 1.1-1 1.3-1.4 1.5-3.3.4-6.4.1 0-3.3 2.8-6.1 2.5z"/><path id="Shape_62_" class="st9" d="M204.1 209.5c-.2-.2-.6-.2-.8 0-.1.1-.1.2-.1.4 0 .7-1.6 1.4-2.8 1.5-2.8.3-6.8-2.8-6.8-2.8-1.1 3-.8 5.1.6 6.6.4.4.7.7 1.1 1h.1c1.3.8 6.4 2.9 11.3 4.1 4.2 1.1 8.2 1.7 9.2.4.1-.1.1-.2.1-.4.2-1.4-5-4.1-11.9-10.8z"/><path id="Shape_63_" class="st9" d="M169 58.8c.4 0 .8-.4.8-.8v-1.2c0-.4-.4-.8-.8-.7-.4 0-.7.3-.7.7V58c-.1.5.3.8.7.8z"/><path id="Shape_64_" class="st9" d="M177 58.8c.4 0 .8-.4.8-.8v-1.2c0-.4-.4-.8-.8-.8s-.8.4-.8.8V58c0 .5.4.8.8.8z"/><path id="Shape_65_" class="st10" d="M192.2 115.2c-.8-1.8-1.8-3.5-2.9-5.1-.5-.8-1.1-1.5-1.6-2.2h.1c.3-.2.5-.4.6-.7.3-.3.6-.7.8-1 1.5-2 2.5-4.8 3.2-8.6 0-.3.1-.6.1-.9.2-1.2.3-2.5.4-3.9.1-1.3.1-2.8.1-4.3-.1-3.5-1.1-7-2.9-10-.9-1.6-2-3-3.4-4.2-1.4-1.3-3.1-2.3-5-2.9h-.1l-.2.2-1 1-5.8 5.8-.3-.3-5.5-5.4-1.4-1.4-.1-.1c-.1 0-.2.1-.3.1-1.2.4-2.3 1.1-3.3 2-1.5 1.5-2.8 3.2-3.8 5.1-2.3 4.3-3.6 9.5-3.6 13 0 2.6.1 4.8.3 6.8.4 4.5 1.1 7.6 2.3 9.7-.1.1-.2.3-.3.4-1.1 1.7-2.2 3.4-2.9 5.3-1.7 4-3 8.2-3.8 12.5-3.1 15.1-2.5 33.9-.8 47.4 0 .1 0 .3.1.5h46.2v-.1c.5-5.5.8-10.6.9-15.4.1-2.8.1-5.4.1-7.9-.1-11.4-1.3-20.1-3.2-27-.8-3-1.8-5.7-3-8.4z"/><path id="Shape_66_" class="st10" d="M310.2 101.1c-3.1-1-6.3-1.6-9.6-1.9-3.3-.3-6.6-.1-9.7-.3-6.2-.3-12.7-1.1-18.9-2.1-.7-.1-1.5-.3-2.2-.4-5.6-1-11.2-2.2-17.1-2.3-3.2-.1-6.5.2-9.6.9-.1 0-.2 0-.3.1-3.2.8-6.3 2.1-9.1 3.8-.2.1-.2.4-.1.5.1.1.3.2.4.2 3.2-.6 6.2-1.4 9.3-1.8 1.2-.2 2.5-.3 3.7-.4 1.9-.1 3.7-.2 5.6-.1 5.7.3 11.4 1.6 17.2 2.8.5.1 1 .2 1.6.3 3.2.6 6.5 1 9.6 1.3 3.3.4 6.5.6 9.8.6s6.4-.3 9.6-.1c3.2 0 6.4.1 9.6-.3.1 0 .3-.1.3-.3.2-.2.1-.4-.1-.5z"/><path id="Shape_67_" class="st1" d="M182.6 34.7h4.6c0-.9.7-1.6 1.6-1.6h7.7c.9 0 1.6.7 1.6 1.6h4.6c0-.9.7-1.6 1.6-1.6h7.7c.9 0 1.6.7 1.6 1.6h4.6c0-.9.7-1.6 1.6-1.6h7.7c.9 0 1.6.7 1.6 1.6h4.6c0-.9.7-1.6 1.6-1.6h7.7c.9 0 1.6.7 1.6 1.6h4.6c0-.9.7-1.6 1.6-1.6h7.7c.9 0 1.6.7 1.6 1.6h4.6c0-.9.7-1.6 1.6-1.6h2.4v-2.4c0-.9.7-1.6 1.6-1.6v-4.9c-.9 0-1.6-.7-1.6-1.6v-7.9c0-.9.7-1.5 1.5-1.5-.1-1.6-.6-3.2-1.3-4.6-.7.4-1.6.2-2.1-.5-1.3-2-3.2-3.5-5.4-4.3-.8-.3-1.2-1.1-.9-1.9-1-.3-2-.4-3.1-.4h-1.8c0 .9-.7 1.6-1.6 1.6h-8c-.9 0-1.6-.7-1.6-1.6h-4.8c0 .9-.7 1.6-1.6 1.6h-8c-.9 0-1.6-.7-1.6-1.6h-4.8c0 .9-.7 1.6-1.5 1.6h-8c-.9 0-1.6-.7-1.6-1.6h-4.8c0 .9-.7 1.6-1.6 1.6h-8c-.9 0-1.6-.7-1.6-1.6h-4.8c0 .9-.7 1.6-1.6 1.6h-8c-.9 0-1.6-.7-1.6-1.6h-4.9c0 .9-.7 1.6-1.6 1.6h-8c-.9 0-1.6-.7-1.6-1.6h-4.8c0 .9-.7 1.6-1.6 1.6h-8c-.9 0-1.6-.7-1.6-1.6h-4.8c0 .9-.7 1.6-1.6 1.6h-8c-.9 0-1.6-.7-1.6-1.6h-4.8c0 .9-.7 1.6-1.6 1.6h-8c-.9 0-1.6-.7-1.6-1.6h-4.8c0 .9-.7 1.6-1.6 1.6h-8c-.9 0-1.6-.7-1.6-1.6h-4.8c0 .9-.7 1.6-1.6 1.6h-8c-.9 0-1.6-.7-1.6-1.6h-4.9c0 .9-.7 1.6-1.6 1.6h-8c-.9 0-1.6-.7-1.6-1.6h-1.7c-1 0-2.1.1-3.1.4.3.8-.1 1.6-.9 1.9-2.2.9-4.1 2.4-5.4 4.3-.5.7-1.4.9-2.1.5-.7 1.5-1.2 3-1.3 4.6.9 0 1.5.7 1.5 1.5v8c0 .9-.7 1.6-1.6 1.6v4.9c.9 0 1.6.7 1.6 1.6v2.4h2.4c.9 0 1.6.7 1.6 1.6h4.6c0-.9.7-1.6 1.6-1.6h7.7c.9 0 1.6.7 1.6 1.6h4.6c0-.9.7-1.6 1.6-1.6h7.7c.9 0 1.6.7 1.6 1.6h4.6c0-.9.7-1.6 1.6-1.6h7.7c.9 0 1.6.7 1.6 1.6h4.6c0-.9.7-1.6 1.6-1.6h7.7c.9 0 1.6.7 1.6 1.6h4.6c0-.9.7-1.6 1.6-1.6h7.7c.9 0 1.6.7 1.6 1.6h4.6c0-.9.7-1.6 1.6-1.6h7.7c.9 0 1.6.7 1.6 1.6h4.6c0-.9.7-1.6 1.6-1.6h7.7c.9 0 1.6.7 1.6 1.6h4.5c0-.9.7-1.6 1.6-1.6h7.7c.3-.1 1 .6 1 1.5z"/><path id="Shape_68_" class="st1" d="M219.9 72.2l.1-1.6 1.6.1 34.5 2.8v-25h-66.8c.6.7 1 1.6 1.2 2.5.7 4.3-1.8 6-1.8 6s1.4 5.4-2.5 7.5c-2.9 1.6-4.6.6-5.3 0-.2.2-.4.4-.5.6v6.1c.3.1.5.1.8.2.1-.1.2-.2.4-.3.1-.1.2 0 .3 0v.1c1.9.6 3.5 1.5 5 2.9 1.9.4 4.3 2.1 6.6 4.2h26l.4-6.1z"/><path id="Shape_69_" class="st1" d="M168.8 67.1c-1.4-.7-2.6-1.8-3.4-3.1-.4-.6-.7-1.3-1-2 .1.5.1.7.1.7-8.3-.4-10.6-10.3-5.1-14.1H80c-6.6 0-12 5.4-12 12v17.9h86.9c3-2.7 6.2-4.9 9-5.1.9-.9 2-1.6 3.3-2 0-.1 0-.3.1-.4s.3-.1.4 0 .2.1.3.3l.9-.3v-.6l-.1-3.3z"/><path id="Shape_70_" class="st1" d="M324.2 93.5c-.1-1.4-.5-2.8-1.1-4.1-1.2-2.6-3.2-4.8-5.7-6.1-1.3-.7-2.6-1.1-4-1.4l-1.1-.1-1.2-.1-2.4-.2-9.7-.8-29.1-2.5-13.8-1.2-33.2-2.9-.4 4.3-.9 10.1-.4 4.1-1.1 11.9c-.3 2.7-.5 5.3-.8 8-.2 1.3-.2 2.5-.1 3.8.4 3.8 2.3 7.3 5.3 9.6 2 1.6 4.5 2.6 7.1 3v.4l9.1.8v-.4c5.2.2 10.3.4 15.5.7l5.1.3 7.2.4c.5-4.6.9-9.3 1.4-13.9l.3-3c0-.6.5-1 1.1-1s1 .5 1 1.1c-.4 5.6-.8 11.3-1.1 16.9h.4l10.3.8c6.8.5 13.7 1 20.5 1.6l18.8 1.5 3-37 .2-2.4c-.2-.7-.2-1.5-.2-2.2zm-14.1 8.4c-3.3.4-6.5.3-9.6.3-3.2-.1-6.2.1-9.6.1-3.3 0-6.6-.2-9.8-.6-3.2-.3-6.5-.7-9.6-1.3-.5-.1-1-.2-1.6-.3-5.8-1.1-11.5-2.5-17.2-2.8-1.9-.1-3.7-.1-5.6.1-1.2.1-2.5.2-3.7.4-3.1.4-6.1 1.1-9.3 1.8-.2 0-.4-.1-.5-.3 0-.1 0-.3.2-.4 2.8-1.8 5.8-3 9.1-3.9.1 0 .2 0 .3-.1 3.2-.7 6.4-1 9.6-.9 5.9.1 11.6 1.3 17.1 2.3.7.1 1.5.3 2.2.4 6.2 1 12.7 1.8 18.9 2.1 3.1.1 6.4-.1 9.7.3 3.3.3 6.5.9 9.6 1.9.2.1.3.3.3.5-.2.2-.3.4-.5.4z"/><path id="Shape_71_" class="st11" d="M271.3 113.3c-.6-.1-1.1.4-1.1.9l-.3 3c-.5 4.6-.9 9.3-1.4 13.9 0 .4-.1.8-.1 1.3 0 .4-.1.8-.1 1.3-.2 2.3-.5 4.7-.7 7-.9 8.8-1.6 17.6-2.4 26.4-.7 7.9-1.3 15.8-1.9 23.7-.1.9-.1 1.8-.2 2.8l-1 13.2-.9 13.3c0 .6.4 1.1 1 1.1.4 0 .7-.1.9-.4.1-.1.2-.3.2-.5l1.4-13.2 1.3-13.2.3-3c.7-7.8 1.4-15.6 2-23.4.5-6.5 1.1-13.1 1.6-19.6.2-2.3.4-4.5.5-6.8s.4-4.6.5-7c0-.4.1-.9.1-1.3s.1-.9.1-1.3c.4-5.6.8-11.3 1.1-16.9.1-.7-.4-1.2-.9-1.3z"/><path id="Shape_74_" class="st11" d="M180.5 72.1c.3-.2.5-.4.8-.6-.3-.1-.5-.1-.8-.2v.8z"/><path id="Shape_75_" class="st11" d="M168.8 72v-1c-.3.1-.6.1-.9.3.4.2.7.4.9.7z"/><path id="Shape_76_" class="st12" d="M190.6 51.1c-.1-.9-.6-1.8-1.2-2.5-.9-1.1-2.2-1.9-3.5-2.4 0 0 .6-2.8-2.9-5.8-4.1-3.4-9.2-.4-9.2-.4s-2.9-2.4-8.4-.7c-6.8 2.1-4.9 8.6-4.9 8.6-.4.2-.7.4-1 .6-5.4 3.9-3.2 13.8 5.1 14.1 0 0-.1-.3-.1-.7-.4-1.1-.7-2.2-.9-3.4.1 1.2.4 2.3.9 3.4.3.7.6 1.4 1 2 .9 1.3 2 2.4 3.4 3.1 1.4.7 3 1 4.6 1 1.2 0 2.3-.2 3.4-.5 1.4-.5 2.6-1.3 3.6-2.3.2-.2.4-.4.5-.6.7.6 2.4 1.6 5.3 0 3.9-2.2 2.5-7.5 2.5-7.5s2.4-1.7 1.8-6zm-10.1 12.5c-1.1 1.6-2.8 2.8-4.8 3.2-1.4.3-2.9.3-4.3 0-.9-.2-1.7-.5-2.5-.9-1-.6-1.9-1.5-2.6-2.5-2.7-4.1-2.2-10.6-.3-14.6v-.1c.6 1.5 1.5 2.9 2.6 4.1h-.5c-.6.1-1.3.4-1.7.9-.1.1-.1.4 0 .5s.3.1.4 0h.1c.4-.2.9-.3 1.4-.4.4-.1.9-.1 1.3-.1 1.9 1.6 4.2 2.8 6.7 3.3v-.1c0-.4.4-.8.8-.8s.8.4.8.8v.4c1.5.2 3.1.3 4.6.2 0 .8-.1 1.6-.3 2.3 0 .1-.1.3-.1.4-.3 1.1-.8 2.3-1.4 3.3-.1 0-.2.1-.2.1z"/><path id="Shape_77_" class="st12" d="M195.3 106.6c.1.2.3.3.5.2h.1c.3-.1.3-.3.4-.5l.3-.5c.2-.4.5-.7.7-1 .3-.3.5-.6.8-1 .3-.3.6-.7.7-1.1 0-.1 0-.2-.1-.3h-.1c-.5 0-.9.3-1.2.6-.3.3-.6.6-.9 1-.3.4-.5.7-.8 1.1l-.3.6c-.1.2-.3.4-.1.7v.2z"/><path id="Shape_78_" class="st12" d="M150 103.8c.3.3.5.6.8 1 .2.4.5.6.7 1l.3.5c.1.2.1.4.4.5h.1c.2 0 .4 0 .5-.2l.1-.1c.1-.3-.1-.5-.1-.7l-.3-.6c-.2-.4-.5-.8-.8-1.1-.3-.4-.6-.7-.9-1-.3-.4-.8-.6-1.2-.6h-.1c-.1 0-.2.1-.1.3 0 .3.3.7.6 1z"/><path id="Shape_79_" class="st12" d="M168.8 72c-.3-.3-.6-.5-.9-.8l-.3-.3c-.1-.1-.3-.1-.4 0-.1.1-.2.2-.1.4.1 0 .2-.1.3-.1l.1.1 1.4 1.4 5.4 5.4.3.3 5.9-5.9 1-1 .2-.2h.1v-.1c-.1-.1-.1-.1-.3 0-.1.1-.2.2-.4.3-.3.2-.5.4-.8.6l-2.7 2.4-3.2 3.1c-1.1-1.1-2.2-2.1-3.2-3.2l-1.8-1.8c-.1-.1-.3-.4-.6-.6z"/><path id="Shape_80_" class="st12" d="M166.8 220.3v.5c0 .2.1.4.3.4.1 0 .3-.1.3-.3s.1-.4.1-.5c.3-1.1.4-2.2.6-3.3 0-.3.1-.6.1-.9-.4.4-.7.7-1.1 1-.1 1-.2 2-.3 3.1z"/><path id="Shape_81_" class="st12" d="M194.1 215.2c0 .3.1.6.1.9.2 1.3.4 2.6.7 3.8 0 .2.2.3.4.3.1 0 .3-.2.3-.3 0-1.2-.1-2.4-.3-3.6-.4-.4-.8-.7-1.2-1.1z"/><path id="Shape_82_" class="st12" d="M173 61.3c.2 0 .4-.1.4-.3.1-.7.2-1.4.1-2.1 0-.7-.1-1.4-.3-2.1 0-.1-.2-.2-.3-.2s-.2.1-.2.2c-.1.7-.3 1.4-.3 2.1 0 .7 0 1.4.1 2.1.2.1.4.2.5.3z"/><path id="Shape_83_" class="st12" d="M171.9 63.1c-.1-.1-.4-.1-.5.1-.1.1-.1.2 0 .3.4.6 1.1 1 1.9 1 .4 0 .8-.1 1.1-.3.4-.2.6-.5.8-.8 0-.2-.1-.4-.3-.4h-.3c-.4.3-.8.5-1.3.4-.5.1-.9 0-1.4-.3z"/><g id="Group" transform="translate(21.508 113.965)"><path id="Shape_84_" class="st2" d="M119.3 96.5c.2-.2.6-.2.8 0 .1-5-.2-12.3-.7-19.7H93.1v4.6c-.1 8.3 0 16.6-.5 24.9h15.3c1.4-1.6 5.8-4.4 11.4-9.8z"/><path id="Shape_91_" class="st1" d="M63.3 42.5c-.4-3.4-.7-6.7-1-10l-.2-2.8-.1-1.4v-.7c0-.1 0-.1-.1-.2-.2-.2-.4-.3-.6-.3h-8.4c-.3 0-.5.1-.6.3 0 0-.1.1-.1.2v.7l.1 1.4s0 1.8.1 4.1c.1 3.1.1 7.2.1 8.8l10.8-.1zM55.2 29h5.1l.6 10.3h-6.2l-.4-7.2-.2-3.1h1.1z"/></g><path id="Shape_95_" class="st12" d="M197.6 173c2.2-11.6 2.3-22.8 1.1-34.6-.4-3.8-1-7.6-1.9-11.3-.5-2.1-1-4.1-1.6-6.1-.4-1.4-.9-2.9-1.5-4.2-.4-1-.8-2-1.3-3-.2-.4-.4-.8-.5-1.1-.9-1.8-2-3.5-3.2-5h.1c1.2-1.4 2.1-3 2.8-4.6.6-1.5 1.1-3 1.6-4.5 0-.1 0-.1.1-.2 0-.1.1-.3.1-.4v-.2c.4-1.6.6-3.3.8-4.9v-.3l.1-1.4v-1.4c0-.9-.1-1.8-.4-2.7-.1-.2-.3-.3-.5-.1-.1 0-.1.1-.2.2-.2.9.1 1.8 0 2.6v1.3l-.1 1.3v.4c-.1 1.3-.3 2.6-.6 3.9 0 .3-.1.6-.1.9-.6 3.8-1.7 6.5-3.2 8.6l-.6 1.3v.1c-.1-.1-.2-.3-.3-.4-.2.3-.4.5-.6.7.6.7 1.1 1.5 1.6 2.3 1.1 1.6 2.1 3.4 2.9 5.1 1.2 2.7 2.2 5.4 3 8.3 1.9 6.9 3 15.6 3.2 27v5.7c0 .7-.1 1.4-.1 2.1-.1 4.7-.4 9.1-.9 14.6l-25.8.2c0-.1-20.4.5-20.4.3-.6 0-1.3.1-1.9.1-.2 0-.3.2-.3.4 0 .1.1.3.3.3 2.1.3 4.2.1 6.3.2h31.8c3 0 6-.1 9-.2 1.2 0 2.5-.1 3.7-.2.1 0 .2-.1.2-.2s.2-.6-.6-.8c-.2 0-1.3 0-2.1-.1z"/></g></g></g></svg>