<svg enable-background="new 0 0 388 197" viewBox="0 0 388 197" xmlns="http://www.w3.org/2000/svg"><path d="m292.4 174.6v-4.7c0 1.8-.2 3.5-.4 5.2.1-.2.2-.4.4-.5z" fill="#6ab3d0"/><path d="m272 198.3c-2.6.8-5.4 1.3-8.3 1.3h7.4c.3-.4.6-.8.9-1.3z" fill="#6ab3d0"/><path d="m97.3 58.2h195v141.3h-195z" fill="#fff"/><path d="m163.3 58.2h129.1v95.2h-129.1z" fill="#dcdcde"/><path d="m163.3 159.3h128.7v40.4h-128.7z" fill="#dcdcde"/><path d="m237.1 86.2h-59.8v-9.1h53.6c3.4 0 6.2 2.8 6.2 6.2z" fill="#fff"/><path d="m220.5 102.6h-43.2v-8.5h37c3.4 0 6.2 2.8 6.2 6.2z" fill="#fff"/><g fill="#8e9196"><path d="m210.3 133.3h-33.6v-9.4h27.4c3.4 0 6.2 2.8 6.2 6.2z"/><path d="m138.2 78.8h-22.8v-6.4h16.6c3.4 0 6.2 2.8 6.2 6.2z"/><path d="m115.9 98.9c2.9-.1 5.8-.2 8.7-.2 2.9-.1 5.8-.1 8.7-.1h8.7c2.9.1 5.8.1 8.7.3.4 0 .7.3.6.7 0 .3-.3.6-.6.6-2.9.2-5.8.2-8.7.3-2.9 0-5.8.1-8.7 0-2.9 0-5.8 0-8.7-.1-2.9 0-5.8-.1-8.7-.2-.4 0-.7-.3-.6-.7-.1-.3.2-.5.6-.6z"/><path d="m115.9 109.6c2.9-.1 5.8-.2 8.7-.2 2.9-.1 5.8-.1 8.7-.1h8.7c2.9.1 5.8.1 8.7.3.4 0 .7.3.6.7 0 .3-.3.6-.6.6-2.9.2-5.8.2-8.7.3-2.9 0-5.8.1-8.7 0-2.9 0-5.8 0-8.7-.1-2.9 0-5.8-.1-8.7-.2-.4 0-.7-.3-.6-.7-.1-.3.2-.6.6-.6z"/><path d="m115.9 120.8c2.9-.1 5.8-.2 8.7-.2 2.9-.1 5.8-.1 8.7-.1h8.7c2.9.1 5.8.1 8.7.3.4 0 .7.3.6.7 0 .3-.3.6-.6.6-2.9.2-5.8.2-8.7.3-2.9 0-5.8.1-8.7 0-2.9 0-5.8 0-8.7-.1-2.9 0-5.8-.1-8.7-.2-.4 0-.7-.3-.6-.7-.1-.4.2-.6.6-.6z"/><path d="m115.9 130.9c2.9-.1 5.8-.2 8.7-.2 2.9-.1 5.8-.1 8.7-.1h8.7c2.9.1 5.8.1 8.7.3.4 0 .7.3.6.7 0 .3-.3.6-.6.6-2.9.2-5.8.2-8.7.3-2.9 0-5.8.1-8.7 0-2.9 0-5.8 0-8.7-.1-2.9 0-5.8-.1-8.7-.2-.4 0-.7-.3-.6-.7-.1-.3.2-.5.6-.6z"/><path d="m115.9 141.6c2.9-.1 5.8-.2 8.7-.2 2.9-.1 5.8-.1 8.7-.1h8.7c2.9.1 5.8.1 8.7.3.4 0 .7.3.6.7 0 .3-.3.6-.6.6-2.9.2-5.8.2-8.7.3-2.9 0-5.8.1-8.7 0-2.9 0-5.8 0-8.7-.1-2.9 0-5.8-.1-8.7-.2-.4 0-.7-.3-.6-.7-.1-.3.2-.6.6-.6z"/><path d="m115.9 152.8c2.9-.1 5.8-.2 8.7-.2 2.9-.1 5.8-.1 8.7-.1h8.7c2.9.1 5.8.1 8.7.3.4 0 .7.3.6.7 0 .3-.3.6-.6.6-2.9.2-5.8.2-8.7.3-2.9 0-5.8.1-8.7 0-2.9 0-5.8 0-8.7-.1-2.9 0-5.8-.1-8.7-.2-.4 0-.7-.3-.6-.7-.1-.4.2-.6.6-.6z"/><path d="m125.9 179.2c2.1-.1 4.1-.2 6.2-.2 2.1-.1 4.1-.1 6.2-.1h6.2c2.1.1 4.1.1 6.2.3.4 0 .6.3.6.7 0 .3-.3.6-.6.6-2.1.2-4.1.2-6.2.3-2.1 0-4.1.1-6.2 0-2.1 0-4.1 0-6.2-.1-2.1 0-4.1-.1-6.2-.2-.4 0-.6-.3-.6-.7s.2-.6.6-.6z"/></g><path d="m177.1 173.2h27v25.5h-27z" fill="#fff"/><path d="m215.2 173.2h27v25.5h-27z" fill="#fff"/><path d="m253.3 173.2h27v25.5h-27z" fill="#fff"/><path d="m97.2 57.6-.3-10.5v-7.4c0-6.4 5.2-11.6 11.6-11.6h172.2c6.4 0 11.6 5.2 11.6 11.6v17.9h-177.1z" fill="#fff"/><path d="m96.6 199.6c-.4-22-.4-44-.5-66.1l-.1-66v-16.5-8.3-2.1c0-.7 0-1.4.1-2.2.2-1.5.6-2.9 1.2-4.3 1.3-2.7 3.6-4.9 6.4-6.1 1.4-.6 2.9-.9 4.3-1h4.2 16.5 66.1 66.1 16.5 4.2c1.5.1 3 .4 4.3 1 2.8 1.2 5 3.4 6.4 6.1.7 1.3 1.1 2.8 1.2 4.3.1.8.1 1.5.1 2.2v2.1 8.3 16.5 132.1c0 .6-.4 1-1 1l-88.6-.1-44.3-.2-44.3-.3c-.2 0-.3-.2-.3-.3 0-.2.1-.3.3-.3l44.3-.3 44.3-.2 88.6-.1-1 1v-132.3-16.5-8.3-2.1c0-.7 0-1.3-.1-2-.1-1.3-.5-2.5-1-3.6-1.1-2.3-3-4.1-5.4-5.1-1.2-.5-2.4-.8-3.7-.9-1.3 0-2.7 0-4.1 0h-16.5-66.1-66.1-16.5c-1.4 0-2.8 0-4.1 0-1.3.1-2.5.4-3.7.9-2.3 1-4.2 2.8-5.4 5.1-.6 1.1-.9 2.4-1 3.6-.1.6-.1 1.3-.1 2v2.1 8.3 16.5l.1 66.1c0 22 .1 44-.2 66.1 0 .4-.3.7-.7.7-.1-.1-.4-.4-.4-.8z" fill="#c3c4c7"/><path d="m302.1 58.4c-17.9.8-35.8.8-53.7.8l-53.7.1-53.7-.1c-17.9 0-35.8 0-53.7-.8-.1 0-.2-.1-.2-.3 0-.1.1-.2.2-.2 17.9-.8 35.8-.8 53.7-.8l53.7-.1 53.7.1c17.9 0 35.8 0 53.7.8.1 0 .2.1.2.3 0 .1-.1.2-.2.2z" fill="#8e9196"/><path d="m296.6 79.2 2.2 5.3 5.8-2.3-1.6-4.8s1.4-2.9 1.2-6.7-19.8-8.7-19.8-8.7l-.8 3.3-.8 4.2-1.1 3.1 1.8 1.2 2.5 2.9 3.3 2.5 3.7.3z" fill="#646970"/><path d="m17.3 47.4c3.3-.1 6.4-.3 9.7-.3s6.4-.1 9.7-.1l-.7.4c1-3.1 2.2-6.1 4-8.9 1.8-2.7 4-5.3 7.1-6.7 6.5-3 14.6 1.5 16.1 8.3.1.9.1 1.8 0 2.7s-.7 1.9-1.6 2.5-1.9.7-2.8.7-2.1-.1-2.8-1.2c-.7-.9-.7-2.2-.4-3 .3-.9.7-1.6 1.3-2.4 1.6-1.2 3.1-2.2 4.8-2.7 1.6-.6 3.4-.7 5.1-.6 1.6.1 3.4.7 4.8 1.9 1.3 1.2 2.1 2.8 2.5 4.5.4 1.6.4 3.3.3 5l-.6-.7c7 0 14 .1 21 .3.1 0 .3.1.3.3s-.1.3-.3.3c-7 .1-14 .3-21 .3-.3 0-.6-.3-.6-.6.3-3-.3-6.4-2.4-8.2-1-.9-2.5-1.5-4-1.5-1.5-.1-3 0-4.5.4-1.3.4-2.7 1.3-3.6 2.4-.4.6-.9 1.2-1 1.8s-.1 1.2.1 1.5c.4.7 2.5.7 3.3 0 .9-.6 1.2-2.1.9-3.6-.6-2.8-2.7-5.3-5.2-6.7-1.3-.7-2.8-1-4.3-1.3-1.5 0-3 0-4.3.7-2.8 1.2-4.9 3.6-6.5 6.1-1.8 2.5-3.1 5.5-4 8.5-.1.3-.3.4-.6.4-3.3 0-6.4-.1-9.7-.1s-6.4-.1-9.7-.3c-.4.2-.5.2-.4-.1-.1.1 0 0 0 0" fill="#bedae6"/><path d="m264.3 121.1-76.3-26.8 16.9-48.6 76.3 26.8z" fill="#187aa2"/><path d="m264.7 121.5-.2-.1-19-6.1-19.2-6.3c-12.9-4.2-25.9-8.6-38.8-13.1-.9-.3-1.4-1.3-1.1-2.3l8.3-24.4 8.3-24.2c.4-1 1.5-1.6 2.6-1.2l38.1 13.6 19 6.8 19 6.9c.8.3 1.2 1.2.9 2-1.5 4.1-3 8.2-4.5 12.3l-4.6 12.3zm-.8-.8.1-.2 7.9-24.5 3.9-12.1c1.3-4 2.6-8 4-12l1 2-19.1-6.5-19.1-6.6-38.2-13.3 2.6-1.2-8.5 24.3-8.6 24.3-1.1-2.3c12.5 4.5 24.9 9 37.5 13.7l18.9 7.2z" fill="#003c56"/><path d="m206.3 51.4 27 32.9 44.1-9.4" fill="#187aa2"/><path d="m206.6 51.1c2.9 2.2 5.4 4.8 7.8 7.4 2.3 2.7 4.6 5.4 6.9 8.1s4.6 5.4 6.8 8.1c2.3 2.7 4.5 5.5 6.7 8.2l-2-.7c7.4-1.6 14.7-3 22.1-4.5 3.7-.7 7.4-1.5 11.1-2.1s7.5-1.1 11.3-1.3c.2 0 .5.2.5.4s-.1.4-.3.4c-3.6 1.4-7.2 2.4-10.8 3.4s-7.3 1.8-11 2.6c-7.3 1.6-14.7 3.3-22 4.9-.8.2-1.5-.1-2-.7-2.3-2.7-4.6-5.4-6.8-8.2s-4.5-5.5-6.7-8.3-4.4-5.6-6.6-8.4c-2.1-2.8-4.2-5.8-5.8-9-.1-.2 0-.5.2-.6.3.2.5.2.6.3z" fill="#003c56"/><path d="m286.3 110.5 6.3-18.3 12.3 7-10.5 20-4.3 4-4.4-1.3-13.8-13.1z" fill="#646970"/><path d="m312.6 166.6c17.9 16.4 19.1 23 23.9 37.2l-10.9 9.3-12.2-18.3" fill="#fff"/><path d="m312.7 166.4c3 2.3 5.8 4.8 8.5 7.5 2.6 2.7 5.1 5.6 7.2 8.8 1.1 1.6 2 3.2 2.9 4.9s1.7 3.4 2.3 5.2c1.4 3.5 2.5 7.1 3.7 10.7.1.4 0 .8-.3 1l-10.9 9.2c-.4.3-.9.3-1.2-.1 0 0 0-.1-.1-.1-4-6.1-8.2-12.2-11.6-18.7-.1-.1 0-.2.1-.3.1 0 .2 0 .3.1 4.7 5.7 8.6 11.8 12.7 17.9l-1.3-.2 10.8-9.4-.3 1c-1.2-3.5-2.3-7.1-3.6-10.6-.6-1.7-1.4-3.4-2.2-5.1-.9-1.6-1.8-3.2-2.8-4.8-2-3.1-4.4-5.9-6.9-8.7s-5.1-5.4-7.6-8.3c-.1-.1-.1-.2 0-.3.1.2.3.2.3.3z" fill="#2c3338"/><path d="m296.7 136.2c-8.2 23.9-8.8 30.5-1.1 44.1z" fill="#fff"/><path d="m296.6 136.4c-.3 1-.5 2-.6 2.8-.1.4-.2.8-.3 1.3l-.4 1.4-1.6 5.5c-1 3.7-2 7.4-2.5 11.1s-.5 7.5.5 11.1 2.7 7 4.5 10.3l-1.5.4c.2-7.2.5-14.4.8-21.6l.5-10.9.3-5.6zm.1-.3v21.8c0 7.5-.1 15.1-.3 22.5 0 .5-.4.8-.8.8-.3 0-.6-.2-.7-.4-1.9-3.4-3.6-6.9-4.6-10.7s-1-7.9-.5-11.7c.6-3.9 1.5-7.6 2.7-11.3l.9-2.7 1-2.7.5-1.4c.2-.5.4-1 .6-1.5.4-1.1.9-1.9 1.2-2.7z" fill="#2c3338"/><path d="m292.6 92.2 11.6 8.3-11.2 13 1.7 19.3h24.2s3.5-4.8 3.8-11.1c.3-6.2-4.3-38.7-15.6-40.1s-14.5 10.6-14.5 10.6z" fill="#a7aaad"/><path d="m297.2 79.2c-.5.3-1 .6-1.6.7-.6.2-1.1.3-1.6.4-1.1.2-2.3.2-3.5 0-2.3-.5-4.4-1.9-5.8-3.8-.2-.2-.3-.5-.5-.7l-.2-.4c-.1-.1-.2-.3-.2-.3s-.4-.2-.9-.4c-.3-.1-.6-.2-.9-.3-.3-.2-.8-.4-1-.9-.5-1-.1-1.9.1-2.4.6-1.1 1.1-1.9 1.3-2.7.1-.4.2-.9.2-1.3v-.8c0-.3 0-.6.1-.9.2-1.3.8-2.4 1.5-3.4.8-.9 1.8-1.7 2.8-2.2 2.1-1.1 4.5-1.5 6.8-1.2s4.5 1.4 6.1 3c1.7 1.6 2.8 3.7 3.1 6 0 .3-.1.5-.4.6-.3 0-.5-.1-.6-.4-.9-4-4.5-7.1-8.5-7.5-2-.2-4 .2-5.7 1.2-1.7.9-3.1 2.4-3.3 4.2 0 .2-.1.4 0 .7v.8c0 .6 0 1.3-.2 1.9-.3 1.2-1.1 2.3-1.5 3-.1.2-.2.4-.2.5v.2s0 0 .2.1c.1.1.4.2.6.2.3.1.5.2.9.3.3.1.7.4 1 .8.2.3.2.3.3.4l.2.3.4.6c1.1 1.6 2.7 2.9 4.6 3.4.9.2 1.9.3 2.9.2.5 0 1-.1 1.5-.2s.9-.3 1.4-.5c.3-.1.6 0 .7.2.2.2.1.4-.1.6z" fill="#2c3338"/><path d="m304.2 100.5s-9.1 21.8-14.4 22.7-14.8-11.2-18.6-15.1c-7.1-.6-8.6-10-7.1-11.1 2.4-1.7 6.1 5.5 7.6 4.4.8-.6.6-1.1.4-2.3-.1-1.1.6-2.7 1.1-2.5 1.6.7 2.8 2.9 3.5 5.8.2.8.7 1.4 1.4 1.7 5.3 2 10.1 4.6 10.1 4.6" fill="#646970"/><path d="m304.7 100.6c-1.6 4-3.4 8-5.4 11.9-1 1.9-2.1 3.8-3.3 5.7-.6.9-1.2 1.8-1.9 2.7s-1.5 1.7-2.5 2.4c-.5.3-1.2.7-1.9.7-.7.1-1.3 0-1.9-.2-1.2-.3-2.2-.9-3.2-1.5-1.9-1.2-3.6-2.7-5.2-4.2s-3.1-3.1-4.6-4.7-2.9-3.3-4.3-4.8l.6.3c-1.2-.1-2.3-.4-3.4-1-1-.6-1.9-1.4-2.6-2.3-1.4-1.8-2.2-4-2.4-6.3 0-.6 0-1.2.1-1.8.1-.3.2-.7.6-1.1.2-.2.4-.3.6-.4s.4-.2.6-.2c.9-.1 1.6.2 2.1.6.5.3 1 .7 1.4 1.1.8.8 1.5 1.6 2.2 2.3.3.3.7.7 1 .8.2.1.1 0 0 .1s.1 0 .1-.1c0 0 .1-.1.1-.1.1 0 0-.6 0-1.1 0-.2-.1-.7 0-1 0-.3.1-.6.2-.9s.2-.6.4-.9c.1-.2.2-.3.4-.5.1-.1.2-.2.4-.3s.4-.2.7-.1c.4.1.3.1.4.2l.2.1c.1.1.3.2.4.3.2.2.5.4.7.6.8.9 1.3 1.9 1.7 2.9.2.5.4 1 .5 1.6l.2.8c0 .2.1.4.2.5.2.3.4.5.9.7l1.5.6c1 .4 1.9.8 2.9 1.3 1.9.9 3.8 1.8 5.6 2.9.2.1.3.4.2.7-.1.2-.4.3-.7.2-1.8-1-3.7-1.8-5.7-2.7-1-.4-1.9-.8-2.9-1.2l-1.5-.5c-.6-.2-1.2-.6-1.6-1.2-.2-.3-.3-.6-.4-.9s-.1-.5-.2-.7c-.1-.5-.3-.9-.5-1.4-.4-.9-.9-1.8-1.5-2.4-.2-.2-.3-.3-.5-.4-.1-.1-.2-.1-.3-.2l-.1-.1s-.2-.1.1 0h.3s.1 0 0 0c0 0-.1.1-.1.2-.1.2-.2.4-.2.6-.1.2-.1.4-.1.6v.6c0 .3.1.5.1.8s0 .7-.2 1.2c-.1.2-.2.4-.4.6-.1.1-.1.1-.2.2l-.1.1c-.1 0-.1.1-.2.1-.3.2-.6.2-.9.1-.3 0-.5-.1-.6-.2-.7-.3-1-.7-1.5-1.1-.8-.8-1.5-1.5-2.2-2.2-.4-.3-.7-.6-1.1-.9-.4-.2-.7-.3-.8-.3-.2.1-.1-.1-.2.3s-.1.8-.1 1.3c.1 1.9.9 3.8 2 5.3 1.2 1.5 2.8 2.4 4.7 2.6.2 0 .5.1.6.3 3 3.2 5.8 6.5 8.8 9.5 1.5 1.5 3.1 2.9 4.8 4s3.7 2 5 1c1.5-1.1 2.9-2.8 4.1-4.6s2.3-3.6 3.3-5.5c2.1-3.8 4-7.6 5.8-11.5.1-.3.4-.4.7-.2.1-.2.3.1.2.3z" fill="#2c3338"/><path d="m280.9 59.7c-.3 4.4 4.2 5.2 6.4 6.9 2.4 1.8 2.5 4 4.8 4.6s3.3-.5 6.1.1c2.6.5 3.5 2.3 6.6 1.8 2.4-.4 4.1-1.5 4.5-4.9.4-3.5-1.4-4.1-2.1-7.4s-.8-5.1-4.1-6.2c-3.1-1-4.4 0-6.9-.9s-3.4-2.1-6.2-1.9c-1.9.1-3.1 1-4.6 2.9-1.9 1.8-4.3 1.4-4.5 5z" fill="#004e6e"/><path d="m285.5 75.8s.7-.4 1.5-.8" style="fill:none;stroke:#2c3338;stroke-width:1.0039;stroke-linecap:round;stroke-linejoin:round;stroke-miterlimit:10"/><path d="m287.6 71.1.2-.1c.3-.1.5-.4.4-.6l-.3-1.2c-.1-.3-.4-.5-.6-.4l-.2.1c-.3.1-.5.4-.4.6l.3 1.2c.1.3.4.4.6.4z" fill="#2c3338"/><path d="m295.8 132.7-1.2 85.9 15.2-2.1s6.3-22.2 5.3-34.4c-1.9-22.6 4.7-34.1 3.8-49.4" fill="#fff"/><path d="m296 132.7c.2 7.2.3 14.3.2 21.5 0 7.2-.1 14.3-.2 21.5l-.5 43-1.1-1 15.2-2.2-.8.7c1.9-6.7 3.4-13.6 4.5-20.5.5-3.5.9-6.9.9-10.4 0-1.7-.1-3.4-.2-5.2s-.2-3.6-.2-5.3c0-3.6.1-7.1.5-10.6s1-7 1.6-10.5 1.3-6.9 1.9-10.4c.5-3.5.8-7 .8-10.5 0-.1.1-.2.2-.2s.2.1.2.2c.7 7.1-.4 14.2-1.6 21.1-1.1 6.9-2 13.9-1.9 20.9 0 1.7.1 3.5.2 5.2s.3 3.5.3 5.3c0 3.6-.4 7.1-.9 10.7-1 7-2.6 13.9-4.4 20.8-.1.4-.4.6-.8.7l-15.2 2.1c-.5.1-1-.3-1.1-.8 0 0 0-.1 0-.2l.7-43c.1-7.2.2-14.3.4-21.5s.4-14.3.8-21.5c0-.1.1-.2.2-.2.2.1.3.2.3.3z" fill="#2c3338"/><path d="m311.9 215.6c-5.4.2-21.8 1.2-24.3 2.1-2.4.9-2.6 1.2.3 1.9 3 .7 23.9 0 23.9 0v-4z" fill="#2c3338"/><path d="m337.8 201.3c-4.1 3.5-16.8 14.5-18.1 16.7-1.4 2.2-1.3 2.6 1.5 1.3 2.3-1.1 14.2-10.9 17.7-14 .6-.5.7-1.4.3-2z" fill="#2c3338"/><path d="m295.8 79.5 2.3 3.2c-.5-.7-1.1-4-1.1-4" style="fill:#2c3338;stroke:#2c3338;stroke-width:1.0039;stroke-linecap:round;stroke-linejoin:round;stroke-miterlimit:10"/><path d="m74.3 171.4c-.1.1-.1.3 0 .5 1.4 1.5 2.8 2.8 4.3 4.2v-1.9c-1.3-1.1-2.5-2-3.9-2.8-.1-.2-.3-.2-.4 0z" fill="#e6f1f5"/><path d="m84.5 203.8h.7l.2-.7z" fill="#e6f1f5"/><path d="m88.7 160.5c-.8-2.2-1.7-4.3-2.6-6.4v6.4z" fill="none"/><path d="m88.7 160.5h.6c-.3-3.1-1.2-5.9-2.4-8.6-.3-.6-.6-1.2-.8-1.8v4c.9 2 1.7 4.2 2.6 6.4z" fill="#c3c4c7"/><path d="m85.4 150.8c0 .1-.2.1-.2 0l-.1-.1-.7.3c.3.5.6 1.1.8 1.7.2.5.5.9.7 1.5v-4l-.1-.2z" fill="#c3c4c7"/><path d="m85.1 150.5c.2-.3.3-.7.5-1.2-1.2-2.1-2.5-4.2-4-6.1-3.2-3.9-6.8-7.4-10.7-10.4v1.9c3.2 3.2 6.3 6.2 9.1 9.8 1.6 2 3.1 4.2 4.3 6.4l.7-.3c.1 0 .1 0 .1-.1z" fill="#c3c4c7"/><path d="m85.1 150.8s.1 0 0 0c.2.1.3.1.3 0 .2-.3.3-.5.5-.8 0-.1-.1-.2-.1-.2-.2.3-.3.6-.5.9z" fill="#e6f1f5"/><path d="m85.1 150.5v.2h.2c.2-.3.3-.6.5-.9l-.1-.2c-.2.2-.4.6-.6.9z" fill="#e6f1f5"/><path d="m100.4 142.6c0-.1 0-.2.1-.3l-1.1-.4c0 .1-.2.1-.2 0l-.3-.3c0 .2-.1.4-.1.6-.8 6-1.1 12.1-.6 18.1h.5c.2-5.9.6-11.8 1.7-17.7z" fill="#c3c4c7"/><path d="m115.1 108.5c4-4.9 8.8-9.1 13.9-12.6.2-.1.2-.3.1-.5s-.3-.2-.5-.1c-5.6 3.2-10.7 7.2-15 12.1-4.2 4.9-7.6 10.4-10.1 16.5-2.3 5.6-3.9 11.5-4.9 17.5l.5.5s.1.1 0 .2l1.1.4c1.1-6.1 2.7-12 5.2-17.7 2.6-6.1 5.7-11.5 9.7-16.3z" fill="#c3c4c7"/><path d="m99.3 141.7-.5-.5v.2c.2.1.3.2.4.3h.2c0 .1-.1 0-.1 0z" fill="#e6f1f5"/><path d="m89.3 161.5h8.6v-1.1h-8.7c.1.4.1.7.1 1.1z" fill="#c3c4c7"/><path d="m85.9 161.5h3.1c-.1-.3-.2-.6-.3-1.1h-2.6v1.1z" fill="#c3c4c7"/><path d="m98.4 161.5h13.4l2.3 8c.3 0 .6.1 1.1.1l-2.4-8.4c-.1-.4-.5-.6-.9-.6h-13.4c-.1.2-.1.5-.1.9z" fill="#c3c4c7"/><path d="m116.9 179.1c1.7 14.9-8.9 28.1-22.7 28.1-13.7 0-24.4-13.2-22.7-28.1l1.7-5.7h-.8l-1.6 5.5v.1c-.7 7 1.2 14.1 5.5 19.6 2.1 2.7 4.9 5 7.9 6.5 2.1 1.1 4.4 1.8 6.9 2.1h3.3c3.4.1 6.9-.6 9.9-2.1 3.2-1.6 5.9-3.8 8-6.5 4.3-5.6 6.3-12.7 5.5-19.6v-.2l-2.5-8.5c-.3 0-.6.1-.9.1z" fill="#c3c4c7"/><path d="m76.9 161.5h9.1v-.9h-9.1c-.4 0-.8.3-.9.6l-2.4 8.2h.9z" fill="#c3c4c7"/><path d="m89 161.5h.3c0-.3-.1-.6-.1-.9h-.6c.2.3.3.6.4.9z" fill="#e6f1f5"/><path d="m85.9 162.5h25.2l-.2-.6.9.6h-.7l2.1 7.1c.3 0 .6 0 1.1.1l-2.3-8h-13.4c0 .1-.1.2-.2.2s-.2-.1-.2-.2h-8.9c0 .1-.1.2-.2.2s-.2 0-.2-.1h-3.1z" fill="#c3c4c7"/><path d="m110.8 161.7.2.8h.8z" fill="#e6f1f5"/><path d="m116.1 179.2c.3 3.3.2 6.5-.6 9.7s-2.2 6.2-4.2 8.9c-3.9 5.3-10.1 9-16.9 9.2v-.2c-3.4 0-6.5-.9-9.5-2.5-2.8-1.6-5.4-3.8-7.4-6.4-3.9-5.4-5.7-11.9-4.9-18.6v.1-.2.1l1.8-5.9h-.9l-1.7 5.7c-1.7 14.9 8.9 28.1 22.7 28.1 13.7 0 24.4-13.2 22.7-28.1l-2.5-8.6-.9.1z" fill="#c3c4c7"/><path d="m74.5 169.4h.9l2-6.9h-.7l.9-.6-.2.6h8.3v-.9h-9z" fill="#c3c4c7"/><path d="m141 88.2c-1.9-3.2-4.9-5.9-8.4-7.1-3.7-1.2-7.5-.6-10.9.5-3.4 1.2-6.5 3-9.5 5.1-5.7 4.2-10.5 9.7-14.1 15.9-3.3 6.2-5.8 13.1-6.3 20.1-.3 3.6.1 7.2 1.2 10.5s3.1 6.1 5.8 8.2v-.2-.2c-2.4-2.1-4.2-5-5.1-8-.9-3.4-1.2-6.8-.7-10.2.7-6.9 3.3-13.4 6.6-19.5 3.5-5.9 8.1-11.2 13.7-15.2 2.7-2 5.7-3.7 9-4.7 3.2-1.1 6.6-1.5 9.7-.4 3.1.9 5.7 3.3 7.4 6s1.9 6.2 1.6 9.6c-.7 6.8-3.4 13.3-6.6 19.4s-7.3 11.8-11.9 17c-2.3 2.5-5 4.7-7.9 6.6-1.4.9-3 1.7-4.6 2.1s-3.4.4-4.9-.3c-.2-.1-.3 0-.5.2 0 .2 0 .3.2.4 1.7.9 3.6 1.1 5.4.6 1.8-.4 3.5-1.1 5-2 3.1-1.9 5.8-4.1 8.2-6.8 4.9-5.1 9.1-10.9 12.6-17.1 3.4-6.2 6.1-12.9 7-20 .2-3.3 0-7.2-2-10.5z" fill="#c3c4c7"/><path d="m81 152.7c.2-.1.2-.3.2-.4-.1-.2-.3-.3-.5-.2-2.6 1.1-5.5.6-8.1-.3-.5-.2-1.1-.4-1.6-.6-2.1-.9-4-2-5.9-3.4-4.5-3.4-8.3-7.9-10.4-13.1-1.1-2.5-1.5-5.3-1.4-8 .2-2.7 1.3-5.3 3-7.4 3-4.3 9.1-5.2 14.1-3.7l.5 3.7 1.2 8.2c.1.5.5.8 1.1.8.3 0 .6-.3.7-.6l2.6-9.6c4.2 4 7.5 9 9.4 14.5v.1c1.1 3 1.5 6 1.5 9.2 0 2.5-.5 5-1.5 7.3l-.3.6.1.2c0 .1.1.2.1.2l.1-.1c1.4-2.5 2.2-5.4 2.4-8.2.2-3.3-.2-6.5-1.2-9.7-.3-1.2-.7-2.3-1.3-3.4-2.1-5-5.3-9.4-9.3-13-.1-.1-.2-.2-.3-.2-.5-.1-.9.1-1.1.6l-1.9 6.8-1.1-8.2c0-.3-.3-.6-.6-.7-.2-.1-.4-.1-.6-.2-2.7-.8-5.6-.9-8.4-.4-1.5.3-3.1.8-4.3 1.6-1.4.8-2.5 1.9-3.4 3.2-1.9 2.4-3.1 5.4-3.3 8.4-.2 3.1.3 6.1 1.5 8.9 2.3 5.6 6.4 10.1 11.2 13.6 1.5 1.1 3 1.9 4.5 2.6 1.2.5 2.2.9 3.4 1.4 2.8.5 6.1.7 8.9-.5z" fill="#c3c4c7"/><path d="m116.9 169.8c-.6-.1-1.2-.1-1.8-.2-.3 0-.6-.1-1.1-.1-.3 0-.6 0-1.1-.1-2.6-.2-5.3-.3-7.9-.3l-11.7-.1c-2.5 0-5.1 0-7.6.1-3.5 0-7 .1-10.4.2h-1.8c-1.2.1-2.3.1-3.5.2-.2 0-.3.2-.3.4s.2.3.3.3c1.1.1 2.1.1 3.2.2h1.8c3.6.2 7.2.2 10.8.3 2.5 0 5.1 0 7.6.1l11.7-.1c2.7-.1 5.5-.2 8.2-.3l.9-.1c.3 0 .6-.1.9-.1.5 0 1.1-.1 1.6-.2.1 0 .2-.1.2-.2.1 0 .1 0 0 0z" fill="#c3c4c7"/><path d="m139.3 89.2c-1.7-2.8-4.2-5.2-7.4-6-3.1-1.1-6.5-.6-9.7.4-3.2 1.2-6.2 2.7-9 4.7-5.5 4.1-10.2 9.3-13.7 15.2-3.4 6-5.9 12.6-6.6 19.5-.4 3.4-.2 6.9.7 10.2.8 3.1 2.6 5.9 5.1 8 .9-6 2.6-11.8 4.9-17.5 2.5-6 5.9-11.5 10.1-16.5 4.2-4.9 9.3-9 15-12.1.2-.1.4 0 .5.1.1.2 0 .3-.1.5-5.2 3.5-9.9 7.8-13.9 12.6-4 4.9-7.3 10.2-9.6 16-2.4 5.7-4.1 11.6-5.2 17.7l4.2 1.5c.1-.2.3-.2.5-.2 1.5.7 3.2.7 4.9.3s3.2-1.2 4.6-2.1c2.8-1.9 5.5-4.1 7.9-6.6 4.7-5.1 8.8-10.8 11.9-17 3.2-6.1 5.9-12.7 6.6-19.4.3-3.1 0-6.6-1.7-9.3z" fill="#fff"/><path d="m80.7 151.9c.2-.1.4 0 .5.2l3.2-1.2c-1.3-2.2-2.7-4.3-4.3-6.4-2.6-3.5-5.9-6.6-9.1-9.8-1.5-1.4-2.8-2.8-4.3-4.2-.1-.2-.1-.3 0-.5.1-.1.3-.1.4 0 1.4.9 2.6 1.9 3.9 2.8 3.9 3.1 7.5 6.6 10.7 10.4 1.5 1.9 2.8 3.9 4 6.1l.3-.6c.9-2.3 1.5-4.7 1.5-7.3 0-3.2-.5-6.2-1.5-9.2v-.1c-1.9-5.5-5.1-10.4-9.4-14.5l-2.6 9.6c-.1.5-.6.7-1.2.6-.3-.1-.6-.4-.6-.7l-1.2-8.2-.5-3.7c-5-1.4-11.2-.6-14.1 3.7-1.7 2.1-2.7 4.7-3 7.4-.2 2.7.2 5.5 1.4 8 2.1 5.2 5.9 9.6 10.4 13.1 1.8 1.4 3.8 2.5 5.9 3.4.5.2 1.1.4 1.6.6 2.5 1.1 5.4 1.6 8 .5z" fill="#fff"/><path d="m113.4 170.5c-2.7.2-5.5.3-8.2.3l-11.7.1c-2.5 0-5.1 0-7.6-.1-3.6 0-7.2-.1-10.8-.3l-.8 2.6-1.8 5.9c-.8 6.5.8 13.2 4.9 18.6 2 2.6 4.5 4.9 7.4 6.4 3 1.6 6.2 2.4 9.5 2.5v.2c6.8-.2 13.1-3.9 16.9-9.2 2-2.6 3.4-5.7 4.2-8.9s1.1-6.4.6-9.7z" fill="#fff"/><path d="m77.6 162.5-2 6.9c3.5-.2 7-.2 10.4-.2 2.5 0 5.1 0 7.6-.1l11.7.1c2.6.1 5.3.2 7.9.3l-2.1-7.1h-25.2z" fill="#fff"/></svg>
