<svg viewBox="0 0 388 197" xmlns="http://www.w3.org/2000/svg"><g transform="translate(42 25)"><path d="m271.9 69.9c0-.3.3-.5.6-.5h.1c.2 0 .4.1.5.2.5-.1 1-.3 1.6-.3v-4c-1.3-.7-2.4-1.6-3.2-2.9-.4-.6-.7-1.2-.9-1.8.1.4.1.7.1.7-1.7 0-3.4-.7-4.7-1.7v10.7c.9.5 1.8 1 2.5 1.5 1-.9 2.2-1.5 3.4-1.9z" fill="none"/><path d="m296.7 204.9 4.1.1c-1.5-.5-2.9-1.1-4.2-1.8.1.6.1 1.1.1 1.7z" fill="none"/><path d="m272.9 204.6h1.3c0-.2 0-.4.1-.7z" fill="none"/><path d="m295 201.7c-.7-1.1-.8-2.6-.1-4.6-1.5-6-3.9-7.8-6.1-19-.2-1-.5-2-.9-2.9-1.7-3.6-2.8-7.4-3.4-11.3h-5.4c0 4.5-.4 7.3-.9 9.7-.6 2.9-.5 4.5 0 7.4 1 6.2-1.7 11.3-2.2 17.1.7 2 .7 3.4 0 4.4 0 .4-.1.8-.1 1.2 0 .3-.1.6-.1 1 6.6.1 13.3.1 19.9.2-.2-.6-.3-1.3-.4-1.9-.2-.4-.3-.9-.3-1.3z" fill="none"/><path d="m296.6 107.9c.2-3.7 1.6-7.4 2.9-10 0 0-.1 0-.1-.1-.1-.3 0-.4.1-.6l.3-.6c.2-.4.4-.7.7-1.1.3-.3.5-.7.8-1v-.1l-1.3-1.4-.3.3-1-.8c-.1.4-.1.9-.2 1.3-.3 1.8-.8 3.4-1.4 5.1-.4 1.2-.9 2.3-1.6 3.4-.3 1.3-.6 2.5-1 3.6h.1c.8.7 1.5 1.3 2 2z" fill="none"/><path d="m69.1 175.1c3.7 0 7 0 10.4.1-.1-1.7-.2-3.4-.2-5.2-.4.3-.9.6-1.4.7-1 .3-2 .4-3 .3s-2-.6-2.9-1.3c-.4-.3-.8-.7-1.2-1.2-.8-1.1-.6-2.6.6-3.4.9-.5 1.4-.7 1.9-.8 1-.2 2.1-.2 3.1 0 1 .3 1.9.9 2.6 1.7.1.1.2.3.3.4.1-1.3.2-2.7.5-4h-.7c-1 0-2-.3-2.9-.7-.9-.5-1.7-1.2-2.3-2.2-.3-.4-.5-.9-.7-1.5-.4-1.3.4-2.7 1.7-3.1 1-.1 1.5-.1 2-.1 1 .1 2 .5 2.9 1.1.7.4 1.2 1.1 1.6 1.8.1-.3.3-.6.4-.8v-2.4c-.7-.2-1.3-.5-1.9-.9-.9-.6-1.5-1.5-1.9-2.4-.3-.5-.4-1.1-.4-1.7 0-.7.3-1.3.7-1.9.5-.5 1.1-.8 1.8-.9.1 0 .4 0 .9.1.3 0 .5.1.7.1l.1-98h96.1v118.5h-88.4c.1.1.3.3.3.5.1.3.2.7.2 1-.1.7-.4 1.2-1.1 1.5-1.3 1.3-3 1.9-4.8 1.6-.9-.1-1.8-.4-2.5-1-.1 1.2-.2 2.5-.4 4 2.6-.1 5.1-.2 7.7-.3.3 0 .6.3.6.6l-.4 1.2h176.9v-12.9c-1.9 0-3.5.1-5.2-.3-.2 0-.4-.3-.4-.5h-2.3c-2.3-16.4-2.5-42.1 5.6-55.9-1.7-7.9-3.4-16.2-3.4-19.3 0-1.5.3-3 .7-4.5l-11.8-6.2.3-.7c-.3-.2-.6-.4-1-.6v53.2h-59.4v-63c0-9 7.3-16.3 16.3-16.3h25.5c8.3 0 15.6 5.9 17.2 14.1 2.3.3 4.6 1 6.7 2 .6-.3 1.2-.3 1.8 0 2.5 1.2 6.1 2.5 9.3 4.3v-10.4c-3.6-2.9-3.9-8.8 0-11.5v-14.4h-3.6c-.8 0-1.5-.6-1.5-1.5h-4.2c0 .8-.6 1.5-1.5 1.5h-7.1c-.8 0-1.5-.6-1.5-1.5h-4.2c0 .8-.6 1.5-1.5 1.5h-7.1c-.8 0-1.5-.6-1.5-1.5h-4.2c0 .8-.6 1.5-1.5 1.5h-7.1c-.8 0-1.5-.6-1.5-1.5h-3.9c0 .8-.6 1.5-1.5 1.5h-7.1c-.8 0-1.5-.6-1.5-1.5h-4.2c0 .8-.6 1.5-1.5 1.5h-7.1c-.8 0-1.5-.6-1.5-1.5h-4.3c0 .8-.6 1.5-1.5 1.5h-7.1c-.8 0-1.5-.6-1.5-1.5h-4.2c0 .8-.6 1.5-1.5 1.5h-7.1c-.8 0-1.5-.6-1.5-1.5h-3.9c0 .8-.6 1.5-1.5 1.5h-7.1c-.8 0-1.5-.6-1.5-1.5h-4.2c0 .8-.6 1.5-1.5 1.5h-7.1c-.8 0-1.5-.6-1.5-1.5h-4.3c0 .8-.6 1.5-1.5 1.5h-7.1c-.8 0-1.5-.6-1.5-1.5h-4.2c0 .8-.6 1.5-1.5 1.5h-7.1c-.8 0-1.5-.6-1.5-1.5h-4.2c0 .8-.6 1.5-1.5 1.5h-7.1c-.8 0-1.5-.6-1.5-1.5h-4.2c0 .8-.6 1.5-1.5 1.5h-7.1c-.8 0-1.5-.6-1.5-1.5h-4.2c0 .8-.6 1.5-1.5 1.5h-3.6v93.9c1.1.2 2.2.7 3.2 1.2 1.1.7 2 1.6 2.8 2.6 1.6 2 2.5 4.4 2.7 6.9.1 2.5-.3 5-1.3 7.3-1.7 3.8-4.2 7.2-7.5 9.8v21.4h2.7l-.4-.8c.5-.3.6-.7.9-.8z" fill="#f6f7f7"/><path d="m66.7 120.4h30.2v56.3h-30.2z" fill="#f6f7f7"/><g fill="#dcdcde"><path d="m70.1 30.7h-2.2v-2.2c0-.8-.6-1.5-1.5-1.5-.8 0-1.5.6-1.5 1.5v3.6c0 .8.6 1.5 1.5 1.5h3.6c.8 0 1.5-.6 1.5-1.5.1-.8-.6-1.4-1.4-1.4z"/><path d="m266 12.3c-.8 0-1.4.7-1.5 1.5v7.4c0 .8.6 1.5 1.5 1.5.8 0 1.5-.6 1.5-1.5v-7.4c0-.9-.7-1.5-1.5-1.5z"/><path d="m81.4 0h7.4c.8 0 1.5.6 1.5 1.5 0 .8-.6 1.5-1.5 1.5h-7.4c-.8 0-1.5-.6-1.5-1.5s.7-1.5 1.5-1.5z"/><path d="m66.5 22.6c.8 0 1.5-.6 1.5-1.5v-7.3c0-.8-.6-1.4-1.4-1.5-.8 0-1.5.6-1.5 1.5v7.4c-.1.8.6 1.4 1.4 1.4z"/><path d="m75.5 1.7c-.3-.7-1.1-1.1-1.9-.8-2.6 1-4.8 2.8-6.3 5.1-.4.7-.3 1.6.4 2h.1c.7.4 1.5.2 1.9-.4 1.2-1.8 2.9-3.2 5-4 .7-.3 1-1 .8-1.8z"/><path d="m184.6 0h7.4c.8 0 1.5.6 1.5 1.5 0 .8-.6 1.5-1.5 1.5h-7.4c-.8 0-1.5-.6-1.5-1.5.1-.9.8-1.5 1.5-1.5z"/><path d="m199.4 0h7.4c.8 0 1.5.6 1.5 1.5 0 .8-.6 1.5-1.5 1.5h-7.4c-.8 0-1.5-.6-1.5-1.5s.7-1.5 1.5-1.5z"/><path d="m214.2 0h7.4c.8 0 1.5.6 1.5 1.5 0 .8-.6 1.5-1.5 1.5h-7.4c-.8 0-1.5-.6-1.5-1.5s.7-1.5 1.5-1.5z"/><path d="m155.1 0h7.4c.8 0 1.5.6 1.5 1.5 0 .8-.6 1.5-1.5 1.5h-7.4c-.8 0-1.5-.6-1.5-1.5.1-.9.8-1.5 1.5-1.5z"/><path d="m169.9 0h7.4c.8 0 1.5.6 1.5 1.5 0 .8-.6 1.5-1.5 1.5h-7.4c-.8 0-1.5-.6-1.5-1.5s.7-1.5 1.5-1.5z"/><path d="m243.7 0h7.4c.8 0 1.5.6 1.5 1.5 0 .8-.6 1.5-1.5 1.5h-7.4c-.8 0-1.5-.6-1.5-1.5s.7-1.5 1.5-1.5z"/><path d="m262.8 7.5c.4.6 1.3.8 1.9.4h.1c.7-.4.9-1.3.4-2-1.5-2.3-3.8-4.1-6.4-5.1-.7-.3-1.6.1-1.9.9v.1c-.2.7.1 1.5.9 1.8 2.1.8 3.8 2.1 5 3.9z"/><path d="m228.9 0h7.4c.8 0 1.5.6 1.5 1.5 0 .8-.6 1.5-1.5 1.5h-7.4c-.8 0-1.5-.6-1.5-1.5.1-.9.7-1.5 1.5-1.5z"/><path d="m140.4 0h7.4c.8 0 1.5.6 1.5 1.5 0 .8-.6 1.5-1.5 1.5h-7.4c-.8 0-1.5-.6-1.5-1.5s.7-1.5 1.5-1.5z"/><path d="m125.6 0h7.4c.8 0 1.5.6 1.5 1.5 0 .8-.6 1.5-1.5 1.5h-7.4c-.8 0-1.5-.6-1.5-1.5.1-.9.7-1.5 1.5-1.5z"/><path d="m110.9 0h7.4c.8 0 1.5.6 1.5 1.5 0 .8-.6 1.5-1.5 1.5h-7.4c-.8 0-1.5-.6-1.5-1.5s.7-1.5 1.5-1.5z"/><path d="m96.1 0h7.4c.8 0 1.5.6 1.5 1.5 0 .8-.6 1.5-1.5 1.5h-7.4c-.8 0-1.5-.6-1.5-1.5.1-.9.7-1.5 1.5-1.5z"/><path d="m266 27.1c-.8 0-1.5.6-1.5 1.5v2.2h-2.2c-.8 0-1.5.6-1.5 1.5 0 .8.6 1.5 1.5 1.5h3.6c.8 0 1.5-.6 1.5-1.5v-3.6c.1-1-.6-1.6-1.4-1.6z"/><path d="m77.2 30.7h7.1c.8 0 1.5.6 1.5 1.5 0 .8-.6 1.5-1.5 1.5h-7.1c-.8 0-1.5-.6-1.5-1.5.1-.9.7-1.5 1.5-1.5z"/><path d="m105.7 30.7h7.1c.8 0 1.5.6 1.5 1.5 0 .8-.6 1.5-1.5 1.5h-7.1c-.8 0-1.5-.6-1.5-1.5.1-.9.7-1.5 1.5-1.5z"/><path d="m91.4 30.7h7.1c.8 0 1.5.6 1.5 1.5 0 .8-.6 1.5-1.5 1.5h-7.1c-.8 0-1.5-.6-1.5-1.5.1-.9.8-1.5 1.5-1.5z"/><path d="m134.2 30.7h7.1c.8 0 1.5.6 1.5 1.5 0 .8-.6 1.5-1.5 1.5h-7.1c-.8 0-1.5-.6-1.5-1.5.1-.9.7-1.5 1.5-1.5z"/><path d="m119.9 30.7h7.1c.8 0 1.5.6 1.5 1.5 0 .8-.6 1.5-1.5 1.5h-7.1c-.8 0-1.5-.6-1.5-1.5.1-.9.8-1.5 1.5-1.5z"/><path d="m233.9 30.7h7.1c.8 0 1.5.6 1.5 1.5 0 .8-.6 1.5-1.5 1.5h-7.1c-.8 0-1.5-.6-1.5-1.5s.7-1.5 1.5-1.5z"/><path d="m219.7 30.7h7.1c.8 0 1.5.6 1.5 1.5 0 .8-.6 1.5-1.5 1.5h-7.1c-.8 0-1.5-.6-1.5-1.5s.6-1.5 1.5-1.5z"/><path d="m248.2 30.7h7.1c.8 0 1.5.6 1.5 1.5 0 .8-.6 1.5-1.5 1.5h-7.1c-.8 0-1.5-.6-1.5-1.5s.6-1.5 1.5-1.5z"/><path d="m205.4 30.7h7.1c.8 0 1.5.6 1.5 1.5 0 .8-.6 1.5-1.5 1.5h-7.1c-.8 0-1.5-.6-1.5-1.5s.7-1.5 1.5-1.5z"/><path d="m162.7 30.7h7.1c.8 0 1.5.6 1.5 1.5 0 .8-.6 1.5-1.5 1.5h-7.1c-.8 0-1.5-.6-1.5-1.5s.7-1.5 1.5-1.5z"/><path d="m148.4 30.7h7.1c.8 0 1.5.6 1.5 1.5 0 .8-.6 1.5-1.5 1.5h-7.1c-.8 0-1.5-.6-1.5-1.5.1-.9.7-1.5 1.5-1.5z"/><path d="m176.9 30.7h7.1c.8 0 1.5.6 1.5 1.5 0 .8-.6 1.5-1.5 1.5h-7.1c-.8 0-1.5-.6-1.5-1.5.1-.9.7-1.5 1.5-1.5z"/><path d="m191.2 30.7h7.1c.8 0 1.5.6 1.5 1.5 0 .8-.6 1.5-1.5 1.5h-7.1c-.8 0-1.5-.6-1.5-1.5s.6-1.5 1.5-1.5z"/></g><path d="m274.7 65.2v3.1s4.9-.5 7.5-2.6c-1 .3-2.1.5-3.2.5-1.6 0-3-.3-4.3-1z" fill="#8e9196"/><path d="m296.7 204.9v.9c0 .3-.3.5-.5.4-.2 0-.4-.1-.4-.3-.1-.3-.2-.7-.3-1-6.6-.1-13.3-.2-19.9-.2-.1.7-.3 1.3-.5 2-.1.3-.4.4-.6.3s-.3-.2-.3-.4v-1.9h-1.3c-2.3 1-4.7 1.8-7.2 2.5 13.5-.1 27-.3 40.6-.5-1.8-.4-3.7-1-5.4-1.6z" fill="#f6f7f7"/><path d="m261.3 204.5c-31.4-.2-62.9-.2-94.4-.3l-74.7.2-9.5.1c-1.1.3-2.2.5-3.4.5h-.3-.1c-1.1 0-2.1-.2-3.2-.4-19.4.2-38.9.4-58.3 1-.1 0-.3.1-.3.3s.1.3.3.3c24.9.8 49.8 1 74.7 1.2l74.7.2c30.7-.1 61.4-.1 92.2-.3-.1-.8.7-1.5 2.3-2.8z" fill="#f6f7f7"/><path d="m316.4 205.2c-1.6 0-3.3-.1-4.9-.1.6.6.8 1 .6 1.3l4.3-.1c.3 0 .6-.3.5-.6 0-.3-.2-.5-.5-.5z" fill="#f6f7f7"/><path d="m239.4 72c1 2.5 1.5 5.1 1.5 7.8v13.5h-.1c-.8 11.8-11 20.7-22.7 19.9-10.7-.7-19.1-9.2-19.9-19.9h-.1v-12.3-1.1c0-11.8 9.5-21.4 21.3-21.4 5.2 0 10.2 1.9 14.1 5.3 1.2-.2 2.5-.4 3.7-.6 1-.1 2.1-.2 3.2-.3s2.2-.1 3.2.3c.2.1.3.3.3.5 1.5 0 2.9.1 4.3.3-1.7-8.2-8.9-14.1-17.2-14.1h-25.5c-9 0-16.3 7.3-16.3 16.3v62.8h59.4v-53.1c-3-1.8-5.9-3.9-6.8-3.9-.7.1-1.6.1-2.4 0z" fill="#dcdcde"/><path d="m240.9 91.9v-11c-.5 11.8-10.5 20.9-22.3 20.4-11-.5-19.9-9.3-20.3-20.4v12.4h.1c.8 11.8 11 20.7 22.7 19.9 10.7-.7 19.1-9.2 19.9-19.9h.1v-1.4c-.2.1-.2.1-.2 0z" fill="#3895ba"/><path d="m19.9 2.8h96v44.4h-96z" fill="#fff" transform="translate(61.835 135.685)"/><ellipse cx="111.6" cy="150.1" fill="#c3c4c7" rx="5.3" ry="5.3"/><ellipse cx="129" cy="150.1" fill="#c3c4c7" rx="5.3" ry="5.3"/><ellipse cx="146.4" cy="150.1" fill="#c3c4c7" rx="5.3" ry="5.3"/><ellipse cx="162.3" cy="150.1" fill="#c3c4c7" rx="5.3" ry="5.3"/><path d="m264.6 21.1v-7.4c0-.8.6-1.4 1.4-1.5-.1-1.5-.6-2.9-1.2-4.3-.7.4-1.5.2-1.9-.4-1.2-1.8-2.9-3.2-5-4-.7-.3-1.1-1-.9-1.8-.9-.2-1.9-.4-2.8-.4h-1.6c0 .8-.6 1.5-1.5 1.5h-7.4c-.8 0-1.5-.6-1.5-1.5h-4.5c0 .8-.6 1.5-1.5 1.5h-7.4c-.8 0-1.5-.6-1.5-1.5h-4.3c0 .8-.6 1.5-1.5 1.5h-7.4c-.8 0-1.5-.6-1.5-1.5h-4.5c0 .8-.6 1.5-1.5 1.5h-7.4c-.8 0-1.5-.6-1.5-1.5h-4.5c0 .8-.6 1.5-1.5 1.5h-7.4c-.8 0-1.5-.6-1.5-1.5h-4.5c0 .8-.6 1.5-1.5 1.5h-7.4c-.8 0-1.5-.6-1.5-1.5h-3.9c0 .8-.6 1.5-1.5 1.5h-7.4c-.8 0-1.5-.6-1.5-1.5h-4.5c0 .8-.6 1.5-1.5 1.5h-7.3c-.8 0-1.5-.6-1.5-1.5h-4.5c0 .8-.6 1.5-1.5 1.5h-7.4c-.8 0-1.5-.6-1.5-1.5h-4.5c0 .8-.6 1.5-1.5 1.5h-7.4c-.8 0-1.5-.6-1.5-1.5h-4c0 .8-.6 1.5-1.5 1.5h-7.4c-.8 0-1.5-.6-1.5-1.5h-4.5c0 .8-.6 1.5-1.5 1.5h-7.4c-.8 0-1.5-.6-1.5-1.4v-.1h-1.6c-1 0-1.9.1-2.9.4.2.7-.1 1.5-.9 1.8-2 .8-3.8 2.2-5 4-.4.6-1.3.9-1.9.4-.7 1.3-1.1 2.8-1.2 4.3.8 0 1.4.7 1.4 1.5v7.4c0 .8-.6 1.5-1.5 1.5v4.4c.8 0 1.5.6 1.5 1.5v2.2h2.2c.8 0 1.5.6 1.5 1.5h4.2c0-.8.6-1.5 1.5-1.5h7.1c.8 0 1.5.6 1.5 1.5h4.4c0-.8.6-1.5 1.5-1.5h7.1c.8 0 1.5.6 1.5 1.5h4.2c0-.8.6-1.5 1.5-1.5h7.1c.8 0 1.5.6 1.5 1.5h4.2c0-.8.6-1.5 1.5-1.5h7.1c.8 0 1.5.6 1.5 1.5h4.2c0-.8.6-1.5 1.5-1.5h7.1c.8 0 1.5.6 1.5 1.5h4.2c0-.8.6-1.5 1.5-1.5h7.1c.8 0 1.5.6 1.5 1.5h4.2c0-.8.6-1.5 1.5-1.5h7.1c.8 0 1.5.6 1.5 1.5h4.2c0-.8.6-1.5 1.5-1.5h7.1c.8 0 1.5.6 1.5 1.5h4.2c0-.8.6-1.5 1.5-1.5h7.1c.8 0 1.5.6 1.5 1.5h4.2c0-.8.6-1.5 1.5-1.5h7.1c.8 0 1.5.6 1.5 1.5h4.2c0-.8.6-1.5 1.5-1.5h7.1c.8 0 1.5.6 1.5 1.5h4.2c0-.8.6-1.5 1.5-1.5h7.1c.8 0 1.5.6 1.5 1.5h4.2c0-.8.6-1.5 1.5-1.5h7.1c.8 0 1.5.6 1.5 1.5h4.2c0-.8.6-1.5 1.5-1.5h2.2v-2.2c0-.8.6-1.5 1.5-1.5v-4.5c-1.6.1-2.2-.6-2.2-1.4z" fill="#fff"/><path d="m229.8 71.4h-.6c-.1 0-.1.1-.1.1-.3.3-.5.6-.8.9-2 2.3-3.9 4.7-5.7 7.1-.4.4-.7.9-1.1 1.4-1.5 2-3.1 4-4.6 6-1.9-1.8-3.7-3.5-5.6-5.3-.3-.3-.6-.2-.9 0-.2.3-.2.6 0 .9 2 2.2 3.9 4.2 6 6.3l.1.1c.4.3.9.2 1.2-.1 2-2.6 4.1-5.2 6.1-7.9l.2-.3c1.9-2.5 3.7-5 5.5-7.6.2-.3.4-.5.6-.8s.1-.6-.1-.8z" fill="#fff"/><path d="m81.8 147.2c1 .3 1.9.8 2.6 1.5s1.3 1.7 1.5 2.7v.3c.2-.2.3-.4.5-.5.4-.3 1-.3 1.3 0l.9.9c.1.1.1.2.2.4 1.1-.1 2.3.1 3.3.7 1.1.6 1.9 1.5 2.5 2.5.1.3.3.6.3.9s0 .7-.1 1c-.3.6-.8 1-1.5 1.1v.1c-1.6.7-3.5.6-5.1-.1-.8-.4-1.5-1-2.1-1.7-.1-.2-.2-.4-.3-.5-.3.4-.7.9-1 1.5-.3.4-.5.9-.7 1.3 0 0 .1 0 .1-.1 1.2-.4 2.4-.5 3.6-.2s2.2.9 3 1.9c.2.3.4.5.5.9.1.3.1.7.1 1-.1.6-.6 1.2-1.2 1.4l.1.1c-1.4 1-3.2 1.5-5 1.1-.9-.2-1.7-.6-2.4-1.2-.1-.1-.3-.2-.4-.3-.2.8-.3 1.7-.4 2.5.2-.1.3-.2.5-.3 1.1-.5 2.3-.7 3.5-.5s2.3.7 3.1 1.6c.1.1.1.2.3.3h88.4v-118.4h-96v98.1zm29.8 8.2c-2.9 0-5.3-2.3-5.3-5.3 0-2.9 2.3-5.3 5.3-5.3 2.9 0 5.3 2.3 5.3 5.3 0 2.9-2.4 5.3-5.3 5.3zm17.4 0c-2.9 0-5.3-2.3-5.3-5.3 0-2.9 2.3-5.3 5.3-5.3 2.9 0 5.3 2.3 5.3 5.3 0 2.9-2.4 5.3-5.3 5.3zm17.4 0c-2.9 0-5.3-2.3-5.3-5.3 0-2.9 2.3-5.3 5.3-5.3 2.9 0 5.3 2.3 5.3 5.3-.1 2.9-2.4 5.3-5.3 5.3zm15.9 0c-2.9 0-5.3-2.3-5.3-5.3 0-2.9 2.3-5.3 5.3-5.3 2.9 0 5.3 2.3 5.3 5.3 0 2.9-2.4 5.3-5.3 5.3zm5.5-47.9c0 .4-.4.8-.9.9-6 .2-12.1.3-18.2.4s-12.1.1-18.2.1-12.1 0-18.2-.1l-18.2-.3c-.5 0-.9-.4-.9-.9s.4-.9.9-.9c6-.1 12.1-.3 18.2-.3s12.1-.1 18.2-.1 12.1 0 18.2.1c6.1 0 12.1.2 18.2.4.5-.1.9.3.9.7zm-74.3-12.2c0-.4.4-.8.9-.9 5.8-.1 11.7-.3 17.5-.3s11.7-.1 17.5-.1 11.7 0 17.5.1 11.7.2 17.5.4c.5 0 .9.4.9.9s-.4.9-.9.9c-5.8.2-11.7.3-17.5.4s-11.7.1-17.5.1-11.7 0-17.5-.1l-17.5-.3c-.6-.2-1-.6-.9-1.1zm.8-31.9c5.7-.1 11.3-.3 17-.3s11.3-.1 17-.1 11.3 0 17 .1c5.7 0 11.3.2 17 .4.5 0 .9.4.8.9 0 .4-.4.8-.8.8-5.7.2-11.3.3-17 .4s-11.3.1-17 .1-11.3 0-17-.1l-17-.3c-.5 0-.9-.4-.8-.9 0-.6.4-1 .8-1zm0 19.2c5.8-.1 11.7-.3 17.5-.3s11.7-.1 17.5-.1 11.7 0 17.5.1 11.7.2 17.5.4c.5 0 .9.4.8.9 0 .4-.4.8-.8.8-5.8.2-11.7.3-17.5.4s-11.7.1-17.5.1-11.7 0-17.5-.1l-17.5-.3c-.5 0-.9-.4-.8-.9 0-.5.4-.9.8-1zm0 36.5c5.8-.1 11.7-.3 17.5-.3s11.7-.1 17.5-.1 11.7 0 17.5.1 11.7.2 17.5.4c.5 0 .9.4.8.9 0 .4-.4.8-.8.8-5.8.2-11.7.3-17.5.4s-11.7.1-17.5.1-11.7 0-17.5-.1l-17.5-.3c-.5 0-.9-.4-.8-.9 0-.6.4-1 .8-1zm0 13.2c5.9-.1 11.9-.3 17.8-.3s11.9-.1 17.8-.1 11.9 0 17.8.1c5.9 0 11.9.2 17.8.4.5 0 .9.4.8.9 0 .4-.4.8-.8.8-5.9.2-11.9.3-17.8.4s-11.9.1-17.8.1-11.9 0-17.8-.1l-17.8-.3c-.5 0-.9-.4-.8-.9 0-.7.4-1 .8-1z" fill="#fff"/><path d="m79.4 204.9c1.2 0 2.3-.2 3.4-.5h-2.6c-.2.3-.5.5-.8.5z" fill="#f6f7f7"/><path d="m229.8 71.4c.3.3.4.6.2.9s-.4.5-.6.8c-1.8 2.6-3.6 5.1-5.5 7.6l-.2.3c-2 2.7-4.1 5.3-6.1 7.9-.3.4-.9.4-1.2.1 0 0-.1 0-.1-.1l-6-6.3c-.3-.3-.2-.6 0-.9.3-.2.6-.2.9 0 1.9 1.8 3.8 3.5 5.6 5.3 1.5-2 3.1-4 4.6-6 .4-.5.7-.9 1.1-1.4 1.9-2.4 3.8-4.8 5.7-7.1.3-.3.5-.6.8-.9l.1-.1c-.4 0-.7 0-1.1.1s-.8.3-1.3.4c-2.3.9-5.1 2.1-6.3 1.1-.8-.7.7-1.6 1.9-2.2.7-.4 1.4-.6 1.4-.6-1.6-1-3.3-1.9-5-2.7-.4.1-.7.3-1 .5-.2.1-.5.1-.7-.1-.1-.1-.1-.4 0-.6s.3-.3.4-.5c.4-.6.1-.7 1.3-1.3.3-.5.7-.9 1.3-1.1s1.2-.3 1.8-.1c1.1.2 2 .5 3.1.7.5.1 1 .1 1.5.2h.7c.1 0 .4-.1.7-.1 1-.3 2-.5 3.1-.7.9-.2 1.7-.3 2.6-.5-8.9-7.8-22.4-6.8-30.1 2.1-3.4 3.9-5.3 8.9-5.3 14.1v1.1c.5 11.8 10.5 20.9 22.3 20.4 11-.5 19.9-9.3 20.3-20.4v-1.1c0-2.7-.5-5.3-1.5-7.8-3.3-.5-7.2-.9-9.4-1z" fill="#c3c4c7"/><path d="m167 106.6c-6-.2-12.1-.3-18.2-.4s-12.1-.1-18.2-.1-12.1 0-18.2.1l-18.2.3c-.5 0-.9.4-.9.9s.4.9.9.9c6 .1 12.1.3 18.2.3s12.1.1 18.2.1 12.1 0 18.2-.1c6.1 0 12.1-.2 18.2-.4.5 0 .9-.4.9-.9-.1-.3-.5-.7-.9-.7z" fill="#c3c4c7"/><path d="m147 94.1c-5.8 0-11.7-.1-17.5-.1s-11.7 0-17.5.1l-17.5.3c-.5 0-.9.4-.9.9s.4.9.9.9c5.8.1 11.7.3 17.5.3s11.7.1 17.5.1 11.7 0 17.5-.1 11.7-.2 17.5-.4c.5 0 .9-.4.9-.9s-.4-.9-.9-.9c-5.9-.1-11.7-.2-17.5-.2z" fill="#c3c4c7"/><path d="m94.3 84.4c5.8.1 11.7.3 17.5.3s11.7.1 17.5.1 11.7 0 17.5-.1c5.8 0 11.7-.2 17.5-.4.5 0 .9-.4.8-.9 0-.4-.4-.8-.8-.8-5.8-.2-11.7-.3-17.5-.4s-11.7-.1-17.5-.1-11.7 0-17.5.1l-17.5.3c-.5 0-.9.4-.8.9 0 .6.4 1 .8 1z" fill="#c3c4c7"/><path d="m94.3 65.1c5.7.1 11.3.3 17 .3s11.3.1 17 .1 11.3 0 17-.1c5.7 0 11.3-.2 17-.4.5 0 .9-.4.8-.9 0-.4-.4-.8-.8-.8-5.7-.2-11.3-.3-17-.4s-11.3-.1-17-.1-11.3 0-17 .1l-17 .3c-.5 0-.9.4-.8.9 0 .6.4 1 .8 1z" fill="#c3c4c7"/><path d="m94.3 120.8c5.8.1 11.7.3 17.5.3s11.7.1 17.5.1 11.7 0 17.5-.1 11.7-.2 17.5-.4c.5 0 .9-.4.8-.9 0-.4-.4-.8-.8-.8-5.8-.2-11.7-.3-17.5-.4s-11.7-.1-17.5-.1-11.7 0-17.5.1l-17.5.3c-.5 0-.9.4-.8.9 0 .6.4 1 .8 1z" fill="#c3c4c7"/><path d="m165.5 132.3c-5.9-.2-11.9-.3-17.8-.4s-11.9-.1-17.8-.1-11.9 0-17.8.1l-17.8.3c-.5 0-.9.4-.8.9 0 .4.4.8.8.8 5.9.1 11.9.3 17.8.3s11.9.1 17.8.1 11.9 0 17.8-.1 11.9-.2 17.8-.4c.5 0 .9-.4.8-.9 0-.3-.3-.6-.8-.6z" fill="#c3c4c7"/><path d="m302.3 134c-.4-4.8-1.2-9.6-2.4-14.3-1.2-4.5-2.9-9.1-5.7-12.7l-.2-.2c-.2-.2-.1-.5.1-.7.1 0 .1-.1.3-.1h.2c.3-1.2.7-2.3 1-3.6-.3.4-.6.9-.9 1.2-.1.1-.3.1-.3 0-.1-.1-.1-.1-.1-.3.4-1.7 1-3.3 1.5-4.9s.9-3.2 1.2-4.9c.2-1.1.3-2.2.4-3.4l-.4-.4.4-.3v-.7c.2-7.2-3.1-13.9-8.9-18.2-.7-.3-1.4-.6-2.1-.8.3.3.1.1.1.2v.2l-.1.2c-.1.1-.2.3-.3.4l-.7.7-.1.1-.9.6c-.3.2-.6.3-1 .5-1.3.6-2.7.9-4.2.9s-2.9-.3-4.2-.9c-.2-.1-.3-.2-.5-.3-.5-.2-.9-.5-1.3-.8s-.7-.6-1-.9c-.1-.2-.3-.4-.4-.6v-.2c-1.2.4-2.3 1-3.3 1.8-.9.7-1.8 1.6-2.5 2.5-2.3 2.7-3.9 5.8-4.9 9.2-.4 1.5-.7 2.9-.7 4.5 0 3.2 1.6 11.5 3.4 19.3-8.1 13.8-7.8 39.5-5.6 55.9h2.3v-.1c0-.2.2-.3.4-.4 1.6-.3 3.2-.2 4.9-.3h24.3c1.7 0 3.5 0 5.2.1 1.5.1 3 .2 4.5.4.1 0 .1.1.2.1h2.2v-.4c.3-4.7.6-9.4.7-14.1.1-4.6-.1-9.5-.6-14.3z" fill="#c3c4c7"/><path d="m274.7 64.2c.7.4 1.5.7 2.3.9h4c1.8-.4 3.4-1.5 4.4-3 0-.1.1-.1.1-.2.6-.9 1-2 1.3-3l.1-.3c.1-.7.3-1.5.3-2.2-1.4.1-2.9 0-4.3-.2v.7c0 .4-.3.7-.7.7s-.7-.3-.7-.7v-1c-2.3-.5-4.4-1.5-6.2-3.1-.4 0-.8 0-1.2.1-.4 0-.9.1-1.3.3-.1.1-.3 0-.4-.1v-.3c.4-.4 1-.7 1.6-.8h.4c-1-1.1-1.9-2.4-2.4-3.8v.1c-1.7 3.7-2.2 9.8.3 13.6.6.9 1.4 1.7 2.4 2.3zm5.8-2.4c-.1.3-.4.6-.7.7s-.6.2-1 .2c-.7 0-1.4-.3-1.8-.9-.1-.1 0-.3.1-.4h.3c.4.2.8.4 1.3.4.4 0 .9-.1 1.2-.4.1-.1.3-.1.4 0 .2.2.2.3.2.4zm-2.1-6.3c0-.1.1-.2.3-.2.1 0 .1.1.2.2.1.7.2 1.3.2 2s0 1.3-.1 2c0 .2-.2.3-.4.3-.1 0-.2-.1-.3-.3-.1-.7-.1-1.3-.1-2-.1-.6 0-1.3.2-2zm-4.3.2c0-.4.3-.7.7-.7s.7.3.7.7v1.1c0 .4-.3.7-.7.7s-.7-.3-.7-.7z" fill="#a7aaad"/><path d="m285.4 70.1c.1-.1.3-.1.4-.2l-.4-.1v-6.3c-.9 1-2 1.7-3.3 2.2-2.6 2.2-7.5 2.6-7.5 2.6v1c-.5.1-1.1.2-1.6.3.4.2.7.6 1.1.8.1.1.3.2.5.3.4.2.7.4 1.1.6 2.3.9 4.8.9 7.2.1.6-.2 1.1-.5 1.7-.8.3-.2.6-.3.8-.5z" fill="#a7aaad"/><path d="m244 63.6v.1c-.1.1-.2.3-.3.3-1 .3-2 .1-3.1.3-1 .1-2 .2-3.1.3-.8.1-1.6.3-2.5.4-1.2.2-2.5.4-3.7.7l-3.1.7c-.3.1-.4.1-.9.2h-.9c-.6 0-1.1-.1-1.6-.3-1-.2-2-.5-3.1-.9-.8-.3-1.8-.3-2.5.3-.1.1-.3.1-.3 0-.1-.1-.1-.1 0-.3v-.1c-1.2.5-.9.7-1.3 1.3.3-.3.6-.5 1-.7.6-.3 1.2-.3 1.9-.3 1.2 0 2.3.6 3.1 1.5.1.1.1.3 0 .4 0 0-.1.1-.2.1-1.2-.1-2.1-.4-3-.5-.5 0-1 0-1.5.2 1.7.8 3.4 1.7 5 2.7l-1.4.6c-1.2.6-2.6 1.5-1.9 2.2 1.2 1 4-.2 6.3-1.1.4-.1.9-.3 1.3-.4.3-.1.7-.1 1.1-.1h.6c2.2.1 6 .5 9.6.6h2.5c.9 0 3.8 2.1 6.8 3.9.3.2.6.4 1 .6l4.4-9.5c.2-.4.5-.8 1-1-2.1-1-4.4-1.7-6.7-2-1.6-.1-3.1-.2-4.5-.2z" fill="#a7aaad"/><path d="m290 163.9h-5.6c.6 3.9 1.7 7.7 3.4 11.3.4.9.7 1.9.9 2.9 2.2 11.3 4.6 13 6.1 19 0 0 3.1 2.3 5.2 2.1 1-.1 2.2-.6 2.2-1.2 0-.2.1-.3.3-.4l-7.1-34c-1.8.2-3.6.3-5.4.3z" fill="#a7aaad"/><path d="m279 163.9h-12.4c.7 7.2 2.3 25.8 2.1 34.7.1.1.1.2.1.3 0 .6 1.2 1 2.2 1.2 2.1.2 4.8-1.9 4.8-1.9.6-5.8 3.2-10.8 2.2-17.1-.4-2.9-.6-4.5 0-7.4.7-2.5 1.1-5.3 1-9.8z" fill="#a7aaad"/><path d="m312.5 93.3c-.1-4-2.1-5.4-5.2-8.4-.1.3-.3.6-.5.9l-6.8 7.2 1.3 1.4v.1c.3-.3.7-.6 1.1-.6.1 0 .2.1.2.1v.1c-.1.4-.3.7-.6 1s-.5.6-.7.9-.4.6-.6 1l-.3.5c-.1.1-.1.4-.4.4-.1 0-.3 0-.4-.1-1.2 2.6-2.7 6.3-2.9 10v.1c1 1.3 1.7 2.9 2.4 4.3.5 1.1 1 2.3 1.3 3.5.3.8.6 1.7.8 2.5l.1.2c3.1-.6 2.3-9.8 2.3-9.8s9-10.9 8.9-15.3z" fill="#a7aaad"/><path d="m274.8 57.6c.4 0 .7-.3.7-.7v-1.1c0-.4-.3-.7-.7-.7s-.7.3-.7.7v1.1c0 .3.3.7.7.7z" fill="#004e6e"/><path d="m261.1 83.3c1-3.4 2.6-6.5 4.9-9.2.7-.9 1.6-1.7 2.5-2.5-.8-.5-1.6-1-2.5-1.5-3.2-1.7-6.7-3.1-9.3-4.3-1-.4-2.3 0-2.7 1.1l-4.4 9.5-.3.7z" fill="#004e6e"/><path d="m271.1 200c-1-.1-2.2-.6-2.2-1.2 0-.1 0-.2-.1-.3-.1-.2-.4-.2-.6 0-2.2 2.1-4.5 4.1-6.9 5.9-1.6 1.3-2.5 2.1-2.2 2.6 0 0 0 .1.1.1.7 1 3.5.6 6.5-.2 2.4-.6 4.8-1.5 7.2-2.5.6-.3 1.1-.5 1.5-.7.1-.1.2-.1.3-.2.5-.3 1-.7 1.3-1.3.7-1 .7-2.4 0-4.4-.1.2-2.8 2.4-4.9 2.2z" fill="#004e6e"/><path d="m311.4 205.1c-1.3-1.3-4.5-3.4-8.4-7.3-.2-.2-.4-.1-.6 0-.1.1-.1.2-.1.3 0 .6-1.2 1-2.2 1.2-2.1.2-5.2-2.1-5.2-2.1-.7 2.1-.7 3.5.1 4.6.3.5.8.9 1.3 1.3.1 0 .2.1.3.2 1.4.7 2.8 1.3 4.2 1.8 1.8.6 3.6 1.2 5.4 1.6 2.7.6 5.1.8 5.8 0v-.1c.3-.5 0-.9-.6-1.5z" fill="#004e6e"/><path d="m297.4 89.5v.7c0 .4 0 .8-.1 1.2l.3.2 1.2.9 1 .8.3-.3 6.9-7.3c.3-.3.4-.6.5-.9.2-.7 0-1.4-.5-1.9-3.8-3.7-13.6-13-18.3-12.5l.1.1c5.7 4.3 9 11.1 8.8 18.2-.1.4-.2.6-.2.8z" fill="#004e6e"/><path d="m270.6 60.5c.3.6.6 1.3.9 1.8.8 1.2 1.9 2.2 3.2 2.9 1.3.6 2.8 1 4.2.9 1.1 0 2.2-.1 3.2-.5 1.3-.4 2.4-1.2 3.3-2.2.1-.2.3-.4.5-.6.6.6 2.2 1.5 4.9 0 3.6-2.1 2.3-7 2.3-7s2.3-1.6 1.7-5.6c-.6-3.4-4.3-4.6-4.3-4.6s.6-2.6-2.7-5.4c-3.8-3.2-8.5-.4-8.5-.4s-2.7-2.2-7.8-.6c-6.3 2-4.5 8.1-4.5 8.1-.3.1-.6.3-.9.6-3.8 2.7-3.6 8.6 0 11.5 1.3 1.1 3 1.7 4.7 1.7-.1.1-.1-.2-.2-.6zm.6-12.9-.1.1c0 .1.1 0 .1-.1zm14.2 14.4c-1 1.5-2.6 2.6-4.4 3-1.3.3-2.7.3-4 0-.8-.1-1.6-.4-2.3-.9-1-.6-1.8-1.4-2.4-2.3-2.5-3.8-2-9.9-.3-13.6.6 1.4 1.4 2.6 2.4 3.7h-.4c-.6.1-1.2.4-1.6.8-.1.1-.1.3.1.4.1.1.2.1.3 0 .4-.2.8-.3 1.3-.3.4-.1.8-.1 1.2-.1 1.8 1.5 3.9 2.6 6.2 3.1v-.1c0-.1 0-.2.1-.3v1.4c0 .4.3.7.7.7s.7-.3.7-.7v-.8c1.4.2 2.8.3 4.2.2 0 .7-.1 1.4-.3 2.1 0 .1-.1.2-.1.3-.3 1.1-.7 2.1-1.3 3 0 .3 0 .4-.1.4z" fill="#004e6e"/><path d="m278.6 59.8c.2 0 .4-.1.4-.3.1-.7.1-1.3.1-2s-.1-1.3-.2-2c0-.1-.1-.2-.3-.2-.1 0-.1.1-.2.2-.1.7-.2 1.3-.2 2s0 1.3.1 2c0 .2.1.3.3.3z" fill="#004e6e"/><path d="m277.5 61.5c-.1-.1-.3-.1-.4.1-.1.1-.1.2 0 .3.4.6 1 1 1.8.9.3 0 .7-.1 1-.2s.6-.4.7-.7c.1-.1 0-.3-.1-.4s-.3 0-.4 0c-.3.3-.7.4-1.2.4-.6.1-1-.1-1.4-.4z" fill="#004e6e"/><path d="m223.5 67.4c-.8-.9-1.9-1.5-3.1-1.5-.6-.1-1.3 0-1.9.3-.4.1-.7.4-1 .7-.2.1-.3.3-.4.5s-.1.5.1.7c.1.1.4.1.6 0 .3-.2.7-.4 1-.5.5-.1 1-.2 1.5-.2.9.1 1.8.4 3 .5.1 0 .1 0 .2-.1s.1-.3 0-.4z" fill="#004e6e"/><path d="m243.7 63.1c-1.1-.4-2.2-.3-3.2-.3-1.1 0-2.1.1-3.2.3-1.3.1-2.5.3-3.7.6-.9.1-1.7.3-2.6.5-1 .2-2.1.4-3.1.7-.2.1-.6.1-.7.1h-.7c-.5 0-1-.1-1.5-.2-1-.2-2-.4-3.1-.7-.6-.1-1.2 0-1.8.1-.6.2-1 .6-1.3 1.1v.1c0 .1 0 .3.1.3h.3c.6-.6 1.7-.6 2.5-.3 1 .4 2 .6 3.1.9.6.1 1.1.2 1.6.3h.9c.4-.1.6-.1.9-.2l3.1-.7c1.2-.3 2.5-.5 3.7-.7.8-.1 1.6-.3 2.5-.4 1-.1 2-.3 3.1-.3 1-.1 2 0 3.1-.3.1 0 .3-.1.3-.3v-.1c0-.2-.1-.4-.3-.5z" fill="#004e6e"/><path d="m274.6 203.7c-.1 0-.2.1-.3.2 0 .2 0 .4-.1.7 0 .6-.1 1.2 0 1.9 0 .3.3.5.5.4.2 0 .4-.1.4-.3.2-.6.4-1.3.5-2 .1-.3.1-.6.1-1 .1-.4.1-.8.1-1.2-.3.6-.7 1-1.2 1.3z" fill="#004e6e"/><path d="m296.3 203c-.5-.3-1-.7-1.3-1.3 0 .4.1.8.1 1.2.1.6.2 1.3.4 1.9.1.3.2.7.3 1s.4.4.6.3.3-.2.3-.4v-.9c0-.6 0-1.1-.1-1.7-.1 0-.2 0-.3-.1z" fill="#004e6e"/><path d="m286.5 69.8-.2-.2h-.2l-.2.1h-.1c-.1.1-.2.1-.3.2-.3.1-.6.3-.8.4-.6.3-1.1.6-1.7.8-2.3.9-4.9.8-7.2-.1-.4-.2-.7-.4-1.1-.6-.2-.1-.3-.2-.5-.3-.4-.2-.7-.6-1.1-.8-.1-.1-.3-.2-.5-.2-.3-.1-.6.1-.7.4v.3c.1.2.2.4.4.6.3.3.7.6 1 .9.4.3.9.6 1.3.8.1.1.3.2.5.3 1.3.6 2.7.9 4.2.9s2.9-.3 4.2-.9c.3-.1.6-.3 1-.5l.9-.6.1-.1.7-.7c.1-.1.2-.3.3-.4l.1-.2v-.2c0 .2.3.5-.1.1z" fill="#004e6e"/><path d="m294.2 103.4c0 .1 0 .3.2.3.1 0 .2 0 .3-.1.3-.4.7-.8.9-1.2.7-1.1 1.2-2.2 1.6-3.4.6-1.7 1.1-3.4 1.4-5.1.1-.4.1-.9.2-1.3l-1.2-.9-.3-.2c0-.4 0-.8.1-1.2-.1 1.1-.3 2.3-.4 3.4-.3 1.7-.7 3.3-1.2 4.9-.6 1.5-1.2 3.1-1.6 4.8z" fill="#004e6e"/><path d="m299.8 162.9c-1.5-.2-3-.3-4.5-.4-1.7-.1-3.5-.1-5.2-.1h-24.3c-1.6 0-3.2-.1-4.9.3-.2 0-.3.2-.4.4v.1c0 .2.1.4.4.5 1.6.3 3.2.2 4.9.3h24.4c1.8 0 3.6 0 5.4-.1 1.4-.1 2.9-.2 4.3-.4.1 0 .2-.1.2-.2v-.1c-.2-.3-.3-.3-.3-.3z" fill="#004e6e"/><path d="m299.5 97.9c.1.1.3.2.4.1h.1c.3-.1.3-.3.4-.4l.3-.5c.2-.3.4-.6.6-1 .2-.3.4-.6.7-.9s.5-.7.6-1v-.1c0-.1-.1-.2-.2-.1-.4.1-.8.3-1.1.6s-.6.6-.8 1c-.3.3-.5.7-.7 1.1l-.3.6c-.1.2-.2.4-.1.6 0-.1.1-.1.1 0z" fill="#004e6e"/><path d="m303.9 133.8c-.4-4.9-1.3-9.8-2.5-14.5-.1-.3-.2-.7-.3-1-.2-.9-.5-1.7-.8-2.5-.4-1.2-.8-2.3-1.3-3.5-.7-1.5-1.4-3-2.4-4.3-.5-.7-1.2-1.3-1.9-1.9h-.1-.2c-.1 0-.2 0-.3.1-.2.2-.2.5-.1.7l.2.2c2.8 3.6 4.5 8.1 5.7 12.7 1.2 4.7 2 9.5 2.4 14.3.5 4.8.7 9.7.6 14.5-.1 4.7-.4 9.4-.7 14.1v.5c0 .1.1.2.2.3s.3 0 .3-.2c1-4.8 1.6-9.7 1.8-14.6 0-5.1-.1-10-.6-14.9z" fill="#004e6e"/></g></svg>
