<svg height="142" viewBox="0 0 167 142" width="167" xmlns="http://www.w3.org/2000/svg" xmlns:xlink="http://www.w3.org/1999/xlink"><mask id="a" fill="#fff"><path d="m0 142h166.061v-141.708h-166.061z" fill="#fff" fill-rule="evenodd"/></mask><g fill="none" fill-rule="evenodd" transform="translate(0 -1)"><path d="m20.7236 122.8433v-99.676h137.586v99.676h-102.999z" fill="#f6f7f7"/><g transform="translate(0 .708)"><path d="m20.6767 22.459v-7.788-5.183c0-4.527 3.669-8.196 8.195-8.196h121.242c4.526 0 8.196 3.669 8.196 8.196v12.971z" fill="#fff"/><path d="m23.1767 22.459h-2.5v-2.5" stroke="#dcdcde" stroke-linecap="round" stroke-linejoin="round" stroke-width="2"/><path d="m20.6767 14.8707v-.199-5.184c0-4.526 3.669-8.195 8.195-8.195h121.242c4.526 0 8.196 3.669 8.196 8.195v7.927" stroke="#dcdcde" stroke-dasharray="5.088 5.088" stroke-linecap="round" stroke-linejoin="round" stroke-width="2"/><path d="m158.3095 19.959v2.5h-2.5" stroke="#dcdcde" stroke-linecap="round" stroke-linejoin="round" stroke-width="2"/><path d="m150.8969 22.459h-125.264" stroke="#dcdcde" stroke-dasharray="4.912 4.912" stroke-linecap="round" stroke-linejoin="round" stroke-width="2"/><path d="m93.2587 116.9356s-.713 15.438-3.03 24.886l-13.65.178s-1.095-.697.356-1.426c1.523-.764 5.605-1.583 6.061-2.495.891-1.783.535-20.143.535-20.143" fill="#a7aaad"/><path d="m98.5673 117.4019s.713 14.438 3.03 23.885l11.944.179s1.094-.697-.357-1.426c-1.522-.765-5.604-1.583-6.061-2.496-.891-1.783 1.741-21.143 1.741-21.143" fill="#a7aaad"/><path d="m34.412 108.623h58.847v-47.374h-58.847z" fill="#fff" mask="url(#a)"/><path d="m148.8354 108.6226h-27.835v-28.809c0-10.683 8.66-19.343 19.343-19.343h8.492z" fill="#fff" mask="url(#a)"/><path d="m85.6864 79.4063c-1.89.013-3.478 1.429-3.708 3.305-1.817 14.822-.396 30.633-.23 33.62.178 3.208 12.045.716 12.045.716l2.674-.357c2.139 1.425 14.075-.357 14.075-.357l-.892-15.69-.712-8.2-1.07-13.193z" fill="#fff" mask="url(#a)"/><path d="m116.2826 36.2017s4.536-8.027 5.72-7.754c1.184.274.067 4.345.067 4.345s1.867-.398 3.284-2.985c1.416-2.586 5.416.747 0 5.842-5.667 2.905-7.429 4.488-7.429 4.488" fill="#a7aaad" mask="url(#a)"/><path d="m97.8534 41.2213v6.583l-6.25-.333-.003-4.388s-5.197-1.505-4.306-7.684c.892-6.178 7.476-2.511 7.476-2.511" fill="#a7aaad" mask="url(#a)"/><path d="m69.1869 50.8878-3.035-2.769 2.576-6.511 2.222-.387.518 6.667z" fill="#a7aaad" mask="url(#a)"/><path d="m71.4672 46.7637c.044-3.075-1.471-5.749-2.407-5.615-.935.134.446 3.03-.757 3.431-1.872.624-1.164-4.784-1.783-5.036-1.426-.579-5.214 6.15.669 9.225" mask="url(#a)" stroke="#004e6e" stroke-linecap="round" stroke-linejoin="round"/><path d="m79.3998 29.8077c0 8.016-6.498 14.514-14.514 14.514-8.015 0-14.513-6.498-14.513-14.514s6.498-14.514 14.513-14.514c8.016 0 14.514 6.498 14.514 14.514" fill="#dcdcde" mask="url(#a)"/><path d="m107.868 32.36h58.193v-21.486h-58.193z" fill="#3895ba" mask="url(#a)"/><path d="m100.4892 36.7696c.041-.825-.913-3.346-1.709-5.537-.894-2.457-3.761-3.321-6.577-2.651-3.943.938-5.525 5.525-4.693 9.492.51 2.433 1.182 4.543 4.09 5.009l.322 2.745" mask="url(#a)" stroke="#004e6e" stroke-linecap="round" stroke-linejoin="round"/><g mask="url(#a)"><g transform="translate(64 39)"><path d="m4.3031 5.5797c-1.872.624-1.164-4.784-1.783-5.036-1.426-.579-5.214 6.15.669 9.225" fill="#a7aaad" fill-rule="evenodd"/><path d="m4.3031 5.5797c-1.872.624-1.164-4.784-1.783-5.036-1.426-.579-5.214 6.15.669 9.225" fill="none" stroke="#004e6e" stroke-linecap="round" stroke-linejoin="round"/></g></g><path d="m88.8154 46.7296c2.317-.98 12.012-.323 13.705.301 3.313 1.221 4.116 2.689 4.199 6.203l.614 25.816-22.096.379-.936-26.782c.108-3.779 1.018-4.438 4.514-5.917" fill="#c3c4c7" mask="url(#a)"/><path d="m89.3373 60.3555s-4.279 4.631-10.874 4.987c-6.596.357-10.874-15.33-10.874-15.33l4.991-3.565 5.582 8.725s2.881-3.116 7.476-6.709" fill="#c3c4c7" mask="url(#a)"/><path d="m99.8095 47.1646c5.169 1.783 14.84-7.308 17.692-13.012l4.813 4.99s-10.874 19.608-21.034 18.539" fill="#c3c4c7" mask="url(#a)"/><g stroke-linecap="round" stroke-linejoin="round"><path d="m82.2489 83.9898c-2.496 15.684-.679 29.133-.501 32.341.178 3.209 12.045.716 12.045.716" mask="url(#a)" stroke="#3895ba"/><path d="m95.6445 95.9991s-.66 19.702.823 20.691c2.139 1.426 14.075-.357 14.075-.357l-.892-15.689" mask="url(#a)" stroke="#3895ba"/><path d="m107.8681 79.2505 1.071 13.193" mask="url(#a)" stroke="#3895ba"/><path d="m104.269 95.1763 5.526-.594" mask="url(#a)" stroke="#3895ba"/><path d="m105.1322 95.4737c-.091 1.56 1.46 2.821 3.268 2.658l1.049-.283" mask="url(#a)" stroke="#3895ba"/><path d="m84.2221 79.4839 23.646-.233" mask="url(#a)" stroke="#004e6e"/></g><g mask="url(#a)"><g transform="translate(117 28)"><path d="m.9247 6.6646c1.159-1.025 3.275-7.153 4.078-6.217.802.936.067 4.345.067 4.345s1.537-.334 2.206-1.27" fill="#a7aaad" fill-rule="evenodd"/><path d="m.9247 6.6646c1.159-1.025 3.275-7.153 4.078-6.217.802.936.067 4.345.067 4.345s1.537-.334 2.206-1.27" fill="none" stroke="#004e6e" stroke-linecap="round" stroke-linejoin="round"/></g></g><path d="m120.9999 37.8731c.802 0 4.879-2.273 6.818-5.949" mask="url(#a)" stroke="#004e6e" stroke-linecap="round" stroke-linejoin="round"/><path d="m80.5551 65.1133 4.323-1.941" mask="url(#a)" stroke="#004e6e" stroke-linecap="round" stroke-linejoin="round"/><path d="m87.5546 31.9683c-.802 2.451 2.406 2.05 2.406 2.05l-.478 4.534c.023 1.063.591 2.048 1.517 2.57 1.352.761 3.398 2.009 6.002 1.408 5.215-1.204 5.111-13.056 1.303-14.484-4.278-1.604-8.696-2.354-10.75 3.922" fill="#004e6e" mask="url(#a)"/><path d="m90.6293 37.004-4.813-1.604" mask="url(#a)" stroke="#004e6e" stroke-linecap="round" stroke-linejoin="round"/><path d="m87.1532 33.7955c-.267-.446-1.516.055-1.693 1.471-.179 1.425.356 3.03 1.693 2.138" mask="url(#a)" stroke="#004e6e" stroke-linecap="round" stroke-linejoin="round"/><path d="m91.5624 25.9337c-4.555 1.984 1.276 13.983 8.595 10.971 7.318-3.012-1.184-14.199-8.595-10.971" fill="#c3c4c7" mask="url(#a)"/><path d="m13.0072 85.8721v11.616c0 1.663 1.348 3.011 3.012 3.011h14.434" fill="#fff" mask="url(#a)"/><path d="m13.1073 85.8721c.275 2.565.333 5.13.402 7.695l.035 3.847c-.031 1.096.716 2.073 1.711 2.396.248.082.505.125.77.132l.962.009 1.924.018 3.847.042c2.565.05 5.13.111 7.695.288.11.008.194.104.186.214-.007.101-.088.18-.186.186-2.565.178-5.13.238-7.695.289l-3.847.042-1.924.017-.962.009c-.377-.001-.759-.057-1.122-.171-1.47-.454-2.505-1.973-2.434-3.471l.035-3.847c.069-2.565.127-5.13.403-7.695.006-.055.055-.095.111-.089.047.005.084.043.089.089" fill="#f6f7f7" mask="url(#a)"/><path d="m24.8022 85.8721v11.616c0 1.663 1.349 3.011 3.012 3.011" fill="#fff" mask="url(#a)"/><path d="m24.9023 85.8721c.262 1.362.356 2.725.404 4.086.042 1.363.071 2.725.062 4.087l-.035 2.043c.003.662-.062 1.421.016 1.935.185 1.138 1.187 2.105 2.465 2.276.11.013.189.114.176.224-.011.093-.088.164-.176.176-.727.087-1.51-.11-2.136-.563-.634-.443-1.087-1.141-1.284-1.907-.17-.829-.081-1.445-.122-2.141l-.036-2.043c-.008-1.362.02-2.724.062-4.087.048-1.361.142-2.724.404-4.086.011-.055.064-.091.119-.081.042.009.073.041.081.081" fill="#f6f7f7" mask="url(#a)"/><path d="m4.8144 94.9439h27.226l-.899-20.972h-25.291c-1.064 0-1.921.871-1.903 1.934l.313 19.038" fill="#fff" mask="url(#a)"/><path d="m4.8144 94.8438c4.538-.144 9.075-.237 13.613-.306 4.537-.039 9.075-.108 13.613-.106l-.512.534-.951-20.97.564.54-23.676-.082-1.48-.013c-.439-.022-.771.088-1.075.333-.29.24-.48.596-.517.974-.013.403.003.961.003 1.435l.042 5.919c.043 3.946.039 7.892.022 11.839 0 .111-.09.199-.201.199-.108-.001-.195-.086-.199-.192-.147-3.945-.281-7.889-.368-11.834l-.152-5.917c-.007-.513-.037-.942-.026-1.524.045-.608.342-1.193.805-1.591.445-.407 1.12-.606 1.666-.579l1.48-.013 23.676-.083c.303 0 .551.24.564.541l.847 20.974c.012.283-.208.522-.49.534h-.022c-4.538.002-9.076-.067-13.613-.106-4.538-.069-9.075-.162-13.613-.306-.055-.002-.099-.048-.097-.103.002-.053.045-.095.097-.097" fill="#c3c4c7" mask="url(#a)"/><path d="m7.8866 94.9439h24.086c1.712 0 3.079-1.427 3.005-3.137l-.654-15.263c-.062-1.438-1.246-2.572-2.685-2.572h-24.651l.345 17.314" fill="#fff" mask="url(#a)"/><path d="m7.8866 94.8438c6.081-.204 12.162-.312 18.243-.362l4.561-.041 1.14-.004c.364 0 .647-.035.955-.141.597-.203 1.109-.648 1.395-1.209.312-.585.298-1.15.243-1.963l-.105-2.278-.209-4.556-.21-4.556-.105-2.278c-.021-.356-.027-.812-.056-1.086-.038-.297-.145-.584-.304-.838-.316-.512-.858-.881-1.454-.973-.265-.048-.669-.027-1.049-.034l-1.14-.003-4.561-.014c-6.081-.019-12.162-.027-18.243-.103l.433-.442.088 8.659c.043 2.886.017 5.773.024 8.66 0 .11-.089.2-.2.2-.108.001-.196-.085-.2-.192-.108-2.885-.249-5.769-.321-8.654l-.257-8.655c-.007-.237.179-.435.416-.442h.005.012c6.081-.077 12.162-.084 18.243-.103l4.561-.014 1.14-.004c.378.008.74-.029 1.227.041.912.136 1.743.692 2.231 1.471.247.389.412.831.474 1.287.052.482.043.788.065 1.19l.09 2.279.181 4.557.182 4.558.09 2.278c.009.379.051.743.009 1.214-.045.443-.176.879-.383 1.273-.411.792-1.134 1.411-1.979 1.695-.411.147-.893.196-1.288.19l-1.14-.003-4.561-.042c-6.081-.05-12.162-.158-18.243-.362-.055-.002-.099-.048-.097-.103.002-.053.045-.095.097-.097" fill="#c3c4c7" mask="url(#a)"/><path d="m9.3271 93.0167h22.368c.35 0 .675-.139.917-.391.242-.253.367-.584.352-.934l-.637-14.877c-.022-.513-.442-.916-.957-.916h-22.333l.303 15.181" fill="#8e9196" mask="url(#a)"/><path d="m33.1156 101.0684-.58-10.232c-.027-.471.431-.866 1.005-.866h5.319c.538 0 .98.348 1.006.789l.583 10.309" fill="#fff" mask="url(#a)"/><path d="m33.0155 101.0738c-.411-2.378-.604-4.77-.809-7.16l-.119-1.795-.06-.897-.015-.225c-.003-.068-.014-.141-.007-.297.021-.267.131-.521.288-.708.315-.38.763-.548 1.192-.565l.916-.011 1.799-.01 1.798.017.916.011c.428.017.872.185 1.187.563.155.187.267.438.286.703l.023.462.042.899.077 1.797c.085 2.397.161 4.795.119 7.199-.002.111-.093.199-.203.197-.101-.001-.183-.077-.196-.174-.313-2.384-.508-4.776-.695-7.167l-.126-1.795-.06-.897-.03-.436c-.004-.034-.018-.07-.055-.113-.072-.086-.233-.161-.402-.161l-.883.008-1.798.018-1.799-.01-.882-.008c-.167 0-.327.073-.397.158-.038.042-.046.077-.054.108-.001-.005-.001.071.005.152l.01.225.042.898.084 1.797c.068 2.398.145 4.796.006 7.206-.003.055-.051.098-.106.094-.048-.002-.086-.038-.094-.083" fill="#c3c4c7" mask="url(#a)"/><path d="m38.5834 98.2794-.375-6.603h-3.917l.374 6.594z" fill="#f6f7f7" mask="url(#a)"/><path d="m.566 108.897h57.978v-8.149h-57.978z" fill="#fff" mask="url(#a)"/><path d="m58.4037 108.8248-.001-.07-.147-8.007.288.288-28.989.216-28.989.062.566-.566-.01 8.148-.556-.555 28.806.113 14.48.151zm.283.141-.072.001-14.367.221-14.51.151-29.172.113c-.306.001-.555-.246-.556-.551v-.005l-.01-8.148c0-.312.252-.565.564-.566h.002l28.989.062 28.989.216h.007c.157.001.283.129.281.285v.003z" fill="#c3c4c7" mask="url(#a)"/><path d="m.5658 105.8941v35.572" fill="#fff" mask="url(#a)"/><path d="m.6655 105.8941c.276 2.964.334 5.928.403 8.893l.063 8.893c-.06 5.928-.026 11.857-.366 17.786-.006.11-.101.195-.211.188-.103-.006-.183-.088-.189-.188-.34-5.929-.305-11.858-.366-17.786l.064-8.893c.069-2.965.127-5.929.402-8.893.005-.055.054-.096.11-.091.048.005.086.044.09.091" fill="#c3c4c7" mask="url(#a)"/><path d="m26.8075 104.8218h5.4" fill="#fff" mask="url(#a)"/><path d="m26.8075 104.7217c.45-.264.9-.357 1.35-.403.45-.043.9-.07 1.35-.064.45.012.9.039 1.35.076.45.045.9.118 1.35.291.11.043.165.167.123.277-.023.059-.069.102-.123.123-.45.174-.9.246-1.35.291-.45.037-.9.065-1.35.076-.45.007-.9-.021-1.35-.063-.45-.047-.9-.14-1.35-.404-.055-.032-.074-.103-.042-.158.011-.018.025-.032.042-.042" fill="#f6f7f7" mask="url(#a)"/><path d="m58.5439 108.8965v32.569" fill="#fff" mask="url(#a)"/><path d="m58.644 108.8965c.275 2.714.333 5.428.402 8.142l.063 8.143c-.06 5.428-.026 10.856-.365 16.284-.007.111-.102.195-.213.188-.102-.007-.181-.089-.187-.188-.34-5.428-.305-10.856-.366-16.284l.063-8.143c.069-2.714.127-5.428.403-8.142.006-.056.055-.096.11-.09.048.005.085.043.09.09" fill="#c3c4c7" mask="url(#a)"/><path d="m83.5307 117.9356c.065 5.788 1.3 14.786.187 18.452" mask="url(#a)" stroke="#004e6e" stroke-linecap="round" stroke-linejoin="round"/><path d="m98.5673 117.4019c1.242 11.943 3.03 23.885 3.03 23.885" mask="url(#a)" stroke="#004e6e" stroke-linecap="round" stroke-linejoin="round"/></g></g></svg>
