<svg xmlns="http://www.w3.org/2000/svg" viewBox="0 0 226 179"><defs><style>.cls-1{fill:none;}.cls-2{fill:#7C848B;}.cls-3{fill:#204A69;}.cls-4{fill:#BBC9D5;}.cls-5{fill:#CCCED0;}.cls-6{fill:#6F93AD;}.cls-7{fill:#0087be;}.cls-8{fill:#204A69;}.cls-9{fill:#fff;}.cls-10{fill:#7fd0ee;}.cls-11{fill:#F6F6F6;}</style></defs><title>mobile-app</title><g id="Layer_15" data-name="Layer 15"><path class="cls-1" d="M130.74,48.62a32.08,32.08,0,0,1,.52-4.39,1,1,0,0,1-.88-.46,1.28,1.28,0,0,0-.93.15,5,5,0,0,0-2.55,3.5.84.84,0,0,1,.35,0Z"/><path class="cls-1" d="M126.69,49.38c-.07,2.39.54,4.48,1.57,5.11.59.37,1.41.22,2.42-.46a.9.9,0,0,1,.21-.08c-.11-1.08-.18-2.15-.19-3.23Z"/><path class="cls-2" d="M165.25,83.07V70.55a11.85,11.85,0,0,1-2.3.82c-8.39,1.93-15-2.09-19.33-4.54a9.7,9.7,0,0,1-4.88-8.27l.52-5-6.55-2.18a32.62,32.62,0,0,0,.65,5.42c1.59,7.57,3.61,14,12.35,15.35a1,1,0,0,1,.83.84l1,6.84a1,1,0,0,1-.84,1.13l-.15,0a1,1,0,0,1-.25,0l.21,2.07A102.58,102.58,0,0,1,165.25,83.07Z"/><path class="cls-2" d="M139.48,51.54l.8-7.58s-4.31.54-6.67-1.21a30.86,30.86,0,0,0-.9,6.53Z"/><path class="cls-3" d="M175.16,52.27a20,20,0,0,1-1.91.92l-.14.06a19.23,19.23,0,0,1-12.57.89C152,51.83,145.12,43.84,142,35.86A28.52,28.52,0,0,1,140.62,31a21.25,21.25,0,0,1-.31-2.29,15.92,15.92,0,0,1,.17-4.06c-3.2,2.52-5.93,6.57-7.95,12.74a6.29,6.29,0,0,0-.34,3.14c-.18.58-.36,1.16-.51,1.75a2.48,2.48,0,0,0-2.19-.44c-2,.41-4.25,2.48-4.7,6-.39,3.17.2,7,2.42,8.35a3.3,3.3,0,0,0,1.75.49,4.66,4.66,0,0,0,2.22-.64c.07.39.14.78.23,1.17C133,65,135.3,72.17,144.67,74l.93,6.13a1,1,0,0,0,.74.8,1,1,0,0,0,.25,0l.15,0a1,1,0,0,0,.84-1.13l-1-6.84a1,1,0,0,0-.83-.84C137,70.76,135,64.38,133.36,56.81a32.62,32.62,0,0,1-.65-5.42l6.55,2.18-.52,5a9.7,9.7,0,0,0,4.88,8.27C148,69.28,154.56,73.3,163,71.37a11.85,11.85,0,0,0,2.3-.82c6-2.76,9.31-10.31,10.37-18.55C175.47,52.09,175.32,52.19,175.16,52.27ZM130.68,54c-1,.68-1.83.83-2.42.46-1-.63-1.64-2.72-1.57-5.11l4,1.34c0,1.08.08,2.15.19,3.23A.9.9,0,0,0,130.68,54Zm.06-5.41-3.49-1.16a.84.84,0,0,0-.35,0,5,5,0,0,1,2.55-3.5,1.28,1.28,0,0,1,.93-.15,1,1,0,0,0,.88.46A32.08,32.08,0,0,0,130.74,48.62Zm8.74,2.92-6.77-2.26a30.86,30.86,0,0,1,.9-6.53C136,44.5,140.28,44,140.28,44Z"/><path class="cls-4" d="M145.43,17.93a8.5,8.5,0,0,0-5,6.69,15.92,15.92,0,0,0-.17,4.06,21.25,21.25,0,0,0,.31,2.29A28.52,28.52,0,0,0,142,35.86c3.09,8,9.93,16,18.51,18.28a19.23,19.23,0,0,0,12.57-.89l.14-.06a20,20,0,0,0,1.91-.92c.16-.08.31-.18.46-.27C194.54,40.82,168.37,7.94,145.43,17.93Z"/><path class="cls-4" d="M173.11,53.25c23.56-9.69-3.82-45.71-27.68-35.32C130.77,24.32,149.54,63,173.11,53.25Z"/></g><g id="Layer_20" data-name="Layer 20"><path class="cls-5" d="M51.6,51.91l0-.35a2.07,2.07,0,0,0-1-.88,5.39,5.39,0,0,0-.89-.1,13.07,13.07,0,0,0-1.77,0,11.47,11.47,0,0,0-1.73.33,4.51,4.51,0,0,0-.86.27,2.09,2.09,0,0,0-.78,1.06l0,.35,0,.35a1.93,1.93,0,0,0,1,.87,4.51,4.51,0,0,0,.89.11,14.89,14.89,0,0,0,1.77,0A13.32,13.32,0,0,0,50,53.59a4,4,0,0,0,.85-.28,2,2,0,0,0,.79-1.05Z"/><path class="cls-6" d="M58.75,30.19l-2.81.4L54.79,28a.46.46,0,0,0-.88.1l-.51,2.78-2.6.25a.46.46,0,0,0-.18.87L53,33.29,52.46,36a.46.46,0,0,0,.77.42l2-1.83,2.27,1.26a.46.46,0,0,0,.64-.61L57,32.93,59.12,31A.46.46,0,0,0,58.75,30.19Z"/><path class="cls-5" d="M70.64,37.59a2.46,2.46,0,1,0-1-3.36A2.46,2.46,0,0,0,70.64,37.59Z"/><path class="cls-6" d="M89.33,32c-.21,0-.43-.06-.64-.09,0-.21,0-.43,0-.65a1.75,1.75,0,0,0-.47-1.47h-.36a1.74,1.74,0,0,0-.67,1.39c0,.21,0,.43-.08.64-.22,0-.43,0-.65,0a1.68,1.68,0,0,0-1.47.47l0,.17v.18a1.72,1.72,0,0,0,1.39.67l.65.09c0,.21,0,.43,0,.65a1.75,1.75,0,0,0,.47,1.47l.35,0a1.72,1.72,0,0,0,.68-1.39c0-.21,0-.43.08-.64h.65A1.69,1.69,0,0,0,90.7,33l0-.35A1.73,1.73,0,0,0,89.33,32Z"/><path class="cls-7" d="M53.88,43a13.24,13.24,0,0,0-3.38,0,4.89,4.89,0,0,1-2.69-.49,4.48,4.48,0,0,1-1.64-2.1,9.83,9.83,0,0,0-2-2.86,10.41,10.41,0,0,0-2.94-1.84A10.57,10.57,0,0,0,38,34.8a6,6,0,0,0-3.33.55l.09.34a11.79,11.79,0,0,1,3,.34,15.33,15.33,0,0,1,2.86,1,9.24,9.24,0,0,1,2.44,1.64,9,9,0,0,1,1.58,2.47,9.1,9.1,0,0,0,.87,1.51A4.26,4.26,0,0,0,47,43.92a6.1,6.1,0,0,0,3.56.59,14.09,14.09,0,0,1,3-.17,5,5,0,0,1,2.53,1.23l.29-.2a3.45,3.45,0,0,0-.92-1.49A3.58,3.58,0,0,0,53.88,43Z"/><path class="cls-6" d="M65,24.35,64.67,26a.28.28,0,0,0,.47.26l1.23-1.11,1.43.81a.28.28,0,0,0,.39-.37l-.7-1.44L68.78,23a.28.28,0,0,0-.23-.49l-1.72.23-.69-1.6a.29.29,0,0,0-.54.06l-.33,1.73L63.72,23a.29.29,0,0,0-.12.53Z"/><path class="cls-5" d="M79.7,24.5a11,11,0,0,1-1,1.89l.21.29a4,4,0,0,0,1.86-1.59,6.9,6.9,0,0,0,1-2.25A7.64,7.64,0,0,0,82,20.33a7.31,7.31,0,0,0-.78-2.39,3.05,3.05,0,0,1-.46-1.68,3.29,3.29,0,0,1,.81-1.6,9.76,9.76,0,0,0,1.44-2,2.55,2.55,0,0,0,.18-1.39,2.34,2.34,0,0,0-.54-1.18l-.34.12a3.67,3.67,0,0,1-.53,1.83,9.62,9.62,0,0,1-1.37,1.57A4.51,4.51,0,0,0,79.14,16a3.19,3.19,0,0,0,.1,1.48,6.75,6.75,0,0,0,.49,1.17,6,6,0,0,1,.69,1.87,5.84,5.84,0,0,1-.1,2A12.73,12.73,0,0,1,79.7,24.5Z"/><polygon class="cls-8" points="81.17 45.04 65.42 50.58 66.74 54.32 66.74 54.32 82.49 48.78 81.17 45.04"/><path class="cls-3" d="M190.34,160.89q0-2.5-.12-5l-.37-14.71-.5-14.7c-.17-4.91-.32-9.81-.84-14.7a.13.13,0,0,0-.12-.11.12.12,0,0,0-.13.12c-.23,4.91-.09,9.81,0,14.72l.37,14.7.51,14.71c.17,4.9.31,9.8.83,14.69a.13.13,0,0,0,.12.11h0a.12.12,0,0,0,.12-.12c0-.82.06-1.65.08-2.47C190.39,165.71,190.38,163.3,190.34,160.89Z"/><path class="cls-3" d="M130.58,132.12a.12.12,0,0,0-.17,0c-1.1.69-2.17,1.4-3.24,2.12s-2.11,1.46-3.19,2.15c-.18.12-.38.22-.56.34a65.66,65.66,0,0,1-6.14,3.41,48.92,48.92,0,0,1-7.09,2.87c-1.23.35-2.45.69-3.7.93s-2.5.49-3.77.83h0a.13.13,0,0,0-.09.11h0a.13.13,0,0,0,.12.13,22,22,0,0,0,7.75-1,50.12,50.12,0,0,0,7.31-2.81c1.25-.63,2.47-1.31,3.68-2,.67-.4,1.33-.82,2-1.24.36-.23.73-.44,1.08-.68a28.62,28.62,0,0,0,6-5A.12.12,0,0,0,130.58,132.12Z"/></g><g id="Layer_19" data-name="Layer 19"><path class="cls-1" d="M75,72l0,.2Z"/><path class="cls-1" d="M75,72.37a1.64,1.64,0,0,0,0,.23A1.64,1.64,0,0,1,75,72.37Z"/><path class="cls-1" d="M75.09,71.68l0,.17Z"/><path class="cls-1" d="M75.68,70.56l-.06,0Z"/><path class="cls-1" d="M75,72.73c0,.09,0,.19,0,.28C75,72.92,75,72.82,75,72.73Z"/><path class="cls-1" d="M75.16,71.38l0,.15Z"/><path class="cls-1" d="M75.26,71.11l-.05.12Z"/><path class="cls-1" d="M74.92,74.08q0-.52,0-1,0,.5,0,1Z"/><path class="cls-1" d="M76.67,70.74a1.59,1.59,0,0,1,.29.33A1.59,1.59,0,0,0,76.67,70.74Z"/><path class="cls-1" d="M74.86,76c0,.17,0,.33,0,.49s0,.38-.07.55a15,15,0,0,0,.16-2h0C74.89,75.39,74.88,75.72,74.86,76Z"/><path class="cls-1" d="M74.7,77.22l0-.14h0Z"/><path class="cls-1" d="M75.45,70.77l.06-.07Z"/><path class="cls-1" d="M75.87,70.48a.86.86,0,0,1,.36,0A.86.86,0,0,0,75.87,70.48Z"/><path class="cls-1" d="M75.37,70.88s0,.07-.05.1S75.35,70.91,75.37,70.88Z"/><path class="cls-1" d="M77.54,72.19c-.08-.19-.15-.37-.23-.54C77.39,71.82,77.46,72,77.54,72.19Z"/><path class="cls-1" d="M78,73.7l-.12-.44Z"/><path class="cls-1" d="M77.81,73c-.06-.21-.13-.4-.2-.59C77.68,72.58,77.75,72.78,77.81,73Z"/><path class="cls-1" d="M78.35,75.12h0Z"/><polygon class="cls-1" points="81.17 45.04 65.42 50.58 66.74 54.32 66.74 54.32 82.49 48.78 81.17 45.04"/><path class="cls-1" d="M78.25,74.63l-.09-.38Z"/><path class="cls-1" d="M77.25,71.54a4.23,4.23,0,0,0-.25-.42A4.23,4.23,0,0,1,77.25,71.54Z"/><path class="cls-1" d="M76.61,70.68a.9.9,0,0,0-.32-.17A.9.9,0,0,1,76.61,70.68Z"/><path class="cls-2" d="M74.5,77.88l0-.06,0,.05Z"/><path class="cls-2" d="M74.67,77.36a2.34,2.34,0,0,1-.12.4A2.34,2.34,0,0,0,74.67,77.36Z"/><path class="cls-2" d="M73.54,78.74a2.16,2.16,0,0,1-.36,0A2.16,2.16,0,0,0,73.54,78.74Z"/><path class="cls-2" d="M74.15,78.43a1.08,1.08,0,0,1-.24.18A1.08,1.08,0,0,0,74.15,78.43Z"/><path class="cls-2" d="M73.85,78.64a.79.79,0,0,1-.26.08A.79.79,0,0,0,73.85,78.64Z"/><path class="cls-2" d="M73.09,78.72a2.37,2.37,0,0,1-.34-.08A2.37,2.37,0,0,0,73.09,78.72Z"/><path class="cls-2" d="M74.39,78.1a1.51,1.51,0,0,0,.11-.22h0A1.63,1.63,0,0,1,74.39,78.1Z"/><path class="cls-2" d="M74.36,78.16a1.89,1.89,0,0,1-.2.27A1.89,1.89,0,0,0,74.36,78.16Z"/><path class="cls-2" d="M72.63,78.6a5.12,5.12,0,0,1-.5-.22A5.12,5.12,0,0,0,72.63,78.6Z"/><path class="cls-3" d="M74.9,75.07h0c0-.33,0-.67,0-1h0C74.92,74.41,74.91,74.74,74.9,75.07Z"/><path class="cls-3" d="M73.59,90.93c-.11-.11-.2-.22-.3-.33a20.68,20.68,0,0,1-3.14-4.67c-3.1-6.32-3.25-14-2.33-19.82l-.32-.91-.32-.91C65.54,72,65.55,83.88,72.86,91.62a.48.48,0,0,0,.36.16.54.54,0,0,0,.21,0,.42.42,0,0,0,.14-.09A.5.5,0,0,0,73.59,90.93Z"/><path class="cls-2" d="M79.79,85.73v0c0-.68-.12-1.58-.27-2.81h0c0-.17,0-.31-.06-.49-.2-1.52-.47-3.89-.87-6.12-.07-.4-.15-.79-.23-1.17h0c0-.17-.07-.33-.1-.48l-.09-.38c0-.19-.09-.37-.14-.55l-.12-.44L77.81,73c-.06-.2-.13-.4-.2-.59s0-.13-.07-.2-.15-.37-.23-.54l-.06-.11a4.23,4.23,0,0,0-.25-.42s0,0,0-.05a1.59,1.59,0,0,0-.29-.33l-.06-.06a.9.9,0,0,0-.32-.17l-.06,0a.86.86,0,0,0-.36,0l-.19.08-.06,0a.48.48,0,0,0-.11.09l-.06.07-.08.11s0,.07-.05.1l-.06.13-.05.12a.88.88,0,0,1,0,.15l0,.15a.83.83,0,0,0,0,.15l0,.17c0,.06,0,.11,0,.16l0,.2c0,.05,0,.11,0,.16a1.64,1.64,0,0,0,0,.23.57.57,0,0,0,0,.13c0,.09,0,.19,0,.28v0q0,.5,0,1c0,.32,0,.66,0,1a15,15,0,0,1-.16,2h0l0,.14,0,.14h0a2.34,2.34,0,0,1-.12.4s0,0,0,.06l0,.06a1.51,1.51,0,0,1-.11.22l0,.06a1.89,1.89,0,0,1-.2.27h0a1.08,1.08,0,0,1-.24.18l-.06,0a.79.79,0,0,1-.26.08l0,0a2.16,2.16,0,0,1-.36,0l-.09,0a2.37,2.37,0,0,1-.34-.08l-.12,0a5.12,5.12,0,0,1-.5-.22h0l-.38-1.08h0l-3-8.4-.35-1-.3-.85-.33-.94c-.92,5.81-.77,13.5,2.33,19.82a20.68,20.68,0,0,0,3.14,4.67c.1.11.19.22.3.33a.5.5,0,0,1,0,.71.42.42,0,0,1-.14.09l1.31,1.94,6-3.55A44.47,44.47,0,0,1,79.79,85.73Z"/><path class="cls-6" d="M79.51,82.9h0c0-.16,0-.32-.07-.49C79.48,82.59,79.49,82.73,79.51,82.9Z"/><polygon class="cls-6" points="74.73 77.07 74.74 77.07 74.74 77.07 74.73 77.07"/><path class="cls-6" d="M94.1,73.09,84,44.21a4.42,4.42,0,0,0-5.63-2.7L65.44,46a4.41,4.41,0,0,0-2.7,5.62l4.44,12.63.32.91.32.91.33.94.3.85.35,1,3,8.4h0l.38,1.08h0a5.12,5.12,0,0,0,.5.22l.12,0a2.37,2.37,0,0,0,.34.08l.09,0a2.16,2.16,0,0,0,.36,0l0,0a.79.79,0,0,0,.26-.08l.06,0a1.08,1.08,0,0,0,.24-.18h0a1.89,1.89,0,0,0,.2-.27l0-.06a1.63,1.63,0,0,0,.11-.23l0-.05s0,0,0-.06a2.34,2.34,0,0,0,.12-.4h0l0-.14,0-.14h0l-.13-.35,0-.11-.17-.46-.31-.88-.18-.51-.19-.55-1-2.87-.21-.61-.33-.92-.31-.89-.19-.53-.35-1-1.24-3.54-.25-.7-.23-.66L69.07,61l-.25-.7-.24-.69-1.84-5.24h0l-1.32-3.74L81.17,45l1.32,3.74L90.67,72,78.58,76.29c.4,2.23.67,4.6.87,6.12,0,.17,0,.33.07.49l11.89-4.18A4.42,4.42,0,0,0,94.1,73.09Z"/><path class="cls-6" d="M79.45,82.41c-.2-1.52-.47-3.89-.87-6.12h0C79,78.52,79.25,80.89,79.45,82.41Z"/><polygon class="cls-6" points="74.67 77.36 74.67 77.36 74.67 77.36 74.67 77.36"/><path class="cls-6" d="M74.55,77.76s0,0,0,.06S74.54,77.78,74.55,77.76Z"/><path class="cls-6" d="M74.16,78.43h0Z"/><path class="cls-6" d="M73.91,78.61l-.06,0Z"/><path class="cls-6" d="M74.39,78.1l0,.06Z"/><path class="cls-6" d="M73.59,78.72l0,0Z"/><path class="cls-6" d="M72.75,78.64l-.12,0Z"/><path class="cls-6" d="M73.18,78.74l-.09,0Z"/><path class="cls-9" d="M82.49,48.78,66.74,54.32l1.84,5.24.24.69.25.7.54,1.54.23.66.25.7,1.24,3.54.35,1,.19.53.31.89.33.92.21.61,1,2.87.19.55.18.51.31.88.17.46,0,.11.13.35h0c0-.17.05-.36.07-.55s0-.32,0-.49,0-.64,0-1,0-.66,0-1,0-.69,0-1v0c0-.09,0-.19,0-.28a.57.57,0,0,1,0-.13,1.64,1.64,0,0,1,0-.23c0-.05,0-.11,0-.16l0-.2c0-.05,0-.1,0-.16l0-.17a.83.83,0,0,1,0-.15l0-.15a.88.88,0,0,0,0-.15l.05-.12.06-.13s0-.07.05-.1l.08-.11.06-.07a.48.48,0,0,1,.11-.09l.06,0,.19-.08a.86.86,0,0,1,.36,0l.06,0a.9.9,0,0,1,.32.17l.06.06a1.59,1.59,0,0,1,.29.33s0,0,0,.05a4.23,4.23,0,0,1,.25.42l.06.11c.08.17.15.35.23.54s0,.13.07.2.14.38.2.59l.09.28.12.44c0,.18.09.36.14.55l.09.38c0,.15.07.31.1.48h0c.08.38.16.77.23,1.17L90.67,72ZM72.37,60.61l-.14-.06a.4.4,0,0,1-.18-.54h0l.21-.45a.34.34,0,0,1,.08-.09.46.46,0,0,1,.21-.13h0l.55-.11a1.54,1.54,0,0,0,.38-.16c.13-.09.2-.15.23-.24l.25-.51c.34-.69.64-1.35,1-2.06a3.42,3.42,0,0,1,4.51-1.39,3.44,3.44,0,0,1,1.67,1.89,3.38,3.38,0,0,1-.09,2.5c-.34.71-.69,1.36-1.07,2l-.29.5a.73.73,0,0,0-.09.41,1.41,1.41,0,0,0,.07.5,4.43,4.43,0,0,1,.2.58,3.81,3.81,0,0,1-.17.51.14.14,0,0,1-.18.08h0c-1.25-.46-2.48-1-3.68-1.56Zm3.55,3A1,1,0,0,1,74.65,63a1,1,0,0,1,0-.77h0l1.79.89A1,1,0,0,1,75.92,63.65Zm.54,4.48,0-.07,0-.06a8.54,8.54,0,0,1,2-.92l2-.75,2-.69a7.8,7.8,0,0,1,2.1-.53l0,.12a8.26,8.26,0,0,1-1.95.92l-2,.75-2,.7A8.63,8.63,0,0,1,76.46,68.13ZM77,69.8l0-.15a4.28,4.28,0,0,1,1.5-.83c.53-.22,1.06-.41,1.59-.61s1.06-.38,1.61-.55a4.27,4.27,0,0,1,1.68-.33l.06.15a4.41,4.41,0,0,1-1.51.83l-1.58.61c-.54.19-1.07.38-1.61.55A4.32,4.32,0,0,1,77,69.8Zm5.49.35c-.52.22-1.05.41-1.58.61s-1.07.38-1.61.55a4.27,4.27,0,0,1-1.68.33l-.06-.15a4.23,4.23,0,0,1,1.51-.83l1.58-.61c.54-.19,1.07-.38,1.61-.55A4.28,4.28,0,0,1,84,69.17l0,.15A4.23,4.23,0,0,1,82.51,70.15Z"/><path class="cls-9" d="M76.29,70.51l-.06,0Z"/><path class="cls-9" d="M75.45,70.77l-.08.11Z"/><path class="cls-9" d="M75.87,70.48l-.19.08Z"/><path class="cls-9" d="M78.35,75.11c0-.17-.07-.33-.1-.48C78.28,74.78,78.32,74.94,78.35,75.11Z"/><path class="cls-9" d="M78.16,74.25c0-.19-.09-.37-.14-.55C78.07,73.88,78.11,74.06,78.16,74.25Z"/><path class="cls-9" d="M77.9,73.26,77.81,73Z"/><path class="cls-9" d="M77.61,72.39c0-.07,0-.13-.07-.2S77.59,72.32,77.61,72.39Z"/><path class="cls-9" d="M77,71.12s0,0,0-.05S77,71.11,77,71.12Z"/><path class="cls-9" d="M78.58,76.29h0c-.07-.4-.15-.79-.23-1.17C78.43,75.5,78.51,75.89,78.58,76.29Z"/><path class="cls-9" d="M77.31,71.65l-.06-.11Z"/><path class="cls-9" d="M75,72.21c0,.05,0,.11,0,.16S75,72.26,75,72.21Z"/><path class="cls-9" d="M76.61,70.68l.06.06Z"/><path class="cls-9" d="M75,72.6a.57.57,0,0,0,0,.13A.57.57,0,0,1,75,72.6Z"/><path class="cls-9" d="M75,73v0Z"/><path class="cls-9" d="M75.51,70.7a.48.48,0,0,1,.11-.09A.48.48,0,0,0,75.51,70.7Z"/><path class="cls-9" d="M75.06,71.85c0,.06,0,.11,0,.16S75.05,71.91,75.06,71.85Z"/><path class="cls-9" d="M75.13,71.53a.83.83,0,0,0,0,.15A.83.83,0,0,1,75.13,71.53Z"/><path class="cls-9" d="M75.21,71.23a.88.88,0,0,1,0,.15A.88.88,0,0,0,75.21,71.23Z"/><path class="cls-9" d="M75.32,71l-.06.13Z"/><path class="cls-6" d="M78.38,67.08a8.54,8.54,0,0,0-2,.92l0,.06,0,.07a8.63,8.63,0,0,0,2.1-.53l2-.7,2-.75a8.26,8.26,0,0,0,1.95-.92l0-.12a7.8,7.8,0,0,0-2.1.53l-2,.69Z"/><path class="cls-6" d="M80.32,68.92l1.58-.61a4.41,4.41,0,0,0,1.51-.83l-.06-.15a4.27,4.27,0,0,0-1.68.33c-.55.17-1.08.36-1.61.55s-1.06.39-1.59.61a4.28,4.28,0,0,0-1.5.83l0,.15a4.32,4.32,0,0,0,1.69-.33C79.25,69.3,79.78,69.11,80.32,68.92Z"/><path class="cls-6" d="M82.28,69.5c-.54.17-1.07.36-1.61.55l-1.58.61a4.23,4.23,0,0,0-1.51.83l.06.15a4.27,4.27,0,0,0,1.68-.33c.54-.17,1.08-.36,1.61-.55s1.06-.39,1.58-.61A4.23,4.23,0,0,0,84,69.32l0-.15A4.28,4.28,0,0,0,82.28,69.5Z"/><path class="cls-10" d="M74.7,62.26h0a1,1,0,0,0,0,.77,1,1,0,0,0,1.27.62,1,1,0,0,0,.57-.5Z"/><path class="cls-11" d="M79.53,63.5a1.77,1.77,0,0,1,.17-.24,5.14,5.14,0,0,1-.31-.44,1.77,1.77,0,0,1-.23-.59,1.27,1.27,0,0,1,.07-.69l.22-.53c.28-.7.62-1.4.92-2.06a2.63,2.63,0,0,0,0-1.93,2.66,2.66,0,0,0-1.3-1.42,2.55,2.55,0,0,0-1.9-.12,2.52,2.52,0,0,0-1.46,1.2l-1,2-.26.51a1.3,1.3,0,0,1-.54.57,1.89,1.89,0,0,1-.67.27l-.17,0,3.06,1.53C77.31,62.18,78.43,62.81,79.53,63.5Z"/><path class="cls-10" d="M81.15,56.75a3.44,3.44,0,0,0-1.67-1.89A3.42,3.42,0,0,0,75,56.25c-.36.71-.66,1.37-1,2.06l-.25.51c0,.09-.1.15-.23.24a1.54,1.54,0,0,1-.38.16l-.55.11h0a.46.46,0,0,0-.21.13.34.34,0,0,0-.08.09l-.21.45h0a.4.4,0,0,0,.18.54l.14.06,3.45,1.67c1.2.58,2.43,1.1,3.68,1.56h0a.14.14,0,0,0,.18-.08,3.81,3.81,0,0,0,.17-.51,4.43,4.43,0,0,0-.2-.58,1.41,1.41,0,0,1-.07-.5.73.73,0,0,1,.09-.41l.29-.5c.38-.66.73-1.31,1.07-2A3.38,3.38,0,0,0,81.15,56.75ZM80.37,59c-.3.66-.64,1.36-.92,2.06l-.22.53a1.27,1.27,0,0,0-.07.69,1.77,1.77,0,0,0,.23.59,5.14,5.14,0,0,0,.31.44,1.77,1.77,0,0,0-.17.24c-1.1-.69-2.22-1.32-3.37-1.9L73.1,60.07l.17,0a1.89,1.89,0,0,0,.67-.27,1.3,1.3,0,0,0,.54-.57l.26-.51,1-2a2.52,2.52,0,0,1,1.46-1.2,2.55,2.55,0,0,1,1.9.12A2.66,2.66,0,0,1,80.41,57,2.63,2.63,0,0,1,80.37,59Z"/><polygon class="cls-2" points="74.73 77.08 74.73 77.08 74.73 77.07 74.73 77.08"/><polygon class="cls-2" points="74.73 77.08 74.74 77.08 74.74 77.07 74.73 77.07 74.73 77.08"/><path class="cls-4" d="M206,107.82c-4.67-18.67-19.25-20.76-30.55-23.25s-29.89-2.84-37.87.32c-5.19,2-8.73,3.62-11.1,5.7h0a240.27,240.27,0,0,0-24.19,21.49L83.41,88.53l-2.7,1.59-6,3.55L72.52,95s9.38,50.92,30.1,49.87h0a.13.13,0,0,1,.09-.11h0c1.27-.34,2.53-.49,3.77-.83s2.47-.58,3.7-.93a48.92,48.92,0,0,0,7.09-2.87,65.66,65.66,0,0,0,6.14-3.41c.18-.12.38-.22.56-.34,1.08-.69,2.13-1.42,3.19-2.15s2.14-1.43,3.24-2.12a.12.12,0,0,1,.17,0,.12.12,0,0,1,0,.15,28.62,28.62,0,0,1-6,5c-.35.24-.72.45-1.08.68l1.73,40.62,14.25,0c8.83,0,30.69,0,50.69.13v-8h0a.13.13,0,0,1-.12-.11c-.52-4.89-.66-9.79-.83-14.69l-.51-14.71-.37-14.7c-.13-4.91-.27-9.81,0-14.72a.12.12,0,0,1,.13-.12.13.13,0,0,1,.12.11c.52,4.89.67,9.79.84,14.7l.5,14.7.37,14.71q.08,2.51.12,5C204.59,160.08,217.36,153.23,206,107.82Z"/></g></svg>