<svg viewBox="0 0 226 179" xmlns="http://www.w3.org/2000/svg"><path d="m130.74 48.62a32.08 32.08 0 0 1 .52-4.39 1 1 0 0 1 -.88-.46 1.28 1.28 0 0 0 -.93.15 5 5 0 0 0 -2.55 3.5.84.84 0 0 1 .35 0z" fill="none"/><path d="m126.69 49.38c-.07 2.39.54 4.48 1.57 5.11.59.37 1.41.22 2.42-.46a.9.9 0 0 1 .21-.08c-.11-1.08-.18-2.15-.19-3.23z" fill="none"/><path d="m165.25 83.07v-12.52a11.85 11.85 0 0 1 -2.3.82c-8.39 1.93-15-2.09-19.33-4.54a9.7 9.7 0 0 1 -4.88-8.27l.52-5-6.55-2.18a32.62 32.62 0 0 0 .65 5.42c1.59 7.57 3.61 14 12.35 15.35a1 1 0 0 1 .83.84l1 6.84a1 1 0 0 1 -.84 1.13h-.15a1 1 0 0 1 -.25 0l.21 2.07a102.58 102.58 0 0 1 18.74.04z" fill="#787c82"/><path d="m139.48 51.54.8-7.58s-4.31.54-6.67-1.21a30.86 30.86 0 0 0 -.9 6.53z" fill="#787c82"/><path d="m175.16 52.27a20 20 0 0 1 -1.91.92l-.14.06a19.23 19.23 0 0 1 -12.57.89c-8.54-2.31-15.42-10.3-18.54-18.28a28.52 28.52 0 0 1 -1.38-4.86 21.25 21.25 0 0 1 -.31-2.29 15.92 15.92 0 0 1 .17-4.06c-3.2 2.52-5.93 6.57-7.95 12.74a6.29 6.29 0 0 0 -.34 3.14c-.18.58-.36 1.16-.51 1.75a2.48 2.48 0 0 0 -2.19-.44c-2 .41-4.25 2.48-4.7 6-.39 3.17.2 7 2.42 8.35a3.3 3.3 0 0 0 1.75.49 4.66 4.66 0 0 0 2.22-.64c.07.39.14.78.23 1.17 1.59 7.79 3.89 14.96 13.26 16.79l.93 6.13a1 1 0 0 0 .74.8 1 1 0 0 0 .25 0h.15a1 1 0 0 0 .84-1.13l-1-6.84a1 1 0 0 0 -.83-.84c-8.75-1.36-10.75-7.74-12.39-15.31a32.62 32.62 0 0 1 -.65-5.42l6.55 2.18-.52 5a9.7 9.7 0 0 0 4.88 8.27c4.38 2.44 10.94 6.46 19.38 4.53a11.85 11.85 0 0 0 2.3-.82c6-2.76 9.31-10.31 10.37-18.55-.2.09-.35.19-.51.27zm-44.48 1.73c-1 .68-1.83.83-2.42.46-1-.63-1.64-2.72-1.57-5.11l4 1.34c0 1.08.08 2.15.19 3.23a.9.9 0 0 0 -.2.08zm.06-5.41-3.49-1.16a.84.84 0 0 0 -.35 0 5 5 0 0 1 2.55-3.5 1.28 1.28 0 0 1 .93-.15 1 1 0 0 0 .88.46 32.08 32.08 0 0 0 -.52 4.38zm8.74 2.92-6.77-2.26a30.86 30.86 0 0 1 .9-6.53c2.39 1.78 6.67 1.28 6.67 1.28z" fill="#004e6e"/><path d="m145.43 17.93a8.5 8.5 0 0 0 -5 6.69 15.92 15.92 0 0 0 -.17 4.06 21.25 21.25 0 0 0 .31 2.29 28.52 28.52 0 0 0 1.43 4.89c3.09 8 9.93 16 18.51 18.28a19.23 19.23 0 0 0 12.57-.89l.14-.06a20 20 0 0 0 1.91-.92c.16-.08.31-.18.46-.27 18.95-11.18-7.22-44.06-30.16-34.07z" fill="#98c6d9"/><path d="m173.11 53.25c23.56-9.69-3.82-45.71-27.68-35.32-14.66 6.39 4.11 45.07 27.68 35.32z" fill="#98c6d9"/><path d="m51.6 51.91v-.35a2.07 2.07 0 0 0 -1-.88 5.39 5.39 0 0 0 -.89-.1 13.07 13.07 0 0 0 -1.77 0 11.47 11.47 0 0 0 -1.73.33 4.51 4.51 0 0 0 -.86.27 2.09 2.09 0 0 0 -.78 1.06v.35.35a1.93 1.93 0 0 0 1 .87 4.51 4.51 0 0 0 .89.11 14.89 14.89 0 0 0 1.77 0 13.32 13.32 0 0 0 1.77-.33 4 4 0 0 0 .85-.28 2 2 0 0 0 .79-1.05z" fill="#c3c4c7"/><path d="m58.75 30.19-2.81.4-1.15-2.59a.46.46 0 0 0 -.88.1l-.51 2.78-2.6.25a.46.46 0 0 0 -.18.87l2.38 1.29-.54 2.71a.46.46 0 0 0 .77.42l2-1.83 2.27 1.26a.46.46 0 0 0 .64-.61l-1.14-2.31 2.12-1.93a.46.46 0 0 0 -.37-.81z" fill="#3895ba"/><path d="m70.64 37.59a2.46 2.46 0 1 0 -1-3.36 2.46 2.46 0 0 0 1 3.36z" fill="#c3c4c7"/><path d="m89.33 32c-.21 0-.43-.06-.64-.09 0-.21 0-.43 0-.65a1.75 1.75 0 0 0 -.47-1.47h-.36a1.74 1.74 0 0 0 -.67 1.39c0 .21 0 .43-.08.64-.22 0-.43 0-.65 0a1.68 1.68 0 0 0 -1.47.47v.17.18a1.72 1.72 0 0 0 1.39.67l.65.09v.65a1.75 1.75 0 0 0 .47 1.47h.35a1.72 1.72 0 0 0 .68-1.39c0-.21 0-.43.08-.64h.65a1.69 1.69 0 0 0 1.44-.49v-.35a1.73 1.73 0 0 0 -1.37-.65z" fill="#3895ba"/><path d="m53.88 43a13.24 13.24 0 0 0 -3.38 0 4.89 4.89 0 0 1 -2.69-.49 4.48 4.48 0 0 1 -1.64-2.1 9.83 9.83 0 0 0 -2-2.86 10.41 10.41 0 0 0 -2.94-1.84 10.57 10.57 0 0 0 -3.23-.91 6 6 0 0 0 -3.33.55l.09.34a11.79 11.79 0 0 1 3 .34 15.33 15.33 0 0 1 2.86 1 9.24 9.24 0 0 1 2.44 1.64 9 9 0 0 1 1.58 2.47 9.1 9.1 0 0 0 .87 1.51 4.26 4.26 0 0 0 1.49 1.27 6.1 6.1 0 0 0 3.56.59 14.09 14.09 0 0 1 3-.17 5 5 0 0 1 2.53 1.23l.29-.2a3.45 3.45 0 0 0 -.92-1.49 3.58 3.58 0 0 0 -1.58-.88z" fill="#187aa2"/><path d="m65 24.35-.33 1.65a.28.28 0 0 0 .47.26l1.23-1.11 1.43.81a.28.28 0 0 0 .39-.37l-.7-1.44 1.29-1.15a.28.28 0 0 0 -.23-.49l-1.72.23-.69-1.6a.29.29 0 0 0 -.54.06l-.33 1.73-1.55.07a.29.29 0 0 0 -.12.53z" fill="#3895ba"/><path d="m79.7 24.5a11 11 0 0 1 -1 1.89l.21.29a4 4 0 0 0 1.86-1.59 6.9 6.9 0 0 0 1-2.25 7.64 7.64 0 0 0 .23-2.51 7.31 7.31 0 0 0 -.78-2.39 3.05 3.05 0 0 1 -.46-1.68 3.29 3.29 0 0 1 .81-1.6 9.76 9.76 0 0 0 1.44-2 2.55 2.55 0 0 0 .18-1.39 2.34 2.34 0 0 0 -.54-1.18l-.34.12a3.67 3.67 0 0 1 -.53 1.83 9.62 9.62 0 0 1 -1.37 1.57 4.51 4.51 0 0 0 -1.27 2.39 3.19 3.19 0 0 0 .1 1.48 6.75 6.75 0 0 0 .49 1.17 6 6 0 0 1 .69 1.87 5.84 5.84 0 0 1 -.1 2 12.73 12.73 0 0 1 -.62 1.98z" fill="#c3c4c7"/><path d="m81.17 45.04-15.75 5.54 1.32 3.74 15.75-5.54z" fill="#004e6e"/><path d="m190.34 160.89q0-2.5-.12-5l-.37-14.71-.5-14.7c-.17-4.91-.32-9.81-.84-14.7a.13.13 0 0 0 -.12-.11.12.12 0 0 0 -.13.12c-.23 4.91-.09 9.81 0 14.72l.37 14.7.51 14.71c.17 4.9.31 9.8.83 14.69a.13.13 0 0 0 .12.11.12.12 0 0 0 .12-.12c0-.82.06-1.65.08-2.47.1-2.42.09-4.83.05-7.24z" fill="#004e6e"/><path d="m130.58 132.12a.12.12 0 0 0 -.17 0c-1.1.69-2.17 1.4-3.24 2.12s-2.11 1.46-3.19 2.15c-.18.12-.38.22-.56.34a65.66 65.66 0 0 1 -6.14 3.41 48.92 48.92 0 0 1 -7.09 2.87c-1.23.35-2.45.69-3.7.93s-2.5.49-3.77.83a.13.13 0 0 0 -.09.11.13.13 0 0 0 .12.13 22 22 0 0 0 7.75-1 50.12 50.12 0 0 0 7.31-2.81c1.25-.63 2.47-1.31 3.68-2 .67-.4 1.33-.82 2-1.24.36-.23.73-.44 1.08-.68a28.62 28.62 0 0 0 6-5 .12.12 0 0 0 .01-.16z" fill="#004e6e"/><g fill="none"><path d="m75 72v.2z"/><path d="m75 72.37a1.64 1.64 0 0 0 0 .23 1.64 1.64 0 0 1 0-.23z"/><path d="m75.09 71.68v.17z"/><path d="m75.68 70.56h-.06z"/><path d="m75 72.73v.28c0-.09 0-.19 0-.28z"/><path d="m75.16 71.38v.15z"/><path d="m75.26 71.11-.05.12z"/><path d="m74.92 74.08q0-.52 0-1 0 .5 0 1z"/><path d="m76.67 70.74a1.59 1.59 0 0 1 .29.33 1.59 1.59 0 0 0 -.29-.33z"/><path d="m74.86 76v.49s0 .38-.07.55a15 15 0 0 0 .16-2c-.06.35-.07.68-.09.96z"/><path d="m74.7 77.22v-.14z"/><path d="m75.45 70.77.06-.07z"/><path d="m75.87 70.48a.86.86 0 0 1 .36 0 .86.86 0 0 0 -.36 0z"/><path d="m75.37 70.88s0 .07-.05.1.03-.07.05-.1z"/><path d="m77.54 72.19c-.08-.19-.15-.37-.23-.54.08.17.15.35.23.54z"/><path d="m78 73.7-.12-.44z"/><path d="m77.81 73c-.06-.21-.13-.4-.2-.59.07.17.14.37.2.59z"/><path d="m81.17 45.04-15.75 5.54 1.32 3.74 15.75-5.54z"/><path d="m78.25 74.63-.09-.38z"/><path d="m77.25 71.54a4.23 4.23 0 0 0 -.25-.42 4.23 4.23 0 0 1 .25.42z"/><path d="m76.61 70.68a.9.9 0 0 0 -.32-.17.9.9 0 0 1 .32.17z"/></g><path d="m74.5 77.88v-.06.05z" fill="#787c82"/><path d="m74.67 77.36a2.34 2.34 0 0 1 -.12.4 2.34 2.34 0 0 0 .12-.4z" fill="#787c82"/><path d="m73.54 78.74a2.16 2.16 0 0 1 -.36 0 2.16 2.16 0 0 0 .36 0z" fill="#787c82"/><path d="m74.15 78.43a1.08 1.08 0 0 1 -.24.18 1.08 1.08 0 0 0 .24-.18z" fill="#787c82"/><path d="m73.85 78.64a.79.79 0 0 1 -.26.08.79.79 0 0 0 .26-.08z" fill="#787c82"/><path d="m73.09 78.72a2.37 2.37 0 0 1 -.34-.08 2.37 2.37 0 0 0 .34.08z" fill="#787c82"/><path d="m74.39 78.1a1.51 1.51 0 0 0 .11-.22 1.63 1.63 0 0 1 -.11.22z" fill="#787c82"/><path d="m74.36 78.16a1.89 1.89 0 0 1 -.2.27 1.89 1.89 0 0 0 .2-.27z" fill="#787c82"/><path d="m72.63 78.6a5.12 5.12 0 0 1 -.5-.22 5.12 5.12 0 0 0 .5.22z" fill="#787c82"/><path d="m74.9 75.07c0-.33 0-.67 0-1 .02.34.01.67 0 1z" fill="#004e6e"/><path d="m73.59 90.93c-.11-.11-.2-.22-.3-.33a20.68 20.68 0 0 1 -3.14-4.67c-3.1-6.32-3.25-14-2.33-19.82l-.32-.91-.32-.91c-1.64 7.71-1.63 19.59 5.68 27.33a.48.48 0 0 0 .36.16.54.54 0 0 0 .21 0 .42.42 0 0 0 .14-.09.5.5 0 0 0 .02-.76z" fill="#004e6e"/><path d="m79.79 85.73c0-.68-.12-1.58-.27-2.81 0-.17 0-.31-.06-.49-.2-1.52-.47-3.89-.87-6.12-.07-.4-.15-.79-.23-1.17 0-.17-.07-.33-.1-.48l-.09-.38c0-.19-.09-.37-.14-.55l-.12-.44-.1-.29c-.06-.2-.13-.4-.2-.59s0-.13-.07-.2-.15-.37-.23-.54l-.06-.11a4.23 4.23 0 0 0 -.25-.42s0 0 0-.05a1.59 1.59 0 0 0 -.29-.33l-.06-.06a.9.9 0 0 0 -.32-.17h-.06a.86.86 0 0 0 -.36 0l-.19.08h-.06a.48.48 0 0 0 -.11.09l-.06.07-.08.11s0 .07-.05.1l-.06.13-.05.12a.88.88 0 0 1 0 .15v.15a.83.83 0 0 0 0 .15v.17.16.2.16a1.64 1.64 0 0 0 0 .23.57.57 0 0 0 0 .13v.28q0 .5 0 1v1a15 15 0 0 1 -.16 2v.14.14a2.34 2.34 0 0 1 -.12.4s0 0 0 .06v.06a1.51 1.51 0 0 1 -.11.22v.06a1.89 1.89 0 0 1 -.2.27 1.08 1.08 0 0 1 -.24.18h-.06a.79.79 0 0 1 -.26.08 2.16 2.16 0 0 1 -.36 0h-.09a2.37 2.37 0 0 1 -.34-.08h-.12a5.12 5.12 0 0 1 -.5-.22l-.38-1.08-3-8.4-.35-1-.3-.85-.33-.94c-.92 5.81-.77 13.5 2.33 19.82a20.68 20.68 0 0 0 3.14 4.67c.1.11.19.22.3.33a.5.5 0 0 1 0 .71.42.42 0 0 1 -.14.09l1.31 1.94 6-3.55a44.47 44.47 0 0 1 -1.48-4.33z" fill="#787c82"/><path d="m79.51 82.9c0-.16 0-.32-.07-.49.04.18.05.32.07.49z" fill="#3895ba"/><path d="m74.73 77.07h.01z" fill="#3895ba"/><path d="m94.1 73.09-10.1-28.88a4.42 4.42 0 0 0 -5.63-2.7l-12.93 4.49a4.41 4.41 0 0 0 -2.7 5.62l4.44 12.63.32.91.32.91.33.94.3.85.35 1 3 8.4.38 1.08a5.12 5.12 0 0 0 .5.22h.12a2.37 2.37 0 0 0 .34.08h.09a2.16 2.16 0 0 0 .36 0 .79.79 0 0 0 .26-.08h.06a1.08 1.08 0 0 0 .24-.18 1.89 1.89 0 0 0 .2-.27v-.06a1.63 1.63 0 0 0 .11-.23v-.05s0 0 0-.06a2.34 2.34 0 0 0 .12-.4v-.14-.14l-.13-.35v-.11l-.17-.46-.31-.88-.18-.51-.19-.55-1-2.87-.21-.61-.33-.92-.31-.89-.19-.53-.35-1-1.24-3.54-.25-.7-.23-.66-.42-1.45-.25-.7-.24-.69-1.84-5.24-1.32-3.74 15.75-5.63 1.32 3.74 8.18 23.26-12.09 4.29c.4 2.23.67 4.6.87 6.12 0 .17 0 .33.07.49l11.89-4.18a4.42 4.42 0 0 0 2.69-5.63z" fill="#3895ba"/><path d="m79.45 82.41c-.2-1.52-.47-3.89-.87-6.12.42 2.23.67 4.6.87 6.12z" fill="#3895ba"/><path d="m74.55 77.76s0 0 0 .06-.01-.04 0-.06z" fill="#3895ba"/><path d="m73.91 78.61h-.06z" fill="#3895ba"/><path d="m74.39 78.1v.06z" fill="#3895ba"/><path d="m72.75 78.64h-.12z" fill="#3895ba"/><path d="m73.18 78.74h-.09z" fill="#3895ba"/><path d="m82.49 48.78-15.75 5.54 1.84 5.24.24.69.25.7.54 1.54.23.66.25.7 1.24 3.54.35 1 .19.53.31.89.33.92.21.61 1 2.87.19.55.18.51.31.88.17.46v.11l.13.35c0-.17.05-.36.07-.55s0-.32 0-.49 0-.64 0-1 0-.66 0-1 0-.69 0-1c0-.09 0-.19 0-.28a.57.57 0 0 1 0-.13 1.64 1.64 0 0 1 0-.23c0-.05 0-.11 0-.16v-.2c0-.05 0-.1 0-.16v-.17a.83.83 0 0 1 0-.15v-.15a.88.88 0 0 0 0-.15l.05-.12.06-.13s0-.07.05-.1l.08-.11.06-.07a.48.48 0 0 1 .11-.09h.06l.19-.08a.86.86 0 0 1 .36 0h.06a.9.9 0 0 1 .32.17l.06.06a1.59 1.59 0 0 1 .29.33s0 0 0 .05a4.23 4.23 0 0 1 .25.42l.06.11c.08.17.15.35.23.54s0 .13.07.2.14.38.2.59l.09.28.12.44c0 .18.09.36.14.55l.09.38c0 .15.07.31.1.48.08.38.16.77.23 1.17l12.57-4.32zm-10.12 11.83-.14-.06a.4.4 0 0 1 -.18-.54l.21-.45a.34.34 0 0 1 .08-.09.46.46 0 0 1 .21-.13l.55-.11a1.54 1.54 0 0 0 .38-.16c.13-.09.2-.15.23-.24l.25-.51c.34-.69.64-1.35 1-2.06a3.42 3.42 0 0 1 4.51-1.39 3.44 3.44 0 0 1 1.67 1.89 3.38 3.38 0 0 1 -.09 2.5c-.34.71-.69 1.36-1.07 2l-.29.5a.73.73 0 0 0 -.09.41 1.41 1.41 0 0 0 .07.5 4.43 4.43 0 0 1 .2.58 3.81 3.81 0 0 1 -.17.51.14.14 0 0 1 -.18.08c-1.25-.46-2.48-1-3.68-1.56zm3.55 3a1 1 0 0 1 -1.27-.61 1 1 0 0 1 0-.77l1.79.89a1 1 0 0 1 -.52.53zm.54 4.48v-.07-.06a8.54 8.54 0 0 1 2-.92l2-.75 2-.69a7.8 7.8 0 0 1 2.1-.53v.12a8.26 8.26 0 0 1 -1.95.92l-2 .75-2 .7a8.63 8.63 0 0 1 -2.15.57zm.54 1.71v-.15a4.28 4.28 0 0 1 1.5-.83c.53-.22 1.06-.41 1.59-.61s1.06-.38 1.61-.55a4.27 4.27 0 0 1 1.68-.33l.06.15a4.41 4.41 0 0 1 -1.51.83l-1.58.61c-.54.19-1.07.38-1.61.55a4.32 4.32 0 0 1 -1.74.33zm5.49.35c-.52.22-1.05.41-1.58.61s-1.07.38-1.61.55a4.27 4.27 0 0 1 -1.68.33l-.06-.15a4.23 4.23 0 0 1 1.51-.83l1.58-.61c.54-.19 1.07-.38 1.61-.55a4.28 4.28 0 0 1 1.74-.33v.15a4.23 4.23 0 0 1 -1.49.83z" fill="#fff"/><path d="m76.29 70.51h-.06z" fill="#fff"/><path d="m75.45 70.77-.08.11z" fill="#fff"/><path d="m75.87 70.48-.19.08z" fill="#fff"/><path d="m78.35 75.11c0-.17-.07-.33-.1-.48.03.15.07.31.1.48z" fill="#fff"/><path d="m78.16 74.25c0-.19-.09-.37-.14-.55.05.18.09.36.14.55z" fill="#fff"/><path d="m77.9 73.26-.09-.26z" fill="#fff"/><path d="m77.61 72.39c0-.07 0-.13-.07-.2s.05.13.07.2z" fill="#fff"/><path d="m77 71.12s0 0 0-.05 0 .04 0 .05z" fill="#fff"/><path d="m78.58 76.29c-.07-.4-.15-.79-.23-1.17.08.38.16.77.23 1.17z" fill="#fff"/><path d="m77.31 71.65-.06-.11z" fill="#fff"/><path d="m75 72.21v.16s0-.11 0-.16z" fill="#fff"/><path d="m76.61 70.68.06.06z" fill="#fff"/><path d="m75 72.6a.57.57 0 0 0 0 .13.57.57 0 0 1 0-.13z" fill="#fff"/><path d="m75.51 70.7a.48.48 0 0 1 .11-.09.48.48 0 0 0 -.11.09z" fill="#fff"/><path d="m75.06 71.85v.16s-.01-.1 0-.16z" fill="#fff"/><path d="m75.13 71.53a.83.83 0 0 0 0 .15.83.83 0 0 1 0-.15z" fill="#fff"/><path d="m75.21 71.23a.88.88 0 0 1 0 .15.88.88 0 0 0 0-.15z" fill="#fff"/><path d="m75.32 71-.06.13z" fill="#fff"/><path d="m78.38 67.08a8.54 8.54 0 0 0 -2 .92v.06.07a8.63 8.63 0 0 0 2.1-.53l2-.7 2-.75a8.26 8.26 0 0 0 1.95-.92v-.12a7.8 7.8 0 0 0 -2.1.53l-2 .69z" fill="#3895ba"/><path d="m80.32 68.92 1.58-.61a4.41 4.41 0 0 0 1.51-.83l-.06-.15a4.27 4.27 0 0 0 -1.68.33c-.55.17-1.08.36-1.61.55s-1.06.39-1.59.61a4.28 4.28 0 0 0 -1.5.83v.15a4.32 4.32 0 0 0 1.69-.33c.59-.17 1.12-.36 1.66-.55z" fill="#3895ba"/><path d="m82.28 69.5c-.54.17-1.07.36-1.61.55l-1.58.61a4.23 4.23 0 0 0 -1.51.83l.06.15a4.27 4.27 0 0 0 1.68-.33c.54-.17 1.08-.36 1.61-.55s1.06-.39 1.58-.61a4.23 4.23 0 0 0 1.49-.83v-.15a4.28 4.28 0 0 0 -1.72.33z" fill="#3895ba"/><path d="m74.7 62.26a1 1 0 0 0 0 .77 1 1 0 0 0 1.27.62 1 1 0 0 0 .57-.5z" fill="#6ab3d0"/><path d="m79.53 63.5a1.77 1.77 0 0 1 .17-.24 5.14 5.14 0 0 1 -.31-.44 1.77 1.77 0 0 1 -.23-.59 1.27 1.27 0 0 1 .07-.69l.22-.53c.28-.7.62-1.4.92-2.06a2.63 2.63 0 0 0 0-1.93 2.66 2.66 0 0 0 -1.3-1.42 2.55 2.55 0 0 0 -1.9-.12 2.52 2.52 0 0 0 -1.46 1.2l-1 2-.26.51a1.3 1.3 0 0 1 -.54.57 1.89 1.89 0 0 1 -.67.27h-.17l3.06 1.53c1.18.62 2.3 1.25 3.4 1.94z" fill="#f6f7f7"/><path d="m81.15 56.75a3.44 3.44 0 0 0 -1.67-1.89 3.42 3.42 0 0 0 -4.48 1.39c-.36.71-.66 1.37-1 2.06l-.25.51c0 .09-.1.15-.23.24a1.54 1.54 0 0 1 -.38.16l-.55.11a.46.46 0 0 0 -.21.13.34.34 0 0 0 -.08.09l-.21.45a.4.4 0 0 0 .18.54l.14.06 3.45 1.67c1.2.58 2.43 1.1 3.68 1.56a.14.14 0 0 0 .18-.08 3.81 3.81 0 0 0 .17-.51 4.43 4.43 0 0 0 -.2-.58 1.41 1.41 0 0 1 -.07-.5.73.73 0 0 1 .09-.41l.29-.5c.38-.66.73-1.31 1.07-2a3.38 3.38 0 0 0 .08-2.5zm-.78 2.25c-.3.66-.64 1.36-.92 2.06l-.22.53a1.27 1.27 0 0 0 -.07.69 1.77 1.77 0 0 0 .23.59 5.14 5.14 0 0 0 .31.44 1.77 1.77 0 0 0 -.17.24c-1.1-.69-2.22-1.32-3.37-1.9l-3.06-1.58h.17a1.89 1.89 0 0 0 .67-.27 1.3 1.3 0 0 0 .54-.57l.26-.51 1-2a2.52 2.52 0 0 1 1.46-1.2 2.55 2.55 0 0 1 1.9.12 2.66 2.66 0 0 1 1.31 1.36 2.63 2.63 0 0 1 -.04 2z" fill="#6ab3d0"/><path d="m74.73 77.08v-.01z" fill="#787c82"/><path d="m74.73 77.08h.01v-.01h-.01z" fill="#787c82"/><path d="m206 107.82c-4.67-18.67-19.25-20.76-30.55-23.25s-29.89-2.84-37.87.32c-5.19 2-8.73 3.62-11.1 5.7a240.27 240.27 0 0 0 -24.19 21.49l-18.88-23.55-2.7 1.59-6 3.55-2.19 1.33s9.38 50.92 30.1 49.87a.13.13 0 0 1 .09-.11c1.27-.34 2.53-.49 3.77-.83s2.47-.58 3.7-.93a48.92 48.92 0 0 0 7.09-2.87 65.66 65.66 0 0 0 6.14-3.41c.18-.12.38-.22.56-.34 1.08-.69 2.13-1.42 3.19-2.15s2.14-1.43 3.24-2.12a.12.12 0 0 1 .17 0 .12.12 0 0 1 0 .15 28.62 28.62 0 0 1 -6 5c-.35.24-.72.45-1.08.68l1.73 40.62h14.25c8.83 0 30.69 0 50.69.13v-8a.13.13 0 0 1 -.12-.11c-.52-4.89-.66-9.79-.83-14.69l-.51-14.71-.37-14.7c-.13-4.91-.27-9.81 0-14.72a.12.12 0 0 1 .13-.12.13.13 0 0 1 .12.11c.52 4.89.67 9.79.84 14.7l.5 14.7.37 14.71q.08 2.51.12 5c14.18-.78 26.95-7.63 15.59-53.04z" fill="#98c6d9"/></svg>
