<svg viewBox="0 0 388 197" xmlns="http://www.w3.org/2000/svg"><g transform="translate(14 15)"><path d="m133.3 208.1v.1h-41.3v-46.1h.4v-122.1h4.1c.9 0 1.7-.8 1.7-1.7h4.9c0 .9.8 1.7 1.7 1.7h8.3c.9 0 1.7-.8 1.7-1.7h4.9c0 .9.8 1.7 1.7 1.7h8.3c.9 0 1.7-.8 1.7-1.7h4.9c0 .9.8 1.7 1.7 1.7h8.3c.9 0 1.7-.8 1.7-1.7h4.9c0 .9.8 1.7 1.7 1.7h8.3c.9 0 1.7-.8 1.7-1.7h4.9c0 .9.8 1.7 1.7 1.7h8.3c.9 0 1.7-.8 1.7-1.7h4.9c0 .9.8 1.7 1.7 1.7h8.3c.9 0 1.7-.8 1.7-1.7h4.9c0 .9.8 1.7 1.7 1.7h8.3c.9 0 1.7-.8 1.7-1.7h4.9c0 .9.8 1.7 1.7 1.7h8.3c.9 0 1.7-.8 1.7-1.7h4.9c0 .9.8 1.7 1.7 1.7h8.3c.9 0 1.7-.8 1.7-1.7h4.9c0 .6.3 1.2.9 1.5l-6.5 1.5c-7.4 1.7-14.7 3.4-22.1 5.1-3.7-2.6-8.5-3.8-13-1.9-1.5.6-2.3 1.9-2.6 3.5-.9.7-1.6 1.5-2.2 2.5l-28 6.6-17 4-4.3 1c-3 .7-5.4 2.9-6.5 5.7-2 4.9.4 10.5 5.2 12.4 1.5.6 3.1.8 4.7.6.8-.1 1.5-.3 2.2-.4l2.1-.5 6.8-1.6c.1.9.2 2.2-.2 2.3-.1.1-.4.1-.5 0-.3-.3-.5-.6-.6-1s-.6-.7-1.4-.4c-2.6.5-4 .8-4 .8-.5 0-.9.3-1 .7-.5 3.5.2 6 5.8 9 0 0 9.5 26 20.6 24.5.9-.1 1.8-.3 2.7-.3.2.4.7.6 1.2.3l5.3-3.2.8 23.8h-1.7c-.3 0-.5.1-.7.3-.3.4-.2.9.1 1.2-1.8 1-3 2.8-3.3 4.8-.1.6-.1 1.1-.4 2-3.6 23.1-1.9 43.4-1.1 52.1.1 1.4.2 2.5.3 3.3 0 .9.5 1.6 1.2 2.2.6.4 1.2.7 1.9.9 0 2 .1 4.2.3 6.6h-64.2zm0-22.7h5.7c6.2.6 10.5.3 14.9 0h14.9v-80.8h-43.6c-5.3-8.3-5.9-16.2-5.9-16.2-10.1 13.1-7.9 23.4-3 30.9v2.3l-.4 40.5h17.5zm18.5-109.6c-.1 0-.1 0 0 0l-1.7 3c.1.1.1.2.1.3-1.4 2.3-4 3.6-6.5 4.3s-5.1 1.1-7.7 1.1h-.3v.1s-9.2.8-16.5-2.9c0 0 5.1-8.9 14.1-12.3.9-.4 1.8-.7 2.7-1 3.2-1 6.7-1.3 10-.3 1.7.5 3.2 1.5 4.3 2.8s1.7 3 1.7 4.7c0 .1-.1.2-.2.2z" fill="#f6f7f7"/><path d="m215.1 208c-.7 8.7-2 22.1-4.3 32.3h18.2c-.5-3.4-2.5-17.2-4.2-32.4z" fill="none"/><g fill="#dcdcde"><path d="m96.6 36.3h-2.6v-2.6c0-.9-.8-1.7-1.7-1.7s-1.7.8-1.7 1.7v4.3c0 .9.8 1.7 1.7 1.7h4.3c.9 0 1.7-.8 1.7-1.7.1-.9-.7-1.7-1.7-1.7z"/><path d="m102.7 2.2c-.3-.9-1.3-1.3-2.2-.9-3 1.1-5.7 3.2-7.5 5.9-.5.8-.3 1.8.5 2.3h.1c.8.4 1.8.2 2.3-.5 1.4-2.1 3.5-3.7 5.8-4.6.8-.3 1.3-1.2 1-2z"/><path d="m326.5 14.9c-.9 0-1.6.8-1.6 1.7v8.8c0 .9.8 1.7 1.7 1.7s1.7-.8 1.7-1.7v-8.8c-.1-.9-.9-1.7-1.8-1.7z"/><path d="m92.2 26.8c.9 0 1.7-.8 1.7-1.7v-8.5c0-.9-.7-1.7-1.6-1.7s-1.7.8-1.7 1.7v8.6c-.1.8.7 1.6 1.6 1.6z"/><path d="m322.5 8.9c.5.7 1.5.9 2.3.5h.1c.8-.5 1-1.5.5-2.3-1.8-2.7-4.4-4.7-7.4-5.8-.9-.3-1.9.1-2.2 1v.1c-.3.8.2 1.8 1 2 2.3.9 4.3 2.5 5.7 4.5z"/><path d="m310.4 2c0-.9-.8-1.7-1.7-1.7h-8.5c-.9 0-1.7.8-1.7 1.7s.8 1.7 1.7 1.7h8.5c1 0 1.7-.7 1.7-1.7z"/><path d="m120.3 2c0-.9-.8-1.7-1.7-1.7h-8.8c-.9 0-1.7.8-1.7 1.7s.8 1.7 1.7 1.7h8.8c.9 0 1.7-.7 1.7-1.7z"/><path d="m292.9 2c0-.9-.8-1.7-1.7-1.7h-8.5c-.9 0-1.7.8-1.7 1.7s.8 1.7 1.7 1.7h8.5c1 0 1.7-.7 1.7-1.7z"/><path d="m179.2 3.7h8.8c.9 0 1.7-.8 1.7-1.7s-.8-1.7-1.7-1.7h-8.8c-.9 0-1.7.8-1.7 1.7-.1 1 .7 1.7 1.7 1.7z"/><path d="m161.7 3.7h8.8c.9 0 1.7-.8 1.7-1.7s-.8-1.7-1.7-1.7h-8.8c-.9 0-1.7.8-1.7 1.7 0 1 .8 1.7 1.7 1.7z"/><path d="m155.2 2c0-.9-.8-1.7-1.7-1.7h-8.8c-.9 0-1.7.8-1.7 1.7s.8 1.7 1.7 1.7h8.8c.9 0 1.7-.7 1.7-1.7z"/><path d="m137.7 2c0-.9-.8-1.7-1.7-1.7h-8.8c-.9 0-1.7.8-1.7 1.7s.8 1.7 1.7 1.7h8.8c.9 0 1.7-.7 1.7-1.7z"/><path d="m196.3 3.7h8.8c.9 0 1.7-.8 1.7-1.7s-.8-1.7-1.7-1.7h-8.8c-.9 0-1.7.8-1.7 1.7-.1 1 .7 1.7 1.7 1.7z"/><path d="m231.2 3.7h8.8c.9 0 1.7-.8 1.7-1.7s-.8-1.7-1.7-1.7h-8.8c-.9 0-1.7.8-1.7 1.7 0 1 .7 1.7 1.7 1.7z"/><path d="m276.2 2c0-.9-.8-1.7-1.7-1.7h-8.8c-.9 0-1.7.8-1.7 1.7s.8 1.7 1.7 1.7h8.8c1 0 1.7-.7 1.7-1.7z"/><path d="m213.6 3.7h8.5c.9 0 1.7-.8 1.7-1.7s-.8-1.7-1.7-1.7h-8.5c-.9 0-1.7.8-1.7 1.7.1 1 .8 1.7 1.7 1.7z"/><path d="m248.3 3.7h8.8c.9 0 1.7-.8 1.7-1.7s-.8-1.7-1.7-1.7h-8.8c-.9 0-1.7.8-1.7 1.7-.1 1 .7 1.7 1.7 1.7z"/><path d="m326.5 32.4c-.9 0-1.7.8-1.7 1.7v2.6h-2.6c-.9 0-1.7.8-1.7 1.7s.8 1.7 1.7 1.7h4.3c.9 0 1.7-.8 1.7-1.7v-4.3c0-1-.8-1.7-1.7-1.7z"/><path d="m230.3 36.5h-8.4c-.9 0-1.7.8-1.7 1.7s.8 1.7 1.7 1.7h8.4c.9 0 1.7-.8 1.7-1.7 0-1-.8-1.7-1.7-1.7z"/><path d="m213.6 36.5h-8.4c-.9 0-1.7.8-1.7 1.7s.8 1.7 1.7 1.7h8.4c.9 0 1.7-.8 1.7-1.7 0-1-.8-1.7-1.7-1.7z"/><path d="m247 36.5h-8.4c-.9 0-1.7.8-1.7 1.7s.8 1.7 1.7 1.7h8.4c.9 0 1.7-.8 1.7-1.7 0-1-.7-1.7-1.7-1.7z"/><path d="m280.5 36.5h-8.3c.6.1 1.2.3 1.8.5.8.3 1.5.7 2.1 1.2s1.1 1 1.6 1.7h2.9c.9 0 1.7-.8 1.7-1.7-.1-1-.9-1.7-1.8-1.7z"/><path d="m263.7 36.5h-8.4c-.9 0-1.7.8-1.7 1.8 0 .6.3 1.2.9 1.5l6.5-1.5 4.1-1c-.3-.5-.9-.8-1.4-.8z"/><path d="m313.9 36.5h-8.4c-.9 0-1.7.8-1.7 1.7s.8 1.7 1.7 1.7h8.4c.9 0 1.7-.8 1.7-1.7 0-1-.8-1.7-1.7-1.7z"/><path d="m297.2 36.5h-8.4c-.9 0-1.7.8-1.7 1.7s.8 1.7 1.7 1.7h8.4c.9 0 1.7-.8 1.7-1.7 0-1-.8-1.7-1.7-1.7z"/><path d="m130 36.5h-8.4c-.9 0-1.7.8-1.7 1.7s.8 1.7 1.7 1.7h8.4c.9 0 1.7-.8 1.7-1.7.1-1-.7-1.7-1.7-1.7z"/><path d="m146.8 36.5h-8.4c-.9 0-1.7.8-1.7 1.7s.8 1.7 1.7 1.7h8.4c.9 0 1.7-.8 1.7-1.7 0-1-.8-1.7-1.7-1.7z"/><path d="m113.3 36.5h-8.4c-.9 0-1.7.8-1.7 1.7s.8 1.7 1.7 1.7h8.4c.9 0 1.7-.8 1.7-1.7.1-1-.7-1.7-1.7-1.7z"/><path d="m180.2 36.5h-8.4c-.9 0-1.7.8-1.7 1.7s.8 1.7 1.7 1.7h8.4c.9 0 1.7-.8 1.7-1.7 0-1-.8-1.7-1.7-1.7z"/><path d="m196.9 36.5h-8.4c-.9 0-1.7.8-1.7 1.7s.8 1.7 1.7 1.7h8.4c.9 0 1.7-.8 1.7-1.7 0-1-.8-1.7-1.7-1.7z"/><path d="m163.5 36.5h-8.5c-.9 0-1.7.8-1.7 1.7s.8 1.7 1.7 1.7h8.4c.9 0 1.7-.8 1.7-1.7.1-1-.7-1.7-1.6-1.7z"/></g><path d="m269.1 241.8c0-.6 5.7-1.3 14.9-1.6-11.1 0-22.3-.1-33.4-.1-.1.4-.3.7-.7.9l-19.4-.3c0 .4-.3.8-.7.8h-.1c-.4 0-.8-.3-.9-.7l-.1-.8h-18c-.1.5-.3 1-.4 1.6l-23.2.3s-1.3-.8-.2-1.8l-64.6.1-12.8.1c-.8.1-1.6.2-2.3.2h-.3c-.7 0-1.4-.1-2-.2-23.3.2-46.7.5-70.1 1.2-.2 0-.3.2-.3.4 0 .1.1.3.3.3 29.2.9 58.4 1.1 87.6 1.3l87.6.2c24.7-.1 49.4-.1 74.1-.2-9.2-.5-15-1.1-15-1.7z" fill="#f6f7f7"/><path d="m200.3 207.9c.1 1.2.1 2.5.2 3.9.5 8.2 1.1 16.6-.3 21-.1.4-.4.6-.8.6h-.3c-.2-.1-.4-.2-.5-.4 0 .9-.2 1.7-.5 2.5-.8 1.6-7.7 3-10.3 4.3-.3.1-.6.3-.8.6l22.9-.1h.7c2.3-10.2 3.5-23.6 4.2-32.3h-14.5z" fill="#a7aaad"/><path d="m199.5 219.1c0 4.7-.2 9.4-.5 12.6.9-2.9.9-7.6.5-12.6z" fill="#a7aaad"/><path d="m203.4 201.8c-1.1 0-2.2-.1-3.3-.2 0 1.9.1 4 .3 6.3h14.9c.3-3.4.4-6 .5-7.4-2.5.4-7.8 1.3-12.4 1.3z" fill="#a7aaad"/><path d="m187.2 240c-1.1 1 .2 1.8.2 1.8l23.1-.3c.1-.5.3-1 .4-1.6h-.7z" fill="#a7aaad"/><path d="m249.7 238.7c-2.6-1.3-9.6-2.7-10.4-4.3-1-2 .6-16.6 1.8-26.6h-14.6c1.8 15.5 3.8 29.4 4.2 32.3h20.3c0-.3-.2-.8-1.3-1.4z" fill="#a7aaad"/><path d="m225.7 200.5c.3 2.5.5 5 .8 7.5h14.5c.4-3.8.8-6.9 1-8.6-3.6.5-9.5 1.1-14.3 1.1z" fill="#a7aaad"/><path d="m230.6 240.9v.2l19.3.3c.3-.3.6-.6.7-1.1h-20.1z" fill="#a7aaad"/><path d="m210.1 58.1s-2 .3-3.3-.4c-.3 1-.4 2-.5 3l3.3 1.1z" fill="#a7aaad"/><path d="m207.9 68.9c.1.2.3.5.4.7l2.2-.5c-.2-.2-.4-.4-.5-.7z" fill="#a7aaad"/><g fill="#a7aaad" transform="translate(212.41 62.116)"><path d="m9.7 10.4c-4.4 1-7.9-1.1-10.2-2.4-.3-.2-.7-.4-1-.7l-.2-.2c-1-.9-1.4-2.8-1.4-3.5l.3-2.3-3.2-1c0 .7.1 1.5.3 2.3.2 1.2 1.1 5.2 2.6 6.2.9.8 2 1.4 3.6 1.7.4.1.7.4.7.7l.6 4.7c0 .3-.1.7-.4.8 3.2-.1 6.4 0 9.7.2v-7c-.4.2-.9.4-1.4.5z"/><path d="m-2.7 5.6-2 .5c.1.3.2.5.3.8l2.1-.5c-.1-.3-.2-.5-.4-.8z"/></g><path d="m167.2 80.6c-.4 2.9.1 4.6 4.6 6.9.4.2.6.6.4 1l5.6-4.7c-.1-2.6-1-5-1.9-6.4l-1 .2v.1c.1 1.6.4 3.7-1.4 4.2-.6.2-1.3.2-1.9-.1-.7-.5-1.3-1.2-1.4-2.1-.1-.3 0-.6.3-.8l-3.9.8c.5.1.7.5.6.9z" fill="#a7aaad"/><path d="m174.8 76.8c0 .3 0 .7.1 1l1-.3-.6-.9z" fill="#a7aaad"/><path d="m198.2 200.8c-1.3-.4-2.2-1.1-2.3-2.2-.3-5-2.5-30.9.2-55.7-.1.1-.1.3-.2.4-3.6 23.1-1.8 43.4-1.1 52.1.1 1.4.2 2.5.3 3.3 0 .9.5 1.7 1.2 2.2.5.4 1.2.7 1.8.9v-.3c0-.4.1-.6.1-.7z" fill="#3895ba"/><path d="m216.9 200.2c.5-.1.8-.5.7-.9l-.9.1s-.3.1-.9.2v.8c.5 0 .9-.1 1.1-.2z" fill="#3895ba"/><path d="m200.1 201.8c1.1.1 2.2.2 3.3.2 4.5 0 9.8-.9 12.2-1.3v-.9c-2.7.5-10.5 1.8-15.4 1.2h-.2v.1c.1.2.1.4.1.7z" fill="#3895ba"/><path d="m196.1 198.2c.1 1.1 1 1.8 2.4 2.2.1-.2.4-.4.7-.4.4 0 .8.3.8.7h.3l15.5-1.6v.4c.6-.1.9-.2.9-.2l.9-.1v-.1c-.1-.4-.6-.7-1-.7-4.3.9-16.1 2.7-19.1.5-.3-.2-.5-.6-.5-.9 0-.8-.1-1.9-.3-3.4-.7-8.6-2.5-28.8 1.1-51.7.1-.4-.3-.9-.7-1-.3 0-.6.1-.8.3-2.9 25.1-.5 51-.2 56z" fill="#3895ba"/><path d="m215.7 199.8v-.4l-15.6 1.7c5 .6 12.9-.8 15.6-1.3z" fill="#3895ba"/><path d="m220.6 199.7c.7.4 1.8.7 3.2.8v-.3c0-.2 0-.3.1-.5-1.2-.1-2.2-.3-2.8-.7l-.9.1c.1.2.2.4.4.6z" fill="#3895ba"/><path d="m245 198.4s-1.1.2-2.8.4l-.1.9c1.5-.2 2.6-.4 3-.4.4-.1.7-.4.7-.9l-1.5-26.8c0-.4-.4-.8-.8-.8l.1.9z" fill="#3895ba"/><path d="m227.7 199.7-1.9.2.1.6h2.1c4.8 0 10.8-.6 14.5-1l.1-.8c-3.8.4-10.1 1-14.9 1z" fill="#3895ba"/><path d="m242.7 171.8 1.5 26.1c-7.8 1.1-20.1 2.2-22.5.7-1.3-1.5-1.6-18.8-1.1-34.7 0-.5-.3-.9-.8-.9-.4 0-.8.4-.9.8-.3 9.6-.8 31.4 1.3 35.6l.9-.1c.6.4 1.6.6 2.8.8.1-.2.4-.4.6-.4.4 0 .7.2.9.5h2l14.7-1.5v.3c1.8-.2 2.9-.4 2.9-.4l-1.5-26.9-.1-.9c-.4.1-.7.5-.7 1z" fill="#3895ba"/><path d="m242.4 198.2-14.9 1.5c4.9 0 11.2-.7 14.8-1.2z" fill="#bedae6"/><path d="m240.6 136 1.7 21.6.1.9c.5 0 .8-.4.8-.9l-1.8-22.5c.1.4-.2.9-.7 1-.1-.2-.1-.1-.1-.1z" fill="#3895ba"/><path d="m240.7 136.1h-.8l1.7 21.5c0 .4.4.8.8.8h.1l-.1-.8z" fill="#3895ba"/><path d="m244.2 162.1c.5 0 .9-.5.8-.9 0-.5-.5-.9-1-.8h-.1l-1.2.1.2 1.7z" fill="#3895ba"/><path d="m233.5 162.2c0 .4.4.7.9.7h.6v-.3c0-.4.4-.8.9-.8s.8.4.8.9l6.1-.6-.1-1.7-8.3.9c-.6 0-.9.4-.9.9z" fill="#3895ba"/><path d="m243.6 167.7c.5-.1.8-.6.7-1.1s-.6-.8-1.1-.7l.2 1.8z" fill="#3895ba"/><path d="m241.4 166.4c-1.3.1-2.6-.3-3.6-1.2-.7-.6-1-1.5-1-2.3l-1.7.2c0 1.3.6 2.5 1.5 3.4 1.2 1.1 2.7 1.7 4.3 1.7h.7l1.6-.4-.2-1.8z" fill="#3895ba"/><path d="m236.9 162.7c0-.5-.4-.8-.9-.9-.5 0-.9.3-1 .8v.3z" fill="#3895ba"/><path d="m254.7 59.7c.6 2.5-1.1 3.4-1.2 3.4-.2.1-.4.1-.7 0l-1.5 4.8.1.3 6.2 1c0-.1.1-.2.2-.3.3-.4.5-.7.6-1.1v-9.8l-4.3 1c.3.1.5.3.6.7z" fill="#a7aaad"/><path d="m248 64.3c.3 1.2.7 2.4 1.1 3.6l.4.1c-.4-1-1-2.4-1.5-3.7z" fill="#a7aaad"/><path d="m258.9 58.8c-.1-.3 0-.5.1-.8l-.6.2v9.9c1.3-3 1.5-6.2.5-9.3z" fill="#a7aaad"/><path d="m252.4 62.9c-.8-1.1-1.7-2.1-2.6-3l-1.4.3c.4 1.1.9 2.5 1.3 3.5.7 1.6 1.3 3.1 1.6 4.4l1.5-4.9c-.2 0-.3-.2-.4-.3z" fill="#a7aaad"/><path d="m248 59.7c.1.2.1.4.2.5l1.3-.3-.5-.5z" fill="#a7aaad"/><path d="m248.5 58.8-.5.1c0 .2.1.4.2.6l.9-.2c-.2-.2-.4-.4-.6-.5z" fill="#a7aaad"/><path d="m171.8 87.6c-4.3-2.3-4.8-4-4.4-7 .1-.5-.3-.9-.7-1-.5-.1-.9.3-.9.8-.5 3.6.2 6 5.3 8.8.1.1.3.1.4.1h.1l.1-.1.5-.5c.1-.4 0-.9-.4-1.1z" fill="#004e6e"/><path d="m177.2 76.1c-.2-.3-.4-.5-.6-.7l-.3-.3c-.5-.5-1.1-.7-1.8-.7-1 .1-1.2.9-1.3 1.8v.8c0 .2 0 .5.1.7v.1c.1.9.2 2.2-.2 2.3-.1.1-.4.1-.5 0-.3-.3-.5-.6-.5-1-.1-.4-.5-.7-1-.7-.4.1-.7.6-.7 1 .1.8.6 1.6 1.3 2.1.6.3 1.2.4 1.9.1 1.7-.6 1.5-2.7 1.3-4.2v-.1c0-.3 0-.6-.1-.8v-.6c.1.1.3.2.4.3l.1.1c.2.2.4.5.5.7.9 1.4 1.7 3.7 1.8 6.3l1.1-.9.4-.3.1.2c-.2-2-.8-3.9-1.7-5.7 0 0-.1-.3-.3-.5z" fill="#004e6e"/><path d="m241.3 134.9c0-.1 0-.1-.1-.2v-.2l-.1-.1h-1.7l-37.6.4h-1.7c-.5 0-.9.4-.9.9s.4.9.9.9l39.5-.4h.9c.4 0 .8-.4.8-.9z" fill="#004e6e"/><path d="m253.9 59.3h-.4c-.4.1-.7.6-.6 1 .1.3.1.6.1.8-.4-.4-.8-1-1.3-1.5l-.5-.5c-.2-.2-.4-.3-.6-.5-1-.9-2.1-1.6-3.1-1.7-.4 0-.9.2-1.1.5-.3.4-.3 1.1-.1 2.1 0 .2.1.4.2.6s.1.4.2.6c.3 1 .8 2.2 1.4 3.7.5 1.2 1 2.5 1.4 3.6l.9.1.8.1h.1l-.1-.3c-.4-1.2-1-2.7-1.6-4.3-.4-1-1-2.4-1.3-3.5-.1-.2-.1-.4-.2-.6 0-.2-.1-.4-.2-.6 0-.1-.1-.3-.1-.5.2.1.4.2.7.4s.4.3.7.5c.2.1.4.3.6.5 1 .9 1.8 1.9 2.6 3 .1.1.3.3.4.3.2.1.4.1.7 0 .1 0 1.7-.9 1.2-3.4-.2-.1-.5-.4-.8-.4z" fill="#004e6e"/><path d="m260.3 58.3c-.2-.4-.6-.7-1.1-.6s-.7.6-.6 1.1c.9 3 .7 6.2-.5 9.1-.2.4-.4.8-.7 1.2-.1.1-.2.2-.2.3l.9.1h.5s0 .3.1.7c0 0 .1 0 .1-.1 1.2-1.1 3.3-6.4 1.5-11.8z" fill="#004e6e"/><path d="m203 109.8c.4-.2.6-.7.4-1.1s-.7-.6-1.2-.4h-.1l-.9.5-6.3 3.4c-.4.3-.5.8-.3 1.2s.7.5 1.1.3l5.5-3z" fill="#004e6e"/><path d="m228.5 63.7c.1-.4.1-.8.1-1.1-.4.3-.9.5-1.3.7l-.2.1c-2 .8-4.1 1-6.2.4-4.4-1.1-8-5.1-9.7-9.2-.4-.9-.7-1.8-.9-2.8v-.1c-.1-.3-.1-.6-.1-.9s-.1-.6-.1-.9v-.2c0-.6 0-1.2.1-1.8-.9.7-1.6 1.5-2.2 2.5-.2.3-.4.7-.6 1s-.3.6-.5 1c-.3.7-.6 1.5-.9 2.3-.1.2-.1.4-.1.6v.1c-.2.4-.3.9-.4 1.3-.3-.1-.7-.1-1-.1-1.1.2-2.5 1.4-2.7 3.5-.2 1.6 0 3.9 1.4 4.8.3.2.7.3 1.1.3.3 0 .6-.1.9-.2v.2c.2 1.2.5 2.4.9 3.5.1.3.2.5.3.8s.2.5.4.8c1 1.9 2.6 3.4 5.4 4l.5 4.1c0 .3.2.5.5.7h.8c.3-.2.4-.5.4-.8l-.6-4.7c0-.4-.3-.7-.7-.7-2.3-.4-3.7-1.4-4.6-2.9-.1-.3-.3-.5-.4-.8s-.2-.5-.3-.8c-.4-1.1-.7-2.3-.9-3.4-.1-.8-.3-1.6-.3-2.4l3.1 1-.2 2.3c0 1.4.7 2.5.8 2.8.2.3.6.7.6.7.3.3.7.6 1.1.9 2.3 1.3 5.8 3.4 10.2 2.4.5-.1 1-.3 1.4-.5 2.2-1.2 3.7-3.6 4.6-6.6 0-.1.1-.2.1-.3.1-.3.1-.6.2-.8-.1-.4 0-.7 0-.8zm-24.6-.1c-.3-.2-.6-1-.7-2l1.5.5c0 .4 0 .9.1 1.3-.3.1-.7.3-.9.2zm.8-3.3-1.3-.4c.1-.4.4-.8.8-1.1.1-.1.3-.2.5-.3.1.1.1.1.3.2-.2.5-.2 1-.3 1.6zm5 1.6-3.3-1.1c0-1 .2-2.1.4-3.1 1.3.7 3.2.4 3.2.4z" fill="#004e6e"/><path d="m200.3 207.9c-.2-2.2-.2-4.3-.3-6.2v-.9c-.1-.4-.4-.7-.9-.7s-.9.4-.9.9v.3c0 2 .2 4.2.3 6.6l.3 3.9c.2 2.3.3 4.8.4 7 .2 5 .3 9.5-.4 12.5-.1.3-.2.6-.2.8-.2.4.1.9.6 1.1h.3c.4 0 .7-.3.9-.6 1.4-4.3.8-12.7.3-20.9-.2-1.3-.4-2.5-.4-3.8z" fill="#004e6e"/><path d="m230.5 240.2c-.4-2.9-2.4-16.8-4.1-32.2-.3-2.4-.5-4.9-.8-7.3l-.1-.6c0-.1 0-.1-.1-.2-.1-.4-.5-.6-.8-.5-.4.1-.8.5-.7.9v.3c.3 2.5.5 5 .8 7.4 1.7 15.1 3.6 28.8 4.1 32.2l.1.8c0 .4.4.7.8.7h.1c.4-.1.8-.5.7-1z" fill="#004e6e"/><path d="m210.1 49.6c0 .3 0 .6.1.9 0 .3.1.6.1.9v.1c.2.9.5 1.9.9 2.7 1.8 4.1 5.3 8.1 9.8 9.2 2.1.5 4.3.4 6.3-.4l.2-.1c.4-.2.9-.4 1.3-.7h.1c5.6-3.3 3.6-10.3-1.3-14.8-.3-.2-.5-.4-.8-.7s-.6-.4-.9-.7c-3.7-2.6-8.5-3.8-13.1-1.9-1.5.7-2.4 1.9-2.6 3.5-.1.6-.1 1.2-.1 1.7z" fill="#c3c4c7"/><path d="m258.6 70.4c-.1-.4-.1-.7-.1-.7h-.4l-.8-.1-6.1-1h-.1l-.8-.1-1-.1-.4-.1-.7-.1-1.9 17.5c-3.7-1.3-7.5-2.4-11.4-3.4-1.2-.8-2.4-1.4-3.7-1.9-1.1-.4-4.3-.8-7.9-1.1-3.2-.3-6.4-.3-9.6-.2h-1c-2.1.1-3.8.4-4.7.8-3.6 1.5-5.6 2.6-6.6 4.6-4.2 3.8-8 7.9-11.5 12.3l-10.5-13.8-.1-.2-.4.3-1.1.9-5.6 4.8-.6.4-.1.1-.2.2s9.5 26 20.6 24.4c.9-.1 1.8-.3 2.7-.5-.1-.4.1-.7.4-.9l6.2-3.4.9-.5c.4-.2.9 0 1.2.4.2.4.1.9-.3 1.1l-1.7.9.8 23.7 37.5-.4-.7-31.1c3.9.5 9.4.5 14.9-1.9 4.1-1.8 5.7-7.1 6.1-12.8.5-7.5-.9-15.7-1.3-18.1z" fill="#c3c4c7"/><path d="m311.1 88.2v-34.6h-35.8c-.8.4-1.6.7-2.5.9l-4.3 1-10.1 2.4v.2l.6-.1c.3-.4.8-.4 1.2-.2.1.1.3.3.3.4 1.6 5.4-.3 10.6-1.5 11.9 0 0-.1 0-.1.1.4 2.4 1.7 10.6 1.2 18z" fill="#c3c4c7"/><path d="m135.8 84.4-.3-.9c0-.3-.1-.6-.1-.8-.3-3.1.9-6.2.9-6.2.7-2.4-.1-4.8-.9-6.2-.1-.3-.3-.6-.4-.8-.3-.4-.4-.7-.4-.7-.4.1-.9.3-1.3.4-9 3.4-14.1 12.2-14.1 12.2 7.4 3.7 16.6 3 16.6 3z" fill="#c3c4c7"/><path d="m120.1 38.3c0-.9.8-1.7 1.7-1.7h8.4c.9 0 1.7.8 1.7 1.7h4.9c0-.9.8-1.7 1.7-1.7h8.4c.9 0 1.7.8 1.7 1.7h4.9c0-.9.8-1.7 1.7-1.7h8.4c.9 0 1.7.8 1.7 1.7h4.9c0-.9.8-1.7 1.7-1.7h8.4c.9 0 1.7.8 1.7 1.7h4.9c0-.9.8-1.7 1.7-1.7h8.4c.9 0 1.7.8 1.7 1.7h4.9c0-.9.8-1.7 1.7-1.7h8.4c.9 0 1.7.8 1.7 1.7h4.9c0-.9.8-1.7 1.7-1.7h8.4c.9 0 1.7.8 1.7 1.7h4.9c0-.9.8-1.7 1.7-1.7h8.4c.9 0 1.7.8 1.7 1.7h4.9c0-.9.8-1.7 1.7-1.7h8.4c.6 0 1.1.3 1.4.8 1.4-.3 2.8-.7 4.3-.9.9-.1 1.9-.1 2.8.1h8.2c.9 0 1.7.8 1.7 1.7h4.9c0-.9.8-1.7 1.7-1.7h8.4c.9 0 1.7.8 1.7 1.7h4.9c0-.9.8-1.7 1.7-1.7h8.4c.9 0 1.7.8 1.7 1.7h4.9c0-.9.8-1.7 1.7-1.7h2.6v-2.6c0-.9.8-1.7 1.7-1.7v-5.3c-.9 0-1.7-.8-1.7-1.7v-8.7c0-.9.7-1.7 1.6-1.7-.1-1.7-.6-3.5-1.4-5-.8.4-1.8.2-2.3-.5-1.4-2.1-3.5-3.8-5.9-4.6-.9-.3-1.3-1.2-1-2.1-1.1-.3-2.2-.4-3.3-.4h-1.9c0 .9-.8 1.7-1.7 1.7h-8.7c-.9 0-1.7-.7-1.7-1.7h-5.3c0 .9-.8 1.7-1.7 1.7h-8.6c-.9 0-1.7-.8-1.7-1.7h-5.3c0 .9-.8 1.7-1.7 1.7h-8.7c-.9 0-1.7-.8-1.7-1.7h-5.2c0 .9-.8 1.7-1.7 1.7h-8.7c-.9 0-1.7-.8-1.7-1.7h-5.2c0 .9-.8 1.7-1.7 1.7h-8.7c-.9 0-1.7-.8-1.7-1.7h-5.2c0 .9-.8 1.7-1.7 1.7h-8.7c-.9 0-1.7-.8-1.7-1.7h-5.2c0 .9-.8 1.7-1.7 1.7h-8.7c-.9 0-1.7-.8-1.7-1.7h-5.2c0 .9-.8 1.7-1.7 1.7h-8.7c-.9 0-1.7-.8-1.7-1.7h-5.3c0 .9-.8 1.7-1.7 1.7h-8.7c-.9 0-1.7-.8-1.7-1.7h-4.9c0 .9-.8 1.7-1.7 1.7h-8.7c-.9 0-1.7-.8-1.7-1.7h-5.2c0 .9-.8 1.7-1.7 1.7h-8.7c-.9 0-1.7-.8-1.7-1.7h-5.3c0 .9-.8 1.7-1.7 1.7h-8.7c-.9 0-1.7-.8-1.7-1.7h-1.9c-1.2 0-2.3.1-3.4.4.3.9-.2 1.8-1 2.1-2.4.9-4.4 2.6-5.8 4.7-.5.7-1.5 1-2.3.5-.8 1.6-1.3 3.3-1.4 5.1.9 0 1.6.8 1.6 1.7v8.7c0 .9-.8 1.7-1.7 1.7v5.2c.9 0 1.7.8 1.7 1.7v2.6h2.6c.9 0 1.7.8 1.7 1.7h4.9c0-.9.8-1.7 1.7-1.7h8.4c.9 0 1.7.8 1.7 1.7z" fill="#fff"/><path d="m310.4 103h-45.8c-4.2 0-7.6 3.4-7.6 7.6v74.6h42.4l-.6-16.6c0-.4.3-.7.7-.8l10.9.1z" fill="#fff"/><path d="m205.3 65.3v-.2c-.3.1-.6.2-.9.2-.4 0-.8-.1-1.1-.3-1.4-.9-1.6-3.1-1.4-4.7.3-2.1 1.6-3.3 2.8-3.5.3-.1.7 0 1 .1.1-.5.3-1 .5-1.5 0-.2.1-.4.1-.7.3-.8.6-1.5.9-2.3l-26.6 6.2-17 4-4.2 1c-4.2 1-6.8 5.3-5.7 9.6.6 2.4 2.3 4.4 4.6 5.4 1.2.5 2.5.7 3.9.6.6-.1 1.3-.3 2-.4l2.1-.5 7.1-1.7c0-.9.3-1.7 1.3-1.8.7-.1 1.3.2 1.8.7l.3.3 6.5-1.5 23-5.4c-.4-1.2-.7-2.4-1-3.6z" fill="#fff"/><path d="m204.7 58.4c-.2 0-.4.1-.5.3-.4.3-.6.7-.8 1.1l1.3.5c0-.6.1-1.1.2-1.7 0-.1-.1-.1-.2-.2z" fill="#fff"/><path d="m203.4 61.4c0 .9.3 1.6.6 1.8.2.1.6 0 .8-.2 0-.4-.1-.8-.1-1.2z" fill="#fff"/><path d="m268.2 54.6c1.3-.3 2.7-.6 4-.9 1.4-.3 2.8-.9 4-1.7 1.1-.8 1.9-2 2.1-3.3.2-1.4.1-2.8-.1-4.2l-.1-.6c-.1-.1-.1-.3-.2-.4-.1-.4-.2-.7-.3-1-.2-.6-.5-1.3-.9-1.8-.1-.2-.3-.4-.4-.6-.6-.7-1.4-1.3-2.3-1.7-.1-.1-.3-.1-.4-.2-1-.4-2-.6-3.1-.5-.3 0-.6 0-1 .1-1 .1-2.1.4-3.1.6-.4.1-.7.2-1.1.3l-6 1.5-11 2.6c-6.9 1.7-13.8 3.3-20.8 5 4.9 4.5 6.9 11.5 1.3 14.8v.5c0 .2-.1.4-.3.6v.1l17.7-4c-.2-1-.2-1.6.1-2.1.2-.4.7-.6 1.1-.5 1 0 2.1.7 3.1 1.7l.5-.1 7.1-1.6z" fill="#fff"/><path d="m135.2 82.5h.7c2.5.1 5-.1 7.4-.6 2.4-.6 4.8-1.5 6.3-3.3.1-.1.2-.1.3-.1l1.6-3-.1-.1c-.2-1.5-.9-3-2-4.1s-2.4-1.8-3.9-2.1c-3-.8-6.2-.3-9.1.7-.4.1-.7.3-1.1.4.7 1.4 1.6 3.7.9 6.2-.1-.1-1.3 2.9-1 6z" fill="#fff"/><path d="m241.5 166.2 1.6-.4h.1l-.3-3.6-6 .6c0 .9.3 1.7 1 2.3.9.9 2.3 1.3 3.6 1.1z" fill="#fff"/><path d="m243.5 170.6-.3-3.1-1.6.4h-.7c-1.6 0-3.2-.6-4.4-1.7-.9-.9-1.5-2.1-1.5-3.4h-.6c-.5 0-.9-.4-.9-.9 0-.4.3-.8.8-.9l8.3-.9-.2-2.1h-.1c-.4 0-.8-.3-.9-.8l-1.7-21.7-39.4.4c-.2 0-.4-.1-.5-.2-1.8 1-3 2.8-3.3 4.8-.1.6-.1 1.1-.2 1.6.2-.2.5-.3.8-.3.4.1.8.5.7 1-3.6 22.9-1.9 43-1.1 51.6.1 1.4.2 2.6.3 3.4 0 .4.2.7.5.9 2.9 2.3 14.7.4 18.9-.5.4-.1.9.2 1 .7v.1l2.8-.4c-2.1-4.1-1.6-25.8-1.3-35.4 0-.4.4-.8.9-.8s.9.4.9.9c-.5 15.8-.3 33.1 1.1 34.6 2.3 1.6 14.7.4 22.5-.7l-1.5-26c-.1-.1.2-.5.7-.6z" fill="#fff"/><path d="m220.9 199.6c-.2-.1-.4-.4-.4-.6l-2.8.4c.1.4-.2.9-.7.9-.2 0-.6.1-1.2.2-.1 1.5-.2 4.1-.5 7.4h9.7c-.3-2.5-.6-4.9-.8-7.4-1.5-.2-2.6-.5-3.3-.9z" fill="#f6f7f7"/><path d="m253.6 59.2h.4l4.4-1v-.2l-6.7 1.5c.5.5 1 1 1.4 1.5 0-.3 0-.6-.1-.8-.1-.4.2-.9.6-1z" fill="#f6f7f7"/><path d="m326.7 40h-4.3c-.9 0-1.7-.8-1.7-1.7h-4.9c0 .9-.8 1.7-1.7 1.7h-8.4c-.9 0-1.7-.8-1.7-1.7h-5c0 .9-.8 1.7-1.7 1.7h-8.3c-.9 0-1.7-.8-1.7-1.7h-4.9c0 .9-.8 1.7-1.7 1.7h-2.8c.7 1.1 1.3 2.5 1.2 3.8l.1.6c.4 1.5.5 3 .3 4.5-.2 1.6-1.1 3-2.3 3.9-.5.4-1 .7-1.6 1h35.8v34.8h-51c-.4 5.8-2.1 11.1-6.1 12.9-5.6 2.4-11.1 2.4-15 1.9l.7 31.2h1.8l.1.1v.5l1.8 22.5c0 .5-.3.9-.8.9l.2 2.1 1.1-.1c.5-.1.9.3 1 .7s-.3.9-.7 1h-.1l-1.1.1.3 3.8c.4-.1.9.2 1 .6s-.2.9-.6 1l-.2.1.3 3.1c.4 0 .9.3.9.8l1.5 26.8c0 .4-.3.8-.7.9s-1.6.2-3.1.4c-.2 1.6-.6 4.7-1 8.4h59.1l-.8-22.8h-42.6v-74.5c0-4.2 3.4-7.6 7.6-7.6h45.8v64.9h.9c3.6-2.6 10.6-1.7 15.3-1.3v-127z" fill="#f6f7f7"/><path d="m248.4 67.9.7.1c-.3-1.2-.7-2.4-1-3.6-.6-1.5-1.1-2.8-1.4-3.7l-18.5 4.5c-.8 3.1-2.4 5.8-4.7 7v7.1c3.7.3 6.9.7 8 1.1 1.3.4 2.6 1.1 3.7 1.9 3.9.9 7.7 2.1 11.4 3.4z" fill="#f6f7f7"/><path d="m212.8 78.4-.5-4.1c-2.8-.6-4.4-2.1-5.4-4l-23.3 5.4-5.8 1.3c1 1.8 1.6 3.8 1.7 5.8l10.6 13.8c3.6-4.4 7.4-8.5 11.6-12.3 1-2 3-3 6.7-4.6 1-.4 2.7-.6 4.8-.8v-.1c-.3 0-.3-.2-.4-.4z" fill="#f6f7f7"/><path d="m162.9 60.8-4.3 1c-5.1 1.3-8.2 6.5-6.9 11.6.7 3 2.8 5.4 5.7 6.6 1.5.6 3.1.8 4.7.6.8-.1 1.5-.3 2.2-.4l2.1-.5 6.8-1.6v-.1c0-.2 0-.5-.1-.7v-.9l-7.1 1.7-2.1.5c-.7.2-1.4.3-2 .4-1.3.1-2.6 0-3.8-.5-4-1.6-5.9-6.2-4.3-10.3.9-2.3 2.9-4.1 5.3-4.7l4.2-1 17-4 26.5-6.2c.1-.3.3-.7.5-1s.4-.7.6-1l-28 6.6z" fill="#c3c4c7"/><path d="m279 43.4c.1-1.3-.5-2.6-1.2-3.7-.4-.6-.9-1.2-1.5-1.7s-1.3-.9-2-1.2c-.6-.2-1.2-.4-1.7-.5-.9-.2-1.9-.2-2.8-.1-1.6.2-2.9.6-4.3.9l-4.1.9-6.5 1.4-6.5 1.4c-7.4 1.7-14.8 3.3-22.2 5 .3.2.6.4.9.7.3.2.5.4.8.7 7-1.6 13.9-3.3 20.8-5l11-2.6 6-1.4c.4-.1.7-.2 1.1-.3 1-.3 2-.5 3.1-.6.3 0 .6-.1 1-.1 1 0 2.1.1 3.1.5.1 0 .3.1.4.2.9.4 1.7 1 2.3 1.7.1.2.3.4.4.6.4.6.7 1.2.9 1.8.1.3.2.6.3 1 .1.1.1.3.2.4l.1.6c.3 1.4.4 2.8.1 4.2-.3 1.3-1 2.5-2.1 3.3-1.2.8-2.6 1.4-4.1 1.7-1.3.3-2.7.6-4 .9l-9.9 2.2-7.1 1.6-.6.2c.2.1.4.3.6.5l.5.5 6.6-1.6 10.2-2.4 4.3-1c.9-.2 1.7-.5 2.5-.9.6-.3 1.1-.6 1.6-1 1.3-1 2.1-2.3 2.3-3.9.2-1.5.1-3-.3-4.4z" fill="#c3c4c7"/><path d="m206.1 68.4-22.9 5.5-6.4 1.5c.2.2.4.5.6.8.1.2.3.5.5.8l5.8-1.4 23.2-5.6c-.1-.3-.3-.5-.4-.8-.2-.2-.3-.5-.4-.8z" fill="#c3c4c7"/><path d="m246.5 59.5-17.8 3.9c0 .3-.3 1.3-.4 1.6l18.6-4.3c-.1-.2-.1-.4-.2-.6 0-.2-.1-.4-.2-.6z" fill="#c3c4c7"/><path d="m145.9 67.9c-3.3-1-6.8-.7-9.9.3-.9.3-1.8.6-2.7 1 .4-.1.8-.3 1.3-.4 0 0 .2.2.4.7.1.2.3.5.4.8.4-.1.7-.3 1.1-.4 2.9-1 6.1-1.4 9.1-.7 1.5.3 2.8 1.1 3.9 2.1 1.1 1.1 1.8 2.5 2 4.1 0 0 0 .1.1.1h.1c.1 0 .2-.1.2-.2 0-1.7-.6-3.3-1.7-4.6s-2.6-2.3-4.3-2.8z" fill="#c3c4c7"/><path d="m150.2 78.5c-.1-.1-.2 0-.3.1-1.6 1.8-4 2.8-6.3 3.3-2.4.5-4.9.7-7.4.6h-.7c0 .3.1.5.1.8.1.3.1.5.2.8h.3c2.6 0 5.2-.4 7.7-1.1s5-2 6.4-4.2c.1 0 .1-.2 0-.3z" fill="#c3c4c7"/><path d="m59 81.1.2.7h.5z" fill="#f6f7f7" transform="translate(19.681 77.366)"/><path d="m303.3 216c-1.3-1.6-2.2-3.6-2.3-5.7-.1-2-.1-3.8-.3-5.8l-.4-11.4-.2-6.4h-59c-1.2 10-2.7 24.5-1.7 26.4.8 1.6 7.7 2.9 10.3 4.2 1.1.6 1.3 1.1 1.3 1.5 11.1 0 22.3.1 33.4.1 6-.3 13.4-.5 21.7-.6-1.1-.5-2.1-1.3-2.8-2.3z" fill="none"/><path d="m385.5 220.1c-10.4-.2-20.8-.4-31.2-.5 4 .3 6.4.7 6.4 1.2 0 .4-2.3.8-6.4 1.2 10.4-.1 20.8-.3 31.2-.5.4 0 .7-.3.7-.7s-.4-.7-.7-.7z" fill="#f6f7f7"/><path d="m354.3 219.6c-2.7-.2-6.2-.4-10.2-.6-.3.2-.7.3-1 .5-1.9.8-4 1.2-6.1 1.1h-22.8c-2.4.1-4.8-.3-7-1.5-.4-.2-.8-.4-1.2-.7-8.2.1-15.7.3-21.7.6-9.1.4-14.9 1-14.9 1.7s5.7 1.3 14.9 1.7c8.1.4 18.9.6 30.7.6 16.7 0 31.3-.4 39.3-1.2 4-.3 6.4-.7 6.4-1.2 0-.3-2.3-.7-6.4-1z" fill="#c3c4c7"/><path d="m339.8 151.8c-1.4-.5-7.2-1.6-13.4-2.5-3.6-.5-7.2-1-10.2-1.4h-6l-10.1.1.7 15.8 1 22.8.3 6.3.4 11.4c.1 1.9.1 3.9.3 5.7.2 1.7.9 3.3 2 4.7 1.1 1.3 2.5 2.4 4.2 3 .6.3 1.3.5 2 .6 1.1.2 2.2.3 3.2.2h23.6c3.4 0 6.6-1.4 8.6-4 1.1-1.4 1.7-3 1.9-4.8l.4-5.7.8-11.4c.5-7.1 1-14.1 1.6-21.2-6.1-7.1-1.5-15.9-11.3-19.6zm-30.6 52.6c0 .1-.1.2-.3.1-.1 0-.1-.1-.1-.1-.8-2.5-.8-4.9-1-7.4-.1-2.5-.3-4.9-.4-7.4 0-.9 0-1.9-.1-2.8 0-1.6-.1-3.1-.1-4.7 0-2.5-.2-5 .4-7.5 0-.1.1-.2.3-.1.1 0 .1.1.1.1.8 2.5.8 4.9 1 7.4l.3 4.8c0 .9.1 1.8.1 2.7.1 2.5.1 5 .2 7.4s.2 5-.4 7.5z" fill="#fff"/><path d="m7.8 3.6h2.6v1.5c-3.6-.6-7.2-1.1-10.2-1.4-3.1-.3-5.3-.5-6-.3v-.2c0-.1.1-.1.1-.2h16v.6h-7.6zm27.4 23.9c-6.1-7.5-1.7-16.3-11.4-19.9-1.4-.6-7.3-1.6-13.4-2.5v-1.5h-.1v-.6h16.9c0 .2-.1.3-.3.3h-1.1 1.2c.2 0 .3-.1.3-.3h9.6c.1.1.2.3.3.4 0 .1.1.2.1.3v.1c.1.1.1.2.2.2 2.4 4.3 1.5 11.5.5 16.2-.4 1.9-1 3.8-1.6 5.7-.2.5-.4.9-.7 1.4-.1.2-.4.3-.5.2zm-24.8-25v-1.4c.8.1 1.5.1 2.2.1 5.7.2 16.9-2.7 21.9-.1.9.4 1.7 1.1 2.3 1.9h-9.6c0-.1 0-.2-.1-.2l.2.2h-16.9zm-15.2-.1c3.6-2.6 10.5-1.7 15.2-1.3v1.4h-5.2l-10-.1zm-.8.6c.2-.2.5-.4.8-.7l10 .1h5.2v.6z" fill="#c3c4c7" transform="translate(316.017 144.317)"/><path d="m351.2 171.8c-.6 7.1-1.1 14.1-1.6 21.2l-.8 11.4-.4 5.7c-.2 1.7-.9 3.4-1.9 4.8-2 2.6-5.3 3.9-8.6 4h-23.6c-1.1 0-2.2 0-3.2-.2-.7-.1-1.4-.3-2-.6-1.6-.6-3-1.7-4.2-3.1s-1.8-3-2-4.7c-.1-1.8-.2-3.8-.3-5.7l-.5-11.4-.3-6.3-1-22.8-.7-15.8 10.1-.1h6c-3-.3-5.3-.5-6-.3-.1 0-.1 0-.1.1 0-.1.1-.1.1-.2s.1-.1.1-.2c.2-.3.5-.4.7-.7h-.9l-10.8-.1c-.4 0-.7.4-.7.8l.6 16.5.8 22.8.2 6.4.4 11.4c.1 1.9.1 3.8.3 5.8.2 2.1 1 4.1 2.3 5.7.8 1 1.7 1.8 2.7 2.5.4.3.8.5 1.2.7 2.2 1.1 4.6 1.6 7 1.5h22.8c2.1.1 4.2-.3 6.1-1.1.3-.1.7-.3 1-.5 1.4-.7 2.7-1.8 3.7-3.1 1.3-1.6 2.1-3.6 2.3-5.7l.4-5.7.7-11.4c.4-7.6.9-15.2 1.3-22.9-.2.5-.4.9-.7 1.4-.1-.1-.4.1-.5-.1z" fill="#c3c4c7"/><path d="m309.1 180.9c-.1-1.6-.1-3.2-.3-4.8-.1-2.5-.2-5-1-7.4 0-.1-.1-.2-.3-.1-.1 0-.1.1-.1.1-.6 2.5-.4 5-.4 7.5 0 1.6.1 3.1.1 4.7 0 .9 0 1.9.1 2.8.1 2.5.2 4.9.4 7.4.1 2.5.2 5 1 7.4 0 .1.1.2.3.1.1 0 .1-.1.1-.1.6-2.5.4-5 .4-7.5s-.1-5-.2-7.4c0-.9 0-1.9-.1-2.7z" fill="#c3c4c7"/><path d="m116.9 120.1c1.9 2.6 6 5.4 9.1 4.8 6.8-1 8.8-8.2 5-13.1-.3-.4-.7-.9-1.1-1.3-1.8-1.9-3.4-3.9-4.8-6.1-5.3-8.4-5.9-16.2-5.9-16.2-10.1 13.2-7.9 23.4-3 31 .3.3.4.6.7.9z" fill="#c3c4c7"/><path d="m130.1 110.6c.4.4.8.9 1.1 1.3 3.7 4.8 1.7 12.1-5 13.1-3.2.6-7.3-2.2-9.1-4.8-.2-.3-.4-.6-.7-1v2.3l-.6 57.9.1-.1c.1-7 .4-18 .4-19.9 6.8 0 11.1-1.5 16.1-6 4.1-3.6 7.9-8 13.3-9.9 4.2-1.5 9.2-.7 12.8-3.5 3.3-2.6 5-6.5 9.9-6.5.1 15.2.3 36.3.5 51.6v-80.7h-43.6c1.4 2.2 3 4.3 4.8 6.2z" fill="#fff"/><path d="m158.6 140.1c-3.6 2.8-8.6 2.1-12.8 3.5-5.4 1.9-9.2 6.3-13.4 9.9-5.1 4.5-9.4 6-16.2 6 0 1.9-.3 18.7-.4 25.7.1 0 21.8 0 23.3.1 6.2.6 10.6.3 14.9 0s8.7-.6 14.9 0c-.1-15.2-.3-36.5-.5-51.7-4.8-.1-6.5 3.9-9.8 6.5z" fill="#c3c4c7"/></g></svg>
