<svg id="Layer_1" xmlns="http://www.w3.org/2000/svg" viewBox="0 0 388 197"><style>.st0{fill:#fff}.st1{fill:#c3c4c7}.st2{fill:#c3c4c7}.st5{fill:#dcdcde}.st7,.st8{fill:none;stroke:#c3c4c7;stroke-linecap:round;stroke-linejoin:round}.st8{stroke:#004e6e}.st9{fill:#004e6e}.st10{fill:none;stroke:#3895ba;stroke-linecap:round;stroke-linejoin:round}.st12{fill:#004e6e}</style><path class="st0" d="M51 120l-6-14.3 1-14.4L57.9 81l5.7 3.6 1.1 5.4-3.9 12.9.9 7-5.4 10.9-4.6 3.1-.7-3.9z"/><ellipse transform="rotate(-5.957 315.248 122.371)" class="st0" cx="315.3" cy="122.4" rx="6" ry="9.3"/><path class="st0" d="M93.3 58.3h205.6v146H93.3v-146z"/><path class="st1" d="M17.3 47.4c3.3-.1 6.4-.3 9.7-.3s6.4-.1 9.7-.1l-.7.4c1-3.1 2.2-6.1 4-8.9 1.8-2.7 4-5.3 7.1-6.7 6.5-3 14.6 1.5 16.1 8.3.1.9.1 1.8 0 2.7s-.7 1.9-1.6 2.5c-.9.6-1.9.7-2.8.7s-2.1-.1-2.8-1.2c-.7-.9-.7-2.2-.4-3 .3-.9.7-1.6 1.3-2.4 1.6-1.2 3.1-2.2 4.8-2.7 1.6-.6 3.4-.7 5.1-.6 1.6.1 3.4.7 4.8 1.9 1.3 1.2 2.1 2.8 2.5 4.5.4 1.6.4 3.3.3 5l-.6-.7c7 0 14 .1 21 .3.1 0 .3.1.3.3s-.1.3-.3.3c-7 .1-14 .3-21 .3-.3 0-.6-.3-.6-.6.3-3-.3-6.4-2.4-8.2-1-.9-2.5-1.5-4-1.5-1.5-.1-3 0-4.5.4-1.3.4-2.7 1.3-3.6 2.4-.4.6-.9 1.2-1 1.8s-.1 1.2.1 1.5c.4.7 2.5.7 3.3 0 .9-.6 1.2-2.1.9-3.6-.6-2.8-2.7-5.3-5.2-6.7-1.3-.7-2.8-1-4.3-1.3-1.5 0-3 0-4.3.7-2.8 1.2-4.9 3.6-6.5 6.1-1.8 2.5-3.1 5.5-4 8.5-.1.3-.3.4-.6.4-3.3 0-6.4-.1-9.7-.1s-6.4-.1-9.7-.3c-.4.2-.5.2-.4-.1-.1.1 0 0 0 0"/><path class="st0" d="M94.1 203.5l-.2-151.6"/><path class="st1" d="M94.2 203.5c-1-12.6-1-25.3-1-37.9l-.2-37.9V89.8c0-12.6 0-25.3.9-37.9h.6c1 12.6 1 25.3 1 37.9l.2 37.9-.1 37.9c0 12.6 0 25.3-.9 37.9h-.5z"/><path class="st0" d="M297.9 58.7v142.9H121.7"/><path class="st1" d="M297.7 58.8c.4 11.9.6 24 .7 35.9s.1 24 .3 35.9l.1 72v1.7h-1.6l-43.9.2-43.9-.2-43.9-.2c-14.6-.2-29.3-.3-43.9-1.2v-.8c14.6-.9 29.3-1.1 43.9-1.2l43.9-.2 43.9-.2 43.9.2-1.6 1.7.1-72c.1-11.9.1-24 .3-35.9.1-11.9.4-24 .7-35.9h.9v.2h.1z"/><path class="st2" d="M92.9 58.7V39.2c0-6.7 5.6-12.2 12.3-12.2h181.4c6.7 0 12.3 5.5 12.3 12.2v19.4h-206v.1z"/><path d="M309.4 58.7h-227" fill="#e6f1f5"/><path d="M309.4 59.5c-18.9 1-37.8 1-56.8 1l-56.8.1-56.8-.1c-18.9 0-37.8 0-56.8-1v-.6c18.9-1 37.8-1 56.8-1l56.8-.1 56.8.1c18.9 0 37.8 0 56.8 1v.6z" fill="#004e6e"/><path class="st1" d="M112.1 186.3h45.5V78.8h-45.5m159.9 17h-76v-17h80.8V91c0 2.5-2.2 4.8-4.8 4.8"/><path class="st5" d="M188.7 96.1h-16.3V84.7c0-2.8 2.2-4.9 4.9-4.9h11.2v16.3h.2z"/><path class="st1" d="M272.9 185.3h-76.5v-29.7h81.4v24.7c0 2.7-2.2 5-4.9 5"/><path class="st5" d="M188.7 171.9h-16.3v-11.3c0-2.8 2.2-5 4.9-5h11.2v16.3h.2zm0-25.4h-16.3v-11.3c0-2.8 2.2-5 4.9-5h11.2v16.3h.2z"/><path class="st1" d="M272.9 143.1h-76.5v-37.4h81.4v32.5c0 2.6-2.2 4.9-4.9 4.9"/><path class="st5" d="M188.7 122h-16.3v-11.4c0-2.8 2.2-5 4.9-5h11.2V122h.2z"/><path class="st0" d="M146.6 103.8c0 6.9-5.6 12.5-12.5 12.5s-12.5-5.6-12.5-12.5 5.6-12.5 12.5-12.5c6.8-.2 12.5 5.6 12.5 12.5"/><path d="M.1 237.3c34.1-.7 68.3-.8 102.4-1l102.4-.1 102.4.3 51.2.3 25.6.1 25.6.3c.1 0 .3.3.3.5s-.1.5-.3.5l-25.7.3-25.6.1-51.2.3-102.4.1-102.2-.1c-34.1-.1-68.3-.3-102.4-1 0 0-.1-.1-.1-.3-.1-.1 0-.3 0-.3" fill="#f6f7f7"/><path class="st1" d="M340.8 100.9l-1.6-5.1c-4.3.6-6.2-1.8-7.9-5.5-.5-1-2.6-.9-2.8-2.1-.2-1.6 2.3-2.7 2.2-5.9 0-1.8.3-4.2 2.2-4.5 0 0 8.4 3.4 12.6 7.7 1.9 4.9 2.9 7.3 2.9 7.3l2.2 5.1-9.8 3z"/><path class="st0" d="M103.9 65.7c0 1.2-1.1 2.2-2.3 2.2s-2.3-1-2.3-2.2 1.1-2.2 2.3-2.2 2.3 1 2.3 2.2M59.2 169c6 12.5 6.9 17.6 6 24.7-1 7.1-7.3 16.5-7.3 16.5"/><path class="st7" d="M59.2 169c6 12.5 6.9 17.6 6 24.7-1 7.1-7.3 16.5-7.3 16.5"/><path class="st2" d="M40.1 119.1c-1.8 10.7-2.3 30.8-2.3 30.8l20.6.9s4-23.1 1.7-27.4"/><path class="st0" d="M61.4 105.7c1.8 14.4-5.1 19.3-7.4 16.5"/><path class="st7" d="M61.4 105.7c1.8 14.4-5.1 19.3-7.4 16.5"/><path class="st0" d="M63.6 84.6c1.8 1.1 2.9 2.6 3.2 4.6.5 3.5 3.5 4.3 3.5 6.2 0 1.4-2.4 1.5-2.7 2.8-1.3 4.3-4.8 7.5-9.7 7.5"/><path class="st8" d="M63.6 84.6c1.8 1.1 2.9 2.6 3.2 4.6.5 3.5 3.5 4.3 3.5 6.2 0 1.4-2.4 1.5-2.7 2.8-1.3 4.3-4.8 7.5-9.7 7.5m6.2-6.8c.6 1.4 2.1 2 2.1 2"/><path class="st9" d="M64.5 95.5c-.3 0-.6-.3-.6-.6v-1.1c0-.3.3-.6.6-.6s.6.3.6.6v1.1c0 .3-.3.6-.6.6m-20.6 17.6c5.7-2.4 17.5 19.1 17.5 19.1L73.3 113l6.6 2.7s-6 27.1-17.8 28.3c-11.6 1.1-21-16.3-21-16.3s-4.6-11.6 2.8-14.6"/><path class="st0" d="M27.2 224.8l12-15.4.7 28.7z"/><path class="st0" d="M39 147.9c-5.5 13.4.9 90.2.9 90.2h15.5s7.8-73.8 2.4-89.3"/><path class="st7" d="M39 147.5c-5.3 13.2.9 88.7.9 88.7H55s7.6-72.5 2.4-87.8m5.3-63.8c-3.7 3.1-4 11.1-4.7 14.5-.9 4.3-2.4 8.4 1.5 8.7"/><path class="st0" d="M42.1 105.7c-3.9-8.6.3-22.9 9.4-24.8 3-.6 6.6.9 8.3 1.5"/><path class="st7" d="M43.6 106.2c-4.2-8.8.3-23.4 10.1-25.3 3.3-.6 7.2.9 9 1.5M37.5 211.2l-10.3 13.6L40 238.1"/><path class="st0" d="M72.3 113.6c.3-4.4 2.2-17.3 4-16.6 1.9.9.4 7.1.9 9.3.5 2.2 1.5 5-.1 8.9"/><path class="st8" d="M72.3 113.6c.3-4.4 2.2-17.3 4-16.6 1.9.9.4 7.1.9 9.3.5 2.2 1.5 5-.1 8.9"/><path class="st0" d="M50.2 98c0 3.8 1.4 7 2.9 7.7"/><path class="st7" d="M50.3 98c0 4 1.8 7.4 3.8 8.2m-13.5 50.9l4.6 8"/><path class="st0" d="M43.7 98c-2.7 9.8-.9 23.6 9.4 21.9"/><path class="st7" d="M43.7 98c-2.7 9.8-.9 23.6 9.4 21.9"/><path class="st0" d="M311.4 142l1.4 14s7.9 19.8 1.4 12.3c8.7 9.9 18.9-2.4 19.2-14 .3-12.8-4.2-21.5-9.4-24-2.8-1.4-7-.2-9.1 2-2.6 2.4-3.8 6-3.5 9.7"/><path class="st10" d="M311.4 142l1.4 14s7.9 19.8 1.4 12.3c8.7 9.9 18.9-2.4 19.2-14 .3-12.8-4.2-21.5-9.4-24-2.8-1.4-7-.2-9.1 2-2.6 2.4-3.8 6-3.5 9.7z"/><path class="st7" d="M318.2 124c-6.6-1.2-8.7 6.3-8.7 6.3m5.4.8c-2.8-.3-8.5-.3-9.3 2.9-.3 1.2.3 3.4 1.7 4.3m8.9-10.4c3.4-2.3 7.4-3.5 9.9-1.1 1.1 1.1.8 4-1.7 5.7"/><path class="st0" d="M342.4 237.1l10.4-40.2s14.3 28.8 22.3 38.3l9.9-14.8s-18-31.6-18.5-37.6l-30.3 2.3-9.5 50.1 15.7 1.9z"/><path class="st8" d="M365.3 170.9c-1.9 12.9 19.7 49.5 19.7 49.5l-9.9 14.8s-18.9-27.8-22.7-39.5"/><path class="st8" d="M336.2 186.7l-9.5 48.5 15.7 1.9 14.9-57.5"/><path d="M346.9 104.3c-10.9 5.7-10.1 22.9-11.3 30.6-1.3 7.8-3.1 52.3-3.1 52.3l41.2-1.6c-.1 0 1.1-95.7-26.8-81.3" fill="#3895ba"/><path class="st2" d="M309.4 190.1l-7 40.9c-.1 1.2-1.1 2.1-2.3 2.3-2 .3-5 1.2-5 3.8 0 .6 5.2.9 9.2 1.1 2.6 0 5-1.7 5.7-4.4l11.9-40"/><path class="st2" d="M319 195.5l22.4 34.9c.7 1.1.6 2.4-.1 3.3-1.3 1.7-3 4.5-1.2 6.3.4.5 4.5-3 7.6-5.9 2.1-1.8 2.5-4.8 1.3-7.2l-18.1-37.7"/><path class="st12" d="M305.6 106.5l3.2 10.5c.9 2.7 3.4 4.4 6 4l8-1.4c0-.1-4.4-17.9-17.2-13.1"/><path class="st8" d="M334.3 90.3c-.5 1.4-1.9 1.9-1.9 1.9"/><path class="st0" d="M311 157.2l-8.3 59.8 46.9-5.9-19.3-55.5-19.3 1.6z"/><path class="st10" d="M311 157.2l-8.3 59.8 46.9-5.9-19.3-55.5-19.3 1.6z"/><path class="st2" d="M318.6 135.7c-5.2 1.8-.6 23.9-.6 23.9l-4.7 19.6 1.7.3c3.8.7 7.6-1.3 8.5-4.7l4.1-13.4c0-.1 0-29-9-25.7"/><path class="st8" d="M356.5 116.2c2.2 17 3.4 21.8-3.3 32.4-3.3 5.3-9.4 11.7-9.4 11.7m1.7-37.2s-.1 7.1 0 10.2m-2.5 3.2l5.4-.8m-7.4 3l3 1.5"/><path d="M336.2 149.8l10.3 18.3" fill="none" stroke="#fff" stroke-linecap="round" stroke-linejoin="round"/><path class="st8" d="M341.4 140l-5.2 9.8m6.6-66.2l-15.5-3.8m.5-2.5l-1.1 5.4m7-9.6c.3 5.1 9.3 6.8 12.1 10.4 2.8 3.6 1.7 6.8 1.7 6.8"/><path class="st8" d="M337.2 73.7c2.6-3.9 13.2-3.6 16.5 2 4.1 7-.8 17.4-.8 17.4"/><path class="st10" d="M341 109.8l-2.8-8.4 15.3-5.3-15.3 5.3 1.3 5.2"/><path class="st8" d="M333 76.9c-1.4 1.2-2.2 2.7-2.2 4.5 0 3.3-2.5 4.3-2.2 5.9.2 1.2 2.4 1 2.8 2.1 1.7 3.7 3.5 6.1 8 5.5l1.6 5.1"/><path class="st12" d="M320.4 109.5H318v-2.4c0-1.3 1.1-2.4 2.4-2.4s2.4 1.1 2.4 2.4-1 2.4-2.4 2.4"/><path class="st0" d="M306.6 107.6c-1.9.9-2.5 2.3-2.8 4.1-.4 3.4-3 4-3 5.6 0 1.2 2.1 1.4 2.4 2.6 1 4 4 6.9 8.2 6.9"/><path class="st8" d="M306.6 107.6c-1.9.9-2.5 2.3-2.8 4.1-.4 3.4-3 4-3 5.6 0 1.2 2.1 1.4 2.4 2.6 1 4 4 6.9 8.2 6.9"/><path d="M306.5 122c-.9.5-1.9.5-1.9.5" fill="none" stroke="#004e6e" stroke-width="1.105" stroke-linecap="round" stroke-linejoin="round"/><path class="st12" d="M305.7 106.6c-.9 1.7-2 4.1-2 4.1l4.8.6-.2-3.1-2.6-1.6"/><path class="st9" d="M305 118.1c.2 0 .4-.3.4-.5v-.9c0-.3-.2-.5-.4-.5s-.4.3-.4.5v.9c0 .3.2.5.4.5"/></svg>
