<svg viewBox="0 0 388 197" xmlns="http://www.w3.org/2000/svg"><path d="m135.4 111h81.3v87.7h-81.3z" fill="#f6f7f7"/><g transform="translate(53 -42)"><path d="m175.5 282.1c-1.6.8-3.2 1.6-4.9 2.1h4.8c0-.7 0-1.5.1-2.1z" fill="none"/><path d="m258.4 280.8c-1.3-1.5-2-3.4-2.2-5.4-.1-1.9-.2-3.6-.2-5.5l-.4-10.8-.2-5.3h-51.7l4.5 21.3c.2-.1.4 0 .5.1 5.2 5.1 9.3 7.6 10.4 9 14.8 0 29.6.1 44.5.1-2.1-.6-3.8-1.9-5.2-3.5z" fill="none"/><path d="m200.8 281.2.3 3h7.4c-3.5-1.1-6.7-2.4-7.7-3z" fill="none"/><path d="m199.8 280.3c-1.3-1.3-1.5-3.2-.5-5.9-1.7-6.7-4.4-8.9-6.9-20.6h-13c.1.6.2 1.2.3 1.9 1.1 7.2-1.9 13.1-2.7 19.8 1 2.7.8 4.4-.4 5.7 0 .2-.1.5-.1.7-.1.8-.2 1.5-.4 2.3h24.3c-.2-1-.4-2.1-.6-3.1z" fill="none"/><path d="m292.8 95c-.9 0-1.6-.7-1.6-1.6h-4.7c0 .9-.7 1.6-1.6 1.6h-8c-.9 0-1.6-.7-1.6-1.6h-4.7c0 .9-.7 1.6-1.6 1.6h-8c-.9 0-1.6-.7-1.6-1.6h-4.7c0 .9-.7 1.6-1.6 1.6h-8c-.9 0-1.6-.7-1.6-1.6h-4.7c0 .9-.7 1.6-1.6 1.6h-4.6l-1.1 4.8c.8 2 1 4.2.7 6.3-.2 1.6-1.6 2.7-3 3.8l-8.2 35.9c-.1.3-.2.5-.5.7-.2.1-.5.2-.8.1l-8.1-1.8c-2.7 3-5.7 5.7-9 8.2.1.4.1.8.1 1.1.1 0 .2.1.3.2.3.9.4 1.8.4 2.7s.1 1.8.1 2.7c0 1.8-.2 3.6-.5 5.4s-.8 3.6-1.5 5.3c-.6 1.6-1.4 3.2-2.5 4.5 1.7 1.8 3 3.9 4.1 6.1.6 1.1 1 2.3 1.5 3.4.4 1.2.8 2.3 1.2 3.5 1.3 4.8 2.1 9.7 2.4 14.7.3 4.9.3 9.9.1 14.8-.1 2.6-.3 5.2-.6 7.8-.2 4.4-.5 9.1-.9 14.2h-6.3v.2c3 0 6 .1 9 .3.1 0 .1.1.1.2s-.1.2-.1.2c-2.9.2-5.8.3-8.7.3l2.8 13.1h51.7l-.8-21.5h-23.9v-68.4c0-5 4.1-9 9.1-9h41.7v60.7l4.4.1 4-13.7 3.8-13c.5-1.9 1.7-3.6 3.2-4.8v-89.1zm-10.7 45.8h-50.1v-32.8h50.1z" fill="#f6f7f7"/><path d="m123.9 125.4c.2.2.4.3.6.5-.1-.3-.3-.6-.4-.9l-.8-.2z" fill="#f6f7f7"/><path d="m128 125.9c.6 1 1.2 2.1 1.7 2.9.9 1.4 8.1 5.6 12.8 9.5.9.8 5.9.9 10.2 1.7l.2-.9 11.9 2.5c.2.1.3.2.5.3 2.1-2.7 4.7-4.8 7.6-5.8v-.2z" fill="#f6f7f7"/><path d="m192.1 252.3c-.2-1.2-.6-2.3-1.1-3.4-1.2-2.6-2.2-5.4-3-8.2h-7.4c-.1 2.1-.5 4.2-.9 6.3-.5 2.2-.6 4.5-.3 6.7h13c-.1-.4-.2-.9-.3-1.4z" fill="#f6f7f7"/><path d="m163.8 240.7c-2.2 0-4.4.1-6.6-.2-.2 0-.3-.2-.3-.3s.1-.3.3-.3c2.2-.2 4.4-.2 6.6-.2h2.8v-.1h-7.4c-2.3-17-2.7-42.7 4.1-58.8-1.7-7.9-3.8-19-3.8-23.8-3-.7-5.8-1.6-8.1-2.2-.7-.2-1.3-.7-1.6-1.3-4.3-1.1-8.3-3.2-11.7-6-.1.1-.3.1-.4.1-1.1-.6-2.1-1.3-3-2.2-.9-.8-1.8-1.7-2.7-2.6-1.7-1.8-3.3-3.6-4.8-5.5-.8-1-1.5-1.9-2.2-2.9-.2-.2-.4-.5-.5-.7-.2-.2-.4-.4-.6-.5l-1.5-.9c-1.1-.6-2.1-1.1-3.3-1.6-.6-.3-1.1-.8-1.5-1.3-.3-.4-.5-1-.4-1.5-.1-.1-.1-.2-.2-.3-1-1.2-1.5-2.8-1.6-4.3l-18-4c-.6-.1-.9-.7-.8-1.2l4.9-22.9c-.6-.2-1-.8-1-1.5h-4.7c0 .9-.7 1.6-1.6 1.6h-8c-.9 0-1.6-.7-1.6-1.6h-4.7c0 .9-.7 1.6-1.6 1.6h-4v104.1c1.3.3 2.5.7 3.6 1.4 1.2.8 2.3 1.7 3.1 2.9 1.7 2.2 2.8 4.9 3 7.7s-.3 5.5-1.4 8.1c-1.9 4.2-4.7 8-8.3 10.9v23.4h3.7l-.6-1h11.6c0-2.7 0-5.1.1-7.3-1.6 1.2-3.5 1.7-5.5 1.3-1.5-.3-2.8-1.1-3.8-2.3-.3-.4-.4-.9-.3-1.5.1-.5.4-.9.9-1.2 1.3-.7 2.8-.9 4.3-.7 2.6.5 3.9 2.6 4.4 3.6.1-2.5.4-5 1.1-7.4-1.7.3-3.4.1-4.9-.8-1.3-.8-2.3-2-2.8-3.4-.2-.5-.1-1 .2-1.5.3-.4.7-.7 1.3-.8 1.5-.2 2.9.1 4.2.8 1.3.8 2.2 2 2.7 3.5.8-2.2 2-4.2 3.5-6-1.7.1-3.4-.4-4.7-1.5-1-.8-1.8-1.9-2.1-3.2-.2-.7 0-1.4.4-1.9s1.1-.8 1.8-.7c1.3.1 2.5.6 3.5 1.4 1.8 1.4 2.2 3.5 2.2 4.7.3-.3.6-.7 1-1l.6-54.7c.1-2.2-.1-4.3-.8-6.4l.1-9.8h50.6v76.3h-41.8c-.1.6-.6 1.1-1.2 1.3-1.4.4-2.8.4-4.1-.1-.8-.3-1.5-.7-2.1-1.2h-1.3v-1.6c-.2-.4-.4-.7-.5-1.1-1.8 2.1-3.2 4.6-4 7.2 1.4-1.3 3.3-2 5.2-1.9 1.5.2 2.9.9 3.9 2 .4.4.5.9.4 1.5-.1.5-.4 1-.9 1.2-1.2.7-2.6 1-4 .9-2-.2-3.8-1.4-4.9-3.1-.6 2.2-.9 4.5-1 6.8 1.3-1.2 2.9-1.9 4.7-1.9 1.5 0 3 .6 4.1 1.7.4.4.6.9.6 1.4s-.3 1-.8 1.3c-1.2.8-2.5 1.2-4 1.2-1.8 0-3.5-.8-4.7-2.1-.1 2-.1 4.2-.1 6.6h8.9l-.6 1.3h69.1c-.3-4.8-.7-9.4-1.1-13.1z" fill="#f6f7f7"/><path d="m203.8 184.8c-.5-1.1-.9-2.3-1.5-3.3-1-2.2-2.5-4.2-3.7-6.2v-.2h-.3c4.1 5.6 7.4 13.7 8.9 26.2-.3-4.4-1.1-8.7-2.2-13-.4-1.2-.8-2.3-1.2-3.5z" fill="#f6f7f7"/><path d="m78.2 91.8h-2.4v-2.4c0-.9-.7-1.6-1.6-1.6s-1.6.7-1.6 1.6v4c0 .9.7 1.6 1.6 1.6h4c.9 0 1.6-.7 1.6-1.6s-.7-1.6-1.6-1.6z" fill="#dcdcde"/><path d="m74.2 82.8c.9 0 1.6-.7 1.6-1.6v-8.2c0-.9-.7-1.6-1.6-1.6h-.1c-.9 0-1.6.7-1.6 1.6v8.2c.1.9.8 1.6 1.7 1.6z" fill="#dcdcde"/><path d="m84.2 59.6c-.2-.4-.5-.7-.9-.9s-.8-.2-1.2 0c-2.9 1.1-5.4 3.1-7.1 5.7-.5.7-.3 1.7.4 2.2h.1c.7.4 1.7.2 2.2-.5 1.3-2 3.3-3.6 5.5-4.4.9-.3 1.3-1.2 1-2.1z" fill="#dcdcde"/><path d="m100.7 59.3c0-.9-.7-1.6-1.6-1.6h-8.2c-.9 0-1.6.7-1.6 1.6s.7 1.6 1.6 1.6h8.1c.9 0 1.7-.7 1.7-1.6z" fill="#dcdcde"/><path d="m105.7 59.3c0 .9.7 1.6 1.6 1.6h1.5l.3-1.6v-.2l.3-1.4h-2.2c-.8 0-1.5.7-1.5 1.6z" fill="#dcdcde"/><path d="m296.8 71.3c-.9 0-1.6.7-1.6 1.6v8.2c0 .9.7 1.6 1.6 1.6s1.6-.7 1.6-1.6v-8.2c0-.9-.7-1.6-1.6-1.6z" fill="#dcdcde"/><path d="m281.7 59.3c0-.9-.7-1.6-1.6-1.6h-8.2c-.9 0-1.6.7-1.6 1.6s.7 1.6 1.6 1.6h8.2c.9 0 1.6-.7 1.6-1.6z" fill="#dcdcde"/><path d="m293.2 66.1c.5.7 1.4.9 2.2.5h.1c.4-.2.6-.6.7-1s0-.9-.2-1.2c-1.7-2.6-4.2-4.5-7.1-5.6-.8-.3-1.8.1-2.1.9v.1c-.3.8.2 1.7 1 2 2.1.7 4.1 2.3 5.4 4.3z" fill="#dcdcde"/><path d="m248.8 59.3c0-.9-.7-1.6-1.6-1.6h-6.2l-.4 1.6-.4 1.6h6.9c.4 0 .8-.2 1.1-.5.4-.2.6-.6.6-1.1z" fill="#dcdcde"/><path d="m265.3 59.3c0-.9-.7-1.6-1.6-1.6h-8.2c-.9 0-1.6.7-1.6 1.6s.7 1.6 1.6 1.6h8.2c.9 0 1.6-.7 1.6-1.6z" fill="#dcdcde"/><path d="m296.8 87.8c-.9 0-1.6.7-1.6 1.6v2.4h-2.4c-.9 0-1.6.7-1.6 1.6s.7 1.6 1.6 1.6h4c.9 0 1.6-.7 1.6-1.6v-4c0-.9-.7-1.6-1.6-1.6z" fill="#dcdcde"/><path d="m100.4 93.4c0 .7.4 1.3 1 1.5l.3-1.5.3-1.6h-.1c-.4 0-.8.2-1.1.5-.2.2-.4.7-.4 1.1z" fill="#dcdcde"/><path d="m268.9 91.8h-8c-.9 0-1.6.7-1.6 1.6s.7 1.6 1.6 1.6h8c.9 0 1.6-.7 1.6-1.6.1-.9-.7-1.6-1.6-1.6z" fill="#dcdcde"/><path d="m253 91.8h-8c-.9 0-1.6.7-1.6 1.6s.7 1.6 1.6 1.6h8c.9 0 1.6-.7 1.6-1.6.1-.9-.7-1.6-1.6-1.6z" fill="#dcdcde"/><path d="m237.1 91.8h-3.8l-.4 1.6-.4 1.6h4.6c.9 0 1.6-.7 1.6-1.6.1-.9-.7-1.6-1.6-1.6z" fill="#dcdcde"/><path d="m94.1 91.8h-8c-.9 0-1.6.7-1.6 1.6s.7 1.6 1.6 1.6h8c.9 0 1.6-.7 1.6-1.6s-.7-1.6-1.6-1.6z" fill="#dcdcde"/><path d="m284.8 91.8h-8c-.9 0-1.6.7-1.6 1.6s.7 1.6 1.6 1.6h8c.9 0 1.6-.7 1.6-1.6s-.7-1.6-1.6-1.6z" fill="#dcdcde"/><path d="m232 107.9h50.1v32.8h-50.1z" fill="#f6f7f7"/><path d="m96.4 230.7v1.6h1.3c-.5-.5-1-1-1.3-1.6z" fill="#2ebd99"/><path d="m353 285.3c-19.4-.4-38.8-.6-58.1-.8-1.4.4-2.9.6-4.4.5h-21.8c-1.8.1-3.6-.2-5.2-.8-14.8-.1-29.6-.1-44.5-.1.3.4.4.8.1 1-1.1 1.4-6.2.4-10.8-1.1h-7.4v.2c0 .2-.1.3-.3.3s-.3-.1-.3-.2 0-.2-.1-.3h-24.3c-.1.4-.2.8-.3 1.1 0 .2-.2.3-.3.2-.2 0-.3-.2-.3-.3 0-.4 0-.7.1-1.1h-4.8c-4.9 1.8-11.7 3.6-13.1 1.9-.4-.4 0-1 1-1.9l-55.5.1c-27.8.2-55.6.4-83.4 1.3-.2 0-.3.1-.3.3s.1.3.3.3c27.8.9 55.6 1.1 83.4 1.3l83.4.2c55.6-.2 111.1-.1 166.7-1.2.4 0 .6-.3.6-.6.2 0-.1-.3-.4-.3z" fill="#f6f7f7"/><path d="m136.3 20.8-8.3 36.9-.4 1.6-.4 1.6-7 30.8-.4 1.6-.4 1.6-2.7 11.7 43.8 9.2c.2-3 1.9-5.6 4.6-6.9 0 0-1.7-5.7 3.1-8.8-3.5-1-6.7-2.9-9.4-5.4l-.2-.2c-.4-.4-.9-.8-1.3-1.3l-.3-.3-.9.2-1.1.2c-2.3.4-4.5.6-6.8.6-1.6 0-3.2-.2-4.8-.5h-.4c-1.2-.3-2.3-.8-3.3-1.5l-.1-.1c-.5-.4-1-.9-1.3-1.5-.3-.7-.4-1.4-.3-2.2.3-1.2 1-2.3 2.1-3.1.9-.7 1.8-1.2 2.9-1.6.2-.1.4 0 .5.2s0 .4-.1.5c-.8.6-1.6 1.2-2.2 2-.6.6-1 1.4-1 2.3 0 1.2 1.7 1.9 3.6 2.2 1.9.2 3.9.2 5.9-.1 1.6-.2 3.3-.4 4.9-.8-5.9-8.3-6.5-17.9-.9-27.4.5-.9 1.1-1.7 1.7-2.5.1-.2.2-.3.4-.4.5-.6.9-1.1 1.4-1.6 8.3-8.5 21.3-7.9 30.8-1.1.5.4 1 .8 1.5 1.1.6.5 1.2 1 1.7 1.6.5.5 1 1.1 1.4 1.6 2.7 3.3 4.5 7.3 5.2 11.6 1.1-.7 2.1-1.4 3.1-2.2 1.6-1.2 3-2.5 4.3-4 1.2-1.4 2-3.1 1.7-4.2-.2-.6-.6-1-1.1-1.3-.2-.1-.3-.2-.5-.3-.7-.4-1.5-.6-2.4-.7-1.1-.2-2.2-.3-3.3-.2-.9 0-1.8.1-2.7.2-.4 0-.8-.3-.8-.7s.2-.7.6-.8c.7-.2 1.4-.3 2.1-.5 1.5-.3 3-.4 4.5-.3.8 0 1.6.1 2.4.4.4.1.7.2 1.1.4.6.3 1.2.6 1.7 1.1.5.4.9 1 1.2 1.6 0 .1.1.1.1.2.5 1.3.5 2.8 0 4.1-.4 1.1-1 2.2-1.7 3.2-1.4 1.8-2.9 3.4-4.7 4.8-1.7 1.3-3.4 2.6-5.2 3.7-.1 5.4-1.9 10.6-5.2 14.8-.4.6-.9 1.1-1.4 1.6l-.1.2c-.5.5-1 1-1.5 1.4-1.6 1.4-3.3 2.6-5.2 3.6 2.4-.5 5 .2 6.9 1.8 4.1 3.4 3.4 6.7 3.4 6.7s4.7 1.6 5.4 5.7c.8 4.9-2.1 6.9-2.1 6.9.3 1.4.4 2.8.1 4.2l9.6 2c.4-.6.7-1.1 1.1-1.7l6.6-29.2.4-1.6.4-1.6 6.9-30.8.4-1.6.4-1.6 4-17.7-92-19.4z" fill="#c3c4c7"/><path d="m178.9 81.7c3.8-1.5 7.6-3.2 11.3-5.1 2.5-1.3 4.9-2.6 7.3-4.2-.7-4.2-2.5-8.2-5.2-11.6-.5-.6-.9-1.1-1.4-1.6s-1.1-1-1.7-1.6c-.5-.4-1-.8-1.5-1.1-9.5-6.8-22.5-7.4-30.8 1.1-.5.5-1 1-1.4 1.6-.1.1-.2.3-.4.4-.6.8-1.2 1.6-1.7 2.5-5.7 9.5-5 19.2.9 27.4l1.1-.2c4-.9 8-2 11.9-3.4 3.9-1.1 7.8-2.6 11.6-4.2z" fill="#dcdcde"/><path d="m180.6 85.7c-6.9 2.8-14.1 5.3-21.5 6.9-.7.1-1.3.3-2 .4l.3.3 1.3 1.3.2.2c2.6 2.5 5.9 4.4 9.4 5.4.8-.5 1.7-.9 2.6-1.2 6.3-1.9 9.7.8 9.7.8 1.2-.6 2.5-1.1 3.8-1.3 1.9-1 3.6-2.2 5.2-3.6.5-.4 1-.9 1.5-1.4l.1-.2c.5-.5 1-1.1 1.4-1.6 3.3-4.2 5.1-9.5 5.2-14.8-5.4 3.6-11.3 6.3-17.2 8.8z" fill="#dcdcde"/><path d="m199.4 59.3h5c0-.6.4-1.2.9-1.5-.8-.2-1.6-.3-2.4-.4-1.5 0-3 .1-4.5.3.6.4 1 1 1 1.6z" fill="#187aa2"/><path d="m148.1 93.4h-4.7c1.6.3 3.2.5 4.8.5 0-.1-.1-.3-.1-.5z" fill="#187aa2"/><path d="m202.7 59.9c.8.1 1.6.3 2.4.7-.4-.3-.6-.8-.6-1.2h-5v.3c1-.1 2.1 0 3.2.2z" fill="#187aa2"/><path d="m205.5 60.8c.5.3.9.7 1.1 1.3.3 1.1-.5 2.8-1.7 4.2-1.3 1.5-2.7 2.8-4.3 4-1 .8-2.1 1.5-3.1 2.2.2 1.5.4 3 .3 4.4 1.8-1.2 3.5-2.4 5.2-3.7 1.7-1.4 3.3-3 4.7-4.8.7-1 1.3-2 1.7-3.2.5-1.3.5-2.8 0-4.1 0-.1-.1-.1-.1-.2h-3.3c-.1 0-.3 0-.5-.1z" fill="#187aa2"/><path d="m143.4 93.4h4.7c0-.9.7-1.6 1.6-1.6h6.2c-.6-.7-1.1-1.4-1.6-2.1-1.6.3-3.2.6-4.9.8-1.9.3-3.9.3-5.9.1-1.8-.2-3.6-1-3.6-2.2.1-.8.4-1.6 1-2.3.7-.7 1.4-1.4 2.2-2 .2-.1.2-.3.1-.5s-.3-.2-.5-.2c-1 .4-2 .9-2.9 1.6-1 .8-1.8 1.8-2.1 3.1-.1.7 0 1.5.3 2.2.3.6.7 1.1 1.3 1.5h2.2c1.2 0 1.9.7 1.9 1.6z" fill="#187aa2"/><path d="m195.8 59.1c0 .1 0 .1.1.2h3.5c0-.6-.4-1.2-1-1.5-.7.1-1.4.3-2.1.5-.3.1-.5.5-.5.8z" fill="#187aa2"/><path d="m204.4 59.3h3.7c-.5-.5-1.1-.8-1.7-1.1-.3-.1-.7-.3-1.1-.4-.5.3-.9.9-.9 1.5z" fill="#187aa2"/><path d="m205 60.6c.2.1.3.2.5.3s.4.1.5.1h3.3c-.3-.6-.7-1.2-1.2-1.6h-3.7c0 .4.3.9.6 1.2z" fill="#187aa2"/><path d="m155.1 93.4h-6.9c0 .2 0 .4.1.6 2.2-.1 4.5-.2 6.8-.6z" fill="#187aa2"/><path d="m156.2 93.2.9-.2c-.4-.4-.8-.8-1.1-1.3h-6.2c-.9 0-1.6.7-1.6 1.6h6.9z" fill="#187aa2"/><path d="m143 93.4h.4c0-.4-.2-.8-.5-1.1s-.7-.5-1.1-.5h-2.2l.1.1c1 .7 2.1 1.2 3.3 1.5z" fill="#187aa2"/><path d="m157.7 91.8c.6 0 1.2.3 1.4.9 7.4-1.6 14.6-4.1 21.5-6.9 5.9-2.5 11.8-5.2 17.2-8.8 0-1.5-.1-3-.3-4.4-2.3 1.5-4.8 2.9-7.3 4.2-3.7 1.9-7.4 3.6-11.3 5.1s-7.7 3.1-11.6 4.4c-3.9 1.4-7.8 2.5-11.9 3.4l-1.1.2c.5.7 1.1 1.4 1.6 2.1z" fill="#187aa2"/><path d="m159.1 92.6c-.3-.5-.8-.9-1.4-.9h-1.7c.4.4.7.8 1.1 1.3.7-.1 1.3-.2 2-.4z" fill="#187aa2"/><path d="m233.3 91.8h3.8c.9 0 1.6.7 1.6 1.6h4.7c0-.9.7-1.6 1.6-1.6h8c.9 0 1.6.7 1.6 1.6h4.7c0-.9.7-1.6 1.6-1.6h8c.9 0 1.6.7 1.6 1.6h4.7c0-.9.7-1.6 1.6-1.6h8c.9 0 1.6.7 1.6 1.6h4.7c0-.9.7-1.6 1.6-1.6h2.4v-2.4c0-.9.7-1.6 1.6-1.6v-5c-.9 0-1.6-.7-1.6-1.6v-8.2c0-.9.7-1.6 1.6-1.6-.1-1.7-.6-3.3-1.4-4.8-.7.4-1.7.2-2.2-.5-1.4-2-3.3-3.5-5.6-4.4-.8-.3-1.2-1.2-1-2-1-.3-2.1-.4-3.2-.4h-1.8c0 .9-.7 1.6-1.6 1.6h-8.3c-.9 0-1.6-.7-1.6-1.6h-5c0 .9-.7 1.6-1.6 1.6h-8.2c-.9 0-1.6-.7-1.6-1.6h-5c0 .9-.7 1.6-1.6 1.6h-6.9z" fill="#fff"/><path d="m102.1 91.8 6.7-30.8h-1.5c-.9 0-1.6-.7-1.6-1.6h-5c0 .9-.7 1.6-1.6 1.6h-8.2c-.9 0-1.6-.7-1.6-1.6h-1.8c-1.1 0-2.2.1-3.2.4.3.8-.2 1.7-1 2-2.3.9-4.2 2.4-5.6 4.4-.5.7-1.4.9-2.2.5-.7 1.5-1.2 3.1-1.3 4.8.9 0 1.6.7 1.6 1.6v8.2c0 .9-.7 1.6-1.6 1.6v5c.9 0 1.6.7 1.6 1.6v2.4h2.4c.9 0 1.6.7 1.6 1.6h4.7c0-.9.7-1.6 1.6-1.6h8c.9 0 1.6.7 1.6 1.6h4.7c.1-1 .8-1.7 1.7-1.7z" fill="#fff"/><path d="m281.5 215.4v-60.7h-41.7c-5 0-9.1 4-9.1 9v68.5h23.9l-.6-16.3c0-.4.3-.7.7-.7l20.7.1c2.1.1 4.1.1 6.1.1z" fill="#fff"/><path d="m101.7 228.1c-1.6-.5-3.3-.4-4.8.2-.2.2-.3.4-.5.5l-.6.6c.1.4.3.8.5 1.1.3.6.8 1.1 1.3 1.6.6.6 1.3 1 2.1 1.2 1.3.4 2.8.5 4.1.1.6-.2 1.1-.7 1.2-1.3.1-.4 0-.8-.2-1.2-.5-1.2-1.7-2.3-3.1-2.8z" fill="#fff"/><path d="m88.2 231.5c-1.3-.7-2.8-1-4.2-.8-.5.1-1 .4-1.3.8s-.3 1-.2 1.5c.5 1.4 1.5 2.6 2.8 3.4 1.5.9 3.2 1.1 4.9.8.2-.7.4-1.5.7-2.2-.4-1.4-1.4-2.7-2.7-3.5z" fill="#fff"/><path d="m93.3 223.1c-1-.8-2.2-1.3-3.5-1.4-.7-.1-1.4.2-1.8.7s-.6 1.2-.4 1.9c.3 1.3 1.1 2.4 2.1 3.2 1.3 1.1 3 1.6 4.8 1.5.3-.4.7-.8 1-1.2-.1-1.2-.5-3.3-2.2-4.7z" fill="#fff"/><path d="m194.7 129.7c-.4-.1-.7-.3-.9-.7-3.4 1.4-4.5-.6-4.5-.6l-.7.8c0 .2-.1.7-.2 1.5v5.5c.3.1.6.1.8.2l.2-.1.1-.1h.1l.1.1c1.3.4 2.5.9 3.7 1.6l8-6.7z" fill="#fff"/><path d="m198.1 123.9c-.2 1.2-.7 2.4-1.5 3.3l5.4 1.2c.5.1.9.4 1 .9.2.5.1 1-.2 1.4l2.2 1.6c0-.1.1-.2.1-.3-.1 0-.1-.1-.1-.2.7-2.1 1.6-4 2.8-5.9z" fill="#fff"/><path d="m213.4 138.6.2.1c.5.4.8 1 .9 1.6s-.1 1.3-.5 1.8l-.7.8 6 1.3 7.4-32.4c-.4.4-.7.9-.9 1.4-.5 1.8-5.2 17.1-12.4 25.4z" fill="#fff"/><path d="m231.2 91.8 7-31 .3-1.4.4-1.6 6.7-29.6c-17.9-4-35.7-8-53.6-12.2l-20.8-4.8-47.8-10.4c-3.6 19-7.8 37.9-11.8 56.9l-.3 1.6v.2l-.3 1.4-6.6 30.8-.3 1.6-.3 1.6-4.7 22.2 17.4 3.9c.1-.3.2-.6.4-.8.1-.2.3-.3.5-.4 0 0 0-.1.1-.1 0-.1.1-.1.2 0 .9-.3 1.7.5 1.7.5.2.6.4 1.2.8 1.7l3.4.8c0-.5.2-.8.7-.8.8 0 1.6.6 2.3 1.5l48.6 10.9v-2.6c-.5-.8-.9-1.4-1.2-1.9-1.2.6-2.7.5-3.8-.2s-1.8-2-1.8-3.3v-.4c-2.3-.5-4.3-1.8-5.7-3.7-.3.2-.8.3-1.2.2l-6.7-1.4c-.8-.2-1.3-1-1.1-1.7.2-.8.9-1.3 1.7-1.1l5.9 1.3c-.3-1.1-.5-2.3-.4-3.5l-43.8-9.2 2.7-11.7.4-1.6.4-1.6 7-30.8.4-1.6.4-1.6 8.4-36.9 91 19-4 17.7-.4 1.6-.4 1.6-7 30.8-.4 1.6-.4 1.6-6.6 29.2c.4-.5.8-1.1 1.2-1.6 1.1-1.5 2.4-2.9 3.7-4.3l.7-3c.1-.6.6-1 1.2-1.1s1.1.2 1.4.7l.1-.1c1.2-1.2 2.5-2.5 3.3-3.8.4-.5.4-1.5.5-2.3.2-.8.3-1.7.4-2.6s.4-1.8.7-2.6c.2-.5.4-.9.7-1.3.2-.2.4-.4.6-.5.3-.2.7-.3 1-.2.4.1.7.3.9.7.1.2.2.5.2.8.1.5.1.9.1 1.4v.4c1.1-1.8 1.7-3.9 1.9-6 0-.2.2-.3.4-.3h.1c.3-.6 1.1-.9 1.8-.8l.6-2.8.4-1.6.7-1.4zm-91.2 24.6c.1-.4.3-.7.6-.9s.7-.3 1.1-.2l6.7 1.5c.8.2 1.3 1 1.1 1.7-.2.8-1 1.3-1.8 1.1l-6.7-1.4c-.4-.1-.7-.3-.9-.6-.2-.4-.2-.8-.1-1.2zm-13.5-2.9c.2-.8 1-1.3 1.8-1.1l6.7 1.5c.8.2 1.3 1 1.1 1.8s-1 1.3-1.8 1.1l-6.7-1.5c-.7-.2-1.2-1-1.1-1.8zm-4.2-60.4 1.5-6.7c.2-.8 1-1.2 1.7-1.1.8.2 1.3.9 1.2 1.7l-1.4 6.7c-.1.5-.5.9-1 1.1s-1.1 0-1.5-.3c-.5-.3-.6-.8-.5-1.4zm-10.5 55.2c-.4-.1-.7-.3-1-.7-.2-.3-.3-.7-.2-1.1l1.4-6.7c.2-.8 1-1.3 1.8-1.2.8.2 1.3 1 1.2 1.8l-1.5 6.7c-.1.8-.9 1.3-1.7 1.2zm9.8 2.6c.8.2 1.3 1 1.1 1.8s-.9 1.3-1.7 1.2l-6.7-1.4c-.8-.2-1.3-1-1.2-1.8.2-.8 1-1.3 1.8-1.1zm-5.1-17.2c-.2.8-1 1.3-1.8 1.1s-1.3-.9-1.2-1.7l1.4-6.7c.1-.6.5-1 1-1.2s1.1-.1 1.5.3.6 1 .4 1.5l-1.1 5.1-.3 1.2zm4.4-20-1.4 6.7c-.2.8-1 1.3-1.8 1.1s-1.3-.9-1.2-1.8l1.5-6.7c.1-.5.5-1 1-1.1.5-.2 1.1 0 1.5.3.3.5.5 1 .4 1.5zm2.8-13.3-.1.5-1.3 6.2c-.2.8-1 1.3-1.8 1.2s-1.3-1-1.2-1.8l1.5-6.6c.2-.7.8-1.2 1.5-1.2.5 0 1 .3 1.3.7.2.3.2.7.1 1zm5.8-26.7-1.4 6.7c-.2.8-1 1.3-1.8 1.1s-1.3-.9-1.1-1.7l1.5-6.7c.2-.8 1-1.3 1.7-1.1.8.2 1.3 1 1.1 1.7zm2.9-13.3-1.4 6.7c-.2.8-.9 1.2-1.7 1.1-.8-.2-1.3-.9-1.1-1.7l1.5-6.7c.2-.8.9-1.2 1.7-1.1.7.2 1.2.9 1 1.7zm8.4-4.9c-.2.8-.9 1.3-1.7 1.1l-6.7-1.4c-.6 0-1.1-.4-1.2-.9-.2-.5-.1-1.1.3-1.5s1-.5 1.5-.3l6.7 1.5c.4.1.7.3.9.6.2.2.2.5.2.9zm13.3 2.9c-.1.4-.3.7-.6.9s-.7.3-1.1.2l-6.7-1.4c-.7-.2-1.2-.9-1-1.7.2-.7.9-1.2 1.6-1.1l6.7 1.4c.4.1.7.3.9.6.3.3.3.7.2 1.1zm13.4 2.9c-.1.4-.3.7-.6.9s-.7.3-1.1.2l-6.7-1.4c-.5-.1-.9-.5-1-.9-.2-.5 0-1 .3-1.4s.9-.5 1.3-.4l6.7 1.5c.4.1.7.3.9.6s.3.5.2.9zm58.1 48.8c-.6-.1-1-.7-.8-1.3l1.6-6.6c.1-.5.6-.8 1.2-.7.5.1.9.6.7 1.1l-1.3 6.7c-.1.3-.2.5-.5.7-.3.1-.6.1-.9.1zm5.3-21-1.3 6.7c0 .4-.2.7-.5.8s-.7.1-1-.2-.3-.6-.2-1l1.6-6.6c.1-.3.5-.6.8-.5.4.1.6.5.6.8zm.3-6.8.4-1.9c.1-.2.3-.4.5-.3s.4.3.3.5l-.3 1.9c0 .2-.2.3-.3.4-.2.1-.4 0-.5-.1-.1-.2-.2-.4-.1-.5zm-50.3-18.1c-.1.4-.3.7-.6.9s-.7.3-1 .2l-6.7-1.4c-.8-.2-1.2-.9-1.1-1.7s.9-1.2 1.7-1.1l6.7 1.5c.7.1 1.2.8 1 1.6zm13.4 2.9c-.1.4-.3.7-.6.9s-.7.3-1 .2l-6.7-1.4c-.7-.2-1.2-.9-1.1-1.6.2-.7.9-1.2 1.6-1.1l6.7 1.5c.8 0 1.3.7 1.1 1.5zm13.4 2.9c-.1.3-.3.6-.6.8s-.7.3-1 .2l-6.7-1.4c-.5-.1-.9-.4-1.1-.9s-.1-1 .3-1.4c.3-.4.9-.5 1.3-.4l6.7 1.5c.4.1.7.3.9.6.2.2.3.6.2 1zm13.2 2.8c-.1.6-.8 1-1.4.9l-6.7-1.4c-.5-.1-.9-.4-1-.8-.2-.5-.1-1 .3-1.3.3-.4.8-.5 1.3-.4l6.7 1.5c.3.1.6.3.8.5.1.4.1.7 0 1zm5.3 2.3c-.6-.1-.9-.7-.8-1.3s.6-.9 1.2-.9h.1l6.7 1.6c.4.2.7.6.6 1s-.5.7-1 .7zm-4.5 47 1.5-6.7c.2-.6.8-1 1.4-.8.6.1 1 .7.9 1.3l-1.4 6.7c-.2.6-.8 1.1-1.5.9-.5-.1-1-.7-.9-1.4zm-1.8 20.5-1.4 6.7c-.1.5-.5.9-.9 1-.5.2-1 0-1.4-.3s-.5-.8-.4-1.3l1.5-6.7c.2-.7.9-1.1 1.6-1s1.2.9 1 1.6zm1.5-6.6c-.1.5-.4.8-.9 1-.5.1-.9 0-1.3-.3s-.5-.8-.4-1.3l.1-.4.4-1.6.4-1.6.7-3.1c.1-.4.4-.8.9-.9.4-.1.9 0 1.3.3.3.3.5.8.4 1.2l-.6 2.8-.3 1.3-.3 1.6z" fill="#fff"/><path d="m304.8 184.3c-1.9-.7-4-.5-5.8.4-.8.4-1.6 1-2.2 1.8-.7.8-1.2 1.8-1.5 2.8l-3.8 12.9-3.9 13.3c2.9 0 5.7.1 8.6.1.2 0 .3.1.3.3s-.1.3-.3.3c-3 0-5.9.1-8.9.1h-11.9l-20 .1.7 15.6.9 21.5.2 5.3.4 10.8c.1 1.8.1 3.7.2 5.3.2 1.6.8 3.2 1.9 4.5s2.4 2.3 4 2.9 3.3.9 5 .8h21.8c3.5.2 6.9-1.1 9-3.7 1-1.3 1.7-2.9 1.8-4.5l.4-5.4.8-10.8c1-14.4 2.2-28.7 3.5-43.1h-3l2.6-8.8 3.8-12.9c.4-1 .5-2 .6-3 0-1-.2-2-.6-2.9-1.1-1.6-2.6-3-4.6-3.7zm-40.8 85.5c0 .1-.1.2-.2.2s-.2-.1-.2-.2c-.7-2.3-.8-4.7-.9-7-.2-2.4-.3-4.7-.4-7 0-.6 0-1.3-.1-1.9-.1-1.7-.1-3.4-.1-5.1 0-2.3-.2-4.7.4-7.1 0-.1.1-.2.2-.2s.2.1.2.2c.7 2.3.8 4.7.9 7 .1 1.7.2 3.4.3 5.2 0 .6.1 1.2.1 1.9.1 2.3.2 4.7.2 7s.2 4.6-.4 7z" fill="#fff"/><path d="m315 162.8c-.5-2.6-1.2-5.1-2.2-7.4-2.8 2.4-5.2 5.2-7.2 8.3.9.1 1.8.4 2.5.8 1.1.6 2 1.6 2.7 2.3l.1.1c.7.7 1.5 1.1 2.5 1.4.6.2 1.2.4 1.8.5h.2c0-1.9-.1-4-.4-6z" fill="#fff"/><path d="m312.9 169.9c-1.3-.2-2.5-.9-3.4-1.8s-1.5-1.8-2.3-2.3c-.7-.5-1.4-.9-2.2-1.3-.2.3-.3.5-.5.8-1.2 2-2.2 4.2-2.9 6.4s-1 4.6-.2 6.8c0 .1 0 .2-.1.3l1.8 2.8h.1c1.4.5 2.9.6 4.4.3 1.4-.4 2.7-1.2 3.6-2.3 2-2.1 3.1-5 3.7-7.8.1-.5.2-1.1.3-1.7-.8 0-1.5 0-2.3-.2z" fill="#fff"/><path d="m174.9 131.7v2.6l2 .4c1.9-.3 3.7-.9 5.4-1.8-3.2.4-6.7 0-7.4-1.2z" fill="#8e9196"/><path d="m174.9 135.1s.8-.1 2-.3l-2-.4z" fill="#8e9196"/><path d="m152.7 140c-4.3-.8-9.3-.9-10.2-1.7-4.6-4-11.9-8.2-12.8-9.5-.5-.8-1.1-1.8-1.7-2.9-.2-.4-.5-.8-.8-1.2s-.6-.9-.9-1.3c-.7-.9-1.5-1.5-2.3-1.5-.5 0-.7.3-.7.8 0 .4.1.8.2 1.1.1.4.3.8.4 1.2.1.3.3.6.4.9.2.2.4.5.5.8v.1s0 .1-.1.1h-.1c-.6 0-1.2-.2-1.7-.7-.5-.4-.9-.7-1.4-1.1-.2-.2-.4-.5-.7-.7-.2-.3-.3-.4-.5-.6s-.4-.5-.5-.7c-.2-.3-.2-.6-.2-.9 0-.1 0-.1.1-.1l-.1-.1c-.3-.5-.6-1.1-.8-1.7 0 0-.8-.8-1.7-.5.2.6.3 1.2.4 1.8 0 .1 0 .2.1.3l.3.9c.1.3.3.6.5 1 0 .1.1.2.2.3.3.5.6 1 1 1.4.5.5.9 1.1 1.2 1.8v.1s-.1.1-.1 0c-.9-.1-1.4-.7-1.9-1.3s-1-1.2-1.4-1.8c-.1-.2-.2-.4-.3-.7-.2-.4-.3-.8-.4-1.2 0-.1-.1-.2-.1-.3-.1-.3-.1-.5-.1-.8 0-.5.1-1 .3-1.4-.2.1-.4.3-.5.4-.2.3-.3.5-.4.8s-.1.7-.2 1v1.1c.3 1.3.9 2.5 1.7 3.5.8 1.1 1.9 2 3.2 2.7.1 0 .1.1.1.2s-.1.1-.2.1c-.8 0-1.6-.3-2.3-.7-.2-.1-.4-.3-.6-.4.4.5.9.8 1.4 1.1 1.1.4 2.3.9 3.3 1.5.6.3 1.1.6 1.6 1 .3.2.5.4.8.6.2.2.4.5.6.8.7 1 1.5 1.9 2.3 2.8 1.6 1.9 3.1 3.7 4.7 5.5.8.9 1.7 1.8 2.6 2.6s1.8 1.5 2.7 2.4c.1.1.1.3 0 .4 3.4 2.9 7.4 4.9 11.7 6-.2-.5-.3-1.1-.1-1.6z" fill="#a7aaad"/><path d="m231.5 99.8c-.2-.5-.5-.9-.8-1.3-.2-.2-.3-.3-.5-.4-.1-.1-.3-.1-.4-.2-.7-.2-1.4.1-1.8.8.1 0 .2.1.2.2.3 1.6-.1 3.1-.7 4.6-.6 1.4-1.3 2.8-2.2 4-.1.2-.4.3-.6.2s-.4-.3-.3-.6c.1-.8.2-1.7.2-2.5 0-.4 0-.8-.1-1.2 0-.2-.1-.4-.2-.6-.2.1-.4.2-.6.4-.2.3-.4.6-.5 1-.3.8-.5 1.6-.6 2.4-.2.8-.3 1.7-.4 2.5l-.2 1.3c-.1.5-.2 1-.5 1.4-1 1.6-2.3 2.7-3.5 4l-.9.9c-1.3 1.3-2.5 2.6-3.7 3.9-.8.9-1.6 1.8-2.4 2.8-2.2 2.7-4 5.6-5.5 8.6 0 .1-.1.1-.2.1 0 .1-.1.2-.1.3l8.4 6.4c7.2-8.3 11.9-23.6 12.3-25.4.2-.5.5-1 .9-1.4s.9-.8 1.3-1.1.9-.6 1.3-.9c1.4-1 2.8-2.2 3-3.8.1-2.3-.1-4.4-.9-6.4z" fill="#a7aaad"/><path d="m187.8 137.2c.2-.1.4-.2.5-.3v-6.2c-.2 1.2-3 2.1-6 2.4-1.7.8-3.5 1.4-5.4 1.8-1.2.2-2 .3-2 .3v1.8c.1.1.2.2.3.2.6.4 1.3.8 1.9 1 1.4.6 2.8.9 4.3.9 1 0 2.1-.1 3.1-.4.4-.1.8-.2 1.2-.4l.6-.3c.5-.3 1-.5 1.5-.8z" fill="#a7aaad"/><path d="m200.9 240.7h-13c.8 2.8 1.8 5.5 3 8.2.5 1.1.9 2.2 1.1 3.4l.3 1.5c2.5 11.7 5.2 13.9 6.9 20.6 0 0 3.6 2.7 6.1 2.5 1.1-.1 2.5-.7 2.5-1.3 0-.2.1-.4.3-.5l-4.5-21.3z" fill="#a7aaad"/><path d="m180.6 240.7h-13.8c.3 3.7.7 8.3 1.1 13.1.6 8.2 1.1 16.8 1 22.2.1.1.2.2.2.3 0 .6 1.4 1.2 2.5 1.3 2.5.2 5.6-2.2 5.6-2.2.7-6.8 3.8-12.6 2.7-19.8-.1-.7-.2-1.3-.3-1.9-.3-2.2-.2-4.5.3-6.7.2-2 .5-4.1.7-6.3z" fill="#a7aaad"/><path d="m207 232.2c0 .1-.1.1-.2.1s-.2-.1-.2-.2c.2-4.9.5-9.8.8-14.7.2-4.9.2-9.8-.2-14.7 0-.5-.1-1-.1-1.5-1.5-12.5-4.8-20.7-8.9-26.2h.3c0-.2.1-.3.3-.3 1.4-3.2 2.7-6.4 3.2-9.8.3-1.7.5-3.5.5-5.3v-2.6c0-.8-.2-1.8-.1-2.7 0-.2.2-.3.4-.3 0-.4-.1-.8-.1-1.1-1.7 1.2-4.7-2.4-7-6.2-1.1-1.9-1.8-3.9-2.2-6-.1-.4-.1-.7-.1-1.1v-1.7c-1.1-.7-2.4-1.3-3.7-1.6 0 .1-.1.2-.1.3-.2.4-.4.7-.8 1-.2.2-.4.3-.6.5l-.1.1c-.1.1-.3.2-.4.3l-.6.4-.8.4-.3.1c-1.5.6-3.1.9-4.7.9s-3.2-.3-4.7-1c-.6-.3-1.3-.6-1.8-1l-.3-.2c-.7-.4-1.2-1-1.7-1.6v-.2c-2.8 1-5.4 3.1-7.6 5.8-3.6 4.5-5.9 10.6-5.9 15 0 4.8 2.1 15.9 3.8 23.8-6.8 16.1-6.4 41.8-4.1 58.8h47.8c.5-5.1.8-9.8.9-14.2 0 2-.3 4.4-.7 6.7z" fill="#c3c4c7"/><path d="m228.2 98.8c0-.1-.1-.2-.2-.2h-.1c-.2 0-.4.1-.4.3-.1 2.1-.8 4.2-1.9 6v-.4c0-.5 0-.9-.1-1.4 0-.3-.1-.5-.2-.8-.2-.4-.5-.6-.9-.7-.3-.1-.7 0-1 .2-.2.1-.5.3-.6.5-.3.4-.6.8-.7 1.3-.3.8-.6 1.7-.7 2.6-.2.9-.3 1.7-.4 2.6-.1.8-.2 1.8-.5 2.3-.9 1.3-2.2 2.5-3.3 3.8l-.1.1c-1.1 1.1-2.2 2.2-3.2 3.3-1.3 1.4-2.5 2.8-3.7 4.3-.4.5-.8 1.1-1.2 1.6s-.7 1.1-1.1 1.7c-1.2 1.8-2.1 3.8-2.7 5.9 0 .1 0 .2.1.2s.2 0 .2-.1c1.5-3.1 3.4-6 5.5-8.6.8-1 1.6-1.9 2.4-2.8 1.2-1.3 2.4-2.6 3.7-3.9l.9-.9c1.2-1.3 2.5-2.4 3.5-4 .3-.4.4-.9.5-1.4l.2-1.3c.1-.9.2-1.7.4-2.5.1-.8.3-1.6.6-2.4.1-.3.3-.7.5-1 .1-.2.4-.3.6-.4.1.2.2.4.2.6.1.4.1.8.1 1.2 0 .8-.1 1.7-.2 2.5 0 .2.1.5.3.6s.5 0 .6-.2c.9-1.2 1.6-2.6 2.2-4 .6-1.5 1-3 .7-4.6z" fill="#004e6e"/><path d="m162.4 122.2c1.4 1.9 3.4 3.2 5.7 3.7v.4c0 1.3.7 2.6 1.8 3.3s2.6.8 3.8.2c.3.5.7 1.1 1.2 1.9.7 1.2 4.2 1.6 7.4 1.3 3-.3 5.9-1.1 6-2.4.1-.8.1-1.2.2-1.5l.7-.8s1.1 2 4.5.6c.5-.2.9-.4 1.3-.6.6-.3 1.1-.7 1.5-1.2.8-.9 1.3-2.1 1.5-3.3.2-1.4.2-2.8-.1-4.2 0 0 2.9-1.9 2.1-6.9-.7-4.2-5.4-5.7-5.4-5.7s.7-3.2-3.4-6.7c-1.9-1.6-4.4-2.2-6.9-1.8-1.3.2-2.6.6-3.8 1.3 0 0-3.4-2.7-9.7-.8-.9.3-1.8.7-2.6 1.2-4.8 3.1-3.1 8.8-3.1 8.8-2.7 1.3-4.5 3.9-4.6 6.9 0 2.3.6 4.5 1.9 6.3z" fill="#004e6e"/><path d="m189.7 136-.2.1-.2.1c-.2.1-.3.2-.5.3l-.4.2c-.1.1-.4.2-.5.3h-.1c-.4.3-.9.5-1.4.7l-.6.3c-.4.2-.8.3-1.2.4-1 .3-2 .4-3.1.4-1.5 0-2.9-.3-4.3-.9-.7-.3-1.3-.6-1.9-1-.1-.1-.2-.2-.3-.2-.3-.2-.5-.4-.8-.6-.1-.1-.2-.2-.3-.2-.1-.1-.3-.2-.4-.2-.1-.1-.2-.1-.3 0-.2.1-.2.3-.1.5v.1c.4.6 1 1.2 1.7 1.6l.3.2c.6.4 1.2.7 1.8 1 1.5.7 3.1 1 4.7 1s3.2-.3 4.7-.9l.3-.1.8-.4.6-.4c.1-.1.3-.2.4-.3l.1-.1c.2-.2.4-.3.6-.5.3-.3.6-.6.8-1 0-.1.1-.2.1-.3-.4-.2-.2-.1-.3-.1z" fill="#004e6e"/><path d="m202.1 164.9c-.5 3.4-1.9 6.6-3.2 9.8-.2 0-.3.2-.3.3v.2c1.3 2.1 2.7 4 3.7 6.2.6 1.1 1 2.2 1.5 3.3.4 1.1.8 2.3 1.1 3.5 1.1 4.2 1.9 8.6 2.2 13 0 .5.1 1 .1 1.5.3 4.9.4 9.8.2 14.7s-.6 9.8-.8 14.7c0 .1.1.2.2.2s.2 0 .2-.1c.4-2.3.7-4.6.9-6.9.3-2.6.5-5.2.6-7.8.2-4.9.2-9.9-.1-14.8-.3-5-1.1-9.9-2.4-14.7-.4-1.2-.8-2.4-1.2-3.5-.5-1.1-.9-2.3-1.5-3.4-1-2.2-2.4-4.3-4-6.1 1.1-1.3 1.9-2.9 2.5-4.5.6-1.7 1.1-3.5 1.5-5.3.3-1.8.5-3.6.5-5.4 0-.9-.1-1.8-.1-2.7s-.2-1.8-.4-2.7c0-.1-.1-.2-.3-.2s-.3.1-.4.3c-.2.9.1 1.8.1 2.7s.1 1.8 0 2.6c-.1 1.6-.3 3.3-.6 5.1z" fill="#004e6e"/><path d="m138.1 146.9c-.8-.9-1.8-1.6-2.7-2.4l-2.6-2.6c-1.7-1.8-3.2-3.6-4.7-5.5-.8-.9-1.5-1.9-2.3-2.8-.2-.3-.4-.5-.6-.8-.2-.2-.5-.4-.8-.6-.5-.4-1.1-.7-1.6-1-1.1-.6-2.2-1.1-3.3-1.5-.5-.2-1-.6-1.4-1.1.2.2.4.3.6.4.7.5 1.4.7 2.3.7.1 0 .1 0 .2-.1 0-.1 0-.2-.1-.2-1.3-.6-2.4-1.5-3.2-2.7-.8-1.1-1.3-2.2-1.7-3.5 0-.1 0-.2-.1-.3 0-.2-.2-.3-.4-.3s-.3.2-.3.4c.1 1.6.6 3.1 1.6 4.3.1.1.1.2.2.3 0 .5.1 1.1.4 1.5.4.6.9 1 1.5 1.3 1.1.6 2.2 1.1 3.3 1.6l1.5.9c.2.2.4.3.6.5.1.1.3.4.5.7.7 1 1.5 1.9 2.2 2.9 1.5 1.9 3.1 3.7 4.8 5.5.9.9 1.7 1.8 2.7 2.6.9.9 1.9 1.6 3 2.2.1.1.3 0 .4-.1.2 0 .2-.2 0-.3z" fill="#004e6e"/><path d="m117 122.4c.1.4.2.8.4 1.2.1.2.2.5.3.7.4.6.9 1.3 1.4 1.8s1 1.1 1.9 1.3h.1v-.1c-.3-.7-.7-1.3-1.2-1.8-.4-.5-.7-.9-1-1.4-.1-.1-.1-.2-.2-.3-.2-.3-.4-.6-.5-1l-.3-.9c0-.1 0-.2-.1-.3-.1-.6-.2-1.2-.4-1.8h-.2l-.1.1c-.3.4-.4.9-.3 1.4 0 .3 0 .5.1.8.1 0 .1.1.1.3z" fill="#004e6e"/><path d="m120.7 123.8c.2.2.3.4.5.6s.4.5.7.7c.4.4.9.8 1.4 1.1.5.4 1.1.7 1.7.7h.1l.1-.1v-.1c-.1-.3-.3-.5-.5-.8-.2-.2-.4-.3-.6-.5s-.4-.4-.6-.5l-.6-.6c-.3-.3-.6-.5-.8-.8l-.4-.4c-.3-.5-.8-.8-1.4-1.1h-.2l-.1.1c0 .3.1.6.2.9s.3.6.5.8z" fill="#004e6e"/><path d="m209.7 240c-3-.2-6-.3-9-.3h-37c-2.2 0-4.4-.1-6.6.2-.2 0-.3.2-.3.3s.1.3.3.3c2.2.2 4.4.2 6.6.2h37.1c2.9 0 5.8-.1 8.7-.3.1 0 .1-.1.1-.2.2-.2.2-.2.1-.2z" fill="#004e6e"/><path d="m175.3 284.2c0 .4 0 .7-.1 1.1 0 .2.1.3.3.3s.3-.1.3-.2c.1-.4.2-.8.3-1.1.2-.8.3-1.5.4-2.3 0-.2.1-.5.1-.7-.3.3-.7.6-1 .8-.2.6-.2 1.3-.3 2.1z" fill="#004e6e"/><path d="m200.8 281.2c-.4-.3-.7-.5-1-.9 0 .2.1.5.1.8.1 1 .3 2.1.6 3.1 0 .1 0 .2.1.3 0 .2.2.3.3.2.2 0 .3-.2.3-.3v-.2c-.2-1-.3-2-.4-3z" fill="#004e6e"/><path d="m165.3 141.9c-.2-.1-.3-.2-.5-.3l-11.9-2.5-.2.9-3 11.7c-.2.6-.1 1.3.2 1.8s.8 1 1.5 1.1c2.3.6 5.1 1.5 8.1 2.2 0-4.3 2.2-10.4 5.8-14.9z" fill="#004e6e"/><path d="m202.7 152.9c3.2-2.4 6.2-5.2 9-8.2.3-.3.5-.6.8-.9s.5-.6.8-.9l.7-.8c.4-.5.6-1.1.5-1.8-.1-.6-.4-1.2-.9-1.6l-.2-.1-8.4-6.4-2.2-1.7-.4-.3-1 .8-8 6.7v1.7c0 .4.1.7.1 1.1.4 2.1 1.1 4.1 2.2 6 2.3 3.9 5.3 7.6 7 6.4z" fill="#004e6e"/><path d="m171.4 277.7c-1.1-.1-2.5-.7-2.5-1.3 0-.1-.1-.3-.2-.3-.2-.2-.5-.2-.7 0-4.3 4.2-7.9 6.6-9.6 8.2-.9.8-1.3 1.4-1 1.9 1.3 1.7 8.1-.1 13.1-1.9 1.7-.6 3.4-1.3 4.9-2.1h.1c.4-.2.7-.5 1-.8 1.2-1.3 1.4-3 .4-5.7.1-.2-3 2.2-5.5 2z" fill="#004e6e"/><path d="m219.1 284.2c-1.1-1.5-5.2-4-10.4-9-.1-.2-.4-.2-.6-.1s-.3.3-.3.5c0 .6-1.4 1.2-2.5 1.3-2.5.3-6-2.5-6-2.5-1 2.7-.7 4.6.5 5.9.3.3.7.6 1 .9h.1c.9.6 4.1 1.9 7.6 3 4.6 1.4 9.7 2.5 10.8 1.1.2-.3.1-.7-.2-1.1z" fill="#004e6e"/><path d="m92.1 246.9c.7.5 1.4.8 2.2 1 .8.1 1.7.1 2.5.1.9 0 1.8-.3 2.5-.7.5-.3.7-.9.5-1.4 0-.2-.2-.4-.3-.6-.2-.2-.4-.3-.6-.4-.8-.7-1.8-1.1-2.9-1.3-1.1-.1-2.1.1-3.1.5-.8.4-1.6.9-2.2 1.6.4.4.8.9 1.4 1.2z" fill="none"/><path d="m88 232.3c-.8-.5-1.7-.8-2.7-.9h-1.4c-.3 0-.6.2-.8.5s-.3.6-.2.9c.1.4.3.9.6 1.3.5.8 1.2 1.5 2 2 1.4.8 3.1 1.1 4.8 1 .3-.9.6-1.8 1-2.6-.2.5-.4.9-.5 1.4-.7-1.5-1.5-2.9-2.8-3.6z" fill="none"/><path d="m84.6 242.1c-.9-.2-1.9-.2-2.8.1-.5.1-.9.3-1.3.5-.3.1-.5.4-.6.7s0 .6.1.9c.3.4.6.7 1 1 .7.6 1.6 1 2.5 1.2 1.8.4 3.7-.1 5.4-.9l.2-.2c-1.3-1.5-2.7-3-4.5-3.3z" fill="none"/><path d="m95.3 228c-.4-1.7-.9-3.4-2.1-4.4-.7-.6-1.6-1.1-2.5-1.3-.4-.1-.9-.2-1.3-.2-.3 0-.7.2-.9.4-.5.5-.5 1.2-.1 2.1s.9 1.6 1.7 2.2c1.3 1.1 3 1.5 4.7 1.7-.2.2-.4.5-.6.7h.1c.3-.3.7-.7 1-1.2z" fill="none"/><path d="m104.8 231.1c-.6-.9-1.4-1.7-2.4-2.1s-2.1-.6-3.1-.4c-.9.1-1.8.4-2.6.8.2.6.5 1.2.9 1.7s.8 1 1.4 1.3c.1.1.3.2.4.3.7.4 1.5.7 2.3.9.8.3 1.8.3 2.6.1.3-.1.6-.3.8-.6.1-.2.2-.4.2-.6v-.1c0-.2 0-.4-.1-.6-.2-.3-.3-.5-.4-.7z" fill="none"/><path d="m93.6 238.9c.6.5 1.4.9 2.1 1.1.8.2 1.6.3 2.5.3.9.1 1.8-.1 2.6-.5.5-.3.7-.8.7-1.3 0-.2-.1-.5-.3-.6l-.5-.5c-.8-.8-1.7-1.3-2.8-1.5s-2.2-.1-3.2.3c-.8.3-1.6.8-2.3 1.4.3.5.7.9 1.2 1.3z" fill="none"/><g fill="#c3c4c7"><path d="m247.1 26.3c-18.2-4.1-36.4-8.2-54.7-12.1l-27.4-5.9-27.4-5.8c-.2 0-.3.1-.3.3s0 .3.2.4l27.2 6.5 6.5 1.5 20.8 4.8c17.8 4.1 35.7 8.2 53.6 12.2l-6.7 29.6-.4 1.6-.3 1.4-7 31-.4 1.6-.4 1.6-.6 2.8c.1 0 .3.1.4.2.2.1.4.3.5.4.3.4.6.8.8 1.3l1.1-4.8.4-1.6.4-1.6 7-30.8.4-1.6.4-1.6 6.9-30.2c-.1-.6-.4-1.1-1-1.2z"/><path d="m123.4 122.7-3.4-.8.1.1h.2c.5.2 1 .6 1.4 1.1l.4.4.8.8.6.6.8.2c-.2-.4-.3-.8-.4-1.2-.4-.4-.5-.8-.5-1.2z"/><path d="m116.3 121.1-17.4-3.9 4.7-22.2.3-1.6.3-1.6 6.6-30.8.3-1.4v-.2l.3-1.6c4-18.9 8.2-37.8 11.8-56.9.1-.4-.2-.7-.5-.8-.4-.1-.7.2-.8.5-4.5 19-8.5 38.1-12.6 57.2l-.3 1.4v.2l-.3 1.6-6.6 30.8-.3 1.6-.3 1.5-4.9 22.9c-.1.6.2 1.1.8 1.2l18 4c0-.2.1-.3.3-.4.2 0 .4.1.4.3 0 .1 0 .2.1.3v-1.1c-.1-.3 0-.6.1-1z"/><path d="m174.9 134.3-48.6-10.9c.3.4.6.8.9 1.3.3.4.5.8.8 1.2l44.9 10.1c0-.1.1-.1.2-.2s.2-.1.3 0 .3.1.4.2.2.2.3.2c.3.2.5.4.8.6z"/><path d="m226.6 111.8-7.4 32.4-6-1.3c-.3.3-.5.6-.8.9s-.5.6-.8.9l8.1 1.8c.3.1.6 0 .8-.1s.4-.4.5-.7l8.2-35.9c-.4.3-.9.6-1.3.9s-.9.7-1.3 1.1z"/><path d="m234 35.7c.1-.5-.2-1-.7-1.1l-6.7-1.6h-.1c-.6-.1-1.1.3-1.2.9s.2 1.1.8 1.3l6.7 1.3c.7-.1 1.1-.4 1.2-.8z"/><path d="m220 31.4-6.7-1.5c-.5-.1-1 0-1.3.4s-.4.9-.3 1.3c.2.5.6.8 1 .8l6.7 1.4c.7.1 1.3-.3 1.4-.9s-.1-1.4-.8-1.5z"/><path d="m206.7 28.4-6.7-1.5c-.5-.1-1 0-1.3.4s-.5.9-.3 1.4.6.8 1.1.9l6.7 1.4c.5.1 1-.1 1.3-.4.3-.4.4-.8.3-1.3-.3-.5-.7-.8-1.1-.9z"/><path d="m194.3 27.1c.1-.4 0-.7-.2-1s-.5-.5-.9-.6l-6.7-1.5c-.7-.1-1.4.4-1.6 1.1-.1.7.3 1.4 1 1.6l6.7 1.4c.8.2 1.6-.3 1.7-1z"/><path d="m179.9 22.5-6.7-1.5c-.8-.2-1.5.3-1.7 1.1s.3 1.5 1.1 1.7l6.7 1.4c.7.1 1.4-.4 1.6-1.1.1-.7-.3-1.4-1-1.6z"/><path d="m165.9 22.4c.7.1 1.5-.3 1.6-1.1.2-.7-.3-1.5-1-1.7l-6.7-1.5c-.8-.2-1.5.3-1.7 1.1s.3 1.5 1.1 1.7z"/><path d="m153.1 16.7-6.7-1.5c-.8-.1-1.5.4-1.6 1.1-.2.7.3 1.5 1.1 1.7l6.7 1.4c.8.2 1.5-.3 1.7-1.1 0-.7-.5-1.4-1.2-1.6z"/><path d="m132.4 15.2 6.7 1.4c.5.1 1-.1 1.4-.4.3-.4.5-.9.3-1.4s-.6-.8-1.1-1l-6.7-1.4c-.5-.1-1 0-1.4.4s-.5.9-.3 1.4.5.9 1.1 1z"/><path d="m129.2 28.2c.8.2 1.6-.3 1.7-1.1l1.4-6.7c.2-.8-.3-1.5-1.1-1.7s-1.5.3-1.7 1.1l-1.5 6.7c-.1.4 0 .8.2 1.1.3.3.7.5 1 .6z"/><path d="m126.3 41.6c.4.1.8 0 1.1-.2s.6-.5.6-.9l1.4-6.7c.2-.8-.3-1.5-1.1-1.7s-1.6.3-1.7 1.1l-1.5 6.7c-.1.7.4 1.5 1.2 1.7z"/><path d="m125.5 45.3c-.8-.2-1.6.3-1.8 1.1l-1.5 6.7c-.1.5.1 1.1.5 1.4.4.4 1 .5 1.5.3s.9-.6 1-1.1l1.4-6.7c.2-.7-.3-1.5-1.1-1.7z"/><path d="m123.7 60.4c.2-.8-.3-1.6-1.1-1.8-.6-.1-1.3.1-1.6.7-.1.1-.2.3-.2.5l-1.5 6.7c-.2.8.3 1.6 1.2 1.8s1.6-.3 1.8-1.2l1.3-6.2z"/><path d="m117.6 81.6c.8.2 1.6-.3 1.8-1.2l1.4-6.7c.2-.8-.3-1.6-1.2-1.8-.8-.2-1.6.3-1.8 1.2l-1.5 6.7c-.1.8.5 1.6 1.3 1.8z"/><path d="m115 86.5-1.4 6.7c-.1.8.4 1.6 1.2 1.7s1.6-.3 1.8-1.1l.1-.4.3-1.2 1.1-5.1c.1-.5 0-1.1-.4-1.5s-1-.5-1.5-.3c-.7.2-1.1.6-1.2 1.2z"/><path d="m112.1 99.8-1.4 6.7c-.2.8.3 1.6 1.2 1.8s1.6-.3 1.8-1.2l1.5-6.7c.2-.8-.3-1.6-1.2-1.8-.9-.1-1.8.4-1.9 1.2z"/><path d="m114.3 112.4 6.7 1.4c.8.1 1.6-.4 1.7-1.2.2-.8-.3-1.6-1.1-1.8l-6.7-1.5c-.8-.2-1.6.3-1.8 1.1-.1 1 .4 1.8 1.2 2z"/><path d="m128.3 112.4c-.5-.1-1.1.1-1.4.5s-.5.9-.3 1.5c.2.5.6.9 1.1 1l6.7 1.4c.8.2 1.6-.3 1.8-1.1s-.3-1.6-1.1-1.8z"/><path d="m141.7 115.3c-.5-.1-1.1 0-1.5.4s-.5 1-.3 1.5.6.9 1.2 1l6.7 1.5c.8.2 1.6-.3 1.8-1.1s-.3-1.6-1.1-1.7z"/><path d="m155.1 118.2c-.8-.2-1.6.3-1.7 1.1-.2.8.3 1.6 1.1 1.7l6.7 1.4c.4.1.8 0 1.2-.2-.6-.8-1.1-1.8-1.4-2.8z"/><path d="m202 128.3-5.4-1.2c-.4.5-.9.9-1.5 1.2-.4.2-.9.5-1.3.6.2.3.5.6.9.7l6.7 1.4 1-.8.4.3c.3-.4.4-.9.2-1.4-.1-.3-.5-.7-1-.8z"/><path d="m216 114.3c-.4-.1-.7 0-1 .2s-.5.5-.6.9l-.7 3c1.1-1.1 2.1-2.3 3.2-3.3-.2-.4-.5-.7-.9-.8z"/><path d="m218.5 109.3 1.4-6.7c.1-.7-.3-1.4-1.1-1.6s-1.4.3-1.6 1l-1.5 6.7c-.2.7.3 1.5 1.1 1.6.8.2 1.5-.3 1.7-1z"/><path d="m220.2 88.7-.7 3.1-.4 1.6-.4 1.6-.1.4c-.1.5.1.9.4 1.3.4.3.9.4 1.3.3.5-.1.8-.5.9-1l.2-1 .3-1.6.3-1.3.6-2.8c.2-.7-.3-1.4-1-1.5s-1.2.2-1.4.9z"/><path d="m223.2 75.4-1.5 6.7c-.1.7.3 1.3 1 1.4s1.3-.3 1.5-.9l1.4-6.7c.1-.6-.3-1.2-.9-1.3-.7-.2-1.3.2-1.5.8z"/><path d="m224.8 68.8c-.1.6.3 1.2.8 1.3.6.1 1.2-.3 1.3-.8l1.3-6.7c.1-.5-.2-1-.7-1.1s-1 .2-1.2.7z"/><path d="m230.4 48.3c-.4-.1-.7.1-.8.5l-1.6 6.6c-.1.3-.1.7.2 1s.6.3 1 .2.5-.5.5-.8l1.3-6.7c0-.3-.3-.7-.6-.8z"/><path d="m231.6 40.4-.4 1.8c0 .2 0 .4.2.5.1.1.3.2.5.1s.3-.2.3-.4l.3-1.9c0-.2 0-.3-.1-.4s-.3-.1-.4-.1c-.2.1-.3.2-.4.4z"/><path d="m313.9 153.5c-.1-.2-.3-.4-.6-.5s-.5 0-.8.2c-1.9 1.6-3.7 3.3-5.2 5.2-1.6 1.9-2.9 3.9-4.1 6.1-1.2 2.1-2.1 4.5-2.7 6.8-.6 2.4-.7 5.1.5 7.3.1.1.2.1.3.1.1-.1.1-.2.1-.3-.8-2.2-.5-4.6.2-6.8s1.7-4.4 2.9-6.4c.2-.3.3-.5.5-.8.8.4 1.5.8 2.2 1.3.8.6 1.4 1.4 2.3 2.3s2.1 1.5 3.4 1.8c.7.2 1.5.2 2.2.1-.1.6-.2 1.1-.3 1.7-.6 2.9-1.7 5.7-3.7 7.8-1 1.1-2.2 1.9-3.6 2.3s-3 .3-4.4-.3h-.2c0 .1 0 .2.1.2.3.2.6.3 1 .4-2-.4-4.1 0-5.9.9-.5.3-.9.5-1.3.9-1.6 1.2-2.7 2.9-3.2 4.8l-3.8 13-4 13.7-4.4-.1h-6l-20.7-.1c-.4 0-.7.3-.7.7l.6 16.3.8 21.5.2 5.3.4 11.1c.1 1.8.1 3.5.2 5.5.2 2 1 3.9 2.2 5.4 1.3 1.7 3.1 2.9 5.1 3.6 1.7.6 3.5.9 5.2.8h21.8c1.5.1 3-.1 4.4-.5 2.3-.7 4.4-2 5.9-3.9 1.2-1.5 2-3.4 2.2-5.4l.4-5.4.7-10.8c.9-14.4 1.6-28.7 2.3-43.1 0-.1-.1-.1-.2-.1s-.1.1-.2.1c-1.3 14.3-2.5 28.6-3.5 43l-.8 10.8-.4 5.4c-.2 1.7-.8 3.2-1.8 4.5-2.1 2.6-5.5 3.9-9 3.7h-21.8c-1.7.1-3.4-.2-5-.8s-2.9-1.6-4-2.9c-1-1.3-1.7-2.8-1.9-4.4-.1-1.7-.2-3.6-.2-5.3l-.4-10.8-.2-5.3-.9-21.5-.7-15.6 20-.1h11.9c3 0 5.9-.1 8.9-.1.2 0 .3-.1.3-.3s-.1-.3-.3-.3c-2.9 0-5.7-.1-8.6-.1l3.9-13.3 3.8-12.9c.3-1 .8-2 1.5-2.8.6-.7 1.3-1.3 2.2-1.8 1.8-.9 3.9-1.1 5.8-.4s3.5 2.1 4.3 3.9c.4.9.6 1.9.6 2.9s-.2 2.1-.6 3l-3.8 12.9-2.6 8.8h1.8l2.5-8.3 3.8-12.9c.4-1.1.6-2.3.7-3.6 0-3.8-2.4-7.2-6-8.5.7.1 1.5.1 2.2 0 1.6-.3 3.1-1.1 4.3-2.2 2.4-2.3 3.8-5.3 4.5-8.4 1.3-6.8.1-13.3-2.6-19zm-.5 14.8c-.9-.3-1.8-.8-2.5-1.4l-.1-.1c-.7-.7-1.6-1.7-2.7-2.3-.8-.4-1.6-.7-2.5-.8 2-3.1 4.4-5.9 7.2-8.3 1 2.4 1.8 4.9 2.2 7.4.3 2 .5 4.1.3 6.1h-.2c-.6-.2-1.2-.4-1.7-.6z"/><path d="m264.1 253.8c-.1-1.7-.2-3.4-.3-5.2-.2-2.3-.2-4.7-.9-7 0-.1-.1-.2-.2-.2s-.2.1-.2.2c-.6 2.4-.4 4.7-.4 7.1 0 1.7.1 3.4.1 5.1 0 .6 0 1.3.1 1.9.1 2.3.2 4.7.4 7s.2 4.7.9 7c0 .1.1.2.2.2s.2-.1.2-.2c.6-2.4.4-4.7.4-7.1s-.1-4.7-.2-7c0-.5 0-1.2-.1-1.8z"/><path d="m188.4 136.9c.1-.1.2-.1.4-.2.1-.1.3-.2.5-.3-.3-.1-.5-.1-.8-.2z"/><path d="m88.9 245.5c-1.7.8-3.6 1.3-5.4.9-.9-.2-1.8-.6-2.5-1.2-.4-.3-.7-.6-1-1-.2-.3-.2-.6-.1-.9s.3-.6.6-.7c.4-.2.9-.4 1.3-.5.9-.3 1.9-.3 2.8-.1 1.8.3 3.2 1.9 4.4 3.3zm4-1.5c1-.5 2.1-.7 3.1-.6 1.1.1 2.1.6 2.9 1.3.2.1.4.3.6.4.2.2.3.4.3.6.1.5-.1 1.1-.5 1.4-.7.5-1.6.7-2.5.7-.8.1-1.7 0-2.5-.1-.8-.2-1.6-.5-2.2-1-.5-.4-1-.8-1.4-1.3.6-.4 1.4-1 2.2-1.4zm1.7-7.9c1-.4 2.1-.5 3.2-.3s2 .8 2.8 1.5c.2.1.4.3.5.5l.3.6c.1.5-.2 1.1-.7 1.3-.8.4-1.7.6-2.6.5-.8 0-1.7-.1-2.5-.3s-1.5-.6-2.1-1.1c-.5-.4-.9-.9-1.3-1.4.8-.5 1.6-.9 2.4-1.3zm10.7-3.8s0 .1 0 0c0 .2-.1.4-.2.6-.2.3-.5.5-.8.6-.9.2-1.8.2-2.6-.1-.8-.2-1.6-.5-2.3-.9-.1-.1-.3-.2-.4-.3-.5-.4-1-.8-1.4-1.3s-.7-1.1-.9-1.7c.8-.4 1.7-.7 2.6-.8 1.1-.1 2.2 0 3.1.4 1 .5 1.8 1.2 2.4 2.1.2.2.3.4.4.6s.1.4.1.6z"/></g><path d="m74.2 165.9h43.8v87.9h-43.8z" fill="#f6f7f7"/><path d="m144.2 232.2h-49.9v-50.1h49.9" fill="#f6f7f7"/></g><g transform="translate(53 -72.779)"><path d="m92.1 243.8-4.6 14.6v7.4l2.9 8.6 6.5 7.3 7.4 2.7h9.2l9.3-6.2 5.3-10.3 1-7.7-3.8-12.9-1.5-4.6z" fill="#fff"/><path d="m108.6 249.8c5.5.1 11 .1 16.4.3l-1.9-6.3h-30.6l-1.9 6.4c2.4-.2 4.8-.2 7.2-.3z" fill="none"/><path d="m97.9 251.6c-2.5-.1-5-.1-7.5-.3l-2.4 8c-.3 2.9-.1 5.9.6 8.8s2 5.6 3.8 8c3.5 4.8 9.3 8.1 15.4 8.3v-.2c3 0 6-.8 8.7-2.3 2.6-1.4 5-3.4 6.8-5.9 3.6-4.8 5.2-10.9 4.4-16.8l-2.3-7.8c-5.6.3-11.2.2-16.8.3z" fill="none"/><path d="m116.2 233.3h-.2c-.2-.2-.3-.5-.4-.8l-.9 1.8c-1.1 2.5-1.9 5.1-2.2 7.9h.6c.9-2.4 1.9-4.8 3.1-7.1.3-.5.5-1 .8-1.5l-.8-.3c.1 0 .1 0 0 0z" fill="#c3c4c7"/><path d="m133.1 214.9c.1-.1.1-.3 0-.4s-.3-.2-.4-.1c-4.9 3.4-9.4 7.5-13.2 12.1-1.4 1.7-2.6 3.6-3.7 5.6.2.3.3.7.5 1v.1l.7.2c1.2-2 2.5-4 3.9-5.8 3.6-4.6 8-8.4 12.2-12.7z" fill="#c3c4c7"/><path d="m116.2 233.3c.1 0 .1 0 0 0l-.1-.1c-.2-.3-.3-.6-.5-.9l-.1.2c.1.3.3.5.4.8l.1.1s.2 0 .2-.1z" fill="#f6f7f7"/><path d="m116.2 233.2.1.1-.1-.1c-.1-.3-.3-.7-.4-1l-.1.2c.1.2.3.5.5.8z" fill="#f6f7f7"/><path d="m104 225.6c0-.2-.1-.4-.1-.6l-.3.3c-.1.1-.2 0-.2 0l-1 .3c0 .1 0 .2.1.3.9 5.4 1.4 10.8 1.8 16.2h.4c.2-5.5 0-11-.7-16.5z" fill="#c3c4c7"/><path d="m103.3 225.1c.2-.1.3-.3.5-.4-.9-5.5-2.4-10.8-4.5-15.9-2.3-5.4-5.4-10.4-9.3-14.9-3.9-4.4-8.5-8.1-13.6-11-.2-.1-.3 0-.4.1s-.1.3.1.4c4.8 3.2 9 7.1 12.8 11.4 3.7 4.4 6.6 9.3 8.8 14.6 2.2 5.2 3.8 10.6 4.7 16.1l1-.3c-.1 0-.1-.1-.1-.1z" fill="#c3c4c7"/><path d="m103.8 224.9v-.2c-.2.1-.3.3-.5.4 0 0-.1.1 0 .2h.1z" fill="#f6f7f7"/><path d="m91.9 243.9h.7l.2-.6z" fill="#f6f7f7"/><path d="m112.5 243.2c-.1 0-.1-.1-.1-.2 0-.3.1-.6.1-.9h-7.9c0 .3 0 .6-.1.9 0 .1-.1.2-.2.1-.1 0-.1-.1-.2-.2l-.1-.9h-12.2c-.4 0-.7.3-.8.6l-2.2 7.6c.6-.1 1.2-.1 1.8-.2l1.9-6.4h-.7l.8-.6-.2.6h30.6l-.2-.6.8.6h-.6l1.9 6.3 1.8.1-2.2-7.4c-.1-.4-.4-.6-.8-.6h-10.7l-.3.9c0 .2-.1.3-.2.3z" fill="#c3c4c7"/><path d="m123 243.3.2.6h.6z" fill="#f6f7f7"/><path d="m127.7 259.2s0-.1 0 0c.8 6-.8 12-4.4 16.8-1.8 2.4-4.1 4.4-6.8 5.9-2.7 1.4-5.7 2.2-8.7 2.3v.2c-6.2-.2-11.9-3.5-15.4-8.3-1.8-2.4-3.1-5.1-3.8-8s-.9-5.9-.6-8.8v.1-.1.1l2.4-8c-.6 0-1.1-.1-1.7-.1l-2.3 7.7v.1c-.7 6.4 1.1 12.8 5 17.8 2 2.5 4.5 4.5 7.3 5.9s6 2 9.1 1.9v.2c3.2 0 6.3-.7 9.1-2.1s5.3-3.5 7.3-6c3.9-5.1 5.7-11.5 5-17.8v-.1l-2.2-7.5-1.7.1z" fill="#c3c4c7"/><path d="m112.4 243c0 .1 0 .2.1.2s.2 0 .2-.1l.3-.9h-.6z" fill="#f6f7f7"/><path d="m103 190.4c-3.2-5.4-7.4-10.1-12.5-13.8-2.5-1.9-5.3-3.3-8.2-4.3s-6-1.3-8.9-.4c-2.8.8-5.2 3-6.7 5.5s-1.7 5.6-1.4 8.6c.6 6.2 3.1 12.1 6 17.6 3 5.6 6.6 10.8 10.9 15.4 2.1 2.3 4.5 4.4 7.2 6.1 1.3.8 2.7 1.5 4.2 1.9s3 .3 4.4-.3c.1 0 .2-.1.2 0 .1 0 .2.1.2.2l3.8-1.3c-.9-5.5-2.5-10.9-4.7-16.1-2.2-5.3-5.1-10.2-8.8-14.6s-8-8.2-12.8-11.4c-.1-.1-.2-.3-.1-.4s.3-.2.4-.1c5.1 2.9 9.8 6.6 13.6 11 3.9 4.5 7 9.5 9.3 14.9 2.1 5.1 3.6 10.4 4.5 15.9 2.2-2 3.8-4.5 4.6-7.3.8-3 1.1-6.2.7-9.3-.5-6.4-2.8-12.4-5.9-17.8z" fill="#fff"/><path d="m142.5 204.6c-1.3-1.8-3.1-3.1-5.3-3.6-2.5-.6-5.1-.6-7.6.1l-1.4 10.9c0 .4-.4.7-.8.7s-.8-.2-.9-.6l-2.5-8.8c-3.9 3.6-6.8 8.1-8.6 13.1-.9 2.7-1.4 5.5-1.4 8.4 0 2.5.5 5 1.6 7.2 1.1-2 2.3-3.8 3.7-5.6 3.8-4.6 8.3-8.7 13.2-12.1.1-.1.3-.1.4.1s.1.3 0 .4c-4.2 4.2-8.7 8.1-12.2 12.8-1.5 1.8-2.8 3.8-3.9 5.8l2.9 1.1c.1-.2.3-.2.4-.2 2.4.9 5.1.5 7.5-.3 2.4-.9 4.7-2.1 6.8-3.7 1-.7 1.9-1.5 2.7-2.3 2.9-2.7 5.2-5.9 6.8-9.5 1-2.3 1.4-4.8 1.2-7.3-.1-2.4-1-4.7-2.6-6.6z" fill="#fff"/><g fill="#c3c4c7"><path d="m93.4 227.9c1.7.4 3.4.2 4.9-.6.1-.1.2-.2.1-.4 0-.1-.1-.1-.2-.2h-.2c-1.4.6-3 .8-4.4.3-1.5-.4-2.9-1.1-4.2-1.9-2.6-1.7-5-3.8-7.2-6.1-4.3-4.6-8-9.8-10.9-15.4-2.9-5.5-5.4-11.5-6-17.6-.3-3 0-6.2 1.5-8.7s3.9-4.7 6.7-5.5c2.8-.9 6-.6 8.9.4s5.7 2.5 8.2 4.3c5.1 3.7 9.3 8.4 12.5 13.8 3 5.5 5.3 11.5 6 17.7.4 3.1.1 6.2-.7 9.3-.8 2.8-2.4 5.4-4.6 7.3v.4c2.5-1.9 4.3-4.5 5.3-7.5 1-3.1 1.3-6.4 1.1-9.6-.5-6.5-2.8-12.6-5.8-18.3-3.2-5.7-7.6-10.6-12.9-14.4-2.6-2-5.5-3.5-8.6-4.6s-6.6-1.5-10-.5c-3.3 1-6 3.5-7.7 6.4-1.8 3-1.9 6.6-1.6 9.8.7 6.5 3.3 12.6 6.4 18.2s7 10.8 11.4 15.5c2.2 2.3 4.8 4.4 7.5 6.1 1.4.8 2.9 1.4 4.5 1.8z"/><path d="m145.6 219.2c1.1-2.5 1.6-5.3 1.4-8.1s-1.3-5.5-3-7.7c-.8-1.2-1.9-2.1-3.1-2.9-1.1-.7-2.3-1.1-3.6-1.4l-.4-.1c-2.8-.5-5.6-.3-8.3.6-.3.1-.5.4-.6.7l-1 7.4-1.8-6.1c-.1-.3-.3-.5-.6-.6s-.6 0-.8.2c-4.5 4-7.8 9.1-9.6 14.8-.9 2.8-1.2 5.8-1.1 8.8.2 2.7.9 5.3 2.2 7.6l.1-.2.1-.2c-1.1-2.3-1.6-4.7-1.6-7.2 0-2.9.4-5.7 1.4-8.4 1.7-5 4.6-9.5 8.5-13.1l2.5 8.8c.1.4.5.6.9.6s.7-.3.8-.7l1.5-10.9c2.5-.7 5.1-.8 7.6-.1 2.1.5 4 1.8 5.3 3.6 1.5 1.9 2.5 4.3 2.7 6.8s-.2 5-1.2 7.3c-1.6 3.6-3.9 6.9-6.8 9.5-.9.8-1.8 1.6-2.7 2.3-2 1.6-4.3 2.8-6.8 3.7-2.4.8-5.1 1.2-7.5.3-.2-.1-.3 0-.4.2s0 .3.2.4c2.5 1.2 5.5 1 8.1.2s5-2 7.2-3.6c.7-.5 1.3-1 1.9-1.5 3.8-3 6.6-6.7 8.5-11z"/><path d="m129.9 250.4c-1.1-.1-2.1-.1-3.2-.2l-1.8-.1c-5.5-.2-11-.2-16.4-.3l-10.7.1c-2.4.1-4.8.1-7.2.3-.6 0-1.2.1-1.8.2-.5.1-1.1.1-1.6.2-.1 0-.1.1-.1.2s.1.1.1.2c.5.1 1 .1 1.4.2.6.1 1.1.1 1.7.1 2.5.2 5 .3 7.5.3l10.7.1c5.6-.1 11.2-.1 16.8-.3l1.7-.1c.9-.1 1.9-.1 2.8-.2.2 0 .3-.1.3-.3.2-.2 0-.4-.2-.4z"/></g></g></svg>
