<svg width="48" height="48" viewBox="0 0 48 48" fill="none" xmlns="http://www.w3.org/2000/svg">
<rect width="48" height="48" rx="24" fill="#0277A8"/>
<path fill-rule="evenodd" clip-rule="evenodd" d="M28.112 16.0323H16.8032C16.5193 16.0323 16.2892 16.2625 16.2892 16.5464V27.8551C16.2892 28.139 16.5193 28.3692 16.8032 28.3692H28.112C28.3959 28.3692 28.626 28.139 28.626 27.8551V16.5464C28.626 16.2625 28.3959 16.0323 28.112 16.0323ZM16.8032 14.4902C15.6676 14.4902 14.7471 15.4108 14.7471 16.5464V27.8551C14.7471 28.9907 15.6676 29.9113 16.8032 29.9113H28.112C29.2475 29.9113 30.1681 28.9907 30.1681 27.8551V16.5464C30.1681 15.4108 29.2475 14.4902 28.112 14.4902H16.8032Z" fill="white"/>
<path fill-rule="evenodd" clip-rule="evenodd" d="M32.224 30.6826V19.6309H33.7661V30.6826C33.7661 32.244 32.5004 33.5098 30.9389 33.5098H17.8311V31.9677H30.9389C31.6487 31.9677 32.224 31.3923 32.224 30.6826Z" fill="white"/>
<path d="M19.5022 19.1172L18.4741 20.1453L20.5303 22.2014L18.4741 24.2575L19.5022 25.2856L22.5864 22.2014L19.5022 19.1172Z" fill="white"/>
<path d="M23.3577 19.1172L22.3296 20.1453L24.3857 22.2014L22.3296 24.2575L23.3577 25.2856L26.4419 22.2014L23.3577 19.1172Z" fill="white"/>
</svg>
