<svg width="24" height="24" viewBox="0 0 24 24" fill="none" xmlns="http://www.w3.org/2000/svg">
<mask id="mask0" mask-type="alpha" maskUnits="userSpaceOnUse" x="4" y="2" width="16" height="19">
<path fill-rule="evenodd" clip-rule="evenodd" d="M17.95 2.3999H5.55004V3.9499H17.95V2.3999ZM5.55004 20.9999H17.95V19.4499H5.55004V20.9999ZM5.55 5.49988H17.95C18.8025 5.49988 19.5 6.19738 19.5 7.04988V16.3499C19.5 17.2024 18.8025 17.8999 17.95 17.8999H5.55C4.6975 17.8999 4 17.2024 4 16.3499V7.04988C4 6.19738 4.6975 5.49988 5.55 5.49988ZM11.75 7.6311C12.711 7.6311 13.4937 8.41385 13.4937 9.37485C13.4937 10.3358 12.711 11.1186 11.75 11.1186C10.789 11.1186 10.0062 10.3358 10.0062 9.37485C10.0062 8.41385 10.789 7.6311 11.75 7.6311ZM7.87499 15.5748H15.625V14.4123C15.625 13.1181 13.0442 12.4748 11.75 12.4748C10.4557 12.4748 7.87499 13.1181 7.87499 14.4123V15.5748Z" fill="white"/>
</mask>
<g mask="url(#mask0)">
</g>
<path fill-rule="evenodd" clip-rule="evenodd" d="M4 17.2969H5V18.9643C5 19.6744 5.57563 20.25 6.28571 20.25H19.7143C20.4244 20.25 21 19.6744 21 18.9643V5.78571C21 5.07563 20.4244 4.5 19.7143 4.5H6.28571C5.57563 4.5 5 5.07563 5 5.78571V7.45312H4C3.44772 7.45312 3 7.89384 3 8.4375C3 8.98116 3.44772 9.42188 4 9.42188H5C5.55228 9.42188 6 9.86259 6 10.4062C6 10.9499 5.55228 11.3906 5 11.3906H4C3.44772 11.3906 3 11.8313 3 12.375C3 12.9187 3.44772 13.3594 4 13.3594H5C5.55228 13.3594 6 13.8001 6 14.3438C6 14.8874 5.55228 15.3281 5 15.3281H4C3.44772 15.3281 3 15.7688 3 16.3125C3 16.8562 3.44772 17.2969 4 17.2969ZM13.25 11.75C14.2165 11.75 15 10.9665 15 10C15 9.0335 14.2165 8.25 13.25 8.25C12.2835 8.25 11.5 9.0335 11.5 10C11.5 10.9665 12.2835 11.75 13.25 11.75ZM13.25 12.75C15.183 12.75 16.75 14.317 16.75 16.25V16.75H9.75V16.25C9.75 14.317 11.317 12.75 13.25 12.75Z" fill="#646970"/>
</svg>
