<svg width="24" height="24" viewBox="0 0 24 24" fill="none" xmlns="http://www.w3.org/2000/svg">
<path fill-rule="evenodd" clip-rule="evenodd" d="M4.5 4H19.5C20.3284 4 21 4.67157 21 5.5V18.25C21 19.0784 20.3284 19.75 19.5 19.75H4.5C3.67157 19.75 3 19.0784 3 18.25V5.5C3 4.67157 3.67157 4 4.5 4ZM5.84156 6.94374C5.39627 6.61703 4.77044 6.71316 4.44374 7.15844C4.11703 7.60373 4.21316 8.22956 4.65845 8.55626L10.5227 12.8589C11.4031 13.5048 12.6008 13.5046 13.481 12.8585L19.3418 8.55611C19.787 8.22929 19.8829 7.60344 19.5561 7.15824C19.2293 6.71303 18.6034 6.61707 18.1582 6.94389L12.2975 11.2462C12.1214 11.3755 11.8819 11.3755 11.7058 11.2463L5.84156 6.94374Z" fill="#646970"/>
</svg>
