<?xml version="1.0" encoding="UTF-8" standalone="no"?>
<svg width="206px" height="206px" viewBox="0 0 206 206" version="1.1" xmlns="http://www.w3.org/2000/svg" xmlns:xlink="http://www.w3.org/1999/xlink">
    <!-- Generator: Sketch 3.7.2 (28276) - http://www.bohemiancoding.com/sketch -->
    <title>address-bar</title>
    <desc>Created with Sketch.</desc>
    <defs>
        <circle id="path-1" cx="99" cy="99" r="99"></circle>
        <mask id="mask-2" maskContentUnits="userSpaceOnUse" maskUnits="objectBoundingBox" x="-4" y="-4" width="206" height="206">
            <rect x="-4" y="-4" width="206" height="206" fill="white"></rect>
            <use xlink:href="#path-1" fill="black"></use>
        </mask>
        <circle id="path-3" cx="99" cy="99" r="99"></circle>
        <rect id="path-5" x="0" y="0" width="488" height="361" rx="4"></rect>
        <mask id="mask-6" maskContentUnits="userSpaceOnUse" maskUnits="objectBoundingBox" x="-4" y="-4" width="496" height="369">
            <rect x="-4" y="-4" width="496" height="369" fill="white"></rect>
            <use xlink:href="#path-5" fill="black"></use>
        </mask>
        <rect id="path-7" x="93" y="6" width="334" height="28" rx="4"></rect>
        <mask id="mask-8" maskContentUnits="userSpaceOnUse" maskUnits="objectBoundingBox" x="-1" y="-1" width="336" height="30">
            <rect x="92" y="5" width="336" height="30" fill="white"></rect>
            <use xlink:href="#path-7" fill="black"></use>
        </mask>
        <path d="M97.25,40 L71.0028524,40 C69.3442117,40 68,41.3470833 68,43.0087948 L68,340.991205 C68,342.661303 69.3444228,344 71.0028524,344 L451.997148,344 C453.655788,344 455,342.652917 455,340.991205 L455,43.0087948 C455,41.3386965 453.655577,40 451.997148,40 L121.75,40 L109.5,28 L97.25,40 Z" id="path-9"></path>
        <filter x="-50%" y="-50%" width="200%" height="200%" filterUnits="objectBoundingBox" id="filter-10">
            <feMorphology radius="1" operator="dilate" in="SourceAlpha" result="shadowSpreadOuter1"></feMorphology>
            <feOffset dx="0" dy="4" in="shadowSpreadOuter1" result="shadowOffsetOuter1"></feOffset>
            <feGaussianBlur stdDeviation="8" in="shadowOffsetOuter1" result="shadowBlurOuter1"></feGaussianBlur>
            <feComposite in="shadowBlurOuter1" in2="SourceAlpha" operator="out" result="shadowBlurOuter1"></feComposite>
            <feColorMatrix values="0 0 0 0 0.180392157   0 0 0 0 0.266666667   0 0 0 0 0.325490196  0 0 0 0.3 0" type="matrix" in="shadowBlurOuter1"></feColorMatrix>
        </filter>
        <mask id="mask-11" maskContentUnits="userSpaceOnUse" maskUnits="objectBoundingBox" x="-1" y="-1" width="389" height="318">
            <rect x="67" y="27" width="389" height="318" fill="white"></rect>
            <use xlink:href="#path-9" fill="black"></use>
        </mask>
    </defs>
    <g id="Enable-Notifications" stroke="none" stroke-width="1" fill="none" fill-rule="evenodd">
        <g id="address-bar">
            <g id="Group-15-Copy" transform="translate(4.000000, 4.000000)">
                <g id="Oval-2">
                    <use fill="#F3F6F8" fill-rule="evenodd" xlink:href="#path-1"></use>
                    <use stroke="#C8D7E1" mask="url(#mask-2)" stroke-width="8" xlink:href="#path-1"></use>
                </g>
                <g id="Group-11-Copy">
                    <mask id="mask-4" fill="white">
                        <use xlink:href="#path-3"></use>
                    </mask>
                    <g id="Mask"></g>
                    <g mask="url(#mask-4)">
                        <g transform="translate(10.000000, 42.000000)">
                            <g id="Rectangle-64" fill="none">
                                <use fill="#FFFFFF" fill-rule="evenodd" xlink:href="#path-5"></use>
                                <use stroke="#E9EFF3" mask="url(#mask-6)" stroke-width="8" xlink:href="#path-5"></use>
                            </g>
                            <rect id="Rectangle-64-Copy" fill="#F3F6F8" fill-rule="evenodd" x="0" y="0" width="488" height="40" rx="4"></rect>
                            <g id="Rectangle-69" fill="none">
                                <use fill="#FFFFFF" fill-rule="evenodd" xlink:href="#path-7"></use>
                                <use stroke="#E9EFF3" mask="url(#mask-8)" stroke-width="2" xlink:href="#path-7"></use>
                            </g>
                            <text id="https://wordpress.co" fill="none" font-family="SFUIText-Regular, SF UI Text" font-size="13" font-weight="normal">
                                <tspan x="122.245605" y="24" fill="#C8D7E1">https://wordpress.com</tspan>
                            </text>
                            <rect id="Rectangle-66" fill="#E9EFF3" fill-rule="evenodd" x="0" y="40" width="488" height="4"></rect>
                            <g id="Group" stroke-width="1" fill="none" fill-rule="evenodd" transform="translate(13.000000, 8.000000)">
                                <rect id="Rectangle-path" x="0" y="0" width="24" height="24"></rect>
                                <polygon id="Shape" fill="#C8D7E1" points="20 11 7.83 11 13.42 5.41 12 4 4 12 12 20 13.41 18.59 7.83 13 20 13"></polygon>
                            </g>
                            <g id="Group" stroke-width="1" fill="none" fill-rule="evenodd" transform="translate(53.000000, 8.000000)">
                                <rect id="Rectangle-path" x="0" y="0" width="24" height="24"></rect>
                                <polygon id="Shape" fill="#C8D7E1" points="12 4 10.59 5.41 16.17 11 4 11 4 13 16.17 13 10.59 18.59 12 20 20 12"></polygon>
                            </g>
                            <g id="Group" stroke-width="1" fill="none" fill-rule="evenodd" transform="translate(101.000000, 11.000000)">
                                <rect id="Rectangle-path" x="0" y="0" width="16" height="16"></rect>
                                <path d="M12,5.33333333 L11.3333333,5.33333333 L11.3333333,4.66666667 C11.3333333,2.82866667 9.838,1.33333333 8,1.33333333 C6.162,1.33333333 4.66666667,2.82866667 4.66666667,4.66666667 L4.66666667,5.33333333 L4,5.33333333 C3.26333333,5.33333333 2.66666667,5.93 2.66666667,6.66666667 L2.66666667,13.3333333 C2.66666667,14.07 3.26333333,14.6666667 4,14.6666667 L12,14.6666667 C12.7366667,14.6666667 13.3333333,14.07 13.3333333,13.3333333 L13.3333333,6.66666667 C13.3333333,5.93 12.7366667,5.33333333 12,5.33333333 L12,5.33333333 Z M6,4.66666667 C6,3.564 6.89733333,2.66666667 8,2.66666667 C9.10266667,2.66666667 10,3.564 10,4.66666667 L10,5.33333333 L6,5.33333333 L6,4.66666667 L6,4.66666667 Z M8.66666667,10.482 L8.66666667,12 L7.33333333,12 L7.33333333,10.482 C6.93666667,10.2513333 6.66666667,9.826 6.66666667,9.33333333 C6.66666667,8.59666667 7.26333333,8 8,8 C8.73666667,8 9.33333333,8.59666667 9.33333333,9.33333333 C9.33333333,9.82533333 9.06333333,10.2506667 8.66666667,10.482 L8.66666667,10.482 Z" id="Shape" fill="#A8BECE"></path>
                            </g>
                            <g id="Combined-Shape" fill="none">
                                <use fill="black" fill-opacity="1" filter="url(#filter-10)" xlink:href="#path-9"></use>
                                <use fill="#FFFFFF" fill-rule="evenodd" xlink:href="#path-9"></use>
                                <use stroke="#C8D7E1" mask="url(#mask-11)" stroke-width="2" xlink:href="#path-9"></use>
                            </g>
                            <rect id="Rectangle-70" fill="#C8D7E1" fill-rule="evenodd" x="83" y="55" width="161" height="18"></rect>
                            <rect id="Rectangle-70-Copy-2" fill="#C8D7E1" fill-rule="evenodd" x="83" y="113" width="151" height="14"></rect>
                            <rect id="Rectangle-70-Copy-3" fill="#E9EFF3" fill-rule="evenodd" x="113" y="143" width="151" height="14"></rect>
                            <rect id="Rectangle-70-Copy" fill="#E9EFF3" fill-rule="evenodd" x="83" y="77" width="121" height="14"></rect>
                        </g>
                    </g>
                </g>
            </g>
        </g>
    </g>
</svg>