<svg width="529" height="364" viewBox="0 0 529 364" fill="none" xmlns="http://www.w3.org/2000/svg">
<g clip-path="url(#clip0_6818_85825)">
<path d="M699.296 191.672C678.015 196.441 655.936 204.784 639.716 215.799C623.323 226.682 612.428 240.793 605.396 256.275C598.265 271.61 594.561 287.915 590.849 301.733C587.22 315.635 586.978 326.602 585.707 334.097C584.548 341.736 582.66 345.91 578.97 348.038C575.309 350.235 569.845 350.607 562.754 351.82C555.66 353.133 547.101 355.376 537.025 362.286C526.851 369.089 515.587 382.534 498.813 396.324C482.478 409.825 457.115 420.408 424.766 388.141C399.661 362.931 377.595 324.65 360.366 291.191C342.856 257.483 329.259 228.394 314.704 208.648C300.215 188.871 282.843 178.795 268.537 172.696C254.329 166.697 242.442 163.615 233.024 158.322C223.591 153.112 216.649 145.685 212.182 134.725C207.664 123.827 205.684 109.514 205.265 93.7388C204.823 77.8782 205.701 60.9744 206.155 44.5797C206.865 28.0357 206.003 11.6168 209.819 -5.12041C213.617 -21.832 226.741 -37.2876 240.848 -56.3847C253.643 -74.1189 273.13 -90.7256 300.475 -102.532C327.697 -114.39 362.234 -121.061 397.992 -121.351C433.918 -121.713 471.184 -113.56 501.779 -103.138C532.531 -92.6916 558.087 -80.3728 580.763 -67.3238C603.445 -54.2831 624.412 -39.7854 640.557 -23.0076C656.764 -6.23726 668.331 11.8706 676.825 29.306C685.365 46.754 690.969 63.5685 696.209 78.4837C701.424 93.417 704.415 106.432 705.435 117.316C706.432 128.197 706.219 137.387 706.408 145.518C706.588 153.637 707.173 160.681 707.953 166.902C708.72 173.12 709.767 178.483 708.909 182.907C708.069 187.32 705.096 190.385 699.296 191.672Z" stroke="#D8A45F" stroke-width="0.619388" stroke-miterlimit="10"/>
<path d="M703.956 192.498C682.622 197.291 660.639 205.367 644.165 216.239C627.55 227.004 616.404 240.934 609.19 256.293C601.864 271.493 598.021 287.725 594.207 301.539C590.456 315.406 589.405 326.469 587.896 334.025C586.475 341.691 584.412 345.923 580.566 347.712C576.752 349.559 571.159 349.389 563.908 349.799C556.655 350.306 547.888 351.458 537.638 356.969C527.285 362.393 515.854 373.968 499.264 386.459C483.103 398.61 458.43 409.965 426.75 378.943C402.263 354.765 380.665 317.54 363.842 284.671C346.75 251.57 333.556 222.685 319.52 202.815C305.549 182.899 288.616 172.509 274.371 166.348C260.209 160.274 248.357 157.063 238.99 151.753C229.592 146.512 222.704 139.168 218.287 128.403C213.821 117.698 211.88 103.712 211.483 88.3013C211.069 72.801 211.936 56.2862 212.518 40.179C213.356 23.9409 212.788 7.6705 217.399 -8.71665C222.005 -25.0886 235.049 -40.3367 249.073 -59.246C261.825 -76.8239 281.366 -93.1208 308.677 -104.493C335.865 -115.921 370.246 -122.052 405.62 -121.867C441.177 -121.74 477.702 -112.585 507.455 -102.055C537.373 -91.4887 562.281 -79.2974 584.613 -66.2986C606.953 -53.3065 627.695 -38.6451 643.605 -21.887C659.57 -5.13686 671.058 12.8242 679.623 30.0683C688.227 47.3246 694.028 63.9049 699.491 78.5831C704.929 93.2682 707.616 106.296 708.56 117.274C709.492 128.248 709.273 137.612 709.543 145.891C709.805 154.159 710.58 161.342 711.604 167.649C712.606 173.956 713.978 179.453 713.296 183.83C712.603 188.171 709.715 191.213 703.956 192.498Z" stroke="#D8A45F" stroke-width="0.629434" stroke-miterlimit="10"/>
<path d="M708.684 193.281C687.245 198.136 665.408 205.927 648.671 216.665C631.83 227.318 620.453 241.085 613.05 256.317C605.538 271.395 601.568 287.551 597.641 301.36C593.765 315.192 591.942 326.337 590.182 333.956C588.493 341.659 586.235 345.872 582.208 347.473C578.228 349.149 572.508 348.344 565.096 347.997C557.685 347.75 548.742 347.886 538.315 352.052C527.798 356.16 516.207 365.946 499.777 377.094C483.762 387.854 459.753 399.722 428.732 369.934C404.846 346.768 383.697 310.597 367.276 278.351C350.583 245.884 337.77 217.244 324.229 197.282C310.758 177.278 294.324 166.477 280.142 160.225C266.054 154.056 254.237 150.695 244.922 145.332C235.574 140.043 228.738 132.747 224.372 122.176C219.953 111.653 218.057 97.9905 217.675 82.9366C217.291 67.7982 218.154 51.6685 218.87 35.8493C219.841 19.9159 219.62 3.82807 225.026 -12.1907C230.459 -28.1797 243.228 -43.2896 257.204 -62.0161C269.943 -79.4344 289.555 -95.4218 316.836 -106.358C343.954 -117.338 377.422 -123.557 413.283 -122.232C449.214 -120.939 483.954 -111.561 512.976 -100.957C542.088 -90.3077 566.375 -78.2648 588.395 -65.3157C610.432 -52.3713 630.943 -37.5354 646.624 -20.8262C662.365 -4.12178 673.807 13.6888 682.434 30.7229C691.111 47.7782 697.109 64.1172 702.798 78.5557C708.471 92.9962 710.795 106.093 711.671 117.177C712.541 128.253 712.328 137.802 712.695 146.232C713.061 154.657 714.02 161.957 715.314 168.355C716.581 174.749 718.278 180.336 717.758 184.658C717.227 188.962 714.446 191.996 708.684 193.281Z" stroke="#D8A45F" stroke-width="0.63948" stroke-miterlimit="10"/>
<path d="M713.478 194.019C691.881 198.978 670.211 206.462 653.218 217.078C636.154 227.628 624.544 241.232 616.963 256.347C609.273 271.3 605.165 287.387 601.143 301.196C597.145 314.997 594.607 326.212 592.562 333.891C590.562 341.624 588.119 345.843 583.899 347.264C579.719 348.751 573.881 347.461 566.306 346.405C558.742 345.449 549.618 344.625 539.035 347.523C528.363 350.38 516.614 358.449 500.335 368.23C484.441 377.581 461.053 389.656 430.697 361.113C407.408 338.928 386.699 303.836 370.656 272.226C354.341 240.405 341.898 212.047 328.821 192.034C315.817 171.97 299.953 160.715 285.836 154.344C271.805 148.045 260.05 144.514 250.791 139.085C241.496 133.729 234.725 126.478 230.405 116.078C226.046 105.734 224.171 92.3743 223.82 77.6823C223.465 62.9014 224.326 47.1514 225.201 31.6272C226.321 16.0009 226.478 0.113006 232.68 -15.5078C238.936 -31.0901 251.272 -46.1275 265.222 -64.67C277.982 -81.9238 297.677 -97.5955 324.935 -108.092C352.031 -118.65 385.611 -124.568 420.947 -122.313C456.353 -120.105 490.087 -110.449 518.322 -99.813C546.643 -89.1243 570.355 -77.2467 592.092 -64.3414C613.852 -51.4375 634.12 -36.4446 649.594 -19.7928C665.13 -3.14575 676.521 14.4874 685.24 31.3132C694.003 48.1571 700.208 64.2497 706.104 78.4489C711.999 92.6439 713.932 105.871 714.756 117.077C715.582 128.273 715.374 138.001 715.855 146.58C716.332 155.153 717.509 162.575 719.077 169.052C720.615 175.523 722.626 181.139 722.29 185.425C721.953 189.693 719.247 192.716 713.478 194.019Z" stroke="#D8A45F" stroke-width="0.64984" stroke-miterlimit="10"/>
<path d="M718.372 194.699C696.574 199.811 675.078 206.968 657.832 217.477C640.532 227.927 628.702 241.379 620.952 256.385C613.075 271.22 608.852 287.244 604.737 301.046C600.62 314.819 597.415 326.09 595.064 333.828C592.756 341.605 590.082 345.829 585.66 347.097C581.283 348.43 575.293 346.719 567.558 345.004C559.835 343.38 550.543 341.662 539.816 343.353C528.995 345.023 517.104 351.454 500.956 359.853C485.17 367.788 462.376 379.832 432.669 352.487C409.948 331.26 389.688 297.248 374.009 266.29C358.064 235.138 345.956 207.087 333.331 187.056C320.761 166.962 305.507 155.209 291.478 148.711C277.519 142.268 265.828 138.546 256.631 133.033C247.394 127.591 240.687 120.366 236.422 110.135C232.109 99.9491 230.282 86.9027 229.952 72.5565C229.624 58.1247 230.503 42.7512 231.547 27.5199C232.84 12.2078 233.38 -3.48137 240.393 -18.6624C247.489 -33.7963 259.22 -48.8532 273.184 -67.2064C285.991 -84.2914 305.794 -99.6359 333.017 -109.7C360.081 -119.84 393.782 -125.269 428.523 -122.179C463.339 -119.137 496.05 -109.296 523.539 -98.6492C551.083 -87.9593 574.262 -76.2586 595.753 -63.3905C617.26 -50.5314 637.281 -35.376 652.565 -18.8018C667.932 -2.22675 679.27 15.2092 688.085 31.8185C696.921 48.4474 703.704 64.3693 709.454 78.249C715.415 92.6195 717.075 105.609 717.859 116.959C718.642 128.286 718.46 138.196 719.068 146.918C719.665 155.636 721.074 163.17 722.946 169.717C724.77 176.259 727.121 181.868 726.946 186.114C726.785 190.349 724.141 193.364 718.372 194.699Z" stroke="#D8A45F" stroke-width="0.659886" stroke-miterlimit="10"/>
<path d="M723.355 195.315C701.314 200.635 679.992 207.447 662.491 217.856C644.966 228.219 632.909 241.518 624.99 256.415C616.951 271.143 612.593 287.092 608.386 300.896C604.166 314.652 600.354 325.976 597.668 333.756C595.018 341.568 592.112 345.816 587.474 346.956C582.886 348.164 576.719 346.101 568.831 343.765C560.954 341.523 551.517 338.964 540.636 339.507C529.687 340.051 517.657 344.927 501.621 351.938C485.938 358.47 463.698 370.226 434.634 344.035C412.475 323.742 392.647 290.797 377.32 260.51C361.73 230.039 349.943 202.321 337.742 182.31C325.581 162.217 310.989 149.957 297.049 143.312C283.177 136.717 271.544 132.781 262.419 127.176C253.258 121.64 246.61 114.419 242.394 104.348C238.128 94.3083 236.35 81.5658 236.05 67.5632C235.756 53.4738 236.653 38.4657 237.881 23.5295C239.348 8.52472 240.325 -6.93006 248.135 -21.6555C256.059 -36.322 267.056 -51.4763 281.061 -69.6385C293.937 -86.5535 313.873 -101.557 341.049 -111.187C368.085 -120.902 401.886 -125.689 435.965 -121.854C470.131 -118.068 501.832 -108.099 528.605 -97.4737C555.421 -86.8092 578.099 -75.289 599.365 -62.464C620.653 -49.6405 640.418 -34.336 655.519 -17.8599C670.718 -1.3779 682.031 15.8511 690.949 32.2374C699.851 48.6325 707.071 63.4907 712.766 78.0492C718.435 92.599 720.213 105.335 720.964 116.817C721.715 128.281 721.572 138.374 722.324 147.236C723.05 156.087 724.737 163.738 726.906 170.341C729.055 176.947 731.707 182.494 731.708 186.711C731.708 190.905 729.148 193.933 723.355 195.315Z" stroke="#D8A45F" stroke-width="0.669931" stroke-miterlimit="10"/>
<path d="M728.447 195.857C706.11 201.42 684.976 207.905 667.205 218.217C649.43 228.486 637.167 241.652 629.081 256.442C620.862 271.054 616.406 286.947 612.108 300.752C607.789 314.499 603.438 325.859 600.399 333.69C597.383 341.533 594.222 345.808 589.354 346.844C584.538 347.946 578.182 345.6 570.137 342.695C562.103 339.872 552.5 336.514 541.498 335.98C530.417 335.451 518.254 338.844 502.341 344.482C486.748 349.628 465.032 360.845 436.601 335.774C414.983 316.372 395.586 284.5 380.597 254.89C365.353 225.111 353.866 197.755 342.069 177.785C330.306 157.731 316.41 144.962 302.554 138.152C288.776 131.39 277.214 127.237 268.156 121.522C259.061 115.876 252.478 108.657 248.327 98.7309C244.116 88.8326 242.369 76.376 242.105 62.7061C241.853 48.9526 242.765 34.2942 244.208 19.6592C245.873 4.96445 247.275 -10.2412 255.905 -24.4855C264.411 -38.2001 274.826 -53.9914 288.868 -71.9657C301.836 -88.7008 321.895 -103.372 349.029 -112.559C376.034 -121.849 409.894 -125.848 443.262 -121.358C476.722 -116.921 507.447 -106.863 533.519 -96.298C559.612 -85.6995 581.848 -74.3619 602.916 -61.5643C624.015 -48.7662 643.492 -33.3383 658.443 -16.9738C673.483 -0.605496 684.809 16.4203 693.822 32.5605C702.821 48.7252 710.426 63.3674 716.049 77.7682C721.628 92.165 723.331 105.013 724.066 116.642C724.798 128.251 724.706 138.526 725.615 147.518C726.512 156.508 728.452 164.247 730.954 170.901C733.435 177.56 736.403 183.011 736.575 187.196C736.772 191.377 734.278 194.421 728.447 195.857Z" stroke="#D8A45F" stroke-width="0.680291" stroke-miterlimit="10"/>
<path d="M733.664 196.314C710.993 202.18 690.02 208.324 671.991 218.555C653.987 228.75 641.49 241.769 633.244 256.46C624.866 270.97 620.287 286.799 615.906 300.604C611.483 314.337 606.708 325.758 603.276 333.618C599.867 341.488 596.413 345.787 591.317 346.741C586.254 347.755 579.693 345.2 571.481 341.756C563.283 338.393 553.538 334.296 542.402 332.732C531.198 331.186 518.924 333.177 503.112 337.453C487.592 341.234 466.393 351.695 438.579 327.69C417.487 309.147 398.512 278.334 383.85 249.413C368.953 220.346 357.743 193.364 346.325 173.465C334.921 153.468 321.763 140.205 308.006 133.231C294.314 126.293 282.829 121.913 273.855 116.084C264.831 110.316 258.334 103.098 254.227 93.3034C250.086 83.5471 248.369 71.3582 248.141 58.0097C247.936 44.5838 248.884 30.2652 250.543 15.9259C252.386 1.55126 255.172 -13.3562 263.598 -27.098C272.125 -40.7676 282.474 -56.4264 296.627 -74.1845C309.715 -90.731 329.912 -105.057 356.981 -113.811C383.946 -122.675 417.803 -125.776 450.43 -120.707C483.148 -115.701 512.918 -105.607 538.317 -95.1264C563.733 -84.6064 585.548 -73.4728 606.454 -60.6849C627.383 -47.9054 646.572 -32.3752 661.381 -16.1403C676.276 0.0969624 687.612 16.897 696.739 32.7951C705.85 48.7274 713.811 63.1547 719.342 77.415C724.839 91.6845 726.487 104.671 727.206 116.447C727.936 128.211 727.904 138.658 728.99 147.778C730.054 156.889 732.285 164.71 735.135 171.408C737.977 178.113 741.244 183.425 741.589 187.586C741.949 191.734 739.531 194.804 733.664 196.314Z" stroke="#D8A45F" stroke-width="0.690337" stroke-miterlimit="10"/>
<path d="M738.998 196.678C715.961 202.902 695.125 208.714 676.826 218.873C658.551 228.985 645.874 241.889 637.446 256.468C628.896 270.874 624.225 286.643 619.762 300.451C615.252 314.178 610.131 325.659 606.284 333.541C602.447 341.429 598.712 345.765 593.345 346.646C588.027 347.589 581.227 344.881 572.846 340.945C564.467 337.075 554.588 332.285 543.333 329.749C532.016 327.242 519.637 327.9 503.92 330.839C488.473 333.288 467.756 342.776 440.55 319.79C419.968 302.071 401.402 272.295 387.067 244.071C372.487 215.704 361.556 189.13 350.498 169.33C339.438 149.42 327.036 135.684 313.384 128.541C299.787 121.426 288.391 116.815 279.492 110.862C270.548 104.969 264.116 97.7324 260.078 88.068C255.997 78.4363 254.313 66.5096 254.132 53.4747C253.978 40.3614 254.978 26.3805 256.873 12.3367C258.878 -1.73428 262.683 -15.9475 271.152 -29.6109C279.671 -43.2121 290.032 -58.752 304.315 -76.29C317.526 -92.649 337.866 -106.618 364.874 -114.935C391.786 -123.373 425.584 -125.475 457.424 -119.914C489.379 -114.41 518.195 -104.341 542.97 -93.9596C567.731 -83.5536 589.181 -72.605 609.944 -59.8271C630.73 -47.0506 649.605 -31.4548 664.298 -15.3633C679.076 0.73054 690.413 17.2845 699.669 32.9414C708.891 48.637 717.157 62.8379 722.614 76.9939C728.032 91.1602 729.624 104.295 730.35 116.228C731.093 128.151 731.141 138.767 732.412 147.999C733.675 157.232 736.192 165.104 739.422 171.841C742.622 178.572 746.194 183.719 746.72 187.862C747.258 191.978 744.923 195.093 738.998 196.678Z" stroke="#D8A45F" stroke-width="0.700383" stroke-miterlimit="10"/>
<path d="M744.471 196.937C721.036 203.572 700.319 209.073 681.73 219.163C663.183 229.2 650.289 241.976 641.708 256.462C632.996 270.768 628.224 286.479 623.684 300.289C619.1 314.024 613.755 325.579 609.447 333.467C605.156 341.364 601.1 345.728 595.463 346.556C589.859 347.435 582.813 344.639 574.254 340.245C565.712 335.915 555.677 330.462 544.299 327.007C532.877 323.591 520.394 322.985 504.776 324.615C489.398 325.778 469.144 334.086 442.54 312.068C422.454 295.128 404.302 266.381 390.269 238.85C376.006 211.196 365.322 185.036 354.618 165.357C343.893 145.559 332.261 131.38 318.714 124.066C305.212 116.775 293.9 111.926 285.089 105.845C276.24 99.8305 269.867 92.5618 265.894 83.0181C261.885 73.5046 260.229 61.8257 260.103 49.091C260 36.2788 261.05 22.6132 263.208 8.8735C265.432 -4.88617 270.07 -18.47 278.597 -32.0525C287.13 -45.5769 297.524 -60.9995 311.965 -78.3015C325.333 -94.4542 345.815 -108.062 372.722 -115.959C399.572 -123.964 433.228 -124.996 464.265 -119.018C495.427 -113.094 523.331 -103.085 547.507 -92.8275C571.65 -82.5499 592.767 -71.7972 613.418 -59.0076C634.08 -46.2231 652.644 -30.5898 667.217 -14.6686C681.886 1.26817 693.246 17.5633 702.622 32.9672C711.957 48.4122 720.493 62.4028 725.879 76.4744C731.229 90.5649 732.771 103.853 733.521 115.947C734.275 128.026 734.422 138.805 735.906 148.144C737.363 157.475 740.218 165.413 743.826 172.161C747.414 178.905 751.279 183.859 751.979 187.989C752.72 192.104 750.437 195.248 744.471 196.937Z" stroke="#D8A45F" stroke-width="0.710743" stroke-miterlimit="10"/>
<path d="M750.086 197.085C726.221 204.183 705.593 209.405 686.708 219.429C667.875 229.395 654.77 242.049 646.027 256.438C637.154 270.644 632.282 286.297 627.67 300.113C623.006 313.849 617.576 325.507 612.778 333.391C607.996 341.284 603.605 345.68 597.672 346.463C591.785 347.298 584.448 344.461 575.702 339.644C566.966 334.883 556.776 328.807 545.295 324.488C533.769 320.215 521.185 318.405 505.673 318.77C490.359 318.686 470.575 325.66 444.54 304.532C424.924 288.323 407.178 260.587 393.448 233.749C379.5 206.806 369.065 181.087 358.677 161.539C348.269 141.882 337.419 127.291 323.987 119.809C310.578 112.339 299.373 107.265 290.644 101.051C281.873 94.8996 275.587 87.6052 271.674 78.172C267.714 68.7557 266.116 57.3278 266.046 44.8791C266.004 32.3562 267.139 19.0079 269.559 5.56103C272.019 -7.89192 277.364 -20.8975 285.947 -34.4006C294.507 -47.8517 304.976 -63.1404 319.575 -80.2023C333.091 -96.1534 353.725 -109.39 380.526 -116.859C407.286 -124.443 440.72 -124.344 470.945 -118.016C501.298 -111.739 528.335 -101.828 551.938 -91.7138C575.501 -81.5821 596.316 -71.0148 616.881 -58.2023C637.449 -45.3925 655.665 -29.7787 670.147 -14.0332C684.715 1.72174 696.132 17.7671 705.621 32.9064C715.082 48.1016 723.83 61.8813 729.162 75.8962C734.46 89.9385 735.967 103.395 736.743 115.638C737.533 127.876 737.792 138.81 739.502 148.243C741.192 157.672 744.384 165.641 748.39 172.391C752.386 179.139 756.52 183.875 757.401 187.994C758.317 192.09 756.126 195.294 750.086 197.085Z" stroke="#D8A45F" stroke-width="0.720789" stroke-miterlimit="10"/>
<path d="M755.844 197.11C731.538 204.739 710.953 209.703 691.752 219.672C672.615 229.575 659.294 242.101 650.386 256.399C641.349 270.506 636.373 286.095 631.706 299.923C626.996 313.676 621.596 325.446 616.273 333.316C610.971 341.199 606.228 345.628 599.973 346.366C593.768 347.155 586.122 344.332 577.184 339.125C568.253 333.968 557.899 327.309 546.317 322.173C534.672 317.078 522.032 314.152 506.606 313.275C491.361 311.999 472.025 317.474 446.551 297.177C427.409 281.666 410.051 254.908 396.605 228.759C382.946 202.516 372.743 177.243 362.675 157.862C352.563 138.358 342.527 123.406 329.204 115.754C315.896 108.114 304.78 102.806 296.142 96.4631C287.459 90.181 281.253 82.8535 277.403 73.5182C273.514 64.2047 271.969 53.0063 271.951 40.8309C271.973 28.5874 273.193 15.5312 275.9 2.39121C278.616 -10.758 284.525 -23.2599 293.188 -36.6697C301.817 -50.0266 312.366 -65.1896 327.133 -82.0023C340.832 -97.7314 361.582 -110.604 388.263 -117.65C414.926 -124.81 448.043 -123.54 477.445 -116.935C506.98 -110.378 533.175 -100.597 556.251 -90.6382C579.273 -80.667 599.823 -70.2886 620.33 -57.4304C640.838 -44.5679 658.658 -29.0411 673.074 -13.4866C687.555 2.07319 699.012 17.8411 708.635 32.724C718.212 47.6603 727.162 61.2482 732.437 75.2231C737.671 89.2251 739.173 102.867 739.994 115.263C740.831 127.658 741.213 138.732 743.176 148.246C745.095 157.757 748.536 166.055 753.118 172.409C757.664 178.763 761.879 183.723 762.953 187.834C764.06 191.932 761.942 195.193 755.844 197.11Z" stroke="#D8A45F" stroke-width="0.730834" stroke-miterlimit="10"/>
<path d="M761.754 196.992C736.951 205.256 715.323 210.067 696.805 219.878C678.318 229.679 663.854 242.143 654.804 256.329C645.599 270.34 640.532 285.865 635.805 299.703C631.033 313.463 625.855 325.394 619.956 333.232C614.102 341.098 608.964 345.54 602.383 346.247C595.838 346.996 587.872 344.231 578.719 338.667C569.566 333.143 559.062 325.944 547.369 320.034C535.63 314.174 522.918 310.184 507.579 308.11C492.39 305.681 473.507 309.529 448.586 290.008C429.877 275.135 412.911 249.332 399.755 223.873C386.387 198.331 376.419 173.523 366.636 154.314C356.833 135.028 346.831 120.977 334.318 112.005C321.831 103.1 310.157 98.5817 301.6 92.0864C293.008 85.6719 286.879 78.3054 283.103 69.0675C279.277 59.8406 277.776 48.8602 277.839 36.9525C277.942 24.977 279.25 12.2073 282.258 -0.631849C285.256 -13.4773 291.614 -25.5387 300.361 -38.8492C309.058 -52.1163 319.713 -67.1378 334.662 -83.6935C348.533 -99.2042 369.403 -111.695 395.95 -118.321C422.494 -125.062 455.202 -122.599 483.782 -115.777C512.514 -108.99 537.902 -99.3749 560.47 -89.59C582.972 -79.792 603.284 -69.7176 623.786 -56.6558C644.243 -43.6051 661.649 -28.3535 676.015 -13.0087C690.431 2.35029 701.937 17.8271 711.69 32.452C721.393 47.1273 730.504 60.5364 735.733 74.4916C740.933 88.4775 742.421 102.3 743.302 114.85C744.211 127.403 744.733 138.604 746.955 148.185C749.128 157.763 753.067 166.029 757.991 172.286C762.874 178.546 767.397 183.438 768.662 187.539C769.952 191.615 767.926 194.948 761.754 196.992Z" stroke="#D8A45F" stroke-width="0.741194" stroke-miterlimit="10"/>
<path d="M767.813 196.734C742.527 205.658 720.562 210.576 701.857 220.095C683.149 229.582 668.475 242.146 659.266 256.244C649.881 270.151 644.736 285.624 639.947 299.462C635.161 313.258 630.465 325.159 623.884 333.122C617.387 341.149 611.85 345.459 604.895 346.123C598.004 346.85 589.833 343.706 580.309 338.226C570.807 332.809 560.249 324.726 548.438 318.066C536.598 311.481 523.813 306.477 508.573 303.257C493.424 299.797 475.123 300.504 450.635 282.951C432.211 269.668 415.716 243.854 402.876 219.084C389.791 194.231 380.033 169.889 370.539 150.872C361.023 131.784 351.366 117.664 339.315 108.463C327.29 99.3163 315.475 94.5214 307.004 87.9018C298.508 81.3581 292.463 73.953 288.752 64.8033C285.001 55.6668 283.555 44.8922 283.692 33.2337C283.872 21.5131 285.304 9.02515 288.616 -3.51166C291.914 -16.0536 298.592 -27.7527 307.45 -40.9552C316.231 -54.123 327.026 -68.9912 342.15 -85.2903C356.206 -100.563 377.181 -112.683 403.564 -118.9C429.966 -125.218 462.163 -121.564 489.939 -114.579C517.858 -107.627 542.471 -98.2088 564.583 -88.6003C586.634 -78.9827 606.966 -68.9916 627.213 -55.9168C647.414 -42.8548 664.643 -27.7601 678.95 -12.6341C693.302 2.49607 704.879 17.6874 714.759 32.0485C724.589 46.4669 733.821 59.6963 739.023 73.6541C744.188 87.6379 745.683 101.649 746.644 114.344C747.622 127.041 748.316 138.364 750.82 147.991C753.269 157.619 757.707 165.804 762.978 171.969C768.212 178.136 773.026 182.946 774.496 187.054C775.991 191.132 774.05 194.539 767.813 196.734Z" stroke="#D8A45F" stroke-width="0.75124" stroke-miterlimit="10"/>
<path d="M774.031 196.319C748.258 205.962 725.917 211.047 706.987 220.316C688.036 229.551 673.147 242.129 663.78 256.136C654.228 269.95 648.983 285.351 644.142 299.198C639.283 312.988 634.564 324.955 627.908 332.992C621.306 341.062 614.847 345.348 607.53 345.992C600.262 346.69 591.782 343.483 581.981 337.774C572.206 332.127 561.467 323.603 549.539 316.255C537.588 308.982 524.747 303.033 509.604 298.709C494.544 294.179 476.562 293.48 452.705 276.128C434.816 263.049 418.584 238.517 405.992 214.405C393.188 190.233 383.627 166.36 374.407 147.552C365.152 128.665 355.846 114.509 344.23 105.099C332.656 95.7373 320.76 90.6745 312.369 83.9303C303.954 77.2522 298.001 69.8133 294.366 60.7442C290.704 51.6917 289.293 41.1077 289.523 29.691C289.801 18.2224 291.351 5.99903 294.989 -6.23417C298.605 -18.4756 305.531 -29.8687 314.476 -42.9704C323.362 -56.0306 334.3 -70.751 349.605 -86.7748C362.764 -100.645 381.637 -111.741 405.167 -117.908C428.698 -124.163 457.556 -122.041 483.224 -116.371C509.006 -110.733 532.362 -102.472 553.27 -94.0622C574.162 -85.6394 593.032 -76.9343 611.873 -66.4588C630.751 -55.9839 649.125 -42.8922 664.205 -29.4048C679.373 -15.9021 692.031 -1.93137 702.858 11.5948C713.689 25.1267 722.743 38.2638 730.803 50.5845C738.86 62.8994 744.243 76.0341 746.846 88.8936C749.465 101.755 750.015 114.195 751.042 125.224C752.057 136.25 753.702 145.907 757.02 154.112C760.283 162.318 765.665 168.974 770.661 174.19C775.635 179.414 779.769 183.642 780.822 187.331C781.903 191.004 779.837 194.143 774.031 196.319Z" stroke="#D8A45F" stroke-width="0.761286" stroke-miterlimit="10"/>
<path d="M780.408 195.739C754.139 206.16 731.394 211.462 712.206 220.531C692.997 229.567 677.894 242.093 668.345 256.003C658.605 269.715 653.279 285.055 648.386 298.905C643.479 312.696 638.736 324.729 631.997 332.83C625.29 340.949 618 345.219 610.298 345.844C602.63 346.506 593.823 343.244 583.729 337.333C573.658 331.476 562.711 322.567 550.669 314.574C538.601 306.65 525.706 299.803 510.667 294.426C495.69 288.867 478.022 286.801 454.786 269.54C437.419 256.581 421.455 233.28 409.105 209.816C396.568 186.306 387.207 162.914 378.246 144.324C369.242 125.655 360.261 111.476 349.076 101.879C337.928 92.3185 326.001 87.002 317.696 80.1406C309.385 73.345 303.517 65.8648 299.949 56.8699C296.353 47.8847 295.023 37.4997 295.341 26.312C295.712 15.0782 297.406 3.12218 301.369 -8.81013C305.318 -20.7476 312.393 -31.9165 321.447 -44.9047C330.447 -57.8554 341.542 -72.4132 357.029 -88.1573C370.354 -101.805 389.314 -112.55 412.692 -118.352C436.083 -124.241 464.48 -120.968 489.41 -115.148C514.465 -109.353 537.1 -101.248 557.546 -93.0177C577.951 -84.7816 596.575 -76.277 615.361 -65.8075C634.171 -55.3466 652.301 -42.2583 667.27 -28.9505C682.326 -15.629 694.97 -1.91646 705.861 11.3463C716.762 24.6251 725.951 37.503 734.158 49.6581C742.367 61.8035 747.586 75.0029 750.207 87.9746C752.856 100.948 753.476 113.544 754.656 124.665C755.839 135.795 757.71 145.481 761.361 153.675C764.962 161.873 770.776 168.333 776.094 173.47C781.375 178.607 785.786 182.788 787.013 186.491C788.252 190.171 786.274 193.408 780.408 195.739Z" stroke="#D8A45F" stroke-width="0.771646" stroke-miterlimit="10"/>
<path d="M786.941 194.978C760.204 206.246 736.984 211.806 717.516 220.732C698.005 229.618 682.706 242.039 672.958 255.841C663.034 269.458 657.604 284.72 652.671 298.576C647.706 312.362 642.954 324.466 636.136 332.634C629.337 340.812 621.304 345.077 613.191 345.679C605.091 346.305 595.948 343.002 585.543 336.897C575.167 330.852 563.975 321.606 551.82 313.012C539.643 304.481 526.694 296.79 511.749 290.403C496.869 283.867 479.489 280.466 456.87 263.205C440.019 250.294 424.309 228.148 412.199 205.323C399.924 182.457 390.763 159.554 382.046 141.188C373.285 122.746 364.618 108.568 353.84 98.7999C343.107 89.0614 331.19 83.5079 322.974 76.5351C314.748 69.618 308.971 62.0996 305.487 53.1788C301.975 44.2676 300.7 34.0517 301.127 23.09C301.606 12.0821 303.455 0.385715 307.752 -11.2453C312.05 -22.872 319.18 -33.8969 328.362 -46.7608C337.489 -59.5941 348.75 -73.9802 364.417 -89.4393C377.9 -102.821 396.019 -113.762 420.159 -118.686C444.257 -123.651 471.166 -119.803 495.413 -113.894C519.738 -107.996 541.698 -100.077 561.71 -92.0318C581.677 -83.9838 600.08 -75.6822 618.83 -65.2052C637.597 -54.7327 655.44 -41.7123 670.328 -28.5964C685.277 -15.474 697.905 -2.04227 708.882 10.9612C719.85 23.9712 729.184 36.606 737.534 48.6192C745.901 60.6166 750.948 73.8576 753.601 86.9494C756.29 100.029 757.001 112.779 758.351 123.977C759.7 135.185 761.837 144.901 765.824 153.057C769.763 161.215 776.031 167.487 781.654 172.535C787.25 177.59 791.931 181.713 793.335 185.442C794.765 189.149 792.873 192.483 786.941 194.978Z" stroke="#D8A45F" stroke-width="0.781691" stroke-miterlimit="10"/>
<path d="M793.622 194.032C766.43 206.209 742.7 212.075 722.924 220.911C703.094 229.704 687.561 241.953 677.617 255.656C667.492 269.168 661.967 284.356 656.989 298.215C651.988 312.007 647.204 324.161 640.326 332.406C633.446 340.65 624.782 344.932 616.229 345.507C607.68 346.1 598.158 342.745 587.436 336.471C576.737 330.246 565.288 320.729 552.998 311.56C540.694 302.456 527.696 293.972 512.854 286.621C498.064 279.151 480.986 274.475 458.959 257.129C442.628 244.209 427.161 223.136 415.289 200.93C403.28 178.702 394.295 156.271 385.817 138.138C377.298 119.937 368.926 105.769 358.539 95.8507C348.203 85.9574 336.342 80.1821 328.215 73.105C320.084 66.0796 314.405 58.5236 310.993 49.6661C307.556 40.8156 306.355 30.7702 306.894 20.0247C307.477 9.23268 309.498 -2.21142 314.137 -13.5364C318.782 -24.8652 325.928 -35.7978 335.224 -48.5408C344.485 -61.2466 355.933 -75.4555 371.766 -90.6233C385.417 -103.763 403.844 -114.754 427.706 -118.758C451.537 -122.795 477.702 -118.581 501.245 -112.615C524.873 -106.644 546.176 -98.9452 565.784 -91.0974C585.34 -83.2541 603.562 -75.1406 622.295 -64.6363C641.026 -54.145 658.587 -41.2329 673.382 -28.3336C688.228 -15.427 700.882 -2.2778 711.925 10.4526C722.972 23.1959 732.44 35.5898 740.941 47.4869C749.451 59.3564 754.344 72.6178 757.043 85.8192C759.79 99.0122 760.603 111.894 762.142 123.161C763.671 134.432 766.085 144.153 770.425 152.256C774.707 160.354 781.409 166.427 787.345 171.395C793.248 176.365 798.205 180.438 799.796 184.187C801.409 187.928 799.599 191.353 793.622 194.032Z" stroke="#D8A45F" stroke-width="0.791737" stroke-miterlimit="10"/>
<path d="M800.466 192.887C772.848 206.033 748.583 212.273 728.455 221.06C708.283 229.811 692.506 241.855 682.34 255.444C672.004 268.852 666.381 283.966 661.358 297.821C656.31 311.606 651.534 323.834 644.581 332.141C637.64 340.459 628.452 344.782 619.436 345.323C610.416 345.878 600.496 342.472 589.434 336.041C578.387 329.652 566.653 319.901 554.224 310.199C541.781 300.558 528.75 291.334 514 283.064C499.299 274.704 482.506 268.8 461.072 251.307C445.225 238.319 430.04 218.241 418.384 196.632C406.612 175.005 397.827 153.059 389.578 135.174C381.287 117.218 373.194 103.076 363.192 93.0245C353.243 82.9955 341.48 77.0236 333.436 69.8487C325.405 62.7253 319.796 55.1228 316.477 46.3371C313.125 37.5508 311.996 27.6658 312.654 17.1272C313.361 6.55218 315.552 -4.65676 320.541 -15.671C325.543 -26.6957 332.634 -37.6161 342.059 -50.2234C351.455 -62.8001 363.083 -76.8251 379.091 -91.6857C392.899 -104.583 411.626 -115.44 435.144 -118.603C458.657 -121.789 484.049 -117.29 506.916 -111.302C529.846 -105.316 550.545 -97.839 569.784 -90.2004C588.969 -82.5608 607.034 -74.6283 625.777 -64.0828C644.518 -53.5345 661.734 -40.8218 676.452 -28.1591C691.224 -15.4834 703.868 -2.64425 715.009 9.82335C726.139 22.303 735.791 34.4731 744.391 46.2678C753.008 58.0327 757.807 71.3629 760.561 84.6323C763.359 97.8875 764.303 110.888 766.041 122.205C767.772 133.528 770.473 143.229 775.174 151.261C779.833 159.294 786.923 165.16 793.171 170.047C799.394 174.934 804.632 178.959 806.397 182.733C808.204 186.491 806.48 190.016 800.466 192.887Z" stroke="#D8A45F" stroke-width="0.802097" stroke-miterlimit="10"/>
<path d="M807.455 191.536C779.433 205.702 754.61 212.374 734.108 221.163C713.573 229.933 697.515 241.723 687.112 255.202C676.556 268.508 670.84 283.543 665.756 297.384C660.654 311.157 655.873 323.444 648.875 331.834C641.878 340.224 632.316 344.625 622.795 345.124C613.262 345.63 602.942 342.184 591.515 335.605C580.124 329.071 568.055 319.116 555.477 308.918C542.893 298.775 529.796 288.835 515.159 279.706C500.561 270.502 484.041 263.426 463.184 245.733C447.82 232.643 432.891 213.446 421.47 192.429C409.951 171.394 401.338 149.92 393.308 132.278C385.232 114.565 377.424 100.476 367.783 90.3027C358.205 80.1512 346.573 74.0085 338.616 66.746C330.677 59.5311 325.168 51.9022 321.921 43.1729C318.655 34.4508 317.609 24.7157 318.389 14.3743C319.228 4.00549 321.658 -6.9781 326.939 -17.6752C332.154 -28.1274 339.303 -39.3734 348.849 -51.8385C358.392 -64.2798 370.229 -78.0967 386.372 -92.6651C400.33 -105.313 419.313 -115.885 442.451 -118.277C465.567 -120.711 490.205 -115.976 512.418 -110.002C534.683 -104.032 554.803 -96.8085 573.701 -89.3817C592.537 -81.95 610.452 -74.2967 629.272 -63.565C648.056 -52.8398 664.851 -40.5222 679.524 -28.107C694.225 -15.6788 706.887 -3.15931 718.122 9.04394C729.339 21.2615 739.234 33.1664 747.844 44.9012C756.48 56.6151 761.276 70.045 764.067 83.3687C766.914 96.6818 768.012 109.68 770.027 121.051C772.047 132.433 774.998 142.083 780.066 150.018C785.085 157.951 792.562 163.649 799.123 168.452C805.663 173.261 811.159 177.228 813.127 181.04C815.12 184.826 813.509 188.47 807.455 191.536Z" stroke="#D8A45F" stroke-width="0.812143" stroke-miterlimit="10"/>
<path d="M814.584 189.968C786.212 205.219 760.792 212.372 739.89 221.22C718.955 230.05 702.605 241.573 691.946 254.936C681.163 268.144 675.321 283.085 670.196 296.916C665.035 310.67 660.256 323.016 653.216 331.487C646.171 339.954 636.393 344.47 626.335 344.92C616.274 345.382 605.501 341.877 593.707 335.162C581.929 328.482 569.51 318.368 556.777 307.704C544.027 297.087 530.888 286.493 516.348 276.543C501.843 266.537 485.611 258.355 465.311 240.41C450.409 227.181 435.767 208.785 424.561 188.326C413.284 167.855 404.848 146.85 397.028 129.459C389.168 112.005 381.608 97.9581 372.331 87.6867C363.112 77.4344 351.637 71.1281 343.775 63.794C335.912 56.4922 330.501 48.8369 327.345 40.1706C324.169 31.5074 323.196 21.9159 324.118 11.7729C325.077 1.60402 327.978 -9.11503 333.27 -19.5049C338.59 -29.9071 345.906 -41.0531 355.61 -53.3652C365.313 -65.6563 377.329 -79.2797 393.619 -93.5312C407.711 -105.927 426.916 -116.067 449.624 -117.772C472.309 -119.523 496.199 -114.615 517.763 -108.7C539.38 -102.781 558.956 -95.8323 577.554 -88.6147C596.096 -81.4005 614.154 -73.7328 632.767 -63.0741C651.351 -52.4171 667.997 -40.3124 682.607 -28.1654C697.236 -16.0074 709.959 -3.80769 721.269 8.14123C732.57 20.1178 742.676 31.7019 751.29 43.4033C759.925 55.0805 764.692 68.6241 767.522 82.0176C770.422 95.4111 771.623 108.43 773.944 119.742C776.265 131.062 779.657 140.719 785.105 148.53C790.494 156.343 798.327 161.902 805.194 166.621C812.033 171.345 817.815 175.274 819.978 179.119C822.16 182.937 820.664 186.696 814.584 189.968Z" stroke="#D8A45F" stroke-width="0.822503" stroke-miterlimit="10"/>
<path d="M821.852 188.181C793.172 204.566 767.151 212.265 745.812 221.216C724.446 230.159 707.775 241.403 696.841 254.64C685.807 267.742 679.843 282.587 674.666 296.407C669.452 310.141 664.691 322.544 657.6 331.09C650.518 339.639 640.692 344.308 630.061 344.702C619.443 345.118 608.203 341.554 596.008 334.706C583.826 327.886 571.022 317.633 558.122 306.543C545.205 295.489 532.01 284.275 517.565 273.55C503.157 262.792 487.205 253.553 467.451 235.329C453.004 221.939 438.647 204.243 427.655 184.317C416.62 164.389 408.351 143.846 400.735 126.7C393.085 109.505 385.772 95.5177 376.841 85.163C367.972 74.8191 356.699 68.3829 348.912 60.9759C341.144 53.6095 335.804 45.9191 332.745 37.3163C329.659 28.7162 328.775 19.2594 329.837 9.30904C330.918 -0.662684 334.108 -10.9607 339.562 -21.2789C345.028 -31.6077 352.49 -42.6479 362.345 -54.8145C372.204 -66.9542 384.415 -80.3633 400.827 -94.3051C415.039 -106.451 434.413 -116.036 456.647 -117.126C478.871 -118.262 502.017 -113.24 522.955 -107.419C543.94 -101.593 563.032 -94.9166 581.343 -87.9187C599.618 -80.9202 617.825 -73.2141 636.242 -62.6502C654.641 -52.0886 671.141 -40.2135 685.694 -28.3569C700.272 -16.4818 713.019 -4.57321 724.387 7.10495C735.732 18.8169 746.113 30.0701 754.722 41.7543C763.351 53.4171 768.065 67.0968 770.927 80.5738C773.845 94.0472 775.175 107.107 777.795 118.342C780.396 129.584 784.459 139.09 790.286 146.753C796.048 154.422 804.199 159.893 811.37 164.533C818.51 169.181 824.567 173.062 826.932 176.951C829.318 180.812 827.948 184.697 821.852 188.181Z" stroke="#D8A45F" stroke-width="0.832548" stroke-miterlimit="10"/>
<path d="M829.237 186.156C800.31 203.729 773.653 212.021 751.874 221.138C730.069 230.256 713.004 241.185 701.792 254.312C690.484 267.307 684.396 282.059 679.164 295.854C673.89 309.56 669.136 322.019 662.008 330.642C654.939 339.288 645.532 344.054 633.99 344.469C622.497 344.924 611.055 341.229 598.419 334.239C585.812 327.282 572.603 316.915 559.51 305.423C546.395 293.958 533.149 282.167 518.798 270.71C504.474 259.235 488.812 249.011 469.592 230.483C455.581 216.909 441.519 199.819 430.741 180.408C419.933 160.992 411.84 140.903 404.42 124.007C396.963 107.061 389.892 93.1517 381.302 82.7219C372.767 72.3024 361.738 65.7501 354.021 58.2827C346.327 50.8531 341.093 43.155 338.113 34.609C335.114 26.0661 334.326 16.7445 335.534 6.98011C336.741 -2.80258 340.195 -12.7528 345.806 -22.9984C351.432 -33.2388 359.02 -44.1842 369.044 -56.1845C379.055 -68.1674 391.474 -81.3474 407.983 -94.9796C422.305 -106.87 441.762 -115.809 463.504 -116.353C485.231 -116.954 507.651 -111.861 527.987 -106.166C548.369 -100.463 566.991 -94.0839 585.067 -87.2943C603.125 -80.5043 621.481 -72.7302 639.689 -62.2941C657.904 -51.8576 674.264 -40.2441 688.784 -28.6819C703.32 -17.1104 716.008 -5.46406 727.47 5.93845C738.886 17.3692 749.55 28.2891 758.132 39.9716C766.729 51.6453 771.386 65.4804 774.27 79.0572C777.215 92.6292 778.643 105.721 781.571 116.879C784.484 128.052 789.107 137.311 795.551 144.722C801.939 152.14 810.188 157.631 817.649 162.2C825.087 166.773 831.411 170.617 833.987 174.551C836.576 178.449 835.341 182.452 829.237 186.156Z" stroke="#D8A45F" stroke-width="0.842594" stroke-miterlimit="10"/>
<path d="M836.747 183.895C807.624 202.693 780.349 211.653 758.096 220.976C735.822 230.315 718.344 240.949 706.822 253.955C695.225 266.841 689.005 281.494 683.703 295.26C678.366 308.937 673.621 321.437 666.465 330.141C659.36 338.861 649.885 343.733 638.155 344.185C626.466 344.672 614.04 340.872 600.979 333.759C587.929 326.671 574.281 316.203 560.975 304.334C547.658 292.498 534.344 280.165 520.076 268.016C505.839 255.87 490.462 244.712 471.763 225.872C458.196 212.12 444.415 195.525 433.85 176.604C423.264 157.674 415.347 138.023 408.115 121.378C400.853 104.686 394.017 90.8579 385.75 80.3645C377.541 69.883 366.765 63.2123 359.138 55.7094C351.536 48.246 346.368 40.5209 343.484 32.0412C340.58 23.5602 339.891 14.3754 341.241 4.7841C342.596 -4.8083 346.276 -14.4974 352.046 -24.6546C357.812 -34.8107 365.551 -45.6402 375.735 -57.472C385.908 -69.2848 398.499 -82.2464 415.108 -95.5561C429.516 -107.193 448.998 -115.39 470.217 -115.464C491.43 -115.588 513.118 -110.495 532.891 -104.944C552.695 -99.3934 570.885 -93.3213 588.758 -86.7393C606.608 -80.1671 625.119 -72.2966 643.135 -62.0182C661.187 -51.7265 677.462 -40.4233 691.887 -29.1552C706.327 -17.8749 718.994 -6.476 730.536 4.62469C742.045 15.7642 752.982 26.3307 761.53 38.045C770.085 49.7554 774.674 63.7762 777.564 77.4547C780.519 91.13 782.061 104.262 785.287 115.332C788.497 126.411 793.751 135.429 800.763 142.548C807.718 149.677 816.257 155.071 824.032 159.582C831.768 164.088 838.367 167.909 841.139 171.88C843.928 175.832 842.841 179.964 836.747 183.895Z" stroke="#D8A45F" stroke-width="0.852954" stroke-miterlimit="10"/>
<path d="M844.355 181.389C815.104 201.451 787.231 211.146 764.473 220.728C741.712 230.341 723.767 240.683 711.92 253.574C700.002 266.351 693.632 280.893 688.263 294.631C682.851 308.268 678.114 320.805 670.941 329.594C663.806 338.387 654.273 343.37 642.356 343.863C630.457 344.381 617.164 340.501 603.662 333.279C590.138 326.058 576.036 315.491 562.495 303.276C548.94 291.086 535.552 278.241 521.374 265.459C507.228 252.684 492.108 240.649 473.937 221.491C460.785 207.546 447.306 191.369 436.952 172.91C426.585 154.433 418.828 135.212 411.794 118.815C404.721 102.374 398.112 88.6365 390.158 78.0888C382.259 67.5541 371.798 60.7785 364.237 53.2487C356.699 45.7498 351.621 38.0258 348.828 29.6092C346.019 21.1945 345.425 12.1335 346.932 2.72322C348.438 -6.69134 352.331 -16.1778 358.25 -26.2417C364.162 -36.299 372.058 -47.0051 382.392 -58.6704C392.73 -70.3087 405.504 -83.03 422.169 -96.0284C436.643 -107.41 456.067 -114.803 476.748 -114.47C497.427 -114.192 518.405 -109.131 537.647 -103.753C556.913 -98.3753 574.706 -92.6153 592.394 -86.2456C610.084 -79.8785 628.723 -71.9159 646.553 -61.8175C664.432 -51.6979 680.609 -40.7522 694.909 -29.7124C709.215 -18.654 721.925 -7.60411 733.569 3.17501C745.181 14.0042 756.39 24.2242 764.889 36.0002C773.391 47.775 777.89 62.0085 780.784 75.8011C783.739 89.5931 785.396 102.766 788.923 113.734C792.438 124.717 798.254 133.48 805.884 140.288C813.444 147.103 822.445 152.264 830.489 156.709C838.503 161.155 845.368 164.948 848.352 168.972C851.365 172.97 850.423 177.226 844.355 181.389Z" stroke="#D8A45F" stroke-width="0.863" stroke-miterlimit="10"/>
<path d="M852.058 178.641C822.775 200.014 794.278 210.477 771.018 220.382C747.752 230.323 729.304 240.396 717.101 253.168C704.845 265.838 698.305 280.266 692.862 293.965C687.364 307.556 682.64 320.127 675.446 328.99C668.301 337.861 658.695 342.947 646.616 343.495C634.539 344.062 620.488 340.133 606.504 332.785C592.49 325.44 577.882 314.759 564.106 302.234C550.3 289.725 536.81 276.404 522.724 263.023C508.668 249.666 493.805 236.807 476.141 217.329C463.397 203.2 450.224 187.359 440.083 169.331C429.937 151.286 422.335 132.469 415.487 116.321C408.59 100.12 402.206 86.4832 394.561 75.8963C386.976 65.3257 376.847 58.4336 369.352 50.8908C361.883 43.3848 356.876 35.6511 354.175 27.3061C351.453 18.9556 350.95 10.0126 352.634 0.787303C354.291 -8.45642 358.383 -17.7987 364.45 -27.7595C370.5 -37.7185 378.55 -48.2958 389.042 -59.7758C399.526 -71.2351 412.483 -83.7134 429.191 -96.397C443.71 -107.524 462.99 -114.065 483.124 -113.388C503.259 -112.768 523.552 -107.784 542.286 -102.605C561.021 -97.4322 578.474 -91.9879 596.007 -85.8202C613.549 -79.6618 632.317 -71.5957 649.971 -61.7076C667.668 -51.8057 683.677 -41.1345 697.882 -30.3451C712.093 -19.53 724.835 -8.87492 736.602 1.5726C748.308 12.0685 759.802 21.9596 768.231 33.8299C776.665 45.706 781.08 60.1778 783.954 74.086C786.918 88.0136 788.657 101.208 792.505 112.079C796.333 122.96 802.723 131.438 810.942 137.934C819.09 144.44 828.853 149.098 837.054 153.546C845.217 157.998 852.455 161.731 855.646 165.81C858.868 169.86 858.071 174.235 852.058 178.641Z" stroke="#D8A45F" stroke-width="0.873046" stroke-miterlimit="10"/>
<path d="M859.835 175.635C830.6 198.344 801.524 209.651 777.732 219.919C753.944 230.237 734.948 240.07 722.37 252.727C709.755 265.297 703.03 279.601 697.495 293.251C691.905 306.793 687.197 319.394 679.981 328.325C672.816 337.263 663.168 342.466 650.92 343.073C638.673 343.698 623.997 339.752 609.507 332.282C594.97 324.806 579.874 314.017 565.802 301.194C551.713 288.391 538.129 274.629 524.11 260.688C510.116 246.776 495.542 233.167 478.359 213.372C466.003 199.053 453.155 183.483 443.216 165.858C433.277 148.208 425.848 129.796 419.177 113.881C412.468 97.9255 406.299 84.3878 398.945 73.7621C391.641 63.1506 381.918 56.1521 374.477 48.6084C367.058 41.1026 362.138 33.3825 359.525 25.1061C356.894 16.8229 356.509 8.01636 358.344 -1.04511C360.169 -10.1156 364.433 -19.3773 370.64 -29.2242C376.827 -39.075 385.032 -49.5193 395.679 -60.8085C406.303 -72.0893 419.426 -84.3157 436.16 -96.6869C450.698 -107.564 469.757 -113.213 489.337 -112.255C508.915 -111.355 528.556 -106.479 546.811 -101.518C565.067 -96.5599 582.191 -91.4477 599.599 -85.4787C617.032 -79.5139 635.889 -71.3638 653.381 -61.7104C670.933 -52.0408 686.678 -41.5838 700.801 -31.0736C714.928 -20.5392 727.734 -10.2966 739.626 -0.204407C751.457 9.95019 763.188 19.5249 771.546 31.5245C779.893 43.5319 784.193 58.2599 787.066 72.3016C790.018 86.3635 791.87 99.5942 796.032 110.349C800.169 121.115 807.159 129.301 815.933 135.469C824.639 141.655 834.929 145.99 843.657 150.149C852.354 154.311 859.58 158.225 862.993 162.367C866.404 166.479 865.802 171 859.835 175.635Z" stroke="#D8A45F" stroke-width="0.883406" stroke-miterlimit="10"/>
<path d="M867.674 172.379C838.57 196.444 808.948 208.653 784.617 219.339C760.311 230.097 740.72 239.717 727.728 252.262C714.721 264.733 707.778 278.9 702.158 292.508C696.461 305.992 691.76 318.611 684.529 327.613C677.352 336.621 667.661 341.937 655.26 342.608C642.868 343.308 627.692 339.368 612.677 331.779C597.598 324.179 581.972 313.247 567.594 300.164C553.187 287.087 539.484 272.918 525.534 258.459C511.613 244.039 497.299 229.728 480.595 209.625C468.627 195.136 456.098 179.768 446.361 162.51C436.634 145.233 429.359 127.193 422.869 111.512C416.345 95.7939 410.374 82.3525 403.313 71.7035C396.293 61.0642 387.005 53.9328 379.617 46.412C372.244 38.9216 367.391 31.2224 364.872 23.0219C362.333 14.8175 362.053 6.12974 364.051 -2.76163C366.047 -11.6616 370.468 -20.8899 376.813 -30.6174C383.145 -40.3484 391.501 -50.6514 402.285 -61.7524C413.059 -72.8413 426.327 -84.8144 443.058 -96.8791C457.599 -107.504 476.338 -112.254 495.366 -111.063C514.381 -109.941 533.406 -105.21 551.21 -100.485C569.003 -95.7724 585.841 -90.9881 603.155 -85.2077C620.506 -79.4278 639.435 -71.2072 656.766 -61.8279C674.171 -52.4316 689.596 -42.0978 703.659 -31.8909C717.721 -21.6656 730.598 -11.8786 742.626 -2.14678C754.581 7.64818 766.55 16.9475 774.81 29.1114C783.07 41.2894 787.235 56.2877 790.102 70.4781C793.032 84.6793 795.005 97.9511 799.485 108.574C803.942 119.213 811.528 127.084 820.836 132.929C830.079 138.795 840.87 142.814 850.093 146.674C859.288 150.544 866.72 154.454 870.358 158.671C873.994 162.858 873.553 167.501 867.674 172.379Z" stroke="#D8A45F" stroke-width="0.893451" stroke-miterlimit="10"/>
<path d="M875.548 168.867C846.694 194.32 816.538 207.461 791.677 218.627C766.823 229.855 746.624 239.33 733.188 251.764C719.743 264.128 712.601 278.18 706.853 291.721C701.05 305.144 696.327 317.769 689.094 326.838C681.907 335.909 672.177 341.333 659.635 342.081C647.09 342.85 631.612 338.982 616.025 331.265C600.37 323.539 584.237 312.456 569.498 299.118C554.754 285.799 540.908 271.247 527.01 256.31C513.147 241.419 499.086 226.457 482.85 206.063C471.247 191.408 459.052 176.189 449.513 159.277C439.976 142.331 432.877 124.66 426.557 109.204C420.207 93.7135 414.44 80.3758 407.664 69.7102C400.928 59.0569 392.113 51.7598 384.776 44.2758C377.444 36.8203 372.658 29.156 370.219 21.0307C367.777 12.9108 367.589 4.33833 369.758 -4.37822C371.925 -13.1104 376.499 -22.345 382.97 -31.9454C389.438 -41.5543 397.944 -51.7091 408.864 -62.612C419.776 -73.5014 433.18 -85.2215 449.882 -96.9842C464.406 -107.366 482.744 -111.195 501.225 -109.834C519.687 -108.541 538.106 -103.99 555.496 -99.5212C572.87 -95.062 589.446 -90.6142 606.692 -85.0178C623.971 -79.4279 642.956 -71.1604 660.138 -62.0742C677.386 -52.9967 692.449 -42.6945 706.465 -32.8152C720.484 -22.9343 733.456 -13.6212 745.616 -4.2696C757.713 5.15413 769.871 14.2145 778.026 26.5858C786.183 38.9728 790.211 54.2653 793.061 68.6051C795.98 82.9632 798.05 96.2479 802.873 106.743C807.662 117.247 815.826 124.773 825.663 130.301C835.422 135.844 846.675 139.546 856.373 143.123C866.039 146.706 873.892 150.421 877.733 154.712C881.578 158.969 881.339 163.754 875.548 168.867Z" stroke="#D8A45F" stroke-width="0.903497" stroke-miterlimit="10"/>
<path d="M883.451 165.102C854.941 191.949 824.31 206.081 798.916 217.774C773.531 229.54 752.677 238.912 738.761 251.236C724.846 263.502 717.46 277.413 711.59 290.895C705.648 304.245 700.93 316.876 693.677 326.003C686.481 335.134 676.728 340.675 664.044 341.497C651.395 342.354 635.968 338.515 619.612 330.736C603.23 322.964 586.659 311.627 571.532 298.065C556.388 284.515 542.392 269.615 528.539 254.241C514.718 238.914 500.914 223.356 485.133 202.689C473.896 187.889 462.027 172.772 452.686 156.17C443.35 139.535 436.4 122.201 430.26 106.962C424.083 91.6909 418.523 78.4612 412.018 67.7781C405.551 57.1101 397.286 49.6266 389.978 42.1921C382.666 34.7842 377.94 27.1615 375.586 19.1257C373.209 11.0941 373.097 2.78637 375.541 -5.97841C377.974 -14.7452 382.511 -23.7331 389.128 -33.2051C395.728 -42.6838 404.373 -52.6896 415.428 -63.3875C426.468 -74.0765 440.005 -85.5313 456.637 -97.0042C471.113 -107.145 488.969 -110.071 506.915 -108.58C524.831 -107.164 542.679 -102.823 559.682 -98.625C576.655 -94.4402 593.008 -90.3349 610.214 -84.9069C627.475 -79.4729 646.649 -71.3824 663.418 -62.4223C680.268 -53.4474 695.251 -43.3399 709.23 -33.8552C723.214 -24.3534 736.275 -15.5624 748.598 -6.5808C760.84 2.45925 773.162 11.3423 781.198 23.9569C789.225 36.5808 793.13 52.2007 795.951 66.6907C798.849 81.2037 801.041 94.5111 806.205 104.855C811.332 115.206 820.093 122.389 830.415 127.591C840.667 132.821 852.365 136.211 862.5 139.507C872.61 142.81 881.055 146.116 885.106 150.488C889.159 154.826 889.136 159.757 883.451 165.102Z" stroke="#D8A45F" stroke-width="0.913857" stroke-miterlimit="10"/>
<path d="M891.356 161.086C863.315 189.343 832.267 204.506 806.33 216.769C780.415 229.114 758.883 238.454 744.452 250.679C730.033 262.858 722.381 276.626 716.365 290.035C710.275 303.309 705.531 315.926 698.272 325.115C691.063 334.299 681.285 339.946 668.483 340.86C655.709 341.8 640.055 338.018 623.371 330.173C606.646 322.336 589.265 310.769 573.719 297.004C558.139 283.246 543.974 268.032 530.145 252.246C516.353 236.516 502.798 220.421 487.453 199.494C476.551 184.554 465.04 169.52 455.879 153.189C446.732 136.83 439.943 119.821 433.977 104.787C427.975 89.7294 422.6 76.5994 416.377 65.9122C410.169 55.2344 402.526 47.5267 395.232 40.1577C387.938 32.8184 383.255 25.2461 380.986 17.3026C378.693 9.36323 378.804 1.12232 381.356 -7.52905C383.906 -16.1777 388.561 -25.0503 395.297 -34.3956C402.027 -43.7413 410.809 -53.5841 421.985 -64.0751C433.144 -74.5572 446.785 -85.7526 463.338 -96.9376C477.738 -106.847 495.043 -108.88 512.461 -107.31C529.847 -105.812 547.157 -101.713 563.794 -97.7983C580.414 -93.8978 596.569 -90.1278 613.748 -84.8674C630.996 -79.5817 650.168 -71.6377 666.61 -62.783C683.158 -53.8924 698.001 -44.083 711.974 -35.008C725.946 -25.919 739.106 -17.6719 751.59 -9.07585C763.997 -0.4155 776.427 8.34464 784.335 21.2441C792.239 34.149 795.989 50.1069 798.789 64.7518C801.674 79.4271 803.986 92.7502 809.502 102.924C814.989 113.117 824.334 119.929 835.111 124.814C845.822 129.726 857.931 132.812 868.486 135.84C879.013 138.873 887.929 141.889 892.401 146.091C896.864 150.266 896.908 155.508 891.356 161.086Z" stroke="#D8A45F" stroke-width="0.923903" stroke-miterlimit="10"/>
<path d="M899.245 156.824C871.769 186.475 840.386 202.721 813.922 215.608C787.492 228.573 765.518 238.01 750.297 250.095C735.071 262.108 727.36 275.802 721.184 289.143C714.935 302.341 710.158 314.934 702.88 324.174C695.648 333.404 685.861 339.161 672.946 340.165C660.061 341.198 644.179 337.476 627.177 329.585C610.135 321.707 592.308 309.595 576.076 295.906C559.827 282.24 545.632 266.487 531.809 250.321C518.032 234.225 504.72 217.64 489.795 196.477C479.224 181.42 468.049 166.431 459.081 150.353C450.13 134.249 443.493 117.534 437.696 102.699C431.864 87.8373 426.683 74.816 420.725 64.1222C414.788 53.4269 407.995 44.9882 400.57 38.1092C393.145 31.2303 388.623 23.4034 386.403 15.564C384.184 7.72198 384.52 -0.475894 387.168 -9.01042C389.813 -17.5422 394.586 -26.2993 401.445 -35.4981C408.303 -44.7012 417.221 -54.3783 428.495 -64.6636C439.769 -74.9349 453.494 -85.8678 469.934 -96.7812C484.24 -106.465 500.915 -107.633 517.826 -106.022C534.695 -104.493 551.486 -100.657 567.801 -97.0378C584.082 -93.4374 600.078 -90.0062 617.262 -84.8988C634.511 -79.765 653.515 -71.8957 669.692 -63.1582C685.968 -54.3809 700.701 -44.903 714.664 -36.2871C728.633 -27.6455 741.915 -19.9734 754.562 -11.7656C767.121 -3.50686 779.638 5.22755 787.397 18.4472C795.166 31.6688 798.753 47.9784 801.538 62.7814C804.404 77.6201 806.849 90.9469 812.735 100.943C818.59 110.957 828.492 117.395 839.721 121.968C850.865 126.568 863.366 129.366 874.308 132.131C885.214 134.897 894.535 137.683 899.446 141.671C904.367 145.636 904.64 151.014 899.245 156.824Z" stroke="#D8A45F" stroke-width="0.933949" stroke-miterlimit="10"/>
<path d="M907.092 152.317C880.296 183.358 848.654 200.712 821.686 214.276C794.773 227.923 772.141 237.588 756.321 249.494C740.458 261.309 732.411 274.959 726.051 288.216C719.615 301.323 714.798 313.89 707.497 323.171C700.252 332.444 690.458 338.306 677.427 339.403C664.441 340.529 648.353 336.888 631.036 328.96C613.685 321.052 595.251 308.803 578.614 294.805C561.942 280.811 547.39 264.942 533.561 248.446C519.774 232.011 506.692 214.983 492.177 193.611C481.925 178.455 471.09 163.5 462.301 147.637C453.529 131.752 447.059 115.319 441.427 100.67C435.762 85.9948 430.775 73.078 425.076 62.3857C419.392 51.6872 412.952 43.1586 405.918 36.1105C398.897 29.0702 394.007 21.6177 391.86 13.8784C389.7 6.13549 390.251 -2.03961 392.998 -10.4444C395.733 -18.8555 400.618 -27.4863 407.591 -36.5432C414.562 -45.5974 423.606 -55.1151 434.985 -65.1804C446.38 -75.2292 460.189 -86.3202 476.453 -96.5339C490.645 -105.588 506.635 -106.347 523.041 -104.752C539.402 -103.234 555.717 -99.6792 571.738 -96.3674C587.729 -93.0728 603.578 -89.9794 620.783 -85.0199C638.061 -80.025 656.771 -72.155 672.697 -63.5733C688.726 -54.9458 703.349 -45.8473 717.329 -37.7212C731.292 -29.5694 744.717 -22.4964 757.539 -14.669C770.272 -6.79925 782.816 1.99447 790.419 15.5662C798.027 29.1368 801.461 45.8113 804.232 60.7766C807.089 75.7808 809.675 89.102 815.945 98.8989C822.175 108.709 832.634 114.773 844.28 119.043C855.84 123.339 868.69 125.857 879.993 128.373C891.265 130.894 900.939 133.445 906.266 137.228C911.615 140.997 912.327 146.288 907.092 152.317Z" stroke="#D8A45F" stroke-width="0.944308" stroke-miterlimit="10"/>
<path d="M914.887 147.572C891.467 176.742 863.293 194.555 837.958 208.325C812.671 222.142 790.265 231.742 773.149 241.936C756.022 252.1 745.077 263.566 737.636 275.444C730.124 287.213 725.489 299.258 720.049 309.591C714.612 319.887 708.269 328.357 699.252 333.406C690.272 338.462 678.656 340.079 664.837 337.795C651.029 335.529 635.124 329.373 618.85 320.071C602.539 310.777 585.929 298.421 571.276 284.941C556.585 271.46 543.599 256.876 531.281 241.564C518.985 226.288 507.317 210.3 494.606 190.909C484.658 175.667 474.146 160.735 465.546 145.073C456.959 129.382 450.646 113.205 445.181 98.7293C439.683 84.2305 434.884 71.415 429.448 60.7258C424.022 50.0273 417.899 41.4066 411.268 34.2069C404.642 27.0103 399.459 19.889 397.376 12.259C395.291 4.63173 396.037 -3.52459 398.861 -11.8052C401.68 -20.0917 406.66 -28.603 413.758 -37.5005C420.831 -46.4121 430.013 -55.7415 441.468 -65.5996C452.961 -75.4288 467.034 -86.6685 482.861 -96.1307C496.713 -104.514 512.216 -105.028 528.128 -103.487C543.981 -102.026 559.866 -98.7674 575.623 -95.771C591.332 -92.7986 607.063 -90.0526 624.332 -85.2116C641.65 -80.3535 659.924 -72.431 675.647 -64.0203C691.444 -55.5812 705.995 -46.8907 719.994 -39.2937C733.981 -31.6609 747.538 -25.2184 760.537 -17.7715C773.446 -10.2892 785.951 -1.35154 793.401 12.6288C800.855 26.5853 804.118 43.6364 806.877 58.7613C809.729 73.9325 812.462 87.2302 819.135 96.8136C825.766 106.406 836.758 112.092 848.789 116.066C860.733 120.066 873.93 122.323 885.552 124.596C897.15 126.878 907.152 129.212 912.879 132.798C918.608 136.355 919.922 141.319 914.887 147.572Z" stroke="#D8A45F" stroke-width="0.954354" stroke-miterlimit="10"/>
<path d="M922.548 142.642C900.909 172.122 871.874 191.924 846.174 206.394C820.551 220.963 797.559 230.994 779.892 241.271C762.21 251.529 750.616 262.775 742.859 274.548C735.046 286.215 730.254 298.169 724.746 308.482C719.239 318.754 712.885 327.255 703.843 332.38C694.843 337.515 683.156 339.229 669.192 337.021C655.244 334.833 639.081 328.705 622.517 319.353C605.895 309.999 588.961 297.402 573.875 283.718C558.762 270.038 545.532 255.28 533.215 239.715C520.922 224.189 509.451 207.892 497.075 188.353C487.416 173.05 477.226 158.145 468.802 142.642C460.384 127.11 454.246 111.183 448.943 96.8658C443.614 82.5332 439.014 69.8183 433.819 59.1267C428.652 48.4367 422.849 39.7326 416.6 32.387C410.369 25.0593 404.804 18.3484 402.95 10.6661C401.091 2.99889 401.806 -4.95822 404.725 -13.1037C407.621 -21.259 412.721 -29.628 419.901 -38.3842C427.078 -47.1419 436.363 -56.2991 447.898 -65.9373C459.483 -75.5429 473.715 -86.8252 489.102 -95.602C502.589 -103.378 517.619 -103.7 533.051 -102.251C548.441 -100.866 563.918 -97.937 579.426 -95.2691C594.891 -92.6221 610.537 -90.2118 627.874 -85.4947C645.25 -80.7696 662.983 -72.7249 678.507 -64.523C694.113 -56.3036 708.585 -48.0748 722.61 -41.0431C736.631 -33.9596 750.329 -28.1824 763.512 -21.0971C776.611 -13.9944 789.025 -4.7865 796.302 9.61942C803.585 23.9919 806.684 41.4269 809.442 56.7106C812.286 72.0403 815.193 85.3077 822.289 94.6534C829.336 104.008 840.826 109.322 853.226 113.008C865.527 116.717 879.045 118.732 890.959 120.775C902.859 122.836 913.16 124.966 919.25 128.355C925.342 131.731 927.178 136.387 922.548 142.642Z" stroke="#D8A45F" stroke-width="0.9644" stroke-miterlimit="10"/>
<path d="M929.922 137.71C910.412 166.813 880.536 189.062 854.545 204.256C828.633 219.608 805.063 230.12 786.828 240.526C768.583 250.923 756.286 261.963 748.18 273.617C740.024 285.177 735.081 297.047 729.479 307.327C723.876 317.566 717.521 326.099 708.448 331.29C699.418 336.491 687.684 338.311 673.578 336.184C659.491 334.076 643.105 328.005 626.24 318.609C609.328 309.218 592.021 296.489 576.588 282.515C561.11 268.525 547.628 253.72 535.264 237.922C522.936 222.162 511.67 205.605 499.6 185.938C490.209 170.584 480.329 155.719 472.078 140.356C463.831 124.963 457.854 109.252 452.719 95.0902C447.562 80.9114 443.138 68.2871 438.198 57.6052C433.27 46.9156 427.791 38.1408 421.927 30.6622C416.079 23.1973 410.503 16.5883 408.68 9.04705C406.855 1.51554 407.628 -6.30307 410.61 -14.3252C413.582 -22.3494 418.764 -30.5841 426.044 -39.1809C433.321 -47.7793 442.711 -56.753 454.296 -66.1772C465.96 -75.5559 480.275 -86.7754 495.194 -94.9419C509.4 -102.777 525.284 -102.411 541.584 -100.675C557.814 -99.0258 574.121 -96.2594 590.851 -93.6686C607.597 -91.0545 625.848 -88.4597 644.644 -81.7112C663.466 -74.9513 680.368 -65.6063 696.399 -57.1954C712.445 -48.7906 727.66 -41.648 742.647 -35.3266C757.542 -28.8657 773.275 -23.505 785.521 -12.4942C797.763 -1.48933 804.337 16.6718 808.107 34.5226C812.053 52.4135 813.72 69.5362 819.168 82.0812C824.584 94.6511 835.287 102.219 848.342 106.976C861.278 111.762 876.3 113.997 890.017 116.019C903.697 118.055 916.009 119.904 923.708 123.17C931.409 126.413 934.427 131.088 929.922 137.71Z" stroke="#D8A45F" stroke-width="0.97476" stroke-miterlimit="10"/>
<path d="M937.009 132.817C919.541 161.465 889.294 185.957 863.049 201.918C836.914 218.091 812.756 229.123 793.952 239.705C775.122 250.282 762.079 261.126 753.598 272.669C745.084 284.132 739.94 295.893 734.242 306.139C728.538 316.338 722.164 324.893 713.061 330.149C703.995 335.41 692.216 337.334 677.982 335.297C663.763 333.272 647.177 327.273 630.019 317.85C612.829 308.44 595.175 295.568 579.383 281.357C563.556 267.142 549.838 252.051 537.438 236.152C525.061 220.288 513.953 203.431 502.185 183.667C493.057 168.287 483.467 153.477 475.373 138.219C467.3 122.944 461.486 107.429 456.516 93.4025C451.522 79.3615 447.295 66.8292 442.599 56.1535C437.93 45.4794 432.739 36.6206 427.262 29.0219C421.8 21.4352 416.26 14.9085 414.453 7.49627C412.651 0.101146 413.479 -7.58754 416.52 -15.4782C419.567 -23.3615 424.82 -31.4681 432.194 -39.9018C439.561 -48.3358 449.045 -57.1281 460.664 -66.3407C472.365 -75.5062 486.702 -86.5641 501.146 -94.1894C514.934 -101.501 530.31 -101.073 546.149 -99.5374C561.936 -98.0864 577.888 -95.7421 594.478 -93.5044C611.108 -91.2291 629.693 -88.7676 648.019 -82.015C666.409 -75.222 683.088 -66.1182 699.024 -58.1897C714.97 -50.2663 730.228 -43.8681 745.354 -38.2161C760.38 -32.4084 776.492 -27.6804 788.58 -16.2572C800.65 -4.83365 806.976 13.9568 810.636 32.1498C814.461 50.3879 816.165 67.6224 821.938 80.0183C827.68 92.4431 839.001 99.5629 852.443 104.014C865.759 108.494 881.075 110.478 895.054 112.278C908.996 114.092 921.576 115.765 929.586 118.838C937.599 121.88 941.007 126.357 937.009 132.817Z" stroke="#D8A45F" stroke-width="0.984806" stroke-miterlimit="10"/>
<path d="M943.811 127.96C928.31 156.102 898.118 182.591 871.681 199.361C845.38 216.373 820.645 227.972 801.268 238.773C781.885 249.593 768.002 260.246 759.125 271.684C750.209 283.041 744.859 294.706 739.039 304.906C733.21 315.058 726.82 323.633 717.674 328.945C708.579 334.264 696.767 336.3 682.402 334.346C668.065 332.413 651.274 326.492 633.846 317.061C616.377 307.642 598.395 294.687 582.256 280.235C566.077 265.783 552.13 250.365 539.708 234.341C527.313 218.351 516.324 201.439 504.836 181.543C495.963 166.115 486.61 151.398 478.691 136.234C470.785 121.052 465.124 105.705 460.332 91.8096C455.513 77.8986 451.463 65.4431 447.014 54.7766C442.587 44.1114 437.708 35.1898 432.597 27.4724C427.501 19.767 422.048 13.3089 420.264 6.02598C418.482 -1.24133 419.333 -8.80494 422.446 -16.552C425.536 -24.3089 430.895 -32.2601 438.335 -40.5365C445.774 -48.813 455.347 -57.4198 466.989 -66.4158C478.726 -75.3612 492.959 -86.2073 506.942 -93.3483C520.319 -100.187 535.173 -99.7636 550.595 -98.454C565.951 -97.2256 581.601 -95.3172 598.07 -93.4426C614.595 -91.5182 633.385 -89.0472 651.286 -82.3187C669.275 -75.5286 685.761 -66.7064 701.612 -59.3134C717.481 -51.9094 732.774 -46.3135 748.051 -41.3501C763.218 -36.2147 779.676 -32.0271 791.589 -20.1319C803.484 -8.22947 809.56 11.2211 813.099 29.7472C816.812 48.3302 818.568 65.6634 824.685 77.8914C830.761 90.1464 842.72 96.8193 856.509 100.963C870.189 105.153 885.758 106.892 899.976 108.492C914.159 110.109 926.962 111.617 935.259 114.512C943.569 117.392 947.34 121.671 943.811 127.96Z" stroke="#D8A45F" stroke-width="0.994852" stroke-miterlimit="10"/>
<path d="M950.338 123.163C936.708 150.757 906.993 178.982 880.425 196.594C854.018 214.462 828.733 226.675 808.784 237.74C788.822 248.839 774.101 259.349 764.774 270.675C755.422 281.933 749.836 293.49 743.874 303.642C737.905 313.742 731.472 322.317 722.296 327.687C713.166 333.059 701.304 335.189 686.837 333.336C672.39 331.499 655.411 325.665 637.716 316.243C619.994 306.838 601.681 293.814 585.209 279.149C568.687 264.481 554.489 248.744 542.048 232.607C529.638 216.507 518.772 199.634 507.516 179.73C498.83 164.337 489.778 149.501 482.028 134.405C474.291 119.295 468.792 104.082 464.17 90.3067C459.526 76.5145 455.651 64.1314 451.451 53.4742C447.256 42.8089 442.72 33.7953 437.958 25.989C433.208 18.1934 427.891 11.7997 426.114 4.63675C424.34 -2.50631 425.231 -9.93812 428.394 -17.5514C431.539 -25.1714 436.945 -32.9904 444.476 -41.0939C451.987 -49.2057 461.64 -57.6179 473.279 -66.413C485.019 -75.15 499.072 -85.7228 512.596 -92.4329C525.542 -98.864 539.899 -98.4847 554.942 -97.4228C569.916 -96.4411 585.282 -94.9786 601.652 -93.4701C618.088 -91.9083 636.948 -89.2882 654.468 -82.6093C672.097 -75.8605 688.396 -67.3744 704.173 -60.5568C719.968 -53.7213 735.312 -48.9803 750.752 -44.7132C766.064 -40.2737 782.83 -36.5065 794.552 -24.0799C806.254 -11.6432 812.075 8.47553 815.512 27.3415C819.116 46.271 820.936 63.6812 827.431 75.7181C833.886 87.7821 846.43 93.988 860.56 97.8502C874.569 101.759 890.375 103.276 904.799 104.694C919.187 106.124 932.177 107.491 940.747 110.227C949.303 112.945 953.429 117.056 950.338 123.163Z" stroke="#D8A45F" stroke-width="1.00521" stroke-miterlimit="10"/>
<path d="M956.593 118.429C944.762 145.452 915.889 175.131 889.264 193.613C862.831 212.354 837.014 225.22 816.489 236.591C795.954 248.011 780.363 258.421 770.55 269.641C760.725 280.807 754.864 292.245 748.747 302.344C742.625 312.388 736.131 320.956 726.912 326.375C717.746 331.798 705.853 334.027 691.269 332.269C676.723 330.534 659.561 324.791 641.62 315.4C623.648 306.025 605.024 292.952 588.223 278.101C571.371 263.245 556.905 247.194 544.438 230.959C532.008 214.76 521.277 197.954 510.242 178.084C500.714 160.845 490.617 144.058 482.634 127.17C474.663 110.248 469.398 93.5489 464.78 78.913C460.145 64.2564 456.017 51.5852 451.353 40.8777C446.711 30.1644 441.507 21.3457 436.681 13.6509C431.844 5.96113 430.101 -1.8749 431.717 -10.1309C433.312 -18.3812 437.952 -26.8706 445.291 -35.651C452.615 -44.4435 462.664 -53.5549 475.213 -63.1153C487.904 -72.5969 503.387 -84.2949 518.062 -91.4492C530.596 -97.5239 544.476 -97.2351 559.153 -96.4428C573.756 -95.7365 588.884 -94.7272 605.176 -93.5931C621.535 -92.4059 640.343 -89.5076 657.528 -82.9065C674.82 -76.2399 690.946 -68.1326 706.669 -61.9442C722.402 -55.7284 737.804 -51.8854 753.415 -48.3282C768.88 -44.601 785.894 -41.1325 797.429 -28.111C808.948 -15.0806 814.506 5.73129 817.841 24.9189C821.355 44.1917 823.253 61.6616 830.156 73.4768C837.005 85.3155 850.128 91.0653 864.567 94.6563C878.882 98.2919 894.896 99.6061 909.503 100.87C924.082 102.146 937.234 103.388 946.027 105.978C954.831 108.559 959.277 112.5 956.593 118.429Z" stroke="#D8A45F" stroke-width="1.01526" stroke-miterlimit="10"/>
<path d="M962.592 113.76C952.451 140.197 924.77 171.032 898.184 190.41C871.816 210.036 845.481 223.585 824.393 235.31C803.292 247.095 786.798 257.448 776.47 268.57C766.117 279.638 759.976 290.972 753.674 301.007C747.357 310.983 740.802 319.542 731.542 325.008C722.322 330.473 710.388 332.791 695.718 331.139C681.072 329.502 663.752 323.87 645.571 314.519C627.361 305.184 608.435 292.093 591.322 277.08C574.162 262.068 559.392 245.696 546.911 229.384C534.454 213.101 523.859 196.385 513.049 176.589C503.738 159.465 493.959 142.604 486.111 125.809C478.279 108.985 473.19 92.3653 468.779 77.7658C464.369 63.1523 460.492 50.4849 456.125 39.7417C451.781 28.9943 446.944 20.1189 442.488 12.3478C438.036 4.59397 435.997 -2.98835 437.648 -11.1017C439.275 -19.2066 443.97 -27.5408 451.363 -36.1449C458.74 -44.7655 468.862 -53.6713 481.401 -63.013C494.065 -72.2782 509.243 -83.6049 523.412 -90.4098C535.515 -96.1967 548.955 -96.0244 563.298 -95.5264C577.555 -95.1249 592.474 -94.5768 608.713 -93.8145C625.016 -93.0145 643.667 -89.6995 660.534 -83.2131C677.518 -76.6663 693.497 -68.9884 709.163 -63.4855C724.838 -57.937 740.326 -55.034 756.1 -52.1984C771.729 -49.1998 788.949 -45.8694 800.281 -32.2004C811.591 -18.5328 816.89 2.97379 820.146 22.4928C823.583 42.1056 825.585 59.6098 832.917 71.1765C840.2 82.7656 853.854 88.0606 868.587 91.4006C883.184 94.7789 899.387 95.9161 914.141 97.0393C928.877 98.1812 942.156 99.3115 951.157 101.779C960.156 104.223 964.872 108.004 962.592 113.76Z" stroke="#D8A45F" stroke-width="1.0253" stroke-miterlimit="10"/>
<path d="M968.337 109.166C959.778 135.015 933.634 166.712 907.165 186.991C880.938 207.497 854.125 221.774 832.492 233.89C810.832 246.078 793.453 256.446 782.544 267.467C771.621 278.449 765.163 289.666 758.656 299.637C752.126 309.541 745.498 318.089 736.176 323.586C726.898 329.083 714.935 331.495 700.171 329.95C685.431 328.414 667.964 322.897 649.557 313.604C631.117 304.324 611.909 291.237 594.496 276.09C577.018 260.938 561.944 244.257 549.449 227.883C536.973 211.531 526.499 194.913 515.916 175.234C506.815 158.26 497.349 141.34 489.636 124.631C481.925 107.894 476.994 91.3336 472.802 76.7697C468.59 62.1835 464.975 49.515 460.896 38.7357C456.852 27.9585 452.353 19.0132 448.257 11.171C444.165 3.34593 441.926 -4.01492 443.592 -11.9923C445.243 -19.9565 449.986 -28.1332 457.424 -36.5658C464.856 -45.0058 475.025 -53.7148 487.528 -62.8448C500.174 -71.8846 514.937 -82.8242 528.605 -89.3456C540.299 -94.8828 553.311 -94.8669 567.348 -94.6938C581.313 -94.6024 596.03 -94.5377 612.237 -94.1556C628.498 -93.7576 646.869 -89.9151 663.465 -83.5631C680.162 -77.1896 696.006 -69.9882 711.626 -65.2152C727.261 -60.3822 742.826 -58.4788 758.78 -56.3511C774.585 -54.0775 791.957 -50.7394 803.076 -36.3701C814.187 -22.0055 819.213 0.19915 822.405 20.0294C825.776 39.9659 827.904 57.4889 835.708 68.7731C843.458 80.0808 857.616 84.9489 872.601 88.0396C887.461 91.182 903.805 92.1503 918.7 93.1625C933.554 94.1807 946.931 95.234 956.117 97.5941C965.293 99.9479 970.245 103.583 968.337 109.166Z" stroke="#D8A45F" stroke-width="1.03566" stroke-miterlimit="10"/>
<path d="M973.848 104.659C966.764 129.92 942.419 162.167 916.198 183.365C890.2 204.75 862.959 219.78 840.796 232.33C818.599 244.965 800.325 255.396 788.801 266.339C777.261 277.242 770.447 288.341 763.708 298.243C756.958 308.082 750.216 316.594 740.825 322.123C731.477 327.648 719.494 330.158 704.629 328.706C689.814 327.279 672.192 321.876 653.577 312.658C634.94 303.457 615.448 290.391 597.743 275.13C579.966 259.871 564.583 242.892 552.057 226.452C539.546 210.036 529.212 193.546 518.841 174.012C509.957 157.222 500.815 140.289 493.212 123.647C485.607 106.982 480.83 90.4745 476.839 75.9325C472.822 61.3678 469.448 48.6828 465.66 37.8717C461.891 27.0506 457.73 18.0469 453.984 10.1385C450.231 2.2409 447.867 -4.94608 449.548 -12.7875C451.208 -20.6162 455.993 -28.6342 463.472 -36.8914C470.936 -45.1607 481.151 -53.6685 493.601 -62.5865C506.174 -71.4296 520.467 -81.9515 533.657 -88.2344C544.935 -93.5799 557.564 -93.7488 571.318 -93.9134C585.004 -94.1608 599.557 -94.5785 615.751 -94.5811C631.973 -94.6074 649.965 -90.107 666.324 -83.9281C682.763 -77.7614 698.461 -71.1089 714.056 -67.1109C729.656 -63.0451 745.303 -62.1819 761.449 -60.7627C777.432 -59.2196 794.904 -55.6969 805.807 -40.5755C816.701 -25.4841 821.481 -2.56987 824.614 17.5634C827.922 37.8085 830.222 55.3291 838.524 66.2959C846.774 77.2791 861.381 81.7466 876.602 84.6152C891.706 87.5316 908.191 88.3748 923.172 89.2811C938.124 90.1996 951.587 91.2046 960.911 93.4703C970.229 95.7329 975.421 99.2414 973.848 104.659Z" stroke="#D8A45F" stroke-width="1.04571" stroke-miterlimit="10"/>
<path d="M979.127 100.232C973.421 124.933 951.119 157.42 925.253 179.53C899.582 201.774 871.979 217.607 849.286 230.616C826.574 243.704 808.366 254.213 795.41 265.159C782.443 276.033 775.83 286.979 768.834 296.824C761.818 306.584 754.949 315.059 745.493 320.62C736.071 326.171 724.046 328.759 709.097 327.414C694.198 326.091 676.447 320.816 657.637 311.681C638.796 302.562 619.043 289.54 601.066 274.203C583.001 258.861 567.297 241.595 554.74 225.101C542.196 208.629 532.002 192.293 521.828 172.927C513.14 156.337 504.341 139.443 496.84 122.863C489.329 106.263 484.717 89.8076 480.9 75.2718C477.079 60.7189 473.938 48.0198 470.423 37.1632C466.942 26.3087 463.096 17.2367 459.678 9.26081C456.274 1.30679 453.825 -5.77269 455.522 -13.4711C457.196 -21.1611 461.994 -29.0377 469.51 -37.1141C477.003 -45.2073 487.245 -53.518 499.617 -62.2452C512.104 -70.8951 525.848 -80.9942 538.579 -87.0965C549.463 -92.2927 561.715 -92.6868 575.223 -93.2037C588.643 -93.8145 603.073 -94.7163 619.27 -95.1126C635.466 -95.5821 652.984 -90.3069 669.128 -84.3323C685.329 -78.4189 700.896 -72.3636 716.469 -69.1982C732.046 -65.9467 747.788 -66.1706 764.12 -65.4449C780.297 -64.6202 797.82 -60.7273 808.489 -44.8126C819.174 -28.9434 823.696 -5.3329 826.797 15.0896C830.079 35.6312 832.558 53.1176 841.403 63.7274C850.192 74.3478 865.188 78.449 880.619 81.1122C895.939 83.8236 912.519 84.5403 927.585 85.3869C942.629 86.2463 956.122 87.1996 965.57 89.3997C975.009 91.5795 980.389 94.9756 979.127 100.232Z" stroke="#D8A45F" stroke-width="1.05575" stroke-miterlimit="10"/>
<path d="M984.189 95.8841C979.741 120.05 959.733 152.495 934.308 175.487C909.085 198.58 881.143 215.214 857.97 228.736C834.758 242.33 815.885 253.064 802.236 263.939C788.57 274.739 781.335 285.606 774.039 295.368C766.739 305.055 759.726 313.484 750.175 319.065C740.662 324.636 728.589 327.294 713.564 326.058C698.594 324.843 680.724 319.698 661.717 310.66C642.701 301.642 622.693 288.68 604.453 273.289C586.123 257.899 570.075 240.343 557.486 223.81C544.901 207.289 534.834 191.11 524.868 171.95C516.377 155.59 507.923 138.783 500.51 122.257C493.075 105.713 488.601 89.2894 484.973 74.7607C481.331 60.2102 478.415 47.4809 475.178 36.5862C471.958 25.6826 468.424 16.5521 465.333 8.51415C462.241 0.490261 459.803 -6.4957 461.507 -14.0672C463.184 -21.6248 468.006 -29.3494 475.53 -37.2579C483.036 -45.1844 493.29 -53.296 505.57 -61.8375C517.953 -70.301 531.078 -79.9816 543.364 -85.9488C553.873 -91.0396 565.79 -91.6773 579.06 -92.5741C592.277 -93.5164 606.329 -95.7855 622.818 -95.6946C639.282 -95.6571 655.94 -90.4843 671.877 -84.7991C687.848 -79.192 703.307 -73.7831 718.86 -71.5064C734.413 -69.1242 750.252 -70.4772 766.789 -70.42C783.174 -70.2944 800.679 -65.8429 811.12 -49.0994C821.577 -32.4224 825.865 -8.11715 828.954 12.5774C832.214 33.3892 834.921 50.8191 844.348 61.0319C853.732 71.2492 869.028 75.0308 884.65 77.5072C900.167 80.0279 916.832 80.6597 931.94 81.454C947.018 82.2606 960.548 83.2063 970.09 85.3515C979.614 87.4829 985.165 90.7782 984.189 95.8841Z" stroke="#D8A45F" stroke-width="1.06611" stroke-miterlimit="10"/>
<path d="M989.047 91.6199C985.75 115.287 968.187 147.385 943.345 171.25C918.671 195.168 890.494 212.642 866.834 226.687C843.15 240.824 823.626 251.831 809.274 262.674C794.921 273.458 786.951 284.205 779.337 293.888C771.712 303.493 764.549 311.881 754.88 317.471C745.266 323.053 733.137 325.784 718.035 324.648C702.965 323.52 685.005 318.526 665.827 309.6C646.639 300.693 626.402 287.813 607.907 272.393C589.3 256.967 572.935 239.163 560.304 222.584C547.678 206.021 537.727 190.006 527.964 171.084C519.667 154.977 511.572 138.315 504.225 121.832C496.849 105.336 492.507 88.9413 489.053 74.4049C485.588 59.8508 482.883 47.0878 479.915 36.1488C476.966 25.2024 473.725 16.005 470.941 7.90535C468.163 -0.179826 465.796 -7.11798 467.488 -14.5692C469.157 -22.0049 473.999 -29.5765 481.522 -37.3191C489.028 -45.0781 499.28 -53.0028 511.443 -61.3684C523.686 -69.6702 536.155 -78.9176 548.019 -84.8061C558.159 -89.8374 569.753 -90.7491 582.837 -92.0327C595.885 -93.3409 610.293 -96.2848 626.356 -96.1604C642.438 -96.0502 658.84 -90.6733 674.569 -85.3368C690.342 -80.0764 705.684 -75.3875 721.222 -74.047C736.762 -72.5826 752.716 -75.1018 769.453 -75.6865C786.044 -76.2392 803.492 -71.0231 813.695 -53.4206C823.928 -35.9089 828.003 -10.9033 831.089 10.0288C834.371 31.1035 837.318 48.4324 847.373 58.2033C857.386 67.9717 872.912 71.4943 888.701 73.8063C904.386 76.1557 921.12 76.7255 936.245 77.4941C951.346 78.274 964.873 79.2364 974.48 81.346C984.074 83.4451 989.754 86.6595 989.047 91.6199Z" stroke="#D8A45F" stroke-width="1.07616" stroke-miterlimit="10"/>
<path d="M993.712 87.447C991.454 110.659 976.497 142.141 952.337 166.834C928.332 191.548 899.975 209.86 875.88 224.47C851.762 239.176 831.568 250.489 816.54 261.362C801.485 272.168 792.726 282.793 784.749 292.39C776.774 301.916 769.407 310.249 759.628 315.847C749.888 321.436 737.696 324.224 722.523 323.2C707.389 322.183 689.308 317.316 669.973 308.512C650.612 299.716 630.174 286.952 611.436 271.526C592.575 256.099 575.87 238.044 563.202 221.428C550.515 204.82 540.696 188.99 531.121 170.321C523.01 154.488 515.284 138.029 507.988 121.589C500.659 105.138 496.443 88.7626 493.152 74.2148C489.849 59.6494 487.378 46.8583 484.645 35.863C481.937 24.8636 479 15.6029 476.511 7.44502C474.028 -0.698429 471.799 -7.62974 473.48 -14.9564C475.136 -22.2762 479.983 -29.697 487.497 -37.2811C494.994 -44.879 505.221 -52.6224 517.253 -60.8242C529.343 -68.9748 541.097 -77.8053 552.56 -83.6531C562.356 -88.6587 573.659 -89.8719 586.571 -91.5596C599.471 -93.2466 614.115 -96.7798 629.809 -96.6001C645.55 -96.4078 661.669 -90.8931 677.215 -85.9487C692.782 -81.1043 708.027 -77.178 723.565 -76.8277C739.105 -76.3309 755.15 -80.0557 772.112 -81.2386C788.933 -82.4273 806.256 -76.2469 816.218 -57.7642C826.244 -39.3789 830.082 -13.7167 833.209 7.44576C836.521 28.7445 839.769 45.9536 850.494 55.2303C861.19 64.494 876.841 67.8357 892.772 70.0042C908.618 72.2114 925.375 72.7291 940.5 73.4977C955.604 74.2791 969.111 75.2769 978.75 77.3731C988.403 79.4771 994.191 82.6192 993.712 87.447Z" stroke="#D8A45F" stroke-width="1.08621" stroke-miterlimit="10"/>
<path d="M998.194 83.3499C996.886 106.16 984.588 136.753 961.258 162.237C938.025 187.698 909.583 206.867 885.093 222.068C860.579 237.372 839.742 249.038 824.023 259.972C808.293 270.861 798.644 281.345 790.27 290.858C781.897 300.299 774.323 308.577 764.403 314.181C754.53 319.773 742.27 322.624 727.01 321.694C711.799 320.778 693.621 316.054 674.136 307.378C654.648 298.726 633.967 286.057 615.023 270.661C595.922 255.254 578.894 236.98 566.162 220.324C553.41 203.678 543.724 188.034 534.321 169.642C526.383 154.09 519.057 137.916 511.785 121.509C504.487 105.104 500.37 88.7279 497.247 74.1719C494.1 59.5877 491.836 46.757 489.352 35.7091C486.894 24.6586 484.231 15.3314 482.031 7.11208C479.835 -1.09434 477.807 -8.04305 479.464 -15.2573C481.094 -22.4689 485.943 -29.7433 493.435 -37.1698C500.914 -44.6113 511.104 -52.1769 522.977 -60.235C534.887 -68.2501 545.888 -76.6812 556.979 -82.5233C566.442 -87.5502 577.49 -89.0742 590.251 -91.1858C603.03 -93.2655 617.811 -97.2743 633.175 -97.0314C648.616 -96.7474 664.448 -91.1557 679.813 -86.6638C695.203 -82.2731 710.352 -79.1894 725.884 -79.8788C741.421 -80.3949 757.594 -85.358 774.771 -87.0879C791.821 -88.862 808.975 -81.5173 818.693 -62.1393C828.495 -42.8715 832.134 -16.556 835.328 4.80882C838.707 26.3127 842.281 43.3542 853.73 52.0851C865.153 60.7862 880.826 64.0463 896.882 66.0916C912.854 68.1642 929.627 68.666 944.733 69.4673C959.809 70.2723 973.26 71.3286 982.924 73.4319C992.582 75.5461 998.461 78.643 998.194 83.3499Z" stroke="#D8A45F" stroke-width="1.09657" stroke-miterlimit="10"/>
<path d="M1002.51 79.3298C1002.03 101.795 992.462 131.254 970.079 157.478C947.759 183.643 919.304 203.664 894.462 219.481C869.603 235.408 848.121 247.463 831.725 258.507C815.304 269.508 804.722 279.874 795.919 289.302C787.112 298.666 779.295 306.881 769.219 312.486C759.176 318.07 746.847 320.978 731.507 320.147C716.209 319.326 697.96 314.757 678.32 306.212C658.697 297.7 637.837 285.171 618.667 269.815C599.34 254.455 581.987 235.99 569.189 219.292C556.361 202.602 546.803 187.155 537.567 169.059C529.835 153.832 522.851 138.58 515.62 121.632C508.384 104.712 504.336 88.8938 501.339 74.2947C498.357 59.7008 496.268 46.8074 494.032 35.7111C491.81 24.6044 489.422 15.2107 487.498 6.93345C485.587 -1.32894 483.801 -8.33071 485.441 -15.4348C487.057 -22.5347 491.881 -29.6784 499.34 -36.9536C506.781 -44.2469 516.925 -51.6394 528.616 -59.5706C540.323 -67.4714 550.546 -75.5103 561.286 -81.3917C570.435 -86.4699 581.262 -88.3277 593.892 -90.8777C606.561 -93.3761 621.386 -97.7436 636.461 -97.4211C651.632 -97.0393 667.179 -91.438 682.36 -87.4621C697.576 -83.5854 712.625 -81.4036 728.172 -83.1793C743.711 -84.7599 760.012 -90.9869 777.419 -93.2037C794.711 -95.509 811.626 -86.8087 821.111 -66.5135C830.712 -46.3366 834.164 -19.3966 837.447 2.13527C840.914 23.8062 844.697 40.7914 857.106 48.7641C869.517 56.6905 884.894 60.1381 901.024 62.0852C917.114 64.0524 933.869 64.5615 948.929 65.412C963.965 66.2667 977.337 67.4041 986.992 69.535C996.634 71.658 1002.59 74.7354 1002.51 79.3298Z" stroke="#D8A45F" stroke-width="1.10661" stroke-miterlimit="10"/>
<path d="M1006.67 75.3888C1006.92 97.5617 1000.11 125.678 978.784 152.575C957.491 179.391 929.14 200.262 903.988 216.708C878.836 233.275 856.725 245.761 839.655 256.955C822.571 268.124 810.988 278.373 801.721 287.725C792.448 297.017 784.363 305.17 774.097 310.763C763.874 316.341 751.456 319.296 736.027 318.563C720.647 317.839 702.295 313.399 682.538 305.012C662.779 296.641 641.749 284.268 622.383 268.976C602.854 253.689 585.154 235.041 572.302 218.316C559.406 201.594 549.952 186.33 540.881 168.551C533.314 153.63 526.495 138.705 519.493 121.928C512.487 105.174 508.31 89.1833 505.451 74.5658C502.603 59.9405 500.721 47.0075 498.707 35.8472C496.715 24.6812 494.587 15.2201 492.935 6.88604C491.288 -1.43786 489.821 -8.50909 491.427 -15.5168C493.002 -22.5207 497.817 -29.5285 505.225 -36.6591C512.617 -43.8104 522.69 -51.0483 534.188 -58.8589C545.675 -66.6617 555.093 -74.3285 565.513 -80.2783C574.369 -85.4388 584.996 -87.6589 597.519 -90.6583C610.097 -93.5897 624.866 -98.2067 639.704 -97.7929C654.625 -97.3234 669.867 -91.7967 684.889 -88.3873C699.949 -85.0755 714.901 -83.8742 730.458 -86.7787C746.004 -89.4757 762.441 -96.9757 780.082 -99.6089C797.62 -102.366 814.256 -92.1203 823.505 -70.9138C832.902 -49.8208 836.189 -22.2803 839.597 -0.614312C843.173 21.1883 847.841 37.5782 860.63 45.2376C873.417 52.8448 889.001 56.0896 905.231 57.9527C921.422 59.8401 938.145 60.3854 953.127 61.3072C968.099 62.241 981.363 63.4788 990.993 65.6602C1000.6 67.8318 1006.6 70.8965 1006.67 75.3888Z" stroke="#D8A45F" stroke-width="1.11666" stroke-miterlimit="10"/>
<path d="M1010.68 71.5195C1011.57 93.4675 1007.47 120.033 987.334 147.536C967.202 174.947 939.046 196.648 913.643 213.743C888.255 230.963 865.53 243.91 847.806 255.301C830.055 266.671 817.46 276.839 807.674 286.117C797.888 295.337 789.501 303.429 779.028 309.011C768.6 314.579 756.07 317.571 740.552 316.935C725.088 316.308 706.651 312.014 686.768 303.776C666.889 295.557 645.709 283.35 626.147 268.145C606.413 252.945 588.41 234.167 575.478 217.399C562.486 200.629 553.142 185.559 544.23 168.114C536.822 153.513 530.164 138.932 523.366 122.353C516.578 105.793 512.277 89.6221 509.544 74.9868C506.824 60.3341 505.139 47.3482 503.339 36.1262C501.559 24.8942 499.693 15.3672 498.298 6.97826C496.904 -1.40643 495.831 -8.56935 497.378 -15.4877C498.913 -22.4027 503.69 -29.2834 511.045 -36.2779C518.378 -43.2963 528.363 -50.3819 539.645 -58.1C550.883 -65.8249 559.506 -73.1316 569.624 -79.191C578.224 -84.4554 588.661 -87.0567 601.102 -90.528C613.587 -93.9263 628.25 -98.6482 642.867 -98.1407C657.572 -97.5788 672.486 -92.2307 687.359 -89.4435C702.257 -86.7616 717.129 -86.5961 732.702 -90.6838C748.256 -94.5365 764.839 -103.33 782.729 -106.29C800.541 -109.401 816.818 -97.455 825.842 -75.338C835.045 -53.3242 838.19 -25.2169 841.762 -3.44549C845.485 18.4532 851.093 34.1822 864.244 41.5286C877.384 48.825 893.175 51.8812 909.48 53.6897C925.733 55.5077 942.408 56.1232 957.305 57.1482C972.18 58.1817 985.33 59.5532 994.908 61.799C1004.46 64.0393 1010.47 67.1103 1010.68 71.5195Z" stroke="#D8A45F" stroke-width="1.12702" stroke-miterlimit="10"/>
<path d="M1014.57 67.7179C1015.99 89.5035 1014.54 114.346 995.712 142.385C976.851 170.319 949.021 192.836 923.426 210.589C897.88 228.479 874.554 241.92 856.182 253.538C837.791 265.155 824.155 275.274 813.808 284.481C803.455 293.635 794.732 301.655 784.034 307.231C773.373 312.781 760.724 315.817 745.107 315.272C729.543 314.736 711.03 310.586 691.029 302.508C671.042 294.452 649.708 282.418 629.972 267.319C610.048 252.227 591.767 233.36 578.729 216.538C565.637 199.721 556.397 184.842 547.631 167.739C540.377 153.469 533.847 139.238 527.26 122.896C520.677 106.564 516.253 90.2054 513.643 75.5508C511.044 60.8701 509.539 47.8247 507.949 36.5394C506.388 25.2487 504.764 15.6477 503.616 7.20183C502.477 -1.24207 501.813 -8.53087 503.32 -15.3603C504.809 -22.1894 509.541 -28.9546 516.827 -35.8225C524.076 -42.7264 534.624 -49.3563 544.925 -57.3723C555.123 -65.455 563.796 -71.957 573.651 -78.139C582.007 -83.5447 592.295 -86.5404 604.669 -90.4925C617.098 -94.347 631.55 -99.5752 645.993 -98.3848C660.537 -97.0787 675.077 -92.7151 689.794 -90.6559C704.539 -88.6639 719.329 -89.6046 734.921 -94.9177C750.488 -99.9693 767.219 -110.062 785.372 -113.244C803.456 -116.607 819.33 -102.806 828.138 -79.7881C837.158 -56.8542 840.186 -28.2124 843.959 -6.37543C847.871 15.5809 854.444 30.5732 867.969 37.6285C881.447 44.6231 897.426 47.5119 913.794 49.2919C930.108 51.0727 946.708 51.7864 961.484 52.9335C976.249 54.0954 989.265 55.6221 998.758 57.9528C1008.25 60.2921 1014.24 63.3716 1014.57 67.7179Z" stroke="#D8A45F" stroke-width="1.13706" stroke-miterlimit="10"/>
<path d="M1018.34 63.9701C1020.19 85.6521 1021.29 108.633 1003.88 137.132C986.423 165.52 959.033 188.82 933.317 207.236C907.661 225.791 883.79 239.769 864.78 251.649C845.751 263.544 831.098 273.666 820.136 282.808C809.176 291.908 800.084 299.865 789.126 305.421C778.209 310.957 765.425 314.024 749.696 313.566C734.024 313.116 715.433 309.114 695.322 301.197C675.222 293.297 653.753 281.453 633.86 266.488C613.765 251.529 595.211 232.603 582.064 215.729C568.847 198.854 559.718 184.163 551.091 167.411C543.975 153.472 537.593 139.626 531.178 123.532C524.769 107.446 520.253 90.9257 517.744 76.2462C515.255 61.5341 513.924 48.4304 512.538 37.0813C511.185 25.7257 509.795 16.053 508.887 7.54701C507.988 -0.954243 507.643 -8.32381 509.24 -15.1337C510.819 -21.9433 515.373 -28.5435 522.574 -35.2969C529.748 -42.0843 540.288 -48.8427 550.049 -56.6014C559.74 -64.415 568.021 -70.7591 577.615 -77.1171C585.742 -82.6982 595.922 -86.09 608.234 -90.5451C620.597 -94.924 634.939 -99.7482 649.061 -98.5798C663.274 -97.3231 677.631 -93.3263 692.204 -92.0282C706.818 -90.7755 721.516 -92.9074 737.13 -99.4836C752.712 -105.778 769.615 -117.155 788.028 -120.448C806.415 -123.934 821.809 -108.173 830.42 -84.2609C839.273 -60.4158 842.209 -31.269 846.222 -9.41347C850.359 12.5606 857.955 26.7593 871.822 33.5255C885.634 40.2351 901.793 42.9814 918.19 44.749C934.547 46.5254 951.041 47.3523 965.69 48.6578C980.32 49.9705 993.161 51.6709 1002.57 54.1149C1011.96 56.56 1017.92 59.683 1018.34 63.9701Z" stroke="#D8A45F" stroke-width="1.14711" stroke-miterlimit="10"/>
<path d="M1022.02 60.2895C1024.22 81.9435 1027.71 102.934 1011.83 131.813C995.881 160.575 969.073 184.624 943.3 203.703C917.619 222.925 893.226 237.461 873.599 249.645C853.942 261.847 838.31 272.02 826.684 281.113C815.067 290.171 805.553 298.054 794.315 303.6C783.106 309.113 770.166 312.213 754.318 311.842C738.524 311.478 719.85 307.613 699.638 299.87C679.431 292.137 657.846 280.493 637.802 265.673C617.556 250.863 598.748 231.928 585.468 214.991C572.132 198.063 563.091 183.548 554.588 167.152C547.613 153.554 541.359 140.095 535.101 124.28C528.858 108.467 524.237 91.7953 521.832 77.0925C519.439 62.3455 518.265 49.1835 517.084 37.768C515.927 26.3483 514.772 16.6011 514.091 8.03693C513.422 -0.523649 513.298 -7.94324 515.066 -14.7668C516.813 -21.5916 521.139 -28.0366 528.253 -34.6814C535.353 -41.3481 545.759 -48.22 555.013 -55.7532C564.211 -63.3404 572.139 -69.5438 581.488 -76.1191C589.425 -81.886 599.488 -85.7153 611.773 -90.6825C624.088 -95.6115 638.201 -99.8895 652.043 -98.7816C665.977 -97.6063 680.121 -94.0583 694.565 -93.5781C709.042 -93.1367 723.645 -96.5303 739.296 -104.401C754.905 -111.966 771.984 -124.613 790.67 -127.89C809.35 -131.369 824.231 -113.545 832.66 -88.759C841.356 -64.0147 844.243 -34.3997 848.536 -12.5709C852.928 9.36927 861.579 22.7198 875.79 29.217C889.917 35.6514 906.249 38.2801 922.658 40.0653C939.034 41.857 955.412 42.8372 969.907 44.3261C984.383 45.8181 997.051 47.7233 1006.34 50.2922C1015.61 52.8641 1021.54 56.0523 1022.02 60.2895Z" stroke="#D8A45F" stroke-width="1.15747" stroke-miterlimit="10"/>
<path d="M1025.59 56.6507C1028.04 78.3393 1033.77 97.2638 1019.5 126.432C1005.21 155.492 979.089 180.234 953.345 199.979C927.721 219.861 902.847 234.986 882.624 247.499C862.379 260.055 845.787 270.315 833.454 279.376C821.104 288.392 811.16 296.229 799.597 301.752C788.083 307.255 774.952 310.371 758.97 310.087C743.046 309.803 724.287 306.081 703.974 298.512C683.679 290.952 661.97 279.509 641.786 264.855C621.388 250.207 602.354 231.308 588.941 214.306C575.466 197.311 566.503 182.962 558.126 166.931C551.282 153.678 545.134 140.613 539.036 125.105C532.946 109.59 528.241 92.8011 525.913 78.0664C523.614 63.294 522.591 50.0666 521.595 38.5807C520.616 27.0858 519.693 17.2765 519.231 8.65104C518.775 0.0244346 518.875 -7.4323 520.799 -14.2816C522.691 -21.1315 526.876 -27.4443 533.87 -34.0021C540.867 -40.5695 551.075 -47.5011 559.839 -54.8527C568.559 -62.252 576.152 -68.3518 585.299 -75.1601C593.047 -81.1522 603.045 -85.41 615.311 -90.9143C627.555 -96.4381 641.371 -100.025 654.96 -99.0056C668.607 -97.9741 682.594 -94.9081 696.892 -95.3172C711.229 -95.7506 725.755 -100.475 741.439 -109.676C757.068 -118.552 774.349 -132.428 793.315 -135.542C812.312 -138.849 826.621 -118.916 834.883 -93.2877C843.442 -67.6586 846.299 -37.629 850.932 -15.8684C855.644 5.99537 865.362 18.4535 879.896 24.6846C894.341 30.8639 910.808 33.3896 927.217 35.2254C943.594 37.0607 959.837 38.2284 974.161 39.9221C988.468 41.6248 1000.93 43.7538 1010.08 46.4708C1019.22 49.1854 1025.07 52.4434 1025.59 56.6507Z" stroke="#D8A45F" stroke-width="1.16751" stroke-miterlimit="10"/>
<path d="M1029.1 53.0568C1031.72 74.8637 1038.55 92.7126 1026.86 121.062C1015.21 149.329 989.092 175.699 963.45 196.072C937.963 216.602 912.653 232.331 891.864 245.207C871.042 258.11 854.374 268.414 840.636 277.567C826.919 286.666 816.923 294.354 805.006 299.875C793.131 305.355 779.803 308.499 763.676 308.298C747.596 308.091 728.754 304.51 708.344 297.116C687.962 289.738 666.138 278.501 645.83 264.024C625.304 249.56 606.069 230.745 592.494 213.667C578.852 196.59 569.987 182.41 561.715 166.744C554.985 153.826 548.95 141.174 542.992 125.989C537.034 110.793 532.242 93.9147 529.99 79.155C527.751 64.3483 526.89 51.0659 526.072 39.5118C525.284 27.954 524.573 18.0673 524.315 9.37812C524.08 0.694481 524.382 -6.81196 526.446 -13.6895C528.486 -20.5629 532.551 -26.7929 539.434 -33.2659C546.329 -39.7395 556.232 -46.7134 564.541 -53.9108C572.825 -61.145 580.082 -67.1848 589.052 -74.2512C596.655 -80.4756 606.585 -85.1932 618.852 -91.2516C631.055 -97.394 644.444 -100.18 657.819 -99.2728C671.204 -98.4286 685.021 -95.9143 699.187 -97.2834C713.391 -98.6601 727.836 -104.787 743.555 -115.349C759.217 -125.555 776.691 -140.634 795.966 -143.411C815.268 -146.391 828.963 -124.328 837.093 -97.8807C845.546 -71.3845 848.416 -40.9815 853.419 -19.352C858.489 2.38132 869.291 13.9032 884.147 19.8919C898.897 25.8308 915.481 28.2861 931.878 30.1986C948.246 32.1121 964.323 33.492 978.455 35.4232C992.579 37.368 1004.82 39.7425 1013.81 42.6243C1022.8 45.5193 1028.55 48.8618 1029.1 53.0568Z" stroke="#D8A45F" stroke-width="1.17756" stroke-miterlimit="10"/>
<path d="M1032.55 49.5027C1035.19 71.5025 1043.25 88.5375 1033.81 115.872C1024.41 143.131 999.045 170.993 973.591 191.995C948.356 213.157 922.636 229.501 901.315 242.773C879.948 256.072 862.559 266.557 848.105 275.714C833.655 284.814 822.86 292.48 810.557 297.985C798.293 303.45 784.736 306.614 768.448 306.49C752.205 306.363 733.271 302.917 712.759 295.7C692.276 288.496 670.365 277.484 649.93 263.196C629.282 248.925 609.889 230.251 596.128 213.087C582.315 195.93 573.515 181.889 565.35 166.59C558.735 154.013 552.81 141.779 546.967 126.929C541.137 112.076 536.251 95.1425 534.068 80.3574C531.9 65.5338 531.164 52.1788 530.517 40.5604C529.9 28.934 529.395 18.9712 529.339 10.221C529.295 1.47008 529.81 -6.07709 532.008 -12.986C534.181 -19.895 538.191 -26.0692 544.938 -32.4687C551.701 -38.8701 561.241 -45.8573 569.124 -52.9242C576.978 -60.0295 583.951 -66.0161 592.762 -73.3733C600.222 -79.8651 610.135 -85.0422 622.404 -91.6757C634.558 -98.4807 647.456 -100.321 660.625 -99.5799C673.777 -98.9719 687.414 -97.0873 701.453 -99.4725C715.531 -101.85 729.891 -109.462 745.65 -121.399C761.306 -132.808 779.707 -151.224 798.568 -151.206C817.349 -151.212 831.221 -129.769 839.304 -102.512C847.662 -75.1859 850.577 -44.4595 856.02 -23.0076C861.509 -1.46006 873.387 9.09544 888.55 14.8593C903.59 20.5736 920.296 22.987 936.651 25.0095C952.98 27.0276 968.888 28.6576 982.813 30.8534C996.714 33.0577 1008.72 35.7069 1017.55 38.778C1026.35 41.8633 1031.99 45.3131 1032.55 49.5027Z" stroke="#D8A45F" stroke-width="1.18792" stroke-miterlimit="10"/>
<path d="M1035.94 45.9706C1038.7 70.6733 1049.49 88.4802 1037.22 119.9C1024.92 151.246 995.277 179.802 966.966 201.551C938.846 223.509 911.877 239.795 890.272 252.942C868.614 266.106 851.429 276.528 837.202 285.058C823.002 293.542 809.883 299.953 793.829 302.903C777.847 305.827 758.954 305.211 737.269 300.082C715.644 294.963 691.393 285.286 667.972 271.267C644.395 257.26 621.832 238.288 604.779 218.423C587.773 198.56 578.05 183.072 569.031 166.472C562.518 154.226 556.697 142.422 550.959 127.923C545.227 113.415 540.275 96.481 538.139 81.679C536.018 66.8358 535.409 53.4194 534.925 41.7321C534.463 30.0363 534.159 19.9969 534.298 11.1853C534.454 2.37603 535.15 -5.22641 537.475 -12.167C539.775 -19.1078 543.779 -25.2641 550.366 -31.6141C556.985 -37.9539 566.106 -44.9367 573.581 -51.9015C581.035 -58.9042 587.735 -64.8706 596.418 -72.5379C603.778 -79.3086 613.677 -84.9577 625.953 -92.1998C638.061 -99.7051 650.382 -100.483 663.364 -99.9444C676.29 -99.6299 689.776 -98.4196 703.666 -101.909C717.616 -105.358 731.864 -114.553 747.698 -127.857C763.385 -140.619 782.313 -160.061 801.109 -159.076C819.811 -158.103 833.489 -135.238 841.499 -107.214C849.795 -79.0834 852.797 -48.093 858.733 -26.8814C864.698 -5.58099 877.64 3.99328 893.104 9.55019C908.428 15.0594 925.22 17.4568 941.531 19.6314C957.816 21.7945 973.52 23.702 987.216 26.1935C1000.89 28.6908 1012.64 31.6367 1021.27 34.9129C1029.89 38.1991 1035.41 41.7784 1035.94 45.9706Z" stroke="#D8A45F" stroke-width="1.19797" stroke-miterlimit="10"/>
<path d="M1039.31 42.4677C1041.88 67.5617 1053.91 84.4528 1044.16 114.702C1034.41 144.88 1005.51 175.132 977.292 197.541C949.333 220.168 921.842 237.08 899.568 250.578C877.252 264.109 859.047 274.626 844.038 283.143C829.042 291.617 815.462 298.005 799.073 300.987C782.777 303.954 763.695 303.428 741.876 298.461C720.132 293.509 695.768 284.061 672.245 270.287C648.598 256.526 626.08 238.03 608.657 218.002C591.328 197.97 581.674 182.577 572.75 166.376C565.436 152.768 558.934 139.694 552.579 122.761C546.23 105.817 542.247 86.723 540.784 70.7041C539.355 54.6323 539.164 40.6715 539.032 28.7634C538.937 16.8476 539.026 6.8937 540.491 -1.85947C541.953 -10.6072 544.965 -18.1662 550.795 -25.3268C556.618 -32.4809 566.519 -39.9781 574.836 -47.8924C583.086 -55.8895 590.198 -62.6328 600.045 -71.7338C607.388 -78.7136 617.434 -86.0544 629.55 -92.6057C641.574 -99.2932 653.302 -100.544 666.068 -100.373C678.775 -100.406 692.084 -99.9577 705.86 -104.605C719.68 -109.197 733.844 -120.025 749.731 -134.72C765.458 -148.858 784.904 -169.059 803.63 -167.035C822.259 -165.015 835.742 -140.744 843.715 -111.984C851.964 -83.0939 855.11 -51.8824 861.596 -30.9882C868.095 -10.0031 882.089 -1.40501 897.833 3.96195C913.425 9.29163 930.309 11.7172 946.542 14.0573C962.758 16.3977 978.262 18.6321 991.702 21.436C1005.13 24.2562 1016.6 27.5169 1025.03 31.0232C1033.44 34.5363 1038.81 38.2465 1039.31 42.4677Z" stroke="#D8A45F" stroke-width="1.20801" stroke-miterlimit="10"/>
<path d="M1042.65 38.9788C1044.91 64.5421 1058.09 80.6052 1050.74 109.674C1043.4 138.667 1015.64 170.294 987.636 193.361C959.938 216.635 931.972 234.19 909.07 248.065C886.125 261.969 867.594 272.537 851.213 281.169C834.864 289.734 821.18 296.012 804.431 299.047C787.754 302.04 768.495 301.619 746.524 296.815C724.636 292.025 700.189 282.815 676.551 269.295C652.854 255.791 630.395 237.902 612.608 217.638C594.979 197.372 585.344 182.109 576.494 166.295C569.279 153.049 562.875 140.477 556.627 123.969C550.389 107.448 546.238 88.2422 544.862 72.1975C543.503 56.0863 543.479 42.0441 543.542 30.0562C543.647 18.0639 543.958 8.0319 545.585 -0.787528C547.224 -9.5921 550.374 -17.1879 556.168 -24.3985C562.001 -31.5941 571.358 -39.0241 579.223 -46.8516C587.024 -54.7631 593.857 -61.4866 603.62 -70.9809C610.944 -78.2177 621.436 -86.4066 633.033 -93.0002C644.604 -99.6629 656.144 -100.664 668.697 -100.895C681.2 -101.336 694.349 -101.708 707.987 -107.598C721.677 -113.404 735.738 -125.948 751.704 -142.018C767.483 -157.532 787.424 -178.238 806.092 -175.098C824.642 -171.979 837.969 -146.309 845.924 -116.866C854.171 -87.2557 857.492 -55.8889 864.596 -35.3808C871.694 -14.7817 886.701 -7.15101 902.718 -1.9491C918.576 3.21939 935.517 5.70319 951.667 8.2633C967.794 10.8136 983.067 13.3998 996.245 16.5607C1009.41 19.7348 1020.6 23.339 1028.8 27.0899C1036.98 30.8485 1042.2 34.72 1042.65 38.9788Z" stroke="#D8A45F" stroke-width="1.21837" stroke-miterlimit="10"/>
<path d="M1045.98 35.4963C1047.82 61.6068 1062.03 76.924 1056.96 104.822C1051.94 132.645 1025.68 165.316 997.993 189.024C970.668 212.909 942.289 231.128 918.787 245.407C895.251 259.727 875.913 270.486 858.746 279.138C841.605 287.729 827.094 294.021 809.941 297.092C792.867 300.124 773.366 299.784 751.251 295.154C729.206 290.528 704.672 281.558 680.926 268.294C657.125 255.046 634.561 237.451 616.648 217.325C598.88 197.199 589.044 181.668 580.295 166.231C573.18 153.34 566.865 141.273 560.706 125.193C554.558 109.101 550.272 89.8607 548.948 73.7812C547.655 57.6431 547.779 43.5154 548.022 31.447C548.299 19.3721 548.817 9.25691 550.617 0.381798C552.403 -8.49416 555.67 -16.1377 561.447 -23.3986C567.234 -30.6533 576.056 -38.0295 583.527 -45.7836C590.905 -53.639 597.494 -60.3617 607.193 -70.2732C614.523 -77.7827 625.326 -86.7559 636.46 -93.3774C647.612 -100.01 658.958 -100.826 671.307 -101.515C683.612 -102.422 696.594 -103.692 710.098 -110.896C723.656 -117.985 737.621 -132.321 753.67 -149.746C769.515 -166.625 789.93 -187.568 808.547 -183.247C827.044 -178.969 840.193 -151.948 848.186 -121.853C856.468 -91.5699 860.025 -60.1101 867.799 -40.071C875.562 -19.9397 891.541 -13.2408 907.815 -8.16972C923.923 -3.13251 940.923 -0.549538 956.961 2.26123C972.982 5.05828 988.007 8.04169 1000.9 11.5838C1013.78 15.1402 1024.67 19.116 1032.63 23.1252C1040.58 27.1549 1045.59 31.1763 1045.98 35.4963Z" stroke="#D8A45F" stroke-width="1.22842" stroke-miterlimit="10"/>
<path d="M1049.32 32.0133C1050.63 58.7542 1065.74 73.3944 1062.84 100.151C1059.99 126.8 1035.57 160.218 1008.33 184.542C981.495 209.01 952.757 227.889 928.704 242.596C904.59 257.344 884.494 268.343 866.54 277.051C848.618 285.71 833.196 292.002 815.611 295.117C798.096 298.192 778.351 297.947 756.054 293.476C733.823 289.004 709.205 280.279 685.356 267.282C661.459 254.3 638.791 237.004 620.757 217.044C602.838 197.078 592.793 181.245 584.139 166.178C577.11 153.627 570.873 142.058 564.803 126.428C558.716 110.777 554.3 91.5527 553.025 75.4465C551.766 59.2809 552.047 45.0811 552.453 32.9324C552.911 20.7813 553.626 10.5836 555.568 1.63827C557.518 -7.30237 560.877 -14.9981 566.616 -22.3273C572.365 -29.6475 580.645 -36.9818 587.731 -44.6901C594.713 -52.513 601.075 -59.2577 610.751 -69.5997C618.09 -77.4081 629.092 -87.0966 639.812 -93.7288C650.599 -100.319 661.714 -101.036 673.872 -102.241C685.982 -103.678 698.802 -105.929 712.171 -114.512C725.588 -122.959 739.465 -139.151 755.607 -157.9C771.523 -176.137 792.424 -197.013 810.984 -191.475C829.418 -186.008 842.446 -157.647 850.491 -126.971C858.839 -96.0731 862.669 -64.5899 871.206 -45.0957C879.713 -25.5175 896.59 -19.6958 913.114 -14.7307C929.458 -9.80029 946.499 -7.06992 962.415 -3.97116C978.314 -0.881827 993.068 2.5326 1005.67 6.48612C1018.26 10.4594 1028.82 14.8236 1036.52 19.1127C1044.21 23.4322 1049.03 27.64 1049.32 32.0133Z" stroke="#D8A45F" stroke-width="1.23846" stroke-miterlimit="10"/>
</g>
<defs>
<clipPath id="clip0_6818_85825">
<rect width="700" height="801.048" fill="white" transform="translate(0 353.219) rotate(-60)"/>
</clipPath>
</defs>
</svg>
