<svg width="529" height="364" viewBox="0 0 529 364" fill="none" xmlns="http://www.w3.org/2000/svg">
<g clip-path="url(#clip0_6836_78497)">
<path d="M699.295 191.673C678.014 196.442 655.935 204.785 639.715 215.8C623.322 226.682 612.428 240.793 605.396 256.276C598.264 271.61 594.56 287.915 590.848 301.733C587.219 315.635 586.977 326.602 585.706 334.097C584.547 341.736 582.66 345.91 578.969 348.039C575.309 350.235 569.844 350.608 562.753 351.821C555.659 353.133 547.1 355.376 537.024 362.286C526.85 369.089 515.586 382.534 498.812 396.325C482.477 409.825 457.114 420.408 424.765 388.142C399.66 362.932 377.595 324.651 360.365 291.192C342.855 257.484 329.258 228.395 314.703 208.649C300.214 188.872 282.843 178.795 268.536 172.696C254.328 166.697 242.441 163.615 233.023 158.323C223.591 153.112 216.648 145.686 212.181 134.726C207.663 123.827 205.683 109.514 205.264 93.7392C204.822 77.8786 205.7 60.9749 206.154 44.5801C206.865 28.0362 206.002 11.6173 209.818 -5.11998C213.616 -21.8316 226.74 -37.2872 240.847 -56.3843C253.642 -74.1185 273.13 -90.7252 300.474 -102.531C327.696 -114.39 362.233 -121.061 397.991 -121.35C433.917 -121.713 471.183 -113.559 501.778 -103.138C532.53 -92.6912 558.086 -80.3723 580.763 -67.3234C603.444 -54.2826 624.411 -39.785 640.556 -23.0072C656.763 -6.23683 668.33 11.8711 676.824 29.3064C685.364 46.7544 690.968 63.569 696.208 78.4841C701.423 93.4174 704.414 106.432 705.434 117.317C706.431 128.198 706.218 137.388 706.407 145.518C706.588 153.638 707.172 160.681 707.952 166.902C708.719 173.12 709.766 178.484 708.908 182.908C708.068 187.32 705.095 190.385 699.295 191.673Z" stroke="#88CCF2" stroke-width="0.619388" stroke-miterlimit="10"/>
<path d="M703.955 192.498C682.621 197.291 660.639 205.366 644.165 216.238C627.549 227.003 616.404 240.934 609.189 256.292C601.863 271.493 598.02 287.725 594.206 301.538C590.455 315.406 589.405 326.468 587.895 334.024C586.474 341.69 584.411 345.922 580.566 347.711C576.751 349.558 571.158 349.388 563.907 349.798C556.654 350.305 547.888 351.457 537.637 356.968C527.285 362.392 515.853 373.968 499.263 386.459C483.102 398.61 458.429 409.964 426.749 378.943C402.262 354.764 380.664 317.539 363.841 284.67C346.749 251.57 333.556 222.685 319.519 202.814C305.549 182.898 288.615 172.509 274.37 166.347C260.209 160.274 248.356 157.063 238.989 151.752C229.592 146.512 222.703 139.167 218.286 128.403C213.82 117.697 211.879 103.711 211.482 88.3008C211.068 72.8005 211.935 56.2857 212.517 40.1785C213.355 23.9404 212.787 7.67001 217.398 -8.71714C222.004 -25.0891 235.049 -40.3371 249.073 -59.2465C261.824 -76.8244 281.365 -93.1213 308.676 -104.493C335.864 -115.922 370.245 -122.052 405.62 -121.867C441.176 -121.74 477.701 -112.586 507.455 -102.056C537.372 -91.4891 562.28 -79.2978 584.612 -66.2991C606.952 -53.307 627.694 -38.6456 643.604 -21.8875C659.569 -5.13735 671.058 12.8237 679.622 30.0678C688.226 47.3241 694.027 63.9044 699.491 78.5826C704.928 93.2677 707.615 106.295 708.559 117.273C709.491 128.248 709.272 137.612 709.542 145.891C709.804 154.158 710.579 161.341 711.603 167.649C712.606 173.955 713.978 179.453 713.296 183.829C712.602 188.17 709.715 191.212 703.955 192.498Z" stroke="#88CCF2" stroke-width="0.629434" stroke-miterlimit="10"/>
<path d="M708.682 193.281C687.243 198.136 665.407 205.927 648.669 216.665C631.829 227.318 620.451 241.085 613.049 256.317C605.536 271.395 601.566 287.551 597.639 301.36C593.764 315.192 591.94 326.337 590.18 333.956C588.491 341.659 586.233 345.873 582.206 347.473C578.226 349.149 572.506 348.344 565.094 347.998C557.683 347.75 548.741 347.887 538.313 352.053C527.797 356.16 516.205 365.946 499.775 377.094C483.76 387.854 459.751 399.723 428.73 369.934C404.844 346.768 383.695 310.597 367.274 278.351C350.581 245.884 337.768 217.244 324.227 197.282C310.757 177.278 294.322 166.477 280.14 160.225C266.052 154.056 254.235 150.696 244.92 145.332C235.572 140.044 228.736 132.747 224.37 122.176C219.951 111.653 218.055 97.9907 217.673 82.9367C217.29 67.7983 218.152 51.6686 218.868 35.8494C219.839 19.916 219.619 3.8282 225.025 -12.1906C230.457 -28.1796 243.226 -43.2894 257.202 -62.016C269.941 -79.4343 289.554 -95.4217 316.835 -106.358C343.952 -117.338 377.42 -123.557 413.281 -122.232C449.212 -120.938 483.952 -111.561 512.974 -100.957C542.086 -90.3076 566.373 -78.2647 588.393 -65.3156C610.431 -52.3712 630.941 -37.5352 646.622 -20.8261C662.363 -4.12166 673.805 13.6889 682.432 30.723C691.109 47.7783 697.107 64.1173 702.796 78.5559C708.469 92.9963 710.793 106.094 711.669 117.177C712.539 128.253 712.326 137.802 712.693 146.232C713.059 154.657 714.018 161.957 715.312 168.355C716.579 174.749 718.276 180.336 717.757 184.658C717.225 188.962 714.444 191.997 708.682 193.281Z" stroke="#88CCF2" stroke-width="0.63948" stroke-miterlimit="10"/>
<path d="M713.477 194.018C691.88 198.978 670.21 206.462 653.217 217.078C636.153 227.627 624.543 241.232 616.962 256.346C609.271 271.3 605.164 287.386 601.142 301.196C597.144 314.997 594.605 326.211 592.561 333.89C590.561 341.624 588.118 345.843 583.897 347.263C579.718 348.751 573.88 347.461 566.305 346.404C558.74 345.448 549.617 344.625 539.034 347.523C528.361 350.38 516.613 358.448 500.333 368.229C484.44 377.581 461.051 389.655 430.696 361.113C407.407 338.927 386.697 303.836 370.655 272.226C354.34 240.404 341.897 212.047 328.82 192.034C315.816 171.969 299.951 160.715 285.835 154.344C271.803 148.045 260.049 144.514 250.79 139.084C241.495 133.729 234.724 126.477 230.404 116.077C226.045 105.734 224.17 92.3739 223.818 77.6819C223.464 62.9011 224.325 47.151 225.2 31.6268C226.32 16.0006 226.477 0.11264 232.679 -15.5081C238.935 -31.0905 251.271 -46.1279 265.221 -64.6704C277.981 -81.9242 297.675 -97.5959 324.934 -108.092C352.029 -118.65 385.61 -124.568 420.946 -122.314C456.352 -120.105 490.086 -110.449 518.321 -99.8134C546.642 -89.1247 570.354 -77.2471 592.091 -64.3418C613.851 -51.4379 634.119 -36.4449 649.593 -19.7931C665.129 -3.14611 676.52 14.4871 685.239 31.3128C694.001 48.1567 700.207 64.2493 706.103 78.4486C711.998 92.6435 713.931 105.871 714.755 117.076C715.581 128.272 715.373 138.001 715.853 146.58C716.33 155.153 717.508 162.575 719.076 169.052C720.614 175.522 722.624 181.138 722.288 185.425C721.952 189.693 719.246 192.716 713.477 194.018Z" stroke="#88CCF2" stroke-width="0.64984" stroke-miterlimit="10"/>
<path d="M718.37 194.699C696.572 199.811 675.077 206.968 657.83 217.477C640.53 227.927 628.7 241.378 620.95 256.385C613.073 271.22 608.85 287.243 604.735 301.046C600.618 314.818 597.413 326.09 595.062 333.828C592.754 341.605 590.08 345.829 585.658 347.096C581.281 348.43 575.291 346.719 567.556 345.004C559.833 343.38 550.541 341.662 539.814 343.353C528.994 345.023 517.103 351.454 500.954 359.853C485.168 367.788 462.374 379.832 432.668 352.487C409.946 331.26 389.686 297.248 374.007 266.289C358.062 235.138 345.954 207.086 333.33 187.056C320.759 166.962 305.506 155.208 291.476 148.711C277.517 142.268 265.826 138.545 256.63 133.033C247.392 127.591 240.685 120.365 236.42 110.135C232.108 99.9489 230.28 86.9025 229.95 72.5563C229.622 58.1245 230.501 42.751 231.545 27.5197C232.838 12.2076 233.378 -3.48156 240.392 -18.6626C247.487 -33.7965 259.218 -48.8534 273.182 -67.2066C285.989 -84.2916 305.792 -99.6361 333.015 -109.7C360.08 -119.84 393.78 -125.269 428.521 -122.18C463.337 -119.138 496.048 -109.297 523.537 -98.6494C551.081 -87.9595 574.261 -76.2588 595.751 -63.3907C617.258 -50.5316 637.279 -35.3762 652.563 -18.8019C667.93 -2.22693 679.269 15.209 688.083 31.8183C696.919 48.4472 703.702 64.3691 709.453 78.2488C715.413 92.6193 717.073 105.609 717.858 116.959C718.64 128.286 718.458 138.196 719.066 146.918C719.663 155.636 721.073 163.17 722.944 169.717C724.768 176.258 727.119 181.868 726.945 186.113C726.783 190.349 724.139 193.364 718.37 194.699Z" stroke="#88CCF2" stroke-width="0.659886" stroke-miterlimit="10"/>
<path d="M723.355 195.315C701.314 200.635 679.992 207.447 662.491 217.856C644.966 228.219 632.909 241.518 624.99 256.415C616.951 271.142 612.593 287.092 608.386 300.896C604.166 314.652 600.354 325.976 597.668 333.756C595.018 341.567 592.111 345.816 587.473 346.956C582.886 348.164 576.719 346.101 568.831 343.765C560.954 341.523 551.517 338.963 540.636 339.507C529.687 340.051 517.657 344.927 501.621 351.938C485.938 358.47 463.698 370.225 434.634 344.035C412.475 323.741 392.647 290.797 377.32 260.51C361.729 230.038 349.943 202.321 337.742 182.31C325.581 162.217 310.989 149.957 297.049 143.312C283.177 136.717 271.544 132.781 262.419 127.176C253.258 121.64 246.61 114.419 242.394 104.348C238.128 94.3081 236.35 81.5656 236.049 67.563C235.756 53.4736 236.652 38.4655 237.881 23.5293C239.348 8.52454 240.325 -6.93025 248.135 -21.6557C256.059 -36.3221 267.055 -51.4765 281.061 -69.6387C293.937 -86.5536 313.873 -101.557 341.049 -111.187C368.085 -120.902 401.886 -125.689 435.965 -121.854C470.13 -118.068 501.832 -108.099 528.605 -97.4738C555.42 -86.8094 578.099 -75.2892 599.364 -62.4642C620.652 -49.6407 640.417 -34.3362 655.519 -17.8601C670.718 -1.37809 682.031 15.8509 690.949 32.2372C699.851 48.6323 707.07 63.4905 712.766 78.049C718.434 92.5988 720.213 105.334 720.964 116.817C721.715 128.281 721.572 138.374 722.324 147.236C723.05 156.087 724.737 163.738 726.906 170.341C729.055 176.947 731.707 182.494 731.708 186.711C731.708 190.905 729.148 193.933 723.355 195.315Z" stroke="#88CCF2" stroke-width="0.669931" stroke-miterlimit="10"/>
<path d="M728.446 195.857C706.109 201.419 684.976 207.905 667.205 218.216C649.429 228.486 637.167 241.651 629.08 256.442C620.862 271.054 616.405 286.947 612.107 300.752C607.788 314.498 603.437 325.859 600.399 333.689C597.382 341.532 594.221 345.808 589.353 346.843C584.537 347.945 578.182 345.599 570.137 342.694C562.102 339.872 552.499 336.513 541.497 335.979C530.416 335.451 518.254 338.843 502.34 344.481C486.747 349.627 465.031 360.844 436.601 335.773C414.982 316.372 395.585 284.5 380.596 254.89C365.352 225.111 353.865 197.755 342.068 177.785C330.305 157.73 316.409 144.962 302.554 138.151C288.775 131.389 277.213 127.237 268.155 121.521C259.061 115.876 252.477 108.656 248.326 98.7305C244.116 88.8322 242.368 76.3756 242.104 62.7057C241.852 48.9521 242.765 34.2938 244.207 19.6588C245.873 4.96402 247.275 -10.2416 255.905 -24.486C264.41 -38.2005 274.825 -53.9918 288.867 -71.9661C301.835 -88.7012 321.894 -103.372 349.028 -112.559C376.033 -121.85 409.894 -125.848 443.261 -121.359C476.721 -116.921 507.446 -106.863 533.518 -96.2984C559.611 -85.6999 581.847 -74.3624 602.915 -61.5647C624.015 -48.7666 643.491 -33.3387 658.443 -16.9743C673.483 -0.605924 684.808 16.4199 693.821 32.5601C702.82 48.7247 710.425 63.3669 716.049 77.7678C721.627 92.1646 723.33 105.012 724.065 116.642C724.798 128.251 724.706 138.525 725.614 147.518C726.511 156.507 728.451 164.247 730.954 170.901C733.434 177.56 736.403 183.011 736.575 187.196C736.771 191.376 734.277 194.421 728.446 195.857Z" stroke="#88CCF2" stroke-width="0.680291" stroke-miterlimit="10"/>
<path d="M733.664 196.315C710.992 202.181 690.02 208.324 671.991 218.556C653.987 228.751 641.489 241.77 633.243 256.461C624.866 270.97 620.287 286.8 615.906 300.604C611.482 314.337 606.708 325.758 603.276 333.619C599.866 341.488 596.413 345.787 591.316 346.742C586.254 347.756 579.693 345.2 571.48 341.757C563.283 338.394 553.537 334.297 542.402 332.733C531.198 331.187 518.923 333.177 503.111 337.453C487.592 341.235 466.393 351.695 438.579 327.691C417.486 309.148 398.512 278.335 383.849 249.414C368.953 220.347 357.742 193.364 346.325 173.465C334.92 153.468 321.763 140.206 308.006 133.231C294.314 126.294 282.828 121.914 273.855 116.084C264.831 110.316 258.333 103.099 254.226 93.3039C250.086 83.5476 248.369 71.3587 248.141 58.0102C247.935 44.5843 248.883 30.2657 250.543 15.9264C252.386 1.55175 255.171 -13.3557 263.598 -27.0975C272.124 -40.7672 282.474 -56.4259 296.627 -74.1841C309.714 -90.7305 329.912 -105.057 356.98 -113.811C383.945 -122.674 417.803 -125.776 450.43 -120.706C483.148 -115.7 512.917 -105.607 538.316 -95.1259C563.733 -84.6059 585.547 -73.4723 606.453 -60.6844C627.383 -47.9049 646.571 -32.3747 661.38 -16.1398C676.275 0.0974506 687.611 16.8975 696.739 32.7956C705.85 48.7279 713.811 63.1552 719.342 77.4155C724.838 91.685 726.486 104.671 727.206 116.447C727.936 128.211 727.904 138.658 728.989 147.778C730.054 156.89 732.285 164.71 735.135 171.409C737.977 178.114 741.243 183.425 741.588 187.587C741.948 191.735 739.531 194.805 733.664 196.315Z" stroke="#88CCF2" stroke-width="0.690337" stroke-miterlimit="10"/>
<path d="M738.998 196.679C715.961 202.902 695.125 208.715 676.826 218.874C658.551 228.986 645.873 241.89 637.446 256.468C628.896 270.875 624.225 286.644 619.762 300.452C615.252 314.179 610.131 325.66 606.283 333.542C602.447 341.43 598.711 345.765 593.345 346.647C588.027 347.59 581.227 344.882 572.846 340.946C564.466 337.076 554.588 332.286 543.332 329.749C532.016 327.243 519.637 327.901 503.919 330.839C488.473 333.289 467.755 342.777 440.55 319.791C419.968 302.072 401.402 272.296 387.066 244.071C372.486 215.705 361.555 189.131 350.498 169.331C339.438 149.421 327.036 135.684 313.383 128.541C299.786 121.427 288.391 116.816 279.492 110.863C270.548 104.97 264.116 97.7333 260.078 88.069C255.997 78.4372 254.313 66.5105 254.132 53.4757C253.978 40.3623 254.978 26.3815 256.873 12.3376C258.878 -1.73336 262.683 -15.9466 271.151 -29.61C279.671 -43.2112 290.031 -58.7511 304.315 -76.2891C317.526 -92.648 337.865 -106.617 364.874 -114.934C391.785 -123.372 425.584 -125.474 457.423 -119.914C489.379 -114.409 518.195 -104.34 542.97 -93.9587C567.731 -83.5526 589.18 -72.6041 609.944 -59.8262C630.73 -47.0496 649.605 -31.4539 664.298 -15.3624C679.076 0.731455 690.413 17.2854 699.668 32.9423C708.891 48.6379 717.157 62.8388 722.614 76.9948C728.032 91.1611 729.623 104.296 730.35 116.229C731.093 128.152 731.141 138.768 732.412 147.999C733.675 157.233 736.191 165.105 739.421 171.842C742.622 178.573 746.194 183.72 746.72 187.863C747.258 191.979 744.923 195.094 738.998 196.679Z" stroke="#88CCF2" stroke-width="0.700383" stroke-miterlimit="10"/>
<path d="M744.47 196.936C721.035 203.572 700.318 209.072 681.729 219.162C663.182 229.199 650.288 241.975 641.707 256.462C632.994 270.767 628.223 286.478 623.682 300.289C619.098 314.023 613.754 325.579 609.446 333.467C605.155 341.364 601.098 345.728 595.462 346.556C589.858 347.434 582.812 344.639 574.253 340.245C565.711 335.915 555.676 330.461 544.298 327.006C532.875 323.591 520.393 322.985 504.775 324.614C489.397 325.777 469.143 334.086 442.539 312.067C422.453 295.127 404.3 266.381 390.268 238.849C376.005 211.196 365.321 185.035 354.617 165.356C343.891 145.559 332.26 131.38 318.713 124.066C305.211 116.774 293.899 111.925 285.088 105.845C276.239 99.8301 269.865 92.5614 265.892 83.0177C261.884 73.5042 260.228 61.8253 260.102 49.0905C259.999 36.2784 261.048 22.6128 263.206 8.87307C265.43 -4.8866 270.068 -18.4704 278.595 -32.0529C287.129 -45.5773 297.523 -60.9999 311.964 -78.3019C325.331 -94.4546 345.813 -108.062 372.721 -115.959C399.571 -123.965 433.227 -124.997 464.263 -119.019C495.425 -113.095 523.33 -103.085 547.506 -92.8279C571.649 -82.5504 592.766 -71.7976 613.417 -59.0081C634.079 -46.2235 652.643 -30.5903 667.216 -14.6691C681.885 1.26774 693.245 17.5628 702.621 32.9668C711.956 48.4118 720.492 62.4024 725.878 76.474C731.227 90.5645 732.77 103.853 733.52 115.947C734.274 128.026 734.42 138.804 735.905 148.144C737.362 157.474 740.217 165.412 743.825 172.161C747.413 178.905 751.277 183.858 751.977 187.989C752.719 192.104 750.436 195.248 744.47 196.936Z" stroke="#88CCF2" stroke-width="0.710743" stroke-miterlimit="10"/>
<path d="M750.086 197.086C726.221 204.184 705.592 209.406 686.708 219.43C667.874 229.397 654.769 242.05 646.026 256.44C637.154 270.646 632.282 286.298 627.669 300.114C623.005 313.85 617.575 325.509 612.777 333.392C607.995 341.285 603.605 345.681 597.672 346.464C591.785 347.3 584.447 344.463 575.701 339.645C566.966 334.884 556.775 328.809 545.294 324.489C533.769 320.217 521.184 318.406 505.673 318.771C490.358 318.687 470.574 325.661 444.54 304.533C424.923 288.325 407.177 260.589 393.448 233.75C379.499 206.808 369.064 181.088 358.676 161.541C348.268 141.884 337.418 127.293 323.987 119.81C310.577 112.34 299.373 107.266 290.643 101.052C281.873 94.9009 275.586 87.6065 271.673 78.1733C267.713 68.757 266.115 57.3291 266.045 44.8804C266.004 32.3575 267.138 19.0092 269.559 5.56231C272.019 -7.89064 277.363 -20.8962 285.946 -34.3994C294.506 -47.8505 304.975 -63.1391 319.574 -80.201C333.09 -96.1521 353.724 -109.389 380.526 -116.858C407.285 -124.441 440.719 -124.343 470.944 -118.014C501.298 -111.738 528.334 -101.827 551.937 -91.7125C575.501 -81.5808 596.315 -71.0136 616.881 -58.201C637.448 -45.3912 655.664 -29.7774 670.147 -14.0319C684.715 1.72302 696.131 17.7684 705.621 32.9077C715.081 48.1029 723.829 61.8826 729.161 75.8975C734.459 89.9398 735.966 103.396 736.742 115.64C737.532 127.877 737.792 138.811 739.501 148.244C741.191 157.673 744.384 165.643 748.389 172.392C752.385 179.14 756.52 183.876 757.401 187.995C758.317 192.091 756.126 195.295 750.086 197.086Z" stroke="#88CCF2" stroke-width="0.720789" stroke-miterlimit="10"/>
<path d="M755.843 197.109C731.537 204.739 710.952 209.703 691.752 219.671C672.614 229.575 659.293 242.1 650.385 256.398C641.349 270.506 636.372 286.094 631.705 299.923C626.995 313.675 621.595 325.445 616.272 333.316C610.97 341.199 606.228 345.627 599.972 346.366C593.768 347.155 586.121 344.332 577.183 339.124C568.252 333.968 557.898 327.308 546.316 322.173C534.671 317.077 522.031 314.151 506.605 313.275C491.36 311.998 472.024 317.473 446.55 297.176C427.408 281.666 410.051 254.908 396.605 228.759C382.945 202.516 372.742 177.242 362.674 157.861C352.562 138.357 342.526 123.406 329.203 115.754C315.895 108.114 304.779 102.805 296.141 96.4626C287.458 90.1805 281.252 82.853 277.402 73.5178C273.514 64.2042 271.968 53.0059 271.95 40.8304C271.972 28.5869 273.192 15.5307 275.899 2.39072C278.615 -10.7585 284.524 -23.2604 293.187 -36.6702C301.816 -50.0271 312.365 -65.1901 327.132 -82.0028C340.831 -97.7319 361.582 -110.605 388.262 -117.65C414.925 -124.811 448.042 -123.54 477.445 -116.936C506.979 -110.378 533.174 -100.598 556.25 -90.6387C579.272 -80.6675 599.822 -70.2891 620.329 -57.4309C640.837 -44.5684 658.658 -29.0416 673.073 -13.4871C687.554 2.07271 699.011 17.8406 708.634 32.7235C718.211 47.6599 727.161 61.2477 732.436 75.2226C737.67 89.2246 739.172 102.866 739.993 115.263C740.83 127.658 741.212 138.731 743.175 148.246C745.094 157.756 748.536 166.054 753.118 172.408C757.663 178.762 761.879 183.723 762.953 187.834C764.06 191.931 761.941 195.192 755.843 197.109Z" stroke="#88CCF2" stroke-width="0.730834" stroke-miterlimit="10"/>
<path d="M761.753 196.993C736.951 205.257 715.323 210.068 696.804 219.879C678.317 229.68 663.853 242.144 654.803 256.33C645.598 270.34 640.531 285.866 635.804 299.704C631.032 313.464 625.854 325.395 619.955 333.233C614.102 341.099 608.963 345.541 602.382 346.248C595.838 346.997 587.871 344.232 578.719 338.668C569.565 333.144 559.062 325.945 547.369 320.035C535.629 314.175 522.918 310.185 507.578 308.111C492.389 305.682 473.507 309.53 448.585 290.009C429.876 275.136 412.91 249.333 399.755 223.874C386.386 198.332 376.418 173.524 366.636 154.315C356.833 135.029 346.831 120.978 334.317 112.006C321.83 103.101 310.156 98.5827 301.6 92.0873C293.007 85.6728 286.878 78.3063 283.102 69.0684C279.276 59.8415 277.775 48.8611 277.839 36.9535C277.941 24.9779 279.249 12.2082 282.258 -0.630933C285.255 -13.4764 291.613 -25.5378 300.36 -38.8483C309.057 -52.1154 319.712 -67.1369 334.661 -83.6926C348.532 -99.2032 369.403 -111.695 395.949 -118.321C422.493 -125.061 455.201 -122.598 483.782 -115.776C512.514 -108.989 537.901 -99.374 560.469 -89.589C582.971 -79.7911 603.283 -69.7167 623.785 -56.6549C644.242 -43.6042 661.649 -28.3525 676.015 -13.0078C690.43 2.3512 701.936 17.8281 711.69 32.4529C721.393 47.1282 730.503 60.5373 735.732 74.4925C740.932 88.4784 742.42 102.301 743.301 114.851C744.21 127.404 744.732 138.605 746.954 148.186C749.128 157.764 753.066 166.03 757.99 172.287C762.873 178.547 767.397 183.439 768.661 187.54C769.951 191.616 767.925 194.949 761.753 196.993Z" stroke="#88CCF2" stroke-width="0.741194" stroke-miterlimit="10"/>
<path d="M767.812 196.734C742.527 205.658 720.562 210.576 701.857 220.095C683.148 229.582 668.474 242.146 659.265 256.244C649.88 270.151 644.735 285.624 639.947 299.462C635.161 313.258 630.465 325.159 623.884 333.122C617.387 341.149 611.849 345.459 604.894 346.123C598.004 346.85 589.832 343.706 580.309 338.226C570.807 332.809 560.248 324.726 548.437 318.066C536.597 311.481 523.812 306.477 508.572 303.257C493.424 299.797 475.122 300.504 450.634 282.951C432.211 269.668 415.715 243.854 402.876 219.084C389.791 194.231 380.032 169.889 370.538 150.872C361.023 131.784 351.365 117.664 339.314 108.463C327.289 99.3163 315.474 94.5214 307.004 87.9018C298.508 81.3581 292.463 73.953 288.752 64.8033C285 55.6668 283.554 44.8922 283.692 33.2337C283.872 21.5131 285.304 9.02515 288.616 -3.51166C291.913 -16.0536 298.591 -27.7527 307.45 -40.9552C316.23 -54.123 327.026 -68.9912 342.149 -85.2903C356.205 -100.563 377.18 -112.683 403.563 -118.9C429.965 -125.218 462.162 -121.564 489.938 -114.579C517.857 -107.627 542.471 -98.2088 564.582 -88.6003C586.633 -78.9827 606.965 -68.9916 627.213 -55.9168C647.413 -42.8548 664.642 -27.7601 678.95 -12.6341C693.302 2.49607 704.878 17.6874 714.759 32.0485C724.588 46.4669 733.821 59.6963 739.022 73.6541C744.187 87.6379 745.682 101.649 746.643 114.344C747.621 127.041 748.315 138.364 750.819 147.991C753.268 157.619 757.706 165.804 762.978 171.969C768.211 178.136 773.025 182.946 774.496 187.054C775.991 191.132 774.049 194.539 767.812 196.734Z" stroke="#88CCF2" stroke-width="0.75124" stroke-miterlimit="10"/>
<path d="M774.03 196.32C748.257 205.963 725.917 211.048 706.986 220.317C688.035 229.552 673.147 242.129 663.78 256.137C654.228 269.95 648.983 285.351 644.142 299.199C639.283 312.989 634.563 324.956 627.908 332.992C621.305 341.063 614.847 345.349 607.53 345.993C600.262 346.69 591.782 343.484 581.981 337.774C572.206 332.127 561.467 323.604 549.538 316.256C537.588 308.983 524.747 303.034 509.604 298.71C494.544 294.18 476.562 293.481 452.704 276.129C434.816 263.049 418.583 238.518 405.991 214.406C393.188 190.234 383.626 166.36 374.406 147.552C365.152 128.666 355.845 114.51 344.23 105.1C332.655 95.7381 320.76 90.6752 312.368 83.931C303.953 77.2529 298 69.814 294.366 60.7449C290.704 51.6924 289.293 41.1084 289.522 29.6918C289.8 18.2232 291.351 5.99976 294.988 -6.23344C298.605 -18.4749 305.531 -29.868 314.476 -42.9696C323.361 -56.0299 334.3 -70.7503 349.605 -86.774C362.764 -100.644 381.636 -111.74 405.167 -117.908C428.697 -124.162 457.556 -122.04 483.224 -116.37C509.005 -110.732 532.362 -102.471 553.269 -94.0615C574.162 -85.6386 593.032 -76.9336 611.873 -66.4581C630.751 -55.9832 649.125 -42.8915 664.204 -29.404C679.373 -15.9014 692.031 -1.93064 702.858 11.5955C713.688 25.1275 722.742 38.2645 730.803 50.5853C738.86 62.9001 744.243 76.0348 746.845 88.8943C749.464 101.756 750.014 114.196 751.042 125.225C752.056 136.251 753.702 145.908 757.019 154.113C760.282 162.318 765.665 168.975 770.661 174.19C775.634 179.414 779.769 183.643 780.822 187.332C781.902 191.004 779.836 194.144 774.03 196.32Z" stroke="#88CCF2" stroke-width="0.761286" stroke-miterlimit="10"/>
<path d="M780.408 195.74C754.138 206.162 731.394 211.463 712.205 220.532C692.996 229.568 677.894 242.095 668.345 256.004C658.605 269.716 653.279 285.056 648.386 298.906C643.479 312.697 638.736 324.73 631.996 332.831C625.289 340.95 617.999 345.22 610.298 345.845C602.629 346.507 593.822 343.246 583.728 337.335C573.658 331.477 562.71 322.568 550.668 314.575C538.601 306.651 525.705 299.804 510.666 294.427C495.689 288.869 478.021 286.802 454.786 269.541C437.419 256.582 421.454 233.282 409.105 209.818C396.568 186.307 387.207 162.915 378.245 144.325C369.242 125.657 360.26 111.478 349.075 101.881C337.928 92.3198 326.001 87.0033 317.695 80.1419C309.384 73.3463 303.517 65.8661 299.948 56.8713C296.353 47.8861 295.022 37.501 295.341 26.3133C295.711 15.0795 297.405 3.12352 301.369 -8.80879C305.318 -20.7462 312.393 -31.9151 321.447 -44.9034C330.447 -57.8541 341.541 -72.4118 357.029 -88.156C370.353 -101.804 389.313 -112.549 412.691 -118.351C436.083 -124.239 464.48 -120.967 489.409 -115.147C514.465 -109.352 537.1 -101.246 557.545 -93.0163C577.951 -84.7802 596.574 -76.2756 615.361 -65.8062C634.17 -55.3452 652.3 -42.257 667.27 -28.9491C682.325 -15.6277 694.969 -1.91512 705.861 11.3477C716.762 24.6265 725.951 37.5044 734.158 49.6595C742.367 61.8049 747.586 75.0043 750.207 87.976C752.856 100.949 753.475 113.545 754.656 124.667C755.839 135.797 757.71 145.483 761.36 153.677C764.961 161.874 770.776 168.335 776.094 173.471C781.375 178.608 785.786 182.79 787.012 186.492C788.251 190.173 786.274 193.41 780.408 195.74Z" stroke="#88CCF2" stroke-width="0.771646" stroke-miterlimit="10"/>
<path d="M786.939 194.978C760.203 206.247 736.983 211.807 717.514 220.733C698.003 229.619 682.705 242.04 672.957 255.842C663.033 269.458 657.603 284.72 652.67 298.576C647.705 312.363 642.953 324.467 636.135 332.634C629.336 340.813 621.302 345.078 613.19 345.679C605.089 346.306 595.947 343.003 585.541 336.897C575.166 330.853 563.974 321.607 551.819 313.012C539.642 304.481 526.692 296.791 511.748 290.403C496.868 283.867 479.488 280.467 456.868 263.206C440.017 250.294 424.307 228.149 412.198 205.323C399.923 182.457 390.762 159.554 382.044 141.188C373.283 122.747 364.617 108.568 353.839 98.8005C343.105 89.062 331.188 83.5085 322.973 76.5357C314.746 69.6186 308.97 62.1002 305.486 53.1794C301.974 44.2682 300.698 34.0523 301.126 23.0906C301.605 12.0827 303.453 0.386326 307.75 -11.2447C312.049 -22.8714 319.179 -33.8963 328.36 -46.7602C337.488 -59.5935 348.748 -73.9796 364.416 -89.4387C377.899 -102.821 396.018 -113.761 420.158 -118.685C444.256 -123.651 471.164 -119.802 495.412 -113.894C519.737 -107.995 541.696 -100.076 561.709 -92.0312C581.676 -83.9832 600.079 -75.6816 618.829 -65.2046C637.595 -54.7321 655.438 -41.7117 670.326 -28.5958C685.276 -15.4734 697.904 -2.04166 708.88 10.9618C719.849 23.9718 729.182 36.6066 737.533 48.6198C745.9 60.6172 750.946 73.8582 753.599 86.95C756.288 100.03 757 112.78 758.35 123.978C759.698 135.185 761.835 144.902 765.823 153.058C769.762 161.216 776.03 167.488 781.652 172.536C787.249 177.59 791.93 181.714 793.333 185.442C794.763 189.15 792.871 192.483 786.939 194.978Z" stroke="#88CCF2" stroke-width="0.781691" stroke-miterlimit="10"/>
<path d="M793.622 194.032C766.429 206.209 742.699 212.075 722.924 220.911C703.094 229.704 687.561 241.953 677.616 255.656C667.491 269.168 661.966 284.356 656.988 298.215C651.987 312.006 647.203 324.161 640.325 332.406C633.445 340.65 624.782 344.932 616.228 345.507C607.679 346.099 598.158 342.745 587.436 336.471C576.736 330.246 565.288 320.729 552.997 311.56C540.694 302.456 527.695 293.972 512.854 286.621C498.063 279.151 480.985 274.475 458.959 257.129C442.627 244.209 427.16 223.136 415.288 200.929C403.279 178.702 394.295 156.271 385.816 138.138C377.297 119.937 368.925 105.769 358.539 95.8505C348.203 85.9573 336.341 80.182 328.215 73.1049C320.084 66.0795 314.405 58.5235 310.993 49.666C307.555 40.8155 306.355 30.7701 306.893 20.0246C307.476 9.23256 309.498 -2.21154 314.137 -13.5365C318.781 -24.8653 325.927 -35.7979 335.224 -48.541C344.484 -61.2468 355.932 -75.4556 371.765 -90.6234C385.416 -103.763 403.844 -114.754 427.706 -118.758C451.536 -122.795 477.701 -118.581 501.245 -112.616C524.872 -106.645 546.175 -98.9453 565.783 -91.0975C585.339 -83.2542 603.561 -75.1407 622.295 -64.6365C641.025 -54.1451 658.586 -41.233 673.382 -28.3337C688.228 -15.4271 700.881 -2.27792 711.925 10.4525C722.971 23.1957 732.44 35.5897 740.941 47.4868C749.451 59.3563 754.344 72.6176 757.042 85.819C759.789 99.0121 760.602 111.894 762.141 123.16C763.67 134.432 766.084 144.152 770.425 152.255C774.706 160.354 781.408 166.427 787.345 171.395C793.248 176.365 798.204 180.438 799.795 184.187C801.409 187.928 799.598 191.353 793.622 194.032Z" stroke="#88CCF2" stroke-width="0.791737" stroke-miterlimit="10"/>
<path d="M800.464 192.888C772.846 206.033 748.581 212.273 728.453 221.061C708.281 229.812 692.505 241.855 682.339 255.445C672.002 268.852 666.379 283.966 661.356 297.821C656.308 311.607 651.532 323.835 644.579 332.142C637.638 340.46 628.45 344.783 619.434 345.323C610.414 345.879 600.494 342.472 589.432 336.041C578.385 329.653 566.651 319.902 554.222 310.199C541.779 300.558 528.748 291.334 513.998 283.065C499.297 274.704 482.504 268.8 461.07 251.307C445.224 238.319 430.038 218.242 418.383 196.632C406.61 175.006 397.825 153.059 389.576 135.174C381.286 117.218 373.192 103.077 363.19 93.025C353.241 82.996 341.479 77.0241 333.434 69.8492C325.403 62.7258 319.794 55.1233 316.475 46.3376C313.123 37.5513 311.994 27.6663 312.652 17.1277C313.36 6.55267 315.55 -4.65627 320.539 -15.6705C325.541 -26.6952 332.632 -37.6156 342.057 -50.2229C351.453 -62.7996 363.082 -76.8246 379.089 -91.6853C392.897 -104.582 411.625 -115.44 435.142 -118.602C458.656 -121.789 484.047 -117.29 506.914 -111.301C529.844 -105.316 550.543 -97.8385 569.782 -90.1999C588.967 -82.5603 607.032 -74.6279 625.775 -64.0823C644.516 -53.534 661.732 -40.8213 676.45 -28.1586C691.222 -15.4829 703.866 -2.64377 715.007 9.82384C726.137 22.3035 735.789 34.4736 744.389 46.2683C753.007 58.0331 757.806 71.3634 760.559 84.6328C763.357 97.888 764.301 110.888 766.04 122.205C767.771 133.529 770.471 143.229 775.172 151.261C779.832 159.295 786.921 165.161 793.169 170.048C799.392 174.934 804.63 178.959 806.395 182.733C808.202 186.491 806.479 190.017 800.464 192.888Z" stroke="#88CCF2" stroke-width="0.802097" stroke-miterlimit="10"/>
<path d="M807.453 191.536C779.431 205.702 754.609 212.374 734.106 221.163C713.571 229.934 697.514 241.724 687.111 255.202C676.554 268.508 670.839 283.543 665.755 297.385C660.652 311.157 655.871 323.444 648.874 331.834C641.877 340.224 632.314 344.625 622.794 345.124C613.261 345.631 602.94 342.184 591.514 335.605C580.123 329.072 568.053 319.117 555.476 308.919C542.892 298.775 529.795 288.836 515.157 279.707C500.559 270.503 484.04 263.427 463.182 245.733C447.819 232.644 432.889 213.446 421.469 192.429C409.949 171.394 401.336 149.921 393.307 132.278C385.231 114.566 377.422 100.477 367.781 90.3031C358.203 80.1515 346.572 74.0089 338.614 66.7464C330.676 59.5315 325.166 51.9026 321.919 43.1732C318.654 34.4512 317.608 24.7161 318.388 14.3747C319.227 4.00586 321.657 -6.97773 326.937 -17.6749C332.153 -28.127 339.302 -39.373 348.847 -51.8381C358.39 -64.2794 370.228 -78.0963 386.371 -92.6647C400.329 -105.312 419.312 -115.884 442.45 -118.276C465.565 -120.71 490.204 -115.975 512.416 -110.002C534.681 -104.031 554.802 -96.8082 573.699 -89.3813C592.536 -81.9497 610.451 -74.2963 629.271 -63.5647C648.055 -52.8394 664.85 -40.5218 679.522 -28.1066C694.224 -15.6785 706.886 -3.15894 718.121 9.04431C729.337 21.2619 739.233 33.1667 747.842 44.9015C756.478 56.6154 761.274 70.0454 764.065 83.3691C766.913 96.6821 768.01 109.681 770.025 121.052C772.046 132.433 774.997 142.083 780.065 150.019C785.084 157.952 792.56 163.649 799.121 168.452C805.661 173.261 811.157 177.228 813.125 181.04C815.119 184.826 813.508 188.471 807.453 191.536Z" stroke="#88CCF2" stroke-width="0.812143" stroke-miterlimit="10"/>
<path d="M814.583 189.968C786.211 205.218 760.791 212.372 739.889 221.22C718.953 230.049 702.604 241.573 691.945 254.936C681.162 268.144 675.32 283.084 670.194 296.916C665.034 310.67 660.255 323.016 653.215 331.486C646.169 339.954 636.392 344.47 626.334 344.919C616.272 345.382 605.5 341.877 593.706 335.162C581.928 328.482 569.508 318.368 556.776 307.703C544.026 297.087 530.887 286.493 516.346 276.542C501.841 266.537 485.61 258.354 465.31 240.41C450.407 227.181 435.766 208.784 424.559 188.325C413.283 167.855 404.846 146.849 397.027 129.459C389.167 112.005 381.607 97.9578 372.33 87.6865C363.111 77.4341 351.636 71.1279 343.774 63.7938C335.911 56.492 330.5 48.8367 327.344 40.1704C324.167 31.5071 323.195 21.9157 324.117 11.7727C325.076 1.60377 327.977 -9.11527 333.269 -19.5051C338.589 -29.9073 345.905 -41.0533 355.609 -53.3654C365.312 -65.6565 377.328 -79.2799 393.618 -93.5315C407.709 -105.928 426.914 -116.067 449.623 -117.772C472.308 -119.523 496.197 -114.615 517.762 -108.7C539.379 -102.781 558.955 -95.8325 577.553 -88.6149C596.094 -81.4007 614.153 -73.7331 632.765 -63.0744C651.349 -52.4174 667.996 -40.3127 682.605 -28.1657C697.234 -16.0077 709.958 -3.80793 721.267 8.14098C732.568 20.1175 742.675 31.7017 751.289 43.403C759.924 55.0803 764.691 68.6238 767.521 82.0174C770.42 95.4109 771.622 108.43 773.943 119.742C776.264 131.061 779.656 140.719 785.104 148.53C790.493 156.343 798.325 161.902 805.193 166.621C812.032 171.345 817.814 175.274 819.977 179.118C822.159 182.937 820.663 186.696 814.583 189.968Z" stroke="#88CCF2" stroke-width="0.822503" stroke-miterlimit="10"/>
<path d="M821.851 188.181C793.171 204.566 767.15 212.264 745.811 221.216C724.445 230.158 707.774 241.402 696.84 254.639C685.806 267.742 679.842 282.587 674.665 296.407C669.451 310.14 664.69 322.544 657.599 331.09C650.517 339.638 640.691 344.307 630.06 344.702C619.441 345.118 608.202 341.554 596.007 334.705C583.824 327.886 571.021 317.633 558.121 306.542C545.203 295.489 532.009 284.275 517.564 273.55C503.156 262.792 487.204 253.553 467.45 235.329C453.003 221.939 438.646 204.243 427.654 184.317C416.619 164.389 408.35 143.846 400.734 126.7C393.084 109.505 385.771 95.5174 376.84 85.1627C367.971 74.8189 356.698 68.3827 348.91 60.9757C341.143 53.6093 335.803 45.9188 332.744 37.3161C329.658 28.7159 328.774 19.2592 329.836 9.30879C330.917 -0.662928 334.107 -10.9609 339.561 -21.2792C345.027 -31.6079 352.489 -42.6481 362.344 -54.8147C372.202 -66.9544 384.414 -80.3636 400.826 -94.3054C415.037 -106.451 434.412 -116.036 456.646 -117.127C478.87 -118.262 502.016 -113.24 522.954 -107.419C543.939 -101.593 563.031 -94.9168 581.342 -87.9189C599.617 -80.9205 617.824 -73.2144 636.24 -62.6504C654.64 -52.0888 671.14 -40.2138 685.693 -28.3571C700.271 -16.482 713.018 -4.57346 724.386 7.1047C735.731 18.8166 746.111 30.0699 754.721 41.754C763.35 53.4169 768.063 67.0965 770.925 80.5735C773.844 94.0469 775.174 107.107 777.794 118.342C780.394 129.584 784.458 139.089 790.285 146.753C796.047 154.422 804.198 159.893 811.369 164.533C818.509 169.181 824.566 173.062 826.931 176.951C829.317 180.811 827.947 184.697 821.851 188.181Z" stroke="#88CCF2" stroke-width="0.832548" stroke-miterlimit="10"/>
<path d="M829.236 186.157C800.309 203.73 773.652 212.022 751.873 221.139C730.068 230.257 713.003 241.186 701.791 254.313C690.483 267.308 684.395 282.06 679.163 295.855C673.889 309.561 669.135 322.02 662.007 330.643C654.938 339.289 645.531 344.055 633.989 344.47C622.496 344.925 611.054 341.23 598.418 334.24C585.811 327.283 572.602 316.917 559.509 305.425C546.394 293.959 533.148 282.169 518.797 270.711C504.473 259.236 488.811 249.012 469.591 230.484C455.58 216.91 441.518 199.82 430.74 180.41C419.932 160.993 411.839 140.904 404.419 124.008C396.962 107.063 389.891 93.1528 381.301 82.723C372.766 72.3035 361.737 65.7512 354.021 58.2838C346.326 50.8542 341.092 43.1561 338.112 34.6101C335.113 26.0672 334.325 16.7456 335.533 6.98121C336.74 -2.80148 340.194 -12.7517 345.805 -22.9973C351.431 -33.2377 359.019 -44.1831 369.043 -56.1834C379.054 -68.1663 391.473 -81.3463 407.982 -94.9785C422.304 -106.869 441.761 -115.808 463.503 -116.352C485.23 -116.952 507.65 -111.86 527.986 -106.165C548.368 -100.462 566.99 -94.0828 585.066 -87.2932C603.124 -80.5032 621.48 -72.7291 639.688 -62.293C657.903 -51.8565 674.263 -40.243 688.783 -28.6808C703.319 -17.1093 716.007 -5.46296 727.469 5.93955C738.886 17.3703 749.549 28.2902 758.131 39.9727C766.728 51.6464 771.385 65.4815 774.269 79.0583C777.214 92.6303 778.642 105.722 781.57 116.881C784.483 128.053 789.106 137.312 795.55 144.723C801.938 152.141 810.187 157.632 817.648 162.201C825.086 166.774 831.41 170.618 833.986 174.552C836.575 178.45 835.34 182.453 829.236 186.157Z" stroke="#88CCF2" stroke-width="0.842594" stroke-miterlimit="10"/>
<path d="M836.747 183.896C807.624 202.693 780.349 211.654 758.096 220.977C735.822 230.316 718.344 240.949 706.822 253.955C695.225 266.842 689.005 281.495 683.703 295.261C678.366 308.938 673.621 321.438 666.464 330.142C659.36 338.862 649.885 343.734 638.154 344.186C626.466 344.673 614.04 340.873 600.978 333.76C587.929 326.672 574.281 316.204 560.975 304.335C547.657 292.499 534.344 280.165 520.076 268.016C505.839 255.871 490.462 244.713 471.763 225.873C458.196 212.121 444.414 195.525 433.85 176.604C423.264 157.675 415.347 138.024 408.115 121.379C400.853 104.687 394.017 90.8587 385.75 80.3652C377.541 69.8837 366.765 63.213 359.138 55.7102C351.535 48.2468 346.368 40.5216 343.484 32.0419C340.58 23.561 339.891 14.3761 341.241 4.78483C342.596 -4.80757 346.276 -14.4967 352.046 -24.6539C357.812 -34.81 365.551 -45.6395 375.735 -57.4713C385.908 -69.284 398.499 -82.2456 415.108 -95.5554C429.515 -107.193 448.998 -115.389 470.217 -115.463C491.43 -115.588 513.118 -110.494 532.891 -104.943C552.695 -99.3927 570.884 -93.3206 588.758 -86.7386C606.608 -80.1664 625.119 -72.2958 643.135 -62.0175C661.187 -51.7258 677.462 -40.4226 691.887 -29.1544C706.327 -17.8742 718.994 -6.47527 730.536 4.62542C742.045 15.7649 752.982 26.3314 761.53 38.0457C770.085 49.7561 774.674 63.777 777.564 77.4554C780.518 91.1307 782.061 104.263 785.287 115.333C788.496 126.411 793.751 135.43 800.763 142.549C807.717 149.678 816.257 155.072 824.032 159.582C831.768 164.089 838.367 167.91 841.139 171.881C843.928 175.833 842.841 179.965 836.747 183.896Z" stroke="#88CCF2" stroke-width="0.852954" stroke-miterlimit="10"/>
<path d="M844.355 181.39C815.104 201.452 787.231 211.147 764.473 220.729C741.712 230.342 723.767 240.684 711.921 253.575C700.002 266.352 693.632 280.894 688.263 294.632C682.851 308.269 678.114 320.806 670.941 329.595C663.806 338.388 654.273 343.371 642.356 343.864C630.457 344.382 617.164 340.502 603.662 333.28C590.138 326.059 576.036 315.492 562.495 303.277C548.94 291.086 535.552 278.242 521.374 265.46C507.228 252.685 492.108 240.65 473.937 221.491C460.785 207.547 447.306 191.37 436.953 172.911C426.585 154.434 418.828 135.213 411.794 118.816C404.721 102.374 398.112 88.6373 390.159 78.0895C382.259 67.5549 371.798 60.7793 364.237 53.2495C356.699 45.7505 351.621 38.0266 348.828 29.61C346.019 21.1952 345.425 12.1342 346.932 2.72395C348.438 -6.69061 352.331 -16.1771 358.251 -26.241C364.162 -36.2983 372.058 -47.0044 382.393 -58.6696C392.73 -70.308 405.505 -83.0293 422.169 -96.0277C436.643 -107.409 456.067 -114.802 476.748 -114.469C497.427 -114.191 518.405 -109.13 537.648 -103.752C556.913 -98.3746 574.706 -92.6146 592.394 -86.2448C610.084 -79.8778 628.723 -71.9152 646.553 -61.8168C664.432 -51.6972 680.609 -40.7515 694.909 -29.7117C709.215 -18.6532 721.925 -7.60338 733.569 3.17575C745.181 14.005 756.39 24.2249 764.889 36.0009C773.392 47.7757 777.89 62.0092 780.784 75.8018C783.739 89.5939 785.396 102.766 788.923 113.735C792.439 124.718 798.254 133.481 805.884 140.289C813.444 147.104 822.445 152.265 830.489 156.71C838.503 161.155 845.369 164.949 848.352 168.973C851.365 172.971 850.423 177.227 844.355 181.39Z" stroke="#88CCF2" stroke-width="0.863" stroke-miterlimit="10"/>
<path d="M852.058 178.641C822.775 200.014 794.278 210.476 771.018 220.381C747.752 230.322 729.303 240.395 717.1 253.168C704.845 265.837 698.305 280.266 692.861 293.965C687.363 307.556 682.64 320.126 675.445 328.99C668.301 337.86 658.695 342.946 646.615 343.494C634.539 344.062 620.488 340.133 606.504 332.784C592.489 325.439 577.881 314.758 564.106 302.234C550.299 289.724 536.809 276.404 522.723 263.022C508.667 249.665 493.805 236.807 476.141 217.329C463.397 203.2 450.224 187.358 440.082 169.33C429.936 151.285 422.334 132.469 415.486 116.321C408.59 100.119 402.206 86.4827 394.561 75.8958C386.976 65.3252 376.847 58.4331 369.352 50.8904C361.882 43.3843 356.875 35.6506 354.175 27.3056C351.453 18.9551 350.95 10.0121 352.633 0.786815C354.291 -8.45691 358.383 -17.7992 364.449 -27.76C370.5 -37.7189 378.55 -48.2963 389.042 -59.7763C399.526 -71.2356 412.483 -83.7139 429.191 -96.3974C443.71 -107.525 462.99 -114.065 483.124 -113.388C503.258 -112.769 523.551 -107.784 542.286 -102.605C561.02 -97.4327 578.474 -91.9884 596.007 -85.8207C613.549 -79.6622 632.316 -71.5962 649.97 -61.7081C667.667 -51.8062 683.677 -41.135 697.881 -30.3456C712.093 -19.5305 724.835 -8.87541 736.601 1.57211C748.308 12.068 759.801 21.9591 768.231 33.8294C776.664 45.7055 781.08 60.1773 783.954 74.0855C786.918 88.0131 788.656 101.208 792.505 112.078C796.333 122.959 802.722 131.437 810.942 137.933C819.09 144.439 828.852 149.097 837.054 153.546C845.217 157.998 852.454 161.73 855.645 165.809C858.868 169.859 858.071 174.235 852.058 178.641Z" stroke="#88CCF2" stroke-width="0.873046" stroke-miterlimit="10"/>
<path d="M859.834 175.636C830.599 198.345 801.523 209.652 777.731 219.92C753.943 230.238 734.948 240.071 722.369 252.728C709.754 265.299 703.029 279.603 697.494 293.252C691.905 306.794 687.196 319.395 679.981 328.326C672.815 337.265 663.167 342.468 650.92 343.074C638.672 343.699 623.996 339.754 609.507 332.283C594.969 324.807 579.873 314.018 565.801 301.196C551.712 288.392 538.129 274.63 524.109 260.689C510.115 246.777 495.541 233.168 478.358 213.373C466.002 199.055 453.155 183.485 443.215 165.86C433.276 148.21 425.847 129.798 419.176 113.882C412.467 97.9268 406.298 84.3891 398.944 73.7634C391.64 63.152 381.917 56.1534 374.476 48.6098C367.058 41.104 362.137 33.3838 359.524 25.1074C356.893 16.8243 356.508 8.01771 358.343 -1.04377C360.169 -10.1142 364.432 -19.3759 370.639 -29.2228C376.827 -39.0737 385.032 -49.5179 395.678 -60.8072C406.302 -72.088 419.426 -84.3144 436.16 -96.6855C450.697 -107.563 469.757 -113.212 489.336 -112.253C508.914 -111.354 528.555 -106.477 546.81 -101.517C565.067 -96.5586 582.19 -91.4463 599.599 -85.4774C617.031 -79.5126 635.888 -71.3624 653.38 -61.7091C670.932 -52.0395 686.677 -41.5824 700.8 -31.0722C714.928 -20.5379 727.733 -10.2952 739.626 -0.203064C751.456 9.95153 763.187 19.5262 771.545 31.5259C779.892 43.5332 784.193 58.2612 787.066 72.3029C790.018 86.3648 791.869 99.5955 796.031 110.35C800.168 121.116 807.158 129.302 815.932 135.47C824.639 141.657 834.928 145.992 843.656 150.15C852.353 154.312 859.579 158.227 862.992 162.368C866.403 166.48 865.801 171.001 859.834 175.636Z" stroke="#88CCF2" stroke-width="0.883406" stroke-miterlimit="10"/>
<path d="M867.673 172.38C838.569 196.444 808.947 208.654 784.616 219.34C760.309 230.097 740.719 239.717 727.727 252.263C714.72 264.734 707.776 278.901 702.157 292.508C696.46 305.992 691.758 318.612 684.528 327.614C677.351 336.622 667.659 341.937 655.259 342.608C642.867 343.309 627.691 339.368 612.675 331.779C597.597 324.179 581.97 313.247 567.592 300.164C553.186 287.087 539.482 272.919 525.533 258.46C511.612 244.039 497.298 229.728 480.593 209.626C468.626 195.137 456.097 179.768 446.359 162.51C436.633 145.233 429.358 127.193 422.868 111.512C416.344 95.7941 410.373 82.3527 403.312 71.7038C396.292 61.0644 387.004 53.9331 379.616 46.4122C372.243 38.9218 367.39 31.2226 364.871 23.0222C362.332 14.8177 362.052 6.12998 364.05 -2.76138C366.045 -11.6613 370.467 -20.8896 376.812 -30.6171C383.144 -40.3482 391.5 -50.6512 402.284 -61.7522C413.058 -72.8411 426.325 -84.8141 443.057 -96.8788C457.597 -107.504 476.337 -112.254 495.365 -111.063C514.38 -109.941 533.405 -105.21 551.209 -100.484C569.002 -95.7721 585.84 -90.9879 603.154 -85.2074C620.505 -79.4276 639.433 -71.207 656.765 -61.8277C674.17 -52.4313 689.595 -42.0976 703.657 -31.8906C717.72 -21.6653 730.597 -11.8784 742.625 -2.14654C754.58 7.64843 766.549 16.9478 774.809 29.1117C783.068 41.2896 787.234 56.2879 790.101 70.4784C793.031 84.6796 795.004 97.9513 799.484 108.575C803.941 119.214 811.526 127.084 820.835 132.929C830.078 138.795 840.869 142.814 850.092 146.674C859.287 150.544 866.719 154.454 870.356 158.671C873.993 162.859 873.552 167.502 867.673 172.38Z" stroke="#88CCF2" stroke-width="0.893451" stroke-miterlimit="10"/>
<path d="M875.547 168.868C846.693 194.321 816.537 207.462 791.675 218.628C766.821 229.856 746.622 239.331 733.187 251.765C719.742 264.129 712.6 278.181 706.852 291.722C701.049 305.145 696.326 317.77 689.093 326.839C681.905 335.91 672.176 341.334 659.633 342.082C647.089 342.851 631.611 338.982 616.024 331.266C600.369 323.54 584.236 312.457 569.497 299.119C554.752 285.799 540.907 271.248 527.009 256.311C513.146 241.42 499.085 226.458 482.849 206.064C471.246 191.408 459.051 176.19 449.512 159.278C439.975 142.332 432.876 124.661 426.556 109.205C420.206 93.7143 414.439 80.3766 407.663 69.7111C400.927 59.0578 392.112 51.7607 384.775 44.2767C377.443 36.8211 372.657 29.1569 370.218 21.0315C367.775 12.9116 367.588 4.33918 369.757 -4.37737C371.924 -13.1095 376.498 -22.3441 382.969 -31.9445C389.437 -41.5535 397.943 -51.7083 408.863 -62.6112C419.775 -73.5005 433.179 -85.2206 449.881 -96.9833C464.404 -107.365 482.743 -111.194 501.224 -109.833C519.686 -108.54 538.105 -103.989 555.495 -99.5203C572.869 -95.0612 589.444 -90.6134 606.691 -85.017C623.97 -79.4271 642.955 -71.1595 660.137 -62.0733C677.385 -52.9958 692.448 -42.6936 706.464 -32.8143C720.482 -22.9335 733.455 -13.6203 745.615 -4.26874C757.712 5.15499 769.87 14.2153 778.025 26.5867C786.182 38.9736 790.21 54.2661 793.06 68.606C795.979 82.9641 798.049 96.2487 802.872 106.744C807.661 117.248 815.825 124.774 825.662 130.302C835.421 135.845 846.674 139.547 856.372 143.124C866.038 146.707 873.891 150.421 877.732 154.712C881.577 158.97 881.338 163.755 875.547 168.868Z" stroke="#88CCF2" stroke-width="0.903497" stroke-miterlimit="10"/>
<path d="M883.45 165.103C854.94 191.95 824.31 206.082 798.916 217.775C773.53 229.541 752.676 238.914 738.761 251.237C724.846 263.504 717.459 277.415 711.59 290.896C705.648 304.246 700.929 316.877 693.676 326.004C686.48 335.135 676.727 340.676 664.043 341.498C651.394 342.355 635.967 338.516 619.612 330.737C603.23 322.965 586.659 311.628 571.532 298.066C556.387 284.516 542.391 269.617 528.539 254.242C514.718 238.915 500.913 223.358 485.132 202.69C473.895 187.891 462.026 172.773 452.685 156.172C443.349 139.537 436.399 122.202 430.259 106.963C424.083 91.6922 418.522 78.4625 412.017 67.7795C405.551 57.1114 397.285 49.6279 389.978 42.1935C382.666 34.7855 377.939 27.1628 375.586 19.127C373.209 11.0954 373.097 2.78771 375.54 -5.97707C377.973 -14.7438 382.51 -23.7317 389.128 -33.2038C395.728 -42.6825 404.372 -52.6883 415.428 -63.3862C426.467 -74.0752 440.004 -85.5299 456.637 -97.0028C471.112 -107.144 488.968 -110.069 506.914 -108.579C524.831 -107.163 542.678 -102.821 559.681 -98.6237C576.655 -94.4389 593.008 -90.3336 610.214 -84.9056C627.474 -79.4715 646.648 -71.3811 663.417 -62.421C680.268 -53.446 695.251 -43.3385 709.23 -33.8539C723.214 -24.352 736.274 -15.5611 748.597 -6.57946C760.839 2.46059 773.161 11.3437 781.197 23.9583C789.225 36.5822 793.13 52.202 795.95 66.6921C798.849 81.205 801.04 94.5124 806.204 104.856C811.331 115.208 820.093 122.39 830.415 127.592C840.666 132.822 852.364 136.212 862.5 139.508C872.61 142.811 881.054 146.117 885.105 150.49C889.158 154.827 889.135 159.758 883.45 165.103Z" stroke="#88CCF2" stroke-width="0.913857" stroke-miterlimit="10"/>
<path d="M891.355 161.087C863.314 189.343 832.266 204.506 806.329 216.77C780.413 229.114 758.882 238.455 744.451 250.68C730.032 262.858 722.38 276.627 716.364 290.035C710.273 303.31 705.53 315.927 698.271 325.115C691.062 334.3 681.284 339.947 668.482 340.86C655.708 341.801 640.053 338.019 623.369 330.174C606.644 322.337 589.264 310.769 573.717 297.005C558.138 283.247 543.973 268.032 530.144 252.247C516.352 236.516 502.796 220.421 487.452 199.495C476.55 184.555 465.039 169.521 455.878 153.19C446.731 136.831 439.941 119.821 433.976 104.788C427.974 89.7302 422.599 76.6002 416.375 65.9129C410.168 55.2351 402.525 47.5274 395.231 40.1584C387.937 32.8191 383.254 25.2468 380.985 17.3033C378.692 9.36396 378.803 1.12305 381.354 -7.52832C383.904 -16.177 388.559 -25.0495 395.296 -34.3948C402.026 -43.7406 410.808 -53.5834 421.983 -64.0744C433.143 -74.5565 446.784 -85.7518 463.337 -96.9369C477.737 -106.846 495.042 -108.879 512.459 -107.309C529.846 -105.811 547.156 -101.712 563.793 -97.7976C580.413 -93.897 596.568 -90.1271 613.747 -84.8667C630.995 -79.581 650.167 -71.637 666.609 -62.7823C683.157 -53.8917 698 -44.0823 711.973 -35.0073C725.945 -25.9182 739.105 -17.6712 751.589 -9.07512C763.996 -0.414768 776.425 8.34537 784.333 21.2448C792.238 34.1497 795.988 50.1076 798.788 64.7525C801.672 79.4278 803.985 92.7509 809.501 102.925C814.988 113.117 824.333 119.93 835.11 124.815C845.821 129.726 857.93 132.813 868.485 135.841C879.012 138.873 887.928 141.889 892.4 146.092C896.862 150.267 896.906 155.509 891.355 161.087Z" stroke="#88CCF2" stroke-width="0.923903" stroke-miterlimit="10"/>
<path d="M899.245 156.823C871.769 186.475 840.386 202.721 813.921 215.608C787.492 228.573 765.517 238.009 750.297 250.094C735.071 262.107 727.36 275.802 721.184 289.143C714.934 302.34 710.157 314.934 702.88 324.174C695.648 333.404 685.861 339.161 672.945 340.165C660.06 341.197 644.178 337.476 627.176 329.585C610.135 321.707 592.307 309.594 576.075 295.906C559.827 282.24 545.632 266.486 531.809 250.32C518.032 234.225 504.72 217.639 489.794 196.476C479.224 181.42 468.049 166.431 459.08 150.352C450.13 134.248 443.493 117.534 437.696 102.699C431.863 87.8368 426.683 74.8155 420.724 64.1217C414.788 53.4264 407.995 44.9877 400.57 38.1088C393.144 31.2298 388.622 23.4029 386.402 15.5635C384.184 7.72149 384.52 -0.476382 387.167 -9.0109C389.813 -17.5427 394.586 -26.2998 401.445 -35.4986C408.302 -44.7016 417.221 -54.3788 428.495 -64.6641C439.768 -74.9354 453.494 -85.8683 469.934 -96.7817C484.239 -106.466 500.914 -107.634 517.826 -106.022C534.695 -104.494 551.486 -100.657 567.8 -97.0383C584.082 -93.4379 600.077 -90.0067 617.262 -84.8993C634.511 -79.7655 653.515 -71.8962 669.691 -63.1587C685.967 -54.3814 700.701 -44.9035 714.664 -36.2876C728.633 -27.646 741.915 -19.9739 754.562 -11.7661C767.121 -3.50735 779.637 5.22707 787.397 18.4467C795.166 31.6684 798.752 47.9779 801.537 62.7809C804.403 77.6196 806.848 90.9464 812.735 100.943C818.59 110.956 828.491 117.395 839.721 121.967C850.865 126.567 863.365 129.366 874.308 132.131C885.213 134.896 894.534 137.682 899.445 141.671C904.366 145.635 904.64 151.013 899.245 156.823Z" stroke="#88CCF2" stroke-width="0.933949" stroke-miterlimit="10"/>
<path d="M907.091 152.316C880.295 183.358 848.653 200.712 821.685 214.276C794.772 227.922 772.14 237.588 756.319 249.493C740.457 261.309 732.41 274.958 726.05 288.215C719.613 301.322 714.797 313.89 707.496 323.17C700.25 332.443 690.457 338.305 677.426 339.402C664.44 340.528 648.352 336.888 631.034 328.959C613.683 321.051 595.25 308.803 578.613 294.804C561.941 280.811 547.389 264.941 533.56 248.446C519.773 232.011 506.691 214.982 492.176 193.61C481.924 178.455 471.089 163.499 462.3 147.637C453.528 131.751 447.058 115.318 441.426 100.669C435.761 85.9943 430.774 73.0775 425.075 62.3852C419.391 51.6867 412.951 43.1581 405.916 36.11C398.896 29.0697 394.006 21.6172 391.858 13.8779C389.699 6.13501 390.25 -2.0401 392.996 -10.4449C395.732 -18.856 400.617 -27.4868 407.59 -36.5437C414.561 -45.5979 423.605 -55.1156 434.984 -65.1809C446.379 -75.2297 460.188 -86.3207 476.452 -96.5344C490.644 -105.588 506.634 -106.347 523.04 -104.752C539.4 -103.234 555.716 -99.6797 571.737 -96.3679C587.727 -93.0733 603.577 -89.9799 620.781 -85.0204C638.06 -80.0254 656.77 -72.1555 672.695 -63.5738C688.725 -54.9463 703.347 -45.8478 717.328 -37.7217C731.29 -29.5699 744.715 -22.4969 757.538 -14.6695C770.271 -6.79974 782.815 1.99398 790.418 15.5657C798.026 29.1363 801.459 45.8108 804.231 60.7761C807.088 75.7803 809.674 89.1015 815.944 98.8984C822.174 108.708 832.632 114.772 844.279 119.042C855.839 123.338 868.689 125.856 879.992 128.373C891.264 130.893 900.938 133.445 906.265 137.227C911.614 140.997 912.326 146.287 907.091 152.316Z" stroke="#88CCF2" stroke-width="0.944308" stroke-miterlimit="10"/>
<path d="M914.886 147.573C891.466 176.743 863.292 194.555 837.956 208.326C812.67 222.143 790.264 231.743 773.148 241.936C756.021 252.101 745.076 263.567 737.635 275.445C730.123 287.213 725.488 299.259 720.048 309.592C714.611 319.887 708.267 328.357 699.251 333.407C690.271 338.463 678.655 340.079 664.836 337.796C651.028 335.529 635.123 329.374 618.849 320.072C602.537 310.778 585.927 298.422 571.275 284.942C556.584 271.461 543.598 256.877 531.279 241.565C518.984 226.288 507.316 210.301 494.605 190.909C484.657 175.668 474.145 160.736 465.545 145.073C456.958 129.382 450.645 113.206 445.18 98.7299C439.682 84.2311 434.883 71.4156 429.447 60.7264C424.02 50.0279 417.898 41.4072 411.267 34.2075C404.641 27.0109 399.458 19.8896 397.375 12.2596C395.289 4.63234 396.036 -3.52398 398.86 -11.8046C401.679 -20.0911 406.658 -28.6024 413.756 -37.4999C420.83 -46.4115 430.012 -55.7408 441.467 -65.599C452.96 -75.4282 467.033 -86.6679 482.86 -96.1301C496.712 -104.514 512.215 -105.028 528.127 -103.486C543.98 -102.025 559.865 -98.7668 575.622 -95.7704C591.331 -92.7979 607.062 -90.052 624.331 -85.211C641.649 -80.3529 659.923 -72.4304 675.646 -64.0197C691.443 -55.5806 705.993 -46.8901 719.993 -39.2931C733.98 -31.6603 747.537 -25.2178 760.536 -17.7709C773.445 -10.2886 785.949 -1.35093 793.4 12.6294C800.854 26.5859 804.117 43.637 806.876 58.7619C809.728 73.9331 812.461 87.2309 819.133 96.8142C825.764 106.406 836.756 112.093 848.788 116.067C860.732 120.066 873.929 122.324 885.55 124.597C897.149 126.878 907.151 129.213 912.878 132.798C918.607 136.356 919.921 141.32 914.886 147.573Z" stroke="#88CCF2" stroke-width="0.954354" stroke-miterlimit="10"/>
<path d="M922.547 142.643C900.908 172.124 871.873 191.925 846.173 206.395C820.55 220.964 797.558 230.995 779.891 241.272C762.209 251.53 750.615 262.777 742.858 274.549C735.045 286.216 730.253 298.171 724.745 308.483C719.238 318.756 712.884 327.256 703.842 332.382C694.842 337.517 683.155 339.23 669.191 337.022C655.243 334.834 639.08 328.707 622.516 319.354C605.894 310 588.96 297.403 573.874 283.72C558.761 270.039 545.531 255.281 533.214 239.716C520.921 224.191 509.45 207.893 497.074 188.354C487.415 173.051 477.225 158.146 468.801 142.643C460.383 127.111 454.245 111.184 448.942 96.8672C443.613 82.5346 439.013 69.8196 433.818 59.128C428.651 48.4381 422.848 39.7339 416.599 32.3883C410.368 25.0607 404.803 18.3497 402.949 10.6674C401.09 3.00023 401.805 -4.95687 404.724 -13.1024C407.62 -21.2577 412.72 -29.6267 419.9 -38.3828C427.077 -47.1405 436.362 -56.2977 447.897 -65.9359C459.482 -75.5416 473.714 -86.8238 489.101 -95.6007C502.588 -103.376 517.618 -103.699 533.05 -102.25C548.44 -100.865 563.917 -97.9356 579.425 -95.2678C594.89 -92.6208 610.536 -90.2105 627.873 -85.4933C645.249 -80.7682 662.982 -72.7235 678.507 -64.5216C694.112 -56.3022 708.584 -48.0735 722.609 -41.0417C736.63 -33.9582 750.328 -28.181 763.511 -21.0958C776.61 -13.993 789.024 -4.78516 796.301 9.62076C803.584 23.9932 806.683 41.4283 809.441 56.712C812.285 72.0417 815.192 85.309 822.288 94.6548C829.335 104.009 840.825 109.323 853.225 113.01C865.526 116.719 879.044 118.734 890.958 120.777C902.858 122.837 913.159 124.967 919.25 128.357C925.341 131.732 927.177 136.388 922.547 142.643Z" stroke="#88CCF2" stroke-width="0.9644" stroke-miterlimit="10"/>
<path d="M929.92 137.711C910.41 166.814 880.534 189.063 854.543 204.257C828.632 219.609 805.061 230.121 786.826 240.527C768.581 250.924 756.284 261.964 748.178 273.618C740.022 285.178 735.079 297.049 729.477 307.328C723.874 317.567 717.519 326.1 708.447 331.291C699.416 336.492 687.682 338.312 673.576 336.186C659.489 334.077 643.103 328.006 626.238 318.61C609.327 309.219 592.019 296.49 576.586 282.516C561.108 268.526 547.627 253.721 535.263 237.923C522.934 222.163 511.668 205.606 499.598 185.939C490.207 170.585 480.327 155.721 472.076 140.357C463.829 124.964 457.852 109.253 452.717 95.0913C447.56 80.9125 443.136 68.2882 438.196 57.6063C433.268 46.9167 427.79 38.1419 421.925 30.6633C416.077 23.1984 410.501 16.5894 408.678 9.04815C406.853 1.51664 407.626 -6.30197 410.608 -14.3241C413.581 -22.3483 418.763 -30.583 426.042 -39.1798C433.319 -47.7782 442.709 -56.7519 454.294 -66.1761C465.959 -75.5548 480.273 -86.7743 495.193 -94.9408C509.399 -102.776 525.282 -102.41 541.582 -100.674C557.812 -99.0247 574.119 -96.2583 590.849 -93.6675C607.595 -91.0534 625.846 -88.4586 644.642 -81.7101C663.465 -74.9502 680.366 -65.6052 696.397 -57.1943C712.443 -48.7895 727.658 -41.647 742.645 -35.3255C757.54 -28.8646 773.273 -23.5039 785.519 -12.4931C797.762 -1.48823 804.335 16.6729 808.105 34.5237C812.051 52.4146 813.718 69.5373 819.166 82.0823C824.582 94.6522 835.285 102.22 848.34 106.977C861.276 111.763 876.298 113.998 890.015 116.02C903.695 118.056 916.007 119.905 923.706 123.172C931.407 126.414 934.425 131.089 929.92 137.711Z" stroke="#88CCF2" stroke-width="0.97476" stroke-miterlimit="10"/>
<path d="M937.009 132.817C919.541 161.465 889.294 185.958 863.049 201.918C836.914 218.091 812.756 229.123 793.952 239.705C775.122 250.282 762.079 261.127 753.598 272.67C745.085 284.132 739.94 295.894 734.242 306.14C728.538 316.339 722.164 324.893 713.061 330.15C703.995 335.41 692.216 337.334 677.982 335.297C663.763 333.272 647.177 327.274 630.02 317.85C612.829 308.44 595.175 295.569 579.383 281.358C563.557 267.142 549.838 252.051 537.438 236.152C525.061 220.288 513.953 203.432 502.186 183.668C493.057 168.287 483.467 153.478 475.373 138.22C467.3 122.945 461.486 107.43 456.516 93.4028C451.522 79.3618 447.295 66.8296 442.599 56.1538C437.93 45.4797 432.739 36.621 427.262 29.0222C421.801 21.4356 416.26 14.9089 414.453 7.49664C412.651 0.101513 413.479 -7.58718 416.52 -15.4778C419.567 -23.3611 424.82 -31.4677 432.194 -39.9014C439.561 -48.3355 449.045 -57.1277 460.664 -66.3403C472.365 -75.5058 486.702 -86.5637 501.146 -94.1891C514.934 -101.501 530.31 -101.073 546.149 -99.5371C561.936 -98.086 577.888 -95.7417 594.478 -93.504C611.108 -91.2288 629.693 -88.7672 648.019 -82.0146C666.409 -75.2216 683.088 -66.1178 699.024 -58.1894C714.97 -50.2659 730.228 -43.8677 745.354 -38.2157C760.38 -32.4081 776.493 -27.68 788.58 -16.2568C800.65 -4.83328 806.977 13.9572 810.636 32.1502C814.461 50.3883 816.165 67.6228 821.938 80.0186C827.681 92.4435 839.001 99.5633 852.443 104.014C865.759 108.494 881.075 110.478 895.054 112.278C908.996 114.092 921.576 115.766 929.586 118.839C937.599 121.881 941.007 126.357 937.009 132.817Z" stroke="#88CCF2" stroke-width="0.984806" stroke-miterlimit="10"/>
<path d="M943.81 127.961C928.309 156.102 898.117 182.591 871.68 199.362C845.379 216.374 820.645 227.972 801.268 238.774C781.884 249.594 768.001 260.247 759.125 271.685C750.208 283.041 744.858 294.706 739.038 304.907C733.209 315.059 726.82 323.633 717.674 328.945C708.578 334.264 696.767 336.301 682.402 334.347C668.065 332.413 651.274 326.493 633.845 317.061C616.377 307.643 598.395 294.687 582.255 280.236C566.076 265.784 552.13 250.366 539.708 234.342C527.313 218.351 516.324 201.44 504.836 181.544C495.963 166.115 486.61 151.399 478.69 136.234C470.784 121.052 465.123 105.705 460.331 91.8102C455.512 77.8992 451.462 65.4437 447.014 54.7772C442.587 44.112 437.707 35.1904 432.597 27.473C427.501 19.7676 422.047 13.3095 420.264 6.02659C418.482 -1.24072 419.332 -8.80433 422.446 -16.5514C425.536 -24.3083 430.895 -32.2595 438.334 -40.5359C445.773 -48.8123 455.346 -57.4192 466.989 -66.4152C478.725 -75.3605 492.959 -86.2067 506.942 -93.3477C520.318 -100.186 535.172 -99.763 550.594 -98.4533C565.951 -97.225 581.6 -95.3166 598.07 -93.442C614.594 -91.5176 633.384 -89.0466 651.286 -82.3181C669.275 -75.528 685.761 -66.7058 701.611 -59.3128C717.48 -51.9088 732.773 -46.3129 748.051 -41.3495C763.218 -36.214 779.675 -32.0265 791.589 -20.1313C803.483 -8.22886 809.559 11.2217 813.098 29.7478C816.811 48.3308 818.567 65.6641 824.684 77.892C830.76 90.1471 842.72 96.8199 856.509 100.964C870.189 105.154 885.758 106.893 899.976 108.493C914.159 110.109 926.961 111.618 935.259 114.512C943.568 117.392 947.339 121.672 943.81 127.961Z" stroke="#88CCF2" stroke-width="0.994852" stroke-miterlimit="10"/>
<path d="M950.336 123.164C936.707 150.758 906.991 178.983 880.424 196.595C854.016 214.463 828.732 226.675 808.782 237.741C788.821 248.84 774.1 259.35 764.773 270.676C755.421 281.933 749.835 293.491 743.873 303.642C737.904 313.743 731.471 322.317 722.294 327.688C713.165 333.06 701.302 335.19 686.836 333.337C672.389 331.5 655.41 325.666 637.715 316.244C619.993 306.838 601.68 293.815 585.207 279.15C568.685 264.482 554.488 248.745 542.047 232.608C529.637 216.507 518.77 199.634 507.515 179.731C498.828 164.337 489.776 149.501 482.027 134.406C474.29 119.296 468.791 104.083 464.169 90.3074C459.524 76.5152 455.65 64.1321 451.45 53.4749C447.255 42.8096 442.718 33.796 437.956 25.9898C433.206 18.1941 427.89 11.8004 426.113 4.63748C424.339 -2.50558 425.229 -9.93739 428.392 -17.5507C431.538 -25.1706 436.944 -32.9896 444.475 -41.0931C451.986 -49.2049 461.639 -57.6171 473.278 -66.4122C485.017 -75.1493 499.071 -85.7221 512.595 -92.4322C525.541 -98.8633 539.898 -98.484 554.941 -97.4221C569.914 -96.4404 585.281 -94.9779 601.65 -93.4693C618.087 -91.9075 636.947 -89.2875 654.467 -82.6085C672.096 -75.8598 688.395 -67.3737 704.172 -60.5561C719.967 -53.7205 735.311 -48.9796 750.751 -44.7124C766.063 -40.273 782.828 -36.5057 794.551 -24.0791C806.253 -11.6425 812.074 8.47627 815.511 27.3423C819.114 46.2717 820.934 63.682 827.43 75.7189C833.884 87.7829 846.429 93.9888 860.559 97.8509C874.567 101.759 890.374 103.276 904.798 104.695C919.186 106.125 932.176 107.491 940.746 110.228C949.301 112.945 953.427 117.057 950.336 123.164Z" stroke="#88CCF2" stroke-width="1.00521" stroke-miterlimit="10"/>
<path d="M956.592 118.43C944.76 145.453 915.887 175.132 889.263 193.614C862.83 212.355 837.013 225.22 816.488 236.592C795.953 248.012 780.361 258.422 770.549 269.642C760.724 280.808 754.863 292.246 748.746 302.345C742.624 312.389 736.129 320.957 726.911 326.376C717.745 331.799 705.851 334.027 691.267 332.27C676.722 330.535 659.56 324.792 641.619 315.401C623.647 306.026 605.022 292.953 588.222 278.102C571.369 263.246 556.904 247.195 544.436 230.96C532.006 214.761 521.275 197.955 510.24 178.085C500.712 160.846 490.616 144.059 482.632 127.171C474.662 110.249 469.397 93.5499 464.779 78.914C460.144 64.2574 456.016 51.5862 451.352 40.8787C446.709 30.1654 441.506 21.3467 436.679 13.6519C431.843 5.9621 430.099 -1.87392 431.716 -10.1299C433.311 -18.3802 437.951 -26.8697 445.29 -35.65C452.614 -44.4425 462.663 -53.5539 475.211 -63.1144C487.903 -72.5959 503.385 -84.2939 518.061 -91.4482C530.595 -97.523 544.475 -97.2342 559.151 -96.4418C573.755 -95.7355 588.883 -94.7262 605.175 -93.5922C621.534 -92.4049 640.342 -89.5066 657.526 -82.9055C674.818 -76.2389 690.945 -68.1317 706.668 -61.9432C722.4 -55.7274 737.802 -51.8845 753.413 -48.3272C768.879 -44.6 785.893 -41.1315 797.428 -28.11C808.947 -15.0796 814.505 5.73226 817.84 24.9198C821.354 44.1927 823.252 61.6626 830.154 73.4778C837.004 85.3165 850.127 91.0662 864.565 94.6572C878.88 98.2928 894.894 99.6071 909.502 100.871C924.081 102.147 937.233 103.389 946.025 105.979C954.83 108.56 959.275 112.501 956.592 118.43Z" stroke="#88CCF2" stroke-width="1.01526" stroke-miterlimit="10"/>
<path d="M962.591 113.761C952.45 140.198 924.77 171.033 898.183 190.411C871.815 210.037 845.48 223.586 824.392 235.311C803.291 247.096 786.797 257.449 776.469 268.571C766.117 279.639 759.975 290.973 753.673 301.008C747.356 310.984 740.801 319.543 731.541 325.009C722.321 330.474 710.387 332.792 695.717 331.14C681.071 329.503 663.751 323.871 645.57 314.52C627.36 305.185 608.434 292.094 591.321 277.081C574.161 262.069 559.391 245.697 546.91 229.385C534.453 213.102 523.858 196.386 513.048 176.59C503.737 159.466 493.958 142.605 486.11 125.81C478.278 108.986 473.189 92.3663 468.778 77.7668C464.368 63.1532 460.492 50.4859 456.124 39.7427C451.78 28.9953 446.943 20.1198 442.487 12.3488C438.035 4.59495 435.996 -2.98737 437.647 -11.1007C439.274 -19.2056 443.969 -27.5398 451.362 -36.1439C458.739 -44.7645 468.861 -53.6703 481.4 -63.012C494.064 -72.2772 509.242 -83.6039 523.411 -90.4088C535.514 -96.1958 548.954 -96.0234 563.297 -95.5254C577.554 -95.1239 592.473 -94.5758 608.712 -93.8135C625.015 -93.0135 643.666 -89.6985 660.533 -83.2122C677.517 -76.6653 693.496 -68.9874 709.162 -63.4845C724.837 -57.936 740.325 -55.0331 756.099 -52.1974C771.728 -49.1988 788.948 -45.8684 800.28 -32.1995C811.59 -18.5318 816.889 2.97477 820.145 22.4938C823.582 42.1066 825.584 59.6108 832.916 71.1775C840.199 82.7666 853.853 88.0616 868.586 91.4016C883.183 94.7799 899.386 95.917 914.14 97.0403C928.876 98.1822 942.155 99.3125 951.156 101.78C960.155 104.224 964.871 108.005 962.591 113.761Z" stroke="#88CCF2" stroke-width="1.0253" stroke-miterlimit="10"/>
<path d="M968.336 109.167C959.778 135.016 933.633 166.713 907.164 186.992C880.937 207.498 854.124 221.775 832.491 233.891C810.831 246.079 793.452 256.447 782.543 267.469C771.621 278.45 765.162 289.667 758.655 299.638C752.126 309.542 745.497 318.091 736.176 323.587C726.898 329.084 714.934 331.497 700.17 329.951C685.43 328.415 667.964 322.898 649.556 313.605C631.116 304.325 611.909 291.238 594.496 276.092C577.017 260.94 561.944 244.259 549.448 227.884C536.973 211.532 526.499 194.914 515.915 175.235C506.814 158.261 497.349 141.342 489.636 124.632C481.924 107.895 476.993 91.3348 472.801 76.7709C468.589 62.1847 464.974 49.5162 460.895 38.7369C456.852 27.9597 452.352 19.0145 448.256 11.1722C444.164 3.34715 441.925 -4.0137 443.591 -11.9911C445.242 -19.9553 449.985 -28.132 457.424 -36.5646C464.856 -45.0046 475.024 -53.7136 487.527 -62.8436C500.174 -71.8834 514.936 -82.823 528.604 -89.3443C540.298 -94.8816 553.31 -94.8657 567.347 -94.6926C581.313 -94.6012 596.029 -94.5365 612.237 -94.1543C628.497 -93.7564 646.868 -89.9139 663.465 -83.5619C680.161 -77.1884 696.006 -69.9869 711.625 -65.214C727.26 -60.3809 742.826 -58.4776 758.779 -56.3498C774.584 -54.0763 791.956 -50.7382 803.075 -36.3689C814.187 -22.0043 819.212 0.20037 822.405 20.0306C825.775 39.9671 827.903 57.4902 835.707 68.7743C843.457 80.0821 857.615 84.9501 872.6 88.0408C887.46 91.1832 903.805 92.1516 918.699 93.1637C933.553 94.1819 946.931 95.2352 956.117 97.5953C965.292 99.9491 970.244 103.584 968.336 109.167Z" stroke="#88CCF2" stroke-width="1.03566" stroke-miterlimit="10"/>
<path d="M973.846 104.66C966.762 129.921 942.417 162.167 916.197 183.366C890.198 204.751 862.957 219.781 840.794 232.331C818.597 244.966 800.323 255.397 788.799 266.34C777.259 277.243 770.445 288.342 763.706 298.244C756.956 308.082 750.215 316.595 740.824 322.124C731.475 327.649 719.492 330.159 704.627 328.707C689.812 327.28 672.19 321.876 653.576 312.659C634.938 303.458 615.447 290.392 597.741 275.131C579.965 259.872 564.582 242.893 552.055 226.453C539.544 210.037 529.21 193.547 518.839 174.013C509.956 157.222 500.813 140.29 493.21 123.648C485.605 106.983 480.828 90.4753 476.837 75.9333C472.82 61.3686 469.446 48.6837 465.658 37.8726C461.89 27.0514 457.728 18.0477 453.982 10.1393C450.23 2.24176 447.865 -4.94522 449.547 -12.7866C451.206 -20.6153 455.991 -28.6333 463.47 -36.8905C470.934 -45.1598 481.15 -53.6676 493.599 -62.5857C506.172 -71.4288 520.465 -81.9507 533.655 -88.2335C544.934 -93.5791 557.563 -93.7479 571.316 -93.9125C585.002 -94.16 599.555 -94.5776 615.749 -94.5803C631.972 -94.6066 649.963 -90.1061 666.322 -83.9273C682.761 -77.7605 698.459 -71.108 714.054 -67.11C729.654 -63.0442 745.301 -62.181 761.447 -60.7618C777.43 -59.2188 794.902 -55.696 805.805 -40.5746C816.699 -25.4832 821.479 -2.56902 824.612 17.5643C827.92 37.8093 830.22 55.33 838.523 66.2967C846.772 77.2799 861.379 81.7474 876.6 84.6161C891.704 87.5325 908.189 88.3757 923.17 89.2819C938.122 90.2005 951.585 91.2055 960.909 93.4712C970.227 95.7338 975.419 99.2423 973.846 104.66Z" stroke="#88CCF2" stroke-width="1.04571" stroke-miterlimit="10"/>
<path d="M979.126 100.232C973.419 124.933 951.118 157.42 925.252 179.53C899.58 201.774 871.977 217.607 849.285 230.616C826.573 243.704 808.365 254.214 795.408 265.159C782.442 276.033 775.829 286.979 768.833 296.824C761.816 306.584 754.948 315.06 745.491 320.62C736.07 326.171 724.045 328.759 709.096 327.414C694.197 326.091 676.446 320.816 657.635 311.681C638.794 302.562 619.041 289.541 601.065 274.203C583 258.861 567.296 241.595 554.739 225.101C542.194 208.629 532.001 192.293 521.827 172.927C513.139 156.337 504.34 139.443 496.839 122.863C489.327 106.263 484.716 89.8077 480.899 75.272C477.078 60.7191 473.937 48.02 470.421 37.1633C466.941 26.3088 463.094 17.2368 459.677 9.26094C456.273 1.30691 453.824 -5.77257 455.521 -13.471C457.195 -21.161 461.993 -29.0376 469.508 -37.114C477.001 -45.2072 487.244 -53.5178 499.616 -62.245C512.103 -70.895 525.847 -80.9941 538.578 -87.0964C549.462 -92.2926 561.714 -92.6867 575.221 -93.2036C588.642 -93.8143 603.072 -94.7161 619.269 -95.1125C635.464 -95.582 652.983 -90.3068 669.127 -84.3322C685.327 -78.4188 700.895 -72.3634 716.467 -69.1981C732.044 -65.9466 747.786 -66.1705 764.119 -65.4448C780.296 -64.6201 797.819 -60.7272 808.488 -44.8125C819.173 -28.9433 823.695 -5.33278 826.795 15.0897C830.077 35.6313 832.556 53.1178 841.402 63.7275C850.191 74.3479 865.187 78.4491 880.617 81.1123C895.937 83.8237 912.517 84.5404 927.583 85.3871C942.627 86.2465 956.12 87.1998 965.569 89.3998C975.008 91.5796 980.388 94.9757 979.126 100.232Z" stroke="#88CCF2" stroke-width="1.05575" stroke-miterlimit="10"/>
<path d="M984.188 95.8843C979.74 120.051 959.732 152.495 934.307 175.487C909.084 198.581 881.142 215.214 857.968 228.736C834.757 242.33 815.883 253.064 802.235 263.94C788.568 274.74 781.334 285.606 774.038 295.368C766.737 305.055 759.725 313.484 750.173 319.065C740.66 324.636 728.588 327.294 713.562 326.058C698.593 324.843 680.723 319.698 661.716 310.66C642.7 301.642 622.692 288.681 604.452 273.289C586.121 257.899 570.074 240.344 557.485 223.81C544.9 207.29 534.833 191.11 524.866 171.95C516.376 155.59 507.922 138.783 500.509 122.258C493.074 105.713 488.6 89.2895 484.971 74.7609C481.33 60.2103 478.413 47.481 475.177 36.5863C471.957 25.6827 468.423 16.5522 465.332 8.51427C462.239 0.490383 459.802 -6.49558 461.506 -14.0671C463.183 -21.6246 468.005 -29.3493 475.529 -37.2578C483.034 -45.1842 493.289 -53.2959 505.569 -61.8373C517.951 -70.3009 531.077 -79.9815 543.363 -85.9486C553.871 -91.0395 565.789 -91.6772 579.059 -92.574C592.276 -93.5163 606.328 -95.7854 622.816 -95.6944C639.281 -95.657 655.938 -90.4841 671.876 -84.799C687.847 -79.1919 703.306 -73.783 718.858 -71.5063C734.412 -69.1241 750.251 -70.4771 766.788 -70.4198C783.173 -70.2943 800.678 -65.8428 811.119 -49.0993C821.576 -32.4223 825.864 -8.11703 828.953 12.5776C832.213 33.3893 834.92 50.8192 844.347 61.032C853.731 71.2493 869.027 75.031 884.649 77.5073C900.166 80.028 916.831 80.6599 931.938 81.4541C947.017 82.2607 960.546 83.2064 970.088 85.3516C979.613 87.4831 985.164 90.7783 984.188 95.8843Z" stroke="#88CCF2" stroke-width="1.06611" stroke-miterlimit="10"/>
<path d="M989.046 91.6206C985.749 115.288 968.185 147.386 943.343 171.25C918.67 195.169 890.493 212.642 866.833 226.688C843.149 240.825 823.625 251.831 809.273 262.675C794.92 273.459 786.95 284.205 779.336 293.889C771.711 303.493 764.547 311.882 754.878 317.472C745.265 323.054 733.136 325.784 718.034 324.649C702.964 323.52 685.003 318.527 665.826 309.601C646.638 300.694 626.401 287.814 607.906 272.394C589.299 256.968 572.934 239.164 560.303 222.584C547.677 206.022 537.725 190.007 527.962 171.085C519.666 154.978 511.571 138.316 504.224 121.833C496.848 105.336 492.506 88.9421 489.052 74.4056C485.587 59.8515 482.882 47.0886 479.914 36.1495C476.965 25.2031 473.723 16.0057 470.94 7.90609C468.162 -0.179093 465.795 -7.11725 467.487 -14.5685C469.155 -22.0042 473.998 -29.5757 481.52 -37.3183C489.027 -45.0774 499.279 -53.0021 511.442 -61.3677C523.685 -69.6695 536.154 -78.9168 548.018 -84.8053C558.158 -89.8366 569.752 -90.7484 582.836 -92.0319C595.883 -93.3402 610.292 -96.2841 626.355 -96.1596C642.437 -96.0495 658.839 -90.6726 674.568 -85.336C690.341 -80.0756 705.682 -75.3868 721.221 -74.0463C736.76 -72.5819 752.715 -75.1011 769.452 -75.6858C786.043 -76.2385 803.491 -71.0224 813.693 -53.4198C823.926 -35.9082 828.002 -10.9026 831.088 10.0295C834.37 31.1042 837.317 48.4331 847.372 58.204C857.385 67.9724 872.91 71.4951 888.7 73.8071C904.385 76.1564 921.118 76.7262 936.244 77.4949C951.345 78.2747 964.872 79.2371 974.478 81.3468C984.072 83.4458 989.753 86.6602 989.046 91.6206Z" stroke="#88CCF2" stroke-width="1.07616" stroke-miterlimit="10"/>
<path d="M993.712 87.4466C991.454 110.659 976.497 142.141 952.336 166.834C928.331 191.548 899.975 209.86 875.879 224.47C851.762 239.176 831.568 250.488 816.54 261.361C801.485 272.168 792.726 282.793 784.749 292.39C776.774 301.916 769.407 310.248 759.628 315.847C749.887 321.435 737.696 324.224 722.523 323.199C707.388 322.183 689.307 317.315 669.972 308.512C650.611 299.716 630.173 286.952 611.435 271.526C592.575 256.098 575.87 238.044 563.202 221.428C550.515 204.82 540.696 188.99 531.12 170.321C523.01 154.488 515.283 138.028 507.987 121.589C500.658 105.138 496.443 88.7623 493.151 74.2145C489.849 59.6491 487.377 46.8579 484.645 35.8627C481.936 24.8632 479 15.6025 476.511 7.44465C474.028 -0.698795 471.798 -7.63011 473.48 -14.9568C475.136 -22.2765 479.982 -29.6973 487.496 -37.2815C494.993 -44.8794 505.22 -52.6228 517.253 -60.8246C529.343 -68.9752 541.096 -77.8056 552.56 -83.6534C562.355 -88.659 573.659 -89.8722 586.57 -91.56C599.471 -93.247 614.114 -96.7802 629.808 -96.6005C645.549 -96.4081 661.669 -90.8935 677.214 -85.9491C692.781 -81.1047 708.027 -77.1784 723.564 -76.828C739.104 -76.3313 755.149 -80.056 772.112 -81.239C788.933 -82.4277 806.255 -76.2472 816.218 -57.7645C826.244 -39.3793 830.082 -13.717 833.208 7.4454C836.52 28.7441 839.769 45.9532 850.493 55.2299C861.189 64.4936 876.841 67.8353 892.771 70.0039C908.618 72.211 925.374 72.7287 940.5 73.4974C955.604 74.2788 969.11 75.2766 978.75 77.3727C988.403 79.4768 994.19 82.6188 993.712 87.4466Z" stroke="#88CCF2" stroke-width="1.08621" stroke-miterlimit="10"/>
<path d="M998.193 83.3506C996.884 106.161 984.586 136.754 961.256 162.238C938.023 187.699 909.582 206.868 885.091 222.069C860.578 237.372 839.741 249.039 824.021 259.973C808.292 270.861 798.643 281.346 790.268 290.858C781.896 300.3 774.322 308.578 764.401 314.182C754.529 319.774 742.269 322.624 727.008 321.694C711.797 320.779 693.619 316.055 674.134 307.379C654.647 298.727 633.965 286.058 615.022 270.662C595.921 255.255 578.893 236.981 566.161 220.325C553.409 203.679 543.722 188.034 534.32 169.643C526.381 154.09 519.055 137.917 511.784 121.51C504.486 105.105 500.369 88.7286 497.245 74.1726C494.098 59.5884 491.835 46.7577 489.35 35.7098C486.892 24.6593 484.23 15.3321 482.03 7.11281C479.833 -1.09361 477.806 -8.04232 479.463 -15.2566C481.092 -22.4682 485.941 -29.7426 493.433 -37.1691C500.912 -44.6105 511.102 -52.1762 522.975 -60.2343C534.886 -68.2494 545.887 -76.6805 556.977 -82.5226C566.441 -87.5495 577.489 -89.0734 590.25 -91.1851C603.029 -93.2648 617.809 -97.2736 633.173 -97.0307C648.615 -96.7466 664.446 -91.155 679.811 -86.6631C695.202 -82.2723 710.35 -79.1887 725.882 -79.8781C741.42 -80.3941 757.592 -85.3573 774.769 -87.0872C791.82 -88.8613 808.974 -81.5166 818.691 -62.1386C828.494 -42.8708 832.133 -16.5553 835.327 4.80955C838.706 26.3134 842.279 43.355 853.728 52.0858C865.151 60.7869 880.825 64.047 896.881 66.0923C912.852 68.1649 929.625 68.6668 944.732 69.468C959.807 70.273 973.259 71.3294 982.923 73.4327C992.581 75.5468 998.46 78.6437 998.193 83.3506Z" stroke="#88CCF2" stroke-width="1.09657" stroke-miterlimit="10"/>
<path d="M1002.51 79.3306C1002.03 101.796 992.462 131.255 970.079 157.479C947.759 183.644 919.304 203.665 894.461 219.482C869.602 235.409 848.12 247.464 831.725 258.508C815.303 269.508 804.722 279.875 795.918 289.303C787.111 298.667 779.295 306.882 769.219 312.486C759.176 318.071 746.847 320.979 731.507 320.148C716.209 319.327 697.96 314.758 678.319 306.213C658.696 297.7 637.837 285.171 618.667 269.815C599.34 254.455 581.987 235.99 569.189 219.293C556.361 202.603 546.802 187.156 537.567 169.06C529.835 153.833 522.85 138.581 515.62 121.632C508.384 104.713 504.336 88.8945 501.339 74.2954C498.357 59.7015 496.267 46.8081 494.032 35.7118C491.809 24.6051 489.421 15.2114 487.497 6.93418C485.587 -1.3282 483.8 -8.32998 485.44 -15.4341C487.057 -22.534 491.881 -29.6777 499.34 -36.9529C506.78 -44.2461 516.925 -51.6387 528.616 -59.5699C540.322 -67.4706 550.546 -75.5096 561.286 -81.391C570.434 -86.4692 581.262 -88.327 593.892 -90.877C606.561 -93.3753 621.386 -97.7429 636.46 -97.4204C651.632 -97.0386 667.179 -91.4373 682.359 -87.4614C697.575 -83.5847 712.625 -81.4028 728.171 -83.1785C743.711 -84.7592 760.011 -90.9862 777.419 -93.2029C794.711 -95.5082 811.626 -86.8079 821.111 -66.5128C830.711 -46.3359 834.163 -19.3959 837.446 2.13601C840.913 23.8069 844.697 40.7921 857.106 48.7648C869.516 56.6912 884.893 60.1388 901.024 62.0859C917.114 64.0531 933.868 64.5623 948.928 65.4128C963.964 66.2675 977.336 67.4048 986.992 69.5357C996.634 71.6588 1002.59 74.7361 1002.51 79.3306Z" stroke="#88CCF2" stroke-width="1.10661" stroke-miterlimit="10"/>
<path d="M1006.67 75.3886C1006.92 97.5616 1000.11 125.677 978.783 152.575C957.49 179.391 929.139 200.262 903.987 216.708C878.835 233.275 856.724 245.76 839.654 256.955C822.57 268.124 810.987 278.373 801.72 287.725C792.448 297.017 784.362 305.17 774.097 310.763C763.873 316.341 751.455 319.296 736.026 318.562C720.646 317.839 702.294 313.399 682.537 305.012C662.778 296.641 641.748 284.268 622.382 268.976C602.854 253.688 585.153 235.041 572.302 218.316C559.405 201.594 549.951 186.33 540.881 168.551C533.313 153.629 526.495 138.705 519.492 121.928C512.486 105.174 508.31 89.1832 505.45 74.5657C502.602 59.9404 500.72 47.0074 498.706 35.8471C496.714 24.6811 494.586 15.22 492.934 6.88592C491.288 -1.43798 489.82 -8.50921 491.427 -15.5169C493.002 -22.5208 497.816 -29.5286 505.224 -36.6592C512.616 -43.8105 522.689 -51.0484 534.187 -58.859C545.674 -66.6618 555.092 -74.3287 565.512 -80.2785C574.368 -85.4389 584.995 -87.659 597.518 -90.6584C610.096 -93.5898 624.866 -98.2068 639.703 -97.793C654.624 -97.3236 669.867 -91.7969 684.888 -88.3875C699.948 -85.0756 714.9 -83.8743 730.457 -86.7788C746.003 -89.4758 762.441 -96.9759 780.081 -99.609C797.62 -102.366 814.255 -92.1204 823.504 -70.914C832.902 -49.821 836.188 -22.2804 839.597 -0.614434C843.173 21.1882 847.84 37.5781 860.629 45.2375C873.416 52.8447 889.001 56.0895 905.231 57.9526C921.421 59.84 938.144 60.3853 953.126 61.3071C968.099 62.2409 981.362 63.4787 990.992 65.6601C1000.6 67.8316 1006.6 70.8963 1006.67 75.3886Z" stroke="#88CCF2" stroke-width="1.11666" stroke-miterlimit="10"/>
<path d="M1010.68 71.5193C1011.57 93.4673 1007.47 120.033 987.333 147.536C967.201 174.946 939.045 196.647 913.642 213.743C888.254 230.963 865.528 243.91 847.805 255.301C830.054 266.671 817.459 276.839 807.673 286.117C797.887 295.337 789.5 303.428 779.027 309.011C768.599 314.579 756.069 317.571 740.551 316.935C725.087 316.308 706.65 312.014 686.767 303.775C666.888 295.557 645.707 283.35 626.146 268.145C606.411 252.945 588.409 234.167 575.477 217.399C562.485 200.629 553.141 185.559 544.229 168.114C536.821 153.513 530.163 138.932 523.365 122.352C516.577 105.793 512.276 89.6219 509.543 74.9866C506.823 60.3338 505.138 47.348 503.338 36.126C501.558 24.8939 499.692 15.367 498.297 6.97802C496.903 -1.40667 495.829 -8.56959 497.377 -15.488C498.911 -22.4029 503.689 -29.2836 511.044 -36.2781C518.377 -43.2966 528.362 -50.3822 539.644 -58.1003C550.882 -65.8251 559.505 -73.1318 569.623 -79.1912C578.223 -84.4556 588.66 -87.0569 601.101 -90.5283C613.586 -93.9265 628.249 -98.6484 642.866 -98.141C657.57 -97.579 672.484 -92.231 687.358 -89.4437C702.256 -86.7618 717.128 -86.5963 732.701 -90.6841C748.255 -94.5368 764.837 -103.33 782.728 -106.29C800.539 -109.401 816.817 -97.4552 825.841 -75.3382C835.044 -53.3244 838.188 -25.2172 841.761 -3.44573C845.484 18.453 851.091 34.182 864.243 41.5283C877.383 48.8248 893.174 51.8809 909.479 53.6894C925.732 55.5074 942.406 56.123 957.304 57.148C972.179 58.1814 985.329 59.553 994.907 61.7988C1004.46 64.0391 1010.47 67.1101 1010.68 71.5193Z" stroke="#88CCF2" stroke-width="1.12702" stroke-miterlimit="10"/>
<path d="M1014.57 67.7185C1015.99 89.5041 1014.54 114.347 995.711 142.386C976.85 170.32 949.02 192.836 923.426 210.59C897.879 228.48 874.553 241.921 856.181 253.538C837.79 265.156 824.155 275.274 813.807 284.482C803.455 293.635 794.731 301.656 784.034 307.232C773.373 312.782 760.724 315.817 745.107 315.272C729.543 314.736 711.029 310.587 691.029 302.509C671.041 294.453 649.707 282.418 629.972 267.319C610.048 252.227 591.767 233.361 578.729 216.539C565.637 199.722 556.396 184.842 547.631 167.739C540.376 153.47 533.846 139.238 527.259 122.896C520.677 106.564 516.252 90.206 513.642 75.5514C511.044 60.8707 509.539 47.8253 507.949 36.54C506.387 25.2493 504.764 15.6483 503.615 7.20244C502.477 -1.24146 501.813 -8.53026 503.32 -15.3597C504.808 -22.1888 509.541 -28.954 516.827 -35.8219C524.075 -42.7258 534.623 -49.3557 544.925 -57.3717C555.123 -65.4544 563.796 -71.9564 573.651 -78.1384C582.006 -83.5441 592.294 -86.5398 604.668 -90.4919C617.098 -94.3464 631.549 -99.5746 645.993 -98.3842C660.536 -97.0781 675.076 -92.7145 689.794 -90.6553C704.539 -88.6633 719.328 -89.604 734.92 -94.9171C750.488 -99.9687 767.219 -110.062 785.372 -113.243C803.456 -116.607 819.329 -102.806 828.137 -79.7875C837.158 -56.8536 840.185 -28.2118 843.959 -6.37482C847.87 15.5816 854.443 30.5739 867.969 37.6291C881.447 44.6237 897.425 47.5125 913.794 49.2925C930.107 51.0734 946.707 51.787 961.484 52.9341C976.248 54.096 989.265 55.6227 998.758 57.9534C1008.25 60.2927 1014.24 63.3722 1014.57 67.7185Z" stroke="#88CCF2" stroke-width="1.13706" stroke-miterlimit="10"/>
<path d="M1018.34 63.9706C1020.19 85.6527 1021.29 108.633 1003.88 137.132C986.422 165.521 959.032 188.82 933.316 207.236C907.661 225.792 883.789 239.77 864.779 251.65C845.75 263.544 831.098 273.666 820.136 282.809C809.176 291.909 800.084 299.865 789.126 305.421C778.208 310.957 765.425 314.024 749.696 313.567C734.023 313.117 715.432 309.115 695.321 301.197C675.221 293.298 653.752 281.453 633.86 266.488C613.765 251.53 595.21 232.603 582.064 215.73C568.846 198.855 559.718 184.163 551.091 167.412C543.975 153.473 537.592 139.627 531.177 123.533C524.769 107.446 520.252 90.9262 517.744 76.2468C515.254 61.5347 513.924 48.4309 512.538 37.0818C511.184 25.7263 509.794 16.0535 508.887 7.54756C507.988 -0.953693 507.643 -8.32326 509.24 -15.1332C510.819 -21.9428 515.373 -28.5429 522.574 -35.2964C529.748 -42.0838 540.287 -48.8422 550.048 -56.6009C559.74 -64.4144 568.021 -70.7585 577.615 -77.1166C585.741 -82.6977 595.921 -86.0895 608.234 -90.5446C620.596 -94.9235 634.938 -99.7477 649.061 -98.5793C663.274 -97.3225 677.63 -93.3258 692.203 -92.0277C706.817 -90.775 721.515 -92.9069 737.129 -99.4831C752.711 -105.777 769.615 -117.155 788.028 -120.448C806.414 -123.933 821.809 -108.173 830.42 -84.2604C839.273 -60.4153 842.208 -31.2685 846.221 -9.41292C850.358 12.5612 857.954 26.7598 871.821 33.5261C885.634 40.2356 901.792 42.9819 918.19 44.7495C934.546 46.5259 951.041 47.3529 965.69 48.6583C980.32 49.971 993.16 51.6714 1002.57 54.1155C1011.96 56.5606 1017.92 59.6835 1018.34 63.9706Z" stroke="#88CCF2" stroke-width="1.14711" stroke-miterlimit="10"/>
<path d="M1022.02 60.2899C1024.22 81.9439 1027.71 102.934 1011.82 131.813C995.879 160.575 969.071 184.624 943.299 203.703C917.617 222.926 893.224 237.462 873.597 249.645C853.941 261.848 838.309 272.021 826.683 281.113C815.066 290.171 805.552 298.055 794.313 303.601C783.105 309.114 770.165 312.213 754.316 311.843C738.522 311.479 719.849 307.614 699.637 299.87C679.43 292.137 657.845 280.494 637.8 265.673C617.554 250.863 598.747 231.928 585.467 214.992C572.131 198.063 563.089 183.549 554.587 167.152C547.611 153.555 541.357 140.095 535.1 124.281C528.856 108.467 524.235 91.7957 521.831 77.093C519.437 62.3459 518.264 49.184 517.083 37.7685C515.926 26.3488 514.771 16.6015 514.089 8.03736C513.42 -0.523222 513.296 -7.94281 515.064 -14.7664C516.812 -21.5912 521.138 -28.0362 528.251 -34.681C535.352 -41.3476 545.757 -48.2196 555.011 -55.7528C564.209 -63.3399 572.137 -69.5434 581.487 -76.1187C589.424 -81.8856 599.486 -85.7148 611.772 -90.6821C624.086 -95.611 638.199 -99.8891 652.042 -98.7812C665.975 -97.6059 680.12 -94.0579 694.563 -93.5777C709.04 -93.1363 723.644 -96.5298 739.295 -104.401C754.904 -111.966 771.982 -124.613 790.668 -127.89C809.348 -131.369 824.229 -113.544 832.659 -88.7585C841.355 -64.0143 844.241 -34.3993 848.534 -12.5705C852.926 9.3697 861.578 22.7202 875.788 29.2174C889.916 35.6519 906.247 38.2805 922.656 40.0657C939.033 41.8574 955.41 42.8376 969.906 44.3266C984.382 45.8185 997.049 47.7237 1006.34 50.2926C1015.61 52.8645 1021.53 56.0528 1022.02 60.2899Z" stroke="#88CCF2" stroke-width="1.15747" stroke-miterlimit="10"/>
<path d="M1025.59 56.6519C1028.04 78.3405 1033.77 97.265 1019.5 126.433C1005.2 155.493 979.087 180.235 953.344 199.98C927.72 219.862 902.846 234.987 882.622 247.5C862.377 260.056 845.785 270.316 833.452 279.377C821.102 288.393 811.158 296.231 799.596 301.753C788.081 307.256 774.95 310.372 758.969 310.088C743.045 309.805 724.285 306.082 703.973 298.513C683.677 290.953 661.968 279.511 641.785 264.856C621.387 250.208 602.352 231.309 588.939 214.307C575.464 197.312 566.501 182.963 558.125 166.933C551.28 153.679 545.132 140.614 539.035 125.106C532.945 109.591 528.239 92.8023 525.911 78.0676C523.612 63.2953 522.589 50.0678 521.594 38.5819C520.614 27.087 519.691 17.2777 519.23 8.65227C518.773 0.0256553 518.873 -7.43108 520.797 -14.2804C522.69 -21.1303 526.874 -27.4431 533.869 -34.0008C540.865 -40.5683 551.073 -47.4999 559.838 -54.8515C568.557 -62.2507 576.15 -68.3506 585.297 -75.1589C593.045 -81.1509 603.043 -85.4088 615.309 -90.9131C627.553 -96.4369 641.369 -100.024 654.958 -99.0044C668.605 -97.9729 682.592 -94.9069 696.89 -95.3159C711.227 -95.7494 725.754 -100.474 741.437 -109.675C757.067 -118.551 774.347 -132.426 793.313 -135.541C812.311 -138.848 826.619 -118.915 834.881 -93.2865C843.44 -67.6573 846.297 -37.6278 850.93 -15.8672C855.642 5.99659 865.36 18.4547 879.894 24.6858C894.339 30.8651 910.807 33.3908 927.216 35.2266C943.592 37.0619 959.836 38.2296 974.159 39.9233C988.466 41.626 1000.92 43.755 1010.08 46.472C1019.22 49.1867 1025.07 52.4446 1025.59 56.6519Z" stroke="#88CCF2" stroke-width="1.16751" stroke-miterlimit="10"/>
<path d="M1029.1 53.0577C1031.72 74.8646 1038.55 92.7135 1026.86 121.063C1015.21 149.33 989.091 175.7 963.449 196.073C937.962 216.603 912.652 232.332 891.864 245.208C871.042 258.111 854.374 268.415 840.636 277.568C826.918 286.667 816.922 294.355 805.006 299.876C793.131 305.356 779.803 308.5 763.676 308.299C747.595 308.091 728.754 304.51 708.344 297.117C687.961 289.738 666.138 278.502 645.829 264.025C625.304 249.561 606.069 230.745 592.493 213.668C578.851 196.591 569.986 182.411 561.714 166.745C554.985 153.827 548.95 141.175 542.992 125.99C537.033 110.794 532.242 93.9156 529.99 79.1559C527.751 64.3492 526.89 51.0668 526.071 39.5127C525.284 27.9549 524.572 18.0682 524.315 9.37904C524.079 0.695396 524.382 -6.81105 526.446 -13.6886C528.486 -20.562 532.55 -26.792 539.434 -33.2649C546.329 -39.7386 556.231 -46.7125 564.541 -53.9099C572.825 -61.1441 580.082 -67.1839 589.052 -74.2503C596.655 -80.4747 606.585 -85.1923 618.851 -91.2507C631.054 -97.3931 644.444 -100.179 657.818 -99.2719C671.204 -98.4277 685.02 -95.9134 699.187 -97.2825C713.391 -98.6592 727.836 -104.787 743.554 -115.348C759.216 -125.554 776.691 -140.633 795.966 -143.41C815.267 -146.39 828.963 -124.327 837.093 -97.8798C845.546 -71.3836 848.416 -40.9806 853.418 -19.3511C858.488 2.38223 869.29 13.9041 884.146 19.8928C898.897 25.8317 915.481 28.287 931.878 30.1995C948.245 32.113 964.323 33.4929 978.455 35.4242C992.578 37.369 1004.82 39.7434 1013.81 42.6253C1022.8 45.5203 1028.55 48.8627 1029.1 53.0577Z" stroke="#88CCF2" stroke-width="1.17756" stroke-miterlimit="10"/>
<path d="M1032.55 49.5029C1035.19 71.5027 1043.25 88.5377 1033.8 115.872C1024.41 143.131 999.045 170.993 973.59 191.995C948.355 213.157 922.635 229.501 901.314 242.773C879.947 256.073 862.559 266.558 848.105 275.714C833.654 284.814 822.859 292.48 810.557 297.985C798.292 303.45 784.735 306.614 768.447 306.49C752.204 306.363 733.27 302.917 712.758 295.7C692.275 288.496 670.365 277.484 649.93 263.196C629.281 248.926 609.889 230.251 596.127 213.087C582.314 195.93 573.514 181.889 565.35 166.59C558.735 154.013 552.809 141.78 546.966 126.929C541.136 112.076 536.25 95.1427 534.067 80.3576C531.899 65.534 531.163 52.179 530.516 40.5606C529.899 28.9342 529.394 18.9714 529.339 10.2212C529.294 1.47027 529.809 -6.07691 532.007 -12.9858C534.18 -19.8948 538.191 -26.069 544.938 -32.4685C551.7 -38.8699 561.241 -45.8571 569.123 -52.9241C576.977 -60.0293 583.95 -66.0159 592.761 -73.3731C600.221 -79.8649 610.134 -85.042 622.403 -91.6755C634.557 -98.4805 647.455 -100.321 660.624 -99.5797C673.776 -98.9717 687.413 -97.0871 701.452 -99.4723C715.53 -101.85 729.89 -109.462 745.649 -121.399C761.306 -132.808 779.706 -151.224 798.568 -151.206C817.349 -151.212 831.22 -129.769 839.303 -102.512C847.662 -75.1858 850.577 -44.4593 856.019 -23.0074C861.508 -1.45988 873.386 9.09562 888.549 14.8595C903.589 20.5738 920.295 22.9872 936.651 25.0097C952.98 27.0278 968.888 28.6577 982.812 30.8536C996.714 33.0579 1008.72 35.7071 1017.55 38.7781C1026.35 41.8635 1031.99 45.3133 1032.55 49.5029Z" stroke="#88CCF2" stroke-width="1.18792" stroke-miterlimit="10"/>
<path d="M1035.94 45.9715C1038.7 70.6741 1049.49 88.4811 1037.22 119.901C1024.92 151.247 995.277 179.803 966.966 201.552C938.846 223.51 911.877 239.795 890.272 252.943C868.614 266.107 851.429 276.529 837.202 285.059C823.002 293.543 809.883 299.954 793.828 302.904C777.847 305.828 758.954 305.212 737.269 300.083C715.644 294.964 691.393 285.287 667.972 271.268C644.395 257.261 621.831 238.289 604.779 218.424C587.773 198.561 578.05 183.073 569.031 166.473C562.518 154.226 556.696 142.423 550.959 127.924C545.226 113.416 540.275 96.4819 538.138 81.6799C536.018 66.8367 535.408 53.4203 534.924 41.733C534.463 30.0372 534.159 19.9978 534.298 11.1861C534.454 2.37688 535.149 -5.22555 537.475 -12.1662C539.774 -19.1069 543.778 -25.2632 550.366 -31.6133C556.984 -37.953 566.105 -44.9359 573.581 -51.9007C581.035 -58.9033 587.735 -64.8697 596.418 -72.5371C603.778 -79.3077 613.677 -84.9569 625.952 -92.199C638.061 -99.7042 650.382 -100.482 663.364 -99.9436C676.29 -99.629 689.776 -98.4187 703.666 -101.909C717.616 -105.357 731.864 -114.552 747.698 -127.856C763.385 -140.618 782.313 -160.06 801.109 -159.075C819.81 -158.102 833.489 -135.237 841.498 -107.213C849.795 -79.0825 852.797 -48.0921 858.733 -26.8806C864.698 -5.58014 877.639 3.99414 893.103 9.55104C908.428 15.0602 925.22 17.4577 941.531 19.6322C957.816 21.7954 973.52 23.7028 987.216 26.1944C1000.89 28.6917 1012.64 31.6375 1021.27 34.9137C1029.88 38.2 1035.41 41.7793 1035.94 45.9715Z" stroke="#88CCF2" stroke-width="1.19797" stroke-miterlimit="10"/>
<path d="M1039.3 42.4684C1041.88 67.5624 1053.91 84.4535 1044.16 114.703C1034.41 144.881 1005.51 175.132 977.29 197.541C949.331 220.168 921.841 237.081 899.566 250.578C877.251 264.109 859.045 274.627 844.036 283.144C829.041 291.618 815.461 298.005 799.072 300.988C782.776 303.955 763.693 303.428 741.875 298.462C720.131 293.51 695.767 284.062 672.243 270.288C648.597 256.527 626.078 238.03 608.656 218.003C591.326 197.971 581.672 182.577 572.749 166.376C565.435 152.768 558.932 139.695 552.577 122.762C546.229 105.818 542.245 86.7237 540.782 70.7047C539.353 54.633 539.163 40.6721 539.031 28.764C538.936 16.8483 539.024 6.89437 540.489 -1.8588C541.951 -10.6065 544.963 -18.1656 550.794 -25.3262C556.617 -32.4802 566.517 -39.9774 574.835 -47.8917C583.084 -55.8888 590.196 -62.6322 600.044 -71.7331C607.387 -78.7129 617.432 -86.0537 629.548 -92.605C641.573 -99.2926 653.301 -100.544 666.067 -100.372C678.773 -100.406 692.083 -99.957 705.858 -104.604C719.678 -109.197 733.843 -120.024 749.729 -134.719C765.457 -148.857 784.903 -169.058 803.628 -167.034C822.258 -165.014 835.741 -140.744 843.714 -111.984C851.963 -83.0932 855.109 -51.8818 861.595 -30.9875C868.093 -10.0024 882.088 -1.40434 897.832 3.96262C913.423 9.2923 930.307 11.7179 946.541 14.058C962.756 16.3984 978.261 18.6328 991.7 21.4366C1005.13 24.2568 1016.6 27.5176 1025.03 31.0238C1033.44 34.537 1038.81 38.2472 1039.3 42.4684Z" stroke="#88CCF2" stroke-width="1.20801" stroke-miterlimit="10"/>
<path d="M1042.65 38.9799C1044.91 64.5432 1058.09 80.6062 1050.74 109.675C1043.4 138.668 1015.64 170.295 987.636 193.362C959.938 216.636 931.972 234.191 909.07 248.066C886.125 261.97 867.594 272.538 851.213 281.17C834.864 289.735 821.18 296.013 804.431 299.048C787.754 302.041 768.495 301.62 746.524 296.816C724.636 292.026 700.189 282.816 676.551 269.296C652.854 255.792 630.395 237.903 612.608 217.639C594.979 197.373 585.344 182.11 576.494 166.296C569.279 153.05 562.875 140.478 556.627 123.97C550.389 107.449 546.238 88.2432 544.862 72.1985C543.503 56.0873 543.479 42.0451 543.542 30.0573C543.647 18.0649 543.958 8.03293 545.585 -0.78649C547.224 -9.59106 550.374 -17.1869 556.168 -24.3975C562.001 -31.5931 571.358 -39.023 579.223 -46.8505C587.024 -54.7621 593.857 -61.4856 603.62 -70.9798C610.944 -78.2167 621.436 -86.4055 633.033 -92.9992C644.604 -99.6619 656.144 -100.663 668.697 -100.894C681.2 -101.335 694.349 -101.707 707.987 -107.597C721.677 -113.403 735.738 -125.947 751.704 -142.017C767.483 -157.531 787.424 -178.237 806.092 -175.097C824.642 -171.978 837.969 -146.308 845.924 -116.865C854.171 -87.2547 857.492 -55.8878 864.596 -35.3798C871.694 -14.7807 886.701 -7.14997 902.718 -1.94807C918.576 3.22043 935.517 5.70423 951.667 8.26434C967.794 10.8146 983.067 13.4008 996.245 16.5618C1009.41 19.7359 1020.6 23.34 1028.8 27.0909C1036.98 30.8495 1042.2 34.7211 1042.65 38.9799Z" stroke="#88CCF2" stroke-width="1.21837" stroke-miterlimit="10"/>
<path d="M1045.98 35.4963C1047.82 61.6068 1062.03 76.924 1056.96 104.822C1051.94 132.645 1025.68 165.316 997.993 189.024C970.668 212.909 942.288 231.128 918.787 245.407C895.251 259.727 875.913 270.486 858.745 279.138C841.605 287.729 827.094 294.021 809.94 297.092C792.867 300.124 773.365 299.784 751.251 295.154C729.206 290.528 704.671 281.558 680.926 268.294C657.125 255.046 634.56 237.451 616.647 217.325C598.879 197.199 589.044 181.668 580.295 166.231C573.18 153.34 566.865 141.273 560.706 125.193C554.558 109.101 550.271 89.8607 548.948 73.7812C547.655 57.6431 547.779 43.5154 548.022 31.447C548.298 19.3721 548.817 9.25691 550.617 0.381798C552.403 -8.49416 555.67 -16.1377 561.446 -23.3986C567.233 -30.6533 576.056 -38.0295 583.527 -45.7836C590.904 -53.639 597.494 -60.3617 607.193 -70.2732C614.522 -77.7827 625.325 -86.7559 636.46 -93.3774C647.612 -100.01 658.958 -100.826 671.307 -101.515C683.612 -102.422 696.594 -103.692 710.098 -110.896C723.656 -117.985 737.621 -132.321 753.669 -149.746C769.515 -166.625 789.93 -187.568 808.547 -183.247C827.044 -178.969 840.193 -151.948 848.185 -121.853C856.468 -91.5699 860.025 -60.1101 867.798 -40.071C875.562 -19.9397 891.541 -13.2408 907.815 -8.16972C923.923 -3.13251 940.923 -0.549538 956.961 2.26123C972.982 5.05828 988.007 8.04169 1000.9 11.5838C1013.78 15.1402 1024.67 19.116 1032.63 23.1252C1040.58 27.1549 1045.59 31.1763 1045.98 35.4963Z" stroke="#88CCF2" stroke-width="1.22842" stroke-miterlimit="10"/>
<path d="M1049.32 32.0136C1050.63 58.7544 1065.74 73.3946 1062.84 100.151C1059.98 126.8 1035.56 160.218 1008.33 184.542C981.493 209.01 952.755 227.889 928.702 242.596C904.589 257.344 884.492 268.343 866.538 277.052C848.616 285.71 833.195 292.003 815.609 295.117C798.094 298.193 778.349 297.947 756.052 293.476C733.821 289.004 709.203 280.279 685.354 267.282C661.457 254.3 638.789 237.005 620.755 217.044C602.837 197.078 592.791 181.245 584.137 166.178C577.108 153.627 570.872 142.058 564.801 126.428C558.714 110.777 554.298 91.5529 553.023 75.4468C551.764 59.2811 552.045 45.0814 552.451 32.9327C552.909 20.7815 553.624 10.5839 555.566 1.63852C557.516 -7.30213 560.875 -14.9979 566.615 -22.3271C572.364 -29.6473 580.644 -36.9816 587.729 -44.6899C594.711 -52.5128 601.073 -59.2575 610.749 -69.5994C618.088 -77.4079 629.091 -87.0963 639.811 -93.7286C650.597 -100.319 661.712 -101.036 673.87 -102.241C685.98 -103.677 698.801 -105.929 712.17 -114.512C725.587 -122.958 739.463 -139.151 755.605 -157.899C771.521 -176.137 792.423 -197.013 810.982 -191.474C829.416 -186.008 842.444 -157.646 850.489 -126.971C858.837 -96.0729 862.667 -64.5897 871.205 -45.0955C879.712 -25.5173 896.589 -19.6955 913.112 -14.7304C929.456 -9.80004 946.498 -7.06967 962.413 -3.97092C978.312 -0.881583 993.066 2.53284 1005.67 6.48636C1018.25 10.4596 1028.82 14.8238 1036.52 19.113C1044.21 23.4324 1049.03 27.6402 1049.32 32.0136Z" stroke="#88CCF2" stroke-width="1.23846" stroke-miterlimit="10"/>
</g>
<defs>
<clipPath id="clip0_6836_78497">
<rect width="700" height="801.048" fill="white" transform="translate(0 353.219) rotate(-60)"/>
</clipPath>
</defs>
</svg>
