<svg width="767" height="589" viewBox="0 0 767 589" fill="none" xmlns="http://www.w3.org/2000/svg">
<g clip-path="url(#clip0_6836_79050)">
<path d="M580.091 301.85C562.589 282.837 540.946 265.123 520.033 255.005C499.153 244.63 478.217 241.81 458.163 243.767C438.202 245.534 419.275 251.393 402.896 255.771C386.48 260.283 375.082 266.533 366.638 269.669C358.112 273.006 352.71 273.541 348.339 271.015C343.916 268.56 340.297 263.174 334.851 256.615C329.301 250.113 321.928 242.658 308.867 236.413C295.859 230.003 275.388 226.41 251.298 217.366C227.765 208.602 201.878 188.846 215.824 136.532C226.82 95.8325 253.031 50.5089 277.159 13.0045C301.375 -24.9351 323.17 -56.123 334.81 -82.7577C346.52 -109.344 346.569 -133.14 344.352 -151.435C342.09 -169.57 338.21 -183.594 338.061 -196.394C337.819 -209.161 341.327 -220.685 349.928 -231.763C358.435 -242.856 371.95 -253.369 387.89 -263.145C403.904 -272.995 421.771 -282.109 438.864 -291.357C456.262 -300.43 472.6 -311.042 492.037 -317.043C511.436 -323.047 535.073 -318.735 563.028 -315.573C588.807 -312.951 617.395 -302.792 645.711 -281.726C674.008 -260.816 701.316 -229.327 722.799 -192.804C744.456 -156.152 758.168 -113.079 765.6 -75.5075C773.1 -37.7614 775.6 -4.23733 775.644 26.7646C775.7 57.7665 773.245 87.8719 765.593 114.38C757.986 140.948 746.257 163.546 733.397 182.593C720.552 201.694 706.617 217.407 694.416 231.621C682.181 245.82 670.597 256.601 660.033 264.096C649.457 271.566 639.9 276.792 631.668 281.803C623.443 286.799 616.561 291.572 610.639 296.058C604.713 300.529 599.829 304.781 594.781 306.522C589.756 308.274 584.849 307.039 580.091 301.85Z" stroke="#C4E2F5" stroke-width="0.733943" stroke-miterlimit="10"/>
<path d="M582.006 307.121C564.448 288.067 543.136 270.294 522.219 259.829C501.328 249.157 480.429 245.973 460.394 247.669C440.455 249.157 421.521 254.83 405.086 259.1C388.633 263.467 376.658 268.943 368.009 271.871C359.301 274.955 353.736 275.345 349.622 272.459C345.467 269.639 342.327 263.799 337.61 256.6C332.793 249.458 326.417 241.144 314.688 233.89C302.989 226.48 284.337 221.607 261.69 211.984C239.646 202.598 213.376 184.006 226.44 133.117C236.744 93.6637 262.148 49.4449 285.91 12.7068C309.751 -24.4441 331.576 -55.0964 343.651 -81.2735C355.812 -107.41 356.44 -130.942 354.324 -149.211C352.166 -167.342 348.439 -181.407 348.338 -194.166C348.149 -206.914 351.604 -218.334 360.034 -229.245C368.374 -240.17 381.576 -250.449 397.155 -259.987C412.816 -269.595 430.277 -278.489 447.151 -287.436C464.311 -296.196 480.671 -306.419 500.219 -311.396C519.749 -316.37 543.125 -312.017 570.839 -308.829C596.432 -306.158 624.733 -295.761 652.584 -274.472C680.42 -253.343 707.081 -221.694 727.85 -185.283C748.785 -148.72 761.031 -105.814 767.854 -69.0424C774.736 -32.0812 776.982 0.702597 776.874 31.3214C776.778 61.9438 774.021 91.9153 766.25 118.171C758.52 144.478 746.896 166.909 734.274 185.914C721.663 204.968 708.086 220.744 696.26 235.047C684.412 249.328 672.635 259.803 661.929 267.277C651.219 274.735 641.48 280.058 633.144 285.24C624.815 290.407 617.903 295.459 612.037 300.246C606.159 305.012 601.331 309.676 596.435 311.57C591.57 313.43 586.738 312.269 582.006 307.121Z" stroke="#C4E2F5" stroke-width="0.745846" stroke-miterlimit="10"/>
<path d="M584.002 312.436C566.318 293.312 545.386 275.519 524.45 264.706C503.54 253.736 482.672 250.216 462.655 251.645C442.731 252.869 423.8 258.367 407.302 262.518C390.811 266.737 378.294 271.468 369.433 274.177C360.528 277.007 354.866 277.186 350.837 274.002C346.76 270.911 344.197 264.564 340.161 256.752C336.024 249 330.586 239.905 320.133 231.673C309.687 223.314 292.776 217.217 271.603 206.961C251.072 196.902 224.668 179.296 236.858 129.813C246.478 91.5763 271.067 48.4437 294.428 12.4868C317.856 -23.8792 339.655 -53.9958 352.117 -79.7191C364.664 -105.394 366.011 -128.659 364.024 -146.916C362.008 -165.028 358.456 -179.145 358.441 -191.883C358.329 -204.608 361.766 -215.947 370.028 -226.69C378.208 -237.459 391.105 -247.499 406.327 -256.81C421.635 -266.173 438.698 -274.844 455.356 -283.482C472.282 -291.926 488.661 -301.684 508.302 -305.627C527.928 -309.525 550.999 -305.374 578.497 -302.126C603.919 -299.374 631.945 -288.72 659.331 -267.204C686.665 -245.881 712.876 -215.221 732.763 -177.635C752.724 -139.997 763.683 -98.7912 769.995 -62.7265C776.316 -26.5427 778.347 5.51567 778.105 35.7848C777.878 66.0687 774.805 95.9063 766.949 121.897C759.133 147.948 747.635 170.242 735.266 189.187C722.905 208.196 709.692 224.032 698.245 238.424C686.788 252.802 674.724 262.946 663.869 270.412C653.018 277.867 643.094 283.305 634.661 288.677C626.231 294.045 619.308 299.353 613.509 304.472C607.698 309.561 602.97 314.612 598.227 316.64C593.496 318.645 588.734 317.588 584.002 312.436Z" stroke="#C4E2F5" stroke-width="0.75775" stroke-miterlimit="10"/>
<path d="M586.087 317.794C568.202 298.569 547.682 280.765 526.721 269.617C505.785 258.357 484.946 254.503 464.944 255.678C445.042 256.645 426.1 261.961 409.546 266.016C393.015 270.089 380.003 274.129 370.911 276.581C361.79 279.11 356.013 279.103 352.055 275.613C348.052 272.206 345.917 265.45 342.513 257.051C339.013 248.722 334.452 238.872 325.208 229.728C315.953 220.469 300.712 213.193 281.03 202.282C262.018 191.513 235.77 174.666 247.075 126.604C256.043 89.5609 279.784 47.5183 302.717 12.3277C325.707 -23.2683 347.435 -52.838 360.224 -78.115C373.11 -103.347 375.26 -126.296 373.433 -144.557C371.584 -162.688 368.244 -176.842 368.33 -189.56C368.318 -202.271 371.748 -213.517 379.861 -224.111C387.893 -234.713 400.492 -244.552 415.361 -253.618C430.318 -262.739 446.991 -271.187 463.441 -279.486C480.14 -287.596 496.537 -296.847 516.242 -299.737C535.939 -302.55 558.678 -298.8 585.972 -295.471C611.237 -292.599 638.988 -281.673 665.909 -259.919C692.797 -238.37 718.766 -207.416 737.388 -169.819C756.099 -132.177 766.176 -91.8378 771.99 -56.5617C777.801 -21.1666 779.661 10.2036 779.296 40.1565C778.947 70.1317 775.569 99.8131 767.649 125.559C759.771 151.364 748.425 173.501 736.324 192.417C724.23 211.389 711.393 227.291 700.315 241.755C689.241 256.214 676.812 266.035 665.801 273.519C654.802 281 644.694 286.55 636.176 292.126C627.661 297.695 620.742 303.301 615.024 308.747C609.296 314.159 604.724 319.549 600.126 321.744C595.547 323.928 590.841 322.942 586.087 317.794Z" stroke="#C4E2F5" stroke-width="0.770026" stroke-miterlimit="10"/>
<path d="M588.288 323.217C570.127 303.877 550.047 286.059 529.044 274.586C508.071 263.025 487.258 258.855 467.267 259.792C447.377 260.499 428.431 265.659 411.829 269.613C395.257 273.549 381.791 276.937 372.457 279.11C363.109 281.349 357.191 281.107 353.27 277.321C349.308 273.619 347.515 266.458 344.692 257.504C341.783 248.617 338.04 238.064 329.95 228.057C321.825 217.943 308.181 209.551 289.994 197.956C272.499 186.457 246.634 170.201 257.095 123.516C265.416 87.6226 288.316 46.681 310.796 12.2493C333.316 -22.5693 354.929 -51.6145 368.005 -76.4376C381.177 -101.242 384.201 -123.859 382.557 -142.106C380.898 -160.248 377.792 -174.45 378 -187.154C378.112 -199.858 381.553 -211.021 389.524 -221.459C397.422 -231.92 409.727 -241.524 424.254 -250.363C438.869 -259.25 455.166 -267.456 471.415 -275.409C487.894 -283.154 504.314 -291.896 524.048 -293.693C543.782 -295.378 566.184 -292.261 593.291 -288.805C618.412 -285.784 645.891 -274.554 672.347 -252.58C698.788 -230.815 724.326 -199.448 741.739 -161.966C759.245 -124.436 768.526 -85.0381 773.886 -50.5208C779.236 -15.9217 780.962 14.7974 780.489 44.4751C780.035 74.1638 776.345 103.689 768.392 129.193C760.487 154.782 749.312 176.748 737.491 195.635C725.661 214.554 713.341 230.948 702.505 245.072C691.289 259.703 678.942 269.103 667.76 276.632C656.601 284.147 646.322 289.831 637.733 295.623C629.14 301.4 622.243 307.311 616.634 313.11C611.002 318.857 606.638 324.593 602.178 326.93C597.736 329.273 593.075 328.347 588.288 323.217Z" stroke="#C4E2F5" stroke-width="0.78193" stroke-miterlimit="10"/>
<path d="M590.609 328.699C572.091 309.232 552.468 291.388 531.417 279.596C510.399 267.751 489.609 263.258 469.629 263.957C449.753 264.433 430.804 269.41 414.146 273.272C397.529 277.092 383.65 279.889 374.075 281.742C364.489 283.65 358.407 283.185 354.49 279.101C350.532 275.109 348.995 267.558 346.719 258.079C344.353 248.668 341.388 237.467 334.383 226.624C327.338 215.709 315.207 206.253 298.512 193.951C282.516 181.728 257.277 165.87 266.934 120.528C274.63 85.7647 296.689 45.8982 318.689 12.2254C340.722 -21.8269 362.183 -50.3439 375.489 -74.7206C388.903 -99.1048 392.838 -121.343 391.399 -139.585C389.948 -157.727 387.095 -171.997 387.441 -184.682C387.694 -197.363 391.164 -208.463 399.002 -218.756C406.777 -229.083 418.8 -238.457 432.991 -247.061C447.276 -255.71 463.208 -263.682 479.264 -271.271C495.531 -278.655 511.969 -286.809 531.707 -287.519C551.453 -288.077 573.519 -285.771 600.455 -282.159C625.442 -278.967 652.65 -267.398 678.633 -245.216C704.621 -223.228 729.559 -191.378 745.815 -154.134C762.172 -116.83 770.724 -78.3922 775.683 -44.6226C780.626 -10.7861 782.241 19.3118 781.679 48.7328C781.132 78.1761 777.137 107.526 769.177 132.785C761.268 158.147 750.29 179.965 738.759 198.825C727.208 217.673 716.238 233.885 704.673 248.356C693.1 262.793 681.085 272.163 669.747 279.737C658.427 287.3 647.985 293.132 639.336 299.155C630.683 305.144 623.831 311.408 618.341 317.546C612.835 323.666 608.714 329.673 604.387 332.173C600.083 334.658 595.459 333.825 590.609 328.699Z" stroke="#C4E2F5" stroke-width="0.793833" stroke-miterlimit="10"/>
<path d="M593.069 334.244C574.127 314.617 554.951 296.773 533.84 284.646C512.77 272.489 491.995 267.705 472.026 268.17C452.161 268.393 433.212 273.237 416.498 277.005C399.833 280.718 385.597 282.983 375.762 284.505C365.926 286.056 359.665 285.345 355.719 280.963C351.734 276.674 350.377 268.762 348.591 258.785C346.727 248.868 344.484 237.023 338.514 225.417C332.491 213.733 321.804 203.261 306.589 190.271C292.07 177.318 267.694 161.68 276.577 117.651C283.678 83.9704 304.893 45.1827 326.398 12.2576C347.925 -21.0284 369.192 -49.0246 382.695 -72.9623C396.307 -96.915 401.176 -118.74 399.956 -136.994C398.732 -155.139 396.143 -169.465 396.641 -182.146C397.047 -194.824 400.555 -205.857 408.281 -215.997C415.944 -226.183 427.692 -235.356 441.563 -243.726C455.528 -252.133 471.111 -259.881 486.984 -267.072C503.05 -274.069 519.485 -281.639 539.215 -281.223C558.328 -280.62 580.704 -279.288 607.469 -275.528C632.325 -272.135 659.265 -260.242 684.769 -237.841C710.302 -215.633 734.467 -183.255 749.63 -146.353C764.9 -109.388 772.782 -71.8985 777.388 -38.8841C781.971 -5.82874 783.511 23.7075 782.86 52.909C782.227 82.1439 777.935 111.271 770 136.31C762.114 161.442 751.352 183.151 740.129 201.963C728.872 220.775 718.352 237.254 706.906 251.557C695.438 265.812 683.262 275.171 671.764 282.816C660.284 290.445 649.686 296.438 640.996 302.699C632.303 308.944 625.51 315.521 620.165 322.031C614.801 328.522 610.965 334.798 606.773 337.454C602.599 340.132 597.998 339.377 593.069 334.244Z" stroke="#C4E2F5" stroke-width="0.806109" stroke-miterlimit="10"/>
<path d="M595.69 339.869C576.239 320.079 557.509 302.197 536.328 289.758C515.198 277.322 494.434 272.211 474.473 272.453C454.619 272.453 435.663 277.132 418.9 280.815C402.187 284.412 387.638 286.279 377.539 287.414C367.443 288.578 360.985 287.581 356.986 282.917C352.946 278.323 351.681 270.076 350.35 259.608C348.943 249.203 347.374 236.775 342.381 224.421C337.33 212.007 328.015 200.591 314.259 186.898C301.183 173.212 277.889 157.655 286.043 114.891C292.575 82.2599 312.953 44.5323 333.945 12.3512C354.947 -20.1573 375.995 -47.6476 389.651 -71.1538C403.414 -94.7047 409.229 -116.065 408.235 -134.315C407.242 -152.475 404.932 -166.857 405.598 -179.519C406.171 -192.197 409.727 -203.141 417.346 -213.159C424.904 -223.187 436.395 -232.171 449.958 -240.314C463.614 -248.479 478.87 -255.99 494.568 -262.782C510.411 -269.408 527.359 -275.382 546.453 -274.876C565.533 -274.225 587.733 -272.882 614.342 -268.879C639.076 -265.252 665.744 -253.014 690.764 -230.423C715.837 -208.003 739.079 -175.096 753.207 -138.611C767.454 -102.07 774.734 -65.5405 779.027 -33.2663C783.29 -0.951275 784.789 28.0307 784.053 57.0611C783.339 86.11 778.77 115.003 770.884 139.818C763.046 164.723 752.523 186.31 741.616 205.096C730.664 223.885 720.576 240.602 709.219 254.727C697.832 268.822 685.482 278.207 673.824 285.922C662.184 293.641 651.445 299.798 642.729 306.315C634.009 312.806 627.306 319.729 622.12 326.622C616.924 333.511 613.408 340.01 609.342 342.83C605.299 345.657 600.716 344.995 595.69 339.869Z" stroke="#C4E2F5" stroke-width="0.818013" stroke-miterlimit="10"/>
<path d="M598.477 345.56C578.442 325.607 560.132 307.669 538.865 294.91C517.662 282.147 496.908 276.782 476.954 276.771C457.105 276.533 438.155 281.083 421.341 284.684C404.583 288.188 389.767 289.735 379.399 290.457C369.032 291.193 362.369 289.929 358.285 284.944C354.167 280.045 352.917 271.463 351.991 260.53C350.997 249.638 350.06 236.663 345.994 223.61C341.861 210.512 333.852 198.199 321.524 183.81C309.859 169.41 287.848 153.772 295.318 112.235C301.307 80.6156 320.862 43.9222 341.333 12.4887C361.804 -19.2795 382.598 -46.2415 396.366 -69.32C410.245 -92.4654 416.993 -113.331 416.234 -131.573C415.479 -149.741 413.459 -164.167 414.296 -176.826C415.044 -189.496 418.659 -200.384 426.185 -210.253C433.651 -220.148 444.892 -228.942 458.161 -236.851C471.527 -244.778 486.466 -252.036 502.001 -258.412C517.628 -264.691 534.468 -269.207 553.507 -268.612C572.512 -267.927 594.597 -266.502 621.057 -262.236C645.672 -258.371 672.057 -245.775 696.594 -222.987C721.198 -200.369 743.38 -166.931 756.537 -130.963C769.821 -94.9094 776.561 -59.3729 780.586 -27.7981C784.578 3.77667 786.051 32.2751 785.24 61.1529C784.444 90.053 779.623 118.663 771.815 143.274C764.055 167.974 753.784 189.416 743.201 208.191C732.558 226.954 722.883 243.85 711.589 257.837C700.262 271.79 687.726 281.205 675.911 289.021C664.115 296.848 653.249 303.187 644.53 309.961C635.803 316.727 629.215 323.974 624.215 331.279C619.205 338.552 616.039 345.266 612.1 348.261C608.194 351.252 603.614 350.701 598.477 345.56Z" stroke="#C4E2F5" stroke-width="0.829917" stroke-miterlimit="10"/>
<path d="M601.454 351.327C580.76 331.21 562.842 313.209 541.474 300.111C520.185 287.025 499.435 281.363 479.485 281.14C459.643 280.675 440.694 285.086 423.831 288.609C407.021 292.043 391.996 293.404 381.35 293.657C370.703 293.932 363.821 292.355 359.633 287.062C355.411 281.832 354.105 272.945 353.543 261.558C352.926 250.227 352.576 236.698 349.381 222.975C346.118 209.23 339.344 196.061 328.419 180.999C318.115 165.907 297.588 150.046 304.422 109.699C309.905 79.0506 328.65 43.3913 348.588 12.6796C368.516 -18.341 389.031 -44.8046 402.884 -67.4478C416.845 -90.184 424.505 -110.521 423.984 -128.756C423.467 -146.932 421.741 -161.413 422.76 -174.057C423.69 -186.701 427.373 -197.549 434.813 -207.28C442.2 -217.03 453.204 -225.649 466.198 -233.323C479.284 -241.02 493.93 -248.039 509.308 -253.965C524.746 -259.835 541.433 -263.124 560.424 -262.421C579.358 -261.677 601.343 -260.148 627.654 -255.58C652.15 -251.432 678.249 -238.475 702.294 -215.542C726.418 -192.731 747.417 -158.806 759.671 -123.414C772.054 -87.926 778.315 -53.3604 782.113 -22.4738C785.87 8.39048 787.347 36.4313 786.458 65.2013C785.58 93.9787 780.536 122.291 772.832 146.679C765.169 171.175 755.177 192.486 744.925 211.235C734.606 229.965 725.306 247.013 714.057 260.877C702.767 274.715 690.045 284.171 678.078 292.106C666.129 300.037 655.155 306.573 646.451 313.63C637.739 320.653 631.285 328.286 626.497 335.986C621.702 343.664 618.908 350.565 615.084 353.73C611.301 356.93 606.722 356.45 601.454 351.327Z" stroke="#C4E2F5" stroke-width="0.842193" stroke-miterlimit="10"/>
<path d="M604.628 357.179C583.205 336.894 565.624 318.819 544.149 305.379C522.763 291.957 502.013 286.005 482.067 285.559C462.232 284.871 443.283 289.145 426.372 292.597C409.513 295.949 394.332 297.284 383.4 297.031C372.467 296.801 365.354 294.9 361.035 289.275C356.69 283.729 355.255 274.518 355.016 262.689C354.726 250.904 354.923 236.847 352.554 222.506C350.11 208.147 344.511 194.16 334.947 178.458C325.96 162.693 307.081 146.523 313.338 107.289C318.349 77.5553 336.298 42.9116 355.705 12.9215C375.089 -17.355 395.3 -43.3016 409.205 -65.543C423.21 -87.8701 431.755 -107.649 431.476 -125.865C431.197 -144.052 429.765 -158.556 430.97 -171.197C432.086 -183.841 435.847 -194.614 443.209 -204.218C450.526 -213.86 461.306 -222.271 474.039 -229.718C486.866 -237.181 501.236 -243.925 516.469 -249.408C531.732 -254.854 548.245 -257.075 567.186 -256.268C586.061 -255.453 607.953 -253.768 634.112 -248.895C658.489 -244.475 684.297 -231.143 707.841 -208.065C731.477 -185.098 751.185 -150.729 762.598 -115.963C774.141 -81.0961 779.989 -47.4791 783.594 -17.2658C787.157 12.9178 788.645 40.5383 787.682 69.2338C786.722 97.9294 781.492 125.873 773.914 150.064C766.378 174.348 756.676 195.57 746.762 214.278C736.774 232.989 727.817 250.13 716.594 263.905C705.322 277.662 692.407 287.181 680.302 295.231C668.212 303.292 657.146 310.036 648.478 317.379C639.803 324.7 633.517 332.698 628.963 340.807C624.407 348.906 621.996 355.955 618.291 359.299C614.631 362.666 610.044 362.316 604.628 357.179Z" stroke="#C4E2F5" stroke-width="0.854096" stroke-miterlimit="10"/>
<path d="M608.016 363.1C585.785 342.678 568.495 324.495 546.89 310.697C525.388 296.926 504.642 290.677 484.692 290.007C464.861 289.092 445.916 293.221 428.96 296.625C412.057 299.939 396.779 301.372 385.549 300.572C374.318 299.802 366.964 297.559 362.5 291.577C358.014 285.677 356.381 276.158 356.429 263.901C356.429 251.681 357.128 237.11 355.536 222.182C353.866 207.213 349.38 192.508 341.14 176.159C333.418 159.758 316.343 143.159 322.079 104.993C326.655 76.1595 343.83 42.4941 362.697 13.2033C381.535 -16.3627 401.425 -41.807 415.349 -63.6207C429.373 -85.5534 438.77 -104.711 438.729 -122.916C438.684 -141.099 437.546 -155.652 438.937 -168.274C440.239 -180.906 444.082 -191.616 451.38 -201.098C458.634 -210.606 469.21 -218.827 481.694 -226.059C494.271 -233.291 508.392 -239.774 523.48 -244.781C538.583 -249.785 554.914 -251.128 573.807 -250.183C592.626 -249.242 614.436 -247.4 640.439 -242.207C664.696 -237.468 690.2 -223.801 713.238 -200.596C736.383 -177.477 754.7 -142.74 765.343 -108.654C776.112 -74.4606 781.595 -41.7847 785.047 -12.2038C788.455 17.3287 789.98 44.5661 788.934 73.2282C787.885 101.894 782.51 129.381 775.089 153.389C767.701 177.468 758.308 198.568 748.737 217.26C739.084 235.938 730.442 253.172 719.227 266.865C707.959 280.532 694.85 290.156 682.615 298.344C670.391 306.546 659.254 313.499 650.653 321.15C642.031 328.754 635.554 337.202 631.749 345.669C627.921 354.098 625.328 361.363 621.746 364.901C618.197 368.464 613.595 368.222 608.016 363.1Z" stroke="#C4E2F5" stroke-width="0.866" stroke-miterlimit="10"/>
<path d="M611.637 369.097C588.461 348.541 570.71 329.197 549.67 316.006C528.66 302.841 507.3 295.383 487.38 294.501C467.549 293.355 448.614 297.354 431.614 300.702C414.666 303.957 399.355 305.713 387.816 304.303C376.276 302.957 368.673 300.315 364.049 293.98C359.403 287.709 357.521 277.895 357.807 265.207C358.052 252.54 359.217 237.497 358.354 221.996C357.413 206.476 353.975 191.068 347.015 174.098C340.509 157.072 325.373 139.975 330.64 102.835C334.818 74.8242 351.245 42.126 369.577 13.5421C387.868 -15.3097 407.42 -40.237 421.336 -61.6563C435.319 -83.1427 443.812 -101.731 445.605 -119.888C447.346 -137.978 445.065 -152.635 446.661 -165.264C448.153 -177.882 452.081 -188.536 459.324 -197.884C466.526 -207.277 476.904 -215.323 489.162 -222.313C501.512 -229.303 515.391 -235.526 530.349 -240.046C545.306 -244.58 561.451 -245.202 580.292 -244.112C599.059 -243.048 620.788 -241.013 646.634 -235.481C670.769 -230.437 695.952 -216.42 718.48 -193.104C741.124 -169.858 757.975 -134.835 767.907 -101.463C777.966 -67.9579 783.14 -36.2083 786.47 -7.25233C789.747 21.6441 791.443 48.4574 790.186 77.2348C788.914 105.96 783.576 132.859 776.34 156.693C769.12 180.586 760.054 201.562 750.825 220.236C741.514 238.888 733.152 256.182 721.929 269.816C710.657 283.438 697.355 293.155 684.997 301.495C672.655 309.864 661.469 317.036 652.954 324.993C644.413 332.898 638.264 341.837 634.76 350.598C631.229 359.317 628.89 366.858 625.43 370.585C622.011 374.323 617.391 374.219 611.637 369.097Z" stroke="#C4E2F5" stroke-width="0.878276" stroke-miterlimit="10"/>
<path d="M615.492 375.162C591.353 354.501 573.293 334.875 552.443 321.319C531.622 307.742 510.036 300.127 490.112 299.029C470.281 297.638 451.354 301.525 434.316 304.81C417.324 308.073 402.329 310.305 390.257 308.27C378.171 306.358 370.467 303.229 365.665 296.485C360.837 289.845 359.222 279.596 359.203 266.577C359.133 253.616 361.171 237.993 361.008 221.926C360.751 205.875 358.311 189.79 352.586 172.243C347.162 154.648 335.593 136.286 339.097 100.757C341.813 73.9809 358.53 41.7589 376.341 13.9077C394.093 -14.2447 413.291 -38.681 427.182 -59.6912C441.131 -80.7646 449.899 -99.0406 452.202 -116.859C454.463 -134.618 452.384 -149.583 454.158 -162.198C455.84 -174.793 459.857 -185.384 467.048 -194.613C474.201 -203.876 484.402 -211.743 496.447 -218.51C508.581 -225.269 522.244 -231.199 537.072 -235.227C551.896 -239.275 567.858 -239.353 586.655 -238.084C605.37 -236.875 627.024 -234.606 652.71 -228.743C676.711 -223.368 701.575 -209.024 723.586 -185.633C745.712 -162.283 761.038 -127.078 770.327 -94.4353C779.734 -61.6664 784.652 -30.8282 787.892 -2.44511C791.088 25.8822 792.881 52.6657 791.46 81.1901C790.024 109.659 784.741 136.282 777.696 159.926C770.673 183.618 761.942 204.498 753.059 223.146C744.086 241.776 735.981 259.089 724.739 272.696C713.449 286.281 699.957 296.117 687.499 304.624C675.048 313.15 663.84 320.572 655.444 328.845C647.015 337.062 641.245 346.466 638.042 355.528C634.813 364.552 632.73 372.342 629.386 376.285C626.086 380.236 621.44 380.262 615.492 375.162Z" stroke="#C4E2F5" stroke-width="0.89018" stroke-miterlimit="10"/>
<path d="M619.602 381.296C594.436 360.561 575.982 340.648 555.254 326.713C534.549 312.738 512.821 304.911 492.897 303.598C473.062 301.98 454.15 305.722 437.072 308.958C420.042 312.142 404.965 314.389 392.775 312.321C380.581 310.327 372.356 306.239 367.36 299.111C362.339 292.066 360.605 281.464 360.657 268.024C360.661 254.647 363.045 238.577 363.518 221.982C363.901 205.41 362.398 188.708 357.863 170.606C353.589 152.468 343.653 133.601 347.325 98.8378C350.148 72.7313 365.705 41.5397 382.988 14.3321C400.207 -13.1285 419.041 -37.0848 432.88 -57.6895C446.777 -78.3761 455.791 -96.3136 458.566 -113.808C461.315 -131.233 459.462 -146.44 461.412 -159.047C463.279 -171.638 467.386 -182.155 474.539 -191.257C481.659 -200.379 491.684 -208.098 503.536 -214.626C515.47 -221.136 528.932 -226.786 543.641 -230.302C558.345 -233.843 574.14 -233.486 592.885 -232.069C611.552 -230.689 633.138 -228.185 658.65 -221.973C680.679 -216.687 703.248 -203.894 723.518 -183.401C743.877 -162.96 758.798 -132.088 768.187 -102.388C777.676 -72.5916 783.037 -43.7286 786.794 -17.291C790.529 9.13907 792.776 33.6609 793.189 59.2019C793.624 84.7802 791.076 111.393 786.169 134.858C781.3 158.424 774.462 179.69 766.996 198.815C759.527 217.946 751.41 235.021 743.542 250.592C735.678 266.157 725.389 279.463 713.734 289.752C702.087 300.06 689.648 307.995 678.938 315.583C668.225 323.157 659.29 330.567 652.835 338.833C646.348 347.043 642.706 356.51 640.314 364.727C637.9 372.926 636.01 379.674 632.848 382.94C629.72 386.225 625.274 385.964 619.602 381.296Z" stroke="#C4E2F5" stroke-width="0.902084" stroke-miterlimit="10"/>
<path d="M623.975 387.498C597.716 366.715 578.8 346.516 558.125 332.198C537.472 317.839 515.669 309.763 495.738 308.204C475.896 306.333 456.998 309.956 439.887 313.141C422.827 316.277 407.668 318.538 395.363 316.422C383.057 314.35 374.356 309.398 369.152 301.866C363.93 294.388 362.058 283.418 362.144 269.558C362.189 255.753 364.845 239.24 365.912 222.147C366.894 205.069 366.28 187.779 362.888 169.161C359.719 150.498 351.371 131.143 355.318 97.0721C358.327 71.572 372.779 41.3847 389.541 14.8095C406.24 -11.9852 424.698 -35.4505 438.466 -55.6609C452.289 -75.9605 461.518 -93.5781 464.74 -110.742C467.946 -127.846 466.336 -143.236 468.456 -155.824C470.506 -168.379 474.705 -178.832 481.822 -187.823C488.912 -196.836 498.781 -204.354 510.45 -210.656C522.198 -216.931 535.47 -222.277 550.064 -225.279C564.653 -228.299 580.307 -227.656 598.999 -226.06C617.621 -224.497 639.134 -221.737 664.467 -215.172C686.366 -209.584 708.626 -196.494 728.431 -175.941C748.332 -155.426 761.799 -124.346 770.596 -95.3153C779.494 -66.1697 784.587 -38.14 788.255 -12.2827C791.893 13.5373 794.199 37.6871 794.586 63.1686C794.995 88.6688 792.306 115.028 787.518 138.274C782.768 161.617 776.187 182.716 769.03 201.751C761.862 220.805 754.091 237.864 746.48 253.488C738.88 269.108 728.427 282.284 716.668 292.659C704.925 303.063 692.366 311.162 681.653 318.962C670.932 326.771 662.101 334.43 655.855 343.03C649.576 351.582 646.391 361.377 644.271 369.877C642.128 378.34 640.451 385.345 637.378 388.797C634.335 392.249 629.841 392.137 623.975 387.498Z" stroke="#C4E2F5" stroke-width="0.914359" stroke-miterlimit="10"/>
<path d="M628.626 393.749C601.222 372.988 581.759 352.454 561.065 337.764C540.386 323.007 518.576 314.667 498.637 312.84C478.784 310.724 459.905 314.194 442.764 317.341C425.674 320.414 410.437 322.709 398.017 320.552C385.596 318.42 376.46 312.703 371.036 304.734C365.594 296.792 363.566 285.454 363.667 271.158C363.723 256.93 366.58 239.967 368.198 222.401C369.738 204.851 369.957 187.006 367.658 167.886C365.549 148.743 358.742 128.893 363.053 95.4547C366.319 70.5126 379.737 41.2702 395.986 15.3199C412.178 -10.8237 430.254 -33.7943 443.935 -53.6215C457.669 -73.5381 467.085 -90.832 470.723 -107.68C474.357 -124.464 472.996 -139.983 475.283 -152.546C477.508 -165.086 481.801 -175.468 488.891 -184.329C495.955 -193.212 505.683 -200.574 517.185 -206.63C528.765 -212.66 541.863 -217.693 556.344 -220.174C570.822 -222.652 586.361 -221.867 605.001 -220.066C623.578 -218.303 645.013 -215.271 670.159 -208.352C691.88 -202.445 713.843 -190.333 733.197 -168.478C752.571 -146.691 764.564 -116.797 772.867 -88.4141C781.225 -59.9566 786.11 -32.7304 789.711 -7.42743C793.282 17.8309 795.666 41.6348 796.023 67.0828C796.395 92.5458 793.605 118.57 788.967 141.619C784.358 164.735 778.056 185.652 771.215 204.62C764.363 223.584 756.927 240.647 749.547 256.334C742.192 272.029 731.594 285.052 719.731 295.531C707.902 306.04 695.239 314.324 684.548 322.345C673.846 330.368 665.141 338.318 659.134 347.242C653.096 356.118 650.373 366.266 648.524 375.026C646.653 383.764 645.195 391.011 642.2 394.66C639.243 398.324 634.701 398.358 628.626 393.749Z" stroke="#C4E2F5" stroke-width="0.926263" stroke-miterlimit="10"/>
<path d="M633.556 400.045C604.95 379.355 584.87 358.478 564.087 343.42C543.315 328.28 521.542 319.598 501.588 317.511C481.724 315.126 462.864 318.456 445.692 321.558C428.577 324.597 413.27 326.889 400.733 324.716C388.197 322.54 378.67 316.187 373.012 307.75C367.34 299.328 365.141 287.569 365.227 272.849C365.275 258.182 368.258 240.795 370.386 222.749C372.44 204.73 373.444 186.365 372.194 166.779C371.097 147.175 365.777 126.879 370.528 93.9987C374.11 69.5848 386.572 41.2278 402.326 15.8876C418.02 -9.60512 435.716 -32.1144 449.301 -51.5585C462.931 -71.0844 472.509 -88.0696 476.534 -104.605C480.563 -121.073 479.462 -136.667 481.91 -149.199C484.302 -161.706 488.691 -172.01 495.759 -180.759C502.805 -189.531 512.402 -196.714 523.748 -202.528C535.168 -208.324 548.11 -213.03 562.48 -214.979C576.857 -216.924 592.31 -216.069 610.895 -214.079C629.42 -212.103 650.783 -208.774 675.729 -201.513C697.301 -195.289 719.498 -182.891 737.744 -160.776C756.005 -138.713 767.184 -109.366 775.011 -81.6714C782.882 -53.8872 787.603 -27.4645 791.166 -2.69347C794.704 22.0218 797.174 45.528 797.494 70.9761C797.825 96.413 794.979 122.084 790.508 144.91C786.059 167.791 780.062 188.567 773.541 207.442C767.009 226.328 759.9 243.388 752.728 259.16C745.59 274.925 734.88 287.803 722.932 298.394C711.02 309.029 698.283 317.496 687.633 325.75C676.972 333.998 668.427 342.233 662.684 351.489C656.91 360.681 654.648 371.156 653.068 380.192C651.464 389.194 650.222 396.693 647.317 400.547C644.434 404.42 639.847 404.591 633.556 400.045Z" stroke="#C4E2F5" stroke-width="0.938167" stroke-miterlimit="10"/>
<path d="M638.784 406.39C608.931 385.837 588.152 364.634 567.209 349.185C546.276 333.669 524.571 324.614 504.602 322.234C484.719 319.57 465.878 322.754 448.684 325.809C431.546 328.796 416.168 331.139 403.524 328.926C390.876 326.731 380.996 319.864 375.1 310.933C369.185 302.005 366.805 289.807 366.849 274.645C366.86 259.523 369.914 241.705 372.507 223.202C375.029 204.721 376.774 185.883 376.521 165.848C376.391 145.809 372.5 125.077 377.752 92.7176C381.692 68.7613 393.298 41.2821 408.568 16.5185C423.787 -8.37525 441.103 -30.3935 454.569 -49.4545C468.083 -68.601 477.8 -85.2848 482.189 -101.504C486.586 -117.656 485.746 -133.265 488.342 -145.771C490.894 -158.233 495.373 -168.492 502.422 -177.104C509.453 -185.749 518.928 -192.765 530.132 -198.334C541.403 -203.873 554.204 -208.266 568.462 -209.672C582.739 -211.071 598.147 -210.263 616.669 -208.061C635.142 -205.87 656.424 -202.247 681.157 -194.625C702.573 -188.096 724.811 -175.311 741.99 -153.051C759.191 -130.809 769.617 -102.088 777.02 -75.0736C784.464 -47.9962 789.054 -22.325 792.614 1.94384C796.141 26.1569 798.704 49.3953 798.986 74.8768C799.265 100.358 796.42 125.557 792.145 148.163C787.89 170.832 782.206 191.415 776.012 210.234C769.8 229.049 763.029 246.165 756.021 261.978C749.054 277.792 738.218 290.614 726.232 301.302C714.287 312.026 701.505 320.697 690.922 329.186C680.328 337.671 671.973 346.19 666.516 355.773C661.033 365.314 659.214 376.065 657.9 385.372C656.572 394.653 655.546 402.413 652.719 406.46C649.932 410.541 645.294 410.861 638.784 406.39Z" stroke="#C4E2F5" stroke-width="0.950443" stroke-miterlimit="10"/>
<path d="M644.312 412.76C613.172 392.397 591.619 370.878 570.453 355.046C549.286 339.169 527.674 329.676 507.679 326.986C487.77 324.036 468.954 327.079 451.739 330.062C434.582 332.986 419.141 335.36 406.385 333.15C393.629 330.94 383.448 323.735 377.295 314.26C371.128 304.778 368.55 292.145 368.531 276.521C368.486 260.961 371.552 242.678 374.565 223.728C377.518 204.805 379.959 185.476 380.654 165.046C381.45 144.613 378.925 123.469 384.724 91.5813C389.054 68.0602 399.909 41.366 414.71 17.1939C429.471 -7.08985 446.404 -28.6506 459.751 -47.3433C473.143 -66.1252 482.975 -82.4854 487.703 -98.4068C492.446 -114.25 491.858 -129.825 494.596 -142.295C497.297 -154.715 501.861 -164.889 508.895 -173.393C515.911 -181.912 525.282 -188.753 536.356 -194.08C547.493 -199.362 560.204 -203.376 574.31 -204.295C588.126 -205.135 603.902 -204.462 622.35 -202.051C640.771 -199.63 661.963 -195.668 686.477 -187.733C707.726 -180.904 729.822 -167.687 745.985 -145.36C762.178 -123.081 771.917 -94.9919 778.948 -68.6585C786.012 -42.273 790.52 -17.3457 794.095 6.44695C797.629 30.1801 800.389 53.0986 800.527 78.7699C800.65 104.4 797.96 128.933 793.913 151.346C789.869 173.796 784.524 194.207 778.657 212.966C772.765 231.715 766.411 248.923 759.47 264.711C752.566 280.513 741.625 293.391 729.606 304.149C717.632 314.96 704.943 323.787 694.468 332.592C683.985 341.408 675.831 350.154 670.69 360.056C665.523 369.907 664.106 380.955 663.064 390.534C662.004 400.094 661.189 408.084 658.444 412.362C655.74 416.651 651.045 417.157 644.312 412.76Z" stroke="#C4E2F5" stroke-width="0.962347" stroke-miterlimit="10"/>
<path d="M650.146 419.148C617.686 399.068 595.285 377.22 573.821 361.013C552.357 344.76 530.844 334.809 510.816 331.789C490.874 328.549 472.08 331.406 454.85 334.341C437.679 337.194 422.178 339.604 409.314 337.398C396.451 335.185 386.024 327.827 379.603 317.772C373.167 307.721 370.381 294.589 370.285 278.508C370.162 262.464 373.182 243.727 376.582 224.342C379.923 204.969 383.01 185.209 384.606 164.392C386.28 143.579 385.06 122.074 391.447 90.6107C396.194 67.4802 406.398 41.556 420.753 17.9344C435.078 -5.76531 451.636 -26.8685 464.849 -45.1966C478.103 -63.6028 488.039 -79.6841 493.083 -95.2892C498.142 -110.824 497.815 -126.336 500.683 -138.749C503.518 -151.144 508.168 -161.232 515.191 -169.606C522.199 -177.998 531.465 -184.679 542.421 -189.742C553.424 -194.783 566.143 -198.156 579.94 -198.882C593.767 -199.585 609.539 -198.681 627.923 -196.018C646.285 -193.343 667.384 -189.084 691.661 -180.81C712.73 -173.694 734.514 -159.994 749.718 -137.7C764.954 -115.459 774.072 -88.0353 780.779 -62.4013C787.512 -36.7114 791.98 -12.5058 795.592 10.8553C799.174 34.157 802.005 57.2317 802.094 82.6463C802.169 108.031 799.609 132.285 795.8 154.475C791.991 176.69 787.01 196.975 781.449 215.66C775.854 234.353 769.954 251.587 763.05 267.36C756.183 283.14 745.109 296.055 733.041 306.895C721.015 317.806 708.367 326.752 698.133 335.836C687.892 344.924 679.991 354.127 675.204 364.346C670.379 374.505 669.315 385.836 668.541 395.679C667.745 405.496 667.139 413.758 664.475 418.255C661.849 422.756 657.106 423.448 650.146 419.148Z" stroke="#C4E2F5" stroke-width="0.974622" stroke-miterlimit="10"/>
<path d="M656.286 425.547C622.479 405.824 599.162 383.683 577.334 367.089C555.498 350.46 534.082 340.015 514.021 336.637C494.037 333.077 475.27 335.752 458.021 338.627C440.838 341.414 425.289 343.876 412.318 341.663C399.35 339.461 388.737 332.144 382.034 321.467C375.315 310.817 372.313 297.172 372.116 280.6C371.897 264.058 374.832 244.844 378.57 225.035C382.261 205.231 385.951 185.046 388.398 163.869C390.902 142.71 390.932 120.866 397.929 89.7974C403.111 67.0388 412.764 41.8214 426.699 18.7355C440.611 -4.39505 456.793 -25.0518 469.876 -43.0265C482.989 -61.0645 493.01 -76.8556 498.345 -92.1557C503.705 -107.385 503.631 -122.767 506.618 -135.147C509.575 -147.482 514.303 -157.519 521.319 -165.755C528.316 -174.016 537.497 -180.526 548.337 -185.333C559.21 -190.131 571.668 -192.958 585.488 -193.475C599.326 -193.985 615.076 -192.869 633.401 -189.964C651.699 -187.04 672.694 -182.453 696.725 -173.871C717.609 -166.484 738.924 -152.281 753.216 -130.11C767.549 -107.977 776.108 -81.2488 782.54 -56.3141C788.994 -31.3273 793.454 -7.78018 797.122 15.1569C800.768 38.0568 803.647 61.3064 803.718 86.4643C803.781 111.604 801.37 135.571 797.825 157.53C794.277 179.526 789.608 199.662 784.359 218.247C779.062 236.828 773.664 254.148 766.775 269.905C759.919 285.67 748.674 298.612 736.539 309.534C724.442 320.511 711.828 329.614 701.851 338.958C691.856 348.288 684.509 358.09 680.097 368.61C675.64 379.067 674.856 390.673 674.342 400.78C673.803 410.861 673.409 419.376 670.819 424.108C668.271 428.843 663.473 429.74 656.286 425.547Z" stroke="#C4E2F5" stroke-width="0.986526" stroke-miterlimit="10"/>
<path d="M662.738 431.927C627.566 412.654 603.264 390.212 581.004 373.264C558.729 356.29 537.403 345.253 517.289 341.526C497.253 337.62 478.509 340.112 461.252 342.917C444.062 345.625 428.461 348.128 415.389 345.923C402.328 343.791 391.864 336.961 384.599 325.363C377.323 313.838 374.336 299.907 374.023 282.799C373.692 265.739 376.504 246.042 380.541 225.799C384.536 205.547 388.788 184.968 392.043 163.452C395.331 141.955 396.544 119.825 404.17 89.1245C409.798 66.7044 419.005 42.1491 432.538 19.5878C446.06 -3.00711 461.881 -23.2138 474.822 -40.8388C487.794 -58.5308 497.878 -74.0281 503.492 -89.0231C509.127 -103.955 509.317 -119.155 512.408 -131.497C515.474 -143.795 520.272 -153.728 527.277 -161.848C534.267 -169.987 543.366 -176.319 554.101 -180.865C564.856 -185.421 577.113 -187.772 590.951 -188.085C604.793 -188.379 620.521 -187.077 638.775 -183.9C657.002 -180.727 677.886 -175.791 701.656 -166.926C722.343 -159.274 743.044 -144.603 756.484 -122.614C769.973 -100.674 778.03 -74.6493 784.235 -50.4065C790.459 -26.1116 794.945 -3.22288 798.687 19.3497C802.418 41.9036 805.316 65.3466 805.394 90.2144C805.476 115.09 803.251 138.759 799.989 160.51C796.727 182.283 792.292 202.203 787.382 220.721C782.416 239.209 777.528 256.622 770.624 272.35C763.738 288.089 752.299 301.064 740.076 312.067C727.893 323.131 715.305 332.352 705.588 341.968C695.85 351.577 689.087 361.807 685.3 372.81C681.472 383.762 680.724 395.48 680.456 405.843C680.17 416.185 679.973 424.953 677.462 429.926C674.996 434.892 670.156 435.997 662.738 431.927Z" stroke="#C4E2F5" stroke-width="0.99843" stroke-miterlimit="10"/>
<path d="M669.508 438.295C632.964 419.547 607.609 396.866 584.858 379.554C562.077 362.23 540.81 350.594 520.637 346.476C500.542 342.209 481.819 344.508 464.551 347.224C447.354 349.85 431.715 352.387 418.543 350.2C405.386 348.076 394.773 341.238 387.359 329.469C379.934 317.762 376.471 302.759 376.032 285.142C375.574 267.55 378.23 247.344 382.527 226.657C386.782 205.978 391.551 185.009 395.565 163.169C399.594 141.363 401.934 118.972 410.188 88.6216C416.263 66.5512 425.127 42.5762 438.285 20.5245C451.438 -1.55331 466.913 -21.321 479.71 -38.6038C492.536 -55.9461 502.677 -71.1532 508.547 -85.8544C514.439 -100.489 514.901 -115.499 518.081 -127.771C521.236 -139.994 526.101 -149.874 533.095 -157.857C540.077 -165.863 549.094 -172.012 559.737 -176.308C570.383 -180.601 582.507 -182.565 596.348 -182.662C610.187 -182.762 625.885 -181.237 644.06 -177.796C662.21 -174.355 682.971 -169.114 706.47 -159.955C726.948 -152.065 746.902 -136.929 759.549 -115.197C772.245 -93.5026 779.868 -68.2294 785.886 -44.6487C791.924 -21.0383 796.47 1.22548 800.305 23.4669C804.136 45.6787 807.027 69.3374 807.153 93.915C807.287 118.537 805.33 141.936 802.314 163.414C799.293 184.916 795.101 204.669 790.547 223.09C785.935 241.5 781.571 258.983 774.615 274.696C767.666 290.413 755.997 303.429 743.673 314.5C731.389 325.633 718.827 334.996 709.379 344.865C699.911 354.723 693.77 365.459 690.619 376.872C687.424 388.232 686.947 400.192 686.925 410.842C686.884 421.451 686.873 430.487 684.44 435.684C682.037 440.888 677.153 442.22 669.508 438.295Z" stroke="#C4E2F5" stroke-width="1.01071" stroke-miterlimit="10"/>
<path d="M676.588 444.617C638.671 426.486 612.207 403.627 588.891 385.95C565.541 368.288 544.296 356.001 524.048 351.481C503.875 346.82 485.179 348.899 467.9 351.529C450.699 354.055 435.027 356.622 421.758 354.468C408.507 352.355 397.746 345.525 390.179 333.588C382.598 321.684 378.703 305.744 378.115 287.61C377.513 269.453 380.001 248.722 384.514 227.589C388.993 206.456 394.241 185.107 398.958 162.985C403.686 140.899 407.079 118.252 415.973 88.2549C422.491 66.4971 431.106 43.0801 443.914 21.5193C456.733 -0.0674205 471.861 -19.4148 484.52 -36.3479C497.202 -53.348 507.383 -68.2686 513.495 -82.6797C519.625 -97.0274 520.381 -111.777 523.628 -123.997C526.857 -136.176 531.775 -145.963 538.757 -153.816C545.728 -161.684 554.675 -167.662 565.224 -171.69C575.778 -175.723 587.819 -177.348 601.654 -177.237C615.477 -177.129 631.142 -175.369 649.235 -171.675C667.303 -167.963 687.926 -162.39 711.139 -152.99C731.394 -144.881 750.488 -129.328 762.399 -107.908C774.366 -86.5224 781.602 -61.9968 787.483 -39.0635C793.379 -16.1078 798.01 5.56457 801.953 27.4899C805.9 49.4151 808.772 73.2599 808.973 97.5399C809.181 121.883 807.533 144.969 804.676 166.184C801.805 187.417 797.995 207.006 793.833 225.342C789.599 243.674 785.753 261.232 778.704 276.93C771.658 292.632 759.717 305.681 747.278 316.822C734.876 328.027 722.339 337.531 713.173 347.65C703.985 357.764 698.439 368.924 695.973 380.787C693.458 392.583 693.495 404.877 693.7 415.765C693.886 426.624 694.06 435.916 691.698 441.362C689.381 446.823 684.456 448.378 676.588 444.617Z" stroke="#C4E2F5" stroke-width="1.02261" stroke-miterlimit="10"/>
<path d="M683.973 450.893C644.69 433.506 617.07 410.461 593.125 392.461C569.139 374.475 547.872 361.511 527.535 356.556C507.272 351.486 488.591 353.323 471.308 355.853C454.103 358.263 438.405 360.864 425.047 358.732C411.711 356.656 400.801 349.812 393.082 337.74C385.344 325.684 381.051 308.937 380.307 290.233C379.541 271.5 381.847 250.181 386.538 228.624C391.196 207.044 396.872 185.309 402.259 162.926C407.638 140.588 412.027 117.718 421.55 88.0511C428.499 66.602 436.951 43.6983 449.442 22.61C461.949 1.50687 476.754 -17.4425 489.268 -34.0371C501.808 -50.7135 512.019 -65.344 518.354 -79.4612C524.708 -93.5076 525.779 -107.986 529.079 -120.146C532.356 -132.258 537.326 -141.978 544.289 -149.693C551.246 -157.435 560.125 -163.249 570.589 -166.987C581.057 -170.763 593.069 -172.099 606.885 -171.775C620.689 -171.466 636.313 -169.472 654.31 -165.507C672.281 -161.538 692.763 -155.634 715.678 -146.003C735.699 -137.697 753.833 -121.787 765.067 -100.724C776.361 -79.6955 783.269 -55.9177 789.054 -33.6242C794.845 -11.3343 799.6 9.80231 803.658 31.4486C807.731 53.0986 810.573 77.1368 810.886 101.112C811.209 125.139 809.744 147.89 807.088 168.859C804.409 189.851 801.024 209.239 797.275 227.504C793.439 245.735 790.099 263.39 782.912 279.073C775.721 294.764 763.486 307.869 750.917 319.059C738.381 330.353 725.87 339.954 716.995 350.344C708.097 360.718 703.183 372.299 701.386 384.582C699.537 396.798 700.542 409.576 700.835 420.628C701.103 431.643 701.561 441.281 699.266 446.972C697.019 452.679 692.056 454.453 683.973 450.893Z" stroke="#C4E2F5" stroke-width="1.03451" stroke-miterlimit="10"/>
<path d="M691.663 457.094C651.038 440.548 622.208 417.41 597.575 399.078C572.893 380.779 551.548 367.112 531.107 361.704C510.733 356.206 492.07 357.779 474.784 360.186C457.575 362.474 441.855 365.107 428.415 362.994C414.997 360.937 403.941 354.119 396.062 341.91C388.165 329.712 383.519 312.314 382.6 293.019C381.659 273.671 383.787 251.787 388.608 229.75C393.399 207.706 399.474 185.613 405.474 162.966C411.459 140.364 416.79 117.345 426.923 87.9836C434.296 66.8209 442.662 44.412 454.86 23.7701C467.083 3.11332 481.576 -15.4194 493.956 -31.6941C506.355 -48.032 516.592 -62.3835 523.139 -76.2254C529.701 -90.0078 531.122 -104.132 534.455 -116.237C537.762 -128.297 542.769 -137.92 549.714 -145.505C556.656 -153.113 565.464 -158.726 575.851 -162.212C586.24 -165.712 598.271 -166.824 612.053 -166.289C625.828 -165.775 641.407 -163.543 659.3 -159.306C677.17 -155.088 697.492 -148.865 720.102 -139.022C739.877 -130.548 756.967 -114.336 767.583 -93.6756C778.259 -73.0523 784.892 -50.0073 790.617 -28.335C796.346 -6.66267 801.245 13.9383 805.434 35.3391C809.641 56.7622 812.449 80.9418 812.907 104.612C813.383 128.352 811.981 150.705 809.563 171.425C807.122 192.164 804.199 211.374 800.888 229.557C797.477 247.714 794.601 265.424 787.239 281.111C779.863 296.791 767.297 309.93 754.59 321.197C741.908 332.558 729.428 342.297 720.857 352.94C712.26 363.564 708.001 375.586 706.87 388.245C705.68 400.845 707.328 413.972 708.232 425.393C709.113 436.783 709.377 446.518 707.149 452.474C704.951 458.411 699.955 460.472 691.663 457.094Z" stroke="#C4E2F5" stroke-width="1.04679" stroke-miterlimit="10"/>
<path d="M699.649 463.209C657.71 447.6 627.631 424.436 602.25 405.799C576.809 387.229 555.33 372.825 534.759 366.926C514.255 360.966 495.603 362.235 478.309 364.53C461.097 366.673 445.362 369.325 431.84 367.238C418.344 365.211 407.147 358.414 399.112 346.087C391.051 333.785 386.103 315.877 384.995 295.972C383.86 275.996 385.82 253.483 390.727 230.977C395.611 208.445 402.032 185.988 408.605 163.107C415.156 140.278 421.361 117.11 432.093 88.0572C439.871 67.1921 448.219 45.2296 460.16 25.0118C472.127 4.79399 486.329 -13.3593 498.575 -29.3104C510.84 -45.3172 521.096 -59.4083 527.84 -72.9638C534.599 -86.4708 536.414 -100.227 539.755 -112.265C543.073 -124.269 548.099 -133.811 555.022 -141.254C561.937 -148.72 570.686 -154.155 580.994 -157.373C591.31 -160.598 603.399 -161.528 617.141 -160.78C630.878 -160.047 646.402 -157.577 664.183 -153.087C681.946 -148.601 702.093 -142.08 724.386 -132.059C743.905 -123.432 759.882 -107.016 769.933 -86.7833C780.048 -66.6064 786.465 -44.2794 792.163 -23.2097C797.87 -2.15858 802.936 17.9551 807.263 39.1475C811.611 60.3772 814.39 84.6721 815.034 108.015C815.703 131.443 814.238 153.394 812.095 173.872C809.934 194.362 807.519 213.374 804.659 231.483C801.69 249.554 799.239 267.347 791.65 283.03C784.047 298.721 771.124 311.882 758.26 323.231C745.423 334.652 732.972 344.539 724.725 355.431C716.448 366.308 712.866 378.755 712.382 391.771C711.839 404.731 714.108 418.186 715.611 429.938C717.088 441.667 717.478 451.61 715.306 457.841C713.163 464.053 708.138 466.352 699.649 463.209Z" stroke="#C4E2F5" stroke-width="1.05869" stroke-miterlimit="10"/>
<path d="M707.918 469.209C664.704 454.679 633.352 431.518 607.164 412.621C580.916 393.769 559.225 378.654 538.505 372.234C517.852 365.761 499.2 366.758 481.899 368.882C464.687 370.88 448.933 373.514 435.34 371.464C421.774 369.463 410.443 362.692 402.244 350.264C394.023 337.847 388.822 319.671 387.506 299.104C386.159 278.462 387.974 255.339 392.929 232.312C397.862 209.29 404.591 186.46 411.685 163.349C418.753 140.3 425.776 117.006 437.085 88.2617C445.25 67.6719 453.642 46.1409 465.345 26.3323C477.085 6.50501 491.013 -11.2502 503.128 -26.8925C515.263 -42.5869 525.534 -56.4065 532.464 -69.6792C539.405 -82.9035 541.671 -96.273 545.004 -108.236C548.311 -120.177 553.34 -129.63 560.233 -136.947C567.119 -144.264 575.805 -149.535 586.035 -152.474C596.279 -155.424 608.466 -156.201 622.151 -155.249C635.845 -154.304 651.305 -151.592 668.963 -146.845C686.603 -142.099 706.572 -135.288 728.538 -125.117C747.796 -116.364 762.59 -99.8144 772.143 -80.0429C781.755 -60.331 787.997 -38.7331 793.715 -18.24C799.432 2.23083 804.689 21.8758 809.164 42.8897C813.665 63.9333 816.429 88.3138 817.284 111.329C818.188 134.407 816.54 155.968 814.706 176.205C812.872 196.445 811.001 215.275 808.609 233.294C806.106 251.291 804.011 269.136 796.148 284.834C788.269 300.543 774.963 313.738 761.935 325.158C748.93 336.66 736.524 346.656 728.612 357.823C720.67 368.96 717.783 381.798 717.94 395.167C718.033 408.466 720.901 422.207 722.976 434.279C725.026 446.32 725.867 456.58 723.739 463.063C721.648 469.532 716.597 472.121 707.918 469.209Z" stroke="#C4E2F5" stroke-width="1.0706" stroke-miterlimit="10"/>
<path d="M716.464 475.087C672.022 461.736 639.372 438.676 612.328 419.544C585.213 400.465 563.24 384.618 542.349 377.639C521.517 370.627 502.865 371.29 485.553 373.254C468.333 375.065 452.576 377.706 438.912 375.672C425.279 373.696 413.814 366.971 405.455 354.442C397.082 341.969 391.881 323.864 390.174 302.471C388.444 281.055 390.259 257.333 395.214 233.775C400.147 210.205 407.144 187.015 414.714 163.691C422.254 140.427 430.04 117.043 441.899 88.6045C450.429 68.3048 458.911 47.1681 470.413 27.7464C481.952 8.30973 495.623 -9.09212 507.623 -24.422C519.635 -39.8076 529.917 -53.3519 537.025 -66.3568C544.142 -79.3133 546.924 -92.2289 550.224 -104.133C553.494 -116.025 558.516 -125.392 565.368 -132.568C572.201 -139.766 580.66 -144.803 591.102 -147.488C601.54 -150.185 613.451 -150.855 627.092 -149.676C640.73 -148.519 656.119 -145.576 673.647 -140.569C691.157 -135.574 710.932 -128.468 732.56 -118.198C751.543 -109.352 765.124 -92.7608 774.227 -73.4618C783.389 -54.2372 789.508 -33.3498 795.274 -13.4147C801.036 6.48324 806.512 25.6967 811.136 46.5692C815.786 67.5013 818.844 91.971 819.584 114.488C820.358 137.097 818.862 158.461 817.412 178.426C815.946 198.406 814.663 217.017 812.747 234.984C810.723 252.903 808.908 270.81 800.724 286.531C792.525 302.248 778.81 315.509 765.612 326.989C752.436 338.562 740.078 348.695 732.523 360.122C724.938 371.516 722.758 384.763 723.535 398.438C724.242 412.056 727.694 426.069 730.317 438.423C732.917 450.755 734.528 461.379 732.441 468.127C730.391 474.856 725.317 477.754 716.464 475.087Z" stroke="#C4E2F5" stroke-width="1.08287" stroke-miterlimit="10"/>
<path d="M725.269 480.82C679.658 468.786 645.703 445.908 617.751 426.557C589.729 407.277 567.387 390.716 546.291 383.149C525.251 375.568 506.589 375.873 489.265 377.644C472.034 379.258 456.277 381.866 442.546 379.861C428.849 377.904 417.262 371.216 408.74 358.62C400.206 346.069 394.812 327.763 392.978 305.994C391.111 284.188 392.684 259.499 397.598 235.39C402.486 211.251 409.707 187.7 417.712 164.157C425.684 140.684 434.169 117.237 446.553 89.0924C455.425 69.0532 464.033 48.3332 475.364 29.2573C486.732 10.1778 500.164 -6.86692 512.057 -21.8954C523.953 -36.976 534.243 -50.2711 541.522 -62.9895C548.802 -75.6857 552.184 -88.0954 555.424 -99.9471C558.634 -111.78 563.63 -121.073 570.438 -128.107C577.226 -135.164 585.749 -139.933 596.139 -142.44C606.525 -144.947 618.387 -145.427 631.969 -144.051C645.547 -142.682 660.85 -139.501 678.237 -134.249C695.606 -129.007 715.176 -121.642 736.462 -111.282C755.162 -102.376 767.501 -85.8225 776.209 -67.0182C784.973 -48.2884 791.022 -28.0966 796.862 -8.70457C802.706 10.6614 808.409 29.4731 813.189 50.2192C817.984 71.0508 821.191 95.4312 821.845 117.55C822.526 139.799 821.254 160.842 820.22 180.558C819.171 200.281 818.505 218.673 817.08 236.577C815.544 254.44 813.918 272.385 805.366 288.142C796.807 303.9 782.652 317.202 769.283 328.753C755.932 340.407 743.63 350.674 736.458 362.362C729.249 374.032 727.794 387.658 729.167 401.611C730.473 415.513 734.479 429.768 737.626 442.393C740.751 454.992 742.938 465.929 741.275 473.008C739.635 480.061 734.282 483.212 725.269 480.82Z" stroke="#C4E2F5" stroke-width="1.09478" stroke-miterlimit="10"/>
<path d="M734.319 486.39C687.611 475.762 652.346 453.183 623.442 433.66C594.479 414.22 571.776 397.261 550.357 388.802C529.008 380.294 510.386 380.495 493.036 382.061C475.791 383.467 460.037 386.027 446.243 384.033C432.487 382.08 420.78 375.447 412.098 362.788C403.405 350.178 397.814 331.675 395.838 309.552C393.826 287.396 395.693 261.926 400.124 237.159C404.521 212.388 412.277 188.487 420.676 164.724C429.031 141.05 438.164 117.563 451.038 89.7079C460.227 69.9402 468.987 49.5922 480.173 30.8623C491.396 12.1362 504.617 -4.57746 516.405 -19.3158C528.201 -34.1063 538.494 -47.1372 545.938 -59.5878C553.396 -72.0161 558.031 -83.9869 560.691 -95.6823C563.351 -107.378 568.704 -116.655 575.433 -123.578C582.166 -130.501 590.778 -135.013 601.104 -137.353C611.427 -139.693 623.241 -139.983 636.745 -138.395C650.252 -136.81 665.466 -133.391 682.701 -127.916C699.92 -122.432 719.272 -114.825 740.211 -104.42C758.625 -95.4777 769.703 -79.0579 778.069 -60.7484C786.494 -42.5319 792.506 -23.0283 798.458 -4.14222C804.41 14.6992 810.365 33.1464 815.305 53.8069C820.257 74.5492 823.441 98.7139 824.058 120.49C824.694 142.393 823.697 163.128 823.128 182.561C822.537 202.016 822.533 220.192 821.603 238.033C820.569 255.814 819.022 273.833 810.053 289.628C801.088 305.434 786.476 318.778 772.935 330.406C759.406 342.139 747.178 352.543 740.408 364.507C733.601 376.448 732.86 390.424 734.821 404.656C736.703 418.818 741.238 433.303 744.883 446.17C748.506 459 751.17 470.216 749.987 477.619C748.834 485.018 743.477 488.485 734.319 486.39Z" stroke="#C4E2F5" stroke-width="1.10668" stroke-miterlimit="10"/>
<path d="M743.592 491.771C695.862 482.665 659.306 460.475 629.409 440.838C599.46 421.304 576.132 403.806 554.542 394.625C533.018 385.347 514.244 385.176 496.872 386.504C479.607 387.665 463.857 390.169 450.008 388.175C436.199 386.233 424.381 379.656 415.535 366.934C406.686 354.275 400.89 335.608 398.766 313.14C396.601 290.649 398.249 264.476 402.757 239.109C407.24 213.71 414.903 189.374 423.637 165.41C432.334 141.525 442.058 118.011 455.391 90.4536C464.869 70.9537 473.797 50.9739 484.867 32.5566C495.971 14.1429 509.002 -2.23224 520.698 -16.6916C532.401 -31.1994 542.701 -43.9699 550.297 -56.1527C557.908 -68.3243 562.845 -79.9863 565.91 -91.3804C568.975 -102.756 573.725 -112.19 580.395 -118.979C587.061 -125.782 595.777 -130.06 606.029 -132.222C616.281 -134.398 628.033 -134.498 641.458 -132.709C654.879 -130.92 670.005 -127.278 687.075 -121.564C704.139 -115.824 723.702 -108.224 743.819 -97.5853C761.519 -88.3859 771.771 -72.4274 779.854 -54.6461C787.99 -36.9578 794.009 -18.1089 800.102 0.293569C806.195 18.6552 812.411 36.7526 817.515 57.3462C822.626 78.0365 825.635 101.9 826.264 123.327C826.908 144.887 826.234 165.284 826.179 184.445C826.086 203.603 826.781 221.57 826.346 239.366C825.814 257.095 824.222 275.178 814.799 291.021C805.38 306.868 790.304 320.271 776.588 331.981C762.884 343.803 750.746 354.349 744.407 366.588C738.031 378.793 738.005 393.118 740.523 407.6C742.964 422.007 747.993 436.686 752.107 449.777C756.199 462.837 759.313 474.276 758.587 481.984C757.888 489.706 752.881 493.571 743.592 491.771Z" stroke="#C4E2F5" stroke-width="1.11896" stroke-miterlimit="10"/>
<path d="M753.078 496.961C709.268 490.209 674.297 471.851 645.155 454.011C615.995 436.248 592.868 418.943 572.267 407.418C551.688 395.864 533.438 391.426 516.84 390.827C500.312 390.091 485.205 392.472 471.378 393.011C457.592 393.532 445.142 392.04 434.618 385.78C424.109 379.56 415.568 368.597 409.724 353.063C403.869 337.551 400.763 317.582 400.666 295.37C400.54 273.125 403.378 248.76 408.53 225.737C413.66 202.673 420.932 180.707 429.347 158.994C437.739 137.325 447.232 115.88 459.601 91.3469C469.347 72.1074 478.443 52.4736 489.42 34.3687C500.435 16.26 513.295 0.197378 524.912 -13.9867C536.533 -28.2192 546.841 -40.7367 554.59 -52.648C562.353 -64.5555 567.572 -75.9459 571.032 -87.0164C574.491 -98.0795 578.728 -107.617 585.324 -114.276C591.915 -120.935 600.728 -125.001 610.898 -127.009C621.072 -129.026 632.757 -128.959 646.093 -126.946C659.428 -124.967 674.442 -121.072 691.345 -115.158C708.241 -109.187 728.113 -101.405 747.2 -90.7698C764.011 -81.5221 773.723 -65.917 781.569 -48.6751C789.462 -31.5411 795.53 -13.3097 801.79 4.63524C808.047 22.517 814.55 40.2871 819.813 60.8769C825.088 81.5263 827.785 104.973 828.47 126.091C829.169 147.302 828.871 167.382 829.37 186.25C829.824 205.125 831.245 222.854 831.304 240.605C831.274 258.286 829.511 276.413 819.579 292.342C809.673 308.26 794.109 321.711 780.222 333.503C766.343 345.418 754.317 356.102 748.435 368.627C742.521 381.115 743.198 395.764 746.248 410.465C749.22 425.092 754.722 439.971 759.275 453.244C763.806 466.498 767.336 478.145 767.05 486.147C766.793 494.134 762.478 498.423 753.078 496.961Z" stroke="#C4E2F5" stroke-width="1.13086" stroke-miterlimit="10"/>
<path d="M762.676 501.9C719.603 497.161 682.08 479.097 652.004 461.297C621.873 443.635 597.957 425.984 576.943 413.943C555.941 401.875 537.531 396.641 520.854 395.655C504.252 394.551 489.146 396.716 475.3 397.173C461.495 397.608 449.008 396.124 438.391 389.882C427.789 383.688 419.107 372.711 413.099 357.072C407.08 341.463 403.792 321.246 403.576 298.707C403.327 276.108 406.221 251.266 411.325 227.678C416.41 204.064 423.716 181.744 432.391 159.882C441.039 138.069 450.968 116.642 463.686 92.3655C473.667 73.3864 482.926 54.0986 493.844 36.269C504.795 18.4282 517.503 2.69284 529.053 -11.2309C540.603 -25.1918 550.926 -37.4452 558.82 -49.1109C566.729 -60.7469 572.223 -71.8583 576.058 -82.6238C579.886 -93.3595 583.476 -103.046 590.261 -109.5C597.027 -115.951 605.617 -119.931 615.705 -121.761C625.79 -123.621 637.4 -123.346 650.639 -121.166C663.878 -118.99 678.777 -114.887 695.501 -108.76C712.223 -102.563 732.232 -94.6429 750.356 -84.0522C766.325 -74.8194 775.562 -59.5862 783.217 -42.8912C790.914 -26.278 797.078 -8.66037 803.528 8.83447C809.975 26.2735 816.771 43.7572 822.202 64.3433C827.648 84.974 829.899 107.937 830.68 128.728C831.491 149.612 831.621 169.338 832.715 187.897C833.753 206.482 835.94 223.962 836.479 241.687C836.952 259.338 834.858 277.533 824.386 293.536C813.951 309.524 797.896 323.035 783.846 334.92C769.8 346.921 757.907 357.764 752.521 370.583C747.097 383.357 748.451 398.297 752.015 413.206C755.496 428.026 761.437 443.092 766.4 456.528C771.336 469.961 775.253 481.794 775.383 490.052C775.528 498.303 771.838 502.946 762.676 501.9Z" stroke="#C4E2F5" stroke-width="1.14276" stroke-miterlimit="10"/>
<path d="M772.106 506.546C730.681 503.767 690.149 486.291 659.158 468.621C628.052 451.126 603.3 433.166 581.817 420.619C560.338 408.057 541.724 401.978 524.962 400.565C508.266 399.043 493.156 401.004 479.288 401.346C465.461 401.662 452.94 400.197 442.238 393.962C431.55 387.776 422.73 376.813 416.555 361.078C410.373 345.372 406.895 324.961 406.545 302.087C406.162 279.169 408.97 253.866 414.167 229.749C419.353 205.577 426.558 182.971 435.445 160.923C444.313 138.935 454.629 117.564 467.66 93.5253C477.852 74.7917 487.253 55.8461 498.13 38.2769C509.04 20.6928 521.621 5.25132 533.112 -8.40827C544.606 -22.1013 554.94 -34.1204 562.975 -45.5183C571.025 -56.9087 576.784 -67.73 580.984 -78.1793C585.18 -88.6026 588.658 -98.2409 595.317 -104.58C601.964 -110.915 610.446 -114.754 620.445 -116.446C630.44 -118.15 641.961 -117.711 655.096 -115.334C668.231 -112.961 683.003 -108.642 699.538 -102.337C716.073 -95.9234 736.068 -87.8809 753.287 -77.4093C769.744 -67.4734 778.78 -50.9569 786.655 -33.2016C794.578 -15.5691 801.401 2.8036 808.655 21.5074C815.894 40.241 824.044 60.5072 828.255 83.794C832.47 107.114 832.894 129.996 833.761 151.43C834.642 172.875 836.327 192.721 838.719 211.845C840.914 230.958 844.734 250.28 840.691 269.37C836.651 288.454 821.909 305.959 805.824 320.404C789.802 335.053 773.219 346.909 763.573 359.932C753.882 372.937 752.458 388.404 755.311 404.62C758.064 420.731 764.67 437.47 770.723 452.744C776.738 467.989 782.135 481.719 783.344 491.554C784.579 501.379 781.57 507.245 772.106 506.546Z" stroke="#C4E2F5" stroke-width="1.15504" stroke-miterlimit="10"/>
<path d="M781.328 510.919C741.58 509.967 698.526 493.439 666.598 475.963C634.517 458.725 608.883 440.471 586.883 427.444C564.872 414.387 546.016 407.427 529.146 405.564C512.339 403.618 497.222 405.307 483.331 405.53C469.486 405.72 456.931 404.247 446.143 398.019C435.374 391.833 426.42 380.885 420.078 365.072C413.731 349.281 410.06 328.706 409.565 305.516C409.037 282.3 411.786 256.558 417.012 231.932C422.224 207.269 429.582 184.25 438.551 162.105C447.497 140.005 458.214 118.619 471.524 94.8339C481.899 76.3532 491.415 57.7387 502.277 40.3926C513.169 23.0578 525.646 7.89905 537.096 -5.51131C548.546 -18.9551 558.902 -30.7176 567.075 -41.8625C575.262 -52.9777 581.277 -63.5534 585.83 -73.6753C590.38 -83.775 593.795 -93.3277 600.331 -99.5735C606.852 -105.804 615.233 -109.509 625.131 -111.064C635.026 -112.608 646.458 -112.02 659.481 -109.45C672.501 -106.887 687.143 -102.363 703.481 -95.8982C719.819 -89.3214 739.661 -81.1599 756.043 -70.8556C771.715 -61.0387 780.387 -45.0058 788.195 -27.8421C796.059 -10.7824 803.104 6.9765 810.637 25.3269C818.155 43.7406 826.64 64.2709 830.568 87.0778C834.493 109.974 835.032 132.483 836.338 153.534C837.655 174.593 840.129 194.041 843.291 212.912C846.233 231.772 850.928 251.108 846.367 270.281C841.795 289.435 826.261 307.06 809.759 321.594C793.31 336.324 776.633 348.284 767.333 361.553C757.985 374.807 757.386 390.643 760.782 407.074C764.075 423.393 771.113 440.285 777.548 455.697C783.947 471.079 789.683 484.98 791.275 495.02C792.9 505.046 790.326 511.195 781.328 510.919Z" stroke="#C4E2F5" stroke-width="1.16694" stroke-miterlimit="10"/>
<path d="M790.34 515.023C752.278 515.789 707.207 500.501 674.334 483.307C641.294 466.396 614.737 447.886 592.172 434.401C569.585 420.92 550.427 412.985 533.431 410.653C516.494 408.231 501.354 409.652 487.437 409.723C473.566 409.756 460.981 408.28 450.111 402.041C439.264 395.859 430.176 384.945 423.67 369.046C417.16 353.188 413.288 332.449 412.641 308.976C411.956 285.47 414.597 259.341 419.865 234.217C425.11 209.051 432.669 185.605 441.753 163.363C450.818 141.17 461.662 119.873 475.273 96.2965C485.849 78.0502 495.409 59.7333 506.279 42.6216C517.174 25.5136 529.569 10.6116 540.989 -2.5384C552.41 -15.7256 562.792 -27.2611 571.102 -38.1456C579.424 -49.0078 585.688 -59.3008 590.58 -69.1177C595.468 -78.9123 598.864 -88.3349 605.281 -94.4802C611.683 -100.614 619.949 -104.223 629.743 -105.618C639.534 -107.042 650.869 -106.254 663.769 -103.523C676.67 -100.793 691.174 -96.0687 707.304 -89.4509C723.437 -82.7067 743 -74.5265 758.613 -64.4083C773.556 -54.7328 781.922 -39.2392 789.715 -22.6372C797.553 -6.15045 804.867 11.0393 812.701 29.0513C820.516 47.1487 829.113 67.8948 832.814 90.2516C836.505 112.735 837.219 134.88 839.023 155.525C840.827 176.197 844.145 195.206 848.103 213.824C851.819 232.431 857.273 251.801 852.125 271.074C846.958 290.332 830.597 308.091 813.683 322.699C796.813 337.519 780.066 349.59 771.142 363.112C762.165 376.608 762.403 392.835 766.321 409.44C770.126 425.961 777.566 442.968 784.347 458.506C791.092 474.018 797.129 488.05 799.075 498.28C801.042 508.513 798.885 514.919 790.34 515.023Z" stroke="#C4E2F5" stroke-width="1.17885" stroke-miterlimit="10"/>
<path d="M799.131 518.878C762.739 521.24 716.169 507.469 682.354 490.64C648.373 474.127 620.86 455.416 597.685 441.499C574.469 427.59 554.962 418.711 537.813 415.85C520.72 412.923 505.55 414.039 491.6 413.935C477.699 413.793 465.088 412.272 454.14 406.037C443.219 399.851 434.004 388.94 427.335 372.997C420.661 357.083 416.588 336.203 415.773 312.462C414.925 288.703 417.44 262.195 422.729 236.602C427.993 210.956 435.73 187.063 444.919 164.736C454.088 142.461 464.965 121.314 478.722 97.971C489.372 79.9367 499.233 61.8579 510.133 44.9619C521.055 28.0697 533.408 13.4132 544.806 0.508751C556.208 -12.4292 566.62 -23.7415 575.068 -34.3656C583.527 -44.9897 590.089 -54.9852 595.278 -64.4971C600.464 -73.9903 603.875 -83.2344 610.173 -89.3016C616.452 -95.3539 624.606 -98.8432 634.293 -100.108C643.976 -101.395 655.203 -100.48 667.981 -97.5524C680.755 -94.6508 695.106 -89.7294 711.028 -82.9963C726.949 -76.1256 746.125 -67.9678 761.024 -58.0653C775.293 -48.5906 783.41 -33.6328 791.233 -17.5664C799.097 -1.61905 806.701 15.0165 814.851 32.7085C822.987 50.5009 831.472 71.4069 834.998 93.3434C838.517 115.432 839.466 137.186 841.817 157.415C844.16 177.674 848.386 196.229 853.155 214.602C857.671 232.945 863.738 252.382 857.932 271.774C852.102 291.151 834.905 309.044 817.581 323.749C800.291 338.662 783.503 350.844 774.999 364.642C766.444 378.413 767.507 394.963 771.916 411.751C776.205 428.442 784.013 445.561 791.103 461.204C798.16 476.816 804.454 490.956 806.723 501.372C809.003 511.761 807.229 518.431 799.131 518.878Z" stroke="#C4E2F5" stroke-width="1.19112" stroke-miterlimit="10"/>
<path d="M807.694 522.493C772.953 526.361 725.39 514.316 690.65 497.945C655.757 481.923 627.259 463.052 603.429 448.726C579.543 434.419 559.623 424.588 542.295 421.165C525.016 417.698 509.805 418.461 495.819 418.167C481.884 417.836 469.243 416.248 458.221 409.998C447.225 403.804 437.892 392.92 431.054 376.913C424.217 360.958 419.943 339.944 418.95 315.969C417.923 291.972 420.304 265.114 425.59 239.075C430.85 212.979 438.751 188.625 448.025 166.212C457.284 143.859 468.172 122.89 482.025 99.7929C494.07 79.802 505.315 59.4949 517.915 41.297C530.559 23.0916 544.576 7.79527 556.859 -5.61509C569.153 -19.0552 579.71 -30.799 587.935 -41.9291C596.179 -53.0405 602.145 -63.6051 607.182 -73.117C612.208 -82.6363 619.216 -89.0681 628.646 -92.3007C638.058 -95.5519 649.519 -95.8197 662.877 -93.4911C676.239 -91.1847 691.543 -86.2707 708.788 -79.0577C726.038 -71.6513 747.215 -62.6937 763.252 -51.8724C776.911 -42.6098 784.839 -28.1951 792.721 -12.6643C800.648 2.73989 808.576 18.8621 817.064 36.2527C825.538 53.7439 833.707 74.7615 837.115 96.3073C840.519 118.002 841.754 139.354 844.718 159.156C847.661 178.983 852.843 197.065 858.441 215.193C863.779 233.272 870.3 252.786 863.772 272.338C857.225 291.879 839.161 309.913 821.447 324.704C803.751 339.729 786.948 352.027 778.913 366.11C770.822 380.153 772.697 397.027 777.566 413.971C782.317 430.815 790.456 448.027 797.814 463.766C805.142 479.483 811.659 493.715 814.211 504.272C816.778 514.837 815.368 521.734 807.694 522.493Z" stroke="#C4E2F5" stroke-width="1.20303" stroke-miterlimit="10"/>
<path d="M816.039 525.883C782.902 531.139 734.859 521.002 699.222 505.2C663.459 489.77 633.952 470.772 609.427 456.078C584.83 441.407 564.434 430.615 546.902 426.605C529.411 422.539 514.14 422.952 500.109 422.431C486.129 421.858 473.463 420.203 462.366 413.939C451.296 407.715 441.847 396.842 434.85 380.809C427.853 364.81 423.37 343.699 422.195 319.501C420.986 295.284 423.207 268.106 428.474 241.65C433.712 215.145 441.762 190.289 451.106 167.817C460.436 145.386 471.313 124.61 485.222 101.788C497.278 82.0872 508.787 62.0628 521.372 44.0583C533.997 26.0539 548.037 10.9844 560.405 -2.19158C572.789 -15.375 583.491 -26.8584 591.928 -37.7058C600.383 -48.5308 606.625 -58.7531 611.96 -67.9302C617.279 -77.0924 623.852 -83.6767 633.156 -86.7903C642.437 -89.9224 653.772 -90.0415 666.981 -87.5529C680.198 -85.0903 695.335 -79.9791 712.35 -72.6471C729.361 -65.1403 749.977 -56.2757 765.355 -45.7669C778.464 -36.7758 786.25 -22.8818 794.236 -7.8682C802.272 7.00037 810.548 22.6353 819.387 39.7507C828.226 56.9554 835.874 78.0585 839.21 99.2101C842.555 120.518 844.143 141.465 847.777 160.801C851.371 180.174 857.568 197.788 864.004 215.655C870.186 233.47 876.971 253.115 869.658 272.842C862.334 292.546 843.403 310.725 825.302 325.631C807.212 340.779 790.435 353.203 782.909 367.581C775.332 381.921 777.988 399.07 783.289 416.167C788.471 433.148 796.904 450.45 804.492 466.256C812.051 482.054 818.758 496.35 821.559 507.049C824.383 517.732 823.297 524.811 816.039 525.883Z" stroke="#C4E2F5" stroke-width="1.21493" stroke-miterlimit="10"/>
<path d="M824.157 529.057C792.56 535.589 744.543 527.539 708.051 512.391C671.469 497.627 640.932 478.57 615.681 463.549C590.341 448.542 569.405 436.851 551.631 432.186C533.891 427.484 518.554 427.502 504.466 426.732C490.435 425.899 477.735 424.162 466.572 417.853C455.434 411.589 445.87 400.741 438.709 384.675C431.552 368.638 426.865 347.446 425.496 323.05C424.094 298.629 426.143 271.165 431.37 244.322C436.563 217.408 444.75 192.057 454.151 169.533C463.54 147.042 474.387 126.448 488.311 103.928C500.337 84.532 512.092 64.7941 524.669 46.9793C537.276 29.1497 551.349 14.2774 563.811 1.34691C576.283 -11.6171 587.142 -22.8327 595.787 -33.4047C604.451 -43.9396 610.964 -53.8569 616.585 -62.7066C622.191 -71.5414 628.418 -78.2001 637.592 -81.217C646.743 -84.2413 657.943 -84.219 671.004 -81.5815C684.069 -78.9553 699.03 -73.6804 715.807 -66.2592C732.576 -58.637 752.549 -49.9696 767.339 -39.8067C779.95 -31.0872 787.643 -17.7252 795.782 -3.21743C803.962 11.1675 812.615 26.3076 821.825 43.1664C831.05 60.0883 837.992 81.2176 841.306 102.012C844.658 122.922 846.656 143.448 851.012 162.305C855.316 181.213 862.584 198.314 869.853 215.946C876.884 233.512 883.751 253.317 875.593 273.24C867.435 293.153 847.627 311.467 829.168 326.491C810.706 341.762 793.985 354.328 787.029 369.021C780.017 383.674 783.409 401.087 789.116 418.296C794.696 435.407 803.385 452.753 811.171 468.637C818.927 484.484 825.772 498.836 828.793 509.661C831.813 520.471 831.017 527.706 824.157 529.057Z" stroke="#C4E2F5" stroke-width="1.22721" stroke-miterlimit="10"/>
<path d="M832.048 532.04C801.928 539.737 754.413 533.859 717.124 519.512C679.776 505.502 648.213 486.452 622.203 471.145C596.085 455.852 574.554 443.279 556.498 437.937C538.471 432.554 523.044 432.138 508.89 431.089C494.795 429.991 482.066 428.117 470.828 421.755C459.62 415.435 449.944 404.625 442.627 388.51C435.314 372.463 430.418 351.177 428.848 326.614C427.249 302.037 429.109 274.294 434.279 247.082C439.405 219.8 447.716 193.954 457.164 171.359C466.598 148.794 477.397 128.42 491.299 106.205C503.266 87.1401 515.225 67.7258 527.798 50.0636C540.394 32.3865 554.504 17.7039 567.062 4.99286C579.628 -7.75907 590.647 -18.7366 599.496 -29.0296C608.368 -39.3078 615.142 -48.9127 621.039 -57.4425C626.92 -65.9723 632.894 -72.657 641.937 -75.5771C650.954 -78.5122 662.017 -78.3522 674.922 -75.5697C687.83 -72.8095 702.613 -67.3672 719.141 -59.8753C735.665 -52.2122 754.93 -43.7792 769.192 -33.966C781.36 -25.5589 789.016 -12.6991 797.334 1.31757C805.696 15.2152 814.747 29.9015 824.344 46.5185C833.982 63.1503 840.024 84.2795 843.375 104.728C846.786 125.251 849.26 145.301 854.397 163.674C859.468 182.091 867.852 198.66 875.962 216.069C883.848 233.386 890.585 253.402 881.527 273.55C872.495 293.671 851.812 312.151 833.008 327.295C814.192 342.685 797.575 355.425 791.24 370.443C784.857 385.415 788.927 403.052 795.001 420.372C800.957 437.599 809.859 455.015 817.804 470.926C825.72 486.813 832.665 501.224 835.865 512.135C839.064 523.038 838.539 530.444 832.048 532.04Z" stroke="#C4E2F5" stroke-width="1.23911" stroke-miterlimit="10"/>
<path d="M839.72 534.834C810.99 543.613 764.439 539.975 726.425 526.531C688.389 513.366 655.787 494.42 628.993 478.841C602.105 463.288 580.533 450.83 561.625 444.019C542.783 437.156 527.632 436.854 513.385 435.508C499.212 434.091 486.445 432.063 475.136 425.654C463.858 419.274 454.078 408.468 446.601 392.331C439.131 376.257 434.027 354.915 432.257 330.2C430.453 305.463 432.112 277.478 437.201 249.943C442.241 222.315 450.656 195.97 460.141 173.312C469.612 150.68 480.337 130.54 494.182 108.626C506.06 89.8815 518.183 70.8429 530.753 53.322C543.338 35.7788 557.492 21.2971 570.147 8.76835C582.817 -3.77526 593.988 -14.5221 603.046 -24.5622C612.123 -34.5651 619.154 -43.8873 625.314 -52.1195C631.459 -60.3257 637.273 -67.0327 646.179 -69.8524C655.062 -72.6907 665.988 -72.434 678.728 -69.5065C691.473 -66.6124 706.07 -61.025 722.356 -53.4996C738.63 -45.8105 757.137 -37.6899 770.942 -28.2412C782.723 -20.1504 790.386 -7.81138 798.919 5.74406C807.498 19.1544 816.972 33.4278 826.975 49.8141C837.052 66.1558 842.018 87.2589 845.452 107.365C848.982 127.494 851.992 147.057 857.97 164.913C863.862 182.824 873.418 198.846 882.35 216.036C891.088 233.125 897.475 253.413 887.465 273.791C877.51 294.158 855.961 312.787 836.84 328.069C817.705 343.607 801.229 356.511 795.583 371.875C789.891 387.186 794.567 405.004 800.976 422.417C807.271 439.745 816.358 457.184 824.416 473.146C832.447 489.093 839.463 503.504 842.803 514.504C846.159 525.482 845.861 533.015 839.72 534.834Z" stroke="#C4E2F5" stroke-width="1.25101" stroke-miterlimit="10"/>
<path d="M847.18 537.454C819.745 547.208 774.597 545.899 735.939 533.429C697.296 521.228 663.672 502.409 636.066 486.64C608.364 470.875 586.167 457.866 566.92 450.304C547.74 442.678 532.302 441.692 517.962 439.988C503.696 438.236 490.892 436.034 479.505 429.539C468.152 423.077 458.272 412.264 450.639 396.112C443.017 380.03 437.708 358.645 435.722 333.784C433.709 308.928 435.156 280.716 440.145 252.879C445.077 224.95 453.585 198.081 463.093 175.367C472.59 152.664 483.229 132.748 496.985 111.169C508.744 92.7624 520.983 74.1292 533.549 56.7311C546.122 39.2995 560.325 24.9778 573.084 12.6462C585.858 0.2886 597.193 -10.2463 606.456 -20.0223C615.737 -29.7871 623.013 -38.8228 629.43 -46.7574C635.832 -54.6846 641.557 -61.3246 650.336 -64.0625C659.085 -66.819 669.869 -66.447 682.443 -63.4115C695.023 -60.4058 709.423 -54.6883 725.464 -47.148C741.485 -39.4552 759.196 -31.7214 772.599 -22.6485C784.049 -14.8813 791.764 -3.0296 800.547 10.0571C809.344 23.062 819.998 36.1376 829.674 53.1116C839.39 70.0299 843.951 90.1882 847.559 109.911C851.268 129.623 854.876 148.692 861.754 166C868.525 183.372 879.298 198.825 889.036 215.829C898.615 232.717 904.418 253.318 893.422 273.953C882.504 294.565 860.103 313.366 840.696 328.796C821.27 344.472 804.988 357.577 800.093 373.301C795.168 388.984 800.35 406.922 807.064 424.42C813.671 441.837 822.896 459.313 831.032 475.287C839.137 491.238 846.183 505.682 849.635 516.745C853.091 527.782 852.998 535.431 847.18 537.454Z" stroke="#C4E2F5" stroke-width="1.26329" stroke-miterlimit="10"/>
<path d="M854.434 539.914C828.194 550.553 784.849 551.546 745.641 540.193C706.478 529.044 671.852 510.482 643.421 494.523C614.882 478.594 592.019 465.08 572.389 456.777C552.818 448.437 537.068 446.625 522.62 444.55C508.246 442.414 495.394 440.034 483.929 433.423C472.505 426.865 462.517 416.036 454.735 399.866C446.964 383.732 441.447 362.343 439.245 337.375C437.017 312.406 438.244 284.008 443.11 255.893C447.916 227.659 456.491 200.317 466.021 177.533C475.537 154.763 486.075 135.062 499.709 113.833C511.323 95.7761 523.624 77.5968 536.187 60.2917C548.745 42.9494 562.996 28.7802 575.867 16.6234C588.749 4.44436 600.244 -5.89333 609.711 -15.4201C619.197 -24.9319 626.715 -33.7073 633.377 -41.3629C640.028 -49.0036 645.746 -55.5432 654.395 -58.2216C663.014 -60.9148 673.653 -60.4312 686.055 -57.2991C698.465 -54.1929 712.671 -48.3675 728.462 -40.8421C744.235 -33.1976 761.112 -25.8805 774.184 -17.1945C785.355 -9.76949 793.159 1.58748 802.229 14.2538C811.302 26.8681 822.859 39.9102 832.249 56.4676C841.664 73.0362 845.863 93.0531 849.706 112.356C853.653 131.659 857.931 150.18 865.761 166.92C873.465 183.734 885.503 198.614 896.019 215.443C906.416 232.141 911.401 253.137 899.382 274.035C887.475 294.912 864.229 313.909 844.576 329.477C824.894 345.331 808.858 358.623 804.788 374.73C800.696 390.793 806.28 408.812 813.262 426.385C820.144 443.873 829.473 461.382 837.646 477.359C845.793 493.318 852.82 507.77 856.346 518.878C859.876 529.967 859.943 537.7 854.434 539.914Z" stroke="#C4E2F5" stroke-width="1.27519" stroke-miterlimit="10"/>
<path d="M861.482 542.228C836.324 553.663 795.155 556.967 755.501 546.804C715.917 536.812 680.325 518.562 651.056 502.492C621.676 486.455 598.103 472.435 578.041 463.455C558.032 454.408 541.939 451.715 527.365 449.215C512.864 446.674 499.949 444.052 488.41 437.334C476.904 430.649 466.819 419.791 458.881 403.613C450.957 387.479 445.24 366.041 442.818 340.984C440.374 315.904 441.364 287.368 446.092 259C450.749 230.505 459.379 202.666 468.925 179.821C478.451 156.962 488.878 137.507 502.363 116.62C513.806 98.9166 526.119 81.2357 538.666 64.0087C551.206 46.7408 565.513 32.7129 578.492 20.7162C591.482 8.69706 603.144 -1.41744 612.808 -10.7359C622.491 -20.032 630.254 -28.532 637.151 -35.9198C644.037 -43.2927 649.829 -49.6873 658.344 -52.3024C666.836 -54.9398 677.323 -54.3632 689.558 -51.1455C701.796 -47.9538 715.802 -42.0465 731.347 -34.5583C746.874 -26.9808 762.9 -20.151 775.693 -11.8519C786.633 -4.76539 794.575 6.11542 803.957 18.3652C813.331 30.6037 825.633 43.5379 834.747 59.7494C843.875 76.0167 847.766 95.8253 851.903 114.708C856.155 133.553 861.158 151.524 870.004 167.676C878.701 183.917 892.03 198.176 903.294 214.882C914.48 231.439 918.4 252.877 905.336 274.051C892.409 295.232 868.349 314.375 848.484 330.122C828.59 346.14 812.855 359.669 809.689 376.171C806.52 392.635 812.364 410.677 819.577 428.309C826.7 445.878 836.097 463.381 844.27 479.358C852.416 495.32 859.395 509.772 862.955 520.906C866.515 532.058 866.719 539.859 861.482 542.228Z" stroke="#C4E2F5" stroke-width="1.2871" stroke-miterlimit="10"/>
<path d="M868.34 544.399C844.157 556.57 805.477 562.076 765.502 553.234C725.61 544.477 689.088 526.647 658.978 510.521C628.75 494.433 604.433 479.962 583.899 470.309C563.406 460.618 546.93 456.928 532.207 453.971C517.558 450.973 504.575 448.105 492.947 441.245C481.359 434.426 471.17 423.534 463.083 407.323C455.011 391.171 449.089 369.718 446.448 344.583C443.78 319.458 444.528 290.729 449.104 262.167C453.597 233.438 462.261 205.137 471.81 182.204C481.337 159.256 491.652 140.046 504.955 119.501C516.211 102.14 528.468 85.0392 540.997 67.8568C553.507 50.6484 567.874 36.721 580.96 24.8916C594.062 13.0213 605.888 3.09654 615.753 -5.99869C625.637 -15.0679 633.631 -23.3262 640.762 -30.4535C647.882 -37.5698 653.811 -43.7672 662.196 -46.3414C670.562 -48.9416 680.9 -48.2757 692.96 -44.9873C705.028 -41.7212 718.828 -35.747 734.132 -28.3369C749.414 -20.8636 764.584 -14.5694 777.15 -6.64969C787.915 0.0833875 796.024 10.5178 805.752 22.3621C815.457 34.2435 828.328 47.0364 837.182 62.9465C846.039 78.9608 849.681 98.5202 854.174 116.949C858.787 135.344 864.598 152.716 874.508 168.247C884.243 183.885 898.918 197.541 910.87 214.143C922.792 230.589 925.419 252.544 911.29 273.997C897.326 295.472 872.477 314.797 852.445 330.733C832.379 346.941 817.009 360.705 814.832 377.627C812.671 394.504 818.612 412.52 826.026 430.208C833.361 447.826 842.784 465.335 850.912 481.312C859.018 497.26 865.903 511.689 869.471 522.853C873.023 534.016 873.328 541.884 868.34 544.399Z" stroke="#C4E2F5" stroke-width="1.29937" stroke-miterlimit="10"/>
<path d="M875.021 546.445C851.686 559.267 815.785 566.901 775.614 559.468C735.539 552.065 698.135 534.727 667.185 518.605C636.112 502.531 611.014 487.629 589.967 477.347C568.949 467.013 552.042 462.296 537.151 458.848C522.323 455.358 509.263 452.204 497.541 445.184C485.861 438.187 475.571 427.258 467.335 411.024C459.114 394.839 452.991 373.405 450.123 348.187C447.233 323.007 447.731 294.177 452.132 265.408C456.443 236.474 465.111 207.726 474.664 184.7C484.19 161.647 494.379 142.687 507.477 122.488C518.522 105.532 530.035 89.3283 543.144 71.8669C556.22 54.4167 570.054 40.891 583.26 29.1658C596.469 17.4592 608.462 7.67577 618.525 -1.19255C628.606 -10.0534 636.83 -18.0699 644.185 -24.948C651.532 -31.8039 657.658 -37.7855 665.92 -40.3114C674.164 -42.8595 684.353 -42.1416 696.238 -38.7973C708.13 -35.4829 721.727 -29.4529 736.792 -22.1544C751.836 -14.8224 766.143 -9.09369 778.541 -1.5571C789.173 4.82258 797.494 14.8329 807.594 26.2828C817.664 37.8035 830.929 50.4289 839.53 66.0898C848.126 81.8847 851.59 101.158 856.504 119.091C861.54 137.003 868.218 153.739 879.251 168.641C890.08 183.651 906.127 196.689 918.716 213.239C931.326 229.618 932.42 252.131 917.213 273.889C902.195 295.695 876.595 315.199 856.444 331.325C836.26 347.722 821.071 361.668 820.242 379.126C819.46 396.557 825.033 414.38 832.592 432.086C840.106 449.764 849.51 467.258 857.56 483.217C865.591 499.153 872.347 513.549 875.881 524.72C879.415 535.873 879.783 543.803 875.021 546.445Z" stroke="#C4E2F5" stroke-width="1.31128" stroke-miterlimit="10"/>
<path d="M881.532 548.38C858.929 561.779 826.041 571.447 785.803 565.495C745.668 559.532 707.454 542.803 675.674 526.737C643.772 510.741 617.859 495.449 596.257 484.564C574.674 473.65 557.295 467.836 542.207 463.866C527.178 459.856 514.021 456.389 502.199 449.169C490.418 441.982 480.028 430.99 471.64 414.722C463.27 398.511 456.953 377.047 453.855 351.803C450.737 326.567 450.975 297.656 455.194 268.723C459.312 239.625 467.961 210.413 477.51 187.316C487.029 164.174 497.091 145.429 509.962 125.587C520.791 108.981 532.066 93.1417 545.134 76.0151C558.176 58.8997 572.111 45.1397 585.418 33.5447C598.739 21.9571 610.895 12.3634 621.155 3.68477C631.433 -4.97524 639.881 -12.7648 647.455 -19.3974C655.021 -26.0189 661.408 -31.7141 669.551 -34.2176C677.672 -36.7509 687.716 -35.9623 699.422 -32.5846C711.14 -29.2366 724.536 -23.188 739.363 -16.016C754.176 -8.85139 767.624 -3.72907 779.903 3.43924C790.445 9.46926 799.02 19.0593 809.517 30.1335C819.978 41.3045 833.466 53.7253 841.832 69.1965C850.191 84.7867 853.55 103.703 858.952 121.138C864.476 138.555 872.102 154.61 884.299 168.853C896.277 183.209 913.713 195.633 926.866 212.176C940.087 228.54 939.429 251.681 923.146 273.737C907.069 295.878 880.754 315.568 860.54 331.902C840.285 348.489 826.231 362.989 825.948 380.652C825.718 398.28 831.621 416.196 839.325 433.954C846.981 451.687 856.329 469.171 864.26 485.092C872.172 501.01 878.76 515.354 882.227 526.529C885.69 537.674 886.1 545.645 881.532 548.38Z" stroke="#C4E2F5" stroke-width="1.32318" stroke-miterlimit="10"/>
<path d="M887.88 550.205C865.884 564.122 836.192 575.65 796.039 571.283C755.983 566.863 717.031 550.827 684.437 534.887C651.724 519.036 624.974 503.386 602.785 491.948C580.599 480.468 562.702 473.567 547.384 469.022C532.125 464.442 518.852 460.63 506.918 453.19C495.026 445.787 484.532 434.702 475.991 418.401C467.472 402.16 460.955 380.696 457.629 355.411C454.285 330.142 454.263 301.175 458.276 272.092C462.182 242.835 470.787 213.235 480.332 190.03C489.844 166.762 499.772 148.244 512.394 128.763C522.988 112.511 534.007 97.0396 546.993 80.2403C559.965 63.4634 574.011 49.4691 587.41 37.9931C600.835 26.5208 613.163 17.0982 623.613 8.60187C634.084 0.120425 642.755 -7.43847 650.537 -13.8405C658.316 -20.2388 665.03 -25.5843 673.047 -28.0953C681.052 -30.6174 690.943 -29.7915 702.479 -26.3878C714.026 -23.0213 727.213 -16.9727 741.817 -9.96802C756.403 -3.01175 769.01 1.50795 781.222 8.30055C791.72 14.0069 800.573 23.1766 811.506 33.8863C822.391 44.6852 835.924 56.935 844.063 72.235C852.199 87.6579 855.547 106.131 861.499 123.046C867.573 139.923 876.215 155.283 889.636 168.842C902.805 182.52 921.654 194.327 935.291 210.933C949.036 227.367 946.421 251.149 929.071 273.513C911.933 296 884.953 315.879 864.727 332.444C844.461 349.24 831.642 364.313 831.895 382.161C832.193 399.969 838.413 417.984 846.217 435.788C853.981 453.543 863.228 471.019 871.003 486.915C878.755 502.791 885.139 517.098 888.509 528.258C891.872 539.392 892.281 547.378 887.88 550.205Z" stroke="#C4E2F5" stroke-width="1.33546" stroke-miterlimit="10"/>
<path d="M894.086 551.947C872.57 566.309 846.218 579.541 806.288 576.829C766.448 574.024 726.853 558.806 693.47 543.06C659.976 527.443 632.363 511.47 609.556 499.499C586.738 487.51 568.276 479.512 552.697 474.349C537.17 469.148 523.771 464.949 511.711 457.274C499.699 449.622 489.09 438.44 480.396 422.091C471.725 405.802 465.014 384.345 461.454 359.035C457.879 333.75 457.589 304.727 461.391 275.53C465.074 246.142 473.604 216.204 483.142 192.858C492.642 169.46 502.437 151.161 514.794 132.033C525.14 116.134 535.875 101.002 548.743 84.5595C561.602 68.1285 575.768 53.8961 589.26 42.5354C602.786 31.171 615.281 21.8972 625.92 13.5795C636.581 5.28774 645.472 -2.06658 653.459 -8.24911C661.449 -14.4205 668.536 -19.4201 676.437 -21.9199C684.327 -24.4383 694.073 -23.5901 705.437 -20.1826C716.817 -16.8347 729.87 -9.93795 744.199 -4.11626C758.536 1.56036 770.346 6.60829 782.529 13.0587C793.027 18.4302 802.196 27.213 813.583 37.5693C824.903 48.0409 838.83 59.7736 846.166 75.3006C853.442 90.9987 857.579 108.505 864.185 124.828C870.878 141.14 880.605 155.759 895.295 168.611C909.702 181.594 929.972 192.783 943.993 209.527C958.158 226.092 953.401 250.558 934.998 273.234C916.808 296.079 889.209 316.155 869.036 332.965C848.822 349.988 837.331 365.615 838.105 383.675C838.912 401.65 845.415 419.759 853.286 437.611C861.124 455.407 870.227 472.865 877.804 488.708C885.359 504.547 891.505 518.809 894.737 529.932C897.962 541.062 898.349 549.03 894.086 551.947Z" stroke="#C4E2F5" stroke-width="1.34736" stroke-miterlimit="10"/>
<path d="M900.166 553.596C879.01 568.338 856.081 583.084 816.519 582.102C777.043 581.005 736.905 566.702 702.771 551.223C668.529 535.889 640.042 519.674 616.588 507.205C593.108 494.725 574.039 485.685 558.163 479.852C542.331 473.997 528.779 469.381 516.585 461.428C504.436 453.504 493.715 442.203 484.865 425.791C476.041 409.441 469.133 387.992 465.343 362.663C461.541 337.357 460.976 308.308 464.547 279.028C467.991 249.544 476.421 219.29 485.948 195.802C495.433 172.24 505.101 154.169 517.18 135.39C527.269 119.83 537.696 105.077 550.41 88.9582C563.121 72.8508 577.398 58.4286 590.976 47.1572C604.598 35.8858 617.257 26.7571 628.082 18.6105C638.933 10.4936 648.036 3.33646 656.227 -2.63403C664.419 -8.59336 671.777 -13.314 679.711 -15.7096C687.635 -18.1238 697.106 -17.3613 708.303 -13.9724C719.518 -10.6319 732.698 -3.82069 746.443 1.59925C760.203 6.91504 771.62 11.6542 783.829 17.7326C794.371 22.7657 803.883 31.2025 815.749 41.1979C827.567 51.2901 841.015 63.1493 848.183 78.334C855.315 93.6639 859.719 110.764 867.021 126.489C874.394 142.228 885.29 156.047 901.289 168.174C916.98 180.435 938.671 191.041 952.959 207.985C967.43 224.788 960.377 249.923 940.94 272.927C921.715 296.14 893.544 316.421 873.494 333.488C853.395 350.752 843.325 366.96 844.597 385.199C845.896 403.348 852.651 421.557 860.552 439.432C868.42 457.269 877.344 474.685 884.683 490.491C892.004 506.283 897.867 520.467 900.936 531.574C903.986 542.652 904.313 550.62 900.166 553.596Z" stroke="#C4E2F5" stroke-width="1.35926" stroke-miterlimit="10"/>
<path d="M906.12 555.185C885.203 570.273 865.732 586.295 826.684 587.102C787.722 587.779 747.16 574.518 712.311 559.374C677.37 544.409 648.001 527.989 623.87 515.066C599.701 502.124 580.001 492.11 563.782 485.567C547.604 479.012 533.877 473.92 521.527 465.673C509.229 457.437 498.382 445.994 489.372 429.511C480.388 413.088 473.291 391.635 469.262 366.306C465.226 340.988 464.385 311.939 467.718 282.589C470.921 253.038 479.209 222.519 488.721 198.857C498.192 175.142 507.73 157.264 519.518 138.825C529.339 123.61 539.446 109.218 551.967 93.4265C564.496 77.6502 578.866 63.0309 592.529 51.8525C606.245 40.6592 619.056 31.657 630.071 23.6815C641.104 15.7282 650.423 8.76826 658.807 2.99493C667.196 -2.76353 674.736 -7.28699 682.786 -9.51523C690.825 -11.7658 700.002 -11.1445 711.035 -7.78173C722.084 -4.44495 735.3 2.16166 748.514 7.19472C761.749 12.1385 772.812 16.5987 785.099 22.2976C795.72 27.0257 805.611 35.0831 817.987 44.7474C830.341 54.4639 843.093 66.4123 850.157 81.2735C857.206 96.2685 861.946 112.885 870.01 127.992C878.135 143.11 890.269 156.085 907.619 167.483C924.63 179.018 947.727 189.051 962.161 206.285C976.798 223.393 967.324 249.225 946.883 272.56C926.643 296.144 897.962 316.652 878.105 333.991C858.192 351.497 849.618 368.285 851.37 386.717C853.137 405.027 860.115 423.343 868.005 441.24C875.869 459.107 884.566 476.494 891.627 492.252C898.672 507.991 904.223 522.119 907.091 533.175C909.944 544.212 910.182 552.18 906.12 555.185Z" stroke="#C4E2F5" stroke-width="1.37154" stroke-miterlimit="10"/>
<path d="M911.971 556.699C891.165 572.062 875.136 589.148 836.754 591.793C798.461 594.337 757.597 582.195 722.083 567.476C686.498 552.961 656.24 536.396 631.417 523.056C606.538 509.72 586.179 498.772 569.573 491.485C553.005 484.153 539.07 478.592 526.552 469.999C514.083 461.443 503.106 449.814 493.929 433.246C484.785 416.737 477.49 395.28 473.224 369.951C468.957 344.644 467.837 315.588 470.917 286.193C473.863 256.582 481.98 225.852 491.481 202.015C500.937 178.118 510.352 160.418 521.839 142.325C531.385 127.449 541.149 113.399 553.451 97.9534C565.764 82.5119 580.205 67.7364 593.946 56.6175C607.744 45.5061 620.711 36.6191 631.908 28.7924C643.124 20.9768 652.643 14.2177 661.221 8.63408C669.803 3.05418 677.515 -1.26095 685.684 -3.34411C693.834 -5.46075 702.792 -4.90649 713.665 -1.61435C724.55 1.67407 737.711 8.0426 750.448 12.6814C763.207 17.2457 773.965 21.4232 786.371 26.7762C797.111 31.1769 807.404 38.9143 820.319 48.2402C833.242 57.5326 845.109 69.5852 852.113 84.1338C859.14 98.7494 864.281 114.92 873.172 129.35C882.111 143.805 895.566 155.914 914.3 166.556C932.669 177.337 957.146 186.849 971.579 204.466C986.228 222.002 974.25 248.495 952.846 272.158C931.616 296.125 902.493 316.849 882.907 334.496C863.262 352.285 856.235 369.639 858.452 388.246C860.669 406.73 867.834 425.125 875.672 443.051C883.491 460.944 891.917 478.305 898.665 494.007C905.394 509.698 910.591 523.744 913.228 534.751C915.858 545.74 915.977 553.667 911.971 556.699Z" stroke="#C4E2F5" stroke-width="1.38344" stroke-miterlimit="10"/>
<path d="M917.739 558.17C896.911 573.775 882.641 591.359 846.625 596.162C810.716 600.957 768.179 589.775 732.081 575.531C695.912 561.54 664.776 544.886 639.246 531.182C613.668 517.459 593.219 506.459 575.687 497.784C558.222 489.098 544.41 483.396 531.684 474.438C519.025 465.499 507.903 453.685 498.555 437.016C489.24 420.391 481.752 398.935 477.247 373.609C472.742 348.321 471.343 319.269 474.167 289.851C476.849 260.218 484.761 229.332 494.243 205.283C503.684 181.166 512.984 163.668 524.159 145.898C533.429 131.338 542.837 117.648 554.889 102.538C566.953 87.4201 581.435 72.5032 595.247 61.4476C609.115 50.3771 622.235 41.6241 633.607 33.9387C645.001 26.2831 654.725 19.6951 663.489 14.2826C672.261 8.8961 680.143 4.75954 688.424 2.80285C696.686 0.823848 705.487 1.30371 716.208 4.53261C726.936 7.77267 739.96 13.8027 752.269 18.0657C764.6 22.2804 775.098 26.1491 787.664 31.1673C798.556 35.2816 809.281 42.6768 822.765 51.6753C836.298 60.5585 847.09 72.6483 854.083 86.9105C861.148 101.147 866.753 116.815 876.552 130.542C886.38 144.302 901.226 155.495 921.377 165.368C941.13 175.393 966.957 184.391 981.227 202.526C995.72 220.568 981.193 247.693 958.87 271.706C936.688 296.079 907.189 317.037 887.957 334.985C868.658 353.064 863.234 370.976 865.89 389.769C868.535 408.424 875.841 426.897 883.594 444.857C891.327 462.787 899.437 480.104 905.828 495.75C912.2 511.396 917.013 525.36 919.387 536.301C921.738 547.233 921.715 555.116 917.739 558.17Z" stroke="#C4E2F5" stroke-width="1.39535" stroke-miterlimit="10"/>
<path d="M923.43 559.602C902.42 575.349 889.712 593.71 856.066 600.213C822.527 606.723 778.907 597.2 742.273 583.522C705.605 570.163 673.595 553.453 647.344 539.437C621.036 525.39 599.974 513.758 582.014 504.35C564.114 494.913 549.852 488.377 536.914 479.014C524.039 469.666 512.76 457.628 503.237 440.84C493.744 424.096 486.062 402.625 481.316 377.3C476.573 352.011 474.892 323.003 477.447 293.568C479.858 263.923 487.532 232.959 496.992 208.668C506.414 184.328 515.61 166.978 526.472 149.536C535.459 135.296 544.503 121.967 556.28 107.173C568.068 92.3899 582.55 77.3428 596.429 66.343C610.357 55.3357 623.626 46.6683 635.165 39.1205C646.73 31.5988 656.655 25.1782 665.601 19.9368C674.555 14.7066 682.605 10.7634 690.997 8.9258C699.375 7.06212 708.087 7.51969 718.651 10.6519C729.227 13.7989 742.05 19.4495 753.972 23.3517C765.917 27.2019 776.191 30.8102 788.962 35.4936C800.043 39.3028 811.229 46.4079 825.305 55.0679C839.489 63.5084 849.02 75.654 856.062 89.6074C863.23 103.464 869.375 118.575 880.141 131.568C890.921 144.607 907.241 154.833 928.827 163.932C949.812 173.239 979.612 181.211 990.768 200.577C1001.9 219.846 988.116 246.786 964.933 271.229C941.843 295.997 912.039 317.193 893.25 335.488C874.39 353.886 870.596 372.33 873.664 391.305C876.711 410.124 884.132 428.698 891.747 446.68C899.351 464.632 907.103 481.923 913.1 497.513C919.074 513.085 923.471 526.978 925.546 537.852C927.596 548.714 927.399 556.548 923.43 559.602Z" stroke="#C4E2F5" stroke-width="1.40762" stroke-miterlimit="10"/>
<path d="M929.064 560.992C905.345 578.454 893.468 600.082 853.955 606.104C814.501 612.056 767.633 598.553 728.541 582.386C689.348 566.539 656.657 548.512 630.364 534.131C604.023 519.705 583.147 508.244 565.965 498.699C548.846 489.153 534.494 479.489 521.954 464.762C509.485 450.094 498.924 430.341 491.339 405.049C483.78 379.824 479.342 349.206 479.852 316.865C480.258 284.371 486.358 249.976 496.64 220.708C506.948 191.488 517.081 172.334 528.773 153.243C537.481 139.305 546.145 126.337 557.625 111.859C569.116 97.3811 583.56 82.267 597.484 71.3044C611.46 60.3343 624.866 51.7599 636.573 44.3386C648.302 36.9359 658.424 30.6753 667.549 25.5976C676.681 20.5385 684.895 16.7479 693.395 15.0218C701.88 13.2697 710.57 13.731 720.989 16.7293C731.416 19.7647 743.986 24.9875 755.562 28.5326C767.165 32.0331 777.257 35.3736 790.269 39.7408C801.578 43.2821 813.24 50.0933 827.945 58.3999C842.821 66.3792 850.919 78.562 858.058 92.2029C865.393 105.654 872.141 120.21 883.952 132.397C895.755 144.669 913.633 153.842 936.667 162.208C959.057 170.746 990.223 178.65 1000.35 198.522C1010.43 218.29 995.07 245.873 971.058 270.696C947.105 295.877 917.082 317.318 898.832 335.978C880.507 354.719 878.35 373.672 881.809 392.833C885.235 411.823 892.724 430.475 900.156 448.502C907.585 466.495 914.932 483.741 920.489 499.271C926.028 514.783 929.968 528.588 931.72 539.387C933.449 550.171 933.051 557.964 929.064 560.992Z" stroke="#C4E2F5" stroke-width="1.41953" stroke-miterlimit="10"/>
<path d="M934.651 562.365C910.423 579.871 900.219 602.228 863.403 610.148C826.654 618.016 778.488 606.283 738.774 590.603C698.989 575.318 665.346 557.128 638.298 542.267C611.191 527.383 589.612 514.933 571.98 504.576C554.399 494.209 539.798 484.057 527.028 469.006C514.328 454.041 503.563 434.147 495.732 408.814C487.931 383.567 483.192 352.967 483.389 320.667C483.501 288.247 489.14 254.18 499.37 224.436C509.659 194.784 519.737 175.757 531.075 157.001C540.706 141.433 550.27 127.014 563.881 110.461C577.507 93.9069 594.742 78.5064 610.313 67.514C625.959 56.5254 640.173 48.0588 652.315 40.8682C664.487 33.711 674.754 27.9042 684.604 24.2215C694.447 20.5387 703.989 19.1512 714.791 20.8921C725.583 22.6293 739.142 28.3469 752.192 32.1933C765.286 35.9206 776.42 39.2239 791.593 43.9371C803.106 47.3371 816.591 53.2964 830.493 61.8486C844.479 70.2259 852.712 81.5196 860.099 94.7216C867.662 107.741 875.087 121.665 888.018 133.048C900.918 144.509 920.422 152.63 944.914 160.226C968.74 167.989 1000.99 175.976 1010.01 196.391C1018.97 216.706 1002.06 244.921 977.266 270.142C952.506 295.724 922.341 317.445 904.742 336.48C887.058 355.582 886.526 375.037 890.346 394.373C894.115 413.531 901.629 432.294 908.845 450.34C916.051 468.367 922.944 485.601 928.029 501.054C933.092 516.506 936.54 530.207 937.939 540.939C939.315 551.648 938.687 559.352 934.651 562.365Z" stroke="#C4E2F5" stroke-width="1.43143" stroke-miterlimit="10"/>
<path d="M940.21 563.73C915.317 581.195 906.646 604.244 872.456 613.916C838.355 623.561 789.457 613.819 749.192 598.746C708.898 584.112 674.313 565.813 646.507 550.532C618.645 535.224 596.82 522.469 578.257 510.773C559.78 499.07 545.232 488.747 532.193 473.358C519.241 458.017 508.263 438.004 500.176 412.612C492.122 387.312 487.089 356.768 486.959 324.501C486.777 292.182 491.829 258.536 502.084 228.278C512.437 198.18 522.391 179.249 533.376 160.798C542.695 145.546 551.801 131.526 565.04 115.333C578.298 99.144 595.548 83.5054 611.197 72.5874C626.925 61.6471 641.321 53.3033 653.66 46.2652C666.029 39.268 676.508 33.6434 686.522 30.0872C696.529 26.5532 706.19 25.2848 717.022 26.9587C727.862 28.6811 741.03 33.8815 753.723 37.315C766.464 40.6332 777.411 43.6612 792.938 48.0545C804.705 51.2834 819.324 57.1981 832.961 65.1922C846.654 73.1194 854.518 84.3684 862.192 97.1129C870.053 109.683 878.225 122.955 892.35 133.46C906.419 144.07 927.622 151.067 953.572 157.93C978.842 164.931 1011.9 173.126 1019.74 194.144C1027.53 215.027 1009.09 243.913 983.585 269.521C958.085 295.527 927.864 317.519 911.028 336.959C894.094 356.448 895.155 376.368 899.306 395.887C903.398 415.223 910.886 434.079 917.828 452.169C924.765 470.23 931.16 487.434 935.724 502.831C940.266 518.22 943.198 531.839 944.206 542.474C945.199 553.102 944.317 560.75 940.21 563.73Z" stroke="#C4E2F5" stroke-width="1.44371" stroke-miterlimit="10"/>
<path d="M945.761 565.089C920.057 582.446 912.758 606.105 881.124 617.428C849.597 628.759 800.513 621.171 759.78 606.804C719.08 592.914 683.569 574.586 654.993 558.929C626.353 543.26 603.855 529.79 584.805 517.299C565.833 504.8 550.779 493.636 537.465 477.853C524.237 462.128 513.033 441.914 504.681 416.478C496.367 391.115 491.037 360.623 490.579 328.397C490.073 296.123 494.76 262.543 504.8 232.237C514.926 202.079 525.037 182.784 535.695 164.66C544.708 149.721 553.349 136.091 566.202 120.244C579.073 104.401 596.277 88.6027 611.994 77.7181C627.789 66.8299 642.36 58.5865 654.889 51.686C667.443 44.8153 678.131 39.3545 688.305 35.9433C698.471 32.5172 708.251 31.3417 719.124 32.9674C729.998 34.6078 742.794 39.2912 755.178 42.3639C767.61 45.2803 778.413 48.0591 794.33 52.1399C806.379 55.2125 821.988 60.9822 835.38 68.4853C848.794 75.9995 856.353 87.1593 864.377 99.4239C872.598 111.514 881.592 124.083 896.986 133.673C912.293 143.386 935.278 149.223 962.668 155.368C989.377 161.629 1022.96 170.17 1029.56 191.834C1036.13 213.351 1016.19 242.853 990.043 268.885C963.874 295.327 933.698 317.617 917.739 337.466C901.68 357.36 904.273 377.727 908.711 397.431C913.085 416.946 920.507 435.922 927.124 454.045C933.746 472.143 939.586 489.329 943.593 504.662C947.573 519.985 949.946 533.518 950.545 544.056C951.118 554.599 949.965 562.131 945.761 565.089Z" stroke="#C4E2F5" stroke-width="1.45561" stroke-miterlimit="10"/>
<path d="M951.313 566.452C924.645 583.634 918.578 607.821 889.399 620.692C860.361 633.552 811.6 628.292 770.502 614.755C729.494 601.713 693.094 583.407 663.751 567.438C634.33 551.431 611.137 537.325 591.562 524.06C572.059 510.798 556.465 498.701 542.85 482.5C529.317 466.348 517.871 445.941 509.248 420.411C500.666 394.948 495.034 364.515 494.242 332.342C493.405 300.127 497.723 266.618 507.522 236.286C517.394 206.069 527.691 186.379 538.025 168.572C546.741 153.923 554.917 140.668 567.36 125.179C579.815 109.659 596.927 93.7378 612.699 82.8867C628.542 72.0171 643.281 63.8928 655.988 57.1113C668.729 50.382 679.617 45.0736 689.947 41.7666C700.277 38.4707 710.165 37.3585 721.087 38.906C732.005 40.4684 744.437 44.6198 756.545 47.3242C768.709 49.8537 779.4 52.387 795.746 56.1888C808.107 59.094 824.568 64.6442 837.725 71.7158C850.879 78.8804 858.2 89.8616 866.64 101.624C875.289 113.2 885.195 125.022 901.924 133.656C918.541 142.421 943.379 147.067 972.182 152.524C1000.33 158.052 1034.13 167.132 1039.45 189.459C1044.76 211.615 1023.37 241.787 996.659 268.217C969.898 295.09 939.86 317.674 924.913 337.985C909.862 358.314 913.887 379.083 918.582 398.981C923.206 418.674 930.5 437.779 936.75 455.948C942.999 474.093 948.237 491.257 951.648 506.535C955.026 521.801 956.808 535.23 956.968 545.672C957.09 556.122 955.628 563.561 951.313 566.452Z" stroke="#C4E2F5" stroke-width="1.46751" stroke-miterlimit="10"/>
</g>
<defs>
<clipPath id="clip0_6836_79050">
<rect width="829.463" height="949.2" fill="white" transform="translate(0 -320.053)"/>
</clipPath>
</defs>
</svg>
