<svg fill="none" height="20" viewBox="0 0 20 20" width="20" xmlns="http://www.w3.org/2000/svg"><path clip-rule="evenodd" d="m18.2148 7.79334c.4457.44566.3568 1.19095-.1812 1.51927l-3.3072 2.01839c-.2281.1392-.407.3463-.5115.5922l-1.9823 4.662c-.2699.6349-1.0963.7953-1.5842.3075l-3.22713-3.2271-4.83443 4.8344-1.08684-1.0869 4.83444-4.8345-3.22721-3.22705c-.48777-.48787-.3274-1.31432.30752-1.58424l4.66195-1.9822c.24593-.10455.45303-.2834.59219-.5115l2.01841-3.30718c.3283-.53803 1.0736-.62691 1.5194-.18122zm-4.2892 2.22566 2.6958-1.64525-4.9951-4.99518-1.64533 2.69579c-.3063.50181-.76179.89527-1.30275 1.1253l-3.8936 1.65541 6.36028 6.36023 1.6554-3.8935c.23-.5411.6235-.9965 1.1253-1.3028z" fill="#a2aab2" fill-rule="evenodd"/></svg>