<svg width="155" height="165" fill="none" xmlns="http://www.w3.org/2000/svg"><path fill="#fff" d="M0 0h155v164.291H0z"/><path fill-rule="evenodd" clip-rule="evenodd" d="M77.5 27.382c23.508 0 43.077 17.73 47.469 41.347C141.76 69.96 155 84.61 155 102.682c0 18.894-14.467 34.227-32.292 34.227H38.75C17.373 136.909 0 118.495 0 95.837c0-21.153 15.113-38.609 34.552-40.8C42.625 38.61 58.835 27.383 77.5 27.383zm12.917 88.991V88.992h19.375L77.5 54.764 45.21 88.992h19.375v27.381h25.833z" fill="#E68B28"/><mask id="a" maskUnits="userSpaceOnUse" x="0" y="27" width="155" height="110"><path d="M124.969 68.729c-4.392-23.617-23.961-41.347-47.469-41.347-18.665 0-34.875 11.227-42.948 27.656C15.112 57.228 0 74.684 0 95.837c0 22.658 17.373 41.072 38.75 41.072h83.958c17.825 0 32.292-15.333 32.292-34.227 0-18.072-13.24-32.721-30.031-33.953z" fill="#fff"/></mask><g mask="url(#a)"><path fill="#E68B28" d="M0 0h155v164.291H0z"/></g><path d="M71.235 47.81H83.83v39.865H71.235V47.811zM71.235 101.105H83.83v13.162H71.235v-13.162z" fill="#fff"/></svg>
