<svg width="48" height="50" fill="none" xmlns="http://www.w3.org/2000/svg"><path d="M38.7 20.946c-1.36-6.945-7.42-12.16-14.7-12.16-5.78 0-10.8 3.302-13.3 8.134C4.68 17.564 0 22.698 0 28.919c0 6.664 5.38 12.079 12 12.079h26c5.52 0 10-4.51 10-10.066a9.99 9.99 0 00-9.3-9.986z" fill="#8C8F94"/><path d="M25.054 33.747c0 .692-.572 1.253-1.28 1.253-.707 0-1.28-.561-1.28-1.253 0-.691.573-1.252 1.28-1.252.708 0 1.28.56 1.28 1.252zM23.774 18c-.807 0-1.462.641-1.462 1.432 0 .79.655 1.431 1.463 1.431.807 0 1.462-.641 1.462-1.431S24.582 18 23.775 18zm7.313 7.695c.503 0 .913.401.913.895 0 .493-.41.894-.913.894a.904.904 0 01-.914-.895c0-.493.41-.894.914-.894zM15 26.59c0 .79.655 1.431 1.462 1.431.808 0 1.463-.64 1.463-1.431 0-.79-.655-1.432-1.463-1.432-.807 0-1.462.641-1.462 1.431zm13.893-5.727c.403 0 .731.322.731.716a.723.723 0 01-.73.716.724.724 0 01-.732-.715c0-.395.328-.717.731-.717zm0 9.663c.605 0 1.097.481 1.097 1.074 0 .593-.491 1.074-1.098 1.074-.604 0-1.096-.48-1.096-1.073 0-.594.492-1.075 1.097-1.075zM18.656 20.147c.807 0 1.463.642 1.463 1.432 0 .79-.656 1.431-1.464 1.431-.806 0-1.461-.64-1.461-1.431s.655-1.432 1.462-1.432zm0 10.021c.807 0 1.463.642 1.463 1.432 0 .79-.656 1.432-1.464 1.432-.806 0-1.461-.641-1.461-1.432 0-.79.655-1.432 1.462-1.432z" fill="#fff"/></svg>