<svg width="49" height="49" fill="none" xmlns="http://www.w3.org/2000/svg"><path fill-rule="evenodd" clip-rule="evenodd" d="M24.5 8.16699c7.4317 0 13.6179 5.28791 15.0063 12.33171C44.8146 20.8662 49 25.2353 49 30.6253c0 5.635-4.5733 10.2084-10.2083 10.2084H12.25c-6.75792 0-12.25-5.4921-12.25-12.25 0-6.3088 4.7775-11.515 10.9229-12.1684 2.5521-4.9 7.6767-8.24831 13.5771-8.24831zm4.0829 26.54191v-8.1666h6.125L24.4996 16.3339 14.2912 26.5423h6.125v8.1666h8.1667z" fill="#A7AAAD"/><mask id="a" maskUnits="userSpaceOnUse" x="0" y="8" width="49" height="33"><path fill-rule="evenodd" clip-rule="evenodd" d="M24.5 8.16699c7.4317 0 13.6179 5.28791 15.0063 12.33171C44.8146 20.8662 49 25.2353 49 30.6253c0 5.635-4.5733 10.2084-10.2083 10.2084H12.25c-6.75792 0-12.25-5.4921-12.25-12.25 0-6.3088 4.7775-11.515 10.9229-12.1684 2.5521-4.9 7.6767-8.24831 13.5771-8.24831zm3.6444 24.97351v-7.0328h5.2368l-8.7281-8.791-8.7281 8.791h5.2369v7.0328h6.9825z" fill="#fff"/></mask><g mask="url(#a)"><path fill="#A7AAAD" d="M0 0h49v49H0z"/></g></svg>