<svg enable-background="new 0 0 850.4 850.4" viewBox="0 0 850.4 850.4" xmlns="http://www.w3.org/2000/svg"><path d="m536.9 639.7h-63.8c-1.1 0-2.1-.9-2.1-2.1v-63.8c0-1.1.9-2.1 2.1-2.1h63.8c1.1 0 2.1.9 2.1 2.1v63.8c0 1.2-1 2.1-2.1 2.1z" fill="#3895ba"/><path d="m97.6 707.1c-1.1-39-1.9-78.1-2.6-117.1l-1-58.6-.9-58.6-.8-58.6-.6-58.6c-.5-39-.7-78.1-1-117.1 0-4.1 3.3-7.5 7.4-7.5h.1l81.6-.3 81.6-.2 163.3-.5 163.3-.2h163.3c4.8 0 8.6 3.9 8.6 8.6l-.4 234.3-.6 234.3c0 4.2-3.4 7.6-7.6 7.6l-151.8-.6-151.8-.9-151.8-1.3c-50.6-.5-101.2-1.1-151.8-1.8-1.7 0-3-1.4-3-3.1s1.4-3 3-3c50.6-.8 101.2-1.3 151.8-1.8l151.8-1.3 151.8-.9 151.8-.6-7.6 7.6-.6-234.3-.4-234.3 8.7 8.7h-163.3l-163.3-.2-163.3-.5-81.6-.2-81.6-.3 7.5-7.5c-.1 39-.2 78.1-.5 117.1l-.4 58.6-.5 58.6-.6 58.6-.8 58.6c-.6 39-1.2 78.1-2.1 117.1 0 .8-.7 1.5-1.6 1.5-1 .2-1.7-.4-1.7-1.3z" fill="#c3c4c7"/><path d="m92.4 245.4-1.1-37.7v-25.1c0-21.9 17.8-39.7 39.7-39.7h587.2c21.9 0 39.7 17.8 39.7 39.7v62.8h-665.5z" fill="#3895ba"/><path d="m791 246.9c-30.5 2.1-61.1 3.4-91.6 4.3-7.6.3-15.3.5-22.9.6l-22.9.6c-15.3.3-30.5.5-45.8.7-61.1.7-122.1 1.1-183.2 1l-45.8-.2-45.8-.2-91.6-.7c-15.3-.2-30.5-.3-45.8-.6l-22.9-.4-22.9-.5c-30.5-.7-61.1-1.6-91.6-3-1.7-.1-3-1.5-2.9-3.2.1-1.6 1.4-2.8 2.9-2.9 30.5-1.4 61.1-2.3 91.6-3l22.9-.5 22.9-.4c15.3-.3 30.5-.4 45.8-.6l91.6-.7 45.8-.2 45.8-.2c61.1-.2 122.1.3 183.2 1 15.3.2 30.5.4 45.8.7l22.9.6 22.9.6c30.5.9 61.1 2.2 91.6 4.3.8.1 1.5.8 1.4 1.6 0 .6-.7 1.2-1.4 1.3z" fill="#004e6e"/><path d="m249 463h-62c-1.2 0-2.2 1-2.2 2.2v38.5h64.2zm106.1-40.7h-61.7c-1.4 0-2.5 1.1-2.5 2.5v79h64.2zm106.1-41.6h-61.7c-1.4 0-2.5 1.1-2.5 2.5v120.6h64.2zm106.1-36.9h-61.3c-1.6 0-2.8 1.3-2.8 2.8v157.2h64.2v-160zm106.1-37.8h-61.1c-1.7 0-3.1 1.4-3.1 3.1v194.7h64.2z" fill="#c3c4c7"/><path d="m241.7 614.6 20.1-14c3.5-2.4 1.8-7.9-2.5-7.9l-25.1.1-8.2-24.1c-1.3-3.9-6.9-3.9-8.2 0l-8 24.1-24.4.1c-4.3 0-6 5.5-2.4 7.9l19.7 13.4-8.5 25.6c-1.3 4.1 3.4 7.4 6.8 4.8l21.2-16.1 21.3 15.9c3.4 2.6 8.1-.8 6.7-4.9z" fill="#3895ba"/><path d="m300.1 579.1c4.5-2.2 9.1-3.4 13.6-4.4s9.1-1.6 13.6-1.9c9.1-.7 18.1-1.2 27.2-1.1s18.1.5 27.2 1c4.5.3 9.1.7 13.6 1.4s9.1 1.5 13.6 2.9c1.7.5 2.7 2.3 2.1 4-.3 1-1.1 1.8-2.1 2.1-4.5 1.4-9.1 2.3-13.6 3.1-4.5.7-9.1 1.2-13.6 1.5-9.1.6-18.1 1.1-27.2 1.3s-18.1-.2-27.2-.8c-4.5-.3-9.1-.8-13.6-1.8s-9.1-2.2-13.6-4.3c-.8-.4-1.2-1.4-.8-2.2.1-.3.4-.6.8-.8zm.2 50.7c2.6-2.1 5.3-3.4 7.9-4.4s5.3-1.6 7.9-1.9c5.3-.7 10.6-1.2 15.9-1 5.3.1 10.6.6 15.9 1.1 2.7.3 5.3.7 8 1.4s5.3 1.6 8 3c1.7.9 2.4 3 1.5 4.7-.3.6-.8 1.1-1.4 1.4-2.6 1.4-5.3 2.3-7.9 3s-5.3 1.2-7.9 1.5c-5.3.6-10.6 1.1-15.9 1.2-5.3.2-10.6-.2-15.9-.9-2.7-.3-5.3-.9-8-1.8-2.7-1-5.3-2.2-8-4.3-.9-.7-1-1.9-.3-2.8zm273.4-50.7c4.5-2.2 9.1-3.4 13.6-4.4s9.1-1.6 13.6-1.9c9.1-.7 18.1-1.2 27.2-1.1s18.1.5 27.2 1c4.5.3 9.1.7 13.6 1.4s9.1 1.5 13.6 2.9c1.7.5 2.7 2.3 2.1 4-.3 1-1.1 1.8-2.1 2.1-4.5 1.4-9.1 2.3-13.6 3.1-4.5.7-9.1 1.2-13.6 1.5-9.1.6-18.1 1.1-27.2 1.3s-18.1-.2-27.2-.8c-4.5-.3-9.1-.8-13.6-1.8s-9.1-2.2-13.6-4.3c-.8-.4-1.2-1.4-.8-2.2.2-.3.5-.6.8-.8zm.2 50.7c3.6-2.1 7.2-3.4 10.7-4.4 3.6-1 7.2-1.6 10.7-1.9 7.2-.7 14.3-1.2 21.5-1.1s14.3.6 21.5 1.1c3.6.3 7.2.7 10.8 1.4s7.2 1.6 10.8 3c1.7.7 2.5 2.6 1.9 4.3-.3.9-1 1.5-1.9 1.9-3.6 1.4-7.2 2.3-10.7 3-3.6.7-7.2 1.2-10.7 1.5-7.2.6-14.3 1.1-21.5 1.2-7.2.2-14.3-.2-21.5-.9-3.6-.3-7.2-.9-10.8-1.8-3.6-1-7.2-2.2-10.8-4.3-.8-.5-1.1-1.6-.6-2.4zm-397.3-304.2c6-2.2 12.1-3.4 18.1-4.4s12.1-1.6 18.1-1.9c12.1-.7 24.2-1.2 36.2-1.1 12.1.1 24.2.5 36.2 1 6 .3 12.1.7 18.1 1.4s12.1 1.5 18.1 2.9c1.7.4 2.8 2.1 2.4 3.8-.3 1.2-1.2 2.1-2.3 2.4-6 1.4-12.1 2.3-18.1 3.1-6 .7-12.1 1.2-18.1 1.5-12.1.6-24.2 1.1-36.2 1.3-12.1.2-24.2-.2-36.2-.8-6-.3-12.1-.8-18.1-1.8s-12.1-2.2-18.1-4.3c-.8-.3-1.3-1.2-1-2.1 0-.4.4-.8.9-1z" fill="#c3c4c7"/></svg>
