<svg enable-background="new 0 0 142 142" viewBox="0 0 142 142" xmlns="http://www.w3.org/2000/svg"><g fill="#a7aaad"><path d="m110.8 93.2.4 33.8c0 .3-.3.6-.6.6l-23 .2-23 .1c-15.3.1-30.6.1-46 .1-.6 0-1-.5-1.1-1l-.1-56 .1-56c0-.6.5-1.1 1.1-1.1l46 .1 46 .2c.4 0 .7.3.7.7l-.1 23.5-.2 23.6c0 .2-.2.4-.4.4s-.4-.2-.4-.4l-.2-23.5-.1-23.5.7.7-46 .2-46 .1 1.1-1.1.1 56-.1 56-1.1-1.1c15.3 0 30.6 0 46 .1l23 .1 23 .2-.6.8.4-33.8c0-.1.1-.2.2-.2s.2.1.2.2zm-63.3 23.2c-.1 0-.2 0-.3-.1-.2-.2-.3-.5-.1-.7l2.8-4.1c.2-.2.5-.3.7-.1s.3.5.1.7l-2.8 4.1c-.1.2-.3.2-.4.2zm5.6-8.2c-.1 0-.2 0-.3-.1-.2-.2-.3-.5-.1-.7l2.8-4.1c.2-.2.5-.3.7-.1s.3.5.1.7l-2.8 4.1c-.1.1-.2.2-.4.2zm38-1.8c-.1 0-.2 0-.3-.1l-4-3c-.2-.2-.3-.5-.1-.7s.5-.3.7-.1l4 3c.2.2.3.5.1.7-.1.1-.3.2-.4.2zm3.1-2.1c-.1 0-.2 0-.3-.1-.2-.2-.3-.5-.1-.7l2.8-4.1c.2-.2.5-.3.7-.1s.3.5.1.7l-2.8 4.1c-.1.1-.2.2-.4.2zm-11-4c-.1 0-.2 0-.3-.1l-4-3c-.2-.2-.3-.5-.1-.7s.5-.3.7-.1l4 3c.2.2.3.5.1.7-.1.1-.3.2-.4.2zm-24.5-.4c-.1 0-.2 0-.3-.1-.2-.2-.3-.5-.1-.7l2.8-4.1c.2-.2.5-.3.7-.1s.3.5.1.7l-2.8 4.1c-.1.1-.2.2-.4.2zm41.1-3.9c-.1 0-.2 0-.3-.1-.2-.2-.3-.5-.1-.7l2.8-4.1c.2-.2.5-.3.7-.1s.3.5.1.7l-2.8 4.1c-.1.2-.2.2-.4.2zm-24.6-1.8c-.1 0-.2 0-.3-.1l-4-3c-.2-.2-.3-.5-.1-.7s.5-.3.7-.1l4 3c.2.2.3.5.1.7-.1.2-.2.2-.4.2zm-10.8-2.6c-.1 0-.2 0-.3-.1-.2-.2-.3-.5-.1-.7l2.6-3.8c.1-.1.2-.2.3-.2s.3 0 .4.1l.4.3c.2.2.3.5.1.7s-.4.3-.6.1l-2.3 3.3c-.2.3-.4.3-.5.3zm41-3.9c-.1 0-.2 0-.3-.1-.2-.2-.3-.5-.1-.7l2.8-4.1c.2-.2.5-.3.7-.1s.3.5.1.7l-2.8 4.1c-.1.2-.2.2-.4.2zm5.6-8.2c-.1 0-.2 0-.3-.1-.2-.2-.3-.5-.1-.7l2.8-4.1c.2-.2.5-.3.7-.1s.3.5.1.7l-2.8 4.1c-.1.1-.2.2-.4.2zm5.6-8.3c-.1 0-.2 0-.3-.1-.2-.2-.3-.5-.1-.7l2.8-4.1c.2-.2.5-.3.7-.1s.3.5.1.7l-2.8 4.1c-.1.1-.2.2-.4.2zm-81.5-36c4.1-.5 8.2-.7 12.4-.8l6.2-.1h6.2l12.4.2c4.1.1 8.2.2 12.4.6.2 0 .4.2.4.4s-.2.3-.4.4c-4.1.4-8.2.5-12.4.6l-12.4.2h-6.2l-6.2-.1c-4.1-.1-8.2-.3-12.4-.8-.1 0-.2-.1-.2-.2.1-.3.1-.3.2-.4zm-1.3 16.7c5-.5 10.1-.7 15.1-.8l7.5-.1h7.5l15.1.2c5 .1 10.1.2 15.1.6.2 0 .4.2.4.4s-.2.4-.4.4c-5 .4-10.1.5-15.1.6l-15 .1h-7.5l-7.5-.1c-5-.1-10.1-.3-15.1-.8-.1 0-.2-.1-.2-.2 0-.2 0-.3.1-.3zm1.3 17.6c4.9-.5 9.8-.7 14.8-.8l7.4-.1h7.4l14.8.2c4.9.1 9.8.2 14.8.6.2 0 .4.2.4.4s-.2.4-.4.4c-4.9.4-9.8.5-14.8.6l-14.8.2h-7.4l-7.4-.1c-4.9-.1-9.8-.3-14.8-.8-.1 0-.2-.1-.2-.2.1-.4.1-.4.2-.4zm-1.3 16.2c1.4-.5 2.7-.7 4.1-.8l2-.1h2c1.4 0 2.7.1 4.1.2s2.7.2 4.1.6c.2.1.4.3.3.5 0 .2-.2.3-.3.3-1.4.4-2.7.5-4.1.6-1.2-.1-2.6 0-4 0h-2l-2-.1c-1.4-.1-2.7-.3-4.1-.8-.1 0-.2-.2-.1-.4-.1 0 0 0 0 0z"/><circle cx="120.8" cy="64.2" r="3.6"/><circle cx="48.7" cy="114.7" r="3.6"/><circle cx="67.1" cy="88.6" r="3.6"/><circle cx="92" cy="105.2" r="3.6"/></g></svg>
