<svg xmlns="http://www.w3.org/2000/svg" viewBox="0 0 24 24"><rect x="0" fill="none" width="24" height="24"/><g><path d="M20 12c0-.568-.06-1.122-.174-1.656l1.834-1.612-2-3.464-2.322.786c-.82-.736-1.787-1.308-2.86-1.657L14 2h-4l-.48 2.396c-1.07.35-2.04.92-2.858 1.657L4.34 5.268l-2 3.464 1.834 1.612C4.06 10.878 4 11.432 4 12s.06 1.122.174 1.656L2.34 15.268l2 3.464 2.322-.786c.82.736 1.787 1.308 2.86 1.657L10 22h4l.48-2.396c1.07-.35 2.038-.92 2.858-1.657l2.322.786 2-3.464-1.834-1.613c.113-.535.174-1.09.174-1.657zm-8 4c-2.21 0-4-1.79-4-4s1.79-4 4-4 4 1.79 4 4-1.79 4-4 4z"/></g></svg>