<svg xmlns="http://www.w3.org/2000/svg" viewBox="0 0 24 24"><rect x="0" fill="none" width="24" height="24"/><g><path d="M7 5.01h4.547c2.126 0 3.67.302 4.632.906.96.605 1.44 1.567 1.44 2.887 0 .896-.21 1.63-.63 2.205-.42.574-.98.92-1.678 1.036v.103c.95.212 1.637.608 2.057 1.19.42.58.63 1.35.63 2.315 0 1.367-.494 2.434-1.482 3.2-.99.765-2.332 1.148-4.027 1.148H7V5.01zm3 5.936h2.027c.862 0 1.486-.133 1.872-.4.386-.267.578-.708.578-1.323 0-.574-.21-.986-.63-1.236-.42-.25-1.087-.374-1.996-.374H10v3.333zm0 2.523v3.905h2.253c.876 0 1.52-.167 1.94-.502.416-.335.625-.848.625-1.54 0-1.243-.89-1.864-2.668-1.864H10z"/></g></svg>