<svg xmlns="http://www.w3.org/2000/svg" viewBox="0 0 24 24"><rect x="0" fill="none" width="24" height="24"/><g><path d="M10.986 13.928l.762-2.284-1.324-3.63c-.458-.026-.892-.08-.892-.08-.458-.027-.405-.727.054-.7 0 0 1.403.107 2.24.107.888 0 2.265-.107 2.265-.107.46-.027.513.646.055.7 0 0-.46.055-.973.082l2.006 5.966c-.875-.034-1.74-.053-2.6-.06l-.428-1.177-.403 1.17c-.252.002-.508.01-.76.015zm-7.156.393c-.21-.737-.33-1.514-.33-2.32 0-1.232.264-2.402.736-3.46l2.036 5.58c.85-.06 1.69-.104 2.526-.138L6.792 8.015c.512-.027.973-.08.973-.08.458-.055.404-.728-.055-.702 0 0-1.376.108-2.265.108-.16 0-.347-.003-.547-.01C6.418 5.025 9.03 3.5 12 3.5c2.213 0 4.228.846 5.74 2.232-.036-.002-.072-.007-.11-.007-.835 0-1.427.727-1.427 1.51 0 .7.404 1.292.835 1.993.323.566.7 1.293.7 2.344 0 .674-.244 1.463-.572 2.51.3.02.604.043.907.066l.798-2.307c.486-1.212.647-2.18.647-3.043 0-.313-.02-.603-.057-.874.662 1.21 1.04 2.6 1.04 4.077 0 .807-.128 1.58-.34 2.32.5.05 1.006.112 1.51.17.205-.798.33-1.628.33-2.49 0-5.523-4.477-10-10-10S2 6.477 2 12c0 .862.125 1.692.33 2.49.5-.057 1.003-.12 1.5-.17zm14.638 3.168C16.676 19.672 14.118 20.5 12 20.5c-1.876 0-4.55-.697-6.463-3.012-.585.048-1.174.1-1.77.16C5.572 20.272 8.578 22 12 22c3.422 0 6.43-1.73 8.232-4.35-.593-.063-1.18-.114-1.764-.162zM12 15.01c-3.715 0-7.368.266-10.958.733.18.41.35.825.506 1.247 3.427-.43 6.91-.68 10.452-.68s7.025.25 10.452.68c.156-.422.327-.836.506-1.246-3.59-.467-7.243-.734-10.958-.734z"/></g></svg>