<svg xmlns="http://www.w3.org/2000/svg" viewBox="0 0 24 24"><rect x="0" fill="none" width="24" height="24"/><g><path d="M11.5 5c2.336 0 4.304 1.825 4.48 4.154l.142 1.86 1.867-.012h.092C19.698 11.043 21 12.37 21 14c0 .748-.28 1.452-.783 2H3.28c-.156-.256-.28-.59-.28-1 0-1.074.85-1.953 1.915-1.998.06.007.118.012.178.015l2.66.124-.622-2.587C7.044 10.186 7 9.843 7 9.5 7 7.02 9.02 5 11.5 5m0-2C7.91 3 5 5.91 5 9.5c0 .524.07 1.03.186 1.52C5.123 11.015 5.064 11 5 11c-2.21 0-4 1.79-4 4 0 1.202.54 2.267 1.38 3h18.593C22.196 17.09 23 15.643 23 14c0-2.76-2.24-5-5-5l-.025.002C17.72 5.646 14.922 3 11.5 3z"/></g></svg>