<svg xmlns="http://www.w3.org/2000/svg" viewBox="0 0 24 24"><rect x="0" fill="none" width="24" height="24"/><g><path d="M9 7h2v10H9v-4H5v4H3V7h2v4h4V7zm8 8c.51-.41.6-.62 1.06-1.05.437-.4.848-.828 1.23-1.28.334-.39.62-.82.85-1.28.2-.39.305-.822.31-1.26.005-.44-.087-.878-.27-1.28-.177-.385-.437-.726-.76-1-.346-.283-.743-.497-1.17-.63-.485-.153-.99-.227-1.5-.22-.36 0-.717.033-1.07.1-.343.06-.678.158-1 .29-.304.13-.593.295-.86.49-.287.21-.56.437-.82.68l1.24 1.22c.308-.268.643-.502 1-.7.35-.2.747-.304 1.15-.3.455-.03.906.106 1.27.38.31.278.477.684.45 1.1-.014.396-.14.78-.36 1.11-.285.453-.62.872-1 1.25-.44.43-.98.92-1.59 1.43-.61.51-1.41 1.06-2.16 1.65V17h8v-2h-4z"/></g></svg>