<svg xmlns="http://www.w3.org/2000/svg" viewBox="0 0 24 24"><rect x="0" fill="none" width="24" height="24"/><g><path d="M13 16v2h-2v-2h2zm3-3h2v-2h-2v2zm2 8h-2v2h2v-2zm3-5v2h2v-2h-2zm-1-3c.552 0 1 .448 1 1h2c0-1.657-1.343-3-3-3v2zm1 7c0 .552-.448 1-1 1v2c1.657 0 3-1.343 3-3h-2zm-7 1c-.552 0-1-.448-1-1h-2c0 1.657 1.343 3 3 3v-2zm3.21-5.21c-.78.78-2.047.782-2.828.002l-.002-.002L10 11.41l-1.43 1.44c.28.506.427 1.073.43 1.65C9 16.433 7.433 18 5.5 18S2 16.433 2 14.5 3.567 11 5.5 11c.577.003 1.144.15 1.65.43L8.59 10 7.15 8.57c-.506.28-1.073.427-1.65.43C3.567 9 2 7.433 2 5.5S3.567 2 5.5 2 9 3.567 9 5.5c-.003.577-.15 1.144-.43 1.65L10 8.59l3.88-3.88c.78-.78 2.047-.782 2.828-.002l.002.002-5.3 5.29 5.8 5.79zM5.5 7C6.328 7 7 6.328 7 5.5S6.328 4 5.5 4 4 4.672 4 5.5 4.672 7 5.5 7zM7 14.5c0-.828-.672-1.5-1.5-1.5S4 13.672 4 14.5 4.672 16 5.5 16 7 15.328 7 14.5z"/></g></svg>