<svg xmlns="http://www.w3.org/2000/svg" viewBox="0 0 24 24"><rect x="0" fill="none" width="24" height="24"/><g><path d="M12.005 7.418c-1.237 0-2.19.376-2.86 1.128s-1.005 1.812-1.005 3.18c0 1.387.226 2.513.677 3.377.45.865 1.135 1.543 2.05 2.036V20H5v-2.666h3.12c-1.04-.636-1.842-1.502-2.405-2.6-.564-1.097-.846-2.322-.846-3.676 0-1.258.29-2.363.875-3.317.585-.952 1.417-1.685 2.497-2.198s2.334-.77 3.763-.77c2.18 0 3.915.572 5.204 1.713s1.932 2.673 1.932 4.594c0 1.353-.283 2.57-.852 3.65-.567 1.08-1.38 1.947-2.44 2.603H19V20h-5.908v-2.86c.95-.493 1.65-1.18 2.102-2.062s.677-2.006.677-3.374c0-1.36-.336-2.415-1.01-3.164-.672-.747-1.624-1.122-2.855-1.122z"/></g></svg>