<svg xmlns="http://www.w3.org/2000/svg" viewBox="0 0 24 24"><rect x="0" fill="none" width="24" height="24"/><g><path d="M12 2C6.477 2 2 6.477 2 12s4.477 10 10 10 10-4.477 10-10S17.523 2 12 2zm6.918 6h-3.215c-.188-1.424-.42-2.65-.565-3.357 1.593.682 2.916 1.87 3.78 3.357zm-5.904-3.928c.068.352.387 2.038.645 3.928h-3.32c.26-1.89.578-3.576.646-3.928C11.32 4.03 11.656 4 12 4s.68.03 1.014.072zM14 12c0 .598-.043 1.286-.11 2h-3.78c-.067-.714-.11-1.402-.11-2s.043-1.286.11-2h3.78c.067.714.11 1.402.11 2zM8.862 4.643C8.717 5.35 8.485 6.576 8.297 8H5.082c.864-1.487 2.187-2.675 3.78-3.357zM4.262 10h3.822c-.05.668-.084 1.344-.084 2s.033 1.332.085 2H4.263C4.097 13.36 4 12.692 4 12s.098-1.36.263-2zm.82 6h3.215c.188 1.424.42 2.65.565 3.357-1.593-.682-2.916-1.87-3.78-3.357zm5.904 3.928c-.068-.353-.388-2.038-.645-3.928h3.32c-.26 1.89-.578 3.576-.646 3.928-.333.043-.67.072-1.014.072s-.68-.03-1.014-.072zm4.152-.57c.145-.708.377-1.934.565-3.358h3.215c-.864 1.487-2.187 2.675-3.78 3.357zm4.6-5.358h-3.822c.05-.668.084-1.344.084-2s-.033-1.332-.085-2h3.82c.167.64.265 1.308.265 2s-.097 1.36-.263 2z"/></g></svg>