<svg xmlns="http://www.w3.org/2000/svg" viewBox="0 0 24 24"><rect x="0" fill="none" width="24" height="24"/><g><path d="M11 17H9v-4H5v4H3V7h2v4h4V7h2v10zm8.58-7.508c-.248-.204-.524-.37-.82-.49-.625-.242-1.317-.242-1.94 0-.3.11-.566.287-.78.52-.245.27-.432.586-.55.93-.16.46-.243.943-.25 1.43.367-.33.79-.59 1.25-.77.405-.17.84-.262 1.28-.27.415-.006.83.048 1.23.16.364.118.704.304 1 .55.295.253.528.57.68.93.193.403.302.843.32 1.29.01.468-.094.93-.3 1.35-.206.387-.49.727-.83 1-.357.287-.764.504-1.2.64-.98.31-2.033.293-3-.05-.507-.182-.968-.472-1.35-.85-.437-.416-.778-.92-1-1.48-.243-.693-.352-1.426-.32-2.16-.02-.797.11-1.59.38-2.34.215-.604.556-1.156 1-1.62.406-.416.897-.74 1.44-.95.54-.21 1.118-.314 1.7-.31.682-.02 1.36.096 2 .34.5.19.962.464 1.37.81l-1.31 1.34zm-2.39 5.84c.202 0 .405-.03.6-.09.183-.046.356-.128.51-.24.15-.136.27-.303.35-.49.092-.225.136-.467.13-.71.037-.405-.123-.804-.43-1.07-.328-.23-.72-.347-1.12-.33-.346-.002-.687.07-1 .21-.383.17-.724.418-1 .73.046.346.143.683.29 1 .108.23.257.44.44.62.152.15.337.26.54.33.225.055.46.068.69.04z"/></g></svg>