<svg xmlns="http://www.w3.org/2000/svg" viewBox="0 0 24 24"><rect x="0" fill="none" width="24" height="24"/><g><path d="M14.11 14.218c.355.287.75.523 1.17.7.434.18.9.273 1.37.27.484.017.965-.086 1.4-.3.333-.146.55-.476.55-.84.003-.203-.05-.403-.15-.58-.123-.19-.3-.34-.51-.43-.32-.137-.655-.228-1-.27-.503-.073-1.012-.106-1.52-.1v-1.57c.742.052 1.485-.07 2.17-.36.37-.164.615-.525.63-.93.026-.318-.12-.627-.38-.81-.34-.203-.734-.3-1.13-.28-.395.013-.784.108-1.14.28-.375.167-.73.375-1.06.62l-1.22-1.39c.5-.377 1.053-.68 1.64-.9.608-.224 1.252-.336 1.9-.33.525-.007 1.05.05 1.56.17.43.1.84.277 1.21.52.325.21.595.495.79.83.19.342.287.73.28 1.12.01.48-.177.943-.52 1.28-.417.39-.916.685-1.46.86v.06c.61.14 1.175.425 1.65.83.437.382.68.94.66 1.52.005.42-.113.835-.34 1.19-.23.357-.538.657-.9.88-.408.253-.853.44-1.32.55-.514.128-1.04.192-1.57.19-.786.02-1.57-.106-2.31-.37-.59-.214-1.126-.556-1.57-1l1.12-1.41zM9 11H5V7H3v10h2v-4h4v4h2V7H9v4z"/></g></svg>