<svg width="209" height="149" viewBox="0 0 209 149" fill="none" xmlns="http://www.w3.org/2000/svg">
<path d="M113.9 79.4001L28 76.6001V38.6001L149.8 42.6001V46.0001C149.8 65.0001 133.7 80.0001 113.9 79.4001Z" fill="#7CBFCF"/>
<path d="M196.6 54.7L175.5 54C175.5 51 178 48.6 181.1 48.7L196.5 49.2V54.7H196.6Z" fill="url(#paint0_linear_2753_2018)"/>
<path d="M184.5 92.2L163.4 91.5C163.4 88.5 165.9 86.1 169 86.2L184.4 86.7V92.2H184.5Z" fill="url(#paint1_linear_2753_2018)"/>
<path d="M203 28L76.7002 23.9C76.7002 18.7 81.1002 14.6 86.5002 14.8L203 18.6V28Z" fill="url(#paint2_linear_2753_2018)"/>
<path d="M202 134.6L28.7002 128.9C28.1002 128.9 27.7002 128.4 27.7002 127.9V6.19995C27.7002 5.59995 28.2002 5.19995 28.7002 5.19995L202 10.9C202.6 10.9 203 11.4 203 11.9V133.5C203 134.1 202.5 134.6 202 134.6Z" stroke="#003C65" stroke-width="1.8" stroke-miterlimit="10" stroke-linecap="round" stroke-linejoin="round"/>
<path d="M207.9 129.4L203 129.2V10.9L33.6001 5.4V1C33.6001 0.4 34.1001 0 34.6001 0L207.9 5.7C208.5 5.7 208.9 6.2 208.9 6.7V128.4C208.9 129 208.5 129.4 207.9 129.4Z" fill="#003C65"/>
<path d="M149.8 80.6L27.7002 76.6V38.3L149.8 42.3V80.6Z" stroke="#003C65" stroke-width="1.8" stroke-miterlimit="10" stroke-linecap="round" stroke-linejoin="round"/>
<path d="M38.5852 14.0838C39.1104 12.8069 38.4596 11.329 37.1317 10.7828C35.8037 10.2365 34.3014 10.8288 33.7762 12.1057C33.251 13.3826 33.9017 14.8605 35.2297 15.4068C36.5576 15.953 38.0599 15.3607 38.5852 14.0838Z" stroke="#003C65" stroke-width="1.8" stroke-miterlimit="10" stroke-linecap="round" stroke-linejoin="round"/>
<path d="M48.4611 14.3965C48.9864 13.1197 48.3356 11.6417 47.0077 11.0955C45.6797 10.5493 44.1774 11.1416 43.6522 12.4185C43.1269 13.6954 43.7777 15.1733 45.1057 15.7195C46.4336 16.2657 47.9359 15.6734 48.4611 14.3965Z" stroke="#003C65" stroke-width="1.8" stroke-miterlimit="10" stroke-linecap="round" stroke-linejoin="round"/>
<path d="M58.4294 14.7474C58.9546 13.4705 58.3039 11.9926 56.9759 11.4463C55.648 10.9001 54.1457 11.4924 53.6204 12.7693C53.0952 14.0462 53.746 15.5241 55.0739 16.0703C56.4019 16.6166 57.9042 16.0243 58.4294 14.7474Z" stroke="#003C65" stroke-width="1.8" stroke-miterlimit="10" stroke-linecap="round" stroke-linejoin="round"/>
<path d="M196.438 19.3106C196.963 18.0337 196.313 16.5558 194.985 16.0096C193.657 15.4633 192.154 16.0556 191.629 17.3325C191.104 18.6094 191.755 20.0873 193.083 20.6336C194.411 21.1798 195.913 20.5875 196.438 19.3106Z" stroke="#003C65" stroke-width="1.8" stroke-miterlimit="10" stroke-linecap="round" stroke-linejoin="round"/>
<path d="M27.7002 22.3L203 28" stroke="#003C65" stroke-width="1.8" stroke-miterlimit="10" stroke-linecap="round" stroke-linejoin="round"/>
<path d="M149.8 26.6001V132.8" stroke="#003C65" stroke-width="1.8" stroke-miterlimit="10" stroke-linecap="round" stroke-linejoin="round"/>
<path d="M196.6 54.7L172.3 53.8999V44.2L196.6 44.9999V54.7Z" stroke="#003C65" stroke-width="1.8" stroke-miterlimit="10" stroke-linecap="round" stroke-linejoin="round"/>
<path d="M183 93.0999L158.7 92.2999V82.7L183 83.4999V93.0999Z" stroke="#003C65" stroke-width="1.8" stroke-miterlimit="10" stroke-linecap="round" stroke-linejoin="round"/>
<path d="M158.7 62.8999L196.6 64.1999" stroke="#003C65" stroke-width="1.8" stroke-miterlimit="10" stroke-linecap="round" stroke-linejoin="round"/>
<path d="M158.7 72.3999L196.6 73.6999" stroke="#003C65" stroke-width="1.8" stroke-miterlimit="10" stroke-linecap="round" stroke-linejoin="round"/>
<path d="M38.7998 86.3999L141.3 89.6999" stroke="#003C65" stroke-width="1.8" stroke-miterlimit="10" stroke-linecap="round" stroke-linejoin="round"/>
<path d="M78.9 98.3L2 95.8C1.4 95.8 1 95.3 1 94.8V52.8C1 52.2 1.5 51.8 2 51.8L78.9 54.3C79.5 54.3 79.9 54.8 79.9 55.3V97.2001C80 97.8 79.5 98.3 78.9 98.3Z" fill="white" stroke="#003C65" stroke-width="1.8" stroke-miterlimit="10" stroke-linecap="round" stroke-linejoin="round"/>
<path d="M40.5 65.6001V84.4001" stroke="#003C65" stroke-width="1.8" stroke-miterlimit="10" stroke-linecap="round" stroke-linejoin="round"/>
<path d="M30.7998 74.7002L50.2998 75.4002" stroke="#003C65" stroke-width="1.8" stroke-miterlimit="10" stroke-linecap="round" stroke-linejoin="round"/>
<path d="M195.2 147.7L118.3 145.2C117.7 145.2 117.3 144.7 117.3 144.2V102.3C117.3 101.7 117.8 101.3 118.3 101.3L195.2 103.8C195.8 103.8 196.2 104.3 196.2 104.8V146.7C196.3 147.3 195.8 147.8 195.2 147.7Z" fill="white" stroke="#003C65" stroke-width="1.8" stroke-miterlimit="10" stroke-linecap="round" stroke-linejoin="round"/>
<path d="M156.8 115.1V133.9" stroke="#003C65" stroke-width="1.8" stroke-miterlimit="10" stroke-linecap="round" stroke-linejoin="round"/>
<path d="M147.1 124.2L166.6 124.8" stroke="#003C65" stroke-width="1.8" stroke-miterlimit="10" stroke-linecap="round" stroke-linejoin="round"/>
<path d="M108.8 114.1L69 87.9L76.8 133.4L87.1 122.5L96.9 137.2L103.8 133L94 118.3L108.8 114.1Z" fill="white" stroke="#003D68" stroke-width="1.8" stroke-miterlimit="10" stroke-linecap="round" stroke-linejoin="round"/>
<path d="M103.3 113L72.2001 92.1C71.9001 91.9 71.5001 92.2 71.6001 92.4L78.2001 128.1C78.3001 128.5 78.7001 128.6 78.9001 128.3L87.1001 119.8L97.0001 134.7C97.1001 134.9 97.4001 135 97.5001 134.8L101.5 132.4C101.7 132.3 101.8 132.1 101.6 131.9L91.6001 117.1L103.2 113.7C103.5 113.5 103.6 113.1 103.3 113Z" fill="url(#paint3_linear_2753_2018)"/>
<defs>
<linearGradient id="paint0_linear_2753_2018" x1="175.528" y1="51.2544" x2="196.607" y2="51.2544" gradientUnits="userSpaceOnUse">
<stop stop-color="#E8E8E8"/>
<stop offset="1" stop-color="#EEEEEE"/>
</linearGradient>
<linearGradient id="paint1_linear_2753_2018" x1="163.38" y1="88.7586" x2="184.459" y2="88.7586" gradientUnits="userSpaceOnUse">
<stop stop-color="#E8E8E8"/>
<stop offset="1" stop-color="#EEEEEE"/>
</linearGradient>
<linearGradient id="paint2_linear_2753_2018" x1="76.7231" y1="19.1722" x2="203.011" y2="19.1722" gradientUnits="userSpaceOnUse">
<stop stop-color="#E8E8E8"/>
<stop offset="1" stop-color="#EEEEEE"/>
</linearGradient>
<linearGradient id="paint3_linear_2753_2018" x1="72.9401" y1="120.502" x2="97.4998" y2="104.159" gradientUnits="userSpaceOnUse">
<stop stop-color="#E8E8E8"/>
<stop offset="1" stop-color="#EEEEEE"/>
</linearGradient>
</defs>
</svg>
