<svg width="273" height="231" viewBox="0 0 273 231" fill="none" xmlns="http://www.w3.org/2000/svg">
<path d="M244.779 29.766L17.3671 55.96H244.779V29.766Z" fill="#8BBECE"/>
<path d="M245.523 56.0005H17.546V174.019C17.546 177.618 18.9723 181.07 21.511 183.615C24.0497 186.16 27.493 187.59 31.0833 187.59H231.986C235.576 187.59 239.019 186.16 241.558 183.615C244.097 181.07 245.523 177.618 245.523 174.019V56.0005Z" fill="white"/>
<path d="M245.523 56.0005H17.546C17.546 56.0005 17.546 138.631 17.546 183.662C17.546 185.846 19.2978 187.618 21.4816 187.653C94.831 188.82 168.166 189.58 241.523 189.606C243.732 189.607 245.523 187.883 245.523 185.673C245.523 165.408 245.523 73.0802 245.523 56.0005Z" stroke="#003A62" stroke-width="2" stroke-miterlimit="10"/>
<path d="M245.523 31.9835C245.523 29.7701 243.726 27.9849 241.512 27.991L21.535 28.5977C19.3301 28.6037 17.546 30.3862 17.546 32.5911C17.546 38.238 17.546 48.6963 17.546 56.0005H245.523C245.523 48.663 245.523 37.7923 245.523 31.9835Z" stroke="#003A62" stroke-width="2" stroke-miterlimit="10"/>
<path d="M61.684 46.6362C59.2991 46.6362 57.3656 44.6979 57.3656 42.3069C57.3656 39.9158 59.2991 37.9775 61.684 37.9775C64.069 37.9775 66.0024 39.9158 66.0024 42.3069C66.0024 44.6979 64.069 46.6362 61.684 46.6362Z" fill="white"/>
<path d="M54.2768 41.6741C54.2778 42.6213 54.6557 43.5293 55.3274 44.1988C55.9992 44.8682 56.9098 45.2442 57.8593 45.2442C62.6097 45.0574 62.6059 38.2871 57.8593 38.1003C56.9095 38.1013 55.9988 38.4782 55.3272 39.1482C54.6556 39.8182 54.2778 40.7266 54.2768 41.6741V41.6741Z" stroke="#003A62" stroke-width="2" stroke-miterlimit="10"/>
<path d="M41.1799 41.6741C41.1799 42.621 41.5571 43.529 42.2284 44.1985C42.8998 44.868 43.8103 45.2442 44.7598 45.2442C49.5117 45.0574 49.5117 38.2871 44.7598 38.1003C43.81 38.1013 42.8994 38.4783 42.2282 39.1484C41.5569 39.8185 41.1799 40.7269 41.1799 41.6741Z" fill="white" stroke="#003A62" stroke-width="2" stroke-miterlimit="10"/>
<path d="M31.8522 46.6362C29.4673 46.6362 27.5338 44.6979 27.5338 42.3069C27.5338 39.9158 29.4673 37.9775 31.8522 37.9775C34.2372 37.9775 36.1707 39.9158 36.1707 42.3069C36.1707 44.6979 34.2372 46.6362 31.8522 46.6362Z" fill="#003A62"/>
<path d="M28.0829 41.6741C28.0829 42.1433 28.1755 42.6078 28.3556 43.0412C28.5357 43.4746 28.7996 43.8683 29.1324 44.1998C29.4651 44.5314 29.86 44.7943 30.2946 44.9735C30.7293 45.1527 31.195 45.2447 31.6653 45.2442C36.4157 45.0574 36.4119 38.2871 31.6653 38.1003C30.7152 38.1003 29.804 38.4769 29.1321 39.1471C28.4603 39.8173 28.0829 40.7263 28.0829 41.6741Z" fill="white" stroke="#003A62" stroke-width="2" stroke-miterlimit="10"/>
<path d="M119.495 135.978C118.926 135.559 118.487 134.989 118.228 134.331C117.97 133.674 117.902 132.956 118.032 132.262C118.163 131.568 118.487 130.924 118.967 130.406C119.447 129.888 120.064 129.517 120.745 129.335L144.793 122.876L170.118 116.08C170.753 115.91 171.421 115.91 172.056 116.081C172.691 116.252 173.269 116.586 173.734 117.052C174.199 117.517 174.533 118.097 174.703 118.732C174.874 119.368 174.874 120.037 174.705 120.673L167.919 146.04L161.47 170.125C161.288 170.808 160.917 171.425 160.4 171.906C159.883 172.387 159.24 172.711 158.547 172.842C157.853 172.973 157.137 172.905 156.481 172.646C155.824 172.387 155.254 171.947 154.837 171.377L146.529 160.088C146.211 159.652 145.802 159.29 145.331 159.027C144.859 158.764 144.337 158.606 143.799 158.564C143.261 158.523 142.72 158.598 142.214 158.786C141.708 158.973 141.249 159.268 140.867 159.65L131.007 169.525C130.304 170.228 129.351 170.622 128.358 170.622C127.364 170.622 126.411 170.228 125.708 169.525L121.305 165.111C120.604 164.407 120.21 163.454 120.21 162.459C120.21 161.465 120.604 160.512 121.305 159.808L131.195 149.96C131.58 149.577 131.877 149.115 132.066 148.606C132.255 148.098 132.332 147.554 132.29 147.012C132.249 146.471 132.09 145.945 131.825 145.471C131.561 144.997 131.197 144.586 130.758 144.267L119.495 135.978Z" fill="#EEEEEE"/>
<path d="M114.821 132.58C114.234 132.148 113.781 131.558 113.513 130.879C113.246 130.2 113.176 129.459 113.311 128.742C113.446 128.024 113.781 127.36 114.276 126.825C114.771 126.289 115.408 125.906 116.111 125.717C128.787 122.32 154.386 115.43 167.102 112.024C167.757 111.848 168.447 111.849 169.102 112.025C169.757 112.202 170.354 112.547 170.833 113.028C171.313 113.509 171.658 114.108 171.834 114.764C172.01 115.421 172.01 116.112 171.835 116.769C168.41 129.518 161.592 155.159 158.176 167.889C157.988 168.594 157.606 169.232 157.072 169.729C156.538 170.225 155.875 170.561 155.16 170.696C154.444 170.831 153.705 170.761 153.027 170.493C152.35 170.225 151.762 169.771 151.331 169.183L142.757 157.52C142.428 157.069 142.006 156.695 141.52 156.424C141.034 156.152 140.494 155.989 139.939 155.946C139.384 155.903 138.826 155.981 138.304 156.175C137.781 156.368 137.307 156.673 136.913 157.068L126.738 167.269C126.012 167.995 125.029 168.403 124.003 168.403C122.978 168.403 121.995 167.995 121.269 167.269L116.725 162.709C116.001 161.982 115.594 160.997 115.594 159.97C115.594 158.943 116.001 157.957 116.725 157.231L126.896 147.025C127.293 146.63 127.6 146.153 127.795 145.627C127.99 145.101 128.069 144.539 128.026 143.98C127.983 143.42 127.819 142.877 127.546 142.388C127.273 141.898 126.897 141.473 126.445 141.144L114.812 132.548L114.821 132.58Z" stroke="#003A62" stroke-width="2" stroke-miterlimit="10"/>
<path d="M172.061 118.371H175.671C177.437 118.371 179.131 117.667 180.38 116.415C181.629 115.163 182.331 113.465 182.331 111.694V108.075C182.331 106.304 181.629 104.605 180.38 103.353C179.131 102.101 177.437 101.397 175.671 101.397H172.061C170.294 101.397 168.6 102.101 167.351 103.353C166.102 104.605 165.401 106.304 165.401 108.075V111.694C165.401 113.465 166.102 115.163 167.351 116.415C168.6 117.667 170.294 118.371 172.061 118.371Z" fill="#8BBECE" stroke="#003A62" stroke-width="2" stroke-miterlimit="10"/>
<mask id="mask0_1048_1193" style="mask-type:alpha" maskUnits="userSpaceOnUse" x="165" y="101" width="18" height="18">
<path d="M172.061 118.371H175.671C177.437 118.371 179.131 117.667 180.38 116.415C181.629 115.163 182.331 113.465 182.331 111.694V108.075C182.331 106.304 181.629 104.605 180.38 103.353C179.131 102.101 177.437 101.397 175.671 101.397H172.061C170.294 101.397 168.6 102.101 167.351 103.353C166.102 104.605 165.401 106.304 165.401 108.075V111.694C165.401 113.465 166.102 115.163 167.351 116.415C168.6 117.667 170.294 118.371 172.061 118.371Z" fill="#FFAB64"/>
</mask>
<g mask="url(#mask0_1048_1193)">
<path d="M114.821 132.58C114.234 132.148 113.781 131.558 113.513 130.879C113.246 130.2 113.176 129.459 113.311 128.742C113.446 128.024 113.781 127.36 114.276 126.825C114.771 126.289 115.408 125.906 116.111 125.717C128.787 122.32 154.386 115.43 167.102 112.024C167.757 111.848 168.447 111.849 169.102 112.025C169.757 112.202 170.354 112.547 170.833 113.028C171.313 113.509 171.658 114.108 171.834 114.764C172.01 115.421 172.01 116.112 171.835 116.769C168.41 129.518 161.592 155.159 158.176 167.889C157.988 168.594 157.606 169.232 157.072 169.729C156.538 170.225 155.875 170.561 155.16 170.696C154.444 170.831 153.705 170.761 153.027 170.493C152.35 170.225 151.762 169.771 151.331 169.183L142.757 157.52C142.428 157.069 142.006 156.695 141.52 156.424C141.034 156.152 140.494 155.989 139.939 155.946C139.384 155.903 138.826 155.981 138.304 156.175C137.781 156.368 137.307 156.673 136.913 157.068L126.738 167.269C126.012 167.995 125.029 168.403 124.003 168.403C122.978 168.403 121.995 167.995 121.269 167.269L116.725 162.709C116.001 161.982 115.594 160.997 115.594 159.97C115.594 158.943 116.001 157.957 116.725 157.231L126.896 147.025C127.293 146.63 127.6 146.153 127.795 145.627C127.99 145.101 128.069 144.539 128.026 143.98C127.983 143.42 127.819 142.877 127.546 142.388C127.273 141.898 126.897 141.473 126.445 141.144L114.812 132.548L114.821 132.58Z" stroke="white" stroke-width="2" stroke-miterlimit="10"/>
</g>
<path d="M109.056 104.46L108.348 103.754L109.056 104.46C108.53 104.988 108.112 105.614 107.827 106.303L106.903 105.921L107.827 106.303C107.543 106.992 107.396 107.731 107.396 108.477V112.096C107.396 113.604 107.993 115.049 109.056 116.115C110.119 117.18 111.559 117.778 113.061 117.778H116.671C117.414 117.778 118.15 117.631 118.837 117.346L119.164 118.133L118.837 117.346C119.524 117.06 120.148 116.642 120.674 116.115L121.354 116.792L120.674 116.115C121.199 115.587 121.617 114.961 121.901 114.271C122.185 113.582 122.332 112.843 122.331 112.097V112.096V108.477C122.331 106.971 121.734 105.526 120.672 104.462C119.611 103.397 118.171 102.8 116.671 102.8L113.061 102.8L113.06 102.8C112.317 102.799 111.581 102.946 110.894 103.231C110.207 103.516 109.582 103.933 109.056 104.46Z" stroke="#003A62" stroke-width="2" stroke-miterlimit="10"/>
<path d="M63.6425 112.097V112.096V108.477C63.6425 106.971 63.0455 105.526 61.9837 104.462C60.922 103.397 59.4825 102.8 57.9821 102.8H54.3721C52.8717 102.8 51.4323 103.397 50.3705 104.462C49.3087 105.526 48.7118 106.971 48.7118 108.477V112.096V112.097C48.7113 112.843 48.8574 113.582 49.1419 114.271C49.4263 114.961 49.8434 115.587 50.3692 116.115C50.895 116.642 51.5191 117.06 52.206 117.346C52.8928 117.631 53.6288 117.778 54.3721 117.778H57.9821C58.7254 117.778 59.4614 117.631 60.1483 117.346C60.8351 117.06 61.4593 116.642 61.985 116.115C62.5108 115.587 62.9279 114.961 63.2123 114.271C63.4968 113.582 63.643 112.843 63.6425 112.097Z" stroke="#003A62" stroke-width="2" stroke-miterlimit="10"/>
<path d="M152.937 78.8097L152.581 83.5688C152.574 83.6536 152.546 83.7353 152.5 83.807C152.455 83.8787 152.393 83.9383 152.319 83.9805L148.208 86.3827C148.124 86.432 148.056 86.5038 148.011 86.59C147.965 86.6761 147.945 86.7732 147.951 86.8704C147.958 86.9676 147.991 87.0611 148.048 87.1403C148.104 87.2196 148.182 87.2815 148.271 87.3191L152.675 89.1286C152.754 89.1606 152.824 89.2116 152.878 89.2771C152.933 89.3426 152.97 89.4206 152.987 89.5041L153.993 94.1637C154.014 94.2584 154.06 94.3456 154.128 94.4152C154.195 94.4848 154.28 94.5342 154.374 94.5577C154.468 94.5812 154.567 94.578 154.659 94.5483C154.751 94.5187 154.833 94.4638 154.896 94.3899L157.978 90.7708C158.031 90.7045 158.101 90.6529 158.18 90.6205C158.258 90.5881 158.344 90.576 158.429 90.5853L163.162 91.0694C163.259 91.0786 163.357 91.0607 163.444 91.0176C163.531 90.9744 163.605 90.9078 163.656 90.8251C163.708 90.7424 163.735 90.647 163.736 90.5495C163.736 90.452 163.709 90.3563 163.659 90.2732L161.163 86.2017C161.119 86.1291 161.092 86.0468 161.086 85.9618C161.08 85.8768 161.094 85.7915 161.127 85.7131L163.05 81.3476C163.089 81.258 163.102 81.1591 163.088 81.0623C163.074 80.9655 163.033 80.8746 162.97 80.7998C162.907 80.725 162.825 80.6693 162.732 80.639C162.639 80.6087 162.54 80.605 162.445 80.6283L157.824 81.7593C157.745 81.776 157.663 81.774 157.585 81.7536C157.506 81.7332 157.434 81.6949 157.373 81.6417L153.822 78.475C153.749 78.4094 153.66 78.3654 153.565 78.3482C153.469 78.3309 153.37 78.341 153.28 78.3774C153.189 78.4137 153.111 78.4748 153.054 78.5536C152.996 78.6325 152.962 78.726 152.955 78.8233L152.937 78.8097Z" stroke="#003A62" stroke-width="2" stroke-miterlimit="10"/>
<path d="M191.136 212.218L9.08486 214.149C4.63365 214.196 1 210.601 1 206.15L1 168.147" stroke="#003A62" stroke-width="2" stroke-miterlimit="10" stroke-linecap="round"/>
<path d="M169.307 229.793C169.307 229.793 174.271 212.218 194.161 212.218C174.275 212.218 169.307 194.647 169.307 194.647" stroke="#003A62" stroke-width="2" stroke-miterlimit="10" stroke-linecap="round"/>
<path d="M165.61 4.98938H260.73C265.156 4.98938 268.741 8.58373 268.733 13.0101C268.674 45.0417 268.751 77.0741 268.751 109.106" stroke="#003A62" stroke-width="2" stroke-miterlimit="10"/>
<path d="M268.75 115.443C271.097 115.443 273 113.535 273 111.182C273 108.828 271.097 106.921 268.75 106.921C266.402 106.921 264.499 108.828 264.499 111.182C264.499 113.535 266.402 115.443 268.75 115.443Z" fill="#003A62"/>
<path d="M164.425 8.52243C166.773 8.52243 168.676 6.61462 168.676 4.26121C168.676 1.90781 166.773 0 164.425 0C162.078 0 160.175 1.90781 160.175 4.26121C160.175 6.61462 162.078 8.52243 164.425 8.52243Z" fill="#003A62"/>
<path d="M205.101 105.532L201.693 108.673C201.633 108.728 201.56 108.768 201.482 108.788C201.403 108.808 201.321 108.808 201.243 108.788L196.82 107.661C196.73 107.638 196.635 107.641 196.547 107.671C196.458 107.701 196.38 107.756 196.32 107.83C196.26 107.904 196.221 107.993 196.207 108.089C196.194 108.185 196.206 108.282 196.243 108.371L198.064 112.711C198.096 112.788 198.11 112.873 198.104 112.956C198.098 113.04 198.072 113.122 198.03 113.193L195.623 117.213C195.574 117.295 195.547 117.39 195.547 117.487C195.547 117.584 195.573 117.68 195.622 117.762C195.672 117.844 195.742 117.911 195.826 117.954C195.91 117.996 196.003 118.014 196.096 118.004L200.629 117.554C200.71 117.545 200.792 117.557 200.867 117.589C200.943 117.621 201.01 117.671 201.063 117.736L203.996 121.344C204.056 121.417 204.135 121.472 204.223 121.502C204.312 121.531 204.406 121.534 204.497 121.511C204.587 121.488 204.669 121.438 204.734 121.369C204.798 121.3 204.843 121.213 204.863 121.118L205.843 116.494C205.86 116.412 205.896 116.336 205.948 116.271C206 116.207 206.067 116.157 206.142 116.125L210.363 114.342C210.449 114.306 210.524 114.245 210.579 114.167C210.634 114.089 210.667 113.996 210.674 113.899C210.681 113.803 210.661 113.706 210.618 113.62C210.574 113.534 210.508 113.463 210.428 113.414L206.5 111.016C206.43 110.973 206.371 110.913 206.329 110.841C206.286 110.769 206.261 110.688 206.255 110.604L205.929 105.872C205.923 105.775 205.89 105.682 205.835 105.604C205.781 105.525 205.706 105.464 205.619 105.428C205.533 105.392 205.438 105.381 205.346 105.398C205.254 105.415 205.169 105.458 205.099 105.523L205.101 105.532Z" stroke="#003A62" stroke-width="2" stroke-miterlimit="10"/>
</svg>
