<svg width="146" height="115" viewBox="0 0 146 115" fill="none" xmlns="http://www.w3.org/2000/svg">
<path d="M123.839 66.0902L130.987 62.6054C130.987 62.6054 132.027 61.32 132.101 63.6382C132.176 65.9565 132.688 95.6702 132.688 95.6702C132.688 95.6702 129.493 98.1221 127.212 99.4893C124.931 100.864 123.839 66.0902 123.839 66.0902Z" fill="#87BACA"/>
<path d="M47.8271 73.5049L49.4395 110.708L59.5967 111.288C59.5967 111.288 60.8153 111.838 60.7633 110.196C60.7112 108.553 61.0605 73.6312 61.0605 73.6312L47.8271 73.5049Z" fill="#87BACA"/>
<path d="M40.5602 60.7773C40.5602 60.7773 39.9806 68.163 44.1936 69.3444C48.4066 70.5259 61.2015 70.8156 61.2015 70.8156L61.0529 61.4832L40.5602 60.7773Z" fill="#87BACA"/>
<path d="M103.554 75.5324C103.554 75.5324 120.347 67.218 120.443 67.7084C120.54 68.1988 120.718 72.0254 120.718 72.0254L103.74 80.2061C103.591 77.3529 103.554 75.5324 103.554 75.5324Z" fill="#E0E0E0"/>
<path d="M75.0957 54.2169L113.555 54.8931L123.838 49.8925L85.2677 49.2461L75.0957 54.2169Z" fill="#87BACA"/>
<path d="M52.3449 48.8503L31.7333 48.5977L21.1006 54.1778L51.3715 54.4453L57.0631 51.6218L52.3449 48.8503Z" fill="#87BACA"/>
<path d="M132.554 66.6397L144.413 60.1902L144.673 55.6875L132.094 61.8472C132.175 63.0732 132.554 66.6397 132.554 66.6397Z" fill="#E0E0E0"/>
<path d="M44.5947 58.5394L66.5586 58.74C66.5586 58.74 76.9164 54.1704 75.7944 53.1822C74.6799 52.1939 69.4118 51.0199 67.6434 51.7778C67.1976 51.971 59.0986 51.2503 57.0627 51.6218L44.5947 58.5394Z" fill="#87BACA"/>
<path d="M119.752 55.2482C119.752 55.2482 119.849 62.411 120.436 62.6116C121.023 62.8122 132.324 57.6333 132.086 56.816C131.848 55.9986 131.611 49.9355 131.611 49.9355L119.752 55.2482Z" fill="#87BACA"/>
<path d="M62.3682 61.4321C62.3682 61.4321 73.2164 62.138 78.2095 61.0086C83.2027 59.8792 105.806 61.4916 105.806 61.4916L118.779 55.6811C118.779 55.6811 119.983 55.1536 117.687 55.213C115.391 55.2725 84.4509 54.8341 84.4509 54.8341L74.2863 54.418L62.3682 61.4321Z" fill="#E0E0E0"/>
<path d="M1.4917 71.0762V74.5387L40.7087 76.3888L40.3595 72.9486L1.4917 71.0762Z" fill="#E0E0E0"/>
<path d="M87.8986 47.6795C87.8986 47.6795 84.7259 49.2473 86.9624 49.2845C89.1989 49.3142 129.337 49.916 129.337 49.916C129.337 49.916 131.343 50.0721 134.003 48.8758C136.663 47.6795 141.783 45.3984 141.783 45.3984H93.3747L87.8986 47.6795Z" fill="#E0E0E0"/>
<path d="M61.2162 77.9568L103.755 79.8738C103.68 77.4738 103.561 75.7277 103.561 75.7277L61.0527 74.3828L61.2162 77.9568Z" fill="#E0E0E0"/>
<path d="M4.21143 59.4478L12.7934 55.8516C12.7934 55.8516 14.1308 54.6479 17.3184 55.012C20.506 55.376 49.0531 55.6881 49.0531 55.6881L40.5603 60.7779L4.21143 59.4478Z" fill="#E0E0E0"/>
<path d="M41.3847 45.1667C41.3847 45.1667 38.4943 45.7834 36.4287 46.7642C34.3705 47.7376 32.7358 48.6143 32.7358 48.6143L51.044 48.8595L49.7066 44.5723L41.3847 45.1667Z" fill="#E0E0E0"/>
<path d="M103.182 113.123V62.6641L145 43.9473V88.41C145.007 88.6478 144.881 88.8707 144.68 88.9896L103.182 113.123Z" stroke="#003A5F" stroke-width="1.8" stroke-miterlimit="10" stroke-linecap="round" stroke-linejoin="round"/>
<path d="M103.183 113.125L2.25713 109.142C1.57354 109.105 1.0237 108.555 1.00141 107.864V61.8781C0.956829 60.6298 1.97478 59.6045 3.22306 59.6416L103.183 62.6509" stroke="#003A5F" stroke-width="1.8" stroke-miterlimit="10" stroke-linecap="round" stroke-linejoin="round"/>
<path d="M92.3047 43.9473H145" stroke="#003A5F" stroke-width="1.8" stroke-miterlimit="10" stroke-linecap="round" stroke-linejoin="round"/>
<path d="M2.71045 59.5884C2.71045 59.5884 28.0625 48.5618 36.7188 44.3786C37.7516 43.8733 38.881 43.6133 40.0327 43.6133L49.7069 43.8139" stroke="#003A5F" stroke-width="1.8" stroke-miterlimit="10" stroke-linecap="round" stroke-linejoin="round"/>
<path d="M144.829 54.8555L103.554 75.5339L1.4917 71.0758" stroke="#003A5F" stroke-width="1.8" stroke-miterlimit="10" stroke-linecap="round" stroke-linejoin="round"/>
<path d="M74.2861 54.416C91.0711 54.5795 114.454 54.9436 120.443 54.8544V67.7088" stroke="#003A5F" stroke-width="1.8" stroke-miterlimit="10" stroke-linecap="round" stroke-linejoin="round"/>
<path d="M15.6836 53.9414C15.6836 53.9414 37.6698 54.2015 51.8988 54.4912" stroke="#003A5F" stroke-width="1.8" stroke-miterlimit="10" stroke-linecap="round" stroke-linejoin="round"/>
<path d="M132.094 62.1282V49.7197C132.094 49.7197 110.561 49.7345 98.9027 49.467C96.1387 49.4002 91.8588 49.3407 85.2607 49.2441" stroke="#003A5F" stroke-width="1.8" stroke-miterlimit="10" stroke-linecap="round" stroke-linejoin="round"/>
<path d="M27.9434 48.6055C27.9434 48.6055 47.2249 48.7912 52.3444 48.8507" stroke="#003A5F" stroke-width="1.8" stroke-miterlimit="10" stroke-linecap="round" stroke-linejoin="round"/>
<path d="M120.443 67.7109L120.718 102.93" stroke="#003A5F" stroke-width="1.8" stroke-miterlimit="10" stroke-linecap="round" stroke-linejoin="round"/>
<path d="M132.094 62.6133V96.317" stroke="#003A5F" stroke-width="1.8" stroke-miterlimit="10" stroke-linecap="round" stroke-linejoin="round"/>
<path d="M41.3031 110.484L40.5601 60.7752L57.0627 51.6211" stroke="#003A5F" stroke-width="1.8" stroke-miterlimit="10" stroke-linecap="round" stroke-linejoin="round"/>
<path d="M79.5021 51.6211L61.0527 61.4885L61.2013 110.788" stroke="#003A5F" stroke-width="1.8" stroke-miterlimit="10" stroke-linecap="round" stroke-linejoin="round"/>
<path d="M84.0347 49.7354L95.3138 43.9473" stroke="#003A5F" stroke-width="1.8" stroke-miterlimit="10" stroke-linecap="round" stroke-linejoin="round"/>
<path d="M82.4448 28.3059L83.1136 6.53516" stroke="#003A5F" stroke-width="1.8" stroke-miterlimit="10" stroke-linecap="round" stroke-linejoin="round"/>
<path d="M82.772 24.0636C82.772 24.0636 121.201 24.9849 123.364 24.8438L116.297 12.9627L124.902 1.46811L83.2178 1L82.772 24.0636Z" stroke="#003A5F" stroke-width="1.8" stroke-miterlimit="10" stroke-linecap="round" stroke-linejoin="round"/>
<path d="M86.1593 10.8949C86.3747 11.9203 86.5605 12.9457 86.7908 13.9711C86.9469 14.6472 87.0955 15.3605 87.4001 15.9921C87.6305 16.4677 88.0614 16.8837 88.6261 16.75C89.1759 16.6237 89.5252 16.059 89.7927 15.5983C90.4242 14.4986 90.8849 13.2875 91.3456 12.1135C90.9592 12.1135 90.5654 12.1135 90.179 12.1135C90.5134 13.0869 90.8403 14.0751 91.2416 15.0336C91.4422 15.5091 91.6354 16.0961 92.0366 16.4454C92.4824 16.8392 93.062 16.6906 93.3666 16.2076C93.6564 15.7395 93.753 15.1376 93.8645 14.6101C94.1097 13.451 94.3028 12.277 94.5109 11.1179C94.5703 10.7984 94.4217 10.464 94.0799 10.3674C93.7827 10.2857 93.3963 10.464 93.3295 10.7984C93.1214 11.95 92.9357 13.1092 92.6905 14.2534C92.6236 14.5804 92.5419 14.9147 92.4527 15.2417C92.4304 15.3011 92.4081 15.368 92.3933 15.4348C92.3412 15.6057 92.4156 15.4051 92.3784 15.4869C92.3561 15.524 92.3338 15.5686 92.319 15.6057C92.2669 15.7321 92.3784 15.5463 92.3338 15.5909C92.4155 15.5091 92.631 15.4348 92.8391 15.5463C92.7202 15.4869 92.9357 15.6355 92.8614 15.5686C92.8242 15.5389 92.7499 15.42 92.8539 15.5686C92.7053 15.3531 92.5939 15.1153 92.4898 14.885C92.0589 13.9339 91.7097 12.8342 91.3679 11.8089C91.1598 11.2144 90.4168 11.2516 90.2013 11.8089C89.8372 12.7451 89.4583 13.6962 88.9976 14.5952C88.849 14.8776 88.7004 15.1451 88.5221 15.4051C88.4404 15.5166 88.5444 15.3828 88.4849 15.4497C88.4552 15.4794 88.4329 15.5091 88.4032 15.5389C88.3809 15.5612 88.2769 15.6503 88.3586 15.5835C88.4404 15.5166 88.3289 15.6132 88.3066 15.6132C88.2843 15.6132 88.4552 15.5612 88.3438 15.5909C88.3735 15.5835 88.5147 15.576 88.4106 15.576C88.4998 15.576 88.5444 15.5909 88.6038 15.6206C88.4998 15.5537 88.6335 15.6503 88.6261 15.6429C88.5072 15.4869 88.6484 15.7246 88.5667 15.5686C88.5369 15.5166 88.4478 15.3234 88.4626 15.368C88.4924 15.4423 88.4329 15.2862 88.4255 15.2639C88.4032 15.2045 88.3883 15.1525 88.366 15.0856C88.3215 14.937 88.2769 14.8033 88.2397 14.6547C88.1506 14.3277 88.0688 14.0008 87.9945 13.659C87.7642 12.6336 87.5636 11.6083 87.363 10.5829C87.1772 9.81013 86.0032 10.1371 86.1593 10.8949Z" fill="#003A5F"/>
<path d="M95.8931 11.0966C96.1086 12.1294 96.3018 13.1548 96.5321 14.1876C96.6881 14.8563 96.8367 15.5622 97.1339 16.1864C97.3643 16.6619 97.7952 17.0854 98.3674 16.9442C98.9246 16.8179 99.2739 16.2309 99.5414 15.7777C100.173 14.6854 100.626 13.4817 101.079 12.3078C100.693 12.3078 100.299 12.3078 99.9129 12.3078C100.27 13.4 100.634 14.4997 101.094 15.5548C101.302 16.0303 101.577 16.699 102.127 16.8699C103.368 17.2637 103.561 15.0124 103.695 14.2916C103.896 13.1697 104.066 12.0477 104.282 10.9332C104.43 10.1678 103.256 9.8409 103.115 10.6137C102.826 12.1517 102.647 13.7344 102.268 15.2576C102.239 15.3616 102.216 15.4805 102.179 15.5845C102.164 15.6217 102.149 15.6588 102.142 15.7034C102.097 15.8594 102.172 15.6662 102.135 15.7257C102.083 15.8148 101.971 15.9114 102.112 15.7926C102.038 15.8594 102.149 15.7703 102.172 15.7554C102.194 15.7405 102.291 15.7034 102.38 15.7108C102.469 15.7108 102.573 15.7331 102.625 15.8074C102.61 15.7851 102.588 15.7628 102.565 15.748C102.461 15.6662 102.595 15.8 102.551 15.7331C102.424 15.5176 102.305 15.3022 102.209 15.0867C101.763 14.1207 101.429 13.0434 101.094 12.0105C100.894 11.4087 100.143 11.4607 99.9277 12.0105C99.5637 12.9542 99.1773 13.9053 98.724 14.8043C98.5903 15.0792 98.4343 15.3393 98.2559 15.5919C98.1965 15.6811 98.3079 15.5399 98.2188 15.6365C98.1891 15.6737 98.1519 15.7034 98.1222 15.7405C98.0999 15.7703 98.0702 15.7851 98.0479 15.8148C98.1668 15.7034 98.0925 15.7851 98.0404 15.8074C97.9587 15.852 98.1891 15.7554 98.0776 15.7851C98.137 15.7703 98.1816 15.7703 98.2782 15.7851C98.2262 15.7703 98.3599 15.8371 98.3525 15.8371C98.2336 15.7182 98.3822 15.9263 98.2931 15.7628C98.2485 15.6811 98.2039 15.5919 98.1668 15.5102C98.2188 15.6217 98.1668 15.5028 98.1445 15.4582C98.1222 15.3987 98.1073 15.3467 98.085 15.2799C98.0404 15.1535 98.0033 15.0124 97.9661 14.8786C97.877 14.5517 97.7952 14.2173 97.7209 13.883C97.4906 12.8502 97.29 11.8248 97.0819 10.792C96.8962 10.0118 95.7296 10.3313 95.8931 11.0966Z" fill="#003A5F"/>
<path d="M105.33 11.3572C105.538 12.3826 105.731 13.4005 105.962 14.4185C106.118 15.102 106.274 15.8079 106.571 16.4469C106.794 16.915 107.21 17.3683 107.775 17.2345C108.317 17.1082 108.636 16.5361 108.859 16.068C109.417 14.9237 109.773 13.6903 110.145 12.4717C109.781 12.5163 109.402 12.5683 109.038 12.6203C109.498 13.6457 109.944 14.6711 110.449 15.6742C110.687 16.1423 110.947 16.759 111.408 17.0414C111.891 17.3386 112.404 17.0636 112.619 16.5881C112.872 16.0308 112.946 15.3918 113.05 14.7974C113.258 13.5937 113.451 12.3751 113.696 11.1714C113.852 10.4061 112.678 10.0792 112.53 10.8519C112.329 11.8476 112.158 12.8432 111.987 13.8463C111.883 14.4705 111.787 15.1169 111.638 15.7336C111.616 15.8228 111.586 15.9194 111.564 16.0085C111.549 16.0606 111.482 16.172 111.571 16.0085C111.557 16.0383 111.549 16.0754 111.527 16.0977C111.43 16.2017 111.631 16.0085 111.623 16.016C111.772 15.9417 111.987 15.9714 112.039 16.0011C112.143 16.0606 112.099 16.0457 112.01 15.9565C111.943 15.8897 112.077 16.0531 112.017 15.964C111.987 15.9194 111.95 15.8674 111.921 15.8154C111.765 15.5702 111.638 15.3175 111.512 15.0575C111.007 14.0544 110.561 13.029 110.1 12.0036C109.87 11.4984 109.134 11.6916 108.993 12.1522C108.696 13.1479 108.391 14.151 107.99 15.0946C107.886 15.3547 107.76 15.6147 107.618 15.8525C107.589 15.8971 107.559 15.9417 107.529 15.9863C107.47 16.0754 107.604 15.9194 107.514 16.0011C107.485 16.0308 107.455 16.0531 107.433 16.0828C107.381 16.1497 107.552 15.9937 107.44 16.068C107.522 16.0085 107.604 16.0085 107.708 16.0383C107.604 16.0011 107.834 16.1051 107.76 16.0606C107.693 16.0234 107.879 16.1646 107.782 16.0754C107.7 15.9937 107.804 16.1051 107.789 16.0903C107.767 16.0531 107.745 16.0234 107.73 15.9937C107.7 15.9417 107.596 15.7039 107.648 15.8302C107.418 15.2655 107.284 14.6637 107.15 14.0692C106.92 13.0513 106.719 12.0333 106.519 11.008C106.348 10.2649 105.181 10.5919 105.33 11.3572Z" fill="#003A5F"/>
<path d="M55.6659 41.8516C55.6659 41.8516 48.8672 45.1729 50.6282 47.4466C52.3892 49.7202 56.1786 51.6744 61.7885 51.9865C67.3983 52.2985 67.8367 51.08 66.0163 50.2701C64.2033 49.4602 55.6659 41.8516 55.6659 41.8516Z" fill="#87BACA"/>
<path d="M72.7114 32.3851C72.7114 32.3851 72.0278 29.6879 64.0923 31.6272C56.1642 33.5665 63.1858 51.8227 70.1108 52.3131C70.1108 52.3131 73.395 52.1348 73.395 49.8834C73.4024 47.6395 72.7114 32.3851 72.7114 32.3851Z" fill="#87BACA"/>
<path d="M80.0816 30.5443C82.7119 31.4359 92.3713 38.7101 90.1051 40.5231C90.1051 40.5231 85.424 41.8086 79.3089 47.567C79.3089 47.567 76.4556 50.2568 75.8909 51.7131C75.3262 53.1695 77.4513 29.6526 80.0816 30.5443Z" fill="#87BACA"/>
<path d="M72.2353 51.7048C72.161 51.7568 72.0793 51.8014 72.0124 51.8534C71.7746 52.002 71.522 52.1135 71.2694 52.1952C70.0657 52.6113 68.7357 52.4255 67.636 51.7865C63.3487 49.2825 45.5458 35.9601 55.1457 31.9106C65.6224 27.4821 71.574 26.7465 73.9368 29.6146" stroke="#003A5F" stroke-width="1.8" stroke-miterlimit="10" stroke-linecap="round" stroke-linejoin="round"/>
<path d="M72.6292 52.0328C71.6112 51.26 71.0317 50.0489 70.9574 48.7783C70.6453 43.8223 71.106 22.9655 80.5499 27.3494C90.9968 32.1939 96.2872 40.4713 91.3609 45.0334C87.7647 48.3622 80.483 51.7727 75.5939 52.7089C74.3233 52.9541 73.3425 52.5826 72.6292 52.0328Z" stroke="#003A5F" stroke-width="1.8" stroke-miterlimit="10" stroke-linecap="round" stroke-linejoin="round"/>
<path d="M75.5864 52.7216C75.9802 48.2263 92.3491 36.4493 93.211 40.6474" stroke="#003A5F" stroke-width="1.8" stroke-miterlimit="10" stroke-linecap="round" stroke-linejoin="round"/>
<path d="M67.6434 51.7782C67.6434 51.7782 55.8144 53.2643 51.2077 48.1522C46.6009 43.0402 54.1129 39.9492 54.1129 39.9492" stroke="#003A5F" stroke-width="1.8" stroke-miterlimit="10" stroke-linecap="round" stroke-linejoin="round"/>
</svg>
