<svg width="133" height="92" viewBox="0 0 133 92" fill="none" xmlns="http://www.w3.org/2000/svg">
<path d="M88.9995 28.377L1.38184 87.4698C1.38184 89.2289 2.80966 90.6567 4.56879 90.6567H109.62C111.395 90.6567 112.831 89.2289 112.831 87.4698V44.0199C102.56 43.941 93.3382 38.8529 89.4176 29.363L88.9995 28.377ZM99.365 75.4319C99.365 76.8597 98.2054 78.043 96.7539 78.043H78.918C77.4902 78.043 76.3069 76.8676 76.3069 75.4319V57.596C76.3069 56.1445 77.4823 54.9849 78.918 54.9849H96.7539C98.2054 54.9849 99.365 56.1445 99.365 57.596V75.4319Z" fill="url(#paint0_linear_2508_2119)"/>
<path d="M96.8177 78.5542H78.8556C77.4514 78.5542 76.3076 77.4183 76.3076 76.0062L96.8177 55.4961C98.2219 55.4961 99.3657 56.632 99.3657 58.0441V76.0062C99.3657 77.4183 98.2298 78.5542 96.8177 78.5542Z" fill="#7CBFCF"/>
<path d="M89.1256 14.4688H3.52743C2.34416 14.4688 1.38965 15.4233 1.38965 16.6065V88.5261C1.38965 89.7093 2.34416 90.6639 3.52743 90.6639H110.693C111.876 90.6639 112.831 89.7093 112.831 88.5261V44.0191" stroke="#003C65" stroke-width="1.8" stroke-miterlimit="10" stroke-linecap="round" stroke-linejoin="round"/>
<path d="M90.7113 33.2109H1.38184" stroke="#003C65" stroke-width="1.8" stroke-miterlimit="10" stroke-linecap="round" stroke-linejoin="round"/>
<path d="M97.9213 79.075H77.7583C76.6696 79.075 75.7861 78.1915 75.7861 77.1029V56.9477C75.7861 55.8591 76.6696 54.9756 77.7583 54.9756H97.9134C99.002 54.9756 99.8855 55.8591 99.8855 56.9477V77.1029C99.8855 78.1915 99.0099 79.075 97.9213 79.075Z" stroke="#003C65" stroke-width="1.8" stroke-miterlimit="10" stroke-linecap="round" stroke-linejoin="round"/>
<path d="M107.001 41.4544C116.498 41.4544 124.198 33.7551 124.198 24.2575C124.198 14.7599 116.498 7.06055 107.001 7.06055C97.5031 7.06055 89.8037 14.7599 89.8037 24.2575C89.8037 33.7551 97.5031 41.4544 107.001 41.4544Z" fill="#FFA555"/>
<path d="M107.782 36.1632C107.261 35.6505 107.001 35.0194 107.001 34.2621C107.001 33.5127 107.261 32.8737 107.782 32.3609C108.303 31.8482 108.949 31.5879 109.715 31.5879C110.48 31.5879 111.127 31.8482 111.647 32.3609C112.168 32.8737 112.428 33.5048 112.428 34.2621C112.428 35.0115 112.168 35.6505 111.647 36.1632C111.127 36.676 110.48 36.9363 109.715 36.9363C108.942 36.9284 108.303 36.676 107.782 36.1632ZM107.411 7.0625H112.01L111.663 26.8232H107.742L107.411 7.0625Z" fill="#003C65"/>
<path d="M131.258 22.1363C130.777 50.3219 88.8494 50.3219 88.3682 22.1363C88.8573 -6.04937 130.785 -6.04148 131.258 22.1363Z" stroke="#003C65" stroke-width="1.8" stroke-miterlimit="10" stroke-linecap="round" stroke-linejoin="round"/>
<defs>
<linearGradient id="paint0_linear_2508_2119" x1="1.37955" y1="59.5142" x2="112.828" y2="59.5142" gradientUnits="userSpaceOnUse">
<stop stop-color="#EAEAEA"/>
<stop offset="1" stop-color="#F0F0F0"/>
</linearGradient>
</defs>
</svg>
