<svg width="120" height="80" xmlns="http://www.w3.org/2000/svg"><g fill="none" fill-rule="evenodd"><path fill="#FFF" d="M0 0h120v80H0z"/><path fill="#F6F7F7" d="M36 11h83v68H36z"/><path d="M46.641 19h61.718c.223 0 .304.023.385.067a.454.454 0 01.19.189c.043.081.066.162.066.385v50.718c0 .223-.023.304-.067.385a.454.454 0 01-.189.19c-.081.043-.162.066-.385.066H46.641c-.223 0-.304-.023-.385-.067a.454.454 0 01-.19-.189c-.043-.081-.066-.162-.066-.385V19.641c0-.223.023-.304.067-.385a.454.454 0 01.189-.19c.081-.043.162-.066.385-.066z" fill="#FFF"/><path d="M83.564 57h16.872c.892 0 1.215.093 1.54.267.327.174.583.43.757.756.174.326.267.65.267 1.54v2.873c0 .892-.093 1.215-.267 1.54-.174.327-.43.583-.756.757-.326.174-.65.267-1.54.267H83.563c-.892 0-1.215-.093-1.54-.267a1.817 1.817 0 01-.757-.756c-.174-.326-.267-.65-.267-1.54v-2.873c0-.892.093-1.215.267-1.54.174-.327.43-.583.756-.757.326-.174.65-.267 1.54-.267z" fill="#2271B1"/><path fill="#043959" d="M1 11h35v68H1z"/><path fill="#01263A" d="M35.5 11h1v68h-1z"/><path d="M23 64v1H5v-1h18zm-4-7v1H5v-1h14zm4-16v1H5v-1h18z" fill="#C5D9ED"/><path fill="#00131C" d="M1 45h35v9H1z"/><path fill="#FFF" d="M5 49h25v1H5z"/><circle fill-opacity=".3" fill="#FFF" cx="18" cy="25" r="8"/><path fill="#00131C" d="M1 1h118v10H1z"/></g></svg>