<?xml version="1.0" encoding="UTF-8"?>
<svg width="47px" height="43px" viewBox="0 0 47 43" version="1.1" xmlns="http://www.w3.org/2000/svg" xmlns:xlink="http://www.w3.org/1999/xlink">
    <!-- Generator: Sketch 53.2 (72643) - https://sketchapp.com -->
    <title>referral</title>
    <desc>Created with Sketch.</desc>
    <g id="Page-1" stroke="none" stroke-width="1" fill="none" fill-rule="evenodd">
        <g id="referral" transform="translate(-5.000000, -7.000000)">
            <polygon id="Path" points="0 0 56 0 56 56 0 56"></polygon>
            <path d="M39.075,7 C34.986,7 31.0615,8.89809264 28.5,11.8975477 C25.9385,8.89809264 22.014,7 17.925,7 C10.687,7 5,12.6708447 5,19.8882834 C5,28.746049 12.99,35.9634877 25.0925,46.9302452 L28.5,50 L31.9075,46.906812 C44.01,35.9634877 52,28.746049 52,19.8882834 C52,12.6708447 46.313,7 39.075,7 Z M28.735,43.4386921 L28.5,43.6730245 L28.265,43.4386921 C17.079,33.3389646 9.7,26.6604905 9.7,19.8882834 C9.7,15.2016349 13.225,11.6866485 17.925,11.6866485 C21.544,11.6866485 25.069,14.0065395 26.3145,17.2168937 L30.709,17.2168937 C31.931,14.0065395 35.456,11.6866485 39.075,11.6866485 C43.775,11.6866485 47.3,15.2016349 47.3,19.8882834 C47.3,26.6604905 39.921,33.3389646 28.735,43.4386921 Z" id="Shape" fill="#7EA7BF" fill-rule="nonzero"></path>
        </g>
    </g>
</svg>