<?xml version="1.0" encoding="UTF-8"?>
<svg width="47px" height="47px" viewBox="0 0 47 47" version="1.1" xmlns="http://www.w3.org/2000/svg" xmlns:xlink="http://www.w3.org/1999/xlink">
    <!-- Generator: Sketch 53.2 (72643) - https://sketchapp.com -->
    <title>simple-store</title>
    <desc>Created with Sketch.</desc>
    <g id="Page-1" stroke="none" stroke-width="1" fill="none" fill-rule="evenodd">
        <g id="simple-store" transform="translate(-5.000000, -5.000000)">
            <polygon id="Path" points="0 0 56 0 56 56 0 56"></polygon>
            <path d="M50.6135,27.513 L29.4635,6.363 C28.6175,5.517 27.4425,5 26.15,5 L9.7,5 C7.115,5 5,7.115 5,9.7 L5,26.15 C5,27.4425 5.517,28.6175 6.3865,29.487 L27.5365,50.637 C28.3825,51.483 29.5575,52 30.85,52 C32.1425,52 33.3175,51.483 34.1635,50.6135 L50.6135,34.1635 C51.483,33.3175 52,32.1425 52,30.85 C52,29.5575 51.4595,28.359 50.6135,27.513 Z M30.85,47.3235 L9.7,26.15 L9.7,9.7 L26.15,9.7 L26.15,9.6765 L47.3,30.8265 L30.85,47.3235 L30.85,47.3235 Z" id="Shape" fill="#7EA7BF" fill-rule="nonzero"></path>
            <circle id="Oval" fill="#7EA7BF" fill-rule="nonzero" cx="15.5" cy="15.5" r="3.5"></circle>
        </g>
    </g>
</svg>