<?xml version="1.0" encoding="UTF-8"?>
<svg width="47px" height="37px" viewBox="0 0 47 37" version="1.1" xmlns="http://www.w3.org/2000/svg" xmlns:xlink="http://www.w3.org/1999/xlink">
    <!-- Generator: Sketch 53.2 (72643) - https://sketchapp.com -->
    <title>simple-payments</title>
    <desc>Created with Sketch.</desc>
    <g id="Page-1" stroke="none" stroke-width="1" fill="none" fill-rule="evenodd">
        <g id="simple-payments" transform="translate(-5.000000, -10.000000)">
            <polygon id="Path" points="0 0 56 0 56 56 0 56"></polygon>
            <path d="M47.3,10 L9.7,10 C7.0915,10 5.0235,12.058125 5.0235,14.625 L5,42.375 C5,44.941875 7.0915,47 9.7,47 L47.3,47 C49.9085,47 52,44.941875 52,42.375 L52,14.625 C52,12.058125 49.9085,10 47.3,10 Z M47.3,42.375 L9.7,42.375 L9.7,28.5 L47.3,28.5 L47.3,42.375 Z M47.3,19.25 L9.7,19.25 L9.7,14.625 L47.3,14.625 L47.3,19.25 Z" id="Shape" fill="#7EA7BF" fill-rule="nonzero"></path>
        </g>
    </g>
</svg>