<svg height="47" viewBox="0 0 47 47" width="47" xmlns="http://www.w3.org/2000/svg"><g fill="none" fill-rule="evenodd" transform="translate(-2 -5)"><path d="m0 0h56v56h-56z"/><path d="m16.0947654 42.6c-2.5840403 0-4.6747639 2.115-4.6747639 4.7s2.0907236 4.7 4.6747639 4.7 4.6982551-2.115 4.6982551-4.7-2.1142148-4.7-4.6982551-4.7zm23.4912756 0c-2.5840403 0-4.6747638 2.115-4.6747638 4.7s2.0907235 4.7 4.6747638 4.7c2.5840404 0 4.6982552-2.115 4.6982552-4.7s-2.1142148-4.7-4.6982552-4.7zm-3.4062349-11.75c1.7618456 0 3.3122698-.9635 4.1109732-2.4205l8.4098767-15.2515c.8691772-1.551-.258404-3.478-2.043741-3.478h-34.767088l-2.20817986-4.7h-7.68164714v4.7h4.69825513l8.45685927 17.8365-3.1713223 5.734c-1.7148631 3.149.5402994 6.9795 4.1109733 6.9795h28.1895308v-4.7h-28.1895308l2.5840403-4.7zm-22.0583079-16.45h28.5418999l-6.483592 11.75h-16.4908755z" fill="#6ab3d0" fill-rule="nonzero"/></g></svg>
