<?xml version="1.0" encoding="UTF-8" standalone="no"?>
<svg width="400px" height="250px" viewBox="0 0 400 250" version="1.1" xmlns="http://www.w3.org/2000/svg" xmlns:xlink="http://www.w3.org/1999/xlink" xmlns:sketch="http://www.bohemiancoding.com/sketch/ns">
    <!-- Generator: Sketch 3.2.2 (9983) - http://www.bohemiancoding.com/sketch -->
    <title>drake-jetpack</title>
    <desc>Created with Sketch.</desc>
    <defs></defs>
    <g id="Page-1" stroke="none" stroke-width="1" fill="none" fill-rule="evenodd" sketch:type="MSPage">
        <g id="drake-jetpack" sketch:type="MSArtboardGroup">
            <g id="Group-+-Path-34-+-Rectangle-68-+-Group" sketch:type="MSLayerGroup" transform="translate(98.000000, 16.000000)">
                <g id="Group" transform="translate(28.000000, 0.000000)" fill="#D5E5EB" sketch:type="MSShapeGroup">
                    <path d="M21.3198624,20.307282 C21.7981651,19.310818 21.8014517,17.7020778 21.3198624,16.6987667 L17.0519497,7.80728195 C16.573647,6.81081798 16.9868526,6.38747867 17.9901637,6.86906799 L26.8816484,11.1369807 C27.8781124,11.6152834 29.4868526,11.61857 30.4901637,11.1369807 L39.3816484,6.86906799 C40.3781124,6.39076528 40.8014517,6.80397087 40.3198624,7.80728195 L36.0519497,16.6987667 C35.573647,17.6952307 35.5703604,19.3039709 36.0519497,20.307282 L40.3198624,29.1987667 C40.7981651,30.1952307 40.3849595,30.61857 39.3816484,30.1369807 L30.4901637,25.869068 C29.4936997,25.3907653 27.8849595,25.3874787 26.8816484,25.869068 L17.9901637,30.1369807 C16.9936997,30.6152834 16.5703604,30.2020778 17.0519497,29.1987667 L21.3198624,20.307282 Z" id="Rectangle-66" transform="translate(28.685906, 18.503024) rotate(-45.000000) translate(-28.685906, -18.503024) "></path>
                    <path d="M131.913989,80.4028511 C132.15253,79.9058905 132.15422,79.1036793 131.913989,78.6031976 L130.617823,75.9028511 C130.379282,75.4058905 130.585251,75.1947099 131.085733,75.4349412 L133.786079,76.7311075 C134.28304,76.9696486 135.085251,76.9713387 135.585733,76.7311075 L138.286079,75.4349412 C138.78304,75.1964001 138.99422,75.4023693 138.753989,75.9028511 L137.457823,78.6031976 C137.219282,79.1001582 137.217592,79.9023693 137.457823,80.4028511 L138.753989,83.1031976 C138.99253,83.6001582 138.786561,83.8113387 138.286079,83.5711075 L135.585733,82.2749412 C135.088772,82.0364001 134.286561,82.0347099 133.786079,82.2749412 L131.085733,83.5711075 C130.588772,83.8096486 130.377592,83.6036793 130.617823,83.1031976 L131.913989,80.4028511 Z" id="Rectangle-66" transform="translate(134.685906, 79.503024) rotate(-45.000000) translate(-134.685906, -79.503024) "></path>
                    <path d="M21.385906,82.5030243 L20.185906,80.0030243 L22.685906,81.2030243 L25.185906,80.0030243 L23.985906,82.5030243 L25.185906,85.0030243 L22.685906,83.8030243 L20.185906,85.0030243 L21.385906,82.5030243 Z" id="Rectangle-66" transform="translate(22.685906, 82.503024) rotate(-90.000000) translate(-22.685906, -82.503024) "></path>
                    <path d="M110.385906,38.5030243 L109.185906,36.0030243 L111.685906,37.2030243 L114.185906,36.0030243 L112.985906,38.5030243 L114.185906,41.0030243 L111.685906,39.8030243 L109.185906,41.0030243 L110.385906,38.5030243 Z" id="Rectangle-66" transform="translate(111.685906, 38.503024) rotate(-90.000000) translate(-111.685906, -38.503024) "></path>
                    <path d="M48.3899637,31.4112375 C48.630728,30.9096452 48.6360438,30.1074779 48.3899637,29.5948112 L46.6218483,25.9112375 C46.3810841,25.4096452 46.5814525,25.1928866 47.0941192,25.4389666 L50.7776929,27.207082 C51.2792852,27.4478463 52.0814525,27.453162 52.5941192,27.207082 L56.2776929,25.4389666 C56.7792852,25.1982023 56.9960438,25.3985708 56.7499637,25.9112375 L54.9818483,29.5948112 C54.7410841,30.0964035 54.7357683,30.8985708 54.9818483,31.4112375 L56.7499637,35.0948112 C56.990728,35.5964035 56.7903596,35.813162 56.2776929,35.567082 L52.5941192,33.7989666 C52.0925269,33.5582023 51.2903596,33.5528866 50.7776929,33.7989666 L47.0941192,35.567082 C46.5925269,35.8078463 46.3757683,35.6074779 46.6218483,35.0948112 L48.3899637,31.4112375 Z" id="Rectangle-66" transform="translate(51.685906, 30.503024) rotate(-90.000000) translate(-51.685906, -30.503024) "></path>
                    <path d="M83.9139892,49.4028511 C84.1525303,48.9058905 84.1542204,48.1036793 83.9139892,47.6031976 L82.6178229,44.9028511 C82.3792818,44.4058905 82.585251,44.1947099 83.0857328,44.4349412 L85.7860793,45.7311075 C86.2830399,45.9696486 87.085251,45.9713387 87.5857328,45.7311075 L90.2860793,44.4349412 C90.7830399,44.1964001 90.9942204,44.4023693 90.7539892,44.9028511 L89.4578229,47.6031976 C89.2192818,48.1001582 89.2175916,48.9023693 89.4578229,49.4028511 L90.7539892,52.1031976 C90.9925303,52.6001582 90.7865611,52.8113387 90.2860793,52.5711075 L87.5857328,51.2749412 C87.0887722,51.0364001 86.2865611,51.0347099 85.7860793,51.2749412 L83.0857328,52.5711075 C82.5887722,52.8096486 82.3775916,52.6036793 82.6178229,52.1031976 L83.9139892,49.4028511 Z" id="Rectangle-66" transform="translate(86.685906, 48.503024) rotate(-45.000000) translate(-86.685906, -48.503024) "></path>
                    <path d="M3.9139892,74.4028511 C4.15253029,73.9058905 4.15422045,73.1036793 3.9139892,72.6031976 L2.61782288,69.9028511 C2.37928179,69.4058905 2.58525102,69.1947099 3.08573278,69.4349412 L5.7860793,70.7311075 C6.28303989,70.9696486 7.08525102,70.9713387 7.58573278,70.7311075 L10.2860793,69.4349412 C10.7830399,69.1964001 10.9942204,69.4023693 10.7539892,69.9028511 L9.45782288,72.6031976 C9.21928179,73.1001582 9.21759163,73.9023693 9.45782288,74.4028511 L10.7539892,77.1031976 C10.9925303,77.6001582 10.7865611,77.8113387 10.2860793,77.5711075 L7.58573278,76.2749412 C7.0887722,76.0364001 6.28656106,76.0347099 5.7860793,76.2749412 L3.08573278,77.5711075 C2.5887722,77.8096486 2.37759163,77.6036793 2.61782288,77.1031976 L3.9139892,74.4028511 Z" id="Rectangle-66" transform="translate(6.685906, 73.503024) rotate(-45.000000) translate(-6.685906, -73.503024) "></path>
                </g>
                <g id="Path-34-+-Rectangle-68" transform="translate(0.000000, 21.000000)" sketch:type="MSShapeGroup">
                    <path d="M178.535857,1.1836547 C177.057294,1.1663476 175.569415,9.98120643 175.569415,9.98120643 C175.569415,9.98120643 177.048691,8.26146189 178.535857,8.27886969 C180.023024,8.2962775 181.5023,10.0506529 181.5023,10.0506529 C181.5023,10.0506529 180.014421,1.2009618 178.535857,1.1836547 Z" id="Path-34" fill="#00AADC" transform="translate(178.535857, 5.617141) scale(-1, 1) rotate(-60.000000) translate(-178.535857, -5.617141) "></path>
                    <path d="M89.267769,-44.2326554 C89.6242533,9.33036139 92.267769,146.618596 92.267769,146.618596 L90.0877117,122.148769 L89.267769,158.309611 L88.6936961,122.148769 L86.267769,146.618596 C86.267769,146.618596 89.0237846,9.33036139 89.267769,-44.2326554 Z" id="Rectangle-68" fill-opacity="0.278051404" fill="#D5E5EB" transform="translate(89.267769, 57.038478) scale(-1, 1) rotate(-60.000000) translate(-89.267769, -57.038478) "></path>
                </g>
                <g id="Group" transform="translate(25.000000, 111.000000)" sketch:type="MSShapeGroup">
                    <path d="M49.5939856,98.9984878 C76.5851421,98.9984878 98.4657977,92.2922849 98.4657977,84.0197644 C98.4657977,75.7472439 76.5851421,69.041041 49.5939856,69.041041 C22.6028291,69.041041 0.722173492,75.7472439 0.722173492,84.0197644 C0.722173492,92.2922849 22.6028291,98.9984878 49.5939856,98.9984878 Z" id="Oval-32" fill-opacity="0.278051404" fill="#D5E5EB"></path>
                    <ellipse id="Oval-16" fill="#D5E5EB" cx="48.5567472" cy="82.8495517" rx="26.6758641" ry="8.19148936"></ellipse>
                    <path d="M47.0158358,87.4493066 C57.0314936,87.4493066 66.1507885,85.0244525 66.1507885,82.0332433 C66.1507885,81.4704507 58.0884861,50.4777712 59.3342212,39.3407163 C60.5799564,28.2036615 74.2170342,13.0820011 74.2170342,7.45427963 C74.2170342,3.55287123 65.0130619,0.340998501 59.7892998,0.340998495 C54.5655378,0.340998488 46.6214975,5.30422997 41.7424231,11.2960766 C34.617424,20.0460766 31.1020369,32.8638798 29.8808831,39.3407163 C25.953038,60.1734806 29.8808831,81.4636407 29.8808831,82.0332433 C29.8808831,85.0244525 37.000178,87.4493066 47.0158358,87.4493066 Z" id="Oval-19" fill="#9EBEC9"></path>
                    <path d="M51.6961558,87.2725732 C59.7029717,86.6632005 66.1507885,84.5484432 66.1507885,82.0332433 C66.1507885,81.4704507 58.0884861,50.4777712 59.3342212,39.3407163 C60.5799564,28.2036615 74.2170342,13.0820011 74.2170342,7.45427963 C74.2170342,6.46198558 72.9121096,5.08056643 72.9121096,5.08056643 C72.9121096,5.08056643 64.9920379,22.6019388 61.8182377,26.5151837 C57.5618595,31.7632299 57.7151709,32.86388 56.4940171,39.3407166 C52.566172,60.1734808 60.275267,77.0483872 51.6961558,87.2725732 Z" id="Oval-20" fill="#7BA6B4"></path>
                    <ellipse id="Oval-25" fill="#6C93A0" transform="translate(58.453046, 15.087078) rotate(-165.000000) translate(-58.453046, -15.087078) " cx="58.4530463" cy="15.0870779" rx="1.25068639" ry="2.29141138"></ellipse>
                    <ellipse id="Oval-26" fill="#6C93A0" transform="translate(46.265854, 12.093988) rotate(-165.000000) translate(-46.265854, -12.093988) " cx="46.2658537" cy="12.0939877" rx="1.25068639" ry="2.29141138"></ellipse>
                    <path d="M65.8174938,5.45579897 C66.3931063,5.45579897 66.8597325,4.98948087 66.8597325,4.41424834 C66.8597325,3.83901581 66.3931063,3.37269771 65.8174938,3.37269771 C65.2418813,3.37269771 64.7752551,3.83901581 64.7752551,4.41424834 C64.7752551,4.98948087 65.2418813,5.45579897 65.8174938,5.45579897 Z" id="Oval-29" fill="#7BA6B4" transform="translate(65.775255, 4.372698) rotate(-165.000000) translate(-65.775255, -4.372698) "></path>
                    <path d="M59.0869985,3.46531533 C59.662611,3.46531533 60.1292371,2.99899723 60.1292371,2.4237647 C60.1292371,1.84853218 59.662611,1.38221408 59.0869985,1.38221408 C58.511386,1.38221408 58.0447598,1.84853218 58.0447598,2.4237647 C58.0447598,2.99899723 58.511386,3.46531533 59.0869985,3.46531533 Z" id="Oval-30" fill="#7BA6B4" transform="translate(59.086998, 2.423765) rotate(-165.000000) translate(-59.086998, -2.423765) "></path>
                    <path d="M33.1462563,25.636747 L37.6369025,22.7204872 C39.162852,21.7295241 39.3490553,19.8822209 38.0618138,18.6033756 L35.6115314,16.1690757 L33.1462563,25.636747 Z" id="Path-8" fill="#7BA6B4" transform="translate(36.031493, 20.902911) rotate(-165.000000) translate(-36.031493, -20.902911) "></path>
                    <path d="M55.1671223,30.286344 L53.6912271,25.1392858 C53.1897087,23.3902835 54.2611192,21.8739456 56.0716108,21.7532953 L59.5179068,21.5236357 L55.1671223,30.286344 Z" id="Path-9" fill="#7BA6B4" transform="translate(56.542796, 25.904990) rotate(-165.000000) translate(-56.542796, -25.904990) "></path>
                </g>
            </g>
        </g>
    </g>
</svg>