<?xml version="1.0" encoding="UTF-8" standalone="no"?>
<svg width="400px" height="250px" viewBox="0 0 400 250" version="1.1" xmlns="http://www.w3.org/2000/svg" xmlns:xlink="http://www.w3.org/1999/xlink" xmlns:sketch="http://www.bohemiancoding.com/sketch/ns">
    <!-- Generator: Sketch 3.2.2 (9983) - http://www.bohemiancoding.com/sketch -->
    <title>drake-all-done</title>
    <desc>Created with Sketch.</desc>
    <defs></defs>
    <g id="Page-1" stroke="none" stroke-width="1" fill="none" fill-rule="evenodd" sketch:type="MSPage">
        <g id="drake-all-done" sketch:type="MSArtboardGroup">
            <g sketch:type="MSLayerGroup" transform="translate(119.000000, 111.000000)">
                <path d="M81.7131025,112.165624 C73.0765348,114.524235 61.6909124,115.957447 49.2131025,115.957447 C22.221946,115.957447 0.341290421,109.251244 0.341290421,100.978723 C0.341290421,92.7062029 22.221946,86 49.2131025,86 C61.6909124,86 73.0765348,87.433212 81.7131025,89.7918227 C90.3496702,87.433212 101.735293,86 114.213103,86 C141.204259,86 163.084915,92.7062029 163.084915,100.978723 C163.084915,109.251244 141.204259,115.957447 114.213103,115.957447 C101.735293,115.957447 90.3496702,114.524235 81.7131025,112.165624 Z" id="Oval-33" fill-opacity="0.278051404" fill="#E1E2E2" sketch:type="MSShapeGroup"></path>
                <ellipse id="Oval-18" fill="#E1E2E2" sketch:type="MSShapeGroup" cx="48.6758641" cy="100.191489" rx="26.6758641" ry="8.19148936"></ellipse>
                <ellipse id="Oval-19" fill="#E1E2E2" sketch:type="MSShapeGroup" cx="113.675864" cy="100.191489" rx="26.6758641" ry="8.19148936"></ellipse>
                <path d="M112.895249,103.577253 C122.910906,103.577253 131.030201,101.152399 131.030201,98.1611897 C131.030201,96.4176265 137.208983,60.9648421 129.591795,45.5253909 C126.739944,39.7449088 113.25586,29.1923826 106.175782,26.1503904 C99.0957035,23.1083982 87.5208908,19.8641054 86.6689454,22.5429681 C86.3527837,23.5371089 94.1627409,30.6968772 97.9541016,33.8330078 C101.745462,36.9691385 105.706189,40.9912897 107.880859,43.6708987 C110.593144,47.0129519 112.712402,54.3512739 111.798829,60.9648421 C109.736094,75.8974593 94.7602959,96.4581652 94.7602959,98.1611897 C94.7602959,101.152399 102.879591,103.577253 112.895249,103.577253 Z" id="Oval-24" fill="#9EBEC9" sketch:type="MSShapeGroup"></path>
                <path d="M126.491802,101.745255 C129.31621,100.790297 131.030201,99.5355225 131.030201,98.1611897 C131.030201,96.7785867 134.915482,74.1992806 132.726012,57.2110099 C132.107422,66.277832 129.963867,86.4619141 126.491802,101.745255 Z" id="Oval-26" fill="#7BA6B4" sketch:type="MSShapeGroup"></path>
                <path d="M107.88086,41.9594735 C104.579506,37.0378305 95.3251953,27.4233398 87.0275103,23.362645 C88.5878923,25.5786239 94.7268541,31.1634992 97.9541016,33.8330078 C101.745462,36.9691385 105.706189,40.9912897 107.880859,43.6708987 C110.593144,47.0129519 109.028855,43.6708993 107.88086,41.9594735 Z" id="Oval-25" fill="#7BA6B4" sketch:type="MSShapeGroup"></path>
                <path d="M48.1349527,104.408266 C58.1506105,104.408266 66.2699054,101.983411 66.2699054,98.9922023 C66.2699054,98.4294097 82.6748047,77.8457046 84.3769531,63.0175796 C86.0791016,48.1894546 84.6962895,13.8056635 79.3515625,6.94921859 C75.603798,2.14142564 64.5066975,-1.98249493 54.0546875,10.8789066 C43.2265625,24.203125 61.9355467,27.1933593 58.4296875,53.1074219 C54.9238283,79.0214845 30,98.2455121 30,98.9922023 C30,101.983411 38.1192949,104.408266 48.1349527,104.408266 Z" id="Oval-21" fill="#9EBEC9" sketch:type="MSShapeGroup"></path>
                <path d="M56.1804213,103.847435 C56.1804213,103.847435 66.2699054,101.120464 66.2699054,98.9922023 C66.2699054,98.4294097 82.6748047,77.8457046 84.3769531,63.0175796 C86.0791016,48.1894546 84.6962895,13.8056635 79.3515625,6.94921859 C75.603798,2.14142564 64.5066975,-1.98249493 54.0546875,10.8789066 C43.2265625,24.203125 82.8574223,35.2314458 79.3515631,61.1455084 C75.8457039,87.059571 56.1804213,103.847435 56.1804213,103.847435 Z" id="Oval-23" fill="#7BA6B4" sketch:type="MSShapeGroup"></path>
                <path d="M54.2685547,45.9765625 C57.2958985,48.5791016 70.6636696,47.7304688 74.1201172,46.484375 C77.5765648,45.2382812 83.4072248,22.5068368 82.3095685,16.1249999 C81.2119123,9.74316299 81.7841779,4.89746073 75.8837892,2.15429682 C69.9834005,-0.588867094 58.3685569,0.127929665 53.8046875,2.15429688 C49.2408181,4.18066408 48.748047,10.109375 46.9550781,16.125 C45.1621093,22.140625 51.2412109,43.3740234 54.2685547,45.9765625 Z" id="Path-89" fill="#9EBEC9" sketch:type="MSShapeGroup"></path>
                <path d="M55.1416015,46.484375 C57.0598145,48.2468262 72.8854974,47.668457 74.1201172,46.484375 C75.354737,45.300293 74.1201174,45.733397 71.3505862,45.7333971 C68.5810549,45.7333971 61.404297,45.733397 59.0234376,45.733397 C56.6425781,45.733397 53.2233886,44.7219239 55.1416015,46.484375 Z" id="Path-90" fill="#7BA6B4" sketch:type="MSShapeGroup"></path>
                <rect id="Rectangle-420" fill="#FFFFFF" sketch:type="MSShapeGroup" x="43" y="16" width="19" height="9"></rect>
                <rect id="Rectangle-420" fill="#FFFFFF" sketch:type="MSShapeGroup" x="67" y="16" width="19" height="9"></rect>
                <path d="M84.9370117,16 L84.9370117,23.9111328 L68.1000977,23.9111328 L68.1000977,16 L60.6740723,16 L60.6740723,23.9111328 L44.1787109,23.9111328 L44.1787109,16 L42.9873047,16 L42.9873047,25 L62.097168,25 L62.097168,17.5444336 L67,17.5444336 L67,25 L86,25 L86,16 L84.9370117,16 Z" id="Rectangle-421" fill="#D2DEE6" sketch:type="MSShapeGroup"></path>
                <path d="M57.2506864,23.5828228 C57.9414214,23.5828228 58.5013728,22.5569229 58.5013728,21.2914114 C58.5013728,20.0258998 57.9414214,19 57.2506864,19 C56.5599514,19 56,20.0258998 56,21.2914114 C56,22.5569229 56.5599514,23.5828228 57.2506864,23.5828228 Z" id="Oval-21" fill="#6C93A0" sketch:type="MSShapeGroup"></path>
                <path d="M72.2506864,23.5828228 C72.9414214,23.5828228 73.5013728,22.5569229 73.5013728,21.2914114 C73.5013728,20.0258998 72.9414214,19 72.2506864,19 C71.5599514,19 71,20.0258998 71,21.2914114 C71,22.5569229 71.5599514,23.5828228 72.2506864,23.5828228 Z" id="Oval-22" fill="#6C93A0" sketch:type="MSShapeGroup"></path>
                <path d="M76.777768,4.06522833 L71.4232862,4.06522833 C69.6038001,4.06522833 68.4415234,5.51309356 68.8245859,7.28670545 L69.5537509,10.6628006 L76.777768,4.06522833 Z" id="Path-7" fill="#7BA6B4" sketch:type="MSShapeGroup" transform="translate(72.615327, 7.475493) rotate(-233.000000) translate(-72.615327, -7.475493) "></path>
                <path d="M60.4396807,3.91712763 L55.0851989,3.91712763 C53.2657128,3.91712763 52.1034361,5.36499286 52.4864987,7.13860475 L53.2156636,10.5146999 L60.4396807,3.91712763 Z" id="Path-7" fill="#7BA6B4" sketch:type="MSShapeGroup" transform="translate(56.277240, 7.327392) scale(-1, 1) rotate(-233.000000) translate(-56.277240, -7.327392) "></path>
                <path d="M58.3194783,41.0155017 C58.8950909,41.0155017 59.361717,40.5491836 59.361717,39.973951 C59.361717,39.3987185 58.8950909,38.9324004 58.3194783,38.9324004 C57.7438658,38.9324004 57.2772397,39.3987185 57.2772397,39.973951 C57.2772397,40.5491836 57.7438658,41.0155017 58.3194783,41.0155017 Z" id="Oval-28" fill="#7BA6B4" sketch:type="MSShapeGroup"></path>
                <path d="M70.3194783,41.0155017 C70.8950909,41.0155017 71.361717,40.5491836 71.361717,39.973951 C71.361717,39.3987185 70.8950909,38.9324004 70.3194783,38.9324004 C69.7438658,38.9324004 69.2772397,39.3987185 69.2772397,39.973951 C69.2772397,40.5491836 69.7438658,41.0155017 70.3194783,41.0155017 Z" id="Oval-29" fill="#7BA6B4" sketch:type="MSShapeGroup"></path>
            </g>
        </g>
    </g>
</svg>