<svg width="400" height="250" id="Layer_1" xmlns="http://www.w3.org/2000/svg" viewBox="0 0 400 184"><style>.st0{fill:#E9EFF4;} .st1{fill:#C8D7E2;} .st2{fill:none;} .st3{fill:#FFFFFF;} .st4{fill:#86A6BD;} .st5{fill:#00A9DE;} .st6{fill:#4E748F;}</style><title>No sites</title><path class="st0" d="M169.3 138.2c11-.6 22-.7 33-.8l16.5-.1h16.5l33 .2c11 .1 22 .2 33 .6.2 0 .4.2.4.4s-.2.4-.4.4c-11 .4-22 .5-33 .6l-33 .2h-16.5l-16.5-.1c-11-.1-22-.3-33-.8-.1 0-.2-.1-.2-.2.1-.3.1-.3.2-.4z"/><path class="st1" d="M268.8 129.4l-1.6-12.8-1.6-12.7-1.5-12.6-1.4-12.6.1.3-4.2-4.9.9-.1-2.6 5.7v-.3l2.8 25.5 2.6 25.5-.3-.2 6.8-.8zm.2.2l-6.8.9c-.2 0-.3-.1-.3-.2l-3-25.4-2.9-25.5v-.3l2.6-5.7c.1-.3.5-.4.7-.3.1 0 .1.1.2.2l4.1 4.9c.1.1.1.2.1.3l1.4 12.8 1.3 12.8 1.3 12.8 1.3 12.7z"/><path class="st1" d="M263 78.9c-.2.7-.6 1.2-1 1.7-.1.2-.4.2-.6.1h-.1c-.5-.3-1-.6-1.5-1l.8-.1c-.5.5-.9 1-1.5 1.5l-.1.1c-.2.1-.4.1-.6 0l-1.6-1.5c-.1-.1-.1-.2 0-.3.1-.1.2-.1.2 0l1.9 1-.7.1c.4-.6.9-1.1 1.4-1.6.2-.2.5-.2.8-.1.5.3.9.7 1.4 1.1l-.7.1c.5-.5 1-.9 1.6-1.2.2-.1.3-.1.3.1 0-.1 0-.1 0 0zM257.8 76.4s1.8.3 3.1-.6l-1.8-2.2-1.3 2.8z"/><g><path class="st1" d="M274.1 122.9c.9 0 1.7-.3 2.3-.8.6-.6 1-1.4 1-2.2l-.1-5.3-.1-10.6V88.1c.1-1.6-1.2-2.9-2.7-2.9-.8-.1-1.5.2-2.1.7-.6.5-.9 1.2-.9 1.9V103.7l-.1 10.6-.1 5.3c0 .8.2 1.6.8 2.2.5.6 1.3 1 2.2 1v.1zm0 .3c-.9 0-1.9-.4-2.5-1.1-.7-.7-1-1.7-1-2.6l-.1-5.3-.1-10.6V87.7c0-1 .5-2 1.3-2.7.4-.3.8-.6 1.3-.8.5-.2 1.1-.2 1.5-.2 1 0 2.1.4 2.8 1.2.7.7 1.1 1.8 1 2.8V103.9l-.1 10.6-.1 5.3c-.1 1-.5 1.9-1.2 2.4-.9.7-1.9 1-2.8 1z"/><path class="st1" d="M273.5 84.2c1.3.1 2.3-.7 2.8-1.8.5-1 .6-2.3.5-3.5-.1-1.2-.5-2.4-1-3.4-.5-1.1-1.3-2.1-2-3l.9-.1c-.8 1.7-1.7 3.3-2.3 5-.3.8-.6 1.7-.7 2.6-.1.9 0 1.8.5 2.5v.2h-.2c-.8-.7-1-1.8-1-2.7 0-1 .3-1.9.5-2.9.6-1.8 1.4-3.5 2.2-5.2.1-.3.5-.4.7-.3.1 0 .1.1.2.1 1.8 1.9 3 4.4 3.3 7.1.1 1.3-.1 2.7-.8 3.9-.4.6-.9 1.1-1.5 1.4-.6.3-1.4.3-2 .2-.1 0-.1-.1-.1-.1-.1 0-.1 0 0 0z"/><path class="st1" d="M277.3 78c-.4.4-.9.6-1.4.6-.5.1-1.2 0-1.6-.3-.5-.3-.8-.5-1.2-.7-.4-.2-.8-.2-1.2-.4-.1 0-.2-.2-.1-.3 0-.1.1-.1.1-.1.5-.2 1-.3 1.6-.2.6.1 1 .4 1.4.6.4.2.7.3 1.1.3.4 0 .9 0 1.4.2-.1.2 0 .2-.1.3z"/></g><g><path class="st3" d="M287.7 106.1l-2.4 36.7c-.2 3.2-3.1 5.7-6.7 5.7H264c-3.6 0-6.5-2.6-6.7-5.9l-1.4-36.5h25.6"/><path class="st1" d="M287.8 106.1c-.4 8.9-.9 17.9-1.4 26.8l-.4 6.7-.2 3.4c-.1 1.2-.6 2.4-1.3 3.3-1.5 1.9-4 2.9-6.3 2.7h-13.4c-2.3.1-4.9-.7-6.4-2.7-.8-1-1.3-2.1-1.4-3.4-.1-1.2-.1-2.3-.1-3.4l-.2-6.7-.9-26.8c0-.2.2-.4.4-.5l12.8.1c4.3 0 8.5.1 12.8.1.1 0 .2.1.2.2s-.1.2-.2.2c-4.3.1-8.5.1-12.8.1l-12.8.1.4-.5 1.1 26.8.3 6.7c.1 1.1.1 2.3.2 3.3s.5 2 1.2 2.8c.6.8 1.5 1.4 2.4 1.8 1 .4 2 .5 3.1.5h13.4c2.1.1 4.2-.7 5.5-2.3.6-.8 1-1.8 1.1-2.8l.2-3.3.5-6.7c.6-8.9 1.3-17.8 2.1-26.8 0-.1.1-.1.1-.1v.4z"/></g><g><path class="st1" d="M262.2 113.2c.4 1.5.6 3.1.7 4.7.1 1.6.3 3.1.4 4.7.2 3.1.4 6.2.3 9.4 0 .1-.1.2-.2.2s-.2-.1-.2-.2c-.6-3.1-.7-6.2-1-9.3-.1-1.6-.2-3.1-.3-4.7-.1-1.6-.1-3.1.1-4.7 0-.2.1-.2.2-.1 0-.1 0-.1 0 0z"/></g><g><path class="st4" d="M131.6 96.3l-.4-32.7-.1-16.4c0-1.5.4-3 1.2-4.3.8-1.3 2-2.3 3.4-2.9.7-.3 1.5-.5 2.2-.5.8-.1 1.4 0 2.1 0h4.1l32.7-.1 32.7-.1H238.2c1.4-.1 3.2.3 4.5 1.2 1.4.8 2.4 2.1 3.1 3.5.3.7.6 1.5.6 2.3.1.4.1.8.1 1.2V73.1l-.1 65.5c0 .6-.5 1.1-1.1 1.1l-39.8-.2-19.9-.2c-6.6-.1-13.3-.2-19.9-.3-.2 0-.4-.2-.4-.4s.2-.4.4-.4c6.6-.1 13.3-.3 19.9-.3l19.9-.2 39.8-.2-1.1 1.1-.1-65.5V47.5c0-.3 0-.6-.1-.9-.1-.6-.2-1.1-.5-1.7-.5-1-1.3-2-2.2-2.6-.5-.3-1-.5-1.6-.7-.3-.1-.6-.1-.8-.1H209.3l-32.7-.1-32.7-.1h-6.1c-.6.1-1.2.2-1.7.4-2.3.9-3.8 3.2-3.8 5.7l-.1 16.4-.2 32.5c0 .1-.1.2-.2.2s-.2-.1-.2-.2z"/></g><path class="st5" d="M130.7 58.4V47c0-4.5 3.1-8.2 6.9-8.2h102c3.8 0 6.9 3.7 6.9 8.2v11.4H130.7z"/><g><path class="st6" d="M249.7 58.4c-10.1.8-20.3.7-30.4.8l-30.4.1-30.4-.1c-10.1 0-20.3 0-30.4-.8v-.5c10.1-.8 20.3-.7 30.4-.8l30.4-.1 30.4.1c10.1 0 20.3 0 30.4.8v.5z"/></g><g><path class="st3" d="M115.9 108.6l3.1-4c.9-1.2 2.4-1.9 3.9-1.9h9.7c1.5 0 3 .7 3.9 2l2.9 4"/><path class="st1" d="M115.9 108.5c.6-1 1.3-2 2-3 .3-.5.7-1 1.1-1.5.4-.5.9-.9 1.5-1.3.6-.3 1.2-.5 1.9-.6.7-.1 1.2 0 1.9-.1h9.1c.7.1 1.3.3 1.9.6.6.3 1.1.7 1.5 1.2.4.5.7 1 1.1 1.5.7 1 1.3 2 2 3 .1.1 0 .2-.1.3-.1.1-.2 0-.3 0-.8-.9-1.5-1.8-2.3-2.8-.4-.4-.8-1-1.1-1.4-.4-.4-.8-.7-1.3-1-.5-.2-1-.4-1.5-.4h-10.6c-.5.1-1.1.2-1.5.5-.5.2-.9.6-1.3 1s-.7.9-1.1 1.4l-2.4 2.7h-.1c-.5 0-.5-.1-.4-.1z"/><path class="st1" d="M125.2 102.6c-.1-.2-.2-.5-.3-.7 0-.1-.1-.2-.1-.2l-.1-.1c-.1-.1-.2-.1-.2-.1h-.7c-.2 0-.3.1-.4.3 0 .2 0 .5.5.6.1 0 .2.2.1.3 0 .1-.1.1-.1.1-.2.1-.6.1-.9-.1-.3-.2-.5-.5-.6-.9 0-.4.1-.8.3-1 .2-.3.7-.4 1-.4h.7c.4 0 .7.2 1 .5.1.2.2.3.2.5v.5c-.1.2-.2.5-.3.7 0 .1 0 .1-.1 0zM132.5 102.6c-.1-.2-.2-.5-.3-.7 0-.1-.1-.2-.1-.2l-.1-.1c-.1-.1-.2-.1-.2-.1h-.7c-.2 0-.3.1-.4.3 0 .2 0 .5.5.6.1 0 .2.2.1.3 0 .1-.1.1-.1.1-.2.1-.6.1-.9-.1-.3-.2-.5-.5-.6-.9 0-.4.1-.8.3-1 .2-.3.7-.4 1-.4h.7c.4 0 .7.2 1 .5.1.2.2.3.2.5v.5c-.1.2-.2.5-.3.7.1.1 0 .1-.1 0 .1 0 .1 0 0 0z"/><path class="st3" d="M146.9 143.9H98.8c-3.2 0-5.9-2.6-5.9-5.9v-23.6c0-3.2 2.6-5.9 5.9-5.9h48.1c3.2 0 5.9 2.6 5.9 5.9V138c-.1 3.3-2.7 5.9-5.9 5.9z"/><path class="st1" d="M146.9 144l-11.3.2-11.3.1-22.5.2H99c-1 0-2-.2-2.9-.6-1.8-.9-3.2-2.7-3.5-4.7-.1-1-.1-1.9-.1-2.9V115.2c0-.5 0-1 .1-1.5.1-1 .5-2 1.1-2.8 1.2-1.7 3.2-2.7 5.2-2.7h47.9c1 0 2 .2 2.9.6 1.8.9 3.2 2.7 3.5 4.7.1 1 .1 1.9.1 2.9V124.8L153 136c0 .9 0 1.9-.1 2.8-.1 1-.5 1.9-1.1 2.7-1.1 1.7-3 2.6-4.9 2.5zm0-.3c1.8 0 3.6-.9 4.6-2.4.5-.7.8-1.6.9-2.5.1-.9 0-1.9 0-2.8l-.1-11.3V116.3c0-.9 0-1.9-.1-2.7-.3-1.7-1.5-3.3-3-4-.8-.4-1.6-.5-2.5-.5H98.8c-1.7 0-3.4.9-4.4 2.3-.5.7-.8 1.5-.9 2.4-.1.4-.1.9-.1 1.3v21.1c0 .9 0 1.9.1 2.7.3 1.7 1.4 3.2 3 4 .8.4 1.6.6 2.5.5h2.8l22.5.2 11.3.1h11.3z"/><path class="st3" d="M144.3 130.1c-1.4 5.8-6.6 10.2-12.8 10.2-7.3 0-13.2-5.9-13.2-13.2 0-7.3 5.9-13.2 13.2-13.2 7.3 0 13.2 5.9 13.2 13.2 0 .5 0 1-.1 1.5"/><path class="st1" d="M144.4 130.1c-.7 3.4-2.7 6.5-5.6 8.4-2.9 1.9-6.6 2.7-10 2-3.5-.7-6.6-2.8-8.6-5.7-2-2.9-2.8-6.6-2.2-10.1.6-3.5 2.6-6.7 5.5-8.7 2.8-2.1 6.5-3 10-2.4 3.5.5 6.7 2.4 8.8 5.2 1 1.4 1.8 3 2.3 4.7.4 1.7.5 3.4.3 5.1 0 .1-.1.2-.2.2s-.2-.1-.2-.2c.3-3.3-.7-6.7-2.8-9.3-2-2.6-5.1-4.3-8.3-4.7-3.2-.4-6.6.4-9.2 2.3-2.6 1.9-4.5 4.9-5 8.1-.6 3.2.1 6.6 2 9.3 1.8 2.7 4.7 4.6 7.9 5.3 3.2.7 6.6.1 9.4-1.7 1.4-.8 2.6-2 3.6-3.3 1-1.3 1.8-2.8 2.2-4.5 0-.1.1-.1.1-.1v.1z"/><path class="st1" d="M140 129.9c-.6 2.2-2.1 4.1-4 5.3-2 1.2-4.4 1.5-6.7 1s-4.3-2-5.6-3.9c-1.3-1.9-1.8-4.4-1.5-6.7.4-2.3 1.7-4.5 3.5-5.9 1.8-1.4 4.2-2.2 6.5-1.9 2.3.2 4.5 1.3 6.1 3 1.5 1.7 2.4 4 2.3 6.3 0 .1-.1.2-.2.2s-.2-.1-.2-.2c-.1-2.2-1-4.2-2.4-5.7-1.5-1.5-3.5-2.5-5.6-2.6-2.1-.2-4.2.5-5.8 1.8-1.6 1.3-2.7 3.2-3 5.2-.3 2 .1 4.2 1.2 5.9 1.1 1.7 2.9 3 5 3.5 2 .5 4.2.3 6.1-.7 1.9-1 3.4-2.6 4.2-4.7 0-.1.1-.1.1-.1v.2z"/><path class="st3" d="M108.9 143.9H95.4c-1.4 0-2.5-1.1-2.5-2.5v-26.8c0-5.1 4.1-9.2 9.2-9.2h.9c4.6 0 8.4 3.8 8.4 8.4v27.6c0 1.4-1.1 2.5-2.5 2.5z"/><path class="st1" d="M108.9 144c-4.3.1-8.7.2-13 .3-.5 0-1.2 0-1.8-.3-.6-.3-1-.8-1.3-1.3-.3-.6-.3-1.3-.3-1.8v-1.6l-.1-6.5v-16.3c0-1.1-.1-2.2.1-3.3.3-2.3 1.5-4.4 3.3-5.9 1.7-1.5 4-2.3 6.3-2.4 1.1 0 2.3 0 3.4.4 1.1.3 2.2.9 3.1 1.6 1.8 1.4 3 3.6 3.3 5.9.1 1.2.1 2.2.1 3.3v3.3l-.1 13-.1 6.5v1.6c0 .5 0 1.1-.1 1.7-.5 1.1-1.6 2-2.8 1.8zm0-.3c1 0 1.9-.7 2.2-1.7.1-.5 0-1 .1-1.6v-1.6l-.1-6.5-.1-13V116c0-1.1 0-2.2-.1-3.2-.2-2-1.3-3.9-2.9-5.2-.8-.6-1.7-1.1-2.7-1.4-1-.3-2-.3-3.1-.3-2 0-4.1.8-5.6 2.1s-2.6 3.2-2.9 5.2c-.2 1-.1 2.1-.1 3.2v16.3l-.1 6.5v1.6c0 .6 0 1 .2 1.4.2.4.5.8.9 1 .4.2.8.3 1.4.3 4.2.1 8.6.2 12.9.2zM145.6 138.2c.4-.3 1.1 0 1.3.5.3.5.2 1.2-.3 1.6-.4.4-1.1.5-1.6.3s-.8-.9-.6-1.3c0-.1.2-.2.3-.1 0 0 .1 0 .1.1.4.5.8.5 1 .3.1-.1.2-.3.1-.4 0-.2-.1-.4-.4-.7 0-.2 0-.2.1-.3z"/><g><path class="st1" d="M120.7 115.4c-1.3.3-2.7.4-4 .4h-1.6c-.3 0-.6-.2-.8-.5-.2-.3-.2-.7-.2-.8v-1.3-.3c0-.3.2-.6.5-.8.2-.2.7-.2.8-.2h4.5c.1 0 .5 0 .7.2.2.2.4.4.4.7v.6c0 .3-.1.7-.1 1 0 .1-.1.2-.2.2s-.2-.1-.2-.2c0-.3-.1-.7-.1-1v-.4c0-.1-.1-.1-.1-.1h-5v1.6h1.5c1.3 0 2.7.1 4 .4-.1.3 0 .3-.1.5 0-.1 0-.1 0 0z"/></g><g><path class="st1" d="M94.8 108.1c.8-.1 1.7 0 2.5.4s1.3 1.1 1.8 1.7c.5.6 1 1.1 1.6 1.4.6.3 1.3.4 2.1.4.7 0 1.5-.1 2.1-.4.7-.3 1.2-.8 1.8-1.3.6-.5 1.2-1.2 2-1.6.8-.4 1.7-.6 2.5-.5.1 0 .2.1.2.2s-.1.2-.2.2c-.8.1-1.5.3-2.1.7-.6.4-1.1 1-1.7 1.6-.6.6-1.2 1.2-2 1.6-.8.4-1.7.6-2.5.6-.9 0-1.8-.1-2.6-.5s-1.4-1.1-1.9-1.8c-.5-.6-.9-1.3-1.5-1.7-.5-.5-1.3-.7-2.1-.9-.1.1-.1.1 0-.1-.1.1 0 .1 0 0z"/></g><g><path class="st1" d="M152.8 113.9c.3 1.9-.3 3.8-.9 5.5-.7 1.7-1.1 3.4-1.1 5.2-.1 1.8.3 3.5 1 5.1.3.9.7 1.7.9 2.7.2.9.3 1.9.2 2.8 0 .1-.1.2-.2.2s-.2-.1-.2-.2c-.1-.9-.3-1.8-.6-2.6s-.7-1.7-1.1-2.5c-.8-1.7-1.3-3.6-1.3-5.5 0-1 .1-1.9.4-2.9.2-.9.6-1.8.9-2.7.4-.9.7-1.7 1-2.5.3-.8.5-1.7.6-2.6.2-.1.3-.1.4 0 0-.1 0-.1 0 0z"/></g><g><path class="st1" d="M93 120c.1 2.2-.2 4.4-.9 6.5-.7 2.1-1.9 4-3.5 5.6-1.6 1.6-3.4 2.8-5.2 4-1.8 1.2-3.5 2.5-4.4 4.4-.9 1.8-.8 4.1-.1 5.9.7 1.9 2.3 3.3 4.2 4.2 1.9.9 4 1.4 6.1 1.7 2.1.3 4.3.4 6.4.4 8.6 0 17.2-1.3 25.7-2.9 8.5-1.6 16.9-3.7 25.3-6 .1 0 .2 0 .2.1s0 .2-.1.2c-4.1 1.3-8.3 2.5-12.5 3.6-4.2 1.1-8.4 2.1-12.7 3-4.3.9-8.6 1.6-12.9 2.2-4.3.6-8.7.9-13.1.9-2.2 0-4.4-.1-6.6-.4-2.2-.3-4.4-.8-6.4-1.8s-3.9-2.6-4.7-4.8c-.4-1.1-.6-2.2-.6-3.4 0-1.1.2-2.3.7-3.4 1-2.1 3-3.5 4.8-4.7 1.8-1.2 3.6-2.4 5.2-3.8 1.5-1.5 2.8-3.2 3.5-5.2.8-2 1.1-4.2 1.2-6.3.2-.1.3-.1.4 0 0-.1 0-.1 0 0z"/></g></g><path class="st5" d="M188.7 70.8c-15 0-27.3 12.2-27.3 27.3 0 15 12.2 27.3 27.3 27.3 15 0 27.3-12.2 27.3-27.3 0-15.1-12.3-27.3-27.3-27.3zM164.2 98c0-3.6.8-6.9 2.1-10l11.7 32c-8.2-3.9-13.8-12.3-13.8-22zm24.5 24.6c-2.4 0-4.7-.4-6.9-1l7.4-21.4 7.5 20.6c0 .1.1.2.2.3-2.6 1-5.3 1.5-8.2 1.5zm3.4-36.1c1.5-.1 2.8-.2 2.8-.2 1.3-.2 1.2-2.1-.2-2 0 0-4 .3-6.5.3-2.4 0-6.5-.3-6.5-.3-1.3-.1-1.5 1.9-.2 2 0 0 1.3.2 2.6.2L188 97l-5.4 16.1-8.9-26.6c1.5-.1 2.8-.2 2.8-.2 1.3-.2 1.2-2.1-.2-2 0 0-4 .3-6.5.3h-1.6c4.4-6.7 11.9-11.1 20.5-11.1 6.4 0 12.2 2.4 16.6 6.4h-.3c-2.4 0-4.1 2.1-4.1 4.4 0 2 1.2 3.7 2.4 5.7.9 1.6 2 3.7 2 6.8 0 2.1-.6 4.7-1.9 7.9l-2.4 8.2-8.9-26.4zm8.9 32.7l7.5-21.7c1.4-3.5 1.9-6.3 1.9-8.8 0-.9-.1-1.7-.2-2.5 1.9 3.5 3 7.5 3 11.8 0 9.1-4.9 17-12.2 21.2z"/></svg>
