<?xml version="1.0" encoding="UTF-8" standalone="no"?>
<svg width="400px" height="250px" viewBox="0 0 400 250" version="1.1" xmlns="http://www.w3.org/2000/svg" xmlns:xlink="http://www.w3.org/1999/xlink" xmlns:sketch="http://www.bohemiancoding.com/sketch/ns">
    <!-- Generator: Sketch 3.2.2 (9983) - http://www.bohemiancoding.com/sketch -->
    <title>drake-404</title>
    <desc>Created with Sketch.</desc>
    <defs></defs>
    <g id="Page-1" stroke="none" stroke-width="1" fill="none" fill-rule="evenodd" sketch:type="MSPage">
        <g id="drake-404" sketch:type="MSArtboardGroup">
            <g id="Group" sketch:type="MSLayerGroup" transform="translate(116.000000, 104.000000)">
                <path d="M84,117.731919 C75.1605294,120.432177 62.9663095,122.101464 49.5,122.101464 C22.5088435,122.101464 0.628187919,115.395261 0.628187919,107.12274 C0.628187919,98.8502199 22.5088435,92.144017 49.5,92.144017 C62.9663095,92.144017 75.1605294,93.8133035 84,96.513562 C92.8394706,93.8133035 105.033691,92.144017 118.5,92.144017 C145.491157,92.144017 167.371812,98.8502199 167.371812,107.12274 C167.371812,115.395261 145.491157,122.101464 118.5,122.101464 C105.033691,122.101464 92.8394706,120.432177 84,117.731919 Z" id="Oval-32" fill-opacity="0.278051404" fill="#D5E5EB" sketch:type="MSShapeGroup"></path>
                <path d="M78.0064752,1.82123359 L72.6519935,1.82123359 C70.8325074,1.82123359 69.6702306,3.26909882 70.0532932,5.04271071 L70.7824581,8.41880585 L78.0064752,1.82123359 Z" id="Path-6" fill="#7BA6B4" sketch:type="MSShapeGroup" transform="translate(73.844034, 5.231498) rotate(35.000000) translate(-73.844034, -5.231498) "></path>
                <ellipse id="Oval-16" fill="#D5E5EB" sketch:type="MSShapeGroup" cx="48.4627616" cy="105.952528" rx="26.6758641" ry="8.19148936"></ellipse>
                <ellipse id="Oval-17" fill="#D5E5EB" sketch:type="MSShapeGroup" cx="117.462762" cy="105.952528" rx="26.6758641" ry="8.19148936"></ellipse>
                <g transform="translate(132.286897, 38.731498) rotate(5.000000) translate(-132.286897, -38.731498) translate(118.786897, 4.731498)" sketch:type="MSShapeGroup">
                    <path d="M14.2385236,41.5599976 L11.4273646,41.5599976 L9.11772626,40.7560825 L9.11772626,66.7821747 L11.4273646,67.3939945 L14.2385236,67.3939945 L16.2940384,66.7821747 L16.2940384,40.7560825 L14.2385236,41.5599976 Z" id="Rectangle-313" fill="#0087BE"></path>
                    <path d="M11.4003982,41.5262991 L9.09075984,40.722384 L9.09075984,66.7484762 L11.4003982,67.3602961 L11.4003982,41.5262991 Z" id="Rectangle-314" fill-opacity="0.2" fill="#005082"></path>
                    <path d="M14.2385236,39.1652209 L11.4273646,39.1652209 L9.11772626,39.9613059 L9.11772626,41.187398 L11.4273646,41.7992179 L14.2385236,41.7992179 L16.2940384,41.187398 L16.2940384,39.9613059 L14.2385236,39.1652209 Z" id="Rectangle-318" fill="#00AADC"></path>
                    <path d="M13.7625603,37.0449107 L11.8947744,37.0449107 L10.1176867,36.4678576 L10.1176867,40.0409037 L11.784476,40.4822194 L13.8132215,40.4432043 L15.294078,40.0409037 L15.294078,36.4678576 L13.7625603,37.0449107 Z" id="Rectangle-315" fill="#0087BE"></path>
                    <path d="M11.282388,37.2 C13.240821,37.2 13.4778441,37.1536678 15.294078,37.1481857 C9.10787055,33.4355893 6.3013161,25.7205647 6.3013161,18.7996533 C6.3013161,13.4873112 8.41689514,4.57784214 14.3371042,0.399306595 C12.4580544,0.393785552 14.2127324,0.399306595 11.282388,0.399306595 C5.14228109,0.399306595 0.164740959,8.63742242 0.164740959,18.7996533 C0.164740959,28.9618842 5.14228109,37.2 11.282388,37.2 Z" id="Oval-102" fill="#00AADC"></path>
                    <path d="M14.4365658,37.2 C20.5766727,37.2 25.5542128,28.9618842 25.5542128,18.7996533 C25.5542128,8.63742242 20.5766727,0.399306595 14.4365658,0.399306595 C8.29645885,0.399306595 3.31891871,8.63742242 3.31891871,18.7996533 C3.31891871,28.9618842 8.29645885,37.2 14.4365658,37.2 Z" id="Oval-102" fill-opacity="0.278051404" fill="#D5E5EB"></path>
                    <path d="M22.4000351,37.2 C24.358468,37.2 24.5954912,37.1536678 26.4117251,37.1481857 C20.2255176,33.4355893 17.4189632,25.7205647 17.4189632,18.7996533 C17.4189632,13.4873112 19.5345422,4.57784214 25.4547513,0.399306595 C23.5757014,0.393785552 25.3303794,0.399306595 22.4000351,0.399306595 C16.2599282,0.399306595 11.282388,8.63742242 11.282388,18.7996533 C11.282388,28.9618842 16.2599282,37.2 22.4000351,37.2 Z" id="Oval-103" fill="#0087BE" transform="translate(18.847057, 18.798426) scale(-1, 1) translate(-18.847057, -18.798426) "></path>
                </g>
                <path d="M116.478757,110.499489 C126.494415,110.499489 134.613709,108.074635 134.613709,105.083426 C134.613709,103.339862 161.83813,73.7238509 152.385006,59.0500231 C149.120251,53.9822334 146.420162,51.7475328 139.340084,48.7055406 C132.260006,45.6635484 117.330702,50.8440604 116.478757,53.5229231 C116.162595,54.5170639 115.125873,55.9138925 118.917233,59.0500231 C122.708594,62.1861538 128.991587,59.5435095 131.166257,62.2231186 C133.878542,65.5651717 132.429505,69.3988998 130.222898,74.976048 C127.448581,81.9880723 98.343804,103.380401 98.343804,105.083426 C98.343804,108.074635 106.463099,110.499489 116.478757,110.499489 Z" id="Oval-23" fill="#9EBEC9" sketch:type="MSShapeGroup"></path>
                <path d="M118.920855,51.4683097 C117.56545,52.1983406 116.669452,52.9233007 116.478757,53.5229231 C116.162595,54.5170639 115.125873,55.9138925 118.917233,59.0500231 C120.654655,60.4871807 122.915322,60.7107922 125.064089,60.7891594 C122.310335,58.8012436 116.276155,57.2817123 118.920855,51.4683097 Z" id="Oval-29" fill="#7BA6B4" sketch:type="MSShapeGroup"></path>
                <path d="M106.100518,109.525493 C106.606233,99.5004623 128.213134,88.8442121 135.081818,71.2914777 C137.43468,65.2788045 128.991587,59.5435095 131.166257,62.2231186 C133.878542,65.5651717 132.429505,69.3988998 130.222898,74.976048 C127.448581,81.9880723 98.343804,103.380401 98.343804,105.083426 C98.343804,106.921903 101.411,108.546431 106.100518,109.525493 Z" id="Oval-28" fill="#7BA6B4" sketch:type="MSShapeGroup"></path>
                <path d="M46.9218502,110.552283 C56.937508,110.552283 66.0568029,108.127428 66.0568029,105.136219 C66.0568029,104.573427 59.9222659,73.8686242 62.0144366,62.644016 C64.1066073,51.4194078 68.2263506,35.2231186 80.2868975,32.0756576 C85.3226643,30.7614652 101.471043,39.4917282 105.235691,33.8481189 C108.507345,28.9435613 107.162794,23.4908763 106.516938,21.4897202 C104.41733,19.0688217 90.1909879,-0.571618603 71.8533021,5.41354857 C51.9861163,11.8979234 43.2664045,31.1738201 38.0701006,46.0112061 C28.2927566,73.9291711 29.7868975,104.389529 29.7868975,105.136219 C29.7868975,108.127428 36.9061924,110.552283 46.9218502,110.552283 Z" id="Oval-19" fill="#9EBEC9" sketch:type="MSShapeGroup"></path>
                <path d="M39.1429748,110.001505 C31.9763506,79.666478 34.7077959,54.2397201 48.3531651,24.1932322 C43.6564587,31.2726366 40.48332,39.1205645 38.0701006,46.0112061 C28.2927566,73.9291711 29.7868975,104.389529 29.7868975,105.136219 C29.7868975,107.272569 33.4184155,109.120024 39.1429748,110.001505 Z" id="Oval-27" fill="#7BA6B4" sketch:type="MSShapeGroup"></path>
                <path d="M65.3484635,49.3995732 C68.1130163,41.4309906 72.5777054,34.0875383 80.2868975,32.0756576 C85.3226643,30.7614652 101.471043,39.4917282 105.235691,33.8481189 C106.98553,31.2249249 101.363069,33.7944068 95.1374834,30.159642 C88.9118975,26.5248772 84.9732446,24.6271643 78.0076006,28.4408929 C70.216585,32.706517 67.4275225,38.9965561 65.3484635,49.3995732 Z" id="Oval-24" fill="#7BA6B4" sketch:type="MSShapeGroup"></path>
                <ellipse id="Oval-26" fill="#7BA6B4" sketch:type="MSShapeGroup" cx="102.895113" cy="20.4133097" rx="1.04223866" ry="1.04155063"></ellipse>
                <ellipse id="Oval-21" fill="#6C93A0" sketch:type="MSShapeGroup" transform="translate(92.986025, 12.233354) rotate(-21.000000) translate(-92.986025, -12.233354) " cx="92.7367112" cy="12.0247657" rx="1.25068639" ry="2.29141138"></ellipse>
                <path d="M88.3184068,6.82308968 L82.9639251,6.82308968 C81.144439,6.82308967 79.9821623,8.27095491 80.3652248,10.0445668 L81.0943897,13.4206619 L88.3184068,6.82308968 Z" id="Path-5" fill="#7BA6B4" sketch:type="MSShapeGroup" transform="translate(84.155966, 10.233354) rotate(35.000000) translate(-84.155966, -10.233354) "></path>
                <path d="M127.507878,71.9914411 L130.319037,71.9914411 L132.374552,71.3796212 L132.374552,66.727443 L127.507878,71.9914411 Z" id="Rectangle-319" fill="#0087BE" sketch:type="MSShapeGroup" transform="translate(129.941215, 69.359442) rotate(5.000000) translate(-129.941215, -69.359442) "></path>
            </g>
        </g>
    </g>
</svg>