<?xml version="1.0" encoding="UTF-8" standalone="no"?>
<svg width="400px" height="250px" viewBox="0 0 400 250" version="1.1" xmlns="http://www.w3.org/2000/svg" xmlns:xlink="http://www.w3.org/1999/xlink" xmlns:sketch="http://www.bohemiancoding.com/sketch/ns">
    <!-- Generator: Sketch 3.2.2 (9983) - http://www.bohemiancoding.com/sketch -->
    <title>drake-nomenus</title>
    <desc>Created with Sketch.</desc>
    <defs></defs>
    <g id="Page-1" stroke="none" stroke-width="1" fill="none" fill-rule="evenodd" sketch:type="MSPage">
        <g id="drake-nomenus" sketch:type="MSArtboardGroup">
            <g id="Group" sketch:type="MSLayerGroup" transform="translate(121.000000, 84.000000)">
                <path d="M79,138.699969 C70.7743808,140.628203 60.4917955,141.77376 49.3362318,141.77376 C22.3450753,141.77376 0.464419729,135.067557 0.464419729,126.795037 C0.464419729,118.522516 22.3450753,111.816313 49.3362318,111.816313 C60.4917955,111.816313 70.7743808,112.96187 79,114.890104 C87.2256192,112.96187 97.5082045,111.816313 108.663768,111.816313 C135.654925,111.816313 157.53558,118.522516 157.53558,126.795037 C157.53558,135.067557 135.654925,141.77376 108.663768,141.77376 C97.5082045,141.77376 87.2256192,140.628203 79,138.699969 Z" id="Oval-32" fill-opacity="0.278051404" fill="#D5E5EB" sketch:type="MSShapeGroup"></path>
                <ellipse id="Oval-16" fill="#D5E5EB" sketch:type="MSShapeGroup" transform="translate(103.961217, 125.985764) scale(-1, 1) translate(-103.961217, -125.985764) " cx="99.9751679" cy="125.985764" rx="26.6758641" ry="8.19148936"></ellipse>
                <g transform="translate(72.000000, 0.000000)" sketch:type="MSShapeGroup">
                    <path d="M38.0476534,130.816313 C48.0633112,130.816313 56.1826061,128.391459 56.1826061,125.40025 C56.1826061,124.837458 80.3804517,77.0639758 80.3804517,41.6225676 C80.3804517,6.18115946 53.1875005,-3.25890088 35.960938,1.28797419 C23.3444396,4.61804322 11.4957022,9.55182467 11.1089691,15.2636789 C10.2628684,27.7601643 36.2424365,33.1427033 38.0476547,31.0229562 C49.4480448,17.6362399 53.1035963,36.6450265 47.3428541,60.7514718 C41.5821119,84.8579171 19.9127006,124.65356 19.9127006,125.40025 C19.9127006,128.391459 28.0319955,130.816313 38.0476534,130.816313 Z" id="Oval-31" fill="#9EBEC9"></path>
                    <path d="M30.8582595,130.374033 C34.4795746,101.778816 46.9248867,90.9858475 51.6582851,65.853035 C56.3916836,40.7202225 55.4207299,32.3493331 51.6582851,26.9194413 C49.9395351,24.4389725 42.8868012,20.5405351 38.0476547,31.0229562 C49.7618016,17.6069412 53.1035963,36.6450265 47.3428541,60.7514718 C41.5821119,84.8579171 19.9127006,124.65356 19.9127006,125.40025 C19.9127006,127.628639 24.4188635,129.542705 30.8582595,130.374033 Z" id="Oval-34" fill="#7BA6B4"></path>
                    <path d="M0.93809231,52.6687688 C3.96543609,55.2713078 13.8537156,58.7634953 17.3101632,57.5174016 C20.7666108,56.2713078 38.9546945,36.1922044 38.9546945,29.1922044 C38.9546945,22.1922044 41.0084054,15.9002126 32.0943429,13.4002126 C23.1802804,10.9002126 21.3511788,10.6150563 17.3101632,11.8474783 C13.2691476,13.0799002 10.1148501,13.8298998 8.32188124,19.8455248 C6.5289124,25.8611498 -2.08925147,50.0662297 0.93809231,52.6687688 Z" id="Path-89" fill="#9EBEC9"></path>
                    <ellipse id="Oval-24" fill="#6C93A0" cx="9.6837977" cy="31.3516353" rx="1.25068639" ry="2.29141138"></ellipse>
                    <ellipse id="Oval-25" fill="#6C93A0" transform="translate(22.799304, 33.637996) rotate(18.000000) translate(-22.799304, -33.637996) " cx="22.5499902" cy="33.429407" rx="1.25068639" ry="2.29141138"></ellipse>
                    <path d="M6.34154247,50.2210969 C6.91715498,50.2210969 7.38378113,49.7547788 7.38378113,49.1795462 C7.38378113,48.6043137 6.91715498,48.1379956 6.34154247,48.1379956 C5.76592995,48.1379956 5.2993038,48.6043137 5.2993038,49.1795462 C5.2993038,49.7547788 5.76592995,50.2210969 6.34154247,50.2210969 Z" id="Oval-29" fill="#7BA6B4"></path>
                    <path d="M14.3415425,52.2210969 C14.917155,52.2210969 15.3837811,51.7547788 15.3837811,51.1795462 C15.3837811,50.6043137 14.917155,50.1379956 14.3415425,50.1379956 C13.7659299,50.1379956 13.2993038,50.6043137 13.2993038,51.1795462 C13.2993038,51.7547788 13.7659299,52.2210969 14.3415425,52.2210969 Z" id="Oval-30" fill="#7BA6B4"></path>
                    <path d="M28.2993038,25.605667 L32.7899501,22.6894072 C34.3158995,21.6984441 34.5021029,19.8511408 33.2148613,18.5722956 L30.7645789,16.1379956 L28.2993038,25.605667 Z" id="Path-8" fill="#7BA6B4"></path>
                    <path d="M7.89874125,21.9007039 L6.42284605,16.7536457 C5.92132771,15.0046434 6.99273821,13.4883056 8.80322974,13.3676552 L12.2495258,13.1379956 L7.89874125,21.9007039 Z" id="Path-9" fill="#7BA6B4"></path>
                </g>
                <path d="M120.747153,64.6772538 L134.123129,64.6772538 L134.123129,77.6772538 L114.973715,77.6772538 L120.747153,64.6772538 Z" id="Rectangle-76" fill="#7BA6B4" sketch:type="MSShapeGroup"></path>
                <g id="menu-item" transform="translate(17.123129, 59.677254)" sketch:type="MSShapeGroup">
                    <rect id="Rectangle-327" stroke="#D2DEE6" stroke-width="3" fill="#FFFFFF" x="0.876870692" y="0.322746194" width="119.123129" height="14"></rect>
                    <rect id="Rectangle-326" fill="#D2DEE6" x="29" y="5.32274619" width="20" height="4"></rect>
                    <rect id="Rectangle-326" fill="#E8F0F5" x="51" y="5.32274619" width="20" height="4"></rect>
                    <rect id="Rectangle-326" fill="#E8F0F5" x="73" y="5.32274619" width="20" height="4"></rect>
                    <rect id="Rectangle-326" fill="#E8F0F5" x="95" y="5.32274619" width="20" height="4"></rect>
                    <rect id="Rectangle-326" fill="#E8F0F5" x="6" y="5.32274619" width="20" height="4"></rect>
                </g>
                <ellipse id="Oval-17" fill="#D5E5EB" sketch:type="MSShapeGroup" cx="48.2989934" cy="125.624824" rx="26.6758641" ry="8.19148936"></ellipse>
                <g id="Oval-23-+-Oval-26" transform="translate(17.000000, 66.000000)" sketch:type="MSShapeGroup">
                    <path d="M18.239175,64.3935664 C28.2548328,64.3935664 36.3741277,61.9687122 36.3741277,58.9775031 C36.3741277,57.2339399 56.3291823,26.3961473 46.8760576,11.7223195 C43.6113029,6.65452974 40.9112139,4.41982915 33.8311358,1.37783694 C26.7510576,-1.66415527 11.8217541,3.5163568 10.9698086,6.19521946 C10.6536469,7.18936026 9.61692452,8.58618885 13.4082851,11.7223195 C17.1996458,14.8584502 23.4826391,12.2158059 25.657309,14.895415 C28.3695935,18.2374681 26.9205571,22.0711961 24.7139502,27.6483444 C21.9396325,34.6603686 0.104222305,57.2744786 0.104222305,58.9775031 C0.104222305,61.9687122 8.2235172,64.3935664 18.239175,64.3935664 Z" id="Oval-23" fill="#9EBEC9" transform="translate(24.843926, 32.816313) scale(-1, 1) translate(-24.843926, -32.816313) "></path>
                    <path d="M0.269702376,64.162719 C7.72303735,63.4899271 13.149989,61.4229915 13.149989,58.9775031 C13.149989,57.2339399 33.1050436,26.3961473 23.6519189,11.7223195 C21.8216941,8.8813115 20.1689288,6.93066829 17.8224637,5.2290202 C32.5192957,21.0249101 12.2028894,50.1860429 0.269702376,64.162719 Z" id="Oval-26" fill="#7BA6B4" transform="translate(13.231857, 34.695870) scale(-1, 1) translate(-13.231857, -34.695870) "></path>
                </g>
            </g>
        </g>
    </g>
</svg>