<?xml version="1.0" encoding="UTF-8" standalone="no"?>
<svg width="400px" height="250px" viewBox="0 0 400 250" version="1.1" xmlns="http://www.w3.org/2000/svg" xmlns:xlink="http://www.w3.org/1999/xlink" xmlns:sketch="http://www.bohemiancoding.com/sketch/ns">
    <!-- Generator: Sketch 3.2.2 (9983) - http://www.bohemiancoding.com/sketch -->
    <title>drake-empty-results</title>
    <desc>Created with Sketch.</desc>
    <defs></defs>
    <g id="Page-1" stroke="none" stroke-width="1" fill="none" fill-rule="evenodd" sketch:type="MSPage">
        <g id="drake-empty-results" sketch:type="MSArtboardGroup">
            <g sketch:type="MSLayerGroup" transform="translate(68.000000, 138.000000)">
                <path d="M187.872956,85.4341029 C180.035793,87.0733636 170.562038,88.0318592 160.357855,88.0318592 C150.063037,88.0318592 140.511678,87.0562607 132.634307,85.3902608 C124.756936,87.0562607 115.205577,88.0318592 104.910759,88.0318592 C94.524963,88.0318592 84.895826,87.0389415 76.9787625,85.3459312 L76.9787625,85.3459312 C69.0616989,87.0389415 59.432562,88.0318592 49.0467663,88.0318592 C22.0556098,88.0318592 0.17495424,81.3256563 0.17495424,73.0531358 C0.17495424,64.7806153 22.0556098,58.0744124 49.0467663,58.0744124 C59.432562,58.0744124 69.0616989,59.0673301 76.9787625,60.7603404 C84.895826,59.0673301 94.524963,58.0744124 104.910759,58.0744124 C115.205577,58.0744124 124.756936,59.0500109 132.634307,60.7160107 L132.634307,60.7160107 C140.511678,59.0500109 150.063037,58.0744124 160.357855,58.0744124 C170.562038,58.0744124 180.035793,59.032908 187.872956,60.6721687 C195.710119,59.032908 205.183874,58.0744124 215.388057,58.0744124 C242.379213,58.0744124 264.259869,64.7806153 264.259869,73.0531358 C264.259869,81.3256563 242.379213,88.0318592 215.388057,88.0318592 C205.183874,88.0318592 195.710119,87.0733636 187.872956,85.4341029 Z" id="Oval-30" fill-opacity="0.278051404" fill="#D5E5EB" sketch:type="MSShapeGroup"></path>
                <path d="M50.7249794,80.5424975 C65.4576523,80.5424975 77.4008435,76.8750428 77.4008435,72.3510081 C77.4008435,67.8269735 65.4576523,64.1595188 50.7249794,64.1595188 C35.9923065,64.1595188 24.0491153,67.8269735 24.0491153,72.3510081 C24.0491153,76.8750428 35.9923065,80.5424975 50.7249794,80.5424975 Z" id="Oval-12" fill="#D5E5EB" sketch:type="MSShapeGroup"></path>
                <ellipse id="Oval-13" fill="#D5E5EB" sketch:type="MSShapeGroup" cx="106.588972" cy="72.3510081" rx="26.6758641" ry="8.19148936"></ellipse>
                <ellipse id="Oval-14" fill="#D5E5EB" sketch:type="MSShapeGroup" cx="162.036068" cy="72.3510081" rx="26.6758641" ry="8.19148936"></ellipse>
                <ellipse id="Oval-15" fill="#D5E5EB" sketch:type="MSShapeGroup" cx="217.06627" cy="72.3510081" rx="26.6758641" ry="8.19148936"></ellipse>
                <path d="M50.9388728,75.4082656 C60.9545306,75.4082656 69.0738255,72.9834114 69.0738255,69.9922023 C69.0738255,68.2486391 59.1448737,43.7199013 46.997907,32.6867878 C34.8509403,21.6536743 13.0380268,18.4321914 14.1527336,22.6024625 C15.2674404,26.7727336 22.9466224,39.1037153 26.769521,45.2138753 C30.5924196,51.3240352 32.8039201,68.2891778 32.8039201,69.9922023 C32.8039201,72.9834114 40.923215,75.4082656 50.9388728,75.4082656 Z" id="Oval-19" fill="#9EBEC9" sketch:type="MSShapeGroup"></path>
                <path d="M39.3019491,74.1463208 C40.7222814,74.4616439 38.9417402,43.9952974 20.4057699,29.8363113 C15.0557471,25.1635737 14.0641958,19.9059712 14.0641959,22.8886303 C14.0641959,25.8712895 22.9466224,39.1037153 26.769521,45.2138753 C30.5924196,51.3240352 32.8039201,68.2891778 32.8039201,69.9922023 C32.8039201,71.6606026 35.3298732,73.1528071 39.3019491,74.1463208 Z" id="Oval-21" fill="#7BA6B4" sketch:type="MSShapeGroup"></path>
                <path d="M132.677496,50.3643247 C127.087588,50.8399138 123.806727,55.5180268 123.956647,69.9731003 C123.956647,72.9748592 115.870344,75.4082656 105.895384,75.4082656 C95.9204242,75.4082656 87.8341214,72.9748592 87.8341214,69.9731003 C87.9460312,27.2152695 116.194326,17.2261893 133.42032,17.0814952 C133.523734,17.0806265 133.625496,17.0884872 133.725605,17.1047948 C144.701916,17.1942832 178.562254,19.6317761 179.134228,70.0107079 C179.134228,72.9916967 171.001515,75.4082656 160.969305,75.4082656 C150.937096,75.4082656 142.804383,72.9916967 142.804383,70.0107079 C142.804383,50.4964599 137.498209,50.4110505 132.939035,50.4110505 C132.850579,50.4110505 132.763385,50.3952457 132.677496,50.3643247 Z" id="Oval-16" fill="#9EBEC9" sketch:type="MSShapeGroup"></path>
                <path d="M221.442604,4.08889994 L216.088122,4.08889993 C214.268636,4.08889993 213.10636,5.53676516 213.489422,7.31037706 L214.218587,10.6864722 L221.442604,4.08889994 Z" id="Path-3" fill="#7BA6B4" sketch:type="MSShapeGroup"></path>
                <path d="M216.029477,75.4082656 C226.045135,75.4082656 234.16443,72.9834114 234.16443,69.9922023 C234.16443,69.031855 226.086639,49.4619002 234.16443,35.1645386 C240.557475,23.8491066 263.344379,16.8322185 261.665688,10.4277119 C259.787883,3.26355043 254.742943,0.943905256 254.742943,0.943905256 C254.742943,0.943905256 240.04005,-2.45984947 221.704792,3.53801729 C203.369534,9.53588406 197.894524,67.0009931 197.894524,69.9922023 C197.894524,72.9834114 206.013819,75.4082656 216.029477,75.4082656 Z" id="Oval-18" fill="#9EBEC9" sketch:type="MSShapeGroup"></path>
                <path d="M230.736004,54.1456214 C230.232188,48.0631238 230.781858,41.1515533 234.16443,35.1645386 C238.658217,27.2107173 251.252107,21.3807798 257.755309,16.3944945 C260.503829,14.287086 236.555292,26.3181744 231.993642,32.6916703 C227.431992,39.0651663 231.435332,62.5885046 230.736004,54.1456214 Z" id="Oval-27" fill="#7BA6B4" sketch:type="MSShapeGroup"></path>
                <path d="M208.816506,74.962935 C209.635006,75.0690173 205.433258,54.7588066 205.750805,44.2191141 C206.290874,26.2936988 210.729581,14.5801811 208.610228,19.648532 C200.607662,38.7863571 197.894524,67.8865326 197.894524,69.9922023 C197.894524,72.2178709 202.38969,74.1299828 208.816506,74.962935 Z" id="Oval-24" fill="#7BA6B4" sketch:type="MSShapeGroup"></path>
                <path d="M230.829266,9.16564554 C231.520001,9.16564554 232.079952,8.13974572 232.079952,6.87423415 C232.079952,5.60872259 231.520001,4.58282277 230.829266,4.58282277 C230.138531,4.58282277 229.578579,5.60872259 229.578579,6.87423415 C229.578579,8.13974572 230.138531,9.16564554 230.829266,9.16564554 Z" id="Oval-20" fill="#6C93A0" sketch:type="MSShapeGroup"></path>
                <ellipse id="Oval-25" fill="#7BA6B4" sketch:type="MSShapeGroup" cx="253.550069" cy="4.37451264" rx="1.04223866" ry="1.04155063"></ellipse>
                <path d="M98.3856618,74.917619 C98.6000613,74.9471555 97.7004071,69.2121559 96.6248001,65.0821142 C94.8131882,58.1260115 92.7661384,49.5919389 96.6248004,36.1189608 C91.3644657,44.0401483 87.8733196,54.9964866 87.8341214,69.9731003 C87.8341214,72.1684954 92.1594965,74.059878 98.3856618,74.917619 Z" id="Oval-22" fill="#7BA6B4" sketch:type="MSShapeGroup"></path>
                <path d="M153.867974,74.9594986 C154.484758,75.0390096 147.694477,49.3361702 137.697505,49.3361702 C135.835461,49.3361702 135.04192,49.2136157 133.721031,49.5748839 C131.351183,50.2230469 130.355262,50.8033245 130.355262,50.8033245 C130.355262,50.8033245 133.167063,50.1011285 134.844121,50.5134682 C137.218506,51.0972604 142.757507,50.4578498 142.757507,69.9789062 C142.757507,72.2006294 147.439791,74.1308259 153.867974,74.9594986 Z" id="Oval-23" fill="#7BA6B4" sketch:type="MSShapeGroup"></path>
                <path d="M224.777768,9.92158346 L219.423286,9.92158346 C217.6038,9.92158346 216.441523,11.3694487 216.824586,13.1430606 L217.553751,16.5191557 L224.777768,9.92158346 Z" id="Path-4" fill="#7BA6B4" sketch:type="MSShapeGroup"></path>
            </g>
        </g>
    </g>
</svg>