<svg width="400" height="250" id="Layer_1" data-name="Layer 1" xmlns="http://www.w3.org/2000/svg" viewBox="0 0 400 184">
    <defs>
        <style>
            .cls-1{fill:#00a9de}.cls-2{fill:#c8d7e1}.cls-3{fill:#a8bece}.cls-4{fill:#86a6bd}.cls-5{fill:#4e748f}
        </style>
    </defs>
    <title>
        No sites
    </title>
    <path class="cls-1" d="M188.7 70.8A27.3 27.3 0 1 0 216 98.1a27.34 27.34 0 0 0-27.3-27.3zM164.2 98a25.56 25.56 0 0 1 2.1-10l11.7 32a24.29 24.29 0 0 1-13.8-22zm24.5 24.6a26.14 26.14 0 0 1-6.9-1l7.4-21.4 7.5 20.6c0 .1.1.2.2.3a22.51 22.51 0 0 1-8.2 1.5zm3.4-36.1l2.8-.2a1 1 0 1 0-.2-2s-4 .3-6.5.3-6.5-.3-6.5-.3a1 1 0 0 0-.2 2 19.6 19.6 0 0 0 2.6.2L188 97l-5.4 16.1-8.9-26.6 2.8-.2a1 1 0 1 0-.2-2s-4 .3-6.5.3h-1.6a24.58 24.58 0 0 1 37.1-4.7h-.3a4.25 4.25 0 0 0-4.1 4.4c0 2 1.2 3.7 2.4 5.7a13.06 13.06 0 0 1 2 6.8 21.7 21.7 0 0 1-1.9 7.9l-2.4 8.2zm8.9 32.7l7.5-21.7a23.3 23.3 0 0 0 1.9-8.8 19.48 19.48 0 0 0-.2-2.5 24.58 24.58 0 0 1-9.2 33z"/>
    <path class="cls-2" d="M257.1 137.43l-21.8-.13h-16.5l-16.5.1c-11 .1-22 .2-33 .8-.1.1-.1.1-.2.4a.22.22 0 0 0 .2.2c11 .5 22 .7 33 .8l16.5.1h16.5l21.88-.13zM301.3 138.1c-5.22-.19-10.44-.31-15.67-.4l-.1 1.59c5.26-.09 10.51-.21 15.77-.4a.4.4 0 1 0 0-.8z"/>
    <path class="cls-3" d="M259 106.1h.78l-.12-1.2-2.77-25.26 2.23-4.89 3.57 4.16 1.41 12.39 1.5 12.6.28 2.2h.73l-.2-2-1.3-12.8-1.4-12.8a.37.37 0 0 0-.1-.3l-4.1-4.9c-.1-.1-.1-.2-.2-.2a.55.55 0 0 0-.7.3L256 79.1v.3l2.9 25.5z"/>
    <path class="cls-3" d="M263 78.9a4.78 4.78 0 0 1-1 1.7c-.1.2-.4.2-.6.1h-.1a13 13 0 0 1-1.5-1l.8-.1a21.21 21.21 0 0 1-1.5 1.5l-.1.1a.64.64 0 0 1-.6 0l-1.6-1.5a.19.19 0 0 1 0-.3c.1-.1.2-.1.2 0l1.9 1-.7.1a10.7 10.7 0 0 1 1.4-1.6.75.75 0 0 1 .8-.1 13.44 13.44 0 0 1 1.4 1.1l-.7.1a6.1 6.1 0 0 1 1.6-1.2c.2-.1.3-.1.3.1zM257.8 76.4a4.75 4.75 0 0 0 3.1-.6l-1.8-2.2zM271.48 106.1V87.8a2.46 2.46 0 0 1 .9-1.9 2.7 2.7 0 0 1 2.1-.7 2.74 2.74 0 0 1 2.7 2.9v18h1.06V88a3.61 3.61 0 0 0-1-2.8 3.78 3.78 0 0 0-2.8-1.2 4.14 4.14 0 0 0-1.5.2 5.67 5.67 0 0 0-1.3.8 3.68 3.68 0 0 0-1.3 2.7v18.4z"/>
    <path class="cls-3" d="M273.5 84.2a2.83 2.83 0 0 0 2.8-1.8 6.81 6.81 0 0 0 .5-3.5 9.59 9.59 0 0 0-1-3.4 15.67 15.67 0 0 0-2-3l.9-.1c-.8 1.7-1.7 3.3-2.3 5a11.07 11.07 0 0 0-.7 2.6 3.57 3.57 0 0 0 .5 2.5v.2h-.2a3.52 3.52 0 0 1-1-2.7 14.68 14.68 0 0 1 .5-2.9 47.66 47.66 0 0 1 2.2-5.2.55.55 0 0 1 .7-.3c.1 0 .1.1.2.1a12.36 12.36 0 0 1 3.3 7.1 6.72 6.72 0 0 1-.8 3.9 4 4 0 0 1-1.5 1.4 3.46 3.46 0 0 1-2 .2.1.1 0 0 1-.1-.1q-.15 0 0 0z"/>
    <path class="cls-3" d="M277.3 78a2 2 0 0 1-1.4.6 2.22 2.22 0 0 1-1.6-.3c-.5-.3-.8-.5-1.2-.7s-.8-.2-1.2-.4a.19.19 0 0 1-.1-.3.1.1 0 0 1 .1-.1 2.85 2.85 0 0 1 1.6-.2 4.54 4.54 0 0 1 1.4.6 2.28 2.28 0 0 0 1.1.3 3.64 3.64 0 0 1 1.4.2c-.1.2 0 .2-.1.3zM287.8 106.1c-.4 8.9-.9 17.9-1.4 26.8l-.4 6.7-.2 3.4a6.4 6.4 0 0 1-1.3 3.3 7.39 7.39 0 0 1-6.3 2.7h-13.4a7.58 7.58 0 0 1-6.4-2.7 6.06 6.06 0 0 1-1.4-3.4c-.1-1.2-.1-2.3-.1-3.4l-.2-6.7-.9-26.8a.66.66 0 0 1 .4-.5l12.8.1c4.3 0 8.5.1 12.8.1a.2.2 0 1 1 0 .4c-4.3.1-8.5.1-12.8.1l-12.8.1.4-.5 1.1 26.8.3 6.7c.1 1.1.1 2.3.2 3.3a5 5 0 0 0 1.2 2.8 6.09 6.09 0 0 0 2.4 1.8 8.08 8.08 0 0 0 3.1.5h13.4a6.66 6.66 0 0 0 5.5-2.3 5.7 5.7 0 0 0 1.1-2.8l.2-3.3.5-6.7c.6-8.9 1.3-17.8 2.1-26.8a.1.1 0 0 1 .1-.1z"/>
    <path class="cls-3" d="M262.2 113.2a24.22 24.22 0 0 1 .7 4.7c.1 1.6.3 3.1.4 4.7.2 3.1.4 6.2.3 9.4a.2.2 0 0 1-.4 0c-.6-3.1-.7-6.2-1-9.3-.1-1.6-.2-3.1-.3-4.7a24.62 24.62 0 0 1 .1-4.7c0-.2.1-.2.2-.1z"/>
    <path class="cls-4" d="M131.6 96.3l-.4-32.7-.1-16.4a8.21 8.21 0 0 1 1.2-4.3 7.39 7.39 0 0 1 3.4-2.9 5.85 5.85 0 0 1 2.2-.5 14.7 14.7 0 0 1 2.1 0h4.1l32.7-.1 32.7-.1h28.7a7.47 7.47 0 0 1 4.5 1.2 8.08 8.08 0 0 1 3.1 3.5 6 6 0 0 1 .6 2.3 4.87 4.87 0 0 1 .1 1.2v25.6l-.1 65.5a1.11 1.11 0 0 1-1.1 1.1l-39.8-.2-19.9-.2-19.9-.3a.4.4 0 0 1 0-.8c6.6-.1 13.3-.3 19.9-.3l19.9-.2 39.8-.2-1.1 1.1-.1-65.5V47.5a2.77 2.77 0 0 0-.1-.9 5.49 5.49 0 0 0-.5-1.7 7 7 0 0 0-2.2-2.6 7.74 7.74 0 0 0-1.6-.7 2.49 2.49 0 0 0-.8-.1h-29.6l-32.7-.1-32.7-.1h-6.1a8.47 8.47 0 0 0-1.7.4 6.11 6.11 0 0 0-3.8 5.7l-.1 16.4-.2 32.5a.2.2 0 0 1-.4 0z"/>
    <path class="cls-1" d="M130.7 58.4V47c0-4.5 3.1-8.2 6.9-8.2h102c3.8 0 6.9 3.7 6.9 8.2v11.4z"/>
    <path class="cls-5" d="M249.7 58.4c-10.1.8-20.3.7-30.4.8l-30.4.1-30.4-.1c-10.1 0-20.3 0-30.4-.8v-.5c10.1-.8 20.3-.7 30.4-.8l30.4-.1 30.4.1c10.1 0 20.3 0 30.4.8z"/>
    <path class="cls-3" d="M115.9 108.5c.6-1 1.3-2 2-3a14.31 14.31 0 0 1 1.1-1.5 6.39 6.39 0 0 1 1.5-1.3 6 6 0 0 1 1.9-.6c.7-.1 1.2 0 1.9-.1h9.1a6 6 0 0 1 1.9.6 4.43 4.43 0 0 1 1.5 1.2c.4.5.7 1 1.1 1.5.7 1 1.3 2 2 3 .1.1 0 .2-.1.3s-.2 0-.3 0c-.8-.9-1.5-1.8-2.3-2.8a13.45 13.45 0 0 1-1.1-1.4 6.42 6.42 0 0 0-1.3-1 4.19 4.19 0 0 0-1.5-.4h-10.6a3.81 3.81 0 0 0-1.5.5 4.12 4.12 0 0 0-1.3 1 17.1 17.1 0 0 0-1.1 1.4l-2.4 2.7h-.1c-.5 0-.5-.1-.4-.1z"/>
    <path class="cls-3" d="M125.2 102.6c-.1-.2-.2-.5-.3-.7a.35.35 0 0 0-.1-.2l-.1-.1a.31.31 0 0 0-.2-.1h-.7c-.2 0-.3.1-.4.3s0 .5.5.6a.19.19 0 0 1 .1.3.1.1 0 0 1-.1.1 1 1 0 0 1-.9-.1 1.46 1.46 0 0 1-.6-.9 1.49 1.49 0 0 1 .3-1 1.28 1.28 0 0 1 1-.4h.7a1.39 1.39 0 0 1 1 .5c.1.2.2.3.2.5v.5c-.1.2-.2.5-.3.7s0 .1-.1 0zM132.5 102.6c-.1-.2-.2-.5-.3-.7a.35.35 0 0 0-.1-.2l-.1-.1a.31.31 0 0 0-.2-.1h-.7c-.2 0-.3.1-.4.3s0 .5.5.6a.19.19 0 0 1 .1.3.1.1 0 0 1-.1.1 1 1 0 0 1-.9-.1 1.46 1.46 0 0 1-.6-.9 1.49 1.49 0 0 1 .3-1 1.28 1.28 0 0 1 1-.4h.7a1.39 1.39 0 0 1 1 .5c.1.2.2.3.2.5v.5c-.1.2-.2.5-.3.7.1.1 0 .1-.1 0zM146.9 144l-11.3.2-11.3.1-22.5.2H99a7.17 7.17 0 0 1-2.9-.6 6.5 6.5 0 0 1-3.5-4.7 28.1 28.1 0 0 1-.1-2.9v-21.1a7.57 7.57 0 0 1 .1-1.5 5.7 5.7 0 0 1 1.1-2.8 6.45 6.45 0 0 1 5.2-2.7h47.9a7.17 7.17 0 0 1 2.9.6 6.5 6.5 0 0 1 3.5 4.7 28.1 28.1 0 0 1 .1 2.9v8.4L153 136a26.2 26.2 0 0 1-.1 2.8 5.36 5.36 0 0 1-1.1 2.7 5.5 5.5 0 0 1-4.9 2.5zm0-.3a5.6 5.6 0 0 0 4.6-2.4 5.38 5.38 0 0 0 .9-2.5 26.15 26.15 0 0 0 0-2.8l-.1-11.3v-8.4a23.48 23.48 0 0 0-.1-2.7 5.63 5.63 0 0 0-3-4 5.34 5.34 0 0 0-2.5-.5H98.8a5.54 5.54 0 0 0-4.4 2.3 5 5 0 0 0-.9 2.4 5.7 5.7 0 0 0-.1 1.3v21.1a23.48 23.48 0 0 0 .1 2.7 5.57 5.57 0 0 0 3 4 4.34 4.34 0 0 0 2.5.5h2.8l22.5.2 11.3.1z"/>
    <path class="cls-3" d="M144.4 130.1a13.26 13.26 0 0 1-5.6 8.4 13.59 13.59 0 0 1-10 2 13.73 13.73 0 0 1-10.8-15.8 13.38 13.38 0 0 1 5.5-8.7 13.16 13.16 0 0 1 10-2.4 13.44 13.44 0 0 1 8.8 5.2 15.82 15.82 0 0 1 2.3 4.7 14.64 14.64 0 0 1 .3 5.1.2.2 0 1 1-.4 0 13 13 0 0 0-2.8-9.3 12.57 12.57 0 0 0-8.3-4.7 13.06 13.06 0 0 0-9.2 2.3 12.69 12.69 0 0 0-5 8.1 12.31 12.31 0 0 0 2 9.3 12.82 12.82 0 0 0 7.9 5.3 13 13 0 0 0 13-5 11.83 11.83 0 0 0 2.2-4.5.1.1 0 0 1 .1-.1z"/>
    <path class="cls-3" d="M140 129.9a9.06 9.06 0 0 1-16.3 2.4 9.3 9.3 0 0 1 2-12.6 9 9 0 0 1 6.5-1.9 9.62 9.62 0 0 1 6.1 3 9.09 9.09 0 0 1 2.3 6.3.2.2 0 1 1-.4 0 9 9 0 0 0-2.4-5.7 8.63 8.63 0 0 0-5.6-2.6 8.07 8.07 0 0 0-5.8 1.8 8.42 8.42 0 0 0-3 5.2 8.71 8.71 0 0 0 1.2 5.9 8.27 8.27 0 0 0 5 3.5 8.65 8.65 0 0 0 6.1-.7 8.82 8.82 0 0 0 4.2-4.7.1.1 0 0 1 .1-.1zM108.9 144l-13 .3a4 4 0 0 1-1.8-.3 3.25 3.25 0 0 1-1.3-1.3 4 4 0 0 1-.3-1.8v-1.6l-.1-6.5v-16.3a18.21 18.21 0 0 1 .1-3.3 9.28 9.28 0 0 1 3.3-5.9 10.24 10.24 0 0 1 6.3-2.4 9.91 9.91 0 0 1 3.4.4 9.16 9.16 0 0 1 3.1 1.6 9 9 0 0 1 3.3 5.9c.1 1.2.1 2.2.1 3.3v3.3l-.1 13-.1 6.5v1.6a10.28 10.28 0 0 1-.1 1.7 2.78 2.78 0 0 1-2.8 1.8zm0-.3a2.34 2.34 0 0 0 2.2-1.7c.1-.5 0-1 .1-1.6v-1.6l-.1-6.5-.1-13V116c0-1.1 0-2.2-.1-3.2a7.85 7.85 0 0 0-2.9-5.2 8.67 8.67 0 0 0-2.7-1.4 10.54 10.54 0 0 0-3.1-.3 8.66 8.66 0 0 0-8.5 7.3 16.86 16.86 0 0 0-.1 3.2v16.3l-.1 6.5v1.6a3 3 0 0 0 .2 1.4 2.19 2.19 0 0 0 .9 1 2.9 2.9 0 0 0 1.4.3c4.2.1 8.6.2 12.9.2zM145.6 138.2a.94.94 0 0 1 1.3.5 1.25 1.25 0 0 1-.3 1.6 1.57 1.57 0 0 1-1.6.3 1.08 1.08 0 0 1-.6-1.3.19.19 0 0 1 .3-.1.1.1 0 0 1 .1.1c.4.5.8.5 1 .3s.2-.3.1-.4-.1-.4-.4-.7c0-.2 0-.2.1-.3zM120.7 115.4a18.1 18.1 0 0 1-4 .4h-1.6a1 1 0 0 1-.8-.5 1.51 1.51 0 0 1-.2-.8v-1.6a1 1 0 0 1 .5-.8 1.34 1.34 0 0 1 .8-.2h4.5a1.08 1.08 0 0 1 .7.2 1 1 0 0 1 .4.7v.6c0 .3-.1.7-.1 1a.2.2 0 0 1-.4 0c0-.3-.1-.7-.1-1v-.4a.1.1 0 0 0-.1-.1h-5v1.6h1.5a18.1 18.1 0 0 1 4 .4c-.1.3 0 .3-.1.5z"/>
    <path class="cls-3" d="M94.8 108.1a4.42 4.42 0 0 1 2.5.4 5.88 5.88 0 0 1 1.8 1.7 5.21 5.21 0 0 0 1.6 1.4 4.64 4.64 0 0 0 2.1.4 4.92 4.92 0 0 0 2.1-.4 7.49 7.49 0 0 0 1.8-1.3 10.8 10.8 0 0 1 2-1.6 4.51 4.51 0 0 1 2.5-.5.2.2 0 0 1 0 .4 4.76 4.76 0 0 0-2.1.7 12.48 12.48 0 0 0-1.7 1.6 7.83 7.83 0 0 1-2 1.6 6.18 6.18 0 0 1-5.1.1 5.46 5.46 0 0 1-1.9-1.8 8.3 8.3 0 0 0-1.5-1.7 4.48 4.48 0 0 0-2.1-.9c-.1.1-.1.1 0-.1-.1.1 0 .1 0 0zM152.8 113.9a11.42 11.42 0 0 1-.9 5.5 13.48 13.48 0 0 0-1.1 5.2 11.09 11.09 0 0 0 1 5.1 21.36 21.36 0 0 1 .9 2.7 8.83 8.83 0 0 1 .2 2.8.2.2 0 1 1-.4 0 11 11 0 0 0-.6-2.6 27.18 27.18 0 0 0-1.1-2.5 13.07 13.07 0 0 1-1.3-5.5 9.67 9.67 0 0 1 .4-2.9c.2-.9.6-1.8.9-2.7s.7-1.7 1-2.5a11 11 0 0 0 .6-2.6c.2-.1.3-.1.4 0zM93 120a18 18 0 0 1-.9 6.5 14.33 14.33 0 0 1-3.5 5.6 32.76 32.76 0 0 1-5.2 4 11.62 11.62 0 0 0-4.4 4.4 7.56 7.56 0 0 0-.1 5.9 7.85 7.85 0 0 0 4.2 4.2 21.28 21.28 0 0 0 6.1 1.7 45.83 45.83 0 0 0 6.4.4 139.56 139.56 0 0 0 25.7-2.9c8.5-1.6 16.9-3.7 25.3-6 .1 0 .2 0 .2.1s0 .2-.1.2c-4.1 1.3-8.3 2.5-12.5 3.6s-8.4 2.1-12.7 3-8.6 1.6-12.9 2.2a95 95 0 0 1-13.1.9 48.72 48.72 0 0 1-6.6-.4 20.37 20.37 0 0 1-6.4-1.8 9.18 9.18 0 0 1-4.7-4.8 9.74 9.74 0 0 1-.6-3.4 8.29 8.29 0 0 1 .7-3.4c1-2.1 3-3.5 4.8-4.7a49.52 49.52 0 0 0 5.2-3.8 14.07 14.07 0 0 0 3.5-5.2 19.54 19.54 0 0 0 1.2-6.3c.2-.1.3-.1.4 0z"/>
</svg>
