<?xml version="1.0" encoding="UTF-8" standalone="no"?>
<svg width="400px" height="250px" viewBox="0 0 400 250" version="1.1" xmlns="http://www.w3.org/2000/svg" xmlns:xlink="http://www.w3.org/1999/xlink" xmlns:sketch="http://www.bohemiancoding.com/sketch/ns">
    <!-- Generator: Sketch 3.2.2 (9983) - http://www.bohemiancoding.com/sketch -->
    <title>drake-nosites</title>
    <desc>Created with Sketch.</desc>
    <defs></defs>
    <g id="Page-1" stroke="none" stroke-width="1" fill="none" fill-rule="evenodd" sketch:type="MSPage">
        <g id="drake-nosites" sketch:type="MSArtboardGroup">
            <g id="Group" sketch:type="MSLayerGroup" transform="translate(78.000000, 122.000000)">
                <path d="M206.112725,73.4417175 C200.645039,79.883126 181.540481,84.6382979 158.812218,84.6382979 C155.220967,84.6382979 151.720188,84.5195775 148.349381,84.2942435 C140.489931,89.3420054 123.682663,92.8297872 104.217511,92.8297872 C101.791377,92.8297872 99.4065331,92.7756042 97.0751592,92.6709709 L97.0751592,92.6709709 C91.7584148,99.1795375 72.54811,104 49.6643437,104 C22.6731872,104 0.792531626,97.2937971 0.792531626,89.0212766 C0.792531626,80.7487561 22.6731872,74.0425532 49.6643437,74.0425532 C52.0904777,74.0425532 54.4753213,74.0967362 56.8066952,74.2013695 C62.1234396,67.6928029 81.3337444,62.8723404 104.217511,62.8723404 C107.808761,62.8723404 111.309541,62.9910608 114.680347,63.2163948 L114.680347,63.2163948 C122.539798,58.1686329 139.347066,54.6808511 158.812218,54.6808511 C162.870173,54.6808511 166.812615,54.8324333 170.582552,55.118131 C176.050239,48.6767225 195.154796,43.9215507 217.883059,43.9215507 C244.874216,43.9215507 266.754871,50.6277535 266.754871,58.9002741 C266.754871,67.1727946 244.874216,73.8789975 217.883059,73.8789975 C213.825104,73.8789975 209.882663,73.7274152 206.112725,73.4417175 Z" id="Oval-32" fill-opacity="0.278051404" fill="#D5E5EB" sketch:type="MSShapeGroup"></path>
                <ellipse id="Oval-16" fill="#D5E5EB" sketch:type="MSShapeGroup" cx="48.6271053" cy="87.8510638" rx="26.6758641" ry="8.19148936"></ellipse>
                <ellipse id="Oval-17" fill="#D5E5EB" sketch:type="MSShapeGroup" cx="216.897011" cy="57.9002741" rx="26.6758641" ry="8.19148936"></ellipse>
                <path d="M216.837192,62.6690164 C226.85285,62.6690164 234.972145,60.2441623 234.972145,57.2529531 C234.972145,55.5093899 236.938034,30.0705904 244.237304,15.4384763 C247.032232,9.83576673 250.193359,8.18749975 250.193359,2.79687604 C250.193359,-2.59374766 237.690964,1.31904144 234.972145,2.79687585 C226.648437,7.32128903 222.553706,11.1799181 218.864257,15.4384761 C208.888672,26.9528289 198.70224,55.5499287 198.70224,57.2529531 C198.70224,60.2441623 206.821535,62.6690164 216.837192,62.6690164 Z" id="Oval-23" fill="#9EBEC9" sketch:type="MSShapeGroup"></path>
                <path d="M205.763563,61.5423806 C206.584961,44.4599609 207.795898,40.1630859 214.644249,21.2312387 C206.208582,34.5109689 198.70224,55.7910317 198.70224,57.2529531 C198.70224,58.998923 201.468533,60.5519322 205.763563,61.5423806 Z" id="Oval-30" fill="#7BA6B4" sketch:type="MSShapeGroup"></path>
                <path d="M49.6643427,31.8827471 C53.4998971,27.4188789 71.4944325,45.2639768 80.7024274,42.9589198 C85.8479352,41.6708339 89.6164899,38.8505228 89.6164899,33.7606757 C89.6164899,30.8858498 84.764597,22.1689969 74.1213751,11.3690752 C65.9208918,3.04785642 40.3164039,3.31250012 29.6484371,6.45703127 C18.9804702,9.60156242 12.5485917,14.5928828 6.82421876,23.7979043 C1.57714832,32.2354043 45.5435128,36.6786226 49.6643427,31.8827471 Z" id="Oval-24" fill="#9EBEC9" sketch:type="MSShapeGroup"></path>
                <path d="M49.6643427,31.8827471 C53.4998971,27.4188789 71.4944325,45.2639768 80.7024274,42.9589198 C85.8479352,41.6708339 89.6164904,38.7480468 89.6164899,33.7606757 C89.762207,36.3603516 82.3029794,47.880693 70.8894043,37.4874266 C62.688921,29.1662079 45.5435128,36.6786226 49.6643427,31.8827471 Z" id="Oval-25" fill="#7BA6B4" sketch:type="MSShapeGroup"></path>
                <path d="M63.6158642,11.8905386 L58.2613825,11.8905386 C56.4418964,11.8905386 55.2796197,13.3384038 55.6626822,15.1120157 L56.3918472,18.4881108 L63.6158642,11.8905386 Z" id="Path-5" fill="#7BA6B4" sketch:type="MSShapeGroup" transform="translate(59.453423, 15.300803) rotate(63.000000) translate(-59.453423, -15.300803) "></path>
                <g id="W" transform="translate(30.664344, 17.734309)" sketch:type="MSShapeGroup">
                    <circle id="Oval-140" fill="#FFFFFF" cx="20.25" cy="21.25" r="20.25"></circle>
                    <path d="M3.08618182,21.377 C3.08618182,28.3554828 7.09532955,34.3867241 12.909875,37.244 L4.59526136,14.202 C3.6285,16.3947931 3.08618182,18.8208621 3.08618182,21.377 L3.08618182,21.377 Z M32.282375,20.4881954 C32.282375,18.3085977 31.5085,16.7996092 30.8455114,15.6256897 C29.9621477,14.1727816 29.1332955,12.9437241 29.1332955,11.4908161 C29.1332955,9.87013793 30.3483864,8.36162069 32.0601364,8.36162069 C32.1379432,8.36162069 32.2110909,8.37104598 32.2861023,8.37575862 C29.1850114,5.50198851 25.0533295,3.747 20.5158409,3.747 C14.4264091,3.747 9.06938636,6.90777011 5.95292045,11.6934598 C6.36198864,11.7066552 6.74776136,11.7146667 7.07482955,11.7146667 C8.89746591,11.7146667 11.7199432,11.4908161 11.7199432,11.4908161 C12.6592159,11.4352069 12.7701023,12.8315632 11.8317614,12.9437241 C11.8317614,12.9437241 10.8868977,13.0554138 9.83673864,13.111023 L16.1838182,32.2085402 L19.9986818,20.6371149 L17.2833636,13.111023 C16.3440909,13.0554138 15.4551364,12.9437241 15.4551364,12.9437241 C14.5153977,12.8876437 14.6258182,11.4352069 15.5655568,11.4908161 C15.5655568,11.4908161 18.4434773,11.7146667 20.1561591,11.7146667 C21.9787955,11.7146667 24.8017386,11.4908161 24.8017386,11.4908161 C25.7414773,11.4352069 25.8518977,12.8315632 24.9130909,12.9437241 C24.9130909,12.9437241 23.9672955,13.0554138 22.9180682,13.111023 L29.2171591,32.0629195 L30.9559318,26.1871954 C31.8397614,23.8963793 32.282375,21.9967126 32.282375,20.4881954 L32.282375,20.4881954 Z M20.8219432,22.9194483 L15.5916477,38.2902069 C17.1538409,38.7548736 18.8050227,39.0084138 20.5158409,39.0084138 C22.5458068,39.0084138 24.4928409,38.654023 26.3042955,38.0088621 C26.2577045,37.9334598 26.2148409,37.8533448 26.1794318,37.7661609 L20.8219432,22.9194483 L20.8219432,22.9194483 Z M35.8111705,12.9192184 C35.8857159,13.4804943 35.9281136,14.0832414 35.9281136,14.7321724 C35.9281136,16.5206207 35.5968523,18.5315057 34.6026023,21.0466437 L29.279125,36.6158046 C34.4609659,33.5601264 37.9455,27.8813908 37.9455,21.377 C37.9455,18.3118966 37.1711591,15.4301149 35.8111705,12.9192184 L35.8111705,12.9192184 Z" id="Fill-1" fill="#21759B"></path>
                    <path d="M0.198011364,21.377 C0.198011364,32.7099655 9.31259091,41.9297816 20.5158409,41.9297816 C31.7195568,41.9297816 40.8346023,32.7099655 40.8346023,21.377 C40.8346023,10.044977 31.7195568,0.826103448 20.5158409,0.826103448 C9.31259091,0.826103448 0.198011364,10.044977 0.198011364,21.377 L0.198011364,21.377 Z M1.12982955,21.377 C1.12982955,10.5647816 9.82648864,1.76863218 20.5158409,1.76863218 C31.2056591,1.76863218 39.9027841,10.5647816 39.9027841,21.377 C39.9027841,32.1901609 31.2056591,40.9872529 20.5158409,40.9872529 C9.82648864,40.9872529 1.12982955,32.1901609 1.12982955,21.377 L1.12982955,21.377 Z" id="Fill-2" fill="#21759B"></path>
                </g>
                <path d="M48.0861939,92.4508188 C58.1018517,92.4508188 66.2211466,90.0259646 66.2211466,87.0347555 C66.2211466,86.718813 64.954102,80.8095695 57.7080078,68.0488283 C50.4619135,55.2880871 28.7002644,48.4774721 31.2161011,35.0917308 C32.3328404,29.1500164 35.6809449,25.192317 40.9045796,19.8238044 C46.1282143,14.4552919 24.7177728,6.28417953 13.8134765,15.9189452 C8.70893279,20.4291934 -0.128548401,28.7348055 4.98535156,46.6318363 C7.19156286,54.3528774 17.4776454,66.7346689 20.9482417,71.9150394 C25.5223337,78.7425382 29.2428508,85.4857722 29.9512412,87.0347555 C31.1489291,89.6536483 38.0705361,92.4508188 48.0861939,92.4508188 Z" id="Oval-19" fill="#9EBEC9" sketch:type="MSShapeGroup"></path>
                <path d="M47.3017095,92.445058 C44.3908691,90.4230957 26.9511714,69.0175781 20.9482417,63.7832031 C11.3572248,55.4201235 -2.20727541,35.064209 13.5527342,15.4042969 C9.17871076,19.8093262 -0.128548401,28.7348055 4.98535156,46.6318363 C7.19156286,54.3528774 17.4776454,66.7346689 20.9482417,71.9150394 C25.5223337,78.7425382 29.2428508,85.4857722 29.9512412,87.0347555 C31.1174008,89.5847079 37.7100901,92.3036754 47.3017095,92.445058 Z" id="Oval-20" fill="#7BA6B4" sketch:type="MSShapeGroup"></path>
                <path d="M75.8267847,6.84856798 L70.472303,6.84856798 C68.6528169,6.84856798 67.4905401,8.29643321 67.8736027,10.0700451 L68.6027676,13.4461402 L75.8267847,6.84856798 Z" id="Path-6" fill="#7BA6B4" sketch:type="MSShapeGroup" transform="translate(71.664344, 10.258833) rotate(79.000000) translate(-71.664344, -10.258833) "></path>
                <ellipse id="Oval-21" fill="#6C93A0" sketch:type="MSShapeGroup" transform="translate(69.836045, 22.435696) rotate(-15.000000) translate(-69.836045, -22.435696) " cx="69.5867309" cy="22.2271071" rx="1.25068639" ry="2.29141138"></ellipse>
                <ellipse id="Oval-21" fill="#6C93A0" sketch:type="MSShapeGroup" transform="translate(77.787707, 19.342774) rotate(-15.000000) translate(-77.787707, -19.342774) " cx="77.5383929" cy="19.1341851" rx="1.25068639" ry="2.29141138"></ellipse>
                <ellipse id="Oval-26" fill="#7BA6B4" sketch:type="MSShapeGroup" cx="86.3173054" cy="34.2758599" rx="1.04223866" ry="1.04155063"></ellipse>
                <ellipse id="Oval-26" fill="#7BA6B4" sketch:type="MSShapeGroup" cx="80.9258815" cy="37.2758599" rx="1.04223866" ry="1.04155063"></ellipse>
                <ellipse id="Oval-13" fill="#D5E5EB" sketch:type="MSShapeGroup" cx="104.712243" cy="77.8510638" rx="26.6758641" ry="8.19148936"></ellipse>
                <ellipse id="Oval-14" fill="#D5E5EB" sketch:type="MSShapeGroup" cx="160.036068" cy="67.8510638" rx="26.6758641" ry="8.19148936"></ellipse>
                <path d="M132.613494,48.7187484 C127.857848,53.1845668 122.694616,61.7693357 122.844536,76.2244092 C122.844536,79.2261681 114.758233,81.6595745 104.783273,81.6595745 C94.8083132,81.6595745 86.7220104,79.2261681 86.7220104,76.2244092 C86.8339201,33.4665784 112.555873,17.1314944 130.737303,13.5361328 C143.764648,11.0166016 177.450143,15.883085 178.022117,66.2620168 C178.022117,69.2430056 169.889404,71.6595745 159.857194,71.6595745 C149.824985,71.6595745 141.692272,69.2430056 141.692272,66.2620168 C141.692272,46.7477688 137.369139,44.25293 132.613494,48.7187484 Z" id="Oval-18" fill="#9EBEC9" sketch:type="MSShapeGroup"></path>
                <path d="M132.613494,48.7187484 C145.211914,39.8789062 150.03125,63.2119141 152.519119,71.2010334 C146.142151,70.3632727 141.692272,68.4670582 141.692272,66.2620168 C141.692272,46.7477688 137.369139,44.25293 132.613494,48.7187484 Z" id="Oval-29" fill="#7BA6B4" sketch:type="MSShapeGroup"></path>
                <path d="M97.9987932,81.2630913 C91.3858193,80.4559411 86.7220104,78.504075 86.7220104,76.2244092 C86.7663578,59.280403 90.8324193,46.4857349 96.8572279,36.9889076 C88.6875,64.1025391 96.703125,70.6621094 97.9987932,81.2630913 Z" id="Oval-27" fill="#7BA6B4" sketch:type="MSShapeGroup"></path>
            </g>
        </g>
    </g>
</svg>