<?xml version="1.0" encoding="UTF-8" standalone="no"?>
<svg width="400px" height="250px" viewBox="0 0 400 250" version="1.1" xmlns="http://www.w3.org/2000/svg" xmlns:xlink="http://www.w3.org/1999/xlink" xmlns:sketch="http://www.bohemiancoding.com/sketch/ns">
    <!-- Generator: Sketch 3.2.2 (9983) - http://www.bohemiancoding.com/sketch -->
    <title>drake-whoops</title>
    <desc>Created with Sketch.</desc>
    <defs></defs>
    <g id="Page-1" stroke="none" stroke-width="1" fill="none" fill-rule="evenodd" sketch:type="MSPage">
        <g id="drake-whoops" sketch:type="MSArtboardGroup">
            <g sketch:type="MSLayerGroup" transform="translate(151.000000, 154.000000)">
                <ellipse id="Oval-33" fill-opacity="0.278051404" fill="#D5E5EB" sketch:type="MSShapeGroup" cx="49.2131025" cy="57.9787234" rx="48.8718121" ry="14.9787234"></ellipse>
                <ellipse id="Oval-17" fill="#D5E5EB" sketch:type="MSShapeGroup" cx="48.6758641" cy="57.1914894" rx="26.6758641" ry="8.19148936"></ellipse>
                <path d="M49.1349527,60.4082656 C59.1506105,60.4082656 67.2699054,57.9834114 67.2699054,54.9922023 C67.2699054,54.4294097 65.9326166,41.1738288 62.9365228,37.0761723 C59.9404291,32.9785158 41.5693359,29.8632824 36.2744141,37.0761723 C30.9794922,44.2890622 31,54.2455121 31,54.9922023 C31,57.9834114 39.1192949,60.4082656 49.1349527,60.4082656 Z" id="Oval-20" fill="#9EBEC9" sketch:type="MSShapeGroup"></path>
                <path d="M55.2506864,55.5828228 C55.9414214,55.5828228 56.5013728,54.5569229 56.5013728,53.2914114 C56.5013728,52.9362031 56.457258,52.5998722 56.3785187,52.299806 C56.1767309,51.5308171 55.257111,51.5537109 54.7602539,51.5537109 C54.3379878,51.5537109 54.455031,51.3834021 54.2285694,51.970565 C54.0845893,52.3438723 54,52.7995433 54,53.2914114 C54,54.5569229 54.5599514,55.5828228 55.2506864,55.5828228 Z" id="Oval-25" fill="#6C93A0" sketch:type="MSShapeGroup"></path>
                <path d="M42.2506864,55.5828228 C42.9414214,55.5828228 43.5013728,54.5569229 43.5013728,53.2914114 C43.5013728,52.8373333 43.4292821,52.414104 43.3049261,52.0580458 C43.0827029,51.4217728 43.2780976,51.5119629 42.8352051,51.5119629 C42.4330862,51.5119629 41.4907726,51.3476891 41.261977,51.8879318 C41.0977616,52.2756847 41,52.7626312 41,53.2914114 C41,54.5569229 41.5599514,55.5828228 42.2506864,55.5828228 Z" id="Oval-26" fill="#6C93A0" sketch:type="MSShapeGroup"></path>
                <path d="M63.7848607,34.9148997 L58.4303789,34.9148997 C56.6108928,34.9148997 55.4486161,36.3627649 55.8316787,38.1363768 L56.5608436,41.512472 L63.7848607,34.9148997 Z" id="Path-8" fill="#7BA6B4" sketch:type="MSShapeGroup" transform="translate(59.622420, 38.325164) rotate(-254.000000) translate(-59.622420, -38.325164) "></path>
                <path d="M63.7848607,34.9148997 L58.4303789,34.9148997 C56.6108928,34.9148997 55.4486161,36.3627649 55.8316787,38.1363768 L56.5608436,41.512472 L63.7848607,34.9148997 Z" id="Path-8" fill="#7BA6B4" sketch:type="MSShapeGroup" transform="translate(59.622420, 38.325164) rotate(-254.000000) translate(-59.622420, -38.325164) "></path>
                <path d="M44.1229479,33.9204695 L38.7684662,33.9204695 C36.9489801,33.9204695 35.7867034,35.3683347 36.1697659,37.1419466 L36.8989308,40.5180418 L44.1229479,33.9204695 Z" id="Path-9" fill="#7BA6B4" sketch:type="MSShapeGroup" transform="translate(39.960507, 37.330734) scale(-1, 1) rotate(-252.000000) translate(-39.960507, -37.330734) "></path>
                <path d="M34.7221571,28.4770115 L22.782741,22.8451582 L28.4513484,13.5492074 L34.7221571,28.4770115 Z" id="Path-124" fill="#9EBEC9" sketch:type="MSShapeGroup"></path>
                <path d="M48.1526707,24.9955401 L40.7014912,4.84865897 L48.1526707,1.1774935 L48.1526707,24.9955401 Z" id="Path-124" fill="#9EBEC9" sketch:type="MSShapeGroup"></path>
                <path d="M73.2511858,13.5492074 L60.1681529,27.0337078 L64.2973306,13.5492074 L73.2511858,13.5492074 Z" id="Path-124" fill="#9EBEC9" sketch:type="MSShapeGroup"></path>
            </g>
        </g>
    </g>
</svg>