<svg width="400px" height="250px" xmlns="http://www.w3.org/2000/svg" viewBox="0 0 400 250"><style>.st0{fill:#E9EFF4;} .st1{fill:#C8D7E2;} .st2{fill:#A6C1D1;} .st3{fill:#86A6BD;} .st4{fill:#74DCFC;} .st5{fill:#004F81;} .st6{fill:none;stroke:#004F84;stroke-linecap:round;stroke-linejoin:round;stroke-miterlimit:10;} .st7{fill:#004F84;} .st8{fill:#00A9DE;} .st9{fill:none;stroke:#00A9DE;stroke-width:8;stroke-linecap:round;stroke-linejoin:round;stroke-miterlimit:10;} .st10{fill:#FFFFFF;} .st11{fill:none;stroke:#F6F8FA;stroke-linecap:round;stroke-linejoin:round;stroke-miterlimit:10;} .st12{fill:#0084C0;} .st13{fill:none;stroke:#004F81;stroke-linecap:round;stroke-linejoin:round;stroke-miterlimit:10;} .st14{fill:none;stroke:#004F81;stroke-width:2;stroke-linecap:round;stroke-linejoin:round;stroke-miterlimit:10;} .st15{fill:none;stroke:#00A9DE;stroke-linecap:round;stroke-linejoin:round;stroke-miterlimit:10;} .st16{fill:none;stroke:#74DCFC;stroke-linecap:round;stroke-linejoin:round;stroke-miterlimit:10;} .st17{fill:none;stroke:#C7D6E1;stroke-width:0.8756;stroke-miterlimit:10;} .st18{opacity:0.5;fill:#C8D7E2;}</style><title>Empty results</title><path class="st0" d="M40.2 212.1c26.6-.6 53.3-.7 79.9-.8l79.9-.1c53.3.1 106.6.1 159.8.7.2 0 .4.2.4.4s-.2.4-.4.4c-53.3.7-106.6.6-159.8.7l-79.9-.1c-26.6-.1-53.3-.3-79.9-.8-.1 0-.2-.1-.2-.2s.1-.2.2-.2z"/><path class="st1" d="M177.3 75.8c3-1.7 11.4-1.1 14.4.3l-6.2 6.8"/><path class="st2" d="M179.2 67.7h10.5v15.1h-10.5z"/><path class="st2" d="M190.5 54.7c2.7 5.9 2.2 17.3-7.2 17.3s-9.9-11.4-7.2-17.3"/><path class="st3" d="M179.2 71.4v3.2s5.7-.6 8-3.2h-8z"/><path class="st2" d="M201.8 158.8l9.5 45.4-6.5 1.4-3.2-5.3c-1.8-7.1-4.7-9.2-7.3-22.5-.2-1.2-.6-2.3-1.1-3.4-1.5-3.2-4.6-10.9-4.3-18.6"/><path class="st2" d="M201.8 158.8l9.5 45.4-6.5 1.4-3.2-5.3c-1.8-7.1-4.7-9.2-7.3-22.5-.2-1.2-.6-2.3-1.1-3.4-1.5-3.2-4.6-10.9-4.3-18.6M167.8 157.5s3.4 34.3 2.8 46.2l3.5 1.9 4.9-4.2c.7-6.9 3.8-12.8 2.7-20.2-.5-3.4-.7-5.3 0-8.7 1-4.3 1.6-9.7.5-21.4"/><path class="st4" d="M163 160.2c-2.3-15.5-2.4-40.3 6.9-51.9 9.3-11.6 25.2-1.6 25.2-1.6 7.6 7.2 13.1 21.4 9.9 53.4"/><path class="st5" d="M189.9 69s1.6 2.3 5.1.3 2.3-6.9 2.3-6.9 2.3-1.5 1.6-5.4c-.5-3.3-4.2-4.5-4.2-4.5s.5-2.5-2.6-5.2c-3.7-3.1-8.4-.4-8.4-.4s-2.6-2.1-7.6-.6c-6.2 1.9-4.4 7.9-4.4 7.9-6.1 3-4.2 13.1 3.7 13.5 0 0-4.2-17.2 8.6-17.2 13.5 0 5.9 18.5 5.9 18.5M161.3 159.8c1.9-.2 3.8-.2 5.8-.2h28.8c3.8 0 7.7.1 11.5.3.1 0 .2.1.2.2s-.1.1-.2.2c-3.8.3-7.7.3-11.5.3h-28.8c-1.9 0-3.8.1-5.8-.2-.2 0-.3-.2-.3-.4 0 0 .1-.1.3-.2z"/><path class="st6" d="M190.5 54.7c2.7 5.9 2.2 17.3-7.2 17.3s-9.9-11.4-7.2-17.3"/><path class="st5" d="M175.3 49.7c.4 5.9 4.1 13.7 16.6 13.1 0 0 3.1-12.7-6.6-13.2"/><path class="st7" d="M175.3 77.3c-6-.3-14.6 10.7-17.9 14.7-.7.8-.5 2 .3 2.7l8.7 6.7 7.6-6.2M194.6 78c4.7 0 12.7 10 16 14 .7.8.5 2-.3 2.7l-7.8 6.6-2.1-2.1c3.1-13.6-5.8-21.2-5.8-21.2z"/><path class="st4" d="M201.1 91c0 18.3-6.5 20.9-16.9 21-9 .1-16.3 4.6-16.3-18.3 0-5.6 3.8-16.5 9.9-18.3l6.5 6.5 6.5-6.5c6.4 1.9 10.3 9.6 10.3 15.6z"/><path class="st5" d="M178 75.1c.7.4 1.2 1 1.8 1.5l1.7 1.6 3.3 3.3h-.8c1.1-1.1 2.2-2.1 3.3-3.2 1.1-1.1 2.2-2.1 3.5-3 .1-.1.2 0 .2 0v.2c-.9 1.3-1.9 2.4-3 3.5s-2.1 2.2-3.2 3.3c-.2.2-.6.2-.8 0l-3.3-3.3-1.6-1.7c-.5-.6-1.1-1.1-1.5-1.8-.1-.2 0-.4.1-.5.1.1.2.1.3.1zM195.3 106.5c1.9 1.4 3.4 3.4 4.7 5.4.6 1 1.2 2 1.7 3.1.3.5.5 1.1.8 1.6l.7 1.7c1.7 4.4 2.7 9.1 3.2 13.8.5 4.7.6 9.4.4 14.1l-.2 3.5-.4 3.5c-.1 1.2-.3 2.3-.5 3.5-.2 1.2-.4 2.3-.6 3.5 0 .1-.1.1-.2.1s-.1-.1-.1-.2c.3-4.7.9-9.3 1-14 .2-4.7.1-9.3-.4-14-.5-4.6-1.4-9.2-3.1-13.6l-.6-1.6c-.2-.5-.5-1-.7-1.6-.5-1.1-1.1-2-1.7-3-1.2-2-2.7-3.7-4.3-5.4-.1-.1-.1-.3 0-.5 0 0 .1 0 .3.1z"/><path class="st5" d="M201.9 89.7c.3.8.4 1.6.4 2.5v1.2l-.1 1.2c-.1 1.7-.3 3.3-.7 4.9-.4 1.6-.9 3.2-1.6 4.7-.6 1.5-1.4 3-2.6 4.2-.1.1-.2.1-.2 0-.1 0-.1-.1 0-.2.6-1.5 1.3-3 1.9-4.4.6-1.5 1.1-3 1.5-4.6.4-1.5.7-3.1.8-4.7l.1-1.2v-1.2c0-.8-.2-1.6 0-2.4 0-.2.2-.3.4-.3-.1.1 0 .2.1.3zM176.9 211.4c-.1-1.2 0-2.4.1-3.5.2-1.2.4-2.3 1.2-3.4.1-.2.4-.2.5-.1.1 0 .1.1.1.2.5 1.3.3 2.4.2 3.6-.2 1.2-.4 2.3-.8 3.4-.1.4-.5.5-.9.4-.2-.2-.4-.4-.4-.6z"/><path class="st7" d="M170.8 202.4c0-.5-.6-.7-.9-.4-6.7 6.6-11.7 8.9-10.7 10.3 2 2.5 16.1-2.7 18.2-4.1 2.2-1.4 2.7-3.2 1.5-6.7 0 0-3.1 2.5-5.7 2.3-1-.1-2.4-.8-2.4-1.4z"/><path class="st5" d="M202.5 210.7c-.4-1.1-.7-2.3-.8-3.4-.1-1.2-.3-2.3.2-3.6.1-.2.3-.3.5-.2.1 0 .1.1.2.1.8 1.1 1 2.2 1.2 3.4.2 1.2.2 2.3.1 3.5 0 .4-.4.7-.8.6-.3 0-.5-.2-.6-.4z"/><path class="st7" d="M210.3 201.6c0-.5.6-.7.9-.4 6.7 6.6 11.7 8.9 10.7 10.3-2 2.5-16.4-2.7-18.6-4.1-2.2-1.4-2.9-3.5-1.6-7 0 0 3.6 2.8 6.1 2.5 1-.1 2.5-.7 2.5-1.3z"/><g><path class="st5" d="M183.2 62.1c.2.7.2 1.3.2 2s0 1.3-.1 2c0 .2-.2.3-.4.3-.1 0-.3-.1-.3-.3-.1-.7-.1-1.3-.1-2s.1-1.3.2-2c0-.1.2-.2.3-.2.2.1.2.1.2.2z"/><path class="st7" d="M179.3 64.1c-.4 0-.7-.3-.7-.7v-1.1c0-.4.3-.7.7-.7.4 0 .7.3.7.7v1.1c0 .4-.3.7-.7.7zM186.6 64.1c-.4 0-.7-.3-.7-.7v-1.1c0-.4.3-.7.7-.7.4 0 .7.3.7.7v1.1c0 .4-.4.7-.7.7z"/><path class="st5" d="M181.9 68c.3.2.8.3 1.2.3.4 0 .8-.1 1.1-.4.1-.1.4-.1.5 0 .1.1.1.2.1.3-.1.3-.4.6-.7.8-.3.2-.7.2-1 .2-.3 0-.7-.1-1-.2-.3-.2-.6-.4-.8-.7-.1-.2 0-.4.2-.4s.3 0 .4.1zM179.8 59.4c-.3 0-.8 0-1.2.1-.4.1-.9.2-1.2.3h-.1c-.2.1-.4 0-.4-.2-.1-.1 0-.2 0-.3.4-.5 1-.7 1.5-.8.3-.1.6 0 .9 0 .3.1.6.1.9.4.1.1.1.3 0 .4-.1.1-.1.1-.2.1h-.2zM185 58.6c.4-.4.7-.5 1.1-.6.3-.1.6-.1 1 0 .6.1 1.2.4 1.7 1.1.2.3.1.7-.2.8-.1 0-.2.1-.3.1h-.5c-.3 0-.7 0-1.1-.1-.2 0-.4-.1-.6-.1-.2 0-.3-.1-.4-.2-.3.2-.7.1-.9-.2s-.1-.6.2-.8z"/></g><path class="st8" d="M215.8 124.6l-3.3 5-54.4-46.7 8-7.5 48.8 42c2.1 1.7 2.5 4.8.9 7.2z"/><ellipse transform="rotate(-56.468 145.167 61.48)" class="st9" cx="145.2" cy="61.5" rx="21.7" ry="21.7"/><path class="st2" d="M159 95.9c-6.4 7.3-4.4 16.7 1 19.3 9 4.2 21.7-15 22.8-16.7s4.5-2.4 5.7-4.7c1.2-2.3 1.5-5.4.6-6.5-.9-1.1-2 0-2 0-.7 2.9-4.4 5.3-4.4 5.3s2.1-3.9.6-3.9c-1.7 0-3.1 3.6-4.3 5.5-1.2 1.9-13.2 4.3-16.1 11.6l3.4-4.4"/><g><path class="st5" d="M187.5 87.3c-.2 1.3-.9 2.4-1.7 3.2-.8.9-1.7 1.7-2.7 2.4-.2.2-.6.1-.7-.1-.1-.2-.1-.4 0-.5.3-.6.6-1.2.8-1.8.1-.3.2-.6.2-.9.1-.3 0-.6 0-.5.1.1-.1 0-.3.1-.2.1-.4.3-.6.5-.4.4-.7 1-1.1 1.5-.3.6-.6 1.1-.9 1.7l-.5.9c-.2.3-.3.6-.7.9-.6.5-1.2.8-1.9 1.1-.6.3-1.2.6-1.8.8-2.4 1.1-4.8 2.1-7 3.6-2.2 1.4-4.1 3.2-5.4 5.5 0 .1-.1.1-.2.1s-.1-.1-.1-.2c.8-2.6 2.9-4.7 5.2-6.2 2.3-1.5 4.7-2.6 7.1-3.7.6-.3 1.2-.5 1.8-.8.6-.3 1.2-.6 1.6-.9.1-.1.3-.4.5-.7l.5-.9c.3-.6.6-1.2 1-1.8.4-.6.7-1.2 1.2-1.7.2-.3.6-.5.9-.7.2-.1.4-.2.7-.2h.4c.1 0 .3.1.5.2s.2.3.3.4c0 .1.1.3.1.4v.6c-.1.4-.2.7-.3 1-.2.7-.5 1.3-.9 1.9l-.7-.7c.9-.6 1.8-1.4 2.5-2.2.7-.8 1.4-1.7 1.8-2.7.1-.2.3-.2.4-.2 0 .3.1.4 0 .6z"/></g><path class="st2" d="M200.1 116.6c.7-6.4 5-12.3 5-12.3l-2.3-3.3 7.8-6.7c3.4 3.9 5.7 5.1 5.5 9.4-.1 4.3-9.5 14.6-9.5 14.6-2.5 3.3-5.9 7.2-7.5 7.6s-4.9 1-5.4-.8c-.7-2.3 2.6-3.8 4.9-4.9 1.2-.6.8-1.7-.3-1.3-1.2.3-2.8-.7-.5-1.5l2.3-.8z"/><g><path class="st5" d="M205.8 103.8c-.5.5-.8 1.1-1.1 1.7l-.9 1.8c-.6 1.3-1.1 2.5-1.6 3.8-.5 1.3-1 2.6-1.4 3.9l-.3 1-.1.2c0 .1 0 .2-.1.3-.1.3-.3.5-.5.6-.7.6-1.4.8-2.1 1-.3.1-.7.2-.9.3l.1-.1c.1-.1.1-.2.1-.3v-.1c0 .1 0 .1.1.2 0 .1.1.1.1.1.1.1.4.1.7.1.3 0 .7-.1 1.1 0 .1 0 .2 0 .4.1.1 0 .2.1.3.1.1.1.2.2.3.4 0 .4-.1.5-.2.6l-.3.3c-.3.3-.6.4-.9.6l-1.8 1.1c-.6.4-1.2.7-1.7 1.1-.5.4-1 .9-1.1 1.3 0 .7 0 1.3.4 1.6.5.3 1.2.4 1.8.5.1 0 .2.1.2.2s-.1.2-.2.2c-.7 0-1.5.1-2.2-.3-.4-.2-.6-.6-.7-1-.1-.4-.1-.8-.1-1.1 0-.5.3-.9.5-1.2.2-.3.5-.5.8-.8.6-.5 1.1-.9 1.7-1.3.6-.4 1.2-.8 1.8-1.1.3-.2.6-.4.8-.6.1-.1.1 0 .1-.1v.2c.1.2.2.2.2.2h-.1c-.5-.1-1.3.3-2.3-.2-.2-.1-.5-.4-.6-.6-.1-.1-.1-.2-.1-.3v-.1c0-.2 0-.3.1-.4.1-.2.2-.2.3-.2.5-.2.8-.3 1.1-.4.6-.2 1.3-.4 1.7-.7l.2-.2s0-.1.1-.2l.1-.3.3-1c.5-1.3.9-2.6 1.5-3.9.6-1.3 1.1-2.6 1.8-3.8.7-1.2 1.4-2.5 2.6-3.3h.1s-.1 0-.1.1z"/></g><g><path class="st10" d="M110.7 162.3c6.7-5.1 7-16.1.8-28.3-6.3-12.2-23.6-24.6-31.7-12.3s16.5 47.6 26.6 42.2"/><path class="st1" d="M110.6 162.3c2.1-1.6 3.5-4 4.3-6.5.7-2.5.9-5.2.6-7.8-.6-5.2-2.5-10.2-5-14.8-2.6-4.5-6.2-8.5-10.4-11.6-2.1-1.5-4.4-2.8-6.8-3.7-2.4-.8-5.1-1.1-7.5-.3-2.4.7-4.4 2.5-5.7 4.7-1.3 2.2-1.5 4.8-1.2 7.4.5 5.2 2.6 10.1 5 14.8 2.5 4.6 5.5 9 9.1 12.9 1.8 1.9 3.8 3.7 6 5.1 1.1.7 2.3 1.3 3.5 1.6 1.2.3 2.6.3 3.7-.3.1-.1.2 0 .3.1.1.1 0 .2-.1.3-1.2.7-2.7.7-4 .5-1.3-.3-2.6-.9-3.8-1.5-2.3-1.4-4.3-3.2-6.2-5.1-3.7-3.9-6.8-8.2-9.4-12.9-1.3-2.3-2.4-4.8-3.3-7.3-.9-2.5-1.6-5.1-1.9-7.8-.3-2.7-.1-5.6 1.3-8.1 1.4-2.4 3.6-4.4 6.3-5.2 2.7-.8 5.6-.5 8.2.4 2.6.9 5 2.3 7.1 3.8 4.3 3.2 8 7.3 10.6 12 1.3 2.4 2.4 4.8 3.2 7.4.8 2.5 1.5 5.2 1.7 7.9.2 2.7 0 5.4-.8 8-.9 2.6-2.4 4.9-4.6 6.5h-.1c-.1-.4-.1-.5-.1-.5z"/><path class="st10" d="M121.2 169c-4.4-6.9-1.5-18.7 6.9-26.2l2.4 8.4 1.3-9.5c3.2-1.1 8.3-1 11 1.9 11.3 12-9 30.8-18.3 26.7"/><path class="st1" d="M121.2 169.1c-1.3-2.1-2-4.5-2.2-7-.1-2.5.2-4.9.9-7.3 1.4-4.7 4.3-9 8-12.3.2-.2.5-.2.7 0 .1.1.1.1.1.2l2.4 8.4-1 .1 1.2-9.5c0-.2.2-.4.4-.4 2.2-.7 4.5-.9 6.8-.5 1.1.2 2.2.6 3.3 1.2 1 .6 1.9 1.5 2.5 2.4 1.4 1.8 2.3 4 2.5 6.3.2 2.3-.3 4.6-1.1 6.7-1.7 4.2-4.8 7.6-8.4 10.2-1.8 1.3-3.8 2.4-5.9 3-2.1.6-4.5.8-6.6-.1-.1 0-.1-.2-.1-.3 0-.1.2-.1.3-.1 2 .8 4.2.5 6.3-.2 2-.7 3.9-1.8 5.7-3 3.4-2.6 6.3-6 8-10 .8-2 1.2-4.1 1-6.2-.2-2.1-1-4.1-2.3-5.7-.7-.8-1.4-1.6-2.2-2.1-.9-.5-1.9-.9-2.9-1.1-2-.4-4.2-.2-6.2.4l.4-.4-1.3 9.5c0 .3-.3.5-.6.4-.2 0-.4-.2-.4-.4l-2.3-8.4.8.2c-3.6 3.1-6.4 7.2-7.9 11.8-.8 2.3-1.2 4.7-1.1 7.1 0 2.4.6 4.8 1.8 6.9v.1l-.6.1z"/><path class="st0" d="M118.2 177.2c.2-2.5 1-4.9 2-7.2 1.1-2.3 2.4-4.4 4-6.4 3.2-3.9 6.9-7.3 10.9-10.2.1-.1.2 0 .3 0 .1.1 0 .2 0 .3-3.5 3.5-7.3 6.7-10.2 10.6-1.5 1.9-2.9 3.9-3.9 6.1-1.1 2.2-2 4.5-2.7 6.8 0 .1-.1.1-.1.1-.3 0-.4 0-.3-.1zM111.3 177.2c-.3-4.8-.6-9.6-1.4-14.3-.8-4.7-2.1-9.4-3.9-13.8-1.8-4.4-4.3-8.6-7.4-12.2-3.1-3.7-6.7-6.8-10.7-9.5-.1-.1-.1-.2-.1-.3.1-.1.2-.1.3-.1 4.2 2.4 8 5.5 11.2 9.2 3.2 3.7 5.7 7.9 7.6 12.4 1.9 4.5 3.2 9.2 3.9 14 .7 4.8.9 9.7.6 14.5.1.2.1.2-.1.1.1.1.1.1 0 0z"/><g><path class="st0" d="M114.4 211.9c-2.6.1-5.2-.5-7.5-1.7s-4.4-2.9-6-4.9c-3.2-4.1-4.7-9.6-4.1-14.8v-.1l3.9-13.4c.1-.2.3-.4.5-.4h26.4c.2 0 .4.2.5.4l3.9 13.4v.1c.6 5.2-.9 10.7-4.1 14.8-1.6 2.1-3.7 3.8-6 5-2.3 1.2-4.9 1.8-7.5 1.6zm0-.3c2.5 0 5.1-.7 7.3-1.9s4.2-2.9 5.7-4.9c3.1-4 4.3-9.2 3.7-14.2v.1l-4-13.3.5.4h-26.4l.5-.4-4 13.3v-.1c-.3 2.5-.1 5 .5 7.5.6 2.4 1.7 4.7 3.2 6.7 1.5 2 3.4 3.7 5.6 4.9 2.3 1.3 4.8 2 7.4 1.9z"/></g><g><path class="st10" d="M97.2 183.7h35.5"/><path class="st1" d="M97.2 183.6c3-.3 5.9-.3 8.9-.4l8.9-.1c5.9.1 11.8 0 17.7.4.1 0 .2.1.2.2s-.1.2-.2.2c-5.9.3-11.8.3-17.7.4l-8.9-.1c-3-.1-5.9-.1-8.9-.4 0 0-.1-.1 0-.2-.1 0 0 0 0 0z"/></g></g><g><path class="st12" d="M268.4 147.6c-.3 14.6-2.6 27.9-2.9 32.3 0 .9-.8 1.6-1.7 1.6h-12.6l-1.7-19.7-2.3 19.7h-12.8c-.9 0-1.7-.7-1.7-1.7l-2.4-31.1 6.1-10.6h30.4"/><path class="st4" d="M258.2 114l6.4 2.8 9.3-4.5c-6.8-19.7-18.3-20.7-18.3-20.7l-5.3 3.6-5.4-3.6c-12.2 3-16.5 18.1-16.5 23l9.1 2.5-.8 21.1h32.2l-.5-9.1s-10.3-9.3-11.5-10.4"/><path class="st10" d="M253.1 109.3c-.5-1.6.5-2.2 1.3-1.4l1.3 2.5"/><path class="st12" d="M261.2 137.2l6.7-4.3-25.8-40.4c-3.8 1.5-6.7 5.1-6.7 5.1l25.8 39.6z"/><path class="st10" d="M273.6 130.2c-4.9 1.7-16.6-11.6-16.6-11.6s-3.2 0-4-3.7c-.6-2.6-2.8-1.9-4.1-1.3-.5.2-1-.1-1-.6 0-1.6 1.1-3 2.7-3.4 2.3-.5 4.6.4 6.1 2l-2.2-3.7 3.7 6.1 10.7 4.7"/><path class="st5" d="M243 70.4c-.5 1.8-1 3.6-1.2 5.4-.2 1.8-.1 3.7.3 5.5.4 1.8 1.2 3.5 2.5 4.7 1.3 1.2 3 1.9 4.8 2.1 1.8.2 3.6-.3 5.1-1.2 1.6-.9 2.9-2.2 3.9-3.7s1.7-3.3 2.1-5.1c.4-1.8.4-3.7-.2-5.4 0-.1 0-.2.1-.2s.2 0 .2.1c.9 1.7 1.1 3.8.8 5.7-.3 1.9-1 3.8-2.1 5.5-1.1 1.6-2.5 3.1-4.2 4.1-1.7 1-3.7 1.5-5.8 1.4-1-.1-2-.3-2.9-.7-.9-.4-1.8-1-2.5-1.7-1.5-1.4-2.3-3.3-2.7-5.3-.4-1.9-.5-3.9-.3-5.8s.6-3.9 1.6-5.6c.1-.2.3-.2.5-.1v.3z"/><path class="st5" d="M249 79.3l.1 2.3c0 .3-.2.5-.5.5s-.5-.2-.5-.5v-.1l.1-2.3c0-.2.2-.4.4-.4.3.1.4.3.4.5z"/><path class="st13" d="M252 78.9v.8M245.2 78.9v.8"/><path class="st5" d="M268.8 119c-.8-.1-1.5-.5-2.2-.8l-2.2-.9-4.3-1.8-1.1-.5-.5-.2c-.2-.1-.5-.3-.6-.4-.2-.2-.4-.4-.5-.6l-.3-.5-.6-1c-.8-1.3-1.6-2.7-2.4-4l.1.1-.3-.3c-.1 0-.2 0-.3.1-.1.1-.2.3-.2.5v.7c0 .1-.1.2-.2.2s-.1 0-.2-.1c-.2-.5-.4-1.1-.1-1.7.2-.3.6-.6 1-.5.4 0 .7.2.9.5.9 1.3 1.7 2.6 2.5 4l.6 1 .3.5c.1.2.2.2.3.3.1.1.2.2.3.2l.5.2 1.1.5 4.3 1.9 2.1 1c.7.3 1.4.6 2.1 1.1.1.1.2.3.1.5 0-.1-.1 0-.2 0z"/><path class="st5" d="M256.4 111.8c-.4-.1-.6-.4-.9-.6-.3-.2-.6-.4-.8-.6-.6-.4-1.2-.6-1.9-.7-.6-.1-1.3-.1-1.9.1-.6.2-1.3.5-2 .7-.1 0-.2 0-.2-.1v-.1c.4-.7 1.1-1.1 1.9-1.4.8-.3 1.6-.4 2.4-.2.8.1 1.6.5 2.2.9.3.2.6.5.9.7.3.3.6.5.7.9 0 .2-.1.4-.3.5 0-.1-.1-.1-.1-.1z"/><path class="st5" d="M253.8 112.2c-.4 0-.5-.2-.7-.3-.2-.1-.4-.3-.7-.4-.4-.2-.9-.3-1.4-.4-.5-.1-.9-.1-1.4.1-.4.1-.9.3-1.5.4-.1 0-.2-.1-.2-.2v-.1c.2-.6.8-1 1.4-1.1.6-.2 1.2-.3 1.8-.2.6.1 1.2.3 1.7.6.3.1.5.3.7.5.2.2.5.3.6.6.2.2 0 .4-.3.5.1 0 .1 0 0 0zM263.1 116.4c-.4-.1-.5-.4-.6-.7l-.5-.7c-.3-.5-.6-1.1-.9-1.6-.3-.5-.5-1.1-.7-1.7-.2-.6-.4-1.1-.4-1.8 0-.1.1-.2.2-.2h.1c.5.4.8 1 1 1.5l.8 1.6.8 1.6.4.8c.1.3.4.5.3.8 0 .3-.2.5-.5.4zM230.8 114.5c0 1.3-.4 2.4-.6 3.6-.2 1.2-.5 2.4-.7 3.6-.4 2.4-.6 4.8-.6 7.3 0 2.4.3 4.8.8 7.2.5 2.4 1 4.8 1.4 7.2 0 .1 0 .2-.1.2s-.2 0-.2-.1c-.9-2.3-1.6-4.7-2-7.1-.5-2.4-.8-4.9-.9-7.4-.1-2.5.2-5 .7-7.4.2-1.2.5-2.4.7-3.6.3-1.2.5-2.4 1-3.6.1-.2.3-.3.4-.2 0 0 .1.2.1.3zM233.2 123.6c0 .4 0 .9-.1 1.3s-.2.8-.5 1.2c-.1.1-.2.1-.3 0-.3-.5-.2-1-.1-1.4.1-.4.2-.9.5-1.3.1-.2.3-.2.5-.1-.1 0 0 .1 0 .3z"/><path class="st15" d="M236.6 138l-6 10.7"/><path class="st5" d="M262.8 182.7c.2 1.1.1 2.2 0 3.3l-.1 3.3c-.1 2.2-.1 4.4-.3 6.6l-.3 6.6c-.1 2.2-.2 4.4-.6 6.6 0 .1-.1.2-.2.1-.1 0-.1-.1-.1-.2-.2-2.2-.2-4.4-.1-6.6l.2-6.6.3-6.6.2-3.3c.1-1.1 0-2.2.3-3.3 0-.2.2-.3.4-.2.2.1.3.2.3.3zM252.5 182.7c.3 1.1.3 2.2.5 3.3l.3 3.3c.2 2.2.4 4.5.6 6.7l.5 6.7c.2 2.2.3 4.5.2 6.7 0 .1-.1.2-.2.2s-.1-.1-.2-.1c-.5-2.2-.7-4.4-.9-6.7l-.6-6.7c-.2-2.2-.4-4.5-.5-6.7l-.3-3.3c-.1-1.1-.2-2.2-.1-3.4 0-.2.2-.3.4-.3.1.1.3.2.3.3zM268 165.8c-.4.2-.8.1-1.2.2h-6c-.8 0-1.6 0-2.4-.3-.1 0-.1-.1-.1-.2s.1-.1.1-.1c.8-.3 1.6-.3 2.4-.3h6c.4 0 .8-.1 1.2.2.2.1.2.3.1.5 0-.1 0 0-.1 0z"/><path class="st5" d="M267.7 169.5c-.4.2-.9.1-1.3.2h-3.2c-.2 0-.5 0-.7-.1-1-.2-1.9-.7-2.5-1.5-.3-.4-.5-.8-.6-1.3-.1-.5-.1-.9 0-1.4 0-.1.1-.2.2-.1.1 0 .1 0 .1.1.2.4.4.8.5 1.1.2.3.3.7.6.9.5.6 1.1.9 1.9 1h3.7c.4 0 .9-.1 1.3.2.2.1.2.3.1.5 0 .3 0 .3-.1.4zM237.8 161.3c-.2.2-.4.1-.6.2h-.6l-1.2.1-1.2.1c-.4 0-.8.1-1.2-.1-.1 0-.1-.2-.1-.3v-.1c.3-.4.8-.5 1.2-.5.4-.1.8-.1 1.2-.2h1.9c.2 0 .4 0 .6.2.2.2.2.4 0 .6z"/><path class="st4" d="M255.2 64.6c-.3 3.3 2.7 20.8 2.7 20.8 3.3-.2 7.4-11 3.7-18.1-2.3-4.6-6.4-2.7-6.4-2.7z"/><path class="st4" d="M257.2 67.1s-4.2 6.2-6 6.6c-2.6.6-10.9-.2-10.9-.2s1.3-9.3 8.4-10.2c7.1-.9 8.2 3.8 8.2 3.8"/><path class="st5" d="M250.9 76.2c.2-.4.6-.5.9-.6.3-.1.7-.1 1 0 .6.1 1.2.4 1.7.9.1.1.1.3 0 .5-.1.1-.2.1-.4 0h-.1c-.4-.2-.9-.3-1.4-.4-.5-.1-.9-.1-1.3.1h-.1c-.2.1-.4 0-.4-.2.1-.1.1-.2.1-.3zM245.7 76.7c-.3-.1-.8-.1-1.3-.1-.5.1-1 .2-1.4.4h-.1c-.2.1-.4 0-.4-.2-.1-.1 0-.3 0-.4.5-.6 1.1-.8 1.7-.9.3-.1.7-.1 1 0 .3.1.7.3.9.6.1.2 0 .4-.1.5 0 .2-.1.2-.3.1zM250.2 83.9c-.1.3-.4.5-.7.7-.3.1-.6.2-.9.2-.3 0-.6-.1-.9-.2-.3-.2-.6-.4-.7-.7-.1-.2 0-.4.2-.4.1 0 .2 0 .3.1.3.2.6.3 1 .3s.8-.1 1.1-.3h.1c.2-.1.4 0 .5.1.1 0 .1.1 0 .2z"/><path class="st16" d="M255.5 68.1s.4 2.9-2.8 5.7"/><path class="st5" d="M237.3 106.8c-.3 1.3-.7 2.5-.9 3.7-.2 1.2-.1 2.5.2 3.7.3 1.2.8 2.4 1.3 3.6.1.3.2.7.3 1.1.1.4 0 .7.1 1v2c-.1 2.6-.3 5.3-.5 7.9-.2 2.6-.4 5.2-.9 7.8 0 .1-.1.2-.2.1-.1 0-.1-.1-.1-.2-.1-2.6 0-5.3.2-7.9.2-2.6.3-5.2.4-7.9v-2-.9c0-.3-.1-.5-.2-.8-.4-1.2-1-2.4-1.3-3.8-.3-1.3-.3-2.8-.1-4.1.2-1.3.6-2.7 1.3-3.8.1-.2.3-.2.5-.1-.2.3-.1.4-.1.6z"/><path class="st10" d="M268.8 162.1l15.5-7.2c-2.6-9.1-10.4-19.3-13.5-23.1-.7-.9-2-1.2-3.1-.7l-7.3 3.8c-1.1.5-1.6 1.8-1.3 2.9 1.3 4.7 4.8 16.4 9.7 24.3z"/><path class="st12" d="M268.8 161.8l.1-.1c2.6-1.4 5.1-2.6 7.6-3.8l7.6-3.6-.3.6c-1.6-5.4-4.5-10.3-7.6-15-1.6-2.3-3.3-4.6-5-6.8l-.7-.8c-.2-.3-.4-.5-.6-.6-.5-.3-1.1-.4-1.6-.2-.1 0-.3.1-.4.2l-.5.2-.9.5-1.9 1-3.8 2c-.6.3-1 .7-1.1 1.2-.1.3-.1.6-.1.8 0 .3.1.6.2.9.8 2.7 1.6 5.4 2.6 8.1.9 2.7 1.9 5.3 3 7.9.5 1.3 1.1 2.6 1.7 3.9.3.6.6 1.3.9 1.9.2.6.5 1.1.8 1.7zm0 .6l-.1-.1c-.4-.6-.9-1.3-1.2-1.9-.4-.6-.7-1.2-1.1-1.9-.7-1.3-1.3-2.5-1.9-3.8-1.2-2.6-2.2-5.3-3.2-7.9-.9-2.7-1.8-5.4-2.6-8.1-.1-.3-.2-.7-.3-1.1 0-.4 0-.9.1-1.3.3-.8.9-1.5 1.7-1.8l3.8-2 1.9-1 .9-.5.5-.2c.2-.1.4-.2.6-.2.8-.2 1.8-.1 2.5.4.4.2.7.6.9.8l.7.8c1.8 2.2 3.5 4.5 5.1 6.9 3.2 4.8 6 9.8 7.7 15.3.1.2-.1.5-.3.6l-7.9 3.6c-2.7 1.2-5.3 2.3-7.8 3.4z"/><path class="st5" d="M271.8 112.8c.9 1.4 1.6 3 2.3 4.5.7 1.5 1.4 3.1 1.9 4.7s1.1 3.3.8 5.2c-.1.9-.6 1.9-1.3 2.5-.4.3-.8.6-1.2.7l-.6.3c-.2.1-.5.1-.7.1-1 .1-1.9-.2-2.7-.5-.8-.3-1.6-.8-2.3-1.2-1.5-.9-2.8-2-4.1-3.1-2.6-2.2-5-4.6-7.2-7.2l.4.2c-1.1-.1-2.1-.5-2.9-1.3-.8-.7-1.2-1.7-1.5-2.7-.2-.9-.5-1.7-1.3-1.9-.8-.2-1.7.2-2.5.6-.1 0-.2 0-.2-.1v-.2c.4-.3.8-.6 1.3-.8.5-.2 1-.3 1.6-.2.6.1 1.1.5 1.4.9.3.5.5 1 .6 1.4.2.9.6 1.7 1.3 2.2.6.6 1.5.9 2.3 1 .1 0 .3.1.4.2 2.2 2.5 4.6 4.9 7.2 7 1.3 1.1 2.6 2.1 4 3 .7.4 1.4.8 2.2 1.1.7.3 1.5.5 2.2.5.3 0 .7-.1 1-.3.4-.1.6-.4.9-.6.6-.5.9-1.1 1-1.9.2-1.5-.2-3.1-.7-4.7-.5-1.6-1.2-3.1-1.9-4.7-.7-1.5-1.4-3-2-4.6-.1-.2 0-.4.2-.4-.2.1 0 .1.1.3zM254.2 211c.1.5.5.9 1 .9 12.7.1 16 1.6 16.7-.8.6-2-12.8-4.9-17-5.4-.7-.1-1.2.5-1.1 1.1l.4 4.2zM236 182.3c.3 1 .3 2 .3 3l.2 3 .4 5.9.3 5.9c.1 2 .2 4 0 6 0 .1-.1.2-.2.2s-.1-.1-.2-.1c-.4-2-.6-3.9-.7-5.9l-.4-5.9-.3-5.9-.1-3c0-1-.2-2 0-3 0-.2.2-.3.4-.3.2-.1.3 0 .3.1zM250 160.6c0 2-.3 4-.5 6l-.7 6c-.5 4-.9 8-1.4 12l-1.5 12c-.5 4-1 8-1.8 12 0 .1-.1.2-.2.1-.1 0-.1-.1-.1-.2.2-4 .6-8.1 1.1-12.1l1.4-12 1.5-12 .7-6c.3-2 .4-4 .9-6 0-.2.2-.3.4-.2.1.1.2.2.2.4z"/><path class="st5" d="M244.6 211c-.1.5-.5.9-1 .9-12.7.1-16 1.6-16.7-.8-.6-2 12.8-4.8 17.1-5.4.7-.1 1.2.5 1.1 1.1l-.5 4.2z"/><g><path class="st5" d="M247.3 88.4c.2.1.2.2.2.3v1c-.1.5-.3 1-.6 1.5-.4.4-.8.7-1.3.8-.4.1-.8.2-1.2.4-.8.3-1.5.6-2.3 1-.8.4-1.5.7-2.3 1-.1 0-.2 0-.2-.1v-.2c.6-.7 1.3-1.2 2.1-1.6.8-.4 1.6-.8 2.4-1.1.4-.2.8-.3 1.3-.4.3-.1.6-.3.8-.5.2-.2.4-.5.4-.8V88.8c0-.1 0-.2.2-.3.1-.2.3-.2.5-.1z"/></g></g><g><path class="st5" d="M255.7 88.5c.2 1 .3 2 .4 3 0 .1-.1.3-.2.3-.9.6-1.7 1.3-2.6 1.9l-2.7 1.8c-.2.1-.4.1-.6 0-.9-.6-1.8-1.2-2.7-1.9-.9-.6-1.7-1.3-2.6-2-.1-.1-.1-.2 0-.3.1-.1.2-.1.2 0 1 .5 1.9 1 2.8 1.6.9.5 1.8 1.1 2.7 1.7h-.6l2.7-1.8c.9-.6 1.8-1.2 2.7-1.7l-.2.4c.1-1 .2-2 .4-3 .1-.1.2-.1.3 0 0-.1 0 0 0 0z"/></g><g><path class="st10" d="M307.9 175.1c.8-.5 1-1.6.4-2.3-.7-.8-1.8-1.6-3.3-1.7-2.8-.2-4.7 1.9-4.7 1.9s1.3 2.6 4.2 2.8c1.5.2 2.6-.2 3.4-.7zM310.7 170c.9-.3 1.3-1.3.9-2.1-.5-.9-1.3-2-2.8-2.4-2.7-.9-5 .7-5 .7s.7 2.8 3.5 3.8c1.4.4 2.6.3 3.4 0zM300.2 172.8s0-3-2.5-4.5c-1.3-.7-2.6-.8-3.5-.7-.9.1-1.5 1-1.2 1.9.3.9 1 2.1 2.3 2.8 2.5 1.6 4.9.5 4.9.5zM303.7 166.1s.4-3-1.8-4.8c-1-.8-2-1.1-2.9-1.2-1.2-.1-2.1 1-1.8 2.2.2.9.7 1.9 1.7 2.7 2.3 1.8 4.8 1.1 4.8 1.1z"/><path class="st17" d="M298.9 185.8c0-10.1.2-15.5 6.6-21.6"/><g><path class="st1" d="M298.4 179.5l-.1-.1-.2-.3c-.1-.2-.3-.3-.4-.5-.3-.3-.6-.6-.9-.8-.6-.5-1.3-.8-2-1-.7-.2-1.5-.1-2.2.1-.4.1-.7.2-1.1.4-.3.1-.4.3-.5.5-.1.2 0 .5.1.7.2.3.5.6.8.8.6.5 1.3.8 2 1 .8.2 1.5.2 2.3 0 .4-.1.8-.2 1.1-.3.2-.1.4-.2.5-.3l.3-.2h.3s0-.1 0 0zm.3.3l-.2.2-.3.2c-.2.1-.4.3-.6.4l-1.2.6c-.9.3-1.8.4-2.7.2-.9-.1-1.8-.6-2.6-1.1-.4-.3-.7-.6-1-1-.4-.5-.5-1.2-.3-1.7.1-.6.6-1.1 1.1-1.3.4-.2.9-.4 1.3-.5.9-.2 1.9-.2 2.8 0 .9.2 1.8.8 2.4 1.5.3.3.6.7.8 1.1l.3.6.1.3v.4l.1.1z"/><path class="st1" d="M306.7 181c.3-.3.4-.8.4-1.1 0-.2-.1-.4-.2-.5l-.4-.4c-.7-.5-1.5-.9-2.4-1-.8-.1-1.7.1-2.5.5s-1.5.9-2 1.5v-.7c.3.5.8 1 1.3 1.4.5.4 1.1.7 1.8.8 1.2.3 2.7.1 4-.5zm.2.3c-1.2 1-2.8 1.5-4.4 1.3-.8-.1-1.6-.4-2.3-.9-.7-.5-1.2-1-1.7-1.7-.1-.2-.1-.5 0-.7.7-.9 1.5-1.5 2.5-2 1-.4 2.1-.6 3.2-.5 1.1.2 2.1.7 2.8 1.4.2.2.4.4.5.7.1.3.2.6.2.9-.1.6-.4 1.2-.8 1.5zM307.9 175c.3-.3.5-.7.5-1.1 0-.2-.1-.4-.2-.5-.1-.1-.2-.3-.4-.4-.7-.6-1.5-1-2.3-1.2-.8-.1-1.7 0-2.5.3s-1.6.8-2.2 1.4l.1-.7c.3.5.7 1.1 1.2 1.5.5.4 1.1.8 1.7 1 1.3.3 2.7.2 4.1-.3zm.1.3c-1.3.9-2.9 1.3-4.5.9-.8-.2-1.5-.5-2.2-1.1-.6-.5-1.2-1.1-1.6-1.8-.1-.2-.1-.5.1-.7.8-.8 1.6-1.4 2.7-1.8 1-.4 2.1-.4 3.2-.2s2 .9 2.7 1.7c.2.2.4.4.5.7.1.3.1.6.1.9-.1.6-.5 1.1-1 1.4zM310.7 169.9c.4-.2.7-.6.7-1v-.5c-.1-.2-.2-.3-.3-.5-.5-.7-1.2-1.3-1.9-1.7-.8-.3-1.7-.4-2.5-.4-.8.1-1.7.4-2.4.8l.2-.7c.1.6.5 1.2.8 1.7.4.5.9 1 1.4 1.3 1.1.7 2.6 1 4 .7v.3zm.1.3c-1.4.5-3.1.5-4.6-.2-.7-.4-1.4-.9-1.9-1.5-.5-.7-.9-1.3-1.1-2.2-.1-.2 0-.5.2-.6.9-.6 1.9-1 3-1.1 1.1-.1 2.2.1 3.2.6s1.8 1.3 2.2 2.3c.1.2.3.5.3.8 0 .3 0 .6-.1.9-.2.5-.7.9-1.3 1h.1z"/><path class="st1" d="M300 172.6v-.1l-.1-.3c-.1-.2-.1-.4-.2-.6-.1-.4-.3-.7-.5-1.1-.4-.7-.9-1.2-1.6-1.6-.6-.4-1.4-.6-2.1-.7h-1.1c-.3 0-.5.2-.6.3-.1.2-.2.4-.1.7.1.3.3.7.4 1 .4.7.9 1.2 1.6 1.6.7.4 1.4.7 2.2.8.4.1.8.1 1.2.1.2 0 .4 0 .6-.1l.3-.1v.1c.1 0 .1 0 0 0zm.2.4l-.3.1-.3.1c-.2.1-.4.1-.6.2-.4.1-.9.1-1.4.1-.9 0-1.8-.3-2.7-.7-.8-.4-1.5-1.1-2-1.9-.3-.4-.4-.8-.6-1.3-.2-.6-.1-1.2.3-1.7.3-.5 1-.8 1.5-.9h1.4c.9.1 1.9.4 2.6 1 .8.5 1.4 1.3 1.7 2.2.2.4.3.9.4 1.3V173zM303.6 165.9v-.4c0-.2-.1-.4-.1-.6-.1-.4-.2-.8-.4-1.1-.3-.7-.7-1.3-1.3-1.8-.6-.5-1.3-.8-2-1-.2 0-.4-.1-.6-.1h-.5c-.3 0-.5.1-.7.3-.2.2-.3.4-.3.7 0 .2.1.6.3 1 .3.7.7 1.3 1.3 1.8.6.5 1.3.9 2 1.1.4.1.8.2 1.2.2H303.4l.2-.1zm.1.4l-.3.1-.3.1c-.2 0-.4.1-.7.1-.4 0-.9 0-1.3-.1-.9-.1-1.8-.5-2.5-1.1-.8-.5-1.4-1.3-1.7-2.2-.2-.4-.4-.8-.4-1.5 0-.6.2-1.2.6-1.6.4-.4 1-.7 1.5-.7h.7c.2 0 .5.1.7.1.9.3 1.7.7 2.4 1.4.7.6 1.2 1.5 1.4 2.4.1.4.1.9.1 1.3 0 .2 0 .4-.1.7l-.1.3v.7z"/><path class="st1" d="M298.8 185.8c-.3-2-.4-3.9-.4-5.9 0-2 .2-4 .6-5.9.5-2 1.2-3.9 2.3-5.6 1.1-1.7 2.5-3.2 4-4.4.1-.1.2-.1.3 0 .1.1.1.2 0 .3-1.3 1.5-2.5 3-3.4 4.6-1 1.6-1.6 3.4-2 5.3-.4 1.9-.6 3.8-.7 5.7-.1 1.9-.2 3.9-.5 5.8 0 .2-.1.3-.2.1 0 .1 0 .1 0 0z"/><path class="st18" d="M296.7 185.7l10.2-.3c.2 0 .4.2.4.4v.2c-.9 2-1.9 4-2.9 5.9v-.5c1.1 2 1.9 4.1 2.4 6.3s.9 4.4.6 6.7c-.3 2.3-1.3 4.6-3.1 6.1-1.9 1.5-4.3 2.1-6.6 2.1v-1.3h.2c.4 0 .6.3.6.6 0 .4-.3.6-.6.6-2.3 0-4.7-.6-6.6-2.1-1.9-1.5-2.9-3.8-3.1-6.1-.3-2.3.1-4.6.6-6.7.6-2.2 1.4-4.3 2.4-6.3v.5l-2.9-5.9c-.1-.2 0-.5.2-.6h.2l10.2.2v.5h-2.2v-.3zm0-.1h2.2c.1 0 .3.1.3.3s-.1.3-.3.3l-10.2.2.4-.6 3.1 5.8c.1.1.1.3 0 .5-1 1.9-1.7 4-2.2 6.1-.5 2.1-.8 4.3-.5 6.3.2 2.1 1.1 4 2.7 5.3 1.6 1.3 3.7 1.8 5.8 1.8v1.3h-.2c-.4 0-.6-.3-.6-.6s.3-.6.6-.6c2.1 0 4.2-.5 5.8-1.8 1.6-1.3 2.5-3.2 2.7-5.3.3-2.1 0-4.2-.5-6.3-.5-2.1-1.3-4.1-2.2-6.1-.1-.1-.1-.3 0-.5 1-1.9 2-3.9 3.1-5.8l.4.6-10.2-.3v-.6z"/></g></g></svg>
