<?xml version="1.0" encoding="UTF-8" standalone="no"?>
<svg width="400px" height="250px" viewBox="0 0 400 250" version="1.1" xmlns="http://www.w3.org/2000/svg" xmlns:xlink="http://www.w3.org/1999/xlink" xmlns:sketch="http://www.bohemiancoding.com/sketch/ns">
    <!-- Generator: Sketch 3.2.2 (9983) - http://www.bohemiancoding.com/sketch -->
    <title>drake-500</title>
    <desc>Created with Sketch.</desc>
    <defs></defs>
    <g id="Page-1" stroke="none" stroke-width="1" fill="none" fill-rule="evenodd" sketch:type="MSPage">
        <g id="drake-500" sketch:type="MSArtboardGroup">
            <g id="Group" sketch:type="MSLayerGroup" transform="translate(141.000000, 26.000000)">
                <path d="M34.7397944,54.350586 C36.996142,49.5400391 28.2201175,50.1496695 26.1609369,52.1848144 C27.2522455,56.2749023 27.3340326,59.3850098 27.2400385,63.1542973 C29.6943842,60.9782715 32.6476938,58.8109572 34.7397944,54.350586 Z" id="Oval-21" fill="#9EBEC9" sketch:type="MSShapeGroup" transform="translate(30.634318, 56.910464) scale(-1, 1) translate(-30.634318, -56.910464) "></path>
                <path d="M33.6967681,54.350586 C35.9531158,49.5400391 26.105707,57.0532875 26.1933543,59.3158245 C26.2415957,60.5611314 26.2303808,61.8161763 26.1970122,63.1542973 C28.6513579,60.9782715 31.6046675,58.8109572 33.6967681,54.350586 Z" id="Oval-26" fill="#7BA6B4" sketch:type="MSShapeGroup" transform="translate(30.112804, 57.963551) scale(-1, 1) translate(-30.112804, -57.963551) "></path>
                <path d="M92.6848603,172.959681 C84.4745662,168.224441 68.2158851,165 49.5,165 C22.5088435,165 0.628187919,171.706203 0.628187919,179.978723 C0.628187919,185.554667 10.5689891,190.419003 25.3151397,192.997765 C33.5254338,197.733006 49.7841149,200.957447 68.5,200.957447 C95.4911565,200.957447 117.371812,194.251244 117.371812,185.978723 C117.371812,180.40278 107.431011,175.538444 92.6848603,172.959681 Z" id="Oval-33" fill-opacity="0.278051404" fill="#D5E5EB" sketch:type="MSShapeGroup"></path>
                <path d="M73.7995882,176.196683 C69.9056551,173.15395 60.2533601,171 48.9627616,171 C34.2300887,171 22.2868975,174.667455 22.2868975,179.191489 C22.2868975,183.099851 31.2005959,186.368911 43.125935,187.186296 C47.0198681,190.229029 56.6721631,192.382979 67.9627616,192.382979 C82.6954345,192.382979 94.6386257,188.715524 94.6386257,184.191489 C94.6386257,180.283128 85.7249273,177.014068 73.7995882,176.196683 Z" id="Oval-18" fill="#D5E5EB" sketch:type="MSShapeGroup"></path>
                <path d="M48.4218502,183.408266 C58.437508,183.408266 66.5568029,180.983411 66.5568029,177.992202 C66.5568029,177.42941 69.5847491,148.541988 71.2868975,133.713863 C72.2393003,125.417085 67.7781084,101.365234 62.4900225,87.8789063 C57.2019366,74.3925781 59.9692154,60.6059969 57.6150225,57.5859373 C54.9045822,54.1088683 47.0666827,32.3999026 36.3508623,48.5786133 C25.876689,64.3924861 48.0320145,110.03418 44.5261553,135.948243 C41.0202961,161.862305 30.2868975,177.245512 30.2868975,177.992202 C30.2868975,180.983411 38.4061924,183.408266 48.4218502,183.408266 Z" id="Oval-21" fill="#9EBEC9" sketch:type="MSShapeGroup"></path>
                <path d="M48.4218502,183.408266 C56.8113116,183.878906 66.5568029,180.983411 66.5568029,177.992202 C66.5568029,177.42941 69.5847491,148.541988 71.2868975,133.713863 C72.2393003,125.417085 67.7781084,101.365234 62.4900225,87.8789063 C62.013992,86.6648747 58.3327959,66.1125488 58.7607746,62.567627 C57.4778155,61.9133301 57.5415362,62.048584 56.6809406,61.3496094 C55.9281343,68.4773985 58.8475889,86.0630764 61.2481487,93.3300777 C63.9437754,101.490309 68.9206869,109.741209 65.4148277,135.655272 C61.9089685,161.569334 52.9675616,177.204102 48.4218502,183.408266 Z" id="Oval-24" fill="#7BA6B4" sketch:type="MSShapeGroup"></path>
                <path d="M69.4004391,187.643382 C77.5425976,187.643382 84.1431213,185.672114 84.1431213,183.240432 C84.1431213,182.782913 89.7204897,155.445708 87.1775209,144.450591 C85.7165587,138.133781 79.0115069,131.421875 71.1000061,125.699997 C71.2868972,131.421875 71.7482895,132.464107 68.6999969,153.530762 C66.0481624,174.597417 54.657757,182.633415 54.657757,183.240432 C54.657757,185.672114 61.2582806,187.643382 69.4004391,187.643382 Z" id="Oval-21" fill="#9EBEC9" sketch:type="MSShapeGroup"></path>
                <path d="M69.4004391,187.643382 C76.7717802,187.643382 84.1431213,185.672114 84.1431213,183.240432 C84.1431213,182.782913 89.7204897,155.445708 87.1775209,144.450591 C86.5748518,141.844811 85.0798024,139.171798 82.9819029,136.528784 C88.2065752,158.029297 76.9790362,182.551758 69.4004391,187.643382 Z" id="Oval-22" fill="#7BA6B4" sketch:type="MSShapeGroup"></path>
                <path d="M65.6057742,113.17676 C65.6105149,106.295768 61.039368,90.7285156 53.3147586,84.9550781 C49.7900995,82.1201172 34.9700309,72.8437503 33.5608512,70.8212893 C32.1516715,68.7988283 31.8620873,64.066825 31.4895626,64.1838379 C26.6301876,65.710205 25.2866863,70.2561008 24.8137812,73.0126953 C24.7229033,73.5424284 24.7182537,74.0944927 24.7762822,74.6510543 C25.0565187,77.3388516 26.7985372,80.1315365 27.3499142,81.0205078 C31.3118285,87.4082031 40.2061439,95.7214624 42.6516719,101.263672 C47.4031363,112.031739 46.9032199,113.878778 45.7969678,118.168457 C43.8824168,131.618406 45.2516797,135.514648 46.2059033,141.028809 C52.9128125,139.239136 65.5918391,133.403318 65.6057742,113.17676 Z" id="Oval-21" fill="#9EBEC9" sketch:type="MSShapeGroup" transform="translate(45.171921, 102.605258) scale(-1, 1) translate(-45.171921, -102.605258) "></path>
                <path d="M44.0100573,119.638148 C42.1706216,129.264648 30.7502115,138.4375 25.2181816,139.396525 C25.3151918,139.940297 25.4110924,140.47678 25.5007606,141.020505 C31.1506775,139.602571 41.6483062,134.735098 44.0100573,119.638148 Z" id="Oval-28" fill="#7BA6B4" sketch:type="MSShapeGroup" transform="translate(34.614119, 130.329327) scale(-1, 1) translate(-34.614119, -130.329327) "></path>
                <path d="M65.6057779,104.60547 C65.6057779,97.6782239 54.7187831,87.8955071 46.9941737,82.1220696 C45.097917,80.5968686 41.562875,76.6855352 42.1423992,72.3076172 C42.6400631,68.5480987 42.4353679,69.3515625 43.3930704,66.3473957 C42.6829265,67.6230469 42.1836158,67.7911629 41.7624042,68.5755522 C40.9317217,70.1224669 40.534312,71.7540858 40.3183923,73.0126953 C40.2275144,73.5424284 40.2228648,74.0944927 40.2808933,74.6510543 C40.5611298,77.3388516 42.3031483,80.1315365 42.8545253,81.0205078 C46.8164396,87.4082031 55.710755,95.7214624 58.156283,101.263672 C62.9077474,112.031739 62.5164226,114.824707 61.8534586,118.009584 C64.6546062,114.812012 65.6057779,111.532716 65.6057779,104.60547 Z" id="Oval-25" fill="#7BA6B4" sketch:type="MSShapeGroup" transform="translate(52.924227, 92.178490) scale(-1, 1) translate(-52.924227, -92.178490) "></path>
                <path d="M48.0057374,57.3416044 C54.8906526,60.9512041 58.7152281,62.6206082 59.5700082,62.9329885 C64.9816618,64.9106831 73.3259707,74.2978732 79.4460768,72.6689436 C85.3439943,71.0991517 89.674137,62.9322302 87.5408033,57.3416044 C85.4074697,51.7509786 83.0816345,45.9975214 77.6921705,39.1210938 C70.661088,30.1501219 61.3622278,24.731403 50.2909615,28.3530581 C46.4752297,29.601268 41.8491097,33.5860051 39.4707032,37.826172 C36.7754494,42.6312069 34.9984131,49.3194256 34.4921875,52.8427736 C34.2629169,54.4385049 44.2681963,55.3820992 48.0057374,57.3416044 Z" id="Oval-19" fill="#9EBEC9" sketch:type="MSShapeGroup"></path>
                <path d="M50.2909617,58.6860353 C56.3336683,61.8093985 58.8787235,62.6803577 59.5700082,62.9329885 C64.9816618,64.9106831 73.3259707,74.2978732 79.4460768,72.6689436 C80.8784833,72.2876937 82.218416,71.5173179 83.3957427,70.4892278 C87.0660449,67.284169 79.9296875,73.4330777 76.2104484,70.4892283 C70.4255221,65.9103476 48.6342773,52.7446289 46.2289922,50.0370199 C45.3627103,49.0618537 44.8056334,55.8507706 50.2909617,58.6860353 Z" id="Oval-23" fill="#7BA6B4" sketch:type="MSShapeGroup"></path>
                <path d="M65.2046033,24.9309022 L59.8501216,24.9309022 C58.0306355,24.9309022 56.8683588,26.3787674 57.2514213,28.1523793 L57.9805863,31.5284745 L65.2046033,24.9309022 Z" id="Path-8" fill="#7BA6B4" sketch:type="MSShapeGroup" transform="translate(61.042162, 28.341167) rotate(56.000000) translate(-61.042162, -28.341167) "></path>
                <ellipse id="Oval-27" fill="#7BA6B4" sketch:type="MSShapeGroup" cx="79.3291362" cy="63.0415506" rx="1.04223866" ry="1.04155063"></ellipse>
                <ellipse id="Oval-30" fill="#7BA6B4" sketch:type="MSShapeGroup" cx="85.3291362" cy="58.0415506" rx="1.04223866" ry="1.04155063"></ellipse>
                <path d="M55.1112513,35.5897354 L49.7567695,35.5897354 C47.9372834,35.5897354 46.7750067,37.0376006 47.1580692,38.8112125 L47.8872342,42.1873077 L55.1112513,35.5897354 Z" id="Path-7" fill="#7BA6B4" sketch:type="MSShapeGroup" transform="translate(50.948810, 39.000000) rotate(35.000000) translate(-50.948810, -39.000000) "></path>
                <path d="M63.0975577,43.517767 L61.7868975,44.8284271 L62.4940043,45.5355339 L63.8046645,44.2248737 L65.1153246,45.5355339 L65.8224314,44.8284271 L64.5117712,43.517767 L65.3224314,42.7071068 L64.6153246,42 L63.8046645,42.8106602 L62.9940043,42 L62.2868975,42.7071068 L63.0975577,43.517767 Z" id="Rectangle-46" fill="#7BA6B4" sketch:type="MSShapeGroup"></path>
                <path d="M70.0975577,37.517767 L68.7868975,38.8284271 L69.4940043,39.5355339 L70.8046645,38.2248737 L72.1153246,39.5355339 L72.8224314,38.8284271 L71.5117712,37.517767 L72.3224314,36.7071068 L71.6153246,36 L70.8046645,36.8106602 L69.9940043,36 L69.2868975,36.7071068 L70.0975577,37.517767 Z" id="Rectangle-46" fill="#7BA6B4" sketch:type="MSShapeGroup"></path>
                <ellipse id="Oval-99" stroke-opacity="0.28" stroke="#D5E5EB" stroke-width="2" sketch:type="MSShapeGroup" cx="56.2868975" cy="9.50185609" rx="36" ry="6"></ellipse>
                <rect id="Rectangle-47" fill="#7BA6B4" sketch:type="MSShapeGroup" transform="translate(33.500000, 13.500000) rotate(-315.000000) translate(-33.500000, -13.500000) " x="32" y="12" width="3" height="3"></rect>
                <rect id="Rectangle-47" fill="#7BA6B4" sketch:type="MSShapeGroup" transform="translate(60.500000, 14.380536) rotate(-315.000000) translate(-60.500000, -14.380536) " x="59" y="12.8805357" width="3" height="3"></rect>
                <rect id="Rectangle-47" fill="#7BA6B4" sketch:type="MSShapeGroup" transform="translate(87.500000, 11.500000) rotate(-315.000000) translate(-87.500000, -11.500000) " x="86" y="10" width="3" height="3"></rect>
                <rect id="Rectangle-47" fill="#7BA6B4" sketch:type="MSShapeGroup" transform="translate(75.500000, 4.500000) rotate(-315.000000) translate(-75.500000, -4.500000) " x="74" y="3" width="3" height="3"></rect>
                <rect id="Rectangle-47" fill="#7BA6B4" sketch:type="MSShapeGroup" transform="translate(41.500000, 4.500000) rotate(-315.000000) translate(-41.500000, -4.500000) " x="40" y="3" width="3" height="3"></rect>
                <rect id="Rectangle-47" fill="#7BA6B4" sketch:type="MSShapeGroup" transform="translate(44.500000, 1.500000) rotate(-315.000000) translate(-44.500000, -1.500000) " x="44" y="1" width="1" height="1"></rect>
                <rect id="Rectangle-48" fill="#7BA6B4" sketch:type="MSShapeGroup" transform="translate(56.500000, 11.500000) rotate(-315.000000) translate(-56.500000, -11.500000) " x="56" y="11" width="1" height="1"></rect>
                <rect id="Rectangle-49" fill="#7BA6B4" sketch:type="MSShapeGroup" transform="translate(83.500000, 11.500000) rotate(-315.000000) translate(-83.500000, -11.500000) " x="83" y="11" width="1" height="1"></rect>
                <rect id="Rectangle-50" fill="#7BA6B4" sketch:type="MSShapeGroup" transform="translate(73.500000, 14.500000) rotate(-315.000000) translate(-73.500000, -14.500000) " x="73" y="14" width="1" height="1"></rect>
                <rect id="Rectangle-51" fill="#7BA6B4" sketch:type="MSShapeGroup" transform="translate(63.500000, 2.500000) rotate(-315.000000) translate(-63.500000, -2.500000) " x="63" y="2" width="1" height="1"></rect>
                <rect id="Rectangle-52" fill="#7BA6B4" sketch:type="MSShapeGroup" transform="translate(26.500000, 12.500000) rotate(-315.000000) translate(-26.500000, -12.500000) " x="26" y="12" width="1" height="1"></rect>
            </g>
        </g>
    </g>
</svg>