<?xml version="1.0" encoding="UTF-8" standalone="no"?>
<svg viewBox="0 0 178 120" version="1.1" xmlns="http://www.w3.org/2000/svg" xmlns:xlink="http://www.w3.org/1999/xlink" xmlns:sketch="http://www.bohemiancoding.com/sketch/ns">
    <!-- Generator: Sketch 3.2.2 (9983) - http://www.bohemiancoding.com/sketch -->
    <title>drake-new</title>
    <desc>Created with Sketch.</desc>
    <defs></defs>
    <g id="Page-1" stroke="none" stroke-width="1" fill="none" fill-rule="evenodd" sketch:type="MSPage">
        <g id="drake-new" sketch:type="MSArtboardGroup">
            <g sketch:type="MSLayerGroup">
                <path d="M88.7131025,113.300824 C79.8247836,117.032761 65.4428159,119.457447 49.2131025,119.457447 C22.221946,119.457447 0.341290421,112.751244 0.341290421,104.478723 C0.341290421,96.2062029 22.221946,89.5 49.2131025,89.5 C65.4428159,89.5 79.8247836,91.9246854 88.7131025,95.6566233 C97.6014214,91.9246854 111.983389,89.5 128.213103,89.5 C155.204259,89.5 177.084915,96.2062029 177.084915,104.478723 C177.084915,112.751244 155.204259,119.457447 128.213103,119.457447 C111.983389,119.457447 97.6014214,117.032761 88.7131025,113.300824 Z" id="Oval-32" fill-opacity="0.278051404" fill="#D5E5EB" sketch:type="MSShapeGroup"></path>
                <path d="M63.3622153,2.20937449 L58.0077335,2.20937448 C56.1882474,2.20937448 55.0259707,3.65723971 55.4090332,5.4308516 L56.1381982,8.80694675 L63.3622153,2.20937449 Z" id="Path-6" fill="#7BA6B4" sketch:type="MSShapeGroup" transform="translate(59.199774, 5.619639) rotate(35.000000) translate(-59.199774, -5.619639) "></path>
                <ellipse id="Oval-16" fill="#D5E5EB" sketch:type="MSShapeGroup" cx="48.1758641" cy="103.308511" rx="26.6758641" ry="8.19148936"></ellipse>
                <ellipse id="Oval-17" fill="#D5E5EB" sketch:type="MSShapeGroup" cx="127.175864" cy="103.308511" rx="26.6758641" ry="8.19148936"></ellipse>
                <path d="M128.95522,22.6502563 L124.436801,31.9288999 L124.436801,64.4615151 L127.346648,65.2262899 L130.88839,65.158679 L133.473639,64.4615151 L133.473639,31.9288999 L128.95522,22.6502563 Z" id="Rectangle-313" fill="#0087BE" sketch:type="MSShapeGroup" transform="translate(128.936801, 43.892062) rotate(-11.000000) translate(-128.936801, -43.892062) "></path>
                <path d="M128.991966,23.0318743 L124.473547,32.3105179 L124.473547,64.8431331 C124.473547,64.8431331 126.56725,65.4470234 127.3578,65.6040561 C127.246674,63.9820852 127.449952,33.1661221 127.449952,33.1661221 L128.991966,23.0318743 Z" id="Rectangle-317" fill-opacity="0.2" fill="#005082" sketch:type="MSShapeGroup" transform="translate(126.973547, 44.273680) rotate(-11.000000) translate(-126.973547, -44.273680) "></path>
                <path d="M125.902276,22.9442214 L121.383857,32.2228649 L124.383313,33.0667548 L127.561449,33.0667548 L130.420695,32.2228649 L125.902276,22.9442214 Z" id="Rectangle-316" fill="#00AADC" sketch:type="MSShapeGroup" transform="translate(125.883857, 28.186027) rotate(-11.000000) translate(-125.883857, -28.186027) "></path>
                <path d="M125.458335,27.0557549 L127.065964,26.5644799 L125.329849,22.9993398 L123.588367,26.5755012 L125.458335,27.0557549 Z" id="Rectangle-314" fill="#005082" sketch:type="MSShapeGroup" transform="translate(125.311430, 25.241146) rotate(-11.000000) translate(-125.311430, -25.241146) "></path>
                <path d="M127.116046,108.077253 C137.131704,108.077253 145.250998,105.652399 145.250998,102.66119 C145.250998,100.917627 165.206053,70.0798339 155.752928,55.4060061 C152.488174,50.3382163 149.788085,48.1035158 142.708006,45.0615236 C135.627928,42.0195313 120.698625,47.2000434 119.846679,49.8789061 C119.530518,50.8730469 118.493795,52.2698755 122.285156,55.4060061 C126.076516,58.5421368 132.35951,55.8994925 134.53418,58.5791016 C137.246464,61.9211547 135.797428,65.7548827 133.590821,71.332031 C130.816503,78.3440552 108.981093,100.958165 108.981093,102.66119 C108.981093,105.652399 117.100388,108.077253 127.116046,108.077253 Z" id="Oval-23" fill="#9EBEC9" sketch:type="MSShapeGroup"></path>
                <path d="M116.526296,107.058425 C115.59082,101.199219 129.094645,86.8212554 130.433594,85.0380849 C134.386719,79.7734375 142.127928,65.2324227 139.500001,60.0410155 C136.602314,54.3167062 133.437989,59.0688476 126.357911,56.0268554 C120.622656,53.5626736 120.697108,48.8462707 120.697108,48.8462707 C120.697108,48.8462707 119.946976,49.5635333 119.846679,49.8789061 C119.530518,50.8730469 118.493795,52.2698755 122.285156,55.4060061 C126.076516,58.5421368 132.35951,55.8994925 134.53418,58.5791016 C137.246464,61.9211547 135.797428,65.7548827 133.590821,71.332031 C130.816503,78.3440552 108.981093,100.958165 108.981093,102.66119 C108.981093,104.471881 111.956276,106.075041 116.526296,107.058425 Z" id="Oval-25" fill="#7BA6B4" sketch:type="MSShapeGroup"></path>
                <path d="M134.155554,64.4686424 L136.77605,63.7583728 C136.77605,63.7583728 136.77605,63.7583728 136.77605,59.4053192 C135.65741,57.6679825 132.205046,56.9153983 132.205046,56.9153983 L134.155554,64.4686424 Z" id="Rectangle-315" fill="#0087BE" sketch:type="MSShapeGroup" transform="translate(134.239213, 60.688920) rotate(-11.000000) translate(-134.239213, -60.688920) "></path>
                <path d="M47.6349527,107.908266 C57.6506105,107.908266 65.7699054,105.483411 65.7699054,102.492202 C65.7699054,101.92941 50.1384847,75.05078 48.8867188,61.4873047 C47.9052734,47.9238281 53.9596314,40.0771262 58.0804613,35.2812507 C61.9160158,30.8173825 87.9423828,39.2539608 91.7070313,33.6103516 C94.978685,28.7057939 93.6341338,23.2531089 92.9882776,21.2519528 C90.8886698,18.8310543 68.6599,-0.822085569 50.324642,5.17578119 C41.1625948,8.17288865 26.809658,26.945826 23.1484375,42.4267591 C21.3117575,50.192891 19.5316031,63.39511 21.7373047,76.8232396 C23.9337849,90.1952302 29.5,101.745512 29.5,102.492202 C29.5,105.483411 37.6192949,107.908266 47.6349527,107.908266 Z" id="Oval-19" fill="#9EBEC9" sketch:type="MSShapeGroup"></path>
                <path d="M48.8867188,61.4873047 C47.9052734,47.9238281 53.9596314,40.0771262 58.0804613,35.2812507 C61.9160158,30.8173825 87.7480476,38.5517577 91.7070313,33.6103516 C81.921875,36.1523438 73.9287117,32.0664063 61.8691403,30.0078125 C52.1772158,28.3533809 48.8798828,43.75 48.8867188,61.4873047 Z" id="Oval-22" fill="#7BA6B4" sketch:type="MSShapeGroup"></path>
                <path d="M39.0574453,107.265341 C40.6065731,107.514164 26.8190234,84.3687922 24.4355469,60.870117 C22.8897484,45.6301022 29.3144531,28.6875 32.9608227,21.5243414 C28.5088064,28.0277301 24.7743422,35.5518598 23.1484375,42.4267591 C21.3117575,50.192891 19.5316031,63.39511 21.7373047,76.8232396 C23.9337849,90.1952302 29.5,101.745512 29.5,102.492202 C29.5,104.556735 33.3678375,106.351469 39.0574453,107.265341 Z" id="Oval-20" fill="#7BA6B4" sketch:type="MSShapeGroup"></path>
                <ellipse id="Oval-26" fill="#7BA6B4" sketch:type="MSShapeGroup" cx="89.2630357" cy="23.473951" rx="1.04223866" ry="1.04155063"></ellipse>
                <ellipse id="Oval-21" fill="#6C93A0" sketch:type="MSShapeGroup" transform="translate(67.001920, 11.649656) rotate(18.000000) translate(-67.001920, -11.649656) " cx="66.7526061" cy="11.4410672" rx="1.25068639" ry="2.29141138"></ellipse>
                <path d="M56.777768,6.42158346 L51.4232862,6.42158346 C49.6038001,6.42158346 48.4415234,7.86944869 48.8245859,9.64306058 L49.5537509,13.0191557 L56.777768,6.42158346 Z" id="Path-5" fill="#7BA6B4" sketch:type="MSShapeGroup" transform="translate(52.615327, 9.831848) rotate(35.000000) translate(-52.615327, -9.831848) "></path>
            </g>
        </g>
    </g>
</svg>
