<svg width="145" height="32" viewBox="0 0 145 32" fill="none" xmlns="http://www.w3.org/2000/svg">
<path d="M1.91219 10.9335V9.28897H2.87601C4.03899 9.28897 4.6635 8.61407 4.6635 7.67776C4.6635 6.74857 4.04636 6.06654 2.8883 6.06654H1V10.9335H1.91219ZM2.75307 8.56416H1.91219V6.80323H2.74815C3.43168 6.80323 3.7341 7.1597 3.7341 7.67776C3.7341 8.19582 3.43168 8.56416 2.75307 8.56416ZM8.63014 11C9.95047 11 10.9438 10.0732 10.9438 8.5C10.9438 6.92681 9.95047 6 8.63014 6C7.30734 6 6.31647 6.92681 6.31647 8.5C6.31647 10.0708 7.30734 11 8.63014 11ZM8.63014 10.2087C7.81138 10.2087 7.23358 9.60741 7.23358 8.5C7.23358 7.39259 7.81138 6.79135 8.63014 6.79135C9.45135 6.79135 10.0267 7.39259 10.0267 8.5C10.0267 9.60741 9.45135 10.2087 8.63014 10.2087ZM14.6326 10.9335L15.6431 7.51854H15.6825L16.6905 10.9335H17.5904L19.0116 6.06654H18.0306L17.1233 9.64544H17.079L16.1078 6.06654H15.2153L14.2466 9.64306H14.1999L13.2926 6.06654H12.3116L13.7327 10.9335H14.6326ZM23.9273 10.9335V10.1944H21.5448V8.86597H23.738V8.1269H21.5448V6.80561H23.9076V6.06654H20.6326V10.9335H23.9273ZM26.7408 10.9335V9.15114H27.6702L28.6586 10.9335H29.6765L28.5873 9.0038C29.1798 8.77329 29.4921 8.28375 29.4921 7.6231C29.4921 6.69392 28.8725 6.06654 27.7169 6.06654H25.8286V10.9335H26.7408ZM27.5817 8.4192H26.7408V6.80323H27.5767C28.2578 6.80323 28.5627 7.10504 28.5627 7.6231C28.5627 8.14116 28.2578 8.4192 27.5817 8.4192ZM34.6168 10.9335V10.1944H32.2343V8.86597H34.4275V8.1269H32.2343V6.80561H34.5971V6.06654H31.3221V10.9335H34.6168ZM38.2245 10.9335C39.7587 10.9335 40.6684 10.0162 40.6684 8.49525C40.6684 6.97909 39.7587 6.06654 38.2589 6.06654H36.5181V10.9335H38.2245ZM38.1802 10.1706H37.4303V6.82937H38.2072C39.2301 6.82937 39.7636 7.3807 39.7636 8.49525C39.7636 9.61454 39.2301 10.1706 38.1802 10.1706ZM47.2691 10.9335C48.4222 10.9335 48.9877 10.3655 48.9877 9.60741C48.9877 8.87072 48.4468 8.43821 47.9108 8.41207V8.36454C48.4025 8.25285 48.791 7.92015 48.791 7.32842C48.791 6.60361 48.2501 6.06654 47.1584 6.06654H45.2308V10.9335H47.2691ZM47.0453 8.13641H46.143V6.79373H47.065C47.601 6.79373 47.8788 7.06702 47.8788 7.44249C47.8788 7.87025 47.5199 8.13641 47.0453 8.13641ZM47.124 10.1968H46.143V8.77091H47.1486C47.7116 8.77091 48.0608 9.10361 48.0608 9.5385C48.0608 9.92586 47.7854 10.1968 47.124 10.1968ZM53.1683 10.9335V9.11787L55 6.06654H53.9698L52.738 8.21958H52.6888L51.457 6.06654H50.4268L52.2585 9.11787V10.9335H53.1683Z" fill="#8C8F94"/>
<path d="M16.2601 18.9978C16.2601 18.7238 15.9569 18.5407 15.688 18.6523L7.9645 21.858C7.81794 21.9189 7.72355 22.0542 7.72355 22.2036V31.6211C7.72355 31.9024 8.04156 32.0854 8.31184 31.9596L13.1899 29.6894C13.3276 29.6253 13.4146 29.4943 13.4146 29.351V24.2735L16.0553 22.8689C16.1764 22.8045 16.2532 22.687 16.2597 22.558L16.2601 22.5404V18.9978ZM15.4471 19.5809V22.3209L12.8064 23.7255C12.6853 23.79 12.6085 23.9075 12.602 24.0364L12.6016 24.054V29.1174L8.53655 31.0093V22.4493L15.4471 19.5809ZM0.813982 18C0.239101 18 -0.0684624 18.4786 0.0129147 18.9022C0.00449753 18.9325 1.90735e-06 18.9645 1.90735e-06 18.9978V22.5404L0.000442505 22.558C0.00689125 22.687 0.0836735 22.8045 0.204823 22.8689L2.84552 24.2735V29.351C2.84552 29.4943 2.93251 29.6253 3.07023 29.6894L7.94826 31.9596C8.21854 32.0854 8.53655 31.9024 8.53655 31.6211V22.4437L15.7763 19.4483C16.5704 19.1197 16.3292 18.0227 15.4728 18.0003L15.4461 18H0.813982ZM0.813006 19.5844L3.57646 20.7278L7.72355 22.4491V31.0089L3.65852 29.1171V24.0539L3.65808 24.0362C3.65164 23.9073 3.57485 23.7898 3.4537 23.7253L0.813006 22.3208V19.5844ZM0.823738 18.7567L15.4461 18.7568L8.13005 21.7838L3.91066 20.038L0.823738 18.7567ZM0.162603 18.7568H1.90735e-06V19.0595H0.162603V18.7568ZM16.2601 18.7568H16.0975V19.0595H16.2601V18.7568Z" fill="#8C8F94"/>
<path d="M25.0123 29.351V19.8758H29.0708C29.1606 19.8758 29.2334 19.8082 29.2334 19.7247V19.0585C29.2334 18.9751 29.1606 18.9075 29.0708 18.9075H19.8373C19.7475 18.9075 19.6747 18.9751 19.6747 19.0585V19.7247C19.6747 19.8082 19.7475 19.8758 19.8373 19.8758H23.8805V29.351C23.8805 29.4344 23.9533 29.502 24.0431 29.502H24.8497C24.9395 29.502 25.0123 29.4344 25.0123 29.351ZM31.9673 29.351V19.0585C31.9673 18.9751 31.8945 18.9075 31.8047 18.9075H30.9917C30.9019 18.9075 30.8291 18.9751 30.8291 19.0585V29.351C30.8291 29.4344 30.9019 29.502 30.9917 29.502H31.8047C31.8945 29.502 31.9673 29.4344 31.9673 29.351ZM38.8983 29.502V19.8746H42.9569C43.0467 19.8746 43.1195 19.8069 43.1195 19.7235V19.0585C43.1195 18.9751 43.0467 18.9075 42.9569 18.9075H33.7234C33.6336 18.9075 33.5608 18.9751 33.5608 19.0585V19.7235C33.5608 19.8069 33.6336 19.8746 33.7234 19.8746H37.7666V29.351C37.7666 29.4344 37.8394 29.502 37.9292 29.502H38.8983ZM48.4198 18.9075L54.2245 29.4606C54.2291 29.469 54.2315 29.4783 54.2315 29.4877C54.2315 29.4956 54.2246 29.502 54.2161 29.502H53.1086C53.047 29.502 52.9906 29.4696 52.9631 29.4184L51.7845 27.2226H44.7799L43.556 29.4204C43.528 29.4705 43.4723 29.502 43.4116 29.502H42.3024C42.2939 29.502 42.287 29.4956 42.287 29.4877C42.287 29.4783 42.2895 29.469 42.2942 29.4607L48.2975 18.9075H48.4198ZM48.3434 20.7855L45.3305 26.219H51.2492L48.3434 20.7855ZM65 29.502V19.1013C65 19.0179 64.9272 18.9502 64.8374 18.9502H64.0308C63.941 18.9502 63.8682 19.0179 63.8682 19.1013V27.1778L56.0378 18.9075H55.8695V29.2797C55.8695 29.3631 55.9423 29.4307 56.0322 29.4307H56.8234C56.9132 29.4307 56.986 29.3631 56.986 29.2797V21.2175L64.847 29.502H65Z" fill="#8C8F94"/>
</svg>
