<svg width="187" height="22" fill="none" xmlns="http://www.w3.org/2000/svg"><path d="M.438 4.727V16h1.406v-4.023H4.68c2.117 0 3.625-1.493 3.625-3.602 0-2.148-1.477-3.648-3.61-3.648H.437zm1.406 1.25h2.484c1.633 0 2.531.851 2.531 2.398 0 1.492-.93 2.352-2.53 2.352H1.843v-4.75zM13.664 16.148c2.399 0 3.883-1.656 3.883-4.359 0-2.71-1.485-4.36-3.883-4.36-2.398 0-3.883 1.65-3.883 4.36 0 2.703 1.485 4.36 3.883 4.36zm0-1.21c-1.594 0-2.492-1.157-2.492-3.149 0-2 .898-3.148 2.492-3.148 1.594 0 2.492 1.148 2.492 3.148 0 1.992-.898 3.149-2.492 3.149zM29.938 7.578h-1.352l-1.656 6.734h-.125l-1.883-6.734h-1.29l-1.882 6.734h-.125l-1.656-6.734h-1.36L20.97 16h1.36l1.874-6.516h.125L26.211 16h1.367l2.36-8.422zM34.781 8.617c1.336 0 2.227.985 2.258 2.477H32.4c.101-1.492 1.038-2.477 2.382-2.477zM37 13.82c-.352.742-1.086 1.14-2.172 1.14-1.43 0-2.36-1.054-2.43-2.718v-.062h6.055v-.516c0-2.617-1.383-4.234-3.656-4.234C32.484 7.43 31 9.148 31 11.797c0 2.664 1.46 4.351 3.797 4.351 1.844 0 3.14-.882 3.547-2.328H37zM40.563 16h1.343v-5.219c0-1.187.93-2.047 2.211-2.047.266 0 .75.047.86.079V7.468a5.772 5.772 0 00-.672-.04c-1.117 0-2.086.579-2.336 1.4h-.125v-1.25h-1.282V16zM49.781 8.617c1.336 0 2.227.985 2.258 2.477H47.4c.101-1.492 1.038-2.477 2.382-2.477zM52 13.82c-.352.742-1.086 1.14-2.172 1.14-1.43 0-2.36-1.054-2.43-2.718v-.062h6.055v-.516c0-2.617-1.383-4.234-3.656-4.234C47.484 7.43 46 9.148 46 11.797c0 2.664 1.46 4.351 3.797 4.351 1.844 0 3.14-.882 3.547-2.328H52zM58.68 16.148c1.164 0 2.164-.554 2.695-1.492h.125V16h1.281V4.234h-1.343v4.672h-.118c-.476-.922-1.468-1.476-2.64-1.476-2.14 0-3.54 1.718-3.54 4.36 0 2.648 1.383 4.358 3.54 4.358zm.312-7.507c1.524 0 2.477 1.218 2.477 3.148 0 1.945-.946 3.149-2.477 3.149-1.539 0-2.46-1.18-2.46-3.149 0-1.96.929-3.148 2.46-3.148zM74.094 16.148c2.133 0 3.531-1.726 3.531-4.359 0-2.648-1.39-4.36-3.531-4.36-1.156 0-2.18.571-2.64 1.477h-.126V4.234h-1.344V16h1.282v-1.344h.125c.53.938 1.53 1.492 2.703 1.492zm-.313-7.507c1.54 0 2.453 1.18 2.453 3.148 0 1.969-.914 3.149-2.453 3.149-1.531 0-2.484-1.204-2.484-3.149s.953-3.148 2.484-3.148zM80.14 19.047c1.493 0 2.165-.578 2.883-2.531l3.29-8.938h-1.43l-2.305 6.93h-.125l-2.312-6.93h-1.454l3.118 8.43-.157.5c-.351 1.015-.773 1.383-1.546 1.383a3.24 3.24 0 01-.563-.04V19c.188.031.422.047.602.047z" fill="#8c8f94"/><path d="M118.014 1.568c0-.43-.429-.718-.809-.543l-10.932 5.038a.595.595 0 00-.341.543v14.799c0 .442.45.73.832.531l6.905-3.567a.597.597 0 00.318-.532V9.858l3.737-2.207a.597.597 0 00.29-.488V1.568zm-1.15.916V6.79l-3.738 2.207a.598.598 0 00-.289.489l-.001.027v7.957l-5.753 2.973V6.992l9.781-4.508zM96.152 0c-.814 0-1.249.752-1.134 1.418a.618.618 0 00-.018.15v5.595c.01.202.118.387.29.488l3.737 2.207v7.98c0 .224.124.43.319.531l6.904 3.567c.382.198.833-.09.833-.531V6.983l10.247-4.707c1.124-.516.782-2.24-.43-2.275L116.862 0h-20.71zm-.001 2.49l3.911 1.797 5.87 2.705v13.45l-5.754-2.972V9.485a.6.6 0 00-.29-.488L96.151 6.79v-4.3zm.015-1.3h20.696l-10.355 4.756-5.972-2.743-4.37-2.014zm-.936 0H95v.475h.23v-.476zm22.784 0h-.23v.475h.23v-.476zM130.401 17.837V2.947h5.745c.127 0 .23-.106.23-.237V1.663a.234.234 0 00-.23-.237h-13.069a.234.234 0 00-.23.237V2.71c0 .131.103.237.23.237h5.723v14.89c0 .131.103.237.23.237h1.141c.127 0 .23-.106.23-.237zm9.845 0V1.663a.234.234 0 00-.231-.237h-1.15a.234.234 0 00-.23.237v16.174c0 .131.103.237.23.237h1.15a.234.234 0 00.231-.237zm9.81.237V2.946h5.744c.127 0 .23-.107.23-.238V1.663a.234.234 0 00-.23-.237h-13.069a.234.234 0 00-.23.237v1.045c0 .131.103.238.23.238h5.723v14.891c0 .131.103.237.23.237h1.372zm13.476-16.648l8.216 16.583a.09.09 0 01.01.043c0 .012-.01.022-.022.022h-1.567a.23.23 0 01-.206-.131l-1.668-3.45h-9.915l-1.732 3.453a.228.228 0 01-.204.128h-1.57a.022.022 0 01-.022-.022c0-.015.004-.03.01-.043l8.497-16.583h.173zm-.108 2.951l-4.264 8.538h8.377l-4.113-8.538zM187 18.074V1.73a.234.234 0 00-.23-.237h-1.142a.234.234 0 00-.23.237v12.692L174.315 1.426h-.238v16.299c0 .131.103.237.23.237h1.12c.127 0 .23-.106.23-.237V5.055l11.126 13.02H187z" fill="#101517"/></svg>