<svg id="Layer_1" xmlns="http://www.w3.org/2000/svg" viewBox="0 0 274.7 153.8"><style>.st0{fill:#fff}.st2{fill:#e1eff9}.st3{fill:#a6c1d1}.st4{fill:#004f82}.st8{fill:#c9d7e2}.st9{fill:#74dcfc}.st10{fill:#004f84}.st11{fill:#c5f5fe}.st12{fill:#c8d7e2}.st13{fill:#004f81}</style><path class="st0" d="M254.8 112.1H40.1c-6.6 0-12-5.4-12-12v-42c0-6.6 5.4-12 12-12h214.6c6.6 0 12 5.4 12 12v42c.1 6.6-5.3 12-11.9 12z"/><path fill="#f3f6f8" d="M27.5 64.3h239.2v89.1H27.5z"/><path class="st0" d="M127.3 153.3V120c0-10.5-10.7-19-23.7-19H39.9v52.4h87.4zM245.9 153.3v-58c0-2.2-1.8-4-4-4h-82.1c-2.2 0-4 1.8-4 4v58h90.1z"/><path class="st2" d="M121.9 45.7c.6 0 1-.4 1-1s-.4-1-1-1h-5.1c-.6 0-1 .4-1 1s.4 1 1 1h5.1zM112.7 44.7c0-.6-.4-1-1-1h-5.1c-.6 0-1 .4-1 1s.4 1 1 1h5.1c.6 0 1-.5 1-1zM183 43.7h-5.1c-.6 0-1 .4-1 1s.4 1 1 1h5.1c.6 0 1-.4 1-1s-.5-1-1-1zM152.4 43.7h-5.1c-.6 0-1 .4-1 1s.4 1 1 1h5.1c.6 0 1-.4 1-1s-.4-1-1-1zM142.2 43.7h-5.1c-.6 0-1 .4-1 1s.4 1 1 1h5.1c.6 0 1-.4 1-1s-.4-1-1-1zM162.6 43.7h-5.1c-.6 0-1 .4-1 1s.4 1 1 1h5.1c.6 0 1-.4 1-1s-.4-1-1-1zM102.5 44.7c0-.6-.4-1-1-1h-5.1c-.6 0-1 .4-1 1s.4 1 1 1h5.1c.6 0 1-.5 1-1zM132.1 45.7c.6 0 1-.4 1-1s-.4-1-1-1H127c-.6 0-1 .4-1 1s.4 1 1 1h5.1zM51.6 44.7c0-.6-.4-1-1-1h-5.1c-.6 0-1 .4-1 1s.4 1 1 1h5.1c.6 0 1-.5 1-1zM28.4 57.2c0-.6-.4-1-1-1s-1 .4-1 1v5.1c0 .6.4 1 1 1s1-.4 1-1v-5.1zM41.4 44.7c0-.6-.5-1-1.1-.9-1.8.1-3.6.5-5.2 1.1-.5.2-.8.8-.6 1.3.1.4.5.7.9.7.1 0 .2 0 .3-.1 1.5-.5 3.1-.9 4.7-1 .7-.1 1.1-.6 1-1.1zM27.6 53.2c.1 0 .3.1.4.1.4 0 .8-.2.9-.6.5-1.3 1.5-2.6 2.8-3.6.4-.4.5-1 .1-1.4-.4-.4-1-.5-1.4-.1-1.5 1.3-2.7 2.8-3.3 4.4-.2.4 0 1 .5 1.2zM72 44.7c0-.6-.4-1-1-1h-5.1c-.6 0-1 .4-1 1s.4 1 1 1H71c.5 0 1-.5 1-1zM82.2 44.7c0-.6-.4-1-1-1h-5.1c-.6 0-1 .4-1 1s.4 1 1 1h5.1c.5 0 1-.5 1-1zM92.3 44.7c0-.6-.4-1-1-1h-5.1c-.6 0-1 .4-1 1s.4 1 1 1h5.1c.6 0 1-.5 1-1zM61.8 44.7c0-.6-.4-1-1-1h-5.1c-.6 0-1 .4-1 1s.4 1 1 1h5.1c.6 0 1-.5 1-1zM172.8 43.7h-5.1c-.6 0-1 .4-1 1s.4 1 1 1h5.1c.6 0 1-.4 1-1s-.5-1-1-1zM254.2 45.8c.5 0 .9-.4 1-.9.1-.5-.4-1-.9-1.1-.6-.1-1.3-.1-1.9-.1h-3.3c-.6 0-1 .4-1 1s.4 1 1 1h3.3c.6 0 1.2 0 1.8.1zM245 44.7c0-.6-.4-1-1-1h-5c-.6 0-1 .4-1 1s.4 1 1 1h5.1c.5 0 .9-.5.9-1zM213.5 43.7h-5.1c-.6 0-1 .4-1 1s.4 1 1 1h5.1c.6 0 1-.4 1-1s-.4-1-1-1zM223.7 43.7h-5.1c-.6 0-1 .4-1 1s.4 1 1 1h5.1c.6 0 1-.4 1-1s-.5-1-1-1zM234.9 44.7c0-.6-.4-1-1-1h-5.1c-.6 0-1 .4-1 1s.4 1 1 1h5.1c.5 0 1-.5 1-1zM267.2 52.5c-.2-.5-.7-.8-1.3-.6-.5.2-.8.7-.6 1.3.2.7.4 1.5.4 2.2v2.5c0 .6.4 1 1 1s1-.4 1-1v-2.5c0-1-.2-2-.5-2.9zM259.5 45c-.5-.2-1.1 0-1.3.6-.2.5 0 1.1.6 1.3 1.5.6 2.9 1.5 4 2.5.2.2.4.3.7.3.3 0 .5-.1.7-.3.4-.4.3-1-.1-1.4-1.2-1.3-2.8-2.3-4.6-3zM266.7 61.9c-.6 0-1 .4-1 1V64c0 .6.4 1 1 1s1-.4 1-1v-1.1c0-.5-.5-1-1-1zM193.1 43.7H188c-.6 0-1 .4-1 1s.4 1 1 1h5.1c.6 0 1-.4 1-1s-.4-1-1-1zM203.3 43.7h-5.1c-.6 0-1 .4-1 1s.4 1 1 1h5.1c.6 0 1-.4 1-1s-.4-1-1-1zM53.6 63.3h-4.9c-.6 0-1 .4-1 1s.4 1 1 1h4.9c.6 0 1-.4 1-1 0-.5-.4-1-1-1zM171.5 63.3h-4.9c-.6 0-1 .4-1 1s.4 1 1 1h4.9c.6 0 1-.4 1-1 0-.5-.5-1-1-1zM63.5 63.3h-4.9c-.6 0-1 .4-1 1s.4 1 1 1h4.9c.6 0 1-.4 1-1 0-.5-.5-1-1-1zM73.3 63.3h-4.9c-.6 0-1 .4-1 1s.4 1 1 1h4.9c.6 0 1-.4 1-1 0-.5-.5-1-1-1zM250 63.3h-4.9c-.6 0-1 .4-1 1s.4 1 1 1h4.9c.6 0 1-.4 1-1 0-.5-.4-1-1-1zM34 63.3h-4.8c-.6 0-1 .4-1 1s.4 1 1 1H34c.6 0 1-.4 1-1 0-.5-.4-1-1-1zM181.3 63.3h-4.9c-.6 0-1 .4-1 1s.4 1 1 1h4.9c.6 0 1-.4 1-1 0-.5-.4-1-1-1zM191.1 63.3h-4.9c-.6 0-1 .4-1 1s.4 1 1 1h4.9c.6 0 1-.4 1-1 0-.5-.4-1-1-1zM259.9 63.3H255c-.6 0-1 .4-1 1s.4 1 1 1h4.9c.6 0 1-.4 1-1 0-.5-.5-1-1-1zM200.9 63.3H196c-.6 0-1 .4-1 1s.4 1 1 1h4.9c.6 0 1-.4 1-1 0-.5-.4-1-1-1zM43.8 63.3h-4.9c-.6 0-1 .4-1 1s.4 1 1 1h4.9c.6 0 1-.4 1-1 0-.5-.4-1-1-1zM83.1 63.3h-4.9c-.6 0-1 .4-1 1s.4 1 1 1h4.9c.6 0 1-.4 1-1 0-.5-.4-1-1-1zM122.4 63.3h-4.9c-.6 0-1 .4-1 1s.4 1 1 1h4.9c.6 0 1-.4 1-1 0-.5-.5-1-1-1zM112.6 63.3h-4.9c-.6 0-1 .4-1 1s.4 1 1 1h4.9c.6 0 1-.4 1-1 0-.5-.5-1-1-1zM151.8 63.3h-4.9c-.6 0-1 .4-1 1s.4 1 1 1h4.9c.6 0 1-.4 1-1 0-.5-.4-1-1-1zM210.8 63.3h-4.9c-.6 0-1 .4-1 1s.4 1 1 1h4.9c.6 0 1-.4 1-1 0-.5-.5-1-1-1zM132.2 63.3h-4.9c-.6 0-1 .4-1 1s.4 1 1 1h4.9c.6 0 1-.4 1-1 0-.5-.4-1-1-1zM142 63.3h-4.9c-.6 0-1 .4-1 1s.4 1 1 1h4.9c.6 0 1-.4 1-1 0-.5-.4-1-1-1zM220.6 63.3h-4.9c-.6 0-1 .4-1 1s.4 1 1 1h4.9c.6 0 1-.4 1-1 0-.5-.5-1-1-1zM92.9 63.3H88c-.6 0-1 .4-1 1s.4 1 1 1h4.9c.6 0 1-.4 1-1 0-.5-.4-1-1-1zM240.2 63.3h-4.9c-.6 0-1 .4-1 1s.4 1 1 1h4.9c.6 0 1-.4 1-1 0-.5-.4-1-1-1zM161.7 63.3h-4.9c-.6 0-1 .4-1 1s.4 1 1 1h4.9c.6 0 1-.4 1-1 0-.5-.5-1-1-1zM102.7 63.3h-4.9c-.6 0-1 .4-1 1s.4 1 1 1h4.9c.6 0 1-.4 1-1 0-.5-.4-1-1-1zM230.4 63.3h-4.9c-.6 0-1 .4-1 1s.4 1 1 1h4.9c.6 0 1-.4 1-1 0-.5-.4-1-1-1z"/><g><path class="st3" d="M212.4 115.4s7.4-13 9.3-12.6l.1 7c2.4-.8 4.3-2.6 5.3-4.9 2.3-4.2 8.8 1.2 0 9.5-9.2 4.7-12 7.3-12 7.3m-32.6 1.9v10.7l-10.1-.5v-7.1s-8.4-2.4-7-12.4l12.1-4.1"/></g><g><path class="st3" d="M136.1 139.2l-4.9-4.5 4.2-10.5 3.6-.6.8 10.8-3.7 4.8z"/></g><g><path class="st4" d="M132.9 136.3c-.1 0-.2 0-.2-.1-6.1-3.2-6.2-8.8-4.4-12.7 1.1-2.3 2.6-3.6 3.8-3.1.6.2.7 1.1.9 3.2.1 1.7.3 4.3 1.1 4.8.1.1.3.1.6 0 .6-.2.6-1.3.4-2.7-.1-1.3-.3-2.7.9-2.9.5-.1.9.1 1.4.5 1.5 1.3 3 4.9 3 9.1 0 .3-.2.5-.5.5s-.5-.2-.5-.5c0-3.7-1.4-7.2-2.7-8.3-.2-.2-.5-.3-.6-.3-.2 0-.1 1.2 0 1.8.1 1.4.3 3.2-1.1 3.7-.7.2-1.2 0-1.5-.1-1.2-.8-1.4-3.3-1.5-5.6-.1-.9-.1-2.1-.3-2.4-.5 0-1.6.8-2.4 2.6-1.6 3.5-1.5 8.5 4 11.4.2.1.3.4.2.7-.3.3-.5.4-.6.4zm-1.3-14.9z"/></g><g><circle cx="128.8" cy="110.7" r="17.9" fill="#1baadd"/></g><g><path d="M199.1 77.1H273v29.8h-73.9V77.1z" fill="#78dcfa"/></g><g><path class="st4" d="M172.9 131.5c-.2 0-.5-.2-.5-.4l-.4-4.1c-4.7-.9-5.8-4.5-6.7-8.4-1.4-6.6 1.2-14.3 8-16 5.2-1.2 9.8.7 11.2 4.6 1.5 4 2.8 7.8 2.8 9.1 0 .3-.2.5-.5.5s-.5-.2-.5-.5c0-1.3-1.7-6-2.7-8.8-1.2-3.5-5.4-5.1-10.1-4-6.2 1.5-8.5 8.7-7.2 14.8.8 3.8 1.8 7 6.2 7.7.2 0 .4.2.4.4l.5 4.4c.1.4-.1.7-.5.7.1 0 0 0 0 0z"/></g><g><path class="st3" d="M134.7 129c-3 1-1.9-7.7-2.9-8.1-2.3-.9-8.4 10 1.1 14.9"/><path class="st4" d="M132.9 136.3c-.1 0-.2 0-.2-.1-6.1-3.2-6.2-8.8-4.4-12.7 1.1-2.3 2.6-3.6 3.8-3.1.6.2.7 1.1.9 3.2.1 1.7.3 4.3 1.1 4.8.1.1.3.1.6 0s.5.1.6.3-.1.5-.3.6c-.7.2-1.2 0-1.5-.2-1.2-.8-1.4-3.3-1.5-5.6-.1-.9-.1-2.1-.3-2.4-.5-.1-1.6.8-2.4 2.6-1.6 3.5-1.5 8.5 4 11.4.2.1.3.4.2.7-.3.4-.4.5-.6.5zm-1.3-14.9z"/></g><g><path class="st3" d="M214.1 113.9c1.7-2.2 6.2-12.6 7.5-11l.1 7c1.4-.3 2.7-1 3.6-2"/><path class="st4" d="M214.1 114.4c-.1 0-.2 0-.3-.1-.2-.2-.3-.5-.1-.7.5-.7 1.4-2.3 2.3-4 2.4-4.5 4-7.2 5.2-7.4.3 0 .6.1.8.3.1.1.1.2.1.3l.1 6.4c1.1-.3 2-.9 2.8-1.7.2-.2.5-.2.7 0 .2.2.2.5 0 .7-1 1.1-2.4 1.9-3.9 2.2-.1 0-.3 0-.4-.1-.1-.1-.2-.2-.2-.4l-.1-6.7c-.8.5-3 4.6-4.2 6.8-1 1.8-1.8 3.4-2.4 4.2-.1.1-.2.2-.4.2z"/></g><g><path class="st4" d="M164.1 118.3c-.4 0-.7-.1-.9-.3-1.1-.7-1.4-2.6-1.2-4.2.2-1.8 1.4-2.8 2.3-3 .6-.1 1.1 0 1.3.5.1.2.1.5-.2.7-.2.1-.5.1-.7-.2 0 0-.2 0-.4.1-.5.2-1.1.8-1.3 1.8h.2l7.8 2.6c.3.1.4.4.3.6s-.4.4-.6.3l-7.8-2.6c0 1.2.3 2.2.8 2.6.3.2.7.1 1.2-.2.2-.2.5-.1.7.1.1.2.1.5-.1.7-.6.4-1 .5-1.4.5z"/></g><g><path class="st8" d="M10.7 110.3s.2.7.4 1.8c.2 1.2.5 2.9.8 4.9.3 2 .7 4.4 1.2 6.9.4 2.5.9 5.3 1.3 8s.9 5.4 1.3 8c.4 2.5.8 4.9 1.1 7 .3 2 .5 3.7.6 4.9.1 1.2.2 1.9.2 1.9l-.3.1s-.2-.7-.4-1.8c-.3-1.2-.6-2.9-1-4.9-.4-2-.8-4.4-1.2-6.9-.4-2.5-.9-5.2-1.3-8-.4-2.7-.9-5.4-1.3-8-.4-2.5-.8-4.9-1.1-7-.3-2-.6-3.7-.8-4.9-.2-1.2-.2-1.9-.2-1.9l.7-.1z"/><path class="st0" d="M1.7 153.6l8.7-43.2h41.3L44 153.6"/><path class="st8" d="M1.4 153.5c.5-3.6 1.3-7.2 2-10.8l2.2-10.8 4.3-21.6.1-.4h42.4l-.1.6-3.9 21.5-2 10.8c-.7 3.6-1.4 7.2-2.2 10.8l-.3-.1c.5-3.6 1.1-7.2 1.7-10.8l1.8-10.8 3.8-21.6.5.6H10.4l.5-.4-4.4 21.6-2.2 10.8c-.7 3.6-1.4 7.2-2.3 10.8l-.6-.2z"/><g><path class="st8" d="M41.9 126.8h-7c-2.6 0-5.3-.1-8.1 0-5.5 0-11 .1-15.1.1-4.1.1-6.9.1-6.9.1v.7s2.7 0 6.9.1c4.1 0 9.6 0 15.1.1h15.1c4.1 0 6.9-.1 6.9-.1v-.7c-.1-.2-2.8-.3-6.9-.3zM31.6 145.8c-2.6 0-5.4-.1-8.1 0-5.5 0-11.1.1-15.3.1-4.2.1-6.9.1-6.9.1v.7s2.8 0 6.9.1c4.2 0 9.7 0 15.3.1h15.2c4.2 0 6.9-.1 6.9-.1v-.7s-2.8-.1-6.9-.1c-2.1-.2-4.5-.2-7.1-.2z"/></g><g><path class="st8" d="M51.4 110.8s.2.6.4 1.8c.2 1.2.5 2.8.8 4.8.3 2 .7 4.3 1.1 6.8.4 2.5.8 5.2 1.3 7.8.4 2.7.8 5.3 1.2 7.8.4 2.5.8 4.8 1.1 6.8.3 2 .5 3.7.6 4.8.1 1.2.2 1.8.2 1.8l-.3.1s-.2-.7-.4-1.8c-.2-1.2-.6-2.8-1-4.8s-.7-4.3-1.2-6.8c-.4-2.5-.9-5.1-1.3-7.8s-.9-5.3-1.3-7.8-.8-4.8-1.1-6.8c-.3-2-.6-3.7-.7-4.8-.1-1.2-.2-1.9-.2-1.9h.8z"/></g></g><g><path class="st9" d="M197.6 153.4l-.3-5.3c13.2-6.8 24.9-27.8 24.9-27.8l-7.8-8.1c-3.8 7.6-15.2 18.9-23.7 21-.2-.1-.4-.2-.6-.2-2.8-1-18.4-2.1-22.2-.5-2.4 1-4 1.8-5.1 2.8-4.3 3.3-8.3 6.9-12.1 10.8l-9-14.1-8.1 5.8s2.4 8.6 6.5 15.7h57.5z"/></g><g><path class="st4" d="M164.7 142.5s.1.2.1.5-.1.8-.2 1.3c-.2 1.1-.5 2.5-1 3.9-.2.7-.5 1.4-.7 2-.3.6-.5 1.2-.8 1.7-.3.5-.5.9-.7 1.1-.2.3-.3.4-.3.4-.1.1-.2.1-.2 0 0 0-.1-.1 0-.1 0 0 0-.2.1-.5s.2-.7.4-1.2.4-1.1.6-1.7c.2-.6.4-1.3.7-2 .4-1.3.8-2.7 1-3.7.1-.5.2-.9.3-1.2.1-.3.2-.5.2-.5.1-.2.4-.2.5 0 0-.1 0 0 0 0z"/></g><path class="st10" d="M189.7 128.3c-3.6.1 6.2-6.1-.3-15.2l-1.8.5c.1-5.2-1.4-10.3-4.4-11.5-6.9-2.6-14.1-3.8-17.4 6.4-1.3 4 3.9 3.2 3.9 3.2l-.8 7.3s-.1 9-3.7 10.2c-3.6 1.2 16.3 12.4 26.4 2.1 0 .2 2-3-1.9-3z"/><path class="st9" d="M191.5 111.9c1-3.8.6-8.5-.6-10.6-2.2-3.7-4.5-7-11.8-7.4-3-.2-5.2.8-6.7 2-1.1-.8-2.4-1.1-3.7-.3-4.2 2.6-.2 10.8.5 12.2 2.3 6.5 9.4 13.4 17.2 10.2 1.3-.2 2.4-1.1 3.3-2.3.7-.8 1.2-1.7 1.4-2.7.2-.3.3-.7.4-1.1z"/><g><path class="st0" d="M188.1 106.6c-.4-1.2-.8-2.5-1.2-3.7-.4-1.2-.9-2.4-1.4-3.6-.5-1.2-1.2-2.3-1.9-3.4-.7-1-1.6-2-2.7-2.3h.1l-5.2-.1.3-.8c.3.3.6.5.9.8l.8.8c.5.5 1 1.1 1.5 1.7.5.6.9 1.2 1.3 1.8l.6.9c.2.3.4.6.6 1 .4.6.7 1.3 1 2 .3.7.6 1.4.8 2.1l.6 2.1c.2.7.2 1.5.3 2.2h-.3c-.2-.7-.3-1.4-.6-2.1l-.3-1c-.1-.3-.3-.7-.4-1-.2-.7-.5-1.3-.8-2-.3-.6-.6-1.3-1-1.9l-.6-.9-.6-.9c-.4-.6-.8-1.2-1.3-1.7s-.9-1.1-1.4-1.6c-.2-.3-.5-.5-.8-.7-.3-.2-.5-.5-.8-.7l-1.1-.8h1.3l5.2.1h.2c1.4.5 2.4 1.6 3.2 2.7.8 1.1 1.4 2.3 1.9 3.5.5 1.2 1 2.4 1.4 3.7.4 1.3.8 2.5 1 3.8h-.6z"/></g><g><path class="st9" d="M72.6 42.6s9.8-9.1 20-5.1l1.7 9.3-23.1-.8c.1-.1.6-2.7 1.4-3.4z"/></g><g><path class="st11" d="M91.2 83.1c0 1.6-1.3 3-3 3H41.8c-1.7 0-3-1.4-3-3V64.6c0-1.7 1.3-3 3-3h46.4c1.7 0 3 1.4 3 3v18.5z"/></g><g><path class="st12" d="M99.5 76.1l-4.3 3.8-4.1-3.6-5.1-1.1.2-.7.4-1.1 4.6-1.3 8.6-1.5.8 5.4-1.1.1z"/></g><g><path class="st12" d="M97.7 25.9s.9 10.4 3.7 12.4l-12.9 2.1V33l9.2-7.1z"/></g><g><path class="st12" d="M100.6 19.5c.2 10.8-6.1 13.9-8.5 14.5-4.5 1-11-4.9-13.1-13.6 0 0-6.1-16.1 12.7-15.3 7.2.3 8.9 14.4 8.9 14.4z"/><path class="st13" d="M78.6 17.4s.3.8.7 2.1c.4 1.3 1 3.2 1.9 5.4 1 2.1 2.3 4.6 4.4 6.6 1.1 1 2.3 1.7 3.8 2 1.4.3 2.9.1 4.3-.6 1.4-.6 2.6-1.6 3.5-2.7.9-1.2 1.6-2.5 2.1-3.9 1-2.7 1.1-5.5 1.2-7.9 0-2.4-.2-4.3-.4-5.7-.1-.7-.2-1.2-.2-1.6-.1-.4-.1-.6-.1-.6 0-.1 0-.2.1-.2s.2 0 .2.1c0 0 .3.8.6 2.1.2.7.3 1.5.5 2.5s.3 2.1.3 3.3c.1 2.4-.1 5.3-1.1 8.2-.5 1.5-1.2 2.9-2.3 4.2-1 1.3-2.3 2.4-3.9 3.1-1.5.7-3.3 1-5 .6-1.7-.3-3.1-1.2-4.3-2.3-1.2-1.1-2.1-2.3-2.8-3.5-.7-1.2-1.3-2.4-1.8-3.5-1-2.2-1.6-4.2-1.9-5.5-.4-1.3-.4-2.1-.4-2.1 0-.2.1-.3.3-.4.1 0 .2.1.3.3z"/><path class="st13" d="M84.8 5.3C77.9 7 74 11.5 76.1 13.8c1.9 2 13.3-4.8 16.7-2.6 2.2 1.4 3.1 5.4 3.5 8 .2 1.5 1.4 2.7 2.9 3l1.8.4c1.7-10 1.7-21.5-16.2-17.3zM88.1 20.6s.1.3.3.7c.2.4.3 1 .5 1.5.1.6.3 1.1.3 1.6.1.4.1.7.1.7 0 .2-.1.4-.4.4-.2 0-.3-.1-.4-.2 0 0-.1-.3-.3-.7-.1-.4-.3-1-.4-1.5-.1-.6-.2-1.1-.3-1.6v-.7c0-.1.1-.3.3-.3.2 0 .3 0 .3.1z"/><path class="st10" d="M84.1 24c-.4.1-.9-.2-1-.6l-.3-1.3c-.1-.4.2-.9.6-1 .4-.1.9.2 1 .6l.3 1.3c.1.4-.1.9-.6 1zM92.5 22c-.4.1-.9-.2-1-.6l-.3-1.3c-.1-.4.2-.9.6-1 .4-.1.9.2 1 .6l.3 1.3c.1.4-.1.9-.6 1z"/><path class="st13" d="M89.6 30.2c-.6 0-1.2-.2-1.6-.5-.2-.2-.2-.5-.1-.7s.5-.2.7-.1c.3.3.9.4 1.5.2.5-.1.9-.4 1-.8.1-.3.4-.4.6-.3.3.1.4.4.3.6-.2.7-.8 1.2-1.7 1.5-.1.1-.4.1-.7.1zM90.3 15.3l.1-.1c.1-.1.3-.2.5-.3.2-.1.4-.2.6-.2.2 0 .5-.1.7-.1.5 0 1 .1 1.4.2.4.2.6.4.6.4.1.1.1.3 0 .5-.1.1-.2.1-.4.1 0 0-.2-.1-.4-.1-.3 0-.7-.1-1.1-.1-.4 0-.8.1-1.1.1-.1 0-.2 0-.3.1-.1 0-.1.1-.1.1-.2.1-.4 0-.5-.2-.1-.1-.1-.2 0-.4zM83.4 17.6h-.2s-.1 0-.3.1c-.3.1-.7.2-1 .4-.4.2-.7.4-.9.5-.2.2-.4.3-.4.3-.1.1-.3.1-.5 0-.1-.1-.1-.2-.1-.4 0 0 .1-.3.3-.6.3-.3.7-.6 1.1-.8.2-.1.5-.2.7-.3.2-.1.4-.1.6-.1.2 0 .4 0 .5.1.1 0 .1.1.1.1.2.1.2.3.1.5.2.1.1.2 0 .2z"/><path d="M75.5 14C74.3.8 97.6-4.3 101.1 10.5" fill="#00a9de"/><path class="st9" d="M69.9 15.2s2-.5 5-1c1.5-.3 3.3-.5 5.1-.8 1.9-.3 3.9-.6 5.9-.9 4-.6 8.1-1.1 11.1-1.6 3-.4 5.1-.6 5.1-.6.2 0 .3.1.4.3 0 .2-.1.3-.3.4 0 0-2 .4-5 .9s-7 1.1-11.1 1.7c-2 .3-4 .6-5.9.8-1.9.3-3.6.5-5.2.7-3 .4-5.1.5-5.1.5-.1 0-.2-.1-.2-.2s.1-.2.2-.2zM89.3 12.2c-6.4-1-16.8-2.5-19.4 3.2"/><path class="st9" d="M89.3 12.4s-1.3 0-3.3-.2c-1-.1-2.1-.2-3.3-.3-1.2-.1-2.5-.1-3.8-.1-.6 0-1.3.1-1.9.1-.6.1-1.2.1-1.8.3-.3.1-.6.1-.8.2-.3.1-.5.2-.8.3-.5.2-.9.4-1.3.7-.3.3-.7.5-1 .8-.2.3-.5.5-.6.7-.3.4-.5.7-.5.7v.1c-.1.2-.3.2-.5.1-.1-.1-.2-.3-.1-.4 0 0 .2-.3.4-.9.1-.3.4-.5.7-.9.2-.4.7-.6 1.1-1 .4-.3.9-.6 1.5-.8.3-.1.6-.2.8-.3.3-.1.6-.2.9-.2.6-.2 1.3-.2 1.9-.3.7-.1 1.3-.1 2-.1 1.3 0 2.7 0 3.9.1 1.2.1 2.4.2 3.3.4.5.1.9.2 1.3.3.4.1.7.2 1 .2.6.1.9.2.9.2.1 0 .2.2.1.3h-.1z"/></g><g><path class="st12" d="M68.5 43.8s-3.2 5.6 1.4 7c4.6 1.3 5.8 1 6.6-.5 1.3-2.3.1-3.6 2-1.6s4 1.6 3.6-1.2c-.4-2.8-2.3-3.9-6.3-4.2-3.9-.3-6.1-.9-7.3.5z"/></g><g><path class="st13" d="M68.6 44.1c-.2.7-.5 1.4-.6 2-.1.3-.1.7-.1 1 0 .3 0 .7.1 1 0 .2.1.3.2.5s.1.3.2.4c.2.3.4.5.7.7.3.2.6.4.9.5.3.1.6.3 1 .4l1 .3c.4.1.7.1 1 .1.7 0 1.4-.1 2-.3.3-.1.6-.3.8-.5.2-.2.4-.5.6-.7l.2-.4.1-.5c.1-.3.1-.7.2-1v-.1c.1-.3.3-.5.6-.4.1 0 .3.1.3.2.3.4.7.9 1.1 1.2.2.2.4.3.6.5.2.1.5.2.7.3.2.1.4.1.6 0 .2-.1.4-.1.5-.3l.2-.2.1-.1c.1-.1.1-.2.1-.3.1-.2.1-.5.1-.7 0-.2 0-.5-.1-.7-.1-.2-.2-.5-.3-.7-.1-.2-.3-.4-.5-.6l-.6-.6c-.4-.4-.9-.6-1.4-.8-.3-.1-.5-.2-.8-.3l-.9-.2c-.1 0-.1-.1-.1-.2s.1-.1.2-.1h.9c.3.1.6.1.9.2.6.2 1.2.4 1.7.8.3.2.5.4.8.6.2.2.4.5.6.8.2.3.3.6.4.9.1.3.2.7.2 1 0 .3 0 .7-.1 1.1-.1.2-.1.3-.2.5l-.2.3-.2.2c-.3.3-.6.5-1 .6-.4.1-.8.1-1.1 0-.4-.1-.7-.2-1-.4-.3-.2-.5-.4-.8-.6-.5-.4-.9-.9-1.3-1.4l1-.3c-.1.4-.1.8-.2 1.2l-.2.6-.3.6c-.2.4-.5.7-.8 1-.3.3-.7.5-1.1.7-.8.3-1.7.4-2.5.4-.4 0-.8-.1-1.2-.2l-1.2-.3c-.4-.1-.8-.3-1.1-.5-.4-.2-.7-.4-1.1-.7-.3-.3-.6-.6-.9-1L67 49c-.1-.2-.2-.4-.2-.6-.1-.4-.1-.8-.1-1.3 0-.4.1-.8.2-1.2.1-.4.2-.8.4-1.1.2-.4.4-.7.6-1 .1-.1.3-.2.5 0 .3 0 .3.2.2.3z"/></g><g><path class="st13" d="M81.7 45.5v-.2c.1-.1.2-.1.3-.2.3-.2.5-.5.8-.9.1-.2.3-.4.4-.5.1-.2.2-.3.4-.5.2-.3.6-.4.6-.4.1 0 .3 0 .3.2 0 0 .1.3 0 .7-.2.4-.4.8-.7 1.2-.3.4-.7.8-1.1 1-.2.1-.3.2-.5.3h-.3c-.2.1-.4 0-.4-.2s0-.4.2-.5z"/></g><g><path class="st9" d="M87.3 36.5s13.4-1.3 24.2 1c0 0 6.7 1.2 8.5 5 2.1 4.4 11.5 18.6 3.3 24.5-8.8 6.3-23.5 12.8-23.5 12.8l-3.9-9.9 16.4-9s1.3-.7.8-2.3c-.9-2.8-3.6-11.5-3.6-11.5l-23.9-.7 1.7-9.9z"/></g><g><path class="st12" d="M91.1 75.8c.6 2.9-7.3.9-7.8 1.8-1.1 2 8.3 8.7 13.9.4"/></g><g><path class="st12" d="M88.6 36.4s-5.8 5.6.9 5.6 10.7-5.8 10.7-5.8-1.6-3.4-1.7-5.2l-3.9 4.2-6 1.2z"/></g><g><path class="st13" d="M108.9 44.9c.4.6.6 1.2.8 1.9l.7 1.9 1.3 3.9c.9 2.6 1.7 5.1 2.5 7.7.1.2 0 .5-.3.6l-3.7 1.9c-1.2.6-2.5 1.2-3.8 1.7-.1 0-.2 0-.2-.1s0-.1.1-.2c1.1-.8 2.3-1.5 3.5-2.2l3.6-2-.3.6c-.9-2.6-1.7-5.1-2.6-7.7l-1.3-3.9-.6-1.9c-.2-.6-.4-1.3-.5-2 0-.2.1-.4.3-.4.4 0 .5.1.5.2z"/></g><g><path class="st4" d="M91.1 71.7s0-.1.1-.2.2-.1.4-.1c.3-.1.8-.2 1.3-.2.5-.1.9-.1 1.3-.1s.6.2.6.2c.1.1.1.2.1.3 0 0-.2.3-.5.4-.3.1-.8.2-1.2.3-.5.1-.9.1-1.3.2-.2 0-.3.1-.4 0-.1 0-.2-.1-.2-.1-.2-.2-.3-.5-.2-.7z"/></g><g><path class="st11" d="M91.1 75.9l-.6.6-12.8-.6V65h13.4z"/></g><g><path class="st4" d="M91.4 75.8s0 .1.1.3c0 .3 0 .7-.4 1.1-.3.3-.8.5-1.3.7-.5.1-1.1.2-1.7.3-.6.1-1.2.1-1.9.1s-1.4 0-2.1.1c-.2 0-.3 0-.4.1 0 0-.1.1 0-.1v-.1.2c0-.1 0 .1.1.2 0 .1.1.3.2.4.4.5.9 1 1.6 1.4 1.2.8 2.7 1.3 4 1.3 1.4.1 2.6-.4 3.6-.9.5-.3.9-.6 1.2-.8.4-.3.6-.6.9-.8.3-.2.4-.4.5-.6l.2-.2c.1-.1.2-.1.2 0 .1.1.1.1 0 .2 0 0 0 .1-.1.3-.1.2-.2.4-.4.7-.2.3-.5.6-.8 1-.3.4-.8.7-1.3 1.1-1 .7-2.5 1.2-4.1 1.1-1.6 0-3.2-.5-4.6-1.4-.7-.4-1.4-1-1.9-1.7l-.3-.6c0-.1-.1-.2-.1-.4v-.5V78c.1-.1.1-.1.1-.2.1-.2.2-.2.3-.3.1-.1.1-.1.2-.1.3-.1.5-.1.7-.1.8-.1 1.5-.1 2.2-.1.7 0 1.3 0 1.9-.1 1.1-.1 2.1-.3 2.4-.6.2-.1.2-.3.3-.3v-.3c0-.2.2-.3.3-.3.2-.1.3 0 .4.2z"/></g><path class="st0" d="M198.7 28.6c0-1-.2-1.9-.4-2.9-.2-.9-.5-1.9-1-2.7-.4-.9-1-1.7-1.6-2.4-.2-.2-.3-.4-.5-.6l-.6-.5c-.4-.3-.7-.7-1.2-.9-.4-.2-.8-.5-1.3-.7l-1.4-.5c-.4-.2-.9-.3-1.4-.4-.5-.1-1-.2-1.4-.3l-1.4-.1H185l-1.4.1c-.5 0-1 0-1.4.2-.9.2-1.9.3-2.8.7-.4.2-.9.3-1.3.6l-1.3.7c-.8.6-1.6 1.2-2.2 2l-.5.6-.4.6c-.3.4-.5.8-.7 1.3-.4.9-.7 1.8-.9 2.8-.2.9-.3 1.9-.4 2.9-.1 1 0 1.9.1 2.9l.1.4h.4c.5 0 .9-.1 1.4-.1v9.6c0 1.5 0 3 .2 4.5h.7c.2-1.5.2-3 .2-4.5v-7.5c.1.2.2.3.4.5.4.4.8.9 1.4 1.3.6.5 1.3.8 2.1 1.1.8.2 1.8.2 2.7-.1.5-.1.9-.4 1.3-.6.4-.2.8-.5 1.2-.8l.5-.4c.2-.1.3-.2.5-.3.3-.2.7-.2.9-.1.6.2 1.1.9 1.5 1.7.4.8.8 1.6 1.2 2.3.4.8.9 1.5 1.4 2.1.6.6 1.2 1.1 2 1.4.7.2 1.4.3 2 .2.6-.1 1.1-.2 1.5-.4.4-.1.6-.3.8-.4 0 1.4.1 2.8.2 4.2h.3c.2-2.9.3-5.9.3-8.8v-5.5c.4 0 .9.1 1.3.1h.2v-.3c.3-1.1.3-2 .2-3zM196 41.4c-.2 0-.5.2-.9.2-.7.2-1.9.3-3-.1s-2.1-1.6-2.8-3.1c-.4-.8-.8-1.5-1.2-2.3-.2-.4-.4-.8-.8-1.2-.3-.4-.7-.8-1.3-1-1.3-.4-2.3.5-2.9 1-.3.2-.7.5-1 .7-.4.2-.7.4-1.1.5-.7.3-1.4.2-2.1.1-.7-.2-1.3-.5-1.8-.9s-.9-.8-1.3-1.2c-.3-.4-.6-.8-.8-1.1-.1-.1-.2-.3-.3-.4v-3.8h21.1v8.3c0 1.4 0 2.8.1 4.2.2.1.2.1.1.1zm.5-13.6c-7.4 0-14.8-.1-22.2 0h-.5v3.7c-.3 0-.6-.1-1-.1-.1-.8-.1-1.6 0-2.3 0-.9.2-1.8.4-2.7.2-.9.5-1.7.9-2.6l.6-1.2.3-.6.4-.5c.5-.7 1.3-1.3 1.9-1.8l1.2-.7c.4-.3.8-.3 1.2-.5.8-.4 1.7-.5 2.6-.7.4-.1.9-.1 1.4-.2l1.4-.1H186.4l1.4.1c.5.1.9.2 1.3.3.4.1.9.1 1.3.3l1.3.5c.4.2.8.4 1.2.7.4.2.7.5 1.1.8l.5.4c.2.2.3.3.4.5.6.6 1.1 1.4 1.5 2.2.4.8.7 1.6 1 2.5.4 1.7.7 3.4.7 5.2-.3 0-.7 0-1 .1v-3.4l-.6.1z"/></svg>