<svg xmlns="http://www.w3.org/2000/svg" viewBox="0 0 369.19 243.76"><defs><style>.cls-1{fill:#e9eff4}.cls-2{fill:#fff}.cls-12,.cls-13,.cls-3{fill:#c8d7e2}.cls-4{fill:#0da9dd}.cls-5{fill:#c2f4ff}.cls-6{fill:#7fd3f2}.cls-11,.cls-15,.cls-7{fill:none}.cls-14,.cls-8{fill:#005082}.cls-9{fill:#00be28}.cls-10{fill:#00a9de}.cls-11{stroke:#c7d6e1;stroke-width:1.42px}.cls-11,.cls-14{stroke-miterlimit:10}.cls-12{opacity:.5;isolation:isolate}.cls-13,.cls-14,.cls-15{stroke:#005082}.cls-13,.cls-15{stroke-linecap:round;stroke-linejoin:round;stroke-width:1.62px}.cls-14{stroke-width:1.42px}.cls-16{fill:#def2fa}</style></defs><title>Asset 37</title><g id="Layer_2" data-name="Layer 2"><g id="Layer_1-2" data-name="Layer 1"><path class="cls-1" d="M17.24 241.82c29.24-.81 58.63-1 87.88-1.13l87.88-.17 87.89.17 43.87.32 21.93.16 21.94.33a.65.65 0 0 1 .56.64c0 .33-.28.49-.56.65l-21.94.32-21.93.16-43.87.33-87.89.16-87.88-.16c-29.25-.16-58.64-.33-87.88-1.13a.34.34 0 0 1-.28-.33.32.32 0 0 1 .28-.32z"/><path class="cls-2" d="M40.25 180.68c8.09-6.15 8.41-19.41 1-34.13S12.75 117 3.05 131.67s19.73 57.42 32 50.79"/><path class="cls-3" d="M40.25 180.51a15.49 15.49 0 0 0 5-7.76 26.1 26.1 0 0 0 .65-9.38 46.34 46.34 0 0 0-6-17.79 46.46 46.46 0 0 0-12.45-13.91 33.73 33.73 0 0 0-8.25-4.37 14 14 0 0 0-8.9-.33 13.67 13.67 0 0 0-6.79 5.67 14.56 14.56 0 0 0-1.45 8.73c.64 6.15 3.07 12.13 6 17.79a78.45 78.45 0 0 0 10.84 15.53 43.16 43.16 0 0 0 7.1 6.15 20.1 20.1 0 0 0 4.21 1.94 6.78 6.78 0 0 0 4.37-.32c.16-.17.32 0 .48.16a.59.59 0 0 1-.16.48 7.21 7.21 0 0 1-4.85.65 15.33 15.33 0 0 1-4.52-1.75 39.32 39.32 0 0 1-7.6-6.15A77.32 77.32 0 0 1 6.44 160.3C3.37 154.63.78 148.49.13 142c-.32-3.24-.16-6.8 1.62-9.87a14.62 14.62 0 0 1 7.77-6.47 16.26 16.26 0 0 1 10 .49 33.88 33.88 0 0 1 8.58 4.69 46.06 46.06 0 0 1 12.8 14.57 46.65 46.65 0 0 1 5.82 18.44 24.73 24.73 0 0 1-1.13 9.71 17.1 17.1 0 0 1-5.67 7.76h-.16c.33-.64.33-.64.49-.81z"/><path class="cls-2" d="M53 188.76c-5.18-8.41-1.78-22.48 8.41-31.54l2.91 10 1.46-11.48c3.88-1.3 10-1.3 13.26 2.26 13.59 14.4-10.84 37-22 32.19"/><path class="cls-3" d="M52.87 188.93a17.27 17.27 0 0 1-2.75-8.42 27.72 27.72 0 0 1 1.13-8.89 34.66 34.66 0 0 1 9.54-14.88.77.77 0 0 1 1.13 0c.16.16.16.16.16.32l2.92 10-1.62.16 1.45-11.48a.7.7 0 0 1 .65-.65 18 18 0 0 1 8.25-.65 17.21 17.21 0 0 1 4 1.46 10.62 10.62 0 0 1 3.08 2.91 15.38 15.38 0 0 1 3.07 7.76 17.2 17.2 0 0 1-1.45 8.09 30.64 30.64 0 0 1-10.19 12.46 25.77 25.77 0 0 1-7.24 3.59 11.62 11.62 0 0 1-8.09-.17c-.16 0-.16-.32-.16-.48s.32-.16.48-.16c2.43 1 5 .48 7.44-.33a23.33 23.33 0 0 0 6.8-3.72 28.83 28.83 0 0 0 9.54-12 16.41 16.41 0 0 0 1.29-7.28 12 12 0 0 0-2.75-6.79c-2.75-4.21-8.73-4.69-13.42-3.23l.65-.65-1.62 11.48a.71.71 0 0 1-1 .65.69.69 0 0 1-.65-.65l-2.75-10 1.29.33a32.65 32.65 0 0 0-9.54 14.07 25.57 25.57 0 0 0-1.45 8.41 16 16 0 0 0 2.1 8.25v.16c-.16.33-.29.33-.29.33z"/><path class="cls-1" d="M49.31 198.63a23.31 23.31 0 0 1 2.26-8.73 47.75 47.75 0 0 1 4.69-7.77A67.08 67.08 0 0 1 69.53 170c.16-.16.32 0 .48 0 .16.16 0 .32 0 .49-4.2 4.2-8.73 8.08-12.13 12.77a43.22 43.22 0 0 0-4.69 7.28 70.16 70.16 0 0 0-3.4 8.09.16.16 0 0 1-.16.16c-.32 0-.32-.16-.32-.16zM41.06 198.63c-.49-5.82-.81-11.48-1.78-17.31a83.73 83.73 0 0 0-4.69-16.5 61.12 61.12 0 0 0-8.74-14.71 66.4 66.4 0 0 0-12.78-11.49.59.59 0 0 1-.16-.48.59.59 0 0 1 .49-.17A53.08 53.08 0 0 1 27 149a52.81 52.81 0 0 1 9.2 15 78.13 78.13 0 0 1 4.7 17 79.19 79.19 0 0 1 .48 17.47c0 .32-.16.32-.32.16z"/><path class="cls-1" d="M44.78 240.52a17.52 17.52 0 0 1-9.06-1.94 20 20 0 0 1-7.28-6 24.74 24.74 0 0 1-5-18v-.16l4.69-16a1.07 1.07 0 0 1 .81-.65h31.7a1.09 1.09 0 0 1 .81.65l4.69 16v.16a25.45 25.45 0 0 1-5 18 21.89 21.89 0 0 1-7.27 6 17.54 17.54 0 0 1-9.06 1.94zm0-.48a18.44 18.44 0 0 0 8.73-2.27 21.24 21.24 0 0 0 6.8-5.82 23.59 23.59 0 0 0 4.36-17v.16l-4.85-16 .81.64h-31.7l.8-.64-4.85 16V215a23.71 23.71 0 0 0 .65 8.89 24.8 24.8 0 0 0 3.88 8.11 20.1 20.1 0 0 0 15.37 8.41z"/><path class="cls-3" d="M24.07 206.23c3.56-.48 7.12-.48 10.68-.64l10.67-.17c7.12.17 14.24 0 21.36.65a.33.33 0 0 1 0 .65c-7.12.48-14.24.48-21.36.65l-10.67-.17c-3.56-.16-7.12-.16-10.68-.64-.16 0-.16 0 0-.33z"/><path class="cls-4" d="M74.54 34.29v-21A13.32 13.32 0 0 1 87.8 0h196.05a13.32 13.32 0 0 1 13.26 13.26v21z"/><path class="cls-5" d="M74.54 194.59V34.29h222.57V195.4l-166.6-2.59"/><circle class="cls-2" cx="99.61" cy="17.47" r="3.24"/><circle class="cls-6" cx="116.92" cy="17.47" r="3.24"/><circle class="cls-6" cx="134.39" cy="17.47" r="3.24"/><path class="cls-7" d="M306.33 33.64L67.1 34.78"/><path class="cls-8" d="M306.33 34c-19.9 1.45-39.79 1.45-59.85 1.62l-59.85.48-59.84.16c-19.9 0-40 .16-59.85-1v-.81C86.83 33 106.73 33 126.79 32.84l59.84-.49 59.85-.16c19.9 0 40-.16 59.85 1z"/><path class="cls-2" d="M273.36 73.92H185.9V54.78h93v13.61a5.53 5.53 0 0 1-5.52 5.53M175 73.92h-17.81V61.58a5.44 5.44 0 0 1 5.44-5.44H175zM273.36 175.1H185.9v-32.81h93v27.38a5.47 5.47 0 0 1-5.52 5.43M175 160.06h-17.81v-12.34a5.43 5.43 0 0 1 5.44-5.43H175z"/><path class="cls-9" d="M273.36 127.24H185.9v-41h93v35.59a5.47 5.47 0 0 1-5.52 5.43M175 104h-17.81V91.66a5.44 5.44 0 0 1 5.44-5.44H175z"/><path class="cls-2" d="M90.19 175.1h52V54.78h-52"/><path class="cls-10" d="M131.21 82.81a14.36 14.36 0 1 1-14.36-14.36 14.35 14.35 0 0 1 14.36 14.36"/><path class="cls-2" d="M100.42 195.23a1.91 1.91 0 0 0 .49-2.75 5.74 5.74 0 0 0-3.89-2.1 7.23 7.23 0 0 0-5.66 2.27 6.9 6.9 0 0 0 5.18 3.35 5 5 0 0 0 3.88-.77zM103.82 189.09a1.86 1.86 0 0 0 1.18-2.59 5.64 5.64 0 0 0-3.4-2.91 7.08 7.08 0 0 0-6 .81 6.78 6.78 0 0 0 4.2 4.53 6 6 0 0 0 4.02.16zM91 192.48s0-3.72-3.07-5.33a7 7 0 0 0-4.21-.81 1.77 1.77 0 0 0-1.46 2.26 6 6 0 0 0 2.75 3.4 6.94 6.94 0 0 0 5.99.48zM95.24 184.4a7.06 7.06 0 0 0-2.1-5.83 6.68 6.68 0 0 0-3.56-1.45 2.09 2.09 0 0 0-2.26 2.59 6.58 6.58 0 0 0 2.1 3.23 7 7 0 0 0 5.82 1.46z"/><path class="cls-11" d="M89.58 208.17c0-12.13.16-18.6 7.93-26"/><path class="cls-3" d="M88.77 200.57l-.32-.32-.48-.49a7.76 7.76 0 0 0-1.14-1 8.24 8.24 0 0 0-2.42-1.13 4.77 4.77 0 0 0-2.59.16c-.49.16-.81.33-1.3.49-.32.16-.32.32-.48.48v.65a4.09 4.09 0 0 0 .81 1 4.27 4.27 0 0 0 2.26 1.13 7.52 7.52 0 0 0 2.75.16 3.11 3.11 0 0 0 1.3-.32c.16-.16.48-.16.64-.32l.33-.16.64-.33zm.65.49l-.48.48c-.17.16-.49.33-.65.49-.49.32-1 .48-1.46.81a8.18 8.18 0 0 1-3.39.32 6.48 6.48 0 0 1-3.24-1.46 9.23 9.23 0 0 1-1.29-1.29 2.8 2.8 0 0 1-.49-2.26 2.69 2.69 0 0 1 1.46-1.78 6.32 6.32 0 0 1 1.62-.65 6.68 6.68 0 0 1 3.55 0 5.19 5.19 0 0 1 2.95 1.94l1 1.46c.16.32.16.48.32.8l.16.33v.81z"/><path class="cls-3" d="M98.8 202.35a1.41 1.41 0 0 0 .33-1.29c0-.16-.17-.33-.33-.49s-.32-.16-.48-.32a5.83 5.83 0 0 0-2.75-1.13 9.24 9.24 0 0 0-2.91.48 13.57 13.57 0 0 0-2.43 1.78v-1.13a7.73 7.73 0 0 0 1.62 1.62 5.12 5.12 0 0 0 2.1 1 8.25 8.25 0 0 0 4.85-.49zm.33.32a6.43 6.43 0 0 1-5.34 1.62 5.83 5.83 0 0 1-2.79-1.13 6.48 6.48 0 0 1-2.1-2.1 1.34 1.34 0 0 1 0-1.14 7.26 7.26 0 0 1 3.1-2.42 6.49 6.49 0 0 1 3.88-.49 7.51 7.51 0 0 1 3.56 1.78 2.63 2.63 0 0 1 .65 1 2.82 2.82 0 0 1 .16 1.14 2.87 2.87 0 0 1-1.13 1.77zM100.26 195.07a1.84 1.84 0 0 0 .48-1.29c0-.16-.16-.33-.16-.49l-.48-.48a6.59 6.59 0 0 0-2.59-1.3 6 6 0 0 0-2.91.33 6.47 6.47 0 0 0-2.43 1.61l.16-1.13a5 5 0 0 0 1.46 1.78 11.46 11.46 0 0 0 1.94 1.13 7.25 7.25 0 0 0 4.53-.16zm.32.49a7.22 7.22 0 0 1-5.5 1.29 6.21 6.21 0 0 1-2.75-1.29 6.67 6.67 0 0 1-1.94-2.27 1 1 0 0 1 .16-1.13 10.63 10.63 0 0 1 3.24-2.26 6.83 6.83 0 0 1 7.44 1.94 2.54 2.54 0 0 1 .65 1 2.77 2.77 0 0 1 .16 1.13 4.81 4.81 0 0 1-1.46 1.62zM103.82 188.93a2.6 2.6 0 0 0 .81-1.14.92.92 0 0 0-.17-.64c0-.17-.16-.33-.32-.49a8.74 8.74 0 0 0-2.26-1.94 5.79 5.79 0 0 0-2.88-.32 6.85 6.85 0 0 0-2.75 1l.33-1.13a4.4 4.4 0 0 0 1 1.94 7.5 7.5 0 0 0 1.62 1.61 8.75 8.75 0 0 0 4.69 1.14zm.16.48a6.9 6.9 0 0 1-5.66-.16 5.45 5.45 0 0 1-2.27-1.94 7.53 7.53 0 0 1-1.45-2.75.78.78 0 0 1 .32-1 7.92 7.92 0 0 1 7.6-.65 6 6 0 0 1 2.75 2.91 2.39 2.39 0 0 1 .33 1.13 2.66 2.66 0 0 1-.17 1.14 2 2 0 0 1-1.61 1.13z"/><path class="cls-3" d="M90.88 192.16l-.17-.48c-.16-.17-.16-.49-.32-.65-.16-.49-.48-.81-.65-1.3A4.09 4.09 0 0 0 87.8 188a7 7 0 0 0-2.42-.81h-1.3c-.32 0-.32.16-.48.32s-.16.32-.16.65c.16.32.32.81.48 1.13a5.12 5.12 0 0 0 1.78 1.94 7.05 7.05 0 0 0 2.59 1 4.49 4.49 0 0 0 1.45.16h.65l.49-.16zm.32.65l-.32.16-.33.16a1.46 1.46 0 0 1-.81.16 5.51 5.51 0 0 1-1.61.16 6.81 6.81 0 0 1-5.83-3.23 15.32 15.32 0 0 1-.8-1.62 2.69 2.69 0 0 1 .32-2.26 2.74 2.74 0 0 1 2.1-1.13h1.78a6.24 6.24 0 0 1 3.24 1.29 5.14 5.14 0 0 1 2.1 2.75 5.75 5.75 0 0 1 .32 1.62v1.78zM95.08 184.07l-.16-.48c0-.16-.16-.49-.16-.65a9.55 9.55 0 0 0-.49-1.29 5.32 5.32 0 0 0-1.61-2.11 6.06 6.06 0 0 0-2.27-1.13c-.16 0-.48-.16-.65-.16h-.48a.85.85 0 0 0-.65.32c-.32.49-.48.81 0 1.78a5.83 5.83 0 0 0 3.72 3.4 5.06 5.06 0 0 0 1.3.32h1.45zm.16.81l-.32.16-.32.17c-.33 0-.49.16-.81.16h-1.62a6.54 6.54 0 0 1-3.07-1.3 6 6 0 0 1-2.1-2.75 4.7 4.7 0 0 1-.48-1.78 3.4 3.4 0 0 1 .81-2.1 2.58 2.58 0 0 1 2.1-1h1a7.19 7.19 0 0 1 .81.16 8.56 8.56 0 0 1 3.07 1.78 5.68 5.68 0 0 1 1.62 3.08 5.51 5.51 0 0 1 .16 1.61 1.46 1.46 0 0 1-.16.81v.81z"/><path class="cls-3" d="M89.42 208.17a35.64 35.64 0 0 1-.65-7.11 34.62 34.62 0 0 1 .65-7.12 25.08 25.08 0 0 1 2.75-6.79 16.88 16.88 0 0 1 5-5.18c.17-.16.33-.16.49.16a.31.31 0 0 1 0 .49 44.65 44.65 0 0 0-4 5.66 17.32 17.32 0 0 0-2.27 6.31c-.48 2.26-.65 4.53-1 6.79a50 50 0 0 1-.81 7c.16 0 0 0-.16-.17z"/><path class="cls-12" d="M86.83 208l12.3-.48a.69.69 0 0 1 .64.64v.33c-1.13 2.42-2.26 4.85-3.39 7.11v-.8a33.65 33.65 0 0 1 2.91 7.6 23.39 23.39 0 0 1 .81 8.25 12 12 0 0 1-3.89 7.6 12.39 12.39 0 0 1-8.08 2.59v-2.1h.32a1 1 0 1 1 0 1.94 13.41 13.41 0 0 1-8.09-2.59 11.6 11.6 0 0 1-3.88-7.6 23.91 23.91 0 0 1 .81-8.25 33.91 33.91 0 0 1 2.91-7.61v.81l-3.56-7.11a.77.77 0 0 1 .33-1h.32c4 0 8.25.16 12.29.32v.81h-2.75zm0-.16h2.75a.52.52 0 0 1 .49.49.43.43 0 0 1-.49.48c-4 .16-8.25.16-12.29.32l.65-1 3.72 7a.5.5 0 0 1 0 .65 34.88 34.88 0 0 0-2.59 7.28 19.4 19.4 0 0 0-.65 7.44 8.91 8.91 0 0 0 3.24 6.14 10.91 10.91 0 0 0 6.79 2.11v2.1h-.32a1 1 0 0 1 0-1.94 10.93 10.93 0 0 0 6.79-2.11 8.91 8.91 0 0 0 3.24-6.14 19.4 19.4 0 0 0-.65-7.44 39.18 39.18 0 0 0-2.59-7.28.73.73 0 0 1 0-.81c1.29-2.27 2.43-4.69 3.72-7l.65 1-12.29-.47v-.81z"/><path class="cls-3" d="M309.26 115.81h-9.87l-1.62-22.16h11.49v22.16z"/><path class="cls-13" d="M319.45 112.74c4.85-.65 18.11 16 20.54 22.32 2.42 6.47-13.43 10.19-13.43 10.19M336.59 192.65l-16.5-1.14c-.16 2.43-.48 5-.64 7.44l23.61 32.52 1.46-4.37c1.48-16.66-7.93-34.45-7.93-34.45z"/><path class="cls-13" d="M320.09 191.51c.16-1.94.16-3.88.33-5.66l-19.09 3.72s2.1 41.9 4.37 51.28l8.73-.16c.33-13.59 3.4-27.34 5-41.57z"/><path class="cls-14" d="M297.93 104.33a11 11 0 0 0 4.53-.16.16.16 0 0 1 .16.16l-3.72 3.88-1-4.2"/><path class="cls-13" d="M300.36 78.93c-5-.16-9.54 2.11-10.19 6.64-.65 3.88-3.88 4.69-4 6.79 0 1.46 2.58 1.78 2.91 3.24a10.73 10.73 0 0 0 10.19 8.73 9.54 9.54 0 0 0 3.07-.32"/><path class="cls-15" d="M292.6 96.57a4.48 4.48 0 0 1-2.27 2.26"/><path class="cls-8" d="M291.79 91.55a.69.69 0 0 0 .64-.65v-1.29a.7.7 0 0 0-.64-.65.7.7 0 0 0-.65.65v1.29a.69.69 0 0 0 .65.65z"/><path class="cls-4" d="M298.42 109.83c13.59-4.37 19.25-1.13 24.42 6.63 8.41 12.78 3.56 16 6.63 27.66s10.19 16.66 8.9 49.82h-38.82s-3.72-38.34-2.59-49.5M338.53 226.94s9.06 15.85 12 15.2c1.78-.32-1.13-8.09-2.1-11.64-.65-2.59-1.29-4.21-3.88-3.89z"/><path class="cls-13" d="M290.49 123.74a20.29 20.29 0 0 1-4.69-5.5c-3.07-5.5-11-14.88-12.94-12.29-1.94 2.42 1.46 11.16 4.37 12.61 2.1 7 13.26 30.25 19.89 28.47s12-37.2 2.75-36.72-9.87 20.87-9.87 20.87"/><path class="cls-8" d="M323 101.26a13.38 13.38 0 0 0-3.39-3.89 6.92 6.92 0 0 1-2.27-3.72 13.85 13.85 0 0 0-1.94-5.5 11.15 11.15 0 0 0-6.14-4.2c-2.27-3.88-4.21-4.53-7-5.34-4.53-1.45-8.9 1.3-8.9 1.3-.64 5.17 1.46 10.83 6.15 11.16-.81 3.88 1.46 9.22 5.82 10.51a14.07 14.07 0 0 0 2.11 9.54c3.55 5.83 10 8.25 14.23 5.66 4.25-3.07 4.89-9.86 1.33-15.52z"/><path class="cls-2" d="M74.07 191.09l-.25-163.94"/><path class="cls-16" d="M305.41 35H60.81"/></g></g></svg>