<svg id="advertisingRemoved" xmlns="http://www.w3.org/2000/svg" viewBox="0 0 1586.9 845.7"><style>.st0{fill:#c2f4ff}.st1{fill:#00a9de}.st2{fill:#004f84}.st3{fill:#fff}.st4{fill:#00be28}.st5,.st6{fill:#fff;stroke:#c8d7e2;stroke-width:8.8917;stroke-miterlimit:10}.st6{fill:none;stroke-width:10.0946}.st7{fill:#c8d7e2}.st8{fill:#74dcfc}</style><path class="st0" d="M312.1 842.8V75.2c0-32.1 26-58.1 58.1-58.1h859.1c32.1 0 58.1 26 58.1 58.1v767.6H312.1z"/><path class="st1" d="M312.1 169.3V73.1c0-38.1 26-68.9 58.1-68.9h859.1c32.1 0 58.1 30.9 58.1 68.9v96.2H312.1z"/><path class="st2" d="M1303.2 169.4c-21 1.9-42 3.1-62.9 4.1l-31.5 1.2-15.7.5-15.7.4c-21 .4-42 .6-62.9.7l-62.9.4-62.9.4-31.5.2-31.5.1-125.9.3-125.9-.3-31.5-.1-31.5-.2-62.9-.4-62.9-.4c-21-.1-42-.3-62.9-.7l-15.7-.4-15.7-.5-31.5-1.2c-21-1-42-2.2-62.9-4.1V165c21-1.9 42-3.1 62.9-4.1l31.5-1.2 15.7-.5 15.7-.4c21-.4 42-.6 62.9-.7l62.9-.4 62.9-.4 31.5-.2 31.5-.1 125.9-.3 125.9.3 31.5.1 31.5.2 62.9.4 62.9.4c21 .1 42 .3 62.9.7l15.7.4 15.7.5 31.5 1.2c21 1 42 2.2 62.9 4.1v4.4z"/><path class="st3" d="M1201.5 751.5H910.2V261.2h291.3"/><path class="st4" d="M1090.7 467.4H980.9V365.2c0-25.9 21-47 47-47h111.7v100.4c-.1 27-21.9 48.8-48.9 48.8zM1137.5 708.4H980.9V528.5h158.6v177.8c0 1.2-.9 2.1-2 2.1z"/><path class="st3" d="M808.7 755.3H386.6V406h464.9v349.3"/><path class="st2" d="M808.7 344.5H386.6v-31.8c0-28.4 23-51.4 51.4-51.4h413.5v83.2"/><path class="st5" d="M698.6 655.7s-8.6-23.3-31.4-27.4c-11.7-2.1-21.8 1-28.9 4.4-6.7 3.3-8.6 12.1-3.9 18 5.1 6.2 13.2 13.2 25.4 15.4 23.6 4.3 38.8-10.4 38.8-10.4zM764.7 675.7c6.3-4.4 7-13.3 1.4-18.5-6-5.6-15.4-11.7-27.7-11.6-23.2.1-36.8 18.4-36.8 18.4s12.4 20.2 36.3 20.2c11.8-.1 20.8-4.3 26.8-8.5zM774.3 619.1c6.6-3.8 8.1-12.7 2.9-18.4-5.6-6.1-14.4-12.9-26.6-13.9-23.1-1.9-38.2 15.3-38.2 15.3s10.7 21.2 34.6 23.1c11.7 1 21-2.4 27.3-6.1zM797.4 569.7c7.3-2.2 10.9-10.4 7.2-17.2-4-7.3-10.9-15.9-22.6-19.8-22-7.3-40.7 5.8-40.7 5.8s5.4 23.1 28.2 30.6c11.1 3.8 20.9 2.7 27.9.6zM711.5 600.3s-.3-24.8-20.4-36.4c-10.3-5.9-20.8-6.5-28.6-5.5-7.5.9-12.2 8.5-9.7 15.6 2.7 7.6 8.1 16.9 18.8 23.1 20.7 11.9 39.9 3.2 39.9 3.2zM739.9 545.7s3.4-24.6-14.7-39.1c-7.9-6.3-16.5-8.7-23.7-9.5-9.8-1.1-17.5 8.1-14.8 17.6 2 7.1 6.1 15.3 14.2 21.8 18.7 15 39 9.2 39 9.2z"/><g><path class="st6" d="M698.6 655.7s-8.6-23.3-31.4-27.4c-11.7-2.1-21.8 1-28.9 4.4-6.7 3.3-8.6 12.1-3.9 18 5.1 6.2 13.2 13.2 25.4 15.4 23.6 4.3 38.8-10.4 38.8-10.4zM764.7 675.7c6.3-4.4 7-13.3 1.4-18.5-6-5.6-15.4-11.7-27.7-11.6-23.2.1-36.8 18.4-36.8 18.4s12.4 20.2 36.3 20.2c11.8-.1 20.8-4.3 26.8-8.5zM774.3 619.1c6.6-3.8 8.1-12.7 2.9-18.4-5.6-6.1-14.4-12.9-26.6-13.9-23.1-1.9-38.2 15.3-38.2 15.3s10.7 21.2 34.6 23.1c11.7 1 21-2.4 27.3-6.1zM797.4 569.7c7.3-2.2 10.9-10.4 7.2-17.2-4-7.3-10.9-15.9-22.6-19.8-22-7.3-40.7 5.8-40.7 5.8s5.4 23.1 28.2 30.6c11.1 3.8 20.9 2.7 27.9.6zM711.5 600.3s-.3-24.8-20.4-36.4c-10.3-5.9-20.8-6.5-28.6-5.5-7.5.9-12.2 8.5-9.7 15.6 2.7 7.6 8.1 16.9 18.8 23.1 20.7 11.9 39.9 3.2 39.9 3.2zM739.9 545.7s3.4-24.6-14.7-39.1c-7.9-6.3-16.5-8.7-23.7-9.5-9.8-1.1-17.5 8.1-14.8 17.6 2 7.1 6.1 15.3 14.2 21.8 18.7 15 39 9.2 39 9.2z"/></g><path class="st7" d="M554.8 698.3c-2-8.1-2.3-16.5-1.5-24.6.7-8.2 2.2-16.3 4.3-24.3 2.1-8 4.9-15.7 8.1-23.2 3.3-7.5 7.2-14.8 12.6-21.2l3.1 1.8c-1.2 3.8-2.5 7.6-3.8 11.3l-3.8 11.2c-2.5 7.5-4.7 15-6.5 22.7-1.9 7.6-3.7 15.2-5.2 23-.8 3.9-1.5 7.7-2.4 11.6-.5 1.9-.9 3.9-1.4 5.9-.5 2-1 3.9-1.8 5.9l-1.7-.1z"/><path class="st7" d="M552.3 698.3c-.5-1.5-.8-3-1.1-4.6-.2-1.6-.1-3.1-.1-4.7.2-3.2 1-6.3 2.2-9.2 2.3-5.9 5.7-11.2 9.8-15.8 4-4.6 8.6-8.5 13.2-12.2 4.6-3.6 9.5-6.8 14.5-9.6l2.5 2.5c-1.5 2.7-3.4 5.1-5.3 7.3s-3.9 4.3-5.9 6.3c-4 4-7.8 8.1-11.3 12.3-3.5 4.2-6.7 8.4-9.3 13-.6 1.2-1.4 2.3-1.9 3.5l-.9 1.8-.5.9-.4.9c-.5 1.2-1.2 2.5-1.8 3.8-.5 1.3-1.1 2.6-1.9 4l-1.8-.2z"/><path class="st1" d="M386.6 719.5c120.1-49.8 379.6-17.2 464.9 35.7l-464.9-1.5v-34.2z"/><path class="st7" d="M700 706.6c-.6-4.5-.9-8.9-1.3-13.4-.3-4.5-.4-9-.5-13.5-.1-9 .3-18 1.1-27 .3-4.5 1-9 1.6-13.4.5-4.5 1.4-8.9 2.2-13.4.8-4.5 1.9-8.9 2.9-13.3s2.3-8.8 3.7-13.1c5.5-17.3 13.1-34.1 22.9-49.4 9.8-15.3 22-29.1 36.1-40.4l2.5 2.6c-2.8 3.5-5.7 6.8-8.5 10.1-2.7 3.5-5.4 7-8.1 10.4l-7.5 10.7c-2.3 3.7-4.7 7.3-6.9 11.1-8.8 15-15.7 31.1-20.7 47.8-1.2 4.2-2.6 8.3-3.6 12.6-1.1 4.2-2.2 8.5-3 12.8-.9 4.3-1.9 8.5-2.5 12.9-.7 4.3-1.5 8.6-2 13s-1.3 8.7-1.7 13.1c-.5 4.4-1.1 8.8-1.6 13.2l-.7 6.6c-.3 2.2-.6 4.4-.8 6.6-.5 4.4-1 8.9-1.7 13.3H700z"/><g><circle class="st0" cx="405.9" cy="85.4" r="14.3"/><circle class="st8" cx="481.5" cy="85.4" r="14.3"/><circle class="st8" cx="557" cy="85.4" r="14.3"/></g><title>advertisingRemoved</title></svg>