<svg xmlns="http://www.w3.org/2000/svg" x="0px" y="0px" width="250px" viewBox="0 0 193 156">
	<polygon fill="#FFFFFF" points="192.6,65.9 192.6,22.3 141.6,22.3 141.6,65.9 "/>
	<path fill="#6F93AD" d="M0,63.7V27.8c0-4.3,3.4-7.7,7.7-7.7H51v43.6C51,63.7,0,63.7,0,63.7z"/>
	<path fill="#CCCED0" d="M103,44.4l25.3-0.5c8.4-0.1,16.7-0.2,25-0.3l-1.5,1.5l-0.1-43.6l1.5,1.5h-22.8L119,3h-5.7h-2.9 c-0.5,0-0.9,0-1.3,0s-0.8,0.1-1.1,0.2c-1.5,0.5-2.8,1.5-3.6,2.8c-0.4,0.7-0.7,1.4-0.8,2.2c-0.1,0.4-0.1,0.8-0.1,1.2v1.4l-0.1,11.1 L103,44.4z M101.5,45.9L101,22.7L100.9,11V9.5c0-0.5,0-1.1,0.1-1.6c0.2-1.1,0.5-2.2,1.1-3.1c1.1-1.9,3-3.4,5.1-4.1 c0.5-0.2,1.1-0.3,1.6-0.4c0.6-0.1,1.1-0.1,1.6-0.1h2.9h5.7h11.4h22.8c0.8,0,1.5,0.7,1.5,1.5l0,0l-0.1,43.6c0,0.8-0.6,1.5-1.4,1.5 l0,0c-8.7,0-17.4-0.1-26-0.3L101.5,45.9z"/>
	<path fill="#E1E2E2" d="M141.6,65.9V30c0-4.3,3.5-7.7,7.7-7.7h43.3v43.6C192.6,65.9,141.6,65.9,141.6,65.9z"/>
	<path fill="#46799A" d="M139.3,141.8v-35.9c0-4.3,3.4-7.7,7.7-7.7h43.3v43.6H139.3z"/>
	<path fill="#FFFFFF" d="M10.9,125.2c1.8-0.6,160.9,0,160.9,0s10.2-33.5-16.9-40.6c-8.1-2.1-12.8-1.3-15.2-0.3 c-1,0.4-2.1-0.2-2.2-1.2c-0.6-6.7-4.4-25.2-28.9-25.2c-27,0-38.8,25.4-38.8,25.4s-6-8.8-16.6-9.6C21.7,71.2,14,106.1,14,106.1"/>
	<path fill="#CCCED0" d="M10.7,124.6c0.4-0.1,0.5-0.1,0.8-0.1h0.6h1.3l2.5-0.1l5-0.1l10.1-0.2l20.1-0.2 c13.4-0.1,26.8-0.2,40.2-0.2h80.5l-1.3,1c1.6-6.2,2.3-12.8,1.4-19.1c-0.9-6.3-3.9-12.3-9-15.8c-2.5-1.8-5.5-3-8.5-3.8 c-3.1-0.8-6.3-1.3-9.4-1.2c-1.5,0.1-3.1,0.3-4.4,0.8l-0.3,0.1c-0.2,0.1-0.4,0.1-0.6,0.2c-0.4,0.1-0.8,0.1-1.2,0 c-0.8-0.1-1.5-0.6-2-1.3c-0.2-0.4-0.4-0.8-0.4-1.2l-0.1-0.6l-0.1-1.2c-0.4-3.1-1.3-6.2-2.8-9c-1.4-2.8-3.3-5.3-5.7-7.3 c-2.4-2-5.2-3.5-8.3-4.4c-3-1-6.2-1.4-9.5-1.4c-3.2-0.1-6.4,0.2-9.6,0.9C87.4,62.9,76.7,72.5,71,84c-0.3,0.7-1.2,1-1.8,0.6 c-0.2-0.1-0.4-0.2-0.5-0.4l0,0c-3.5-4.6-8.8-8.4-14.7-9.1c-6-0.7-12.3-0.1-17.8,2.5c-5.6,2.5-10.2,6.8-13.8,11.9 c-3.6,5-6.3,10.8-8,16.7l0,0c-0.1,0.2-0.3,0.3-0.5,0.3c-0.2-0.1-0.3-0.3-0.3-0.5c1.5-6.2,4-12.1,7.6-17.4s8.3-9.9,14.2-12.7 c5.8-2.9,12.5-3.8,18.9-3.1c1.7,0.1,3.3,0.6,4.8,1.1c1.5,0.6,3.1,1.3,4.5,2.1c2.8,1.8,5.3,3.9,7.3,6.6l-2.3,0.2 c1.6-3.2,3.5-5.9,5.7-8.5c2.1-2.6,4.5-5.1,7.1-7.3c5.2-4.4,11.4-7.8,18.1-9.2c3.3-0.8,6.8-1.1,10.2-1c3.4,0.1,6.9,0.5,10.2,1.5 c3.3,1,6.5,2.6,9.3,4.8c2.7,2.2,4.9,5.1,6.5,8.2s2.6,6.5,3.1,9.9l0.2,1.3l0,0.5v-0.1l0,0c0,0,0,0,0.1,0l0,0l0.3-0.1 c1.8-0.7,3.6-0.9,5.4-1c3.6-0.1,7,0.5,10.3,1.3c3.3,0.9,6.7,2.2,9.5,4.3c2.9,2.1,5.3,4.8,7,7.9s2.7,6.5,3.2,9.9s0.5,6.9,0.2,10.3 s-0.8,6.7-1.8,10.1c-0.2,0.6-0.7,1-1.3,1l0,0l-80.5-0.4l-40.2-0.3L31,125.8l-10.1-0.1h-5h-2.5h-1.3H11h-0.2c-0.3,0-0.6-0.2-0.6-0.6 C10.2,124.9,10.4,124.7,10.7,124.6"/>
	<path fill="#FFFFFF" d="M183.9,41.7h-33.7V40c0-2.9,2.4-5.3,5.3-5.3H184v7H183.9z"/>
	<path fill="#FFFFFF" d="M183.3,54.9h-21.5v-1.6c0-2.9,2.4-5.3,5.3-5.3h16.2V54.9z"/>
	<path fill="#CCCED0" d="M9.6,55.3c1.6-4.9,7.8-11.5,17.4-10.5s14.4-4.9,16.3-8.3c0.3-0.5,1.1-0.3,1.1,0.3v18.5H9.6z"/>
	<path fill="#E1E2E2" d="M57.5,27.8h-13v-7.5c0-2.5,2-4.5,4.5-4.5h8.5V27.8z"/>
	<path fill="#E1E2E2" d="M123.3,34.9h-11v-5.4c0-2.7,2.2-4.9,4.9-4.9h6.2L123.3,34.9L123.3,34.9z"/>
	<path fill="#204A69" d="M120.8,15.8c1.2-1.2,2.3-1.1,3.5-1.2c1.2-0.1,2.3-0.2,3.5-0.2s2.3,0.1,3.5,0.2 c1.2,0.1,2.3,0,3.5,1.2v0.8c-1.2,1.2-2.3,1.1-3.5,1.2S129,18,127.8,18s-2.3-0.1-3.5-0.2s-2.3,0-3.5-1.2V15.8z"/>
	<path fill="#CCCED0" d="M42.7,155.4v-35.9c0-4.3,3.4-7.7,7.7-7.7h43.3v43.6H42.7z"/>
	<polygon fill="#204A69" points="63.6,126.6 76.5,134.7 63.6,143.4 "/>
</svg>
