<?xml version="1.0" encoding="utf-8"?>
<!-- Generator: Adobe Illustrator 21.0.0, SVG Export Plug-In . SVG Version: 6.00 Build 0)  -->
<svg version="1.1" id="youre_almost_there" xmlns="http://www.w3.org/2000/svg" xmlns:xlink="http://www.w3.org/1999/xlink" x="0px"
	 y="0px" viewBox="0 0 1681.9 663.4" style="enable-background:new 0 0 1681.9 663.4;" xml:space="preserve">
<style type="text/css">
	.st0{fill:none;}
	.st1{fill:#FFFFFF;}
	.st2{fill:#4E748F;}
	.st3{fill:#004F82;}
	.st4{fill:#0084C0;}
	.st5{fill:#004F84;}
	.st6{fill:#00A9DE;}
	.st7{fill:#004F81;}
	.st8{fill:#D5E5EB;}
	.st9{fill:#86A6BD;}
	.st10{fill:#74DCFC;}
</style>
<title>jetpack-youAreAlmostThere</title>
<path class="st0" d="M414.7,219.1c-9.7,9.3-21.8,16.5-35.9,21.1c-4.2,1.6-8.5,2.7-12.8,3.5l-9.1,2.9l7.3,29.2
	c0.8,2.4-0.6,4.2-2.8,5.2c9.3,4.2,18.5,9.6,25.6,16.8c2.5,2.2,2.8,6.1,0.5,8.6c-0.2,0.2-0.3,0.4-0.5,0.5c-0.9,0.9-2.1,1.5-3.4,1.7
	l28.9,30.3l32.9,34.4L429,276.6C424.6,265.5,412.3,235.7,414.7,219.1z"/>
<path class="st0" d="M350.9,652.6c1.1,0,2.2,0,3.3,0l0-0.1L350.9,652.6z"/>
<path class="st0" d="M278.3,254.8l-3.7,0c-5.5,0-5.5,1.8-5.5,3.6c-0.9,8.2,0,13.7,3.6,16.4c5.5,4.6,17.4,4.6,31.1,0
	c3.6-0.9,4.6-2.7,4.6-2.7C308.5,268.5,292.9,256.6,278.3,254.8z"/>
<path class="st0" d="M862.8,311.1C862.8,311.1,862.8,311.1,862.8,311.1C862.8,311.1,862.8,311.1,862.8,311.1
	C862.8,311.1,862.8,311.1,862.8,311.1z"/>
<polygon class="st0" points="447,389.3 444,395.1 449.4,391.6 "/>
<path class="st1" d="M314.8,45.6c-50.3,17.1-78.6,71.3-62.9,121.8L400.8,66C385.1,42.3,351.1,33.8,314.8,45.6z"/>
<path class="st1" d="M353.2,235.6c3,0,5.9-0.3,8.8-0.7l8-1.8c2.3-0.6,4.6-1.3,6.9-2.1c26.7-8.9,45-27.1,53-51.6
	c-2.9,1.5-7.9,2.2-12.8,2.2h-3.6c-2.5-0.1-4.5-2.3-4.3-4.8c0.1-2.4,2-4.2,4.3-4.3c5.5,0,10,0,14.6-1.8c1.8-0.6,3.1-0.4,4.1,0.5
	c1.9-8.4,2.7-17.4,2.2-27c0-7.3,4.6-12.8,9.1-17.4c4.6-5.5,7.3-9.1,6.4-11.9c-1.8-4.6-7.3-8.2-13.7-11.9
	C425.7,97.9,413.6,90,405.3,74l-61.4,41.9c11.4,34.1,8.7,85.3-19.1,105.3l24.7,16.5c0.1,0,0.1,0,0.2,0
	C350.5,236.4,351.7,235.6,353.2,235.6z M398,111.4c2.7-0.9,6.4,1.8,6.4,4.6l1.8,10c0.9,3.6-1.8,6.4-4.6,7.3s-6.4-1.8-6.4-4.6
	l-1.8-10C392.5,115,394.3,111.4,398,111.4z"/>
<g>
	<path class="st2" d="M858.5,328.8v-5.5c0-3.5-0.6-7.7,1.1-11.2c-3.2,1.1-6.4,1.9-9.6,2.6c-16.4,3-33.3,0.7-48.2-6.7
		c-3.6-1.7-7.1-3.5-10.6-5.6c-4.8-2.9-9.5-6.2-13.9-9.7c-1-0.8-2.1-1.7-3.1-2.5c1,0.9,2,1.9,3.1,2.9c0,2.4,0.1,4.7,0.1,7.1
		c0,4.9-0.6,10.4-0.2,15.4c0.3-1.7,0.6-2.8,0.8-2.5c0-0.1,1.8,9.7,2.4,15.2c0,4.9,0.6,9.8,0.6,15.3v-1.2c1.2,2.4,2.4,5.5,3.7,8.6
		c1.3,2.7,2.9,5.1,4.9,7.3c1.9,2.3,4.2,4.4,6.7,6.1c2.4,2,5.1,3.6,7.9,4.9c0.2,0.2,0.3,0.4,0.4,0.7c22.7,7.4,51.6-1.1,60.1-25.2
		c-2.6-2.5-4.5-5.6-5.5-9C858.7,333.3,858.5,331.1,858.5,328.8z"/>
	<path class="st2" d="M862.8,311.1c0.3-0.1,0.8-0.4,1.4-0.8c-0.5,0.2-1,0.4-1.6,0.6C862.8,311,862.8,311,862.8,311.1
		C862.8,311.1,862.8,311.1,862.8,311.1z"/>
	<path class="st2" d="M889.1,193.2c-3.7-15.3-9.2-29.9-13.4-45.2c-0.6-1.2,0-2.4,1.2-2.4c0.3,0.1,0.5,0.2,0.7,0.3
		c-1.7-5.4-4.7-13.3-6.5-18.3c-1.4,0.7-2.7,1.4-4,2.1l-53.7,26.9l-53,26.2c-0.8,17.1,7.8,37.7,15.2,52c5.3,10.1,3.3,22.5-4.9,30.5
		l-5.9,7.2c1,1,1.9,2.1,2.9,3.1c3.2,3.2,6.6,6.3,10,9.3c8.3,7.1,17.3,13.3,27.2,17.6c14,6.1,29.3,8.6,44,5.5
		c2.7-0.7,5.3-1.4,7.9-2.3c4.6-1.6,9-3.5,12.8-6.3c6.1-4.2,11.3-9.6,15.3-15.9c7.9-12.8,10.4-28.7,10.4-44S892.8,208.5,889.1,193.2z
		 M849.4,173.7L849.4,173.7c1.8-2.4,4.3-3.7,6.1-4.9c2.1-1.1,4.4-1.7,6.7-1.8c4.9-0.6,9.8-0.6,14.7,2.4c1.2,0.6,1.2,1.8,0.6,3.1
		c-0.6,0.6-1.2,1.2-2.4,0.6c-1.8-0.5-3.6-0.7-5.5-0.6c-2.1-0.1-4.1,0.1-6.1,0.6c-1.8,0.6-4.3,0.6-6.1,1.2c-1.7,0.5-3.3,1.1-4.9,1.8
		l-0.6,0.6c-1.2,0.6-2.4,0-2.4-0.6V173.7C849.4,173.7,849.4,173.7,849.4,173.7L849.4,173.7z M844.5,206.7c0.6,0.6,1.2,0.6,1.8,1.2
		c3,4.9,5.5,10.4,7.9,15.3c1.8,5.5,4.3,11,5.5,16.5c0,1.2-0.6,2.4-1.8,2.4s-1.8,0-2.4-1.2c-3-4.9-4.9-10.4-7.3-15.9
		c-1.9-5.4-3.5-10.9-4.9-16.5C843.3,207.9,843.9,206.7,844.5,206.7z M807.9,215.2c3.2-1.2,6.8,0.5,7.9,3.7l3.7,9.2
		c1.1,3.2-0.5,6.7-3.7,7.9h0c-0.2,0.1-0.4,0.2-0.6,0.2c-3.1,1-6.4-0.8-7.3-3.9l-3.7-9.2C803,219.9,804.7,216.4,807.9,215.2z
		 M778.5,207.9c1.2-5.5,5.5-8.6,9.2-11.6c2.1-1.4,4.3-2.4,6.7-3.1c2.6-0.8,5.3-1,7.9-0.6c1.2,0,1.8,1.2,1.2,2.4
		c-0.7,0.8-1.5,1.4-2.4,1.8c-1.2,0-3,1.2-4.9,1.8c-2,0.8-3.8,1.8-5.5,3.1c-1.8,1.2-3,2.4-4.9,3.7c-1.2,1.2-3,2.4-3.7,4.3
		c-0.6,1.2-1.8,1.2-3,0.6C778.5,209.7,777.9,209.1,778.5,207.9z M869.5,263.5c-1.1,4.1-3.8,7.5-7.3,9.8c-3.6,2.4-7.9,3.7-12.2,3.7
		c-3.1,0-6.7-0.6-9.2-2.4c-1.2-1.2-1.8-3-0.6-4.3s3-1.8,4.3-0.6c1.6,1.1,3.5,1.8,5.5,1.8c3.1-0.2,6-1.2,8.5-3.1
		c2.5-1.8,4.3-3.7,4.9-6.1v0c0.6-1.8,3-3,4.3-2.4S870.1,261.6,869.5,263.5z M875.6,212.8c-3.2,1.1-6.7-0.5-7.9-3.7L864,200
		c-1.2-3.2,0.5-6.8,3.7-7.9s6.8,0.5,7.9,3.7l3.7,9.2C880.4,208,878.8,211.5,875.6,212.8z"/>
	<path class="st2" d="M862.7,311c0,0,0.1,0.1,0.1,0.1c0,0,0,0,0,0C862.8,311.1,862.7,311,862.7,311C862.7,311,862.7,311,862.7,311z"
		/>
	<path class="st2" d="M256.5,175.4l-4.4,3c9,18.5,32.8,59.4,62.8,48c3.6-1.4,6.9-3.2,9.9-5.3c27.8-20,30.5-71.2,19.1-105.3
		L256.5,175.4z"/>
	<path class="st2" d="M248.2,169.8c0,0,0,0.1,0,0.1l0.1,0l2.7-1.8L248.2,169.8C248.2,169.8,248.2,169.8,248.2,169.8z"/>
</g>
<path class="st1" d="M507.6,321.4c-6.4-14.6-11-25.6-12.8-31.1c-13.7-54.8-36.5-69.4-49.3-74c-11-3.6-19.2-0.9-21.9,0.9
	c-5.5,4.6,2.7,32.9,12.8,56.6v0.9l20.9,111.8l28.4,27.1c1.8,1.7,1.8,4.5,0.2,6.2c-0.1,0.1-0.1,0.1-0.2,0.2c-1.8,0-2.8,0.9-3.6,0.9
	c-1,0.1-2-0.2-2.7-0.9l-29.9-28.5l-5.3,3.5l-91.9,60.2c14.9,12.9,29.5,23.9,43.7,33.2c65.9,43.2,121.6,48.8,145.5,29.4
	C578.8,486.7,530.4,374.4,507.6,321.4z"/>
<g>
	<path class="st3" d="M400.8,66l4.3-2.9l3-2c-17.6-28-56.1-38.2-96.9-24.5c-55.7,19.2-85.9,79.5-67.6,136.1l1.5-0.4l3.2-2.2
		c0-0.1,0-0.1,0-0.1c0,0,0,0,0,0l2.8-1.7l1-0.7c-15.7-50.5,12.5-104.7,62.9-121.8C351.1,33.8,385.1,42.3,400.8,66z"/>
	<path class="st3" d="M516.8,317.7c-6.4-14.6-11-25.6-11.9-30.1c-14.6-58.5-41.1-75.8-55.7-80.4c-8.9-3.2-17.4-2.8-23.6-0.7
		c12-16.9,18.1-38.3,17.1-62.2c0-3.7,3.7-7.4,7.3-11c4.6-5.5,11-11.9,8.2-21c-2.7-8.2-10.1-12.8-18.3-17.4
		c-9.7-5.3-20.2-11.5-27.5-25.8l-3,2.1l-4.1,2.8c8.3,16.1,20.5,23.9,31.1,29.2c6.4,3.7,11.9,7.3,13.7,11.9c0.9,2.7-1.8,6.4-6.4,11.9
		c-4.6,4.6-9.1,10-9.1,17.4c0.4,9.6-0.4,18.6-2.2,27c-1-0.9-2.4-1.1-4.1-0.5c-4.6,1.8-9.1,1.8-14.6,1.8c-2.4,0.1-4.2,2-4.3,4.3
		c-0.1,2.5,1.8,4.7,4.3,4.8h3.6c5,0,9.9-0.7,12.8-2.2c-8,24.4-26.3,42.6-53,51.6c-2.4,0.8-4.7,1.5-6.9,2.1l-8,1.8
		c-2.9,0.5-5.8,0.7-8.8,0.7c-1.5,0.1-2.8,0.9-3.6,2c-0.1,0-0.1,0-0.2,0c-2.9,0.7-3.8,2-3.6,5.3l9.1,35.4c2.1,0.8,4.3,1.7,6.4,2.7
		c2.3-1,3.6-2.7,2.8-5.2l-7.3-29.2l9.1-2.9c4.4-0.8,8.7-1.9,12.8-3.5c14.1-4.6,26.2-11.8,35.9-21.1c-2.4,16.7,9.9,46.4,14.3,57.6
		l16.5,96.6l0.5,2.7l-37-35.3c-0.1-0.1-0.1-0.1-0.2-0.2c-1.8-1.7-4.7-1.6-6.4,0.2c-1.7,1.8-1.6,4.7,0.2,6.4l44.4,42.3l2.4,2.3
		l29.9,28.5c0.7,0.7,1.7,1,2.7,0.9c0.9,0,1.8-0.9,3.6-0.9c0.1-0.1,0.1-0.1,0.2-0.2c1.7-1.8,1.6-4.6-0.2-6.2l-28.4-27.1l-20.9-111.8
		v-0.9c-10.1-23.7-18.3-52.1-12.8-56.6c2.7-1.8,10.9-4.6,21.9-0.9c12.8,4.6,35.6,19.2,49.3,74c1.8,5.5,6.4,16.4,12.8,31.1
		c22.8,53,71.2,165.3,33.8,196.4c-23.9,19.4-79.6,13.8-145.5-29.4c-14.2-9.3-28.8-20.3-43.7-33.2c-0.5-0.5-1.1-0.9-1.6-1.4
		c-2-1.4-4.7-1-6.2,0.9c-1.6,2-1.2,4.8,0.7,6.4c6.7,5.8,13.5,11.2,20.2,16.4c25.8,19.7,51.5,34.9,75.7,45.2c3.4,1.4,6.8,2.8,10.1,4
		c19.8,7.4,38.4,11.2,54.7,11.2c17.4,0,32-3.7,42.1-12.8C590.8,489.4,542.3,378,516.8,317.7z"/>
	<path class="st3" d="M398,111.4c-3.7,0-5.5,3.6-4.6,7.3l1.8,10c0,2.7,3.6,5.5,6.4,4.6s5.5-3.7,4.6-7.3l-1.8-10
		C404.4,113.2,400.7,110.5,398,111.4z"/>
</g>
<path class="st4" d="M712,610.9l3.7-42.1l3.7-42.1l1.8-21.4c0.6-6.7,1.2-14,3-20.8c0.6-1.2,1.2-1.8,2.4-1.2c0.6,0,1.2,0.6,1.8,1.2
	l0,0c0.6,7.3-0.6,14-0.6,21.4l-1.8,21.4l-3.7,42.1l-4.3,42.1c-1.1,13.8-3.1,27.4-5.9,40.9l150.6,0.1v-0.1c0-0.2,0-0.3,0-0.5
	c0.1-10.7,8.9-19.2,19.5-19h121.3l-1-89.2c0-38.5-7.9-74.1-21.9-104.4c0,0,0,0-0.1,0c-0.6,0-1.2,0-1.2-0.6
	c-8.5-12.7-17.9-24.7-28.1-36c-10.4-11.1-21.8-21.1-34.2-29.9c-6.1-4.4-12.4-8.5-18.9-12.2c-6.7-3.7-13.4-7.3-20.1-9.8
	c-1.7-0.5-3.3-1.1-4.9-1.8c-2.2-0.4-4.2-1.3-6.1-2.4c0,3.9-5.4,12.2-5.5,16.1c-0.1,3.1-1.2,4.4-2.2,7.2c-1.3,3.5-2.7,6.8-5.6,8.8
	s-6.2,3.1-9.1,5.3c-4.8,3.7-11.9,2.4-17.5,2.2c-9.2-0.4-18.3-2.4-26.8-6c-3.9-1.6-8.9-3.5-11.8-7.1c-2.2-2.7-3-6.8-4.2-10.2
	c-0.4-1.2-0.9-2.4-1.3-3.6c-1.5-1.9-2.8-3.9-4-6c-1.8-3.1-3.2-6.4-4.3-9.8v-0.1C687,362.7,625.8,445.7,616.7,541.3
	c-6.9,70.9-7.5,99.8-6.5,111.1l99.9,0.1C709.6,638.6,710.8,624.8,712,610.9z"/>
<path class="st4" d="M955.6,399c1.4,1.6,2.8,3.2,4.2,4.8c-17-22.8-38.2-40.5-62.6-51.2c8.2,4.5,15.9,9.8,23.6,15.3
	C933.3,377.3,944.9,387.7,955.6,399z"/>
<path class="st4" d="M864.7,344.6c-8.5,24.1-37.4,32.7-60.1,25.2c0.2,0.4,0.2,0.8,0.2,1.2c0,0.6-0.6,0.6-1.2,0.6
	c-3.7-0.6-6.7-1.2-9.8-3.1s-6.1-3.7-8.5-6.7c-0.8-0.8-1.5-1.7-2.1-2.6c0.4,1.2,0.8,2.4,1.3,3.6c1.2,3.4,2,7.5,4.2,10.2
	c2.9,3.6,7.9,5.4,11.8,7.1c8.5,3.6,17.6,5.6,26.8,6c5.6,0.2,12.7,1.5,17.5-2.2c2.8-2.2,6.2-3.2,9.1-5.3s4.3-5.3,5.6-8.8
	c1-2.8,2.1-4.2,2.2-7.2c0.1-3.9,5.5-12.2,5.5-16.1c0,0,0,0,0,0C866.2,345.9,865.4,345.3,864.7,344.6z"/>
<path class="st5" d="M815.8,218.9c-1.2-3.2-4.7-4.8-7.9-3.7s-4.8,4.7-3.7,7.9l3.7,9.2c1,3.1,4.2,4.8,7.3,3.9
	c0.2-0.1,0.4-0.1,0.6-0.2h0c3.1-1.3,4.7-4.7,3.7-7.9L815.8,218.9z"/>
<path class="st5" d="M867.7,192c-3.2,1.2-4.8,4.7-3.7,7.9l3.7,9.2c1.2,3.1,4.7,4.8,7.9,3.7c3.1-1.3,4.7-4.7,3.7-7.9l-3.7-9.2
	C874.5,192.5,870.9,190.8,867.7,192z"/>
<g>
	<path class="st6" d="M402.4,340.6c1.7-1.8,4.6-1.9,6.4-0.2c0.1,0.1,0.1,0.1,0.2,0.2l37,35.3l-0.5-2.7l-32.9-34.4l-28.9-30.3
		c-0.4,0.1-0.8,0.1-1.2,0.1c-1.7,0-3.3-0.7-4.6-1.8c-19.2-19.2-57.5-24.7-58.4-24.7c-0.9-0.2-1.7-0.5-2.4-1c-2,2.1-5,4.1-9.4,5.5
		c-7.2,3.2-15,4.7-22.8,4.6c-4.1,0-7.9-0.5-11.4-1.5c-22.8,14.3-40.2,37.2-47,65.4c-0.9,4.6-1.8,9.1-2.8,12.8
		c-14.3,131.2,6.2,264.8,9.6,285c38.1-0.2,75.7-0.3,117.8-0.4l3.3-0.1l8.2-176.4l2.8,1.4c-6.7-5.2-13.5-10.6-20.2-16.4
		c-2-1.6-2.3-4.4-0.7-6.4c1.5-1.9,4.2-2.3,6.2-0.9c0.5,0.5,1.1,0.9,1.6,1.4l91.9-60.2l3-5.7L402.6,347
		C400.7,345.3,400.7,342.4,402.4,340.6z"/>
	<path class="st6" d="M353.3,276.7c-2.2-0.5-4.4-1-6.6-1.4c2.6,0.8,5.2,1.8,8,2.8L353.3,276.7z"/>
	<path class="st6" d="M708.8,202.8c0.2-0.1,0.3-0.2,0.5-0.2c2.1-1.1,4.2-2.3,6.3-3.4c0.6-0.3,1.2-0.7,1.9-1
		c10.2-5.4,20.4-10.7,30.7-15.9c2.8-1.4,5.6-2.8,8.4-4.2l4.8-2.4l25.2-12.8l0.6-0.6c4.4-5,9-9.9,13.7-14.6c4.4-4.4,9-8.7,13.7-12.8
		c5.3-4.6,10.8-9.1,16.4-13.4c4.8-3.6,9.7-7.1,14.7-10.5c6.6-4.4,13.4-8.4,20.7-11.6c0.2-0.1,0.4-0.2,0.6-0.3
		C807.7,40.7,671.3,105.8,708.8,202.8z"/>
</g>
<g>
	<path class="st7" d="M959.8,403.8c-1.4-1.6-2.7-3.2-4.2-4.8c-10.7-11.3-22.3-21.8-34.8-31.1c-7.7-5.5-15.4-10.8-23.6-15.3
		c-5.5-3-11.2-5.7-17.3-7.9c-1.8-0.6-4.3-1.2-6.1-1.8c-1.5-0.5-2.9-1.1-4.3-1.8c-2.5-1.7-4.2-4.4-4.9-7.3c-0.5-3.6-0.7-7.3-0.6-11
		c0-3.7,0-7.9-1.2-11.6l0,0c0,0,0,0,0,0c0,0-0.1-0.1-0.1-0.1c0,0,0,0,0,0c0,0,0.1,0.1,0.1,0.1c0,0,0,0,0,0c0,0,0,0,0,0
		c0-0.1,0-0.1-0.1-0.1c0.5-0.2,1-0.4,1.6-0.6c3-1.3,6-2.8,8.9-4.7c6.9-4.9,12.7-11.1,17.1-18.3c8.6-14,11-31.1,11-47
		c-0.7-16.1-2.9-32-6.7-47.6c-3.7-15.3-7.9-31.2-15.3-45.2l0-0.1c-0.5-0.9-0.9-1.2-1.7-1.5c-0.2-0.1-0.5-0.2-0.7-0.3
		c-1.2,0-1.8,1.2-1.2,2.4c4.3,15.3,9.8,29.9,13.4,45.2s6.1,31.1,6.1,46.4s-2.4,31.2-10.4,44c-3.9,6.3-9.1,11.7-15.3,15.9
		c-3.9,2.7-8.3,4.7-12.8,6.3c-2.6,0.9-5.3,1.6-7.9,2.3c-14.7,3.1-30,0.6-44-5.5c-9.9-4.3-18.9-10.5-27.2-17.6c-3.5-3-6.8-6.1-10-9.3
		c-1-1-1.9-2.1-2.9-3.1l5.9-7.2c8.2-8,10.2-20.4,4.9-30.5c-7.4-14.3-16-34.9-15.2-52l-1.3,0.6c-2.5,1.2-5,2.5-7.5,3.7
		c-10.7,5.3-21.3,10.4-31.9,15.5c-0.8,0.4-1.6,0.8-2.4,1.1c-2.1,1-4.3,2-6.4,3c6.7,17.4,19.3,34.6,33.9,50.8
		c5.4,7.6,11.4,14.9,18,21.7c3,3.1,6.1,6.2,9.5,9.1c0.2,0.2,0.3,0.3,0.5,0.5c0.1,0.1,0.2,0.2,0.3,0.3c0.4,0.3,0.8,0.7,1.2,1
		c1,0.9,2.1,1.7,3.1,2.5c4.4,3.5,9.1,6.8,13.9,9.7c3.4,2.1,7,3.9,10.6,5.6c14.9,7.4,31.9,9.8,48.2,6.7c3.2-0.7,6.4-1.6,9.6-2.6
		c-1.6,3.6-1.1,7.7-1.1,11.2v5.5c-0.1,2.3,0.1,4.5,0.6,6.7c1,3.5,3,6.6,5.5,9c0.7,0.7,1.5,1.4,2.4,2c0,0,0,0,0,0
		c1.9,1.2,3.9,2,6.1,2.4c1.6,0.7,3.2,1.3,4.9,1.8c6.7,2.4,13.4,6.1,20.1,9.8c6.5,3.7,12.9,7.8,18.9,12.2
		c12.4,8.8,23.8,18.8,34.2,29.9c10.2,11.3,19.6,23.3,28.1,36c0,0.6,0.6,0.6,1.2,0.6c0,0,0,0,0.1,0c0.5-0.1,0.5-0.6,0.5-1.2
		C976,425.4,968.5,414.1,959.8,403.8z"/>
	<path class="st7" d="M728.5,484.5c-0.6-0.6-1.2-1.2-1.8-1.2c-1.2-0.6-1.8,0-2.4,1.2c-1.8,6.8-2.4,14-3,20.8l-1.8,21.4l-3.7,42.1
		l-3.7,42.1c-1.2,13.8-2.4,27.7-1.8,41.5l2.1,0c2.8-13.5,4.8-27.2,5.9-40.9l4.3-42.1l3.7-42.1l1.8-21.4
		C727.9,498.5,729.1,491.9,728.5,484.5L728.5,484.5z"/>
	<path class="st7" d="M855.5,240.9c0.6,1.2,1.2,1.2,2.4,1.2s1.8-1.2,1.8-2.4c-1.2-5.5-3.7-11-5.5-16.5c-2.4-4.9-4.9-10.4-7.9-15.3
		c-0.6-0.6-1.2-0.6-1.8-1.2c-0.6,0-1.2,1.2-1.2,1.8c1.3,5.6,3,11.1,4.9,16.5C850.6,230.5,852.4,236,855.5,240.9z"/>
	<path class="st7" d="M850,276.9c4.3,0,8.6-1.3,12.2-3.7c3.6-2.2,6.2-5.7,7.3-9.8c0.6-1.8-0.6-3.1-1.8-3.7s-3.7,0.6-4.3,2.4v0
		c-0.6,2.4-2.4,4.3-4.9,6.1c-2.5,1.8-5.5,2.9-8.5,3.1c-2,0-3.9-0.7-5.5-1.8c-1.2-1.2-3-0.6-4.3,0.6s-0.6,3.1,0.6,4.3
		C843.3,276.3,846.9,276.9,850,276.9z"/>
	<path class="st7" d="M851.8,176.7l0.6-0.6c1.6-0.7,3.2-1.3,4.9-1.8c1.8-0.6,4.3-0.6,6.1-1.2c2-0.5,4.1-0.7,6.1-0.6
		c1.9-0.1,3.7,0.1,5.5,0.6c1.2,0.6,1.8,0,2.4-0.6c0.6-1.2,0.6-2.4-0.6-3.1c-4.9-3.1-9.8-3.1-14.7-2.4c-2.3,0.1-4.6,0.7-6.7,1.8
		c-1.8,1.2-4.3,2.4-6.1,4.9v2.4C849.4,176.7,850.6,177.4,851.8,176.7z"/>
	<path class="st7" d="M782.2,209.7c0.6-1.8,2.4-3.1,3.7-4.3c1.8-1.2,3.1-2.4,4.9-3.7c1.7-1.2,3.5-2.3,5.5-3.1
		c1.8-0.6,3.7-1.8,4.9-1.8c0.9-0.5,1.7-1.1,2.4-1.8c0.6-1.2,0-2.4-1.2-2.4c-2.7-0.4-5.4-0.2-7.9,0.6c-2.4,0.6-4.7,1.7-6.7,3.1
		c-3.7,3.1-7.9,6.1-9.2,11.6c-0.6,1.2,0,1.8,0.6,2.4C780.4,210.9,781.6,210.9,782.2,209.7z"/>
	<polygon class="st7" points="849.4,173.7 849.4,173.7 849.4,173.7 	"/>
	<path class="st7" d="M804.2,369.1c-2.9-1.3-5.5-2.9-7.9-4.9c-2.5-1.7-4.8-3.8-6.7-6.1c-2-2.2-3.6-4.7-4.9-7.3
		c-1.2-3.1-2.4-6.1-3.7-8.6v1.2c0-5.5-0.6-10.4-0.6-15.3c-0.6-5.5-2.4-15.3-2.4-15.2c-0.2-0.2-0.5,0.8-0.8,2.5
		c-0.6,3.1-1.2,8.3-1.6,11.5c-0.5,5.1-0.7,10.2-0.6,15.3v1.1v0.1c1.1,3.4,2.5,6.7,4.3,9.8c1.1,2.1,2.5,4.1,4,6
		c0.7,0.9,1.4,1.7,2.1,2.6c2.4,3.1,5.5,4.9,8.5,6.7s6.1,2.4,9.8,3.1c0.6,0,1.2,0,1.2-0.6c0-0.4,0-0.8-0.2-1.2
		C804.5,369.6,804.4,369.3,804.2,369.1z"/>
</g>
<path class="st8" d="M1432,18.7c-2.3,4.8-4.3,9.7-6.1,14.7V34c-0.5,0.4-0.6,1.1-0.2,1.6c0.1,0.1,0.1,0.2,0.2,0.2
	c0.8,0.8,2,1.1,3,0.6c4.9-2.4,9.2-5.5,14-8.6c5.1,2.7,10,5.8,14.7,9.2h1.8c1.2-0.4,1.7-1.7,1.3-2.9c0-0.1,0-0.1-0.1-0.2
	c-2.3-4.8-4.3-9.7-6.1-14.7c2.4-4.9,4.3-9.8,6.7-14c0.1-1.1-0.1-2.1-0.6-3.1c-0.6-1.8-2.4-2.4-4.3-1.8L1443,7.2l-13.4-6.7
	c-0.9-0.6-2.1-0.6-3,0c-1.2,0.6-1.8,2.4-1.2,4.3L1432,18.7z"/>
<path class="st8" d="M1338.2,95c1.2,0.3,2.5,0.7,3.7,1.2l12.8,3.7c1.9,0.6,3.8,1.4,5.5,2.4c1.7,1.3,3.2,3,4.3,4.9l3.7,14l1.2,3.1
	c0.6,0.6,0.6,2.4,1.8,3.7c0.6,0.6,1.2,1.2,1.8,1.2c0.7,0.6,1.7,0.6,2.4,0c1.2-1.2,1.2-1.8,1.8-2.4c0.3-1.2,0.7-2.5,1.2-3.7l4.9-12.8
	c0.3-1.8,1.1-3.5,2.4-4.9c1.3-1.2,2.7-2.2,4.3-3.1l12.8-4.3l3-1.2c1.6,0.1,3.2-0.6,4.3-1.8c0.6,0,0.6-0.6,1.2-1.8
	c0.6-0.9,0.6-2.1,0-3c-0.6-1.8-1.8-1.8-2.4-2.4c-1.2-0.3-2.5-0.7-3.7-1.2l-12.8-4.9c-1.8-0.3-3.5-1.2-4.9-2.4
	c-1.2-1.3-2.2-2.7-3-4.3l-4.3-12.8l-1.2-3.1c-0.6-1.2-0.6-2.4-2.4-4.3c-0.6-0.6-1.2-0.6-2.4-1.2c-0.6,0-2.4,0-3,0.6
	c-1.8,0.6-1.8,1.8-2.4,2.4c-0.3,1.2-0.7,2.5-1.2,3.7l-4.3,12.8c-0.3,1.8-1.1,3.5-2.4,4.9c-1.3,1.2-2.7,2.2-4.3,3.1l-12.8,4.9l-3,1.2
	c-0.6,0-1.8,0.6-3.7,1.8c-0.6,0.6-1.2,1.2-1.2,1.8c-0.6,0.7-0.6,1.7,0,2.4C1336.3,94.3,1337.6,94.3,1338.2,95z"/>
<path class="st8" d="M1471.9,131.7c0.8,0.2,1.6,0.5,2.3,0.8l8.1,2.3c1.2,0.4,2.4,0.9,3.5,1.6c1.1,0.8,2,1.9,2.7,3.1l2.3,8.9l0.8,1.9
	c0.4,0.4,0.4,1.6,1.2,2.3c0.4,0.4,0.8,0.8,1.2,0.8c0.4,0.4,1.1,0.4,1.5,0c0.8-0.8,0.8-1.2,1.2-1.6c0.2-0.8,0.5-1.6,0.8-2.3l3.1-8.1
	c0.2-1.2,0.7-2.2,1.5-3.1c0.8-0.8,1.7-1.4,2.7-1.9l8.1-2.7l1.9-0.8c1,0.1,2.1-0.4,2.7-1.2c0.4,0,0.4-0.4,0.8-1.2
	c0.4-0.6,0.4-1.3,0-1.9c-0.4-1.2-1.2-1.2-1.5-1.6c-0.8-0.2-1.6-0.5-2.3-0.8l-8.1-3.1c-1.2-0.2-2.2-0.7-3.1-1.6
	c-0.8-0.8-1.4-1.7-1.9-2.7l-2.7-8.1l-0.8-1.9c-0.3-1-0.8-1.9-1.5-2.7c-0.4-0.4-0.8-0.4-1.5-0.8c-0.4,0-1.5,0-1.9,0.4
	c-1.2,0.4-1.2,1.2-1.5,1.6c-0.2,0.8-0.5,1.6-0.8,2.3l-2.7,8.1c-0.2,1.2-0.7,2.2-1.5,3.1c-0.8,0.8-1.7,1.4-2.7,1.9l-8.1,3.1l-1.9,0.8
	c-0.9,0.2-1.6,0.6-2.3,1.2c-0.4,0.4-0.8,0.8-0.8,1.2c-0.4,0.4-0.4,1.1,0,1.6C1470.8,131.4,1471.5,131.4,1471.9,131.7z"/>
<path class="st9" d="M350.9,652.6l-117.4,3.1c0,0-0.2-0.9-0.4-2.6c-67,0.4-135.3,1.2-231.3,2.9c-0.1,0-0.3,0-0.5,0
	c-0.9,0.1-1.5,0.9-1.4,1.8c0.1,1,0.9,1.8,1.8,1.8c151.8,2.8,234.3,3.1,352,3.3l0.5-10.4C353.1,652.6,352,652.6,350.9,652.6z"/>
<path class="st9" d="M350.9,652.6c-42.1,0.1-79.7,0.2-117.8,0.4c0.3,1.7,0.4,2.6,0.4,2.6L350.9,652.6z"/>
<path class="st9" d="M354.3,652.6l-0.5,10.4c28.4,0.1,58.7,0.1,92.6,0.2l0.4-10.8C412.9,652.5,382.6,652.5,354.3,652.6z"/>
<path class="st9" d="M1638.4,657.2c-100.4-3-200.8-3.7-301.2-4.3l-0.4,3.2h-332.8H862.8v-3.5l-150.6-0.1c-0.1,0.4-0.2,0.8-0.2,1.2
	c0,0.6-0.6,0.6-1.2,0.6s-0.6-0.6-0.6-1.2c0-0.2,0-0.4,0-0.6l-99.9-0.1l-126-0.1c-13,0-25.4,0.1-37.4,0.1l-0.4,10.8
	c12.1,0,24.7,0.1,37.8,0.1l851.9-0.6c100.8-1.2,201.5-1.8,302.3-4.3v0c0,0,0,0,0,0c0.3-0.3,0.9-0.3,1.2,0
	C1639.5,657.7,1639,657.2,1638.4,657.2z"/>
<path class="st9" d="M710.2,653c0,0.6,0,1.2,0.6,1.2s1.2,0,1.2-0.6c0.1-0.4,0.2-0.8,0.2-1.2l-2.1,0
	C710.2,652.6,710.2,652.8,710.2,653z"/>
<path class="st9" d="M1003.8,652.7l0,3.4h332.8l0.4-3.2c-0.3,0-0.7,0-1,0L1003.8,652.7z"/>
<polygon class="st9" points="862.8,652.6 862.8,656.1 1003.9,656.1 1003.8,652.7 "/>
<g>
	<path class="st10" d="M353.8,663.4h92.7l0-0.3c-33.9-0.1-64.3-0.1-92.6-0.2L353.8,663.4z"/>
	<path class="st10" d="M365.2,477.5l-2.8-1.4l-8.2,176.4l0,0.1c28.3-0.1,58.7-0.1,92.5-0.2l4.2-125.7c-3.3-1.2-6.7-2.6-10.1-4
		C416.8,512.4,391,497.2,365.2,477.5z"/>
	<path class="st10" d="M382.5,308.6c0.4,0,0.8-0.1,1.2-0.1c1.2-0.3,2.4-0.8,3.4-1.7c0.2-0.2,0.4-0.3,0.5-0.5c2.2-2.5,2-6.4-0.5-8.6
		c-7.1-7.1-16.4-12.6-25.6-16.8c-2.1-1-4.3-1.8-6.4-2.7c-0.1,0-0.2-0.1-0.4-0.1c-2.7-1-5.4-2-8-2.8c-13.5-4.4-24.5-6-25.4-6
		c-0.3-0.1-0.6-0.1-0.9-0.1c-2.9-14.5-28.3-28.1-45.6-28.1c-10.1,0-17.3,5.5-19.2,14.6c-2.8,16.4,2.8,24.7,8.2,29.2
		c2.8,2.3,6,3.9,9.6,4.9c3.5,1,7.4,1.5,11.4,1.5c7.9,0.2,15.6-1.4,22.8-4.6c4.4-1.5,7.4-3.4,9.4-5.5c0.7,0.4,1.6,0.7,2.4,1
		c0.9,0,39.3,5.5,58.4,24.7C379.1,307.9,380.8,308.6,382.5,308.6z M272.9,274.9c-3.6-2.7-4.6-8.2-3.6-16.4c0-1.8,0-3.6,5.5-3.6
		l3.7,0c14.6,1.8,30.1,13.7,30.1,17.4c0,0-0.9,1.8-4.6,2.7C290.2,279.4,278.3,279.4,272.9,274.9z"/>
	<path class="st10" d="M445.5,35.5L408.1,61l-3,2l-4.3,2.9L252,167.4l-1,0.7l-2.7,1.8l-0.1,0l-3.2,2.2l-6,4.1
		c-1.8,1.8-2.7,4.6-0.9,6.4c0.9,1.1,2.2,1.8,3.6,1.8c1,0.1,2-0.2,2.7-0.9l7.5-5.1l4.4-3l87.4-59.6L405.3,74l4.1-2.8l3-2.1L451,42.8
		c1.8-1.8,2.7-4.6,0.9-6.4S447.3,33.7,445.5,35.5z"/>
	<path class="st10" d="M871.2,127.6c15.8-8.4,32.1-16.3,47.2-25.3h0.6c0.6,0,2.4-0.6,2.4-1.2v-1.2l0,0c-0.6-0.6-0.6-1.2-1.2-1.2
		c-3-1.2-6.1-3.1-9.2-4.3s-6.1-2.4-9.8-2.4l-4.9-0.6c-1.2,0-3,0.6-4.9,0.6c-1.2,0-3,0.6-4.9,0.6l-4.9,1.2c-5.1,1.4-10,3.2-14.7,5.2
		c-0.2,0.1-0.4,0.2-0.6,0.3c-7.3,3.3-14.1,7.2-20.7,11.6c-5,3.3-9.9,6.8-14.7,10.5c-5.6,4.3-11.1,8.7-16.4,13.4
		c-4.7,4.1-9.3,8.4-13.7,12.8c-4.7,4.7-9.3,9.6-13.7,14.6l-0.6,0.6l-25.2,12.8l-4.8,2.4c-2.8,1.4-5.6,2.8-8.4,4.2
		c-10.4,5.2-20.6,10.5-30.7,15.9c-0.6,0.3-1.2,0.7-1.9,1c-2.1,1.1-4.2,2.3-6.3,3.4c-0.2,0.1-0.3,0.2-0.5,0.2c-2,1.1-4,2.2-6,3.3
		c-0.6,0.6-1.2,1.2-0.6,2.4c0,1.2,1.2,1.8,2.4,1.2c2.1-1,4.1-1.9,6.1-2.9c2.1-1,4.3-2,6.4-3c0.8-0.4,1.6-0.8,2.4-1.1
		c10.7-5.1,21.2-10.2,31.9-15.5c2.5-1.2,5-2.5,7.5-3.7l1.3-0.6l53-26.2l53.7-26.9C868.5,129,869.8,128.3,871.2,127.6z"/>
	<path class="st10" d="M1334.2,413.1h-259.5c-15.9-0.1-29.3,11.7-31.1,27.5l-26.9,192.4h-13.1H882.4c-10.7-0.1-19.4,8.4-19.5,19
		c0,0.2,0,0.3,0,0.5v0.1l141,0.1l332.3,0.2c0.3,0,0.7,0,1,0l28.3-203.8C1367.8,430.2,1353.2,413.1,1334.2,413.1z"/>
	<path class="st10" d="M1621.4,187.8h-447.8c-33.4,0-60.5,27.1-60.5,60.5s27.1,60.5,60.5,60.5h10.6c-11.3,32.8-30.2,50.9-30.2,50.9
		s65.4-22.4,130.8-50.9h336.6c33.4,0,60.5-27.1,60.5-60.5S1654.8,187.8,1621.4,187.8z M1619.8,292.4H1541h-367.4
		c-24.3-0.1-44-19.8-44.1-44.1c0.1-24.3,19.8-44,44.1-44.1H1541l0,88.2v-88.2h78.8c24.3,0.1,44,19.8,44.1,44.1
		C1663.8,272.6,1644.1,292.3,1619.8,292.4z"/>
</g>
<path class="st4" d="M1173.6,204.2c-24.3,0.1-44,19.8-44.1,44.1c0.1,24.3,19.8,44,44.1,44.1H1541l0-88.2H1173.6z"/>
<path class="st1" d="M1619.8,204.2H1541v88.2h78.8c24.3-0.1,44-19.8,44.1-44.1C1663.8,224,1644.1,204.3,1619.8,204.2z"/>
</svg>
