<svg id="cloud_based" data-name="cloud based" xmlns="http://www.w3.org/2000/svg" viewBox="0 0 1622.92 930.31"><title>cloudBased</title><path d="M1961.92,1799.76a5.39,5.39,0,0,0-4.81-5.92c-16.91-1.74-33.82-2.57-50.73-3.43s-33.82-1.85-50.73-2c-30.49-.83-61-.71-91.46-1.09-6.89-29.8-9.3-62-4.82-91.91,4.62-33.06,20.32-63.35,46.66-81.44,13-9.27,28.3-15.27,44.36-19.38,16.49-4,33.29-6.75,49.14-6.19,7.87.31,15.57,1.43,21.94,3.81l1.37.51a22.76,22.76,0,0,0,12.46,1.26,21.83,21.83,0,0,0,14.47-9.56,20.51,20.51,0,0,0,3.2-9.18l.29-3.23.73-6.15a151.91,151.91,0,0,1,14.19-47.07c14.22-29.47,40.59-51.21,72.39-60.63s67.36-9.95,100.22-3.12c66.22,13.89,123.94,64.49,153,125.2a12.45,12.45,0,0,0,3.58,4.43,12.28,12.28,0,0,0,17.23-2.21l.35-.45c11.22-14.53,27-28.91,44.42-37.42a109.94,109.94,0,0,1,27.64-9.46,211.23,211.23,0,0,1,30.27-2.65c20.51,0,41.19,2.59,60.67,9.75a176.57,176.57,0,0,1,54.28,31.11,3.58,3.58,0,0,0,4.89-5.21c-15.19-15.88-33.26-29.68-53.8-39a181.86,181.86,0,0,0-65.54-16.22c-11.4-.4-22.36-.69-34.33,1.06a132,132,0,0,0-33.87,10.17,142.59,142.59,0,0,0-29.91,18.44,151.13,151.13,0,0,0-12.73,11.35,289.14,289.14,0,0,0-22.67-30.67,324.72,324.72,0,0,0-38.95-39.91c-28.3-24.25-62.55-42.57-99.46-50.82-37-8-75.16-8.13-112.3,2.3a147.4,147.4,0,0,0-51.77,26.58A142.82,142.82,0,0,0,1945,1507a178.22,178.22,0,0,0-17.6,55l-.43,3.19a98.93,98.93,0,0,0-26.24-4.42c-20-.8-38.9,2.48-57.06,7.12-18.49,4.87-37.08,12.22-53.24,23.94s-30,26.9-39.25,44.42c-9.5,17.42-15,36.39-17.71,55.29-5.14,38.13-1.33,75.19,8.7,112a12.18,12.18,0,0,0,12,9h.14c33.81-.79,67.62-.76,101.42-1.91,16.9-.23,33.81-1.21,50.71-2.31s33.8-1.91,50.7-3.77A5.4,5.4,0,0,0,1961.92,1799.76Z" transform="translate(-1731.16 -1426.78)" style="fill:#CCCED0"/><path d="M3350.4,1926.28c-4.29-29.5-12.86-58.89-27.55-85.71-14.29-27-35.61-50.38-60.43-68.22-24.88-18-53.61-29.36-82.45-36.91-28.54-7.24-58.14-12.31-88.85-11.1-15.32.66-30.95,3-46.36,8.85l-2.67,1-.41-3.9-1.47-11.15c-4.48-29.6-13.19-58.7-27.06-85.61a220.74,220.74,0,0,0-56.65-70.62c-23.66-19.21-51.36-33.07-80.12-41.43-28.76-8.72-58.54-12.09-88-12.67a370.52,370.52,0,0,0-88,8.82c-57.89,12.86-111.68,41.51-156.28,79.62a487.57,487.57,0,0,0-61.29,63c-14.71,18-28.37,36.49-40.2,56.9-15.11-16.84-32.39-30.5-51.47-42.32-24.41-14.73-51.93-24.87-80.48-27.89-55.66-5.5-112.93,2.12-163.33,26.9-50.45,24.45-91.64,64.26-122.62,109.48a468,468,0,0,0-65.28,149.82,3.57,3.57,0,0,0,6.91,1.78l.06-.23a458.58,458.58,0,0,1,69-143.89c31.07-43.05,71.32-79.85,119.19-101.62,47.61-22.09,101.9-27.87,153.45-21.5,50.61,6.38,96.49,38.88,126.6,78.24l.24.32a12.4,12.4,0,0,0,20.92-2.08c48.72-98.42,141.21-180.58,249.68-203.67a346.76,346.76,0,0,1,82.42-7.53c27.7.78,55.32,4.19,81.32,12.34a203.23,203.23,0,0,1,71.09,37.42,194.77,194.77,0,0,1,49.43,62.78c12.18,24.09,19.91,50.6,23.75,77.58l1.25,10.14.49,5.23a24.71,24.71,0,0,0,3.87,11.07,26.82,26.82,0,0,0,17.78,11.68,28.25,28.25,0,0,0,15.42-1.58l2.31-.88c11.37-4.29,24.45-6.22,37.66-6.74,26.58-1,54.06,3.52,80.93,10.17,26.42,6.79,51.9,16.79,73.58,32.35,44.16,30.39,70.26,81.45,77.68,135.66,7.48,51,3,105.15-9.41,155.48l-258.8.7c-44.78,0-89.56.82-134.34,1.72s-89.56,1.52-134.34,3.18a5.37,5.37,0,0,0,0,10.72c44.77,1.94,89.55,3,134.32,4s89.54,2.24,134.32,2.56l268.65,2.4h.2a12.33,12.33,0,0,0,12-9c8.24-29.08,12.94-57.63,15.54-87.09C3355,1985.57,3354.71,1955.82,3350.4,1926.28Z" transform="translate(-1731.16 -1426.78)" style="fill:#CCCED0"/><path d="M1936,2098.27c4.29-1.46,110.47-2.12,262.38-2.31" transform="translate(-1731.16 -1426.78)" style="fill:#fff"/><path d="M1934.27,2093.19a32.82,32.82,0,0,1,3.3-.95l2.12-.49,4.21-.89c2.76-.61,5.53-1,8.26-1.42,5.5-.95,11-1.55,16.45-2.12,11-1.29,21.9-1.93,32.85-2.3l65.65-2.2c5.47-.13,10.94-.58,16.41-.38l16.41,1c10.94.59,21.88,1.41,32.82,1.66,2.74.06,5.47.24,8.2.2s5.47-1.14,8.2-1.46c5.47-.13,10.94,1.33,16.41,1.92a279,279,0,0,1,32.82,6.67,3.7,3.7,0,0,1,0,7.15,281,281,0,0,1-32.79,6.77c-5.46.61-10.93,2.09-16.39,2-2.73-.31-5.47-1.39-8.2-1.42s-5.47.17-8.2.25c-10.93.3-21.86,1.19-32.79,1.85l-16.39,1.08c-5.46.25-10.93-.17-16.39-.24q-32.79-1-65.56-1.35c-10.92-.19-21.84-.57-32.75-1.53-5.45-.37-10.91-.82-16.35-1.47l-8.13-.92-4-.51-2-.26a3.69,3.69,0,0,1-.77-.41l-4.23-2.51a4.23,4.23,0,0,1,.77-7.64Z" transform="translate(-1731.16 -1426.78)" style="fill:#CCCED0"/><ellipse cx="761.69" cy="705.11" rx="225.78" ry="225.2" style="fill:#d9a2dc"/><path d="M2554.15,2114.7c-14.14-.78-28.27-1.36-42.41-1.66-.3-14.1-.88-28.2-1.66-42.3-1.17-20.38-.08-40.76-13.18-61.14h-8.09c-13.1,20.38-12,40.76-13.19,61.14-.78,14.1-1.36,28.2-1.66,42.3-14.14.3-28.27.88-42.41,1.65-20.44,1.18-40.87.06-61.3,13.15v8.07c20.43,13.09,40.87,12,61.3,13.15,14.14.78,28.27,1.36,42.41,1.65.3,14.1.88,28.2,1.66,42.3,1.18,20.38.06,40.76,13.19,61.14h8.09c13.12-20.38,12-40.76,13.19-61.14.78-14.1,1.36-28.2,1.66-42.3,14.14-.3,28.27-.88,42.41-1.66,20.43-1.17,40.87-.08,61.3-13.15v-8.07C2595,2114.78,2574.59,2115.87,2554.15,2114.7Z" transform="translate(-1731.16 -1426.78)" style="fill:#204A69"/></svg>