<svg viewBox="0 0 206.1 131.6" xmlns="http://www.w3.org/2000/svg"><style>.st0{fill:#E9EFF4;}.st1{fill:#74DCFC;}.st2{fill:#0084C0;}.st3{fill:#00A9DE;}.st4{fill:#004F84;}.st5{fill:#FFFFFF;}.st6{fill:#C8D7E2;}</style><path class="st0" d="m14.8 129.9c15.9-0.6 31.8-0.7 47.7-0.8l47.7-0.1c31.8 0.1 63.6 0.1 95.4 0.7 0.2 0 0.4 0.2 0.4 0.4s-0.2 0.4-0.4 0.4c-31.8 0.7-63.6 0.6-95.4 0.7l-47.7-0.1c-15.9-0.1-31.8-0.3-47.7-0.8-0.1 0-0.2-0.1-0.2-0.2 0-0.2 0.1-0.2 0.2-0.2z"/><path class="st1" d="M55.9,130.1L57,43.3v-4.4c0-3.8,3.1-6.9,6.9-6.9h102c3.8,0,6.9,3.1,6.9,6.9v91.1H67.5"/><path class="st2" d="M162,95.6H69.1V72.9c0-6.8,5.5-12.3,12.3-12.3H162V95.6z"/><path class="st3" d="m127.4 130.1h-58.3v-11.8c0-6.8 5.5-12.3 12.3-12.3h46v24.1z"/><path class="st3" d="m162 130.1h-24.5v-11.8c0-6.8 5.5-12.3 12.3-12.3h12.2v24.1z"/><path class="st3" d="m57 50.1v-11.4c0-4.5 3.1-8.2 6.9-8.2h102c3.8 0 6.9 3.7 6.9 8.2v11.4h-115.8z"/><path class="st4" d="m176 50.1c-10.2 0.8-20.4 0.7-30.6 0.8l-30.7 0.1-30.6-0.1c-10.2 0-20.4 0-30.6-0.8v-0.5c10.2-0.8 20.4-0.7 30.6-0.8l30.6-0.1 30.6 0.1c10.2 0 20.4 0 30.6 0.8v0.5z"/><path class="st5" d="m142.4 99.4h23.4c7.3 3.3 15.2 6 15.2 6s-2.2-2.1-3.4-6h4c3.3 0 6-2.7 6-6v-11.1c0-3.3-2.7-6-6-6h-39.2c-3.3 0-6 2.7-6 6v11.1c0 3.3 2.7 6 6 6z"/><path class="st6" d="m142.4 99.3c7.8-0.2 15.6-0.3 23.4-0.4h0.2c5 2.2 10 4.1 15.1 5.9l-0.5 0.9c-0.5-0.5-0.8-0.9-1.2-1.4-0.3-0.5-0.7-1-1-1.5-0.6-1-1.1-2.1-1.4-3.3-0.1-0.3 0.1-0.6 0.3-0.7h0.2 3.2c0.6 0 1.1 0 1.5-0.1 0.5-0.1 1-0.2 1.4-0.4 1.8-0.8 3.1-2.6 3.3-4.5v-6.4-3.2-1.6c0-0.6 0-1-0.1-1.5-0.4-1.9-1.9-3.5-3.8-4.1-0.5-0.1-1-0.2-1.4-0.2h-1.6-3.2-12.9l-12.9-0.1h-6.4c-1.1 0-2.2-0.1-3.2 0.1-1 0.1-1.9 0.6-2.7 1.2-0.8 0.7-1.4 1.5-1.7 2.5-0.4 1-0.3 2-0.3 3.1v6.4 3.2c0 1 0.2 2.1 0.7 3 0.9 1.8 2.9 3 5 3.1zm0 0.3c-2.2 0-4.4-1.2-5.5-3.2-0.5-1-0.8-2.1-0.8-3.2v-3.2-6.4c0-1-0.1-2.2 0.3-3.3s1-2.1 1.9-2.8 1.9-1.3 3.1-1.4c1.2-0.2 2.2-0.1 3.3-0.1h6.4l12.9-0.1h12.9 3.2 1.6c0.6 0 1.2 0.1 1.7 0.3 2.3 0.7 4.1 2.6 4.6 4.9 0.1 0.6 0.2 1.2 0.1 1.7v1.6 3.2 6.5c-0.2 2.3-1.8 4.5-3.9 5.4-0.5 0.2-1.1 0.4-1.7 0.5s-1.2 0.1-1.7 0.1h-3.2l0.5-0.7c0.3 1.1 0.8 2.1 1.3 3.1 0.3 0.5 0.6 1 0.9 1.4s0.7 0.9 1 1.3c0.2 0.2 0.2 0.5 0 0.7-0.1 0.1-0.4 0.2-0.5 0.1-5.1-1.8-10.2-3.8-15.2-6h0.2c-7.8-0.1-15.6-0.2-23.4-0.4z"/><circle class="st6" cx="171.7" cy="88.3" r="1.9"/><circle class="st6" cx="162.1" cy="88.3" r="1.9"/><circle class="st6" cx="152.5" cy="88.3" r="1.9"/><polygon class="st5" points="79.8 131.1 34.3 131.1 34.2 102.1 79.7 102.1"/><path class="st6" d="m79.9 131.2l-22.7 0.3-22.9 0.1c-0.3 0-0.5-0.2-0.5-0.5l-0.2-29c0-0.3 0.2-0.6 0.6-0.6 15.2 0.1 30.3 0 45.5 0.1 0.2 0 0.4 0.2 0.4 0.4l-0.2 29.2zm-0.3-0.2l-0.4-28.9 0.4 0.4c-15.2 0.1-30.3 0.1-45.5 0.1l0.6-0.6v29l-0.5-0.5 22.6 0.1 22.8 0.4z"/><polyline class="st5" points="36 104.9 56.5 117.3 78.1 104.1"/><path class="st6" d="m36 104.8c1.8 0.9 3.5 1.9 5.3 2.8 1.7 1 3.5 2 5.2 3l5.1 3.1c1.7 1 3.4 2.1 5.1 3.1h-0.6l10.9-6.5c3.6-2.2 7.3-4.3 11-6.4 0.1-0.1 0.2 0 0.3 0.1s0 0.2-0.1 0.3c-3.5 2.3-7.1 4.6-10.7 6.8l-10.8 6.7c-0.2 0.1-0.4 0.1-0.6 0-1.7-1-3.4-2-5.1-3.1l-5.1-3.1c-1.7-1-3.4-2.1-5.1-3.2s-3.3-2.2-5-3.4c0 0-0.1-0.1 0-0.1l0.2-0.1z"/><rect class="st5" x="20.6" y="81.1" width="6.6" height="49.9"/><path class="st6" d="m27.3 131.2l-6.7 0.2c-0.1 0-0.3-0.1-0.3-0.2-0.1-4.2-0.2-8.3-0.2-12.5l-0.1-12.5-0.1-25c0-0.3 0.3-0.6 0.6-0.6h6.6c0.3 0 0.5 0.2 0.5 0.5 0 8.4 0 16.8-0.1 25.1l-0.2 25zm-0.3-0.2l-0.3-25.1c-0.1-8.3-0.1-16.5-0.1-24.8l0.5 0.5h-6.6l0.6-0.6-0.1 25v12.6c0 4.2-0.1 8.3-0.2 12.5l-0.3-0.3 6.5 0.2z"/><line class="st5" x1="2.8" x2="92.2" y1="100.3" y2="7.7"/><path class="st6" d="m2.8 100.3c7.2-7.9 14.6-15.7 22-23.4l22.3-23.2 22.4-23.1c7.5-7.7 14.9-15.4 22.5-23 0.1-0.1 0.2-0.1 0.3 0s0.1 0.2 0 0.3c-7.3 7.8-14.8 15.5-22.1 23.3l-22.3 23.2-22.4 23.1c-7.5 7.7-15 15.3-22.6 22.9h-0.1c-0.1 0-0.1-0.1 0-0.1z"/><circle class="st5" cx="24" cy="79.8" r="6"/><path class="st6" d="m30.1 79.8c0.1 1.6-0.4 3.3-1.6 4.5-1.1 1.2-2.8 2-4.5 2s-3.4-0.7-4.6-1.9-1.9-2.9-1.9-4.6 0.7-3.4 1.9-4.6 2.9-1.9 4.6-1.9 3.3 0.8 4.5 2c1.1 1.3 1.7 2.9 1.6 4.5zm-0.3 0c-0.1-1.5-0.7-2.9-1.8-3.9s-2.5-1.6-3.9-1.5c-1.4 0-2.8 0.6-3.8 1.6s-1.6 2.4-1.6 3.8 0.6 2.8 1.6 3.8 2.4 1.6 3.8 1.6 2.9-0.5 3.9-1.5c1-0.9 1.7-2.3 1.8-3.9z"/><path class="st5" d="M46.4,131.1H0.8l0-0.3c0-3.5,2.9-6.4,6.4-6.4H40c3.5,0,6.4,2.9,6.4,6.4V131.1z"/><path class="st6" d="m46.6 131.2l-11.3 0.2-11.4 0.2-23 0.1c-0.3 0-0.6-0.2-0.6-0.5 0-1.2 0.2-2.4 0.8-3.5s1.4-2 2.4-2.7 2.2-1.1 3.4-1.1h3.4 13.4l13.3 0.1c1.1 0 2.2 0 3.4 0.1s2.3 0.5 3.3 1.1c1 0.7 1.8 1.6 2.3 2.6 0.3 0.5 0.4 1.1 0.6 1.6 0 0.3 0.1 0.6 0.1 0.9v0.4c-0.1 0.1-0.1 0.3-0.1 0.5zm-0.3-0.2c-0.1-0.2-0.1-0.2-0.1-0.3v-0.4c0-0.3-0.1-0.5-0.1-0.8-0.1-0.5-0.3-1-0.6-1.5-0.5-0.9-1.3-1.8-2.2-2.3-0.9-0.6-1.9-0.9-3-0.9h-3.3l-13.4 0.1h-13.4-3.3c-1 0-2 0.4-2.9 0.9-1.7 1.1-2.8 3.1-2.7 5.2l-0.6-0.6 22.6 0.1 11.4 0.2 11.6 0.3z"/><path class="st5" d="m89 14.8l-2.4-4.3c-1.8-2.9-1.1-6.5 1.4-8l2.1-1.3c2.5-1.5 6-0.4 7.7 2.4l2.4 4.3"/><path class="st6" d="m88.9 14.8c-0.7-1-1.4-2.1-2.1-3.2-0.3-0.5-0.7-1.1-1-1.6-0.3-0.6-0.5-1.2-0.7-1.9-0.2-1.3 0-2.8 0.6-4 0.3-0.6 0.8-1.2 1.3-1.6 0.6-0.5 1.1-0.7 1.6-1.1 0.6-0.3 1.1-0.7 1.7-0.9 0.6-0.3 1.4-0.4 2-0.4 1.4 0 2.8 0.5 3.8 1.3 0.5 0.4 1 0.9 1.4 1.5s0.7 1.1 0.9 1.7c0.6 1.1 1.1 2.3 1.7 3.4 0 0.1 0 0.2-0.1 0.3-0.1 0-0.2 0-0.3-0.1-0.3-1.2-1-2.2-1.7-3.3-0.3-0.5-0.6-1.1-1-1.5-0.4-0.5-0.8-0.9-1.3-1.2-0.9-0.7-2.1-1.1-3.2-1-0.6 0-1.1 0.1-1.6 0.4-0.5 0.2-1 0.6-1.6 0.9-0.5 0.3-1.1 0.6-1.5 1-0.4 0.3-0.8 0.8-1.1 1.3-0.5 1-0.7 2.2-0.6 3.3 0.1 0.6 0.2 1.2 0.5 1.7l0.8 1.7c0.6 1.1 1.1 2.3 1.6 3.4 0 0.1 0 0.1-0.1 0.1 0.1-0.1 0-0.1 0-0.2z"/><path class="st5" d="m93.1 39l-4.4-7.3c-4.3-7.1-2.7-15.8 3.5-19.6l5.1-3.1c6.2-3.7 14.7-1 18.9 6.1l4.4 7.3"/><path class="st6" d="m93 39.1c-1.6-2.3-3.1-4.7-4.6-7-1.5-2.4-2.5-5.2-2.6-8.1s0.5-5.8 2.1-8.3c0.8-1.2 1.8-2.3 2.9-3.2 0.6-0.5 1.2-0.8 1.8-1.2l1.8-1.1c1.2-0.7 2.3-1.5 3.7-2.1 1.3-0.6 2.8-1 4.2-1.1 2.9-0.2 5.8 0.6 8.3 2 2.5 1.5 4.5 3.6 6 6.1 1.4 2.4 2.8 4.8 4.1 7.3 0.1 0.1 0 0.2-0.1 0.3s-0.2 0-0.3-0.1c-1.5-2.3-3-4.7-4.5-7.1-1.4-2.3-3.4-4.3-5.8-5.7-2.3-1.4-5.1-2.1-7.7-1.8-1.3 0.1-2.6 0.5-3.8 1-1.2 0.6-2.4 1.4-3.6 2.1s-2.5 1.4-3.5 2.2c-1.1 0.8-2 1.8-2.7 2.9-1.4 2.3-2.1 5-2 7.7s0.9 5.4 2.3 7.7c1.4 2.4 2.7 4.9 4.1 7.3v0.1c0 0.1 0 0.1-0.1 0.1z"/><line class="st5" x1="90.4" x2="122.5" y1="40.7" y2="21.4"/><path class="st6" d="m90.3 40.6c2.5-1.8 5.2-3.5 7.8-5.2l8-4.9c5.4-3.2 10.7-6.4 16.2-9.4 0.1-0.1 0.2 0 0.3 0.1 0 0.1 0 0.2-0.1 0.3-5.2 3.5-10.5 6.7-15.9 10l-8.1 4.8c-2.7 1.6-5.4 3.1-8.2 4.5h-0.1c0.1-0.1 0.1-0.2 0.1-0.2z"/><polygon class="st3" points="83.6 85.4 92.7 72 103.1 85.4"/></svg>