<svg id="contact_us" xmlns="http://www.w3.org/2000/svg" x="0px" y="0px" viewBox="0 0 206.1 131.6"><path fill="#E9EFF4" d="M14.8,129.9c15.9-0.6,31.8-0.7,47.7-0.8l47.7-0.1c31.8,0.1,63.6,0.1,95.4,0.7c0.2,0,0.4,0.2,0.4,0.4 c0,0.2-0.2,0.4-0.4,0.4c-31.8,0.7-63.6,0.6-95.4,0.7l-47.7-0.1c-15.9-0.1-31.8-0.3-47.7-0.8c-0.1,0-0.2-0.1-0.2-0.2 C14.6,129.9,14.7,129.9,14.8,129.9z"/><path fill="#74DCFC" d="M55.9,130.1L57,43.3v-4.4c0-3.8,3.1-6.9,6.9-6.9h102c3.8,0,6.9,3.1,6.9,6.9v91.1H67.5"/><path fill="#0084C0" d="M162,95.6H69.1V72.9c0-6.8,5.5-12.3,12.3-12.3H162V95.6z"/><path fill="#00A9DE" d="M127.4,130.1H69.1v-11.8c0-6.8,5.5-12.3,12.3-12.3h46V130.1z"/><path fill="#00A9DE" d="M162,130.1h-24.5v-11.8c0-6.8,5.5-12.3,12.3-12.3H162V130.1z"/><path fill="#00A9DE" d="M57,50.1v-6.2v-5.2c0-4.5,3.1-8.2,6.9-8.2h102c3.8,0,6.9,3.7,6.9,8.2v11.4H57z"/><path fill="#004F84" d="M176,50.1c-10.2,0.8-20.4,0.7-30.6,0.8L114.7,51l-30.6-0.1c-10.2,0-20.4,0-30.6-0.8v-0.5 c10.2-0.8,20.4-0.7,30.6-0.8l30.6-0.1l30.6,0.1c10.2,0,20.4,0,30.6,0.8V50.1z"/><path fill="#FFFFFF" d="M142.4,99.4h23.4c7.3,3.3,15.2,6,15.2,6s-2.2-2.1-3.4-6h4c3.3,0,6-2.7,6-6V82.3c0-3.3-2.7-6-6-6h-39.2 c-3.3,0-6,2.7-6,6v11.1C136.4,96.7,139.1,99.4,142.4,99.4z"/><path fill="#C8D7E2" d="M142.4,99.3c7.8-0.2,15.6-0.3,23.4-0.4c0.1,0,0.1,0,0.2,0l0,0c5,2.2,10,4.1,15.1,5.9l-0.5,0.9 c-0.5-0.5-0.8-0.9-1.2-1.4c-0.3-0.5-0.7-1-1-1.5c-0.6-1-1.1-2.1-1.4-3.3c-0.1-0.3,0.1-0.6,0.3-0.7c0.1,0,0.1,0,0.2,0l3.2,0 c0.6,0,1.1,0,1.5-0.1c0.5-0.1,1-0.2,1.4-0.4c1.8-0.8,3.1-2.6,3.3-4.5c0-2,0-4.3,0-6.4l0-3.2l0-1.6c0-0.6,0-1-0.1-1.5 c-0.4-1.9-1.9-3.5-3.8-4.1c-0.5-0.1-1-0.2-1.4-0.2l-1.6,0l-3.2,0l-12.9,0l-12.9-0.1l-6.4,0c-1.1,0-2.2-0.1-3.2,0.1 c-1,0.1-1.9,0.6-2.7,1.2c-0.8,0.7-1.4,1.5-1.7,2.5c-0.4,1-0.3,2-0.3,3.1l0,6.4l0,3.2c0,1,0.2,2.1,0.7,3 C138.3,98,140.3,99.2,142.4,99.3L142.4,99.3z M142.4,99.6c-2.2,0-4.4-1.2-5.5-3.2c-0.5-1-0.8-2.1-0.8-3.2l0-3.2l0-6.4 c0-1-0.1-2.2,0.3-3.3c0.4-1.1,1-2.1,1.9-2.8c0.9-0.7,1.9-1.3,3.1-1.4c1.2-0.2,2.2-0.1,3.3-0.1l6.4,0l12.9-0.1l12.9,0l3.2,0l1.6,0 c0.6,0,1.2,0.1,1.7,0.3c2.3,0.7,4.1,2.6,4.6,4.9c0.1,0.6,0.2,1.2,0.1,1.7l0,1.6l0,3.2c0,2.2,0,4.3,0,6.5 c-0.2,2.3-1.8,4.5-3.9,5.4c-0.5,0.2-1.1,0.4-1.7,0.5c-0.6,0.1-1.2,0.1-1.7,0.1l-3.2,0l0.5-0.7c0.3,1.1,0.8,2.1,1.3,3.1 c0.3,0.5,0.6,1,0.9,1.4c0.3,0.4,0.7,0.9,1,1.3l0,0c0.2,0.2,0.2,0.5,0,0.7c-0.1,0.1-0.4,0.2-0.5,0.1c-5.1-1.8-10.2-3.8-15.2-6 l0.2,0c-7.8-0.1-15.6-0.2-23.4-0.4V99.6z"/><circle fill="#C8D7E2" cx="171.7" cy="88.3" r="1.9"/><circle fill="#C8D7E2" cx="162.1" cy="88.3" r="1.9"/><circle fill="#C8D7E2" cx="152.5" cy="88.3" r="1.9"/><polygon fill="#FFFFFF" points="79.8,131.1 34.3,131.1 34.2,102.1 79.7,102.1"/><path fill="#C8D7E2" d="M79.9,131.2L79.9,131.2l-22.7,0.3l-22.9,0.1c-0.3,0-0.5-0.2-0.5-0.5l0,0l-0.2-29c0-0.3,0.2-0.6,0.6-0.6h0 c15.2,0.1,30.3,0,45.5,0.1h0c0.2,0,0.4,0.2,0.4,0.4L79.9,131.2z M79.6,131L79.6,131l-0.4-28.9l0.4,0.4 c-15.2,0.1-30.3,0.1-45.5,0.1l0.6-0.6l0,29l-0.5-0.5l22.6,0.1L79.6,131z"/><polyline fill="#FFFFFF" points="36,104.9 56.5,117.3 78.1,104.1"/><path fill="#C8D7E2" d="M36,104.8c1.8,0.9,3.5,1.9,5.3,2.8c1.7,1,3.5,2,5.2,3l5.1,3.1c1.7,1,3.4,2.1,5.1,3.1l-0.6,0l10.9-6.5 c3.6-2.2,7.3-4.3,11-6.4c0.1-0.1,0.2,0,0.3,0.1c0.1,0.1,0,0.2-0.1,0.3c-3.5,2.3-7.1,4.6-10.7,6.8l-10.8,6.7 c-0.2,0.1-0.4,0.1-0.6,0c-1.7-1-3.4-2-5.1-3.1l-5.1-3.1c-1.7-1-3.4-2.1-5.1-3.2c-1.7-1.1-3.3-2.2-5-3.4c0,0-0.1-0.1,0-0.1 C36,104.8,36,104.8,36,104.8z"/><rect x="20.6" y="81.1" fill="#FFFFFF" width="6.6" height="49.9"/><path fill="#C8D7E2" d="M27.3,131.2L27.3,131.2l-6.7,0.2c-0.1,0-0.3-0.1-0.3-0.2l0,0l0,0c-0.1-4.2-0.2-8.3-0.2-12.5l-0.1-12.5 l-0.1-25c0-0.3,0.3-0.6,0.6-0.6h0l6.6,0c0.3,0,0.5,0.2,0.5,0.5v0c0,8.4,0,16.8-0.1,25.1L27.3,131.2z M27,131L27,131l-0.3-25.1 c-0.1-8.3-0.1-16.5-0.1-24.8l0.5,0.5l-6.6,0l0.6-0.6l-0.1,25L21,118.6c0,4.2-0.1,8.3-0.2,12.5l-0.3-0.3L27,131z"/><line fill="#FFFFFF" x1="2.8" y1="100.3" x2="92.2" y2="7.7"/><path fill="#C8D7E2" d="M2.8,100.3c7.2-7.9,14.6-15.7,22-23.4l22.3-23.2l22.4-23.1C77,22.9,84.4,15.2,92,7.6c0.1-0.1,0.2-0.1,0.3,0 c0.1,0.1,0.1,0.2,0,0.3C85,15.7,77.5,23.4,70.2,31.2L47.9,54.4L25.5,77.5c-7.5,7.7-15,15.3-22.6,22.9c0,0-0.1,0-0.1,0 C2.7,100.4,2.7,100.3,2.8,100.3z"/><circle fill="#FFFFFF" cx="24" cy="79.8" r="6"/><path fill="#C8D7E2" d="M30.1,79.8c0.1,1.6-0.4,3.3-1.6,4.5c-1.1,1.2-2.8,2-4.5,2c-1.7,0-3.4-0.7-4.6-1.9c-1.2-1.2-1.9-2.9-1.9-4.6 c0-1.7,0.7-3.4,1.9-4.6c1.2-1.2,2.9-1.9,4.6-1.9c1.7,0,3.3,0.8,4.5,2C29.6,76.6,30.2,78.2,30.1,79.8L30.1,79.8z M29.8,79.8 c-0.1-1.5-0.7-2.9-1.8-3.9c-1.1-1-2.5-1.6-3.9-1.5c-1.4,0-2.8,0.6-3.8,1.6c-1,1-1.6,2.4-1.6,3.8c0,1.4,0.6,2.8,1.6,3.8 c1,1,2.4,1.6,3.8,1.6c1.4,0,2.9-0.5,3.9-1.5C29,82.8,29.7,81.4,29.8,79.8L29.8,79.8z"/><path fill="#FFFFFF" d="M46.4,131.1H0.8l0-0.3c0-3.5,2.9-6.4,6.4-6.4H40c3.5,0,6.4,2.9,6.4,6.4V131.1z"/><path fill="#C8D7E2" d="M46.6,131.2L46.6,131.2l-11.3,0.2l-11.4,0.2l-23,0.1c-0.3,0-0.6-0.2-0.6-0.5l0,0c0-1.2,0.2-2.4,0.8-3.5 c0.6-1.1,1.4-2,2.4-2.7c1-0.7,2.2-1.1,3.4-1.1c1.2,0,2.2,0,3.4,0l13.4,0L37,124c1.1,0,2.2,0,3.4,0.1c1.2,0.1,2.3,0.5,3.3,1.1 c1,0.7,1.8,1.6,2.3,2.6c0.3,0.5,0.4,1.1,0.6,1.6c0,0.3,0.1,0.6,0.1,0.9l0,0.4C46.6,130.8,46.6,131,46.6,131.2z M46.3,131 L46.3,131c-0.1-0.2-0.1-0.2-0.1-0.3l0-0.4c0-0.3-0.1-0.5-0.1-0.8c-0.1-0.5-0.3-1-0.6-1.5c-0.5-0.9-1.3-1.8-2.2-2.3 c-0.9-0.6-1.9-0.9-3-0.9c-1.1,0-2.2,0-3.3,0l-13.4,0.1l-13.4,0c-1.1,0-2.3,0-3.3,0c-1,0-2,0.4-2.9,0.9c-1.7,1.1-2.8,3.1-2.7,5.2 l-0.6-0.6l22.6,0.1l11.4,0.2L46.3,131z"/><path fill="#FFFFFF" d="M89,14.8l-2.4-4.3C84.8,7.6,85.5,4,88,2.5l2.1-1.3c2.5-1.5,6-0.4,7.7,2.4l2.4,4.3"/><path fill="#C8D7E2" d="M88.9,14.8c-0.7-1-1.4-2.1-2.1-3.2c-0.3-0.5-0.7-1.1-1-1.6c-0.3-0.6-0.5-1.2-0.7-1.9c-0.2-1.3,0-2.8,0.6-4 c0.3-0.6,0.8-1.2,1.3-1.6c0.6-0.5,1.1-0.7,1.6-1.1c0.6-0.3,1.1-0.7,1.7-0.9c0.6-0.3,1.4-0.4,2-0.4c1.4,0,2.8,0.5,3.8,1.3 c0.5,0.4,1,0.9,1.4,1.5c0.4,0.6,0.7,1.1,0.9,1.7c0.6,1.1,1.1,2.3,1.7,3.4c0,0.1,0,0.2-0.1,0.3c-0.1,0-0.2,0-0.3-0.1 C99.4,7,98.7,6,98,4.9c-0.3-0.5-0.6-1.1-1-1.5c-0.4-0.5-0.8-0.9-1.3-1.2c-0.9-0.7-2.1-1.1-3.2-1c-0.6,0-1.1,0.1-1.6,0.4 c-0.5,0.2-1,0.6-1.6,0.9c-0.5,0.3-1.1,0.6-1.5,1c-0.4,0.3-0.8,0.8-1.1,1.3c-0.5,1-0.7,2.2-0.6,3.3c0.1,0.6,0.2,1.2,0.5,1.7 l0.8,1.7c0.6,1.1,1.1,2.3,1.6,3.4c0,0.1,0,0.1-0.1,0.1C89,14.9,88.9,14.9,88.9,14.8z"/><path fill="#FFFFFF" d="M93.1,39l-4.4-7.3c-4.3-7.1-2.7-15.8,3.5-19.6l5.1-3.1c6.2-3.7,14.7-1,18.9,6.1l4.4,7.3"/><path fill="#C8D7E2" d="M93,39.1c-1.6-2.3-3.1-4.7-4.6-7c-1.5-2.4-2.5-5.2-2.6-8.1c-0.1-2.9,0.5-5.8,2.1-8.3 c0.8-1.2,1.8-2.3,2.9-3.2c0.6-0.5,1.2-0.8,1.8-1.2l1.8-1.1c1.2-0.7,2.3-1.5,3.7-2.1c1.3-0.6,2.8-1,4.2-1.1 c2.9-0.2,5.8,0.6,8.3,2c2.5,1.5,4.5,3.6,6,6.1c1.4,2.4,2.8,4.8,4.1,7.3c0.1,0.1,0,0.2-0.1,0.3c-0.1,0.1-0.2,0-0.3-0.1 c-1.5-2.3-3-4.7-4.5-7.1c-1.4-2.3-3.4-4.3-5.8-5.7c-2.3-1.4-5.1-2.1-7.7-1.8c-1.3,0.1-2.6,0.5-3.8,1c-1.2,0.6-2.4,1.4-3.6,2.1 c-1.2,0.7-2.5,1.4-3.5,2.2c-1.1,0.8-2,1.8-2.7,2.9c-1.4,2.3-2.1,5-2,7.7c0.1,2.7,0.9,5.4,2.3,7.7c1.4,2.4,2.7,4.9,4.1,7.3 c0,0,0,0.1,0,0.1C93.1,39.1,93.1,39.1,93,39.1z"/><line fill="#FFFFFF" x1="90.4" y1="40.7" x2="122.5" y2="21.4"/><path fill="#C8D7E2" d="M90.3,40.6c2.5-1.8,5.2-3.5,7.8-5.2l8-4.9c5.4-3.2,10.7-6.4,16.2-9.4c0.1-0.1,0.2,0,0.3,0.1 c0,0.1,0,0.2-0.1,0.3c-5.2,3.5-10.5,6.7-15.9,10l-8.1,4.8c-2.7,1.6-5.4,3.1-8.2,4.5c0,0-0.1,0-0.1,0 C90.3,40.7,90.3,40.6,90.3,40.6z"/><polygon fill="#00A9DE" points="83.6,85.4 92.7,72 103.1,85.4"/></svg>