<svg id="customizeTheme" xmlns="http://www.w3.org/2000/svg" viewBox="0 0 1562 968.3"><style>.st0{fill:none}.st1{fill:#f3f6f8}.st2{fill:#00be28}.st3{fill:#c2f4ff}.st4{fill:#e1eff9}.st5{fill:#a6c1d1}.st6{fill:#00a9de}.st7{fill:#004f82}.st8{fill:#004f84}.st9{fill:#74dcfc}.st10{opacity:.26;fill:#86a6bd;enable-background:new}.st11{fill:#c8d7e2}.st12{fill:#e9eff4}</style><title>customizeTheme</title><path class="st0" d="M1026.5 422.3v303.4H1213V403.1h-167.2c-10.6 0-19.3 8.5-19.3 19.2z"/><path class="st1" d="M938.5 214.7v-66.4H734.4c1.4 2.4 2.8 4.9 4 7.5 23.1 48.4 2.5 106.3-45.8 129.5l-1.1.5-1.7.8c-4 1.8-8.2 3.3-12.4 4.5l-1.9.5c-.7.2-1.5.4-2.2.6-1.1.3-2.3.5-3.4.8-2-3.6-2.6-12.7-3-17.9-.6-8.5-.9-13.2-4.3-14.6-5.4-2.2-12.5 3.4-17.3 13.7-3 6.3-4.4 13.3-4.3 20.3-53.5-5.3-92.5-53-87.2-106.4 1.1-11.2 4.1-22.1 9-32.1 1.2-2.6 2.6-5 4-7.5H354.5v344.6c30.6.6 90.9-10.7 91.7 17.8V408.2h394.3v121.9c31.4-.2 63.1 7.3 94.4 2.1 1.3-.3 2.7.5 3 1.9 3.1 18.4 15.2 184.3 16.5 200.8 1.1 15 3.6 29.6.5 44.5-.4 1.1-1.4 1.8-2.5 1.8-11.3.6-22.6 2.1-33.8 2-10.6 0-50.8-1.1-53.7-2.1-3.6-1.3-20.9 2.9-29.7 3.5-8.5.5-42 2.8-50.3 3-10.4.2-21.3-.1-21.6-10.1-.1-5.6-5.4-45.9-4.6-51.7H449.3c0 1.3-64.1-.1-94.8-.4v90.9h922.1V214.7H938.5zm274.6 510.9h-186.5V422.2c0-10.7 8.7-19.3 19.3-19.3h167.3v322.7z"/><path class="st2" d="M738.3 155.7c-1.2-2.6-2.6-5-4-7.5-1.1-1.9-2.3-3.8-3.6-5.6-30.3-44.3-90.8-55.7-135.1-25.4-10 6.8-18.6 15.5-25.4 25.4-1.3 1.8-2.4 3.7-3.6 5.7-1.4 2.4-2.8 4.9-4 7.5-23.1 48.5-2.4 106.6 46.1 129.6 10.1 4.8 21 7.8 32.1 8.9-.2-7 1.3-13.9 4.3-20.3 4.8-10.2 11.9-15.8 17.3-13.7 3.4 1.4 3.8 6.1 4.3 14.6.4 5.2 1 14.3 3 17.9 1.2-.2 2.3-.5 3.4-.8.8-.2 1.5-.4 2.2-.6l1.9-.5c4.2-1.2 8.4-2.7 12.4-4.5l1.7-.8 1.1-.5c48.5-23 69-81 45.9-129.4z"/><path class="st0" d="M1212.8 403.8h-167.2c-10.7 0-19.3 8.7-19.3 19.3v303.4h186.4V403.8z"/><path class="st3" d="M938.3 71.5V215.4h389.9V71.5z"/><path class="st1" d="M381.7 635l51.9-.4 3.8 41.2-42.3-3.8s-16.8-3.4-13.4-37z"/><path class="st4" d="M370.8 155.7H354c-3.7 0-6.7-3-6.7-6.7v-16.8a6.7 6.7 0 0 1 13.4 0v10.1h10.1a6.7 6.7 0 0 1 0 13.4zM354 104.9c-3.7 0-6.7-3-6.7-6.7V64.1a6.7 6.7 0 0 1 13.4 0v34.1c0 3.7-3 6.7-6.7 6.7zm9.1-66.3c-3.7 0-6.7-3-6.7-6.7 0-1.3.4-2.6 1.1-3.7 7.1-10.7 17.4-19 29.3-23.6 3.5-1.3 7.3.4 8.7 3.9 1.3 3.5-.4 7.3-3.9 8.7-9.4 3.6-17.4 10.1-23 18.5-1.1 1.8-3.2 2.9-5.5 2.9zm903.9-.2c-2.2 0-4.3-1.1-5.6-3-5.6-8.4-13.7-14.8-23.1-18.4-3.5-1.3-5.2-5.2-3.9-8.7s5.2-5.2 8.7-3.9c12.1 4.5 22.4 12.8 29.4 23.5 2.1 3.1 1.2 7.2-1.8 9.3-1 .8-2.3 1.2-3.7 1.2zm-59.8-24.5H1173a6.7 6.7 0 0 1 0-13.4h34.1c3.7 0 6.7 3 6.7 6.7s-2.9 6.7-6.6 6.7zm-68.2 0h-34.1a6.7 6.7 0 0 1 0-13.4h34c3.7 0 6.7 3 6.7 6.7s-3 6.7-6.6 6.7zm-68.2 0h-34.1a6.7 6.7 0 0 1 0-13.4h34.1a6.7 6.7 0 0 1 0 13.4zm-68.2 0h-34.1a6.7 6.7 0 0 1 0-13.4h34.1a6.7 6.7 0 0 1 0 13.4zm-68.2 0h-34.1a6.7 6.7 0 0 1 0-13.4h34c3.7 0 6.7 3 6.7 6.7s-3 6.7-6.6 6.7zm-68.2 0h-34.1a6.7 6.7 0 0 1 0-13.4h34.1a6.7 6.7 0 0 1 0 13.4zm-68.1 0H764a6.7 6.7 0 0 1 0-13.4h34.1a6.7 6.7 0 0 1 0 13.4zm-68.3 0h-34a6.7 6.7 0 0 1 0-13.4h34.1c3.7 0 6.7 3 6.7 6.7-.1 3.7-3.1 6.7-6.8 6.7zm-68.2 0h-34.1a6.7 6.7 0 0 1 0-13.4h34.1a6.7 6.7 0 0 1 0 13.4zm-68.1 0h-34.1a6.7 6.7 0 0 1 0-13.4h34.1a6.7 6.7 0 0 1 0 13.4zm-68.2 0h-34.1a6.7 6.7 0 0 1 0-13.4h34.1a6.7 6.7 0 0 1 0 13.4zm-68.3 0h-34.1a6.7 6.7 0 0 1 0-13.4H457a6.7 6.7 0 0 1 0 13.4z"/><path class="st5" d="M840.4 782.1s-4.8 103.5-20.4 166.8l-91.4 1.2s-7.4-4.7 2.4-9.6c10.2-5.1 37.5-10.6 40.6-16.8 6-12 3.6-134.9 3.6-134.9M875.9 785.3s4.8 96.7 20.4 160.1l79.9 1.2s7.4-4.7-2.4-9.6c-10.2-5.1-37.5-10.6-40.6-16.8-6-12 11.7-141.7 11.7-141.7"/><path class="st0" d="M673.4 296.6s2.1 1.8 2.9-5.2c-3.1.9-6.3 1.6-9.4 2.1 1.4 2.7 3.4 4.1 6.5 3.1z"/><path class="st5" d="M673.4 296.6c-3.1 1-5.1-.4-6.5-3.1-5.4.9-10.9 1.4-16.4 1.4-2 0-3.9-.1-5.9-.2.7 10.9 6.4 22.2 21.3 29.9l10.9 5.9 18.2-11.2c1.9-15.2-1.3-26-4.7-32.9-4.5 2-9.2 3.7-14 5-.8 7-2.9 5.2-2.9 5.2z"/><path class="st5" d="M666.9 293.5c-4.3-8.4-2.3-29.3-5.5-30.6-5.9-2.4-18 14.1-16.8 31.8 1.9.1 3.9.2 5.9.2 5.5 0 11-.5 16.4-1.4z"/><path class="st6" d="M914.1 639.7c-1.9 0-3.3-1.6-3.3-3.4 0-1.7 1.3-3 2.9-3.2l37-4c1.8-.3 3.6.9 3.9 2.8.3 1.8-.9 3.6-2.8 3.9h-.4l-37 4-.3-.1z"/><path class="st6" d="M939.8 659.6c-6.4.1-12.6-2.2-17.2-6.6-4.1-3.8-6.3-9.2-6-14.8 0-1.8 1.5-3.2 3.3-3.2h.3c1.8.1 3.3 1.7 3.2 3.5-.1 3.6 1.3 7.1 4 9.6 3.9 3.6 9.1 5.3 14.3 4.7l6.5-1.8c1.8-.5 3.6.6 4.1 2.4s-.6 3.6-2.4 4.1l-7 1.9c-1.2.1-2.1.2-3.1.2z"/><path class="st7" d="M755.2 438.3c-1.9 0-3.4-1.5-3.4-3.4 0-1.3.8-2.5 2-3.1l28.9-13c1.6-.9 3.7-.2 4.5 1.4.9 1.6.2 3.7-1.4 4.5-.1.1-.2.1-.3.2l-28.9 13c-.5.3-.9.4-1.4.4z"/><path class="st0" d="M791.3 239.6c.2 4 1.3 7 2.7 7.8.9.6 2.4-.1 3.5-.8-.2-1.7-.3-3.4-.3-5.1l-5.9-1.9zM795.1 228.3c-1.4 1.2-2.4 2.7-3 4.4l5.2 1.8c.2-2.2.4-4.3.8-6.4-.4-.2-.7-.4-1-.7-.7.1-1.4.5-2 .9z"/><path class="st5" d="M825.2 274.1c-6.2-3.6-10.1-10.1-10.2-17.2l1-9.1-12.1-4c.2 3.1.6 6.2 1.2 9.2 3.3 15.8 7.2 28.1 24.7 30.9 1.5.2 2.6 1.4 2.8 2.9l2.2 18.4c.2 1.8-1.1 3.5-2.9 3.7h-.4c-.8 0-1.5-.3-2.1-.8v8.5l41.9 2.2v-37.5c-1.8.9-3.7 1.6-5.7 2.1-17.6 4.2-31.3-4.2-40.4-9.3zM861.2 248l-10.7-29s-14.3-8-27.7-7.2c6.8 16.1 21 31.8 38.4 36.2zM805.6 224.7c-1 3.9-1.5 8-1.7 12l12.9 4.3 1.5-14.5s-7.8 1-12.7-1.8z"/><path class="st8" d="M886.6 245.9c-8 3.4-17 4.1-25.4 2-17.5-4.4-31.5-20.1-38.4-36.1-3.8-9-5.4-18.2-4.1-25.6-6.7 5.2-12.4 13.7-16.6 26.5-.3.9-.5 1.8-.7 2.7-.7 1.8-1.3 3.7-1.9 5.6-1.3-.5-2.7-.6-4-.3-4.5 1-9.8 5.6-10.8 13.7-.8 6.5.2 15.3 5.6 18.6 1.3.8 2.8 1.2 4.3 1.2 1.3 0 2.5-.3 3.7-.7.1.3.1.6.2.8 3.4 16.4 8.2 31.4 27.6 35.7l1.9 16c.2 1.7 1.6 3 3.3 3h.4c1.8-.2 3.2-1.9 2.9-3.7l-2.2-18.4c-.2-1.5-1.3-2.7-2.8-2.9-17.4-2.8-21.4-15.2-24.7-30.9-.6-3-1-6.1-1.2-9.2l12.1 4-1 9.1c.1 7.1 4 13.7 10.2 17.2 9.1 5.1 22.8 13.5 40.2 9.4 2-.5 3.9-1.2 5.7-2.1 11.9-6.1 18.6-21.5 20.7-38.2-1.4 1-3.2 1.9-5 2.6zm-92.6 1.5c-1.3-.8-2.5-3.8-2.7-7.8l5.9 1.9c0 1.7.1 3.4.3 5.1-1.2.7-2.6 1.4-3.5.8zm3.3-12.9l-5.2-1.8c.6-1.7 1.6-3.3 3-4.4.6-.5 1.3-.8 2-1 .3.3.6.5 1 .7-.4 2.2-.6 4.4-.8 6.5zm19.4 6.5l-12.9-4.3c.2-4 .7-8.1 1.7-12 5 2.8 12.8 1.8 12.8 1.8l-1.6 14.5z"/><path class="st9" d="M829 172.4c-5.9 2.6-9.2 7.6-10.3 13.9-4.8 26.5 28.2 76 67.9 59.6 1.8-.7 3.6-1.6 5.2-2.6 39.4-23.3-15.1-91.7-62.8-70.9z"/><path class="st10" d="M278 621.9h149.9c4.7 0 8.5-3.8 8.5-8.5v-.4l-4.3-99.7c-.1-3.4-3-6.2-6.4-6.2H276l2 101.7"/><path class="st11" d="M436.7 675.9c-2.8-16-4.1-31.9-5.4-48l-.8-12.1-.4-6-.1-1.5v-2c.1-1.7.8-3.4 1.9-4.8 2-2.4 4.9-3.7 8-3.8l6.1-.1 12.1-.1 12.1.1 6.1.1c3.1.1 6 1.4 8 3.8 1.1 1.3 1.8 3 1.9 4.7l.1 3.1.3 6 .5 12.1c.6 16.1 1.1 32.1.8 48.2 0 .7-.7 1.3-1.4 1.3-.6 0-1.2-.5-1.3-1.1-2.1-16-3.4-32-4.7-48l-.9-12-.4-6-.2-2.9c0-.3-.2-.6-.4-.8-.7-.7-1.7-1.1-2.7-1.1l-5.9.1-12.1.1-12.1-.1h-5.9c-1 0-2 .4-2.7 1.1-.2.2-.3.5-.4.7v1l.1 1.5.3 6 .6 12.1c.4 16.1 1 32.1 0 48.3 0 .4-.4.6-.7.6-.1 0-.3-.2-.4-.5z"/><path class="st1" d="M474 657.2l-2.5-44.3h-26.2l2.5 44.2z"/><path class="st0" d="M395.1 701h36.2"/><path class="st12" d="M395.1 700.3c2.8-1.6 5.9-2.5 9.1-2.7 3-.3 6-.4 9.1-.4 3 .1 6 .3 9.1.5 3.1.3 6.1.9 9.1 2 .7.3 1.1 1.1.8 1.9-.1.4-.4.7-.8.8-2.9 1.1-6 1.7-9.1 2-3 .2-6 .4-9.1.5-3 0-6-.1-9.1-.4-3.2-.2-6.3-1.1-9.1-2.7-.4-.2-.5-.7-.3-1.1.1-.1.2-.3.3-.4zM426.7 670.6c-17.2-1.2-34.3-1.6-51.6-1.9l-25.7-.3-12.9-.1-6.5-.1c-1.8 0-3.5-.3-5.2-.9-6.9-2.3-11.6-8.8-11.5-16.1l-.2-17.5c-2.3-.1-4.6-.2-6.9-.2l-.2 17.7c-.2 10.5 6.4 19.9 16.3 23.3 2.4.8 5 1.1 7.5 1.2l6.5-.1 12.9-.1 25.7-.3c17.2-.3 34.3-.7 51.6-1.9.7-.1 1.3-.7 1.2-1.5.1-.6-.4-1.1-1-1.2z"/><path class="st12" d="M401.8 670.6c-8.6-1.2-15.3-7.6-16.6-15.3-.5-3.4-.1-8.6-.1-13l.2-9.8h-7.5l.2 9.8c.3 4.7-.3 8.8.8 14.4 1.3 5.2 4.3 9.7 8.6 12.8 4.1 3 9.3 4.3 14.3 3.8.6-.1 1.1-.6 1.2-1.2.2-.7-.4-1.4-1.1-1.5z"/><path class="st11" d="M434.3 630.7c-1.8.5-3.7.7-5.6.7h-5.3c-28.1.1-56.4.4-84.5.7-30.4.5-60.8 1.1-91.2 2.1-.4 0-.7.3-.7.7 0 .4.3.7.7.7 30.4 1 60.8 1.6 91.2 2.1 30.4.3 60.8.7 91.2.7h.1c.2 0 .4 0 .6-.1 1.1-.1 2.2-.2 3.4-.4l.1-7.2z"/><path class="st11" d="M452.5 593.6l-2.4-61.1-.6-15.3c-.1-2.7-.1-4.8-.4-8-1.3-9.5-8.7-17-18.2-18.5-2-.3-4.1-.4-6.1-.3-.2 0-.5-.1-.7-.1l-158.6.7-9.9.1c-4.1-.2-8.1 1.2-11.2 3.9-3.1 2.7-5.1 6.5-5.4 10.7-.1 3.9.1 6.8.2 10.2l1 39.6c.6 26.4 1.5 52.9 2.5 79.2 0 .7.6 1.3 1.3 1.3.7 0 1.3-.6 1.3-1.3.1-26.4.1-52.9-.2-79.3l-.3-39.6c0-3.2-.1-6.9 0-9.6.3-2.6 1.5-4.9 3.5-6.5 2-1.7 4.6-2.5 7.2-2.2h3.9l1.6 54.9c.5 19.4 1.4 38.6 2.2 58 0 .7.6 1.3 1.4 1.3.7 0 1.3-.6 1.3-1.4 0-19.4.1-38.7-.2-58l-.6-54.7h.3l155 .5.1-.1h2.1c2.3-.1 4.7 0 7 .2 4 .7 7.6 3 9.8 6.5 1.1 1.7 1.7 3.6 2 5.6.2 1.8.2 4.9.4 7.3l.7 15.3 1.4 30.5 1.4 30.5.3 6.1c2.4-.1 4.7-.1 7.1.2l-.2-6.6z"/><path class="st11" d="M436.7 675.9c-2.8-16-4.1-31.9-5.4-48l-.8-12.1-.4-6-.1-1.5v-2c.1-1.7.8-3.4 1.9-4.8 2-2.4 4.9-3.7 8-3.8l6.1-.1 12.1-.1 12.1.1 6.1.1c3.1.1 6 1.4 8 3.8 1.1 1.3 1.8 3 1.9 4.7l.1 3.1.3 6 .5 12.1c.6 16.1 1.1 32.1.8 48.2 0 .7-.7 1.3-1.4 1.3-.6 0-1.2-.5-1.3-1.1-2.1-16-3.4-32-4.7-48l-.9-12-.4-6-.2-2.9c0-.3-.2-.6-.4-.8-.7-.7-1.7-1.1-2.7-1.1l-5.9.1-12.1.1-12.1-.1h-5.9c-1 0-2 .4-2.7 1.1-.2.2-.3.5-.4.7v1l.1 1.5.3 6 .6 12.1c.4 16.1 1 32.1 0 48.3 0 .4-.4.6-.7.6-.1 0-.3-.2-.4-.5z"/><path class="st1" d="M474 657.2l-2.5-44.3h-26.2l2.5 44.2z"/><path class="st0" d="M395.1 701h36.2"/><path class="st12" d="M395.1 700.3c2.8-1.6 5.9-2.5 9.1-2.7 3-.3 6-.4 9.1-.4 3 .1 6 .3 9.1.5 3.1.3 6.1.9 9.1 2 .7.3 1.1 1.1.8 1.9-.1.4-.4.7-.8.8-2.9 1.1-6 1.7-9.1 2-3 .2-6 .4-9.1.5-3 0-6-.1-9.1-.4-3.2-.2-6.3-1.1-9.1-2.7-.4-.2-.5-.7-.3-1.1.1-.1.2-.3.3-.4zM4.4 958.1c129.5-3.7 259.2-4.5 388.7-5.4l388.7-.9c259.2.8 518.4.4 777.5 4.9 1.5.1 2.6 1.4 2.5 2.8-.1 1.4-1.2 2.4-2.5 2.5-259.2 4.6-518.4 4.1-777.5 4.9l-388.6-.9c-129.5-.9-259.2-1.7-388.7-5.4-.7 0-1.3-.6-1.3-1.3-.1-.6.5-1.2 1.2-1.2z"/><path class="st7" d="M776.4 915.9c-1.9 0-3.4-1.5-3.4-3.4 0-.3 0-.7.1-1 4.9-16 2.8-48.5.7-79.8-1-15.5-2-30-2.1-42.7 0-1.9 1.5-3.4 3.3-3.4 1.8 0 3.3 1.5 3.4 3.3.1 12.5 1.1 27 2.1 42.4 2.1 32 4.2 65.1-1 82.2-.3 1.4-1.6 2.4-3.1 2.4zM896.3 948.7c-1.7 0-3.1-1.2-3.3-2.9-.1-.8-12.1-81-20.4-160.2-.3-1.8.9-3.6 2.8-3.9 1.8-.3 3.6.9 3.9 2.8v.4c8.2 79 20.2 159.1 20.3 159.9.3 1.8-1 3.5-2.8 3.8-.2.1-.4.1-.5.1z"/><path class="st4" d="M1269.5 70.8v-6.9a6.7 6.7 0 0 1 13.4 0v7.4"/><path class="st5" d="M1042.4 215.5v-1.7c-2.7 2.1-5.7 3.6-8.9 4.5 0 0 7.5-27.2-.4-29.1-7.9-1.9-38.3 52-38.3 52l11 26.3s11.8-10.6 49.8-30c8.6-8.1 13.7-15.6 16.3-22h-29.5z"/><path class="st7" d="M1026.2 255.7c-1.9-.1-3.3-1.7-3.2-3.5.1-1.7 1.5-3.1 3.2-3.2 3.8-.1 29.9-13.8 42.7-38.1.8-1.7 2.8-2.4 4.5-1.6 1.7.8 2.4 2.8 1.6 4.5 0 .1-.1.2-.1.2-13.3 25.4-41.8 41.7-48.7 41.7zM1005.7 234.2c-1.9 0-3.4-1.5-3.3-3.4 0-1 .4-1.9 1.1-2.5 2.8-2.4 7.3-11.6 11.2-19.6 8.1-16.3 11.8-23 16.5-23.6 1.7-.2 3.4.5 4.4 1.8 4.6 5.4 3.5 18.5 2.2 26.3 2.8-1.2 6-3.1 7.8-5.5 1-1.6 3.1-2 4.6-1 1.6 1 2 3.1 1 4.6-.1.1-.1.2-.2.3-5.2 7.3-16.4 9.8-16.8 9.9-1.8.4-3.6-.8-4-2.6-.1-.5-.1-1 0-1.4 1.7-7.7 2.9-20 1.1-24.9-2.7 3.2-7.4 12.5-10.6 19-4.7 9.4-9.1 18.3-12.8 21.7-.6.6-1.4.9-2.2.9z"/><path class="st0" d="M670.7 294.2c.1.1.4.3 1.4 0 .6-.2.9-.9 1.1-2-1.1.3-2.3.5-3.4.8.1.4.5.8.9 1.2zM661.4 262.8c3.1 1.3 1.2 22.3 5.5 30.6.9-.2 1.9-.3 2.8-.5-2-3.6-2.6-12.7-3-17.9-.6-8.5-.9-13.2-4.3-14.6-5.4-2.2-12.5 3.4-17.3 13.7-3 6.3-4.4 13.3-4.3 20.3 1.2.1 2.5.2 3.7.3-1-17.8 11-34.3 16.9-31.9z"/><path class="st0" d="M670.7 294.2c.1.1.4.3 1.4 0 .6-.2.9-.9 1.1-2-1.1.3-2.3.5-3.4.8.1.4.5.8.9 1.2z"/><path class="st0" d="M670.7 294.2c.1.1.4.3 1.4 0 .6-.2.9-.9 1.1-2-1.1.3-2.3.5-3.4.8.1.4.5.8.9 1.2zM673.2 292.2l2.2-.6c-.8.2-1.5.4-2.2.6zM692.6 285.3l-1.1.5 1.1-.5z"/><path class="st4" d="M436.6 142.4h-32.9a6.7 6.7 0 0 0 0 13.4h32.9a6.7 6.7 0 0 0 0-13.4zM502.4 142.4h-32.9a6.7 6.7 0 0 0 0 13.4h32.9a6.7 6.7 0 0 0 0-13.4zM831.6 142.4h-32.9a6.7 6.7 0 0 0 0 13.4h32.9a6.7 6.7 0 0 0 0-13.4zM930.3 142.4a6.7 6.7 0 0 0 0 13.4h8v-13.4h-8zM897.4 136.8h-32.9a6.7 6.7 0 0 0 0 13.4h32.9a6.7 6.7 0 0 0 0-13.4zM568.2 142.4h-32.9a6.7 6.7 0 0 0 0 13.4h27.3c2.2-4.6 4.7-9 7.6-13.1-.6-.2-1.3-.3-2-.3zM765.7 142.4h-32.9c-.7 0-1.4.1-2.1.3 2.9 4.2 5.4 8.6 7.6 13.1h27.4a6.7 6.7 0 0 0 0-13.4z"/><path class="st0" d="M670.7 294.2c.1.1.4.3 1.4 0 .6-.2.9-.9 1.1-2-1.1.3-2.3.5-3.4.8.1.4.5.8.9 1.2z"/><path class="st7" d="M675.4 291.6l-2.2.6c-.2 1-.5 1.8-1.1 2-.9.3-1.2.1-1.4 0-.4-.3-.8-.7-1-1.2-2-3.6-2.6-12.7-3-17.9-.6-8.5-.9-13.2-4.3-14.6-5.4-2.2-12.5 3.4-17.3 13.7-3 6.3-4.4 13.3-4.3 20.3.4 12.5 6.6 25.4 23.3 34 .5.2 1 .4 1.6.4 1.9 0 3.4-1.5 3.3-3.4 0-1.2-.7-2.4-1.8-2.9-23.9-12.5-20.4-32.7-17.8-40.9 2.9-9 7.7-13.8 9.8-14.7.4 2.9.7 5.8.9 8.7.6 9.6 1.4 20.5 6.9 24.2 2.1 1.4 4.8 1.7 7.2.8 4.9-1.6 5.9-5.4 5.8-10.2-.6.2-1.6.5-2.6.8l-1 .3h-1z"/><path class="st7" d="M676.3 291.4l1-.3-1.9.5.9-.2zM690.3 286.3l-.6.3c-1.2.6-2.6 1.1-3.3 1.4 3.2 7.6 4.8 15.8 4.6 24 0 1.9 1.5 3.4 3.3 3.4 1.8 0 3.3-1.5 3.4-3.3.1-9.2-1.6-18.3-5.2-26.7l-1.1.5-1.1.4z"/><path class="st7" d="M691.4 285.8l-1.7.8.6-.3 1.1-.5z"/><path class="st6" d="M791.7 792.5c-11.4 0-21.7-1.4-27.1-5.6-2.8-2-4.5-5.1-4.7-8.6-.2-3-.6-7.4-1-12.9-3-34-10-113.8 4.4-204.5.3-1.8 2.1-3 3.9-2.7 1.7.3 2.9 1.9 2.7 3.7-14.2 89.8-7.2 169-4.2 202.8.5 5.7.9 10.1 1.1 13.1.1 1.5.9 2.8 2.1 3.6 11.6 8.9 57.8 1.6 74.7-1.9 1.8-.3 3.6.9 3.9 2.8.3 1.7-.8 3.4-2.5 3.8-4.6 1-31.2 6.4-53.3 6.4zM887.6 787.5c-12.4 0-22.9-1.1-27.5-4.2-10.4-6.9-8.4-101.3-7-141.5 0-1.8 1.3-3.2 3.1-3.3h.4c1.9.1 3.3 1.6 3.2 3.5-2.1 62.2-1.1 129.9 4.2 135.9 9.2 6.1 58.1 1.8 88.7-2.6l-5.8-102.1c-.1-1.8 1.3-3.4 3.2-3.5 1.8-.2 3.3 1.1 3.5 2.8v.3l6 105.1c.1 1.7-1.1 3.2-2.9 3.5-5.7.9-42 6.1-69.1 6.1zM945.5 621.4c-1.7 0-3.2-1.3-3.3-3.1l-7.2-88.4c-.1-1.8 1.2-3.5 3.1-3.6 1.9-.1 3.5 1.2 3.6 3.1l7.2 88.4c.1 1.8-1.2 3.5-3.1 3.6h-.3z"/><path class="st9" d="M1035.1 260.9l-32.2-33.4c-15.8 31.5-62.6 78.4-97.9 87.2-.8-.3-1.6-.6-2.5-1-11.4-4.2-76.4-8.6-91.8-2-10 4.2-16.9 7.5-21.5 11.8-30.6 24.1-49.9 44.8-49.9 44.8l-37.5-58.5-33.4 23.9s28.6 105.1 72.9 102.7c14.5-.9 28.7-4.7 41.7-11.3l3.7 105.6 148.1-2.6-3.6-151.3c55-27.8 103.9-115.9 103.9-115.9z"/><path class="st7" d="M779.8 534.6c-1.9-.1-3.3-1.7-3.2-3.5.1-1.7 1.5-3.1 3.2-3.2l158.5-1.6c1.8-.1 3.3 1.3 3.4 3.1v.3c0 1.9-1.5 3.4-3.3 3.4l-158.6 1.5zM755.2 438.3c-1.9 0-3.4-1.5-3.4-3.4 0-1.3.8-2.5 2-3.1l28.9-13c1.6-.9 3.7-.2 4.5 1.4.9 1.6.2 3.7-1.4 4.5-.1.1-.2.1-.3.2l-28.9 13c-.5.3-.9.4-1.4.4z"/><path class="st11" d="M608.7 728.7h-.5l-96.3 1.5-97.2 1-195.5.8c-2.1 0-3.7-1.6-3.7-3.7l-.1-54.6c0-2.1 1.7-3.8 3.8-3.8l194.2.4 194.2 1.4c1 0 1.9.9 1.9 1.9l-.8 55.1zm-1.9-.9v-.5l-1-53.7 1.9 1.9-194.2 1.5-194.2.4 3.8-3.8-.1 54.6-3.7-3.7 193 .8 97 1 97.5 1.5z"/><path class="st0" d="M219.2 708.2v238.3"/><path class="st11" d="M219.9 708.2c1.8 19.9 2.2 39.7 2.7 59.6l.4 59.6c-.4 39.7-.2 79.4-2.5 119.2-.1.7-.7 1.3-1.5 1.2-.7-.1-1.2-.6-1.2-1.2-2.3-39.7-2.1-79.4-2.4-119.2l.4-59.6c.5-19.9.8-39.7 2.7-59.6 0-.4.3-.7.7-.7.4 0 .7.3.7.7z"/><path class="st0" d="M607.7 728.3v218.2"/><path class="st11" d="M608.4 728.3c1.9 18.2 2.2 36.3 2.7 54.6l.4 54.6c-.4 36.3-.2 72.8-2.4 109.1-.1.7-.7 1.3-1.5 1.2-.7-.1-1.2-.6-1.2-1.2-2.3-36.3-2.1-72.8-2.5-109.1l.4-54.6c.5-18.2.9-36.3 2.7-54.6 0-.4.3-.7.7-.7.4 0 .7.3.7.7z"/></svg>