<svg id="Layer_1" xmlns="http://www.w3.org/2000/svg" viewBox="0 0 250 157"><style>.st0{fill:#6F93AD;} .st1{fill:#6f93ad;} .st2{fill:#204A69;} .st3{fill:#D9A2DC;} .st4{fill:#C879CC;} .st5{fill:#FFFFFF;} .st6{fill:#FCD56E;} .st7{fill:#FBC239;} .st8{fill:#969CA1;}</style><path class="st0" d="M73.8 69.1c-1.4-1-2-2.3-2.7-3.6L69 61.6c-.7-1.3-1.3-2.7-1.9-4-.6-1.4-1.3-2.7-1.3-4.4 0-.2.1-.3.3-.3.1 0 .1 0 .2.1 1.4 1 2 2.3 2.7 3.6l2.1 3.9c.6 1.3 1.3 2.7 1.9 4 .6 1.4 1.3 2.7 1.3 4.4 0 .2-.1.3-.3.3-.1-.1-.1-.1-.2-.1zM67.3 47.2c-1.6-1.5-2.5-3.4-3.5-5.2-1-1.8-1.9-3.7-2.8-5.5-.9-1.9-1.8-3.7-2.6-5.6-.8-1.9-1.8-3.7-2-5.9 0-.1.1-.3.2-.3s.2 0 .2.1c1.6 1.5 2.5 3.4 3.5 5.2 1 1.8 1.9 3.7 2.8 5.5.9 1.9 1.8 3.7 2.6 5.6.8 1.9 1.8 3.7 2 5.9 0 .1-.1.3-.2.3 0-.1-.1-.1-.2-.1z"/><path class="st1" d="M72.8 40.9c-.9-1.2-.9-2.5-1.1-3.7-.2-1.3-.3-2.5-.4-3.8-.1-1.3-.1-2.5-.1-3.8 0-1.3-.2-2.5.5-3.8.1-.1.3-.2.4-.1l.1.1c.9 1.2.9 2.5 1.1 3.7.2 1.3.3 2.5.4 3.8.1 1.3.1 2.5.1 3.8 0 1.3.2 2.5-.5 3.8-.1.2-.3.2-.5 0 0 .1 0 .1 0 0z"/><path class="st0" d="M80.2 67.7c-.4-2.2 0-4.2.3-6.2s.6-4.1 1-6.1.8-4.1 1.2-6.1c.4-2 .7-4.1 1.9-6 .1-.1.2-.2.4-.1.1 0 .1.1.1.2.4 2.2 0 4.2-.3 6.2s-.6 4.1-1 6.1-.8 4.1-1.2 6.1c-.4 2-.7 4.1-1.9 6-.1.1-.2.2-.4.1-.1-.1-.1-.2-.1-.2zM83 34.3c-.6-1.4-.3-2.7-.1-4 .2-1.3.4-2.6.6-3.8.3-1.3.5-2.5.8-3.8.3-1.3.5-2.5 1.5-3.7.1-.1.3-.1.4 0l.1.1c.6 1.4.3 2.7.1 4-.2 1.3-.4 2.6-.6 3.8-.3 1.3-.5 2.5-.8 3.8-.3 1.3-.5 2.5-1.5 3.7-.1.1-.3.1-.4 0 0 0-.1 0-.1-.1zM93.3 39.5c-.3-1.6.2-2.9.6-4.3.4-1.4.8-2.7 1.2-4.1.5-1.3.9-2.7 1.5-4 .5-1.3.9-2.7 2.1-3.8.1-.1.3-.1.4 0l.1.1c.3 1.6-.2 2.9-.6 4.3-.4 1.4-.8 2.7-1.2 4.1-.5 1.3-.9 2.7-1.5 4-.5 1.3-.9 2.7-2.1 3.8-.1.1-.3.1-.4 0-.1 0-.1 0-.1-.1zM106.8 45.7c-.2-1.3.4-2.2.9-3.1.5-.9 1-1.9 1.5-2.8.5-.9 1.1-1.8 1.7-2.7.6-.9 1.1-1.8 2.3-2.3.2-.1.3 0 .4.2v.1c.2 1.3-.4 2.2-.9 3.1-.5.9-1 1.9-1.5 2.8-.5.9-1.1 1.8-1.7 2.7-.6.9-1.1 1.8-2.3 2.3-.1 0-.3-.1-.4-.3zM92.4 59.3c.1-1.7.9-2.9 1.6-4.2.7-1.3 1.4-2.6 2.2-3.9.8-1.3 1.5-2.5 2.4-3.8.8-1.2 1.5-2.5 3-3.4.1-.1.3 0 .4.1v.2c-.1 1.7-.9 2.9-1.6 4.2-.7 1.3-1.4 2.6-2.2 3.9-.8 1.3-1.5 2.5-2.4 3.8-.8 1.2-1.5 2.5-3 3.4-.1.1-.3 0-.4-.1.1-.1 0-.2 0-.2zM85.4 73.2c.4-1.5 1.5-2.4 2.4-3.4.9-1 1.9-1.9 2.9-2.9 1-.9 2-1.8 3.1-2.7 1-.9 2-1.8 3.5-2.2.2 0 .3.1.3.2v.1c-.4 1.5-1.5 2.4-2.4 3.4-.9 1-1.9 1.9-2.9 2.9-1 .9-2 1.8-3.1 2.7-1 .9-2 1.8-3.5 2.2-.2 0-.3-.1-.3-.2v-.1zM112.3 71c.7-1.2 1.7-1.5 2.6-2 1-.5 1.9-.9 2.9-1.4l3-1.2c1-.4 2-.8 3.3-.5.2 0 .3.2.2.4v.1c-.7 1.2-1.7 1.5-2.6 2-1 .5-1.9.9-2.9 1.4l-3 1.2c-1 .4-2 .8-3.3.5-.1-.1-.2-.3-.2-.5zM115.3 80.5c1.6-.7 3.2-.5 4.8-.5 1.6 0 3.2.1 4.8.2 1.6.1 3.2.2 4.8.4 1.6.2 3.2.2 4.7 1.1.1.1.2.3.1.4 0 .1-.1.1-.1.1-1.6.7-3.2.5-4.8.5-1.6 0-3.2-.1-4.8-.2-1.6-.1-3.2-.2-4.8-.4-1.6-.2-3.2-.2-4.7-1.1-.1-.1-.2-.2-.1-.4 0-.1.1-.1.1-.1zM85.4 78.1c1.4-.7 2.7-.5 4-.4 1.3 0 2.7.2 4 .3 1.3.2 2.6.3 4 .5 1.3.2 2.6.3 3.9 1.2.1.1.2.3.1.4l-.1.1c-1.4.7-2.7.5-4 .4-1.3 0-2.7-.2-4-.3-1.3-.2-2.6-.3-4-.5-1.3-.2-2.6-.3-3.9-1.2-.1-.1-.2-.3-.1-.4.1 0 .1-.1.1-.1zM99.3 68.2c.9-1.4 2.3-2.1 3.6-2.9 1.3-.8 2.6-1.5 3.9-2.2 1.3-.7 2.7-1.4 4-2 1.4-.6 2.7-1.4 4.4-1.4.2 0 .3.1.3.3v.2c-.9 1.4-2.3 2.1-3.6 2.9-1.3.8-2.6 1.5-3.9 2.2-1.3.7-2.7 1.4-4 2-1.4.6-2.7 1.4-4.4 1.4-.2 0-.3-.1-.3-.3-.1-.1-.1-.1 0-.2zM83.5 81.5c1.7.1 2.9.9 4.2 1.6 1.3.7 2.6 1.5 3.8 2.2 1.2.8 2.5 1.6 3.7 2.4 1.2.8 2.5 1.5 3.4 3 .1.1 0 .3-.1.4h-.2c-1.7-.1-2.9-.9-4.2-1.6-1.3-.7-2.6-1.5-3.8-2.2-1.2-.8-2.5-1.6-3.7-2.4-1.2-.8-2.5-1.5-3.4-3-.1-.1 0-.3.1-.4h.2zM113.8 89.4c1.3-.5 2.5-.1 3.6.2 1.1.2 2.3.5 3.4.8 1.1.3 2.2.7 3.4 1.1 1.1.4 2.3.6 3.2 1.7.1.1.1.3 0 .4 0 0-.1 0-.1.1-1.3.5-2.5.1-3.6-.2-1.1-.2-2.3-.5-3.4-.8-1.1-.3-2.2-.7-3.4-1.1-1.1-.4-2.3-.6-3.2-1.7-.1-.1-.1-.3.1-.5 0 .1 0 0 0 0zM106.1 92.7c2.5.6 4.5 1.9 6.6 3l6.3 3.6c2.1 1.3 4.1 2.5 6.2 3.8 2 1.3 4.1 2.5 5.8 4.4.1.1.1.3 0 .4-.1.1-.2.1-.2.1-2.5-.6-4.5-1.9-6.6-3l-6.3-3.6c-2.1-1.3-4.1-2.5-6.2-3.8-2-1.3-4.1-2.5-5.8-4.4-.1-.1-.1-.3 0-.4.1-.1.2-.1.2-.1zM114.3 105.1c1.5.2 2.3 1 3.3 1.8 1 .7 1.9 1.5 2.9 2.3.9.8 1.8 1.6 2.7 2.5.9.9 1.9 1.6 2.3 3 0 .2 0 .3-.2.4h-.1c-1.5-.2-2.3-1-3.3-1.8-1-.7-1.9-1.5-2.9-2.3-.9-.8-1.8-1.6-2.7-2.5-.9-.9-1.9-1.6-2.3-3 0-.2 0-.3.2-.4h.1zM89.7 92.5c1.3.4 1.8 1.3 2.5 2.1s1.3 1.7 1.9 2.5l1.8 2.7c.6.9 1.2 1.7 1.2 3.1 0 .2-.2.3-.3.3h-.1c-1.3-.4-1.8-1.3-2.5-2.1s-1.3-1.7-1.9-2.5l-1.8-2.7c-.6-.9-1.2-1.7-1.2-3.1 0-.2.1-.3.4-.3-.1 0-.1 0 0 0zM98.3 109.8c1.3.9 1.8 2.2 2.4 3.4.6 1.2 1.2 2.5 1.8 3.7.5 1.3 1.1 2.5 1.6 3.8.5 1.3 1.1 2.5.9 4.1 0 .2-.2.3-.3.3-.1 0-.1 0-.1-.1-1.3-.9-1.8-2.2-2.4-3.4-.6-1.2-1.2-2.5-1.8-3.7-.5-1.3-1.1-2.5-1.6-3.8-.5-1.3-1.1-2.5-.9-4.1 0-.2.2-.3.3-.3 0 .1 0 .1.1.1zM85.3 103.2c1 1.8 1.2 3.6 1.4 5.4.3 1.8.5 3.7.7 5.5.2 1.8.4 3.7.5 5.6.1 1.9.4 3.7-.2 5.6 0 .1-.2.2-.3.2-.1 0-.1-.1-.2-.1-1-1.8-1.2-3.6-1.4-5.4-.3-1.8-.5-3.7-.7-5.5-.2-1.8-.4-3.7-.5-5.6-.1-1.9-.4-3.7.2-5.6 0-.1.2-.2.3-.2.2 0 .2.1.2.1zM79.8 85.2c.8 1.2.7 2.4.7 3.6v3.5c0 1.2-.1 2.4-.2 3.5-.1 1.2-.1 2.4-.9 3.5-.1.1-.3.2-.4.1l-.1-.1c-.8-1.2-.7-2.4-.7-3.6v-3.5c0-1.2.1-2.4.2-3.5.1-1.2.1-2.4.9-3.5.1-.2.3-.2.5 0 0-.1 0-.1 0 0zM77.8 116.4c.8.9.7 1.8.7 2.7 0 .9.1 1.8 0 2.6 0 .9-.1 1.8-.2 2.6-.1.9-.1 1.8-.9 2.6-.1.1-.3.1-.5 0-.8-.9-.7-1.8-.7-2.7 0-.9-.1-1.8 0-2.6 0-.9.1-1.8.2-2.6.1-.9.1-1.8.9-2.6.1-.1.3-.1.5 0zM73.6 103.9c.3 1.8-.3 3.3-.7 4.9-.4 1.6-.9 3.1-1.4 4.7-.5 1.5-1 3.1-1.6 4.6-.6 1.5-1 3.1-2.3 4.4-.1.1-.3.1-.4 0 0 0-.1-.1-.1-.2-.3-1.8.3-3.3.7-4.9.4-1.6.9-3.1 1.4-4.7.5-1.5 1-3.1 1.6-4.6.6-1.5 1-3.1 2.3-4.4.1-.1.3-.1.4 0 .1.1.1.1.1.2zM74.1 85c.2 1.4-.4 2.3-.9 3.4l-1.5 3c-.5 1-1.1 2-1.7 2.9-.6 1-1.1 2-2.4 2.6-.2.1-.3 0-.4-.1v-.1c-.2-1.4.4-2.3.9-3.4l1.5-3c.5-1 1.1-2 1.7-2.9.6-1 1.1-2 2.4-2.6.1-.1.3 0 .4.2zM62.2 105.7c-.2 2.3-1.2 4.2-2.1 6.1-.9 1.9-1.8 3.9-2.7 5.8-1 1.9-1.9 3.8-3 5.7-1 1.9-1.9 3.8-3.6 5.4-.1.1-.3.1-.4 0-.1-.1-.1-.1-.1-.2.2-2.3 1.2-4.2 2.1-6.1.9-1.9 1.8-3.9 2.7-5.8 1-1.9 1.9-3.8 3-5.7 1-1.9 1.9-3.8 3.6-5.4.1-.1.3-.1.4 0 .1 0 .1.1.1.2zM54.3 101.2c-.1 1.4-.9 2.2-1.6 3.1-.7.9-1.4 1.8-2.1 2.6-.7.9-1.5 1.7-2.3 2.5-.8.8-1.5 1.7-2.8 2-.2 0-.3-.1-.4-.2v-.1c.1-1.4.9-2.2 1.6-3.1.7-.9 1.4-1.8 2.1-2.6.7-.9 1.5-1.7 2.3-2.5.8-.8 1.5-1.7 2.8-2 .2-.1.4 0 .4.3 0-.1 0-.1 0 0zM64.2 84c-.8 1.3-2 1.7-3.1 2.3-1 .7-2.1 1.2-3.3 1.7-1.1.5-2.3 1-3.4 1.5-1.2.5-2.3 1-3.7.8-.2 0-.3-.2-.3-.3v-.1c.8-1.3 2-1.7 3.1-2.3 1.1-.6 2.2-1.2 3.3-1.7 1.1-.5 2.3-1 3.4-1.5 1.2-.5 2.3-1 3.7-.8.2 0 .3.2.3.3.1.1 0 .1 0 .1zM46.7 93c-1.4 1.5-3.1 2.2-4.8 3.1l-5.1 2.4c-1.7.8-3.5 1.5-5.2 2.2-1.7.7-3.4 1.5-5.5 1.6-.2 0-.3-.1-.3-.3 0-.1 0-.1.1-.2 1.4-1.5 3.1-2.2 4.8-3.1l5.1-2.4c1.7-.8 3.5-1.5 5.2-2.2 1.7-.7 3.4-1.5 5.5-1.6.2 0 .3.1.3.3 0 .1 0 .1-.1.2zM46.3 83.2c-2.1 1.4-4.3 1.9-6.6 2.6-2.2.7-4.5 1.3-6.8 1.9-2.3.6-4.5 1.1-6.8 1.7-2.3.5-4.5 1.2-7 1-.1 0-.3-.1-.2-.3 0-.1.1-.2.1-.2 2.1-1.4 4.3-1.9 6.6-2.6 2.2-.7 4.5-1.3 6.8-1.9 2.3-.6 4.5-1.1 6.8-1.7 2.3-.5 4.5-1.2 7-1 .1 0 .3.1.2.3 0 .1 0 .2-.1.2zM45.5 74.5c-1.4.7-2.6.5-3.9.5-1.3 0-2.6-.1-3.9-.2-1.3-.1-2.6-.3-3.8-.5-1.3-.2-2.6-.2-3.8-1.2-.1-.1-.2-.3-.1-.4l.1-.1c1.4-.7 2.6-.5 3.9-.5 1.3 0 2.6.1 3.9.2 1.3.1 2.6.3 3.8.5 1.3.2 2.6.2 3.8 1.2.1.1.2.3.1.4-.1 0-.1.1-.1.1zM69 78.4c-1.5.6-2.9.4-4.4.3-1.4-.1-2.9-.2-4.3-.4l-4.2-.6c-1.4-.2-2.8-.3-4.2-1.3-.1-.1-.2-.3-.1-.4l.1-.1c1.5-.6 2.9-.4 4.4-.3 1.4.1 2.9.2 4.3.4l4.2.6c1.4.2 2.8.3 4.2 1.3.1.1.2.3.1.4l-.1.1zM69.4 72.8c-1.9-.2-3.4-1.1-4.9-1.9-1.5-.8-3.1-1.7-4.6-2.6-1.5-.9-3-1.8-4.5-2.8-1.5-.9-3-1.8-4.1-3.4-.1-.1-.1-.3.1-.4.1 0 .1-.1.2 0 1.9.2 3.4 1.1 4.9 1.9 1.5.8 3.1 1.7 4.6 2.6 1.5.9 3 1.8 4.5 2.8 1.5.9 3 1.8 4.1 3.4.1.1.1.3-.1.4-.1-.1-.2 0-.2 0zM40.8 64.7c-1.8.2-3.2-.5-4.7-1s-3-1.1-4.4-1.7c-1.5-.6-2.9-1.2-4.4-1.9-1.4-.7-2.9-1.2-4.1-2.5-.1-.1-.1-.3 0-.4 0 0 .1-.1.2-.1 1.8-.2 3.2.5 4.7 1s3 1.1 4.4 1.7c1.5.6 2.9 1.2 4.4 1.9 1.4.7 2.9 1.2 4.1 2.5.1.1.1.3 0 .4-.1 0-.1.1-.2.1zM47.8 59.4c-1.8-.4-3.2-1.4-4.6-2.3-1.4-.9-2.8-1.9-4.1-2.9-1.3-1-2.7-2-4-3-1.3-1-2.7-2-3.6-3.6-.1-.1 0-.3.1-.4h.2c1.8.3 3.1 1.4 4.5 2.3 1.4.9 2.8 1.9 4.1 2.9 1.3 1 2.7 2 4 3 1.3 1 2.7 2 3.6 3.6.1.1 0 .3-.1.4h-.1zM62.4 58.6c-1.6-1-2.4-2.5-3.4-3.9s-1.9-2.8-2.8-4.3c-.9-1.5-1.8-2.9-2.6-4.4-.8-1.5-1.8-2.9-2-4.8 0-.2.1-.3.2-.3h.2c1.6 1 2.4 2.5 3.4 3.9s1.9 2.8 2.8 4.3c.9 1.5 1.8 2.9 2.6 4.4.8 1.5 1.8 2.9 2 4.8 0 .2-.1.3-.2.3h-.2z"/><path class="st2" d="M138.7 31.1c-.7-1.1-.6-2.1-.6-3.1s.1-2 .1-3c.1-1 .2-2 .4-3s.2-2 1.1-3c.1-.1.3-.1.5 0v.1c.7 1.1.6 2.1.6 3.1s-.1 2-.1 3c-.1 1-.2 2-.4 3s-.2 2-1.1 3c-.2 0-.4 0-.5-.1zM142.8 25.1c-.2-1.6.5-2.9 1-4.3.5-1.3 1.1-2.7 1.6-4 .6-1.3 1.2-2.6 1.9-3.9.7-1.3 1.2-2.6 2.5-3.6.1-.1.3-.1.4.1 0 0 0 .1.1.1.2 1.6-.5 2.9-1 4.3-.5 1.3-1.1 2.7-1.6 4-.6 1.3-1.2 2.6-1.9 3.9-.7 1.3-1.2 2.6-2.5 3.6-.1.1-.3.1-.4-.1l-.1-.1zM143.9 30.6c.7-1.7 1.9-2.7 3.1-3.9 1.2-1.2 2.4-2.3 3.6-3.4 1.2-1.1 2.5-2.2 3.7-3.2 1.3-1 2.4-2.2 4.2-2.7.1 0 .3 0 .3.2v.2c-.7 1.7-1.9 2.7-3.1 3.9-1.2 1.2-2.4 2.3-3.6 3.4-1.2 1.1-2.5 2.2-3.7 3.2-1.3 1-2.4 2.2-4.2 2.7-.1 0-.3 0-.3-.2v-.2zM154.2 15.8c-.2-1.2.4-1.9.8-2.7.4-.8.9-1.5 1.4-2.3.5-.7 1-1.4 1.6-2.1.5-.7 1-1.5 2.1-1.8.2 0 .4.1.4.2.2 1.2-.4 1.9-.8 2.7-.4.8-.9 1.5-1.4 2.3-.5.7-1 1.4-1.6 2.1-.5.7-1 1.5-2.1 1.8-.2.1-.4 0-.4-.2zM167 25.4c.4-1 1.1-1.2 1.7-1.6.6-.3 1.3-.6 2-.9.7-.3 1.3-.5 2-.7.7-.2 1.3-.5 2.3-.1.2.1.3.3.2.5-.4 1-1.1 1.2-1.7 1.6-.6.3-1.3.6-2 .9-.7.3-1.3.5-2 .7-.7.2-1.3.5-2.3.1-.2-.1-.3-.3-.2-.5zM152.4 32.6c.6-1.1 1.6-1.4 2.5-1.9.9-.4 1.8-.9 2.8-1.2.9-.4 1.9-.7 2.9-1 1-.3 1.9-.7 3.1-.4.2.1.3.2.2.4v.1c-.6 1.1-1.6 1.4-2.5 1.9-.9.4-1.8.9-2.8 1.2-.9.4-1.9.7-2.9 1-1 .3-1.9.7-3.1.4-.2 0-.3-.2-.2-.5 0 .1 0 .1 0 0zM164.5 35.1c.8-.8 1.6-.8 2.4-.9.8-.1 1.6-.1 2.5-.2.8 0 1.6 0 2.5.1.8.1 1.6 0 2.5.8.1.1.1.4 0 .5-.8.8-1.6.8-2.4.9-.8.1-1.6.1-2.5.2-.8 0-1.6 0-2.5-.1-.8-.1-1.6 0-2.5-.8-.1-.1-.1-.3 0-.5zM145 37.5c1.1-.4 1.9 0 2.8.3.8.3 1.7.6 2.5 1l2.4 1.2c.8.4 1.6.7 2.1 1.8.1.2 0 .4-.2.4-1.1.4-1.9 0-2.8-.3-.8-.3-1.7-.6-2.5-1l-2.4-1.2c-.8-.4-1.6-.7-2.1-1.8 0-.1 0-.3.2-.4 0 .1 0 0 0 0zM141 40.1c1.1.6 1.4 1.6 1.8 2.5.4.9.8 1.8 1.2 2.8.4.9.7 1.9 1 2.9.3 1 .7 1.9.3 3.1-.1.2-.2.3-.4.2h-.1c-1.1-.6-1.4-1.6-1.8-2.5-.4-.9-.8-1.8-1.2-2.8-.4-.9-.7-1.9-1-2.9-.3-1-.7-1.9-.3-3.1.1-.2.3-.3.5-.2z"/><path class="st3" d="M149.9 45.8l8.1 11.9"/><path class="st2" d="M150.1 45.6c1.3.5 2 1.6 2.7 2.5.7 1 1.4 1.9 2.1 2.9.7 1 1.3 2 1.9 3.1.6 1 1.3 2 1.4 3.4 0 .2-.1.3-.3.3h-.1c-1.3-.5-2-1.6-2.7-2.5-.7-1-1.4-1.9-2.1-2.9-.7-1-1.3-2-1.9-3.1-.6-1-1.3-2-1.4-3.4 0-.2.1-.3.3-.3h.1zM135.9 41.7c.4 1.1 0 1.8-.2 2.5-.3.8-.5 1.5-.8 2.3-.3.7-.7 1.5-1.1 2.2-.4.7-.6 1.5-1.7 1.9-.2.1-.4 0-.5-.2-.4-1.1 0-1.8.2-2.5.3-.8.5-1.5.8-2.3.3-.7.7-1.5 1.1-2.2.4-.7.6-1.5 1.7-1.9.2-.1.4 0 .5.2z"/><path class="st0" d="M125.8 50.1c-.5 1.3-1.4 1.9-2.3 2.6-.9.7-1.8 1.4-2.7 2-.9.6-1.9 1.2-2.8 1.8-1 .6-1.8 1.3-3.2 1.2-.2 0-.3-.1-.3-.3v-.1c.5-1.3 1.4-1.9 2.3-2.6.9-.7 1.8-1.4 2.7-2 .9-.6 1.9-1.2 2.8-1.8 1-.6 1.8-1.3 3.2-1.2.2 0 .3.1.3.4 0-.1 0-.1 0 0z"/><path class="st2" d="M121.8 43.8c-.4 1.1-1.2 1.4-1.9 1.9-.7.4-1.5.9-2.3 1.2-.8.4-1.6.7-2.4 1-.8.3-1.5.8-2.7.4-.2-.1-.3-.2-.2-.4.4-1.1 1.2-1.4 1.9-1.9.7-.4 1.5-.9 2.3-1.2.8-.4 1.6-.7 2.4-1 .8-.3 1.5-.8 2.7-.4.2 0 .3.2.2.4zM133.8 37.9c-.4 1.1-1.1 1.3-1.8 1.7-.7.4-1.4.7-2.1 1-.7.3-1.4.6-2.2.8-.7.2-1.4.6-2.5.2-.2-.1-.3-.3-.2-.5.4-1.1 1.1-1.3 1.8-1.7.7-.4 1.4-.7 2.1-1 .7-.3 1.4-.6 2.2-.8.7-.2 1.4-.6 2.5-.2.2.1.3.3.2.5zM126.1 31c-1.5.4-2.8-.1-4-.4-1.3-.3-2.6-.7-3.8-1-1.3-.4-2.5-.8-3.8-1.3-1.2-.5-2.5-.8-3.6-1.9-.1-.1-.1-.3 0-.4l.1-.1c1.5-.4 2.8.1 4 .4 1.3.3 2.6.7 3.8 1 1.3.4 2.5.8 3.8 1.3 1.2.5 2.5.8 3.6 1.9.1.1.1.3 0 .4l-.1.1zM118.8 21.1c-1.2.3-1.9-.2-2.8-.6l-2.4-1.2c-.8-.4-1.6-.9-2.3-1.4-.8-.5-1.6-.9-2-2-.1-.2 0-.4.2-.4 1.2-.3 1.9.2 2.8.6l2.4 1.2c.8.4 1.6.9 2.3 1.4.8.5 1.6.9 2 2 .1.1 0 .3-.2.4.1 0 0 0 0 0zM132.4 29.3c-1.2-.4-1.8-1.3-2.4-2.1-.6-.8-1.2-1.6-1.8-2.5-.6-.9-1.1-1.7-1.6-2.6-.5-.9-1.1-1.7-1-3 0-.2.2-.3.3-.3h.1c1.2.4 1.8 1.3 2.4 2.1.6.8 1.2 1.6 1.8 2.5.6.9 1.1 1.7 1.6 2.6.5.9 1.1 1.7 1 3 0 .2-.1.3-.4.3.1 0 0 0 0 0zM126 14c-1.2-.4-1.6-1.2-2.2-1.9-.5-.7-1.1-1.5-1.6-2.3-.5-.8-.9-1.6-1.4-2.4-.4-.8-1-1.6-.8-2.8 0-.2.2-.3.4-.3 1.2.3 1.6 1.2 2.2 1.9.5.7 1.1 1.5 1.6 2.3.5.8.9 1.6 1.4 2.4.4.8 1 1.6.8 2.8 0 .2-.1.3-.4.3.1 0 .1 0 0 0zM134.5 15.1c-.8-.9-.8-1.9-.9-2.9-.1-1-.2-1.9-.2-2.9V6.4c0-1 0-1.9.7-2.9.1-.1.3-.2.5-.1.8.9.8 1.9.9 2.9.1 1 .2 1.9.2 2.9v2.9c0 1 0 1.9-.7 2.9-.2.3-.4.3-.5.1 0 .1 0 .1 0 0zM140 12.5c-.7-1.1-.5-2.2-.4-3.2.1-1 .1-2.1.2-3.1s.3-2.1.5-3.1.2-2.1 1.2-3c.1-.1.3-.1.4 0v.1c.7 1.1.5 2.2.5 3.2-.1 1-.1 2.1-.2 3.1s-.3 2.1-.5 3.1-.2 2.1-1.2 3c-.1.1-.3.1-.5-.1z"/><path class="st4" d="M206.2 69.1c.9-1.6 2.3-2.5 3.6-3.4 1.3-1 2.7-1.9 4-2.9l4.2-2.7c1.4-.9 2.7-1.8 4.6-2.1.2 0 .3.1.3.2v.2c-.9 1.6-2.3 2.5-3.6 3.4-1.3 1-2.7 1.9-4 2.9l-4.2 2.7c-1.4.9-2.7 1.8-4.6 2.1-.2 0-.3-.1-.3-.2v-.2zM183.8 82.6c.9-1.6 2.3-2.4 3.5-3.4 1.3-1 2.6-1.9 3.9-2.8 1.3-.9 2.7-1.8 4.1-2.6 1.4-.8 2.7-1.8 4.5-2 .2 0 .3.1.3.2v.2c-.9 1.6-2.3 2.4-3.5 3.4-1.3 1-2.6 1.9-3.9 2.8-1.3.9-2.7 1.8-4.1 2.6-1.4.8-2.7 1.8-4.5 2-.2 0-.3-.1-.3-.2-.1-.1-.1-.2 0-.2zM211.2 78.1c.9-1 2.1-1.2 3.1-1.5 1.1-.3 2.2-.6 3.3-.8l3.3-.6c1.1-.2 2.2-.4 3.5.1.2.1.2.3.2.4 0 0 0 .1-.1.1-.9 1-2.1 1.2-3.1 1.5-1.1.3-2.2.6-3.3.8l-3.3.6c-1.1.2-2.2.4-3.5-.1-.2 0-.2-.2-.1-.5-.1.1 0 .1 0 0zM188.7 86.4c1.7-.6 3.2-.4 4.8-.3 1.6.1 3.2.3 4.8.4 1.6.2 3.2.4 4.7.6 1.6.2 3.2.3 4.7 1.3.1.1.2.3.1.4 0 .1-.1.1-.1.1-1.7.6-3.2.4-4.8.3-1.6-.1-3.2-.3-4.8-.4-1.6-.2-3.2-.4-4.7-.6-1.6-.2-3.2-.3-4.7-1.3-.1-.1-.2-.3-.1-.4l.1-.1zM214.1 85.7c1.2-.6 2.2-.4 3.3-.3 1.1.1 2.1.2 3.2.3 1 .2 2.1.4 3.1.6 1 .2 2.1.3 3 1.3.1.1.1.3 0 .4h-.1c-1.2.6-2.2.4-3.3.3-1.1-.1-2.1-.2-3.2-.3-1-.2-2.1-.4-3.1-.6-1-.2-2.1-.3-3-1.3-.1 0-.1-.2.1-.4-.1.1-.1.1 0 0zM210 95.5c1.4-.3 2.4.2 3.6.5 1.1.4 2.2.7 3.3 1.2 1.1.4 2.2.9 3.2 1.4 1.1.5 2.2.9 3 2 .1.1.1.3-.1.4h-.1c-1.4.3-2.4-.2-3.6-.5-1.1-.4-2.2-.7-3.3-1.2-1.1-.4-2.2-.9-3.2-1.4-1.1-.5-2.2-.9-3-2-.1 0-.1-.2.2-.4-.1.1-.1.1 0 0zM192.6 94.9c1.5.1 2.4.8 3.4 1.5s2 1.3 3 2.1c1 .7 1.9 1.5 2.9 2.3.9.8 1.9 1.4 2.4 2.8.1.2 0 .3-.2.4h-.1c-1.5-.1-2.4-.8-3.4-1.5s-2-1.3-3-2.1c-1-.7-1.9-1.5-2.9-2.3-.9-.8-1.9-1.4-2.4-2.8-.1-.2 0-.3.2-.4h.1zM203.7 112.6c1.1.1 1.5.7 2 1.2s1 1.1 1.4 1.6c.5.6.9 1.2 1.3 1.8.4.6.9 1.1.7 2.2 0 .2-.2.3-.4.3-1.1-.1-1.5-.7-2-1.2s-1-1.1-1.4-1.6c-.5-.6-.9-1.2-1.3-1.8-.4-.6-.9-1.1-.7-2.2 0-.2.2-.3.4-.3zM185.3 112.1c1.1.5 1.3 1.4 1.7 2.1.4.8.7 1.6 1.1 2.4.3.8.6 1.6.8 2.5.2.8.6 1.6.2 2.7-.1.2-.3.3-.4.2-1.1-.5-1.3-1.4-1.7-2.1-.4-.8-.7-1.6-1.1-2.4-.3-.8-.6-1.6-.8-2.5-.2-.8-.6-1.6-.2-2.7 0-.2.2-.3.4-.2zM191 103.3c1.2.5 1.7 1.5 2.3 2.4.6.9 1.2 1.8 1.7 2.7.5.9 1 1.9 1.5 2.8.5 1 1.1 1.9.9 3.2 0 .2-.2.3-.4.3h-.1c-1.2-.5-1.7-1.5-2.3-2.4-.6-.9-1.2-1.8-1.7-2.7-.5-.9-1-1.9-1.5-2.8-.5-1-1.1-1.9-.9-3.2.1-.2.3-.4.5-.3zM181.4 92.1c1.1.7 1.4 1.8 1.8 2.7l1.2 3c.3 1 .7 2 .9 3 .3 1 .7 2 .3 3.3-.1.2-.2.3-.4.2h-.1c-1.1-.7-1.4-1.8-1.8-2.7l-1.2-3c-.3-1-.7-2-.9-3-.3-1-.7-2-.3-3.3.1-.2.3-.3.5-.2 0-.1 0-.1 0 0zM175.9 90.6c.2 1.4-.4 2.5-.9 3.6l-1.5 3.3c-.5 1.1-1.1 2.2-1.7 3.2-.6 1.1-1.1 2.2-2.3 2.9-.1.1-.3 0-.4-.1v-.1c-.2-1.4.4-2.5.9-3.6l1.5-3.3c.5-1.1 1.1-2.2 1.7-3.2.6-1.1 1.1-2.2 2.3-2.9.1-.1.3 0 .4.1v.1zM174.7 113.2c.5 1.1.2 2 0 3-.2.9-.4 1.9-.6 2.8-.2.9-.5 1.8-.9 2.8-.3.9-.5 1.9-1.5 2.6-.1.1-.4.1-.5-.1-.5-1.1-.2-2 0-3 .2-.9.4-1.9.6-2.8.2-.9.5-1.8.9-2.8.3-.9.5-1.9 1.5-2.6.2-.1.4-.1.5.1zM167.9 108.9c0 1.8-.8 3.3-1.4 4.8-.6 1.5-1.3 3-2 4.5s-1.5 2.9-2.2 4.4c-.8 1.4-1.4 3-2.9 4.1-.1.1-.3.1-.4 0 0-.1-.1-.1-.1-.2 0-1.8.8-3.3 1.4-4.8.6-1.5 1.3-3 2-4.5s1.5-2.9 2.2-4.4c.8-1.4 1.4-3 2.9-4.1.1-.1.3-.1.4 0 .1.1.1.1.1.2zM162 101.4c-.1 1.2-.8 1.9-1.4 2.6-.6.7-1.2 1.4-1.9 2.1-.6.7-1.3 1.3-2 2-.7.6-1.3 1.4-2.5 1.5-.2 0-.3-.1-.4-.3.1-1.2.8-1.9 1.4-2.6.6-.7 1.2-1.4 1.9-2.1.6-.7 1.3-1.3 2-2 .7-.6 1.3-1.4 2.5-1.5.3 0 .4.1.4.3zM156.4 92.5c-1.1 1.4-2.6 1.9-4 2.6-1.4.7-2.8 1.3-4.2 2-1.4.6-2.9 1.2-4.3 1.7-1.5.5-2.9 1.2-4.6 1.1-.2 0-.3-.1-.3-.3 0-.1 0-.1.1-.2 1.1-1.4 2.6-1.9 4-2.6 1.4-.7 2.8-1.3 4.2-2 1.4-.6 2.9-1.2 4.3-1.7 1.5-.5 2.9-1.2 4.6-1.1.2 0 .3.1.3.3 0 .1 0 .2-.1.2zM172.9 87c-.6 1.1-1.6 1.4-2.5 1.8-.9.4-1.8.8-2.7 1.1-.9.3-1.8.6-2.8.9-.9.3-1.8.7-3 .2-.2-.1-.3-.2-.2-.4v-.1c.6-1.1 1.6-1.4 2.5-1.8.9-.4 1.8-.8 2.7-1.1.9-.3 1.8-.6 2.8-.9.9-.3 1.8-.7 3-.2.2.1.3.3.2.5zM153.8 80.4c-1.7.4-3.2 0-4.7-.3s-3-.6-4.5-1l-4.5-1.2c-1.5-.4-3-.7-4.3-1.9-.1-.1-.1-.3 0-.4l.1-.1c1.7-.4 3.2 0 4.7.3s3 .6 4.5 1l4.5 1.2c1.5.4 3 .7 4.3 1.9.1.1.1.3 0 .4l-.1.1zM169.3 83.5c-1.1.6-2 .3-2.9.1-.9-.2-1.8-.3-2.7-.6-.9-.2-1.8-.5-2.7-.8-.9-.3-1.8-.5-2.5-1.5-.1-.2-.1-.4.1-.5 1.1-.6 2-.3 2.9-.1.9.2 1.8.3 2.7.6.9.2 1.8.5 2.7.8.9.3 1.8.5 2.5 1.5.2.1.1.3-.1.5.1 0 0 0 0 0zM150.8 70.7c-1.2.3-2-.2-2.8-.6-.8-.4-1.7-.8-2.5-1.2-.8-.4-1.6-.9-2.4-1.4-.8-.5-1.6-.9-2-2-.1-.2 0-.4.2-.4 1.2-.3 2 .2 2.8.6.8.4 1.7.8 2.5 1.2.8.4 1.6.9 2.4 1.4.8.5 1.6.9 2 2 .1.1 0 .3-.2.4zM175 78.3c-1.5-.3-2.4-1.2-3.4-2s-2-1.7-2.9-2.5c-.9-.9-1.9-1.8-2.8-2.7-.9-.9-1.9-1.7-2.3-3.2 0-.2.1-.3.2-.4h.1c1.5.3 2.4 1.2 3.4 2s2 1.7 2.9 2.5c.9.9 1.9 1.8 2.8 2.7.9.9 1.9 1.7 2.3 3.2 0 .2-.1.3-.2.4h-.1zM160.4 67.4c-1.5-.3-2.4-1.2-3.4-2.1-1-.8-1.9-1.7-2.9-2.6-.9-.9-1.8-1.8-2.7-2.8-.9-.9-1.9-1.8-2.2-3.3 0-.2.1-.3.2-.4h.1c1.5.3 2.4 1.2 3.4 2.1 1 .8 1.9 1.7 2.9 2.6.9.9 1.8 1.8 2.7 2.8.9.9 1.9 1.8 2.2 3.3 0 .2-.1.3-.2.4h-.1zM168 57c-1.4-1.1-2.1-2.5-2.8-3.9-.8-1.4-1.5-2.8-2.2-4.2-.7-1.4-1.4-2.9-2-4.3-.6-1.5-1.4-2.9-1.4-4.6 0-.2.1-.3.3-.3.1 0 .1 0 .2.1 1.4 1.1 2.1 2.5 2.8 3.9.8 1.4 1.5 2.8 2.2 4.2.7 1.4 1.4 2.9 2 4.3.6 1.5 1.4 2.9 1.4 4.6 0 .2-.1.3-.3.3-.1 0-.2 0-.2-.1zM177.1 71.8c-1.1-1-1.3-2.3-1.7-3.5-.4-1.2-.7-2.4-1-3.6-.3-1.2-.5-2.4-.8-3.7-.2-1.2-.6-2.4-.1-3.8.1-.2.2-.2.4-.2 0 0 .1 0 .1.1 1.1 1 1.3 2.3 1.7 3.5.4 1.2.7 2.4 1 3.6.3 1.2.5 2.4.8 3.7.2 1.2.6 2.4.1 3.8-.1.2-.2.2-.4.2 0-.1-.1-.1-.1-.1zM180.9 49.8c-.8-1.1-.8-2.1-.8-3.2-.1-1.1-.1-2.1-.1-3.2s0-2.1.1-3.2 0-2.1.8-3.2c.1-.1.3-.2.4-.1l.1.1c.8 1.1.8 2.1.8 3.2.1 1.1.1 2.1.1 3.2s0 2.1-.1 3.2 0 2.1-.8 3.2c-.1.1-.3.1-.5 0 .1 0 .1 0 0 0zM180.3 76c-.3-1.4.2-2.3.6-3.4.4-1 .8-2.1 1.3-3.1l1.5-3c.5-1 .9-2 2.1-2.7.1-.1.3 0 .4.1v.1c.3 1.4-.2 2.3-.6 3.4-.4 1-.8 2.1-1.3 3.1l-1.5 3c-.5 1-.9 2-2.1 2.7-.1 0-.3 0-.4-.2zM188.8 55.5c-.4-1-.1-1.5.1-2.2.2-.6.5-1.3.8-1.9.3-.6.6-1.2 1-1.8.4-.6.6-1.2 1.6-1.5.2 0 .4 0 .5.2.4 1 .1 1.5-.1 2.2-.2.6-.5 1.3-.8 1.9-.3.6-.6 1.2-1 1.8-.4.6-.6 1.2-1.6 1.5-.2.1-.4 0-.5-.2zM190.5 65.6c-.2-1.3.4-2.1.9-3 .5-.9.9-1.7 1.5-2.6.5-.8 1.1-1.7 1.7-2.5.6-.8 1-1.7 2.2-2.1.2-.1.4 0 .4.2v.1c.2 1.3-.4 2.1-.9 3-.5.9-.9 1.7-1.5 2.6-.5.8-1.1 1.7-1.7 2.5-.6.8-1 1.7-2.2 2.1-.2 0-.3-.1-.4-.3zM201 57.1c.3-1.4 1.1-2.2 1.9-3 .8-.9 1.6-1.7 2.4-2.5.8-.8 1.7-1.6 2.6-2.4.9-.8 1.7-1.6 3.1-1.9.2 0 .3.1.4.2v.1c-.3 1.4-1.1 2.2-1.9 3-.8.9-1.6 1.7-2.4 2.5-.8.8-1.7 1.6-2.6 2.4-.9.8-1.7 1.6-3.1 1.9-.2 0-.3-.1-.4-.2v-.1z"/><path class="st5" d="M230.9 50.7l-2.1-4.4"/><path class="st6" d="M230.7 50.7c-.6-.2-.7-.5-1-.9-.2-.3-.4-.7-.6-1.1-.2-.4-.3-.7-.5-1.1-.1-.4-.3-.7-.1-1.3l.3-.1c.6.2.7.5 1 .9.2.3.4.7.6 1.1.2.4.3.7.5 1.1.1.4.3.7.1 1.3l-.3.1z"/><path class="st5" d="M227.6 49.5l4.4-2.1"/><path class="st6" d="M227.6 49.4c.2-.6.5-.7.9-1 .3-.2.7-.4 1.1-.6.4-.2.7-.3 1.1-.5.4-.1.7-.3 1.3-.1l.1.3c-.2.6-.5.7-.9 1-.3.2-.7.4-1.1.6-.4.2-.7.3-1.1.5-.4.1-.7.3-1.3.1l-.1-.3z"/><path class="st2" d="M4.9 106.7l.9-1.7c.1-.3-.2-.6-.5-.5l-1.7 1-1.5-1.4c-.2-.2-.6 0-.6.3l.4 2-1.7.9c-.3.2-.2.6.1.6l1.9.2.4 2.1c.1.3.5.4.7.1l.8-1.9 2.1.3c.3 0 .5-.4.3-.6l-1.6-1.4z"/><path class="st7" d="M81.9 4.8l.7-1.3c.1-.2-.1-.5-.4-.3l-1.3.7-1.1-1c-.2-.2-.5 0-.4.2l.3 1.5-1.3.7c-.2.1-.2.5.1.5l1.4.1.3 1.6c0 .3.4.3.5.1l.6-1.5 1.6.2c.3 0 .4-.3.2-.5l-1.2-1z"/><path class="st8" d="M243.7 57.3l.9-1.8c.2-.3-.2-.6-.5-.5l-1.8 1-1.5-1.4c-.3-.2-.6 0-.6.3l.4 2-1.7 1c-.3.2-.2.6.1.7l1.9.2.4 2.1c.1.3.5.4.7.1l.9-2 2.1.3c.3 0 .5-.4.3-.6l-1.6-1.4z"/><path class="st2" d="M197.5 5.6l1.6-3.3c.3-.6-.3-1.2-.9-.8L195 3.3 192.2.8c-.5-.4-1.2 0-1.1.6l.7 3.7-3.2 1.8c-.6.3-.4 1.1.3 1.2l3.5.3.7 3.9c.1.6 1 .7 1.2.1l1.6-3.6 3.9.5c.6.1 1-.7.5-1.1l-2.8-2.6zM141.1 152.5c0-1.1.2-2.3.3-3.4.3-1.9.7-3.8 1.3-5.7.6-1.9 1.3-3.7 2.1-5.5.8-1.8 1.7-3.5 2.8-5.2 2.1-3.3 4.6-6.4 7.7-8.9l-.2-.2c-3.3 2.2-6.1 5.3-8.3 8.6-2.2 3.3-3.9 7-5.1 10.9-.6 1.9-1.1 3.9-1.4 5.9-.2 1.2-.3 2.4-.4 3.6h1.2z"/><circle class="st3" cx="248.5" cy="110.9" r="1.5"/><path class="st2" d="M128.8 148.9c.8 1.9 2.1 3.7 3.6 5.2.9 1 2 1.9 3 2.8h2.1c-1.4-1.2-2.9-2.3-4.1-3.6-1.4-1.4-2.6-3.1-3.4-4.8-.8-1.8-1.3-3.7-1.6-5.6-.3-1.9-.5-3.9-.5-5.8 0-2 .1-3.9.4-5.9.2-1.9.6-3.9 1.2-5.8 1.1-3.8 2.7-7.5 5.1-10.8l-.2-.2c-2.7 3.1-4.6 6.9-5.8 10.7-1.2 3.9-1.8 7.9-1.8 11.9 0 2 .2 4 .5 6 .2 2 .7 4 1.5 5.9zM112.6 134.8c1.4 3.1 2.3 6.4 2.9 9.7.3 1.7.5 3.4.6 5.1.1 1.7.1 3.4-.1 5.1-.1.7-.2 1.3-.3 2l1.2.3c.1-.7.3-1.5.3-2.2.2-1.8.2-3.5 0-5.3-.1-1.7-.4-3.5-.7-5.2-.7-3.4-1.6-6.8-3.2-10-.8-1.6-1.6-3.1-2.7-4.5s-2.3-2.7-3.7-3.6l-.2.2c1.3 1.1 2.4 2.4 3.3 3.8 1.2 1.5 2 3 2.6 4.6z"/><g><path class="st5" d="M95.3 146.2l-3.6-7.6"/><path class="st6" d="M95 146.3c-1-.3-1.3-.9-1.6-1.5-.4-.6-.7-1.2-1-1.8-.3-.6-.6-1.3-.8-1.9-.2-.7-.6-1.3-.1-2.2l.5-.2c1 .3 1.3.9 1.6 1.5.4.6.7 1.2 1 1.8.3.6.6 1.3.8 1.9.2.7.6 1.3.1 2.2l-.5.2z"/><g><path class="st5" d="M89.7 144.2l7.6-3.6"/><path class="st6" d="M89.6 143.9c.3-1 .9-1.3 1.5-1.6.6-.4 1.2-.7 1.8-1 .6-.3 1.3-.6 1.9-.8.7-.2 1.3-.6 2.2-.1l.2.5c-.3 1-.9 1.3-1.5 1.6-.6.4-1.2.7-1.8 1-.6.3-1.3.6-1.9.8-.7.2-1.3.6-2.2.1l-.2-.5z"/></g></g><g><circle class="st3" cx="10.2" cy="29" r="1.5"/></g><path class="st0" d="M31 110.5c.3-1.3 1.2-1.8 2-2.5s1.6-1.3 2.4-2c.8-.6 1.7-1.2 2.5-1.8.9-.6 1.7-1.2 3-1.2.2 0 .3.1.3.3v.1c-.3 1.3-1.2 1.8-2 2.5s-1.6 1.3-2.4 2c-.8.6-1.7 1.2-2.5 1.8-.9.6-1.7 1.2-3 1.2-.2 0-.3-.1-.3-.4 0 .1 0 .1 0 0z"/></svg>