<svg id="gauge" xmlns="http://www.w3.org/2000/svg" viewBox="0 0 1431.2 1194.12"><title>gauge</title><path d="M3053.1,2514.93a48.95,48.95,0,0,1-37.43-80.45c127.89-152.09,175.31-357.42,126.85-549.24-40.41-159.95-140.69-294.58-282.34-379.09s-307.65-108.74-467.69-68.35-294.56,140.65-379.05,282.3-108.81,307.76-68.41,467.66A610.86,610.86,0,0,0,2063.75,2425a48.95,48.95,0,1,1-76,61.72,708.09,708.09,0,0,1-137.66-275c-46.8-185.25-18.66-377.66,79.25-541.79s253.86-280.26,439.16-327.07,377.81-18.66,541.81,79.2S3190.6,1676,3237.43,1861.26c56.15,222.26,1.26,460.11-146.84,636.22A48.85,48.85,0,0,1,3053.1,2514.93Z" transform="translate(-1828.02 -1320.81)" style="fill:#F6F6F6"/><path d="M2025.79,2504.8a48.84,48.84,0,0,1-38-18.09,708.09,708.09,0,0,1-137.66-275c-46.8-185.25-18.66-377.66,79.25-541.79s253.86-280.26,439.16-327.07,377.81-18.66,541.81,79.2S3190.6,1676,3237.43,1861.26a713.38,713.38,0,0,1-9.7,384.61,48.95,48.95,0,0,1-93.56-28.8,615.38,615.38,0,0,0,8.34-331.83c-40.41-159.94-140.69-294.57-282.34-379.08s-307.65-108.74-467.69-68.35-294.56,140.65-379.05,282.3-108.81,307.76-68.41,467.66A610.86,610.86,0,0,0,2063.75,2425a48.95,48.95,0,0,1-38,79.81Z" transform="translate(-1828.02 -1320.81)" style="fill:#6F93AD"/></svg>