<?xml version="1.0" encoding="utf-8"?>
<!-- Generator: Adobe Illustrator 22.0.1, SVG Export Plug-In . SVG Version: 6.00 Build 0)  -->
<svg version="1.1" id="Layer_1" xmlns="http://www.w3.org/2000/svg" xmlns:xlink="http://www.w3.org/1999/xlink" x="0px" y="0px"
	 viewBox="0 0 244.6 190" style="enable-background:new 0 0 244.6 190;" xml:space="preserve">
<style type="text/css">
	.st0{fill:#FFFFFF;}
	.st1{fill:#C2F4FF;}
	.st2{fill:#00B328;}
	.st3{fill:#74DCFC;}
	.st4{fill:#C7D6E1;}
	.st5{fill:#DEF2FA;}
	.st6{fill:#00BE28;}
	.st7{fill:#004F84;}
	.st8{fill:#C6E8F4;}
</style>
<title>Asset 27</title>
<path class="st0" d="M12.4,34.6h221v153h-221L12.4,34.6z"/>
<path class="st1" d="M36.4,188.6h103.7V59.2H36.4"/>
<path class="st2" d="M91.4,140.3H63.6c0,15.3,12.4,27.8,27.8,27.8s27.8-12.4,27.8-27.8s-12.4-27.8-27.8-27.8c0,0,0,0,0,0h-0.6
	L91.4,140.3z"/>
<path class="st0" d="M83.3,133.5v-27.8c-15.3,0.1-27.7,12.5-27.8,27.8L83.3,133.5L83.3,133.5z"/>
<path class="st3" d="M54,89V73.4h66.8c0.9,0,1.6,0.9,1.6,2V89L54,89z"/>
<path class="st0" d="M13.3,190L13,26"/>
<path class="st4" d="M13.4,190c-1.4-13.7-1.3-27.3-1.4-41l-0.3-41l0.1-41c0.1-13.7-0.1-27.3,1.2-41h0.8c1.4,13.7,1.3,27.3,1.4,41
	l0.3,41l-0.1,41c-0.1,13.7,0.1,27.3-1.2,41H13.4z M234.1,33.8c0.4,12.8,0.6,25.7,0.8,38.6s0.2,25.7,0.3,38.6l0.2,77.1v1.7h-1.7
	l-47.4,0.1l-47.4-0.1l-47.4-0.1c-15.8-0.2-31.6-0.3-47.4-1.2v-0.8c15.8-0.9,31.6-1.1,47.4-1.2l47.4-0.1l47.4-0.1l47.4,0.1l-1.8,1.7
	l0.2-77.1c0.1-12.9,0.1-25.7,0.4-38.6s0.4-25.7,0.8-38.6L234.1,33.8z"/>
<path class="st3" d="M11.7,38.8V13.1c0-7.3,6-13.1,13.2-13.1c0,0,0,0,0.1,0h196c7.3,0,13.2,5.8,13.2,13.1c0,0,0,0,0,0v25.7H11.7z"/>
<path class="st5" d="M244.6,33.8H0"/>
<path class="st3" d="M153.4,127.6h56v43h-56V127.6z"/>
<path class="st6" d="M152.6,59v54.6h56.8V59H152.6z M178.4,104.1h-13.9v-13c0-0.4,0.5-0.8,1.1-0.8h12.8L178.4,104.1z M184.6,104.1
	V76.9c0-0.2,0.2-0.4,0.4-0.4l0,0h13.5v27.6L184.6,104.1z"/>
<title>advertisingRemoved</title>
<path class="st7" d="M244.2,38.2c-5.1,0.4-10.2,0.7-15.2,0.9l-7.6,0.3l-3.8,0.1l-3.8,0.1c-5.1,0.1-10.2,0.1-15.2,0.2l-15.2,0.1
	L168,40l-7.6,0l-7.6,0l-30.5,0.1L91.7,40L84,40l-7.6,0l-15.2-0.1l-15.2-0.1c-5.1,0-10.2-0.1-15.2-0.2l-3.8-0.1l-3.8-0.1l-7.6-0.3
	c-5.1-0.2-10.2-0.5-15.2-0.9v-1c5.1-0.4,10.2-0.7,15.2-0.9l7.6-0.3l3.8-0.1l3.8-0.1c5.1-0.1,10.2-0.1,15.2-0.2l15.2-0.1l15.2-0.1
	l7.6,0l7.6,0l30.5-0.1l30.5,0.1l7.6,0l7.6,0l15.2,0.1l15.2,0.1c5.1,0,10.2,0.1,15.2,0.2l3.8,0.1l3.8,0.1l7.6,0.3
	c5.1,0.2,10.2,0.5,15.2,0.9V38.2z"/>
<g>
	<path class="st0" d="M35.2,19.4c0,1.8-1.5,3.3-3.3,3.3c-1.8,0-3.3-1.5-3.3-3.3s1.5-3.3,3.3-3.3C33.7,16.2,35.2,17.6,35.2,19.4"/>
	<path class="st8" d="M52.1,19.4c0,1.8-1.5,3.3-3.3,3.3c-1.8,0-3.3-1.5-3.3-3.3s1.5-3.3,3.3-3.3C50.6,16.2,52.1,17.6,52.1,19.4
		 M70.3,19.4c0,1.8-1.5,3.3-3.3,3.3c-1.8,0-3.3-1.5-3.3-3.3s1.5-3.3,3.3-3.3C68.9,16.2,70.3,17.6,70.3,19.4"/>
</g>
</svg>
