<svg id="static" xmlns="http://www.w3.org/2000/svg" viewBox="0 0 113.2 94.3"><style>.st0{fill:#fff}.st1{fill:#00a9de}.st2{fill:#004f84}.st3{fill:#c2f4ff}.st4{fill:#74dcfc}.st5{fill:#c7d6e1}.st6{fill:#00be28}.st7{fill:#c8d7e2}.st8,.st9{fill:#fff;stroke:#c8d7e2;stroke-width:1.2438;stroke-linecap:round;stroke-linejoin:bevel;stroke-miterlimit:10}.st9{stroke-linejoin:round}</style><path class="st0" d="M1.8 94.3V8c0-3.6 2.9-6.5 6.5-6.5h96.6c3.6 0 6.5 2.9 6.5 6.5v86.3H1.8z"/><path class="st1" d="M1.8 18.6V7.8C1.8 3.5 4.7 0 8.3 0h96.6c3.6 0 6.5 3.5 6.5 7.8v10.8H1.8z"/><path class="st2" d="M113.2 18.6c-9.4.8-18.9.7-28.3.8l-28.3.1-28.3-.1c-9.4 0-18.9 0-28.3-.8v-.5c8.6-.7 17.4-.7 26-.8h2.3l28.3-.1 28.3.1c9.4 0 18.9 0 28.3.8v.5z"/><circle class="st3" cx="12.3" cy="9.1" r="1.6"/><circle class="st4" cx="20.8" cy="9.1" r="1.6"/><circle class="st4" cx="29.3" cy="9.1" r="1.6"/><path class="st3" d="M2.6 67.1h109v12.4H2.6z"/><path class="st4" d="M2.6 79.6h109V92H2.6z"/><path class="st5" d="M111.6 19.6c.2 6.1.3 12.1.4 18.2s.1 12.1.2 18.2l.1 36.3v.8h-.8l-22.3.1-22.3-.1-22.5-.1c-7.4-.1-14.9-.1-22.3-.6V92c7.4-.4 14.9-.5 22.3-.6l22.3-.1 22.3-.1 22.3.1-.8.8.1-36.3c.1-6.1.1-12.1.2-18.2s.2-12.1.4-18.2c0 .2.4.2.4.2z"/><path class="st6" d="M2.4 59.8c34.6-1.7 74 7.2 74 7.2h-74v-7.2z"/><circle class="st3" cx="30.6" cy="35.1" r="4.5"/><path class="st7" d="M89.7 49.4c-.5 1.8-1.4 3.6-2.7 5.1-1.2 1.5-2.8 2.7-4.5 3.7-3.5 1.8-7.7 2.2-11.4 1-3.8-1.2-7-4-8.8-7.5-1.8-3.5-2.1-7.8-.9-11.6 1.3-3.8 4.1-7 7.6-8.7 3.5-1.8 7.8-2.1 11.5-.8s6.9 4.1 8.6 7.6c1.7 3.5 1.9 7.7.6 11.3v-.1zm-.4-.2c1.1-3.6.7-7.5-1-10.8-1.7-3.3-4.7-5.8-8.1-6.9-3.5-1.1-7.3-.8-10.5.8s-5.8 4.6-6.9 8c-1.1 3.4-.9 7.3.7 10.5s4.5 5.8 8 7c3.4 1.2 7.3 1 10.6-.6s6-4.5 7.3-8h-.1z"/><path class="st7" d="M89.3 39.5c-2.1 1.2-4.3 2.3-6.5 3.3s-4.4 2-6.6 2.9c-4.5 1.8-8.9 3.7-13.5 5.2-.1 0-.3 0-.3-.2 0-.1 0-.2.1-.3 4.3-2.3 8.7-4.1 13.1-6.1 2.2-1 4.4-1.9 6.7-2.7 2.2-.9 4.5-1.7 6.8-2.4.1 0 .1 0 .2.1s0 .2 0 .2z"/><path class="st7" d="M89.3 50.5c-2.4-.6-4.6-1.4-6.9-2.2-2.3-.9-4.5-1.7-6.7-2.6-4.4-1.9-8.9-3.6-13.2-5.8-.1-.1-.2-.2-.1-.3.1-.1.2-.2.3-.1 4.6 1.4 9.1 3.3 13.6 5 2.2.9 4.5 1.8 6.7 2.8 2.2 1 4.4 2 6.5 3.2.1 0 .1.1 0 .2-.1-.2-.2-.1-.2-.2z"/><path class="st7" d="M85.2 67.1c-1.6-2.8-2.9-5.7-4.2-8.6-1.3-2.9-2.6-5.9-3.8-8.8-2.4-5.9-5-11.8-7.1-17.9 0-.1 0-.3.2-.3.1 0 .2 0 .3.1 2.9 5.7 5.3 11.6 7.9 17.5C79.8 52 81 55 82.2 58c1.2 3 2.4 6 3.3 9 0 .1 0 .1-.1.2-.1 0-.2 0-.2-.1z"/><path class="st7" d="M67 66.8c.9-3.1 2-6 3.1-9s2.3-5.9 3.5-8.8c2.4-5.8 4.8-11.7 7.5-17.4.1-.1.2-.2.3-.1.1.1.2.2.1.3-2 6-4.4 11.9-6.7 17.8-1.2 2.9-2.4 5.9-3.6 8.8-1.3 2.9-2.5 5.8-4 8.6 0 .1-.1.1-.2.1v-.3z"/><circle class="st8" cx="75.8" cy="44.7" r="2.1"/><path class="st9" d="M62.1 52.3h-.3c-.9 0-1.7-.8-1.7-1.7v-1.2h3.7v1.2c0 1-.8 1.7-1.7 1.7zM61.5 41.6h-.3c-.9 0-1.7-.8-1.7-1.7v-1.2h3.7v1.2c0 .9-.7 1.7-1.7 1.7zM70.4 60.5h-.3c-.9 0-1.7-.8-1.7-1.7v-1.2h3.7v1.2c0 .9-.8 1.7-1.7 1.7zM69.5 33.2h-.3c-.9 0-1.7-.8-1.7-1.7v-1.2h3.7v1.2c0 .9-.7 1.7-1.7 1.7zM89.6 52.3h.3c.9 0 1.7-.8 1.7-1.7v-1.2h-3.7v1.2c0 1 .7 1.7 1.7 1.7zM90.1 41.6h.3c.9 0 1.7-.8 1.7-1.7v-1.2h-3.7v1.2c0 .9.8 1.7 1.7 1.7zM81.3 60.5h.3c.9 0 1.7-.8 1.7-1.7v-1.2h-3.7v1.2c0 .9.7 1.7 1.7 1.7zM82.1 33.2h.3c.9 0 1.7-.8 1.7-1.7v-1.2h-3.7v1.2c0 .9.8 1.7 1.7 1.7z"/><path class="st5" d="M2.4 19C3 24.5 3 30 3 35.6l.1 16.6v16.5c0 5.5 0 11-.5 16.6h-.3c-.6-5.5-.5-11-.6-16.6l-.2-16.6.1-16.6c0-5.5 0-11 .5-16.6l.3.1z"/></svg>