<svg id="recent-news" xmlns="http://www.w3.org/2000/svg" x="0px" y="0px" viewBox="0 0 250 209"><path fill="#C2F4FF" d="M4,208.3V26.7v-9.1c0-8,6.4-14.4,14.4-14.4h213.3c8,0,14.4,6.4,14.4,14.4v190.6L4,208.3L4,208.3z"/><path fill="#00A9DE" d="M4,41.1V28V17.2C4,7.7,10.4,0,18.3,0h213.3c8,0,14.4,7.7,14.4,17.2v23.9H4z"/><path fill="#004F84" d="M250,41.1c-20.8,1.8-41.7,1.5-62.5,1.8L125,43.1l-62.5-0.2c-20.8,0-41.7,0-62.5-1.8V40 c20.8-1.8,41.7-1.5,62.5-1.8L125,38l62.5,0.2c20.8,0,41.7,0,62.5,1.8V41.1z"/><polyline fill="#FFFFFF" points="224.8,185.7 152.4,185.7 152.4,63.8 224.8,63.8 "/><path fill="#C2F4FF" d="M197.2,115.1H170V89.7c0-6.4,5.3-11.7,11.7-11.7h27.8v25C209.4,109.5,204.1,115.1,197.2,115.1z"/><path fill="#00A9DE" d="M208.9,173.1H170v-44.6h39.3v44.2C209.4,172.9,209.1,173.1,208.9,173.1z"/><polyline fill="#FFFFFF" points="127.2,186.6 22.5,186.6 22.5,99.8 137.8,99.8 137.8,186.6 "/><path fill="#004F84" d="M127.2,84.6H22.5v-8c0-7.1,5.7-12.8,12.8-12.8H138v20.8"/><path fill="#FFFFFF" d="M99.8,161.9c0,0-2.2-5.7-7.7-6.8c-2.9-0.4-5.5,0.2-7.1,1.1c-1.8,0.9-2.2,3.1-0.9,4.4c1.3,1.5,3.3,3.3,6.4,3.8 C96.1,165.4,99.8,161.9,99.8,161.9z"/><path fill="#C8D7E2" d="M92.8,165.6c-0.7,0-1.5,0-2.4-0.2c-2.7-0.4-5.1-1.8-7.1-4.2c-0.9-0.9-1.1-2-0.9-3.1c0.2-1.3,1.1-2.4,2.2-2.9 c1.5-0.9,4.4-1.8,7.7-1.1c6.2,1.3,8.4,7.3,8.6,7.5l0.2,0.7l-0.4,0.4C100.5,162.8,97.4,165.6,92.8,165.6z M90.3,155.9 c-2,0-3.8,0.4-4.6,1.1c-0.7,0.2-0.9,0.9-1.1,1.3c0,0.4,0,0.9,0.4,1.3c1.1,1.3,2.9,3.1,5.7,3.5c3.8,0.7,6.6-0.9,7.7-1.8 c-0.7-1.5-2.9-4.6-6.6-5.5C91.4,156.1,90.8,155.9,90.3,155.9z"/><path fill="#FFFFFF" d="M116.4,166.7c1.5-1.1,1.8-3.3,0.4-4.6c-1.5-1.3-3.8-2.9-6.8-2.9c-5.7,0-9.1,4.6-9.1,4.6s3.1,5.1,9.1,5.1 C112.6,168.9,114.8,167.8,116.4,166.7z"/><path fill="#C8D7E2" d="M110,170.1c-6.4,0-9.9-5.3-9.9-5.5l-0.4-0.7l0.4-0.7c0.2-0.2,3.8-5.1,9.9-5.1c3.5,0,6,1.8,7.5,3.1 c0.9,0.9,1.3,2,1.3,3.3s-0.7,2.4-1.8,3.1l0,0C114.8,169.2,112.4,170.1,110,170.1z M102.3,163.9c0.9,1.3,3.5,4,7.7,4c2,0,4-0.7,5.7-2 c0.4-0.4,0.9-0.9,0.9-1.5c0-0.7-0.2-1.1-0.4-1.5c-1.3-1.1-3.3-2.7-6-2.7C106,160.3,103.4,162.8,102.3,163.9z"/><path fill="#FFFFFF" d="M118.8,152.8c1.5-0.9,2-3.1,0.7-4.6s-3.5-3.1-6.6-3.5c-5.7-0.4-9.5,3.8-9.5,3.8s2.7,5.3,8.6,5.7 C114.8,154.6,117,153.7,118.8,152.8z"/><path fill="#C8D7E2" d="M113.5,155.5c-0.4,0-1.1,0-1.8-0.2c-6.4-0.4-9.3-6.2-9.5-6.4l-0.4-0.7l0.4-0.7c0.2-0.2,4.2-4.6,10.4-4.2 c4,0.7,6.4,2.7,7.3,4c0.9,0.9,1.1,2.2,0.9,3.5c-0.2,1.1-0.9,2.2-2,2.9l0,0C117.7,154.6,115.7,155.5,113.5,155.5z M104.7,148.6 c0.9,1.3,3.3,4.2,7.3,4.4c2.7,0.4,4.4-0.4,6.2-1.1c0.4-0.2,0.7-0.7,0.9-1.3c0-0.7,0-1.1-0.4-1.8c-0.9-0.9-2.7-2.7-6-3.1 C108.9,145.5,106,147.5,104.7,148.6z"/><path fill="#FFFFFF" d="M124.6,140.5c1.8-0.4,2.7-2.7,1.8-4.2c-0.9-1.8-2.7-4-5.5-4.9c-5.5-1.8-10.2,1.5-10.2,1.5s1.3,5.7,7.1,7.5 C120.4,141.3,122.8,140.9,124.6,140.5z"/><path fill="#C8D7E2" d="M121,142c-1.1,0-2.2-0.2-3.5-0.7c-6.2-2-7.7-8-7.7-8.4l-0.4-0.4l0.7-0.4c0.2-0.2,5.1-3.5,11-1.8 c3.8,1.1,5.5,4.2,6.2,5.5c0.7,0.9,0.7,2.2,0.2,3.5c-0.4,1.1-1.5,2-2.7,2.2l0,0C123.7,141.8,122.3,142,121,142z M112,133.4 c0.4,1.5,2.2,4.6,6.2,6c2.4,0.9,4.4,0.4,6.2,0l0,0c0.4-0.2,0.9-0.4,1.1-1.1c0.2-0.4,0.2-1.1,0-1.5c-0.4-1.1-2-3.5-4.9-4.4 C116.6,131.2,113.3,132.7,112,133.4z"/><path fill="#FFFFFF" d="M103.1,148c0,0,0-6.2-5.1-9.1c-2.7-1.5-5.1-1.5-7.1-1.3c-1.8,0.2-3.1,2.2-2.4,4c0.7,2,2,4.2,4.6,5.7 C98.3,150.2,103.1,148,103.1,148z"/><path fill="#C8D7E2" d="M98.7,150c-1.8,0-4-0.4-6.2-1.5c-2.4-1.5-4.2-3.5-5.1-6.4c-0.4-1.1-0.2-2.4,0.4-3.5c0.7-1.1,1.8-1.8,2.9-2 c2-0.2,4.9-0.2,7.7,1.5c5.5,3.1,5.5,9.7,5.5,9.9v0.7l-0.7,0.2C103.4,149.1,101.6,150,98.7,150z M92.8,138.7c-0.7,0-1.1,0-1.5,0 s-1.1,0.4-1.3,0.9c-0.2,0.4-0.4,1.1-0.2,1.5c0.7,2.2,2.2,4,4.2,5.1c3.5,2,6.8,1.3,8.2,0.9c-0.2-1.5-1.1-5.3-4.4-7.3 C95.8,138.9,94.1,138.7,92.8,138.7z"/><path fill="#FFFFFF" d="M110.2,134.5c0,0,0.9-6.2-3.8-9.7c-2-1.5-4.2-2.2-6-2.4c-2.4-0.2-4.4,2-3.8,4.4c0.4,1.8,1.5,3.8,3.5,5.5 C105.1,136,110.2,134.5,110.2,134.5z"/><path fill="#C8D7E2" d="M107.6,135.8c-2.2,0-5.1-0.4-8-2.7c-2.7-2.2-3.5-4.6-4-6.2c-0.4-1.5,0-2.9,0.9-4.2c0.9-1.1,2.4-1.8,4-1.5 c1.8,0.2,4.2,0.9,6.6,2.7c5.1,4,4.2,10.4,4.2,10.8v0.7l-0.9,0.2C110.4,135.6,109.3,135.8,107.6,135.8z M100,123.5 c-0.7,0-1.3,0.2-2,0.9c-0.4,0.7-0.7,1.3-0.4,2.2c0.4,1.8,1.5,3.5,3.3,5.1c3.3,2.4,6.6,2.4,8.2,2.2c0-1.5-0.2-5.5-3.3-8 C103.8,124.1,101.8,123.7,100,123.5C100.3,123.5,100.3,123.5,100,123.5z"/><path fill="#C8D7E2" d="M92.8,165.9c-0.7,0-1.5,0-2.4-0.2c-2.7-0.4-5.1-1.8-7.1-4.2c-0.9-0.9-1.3-2-1.1-3.3c0.2-1.3,1.1-2.4,2.2-3.1 c1.5-0.9,4.4-1.8,7.7-1.3c6.2,1.3,8.6,7.3,8.6,7.7l0.2,0.9l-0.7,0.7C100.5,163,97.4,165.9,92.8,165.9z M90.3,156.1 c-2,0-3.5,0.4-4.6,1.1c-0.7,0.2-0.9,0.7-1.1,1.3c0,0.2,0,0.7,0.4,1.1c1.1,1.3,2.9,3.1,5.7,3.3c3.5,0.7,6.4-0.7,7.5-1.5 c-0.9-1.5-2.9-4.6-6.4-5.3C91.2,156.1,90.8,156.1,90.3,156.1z"/><path fill="#C8D7E2" d="M110,170.3c-6.6,0-9.9-5.5-10.2-5.7l-0.4-0.7l0.4-0.7c0.2-0.2,3.8-5.1,10.2-5.1c3.5,0,6.2,1.8,7.7,3.1 c0.9,0.9,1.3,2.2,1.3,3.3c0,1.3-0.7,2.4-1.8,3.1l0,0C114.8,169.4,112.4,170.3,110,170.3z M102.5,163.9c1.1,1.3,3.5,3.8,7.5,3.8 c2,0,3.8-0.7,5.7-2l0,0c0.4-0.2,0.7-0.9,0.9-1.3c0-0.4-0.2-1.1-0.4-1.3c-1.3-1.1-3.3-2.4-6-2.4C106.2,160.6,103.6,162.8,102.5,163.9 z"/><path fill="#C8D7E2" d="M113.5,155.5c-0.4,0-1.1,0-1.8-0.2c-6.4-0.4-9.5-6.2-9.5-6.4l-0.4-0.7l0.7-0.7c0.2-0.2,4.2-4.6,10.6-4.2 c4,0.7,6.4,2.7,7.5,4c0.9,1.1,1.3,2.4,1.1,3.5c-0.2,1.3-0.9,2.2-2,2.9l0,0C117.7,154.8,115.9,155.5,113.5,155.5z M104.9,148.6 c0.9,1.3,3.3,4,7.1,4.2c2.7,0.4,4.4-0.4,6.2-1.1c0.4-0.2,0.7-0.7,0.7-1.1c0-0.7,0-1.1-0.4-1.5c-0.9-0.9-2.7-2.7-5.7-3.1 C109.1,145.5,106.2,147.5,104.9,148.6z"/><path fill="#C8D7E2" d="M121,142.2c-1.1,0-2.4-0.2-3.5-0.7c-6.4-2-7.7-8.2-8-8.4l-0.2-0.7l0.7-0.4c0.2-0.2,5.3-3.8,11.3-1.8 c3.8,1.1,5.5,4.2,6.2,5.5c0.7,1.1,0.7,2.4,0.2,3.5c-0.4,1.1-1.5,2-2.7,2.4C123.7,142,122.3,142.2,121,142.2z M112.2,133.6 c0.7,1.5,2.2,4.6,6,5.7c2.2,0.7,4.4,0.4,6.2,0l0,0c0.4,0,0.9-0.4,1.1-0.9c0.2-0.4,0.2-1.1,0-1.3c-0.4-1.1-2-3.3-4.9-4.2 C116.8,131.4,113.5,132.7,112.2,133.6z"/><path fill="#C8D7E2" d="M98.7,150c-1.8,0-4-0.4-6.2-1.5c-2.4-1.5-4.2-3.5-5.3-6.4c-0.4-1.1-0.2-2.4,0.4-3.5s1.8-2,3.1-2 c2-0.2,4.9-0.2,8,1.5c5.7,3.1,5.7,9.9,5.7,10.2v0.9l-0.7,0.4C103.6,149.1,101.6,150,98.7,150z M92.8,138.7c-0.7,0-1.1,0-1.5,0 s-0.9,0.4-1.3,0.9c-0.2,0.4-0.4,0.9-0.2,1.3c0.7,2.2,2.2,4,4.2,5.1c3.3,1.8,6.6,1.3,8,0.9c-0.2-1.5-1.1-5.3-4.4-7.1 C95.6,138.9,94.1,138.7,92.8,138.7z"/><path fill="#C8D7E2" d="M107.6,136c-2.2,0-5.1-0.4-8.2-2.9c-2.7-2.2-3.5-4.6-4-6.2s0-3.1,0.9-4.2c1.1-1.1,2.7-1.8,4.2-1.8 c1.8,0.2,4.2,0.9,6.6,2.7c5.1,4,4.2,10.6,4.2,10.8l-0.2,0.9l-0.7,0.2C110.4,135.8,109.3,136,107.6,136z M100,123.7 c-0.7,0-1.3,0.2-1.8,0.9c-0.4,0.7-0.7,1.3-0.4,2c0.4,1.8,1.5,3.5,3.1,4.9c3.1,2.4,6.4,2.4,8,2.2c0-1.8-0.2-5.3-3.3-7.7 C103.8,124.3,101.8,123.7,100,123.7C100.3,123.7,100.3,123.7,100,123.7z"/><path fill="#C8D7E2" d="M64.3,172.5c-0.4-2-0.7-4.2-0.4-6.2c0.2-2,0.4-4,1.1-6c0.4-2,1.3-4,2-5.7c0.9-1.8,1.8-3.8,3.1-5.3l0.7,0.4 c-1.3,3.8-2.7,7.5-3.5,11.3c-0.4,2-0.9,3.8-1.3,5.7S65.2,170.5,64.3,172.5L64.3,172.5z"/><path fill="#C8D7E2" d="M63.6,172.5c-0.4-1.5-0.4-3.1,0.2-4.6c0.7-1.5,1.3-2.9,2.4-4c2-2.2,4.4-4,6.8-5.5l0.7,0.7 c-0.9,1.3-1.8,2.4-2.9,3.3c-1.1,1.1-2,2-2.9,3.1s-1.8,2-2.2,3.3c-0.7,1.1-1.1,2.2-1.8,3.8h-0.3V172.5z"/><path fill="#00A9DE" d="M22.5,177.8c29.8-12.4,94.3-4.2,115.5,8.8l-115.5-0.4V177.8z"/><path fill="#C8D7E2" d="M100.3,174.5c-0.7-4.4-0.7-8.8-0.2-13.5c0.4-4.4,1.3-8.8,2.7-13.3c2.7-8.6,7.5-16.8,14.6-22.3l0.7,0.7 c-2.9,3.3-5.5,6.8-7.7,10.6s-4,7.7-5.1,11.9c-1.3,4.2-2.2,8.4-2.7,12.8c-0.7,4.4-1.1,8.6-1.5,13 C100.9,174.5,100.3,174.5,100.3,174.5z"/><circle fill="#C2F4FF" cx="27.2" cy="20.1" r="3.5"/><circle fill="#74DCFC" cx="45.9" cy="20.1" r="3.5"/><circle fill="#74DCFC" cx="64.7" cy="20.1" r="3.5"/></svg>