<svg id="static" xmlns="http://www.w3.org/2000/svg" viewBox="0 0 250 119"><style>.st0{fill:#fff}.st1{fill:#6F93AD}.st2{fill:#204A69}.st3{fill:#E1E2E2}.st4{fill:#CCCED0}.st5{fill:#CCCED0}.st6{fill:#00be28}.st7{fill:#CCCED0}.st8,.st9{fill:#fff;stroke:#CCCED0;stroke-width:1.5786;stroke-linecap:round;stroke-linejoin:bevel;stroke-miterlimit:10}.st9{stroke-linejoin:round}</style><path class="st0" d="M0 117.8c20.8-.6 41.7-.8 62.5-.9l62.5-.1 62.5.2c20.8.1 41.7.3 62.5.7.3 0 .5.2.4.5 0 .2-.2.4-.4.4-20.8.4-41.7.5-62.5.7l-62.5.2-62.5-.1c-20.8-.2-41.7-.3-62.5-.9-.1 0-.2-.1-.2-.2 0-.4.1-.5.2-.5z"/><path class="st1" d="M55.4 24V10.2c0-5.5 3.7-9.9 8.2-9.9h122.6c4.6 0 8.2 4.4 8.2 9.9V24h-139z"/><path class="st2" d="M196.8 24c-11.9 1-24 .9-35.9 1l-35.9.1-35.9-.1c-11.9 0-24 0-35.9-1v-.6c10.9-.9 22.1-.9 33-1h2.9l35.9-.1 35.9.1c11.9 0 24 0 35.9 1v.6z"/><circle class="st3" cx="68.8" cy="11.9" r="2"/><circle class="st4" cx="79.6" cy="11.9" r="2"/><circle class="st4" cx="90.4" cy="11.9" r="2"/><path class="st3" d="M56.5 85.5h138.3v15.7H56.5V85.5z"/><path class="st4" d="M56.5 101.4h138.3v15.7H56.5v-15.7z"/><path class="st5" d="M194.8 25.2c.3 7.7.4 15.4.5 23.1.1 7.7.1 15.4.3 23.1l.1 46.1v1h-1l-28.3.1-28.3-.1-28.6-.1c-9.4-.1-18.9-.1-28.3-.8v-.5c9.4-.5 18.9-.6 28.3-.8l28.3-.1 28.3-.1 28.3.1-1 1 .1-46.1c.1-7.7.1-15.4.3-23.1.1-7.7.3-15.4.5-23.1 0 .3.5.3.5.3z"/><path class="st6" d="M56.2 76.2c43.9-2.2 93.9 9.1 93.9 9.1H56.2v-9.1z"/><circle class="st3" cx="92" cy="44.9" r="5.7"/><path class="st7" d="M167 63c-.6 2.3-1.8 4.6-3.4 6.5-1.5 1.9-3.6 3.4-5.7 4.7-4.4 2.3-9.8 2.8-14.5 1.3-4.8-1.5-8.9-5.1-11.2-9.5-2.3-4.4-2.7-9.9-1.1-14.7 1.6-4.8 5.2-8.9 9.6-11 4.4-2.3 9.9-2.7 14.6-1s8.8 5.2 10.9 9.6 2.4 9.8.8 14.3V63zm-.5-.2c1.4-4.6.9-9.5-1.3-13.7-2.2-4.2-6-7.4-10.3-8.8-4.4-1.4-9.3-1-13.3 1s-7.4 5.8-8.8 10.2-1.1 9.3.9 13.3c2 4.1 5.7 7.4 10.2 8.9 4.3 1.5 9.3 1.3 13.5-.8 4.2-2 7.6-5.7 9.3-10.2-.1.1-.2.1-.2.1z"/><path class="st7" d="M166.5 50.5c-2.7 1.5-5.5 2.9-8.2 4.2s-5.6 2.5-8.4 3.7c-5.7 2.3-11.3 4.7-17.1 6.6-.1 0-.4 0-.4-.3 0-.1 0-.3.1-.4 5.5-2.9 11-5.2 16.6-7.7 2.8-1.3 5.6-2.4 8.5-3.4 2.8-1.1 5.7-2.2 8.6-3 .1 0 .1 0 .3.1s0 .2 0 .2z"/><path class="st7" d="M166.5 64.4c-3-.8-5.8-1.8-8.8-2.8-2.9-1.1-5.7-2.2-8.5-3.3-5.6-2.4-11.3-4.6-16.8-7.4-.1-.1-.3-.3-.1-.4s.3-.3.4-.1c5.8 1.8 11.5 4.2 17.3 6.3 2.8 1.1 5.7 2.3 8.5 3.6 2.8 1.3 5.6 2.5 8.2 4.1.1 0 .1.1 0 .3-.1-.3-.2-.1-.2-.3z"/><path class="st7" d="M161.3 85.5c-2-3.6-3.7-7.2-5.3-10.9-1.6-3.7-3.3-7.5-4.8-11.2-3-7.5-6.3-15-9-22.7 0-.1 0-.4.3-.4.1 0 .3 0 .4.1 3.7 7.2 6.7 14.7 10 22.2 1.6 3.7 3.2 7.5 4.7 11.3 1.5 3.8 3 7.6 4.2 11.4 0 .1 0 .1-.1.3-.3 0-.4 0-.4-.1z"/><path class="st7" d="M138.2 85.1c1.1-3.9 2.5-7.6 3.9-11.4 1.4-3.8 2.9-7.5 4.4-11.2 3-7.4 6.1-14.8 9.5-22.1.1-.1.3-.3.4-.1.1.1.3.3.1.4-2.5 7.6-5.6 15.1-8.5 22.6-1.5 3.7-3 7.5-4.6 11.2-1.6 3.7-3.2 7.4-5.1 10.9 0 .1-.1.1-.3.1.2 0 .2-.4.2-.4z"/><circle class="st8" cx="149.4" cy="57.1" r="2.7"/><path class="st9" d="M132 66.7h-.4c-1.1 0-2.2-1-2.2-2.2V63h4.7v1.5c0 1.3-1 2.2-2.1 2.2zm-.8-13.6h-.4c-1.1 0-2.2-1-2.2-2.2v-1.5h4.7V51c.1 1.1-.8 2.1-2.1 2.1zm11.3 24h-.4c-1.1 0-2.2-1-2.2-2.2v-1.5h4.7V75c.1 1.1-.9 2.1-2.1 2.1zm-1.1-34.6h-.4c-1.1 0-2.2-1-2.2-2.2v-1.5h4.7v1.5c0 1.2-.9 2.2-2.1 2.2zm25.5 24.2h.4c1.1 0 2.2-1 2.2-2.2V63h-4.7v1.5c-.1 1.3.8 2.2 2.1 2.2zm.6-13.6h.4c1.1 0 2.2-1 2.2-2.2v-1.5h-4.7V51c0 1.1 1 2.1 2.1 2.1zm-11.2 24h.4c1.1 0 2.2-1 2.2-2.2v-1.5h-4.7V75c0 1.1.9 2.1 2.1 2.1zm1.1-34.6h.4c1.1 0 2.2-1 2.2-2.2v-1.5h-4.7v1.5c-.1 1.2.9 2.2 2.1 2.2z"/><path class="st5" d="M56.2 24.5c.8 7 .8 14 .8 21.1l.1 21.1v20.9c0 7 0 14-.6 21.1h-.4c-.8-7-.6-14-.8-21.1L55 66.5l.1-21.1c0-7 0-14 .6-21.1.1 0 .5.2.5.2z"/></svg>