<svg xmlns="http://www.w3.org/2000/svg" viewBox="0 0 89.35 88.85"><defs><style>.cls-1{fill:#fff}.cls-2{fill:#0084c0}.cls-3{fill:#74dcfc}.cls-4{fill:#c2f4ff}.cls-5{fill:#00a9de}.cls-6{fill:#00be28}.cls-7{fill:#c8d7e2}.cls-8{fill:#ddf8ff}</style></defs><title>illustration-payments-jetpack</title><g id="Layer_2" data-name="Layer 2"><g id="Layer_1-2" data-name="Layer 1"><path class="cls-1" d="M65.45 10.73a1.59 1.59 0 0 0 1.28-.66 1.43 1.43 0 0 0 .27-.66 4 4 0 0 0 0-.76l-.28-3.3c0-.55-.06-1.09-.07-1.65a8 8 0 0 0-.08-1.45 1.17 1.17 0 0 0-.73-.71 1.83 1.83 0 0 0-.25-.06h-1.18l-13.22.08a1 1 0 0 0-.84.4.91.91 0 0 0-.21.43 3.21 3.21 0 0 0 0 .63V8a6.65 6.65 0 0 0 .05 1.43 1.11 1.11 0 0 0 .69.71.71.71 0 0 0 .24.06H55.15c1.24 0 2.48 0 3.73.1 2.21.16 4.42.43 6.62.43zM61 11.3c-.7.06-1.41.12-2.11.16-1.25.07-2.49.08-3.73.1v3.2h6.08c-.16-1.19-.24-2.33-.24-3.46z"/><path class="cls-2" d="M67.92 2.36a2.64 2.64 0 0 0-.11-.56A2.52 2.52 0 0 0 66.28.24a2.08 2.08 0 0 0-.55-.12.89.89 0 0 0-.28 0h-1L51.18 0a2.65 2.65 0 0 0-2 1 2.43 2.43 0 0 0-.54 1 3.81 3.81 0 0 0-.06 1v6.28a2.15 2.15 0 0 0 .13.57 2.51 2.51 0 0 0 1.56 1.57 3.06 3.06 0 0 0 .56.13 1.27 1.27 0 0 0 .28 0h2.75v3.2H55v-3.2c1.24 0 2.48 0 3.73-.1.7 0 1.41-.1 2.11-.16.06 1.13.13 2.27.23 3.48h.51c.09-1 .16-2.06.2-3.13v-.43c1.18-.09 2.37-.18 3.55-.16a2.11 2.11 0 0 0 1.67-.73 2.38 2.38 0 0 0 .45-.81 4.07 4.07 0 0 0 .11-.88l.26-3.31c0-.55.06-1.11.06-1.66v-.83a2.49 2.49 0 0 0 .04-.47zm-9.07 8c-1.25-.07-2.48-.08-3.73-.1h-4.04l-.24-.06a1.11 1.11 0 0 1-.69-.71A7.38 7.38 0 0 1 50.1 8V3a2.66 2.66 0 0 1 0-.63 1.15 1.15 0 0 1 .27-.37 1.08 1.08 0 0 1 .84-.4l13.23-.09h1.15a.88.88 0 0 1 .26.06 1.2 1.2 0 0 1 .72.71 6.52 6.52 0 0 1 .08 1.45c0 .54 0 1.09.07 1.65L67 8.65a3.3 3.3 0 0 1 0 .76 1.41 1.41 0 0 1-.26.66 1.61 1.61 0 0 1-1.29.66c-2.2 0-4.45-.27-6.6-.42z"/><path class="cls-4" d="M80.47 38.67l-.75-14.74A10 10 0 0 0 76 16.48a7.42 7.42 0 0 0-4.65-1.71H17.92a7.11 7.11 0 0 0-5.64 2.74 11.81 11.81 0 0 0-2.72 7.06l-.69 14.71-7.16 28.29h86.13zm-8.92-18.46a.81.81 0 0 1 .84.7L73 33.57a.9.9 0 0 1-.31.71 1.18 1.18 0 0 1-.8.31H34.78v-.48l-.26-13.9zM17.14 33.09l.62-12.88h10.78a.79.79 0 0 1 .84.7l-.31 12.66a.93.93 0 0 1-.3.71 1.22 1.22 0 0 1-.81.31H17.14zm7.91 29.18h-4.43v-4.15c0-.13.16-.25.36-.25h4.07zm0-7h-4.43v-4.15c0-.13.16-.25.36-.25h4.07zm0-7h-4.43v-4.15c0-.13.16-.24.36-.24h4.07zm8.75 14h-4.43v-4.15c0-.13.17-.25.36-.25h4.07zm0-7h-4.43v-4.15c0-.13.17-.25.36-.25h4.07zm0-7h-4.43v-4.15c0-.13.17-.24.36-.24h4.07zm8.76 14h-4.43v-4.15c0-.13.16-.25.36-.25h4.07zm0-7h-4.43v-4.15c0-.13.16-.25.36-.25h4.07zm0-7h-4.43v-4.15c0-.13.16-.24.36-.24h4.07zm8.76 14h-4.43v-4.15c0-.13.16-.25.36-.25h4.07zm0-7h-4.43v-4.15c0-.13.16-.25.36-.25h4.07zm0-7h-4.43v-4.15c0-.13.16-.24.36-.24h4.07zm8.77 14h-4.43v-4.15c0-.13.16-.25.36-.25h4.07zm0-7h-4.43v-4.15c0-.13.16-.25.36-.25h4.07zm0-7h-4.43v-4.15c0-.13.16-.24.36-.24h4.07zm8.75 14h-4.43v-4.15c0-.13.17-.25.36-.25h4.07zm0-7h-4.43v-4.15c0-.13.17-.25.36-.25h4.07zm0-7h-4.43v-4.15c0-.13.17-.24.36-.24h4.07zM73 39.55a98.93 98.93 0 0 1-14 .71c-4.65.06-9.3.08-14 .11s-9.3 0-14-.11a101.93 101.93 0 0 1-14-.71v-.44a100.37 100.37 0 0 1 14-.71c4.65-.06 9.3-.08 14-.11s9.31 0 14 .11a102 102 0 0 1 14 .71z"/><path class="cls-5" d="M87.83 67.57H0v21.26h3.3L45 88.7c14.78.06 29.55.07 44.32.15V67.57zM60.41 80.38c0 .93-.08 1.86-.13 2.79a.22.22 0 0 1-.43 0c0-.93-.09-1.86-.13-2.79s0-1.58-.08-2.37c-2.42.06-4.85.1-7.26.1l-7.7.06-7.68-.06c-2.44 0-4.88-.07-7.31-.15 0 .81-.07 1.6-.13 2.4s-.1 1.37-.15 2c0 .06-.06.11-.12.1a.1.1 0 0 1-.09-.1c-.06-.67-.11-1.36-.16-2-.05-.93-.1-1.86-.14-2.81a.38.38 0 0 1 .37-.39c2.57-.1 5.13-.17 7.7-.17l7.69-.06 7.7.06c2.56 0 5.13.06 7.69.12a.47.47 0 0 1 .41.46c.02.93-.01 1.87-.05 2.81z"/><path class="cls-6" d="M34.78 34.58h37.05a1.2 1.2 0 0 0 .8-.31.87.87 0 0 0 .31-.71l-.56-12.66a.8.8 0 0 0-.84-.7h-37l.26 12.89z"/><path class="cls-8" d="M78.37 39h-67"/><path class="cls-2" d="M78.37 39.25a127 127 0 0 1-16.75.81c-5.59.08-11.17.1-16.75.12s-11.17 0-16.75-.12a126.88 126.88 0 0 1-16.75-.81v-.5a126.88 126.88 0 0 1 16.75-.81c5.58-.08 11.16-.1 16.75-.12s11.16 0 16.75.12a127 127 0 0 1 16.75.81z"/></g></g></svg>