<svg xmlns="http://www.w3.org/2000/svg" viewBox="0 0 1600 1168"><defs><style>.cls-1{fill:#46799A}.cls-2{fill:#CCCED0}.cls-3{fill:#E1E2E2}.cls-4{fill:#fff}.cls-5{fill:#ddf8ff}.cls-6{fill:#204A69}.cls-7{fill:#00be28}.cls-8{fill:none}</style></defs><title>jetpack-security</title><g id="jetpack-security"><path class="cls-1" d="M224.83 285V182.11a64.9 64.9 0 0 1 64.9-64.9h960.8a64.9 64.9 0 0 1 64.9 64.9V285z"/><path class="cls-2" d="M1315.43 1040.62V880.35a160.16 160.16 0 0 1-160 160.27h-930.6"/><path class="cls-3" d="M224.83 285h1090.71v392.74H224.83z"/><path class="cls-2" d="M352.43 781H684.5v259.59H352.43z"/><path class="cls-4" d="M1019.43 529.8h-667v-74.91h599.14a68.08 68.08 0 0 1 68.08 68z"/><path class="cls-2" d="M785 781h405.34v259.59H785z"/><path class="cls-1" d="M326.91 1043.37l-100.32.66h-3.41v-3.41c0-60.06-1.43-120.12-2.75-180.17l-3.85-180.07-2-180.17-.88-180.06V185.08a84.46 84.46 0 0 1 3-25.85 80.64 80.64 0 0 1 12.1-23.43 76.36 76.36 0 0 1 44-28.38 108.28 108.28 0 0 1 24.64-1.87h472.75l360.12-1.32h112.63a106.38 106.38 0 0 1 25.3 2.2 77 77 0 0 1 44 28.82 76 76 0 0 1 12.54 24 86.68 86.68 0 0 1 3.52 26v135l-1.1 720.47v11h-258c-82.38 0-165-.77-247.16-1.54l-247.16-4.4c-83.2-1.86-165.59-1.64-247.97-2.41zm0-5.5c82.38-.77 165-.66 247.15-2.53l247.16-4.4c82.39-.66 165-1.65 247.16-1.54h247l-11 11-1.1-720.47V185.08a60.33 60.33 0 0 0-2.31-18.37 54.86 54.86 0 0 0-8.47-16 51.4 51.4 0 0 0-29.7-19.25 79.51 79.51 0 0 0-19.36-1.32h-113.13l-360.12-.66H297.43a77.82 77.82 0 0 0-19.8 1.43 52.54 52.54 0 0 0-30 19 54.12 54.12 0 0 0-11 35.09v315.21L235 680.38l-3 180.07c-1 60-2 120.11-2 180.17l-3.41-3.52z"/><path class="cls-5" d="M1369.66 285H170.6"/><path class="cls-6" d="M1369.55 287.7c-99.88 8.91-199.86 8.25-299.74 8.8l-299.73 1.43-299.85-1.43c-99.88-.55-199.86 0-299.74-8.8v-5.5c99.88-8.91 199.86-8.25 299.74-8.8l299.85-1.4 299.73 1.43c99.88 0 199.86 0 299.74 8.8z"/><rect class="cls-7" x="1065.74" y="789.39" width="374.09" height="306.67" rx="38.5" ry="38.5"/><path class="cls-7" d="M1401.34 1103.86l-161.92.55H1118a166.53 166.53 0 0 1-22-.55 48.71 48.71 0 0 1-22.55-9.68 50.25 50.25 0 0 1-14.52-20.45 62.61 62.61 0 0 1-3.08-23.21v-40.59l-1-80.74V828.11a50.16 50.16 0 0 1 49.94-50.27h283.35a157 157 0 0 1 22 .88 48.47 48.47 0 0 1 36.4 32.56 58.17 58.17 0 0 1 2.75 23.32v40.47l-.88 81v101.2a48 48 0 0 1-6.27 23.31 46.72 46.72 0 0 1-40.8 23.28zm0-15.73a30.67 30.67 0 0 0 26.5-15.94 32 32 0 0 0 4-15.4V956l-.77-81v-40.4a40.17 40.17 0 0 0-2-16.5 28.53 28.53 0 0 0-8.69-12 27.5 27.5 0 0 0-13.41-5.94c-4.07-.66-12 0-18.48 0h-283.37a27.05 27.05 0 0 0-23.43 13.53 28.16 28.16 0 0 0-3.74 13.64v101.2l-.66 81v40.59a42.23 42.23 0 0 0 1.65 16.61 28 28 0 0 0 8.47 12.32 28.42 28.42 0 0 0 13.64 6.37 151.86 151.86 0 0 0 18.59.66h121.43z"/><path class="cls-4" d="M1302 1006.19l-24.75-52.25a13.42 13.42 0 0 1 2.42-15.18 37.51 37.51 0 1 0-53.9 0 13.63 13.63 0 0 1 2.53 15.29l-24.74 52.14a3 3 0 0 0 1.34 4 2.89 2.89 0 0 0 1.3.31h93.16a3 3 0 0 0 3-3 2.93 2.93 0 0 0-.36-1.31z"/><path class="cls-7" d="M1354.26 789.39H1305v-70.62a44.67 44.67 0 0 0-44.66-44h-15.07a44.66 44.66 0 0 0-44.65 44v70.62h-56.76v-75.9a100.86 100.86 0 0 1 100.84-100.86h16.17a100.87 100.87 0 0 1 100.87 100.86v75.9"/><path class="cls-7" d="M1354.26 797.2l-49.26.8a7.82 7.82 0 0 1-8-7.59v-.22l-1.32-73.37a35.31 35.31 0 0 0-14.08-25.74 34.49 34.49 0 0 0-13-6.16 33.49 33.49 0 0 0-7.26-1h-17.74a32 32 0 0 0-7.15 1 34.79 34.79 0 0 0-25.63 31v73.26a11 11 0 0 1-11 11h-56.76a11 11 0 0 1-11-11V713.6a120.1 120.1 0 0 1 1.44-16.6 105.27 105.27 0 0 1 9.9-32 111.4 111.4 0 0 1 76.22-60.16 145 145 0 0 1 33-2.64 138.86 138.86 0 0 1 32.34 3 112.59 112.59 0 0 1 30.8 12.32 111.26 111.26 0 0 1 44 48.17 100.22 100.22 0 0 1 9.24 31.57 119.81 119.81 0 0 1 1.1 16.39v15.18l-.55 60.61a7.37 7.37 0 0 1-14.63 0l-1.1-60.61V713.6a115.24 115.24 0 0 0-1.43-13.75 87.48 87.48 0 0 0-8.47-26.07 90.68 90.68 0 0 0-37.18-39.15 92.07 92.07 0 0 0-25.41-9.57 124.82 124.82 0 0 0-27.83-2 117.69 117.69 0 0 0-27.83 2.31 90.3 90.3 0 0 0-61.37 49.05 84.86 84.86 0 0 0-7.81 25.74 107.76 107.76 0 0 0-1.1 13.42v75.79l-11-11h56.76l-11 11v-74.89a55 55 0 0 1 41.46-48.48 56 56 0 0 1 11-1.54h19.25a48.12 48.12 0 0 1 11 1.65 55.09 55.09 0 0 1 20 9.9 53.93 53.93 0 0 1 20.35 38.39v74.8l-8-8 49.28.77a7.15 7.15 0 0 1 7.15 7.15v.22a7.27 7.27 0 0 1-6.57 7.89c-.28-.04-.54-.03-.81-.03z"/></g><g id="clear_rectangle" data-name="clear rectangle"><path id="Layer_4" data-name="Layer 4" class="cls-8" d="M0 0h1600v1168H0z"/></g></svg>