<svg xmlns="http://www.w3.org/2000/svg" viewBox="0 0 1600 1168"><defs><style>.cls-1{fill:#6F93AD}.cls-2{fill:#46799A}.cls-3{fill:#CCCED0}.cls-4{fill:#E1E2E2}.cls-5{fill:#fff}.cls-6,.cls-9{fill:none}.cls-6{stroke:#CCCED0;stroke-miterlimit:10;stroke-width:11.41px}.cls-7{fill:#00be28}.cls-8{fill:#204A69}</style></defs><title>jetpack-themes</title><g id="jetpack-themes"><g id="Layer_2" data-name="Layer 2"><g id="Layer_1-2" data-name="Layer 1-2"><path class="cls-1" d="M543.1 757.13V123a48 48 0 0 1 48-48h709.73a48 48 0 0 1 48 48v634.13z"/><path class="cls-2" d="M625.53 313.91H870.7v337.68H625.53zm338.49 0h287.56v356.15H964zM543.1 238.47V123a48 48 0 0 1 48-48h709.73a48 48 0 0 1 48 48v115.47z"/><path class="cls-3" d="M250 1119.17V491.65a47.69 47.69 0 0 1 47.91-47.47h709.81a47.69 47.69 0 0 1 47.84 47.47v627.52z"/><path class="cls-4" d="M856.27 602.5H336.21v-19.65a42.47 42.47 0 0 1 42.17-42.55h477.89zM558.55 727.62H336.21V665.5h280.34v4.12a58 58 0 0 1-58 58z"/><path class="cls-1" d="M250 830.51h426.32v288.66H250z"/><path class="cls-5" d="M652.84 830.51h398v288.66h-398z"/><path class="cls-6" d="M1050.87 830.51V1115h-398"/><path class="cls-7" d="M978.67 881.37v172.37H796.58"/><path class="cls-8" d="M1071.48 833.09c-35 4.56-70.07 6.62-105 7.8s-70.07 1-105 1.47c-70.07.89-139.84 1-210.13 1.33s-139.84-.44-210.06-1.33c-35-.44-70-.51-105-1.47s-70-2.87-105-7.8v-5.74c35-4.64 70-6.7 105-7.88s70.06-1 105-1.47c70.07-.88 139.85-1 210.06-1.32s139.84.44 210.13 1.32c35 .44 70 .52 105 1.47a1008.55 1008.55 0 0 1 105 7.88z"/></g></g></g><g id="clear_rectangle" data-name="clear rectangle"><path id="Layer_4" data-name="Layer 4" class="cls-9" d="M0 0h1600v1168H0z"/></g></svg>