<svg xmlns="http://www.w3.org/2000/svg" viewBox="0 0 128.68 100.09"><defs><style>.cls-1{fill:#00a9de}.cls-2{fill:#74dcfc}.cls-3{fill:#fff}.cls-4{fill:#c8d7e2}.cls-5{fill:#c2f4ff}.cls-6{fill:#00be28}.cls-7{fill:#0084c0}</style></defs><title>illustration-apps-jetpack</title><g id="Layer_2" data-name="Layer 2"><g id="Layer_1-2" data-name="Layer 1"><path class="cls-1" d="M57.06 80.11h39.53v17.5H57.06z"/><path class="cls-2" d="M27.39 0h101.29v82H22.48V4.92A4.92 4.92 0 0 1 27.39 0z"/><path class="cls-3" d="M31.29 9.97h88.1v62.07h-88.1z"/><path class="cls-1" d="M121.45 72.41c-7.73.77-15.45.66-23.17.68H75.12L52 72.82c-7.72-.11-15.44-.09-23.15-.95v-.5c7.73-.76 15.45-.65 23.17-.68h23.16L98.3 71c7.72.12 15.44.1 23.15 1zM108.65 98.53a111.41 111.41 0 0 1-15.65.68H77.31c-5.23 0-10.46-.13-15.69-.25A111.5 111.5 0 0 1 45.9 98v-.5a112.86 112.86 0 0 1 15.69-.68h15.69c5.23 0 10.47.18 15.72.26a112.93 112.93 0 0 1 15.68 1z"/><path class="cls-3" d="M120.4 76.91a9.81 9.81 0 0 1-3.36.94 32.23 32.23 0 0 1-3.39.26h-3.39a14.92 14.92 0 0 1-3.42-.44.42.42 0 0 1-.29-.52.43.43 0 0 1 .26-.28 14.92 14.92 0 0 1 3.37-.72c1.13-.12 2.25-.22 3.38-.28a32.13 32.13 0 0 1 3.4 0 9.54 9.54 0 0 1 3.42.67.22.22 0 0 1 .12.29.27.27 0 0 1-.1.08z"/><circle class="cls-4" cx="8.29" cy="37.79" r="1.97"/><circle class="cls-2" cx="8.29" cy="29.38" r="1.97"/><circle class="cls-4" cx="8.29" cy="20.42" r="1.97"/><circle class="cls-4" cx="16.35" cy="20.42" r="1.97"/><path class="cls-5" d="M99.15 61.17H52.28v-34.5h50v31.38a3.13 3.13 0 0 1-3.13 3.12z"/><path class="cls-6" d="M57.47 18.84h39.62a5.19 5.19 0 0 1 5.19 5.16v3.64h-50V24a5.19 5.19 0 0 1 5.19-5.16z"/><path class="cls-3" d="M55.67 46a30.56 30.56 0 0 1 12.18-.59 61.72 61.72 0 0 1 11.8 2.77A69.46 69.46 0 0 1 90.76 53c3.5 2 7 4.21 9.52 7.68a.66.66 0 0 1-1 .81v-.06A20.24 20.24 0 0 0 95 57.65a46 46 0 0 0-5-3 75.47 75.47 0 0 0-11-4.56 67.44 67.44 0 0 0-11.4-2.86c-1-.14-1.94-.22-2.91-.34s-1.94-.07-2.91-.14-1.93.08-2.9.11-1.9.31-2.85.46H56a.67.67 0 0 1-.29-1.3zM5 99.33a4 4 0 0 1-4-4V49.88a4 4 0 0 1 4-4h21a4 4 0 0 1 4 4v45.48a4 4 0 0 1-4 4H8.68"/><path class="cls-5" d="M1.07 54.64h28.91V90.5H1.07z"/><path class="cls-2" d="M94.41 39.85a4.78 4.78 0 0 1-3.19 1.83 5 5 0 0 1-3.62-.92 4.95 4.95 0 0 1-.95-7 4.92 4.92 0 0 1 8.8 2.58 5 5 0 0 1-1.04 3.51zm-1-.82a3.29 3.29 0 1 0-4.75.46 3.26 3.26 0 0 0 2.44.78A3.46 3.46 0 0 0 93.36 39zM23.89 73.55a4.84 4.84 0 0 1-3.19 1.83 4.94 4.94 0 0 1-3.61-.92 4.94 4.94 0 0 1-1-7A4.93 4.93 0 0 1 24.94 70a5 5 0 0 1-1.05 3.55zm-1.05-.83a3.26 3.26 0 0 0 .66-2.53 3.3 3.3 0 0 0-5.82-1.54A3.28 3.28 0 0 0 20.54 74a3.41 3.41 0 0 0 2.3-1.28z"/><path class="cls-6" d="M1.44 54.64h28.17v6.46H1.44z"/><path class="cls-3" d="M4.48 81.77a17.8 17.8 0 0 1 7.1-1.07 25.15 25.15 0 0 1 7 1.24A21.26 21.26 0 0 1 25 85.25 13.92 13.92 0 0 1 29.42 91a.68.68 0 0 1-.38.87.67.67 0 0 1-.83-.3 14.57 14.57 0 0 0-4.35-4.79A21.66 21.66 0 0 0 18 83.82a27.26 27.26 0 0 0-6.51-1.31 19.68 19.68 0 0 0-6.56.49.66.66 0 0 1-.42-1.26z"/><path class="cls-7" d="M5 99.83A4.51 4.51 0 0 1 .78 97a4.18 4.18 0 0 1-.29-1.4v-1.23L.42 92l-.15-9.68-.19-19.27L0 53.41v-3.63a4.89 4.89 0 0 1 .26-1.51 5.07 5.07 0 0 1 4.62-3.44l19.31-.06H26c.25 0 .52 0 .77.06a5 5 0 0 1 2.76 1.33A5.17 5.17 0 0 1 31 48.83a7.68 7.68 0 0 1 .11 1.43V61.1c0 6.43 0 12.85-.1 19.28L30.89 90l-.05 4.82v.62a4.41 4.41 0 0 1-.08.72 4.51 4.51 0 0 1-.47 1.38 4.69 4.69 0 0 1-3.4 2.46 7.12 7.12 0 0 1-1.34.07h-2.41l-4.82-.07-9.64-.16a.5.5 0 0 1 0-1l9.64-.15 4.82-.07h2.41a5.34 5.34 0 0 0 1.05-.08 3.16 3.16 0 0 0 .9-.34 3.24 3.24 0 0 0 1.3-1.37 3.14 3.14 0 0 0 .28-.9 2.42 2.42 0 0 0 0-.47v-.59L29.06 90 29 80.38c-.08-6.43-.06-12.85-.09-19.28v-9.63a15.5 15.5 0 0 0-.07-2.17 2.83 2.83 0 0 0-.83-1.46 2.77 2.77 0 0 0-1.51-.74 3 3 0 0 0-.43 0h-1.8L5 47a2.88 2.88 0 0 0-2.7 2 3.18 3.18 0 0 0-.16.86v3.59l-.08 9.64-.19 19.23L1.72 92v3.58a3.17 3.17 0 0 0 .19 1A3.44 3.44 0 0 0 5 98.83a.5.5 0 0 1 0 1z"/></g></g></svg>