<svg xmlns="http://www.w3.org/2000/svg" viewBox="0 0 126.07 101.59"><defs><style>.cls-1{fill:#00a9de}.cls-2{fill:#74dcfc}.cls-3{fill:#c2f4ff}.cls-4{fill:#0084c0}.cls-5{fill:#fff}.cls-6{fill:#c8d7e2}.cls-7{fill:#004f84}.cls-8{fill:#00be28}</style></defs><title>illustration-video-jetpack</title><g id="Layer_2" data-name="Layer 2"><g id="Layer_1-2" data-name="Layer 1"><path class="cls-1" d="M0 41.65V18.17a5 5 0 0 1 5-5h28.39v28.48z"/><path class="cls-2" d="M66.47 30l-.31-15.2-.08-7.67v-1a7.9 7.9 0 0 1 .07-1.07A5.84 5.84 0 0 1 66.88 3 6 6 0 0 1 70.21.35a7.67 7.67 0 0 1 1.08-.23 9.8 9.8 0 0 1 1 0h28.04a1 1 0 0 1 1 1v28.52a1 1 0 0 1-1 1c-5.68 0-11.36-.1-17-.17zm.94-.95L84 28.73c5.47-.08 10.92-.15 16.37-.17l-1 1L99.35 1l1 1H71.5a4.74 4.74 0 0 0-.75.15 4.2 4.2 0 0 0-2.36 1.86 4.08 4.08 0 0 0-.52 1.44 4.88 4.88 0 0 0-.06.79v.91l-.08 7.27z"/><path class="cls-3" d="M92.67 43.09V19.61a5 5 0 0 1 5-5h28.35v28.48z"/><path class="cls-4" d="M91.18 92.68V69.2a5 5 0 0 1 5-5h28.35v28.48z"/><path class="cls-5" d="M7.12 81.84c1.19-.4 105.34 0 105.34 0s6.68-21.92-11.07-26.53c-5.32-1.38-8.4-.86-10-.19a1 1 0 0 1-1.39-.75c-.38-4.37-2.89-16.45-18.92-16.45-17.65 0-25.38 16.6-25.38 16.6s-3.94-5.73-10.9-6.29C14.21 46.57 9.16 69.34 9.16 69.34"/><path class="cls-6" d="M7 81.48a3.58 3.58 0 0 1 .52-.07H10.41l3.29-.07 6.59-.1L33.45 81c8.78-.08 17.56-.14 26.34-.12h52.67l-.87.64a31.62 31.62 0 0 0 .89-12.5 14.84 14.84 0 0 0-5.9-10.36 16.49 16.49 0 0 0-5.58-2.43 22.88 22.88 0 0 0-6.16-.78A9.26 9.26 0 0 0 92 56l-.16.06a1.73 1.73 0 0 1-.37.11 2 2 0 0 1-.78 0 2 2 0 0 1-1.32-.85 1.84 1.84 0 0 1-.29-.82v-.41l-.1-.77a19 19 0 0 0-1.8-5.91 14.9 14.9 0 0 0-3.75-4.79 15.48 15.48 0 0 0-5.41-2.86 22.53 22.53 0 0 0-6.19-1 26.4 26.4 0 0 0-6.27.58c-8.25 1.76-15.26 8-19 15.51a.9.9 0 0 1-1.2.4A1 1 0 0 1 45 55a15 15 0 0 0-9.64-6 21.52 21.52 0 0 0-11.66 1.66 23.28 23.28 0 0 0-9 7.74 35 35 0 0 0-5.22 11 .26.26 0 0 1-.32.18.25.25 0 0 1-.18-.3 35.48 35.48 0 0 1 4.95-11.37 24.29 24.29 0 0 1 9.29-8.32 22.9 22.9 0 0 1 12.38-2 14.92 14.92 0 0 1 3.16.72 16.42 16.42 0 0 1 2.93 1.4A17.11 17.11 0 0 1 46.43 54l-1.53.13a30.2 30.2 0 0 1 3.72-5.59 37.42 37.42 0 0 1 4.64-4.78 27.72 27.72 0 0 1 11.85-6.05 28.18 28.18 0 0 1 6.67-.66 24.13 24.13 0 0 1 6.67 1 17.14 17.14 0 0 1 6.06 3.15 16.83 16.83 0 0 1 4.27 5.36 21 21 0 0 1 2 6.48l.11.85v.4a.08.08 0 0 0 0-.05H91l.21-.08a11 11 0 0 1 3.51-.67 23.58 23.58 0 0 1 6.73.85 18.47 18.47 0 0 1 6.24 2.81 15.26 15.26 0 0 1 4.55 5.17 19.46 19.46 0 0 1 2.08 6.5 30.16 30.16 0 0 1 .16 6.71 36 36 0 0 1-1.18 6.61.88.88 0 0 1-.86.64l-52.67-.27-26.34-.17-13.17-.09H7.08a.37.37 0 0 1-.38-.36.36.36 0 0 1 .3-.41z"/><path class="cls-5" d="M101.79 22.73h18.63v4.51H98.33v-1.06a3.46 3.46 0 0 1 3.46-3.45zM109.42 31.4H120v4.5h-14v-1.05a3.46 3.46 0 0 1 3.42-3.45z"/><path class="cls-2" d="M6.27 36.18a10.8 10.8 0 0 1 11.37-6.89 10.46 10.46 0 0 0 10.67-5.4.37.37 0 0 1 .69.18v12.11z"/><path class="cls-3" d="M32.09 10.32h5.53v7.86h-8.46v-4.93a2.93 2.93 0 0 1 2.93-2.93zM76.7 16.09h4v6.71h-7.17v-3.53a3.18 3.18 0 0 1 3.17-3.18z"/><path class="cls-7" d="M79.11 10.36a2.87 2.87 0 0 1 2.26-.81c.76-.07 1.51-.12 2.27-.12s1.51.05 2.26.12a2.87 2.87 0 0 1 2.26.81v.5a2.92 2.92 0 0 1-2.26.82c-.75.07-1.51.11-2.26.11s-1.51 0-2.27-.11a2.92 2.92 0 0 1-2.26-.82z"/><path class="cls-8" d="M27.93 101.59V78.11a5 5 0 0 1 5-5h28.39v28.53z"/><path class="cls-5" d="M41.62 82.78l8.44 5.28-8.44 5.7V82.78z"/></g></g></svg>