<svg xmlns="http://www.w3.org/2000/svg" viewBox="0 0 1600 1168"><defs><style>.cls-1{fill:#fff}.cls-2{fill:#CCCED0}.cls-3{fill:#204A69}.cls-4,.cls-5{fill:none}.cls-4{stroke:#204A69;stroke-linecap:round;stroke-linejoin:round;stroke-width:72.22px}</style></defs><title>jetpack-search</title><g id="jetpack-search"><g id="Layer_2" data-name="Layer 2"><g id="Layer_1-2" data-name="Layer 1-2"><path class="cls-1" d="M1282.92 676.57c-32.91-89.23-192.63-155.49-332.14-119"/><path class="cls-2" d="M1273.85 679.51a43.31 43.31 0 0 1-7.86-8.64 48.75 48.75 0 0 1-2.85-4.41c-1.12-1.38-2.24-2.76-3.28-4.23l-6-8.64c-2.07-2.85-4.75-5.35-7-8.12a135.34 135.34 0 0 0-15.55-15.11 191 191 0 0 0-17.23-13.36 298.79 298.79 0 0 0-80.77-38.19 387.12 387.12 0 0 0-88.89-16.32c-30.32-1.38-60.47 0-92.17-.61a5 5 0 0 1-4.84-5.09 5.2 5.2 0 0 1 2.6-4.24 185.37 185.37 0 0 1 95.62-19.78 345.84 345.84 0 0 1 97.44 15.23 297.6 297.6 0 0 1 89.23 43.71 214.59 214.59 0 0 1 19.61 16 162.39 162.39 0 0 1 17.28 18.48c2.76 3.37 5.7 6.48 8.64 10l7.08 11.06a61 61 0 0 1 3.2 5.61c.69 2.16 1.55 4.24 2.07 6.4a49.18 49.18 0 0 1 2.16 13.3 10.11 10.11 0 0 1-10 10.11 9.69 9.69 0 0 1-6.39-2.16z"/><path class="cls-1" d="M818.45 571.44c180.45-66.86 351.31 58.22 411.44 117.22"/><path class="cls-2" d="M815.08 562.37a127.67 127.67 0 0 1 55.28-19.78c4.84-.86 9.59-2 14.51-2.68l14.69-1.29a195.88 195.88 0 0 1 29.44-1.47 353.24 353.24 0 0 1 115.5 19.26 470.28 470.28 0 0 1 104.26 51.05 271.73 271.73 0 0 1 84.48 77.75 4.83 4.83 0 0 1-1.23 6.73l-.15.09a4.89 4.89 0 0 1-5.18 0c-32.65-19.35-62-40.6-93.47-59.52a526.16 526.16 0 0 0-98.72-45.51 357.57 357.57 0 0 0-105.65-18.92 172.4 172.4 0 0 0-26.69.69l-13.39.78c-4.41.52-8.64 1.47-13.22 2.16L862.33 574l-6.65 1.12-6.4 1.9a78.55 78.55 0 0 1-27.28 3.32h-1.64a10.11 10.11 0 0 1-9.25-10.71 10.27 10.27 0 0 1 3.97-7.26z"/><path class="cls-1" d="M998.55 878.19c16.45-88.29-50.79-146.85-107.28-163.35-116-34.56-253.88 32.74-270.64-48-14.69-70.49 282-210.95 568.4 75.06"/><path class="cls-2" d="M989.05 876.37A256.79 256.79 0 0 1 986.2 843a109.8 109.8 0 0 0-7.2-31.24 127 127 0 0 0-37.92-51.83 156.77 156.77 0 0 0-57.71-30.41 274.9 274.9 0 0 0-67.89-9.07c-23.33-.52-47.08.95-71.27 2.51a419.47 419.47 0 0 1-75.84 0 84.19 84.19 0 0 1-41.46-15.81 57 57 0 0 1-15.7-19.15 71.06 71.06 0 0 1-4.49-11.05 62.75 62.75 0 0 1-2.59-12.36 51.34 51.34 0 0 1 5.7-25.91 84.41 84.41 0 0 1 12.7-18.14 148.44 148.44 0 0 1 31.79-25.4A268 268 0 0 1 726.19 566a363.2 363.2 0 0 1 75-11.06 437.13 437.13 0 0 1 148.4 20A494.1 494.1 0 0 1 1083 640.46a576.35 576.35 0 0 1 109.7 98 4.75 4.75 0 0 1 0 6.72 4.83 4.83 0 0 1-6.39 0A835.35 835.35 0 0 0 1070.77 660a553 553 0 0 0-129.06-57.61 410.34 410.34 0 0 0-138.64-17.28 337.66 337.66 0 0 0-68.5 10.71 234.38 234.38 0 0 0-62.63 25.92A119.47 119.47 0 0 0 646.46 642a32.37 32.37 0 0 0-10.37 20.38 40.68 40.68 0 0 0 3.63 11.15 26.86 26.86 0 0 0 7.08 8.63 54.26 54.26 0 0 0 25.92 8.64 398.66 398.66 0 0 0 69.1-.6c24.19-1.56 48.9-3.2 74-2.68a309.9 309.9 0 0 1 75.93 10.19 175.74 175.74 0 0 1 69.11 37.84 157.55 157.55 0 0 1 45.52 65.3 140.69 140.69 0 0 1 8.73 39.83 68.27 68.27 0 0 1-7.09 39 10.18 10.18 0 0 1-13.71 4.42l-.37-.19a9.86 9.86 0 0 1-4.92-6.83z"/><path class="cls-3" d="M1013 878.19l-110.16 77.48L568 504.24l110.14-77.49z"/><circle class="cls-4" cx="546.69" cy="307.03" r="199.03"/><path class="cls-1" d="M1018.16 1159.1c-270.38-113.1-348.9-478.73-282.9-502.48C814.9 627.94 913 917.75 968.49 909.2c31.7-4.84 40.52-30.5 39.82-56.76"/><path class="cls-2" d="M1014.45 1168c-44.84-11.49-83.71-38.44-119-67.21a542.68 542.68 0 0 1-92.77-100.72A618 618 0 0 1 736 880.78a498.24 498.24 0 0 1-37-132.43 281.26 281.26 0 0 1-2-35.41 143.4 143.4 0 0 1 5-37.32 66.86 66.86 0 0 1 9.5-20 45.32 45.32 0 0 1 9.59-9.42 37.27 37.27 0 0 1 12.61-5.78 50.51 50.51 0 0 1 24.1-.52 68.06 68.06 0 0 1 20.05 8.1 136.57 136.57 0 0 1 28.93 24.18 310.46 310.46 0 0 1 22.38 27.13c13.73 18.48 25.91 37.57 37.57 56.75 23.41 38.1 44.84 77.75 69.11 112.3a133.06 133.06 0 0 0 19.61 22.89 28.32 28.32 0 0 0 9.15 5.75 3.26 3.26 0 0 0 1.39 0h2.16a39.45 39.45 0 0 0 6.47-1.12 32.57 32.57 0 0 0 20-14.78 74.4 74.4 0 0 0 8.63-28.76 4.84 4.84 0 0 1 5.37-4.24h.08a4.74 4.74 0 0 1 4.14 4.06 70.25 70.25 0 0 1-2.68 36.36A49.62 49.62 0 0 1 982 917.23a64.69 64.69 0 0 1-9.59 3l-2.51.6h-3.62a34.71 34.71 0 0 1-6.83-.52 48.37 48.37 0 0 1-20-9.76A150.44 150.44 0 0 1 914 884.67c-28.33-36.72-49.58-75.76-73.33-113-11.84-18.66-23.85-37-36.8-54a169.49 169.49 0 0 0-42.59-42.42 25.94 25.94 0 0 0-19.7-4.23c-1.81.61-1.81.52-2.5 1a11.18 11.18 0 0 0-2.16 2.24 33.71 33.71 0 0 0-4.58 10.11 114.15 114.15 0 0 0-3.54 28.68 255.85 255.85 0 0 0 1.9 31.18 497.53 497.53 0 0 0 34.55 124 587.53 587.53 0 0 0 62.29 113.86A508.21 508.21 0 0 0 913.9 1078a463 463 0 0 0 51.83 38.09c18.22 11.58 36.8 22.2 55.45 33.87a9.76 9.76 0 0 1-7.6 17.27z"/></g></g></g><g id="clear_rectangle" data-name="clear rectangle"><path id="Layer_4" data-name="Layer 4" class="cls-5" d="M0 0h1600v1168H0z"/></g></svg>