<svg xmlns="http://www.w3.org/2000/svg" viewBox="0 0 113.49 126.92"><defs><style>.cls-1{fill:#fff}.cls-2{fill:#c8d7e2}.cls-3{fill:#004f84}.cls-4{fill:none;stroke:#004f84;stroke-linecap:round;stroke-linejoin:round;stroke-width:8.36px}</style></defs><title>illustration-search-jetpack</title><g id="Layer_2" data-name="Layer 2"><g id="Layer_1-2" data-name="Layer 1"><path class="cls-1" d="M112.45 70C108.64 59.67 90.15 52 74 56.22"/><path class="cls-2" d="M111.4 70.34a5 5 0 0 1-.91-1 5.54 5.54 0 0 1-.33-.51c-.13-.16-.26-.32-.38-.49l-.69-1c-.24-.33-.55-.62-.81-.94a15.7 15.7 0 0 0-1.8-1.75 22.18 22.18 0 0 0-2-1.55 34.59 34.59 0 0 0-9.35-4.42 44.78 44.78 0 0 0-10.29-1.89c-3.51-.16-7 0-10.67-.07a.58.58 0 0 1-.56-.59.6.6 0 0 1 .3-.49 21.45 21.45 0 0 1 11.07-2.29 40.05 40.05 0 0 1 11.28 1.76 34.47 34.47 0 0 1 10.33 5.06 25.1 25.1 0 0 1 2.27 1.85 18.89 18.89 0 0 1 2 2.14c.32.39.66.75 1 1.16l.82 1.28a6.84 6.84 0 0 1 .37.65c.08.25.18.49.24.74a5.7 5.7 0 0 1 .25 1.54 1.17 1.17 0 0 1-1.16 1.17 1.12 1.12 0 0 1-.74-.25z"/><path class="cls-1" d="M58.68 57.83c20.89-7.74 40.67 6.74 47.63 13.57"/><path class="cls-2" d="M58.29 56.78a14.78 14.78 0 0 1 6.4-2.29c.56-.1 1.11-.23 1.68-.31l1.7-.15a22.85 22.85 0 0 1 3.41-.17 40.91 40.91 0 0 1 13.37 2.23A54.43 54.43 0 0 1 96.92 62a31.46 31.46 0 0 1 9.78 9 .56.56 0 0 1-.16.79.57.57 0 0 1-.6 0c-3.78-2.24-7.18-4.7-10.82-6.89a60.89 60.89 0 0 0-11.43-5.27 41.38 41.38 0 0 0-12.23-2.19 19.94 19.94 0 0 0-3.09.08l-1.55.09c-.51.06-1 .17-1.53.25l-1.53.26-.77.13-.74.22a9.09 9.09 0 0 1-3.16.39h-.19a1.17 1.17 0 0 1-1.07-1.24 1.19 1.19 0 0 1 .46-.84z"/><path class="cls-1" d="M79.53 93.34c1.9-10.22-5.88-17-12.42-18.91-13.43-4-29.39 3.79-31.33-5.56-1.7-8.16 32.65-24.42 65.8 8.69"/><path class="cls-2" d="M78.43 93.13a29.74 29.74 0 0 1-.33-3.86 12.72 12.72 0 0 0-.83-3.62 14.7 14.7 0 0 0-4.39-6 18.13 18.13 0 0 0-6.68-3.52 31.84 31.84 0 0 0-7.86-1.05c-2.7-.06-5.45.11-8.25.29a48.43 48.43 0 0 1-8.78 0 9.75 9.75 0 0 1-4.8-1.83 6.6 6.6 0 0 1-1.82-2.22 8.18 8.18 0 0 1-.52-1.28 7.24 7.24 0 0 1-.3-1.43 5.94 5.94 0 0 1 .66-3 9.75 9.75 0 0 1 1.47-2.1 17.17 17.17 0 0 1 3.68-2.94A31 31 0 0 1 48 57.2a42 42 0 0 1 8.68-1.28 50.61 50.61 0 0 1 17.18 2.31 57.2 57.2 0 0 1 15.44 7.59A66.73 66.73 0 0 1 102 77.17a.55.55 0 0 1 0 .78.56.56 0 0 1-.74 0 96.62 96.62 0 0 0-13.37-9.87 64 64 0 0 0-14.94-6.67 47.52 47.52 0 0 0-16.05-2 39 39 0 0 0-7.93 1.24 27.11 27.11 0 0 0-7.25 3A13.9 13.9 0 0 0 38.77 66a3.75 3.75 0 0 0-1.2 2.36 4.62 4.62 0 0 0 .15.62 4.46 4.46 0 0 0 .27.67 3.12 3.12 0 0 0 .82 1 6.29 6.29 0 0 0 3 1 46.16 46.16 0 0 0 8-.07c2.8-.18 5.66-.37 8.57-.31a35.88 35.88 0 0 1 8.79 1.18 20.35 20.35 0 0 1 8 4.38 18.25 18.25 0 0 1 5.27 7.56A16.31 16.31 0 0 1 81.45 89a7.9 7.9 0 0 1-.82 4.51A1.18 1.18 0 0 1 79 94a1.14 1.14 0 0 1-.57-.79z"/><path class="cls-3" d="M81.2 93.34l-12.75 8.97-38.76-52.26 12.75-8.97L81.2 93.34z"/><circle class="cls-4" cx="27.22" cy="27.22" r="23.04"/><path class="cls-1" d="M81.8 125.86c-31.3-13.09-40.39-55.42-32.75-58.17 9.22-3.32 20.57 30.23 27 29.24 3.67-.56 4.69-3.53 4.61-6.57"/><path class="cls-2" d="M81.37 126.89c-5.19-1.33-9.69-4.45-13.78-7.78a62.83 62.83 0 0 1-10.74-11.66 71.58 71.58 0 0 1-7.71-13.81 57.7 57.7 0 0 1-4.28-15.33 32.5 32.5 0 0 1-.23-4.1 16.62 16.62 0 0 1 .57-4.32 7.74 7.74 0 0 1 1.1-2.32 5.23 5.23 0 0 1 1.11-1.09 4.31 4.31 0 0 1 1.46-.67 5.86 5.86 0 0 1 2.79-.06 7.9 7.9 0 0 1 2.32.94 15.81 15.81 0 0 1 3.35 2.8 35.91 35.91 0 0 1 2.59 3.14c1.59 2.14 3 4.35 4.35 6.57 2.71 4.41 5.19 9 8 13a15.43 15.43 0 0 0 2.27 2.65 3.26 3.26 0 0 0 1.06.67.37.37 0 0 0 .16 0h.25a4.52 4.52 0 0 0 .75-.13 3.77 3.77 0 0 0 2.32-1.71 8.61 8.61 0 0 0 1-3.33.56.56 0 0 1 .63-.49.55.55 0 0 1 .48.47 8.15 8.15 0 0 1-.31 4.21 5.75 5.75 0 0 1-3.27 3.32 7.51 7.51 0 0 1-1.11.35l-.29.07h-.42a4 4 0 0 1-.79-.06 5.6 5.6 0 0 1-2.32-1.13 17.43 17.43 0 0 1-2.94-3c-3.28-4.25-5.74-8.77-8.49-13.08-1.37-2.16-2.76-4.28-4.26-6.25a19.6 19.6 0 0 0-4.93-4.91 3 3 0 0 0-2.28-.49c-.21.07-.21.06-.29.12a1.26 1.26 0 0 0-.25.26 3.88 3.88 0 0 0-.53 1.17 13.24 13.24 0 0 0-.41 3.32 29.51 29.51 0 0 0 .22 3.61 57.59 57.59 0 0 0 4 14.35 68 68 0 0 0 7.21 13.18 58.83 58.83 0 0 0 10 11.1 53.79 53.79 0 0 0 6 4.41c2.11 1.34 4.26 2.57 6.42 3.92a1.13 1.13 0 0 1-.88 2z"/></g></g></svg>