<svg xmlns="http://www.w3.org/2000/svg" viewBox="0 0 151.85 142.07"><defs><style>.cls-1{fill:#00a9de}.cls-2{fill:#0084c0}.cls-3{fill:#74dcfc}.cls-4{fill:#c2f4ff}.cls-5{fill:#fff}.cls-6{fill:none;stroke:#74dcfc;stroke-miterlimit:10;stroke-width:1.55px}.cls-7{fill:#00be28}.cls-8{fill:#004f84}</style></defs><title>illustration-themes-jetpack</title><g id="Layer_2" data-name="Layer 2"><g id="Layer_1-2" data-name="Layer 1"><path class="cls-1" d="M42.38 92.68V6.52A6.52 6.52 0 0 1 48.9 0h96.43a6.52 6.52 0 0 1 6.52 6.52v86.16z"/><path class="cls-2" d="M53.58 32.46h33.31v45.88H53.58zM99.57 32.46h39.07v48.39H99.57zM42.38 22.21V6.52A6.52 6.52 0 0 1 48.9 0h96.43a6.52 6.52 0 0 1 6.52 6.52v15.69z"/><path class="cls-3" d="M2.55 141.87V56.61a6.48 6.48 0 0 1 6.52-6.45h96.43a6.48 6.48 0 0 1 6.5 6.45v85.26z"/><path class="cls-4" d="M84.93 71.67H14.27V69A5.77 5.77 0 0 1 20 63.22h64.93zM44.48 88.67H14.27v-8.44h38.09v.56a7.88 7.88 0 0 1-7.88 7.88z"/><path class="cls-1" d="M2.55 102.65h57.93v39.22H2.55z"/><path class="cls-5" d="M57.29 102.65h54.08v39.22H57.29z"/><path class="cls-6" d="M111.37 102.65v38.65H57.29"/><path class="cls-7" d="M101.56 109.56v23.42H76.82"/><path class="cls-8" d="M114.17 103c-4.76.62-9.52.9-14.27 1.06s-9.52.14-14.27.2c-9.52.12-19 .14-28.55.18s-19-.06-28.54-.18c-4.75-.06-9.51-.07-14.27-.2S4.76 103.67 0 103v-.78c4.76-.63 9.51-.91 14.27-1.07s9.52-.14 14.27-.2c9.52-.12 19-.14 28.54-.18s19 .06 28.55.18c4.75.06 9.51.07 14.27.2s9.51.44 14.27 1.07z"/></g></g></svg>