<svg xmlns="http://www.w3.org/2000/svg" viewBox="0 0 1600 1168"><defs><style>.cls-1{fill:#6F93AD}.cls-2{fill:#CCCED0}.cls-3{fill:#E1E2E2}.cls-4{fill:#46799A}.cls-5{fill:#fff}.cls-6{fill:#CCCED0}.cls-7{fill:#204A69}.cls-8{fill:#00be28}.cls-9{fill:none}</style></defs><title>jetpack-video-hosting</title><g id="jetpack-video-hosting"><g id="Layer_2" data-name="Layer 2"><g id="Layer_1-2" data-name="Layer 1-2"><path class="cls-1" d="M149.62 516V273.62A51.61 51.61 0 0 1 201.23 222h293v294z"/><path class="cls-2" d="M835.71 395.72l-3.2-156.89-.82-79.17v-10.32a81.55 81.55 0 0 1 .72-11A60.23 60.23 0 0 1 840 117a61.9 61.9 0 0 1 34.37-27.35 78.57 78.57 0 0 1 11.14-2.37 98.87 98.87 0 0 1 10.33 0h289.42a10.32 10.32 0 0 1 10.32 10.32V392a10.32 10.32 0 0 1-10.32 10.32c-58.63 0-117.26-1-175.47-1.76zm9.71-9.8l171.23-3.31c56.46-.82 112.72-1.55 169-1.75l-10.32 10.32-.21-294.79 10.33 10.32H887.63a49.8 49.8 0 0 0-7.74 1.55 43.36 43.36 0 0 0-24.36 19.2 42.2 42.2 0 0 0-5.37 14.86 51.87 51.87 0 0 0-.62 8.16v9.39l-.82 75z"/><path class="cls-3" d="M1106.14 530.83V288.48a51.61 51.61 0 0 1 51.61-51.61h292.63v294z"/><path class="cls-4" d="M1090.76 1042.69V800.34a51.61 51.61 0 0 1 51.61-51.61H1435v294z"/><path class="cls-5" d="M223.12 930.8c12.28-4.13 1087.29 0 1087.29 0s68.95-226.25-114.26-273.8c-54.91-14.25-86.7-8.88-103.22-2a10.33 10.33 0 0 1-13.61-5.28 10.17 10.17 0 0 1-.73-2.47c-3.93-45.1-29.83-169.79-195.29-169.79-182.18 0-262 171.34-262 171.34s-40.67-59.14-112.51-64.92c-212.49-17.13-264.62 217.9-264.62 217.9"/><path class="cls-6" d="M221.88 927.09a36 36 0 0 1 5.36-.72h29.83l34-.73 68-1 135.84-2.48c90.62-.82 181.25-1.44 271.87-1.24h543.65l-9 6.61a326.27 326.27 0 0 0 9.19-129 153.18 153.18 0 0 0-60.9-106.94 170.39 170.39 0 0 0-57.6-25.08 236 236 0 0 0-63.58-8.05 95.57 95.57 0 0 0-29.31 5.68l-1.65.62a17.64 17.64 0 0 1-3.82 1.13 21.61 21.61 0 0 1-21.68-8.77 19 19 0 0 1-3-8.46v-4.24l-1-7.94a196.3 196.3 0 0 0-18.58-61 154 154 0 0 0-38.73-49.48 160 160 0 0 0-55.84-29.52A232.78 232.78 0 0 0 891 486.14a272.7 272.7 0 0 0-64.72 6c-85.15 18.16-157.51 82.57-196.11 160.09a9.31 9.31 0 0 1-12.39 4.13 10.56 10.56 0 0 1-3.72-2.58 154.77 154.77 0 0 0-99.5-61.93A222 222 0 0 0 394.25 609a240.39 240.39 0 0 0-92.9 79.89 361.48 361.48 0 0 0-53.88 113.51 2.68 2.68 0 0 1-3.3 1.86 2.59 2.59 0 0 1-1.86-3.1 366.3 366.3 0 0 1 51.1-117.36 250.61 250.61 0 0 1 95.89-85.87 236.35 236.35 0 0 1 127.78-20.65 154.56 154.56 0 0 1 32.62 7.43 170.21 170.21 0 0 1 30.24 14.45 176.62 176.62 0 0 1 48.92 44.28l-15.79 1.35a312 312 0 0 1 38.4-57.7 386.33 386.33 0 0 1 47.89-49.34 286.14 286.14 0 0 1 122.32-62.45 290.66 290.66 0 0 1 68.84-6.81 249.29 249.29 0 0 1 68.85 10.32 176.82 176.82 0 0 1 62.55 32.52 173.62 173.62 0 0 1 44.08 55.32 217 217 0 0 1 20.65 66.89l1.13 8.77v4.13a.77.77 0 0 0 0-.52h1.14l2.16-.82a113.55 113.55 0 0 1 36.23-6.92 243.61 243.61 0 0 1 69.47 8.77 190.78 190.78 0 0 1 64.41 29 157.59 157.59 0 0 1 47 53.36 201 201 0 0 1 21.47 67.09 311 311 0 0 1 1.65 69.26 370.69 370.69 0 0 1-12.18 68.23 9.08 9.08 0 0 1-8.87 6.61l-543.65-2.79L494.68 936l-135.94-1h-136a3.83 3.83 0 0 1-3.92-3.72 3.72 3.72 0 0 1 3.06-4.19z"/><path class="cls-5" d="M1200.28 320.68h192.29v46.55h-228v-10.94a35.71 35.71 0 0 1 35.71-35.61zm78.72 89.49h109.21v46.45h-144.48v-10.84a35.72 35.72 0 0 1 35.27-35.61z"/><path class="cls-2" d="M214.34 459.51a111.49 111.49 0 0 1 117.36-71.12 108 108 0 0 0 110.13-55.73 3.82 3.82 0 0 1 7.13 1.85v125z"/><path class="cls-3" d="M480.85 192.59h57.08v81.13h-87.32v-50.89a30.24 30.24 0 0 1 30.24-30.24zm460.46 59.56h41.28v69.25h-74V285a32.81 32.81 0 0 1 32.72-32.85z"/><path class="cls-7" d="M966.18 193a29.64 29.64 0 0 1 23.33-8.36c7.84-.72 15.58-1.24 23.43-1.24s15.58.52 23.33 1.24a29.64 29.64 0 0 1 23.32 8.36v5.16a30.13 30.13 0 0 1-23.32 8.47c-7.75.72-15.59 1.13-23.33 1.13s-15.59 0-23.43-1.13a30.15 30.15 0 0 1-23.33-8.47z"/><path class="cls-8" d="M437.91 1134.66V892.3a51.61 51.61 0 0 1 51.61-51.61h293v294.48z"/><path class="cls-5" d="M579.22 940.51L666.33 995l-87.11 58.83z"/></g></g></g><g id="clear_rectangle" data-name="clear rectangle"><path id="Layer_4" data-name="Layer 4" class="cls-9" d="M0 0h1600v1168H0z"/></g></svg>