<svg xmlns="http://www.w3.org/2000/svg" viewBox="0 0 116.28 91.02"><defs><style>.cls-1{fill:#0084c0}.cls-2{fill:#74dcfc}.cls-3{fill:#c2f4ff}.cls-4{fill:#fff}.cls-5{fill:#ddf8ff}.cls-6{fill:#004f81}.cls-7{fill:#00be28}.cls-8{fill:#073c6e}</style></defs><title>illustration-security-jetpack</title><g id="Layer_2" data-name="Layer 2"><g id="Layer_1-2" data-name="Layer 1"><path class="cls-1" d="M4.93 16.43V7.08a5.9 5.9 0 0 1 5.9-5.9h87.35a5.9 5.9 0 0 1 5.9 5.9v9.35z"/><path class="cls-2" d="M104.08 85.13V70.56a14.56 14.56 0 0 1-14.56 14.57H4.93"/><path class="cls-3" d="M4.93 16.43h99.16v35.71H4.93z"/><path class="cls-2" d="M16.53 61.53h30.19v23.6H16.53z"/><path class="cls-4" d="M77.17 38.69H16.53v-6.81H71a6.19 6.19 0 0 1 6.19 6.18z"/><path class="cls-2" d="M55.86 61.53h36.85v23.6H55.86z"/><path class="cls-1" d="M14.21 85.38l-9.12.06h-.31v-.31c0-5.46-.13-10.92-.25-16.38l-.35-16.37L4 36l-.08-16.37V7.35A7.66 7.66 0 0 1 4.19 5a7.31 7.31 0 0 1 1.1-2.13 6.94 6.94 0 0 1 4-2.58 9.87 9.87 0 0 1 2.24-.17H54.51L87.25 0h10.24a9.63 9.63 0 0 1 2.3.2 7 7 0 0 1 4 2.62A6.89 6.89 0 0 1 104.93 5a7.88 7.88 0 0 1 .32 2.36v12.27l-.1 65.5v1H81.69c-7.49 0-15-.07-22.47-.14l-22.47-.4c-7.56-.16-15.05-.14-22.54-.21zm0-.5c7.49-.07 15-.06 22.47-.23l22.47-.4c7.49-.06 15-.15 22.47-.14h22.46l-1 1-.1-65.5V7.35a5.5 5.5 0 0 0-.21-1.67 5 5 0 0 0-.77-1.45 4.68 4.68 0 0 0-2.7-1.75 7.22 7.22 0 0 0-1.76-.12H87.25L54.51 2.3H11.53a7.11 7.11 0 0 0-1.8.13A4.78 4.78 0 0 0 7 4.16a4.92 4.92 0 0 0-1 3.19V36l-.15 16.38-.27 16.37c-.09 5.46-.18 10.92-.18 16.38l-.31-.32z"/><path class="cls-5" d="M109.01 16.43H0"/><path class="cls-6" d="M109 16.68c-9.08.81-18.17.75-27.25.8l-27.25.13-27.26-.13c-9.08-.05-18.17 0-27.25-.8v-.5c9.08-.81 18.17-.75 27.25-.8l27.26-.13 27.25.13c9.08 0 18.17 0 27.25.8z"/><rect class="cls-7" x="81.38" y="62.29" width="34.01" height="27.88" rx="3.5" ry="3.5"/><path class="cls-8" d="M111.89 90.88l-14.72.05H86.13a15.29 15.29 0 0 1-2-.05 4.43 4.43 0 0 1-2.05-.88 4.57 4.57 0 0 1-1.32-1.86 5.69 5.69 0 0 1-.28-2.11v-3.69L80.39 75V65.81a4.56 4.56 0 0 1 4.54-4.57h25.76a14.32 14.32 0 0 1 2 .08 4.41 4.41 0 0 1 3.31 2.96 5.3 5.3 0 0 1 .25 2.12v3.68l-.08 7.36V86.64a4.37 4.37 0 0 1-.57 2.12 4.25 4.25 0 0 1-3.71 2.12zm0-1.43A2.79 2.79 0 0 0 114.3 88a2.92 2.92 0 0 0 .36-1.4v-9.16l-.07-7.36V66.4a3.67 3.67 0 0 0-.18-1.5 2.6 2.6 0 0 0-.79-1.09 2.5 2.5 0 0 0-1.22-.54c-.37-.06-1.09 0-1.68 0H84.96a2.46 2.46 0 0 0-2.13 1.23 2.56 2.56 0 0 0-.34 1.24V74.94l-.06 7.36v3.69a3.82 3.82 0 0 0 .15 1.51 2.54 2.54 0 0 0 .77 1.12 2.59 2.59 0 0 0 1.24.58 14.12 14.12 0 0 0 1.69.06H97.32z"/><path class="cls-8" d="M102.86 82l-2.25-4.75a1.22 1.22 0 0 1 .22-1.38 3.41 3.41 0 1 0-4.9 0 1.24 1.24 0 0 1 .23 1.39L93.91 82a.27.27 0 0 0 .24.39h8.47a.27.27 0 0 0 .24-.39z"/><path class="cls-7" d="M107.61 62.29h-4.48v-6.42a4.06 4.06 0 0 0-4.06-4H97.7a4.06 4.06 0 0 0-4.06 4v6.42h-5.16v-6.9a9.17 9.17 0 0 1 9.17-9.17h1.47a9.17 9.17 0 0 1 9.17 9.17v6.9"/><path class="cls-8" d="M107.61 63l-4.48.07a.71.71 0 0 1-.73-.71l-.12-6.67a3.21 3.21 0 0 0-1.28-2.34 3.13 3.13 0 0 0-1.18-.56 3 3 0 0 0-.66-.09h-1.61a2.83 2.83 0 0 0-.65.09 3.16 3.16 0 0 0-2.33 2.82v6.66a1 1 0 0 1-1 1h-5.16a1 1 0 0 1-1-1V55.4a11 11 0 0 1 .13-1.51 9.56 9.56 0 0 1 .9-2.91 10.13 10.13 0 0 1 6.93-5.47 13.19 13.19 0 0 1 3-.24 12.67 12.67 0 0 1 2.94.27 10.26 10.26 0 0 1 2.8 1.12 10.11 10.11 0 0 1 4 4.38 9.11 9.11 0 0 1 .84 2.87 10.76 10.76 0 0 1 .1 1.49v1.38l-.05 5.51a.67.67 0 0 1-1.33 0l-.1-5.51V55.4a10.38 10.38 0 0 0-.13-1.25 7.94 7.94 0 0 0-.77-2.37 8.24 8.24 0 0 0-3.38-3.56 8.39 8.39 0 0 0-2.31-.87 11.38 11.38 0 0 0-2.53-.18 10.72 10.72 0 0 0-2.53.21 8.21 8.21 0 0 0-5.58 4.46 7.73 7.73 0 0 0-.71 2.34 9.87 9.87 0 0 0-.1 1.22v6.89l-1-1h5.16l-1 1V56.4v-.92a5 5 0 0 1 3.77-4.41 5 5 0 0 1 1-.14h1.75a4.33 4.33 0 0 1 1 .15 5 5 0 0 1 1.82.9 4.9 4.9 0 0 1 1.85 3.49v6.8l-.73-.73 4.48.07a.65.65 0 0 1 .65.67.66.66 0 0 1-.67.72z"/></g></g></svg>