<svg xmlns="http://www.w3.org/2000/svg" viewBox="0 0 95.23 100.98"><defs><style>.cls-1{fill:#c8d7e2}.cls-2{fill:#00a9de}.cls-3{fill:#004f84}.cls-4{fill:#0084c0}.cls-5{fill:#74dcfc}.cls-6{fill:#00be28}</style></defs><title>illustration-ga-jetpack</title><g id="Layer_2" data-name="Layer 2"><g id="Layer_1-2" data-name="Layer 1"><path class="cls-1" d="M29.43 95.58c-2.41.24-4.81.31-7.22.33a58 58 0 0 1-7.21-.33.67.67 0 0 1 0-1.33 58 58 0 0 1 7.21-.33c2.41 0 4.81.09 7.22.33a.67.67 0 0 1 0 1.33zM66.09 9.22c4-.11 8-.21 12-.25h1.54a7.36 7.36 0 0 1 1.68.21 8.29 8.29 0 0 1 3 1.43 8.44 8.44 0 0 1 3.35 5.7 28.05 28.05 0 0 1 .07 3.13v9c-.06 4-.12 8-.27 12a.67.67 0 0 1-.69.65.68.68 0 0 1-.64-.65c-.15-4-.21-8-.27-12v-9-2.89a6.48 6.48 0 0 0-2.54-4.4A6.34 6.34 0 0 0 80.88 11a6.27 6.27 0 0 0-1.3-.19h-1.47c-4 0-8-.13-12-.24a.68.68 0 0 1-.65-.69.67.67 0 0 1 .63-.66zM15 9.22C17.78 9.1 20.55 9 23.33 9s5.56-.05 8.34-.08 5.55 0 8.33 0 5.56.12 8.33.27a.67.67 0 0 1 0 1.34c-2.77.15-5.55.21-8.33.27s-5.56.07-8.33.05-5.56 0-8.34-.08-5.55-.12-8.33-.24a.67.67 0 0 1 0-1.34z"/><path class="cls-1" d="M14.33 94.92c-.11-4.08-.2-8.15-.24-12.23S14 74.54 14 70.47s0-8.15.05-12.22.12-8.15.27-12.23a.67.67 0 0 1 1.33 0c.16 4.08.22 8.15.28 12.23S16 66.4 16 70.47s0 8.15-.08 12.22-.14 8.15-.25 12.23a.67.67 0 0 1-1.33 0zM60.46 29.36c1.45-.12 2.9-.19 4.35-.24s2.9-.05 4.35-.08 2.9 0 4.35.05 2.9.12 4.35.27a.67.67 0 0 1 0 1.34c-1.45.15-2.9.21-4.35.27s-2.9.07-4.35.05-2.9 0-4.35-.08-2.9-.12-4.35-.24a.67.67 0 0 1 0-1.34zM55.9 39.82c1.45-.13 2.9-.19 4.35-.24s2.9 0 4.35-.08 2.9 0 4.35 0 2.9.13 4.35.28a.67.67 0 0 1 .6.74.66.66 0 0 1-.6.59c-1.45.15-2.9.21-4.35.28s-2.9.07-4.35 0-2.9 0-4.35-.09-2.9-.11-4.35-.24a.66.66 0 0 1-.61-.72.67.67 0 0 1 .61-.52zM26.26 60.84c1.79-.12 3.58-.19 5.37-.24s3.58-.05 5.37-.08 3.58 0 5.37 0 3.58.12 5.37.27a.66.66 0 0 1 .61.72.66.66 0 0 1-.61.61c-1.79.16-3.58.22-5.37.28s-3.58.07-5.37 0-3.58 0-5.37-.09-3.58-.11-5.37-.24a.67.67 0 0 1 0-1.33zM22.77 71.3c1.52-.13 3-.2 4.56-.25s3 0 4.56-.08 3 0 4.56 0 3 .12 4.55.28a.67.67 0 0 1 .61.73.68.68 0 0 1-.61.6c-1.51.15-3 .21-4.55.27s-3 .07-4.56 0-3 0-4.56-.08-3-.12-4.56-.24a.67.67 0 0 1 0-1.33zM22.77 81.75a17.09 17.09 0 0 1 3.33-.33 12.56 12.56 0 0 1 3.33.33.68.68 0 0 1 .49.84.68.68 0 0 1-.49.49 12.56 12.56 0 0 1-3.33.33 17.09 17.09 0 0 1-3.33-.33.68.68 0 0 1-.52-.81.68.68 0 0 1 .52-.52z"/><path class="cls-2" d="M37.44 82.52h14.4v18.46h-14.4zM59.14 58.46h14.4v42.52h-14.4zM80.83 48.57h14.4v52.41h-14.4z"/><path class="cls-3" d="M37.44 90.85h14.4v10.13h-14.4zM59.14 78.17h14.4v22.81h-14.4zM80.83 69.29h14.4v31.69h-14.4z"/><path class="cls-4" d="M42.56 30.79c1-1.84 2.06-3.64 3.13-5.44S47.87 21.78 49 20s2.24-3.53 3.37-5.29 2.33-3.48 3.57-5.17a.68.68 0 0 1 .94-.14.66.66 0 0 1 .19.85c-1 1.86-2 3.66-3.1 5.46s-2.17 3.58-3.3 5.34-2.23 3.54-3.4 5.27-2.33 3.48-3.55 5.19a.67.67 0 0 1-.93.16.66.66 0 0 1-.23-.88zM24.69 26a40.67 40.67 0 0 1 4.42 2.73 31.48 31.48 0 0 1 4 3.27.68.68 0 0 1-.77 1.09A30.76 30.76 0 0 1 28 30.35a40.27 40.27 0 0 1-4-3.27.67.67 0 0 1 .69-1.08zM7 37.32a55.47 55.47 0 0 1 2.94-5.14 39.65 39.65 0 0 1 3.5-4.79.68.68 0 0 1 1.12.73 38.42 38.42 0 0 1-3 5.14 50.92 50.92 0 0 1-3.49 4.79.67.67 0 0 1-1.07-.73z"/><circle class="cls-5" cx="59.59" cy="4.66" r="2.8"/><circle class="cls-6" cx="59.59" cy="4.11" r="4.11"/><circle class="cls-6" cx="38.98" cy="36.7" r="4.11"/><circle class="cls-6" cx="18.74" cy="21.74" r="4.11"/><circle class="cls-6" cx="4.11" cy="43.15" r="4.11"/></g></g></svg>