<svg xmlns="http://www.w3.org/2000/svg" viewBox="0 0 77.56 84.6"><defs><style>.cls-1{fill:#74dcfc}.cls-2{fill:#fff}.cls-3{fill:#c8d7e2}.cls-4{fill:#00be28}.cls-5{fill:#658eab}</style></defs><title>illustration-spam-jetpack</title><g id="Layer_2" data-name="Layer 2"><g id="Layer_1-2" data-name="Layer 1"><path class="cls-1" d="M74.18 44.31v34.15A6.14 6.14 0 0 1 68 84.6H9.52a6.14 6.14 0 0 1-6.14-6.14V44.31"/><path class="cls-2" d="M6.13 25.88V1.13h54.41v38.85"/><path class="cls-3" d="M5.93 25.88c-.24-4.12-.39-8.25-.51-12.37s-.16-8.25-.25-12.38a.93.93 0 0 1 .92-1L19.73.05h13.6l27.21.07a1 1 0 0 1 1 1l-.18 19.43c-.11 6.47-.22 13-.43 19.42a.41.41 0 0 1-.42.39.4.4 0 0 1-.38-.39c-.22-6.47-.33-12.95-.44-19.42l-.17-19.42 1 1-27.21.12h-13.6L6.13 2.1l1-1C7 5.26 7 9.38 6.84 13.51s-.27 8.25-.51 12.37a.2.2 0 0 1-.21.19.19.19 0 0 1-.19-.19z"/><path class="cls-2" d="M15.8 42.99V11.18h54.41V43.8"/><path class="cls-3" d="M15.6 43c-.15-2.65-.24-5.3-.35-8L15 27.09l-.13-8-.11-7.95a1 1 0 0 1 1-1Q29.41 10 43 10.05l27.2.13a1 1 0 0 1 1 1L71 27.49c-.11 5.44-.22 10.87-.43 16.31a.39.39 0 0 1-.41.38.41.41 0 0 1-.39-.38c-.21-5.44-.32-10.87-.43-16.31l-.17-16.31 1 1-27.17.14q-13.6 0-27.21-.12l1-1-.1 8-.14 8-.23 8c-.11 2.65-.2 5.3-.35 8a.19.19 0 0 1-.21.19.21.21 0 0 1-.16-.39z"/><path class="cls-4" d="M47.27 17.38h17.51v18.49"/><path class="cls-1" d="M77.56 29.9v14.9H0V29.9"/><path class="cls-2" d="M52 55.07v4.06a4.08 4.08 0 0 1-3.87 4.28H29.4a4.09 4.09 0 0 1-3.88-4.28v-4.06"/><path class="cls-5" d="M.31 44.11c1.6-.15 3.2-.23 4.8-.34l4.81-.22c3.2-.14 6.4-.2 9.61-.25l9.61-.11h9.61l19.25.14c6.41.1 12.82.22 19.22.58a.4.4 0 0 1 .38.42.42.42 0 0 1-.38.38c-6.4.35-12.81.47-19.22.57l-19.21.16h-9.61l-9.61-.11c-3.21 0-6.41-.11-9.61-.25l-4.81-.22c-1.6-.11-3.2-.19-4.8-.33a.2.2 0 0 1-.18-.22.19.19 0 0 1 .14-.2z"/></g></g></svg>