<svg xmlns="http://www.w3.org/2000/svg" viewBox="0 0 1600 1168"><defs><style>.cls-1{fill:#CCCED0}.cls-2{fill:#6F93AD}.cls-3{fill:#204A69}.cls-4{fill:#46799A}.cls-5{fill:#CCCED0}.cls-6{fill:#00be28}.cls-7{fill:none}</style></defs><title>jetpack-google-analytics</title><g id="jetpack-google-analytics"><g id="Layer_2" data-name="Layer 2"><g id="Layer_1-2" data-name="Layer 1-2"><path class="cls-1" d="M576 1107.42c-27 2.69-54 3.48-81 3.7a650.47 650.47 0 0 1-80.89-3.7 7.52 7.52 0 0 1 0-14.92 650.47 650.47 0 0 1 80.89-3.7c27 0 54 1 81 3.7a7.52 7.52 0 0 1 0 14.92zm411.26-968.81c44.87-1.24 89.74-2.36 134.62-2.81h17.27a82.54 82.54 0 0 1 18.85 2.36 93 93 0 0 1 33.66 16 94.7 94.7 0 0 1 37.58 64 316.4 316.4 0 0 1 .78 35.11v101c-.67 44.88-1.34 89.75-3 134.62a7.52 7.52 0 0 1-7.73 7.3 7.64 7.64 0 0 1-7.18-7.3c-1.68-44.87-2.35-89.74-3-134.62V220.84a72.67 72.67 0 0 0-28.49-49.36 76.71 76.71 0 0 0-42-15h-16.52c-44.87 0-89.74-1.45-134.62-2.69a7.63 7.63 0 0 1-7.29-7.74 7.51 7.51 0 0 1 7.07-7.44zm-573.15 0c31.19-1.35 62.27-2.47 93.45-2.47s62.38-.56 93.56-.9 62.27 0 93.45 0 62.38 1.35 93.45 3a7.52 7.52 0 1 1 0 15c-31.07 1.69-62.26 2.36-93.45 3s-62.37.79-93.45.56-62.37 0-93.56-.89-62.26-1.35-93.45-2.7a7.52 7.52 0 0 1 0-15z"/><path class="cls-1" d="M406.6 1100c-1.24-45.77-2.25-91.43-2.69-137.2s-1-91.43-1-137.09 0-91.43.56-137.09 1.34-91.43 3-137.2a7.52 7.52 0 0 1 14.92 0c1.79 45.77 2.46 91.43 3.14 137.2s.78 91.43.78 137.09 0 91.43-.89 137.09-1.57 91.43-2.81 137.2a7.52 7.52 0 0 1-14.92 0zm517.5-735.46c16.27-1.34 32.53-2.13 48.8-2.69s32.53-.56 48.8-.9 32.53 0 48.8.57 32.53 1.34 48.8 3a7.52 7.52 0 0 1 0 15c-16.27 1.68-32.54 2.35-48.8 3s-32.54.78-48.8.56-32.53 0-48.8-.9-32.53-1.35-48.8-2.69a7.52 7.52 0 0 1 0-15zm-51.16 117.35c16.27-1.46 32.54-2.13 48.8-2.69s32.54 0 48.8-.9 32.54 0 48.8 0 32.54 1.46 48.8 3.14a7.52 7.52 0 0 1 6.74 8.22v.08a7.39 7.39 0 0 1-6.73 6.62c-16.26 1.68-32.53 2.36-48.8 3.14s-32.53.79-48.8 0-32.53 0-48.8-1-32.53-1.23-48.8-2.69a7.4 7.4 0 0 1-6.85-7.91v-.17a7.51 7.51 0 0 1 6.84-5.84zM540.43 717.7c20.08-1.35 40.16-2.13 60.25-2.7s40.16-.56 60.24-.89 40.16 0 60.24 0 40.16 1.34 60.24 3a7.4 7.4 0 0 1 6.86 7.91v.16a7.42 7.42 0 0 1-6.85 6.85c-20.08 1.79-40.16 2.46-60.24 3.14s-40.16.78-60.24 0-40.16 0-60.24-1-40.17-1.24-60.25-2.69a7.52 7.52 0 0 1 0-14.92zM501.28 835c17.05-1.46 33.66-2.24 51.16-2.8s33.65 0 51.15-.9 33.66 0 51.16 0 33.65 1.34 51 3.14a7.51 7.51 0 0 1 6.85 8.13v.06a7.62 7.62 0 0 1-6.84 6.73c-16.94 1.68-33.65 2.36-51 3s-33.66.78-51.16 0-33.65 0-51.15-.9-33.66-1.34-51.16-2.69a7.52 7.52 0 0 1 0-14.92zm0 117.23a192 192 0 0 1 37.36-3.7 141.07 141.07 0 0 1 37.36 3.7 7.64 7.64 0 0 1 5.54 9.26v.17a7.63 7.63 0 0 1-5.49 5.49 140.65 140.65 0 0 1-37.36 3.7 190.47 190.47 0 0 1-37.36-3.7 7.63 7.63 0 0 1-5.84-9.07 7.63 7.63 0 0 1 5.79-5.81z"/><path class="cls-2" d="M665.85 960.91H827.4V1168H665.85zM909.29 691h161.54v477H909.29zm243.33-111h161.54v588h-161.54z"/><path class="cls-3" d="M665.85 1054.36H827.4V1168H665.85zm243.44-142.25h161.54V1168H909.29zm243.33-99.62h161.54V1168h-161.54z"/><path class="cls-4" d="M723.29 380.59c11.22-20.64 23.11-40.84 35.11-61s24.46-40.05 37.14-60 25.13-39.6 37.8-59.34 26.14-39 40-58a7.63 7.63 0 0 1 10.55-1.57 7.41 7.41 0 0 1 2.13 9.53c-11.22 20.87-22.44 41.06-34.78 61.25s-24.34 40.17-37 59.91-25 39.71-38.14 59.12-26.14 39-39.83 58.22a7.5 7.5 0 0 1-10.43 1.8 7.4 7.4 0 0 1-2.55-9.92zm-200.47-53.74a455.85 455.85 0 0 1 49.59 30.63 352.87 352.87 0 0 1 44.87 36.68 7.63 7.63 0 0 1-8.64 12.23A344.6 344.6 0 0 1 560 375.65 453 453 0 0 1 515.08 339a7.52 7.52 0 0 1 7.74-12.12zm-198.45 127a623.56 623.56 0 0 1 33-57.66 445.3 445.3 0 0 1 39.26-53.74 7.63 7.63 0 0 1 12.57 8.19 430.28 430.28 0 0 1-33.66 57.67A570.55 570.55 0 0 1 336.37 462a7.51 7.51 0 0 1-12-8.19z"/><circle class="cls-5" cx="914.34" cy="87.45" r="31.41"/><circle class="cls-6" cx="914.34" cy="81.28" r="46.11"/><circle class="cls-6" cx="683.13" cy="446.89" r="46.11"/><circle class="cls-6" cx="456.07" cy="279.06" r="46.11"/><circle class="cls-6" cx="291.95" cy="519.25" r="46.11"/></g></g></g><g id="clear_rectangle" data-name="clear rectangle"><path id="Layer_4" data-name="Layer 4" class="cls-7" d="M0 0h1600v1168H0z"/></g></svg>