<svg xmlns="http://www.w3.org/2000/svg" viewBox="0 0 98.69 78.6"><defs><style>.cls-1{fill:#fff}.cls-2{fill:#74dcfc}.cls-3{fill:#004f84}.cls-4{fill:#c2f4ff}.cls-5{fill:#00be28}</style></defs><title>illustration-jpdashboard-jetpack</title><g id="Layer_2" data-name="Layer 2"><g id="Layer_1-2" data-name="Layer 1"><path class="cls-1" d="M4.46 77.36V6.71a5.35 5.35 0 0 1 5.35-5.35h79.08a5.35 5.35 0 0 1 5.34 5.35v70.65z"/><path class="cls-2" d="M4.26 77.57L3.89 63l-.3-14.82c-.12-10-.28-19.94-.3-30V7a7 7 0 0 1 .29-2.18A6.55 6.55 0 0 1 8.32.33a9.06 9.06 0 0 1 2.11-.18h38.92L79 0h9.27a8.93 8.93 0 0 1 2.15.18 6.68 6.68 0 0 1 3.83 2.48 6.5 6.5 0 0 1 1.05 2.06 7.33 7.33 0 0 1 .24 1.13A9.06 9.06 0 0 1 95.6 7v11.07l-.12 59.29v1.24h-1.25c-15.1 0-30.25 0-45.3-.22-7.53-.09-15.06-.15-22.5-.32s-14.86-.3-22.17-.49zm.41-.41q11.48-.3 22.71-.49c7.52-.17 15-.23 22.38-.32 14.87-.18 29.64-.17 44.47-.22L93 77.36l-.11-59.29V7a5.38 5.38 0 0 0 0-.75 3.8 3.8 0 0 0-.14-.67 4.1 4.1 0 0 0-.63-1.21 3.85 3.85 0 0 0-2.26-1.48 23 23 0 0 0-3.39-.12H79l-29.65-.12-29.65-.06h-9.27a6.07 6.07 0 0 0-1.56.11 4.14 4.14 0 0 0-3 2.79A4.52 4.52 0 0 0 5.66 7v11.02c0 9.75-.18 19.52-.3 29.33L5 62.13z"/><path class="cls-3" d="M98.69 15.42c-8.22.81-16.45.75-24.67.8l-24.67.13-24.68-.13c-8.22 0-16.45 0-24.67-.8v-.5c8.22-.81 16.45-.75 24.67-.8L49.35 14l24.65.12c8.22.05 16.45 0 24.67.8z"/><path class="cls-4" d="M30.05 37.36h55v15.5h-55zM30.05 56.86h55V69.3h-55z"/><path class="cls-5" d="M82.05 41.86v8h-6.9l6.9-8z"/><path class="cls-2" d="M36.23 26.88H85v6.6H30v-.42a6.19 6.19 0 0 1 6.23-6.18zM93.05 20.86h-88v-5h88z"/><path class="cls-5" d="M21.05 76.86h-16v-56h16z"/></g></g></svg>