<svg xmlns="http://www.w3.org/2000/svg" viewBox="0 0 115.78 82.14"><defs><style>.cls-1{fill:#0084c0}.cls-2{fill:#00be28}.cls-3{fill:#74dcfc}.cls-4{fill:#004f84}.cls-5{fill:#00a9de}</style></defs><title>illustration-marketing-jetpack</title><g id="Layer_2" data-name="Layer 2"><g id="Layer_1-2" data-name="Layer 1"><path class="cls-1" d="M38.5 81.49c.82-.17 1.33-.24 2.15-.36l.56-.08.55-.13a8.25 8.25 0 0 0 1.08-.3 13.45 13.45 0 0 0 3.93-2 12.53 12.53 0 0 0 4.8-7 15.8 15.8 0 0 0 .35-4.41V53.08L53 54.22H38.3l1.14-1.14c0 4.63-.11 9.26-.21 13.92s-.3 9.34-.73 14.49zm-.36.35c-.42-4.39-.66-9.22-.75-14.1s-.17-9.79-.21-14.69v-1.14H54.2v15.3a17.68 17.68 0 0 1-.51 4.94 13.76 13.76 0 0 1-5.8 8A12.75 12.75 0 0 1 43.16 82a8.43 8.43 0 0 1-1.23.15 7.22 7.22 0 0 1-1.23 0 14.85 14.85 0 0 1-2.56-.31z"/><path class="cls-2" d="M0 47.72v-6.86a4.87 4.87 0 0 1 4-4.79l.69-.07A204.12 204.12 0 0 0 75.75 9L89.81.29a3.92 3.92 0 0 1 5.4 3.64v66a3.93 3.93 0 0 1-4.85 3.82l-12.29-5.27a205.31 205.31 0 0 0-71-16.35L4.19 52A4.32 4.32 0 0 1 0 47.72z"/><path class="cls-3" d="M89.81.29L75.75 8.93A204.57 204.57 0 0 1 28.2 30.32v23.93a205.16 205.16 0 0 1 49.87 14.23l12.29 5.26a3.93 3.93 0 0 0 4.85-3.82v-66a3.92 3.92 0 0 0-5.4-3.63z"/><path class="cls-4" d="M8 28.8a23.68 23.68 0 0 1 .82 7.11c.08 2.37.09 4.74.11 7.11s0 4.74-.11 7.11A23.68 23.68 0 0 1 8 57.24h-.5a23.35 23.35 0 0 1-.81-7.11c-.08-2.37-.1-4.74-.12-7.11s0-4.74.12-7.11a23.35 23.35 0 0 1 .81-7.11z"/><path class="cls-1" d="M111.37 14.66a3.3 3.3 0 0 1-1.32 2.21c-.57.58-1.16 1.14-1.77 1.67s-1.27 1-1.93 1.5A3.25 3.25 0 0 1 104 21l-.32-.38a3.29 3.29 0 0 1 1.32-2.2c.58-.58 1.16-1.14 1.78-1.67s1.26-1 1.92-1.5a3.26 3.26 0 0 1 2.38-1zM115.78 33.06a3.73 3.73 0 0 1-2.63.79c-.88.06-1.75.09-2.62.09s-1.75-.07-2.62-.15a3.69 3.69 0 0 1-2.62-.84v-.5a3.72 3.72 0 0 1 2.63-.79c.87-.06 1.75-.09 2.62-.09s1.75.07 2.62.15a3.66 3.66 0 0 1 2.61.84zM110.52 46.68a2.42 2.42 0 0 1-2.11-.55 17.64 17.64 0 0 1-1.7-1.1 19.18 19.18 0 0 1-1.56-1.3 2.43 2.43 0 0 1-1.15-1.85l.3-.4a2.4 2.4 0 0 1 2.11.54 19.78 19.78 0 0 1 1.7 1.1c.54.41 1.06.84 1.56 1.3a2.41 2.41 0 0 1 1.14 1.85z"/><path class="cls-5" d="M86.27 1.41a151.94 151.94 0 0 1 .82 18.2c.07 6.07.09 12.14.11 18.21S87.16 50 87.09 56a151.85 151.85 0 0 1-.82 18.2h-.5A149.79 149.79 0 0 1 85 56c-.08-6.07-.1-12.14-.12-18.21s0-12.14.12-18.21a149.88 149.88 0 0 1 .81-18.2z"/></g></g></svg>