<svg xmlns="http://www.w3.org/2000/svg" viewBox="0 0 135.46 113.32"><defs><style>.cls-1{fill:#74dcfc}.cls-2{fill:#c2f4ff}.cls-3{fill:#004f84}.cls-4{fill:#00be28}</style></defs><title>illustration-wordads-jetpack</title><g id="Layer_2" data-name="Layer 2"><g id="Layer_1-2" data-name="Layer 1"><path class="cls-1" d="M4.84 91.35c5.62-19.19 25.38-41.55 40.58-40.79C63 51.44 70.5 62 84 60.43c23.47-2.7 19.18-55.19 46.64-55.19v106.84H4.84z"/><path class="cls-2" d="M50.6 70.1a11.53 11.53 0 0 1 1.09 3.83c.15 1.28.14 2.56.21 3.83.11 2.56.18 5.11.18 7.67s-.07 5.1-.18 7.66c-.07 1.28-.06 2.55-.21 3.83a11.23 11.23 0 0 1-1.09 3.83h-.79a11.49 11.49 0 0 1-1.1-3.83c-.14-1.28-.14-2.55-.2-3.83-.11-2.56-.18-5.11-.19-7.66s.08-5.11.19-7.67c.07-1.27.06-2.55.2-3.83a11.55 11.55 0 0 1 1.1-3.83zM92 77.13a7.3 7.3 0 0 1 1.09 3c.15 1 .14 2 .21 3 .11 2 .18 3.93.18 5.9s-.07 3.94-.18 5.91c-.07 1-.06 2-.2 3a7.42 7.42 0 0 1-1.1 3h-.79a7.42 7.42 0 0 1-1.1-3c-.14-1-.13-2-.2-3-.11-2-.18-3.94-.18-5.91s.07-3.94.18-5.9c.07-1 .06-2 .2-3a7.47 7.47 0 0 1 1.1-3z"/><path class="cls-3" d="M130.62 111.84c-5.24.64-10.49.93-15.73 1.09s-10.49.14-15.73.2c-10.49.13-21 .15-31.47.19s-21-.06-31.47-.19c-5.24-.06-10.49-.06-15.73-.2s-10.49-.45-15.73-1.09V111c5.24-.64 10.48-.93 15.73-1.09s10.49-.14 15.73-.2c10.49-.13 21-.15 31.47-.19s21 .06 31.47.19c5.24.06 10.48.06 15.73.2s10.49.45 15.73 1.09zM4.46 91.24a59.25 59.25 0 0 1 9.19-20.45 64.36 64.36 0 0 1 15.73-16.28 33.28 33.28 0 0 1 10.49-5.08 19.31 19.31 0 0 1 6-.6 44.42 44.42 0 0 1 5.74.65 53.5 53.5 0 0 1 11 3.34c3.5 1.43 6.82 3.07 10.16 4.25a24.17 24.17 0 0 0 10.12 1.6 13.55 13.55 0 0 0 8.83-3.88 32 32 0 0 0 6-8.51c1.67-3.18 3.09-6.56 4.47-10s2.72-6.88 4.19-10.32a70 70 0 0 1 5.17-10.08 27.29 27.29 0 0 1 8-8.38 17.63 17.63 0 0 1 11.08-2.69v.79a18.15 18.15 0 0 0-9.79 3.75 21.65 21.65 0 0 0-3.71 3.7 31.29 31.29 0 0 0-3 4.4c-3.62 6.19-6.05 13.17-8.75 20.08-1.38 3.47-2.76 6.98-4.48 10.38a34.3 34.3 0 0 1-6.71 9.54 18.36 18.36 0 0 1-5.06 3.45 17.2 17.2 0 0 1-6 1.46 27.31 27.31 0 0 1-11.66-1.77c-3.63-1.31-6.95-3-10.3-4.37A50.41 50.41 0 0 0 51 53a40.55 40.55 0 0 0-5.28-.68 15.83 15.83 0 0 0-5 .44 30 30 0 0 0-9.44 4.46 55.47 55.47 0 0 0-8.22 7A82.17 82.17 0 0 0 16 72.45a79.43 79.43 0 0 0-10.74 19z"/><path class="cls-3" d="M112.67 16.22a6 6 0 0 1 .66-2.94 18.27 18.27 0 0 1 1.67-2.37 19.49 19.49 0 0 1 4.26-4.09 16.53 16.53 0 0 1 5.49-2.44 13.56 13.56 0 0 1 3-.43 5.37 5.37 0 0 1 2.93.89v.79a6 6 0 0 1-1.29.78 7.32 7.32 0 0 1-1.23.49c-.41.13-.81.26-1.21.35s-.79.25-1.18.38a19.54 19.54 0 0 0-4.34 2.28 27.82 27.82 0 0 0-3.85 3.23l-.89.95a11.37 11.37 0 0 1-.89.95 6.56 6.56 0 0 1-1.06.87 6.06 6.06 0 0 1-1.34.73z"/><ellipse class="cls-4" cx="48.74" cy="50.72" rx="4.84" ry="5.24"/><ellipse class="cls-4" cx="90.93" cy="57.73" rx="4.84" ry="5.24"/><ellipse class="cls-4" cx="130.62" cy="5.24" rx="4.84" ry="5.24"/><ellipse class="cls-4" cx="4.84" cy="91.35" rx="4.84" ry="5.24"/></g></g></svg>