<svg xmlns="http://www.w3.org/2000/svg" viewBox="0 0 129 132.96"><defs><style>.cls-1{fill:#86a6bd}.cls-2{fill:#004f84}.cls-3{fill:#c8d7e2}.cls-4{fill:#004f81}.cls-5{fill:#0084c0}</style></defs><title>Asset 12</title><g id="Layer_2" data-name="Layer 2"><g id="Layer_1-2" data-name="Layer 1"><path class="cls-1" d="M83.28 9.83a2.65 2.65 0 0 1 0 .65c-1.51-3.65-6.07-8.65-19.79-8.65a22.9 22.9 0 0 0-16.77 7.4 3.32 3.32 0 0 1 0-.66c-9.24 6.19-9.22 24.49-9.22 24.49 3.42.09 8.86-8 11.81-15.41A6 6 0 0 1 55 14.23h19.36a6 6 0 0 1 5.73 3.51c2.76 7.59 8.29 16.66 11.77 16.57 0 0 .66-18.31-8.58-24.48z"/><rect class="cls-2" x="49.22" y="41.81" width="4.6" height="8.21" rx="2.07" ry="2.07"/><path class="cls-3" d="M65.91 42.14a43.17 43.17 0 0 1 .47 6.4 32 32 0 0 1-.47 6.39 1 1 0 0 1-1.13.77 1 1 0 0 1-.77-.77 32.74 32.74 0 0 1-.46-6.39 44.55 44.55 0 0 1 .46-6.4 1 1 0 0 1 1.9 0z"/><rect class="cls-2" x="75.62" y="41.81" width="4.6" height="8.21" rx="2.07" ry="2.07"/><path class="cls-4" d="M59.27 62a15.39 15.39 0 0 0 2.74.58 29.49 29.49 0 0 0 3 .25 22.3 22.3 0 0 0 3-.1 8.86 8.86 0 0 0 2.61-.61l.16-.07a.95.95 0 0 1 1.06 1.53 7 7 0 0 1-3.36 1.71 14.29 14.29 0 0 1-3.49.37 14.52 14.52 0 0 1-3.45-.45 7.9 7.9 0 0 1-3.28-1.65 1 1 0 0 1-.07-1.34.94.94 0 0 1 1-.27zM72 32.31a5.1 5.1 0 0 1 2.69-1.5 9.72 9.72 0 0 1 2.73-.25 10.11 10.11 0 0 1 2.71.45 6.08 6.08 0 0 1 2.53 1.48 1 1 0 0 1 0 1.36 1 1 0 0 1-1 .21l-.18-.06a13.19 13.19 0 0 0-4.18-.62c-.74 0-1.48 0-2.19.06a14.28 14.28 0 0 0-1.88.27l-.4.08a.91.91 0 0 1-1.08-.7.93.93 0 0 1 .25-.78zM55.93 33.72a14.28 14.28 0 0 0-1.88-.27 22.7 22.7 0 0 0-2.19-.06 13.19 13.19 0 0 0-4.18.62l-.12.05a1 1 0 0 1-1-1.57 6.11 6.11 0 0 1 2.5-1.49 10.25 10.25 0 0 1 2.72-.45 9.72 9.72 0 0 1 2.73.25 5 5 0 0 1 2.68 1.5.89.89 0 0 1-.07 1.28.93.93 0 0 1-.79.22z"/><path class="cls-1" d="M92.1 39.24a113.92 113.92 0 0 1-1.69 13.1A52.37 52.37 0 0 1 86.35 65a24.91 24.91 0 0 1-8.71 10.34 21.5 21.5 0 0 1-6.3 2.77 24.43 24.43 0 0 1-3.34.69 19.8 19.8 0 0 1-3.44.2 28.47 28.47 0 0 1-13.12-3.56A27.15 27.15 0 0 1 41.57 66a35.77 35.77 0 0 1-4.71-12.7 50.34 50.34 0 0 1-.73-6.68C36 44.4 36 42.19 36 40a69.11 69.11 0 0 1 1.48-13.3 44.48 44.48 0 0 1 4.6-12.63A28.93 28.93 0 0 1 51.13 4a24.12 24.12 0 0 1 6.2-3 23.82 23.82 0 0 1 6.81-1 24.73 24.73 0 0 1 13 3.87 29.92 29.92 0 0 1 9.45 9.58 36.76 36.76 0 0 1 4.81 12.48 49.15 49.15 0 0 1 .7 13.31zm-1.9-.15a46.68 46.68 0 0 0-.72-12.77 34.84 34.84 0 0 0-4.63-11.8A27.31 27.31 0 0 0 76 5.68a22.6 22.6 0 0 0-11.86-3.39 21 21 0 0 0-6.1 1A21.68 21.68 0 0 0 52.5 6a26.45 26.45 0 0 0-8.15 9.34 43.29 43.29 0 0 0-4.21 11.94A66.23 66.23 0 0 0 38.81 40c-.05 2.15 0 4.3.13 6.45a49.24 49.24 0 0 0 .72 6.33 32.93 32.93 0 0 0 4.26 11.74 24.8 24.8 0 0 0 8.8 8.59 26.05 26.05 0 0 0 11.87 3.42 21.4 21.4 0 0 0 11.83-3.08 22.73 22.73 0 0 0 8.08-9.34 49.51 49.51 0 0 0 4-12.18 108 108 0 0 0 1.7-12.84z"/><path class="cls-3" d="M78.27 60.73a4.75 4.75 0 0 1 .47 2.05 3.67 3.67 0 0 1-.47 2 1.11 1.11 0 0 1-1.52.38 1.15 1.15 0 0 1-.38-.38 3.58 3.58 0 0 1-.46-2 4.74 4.74 0 0 1 .46-2.05 1.06 1.06 0 0 1 1.43-.47 1 1 0 0 1 .47.47z"/><path class="cls-5" d="M0 133c0-18.6 28.59-35 36.29-39.09 0 0 14.53 11.32 27.77 11.32s24.18-10.51 24.18-10.51 30.51 10 40.76 38.24H0"/><path class="cls-3" d="M68.09 100.41l-1.59-3.9-.79-2c-.14-.35-.24-.61-.37-.86a5.51 5.51 0 0 0-.45-.73A5.27 5.27 0 0 0 62.12 91l-3.95-1.36c-5.35-1.65-10.71-3.27-16-5.06l1.55-.58c-.59.88-1.2 1.75-1.8 2.62s-1.23 1.76-1.92 2.6a1 1 0 0 1-1.61-1c.45-1 .94-1.9 1.44-2.84s1-1.86 1.55-2.78a1.29 1.29 0 0 1 1.52-.6h.1c5.39 1.59 10.73 3.34 16.08 5.07 1.33.45 2.65 1 4 1.5a7.89 7.89 0 0 1 3.87 3 8.81 8.81 0 0 1 .61 1.08 9.64 9.64 0 0 1 .41 1.09l.66 2 1.3 4a.95.95 0 0 1-1.78.65zM68.75 88.27c2.3-1.2 4.65-2.31 7-3.36s4.75-2.06 7.16-3a1.36 1.36 0 0 1 1.72.68c1.06 2.24 2.06 4.51 3 6.84a1 1 0 0 1-1.7.85 92.16 92.16 0 0 1-3.73-6.45l1.77.65q-3.56 1.58-7.17 3c-2.4.88-4.8 1.76-7.32 2.52a.94.94 0 0 1-1.19-.62 1 1 0 0 1 .46-1.11z"/><path class="cls-1" d="M78.88 72.5a4.74 4.74 0 0 1 .87 1.82 6.3 6.3 0 0 1 .19 1.82 8.87 8.87 0 0 1-.26 1.86 6.29 6.29 0 0 1-.8 1.82.45.45 0 0 1-.72 0 6.29 6.29 0 0 1-.8-1.82 8.87 8.87 0 0 1-.26-1.83 6.3 6.3 0 0 1 .19-1.82 4.74 4.74 0 0 1 .87-1.82.45.45 0 0 1 .64-.07z"/></g></g></svg>