<svg id="Layer_1" xmlns="http://www.w3.org/2000/svg" viewBox="0 0 1600 1168"><style>.st0{fill:none}.st1{fill:#E1E2E2}.st2{fill:#6F93AD}.st3{fill:#204A69}.st4{fill:#fff}.st5{fill:#204A69}.st6{fill:#00be28}</style><title>jetpack-dashboard</title><g id="clear_rectangle"><path id="Layer_4" class="st0" d="M0 0h1600v1168H0V0z"/></g><path class="st1" d="M195.2 1110.5l11.3-892v-45.2c0-39.1 31.9-70.9 70.9-70.9h1048.3c39.1 0 70.9 31.9 70.9 70.9v936.2H314.4"/><path class="st2" d="M206.5 288.4V171.3c0-46.2 31.9-84.3 70.9-84.3h1048.3c39.1 0 70.9 38 70.9 84.3v117.2H206.5z"/><path class="st3" d="M1429.5 288.4c-104.8 8.2-209.7 7.2-314.5 8.2l-315.5 1-314.5-1c-104.8 0-209.7 0-314.5-8.2v-5.1c104.8-8.2 209.7-7.2 314.5-8.2l314.5-1 314.5 1c104.8 0 209.7 0 314.5 8.2v5.1h1z"/><ellipse transform="rotate(-35.101 814.181 680.8)" class="st4" cx="814.1" cy="680.8" rx="293.2" ry="293.8"/><path class="st2" d="M1108.4 641.9c6.3 37.9 4 77.1-3.2 114-3.4 18.4-7.8 37.1-15.3 55.2-4.2 10.3-20.5 3.1-17.1-6.8 5.5-16.2 8.6-34 11.8-52 5.8-35.6 6.5-71.2 0-106-12.3-70.4-50.8-133.4-108-176.3-57-42.7-128.1-62.1-198.9-53.9-70 7.7-135.7 43.7-181.4 96.9-46.1 53.2-70.3 124.2-67.4 194.6 2.9 71.2 32.9 138.8 83.9 188.6 50.5 49.9 120.2 77.9 191.1 80.8 71 2.2 142.6-22.3 199.7-68.2 1.2-.7 2.8-.6 3.8 0 1.2 1.1 1.3 3.2.1 4.3-52 53.5-127.6 86.4-204.3 85.5-77.7 0-152.4-30.4-208.3-84.5-56.1-54.1-89.4-127.7-93.2-205.6-3.7-77 22.3-155.2 72.6-214.2 49.7-59.4 123.1-97.8 199.9-105.9 161.1-17.1 307.6 93.9 334.2 253.5z"/><ellipse transform="rotate(-21.22 588.899 784.614)" class="st5" cx="588.9" cy="784.6" rx="18" ry="18"/><ellipse transform="rotate(-86.217 572.093 684.119) scale(.99998)" class="st5" cx="572.1" cy="684.1" rx="18" ry="18"/><ellipse transform="rotate(-61.215 599.336 585.967)" class="st5" cx="599.3" cy="585.9" rx="18" ry="18"/><ellipse transform="rotate(-36.216 665.479 508.49)" class="st5" cx="665.4" cy="508.5" rx="18" ry="18"/><ellipse transform="rotate(-11.216 758.218 466.235)" class="st5" cx="758.1" cy="466.2" rx="18" ry="18"/><ellipse transform="rotate(-76.22 859.96 467.05)" class="st5" cx="860" cy="467" rx="18" ry="18"/><ellipse transform="rotate(-51.215 952.003 510.868)" class="st5" cx="952" cy="510.9" rx="18" ry="18"/><ellipse transform="rotate(-26.221 1016.682 589.457)" class="st5" cx="1016.8" cy="589.5" rx="18" ry="18"/><ellipse transform="matrix(.9998 -.02124 .02124 .9998 -14.379 22.293)" class="st5" cx="1042.3" cy="688.1" rx="18" ry="18"/><ellipse transform="rotate(-66.216 1023.774 788.234)" class="st5" cx="1023.8" cy="788.3" rx="18" ry="18"/><path class="st6" d="M987.4 551c-1.4-1.1-3.5-1.4-5.3-.6-36.2 17.5-67.4 41.5-98.1 65.9-9.5 7.6-32.6 25.4-48.1 37.4-7.6-4.4-16.4-6.9-25.8-6.6-26.4.9-47.1 23.1-46.2 49.5.9 26.4 23.1 47.1 49.5 46.2 26.4-.9 47.1-23.1 46.2-49.5-.2-5.4-1.3-10.5-3.1-15.2 13.2-10.9 33.6-27.8 46.1-38.4 30.3-25 60.6-50.3 85.5-81.9 1.7-2.1 1.4-5.1-.7-6.8zM812.6 721.6c-14.7.5-27-11-27.5-25.7s11-27 25.7-27.5 27 11 27.5 25.7c.5 14.6-11 27-25.7 27.5z"/></svg>