<svg xmlns="http://www.w3.org/2000/svg" viewBox="0 0 84.25 80.29"><defs><style>.cls-1{fill:#c2f4ff}.cls-2{fill:#c8d7e2}.cls-3{fill:#05931f}.cls-4{fill:#00be28}.cls-5{fill:#fff}.cls-6{fill:#004f84}</style></defs><title>illustration-backups-jetpack</title><g id="Layer_2" data-name="Layer 2"><g id="Layer_1-2" data-name="Layer 1"><path class="cls-1" d="M65.92 80.29H0V34a12.57 12.57 0 0 1 12.58-12.53h39.77A13.57 13.57 0 0 1 65.92 35z"/><path class="cls-2" d="M65.6 16.06l-28.43 8.79s-2.34-3.19.39-9.54S50.35 2.75 60.58 1a105.6 105.6 0 0 1 13.6-1c6.24-.14 11 5.86 9.91 12.4a24.22 24.22 0 0 1-3.65 9.21"/><circle class="cls-3" cx="33.38" cy="53.93" r="16.49"/><path class="cls-3" d="M16.9 44.3h32.97v9.63H16.9z"/><circle class="cls-4" cx="33.38" cy="44.57" r="16.49"/><path class="cls-5" d="M27 46c1.66 1.51 3.28 3.06 4.89 4.62l-1 .06c1.6-2.11 3.18-4.25 4.83-6.33s3.29-4.17 5-6.19a.49.49 0 0 1 .77.59c-1.49 2.18-3.08 4.33-4.69 6.45s-3.24 4.21-4.87 6.31a.67.67 0 0 1-.94.12l-.07-.07a213.44 213.44 0 0 1-4.62-4.89.49.49 0 0 1 0-.69.5.5 0 0 1 .7.02z"/><path class="cls-2" d="M60.36 11.69C39.58 15.35 28.64 34.87 32.71 36S45.05 21.61 57.1 20.48c9.3-.88 7.74 3.32 2.41 5.67-7.91 3.48-9.28 6.6-8.08 8.79s15.84-2.15 24.74-8.79A19.82 19.82 0 0 0 83 16.26"/><path class="cls-6" d="M60.45 12.16a39.27 39.27 0 0 0-15.33 6.44 41.76 41.76 0 0 0-6.36 5.4 31.27 31.27 0 0 0-4.94 6.66 10.17 10.17 0 0 0-1.3 3.72 1.83 1.83 0 0 0 .09.75.42.42 0 0 0 .33.27 2.34 2.34 0 0 0 1.53-.4 20.49 20.49 0 0 0 3.14-2.62l3-3a54.65 54.65 0 0 1 6.52-5.6 22.43 22.43 0 0 1 7.89-3.7 21 21 0 0 1 4.38-.44 12.27 12.27 0 0 1 2.24.17A4.15 4.15 0 0 1 64 20.88a2 2 0 0 1 .52 1.53 2.82 2.82 0 0 1-.5 1.3 6.61 6.61 0 0 1-1.68 1.66 20.93 20.93 0 0 1-3.87 2 27.54 27.54 0 0 0-3.6 2 8.94 8.94 0 0 0-2.76 2.75 2.6 2.6 0 0 0-.34 1.63 2.32 2.32 0 0 0 .26.78s.14.13.42.19a11.81 11.81 0 0 0 3.94-.34 48.26 48.26 0 0 0 8-2.54 59.77 59.77 0 0 0 7.55-3.67 26.61 26.61 0 0 0 6.61-5 19.67 19.67 0 0 0 4.07-7.11.49.49 0 0 1 .93.29A20.57 20.57 0 0 1 79.32 24a19.94 19.94 0 0 1-3.22 2.94 42.8 42.8 0 0 1-3.59 2.37 61.69 61.69 0 0 1-7.69 3.8 51.05 51.05 0 0 1-8.18 2.65 21.42 21.42 0 0 1-2.15.36 7.92 7.92 0 0 1-2.33 0 2.49 2.49 0 0 1-.67-.22 1.5 1.5 0 0 1-.66-.64 3.67 3.67 0 0 1-.41-1.26 3.94 3.94 0 0 1 .48-2.46 10.13 10.13 0 0 1 3.17-3.24 27.88 27.88 0 0 1 3.78-2.16 20.71 20.71 0 0 0 3.63-1.92 5.49 5.49 0 0 0 1.33-1.3 1.44 1.44 0 0 0 .26-.65.51.51 0 0 0-.15-.42 3 3 0 0 0-1.51-.62 12.83 12.83 0 0 0-2-.16 20.33 20.33 0 0 0-4.06.4A20.83 20.83 0 0 0 48 24.92a53.58 53.58 0 0 0-6.38 5.43l-3 3a20.28 20.28 0 0 1-3.39 2.78 3.48 3.48 0 0 1-2.48.61 1.75 1.75 0 0 1-1.24-1 3 3 0 0 1-.19-1.34 11.23 11.23 0 0 1 1.46-4.25 32.32 32.32 0 0 1 5.18-6.92 41 41 0 0 1 6.58-5.54 40.17 40.17 0 0 1 15.83-6.42.48.48 0 0 1 .56.4.48.48 0 0 1-.48.49zM58.83 7.59a38.65 38.65 0 0 0-6.16 1.94 40.21 40.21 0 0 0-5.75 2.9 35.83 35.83 0 0 0-5.15 3.83 23.06 23.06 0 0 0-4.17 4.82.48.48 0 0 1-.67.15.49.49 0 0 1-.17-.63 20.56 20.56 0 0 1 4.09-5.35 31.8 31.8 0 0 1 5.33-4.06 34.74 34.74 0 0 1 6-2.9 31.54 31.54 0 0 1 6.47-1.66.48.48 0 0 1 .55.41.48.48 0 0 1-.37.55zM37.14 15.07a17.33 17.33 0 0 1 3.75-4.61 38.08 38.08 0 0 1 4.64-3.59 52 52 0 0 1 5-2.95 45.32 45.32 0 0 1 5.36-2.31.48.48 0 0 1 .62.3.5.5 0 0 1-.25.6c-1.72.83-3.43 1.69-5.09 2.62S47.92 7 46.33 8.07a46.09 46.09 0 0 0-4.57 3.38A19.69 19.69 0 0 0 38 15.54a.48.48 0 0 1-.83-.49z"/></g></g></svg>