<svg xmlns="http://www.w3.org/2000/svg" viewBox="0 0 89.61 92.1"><defs><style>.cls-1{fill:#fff}.cls-2{fill:#0084c0}.cls-3{fill:#00be28}</style></defs><title>Asset 13</title><g id="Layer_2" data-name="Layer 2"><g id="Layer_1-2" data-name="Layer 1"><path class="cls-1" d="M89.09 44.05a41.88 41.88 0 0 1-47.87 41.39c-5.89-.85-12.9 5.69-36 4 10.7-11.17 7.57-21.75 7.57-21.75a41.83 41.83 0 1 1 76.3-23.64z"/><path class="cls-2" d="M89.61 44.05a49.21 49.21 0 0 1-1.89 13.56 44.09 44.09 0 0 1-5.84 12.59 37.43 37.43 0 0 1-4.45 5.45 36.32 36.32 0 0 1-5.38 4.6 42.58 42.58 0 0 1-12.77 6.1 44 44 0 0 1-14.07 1.71c-1.19 0-2.37-.14-3.55-.28l-.84-.11a5.66 5.66 0 0 0-.6 0 9 9 0 0 0-1.32.1c-1.88.3-4.07 1-6.27 1.62a69.27 69.27 0 0 1-13.73 2.44 94.3 94.3 0 0 1-13.9.02l-5-.33 3.49-3.68a27.52 27.52 0 0 0 6-9.19 20.6 20.6 0 0 0 1.24-5.21 18 18 0 0 0 .08-2.64c0-.44 0-.87-.11-1.29l-.1-.62c0-.17-.09-.43-.1-.48l.32.68a44.1 44.1 0 0 1 23.36-67.2A44.59 44.59 0 0 1 54.58.65a42.88 42.88 0 0 1 18.69 8.1 40.47 40.47 0 0 1 12.35 15.91 48.3 48.3 0 0 1 3.99 19.39zm-1 0a36.56 36.56 0 0 0-5-18.34A44.73 44.73 0 0 0 62.76 7.49a39.59 39.59 0 0 0-42.91 8.22 39 39 0 0 0-5.8 7.14 38.1 38.1 0 0 0-4 8.28 40 40 0 0 0-1.8 18.17 39.23 39.23 0 0 0 6.52 17.06l.23.33.09.35a9.69 9.69 0 0 1 .22 1c.06.29.1.58.14.86.07.58.12 1.14.14 1.7a21.94 21.94 0 0 1-.11 3.35 25.43 25.43 0 0 1-1.54 6.41 32.37 32.37 0 0 1-7 10.78l-1.55-4a89.12 89.12 0 0 0 13.17.07 65.09 65.09 0 0 0 12.88-2.25 66.24 66.24 0 0 1 6.83-1.69 12.38 12.38 0 0 1 2-.14 10.17 10.17 0 0 1 1.09.08l.84.12c1.05.14 2.12.24 3.18.29A39.93 39.93 0 0 0 58.1 82.2a43.84 43.84 0 0 0 21.29-13.88 39.66 39.66 0 0 0 6.73-11.25 35 35 0 0 0 1.82-6.38 41.11 41.11 0 0 0 .62-6.64z"/><circle class="cls-3" cx="29.94" cy="46.85" r="3.75"/><circle class="cls-3" cx="49.1" cy="46.85" r="3.75"/><circle class="cls-3" cx="68.25" cy="46.85" r="3.75"/></g></g></svg>