<svg xmlns="http://www.w3.org/2000/svg" viewBox="0 0 1600 1168"><defs><style>.cls-1{fill:#E1E2E2}.cls-2{fill:#CCCED0}.cls-3{fill:#05931f}.cls-4{fill:#00be28}.cls-5{fill:#fff}.cls-6{fill:#204A69}.cls-7{fill:none}</style></defs><title>jetpack-updates</title><g id="jetpack-updates"><path class="cls-1" d="M1139.66 1168H214.54V518.37a176.4 176.4 0 0 1 176.55-175.85h558.13c105 0 190.13 84.92 190.44 189.88z"/><path class="cls-2" d="M1135.17 266.6L736.18 390s-32.84-44.76 5.48-133.88S921.15 79.8 1064.72 55.24a1482.78 1482.78 0 0 1 190.86-14c87.58-2 154.38 82.24 139.08 174a340.06 340.06 0 0 1-51.22 129.25"/><circle class="cls-3" cx="683" cy="798.06" r="231.42"/><path class="cls-3" d="M451.71 662.92h462.71v135.14H451.71z"/><circle class="cls-4" cx="683" cy="666.7" r="231.42"/><path class="cls-5" d="M593.46 686.77c23.29 21.19 46 43 68.62 64.84l-14 .84c22.46-29.61 44.63-59.64 67.79-88.83S762 605.1 786 576.75a6.87 6.87 0 0 1 10.8 8.28c-20.91 30.59-43.22 60.76-65.82 90.52s-45.47 59.08-68.34 88.55a9.41 9.41 0 0 1-13.19 1.69l-1-1q-33-33.79-64.84-68.62a6.9 6.9 0 0 1 0-9.69 7 7 0 0 1 9.85.29z"/><path class="cls-2" d="M1061.63 205.27c-291.62 51.36-445.16 325.3-388 341.16s173.18-201.95 342.29-217.8c130.52-12.35 108.63 46.59 33.82 79.57C938.7 457 919.47 500.82 936.31 531.56s222.3-30.18 347.2-123.36a278.12 278.12 0 0 0 95.85-138.8"/><path class="cls-6" d="M1062.9 211.86a551.22 551.22 0 0 0-215.15 90.38A586.46 586.46 0 0 0 758.5 378a438.64 438.64 0 0 0-69.33 93.46 142.68 142.68 0 0 0-18.24 52.21 25.54 25.54 0 0 0 1.26 10.52 5.88 5.88 0 0 0 4.63 3.79 32.8 32.8 0 0 0 21.47-5.61 287.64 287.64 0 0 0 44.07-36.77l42.1-42.1A766.91 766.91 0 0 1 876 374.94 314.76 314.76 0 0 1 986.69 323a295.2 295.2 0 0 1 61.47-6.17 172.5 172.5 0 0 1 31.44 2.38 58.26 58.26 0 0 1 33.12 15 28.06 28.06 0 0 1 7.29 21.47 39.5 39.5 0 0 1-7 18.25 93 93 0 0 1-23.58 23.29 293.7 293.7 0 0 1-54.31 28.07 385 385 0 0 0-50.52 28.07A125.47 125.47 0 0 0 945.85 492a36.53 36.53 0 0 0-4.77 22.88 32.64 32.64 0 0 0 3.65 10.94 13.13 13.13 0 0 0 5.89 2.67 165.66 165.66 0 0 0 55.3-4.77 677.41 677.41 0 0 0 112.27-35.65 838.66 838.66 0 0 0 106-51.5 373.42 373.42 0 0 0 92.76-70.17 276 276 0 0 0 57.05-99.81 6.88 6.88 0 0 1 13 4.07A288.81 288.81 0 0 1 1327.72 378a280.29 280.29 0 0 1-45.19 41.26 603.68 603.68 0 0 1-50.38 33.26 869.26 869.26 0 0 1-107.92 53.33 717.52 717.52 0 0 1-114.8 37.19 302 302 0 0 1-30.18 5 111.3 111.3 0 0 1-32.7 0 35 35 0 0 1-9.4-3.09 21 21 0 0 1-9.26-9 51.24 51.24 0 0 1-5.75-17.68 55.28 55.28 0 0 1 6.73-34.53 142.27 142.27 0 0 1 44.49-45.47 390.2 390.2 0 0 1 53.05-30.31 290.52 290.52 0 0 0 50.94-26.95 76.84 76.84 0 0 0 18.65-18.14 20.37 20.37 0 0 0 3.65-9.12 7.17 7.17 0 0 0-2.11-5.9 42.16 42.16 0 0 0-21.19-8.7 179.49 179.49 0 0 0-28.07-2.24 284.71 284.71 0 0 0-57 5.61 292.47 292.47 0 0 0-103.15 48.42 751.11 751.11 0 0 0-89.53 76.2l-42.11 42.1a284.51 284.51 0 0 1-47.57 39 48.86 48.86 0 0 1-34.81 8.56 24.59 24.59 0 0 1-17.4-14 42 42 0 0 1-2.66-18.8 157.58 157.58 0 0 1 20.49-59.65 453.42 453.42 0 0 1 72.69-97.11 575.4 575.4 0 0 1 92.35-77.75 563.78 563.78 0 0 1 222.15-90.1 6.74 6.74 0 0 1 7.83 5.43v.19a6.73 6.73 0 0 1-6.59 6.87zm-22.74-64.13A542 542 0 0 0 953.71 175 564.57 564.57 0 0 0 873 215.65a503 503 0 0 0-72.28 53.75 323.65 323.65 0 0 0-58.52 67.65 6.73 6.73 0 0 1-9.27 2.18.57.57 0 0 1-.13-.08 6.87 6.87 0 0 1-2.39-8.84 288.6 288.6 0 0 1 57.4-75.08 446.3 446.3 0 0 1 74.8-57 488 488 0 0 1 84.21-40.7 442.33 442.33 0 0 1 90.8-23.3 6.73 6.73 0 0 1 7.69 5.62.59.59 0 0 1 0 .14 6.73 6.73 0 0 1-5.15 7.74zm-304.4 105A243.4 243.4 0 0 1 788.39 188a535.41 535.41 0 0 1 65.12-50.38 730.69 730.69 0 0 1 70.17-41.4A636.64 636.64 0 0 1 998.9 63.8a6.74 6.74 0 0 1 8.64 4l.06.18a7 7 0 0 1-3.51 8.42C980 88.08 956 100.15 932.66 113.2s-45.61 26.25-67.92 41.26a645.83 645.83 0 0 0-64.14 47.44 276.45 276.45 0 0 0-52.77 57.4 6.76 6.76 0 0 1-11.65-6.88z"/></g><g id="clear_rectangle" data-name="clear rectangle"><path id="Layer_4" data-name="Layer 4" class="cls-7" d="M0 0h1600v1168H0z"/></g></svg>