<svg id="Plan_-_Premium" data-name="Plan - Premium" xmlns="http://www.w3.org/2000/svg" viewBox="0 0 1458.04 692.71"><title>plan-premium</title><path d="M2120.79,313.61l-4.5,366.66a74.37,74.37,0,0,1,10.24,1.72l4.52-368.29C2127.63,313.63,2124.21,313.61,2120.79,313.61Z" transform="translate(-1801.54 -176.67)" style="fill:#D8DEE4"/><path d="M2913.68,311.93V499.42c3.42-.1,6.86-.25,10.27-.09v-188Q2918.83,311.74,2913.68,311.93Z" transform="translate(-1801.54 -176.67)" style="fill:#D8DEE4"/><path d="M2913.68,671.18V858.56h-21.85v10.27h27a5.13,5.13,0,0,0,5.13-5.13V676.1C2920.61,674.24,2917.39,672.2,2913.68,671.18Z" transform="translate(-1801.54 -176.67)" style="fill:#D8DEE4"/><path d="M2313.83,698.44c-.07,55.06,1.41,110,.75,165h293.19v-165Z" transform="translate(-1801.54 -176.67)" style="fill:#7bdebf"/><path d="M887.62,521.77h155.67a0,0,0,0,1,0,0v165a0,0,0,0,1,0,0h-168a0,0,0,0,1,0,0V534.08A12.31,12.31,0,0,1,887.62,521.77Z" style="fill:#44d0a3"/><path d="M2435.47,262.73a2.61,2.61,0,0,1-1-1.83c-1.2-13.2-8.72-24.85-10.08-38-1.12-10.83,2.58-21,10.9-28A61.71,61.71,0,0,1,2461,182.2H2168.52c-26.06,0-47.19,25.08-47.19,56v78.17h286.75a113.46,113.46,0,0,1,14.87-38.11A71.78,71.78,0,0,1,2435.47,262.73Z" transform="translate(-1801.54 -176.67)" style="fill:#44d0a3"/><path d="M2877.62,182.2H2482.3a32.74,32.74,0,0,1,4.36,1.5c8,3.44,11.73,10,14.27,18a73.92,73.92,0,0,0,6.44,15.58c2.88,4.9,3.74,9.47,5.66,14.72,3.63,10,18.55,8,27,9.72,12.47,2.61,23.6,9.5,33.62,17.08a87.29,87.29,0,0,1,22.67,25.54,57.14,57.14,0,0,1,7.16,18.19c.23,1.16.44,2.32.65,3.48,1.78,3.51,3.22,7.19,5.55,10.38h315.15V238.21C2924.81,207.28,2903.68,182.2,2877.62,182.2Z" transform="translate(-1801.54 -176.67)" style="fill:#44d0a3"/><path d="M2411.8,307l-100.41.44c-69.9.33-139.81-.09-209.71,5.45v3.42c69.9,5.54,139.81,5.12,209.71,5.45l96.29.42C2407.61,316.88,2410.57,312.13,2411.8,307Z" transform="translate(-1801.54 -176.67)" style="fill:#204A69"/><path d="M2730.81,307.48l-124.91-.55c2.6,5.11,5.63,9.81,6.29,15.39l118.62-.52c69.9-.32,139.81.08,209.71-5.45v-3.42C2870.61,307.4,2800.71,307.81,2730.81,307.48Z" transform="translate(-1801.54 -176.67)" style="fill:#204A69"/><path d="M2710.85,653.11c53.39-1.49,106.78-2.15,160.17-2.54a3.1,3.1,0,0,1,1.25.25l.07,0c34,14.76,68.66,28.2,103.66,40.39l-3.6,5.92a79.11,79.11,0,0,1-8-9.57,107.39,107.39,0,0,1-6.59-10.31,116,116,0,0,1-9.62-22.43,3.61,3.61,0,0,1,2.38-4.51,3.91,3.91,0,0,1,1.09-.16l22.07,0a68.47,68.47,0,0,0,10.49-.45,37.17,37.17,0,0,0,9.63-2.73,37.74,37.74,0,0,0,22.31-31.05c.32-14,.05-29.23.11-43.79l0-22.07,0-11a47.88,47.88,0,0,0-.82-10.16,37.73,37.73,0,0,0-25.82-28.06,38.67,38.67,0,0,0-9.86-1.55l-10.94-.07-22.07,0-88.26-.19-88.27-.36-44.13-.32c-7.26.12-15-.55-21.58.44a38.33,38.33,0,0,0-18.54,8.47A38.73,38.73,0,0,0,2674.26,524c-2.57,6.5-2.22,13.49-2.28,21l-.25,44.13-.15,22.07a40.62,40.62,0,0,0,4.65,20.35,40,40,0,0,0,34.62,20.94Zm0,2.05a43.21,43.21,0,0,1-37.77-21.95,44.36,44.36,0,0,1-5.51-22.08l-.15-22.07-.25-44.13c0-7.12-.48-15.23,2.35-22.63a43.74,43.74,0,0,1,34-29c8-1.17,15.06-.55,22.48-.8l44.13-.32,88.27-.36,88.26-.19,22.07,0,11.12,0a46.28,46.28,0,0,1,11.87,1.84A45.44,45.44,0,0,1,3023,527.24a56.08,56.08,0,0,1,1,11.78l0,11,0,22.07c-.11,14.86.16,29.09-.27,44.47a45.25,45.25,0,0,1-26.89,37.17,44.54,44.54,0,0,1-11.54,3.23,75.44,75.44,0,0,1-11.53.49l-22.07,0,3.47-4.67a108.75,108.75,0,0,0,8.94,21,99.69,99.69,0,0,0,6.12,9.65,73.65,73.65,0,0,0,7.12,8.61l.09.1a3.54,3.54,0,0,1-3.69,5.83c-35.2-12.43-70-25.84-104-41.22l1.31.28c-53.39-.38-106.78-1-160.17-2.54Z" transform="translate(-1801.54 -176.67)" style="fill:#CCCED0"/><path d="M2667.57,611.14l-.15-22.07-.25-44.13c0-7.12-.48-15.23,2.35-22.63a43.74,43.74,0,0,1,34-29c8-1.17,15.06-.55,22.48-.8l44.13-.32,74.68-.31V387.85h-324l-94,32.16-12.39-32.16H2221.34A12.31,12.31,0,0,0,2209,400.16V627.61H2670.5A43.77,43.77,0,0,1,2667.57,611.14Z" transform="translate(-1801.54 -176.67)" style="fill:#7bdebf"/><circle cx="1109.85" cy="401.3" r="13.23" style="fill:#CCCED0"/><circle cx="1043.98" cy="401.3" r="13.23" style="fill:#CCCED0"/><circle cx="978.11" cy="401.3" r="13.23" style="fill:#CCCED0"/><polygon points="507.07 381.33 569.24 289.67 640.34 381.33 507.07 381.33" style="fill:#44d0a3"/><path d="M3256.9,858.75c-217.73-4.65-548.45-4.18-766.18-5l-176.23.55c0,4.82-.17,9.61-.59,14.38l176.82.55c217.73-.82,548.45-.35,766.18-5a2.74,2.74,0,0,0,0-5.47Z" transform="translate(-1801.54 -176.67)" style="fill:#F6F6F6"/><path d="M2311.56,678.1h0c-96.83-.81-193.66-.54-290.49-.86h0a3.6,3.6,0,0,0-3.58,3.63l.75,139.88h6.64l-.15-136.29c94.72-.3,189.44-.06,284.16-.84L2311.19,865v.45l-145.3-1.85-66.43-.43c0,1.83-.08,3.66-.21,5.47l68.55-.44,144.74-1.85h.46l1.26-185.46A2.72,2.72,0,0,0,2311.56,678.1Z" transform="translate(-1801.54 -176.67)" style="fill:#CCCED0"/><polyline points="230.73 526 361.48 605.18 499.81 520.79" style="fill:#fff"/><path d="M2032.6,702.13c11.42,5.73,22.6,11.87,33.72,18.09s22.13,12.63,33,19.23L2132.18,759c11,6.45,21.74,13.28,32.62,19.91h-3.57l69.44-41.75q34.74-20.84,70-40.8a1.28,1.28,0,0,1,1.33,2.18q-33.95,22.15-68.32,43.59l-68.9,42.64a3.46,3.46,0,0,1-3.57,0c-10.91-6.57-22-12.93-32.75-19.68l-32.55-20c-10.89-6.6-21.61-13.5-32.34-20.36s-21.28-14-31.65-21.5a.64.64,0,0,1,.66-1.09Z" transform="translate(-1801.54 -176.67)" style="fill:#CCCED0"/><path d="M1921.07,584.72c-40.18,27.25-79.57,55.43-119.26,83.41a.64.64,0,0,0,.71,1.06c41-25.87,80.95-53.1,121.48-79.7A30.07,30.07,0,0,1,1921.07,584.72Z" transform="translate(-1801.54 -176.67)" style="fill:#CCCED0"/><path d="M2100.06,863.1l-.1-2.76a50.69,50.69,0,0,0-.7-5.47,43.47,43.47,0,0,0-3.58-10.45,43,43,0,0,0-14.51-16.56,42.19,42.19,0,0,0-21-7.13c-7.35-.3-14.31-.2-21.49-.32l-61.64-.59,1.26-112.5c.56-45.06.61-67.36.74-112.61a37.91,37.91,0,0,0,5.31-4.73c10-11.77,10.71-28.61,10.71-28.61a39.57,39.57,0,0,0-10.74-28.57,37.6,37.6,0,0,0-2.89-2.79l-5.31-3.87a40.33,40.33,0,0,0-20.37-5.91,41,41,0,0,0-29.29,11.86,41.64,41.64,0,0,0-12.36,29.29,41.09,41.09,0,0,0,6.83,22.61c-.46.48,3.14,4.85,3.45,4.53.66.75,1.33,1.48,2,2.18a39.83,39.83,0,0,0,3.7,3.23l.3,112.28.51,79.79q.09,16.77.36,33.53l-63.56-.18c-7.21,0-14.06-.16-21.56.06a44.05,44.05,0,0,0-21.83,7,44.8,44.8,0,0,0-15.41,17,45.43,45.43,0,0,0-4.88,22.3v.15a3.57,3.57,0,0,0,3.58,3.44l146.76-.7,72.89-1,72-.1.52-1.37A11.7,11.7,0,0,0,2100.06,863.1ZM1931.28,585.83a34.89,34.89,0,0,1,24.47-59.39,36.18,36.18,0,0,1,25.22,9.7,36.66,36.66,0,0,1,11.54,25.22s-.88,15.8-11.58,25.18a36,36,0,0,1-25.18,9.64A34.8,34.8,0,0,1,1931.28,585.83Zm42.94,234-21-.2-17.14,0q.25-16.77.36-33.55l.51-79.79.29-107.85a41.25,41.25,0,0,0,18.51,4.26,40.42,40.42,0,0,0,16.46-3.84c.12,43.06.19,63.07.72,106.31Zm50.49,44.09-72.68-1-140.75-.68a38.08,38.08,0,0,1,17-29.79,37,37,0,0,1,18.32-6c6.73-.24,14.14-.1,21.18-.17l85.48-.24,85.48-.81c7.07,0,14.37-.25,21.25-.09A38.85,38.85,0,0,1,2079.1,831a39.45,39.45,0,0,1,13.75,14.83,40.43,40.43,0,0,1,3.6,9.61l1,7.67Z" transform="translate(-1801.54 -176.67)" style="fill:#CCCED0"/><path d="M2636.53,350.95a1.28,1.28,0,0,0-1.58-.89c-3.94,1.1-7.86,2.24-11.78,3.39q-7.5-24.81-15.44-49.48a108.67,108.67,0,0,0-28.94-46.12c-13.46-12.53-30.65-21.45-49.16-24a78.85,78.85,0,0,0-14.78-.67c-1.59-6.44-3.18-12.89-4.93-19.28-1.09-3.89-1.85-7.78-3.62-11.87a45.49,45.49,0,0,0-6.73-11,39.38,39.38,0,0,0-22-13.54,33.27,33.27,0,0,0-13.33-.24c-4.6.91-8.19,2.37-12.05,3.57a93.48,93.48,0,0,0-11.76,4.47,33.3,33.3,0,0,0-10.43,8.32,40,40,0,0,0-9.24,24.15,45.57,45.57,0,0,0,1.47,12.81c1.21,4.16,2.58,7.86,4,11.65q.89,2.52,1.81,5c-45.45,29.58-90.62,59.58-136,89.28L2120.82,450.12,1987.07,540.6a18.88,18.88,0,0,1,2.93,5.9l134.84-90.37,170.64-114.48c44.59-30.32,89.38-60.35,133.9-90.79q2.19,5.93,4.55,11.82a79,79,0,0,0-6.31,5.74c-13.11,13.34-21.3,30.89-24.37,49s-.89,37.06,5.24,54.2c5.94,16.18,12,32.31,18.4,48.34-6.18,2.45-12.33,5-18.43,7.68a.64.64,0,0,0,.41,1.21c19.46-4.75,38.47-10.82,57.5-16.82l56.8-18.87c37.66-13.2,75.51-25.83,112.6-40.72A1.29,1.29,0,0,0,2636.53,350.95Zm-206-110.11-2.88-11.53a39.61,39.61,0,0,1-.54-11.19,34,34,0,0,1,8.11-20,26.35,26.35,0,0,1,8.46-6.49c3-1.48,7.12-2.56,10.88-3.94a106.3,106.3,0,0,1,11-3.55,26.4,26.4,0,0,1,10.68,0A34.57,34.57,0,0,1,2495,195a39.68,39.68,0,0,1,6.29,9.28,103.27,103.27,0,0,1,4.13,11c2,6,4.18,12,6.35,18a76.42,76.42,0,0,0-9.94,1.53c-9.29,2.26-17.27,5.49-25.87,8.21l-12.68,4.31a123.26,123.26,0,0,0-12.86,4.89,77.23,77.23,0,0,0-15,9.19C2433.92,254.57,2432.27,247.69,2430.53,240.84Zm90.33,145.52L2464.31,406c-12.05,4.39-24.11,8.76-36.06,13.47-4.72-16.57-9.7-33-14.84-49.47a105.07,105.07,0,0,1-3.79-51.42c3-17,10.8-33.19,22.9-45.29a71.08,71.08,0,0,1,20.84-14.52c7.6-3.35,16.6-5.79,24.89-8.82,8.39-2.74,17-6.22,25.1-8.21a71.11,71.11,0,0,1,25.39-1.18c17,2.22,33,10.35,45.78,22a104.07,104.07,0,0,1,28.24,43.15q8.74,24.33,17.86,48.52C2587.07,364.08,2554,375.44,2520.86,386.36Z" transform="translate(-1801.54 -176.67)" style="fill:#CCCED0"/></svg>