<svg id="Plan_-_Free" data-name="Plan - Free" xmlns="http://www.w3.org/2000/svg" viewBox="0 0 1455.5 693.52"><title>plan-free</title><path d="M2916.54,713.28l.27,49.94,1.31,103.9a2.12,2.12,0,0,0,4.24,0l1.31-103.9.27-49.94Z" transform="translate(-1801.08 -175.72)" style="fill:#74dcfc"/><path d="M2914.92,412.51l.37,69h9.9l.37-69,.17-98.09h2.1v-80.8c0-32-21.84-57.9-48.77-57.9H2157.49c-26.94,0-48.77,25.92-48.77,57.9v80.8h3.1l-.88,52.91-3.28,233.77a1.06,1.06,0,0,0,2.12,0l7.32-233.73c.45-17.67,1-35.34,1.53-53h796.12Z" transform="translate(-1801.08 -175.72)" style="fill:#74dcfc"/><path d="M1977.5,858c-8.4-.7-14.79-1.14-23.19-1.45-16-.53-32-.92-48-1.08l-24,.15-24,.75c-16,.66-40,2-56,5.71a1.45,1.45,0,0,0,0,2.83c16,3.73,182.21,4.62,192.87,3.54C1991.12,866.58,1985.62,864.84,1977.5,858Z" transform="translate(-1801.08 -175.72)" style="fill:#e9eff4"/><path d="M657.83,587.15H1045a0,0,0,0,1,0,0V693.4a0,0,0,0,1,0,0H645.53a0,0,0,0,1,0,0V599.46A12.31,12.31,0,0,1,657.83,587.15Z" style="fill:#00a9de"/><path d="M1921.94,647.37q-2.61-3.2-5.25-6.38c-9.34-11.14-18.76-22.23-28.37-33.14-19.46-21.62-38.41-43.68-59.35-64a1.42,1.42,0,0,0-2.13,1.86c17.32,23.48,36.64,45.22,55.45,67.4,9.52,11,19.24,21.8,29,32.56q2.34,2.55,4.7,5.09A21.35,21.35,0,0,1,1921.94,647.37Z" transform="translate(-1801.08 -175.72)" style="fill:#c2f4ff"/><path d="M1934.31,641.34a15.47,15.47,0,0,1,7.75-1.32q-2.35-3-4.72-6c-9-11.38-18.17-22.71-27.5-33.86-18.88-22.12-37.25-44.66-57.66-65.52a1.42,1.42,0,0,0-2.18,1.81c16.71,23.92,35.45,46.16,53.68,68.82,9.23,11.23,18.67,22.3,28.17,33.3Z" transform="translate(-1801.08 -175.72)" style="fill:#c2f4ff"/><path d="M1979.75,837.68l.75,8.9c.37,2.94,0,6.27,1.33,7.81,2.66,3.76,8.32,5.52,13.51,6.36s11.13.24,17.12.21l17.81-.16c23.74.42,47.48.1,71.23,2.61a1.42,1.42,0,0,1,0,2.83c-23.74,2.51-47.48,2.19-71.23,2.6l-17.81-.16-8.9-.2a44,44,0,0,1-9.5-1c-6.12-1.49-13-4.22-16.18-11.13a10.37,10.37,0,0,1-.64-5.28l.34-4.45.75-8.9a.71.71,0,0,1,1.41,0Z" transform="translate(-1801.08 -175.72)" style="fill:#c8d7e2"/><path d="M1886.47,675.69a102.92,102.92,0,0,1,23.4-25.29,88.89,88.89,0,0,1,31.53-15.12c23-5.5,46.67-2.93,69,1.09,22.45,4.36,44.36,10.07,66.51,13.91s44.51,6,66.94,3.9a1.42,1.42,0,0,1,.43,2.8c-22.52,4.69-45.92,3.46-68.47.12s-44.72-9-66.85-12.86c-22-4.09-44.52-6.89-66-2-21.58,4.39-40.16,17.8-55.47,34.37a.71.71,0,0,1-1.12-.87Z" transform="translate(-1801.08 -175.72)" style="fill:#c8d7e2"/><path d="M2171,650.63A38.63,38.63,0,0,0,2160.82,637a69.72,69.72,0,0,0-14.54-8.93c-10.4-4.87-21.89-7.49-33.44-8.74a140.07,140.07,0,0,0-35,.6c-11.67,1.69-23.07,4.73-34.61,8.09h0a1.42,1.42,0,0,1-1.07-2.61,127.27,127.27,0,0,1,34.58-12.3,141,141,0,0,1,37-1.75,96.46,96.46,0,0,1,35.83,10.34,54.37,54.37,0,0,1,15.1,11.47c4.08,4.94,7.35,10.8,7.84,17.14a.71.71,0,0,1-1.37.34Z" transform="translate(-1801.08 -175.72)" style="fill:#c8d7e2"/><path d="M2200.56,376.24A11.73,11.73,0,0,0,2188.83,388V680.13h25.92v26.12c0,26.92-9.53,52-25.92,73v89.92h170.31V376.24Z" transform="translate(-1801.08 -175.72)" style="fill:#c8d7e2"/><path d="M2215.46,676.13c.15,11,.71,21.93.53,33.12a114.69,114.69,0,0,1-6.25,32.84A131.93,131.93,0,0,1,2172.09,797c-33.72,30-79.87,43.94-124.32,42.6-44.42,1.45-90.7-12-125-41.83a133.85,133.85,0,0,1-38.68-55.1,121.5,121.5,0,0,1-6.92-33.32c-.41-11.47-.07-22.15-.14-33.26a3.73,3.73,0,0,1,3.71-3.75h0c48.68.09,97.36.22,146,.71l73,.59c24.34.1,48.68.69,73,1a1.41,1.41,0,0,1,0,2.83c-24.34.34-48.68.94-73,1l-73,.59c-48.68.49-97.36.62-146,.71l3.75-3.75c.12,10.9-.15,22.26.28,32.79a113.76,113.76,0,0,0,6.62,31.1c7.38,20,20.45,37.7,36.58,51.77,32.48,28.42,76.44,41.7,119.75,40.49a191.92,191.92,0,0,0,64-8.79c20.55-6.53,40-16.83,56.41-30.93s29.86-31.67,37.61-51.92a121,121,0,0,0,7.28-31.58c.66-10.83.61-22,1-32.94a.71.71,0,0,1,.72-.7A.72.72,0,0,1,2215.46,676.13Z" transform="translate(-1801.08 -175.72)" style="fill:#c8d7e2"/><path d="M2950.27,314.39c-72.25,5.72-144.51,5.3-216.76,5.63l-216.76,1L2300,320c-72.25-.34-144.51.09-216.76-5.63v-3.54c72.25-5.73,144.51-5.3,216.76-5.63l216.76-1,216.76,1c72.25.34,144.51-.08,216.76,5.63Z" transform="translate(-1801.08 -175.72)" style="fill:#004f84"/><polygon points="921.48 517.65 645.53 517.65 645.53 241.7 921.48 517.65" style="fill:#c2f4ff"/><path d="M2953.87,658.1h-3.55c2.56,12.27,5.92,24.7,13,35.32a.73.73,0,0,0,1,.21.71.71,0,0,0,.22-1C2958.33,682.17,2955.7,670.08,2953.87,658.1Z" transform="translate(-1801.08 -175.72)" style="fill:#c8d7e2"/><path d="M2958.51,713.28c-27,0-54,0-80.92.45l-79.65.89c-11-9.2-17.88-22.76-22.22-36.82-4.34-14.58-6.34-29.93-7.07-45.32a357,357,0,0,1,1-46.35c1.21-14.32,3-28.71,5.6-42.77l36.76-.12c-.17-2.59-.24-5.18-.26-7.78l-39.85-.13h0a4,4,0,0,0-3.89,3.22,439.66,439.66,0,0,0-6.09,47,364.58,364.58,0,0,0-.75,47.36c.85,15.8,3,31.68,7.65,47.07,4.79,15.18,12.46,30.53,25.86,40.76l.07.05a3.2,3.2,0,0,0,2,.66l80.92-2.42c27-.71,53.94-1.75,80.9-2.87a1.41,1.41,0,0,0-.07-2.83Z" transform="translate(-1801.08 -175.72)" style="fill:#c8d7e2"/><path d="M3017.67,634.83c-6.46-11.29-10.29-23.88-13.11-36.57a354.42,354.42,0,0,1-6.4-38.56,659.89,659.89,0,0,1-3.85-78.18v0a3.42,3.42,0,0,0-3.41-3.43h0L2816,477.51h0A4,4,0,0,0,2812,481a450.66,450.66,0,0,0-3.13,47.41,380.12,380.12,0,0,0,2.07,47.47c1.75,15.78,4.73,31.54,10.06,46.74,5.47,15,13.49,30,26.86,40.27l.06,0a3.2,3.2,0,0,0,2,.66l80.92-2.42c27-.71,53.94-1.75,80.9-2.87a1.42,1.42,0,0,0-.07-2.83c-27,0-54,0-80.92.45l-79.65.89c-11.09-9.26-18.34-22.67-23.31-36.61-5-14.46-7.8-29.75-9.41-45.14a372.76,372.76,0,0,1-1.75-46.52c.32-14.35,1.25-28.81,2.89-43l167.9-.55c.47,25.2,1.86,50.42,5.64,75.38a335.28,335.28,0,0,0,8,38.78c3.58,12.69,8.18,25.3,15.42,36.45a.74.74,0,0,0,1,.21A.71.71,0,0,0,3017.67,634.83Z" transform="translate(-1801.08 -175.72)" style="fill:#c8d7e2"/><path d="M2761.89,585.77a439.66,439.66,0,0,1,6.09-47,4,4,0,0,1,3.89-3.22h0l36.92.12q0-3.53,0-7.06a450.66,450.66,0,0,1,3.13-47.41,4,4,0,0,1,3.94-3.47h0l30,.1a107.48,107.48,0,1,0-84.14,108.67C2761.86,586.28,2761.87,586,2761.89,585.77Z" transform="translate(-1801.08 -175.72)" style="fill:#c8d7e2"/><path d="M2849.45,539.15c8.55-4.64,18.22-6.23,27.53-7.16a270,270,0,0,1,28.16-1.06c18.72.63,37.42,1.29,55.85,5.17a1.43,1.43,0,0,1,1.1,1.69,1.45,1.45,0,0,1-1.34,1.13c-18.67.92-37.18-.21-55.68,0-9.24,0-18.46-.06-27.65.17s-18.26.42-27.51,1.39h-.05a.72.72,0,0,1-.42-1.34Z" transform="translate(-1801.08 -175.72)" style="fill:#c8d7e2"/><path d="M2860,576.71c7.42.24,14.77,0,22.16.21s14.78.09,22.17.08c14.83.09,29.51-.78,44.47-1a1.43,1.43,0,0,1,.51,2.78,103.44,103.44,0,0,1-22.26,4.76c-7.53.83-15.08,1.33-22.64,1.48a201,201,0,0,1-22.68-1c-7.49-.88-15.23-2-22.19-6a.72.72,0,0,1,.38-1.34Z" transform="translate(-1801.08 -175.72)" style="fill:#c8d7e2"/><path d="M3253.9,858.75c-218-4.66-55.47-4.18-273.18-5l-57.23.55c0,4.82-.17,9.61-.59,14.38l57.82.55c217.73-.82,55.45-.35,273.18-5a2.74,2.74,0,0,0,0-5.47Z" transform="translate(-1801.08 -175.72)" style="fill:#e9eff4"/></svg>