<svg id="plan-business" xmlns="http://www.w3.org/2000/svg" viewBox="0 0 1495.06 1495.06"><title>circle-plan-business</title><circle cx="747.53" cy="747.53" r="747.53" style="fill:#f4e4f7"/><path d="M561.73,720V455.16c-145.27,0-264.82,119.54-264.82,264.82Z" transform="translate(-4.94 -4.94)" style="fill:#c879cc"/><polyline points="1147.78 767.85 1147.78 903.46 925.87 903.46 779.04 903.46 779.04 454.16 1147.78 454.16 1147.78 642.87" style="fill:#fff"/><path d="M777.05,908.45v-.06l-.56-224.65.29-124a262.11,262.11,0,0,0-138.53-39.6q-3,0-6,.07l6,264.75H373.44c0,145.27,119.54,264.82,264.82,264.82,98.16,0,184.55-54.58,230.28-134.79l-84.55.34A6.9,6.9,0,0,1,777.05,908.45Z" transform="translate(-4.94 -4.94)" style="fill:#c879cc"/><path d="M968.35,914.57c61.46-.45,122.91-1,184.37-2.11h.12a4,4,0,0,0,3.95-4.07c-.49-45.2-1.83-90.41-2.75-135.61a1.32,1.32,0,0,0-2.64,0c-.88,43.83-2.17,87.65-2.69,131.48-60.12-1.08-120.24-1.6-180.35-2l-92.81-.38q-3.32,6.68-7,13.14Z" transform="translate(-4.94 -4.94)" style="fill:#CCCED0"/><path d="M1152.8,454.22h-.08l-184.37-1.44L784,452.13h0a6.94,6.94,0,0,0-6.92,7l-.24,100.65q7.37,4.57,14.42,9.59L791,466l177.39-.62,179.53-1.4.76,89.44,1.44,94.36a2.64,2.64,0,0,0,5.27,0l1.44-94.36.8-94.36h0A4.84,4.84,0,0,0,1152.8,454.22Z" transform="translate(-4.94 -4.94)" style="fill:#CCCED0"/><path d="M776.49,683.74l.56,224.65v.06a6.9,6.9,0,0,0,6.93,6.87l84.55-.34q3.68-6.46,7-13.14l-84.61-.34.54-217.75-.27-114.41q-7-5-14.42-9.59Z" transform="translate(-4.94 -4.94)" style="fill:#CCCED0"/><line x1="844.91" y1="536.15" x2="1043.34" y2="536.15" style="fill:#fff"/><path d="M849.84,539.77c16.54-3.45,33.07-4.69,49.61-5.32s33.07-.94,49.61-.82c33.07.79,66.14.34,99.22,4.82a2.66,2.66,0,0,1,0,5.27c-33.07,4.48-66.14,4-99.22,4.82-16.54.12-33.07-.26-49.61-.82s-33.07-1.87-49.61-5.32a1.35,1.35,0,0,1,0-2.64Z" transform="translate(-4.94 -4.94)" style="fill:#CCCED0"/><line x1="839.7" y1="603.12" x2="1081.79" y2="603.12" style="fill:#fff"/><path d="M844.64,606.74c20.17-3.45,40.35-4.69,60.52-5.32s40.35-.94,60.52-.82c40.35.79,80.7.34,121,4.82a2.65,2.65,0,0,1,0,5.27c-40.35,4.48-80.7,4-121,4.82-20.17.12-40.35-.26-60.52-.82s-40.35-1.87-60.52-5.32a1.34,1.34,0,0,1,0-2.64Z" transform="translate(-4.94 -4.94)" style="fill:#CCCED0"/><line x1="844.91" y1="673.4" x2="1081.79" y2="673.4" style="fill:#fff"/><path d="M849.84,677c19.74-3.45,39.48-4.69,59.22-5.32s39.48-.94,59.22-.82c39.48.79,79,.34,118.44,4.82a2.65,2.65,0,0,1,0,5.27c-39.48,4.48-79,4-118.44,4.82-19.74.12-39.48-.26-59.22-.82s-39.48-1.87-59.22-5.32a1.34,1.34,0,0,1,0-2.64Z" transform="translate(-4.94 -4.94)" style="fill:#CCCED0"/><line x1="839.7" y1="738.49" x2="905.4" y2="738.49" style="fill:#fff"/><path d="M844.64,742.11c5.48-3.48,11-4.71,16.42-5.32a139.82,139.82,0,0,1,16.42-.83c5.47.15,11,.51,16.42,1a57.71,57.71,0,0,1,16.42,3.83,2.86,2.86,0,0,1,0,5.27,57.71,57.71,0,0,1-16.42,3.83c-5.47.49-11,.86-16.42,1a139.82,139.82,0,0,1-16.42-.83c-5.47-.61-10.95-1.84-16.42-5.32a1.56,1.56,0,0,1-.48-2.16A1.59,1.59,0,0,1,844.64,742.11Z" transform="translate(-4.94 -4.94)" style="fill:#CCCED0"/><path d="M1193.69,642.21a14.32,14.32,0,0,0-12.38,21.56L1084,807.89a14.27,14.27,0,0,0-16.16,2.55L992.4,752.63a14.34,14.34,0,1,0-28.29,4.51l-59.54,87.51-.41,0a14.35,14.35,0,1,0,12,6.45l56.74-83.39a14.29,14.29,0,0,0,14.49-2.31l76.42,58.56a14.34,14.34,0,0,0,28.32-3.15c0-.42,0-.84-.06-1.25l100.38-148.71c.41,0,.82.06,1.25.06a14.34,14.34,0,0,0,0-28.68Z" transform="translate(-4.94 -4.94)" style="fill:#CCCED0"/></svg>