<svg id="Plan_-_Personal" data-name="Plan - Personal" xmlns="http://www.w3.org/2000/svg" viewBox="0 0 1459.16 693.62"><title>plan-personal</title><path d="M2826.85,817.6a149.84,149.84,0,0,0-6.24-31.25,151.72,151.72,0,0,0-8.87-22.11q7.43-7,14.34-14.58a1.39,1.39,0,0,0-2-2l-.05.05q-6.94,6.53-14.21,12.76a153.6,153.6,0,0,0-71.3-67.61,151.49,151.49,0,0,0-62.2-13.83l-251,0h0a3.48,3.48,0,0,0-3.48,3.48V849.2h0a3.48,3.48,0,0,0,3.48,3.48l100.6-.06c33.58.07,67-.41,100.42-.71l100-1,99.24-1.26h.53c.45-5.06,1-10.48,1.36-16.09A157.73,157.73,0,0,0,2826.85,817.6Zm-102.92,29.84-99.88-1c-33.23-.3-66.42-.78-99.47-.71l-95.81-.06V686l247.5,0c40.91.24,81.36,18.32,108.66,49a148.24,148.24,0,0,1,20.43,29.22c-19.22,15.91-40.13,29.78-62.86,39.29-30.25,13.85-64.29,9.55-96.14,1.36-16-4.25-31.8-9.54-48-14.31s-32.95-8.85-50.36-8.77c-17.37.26-34.39,4.94-49.67,12.52a140.16,140.16,0,0,0-40.6,30.28.7.7,0,0,0,1,1l0,0c25.51-21,56.82-36.28,89.32-36.58,16.18.07,32.27,4.05,48.14,8.9s31.79,10.43,48.23,14.5a225.78,225.78,0,0,0,50.4,7.39c17.28,1,34.7-3.3,50.26-10.09a209.42,209.42,0,0,0,43.65-26q9.68-7.34,18.66-15.47a146.07,146.07,0,0,1,8.06,19.73,144.56,144.56,0,0,1,6.36,30.11c.53,5.09.7,10.33.86,15.33l1.4,14.79,0,.49Z" transform="translate(-1801.42 -177.25)" style="fill:#c8d7e2"/><path d="M623.87,215H1002.1a21.56,21.56,0,0,1,21.56,21.56V458.47a0,0,0,0,1,0,0H623.87a0,0,0,0,1,0,0V215A0,0,0,0,1,623.87,215Z" style="fill:#fbc239"/><polygon points="792.48 295.04 855.05 336.73 792.48 378.42 792.48 295.04" style="fill:#fff"/><path d="M1903.9,860.65l-1-.15-.24-.05c-29.85.55-68.69,1.26-98.54,2.23a2.79,2.79,0,0,0,0,5.57c37.31,1.22,83.63,2,120.94,2.62q-.18-2.34-.32-4.68C1917,867.42,1908.75,866.73,1903.9,860.65Z" transform="translate(-1801.42 -177.25)" style="fill:#e9eff4"/><path d="M3035.13,825.85" transform="translate(-1801.42 -177.25)" style="fill:none"/><path d="M2207.33,392.76a18.58,18.58,0,0,0-18.58,18.58l.83,209.15L2205,646.16c31,.72,44.64-4.49,57.59,5,10.9,8,22.54,9.22,22.46,48.14,0,18,.72,51.09-.43,69-1.07,16.59-.36,32.65,0,49.3h76.77V392.76Z" transform="translate(-1801.42 -177.25)" style="fill:#fcd56e"/><path d="M2121.47,309.89l.26,40.31,2.06,227.94a1,1,0,0,0,2.09,0l2.06-227.94.26-40.31Z" transform="translate(-1801.42 -177.25)" style="fill:#86a6bd"/><path d="M2910.55,289.49l-.11,105.39.36,450.36q-136,.18-271.91,1.05l-138.73.86c-46.24.14-92.48,1-138.72,1.52a2.09,2.09,0,0,0,0,4.18c46.24.5,92.48,1.39,138.72,1.52l138.73.86q138.72,1.08,277.45,1.06h0a5.53,5.53,0,0,0,5.52-5.53l.36-455.88-.11-104.47C2918.41,291.82,2914.59,288.91,2910.55,289.49Z" transform="translate(-1801.42 -177.25)" style="fill:#86a6bd"/><path d="M2875.8,177.25H2165.37c-26.52,0-48,25.52-48,57V313.8h806.46V234.25C2923.82,202.77,2902.32,177.25,2875.8,177.25Z" transform="translate(-1801.42 -177.25)" style="fill:#fcd56e"/><path d="M2945.91,313.77c-70.64,5.63-141.28,5.22-211.91,5.55l-211.91.94-211.91-.94c-70.64-.33-141.28.09-211.91-5.55v-3.48c70.64-5.64,141.28-5.22,211.91-5.55l211.91-.94,211.91.94c70.64.33,141.28-.08,211.91,5.55Z" transform="translate(-1801.42 -177.25)" style="fill:#4e748f"/><path d="M2209,642.18c-4.13-6.45-8.31-12.86-12.65-19.15-2.25-3.23-4-6.2-6.81-9.54a34.11,34.11,0,0,0-9.71-7.85,33.13,33.13,0,0,0-12-3.74l-1.21-.1c.14-.42.27-.85.38-1.27a6.82,6.82,0,0,0,.21-3,7.9,7.9,0,0,0-1.34-3.23,8.64,8.64,0,0,0-6.18-3.44l-4.59-.08a8.84,8.84,0,0,0-6.45,2.73,8.46,8.46,0,0,0-2.22,6.63,7.6,7.6,0,0,0,.27,1.32l-13.58-.13-13.5.1c.1-.31.19-.62.27-.93a6.85,6.85,0,0,0,.21-3,7.9,7.9,0,0,0-1.34-3.23,8.64,8.64,0,0,0-6.18-3.44l-4.59-.08a8.84,8.84,0,0,0-6.45,2.73,8.46,8.46,0,0,0-2.22,6.63,7.65,7.65,0,0,0,.35,1.6l-1.3.12a34.57,34.57,0,0,0-12,3.86,32.94,32.94,0,0,0-9.6,8c-2.55,3.33-4.58,6.24-6.77,9.48-4.29,6.34-8.55,12.69-12.48,19.3a.64.64,0,0,0,1,.77c5.33-5.54,10.34-11.33,15.31-17.14,2.49-2.8,4.92-6.09,7.24-8.65a29.35,29.35,0,0,1,8.28-6.11,28,28,0,0,1,9.77-2.94c3.22-.3,7.3-.06,11.06-.08l22.92.18,22.92-.23c3.73,0,7.89-.21,11.11.05a29.44,29.44,0,0,1,9.84,2.78,28.15,28.15,0,0,1,8.3,6.1c2.23,2.44,4.65,5.88,7,8.71,4.75,6,9.65,11.86,14.61,17.7a1.28,1.28,0,0,0,2.05-1.52Zm-103.19-40.6a3.47,3.47,0,0,1-.25-1.75,2,2,0,0,1,2.43-1.77l4.28-.06a1.86,1.86,0,0,1,1.51.41,2.65,2.65,0,0,1,.66.69,2.9,2.9,0,0,1,.58,1.44c.08.32.17.64.28,1l-5.09,0C2108.75,601.59,2107.31,601.58,2105.84,601.59Zm46.87-1.75a2,2,0,0,1,2.43-1.77l4.28-.06a1.86,1.86,0,0,1,1.51.41,2.65,2.65,0,0,1,.66.69,2.89,2.89,0,0,1,.58,1.44q.14.55.32,1.11c-2.16,0-4.23,0-6.42-.05l-3.12,0A3.48,3.48,0,0,1,2152.71,599.83Z" transform="translate(-1801.42 -177.25)" style="fill:#c8d7e2"/><path d="M2239.64,780.49a84.17,84.17,0,0,1-35.8,53.54,86.39,86.39,0,0,1-64.08,12.83,87.2,87.2,0,0,1,29.72-171.8A85.83,85.83,0,0,1,2240,738.22a88.42,88.42,0,0,1,1.95,32.79,1.28,1.28,0,0,1-1.42,1.11,1.3,1.3,0,0,1-1.11-1.4,84,84,0,0,0-17.74-59.22c-13-16.42-32.36-27.66-53-30.28A80.91,80.91,0,0,0,2141,840.57a82.24,82.24,0,0,0,60.2-10.61,80.32,80.32,0,0,0,23.15-21.24,84,84,0,0,0,14-28.52.64.64,0,0,1,1.24.29Z" transform="translate(-1801.42 -177.25)" style="fill:#c8d7e2"/><path d="M2211.41,779.28a56.25,56.25,0,0,1-25.76,33.59c-12.6,7.6-28.3,9.71-42.74,6.43a59.58,59.58,0,0,1-22.82-105.13,59,59,0,0,1,80.35,7.1,57.34,57.34,0,0,1,14.49,40,1.28,1.28,0,0,1-2.55,0,56.18,56.18,0,0,0-15.61-36.64,54.51,54.51,0,0,0-35.42-16.6,53.39,53.39,0,0,0-16.93,105,54.48,54.48,0,0,0,38.87-4.44,57.77,57.77,0,0,0,26.9-29.76.64.64,0,0,1,1.21.4Z" transform="translate(-1801.42 -177.25)" style="fill:#c8d7e2"/><path d="M2247.2,838.87c2.68-1.82,7-.2,8.52,3.12a8.92,8.92,0,0,1-1.71,10.34,9.12,9.12,0,0,1-10.3,1.64c-3.28-1.56-5-5.54-3.79-8.44a1.37,1.37,0,0,1,2.4-.23l.15.23c2.32,3.5,5.22,3.09,6.43,1.69a3.35,3.35,0,0,0,.89-2.76,6.67,6.67,0,0,0-2.58-4.3l-.07-.06a.77.77,0,0,1,.07-1.22Z" transform="translate(-1801.42 -177.25)" style="fill:#c8d7e2"/><path d="M2088.21,686.19a163.52,163.52,0,0,1-25.66,2.57l-6.41.17-1.6,0a11.83,11.83,0,0,1-2.17-.06,7.31,7.31,0,0,1-5-3.23c-1.22-1.6-1.24-4.41-1.19-5l0-3.21,0-3.21v-1.6a15.56,15.56,0,0,1,.1-2.11,7.44,7.44,0,0,1,3.24-5.08c1.51-1.23,4.48-1.3,5.06-1.2l6.41.11,12.83.27,6.41.26,3.21.13c.71,0,3.12.13,4.44,1.24a6.2,6.2,0,0,1,2.57,4.34,22.75,22.75,0,0,1-.18,3.56c-.24,2.14-.41,4.28-.73,6.41a1.29,1.29,0,0,1-2.55,0c-.31-2.14-.48-4.28-.73-6.41-.13-.91-.14-2.5-.28-2.85a1.42,1.42,0,0,0-.83-.87c-.08-.2-2.91.14-4.94.14l-6.41.26-12.83.27-6.41.11c-1.54,0-.82,0-1.09.1a.24.24,0,0,0-.06.2l0,10.3a.33.33,0,0,0,.18.21,5.73,5.73,0,0,0,1,.05l1.6,0,6.41.17a163.5,163.5,0,0,1,25.66,2.57.65.65,0,0,1,0,1.28Z" transform="translate(-1801.42 -177.25)" style="fill:#c8d7e2"/><path d="M2285.63,671.91a40,40,0,0,0-22-29.79A40.59,40.59,0,0,0,2245,638l-18-.11-217.31-.1a55.63,55.63,0,0,0-8-7.77,56.86,56.86,0,0,0-19.47-10.11c-7-2.18-14.82-2.48-21.52-2.33a62.61,62.61,0,0,0-40.42,15,57.68,57.68,0,0,0-5.81,5.65l-.34,0a.65.65,0,0,0-.53.53.63.63,0,0,0,.06.37,61.67,61.67,0,0,0-14.16,31.18c-1.09,7.43-.43,125-.43,125l.34,41.52.09,10.38c-.05,3.16,0,7.74,1.91,11.3a18.42,18.42,0,0,0,8.35,8.44,15,15,0,0,0,5.15,1.63,4.85,4.85,0,0,0-.72.08l1.79.06a31.23,31.23,0,0,0,3.86.13l21,.72h18l143.65-1,71.83-.52s69.7.27,71.91-.44a38.83,38.83,0,0,0,38.57-33.62c.72-6.33.3-12.1.47-18.15l.45-71.83.22-35.91.11-18C2286,684.24,2286.53,678.44,2285.63,671.91Zm-4.45,36.3.22,35.91.26,41.64c-1.2-3.5-2.61-6.88-3.87-10.23-4.53-10.69-7.12-21.51-6.68-32.82.05-11.28,2.93-22.08,7.09-33,1-2.66,2-5.43,2.93-8.26ZM1925.05,638a55.49,55.49,0,0,1,35.72-13.47c7.1-.17,13.25.07,19.59,1.95a50,50,0,0,1,17.18,8.81,49.12,49.12,0,0,1,6.85,6.53c-.56.25-1.11.52-1.65.81-5,2.56-8.73,6.58-12.44,9.91s-7.25,6.48-11.43,8.3a32.34,32.34,0,0,1-13.48,2.6c-4.71,0-9.3-.61-13.22-2.57s-7.3-5-10.5-8.87-6.66-8.17-11.63-11a21.91,21.91,0,0,0-5.7-2.35ZM2009.68,864c-4.18.25-11.16.61-19.51,1l-69.07-1c-3.7,0-6.25-.16-8.93-1.61a13.17,13.17,0,0,1-5.87-6.15c-1.32-2.69-1.29-5.29-1.2-9l.09-10.38.34-41.52.23-83,.06-20.76c.09-7-.26-13.92.74-20.19a54.78,54.78,0,0,1,14.79-29.88,21.11,21.11,0,0,1,5.94,3.51c3.55,2.91,6.21,6.93,9.38,11.07s7.07,8.49,12.32,11.16a34.48,34.48,0,0,0,16.5,3.4,39.29,39.29,0,0,0,16.24-3.68,44.78,44.78,0,0,0,12.92-10c3.55-3.8,6.83-7.39,10.64-10.07a23.35,23.35,0,0,1,2.07-1.28,49.69,49.69,0,0,1,8.89,22.69c.73,6.27.38,13.48.5,20.33l.13,20.76.76,83,.47,41.52.14,10.38c-.08,3.46.43,7-.35,9.93A14.34,14.34,0,0,1,2009.68,864Zm271.95-30.28a35.67,35.67,0,0,1-6,15.92,36.22,36.22,0,0,1-29.4,15.56l-71.83-.44-71.83-.52-87.11-.58a16.71,16.71,0,0,0,5.52-8.56c1.06-3.83.54-7.31.74-10.73l.14-10.38.47-41.52.76-83,.13-20.76c-.09-7,.35-13.65-.43-21.14a56.07,56.07,0,0,0-8.41-23.42L2227,644l18-.11a34.72,34.72,0,0,1,35.47,28.85,72.67,72.67,0,0,1,.57,11.36c-.63,2.47-1.35,4.89-2.21,7.27-1.91,5.36-4.29,10.58-6.59,16a125.49,125.49,0,0,0-6,17,76.46,76.46,0,0,0-2.33,18.2c-.19,12.22,3.07,24.65,8.16,35.34a170.76,170.76,0,0,1,6.72,15.9,72.63,72.63,0,0,1,3,12.72l.06,9.39C2281.76,821.86,2282.22,828.11,2281.63,833.69Z" transform="translate(-1801.42 -177.25)" style="fill:#c8d7e2"/><path d="M2373.59,781.23c-6.69-13.63-19.1-22.12-30.47-29.79-11.61-7.65-23.11-15.09-33.07-24.32a87.5,87.5,0,0,1-22.45-33.39c-.59-1.56-1.13-3.14-1.65-4.73.28,3.9.53,7.8.62,11.72a93.23,93.23,0,0,0,20.14,29.84c10,10.06,21.9,17.75,33.2,25.58s22.43,16.14,27.91,27.87c5.52,11.43,4.92,25.93.77,37.94-4.43,12.17-15,21.12-26.94,26.74s-25.44,8.73-38.89,10.65c-10.91,1.49-21.72.09-32.8.36-.21.27-28,7.34-35.88,8.39,5,.15,22.75,1.1,27.79,1.1a301.78,301.78,0,0,0,41.9-2.86c13.89-2.07,27.83-5.27,40.85-11.48,12.85-6.08,25.08-16.36,30.17-30.59a62.6,62.6,0,0,0,3.53-21.54A49.59,49.59,0,0,0,2373.59,781.23Z" transform="translate(-1801.42 -177.25)" style="fill:#c8d7e2"/><path d="M3257.9,858.75c-217.73-4.65-549.45-4.18-767.18-5l-149.08.55c-13.67,6.26-44.31,12.89-90.61,14.38l239.69.55c217.73-.82,549.45-.35,767.18-5a2.74,2.74,0,0,0,0-5.47Z" transform="translate(-1801.42 -177.25)" style="fill:#e9eff4"/><path d="M2972.37,584.28c2.13.07,4.26.19,6.38.35l-.72-7.06-17.51-162.07,13.81-30.13,22.21,26.24,9.06,79.78,9.42,80.93,1.94,15.86c1.76,0,3.52,0,5.28,0L3020.85,574l-8.58-82.09-8.82-82.16a3.54,3.54,0,0,0-.81-1.89l-26.46-31.51a3.7,3.7,0,0,0-1.27-1,3.62,3.62,0,0,0-4.79,1.79l-16.55,36.23a3.62,3.62,0,0,0-.3,1.89l18.39,163Z" transform="translate(-1801.42 -177.25)" style="fill:#c8d7e2"/><path d="M2998.32,411.42a.69.69,0,0,0-.92-.31,37.82,37.82,0,0,0-8.18,5.65c-2.31-1.84-4.63-3.65-7-5.37a3.68,3.68,0,0,0-4.85.54c-2.48,2.76-4.95,5.53-7.24,8.45l-9.5-4.92a1.29,1.29,0,0,0-1.48,2.09l10,9.49a2.72,2.72,0,0,0,3.68,0l.56-.5c2.56-2.32,4.92-4.82,7.24-7.36,2.26,1.51,4.55,3,6.86,4.4l.37.23a3,3,0,0,0,3.88-.7,42.13,42.13,0,0,0,6.59-11.17A.69.69,0,0,0,2998.32,411.42Z" transform="translate(-1801.42 -177.25)" style="fill:#c8d7e2"/><path d="M2964.89,396.56s11.24,1.87,19.91-4l-11.72-13.9Z" transform="translate(-1801.42 -177.25)" style="fill:#c8d7e2"/><path d="M2981.43,637.23" transform="translate(-1801.42 -177.25)" style="fill:none"/><path d="M3045.7,571.1l.17,14.91,5.85-.07.17-14.85.3-67.56.15-33.65a17.15,17.15,0,0,1,5.9-12.26,17.73,17.73,0,0,1,13.29-4.19,17.34,17.34,0,0,1,17.14,18.35l.11,33.78.23,67.56.14,12,6.15-.12.14-11.87.23-67.56.11-33.78a24.79,24.79,0,0,0-6.56-17.91,24,24,0,0,0-17.7-7.68,27.78,27.78,0,0,0-9.44,1.19,24.29,24.29,0,0,0-16.76,22.25l.07,33.91Z" transform="translate(-1801.42 -177.25)" style="fill:#c8d7e2"/><path d="M3061.78,433.73" transform="translate(-1801.42 -177.25)" style="fill:none"/><path d="M3092.51,412.2c-1.42-17.15-9.5-33.11-20.83-45.5l-.07-.08a3.51,3.51,0,0,0-1.13-.82,3.54,3.54,0,0,0-4.69,1.76c-4.93,10.84-10.45,21.65-14.16,33.37-1.78,5.86-3.39,11.93-3.4,18.31-.19,6.24,1.58,13.24,6.45,17.56a.95.95,0,0,0,1.4-1.27c-3.39-4.67-3.94-10.43-3.24-16a75.58,75.58,0,0,1,4.52-16.62l0-.06a44.46,44.46,0,0,1,5.56,1.79c2.34.88,4.32,2.51,7.39,4.22a17.7,17.7,0,0,0,10.48,1.91,15.39,15.39,0,0,0,4.8-1.28c.17,1.09.32,2.18.43,3.27.71,7.56.23,15.46-3.11,22.13a18.53,18.53,0,0,1-17.81,11.28.64.64,0,0,0-.18,1.27,18.89,18.89,0,0,0,12.73-1.12,23.87,23.87,0,0,0,9.69-9C3091.82,429.67,3093.16,420.71,3092.51,412.2Zm-11.88-7.87a17.42,17.42,0,0,1-7-1.94c-2.28-1.09-5.33-3-8.86-3.76a16.5,16.5,0,0,0-5.59-.23c3.17-7.65,6.85-15.17,10.61-22.75a85.86,85.86,0,0,1,9.71,15.06,67.36,67.36,0,0,1,5.15,13.91C3083.22,404.51,3081.89,404.46,3080.63,404.33Z" transform="translate(-1801.42 -177.25)" style="fill:#c8d7e2"/><path d="M3157,586.4q-3.73,85.86-9.05,171.62l-2.58,42.88-1.43,21.52a40.65,40.65,0,0,1-8.58,21.4c-9.55,12.35-25.87,18.39-40.65,17.53l-43,.09-43,.09c-14.71.93-31.36-4.77-41-17.25a40.43,40.43,0,0,1-8.84-21.46c-.54-7.58-.6-14.43-.92-21.68l-1.57-42.93-6-171.74a2.76,2.76,0,0,1,2.63-2.88h.14l81.91.54c27.3.09,54.61.62,81.91,1a1.28,1.28,0,0,1,0,2.56c-27.3.33-54.61.86-81.91,1l-81.91.54,2.77-2.88,7.29,171.69,1.75,42.93c.34,7.05.48,14.54,1,21.23a33.24,33.24,0,0,0,7.37,17.65,38.89,38.89,0,0,0,15.67,11.48c6.2,2.62,12.51,3.24,19.68,3.13l43,.09,43,.09c13.74.8,27.13-4.41,35.46-14.84a34,34,0,0,0,7.27-17.89l1.51-21.34,3.1-42.85q6.17-85.7,13.68-171.31a.64.64,0,0,1,1.28.08Z" transform="translate(-1801.42 -177.25)" style="fill:#c8d7e2"/><path d="M2993.07,631.68a222.09,222.09,0,0,1,4.65,29.77c1,10,1.83,19.93,2.46,29.92,1,20,2.59,39.94,1.8,60.06a1.29,1.29,0,0,1-2.56.18c-3.55-19.82-4.71-39.8-6.47-59.74-.75-10-1.25-20-1.67-30a221.84,221.84,0,0,1,.51-30.13.65.65,0,0,1,1.28-.09Z" transform="translate(-1801.42 -177.25)" style="fill:#c8d7e2"/><path d="M3114.29,561.88" transform="translate(-1801.42 -177.25)" style="fill:#fff"/></svg>