<svg id="plugins-small" xmlns="http://www.w3.org/2000/svg" viewBox="0 0 1405.45 1403.69"><title>plugins-small</title><path d="M2136.36,1955.77a129.2,129.2,0,0,1,14.49-8.08A129.2,129.2,0,0,0,2136.36,1955.77Z" transform="translate(-1844.4 -1143.31)" style="fill:none"/><path d="M2180.66,1937.22q3.93-1,8.09-1.78Q2184.59,1936.26,2180.66,1937.22Z" transform="translate(-1844.4 -1143.31)" style="fill:none"/><path d="M2008.17,2090.26q2.9-1.63,5.7-3.32Q2011.06,2088.64,2008.17,2090.26Z" transform="translate(-1844.4 -1143.31)" style="fill:none"/><path d="M2127.81,1961.82q2.54-2,5.26-3.86Q2130.35,1959.85,2127.81,1961.82Z" transform="translate(-1844.4 -1143.31)" style="fill:none"/><path d="M2164.92,1941.88l2-.69Z" transform="translate(-1844.4 -1143.31)" style="fill:none"/><path d="M2063.18,2045.64q3.13-3.55,6-7.1Q2066.32,2042.09,2063.18,2045.64Z" transform="translate(-1844.4 -1143.31)" style="fill:none"/><path d="M2069.18,2038.54q2.86-3.54,5.45-7.05Q2072,2035,2069.18,2038.54Z" transform="translate(-1844.4 -1143.31)" style="fill:none"/><path d="M2118.21,1970.06q2.45-2.33,5.09-4.58Q2120.65,1967.73,2118.21,1970.06Z" transform="translate(-1844.4 -1143.31)" style="fill:none"/><path d="M2123.71,1965.13q1.67-1.41,3.41-2.78Q2125.38,1963.72,2123.71,1965.13Z" transform="translate(-1844.4 -1143.31)" style="fill:none"/><path d="M2022,2081.79q3.19-2.14,6.26-4.36Q2025.16,2079.65,2022,2081.79Z" transform="translate(-1844.4 -1143.31)" style="fill:none"/><path d="M1926.44,2122.1q6.75-3.38,14.38-6.32Q1933.18,2118.71,1926.44,2122.1Z" transform="translate(-1844.4 -1143.31)" style="fill:none"/><path d="M1919.91,2125.57q3.16-1.79,6.53-3.48Q1923.07,2123.78,1919.91,2125.57Z" transform="translate(-1844.4 -1143.31)" style="fill:none"/><path d="M2118.21,1970.06a145.08,145.08,0,0,0-21.12,25.63A145.08,145.08,0,0,1,2118.21,1970.06Z" transform="translate(-1844.4 -1143.31)" style="fill:none"/><path d="M2095.95,1997.44c-3,4.66-5.7,9.29-8.21,13.81a187.1,187.1,0,0,1-13.1,20.25,187.1,187.1,0,0,0,13.1-20.25C2090.25,2006.73,2093,2002.09,2095.95,1997.44Z" transform="translate(-1844.4 -1143.31)" style="fill:none"/><path d="M1947.66,2113.31l2.34-.78Z" transform="translate(-1844.4 -1143.31)" style="fill:none"/><path d="M2041.94,2066.61q3.95-3.39,7.63-6.87Q2045.88,2063.21,2041.94,2066.61Z" transform="translate(-1844.4 -1143.31)" style="fill:none"/><path d="M2063.18,2045.64c-4.18,4.74-8.72,9.46-13.62,14.1C2054.46,2055.1,2059,2050.38,2063.18,2045.64Z" transform="translate(-1844.4 -1143.31)" style="fill:none"/><path d="M2238.61,2202l-3.19-270.69a242.29,242.29,0,0,0-46.68,4.18q-4.16.82-8.09,1.78-7.22,1.76-13.72,4l-2,.69a142.8,142.8,0,0,0-14.07,5.81,129.2,129.2,0,0,0-14.49,8.08q-1.68,1.08-3.29,2.2-2.72,1.89-5.26,3.86l-.68.53q-1.75,1.37-3.41,2.78l-.42.36q-2.64,2.25-5.09,4.58a145.08,145.08,0,0,0-21.12,25.63l-1.14,1.75c-3,4.66-5.7,9.29-8.21,13.81a187.1,187.1,0,0,1-13.1,20.25q-2.59,3.5-5.45,7.05t-6,7.1c-4.18,4.74-8.72,9.46-13.62,14.1q-3.68,3.48-7.63,6.87-6.48,5.57-13.71,10.81-3.06,2.22-6.26,4.36-3.95,2.65-8.1,5.16-2.8,1.7-5.7,3.32a197.74,197.74,0,0,1-46.81,18.94c-3.93,1-7.71,2.15-11.35,3.33l-2.34.78c-2.33.79-4.62,1.61-6.84,2.46q-7.63,2.94-14.38,6.32-3.37,1.69-6.53,3.48-1.58.89-3.11,1.81a128.63,128.63,0,0,0-11.4,7.68h0a698.86,698.86,0,0,0,34.89,66.89h298.32Z" transform="translate(-1844.4 -1143.31)" style="fill:#c879cc"/><path d="M2546.19,1143.31c-216.85,0-410.71,97.91-539.79,251.74h334.78v312.86h-485.1a700.21,700.21,0,0,0-11.68,88.7h496.78v502.51H2009.75C2138.82,2450.71,2331.18,2547,2546.19,2547c388.62,0,703.66-314.22,703.66-701.84S2934.81,1143.31,2546.19,1143.31ZM2986.3,2297.12H2483.8V1393.2H2986.3Z" transform="translate(-1844.4 -1143.31)" style="fill:#f6e1f9"/><path d="M1940.82,2115.77c2.22-.85,4.5-1.67,6.84-2.46C1945.32,2114.1,1943,2114.92,1940.82,2115.77Z" transform="translate(-1844.4 -1143.31)" style="fill:#fff"/><path d="M2013.87,2086.94q4.15-2.51,8.1-5.16Q2018,2084.43,2013.87,2086.94Z" transform="translate(-1844.4 -1143.31)" style="fill:#fff"/><path d="M2028.22,2077.43q7.22-5.23,13.71-10.81Q2035.45,2072.18,2028.22,2077.43Z" transform="translate(-1844.4 -1143.31)" style="fill:#fff"/><path d="M2150.85,1947.68a142.8,142.8,0,0,1,14.07-5.81A142.83,142.83,0,0,0,2150.85,1947.68Z" transform="translate(-1844.4 -1143.31)" style="fill:#fff"/><path d="M2123.29,1965.48l.42-.36Z" transform="translate(-1844.4 -1143.31)" style="fill:#fff"/><path d="M2235.43,1931.27a242.29,242.29,0,0,0-46.68,4.18,242.29,242.29,0,0,1,46.68-4.18l3.19,270.69h0Z" transform="translate(-1844.4 -1143.31)" style="fill:#fff"/><path d="M2008.17,2090.26a197.74,197.74,0,0,1-46.81,18.94c-3.93,1-7.71,2.15-11.35,3.33,3.65-1.19,7.42-2.3,11.35-3.33A197.74,197.74,0,0,0,2008.17,2090.26Z" transform="translate(-1844.4 -1143.31)" style="fill:#fff"/><path d="M1916.8,2127.38a128.63,128.63,0,0,0-11.4,7.68h0A128.63,128.63,0,0,1,1916.8,2127.38Z" transform="translate(-1844.4 -1143.31)" style="fill:#fff"/><path d="M2166.94,1941.18q6.51-2.19,13.72-4Q2173.44,1939,2166.94,1941.18Z" transform="translate(-1844.4 -1143.31)" style="fill:#fff"/><path d="M2127.13,1962.35l.68-.53Z" transform="translate(-1844.4 -1143.31)" style="fill:#fff"/><path d="M2133.07,1958q1.61-1.12,3.29-2.2Q2134.68,1956.85,2133.07,1958Z" transform="translate(-1844.4 -1143.31)" style="fill:#fff"/><path d="M2341.18,1395.06H2006.4a698.31,698.31,0,0,0-150.32,312.86h485.1Z" transform="translate(-1844.4 -1143.31)" style="fill:#c879cc"/><rect x="2691.26" y="1677.81" width="78.62" height="172.36" transform="translate(-2338.4 1032.8) rotate(-40.15)" style="fill:#d9a2dc"/><rect x="2815.8" y="1572.77" width="78.62" height="172.36" transform="translate(-2241.32 1088.35) rotate(-40.15)" style="fill:#d9a2dc"/><path d="M3199,2233.52c-8.61-50-31.08-96.38-61.35-135.46a370.81,370.81,0,0,0-50.71-53.62l-1-.89c50.71-50.4,103.31-146.87-7.55-288.78l-72.14-89.82-157,129-153.64,133,76.37,86.25c121.08,133.08,225,97.67,283.22,56.24q2.64,2.48,5.28,4.92a330.42,330.42,0,0,1,44.75,48.47c26.36,34.91,45.08,75.36,51.81,117.59,6.94,42.11,1.05,85.73-17.75,123-19,37.25-50.92,67.14-89.2,85.61-18.94,9.33-40,15.82-61.19,20.67a265.37,265.37,0,0,1-64.18,6.85c-21.67-.34-43.66-3.25-67-6.27s-48.4-5.86-74.05-3.54c-52.08,4-98.26,31.1-129.33,67.66l5.48,7.69c44.39-17.18,84.53-35,126.51-36.81,41.69-2.62,86.82,13.63,137.4,14.63a309.56,309.56,0,0,0,74.8-6.82,316.09,316.09,0,0,0,71-24.45c45.65-22.19,85.36-59.34,108.56-105.62C3201,2336.82,3207.88,2283.35,3199,2233.52Z" transform="translate(-1844.4 -1143.31)" style="fill:#c879cc"/><path d="M2653.93,1948.21c23.23-39.59,57.13-66.52,89.33-95.48s65-57.14,97.84-85.39c33.37-27.56,66.62-55.27,100.66-82s66.22-55.75,109.17-71.95l6.09,7.22c-23.21,39.61-57.14,66.52-89.33,95.48s-65,57.14-97.84,85.39c-33.37,27.56-66.63,55.26-100.66,82S2703,1939.22,2660,1955.43Z" transform="translate(-1844.4 -1143.31)" style="fill:#204A69"/></svg>