<svg id="plugins-full" xmlns="http://www.w3.org/2000/svg" viewBox="0 0 1598.23 1228"><title>plugins-big</title><rect x="72.22" y="225.94" width="1404.08" height="972.65" style="fill:#fff"/><path d="M3219.09,1323.1a95.13,95.13,0,0,0-14.91-28.78c-13.08-17.25-32.23-30.07-53.5-34.78-10.48-2.55-22-2.62-31.12-2.52H1905.74c-9.08-.1-20.64,0-31.12,2.52-21.28,4.71-40.42,17.52-53.5,34.78a95.06,95.06,0,0,0-14.91,28.78c-3.27,10.2-4.28,21.8-4.21,31.67v173.4c.3,308.27-.67,616.54.67,924.81v.06a9.9,9.9,0,0,0,9.93,9.86l900-2.86a7.06,7.06,0,0,0,0-14.12l-890-2.83c1.27-305,.34-609.95.63-914.92v-45.23h1379v959.46c-60.08,0-120.16,1-180.24,1.59l-95.41,2.12-95.42,3.35a3.53,3.53,0,0,0,0,7.06l95.42,3.35,95.41,2.12c63.61.58,127.22,1.71,190.83,1.6a10.59,10.59,0,0,0,10.59-10.59V1354.77C3223.38,1344.9,3222.36,1333.3,3219.09,1323.1Z" transform="translate(-1739.77 -1257)" style="fill:#bbcdda"/><path d="M3282.29,1486.47c-128.28,11.41-256.55,10.58-384.83,11.25l-384.82,1.9-384.82-1.9c-128.28-.67-256.55.18-384.83-11.25a3.54,3.54,0,0,1,0-7.06c128.27-11.43,256.55-10.57,384.83-11.25l384.82-1.9,384.82,1.9c128.27.67,256.55-.16,384.83,11.25a3.54,3.54,0,0,1,0,7.06Z" transform="translate(-1739.77 -1257)" style="fill:#658eab"/><path d="M2571.34,1852.73H1987.4V1629.48a10.67,10.67,0,0,1,10.67-10.67h573.27Z" transform="translate(-1739.77 -1257)" style="fill:#d9a2dc"/><path d="M1987.4,1918.94v375.72h583.94V1918.94Zm219.09,286.67c0-27.38,20.25-56.57,69.1-69.35s80.32-47.73,94.5-73.24c15-27,39.29-59.8,110.42-59.8l2.38,202.39Z" transform="translate(-1739.77 -1257)" style="fill:#f3f6f8"/><path d="M2370.08,2063c-14.17,25.51-45.65,60.46-94.5,73.24s-69.1,42-69.1,69.35h276.41l-2.38-202.39C2409.38,2003.22,2385.09,2036,2370.08,2063Z" transform="translate(-1739.77 -1257)" style="fill:#c879cc"/><rect x="921.84" y="361.8" width="375.72" height="675.85" style="fill:#f3f6f8"/><rect x="2999.62" y="1964" width="58.78" height="128.87" transform="translate(-2333.95 1173.84) rotate(-40.15)" style="fill:#d9a2dc"/><rect x="3092.74" y="1885.46" width="58.78" height="128.87" transform="translate(-2261.37 1215.37) rotate(-40.15)" style="fill:#d9a2dc"/><path d="M3284.26,2247c40-34.19,95.36-109.56,4.78-225.51l-53.94-67.16-117.41,96.45-114.87,99.47,57.1,64.49c82.89,91.1,155,76.6,200,49.72.64,1,1.28,2,1.91,3,16,27.32,26.26,58.26,26.22,88.33.13,30.12-12.53,57.89-36.25,75.09-23,17.55-53.89,22.85-85.84,21.32s-65-7.73-98.44-13.66-67.58-12.31-102.81-12.87c-34.92-.49-71.77,5.56-102,24l2.61,6.56c33.13-6.67,65.39-6.93,98-3.9,32.58,2.83,65.33,8.93,98.45,15.91,33.17,6.69,66.82,14.48,102.64,16.35,17.86.9,36.36.31,54.9-3.69s37-11.57,52.49-23.51a120.9,120.9,0,0,0,36.7-45.27c8.32-17.87,11.87-37.41,11.77-56.31-.27-38.08-14-73.31-32.64-103.92Z" transform="translate(-1739.77 -1257)" style="fill:#c879cc"/><path d="M2971.71,2166.17c17.37-29.6,42.72-49.74,66.79-71.39s48.63-42.72,73.15-63.85c25-20.61,49.81-41.32,75.26-61.34s49.51-41.68,81.62-53.79l4.55,5.4c-17.35,29.61-42.72,49.73-66.79,71.39s-48.63,42.72-73.15,63.84c-25,20.61-49.81,41.32-75.26,61.34s-49.52,41.67-81.62,53.8Z" transform="translate(-1739.77 -1257)" style="fill:#004f84"/></svg>