<?xml version="1.0" encoding="utf-8"?>
<!-- Generator: Adobe Illustrator 22.1.0, SVG Export Plug-In . SVG Version: 6.00 Build 0)  -->
<svg version="1.1" id="Rebrand_cities" xmlns="http://www.w3.org/2000/svg" xmlns:xlink="http://www.w3.org/1999/xlink" x="0px"
	 y="0px" viewBox="0 0 810.4 483.9" style="enable-background:new 0 0 810.4 483.9;" xml:space="preserve">
<style type="text/css">
	.st0{fill:#0383BF;}
	.st1{fill:#FFFFFF;}
	.st2{fill:#267BA5;}
	.st3{fill:none;stroke:#88D9BC;stroke-width:0.5419;stroke-miterlimit:10;}
	.st4{fill:#07A8DC;}
	.st5{fill:#005080;}
	.st6{fill:#7ED2F1;}
	.st7{fill:none;stroke:#C7D6E1;stroke-miterlimit:10;}
	.st8{fill:#FFFFFF;stroke:#07A8DC;stroke-linecap:round;stroke-linejoin:round;stroke-miterlimit:10;}
	.st9{fill:#C6E8F4;}
	.st10{fill:none;stroke:#0383BF;stroke-width:2;stroke-miterlimit:10;}
	.st11{fill:#FFFFFF;stroke:#07A8DC;stroke-width:0.75;stroke-linecap:round;stroke-linejoin:round;stroke-miterlimit:10;}
	.st12{fill:none;stroke:#7ED2F1;stroke-width:0.75;stroke-linecap:round;stroke-linejoin:round;stroke-miterlimit:10;}
	.st13{fill:#004F82;}
	.st14{fill:#FFFFFF;stroke:#005081;stroke-width:0.75;stroke-linecap:round;stroke-linejoin:round;stroke-miterlimit:10;}
	.st15{fill:none;stroke:#005081;stroke-width:0.75;stroke-linecap:round;stroke-linejoin:round;stroke-miterlimit:10;}
	.st16{fill:#FFFFFF;stroke:#005081;stroke-linecap:round;stroke-linejoin:round;stroke-miterlimit:10;}
	.st17{fill:#4E748E;}
	.st18{fill:none;stroke:#005081;stroke-linecap:round;stroke-linejoin:round;stroke-miterlimit:10;}
	.st19{fill:none;stroke:#7ED2F1;stroke-linecap:round;stroke-linejoin:round;stroke-miterlimit:10;}
	.st20{fill:none;stroke:#FFFFFF;stroke-linecap:round;stroke-linejoin:round;stroke-miterlimit:10;}
	.st21{fill:#FFFFFF;stroke:#7ED2F1;stroke-linecap:round;stroke-linejoin:round;stroke-miterlimit:10;}
	.st22{fill:#C7D6E1;}
	.st23{fill:none;stroke:#267BA5;stroke-linecap:round;stroke-linejoin:round;stroke-miterlimit:10;}
	.st24{fill:none;stroke:#07A8DC;stroke-linecap:round;stroke-linejoin:round;stroke-miterlimit:10;}
	.st25{fill:none;stroke:#005081;stroke-width:1.1052;stroke-linecap:round;stroke-linejoin:round;stroke-miterlimit:10;}
	.st26{fill:#C7D6E1;stroke:#005081;stroke-linecap:round;stroke-linejoin:round;stroke-miterlimit:10;}
	.st27{fill:#005080;stroke:#FFFFFF;stroke-width:0.75;stroke-linecap:round;stroke-linejoin:round;stroke-miterlimit:10;}
	.st28{fill:none;stroke:#005080;stroke-linecap:round;stroke-linejoin:round;stroke-miterlimit:10;}
	.st29{fill:none;stroke:#005080;stroke-width:2;stroke-linecap:round;stroke-linejoin:round;stroke-miterlimit:10;}
	.st30{fill:none;stroke:#07A8DC;stroke-width:2;stroke-linecap:round;stroke-linejoin:round;stroke-miterlimit:10;}
	.st31{fill:none;stroke:#D51F26;stroke-width:2;stroke-miterlimit:10;}
	.st32{fill:none;stroke:#F2F5F7;stroke-width:0.5;stroke-linecap:round;stroke-linejoin:round;stroke-miterlimit:10;}
	.st33{fill:#74DCFC;}
	.st34{fill:#C8D7E2;}
	.st35{fill:#D5E5EB;}
	.st36{fill:#00A9DE;}
	.st37{fill:#004F84;}
	.st38{fill:#FFFFFF;stroke:#C8D7E2;stroke-linecap:round;stroke-linejoin:round;stroke-miterlimit:10;}
	.st39{fill:#C2F4FF;}
</style>
<g>
	<path class="st0" d="M611.4,365.8c0.3-0.3,0.6-0.2,0.9-0.2l0.9,0c0.6,0,1.2-0.1,1.8,0c0.6,0,1.2,0,1.8,0.1c0.6,0,1.2,0.1,1.8,0.5
		v0.5c-0.6,0.4-1.2,0.5-1.8,0.5c-0.6,0-1.2,0.1-1.8,0.1c-0.6,0-1.2,0-1.8,0l-0.9,0c-0.3,0-0.6,0.1-0.9-0.2V365.8z"/>
</g>
<g>
	<path class="st1" d="M626.3,431.9c-0.3-3.7-0.6-7.5-0.8-11.2c-0.1-1.9-0.3-3.7-0.3-5.6c0-1.9,0-3.8,0.2-5.6l0.1,0
		c0.4,1.9,0.5,3.7,0.7,5.6c0.1,1.9,0.1,3.8,0.2,5.6C626.3,424.4,626.4,428.1,626.3,431.9L626.3,431.9z"/>
</g>
<g>
	<path class="st1" d="M632.5,415.4c0,2.6-0.1,5.3-0.2,7.9c0,1.3,0,2.6-0.2,3.9c-0.2,1.3-0.3,2.6-0.7,3.9l-0.1,0
		c-0.2-1.3-0.2-2.6-0.2-4c0-1.3,0.2-2.6,0.3-3.9C631.8,420.6,632.1,418,632.5,415.4L632.5,415.4z"/>
</g>
<g>
	<path class="st1" d="M635.2,402.6c0.7,4.8,1.4,9.7,2.1,14.5c0.3,2.4,0.7,4.8,1,7.3c0.2,2.4,0.4,4.9,0.4,7.3l-0.1,0
		c-0.6-2.4-0.9-4.8-1.3-7.2c-0.4-2.4-0.5-4.9-0.8-7.3C635.9,412.4,635.5,407.5,635.2,402.6L635.2,402.6z"/>
</g>
<g>
	<path class="st1" d="M643.4,431.4c0-2.7,0.1-5.4,0.1-8c0-1.3,0-2.7,0.1-4c0.1-1.3,0.3-2.7,0.7-4l0.1,0c0.2,1.4,0.2,2.7,0.2,4
		c0,1.3-0.2,2.7-0.3,4C644.1,426,643.8,428.7,643.4,431.4L643.4,431.4z"/>
</g>
<path class="st1" d="M618.9,365.7c-3.5,7.3-5,11.1-1.5,12.4c3.5,1.2,11.9-8.3,11.9-8.3s2.3,0,2.9-2.7c0.6-2.7,3-0.8,3-0.8"/>
<g>
	<path class="st1" d="M170.5,90.3c-0.5-0.2-44.1,0-44.1,0s-2.8-9.2,4.6-11.1c2.2-0.6,3.5-0.4,4.2-0.1c0.3,0.1,0.6,0,0.6-0.3
		c0.2-1.8,1.2-6.9,7.9-6.9c7.4,0,10.6,6.9,10.6,6.9s1.6-2.4,4.6-2.6c8.6-0.7,10.7,8.8,10.7,8.8"/>
	<path class="st2" d="M170.3,90.7l-10.9,0.2c-3.7,0.1-7.3,0.1-11,0.2l-22,0.2l0,0c-0.4,0-0.8-0.3-0.9-0.6c-0.5-1.9-0.7-3.8-0.5-5.8
		c0.2-2,1.2-4,3-5.3c0.9-0.6,1.8-1,2.8-1.3c0.9-0.2,1.9-0.4,3-0.4c0.5,0,1.1,0.1,1.6,0.3l0.1,0c0,0-0.1,0-0.1,0c-0.1,0-0.1,0-0.2,0
		c-0.1,0-0.3,0.1-0.4,0.3c-0.1,0.1-0.1,0.2-0.1,0.3l0-0.2l0.1-0.4c0.2-1,0.5-2,0.9-2.9c0.5-0.9,1.1-1.7,1.9-2.4
		c0.8-0.7,1.8-1.1,2.7-1.4c1.9-0.5,3.9-0.5,5.8-0.1c1.9,0.4,3.7,1.4,5.1,2.7c0.7,0.6,1.4,1.3,2,2.1c0.6,0.7,1.2,1.5,1.7,2.4
		l-1.5-0.1c0.6-0.9,1.3-1.4,2.2-1.9c0.8-0.5,1.8-0.8,2.8-0.9c1.9-0.2,3.7,0.1,5.4,1c1.7,0.8,3,2.2,3.9,3.7c1,1.5,1.6,3.2,2,4.9
		c0,0.1-0.1,0.3-0.2,0.3c-0.1,0-0.3,0-0.3-0.2l0,0c-0.5-1.6-1.3-3.1-2.3-4.5c-1-1.3-2.3-2.4-3.7-3.1c-1.5-0.6-3.1-0.8-4.7-0.6
		c-1.5,0.2-2.8,1.2-3.7,2.3l0,0c-0.3,0.4-0.8,0.5-1.2,0.2c-0.1-0.1-0.2-0.2-0.3-0.3c-1.4-3-4.3-5.6-7.6-6.2c-1.6-0.3-3.4-0.3-5,0.2
		c-1.6,0.5-2.8,1.5-3.5,3c-0.4,0.7-0.6,1.5-0.7,2.3l0,0.3l0,0.2c0,0.2-0.1,0.4-0.2,0.6c-0.2,0.3-0.6,0.5-0.9,0.6c-0.2,0-0.4,0-0.5,0
		c-0.1,0-0.2,0-0.3-0.1l-0.1,0c-0.3-0.1-0.6-0.2-1-0.2c-0.8,0-1.6,0.1-2.4,0.3c-0.8,0.2-1.5,0.5-2.2,0.9c-1.3,0.9-2,2.3-2.3,4
		c-0.2,1.6-0.1,3.4,0.3,5l-0.9-0.6l22.1,0c3.7,0,7.4,0.1,11,0.1l5.5,0.1l2.8,0.1l1.4,0.1l0.7,0l0.4,0l0.2,0c0.1,0,0.2,0,0.3,0
		c0.2,0,0.3,0.2,0.3,0.4c0,0.2-0.2,0.3-0.4,0.3L170.3,90.7z"/>
</g>
<g>
	<g>
		<path class="st2" d="M96.1,380.7c-0.8-4-1.6-8-2.5-11.9c-0.4-2-0.9-3.9-1.4-5.9c-0.3-1-0.6-1.9-0.9-2.8c-0.3-0.9-0.8-1.9-1.3-2.5
			l0,0c-0.2-0.2-0.2-0.6,0-0.8c0.2-0.2,0.5-0.2,0.8,0c1.7,1.5,3.1,3.3,4.3,5.2c1.2,1.9,2.3,3.8,3.2,5.9c0.9,2,1.7,4.1,2.3,6.3
			c0.6,2.1,1,4.4,1,6.6c0,0.1-0.1,0.2-0.2,0.2c-0.1,0-0.2-0.1-0.2-0.2l0,0c-0.1-2.2-0.7-4.3-1.3-6.4c-0.7-2.1-1.5-4.1-2.4-6.1
			c-0.9-2-2-3.9-3.2-5.7c-1.2-1.8-2.5-3.5-4.1-4.9l0.8-0.8c0.8,0.9,1.2,1.9,1.6,2.9c0.4,1,0.7,2,0.9,2.9c0.5,2,1,4,1.4,6
			c0.4,2,0.7,4,1,6c0.3,2,0.5,4,0.7,6.1c0,0.1,0,0.1-0.1,0.1C96.2,380.8,96.1,380.8,96.1,380.7z"/>
	</g>
	<g>
		<path class="st2" d="M101.2,380.4c-0.1-3.2-0.2-6.4-0.5-9.6c-0.1-1.6-0.3-3.2-0.5-4.7c-0.1-0.8-0.3-1.5-0.5-2.3
			c-0.2-0.7-0.6-1.4-1-1.9l0,0c-0.2-0.2-0.2-0.6,0-0.8c0.2-0.2,0.5-0.2,0.8,0c1.4,1.2,2.6,2.7,3.6,4.2c1,1.5,1.8,3.2,2.4,4.9
			c0.6,1.7,1.1,3.5,1.4,5.3c0.3,1.8,0.4,3.6,0.1,5.4c0,0.1-0.1,0.2-0.2,0.2c-0.1,0-0.2-0.1-0.2-0.2c0.1-1.8-0.1-3.5-0.5-5.2
			c-0.4-1.7-0.9-3.4-1.5-5c-1.3-3.2-3.2-6.4-5.8-8.6l0.7-0.8c0.7,0.7,1,1.6,1.3,2.4c0.2,0.8,0.4,1.6,0.5,2.4
			c0.3,1.6,0.4,3.2,0.5,4.9c0.1,1.6,0.1,3.2,0,4.9c-0.1,1.6-0.1,3.2-0.3,4.8C101.4,380.5,101.4,380.5,101.2,380.4
			C101.3,380.5,101.2,380.5,101.2,380.4z"/>
	</g>
</g>
<g>
	<g>
		<path class="st2" d="M127.4,380.7c0.2-2.7,0.6-5.4,1.1-8.1c0.3-1.3,0.6-2.7,0.9-4c0.2-0.7,0.4-1.3,0.6-2c0.3-0.7,0.5-1.3,1.1-1.9
			l0.6,0.6c-1.1,0.9-1.9,2.1-2.7,3.3c-0.8,1.2-1.5,2.5-2.1,3.8c-0.6,1.3-1.2,2.7-1.6,4.1c-0.4,1.4-0.8,2.8-0.9,4.3
			c0,0.1-0.1,0.1-0.2,0.1c-0.1,0-0.1-0.1-0.1-0.1c0-1.5,0.2-3,0.6-4.4c0.4-1.4,0.9-2.8,1.5-4.2c0.6-1.4,1.3-2.7,2.1-3.9
			c0.8-1.3,1.7-2.5,2.9-3.5c0.2-0.2,0.4-0.1,0.6,0c0.1,0.2,0.1,0.4,0,0.6l0,0c-0.4,0.4-0.6,1-0.9,1.6c-0.2,0.6-0.4,1.3-0.6,1.9
			c-0.4,1.3-0.7,2.6-1,3.9c-0.6,2.6-1.1,5.3-1.7,8C127.5,380.8,127.5,380.8,127.4,380.7C127.4,380.8,127.4,380.8,127.4,380.7z"/>
	</g>
	<g>
		<path class="st2" d="M124,380.6c-0.3-2.2-0.3-4.3-0.2-6.5c0.1-1.1,0.1-2.2,0.3-3.3c0.1-0.5,0.2-1.1,0.4-1.6
			c0.2-0.5,0.4-1.1,0.8-1.6l0.6,0.6c-1.8,1.5-3,3.6-3.9,5.7c-0.4,1.1-0.8,2.2-1,3.4c-0.2,1.2-0.4,2.3-0.3,3.5c0,0.1-0.1,0.2-0.1,0.2
			c-0.1,0-0.1-0.1-0.2-0.1c-0.4-2.4,0.1-4.9,1-7.2c0.4-1.1,1-2.2,1.6-3.3c0.7-1,1.4-2,2.4-2.8c0.2-0.1,0.4-0.1,0.6,0.1
			c0.1,0.2,0.1,0.4,0,0.5l0,0c-0.6,0.6-0.8,1.7-1,2.8c-0.2,1-0.3,2.1-0.4,3.2c-0.2,2.1-0.2,4.3-0.4,6.4
			C124.1,380.6,124.1,380.6,124,380.6C124,380.6,124,380.6,124,380.6z"/>
	</g>
</g>
<g>
	<g>
		<path class="st2" d="M716.5,381.7c-0.8-4-1.6-8-2.5-11.9c-0.4-2-0.9-3.9-1.4-5.9c-0.3-1-0.6-1.9-0.9-2.8c-0.3-0.9-0.8-1.9-1.3-2.5
			l0,0c-0.2-0.2-0.2-0.6,0-0.8c0.2-0.2,0.5-0.2,0.8,0c1.7,1.5,3.1,3.3,4.3,5.2c1.2,1.9,2.3,3.8,3.2,5.9c0.9,2,1.7,4.1,2.3,6.3
			c0.6,2.1,1,4.4,1,6.6c0,0.1-0.1,0.2-0.2,0.2c-0.1,0-0.2-0.1-0.2-0.2l0,0c-0.1-2.2-0.7-4.3-1.3-6.4c-0.7-2.1-1.5-4.1-2.4-6.1
			c-0.9-2-2-3.9-3.2-5.7c-1.2-1.8-2.5-3.5-4.1-4.9l0.8-0.8c0.8,0.9,1.2,1.9,1.6,2.9c0.4,1,0.7,2,0.9,2.9c0.5,2,1,4,1.4,6
			c0.4,2,0.7,4,1,6c0.3,2,0.5,4,0.7,6.1c0,0.1,0,0.1-0.1,0.1C716.5,381.8,716.5,381.8,716.5,381.7z"/>
	</g>
	<g>
		<path class="st2" d="M721.5,381.4c-0.1-3.2-0.2-6.4-0.5-9.6c-0.1-1.6-0.3-3.2-0.5-4.7c-0.1-0.8-0.3-1.5-0.5-2.3
			c-0.2-0.7-0.6-1.4-1-1.9l0,0c-0.2-0.2-0.2-0.6,0-0.8c0.2-0.2,0.5-0.2,0.8,0c1.4,1.2,2.6,2.7,3.6,4.2c1,1.5,1.8,3.2,2.4,4.9
			c0.6,1.7,1.1,3.5,1.4,5.3c0.3,1.8,0.4,3.6,0.1,5.4c0,0.1-0.1,0.2-0.2,0.2c-0.1,0-0.2-0.1-0.2-0.2c0.1-1.8-0.1-3.5-0.5-5.2
			c-0.4-1.7-0.9-3.4-1.5-5c-1.3-3.2-3.2-6.4-5.8-8.6l0.7-0.8c0.7,0.7,1,1.6,1.3,2.4c0.2,0.8,0.4,1.6,0.5,2.4
			c0.3,1.6,0.4,3.2,0.5,4.9c0.1,1.6,0.1,3.2,0,4.9c-0.1,1.6-0.1,3.2-0.3,4.8C721.7,381.5,721.7,381.5,721.5,381.4
			C721.6,381.5,721.5,381.5,721.5,381.4z"/>
	</g>
</g>
<circle class="st1" cx="324.6" cy="392.4" r="2"/>
<g>
	<g>
		<path class="st3" d="M329.2,297.4"/>
	</g>
</g>
<g>
	<g>
		<line class="st1" x1="396.6" y1="206.3" x2="396.6" y2="185.7"/>
		<path class="st2" d="M395.9,206.3c-0.5-0.9-0.3-1.7-0.4-2.6l0-2.6c0-1.7-0.1-3.4-0.1-5.2c0-1.7,0-3.4,0.1-5.2
			c0-1.7,0.1-3.4,0.7-5.2c0.1-0.2,0.3-0.3,0.4-0.2c0.1,0,0.2,0.1,0.2,0.2c0.6,1.7,0.7,3.4,0.7,5.2c0.1,1.7,0.1,3.4,0.1,5.2
			c0,1.7,0,3.4-0.1,5.2l0,2.6c-0.1,0.9,0.1,1.7-0.4,2.6c-0.2,0.4-0.7,0.5-1,0.3C396.1,206.5,396,206.4,395.9,206.3z"/>
	</g>
</g>
<g>
	<path class="st2" d="M204.7,287.4c1.4-0.3,2.8-0.3,4.2-0.3c1.4,0,2.8,0.1,4.2,0.3c0.1,0,0.2,0.1,0.1,0.2c0,0.1-0.1,0.1-0.1,0.1
		c-1.4,0.2-2.8,0.3-4.2,0.3c-1.4,0-2.8,0-4.2-0.3c-0.1,0-0.1-0.1-0.1-0.2C204.6,287.4,204.7,287.4,204.7,287.4z"/>
</g>
<g>
	<path class="st2" d="M567.9,170c1.4-0.3,2.8-0.3,4.2-0.3c1.4,0,2.8,0.1,4.2,0.3c0.1,0,0.2,0.1,0.1,0.2c0,0.1-0.1,0.1-0.1,0.1
		c-1.4,0.2-2.8,0.3-4.2,0.3c-1.4,0-2.8,0-4.2-0.3c-0.1,0-0.1-0.1-0.1-0.2C567.8,170,567.9,170,567.9,170z"/>
</g>
<g>
	<path class="st2" d="M368.5,277.8c1.4-0.3,2.8-0.3,4.2-0.3c1.4,0,2.8,0.1,4.2,0.3c0.1,0,0.2,0.1,0.1,0.2c0,0.1-0.1,0.1-0.1,0.1
		c-1.4,0.2-2.8,0.3-4.2,0.3c-1.4,0-2.8,0-4.2-0.3c-0.1,0-0.1-0.1-0.1-0.2C368.4,277.8,368.4,277.8,368.5,277.8z"/>
</g>
<g>
	<path class="st2" d="M408.2,309.6c1.4-0.3,2.8-0.3,4.2-0.3c1.4,0,2.8,0.1,4.2,0.3c0.1,0,0.2,0.1,0.1,0.2c0,0.1-0.1,0.1-0.1,0.1
		c-1.4,0.2-2.8,0.3-4.2,0.3c-1.4,0-2.8,0-4.2-0.3c-0.1,0-0.1-0.1-0.1-0.2C408.1,309.7,408.1,309.6,408.2,309.6z"/>
</g>
<g>
	<path class="st2" d="M308.5,291.6c1.4-0.3,2.8-0.3,4.2-0.3c1.4,0,2.8,0.1,4.2,0.3c0.1,0,0.2,0.1,0.1,0.2c0,0.1-0.1,0.1-0.1,0.1
		c-1.4,0.2-2.8,0.3-4.2,0.3c-1.4,0-2.8,0-4.2-0.3c-0.1,0-0.1-0.1-0.1-0.2C308.4,291.7,308.5,291.6,308.5,291.6z"/>
</g>
<g>
	<path class="st2" d="M132.8,241.3c1.4-0.3,2.8-0.3,4.2-0.3c1.4,0,2.8,0.1,4.2,0.3c0.1,0,0.2,0.1,0.1,0.2c0,0.1-0.1,0.1-0.1,0.1
		c-1.4,0.2-2.8,0.3-4.2,0.3c-1.4,0-2.8,0-4.2-0.3c-0.1,0-0.1-0.1-0.1-0.2C132.6,241.4,132.7,241.3,132.8,241.3z"/>
</g>
<g>
	<path class="st2" d="M154.9,309.6c1.4-0.3,2.8-0.3,4.2-0.3c1.4,0,2.8,0.1,4.2,0.3c0.1,0,0.2,0.1,0.1,0.2c0,0.1-0.1,0.1-0.1,0.1
		c-1.4,0.2-2.8,0.3-4.2,0.3c-1.4,0-2.8,0-4.2-0.3c-0.1,0-0.1-0.1-0.1-0.2C154.8,309.7,154.8,309.6,154.9,309.6z"/>
</g>
<g>
	<path class="st2" d="M680.1,252.7c1.4-0.3,2.8-0.3,4.2-0.3c1.4,0,2.8,0.1,4.2,0.3c0.1,0,0.2,0.1,0.1,0.2c0,0.1-0.1,0.1-0.1,0.1
		c-1.4,0.2-2.8,0.3-4.2,0.3c-1.4,0-2.8,0-4.2-0.3c-0.1,0-0.1-0.1-0.1-0.2C680,252.7,680,252.7,680.1,252.7z"/>
</g>
<g>
	<path class="st2" d="M698.5,319.1c-0.1-15.1-0.2-30.3-0.2-45.4l-0.1-45.4l0.9,0.9l-48.8,0.1l1-1v68.3c0,0.6-0.4,1-1,1h-12.4
		c-0.6,0-1-0.4-1-1v-19.4l1,1h-7.5c-0.6,0-1-0.4-1-1V129.6l1,1l-12-0.2c-0.5,0-1-0.5-1-1v-17.3l1,1h-31.9l1-1l-0.1,18.6
		c0,0.5-0.4,1-1,1l-25.6,0.2l1-1v27.7l-1-1h8c0.6,0,1,0.4,1,1v107c0,0.5-0.4,1-0.9,1l-8.9,0.8c-0.6,0-1-0.4-1.1-0.9l0-0.1v-61.3
		l0.3,0.7l-17-19.2c0,0-0.1-0.1-0.1-0.1l-9-14.4l1.7,0l-8.5,14.2c0,0.1-0.1,0.1-0.1,0.2L508,205.8l0.3-0.7v10.1c0,0.6-0.4,1-1,1H496
		l1-1v40.3c0,0.6-0.4,1-1,1h-21.3l1-1v15.3c0,0.6-0.4,1-1,1h-7.1c-0.6,0-1-0.4-1-1v-15.3l1,1h-39l1-1V289h-2v-0.1l1,1h-29.9
		c-0.6,0-1-0.4-1-1v-87.7l1.7,0.7l-42.7,38.1l0.3-0.7v72.7c0,0.6-0.4,1-1,1h-37.6c-0.6,0-1-0.4-1-1v-57.2l1,1h-40.8l1-1v45.9
		c0,0.6-0.4,1-1,1c-0.3,0-0.6-0.1-0.8-0.4l-52.5-61.5l0.7,0.3l-33.4,0l0.9-0.9l-0.1,36.9c0,0.5-0.4,0.9-0.9,0.9h0l-20.7,0
		c-0.5,0-0.8-0.4-0.8-0.8l0.1-59.7l0.8,0.8l-37.6-0.1l0.7-0.7l-0.2,102c0,0.3-0.2,0.5-0.5,0.5h0l-39-0.1c-0.2,0-0.3-0.2-0.3-0.3
		c0-0.2,0.1-0.3,0.3-0.3l39-0.1l-0.5,0.5l-0.2-102c0-0.4,0.3-0.7,0.7-0.7h0l37.6-0.1c0.4,0,0.8,0.3,0.8,0.8l0.1,59.7l-0.8-0.8
		l20.7,0l-0.9,0.9l-0.1-36.9c0-0.5,0.4-0.9,0.9-0.9l0,0l33.4,0c0.3,0,0.6,0.1,0.7,0.3l52.5,61.5l-1.8,0.6v-45.9c0-0.6,0.4-1,1-1
		h40.8c0.6,0,1,0.4,1,1v57.2l-1-1h37.6l-1,1v-72.7c0-0.3,0.1-0.6,0.3-0.7l42.7-38.1c0.4-0.4,1-0.3,1.4,0.1c0.2,0.2,0.3,0.4,0.3,0.7
		v87.7l-1-1h29.9c0.6,0,1,0.4,1,1v0.1h-2v-33.5c0-0.6,0.4-1,1-1h39c0.6,0,1,0.4,1,1v15.3l-1-1h7.1l-1,1v-15.3c0-0.6,0.4-1,1-1H496
		l-1,1v-40.3c0-0.6,0.4-1,1-1h11.3l-1,1v-10.1c0-0.3,0.1-0.5,0.3-0.7l18.1-19.4l-0.1,0.2l8.5-14.2c0.3-0.5,0.9-0.6,1.4-0.3
		c0.1,0.1,0.3,0.2,0.3,0.3l9,14.4l-0.1-0.1l17,19.2c0.2,0.2,0.2,0.4,0.3,0.7v61.3l-1.1-1l8.9-0.8l-0.9,1v-107l1,1h-8
		c-0.6,0-1-0.4-1-1v-27.7c0-0.5,0.4-1,1-1l25.6-0.2l-1,1l0.1-18.6c0-0.6,0.4-1,1-1h31.9c0.6,0,1,0.4,1,1v17.3l-1-1l12,0.2
		c0.5,0,1,0.5,1,1v147.6l-1-1h7.5c0.6,0,1,0.4,1,1v19.4l-1-1h12.4l-1,1v-68.3c0-0.6,0.4-1,1-1h0l48.8,0.1c0.5,0,0.9,0.4,0.9,0.9v0
		l-0.1,45.4c0,15.1-0.1,30.3-0.2,45.4c0,0.4-0.3,0.7-0.7,0.7C698.8,319.8,698.5,319.5,698.5,319.1z"/>
</g>
<g>
	<path class="st2" d="M501.5,105.9l7.3-0.2l-0.8,0.7c0.3-1.7,0.8-3.2,1.4-4.7c0.7-1.5,1.5-3,2.8-4.2c1.2-1.2,2.9-2.2,4.7-2.4
		c0.9-0.1,1.8-0.1,2.7,0.1c0.9,0.2,1.8,0.6,2.5,1.2c0.7,0.6,1.3,1.4,1.7,2.2c0.1,0.2,0.2,0.4,0.3,0.6c0,0,0,0.1,0.1,0.1
		c0,0,0.1,0.1,0.2,0c0,0,0,0,0.1,0l0.3-0.2c0.2-0.1,0.4-0.2,0.6-0.3c0.4-0.2,0.9-0.3,1.3-0.3c0.9-0.1,1.8-0.1,2.6,0
		c0.4,0.1,0.8,0.1,1.3,0.2l0.7,0.2c0.2,0.1,0.4,0.2,0.7,0.4c0.8,0.5,1.5,1.3,1.9,2.2c0.8,1.7,0.9,3.4,0.7,5.1l-0.9-1
		c2.8,0,5.6,0.1,8.4,0.2c0.4,0,0.7,0.3,0.6,0.7c0,0.4-0.3,0.6-0.6,0.6c-2.8,0.1-5.6,0.2-8.4,0.2c-0.5,0-0.9-0.4-0.9-0.8l0-0.1l0-0.1
		c0.1-1.4-0.1-3-0.7-4.1c-0.3-0.6-0.7-1.1-1.2-1.4l-0.4-0.2l-0.4-0.1c-0.3-0.1-0.7-0.1-1-0.2c-0.7-0.1-1.4-0.1-2.1,0
		c-0.3,0.1-0.7,0.1-1,0.3c-0.2,0.1-0.3,0.1-0.5,0.2l-0.2,0.1c-0.1,0-0.3,0.1-0.5,0.2c-0.7,0.2-1.5,0-2-0.5c-0.3-0.2-0.5-0.5-0.6-0.9
		c-0.1-0.2-0.1-0.3-0.2-0.5c-0.3-0.6-0.7-1.1-1.2-1.5c-1-0.8-2.4-1.1-3.8-0.9c-1.4,0.1-2.6,0.8-3.6,1.8c-2,2-3.3,5-3.9,7.9l0,0.1
		c-0.1,0.4-0.4,0.6-0.8,0.6l-7.3-0.2c-0.4,0-0.7-0.3-0.7-0.7C500.9,106.2,501.2,105.9,501.5,105.9z"/>
</g>
<g>
	<path class="st2" d="M250.8,140.2c0.1,10.8,0.2,21.5,0.3,32.3l0.1,32.3l0,32.3l-0.1,16.1l-0.2,16.1c0,0.4-0.3,0.7-0.7,0.7
		c-0.4,0-0.7-0.3-0.7-0.7l-0.2-16.1l-0.1-16.1l-0.1-32.3l0-32.3c0-10.8,0.1-21.5,0.2-32.3c0-0.4,0.3-0.7,0.7-0.7
		C250.5,139.6,250.8,139.9,250.8,140.2z"/>
</g>
<path class="st4" d="M341.3,151.3H162c-1.3,0-2.3-1-2.3-2.3V70.3c0-1.3,1-2.3,2.3-2.3h177c1.3,0,2.3,1,2.3,2.3V151.3z"/>
<path class="st1" d="M202.5,81.2c-15.7,0-28.4,12.8-28.4,28.4c0,15.7,12.8,28.5,28.4,28.5c15.7,0,28.4-12.8,28.4-28.5
	C230.9,94,218.2,81.2,202.5,81.2z M176.9,109.7c0-3.7,0.8-7.2,2.2-10.4l12.2,33.4C182.8,128.6,176.9,119.8,176.9,109.7z
	 M202.5,135.3c-2.5,0-5-0.4-7.2-1.1l7.7-22.3l7.9,21.6c0.1,0.1,0.1,0.2,0.2,0.3C208.3,134.8,205.5,135.3,202.5,135.3z M206,97.7
	c1.5-0.1,2.9-0.2,2.9-0.2c1.4-0.2,1.2-2.2-0.2-2.1c0,0-4.1,0.3-6.8,0.3c-2.5,0-6.7-0.3-6.7-0.3c-1.4-0.1-1.5,2-0.2,2.1
	c0,0,1.3,0.2,2.7,0.2l4,10.9l-5.6,16.8l-9.3-27.7c1.5-0.1,2.9-0.2,2.9-0.2c1.4-0.2,1.2-2.2-0.2-2.1c0,0-4.1,0.3-6.8,0.3
	c-0.5,0-1.1,0-1.6,0c4.6-6.9,12.4-11.5,21.4-11.5c6.7,0,12.7,2.6,17.3,6.7c-0.1,0-0.2,0-0.3,0c-2.5,0-4.3,2.2-4.3,4.5
	c0,2.1,1.2,3.9,2.5,6c1,1.7,2.1,3.9,2.1,7.1c0,2.2-0.6,5-1.9,8.3l-2.6,8.5L206,97.7z M215.4,131.8l7.8-22.6c1.5-3.7,1.9-6.6,1.9-9.2
	c0-1-0.1-1.8-0.2-2.6c2,3.7,3.1,7.8,3.1,12.3C228.1,119.1,223,127.4,215.4,131.8z"/>
<g>
	<path class="st1" d="M250.7,86.8c0.4,3.9,0.4,7.8,0.4,11.7l0.1,11.7l-0.1,11.7c0,3.9,0,7.8-0.4,11.7h-0.2
		c-0.4-3.9-0.4-7.8-0.4-11.7l-0.1-11.7l0.1-11.7c0-3.9,0-7.8,0.4-11.7H250.7z"/>
</g>
<g>
	<path class="st1" d="M277.2,102.7h1.6c0,0,0.1,0,0.1-0.1V88.3c0,0,0-0.1-0.1-0.1h-1.6c0,0-0.1,0-0.1,0.1L277.2,102.7
		C277,102.5,277.2,102.7,277.2,102.7z"/>
	<path class="st1" d="M282.3,95.6c0.1-0.1,0.2-0.5,0.2-0.9v-5.4c0-0.9-0.4-1.2-1.2-1.2h-2c0,0-0.1,0-0.1,0.1v1.5c0,0,0,0.1,0.1,0.1
		h1.2c0,0,0.1,0,0.1,0.1v4.5c0,0,0,0.1-0.1,0.1h-1.1c0,0-0.1,0-0.1,0.1v1.3c0,0,0,0.1,0,0.2l1.6,6.2l0.1,0.1h1.7h0.1v-0.1l-1.6-6.5
		c0,0,0-0.1,0.1-0.1h0.1C281.9,95.8,282.2,95.8,282.3,95.6z"/>
	<path class="st1" d="M297.4,102.7h1.6c0,0,0.1,0,0.1-0.1V88.3c0,0,0-0.1-0.1-0.1h-1.6c0,0-0.1,0-0.1,0.1L297.4,102.7
		C297.3,102.5,297.4,102.7,297.4,102.7z"/>
	<path class="st1" d="M302.5,95.6c0.1-0.1,0.2-0.5,0.2-0.9v-5.4c0-0.9-0.4-1.2-1.2-1.2h-2c0,0-0.1,0-0.1,0.1v1.5c0,0,0,0.1,0.1,0.1
		h1.2c0,0,0.1,0,0.1,0.1v4.5c0,0,0,0.1-0.1,0.1h-1.1c0,0-0.1,0-0.1,0.1v1.3c0,0,0,0.1,0,0.2l1.6,6.2l0.1,0.1h1.7h0.1v-0.1l-1.6-6.5
		c0,0,0-0.1,0.1-0.1h0.4C302,95.8,302.3,95.8,302.5,95.6z"/>
	<path class="st1" d="M284,89.2V93c0,0.4,0,0.6,0.1,0.7c0.1,0.1,0.1,0.2,0.4,0.4l0.9,0.6l0.1,0.1l0.1,0.1c0.2,0.1,0.9,0.6,1.1,0.9
		h0.1l0.7-0.6l0.1-0.1V95c0,0,0-0.1-0.1-0.1l-1.8-1.5l-0.1-0.1V90c0,0,0-0.1,0.1-0.1h0.4c0,0,0.1,0,0.1-0.1v-1.6c0,0,0-0.1-0.1-0.1
		h-0.9C284.4,88,284,88.5,284,89.2z"/>
	<path class="st1" d="M284.1,96.2c-0.1,0.2-0.1,0.5-0.1,0.7v4.3c0,0.9,0.4,1.2,1.2,1.2h1.1c0,0,0.1,0,0.1-0.1v-1.5
		c0,0,0-0.1-0.1-0.1h-0.4c0,0-0.1,0-0.1-0.1v-3.8c0,0,0-0.1,0.1-0.1l0.6-0.5v-0.1l-1.1-0.9h-0.1l-0.7,0.5
		C284.4,96,284.2,96.1,284.1,96.2z"/>
	<path class="st1" d="M289,101.2v-2.7c0,0,0-0.1-0.1-0.1h-1.6c0,0-0.1,0-0.1,0.1v2.2c0,0,0,0.1-0.1,0.1h-0.4c0,0-0.1,0-0.1,0.1v1.5
		c0,0,0,0.1,0.1,0.1h1.1C288.6,102.5,289,102.1,289,101.2z"/>
	<path class="st1" d="M287.8,88h-1.1c0,0-0.1,0-0.1,0.1v1.5c0,0,0,0.1,0.1,0.1h0.4c0,0,0.1,0,0.1,0.1v2c0,0,0,0.1,0.1,0.1h1.6
		c0,0,0.1,0,0.1-0.1v-2.6C289,88.5,288.6,88,287.8,88"/>
	<path class="st1" d="M306.7,88.3v4.5V93l0.6,5c0,0,0,0.1-0.1,0.1h-0.4c0,0-0.1,0-0.1,0.1v1.5c0,0,0,0.1,0.1,0.1h0.5
		c0,0,0.1,0,0.1,0.1l0.2,2.6c0,0,0,0.1,0.1,0.1h1.6h0.1v-0.1l-2.1-14.2l-0.1-0.1L306.7,88.3C306.7,88.1,306.7,88.3,306.7,88.3z"/>
	<path class="st1" d="M305.8,98l0.5-5l0.1-0.7v-4c0,0,0-0.1-0.1-0.1h-0.6c0,0-0.1,0-0.1,0.1l-2.1,14.2v0.1c0,0,0,0,0.1,0h1.6
		c0,0,0.1,0,0.1-0.1l0.2-2.6c0,0,0-0.1,0.1-0.1h0.6c0,0,0.1,0,0.1-0.1v-1.5c0,0,0-0.1-0.1-0.1H305.8C306,98.2,305.8,98.2,305.8,98z"
		/>
	<path class="st1" d="M292,88.1h-1.6c0,0-0.1,0-0.1,0.1v14.3c0,0,0,0.1,0.1,0.1h1.6c0,0,0.1,0,0.1-0.1L292,88.1
		C292.2,88.3,292,88.1,292,88.1z"/>
	<path class="st1" d="M295.6,96.1c-0.1-0.2-0.2-0.4-0.5-0.6l-0.6-0.4V95l0.6-0.4c0.2-0.2,0.5-0.4,0.5-0.5c0.1-0.1,0.1-0.5,0.1-0.9
		v-3.9c0-0.9-0.4-1.2-1.2-1.2h-2c0,0-0.1,0-0.1,0.1v1.5c0,0,0,0.1,0.1,0.1h1.2c0,0,0.1,0,0.1,0.1v3.5c0,0,0,0.1-0.1,0.1l-0.6,0.5
		c0,0-0.1,0.1-0.2,0.1h-0.5c0,0-0.1,0-0.1,0.1v1.5c0,0,0,0.1,0.1,0.1h0.5c0,0,0.1,0,0.2,0.1l0.6,0.5l0.1,0.1v4.3c0,0,0,0.1-0.1,0.1
		h-1.2c0,0-0.1,0-0.1,0.1v1.5c0,0,0,0.1,0.1,0.1h2c0.9,0,1.2-0.4,1.2-1.2v-4.5C295.7,96.6,295.6,96.3,295.6,96.1"/>
	<path class="st1" d="M317.8,102.7h1.6c0,0,0.1,0,0.1-0.1V90c0,0,0-0.1,0.1-0.1h0.5c0,0,0.1,0,0.1-0.1v-1.5c0,0,0-0.1-0.1-0.1h-2.3
		c0,0-0.1,0-0.1,0.1L317.8,102.7C317.7,102.5,317.7,102.7,317.8,102.7z"/>
	<path class="st1" d="M321.1,88.1h-0.6c0,0-0.1,0-0.1,0.1v1.5v0.1l0,0c0.5,0,0.7,0.2,0.7,0.7v9.6c0,0.5-0.2,0.7-0.9,0.7h-0.6
		c0,0-0.1,0-0.1,0.1v1.5c0,0,0,0.1,0.1,0.1h1.2c0.6,0,1.2-0.1,1.5-0.5c0.4-0.4,0.5-0.9,0.5-1.5V90.3c0-0.6-0.1-1.1-0.5-1.5
		C322.3,88.4,321.8,88.1,321.1,88.1"/>
	<path class="st1" d="M310.6,102.3h1.6c0,0,0.1,0,0.1-0.1v-5.6c0,0,0-0.1,0-0.2l-1.7-6.3l0,0V102.3
		C310.5,102.3,310.6,102.3,310.6,102.3z"/>
	<path class="st1" d="M314.4,88v5.7c0,0,0,0.1,0,0.2l1.7,6.3l0,0V88.1c0,0,0-0.1-0.1-0.1H314.4C314.4,87.9,314.4,88,314.4,88z"/>
	<path class="st1" d="M327,109.9c0,0.1-0.1,0.3-0.3,0.3H322h4.9h-6.7c-0.1,0-0.3,0.1-0.3,0.3l-0.6,2.4h-0.1l-8.6-31.1l-0.1-0.1h-1.8
		h-38c-0.1,0-0.3,0.1-0.3,0.3v16.2c0,0.1,0.1,0.1,0.1,0.1h1.8c0.1,0,0.1-0.1,0.1-0.1V83.8c0-0.1,0.1-0.3,0.3-0.3H309
		c0.1,0,0.1,0,0.1,0.1l3.1,11.4c0,0,6.2,23,6.8,25.3h0.1l2.2-8c0,0,0-0.1,0.1-0.1h7.3c0.1,0,0.3-0.1,0.3-0.3V97.5
		c0-0.1-0.1-0.1-0.1-0.1h-1.8c-0.1,0-0.1,0.1-0.1,0.1L327,109.9z"/>
	<path class="st1" d="M270.4,108.9c0,0.1,0.1,0.1,0.1,0.1h42.7c0.1,0,0.1-0.1,0.1-0.1l-0.4-1.8c0-0.1-0.1-0.1-0.1-0.1h-40
		c-0.1,0-0.1-0.1-0.1-0.1V94.3c0,0,0-0.1-0.1-0.1h-1.9c0,0-0.1,0-0.1,0.1V108.9z"/>
	<path class="st1" d="M329.1,81.8c0-0.1-0.1-0.1-0.1-0.1h-16.8c-0.1,0-0.1,0.1-0.1,0.1l0.4,1.8c0,0.1,0.1,0.1,0.1,0.1h14.1
		c0.1,0,0.1,0.1,0.1,0.1v14.7c0,0,0,0.1,0.1,0.1c0,0,2.1,0,2.1-0.1V81.8z"/>
	<path class="st1" d="M270.4,137.5c0,0.1,0.1,0.1,0.1,0.1h50.8c0.1,0,0.1-0.1,0.1-0.1l-0.4-1.8c0-0.1-0.1-0.1-0.1-0.1h-48.2
		c-0.1,0-0.1-0.1-0.1-0.1v-28.5c0,0,0-0.1-0.1-0.1h-1.9c0,0-0.1,0-0.1,0.1V137.5z"/>
	<path class="st1" d="M329.1,137.5c0,0.1-0.1,0.1-0.1,0.1h-42.7c-0.1,0-0.1-0.1-0.1-0.1l0.4-1.8c0-0.1,0.1-0.1,0.1-0.1h40
		c0.1,0,0.1-0.1,0.1-0.1v-27c0,0,0-0.1,0.1-0.1h1.9c0,0,0.1,0,0.1,0.1V137.5z"/>
	<g>
		<path class="st1" d="M283.9,129.6v-3.9c0,0,0-0.1-0.1-0.1h-1.9c0,0-0.1,0-0.1,0.1v3.3c0,0,0,0.1-0.1,0.1H281c0,0-0.1,0-0.1,0.1
			v1.8c0,0,0,0.1,0.1,0.1h1.4C283.5,131.2,283.9,130.6,283.9,129.6z"/>
		<path class="st1" d="M282.5,113.6H281c0,0-0.1,0-0.1,0.1v1.8c0,0,0,0.1,0.1,0.1h0.6c0,0,0.1,0,0.1,0.1v3.4c0,0,0,0.1,0.1,0.1h1.9
			c0,0,0.1,0,0.1-0.1v-4.1C284,114.2,283.6,113.6,282.5,113.6"/>
		<path class="st1" d="M299.5,115.3v4.6c0,0.4,0,0.7,0.1,0.9c0.1,0.1,0.1,0.3,0.4,0.4l1,0.7l0.1,0.1l0.1,0.1c0.3,0.1,1,0.7,1.3,1
			h0.1l0.9-0.7l0.1-0.1v-0.1c0,0,0-0.1-0.1-0.1l-2.2-1.8l-0.1-0.1v-4c0,0,0-0.1,0.1-0.1h0.4c0,0,0.1,0,0.1-0.1V114
			c0,0,0-0.1-0.1-0.1h-1C300,113.8,299.5,114.4,299.5,115.3z"/>
		<path class="st1" d="M299.7,123.8c-0.1,0.3-0.1,0.6-0.1,0.9v5.2c0,1,0.4,1.5,1.5,1.5h1.3c0,0,0.1,0,0.1-0.1v-1.8
			c0,0,0-0.1-0.1-0.1h-0.4c0,0-0.1,0-0.1-0.1v-4.6c0,0,0-0.1,0.1-0.1l0.7-0.6v-0.1l-1.3-1h-0.1l-0.9,0.6
			C300,123.5,299.8,123.6,299.7,123.8z"/>
		<path class="st1" d="M305.6,129.8v-3.3c0,0,0-0.1-0.1-0.1h-1.9c0,0-0.1,0-0.1,0.1v2.7c0,0,0,0.1-0.1,0.1h-0.4c0,0-0.1,0-0.1,0.1
			v1.8c0,0,0,0.1,0.1,0.1h1.3C305.2,131.5,305.6,130.9,305.6,129.8z"/>
		<path class="st1" d="M304.1,113.8h-1.3c0,0-0.1,0-0.1,0.1v1.8c0,0,0,0.1,0.1,0.1h0.4c0,0,0.1,0,0.1,0.1v2.4c0,0,0,0.1,0.1,0.1h1.9
			c0,0,0.1,0,0.1-0.1v-3.1C305.6,114.4,305.2,113.8,304.1,113.8"/>
		<path class="st1" d="M279.3,131.3h1.1c0,0,0.1,0,0.1-0.1v-1.8v-0.1h-0.4c-0.6,0-0.9-0.3-0.9-0.9v-11.7c0-0.6,0.4-0.9,1.1-0.9h-0.1
			c0,0,0.1,0,0.1-0.1v-1.8c0,0,0-0.1-0.1-0.1h-0.7c-0.7,0-1.5,0.1-1.8,0.6c-0.4,0.4-0.6,1-0.6,1.8v12.6c0,0.7,0.1,1.3,0.6,1.8
			C277.9,131,278.5,131.3,279.3,131.3"/>
		<path class="st1" d="M295.9,131.4h1.9c0,0,0.1,0,0.1-0.1v-17.3c0,0,0-0.1-0.1-0.1h-1.9c0,0-0.1,0-0.1,0.1L295.9,131.4
			C295.8,131.2,295.8,131.4,295.9,131.4z"/>
		<path class="st1" d="M285.6,131.4h1.9c0,0,0.1,0,0.1-0.1v-17.3c0,0,0-0.1-0.1-0.1h-1.9c0,0-0.1,0-0.1,0.1L285.6,131.4
			C285.4,131.2,285.4,131.4,285.6,131.4z"/>
		<path class="st1" d="M288.7,115.9h1.5c0,0,0.1,0,0.1-0.1V114c0,0,0-0.1-0.1-0.1h-1.5c0,0-0.1,0-0.1,0.1L288.7,115.9
			C288.5,115.7,288.5,115.9,288.7,115.9z"/>
		<path class="st1" d="M290.6,131.3h1.9c0,0,0.1,0,0.1-0.1V116c0,0,0-0.1,0.1-0.1h1.8c0,0,0.1,0,0.1-0.1V114c0,0,0-0.1-0.1-0.1h-3.9
			c0,0-0.1,0-0.1,0.1V131.3C290.6,131.2,290.6,131.3,290.6,131.3z"/>
		<path class="st1" d="M310.8,113.8h1.7c0,0,1.4-0.1,1.4,1.3v4.2h-2.2l0-3.6l-0.9,0V113.8z"/>
		<path class="st1" d="M310.6,131.3h-1.9c0,0-1.4,0.1-1.4-1.3v-4.2h2.2l0,3.6l1.1,0V131.3z"/>
		<path class="st1" d="M310.4,113.8v2h-0.9l0,3.4l3.1,4.3l0.8,1.1c0,0,0.3,0.3,0.3,1.3v2.9v1.1c0,0,0.1,1.2-0.8,1.5
			c0,0-0.3,0.1-0.7,0.1l-1.6,0l0-2l1,0l0-3.6l-3.8-5.1c0,0-0.5-0.5-0.5-1.3v-4c0,0,0-1.5,1.3-1.5L310.4,113.8z"/>
	</g>
</g>
<g>
	<path class="st1" d="M665.1,85.8c0.7-0.2,63.2,0,63.2,0s4-13.2-6.6-15.9c-3.2-0.8-5-0.5-6-0.1c-0.4,0.2-0.8-0.1-0.8-0.5
		c-0.2-2.6-1.7-9.9-11.4-9.9c-10.6,0-15.2,10-15.2,10s-2.4-3.4-6.5-3.8c-12.4-1-15.4,12.7-15.4,12.7"/>
	<path class="st2" d="M665,85.4c0.1,0,0.2,0,0.4,0l0.3,0l0.5,0l1,0l2-0.1l4-0.1l7.9-0.1c5.3-0.1,10.5-0.1,15.8-0.1l31.6,0l-0.9,0.6
		c0.6-2.3,0.9-5,0.5-7.3c-0.3-2.4-1.5-4.6-3.4-6c-0.9-0.7-2.1-1.1-3.2-1.4c-1.2-0.3-2.4-0.5-3.6-0.5c-0.6,0-1.1,0.1-1.6,0.3l-0.1,0
		c-0.1,0-0.2,0.1-0.3,0.1c-0.2,0-0.4,0-0.6,0c-0.4-0.1-0.8-0.3-1.1-0.7c-0.1-0.2-0.2-0.4-0.2-0.7l0-0.2l-0.1-0.4
		c-0.2-1.2-0.5-2.4-1-3.4c-1-2.1-3-3.7-5.3-4.4c-2.3-0.7-4.9-0.7-7.3-0.2c-4.8,1-9,4.7-11.1,9.1c-0.2,0.4-0.7,0.6-1.2,0.4
		c-0.1-0.1-0.2-0.2-0.3-0.3l0,0c-1.3-1.7-3.3-3.2-5.5-3.5c-2.3-0.3-4.7-0.1-6.9,0.9c-2.1,1-4,2.6-5.4,4.5c-1.4,1.9-2.5,4.2-3.2,6.5
		l0,0c0,0.1-0.2,0.2-0.3,0.2c-0.1,0-0.2-0.2-0.2-0.3c0.6-2.5,1.5-4.8,2.9-6.9c1.4-2.1,3.3-3.9,5.6-5.1c2.3-1.2,5-1.5,7.6-1.3
		c1.3,0.1,2.6,0.6,3.8,1.3c1.2,0.7,2.2,1.5,3,2.7l-1.5,0.1c0.6-1.3,1.4-2.3,2.3-3.4c0.9-1,1.8-2,2.8-2.9c2.1-1.8,4.5-3.1,7.2-3.7
		c1.3-0.3,2.7-0.4,4.1-0.4c1.4,0,2.8,0.2,4.1,0.6c1.3,0.4,2.7,1,3.8,1.9c1.1,0.9,2,2.1,2.7,3.3c0.7,1.3,1.1,2.6,1.3,4l0.1,0.5l0,0.2
		c0-0.1,0-0.1-0.1-0.2c-0.1-0.1-0.2-0.2-0.2-0.2c0,0-0.1,0-0.1,0c0,0,0,0-0.1,0l0.1-0.1c0.8-0.3,1.5-0.4,2.2-0.4
		c1.5-0.1,2.8,0.2,4.2,0.5c1.3,0.4,2.7,0.9,3.9,1.8c1.2,0.8,2.2,2,2.8,3.2c0.7,1.3,1.1,2.6,1.3,4c0.4,2.8,0.1,5.5-0.6,8.2
		c-0.1,0.4-0.5,0.6-0.9,0.6l0,0l-31.6-0.2l-31.5-0.3l-0.2,0c-0.2,0-0.4-0.2-0.4-0.4C664.7,85.6,664.8,85.5,665,85.4z"/>
</g>
<g>
	<rect x="196.7" y="60.4" class="st5" width="14.4" height="14.4"/>
	<rect x="243.3" y="60.4" class="st5" width="14.4" height="14.4"/>
	<rect x="289.9" y="60.4" class="st5" width="14.4" height="14.4"/>
</g>
<polyline class="st6" points="233.9,151.3 233.9,160.7 268.3,160.7 268.3,151.3 "/>
<rect x="243.9" y="160.7" class="st6" width="14.4" height="9.4"/>
<g>
	<g>
		<g>
			<path class="st7" d="M747.8,382.9"/>
		</g>
	</g>
</g>
<g>
	<path class="st2" d="M731.4,382c-0.2-0.9-0.3-1.9-0.2-2.8c0.1-0.9,0.2-1.8,0.5-2.7c0.2-0.9,0.6-1.8,0.9-2.6
		c0.4-0.8,0.8-1.7,1.4-2.4l0.3,0.2c-0.6,1.7-1.2,3.4-1.6,5.1c-0.2,0.9-0.4,1.7-0.6,2.6c-0.2,0.9-0.3,1.7-0.6,2.6L731.4,382z"/>
</g>
<g>
	<path class="st2" d="M731.1,382c-0.2-0.7-0.2-1.4,0.1-2.1c0.3-0.7,0.6-1.3,1.1-1.8c0.9-1,2-1.8,3.1-2.5l0.3,0.3
		c-0.4,0.6-0.8,1.1-1.3,1.5c-0.5,0.5-0.9,0.9-1.3,1.4c-0.4,0.5-0.8,0.9-1,1.5c-0.3,0.5-0.5,1-0.8,1.7L731.1,382z"/>
</g>
<g>
	<path class="st2" d="M747.7,382.9c-0.3-2-0.3-4-0.1-6.1c0.2-2,0.6-4,1.2-6c1.2-3.9,3.4-7.6,6.6-10.1l0.3,0.3
		c-1.3,1.5-2.5,3.1-3.5,4.8c-1,1.7-1.8,3.5-2.3,5.4c-0.6,1.9-1,3.8-1.2,5.8c-0.3,2-0.5,3.9-0.7,5.9H747.7z"/>
</g>
<path class="st8" d="M163.1,381.3"/>
<rect x="493.4" y="296.3" class="st6" width="101.6" height="86.5"/>
<path class="st9" d="M504.6,315.5v29.7h45.2v-41.5h-33.5C509.9,303.7,504.6,309,504.6,315.5z"/>
<rect x="558.7" y="303.7" class="st9" width="26.7" height="74.2"/>
<rect x="562.6" y="308.5" class="st1" width="19.3" height="28.1"/>
<path class="st4" d="M493.4,280.6h112.9v5.5c0,5.5-4.3,9.9-9.7,10.1c-0.5,0-1,0-1.5,0H493.4V280.6z"/>
<polygon class="st4" points="606.3,280.6 582.6,244.9 493.4,244.9 493.4,280.6 "/>
<polygon class="st4" points="493.4,235.5 581.9,235.5 582.6,244.9 493.4,244.9 "/>
<g>
	<line class="st1" x1="583.4" y1="351.9" x2="613" y2="351.9"/>
	<path class="st0" d="M583.4,351.7c2.5-0.8,4.9-0.7,7.4-0.8c2.5-0.1,4.9-0.1,7.4-0.1c2.5,0,4.9,0,7.4,0.1c2.5,0.1,4.9,0,7.4,0.8v0.5
		c-2.5,0.8-4.9,0.7-7.4,0.8c-2.5,0.1-4.9,0.1-7.4,0.1c-2.5,0-4.9,0-7.4-0.1c-2.5-0.1-4.9,0-7.4-0.8V351.7z"/>
</g>
<g>
	<line class="st1" x1="598.2" y1="381.3" x2="598.2" y2="351.6"/>
	<path class="st0" d="M597.5,381.3c-0.5-1.2-0.3-2.5-0.4-3.7l0-3.7c0-2.5-0.1-4.9-0.1-7.4c0-2.5,0-4.9,0.1-7.4
		c0-2.5,0.1-4.9,0.7-7.4h0.7c0.6,2.5,0.7,4.9,0.7,7.4c0.1,2.5,0.1,4.9,0.1,7.4c0,2.5,0,4.9-0.1,7.4l0,3.7c-0.1,1.2,0.1,2.5-0.4,3.7
		H597.5z"/>
</g>
<g>
	<line class="st1" x1="592.4" y1="381.8" x2="604" y2="381.8"/>
	<path class="st0" d="M592.4,381.5c1-0.8,1.9-0.7,2.9-0.8c1-0.1,1.9-0.1,2.9-0.1c1,0,1.9,0,2.9,0.1c1,0.1,1.9,0,2.9,0.8v0.5
		c-1,0.8-1.9,0.7-2.9,0.8c-1,0.1-1.9,0.1-2.9,0.1c-1,0-1.9,0-2.9-0.1c-1-0.1-1.9,0-2.9-0.8V381.5z"/>
</g>
<g>
	<path class="st0" d="M630.5,349.2c0.1,1.7-0.6,3.1-1.2,4.5l-1.7,4.2c-0.6,1.4-1.2,2.8-1.7,4.2c-0.3,0.7-0.5,1.4-0.8,2.1
		c-0.3,0.7-0.6,1.3-1.1,2l-0.5,0c-0.6-1.7-0.1-3.3,0.4-4.8c0.4-1.5,1-3,1.5-4.4c0.6-1.4,1.2-2.8,1.9-4.2c0.7-1.4,1.3-2.8,2.7-3.9
		L630.5,349.2z"/>
</g>
<g>
	<path class="st0" d="M612.1,382.6c-0.3-0.8,0-1.4,0-2.2l0.3-2.1c0.2-1.4,0.4-2.8,0.7-4.2c0.2-1.4,0.5-2.8,0.8-4.2
		c0.3-1.4,0.6-2.8,1.4-4.1l0.7,0.1c0.3,1.5,0.2,2.9-0.1,4.3c-0.2,1.4-0.4,2.8-0.7,4.2c-0.2,1.4-0.5,2.8-0.8,4.2l-0.4,2.1
		c-0.2,0.7-0.1,1.4-0.7,2L612.1,382.6z"/>
</g>
<g>
	<g>
		<path class="st0" d="M586.3,366.9c-0.6,0.5-1.3,0.3-1.9,0.4l-1.9,0c-1.3,0-2.6,0.1-3.8,0.1c-1.3,0-2.6,0-3.8-0.1
			c-1.3,0-2.6-0.1-3.8-0.7v-0.7c1.3-0.6,2.6-0.7,3.8-0.7c1.3-0.1,2.6-0.1,3.8-0.1c1.3,0,2.6,0,3.8,0.1l1.9,0
			c0.6,0.1,1.3-0.1,1.9,0.4V366.9z"/>
	</g>
	<g>
		<path class="st0" d="M567.7,349c1.4,1,2,2.5,2.7,3.9c0.7,1.4,1.3,2.8,1.9,4.2c0.6,1.4,1.1,2.9,1.5,4.4c0.4,1.5,1,3.1,0.4,4.8
			l-0.5,0c-0.5-0.7-0.8-1.3-1.1-2c-0.3-0.7-0.5-1.4-0.8-2.1c-0.6-1.4-1.1-2.8-1.7-4.2l-1.7-4.2c-0.6-1.4-1.3-2.8-1.2-4.5L567.7,349z
			"/>
	</g>
	<g>
		<path class="st0" d="M584.3,382.9c-0.6-0.6-0.5-1.3-0.7-2l-0.4-2.1c-0.3-1.4-0.6-2.8-0.8-4.2c-0.3-1.4-0.5-2.8-0.7-4.2
			c-0.2-1.4-0.4-2.8-0.1-4.3l0.7-0.1c0.8,1.3,1.2,2.7,1.4,4.1c0.3,1.4,0.6,2.8,0.8,4.2c0.3,1.4,0.5,2.8,0.7,4.2l0.3,2.1
			c0.1,0.7,0.4,1.4,0,2.2L584.3,382.9z"/>
	</g>
	<g>
		<path class="st0" d="M571.7,382.6c-0.3-0.8,0-1.5,0.1-2.2l0.4-2.1c0.3-1.4,0.5-2.8,0.8-4.2c0.3-1.4,0.6-2.8,1-4.2
			c0.3-1.4,0.7-2.8,1.6-4l0.7,0.1c0.3,1.5,0.1,2.9-0.2,4.3c-0.3,1.4-0.5,2.8-0.8,4.2c-0.3,1.4-0.6,2.8-1,4.2l-0.5,2.1
			c-0.2,0.7-0.2,1.4-0.8,2L571.7,382.6z"/>
	</g>
	<line class="st10" x1="583.5" y1="375.1" x2="574" y2="375.1"/>
</g>
<g>
	<g>
		<path class="st1" d="M629.7,348.4c0.2,1,0,2-0.4,3c-0.1,0.1,0.6,0.1,0.7-0.1c0.5-1,0.6-2,0.4-3C630.4,348,629.7,348.2,629.7,348.4
			L629.7,348.4z"/>
	</g>
</g>
<rect x="392.9" y="236.9" class="st9" width="100.4" height="145.8"/>
<path class="st6" d="M454.7,334.8H410c-4.5,0-8.1-3.6-8.1-8.1V282h52.8V334.8z"/>
<rect x="401.8" y="259.6" class="st1" width="83.3" height="17"/>
<rect x="459.8" y="282" class="st6" width="25.3" height="62.3"/>
<g>
	<line class="st1" x1="392.5" y1="344.3" x2="494.8" y2="344.3"/>
	<path class="st0" d="M392.5,343.6c4.3-0.5,8.5-0.3,12.8-0.4l12.8,0c8.5,0,17-0.1,25.6,0l25.6,0.1c8.5,0,17,0.1,25.6,0.7v0.7
		c-8.5,0.6-17,0.7-25.6,0.7l-25.6,0.1c-8.5,0.1-17,0-25.6,0l-12.8,0c-4.3-0.1-8.5,0.1-12.8-0.4V343.6z"/>
</g>
<path class="st9" d="M442.5,209.8"/>
<g>
	<line class="st1" x1="493.3" y1="353.6" x2="457.7" y2="353.6"/>
	<path class="st0" d="M493.3,354.3c-1.5,0.5-3,0.3-4.4,0.4l-4.4,0c-3,0-5.9,0.1-8.9,0.1c-3,0-5.9,0-8.9-0.1c-3,0-5.9-0.1-8.9-0.7
		v-0.7c3-0.6,5.9-0.7,8.9-0.7c3-0.1,5.9-0.1,8.9-0.1c3,0,5.9,0,8.9,0.1l4.4,0c1.5,0.1,3-0.1,4.4,0.4V354.3z"/>
</g>
<g>
	<line class="st1" x1="457.7" y1="361.6" x2="493.3" y2="361.6"/>
	<path class="st0" d="M457.7,361c1.5-0.5,3-0.3,4.4-0.4l4.4,0c3,0,5.9-0.1,8.9-0.1c3,0,5.9,0,8.9,0.1c3,0,5.9,0.1,8.9,0.7v0.7
		c-3,0.6-5.9,0.7-8.9,0.7c-3,0.1-5.9,0.1-8.9,0.1c-3,0-5.9,0-8.9-0.1l-4.4,0c-1.5-0.1-3,0.1-4.4-0.4V361z"/>
</g>
<g>
	<line class="st1" x1="457.7" y1="369.6" x2="493.3" y2="369.6"/>
	<path class="st0" d="M457.7,369c1.5-0.5,3-0.3,4.4-0.4l4.4,0c3,0,5.9-0.1,8.9-0.1c3,0,5.9,0,8.9,0.1c3,0,5.9,0.1,8.9,0.7v0.7
		c-3,0.6-5.9,0.7-8.9,0.7c-3,0.1-5.9,0.1-8.9,0.1c-3,0-5.9,0-8.9-0.1l-4.4,0c-1.5-0.1-3,0.1-4.4-0.4V369z"/>
</g>
<path class="st1" d="M420.8,310.5l-4.6-2.2c3.4-9.8,10.7-10,10.7-10l2.6,1.8l2.7-1.8c6.1,1.5,8.2,9,8.2,11.4l-4.5,1.2l0.4,10.5h-16
	L420.8,310.5z"/>
<polygon class="st6" points="274.6,382.6 274.6,263.4 299.9,222 329.9,266.3 393,266.8 393,382.6 "/>
<rect x="292.1" y="313.1" class="st4" width="14.8" height="38.8"/>
<polygon class="st4" points="335.6,308.5 335.6,382.9 356.6,382.9 377.5,382.9 377.5,308.5 "/>
<path class="st4" d="M299.5,252.8c-1.3,0-7.4,0.5-7.4,8.1v26.2h7.4h7.4v-26.2C306.9,253.3,300.8,252.9,299.5,252.8z"/>
<rect x="343.3" y="329.5" class="st6" width="26.5" height="53.4"/>
<polygon class="st4" points="262.3,266.3 299.4,207.7 316.5,231.3 393,231.3 393,266.8 329.4,266.6 299.4,222.3 272.6,266.3 "/>
<path class="st6" d="M444,236.9h56.5c-8.8-7.2-14.7-45-14.7-45l-41.8-0.6v0l-0.1,0l-0.1,0v0l-41.8,0.6c0,0-5.9,37.8-14.7,45h56.5"/>
<path class="st9" d="M334.9,311.5c0-12,9.7-21.7,21.7-21.7s21.7,9.7,21.7,21.7v6h-43.4V311.5z"/>
<g>
	<path class="st1" d="M379.3,383c-3.8,0.4-7.6,0.4-11.4,0.4l-11.4,0.1l-11.4-0.1c-3.8,0-7.6,0-11.4-0.4v-0.2
		c3.8-0.4,7.6-0.4,11.4-0.4l11.4-0.1l11.4,0.1c3.8,0,7.6,0,11.4,0.4V383z"/>
</g>
<g>
	<path class="st4" d="M362,304.5c0.6-0.9,0.8-2.9-0.6-4.2c-1.8-1.8-4.8-3.7-4.8-3.7s-0.4,1.1-2.5,1.6c-2.9,0.8-2.3,2.8-2.3,2.8
		c-1.5,0.8-2.1,2.4-1,3.5"/>
</g>
<path class="st6" d="M350.2,304.8l1.5,5.6c0.3,1,1.1,1.6,2.1,1.6h5.4c1,0,1.9-0.7,2.1-1.6l1.6-5.6"/>
<g>
	<path class="st6" d="M350.9,304.9c-0.7-0.6-1.1-1.8-0.6-2.8c0.5-1,1.4-1.6,2.3-1.8c0.9-0.3,1.9-0.4,2.8-0.4
		c0.9-0.1,1.8-0.2,2.7-0.4l0.1,0.3c-0.8,0.4-1.8,0.7-2.7,0.8c-0.9,0.1-1.8,0.2-2.6,0.5c-0.8,0.3-1.6,0.7-1.9,1.4
		c-0.4,0.7-0.3,1.5,0.1,2.4L350.9,304.9z"/>
</g>
<g>
	<path class="st5" d="M349.2,304.3c0.6-0.2,1.2-0.1,1.8-0.2l1.8,0c1.2,0,2.4,0,3.6,0c1.2,0,2.4,0,3.6,0c1.2,0,2.4,0,3.6,0.3v0.3
		c-1.2,0.3-2.4,0.3-3.6,0.3c-1.2,0-2.4,0-3.6,0c-1.2,0-2.4,0-3.6,0l-1.8,0c-0.6,0-1.2,0.1-1.8-0.2V304.3z"/>
</g>
<g>
	<path class="st6" d="M361.3,299.6c0.1,0.6-0.1,1.2-0.5,1.6c-0.4,0.5-0.9,0.8-1.4,1c-1,0.4-2.1,0.7-3.2,0.5l0-0.3c1-0.4,2-0.5,2.9-1
		c0.4-0.2,0.9-0.4,1.2-0.8c0.4-0.3,0.6-0.7,0.9-1.1L361.3,299.6z"/>
</g>
<circle class="st9" cx="338.5" cy="317.3" r="3.6"/>
<circle class="st9" cx="345.8" cy="317.3" r="3.6"/>
<circle class="st9" cx="353" cy="317.3" r="3.6"/>
<circle class="st9" cx="360.2" cy="317.3" r="3.6"/>
<circle class="st9" cx="367.5" cy="317.3" r="3.6"/>
<circle class="st9" cx="374.7" cy="317.3" r="3.6"/>
<path class="st11" d="M514.8,343.2c-0.1-7.4,2.4-12.5,5.3-14c1.6-0.8,3.9-0.1,5.1,1.2c1.4,1.5,2.1,3.6,1.9,5.6l-0.8,8.2"/>
<path class="st12" d="M522.2,325.4c3.8-0.7,4.9,3.5,4.9,3.5"/>
<path class="st12" d="M524.1,329.4c1.5-0.2,4.8-0.2,5.2,1.7c0.2,0.7-0.2,1.9-1,2.4"/>
<path class="st12" d="M523.4,327.6c-1.9-1.3-4.2-2-5.6-0.6c-0.6,0.6-0.4,2.3,0.9,3.3"/>
<path class="st13" d="M529.2,315.5l-1.7,6.5c-0.5,1.5-3.6,5.2-5.2,5l-4-1C518.4,326,518.9,311.3,529.2,315.5z"/>
<path class="st8" d="M502.4,384.2"/>
<polyline class="st11" points="514.1,345.3 514.8,343.2 526.4,344.2 526.5,345.1 "/>
<path class="st6" d="M521.5,331.8c3.1,0.1,4.9,13.3,4.9,13.3l6.2,10.1l-0.8,0.5c-1.8,1.1-4.2,0.6-5.4-1.1l-4.7-6.8
	C521.7,347.8,516.2,331.6,521.5,331.8z"/>
<path class="st14" d="M529,316c1.2,0.5,1.5,1.3,1.7,2.3c0.2,1.9,1.7,2.3,1.7,3.3c0,0.7-1.2,0.8-1.4,1.5c-0.6,2.3-2.3,3.9-4.8,4"/>
<path class="st15" d="M529,324.3c0.5,0.4,1.1,0.4,1.1,0.4"/>
<path class="st13" d="M529.2,315.5c0.7,1.1,1.5,2.8,1.5,2.8l-3.6,0.4l0.2-2.1L529.2,315.5"/>
<path class="st4" d="M529.5,321.6L529.5,321.6c-0.2,0-0.3-0.2-0.3-0.4l0-0.6c0-0.2,0.2-0.4,0.4-0.4l0,0c0.2,0,0.3,0.2,0.3,0.4l0,0.6
	C529.8,321.4,529.7,321.6,529.5,321.6z"/>
<g>
	<path class="st2" d="M23.8,381.9l46.6-0.3l46.6-0.2l93.2-0.3l186.5-0.1l186.5,0.2l93.2,0.2l46.6,0.1l46.6,0.2
		c0.2,0,0.4,0.2,0.4,0.4c0,0.2-0.2,0.4-0.4,0.4l-46.6,0.2l-46.6,0.1l-93.2,0.2l-186.5,0.2l-186.5-0.1l-93.2-0.3l-46.6-0.2l-46.6-0.3
		c-0.1,0-0.2-0.1-0.2-0.2C23.6,382,23.7,381.9,23.8,381.9z"/>
</g>
<g>
	<path class="st2" d="M377.8,394.3c4.1-0.3,8.2-0.3,12.4-0.4l12.4-0.1c8.2,0.1,16.5,0,24.7,0.4c0.1,0,0.2,0.1,0.2,0.2
		c0,0.1-0.1,0.2-0.2,0.2c-8.2,0.3-16.5,0.3-24.7,0.4l-12.4-0.1c-4.1-0.1-8.2-0.1-12.4-0.4C377.7,394.5,377.7,394.5,377.8,394.3
		C377.7,394.4,377.7,394.4,377.8,394.3z"/>
</g>
<g>
	<path class="st2" d="M84.3,394.3c2.5-0.3,4.9-0.3,7.4-0.4l7.4-0.1c4.9,0.1,9.8,0,14.7,0.4c0.1,0,0.2,0.1,0.2,0.2
		c0,0.1-0.1,0.2-0.2,0.2c-4.9,0.3-9.8,0.3-14.7,0.4l-7.4-0.1c-2.5-0.1-4.9-0.1-7.4-0.4C84.3,394.5,84.2,394.5,84.3,394.3
		C84.2,394.4,84.3,394.4,84.3,394.3z"/>
</g>
<g>
	<path class="st2" d="M552.7,396.7c2.5-0.3,4.9-0.3,7.4-0.4l7.4-0.1c4.9,0.1,9.8,0,14.7,0.4c0.1,0,0.2,0.1,0.2,0.2
		c0,0.1-0.1,0.2-0.2,0.2c-4.9,0.3-9.8,0.3-14.7,0.4l-7.4-0.1c-2.5-0.1-4.9-0.1-7.4-0.4C552.6,396.9,552.6,396.8,552.7,396.7
		C552.6,396.7,552.6,396.7,552.7,396.7z"/>
</g>
<g>
	<path class="st2" d="M537.9,411.9c1.8-0.3,3.6-0.4,5.4-0.4c1.8,0,3.6-0.1,5.4-0.1c3.6,0.1,7.2,0,10.7,0.4c0.1,0,0.2,0.1,0.2,0.2
		c0,0.1-0.1,0.2-0.2,0.2c-3.6,0.3-7.2,0.3-10.7,0.4c-1.8,0-3.6,0-5.4-0.1c-1.8,0-3.6-0.1-5.4-0.4C537.9,412,537.9,412,537.9,411.9
		C537.9,411.9,537.9,411.9,537.9,411.9z"/>
</g>
<g>
	<path class="st2" d="M755.9,408.7c1.6-0.3,3.2-0.4,4.9-0.4c1.6,0,3.2-0.1,4.9-0.1c3.2,0.1,6.5,0,9.7,0.4c0.1,0,0.2,0.1,0.2,0.2
		c0,0.1-0.1,0.2-0.2,0.2c-3.2,0.3-6.5,0.3-9.7,0.4c-1.6,0-3.2,0-4.9-0.1c-1.6,0-3.2-0.1-4.9-0.4
		C755.9,408.9,755.9,408.9,755.9,408.7C755.9,408.8,755.9,408.8,755.9,408.7z"/>
</g>
<polygon class="st1" points="688.8,391.1 689,436.6 688.9,442.2 680.9,442.2 679.1,415.4 677.3,442.2 669.8,442.2 668.7,413.2 
	669.2,399.6 670.4,390.6 "/>
<path class="st16" d="M174.4,329.1c0.8,0,1.1-0.1,1.9-0.4c3.2-1.1,4.7-3.8,4.6-6.9c0-0.9,1.5-1.5,1.2-2.4c-0.4-1.2-2.5-1.1-3.5-3.3
	c-1.2-2.5-4.3-3.2-7.2-2.2c-4.1,1.4-6.3,5.8-4.9,9.9"/>
<path class="st17" d="M173.5,319.4c1.1,2.8,0.9,7.6-2.1,8.7c-2.9,1.1-5-4.3-5-4.3L173.5,319.4z"/>
<path class="st2" d="M165.3,360.6c-2.6,19.8-0.4,62-0.4,62h9.7l0.9-35.4"/>
<path class="st4" d="M164.9,421.6c2.9,0.1,11.8,0.7,13.2,1.1c1.3,0.5,1.4,0.7-0.2,1s-13,0-13,0V421.6z"/>
<g>
	<path class="st4" d="M181.1,360.2c0,0,1.1,15,1.6,30.4c0.4,12.9-1.1,26.5-1,32h-10.5c0.1-31.5-6.1-44.6-5.8-62"/>
</g>
<path class="st4" d="M228.9,424c-1.3,0.4-5.3,1.2-6.5,1.6c-1,0.3-0.8,1.8,0.3,1.8h10.8c1.2,0,2.2-1.1,2-2.3l-0.2-1.2L228.9,424z"/>
<g>
	<path class="st4" d="M164.5,338.8c-1.2,10.8,0.8,21.8,0.8,21.8l15.9-0.4l-0.2-9.8l-3.7-2l4.5-8.7l-3-3.1l-4.5-4.7
		C169.6,330.9,165,334.1,164.5,338.8z"/>
</g>
<polygon class="st6" points="175.8,347.7 176.6,399.4 183.2,399.4 182.2,350.8 "/>
<path class="st16" d="M174,345.6c6.3,5.4,12.4,7,14.9,4.8c3.8-3.2-3-15.8-3.4-17.6c-1.6-6.4-5.1-6.4-6-5.7c-0.9,0.7,0.9,4.7,0.9,4.7
	l1.6,8.5"/>
<line class="st18" x1="178.3" y1="336.9" x2="184.1" y2="342.5"/>
<g>
	<path class="st4" d="M171.2,421.6c2.9,0.1,11.8,0.7,13.2,1.1c1.3,0.5,1.4,1.2-0.2,1.6s-13,0-13,0V421.6z"/>
</g>
<polygon class="st18" points="175.7,329.3 174.8,331.9 174.2,329.2 "/>
<path class="st19" d="M178.5,359.9c-4.8,2.1-14.2,1-14.2,1"/>
<path class="st20" d="M184,374.3c-1.6,0.3-3.5,0.2-5.4-0.1"/>
<path class="st19" d="M170.7,332.2c2.5-0.9-2.9-3.8-3.3-1.8S168.6,332.9,170.7,332.2z"/>
<path class="st19" d="M171.9,331.8c0,0,3.1,0.4,4.7,2"/>
<line class="st19" x1="165.9" y1="324.5" x2="181.5" y2="313.9"/>
<path class="st18" d="M179,324.3c0.7,0.1,1.3-0.2,1.3-0.2"/>
<path class="st5" d="M178.3,321L178.3,321c-0.2,0-0.5-0.1-0.5-0.4l-0.1-0.7c0-0.2,0.1-0.5,0.4-0.5l0,0c0.2,0,0.5,0.1,0.5,0.4
	l0.1,0.7C178.7,320.8,178.5,321,178.3,321z"/>
<polygon class="st1" points="497.5,343.5 496.3,343.9 495.5,346.8 496.3,358.2 495.9,360.7 495.8,367 498.3,370.6 500.1,371 
	501.9,368.5 504.8,368.9 507.1,356.1 "/>
<path class="st21" d="M497.7,402c-4.4,8.4-5.1,11.8-4.4,16.6c0.7,4.8,5.4,11.1,5.4,11.1"/>
<path class="st6" d="M510.7,367.8c1.2,7.2,1.5,20.8,1.5,20.8l-13.4,0.6c0,0-2.6-15.6-1.1-18.5"/>
<path class="st21" d="M496,359.6c-1.2,9.8,3.3,13.1,4.8,11.2"/>
<path class="st16" d="M495.1,346.1c-1.1,0.7-1.8,1.7-2,3c-0.3,2.3-2.2,2.8-2.2,4c0,0.9,1.5,1,1.7,1.8c0.8,2.8,3,4.9,6.1,4.9"/>
<polyline class="st21" points="512.5,429.4 519.2,438.3 511,447.1 "/>
<path class="st18" d="M494.8,355.5c-0.4,0.9-1.3,1.3-1.3,1.3"/>
<path class="st5" d="M494.3,352.6L494.3,352.6c0.2,0,0.4-0.2,0.4-0.4l0-0.7c0-0.2-0.2-0.4-0.4-0.4l0,0c-0.2,0-0.4,0.2-0.4,0.4l0,0.7
	C493.8,352.4,494,352.6,494.3,352.6z"/>
<path class="st4" d="M508,364.2c-3.8-1.6-11.6,12.7-11.6,12.7l-7.9-12.8l-4.4,1.8c0,0,4,18,11.8,18.8c7.7,0.7,13.9-10.7,13.9-10.7
	S512.9,366.2,508,364.2z"/>
<path class="st21" d="M511.5,387.9c3.6,8.8-0.6,59.3-0.6,59.3h-10.2c0,0-5.1-48.5-1.6-58.7"/>
<path class="st19" d="M495.5,345.8c2.5,2.1,2.7,7.4,3.2,9.7c0.6,2.9,1.6,5.6-1,5.8"/>
<path class="st21" d="M508.7,359.7c2.7-5.8-0.2-15.5-6.5-16.8c-2.1-0.4-4.6,0.6-5.8,1"/>
<path class="st16" d="M488.2,364.8c-0.2-3-1.6-11.7-3-11.2c-1.4,0.6-0.3,4.8-0.7,6.3c-0.4,1.4-1.1,3.4,0.1,6"/>
<path class="st18" d="M484.2,360.1c0,0-0.7-1.5-1-1.2s0.8,2.2,0.8,2.2"/>
<path class="st21" d="M503.8,354.7c0,2.7-1.1,5-2.3,5.5"/>
<line class="st19" x1="509.7" y1="394.4" x2="506.8" y2="399.8"/>
<path class="st21" d="M507.5,354.2c1.8,6.5,0.6,15.7-6.3,14.6"/>
<g>
	<path class="st1" d="M361.6,365.3c0,0-6.7-0.7-7.9,3.7c0,0-0.8,3.2,0.5,5.7v1.7c0,0-1.9-0.9-3.8-0.7c0,0-2.3,0.6-1.7,2.2l1.5,2.3
		l9.6,5.6c0,0,3.2-3.5,2.2-5.3l-2.2-1.2l-1-2.6L361.6,365.3z"/>
	<path class="st1" d="M343.5,342.8c0,0-3.6-3.6-6.6-3c0,0-6.9,0.4-7.1,6.3c0,0,0.2,5.2,1.6,7.9l1.8,1.2l-0.5,1.5l-1.4-0.3l-2.7,5.3
		l10.6,5.4l1.8-7.6l-2.3-0.8l1.3-3.4L343.5,342.8z"/>
	<path class="st22" d="M339.3,358.7l1-3.4c2.8,0.4,4-1.2,5.1-3.7c0.3-0.7,1.7-0.6,1.8-1.4c0.1-1.1-1.5-1.8-1.4-4
		c0-1.2-0.2-2.8-1.4-3c0,0-5.4,2.3-8.1,5.2c-1.2,3.3-1.9,4.9-1.9,4.9l-1.4,3.4L339.3,358.7z"/>
	<path class="st8" d="M359.8,387l-0.9,9.3c0,0-5.1,13.2-0.9,8.2c-5.6,6.6-12.2-1.6-12.4-9.3c-0.2-8.5,2.7-14.3,6.1-16
		c1.8-0.9,4.5-0.1,5.9,1.3C359.2,382.2,360,384.6,359.8,387z"/>
	<path class="st19" d="M354.2,374.7c4.3-0.8,5.6,4.1,5.6,4.1"/>
	<path class="st19" d="M356.3,379.3c1.8-0.2,5.5-0.2,6,1.9c0.2,0.8-0.2,2.2-1.1,2.8"/>
	<path class="st19" d="M355.5,377.2c-2.2-1.5-4.8-2.3-6.4-0.7c-0.7,0.7-0.5,2.6,1.1,3.7"/>
	<path class="st23" d="M322.8,406.3c1.3,8.5-13.4,32.7-13.4,32.7l6.7,9.8c0,0,12.8-18.4,15.4-26.1"/>
	<polyline class="st23" points="342.8,417.1 349.1,449.8 338.7,451 328.9,412.4 	"/>
	<path class="st4" d="M335.1,361.3c7.3,3.8,6.8,15.3,7.6,20.5c0.9,5.2,2.1,35,2.1,35l-27.6-1.1C317.1,415.8,316.3,351.7,335.1,361.3
		z"/>
	<path class="st6" d="M359.8,419.1l4.9,27.2c0.1,0.8,0.8,1.4,1.6,1.5c1.4,0.2,3.5,0.8,3.5,2.5c0,0.4-3.6,0.6-6.4,0.7
		c-1.8,0-3.5-1.1-4-2.9l-8.3-26.6"/>
	<path class="st6" d="M353.6,422.3l-15.1,23.2c-0.5,0.7-0.4,1.6,0.1,2.2c0.9,1.1,2,3,0.8,4.2c-0.3,0.3-3-2-5.1-3.9
		c-1.4-1.2-1.7-3.2-0.9-4.8l12.2-25.1"/>
	<path class="st13" d="M362.2,363.4l-2.2,6.6c-0.6,1.7-2.3,2.8-4.1,2.5l-5.5-0.9C350.4,371.7,353.4,360.4,362.2,363.4z"/>
	<path class="st18" d="M343.5,351.7c0.3,0.9,1.2,1.2,1.2,1.2"/>
	<polygon class="st8" points="358.9,396.3 364.6,435.8 332.6,431.9 345.7,395.1 	"/>
	<path class="st6" d="M354.8,381.6c3.3,1.2,0.4,16.2,0.4,16.2l3,13.3l-1.1,0.2c-2.4,0.5-4.8-0.9-5.4-3.2l-2.6-9.1
		C349.1,399.1,349.1,379.5,354.8,381.6z"/>
	<g>
		<path class="st18" d="M328.6,369c-1.5,11.3-2.3,14.5,2.2,21.6c2.2,3.5,6.3,7.8,6.3,7.8"/>
		<path class="st18" d="M336,373.6c0,0,0.1,4.7,0,6.8"/>
		<line class="st18" x1="337.7" y1="382.5" x2="334.1" y2="382"/>
		<line class="st18" x1="339" y1="384" x2="337" y2="384.9"/>
		<line class="st20" x1="342.3" y1="392.3" x2="334.1" y2="402.2"/>
		<line class="st18" x1="339" y1="385.8" x2="342.3" y2="392.3"/>
	</g>
	<line class="st18" x1="338.1" y1="348.4" x2="348" y2="345.9"/>
	<line class="st18" x1="347.7" y1="344.3" x2="348.4" y2="347.9"/>
	<path class="st18" d="M343.9,341.5c-0.2,3.4-5.9,4.5-7.7,6.9c-1.8,2.4-1.1,4.5-1.1,4.5"/>
	<path class="st18" d="M341.8,341.5c-1.7-2.5-8.6-2.3-10.8,1.3c-2.7,4.5,0.5,11.2,0.5,11.2"/>
	<g>
		<polyline class="st24" points="331,356 341.3,359.3 340.4,362.5 		"/>
		<path class="st18" d="M344.4,343.2c0.9,0.8,1.4,1.8,1.4,3c0,2.2,1.6,2.9,1.4,4c-0.1,0.8-1.5,0.7-1.8,1.4c-1.1,2.5-2.2,4.1-5.1,3.7
			l-1,3.4"/>
	</g>
	<path class="st13" d="M352.4,365.3h1.8v-1.8c0-1-0.8-1.8-1.8-1.8l0,0c-1,0-1.8,0.8-1.8,1.8l0,0
		C350.6,364.5,351.4,365.3,352.4,365.3z"/>
	<path class="st16" d="M362,363.9c1.3,0.6,1.7,1.5,1.9,2.7c0.3,2.2,2,2.6,2,3.7c0,0.8-1.4,0.9-1.6,1.7c-0.7,2.6-2.7,4.5-5.5,4.5"/>
	<path class="st25" d="M362,373.5c0.6,0.5,1.3,0.5,1.3,0.5"/>
	<path class="st13" d="M362.2,363.4c0.8,1.3,1.7,3.2,1.7,3.2l-4.1,0.5l0.2-2.4L362.2,363.4"/>
	<path class="st4" d="M362.5,370.4L362.5,370.4c-0.2,0-0.4-0.2-0.4-0.4l0-0.7c0-0.2,0.2-0.4,0.4-0.4l0,0c0.2,0,0.4,0.2,0.4,0.4
		l0,0.7C362.9,370.2,362.7,370.4,362.5,370.4z"/>
</g>
<polygon class="st22" points="231.3,349.3 225.3,349.3 224.3,335.5 231.3,335.5 "/>
<path class="st26" d="M237.6,347.4c3-0.4,11.2,9.9,12.7,13.8c1.5,4-8.3,6.3-8.3,6.3"/>
<path class="st26" d="M248.3,396.8c0,0,5.7,10.9,4.9,21.3l-0.9,2.7l-18.1-25"/>
<path class="st26" d="M226.5,394.9c0,0,1.3,25.9,2.7,30.3l5.4-0.1c0.3-9.1,3.4-20.7,3.7-32.4"/>
<path class="st1" d="M211.2,339.1"/>
<path class="st4" d="M224.3,342.2c1.3,0.3,2.8-0.1,2.8-0.1c0.1,0,0.1,0.1,0.1,0.1l-2.3,2.4l-0.6-2.6"/>
<path class="st26" d="M225.9,326.5c-3.1-0.1-5.9,1.3-6.3,4.1c-0.4,2.4-2.4,2.9-2.5,4.2c0,0.9,1.6,1.1,1.8,2c0.7,3,2.9,5.2,6.3,5.4
	c0.8,0,1.2,0,1.9-0.2"/>
<path class="st18" d="M221,337.3c-0.4,1-1.4,1.4-1.4,1.4"/>
<path class="st5" d="M220.6,334.2L220.6,334.2c0.2,0,0.4-0.2,0.4-0.4V333c0-0.2-0.2-0.4-0.4-0.4l0,0c-0.2,0-0.4,0.2-0.4,0.4v0.8
	C220.1,334,220.3,334.2,220.6,334.2z"/>
<path class="st4" d="M224.6,345.5c8.4-2.7,11.9-0.7,15.1,4.1c5.2,7.9,2.2,9.9,4.1,17.1s6.3,10.3,5.5,30.8h-24c0,0-2.3-23.7-1.6-30.6
	"/>
<path class="st4" d="M249.5,417.9c0,0,5.6,9.8,7.4,9.4c1.1-0.2-0.7-5-1.3-7.2c-0.4-1.6-0.8-2.6-2.4-2.4L249.5,417.9z"/>
<path class="st26" d="M219.7,354.2c0,0-1.6-1.2-2.9-3.4c-1.9-3.4-6.8-9.2-8-7.6s0.9,6.9,2.7,7.8c1.3,4.3,8.2,18.7,12.3,17.6
	c4.1-1.1,7.4-23,1.7-22.7c-5.7,0.3-6.1,12.9-6.1,12.9"/>
<path class="st2" d="M239.8,340.2c-0.6-1-1.3-1.8-2.1-2.4c-0.7-0.6-1.2-1.4-1.4-2.3c-0.2-1.3-0.6-2.5-1.2-3.4
	c-0.8-1.2-2.3-2.2-3.8-2.6c-1.4-2.4-2.6-2.8-4.3-3.3c-2.8-0.9-5.5,0.8-5.5,0.8c-0.4,3.2,0.9,6.7,3.8,6.9c-0.5,2.4,0.9,5.7,3.6,6.5
	c-0.3,1.8,0.1,4,1.3,5.9c2.2,3.6,6.2,5.1,8.8,3.5C241.7,348,242,343.8,239.8,340.2z"/>
<path class="st6" d="M623.7,383.7c0.2,10.4-0.8,26.8-0.6,29.9c0,0.6,0.6,1.1,1.3,1.2h9l1.1-14.2l1.6,14.1h9.1c0.7,0,1.2-0.5,1.2-1.2
	l-2.6-29.9H623.7"/>
<path class="st2" d="M628.4,366.5l-4.6,2l-6.7-3.2c4.9-14.1,13.1-14.8,13.1-14.8l3.8,2.6l3.9-2.6c8.7,2.2,11.8,13,11.8,16.4
	l-6.5,1.8l2.6,15.1h-24l0.9-7.9c0,0,5.8-5.2,6.7-6"/>
<path class="st1" d="M632,363.1c0.4-1.1-0.4-1.6-0.9-1l-0.9,1.8"/>
<path class="st1" d="M617.4,378.1c3.5,1.2,11.9-8.3,11.9-8.3s2.3,0,2.9-2.7c0.4-1.8,2-1.4,3-0.9c0.3,0.2,0.7-0.1,0.7-0.5l0,0
	c0-1.2-0.8-2.2-1.9-2.4c-1.6-0.3-3.3,0.3-4.4,1.5l1.5-2.6l-2.7,4.3l-7.7,3.3"/>
<path class="st27" d="M638.2,336.3c1.8,3.9,1.9,11.1-5.2,11.4c-6.2,0-6.5-7.5-4.8-11.4"/>
<g>
	<line class="st5" x1="634.2" y1="341.7" x2="634.2" y2="343.4"/>
	<g>
		<path class="st1" d="M633.8,341.8c0,0.6,0,1.1,0,1.7c0,0.2,0.7,0.1,0.7-0.2c0-0.6,0-1.1,0-1.7
			C634.5,341.4,633.8,341.6,633.8,341.8L633.8,341.8z"/>
	</g>
</g>
<g>
	<line class="st5" x1="631.8" y1="342.5" x2="631.8" y2="343"/>
	<g>
		<path class="st1" d="M631.4,342.5c0,0.2,0,0.4,0,0.5c0,0.3,0.7,0.2,0.7-0.1c0-0.2,0-0.4,0-0.5
			C632.1,342.1,631.4,342.3,631.4,342.5L631.4,342.5z"/>
	</g>
</g>
<g>
	<line class="st5" x1="636.6" y1="342.5" x2="636.6" y2="343"/>
	<g>
		<path class="st1" d="M636.3,342.6c0,0.2,0,0.4,0,0.5c0,0.2,0.7,0,0.7-0.2c0-0.2,0-0.4,0-0.5C637,342.2,636.3,342.3,636.3,342.6
			L636.3,342.6z"/>
	</g>
</g>
<g>
	<path class="st5" d="M620.6,369.5c0.4-0.4,1-0.6,1.5-0.8l1.5-0.7l3.1-1.4l0.8-0.3l0.4-0.2c0.1,0,0.1-0.1,0.2-0.1
		c0.1-0.1,0.1-0.1,0.2-0.2l0.2-0.4l0.5-0.7c0.6-0.9,1.2-1.9,1.8-2.8l0,0l0,0c0.2-0.2,0.4-0.3,0.8-0.4c0.3,0,0.7,0.2,0.8,0.4
		c0.3,0.5,0.1,1-0.1,1.3c0,0.1-0.1,0.1-0.2,0.1c-0.1,0-0.1-0.1-0.1-0.2l0,0c0-0.3,0-0.7-0.2-0.8c-0.1-0.1-0.1,0-0.1,0
		c0,0-0.1,0.1-0.2,0.2l0.1-0.1c-0.5,1-1.1,1.9-1.7,2.9l-0.4,0.7l-0.2,0.4c-0.1,0.1-0.2,0.3-0.3,0.4c-0.1,0.1-0.3,0.3-0.5,0.3
		l-0.4,0.2l-0.8,0.3L624,369l-1.5,0.7c-0.5,0.2-1,0.5-1.6,0.5c-0.2,0-0.4-0.1-0.4-0.3C620.5,369.7,620.5,369.6,620.6,369.5z"/>
</g>
<g>
	<path class="st5" d="M629.3,364.5c0-0.4,0.3-0.5,0.5-0.7c0.2-0.2,0.4-0.4,0.7-0.5c0.5-0.3,1-0.6,1.7-0.7c0.6-0.1,1.2,0,1.8,0.2
		c0.6,0.2,1.1,0.5,1.3,1.1c0,0.1,0,0.2-0.1,0.3c0,0-0.1,0-0.1,0l0,0c-0.6-0.1-1-0.2-1.5-0.4c-0.4-0.1-0.9-0.1-1.3-0.1
		c-0.4,0.1-0.9,0.2-1.3,0.5c-0.2,0.1-0.4,0.3-0.6,0.4c-0.2,0.1-0.3,0.4-0.7,0.4l0,0C629.5,365,629.3,364.8,629.3,364.5
		C629.3,364.6,629.3,364.5,629.3,364.5z"/>
</g>
<path class="st28" d="M635.6,364.6c-1.4-1.1-2.9-0.7-4.2,0.3"/>
<g>
	<path class="st5" d="M624.4,367.9c-0.1-0.3,0.1-0.4,0.2-0.6l0.3-0.6c0.2-0.4,0.4-0.8,0.5-1.1c0.2-0.4,0.4-0.8,0.6-1.1
		c0.2-0.4,0.4-0.8,0.8-1l0,0c0.1-0.1,0.2,0,0.3,0.1c0,0,0,0,0,0.1c0.1,0.5,0,0.9-0.2,1.3c-0.2,0.4-0.3,0.8-0.5,1.2
		c-0.2,0.4-0.4,0.8-0.6,1.1l-0.3,0.6c-0.1,0.2-0.2,0.4-0.5,0.5C624.7,368.3,624.5,368.2,624.4,367.9L624.4,367.9z"/>
</g>
<path class="st29" d="M635.4,341.7"/>
<g>
	<path class="st5" d="M623.3,403c0.3-0.2,0.6-0.1,0.9-0.2l0.9,0c0.6,0,1.1,0,1.7,0c0.6,0,1.1,0,1.7,0c0.6,0,1.1,0,1.7,0.3
		c0.1,0,0.1,0.2,0.1,0.3c0,0,0,0.1-0.1,0.1c-0.6,0.3-1.1,0.3-1.7,0.3c-0.6,0-1.1,0-1.7,0c-0.6,0-1.1,0-1.7,0l-0.9,0
		c-0.3,0-0.6,0.1-0.9-0.2C623.1,403.5,623.1,403.2,623.3,403C623.3,403,623.3,403,623.3,403z"/>
</g>
<g>
	<path class="st5" d="M623.5,405.6c0.3-0.2,0.6-0.1,0.9-0.2l0.9,0l0.9,0l0.5,0c0.1,0,0.2,0,0.4,0c0.5-0.1,0.9-0.3,1.2-0.7
		c0.3-0.4,0.5-0.8,0.9-1.4c0.1-0.1,0.2-0.1,0.3-0.1c0,0,0.1,0.1,0.1,0.1l0,0c0.2,0.6,0.1,1.4-0.4,2c-0.4,0.6-1.1,1-1.9,1.1
		c-0.2,0-0.4,0-0.5,0l-0.5,0l-0.9,0l-0.9,0c-0.3,0-0.6,0.1-0.9-0.2C623.3,406.1,623.3,405.8,623.5,405.6
		C623.5,405.6,623.5,405.6,623.5,405.6z"/>
</g>
<g>
	<path class="st5" d="M641.9,399.7c0.1-0.2,0.3-0.2,0.4-0.2l0.5,0c0.3,0,0.6,0,0.9,0c0.3,0,0.6,0.1,0.9,0.1c0.3,0.1,0.6,0.1,0.8,0.5
		c0.1,0.1,0,0.2-0.1,0.3l0,0c-0.3,0.2-0.6,0.2-0.9,0.2c-0.3,0-0.6,0-0.8,0c-0.3,0-0.6-0.1-0.8-0.1l-0.4,0c-0.1,0-0.3,0.1-0.4-0.2
		l0,0C641.8,400.2,641.8,399.9,641.9,399.7z"/>
</g>
<path class="st4" d="M630.5,332.6c0.2,2.4-1.9,13.8-1.9,13.8c-2.4-0.2-5.3-6.8-2.7-11.9C627.5,331.2,630.5,332.6,630.5,332.6z"/>
<path class="st4" d="M628.4,334.3c0,0,3,4.4,4.3,4.7c1.9,0.4,7.8-0.2,7.8-0.2s-0.9-6.6-6-7.3s-5.8,2.7-5.8,2.7"/>
<g>
	<path class="st5" d="M632.1,339.9c-0.1,0-0.2,0-0.4,0c-0.1,0-0.3,0-0.5,0c-0.3,0-0.7,0.1-1,0.2l-0.1,0c-0.2,0.1-0.4,0-0.4-0.2
		c0-0.1,0-0.2,0.1-0.3c0.3-0.5,0.8-0.6,1.3-0.7c0.2,0,0.5,0,0.8,0c0.3,0.1,0.6,0.2,0.7,0.5c0.1,0.2,0,0.3-0.1,0.4
		c-0.1,0-0.1,0-0.2,0L632.1,339.9z"/>
</g>
<g>
	<path class="st5" d="M635.8,339.5c0.2-0.3,0.5-0.4,0.7-0.5c0.3,0,0.5-0.1,0.8,0c0.5,0.1,0.9,0.3,1.3,0.7c0.1,0.1,0.1,0.4-0.1,0.5
		c-0.1,0.1-0.2,0.1-0.3,0.1l-0.1,0c-0.3-0.1-0.6-0.2-1-0.2c-0.2,0-0.3,0-0.5,0c-0.1,0-0.2,0-0.4,0l-0.2,0c-0.2,0-0.3-0.1-0.3-0.3
		C635.8,339.6,635.8,339.6,635.8,339.5z"/>
</g>
<g>
	<path class="st5" d="M633.2,344.9c0.4,0.5,1.5,0.6,1.9,0"/>
	<g>
		<path class="st1" d="M632.9,345.1c0.6,0.7,2,0.6,2.6-0.2c0.2-0.2-0.5-0.1-0.7,0c-0.3,0.4-0.9,0.3-1.2-0.1
			C633.4,344.6,632.7,344.9,632.9,345.1L632.9,345.1z"/>
	</g>
</g>
<path class="st30" d="M629.6,335.1c0,0-0.3,2.1,2,4.1"/>
<path class="st2" d="M631.2,435.9c0,0.4-0.3,0.6-0.7,0.6c-9.1,0-11.4,1.1-12-0.6c-0.4-1.4,9.1-2.8,12.2-3.2c0.5-0.1,0.9,0.3,0.8,0.8
	L631.2,435.9z"/>
<path class="st2" d="M638.1,435.9c0,0.4,0.3,0.6,0.7,0.6c9.1,0,11.4,1.1,12-0.6c0.4-1.4-9.1-2.8-12.2-3.2c-0.5-0.1-0.9,0.3-0.8,0.8
	L638.1,435.9z"/>
<path class="st22" d="M666.6,393.6c-2.1,2.8-0.7,9.1,0.7,9.1c1.9,0-0.6-3.5-0.2-4.8c0.4-1.3,0.7-1.6,1-1.5s-0.1,3.9,0.9,3.8l0.4-6.7
	L666.6,393.6z"/>
<g>
	<path class="st5" d="M668.2,395.7c-0.2,1-0.3,2-0.3,3c0,1,0.2,2,0.2,3.1c0,0.1-0.1,0.2-0.2,0.2c-0.1,0-0.1,0-0.1-0.1
		c-0.7-0.9-0.9-2.1-0.9-3.2c0-1.1,0.2-2.3,0.7-3.3c0.1-0.2,0.3-0.2,0.5-0.1C668.1,395.4,668.2,395.6,668.2,395.7L668.2,395.7z"/>
</g>
<rect x="676.8" y="353.9" transform="matrix(-1 -4.493573e-11 4.493573e-11 -1 1360.0223 714.1536)" class="st22" width="6.4" height="6.3"/>
<path class="st1" d="M683.2,356.9l-0.2,0.2c-0.6,0.7-3.2,2.7-3.2,2.7s-2.3-2-3-2.9l0,0l-1.6,1.3l2.7,14.2l8.1-10.5l-1.1-4.3
	L683.2,356.9z"/>
<path class="st31" d="M695.6,384.6"/>
<g>
	<path class="st5" d="M693.5,404.3l1.4,0c0.5,0,0.9,0,1.3-0.1c0.8-0.3,1.4-0.9,1.5-1.7c0-0.2,0-0.4,0-0.6l0-0.7
		c0-0.4-0.1-0.8-0.3-1.1c-0.4-0.7-1.2-1.1-1.9-1.1l-1.4,0c-0.5,0-0.9,0-1.3,0.1c-0.8,0.2-1.4,0.9-1.6,1.7c-0.1,0.4-0.1,0.9-0.1,1.3
		c0,0.4,0.1,0.8,0.3,1.2c0.4,0.8,1.2,1.3,2.1,1.3V404.3z M693.5,404.8c-1,0.1-2.1-0.5-2.6-1.4c-0.3-0.4-0.4-1-0.5-1.5
		c0-0.5-0.1-0.9,0-1.5c0.2-1.1,1-2,2.1-2.4c0.3-0.1,0.5-0.1,0.8-0.2c0.3,0,0.5,0,0.7,0l1.4,0c1.1,0,2.2,0.6,2.8,1.6
		c0.3,0.5,0.4,1,0.4,1.6l0,0.7c0,0.2,0,0.5-0.1,0.8c-0.2,1.1-1.1,2-2.2,2.3c-0.5,0.2-1.1,0.1-1.5,0.1l-1.4,0V404.8z"/>
</g>
<path class="st22" d="M691.9,392.3c0.2,2.4-2.2,5.8-1.1,6.5c0.8,0.4,2.1-2.5,2.1-2.5c0.7-0.1,0.6,2.1,0.2,3
	c-0.4,0.9,0.7,1.2,1.8,0.6c1.1-0.6,2.6-3.4,0.2-7.8"/>
<path class="st22" d="M686.5,344.5c0.2,7.1-4.3,11.4-6.5,11.4c-2.3,0-7-5.1-6.5-11.4c0.2-2.8,2.1-4.8,6.8-4.4
	C685,340.6,686.5,341.1,686.5,344.5z"/>
<g>
	<path class="st5" d="M674.1,345.6c0.3,1.1,0.2,2.2,0.5,3.2c0.2,1,0.6,2,1.1,2.9c0.5,0.9,1.2,1.7,2.1,2.2c0.8,0.5,1.8,0.9,2.8,0.7
		c0.9-0.1,1.9-0.6,2.6-1.3c0.7-0.7,1.3-1.6,1.8-2.5c0.9-1.9,1.2-4.1,1.5-6.2c0-0.1,0.1-0.2,0.2-0.1c0.1,0,0.1,0.1,0.1,0.1
		c0.3,2.2,0,4.6-0.9,6.7c-0.5,1.1-1.1,2-2,2.9c-0.8,0.8-1.9,1.5-3.2,1.7c-1.3,0.2-2.5-0.2-3.5-0.9c-1-0.7-1.8-1.6-2.4-2.6
		c-0.6-1-0.9-2.1-1.2-3.3c-0.2-1.1-0.4-2.3-0.2-3.4c0-0.2,0.2-0.3,0.4-0.3C673.9,345.3,674,345.4,674.1,345.6L674.1,345.6z"/>
</g>
<path class="st2" d="M678.9,339.8c-4,0-6.7,2-5.9,3.5c0.8,1.4,7.9-0.9,9.5,0.8c1,1.1,1,3.4,0.9,4.9c-0.1,0.9,0.4,1.7,1.2,2l0.9,0.5
	C687.8,346.1,689.3,339.8,678.9,339.8z"/>
<g>
	<path class="st5" d="M679.1,347.9l0.1,2.9c0,0.3-0.2,0.5-0.5,0.5c-0.3,0-0.5-0.2-0.5-0.5c0,0,0,0,0,0l0.1-2.9
		c0-0.2,0.2-0.4,0.4-0.4C679,347.5,679.1,347.7,679.1,347.9z"/>
</g>
<line class="st28" x1="675.9" y1="347.9" x2="675.9" y2="348.4"/>
<line class="st28" x1="681" y1="347.9" x2="681" y2="348.4"/>
<g>
	<path class="st5" d="M676.9,346.3c-0.1,0-0.2,0-0.4,0c-0.1,0-0.3,0-0.5,0c-0.3,0-0.7,0.1-1,0.2l-0.1,0c-0.2,0.1-0.4,0-0.4-0.2
		c0-0.1,0-0.2,0.1-0.3c0.3-0.5,0.8-0.6,1.3-0.7c0.2,0,0.5,0,0.8,0c0.3,0.1,0.6,0.2,0.7,0.5c0.1,0.2,0,0.3-0.1,0.4
		c-0.1,0-0.1,0-0.2,0L676.9,346.3z"/>
</g>
<g>
	<path class="st5" d="M680.2,345.9c0.2-0.3,0.5-0.4,0.7-0.5c0.3,0,0.5-0.1,0.8,0c0.5,0.1,0.9,0.3,1.3,0.7c0.1,0.1,0.1,0.4-0.1,0.5
		c-0.1,0.1-0.2,0.1-0.3,0.1l-0.1,0c-0.3-0.1-0.6-0.2-1-0.2c-0.2,0-0.3,0-0.5,0c-0.1,0-0.2,0-0.4,0l-0.2,0c-0.2,0-0.3-0.1-0.3-0.3
		C680.1,346,680.1,346,680.2,345.9z"/>
</g>
<g>
	<path class="st5" d="M678.3,352.3c0.2,0.1,0.4,0.1,0.7,0.1c0.3,0,0.4,0,0.7-0.1l0.1-0.1c0.2-0.1,0.4,0,0.4,0.2c0,0.1,0,0.2,0,0.2
		c-0.1,0.3-0.3,0.5-0.5,0.6c-0.2,0.1-0.5,0.2-0.7,0.2c-0.5,0-1-0.2-1.2-0.7c-0.1-0.2,0-0.4,0.2-0.4c0.1,0,0.1,0,0.2,0L678.3,352.3z"
		/>
</g>
<g>
	<path class="st32" d="M677.1,349.6h-1.8c-0.4,0-0.8-0.4-0.9-1l-0.1-1.1c0-0.3,0.2-0.5,0.4-0.5h2.9c0.2,0,0.4,0.2,0.4,0.5l-0.1,1.1
		C677.9,349.2,677.6,349.6,677.1,349.6z"/>
	<path class="st32" d="M682.3,349.6h-1.8c-0.4,0-0.8-0.4-0.9-1l-0.1-1.1c0-0.3,0.2-0.5,0.4-0.5h2.9c0.2,0,0.4,0.2,0.4,0.5l-0.1,1.1
		C683.1,349.2,682.8,349.6,682.3,349.6z"/>
	<line class="st32" x1="678.1" y1="347.6" x2="679.6" y2="347.6"/>
</g>
<path class="st0" d="M685,358.4c7.9-0.4,9,2.2,13.1,20.9c0.1,0.3,0.1,0.6,0.1,0.8c0.1,5.9-0.1,9.4-0.3,11.3c-0.1,1-1,1.7-2,1.7h-5.4
	l0.8-12.8l-1-4.3l-1.3,15.1h-19v2.5h-3.4c-1,0-1.8-0.8-1.8-1.8c0.2-6.6,0.4-27.5,2.9-31.5c1.6-2.4,7.6-1.4,7.6-1.4l4.1,7.9
	L685,358.4z"/>
<polygon class="st9" points="688.9,358.6 679.5,375.8 670.9,358.8 675.3,358.2 679.5,366.8 685,357.7 "/>
<g>
	<path class="st9" d="M679.4,381.5c-0.2-0.9-0.3-1.7-0.4-2.6c-0.1-0.9-0.2-1.7-0.3-2.6c-0.1-0.9-0.3-1.7-0.2-2.6
		c0.1-0.9,0.3-1.7,0.9-2.6h0.2c0.6,0.9,0.8,1.7,0.9,2.6c0.1,0.9-0.1,1.7-0.2,2.6c-0.1,0.9-0.2,1.7-0.3,2.6c-0.1,0.9-0.2,1.7-0.4,2.6
		H679.4z"/>
</g>
<g>
	<path class="st5" d="M688.4,371.4c0.4,0.3,0.5,0.7,0.8,1.1c0.2,0.4,0.4,0.8,0.6,1.2c0.3,0.8,0.7,1.6,0.9,2.5
		c0.3,0.8,0.5,1.7,0.7,2.5c0.2,0.9,0.3,1.7,0.1,2.6c0,0.1-0.1,0.2-0.2,0.1c-0.1,0-0.1,0-0.1-0.1l0,0c-0.4-0.8-0.6-1.6-0.8-2.4
		c-0.2-0.8-0.5-1.6-0.7-2.4c-0.3-0.8-0.5-1.6-0.9-2.4c-0.2-0.4-0.3-0.8-0.5-1.2c-0.2-0.4-0.4-0.7-0.4-1.2l0,0c0-0.2,0.2-0.4,0.4-0.4
		C688.3,371.4,688.3,371.4,688.4,371.4z"/>
</g>
<g>
	<path class="st5" d="M670.2,379.9c0.1,0.3-0.1,0.3-0.1,0.4c-0.1,0.1-0.2,0.2-0.2,0.3c-0.1,0.2-0.3,0.5-0.4,0.7l-0.4,0.8l-0.2,0.4
		l-0.1,0.2c0,0.1-0.1,0.1-0.4,0.1l0,0c-0.1,0-0.2-0.1-0.3-0.1c-0.2-0.2-0.3-0.3-0.2-0.3l0.1-0.2l0.2-0.4c0.1-0.3,0.3-0.6,0.4-0.8
		c0.2-0.3,0.3-0.5,0.5-0.8c0.1-0.1,0.2-0.3,0.3-0.4c0.1-0.1,0.2-0.3,0.5-0.3c0.2,0,0.4,0.2,0.4,0.4L670.2,379.9z"/>
</g>
<g>
	<path class="st5" d="M692.4,393.2c0.1,0.3,0,0.6-0.1,0.8c0,0.1-0.1,0.3-0.2,0.4c-0.1,0.1-0.2,0.2-0.3,0.3c-0.1,0.1-0.2,0-0.3-0.1
		c0,0,0,0,0,0c-0.1-0.2-0.1-0.3-0.1-0.5c0-0.1,0-0.3,0-0.4c0.1-0.3,0.2-0.5,0.4-0.7c0.2-0.1,0.4-0.1,0.5,0
		C692.4,393.1,692.4,393.2,692.4,393.2z"/>
</g>
<g>
	<path class="st5" d="M693.6,396.5c0.2,0.3,0.3,0.6,0.4,0.9c0.1,0.3,0,0.6,0,0.9c-0.1,0.3-0.2,0.6-0.3,0.9c-0.2,0.3-0.5,0.6-0.9,0.6
		c-0.1,0-0.2-0.1-0.2-0.2c0,0,0-0.1,0-0.1l0,0c0.1-0.2,0.2-0.4,0.2-0.6c0-0.2,0.1-0.4,0.1-0.7c0-0.5,0-0.9,0-1.4l0,0
		c0-0.2,0.1-0.3,0.3-0.3C693.4,396.4,693.5,396.4,693.6,396.5z"/>
</g>
<g>
	<path class="st5" d="M689.1,391.1c0.5,4.2,0.5,8.5,0.6,12.8c0.1,4.3,0.1,8.5,0.1,12.8c0,8.5-0.1,17-0.3,25.5c0,0.3-0.3,0.6-0.6,0.6
		l-8,0c-0.3,0-0.5-0.2-0.6-0.5l-1.3-21.5l-0.7-10.7c-0.2-3.6-0.6-7.2-0.4-10.8l0,0c0-0.1,0.1-0.2,0.2-0.2c0.1,0,0.1,0.1,0.2,0.1
		c0.8,3.6,0.8,7.1,1.1,10.7l0.7,10.7l1.4,21.5l-0.6-0.5l8,0l-0.6,0.6c0.2-8.5,0.4-17,0.4-25.5c0-4.3,0-8.5,0-12.8
		c0-4.3-0.2-8.5-0.2-12.7c0-0.2,0.1-0.3,0.3-0.3C689,390.8,689.1,390.9,689.1,391.1z"/>
</g>
<g>
	<path class="st5" d="M679.5,414.1c-0.3,4.7-0.7,9.3-0.9,14c-0.3,4.7-0.5,9.4-0.7,14.1c0,0.3-0.2,0.5-0.5,0.5l-7.6,0
		c-0.3,0-0.5-0.2-0.5-0.5c-0.3-4.3-0.6-8.5-0.8-12.8c-0.2-4.3-0.3-8.5-0.3-12.8c0-4.3,0.1-8.5,0.3-12.8c0.2-4.3,0.5-8.5,1-12.8
		l0,0.1c-0.1-3.3-0.1-6.5,0-9.8c0-1.6,0.1-3.3,0.2-4.9c0.1-1.6,0.3-3.3,0.8-4.9c0-0.1,0.1-0.1,0.2-0.1c0.1,0,0.1,0.1,0.1,0.2
		c0,1.6-0.1,3.2-0.1,4.9c-0.1,1.6-0.1,3.2-0.2,4.9c-0.1,3.2,0,6.5,0,9.7c0,0,0,0.1,0,0.1l0,0c-0.5,4.2-0.8,8.4-1,12.7
		c-0.2,4.2-0.3,8.5-0.2,12.8c0,4.3,0.1,8.5,0.3,12.8c0.2,4.3,0.4,8.5,0.7,12.7l-0.5-0.5l7.6,0l-0.5,0.5c0.2-4.7,0.4-9.4,0.7-14.1
		c0.1-2.3,0.3-4.7,0.5-7c0.2-2.3,0.4-4.7,0.8-7c0-0.2,0.2-0.3,0.4-0.3C679.4,413.8,679.5,413.9,679.5,414.1z"/>
</g>
<g>
	<path class="st2" d="M686.4,442.3c2.9,0.5,7.3,2.2,7.2,3c0,0.3-0.1,0.5-0.1,0.5c-4.6,0-5.2-0.6-10.6-1.5"/>
	
		<rect x="682.1" y="442.3" transform="matrix(-1 -4.490553e-11 4.490553e-11 -1 1368.5127 888.2127)" class="st2" width="4.3" height="3.6"/>
</g>
<g>
	<path class="st2" d="M672.2,442.3c-2.9,0.5-7.3,2.2-7.2,3c0,0.3,0.1,0.5,0.1,0.5c4.6,0,5.2-0.6,10.6-1.5"/>
	<rect x="672.2" y="442.3" class="st2" width="4.3" height="3.6"/>
</g>
<g>
	<path class="st0" d="M669.3,417.3c0.8,0.6,1.5,1.3,2.1,2.1c0.5,0.8,1,1.7,1,2.8c0,0.1-0.1,0.2-0.2,0.2c-0.1,0-0.1,0-0.1-0.1l0,0
		c-0.6-0.7-1.1-1.5-1.6-2.3c-0.5-0.8-1-1.5-1.6-2.2l0,0c-0.1-0.1-0.1-0.4,0-0.5C669,417.2,669.2,417.2,669.3,417.3z"/>
</g>
<path class="st4" d="M685.8,416.6l16.9,0c1.3,0,2.3-1,2.3-2.2v-11.8c0-1.2-1-2.2-2.3-2.2l-16.9,0c-1.3,0-2.3,1-2.3,2.2v11.8
	C683.5,415.6,684.5,416.6,685.8,416.6z"/>
<g>
	<path class="st5" d="M636.5,347.4l-0.1,1.5c0,0.7,0.5,1.3,1.2,1.5c0.9,0.2,2.2,0.7,4.1,1.9"/>
	<g>
		<path class="st1" d="M636.1,347.5c-0.1,1-0.4,2.2,0.7,2.9c0.5,0.3,1.3,0.4,1.8,0.7c0.9,0.4,1.8,0.9,2.7,1.4
			c0.2,0.1,0.8-0.2,0.7-0.2c-1.3-0.8-2.6-1.4-4.1-1.9c-1.5-0.5-1.2-1.8-1.1-3C636.9,347.2,636.1,347.3,636.1,347.5L636.1,347.5z"/>
	</g>
</g>
<path class="st9" d="M459.8,89.8c0-8.8-7.2-16-16-16s-16,7.2-16,16c0,3.2,0.9,6.1,2.5,8.6h0c5.4,8.4,13.5,21.1,13.5,21.1
	s8.1-12.7,13.5-21.1h0C458.9,95.9,459.8,93,459.8,89.8z M443.8,96.7c-3.8,0-6.9-3.1-6.9-6.9s3.1-6.9,6.9-6.9c3.8,0,6.9,3.1,6.9,6.9
	S447.6,96.7,443.8,96.7z"/>
<path class="st2" d="M682.3,191.4c0-4.7-3.8-8.5-8.5-8.5c-4.7,0-8.5,3.8-8.5,8.5c0,1.7,0.5,3.2,1.3,4.6h0c2.9,4.5,7.1,11.2,7.1,11.2
	s4.3-6.7,7.1-11.2h0C681.8,194.6,682.3,193.1,682.3,191.4z M673.9,195c-2,0-3.6-1.6-3.6-3.6s1.6-3.6,3.6-3.6c2,0,3.6,1.6,3.6,3.6
	S675.9,195,673.9,195z"/>
<g id="Layer_1_1_">
</g>
<g id="Layer_1_2_">
</g>
<path class="st33" d="M100.4,308.9h18.7c14.7,6.5,30.3,11.9,30.3,11.9s-4.4-4.2-6.8-11.9h7.9c6.6,0,12-5.4,12-12v-22.1
	c0-6.6-5.4-12-12-12h-50.1c-6.6,0-12,5.4-12,12v22.1C88.3,303.5,93.7,308.9,100.4,308.9z"/>
<g>
	<path class="st1" d="M752.6,343.3h-29.5c0,0-5.6,9.1-17.4,11.4l4.5-11.4h-0.4c-7.5,0-13.6-6.1-13.6-13.6v-20.1
		c0-7.5,6.1-13.6,13.6-13.6h42.8c7.5,0,13.6,6.1,13.6,13.6v20.1C766.2,337.2,760.1,343.3,752.6,343.3z"/>
	<path class="st34" d="M752.6,343.5c-4.9,0-9.8,0.1-14.8,0.2l-7.4,0.2c-2.5,0-4.9,0.1-7.4,0.1l0.6-0.3c-1,1.6-2.2,2.9-3.5,4.2
		c-1.3,1.3-2.7,2.4-4.3,3.4c-1.5,1-3.1,1.9-4.8,2.5c-1.7,0.7-3.5,1.2-5.2,1.6c-0.4,0.1-0.8-0.2-0.9-0.6c0-0.2,0-0.3,0-0.4l0,0
		l4.5-11.4l0.7,1.1c-3.7,0.1-7.5-1.3-10.2-3.8c-2.7-2.5-4.4-6.2-4.6-9.9c-0.1-7.1-0.1-14.1,0-21.2c0.1-3.7,1.7-7.4,4.4-10
		c2.7-2.6,6.4-4.1,10.2-4l21.1,0l21.1,0c1.8,0,3.7,0.2,5.4,0.9c1.7,0.6,3.4,1.6,4.7,2.9c2.8,2.5,4.5,6.1,4.6,9.8
		c0.1,3.6,0,7.1,0,10.6c0,3.5-0.1,7-0.2,10.6c-0.1,3.7-1.7,7.2-4.4,9.6C759.7,342.1,756.2,343.5,752.6,343.5z M752.6,343.1
		c1.7,0,3.5-0.4,5.1-1c1.6-0.7,3.1-1.7,4.3-2.9c2.4-2.5,3.8-5.9,3.8-9.3c-0.2-7-0.2-14.1-0.3-21.1c-0.2-3.3-1.7-6.5-4.2-8.8
		c-2.5-2.3-5.8-3.4-9.1-3.3l-21.1,0l-21.1,0c-3.3,0-6.6,1.3-8.9,3.6c-2.4,2.3-3.8,5.5-3.9,8.8c0,7-0.1,14.1,0,21
		c0.1,3.3,1.6,6.5,4,8.8c2.4,2.3,5.7,3.5,9.1,3.5c0.4,0,0.8,0.3,0.8,0.8c0,0.1,0,0.2-0.1,0.3l0,0l-4.5,11.4l-0.9-1
		c1.7-0.4,3.4-0.8,5-1.5c1.6-0.6,3.1-1.5,4.6-2.4c1.5-0.9,2.8-2,4.1-3.2c1.3-1.2,2.4-2.5,3.4-3.9l0,0c0.1-0.2,0.3-0.3,0.5-0.3
		c2.5,0,4.9,0.1,7.4,0.1l7.4,0.2C742.7,343,747.7,343.1,752.6,343.1z"/>
</g>
<path class="st33" d="M221.4,304.8c-0.2-0.6-0.9-1.3-1.5-1.5l-5.5-1.9c-0.6-0.2-0.6-0.6,0-0.8l5.5-1.9c0.6-0.2,1.3-0.9,1.5-1.5
	l1.9-5.5c0.2-0.6,0.6-0.6,0.8,0l1.9,5.5c0.2,0.6,0.9,1.3,1.5,1.5l5.5,1.9c0.6,0.2,0.6,0.6,0,0.8l-5.5,1.9c-0.6,0.2-1.3,0.9-1.5,1.5
	l-1.9,5.5c-0.2,0.6-0.6,0.6-0.8,0L221.4,304.8z"/>
<path class="st2" d="M459.9,70.5c-0.2-0.3-0.4-0.6-0.7-0.8c-0.3-0.2-0.6-0.3-0.9-0.4l-2.1-0.6c-0.2-0.1-0.3-0.1-0.6-0.2
	c-0.1-0.1-0.3-0.1-0.4-0.3c-0.1-0.1-0.1-0.3,0-0.4c0-0.1,0.1-0.2,0.2-0.3c0.3-0.2,0.5-0.3,0.6-0.3l0.5-0.2l2.1-0.8
	c0.2-0.1,0.5-0.3,0.7-0.5c0.2-0.2,0.3-0.4,0.4-0.8l0.7-2.1c0.1-0.2,0.1-0.3,0.2-0.6c0.1-0.1,0.1-0.3,0.4-0.4
	c0.1-0.1,0.4-0.1,0.5-0.1c0.2,0.1,0.3,0.1,0.4,0.2c0.3,0.3,0.3,0.5,0.4,0.7l0.2,0.5l0.7,2.1c0.1,0.2,0.3,0.5,0.5,0.7
	c0.2,0.2,0.4,0.3,0.8,0.4l2.1,0.8c0.2,0.1,0.3,0.1,0.6,0.2c0.1,0.1,0.3,0.1,0.4,0.4c0.1,0.1,0.1,0.4,0,0.5c-0.1,0.2-0.1,0.3-0.2,0.3
	c-0.3,0.3-0.5,0.3-0.7,0.3l-0.5,0.2l-2.1,0.7c-0.2,0.1-0.5,0.3-0.7,0.5c-0.2,0.2-0.3,0.4-0.4,0.8l-0.8,2.1c-0.1,0.2-0.1,0.3-0.2,0.6
	c-0.1,0.1-0.1,0.2-0.3,0.4c-0.1,0.1-0.3,0.1-0.4,0c-0.1,0-0.2-0.1-0.3-0.2c-0.2-0.2-0.2-0.5-0.3-0.6l-0.2-0.5L459.9,70.5L459.9,70.5
	z M460.2,70.4l0.8,2.1l0.2,0.5c0.1,0.2,0.1,0.3,0.2,0.4c0,0-0.1-0.1-0.2,0v-0.1c0-0.1,0.1-0.3,0.2-0.5l0.7-2.1
	c0.1-0.3,0.3-0.8,0.6-1.1c0.3-0.3,0.6-0.6,1.1-0.8l2.1-0.8l0.5-0.2c0.2-0.1,0.3-0.1,0.3-0.1l-0.1,0.1v0.3c0.1,0.1,0.1,0.1,0,0
	c-0.1,0-0.3-0.1-0.5-0.2l-2.1-0.7c-0.3-0.1-0.9-0.3-1.2-0.6c-0.3-0.3-0.6-0.6-0.8-1.1l-0.7-2.1l-0.2-0.5c-0.1-0.2-0.1-0.3-0.1-0.3
	l0.1,0.1h0.3c0.1-0.1,0.1-0.1,0.1,0s-0.1,0.3-0.2,0.5l-0.8,2.1c-0.1,0.3-0.3,0.8-0.6,1.1c-0.3,0.3-0.6,0.6-1.1,0.8l-2.1,0.7
	l-0.5,0.2c-0.2,0.1-0.3,0.1-0.4,0.1v-0.3c0-0.1,0,0,0,0c0.1,0,0.3,0.1,0.5,0.2l2.1,0.8C459.2,69.1,459.9,69.7,460.2,70.4L460.2,70.4
	z"/>
<path class="st35" d="M414.1,80.8l-2.5,1.2l1.2-2.5l-1.2-2.5l2.5,1.2l2.5-1.2l-1.2,2.5l1.2,2.5L414.1,80.8z"/>
<path class="st2" d="M414,80.9c-0.8,0.5-1.5,1-2.3,1.4c-0.2,0.1-0.4,0-0.5-0.1s-0.1-0.2,0-0.3v-0.1c0.3-0.9,0.7-1.7,1.1-2.6v0.4
	l-1.2-2.5c-0.1-0.3,0-0.6,0.2-0.7c0.2-0.1,0.3-0.1,0.5,0l2.5,1.2h-0.5l2.5-1.2c0.3-0.1,0.6,0,0.7,0.3c0.1,0.2,0.1,0.3,0,0.5
	c-0.4,0.8-0.8,1.7-1.2,2.5v-0.4c0.4,0.8,0.7,1.7,1.1,2.6c0.1,0.2,0,0.4-0.2,0.5h-0.3C415.6,81.9,414.9,81.4,414,80.9L414,80.9z"/>
<path class="st2" d="M466.6,87.1l-2.5,1.2l1.2-2.5l-1.2-2.5l2.5,1.2l2.5-1.2l-1.2,2.5l1.2,2.5L466.6,87.1z"/>
<path class="st33" d="M237.8,310c-0.3-0.1-0.8-0.1-1.1,0l-2.2,1.1c-0.3,0.1-0.4,0-0.3-0.3l1.1-2.2c0.1-0.3,0.1-0.8,0-1.1l-1.1-2.2
	c-0.1-0.3,0-0.4,0.3-0.3l2.2,1.1c0.3,0.1,0.8,0.1,1.1,0l2.2-1.1c0.3-0.1,0.4,0,0.3,0.3l-1.1,2.2c-0.1,0.3-0.1,0.8,0,1.1l1.1,2.2
	c0.1,0.3,0,0.4-0.3,0.3L237.8,310z"/>
<g>
	<circle class="st2" cx="443.8" cy="173.9" r="2.7"/>
	<circle class="st33" cx="443.8" cy="162.3" r="2.7"/>
	<circle class="st2" cx="443.8" cy="150.1" r="2.7"/>
	<circle class="st2" cx="443.8" cy="137.8" r="2.7"/>
</g>
<circle class="st2" cx="345" cy="215.5" r="1.5"/>
<circle class="st2" cx="345" cy="208.6" r="1.5"/>
<g>
	<circle class="st1" cx="113.5" cy="286.3" r="2.7"/>
	<circle class="st1" cx="125" cy="286.3" r="2.7"/>
	<circle class="st1" cx="137.3" cy="286.3" r="2.7"/>
</g>
<path class="st36" d="M210.7,347.8l-3.1-8.9c-0.2-0.5,0.1-1,0.6-1.2l4.3-1.5c0.5-0.2,1,0.1,1.2,0.6l3.1,8.9c0.2,0.5-0.1,1-0.6,1.2
	l-4.3,1.5C211.5,348.6,210.9,348.3,210.7,347.8z"/>
<g>
	
		<rect x="209.7" y="337.9" transform="matrix(0.9434 -0.3317 0.3317 0.9434 -101.4436 89.7293)" class="st1" width="4.8" height="8.2"/>
</g>
<g>
	
		<rect x="208.5" y="338.1" transform="matrix(0.9434 -0.3317 0.3317 0.9434 -100.3968 89.1476)" class="st37" width="4.8" height="1.1"/>
</g>
<path class="st26" d="M213.7,347.9c0,0-0.8-2-1.2-1.7c-0.7,0.7,0.1,3.4,0.1,3.4"/>
<path class="st38" d="M612.8,351.1h-12.2v-1h11.2C612.3,350,612.8,350.5,612.8,351.1L612.8,351.1z"/>
<g>
	<path class="st1" d="M604.9,351.1h-16.8l-1.5-10.8c-0.1-1,0.6-1.9,1.6-1.9h13.5c0.8,0,1.5,0.6,1.6,1.4L604.9,351.1z"/>
	<path class="st34" d="M605.1,351.3c-1.3,0.1-2.6,0.2-4,0.2l-4.3,0.1l-8.6,0.1c-0.3,0-0.5-0.2-0.5-0.5l0,0l-1.4-10.1l-0.1-0.6
		c0-0.3,0-0.6,0-0.8c0.1-0.6,0.5-1,1-1.3c0.2-0.1,0.5-0.3,0.8-0.3c0.1,0,0.3,0,0.4,0l0.3,0l1.3,0l5.1,0l5.1,0l1.3,0
		c0.2,0,0.4,0,0.7,0c0.3,0,0.5,0.1,0.8,0.3c0.5,0.3,0.8,0.8,0.9,1.3c0.1,0.5,0.1,0.9,0.2,1.4c0.4,3.5,0.8,7,1,10.3L605.1,351.3z
		 M604.8,350.9c-0.7-3.5-1.3-6.7-1.7-9.9l-0.2-1.2c-0.1-0.3-0.3-0.5-0.5-0.7c-0.1-0.1-0.3-0.1-0.4-0.2c-0.1,0-0.3,0-0.6,0l-1.3,0
		l-5.1,0l-5.1,0l-1.3,0c-0.2,0-0.4,0-0.5,0c-0.1,0-0.3,0.1-0.4,0.1c-0.2,0.1-0.4,0.4-0.5,0.7c0,0.1,0,0.3,0,0.4l0.1,0.6l1.4,10.1
		l-0.5-0.5l8.2,0.1l4.1,0.1c1.4,0,2.8,0.1,4.3,0.2L604.8,350.9z"/>
</g>
<circle class="st2" cx="609.7" cy="333.6" r="2.7"/>
<circle class="st2" cx="609.7" cy="322.1" r="2.7"/>
<circle class="st33" cx="609.7" cy="309.8" r="2.7"/>
<g>
	<circle class="st1" cx="609.7" cy="286" r="15.1"/>
	<path class="st34" d="M625.4,286c0.1,2-0.2,4.1-1,6.1c-0.8,1.9-2,3.7-3.4,5.2c-2.9,3-7.1,4.7-11.2,4.7c-4.2,0-8.3-1.7-11.3-4.6
		c-1.5-1.5-2.7-3.2-3.5-5.2c-0.8-1.9-1.2-4-1.2-6.1c0-4.2,1.7-8.3,4.7-11.3c2.9-3,7.1-4.7,11.3-4.6c2.1,0,4.2,0.4,6.1,1.2
		c1.9,0.8,3.6,2,5.1,3.5c2.9,3,4.5,7.1,4.2,11.2H625.4z M624.6,286c-0.2-3.9-1.9-7.6-4.7-10.2c-2.7-2.6-6.5-4.1-10.2-4.1
		c-3.8,0-7.5,1.6-10.1,4.2c-2.7,2.7-4.2,6.4-4.2,10.1c0,3.8,1.5,7.5,4.2,10.1c2.6,2.7,6.3,4.2,10.1,4.2c3.8,0,7.5-1.5,10.2-4.2
		c1.3-1.3,2.4-2.9,3.1-4.7c0.7-1.7,1.2-3.6,1.3-5.5H624.6z"/>
</g>
<path class="st4" d="M609.8,279.2L609.8,279.2C609.8,279.2,609.7,279.2,609.8,279.2L609.8,279.2c-5.8,0-9,4.5-9.4,4.8l1.5,1.5
	c7.8-8.9,15.4-0.4,15.7,0l1.5-1.5C618.7,283.8,615.8,279.1,609.8,279.2z"/>
<path class="st4" d="M609.7,283.4c-2.8,0-5.3,1.5-6.6,3.5c0.5,0.4,0.8,0.9,1.3,1.3c0.1-0.2,5.3-6.1,10.6,0c0.5-0.5,0.8-0.9,1.3-1.3
	C615,284.9,612.5,283.4,609.7,283.4z"/>
<path class="st4" d="M609.7,287.3C609.7,287.3,609.7,287.3,609.7,287.3C609.7,287.3,609.7,287.3,609.7,287.3L609.7,287.3
	c-1.7,0-3.2,0.9-4,2.1c0.4,0.4,1.3,1.3,1.3,1.3c0.5-1,1.7-1.5,2.5-1.4c0,0,1.9,0,2.7,1.4c0,0,0.9-0.9,1.3-1.3
	C612.4,287.3,609.7,287.3,609.7,287.3z"/>
<path class="st4" d="M608.3,292l1.4,1.1l1.3-1.2C611,291.9,609.5,290.8,608.3,292z"/>
<path class="st2" d="M345,179.4L345,179.4C345,179.4,345,179.4,345,179.4L345,179.4c-8.6,0-13.2,6.6-13.8,7.1l2.2,2.3
	c11.5-13,22.6-0.6,23,0l2.2-2.3C358.1,186,353.8,179.1,345,179.4z"/>
<path class="st2" d="M345,185.4c-4.1,0-7.7,2.2-9.7,5.1c0.7,0.6,1.2,1.3,1.9,1.9c0.2-0.3,7.7-9,15.5,0c0.7-0.7,1.2-1.3,1.9-1.9
	C352.7,187.7,349.1,185.4,345,185.4z"/>
<path class="st2" d="M345,191.2C345,191.2,345,191.2,345,191.2C345,191.2,345,191.2,345,191.2L345,191.2c-2.4,0.1-4.7,1.2-5.8,3.1
	c0.6,0.6,1.9,1.9,1.9,1.9c0.7-1.5,2.4-2.2,3.7-2.1c0,0,2.8,0.1,4,2.1c0,0,1.4-1.3,1.9-1.9C348.9,191.2,345,191.2,345,191.2z"/>
<path class="st2" d="M342.9,198.1l2.1,1.6l1.9-1.8C346.9,197.9,344.6,196.3,342.9,198.1z"/>
<circle class="st2" cx="673.9" cy="219.5" r="1.5"/>
<circle class="st2" cx="673.9" cy="212.6" r="1.5"/>
<g>
	<g>
		<path class="st39" d="M569.1,321.7c-0.9-0.7-1.6-1.5-2.3-2.3c-0.7-0.8-1.4-1.7-2-2.6c0,0,0-0.1,0-0.1c0,0,0.1,0,0.1,0
			c0.9,0.7,1.6,1.6,2.3,2.4C567.8,319.9,568.6,320.7,569.1,321.7C569.2,321.7,569.1,321.7,569.1,321.7
			C569.1,321.7,569.1,321.7,569.1,321.7z"/>
	</g>
	<g>
		<path class="st39" d="M569.8,321.5c-0.9-0.7-1.6-1.6-2.3-2.4c-0.7-0.9-1.4-1.7-2-2.7c0,0,0-0.1,0-0.1c0,0,0.1,0,0.1,0
			c0.8,0.7,1.5,1.6,2.2,2.4C568.6,319.6,569.4,320.4,569.8,321.5C569.9,321.4,569.9,321.5,569.8,321.5
			C569.8,321.5,569.8,321.5,569.8,321.5z"/>
	</g>
	<g>
		<path class="st1" d="M570.5,327.8v0.5c0,0.3,0.4,0.5,0.9,0.5h3.7"/>
		<path class="st34" d="M570.5,327.8l0.1,0.3c0,0.1,0,0.2,0.1,0.3c0.1,0.1,0.3,0.2,0.5,0.2c0.4,0,0.9,0,1.3,0c0.9,0,1.8,0,2.7,0.2
			c0.1,0,0.1,0.1,0.1,0.1c0,0,0,0.1-0.1,0.1c-0.9,0.2-1.8,0.2-2.7,0.2c-0.5,0-0.9,0-1.4-0.1c-0.2-0.1-0.5-0.2-0.7-0.5
			c-0.1-0.2,0-0.3,0-0.4l0.1-0.3C570.4,327.8,570.5,327.7,570.5,327.8C570.5,327.7,570.5,327.8,570.5,327.8z"/>
	</g>
	<g>
		<path class="st1" d="M567,321.7c2.5-3.2,6-0.2,9.7-0.8"/>
		<path class="st34" d="M567,321.6c0.4-0.8,1.2-1.4,2.1-1.6c0.9-0.2,1.8-0.1,2.7,0c1.7,0.3,3.3,0.8,5,0.8c0.1,0,0.1,0,0.1,0.1
			c0,0,0,0.1-0.1,0.1c-0.9,0.2-1.8,0.2-2.6,0.1c-0.9-0.1-1.7-0.3-2.5-0.5c-0.8-0.2-1.7-0.3-2.4-0.1
			C568.4,320.7,567.7,321.1,567,321.6C567,321.7,567,321.7,567,321.6C566.9,321.7,566.9,321.7,567,321.6z"/>
	</g>
	<g>
		<path class="st1" d="M577.8,320.7c-0.2-1.1-2.5-1.9-4.9-0.9"/>
		<path class="st34" d="M577.7,320.7c-0.2-0.4-0.6-0.6-1-0.8c-0.4-0.2-0.8-0.3-1.2-0.3c-0.9-0.1-1.7,0.1-2.6,0.2
			c-0.1,0-0.1,0-0.1-0.1c0,0,0-0.1,0-0.1c0.8-0.5,1.8-0.7,2.7-0.6c0.5,0.1,1,0.2,1.4,0.4C577.4,319.7,577.8,320.2,577.7,320.7
			C577.8,320.7,577.8,320.7,577.7,320.7C577.7,320.7,577.7,320.7,577.7,320.7L577.7,320.7z"/>
	</g>
	<g>
		<path class="st1" d="M579.4,321.7v1c0,2.8-2.7,5.1-6.1,5.1h-0.5c-3.3,0-6.1-2.3-6.1-5.1v-1h11"/>
		<path class="st34" d="M579.4,321.7c0,0.8,0.1,1.7-0.2,2.5c-0.3,0.8-0.8,1.6-1.4,2.1c-1.3,1.2-3.1,1.7-4.8,1.7
			c-1.7,0-3.5-0.5-4.8-1.6c-0.7-0.6-1.2-1.3-1.5-2.1c-0.3-0.8-0.3-1.8-0.3-2.6c0-0.1,0.1-0.3,0.3-0.3c1.8,0,3.7,0,5.5,0.1
			c1.8,0,3.7,0,5.5,0.1c0.1,0,0.1,0,0.1,0.1c0,0.1,0,0.1-0.1,0.1c-1.8,0.1-3.7,0.1-5.5,0.1c-1.8,0-3.7,0-5.5,0.1l0.3-0.3
			c0,0.8,0,1.6,0.3,2.4c0.3,0.7,0.8,1.4,1.3,1.9c1.2,1.1,2.8,1.5,4.4,1.5c1.6,0,3.3-0.4,4.5-1.5c0.6-0.5,1.1-1.2,1.4-1.9
			C579.3,323.3,579.3,322.5,579.4,321.7C579.3,321.6,579.4,321.6,579.4,321.7C579.4,321.6,579.4,321.7,579.4,321.7z"/>
	</g>
</g>
<path class="st33" d="M630.7,365.1l1.6-9.3c0.1-0.5,0.6-0.9,1.1-0.8l4.5,0.8c0.5,0.1,0.9,0.6,0.8,1.1l-1.6,9.3
	c-0.1,0.5-0.6,0.9-1.1,0.8l-4.5-0.8C631,366.1,630.7,365.6,630.7,365.1z"/>
<path class="st1" d="M649.1,367.2l0.2,0.9l0.5,7l-0.7,3.1l-2.6,1.1l-2.2-1.1l-2.3-3.1l-2.1-3.5l-1.9-4.1l-1.1-0.5l-0.7-3l-0.4-1.1
	c0,0-0.1-0.5-1.1-0.8l-1.1,0.1c-1.1-0.6-0.4-1.7,0.1-1.8l3.3-0.5l1.6-0.5l1.7,5.6l4,3.6l0-0.3L649.1,367.2z"/>
<g>
	<path class="st5" d="M645.8,370.7c-0.5-0.2-0.9-0.6-1.3-1l-1.2-1.1l-2.5-2.3l-0.6-0.6l-0.3-0.3c-0.1-0.1-0.3-0.3-0.4-0.5
		c-0.1-0.2-0.2-0.4-0.2-0.5l-0.1-0.4l-0.2-0.8c-0.2-1.1-0.5-2.2-0.6-3.3l0,0.1c0-0.1-0.1-0.2-0.1-0.2c0,0,0-0.1-0.1,0
		c-0.2,0.1-0.3,0.4-0.4,0.7l0,0c0,0.1-0.1,0.1-0.2,0.1c-0.1,0-0.1-0.1-0.1-0.1c-0.1-0.4-0.1-0.9,0.3-1.3c0.2-0.2,0.6-0.3,0.9-0.1
		c0.3,0.1,0.5,0.4,0.6,0.6l0,0l0,0.1c0.3,1.1,0.5,2.2,0.8,3.3l0.2,0.8l0.1,0.4c0,0.1,0,0.2,0.1,0.3c0,0.1,0.1,0.1,0.1,0.2l0.3,0.3
		l0.6,0.6l2.4,2.3l1.2,1.2c0.4,0.4,0.8,0.7,1.1,1.3c0.1,0.2,0,0.4-0.2,0.5C646,370.7,645.9,370.7,645.8,370.7z"/>
</g>
<g>
	<path class="st5" d="M639.1,362.8c-0.3-0.1-0.4-0.4-0.5-0.6c-0.1-0.2-0.3-0.4-0.4-0.6c-0.3-0.4-0.7-0.6-1-0.9
		c-0.4-0.2-0.8-0.3-1.3-0.4c-0.5,0-0.9,0-1.5-0.1l0,0c-0.1,0-0.2-0.1-0.1-0.2c0,0,0-0.1,0-0.1c0.4-0.4,1-0.6,1.6-0.6
		c0.6,0,1.2,0.1,1.8,0.4c0.6,0.3,1,0.7,1.3,1.2c0.2,0.2,0.3,0.5,0.5,0.7c0.1,0.3,0.3,0.5,0.2,0.8
		C639.7,362.8,639.4,362.9,639.1,362.8C639.2,362.9,639.2,362.9,639.1,362.8L639.1,362.8z"/>
</g>
<path class="st28" d="M633.7,360.6c1.7-0.6,2.9,0.3,3.9,1.7"/>
<g>
	<path class="st5" d="M642.5,367.5c-0.3-0.2-0.2-0.4-0.3-0.6l-0.1-0.6c-0.1-0.4-0.2-0.9-0.2-1.3c-0.1-0.4-0.1-0.9-0.1-1.3
		c0-0.4,0-0.9,0.3-1.3c0.1-0.1,0.2-0.1,0.3-0.1c0,0,0,0,0.1,0l0,0c0.3,0.4,0.4,0.8,0.4,1.2c0.1,0.4,0.1,0.8,0.2,1.3
		c0.1,0.4,0.1,0.8,0.1,1.2l0.1,0.6c0,0.2,0.1,0.4,0,0.6l0,0C643,367.6,642.8,367.7,642.5,367.5z"/>
</g>
<g>
	<path class="st5" d="M649.5,367.1c0.3,1.2,0.4,2.4,0.5,3.6c0.1,1.2,0.2,2.4,0.2,3.7c0,1.2-0.1,2.5-0.7,3.8
		c-0.3,0.6-0.9,1.2-1.6,1.5c-0.3,0.1-0.7,0.2-1,0.2c-0.2,0-0.3,0-0.5,0c-0.2,0-0.4,0-0.6-0.1c-1.4-0.4-2.3-1.5-3.1-2.4
		c-0.8-1-1.4-2-2-3.1c-1.2-2.1-2.2-4.3-3.2-6.6l0.3,0.3c-0.8-0.3-1.4-0.9-1.7-1.6c-0.4-0.7-0.4-1.5-0.3-2.3c0.1-0.7,0.1-1.2-0.3-1.5
		c-0.4-0.3-1.1-0.3-1.8-0.2l0,0c-0.1,0-0.2,0-0.2-0.1c0-0.1,0-0.2,0.1-0.2c0.3-0.1,0.7-0.2,1.1-0.2c0.4,0,0.8,0,1.2,0.2
		c0.4,0.2,0.7,0.6,0.8,1c0.1,0.4,0.1,0.8,0.1,1.1c0,0.6,0,1.2,0.3,1.7c0.3,0.5,0.8,0.9,1.2,1.1l0,0c0.1,0.1,0.2,0.2,0.3,0.3
		c0.9,2.2,2,4.4,3.2,6.4c0.6,1,1.2,2,2,2.9c0.7,0.9,1.6,1.8,2.5,2c0.2,0.1,0.4,0.1,0.7,0c0.3,0,0.5-0.1,0.7-0.2
		c0.5-0.2,0.8-0.5,1-0.9c0.5-0.9,0.6-2.1,0.6-3.3c0-1.2,0-2.4-0.1-3.6c-0.1-1.2-0.2-2.4-0.2-3.6c0-0.2,0.2-0.3,0.3-0.3
		C649.3,366.9,649.4,367,649.5,367.1z"/>
</g>
<g>
	<path class="st4" d="M742.6,319.9c1.3-1.9,1.5-5.9-1.1-8.6c-3.7-3.7-9.9-7.6-9.9-7.6s-0.8,2.2-5,3.3c-6,1.6-4.8,5.7-4.8,5.7
		c-3.1,1.7-4.4,4.9-2,7.1"/>
</g>
<path class="st6" d="M718.3,320.6l3.1,11.5c0.5,2,2.3,3.4,4.4,3.4h11c2,0,3.8-1.4,4.4-3.3l3.2-11.5"/>
<g>
	<path class="st6" d="M719.8,320.7c-0.7-0.6-1.3-1.5-1.6-2.5c-0.3-1-0.2-2.2,0.3-3.2c0.5-1,1.2-1.8,2.1-2.4c0.4-0.3,0.9-0.5,1.3-0.8
		c0.5-0.2,0.9-0.4,1.4-0.6c0.5-0.1,1-0.3,1.4-0.4l1.4-0.3c1-0.1,2-0.2,2.8-0.3c1.8-0.2,3.6-0.5,5.5-0.8l0.2,0.6
		c-1.7,0.8-3.6,1.4-5.5,1.7c-1,0.1-1.9,0.3-2.8,0.4l-1.3,0.3c-0.4,0.1-0.9,0.3-1.3,0.4c-0.4,0.1-0.8,0.3-1.2,0.5
		c-0.4,0.2-0.8,0.4-1.1,0.6c-0.7,0.4-1.3,1-1.7,1.7c-0.8,1.4-0.6,3.2,0.2,4.9L719.8,320.7z"/>
</g>
<g>
	<path class="st5" d="M716.4,319.5c1.2-0.5,2.5-0.3,3.7-0.4l3.7,0c2.5,0,4.9-0.1,7.4-0.1c2.5,0,4.9,0,7.4,0.1c2.5,0,4.9,0.1,7.4,0.7
		v0.7c-2.5,0.6-4.9,0.7-7.4,0.7c-2.5,0.1-4.9,0.1-7.4,0.1c-2.5,0-4.9,0-7.4-0.1l-3.7,0c-1.2-0.1-2.5,0.1-3.7-0.4V319.5z"/>
</g>
<g>
	<path class="st6" d="M741.3,310c0.3,1.2-0.2,2.5-1,3.4c-0.8,0.9-1.8,1.6-2.9,2.1c-1.1,0.5-2.2,0.8-3.3,1c-1.1,0.2-2.2,0.2-3.3,0.1
		l-0.1-0.6c1-0.4,2.1-0.7,3.1-1c1-0.3,2-0.6,2.9-1.1c0.9-0.4,1.8-0.9,2.5-1.6c0.7-0.6,1.3-1.4,1.8-2.3L741.3,310z"/>
</g>
<path class="st33" d="M666.5,327.8c0.2-0.6,0.9-1.3,1.5-1.5l5.5-1.9c0.6-0.2,0.6-0.6,0-0.8l-5.5-1.9c-0.6-0.2-1.3-0.9-1.5-1.5
	l-1.9-5.5c-0.2-0.6-0.6-0.6-0.8,0l-1.9,5.5c-0.2,0.6-0.9,1.3-1.5,1.5l-5.5,1.9c-0.6,0.2-0.6,0.6,0,0.8l5.5,1.9
	c0.6,0.2,1.3,0.9,1.5,1.5l1.9,5.5c0.2,0.6,0.6,0.6,0.8,0L666.5,327.8z"/>
<path class="st33" d="M650.2,332.9c0.3-0.1,0.8-0.1,1.1,0l2.2,1.1c0.3,0.1,0.4,0,0.3-0.3l-1.1-2.2c-0.1-0.3-0.1-0.8,0-1.1l1.1-2.2
	c0.1-0.3,0-0.4-0.3-0.3l-2.2,1.1c-0.3,0.1-0.8,0.1-1.1,0L648,328c-0.3-0.1-0.4,0-0.3,0.3l1.1,2.2c0.1,0.3,0.1,0.8,0,1.1l-1.1,2.2
	c-0.1,0.3,0,0.4,0.3,0.3L650.2,332.9z"/>
<g>
	<path class="st18" d="M328.6,369c-1.5,11.3-2.3,14.5,2.2,21.6c2.2,3.5,6.3,7.8,6.3,7.8"/>
	<path class="st18" d="M336,373.6c0,0,0.1,4.7,0,6.8"/>
	<line class="st18" x1="337.7" y1="382.5" x2="334.1" y2="382"/>
	<line class="st18" x1="339" y1="384" x2="337" y2="384.9"/>
	<line class="st18" x1="342.3" y1="392.3" x2="334.1" y2="402.2"/>
	<line class="st18" x1="339" y1="385.8" x2="342.3" y2="392.3"/>
</g>
<g>
	<path class="st18" d="M328.6,370c-1.5,11.3-2.3,14.5,2.2,21.6c2.2,3.5,6.3,7.8,6.3,7.8"/>
	<path class="st18" d="M336,374.6c0,0,0.1,4.7,0,6.8"/>
	<line class="st18" x1="337.7" y1="383.5" x2="334.1" y2="383"/>
	<line class="st18" x1="339" y1="385" x2="337" y2="385.9"/>
	<line class="st18" x1="342.3" y1="393.3" x2="334.1" y2="403.2"/>
	<line class="st18" x1="339" y1="386.8" x2="342.3" y2="393.3"/>
</g>
<path class="st23" d="M747.8,375.6c-2.6,0.6-5.2-2.3-4.4-3.3c0.4-0.5,1.9-0.4,3.1,0.2c1.1,0.5,1.3,1.9,1.7,2.9"/>
<path class="st23" d="M748.5,375.8c1-1.7,4.6-2.3,5.3-1.5c0.8,0.9-0.7,2.1-1.7,2.5c-1.4,0.5-2.2,0-3.6-0.9"/>
<path class="st23" d="M749.2,370.9c-2.8,0.6-4.7-3.6-4-4c0.9-0.5,2.4,0.2,3,0.7c0.9,0.8,1.1,2,1.4,3.1"/>
<path class="st23" d="M749.9,371.1c1.2-1.6,5-2,5.6-1.1c0.8,1-1.2,1.9-2.2,2.2c-1.4,0.4-1.9,0.2-3.4-0.9"/>
<path class="st23" d="M751.1,365.9c-2.7,0.3-3.8-3.2-3.1-4c0.1-0.1,1.6-0.1,2.4,0.6c1.8,1.5,0.9,2.1,1,3.2"/>
<path class="st23" d="M751.8,366.2c1.3-1.4,4.5-1.6,5.1-0.6c0.6,1.1-0.4,2.1-1.4,2.3c-1.5,0.2-2.4-0.9-3.6-1.5"/>
</svg>
