<svg id="security" xmlns="http://www.w3.org/2000/svg" viewBox="0 0 1622.92 915.08"><title>security</title><path d="M1732.85,2388.78c97.92-4.91,195.84-5.91,293.75-7.18l146.88-.94,146.88-.17,293.75,1.37c97.92.92,195.84,1.94,293.75,5.13a3.56,3.56,0,0,1,0,7.12c-97.92,3.19-195.84,4.21-293.75,5.13l-293.75,1.37-146.88-.17-146.88-.94c-97.92-1.27-195.84-2.27-293.75-7.18a1.78,1.78,0,0,1,0-3.56Z" transform="translate(-1731.16 -1511.55)" style="fill:#e3eaf0"/><path d="M3085.81,2388.78c22.1-4.69,44.2-6.35,66.29-7.18l33.15-.94,33.15-.19c22.1.2,44.2.7,66.29,1.36s44.2,2,66.29,5.17a3.59,3.59,0,0,1,0,7.12c-22.1,3.12-44.2,4.41-66.29,5.17s-44.2,1.15-66.29,1.36l-33.15-.19-33.15-.94c-22.1-.83-44.2-2.49-66.29-7.18a1.82,1.82,0,0,1,0-3.56Z" transform="translate(-1731.16 -1511.55)" style="fill:#e3eaf0"/><polyline points="408.52 728.75 408.52 219.08 1030.77 219.08 1030.77 728.75 442.16 728.75" style="fill:#b6f1ff"/><polyline points="408.52 216.52 408.52 97.17 1279.65 97.17 1279.65 216.52 455.61 216.52" style="fill:#65d3fa"/><polyline points="1279.65 221.65 1287.73 727.05 1030.77 728.28 1030.77 221.65 1279.65 221.65" style="fill:#74dcfc"/><polyline points="908.48 728.28 480.49 728.28 480.49 445.05 951.83 445.05 951.83 728.28" style="fill:#fff"/><polyline points="951.84 413.05 480.5 413.05 480.5 297.19 951.84 297.19 951.84 413.05" style="fill:#fff"/><path d="M2582.59,1877.57a70,70,0,0,0-18.52,7.37c-5.74,3.15-11.4,6.41-16.91,9.93-4,2.61-8,5.31-12,8,3.92-4.74,7.81-9.52,11.59-14.37,4.4-5.71,8.57-11.6,12.62-17.57a84.41,84.41,0,0,0,10.21-19.4.94.94,0,0,0-1.42-1.08,84.46,84.46,0,0,0-15.93,15.06c-4.66,5.52-9.21,11.11-13.52,16.89-4,5.42-7.87,10.91-11.7,16.45,2.05-6.31,4-12.64,5.9-19,2-6.89,3.64-13.85,5.19-20.86a83.28,83.28,0,0,0,2.27-21.66,1,1,0,0,0-.42-.74.93.93,0,0,0-1.3.26,83.28,83.28,0,0,0-9.19,19.75c-2.27,6.8-4.42,13.64-6.27,20.56-1.38,5.26-2.65,10.55-3.89,15.84-.19-6.54-.49-13.08-1-19.6-.65-7.69-1.46-15.36-2.34-23a159.19,159.19,0,0,0-4.24-22.89,1.81,1.81,0,0,0-3.55.26,158.91,158.91,0,0,0-.91,23.26c.22,7.72.53,15.43,1,23.13s1.29,15.37,2.23,23l0,.35c-2.11-4.75-4.31-9.45-6.69-14.06-3-5.65-6.07-11.24-9.24-16.79a109.87,109.87,0,0,0-10.95-15.93,1.83,1.83,0,0,0-3.18,1.61,110,110,0,0,0,6.33,18.26c2.58,5.85,5.24,11.66,8,17.4,1.37,2.77,2.81,5.51,4.28,8.23-4.46-4.72-9-9.37-13.67-13.88q-8.78-8.38-17.82-16.49a174.84,174.84,0,0,0-19.15-15.13,1.81,1.81,0,0,0-2.49,2.54,174.71,174.71,0,0,0,15.54,18.83q8.32,8.84,16.87,17.46c5.74,5.7,11.69,11.19,17.74,16.58l.61.53c-3.57-1.64-7.17-3.22-10.81-4.66-5.47-2.11-11-4.09-16.55-6a93.11,93.11,0,0,0-17.26-4.22,1.84,1.84,0,0,0-1.34,3.3,93.15,93.15,0,0,0,15.32,9c5.31,2.51,10.64,4.94,16,7.24s10.93,4.24,16.5,6.09a58.34,58.34,0,0,0,16.7,3.26,1.79,1.79,0,0,0,.54.45h0a1.83,1.83,0,0,0,1.66.26,115.21,115.21,0,0,0,18-8.22c5.71-3.19,11.38-6.45,17-9.83s11-7.1,16.31-10.88a70.08,70.08,0,0,0,14.7-13.45,1,1,0,0,0,.18-.79A1,1,0,0,0,2582.59,1877.57Z" transform="translate(-1731.16 -1511.55)" style="fill:#bbcdda"/><path d="M3040.35,1730.3c-77.24,7.62-154.53,7.52-231.81,8.37l-231.84,2.48-231.86.09c-77.28,0-154.56,1-231.89-5.8l0-4.45c77.24-7.63,154.53-7.52,231.81-8.37l231.84-2.48,231.85-.09c77.29,0,154.57-1,231.89,5.8Z" transform="translate(-1731.16 -1511.55)" style="fill:#0e6fb1"/><path d="M2526.94,2192.53" transform="translate(-1731.16 -1511.55)" style="fill:none"/><path d="M2416.41,2128.07a108.12,108.12,0,0,0-25.83,19.76c.78-3.32,1.59-6.64,2.41-9.95,3.65-15.31,9.09-30.08,14.09-45.21l-3.05-1.82a87.36,87.36,0,0,0-12.64,21.23,171.76,171.76,0,0,0-8.16,23.26,145.63,145.63,0,0,0-4.3,24.27q-.36,3.44-.42,6.92c-2.06,5.62-2.71,12-.64,17.72l1.78,0,.51-1.11c.08.36.15.71.24,1.07l1.78,0a114.27,114.27,0,0,0,3.27-12.06c.49-.93,1-1.86,1.52-2.79a85.84,85.84,0,0,1,9.34-13c3.48-4.21,7.33-8.25,11.35-12.28s8.1-8.27,11.29-13.59Z" transform="translate(-1731.16 -1511.55)" style="fill:#bbcdda"/><path d="M2634.89,2036.25c-4.13-7.55-11.85-17.48-25.19-21.88a48.5,48.5,0,0,0-17.87-2.36q3.95-4.81,8.07-9.52l-2.46-2.57a154.24,154.24,0,0,0-14.76,13.39,58.27,58.27,0,0,0-12.63,4.53c-1.39-9-5.39-20.38-16-28.86a49.79,49.79,0,0,0-26.08-10.47,18.31,18.31,0,0,0-19.63,23.2,46,46,0,0,0,15.79,24.1,51.06,51.06,0,0,0,32.15,11.29,49.69,49.69,0,0,0,7.65-.58A202.44,202.44,0,0,0,2542,2079l-.71.55c-1.52-8.91-6.39-24.69-22-33.66a51.1,51.1,0,0,0-31.46-6.12,16.27,16.27,0,0,0-13.42,21.57,47.12,47.12,0,0,0,20.81,25.44,51,51,0,0,0,25.66,6.92,51.53,51.53,0,0,0,14.53-2.08c.39.65.9,1.47,1.56,2.42a258.62,258.62,0,0,0-8.68,44.87c-2.16-5.06-12-25.09-34.37-29.14a51.42,51.42,0,0,0-31.73,4.84,16.24,16.24,0,0,0-5.4,24.79,47,47,0,0,0,28.13,17,52.76,52.76,0,0,0,9.44.86,51.36,51.36,0,0,0,29-9.08l-1.08,1.45,1.58,2.57a38.91,38.91,0,0,0,3,4.13,236.53,236.53,0,0,0,1.59,40.51h1.78c1.48-11.15,2.67-22.22,4-33.23a46.41,46.41,0,0,0,29.76,10.89h.1a51.49,51.49,0,0,0,29.34-9.18h0a16.43,16.43,0,0,0,7.08-12.36,16.24,16.24,0,0,0-5.16-13.09c-6.28-5.86-16.7-12.83-30.7-12.83h-.09a49.83,49.83,0,0,0-26.44,7.8c1.75-10.67,4-21.24,6.73-31.63a46.19,46.19,0,0,0,27.93,12.43c1.41.11,2.81.17,4.21.17a51.23,51.23,0,0,0,25.76-6.92,16.44,16.44,0,0,0,8.09-11.76,16.21,16.21,0,0,0-4.07-13.46c-5.8-6.38-15.64-14.21-29.64-15.32a48.19,48.19,0,0,0-21.77,3.16,210.56,210.56,0,0,1,13.27-26.62c.65-1.13,1.34-2.24,2-3.36a46.09,46.09,0,0,0,23.62,17.8,51.7,51.7,0,0,0,16.25,2.63,51.11,51.11,0,0,0,14.44-2.09,16.48,16.48,0,0,0,10.65-9.51A16.23,16.23,0,0,0,2634.89,2036.25ZM2499.68,2079c-7.92-4.55-13.59-11.52-16.86-20.71a7.36,7.36,0,0,1,6.07-9.74,47.24,47.24,0,0,1,5.47-.32,40.87,40.87,0,0,1,20.54,5.31c13.68,7.86,17.11,23,18,29.53A42.24,42.24,0,0,1,2499.68,2079Zm-13.15,68.58c-9-1.62-16.65-6.28-22.82-13.85a7.36,7.36,0,0,1,2.44-11.2,43.84,43.84,0,0,1,19.27-4.68,38.72,38.72,0,0,1,6.93.63c15.51,2.81,23.8,15.93,26.77,21.77A42.59,42.59,0,0,1,2486.53,2147.61Zm78.11-11.73h.07c11.11,0,19.53,5.67,24.64,10.43a7.33,7.33,0,0,1,2.35,6,7.61,7.61,0,0,1-3.28,5.71,42,42,0,0,1-24.28,7.59H2564c-13.89,0-23.42-7.54-28.43-12.88q.35-2.73.72-5.45C2541.83,2142.38,2551.59,2135.91,2564.64,2135.88Zm11.85-58.72c11.11.89,19.06,7.25,23.78,12.44a7.28,7.28,0,0,1,1.85,6.11,7.59,7.59,0,0,1-3.74,5.42h0a41.91,41.91,0,0,1-24.81,5.58,38.41,38.41,0,0,1-25.86-13.39l.19-.66c.87-2.95,1.83-5.86,2.83-8.76A42.52,42.52,0,0,1,2576.49,2077.16Zm-14.69-49.32a42.33,42.33,0,0,1-32.17-9,37.16,37.16,0,0,1-12.76-19.53,9.43,9.43,0,0,1,9-12c.36,0,.71,0,1.07.06a40.94,40.94,0,0,1,21.49,8.59C2560.82,2005.78,2561.94,2021.27,2561.8,2027.84Zm65.66,19.07a7.63,7.63,0,0,1-4.94,4.39,42,42,0,0,1-25.4-.46,38.1,38.1,0,0,1-21.15-17.62q3.76-5.6,7.84-11a41.35,41.35,0,0,1,23.1.61c10.58,3.49,16.81,11.56,20.17,17.71A7.28,7.28,0,0,1,2627.46,2046.91Z" transform="translate(-1731.16 -1511.55)" style="fill:#bbcdda"/><path d="M3094.45,1941.24s-68,84.2-185.54,74.21c0,0-62.77,336.74,193.13,409,0,0,249.46-34.58,199.57-409C3301.61,2015.44,3160.43,2026.31,3094.45,1941.24Z" transform="translate(-1731.16 -1511.55)" style="fill:#7bdebf"/><path d="M3311.52,2014.29a8.85,8.85,0,0,0-8.81-7.59h-.07a353.62,353.62,0,0,1-56-4.51,335,335,0,0,1-54.69-13.24,235.57,235.57,0,0,1-50.35-23.71,164.39,164.39,0,0,1-40.83-36.49,8.54,8.54,0,0,0-1.09-1.14,8.1,8.1,0,0,0-11.42.89l-.09.11c-10.87,12.71-24.35,24.72-38.27,35.07a248.84,248.84,0,0,1-45.08,26.53,219.13,219.13,0,0,1-49.71,15.58,205.61,205.61,0,0,1-52,2.78l-.35,0a6.67,6.67,0,0,0-7,5.65c-6.45,41.94-7.69,83.76-4.88,125.67,3,41.77,10.63,83.53,25.62,122.93s37.81,76.07,68.82,104.71c30.85,28.87,69.46,48.34,109.75,59.07a2.21,2.21,0,0,0,.8.06h.1c21.95-.77,43.11-7,63.13-15.69,19.84-9.11,38.79-20.64,55.32-35.13,33.47-28.48,59.52-65.48,76.07-106,17.5-40.28,24.64-83.9,27.46-126.9C3320.38,2099.78,3317.57,2056.69,3311.52,2014.29Zm-13.26,127.38c-1.87,20.67-4.14,41.34-8.85,61.44-1.94,10.16-5,20-7.49,30-3.23,9.73-6,19.67-10.15,29.06-14.91,38.2-38.55,72.83-69.24,99.84-30.86,26.56-67.23,46.8-106.79,60.12-39.19-11.78-76-31.72-105.2-60.09-29.44-28.38-50.79-64.35-64.43-102.78-13.83-38.47-20.83-79.25-23.16-120.15a563.09,563.09,0,0,1,5.45-116.29,217.73,217.73,0,0,0,49.31-2.52,223.74,223.74,0,0,0,53.38-16.12,264.17,264.17,0,0,0,48.14-27.84,261.05,261.05,0,0,0,35-30.39,183.32,183.32,0,0,0,38.59,33.14,252,252,0,0,0,53.79,25.77,351.89,351.89,0,0,0,57.41,14.29,379.59,379.59,0,0,0,51.06,5C3299.26,2063.26,3301.16,2102.66,3298.25,2141.67Z" transform="translate(-1731.16 -1511.55)" style="fill:#073c6e"/><polyline points="1288.48 689.57 1354.37 742.01 1488.41 590.51" style="fill:#7bdebf"/><path d="M3221.58,2100.56a3,3,0,0,0-4.23-.46c-13.32,10.72-25.48,22.47-37.32,34.5s-23.06,24.62-34.38,37.1q-30.89,33.88-61.31,68.18c-8.57-6.71-17.29-13.24-25.88-19.92l-16.7-12.83c-5.77-4-10.37-9.51-18.42-10.66a7,7,0,0,0-3.44.39,6.88,6.88,0,0,0-3.94,8.89c2.93,7.59,9.31,10.84,14.52,15.57l16.25,13.39c10.88,8.87,21.55,18,32.61,26.64l.09.07a10,10,0,0,0,13.59-1.26q33.54-37.85,66.46-76.25c11-12.76,22.14-25.43,32.64-38.64s20.68-26.72,29.7-41.25A3,3,0,0,0,3221.58,2100.56Z" transform="translate(-1731.16 -1511.55)" style="fill:#073c6e"/><path d="M2948,2389.9q-66.39-2.81-132.79-4.06c-44.26-1.17-88.52-1.6-132.79-2-88.52-1.19-177-.69-265.57-1.12l-265.57-.63-132.79-.31-33.2-.08c-6.11.06-9.51-.08-13.83-1.21a34.19,34.19,0,0,1-11.4-5.43,34.77,34.77,0,0,1-13.49-20.83,39.86,39.86,0,0,1-.67-6.32l0-8.16v-6.24l469.51-1.11,42.32-.09v21.17a4.14,4.14,0,0,0,4.14,4.14h217a4.14,4.14,0,0,0,4.14-4.14v-22.57c30.77-.36,61.54-1,92.31-1.75,40-.75,80-2.13,120-3.78a2.23,2.23,0,0,0,0-4.45c-40-1.65-80-3-120-3.78-40-.94-80-1.78-120-2-80-1-160-1.06-240-1.25l-479.92-1.13a10.36,10.36,0,0,0-10.39,10.34v0l0,16.6v8.44a60.74,60.74,0,0,0,1,10.17,55.07,55.07,0,0,0,40.13,42.31c6.39,1.81,14.17,1.92,19.1,1.81l33.2-.08,132.79-.31,265.57-.63c88.52-.43,177,.07,265.57-1.12,44.26-.37,88.52-.8,132.79-2q66.39-1.26,132.79-4.06a2.23,2.23,0,0,0,0-4.45Z" transform="translate(-1731.16 -1511.55)" style="fill:#bbcdda"/><path d="M3094.63,1513.48h-.12l-228.26-1.15-228.26-.24-456.52-.45-57.07-.06c-4.89,0-9.22-.12-14.56.09a70.14,70.14,0,0,0-16.18,2.28,74.59,74.59,0,0,0-29,14.71c-16.85,13.9-27.16,35.68-26.91,57.5l-.06,57.07-.21,228.26.44,441.27H2057l.44-441.27-.21-228.26-.06-57.07a54.71,54.71,0,0,1,41.23-53.5,50.92,50.92,0,0,1,12-1.71c4.16-.2,9.35-.06,14-.11l57.07-.06,456.52-.45,228.26-.24,220.62-1.11,1.73,173.86,1.31,90.81,1.64,90.81a3,3,0,0,0,5.93,0l1.64-90.81,1.31-90.81,1.81-181.62v0A7.65,7.65,0,0,0,3094.63,1513.48Z" transform="translate(-1731.16 -1511.55)" style="fill:#bbcdda"/><path d="M2211.66,2205.46c120.48-49.83,380.83-17.22,466.34,35.77l-466.34-1.51Z" transform="translate(-1731.16 -1511.55)" style="fill:#1397d5"/></svg>