<?xml version="1.0" encoding="utf-8"?>
<!-- Generator: Adobe Illustrator 21.0.0, SVG Export Plug-In . SVG Version: 6.00 Build 0)  -->
<svg version="1.1" id="Layer_1" xmlns="http://www.w3.org/2000/svg" xmlns:xlink="http://www.w3.org/1999/xlink" x="0px" y="0px"
	 viewBox="0 0 300 160" style="enable-background:new 0 0 300 160;" xml:space="preserve">
<style type="text/css">
	.st0{fill:#FFFFFF;}
	.st1{fill:none;}
	.st2{fill:#F6F6F6;}
	.st3{fill:#204A69;}
	.st4{fill:#6F93AD;}
	.st5{fill:#204A69;}
	.st6{fill:#E1E2E2;}
	.st7{fill:#CCCED0;}
	.st8{fill:#CCCED0;}
</style>
<title>illustration-connect</title>
<path class="st0" d="M152.2,138.7c0,0-4.1-2-11.1-4.8l-0.2,0L152.2,138.7z"/>
<path class="st0" d="M15.1,121.1l0.2,0c0,0,0,0,0-0.1C15.2,121.1,15.2,121.1,15.1,121.1z"/>
<path class="st0" d="M61.7,115c0-0.1,0-0.2,0-0.4c0-0.2,0-0.4,0-0.6c0-0.9,0-1.8,0-2.6c0-3.1-0.1-5.9-0.3-8.3
	c-0.2-2.1-0.4-3.8-0.7-5c-0.1-0.2-0.1-0.4-0.2-0.6c0,0,0-0.1,0-0.1L49,96.9c0,0.1,0,0.2,0,0.3c-0.1,0.1-0.1,0.3-0.2,0.4
	c-0.4,1.3-0.8,3.3-0.9,5.9c-0.2,2.8-0.3,6.4-0.3,10.2c0,0.1,0,0.2,0,0.3c0,0.2,0,0.4,0,0.6c0,0.2,0,0.3,0,0.5c0,1.1,0,2.2,0,3.3
	c0.2,12.4,1.1,26.7,1.7,33.6c0.1,1.7,0.2,3,0.3,3.6h9.4c0-0.6,0.2-2,0.4-4c0.3-2.7,0.6-6.6,1-11.1c0.6-7.1,1.1-15.6,1.3-23.3
	C61.6,116.5,61.7,115.8,61.7,115z M53.6,109.3c-0.3,0.1-0.6,0-0.7-0.2l-2.9-5.4c-0.2-0.3-0.1-0.6,0.2-0.7c0.3-0.1,0.6,0,0.7,0.2
	l2.9,5.4C53.9,108.9,53.8,109.2,53.6,109.3z"/>
<path class="st0" d="M58.1,68.1l-1.1-2.5c0.1,0.5,0.2,1,0.4,1.5C57.7,67.4,57.9,67.8,58.1,68.1z"/>
<path class="st0" d="M239.1,112.1l-0.2-0.4l-0.2-0.5l-1.1-3l-1.9-5.4l-0.4-1l-3.1,0.3c0.1,1.9,0.1,3.2,0.2,3.1l-2,7l-0.2,0.6
	l-0.1,0.5l-0.2,0.5l-0.1,0.4c-0.6,2.3-3,3.7-5.4,3.2l-1.1-0.2l0.5-2.1l0.1-0.5l0.1-0.5l0.5-2.4l0-0.1l0.4-1.6l1.4-6.1
	c0,0-0.1-0.5-0.2-1.4l-3.2,0.3l0,0.3l-1.7,11.6l-0.1,0.5l-0.1,0.5l-1.3,9.2l-2.4,16.3l1.5-0.2l7.6-0.9l8.4-1l0.1,0l1-0.1l6.7-0.8
	l4.4-0.5l1-0.1l-0.6-1.6l-4.7-13.2l-1.3-3.8L239.1,112.1z"/>
<path class="st0" d="M247.8,108.7c0.2-0.2,0.2-0.5,0.1-0.7l-2.9-3.5l-0.6-0.8l-4.5-5.4l-0.2,0.4c-0.2,0.2-0.4,0.3-0.6,0.2l8,9.7
	C247.3,108.8,247.6,108.8,247.8,108.7z"/>
<circle class="st0" cx="91.2" cy="26.7" r="2.1"/>
<path class="st0" d="M173.2,64.6c-0.4,0-0.7,0.2-0.7,0.5v8.1h8.6l0-8.6H173.2z"/>
<path class="st0" d="M185.2,56.1c-0.1,0-0.2,0.1-0.2,0.2v16.9h8.6l0-17.1H185.2z"/>
<path class="st1" d="M53.4,25.3c-0.3,0.3-0.6,0.7-0.7,1.2c-0.1,0.3-0.1,0.7,0.1,1c0.7,0.5,1.6,0.5,2.2,0c0.6-0.6,0.9-1.5,0.6-2.4
	c-0.1-0.4-0.2-0.8-0.4-1.1C54.5,24.3,53.9,24.8,53.4,25.3z"/>
<path class="st1" d="M250.5,128.8c1.2,3.3,4.2,8.6,7.2,13.4c3.1,5,6.3,9.7,7.5,11.5c0.1,0.1,0.1,0.2,0.2,0.2l6.1-9
	c-1.2-2-7.8-13.1-11.2-22.5c-0.1-0.2-0.1-0.4-0.2-0.5l-8,0.3L250.5,128.8z"/>
<polygon class="st1" points="248.1,134.2 251.1,122.3 244,122.6 "/>
<polygon class="st1" points="245.6,143.8 246.9,138.5 243.2,139 "/>
<path class="st1" d="M241.7,156.5c0-1,0.7-2.1,1.3-2.8c0,0,0-0.1,0.1-0.1l0.3-1.1c0-0.3-0.1-0.7-0.3-0.9l-7.3-11.1l-2.9,15.1
	L241.7,156.5z"/>
<path class="st1" d="M41.4,147.3l7.1,7.5c-0.2-2.5-0.6-8.4-1-15.7L41.4,147.3z"/>
<path class="st1" d="M64.2,93.8l-2-1.6c-0.3,2.4-0.6,4.5-0.8,5.4c0.4,1.4,0.7,3.2,0.9,5.5c0.2,2.2,0.3,4.9,0.3,7.7
	c0.2,0,0.4,0.1,0.4,0.3c0.6,1.1,1.1,2.1,1.5,3c0,0,0,0,0,0l0.1,0.3c3.8,0.3,7.6,0.8,11.4,1.4c0,0,0,0,0,0c0-2.4,0-4.7,0-7.1
	l-0.2-25.3l0-8C75.4,77.6,71.4,93.2,64.2,93.8z"/>
<path class="st1" d="M237.9,49.5c0,0,0,0.1,0,0.1c0.1,0,0.2,0.1,0.3,0.1C238,49.7,237.9,49.6,237.9,49.5z"/>
<g>
	<path class="st2" d="M32.2,30.3c2.2,0,4.4,0.1,6.5,0.1c0.2,0,0.3-0.1,0.4-0.3c0.6-2,1.5-3.9,2.7-5.7c1.1-1.8,2.6-3.2,4.5-4.1
		c0.9-0.4,1.9-0.6,2.9-0.5c1,0.1,1.9,0.4,2.8,0.8c1.1,0.6,2.1,1.4,2.7,2.5c-0.8,0.4-1.6,0.9-2.2,1.6c-0.4,0.5-0.7,1-0.9,1.6
		c-0.2,0.7-0.1,1.4,0.3,2c0.5,0.6,1.2,0.8,1.9,0.8s1.3-0.1,1.9-0.5c0.6-0.4,1-1,1.1-1.7c0.1-0.6,0.1-1.2,0-1.8
		c-0.1-0.5-0.3-1-0.5-1.5c0.8-0.2,1.7-0.3,2.5-0.2c1,0,1.9,0.4,2.7,1c1.4,1.2,1.8,3.5,1.6,5.5V30c0,0.2,0.2,0.4,0.4,0.4
		c4.1,0,8.3-0.1,12.4-0.2v-0.5c-4-0.1-8-0.2-12-0.2c0.1-1,0-2-0.2-2.9c-0.2-1.2-0.8-2.2-1.7-3s-2-1.2-3.2-1.3c-1-0.1-2,0-3,0.3
		c-2-3.1-6.2-4.8-9.8-3.2c-2,1-3.7,2.6-4.8,4.5c-1.1,1.8-2,3.8-2.6,5.8c-2.1,0-4.1,0.1-6.1,0.1c-2.2,0-4.4,0.1-6.5,0.2L25.6,30
		l0.1,0.1C27.9,30.2,30,30.3,32.2,30.3z M55,27.5c-0.6,0.5-1.5,0.5-2.2,0c-0.2-0.3-0.2-0.7-0.1-1c0.1-0.5,0.4-0.9,0.7-1.2
		c0.5-0.5,1.1-1,1.8-1.3c0.2,0.4,0.3,0.7,0.4,1.1C55.9,26,55.6,26.9,55,27.5z"/>
	<path class="st2" d="M274.9,157.6l-15.6-0.2l-15.6-0.1l-0.3,0c-0.6,0.5-1.1,0.7-1.2,0.6c-0.1-0.1-0.2-0.3-0.3-0.4l-2-0.2l-27.4-0.2
		L150,157l-62.5,0.1c-20.8,0.1-41.7,0.2-62.5,0.7c-0.1,0-0.2,0.1-0.2,0.2c0,0.1,0.1,0.2,0.2,0.2c20.8,0.5,41.7,0.6,62.5,0.7L150,159
		l62.5-0.2l31.2-0.2l15.6-0.1l15.6-0.2c0.2,0,0.3-0.1,0.3-0.3S275.1,157.6,274.9,157.6z"/>
</g>
<path class="st3" d="M75.9,37.5V37c-2.2,0.1-4.5,0.2-6.7,0.3v0.5c2.4,0.2,4.8,0.3,7.2,0.4c0-0.2,0-0.4,0-0.7H75.9z"/>
<path class="st3" d="M76.9,37.5h-0.5c0,0.2,0,0.4,0,0.7c0.2,0,0.3,0,0.5,0L76.9,37.5z"/>
<path class="st3" d="M76.9,37.5l0,0.7c0.3,0,0.5,0,0.8,0c0-0.2,0-0.5,0-0.7H76.9z"/>
<path class="st3" d="M213.8,37.5l-0.3,0v0h-0.3c0,0.2,0,0.4,0,0.7c0.2,0,0.4,0,0.6,0C213.8,37.9,213.8,37.7,213.8,37.5z"/>
<path class="st3" d="M76.4,37.5c0-0.2,0-0.4,0-0.6c-0.2,0-0.4,0-0.6,0v0.5H76.4z"/>
<path class="st3" d="M213.5,36.9c-10.3-0.4-20.6-0.4-30.9-0.4l-37.8-0.1L107,36.5c-9.8,0-19.6,0-29.4,0.4c0,0.2,0,0.4,0,0.6
	c0,0.2,0,0.5,0,0.7c9.8,0.4,19.6,0.4,29.3,0.4l37.8,0.1l37.8-0.1c10.2,0,20.4,0,30.6-0.4c0-0.2,0-0.4,0-0.7c0,0,0-0.1,0-0.1l0.3,0
	l0.3,0c0,0.2,0,0.4,0,0.6c2.2-0.1,4.4-0.2,6.6-0.3v-0.5C218.1,37.2,215.8,37,213.5,36.9z"/>
<path class="st3" d="M76.9,36.9l0,0.6h0.7c0-0.2,0-0.4,0-0.6C77.4,36.9,77.1,36.9,76.9,36.9z"/>
<path class="st3" d="M76.5,36.9c0,0.2,0,0.4,0,0.6h0.5l0-0.6C76.8,36.9,76.6,36.9,76.5,36.9z"/>
<path class="st3" d="M213.2,37.5h0.3v0L213.2,37.5C213.2,37.4,213.2,37.5,213.2,37.5z"/>
<path class="st0" d="M63,117.6c-0.1,5.4-0.5,11.6-1,18.6l4.3-8.8c0.4-3,0.3-5.6-1.4-9.9L63,117.6z"/>
<path class="st0" d="M63.1,113.4c0,0.1,0,0.2,0,0.3c0.1,0,0.1,0,0.2,0C63.2,113.6,63.1,113.5,63.1,113.4z"/>
<path class="st0" d="M63,116.6l1-0.1l0.5,0c-0.1-0.3-0.2-0.5-0.4-0.8c-0.3,0-0.6,0-0.9,0l-0.2,0C63,115.9,63,116.2,63,116.6z"/>
<polygon class="st0" points="64.5,116.5 64.5,116.5 64,116.5 "/>
<path class="st0" d="M75.4,71.8l0-1.7c-0.1-0.4-0.2-0.7-0.3-1c-0.2-0.7-0.1-1.7-0.1-2.7c0.1-1.1,0.2-3-0.3-3.3
	c-0.8,0.6-1.9,6-2.3,9.9l2.8,1.1c0.1-0.2,0.1-0.5,0.2-0.7L75.4,71.8z"/>
<path class="st0" d="M225.4,101.1c-1.3-8.4-0.9-13.1,1.2-13.8c0.8-0.3,1.6-0.2,2.3,0.2c2,1.3,3.2,5.6,3.8,13l2.7-0.2
	c0-5.5-1.4-10.2-3.8-12.9c-0.1,0-0.2,0-0.4,0c-0.2,0-0.4-0.2-0.6-0.3c-0.2-0.2-0.3-0.5-0.2-0.8c-0.3-0.2-0.6-0.4-0.8-0.5
	c-0.9-0.4-2.2-0.4-3.4,0c-0.2,0.3-0.6,0.6-1,0.5c-0.3,0.2-0.6,0.4-0.9,0.7c-1.5,1.7-2.2,3.9-2.1,6.1l0.8,8.3L225.4,101.1z"/>
<g>
	<path class="st4" d="M264.3,112.7c0-1.2-0.1-2.6-0.2-4c0-0.1,0-0.2,0-0.4c0-0.1,0-0.3,0-0.4c-1-18.2-4.5-47.1-17.5-40.5
		c-7.4,3.8-6.8,15.3-7.6,20.5l-1,17.5l-1.5-4.4c0.1-0.1,0.1-0.2,0.1-0.3c0.1-6.2-1.5-11.4-4.3-14.4c-0.1,0.1-0.3,0.2-0.4,0.3
		c0,0,0,0,0,0c-0.2,0.2-0.5,0.1-0.7-0.1c-0.2-0.2-0.1-0.4,0-0.6c0,0,0-0.1,0.1-0.1c0.1-0.1,0.2-0.2,0.3-0.2c0,0,0,0,0,0
		c-0.4-0.4-0.9-0.6-1.3-0.9c-1.2-0.6-2.8-0.6-4.4,0.1c0,0-0.1,0-0.1,0.1c0.2,0.1,0.3,0.2,0.3,0.4c0,0,0,0,0,0
		c-0.1,0.2-0.3,0.4-0.6,0.4c-0.1,0-0.1,0-0.2,0c-0.2,0-0.5-0.1-0.8-0.1c-0.2,0.2-0.5,0.4-0.7,0.6c-1.7,1.9-2.5,4.4-2.3,6.9l0.9,8.8
		c0,0.1,0.1,0.2,0.1,0.2c0,0-0.1,0.1-0.1,0.1l-1.8,12.7l-0.1,0.5l-0.1,0.5l-1.3,9.2l-2.4,16.6c0,0.2,0,0.3,0.1,0.4
		c0.1,0.1,0.3,0.2,0.4,0.1l1.9-0.2l7.5-0.9l8.7-1.1l0.6-0.1l0.4,0l7.3-0.9l3.7-0.5l1.1-0.1l0.9-0.1c0.2,0,0.3-0.1,0.4-0.2
		c0.1-0.1,0.1-0.3,0-0.4l-0.6-1.8l-0.6-1.7l-4.1-11.6l7.1-0.3l1.1,0l8-0.3l1,0l3.2-0.1C264.4,121.8,264.4,118.1,264.3,112.7z
		 M236.1,139l-1,0.1l-0.1,0l-8.4,1l-7.6,0.9l-1.5,0.2l2.4-16.3l1.3-9.2l0.1-0.5l0.1-0.5l1.7-11.6l0-0.3l3.2-0.3
		c0-0.2-0.1-0.3-0.1-0.5c0,0,0,0,0,0c0-0.2-0.1-0.3-0.1-0.5c-0.7-4.3-1.7-12.9,0.8-13.8c3.9-1.5,5.1,7.7,5.5,13.3c0,0.2,0,0.3,0,0.5
		v0c0,0.2,0,0.3,0,0.5l3.1-0.3l0.4,1l1.9,5.4l1.1,3l0.2,0.5l0.2,0.4l2.4,6.8l1.3,3.8l4.7,13.2l0.6,1.6l-1,0.1l-4.4,0.5L236.1,139z
		 M245,83.7c0-2,0-4.1,0-4.1c0-0.3,0.2-0.5,0.5-0.5s0.5,0.2,0.5,0.5c0,0,0,2.1,0,4.1c0,1,0,2,0,2.7c0,0.3-0.2,0.5-0.5,0.5
		s-0.5-0.2-0.5-0.5C245,85.7,245,84.7,245,83.7z M243.8,88l3.6-0.5c0.3-0.1,0.6,0.1,0.6,0.4c0.1,0.3-0.1,0.6-0.4,0.6L244,89
		c-0.3,0.1-0.6-0.1-0.6-0.4C243.3,88.3,243.5,88,243.8,88z M242.2,89.8c0.2-0.2,0.5-0.3,0.7-0.2l2,0.9c0.2,0.2,0.3,0.5,0.2,0.7
		c-0.2,0.2-0.5,0.3-0.7,0.2l-2-0.9C242.1,90.4,242,90.1,242.2,89.8z M238.8,98.3c0,0,0-0.1,0-0.1l3.3-6.5c0.2-0.3,0.5-0.4,0.7-0.2
		c0.2,0.2,0.3,0.5,0.2,0.7l-3.1,6.1l4.5,5.4c2.2-2.3,4.2-4.8,6-7.5c2.5-3.9,3.3-6.5,3.3-10.1c0-2.8-0.5-6.2-1.2-11.1
		c0-0.2,0.2-0.5,0.4-0.5c0.3-0.1,0.6,0.1,0.6,0.4c0.7,4.9,1.2,8.3,1.2,11.2c0,3.8-0.9,6.7-3.5,10.7c-1.8,2.7-4,5.2-6.2,7.6l2.9,3.5
		c0.1,0.2,0.1,0.5-0.1,0.7c-0.2,0.1-0.5,0.1-0.7-0.1l-8-9.7c0,0-0.1,0-0.1,0c-0.1-0.1-0.2-0.2-0.2-0.3
		C238.8,98.5,238.8,98.4,238.8,98.3C238.8,98.3,238.8,98.3,238.8,98.3z M225.1,86.2c0.4,0.1,0.8-0.2,1-0.5c1.3-0.5,2.5-0.5,3.4,0
		c0.3,0.1,0.6,0.3,0.8,0.5c-0.1,0.3,0,0.6,0.2,0.8c0.2,0.2,0.4,0.3,0.6,0.3c0.1,0,0.2,0,0.4,0c2.4,2.7,3.8,7.5,3.8,12.9l-2.7,0.2
		c-0.6-7.4-1.8-11.7-3.8-13c-0.7-0.5-1.5-0.5-2.3-0.2c-2.1,0.7-2.5,5.4-1.2,13.8l-2.4,0.2l-0.8-8.3c-0.2-2.2,0.6-4.4,2.1-6.1
		C224.5,86.6,224.8,86.4,225.1,86.2z"/>
	<path class="st4" d="M240.7,68.6c0.1,0.3,0.3,0.4,0.6,0.3c0.3-0.1,0.4-0.3,0.3-0.6l-0.8-2.7l1.2-0.4c-0.1-0.1-0.1-0.1-0.2-0.2
		l-0.2-0.7l-1.5,0.5c-0.3,0.1-0.4,0.4-0.3,0.6L240.7,68.6z"/>
	<path class="st4" d="M242.7,64.7c0,0.1,0,0.2,0,0.3l7.9-2.6c0.3-0.1,0.4-0.4,0.3-0.6c0-0.2-0.3-0.4-0.5-0.3l-2.2,0.7l-5.7,1.8
		L242.7,64.7L242.7,64.7z"/>
</g>
<g>
	<path class="st5" d="M229.1,71.4c1,0,1.8-0.8,1.8-1.8s-0.8-1.8-1.8-1.8s-1.8,0.8-1.8,1.8v1.5c-1.8-1.7-4.5-2.8-8-1.6c0,0,0,0,0,0.1
		c-1.2,0.5-2,1.6-2.1,2.9l0,0c-0.1,0.9-0.5,1.5-1,2c-0.2,0.3-0.5,0.5-0.7,0.8s-0.4,0.6-0.4,1c0,0.4,0.2,0.7,0.4,0.9
		c0.3,0.3,0.6,0.4,0.9,0.6c0.1,0.1,0.2,0.1,0.3,0.2l0.1,0.1c0.5,2.6,2.7,4.5,5.2,4.8c0.3,0,0.5,0.1,0.8,0.1c0.3,0,0.5-0.2,0.5-0.5
		s-0.2-0.5-0.5-0.5c0,0-0.1,0-0.1,0c-0.1,0-0.1,0-0.2,0c-1.3-0.1-2.6-0.7-3.5-1.6c0.3-0.1,0.6-0.3,0.9-0.5c0.2-0.2,0.3-0.5,0.1-0.8
		c-0.2-0.1-0.5-0.1-0.8,0c-0.3,0.2-0.6,0.3-0.9,0.3c-0.3-0.5-0.5-1-0.6-1.5c-0.1-0.3-0.3-0.6-0.5-0.7c-0.3-0.2-0.6-0.4-0.8-0.5
		c-0.1-0.1-0.2-0.1-0.2-0.2v-0.1c0-0.1,0-0.3,0.2-0.4c0.4-0.6,1.6-1.4,1.8-3.2c0,0,0,0,0,0l2.1,0.3l0.2,0l1,3
		c0.6,1.7,2.3,2.8,4.1,2.5l5.5-0.9c0.1,0.1-0.9-3.7-3.5-6.3H229.1z"/>
	<path class="st5" d="M61.3,69.2c0.8,0,1.6-0.1,2.3-0.4c0.3-0.1,0.6-0.2,0.9-0.4c0.9-0.5,1.7-1.2,2.3-2.1c0.1,0,0.3-0.1,0.4-0.2
		c0.1-0.1,0-0.3,0-0.4c0.3-0.6,0.6-1.2,0.7-1.8c0,0,0.1-0.1,0.2-0.2c0.2-0.2,0.5-0.3,0.9-0.5c0.2-0.1,0.3-0.2,0.5-0.4
		c0.1-0.2,0.2-0.4,0.2-0.7c0-0.4-0.2-0.8-0.4-1.1c-0.7-0.9-1.6-1.4-1.8-3c-0.2-1.4-1-2.6-2.2-3.4c-0.1-0.1-0.3-0.1-0.4,0
		c0,0.2,0,0.4-0.2,0.5c-0.1,0.1-0.1,0.1-0.2,0.2c0,0.1,0.1,0.2,0.2,0.2c0.1,0,0.1,0.1,0.2,0.1c0.9,0.6,1.5,1.4,1.6,2.5
		c0.2,1.3,0.8,2.1,1.3,2.7c0.3,0.3,0.5,0.5,0.7,0.7s0.2,0.3,0.2,0.5c0,0.1,0,0.1-0.1,0.2c-0.1,0.1-0.4,0.3-0.8,0.5
		c-0.2,0.1-0.3,0.2-0.5,0.4c-0.2,0.2-0.3,0.4-0.4,0.6c-0.1,0.5-0.3,0.9-0.5,1.3c-0.2-0.2-0.4-0.4-0.5-0.7c-0.1-0.3-0.4-0.4-0.7-0.3
		s-0.4,0.4-0.3,0.7c0.2,0.5,0.5,0.9,1,1.2c-1,1.4-2.6,2.2-4.4,2.3c-0.1,0-0.1,0-0.2,0c-0.1,0-0.2,0-0.3,0.1c0,0,0,0,0,0
		C61,68.7,61.1,69,61.3,69.2C61.2,69.2,61.3,69.2,61.3,69.2z"/>
	<path class="st5" d="M66.3,61.1v-0.7c0-0.2-0.2-0.4-0.4-0.4c-0.2,0-0.4,0.2-0.4,0.4v0.7c0,0.2,0.2,0.4,0.4,0.4S66.3,61.3,66.3,61.1
		z"/>
	<path class="st5" d="M75.9,74l0-0.5c0,0,0,0,0,0c0.3-1.2,0.3-2.4,0-3.5l0-0.5l0-0.5l0-5.7c-0.1-0.6-0.4-1-0.9-1.2
		c-0.3-0.1-0.5-0.1-0.8,0.1c-1.6,1.1-2.7,9.5-2.9,11.1c0,0,0,0,0,0c0,0,0,0,0,0l0,0.1L63.7,86c0,0-0.3-0.6-0.9-1.5
		c-0.6-1-1.4-2.4-2.4-3.8c-0.1-0.1-0.2-0.3-0.3-0.4c-0.2-0.3-0.4-0.6-0.6-0.9c0,0,0,0,0-0.1c-0.1-0.1-0.1-0.2-0.2-0.3
		c-0.2-0.3-0.4-0.5-0.6-0.8c-0.3,0-0.6,0.1-0.9,0.1c-1.1,0-2.2-0.3-3-0.8s-1.5-1.3-2-2.2c-0.4-0.6-0.7-1.3-0.9-2
		c-1.6,0.7-2.3,2.1-2.5,3.5C49,79.7,50.3,83,50.3,83l11.9,9.2l2,1.6c7.2-0.6,11.2-16.2,11.7-18.5C76,75.1,76,75,76,75l0,0l0,0
		l-0.1,0l0-0.4L75.9,74z M75.4,71.8l0,1.7c-0.1,0.2-0.1,0.5-0.2,0.7L72.5,73c0.4-4,1.6-9.3,2.3-9.9c0.5,0.3,0.4,2.2,0.3,3.3
		c-0.1,1-0.1,2,0.1,2.7c0.1,0.3,0.2,0.6,0.3,1L75.4,71.8z"/>
	<polygon class="st5" points="245.6,143.8 246.3,145.2 248,138.4 246.9,138.5 	"/>
	<path class="st5" d="M241.7,156.5l-8.8-1l2.9-15.1l-0.3-0.4l-0.6,0.1l-3,15.8c0,0.1,0,0.3,0.1,0.4c0.1,0.1,0.2,0.2,0.3,0.2l7.6,0.9
		l2,0.2c0-0.1-0.1-0.1-0.1-0.2C241.7,157,241.7,156.8,241.7,156.5z"/>
	<path class="st5" d="M272.5,144.7c0,0-0.2-0.3-0.6-1c-1.3-2.2-4.5-7.8-7.4-13.9c-1.2-2.6-2.4-5.3-3.3-7.9l-1,0
		c0.1,0.2,0.1,0.4,0.2,0.5c3.4,9.3,10,20.5,11.2,22.5l-6.1,9c-0.1-0.1-0.1-0.1-0.2-0.2c-1.2-1.8-4.4-6.5-7.5-11.5
		c-3-4.9-6-10.1-7.2-13.4l1.7-6.5l-1.1,0l-3,11.8l0.6,1.7l1.4-5.6c1.7,3.9,5,9.5,8.1,14.5c3.5,5.6,6.8,10.2,6.8,10.2
		c0.1,0.1,0.2,0.2,0.4,0.2s0.3-0.1,0.4-0.2l6.7-9.8C272.6,145,272.6,144.8,272.5,144.7z"/>
	<path class="st5" d="M243.4,152.4l-0.3,1.1C243.3,153.2,243.4,152.8,243.4,152.4z"/>
	<path class="st5" d="M254.7,86.2c0-2.9-0.5-6.3-1.2-11.2c0-0.3-0.3-0.5-0.6-0.4c-0.2,0-0.4,0.3-0.4,0.5c0.7,4.9,1.2,8.3,1.2,11.1
		c0,3.6-0.8,6.2-3.3,10.1c-1.8,2.7-3.8,5.2-6,7.5l0.6,0.8c2.2-2.4,4.3-4.9,6.2-7.6C253.8,92.9,254.7,90,254.7,86.2z"/>
	<path class="st5" d="M246,86.4c0-0.7,0-1.7,0-2.7c0-2,0-4.1,0-4.1c0-0.3-0.2-0.5-0.5-0.5s-0.5,0.2-0.5,0.5c0,0,0,2.1,0,4.1
		c0,1,0,2,0,2.7c0,0.3,0.2,0.5,0.5,0.5S246,86.7,246,86.4z"/>
	<path class="st5" d="M248,87.9c0-0.3-0.3-0.5-0.6-0.4l-3.6,0.5c-0.3,0-0.5,0.3-0.4,0.6c0,0.3,0.3,0.5,0.6,0.4l3.6-0.5
		C247.9,88.5,248.1,88.2,248,87.9z"/>
	<path class="st5" d="M242.2,89.8c-0.2,0.3-0.1,0.6,0.2,0.7l2,0.9c0.2,0.1,0.5,0,0.7-0.2c0.1-0.2,0-0.5-0.2-0.7l-2-0.9
		C242.7,89.5,242.4,89.6,242.2,89.8z"/>
	<path class="st5" d="M240.2,47.8c0.3-0.4,0.8-0.8,1.5-1.1s1.6-0.4,2.5-0.4c1.2,0,2.4,0.2,3.5,0.7c1.1,0.5,2,1.1,2.5,2
		c0.7,1.2,1,2.6,1,4.1c0,1.7-0.4,3.4-0.8,4.6c-0.2,0.6-0.4,1.1-0.5,1.5c-0.1,0.2-0.1,0.3-0.2,0.4c0,0.1-0.1,0.1-0.1,0.1
		c-0.1,0.2,0,0.5,0.2,0.7c0.2,0.1,0.5,0,0.7-0.2c0,0,1.7-3.4,1.7-7.1c0-1.5-0.3-3.2-1.2-4.6c-0.7-1.1-1.8-1.9-3-2.4
		s-2.6-0.8-3.8-0.8c-1,0-2,0.2-2.8,0.5c-0.8,0.3-1.5,0.8-2,1.4c-0.2,0.2-0.1,0.5,0.1,0.7C239.7,48.1,240,48,240.2,47.8z"/>
	<path class="st5" d="M233.1,54.4c0.3,0,0.5-0.1,0.6-0.4l0.2-1.4l1.3,0.3c-0.1,0.6-0.3,1-0.6,1.4c-0.2,0.3-0.4,0.5-0.5,0.8
		c-0.2,0.3-0.3,0.6-0.3,1v0.2c0,0.4,0.3,0.6,0.5,0.8c0.3,0.3,0.7,0.4,1,0.5c0.1,0.1,0.2,0.1,0.3,0.2l0.1,0.1
		c0.2,0.4,0.3,0.7,0.5,1.1c0,0.1,0,0.2,0.1,0.2c0,0.1,0.1,0.1,0.1,0.2c0.3,0.5,0.6,1,1.1,1.4c0.7,0.7,1.7,1.2,3,1.2
		c0.1,0,0.3,0,0.4,0l0.7,2.2l0.2,0.7c0,0.1,0.1,0.2,0.2,0.2c0.1,0.1,0.3,0.1,0.4,0.1c0.2-0.1,0.3-0.2,0.3-0.3c0-0.1,0-0.2,0-0.3
		l0-0.1l-0.2-0.6l-0.8-2.7c-0.1-0.2-0.3-0.4-0.5-0.4c-0.3,0-0.5,0.1-0.7,0.1c-1,0-1.7-0.3-2.3-0.9c-0.3-0.3-0.5-0.6-0.7-0.9
		c0.4-0.3,0.7-0.7,0.9-1.2c0.1-0.3,0-0.5-0.2-0.7c-0.2-0.1-0.5,0-0.7,0.3c-0.1,0.2-0.3,0.5-0.5,0.7c-0.1-0.2-0.2-0.4-0.3-0.7
		c-0.1-0.3-0.4-0.5-0.6-0.6c-0.3-0.2-0.7-0.3-0.9-0.4c-0.1-0.1-0.2-0.1-0.2-0.1v-0.1v-0.1c0-0.1,0-0.3,0.2-0.5
		c0.2-0.5,1-1.3,1.2-2.5l6.9,1.7c0.3,0.1,0.5-0.1,0.6-0.4c0.1-0.2-0.1-0.5-0.4-0.6l-7-1.8c0-0.9,0.4-1.8,1.2-2.4
		c0.1-0.1,0.1-0.1,0.1-0.2c0,0,0-0.1,0-0.1c0.1,0.1,0.2,0.2,0.2,0.3c0.1,0.1,0.1,0.2,0.2,0.3c1,1,2.3,1.7,3.6,2.5
		c1.3,0.7,2.4,1.4,3,2.2c0.7,0.9,1.1,2,1.1,3.1c0,0.3,0,0.7-0.1,1c-0.1,0.3,0.1,0.5,0.4,0.6c0.3,0.1,0.5-0.1,0.6-0.4c0,0,0,0,0-0.1
		c0.1-0.4,0.1-0.8,0.1-1.1c0-1.4-0.5-2.7-1.3-3.7c-0.5-0.7-1.2-1.2-2.1-1.8c-1.2-0.8-2.6-1.4-3.7-2.2c-0.5-0.4-1-0.8-1.3-1.2
		c-0.3-0.4-0.5-0.9-0.5-1.4c0-0.3-0.2-0.5-0.5-0.5c-0.3,0-0.5,0.3-0.5,0.5c0,0.5,0.1,0.9,0.3,1.3c-0.2-0.1-0.4-0.1-0.6,0.1
		c-0.9,0.7-1.4,1.9-1.5,3l-1.2-0.3l0.2-1.2c0-0.3-0.1-0.5-0.4-0.6c-0.3,0-0.5,0.2-0.6,0.4l-0.3,1.6c0,0,0,0,0,0.1c0,0.1,0,0.1,0,0.2
		l-0.3,1.7C232.7,54.1,232.8,54.3,233.1,54.4z"/>
	<path class="st5" d="M242.1,91.7l-3.3,6.5c0,0,0,0.1,0,0.1c0,0,0,0,0,0c0,0.1,0,0.1,0,0.2c0,0.1,0.1,0.2,0.2,0.3c0,0,0.1,0,0.1,0
		c0.2,0,0.4,0,0.6-0.2l0.2-0.4l3.1-6.1c0.1-0.2,0-0.5-0.2-0.7C242.6,91.3,242.3,91.4,242.1,91.7z"/>
	<path class="st5" d="M218.6,75.3V76c0,0.2,0.2,0.4,0.4,0.4s0.4-0.2,0.4-0.4v-0.7c0-0.2-0.2-0.4-0.4-0.4S218.6,75.1,218.6,75.3z"/>
</g>
<circle class="st6" cx="102" cy="26.7" r="2.1"/>
<circle class="st6" cx="112.7" cy="26.7" r="2.1"/>
<path class="st6" d="M153.7,45.2H89.2v79.4h64.5V45.2z M123,116.2c-10.1,0-18.5-8.4-18.5-18.5H123l-0.4-18.5c0.1,0,0.3,0,0.4,0
	c10.1,0,18.5,8.4,18.5,18.5C141.5,107.8,133.1,116.2,123,116.2z M99.2,93.1c0-10.1,8.4-18.5,18.5-18.5v18.5H99.2z M143.7,62.4H98.1
	v-8.6h44.5c0.6,0,1.1,0.5,1.1,1.1V62.4z"/>
<path class="st6" d="M200.3,45.2h-35.2V79h35.2V45.2z M172.5,73.2v-8.1c0-0.3,0.3-0.5,0.7-0.5h7.9l0,8.6H172.5z M185,73.2V56.3
	c0-0.1,0.1-0.2,0.2-0.2h8.4l0,17.1H185z"/>
<g>
	<path class="st7" d="M138.1,147.4L138.1,147.4c0.2-0.1,0.4-0.2,0.5-0.2l-0.5,0.1C138.1,147.3,138,147.4,138.1,147.4z"/>
	<path class="st7" d="M284.9,106.7l-9.6,0.4l-4.8,0.2c-1.6,0-3.2,0.2-4.8,0.4c-0.6,0.1-1.1,0.1-1.7,0.2c0,0.1,0,0.3,0,0.4
		c6.7-0.6,13.7-1.1,20.8-1.3l-0.6,0.2l0.8-0.1c0.1,0,0.2-0.1,0.2-0.2C285.1,106.8,285,106.7,284.9,106.7z"/>
	<path class="st7" d="M214.6,116.3l-0.1-31.2c-0.1-7.9-0.1-15.9-0.2-23.8c-0.1-7.7-0.2-15.4-0.5-23.2c-0.2,0-0.4,0-0.6,0
		c-0.2,7.7-0.4,15.4-0.5,23c-0.1,7.9-0.1,15.9-0.2,23.8l-0.1,32.3l0,9.6l0,4.7l-16.9-0.1l-11.4,0l-14.5,0l-14.9,0.1l-29.4,0.1
		c-9.8,0.2-19.6,0.2-29.4,0.8v0.5c9.8,0.6,19.6,0.7,29.4,0.8l15.6,0.1l0.2,0l13.6,0l8.3,0c-2.7,1.2-5.5,2.6-8.2,3.9
		c-1.4,0.7-2.9,1.5-4.3,2.2c-1.4,0.7-2.8,1.5-4.2,2.3c-2.8,1.6-5.6,3.2-8.2,5c0,0,9.2-6,25.9-13.4l1.5,0l18.5,0.1l2.5,0l26.9-0.1
		h1.1v-1.1l0-6.5l0-9.1l0-0.5c1.8-0.5,3.7-0.9,5.6-1.3l0.1-0.5c-0.7,0.2-1.3,0.3-2,0.5L214.6,116.3z"/>
	<path class="st7" d="M46.6,114c-0.5,0-0.9,0-1.4,0.1c-5.2,0.4-10.3,1-15.4,2.1c-5,1.1-10,2.7-14.7,4.8c-0.1,0.1-0.1,0.1,0.2,0
		c0,0,0,0,0,0c0,0,0,0,0,0.1c0,0,0,0,0.1,0c0,0,0.1,0,0.1,0c4.8-1.7,9.7-3,14.7-4c5-1,10.1-1.6,15.2-1.9c0.4,0,0.8,0,1.2,0
		c0-0.2,0-0.3,0-0.5C46.6,114.5,46.6,114.2,46.6,114z"/>
	<path class="st7" d="M77.7,38.2c-0.3,0-0.5,0-0.8,0c-0.2,0-0.3,0-0.5,0C76,44.7,76,51.3,76,58l0,5.3l0,5.7l0,0.5l0,0.5
		c0.3,1.1,0.3,2.4,0,3.5c0,0,0,0,0,0l0,0.5l0,0.5l0,0.4l0.1,0l0,0l0,0c0,0,0,0.1-0.1,0.3l0,8l0.2,25.3c0,2.4,0,4.7,0,7.1
		c0,0,0,0,0,0c-3.8-0.6-7.6-1.1-11.4-1.4c0,0-0.1,0-0.1,0c-0.2,0-0.3,0-0.5,0c0,0,0,0,0,0.1c0.1,0.1,0.1,0.2,0.2,0.3c0,0,0,0,0,0.1
		c0,0,0,0.1,0.1,0.1c0,0.1,0.1,0.2,0.1,0.3c0.1,0,0.1,0,0.2,0c0.1,0,0.2,0,0.3,0c0,0,0,0,0.1,0c3.5,0.2,7,0.5,10.4,0.8
		c0.2,0,0.4,0,0.6,0.1c0,0,0,0,0,0c0,5.9,0.2,11.9,0.8,17.8h0.2h0.2c0.8-8.5,0.8-17,0.8-25.4l0.1-25.3L78,57.9
		C78,51.3,78,44.7,77.7,38.2z"/>
	<path class="st7" d="M246.9,58.9C246.9,59,246.9,59,246.9,58.9c-0.1,0.4-0.3,0.6-0.6,0.5c-0.3-0.1-0.5-0.3-0.4-0.6
		c0.1-0.3,0.1-0.7,0.1-1c0-1.1-0.4-2.2-1.1-3.1c-0.6-0.8-1.7-1.5-3-2.2c-1.3-0.8-2.6-1.5-3.6-2.5c-0.1-0.1-0.1-0.2-0.2-0.3
		c-0.1,0-0.2-0.1-0.3-0.1c0,0.1-0.1,0.1-0.1,0.2c-0.8,0.7-1.1,1.5-1.2,2.4l7,1.8c0.3,0.1,0.5,0.4,0.4,0.6c-0.1,0.3-0.3,0.5-0.6,0.4
		l-6.9-1.7c-0.2,1.3-1,2-1.2,2.5c-0.2,0.2-0.2,0.4-0.2,0.5v0.1v0.1c0,0,0.1,0,0.2,0.1c0.2,0.1,0.6,0.2,0.9,0.4
		c0.2,0.1,0.5,0.3,0.6,0.6c0.1,0.2,0.2,0.5,0.3,0.7c0.2-0.2,0.4-0.4,0.5-0.7c0.2-0.3,0.5-0.4,0.7-0.3c0.2,0.2,0.3,0.4,0.2,0.7
		c-0.2,0.5-0.5,0.9-0.9,1.2c0.2,0.3,0.5,0.6,0.7,0.9c0.6,0.6,1.3,0.9,2.3,0.9c0.2,0,0.4-0.1,0.7-0.1c0.2,0,0.4,0.2,0.5,0.4l0.8,2.7
		l5.7-1.8l-1.1-2.8C247.1,59.4,247,59.2,246.9,58.9z"/>
	<path class="st7" d="M95.6,142.6c-0.6-1.7-1.4-3.4-2.4-4.9c-1-1.6-2.2-3-3.6-4.2c-0.2-0.2-0.5-0.2-0.7,0c-0.3,0.2-0.3,0.6-0.1,0.8
		c0,0.1,0.1,0.1,0.1,0.2l0,0c0.1,0.1,0.1,0.1,0.2,0.2c0.3,0.5,0.6,1,0.7,1.5c0.2,0.8,0.4,1.5,0.5,2.3c0.2,1.5,0.4,3.1,0.5,4.7
		c0.1,1.5,0.2,3,0.3,4.5c-0.1-0.5-0.2-0.9-0.4-1.3c-0.6-2.1-1.4-4.2-2.3-6.2c-0.9-2.1-2-4-3.2-5.9c-1-1.6-2.2-3.1-3.5-4.4
		c-0.2-0.3-0.4-0.5-0.6-0.8l-0.1,0.1c0,0-0.1-0.1-0.1-0.1c-0.2-0.2-0.5-0.2-0.7,0c-0.3,0.2-0.3,0.6-0.1,0.8c0.6,0.8,1,1.6,1.3,2.5
		c0.3,1,0.6,1.9,0.9,2.9c0.5,2,1,3.9,1.4,5.9c0.9,3.9,1.7,7.9,2.5,11.9c0.2,0.1,0.2,0.1,0.3,0c0,0,0.1-0.1,0.2-0.1
		c-0.2-2.1-0.4-4.1-0.7-6.1s-0.6-4-1-6s-0.9-4-1.4-6c-0.1-0.7-0.4-1.4-0.6-2.1c0.5,0.7,1,1.3,1.4,2c1.2,1.8,2.3,3.7,3.2,5.7
		c0.9,2,1.7,4,2.4,6.1c0.7,2.1,1.1,4.2,1.3,6.3c0,0,0,0,0,0.1c0,0.1,0.1,0.2,0.2,0.2s0.2-0.1,0.2-0.2c0-0.1,0-0.1,0-0.2l-0.1,0
		c0-0.3,0-0.6,0.1-0.8c0.1-1.2,0.2-2.4,0.2-3.8c0.1-1.7,0.1-3.3,0-4.9c-0.1-1.7-0.2-3.3-0.5-4.9c-0.1-0.5-0.2-1-0.3-1.6
		c1.5,1.9,2.8,4,3.6,6.3c0.6,1.6,1.1,3.3,1.5,5c0.4,1.7,0.6,3.3,0.5,5.1c0,0,0,0.1,0,0.1c0,0.1,0.1,0.2,0.2,0.2
		c0.1,0,0.2-0.1,0.2-0.2c0.2-1.8,0.2-3.6-0.1-5.4C96.7,146.1,96.2,144.3,95.6,142.6z"/>
	<path class="st7" d="M117.7,74.6c-10.1,0-18.5,8.4-18.5,18.5h18.5V74.6z"/>
</g>
<path class="st8" d="M65.1,115.2C65,115.2,65,115.2,65.1,115.2c-0.2,0-0.3,0-0.3,0c-0.1,0-0.1,0-0.2,0c0-0.1-0.1-0.2-0.1-0.3
	c0,0,0-0.1-0.1-0.1c0,0,0,0,0-0.1c0-0.1-0.1-0.2-0.2-0.3c0,0,0,0,0-0.1c0.2,0,0.3,0,0.5,0c0,0,0.1,0,0.1,0l-0.1-0.3c0,0,0,0,0,0
	c-0.4-0.9-0.9-1.9-1.5-3c-0.1-0.2-0.3-0.3-0.4-0.3c0-2.8-0.1-5.5-0.3-7.7c-0.2-2.2-0.5-4.1-0.9-5.5c0.2-1,0.5-3,0.8-5.4L50.3,83
	c0,0-1.3-3.3-0.9-6.2l0,0c-1.1,6.5-1.4,18.1-1.5,20.4c-0.5,1.4-0.7,3.5-1,6.1c-0.2,2.9-0.3,6.5-0.3,10.3c0,0.1,0,0.3,0,0.4
	c0,0.2,0,0.4,0,0.6c0,0.2,0,0.3,0,0.5c0,1.1,0,2.2,0,3.3c0.1,6.4,0.4,13.3,0.7,19.5c-0.1,0-0.1,0.1-0.2,0.2l-6.7,9
	c-0.1,0.2-0.1,0.5,0,0.6l8.2,8.8c0.2,0.2,0.4,0.2,0.6,0.1h10c0.3,0,0.5-0.2,0.5-0.4c0,0,0.8-7.4,1.5-17.1c0,0,0.1,0,0.1,0
	c0.2,0,0.4-0.1,0.4-0.3l5.4-11.1c0,0,0-0.1,0-0.1c0.5-3.3,0.4-6.1-1.6-10.9C65.5,116.2,65.3,115.7,65.1,115.2z M66.3,127.4l-4.3,8.8
	c0.5-7,0.8-13.2,1-18.6l1.9-0.2C66.7,121.7,66.7,124.3,66.3,127.4z M63.1,113.7c0-0.1,0-0.2,0-0.3c0.1,0.1,0.1,0.2,0.2,0.3
	C63.2,113.7,63.1,113.7,63.1,113.7z M64.5,116.5l-0.5,0l-1,0.1c0-0.3,0-0.7,0-1l0.2,0c0.3,0,0.6,0,0.9,0
	C64.3,115.9,64.4,116.2,64.5,116.5C64.5,116.5,64.5,116.5,64.5,116.5z M41.4,147.3l6.1-8.1c0.4,7.2,0.8,13.2,1,15.7L41.4,147.3z
	 M59.3,151.6c-0.2,2-0.3,3.4-0.4,4h-9.4c0-0.6-0.1-1.9-0.3-3.6c-0.5-6.9-1.5-21.2-1.7-33.6c0-1.1,0-2.2,0-3.3c0-0.2,0-0.3,0-0.5
	c0-0.2,0-0.4,0-0.6c0-0.1,0-0.2,0-0.3c0-3.8,0.1-7.4,0.3-10.2c0.2-2.6,0.5-4.6,0.9-5.9c0.1-0.2,0.1-0.3,0.2-0.4c0-0.1,0-0.2,0-0.3
	l11.4,0.6c0,0,0,0.1,0,0.1c0.1,0.2,0.1,0.4,0.2,0.6c0.3,1.2,0.6,3,0.7,5c0.2,2.4,0.3,5.2,0.3,8.3c0,0.8,0,1.7,0,2.6
	c0,0.2,0,0.4,0,0.6c0,0.1,0,0.2,0,0.4c0,0.7,0,1.4-0.1,2.2c-0.2,7.7-0.8,16.2-1.3,23.3C59.9,145,59.6,148.9,59.3,151.6z"/>
<path class="st8" d="M213.5,36.9V24.5c0-4.5-3.7-8.2-8.2-8.2H84.1c-4.5,0-8.2,3.7-8.2,8.2v5.3v0.5V37c0.2,0,0.4,0,0.6,0
	c0.1,0,0.3,0,0.4,0c0.2,0,0.5,0,0.7,0c9.8-0.4,19.6-0.4,29.4-0.4l37.8-0.1l37.8,0.1C192.9,36.5,203.2,36.5,213.5,36.9z M91.2,28.8
	c-1.2,0-2.1-0.9-2.1-2.1s0.9-2.1,2.1-2.1s2.1,0.9,2.1,2.1S92.4,28.8,91.2,28.8z M102,28.8c-1.2,0-2.1-0.9-2.1-2.1s0.9-2.1,2.1-2.1
	s2.1,0.9,2.1,2.1S103.2,28.8,102,28.8z M112.7,28.8c-1.2,0-2.1-0.9-2.1-2.1s0.9-2.1,2.1-2.1s2.1,0.9,2.1,2.1S113.9,28.8,112.7,28.8z
	"/>
<path class="st8" d="M59.3,79c0.1,0.1,0.1,0.2,0.2,0.3l0.1-0.2L59.3,79z"/>
<path class="st8" d="M64.5,68.5C64.5,68.5,64.5,68.4,64.5,68.5c-0.3,0-0.6,0.2-0.9,0.3c0,0.3,0,0.5,0.1,0.8c0.1,0.7,0.1,1.4,0.1,2
	c0,2.9-0.6,5-1.3,6.3c-0.4,0.7-0.8,1.1-1.2,1.4c-0.1,0-0.1,0.1-0.2,0.1c-0.3,0.2-0.6,0.3-0.8,0.3c-0.3,0-0.5-0.1-0.7-0.3
	c0,0,0,0,0,0c0.2,0.3,0.4,0.6,0.6,0.9c0.1,0.1,0.2,0.3,0.3,0.4c1,1.5,1.8,2.8,2.4,3.8c0.1-2.2,0-4-0.4-4.8l-0.1,0
	c1.3-1.4,2.4-4,2.4-8.1C64.7,70.6,64.6,69.6,64.5,68.5z"/>
<path class="st8" d="M50.9,103.2c-0.1-0.2-0.4-0.3-0.7-0.2c-0.3,0.1-0.4,0.4-0.2,0.7l2.9,5.4c0.1,0.2,0.4,0.3,0.7,0.2
	c0.2-0.1,0.3-0.4,0.2-0.7L50.9,103.2z"/>
<path class="st8" d="M61.7,59.4c-0.4,1.9-0.6,3.8-0.9,4.9c-0.3,1.4-0.7,2.8-0.7,4c0,0.6,0.1,1.2,0.5,1.6c0.4,0.5,1,0.7,1.7,0.8
	c0.3,0,0.5-0.2,0.5-0.5s-0.2-0.5-0.5-0.5c-0.6,0-0.8-0.2-1-0.4c0,0-0.1-0.1-0.1-0.1C61.1,69,61,68.7,61,68.3c0,0,0,0,0,0
	c0-0.9,0.4-2.3,0.7-3.8c0.2-1.2,0.4-3.1,0.8-4.9c0.4-1.7,1-3.4,2-4.3c0.1-0.1,0.1-0.1,0.2-0.2c0.1-0.1,0.2-0.3,0.2-0.5
	c0-0.1,0-0.1-0.1-0.2c0-0.1-0.3-0.2-0.6,0C62.8,55.6,62.1,57.5,61.7,59.4z"/>
<path class="st8" d="M51.3,69.3c0,1.4,0.2,2.8,0.6,4c0.2,0.7,0.5,1.4,0.9,2c0.5,0.9,1.2,1.7,2,2.2s1.9,0.8,3,0.8
	c0.3,0,0.6,0,0.9-0.1c0.1,0,0.2,0,0.3,0c0.3,0,0.5-0.3,0.4-0.6c0-0.3-0.3-0.5-0.6-0.4c-0.1,0-0.1,0-0.1,0c-0.2,0-0.4,0.1-0.6,0.1
	c-0.1,0-0.1,0-0.2,0c-1,0-1.8-0.2-2.5-0.7c-1-0.6-1.8-1.7-2.3-3.1c0-0.1-0.1-0.3-0.1-0.4c-0.4-1.3-0.6-2.9-0.6-4.4
	c0-0.4,0-0.8,0-1.2c0.1-1.2,0.3-2.5,0.5-3.6c0-0.2,0.1-0.4,0.1-0.6c0.1-0.3-0.1-0.5-0.4-0.6c-0.2-0.1-0.4,0.1-0.5,0.3
	c-0.4,1.3-0.6,2.6-0.7,4c-0.3-1-0.5-2.1-0.5-3.2c0-2.5,0.7-5.2,1.9-7.3s3-3.6,5.2-4.1c0.3-0.1,0.6-0.1,1-0.1c1.6,0,3.3,0.6,4.4,1
	c0.1,0,0.2,0.1,0.2,0.1c0.3,0.1,0.5,0,0.6-0.3c0.1-0.3,0-0.5-0.3-0.6c-1-0.3-3-1.1-4.9-1.1c-0.4,0-0.8,0-1.2,0.1
	C55.3,52,53.3,53.8,52,56c-1.3,2.3-2.1,5.1-2.1,7.8c0,1.8,0.3,3.6,1,5.2C51,69.2,51.1,69.3,51.3,69.3z"/>
<path class="st8" d="M58.8,68.7c-0.2-0.1-0.4-0.3-0.7-0.6c-0.2-0.3-0.4-0.7-0.6-1.1c-0.2-0.4-0.3-0.9-0.4-1.5
	c-0.1-0.6-0.2-1.3-0.2-1.9c0-0.3-0.2-0.5-0.5-0.5c-0.3,0.1-0.6,0.4-0.6,0.6c0,1.4,0.3,2.7,0.7,3.8c0.5,1,1.1,1.8,1.9,2.2
	c0.3,0.1,0.5,0,0.7-0.3C59.2,69.1,59.1,68.9,58.8,68.7z"/>
<path class="st8" d="M230.3,81.2c-1.5,0-3,0.7-4.4,1.7c-0.2,0.2-0.3,0.5-0.1,0.7c-0.1,0.2,0.3,0.2,0.5,0.1c1.3-0.9,2.7-1.5,3.9-1.5
	c0.7,0,1.4,0.2,1.9,0.7c0.1,0.1,0.2,0.4,0.2,0.8c0,0.6-0.3,1.4-0.9,2c-0.1,0.1-0.2,0.2-0.3,0.2c0,0-0.1,0.1-0.1,0.1
	c-0.1,0.2-0.2,0.4,0,0.6c0.2,0.2,0.5,0.3,0.7,0.1c0,0,0,0,0,0c0.1-0.1,0.3-0.2,0.4-0.3c0.9-0.8,1.3-1.8,1.3-2.7
	c0-0.6-0.2-1.1-0.5-1.5C232.2,81.5,231.2,81.2,230.3,81.2z"/>
<path class="st8" d="M220.8,90.3c0.2-0.2,0.1-0.5-0.1-0.7c-0.6-0.5-0.9-1.2-0.9-1.9c0-0.1,0-0.3,0-0.4c0.1-0.3,0.2-0.5,0.4-0.8
	c0.3-0.3,0.9-0.6,1.5-0.7c0.6-0.1,1.3-0.2,2-0.2c0.2,0,0.3,0,0.5,0c0.3,0,0.6,0,0.8,0.1c0.1,0,0.1,0,0.2,0c0.3,0,0.5-0.2,0.6-0.4
	c0,0,0,0,0,0c0-0.1-0.1-0.3-0.3-0.4c-0.1,0-0.1-0.1-0.2-0.1c-0.5-0.1-1-0.1-1.7-0.1c-0.4,0-0.9,0-1.4,0.1c0.2-0.4,0.5-1.2,1-1.9
	c0.7-0.9,1.7-1.7,3.2-1.7c0.3,0,0.5,0,0.8,0.1c0.3,0,0.5-0.1,0.6-0.4c0.1-0.3-0.1-0.6-0.4-0.6c-0.3-0.1-0.7-0.1-1-0.1
	c-1,0-1.8,0.3-2.5,0.7c-0.5,0.3-0.9,0.7-1.2,1.1c0,0,0.1,0,0.1,0c0.3,0,0.5,0.2,0.5,0.5s-0.2,0.5-0.5,0.5c-0.3,0-0.5,0-0.8-0.1
	c-0.1,0.1-0.2,0.2-0.2,0.4c-0.4,0.8-0.6,1.4-0.6,1.4c0,0.1,0,0.2,0,0.3c-0.2,0-0.3,0.1-0.5,0.1c-0.5,0.2-0.9,0.4-1.2,0.7
	c-0.4,0.3-0.6,0.8-0.7,1.3c0,0.2,0,0.4,0,0.6c0,1,0.5,2,1.3,2.7C220.3,90.6,220.6,90.5,220.8,90.3z"/>
<path class="st8" d="M248.2,149.2l-1.9-4l-0.7-1.4l-2.4-4.8l-7.3,0.9l-0.4,0l0.3,0.4l7.3,11.1c0.2,0.3,0.2,0.6,0.3,0.9
	c0,0.4-0.1,0.8-0.3,1.1c0,0,0,0.1-0.1,0.1c-0.6,0.7-1.3,1.8-1.3,2.8c0,0.3,0,0.5,0.1,0.8c0,0.1,0.1,0.1,0.1,0.2
	c0.1,0.1,0.2,0.3,0.3,0.4c0.1,0.1,0.6-0.1,1.2-0.6c1-0.8,2.6-2.1,3.9-3.3C248.7,152.8,249,150.8,248.2,149.2z"/>
<path class="st8" d="M216.9,152.3c-0.1,0.8-0.8,1.4-1.6,1.5c-1.4,0.2-3.5,0.8-3.5,2.5c0,0.4,3.6,0.6,6.4,0.7c1.8,0,3.5-1.1,4-2.9
	l4.1-13l-7.5,0.9L216.9,152.3z"/>
<path class="st8" d="M232.3,101.5L232.3,101.5c0-0.2,0-0.3,0-0.5c-0.4-5.6-1.6-14.8-5.5-13.3c-2.5,0.9-1.5,9.5-0.8,13.8
	c0,0.2,0.1,0.3,0.1,0.5c0,0,0,0,0,0c0,0.2,0.1,0.3,0.1,0.5c0.1,0.9,0.2,1.4,0.2,1.4L225,110l-0.4,1.6l0,0.1l-0.5,2.4l-0.1,0.5
	l-0.1,0.5l-0.5,2.1l1.1,0.2c2.4,0.5,4.8-0.9,5.4-3.2l0.1-0.4l0.2-0.5l0.1-0.5l0.2-0.6l2-7c0,0,0-1.3-0.2-3.1
	C232.3,101.8,232.3,101.7,232.3,101.5z"/>
<rect x="165.1" y="89.4" class="st8" width="35.2" height="17.7"/>
<path class="st8" d="M123,79.2c-0.1,0-0.3,0-0.4,0l0.4,18.5h-18.5c0,10.1,8.4,18.5,18.5,18.5c10.1,0,18.5-8.4,18.5-18.5
	C141.5,87.6,133.1,79.2,123,79.2z"/>
<path class="st8" d="M142.6,53.8H98.1v8.6h45.6v-7.5C143.7,54.3,143.2,53.8,142.6,53.8z"/>
</svg>
