<svg id="personal-site" xmlns="http://www.w3.org/2000/svg" viewBox="0 0 1459 693.5"><style>.st0{fill:#E1E2E2}.st1{fill:#CCCED0}.st2{fill:#00b328}.st3{fill:#204A69}.st4{fill:#CCCED0}.st5{fill:#6F93AD}.st6{fill:#F6F6F6}.st7{fill:#fff}</style><path class="st0" d="M319.7 137.3L315.2 504c3.5.3 6.9 1 10.2 1.7l4.5-368.3c-3.3-.1-6.7-.1-10.2-.1zM1112.6 135.6v187.5c3.4-.1 6.9-.2 10.3-.1V135c-3.4.3-6.8.5-10.3.6zM1112.6 494.9v187.4h-21.8v10.3h27c2.8 0 5.1-2.3 5.1-5.1V499.8c-3.3-1.8-6.6-3.9-10.3-4.9z"/><path class="st1" d="M512.8 522.2c-.1 55.1 1.4 110 .8 165h293.2v-165h-294z"/><path class="st2" d="M1043.8 687.2h-168V534.5c0-6.8 5.5-12.3 12.3-12.3h155.7v165z"/><path class="st1" d="M634.4 86.4c-.5-.4-.9-1-1-1.8-1.2-13.2-8.7-24.8-10.1-38-1.1-10.8 2.6-21 10.9-28 6.8-5.8 16-10.5 25.7-12.6H367.5c-26.1 0-47.2 25.1-47.2 56v78.2H607c2.5-13.4 7.8-26.6 14.9-38.1 3.5-5.7 7.6-11.2 12.5-15.7zM1076.6 5.9H681.3c1.5.4 2.9.9 4.4 1.5 8 3.4 11.7 10 14.3 18 1.8 5.5 3.5 10.6 6.4 15.6 2.9 4.9 3.7 9.5 5.7 14.7 3.6 10 18.6 8 27 9.7 12.5 2.6 23.6 9.5 33.6 17.1 9.1 6.9 16.9 15.7 22.7 25.5 3.4 5.9 5.8 11.5 7.2 18.2.2 1.2.4 2.3.7 3.5 1.8 3.5 3.2 7.2 5.5 10.4h315.1V61.9c-.1-30.9-21.3-56-47.3-56z"/><path class="st3" d="M610.8 130.8l-100.4.4c-69.9.3-139.8-.1-209.7 5.5v3.4c69.9 5.5 139.8 5.1 209.7 5.5l96.3.4c-.1-5.4 2.8-10.2 4.1-15.2zM929.8 131.2l-124.9-.5c2.6 5.1 5.6 9.8 6.3 15.4l118.6-.5c69.9-.3 139.8.1 209.7-5.5v-3.4c-69.9-5.6-139.8-5.2-209.7-5.5z"/><path class="st4" d="M909.8 476.8c53.4-1.5 106.8-2.2 160.2-2.5.4 0 .9.1 1.2.3h.1c34 14.8 68.7 28.2 103.7 40.4l-3.6 5.9c-3.1-3.1-5.6-6.2-8-9.6-2.4-3.3-4.6-6.7-6.6-10.3-4-7.1-7.2-14.6-9.6-22.4-.6-1.9.5-3.9 2.4-4.5.3-.1.7-.2 1.1-.2h22.1c3.8 0 7.3.1 10.5-.5 3.3-.4 6.5-1.5 9.6-2.7 12.4-5.3 21.2-17.7 22.3-31.1.3-14 .1-29.2.1-43.8v-33.1c.1-3.8-.2-6.8-.8-10.2-2.7-13.1-13-24.3-25.8-28.1-3.2-.9-6.5-1.5-9.9-1.5l-10.9-.1h-22.1l-88.3-.2-88.3-.4-44.2-.2c-7.3.1-15-.5-21.6.4-6.8 1-13.2 4.1-18.5 8.5-5.3 4.5-9.4 10.3-11.6 16.8-2.6 6.5-2.2 13.5-2.3 21l-.2 44.1-.2 22.1c-.3 7.1 1.4 14.1 4.6 20.4 6.6 12.5 20.3 20.9 34.6 20.9v.6zm0 2.1c-15.3.2-30.3-8.4-37.8-21.9-3.7-6.7-5.7-14.5-5.5-22.1l-.2-22.1-.2-44.1c0-7.1-.5-15.2 2.4-22.6 2.5-7.4 7.1-14 13-19.1 6-5 13.3-8.6 21-9.8 8-1.2 15.1-.5 22.5-.8l44.1-.3 88.3-.4 88.3-.2h33.2c4 .1 8 .7 11.9 1.8 15.5 4.5 27.9 17.9 31.2 33.8.8 3.9 1.1 8.2 1 11.8V396c-.1 14.9.2 29.1-.3 44.5-1.4 16.1-12 30.9-26.9 37.2-3.7 1.5-7.6 2.8-11.5 3.2-4 .6-8 .5-11.5.5h-22.1l3.5-4.7c2.2 7.3 5.2 14.4 8.9 21 1.8 3.3 3.9 6.6 6.1 9.6s4.7 6.1 7.1 8.6l.1.1c1.4 1.4 1.4 3.6 0 5-1 1-2.4 1.3-3.7.8-35.2-12.4-70-25.8-104-41.2l1.3.3c-53.4-.4-106.8-1-160.2-2.5v.5z"/><path class="st0" d="M866.5 434.9l-.2-22.1-.2-44.1c0-7.1-.5-15.2 2.4-22.6 2.5-7.4 7.1-14 13-19.1 6-5 13.3-8.6 21-9.8 8-1.2 15.1-.5 22.5-.8l44.1-.3 74.7-.3V211.6h-324l-94 32.2-12.4-32.2H420.3c-6.8 0-12.3 5.5-12.3 12.3v227.5h461.5c-2.1-5.3-3.1-11-3-16.5z"/><circle class="st4" cx="1110.3" cy="401.7" r="13.2"/><circle class="st4" cx="1044.5" cy="401.7" r="13.2"/><circle class="st4" cx="978.6" cy="401.7" r="13.2"/><path class="st5" d="M507.6 381.7l62.1-91.6 71.1 91.6z"/><path class="st6" d="M1455.9 682.5c-217.7-4.7-548.5-4.2-766.2-5l-176.3.5c0 4.8-.2 9.6-.6 14.4l176.8.6c217.7-.8 548.5-.4 766.2-5 1.5 0 2.6-1.2 2.7-2.7.1-1.6-1.1-2.8-2.6-2.8z"/><path class="st4" d="M510.5 501.8c-96.9-.8-193.7-.5-290.5-.9-2 0-3.6 1.6-3.6 3.6l.7 139.9h6.6l-.2-136.3c94.7-.3 189.4-.1 284.2-.8l2.4 181.3v.4l-145.3-1.8-66.4-.4c0 1.8-.1 3.7-.2 5.5l68.6-.4 144.7-1.9h.5l1.3-185.5c-.1-1.5-1.3-2.7-2.8-2.7z"/><path class="st7" d="M231.2 526.4L362 605.6l138.3-84.4"/><path class="st4" d="M231.6 525.8c11.4 5.7 22.6 11.9 33.7 18.1 11.1 6.3 22.1 12.6 33 19.2l32.8 19.6c11 6.4 21.7 13.3 32.6 19.9h-3.6l69.4-41.7c23.2-13.9 46.5-27.4 70-40.8.6-.3 1.4-.1 1.7.5.3.6.1 1.3-.4 1.7-22.6 14.8-45.4 29.4-68.3 43.6l-68.9 42.6c-1.1.7-2.5.6-3.6 0-10.9-6.6-22-12.9-32.8-19.7l-32.5-20c-10.9-6.6-21.6-13.5-32.3-20.4-10.7-7-21.3-14-31.7-21.5-.3-.2-.4-.6-.1-.9.3-.2.7-.3 1-.2zM120 408.4C79.8 435.7 40.4 463.8.7 491.8c-.3.2-.4.6-.2.9s.6.4.9.2c41-25.9 80.9-53.1 121.5-79.7-1-1.5-2.1-3.1-2.9-4.8z"/><path class="st4" d="M299 686.8l-.1-2.8c-.1-1.8-.4-3.7-.7-5.5-.8-3.6-1.9-7.2-3.6-10.5-3.2-6.6-8.3-12.4-14.5-16.6-6.2-4.1-13.5-6.7-21-7.1-7.4-.3-14.3-.2-21.5-.3l-61.6-.6 1.3-112.5c.6-45.1.6-67.4.7-112.6 1.9-1.4 3.7-3 5.3-4.7 10-11.8 10.7-28.6 10.7-28.6.4-10.3-3.4-20.9-10.7-28.6-.9-1-1.9-1.9-2.9-2.8l-5.3-3.9c-6.1-3.7-13.2-5.8-20.4-5.9-10.8-.2-21.6 4.2-29.3 11.9-7.8 7.6-12.3 18.4-12.4 29.3 0 8 2.4 16 6.8 22.6-.5.5 3.1 4.8 3.4 4.5.7.8 1.3 1.5 2 2.2 1.2 1.2 2.4 2.2 3.7 3.2l.3 112.3.5 79.8c.1 11.2.2 22.4.4 33.5l-63.6-.2c-7.2 0-14.1-.2-21.6.1-7.7.3-15.3 2.9-21.8 7-6.5 4.2-11.9 10.1-15.4 17-3.4 7-4.9 15.1-4.7 22.5v.1c.1 1.9 1.6 3.5 3.6 3.4l146.8-.7 72.9-1 72-.1.5-1.4c.2-.9.3-2.4.2-3zM130.2 409.5c-6.4-6.5-10-15.4-10-24.5-.1-9 3.5-18 9.9-24.5s15.3-10.3 24.5-10.4c9.2-.2 18.4 3.3 25.2 9.7 6.8 6.4 11.2 15.6 11.5 25.2 0 0-.9 15.8-11.6 25.2-6.9 6.4-16 9.9-25.2 9.6-8.9.1-17.9-3.8-24.3-10.3zm43 234l-21-.2h-17.1c.2-11.2.3-22.4.4-33.5l.5-79.8.3-107.8c5.7 2.8 12.1 4.3 18.5 4.3 5.7-.1 11.3-1.4 16.5-3.8.1 43.1.2 63.1.7 106.3l1.2 114.5zm50.5 44.1l-72.7-1-140.8-.7c.6-12.1 7-23.2 17-29.8 5.5-3.5 11.8-5.7 18.3-6 6.7-.2 14.1-.1 21.2-.2l85.5-.2 85.5-.8c7.1 0 14.4-.2 21.2-.1 6.8.2 13.4 2.4 19.2 5.9 5.7 3.6 10.6 8.8 13.8 14.8 1.7 3 2.8 6.3 3.6 9.6l1 7.7-72.8.8z"/><path class="st4" d="M835.5 174.7c-.2-.7-.9-1.1-1.6-.9-3.9 1.1-7.9 2.2-11.8 3.4-5-16.5-10.2-33-15.4-49.5-5.6-17.4-15.5-33.5-28.9-46.1-13.5-12.5-30.7-21.4-49.2-24-4.9-.7-9.8-.9-14.8-.7-1.6-6.4-3.2-12.9-4.9-19.3-1.1-3.9-1.9-7.8-3.6-11.9-1.7-4-4-7.6-6.7-11-5.4-6.8-13.3-11.6-22-13.5-4.3-1-8.9-1.1-13.3-.2-4.6.9-8.2 2.4-12.1 3.6-3.8 1.3-7.5 2.4-11.8 4.5-4 2-7.6 4.9-10.4 8.3-5.7 6.8-9 15.5-9.2 24.1-.1 4.3.4 8.7 1.5 12.8 1.2 4.2 2.6 7.9 4 11.7.6 1.7 1.2 3.4 1.8 5-45.5 29.6-90.6 59.6-136 89.3L319.8 273.8 186 364.3c1.3 1.6 2.2 3.7 2.9 5.9l134.8-90.4 170.6-114.5c44.7-30.3 89.5-60.3 134-90.7 1.5 4 3 7.9 4.6 11.8-2.2 1.8-4.3 3.7-6.3 5.7-13.1 13.3-21.3 30.9-24.4 49-3.1 18.2-.9 37.1 5.2 54.2 5.9 16.2 12 32.3 18.4 48.3-6.2 2.5-12.3 5-18.4 7.7-.3.1-.4.4-.4.7.1.3.4.6.8.5 19.5-4.8 38.5-10.8 57.5-16.8l56.8-18.9c37.7-13.2 75.5-25.8 112.6-40.7.6-.1 1-.8.8-1.4zm-206-110.2L626.6 53c-.7-3.7-.9-7.5-.5-11.2.5-7.4 3.4-14.6 8.1-20 2.4-2.7 5.3-4.9 8.5-6.5 3-1.5 7.1-2.6 10.9-3.9 3.8-1.3 7.7-2.9 11-3.5 3.5-.7 7.1-.7 10.7 0 7.1 1.4 13.7 5.4 18.7 10.9 2.5 2.8 4.7 5.9 6.3 9.3 1.6 3.3 2.8 7.2 4.1 11 2 6 4.2 12 6.4 18-3.3.3-6.7.8-9.9 1.5-9.3 2.3-17.3 5.5-25.9 8.2l-12.7 4.3c-4.1 1.5-8.6 2.8-12.9 4.9-5.3 2.5-10.4 5.6-15 9.2-1.5-6.9-3.2-13.8-4.9-20.7zm90.3 145.6l-56.5 19.6c-12.1 4.4-24.1 8.8-36.1 13.5-4.7-16.6-9.7-33-14.8-49.5-5.5-16.6-6.8-34.4-3.8-51.4s10.8-33.2 22.9-45.3c6-6 13.1-11 20.8-14.5 7.6-3.3 16.6-5.8 24.9-8.8 8.4-2.7 17-6.2 25.1-8.2 8.3-1.9 16.9-2.3 25.4-1.2 17 2.2 33 10.4 45.8 22 12.9 11.6 22.5 26.7 28.2 43.1 5.8 16.2 11.8 32.4 17.9 48.5-33.6 9.9-66.6 21.3-99.8 32.2z"/></svg>