<svg viewBox="0 0 1459 693.5" xmlns="http://www.w3.org/2000/svg"><style>.st0{fill:#E9EFF4;}.st1{fill:#86A6BD;}.st2{fill:#C2F4FF;}.st3{fill:#74DCFC;}.st4{fill:#004F84;}.st5{fill:#C8D7E2;}.st6{fill:#FFFFFF;}</style><path class="st0" d="m1453.9 683.3c-27.8-0.6-57.4-1.1-88.4-1.5v8.6c31-0.4 60.6-1 88.4-1.5 1.5 0 2.6-1.2 2.7-2.7 0-1.7-1.2-2.9-2.7-2.9z"/><path class="st1" d="m1119 490.9v-356.7c-3.4 0.5-6.8 0.7-10.3 0.7v418c2.9-2.5 6.2-3.2 6.2-3.2 0.1-19.9 2.3-49.6 4.1-58.8z"/><path class="st1" d="m309.6 638.3l-0.7 44.7c3.4 0.1 6.8 0.3 10.3 0.5l1-61.3c-2.4 6.2-5.7 11.8-10.6 16.1z"/><path class="st1" d="m321.6 535.5l1.4-87.4c-3 2.6-6.3 3.3-10.3 3.8l-1.1 69c4.8 3.2 7.9 8.8 10 14.6z"/><polygon class="st1" points="325.3 288.1 326.2 130.1 315.9 130.1 314.9 321.1 318.7 327.9"/><path class="st2" d="M386.6,221.3V292c37,32.1,33.7,72.8,0,115.5v276.2h375.6V221.3H386.6z"/><rect class="st2" x="829" y="221.3" width="205" height="197.1"/><rect class="st3" x="829" y="478.8" width="205" height="103"/><path class="st3" d="m316.6 138.3l-0.2-42.7-0.2-38.4c-0.2-31 20.8-56.2 46.9-56.3l708.5-0.5c26.1-0.1 47.3 24.8 47.5 55.8l0.4 78.2-802.9 3.9z"/><path class="st4" d="m1135.6 136.3c-69.9 5.5-139.8 5.1-209.7 5.5l-209.7 0.9-209.7-0.9c-69.9-0.3-139.8 0.1-209.7-5.5v-3.4c69.9-5.5 139.8-5.1 209.7-5.5l209.7-0.9 209.7 0.9c69.9 0.3 139.8-0.1 209.7 5.5v3.4z"/><path class="st3" d="m583.9 526.7h-107.8c0 59.1 48.7 107.8 107.8 107.8s107.8-48.7 107.8-107.8-48.7-107.8-107.8-107.8h-2.4l2.4 107.8z"/><path class="st5" d="M552.7,500.3V392.4c-59.1,0-107.8,48.7-107.8,107.8H552.7z"/><path class="st6" d="m922.3 384.2h-50.2v-47.1c0-1.5 1.8-2.7 4.1-2.7h46.1v49.8z"/><path class="st6" d="m994.8 384.2h-50.2v-98.3c0-0.7 0.6-1.3 1.3-1.3h48.8v99.6z"/><path class="st5" d="m1393.8 408.2c10.3-1.3 20.5-2 30.8-2.3 10.3-0.5 20.5-0.3 30.8-0.5l-3.4 4.3c-2.6-11.6-6.2-22.9-11.9-33-5.5-9.8-14.1-18.9-24.6-19.3s-20.3 7.4-27.6 16.1c-7.4 9-13.2 19.4-18.1 30.3-9.7 21.8-16.4 45-21.4 68.5-5.2 23.5-8.8 47.4-11.7 71.3-0.1 0.7-0.7 1.2-1.4 1.1s-1.2-0.7-1.1-1.4c1.6-24.2 4.4-48.3 8.9-72.2 4.7-23.8 10.9-47.6 20.7-70.1 5-11.2 10.9-22.2 18.8-31.9 4-4.8 8.5-9.4 14-13 5.4-3.5 12.1-6.1 19.1-5.9s13.6 3.4 18.6 7.7c5.1 4.3 8.9 9.6 12.1 15.1 6.2 11.1 9.9 23.1 12.4 35.1v0.1c0.4 1.9-0.8 3.7-2.7 4.1-0.3 0.1-0.5 0.1-0.8 0.1-10.3-0.2-20.5-0.1-30.8-0.5-10.3-0.3-20.5-1-30.8-2.3-0.4 0-0.6-0.4-0.6-0.7 0.2-0.4 0.4-0.6 0.7-0.7z"/><path class="st5" d="m1377.1 350.2c-33.2 1.8-66.4 2.2-99.6 2.6l-49.8 0.2-24.9 0.1c-4 0.2-8.7-0.3-11.5 0.4-3.2 0.8-6.5 2.8-9.5 5.1-12 9.9-20.7 24.4-28.2 38.7-7.5 14.6-13.4 29.9-18.5 45.5-10.1 31.3-16.3 63.9-17.5 96.9 0 0.7-0.6 1.3-1.3 1.3s-1.2-0.6-1.3-1.3c-1-33.4 4.5-66.8 14.1-98.8 4.9-16 11-31.7 18.5-46.7 3.8-7.5 7.9-14.9 12.7-21.9s10.1-13.8 17-19.4c3.5-2.8 7.5-5.3 12.3-6.5 2.4-0.7 5.3-0.5 7.1-0.5h6.2l24.9 0.1 49.7 0.2c33.2 0.4 66.3 0.8 99.5 2.6 0.4 0 0.6 0.3 0.6 0.7 0.1 0.4-0.1 0.7-0.5 0.7z"/><path class="st5" d="m1316.6 413c-9.4 1.7-18.8 2.3-28.2 2.6s-18.8 0.5-28.2 0.4c-18.8-0.4-37.6-0.2-56.4-2.4-0.7-0.1-1.2-0.7-1.1-1.4 0.1-0.6 0.6-1.1 1.1-1.1 18.8-2.2 37.6-2 56.4-2.4 9.4-0.1 18.8 0.1 28.2 0.4s18.8 0.9 28.2 2.6c0.4 0.1 0.6 0.4 0.5 0.8-0.1 0.3-0.3 0.5-0.5 0.5z"/><path class="st5" d="m1295.9 461.1c-4.8 1.7-9.6 2.3-14.4 2.6s-9.6 0.5-14.4 0.4-9.6-0.3-14.4-0.5c-4.8-0.3-9.6-0.8-14.4-1.9-0.7-0.2-1.2-0.9-1-1.6 0.1-0.5 0.5-0.9 1-1 4.8-1.1 9.6-1.6 14.4-1.9 4.8-0.2 9.6-0.4 14.4-0.5 4.8 0 9.6 0.1 14.4 0.4s9.6 0.9 14.4 2.6c0.4 0.1 0.5 0.5 0.4 0.9 0 0.3-0.2 0.4-0.4 0.5z"/><path class="st5" d="m1374.8 481.6c-2.3-3.4-6.3-3.9-8.9-3.9-2.8 0-5.4 0.4-8 0.9-0.2 0-0.4 0.2-0.5 0.4-0.1 0.3 0.1 0.7 0.4 0.8 2.5 0.9 5.1 1.5 7.4 2.1 2.3 0.8 4 1.7 4.4 2.9 0.6 1.2 0.8 3.5 0.7 5.8-0.1 2.4-0.5 4.7-0.9 7.3-1.4 10.2-2.6 20.5-3.6 30.7-0.4 3.7-0.8 7.5-1.1 11.2l-105.2 0.2-53.3 0.1c-17.8 0.2-35.3-0.3-53.4 0.7-36.3 2.2-71.1 19.4-95 46.6-12 13.5-21.2 29.4-27 46.4-1.7 4.2-2.7 8.6-3.7 12.9-1.2 4.3-1.9 8.8-2.5 13.2-0.3 2.2-0.7 4.4-0.9 6.7l-0.3 6.7-0.3 6.7c0 2.4 0.2 4.8 0.4 7.1h0.5c56.1 0.9 112.9 1.8 170.1 2.2 57.1 0.6 114.5 0.6 171.8 0.8 1.9 0 3.5-1.6 3.5-3.5l0.1-132.8c1.1-8.1 2.1-16.3 3.1-24.4 1.4-10.2 2.7-20.4 3.8-30.6 0.3-2.5 0.5-5.3 0.5-8.1 0.1-2.7 0-5.9-2.1-9.1zm-349.3 204.7l0.1-0.5c0.2-2 0.4-3.9 0.4-5.8l0.4-6.6 0.4-6.6c0.2-2.2 0.7-4.3 1-6.5 0.7-4.3 1.3-8.7 2.7-12.9 1.1-4.2 2.2-8.5 3.9-12.5 6-16.4 15.3-31.6 27-44.5 23.4-25.9 57.2-42 91.9-43.6 35.1-0.5 70.9 0 106.3 0l102.9 0.2 0.1 136.2c-55.4 0.2-110.6 0.2-166.1 0.8-56.5 0.5-113.5 1.4-171 2.3z"/><path class="st5" d="m1058.4 631.4c21.2-1.8 42.4-2.2 63.7-2.6l63.7-0.4c42.4 0.4 84.9 0.2 127.3 2.4 0.7 0 1.3 0.6 1.2 1.4 0 0.7-0.6 1.2-1.2 1.2-42.4 2.2-84.9 2-127.3 2.4l-63.7-0.4c-21.2-0.4-42.4-0.8-63.7-2.6-0.4 0-0.6-0.3-0.6-0.7 0-0.5 0.3-0.7 0.6-0.7z"/><path class="st5" d="m206.4 404.9c11.8-9.3 20.1-22.5 24.2-36.8 4.2-14.3 5-29.4 3.5-44.2-3.2-29.7-14-58.3-28.4-84.4-14.9-25.8-35.3-48.5-59.2-66.1-12-8.7-25.1-16.2-39-20.8-13.8-4.6-28.9-6.3-42.6-2-13.7 4.1-25 14.4-32.4 26.8-7.2 12.3-8.4 27.6-7 42.1 3.1 29.5 14.8 57.8 28.7 84.2 14.2 26.4 31.4 51.3 51.9 73.2 10.3 10.9 21.5 20.9 34.1 28.9 6.3 3.9 13 7.2 20.1 9 7.1 1.7 14.7 1.7 21.2-1.7 0.5-0.3 1.2-0.1 1.5 0.5 0.3 0.5 0.1 1.2-0.5 1.5-7 3.9-15.4 4.2-22.9 2.6-7.6-1.6-14.7-5-21.3-8.8-13.2-7.9-24.7-18.1-35.3-29-21.2-21.9-38.9-46.9-53.7-73.5-7.3-13.3-13.7-27.2-19-41.6-5.2-14.3-9.3-29.2-10.9-44.6-1.4-15.2-0.5-31.7 7.7-45.8 8-13.5 20.3-25 35.8-29.8 15.4-4.8 31.8-2.7 46.5 2.2 14.7 5 28.2 12.8 40.6 21.9 24.6 18.3 45.4 41.5 60.5 68.2 7.2 13.5 13.4 27.5 18.2 42s8.3 29.5 9.4 44.8c1.1 15.2 0.1 30.8-4.8 45.4-4.8 14.6-13.9 27.8-26.3 36.8-0.2 0.2-0.6 0.1-0.8-0.1-0.1-0.3 0-0.7 0.2-0.9z"/><path class="st5" d="m411.5 338.9c-1-13-6.1-25.7-14.1-36-3.9-5.1-8.6-10.1-14.4-13.5-5.7-3.5-12.1-5.6-18.5-6.9-12.9-2.3-26.1-1.4-38.5 2.7-1 0.3-1.9 1.3-2 2.4l-5.2 40.3-9.6-34c-0.1-0.4-0.3-0.8-0.6-1.1-1-1.1-2.8-1.2-3.9-0.2-20.9 18.8-37.1 43-45.2 70-4 13.4-6.1 27.5-5.3 41.6 0.8 14 4.8 27.9 12.4 39.7 0.2 0.2 0.5 0.3 0.8 0.2 0.3-0.2 0.4-0.5 0.2-0.8-7-11.9-10.2-25.6-10.4-39.2-0.3-13.6 2.1-27.3 6.3-40.2 8.1-24.5 22.7-46.6 41.6-64l11.9 43.1c0.3 1.1 1.2 1.9 2.4 2.1 1.6 0.2 3-0.9 3.2-2.5l7-52.3c10.8-3.2 22.6-3.8 33.7-1.7 5.8 1.2 11.4 3.2 16.4 6.2s8.9 7.2 12.7 12c7.3 9.4 12.1 20.8 13 32.7 1.1 11.9-1.4 24-5.9 35.2-9.3 22.4-25.8 41.9-45.3 56.6-9.9 7.3-20.7 13.5-32.3 17.3-11.5 3.8-24.3 5.6-35.6 0.9-0.6-0.2-1.2 0-1.5 0.6s0 1.2 0.6 1.5c11.9 5.4 25.6 4.3 37.7 0.6 12.2-3.7 23.5-9.9 33.8-17.2 20.5-14.8 38.1-34.4 48-58.2 4.9-11.9 7.7-24.9 6.6-37.9z"/><path class="st6" d="m250.3 488.1c13.1-58.9 52-95.6 95.7-132.7"/><path class="st5" d="m249.7 488c1.6-14 6-27.6 11.9-40.4 6.1-12.7 13.8-24.7 22.5-35.8 17.8-21.9 38.8-40.7 61.2-57.2 0.5-0.4 1.2-0.3 1.6 0.2 0.3 0.5 0.3 1.1-0.1 1.5-19.9 19.4-40.9 37.7-57.7 59.4-8.6 10.7-16.2 22.1-22.4 34.4-6.4 12.1-11.3 25-15.8 38.1-0.1 0.3-0.4 0.5-0.7 0.4s-0.5-0.3-0.5-0.6z"/><path class="st6" d="m211.1 490.1c2-153.9-59.3-239.2-132.9-284.3"/><path class="st5" d="m210.6 490.1c-1.5-27.4-3.3-54.7-7.9-81.6-4.3-26.9-11.8-53.3-22.4-78.3-10.5-25-24.3-48.7-41.8-69.5-17.5-20.7-38.2-38.7-60.9-54-0.5-0.3-0.7-1-0.3-1.6 0.3-0.5 1-0.6 1.5-0.4 23.9 13.7 45.6 31.5 63.8 52.4 18.3 20.9 32.6 45.1 43.5 70.5 10.7 25.6 17.9 52.5 22.1 79.8 3.9 27.4 5.1 55 3.5 82.5 0 0.3-0.3 0.5-0.6 0.5-0.3 0.2-0.5 0-0.5-0.3z"/><path class="st3" d="M438.7,321.1V271h259c3.6,0,6.5,2.9,6.5,6.5v43.6H438.7z"/><path class="st0" d="m1023.5 678.8c-118-0.7-210.9-0.8-328.9-1.2l-326.6 0.8c-32.7 0.3-69 0.6-106.8 0.9-0.2 0.8-0.8 1.4-1.8 1.6-7.9 1.5-14.4 6.2-22.6 6-2.8-0.1-5.7-0.3-8.6-0.7-9.4 0.2-17.5-4.9-26.9-4.9-1.1 0-1.8-0.6-2.1-1.4-69.3 0.8-139.4 2-198 4-0.7 0-1.3 0.6-1.3 1.3 0 0.8 0.6 1.4 1.3 1.4 108.9 3.8 257.7 4.6 366.6 5.5l326.6 0.9c117.7-0.4 211.4-0.1 329-0.8-0.4-4.6 0.1-9 0.1-13.4z"/><path class="st5" d="m332 527.2c-4-0.2-8-0.4-11.9-0.6l-11.2-38.4c-0.5-1.9-2.3-3.2-4.3-3.2l-75.5-0.3-75.5 0.2c-2 0-3.8 1.3-4.3 3.3l-11.3 39c-2.6 0.2-5.2 0.4-7.7 0.6-0.3 0-0.5 0.2-0.5 0.5s0.2 0.6 0.5 0.6c2.4 0.2 4.7 0.4 7.1 0.6l-10.2 35c-0.1 0.2-0.1 0.4-0.1 0.7-3.4 30.2 5.2 61.6 24 85.3 9.5 11.8 21.4 21.6 34.8 28.2 13.5 6.5 28.5 9.8 43.4 9.2v0.8c14.9 0.3 30-3.1 43.4-9.9 13.5-6.7 25.3-16.6 34.7-28.4s16.3-25.6 20.3-40.2 5.2-29.9 3.7-45c0-0.2-0.1-0.4-0.1-0.6v-0.1l-10-34.5c3.6-0.2 7.3-0.3 10.9-0.5 0.6 0 1-0.5 1.1-1.1-0.2-0.7-0.7-1.2-1.3-1.2zm-175-33.2l72.1 0.2 72.2-0.3 9.6 32.3c-26.6-0.9-53.2-0.8-79.8-1.1l-50.5 0.4c-11.1 0.3-22.2 0.5-33.3 1.1l9.7-32.6zm165.9 72.5c3.4 27.9-3.8 57.2-20.8 80-8.5 11.4-19.3 21.1-31.9 27.9-12.5 6.8-26.7 10.7-41.1 10.9v0.8c-14.5-0.6-28.7-4.6-41.2-11.6-12.5-6.9-23.3-16.7-31.7-28.1-8.5-11.4-14.6-24.4-18.1-38.2-3.5-13.6-4.2-27.8-2.7-41.7l10.9-36.5c11.5 0.6 22.9 0.9 34.4 1.1l50.5 0.4c27-0.3 54-0.2 81-1.2l10.7 36.2z"/></svg>