<svg id="personal-site" xmlns="http://www.w3.org/2000/svg" x="0px" y="0px" viewBox="0 0 1459 693.5"><path fill="#C2F4FF" d="M319.7,137.3L315.2,504c3.5,0.3,6.9,1,10.2,1.7l4.5-368.3C326.6,137.3,323.2,137.3,319.7,137.3z"/><path fill="#C2F4FF" d="M1112.6,135.6v187.5c3.4-0.1,6.9-0.2,10.3-0.1v-188C1119.5,135.3,1116.1,135.5,1112.6,135.6z"/><path fill="#C2F4FF" d="M1112.6,494.9v187.4h-21.8v10.3h27c2.8,0,5.1-2.3,5.1-5.1V499.8C1119.6,498,1116.3,495.9,1112.6,494.9z"/><path fill="#C2F4FF" d="M512.8,522.2c-0.1,55.1,1.4,110,0.8,165h293.2v-165H512.8z"/><path fill="#00A9DE" d="M1043.8,687.2h-168V534.5c0-6.8,5.5-12.3,12.3-12.3h155.7V687.2z"/><path fill="#74DCFC" d="M634.4,86.4c-0.5-0.4-0.9-1-1-1.8c-1.2-13.2-8.7-24.8-10.1-38c-1.1-10.8,2.6-21,10.9-28 c6.8-5.8,16-10.5,25.7-12.6H367.5c-26.1,0-47.2,25.1-47.2,56v78.2H607c2.5-13.4,7.8-26.6,14.9-38.1 C625.4,96.4,629.5,90.9,634.4,86.4z"/><path fill="#74DCFC" d="M1076.6,5.9H681.3c1.5,0.4,2.9,0.9,4.4,1.5c8,3.4,11.7,10,14.3,18c1.8,5.5,3.5,10.6,6.4,15.6 c2.9,4.9,3.7,9.5,5.7,14.7c3.6,10,18.6,8,27,9.7c12.5,2.6,23.6,9.5,33.6,17.1c9.1,6.9,16.9,15.7,22.7,25.5 c3.4,5.9,5.8,11.5,7.2,18.2c0.2,1.2,0.4,2.3,0.7,3.5c1.8,3.5,3.2,7.2,5.5,10.4h315.1V61.9C1123.8,31,1102.6,5.9,1076.6,5.9z"/><path fill="#004F84" d="M610.8,130.8l-100.4,0.4c-69.9,0.3-139.8-0.1-209.7,5.5v3.4c69.9,5.5,139.8,5.1,209.7,5.5l96.3,0.4 C606.6,140.6,609.5,135.8,610.8,130.8z"/><path fill="#004F84" d="M929.8,131.2l-124.9-0.5c2.6,5.1,5.6,9.8,6.3,15.4l118.6-0.5c69.9-0.3,139.8,0.1,209.7-5.5v-3.4 C1069.6,131.1,999.7,131.5,929.8,131.2z"/><path fill="#C8D7E2" d="M909.8,476.8c53.4-1.5,106.8-2.2,160.2-2.5c0.4,0,0.9,0.1,1.2,0.3l0.1,0c34,14.8,68.7,28.2,103.7,40.4l-3.6,5.9 c-3.1-3.1-5.6-6.2-8-9.6c-2.4-3.3-4.6-6.7-6.6-10.3c-4-7.1-7.2-14.6-9.6-22.4c-0.6-1.9,0.5-3.9,2.4-4.5c0.3-0.1,0.7-0.2,1.1-0.2 l22.1,0c3.8,0,7.3,0.1,10.5-0.5c3.3-0.4,6.5-1.5,9.6-2.7c12.4-5.3,21.2-17.7,22.3-31.1c0.3-14,0.1-29.2,0.1-43.8l0-22.1l0-11 c0.1-3.8-0.2-6.8-0.8-10.2c-2.7-13.1-13-24.3-25.8-28.1c-3.2-0.9-6.5-1.5-9.9-1.5l-10.9-0.1l-22.1,0l-88.3-0.2l-88.3-0.4L925,322 c-7.3,0.1-15-0.5-21.6,0.4c-6.8,1-13.2,4.1-18.5,8.5c-5.3,4.5-9.4,10.3-11.6,16.8c-2.6,6.5-2.2,13.5-2.3,21l-0.2,44.1l-0.2,22.1 c-0.3,7.1,1.4,14.1,4.6,20.4c6.6,12.5,20.3,20.9,34.6,20.9V476.8z M909.8,478.9c-15.3,0.2-30.3-8.4-37.8-21.9 c-3.7-6.7-5.7-14.5-5.5-22.1l-0.2-22.1l-0.2-44.1c0-7.1-0.5-15.2,2.4-22.6c2.5-7.4,7.1-14,13-19.1c6-5,13.3-8.6,21-9.8 c8-1.2,15.1-0.5,22.5-0.8l44.1-0.3l88.3-0.4l88.3-0.2l22.1,0l11.1,0c4,0.1,8,0.7,11.9,1.8c15.5,4.5,27.9,17.9,31.2,33.8 c0.8,3.9,1.1,8.2,1,11.8l0,11l0,22.1c-0.1,14.9,0.2,29.1-0.3,44.5c-1.4,16.1-12,30.9-26.9,37.2c-3.7,1.5-7.6,2.8-11.5,3.2 c-4,0.6-8,0.5-11.5,0.5l-22.1,0l3.5-4.7c2.2,7.3,5.2,14.4,8.9,21c1.8,3.3,3.9,6.6,6.1,9.6c2.2,3,4.7,6.1,7.1,8.6l0.1,0.1 c1.4,1.4,1.4,3.6,0,5c-1,1-2.4,1.3-3.7,0.8c-35.2-12.4-70-25.8-104-41.2l1.3,0.3c-53.4-0.4-106.8-1-160.2-2.5V478.9z"/><path fill="#C2F4FF" d="M866.5,434.9l-0.2-22.1l-0.2-44.1c0-7.1-0.5-15.2,2.4-22.6c2.5-7.4,7.1-14,13-19.1c6-5,13.3-8.6,21-9.8 c8-1.2,15.1-0.5,22.5-0.8l44.1-0.3l74.7-0.3V211.6h-324l-94,32.2l-12.4-32.2H420.3c-6.8,0-12.3,5.5-12.3,12.3v227.5h461.5 C867.4,446.1,866.4,440.4,866.5,434.9z"/><circle fill="#C8D7E2" cx="1110.3" cy="401.7" r="13.2"/><circle fill="#C8D7E2" cx="1044.5" cy="401.7" r="13.2"/><circle fill="#C8D7E2" cx="978.6" cy="401.7" r="13.2"/><polygon fill="#00A9DE" points="507.6,381.7 569.7,290.1 640.8,381.7 "/><path fill="#E9EFF4" d="M1455.9,682.5c-217.7-4.7-548.5-4.2-766.2-5L513.4,678c0,4.8-0.2,9.6-0.6,14.4l176.8,0.6 c217.7-0.8,548.5-0.4,766.2-5c1.5,0,2.6-1.2,2.7-2.7C1458.6,683.7,1457.4,682.5,1455.9,682.5z"/><path fill="#C8D7E2" d="M510.5,501.8L510.5,501.8c-96.9-0.8-193.7-0.5-290.5-0.9h0c-2,0-3.6,1.6-3.6,3.6l0.7,139.9h6.6l-0.2-136.3 c94.7-0.3,189.4-0.1,284.2-0.8l2.4,181.3l0,0.4l-145.3-1.8l-66.4-0.4c0,1.8-0.1,3.7-0.2,5.5l68.6-0.4l144.7-1.9l0.5,0l1.3-185.5 C513.2,503,512,501.8,510.5,501.8z"/><polyline fill="#FFFFFF" points="231.2,526.4 362,605.6 500.3,521.2 "/><path fill="#C8D7E2" d="M231.6,525.8c11.4,5.7,22.6,11.9,33.7,18.1c11.1,6.3,22.1,12.6,33,19.2l32.8,19.6c11,6.4,21.7,13.3,32.6,19.9 l-3.6,0l69.4-41.7c23.2-13.9,46.5-27.4,70-40.8c0.6-0.3,1.4-0.1,1.7,0.5c0.3,0.6,0.1,1.3-0.4,1.7c-22.6,14.8-45.4,29.4-68.3,43.6 l-68.9,42.6c-1.1,0.7-2.5,0.6-3.6,0c-10.9-6.6-22-12.9-32.8-19.7l-32.5-20c-10.9-6.6-21.6-13.5-32.3-20.4c-10.7-7-21.3-14-31.7-21.5 c-0.3-0.2-0.4-0.6-0.1-0.9C230.9,525.8,231.3,525.7,231.6,525.8z"/><path fill="#C8D7E2" d="M120,408.4c-40.2,27.3-79.6,55.4-119.3,83.4c-0.3,0.2-0.4,0.6-0.2,0.9c0.2,0.3,0.6,0.4,0.9,0.2 c41-25.9,80.9-53.1,121.5-79.7C121.9,411.7,120.8,410.1,120,408.4z"/><path fill="#C8D7E2" d="M299,686.8l-0.1-2.8c-0.1-1.8-0.4-3.7-0.7-5.5c-0.8-3.6-1.9-7.2-3.6-10.5c-3.2-6.6-8.3-12.4-14.5-16.6 c-6.2-4.1-13.5-6.7-21-7.1c-7.4-0.3-14.3-0.2-21.5-0.3l-61.6-0.6l1.3-112.5c0.6-45.1,0.6-67.4,0.7-112.6c1.9-1.4,3.7-3,5.3-4.7 c10-11.8,10.7-28.6,10.7-28.6c0.4-10.3-3.4-20.9-10.7-28.6c-0.9-1-1.9-1.9-2.9-2.8l-5.3-3.9c-6.1-3.7-13.2-5.8-20.4-5.9 c-10.8-0.2-21.6,4.2-29.3,11.9c-7.8,7.6-12.3,18.4-12.4,29.3c0,8,2.4,16,6.8,22.6c-0.5,0.5,3.1,4.8,3.4,4.5c0.7,0.8,1.3,1.5,2,2.2 c1.2,1.2,2.4,2.2,3.7,3.2l0.3,112.3l0.5,79.8c0.1,11.2,0.2,22.4,0.4,33.5l-63.6-0.2c-7.2,0-14.1-0.2-21.6,0.1 c-7.7,0.3-15.3,2.9-21.8,7c-6.5,4.2-11.9,10.1-15.4,17C4.3,674,2.8,682.1,3,689.5l0,0.1c0.1,1.9,1.6,3.5,3.6,3.4l146.8-0.7l72.9-1 l72-0.1l0.5-1.4C299,688.9,299.1,687.4,299,686.8z M130.2,409.5c-6.4-6.5-10-15.4-10-24.5c-0.1-9,3.5-18,9.9-24.5 c6.4-6.5,15.3-10.3,24.5-10.4c9.2-0.2,18.4,3.3,25.2,9.7c6.8,6.4,11.2,15.6,11.5,25.2c0,0-0.9,15.8-11.6,25.2 c-6.9,6.4-16,9.9-25.2,9.6C145.6,419.9,136.6,416,130.2,409.5z M173.2,643.5l-21-0.2l-17.1,0c0.2-11.2,0.3-22.4,0.4-33.5l0.5-79.8 l0.3-107.8c5.7,2.8,12.1,4.3,18.5,4.3c5.7-0.1,11.3-1.4,16.5-3.8c0.1,43.1,0.2,63.1,0.7,106.3L173.2,643.5z M223.7,687.6l-72.7-1 l-140.8-0.7c0.6-12.1,7-23.2,17-29.8c5.5-3.5,11.8-5.7,18.3-6c6.7-0.2,14.1-0.1,21.2-0.2l85.5-0.2l85.5-0.8c7.1,0,14.4-0.2,21.2-0.1 c6.8,0.2,13.4,2.4,19.2,5.9c5.7,3.6,10.6,8.8,13.8,14.8c1.7,3,2.8,6.3,3.6,9.6l1,7.7L223.7,687.6z"/><path fill="#C8D7E2" d="M835.5,174.7c-0.2-0.7-0.9-1.1-1.6-0.9c-3.9,1.1-7.9,2.2-11.8,3.4c-5-16.5-10.2-33-15.4-49.5 c-5.6-17.4-15.5-33.5-28.9-46.1c-13.5-12.5-30.7-21.4-49.2-24c-4.9-0.7-9.8-0.9-14.8-0.7c-1.6-6.4-3.2-12.9-4.9-19.3 c-1.1-3.9-1.9-7.8-3.6-11.9c-1.7-4-4-7.6-6.7-11c-5.4-6.8-13.3-11.6-22-13.5c-4.3-1-8.9-1.1-13.3-0.2c-4.6,0.9-8.2,2.4-12.1,3.6 c-3.8,1.3-7.5,2.4-11.8,4.5c-4,2-7.6,4.9-10.4,8.3c-5.7,6.8-9,15.5-9.2,24.1c-0.1,4.3,0.4,8.7,1.5,12.8c1.2,4.2,2.6,7.9,4,11.7 c0.6,1.7,1.2,3.4,1.8,5c-45.5,29.6-90.6,59.6-136,89.3L319.8,273.8L186,364.3c1.3,1.6,2.2,3.7,2.9,5.9l134.8-90.4l170.6-114.5 C539,135,583.8,105,628.3,74.6c1.5,4,3,7.9,4.6,11.8c-2.2,1.8-4.3,3.7-6.3,5.7c-13.1,13.3-21.3,30.9-24.4,49 c-3.1,18.2-0.9,37.1,5.2,54.2c5.9,16.2,12,32.3,18.4,48.3c-6.2,2.5-12.3,5-18.4,7.7c-0.3,0.1-0.4,0.4-0.4,0.7 c0.1,0.3,0.4,0.6,0.8,0.5c19.5-4.8,38.5-10.8,57.5-16.8l56.8-18.9c37.7-13.2,75.5-25.8,112.6-40.7 C835.3,176,835.7,175.3,835.5,174.7z M629.5,64.5L626.6,53c-0.7-3.7-0.9-7.5-0.5-11.2c0.5-7.4,3.4-14.6,8.1-20 c2.4-2.7,5.3-4.9,8.5-6.5c3-1.5,7.1-2.6,10.9-3.9c3.8-1.3,7.7-2.9,11-3.5c3.5-0.7,7.1-0.7,10.7,0c7.1,1.4,13.7,5.4,18.7,10.9 c2.5,2.8,4.7,5.9,6.3,9.3c1.6,3.3,2.8,7.2,4.1,11c2,6,4.2,12,6.4,18c-3.3,0.3-6.7,0.8-9.9,1.5c-9.3,2.3-17.3,5.5-25.9,8.2l-12.7,4.3 c-4.1,1.5-8.6,2.8-12.9,4.9c-5.3,2.5-10.4,5.6-15,9.2C632.9,78.3,631.2,71.4,629.5,64.5z M719.8,210.1l-56.5,19.6 c-12.1,4.4-24.1,8.8-36.1,13.5c-4.7-16.6-9.7-33-14.8-49.5c-5.5-16.6-6.8-34.4-3.8-51.4c3-17,10.8-33.2,22.9-45.3 c6-6,13.1-11,20.8-14.5c7.6-3.3,16.6-5.8,24.9-8.8c8.4-2.7,17-6.2,25.1-8.2c8.3-1.9,16.9-2.3,25.4-1.2c17,2.2,33,10.4,45.8,22 c12.9,11.6,22.5,26.7,28.2,43.1c5.8,16.2,11.8,32.4,17.9,48.5C786,187.8,753,199.2,719.8,210.1z"/></svg>