<svg id="business-site" xmlns="http://www.w3.org/2000/svg" x="0px" y="0px" viewBox="0 0 250 119"><path fill="#E9EFF4" d="M249.1,117c-4.8-0.1-9.8-0.2-15.1-0.3v1.5c5.3-0.1,10.4-0.2,15.1-0.3c0.3,0,0.4-0.2,0.5-0.5 C249.6,117.2,249.4,117,249.1,117z"/><path fill="#86A6BD" d="M191.8,84V22.9c-0.6,0.1-1.2,0.1-1.8,0.1v71.6c0.5-0.4,1.1-0.5,1.1-0.5C191.1,90.7,191.5,85.6,191.8,84z"/><path fill="#86A6BD" d="M53.1,109.3l-0.1,7.7c0.6,0,1.2,0.1,1.8,0.1l0.2-10.5C54.5,107.6,53.9,108.6,53.1,109.3z"/><path fill="#86A6BD" d="M55.1,91.7l0.2-15c-0.5,0.4-1.1,0.6-1.8,0.7l-0.2,11.8C54.2,89.7,54.8,90.7,55.1,91.7z"/><polygon fill="#86A6BD" points="55.8,49.3 55.9,22.2 54.1,22.2 54,55 54.6,56.1 "/><path fill="#C2F4FF" d="M66.3,37.9V50c6.3,5.5,5.8,12.5,0,19.8v47.3h64.4V37.9H66.3z"/><rect x="142.1" y="37.9" fill="#C2F4FF" width="35.1" height="33.8"/><rect x="142.1" y="82" fill="#74DCFC" width="35.1" height="17.6"/><path fill="#74DCFC" d="M54.3,23.6l0-7.3l0-6.6c0-5.3,3.6-9.6,8-9.6L183.6,0c4.5,0,8.1,4.2,8.1,9.6l0.1,13.4L54.3,23.6z"/><path fill="#004F84" d="M194.6,23.3c-12,0.9-24,0.9-35.9,0.9l-35.9,0.2l-35.9-0.2c-12-0.1-24,0-35.9-0.9v-0.6c12-0.9,24-0.9,35.9-0.9 l35.9-0.2l35.9,0.2c12,0.1,24,0,35.9,0.9V23.3z"/><path fill="#74DCFC" d="M100.1,90.2H81.6c0,10.1,8.3,18.5,18.5,18.5c10.1,0,18.5-8.3,18.5-18.5s-8.3-18.5-18.5-18.5c-0.1,0-0.3,0-0.4,0 L100.1,90.2z"/><path fill="#FFFFFF" d="M94.7,85.7V67.2c-10.1,0-18.5,8.3-18.5,18.5L94.7,85.7L94.7,85.7z"/><path fill="#FFFFFF" d="M158.1,65.8h-8.6v-8.1c0-0.3,0.3-0.5,0.7-0.5h7.9L158.1,65.8L158.1,65.8z"/><path fill="#FFFFFF" d="M170.5,65.8h-8.6V48.9c0-0.1,0.1-0.2,0.2-0.2h8.4L170.5,65.8L170.5,65.8z"/><path fill="#C8D7E2" d="M238.8,69.9c1.8-0.2,3.5-0.3,5.3-0.4c1.8-0.1,3.5-0.1,5.3-0.1l-0.6,0.7c-0.4-2-1.1-3.9-2-5.7 c-0.9-1.7-2.4-3.2-4.2-3.3c-1.8-0.1-3.5,1.3-4.7,2.8c-1.3,1.5-2.3,3.3-3.1,5.2c-1.7,3.7-2.8,7.7-3.7,11.7c-0.9,4-1.5,8.1-2,12.2 c0,0.1-0.1,0.2-0.2,0.2c-0.1,0-0.2-0.1-0.2-0.2c0.3-4.1,0.8-8.3,1.5-12.4c0.8-4.1,1.9-8.2,3.5-12c0.9-1.9,1.9-3.8,3.2-5.5 c0.7-0.8,1.5-1.6,2.4-2.2c0.9-0.6,2.1-1,3.3-1c1.2,0,2.3,0.6,3.2,1.3c0.9,0.7,1.5,1.6,2.1,2.6c1.1,1.9,1.7,4,2.1,6v0 c0.1,0.3-0.1,0.6-0.5,0.7c-0.1,0-0.1,0-0.1,0c-1.8,0-3.5,0-5.3-0.1c-1.8-0.1-3.5-0.2-5.3-0.4c-0.1,0-0.1-0.1-0.1-0.1 C238.8,69.9,238.8,69.9,238.8,69.9z"/><path fill="#C8D7E2" d="M236,59.9c-5.7,0.3-11.4,0.4-17.1,0.4l-8.5,0l-4.3,0c-0.7,0-1.5-0.1-2,0.1c-0.5,0.1-1.1,0.5-1.6,0.9 c-2.1,1.7-3.5,4.2-4.8,6.6c-1.3,2.5-2.3,5.1-3.2,7.8c-1.7,5.4-2.8,10.9-3,16.6c0,0.1-0.1,0.2-0.2,0.2c-0.1,0-0.2-0.1-0.2-0.2 c-0.2-5.7,0.8-11.4,2.4-16.9c0.8-2.7,1.9-5.4,3.2-8c0.7-1.3,1.4-2.6,2.2-3.8c0.8-1.2,1.7-2.4,2.9-3.3c0.6-0.5,1.3-0.9,2.1-1.1 c0.4-0.1,0.9-0.1,1.2-0.1h1.1l4.3,0l8.5,0c5.7,0.1,11.4,0.1,17,0.4c0.1,0,0.1,0.1,0.1,0.1C236.1,59.9,236.1,59.9,236,59.9z"/><path fill="#C8D7E2" d="M225.6,70.7c-1.6,0.3-3.2,0.4-4.8,0.4c-1.6,0.1-3.2,0.1-4.8,0.1c-3.2-0.1-6.4,0-9.7-0.4c-0.1,0-0.2-0.1-0.2-0.2 c0-0.1,0.1-0.2,0.2-0.2c3.2-0.4,6.4-0.3,9.7-0.4c1.6,0,3.2,0,4.8,0.1c1.6,0.1,3.2,0.2,4.8,0.4C225.7,70.5,225.7,70.5,225.6,70.7 C225.7,70.7,225.7,70.7,225.6,70.7z"/><path fill="#C8D7E2" d="M222.1,78.9c-0.8,0.3-1.6,0.4-2.5,0.4c-0.8,0.1-1.6,0.1-2.5,0.1c-0.8,0-1.6-0.1-2.5-0.1 c-0.8-0.1-1.6-0.1-2.5-0.3c-0.1,0-0.2-0.2-0.2-0.3c0-0.1,0.1-0.2,0.2-0.2c0.8-0.2,1.6-0.3,2.5-0.3c0.8,0,1.6-0.1,2.5-0.1 c0.8,0,1.6,0,2.5,0.1c0.8,0.1,1.6,0.2,2.5,0.4C222.1,78.7,222.2,78.8,222.1,78.9C222.1,78.9,222.1,78.9,222.1,78.9z"/><path fill="#C8D7E2" d="M235.6,82.5c-0.4-0.6-1.1-0.7-1.5-0.7c-0.5,0-0.9,0.1-1.4,0.2c0,0-0.1,0-0.1,0.1c0,0.1,0,0.1,0.1,0.1 c0.4,0.2,0.9,0.3,1.3,0.4c0.4,0.1,0.7,0.3,0.8,0.5c0.1,0.2,0.1,0.6,0.1,1c0,0.4-0.1,0.8-0.2,1.3c-0.2,1.7-0.4,3.5-0.6,5.3 c-0.1,0.6-0.1,1.3-0.2,1.9l-18,0l-9.1,0c-3.1,0-6-0.1-9.2,0.1c-6.2,0.4-12.2,3.3-16.3,8c-2.1,2.3-3.6,5-4.6,8 c-0.3,0.7-0.5,1.5-0.6,2.2c-0.2,0.7-0.3,1.5-0.4,2.3c-0.1,0.4-0.1,0.8-0.2,1.1l-0.1,1.1l-0.1,1.1c0,0.4,0,0.8,0.1,1.2h0.1 c9.6,0.2,19.3,0.3,29.1,0.4c9.8,0.1,19.6,0.1,29.4,0.1l0,0c0.3,0,0.6-0.3,0.6-0.6l0-22.8c0.2-1.4,0.4-2.8,0.5-4.2 c0.2-1.7,0.5-3.5,0.7-5.2c0.1-0.4,0.1-0.9,0.1-1.4C236,83.6,236,83,235.6,82.5z M175.7,117.5L175.7,117.5c0.1-0.4,0.1-0.8,0.1-1.1 l0.1-1.1l0.1-1.1c0-0.4,0.1-0.7,0.2-1.1c0.1-0.7,0.2-1.5,0.5-2.2c0.2-0.7,0.4-1.5,0.7-2.1c1-2.8,2.6-5.4,4.6-7.6 c4-4.4,9.8-7.2,15.7-7.5c6-0.1,12.1,0,18.2,0l17.6,0l0,23.3c-9.5,0-19,0-28.5,0.1C195.4,117.2,185.6,117.4,175.7,117.5z"/><path fill="#C8D7E2" d="M181.4,108.1c3.6-0.3,7.3-0.4,10.9-0.4l10.9-0.1c7.3,0.1,14.5,0,21.8,0.4c0.1,0,0.2,0.1,0.2,0.2 c0,0.1-0.1,0.2-0.2,0.2c-7.3,0.4-14.5,0.3-21.8,0.4l-10.9-0.1c-3.6-0.1-7.3-0.1-10.9-0.4c-0.1,0-0.1-0.1-0.1-0.1 C181.3,108.2,181.3,108.1,181.4,108.1z"/><path fill="#C8D7E2" d="M35.4,69.3c2-1.6,3.4-3.9,4.1-6.3c0.7-2.5,0.9-5,0.6-7.6c-0.5-5.1-2.4-10-4.9-14.5c-2.6-4.4-6-8.3-10.1-11.3 c-2.1-1.5-4.3-2.8-6.7-3.6c-2.4-0.8-5-1.1-7.3-0.3c-2.3,0.7-4.3,2.5-5.6,4.6c-1.2,2.1-1.4,4.7-1.2,7.2c0.5,5.1,2.5,9.9,4.9,14.4 c2.4,4.5,5.4,8.8,8.9,12.5c1.8,1.9,3.7,3.6,5.8,5c1.1,0.7,2.2,1.2,3.4,1.5c1.2,0.3,2.5,0.3,3.6-0.3c0.1-0.1,0.2,0,0.3,0.1 c0.1,0.1,0,0.2-0.1,0.3c-1.2,0.7-2.6,0.7-3.9,0.4c-1.3-0.3-2.5-0.9-3.6-1.5c-2.3-1.4-4.2-3.1-6-5C14,61.3,11,57,8.5,52.4 c-1.3-2.3-2.3-4.7-3.3-7.1c-0.9-2.5-1.6-5-1.9-7.6c-0.2-2.6-0.1-5.4,1.3-7.8c1.4-2.3,3.5-4.3,6.1-5.1c2.6-0.8,5.4-0.5,8,0.4 c2.5,0.9,4.8,2.2,7,3.8c4.2,3.1,7.8,7.1,10.4,11.7c1.2,2.3,2.3,4.7,3.1,7.2s1.4,5.1,1.6,7.7c0.2,2.6,0,5.3-0.8,7.8 c-0.8,2.5-2.4,4.8-4.5,6.3c0,0-0.1,0-0.1,0C35.3,69.4,35.4,69.3,35.4,69.3z"/><path fill="#C8D7E2" d="M70.5,58c-0.2-2.2-1-4.4-2.4-6.2c-0.7-0.9-1.5-1.7-2.5-2.3c-1-0.6-2.1-1-3.2-1.2c-2.2-0.4-4.5-0.2-6.6,0.5 c-0.2,0.1-0.3,0.2-0.3,0.4l0,0l-0.9,6.9L53,50.3l0,0c0-0.1-0.1-0.1-0.1-0.2c-0.2-0.2-0.5-0.2-0.7,0c-3.6,3.2-6.4,7.4-7.7,12 c-0.7,2.3-1,4.7-0.9,7.1c0.1,2.4,0.8,4.8,2.1,6.8c0,0,0.1,0.1,0.1,0c0.1,0,0.1-0.1,0-0.1c-1.2-2-1.7-4.4-1.8-6.7 c-0.1-2.3,0.4-4.7,1.1-6.9c1.4-4.2,3.9-8,7.1-11l2,7.4c0.1,0.2,0.2,0.3,0.4,0.4c0.3,0,0.5-0.2,0.5-0.4l1.2-9 c1.9-0.5,3.9-0.7,5.8-0.3c1,0.2,2,0.5,2.8,1.1c0.9,0.5,1.5,1.2,2.2,2.1c1.3,1.6,2.1,3.6,2.2,5.6c0.2,2-0.2,4.1-1,6 c-1.6,3.8-4.4,7.2-7.8,9.7c-1.7,1.3-3.5,2.3-5.5,3c-2,0.7-4.2,1-6.1,0.2c-0.1,0-0.2,0-0.3,0.1s0,0.2,0.1,0.3c2,0.9,4.4,0.7,6.5,0.1 c2.1-0.6,4-1.7,5.8-2.9c3.5-2.5,6.5-5.9,8.2-10C70.2,62.5,70.7,60.2,70.5,58z"/><path fill="#FFFFFF" d="M42.9,83.6c2.2-10.1,8.9-16.4,16.4-22.7"/><path fill="#C8D7E2" d="M42.8,83.6c0.3-2.4,1-4.7,2-6.9c1-2.2,2.4-4.2,3.9-6.1c3.1-3.8,6.6-7,10.5-9.8c0.1-0.1,0.2-0.1,0.3,0 c0.1,0.1,0.1,0.2,0,0.3c-3.4,3.3-7,6.5-9.9,10.2c-1.5,1.8-2.8,3.8-3.8,5.9c-1.1,2.1-1.9,4.3-2.7,6.5c0,0.1-0.1,0.1-0.1,0.1 C42.8,83.6,42.8,83.6,42.8,83.6z"/><path fill="#FFFFFF" d="M36.2,83.9c0.3-26.4-10.2-41-22.8-48.7"/><path fill="#C8D7E2" d="M36.1,83.9c-0.3-4.7-0.6-9.4-1.4-14c-0.7-4.6-2-9.1-3.8-13.4c-1.8-4.3-4.2-8.3-7.2-11.9 c-3-3.5-6.5-6.6-10.4-9.3c-0.1-0.1-0.1-0.2-0.1-0.3c0.1-0.1,0.2-0.1,0.3-0.1c4.1,2.3,7.8,5.4,10.9,9c3.1,3.6,5.6,7.7,7.5,12.1 c1.8,4.4,3.1,9,3.8,13.7c0.7,4.7,0.9,9.4,0.6,14.1C36.3,83.9,36.2,84,36.1,83.9C36.1,84,36.1,84,36.1,83.9z"/><path fill="#74DCFC" d="M75.2,55v-8.6h44.4c0.6,0,1.1,0.5,1.1,1.1V55H75.2z"/><path fill="#E9EFF4" d="M175.4,116.2c-20.2-0.1-36.1-0.1-56.4-0.2l-56,0.1c-5.6,0.1-11.8,0.1-18.3,0.2c0,0.1-0.1,0.2-0.3,0.3 c-1.4,0.3-2.5,1.1-3.9,1c-0.5,0-1-0.1-1.5-0.1c-1.6,0-3-0.8-4.6-0.8c-0.2,0-0.3-0.1-0.4-0.2c-11.9,0.1-23.9,0.3-33.9,0.7 c-0.1,0-0.2,0.1-0.2,0.2c0,0.1,0.1,0.2,0.2,0.2c18.7,0.7,44.2,0.8,62.8,0.9l56,0.2c20.2-0.1,36.2,0,56.4-0.1 C175.3,117.8,175.4,117,175.4,116.2z"/><path fill="#C8D7E2" d="M56.9,90.3c-0.7,0-1.4-0.1-2-0.1l-1.9-6.6c-0.1-0.3-0.4-0.5-0.7-0.5l0,0L39.3,83l-12.9,0l0,0 c-0.3,0-0.7,0.2-0.7,0.6l-1.9,6.7c-0.4,0-0.9,0.1-1.3,0.1c-0.1,0-0.1,0-0.1,0.1s0,0.1,0.1,0.1c0.4,0,0.8,0.1,1.2,0.1l-1.7,6l0,0 c0,0,0,0.1,0,0.1c-0.6,5.2,0.9,10.6,4.1,14.6c1.6,2,3.7,3.7,6,4.8c2.3,1.1,4.9,1.7,7.4,1.6v0.1c2.6,0.1,5.1-0.5,7.4-1.7 c2.3-1.1,4.3-2.8,5.9-4.9c1.6-2,2.8-4.4,3.5-6.9c0.7-2.5,0.9-5.1,0.6-7.7c0,0,0-0.1,0-0.1v0l-1.7-5.9c0.6,0,1.3-0.1,1.9-0.1 c0.1,0,0.2-0.1,0.2-0.2C57.1,90.4,57,90.3,56.9,90.3z M26.9,84.6l12.4,0l12.4-0.1l1.6,5.5c-4.6-0.2-9.1-0.1-13.7-0.2L31,90 c-1.9,0.1-3.8,0.1-5.7,0.2L26.9,84.6z M55.3,97c0.6,4.8-0.7,9.8-3.6,13.7c-1.5,2-3.3,3.6-5.5,4.8c-2.1,1.2-4.6,1.8-7,1.9v0.1 c-2.5-0.1-4.9-0.8-7.1-2c-2.1-1.2-4-2.9-5.4-4.8c-1.5-2-2.5-4.2-3.1-6.5c-0.6-2.3-0.7-4.8-0.5-7.1l1.9-6.3c2,0.1,3.9,0.2,5.9,0.2 l8.7,0.1c4.6-0.1,9.3,0,13.9-0.2L55.3,97z"/></svg>