<?xml version="1.0" encoding="UTF-8" standalone="no"?><!DOCTYPE svg PUBLIC "-//W3C//DTD SVG 1.1//EN" "http://www.w3.org/Graphics/SVG/1.1/DTD/svg11.dtd"><svg width="100%" height="100%" viewBox="0 0 117 111" version="1.1" xmlns="http://www.w3.org/2000/svg" xmlns:xlink="http://www.w3.org/1999/xlink" xml:space="preserve" xmlns:serif="http://www.serif.com/" style="fill-rule:evenodd;clip-rule:evenodd;stroke-linejoin:round;stroke-miterlimit:1.41421;"><g id="Enable"><path d="M91.151,110.715l-90.524,0l0,-63.51c0,-9.538 7.732,-17.271 17.27,-17.271l54.613,0c10.295,0 18.641,8.346 18.641,18.641l0,62.14Z" style="fill:#E1E2E2;fill-rule:nonzero;"/><path d="M90.706,22.509l-39.032,12.07c0,0 -3.215,-4.383 0.534,-13.102c3.749,-8.719 17.564,-17.247 31.608,-19.616c5.264,-0.888 12.525,-1.257 18.679,-1.4c8.568,-0.198 15.145,8.037 13.604,17.025c-0.681,3.966 -2.166,8.304 -5.006,12.647" style="fill:#CCCED0;fill-rule:nonzero;"/><path d="M69.104,74.512c0,12.502 -10.135,22.638 -22.638,22.638c-12.502,0 -22.637,-10.136 -22.637,-22.638c0,-12.502 10.135,-22.638 22.637,-22.638c12.503,0 22.638,10.136 22.638,22.638" style="fill:#6F93AD;fill-rule:nonzero;"/><rect x="23.833" y="61.294" width="45.271" height="13.218" style="fill:#6F93AD;"/><path d="M69.104,61.661c0,12.502 -10.135,22.638 -22.638,22.638c-12.502,0 -22.637,-10.136 -22.637,-22.638c0,-12.502 10.135,-22.638 22.637,-22.638c12.503,0 22.638,10.136 22.638,22.638" style="fill:#CCCED0;fill-rule:nonzero;"/><path d="M37.675,63.617c2.282,2.07 4.5,4.202 6.719,6.335l-1.408,0.092l3.292,-4.369c1.091,-1.462 2.213,-2.899 3.338,-4.335c1.115,-1.442 2.245,-2.874 3.401,-4.286c1.141,-1.423 2.31,-2.825 3.499,-4.211c0.24,-0.279 0.662,-0.312 0.942,-0.071c0.26,0.223 0.304,0.606 0.116,0.883c-1.029,1.508 -2.08,3 -3.158,4.472c-1.063,1.482 -2.153,2.945 -3.256,4.397c-1.095,1.459 -2.191,2.916 -3.32,4.348l-3.365,4.314l-0.016,0.021c-0.313,0.402 -0.893,0.473 -1.294,0.16c-0.034,-0.026 -0.069,-0.058 -0.098,-0.088c-2.132,-2.219 -4.265,-4.438 -6.335,-6.719c-0.247,-0.273 -0.227,-0.695 0.046,-0.943c0.256,-0.232 0.646,-0.227 0.897,0" style="fill:#fff;fill-rule:nonzero;"/><path d="M83.518,16.505c-28.541,5.03 -43.563,31.834 -37.976,33.448c5.483,1.583 16.947,-19.821 33.494,-21.375c12.767,-1.2 10.631,4.567 3.303,7.795c-10.851,4.778 -12.738,9.053 -11.087,12.071c1.651,3.018 21.755,-2.957 33.967,-12.071c7.345,-5.483 9.435,-13.581 9.435,-13.581" style="fill:#CCCED0;fill-rule:nonzero;"/><path d="M83.643,17.16c0,0 -0.179,0.035 -0.525,0.103c-0.347,0.067 -0.865,0.165 -1.514,0.316c-1.308,0.293 -3.237,0.775 -5.618,1.589c-2.377,0.824 -5.214,1.988 -8.29,3.671c-3.078,1.675 -6.382,3.883 -9.667,6.674c-3.269,2.797 -6.543,6.196 -9.281,10.272c-1.334,2.035 -2.61,4.269 -3.247,6.63c-0.15,0.583 -0.24,1.177 -0.216,1.695c0.015,0.254 0.058,0.491 0.132,0.65c0.078,0.158 0.15,0.231 0.261,0.288l0.099,0.038c0.056,0.017 -0.051,-0.009 -0.014,-0.001l0.062,0.013l0.123,0.027c0.127,0.014 0.133,0.013 0.273,0.01c0.219,-0.01 0.467,-0.067 0.723,-0.156c0.517,-0.193 1.055,-0.504 1.578,-0.87c2.097,-1.502 4.041,-3.526 6.046,-5.481c2.001,-1.978 4.051,-3.989 6.245,-5.897c2.194,-1.905 4.533,-3.716 7.091,-5.252c2.552,-1.534 5.346,-2.782 8.323,-3.447c1.496,-0.348 3.004,-0.489 4.497,-0.57c1.499,-0.067 3.015,-0.078 4.577,0.199c0.78,0.149 1.581,0.352 2.384,0.825c0.397,0.24 0.803,0.568 1.113,1.043c0.309,0.475 0.461,1.097 0.41,1.639c-0.107,1.102 -0.651,1.846 -1.168,2.479c-0.539,0.629 -1.138,1.14 -1.759,1.599c-1.232,0.911 -2.608,1.608 -3.922,2.174c-1.294,0.576 -2.527,1.174 -3.738,1.837c-2.377,1.32 -4.715,2.857 -6.124,4.859c-0.69,0.995 -1.013,2.094 -0.749,3.093c0.065,0.25 0.153,0.498 0.282,0.735l0.022,0.045c0.015,0.029 -0.062,-0.102 -0.012,-0.021l0.066,0.097c-0.003,-0.035 -0.056,-0.065 -0.016,-0.039c0.028,0.03 0.113,0.068 0.2,0.107c0.402,0.152 1.027,0.195 1.62,0.188c2.456,-0.078 4.969,-0.699 7.333,-1.353c4.751,-1.364 9.121,-3.147 13.015,-5.029c3.894,-1.894 7.315,-3.923 10.155,-5.963c0.647,-0.485 1.401,-1.054 1.969,-1.573c0.292,-0.266 0.579,-0.528 0.861,-0.785c0.27,-0.278 0.536,-0.551 0.796,-0.818c1.009,-1.099 1.879,-2.168 2.563,-3.206c1.403,-2.055 2.224,-3.85 2.735,-5.075c0.247,-0.617 0.423,-1.095 0.525,-1.418c0.097,-0.313 0.147,-0.475 0.147,-0.475l0.016,-0.051c0.109,-0.351 0.482,-0.548 0.833,-0.439c0.348,0.108 0.544,0.475 0.442,0.823c0,0 -0.054,0.187 -0.16,0.549c-0.106,0.353 -0.284,0.861 -0.535,1.517c-0.52,1.3 -1.351,3.191 -2.794,5.377c-0.705,1.104 -1.604,2.248 -2.657,3.428c-0.272,0.288 -0.549,0.582 -0.832,0.881c-0.305,0.287 -0.616,0.579 -0.933,0.876c-0.654,0.605 -1.27,1.082 -2.033,1.674c-2.893,2.164 -6.384,4.261 -10.349,6.209c-3.967,1.943 -8.395,3.78 -13.274,5.209c-2.453,0.684 -4.977,1.352 -7.792,1.463c-0.716,-0.001 -1.44,0.002 -2.296,-0.295c-0.219,-0.089 -0.442,-0.186 -0.675,-0.367c-0.1,-0.067 -0.261,-0.226 -0.38,-0.38l-0.075,-0.109c0.027,0.045 -0.076,-0.118 -0.078,-0.127l-0.034,-0.067c-0.19,-0.35 -0.336,-0.736 -0.44,-1.134c-0.214,-0.798 -0.198,-1.67 0.005,-2.455c0.194,-0.794 0.562,-1.5 0.985,-2.135c1.769,-2.499 4.258,-4.061 6.747,-5.482c1.252,-0.696 2.565,-1.34 3.867,-1.927c1.293,-0.565 2.478,-1.183 3.554,-1.984c0.532,-0.396 1.028,-0.832 1.423,-1.301c0.394,-0.459 0.683,-0.993 0.697,-1.351c0.017,-0.323 -0.112,-0.549 -0.579,-0.842c-0.448,-0.267 -1.073,-0.448 -1.717,-0.562c-1.302,-0.225 -2.717,-0.244 -4.124,-0.181c-1.413,0.072 -2.822,0.197 -4.169,0.507c-5.485,1.204 -10.337,4.537 -14.606,8.206c-2.147,1.85 -4.175,3.82 -6.184,5.788c-2.031,1.954 -3.954,3.969 -6.314,5.652c-0.598,0.413 -1.243,0.797 -1.999,1.076c-0.383,0.132 -0.8,0.235 -1.255,0.255c-0.196,0.015 -0.528,-0.013 -0.732,-0.053l-0.123,-0.027l-0.062,-0.014c0,0 -0.151,-0.039 -0.134,-0.039c-0.124,-0.046 -0.248,-0.088 -0.369,-0.148c-0.495,-0.239 -0.888,-0.701 -1.083,-1.151c-0.201,-0.454 -0.259,-0.887 -0.284,-1.294c-0.031,-0.812 0.101,-1.537 0.278,-2.226c0.758,-2.731 2.113,-5.016 3.518,-7.156c2.877,-4.241 6.261,-7.716 9.641,-10.585c3.393,-2.865 6.838,-5.069 10.017,-6.758c3.184,-1.691 6.115,-2.851 8.567,-3.666c2.459,-0.807 4.434,-1.274 5.795,-1.561c0.685,-0.15 1.198,-0.24 1.545,-0.303c0.348,-0.063 0.527,-0.096 0.527,-0.096c0.362,-0.066 0.709,0.174 0.776,0.536c0.065,0.359 -0.171,0.704 -0.528,0.774" style="fill:#204A69;fill-rule:nonzero;"/><path d="M81.431,10.88c0,0 -0.548,0.137 -1.506,0.376c-0.482,0.114 -1.069,0.25 -1.702,0.456c-0.642,0.205 -1.367,0.387 -2.152,0.672c-0.782,0.285 -1.647,0.537 -2.523,0.916c-0.886,0.35 -1.814,0.732 -2.75,1.182c-0.957,0.404 -1.903,0.911 -2.876,1.401c-0.953,0.527 -1.929,1.053 -2.86,1.649c-0.941,0.582 -1.863,1.189 -2.754,1.813c-0.896,0.616 -1.741,1.275 -2.548,1.919c-0.798,0.659 -1.554,1.311 -2.245,1.957c-0.719,0.62 -1.311,1.287 -1.898,1.868c-0.543,0.617 -1.048,1.179 -1.473,1.694c-0.402,0.529 -0.778,0.979 -1.048,1.372c-0.534,0.793 -0.839,1.246 -0.839,1.246l-0.032,0.049c-0.206,0.304 -0.619,0.385 -0.924,0.18c-0.287,-0.194 -0.374,-0.574 -0.212,-0.872c0,0 0.281,-0.511 0.773,-1.406c0.257,-0.441 0.615,-0.942 1.004,-1.537c0.403,-0.583 0.909,-1.199 1.457,-1.876c0.587,-0.637 1.185,-1.37 1.907,-2.052c0.686,-0.722 1.48,-1.403 2.302,-2.107c0.834,-0.687 1.706,-1.388 2.631,-2.043c0.463,-0.327 0.93,-0.657 1.399,-0.987l1.467,-0.907c0.977,-0.608 1.998,-1.143 2.994,-1.678c1.017,-0.497 2.006,-1.01 3.005,-1.418c0.984,-0.44 1.964,-0.794 2.895,-1.124c0.921,-0.358 1.829,-0.589 2.648,-0.852c0.815,-0.27 1.614,-0.403 2.293,-0.58c0.689,-0.176 1.278,-0.274 1.764,-0.358c0.974,-0.164 1.531,-0.258 1.531,-0.258c0.363,-0.061 0.707,0.183 0.768,0.547c0.059,0.345 -0.162,0.674 -0.496,0.758" style="fill:#204A69;fill-rule:nonzero;"/><path d="M51.64,21.127c0,0 0.244,-0.433 0.67,-1.191c0.264,-0.374 0.578,-0.848 0.96,-1.358c0.402,-0.473 0.811,-1.06 1.349,-1.6c0.514,-0.569 1.096,-1.154 1.731,-1.751c0.627,-0.607 1.321,-1.205 2.042,-1.821c0.738,-0.591 1.501,-1.204 2.304,-1.784c0.789,-0.603 1.628,-1.156 2.451,-1.735c0.843,-0.547 1.676,-1.112 2.536,-1.6c0.847,-0.509 1.689,-0.995 2.516,-1.443c1.638,-0.926 3.231,-1.667 4.595,-2.299c1.368,-0.623 2.531,-1.089 3.352,-1.398c0.821,-0.305 1.29,-0.48 1.29,-0.48c0.346,-0.129 0.73,0.047 0.858,0.392c0.12,0.323 -0.025,0.68 -0.327,0.83l-0.02,0.01c0,0 -0.442,0.218 -1.214,0.599c-0.388,0.188 -0.86,0.409 -1.39,0.69c-0.534,0.272 -1.136,0.579 -1.792,0.914c-0.648,0.35 -1.362,0.707 -2.095,1.124c-0.73,0.424 -1.523,0.827 -2.313,1.297c-0.801,0.452 -1.615,0.94 -2.433,1.451c-0.827,0.498 -1.635,1.05 -2.469,1.563c-0.807,0.551 -1.633,1.079 -2.404,1.652c-0.788,0.552 -1.532,1.133 -2.253,1.694c-0.711,0.57 -1.409,1.113 -2.03,1.668c-0.631,0.545 -1.209,1.079 -1.715,1.595c-0.53,0.498 -0.953,0.998 -1.36,1.421c-0.36,0.439 -0.674,0.821 -0.933,1.136c-0.491,0.715 -0.771,1.124 -0.771,1.124l-0.004,0.005c-0.208,0.304 -0.623,0.381 -0.927,0.173c-0.287,-0.197 -0.37,-0.58 -0.204,-0.878" style="fill:#204A69;fill-rule:nonzero;"/></g></svg>