<?xml version="1.0" encoding="UTF-8" standalone="no"?><!DOCTYPE svg PUBLIC "-//W3C//DTD SVG 1.1//EN" "http://www.w3.org/Graphics/SVG/1.1/DTD/svg11.dtd"><svg width="100%" height="100%" viewBox="0 0 107 126" version="1.1" xmlns="http://www.w3.org/2000/svg" xmlns:xlink="http://www.w3.org/1999/xlink" xml:space="preserve" xmlns:serif="http://www.serif.com/" style="fill-rule:evenodd;clip-rule:evenodd;stroke-linejoin:round;stroke-miterlimit:1.41421;"><g id="Payments"><path d="M48.338,65.94c0,1.1 -0.9,2 -2,2l-43.801,0c-1.1,0 -2,-0.9 -2,-2l0,-27.867c0,-1.1 0.9,-2 2,-2l43.801,0c1.1,0 2,0.9 2,2l0,27.867Z" style="fill:#CCCED0;fill-rule:nonzero;"/><rect x="0.476" y="43.587" width="44.068" height="8.063" style="fill:#6F93AD;"/><path d="M44.59,97.074c-3.899,0 -7.061,-3.161 -7.061,-7.061l0,-80.922c0,-3.899 3.162,-7.06 7.061,-7.06l37.314,0c3.899,0 7.06,3.161 7.06,7.06l0,80.922c0,3.9 -3.161,7.061 -7.06,7.061l-30.829,0" style="fill:#fff;fill-rule:nonzero;"/><rect x="37.529" y="17.55" width="51.435" height="63.797" style="fill:#E1E2E2;"/><rect x="38.183" y="17.55" width="50.128" height="11.49" style="fill:#46799A;"/><path d="M44.565,97.574c0,0 -0.27,-0.013 -0.793,-0.04c-0.579,-0.069 -1.401,-0.201 -2.387,-0.649c-0.977,-0.445 -2.118,-1.222 -3.037,-2.507c-0.451,-0.642 -0.845,-1.403 -1.102,-2.271c-0.131,-0.433 -0.213,-0.893 -0.272,-1.37c-0.014,-0.24 -0.028,-0.483 -0.042,-0.729c-0.002,-0.228 -0.004,-0.46 -0.006,-0.694c-0.061,-7.501 -0.149,-18.218 -0.254,-31.077c-0.06,-12.86 -0.13,-27.863 -0.206,-43.937c-0.001,-1.005 -0.003,-2.014 -0.005,-3.026l-0.002,-1.522c0.002,-0.279 -0.008,-0.455 0.005,-0.818c0.02,-0.268 0.008,-0.477 0.054,-0.795c0.286,-2.423 1.632,-4.573 3.648,-5.879c1,-0.648 2.15,-1.077 3.339,-1.238c0.599,-0.084 1.214,-0.081 1.703,-0.082l1.566,-0.002c2.091,-0.004 4.192,-0.007 6.302,-0.011c8.439,-0.013 17.012,-0.027 25.585,-0.042l3.215,-0.005c0.389,0.016 0.555,0.02 0.873,0.045c0.324,0.05 0.675,0.083 0.975,0.161c0.606,0.144 1.205,0.335 1.761,0.618c2.265,1.063 3.936,3.236 4.45,5.671c0.058,0.305 0.102,0.613 0.141,0.92c0.014,0.301 0.037,0.637 0.038,0.91l-0.003,1.598l-0.006,3.191c-0.004,2.125 -0.009,4.243 -0.013,6.353c-0.016,8.439 -0.033,16.744 -0.049,24.781c-0.008,16.075 -0.161,31.078 -0.218,43.937c-0.008,0.421 0.009,0.759 -0.021,1.242c-0.005,0.37 -0.074,0.844 -0.155,1.305c-0.188,0.862 -0.517,1.681 -0.958,2.418c-0.875,1.488 -2.247,2.586 -3.743,3.219c-0.758,0.303 -1.548,0.481 -2.335,0.554c-0.824,0.05 -1.47,0.014 -2.179,0.016c-1.387,-0.011 -2.735,-0.022 -4.041,-0.033c-5.224,-0.044 -9.779,-0.082 -13.53,-0.113c-7.501,-0.063 -11.788,-0.098 -11.788,-0.098c-0.276,-0.003 -0.498,-0.228 -0.495,-0.505c0.002,-0.273 0.223,-0.493 0.495,-0.495c0,0 4.287,-0.036 11.788,-0.099c3.751,-0.031 8.306,-0.069 13.53,-0.113c1.306,-0.01 2.654,-0.022 4.041,-0.033c0.679,-0.012 1.441,0.006 2.042,-0.049c0.632,-0.074 1.261,-0.229 1.861,-0.483c1.182,-0.532 2.254,-1.43 2.922,-2.617c0.34,-0.586 0.59,-1.232 0.731,-1.91c0.045,-0.315 0.106,-0.622 0.109,-1.05c0.021,-0.311 0.002,-0.773 0.005,-1.156c-0.058,-12.859 -0.21,-27.862 -0.219,-43.937c-0.016,-8.037 -0.032,-16.342 -0.049,-24.781c-0.004,-2.11 -0.008,-4.228 -0.012,-6.353l-0.006,-3.191l-0.003,-1.598c-0.006,-0.485 -0.045,-0.904 -0.136,-1.35c-0.379,-1.741 -1.582,-3.301 -3.204,-4.07c-0.397,-0.208 -0.828,-0.341 -1.261,-0.448c-0.218,-0.06 -0.404,-0.066 -0.607,-0.111c-0.215,-0.022 -0.586,-0.033 -0.731,-0.043l-3.215,-0.006c-8.573,-0.014 -17.146,-0.028 -25.585,-0.042c-2.11,-0.003 -4.211,-0.006 -6.302,-0.01c-1.014,0.015 -2.18,-0.046 -2.981,0.055c-0.871,0.116 -1.711,0.425 -2.448,0.898c-1.483,0.922 -2.485,2.608 -2.687,4.236c-0.038,0.185 -0.034,0.49 -0.052,0.729l-0.005,0.709l-0.003,1.522c-0.002,1.012 -0.003,2.021 -0.005,3.026c-0.075,16.074 -0.146,31.077 -0.206,43.937c-0.105,12.859 -0.192,23.576 -0.253,31.077c-0.124,1.842 0.366,3.295 1.131,4.422c0.765,1.111 1.732,1.796 2.566,2.194c0.841,0.402 1.562,0.525 2.007,0.593c0.513,0.034 0.778,0.052 0.778,0.052l0.008,0.001c0.275,0.018 0.483,0.257 0.465,0.532c-0.019,0.273 -0.252,0.479 -0.524,0.466" style="fill:#46799A;fill-rule:nonzero;"/><path d="M12.637,59.144c0,1.934 -1.568,3.502 -3.502,3.502c-1.934,0 -3.502,-1.568 -3.502,-3.502c0,-1.934 1.568,-3.502 3.502,-3.502c1.934,0 3.502,1.568 3.502,3.502" style="fill:#E1E2E2;fill-rule:nonzero;"/><path d="M17.81,59.144c0,1.934 -1.568,3.502 -3.502,3.502c-1.934,0 -3.502,-1.568 -3.502,-3.502c0,-1.934 1.568,-3.502 3.502,-3.502c1.934,0 3.502,1.568 3.502,3.502" style="fill:#fff;fill-rule:nonzero;"/><path d="M71.336,36.073l-32.563,0l-0.412,31.867l32.975,0c1.284,0 2.335,-1.05 2.335,-2.334l0,-27.198c0,-1.284 -1.051,-2.335 -2.335,-2.335" style="fill:#fff;fill-rule:nonzero;"/><path d="M38.195,61.675c1.926,-0.229 3.852,-0.246 5.778,-0.254l5.778,-0.02l11.555,-0.039l-0.753,0.507c0.58,-1.435 1.603,-2.638 2.813,-3.52c1.214,-0.886 2.619,-1.469 4.071,-1.762l-0.68,0.826l0.033,-11.307l0.667,0.796c-1.512,-0.278 -2.979,-0.869 -4.24,-1.786c-1.257,-0.913 -2.312,-2.173 -2.878,-3.678l0.729,0.505c-3.758,-0.032 -7.516,0.012 -11.273,-0.08l-2.819,-0.049c-0.939,-0.018 -1.879,-0.067 -2.818,-0.099c-1.879,-0.063 -3.758,-0.163 -5.637,-0.302c-0.138,-0.011 -0.241,-0.131 -0.231,-0.269c0.009,-0.125 0.109,-0.222 0.231,-0.231c1.879,-0.139 3.758,-0.24 5.637,-0.303c0.939,-0.032 1.879,-0.081 2.818,-0.099l2.819,-0.049c3.757,-0.092 7.515,-0.048 11.273,-0.078l0.533,-0.005l0.196,0.508c0.45,1.172 1.3,2.191 2.351,2.943c1.052,0.755 2.299,1.251 3.592,1.48l0.665,0.117l0.002,0.679l0.033,11.307l0.002,0.693l-0.682,0.132c-1.233,0.24 -2.417,0.726 -3.422,1.45c-1.003,0.72 -1.821,1.684 -2.278,2.793l-0.21,0.509l-0.544,-0.002l-11.555,-0.039l-5.778,-0.02c-1.926,-0.008 -3.852,-0.025 -5.778,-0.254c-0.276,-0.033 -0.473,-0.283 -0.441,-0.559c0.028,-0.236 0.215,-0.414 0.441,-0.441" style="fill:#E1E2E2;fill-rule:nonzero;"/><path d="M38.66,44.997l-0.193,13.285c2.928,-0.02 5.297,-2.988 5.297,-6.649c0,-3.579 -2.266,-6.489 -5.104,-6.636" style="fill:#E1E2E2;fill-rule:nonzero;"/><path d="M102.351,77.549c5.822,-13.49 2.94,-22.464 -8.827,-32.549" style="fill:#fff;fill-rule:nonzero;"/><path d="M101.708,77.293c0,0 0.193,-0.544 0.53,-1.496c0.171,-0.474 0.398,-1.053 0.573,-1.706c0.178,-0.661 0.442,-1.379 0.615,-2.206c0.185,-0.82 0.427,-1.702 0.537,-2.653c0.18,-0.944 0.225,-1.946 0.287,-2.979c-0.003,-1.029 0.027,-2.101 -0.15,-3.165c-0.062,-0.535 -0.124,-1.074 -0.271,-1.6c-0.143,-0.526 -0.206,-1.073 -0.411,-1.584c-0.184,-0.516 -0.348,-1.037 -0.544,-1.546c-0.222,-0.5 -0.443,-0.999 -0.662,-1.493c-0.222,-0.494 -0.518,-0.951 -0.768,-1.421c-0.244,-0.474 -0.537,-0.916 -0.835,-1.345c-0.556,-0.883 -1.194,-1.673 -1.78,-2.44c-0.575,-0.774 -1.22,-1.434 -1.762,-2.084c-0.568,-0.629 -1.131,-1.172 -1.597,-1.684c-0.465,-0.513 -0.921,-0.915 -1.275,-1.266c-0.713,-0.7 -1.121,-1.1 -1.121,-1.1l-0.021,-0.021c-0.273,-0.268 -0.277,-0.705 -0.01,-0.978c0.252,-0.257 0.657,-0.274 0.931,-0.052c0,0 0.452,0.369 1.244,1.015c0.388,0.332 0.883,0.708 1.402,1.2c0.526,0.484 1.129,1.02 1.748,1.648c0.598,0.652 1.297,1.308 1.943,2.097c0.666,0.772 1.339,1.611 1.956,2.549c0.326,0.455 0.647,0.926 0.923,1.437c0.281,0.507 0.604,0.998 0.858,1.535c0.249,0.54 0.5,1.084 0.752,1.631c0.212,0.564 0.389,1.146 0.583,1.72c0.215,0.568 0.287,1.179 0.435,1.764c0.153,0.587 0.217,1.186 0.279,1.78c0.177,1.183 0.136,2.36 0.121,3.488c-0.097,1.125 -0.199,2.209 -0.425,3.211c-0.159,1.017 -0.447,1.938 -0.676,2.797c-0.209,0.863 -0.558,1.618 -0.784,2.302c-0.236,0.694 -0.493,1.243 -0.693,1.707c-0.412,0.923 -0.647,1.45 -0.647,1.45c-0.155,0.349 -0.564,0.507 -0.913,0.352c-0.332,-0.147 -0.489,-0.527 -0.372,-0.864" style="fill:#CCCED0;fill-rule:nonzero;"/><path d="M67.445,119.019c-14.423,-28.768 -0.769,-60.744 6.21,-60.022c6.98,0.722 -0.36,23.063 4.942,24.965c8.695,3.121 9.995,-10.252 9.562,-19.702c-0.433,-9.45 -9.674,-29.217 -3.801,-31.431c5.872,-2.214 21.37,38.892 17.503,53.541c-3.867,14.648 -15.724,38.345 -15.724,38.345" style="fill:#fff;fill-rule:nonzero;"/><path d="M66.823,119.321c0,0 -0.108,-0.22 -0.318,-0.646c-0.213,-0.42 -0.517,-1.066 -0.906,-1.921c-0.762,-1.698 -1.804,-4.228 -2.791,-7.562c-0.982,-3.331 -1.894,-7.475 -2.309,-12.302c-0.412,-4.819 -0.364,-10.327 0.619,-16.215c0.488,-2.942 1.197,-5.978 2.21,-9.042c1.035,-3.053 2.318,-6.166 4.263,-9.088c1.004,-1.434 2.096,-2.901 3.868,-3.926c0.455,-0.24 0.966,-0.445 1.549,-0.518c0.289,-0.041 0.598,-0.036 0.903,0.008c0.159,0.018 0.58,0.107 0.827,0.217c1.15,0.438 1.874,1.478 2.24,2.403c0.733,1.905 0.79,3.775 0.839,5.622c0.022,1.849 -0.071,3.687 -0.163,5.526c-0.092,1.837 -0.199,3.68 -0.196,5.506c0.003,0.911 0.035,1.819 0.138,2.695c0.105,0.864 0.291,1.732 0.638,2.338c0.175,0.297 0.373,0.493 0.588,0.596l0.085,0.036c0.017,0.009 -0.041,-0.011 0.025,0.01l0.086,0.026l0.34,0.105c0.241,0.083 0.441,0.124 0.62,0.153c0.765,0.156 1.595,0.148 2.297,-0.098c1.445,-0.469 2.491,-1.963 3.175,-3.603c0.695,-1.66 1.087,-3.51 1.356,-5.377c0.26,-1.874 0.384,-3.787 0.417,-5.708c0.014,-1.912 0.019,-3.886 -0.199,-5.723c-0.236,-1.871 -0.665,-3.762 -1.131,-5.645c-0.945,-3.77 -2.091,-7.524 -3.064,-11.343c-0.48,-1.913 -0.921,-3.842 -1.206,-5.831c-0.14,-0.995 -0.238,-2.007 -0.232,-3.053c0.023,-1.044 0.106,-2.147 0.649,-3.275c0.281,-0.554 0.72,-1.108 1.303,-1.473c0.147,-0.086 0.292,-0.177 0.447,-0.238c0.098,-0.041 0.106,-0.052 0.278,-0.114c0.076,-0.021 0.069,-0.028 0.227,-0.064c0.488,-0.107 0.856,-0.063 1.219,0.028c0.699,0.195 1.193,0.543 1.628,0.892c0.434,0.353 0.8,0.733 1.143,1.12c1.346,1.558 2.345,3.234 3.287,4.921c1.852,3.385 3.341,6.858 4.678,10.317c2.642,6.929 4.64,13.825 5.924,20.514c0.63,3.347 1.078,6.646 1.182,9.887c0.049,1.619 0.007,3.226 -0.192,4.809c-0.104,0.797 -0.241,1.562 -0.457,2.364c-0.208,0.721 -0.414,1.435 -0.618,2.142c-1.723,5.71 -3.744,10.723 -5.594,15.153c-1.862,4.42 -3.59,8.223 -5.039,11.343c-2.906,6.235 -4.701,9.738 -4.701,9.738c-0.171,0.341 -0.587,0.478 -0.928,0.306c-0.339,-0.17 -0.475,-0.586 -0.309,-0.925c0,0 1.742,-3.504 4.563,-9.749c1.407,-3.124 3.083,-6.933 4.88,-11.348c1.768,-4.417 3.768,-9.435 5.425,-15.003c0.201,-0.708 0.404,-1.423 0.609,-2.145c0.171,-0.649 0.304,-1.38 0.393,-2.1c0.178,-1.456 0.214,-2.977 0.16,-4.527c-0.112,-3.103 -0.559,-6.322 -1.19,-9.597c-1.285,-6.55 -3.286,-13.359 -5.914,-20.164c-1.327,-3.394 -2.81,-6.804 -4.606,-10.055c-0.904,-1.611 -1.887,-3.217 -3.055,-4.553c-0.563,-0.642 -1.278,-1.264 -1.778,-1.388c-0.101,-0.035 -0.226,-0.016 -0.209,-0.023c0.038,-0.019 -0.081,0.023 -0.12,0.034c0.06,-0.019 -0.041,0.023 -0.054,0.029c-0.071,0.025 -0.127,0.068 -0.19,0.101c-0.235,0.151 -0.421,0.376 -0.579,0.678c-0.305,0.621 -0.416,1.498 -0.421,2.38c-0.002,0.893 0.088,1.819 0.224,2.748c0.271,1.861 0.712,3.737 1.183,5.614c0.943,3.758 2.077,7.517 3.028,11.361c0.469,1.925 0.906,3.87 1.156,5.889c0.231,2.058 0.213,4.013 0.193,6.005c-0.04,1.986 -0.173,3.972 -0.454,5.949c-0.293,1.974 -0.707,3.952 -1.509,5.86c-0.404,0.949 -0.909,1.885 -1.61,2.728c-0.692,0.837 -1.626,1.586 -2.738,1.947c-1.113,0.375 -2.258,0.376 -3.35,0.148c-0.29,-0.055 -0.553,-0.12 -0.762,-0.194l-0.34,-0.105l-0.085,-0.027c0.01,0.004 -0.106,-0.032 -0.142,-0.049l-0.242,-0.106c-0.645,-0.309 -1.114,-0.847 -1.411,-1.364c-0.582,-1.056 -0.744,-2.086 -0.875,-3.078c-0.112,-0.993 -0.14,-1.961 -0.141,-2.917c0.005,-1.911 0.12,-3.772 0.218,-5.607c0.098,-1.833 0.195,-3.641 0.179,-5.405c-0.026,-1.746 -0.129,-3.527 -0.682,-4.943c-0.536,-1.429 -1.713,-1.899 -2.946,-1.204c-1.257,0.703 -2.335,2.021 -3.237,3.333c-1.81,2.693 -3.072,5.696 -4.077,8.637c-0.989,2.958 -1.69,5.906 -2.174,8.767c-0.958,5.727 -1.099,11.091 -0.731,15.795c0.358,4.711 1.207,8.761 2.133,12.019c0.929,3.261 1.923,5.743 2.649,7.404c0.365,0.823 0.654,1.457 0.867,1.886c0.206,0.429 0.312,0.65 0.312,0.65c0.165,0.344 0.019,0.758 -0.325,0.923c-0.343,0.164 -0.753,0.021 -0.92,-0.319" style="fill:#CCCED0;fill-rule:nonzero;"/></g></svg>