<svg id="Layer_1" xmlns="http://www.w3.org/2000/svg" width="400" height="250" viewBox="0 0 400 250">
    <style>
        .st0{fill:#a8bece;stroke:#a8bece;stroke-linecap:round;stroke-linejoin:round}.st1{fill:#004f84}.st2{fill:#004f81}.st3{fill:#86a6bd}
    </style>
    <title>
        Artboard 1 copy 2
    </title>
    <path id="Path-124" class="st0" d="M183.2 68.1l-11.9-5.6 5.7-9.3 6.2 14.9z"/>
    <path id="Path-124-2" class="st0" d="M196.7 64.7l-7.4-20.2 7.4-3.7v23.9z"/>
    <path id="Path-124-3" class="st0" d="M221.8 53.2l-13.1 13.5 4.1-13.5h9z"/>
    <path class="st1" d="M179.7 132.5c2.5 0 4.5 2 4.5 4.5v7c0 2.5-2 4.5-4.5 4.5s-4.5-2-4.5-4.5v-7c0-2.5 2-4.5 4.5-4.5zM217 132.5c2.5 0 4.5 2 4.5 4.5v7c0 2.5-2 4.5-4.5 4.5s-4.5-2-4.5-4.5v-7c0-2.5 2-4.5 4.5-4.5z"/>
    <path class="st2" d="M210.9 117.8c1.6-1 3.4-1.5 5.2-1.4 1.7 0 3.4.1 5.1.5 1.7.4 3.3.9 4.8 1.7 1.6.8 3 1.9 4.1 3.3.4.4.4 1 0 1.4s-1 .4-1.4 0c-1.2-.9-2.4-1.6-3.8-2.1s-2.9-1-4.3-1.3c-1.5-.3-3-.5-4.5-.6-1.4-.1-2.8 0-4.1.3l-.2.1c-.5.2-1.1 0-1.3-.5-.3-.5-.1-1.1.4-1.4zM187 119.6c-1.4-.3-2.8-.4-4.1-.3-1.5.1-3 .3-4.5.6s-2.9.7-4.3 1.3c-1.4.5-2.6 1.2-3.8 2.1-.4.4-1 .4-1.4 0s-.4-1 0-1.4c1.1-1.4 2.5-2.5 4.1-3.3 1.5-.8 3.2-1.3 4.8-1.7 1.7-.4 3.4-.6 5.1-.5 1.8 0 3.7.5 5.2 1.4.5.3.7.9.4 1.3-.2.5-.8.7-1.3.5h-.2z"/>
    <path class="st3" d="M248.2 139.6c-.6 6.6-1.7 13.3-3.5 19.8s-4.4 12.8-8.5 18.4c-4 5.6-9.6 10-16 12.6-3.2 1.3-6.5 2.2-9.8 2.8l-2.5.4c-.8.1-1.7.2-2.5.3-1.7.2-3.4.2-5.1.2-6.8-.2-13.6-1.4-20-3.9-6.4-2.4-12.3-6.2-17.1-11.3-4.7-5.1-8.1-11.4-9.8-18-.9-3.3-1.4-6.7-1.7-10.1-.2-3.4-.4-6.7-.2-10.1.2-6.7 1.1-13.5 3-20s5.1-12.8 9.4-18.1c4.3-5.3 9.9-9.6 16.2-12.4s13.1-4.2 19.9-4.1c13.6.1 27.2 5.8 36.4 15.9 4.6 5 8.1 11.1 10 17.6 2 6.4 2.4 13.3 1.8 20zm-2.4-.2c.6-6.5.1-13-1.7-19.2s-5.1-11.9-9.5-16.6c-8.8-9.5-21.7-14.8-34.6-14.8-6.4 0-12.9 1.3-18.7 4s-11 6.7-14.9 11.7c-4 5-6.9 10.8-8.7 17s-2.7 12.7-2.8 19.1c-.1 3.2.1 6.5.3 9.8.3 3.2.8 6.4 1.6 9.5 1.6 6.2 4.6 11.9 8.9 16.6 4.3 4.7 9.8 8.2 15.8 10.5 6 2.4 12.4 3.7 18.8 3.9 6.4.1 13-.8 18.9-3.2s11.2-6.3 15-11.5c3.9-5.1 6.4-11.2 8.2-17.5 1.7-6.3 2.7-12.8 3.4-19.3z"/>
    <ellipse transform="rotate(-83.397 197.384 170.592)" class="st2" cx="197.4" cy="170.6" rx="5.6" ry="14.3"/>
</svg>
