<svg viewBox="0 0 68.8 99.915" xmlns="http://www.w3.org/2000/svg" xmlns:xlink="http://www.w3.org/1999/xlink"><linearGradient id="a" gradientTransform="matrix(-.029 -1 -1 .029 983.254 1264.317)" gradientUnits="userSpaceOnUse" x1="1249.104" x2="1251.929" y1="938.912" y2="940.367"><stop offset="0" stop-color="#d9b78b"/><stop offset=".165" stop-color="#e4c79c"/><stop offset=".402" stop-color="#efd7ac"/><stop offset=".665" stop-color="#f5e0b6"/><stop offset="1" stop-color="#f7e3b9"/></linearGradient><linearGradient id="b" gradientTransform="matrix(-.999 -.036 -.036 .999 2396.803 -68.912)" gradientUnits="userSpaceOnUse" x1="2385.91" x2="2374.155" y1="199.704" y2="201.82"><stop offset="0" stop-opacity="0"/><stop offset="1" stop-opacity=".4"/></linearGradient><linearGradient id="c" x1="2381.442" x2="2380.34" xlink:href="#b" y1="199.504" y2="198.579"/><linearGradient id="d" gradientTransform="matrix(-.999 -.036 -.036 .999 2396.803 -68.912)" x1="2379.166" x2="2378.563" xlink:href="#a" y1="197.132" y2="194.133"/><linearGradient id="e" gradientTransform="matrix(-.029 -1 -1 .029 983.254 1264.317)" x1="1248.358" x2="1248.174" xlink:href="#b" y1="939.155" y2="941.554"/><linearGradient id="f" gradientTransform="matrix(-.029 -1 -1 .029 983.254 1264.317)" x1="1247.475" x2="1247.326" xlink:href="#b" y1="941.093" y2="943.041"/><linearGradient id="g" gradientTransform="matrix(-.979 -.205 -.205 .979 2347.253 177.049)" gradientUnits="userSpaceOnUse" x1="2310.014" x2="2308.985" y1="344.739" y2="348.615"><stop offset="0" stop-color="#a4a0bd"/><stop offset="1" stop-color="#202026"/></linearGradient><linearGradient id="h" x1="2379.138" x2="2379.184" xlink:href="#b" y1="195.938" y2="205.657"/><linearGradient id="i" gradientTransform="matrix(.034 -.999 .999 .034 1402.35 1497.208)" x1="1408.149" x2="1410.974" xlink:href="#a" y1="-1387.05" y2="-1385.596"/><linearGradient id="j" gradientTransform="matrix(.99952395 -.03085252 .03085252 .99952395 -4.642 157.061)" x1="75.138" x2="63.384" xlink:href="#b" y1="-109.729" y2="-107.614"/><linearGradient id="k" gradientTransform="matrix(.99952395 -.03085252 .03085252 .99952395 -4.642 157.061)" x1="70.671" x2="69.569" xlink:href="#b" y1="-109.93" y2="-110.854"/><linearGradient id="l" gradientTransform="matrix(.99952395 -.03085252 .03085252 .99952395 -4.642 157.061)" x1="68.394" x2="67.792" xlink:href="#a" y1="-112.301" y2="-115.3"/><linearGradient id="m" gradientTransform="matrix(.034 -.999 .999 .034 1402.35 1497.208)" x1="1407.403" x2="1407.219" xlink:href="#b" y1="-1386.808" y2="-1384.408"/><linearGradient id="n" gradientTransform="matrix(.034 -.999 .999 .034 1402.35 1497.208)" x1="1406.52" x2="1406.371" xlink:href="#b" y1="-1384.87" y2="-1382.922"/><linearGradient id="o" gradientTransform="matrix(.97625065 -.21664408 .21664408 .97625065 89.048 364.15)" x1="36.754" x2="35.496" xlink:href="#g" y1="-322.261" y2="-317.526"/><linearGradient id="p" gradientTransform="matrix(.99952395 -.03085252 .03085252 .99952395 -4.642 157.061)" x1="68.367" x2="68.413" xlink:href="#b" y1="-113.495" y2="-103.777"/><linearGradient id="q" gradientTransform="matrix(.85465825 -.51919098 .51919098 .85465825 314.155 838.872)" x1="191.976" x2="167.771" xlink:href="#g" y1="-821.37" y2="-796.235"/><linearGradient id="r" gradientTransform="matrix(.85465825 -.51919098 .51919098 .85465825 314.155 838.872)" x1="174.633" x2="174.137" xlink:href="#g" y1="-806.045" y2="-791.175"/><linearGradient id="s" gradientTransform="matrix(-.855 -.519 -.519 .855 2541.175 838.872)" x1="2572.812" x2="2548.607" xlink:href="#g" y1="624.358" y2="649.493"/><linearGradient id="t" gradientTransform="matrix(-.855 -.519 -.519 .855 2541.175 838.872)" x1="2555.469" x2="2554.973" xlink:href="#g" y1="639.683" y2="654.553"/><linearGradient id="u" x1="31.568" x2="38.106" xlink:href="#g" y1="-2.078" y2="61.997"/><linearGradient id="v" x1="33.79" x2="38.629" xlink:href="#g" y1="29.562" y2="62.346"/><linearGradient id="w" x1="13.641" x2="41.033" xlink:href="#b" y1="62.004" y2="61.68"/><linearGradient id="x" x1="17.417" x2="41.645" xlink:href="#g" y1="60.141" y2="61.257"/><linearGradient id="y" gradientUnits="userSpaceOnUse" x1="12.567" x2="41.009" y1="60.34" y2="60.005"><stop offset="0" stop-color="#fff" stop-opacity=".4"/><stop offset="1" stop-color="#fff" stop-opacity="0"/></linearGradient><linearGradient id="z" x1="15.316" x2="36.952" xlink:href="#b" y1="61.518" y2="61.263"/><linearGradient id="A" x1="27.538" x2="43.959" xlink:href="#b" y1="60.884" y2="60.69"/><linearGradient id="B" gradientTransform="matrix(.99854609 .05390453 -.05390453 .99854609 4.444 -37.373)" x1="16.366" x2="37.637" xlink:href="#y" y1="97.874" y2="97.623"/><linearGradient id="C" x1="57.99" x2="39.924" xlink:href="#y" y1="57.035" y2="62.462"/><linearGradient id="D" x1="57.742" x2="39.68" xlink:href="#y" y1="56.225" y2="61.651"/><linearGradient id="E" gradientTransform="matrix(.624 .782 -.782 .624 -110.875 21.717)" x1="61.351" x2="65.362" xlink:href="#g" y1="-102.526" y2="-101.006"/><linearGradient id="F" gradientTransform="matrix(.624 .782 -.782 .624 -110.875 21.717)" x1="63.2" x2="70.602" xlink:href="#g" y1="-104.06" y2="-102.443"/><linearGradient id="G" gradientTransform="matrix(-.203 1.106 -1.05 -.449 -266.301 -145.407)" x1="33.18" x2="31.145" xlink:href="#g" y1="-272.819" y2="-271.178"/><linearGradient id="H" gradientTransform="matrix(.90098618 .4338478 -.4338478 .90098618 91.045 10.87)" x1="-82.671" x2="-76.227" xlink:href="#g" y1="42.88" y2="43.128"/><linearGradient id="I" gradientTransform="matrix(.624 .782 -.782 .624 -110.875 21.717)" x1="63.078" x2="70.82" xlink:href="#g" y1="-91.984" y2="-97.42"/><linearGradient id="J" gradientTransform="matrix(-.796 .682 -.742 -.732 -24.678 -99.37)" x1="62.846" x2="60.1" xlink:href="#g" y1="-105.8" y2="-103.53"/><linearGradient id="K" gradientTransform="matrix(.978 .21 -.21 .978 41.547 -58.732)" x1="35.785" x2="37.378" xlink:href="#g" y1="71.224" y2="71.73"/><linearGradient id="L" gradientTransform="matrix(.978 .21 -.21 .978 41.547 -58.732)" x1="3.979" x2="35.928" xlink:href="#a" y1="85.638" y2="78.509"/><linearGradient id="M" gradientTransform="matrix(.99490889 .10077847 -.10077847 .99490889 79.754 -71.351)" x1="-22.945" x2="-38.385" xlink:href="#g" y1="48.792" y2="126.957"/><linearGradient id="N" gradientTransform="matrix(.978 .21 -.21 .978 41.547 -58.732)" x1="-1.342" x2="-.56" xlink:href="#g" y1="43.318" y2="81.641"/><linearGradient id="O" gradientUnits="userSpaceOnUse" x1="44.225" x2="43.813" y1="32.866" y2="37.997"><stop offset="0"/><stop offset=".096" stop-opacity=".78"/><stop offset="1" stop-opacity="0"/></linearGradient><path d="m11.1 49.4a2.85 2.85 0 0 0 3.215-1.727l.569-1.662a2.067 2.067 0 0 0 -1.7-2.7l-5.423-1.187c-1.358-.27-3.243.392-3.661 1.616l-.078 1.094c.12 1.61 2.295 3.318 3.652 3.588z" fill="url(#a)" transform="translate(0 -.085)"/><path d="m8.955 43.407 5.428 1.182a2.577 2.577 0 0 1 .529.167 1.993 1.993 0 0 1 -.023 1.254l-.569 1.662a2.85 2.85 0 0 1 -3.22 1.728l-3.43-.977a5.031 5.031 0 0 1 -1.97-1.023 2.777 2.777 0 0 1 -.485-1.282l.078-1.093c.419-1.225 2.307-1.888 3.662-1.618z" fill="url(#b)" transform="translate(0 -.085)"/><path d="m7.286 42.07a3.206 3.206 0 0 1 .474.054l5.428 1.182a2.067 2.067 0 0 1 1.7 2.7l-.233.679c-.676.484-1.535-.264-2.537-.736-.909-.427-1.984-1.028-2.142-1.787l-1.534-.272a2.39 2.39 0 0 1 -1.156-1.82z" fill="url(#c)" transform="translate(0 -.085)"/><path d="m12 46.063a2.93 2.93 0 0 1 -1.224-2.253l-1.676-1.16a2.3 2.3 0 0 1 -.385-2.514c.467-.672.737-.873 1.219-.539a22.8 22.8 0 0 1 4.87 3.41 2.3 2.3 0 0 1 .591 3.077c-.613.956-2.213.892-3.395-.021z" fill="url(#d)" transform="translate(0 -.085)"/><path d="m8.8 45.488c-3.236-1.233-3.556-2.388-3.393-3.038a3.744 3.744 0 0 1 .355-.15c-.347 1.529 3.038 3.188 3.038 3.188z" fill="url(#e)" opacity=".58" transform="translate(0 -.085)"/><path d="m4.24 43.442c.433 1.326 2.613 2.747 2.613 2.747a7.283 7.283 0 0 1 -2.775-2.145l.021-.3a1.748 1.748 0 0 1 .141-.302z" fill="url(#f)" opacity=".58" transform="translate(0 -.085)"/><path d="m7.173 45.393c2.478 1.239 7.619 1.262 7.606.186-.014-2.639-1.179-3.319-1.179-3.319s4.155 1.289 5.192 1.685c3.906 1.491 6.66 3.565 5.478 7.4s-3.346 2.85-5.7 2.478c-3.091-.488-8.618-4.438-8.618-4.438-.136-.853.112-2.01-2.779-3.992z" fill="url(#g)" transform="translate(0 -.085)"/><path d="m8.719 40.135.055-.076a2.532 2.532 0 0 0 .6 1.856l1.672 1.161c-.009.775.692 1.363 1.487 1.976a2.521 2.521 0 0 0 3.241-.347 2.152 2.152 0 0 1 -.379 1.378c-.616.956-2.216.891-3.4-.021a2.93 2.93 0 0 1 -1.224-2.253l-1.671-1.159a2.3 2.3 0 0 1 -.381-2.515z" fill="url(#h)" transform="translate(0 -.085)"/><path d="m61.231 49.065a2.85 2.85 0 0 1 -3.206-1.743l-.561-1.665a2.067 2.067 0 0 1 1.713-2.7l5.434-1.155c1.359-.263 3.241.408 3.653 1.634l.072 1.094c-.128 1.61-2.311 3.307-3.67 3.57z" fill="url(#i)" transform="translate(0 -.085)"/><path d="m63.41 43.083-5.434 1.155a2.577 2.577 0 0 0 -.53.164 1.993 1.993 0 0 0 .017 1.254l.561 1.665a2.85 2.85 0 0 0 3.206 1.743l3.435-.96a5.031 5.031 0 0 0 1.978-1.013 2.777 2.777 0 0 0 .491-1.28l-.072-1.094c-.411-1.225-2.293-1.897-3.652-1.634z" fill="url(#j)" transform="translate(0 -.085)"/><path d="m65.085 41.755a3.205 3.205 0 0 0 -.475.052l-5.434 1.155a2.067 2.067 0 0 0 -1.713 2.7l.229.68c.674.487 1.536-.257 2.541-.724.911-.422 1.989-1.018 2.151-1.776l1.536-.268a2.39 2.39 0 0 0 1.165-1.819z" fill="url(#k)" transform="translate(0 -.085)"/><path d="m60.352 45.725a2.93 2.93 0 0 0 1.235-2.247l1.678-1.153a2.3 2.3 0 0 0 .4-2.512c-.463-.674-.732-.877-1.216-.545a22.8 22.8 0 0 0 -4.886 3.386 2.3 2.3 0 0 0 -.606 3.074c.607.96 2.208.904 3.395-.003z" fill="url(#l)" transform="translate(0 -.085)"/><path d="m63.556 45.166c3.24-1.217 3.566-2.371 3.407-3.022a3.744 3.744 0 0 0 -.355-.144c.339 1.523-3.052 3.166-3.052 3.166z" fill="url(#m)" opacity=".58" transform="translate(0 -.085)"/><path d="m68.124 43.142c-.439 1.324-2.627 2.735-2.627 2.735a7.283 7.283 0 0 0 2.786-2.132l-.02-.3a1.748 1.748 0 0 0 -.139-.303z" fill="url(#n)" opacity=".58" transform="translate(0 -.085)"/><path d="m65.168 45.145c-2.478 1.157-7.578 1.243-7.577.167-.019-2.639 1.133-3.333 1.133-3.333s-4.139 1.341-5.171 1.749c-3.887 1.539-7.11 3.148-7.11 3.148s-7.15 13.791 5.39 8.524a25.891 25.891 0 0 0 4.282-2.254c2.66-1.647 6.344-4.091 6.344-4.091.066-1.927 2.048-1.432 2.709-3.91z" fill="url(#o)" transform="translate(0 -.085)"/><path d="m63.662 39.813-.055-.076a2.532 2.532 0 0 1 -.613 1.853l-1.678 1.153c0 .775-.7 1.36-1.5 1.969a2.521 2.521 0 0 1 -3.239-.363 2.152 2.152 0 0 0 .373 1.38c.611.959 2.212.9 3.4 0a2.93 2.93 0 0 0 1.235-2.247l1.678-1.153a2.3 2.3 0 0 0 .399-2.516z" fill="url(#p)" transform="translate(0 -.085)"/><ellipse cx="37.119" cy="97.644" fill="#032442" fill-opacity=".1" rx="31.681" ry="2.271"/><ellipse cx="37.286" cy="97.584" fill="#032442" fill-opacity=".2" rx="21.814" ry="1.11"/><g transform="translate(0 -.085)"><path d="m39.741 57.224-7.879 11.794s9.98 5.223 12.316 6.524 9.5-2.125 11.978-5.1 2.471-4.668-3.09-5.762c-.007-.004-13.325-7.456-13.325-7.456z" fill="url(#q)"/><path d="m49.708 67.211a12.062 12.062 0 0 0 -3.976 8.607c3.071-.124 8.362-2.9 10.423-5.379 2.457-2.949 2.467-4.634-2.933-5.73a14.152 14.152 0 0 0 -3.514 2.502z" fill="url(#r)"/><path d="m30.179 56.729 7.879 11.793s-9.98 5.223-12.316 6.524-9.5-2.125-11.978-5.1-2.471-4.668 3.09-5.762c.007-.004 13.325-7.455 13.325-7.455z" fill="url(#s)"/><path d="m20.211 66.716a12.062 12.062 0 0 1 3.976 8.607c-3.071-.124-8.362-2.9-10.423-5.379-2.457-2.944-2.464-4.635 2.936-5.73a14.152 14.152 0 0 1 3.511 2.502z" fill="url(#t)"/><path d="m18.814 38.176s.623 33.806 14.156 33.806c19.745 0 19.6-35.912 19.6-35.912s-16.59 6.13-33.756 2.106z" fill="url(#u)"/><path d="m32.3 49.461a.71.71 0 0 1 .562-.317.7.7 0 0 1 .786.736q.423 3.211.9 5.449l1.969-4.277a.882.882 0 0 1 .683-.612q.592-.047.74.861a21.252 21.252 0 0 0 .851 3.507 17.841 17.841 0 0 1 1.184-5.647.7.7 0 0 1 .593-.455.731.731 0 0 1 .568.2.831.831 0 0 1 .274.589.975.975 0 0 1 -.089.49 13.645 13.645 0 0 0 -.868 3.706 21.488 21.488 0 0 0 -.247 3.912 1.4 1.4 0 0 1 -.1.672.572.572 0 0 1 -.479.37.879.879 0 0 1 -.711-.38 10.8 10.8 0 0 1 -1.994-4.365q-.869 1.971-1.3 2.956-.791 1.738-1.357 1.784a.783.783 0 0 1 -.625-.7 49.032 49.032 0 0 1 -1.485-7.786.977.977 0 0 1 .145-.693z" fill="url(#v)"/><path d="m18.852 39.293c.076 1.778.3 5.5.906 9.812a41.843 41.843 0 0 0 17.054.993 43.121 43.121 0 0 0 15.02-4.416 78.594 78.594 0 0 0 .733-9.333c-4.224 1.242-19.627 5.293-33.713 2.944z" opacity=".24"/><path d="m22.724 59.911a26.134 26.134 0 0 0 .812 2.549c1.708.734 6.226 1.271 11.536 1.271 5.2 0 9.641-.5 11.426-1.215a26.1 26.1 0 0 0 .839-2.626c-1.646.777-6.543 1.343-12.336 1.343-5.725-.001-10.577-.557-12.277-1.322z" fill="url(#w)"/><path d="m35 60.787c-6.4 0-11.707-.694-12.745-1.6.008.033.016.065.024.1a.778.778 0 0 0 .2.751l.021.062a1.817 1.817 0 0 0 .47 1.571.109.109 0 0 1 .03.029c1.022.889 6.038 1.583 12.076 1.583 5.861 0 10.759-.638 11.976-1.5a1.239 1.239 0 0 0 .418-1.089 1.253 1.253 0 0 0 .291-.576 2.275 2.275 0 0 0 .057-1c-.855.946-6.265 1.669-12.818 1.669z" fill="url(#x)"/><path d="m33.929 61.122c6.393 0 12.522-.8 13.565-1.7.024-.1.049-.192.072-.289-.851.935-6.261 1.658-12.812 1.658-6.4 0-11.707-.694-12.745-1.6a.488.488 0 0 0 .2.242c1.191.875 5.451 1.689 11.72 1.689z" fill="url(#y)"/><path d="m22.492 59.988s6.148 3.168 19.466 2.058c0 0-13.5 2.53-19.466-2.058z" fill="url(#z)"/><path d="m47.2 60.059a1.087 1.087 0 0 0 .535-.614 43.009 43.009 0 0 1 -14.735 1.898c5.42 1.416 10.508.149 14.2-1.284z" fill="url(#A)"/><path d="m22.627 60.309s5.32 3.784 19.052 1.82c-.001 0-12.265 3.317-19.052-1.82z" fill="url(#B)"/><path d="m35.545 63.015a23.987 23.987 0 0 0 11.376-2.1 1.182 1.182 0 0 0 .6-.659c-6.156 2.651-10.421 2.814-11.976 2.759z" fill="url(#C)"/><path d="m35.545 63.015c-.218-.015-.435-.026-.655-.046 0 0 .227.031.655.046z" fill="url(#D)"/><path d="m15.374 15.752s-3.088-11.258-6.339-9.875-4.2 1.889-4.2 1.889-1.335.854-.143 3.434 5.01 6.73 5.01 6.73z" fill="url(#E)"/><path d="m9.382 5.778c-.662.438-.176 2.542 1.1 4.738 1.293 2.22 2.9 3.692 3.6 3.287.336-.2.338-.761.133-1.559-1.115-2.993-2.93-6.767-4.833-6.466z" fill="url(#F)"/><path d="m13.56 12.755c.377-.219-.286-1.753-1.175-3.587-1.051-2.168-2.163-3.012-2.54-2.793s.149 1.825 1.175 3.587 2.163 3.012 2.54 2.793z" fill="url(#G)"/><path d="m12.673 15.686s-10.907-4.163-11.713-.723-.96 4.506-.96 4.506-.1 1.585 2.684 2.142 8.39-.064 8.39-.064z" fill="url(#H)"/><path d="m3.328 13.612a7.276 7.276 0 0 0 -1.356.262 1.543 1.543 0 0 0 -1.012 1.089l-.008.037c.376.721 2.3 1.392 4.651 1.573 2.67.205 4.885-.3 4.948-1.12a.747.747 0 0 0 -.315-.59 23.092 23.092 0 0 0 -6.908-1.251z" fill="url(#I)"/></g><ellipse cx="4.61" cy="14.972" fill="url(#J)" rx=".86" ry="2.946" transform="matrix(.07656241 -.99706479 .99706479 .07656241 -10.671 18.337)"/><path d="m67.091 18.525s-4.382-2.058-4.747-1.933a35.608 35.608 0 0 0 -2.944 3.641s6.415 3.284 7.691-1.708z" fill="url(#K)" transform="translate(0 -.085)"/><path d="m63.859 14.722s3.329 11.218-.164 17.765c0 0-21.421 13.356-46.081.64 0 0-5.385-8.64-1-14.831-.001.004 23.899-9.468 47.245-3.574z" fill="url(#L)" stroke="#cfa575" stroke-miterlimit="10" stroke-width=".264" transform="translate(0 -.085)"/><path d="m42.605 17.866c9.668-.267 16.858-.056 22.461 3.106a29.945 29.945 0 0 0 -.964-5.337l-1.068-.459c-23.865-4.776-46.421 3.124-46.421 3.124a9 9 0 0 0 -1.083 2.053l-.186 7.194a21.532 21.532 0 0 0 2.137 5.36c2.9 1.149 7.329 2.6 5.275-.188-2.956-4.019-.452-9.5-.452-9.5s5.841-4.953 20.301-5.353z" fill="#5b0f0f" fill-opacity=".2" transform="translate(0 -.085)"/><path d="m20.769 20.685s7.478-3.61 22.329-4.3c17.457-.814 23.993 2.142 23.993 2.142-.991-1.601-6.232-18.62-31.741-18.441-19.84.14-27.991 14.242-28.993 22.908-1.55 13.419 10.882 23.012 29.382 23.172 20.741.18 28.213-10.556 30.572-15.609 0 0 3.232-4.146-20.573-3.423-10.562.321-24.828 3.649-24.828 3.649a13.767 13.767 0 0 1 -.141-10.098z" fill="url(#M)" transform="translate(0 -.085)"/><path d="m65.337 29.851c-3.95 4.855-10.719 12.724-26.437 12.588-18.5-.16-32.377-11-30.826-24.417.035-.3.079-.6.133-.9a16.917 16.917 0 0 0 -1.851 5.876c-1.549 13.415 10.883 23.008 29.383 23.168 20.741.18 28.213-10.556 30.572-15.609a1.51 1.51 0 0 0 -.974-.706z" opacity=".23" transform="translate(0 -.085)"/><path d="m28.477 24.447a5.588 5.588 0 0 1 1.144-1.33 8.614 8.614 0 0 1 3.379-1.805l.51-.127.127-.03.145-.025.242-.036a5.842 5.842 0 0 1 1.04-.072 5.6 5.6 0 0 1 1.812.315 3.743 3.743 0 0 1 1.521.943.2.2 0 0 1 -.217.311l-.014-.005c.009 0-.142-.053-.406-.126a7.012 7.012 0 0 0 -1.1-.205 8 8 0 0 0 -1.55 0c-.3.034-.529.054-.859.122l-.24.048-.06.012h-.015.014-.007l-.028.008-.112.028-.452.107a12.8 12.8 0 0 0 -1.713.609 11.867 11.867 0 0 0 -1.424.726c-.405.241-.732.466-.955.63s-.341.26-.341.26a.286.286 0 0 1 -.4-.032.291.291 0 0 1 -.041-.326z" opacity=".75" transform="translate(0 -.085)"/><path d="m57.329 23.524a2 2 0 0 0 -.234-.237 3.917 3.917 0 0 0 -.8-.527 8.318 8.318 0 0 0 -1.318-.5 14.964 14.964 0 0 0 -1.623-.37 6.781 6.781 0 0 0 -.827-.095 7.46 7.46 0 0 0 -.809-.02 9.526 9.526 0 0 0 -1.452.146c-.427.076-.784.166-1.033.236l-.384.116h-.013a.2.2 0 0 1 -.2-.325 4.725 4.725 0 0 1 1.364-.866 6.485 6.485 0 0 1 1.6-.469 8.667 8.667 0 0 1 .949-.081 7.91 7.91 0 0 1 .981.063 7.761 7.761 0 0 1 .953.181 6.617 6.617 0 0 1 .9.283 5.321 5.321 0 0 1 1.487.838 3.122 3.122 0 0 1 .814.956 1.819 1.819 0 0 1 .141.345.9.9 0 0 1 .036.143.281.281 0 0 1 -.532.183z" opacity=".75" transform="translate(0 -.085)"/><path d="m30.233 4.157s-6.151 4.38-9.465 16.528l1.89-.754a31.069 31.069 0 0 1 7.575-15.774z" fill="url(#N)" transform="translate(0 -.085)"/><path d="m66.32 17.04s-13.033-4.023-35.3-.2c0 0 11.423-4.036 34.531-1.128z" opacity=".24" transform="translate(0 -.085)"/><path d="m17.664 9.53s-7.593 10.07 1.3 23.432c-.002 0-11.933-10.693-1.3-23.432z" opacity=".24" transform="translate(0 -.085)"/><path d="m16.81 10.13s-8.781 9.138.172 21.484c0-.001-10.082-10.295-.172-21.484z" fill="#fff" opacity=".15" transform="translate(0 -.085)"/><path d="m28.727 4.861s-14.971 12.739-7.727 28.183c0 0-4.884-14.06 7.727-28.183z" fill="#fff" opacity=".15" transform="translate(0 -.085)"/><path d="m31.513 16.016s13.2-4.565 32.97-1.857l.739 1.052a77.974 77.974 0 0 0 -33.709.805z" fill="#fff" opacity=".1" transform="translate(0 -.085)"/><path d="m30.154 7.131s15.326-4.464 25.578-1.544l.968.77s-5.795-3.633-26.546.774z" fill="#fff" opacity=".1" transform="translate(0 -.085)"/><path d="m40.662 34.736.188.39a5.381 5.381 0 0 0 .595.935 3.114 3.114 0 0 0 1.193.888 2.935 2.935 0 0 0 .814.206 5.262 5.262 0 0 0 .892.01 3.549 3.549 0 0 0 .868-.143 3.2 3.2 0 0 0 1.849-1.392 4.134 4.134 0 0 0 .459-1.011 3.5 3.5 0 0 0 .105-.414.049.049 0 0 1 .1.005 2.649 2.649 0 0 1 -.027.447 3.888 3.888 0 0 1 -.337 1.136 3.388 3.388 0 0 1 -1.109 1.3 3.546 3.546 0 0 1 -.885.419 4.185 4.185 0 0 1 -.987.2 3.78 3.78 0 0 1 -1-.015 3.462 3.462 0 0 1 -.948-.272 3.051 3.051 0 0 1 -1.3-1.128 4.066 4.066 0 0 1 -.492-1.083 3.906 3.906 0 0 1 -.108-.429.07.07 0 0 1 .054-.083.074.074 0 0 1 .076.034z" fill="#fff" opacity=".1" transform="translate(0 -.085)"/><ellipse cx="44.171" cy="33.543" fill="url(#O)" rx="2.41" ry="2.692" transform="matrix(.99689813 -.07870269 .07870269 .99689813 -2.503 3.496)"/></svg>