<?xml version="1.0" encoding="UTF-8"?>
<svg width="24px" height="24px" viewBox="0 0 24 24" version="1.1" xmlns="http://www.w3.org/2000/svg" xmlns:xlink="http://www.w3.org/1999/xlink">
    <g id="cal-new" stroke="none" stroke-width="1" fill="none" fill-rule="evenodd">
        <g id="Group">
            <path d="M19,2.5 L21.686747,2.5 C22.9643213,2.5 24,3.49522245 24,4.72289157 L24,20.7771084 C24,22.0047775 22.9643213,23 21.686747,23 L2.31325301,23 C1.03567865,23 -1.39601738e-16,22.0047775 -2.96059473e-16,20.7771084 L2.96059473e-16,4.72289157 C1.39601738e-16,3.49522245 1.03567865,2.5 2.31325301,2.5 L5,2.5 L5,1.06666667 C5,0.477562934 5.67157288,1.082166e-16 6.5,0 C7.32842712,-1.082166e-16 8,0.477562934 8,1.06666667 L8,2.5 L16,2.5 L16,1.06666667 C16,0.477562934 16.6715729,1.082166e-16 17.5,0 C18.3284271,-1.082166e-16 19,0.477562934 19,1.06666667 L19,2.5 Z" id="Rectangle-6" fill="#FEB600"></path>
            <polygon id="1" fill="#FFFFFF" points="11.0280327 8 14 8 14 18 11.7254427 18 11.7329081 10.3076923 9.50369838 11.0844405 9 9.53846154"></polygon>
        </g>
    </g>
</svg>
