<?xml version="1.0" encoding="UTF-8"?>
<svg width="24px" height="24px" viewBox="0 0 24 24" version="1.1" xmlns="http://www.w3.org/2000/svg" xmlns:xlink="http://www.w3.org/1999/xlink">
    <g id="contacts-new" stroke="none" stroke-width="1" fill="none" fill-rule="evenodd">
        <g id="Group" transform="translate(0.000000, 2.000000)">
            <path d="M2.66666667,17.0625 L1.33333333,17.0625 C0.596953667,17.0625 9.01805001e-17,16.4748737 0,15.75 C-9.01805001e-17,15.0251263 0.596953667,14.4375 1.33333333,14.4375 L2.66666683,14.4375 C3.40304633,14.4375 4,13.8498737 4,13.125 C4,12.4001263 3.40304633,11.8125 2.66666667,11.8125 L1.33333333,11.8125 C0.596953667,11.8125 9.01805001e-17,11.2248737 0,10.5 C-9.01805001e-17,9.77512627 0.596953667,9.1875 1.33333333,9.1875 L2.66666667,9.1875 C3.40304633,9.1875 4,8.59987373 4,7.875 C4,7.15012627 3.40304633,6.5625 2.66666667,6.5625 L1.33333333,6.5625 C0.596953667,6.5625 9.01805001e-17,5.97487373 0,5.25 C-9.01805001e-17,4.52512627 0.596953667,3.9375 1.33333333,3.9375 L2.66666667,3.9375 L2.66666667,1.71428571 C2.66666667,0.767511857 3.43417852,-4.81250689e-17 4.38095238,-2.22044605e-16 L22.2857143,0 C23.2324881,1.50788868e-15 24,0.767511857 24,1.71428571 L24,19.2857143 C24,20.2324881 23.2324881,21 22.2857143,21 L4.38095238,21 C3.43417852,21 2.66666667,20.2324881 2.66666667,19.2857143 L2.66666667,17.0625 Z" id="Rectangle-Copy-2" fill="#7F58DD"></path>
            <g id="Group-2" transform="translate(9.000000, 5.000000)" fill="#FFFFFF">
                <path d="M4.66666667,6 L4.66666667,6 C7.2439955,6 9.33333333,8.08933783 9.33333333,10.6666667 L9.33333333,11.3333333 L0,11.3333333 L0,10.6666667 C-3.15631751e-16,8.08933783 2.08933783,6 4.66666667,6 Z" id="Rectangle"></path>
                <circle id="Oval" cx="4.66666667" cy="2.33333333" r="2.33333333"></circle>
            </g>
        </g>
    </g>
</svg>
