<svg width="24" height="24" viewBox="0 0 24 24" fill="none" xmlns="http://www.w3.org/2000/svg">
<g clip-path="url(#clip0)">
<path d="M8.27869 12.0118L10.1365 15.3791H4.56304L3.23238 12.964C2.90726 12.3764 2.92584 11.6589 3.28115 11.0876L4.79527 8.64453H10.1365L8.27869 12.0118Z" fill="#757575"/>
<path d="M13.8519 8.64456L15.7097 12.0119L18.4964 7.25119L17.1727 4.93588C16.843 4.35763 16.2276 4 15.5611 4H12.6907L10.1362 8.64456H13.8519Z" fill="#757575"/>
<path d="M10.1367 8.64456L12.6912 4H10.2783H8.52964C7.86314 4 7.24774 4.35763 6.91565 4.93588L4.79541 8.64456H10.1367Z" fill="#545454"/>
<path d="M13.8519 15.3793H10.1362L12.8069 20.0122H15.6702C16.3367 20.0122 16.9544 19.6546 17.2842 19.074L18.7287 16.5404L15.7097 12.012L13.8519 15.3793Z" fill="#757575"/>
<path d="M12.8071 20.0237H8.23684C7.56337 20.0237 6.941 19.6591 6.61356 19.0693L4.56299 15.3792H10.1365L12.8071 20.0237Z" fill="#545454"/>
<path d="M15.71 12.0119L18.4967 7.25122L20.7447 11.0923C21.0768 11.6612 21.0837 12.3649 20.7609 12.9408L18.6128 16.7726L15.71 12.0119Z" fill="#545454"/>
</g>
<defs>
<clipPath id="clip0">
<rect width="18" height="16.0237" fill="white" transform="translate(3 4)"/>
</clipPath>
</defs>
</svg>
