<svg width="24" height="24" viewBox="0 0 24 24" fill="none" xmlns="http://www.w3.org/2000/svg">
<path d="M9.20784 14.6123C8.85495 14.373 8.60863 14.0225 8.47363 13.563L9.29548 13.2244C9.37126 13.5086 9.50153 13.7288 9.68626 13.8852C9.871 14.0415 10.096 14.1196 10.3589 14.1196C10.6265 14.1196 10.8586 14.0367 11.0528 13.8733C11.2471 13.7099 11.3442 13.5015 11.3442 13.248C11.3442 12.9899 11.2423 12.7791 11.0386 12.6157C10.8349 12.4523 10.5792 12.3694 10.2736 12.3694H9.79758V11.557H10.2239C10.4868 11.557 10.7071 11.4859 10.8871 11.3438C11.0671 11.2017 11.1571 11.0075 11.1571 10.7612C11.1571 10.5409 11.0765 10.3657 10.9155 10.2354C10.7544 10.1028 10.5507 10.0388 10.3021 10.0388C10.0605 10.0388 9.86863 10.1028 9.72653 10.233C9.58442 10.3633 9.47784 10.5267 9.41626 10.7067L8.6039 10.368C8.71284 10.0625 8.90942 9.79252 9.19837 9.55805C9.48732 9.32357 9.85916 9.20752 10.3092 9.20752C10.6407 9.20752 10.9415 9.27147 11.2068 9.40173C11.4721 9.52963 11.6805 9.70963 11.8297 9.93699C11.9789 10.1644 12.0547 10.4202 12.0547 10.7067C12.0547 10.9957 11.986 11.242 11.8463 11.4433C11.7065 11.6446 11.5336 11.7986 11.3299 11.9075V11.9573C11.5928 12.0662 11.8226 12.2438 11.9907 12.4736C12.1636 12.7033 12.2489 12.9804 12.2489 13.3025C12.2489 13.6246 12.166 13.9112 12.0026 14.1646C11.8392 14.418 11.6118 14.6146 11.3276 14.7591C11.041 14.9036 10.7165 14.977 10.3565 14.977C9.94442 14.9723 9.56074 14.8515 9.20784 14.6123ZM14.255 10.5338L13.3526 11.1852L12.9026 10.5007L14.5226 9.33305H15.1431V14.842H14.2573V10.5338H14.255Z" fill="#7D7D7D"/>
<path d="M16.7369 16.7368H7.26318V21H16.7369V16.7368Z" fill="#7C7C7C"/>
<path d="M16.7368 3H4.42105C3.63474 3 3 3.63711 3 4.42105V16.7368H7.26316V7.26316H16.7368V3Z" fill="#7D7D7D"/>
<path d="M3 16.7368V19.5789C3 20.3652 3.63474 21 4.42105 21H7.26316V16.7368H3Z" fill="#595959"/>
<path d="M21 7.26318H16.7368V16.7369H21V7.26318Z" fill="#BBBBBB"/>
<path d="M21 7.26316V4.42105C21 3.63711 20.3652 3 19.5789 3H16.7368V7.26316H21Z" fill="#5B5B5B"/>
<path d="M16.7368 21L21 16.7368H16.7368V21Z" fill="#747474"/>
</svg>
