<svg width="24" height="24" viewBox="0 0 24 24" fill="none" xmlns="http://www.w3.org/2000/svg">
<g clip-path="url(#clip0)">
<path d="M4.36082 17.7836L5.15464 19.1548C5.31959 19.4434 5.5567 19.6702 5.83505 19.8352L8.6701 14.928H3C3 15.2476 3.08247 15.5672 3.24742 15.8558L4.36082 17.7836Z" fill="#545454"/>
<path d="M12 9.15453L9.16495 4.24731C8.8866 4.41226 8.64948 4.63907 8.48454 4.92773L3.24742 13.9999C3.08454 14.2824 3 14.6019 3 14.9277H8.6701L12 9.15453Z" fill="#6D6D6D"/>
<path d="M18.1651 19.8352C18.4435 19.6702 18.6806 19.4434 18.8455 19.1548L19.1754 18.5878L20.7528 15.8558C20.9177 15.5672 21.0002 15.2476 21.0002 14.928H15.3301L16.5363 17.2991L18.1651 19.8352Z" fill="#747474"/>
<path d="M12.0001 9.15464L14.8351 4.24742C14.5568 4.08247 14.2372 4 13.9073 4H10.0929C9.76298 4 9.44339 4.09278 9.16504 4.24742L12.0001 9.15464Z" fill="#525252"/>
<path d="M15.3298 14.928H8.67001L5.83496 19.8352C6.11331 20.0001 6.4329 20.0826 6.7628 20.0826H17.237C17.5669 20.0826 17.8865 19.9898 18.1649 19.8352L15.3298 14.928Z" fill="#757575"/>
<path d="M18.134 9.46381L15.5155 4.92773C15.3505 4.63907 15.1134 4.41226 14.8351 4.24731L12 9.15453L15.3299 14.9277H20.9897C20.9897 14.6081 20.9072 14.2885 20.7423 13.9999L18.134 9.46381Z" fill="#BABABA"/>
</g>
<defs>
<clipPath id="clip0">
<rect width="18" height="16.0825" fill="white" transform="translate(3 4)"/>
</clipPath>
</defs>
</svg>
