<svg width="24" height="24" viewBox="0 0 24 24" fill="none" xmlns="http://www.w3.org/2000/svg">
<g clip-path="url(#clip0)">
<path d="M4.22727 19.0002H7.09091V11.7902L3 8.60938V17.7278C3 18.4297 3.55023 19.0002 4.22727 19.0002Z" fill="#7D7D7D"/>
<path d="M16.9092 19.0002H19.7728C20.4519 19.0002 21.0001 18.4319 21.0001 17.7278V8.60938L16.9092 11.7902V19.0002Z" fill="#7C7C7C"/>
<path d="M16.9092 6.27668V11.7902L21.0001 8.60931V6.91285C21.0001 5.33939 19.2696 4.44239 18.0546 5.38604L16.9092 6.27668Z" fill="#BBBBBB"/>
<path fill-rule="evenodd" clip-rule="evenodd" d="M7.09082 11.7901V6.27661L11.9999 10.0936L16.909 6.27661V11.7901L11.9999 15.6071L7.09082 11.7901Z" fill="#747474"/>
<path d="M3 6.9131V8.60956L7.09091 11.7904V6.27693L5.94545 5.38629C4.7325 4.44263 3 5.33964 3 6.9131Z" fill="#535353"/>
</g>
<defs>
<clipPath id="clip0">
<rect width="18" height="14" fill="white" transform="translate(3 5)"/>
</clipPath>
</defs>
</svg>
