<svg width="24" height="24" viewBox="0 0 24 24" fill="none" xmlns="http://www.w3.org/2000/svg">
<g clip-path="url(#clip0)">
<path fill-rule="evenodd" clip-rule="evenodd" d="M6.22727 21H16.8636C17.5427 21 18.0909 20.4518 18.0909 19.7727V7.5L13.5909 3H6.22727C5.54818 3 5 3.54818 5 4.22727V19.7727C5 20.4518 5.54818 21 6.22727 21ZM12.0569 9.95459H14.6137H15.6364V10.9773V12.4091V13.4319V14.8637V15.8864H14.6137H12.0569H11.0341H8.47732H7.45459V14.8637V13.4319V12.4091V10.9773V9.95459H8.47732H11.0341H12.0569ZM11.0341 10.9773H8.47732V12.4091H11.0341V10.9773ZM8.47732 13.4319V14.8637H11.0341V13.4319H8.47732ZM12.0569 14.8637H14.6137V13.4319H12.0569V14.8637ZM12.0569 12.4091H14.6137V10.9773H12.0569V12.4091Z" fill="#6D6D6D"/>
<path d="M13.5908 3L18.0908 7.5H13.5908V3Z" fill="#525252"/>
</g>
<defs>
<clipPath id="clip0">
<rect width="13.0909" height="18" fill="white" transform="translate(5 3)"/>
</clipPath>
</defs>
</svg>
