<svg viewBox="0 0 1600 1168" xmlns="http://www.w3.org/2000/svg"><path d="m207.34 1115.17v-945.17a71.51 71.51 0 0 1 71.54-71.54h1057.84a71.52 71.52 0 0 1 71.55 71.54v945.17z" fill="#e1e2e2"/><path d="m207.34 285.87v-118.46c0-46.91 32-84.84 71.54-84.84h1057.84c39.53 0 71.55 38.05 71.55 84.84v118.46z" fill="#6f93ad"/><path d="m1427.72 286c-25.86 2.34-51.72 3.82-77.45 5.05l-38.79 1.48-19.33.61-19.33.49c-25.86.5-51.72.74-77.45.87l-77.45.49-77.46.49-38.78.25-38.79.12-155 .37-155-.37-38.79-.12-38.79-.25-77.5-.48-77.45-.49c-25.86-.13-51.72-.37-77.45-.87l-19.33-.49-19.33-.61-38.79-1.54c-25.86-1.23-51.72-2.71-77.45-5.05v-5.42c25.86-2.34 51.71-3.81 77.45-5.05l38.79-1.47 19.33-.62 19.33-.49q38.79-.74 77.45-.86l77.45-.5 77.45-.49 38.79-.24 38.79-.13 155-.37 155 .37 38.79.13 38.78.24 77.46.49 77.45.5q38.78.18 77.45.86l19.33.49 19.33.62 38.79 1.47c25.86 1.24 51.72 2.71 77.45 5.05z" fill="#204a69"/><path d="m1302.49 1002.75h-358.69v-603.75h358.69" fill="#fff"/><path d="m1166.06 652.93h-135.2v-125.84a57.89 57.89 0 0 1 57.87-57.88h137.54v123.63a60.19 60.19 0 0 1 -60.21 60.09zm57.63 296.75h-192.83v-221.52h195.29v218.94a2.5 2.5 0 0 1 -2.46 2.58z" fill="#00be28"/><path d="m818.82 1007.43h-519.75v-430.1h572.45v430.1" fill="#fff"/><path d="m818.82 501.6h-519.75v-39.16a63.28 63.28 0 0 1 63.3-63.29h509.15v102.45" fill="#204a69"/><path d="m683.25 884.79s-10.59-28.69-38.66-33.74c-14.41-2.58-26.84 1.23-35.59 5.42a14.6 14.6 0 0 0 -4.8 22.16c6.28 7.64 16.25 16.26 31.28 19a57.2 57.2 0 0 0 47.77-12.81zm81.39 24.63a14.6 14.6 0 0 0 1.73-22.78c-7.39-6.9-19-14.41-34.11-14.29-28.57.13-45.26 22.65-45.26 22.65s15.27 24.87 44.69 24.87a57.87 57.87 0 0 0 33-10.46zm11.82-69.7a14.67 14.67 0 0 0 3.54-22.65c-6.9-7.51-17.74-15.89-32.76-17.12-28.44-2.34-47 18.84-47 18.84s13.18 26.11 42.61 28.45a56.3 56.3 0 0 0 33.61-7.52zm28.45-60.82a14.72 14.72 0 0 0 8.86-21.18c-4.92-9-13.42-19.58-27.82-24.38-27.09-9-50.12 7.14-50.12 7.14s6.65 28.44 34.72 37.68a55.73 55.73 0 0 0 34.36.74zm-105.77 37.67s-.37-30.57-25.14-44.82a56.24 56.24 0 0 0 -35.2-6.75 14.49 14.49 0 0 0 -11.94 19.21 52.45 52.45 0 0 0 23.14 28.42 57.1 57.1 0 0 0 49.13 3.94zm35-67.23s4.18-30.29-18.1-48.14a56.06 56.06 0 0 0 -29.19-11.7 17 17 0 0 0 -18.22 21.67 52.06 52.06 0 0 0 17.45 26.83 56.72 56.72 0 0 0 48.03 11.34z" fill="#fff" stroke="#ccced0" stroke-miterlimit="10" stroke-width="10.95"/><path d="m683.25 884.79s-10.59-28.69-38.66-33.74c-14.41-2.58-26.84 1.23-35.59 5.42a14.6 14.6 0 0 0 -4.8 22.16c6.28 7.64 16.25 16.26 31.28 19a57.2 57.2 0 0 0 47.77-12.81zm81.39 24.63a14.6 14.6 0 0 0 1.73-22.78c-7.39-6.9-19-14.41-34.11-14.29-28.57.13-45.26 22.65-45.26 22.65s15.27 24.87 44.69 24.87a57.87 57.87 0 0 0 33-10.46zm11.82-69.7a14.67 14.67 0 0 0 3.54-22.65c-6.9-7.51-17.74-15.89-32.76-17.12-28.44-2.34-47 18.84-47 18.84s13.18 26.11 42.61 28.45a56.3 56.3 0 0 0 33.61-7.52zm28.45-60.82a14.72 14.72 0 0 0 8.86-21.18c-4.92-9-13.42-19.58-27.82-24.38-27.09-9-50.12 7.14-50.12 7.14s6.65 28.44 34.72 37.68a55.73 55.73 0 0 0 34.36.74zm-105.77 37.67s-.37-30.57-25.14-44.82a56.24 56.24 0 0 0 -35.2-6.75 14.49 14.49 0 0 0 -11.94 19.21 52.45 52.45 0 0 0 23.14 28.42 57.1 57.1 0 0 0 49.13 3.94zm35-67.23s4.18-30.29-18.1-48.14a56.06 56.06 0 0 0 -29.19-11.7 17 17 0 0 0 -18.22 21.67 52.06 52.06 0 0 0 17.45 26.83 56.72 56.72 0 0 0 48.03 11.34z" fill="none" stroke="#ccced0" stroke-miterlimit="10" stroke-width="12.43"/><path d="m506.19 937.25a89.55 89.55 0 0 1 -1.85-30.25 177.58 177.58 0 0 1 5.29-30 206.56 206.56 0 0 1 10-28.56c4.06-9.24 8.86-18.23 15.51-26.11l3.82 2.22c-1.48 4.68-3.08 9.36-4.68 13.91l-4.68 13.79c-3.08 9.24-5.79 18.47-8 28s-4.6 18.75-6.43 28.31c-1 4.8-1.84 9.48-2.95 14.28-.62 2.34-1.11 4.8-1.72 7.26a55.53 55.53 0 0 1 -2.22 7.27z" fill="#ccced0"/><path d="m503.11 937.25a41.85 41.85 0 0 1 -1.36-5.67 46.6 46.6 0 0 1 -.12-5.79 35.46 35.46 0 0 1 2.71-11.32 64.54 64.54 0 0 1 12.07-19.47 124.14 124.14 0 0 1 16.25-15 140.67 140.67 0 0 1 17.85-11.82l3.08 3.08a54 54 0 0 1 -6.52 9c-2.34 2.7-4.81 5.29-7.27 7.75-4.92 4.93-9.6 10-13.91 15.15a108.4 108.4 0 0 0 -11.45 16c-.74 1.47-1.73 2.83-2.34 4.31l-1.1 2.2-.62 1.11-.49 1.11c-.62 1.48-1.48 3.08-2.22 4.68a33.93 33.93 0 0 1 -2.34 4.92z" fill="#ccced0"/><path d="m299.07 963.35c147.89-61.32 467.42-21.18 572.45 44l-572.45-1.85z" fill="#6f93ad"/><path d="m685 947.47c-.74-5.54-1.11-11-1.6-16.5s-.5-11.09-.62-16.63c-.12-11.08.37-22.16 1.35-33.24.37-5.54 1.24-11.08 2-16.5s1.73-11 2.71-16.5 2.34-11 3.57-16.38 2.84-10.84 4.56-16.13a257.55 257.55 0 0 1 28.2-60.83 206.53 206.53 0 0 1 44.4-49.76l3.08 3.2c-3.45 4.31-7 8.37-10.47 12.43-3.32 4.31-6.65 8.62-10 12.81l-9.18 13.19c-2.83 4.56-5.78 9-8.49 13.67a268.07 268.07 0 0 0 -25.51 58.86c-1.48 5.17-3.2 10.22-4.44 15.52s-2.7 10.46-3.69 15.76-2.34 10.46-3.08 15.88-1.84 10.59-2.46 16-1.6 10.71-2.09 16.13-1.36 10.83-2 16.25l-.87 8.13c-.37 2.71-.73 5.42-1 8.13-.62 5.41-1.23 11-2.09 16.37h-2.28z" fill="#ccced0"/><circle cx="322.84" cy="182.56" fill="#e1e2e2" r="17.61"/><circle cx="415.93" cy="182.56" fill="#ccced0" r="17.61"/><circle cx="508.89" cy="182.56" fill="#ccced0" r="17.61"/><path d="m0 0h1600v1168h-1600z" fill="none"/></svg>