<svg id="adWords" xmlns="http://www.w3.org/2000/svg" viewBox="0 0 1566.74 1108"><title>adWords</title><path d="M2182.84,1960.3c1,13.09,1.73,21,3,34.08,6.5,0,12.6-3.17,19.1-3.41-1.46-13.64-2.07-18.89-3.73-32.51-4-35-8.21-69.9-13-104.78a6.77,6.77,0,0,0-13.46,1.35C2177,1890.17,2179.82,1925.25,2182.84,1960.3Z" transform="translate(-1769.34 -1411)" style="fill:#CCCED0"/><path d="M1842.22,2331.78c64.27-167.36,151.58-291.58,331.61-329.43,239.54-50.37,242-71.67,412-266.34,37.93-43.42,168.42-7.35,242.15-28.49,122.88-35.23,256.44-126.83,452.77-126.83v931.95H1842.22Z" transform="translate(-1769.34 -1411)" style="fill:#CCCED0"/><path d="M2435.2,2158.24c8.21,22.28,7.53,44.56,8.27,66.84s.94,44.56,1.18,66.84c-.24,22.28-.38,44.56-1.18,66.84s0,44.56-8.27,66.84h-5.07c-8.23-22.28-7.53-44.56-8.27-66.84s-.94-44.56-1.18-66.84c.24-22.28.38-44.56,1.18-66.84s.05-44.56,8.27-66.84Z" transform="translate(-1769.34 -1411)" style="fill:#E1E2E2"/><path d="M2872.56,1918.41c8.22,42.27,7.53,84.53,8.27,126.8s.93,84.53,1.18,126.8c-.24,42.26-.38,84.53-1.18,126.8s0,84.53-8.27,126.8h-5.07c-8.23-42.26-7.53-84.53-8.27-126.8s-.93-84.53-1.18-126.8c.24-42.27.38-84.53,1.18-126.8s.05-84.53,8.27-126.8Z" transform="translate(-1769.34 -1411)" style="fill:#E1E2E2"/><path d="M2634.05,2019.9c8.22,33.81,7.53,67.62,8.27,101.42s.93,67.62,1.18,101.42c-.24,33.81-.38,67.61-1.18,101.42s0,67.62-8.27,101.42H2629c-8.23-33.81-7.53-67.62-8.27-101.42s-.93-67.61-1.18-101.42c.24-33.81.38-67.62,1.18-101.42s.05-67.62,8.27-101.42Z" transform="translate(-1769.34 -1411)" style="fill:#E1E2E2"/><path d="M3280.76,2509.55c-120,8.2-239.91,7.6-359.87,8.08L2561,2519l-359.87-1.36c-120-.48-239.91.13-359.87-8.09v-5.07c120-8.22,239.91-7.6,359.87-8.08L2561,2495l359.87,1.37c120,.48,239.91-.12,359.87,8.08Z" transform="translate(-1769.34 -1411)" style="fill:#204A69"/><path d="M3280.76,1515.74a55.31,55.31,0,0,0-55.31,55.31,56,56,0,0,0,.28,5.62c-54.15,1-108.48,9.09-160.69,25.32-70.34,21.2-133.11,59.4-199.41,82.69a427.75,427.75,0,0,1-102.47,22.68,499.2,499.2,0,0,1-52.67,2.19c-8.8,0-17.63-.55-26.44-.79a225.2,225.2,0,0,0-28.51.28,164.38,164.38,0,0,0-55.94,14.44,182.4,182.4,0,0,0-47.46,32.22c-27.82,25.8-48.68,56.14-70,84.78s-43,56.53-69.61,78.42a202,202,0,0,1-91.4,43.67c-16.45,3.06-35.15,5-52.91,7.82l-26.86,4.42-26.76,5.18c-35.59,7.4-70.95,16.65-105.38,29.12-34.28,12.69-68,28.1-98.62,48.84s-58.25,46.09-80.57,75.49c-22.71,29.19-39.32,62.22-53.52,95.54q-2.81,6.63-5.46,13.31a75.87,75.87,0,0,0-28.49-5.5c-40.41,0-73.18,31.31-73.18,69.94s32.76,69.94,73.18,69.94,73.18-31.31,73.18-69.94c0-24.78-13.5-46.54-33.84-59,17.2-36.94,36.46-72.43,62-103.47,43.66-55.34,106.13-91.93,172.41-115.64,33.29-11.87,67.75-20.7,102.6-27.75L2245,1996l26.39-4.2c17.77-2.73,34.91-4.33,53.85-7.68,37.07-6.8,72.58-23.77,101.53-47.74,29.24-23.82,52.25-53.16,73.9-82s42.26-58,67.52-81c12.63-11.43,26.31-21.31,41.34-28.29a140.64,140.64,0,0,1,47.91-12.64,202.13,202.13,0,0,1,25.39-.4c9.16.19,18.3.71,27.48.62a522,522,0,0,0,55.05-2.72,450.28,450.28,0,0,0,107.5-24.64c34.61-12.41,67.34-28.41,99.73-43.69,32.36-15.44,64.95-29.4,98.47-40.78,33.43-11.72,68.12-19.16,103.09-25.59,17.82-3,35.78-5.41,53.85-7.34a55.32,55.32,0,1,0,52.71-72.11Z" transform="translate(-1769.34 -1411)" style="fill:#46799A"/><path d="M2350.87,1811.41c-38.7,6-77.49,11-116.31,15.59-38.78,5.07-77.71,8.53-116.57,12.8s-77.8,7.49-116.7,11.29l-116.73,11a10.82,10.82,0,0,1-11.79-9.76h0v-.07L1851.2,1622l-2.7-28.78c-.83-9.75-2-18.6-2.31-30a99.42,99.42,0,0,1,21.7-60.58c13.36-17.18,32.19-29.6,52.71-36.18,10.08-3.16,21.66-4.79,30.74-5.53l28.77-2.93,460.25-46.89h.06a10.49,10.49,0,0,1,11.5,9.38v.14l9.32,105.89c3.17,35.29,5.67,70.64,8.54,106l4.07,53,.85,13.27c0,4.74.56,9.6-.06,14.4a88.73,88.73,0,0,1-6.52,28c-14.16,36-50.72,59.19-87,60.62a2.54,2.54,0,0,1-2.64-2.44,2.58,2.58,0,0,1,2.13-2.61c17-3,33.25-9.68,46.27-20.42,13-10.58,23.15-24.5,28.35-40a74.21,74.21,0,0,0,4.16-23.86c.34-4-.41-8-.63-12.14l-1.56-13.2-5.57-52.88c-3.55-35.27-7.48-70.5-10.73-105.79L2431,1422.48l11.57,9.51-460,49.58-28.75,3.1c-10.11,1-17.71,2-26.08,4.51-16.15,5.11-31,14.76-41.37,28a76,76,0,0,0-16.91,46.18c.13,7.84,1.26,18.15,2,27.61l2.54,28.81,20.35,230.48-11.79-9.83,116.8-10.2c38.95-3.27,77.84-7.09,116.83-9.91s77.9-6.41,117-8.4c39-2.45,78.08-4.5,117.22-5.61a2.54,2.54,0,0,1,.46,5.05Z" transform="translate(-1769.34 -1411)" style="fill:#CCCED0"/><polygon points="390.21 99.11 412.16 86.81 429.23 105.29 453.91 100.37 464.44 123.23 489.43 126.18 492.38 151.17 515.24 161.7 510.32 186.38 528.8 203.45 516.5 225.4 528.8 247.35 510.32 264.43 515.24 289.11 492.38 299.63 489.43 324.62 464.44 327.57 453.91 350.43 429.23 345.51 412.16 364 390.21 351.69 368.26 364 351.18 345.51 326.5 350.43 315.98 327.57 290.99 324.62 288.04 299.63 265.18 289.11 270.1 264.43 251.61 247.35 263.92 225.4 251.61 203.45 270.1 186.38 265.18 161.7 288.04 151.17 290.99 126.18 315.98 123.23 326.5 100.37 351.18 105.29 368.26 86.81 390.21 99.11" style="fill:#fcd56e"/></svg>