<svg viewBox="0 0 193 156" width="250" xmlns="http://www.w3.org/2000/svg"><path d="m192.6 65.9v-43.6h-51v43.6z" fill="#fff"/><path d="m0 63.7v-35.9c0-4.3 3.4-7.7 7.7-7.7h43.3v43.6z" fill="#3895ba"/><path d="m103 44.4 25.3-.5c8.4-.1 16.7-.2 25-.3l-1.5 1.5-.1-43.6 1.5 1.5h-22.8-11.4-5.7-2.9c-.5 0-.9 0-1.3 0s-.8.1-1.1.2c-1.5.5-2.8 1.5-3.6 2.8-.4.7-.7 1.4-.8 2.2-.1.4-.1.8-.1 1.2v1.4l-.1 11.1zm-1.5 1.5-.5-23.2-.1-11.7v-1.5c0-.5 0-1.1.1-1.6.2-1.1.5-2.2 1.1-3.1 1.1-1.9 3-3.4 5.1-4.1.5-.2 1.1-.3 1.6-.4.6-.1 1.1-.1 1.6-.1h2.9 5.7 11.4 22.8c.8 0 1.5.7 1.5 1.5l-.1 43.6c0 .8-.6 1.5-1.4 1.5-8.7 0-17.4-.1-26-.3z" fill="#c3c4c7"/><path d="m141.6 65.9v-35.9c0-4.3 3.5-7.7 7.7-7.7h43.3v43.6z" fill="#dcdcde"/><path d="m139.3 141.8v-35.9c0-4.3 3.4-7.7 7.7-7.7h43.3v43.6z" fill="#187aa2"/><path d="m10.9 125.2c1.8-.6 160.9 0 160.9 0s10.2-33.5-16.9-40.6c-8.1-2.1-12.8-1.3-15.2-.3-1 .4-2.1-.2-2.2-1.2-.6-6.7-4.4-25.2-28.9-25.2-27 0-38.8 25.4-38.8 25.4s-6-8.8-16.6-9.6c-31.5-2.5-39.2 32.4-39.2 32.4" fill="#fff"/><path d="m10.7 124.6c.4-.1.5-.1.8-.1h.6 1.3l2.5-.1 5-.1 10.1-.2 20.1-.2c13.4-.1 26.8-.2 40.2-.2h80.5l-1.3 1c1.6-6.2 2.3-12.8 1.4-19.1s-3.9-12.3-9-15.8c-2.5-1.8-5.5-3-8.5-3.8-3.1-.8-6.3-1.3-9.4-1.2-1.5.1-3.1.3-4.4.8l-.3.1c-.2.1-.4.1-.6.2-.4.1-.8.1-1.2 0-.8-.1-1.5-.6-2-1.3-.2-.4-.4-.8-.4-1.2l-.1-.6-.1-1.2c-.4-3.1-1.3-6.2-2.8-9-1.4-2.8-3.3-5.3-5.7-7.3s-5.2-3.5-8.3-4.4c-3-1-6.2-1.4-9.5-1.4-3.2-.1-6.4.2-9.6.9-12.6 2.5-23.3 12.1-29 23.6-.3.7-1.2 1-1.8.6-.2-.1-.4-.2-.5-.4-3.5-4.6-8.8-8.4-14.7-9.1-6-.7-12.3-.1-17.8 2.5-5.6 2.5-10.2 6.8-13.8 11.9-3.6 5-6.3 10.8-8 16.7-.1.2-.3.3-.5.3-.2-.1-.3-.3-.3-.5 1.5-6.2 4-12.1 7.6-17.4s8.3-9.9 14.2-12.7c5.8-2.9 12.5-3.8 18.9-3.1 1.7.1 3.3.6 4.8 1.1 1.5.6 3.1 1.3 4.5 2.1 2.8 1.8 5.3 3.9 7.3 6.6l-2.3.2c1.6-3.2 3.5-5.9 5.7-8.5 2.1-2.6 4.5-5.1 7.1-7.3 5.2-4.4 11.4-7.8 18.1-9.2 3.3-.8 6.8-1.1 10.2-1s6.9.5 10.2 1.5 6.5 2.6 9.3 4.8c2.7 2.2 4.9 5.1 6.5 8.2s2.6 6.5 3.1 9.9l.2 1.3v.5-.1h.1l.3-.1c1.8-.7 3.6-.9 5.4-1 3.6-.1 7 .5 10.3 1.3 3.3.9 6.7 2.2 9.5 4.3 2.9 2.1 5.3 4.8 7 7.9s2.7 6.5 3.2 9.9.5 6.9.2 10.3-.8 6.7-1.8 10.1c-.2.6-.7 1-1.3 1l-80.5-.4-40.2-.3-20.2-.1-10.1-.1h-5-2.5-1.3-1.1-.2c-.3 0-.6-.2-.6-.6 0-.2.2-.4.5-.5" fill="#c3c4c7"/><path d="m183.9 41.7h-33.7v-1.7c0-2.9 2.4-5.3 5.3-5.3h28.5v7z" fill="#fff"/><path d="m183.3 54.9h-21.5v-1.6c0-2.9 2.4-5.3 5.3-5.3h16.2z" fill="#fff"/><path d="m9.6 55.3c1.6-4.9 7.8-11.5 17.4-10.5s14.4-4.9 16.3-8.3c.3-.5 1.1-.3 1.1.3v18.5z" fill="#c3c4c7"/><path d="m57.5 27.8h-13v-7.5c0-2.5 2-4.5 4.5-4.5h8.5z" fill="#dcdcde"/><path d="m123.3 34.9h-11v-5.4c0-2.7 2.2-4.9 4.9-4.9h6.2z" fill="#dcdcde"/><path d="m120.8 15.8c1.2-1.2 2.3-1.1 3.5-1.2s2.3-.2 3.5-.2 2.3.1 3.5.2 2.3 0 3.5 1.2v.8c-1.2 1.2-2.3 1.1-3.5 1.2s-2.3.2-3.5.2-2.3-.1-3.5-.2-2.3 0-3.5-1.2z" fill="#004e6e"/><path d="m42.7 155.4v-35.9c0-4.3 3.4-7.7 7.7-7.7h43.3v43.6z" fill="#c3c4c7"/><path d="m63.6 126.6 12.9 8.1-12.9 8.7z" fill="#004e6e"/></svg>
