<svg viewBox="0 0 1562 860" xmlns="http://www.w3.org/2000/svg"><path d="m445.4 350.6c-8 7.7-18.1 13.7-29.7 17.5-3.5 1.3-7 2.2-10.6 2.9l-7.5 2.4 6 24.2c.7 2-.5 3.5-2.3 4.3 7.7 3.5 15.3 8 21.2 13.9 2.1 1.8 2.3 5.1.4 7.1-.2.2-.2.3-.4.4-.7.7-1.7 1.2-2.8 1.4l23.9 25.1 27.3 28.5-13.6-80.1c-3.7-9.2-13.9-33.9-11.9-47.6zm-52.9 359.1h2.7v-.1zm-60.1-329.6h-3.1c-4.6 0-4.6 1.5-4.6 3-.7 6.8 0 11.3 3 13.6 4.6 3.8 14.4 3.8 25.8 0 3-.7 3.8-2.2 3.8-2.2.1-3-12.8-12.9-24.9-14.4zm139.7 111.5-2.5 4.8 4.5-2.9z" fill="none"/><path d="m362.6 206.8c-41.7 14.2-65.1 59.1-52.1 100.9l123.4-84c-13-19.6-41.2-26.6-71.3-16.9zm31.8 157.4c2.5 0 4.9-.2 7.3-.6l6.6-1.5c1.9-.5 3.8-1.1 5.7-1.7 22.1-7.4 37.3-22.5 43.9-42.7-2.4 1.2-6.5 1.8-10.6 1.8h-3c-2.1-.1-3.7-1.9-3.6-4 .1-2 1.7-3.5 3.6-3.6 4.6 0 8.3 0 12.1-1.5 1.5-.5 2.6-.3 3.4.4 1.6-7 2.2-14.4 1.8-22.4 0-6 3.8-10.6 7.5-14.4 3.8-4.6 6-7.5 5.3-9.9-1.5-3.8-6-6.8-11.3-9.9-8.7-4.2-18.7-10.8-25.6-24l-50.9 34.7c9.4 28.2 7.2 70.7-15.8 87.2l20.5 13.7h.2c.7-.9 1.7-1.6 2.9-1.6zm37.1-102.9c2.2-.7 5.3 1.5 5.3 3.8l1.5 8.3c.7 3-1.5 5.3-3.8 6s-5.3-1.5-5.3-3.8l-1.5-8.3c-.7-3 .8-6 3.8-6z" fill="#fff"/><path d="m813 441.4v-4.6c0-2.9-.5-6.4.9-9.3-2.7.9-5.3 1.6-8 2.2-13.6 2.5-27.6.6-39.9-5.6-3-1.4-5.9-2.9-8.8-4.6-4-2.4-7.9-5.1-11.5-8-.8-.7-1.7-1.4-2.6-2.1.8.7 1.7 1.6 2.6 2.4 0 2 .1 3.9.1 5.9 0 4.1-.5 8.6-.2 12.8.2-1.4.5-2.3.7-2.1 0-.1 1.5 8 2 12.6 0 4.1.5 8.1.5 12.7v-1c1 2 2 4.6 3.1 7.1 1.1 2.2 2.4 4.2 4.1 6 1.6 1.9 3.5 3.6 5.6 5.1 2 1.7 4.2 3 6.5 4.1.2.2.2.3.3.6 18.8 6.1 42.7-.9 49.8-20.9-2.2-2.1-3.7-4.6-4.6-7.5-.4-2-.6-3.9-.6-5.8zm3.6-14.6c.2-.1.7-.3 1.2-.7-.4.2-.8.3-1.3.5.1.1.1.1.1.2z" fill="#646970"/><path d="m838.4 329.1c-3.1-12.7-7.6-24.8-11.1-37.4-.5-1 0-2 1-2 .2.1.4.2.6.2-1.4-4.5-3.9-11-5.4-15.2-1.2.6-2.2 1.2-3.3 1.7l-44.5 22.3-43.9 21.7c-.7 14.2 6.5 31.2 12.6 43.1 4.4 8.4 2.7 18.6-4.1 25.3l-4.9 6c.8.8 1.6 1.7 2.4 2.6 2.7 2.7 5.5 5.2 8.3 7.7 6.9 5.9 14.3 11 22.5 14.6 11.6 5.1 24.3 7.1 36.5 4.6 2.2-.6 4.4-1.2 6.5-1.9 3.8-1.3 7.5-2.9 10.6-5.2 5.1-3.5 9.4-8 12.7-13.2 6.5-10.6 8.6-23.8 8.6-36.5s-2.1-25.7-5.1-38.4zm-32.9-16.2c1.5-2 3.6-3.1 5.1-4.1 1.7-.9 3.6-1.4 5.6-1.5 4.1-.5 8.1-.5 12.2 2 1 .5 1 1.5.5 2.6-.5.5-1 1-2 .5-1.5-.4-3-.6-4.6-.5-1.7-.1-3.4.1-5.1.5-1.5.5-3.6.5-5.1 1-1.4.4-2.7.9-4.1 1.5l-.5.5c-1 .5-2 0-2-.5zm-4.1 27.4c.5.5 1 .5 1.5 1 2.5 4.1 4.6 8.6 6.5 12.7 1.5 4.6 3.6 9.1 4.6 13.7 0 1-.5 2-1.5 2s-1.5 0-2-1c-2.5-4.1-4.1-8.6-6-13.2-1.6-4.5-2.9-9-4.1-13.7 0-.5.5-1.5 1-1.5zm-30.3 7c2.7-1 5.6.4 6.5 3.1l3.1 7.6c.9 2.7-.4 5.6-3.1 6.5-.2.1-.3.2-.5.2-2.6.8-5.3-.7-6-3.2l-3.1-7.6c-1-2.7.5-5.6 3.1-6.6zm-24.4-6c1-4.6 4.6-7.1 7.6-9.6 1.7-1.2 3.6-2 5.6-2.6 2.2-.7 4.4-.8 6.5-.5 1 0 1.5 1 1 2-.6.7-1.2 1.2-2 1.5-1 0-2.5 1-4.1 1.5-1.7.7-3.1 1.5-4.6 2.6-1.5 1-2.5 2-4.1 3.1-1 1-2.5 2-3.1 3.6-.5 1-1.5 1-2.5.5-.3-.6-.7-1.1-.3-2.1zm75.4 46c-.9 3.4-3.1 6.2-6 8.1-3 2-6.5 3.1-10.1 3.1-2.6 0-5.6-.5-7.6-2-1-1-1.5-2.5-.5-3.6s2.5-1.5 3.6-.5c1.3.9 2.9 1.5 4.6 1.5 2.6-.2 5-1 7-2.6 2.1-1.5 3.6-3.1 4.1-5.1.5-1.5 2.5-2.5 3.6-2 .9.7 1.8 1.6 1.3 3.1zm5.1-42c-2.7.9-5.6-.4-6.5-3.1l-3.1-7.5c-1-2.7.4-5.6 3.1-6.5s5.6.4 6.5 3.1l3.1 7.6c.9 2.5-.5 5.4-3.1 6.4zm-512.9-30.9-3.6 2.5c7.5 15.3 27.2 49.2 52 39.8 3-1.2 5.7-2.7 8.2-4.4 23-16.6 25.3-59 15.8-87.2zm-6.9-4.7 2.3-1.4z" fill="#646970"/><path d="m522.3 435.3c-5.3-12.1-9.1-21.2-10.6-25.8-11.3-45.4-30.2-57.5-40.8-61.3-9.1-3-15.9-.7-18.1.7-4.6 3.8 2.2 27.3 10.6 46.9v.7l17.3 92.6 23.5 22.4c1.5 1.4 1.5 3.7.2 5.1l-.2.2c-1.5 0-2.3.7-3 .7-.8.1-1.7-.2-2.2-.7l-24.8-23.6-4.4 2.9-76.1 49.9c12.3 10.7 24.4 19.8 36.2 27.5 54.6 35.8 100.7 40.4 120.5 24.4 30.9-25.7-9.2-118.7-28.1-162.6z" fill="#fff"/><path d="m433.9 223.7 3.6-2.4 2.5-1.7c-14.6-23.2-46.5-31.6-80.3-20.3-46.1 15.9-71.2 65.9-56 112.7l1.2-.3 2.7-1.8v-.1l2.3-1.4.8-.6c-13-41.8 10.4-86.7 52.1-100.9 29.9-9.8 58.1-2.8 71.1 16.8zm96.1 208.5c-5.3-12.1-9.1-21.2-9.9-24.9-12.1-48.5-34-62.8-46.1-66.6-7.4-2.7-14.4-2.3-19.6-.6 9.9-14 15-31.7 14.2-51.5 0-3.1 3.1-6.1 6-9.1 3.8-4.6 9.1-9.9 6.8-17.4-2.2-6.8-8.4-10.6-15.2-14.4-8-4.4-16.7-9.5-22.8-21.4l-2.4 1.7-3.4 2.3c6.9 13.3 17 19.8 25.8 24.2 5.3 3.1 9.9 6 11.3 9.9.7 2.2-1.5 5.3-5.3 9.9-3.8 3.8-7.5 8.3-7.5 14.4.3 8-.3 15.4-1.8 22.4-.8-.7-2-.9-3.4-.4-3.8 1.5-7.5 1.5-12.1 1.5-2 .1-3.5 1.7-3.6 3.6-.1 2.1 1.5 3.9 3.6 4h3c4.1 0 8.2-.6 10.6-1.8-6.6 20.2-21.8 35.3-43.9 42.7-2 .7-3.9 1.2-5.7 1.7l-6.6 1.5c-2.4.4-4.8.6-7.3.6-1.2.1-2.3.7-3 1.7h-.2c-2.4.6-3.1 1.7-3 4.4l7.5 29.3c1.7.7 3.6 1.4 5.3 2.2 1.9-.8 3-2.2 2.3-4.3l-6-24.2 7.5-2.4c3.6-.7 7.2-1.6 10.6-2.9 11.7-3.8 21.7-9.8 29.7-17.5-2 13.8 8.2 38.4 11.8 47.7l13.7 80 .4 2.2-30.7-29.2-.2-.2c-1.5-1.4-3.9-1.3-5.3.2s-1.3 3.9.2 5.3l36.8 35 2 1.9 24.8 23.6c.6.6 1.4.8 2.2.7.7 0 1.5-.7 3-.7l.2-.2c1.4-1.5 1.3-3.8-.2-5.1l-23.5-22.5-17.3-92.6v-.7c-8.4-19.6-15.2-43.2-10.6-46.9 2.2-1.5 9-3.8 18.1-.7 10.6 3.8 29.5 15.9 40.8 61.3 1.5 4.6 5.3 13.6 10.6 25.8 18.9 43.9 59 136.9 28 162.7-19.8 16.1-65.9 11.4-120.5-24.4-11.8-7.7-23.9-16.8-36.2-27.5-.4-.4-.9-.7-1.3-1.2-1.7-1.2-3.9-.8-5.1.7-1.3 1.7-1 4 .6 5.3 5.6 4.8 11.2 9.3 16.7 13.6 21.4 16.3 42.7 28.9 62.7 37.4 2.8 1.2 5.6 2.3 8.4 3.3 16.4 6.1 31.8 9.3 45.3 9.3 14.4 0 26.5-3.1 34.9-10.6 35.6-29.8-4.6-122.1-25.7-172.1z" fill="#004e6e"/><path d="m431.5 261.3c-3.1 0-4.6 3-3.8 6l1.5 8.3c0 2.2 3 4.6 5.3 3.8 2.3-.7 4.6-3.1 3.8-6l-1.5-8.3c0-2.3-3-4.5-5.3-3.8z" fill="#004e6e"/><path d="m691.7 675.1 3.1-34.9 3.1-34.9 1.5-17.7c.5-5.6 1-11.6 2.5-17.2.5-1 1-1.5 2-1 .5 0 1 .5 1.5 1 .5 6-.5 11.6-.5 17.7l-1.5 17.7-3.1 34.9-3.6 34.9c-.9 11.4-2.6 22.7-4.9 33.9l124.8.1v-.5c.1-8.9 7.4-15.9 16.2-15.7h100.5l-.8-73.9c0-31.9-6.5-61.4-18.1-86.5h-.1c-.5 0-1 0-1-.5-7-10.5-14.8-20.5-23.3-29.8-8.6-9.2-18.1-17.5-28.3-24.8-5.1-3.6-10.3-7-15.7-10.1-5.6-3.1-11.1-6-16.7-8.1-1.4-.4-2.7-.9-4.1-1.5-1.8-.3-3.5-1.1-5.1-2 0 3.2-4.5 10.1-4.6 13.3-.1 2.6-1 3.6-1.8 6-1.1 2.9-2.2 5.6-4.6 7.3s-5.1 2.6-7.5 4.4c-4 3.1-9.9 2-14.5 1.8-7.6-.3-15.2-2-22.2-5-3.2-1.3-7.4-2.9-9.8-5.9-1.8-2.2-2.5-5.6-3.5-8.4-.3-1-.7-2-1.1-3-1.2-1.6-2.3-3.2-3.3-5-1.5-2.6-2.7-5.3-3.6-8.1v-.1c-72.7 16-123.4 84.7-130.9 163.9-5.7 58.7-6.2 82.7-5.4 92l82.8.1c-.4-11.4.6-22.9 1.6-34.4zm201.8-175.5 3.5 4c-14.1-18.9-31.6-33.6-51.9-42.4 6.8 3.7 13.2 8.1 19.6 12.7 10.3 7.7 19.9 16.3 28.8 25.7z" fill="#187aa2"/><path d="m818.2 454.5c-7 20-31 27.1-49.8 20.9.2.3.2.7.2 1 0 .5-.5.5-1 .5-3.1-.5-5.6-1-8.1-2.6-2.6-1.6-5.1-3.1-7-5.6-.7-.7-1.2-1.4-1.7-2.2.3 1 .7 2 1.1 3 1 2.8 1.7 6.2 3.5 8.4 2.4 3 6.5 4.5 9.8 5.9 7 3 14.6 4.6 22.2 5 4.6.2 10.5 1.2 14.5-1.8 2.3-1.8 5.1-2.7 7.5-4.4s3.6-4.4 4.6-7.3c.8-2.3 1.7-3.5 1.8-6 .1-3.2 4.6-10.1 4.6-13.3-1-.4-1.7-.9-2.2-1.5z" fill="#187aa2"/><path d="m777.6 350.4c-1-2.7-3.9-4-6.5-3.1-2.7.9-4 3.9-3.1 6.5l3.1 7.6c.8 2.6 3.5 4 6 3.2.2-.1.3-.1.5-.2 2.6-1.1 3.9-3.9 3.1-6.5zm43-22.3c-2.7 1-4 3.9-3.1 6.5l3.1 7.6c1 2.6 3.9 4 6.5 3.1 2.6-1.1 3.9-3.9 3.1-6.5l-3.1-7.6c-.8-2.7-3.8-4.1-6.5-3.1z" fill="#004e6e"/><path d="m435.2 451.2c1.4-1.5 3.8-1.6 5.3-.2l.2.2 30.7 29.2-.4-2.2-27.3-28.5-23.9-25.1c-.3.1-.7.1-1 .1-1.4 0-2.7-.6-3.8-1.5-15.9-15.9-47.6-20.5-48.4-20.5-.7-.2-1.4-.4-2-.8-1.7 1.7-4.1 3.4-7.8 4.6-6 2.7-12.4 3.9-18.9 3.8-3.4 0-6.5-.4-9.4-1.2-18.9 11.8-33.3 30.8-38.9 54.2-.7 3.8-1.5 7.5-2.3 10.6-11.8 108.7 5.1 219.4 8 236.1 31.6-.2 62.7-.2 97.6-.3l2.7-.1 6.8-146.1 2.3 1.2c-5.6-4.3-11.2-8.8-16.7-13.6-1.7-1.3-1.9-3.6-.6-5.3 1.2-1.6 3.5-1.9 5.1-.7.4.4.9.7 1.3 1.2l76.1-49.9 2.5-4.7-36.9-35c-1.7-1.6-1.7-4-.3-5.5zm-40.7-52.9c-1.8-.4-3.6-.8-5.5-1.2 2.2.7 4.3 1.5 6.6 2.3zm294.5-61.2c.2-.1.2-.2.4-.2 1.7-.9 3.5-1.9 5.2-2.8.5-.2 1-.6 1.6-.8 8.4-4.5 16.9-8.9 25.4-13.2l7-3.5 4-2 20.9-10.6.5-.5c3.6-4.1 7.5-8.2 11.3-12.1 3.6-3.6 7.5-7.2 11.3-10.6 4.4-3.8 8.9-7.5 13.6-11.1 4-3 8-5.9 12.2-8.7 5.5-3.6 11.1-7 17.1-9.6l.5-.2c-49.1-48.4-162.1 5.5-131 85.9z" fill="#3895ba"/><path d="m896.9 503.6c-1.2-1.3-2.2-2.7-3.5-4-8.9-9.4-18.5-18.1-28.8-25.8-6.4-4.6-12.8-8.9-19.6-12.7-4.6-2.5-9.3-4.7-14.3-6.5-1.5-.5-3.6-1-5.1-1.5-1.2-.4-2.4-.9-3.6-1.5-2.1-1.4-3.5-3.6-4.1-6-.4-3-.6-6-.5-9.1 0-3.1 0-6.5-1-9.6l-.1-.1.1.1c0-.1 0-.1-.1-.1.4-.2.8-.3 1.3-.5 2.5-1.1 5-2.3 7.4-3.9 5.7-4.1 10.5-9.2 14.2-15.2 7.1-11.6 9.1-25.8 9.1-38.9-.6-13.3-2.4-26.5-5.6-39.4-3.1-12.7-6.5-25.8-12.7-37.4v-.1c-.4-.7-.7-1-1.4-1.2-.2-.1-.4-.2-.6-.2-1 0-1.5 1-1 2 3.6 12.7 8.1 24.8 11.1 37.4 3 12.7 5.1 25.8 5.1 38.4s-2 25.8-8.6 36.5c-3.2 5.2-7.5 9.7-12.7 13.2-3.2 2.2-6.9 3.9-10.6 5.2-2.2.7-4.4 1.3-6.5 1.9-12.2 2.6-24.9.5-36.5-4.6-8.2-3.6-15.7-8.7-22.5-14.6-2.9-2.5-5.6-5.1-8.3-7.7-.8-.8-1.6-1.7-2.4-2.6l4.9-6c6.8-6.6 8.4-16.9 4.1-25.3-6.1-11.8-13.3-28.9-12.6-43.1l-1.1.5c-2.1 1-4.1 2.1-6.2 3.1-8.9 4.4-17.6 8.6-26.4 12.8-.7.3-1.3.7-2 .9-1.7.8-3.6 1.7-5.3 2.5 5.6 14.4 16 28.7 28.1 42.1 4.5 6.3 9.4 12.3 14.9 18 2.5 2.6 5.1 5.1 7.9 7.5l.4.4.2.2c.3.2.7.6 1 .8.8.7 1.7 1.4 2.6 2.1 3.6 2.9 7.5 5.6 11.5 8 2.8 1.7 5.8 3.2 8.8 4.6 12.3 6.1 26.4 8.1 39.9 5.6 2.7-.6 5.3-1.3 8-2.2-1.3 3-.9 6.4-.9 9.3v4.6c-.1 1.9.1 3.7.5 5.6.8 2.9 2.5 5.5 4.6 7.5.6.6 1.2 1.2 2 1.7 1.6 1 3.2 1.7 5.1 2 1.3.6 2.7 1.1 4.1 1.5 5.6 2 11.1 5.1 16.7 8.1 5.4 3.1 10.7 6.5 15.7 10.1 10.3 7.3 19.7 15.6 28.3 24.8 8.4 9.4 16.2 19.3 23.3 29.8 0 .5.5.5 1 .5h.1c.4-.1.4-.5.4-1-4.3-10.6-10.6-20-17.8-28.5zm-191.6 66.8c-.5-.5-1-1-1.5-1-1-.5-1.5 0-2 1-1.5 5.6-2 11.6-2.5 17.2l-1.5 17.7-3.1 34.9-3.1 34.9c-1 11.4-2 22.9-1.5 34.4h1.7c2.3-11.2 4-22.5 4.9-33.9l3.6-34.9 3.1-34.9 1.5-17.7c-.1-6.1.9-11.6.4-17.7z" fill="#004e6e"/><path d="m810.5 368.6c.5 1 1 1 2 1s1.5-1 1.5-2c-1-4.6-3.1-9.1-4.6-13.7-2-4.1-4.1-8.6-6.5-12.7-.5-.5-1-.5-1.5-1-.5 0-1 1-1 1.5 1.1 4.6 2.5 9.2 4.1 13.7 2 4.6 3.5 9.2 6 13.2zm-4.5 29.8c3.6 0 7.1-1.1 10.1-3.1 3-1.8 5.1-4.7 6-8.1.5-1.5-.5-2.6-1.5-3.1s-3.1.5-3.6 2c-.5 2-2 3.6-4.1 5.1s-4.6 2.4-7 2.6c-1.7 0-3.2-.6-4.6-1.5-1-1-2.5-.5-3.6.5s-.5 2.6.5 3.6c2.2 1.5 5.2 2 7.8 2zm1.5-83 .5-.5c1.3-.6 2.7-1.1 4.1-1.5 1.5-.5 3.6-.5 5.1-1 1.7-.4 3.4-.6 5.1-.5 1.6-.1 3.1.1 4.6.5 1 .5 1.5 0 2-.5.5-1 .5-2-.5-2.6-4.1-2.6-8.1-2.6-12.2-2-1.9.1-3.8.6-5.6 1.5-1.5 1-3.6 2-5.1 4.1v2c0 .5 1 1.1 2 .5zm-57.7 27.4c.5-1.5 2-2.6 3.1-3.6 1.5-1 2.6-2 4.1-3.1 1.4-1 2.9-1.9 4.6-2.6 1.5-.5 3.1-1.5 4.1-1.5.7-.4 1.4-.9 2-1.5.5-1 0-2-1-2-2.2-.3-4.5-.2-6.5.5-2 .5-3.9 1.4-5.6 2.6-3.1 2.6-6.5 5.1-7.6 9.6-.5 1 0 1.5.5 2 .8.6 1.8.6 2.3-.4zm18.2 132c-2.4-1.1-4.6-2.4-6.5-4.1-2.1-1.4-4-3.1-5.6-5.1-1.7-1.8-3-3.9-4.1-6-1-2.6-2-5.1-3.1-7.1v1c0-4.6-.5-8.6-.5-12.7-.5-4.6-2-12.7-2-12.6-.2-.2-.4.7-.7 2.1-.5 2.6-1 6.9-1.3 9.5-.4 4.2-.6 8.4-.5 12.7v1c.9 2.8 2.1 5.6 3.6 8.1.9 1.7 2.1 3.4 3.3 5 .6.7 1.2 1.4 1.7 2.2 2 2.6 4.6 4.1 7 5.6 2.5 1.5 5.1 2 8.1 2.6.5 0 1 0 1-.5 0-.3 0-.7-.2-1 .1-.3 0-.5-.2-.7z" fill="#004e6e"/><g fill="#8e9196"><path d="m392.5 709.7-97.3 2.6s-.2-.7-.3-2.2c-55.5.3-112.1 1-191.6 2.4h-.4c-.7.1-1.2.7-1.2 1.5.1.8.7 1.5 1.5 1.5 125.8 2.3 194.1 2.6 291.6 2.7l.4-8.6c-.9.1-1.8.1-2.7.1z"/><path d="m392.5 709.7c-34.9.1-66 .2-97.6.3.2 1.4.3 2.2.3 2.2zm2.8 0-.4 8.6c23.5.1 48.6.1 76.7.2l.3-8.9c-28 0-53.1 0-76.6.1zm1063.8 3.8c-83.2-2.5-166.3-3.1-249.5-3.6l-.3 2.7h-392.7v-2.9l-124.8-.1c-.1.3-.2.7-.2 1 0 .5-.5.5-1 .5s-.5-.5-.5-1v-.5l-82.8-.1-104.3-.1c-10.8 0-21 .1-31 .1l-.3 8.9c10 0 20.5.1 31.3.1l705.7-.5c83.5-1 166.9-1.5 250.4-3.6.2-.2.7-.2 1 0-.1-.5-.5-.9-1-.9z"/><path d="m690.2 710c0 .5 0 1 .5 1s1 0 1-.5c.1-.3.2-.7.2-1h-1.7zm243.2-.2v2.8h275.7l.3-2.7h-.8z"/><path d="m816.6 709.7v2.9h116.9l-.1-2.8z"/></g><path d="m394.9 718.6h76.8v-.2c-28.1-.1-53.3-.1-76.7-.2zm9.5-154-2.3-1.2-6.8 146.1v.1c23.4-.1 48.6-.1 76.6-.2l3.5-104.1c-2.7-1-5.6-2.2-8.4-3.3-19.9-8.5-41.3-21.1-62.6-37.4zm14.3-139.9c.3 0 .7-.1 1-.1 1-.2 2-.7 2.8-1.4.2-.2.3-.2.4-.4 1.8-2.1 1.7-5.3-.4-7.1-5.9-5.9-13.6-10.4-21.2-13.9-1.7-.8-3.6-1.5-5.3-2.2-.1 0-.2-.1-.3-.1-2.2-.8-4.5-1.7-6.6-2.3-11.2-3.6-20.3-5-21-5-.2-.1-.5-.1-.7-.1-2.4-12-23.4-23.3-37.8-23.3-8.4 0-14.3 4.6-15.9 12.1-2.3 13.6 2.3 20.5 6.8 24.2 2.3 1.9 5 3.2 8 4.1 2.9.8 6.1 1.2 9.4 1.2 6.5.2 12.9-1.2 18.9-3.8 3.6-1.2 6.1-2.8 7.8-4.6.6.3 1.3.6 2 .8.7 0 32.6 4.6 48.4 20.5.9.8 2.3 1.4 3.7 1.4zm-90.8-27.9c-3-2.2-3.8-6.8-3-13.6 0-1.5 0-3 4.6-3h3.1c12.1 1.5 24.9 11.3 24.9 14.4 0 0-.7 1.5-3.8 2.2-11.5 3.7-21.3 3.7-25.8 0zm143-198.3-31 21.1-2.5 1.7-3.6 2.4-123.3 84.1-.8.6-2.2 1.5h-.1l-2.7 1.8-5 3.4c-1.5 1.5-2.2 3.8-.7 5.3.7.9 1.8 1.5 3 1.5.8.1 1.7-.2 2.2-.7l6.2-4.2 3.6-2.5 72.4-49.4 51-34.6 3.4-2.3 2.5-1.7 32-21.8c1.5-1.5 2.2-3.8.7-5.3-1.3-1.7-3.6-2.4-5.1-.9zm352.6 76.3c13.1-7 26.6-13.5 39.1-21h.5c.5 0 2-.5 2-1v-1c-.5-.5-.5-1-1-1-2.5-1-5.1-2.6-7.6-3.6s-5.1-2-8.1-2l-4.1-.5c-1 0-2.5.5-4.1.5-1 0-2.5.5-4.1.5l-4.1 1c-4.2 1.2-8.3 2.7-12.2 4.3l-.5.2c-6 2.7-11.7 6-17.1 9.6-4.1 2.7-8.2 5.6-12.2 8.7-4.6 3.6-9.2 7.2-13.6 11.1-3.9 3.4-7.7 7-11.3 10.6-3.9 3.9-7.7 8-11.3 12.1l-.5.5-20.9 10.6-4 2-7 3.5c-8.6 4.3-17.1 8.7-25.4 13.2-.5.2-1 .6-1.6.8-1.7.9-3.5 1.9-5.2 2.8-.2.1-.2.2-.4.2l-5 2.7c-.5.5-1 1-.5 2 0 1 1 1.5 2 1l5.1-2.4c1.7-.8 3.6-1.7 5.3-2.5.7-.3 1.3-.7 2-.9 8.9-4.2 17.6-8.4 26.4-12.8 2.1-1 4.1-2.1 6.2-3.1l1.1-.5 43.9-21.7 44.5-22.3c1.5-.5 2.6-1.1 3.7-1.6zm383.6 236.5h-215c-13.2-.1-24.3 9.7-25.8 22.8l-22.3 159.4h-111.2c-8.9-.1-16.1 7-16.2 15.7v.5l116.8.1 275.3.2h.8l23.4-168.8c2-15.8-10.1-29.9-25.8-29.9zm203-186.7h-336.1c-27.7 0-50.1 22.4-50.1 50.1s22.4 50.1 50.1 50.1h8.8c-9.4 27.2-25 42.2-25 42.2s54.2-18.6 108.4-42.2h244c27.7 0 50.1-22.5 50.1-50.1s-22.5-50.1-50.2-50.1zm-1.3 86.7h-334.8c-20.1-.1-36.5-16.4-36.5-36.5.1-20.1 16.4-36.5 36.5-36.5h269.5v73.1-73.1h65.3c20.1.1 36.5 16.4 36.5 36.5s-16.4 36.4-36.5 36.5z" fill="#c3c4c7"/><path d="m1074.1 408.8c-18.7-.1-34-15.3-34-34 .1-18.7 15.3-34 34-34h267v68.1z" fill="#2fb41f"/><path d="m1338.6 343.2v63.1h-264.5c-17.3-.1-31.5-14.2-31.6-31.6.1-17.3 14.2-31.5 31.6-31.6h264.5m4.9-4.9h-269.5c-20.1.1-36.5 16.4-36.5 36.5.1 20.1 16.4 36.5 36.5 36.5h269.5zm65.3 0h-65.3v73.1h65.3c20.1-.1 36.5-16.4 36.5-36.5 0-20.2-16.4-36.5-36.5-36.6z" fill="#fff"/><path d="m1239.9 141.4c-24.7 0-44.7 20-44.7 44.7s20 44.7 44.7 44.7 44.7-20 44.7-44.7c0-24.8-20-44.7-44.7-44.7zm-2.3 52.2h-22.3l22.3-43.3zm4.5 28.4v-43.4h22.3zm-9.4 24.2c1.3-.2 17.5-2.1 17.5-2.1s-11.3 22.1-10.3 22.1h14.7l-34.5 38.4 12.6-30.2-11 1.6z" fill="#2fb41f"/><path d="m0 0h1562v860h-1562z" fill="none"/></svg>
