<svg viewBox="0 0 1491.53 1401.08" xmlns="http://www.w3.org/2000/svg"><g transform="translate(-1777 -1144.92)"><path d="m2980 1274.52c39.93-44.41 14.39-119.67-46.26-128.76-42.61-6.38-83.32 24.51-88.69 67.18-5.66 45 29.8 86.21 75.1 87.36a78.2 78.2 0 0 0 59.85-25.78z" fill="#c3c4c7"/><path d="m2830.38 1222.63a91.56 91.56 0 0 1 3.37-24.68h-338.11c-61.81 0-111.91 50-111.91 111.62v165.43a110.89 110.89 0 0 0 17.48 59.92 105.55 105.55 0 0 1 165.47 51.7h171.72s45.91 74.42 143.34 93.56l-37.09-93.56h2.91c61.81 0 111.91-50 111.91-111.62v-165.43q0-1.53 0-3.05a91.78 91.78 0 0 1 -129-83.89z" fill="#f6f7f7"/><path d="m2357.88 1557-215.33-.43-215.33-.43c-38.34-.42-77 14.65-104.74 41.5-27.91 26.63-44.73 64.59-45.41 103.15-.11 72.51-.14 143.29.56 216a147.55 147.55 0 0 0 47.3 101.72c24.6 23.15 57.73 36.88 91.1 39.24l-40.92 103.83-.1.26a8.92 8.92 0 0 0 10.27 12c18.24-4.14 36.43-8.91 53.65-16.35a279.16 279.16 0 0 0 49.57-26.12 269.44 269.44 0 0 0 43.54-35.13 261 261 0 0 0 33.59-39.71c14.74-.14 29.49-.53 44.23-.93 0-4.53 0-9.06-.31-13.58-16-.44-32.07-.87-48.1-1a7.72 7.72 0 0 0 -6.36 3.33l-.24.35c-9.51 13.91-21.66 27.43-34.45 39.36a296 296 0 0 1 -41.58 32.48 261.27 261.27 0 0 1 -46.66 24.35 234.58 234.58 0 0 1 -33.76 11.16l39.81-99.85.07-.17a9.2 9.2 0 0 0 -8.72-12.57c-34 .56-67.18-11.89-91.68-34.92a128.28 128.28 0 0 1 -40.81-88.63c-.37-70.78-.07-143.59.32-214.62a127.44 127.44 0 0 1 39.47-88.73 129.44 129.44 0 0 1 90.36-36.13l215.33-.43 215.33-.43c3.81-.1 7.61 0 11.38.18a105.62 105.62 0 0 1 10-17.76 147.76 147.76 0 0 0 -21.38-.99z" fill="#c3c4c7"/><path d="m3172.74 1604.93a95.78 95.78 0 1 0 95.78 95.78 95.9 95.9 0 0 0 -95.78-95.78zm31.26 116.14c7.75 8.94 16.23 17.19 20.22 29.69l-2.55 2.42c-12.27-4.66-20-13.58-28.54-21.81-6.26-6-12.33-12.21-18.39-18.43-6.27 6.36-12.57 12.69-19.06 18.84-8.66 8.27-16.59 17.23-29 21.91l-2.53-2.43c4.17-12.58 12.8-20.87 20.72-29.85 6.05-6.91 12.3-13.64 18.57-20.35-6.44-7-12.86-14-19.07-21.2-7.76-8.94-16.23-17.19-20.22-29.69l2.55-2.42c12.26 4.67 20 13.58 28.54 21.81 6.67 6.41 13.13 13 19.58 19.64 6.51-6.6 13-13.17 19.76-19.56 8.65-8.27 16.59-17.23 29-21.91l2.53 2.43c-4.18 12.57-12.8 20.87-20.72 29.85-6.28 7.18-12.78 14.16-19.29 21.12 6.04 6.58 12.06 13.17 17.9 19.94z" fill="#ff8085"/><path d="m3186.09 1701.14c6.51-7 13-13.94 19.29-21.12 7.91-9 16.54-17.28 20.72-29.85l-2.53-2.43c-12.39 4.68-20.33 13.64-29 21.91-6.73 6.39-13.26 13-19.76 19.56-6.45-6.62-12.91-13.23-19.58-19.64-8.5-8.23-16.28-17.14-28.54-21.81l-2.55 2.42c4 12.5 12.46 20.76 20.22 29.69 6.21 7.21 12.64 14.21 19.07 21.2-6.27 6.71-12.51 13.43-18.57 20.35-7.91 9-16.55 17.27-20.72 29.85l2.53 2.43c12.4-4.68 20.33-13.64 29-21.91 6.48-6.16 12.78-12.49 19.06-18.84 6.05 6.22 12.13 12.41 18.39 18.43 8.5 8.23 16.28 17.15 28.54 21.81l2.55-2.42c-4-12.5-12.46-20.75-20.22-29.69-5.83-6.78-11.85-13.37-17.9-19.94z" fill="#fff"/><path d="m3201.3 1821.3a123.62 123.62 0 0 1 -24.58 3.26c.23 9.15.16 18.87.18 28.38l.07 40.71.51 325.71c-.09 13.38.35 27.69-.45 39.84-1.17 12.51-3.12 25.08-7.45 36.9-7.92 23.8-22.45 45.4-41.72 60.92a117.87 117.87 0 0 1 -32 18 114.79 114.79 0 0 1 -36.22 5.87l-81.43.13a12.08 12.08 0 0 0 -3 .39 11.16 11.16 0 0 0 -7.84 13.7 436 436 0 0 0 29.07 77.22 393.66 393.66 0 0 0 20.24 36.1l1.39 2.15q-63.07-25.58-125.54-53.23c-53.23-23.69-106.16-48-158.42-73.7l-.19-.09a9.41 9.41 0 0 0 -4.17-.95c-82.27.34-164.54 2.93-246.81 4.19-41.14.66-82.27 1.84-123.41 1.91l-123.41.89a115 115 0 0 1 -72.72-27.6 126.35 126.35 0 0 1 -26.1-29.71 134.41 134.41 0 0 1 -16.77-35.84c-8.59-25.38-6.65-52.08-6.21-79.39l1.56-81.43c1-54.28 2.36-108.57 2.63-162.85l.77-81.43.22-40.71c0-13.66-.2-27.29.95-39.59a161.12 161.12 0 0 1 8.58-36.9 154.84 154.84 0 0 1 17.88-33.16c15-20.05 35.53-36.08 59.17-43 5.83-2 11.91-2.87 18-3.91 6.17-.34 12-.86 19-.7l40.72.06 81.42.13 325.71.51 325.71.51 32.35.05a123.42 123.42 0 0 1 3.67-24.47l-36 .06s-475.66.66-475.63.62l-257.21.53-40.72.06c-6.5-.14-14.26.38-21.62.92-7.34 1.22-14.71 2.37-21.77 4.78-28.63 8.58-52.88 27.77-70.18 51.17a176.1 176.1 0 0 0 -20.55 38.37 182.4 182.4 0 0 0 -9.7 42.23c-1.28 14.73-.92 28.29-.93 41.76l.22 40.71.77 81.43c.27 54.28 1.59 108.57 2.63 162.85l1.56 81.43c.46 13.69.06 26.87 1.22 41a156.72 156.72 0 0 0 8.44 40.8 147.25 147.25 0 0 0 18.25 37.34 133.1 133.1 0 0 0 27.86 30.8 120.87 120.87 0 0 0 76.84 27.93l123.41.89c41.14.07 82.27 1.25 123.41 1.91 81.48 1.24 163 3.79 244.45 4.17q77.12 39.89 156.47 75c53.52 23.85 107.32 46.71 161.9 68.38a10.93 10.93 0 0 0 12.27-17.33l-.25-.3a257 257 0 0 1 -22.45-30.92 371.11 371.11 0 0 1 -19-34.1 411.87 411.87 0 0 1 -23.21-59.12l66.52.1c14.46-.09 29.73-2.17 43.78-7a140.56 140.56 0 0 0 38.7-21.62c23.1-18.48 40-43.78 49.36-71.36 5-13.73 7.39-28.21 8.75-42.65 1-14.95.48-27.81.64-41.56l.51-325.71.07-40.71c-.01-10.56.16-20.77-.17-31.73z" fill="#c3c4c7"/><path d="m2551.83 1586.66c-14.83-39.66-55.83-64.53-97.83-59.08-37.63 4.88-69.3 33.75-77.5 70.85a92.42 92.42 0 0 0 6.35 58.57h166a92.43 92.43 0 0 0 2.98-70.34z" fill="#c3c4c7"/><path d="m2668.35 1817.81c-13.8-15.09-27.83-29.78-43.41-42.17a14.11 14.11 0 0 0 -.17 2.19 58.16 58.16 0 0 0 1 12.21c1.31 8.17 4.6 15.91 8.71 23.85s8.91 15.91 13.29 24q6.58 11.92 13.85 23.5c16.23 26 34.51 50.85 52.84 75.89l24.34-27.29c-9.35-12.6-18.73-25.25-27.86-38.21-13.52-18.88-26.94-37.29-42.59-53.97z" fill="none"/><path d="m2767.11 1924.77c12.52 17.21 24.71 34.69 35.69 52.9l38.55 58c12.86 19.65 24.29 39.88 36.74 59.25s25.31 38.52 39.31 56.69l21.72 27.16c7.1 9.11 14.29 18.08 21.75 26.76a261.64 261.64 0 0 0 23.38 24.45c4 3.56 8.52 7.06 12.26 8.64a7.8 7.8 0 0 0 1.28.42 8.27 8.27 0 0 0 .15-1.9c0-4.37-1.36-9.78-2.78-15.4-1.46-6.09-2.41-11.86-3.35-17.69-1.8-11.69-3.4-22.54-6.44-33.48-5.78-21.92-14.29-43.3-22.68-65l-12.21-32.6c-4.07-10.5-9-20.8-14.15-31.08l-15.83-31c-5.2-10.63-10.09-20.69-15.65-30.83a616.72 616.72 0 0 0 -36.23-58.52l-39.32-57.65-4.07-6-3.85 4.46z" fill="none"/><path d="m2434.36 2017.53c-9.19-16.19-18.2-31.84-28.89-46.59l-32.32-44.94c-10.62-15.19-20.75-30.39-32.31-44.1a199.49 199.49 0 0 0 -18.42-19.34c-6.78-5.87-13.67-12.65-20.37-17.42-3.35-2.41-7-4.53-9.73-5.18-3-.3-1.86-.73-3.36 1.51-.57.86-1.08 3.34-1.59 5.31l-1.51 6.15c-.29 4.22-1.4 8.36-1.08 12.63-.27 17 4.79 34.11 12.41 50.17s17.17 31.55 27.3 46.84c10.12 15.08 20.62 31.12 30.1 46.53l30 46.43c9.93 15.62 19.67 31.72 27.93 48.43l12.5 24.83a89 89 0 0 1 8.58 28.19c2 18.82 5.45 35.82 8.24 54.82.61 4.69 1.08 9.45 1.32 14.25l.18 7.22a55.82 55.82 0 0 0 .32 6.35c.17 1.89.35 3.82.51 5.79l3.24-3.76 71.94-82.7c-19.83-30.92-38.49-62.32-57.38-93.47z" fill="none"/><path d="m2597.68 2239a255.9 255.9 0 0 0 20 18l11 8.58c4 3.5 6.87 6.44 9.22 7.44 2.11.75 2.67.41 3.18-.42.93-1.39 1.43-5.56 1.21-9.61s-.87-9.07-.78-14c0-4.4-.23-8.81-.66-13.21-3.53-35.11-17-70.19-31.89-102.72-2.88-5.84-6-11.59-9.18-17.28l-52.78 59.22c15.48 22.76 31.89 44.88 50.68 64z" fill="none"/><path d="m2710.09 2123.23c20.68 30.39 40.86 61.37 64.59 88.6 6 6.8 12.16 13.35 18.67 19.55 6.35 5.86 13.94 12.76 20.08 19.16 6.25 6.1 13.37 12.82 19.22 15 3.42 1 4.12.76 5-.28 1.25-1.33 2.39-5.12 2.56-8.82.56-35-8.3-71.22-21.57-104.66a880 880 0 0 0 -94.84-177.28l-63.23 72.69c16.31 25.54 32.72 50.93 49.52 76.04z" fill="none"/><path d="m2481.49 1812c-12.48-13-25-27.56-38.59-37.09-3.35-2.24-7-4.15-9.75-4.55-2.25-.46-4.85.7-5.44 1.61-.93 1.09-1.36 4.66-.81 8.43a64.58 64.58 0 0 0 3 12.07c3 8 6.38 17.74 9.22 25.77a250.93 250.93 0 0 0 11 24.58c8.15 16.12 17.7 31.76 27.06 47.73s18.09 32.52 27 48.47c8.69 16.07 18.7 31 28.93 46.61l30.28 46.38c9.18 14.6 18.95 29 28.48 43.7l30.14-34.66 10.5-11.78c-37.73-59.25-75.3-118.62-116.16-175.27a508.93 508.93 0 0 0 -34.86-42z" fill="none"/><path d="m2810.21 1809.23a14.05 14.05 0 0 0 -2.44-1.16c1.08 4.78 4.29 10.31 8.15 15.56l5.53-6.17-1.41-1.21a62.51 62.51 0 0 0 -9.83-7.02z" fill="none"/><path d="m2923.27 1777.58c.12 0 .18-.04 0 0z" fill="none"/><path d="m2626.27 1771.47h.09c.01-.08-.03-.08-.09 0z" fill="none"/><g fill="#c3c4c7"><path d="m2443.69 2239.64a55.82 55.82 0 0 1 -.32-6.35l-.18-7.22c-.24-4.8-.71-9.55-1.32-14.25-2.79-19-6.24-36-8.24-54.82a89 89 0 0 0 -8.58-28.19l-12.5-24.83c-8.26-16.7-18-32.8-27.93-48.43l-30-46.43c-9.48-15.41-20-31.44-30.1-46.53-10.13-15.29-19.78-30.68-27.3-46.84s-12.68-33.16-12.41-50.17c-.32-4.27.8-8.41 1.08-12.63l1.51-6.15c.51-2 1-4.45 1.59-5.31 1.5-2.25.36-1.81 3.36-1.51 2.71.65 6.38 2.77 9.73 5.18 6.71 4.77 13.59 11.55 20.38 17.42a199.49 199.49 0 0 1 18.42 19.34c11.56 13.71 21.69 28.91 32.31 44.1l32.32 44.91c10.69 14.75 19.7 30.4 28.89 46.59l27.64 48c18.89 31.14 37.54 62.55 57.38 93.47l9.63-11.07c-18.8-29.46-36.77-59.67-55-89.78l-27.59-47.89c-9-15.88-18.42-32.22-29.4-47.37l-32.3-44.89c-10.51-15-20.85-30.58-33.08-45.09a213.75 213.75 0 0 0 -19.71-20.68c-7.16-6.18-13.38-12.47-21.68-18.47-4.15-2.87-8.44-5.79-14.69-7.43a17.65 17.65 0 0 0 -11.3.72 17 17 0 0 0 -7.94 8.35c-1.6 3.25-1.83 5.37-2.53 7.85s-1.27 4.83-1.76 7.28c-.42 5-1.6 9.91-1.3 14.89-.3 20 5.6 39.15 13.71 56.3s18.1 33.23 28.32 48.67c10.43 15.55 20.11 30.37 30 46.34l30.44 46.21c10 15.41 19.48 30.83 27.71 47.14l12.58 24.48a75.76 75.76 0 0 1 7.63 24.43c2 17.86 5.94 37 8.66 54.5.61 4.44 1.08 8.87 1.34 13.28l.22 6.6a70.28 70.28 0 0 0 .43 7.45c.46 4.63 1 9 1 13.2a29.68 29.68 0 0 1 -.32 5.14l11.82-13.69c-.31-2-.45-3.93-.62-5.82z"/><path d="m2661.59 1861.42q-7.26-11.58-13.85-23.5c-4.39-8.12-9.23-16.2-13.29-24s-7.4-15.68-8.71-23.85a58.16 58.16 0 0 1 -1-12.21 14.11 14.11 0 0 1 .17-2.19c15.58 12.39 29.62 27.08 43.41 42.17 15.62 16.68 29.07 35.1 42.56 54 9.13 13 18.51 25.61 27.86 38.21l9.56-10.72c-8.81-11.87-17.56-23.71-26-35.67-13.46-18.87-27.48-38.06-43.62-55.31-15.73-17.18-32.16-34.4-51.56-48.69l-3.59-2.65-3.92 2.14a16.28 16.28 0 0 0 -7.39 9.26 32.83 32.83 0 0 0 -1.53 8.74 71.71 71.71 0 0 0 1.14 15.31c1.63 10.1 5.72 19.54 10.08 27.92 4.45 8.54 9.11 16.27 13.48 24.38q6.79 12.29 14.24 24.15c17.13 27.48 36.33 53.39 55.2 79.18l9.57-10.73c-18.3-25.1-36.58-49.91-52.81-75.94zm-35.23-89.94h-.09c.06-.09.1-.09.09 0z"/><path d="m3104.76 1955.71c-3.91-5.48-7.36-12.11-11.33-18-7.76-12.36-17.74-22.83-26.56-34-18.09-22.09-36.41-44.41-57.66-64-10.26-9.61-19.54-20.43-29.65-30.78a169 169 0 0 0 -33.72-27.44c-6-4.09-11.26-8.48-19.2-11.87l-2-.53a8.86 8.86 0 0 0 -2.63 0 14.9 14.9 0 0 0 -3.68 1 12.79 12.79 0 0 0 -6 5.22c-2.6 4.54-2.65 9.06-2.21 13.21 3.42 16.85 14.71 27.2 23.82 38.1 19 20.84 34.06 45 51.13 68.28 16.17 23.45 32.51 47.19 48 70.55 7.24 11.81 12.92 24.78 19.42 37.74 6.39 13.36 15.43 25 19.49 37.22 3.77 11.85 3.26 27.66 8 41.73a116 116 0 0 1 3.38 20 42.41 42.41 0 0 1 -.24 9.31 10 10 0 0 1 -.38 1.76c-12.16-8.85-21.29-22-31.4-35.06l-32-43.21c-21-29-42.55-58.6-64.91-86.69l-32.87-42.69-16.26-21.76c-5.76-7.3-11.92-14.15-18.11-20.8s-12.54-13.14-18.27-19.64c-5-5.63-10.11-11.73-16.16-17.28l-9.21 10.64c5.09 4.73 9.79 10.23 14.82 16 6.19 7 12.43 13.33 18.52 19.92 12.54 12.86 22.49 26.59 33.43 41.44 10.89 14.46 22.15 28.58 33.32 42.7 22.73 28.1 43.81 56.61 65.3 85.74l32.67 43.35c10.86 13.7 21.8 29.83 38.71 40.17l2.28 1.4 2.36-.69a12.63 12.63 0 0 0 7.64-6.33 20.45 20.45 0 0 0 2.22-7 53.63 53.63 0 0 0 .28-12.08 127.55 127.55 0 0 0 -3.92-22.19c-4.69-13.14-3.79-26.77-8.56-42.3-5.28-15-14.49-26.14-20.43-38.57-6.43-12.53-12.34-25.79-20.16-38.34-16.31-24.14-32.62-47.37-49.1-70.87-17-22.67-32.47-47.14-52.24-68.52-9.24-10.38-19.69-21.39-21.92-33.14-.4-2.87-.09-5.91 1-7.61a4 4 0 0 1 1.92-1.73 6.28 6.28 0 0 1 1.49-.38h.06.06c.18 0 .12 0 0 0l.49.13c5.28 2.16 11.46 6.71 17.2 10.65 25 14.09 42 36.62 63.55 56.41 21.25 18.81 39.78 40.49 58.33 62.25 9.14 11.08 19.21 21.25 26.91 33 4.11 5.88 7.35 11.95 11.85 18 4.42 5.63 9.84 10.86 10 17.18h3.52c-.26-8.59-6.43-14.1-10.39-19.6z"/><path d="m2829.28 1863.9 39.32 57.65a616.72 616.72 0 0 1 36.23 58.52c5.56 10.13 10.45 20.19 15.65 30.83l15.83 31c5.14 10.28 10.08 20.58 14.15 31.08l12.21 32.6c8.39 21.68 16.91 43.06 22.68 65 3 10.94 4.64 21.79 6.44 33.48.93 5.83 1.89 11.6 3.35 17.69 1.42 5.62 2.76 11 2.78 15.4a8.27 8.27 0 0 1 -.15 1.9 7.8 7.8 0 0 1 -1.28-.42c-3.74-1.57-8.22-5.07-12.26-8.64a261.64 261.64 0 0 1 -23.38-24.45c-7.46-8.68-14.65-17.66-21.75-26.76l-21.72-27.16c-14-18.17-26.95-37.22-39.31-56.69s-23.88-39.6-36.74-59.25l-38.55-58c-11-18.21-23.17-35.69-35.69-52.9l-9.47 10.89c11.7 16.16 23 32.53 33.38 49.69l38.53 58c12.58 19.2 24 39.44 36.66 59.14s25.7 39.12 40 57.73l21.77 27.24c7.18 9.2 14.5 18.35 22.17 27.28a274 274 0 0 0 24.74 25.83c4.7 4 9.29 8 16.25 11.11a20.85 20.85 0 0 0 6.47 1.57 12.94 12.94 0 0 0 8.71-2.55 13.75 13.75 0 0 0 4.83-7.25 23.68 23.68 0 0 0 .79-6.22c-.11-7.28-1.84-13.2-3.19-18.82-1.26-5.2-2.21-10.89-3.11-16.52-1.72-11.25-3.53-23.41-6.73-34.87-6.08-23-14.82-44.88-23.17-66.47l-12.22-32.63c-4.32-11.15-9.45-21.82-14.68-32.29l-15.81-31c-5-10.23-10.26-21-15.88-31.27a630 630 0 0 0 -37.06-59.85l-39.07-57.44-4.9-7.19q-.68-1-1.37-1.95l-9.48 11z"/><path d="m2563.32 2032-30.32-46.37c-10.23-15.59-20.24-30.54-28.93-46.61-8.87-15.95-17.46-32.49-27-48.47s-18.91-31.61-27.06-47.73a250.93 250.93 0 0 1 -11-24.58c-2.84-8-6.26-17.81-9.22-25.77a64.58 64.58 0 0 1 -3-12.07c-.54-3.77-.12-7.34.81-8.43.58-.91 3.19-2.06 5.44-1.61 2.73.4 6.4 2.31 9.75 4.55 13.57 9.53 26.11 24.08 38.59 37.09a508.93 508.93 0 0 1 34.79 42c40.86 56.66 78.43 116 116.16 175.27l9.72-10.91c-37-58.15-74-116.45-114.56-172.71a522.65 522.65 0 0 0 -35.75-43.16q-9.46-10.3-19.3-20.19c-6.51-6.61-13.44-13.41-21.86-19.1-4.32-2.76-8.86-5.57-15.27-6.72-6.74-1-14.26.88-19.23 7.41-4.37 6.69-3.75 13.09-3.24 18.3a78.06 78.06 0 0 0 3.62 14.74c3.45 9.33 6.09 16.95 9.41 26.31a265.28 265.28 0 0 0 11.55 25.92c8.5 16.8 18.2 32.67 27.48 48.5s17.76 31.93 26.82 48.2c8.87 16.4 19.39 32.14 29.39 47.37l30.2 46.26c10.08 16 20.68 31.57 30.77 47.26l9.61-11c-9.43-14.75-19.2-29.13-28.37-43.75z"/><path d="m2425.5 2262.92a56.7 56.7 0 0 1 -10.1-7.1 197.47 197.47 0 0 1 -18.76-19.15c-11.72-13.72-23.34-28.52-35-42.68-11.79-14.46-23.28-28-33.52-43.39-10.24-15.09-21.61-30.66-33.84-44.32-11.91-14-23.82-28.23-36.44-41.88-6.31-6.82-12.79-13.52-19.54-20-7-6.08-12-13-19.87-19.74a24.36 24.36 0 0 0 -7.35-4.36c-3.17-1.47-9 0-11 3.21-3.89 5.8-3.94 10.69-4.55 15.65-.78 10 1.51 20 4.77 28.85s7.12 17.15 10.52 25.81c3.61 8.7 7.88 17 12.21 25.2 8.68 16.37 17.84 32.23 24.34 49.18 3.29 8.47 6.1 17.15 8.57 26 2.19 8.72 5.25 18 5.6 26.23.11 4.18-1.12 7.83-4.08 10.05-2.93 2.37-7.23 3.17-11.64 3.69-8.9 1-18 .81-26.47-1.65-8.48-2.15-15.75-8.05-24.11-12.32-8.1-4.42-16.07-8.83-22.92-14.7l-2.31 2.65c7.07 6.3 15.27 11 23.24 15.59 4 2.3 7.91 4.6 11.74 7.1a53.08 53.08 0 0 0 13 6.09c9.22 2.87 18.95 3.26 28.33 2.37 4.63-.51 9.92-1.14 14.39-4.51 4.67-3.27 6.63-9.4 6.48-14.34-.32-10.21-3.22-18.72-5.27-27.88-2.33-9-5-17.94-8.24-26.73-6.39-17.67-15.43-34.05-23.69-50.4-4.16-8.18-8.06-16.41-11.49-24.76-3.27-8.53-7.19-17.17-10.16-25.5s-4.79-16.89-4.07-25.32c.3-4.08 1.31-8.82 2.68-10.67.72-.6.08-.48 1.3-.31a16.84 16.84 0 0 1 4.39 2.81c6.18 5.22 12.27 13.34 19.16 19.42 6.53 6.35 12.83 13 19 19.72 12.31 13.53 24 27.69 35.83 41.87 12.25 14 22.52 28.33 32.89 43.83 10.12 15.47 22.32 30.21 33.72 44.41 11.67 14.4 22.7 28.72 34.81 43.14a207.85 207.85 0 0 0 19.77 20.48 67.51 67.51 0 0 0 12.29 8.7l8.07-9.32a19 19 0 0 1 -2.68-1.02z"/><path d="m2818.65 2151.82c13.27 33.44 22.13 69.66 21.57 104.66-.17 3.7-1.31 7.48-2.56 8.82-.9 1-1.6 1.24-5 .28-5.85-2.22-13-8.93-19.22-15-6.14-6.4-13.73-13.3-20.08-19.16-6.51-6.21-12.71-12.76-18.67-19.55-23.73-27.23-43.92-58.21-64.59-88.6-16.8-25.1-33.2-50.5-49.5-76l-9.6 11.03c15.6 24.36 31.33 48.67 47.44 72.75 20.79 30.53 40.95 61.59 65.71 90.05 6.2 7.07 12.68 13.92 19.52 20.44 7.19 6.66 13.28 12.13 19.94 19 7 6.45 13.06 13.54 24.45 18.29a22.06 22.06 0 0 0 10.06 1.24 16.26 16.26 0 0 0 10.29-5.68c4.67-5.88 5.41-11.66 5.9-17 .62-38.93-8.8-75.75-22.52-110.71a894.49 894.49 0 0 0 -98.39-183.08l-9.53 11a880 880 0 0 1 94.78 177.22z"/><path d="m2807.77 1808.07a14.05 14.05 0 0 1 2.44 1.16 62.51 62.51 0 0 1 9.82 7l1.41 1.21 9.39-10.48c-.59-.51-1.17-1-1.77-1.52a75.65 75.65 0 0 0 -12.16-8.61c-4.36-2.24-11.24-5.62-19.61-1.69l-2.84 1.34-.63 3.36c-1.56 8.28 1.05 15.67 4 21.44a90.28 90.28 0 0 0 8.53 13l9.55-10.64c-3.84-5.25-7.06-10.79-8.13-15.57z"/><path d="m2609 2133c14.86 32.53 28.36 67.61 31.89 102.72.43 4.4.64 8.81.66 13.21-.09 5 .67 10.07.78 14s-.27 8.23-1.21 9.61c-.5.83-1.07 1.17-3.18.42-2.34-1-5.24-3.94-9.22-7.44l-11-8.58a255.9 255.9 0 0 1 -20-18c-18.79-19.16-35.2-41.29-50.7-64l-9.63 10.81c15.14 22.06 31.21 43.54 50.4 63.16a269.58 269.58 0 0 0 21.14 18.94l10.8 8.4c3 2.44 6.39 6.59 12.5 9.5a17.23 17.23 0 0 0 11.26 1.19 15.26 15.26 0 0 0 9.78-7.26c3.62-6.77 3.18-12.28 3.17-17.33-.2-5.26-.87-9.3-.77-13.58 0-4.82-.25-9.63-.72-14.41-1.76-19.13-6.5-37.63-12.41-55.43-6.11-17.75-12.47-35.11-20.88-52.23-3.74-7.55-7.75-14.9-11.93-22.11l-9.86 11.06c3.19 5.79 6.27 11.54 9.13 17.35z"/></g><path d="m2430.91 2263.55a10 10 0 0 0 1.47-4.43l-4.16 4.81a6.29 6.29 0 0 0 1.36.25c.62-.18.84.16 1.33-.63z" fill="#ff8085"/><path d="m2983.19 1650.64c-55.05 48.36-103.85 102.22-152.36 156.35l-9.39 10.48-5.53 6.17-9.55 10.64-7.49 8.33-50.54 56.69-9.56 10.72-24.34 27.29-9.57 10.73-62.7 70.32-9.72 10.91-10.5 11.78-30.14 34.66-9.61 11-53.19 61.19-9.63 11.07-71.94 82.7-3.24 3.76-11.82 13.69a10 10 0 0 1 -1.47 4.43c-.5.79-.71.46-1.33.63a6.29 6.29 0 0 1 -1.36-.25l-8.07 9.32c-48.9 56.49-97.65 113.11-139.82 175.52l5.28 4.65c67.12-59 125-126.13 184.31-192l67.43-75.62 9.66-10.8 52.86-59.28 9.86-11.06 37.16-41.68 4.1-4.71 9.62-11.06 63.23-72.69 9.53-11 24.29-27.93 9.47-10.89 54.25-62.37 3.85-4.46 9.48-11 8.89-10.28 9.21-10.64c47.5-54.91 94.71-110.08 135.68-170.74z" fill="#ff8085"/></g></svg>
