<svg viewBox="0 0 1329.01 1400" xmlns="http://www.w3.org/2000/svg"><g fill="#c3c4c7" transform="translate(-1867.53 -1141)"><path d="m2879.66 1319.25c24.94-9.77 49.88-9 74.83-9.84l18.7-.57c6.53-.13 11.67-.6 19.93-.06a73 73 0 0 1 65.76 55.59 81.3 81.3 0 0 1 2 11.29c.12 3.73.27 7.92.11 10.74l-.57 18.71c-.89 24.94-.05 49.88-9.84 74.83a3.24 3.24 0 0 1 -6 0c-9.79-24.94-9-49.88-9.84-74.83l-.57-18.71a56.91 56.91 0 0 0 -2-15 49.33 49.33 0 0 0 -41.48-35.06l-36.17-1.19c-24.95-.88-49.89-.06-74.83-9.83a3.24 3.24 0 0 1 0-6z"/><path d="m2016.91 1479.93c-11.58-30.34-8.85-60.71-10.24-91.08l-.13-5.73.21-6.92a80.55 80.55 0 0 1 2.37-13.7 74 74 0 0 1 12.39-24.84c11.22-14.8 28.17-25.47 46.71-28.43a85.31 85.31 0 0 1 13.72-1l11.38.11 22.77.21 45.54 1c30.36.74 60.72.42 91.07 9.74a3.16 3.16 0 0 1 2.09 3.94 3.19 3.19 0 0 1 -2.09 2.09c-30.36 9.32-60.72 9-91.07 9.74l-45.54 1-22.77.21-11.38.1a55.79 55.79 0 0 0 -8.94.85 48.38 48.38 0 0 0 -29.46 17.45 47.84 47.84 0 0 0 -8.15 15.48 53.54 53.54 0 0 0 -1.95 8.62l-.36 4.45-.14 5.66c-1.44 30.35 1.46 60.69-10 91.07a3.23 3.23 0 0 1 -6 0z"/><path d="m2769 1205.6c22.78-9.77 45.55-9 68.33-9.83s45.55-1.11 68.33-1.4l17.08.22c2.53 0 6.44.2 10 .47a72.51 72.51 0 0 1 10.55 2.13c13.95 3.73 26.09 12.69 34.47 24s13.1 25.55 12.31 39.4c-1.17 11.69-3.38 22.86-8.26 34.32a3.28 3.28 0 0 1 -4.3 1.73 3.34 3.34 0 0 1 -1.73-1.73c-4.92-11.32-7-22.93-8.34-34-1.22-8.88-4.15-17.37-10-23.91a41.11 41.11 0 0 0 -21.41-13.15c-4.4-1.15-7.53-1.3-13.3-1.2l-17.08.22c-22.78-.29-45.56-.46-68.33-1.4s-45.55-.06-68.33-9.84a3.28 3.28 0 0 1 0-6z"/><path d="m2085.57 1294.93a148.55 148.55 0 0 1 -5.5-22l-1.67-11a73.26 73.26 0 0 1 .15-13.18c2.49-17.84 13.89-34 29.29-43.62a65.94 65.94 0 0 1 25.62-9.38c10-1.18 15.91-.73 23.62-.93l44-.44c29.34.29 58.69.45 88 1.4s58.69.05 88 9.84a3.18 3.18 0 0 1 0 6c-29.34 9.79-58.69 9-88 9.84s-58.69 1.11-88 1.4l-44-.44c-7 .05-15.74-.4-20.36-.06a39.62 39.62 0 0 0 -15.69 4.81c-9.84 5.35-17.06 15-20.29 26a50.49 50.49 0 0 0 -2 8.7l-1.67 11a147.72 147.72 0 0 1 -5.5 22 3.2 3.2 0 0 1 -6 0z"/><path d="m2321.43 1842.78-220.49-.53a8.13 8.13 0 0 0 -8.11 8.15l.66 278.31.33 139.15c.22 46.38 0 92.77.59 139.15v.15a6.49 6.49 0 0 0 6.56 6.41c37.48-.42 75.14-.68 112.18-1.89l109.54-3.45c1.55-45 2.49-91 3.49-137.18l1.72-139.69 1.19-281v-.06a7.59 7.59 0 0 0 -7.66-7.52zm-112.18 559.57c-34.22-1.14-67.9-1.44-101.68-1.82.52-44.22.3-88.45.52-132.67l.33-139.15.65-270.18 204.79-.49 1.16 268 1.72 138.62c1 46.62 1.94 93.37 3.49 141.13z"/><path d="m2989.22 2082.18-540.12-1.18a8.13 8.13 0 0 0 -8.11 8.15l.69 317.85v.06a7.43 7.43 0 0 0 7.46 7.39l272.66-1.17 135.42-1.89c44.85-.86 89.45-1.82 133.26-3.18l4.14-157.93c.65-53.53 1.66-107.32 1.62-161.14a7 7 0 0 0 -7.02-6.96zm-138 320.43-134.64-1.89-260-1.14.65-302.3 525-1.13c.05 49.8 1 99.64 1.61 149.72l4.16 159.93z"/><path d="m2996.3 1850.4a7.08 7.08 0 0 0 -7.08-7.08c-30.94 0-61.87.42-92.81 1.07-15.47.11-30.94 1.07-46.4 1.57s-30.94 1.56-46.4 2.72a1.73 1.73 0 0 0 0 3.45c15.47 1.16 30.94 2.13 46.4 2.72s30.94 1.45 46.4 1.57c28.57.59 57.14 1 85.7 1l-.36 83.53c-87.53-.48-175.06-.77-262.6-.11l-135 .57c-43.56.21-87.11.46-130.67 2.34-.59-14.78-1.55-29.55-2.63-44.33a1.73 1.73 0 0 0 -3.45 0c-1.2 16.35-2.28 32.71-2.83 49.06a4.4 4.4 0 0 0 4.19 4.54h.36c45 2.06 90 2.3 135 2.52l135 .57c90 .67 180 .35 270.06-.15h.06a7.47 7.47 0 0 0 7.43-7.5z"/><path d="m2969.56 1510.21 71.67-2.08 17.91-.52a81 81 0 0 1 19 1.57 76 76 0 0 1 34.52 16.91 77.09 77.09 0 0 1 22.15 31.92c5 12.17 5.09 26.45 5.17 37.76l1.35 71.66 2.91 286.66 1.44 573.31a13.55 13.55 0 0 1 -13.5 13.6h-.09l-553.59-1.87c-92.27-.82-184.53-.92-276.8-2.34-92.27-.95-184.53-2.66-276.8-4.56a4.83 4.83 0 0 1 0-9.66c92.26-1.9 184.53-3.61 276.8-4.56 92.26-1.41 184.53-1.51 276.8-2.34l553.59-1.87-13.6 13.59 1.44-573.31 2.91-286.66 1.35-71.66c.33-12.45.73-22.63-3-33a63.3 63.3 0 0 0 -17.26-27 65.29 65.29 0 0 0 -28.31-15.87 70.14 70.14 0 0 0 -16.51-2.32l-17.91-.52-71.67-2.08a2.42 2.42 0 0 1 0-4.83z"/><path d="m1929.9 2527.41c-3.92-202.74-6.11-405.49-8.32-608.24-1.29-101.38-.79-202.75-3-304.13-.47-6.34-.41-12.67-.65-19s-.48-12.31-.08-20.26c1.21-14.89 6.31-29.76 15.4-41.82a81.49 81.49 0 0 1 34.9-27.86 84.84 84.84 0 0 1 21.76-5.73 87.15 87.15 0 0 1 11.19-.73l9.63.13c50.69.7 101.38 1.85 152.06 8a4.86 4.86 0 0 1 0 9.66c-50.69 6.19-101.38 7.34-152.06 8l-9.38.2a60.83 60.83 0 0 0 -7.73.8 58.08 58.08 0 0 0 -14.74 4.43c-9.2 4.48-17.69 10.71-23.76 19.06-6.25 8.18-9.93 18.08-11.53 28.29-.51 4.7-.64 11.44-.79 17.74s-.18 12.67-.65 19c-1.9 101.37-.87 202.75-1.75 304.12-1.33 202.75-2.64 405.5-5.69 608.26a2.41 2.41 0 0 1 -4.83 0z"/><path d="m2211.18 1705c-14.19 5.74-28.38 3.59-42.57 4.27l-42.57.51c-28.37.19-56.75 1-85.13.67-28.38.05-56.75-.45-85.13-1.05-28.38-.34-56.75-1.2-85.13-8.43a4.15 4.15 0 0 1 0-8c28.38-7.23 56.75-8.09 85.13-8.43 28.38-.6 56.75-1.1 85.13-1.05 28.38-.33 56.75.48 85.13.67l42.57.51c14.19.68 28.38-1.47 42.57 4.27a8.68 8.68 0 0 1 0 16.09z"/><path d="m3191.83 1705c-10.22 5.74-20.45 3.59-30.67 4.27l-30.67.51c-20.44.19-40.89 1-61.33.67-20.44.05-40.89-.45-61.33-1.05-20.45-.34-40.89-1.2-61.33-8.43a4.27 4.27 0 0 1 0-8c20.45-7.23 40.89-8.09 61.33-8.43 20.44-.6 40.89-1.1 61.33-1.05 20.44-.33 40.89.48 61.33.67l30.67.51c10.22.68 20.45-1.47 30.67 4.27a9.23 9.23 0 0 1 0 16.09z"/><path d="m2439.51 2366.94c20.48-48.5 61.49-91 114.43-107.23 13-4 27.54-6.14 41.06-5.28a200.48 200.48 0 0 1 40.32 5c26.7 5.66 51 17.58 74.9 26.64 11.9 4.69 23.84 8.63 36.09 10.77 12 2.05 25.2 3.26 36.34 1.59 23.19-4.21 43.56-20.89 63.22-37.64s40-34.83 64.19-47.21c23.72-13 51.6-19.08 78.06-16.21a1.73 1.73 0 0 1 .13 3.43h-.13c-6.45 1.19-12.83 2-19.15 3-6.17 1.9-12.41 3.1-18.45 5-11.91 4.41-23.5 9.32-34.36 15.83-21.74 13-41.19 29.72-60.9 47.14a353.89 353.89 0 0 1 -31.38 25c-11.4 7.58-24.32 13.92-38.58 16.8-28.75 3.72-55.8-2.64-80.92-12.3-24.86-9.83-47.84-21.39-72.5-26.87a185.23 185.23 0 0 0 -37.39-5.06c-12.63-.92-24.33.78-36.45 4.22-24 6.9-45.72 20.69-65 37-18.94 16.89-35.63 36.53-50.47 58.06a1.73 1.73 0 0 1 -3-1.65z"/></g><ellipse cx="696.13" cy="393.18" fill="#63d6b6" rx="333.19" ry="332.33"/><path d="m619.81 303.88 86.58 108.2-167.81 147.71" fill="#63d6b6"/><path d="m2586.06 1543.51-.07-.09c-14.28-18.16-29.32-35.7-43.94-53.58l-22.08-26.7c-7.76-8.58-13.24-19-25.44-24a10.51 10.51 0 0 0 -14.36 11.49c2.23 13 11.18 20.64 17.85 30.09l21.21 27.4c11.21 14.33 22.17 28.85 33.44 43.13q-36.35 32.13-72.08 65c-13.77 12.55-27.7 24.92-40.76 38.28s-25.7 27.2-36.74 42.85a4.73 4.73 0 0 0 6.08 6.9c16.93-9 32.26-19.74 47.17-31s28.95-23.5 43.14-35.57q42.73-36 84.67-73a15.52 15.52 0 0 0 1.91-21.2z" fill="#003c56" transform="translate(-1867.53 -1141)"/><path d="m564.36 92.03 87.96 50.56" fill="#98c6d9"/><path d="m2873.17 1380.21c-40-77.71-110.37-138.91-192.69-167.65-41-14.51-85.29-19.62-127.89-18.76-21 .39-42.78 1.15-64.5 6.36a184.19 184.19 0 0 0 -35.41 12.28c3.6-6.87 7.17-13.75 10.8-20.6 8-15.2 16-30.44 23.68-45.84a3.46 3.46 0 0 0 -5.94-3.5c-9.75 14.19-19.21 28.55-28.62 42.93-7.88 12.09-15.93 24.08-23.69 36.25a13.75 13.75 0 0 0 -5.31 8.92 8.52 8.52 0 0 0 .5 6.39l.07.13a13.73 13.73 0 0 0 6.18 7.54l88 50.57a13.79 13.79 0 0 0 13.74-23.92l-72-41.39a164 164 0 0 1 32.27-8.92c19.35-3.12 39.68-3 60.41-3 41 .36 80.74 6.53 118.45 20.62 75.52 26.95 139.71 83.7 175.82 155.05 36.61 71 44.52 156.34 21.51 232.73-22.25 76.7-75.26 143.16-143.66 183.74-68.27 41-152.39 54.29-230.45 37.38-78.13-16.56-149.27-64.31-194.41-130.57-45.92-66-63.73-149.37-53-229.08a341.3 341.3 0 0 1 38.18-114.42c19.64-35.65 45.81-67.84 76.79-95.44a3.45 3.45 0 0 0 -4.22-5.46c-69.91 47.61-121.36 125.5-135.27 211.43a305.87 305.87 0 0 0 -4.77 64.85c.07 21.77 2.92 43.46 7.4 64.76a343.42 343.42 0 0 0 51.25 119.53c48.68 72.53 125.95 125.32 211.51 144.12 85.33 19.15 177.81 5.33 253.43-39.38 76-44 133.15-118.55 157.21-202.79 24.59-84.16 15.21-177.39-25.37-254.86z" fill="#003c56" transform="translate(-1867.53 -1141)"/><circle cx="696.13" cy="196.96" fill="#003c56" r="16.59"/><circle cx="696.13" cy="624.59" fill="#003c56" r="16.59"/><circle cx="916.84" cy="403.88" fill="#003c56" r="16.59"/><circle cx="475.42" cy="403.88" fill="#003c56" r="16.59"/></svg>
