<svg width="245" height="245" fill="none" xmlns="http://www.w3.org/2000/svg"><g clip-path="url(#clip0)"><path d="M0 0h245v245H0V0z" fill="#fff"/><rect x="16" y="14" width="213" height="24" rx="2" fill="#f6f7f7"/><path d="M123 18c-4.4 0-8 3.6-8 8s3.6 8 8 8 8-3.6 8-8-3.6-8-8-8zm0 14.5c-3.6 0-6.5-2.9-6.5-6.5s2.9-6.5 6.5-6.5 6.5 2.9 6.5 6.5-2.9 6.5-6.5 6.5zm-3-2.5l4.5-3 1.5-4.6-4.5 3L120 30z" fill="#101517"/><rect y="52" width="245" height="85" rx="2" fill="#f6f7f7"/><path d="M128.956 86h-11.912A2.011 2.011 0 00115 88.044v11.912c0 1.155.889 2.044 2.044 2.044h11.912A2.012 2.012 0 00131 99.956V88.044A2.011 2.011 0 00128.956 86zm.711 13.956c0 .355-.356.711-.711.711h-11.912c-.355 0-.711-.356-.711-.711V88.044c0-.355.356-.71.711-.71h11.912c.355 0 .711.355.711.71v11.912zm-8.445-3.29L125.667 94l-4.445-2.667v5.334z" fill="#101517"/><rect x="40" y="151" width="66" height="40" rx="2" fill="#f6f7f7"/><path d="M79.222 163H66.778c-.978 0-1.778.8-1.778 1.778v12.444c0 .978.8 1.778 1.778 1.778h12.444c.978 0 1.778-.8 1.778-1.778v-12.444c0-.978-.8-1.778-1.778-1.778zm-12.444 1.333h12.444c.267 0 .445.178.445.445v7.466L77 169.667c-.267-.267-.711-.267-.889 0l-3.2 3.111L70.333 171c-.266-.178-.533-.178-.71 0l-3.2 2.311v-8.533c-.09-.267.088-.445.355-.445zm12.444 13.334H66.778c-.267 0-.445-.178-.445-.445v-2.133l3.645-2.667 2.666 1.689c.267.178.623.178.8-.089L76.556 171l3.11 3.022v3.2c0 .267-.177.445-.444.445z" fill="#101517"/><rect x="139" y="151" width="66" height="40" rx="2" fill="#f6f7f7"/><path d="M178.222 163h-12.444c-.978 0-1.778.8-1.778 1.778v12.444c0 .978.8 1.778 1.778 1.778h12.444c.978 0 1.778-.8 1.778-1.778v-12.444c0-.978-.8-1.778-1.778-1.778zm-12.444 1.333h12.444c.267 0 .445.178.445.445v7.466L176 169.667c-.267-.267-.711-.267-.889 0l-3.2 3.111-2.578-1.778c-.266-.178-.533-.178-.711 0l-3.2 2.311v-8.533c-.089-.267.089-.445.356-.445zm12.444 13.334h-12.444c-.267 0-.445-.178-.445-.445v-2.133l3.645-2.667 2.666 1.689c.267.178.623.178.8-.089l3.112-3.022 3.111 3.022v3.2c0 .267-.178.445-.445.445z" fill="#101517"/><rect x="28" y="205" width="189" height="48" rx="2" fill="#f6f7f7"/><path d="M129.3 217h-8.4v-.1l-.9.2c-2.3.4-4 2.4-4 4.8s1.7 4.4 4 4.8l.7.1v6.2h1.5v-14.5h2.9V233h1.5v-14.5h2.7V217z" fill="#101517"/></g><defs><clipPath id="clip0"><path d="M0 0h245v245H0V0z" fill="#fff"/></clipPath></defs></svg>