<svg viewBox="0 0 300 250" xmlns="http://www.w3.org/2000/svg"><g fill="#c3c4c7"><path d="m264.1 143.5c-.1-13-.1-26-.3-39-.2-11.7-.4-23.4-.7-35v-24.9c0-7.4-6-13.2-13.3-13.2h-198.3c-7.3 0-13.3 5.9-13.3 13.2v26h.5c-.4 9.5-.3 19-.4 28.5l-.1 41.5.3 41.5c.1 13.9 0 27.6 1.4 41.5h.8c1.3-13.9 1.1-27.6 1.2-41.5l.1-41.5-.3-41.6c-.1-9.5-.1-19-.5-28.5h220.9c-.3 11.3-.4 22.6-.7 34-.3 13-.3 26-.4 39l-.2 76.2-46.1-.1-47.9.1-47.9.1c-16 .1-31.9.3-47.9 1.2v.8c16 .9 31.9 1 47.9 1.2l47.9.1 47.9.1 47.9-.1h1.7v-1.7z"/><path d="m239.7 98.1-88.3-.1-88.3-.1h-1.7v99.5h1.6l88.3-.1h44.2c7.4 0 14.7 0 22.1-.1s14.7-.2 22.1-.4h.5l.4-25 .3-24.1c.1-8 .2-16 .2-24.1l.1-24.1v-1.5zm-22 96.3c-7.4-.1-14.7-.1-22.1-.1h-44.2l-86.7-.1v-92.9l86.7-.1 86.9-.1.1 22.6c0 8 .1 16 .2 24.1l.3 24.1.4 23c-7.3-.3-14.5-.4-21.6-.5z"/><path d="m204.4 162.7c-2.5-.1-5.2-.2-8.3-.2-6.1-.1-13.1-.1-20.7-.2s-15.7-.1-23.8-.1-16.2 0-23.8.1c-7.6 0-14.7.1-20.7.1-6.1 0-11.1 0-14.7.1-1.8.1-3.2.2-4.1.3s-1.5.2-1.5.2v2s.5.1 1.5.2c.9.1 2.3.2 4.1.3 3.5.1 8.6.1 14.7.1s13.1.1 20.7.1 15.7.1 23.8.1 16.2 0 23.8-.1 14.7-.1 20.7-.2c3-.1 5.8-.1 8.3-.2s4.6-.2 6.4-.3c3.5-.2 5.6-.4 5.6-.4v-1s-2-.2-5.6-.4c-1.8-.3-3.9-.4-6.4-.5zm-80.6 13.8c-.8-.1-1.6-.2-2.6-.2-1.9-.1-4.1-.1-6.5-.2s-4.9-.1-7.5-.1h-7.5c-2.4 0-4.6.1-6.5.1s-3.5 0-4.6.1-1.7.4-1.7.4v2s.6.3 1.7.4 2.7.1 4.6.1 4.1.1 6.5.1 4.9.1 7.5 0c2.5 0 5.1 0 7.5-.1s4.6-.1 6.5-.2c1-.1 1.8-.1 2.6-.2s1.5-.2 2-.3c1.1-.2 1.7-.4 1.7-.4v-1s-.6-.2-1.7-.4c-.5.1-1.2 0-2-.1zm29.2-.2c-.7-.1-1.4-.1-2.2-.2-.8 0-1.7-.1-2.6-.1h-2.6c-.8 0-1.6.1-2.2.1h-.9c-.3 0-.5 0-.7.1-.4.1-.6.4-.6.4v2s.2.3.6.4c.2.1.4.1.7.1h.9c.7 0 1.4.1 2.2.1s1.7.1 2.6 0c.9 0 1.8 0 2.6-.1s1.6-.1 2.2-.2c.7-.1 1.2-.3 1.6-.5s.6-.4.6-.4v-1s-.2-.2-.6-.4c-.4 0-.9-.2-1.6-.3z"/></g><path d="m39 66.3h223.4v154.7h-223.4z" fill="none"/><path d="m273.6 65.5h-247.3" fill="#e6f1f5"/><path d="m61.9 50.9c0 1.8-1.5 3.3-3.3 3.3s-3.3-1.5-3.3-3.3 1.5-3.3 3.3-3.3c1.8.1 3.3 1.5 3.3 3.3" fill="#fff"/><path d="m75.6 47.6c-1.8 0-3.3 1.5-3.3 3.3s1.5 3.3 3.3 3.3 3.3-1.5 3.3-3.3c.1-1.8-1.4-3.2-3.3-3.3zm18.5 0s-.1 0 0 0c-1.9 0-3.3 1.5-3.3 3.3s1.5 3.3 3.3 3.3 3.3-1.5 3.3-3.3-1.4-3.2-3.3-3.3z" fill="#dcdcde"/><path d="m272.8 69.9v-1c-5.1-.4-10.2-.7-15.4-.9l-7.7-.3-3.8-.1-3.8-.1c-5-.1-10.2-.2-15.4-.2l-15.4-.1-15.3-.1h-15.4l-30.8-.1-30.8.1h-15.4l-15.4.1-15.4.1c-5 .1-10.2.1-15.4.2l-3.8.1-3.8.1-7.7.3c-5 .2-10.2.5-15.4.9v1c5 .4 10.2.7 15.4.9l7.7.3 3.8.1 3.8.1c5 .1 10.2.2 15.4.2l15.4.1 15.4.1h15.4l30.9.1 30.8-.1h15.4l15.6-.1 15.4-.1c5-.1 10.2-.1 15.4-.2l3.8-.1 3.8-.1 7.7-.3c5-.2 10.2-.5 15.4-.9zm-163.8 54.3c-.1-.1-.2-.1-.3-.1h-.5c-.3 0-.6-.1-.9-.1l-1.8-.3c-1.2-.2-2.3-.3-3.4-.5-.5-.1-1.1-.1-1.6-.2-.1 0-.3 0-.4-.1h-.2-.1l-.6-.3c-.2-.1-.3-.3-.4-.4 0 0 0-.1-.1-.1 0-.1-.1-.1-.1-.2-.1-.1-.1-.2-.2-.3l-.6-1.2c-.4-.7-.7-1.4-1.1-2-.7-1.2-1.2-2.2-1.5-2.9-.4-.7-.5-1-.5-1l.1-.1v-.1s0-.1-.1-.1l-.1-.1s-.1 0-.1-.1l-.1-.1c-.1 0-.2-.1-.3-.1s-.3 0-.4.1l-.3.3s-.1.1-.1.2c0 0 0 .1-.1.1 0 .1-.1.2-.2.3-.1.2-.2.4-.4.7-.3.5-.5 1-.9 1.6-.7 1.2-1.4 2.7-2.3 4.5-.1.1-.1.2-.2.3v.2c-.1.2-.3.3-.5.4l-.6.3h-.4c-.1 0-.3 0-.4.1-1.1.2-2.2.3-3.4.5s-2.4.3-3.7.5c-.2 0-.3 0-.5.1h-.2c-.1 0-.1 0-.2.1h-.2l-.3.3c-.1.2-.1.4-.1.5 0 .2.1.3.2.4l.1.1.1.1 1.4 1.4 3 3 1.5 1.5v.1c0 .1.1.1.1.2.1.1.1.3.2.4 0 .1.1.3.1.4v.4c-.2 1.5-.5 3-.8 4.5-.1.8-.3 1.5-.4 2.3-.1.4-.1.8-.2 1.2v.7c0 .2.1.3.2.5l.1.1.1.1c.1 0 .2.1.3.1.2 0 .3 0 .5-.1h.2l.1-.1.5-.3c.4-.2.7-.4 1.1-.5.7-.4 1.4-.7 2.1-1.1s1.4-.7 2.1-1.1l1.1-.5.5-.3.1-.1s.1 0 .1-.1h.2c.3-.1.7-.1 1 0h.2l.3.1.5.3c.7.4 1.4.7 2.1 1.1 1.4.7 2.8 1.4 4.2 2.2l.5.3c.1 0 .1 0 .2.1.1 0 .1 0 .2.1.2 0 .3 0 .5-.1.1 0 .2-.1.3-.2l.1-.1s0-.1.1-.1c.1-.2.1-.3.1-.5v-.1-.2l-.1-.3c-.1-.8-.3-1.5-.4-2.3-.3-1.5-.5-3-.8-4.5-.1-.4-.1-.7-.2-1.1v-.2-.1c0-.1 0-.3.1-.4 0-.1.1-.3.2-.4 0-.1.1-.1.1-.2s.1-.1.2-.2l.8-.8c1-1 2-2 3-2.9.5-.5 1-.9 1.5-1.4l.7-.7.2-.2v-.1s.1-.1.1-.2c.1-.1.1-.2.1-.4s0-.4-.1-.5c.3.1.2 0 0 0zm94.1-3.8c-1.7-.2-3.6-.3-5.8-.4-4.2-.2-9.1-.2-14.4-.3-2.6 0-5.4-.1-8.1-.1h-16.8c-2.8 0-5.5 0-8.1.1-5.3.1-10.2.1-14.4.1-2.1 0-4 0-5.8.1-1.7 0-3.2 0-4.4.1-2.5.2-3.9.7-3.9.7v3.3s1.4.5 3.9.7c1.2.1 2.7.1 4.4.1s3.6 0 5.8.1c4.2 0 9.1.1 14.4.1 2.6 0 5.4 0 8.1.1h16.8c2.8 0 5.5-.1 8.1-.1 5.3-.1 10.2-.1 14.4-.3 2.1-.1 4-.2 5.8-.4 1.7-.1 3.2-.3 4.4-.5 2.5-.3 3.9-.7 3.9-.7v-1.7s-1.4-.3-3.9-.7c-1.2 0-2.7-.1-4.4-.3zm-47.4 15.4c-1-.1-2-.1-3.1-.2-1.1 0-2.2-.1-3.4-.1-2.4-.1-4.9-.1-7.5-.1-2.5 0-5.1 0-7.5.1s-4.6.1-6.5.1c-1 0-1.8 0-2.6.1-.8 0-1.5 0-2 .1-1.1.2-1.7.7-1.7.7v3.3s.6.5 1.7.7c.6.1 1.2.1 2 .1s1.6 0 2.6.1c1.9 0 4.1.1 6.5.1s4.9.1 7.5.1c2.5 0 5.1-.1 7.5-.1 1.2 0 2.3-.1 3.4-.1s2.1-.1 3.1-.2c1.9-.2 3.5-.6 4.6-.9s1.7-.7 1.7-.7v-1.7s-.6-.3-1.7-.7c-1.1-.1-2.7-.5-4.6-.7z" fill="#004e6e"/></svg>
