<?xml version="1.0" encoding="utf-8"?>
<!-- Generator: Adobe Illustrator 19.2.1, SVG Export Plug-In . SVG Version: 6.00 Build 0)  -->
<svg version="1.1" id="Layer_1" xmlns="http://www.w3.org/2000/svg" xmlns:xlink="http://www.w3.org/1999/xlink" x="0px" y="0px"
	 viewBox="0 0 300 250" style="enable-background:new 0 0 300 250;" xml:space="preserve">
<style type="text/css">
	.st0{fill:#CCCED0;}
	.st1{fill:none;}
	.st2{fill:#DEF2FA;}
	.st3{fill:#FFFFFF;}
	.st4{fill:#E1E2E2;}
	.st5{fill:#224B68;}
</style>
<g>
	<g>
		<path class="st0" d="M264.1,143.5c-0.1-13-0.1-26-0.3-39c-0.2-11.7-0.4-23.4-0.7-35V44.6c0-7.4-6-13.2-13.3-13.2H51.5
			c-7.3,0-13.3,5.9-13.3,13.2v26h0.5c-0.4,9.5-0.3,19-0.4,28.5l-0.1,41.5l0.3,41.5c0.1,13.9,0,27.6,1.4,41.5h0.8
			c1.3-13.9,1.1-27.6,1.2-41.5l0.1-41.5L41.7,99c-0.1-9.5-0.1-19-0.5-28.5h220.9c-0.3,11.3-0.4,22.6-0.7,34c-0.3,13-0.3,26-0.4,39
			l-0.2,76.2l-46.1-0.1l-47.9,0.1l-47.9,0.1c-16,0.1-31.9,0.3-47.9,1.2v0.8c16,0.9,31.9,1,47.9,1.2l47.9,0.1l47.9,0.1l47.9-0.1h1.7
			v-1.7L264.1,143.5z"/>
		<g>
			<path class="st0" d="M239.7,98.1L151.4,98l-88.3-0.1l-1.7,0l0,1.7l0,96.2l0,1.6l1.6,0l88.3-0.1l44.2,0c7.4,0,14.7,0,22.1-0.1
				c7.4-0.1,14.7-0.2,22.1-0.4l0.5,0l0.4-25l0.3-24.1c0.1-8,0.2-16,0.2-24.1l0.1-24.1l0-1.5L239.7,98.1z M217.7,194.4
				c-7.4-0.1-14.7-0.1-22.1-0.1l-44.2,0l-86.7-0.1l0-92.9l86.7-0.1l86.9-0.1l0.1,22.6c0,8,0.1,16,0.2,24.1l0.3,24.1l0.4,23
				C232,194.6,224.8,194.5,217.7,194.4z"/>
			<path class="st0" d="M204.4,162.7c-2.5-0.1-5.2-0.2-8.3-0.2c-6.1-0.1-13.1-0.1-20.7-0.2c-7.6-0.1-15.7-0.1-23.8-0.1
				c-8.1,0-16.2,0-23.8,0.1c-7.6,0-14.7,0.1-20.7,0.1c-6.1,0-11.1,0-14.7,0.1c-1.8,0.1-3.2,0.2-4.1,0.3c-0.9,0.1-1.5,0.2-1.5,0.2v2
				c0,0,0.5,0.1,1.5,0.2c0.9,0.1,2.3,0.2,4.1,0.3c3.5,0.1,8.6,0.1,14.7,0.1c6.1,0,13.1,0.1,20.7,0.1c7.6,0,15.7,0.1,23.8,0.1
				c8.1,0,16.2,0,23.8-0.1c7.6-0.1,14.7-0.1,20.7-0.2c3-0.1,5.8-0.1,8.3-0.2c2.5-0.1,4.6-0.2,6.4-0.3c3.5-0.2,5.6-0.4,5.6-0.4v-1
				c0,0-2-0.2-5.6-0.4C209,162.9,206.9,162.8,204.4,162.7z"/>
			<path class="st0" d="M123.8,176.5c-0.8-0.1-1.6-0.2-2.6-0.2c-1.9-0.1-4.1-0.1-6.5-0.2c-2.4-0.1-4.9-0.1-7.5-0.1
				c-2.5,0-5.1,0-7.5,0c-2.4,0-4.6,0.1-6.5,0.1c-1.9,0-3.5,0-4.6,0.1c-1.1,0.1-1.7,0.4-1.7,0.4v2c0,0,0.6,0.3,1.7,0.4
				c1.1,0.1,2.7,0.1,4.6,0.1c1.9,0,4.1,0.1,6.5,0.1c2.4,0,4.9,0.1,7.5,0c2.5,0,5.1,0,7.5-0.1c2.4-0.1,4.6-0.1,6.5-0.2
				c1-0.1,1.8-0.1,2.6-0.2c0.8-0.1,1.5-0.2,2-0.3c1.1-0.2,1.7-0.4,1.7-0.4v-1c0,0-0.6-0.2-1.7-0.4
				C125.3,176.7,124.6,176.6,123.8,176.5z"/>
			<path class="st0" d="M153,176.3c-0.7-0.1-1.4-0.1-2.2-0.2c-0.8,0-1.7-0.1-2.6-0.1c-0.9,0-1.8,0-2.6,0c-0.8,0-1.6,0.1-2.2,0.1
				c-0.3,0-0.6,0-0.9,0c-0.3,0-0.5,0-0.7,0.1c-0.4,0.1-0.6,0.4-0.6,0.4v2c0,0,0.2,0.3,0.6,0.4c0.2,0.1,0.4,0.1,0.7,0.1
				c0.3,0,0.6,0,0.9,0c0.7,0,1.4,0.1,2.2,0.1c0.8,0,1.7,0.1,2.6,0c0.9,0,1.8,0,2.6-0.1c0.8-0.1,1.6-0.1,2.2-0.2
				c0.7-0.1,1.2-0.3,1.6-0.5c0.4-0.2,0.6-0.4,0.6-0.4v-1c0,0-0.2-0.2-0.6-0.4C154.2,176.6,153.7,176.4,153,176.3z"/>
		</g>
	</g>
	<path class="st1" d="M39,66.3h223.4v154.7H39V66.3z"/>
	<path class="st2" d="M273.6,65.5H26.3"/>
	<path class="st3" d="M61.9,50.9c0,1.8-1.5,3.3-3.3,3.3c-1.8,0-3.3-1.5-3.3-3.3c0-1.8,1.5-3.3,3.3-3.3
		C60.4,47.7,61.9,49.1,61.9,50.9"/>
	<g>
		<path class="st4" d="M75.6,47.6c-1.8,0-3.3,1.5-3.3,3.3c0,1.8,1.5,3.3,3.3,3.3s3.3-1.5,3.3-3.3C79,49.1,77.5,47.7,75.6,47.6z"/>
		<path class="st4" d="M94.1,47.6C94.1,47.6,94,47.6,94.1,47.6c-1.9,0-3.3,1.5-3.3,3.3c0,1.8,1.5,3.3,3.3,3.3c1.8,0,3.3-1.5,3.3-3.3
			h0C97.4,49.1,96,47.7,94.1,47.6z"/>
	</g>
	<g>
		<path class="st5" d="M272.8,69.9v-1c-5.1-0.4-10.2-0.7-15.4-0.9l-7.7-0.3l-3.8-0.1l-3.8-0.1c-5-0.1-10.2-0.2-15.4-0.2l-15.4-0.1
			L196,67.1h-15.4L149.8,67l-30.8,0.1h-15.4l-15.4,0.1l-15.4,0.1c-5,0.1-10.2,0.1-15.4,0.2l-3.8,0.1l-3.8,0.1L42.1,68
			c-5,0.2-10.2,0.5-15.4,0.9v1c5,0.4,10.2,0.7,15.4,0.9l7.7,0.3l3.8,0.1l3.8,0.1c5,0.1,10.2,0.2,15.4,0.2l15.4,0.1l15.4,0.1H119
			l30.9,0.1l30.8-0.1h15.4l15.6-0.1l15.4-0.1c5-0.1,10.2-0.1,15.4-0.2l3.8-0.1l3.8-0.1l7.7-0.3c5-0.2,10.2-0.5,15.4-0.9L272.8,69.9z
			"/>
		<path class="st5" d="M109,124.2c-0.1-0.1-0.2-0.1-0.3-0.1l-0.1,0l-0.1,0l-0.1,0l-0.2,0c-0.3,0-0.6-0.1-0.9-0.1
			c-0.6-0.1-1.2-0.2-1.8-0.3c-1.2-0.2-2.3-0.3-3.4-0.5c-0.5-0.1-1.1-0.1-1.6-0.2c-0.1,0-0.3,0-0.4-0.1l-0.1,0l-0.1,0
			c0,0-0.1,0-0.1,0c-0.2-0.1-0.4-0.2-0.6-0.3c-0.2-0.1-0.3-0.3-0.4-0.4c0,0,0-0.1-0.1-0.1c0-0.1-0.1-0.1-0.1-0.2
			c-0.1-0.1-0.1-0.2-0.2-0.3c-0.2-0.4-0.4-0.8-0.6-1.2c-0.4-0.7-0.7-1.4-1.1-2c-0.7-1.2-1.2-2.2-1.5-2.9c-0.4-0.7-0.5-1-0.5-1
			l0.1-0.1c0,0,0,0,0-0.1c0,0,0-0.1-0.1-0.1c0,0-0.1-0.1-0.1-0.1c0,0-0.1,0-0.1-0.1c0,0-0.1-0.1-0.1-0.1c-0.1,0-0.2-0.1-0.3-0.1
			c-0.1,0-0.3,0-0.4,0.1c-0.1,0.1-0.2,0.2-0.3,0.3c0,0-0.1,0.1-0.1,0.2c0,0,0,0.1-0.1,0.1c0,0.1-0.1,0.2-0.2,0.3
			c-0.1,0.2-0.2,0.4-0.4,0.7c-0.3,0.5-0.5,1-0.9,1.6c-0.7,1.2-1.4,2.7-2.3,4.5c-0.1,0.1-0.1,0.2-0.2,0.3l0,0.1c0,0,0,0,0,0l0,0l0,0
			c0,0,0,0,0,0l0,0c0,0,0,0,0,0.1c-0.1,0.2-0.3,0.3-0.5,0.4c-0.2,0.1-0.4,0.2-0.6,0.3l-0.1,0l-0.1,0c-0.1,0-0.1,0-0.2,0
			c-0.1,0-0.3,0-0.4,0.1c-1.1,0.2-2.2,0.3-3.4,0.5s-2.4,0.3-3.7,0.5c-0.2,0-0.3,0-0.5,0.1l-0.1,0l0,0l0,0l-0.1,0
			c-0.1,0-0.1,0-0.2,0.1l-0.1,0l-0.1,0c-0.1,0.1-0.2,0.2-0.3,0.3c-0.1,0.2-0.1,0.4-0.1,0.5c0,0.2,0.1,0.3,0.2,0.4
			c0,0,0.1,0.1,0.1,0.1l0.1,0.1l0,0c0.5,0.5,0.9,0.9,1.4,1.4c1,1,2,2,3,3c0.5,0.5,1,1,1.5,1.5l0,0c0,0,0,0,0,0l0,0.1l0,0
			c0,0,0,0,0,0l0,0c0,0.1,0.1,0.1,0.1,0.2c0.1,0.1,0.1,0.3,0.2,0.4c0,0.1,0.1,0.3,0.1,0.4c0,0.1,0,0.1,0,0.2c0,0,0,0.1,0,0.1l0,0.1
			c-0.2,1.5-0.5,3-0.8,4.5c-0.1,0.8-0.3,1.5-0.4,2.3c-0.1,0.4-0.1,0.8-0.2,1.2l0,0.3c0,0.1,0,0.1,0,0.2c0,0,0,0.1,0,0.1l0,0.1
			c0,0.2,0.1,0.3,0.2,0.5c0,0,0.1,0.1,0.1,0.1c0,0,0.1,0.1,0.1,0.1c0.1,0,0.2,0.1,0.3,0.1c0.2,0,0.3,0,0.5-0.1c0,0,0.1,0,0.1,0
			c0,0,0.1,0,0.1,0l0.1-0.1l0.5-0.3c0.4-0.2,0.7-0.4,1.1-0.5c0.7-0.4,1.4-0.7,2.1-1.1c0.7-0.4,1.4-0.7,2.1-1.1l1.1-0.5l0.5-0.3
			l0.1-0.1c0,0,0.1,0,0.1-0.1l0,0l0.1,0c0,0,0.1,0,0.1,0c0.3-0.1,0.7-0.1,1,0c0,0,0.1,0,0.1,0c0,0,0,0,0,0c0,0,0,0,0.1,0l0.3,0.1
			l0.5,0.3c0.7,0.4,1.4,0.7,2.1,1.1c1.4,0.7,2.8,1.4,4.2,2.2l0.5,0.3c0.1,0,0.1,0,0.2,0.1c0.1,0,0.1,0,0.2,0.1c0.2,0,0.3,0,0.5-0.1
			c0.1,0,0.2-0.1,0.3-0.2c0,0,0.1-0.1,0.1-0.1c0,0,0-0.1,0.1-0.1c0.1-0.2,0.1-0.3,0.1-0.5c0,0,0-0.1,0-0.1c0,0,0-0.1,0-0.1l0-0.1
			l-0.1-0.3c-0.1-0.8-0.3-1.5-0.4-2.3c-0.3-1.5-0.5-3-0.8-4.5c-0.1-0.4-0.1-0.7-0.2-1.1l0-0.1l0,0c0,0,0,0,0,0l0-0.1l0,0
			c0,0,0,0,0,0l0,0c0,0,0-0.1,0-0.1c0-0.1,0-0.3,0.1-0.4c0-0.1,0.1-0.3,0.2-0.4c0-0.1,0.1-0.1,0.1-0.2c0-0.1,0.1-0.1,0.2-0.2
			c0.3-0.3,0.5-0.5,0.8-0.8c1-1,2-2,3-2.9c0.5-0.5,1-0.9,1.5-1.4c0.2-0.2,0.5-0.5,0.7-0.7l0.2-0.2l0,0c0,0,0,0,0-0.1
			c0,0,0.1-0.1,0.1-0.2c0.1-0.1,0.1-0.2,0.1-0.4c0-0.2,0-0.4-0.1-0.5C109.3,124.3,109.2,124.2,109,124.2z"/>
		<path class="st5" d="M203.1,120.4c-1.7-0.2-3.6-0.3-5.8-0.4c-4.2-0.2-9.1-0.2-14.4-0.3c-2.6,0-5.4-0.1-8.1-0.1c-2.8,0-5.6,0-8.4,0
			c-2.8,0-5.6,0-8.4,0c-2.8,0-5.5,0-8.1,0.1c-5.3,0.1-10.2,0.1-14.4,0.1c-2.1,0-4,0-5.8,0.1c-1.7,0-3.2,0-4.4,0.1
			c-2.5,0.2-3.9,0.7-3.9,0.7v3.3c0,0,1.4,0.5,3.9,0.7c1.2,0.1,2.7,0.1,4.4,0.1c1.7,0,3.6,0,5.8,0.1c4.2,0,9.1,0.1,14.4,0.1
			c2.6,0,5.4,0,8.1,0.1c2.8,0,5.6,0,8.4,0c2.8,0,5.6,0,8.4,0c2.8,0,5.5-0.1,8.1-0.1c5.3-0.1,10.2-0.1,14.4-0.3
			c2.1-0.1,4-0.2,5.8-0.4c1.7-0.1,3.2-0.3,4.4-0.5c2.5-0.3,3.9-0.7,3.9-0.7v-1.7c0,0-1.4-0.3-3.9-0.7
			C206.3,120.7,204.8,120.6,203.1,120.4z"/>
		<path class="st5" d="M155.7,135.8c-1-0.1-2-0.1-3.1-0.2c-1.1,0-2.2-0.1-3.4-0.1c-2.4-0.1-4.9-0.1-7.5-0.1c-2.5,0-5.1,0-7.5,0.1
			c-2.4,0.1-4.6,0.1-6.5,0.1c-1,0-1.8,0-2.6,0.1c-0.8,0-1.5,0-2,0.1c-1.1,0.2-1.7,0.7-1.7,0.7v3.3c0,0,0.6,0.5,1.7,0.7
			c0.6,0.1,1.2,0.1,2,0.1c0.8,0,1.6,0,2.6,0.1c1.9,0,4.1,0.1,6.5,0.1c2.4,0,4.9,0.1,7.5,0.1c2.5,0,5.1-0.1,7.5-0.1
			c1.2,0,2.3-0.1,3.4-0.1c1.1,0,2.1-0.1,3.1-0.2c1.9-0.2,3.5-0.6,4.6-0.9c1.1-0.3,1.7-0.7,1.7-0.7v-1.7c0,0-0.6-0.3-1.7-0.7
			C159.2,136.4,157.6,136,155.7,135.8z"/>
	</g>
</g>
</svg>
