<svg id="Layer_1" xmlns="http://www.w3.org/2000/svg" viewBox="0 0 300 250"><style>.st1{fill:#fff}.st2{fill:#ccced0}.st6{fill:#7093ac}</style><path d="M39.1 66.9h223.4v154.7H39.1V66.9z" fill="none"/><path class="st1" d="M39.9 224l-.3-165.8"/><path class="st2" d="M264.2 144.1c-.1-13-.1-26-.3-39-.2-11.7-.4-23.4-.7-35V45.2c0-7.4-6-13.2-13.3-13.2H51.6c-7.3 0-13.3 5.9-13.3 13.2v26h.5c-.4 9.5-.3 19-.4 28.5l-.1 41.5.3 41.5c.1 13.9 0 27.6 1.4 41.5h.8c1.3-13.9 1.1-27.6 1.2-41.5l.1-41.5-.3-41.5c-.1-9.5-.1-19-.5-28.5h220.9c-.3 11.3-.4 22.6-.7 34-.3 13-.3 26-.4 39l-.2 76.2-46.1-.1-47.9.1-47.9.1c-16 .1-31.9.3-47.9 1.2v.8c16 .9 31.9 1 47.9 1.2l47.9.1 47.9.1 47.9-.1h1.7v-1.7l-.2-78z"/><path d="M273.7 66.1H26.4" fill="#def2fa"/><path d="M273.3 70.5c-5.2.4-10.3.7-15.4.9l-7.7.3-3.8.1-3.8.1c-5.2.1-10.3.1-15.4.2l-15.4.1-15.6.1h-15.4l-30.8.1-30.9-.1h-15.5l-15.4-.1-15.4-.1c-5.2 0-10.3-.1-15.4-.2l-3.8-.1-3.8-.1-7.7-.3c-5.2-.2-10.3-.5-15.4-.9v-1c5.2-.4 10.3-.7 15.4-.9l7.7-.3 3.8-.1 3.8-.1c5.2-.1 10.3-.1 15.4-.2l15.4-.1 15.4-.1H119l30.8-.1 30.8.1H196l15.4.1 15.4.1c5.2 0 10.3.1 15.4.2l3.8.1 3.8.1 7.7.3c5.2.2 10.3.5 15.4.9v1h.4z" fill="#224b68"/><path class="st1" d="M62 51.5c0 1.8-1.5 3.3-3.3 3.3s-3.3-1.5-3.3-3.3c0-1.8 1.5-3.3 3.3-3.3 1.8.1 3.3 1.5 3.3 3.3"/><path d="M79.1 51.5c0 1.8-1.5 3.3-3.3 3.3-1.8 0-3.3-1.5-3.3-3.3 0-1.8 1.5-3.3 3.3-3.3 1.8.1 3.3 1.5 3.3 3.3m18.4 0c0 1.8-1.5 3.3-3.3 3.3-1.8 0-3.3-1.5-3.3-3.3 0-1.8 1.5-3.3 3.3-3.3 1.9.1 3.3 1.5 3.3 3.3" fill="#e1e2e2"/><path class="st6" d="M194.1 191c-3.4.1-6.9.3-10.3.4-1.7.1-3.4.1-5.2.1h-25.8l-41.2.1H110V190l-.1-29v-30.7h1.7l82.5.1h1.5v1.5c0 4.8-.1 9.7-.1 14.5l-.1 7.2c0 2.4 0 4.8-.1 7.2l-.3 14.5-.2 7.2c-.1 2.4-.1 4.8-.3 7.2v1l-.4.3zm-.5-2c-.1-2.1-.2-4.2-.2-6.2l-.2-7.2-.3-14.5c-.1-2.4-.1-4.8-.1-7.2l-.1-7.2c0-4.8-.1-9.7-.1-14.5l1.5 1.5-82.5.1 1.7-1.7v29l-.1 29-1.6-1.6 41.2.1h25.8c1.7 0 3.4 0 5.2.1 3.3 0 6.5.2 9.8.3z"/><path class="st2" d="M179.6 92h-53.5l-27.7 40.5h109z"/><path class="st2" d="M98.5 132.3v.5c0 7 6.2 12.7 13.8 12.7 7.6 0 13.8-5.7 13.8-12.7v-.5H98.5zM152.8 132.3v.5c0 7 6.2 12.7 13.8 12.7 7.6 0 13.8-5.7 13.8-12.7v-.5h-27.6z"/><path class="st6" d="M152.8 132.5l.8-40.5h-15.4l-12.5 40.5v.5c0 6.9 6.1 12.5 13.6 12.5s13.6-5.6 13.6-12.5c0-.2-.1-.3-.1-.5zM207.4 132.5L179.6 92h-7.1l7.4 40.5v.5c0 6.9 6.2 12.5 13.8 12.5s13.8-5.6 13.8-12.5c-.1-.2-.1-.3-.1-.5z"/><path class="st2" d="M131.5 154H173v20.5h-41.5z"/></svg>