<?xml version="1.0" encoding="utf-8"?>
<!-- Generator: Adobe Illustrator 19.2.1, SVG Export Plug-In . SVG Version: 6.00 Build 0)  -->
<svg version="1.1" id="Layer_1" xmlns="http://www.w3.org/2000/svg" xmlns:xlink="http://www.w3.org/1999/xlink" x="0px" y="0px"
	 viewBox="0 0 300 250" style="enable-background:new 0 0 300 250;" xml:space="preserve">
<style type="text/css">
	.st0{fill:none;}
	.st1{fill:#FFFFFF;}
	.st2{fill:#CCCED0;}
	.st3{fill:#DEF2FA;}
	.st4{fill:#224B68;}
	.st5{fill:#E1E2E2;}
	.st6{fill:#7093AC;}
</style>
<g>
	<path class="st0" d="M39.1,66.9h223.4v154.7H39.1V66.9z"/>
	<path class="st1" d="M39.9,224L39.6,58.2"/>
	<path class="st2" d="M264.2,144.1c-0.1-13-0.1-26-0.3-39c-0.2-11.7-0.4-23.4-0.7-35V45.2c0-7.4-6-13.2-13.3-13.2H51.6
		c-7.3,0-13.3,5.9-13.3,13.2v26h0.5c-0.4,9.5-0.3,19-0.4,28.5l-0.1,41.5l0.3,41.5c0.1,13.9,0,27.6,1.4,41.5h0.8
		c1.3-13.9,1.1-27.6,1.2-41.5l0.1-41.5l-0.3-41.5c-0.1-9.5-0.1-19-0.5-28.5h220.9c-0.3,11.3-0.4,22.6-0.7,34c-0.3,13-0.3,26-0.4,39
		l-0.2,76.2l-46.1-0.1l-47.9,0.1l-47.9,0.1c-16,0.1-31.9,0.3-47.9,1.2v0.8c16,0.9,31.9,1,47.9,1.2l47.9,0.1l47.9,0.1l47.9-0.1h1.7
		v-1.7L264.2,144.1z"/>
	<path class="st3" d="M273.7,66.1H26.4"/>
	<path class="st4" d="M273.3,70.5c-5.2,0.4-10.3,0.7-15.4,0.9l-7.7,0.3l-3.8,0.1l-3.8,0.1c-5.2,0.1-10.3,0.1-15.4,0.2l-15.4,0.1
		l-15.6,0.1h-15.4l-30.8,0.1l-30.9-0.1h-15.5l-15.4-0.1l-15.4-0.1c-5.2,0-10.3-0.1-15.4-0.2l-3.8-0.1l-3.8-0.1l-7.7-0.3
		c-5.2-0.2-10.3-0.5-15.4-0.9v-1c5.2-0.4,10.3-0.7,15.4-0.9l7.7-0.3l3.8-0.1l3.8-0.1c5.2-0.1,10.3-0.1,15.4-0.2l15.4-0.1l15.4-0.1
		H119l30.8-0.1l30.8,0.1h15.4l15.4,0.1l15.4,0.1c5.2,0,10.3,0.1,15.4,0.2l3.8,0.1l3.8,0.1l7.7,0.3c5.2,0.2,10.3,0.5,15.4,0.9v1
		L273.3,70.5z"/>
	<path class="st1" d="M62,51.5c0,1.8-1.5,3.3-3.3,3.3s-3.3-1.5-3.3-3.3c0-1.8,1.5-3.3,3.3-3.3C60.5,48.3,62,49.7,62,51.5"/>
	<path class="st5" d="M79.1,51.5c0,1.8-1.5,3.3-3.3,3.3c-1.8,0-3.3-1.5-3.3-3.3c0-1.8,1.5-3.3,3.3-3.3
		C77.6,48.3,79.1,49.7,79.1,51.5 M97.5,51.5c0,1.8-1.5,3.3-3.3,3.3c-1.8,0-3.3-1.5-3.3-3.3c0-1.8,1.5-3.3,3.3-3.3c0,0,0,0,0,0
		C96.1,48.3,97.5,49.7,97.5,51.5"/>
	<path class="st6" d="M194.1,191c-3.4,0.1-6.9,0.3-10.3,0.4c-1.7,0.1-3.4,0.1-5.2,0.1c-1.7,0-3.4,0-5.2,0l-20.6,0l-41.2,0.1l-1.6,0
		l0-1.6l-0.1-29l0-29l0-1.7l1.7,0l82.5,0.1l1.5,0l0,1.5c0,4.8-0.1,9.7-0.1,14.5l-0.1,7.2c0,2.4,0,4.8-0.1,7.2l-0.3,14.5l-0.2,7.2
		c-0.1,2.4-0.1,4.8-0.3,7.2l0,1L194.1,191z M193.6,189c-0.1-2.1-0.2-4.2-0.2-6.2l-0.2-7.2l-0.3-14.5c-0.1-2.4-0.1-4.8-0.1-7.2
		l-0.1-7.2c0-4.8-0.1-9.7-0.1-14.5l1.5,1.5l-82.5,0.1l1.7-1.7l0,29l-0.1,29l-1.6-1.6l41.2,0.1l20.6,0c1.7,0,3.4,0,5.2,0
		c1.7,0,3.4,0,5.2,0.1C187.1,188.7,190.3,188.9,193.6,189z"/>
	<g>
		<polygon class="st2" points="179.6,92 126.1,92 98.4,132.5 207.4,132.5 		"/>
		<path class="st2" d="M98.5,132.3c0,0.2,0,0.3,0,0.5c0,7,6.2,12.7,13.8,12.7c7.6,0,13.8-5.7,13.8-12.7c0-0.2,0-0.3,0-0.5H98.5z"/>
		<path class="st2" d="M152.8,132.3c0,0.2,0,0.3,0,0.5c0,7,6.2,12.7,13.8,12.7c7.6,0,13.8-5.7,13.8-12.7c0-0.2,0-0.3,0-0.5H152.8z"
			/>
	</g>
	<path class="st6" d="M152.8,132.5l0.8-40.5h-15.4l-12.5,40.5h0c0,0.2,0,0.3,0,0.5c0,6.9,6.1,12.5,13.6,12.5s13.6-5.6,13.6-12.5
		C152.9,132.8,152.8,132.7,152.8,132.5L152.8,132.5z"/>
	<path class="st6" d="M207.4,132.5L179.6,92h-7.1l7.4,40.5c0,0.2,0,0.3,0,0.5c0,6.9,6.2,12.5,13.8,12.5s13.8-5.6,13.8-12.5
		C207.4,132.8,207.4,132.7,207.4,132.5z"/>
	<rect x="131.5" y="154" class="st2" width="41.5" height="20.5"/>
</g>
</svg>
