<svg viewBox="0 0 216 180.4" xmlns="http://www.w3.org/2000/svg"><path d="m3.4 178.9v-163.7c0-6.8 5.5-12.4 12.4-12.4h183.3c6.8 0 12.4 5.5 12.4 12.4v163.8h-208.1z" fill="#fff"/><path d="m3.4 35.2v-20.5c0-8.1 5.5-14.7 12.4-14.7h183.3c6.8 0 12.4 6.6 12.4 14.7v20.5z" fill="#3895ba"/><path d="m26 80.8h65.8v66c0 5.7-4.7 10.4-10.4 10.4h-55.4z" fill="#c3c4c7"/><path d="m91.8 146.8v-6.2c-3.3-7.7-9.1-12-16.7-14.1-13.8-3.9-36.4 4.3-49.1-24.1v54.8h55.4c5.7 0 10.4-4.7 10.4-10.4z" fill="#2fb41f"/><circle cx="73.2" cy="100.9" fill="#fff" r="8.1"/><path d="m108.4 157.2 60.6.1c7.3 0 13.2-5.9 13.2-13.2v-30.8l-73.8-.1z" fill="#dcdcde"/><path d="m135.3 54h20.1v73.8h-20.1z" fill="#dcdcde" transform="matrix(.00116495 -1 1 .00116495 54.3135 236.0769)"/><path d="m20.4 61.8c3.3-1.5 6.7-2.8 10.1-3.8 3.5-.9 7-1.8 10.6-2.4 7.1-1.2 14.3-1.8 21.6-1.9 7.2-.1 14.4.2 21.6 1 7.2.7 14.3 1.7 21.3 2.7s14.1 1.8 21.2 2.3 14.2.8 21.3 1 14.2-.1 21.2-.9c7.1-.8 14.1-2.2 21.1-3.5.3-.1.7.2.7.5.1.3-.1.6-.4.7-6.9 2-13.9 3.6-21 4.8-7.1 1-14.4 1.5-21.6 1.5s-14.4-.3-21.6-.7-14.3-1.2-21.5-2.1-14-2-21.1-2.7c-3.5-.4-7.1-.8-10.6-1s-7.1-.3-10.6-.3c-7.1 0-14.2.4-21.2 1.2-7.1.7-14 2.2-20.8 4.3-.2 0-.3-.1-.4-.2-.1-.3 0-.4.1-.5z" fill="#c3c4c7"/><path d="m214 178.3-52.8.2h-43.8l-87.6.1h-13.7c-1 0-2.1-.2-3.1-.4-6.3-1.6-10.7-7.3-10.7-13.8v-54.8-75h3.7v75 54.8c0 4.8 3.2 9.1 7.9 10.3.8.2 1.5.3 2.3.3h13.7l87.6.1h43.8l51.3.2.3-33.4.2-17.4.3-17.4c.1-.3.3-.5.7-.5.2 0 .4.2.5.5l.3 17.4.3 17.4.4 34.8c-.2.8-.8 1.5-1.6 1.6z" fill="#c3c4c7"/><path d="m214.8 35.5c-8.9 1.2-17.9 1.9-26.8 2.2s-17.9.3-26.9.4c-17.9.2-35.8.3-53.7.4s-35.8-.1-53.7-.4c-9-.1-17.9-.1-26.9-.4s-18-1-26.9-2.2v-1.5c8.9-1.2 17.9-1.9 26.9-2.2 8.9-.3 17.9-.3 26.9-.4 17.9-.2 35.8-.3 53.7-.4s35.8.1 53.7.4c8.9.1 17.9.1 26.9.4s18 1 26.9 2.2z" fill="#004e6e"/></svg>
