<svg viewBox="0 0 206.1 131.6" xmlns="http://www.w3.org/2000/svg" xmlns:xlink="http://www.w3.org/1999/xlink"><clipPath id="a"><path d="m87.4 109.6h-21.5v-30.8h26.5v25.7c0 2.8-2.3 5.1-5 5.1z"/></clipPath><path d="m158.9 124.7h-113v-80.3c0-3.9 3.1-7 7-7h106z" fill="#c3c4c7"/><path d="m55.8 115.2v-55.2h94.1v55.2h-89" fill="#fff"/><path d="m55.8 59.8v-12.9h94.1v12.9h-89" fill="#3895ba"/><path d="m164.9 131.6h-126.3c-2.7 0-4.8-2.2-4.8-4.8v-2.6h137.1v1.5c0 3.2-2.7 5.9-6 5.9z" fill="#187aa2"/><path d="m110.8 127.9h-16.9c-2.1 0-3.7-1.7-3.7-3.7h24.3c0 2-1.7 3.7-3.7 3.7z" fill="#004e6e"/><path d="m73.6 71.2c1-.8 2.1-1.4 3.2-2 1.2-.5 2.4-1 3.6-1.3 2.4-.7 5-1 7.5-1.1s5.1.1 7.6.6c2.5.4 4.9.9 7.3 1.5 2.4.5 4.8 1 7.3 1.2 2.4.3 4.9.4 7.4.5 2.4.1 4.9-.1 7.3-.5s4.8-1.2 7.1-1.9c.2-.1.4 0 .4.2.1.2 0 .3-.2.4-2.3 1-4.6 1.9-7.1 2.5s-5 .8-7.6.8c-5 0-10.1-.5-15-1.6-2.5-.5-4.9-1.1-7.3-1.5s-4.8-.7-7.3-.7c-4.9.1-9.8.7-14.2 2.9-.1.1-.2.1-.2 0 .1.1.1 0 .2 0z" fill="#c3c4c7"/><path d="m87.4 109.6h-21.5v-30.8h26.5v25.7c0 2.8-2.3 5.1-5 5.1z" fill="#c3c4c7"/><path clip-path="url(#a)" d="m65.9 87.5c5.1 11.4 14.2 8.1 19.8 9.7 4.8 1.3 7.8 4.8 8 12.4h-27.8z" fill="#2fb41f"/><circle cx="84.9" cy="86.9" fill="#fff" r="3.2"/><path d="m100.8 78.8h40.2v8.1h-40.2zm33.8 30.8h-33.8v-17.8h40.2v11.3c0 3.6-2.9 6.5-6.4 6.5z" fill="#8e9196" opacity=".26"/><path d="m20.6 81.1h6.6v49.9h-6.6z" fill="#fff"/><path d="m27.3 131.2-6.7.2c-.1 0-.3-.1-.3-.2-.1-4.2-.2-8.3-.2-12.5l-.1-12.5-.1-25c0-.3.3-.6.6-.6h6.6c.3 0 .5.2.5.5 0 8.4 0 16.8-.1 25.1zm-.3-.2-.3-25.1c-.1-8.3-.1-16.5-.1-24.8l.5.5h-6.6l.6-.6-.1 25v12.6c0 4.2-.1 8.3-.2 12.5l-.3-.3z" fill="#c3c4c7"/><path d="m2.8 100.3 89.4-92.6" fill="none"/><path d="m2.8 100.3c7.2-7.9 14.6-15.7 22-23.4l22.3-23.2 22.4-23.1c7.5-7.7 14.9-15.4 22.5-23 .1-.1.2-.1.3 0s.1.2 0 .3c-7.3 7.8-14.8 15.5-22.1 23.3l-22.3 23.2-22.4 23.1c-7.5 7.7-15 15.3-22.7 22.8-.1.1-.1 0 0 0z" fill="#c3c4c7"/><circle cx="24" cy="79.8" fill="#fff" r="6"/><path d="m30.1 79.8c.1 1.6-.4 3.3-1.6 4.5-1.1 1.2-2.8 2-4.5 2s-3.4-.7-4.6-1.9-1.9-2.9-1.9-4.6.7-3.4 1.9-4.6 2.9-1.9 4.6-1.9 3.3.8 4.5 2c1.1 1.3 1.7 2.9 1.6 4.5zm-.3 0c-.1-1.5-.7-2.9-1.8-3.9s-2.5-1.6-3.9-1.5c-1.4 0-2.8.6-3.8 1.6s-1.6 2.4-1.6 3.8.6 2.8 1.6 3.8 2.4 1.6 3.8 1.6 2.9-.5 3.9-1.5c1-.9 1.7-2.3 1.8-3.9z" fill="#c3c4c7"/><path d="m89 14.8-2.4-4.3c-1.8-2.9-1.1-6.5 1.4-8l2.1-1.3c2.5-1.5 6-.4 7.7 2.4l2.4 4.3" fill="#fff"/><path d="m88.9 14.8c-.7-1-1.4-2.1-2.1-3.2-.3-.5-.7-1.1-1-1.6-.3-.6-.5-1.2-.7-1.9-.2-1.3 0-2.8.6-4 .3-.6.8-1.2 1.3-1.6.6-.5 1.1-.7 1.6-1.1.6-.3 1.1-.7 1.7-.9.6-.3 1.4-.4 2-.4 1.4 0 2.8.5 3.8 1.3.5.4 1 .9 1.4 1.5s.7 1.1.9 1.7c.6 1.1 1.1 2.3 1.7 3.4 0 .1 0 .2-.1.3-.1 0-.2 0-.3-.1-.3-1.2-1-2.2-1.7-3.3-.3-.5-.6-1.1-1-1.5-.4-.5-.8-.9-1.3-1.2-.9-.7-2.1-1.1-3.2-1-.6 0-1.1.1-1.6.4-.5.2-1 .6-1.6.9-.5.3-1.1.6-1.5 1-.4.3-.8.8-1.1 1.3-.5 1-.7 2.2-.6 3.3.1.6.2 1.2.5 1.7l.8 1.7c.6 1.1 1.1 2.3 1.6 3.4 0 .1 0 .1-.1.1.1-.1 0-.1 0-.2z" fill="#c3c4c7"/><path d="m93.1 39-4.4-7.3c-4.3-7.1-2.7-15.8 3.5-19.6l5.1-3.1c6.2-3.7 14.7-1 18.9 6.1l4.4 7.3" fill="#fff"/><path d="m93 39.1c-1.6-2.3-3.1-4.7-4.6-7-1.5-2.4-2.5-5.2-2.6-8.1s.5-5.8 2.1-8.3c.8-1.2 1.8-2.3 2.9-3.2.6-.5 1.2-.8 1.8-1.2l1.8-1.1c1.2-.7 2.3-1.5 3.7-2.1 1.3-.6 2.8-1 4.2-1.1 2.9-.2 5.8.6 8.3 2 2.5 1.5 4.5 3.6 6 6.1 1.4 2.4 2.8 4.8 4.1 7.3.1.1 0 .2-.1.3s-.2 0-.3-.1c-1.5-2.3-3-4.7-4.5-7.1-1.4-2.3-3.4-4.3-5.8-5.7-2.3-1.4-5.1-2.1-7.7-1.8-1.3.1-2.6.5-3.8 1-1.2.6-2.4 1.4-3.6 2.1s-2.5 1.4-3.5 2.2c-1.1.8-2 1.8-2.7 2.9-1.4 2.3-2.1 5-2 7.7s.9 5.4 2.3 7.7c1.4 2.4 2.7 4.9 4.1 7.3v.1c0 .1 0 .1-.1.1z" fill="#c3c4c7"/><path d="m90.4 40.7 32.1-19.3" fill="none"/><path d="m90.3 40.6c2.5-1.8 5.2-3.5 7.8-5.2l8-4.9c5.4-3.2 10.7-6.4 16.2-9.4.1-.1.2 0 .3.1 0 .1 0 .2-.1.3-5.2 3.5-10.5 6.7-15.9 10l-8.1 4.8c-2.7 1.6-5.4 3.1-8.2 4.5h-.1c.1-.1.1-.2.1-.2z" fill="#c3c4c7"/><path d="m137.5 96.6h24.3c7.6 3.4 15.8 6.2 15.8 6.2s-2.3-2.2-3.5-6.2h4.2c3.4 0 6.2-2.8 6.2-6.2v-11.6c0-3.4-2.8-6.2-6.2-6.2h-40.7c-3.4 0-6.2 2.8-6.2 6.2v11.5c-.1 3.5 2.7 6.3 6.1 6.3z" fill="#fff"/><g fill="#c3c4c7"><path d="m137.5 96.5c8.1-.2 16.2-.3 24.3-.4h.2c5.2 2.3 10.4 4.3 15.7 6.1l-.5.9c-.5-.5-.8-.9-1.2-1.5-.3-.5-.7-1-1-1.6-.6-1-1.1-2.2-1.5-3.4-.1-.3.1-.6.3-.7h3.5c.6 0 1.1 0 1.6-.1s1-.2 1.5-.4c1.9-.8 3.2-2.7 3.4-4.7v-11.6c0-.6 0-1-.1-1.6-.4-2-2-3.6-3.9-4.3-.5-.1-1-.2-1.5-.2h-38.5c-1.1 0-2.3-.1-3.3.1-1 .1-2 .6-2.8 1.2-.8.7-1.5 1.6-1.8 2.6-.4 1-.3 2.1-.3 3.2v9.9c0 1 .2 2.2.7 3.1.9 2 3 3.2 5.2 3.4zm0 .3c-2.3 0-4.6-1.2-5.7-3.3-.5-1-.8-2.2-.8-3.3v-9.9c0-1-.1-2.3.3-3.4s1-2.2 2-2.9c.9-.7 2-1.4 3.2-1.5 1.2-.2 2.3-.1 3.4-.1h6.6l13.4-.1h18.4c.6 0 1.2.1 1.8.3 2.4.7 4.3 2.7 4.8 5.1.1.6.2 1.2.1 1.8v11.6c-.2 2.4-1.9 4.7-4.1 5.6-.5.2-1.1.4-1.8.5-.6.1-1.2.1-1.8.1h-3.3l.5-.7c.3 1.1.8 2.2 1.4 3.2l.9 1.5c.3.4.7.9 1 1.4.2.2.2.5 0 .7-.1.1-.4.2-.5.1-5.3-1.9-10.6-3.9-15.8-6.2h.2c-8-.2-16.1-.3-24.2-.5z"/><circle cx="167.9" cy="85" r="2"/><circle cx="158" cy="85" r="2"/><circle cx="148" cy="85" r="2"/></g><path d="m13.6 130.4c15.9-.6 31.8-.7 47.7-.8l47.7-.1c31.8.1 63.6.1 95.4.7.2 0 .4.2.4.4s-.2.4-.4.4c-31.8.7-63.6.6-95.4.7l-47.7-.1c-15.9-.1-31.8-.3-47.7-.8-.1 0-.2-.1-.2-.2s.1-.2.2-.2z" fill="#f6f7f7"/><path d="m76.5 131.2h-44.2l-.1-28.2h44.2z" fill="#fff"/><path d="m76.6 131.3-22.1.3-22.2.1c-.3 0-.5-.2-.5-.5l-.2-28.2c0-.3.2-.6.6-.6 14.8.1 29.4 0 44.2.1.2 0 .4.2.4.4zm-.3-.2-.4-28.1.4.4c-14.8.1-29.4.1-44.2.1l.6-.6v28.2l-.5-.5 22 .1z" fill="#c3c4c7"/><path d="m33.9 105.8 19.9 12 21-12.8" fill="#fff"/><path d="m33.9 105.7 5.1 2.7c1.7 1 3.4 1.9 5.1 2.9l5 3c1.7 1 3.3 2 5 3h-.6l10.5-6.3c3.5-2.1 7.1-4.2 10.7-6.2.1-.1.2 0 .3.1s0 .2-.1.3c-3.4 2.2-6.9 4.5-10.4 6.6l-10.5 6.5c-.2.1-.4.1-.6 0-1.7-1-3.3-1.9-5-3l-5-3c-1.7-1-3.3-2-5-3.1s-3.2-2.1-4.9-3.3c0 0-.1-.1 0-.1z" fill="#c3c4c7"/><path d="m46.4 131.1h-45.6v-.3c0-3.5 2.9-6.4 6.4-6.4h32.8c3.5 0 6.4 2.9 6.4 6.4z" fill="#fff"/><path d="m46.6 131.2-11.3.2-11.4.2-23 .1c-.3 0-.6-.2-.6-.5 0-1.2.2-2.4.8-3.5s1.4-2 2.4-2.7 2.2-1.1 3.4-1.1h16.8l13.3.1c1.1 0 2.2 0 3.4.1s2.3.5 3.3 1.1c1 .7 1.8 1.6 2.3 2.6.3.5.4 1.1.6 1.6 0 .3.1.6.1.9v.4c-.1.1-.1.3-.1.5zm-.3-.2c-.1-.2-.1-.2-.1-.3v-.4c0-.3-.1-.5-.1-.8-.1-.5-.3-1-.6-1.5-.5-.9-1.3-1.8-2.2-2.3-.9-.6-1.9-.9-3-.9h-3.3l-13.4.1h-16.7c-1 0-2 .4-2.9.9-1.7 1.1-2.8 3.1-2.7 5.2l-.6-.6 22.6.1 11.4.2z" fill="#c3c4c7"/></svg>
