<svg viewBox="0 0 1562 860" xmlns="http://www.w3.org/2000/svg"><path d="m968.3 382.9v232.9h143.1v-247.7h-128.3c-8.2 0-14.8 6.6-14.8 14.8z" fill="none"/><path d="m900.7 223.5v-51h-156.6c1.1 1.8 2.1 3.8 3.1 5.8 17.7 37.1 1.9 81.6-35.2 99.4l-.8.4-1.3.6c-3.1 1.4-6.3 2.5-9.5 3.5l-1.5.4c-.5.2-1.2.3-1.7.5-.8.2-1.8.4-2.6.6-1.5-2.8-2-9.7-2.3-13.7-.5-6.5-.7-10.1-3.3-11.2-4.1-1.7-9.6 2.6-13.3 10.5-2.3 4.8-3.4 10.2-3.3 15.6-41.1-4.1-71-40.7-66.9-81.7.8-8.6 3.1-17 6.9-24.6.9-2 2-3.8 3.1-5.8h-163v264.5c23.5.5 69.8-8.2 70.4 13.7v-78.8h302.6v93.6c24.1-.2 48.4 5.6 72.5 1.6 1-.2 2.1.4 2.3 1.5 2.4 14.1 11.7 141.4 12.7 154.1.8 11.5 2.8 22.7.4 34.2-.3.8-1.1 1.4-1.9 1.4-8.7.5-17.3 1.6-25.9 1.5-8.1 0-39-.8-41.2-1.6-2.8-1-16 2.2-22.8 2.7-6.5.4-32.2 2.1-38.6 2.3-8 .2-16.3-.1-16.6-7.8-.1-4.3-4.1-35.2-3.5-39.7h-237.6c0 1-49.2-.1-72.8-.3v69.8h707.7v-462zm210.8 392.2h-143.2v-232.9c0-8.2 6.7-14.8 14.8-14.8h128.4z" fill="#f6f7f7"/><path d="m747.1 178.3c-.9-2-2-3.8-3.1-5.8-.8-1.5-1.8-2.9-2.8-4.3-23.3-34-69.7-42.7-103.7-19.5-7.7 5.2-14.3 11.9-19.5 19.5-1 1.4-1.8 2.8-2.8 4.4-1.1 1.8-2.1 3.8-3.1 5.8-17.7 37.2-1.8 81.8 35.4 99.5 7.8 3.7 16.1 6 24.6 6.8-.2-5.4 1-10.7 3.3-15.6 3.7-7.8 9.1-12.1 13.3-10.5 2.6 1.1 2.9 4.7 3.3 11.2.3 4 .8 11 2.3 13.7.9-.2 1.8-.4 2.6-.6.6-.2 1.2-.3 1.7-.5l1.5-.4c3.2-.9 6.4-2.1 9.5-3.5l1.3-.6.8-.4c37.4-17.6 53.1-62.1 35.4-99.2z" fill="#2fb41f"/><path d="m1111.3 368.7h-128.4c-8.2 0-14.8 6.7-14.8 14.8v232.9h143.1z" fill="none"/><path d="m900.6 113.6v110.4h299.2v-110.4z" fill="#dcdcde"/><path d="m473.4 546.1 39.8-.3 2.9 31.6-32.5-2.9c.1 0-12.8-2.6-10.2-28.4z" fill="#f6f7f7"/><path d="m465 178.3h-12.9c-2.8 0-5.1-2.3-5.1-5.1v-12.9c0-2.8 2.3-5.1 5.1-5.1s5.1 2.3 5.1 5.1v7.8h7.8c2.8 0 5.1 2.3 5.1 5.1.1 2.8-2.2 5.1-5.1 5.1zm-12.9-39c-2.8 0-5.1-2.3-5.1-5.1v-26.2c0-2.8 2.3-5.1 5.1-5.1s5.1 2.3 5.1 5.1v26.2c.1 2.8-2.2 5.1-5.1 5.1zm7-50.9c-2.8 0-5.1-2.3-5.1-5.1 0-1 .3-2 .8-2.8 5.4-8.2 13.4-14.6 22.5-18.1 2.7-1 5.6.3 6.7 3 1 2.7-.3 5.6-3 6.7-7.2 2.8-13.4 7.8-17.7 14.2-.8 1.2-2.4 2.1-4.2 2.1zm693.7-.2c-1.7 0-3.3-.8-4.3-2.3-4.3-6.4-10.5-11.4-17.7-14.1-2.7-1-4-4-3-6.7s4-4 6.7-3c9.3 3.5 17.2 9.8 22.6 18 1.6 2.4.9 5.5-1.4 7.1-.8.7-1.8 1-2.9 1zm-45.8-18.8h-26.2c-2.8 0-5.1-2.3-5.1-5.1s2.3-5.1 5.1-5.1h26.2c2.8 0 5.1 2.3 5.1 5.1-.1 2.8-2.3 5.1-5.1 5.1zm-52.4 0h-26.2c-2.8 0-5.1-2.3-5.1-5.1s2.3-5.1 5.1-5.1h26.1c2.8 0 5.1 2.3 5.1 5.1.1 2.8-2.2 5.1-5 5.1zm-52.3 0h-26.2c-2.8 0-5.1-2.3-5.1-5.1s2.3-5.1 5.1-5.1h26.2c2.8 0 5.1 2.3 5.1 5.1s-2.3 5.1-5.1 5.1zm-52.4 0h-26.2c-2.8 0-5.1-2.3-5.1-5.1s2.3-5.1 5.1-5.1h26.2c2.8 0 5.1 2.3 5.1 5.1.1 2.8-2.2 5.1-5.1 5.1zm-52.3 0h-26.2c-2.8 0-5.1-2.3-5.1-5.1s2.3-5.1 5.1-5.1h26.1c2.8 0 5.1 2.3 5.1 5.1s-2.3 5.1-5 5.1zm-52.4 0h-26.2c-2.8 0-5.1-2.3-5.1-5.1s2.3-5.1 5.1-5.1h26.2c2.8 0 5.1 2.3 5.1 5.1.1 2.8-2.2 5.1-5.1 5.1zm-52.2 0h-26.2c-2.8 0-5.1-2.3-5.1-5.1s2.3-5.1 5.1-5.1h26.2c2.8 0 5.1 2.3 5.1 5.1s-2.3 5.1-5.1 5.1zm-52.4 0h-26.1c-2.8 0-5.1-2.3-5.1-5.1s2.3-5.1 5.1-5.1h26.2c2.8 0 5.1 2.3 5.1 5.1-.1 2.8-2.4 5.1-5.2 5.1zm-52.4 0h-26.2c-2.8 0-5.1-2.3-5.1-5.1s2.3-5.1 5.1-5.1h26.2c2.8 0 5.1 2.3 5.1 5.1.1 2.8-2.2 5.1-5.1 5.1zm-52.3 0h-26.2c-2.8 0-5.1-2.3-5.1-5.1s2.3-5.1 5.1-5.1h26.2c2.8 0 5.1 2.3 5.1 5.1.1 2.8-2.2 5.1-5.1 5.1zm-52.3 0h-26.2c-2.8 0-5.1-2.3-5.1-5.1s2.3-5.1 5.1-5.1h26.2c2.8 0 5.1 2.3 5.1 5.1s-2.3 5.1-5.1 5.1zm-52.4 0h-26.2c-2.8 0-5.1-2.3-5.1-5.1s2.3-5.1 5.1-5.1h26.2c2.8 0 5.1 2.3 5.1 5.1s-2.3 5.1-5.1 5.1z" fill="#dcdcde"/><path d="m825.4 659s-3.7 79.4-15.7 128l-70.1.9s-5.7-3.6 1.8-7.4c7.8-3.9 28.8-8.1 31.2-12.9 4.6-9.2 2.8-103.5 2.8-103.5m77.3-2.6s3.7 74.2 15.7 122.9l61.3.9s5.7-3.6-1.8-7.4c-7.8-3.9-28.8-8.1-31.2-12.9-4.6-9.2 9-108.8 9-108.8" fill="#a7aaad"/><path d="m697.3 286.4s1.6 1.4 2.2-4c-2.4.7-4.8 1.2-7.2 1.6 1.1 2.1 2.6 3.2 5 2.4z" fill="none"/><path d="m697.3 286.4c-2.4.8-3.9-.3-5-2.4-4.1.7-8.4 1.1-12.6 1.1-1.5 0-3-.1-4.5-.2.5 8.4 4.9 17 16.3 22.9l8.4 4.5 14-8.6c1.5-11.7-1-20-3.6-25.3-3.5 1.5-7.1 2.8-10.7 3.8-.7 5.6-2.3 4.2-2.3 4.2z" fill="#a7aaad"/><path d="m692.3 284c-3.3-6.4-1.8-22.5-4.2-23.5-4.5-1.8-13.8 10.8-12.9 24.4 1.5.1 3 .2 4.5.2 4.2 0 8.4-.4 12.6-1.1z" fill="#a7aaad"/><path d="m882 549.7c-1.5 0-2.5-1.2-2.5-2.6 0-1.3 1-2.3 2.2-2.5l28.4-3.1c1.4-.2 2.8.7 3 2.1s-.7 2.8-2.1 3h-.3l-28.4 3.1z" fill="#3895ba"/><path d="m901.7 565c-4.9.1-9.7-1.7-13.2-5.1-3.1-2.9-4.8-7.1-4.6-11.4 0-1.4 1.2-2.5 2.5-2.5h.2c1.4.1 2.5 1.3 2.5 2.7-.1 2.8 1 5.4 3.1 7.4 3 2.8 7 4.1 11 3.6l5-1.4c1.4-.4 2.8.5 3.1 1.8s-.5 2.8-1.8 3.1l-5.4 1.5c-.9.2-1.6.3-2.4.3z" fill="#3895ba"/><path d="m760 395.2c-1.5 0-2.6-1.2-2.6-2.6 0-1 .6-1.9 1.5-2.4l22.2-10c1.2-.7 2.8-.2 3.5 1.1.7 1.2.2 2.8-1.1 3.5-.1.1-.2.1-.2.2l-22.2 10c-.4.1-.7.2-1.1.2z" fill="#004e6e"/><path d="m787.8 242.7c.2 3.1 1 5.4 2.1 6 .7.5 1.8-.1 2.7-.6-.2-1.3-.2-2.6-.2-3.9zm2.9-8.7c-1.1.9-1.8 2.1-2.3 3.4l4 1.4c.2-1.7.3-3.3.6-4.9-.3-.2-.5-.3-.8-.5-.5 0-1.1.3-1.5.6z" fill="none"/><path d="m813.8 269.1c-4.8-2.8-7.8-7.8-7.8-13.2l.8-7-9.3-3.1c.2 2.4.5 4.8.9 7.1 2.5 12.1 5.5 21.6 19 23.7 1.2.2 2 1.1 2.1 2.2l1.7 14.1c.2 1.4-.8 2.7-2.2 2.8h-.3c-.6 0-1.2-.2-1.6-.6v6.5l32.2 1.7v-28.8c-1.4.7-2.8 1.2-4.4 1.6-13.6 3.4-24.1-3.1-31.1-7zm27.6-20-8.2-22.3s-11-6.1-21.3-5.5c5.3 12.4 16.1 24.4 29.5 27.8zm-42.7-17.9c-.8 3-1.2 6.1-1.3 9.2l9.9 3.3 1.2-11.1s-6 .8-9.8-1.4z" fill="#a7aaad"/><path d="m860.9 247.5c-6.1 2.6-13 3.1-19.5 1.5-13.4-3.4-24.2-15.4-29.5-27.7-2.9-6.9-4.1-14-3.1-19.6-5.1 4-9.5 10.5-12.7 20.3-.2.7-.4 1.4-.5 2.1-.5 1.4-1 2.8-1.5 4.3-1-.4-2.1-.5-3.1-.2-3.5.8-7.5 4.3-8.3 10.5-.6 5 .2 11.7 4.3 14.3 1 .6 2.1.9 3.3.9 1 0 1.9-.2 2.8-.5.1.2.1.5.2.6 2.6 12.6 6.3 24.1 21.2 27.4l1.5 12.3c.2 1.3 1.2 2.3 2.5 2.3h.3c1.4-.2 2.5-1.5 2.2-2.8l-1.7-14.1c-.2-1.2-1-2.1-2.1-2.2-13.4-2.1-16.4-11.7-19-23.7-.5-2.3-.8-4.7-.9-7.1l9.3 3.1-.8 7c.1 5.4 3.1 10.5 7.8 13.2 7 3.9 17.5 10.4 30.9 7.2 1.5-.4 3-.9 4.4-1.6 9.1-4.7 14.3-16.5 15.9-29.3-1.1.6-2.5 1.3-3.9 1.8zm-71.1 1.1c-1-.6-1.9-2.9-2.1-6l4.5 1.5c0 1.3.1 2.6.2 3.9-.8.6-1.9 1.1-2.6.6zm2.6-9.9-4-1.4c.5-1.3 1.2-2.5 2.3-3.4.5-.4 1-.6 1.5-.8.2.2.5.4.8.5-.3 1.8-.5 3.5-.6 5.1zm14.8 5-9.9-3.3c.2-3.1.5-6.2 1.3-9.2 3.8 2.1 9.8 1.4 9.8 1.4z" fill="#004e6e"/><path d="m816.7 191.1c-4.5 2-7.1 5.8-7.9 10.7-3.7 20.3 21.6 58.3 52.1 45.7 1.4-.5 2.8-1.2 4-2 30.2-17.9-11.6-70.4-48.2-54.4z" fill="#c3c4c7"/><path d="m393.8 536.1h115c3.6 0 6.5-2.9 6.5-6.5v-.3l-3.3-76.5c-.1-2.6-2.3-4.8-4.9-4.8h-114.8l1.5 78.1" fill="#8e9196" opacity=".26"/><path d="m515.6 577.5c-2.1-12.3-3.1-24.5-4.1-36.8l-.6-9.3-.3-4.6-.1-1.2v-1.5c.1-1.3.6-2.6 1.5-3.7 1.5-1.8 3.8-2.8 6.1-2.9l4.7-.1 9.3-.1 9.3.1 4.7.1c2.4.1 4.6 1.1 6.1 2.9.8 1 1.4 2.3 1.5 3.6l.1 2.4.2 4.6.4 9.3c.5 12.4.8 24.6.6 37 0 .5-.5 1-1.1 1-.5 0-.9-.4-1-.8-1.6-12.3-2.6-24.6-3.6-36.8l-.7-9.2-.3-4.6-.2-2.2c0-.2-.2-.5-.3-.6-.5-.5-1.3-.8-2.1-.8l-4.5.1-9.3.1-9.3-.1h-4.5c-.8 0-1.5.3-2.1.8-.2.2-.2.4-.3.5v.8l.1 1.2.2 4.6.5 9.3c.3 12.4.8 24.6 0 37.1 0 .3-.3.5-.5.5-.2-.3-.3-.5-.4-.7z" fill="#c3c4c7"/><path d="m544.2 563.2-1.9-34h-20.1l1.9 33.9z" fill="#f6f7f7"/><path d="m483.7 596.8h27.8" fill="none"/><path d="m483.7 596.2c2.1-1.2 4.5-1.9 7-2.1 2.3-.2 4.6-.3 7-.3 2.3.1 4.6.2 7 .4s4.7.7 7 1.5c.5.2.8.8.6 1.5-.1.3-.3.5-.6.6-2.2.8-4.6 1.3-7 1.5-2.3.2-4.6.3-7 .4-2.3 0-4.6-.1-7-.3-2.5-.2-4.8-.8-7-2.1-.3-.2-.4-.5-.2-.8 0 0 .1-.2.2-.3zm24.2-22.8c-13.2-.9-26.3-1.2-39.6-1.5l-19.7-.2-9.9-.1-5-.1c-1.4 0-2.7-.2-4-.7-5.3-1.8-8.9-6.8-8.8-12.4l-.2-13.4c-1.8-.1-3.5-.2-5.3-.2l-.2 13.6c-.2 8.1 4.9 15.3 12.5 17.9 1.8.6 3.8.8 5.8.9l5-.1 9.9-.1 19.7-.2c13.2-.2 26.3-.5 39.6-1.5.5-.1 1-.5.9-1.2.2-.2-.2-.6-.7-.7z" fill="#f6f7f7"/><path d="m488.8 573.4c-6.6-.9-11.7-5.8-12.7-11.7-.4-2.6-.1-6.6-.1-10l.2-7.5h-5.8l.2 7.5c.2 3.6-.2 6.8.6 11.1 1 4 3.3 7.4 6.6 9.8 3.1 2.3 7.1 3.3 11 2.9.5-.1.8-.5.9-.9.1-.5-.3-1.1-.9-1.2z" fill="#f6f7f7"/><path d="m513.8 542.8c-1.4.4-2.8.5-4.3.5h-4.1c-21.6.1-43.3.3-64.9.5-23.3.4-46.7.8-70 1.6-.3 0-.5.2-.5.5s.2.5.5.5c23.3.8 46.7 1.2 70 1.6 23.3.2 46.7.5 70 .5h.1c.2 0 .3 0 .5-.1.8-.1 1.7-.2 2.6-.3z" fill="#c3c4c7"/><path d="m527.7 514.3-1.8-46.9-.5-11.7c-.1-2.1-.1-3.7-.3-6.1-1-7.3-6.7-13-14-14.2-1.5-.2-3.1-.3-4.7-.2-.2 0-.4-.1-.5-.1l-121.7.5-7.6.1c-3.1-.2-6.2.9-8.6 3s-3.9 5-4.1 8.2c-.1 3 .1 5.2.2 7.8l.8 30.4c.5 20.3 1.2 40.6 1.9 60.8 0 .5.5 1 1 1s1-.5 1-1c.1-20.3.1-40.6-.2-60.9l-.2-30.4c0-2.5-.1-5.3 0-7.4.2-2 1.2-3.8 2.7-5 1.5-1.3 3.5-1.9 5.5-1.7h3l1.2 42.1c.4 14.9 1.1 29.6 1.7 44.5 0 .5.5 1 1.1 1 .5 0 1-.5 1-1.1 0-14.9.1-29.7-.2-44.5l-.5-42h.2l119 .4.1-.1h1.6c1.8-.1 3.6 0 5.4.2 3.1.5 5.8 2.3 7.5 5 .8 1.3 1.3 2.8 1.5 4.3.2 1.4.2 3.8.3 5.6l.5 11.7 1.1 23.4 1.1 23.4.2 4.7c1.8-.1 3.6-.1 5.4.2z" fill="#c3c4c7"/><path d="m515.6 577.5c-2.1-12.3-3.1-24.5-4.1-36.8l-.6-9.3-.3-4.6-.1-1.2v-1.5c.1-1.3.6-2.6 1.5-3.7 1.5-1.8 3.8-2.8 6.1-2.9l4.7-.1 9.3-.1 9.3.1 4.7.1c2.4.1 4.6 1.1 6.1 2.9.8 1 1.4 2.3 1.5 3.6l.1 2.4.2 4.6.4 9.3c.5 12.4.8 24.6.6 37 0 .5-.5 1-1.1 1-.5 0-.9-.4-1-.8-1.6-12.3-2.6-24.6-3.6-36.8l-.7-9.2-.3-4.6-.2-2.2c0-.2-.2-.5-.3-.6-.5-.5-1.3-.8-2.1-.8l-4.5.1-9.3.1-9.3-.1h-4.5c-.8 0-1.5.3-2.1.8-.2.2-.2.4-.3.5v.8l.1 1.2.2 4.6.5 9.3c.3 12.4.8 24.6 0 37.1 0 .3-.3.5-.5.5-.2-.3-.3-.5-.4-.7z" fill="#c3c4c7"/><path d="m544.2 563.2-1.9-34h-20.1l1.9 33.9z" fill="#f6f7f7"/><path d="m483.7 596.8h27.8" fill="none"/><path d="m483.7 596.2c2.1-1.2 4.5-1.9 7-2.1 2.3-.2 4.6-.3 7-.3 2.3.1 4.6.2 7 .4s4.7.7 7 1.5c.5.2.8.8.6 1.5-.1.3-.3.5-.6.6-2.2.8-4.6 1.3-7 1.5-2.3.2-4.6.3-7 .4-2.3 0-4.6-.1-7-.3-2.5-.2-4.8-.8-7-2.1-.3-.2-.4-.5-.2-.8 0 0 .1-.2.2-.3zm-299.9 197.9c99.4-2.8 198.9-3.5 298.3-4.1l298.3-.7c198.9.6 397.9.3 596.7 3.8 1.2.1 2 1.1 1.9 2.1-.1 1.1-.9 1.8-1.9 1.9-198.9 3.5-397.9 3.1-596.7 3.8l-298.2-.7c-99.4-.7-198.9-1.3-298.3-4.1-.5 0-1-.5-1-1-.1-.5.4-1 .9-1z" fill="#f6f7f7"/><path d="m776.3 761.7c-1.5 0-2.6-1.2-2.6-2.6 0-.2 0-.5.1-.8 3.8-12.3 2.1-37.2.5-61.2-.8-11.9-1.5-23-1.6-32.8 0-1.5 1.2-2.6 2.5-2.6s2.5 1.2 2.6 2.5c.1 9.6.8 20.7 1.6 32.5 1.6 24.6 3.2 50-.8 63.1-.1 1.1-1.1 1.9-2.3 1.9zm92 25.2c-1.3 0-2.4-.9-2.5-2.2-.1-.6-9.3-62.2-15.7-123-.2-1.4.7-2.8 2.1-3s2.8.7 3 2.1v.3c6.3 60.6 15.5 122.1 15.6 122.7.2 1.4-.8 2.7-2.1 2.9-.1.2-.3.2-.4.2z" fill="#004e6e"/><path d="m1154.8 113.1v-5.3c0-2.8 2.3-5.1 5.1-5.1s5.1 2.3 5.1 5.1v5.7" fill="#dcdcde"/><path d="m980.5 224.2v-1.3c-2.1 1.6-4.4 2.8-6.8 3.5 0 0 5.8-20.9-.3-22.3s-29.4 39.9-29.4 39.9l8.4 20.2s9.1-8.1 38.2-23c6.6-6.2 10.5-12 12.5-16.9h-22.6z" fill="#a7aaad"/><path d="m968 255c-1.5-.1-2.5-1.3-2.5-2.7.1-1.3 1.2-2.4 2.5-2.5 2.9-.1 22.9-10.6 32.8-29.2.6-1.3 2.1-1.8 3.5-1.2 1.3.6 1.8 2.1 1.2 3.5 0 .1-.1.2-.1.2-10.2 19.4-32.1 31.9-37.4 31.9zm-15.7-16.5c-1.5 0-2.6-1.2-2.5-2.6 0-.8.3-1.5.8-1.9 2.1-1.8 5.6-8.9 8.6-15 6.2-12.5 9.1-17.7 12.7-18.1 1.3-.2 2.6.4 3.4 1.4 3.5 4.1 2.7 14.2 1.7 20.2 2.1-.9 4.6-2.4 6-4.2.8-1.2 2.4-1.5 3.5-.8 1.2.8 1.5 2.4.8 3.5-.1.1-.1.2-.2.2-4 5.6-12.6 7.5-12.9 7.6-1.4.3-2.8-.6-3.1-2-.1-.4-.1-.8 0-1.1 1.3-5.9 2.2-15.3.8-19.1-2.1 2.5-5.7 9.6-8.1 14.6-3.6 7.2-7 14-9.8 16.7-.5.4-1.1.6-1.7.6z" fill="#004e6e"/><g fill="none"><path d="m695.2 284.6c.1.1.3.2 1.1 0 .5-.2.7-.7.8-1.5-.8.2-1.8.4-2.6.6.1.2.4.6.7.9zm-7.1-24.1c2.4 1 .9 17.1 4.2 23.5.7-.2 1.5-.2 2.1-.4-1.5-2.8-2-9.7-2.3-13.7-.5-6.5-.7-10.1-3.3-11.2-4.1-1.7-9.6 2.6-13.3 10.5-2.3 4.8-3.4 10.2-3.3 15.6.9.1 1.9.2 2.8.2-.7-13.7 8.5-26.4 13.1-24.5z"/><path d="m695.2 284.6c.1.1.3.2 1.1 0 .5-.2.7-.7.8-1.5-.8.2-1.8.4-2.6.6.1.2.4.6.7.9z"/><path d="m695.2 284.6c.1.1.3.2 1.1 0 .5-.2.7-.7.8-1.5-.8.2-1.8.4-2.6.6.1.2.4.6.7.9zm1.9-1.6 1.7-.5c-.6.2-1.1.4-1.7.5zm14.9-5.3-.8.4z"/></g><path d="m515.5 168.1h-25.3c-2.8 0-5.1 2.3-5.1 5.1s2.3 5.1 5.1 5.1h25.3c2.8 0 5.1-2.3 5.1-5.1.1-2.8-2.2-5.1-5.1-5.1zm50.5 0h-25.3c-2.8 0-5.1 2.3-5.1 5.1s2.3 5.1 5.1 5.1h25.3c2.8 0 5.1-2.3 5.1-5.1.1-2.8-2.2-5.1-5.1-5.1zm252.7 0h-25.3c-2.8 0-5.1 2.3-5.1 5.1s2.3 5.1 5.1 5.1h25.3c2.8 0 5.1-2.3 5.1-5.1s-2.3-5.1-5.1-5.1zm75.7 0c-2.8 0-5.1 2.3-5.1 5.1s2.3 5.1 5.1 5.1h6.1v-10.3h-6.1zm-25.2-4.3h-25.3c-2.8 0-5.1 2.3-5.1 5.1s2.3 5.1 5.1 5.1h25.3c2.8 0 5.1-2.3 5.1-5.1s-2.3-5.1-5.1-5.1zm-252.7 4.3h-25.3c-2.8 0-5.1 2.3-5.1 5.1s2.3 5.1 5.1 5.1h21c1.7-3.5 3.6-6.9 5.8-10.1-.4-.1-.9-.1-1.5-.1zm151.6 0h-25.3c-.5 0-1.1.1-1.6.2 2.2 3.2 4.1 6.6 5.8 10.1h21c2.8 0 5.1-2.3 5.1-5.1a5 5 0 0 0 -5-5.2z" fill="#dcdcde"/><path d="m695.2 284.6c.1.1.3.2 1.1 0 .5-.2.7-.7.8-1.5-.8.2-1.8.4-2.6.6.1.2.4.6.7.9z" fill="none"/><path d="m698.8 282.6-1.7.5c-.2.8-.4 1.4-.8 1.5-.7.2-.9.1-1.1 0-.3-.2-.6-.5-.8-.9-1.5-2.8-2-9.7-2.3-13.7-.5-6.5-.7-10.1-3.3-11.2-4.1-1.7-9.6 2.6-13.3 10.5-2.3 4.8-3.4 10.2-3.3 15.6.3 9.6 5.1 19.5 17.9 26.1.4.2.8.3 1.2.3 1.5 0 2.6-1.2 2.5-2.6 0-.9-.5-1.8-1.4-2.2-18.3-9.6-15.7-25.1-13.7-31.4 2.2-6.9 5.9-10.6 7.5-11.3.3 2.2.5 4.5.7 6.7.5 7.4 1.1 15.7 5.3 18.6 1.6 1.1 3.7 1.3 5.5.6 3.8-1.2 4.5-4.1 4.5-7.8-.5.2-1.2.4-2 .6l-.8.2z" fill="#004e6e"/><path d="m699.5 282.4.8-.2-1.5.4zm10.7-3.9-.5.2c-.9.5-2 .8-2.5 1.1 2.5 5.8 3.7 12.1 3.5 18.4 0 1.5 1.2 2.6 2.5 2.6s2.5-1.2 2.6-2.5c.1-7.1-1.2-14-4-20.5l-.8.4z" fill="#004e6e"/><path d="m711.1 278.1-1.3.6.5-.2z" fill="#004e6e"/><path d="m788.1 667c-8.7 0-16.7-1.1-20.8-4.3-2.1-1.5-3.5-3.9-3.6-6.6-.2-2.3-.5-5.7-.8-9.9-2.3-26.1-7.7-87.3 3.4-157 .2-1.4 1.6-2.3 3-2.1 1.3.2 2.2 1.5 2.1 2.8-10.9 68.9-5.5 129.7-3.2 155.6.4 4.4.7 7.8.8 10.1.1 1.2.7 2.1 1.6 2.8 8.9 6.8 44.4 1.2 57.3-1.5 1.4-.2 2.8.7 3 2.1.2 1.3-.6 2.6-1.9 2.9-3.6 1-24 5.1-40.9 5.1zm73.6-3.8c-9.5 0-17.6-.8-21.1-3.2-8-5.3-6.4-77.7-5.4-108.6 0-1.4 1-2.5 2.4-2.5h.3c1.5.1 2.5 1.2 2.5 2.7-1.6 47.7-.8 99.7 3.2 104.3 7.1 4.7 44.6 1.4 68.1-2l-4.5-78.4c-.1-1.4 1-2.6 2.5-2.7 1.4-.2 2.5.8 2.7 2.1v.2l4.6 80.7c.1 1.3-.8 2.5-2.2 2.7-4.5.7-32.3 4.7-53.1 4.7zm44.4-127.5c-1.3 0-2.5-1-2.5-2.4l-5.5-67.8c-.1-1.4.9-2.7 2.4-2.8s2.7.9 2.8 2.4l5.5 67.8c.1 1.4-.9 2.7-2.4 2.8z" fill="#3895ba"/><path d="m974.9 259-24.7-25.6c-12.1 24.2-48 60.2-75.1 66.9-.6-.2-1.2-.5-1.9-.8-8.7-3.2-58.6-6.6-70.5-1.5-7.7 3.2-13 5.8-16.5 9.1-23.5 18.5-38.3 34.4-38.3 34.4l-28.8-44.9-25.6 18.3s22 80.7 55.9 78.8c11.1-.7 22-3.6 32-8.7l2.8 81 113.7-2-2.8-116c42.2-21.4 79.8-89 79.8-89z" fill="#c3c4c7"/><path d="m778.9 469.1c-1.5-.1-2.5-1.3-2.5-2.7.1-1.3 1.2-2.4 2.5-2.5l121.6-1.2c1.4-.1 2.5 1 2.6 2.4v.2c0 1.5-1.2 2.6-2.5 2.6zm-18.9-73.9c-1.5 0-2.6-1.2-2.6-2.6 0-1 .6-1.9 1.5-2.4l22.2-10c1.2-.7 2.8-.2 3.5 1.1.7 1.2.2 2.8-1.1 3.5-.1.1-.2.1-.2.2l-22.2 10c-.4.1-.7.2-1.1.2z" fill="#004e6e"/><path d="m647.6 618h-.4l-73.9 1.2-74.6.8-150 .6c-1.6 0-2.8-1.2-2.8-2.8l-.1-41.9c0-1.6 1.3-2.9 2.9-2.9l149 .3 149 1.1c.8 0 1.5.7 1.5 1.5zm-1.4-.7v-.3l-.8-41.2 1.5 1.5-149 1.2-149 .3 2.9-2.9-.1 41.9-2.8-2.8 148.1.6 74.4.8z" fill="#c3c4c7"/><path d="m348.7 602.3v182.9" fill="none"/><path d="m349.2 602.3c1.4 15.3 1.7 30.5 2.1 45.7l.3 45.7c-.3 30.5-.2 60.9-1.9 91.5-.1.5-.5 1-1.2.9-.5-.1-.9-.5-.9-.9-1.8-30.5-1.6-60.9-1.8-91.5l.3-45.7c.4-15.3.6-30.5 2.1-45.7 0-.3.2-.5.5-.5s.5.2.5.5z" fill="#c3c4c7"/><path d="m646.8 617.7v167.5" fill="none"/><path d="m647.4 617.7c1.5 14 1.7 27.9 2.1 41.9l.3 41.9c-.3 27.9-.2 55.9-1.8 83.7-.1.5-.5 1-1.2.9-.5-.1-.9-.5-.9-.9-1.8-27.9-1.6-55.9-1.9-83.7l.3-41.9c.4-14 .7-27.9 2.1-41.9 0-.3.2-.5.5-.5s.5.2.5.5z" fill="#c3c4c7"/><path d="m0 0h1562v860h-1562z" fill="none"/></svg>
