<svg xmlns="http://www.w3.org/2000/svg" viewBox="0 0 1600 1168"><defs><style>.cls-1{fill:#6F93AD}.cls-2{fill:#CCCED0}.cls-3{fill:#46799A}.cls-4{fill:#969CA1}.cls-5{fill:#fff}.cls-6{fill:#204A69}.cls-7{fill:none}</style></defs><title>custom-domain</title><g id="custom-domain"><path class="cls-1" d="M845.17 216a8.7 8.7 0 0 0-9.58 7.73l-31.45 296.49 236.49.68H1051v10.31l-.19 67.45L1465 642.57a8.7 8.7 0 0 0 9.58-7.74l36.92-348.25z"/><path class="cls-2" d="M1116.15 644c-8.51 51.25-16.08 102.65-24.17 154s-15.3 102.77-22.87 154.16l-10.68 77.2-9.94 77.31a6.71 6.71 0 0 0 13.25 2l13.4-76.79 12.68-76.89c8-51.32 16.25-102.61 23.84-154s15.47-102.74 22.53-154.21q2.77-19.31 5.45-38.61l-17.38-1.85q-3.07 18.8-6.11 37.68zM432.72 484.79q3.64 27.94 7.4 55.88 9.12.06 18.23.25Q454 512 449.53 483M525.89 1019.45L513.62 926l-3.54-25.33c-6.47-.1-10.4-.17-16.84-.37l1.65 28.36 14.28 93.11 15 93a6.7 6.7 0 0 0 13.27-1.85z"/><path class="cls-3" d="M70.26 162.33l666.38-70.39 36.79 348.26a8.71 8.71 0 0 1-7.75 9.57L99.3 520.17 62.51 171.9a8.7 8.7 0 0 1 7.74-9.57z"/><path class="cls-2" d="M691.29 943.45c-.2 28.41.28 56.82.49 85.22.63 28.4 1.24 56.81 2.78 85.22a6.71 6.71 0 0 0 13.41 0c1.52-28.41 2.12-56.82 2.77-85.22.22-28.4.7-56.81.49-85.22-.16-15.08-.18-30.16-.28-45.25l-19.34.45c-.13 14.94-.15 29.87-.32 44.8z"/><path class="cls-3" d="M1040.64 520.9l-498.52-1.43h-85.7l-8.73.46a109.72 109.72 0 0 0-33.78 8.57 105.47 105.47 0 0 0-61.81 79.35 113.47 113.47 0 0 0-1.55 17.35v15.64l.71 249.27v10.58h10.53l131.37-.34c43.8 0 87.6-.41 131.37-.92l65.69-.73 65.69-1.51q65.69-1.4 131.37-4.51v-5q-65.68-3.07-131.37-4.51l-65.69-1.51-65.69-.73c-43.79-.54-87.59-1-131.37-.92l-120.81-.32.65-238.75.07-15.51a92 92 0 0 1 1.32-13.65 85.81 85.81 0 0 1 9-25.72 84.73 84.73 0 0 1 39.78-36.17 86.42 86.42 0 0 1 26.37-6.53l6.83-.33h85.68l488.2-1.4.27 92.85 1.22 103.22c.18 17.21.37 34.41.93 51.61a116.67 116.67 0 0 1-1.2 24.2 90.19 90.19 0 0 1-39 58.73c-13.52 9.25-29.85 14.18-46.55 15.41v5c35.42 2.07 72.17-17.84 89.75-50.46a107 107 0 0 0 10-25.75 133.25 133.25 0 0 0 2.86-27.16c.54-17.2.75-34.4.92-51.61l1.22-103.22.3-103.22v-10.3z"/><path class="cls-2" d="M262.69 1113.81a133.88 133.88 0 0 0-14.44-44.52c-7.35-13.87-17-26.69-26.83-40.2l-.06-.09a6.79 6.79 0 0 1 9.33-9.58 110.4 110.4 0 0 1 35.31 40.71c8.4 16.34 12.74 35.56 10.08 53.87a6.76 6.76 0 0 1-13.38 0zM334.81 1071.33c-1.72-14.28-5.8-28.09-10.39-41.55a231.15 231.15 0 0 0-17.84-38.56 251.12 251.12 0 0 0-21.28-31.05 39 39 0 0 0-27.91-66.54 40 40 0 0 0-28.09 11.92 38.56 38.56 0 0 0 .4 54.53l.63.61a36.75 36.75 0 0 0 27.06 9.7 34.87 34.87 0 0 0 15.9-2.47c5.72 10.74 11.46 21.33 16.59 32.18 5.87 12 11.1 24.19 15.85 36.51a281.13 281.13 0 0 1 11.1 37.82 231.27 231.27 0 0 1 4.81 39.06v.09a6.73 6.73 0 0 0 13.38.71 153.79 153.79 0 0 0-.21-42.96zm-98.35-137.7a22.23 22.23 0 0 1 6.47-14.41 20.33 20.33 0 0 1 14.41-5.69c10.64 0 20.35 9.1 20.58 20.1.93 10.92-8.21 22-20.58 23.34-12.43-1-21.68-12.27-20.87-23.33z"/><path class="cls-4" d="M171.92 1107.19q145.32-1.61 290.64-2.42l290.64-.83 290.64.49 145.31 1 145.31 1.75a6.7 6.7 0 1 1 0 13.4l-145.31 1.75-145.31 1-290.64.49-290.64-.82q-145.32-.6-290.64-2.42a6.7 6.7 0 0 1 0-13.4z"/><path class="cls-5" d="M983.76 443.85c.41-3.76 1.71-6.49 3.93-8.21s5.25-2.36 9.1-1.95 6.48 1.69 8.33 3.87 2.57 5.11 2.15 8.78a11.3 11.3 0 0 1-4 8q-3.42 2.73-8.92 2.15-5.65-.61-8.41-3.92t-2.18-8.72zM1124.52 468.49l-26.45-2.78-34.82-78.78-.61-.06q-.81 19.8-1.7 28.2l-4.89 46.18-18.6-2 10.41-98.17 26.25 2.78 34.83 78h.47q1-19.23 1.85-27.16l4.92-46.45 18.74 2zM1216.75 478.27l-56.53-6 10.41-98.14 56.53 6-1.85 17.05-35.72-3.79-2.28 21.55 33.23 3.52-1.85 17.05-33.23-3.51-2.68 25.31 35.71 3.79zM1286.08 485.61l-20.81-2.2 8.57-80.82-26.65-2.82 1.85-17.32 74.11 7.85-1.85 17.32-26.65-2.82zM239.13 357.13q-.58-5.64 2.12-8.84t8.49-3.81c3.7-.4 6.68.29 8.94 2s3.58 4.47 3.95 8.14a11.27 11.27 0 0 1-2.2 8.68q-2.76 3.39-8.27 4t-9-2.06q-3.43-2.65-4.03-8.11zM375.36 302.68q2.58 24.38-8.12 38.74T334 358.17q-22.56 2.38-36-9.43t-16-36.32q-2.6-24.5 8.16-38.71t33.38-16.59q22.62-2.4 36 9.36t15.82 36.2zm-71.61 7.55q1.74 16.45 8.87 24.11t19.54 6.35q24.9-2.62 21.41-35.72t-28.28-30.53q-12.42 1.31-17.84 10.33t-3.7 25.46zM428.75 308.71l4 37.67-20.82 2.2-10.37-98.15 28.6-3q20-2.11 30.37 4.16t11.94 21.1a26.17 26.17 0 0 1-3.14 15.91 31.67 31.67 0 0 1-12.38 12l33.39 39.72-23.13 2.44-27.43-35.16zM427 291.79l6.71-.71q9.87-1.05 14.22-4.83t3.61-10.83q-.74-7-5.85-9.43t-15.18-1.38l-6.31.67zM545.12 278.77l38.94-4.11 5.37 50.88a111.13 111.13 0 0 1-17.36 6.22 116.14 116.14 0 0 1-17 3q-22.2 2.35-35.31-9.47t-15.68-36.26q-2.52-23.76 9.67-38.49t36.3-17.29a73.33 73.33 0 0 1 29.73 2.93l-5.15 17.38a49.77 49.77 0 0 0-22.93-3Q538.26 252 531.08 262t-5.55 25.22q1.69 16 9.13 23.72t19.92 6.41a67.2 67.2 0 0 0 13.09-2.78l-2.17-20.47-18.6 2z"/><path class="cls-6" d="M499.21 755.55c0-3.79 1-6.64 3-8.58s5-2.91 8.84-2.91 6.63 1 8.68 3 3.07 4.82 3.07 8.51a11.25 11.25 0 0 1-3.11 8.4q-3.11 3.06-8.64 3.07t-8.78-3q-3.06-3.04-3.06-8.49zM592.77 682.5q-11.81 0-18.29 8.88T568 716.12q0 33 24.77 33 10.41 0 25.19-5.19v17.57a69.7 69.7 0 0 1-27.14 5.06q-21.54 0-32.94-13.06t-11.4-37.5q0-15.39 5.61-27a40.5 40.5 0 0 1 16.09-17.76q10.5-6.18 24.61-6.18a66.52 66.52 0 0 1 28.9 7l-6.76 17a111 111 0 0 0-11.1-4.62 33.36 33.36 0 0 0-11.06-1.94zM738.24 715.72q0 24.51-12.15 37.67t-34.83 13.16q-22.69 0-34.83-13.16t-12.15-37.8q0-24.65 12.18-37.64t34.94-13q22.74 0 34.8 13.1t12.04 37.67zm-72 0q0 16.54 6.29 24.9t18.73 8.38q25 0 25-33.31t-24.9-33.3q-12.49 0-18.84 8.4t-6.36 25zM811.54 765.2l-23.76-77.42h-.61q1.27 23.63 1.28 31.53v45.9h-18.69v-98.7h28.48L821.6 742h.4l24.78-75.47h28.48v98.67h-19.5v-46.71q0-3.3.1-7.63t.93-23h-.61l-25.45 77.34z"/></g><g id="clear_rectangle" data-name="clear rectangle"><path id="Layer_4" data-name="Layer 4" class="cls-7" d="M0 0h1600v1168H0z"/></g></svg>