<svg width="100" height="83" xmlns="http://www.w3.org/2000/svg" xmlns:xlink="http://www.w3.org/1999/xlink"><defs><path id="a" d="M0 83h100V0H0z"/></defs><g fill="none" fill-rule="evenodd"><path d="M12.336 45.375c-.446-7.442 8.17-16.867 4.936-18.274C14.038 25.695-.153 39.113 5.19 55" fill="#FFF"/><path d="M12.208 44.982c-.188-2.3.36-4.548 1.11-6.644.741-2.113 1.73-4.11 2.66-6.087.46-.987.913-1.979 1.235-2.949.16-.477.282-.974.265-1.345-.027-.376-.122-.442-.348-.511-.243-.057-.75.077-1.185.28-.451.207-.9.475-1.33.78-.863.609-1.664 1.334-2.41 2.108-2.967 3.125-5.14 7.002-6.23 11.124-1.105 4.12-1.042 8.529.275 12.62a.492.492 0 0 1-.34.62.524.524 0 0 1-.644-.32 23.232 23.232 0 0 1-.566-13.22 26.958 26.958 0 0 1 6.42-11.78c.794-.829 1.649-1.613 2.614-2.302.484-.344 1-.66 1.573-.927.584-.24 1.2-.522 2.096-.4.47.087.867.309 1.177.683.297.376.398.812.416 1.166.031.723-.14 1.302-.31 1.865-.368 1.11-.857 2.11-1.332 3.11-.96 1.99-1.941 3.935-2.742 5.932-.77 1.995-1.416 4.06-1.375 6.141v.008c.006.273-.22.5-.505.505a.51.51 0 0 1-.524-.457" fill="#204A69"/><path d="M22.212 66l-7.088-5.726L15 7.578V4.642C15 2.078 17.053 0 19.586 0h67.828C89.947 0 92 2.078 92 4.642V66H22.212z" fill="#CCCED0"/><path d="M15 12V4.646C15 2.08 17.053 0 19.585 0h67.83C89.948 0 92 2.08 92 4.646V12H15z" fill="#BBC9D5"/><path d="M92 66V54c0 6.628-5.065 12-11.312 12H15" fill="#74DCFC"/><path d="M96 12.212c-7.084.684-14.167.634-21.25.674L53.5 13l-21.25-.114c-7.083-.04-14.166.012-21.25-.674v-.424c7.084-.686 14.167-.634 21.25-.675L53.5 11l21.25.114c7.083.04 14.166-.01 21.25.674v.424z" fill="#004F84"/><mask id="b" fill="#fff"><use xlink:href="#a"/></mask><path fill="#FFF" mask="url(#b)" d="M24 57h33V36H24z"/><path d="M57 30H24v-2.347C24 22.874 27.813 19 32.517 19H57v11z" fill="#95ADC1" mask="url(#b)"/><path d="M51.871 41c-3.86 0-5.178 1.781-5.992 3.25-.77 1.387-2.478 3.286-5.129 3.98C38.1 48.926 37 50.512 37 52h15l-.129-11z" fill="#BBC9D5" mask="url(#b)"/><path d="M2.494 62C-.992 49.635 2.224 38.996 6 36" fill="#FFF" mask="url(#b)"/><path d="M.195 55.16c-.223-2.195-.244-4.416-.118-6.628a31.423 31.423 0 0 1 1.085-6.554c.651-2.102 1.446-4.262 3.087-5.854a.424.424 0 0 1 .638.043c.157.196.149.49-.015.673l-.021.024c-.629.705-1.097 1.623-1.498 2.557-.2.473-.387.952-.537 1.452-.176.487-.296 1-.43 1.506-.538 2.027-.815 4.142-.97 6.262-.161 2.124-.115 4.26.004 6.395.158 2.132.457 4.25.83 6.362l.003.012c.047.269-.113.529-.359.58-.231.05-.457-.107-.52-.35a44.135 44.135 0 0 1-1.179-6.48z" fill="#204A69" mask="url(#b)"/><path d="M13 43.984c.303 5.073 1.47 9.663 4.748 9.268 2.857-.345-.588-11.828 3.125-13.184C24.88 38.604 34.28 61.013 16.733 75L2.032 62 13 43.984z" fill="#FFF" mask="url(#b)"/><path d="M13.036 43.66c.103 1.34.264 2.674.54 3.972.284 1.282.672 2.583 1.38 3.57.35.492.79.858 1.28.995.247.07.51.087.787.057.14-.014.108-.019.16-.046a.57.57 0 0 0 .141-.176c.216-.393.304-1.07.342-1.7.038-.647.034-1.315.022-1.988-.025-1.348-.074-2.717-.016-4.116.033-.7.09-1.409.235-2.133.154-.717.363-1.483.947-2.192.297-.349.695-.653 1.202-.816.602-.192 1.208-.037 1.611.174.832.436 1.33 1.032 1.791 1.623.89 1.2 1.497 2.499 1.995 3.822.965 2.656 1.444 5.435 1.534 8.22.084 2.786-.232 5.59-1.021 8.277a25.835 25.835 0 0 1-3.606 7.576c-1.622 2.31-3.614 4.361-5.845 6.108a.535.535 0 0 1-.73-.069.486.486 0 0 1 .061-.693c4.221-3.494 7.359-8.14 8.735-13.28 1.383-5.115 1.215-10.668-.594-15.64-.456-1.231-1.025-2.439-1.777-3.46-.37-.497-.82-.969-1.243-1.181-.214-.112-.357-.115-.437-.088-.166.05-.357.175-.504.352-.313.358-.519.941-.643 1.546-.126.611-.186 1.261-.22 1.919-.067 1.318-.016 2.669-.022 4.04-.002.687-.008 1.379-.063 2.09-.076.713-.11 1.432-.552 2.255-.12.203-.289.421-.54.595-.234.176-.616.274-.83.28a3.43 3.43 0 0 1-1.317-.128c-.877-.265-1.53-.889-1.96-1.52-.864-1.295-1.187-2.696-1.456-4.063-.245-1.376-.363-2.753-.423-4.126a.506.506 0 0 1 .497-.519.513.513 0 0 1 .54.462" fill="#204A69" mask="url(#b)"/><path d="M86.31 32.043C82.78 31.493 80.46 36.37 88 40" fill="#FFF" mask="url(#b)"/><path d="M85.812 32.177c-.418.025-.828.035-1.16.229-.181.06-.313.192-.467.283-.11.142-.265.24-.332.408-.201.285-.248.644-.28.997.02.364.085.746.273 1.113.354.73.905 1.45 1.617 2.047.67.64 1.477 1.159 2.273 1.727l.034.024a.55.55 0 0 1 .129.765.544.544 0 0 1-.65.19 20.3 20.3 0 0 1-1.428-.645c-.443-.29-.922-.518-1.339-.872-.864-.633-1.643-1.498-2.12-2.59-.246-.538-.365-1.166-.362-1.801.044-.637.214-1.308.644-1.818.779-1.103 2.232-1.417 3.342-1.138a.548.548 0 0 1-.1 1.077l-.074.004z" fill="#C8D7E2" mask="url(#b)"/><path fill="#FFF" mask="url(#b)" d="M81.999 57L64 55.117 68.001 16 86 17.883zM97.015 51c3.966-9.118 2.003-15.183-6.015-22"/><path d="M96.837 50.26c.688-1.917 1.262-3.866 1.51-5.837.232-1.966.176-3.955-.428-5.812-.574-1.858-1.532-3.599-2.74-5.177-1.182-1.601-2.581-3.058-4.014-4.494l-.005-.005a.556.556 0 0 1-.008-.771c.19-.2.495-.218.705-.05 1.627 1.28 3.154 2.719 4.498 4.363 1.314 1.658 2.458 3.548 3.075 5.664.631 2.105.724 4.372.35 6.498-.352 2.136-1.072 4.155-1.967 6.052a.527.527 0 0 1-.71.255.55.55 0 0 1-.27-.677l.004-.009z" fill="#204A69" mask="url(#b)"/><path d="M74.15 79.16c-9.41-19.393-.503-40.95 4.05-40.462 4.554.487-.235 15.547 3.224 16.83 5.672 2.104 6.52-6.912 6.238-13.283-.282-6.37-6.31-19.695-2.48-21.187C89.013 19.565 99.124 47.276 96.6 57.15 94.078 67.025 86.343 83 86.343 83" fill="#FFF" mask="url(#b)"/><path d="M73.416 78.88c-3.224-6.343-4.668-13.547-4.38-20.657.138-3.557.715-7.1 1.744-10.52.521-1.71 1.155-3.39 1.974-5 .413-.804.865-1.593 1.404-2.343.54-.748 1.144-1.474 1.976-2.064.418-.285.912-.551 1.536-.614.319-.03.627.003.91.088.293.083.581.224.824.414.489.385.78.89.971 1.364.19.48.303.956.378 1.423.279 1.864.174 3.641.103 5.404-.08 1.757-.209 3.505-.144 5.19.037.828.127 1.682.398 2.3.136.31.302.485.47.547.314.11.717.226 1.06.25.715.075 1.363-.097 1.89-.55.538-.437.953-1.117 1.267-1.85.623-1.489.909-3.19 1.067-4.884.154-1.701.172-3.43.102-5.152-.057-1.656-.444-3.336-.854-5.018-.832-3.372-1.945-6.705-2.639-10.224-.166-.884-.307-1.781-.357-2.716-.027-.932-.057-1.93.485-2.997a2.472 2.472 0 0 1 1.45-1.207 1.845 1.845 0 0 1 1.12.053c.309.112.557.265.774.425.846.65 1.384 1.4 1.912 2.152 2.001 3.045 3.356 6.32 4.62 9.628a85.732 85.732 0 0 1 3.084 10.146c.795 3.45 1.43 6.959 1.439 10.571a18.13 18.13 0 0 1-.199 2.727c-.07.451-.17.928-.298 1.357l-.368 1.28a80.332 80.332 0 0 1-1.698 5.025c-2.497 6.598-5.445 12.973-8.57 19.272a.539.539 0 0 1-.968-.476l.004-.009c3.023-6.297 5.858-12.714 8.262-19.259a79.5 79.5 0 0 0 1.646-4.946c.228-.843.505-1.655.612-2.46.126-.819.17-1.665.172-2.515-.024-3.413-.654-6.856-1.45-10.226a84.452 84.452 0 0 0-3.079-9.954c-1.243-3.227-2.622-6.468-4.493-9.275-.47-.68-1-1.354-1.553-1.765-.274-.213-.528-.26-.537-.23a.901.901 0 0 0-.496.452c-.275.506-.327 1.344-.28 2.144.048.817.181 1.656.345 2.494.685 3.363 1.754 6.711 2.599 10.15.41 1.72.817 3.481.878 5.338.066 1.782.043 3.57-.126 5.36-.18 1.788-.469 3.595-1.205 5.346-.38.864-.884 1.745-1.708 2.42-.8.702-1.983 1.01-2.998.878-.528-.051-.973-.175-1.48-.36-.658-.264-1.062-.843-1.268-1.33-.418-1.004-.467-1.936-.517-2.85-.06-1.823.081-3.58.166-5.325.082-1.734.174-3.486-.065-5.098-.12-.786-.383-1.565-.801-1.883-.427-.32-.973-.29-1.59.154-.602.419-1.153 1.045-1.634 1.714a17.01 17.01 0 0 0-1.302 2.158c-.777 1.51-1.393 3.12-1.9 4.762-1.013 3.29-1.562 6.727-1.746 10.174-.358 6.897.963 13.906 4.026 20.113a.543.543 0 0 1-.244.725.541.541 0 0 1-.72-.24" fill="#204A69" mask="url(#b)"/></g></svg>