<svg width="752" height="394" viewBox="0 0 752 394" fill="none" xmlns="http://www.w3.org/2000/svg">
<g clip-path="url(#clip0)">
<path d="M146.7 32.1L135.8 32.3C132.1 32.4 128.5 32.4 124.8 32.5L102.8 32.7C102.4 32.7 102 32.4 101.9 32.1C101.4 30.2 101.2 28.3 101.4 26.3C101.6 24.3 102.6 22.3 104.4 21C105.3 20.4 106.2 20 107.2 19.7C108.1 19.5 109.1 19.3 110.2 19.3C110.7 19.3 111.3 19.4 111.8 19.6H111.9H111.8C111.7 19.6 111.7 19.6 111.6 19.6C111.5 19.6 111.3 19.7 111.2 19.9C111.1 20 111.1 20.1 111.1 20.2V20L111.2 19.6C111.4 18.6 111.7 17.6 112.1 16.7C112.6 15.8 113.2 15 114 14.3C114.8 13.6 115.8 13.2 116.7 12.9C118.6 12.4 120.6 12.4 122.5 12.8C124.4 13.2 126.2 14.2 127.6 15.5C128.3 16.1 129 16.8 129.6 17.6C130.2 18.3 130.8 19.1 131.3 20L129.8 19.9C130.4 19 131.1 18.5 132 18C132.8 17.5 133.8 17.2 134.8 17.1C136.7 16.9 138.5 17.2 140.2 18.1C141.9 18.9 143.2 20.3 144.1 21.8C145.1 23.3 145.7 25 146.1 26.7C146.1 26.8 146 27 145.9 27C145.8 27 145.6 27 145.6 26.8C145.1 25.2 144.3 23.7 143.3 22.3C142.3 21 141 19.9 139.6 19.2C138.1 18.6 136.5 18.4 134.9 18.6C133.4 18.8 132.1 19.8 131.2 20.9C130.9 21.3 130.4 21.4 130 21.1C129.9 21 129.8 20.9 129.7 20.8C128.3 17.8 125.4 15.2 122.1 14.6C120.5 14.3 118.7 14.3 117.1 14.8C115.5 15.3 114.3 16.3 113.6 17.8C113.2 18.5 113 19.3 112.9 20.1V20.4V20.6C112.9 20.8 112.8 21 112.7 21.2C112.5 21.5 112.1 21.7 111.8 21.8C111.6 21.8 111.4 21.8 111.3 21.8C111.2 21.8 111.1 21.8 111 21.7H110.9C110.6 21.6 110.3 21.5 109.9 21.5C109.1 21.5 108.3 21.6 107.5 21.8C106.7 22 106 22.3 105.3 22.7C104 23.6 103.3 25 103 26.7C102.8 28.3 102.9 30.1 103.3 31.7L102.4 31.1H124.5C128.2 31.1 131.9 31.2 135.5 31.2L141 31.3L143.8 31.4L145.2 31.5H145.9H146.3H146.5C146.6 31.5 146.7 31.5 146.8 31.5C147 31.5 147.1 31.7 147.1 31.9C147.1 32.1 146.9 32.2 146.7 32.2V32.1Z" fill="#bedae6"/>
<path d="M72.6001 322.1C71.8001 318.1 71.0001 314.1 70.1001 310.2C69.7001 308.2 69.2001 306.3 68.7001 304.3C68.4001 303.3 68.1001 302.4 67.8001 301.5C67.5001 300.6 67.0001 299.6 66.5001 299C66.3001 298.8 66.3001 298.4 66.5001 298.2C66.7001 298 67.0001 298 67.3001 298.2C69.0001 299.7 70.4001 301.5 71.6001 303.4C72.8001 305.3 73.9001 307.2 74.8001 309.3C75.7001 311.3 76.5001 313.4 77.1001 315.6C77.7001 317.7 78.1001 320 78.1001 322.2C78.1001 322.3 78.0001 322.4 77.9001 322.4C77.8001 322.4 77.7001 322.3 77.7001 322.2C77.6001 320 77.0001 317.9 76.4001 315.8C75.7001 313.7 74.9001 311.7 74.0001 309.7C73.1001 307.7 72.0001 305.8 70.8001 304C69.6001 302.2 68.3001 300.5 66.7001 299.1L67.5001 298.3C68.3001 299.2 68.7001 300.2 69.1001 301.2C69.5001 302.2 69.8001 303.2 70.0001 304.1C70.5001 306.1 71.0001 308.1 71.4001 310.1C71.8001 312.1 72.1001 314.1 72.4001 316.1C72.7001 318.1 72.9001 320.1 73.1001 322.2C73.1001 322.3 73.1001 322.3 73.0001 322.3C72.6001 322.2 72.6001 322.2 72.6001 322.1Z" fill="#bedae6"/>
<path d="M77.6002 321.8C77.5002 318.6 77.4002 315.4 77.1002 312.2C77.0002 310.6 76.8002 309 76.6002 307.5C76.5002 306.7 76.3002 306 76.1002 305.2C75.9002 304.5 75.5002 303.8 75.1002 303.3C74.9002 303.1 74.9002 302.7 75.1002 302.5C75.3002 302.3 75.6002 302.3 75.9002 302.5C77.3002 303.7 78.5002 305.2 79.5002 306.7C80.5002 308.2 81.3002 309.9 81.9002 311.6C82.5002 313.3 83.0002 315.1 83.3002 316.9C83.6002 318.7 83.7002 320.5 83.4002 322.3C83.4002 322.4 83.3002 322.5 83.2002 322.5C83.1002 322.5 83.0002 322.4 83.0002 322.3C83.1002 320.5 82.9002 318.8 82.5002 317.1C82.1002 315.4 81.6002 313.7 81.0002 312.1C79.7002 308.9 77.8002 305.7 75.2002 303.5L75.9002 302.7C76.6002 303.4 76.9002 304.3 77.2002 305.1C77.4002 305.9 77.6002 306.7 77.7002 307.5C78.0002 309.1 78.1002 310.7 78.2002 312.4C78.3002 314 78.3002 315.6 78.2002 317.3C78.1002 318.9 78.1002 320.5 77.9002 322.1C77.8002 321.9 77.8002 321.9 77.6002 321.8C77.6002 321.9 77.7002 321.9 77.6002 321.8Z" fill="#bedae6"/>
<path d="M103.8 322.1C104 319.4 104.4 316.7 104.9 314C105.2 312.7 105.5 311.3 105.8 310C106 309.3 106.2 308.7 106.4 308C106.7 307.3 106.9 306.7 107.5 306.1L108.1 306.7C107 307.6 106.2 308.8 105.4 310C104.6 311.2 103.9 312.5 103.3 313.8C102.7 315.1 102.1 316.5 101.7 317.9C101.3 319.3 100.9 320.7 100.8 322.2C100.8 322.3 100.7 322.3 100.6 322.3C100.5 322.3 100.5 322.2 100.5 322.2C100.5 320.7 100.7 319.2 101.1 317.8C101.5 316.4 102 315 102.6 313.6C103.2 312.2 103.9 310.9 104.7 309.7C105.5 308.4 106.4 307.2 107.6 306.2C107.8 306 108 306.1 108.2 306.2C108.3 306.4 108.3 306.6 108.2 306.8C107.8 307.2 107.6 307.8 107.3 308.4C107.1 309 106.9 309.7 106.7 310.3C106.3 311.6 106 312.9 105.7 314.2C105.1 316.8 104.6 319.5 104 322.2C103.9 322.2 103.9 322.2 103.8 322.1C103.8 322.2 103.8 322.2 103.8 322.1Z" fill="#bedae6"/>
<path d="M100.4 322C100.1 319.8 100.1 317.7 100.2 315.5C100.3 314.4 100.3 313.3 100.5 312.2C100.6 311.7 100.7 311.1 100.9 310.6C101.1 310.1 101.3 309.5 101.7 309L102.3 309.6C100.5 311.1 99.3 313.2 98.4 315.3C98 316.4 97.6 317.5 97.4 318.7C97.2 319.9 97 321 97.1 322.2C97.1 322.3 97 322.4 97 322.4C96.9 322.4 96.9 322.3 96.8 322.3C96.4 319.9 96.9 317.4 97.8 315.1C98.2 314 98.8 312.9 99.4 311.8C100.1 310.8 100.8 309.8 101.8 309C102 308.9 102.2 308.9 102.4 309.1C102.5 309.3 102.5 309.5 102.4 309.6C101.8 310.2 101.6 311.3 101.4 312.4C101.2 313.4 101.1 314.5 101 315.6C100.8 317.7 100.8 319.9 100.6 322C100.5 322 100.5 322 100.4 322Z" fill="#bedae6"/>
<path d="M692.9 323.1C692.1 319.1 691.3 315.1 690.4 311.2C690 309.2 689.5 307.3 689 305.3C688.7 304.3 688.4 303.4 688.1 302.5C687.8 301.6 687.3 300.6 686.8 300C686.6 299.8 686.6 299.4 686.8 299.2C687 299 687.3 299 687.6 299.2C689.3 300.7 690.7 302.5 691.9 304.4C693.1 306.3 694.2 308.2 695.1 310.3C696 312.3 696.8 314.4 697.4 316.6C698 318.7 698.4 321 698.4 323.2C698.4 323.3 698.3 323.4 698.2 323.4C698.1 323.4 698 323.3 698 323.2C697.9 321 697.3 318.9 696.7 316.8C696 314.7 695.2 312.7 694.3 310.7C693.4 308.7 692.3 306.8 691.1 305C689.9 303.2 688.6 301.5 687 300.1L687.8 299.3C688.6 300.2 689 301.2 689.4 302.2C689.8 303.2 690.1 304.2 690.3 305.1C690.8 307.1 691.3 309.1 691.7 311.1C692.1 313.1 692.4 315.1 692.7 317.1C693 319.1 693.2 321.1 693.4 323.2C693.4 323.3 693.4 323.3 693.3 323.3C692.9 323.2 692.9 323.2 692.9 323.1Z" fill="#bedae6"/>
<path d="M697.9 322.8C697.8 319.6 697.7 316.4 697.4 313.2C697.3 311.6 697.1 310 696.9 308.5C696.8 307.7 696.6 307 696.4 306.2C696.2 305.5 695.8 304.8 695.4 304.3C695.2 304.1 695.2 303.7 695.4 303.5C695.6 303.3 695.9 303.3 696.2 303.5C697.6 304.7 698.8 306.2 699.8 307.7C700.8 309.2 701.6 310.9 702.2 312.6C702.8 314.3 703.3 316.1 703.6 317.9C703.9 319.7 704 321.5 703.7 323.3C703.7 323.4 703.6 323.5 703.5 323.5C703.4 323.5 703.3 323.4 703.3 323.3C703.4 321.5 703.2 319.8 702.8 318.1C702.4 316.4 701.9 314.7 701.3 313.1C700 309.9 698.1 306.7 695.5 304.5L696.2 303.7C696.9 304.4 697.2 305.3 697.5 306.1C697.7 306.9 697.9 307.7 698 308.5C698.3 310.1 698.4 311.7 698.5 313.4C698.6 315 698.6 316.6 698.5 318.3C698.4 319.9 698.4 321.5 698.2 323.1C698.1 322.9 698.1 322.9 697.9 322.8C698 322.9 698 322.9 697.9 322.8Z" fill="#bedae6"/>
<path d="M301 335.8C302.105 335.8 303 334.905 303 333.8C303 332.695 302.105 331.8 301 331.8C299.895 331.8 299 332.695 299 333.8C299 334.905 299.895 335.8 301 335.8Z" fill="#fff"/>
<path d="M372.3 147.7C371.8 146.8 372 146 371.9 145.1V142.5C371.9 140.8 371.8 139.1 371.8 137.3C371.8 135.6 371.8 133.9 371.9 132.1C371.9 130.4 372 128.7 372.6 126.9C372.7 126.7 372.9 126.6 373 126.7C373.1 126.7 373.2 126.8 373.2 126.9C373.8 128.6 373.9 130.3 373.9 132.1C374 133.8 374 135.5 374 137.3C374 139 374 140.7 373.9 142.5V145.1C373.8 146 374 146.8 373.5 147.7C373.3 148.1 372.8 148.2 372.5 148C372.5 147.9 372.4 147.8 372.3 147.7Z" fill="#bedae6"/>
<path d="M181.1 228.8C182.5 228.5 183.9 228.5 185.3 228.5C186.7 228.5 188.1 228.6 189.5 228.8C189.6 228.8 189.7 228.9 189.6 229C189.6 229.1 189.5 229.1 189.5 229.1C188.1 229.3 186.7 229.4 185.3 229.4C183.9 229.4 182.5 229.4 181.1 229.1C181 229.1 181 229 181 228.9C181 228.8 181.1 228.8 181.1 228.8Z" fill="#bedae6"/>
<path d="M544.3 111.4C545.7 111.1 547.1 111.1 548.5 111.1C549.9 111.1 551.3 111.2 552.7 111.4C552.8 111.4 552.9 111.5 552.8 111.6C552.8 111.7 552.7 111.7 552.7 111.7C551.3 111.9 549.9 112 548.5 112C547.1 112 545.7 112 544.3 111.7C544.2 111.7 544.2 111.6 544.2 111.5C544.2 111.4 544.3 111.4 544.3 111.4Z" fill="#bedae6"/>
<path d="M344.9 219.2C346.3 218.9 347.7 218.9 349.1 218.9C350.5 218.9 351.9 219 353.3 219.2C353.4 219.2 353.5 219.3 353.4 219.4C353.4 219.5 353.3 219.5 353.3 219.5C351.9 219.7 350.5 219.8 349.1 219.8C347.7 219.8 346.3 219.8 344.9 219.5C344.8 219.5 344.8 219.4 344.8 219.3C344.8 219.2 344.8 219.2 344.9 219.2Z" fill="#bedae6"/>
<path d="M384.6 251C386 250.7 387.4 250.7 388.8 250.7C390.2 250.7 391.6 250.8 393 251C393.1 251 393.2 251.1 393.1 251.2C393.1 251.3 393 251.3 393 251.3C391.6 251.5 390.2 251.6 388.8 251.6C387.4 251.6 386 251.6 384.6 251.3C384.5 251.3 384.5 251.2 384.5 251.1C384.5 251.1 384.5 251 384.6 251Z" fill="#bedae6"/>
<path d="M284.9 233C286.3 232.7 287.7 232.7 289.1 232.7C290.5 232.7 291.9 232.8 293.3 233C293.4 233 293.5 233.1 293.4 233.2C293.4 233.3 293.3 233.3 293.3 233.3C291.9 233.5 290.5 233.6 289.1 233.6C287.7 233.6 286.3 233.6 284.9 233.3C284.8 233.3 284.8 233.2 284.8 233.1C284.8 233.1 284.9 233 284.9 233Z" fill="#bedae6"/>
<path d="M109.2 182.7C110.6 182.4 112 182.4 113.4 182.4C114.8 182.4 116.2 182.5 117.6 182.7C117.7 182.7 117.8 182.8 117.7 182.9C117.7 183 117.6 183 117.6 183C116.2 183.2 114.8 183.3 113.4 183.3C112 183.3 110.6 183.3 109.2 183C109.1 183 109.1 182.9 109.1 182.8C109.1 182.8 109.1 182.7 109.2 182.7Z" fill="#bedae6"/>
<path d="M131.3 251C132.7 250.7 134.1 250.7 135.5 250.7C136.9 250.7 138.3 250.8 139.7 251C139.8 251 139.9 251.1 139.8 251.2C139.8 251.3 139.7 251.3 139.7 251.3C138.3 251.5 136.9 251.6 135.5 251.6C134.1 251.6 132.7 251.6 131.3 251.3C131.2 251.3 131.2 251.2 131.2 251.1C131.2 251.1 131.3 251 131.3 251Z" fill="#bedae6"/>
<path d="M656.5 194.1C657.9 193.8 659.3 193.8 660.7 193.8C662.1 193.8 663.5 193.9 664.9 194.1C665 194.1 665.1 194.2 665 194.3C665 194.4 664.9 194.4 664.9 194.4C663.5 194.6 662.1 194.7 660.7 194.7C659.3 194.7 657.9 194.7 656.5 194.4C656.4 194.4 656.4 194.3 656.4 194.2C656.4 194.1 656.4 194.1 656.5 194.1Z" fill="#bedae6"/>
<path d="M674.9 260.5C674.8 245.4 674.7 230.2 674.7 215.1L674.6 169.7L675.5 170.6L626.7 170.7L627.7 169.7V238C627.7 238.6 627.3 239 626.7 239H614.3C613.7 239 613.3 238.6 613.3 238V218.6L614.3 219.6H606.8C606.2 219.6 605.8 219.2 605.8 218.6V71L606.8 72L594.8 71.8C594.3 71.8 593.8 71.3 593.8 70.8V53.5L594.8 54.5H562.9L563.9 53.5L563.8 72.1C563.8 72.6 563.4 73.1 562.8 73.1L537.2 73.3L538.2 72.3V100L537.2 99H545.2C545.8 99 546.2 99.4 546.2 100V207C546.2 207.5 545.8 208 545.3 208L536.4 208.8C535.8 208.8 535.4 208.4 535.3 207.9V207.8V146.5L535.6 147.2L518.6 128L518.5 127.9L509.5 113.5H511.2L502.7 127.7C502.7 127.8 502.6 127.8 502.6 127.9L484.5 147.3L484.8 146.6V156.7C484.8 157.3 484.4 157.7 483.8 157.7H472.5L473.5 156.7V197C473.5 197.6 473.1 198 472.5 198H451.2L452.2 197V212.3C452.2 212.9 451.8 213.3 451.2 213.3H444C443.4 213.3 443 212.9 443 212.3V197L444 198H405L406 197V230.5H404V230.4L405 231.4H375.1C374.5 231.4 374.1 231 374.1 230.4V142.7L375.8 143.4L333 181.4L333.3 180.7V253.4C333.3 254 332.9 254.4 332.3 254.4H294.7C294.1 254.4 293.7 254 293.7 253.4V196.2L294.7 197.2H253.9L254.9 196.2V242.1C254.9 242.7 254.5 243.1 253.9 243.1C253.6 243.1 253.3 243 253.1 242.7L200.6 181.2L201.3 181.5H167.9L168.8 180.6L168.7 217.5C168.7 218 168.3 218.4 167.8 218.4H147.1C146.6 218.4 146.3 218 146.3 217.6L146.4 157.9L147.2 158.7L109.6 158.6L110.3 157.9L110.1 259.9C110.1 260.2 109.9 260.4 109.6 260.4L70.6 260.3C70.4 260.3 70.3 260.1 70.3 260C70.3 259.8 70.4 259.7 70.6 259.7L109.6 259.6L109.1 260.1L108.9 158.1C108.9 157.7 109.2 157.4 109.6 157.4L147.2 157.3C147.6 157.3 148 157.6 148 158.1L148.1 217.8L147.3 217H168L167.1 217.9L167 181C167 180.5 167.4 180.1 167.9 180.1H201.3C201.6 180.1 201.9 180.2 202 180.4L254.5 241.9L252.7 242.5V196.6C252.7 196 253.1 195.6 253.7 195.6H294.5C295.1 195.6 295.5 196 295.5 196.6V253.8L294.5 252.8H332.1L331.1 253.8V181.1C331.1 180.8 331.2 180.5 331.4 180.4L374.1 142.3C374.5 141.9 375.1 142 375.5 142.4C375.7 142.6 375.8 142.8 375.8 143.1V230.8L374.8 229.8H405C405.6 229.8 406 230.2 406 230.8V230.9H404V197.4C404 196.8 404.4 196.4 405 196.4H444C444.6 196.4 445 196.8 445 197.4V212.7L444 211.7H451.1L450.1 212.7V197.4C450.1 196.8 450.5 196.4 451.1 196.4H472.4L471.4 197.4V157.1C471.4 156.5 471.8 156.1 472.4 156.1H483.7L482.7 157.1V147C482.7 146.7 482.8 146.5 483 146.3L501.1 126.9L501 127.1L509.5 112.9C509.8 112.4 510.4 112.3 510.9 112.6C511 112.7 511.2 112.8 511.2 112.9L520.2 127.3L520.1 127.2L537.1 146.4C537.3 146.6 537.3 146.8 537.4 147.1V208.4L536.3 207.4L545.2 206.6L544.3 207.6V100.6L545.3 101.6H537.3C536.7 101.6 536.3 101.2 536.3 100.6V72.3C536.3 71.7 536.7 71.3 537.3 71.3L562.9 71.1L561.9 72.1L562 53.5C562 52.9 562.4 52.5 563 52.5H594.9C595.5 52.5 595.9 52.9 595.9 53.5V70.8L594.9 69.8L606.9 70C607.4 70 607.9 70.5 607.9 71V218.6L606.9 217.6H614.4C615 217.6 615.4 218 615.4 218.6V238L614.4 237H626.8L625.8 238V169.7C625.8 169.1 626.2 168.7 626.8 168.7L675.6 168.8C676.1 168.8 676.5 169.2 676.5 169.7L676.4 215.1C676.4 230.2 676.3 245.4 676.2 260.5C676.2 260.9 675.9 261.2 675.5 261.2C675.2 261.2 674.9 260.9 674.9 260.5Z" fill="#bedae6"/>
<path d="M477.9 47.3L485.2 47.1L484.4 47.8C484.7 46.1 485.2 44.6 485.8 43.1C486.5 41.6 487.3 40.1 488.6 38.9C489.8 37.7 491.5 36.7 493.3 36.5C494.2 36.4 495.1 36.4 496 36.6C496.9 36.8 497.8 37.2 498.5 37.8C499.2 38.4 499.8 39.2 500.2 40C500.3 40.2 500.4 40.4 500.5 40.6C500.5 40.6 500.5 40.7 500.6 40.7C500.6 40.7 500.7 40.8 500.8 40.7C500.8 40.7 500.8 40.7 500.9 40.7L501.2 40.5C501.4 40.4 501.6 40.3 501.8 40.2C502.2 40.1 502.7 39.9 503.1 39.9C504 39.8 504.9 39.8 505.7 39.9C506.1 40 506.5 40 507 40.1L507.7 40.3C507.9 40.4 508.1 40.5 508.4 40.7C509.2 41.2 509.9 42 510.3 42.9C511.1 44.6 511.2 46.3 511 48L510.1 47C512.9 47 515.7 47.1 518.5 47.2C518.9 47.2 519.2 47.5 519.1 47.9C519.1 48.3 518.8 48.5 518.5 48.5C515.7 48.6 512.9 48.7 510.1 48.7C509.6 48.7 509.2 48.3 509.2 47.9V47.8V47.7C509.3 46.3 509.1 44.7 508.5 43.6C508.2 43 507.8 42.5 507.3 42.2L506.9 42L506.5 41.9C506.2 41.8 505.8 41.8 505.5 41.7C504.8 41.6 504.1 41.6 503.4 41.7C503.1 41.8 502.7 41.8 502.4 42C502.2 42.1 502.1 42.1 501.9 42.2L501.7 42.3C501.6 42.3 501.4 42.4 501.2 42.5C500.5 42.7 499.7 42.5 499.2 42C498.9 41.8 498.7 41.5 498.6 41.1C498.5 40.9 498.5 40.8 498.4 40.6C498.1 40 497.7 39.5 497.2 39.1C496.2 38.3 494.8 38 493.4 38.2C492 38.3 490.8 39 489.8 40C487.8 42 486.5 45 485.9 47.9V48C485.8 48.4 485.5 48.6 485.1 48.6L477.8 48.4C477.4 48.4 477.1 48.1 477.1 47.7C477.3 47.6 477.6 47.3 477.9 47.3Z" fill="#bedae6"/>
<path d="M203.8 92.1L217.8 91.9L217 92.6C217.6 89.5 218.5 86.6 219.8 83.7C221.1 80.9 222.7 78.1 225 75.8C229.4 71.1 237.4 69.7 242.9 73.8C244.2 74.9 245.2 76.2 246 77.7C246.2 78.1 246.3 78.4 246.5 78.8C246.6 79 246.7 79.2 246.9 79.3C247.2 79.6 247.7 79.7 248.1 79.6C248.2 79.6 248.3 79.5 248.4 79.5C248.6 79.4 248.8 79.3 249 79.2C249.4 79 249.8 78.9 250.1 78.7C250.9 78.4 251.7 78.2 252.5 78.1C254.1 77.8 255.7 77.9 257.3 78C258.1 78.1 258.9 78.2 259.7 78.4L260.9 78.8C261.3 79 261.7 79.2 262 79.4C263.5 80.3 264.6 81.7 265.3 83.2C266 84.7 266.4 86.3 266.6 87.8C266.8 89.4 266.8 90.9 266.7 92.6L265.8 91.6C271.1 91.6 276.5 91.7 281.8 91.8C282.2 91.8 282.5 92.1 282.5 92.5C282.5 92.9 282.2 93.2 281.8 93.2C276.5 93.3 271.1 93.4 265.8 93.4C265.3 93.4 264.9 93 264.9 92.5V92.4C265.1 89.6 264.8 86.5 263.5 84C262.9 82.8 262 81.7 260.9 81L260 80.5L259 80.2C258.3 80 257.6 79.9 256.9 79.8C255.5 79.6 254 79.6 252.6 79.9C251.9 80 251.2 80.2 250.6 80.4C250.3 80.5 249.9 80.6 249.6 80.8C249.4 80.9 249.3 81 249.1 81C248.9 81.1 248.6 81.2 248.4 81.3C247.3 81.6 246.2 81.3 245.3 80.6C244.9 80.2 244.6 79.8 244.4 79.3C244.3 79 244.1 78.7 244 78.3C243.4 77 242.5 75.9 241.5 75.1C239.4 73.4 236.4 72.9 233.6 73.2C230.8 73.5 228.2 74.9 226.2 76.9C224.1 78.9 222.6 81.5 221.3 84.1C220.1 86.8 219.1 89.7 218.6 92.5C218.5 92.9 218.2 93.2 217.8 93.2L203.8 93C203.4 93 203.1 92.7 203.1 92.3C203.2 92.4 203.5 92.1 203.8 92.1Z" fill="#bedae6"/>
<path d="M641.4 26.9C641.5 26.9 641.6 26.9 641.8 26.9H642.1H642.6H643.6L645.6 26.7999L649.6 26.7L657.5 26.6C662.8 26.5 668 26.5 673.3 26.5H704.9L704 27.1C704.6 24.8 704.9 22.0999 704.5 19.7999C704.2 17.3999 703 15.2 701.1 13.8C700.2 13.1 699 12.7 697.9 12.4C696.7 12.1 695.5 11.9 694.3 11.9C693.7 11.9 693.2 12 692.7 12.2H692.6C692.5 12.2 692.4 12.3 692.3 12.3C692.1 12.3 691.9 12.3 691.7 12.3C691.3 12.2 690.9 12 690.6 11.6C690.5 11.4 690.4 11.2 690.4 10.9V10.7L690.3 10.3C690.1 9.09995 689.8 7.89995 689.3 6.89995C688.3 4.79995 686.3 3.19995 684 2.49995C681.7 1.79995 679.1 1.79995 676.7 2.29995C671.9 3.29995 667.7 6.99995 665.6 11.4C665.4 11.8 664.9 12 664.4 11.8C664.3 11.7 664.2 11.6 664.1 11.5C662.8 9.79995 660.8 8.29995 658.6 7.99995C656.3 7.69995 653.9 7.89995 651.7 8.89995C649.6 9.89995 647.7 11.5 646.3 13.4C644.9 15.3 643.8 17.6 643.1 19.9C643.1 20 642.9 20.1 642.8 20.1C642.7 20.1 642.6 19.8999 642.6 19.7999C643.2 17.2999 644.1 15 645.5 12.9C646.9 10.8 648.8 8.99995 651.1 7.79995C653.4 6.59995 656.1 6.29995 658.7 6.49995C660 6.59995 661.3 7.09995 662.5 7.79995C663.7 8.49995 664.7 9.29995 665.5 10.5L664 10.6C664.6 9.29995 665.4 8.29995 666.3 7.19995C667.2 6.19995 668.1 5.19995 669.1 4.29995C671.2 2.49995 673.6 1.19995 676.3 0.599951C677.6 0.299951 679 0.199951 680.4 0.199951C681.8 0.199951 683.2 0.399951 684.5 0.799951C685.8 1.19995 687.2 1.79995 688.3 2.69995C689.4 3.59995 690.3 4.79995 691 5.99995C691.7 7.29995 692.1 8.59995 692.3 9.99995L692.4 10.5V10.7C692.4 10.6 692.4 10.6 692.3 10.5C692.2 10.4 692.1 10.3 692.1 10.3H692C692 10.3 692 10.3 691.9 10.3L692 10.2C692.8 9.89995 693.5 9.79995 694.2 9.79995C695.7 9.69995 697 9.99995 698.4 10.3C699.7 10.7 701.1 11.2 702.3 12.1C703.5 12.9 704.5 14.1 705.1 15.3C705.8 16.6 706.2 17.8999 706.4 19.2999C706.8 22.0999 706.5 24.8 705.8 27.5C705.7 27.9 705.3 28.1 704.9 28.1L673.3 27.9L641.8 27.6H641.6C641.4 27.6 641.2 27.4 641.2 27.2C641.1 27 641.2 26.9 641.4 26.9Z" fill="#bedae6"/>
<path d="M723.9 318.6C723.9 318.6 722.9 316 720.4 315.5C719.1 315.3 717.9 315.6 717.2 316C716.4 316.4 716.2 317.4 716.8 318C717.4 318.7 718.3 319.5 719.7 319.7C722.2 320.3 723.9 318.6 723.9 318.6Z" stroke="#bedae6" stroke-miterlimit="10"/>
<path d="M731.4 320.9C732.1 320.4 732.2 319.4 731.6 318.8C730.9 318.2 729.9 317.5 728.5 317.5C725.9 317.5 724.4 319.6 724.4 319.6C724.4 319.6 725.8 321.9 728.5 321.9C729.7 321.8 730.7 321.4 731.4 320.9Z" stroke="#bedae6" stroke-miterlimit="10"/>
<path d="M732.5 314.5C733.2 314.1 733.4 313.1 732.8 312.4C732.2 311.7 731.2 311 729.8 310.8C727.2 310.6 725.5 312.5 725.5 312.5C725.5 312.5 726.7 314.9 729.4 315.1C730.7 315.3 731.7 314.9 732.5 314.5Z" stroke="#bedae6" stroke-miterlimit="10"/>
<path d="M735.1 309C735.9 308.8 736.3 307.8 735.9 307.1C735.5 306.3 734.7 305.3 733.4 304.9C730.9 304.1 728.8 305.6 728.8 305.6C728.8 305.6 729.4 308.2 732 309C733.2 309.3 734.3 309.2 735.1 309Z" stroke="#bedae6" stroke-miterlimit="10"/>
<path d="M725.4 312.4C725.4 312.4 725.4 309.6 723.1 308.3C721.9 307.6 720.8 307.6 719.9 307.7C719.1 307.8 718.5 308.7 718.8 309.5C719.1 310.4 719.7 311.4 720.9 312.1C723.2 313.4 725.4 312.4 725.4 312.4Z" stroke="#bedae6" stroke-miterlimit="10"/>
<path d="M728.6 306.3C728.6 306.3 729 303.5 726.9 301.9C726 301.2 725 300.9 724.2 300.8C723.1 300.7 722.2 301.7 722.5 302.8C722.7 303.6 723.2 304.5 724.1 305.3C726.3 306.9 728.6 306.3 728.6 306.3Z" stroke="#bedae6" stroke-miterlimit="10"/>
<path d="M707.8 323.4C707.6 322.5 707.5 321.5 707.6 320.6C707.7 319.7 707.8 318.8 708.1 317.9C708.3 317 708.7 316.1 709 315.3C709.4 314.5 709.8 313.6 710.4 312.9L710.7 313.1C710.1 314.8 709.5 316.5 709.1 318.2C708.9 319.1 708.7 319.9 708.5 320.8C708.3 321.7 708.2 322.5 707.9 323.4H707.8Z" fill="#bedae6"/>
<path d="M707.5 323.4C707.3 322.7 707.3 322 707.6 321.3C707.9 320.6 708.2 320 708.7 319.5C709.6 318.5 710.7 317.7 711.8 317L712.1 317.3C711.7 317.9 711.3 318.4 710.8 318.8C710.3 319.3 709.9 319.7 709.5 320.2C709.1 320.7 708.7 321.1 708.5 321.7C708.2 322.2 708 322.7 707.7 323.4H707.5Z" fill="#bedae6"/>
<path d="M724.1 324.4C723.8 322.4 723.8 320.4 724 318.3C724.2 316.3 724.6 314.3 725.2 312.3C726.4 308.4 728.6 304.7 731.8 302.2L732.1 302.5C730.8 304 729.6 305.6 728.6 307.3C727.6 309 726.8 310.8 726.3 312.7C725.7 314.6 725.3 316.5 725.1 318.5C724.8 320.5 724.6 322.4 724.4 324.4H724.1V324.4Z" fill="#bedae6"/>
<path d="M571.4 237.7H469.8V324.2H571.4V237.7Z" fill="#6AB3D0"/>
<path d="M481 256.9V286.6H526.2V245.1H492.7C486.3 245.1 481 250.4 481 256.9Z" fill="#bedae6"/>
<path d="M561.8 245.1H535.1V319.3H561.8V245.1Z" fill="#bedae6"/>
<path d="M558.3 249.9H539V278H558.3V249.9Z" fill="#fff"/>
<path d="M469.8 222H582.7V227.5C582.7 233 578.4 237.4 573 237.6C572.5 237.6 572 237.6 571.5 237.6H469.8V222Z" fill="#6ab3d0"/>
<path d="M582.7 222L559 186.4H469.8V222H582.7Z" fill="#6ab3d0"/>
<path d="M469.8 176.9H558.3L559 186.4H469.8V176.9Z" fill="#6ab3d0"/>
<path d="M559.8 293.1C562.3 292.3 564.7 292.4 567.2 292.3C569.7 292.2 572.1 292.2 574.6 292.2C577.1 292.2 579.5 292.2 582 292.3C584.5 292.4 586.9 292.3 589.4 293.1V293.6C586.9 294.4 584.5 294.3 582 294.4C579.5 294.5 577.1 294.5 574.6 294.5C572.1 294.5 569.7 294.5 567.2 294.4C564.7 294.3 562.3 294.4 559.8 293.6V293.1Z" fill="#187AA2"/>
<path d="M574 322.7C573.5 321.5 573.7 320.2 573.6 319V315.3C573.6 312.8 573.5 310.4 573.5 307.9C573.5 305.4 573.5 303 573.6 300.5C573.6 298 573.7 295.6 574.3 293.1H575C575.6 295.6 575.7 298 575.7 300.5C575.8 303 575.8 305.4 575.8 307.9C575.8 310.4 575.8 312.8 575.7 315.3V319C575.6 320.2 575.8 321.5 575.3 322.7H574Z" fill="#187AA2"/>
<path d="M568.8 322.9C569.8 322.1 570.7 322.2 571.7 322.1C572.7 322 573.6 322 574.6 322C575.6 322 576.5 322 577.5 322.1C578.5 322.2 579.4 322.1 580.4 322.9V323.4C579.4 324.2 578.5 324.1 577.5 324.2C576.5 324.3 575.6 324.3 574.6 324.3C573.6 324.3 572.7 324.3 571.7 324.2C570.7 324.1 569.8 324.2 568.8 323.4V322.9Z" fill="#187AA2"/>
<path d="M587.8 307.2C588.1 306.9 588.4 307 588.7 307H589.6C590.2 307 590.8 306.9 591.4 307C592 307 592.6 307 593.2 307.1C593.8 307.1 594.4 307.2 595 307.6V308.1C594.4 308.5 593.8 308.6 593.2 308.6C592.6 308.6 592 308.7 591.4 308.7C590.8 308.7 590.2 308.7 589.6 308.7H588.7C588.4 308.7 588.1 308.8 587.8 308.5V307.2Z" fill="#187AA2"/>
<path d="M606.9 290.6C607 292.3 606.3 293.7 605.7 295.1L604 299.3C603.4 300.7 602.8 302.1 602.3 303.5C602 304.2 601.8 304.9 601.5 305.6C601.2 306.3 600.9 306.9 600.4 307.6H599.9C599.3 305.9 599.8 304.3 600.3 302.8C600.7 301.3 601.3 299.8 601.8 298.4C602.4 297 603 295.6 603.7 294.2C604.4 292.8 605 291.4 606.4 290.3L606.9 290.6Z" fill="#187AA2"/>
<path d="M588.5 324C588.2 323.2 588.5 322.6 588.5 321.8L588.8 319.7C589 318.3 589.2 316.9 589.5 315.5C589.7 314.1 590 312.7 590.3 311.3C590.6 309.9 590.9 308.5 591.7 307.2L592.4 307.3C592.7 308.8 592.6 310.2 592.3 311.6C592.1 313 591.9 314.4 591.6 315.8C591.4 317.2 591.1 318.6 590.8 320L590.4 322.1C590.2 322.8 590.3 323.5 589.7 324.1L588.5 324Z" fill="#187AA2"/>
<path d="M562.7 308.4C562.1 308.9 561.4 308.7 560.8 308.8H558.9C557.6 308.8 556.3 308.9 555.1 308.9C553.8 308.9 552.5 308.9 551.3 308.8C550 308.8 548.7 308.7 547.5 308.1V307.4C548.8 306.8 550.1 306.7 551.3 306.7C552.6 306.6 553.9 306.6 555.1 306.6C556.4 306.6 557.7 306.6 558.9 306.7H560.8C561.4 306.8 562.1 306.6 562.7 307.1V308.4Z" fill="#187AA2"/>
<path d="M544.1 290.4C545.5 291.4 546.1 292.9 546.8 294.3C547.5 295.7 548.1 297.1 548.7 298.5C549.3 299.9 549.8 301.4 550.2 302.9C550.6 304.4 551.2 306 550.6 307.7H550.1C549.6 307 549.3 306.4 549 305.7C548.7 305 548.5 304.3 548.2 303.6C547.6 302.2 547.1 300.8 546.5 299.4L544.8 295.2C544.2 293.8 543.5 292.4 543.6 290.7L544.1 290.4Z" fill="#187AA2"/>
<path d="M560.7 324.3C560.1 323.7 560.2 323 560 322.3L559.6 320.2C559.3 318.8 559 317.4 558.8 316C558.5 314.6 558.3 313.2 558.1 311.8C557.9 310.4 557.7 309 558 307.5L558.7 307.4C559.5 308.7 559.9 310.1 560.1 311.5C560.4 312.9 560.7 314.3 560.9 315.7C561.2 317.1 561.4 318.5 561.6 319.9L561.9 322C562 322.7 562.3 323.4 561.9 324.2L560.7 324.3Z" fill="#187AA2"/>
<path d="M548.1 324C547.8 323.2 548.1 322.5 548.2 321.8L548.6 319.7C548.9 318.3 549.1 316.9 549.4 315.5C549.7 314.1 550 312.7 550.4 311.3C550.7 309.9 551.1 308.5 552 307.3L552.7 307.4C553 308.9 552.8 310.3 552.5 311.7C552.2 313.1 552 314.5 551.7 315.9C551.4 317.3 551.1 318.7 550.7 320.1L550.2 322.2C550 322.9 550 323.6 549.4 324.2L548.1 324Z" fill="#187AA2"/>
<path d="M560 316.5H550.4" stroke="#187AA2" stroke-width="2" stroke-miterlimit="10"/>
<path d="M469.7 178.3H369.3V324.1H469.7V178.3Z" fill="#bedae6"/>
<path d="M431.1 276.2H386.4C381.9 276.2 378.3 272.6 378.3 268.1V223.4H431.1V276.2Z" fill="#6AB3D0"/>
<path d="M461.6 201.1H378.3V218.1H461.6V201.1Z" fill="#fff"/>
<path d="M461.6 223.4H436.3V285.7H461.6V223.4Z" fill="#6AB3D0"/>
<path d="M368.9 285.1C373.2 284.6 377.4 284.8 381.7 284.7H394.5C403 284.7 411.5 284.6 420.1 284.7L445.7 284.8C454.2 284.8 462.7 284.9 471.3 285.5V286.2C462.8 286.8 454.3 286.9 445.7 286.9L420.1 287C411.6 287.1 403.1 287 394.5 287H381.7C377.4 286.9 373.2 287.1 368.9 286.6V285.1Z" fill="#187AA2"/>
<path d="M469.7 295.7C468.2 296.2 466.7 296 465.3 296.1H460.9C457.9 296.1 455 296.2 452 296.2C449 296.2 446.1 296.2 443.1 296.1C440.1 296.1 437.2 296 434.2 295.4V294.7C437.2 294.1 440.1 294 443.1 294C446.1 293.9 449 293.9 452 293.9C455 293.9 457.9 293.9 460.9 294H465.3C466.8 294.1 468.3 293.9 469.7 294.4V295.7Z" fill="#187AA2"/>
<path d="M434.2 302.4C435.7 301.9 437.2 302.1 438.6 302H443C446 302 448.9 301.9 451.9 301.9C454.9 301.9 457.8 301.9 460.8 302C463.8 302 466.7 302.1 469.7 302.7V303.4C466.7 304 463.8 304.1 460.8 304.1C457.8 304.1 454.9 304.2 451.9 304.2C448.9 304.2 446 304.2 443 304.1H438.6C437.1 304 435.6 304.2 434.2 303.7V302.4Z" fill="#187AA2"/>
<path d="M434.2 310.4C435.7 309.9 437.2 310.1 438.6 310H443C446 310 448.9 309.9 451.9 309.9C454.9 309.9 457.8 309.9 460.8 310C463.8 310 466.7 310.1 469.7 310.7V311.4C466.7 312 463.8 312.1 460.8 312.1C457.8 312.1 454.9 312.2 451.9 312.2C448.9 312.2 446 312.2 443 312.1H438.6C437.1 312 435.6 312.2 434.2 311.7V310.4Z" fill="#187AA2"/>
<path d="M397.2 251.9L392.6 249.7C396 239.9 403.3 239.7 403.3 239.7L405.9 241.5L408.6 239.7C414.7 241.2 416.8 248.7 416.8 251.1L412.3 252.3L412.7 262.8H396.7L397.2 251.9Z" fill="#fff"/>
<path d="M251.1 324V204.8L276.3 163.4L306.3 207.7L369.4 208.2V324H251.1Z" fill="#006088"/>
<path d="M283.4 254.6H268.6V293.4H283.4V254.6Z" fill="#6ab3d0"/>
<path d="M312 249.9V324.3H333H353.9V249.9H312Z" fill="#6ab3d0"/>
<path d="M275.9 194.3C274.6 194.3 268.5 194.8 268.5 202.4V228.6H275.9H283.3V202.4C283.3 194.7 277.2 194.3 275.9 194.3Z" fill="#6ab3d0"/>
<path d="M346.3 270.9H319.8V324.3H346.3V270.9Z" fill="#6AB3D0"/>
<path d="M238.7 207.7L275.8 149.1L292.9 172.7H369.4V208.2L305.8 208L275.8 163.7L249.1 207.7H238.7Z" fill="#6ab3d0"/>
<path d="M420.4 178.3H476.9C468.1 171.1 462.2 133.3 462.2 133.3L420.4 132.7H420.3H420.2L378.4 133.3C378.4 133.3 372.5 171.1 363.7 178.3H420.2" fill="#006088"/>
<path d="M311.3 252.9C311.3 240.9 321 231.2 333 231.2C345 231.2 354.7 240.9 354.7 252.9V258.9H311.3V252.9Z" fill="#bedae6"/>
<path d="M355.8 324.5C352 324.9 348.2 324.9 344.4 324.9L333 325L321.6 324.9C317.8 324.9 314 324.9 310.2 324.5V324.3C314 323.9 317.8 323.9 321.6 323.9L333 323.8L344.4 323.9C348.2 323.9 352 323.9 355.8 324.3V324.5Z" fill="#fff"/>
<path d="M338.4 245.9C339 245 339.2 243 337.8 241.7C336 239.9 333 238 333 238C333 238 332.6 239.1 330.5 239.6C327.6 240.4 328.2 242.4 328.2 242.4C326.7 243.2 326.1 244.8 327.2 245.9" fill="#6ab3d0"/>
<path d="M326.6 246.2L328.1 251.8C328.4 252.8 329.2 253.4 330.2 253.4H335.6C336.6 253.4 337.5 252.7 337.7 251.8L339.3 246.2" fill="#6AB3D0"/>
<path d="M327.3 246.3C326.6 245.7 326.2 244.5 326.7 243.5C327.2 242.5 328.1 241.9 329 241.7C329.9 241.4 330.9 241.3 331.8 241.3C332.7 241.2 333.6 241.1 334.5 240.9L334.6 241.2C333.8 241.6 332.8 241.9 331.9 242C331 242.1 330.1 242.2 329.3 242.5C328.5 242.8 327.7 243.2 327.4 243.9C327 244.6 327.1 245.4 327.5 246.3H327.3Z" fill="#6AB3D0"/>
<path d="M325.6 245.7C326.2 245.5 326.8 245.6 327.4 245.5H329.2C330.4 245.5 331.6 245.5 332.8 245.5C334 245.5 335.2 245.5 336.4 245.5C337.6 245.5 338.8 245.5 340 245.8V246.1C338.8 246.4 337.6 246.4 336.4 246.4C335.2 246.4 334 246.4 332.8 246.4C331.6 246.4 330.4 246.4 329.2 246.4H327.4C326.8 246.4 326.2 246.5 325.6 246.2V245.7Z" fill="#006088"/>
<path d="M337.7 241.1C337.8 241.7 337.6 242.3 337.2 242.7C336.8 243.1 336.3 243.5 335.8 243.7C334.8 244.1 333.7 244.4 332.6 244.2V243.9C333.6 243.5 334.6 243.4 335.5 242.9C335.9 242.7 336.4 242.5 336.7 242.1C337.1 241.8 337.3 241.4 337.6 241L337.7 241.1Z" fill="#6AB3D0"/>
<path d="M314.9 262.3C316.888 262.3 318.5 260.688 318.5 258.7C318.5 256.712 316.888 255.1 314.9 255.1C312.912 255.1 311.3 256.712 311.3 258.7C311.3 260.688 312.912 262.3 314.9 262.3Z" fill="#bedae6"/>
<path d="M322.2 262.3C324.188 262.3 325.8 260.688 325.8 258.7C325.8 256.712 324.188 255.1 322.2 255.1C320.212 255.1 318.6 256.712 318.6 258.7C318.6 260.688 320.212 262.3 322.2 262.3Z" fill="#bedae6"/>
<path d="M329.4 262.3C331.388 262.3 333 260.688 333 258.7C333 256.712 331.388 255.1 329.4 255.1C327.412 255.1 325.8 256.712 325.8 258.7C325.8 260.688 327.412 262.3 329.4 262.3Z" fill="#bedae6"/>
<path d="M336.7 262.3C338.688 262.3 340.3 260.688 340.3 258.7C340.3 256.712 338.688 255.1 336.7 255.1C334.712 255.1 333.1 256.712 333.1 258.7C333.1 260.688 334.712 262.3 336.7 262.3Z" fill="#bedae6"/>
<path d="M343.9 262.3C345.888 262.3 347.5 260.688 347.5 258.7C347.5 256.712 345.888 255.1 343.9 255.1C341.912 255.1 340.3 256.712 340.3 258.7C340.3 260.688 341.912 262.3 343.9 262.3Z" fill="#bedae6"/>
<path d="M351.1 262.3C353.088 262.3 354.7 260.688 354.7 258.7C354.7 256.712 353.088 255.1 351.1 255.1C349.112 255.1 347.5 256.712 347.5 258.7C347.5 260.688 349.112 262.3 351.1 262.3Z" fill="#bedae6"/>
<path d="M491.2 284.6C491.1 277.2 493.6 272.1 496.5 270.6C498.1 269.8 500.4 270.5 501.6 271.8C503 273.3 503.7 275.4 503.5 277.4L502.7 285.6" fill="#fff"/>
<path d="M491.2 284.6C491.1 277.2 493.6 272.1 496.5 270.6C498.1 269.8 500.4 270.5 501.6 271.8C503 273.3 503.7 275.4 503.5 277.4L502.7 285.6" stroke="#6ab3d0" stroke-width="0.75" stroke-miterlimit="10" stroke-linecap="round" stroke-linejoin="round"/>
<path d="M498.6 266.8C502.4 266.1 503.5 270.3 503.5 270.3" stroke="#6AB3D0" stroke-width="0.75" stroke-miterlimit="10" stroke-linecap="round" stroke-linejoin="round"/>
<path d="M500.5 270.8C502 270.6 505.3 270.6 505.7 272.5C505.9 273.2 505.5 274.4 504.7 274.9" stroke="#6AB3D0" stroke-width="0.75" stroke-miterlimit="10" stroke-linecap="round" stroke-linejoin="round"/>
<path d="M499.8 269C497.9 267.7 495.6 267 494.2 268.4C493.6 269 493.8 270.7 495.1 271.7" stroke="#6AB3D0" stroke-width="0.75" stroke-miterlimit="10" stroke-linecap="round" stroke-linejoin="round"/>
<path d="M505.6 256.9L503.9 263.4C503.4 264.9 500.3 268.6 498.7 268.4L494.7 267.4C494.8 267.4 495.3 252.7 505.6 256.9Z" fill="#006088"/>
<path d="M490.5 286.7L491.2 284.6L502.8 285.6L502.9 286.5" fill="#fff"/>
<path d="M490.5 286.7L491.2 284.6L502.8 285.6L502.9 286.5" stroke="#6ab3d0" stroke-width="0.75" stroke-miterlimit="10" stroke-linecap="round" stroke-linejoin="round"/>
<path d="M497.9 273.2C501 273.3 502.8 286.5 502.8 286.5L509 296.6L508.2 297.1C506.4 298.2 504 297.7 502.8 296L498.1 289.2C498.1 289.3 492.6 273 497.9 273.2Z" fill="#6AB3D0"/>
<path d="M505.5 257.4C506.7 257.9 507 258.7 507.2 259.7C507.4 261.6 508.9 262 508.9 263C508.9 263.7 507.7 263.8 507.5 264.5C506.9 266.8 505.2 268.4 502.7 268.5" fill="#fff"/>
<path d="M505.5 257.4C506.7 257.9 507 258.7 507.2 259.7C507.4 261.6 508.9 262 508.9 263C508.9 263.7 507.7 263.8 507.5 264.5C506.9 266.8 505.2 268.4 502.7 268.5" stroke="#006088" stroke-width="0.75" stroke-miterlimit="10" stroke-linecap="round" stroke-linejoin="round"/>
<path d="M505.5 265.8C506 266.2 506.6 266.2 506.6 266.2" stroke="#006088" stroke-width="0.75" stroke-miterlimit="10" stroke-linecap="round" stroke-linejoin="round"/>
<path d="M505.6 256.9C506.3 258 507.1 259.7 507.1 259.7L503.5 260.1L503.7 258L505.6 256.9Z" fill="#006088"/>
<path d="M505.9 263C505.7 263 505.6 262.8 505.6 262.6V262C505.6 261.8 505.8 261.6 506 261.6C506.2 261.6 506.3 261.8 506.3 262V262.6C506.3 262.8 506.1 263 505.9 263Z" fill="#006088"/>
<path d="M0.2 323.3L46.8 323L93.4 322.8L186.6 322.5L373.1 322.4L559.6 322.6L652.8 322.8L699.4 322.9L746 323.1C746.2 323.1 746.4 323.3 746.4 323.5C746.4 323.7 746.2 323.9 746 323.9L699.4 324.1L652.8 324.2L559.6 324.4L373.1 324.6L186.6 324.5L93.4 324.2L46.8 324L0.2 323.7C0.1 323.7 0 323.6 0 323.5C0 323.4 0.1 323.3 0.2 323.3Z" fill="#bedae6"/>
<path d="M354.2 335.8C358.3 335.5 362.4 335.5 366.6 335.4L379 335.3C387.2 335.4 395.5 335.3 403.7 335.7C403.8 335.7 403.9 335.8 403.9 335.9C403.9 336 403.8 336.1 403.7 336.1C395.5 336.4 387.2 336.4 379 336.5L366.6 336.4C362.5 336.3 358.4 336.3 354.2 336C354.1 336 354.1 335.9 354.2 335.8C354.1 335.8 354.1 335.8 354.2 335.8Z" fill="#bedae6"/>
<path d="M60.7 335.8C63.2 335.5 65.6 335.5 68.1 335.4L75.5 335.3C80.4 335.4 85.3 335.3 90.2 335.7C90.3 335.7 90.4 335.8 90.4 335.9C90.4 336 90.3 336.1 90.2 336.1C85.3 336.4 80.4 336.4 75.5 336.5L68.1 336.4C65.6 336.3 63.2 336.3 60.7 336C60.7 336 60.6 335.9 60.7 335.8Z" fill="#bedae6"/>
<path d="M529.1 338.1C531.6 337.8 534 337.8 536.5 337.7L543.9 337.6C548.8 337.7 553.7 337.6 558.6 338C558.7 338 558.8 338.1 558.8 338.2C558.8 338.3 558.7 338.4 558.6 338.4C553.7 338.7 548.8 338.7 543.9 338.8L536.5 338.7C534 338.6 531.6 338.6 529.1 338.3C529 338.3 529 338.2 529.1 338.1C529.1 338.1 529 338.1 529.1 338.1Z" fill="#bedae6"/>
<path d="M514.4 353.3C516.2 353 518 352.9 519.8 352.9C521.6 352.9 523.4 352.8 525.2 352.8C528.8 352.9 532.4 352.8 535.9 353.2C536 353.2 536.1 353.3 536.1 353.4C536.1 353.5 536 353.6 535.9 353.6C532.3 353.9 528.7 353.9 525.2 354C523.4 354 521.6 354 519.8 353.9C518 353.9 516.2 353.8 514.4 353.5C514.3 353.5 514.3 353.4 514.4 353.3C514.3 353.3 514.3 353.3 514.4 353.3Z" fill="#bedae6"/>
<path d="M732.4 350.2C734 349.9 735.6 349.8 737.3 349.8C738.9 349.8 740.5 349.7 742.2 349.7C745.4 349.8 748.7 349.7 751.9 350.1C752 350.1 752.1 350.2 752.1 350.3C752.1 350.4 752 350.5 751.9 350.5C748.7 350.8 745.4 350.8 742.2 350.9C740.6 350.9 739 350.9 737.3 350.8C735.7 350.8 734.1 350.7 732.4 350.4C732.3 350.3 732.3 350.3 732.4 350.2C732.3 350.2 732.3 350.2 732.4 350.2Z" fill="#bedae6"/>
<path d="M665.2 332.5L665.5 378L665.3 383.6H657.3L655.6 356.8L653.7 383.6H646.2L645.2 354.6L645.6 341L646.9 332L665.2 332.5Z" fill="#fff"/>
<path d="M150.8 270.5C151.6 270.5 151.9 270.4 152.7 270.1C155.9 269 157.4 266.3 157.3 263.2C157.3 262.3 158.8 261.7 158.5 260.8C158.1 259.6 156 259.7 155 257.5C153.8 255 150.7 254.3 147.8 255.3C143.7 256.7 141.5 261.1 142.9 265.2" fill="#fff"/>
<path d="M150.8 270.5C151.6 270.5 151.9 270.4 152.7 270.1C155.9 269 157.4 266.3 157.3 263.2C157.3 262.3 158.8 261.7 158.5 260.8C158.1 259.6 156 259.7 155 257.5C153.8 255 150.7 254.3 147.8 255.3C143.7 256.7 141.5 261.1 142.9 265.2" stroke="#006088" stroke-miterlimit="10" stroke-linecap="round" stroke-linejoin="round"/>
<path d="M149.9 260.8C151 263.6 150.8 268.4 147.8 269.5C144.9 270.6 142.8 265.2 142.8 265.2L149.9 260.8Z" fill="#187aa2"/>
<path d="M141.7 302C139.1 321.8 141.3 364 141.3 364H151L151.9 328.6" fill="#006088"/>
<path d="M141.7 302C139.1 321.8 141.3 364 141.3 364H151L151.9 328.6" stroke="#006088" stroke-width="0.7347" stroke-miterlimit="10"/>
<path d="M141.3 363C144.2 363.1 153.1 363.7 154.5 364.1C155.8 364.6 155.9 364.8 154.3 365.1C152.7 365.5 141.3 365.1 141.3 365.1V363Z" fill="#006088" stroke="#006088" stroke-width="0.7347" stroke-miterlimit="10"/>
<path d="M157.5 301.6C157.5 301.6 158.6 316.6 159.1 332C159.5 344.9 158 358.5 158.1 364H147.6C147.7 332.5 141.5 319.4 141.8 302" fill="#6ab3d0"/>
<path d="M205.3 365.4C204 365.8 200 366.6 198.8 367C197.8 367.3 198 368.8 199.1 368.8H209.9C211.1 368.8 212.1 367.7 211.9 366.5L211.7 365.3L205.3 365.4Z" fill="#6ab3d0"/>
<path d="M140.9 280.2C139.7 291 141.7 302 141.7 302L157.6 301.6L157.4 291.8L153.7 289.8L158.2 281.1L155.2 278L150.7 273.3C146.1 272.3 141.5 275.5 140.9 280.2Z" fill="#6ab3d0"/>
<path d="M152.3 289.1L153 340.8H159.6L158.6 292.2L152.3 289.1Z" fill="#6AB3D0"/>
<path d="M150.4 287C156.7 292.4 162.8 294 165.3 291.8C169.1 288.6 162.3 276 161.9 274.2C160.3 267.8 156.8 267.8 155.9 268.5C155 269.2 156.8 273.2 156.8 273.2L158.4 281.7" fill="#fff"/>
<path d="M150.4 287C156.7 292.4 162.8 294 165.3 291.8C169.1 288.6 162.3 276 161.9 274.2C160.3 267.8 156.8 267.8 155.9 268.5C155 269.2 156.8 273.2 156.8 273.2L158.4 281.7" stroke="#006088" stroke-miterlimit="10" stroke-linecap="round" stroke-linejoin="round"/>
<path d="M154.7 278.3L160.5 283.9" stroke="#006088" stroke-miterlimit="10" stroke-linecap="round" stroke-linejoin="round"/>
<path d="M147.6 363C150.5 363.1 159.4 363.7 160.8 364.1C162.1 364.6 162.2 365.3 160.6 365.7C159 366.1 147.6 365.7 147.6 365.7V363Z" fill="#6ab3d0"/>
<path d="M152.1 270.7L151.3 273.3L150.6 270.6L152.1 270.7Z" stroke="#006088" stroke-miterlimit="10" stroke-linecap="round" stroke-linejoin="round"/>
<path d="M155 301.3C150.2 303.4 140.8 302.3 140.8 302.3" stroke="#6AB3D0" stroke-miterlimit="10" stroke-linecap="round" stroke-linejoin="round"/>
<path d="M160.5 315.7C158.9 316 157 315.9 155.1 315.6" stroke="#fff" stroke-miterlimit="10" stroke-linecap="round" stroke-linejoin="round"/>
<path d="M147.2 273.6C149.7 272.7 144.3 269.8 143.9 271.8C143.6 273.8 145 274.3 147.2 273.6Z" stroke="#6AB3D0" stroke-miterlimit="10" stroke-linecap="round" stroke-linejoin="round"/>
<path d="M148.3 273.2C148.3 273.2 151.4 273.6 153 275.2" stroke="#6AB3D0" stroke-miterlimit="10" stroke-linecap="round" stroke-linejoin="round"/>
<path d="M142.3 266L157.9 255.3" stroke="#6AB3D0" stroke-miterlimit="10" stroke-linecap="round" stroke-linejoin="round"/>
<path d="M155.4 265.7C156.1 265.8 156.7 265.5 156.7 265.5" stroke="#006088" stroke-miterlimit="10" stroke-linecap="round" stroke-linejoin="round"/>
<path d="M154.7 262.4C154.5 262.4 154.2 262.3 154.2 262L154.1 261.3C154.1 261.1 154.2 260.8 154.5 260.8C154.7 260.8 155 260.9 155 261.2L155.1 261.9C155.1 262.2 154.9 262.4 154.7 262.4Z" fill="#006088"/>
<path d="M473.9 284.9L472.8 285.3L472 288.2L472.8 299.6L472.3 302.1L472.2 308.4L474.7 312.1L476.5 312.4L478.3 309.9L481.2 310.3L483.5 297.5L473.9 284.9Z" fill="#fff"/>
<path d="M474.2 343.4C469.8 351.8 469.1 355.2 469.8 360C470.5 364.8 475.2 371.1 475.2 371.1" fill="#fff"/>
<path d="M474.2 343.4C469.8 351.8 469.1 355.2 469.8 360C470.5 364.8 475.2 371.1 475.2 371.1" stroke="#6AB3D0" stroke-miterlimit="10" stroke-linecap="round" stroke-linejoin="round"/>
<path d="M487.1 309.2C488.3 316.4 488.6 330 488.6 330L475.2 330.6C475.2 330.6 472.6 315 474.1 312.1" fill="#6AB3D0"/>
<path d="M472.4 301C471.2 310.8 475.7 314.1 477.2 312.2Z" fill="#fff"/>
<path d="M472.4 301C471.2 310.8 475.7 314.1 477.2 312.2" stroke="#6AB3D0" stroke-miterlimit="10" stroke-linecap="round" stroke-linejoin="round"/>
<path d="M471.5 287.5C470.4 288.2 469.7 289.2 469.5 290.5C469.2 292.8 467.3 293.3 467.3 294.5C467.3 295.4 468.8 295.5 469 296.3C469.8 299.1 472 301.2 475.1 301.2" fill="#fff"/>
<path d="M471.5 287.5C470.4 288.2 469.7 289.2 469.5 290.5C469.2 292.8 467.3 293.3 467.3 294.5C467.3 295.4 468.8 295.5 469 296.3C469.8 299.1 472 301.2 475.1 301.2" stroke="#006088" stroke-miterlimit="10" stroke-linecap="round" stroke-linejoin="round"/>
<path d="M471.2 296.9C470.8 297.8 469.9 298.2 469.9 298.2" stroke="#006088" stroke-miterlimit="10" stroke-linecap="round" stroke-linejoin="round"/>
<path d="M470.7 294C470.9 294 471.1 293.8 471.1 293.6V292.9C471.1 292.7 470.9 292.5 470.7 292.5C470.5 292.5 470.3 292.7 470.3 292.9V293.6C470.2 293.8 470.4 294 470.7 294Z" fill="#006088"/>
<path d="M484.4 305.6C480.6 304 472.8 318.3 472.8 318.3L464.9 305.5L460.5 307.3C460.5 307.3 464.5 325.3 472.3 326.1C480.1 326.9 486.2 315.4 486.2 315.4C486.2 315.4 489.3 307.6 484.4 305.6Z" fill="#006088"/>
<path d="M487.9 329.3C491.5 338.1 487.3 388.6 487.3 388.6H477.1C477.1 388.6 472 340.1 475.5 329.9" fill="#fff"/>
<path d="M487.9 329.3C491.5 338.1 487.3 388.6 487.3 388.6H477.1C477.1 388.6 472 340.1 475.5 329.9" stroke="#6AB3D0" stroke-miterlimit="10" stroke-linecap="round" stroke-linejoin="round"/>
<path d="M472 287.2C474.5 289.3 474.7 294.6 475.2 296.9C475.8 299.8 476.8 302.5 474.2 302.7" stroke="#6AB3D0" stroke-miterlimit="10" stroke-linecap="round" stroke-linejoin="round"/>
<path d="M485.1 301.1C487.8 295.3 484.9 285.6 478.6 284.3C476.5 283.9 474 284.9 472.8 285.3" fill="#fff"/>
<path d="M485.1 301.1C487.8 295.3 484.9 285.6 478.6 284.3C476.5 283.9 474 284.9 472.8 285.3" stroke="#6AB3D0" stroke-miterlimit="10" stroke-linecap="round" stroke-linejoin="round"/>
<path d="M488.9 370.8L495.6 379.7L487.4 388.6" stroke="#6AB3D0" stroke-miterlimit="10" stroke-linecap="round" stroke-linejoin="round"/>
<path d="M464.6 306.2C464.4 303.2 463 294.5 461.6 295C460.2 295.6 461.3 299.8 460.9 301.3C460.5 302.7 459.8 304.7 461 307.3" fill="#fff"/>
<path d="M464.6 306.2C464.4 303.2 463 294.5 461.6 295C460.2 295.6 461.3 299.8 460.9 301.3C460.5 302.7 459.8 304.7 461 307.3" stroke="#006088" stroke-miterlimit="10" stroke-linecap="round" stroke-linejoin="round"/>
<path d="M460.6 301.5C460.6 301.5 459.9 300 459.6 300.3C459.3 300.7 460.4 302.5 460.4 302.5" stroke="#006088" stroke-miterlimit="10" stroke-linecap="round" stroke-linejoin="round"/>
<path d="M480.2 296.2C480.2 298.9 479.1 301.2 477.9 301.7Z" fill="#fff"/>
<path d="M480.2 296.2C480.2 298.9 479.1 301.2 477.9 301.7" stroke="#6AB3D0" stroke-miterlimit="10" stroke-linecap="round" stroke-linejoin="round"/>
<path d="M486.1 335.8L483.3 341.2" stroke="#6AB3D0" stroke-miterlimit="10" stroke-linecap="round" stroke-linejoin="round"/>
<path d="M483.9 295.6C485.7 302.1 484.5 311.3 477.6 310.2Z" fill="#fff"/>
<path d="M483.9 295.6C485.7 302.1 484.5 311.3 477.6 310.2" stroke="#6AB3D0" stroke-miterlimit="10" stroke-linecap="round" stroke-linejoin="round"/>
<path d="M338 306.7C338 306.7 331.3 306 330.1 310.4C330.1 310.4 329.3 313.6 330.6 316.1V317.8C330.6 317.8 328.7 316.9 326.8 317.1C326.8 317.1 324.5 317.7 325.1 319.3L326.6 321.6L336.2 327.2C336.2 327.2 339.4 323.7 338.4 321.9L336.2 320.7L335.2 318.1L338 306.7Z" fill="#fff"/>
<path d="M320 284.2C320 284.2 316.4 280.6 313.4 281.2C313.4 281.2 306.5 281.6 306.3 287.5C306.3 287.5 306.5 292.7 307.9 295.4L309.7 296.6L309.2 298.1L307.8 297.8L305.1 303.1L315.7 308.5L317.5 300.9L315.2 300.1L316.5 296.7L320 284.2Z" fill="#fff"/>
<path d="M315.8 300.1L316.8 296.7C319.6 297.1 320.8 295.5 321.9 293C322.2 292.3 323.6 292.4 323.7 291.6C323.8 290.5 322.2 289.8 322.3 287.6C322.3 286.4 322.1 284.8 320.9 284.6C320.9 284.6 315.5 286.9 312.8 289.8C311.6 293.1 310.9 294.7 310.9 294.7L309.5 298.1L315.8 300.1Z" fill="#bedae6"/>
<path d="M336.2 328.4L335.3 337.7C335.3 337.7 330.2 350.9 334.4 345.9C328.8 352.5 322.2 344.3 322 336.6C321.8 328.1 324.7 322.3 328.1 320.6C329.9 319.7 332.6 320.5 334 321.9C335.6 323.6 336.4 326 336.2 328.4Z" fill="#fff" stroke="#6ab3d0" stroke-miterlimit="10" stroke-linecap="round" stroke-linejoin="round"/>
<path d="M330.6 316.1C334.9 315.3 336.2 320.2 336.2 320.2" stroke="#6AB3D0" stroke-miterlimit="10" stroke-linecap="round" stroke-linejoin="round"/>
<path d="M332.7 320.7C334.5 320.5 338.2 320.5 338.7 322.6C338.9 323.4 338.5 324.8 337.6 325.4" stroke="#6AB3D0" stroke-miterlimit="10" stroke-linecap="round" stroke-linejoin="round"/>
<path d="M331.9 318.6C329.7 317.1 327.1 316.3 325.5 317.9C324.8 318.6 325 320.5 326.6 321.6" stroke="#6AB3D0" stroke-miterlimit="10" stroke-linecap="round" stroke-linejoin="round"/>
<path d="M299.2 347.7C300.5 356.2 285.8 380.4 285.8 380.4L292.5 390.2C292.5 390.2 305.3 371.8 307.9 364.1" stroke="#006088" stroke-miterlimit="10" stroke-linecap="round" stroke-linejoin="round"/>
<path d="M319.2 358.5L325.5 391.2L315.1 392.5L305.3 353.8" stroke="#006088" stroke-miterlimit="10" stroke-linecap="round" stroke-linejoin="round"/>
<path d="M311.5 302.8C318.8 306.6 318.3 318.1 319.1 323.3C320 328.5 321.2 358.3 321.2 358.3L293.6 357.2C293.5 357.2 292.8 293.2 311.5 302.8Z" fill="#6ab3d0"/>
<path d="M336.2 360.5L341.1 387.7C341.2 388.5 341.9 389.1 342.7 389.2C344.1 389.4 346.2 390 346.2 391.7C346.2 392.1 342.6 392.3 339.8 392.4C338 392.4 336.3 391.3 335.8 389.5L327.5 362.9" fill="#6AB3D0"/>
<path d="M330 363.7L314.9 386.9C314.4 387.6 314.5 388.5 315 389.1C315.9 390.2 317 392.1 315.8 393.3C315.5 393.6 312.8 391.3 310.7 389.4C309.3 388.2 309 386.2 309.8 384.6L322 359.5" fill="#6AB3D0"/>
<path d="M338.6 304.8L336.4 311.4C335.8 313.1 334.1 314.2 332.3 313.9L326.8 313C326.8 313.1 329.8 301.8 338.6 304.8Z" fill="#006088"/>
<path d="M320 293.2C320.3 294.1 321.2 294.4 321.2 294.4" stroke="#006088" stroke-miterlimit="10" stroke-linecap="round" stroke-linejoin="round"/>
<path d="M335.3 337.7L341 377.2L309 373.3L322.1 336.6L335.3 337.7Z" fill="#fff" stroke="#6ab3d0" stroke-miterlimit="10" stroke-linecap="round" stroke-linejoin="round"/>
<path d="M331.2 323C334.5 324.2 331.6 339.2 331.6 339.2L334.6 352.5L333.5 352.7C331.1 353.2 328.7 351.8 328.1 349.5L325.5 340.4C325.5 340.5 325.5 320.9 331.2 323Z" fill="#6AB3D0"/>
<path d="M305 310.4C303.5 321.7 302.7 324.9 307.2 332C309.4 335.5 313.5 339.8 313.5 339.8" stroke="#006088" stroke-miterlimit="10" stroke-linecap="round" stroke-linejoin="round"/>
<path d="M312.5 315C312.5 315 312.6 319.7 312.5 321.8" stroke="#006088" stroke-miterlimit="10" stroke-linecap="round" stroke-linejoin="round"/>
<path d="M314.1 323.9L310.5 323.4" stroke="#006088" stroke-miterlimit="10" stroke-linecap="round" stroke-linejoin="round"/>
<path d="M315.4 325.4L313.4 326.3" stroke="#006088" stroke-miterlimit="10" stroke-linecap="round" stroke-linejoin="round"/>
<path d="M318.7 333.8L310.5 343.6" stroke="#fff" stroke-miterlimit="10" stroke-linecap="round" stroke-linejoin="round"/>
<path d="M315.4 327.2L318.7 333.8" stroke="#006088" stroke-miterlimit="10" stroke-linecap="round" stroke-linejoin="round"/>
<path d="M314.6 289.9L324.5 287.4" stroke="#006088" stroke-miterlimit="10" stroke-linecap="round" stroke-linejoin="round"/>
<path d="M324.1 285.7L324.8 289.3" stroke="#006088" stroke-miterlimit="10" stroke-linecap="round" stroke-linejoin="round"/>
<path d="M320.3 282.9C320.1 286.3 314.4 287.4 312.6 289.8C310.8 292.2 311.5 294.3 311.5 294.3" stroke="#006088" stroke-miterlimit="10" stroke-linecap="round" stroke-linejoin="round"/>
<path d="M318.2 282.9C316.5 280.4 309.6 280.6 307.4 284.2C304.7 288.7 307.9 295.4 307.9 295.4" stroke="#006088" stroke-miterlimit="10" stroke-linecap="round" stroke-linejoin="round"/>
<path d="M307.4 297.4L317.7 300.7L316.8 303.9" stroke="#6ab3d0" stroke-miterlimit="10" stroke-linecap="round" stroke-linejoin="round"/>
<path d="M320.8 284.6C321.7 285.4 322.2 286.4 322.2 287.6C322.2 289.8 323.8 290.5 323.6 291.6C323.5 292.4 322.1 292.3 321.8 293C320.7 295.5 319.6 297.1 316.7 296.7L315.7 300.1" stroke="#006088" stroke-miterlimit="10" stroke-linecap="round" stroke-linejoin="round"/>
<path d="M328.8 306.7H330.6V304.9C330.6 303.9 329.8 303.1 328.8 303.1C327.8 303.1 327 303.9 327 304.9C327 305.9 327.8 306.7 328.8 306.7Z" fill="#006088"/>
<path d="M338.4 305.3C339.7 305.9 340.1 306.8 340.3 308C340.6 310.2 342.3 310.6 342.3 311.7C342.3 312.5 340.9 312.6 340.7 313.4C340 316 338 317.9 335.2 317.9" fill="#fff"/>
<path d="M338.4 305.3C339.7 305.9 340.1 306.8 340.3 308C340.6 310.2 342.3 310.6 342.3 311.7C342.3 312.5 340.9 312.6 340.7 313.4C340 316 338 317.9 335.2 317.9" stroke="#006088" stroke-miterlimit="10" stroke-linecap="round" stroke-linejoin="round"/>
<path d="M338.4 314.9C339 315.4 339.7 315.4 339.7 315.4" stroke="#006088" stroke-width="1.1052" stroke-miterlimit="10" stroke-linecap="round" stroke-linejoin="round"/>
<path d="M338.6 304.8C339.4 306.1 340.3 308 340.3 308L336.2 308.5L336.4 306.1L338.6 304.8Z" fill="#006088"/>
<path d="M338.9 311.8C338.7 311.8 338.5 311.6 338.5 311.4V310.7C338.5 310.5 338.7 310.3 338.9 310.3C339.1 310.3 339.3 310.5 339.3 310.7V311.4C339.3 311.6 339.2 311.8 338.9 311.8Z" fill="#006088"/>
<path d="M207.7 290.7H201.7L200.7 277H207.7V290.7Z" fill="#bedae6"/>
<path d="M214.1 288.8C217.1 288.4 225.3 298.7 226.8 302.6C228.3 306.6 218.5 308.9 218.5 308.9" fill="#bedae6"/>
<path d="M214.1 288.8C217.1 288.4 225.3 298.7 226.8 302.6C228.3 306.6 218.5 308.9 218.5 308.9" stroke="#006088" stroke-miterlimit="10" stroke-linecap="round" stroke-linejoin="round"/>
<path d="M224.7 338.2C224.7 338.2 230.4 349.1 229.6 359.5L228.7 362.2L210.6 337.2" fill="#bedae6"/>
<path d="M224.7 338.2C224.7 338.2 230.4 349.1 229.6 359.5L228.7 362.2L210.6 337.2" stroke="#006088" stroke-miterlimit="10" stroke-linecap="round" stroke-linejoin="round"/>
<path d="M202.9 336.3C202.9 336.3 204.2 362.2 205.6 366.6L211 366.5C211.3 357.4 214.4 345.8 214.7 334.1" fill="#bedae6"/>
<path d="M202.9 336.3C202.9 336.3 204.2 362.2 205.6 366.6L211 366.5C211.3 357.4 214.4 345.8 214.7 334.1" stroke="#006088" stroke-miterlimit="10" stroke-linecap="round" stroke-linejoin="round"/>
<path d="M200.7 283.6C202 283.9 203.5 283.5 203.5 283.5C203.6 283.5 203.6 283.6 203.6 283.6L201.3 286L200.7 283.4" fill="#006088"/>
<path d="M200.7 283.6C202 283.9 203.5 283.5 203.5 283.5C203.6 283.5 203.6 283.6 203.6 283.6L201.3 286L200.7 283.4" stroke="#006088" stroke-width="0.8764" stroke-miterlimit="10"/>
<path d="M202.3 267.9C199.2 267.8 196.4 269.2 196 272C195.6 274.4 193.6 274.9 193.5 276.2C193.5 277.1 195.1 277.3 195.3 278.2C196 281.2 198.2 283.4 201.6 283.6C202.4 283.6 202.8 283.6 203.5 283.4" fill="#bedae6"/>
<path d="M202.3 267.9C199.2 267.8 196.4 269.2 196 272C195.6 274.4 193.6 274.9 193.5 276.2C193.5 277.1 195.1 277.3 195.3 278.2C196 281.2 198.2 283.4 201.6 283.6C202.4 283.6 202.8 283.6 203.5 283.4" stroke="#006088" stroke-miterlimit="10" stroke-linecap="round" stroke-linejoin="round"/>
<path d="M197.4 278.7C197 279.7 196 280.1 196 280.1" stroke="#006088" stroke-miterlimit="10" stroke-linecap="round" stroke-linejoin="round"/>
<path d="M197 275.7C197.2 275.7 197.4 275.5 197.4 275.3V274.5C197.4 274.3 197.2 274.1 197 274.1C196.8 274.1 196.6 274.3 196.6 274.5V275.3C196.6 275.5 196.8 275.7 197 275.7Z" fill="#006088"/>
<path d="M201 286.9C209.4 284.2 212.9 286.2 216.1 291C221.3 298.9 218.3 300.9 220.2 308.1C222.1 315.3 226.5 318.4 225.7 338.9H201.7C201.7 338.9 199.4 315.2 200.1 308.3" fill="#6ab3d0"/>
<path d="M225.9 359.3C225.9 359.3 231.5 369.1 233.3 368.7C234.4 368.5 232.6 363.7 232 361.5C231.6 359.9 231.2 358.9 229.6 359.1L225.9 359.3Z" fill="#6ab3d0"/>
<path d="M196.2 295.6C196.2 295.6 194.6 294.4 193.3 292.2C191.4 288.8 186.5 283 185.3 284.6C184.1 286.1 186.2 291.5 188 292.4C189.3 296.7 196.2 311.1 200.3 310C204.4 308.9 207.7 287 202 287.3C196.3 287.6 195.9 300.2 195.9 300.2" fill="#bedae6"/>
<path d="M196.2 295.6C196.2 295.6 194.6 294.4 193.3 292.2C191.4 288.8 186.5 283 185.3 284.6C184.1 286.1 186.2 291.5 188 292.4C189.3 296.7 196.2 311.1 200.3 310C204.4 308.9 207.7 287 202 287.3C196.3 287.6 195.9 300.2 195.9 300.2" stroke="#006088" stroke-miterlimit="10" stroke-linecap="round" stroke-linejoin="round"/>
<path d="M216.2 281.6C215.6 280.6 214.9 279.8 214.1 279.2C213.4 278.6 212.9 277.8 212.7 276.9C212.5 275.6 212.1 274.4 211.5 273.5C210.7 272.3 209.2 271.3 207.7 270.9C206.3 268.5 205.1 268.1 203.4 267.6C200.6 266.7 197.9 268.4 197.9 268.4C197.5 271.6 198.8 275.1 201.7 275.3C201.2 277.7 202.6 281 205.3 281.8C205 283.6 205.4 285.8 206.6 287.7C208.8 291.3 212.8 292.8 215.4 291.2C218.1 289.4 218.4 285.2 216.2 281.6Z" fill="#006088"/>
<path d="M600.1 325.1C600.3 335.5 599.3 351.9 599.5 355C599.5 355.6 600.1 356.1 600.7 356.1H609.7L610.9 342L612.5 356.1H621.6C622.3 356.1 622.8 355.6 622.8 354.9L620.2 325H600.1" fill="#6AB3D0"/>
<path d="M604.8 307.9L600.2 309.9L593.5 306.7C598.4 292.6 606.6 291.9 606.6 291.9L610.4 294.5L614.3 291.9C623 294.1 626.1 304.9 626.1 308.3L619.6 310.1L622.2 325.2H598.2L599.1 317.3C599.1 317.3 604.9 312.1 605.8 311.3" fill="#006088"/>
<path d="M608.4 304.5C608.8 303.4 608 302.9 607.5 303.5L606.6 305.3" fill="#fff"/>
<path d="M593.8 319.5C597.3 320.7 605.7 311.2 605.7 311.2C605.7 311.2 608 311.2 608.6 308.5C609 306.7 610.6 307.1 611.6 307.6C611.9 307.8 612.3 307.5 612.3 307.1C612.3 305.9 611.5 304.9 610.4 304.7C608.8 304.4 607.1 305 606 306.2L607.5 303.6L604.8 307.9L597.1 311.2" fill="#fff"/>
<path d="M614.9 277.5C615.6 278.6 615.9 279.9 616.1 281.2C616.2 282.5 616.2 283.8 615.8 285.1C615.4 286.4 614.6 287.6 613.5 288.4C612.4 289.2 611 289.6 609.7 289.6C608.4 289.6 607 289.3 605.8 288.5C604.7 287.7 604 286.4 603.6 285.2C602.9 282.7 603.2 279.9 604.5 277.7C604.5 277.6 604.6 277.6 604.7 277.6C604.8 277.6 604.8 277.7 604.8 277.8C604.1 280.1 604 282.6 604.6 284.9C604.9 286 605.5 287 606.4 287.7C607.3 288.4 608.4 288.6 609.6 288.6C610.8 288.5 611.9 288.2 612.8 287.6C613.7 287 614.4 286 614.7 284.9C615.1 283.8 615.1 282.6 615 281.4C614.9 280.2 614.5 279.1 614.3 277.9C614.3 277.7 614.4 277.5 614.6 277.5C614.7 277.4 614.8 277.4 614.9 277.5Z" fill="#006088"/>
<path d="M611 283.1L611.1 284.8C611.1 285.1 610.9 285.3 610.6 285.3C610.3 285.3 610.1 285.1 610.1 284.8V284.7L610.2 283C610.2 282.8 610.4 282.6 610.6 282.7C610.8 282.8 610.9 282.9 611 283.1Z" fill="#006088"/>
<path d="M608.2 283.9V284.4" stroke="#006088" stroke-miterlimit="10" stroke-linecap="round" stroke-linejoin="round"/>
<path d="M613.1 283.9V284.4" stroke="#006088" stroke-miterlimit="10" stroke-linecap="round" stroke-linejoin="round"/>
<path d="M597 310.9C597.4 310.5 598 310.3 598.5 310.1L600 309.4L603.1 308L603.9 307.7L604.3 307.5C604.4 307.5 604.4 307.4 604.5 307.4C604.6 307.3 604.6 307.3 604.7 307.2L604.9 306.8L605.4 306.1C606 305.2 606.6 304.2 607.2 303.3C607.4 303.1 607.6 303 608 302.9C608.3 302.9 608.7 303.1 608.8 303.3C609.1 303.8 608.9 304.3 608.7 304.6C608.7 304.7 608.6 304.7 608.5 304.7C608.4 304.7 608.4 304.6 608.4 304.5C608.4 304.2 608.4 303.8 608.2 303.7C608.1 303.6 608.1 303.7 608.1 303.7C608.1 303.7 608 303.8 607.9 303.9L608 303.8C607.5 304.8 606.9 305.7 606.3 306.7L605.9 307.4L605.7 307.8C605.6 307.9 605.5 308.1 605.4 308.2C605.3 308.3 605.1 308.5 604.9 308.5L604.5 308.7L603.7 309L600.6 310.3L599.1 311C598.6 311.2 598.1 311.5 597.5 311.5C597.3 311.5 597.1 311.4 597.1 311.2C596.9 311.1 596.9 311 597 310.9Z" fill="#006088"/>
<path d="M605.7 305.9C605.7 305.5 606 305.4 606.2 305.2C606.4 305 606.6 304.8 606.9 304.7C607.4 304.4 607.9 304.1 608.6 304C609.2 303.9 609.8 304 610.4 304.2C611 304.4 611.5 304.7 611.7 305.3C611.7 305.4 611.7 305.5 611.6 305.6H611.5C610.9 305.5 610.5 305.4 610 305.2C609.6 305.1 609.1 305.1 608.7 305.1C608.3 305.2 607.8 305.3 607.4 305.6C607.2 305.7 607 305.9 606.8 306C606.6 306.1 606.5 306.4 606.1 306.4C605.9 306.4 605.7 306.2 605.7 305.9C605.7 305.9 605.7 306 605.7 305.9Z" fill="#006088"/>
<path d="M612 306.1C610.6 305 609.1 305.4 607.8 306.4" stroke="#006088" stroke-miterlimit="10" stroke-linecap="round" stroke-linejoin="round"/>
<path d="M600.8 309.3C600.7 309 600.9 308.9 601 308.7L601.3 308.1C601.5 307.7 601.7 307.3 601.8 307C602 306.6 602.2 306.2 602.4 305.9C602.6 305.5 602.8 305.1 603.2 304.9C603.3 304.8 603.4 304.9 603.5 305C603.5 305 603.5 305 603.5 305.1C603.6 305.6 603.5 306 603.3 306.4C603.1 306.8 603 307.2 602.8 307.6C602.6 308 602.4 308.4 602.2 308.7L601.9 309.3C601.8 309.5 601.7 309.7 601.4 309.8C601.1 309.7 600.9 309.6 600.8 309.3Z" fill="#006088"/>
<path d="M602 357C602.3 357.8 602.2 358.6 602.3 359.3L602.4 361.7C602.5 363.3 602.6 364.8 602.6 366.4C602.7 368 602.7 369.5 602.8 371.1C602.9 372.7 602.9 374.2 602.7 375.8C602.7 375.9 602.6 376 602.5 375.9C602.4 375.9 602.4 375.8 602.4 375.8C602 374.2 601.9 372.7 601.8 371.1C601.7 369.5 601.6 368 601.6 366.4C601.5 364.8 601.5 363.3 601.4 361.7L601.3 359.3C601.3 358.5 601.2 357.7 601.4 356.9C601.4 356.7 601.6 356.6 601.8 356.6C601.9 356.8 602 356.9 602 357Z" fill="#006088"/>
<path d="M609.4 357.1C609.6 357.8 609.4 358.4 609.4 359.1L609.2 361C609.1 362.3 609 363.6 608.9 364.9C608.8 366.2 608.6 367.5 608.5 368.8C608.4 370.1 608.2 371.4 607.8 372.7C607.8 372.8 607.7 372.8 607.6 372.8C607.5 372.8 607.5 372.7 607.5 372.7C607.3 371.4 607.4 370.1 607.5 368.8C607.6 367.5 607.7 366.2 607.8 364.9C607.9 363.6 608.1 362.3 608.2 361L608.4 359.1C608.5 358.5 608.5 357.8 608.8 357.2C608.9 357 609.1 356.9 609.3 357C609.3 356.9 609.4 357 609.4 357.1Z" fill="#006088"/>
<path d="M599.7 344.4C600 344.2 600.3 344.3 600.6 344.2H601.5C602.1 344.2 602.6 344.2 603.2 344.2C603.8 344.2 604.3 344.2 604.9 344.2C605.5 344.2 606 344.2 606.6 344.5C606.7 344.5 606.7 344.7 606.7 344.8C606.7 344.8 606.7 344.9 606.6 344.9C606 345.2 605.5 345.2 604.9 345.2C604.3 345.2 603.8 345.2 603.2 345.2C602.6 345.2 602.1 345.2 601.5 345.2H600.6C600.3 345.2 600 345.3 599.7 345C599.5 344.9 599.5 344.6 599.7 344.4Z" fill="#006088"/>
<path d="M599.9 347C600.2 346.8 600.5 346.9 600.8 346.8H601.7H602.6H603.1C603.2 346.8 603.3 346.8 603.5 346.8C604 346.7 604.4 346.5 604.7 346.1C605 345.7 605.2 345.3 605.6 344.7C605.7 344.6 605.8 344.6 605.9 344.6L606 344.7C606.2 345.3 606.1 346.1 605.6 346.7C605.2 347.3 604.5 347.7 603.7 347.8C603.5 347.8 603.3 347.8 603.2 347.8H602.7H601.8H600.9C600.6 347.8 600.3 347.9 600 347.6C599.8 347.5 599.7 347.2 599.9 347Z" fill="#006088"/>
<path d="M618.3 341.2C618.4 341 618.6 341 618.7 341H619.2C619.5 341 619.8 341 620.1 341C620.4 341 620.7 341.1 621 341.1C621.3 341.2 621.6 341.2 621.8 341.6C621.9 341.7 621.8 341.8 621.7 341.9C621.4 342.1 621.1 342.1 620.8 342.1C620.5 342.1 620.2 342.1 620 342.1C619.7 342.1 619.4 342 619.2 342H618.8C618.7 342 618.5 342.1 618.4 341.8C618.2 341.6 618.2 341.3 618.3 341.2Z" fill="#006088"/>
<path d="M606.9 274C607.1 276.4 605 287.8 605 287.8C602.6 287.6 599.7 281 602.3 275.9C604 272.7 606.9 274 606.9 274Z" fill="#6ab3d0"/>
<path d="M604.8 275.8C604.8 275.8 607.8 280.2 609.1 280.5C611 280.9 616.9 280.3 616.9 280.3C616.9 280.3 616 273.7 610.9 273C605.8 272.3 605.1 275.7 605.1 275.7" fill="#6ab3d0"/>
<path d="M608.5 281.3C608.4 281.3 608.3 281.3 608.1 281.3C608 281.3 607.8 281.3 607.6 281.3C607.3 281.3 606.9 281.4 606.6 281.5H606.5C606.3 281.6 606.1 281.5 606.1 281.3C606.1 281.2 606.1 281.1 606.2 281C606.5 280.5 607 280.4 607.5 280.3C607.7 280.3 608 280.3 608.3 280.3C608.6 280.4 608.9 280.5 609 280.8C609.1 281 609 281.1 608.9 281.2C608.8 281.2 608.8 281.2 608.7 281.2L608.5 281.3Z" fill="#006088"/>
<path d="M612.2 280.9C612.4 280.6 612.7 280.5 612.9 280.4C613.2 280.4 613.4 280.3 613.7 280.4C614.2 280.5 614.6 280.7 615 281.1C615.1 281.2 615.1 281.5 614.9 281.6C614.8 281.7 614.7 281.7 614.6 281.7H614.5C614.2 281.6 613.9 281.5 613.5 281.5C613.3 281.5 613.2 281.5 613 281.5C612.9 281.5 612.8 281.5 612.6 281.5H612.4C612.2 281.5 612.1 281.4 612.1 281.2C612.2 281 612.2 281 612.2 280.9Z" fill="#006088"/>
<path d="M609.9 286.1C610.1 286.2 610.3 286.2 610.6 286.2C610.9 286.2 611 286.2 611.3 286.1L611.4 286C611.6 285.9 611.8 286 611.8 286.2C611.8 286.3 611.8 286.4 611.8 286.4C611.7 286.7 611.5 286.9 611.3 287C611.1 287.1 610.8 287.2 610.6 287.2C610.1 287.2 609.6 287 609.4 286.5C609.3 286.3 609.4 286.1 609.6 286.1C609.7 286.1 609.7 286.1 609.8 286.1H609.9Z" fill="#006088"/>
<path d="M606 276.5C606 276.5 605.7 278.6 608 280.6" stroke="#6ab3d0" stroke-width="2" stroke-miterlimit="10" stroke-linecap="round" stroke-linejoin="round"/>
<path d="M595.6 307.3C595.2 308.5 594.7 309.5 594.2 310.6C593.7 311.7 593.2 312.8 592.9 313.9C592.5 315 592.2 316.2 592.4 317.2C592.5 317.7 592.7 318.1 593 318.4C593.2 318.5 593.4 318.7 593.6 318.8C593.9 318.9 594.1 319 594.3 319C595.2 319.1 596.3 318.5 597.3 317.9C598.3 317.3 599.2 316.6 600.1 315.8C601.9 314.3 603.6 312.6 605.2 310.8C605.3 310.7 605.4 310.6 605.6 310.6C606.1 310.6 606.7 310.3 607.1 310C607.5 309.6 607.8 309.1 608 308.5C608.1 308.2 608.2 307.8 608.5 307.4C608.7 307.1 609.1 306.8 609.6 306.7C610 306.6 610.4 306.7 610.8 306.9C611.1 307.1 611.4 307.2 611.7 307.5C611.8 307.6 611.8 307.7 611.7 307.7C611.6 307.8 611.6 307.8 611.5 307.7C610.9 307.4 610.3 307.2 609.8 307.3C609.3 307.4 609.1 308 609 308.6C608.8 309.3 608.5 310.1 607.9 310.6C607.3 311.2 606.6 311.5 605.7 311.5L606.1 311.3C604.5 313.1 602.8 314.9 600.9 316.5C600 317.3 599 318.1 598 318.7C596.9 319.3 595.8 320 594.3 320C594.1 320 593.9 319.9 593.7 319.9C593.5 319.8 593.4 319.8 593.2 319.7C592.9 319.6 592.6 319.4 592.3 319.1C591.7 318.6 591.4 317.9 591.3 317.2C591.1 315.8 591.5 314.6 591.9 313.4C592.3 312.2 592.8 311.1 593.3 310C593.8 308.9 594.3 307.8 595 306.8C595.1 306.6 595.3 306.6 595.5 306.7C595.6 307 595.6 307.1 595.6 307.3Z" fill="#006088"/>
<path d="M607.6 377.3C607.6 377.7 607.3 377.9 606.9 377.9C597.8 377.9 595.5 379 594.9 377.3C594.5 375.9 604 374.5 607.1 374.1C607.6 374 608 374.4 607.9 374.9L607.6 377.3Z" fill="#006088"/>
<path d="M621.2 356.8C621.4 357.5 621.3 358.2 621.3 358.9L621.2 361C621.1 362.4 621.1 363.8 621 365.2C620.9 366.6 620.8 368 620.7 369.4C620.6 370.8 620.5 372.2 620.1 373.6C620.1 373.7 620 373.7 619.9 373.7C619.8 373.7 619.8 373.6 619.8 373.6C619.6 372.2 619.6 370.8 619.7 369.3C619.8 367.9 619.8 366.5 619.9 365.1C620 363.7 620.1 362.3 620.2 360.9L620.3 358.8C620.4 358.1 620.3 357.4 620.6 356.7C620.7 356.5 620.9 356.4 621.1 356.5C621.1 356.6 621.1 356.7 621.2 356.8Z" fill="#006088"/>
<path d="M611.2 341.1C611.6 342.5 611.7 344 611.9 345.4L612.4 349.7C612.7 352.6 613.1 355.4 613.4 358.3L614.4 366.9C614.7 369.8 615 372.6 615.1 375.5C615.1 375.6 615 375.7 614.9 375.7C614.8 375.7 614.8 375.6 614.7 375.6C614.1 372.8 613.7 369.9 613.3 367L612.2 358.4C611.8 355.5 611.5 352.7 611.2 349.8L610.7 345.5C610.6 344.1 610.3 342.6 610.4 341.2C610.4 341 610.6 340.9 610.8 340.9C611 340.9 611.1 341 611.2 341.1Z" fill="#006088"/>
<path d="M614.5 377.3C614.5 377.7 614.8 377.9 615.2 377.9C624.3 377.9 626.6 379 627.2 377.3C627.6 375.9 618.1 374.5 615 374.1C614.5 374 614.1 374.4 614.2 374.9L614.5 377.3Z" fill="#006088"/>
<path d="M643 335C640.9 337.8 642.3 344.1 643.7 344.1C645.6 344.1 643.1 340.6 643.5 339.3C643.9 338 644.2 337.7 644.5 337.8C644.8 337.9 644.4 341.7 645.4 341.6L645.8 334.9L643 335Z" fill="#bedae6"/>
<path d="M644.6 337.2C644.4 338.2 644.3 339.2 644.3 340.2C644.3 341.2 644.5 342.2 644.5 343.3C644.5 343.4 644.4 343.5 644.3 343.5C644.2 343.5 644.2 343.5 644.2 343.4C643.5 342.5 643.3 341.3 643.3 340.2C643.3 339.1 643.5 337.9 644 336.9C644.1 336.7 644.3 336.7 644.5 336.8C644.5 336.8 644.6 337 644.6 337.2Z" fill="#006088"/>
<path d="M653.252 301.672L659.652 301.672L659.652 295.372L653.252 295.372L653.252 301.672Z" fill="#bedae6"/>
<path d="M659.6 298.3L659.4 298.5C658.8 299.2 656.2 301.2 656.2 301.2C656.2 301.2 653.9 299.2 653.2 298.3L651.6 299.6L654.3 313.8L662.4 303.3L661.3 299L659.6 298.3Z" fill="#fff"/>
<path d="M669.9 345.7H671.3C671.8 345.7 672.2 345.7 672.6 345.6C673.4 345.3 674 344.7 674.1 343.9C674.1 343.7 674.1 343.5 674.1 343.3V342.6C674.1 342.2 674 341.8 673.8 341.5C673.4 340.8 672.6 340.4 671.9 340.4H670.5C670 340.4 669.6 340.4 669.2 340.5C668.4 340.7 667.8 341.4 667.6 342.2C667.5 342.6 667.5 343.1 667.5 343.5C667.5 343.9 667.6 344.3 667.8 344.7C668.2 345.5 669 346 669.9 346V345.7ZM669.9 346.2C668.9 346.3 667.8 345.7 667.3 344.8C667 344.4 666.9 343.8 666.8 343.3C666.8 342.8 666.7 342.4 666.8 341.8C667 340.7 667.8 339.8 668.9 339.4C669.2 339.3 669.4 339.3 669.7 339.2C670 339.2 670.2 339.2 670.4 339.2H671.8C672.9 339.2 674 339.8 674.6 340.8C674.9 341.3 675 341.8 675 342.4V343.1C675 343.3 675 343.6 674.9 343.9C674.7 345 673.8 345.9 672.7 346.2C672.2 346.4 671.6 346.3 671.2 346.3H669.8V346.2H669.9Z" fill="#006088"/>
<path d="M668.3 333.7C668.5 336.1 666.1 339.5 667.2 340.2C668 340.6 669.3 337.7 669.3 337.7C670 337.6 669.9 339.8 669.5 340.7C669.1 341.6 670.2 341.9 671.3 341.3C672.4 340.7 673.9 337.9 671.5 333.5" fill="#bedae6"/>
<path d="M663 286C663.2 293.1 658.7 297.4 656.5 297.4C654.2 297.4 649.5 292.3 650 286C650.2 283.2 652.1 281.2 656.8 281.6C661.5 282 662.9 282.5 663 286Z" fill="#bedae6"/>
<path d="M650.5 287C650.8 288.1 650.7 289.2 651 290.2C651.2 291.2 651.6 292.2 652.1 293.1C652.6 294 653.3 294.8 654.2 295.3C655 295.8 656 296.2 657 296C657.9 295.9 658.9 295.4 659.6 294.7C660.3 294 660.9 293.1 661.4 292.2C662.3 290.3 662.6 288.1 662.9 286C662.9 285.9 663 285.8 663.1 285.9C663.2 285.9 663.2 286 663.2 286C663.5 288.2 663.2 290.6 662.3 292.7C661.8 293.8 661.2 294.7 660.3 295.6C659.5 296.4 658.4 297.1 657.1 297.3C655.8 297.5 654.6 297.1 653.6 296.4C652.6 295.7 651.8 294.8 651.2 293.8C650.6 292.8 650.3 291.7 650 290.5C649.8 289.4 649.6 288.2 649.8 287.1C649.8 286.9 650 286.8 650.2 286.8C650.3 286.7 650.4 286.8 650.5 287Z" fill="#006088"/>
<path d="M655.3 281.2C651.3 281.2 648.6 283.2 649.4 284.7C650.2 286.1 657.3 283.8 658.9 285.5C659.9 286.6 659.9 288.9 659.8 290.4C659.7 291.3 660.2 292.1 661 292.4L661.9 292.9C664.2 287.5 665.7 281.2 655.3 281.2Z" fill="#006088"/>
<path d="M655.5 289.3L655.6 292.2C655.6 292.5 655.4 292.7 655.1 292.7C654.8 292.7 654.6 292.5 654.6 292.2L654.7 289.3C654.7 289.1 654.9 288.9 655.1 288.9C655.4 288.9 655.5 289.1 655.5 289.3Z" fill="#006088"/>
<path d="M652.3 289.3V289.8" stroke="#006088" stroke-miterlimit="10" stroke-linecap="round" stroke-linejoin="round"/>
<path d="M657.4 289.3V289.8" stroke="#006088" stroke-miterlimit="10" stroke-linecap="round" stroke-linejoin="round"/>
<path d="M653.3 287.7C653.2 287.7 653.1 287.7 652.9 287.7C652.8 287.7 652.6 287.7 652.4 287.7C652.1 287.7 651.7 287.8 651.4 287.9H651.3C651.1 288 650.9 287.9 650.9 287.7C650.9 287.6 650.9 287.5 651 287.4C651.3 286.9 651.8 286.8 652.3 286.7C652.5 286.7 652.8 286.7 653.1 286.7C653.4 286.8 653.7 286.9 653.8 287.2C653.9 287.4 653.8 287.5 653.7 287.6C653.6 287.6 653.6 287.6 653.5 287.6L653.3 287.7Z" fill="#006088"/>
<path d="M656.6 287.3C656.8 287 657.1 286.9 657.3 286.8C657.6 286.8 657.8 286.7 658.1 286.8C658.6 286.9 659 287.1 659.4 287.5C659.5 287.6 659.5 287.9 659.3 288C659.2 288.1 659.1 288.1 659 288.1H658.9C658.6 288 658.3 287.9 657.9 287.9C657.7 287.9 657.6 287.9 657.4 287.9C657.3 287.9 657.2 287.9 657 287.9H656.8C656.6 287.9 656.5 287.8 656.5 287.6C656.5 287.4 656.5 287.4 656.6 287.3Z" fill="#006088"/>
<path d="M654.7 293.7C654.9 293.8 655.1 293.8 655.4 293.8C655.7 293.8 655.8 293.8 656.1 293.7L656.2 293.6C656.4 293.5 656.6 293.6 656.6 293.8C656.6 293.9 656.6 294 656.6 294C656.5 294.3 656.3 294.5 656.1 294.6C655.9 294.7 655.6 294.8 655.4 294.8C654.9 294.8 654.4 294.6 654.2 294.1C654.1 293.9 654.2 293.7 654.4 293.7C654.5 293.7 654.5 293.7 654.6 293.7H654.7Z" fill="#006088"/>
<path d="M653.5 291H651.7C651.3 291 650.9 290.6 650.8 290L650.7 288.9C650.7 288.6 650.9 288.4 651.1 288.4H654C654.2 288.4 654.4 288.6 654.4 288.9L654.3 290C654.3 290.6 654 291 653.5 291Z" stroke="#e6f1f5" stroke-width="0.5" stroke-miterlimit="10" stroke-linecap="round" stroke-linejoin="round"/>
<path d="M658.7 291H657C656.6 291 656.2 290.6 656.1 290L656 289C656 288.7 656.2 288.5 656.4 288.5H659.3C659.5 288.5 659.7 288.7 659.7 289L659.6 290.1C659.5 290.6 659.2 291 658.7 291Z" stroke="#e6f1f5" stroke-width="0.5" stroke-miterlimit="10" stroke-linecap="round" stroke-linejoin="round"/>
<path d="M654.5 289H656" stroke="#e6f1f5" stroke-width="0.5" stroke-miterlimit="10" stroke-linecap="round" stroke-linejoin="round"/>
<path d="M661.4 299.8C669.3 299.4 670.4 302 674.5 320.7C674.6 321 674.6 321.3 674.6 321.5C674.7 327.4 674.5 330.9 674.3 332.8C674.2 333.8 673.3 334.5 672.3 334.5H666.9L667.7 321.7L666.7 317.4L665.4 332.5H646.4V335H643C642 335 641.2 334.2 641.2 333.2C641.4 326.6 641.6 305.7 644.1 301.7C645.7 299.3 651.7 300.3 651.7 300.3L655.8 308.2L661.4 299.8Z" fill="#187AA2"/>
<path d="M665.3 300L655.9 317.2L647.3 300.2L651.7 299.6L655.9 308.3L661.4 299.1L665.3 300Z" fill="#006088"/>
<path d="M656.2 315.5C656.4 315.9 656.4 316.4 656.4 316.8V318.1C656.4 319 656.4 319.8 656.4 320.7C656.3 322.4 656.3 324.2 656.1 325.9C656.1 326 656 326.1 655.9 326C655.8 326 655.8 325.9 655.8 325.9C655.6 324.2 655.6 322.4 655.5 320.7C655.5 319.8 655.5 319 655.5 318.1V316.8C655.5 316.4 655.4 315.9 655.7 315.5C655.8 315.3 656 315.2 656.2 315.3C656.1 315.4 656.2 315.4 656.2 315.5Z" fill="#006088"/>
<path d="M664.8 312.8C665.2 313.1 665.3 313.5 665.6 313.9C665.8 314.3 666 314.7 666.2 315.1C666.5 315.9 666.9 316.7 667.1 317.6C667.4 318.4 667.6 319.3 667.8 320.1C668 321 668.1 321.8 667.9 322.7C667.9 322.8 667.8 322.9 667.7 322.8C667.6 322.8 667.6 322.8 667.6 322.7C667.2 321.9 667 321.1 666.8 320.3C666.6 319.5 666.3 318.7 666.1 317.9C665.8 317.1 665.6 316.3 665.2 315.5C665 315.1 664.9 314.7 664.7 314.3C664.5 313.9 664.3 313.6 664.3 313.1C664.3 312.9 664.5 312.7 664.7 312.7C664.7 312.8 664.7 312.8 664.8 312.8Z" fill="#006088"/>
<path d="M646.6 321.3C646.7 321.6 646.5 321.6 646.5 321.7C646.4 321.8 646.3 321.9 646.3 322C646.2 322.2 646 322.5 645.9 322.7L645.5 323.5L645.3 323.9L645.2 324.1C645.2 324.2 645.1 324.2 644.8 324.2C644.7 324.2 644.6 324.1 644.5 324.1C644.3 323.9 644.2 323.8 644.3 323.8L644.4 323.6L644.6 323.2C644.7 322.9 644.9 322.6 645 322.4C645.2 322.1 645.3 321.9 645.5 321.6C645.6 321.5 645.7 321.3 645.8 321.2C645.9 321.1 646 320.9 646.3 320.9C646.5 320.9 646.7 321.1 646.7 321.3H646.6Z" fill="#006088"/>
<path d="M668.8 334.6C668.9 334.9 668.8 335.2 668.7 335.4C668.7 335.5 668.6 335.7 668.5 335.8C668.4 335.9 668.3 336 668.2 336.1C668.1 336.2 668 336.1 667.9 336C667.8 335.8 667.8 335.7 667.8 335.5C667.8 335.4 667.8 335.2 667.8 335.1C667.9 334.8 668 334.6 668.2 334.4C668.4 334.3 668.6 334.3 668.7 334.4C668.8 334.5 668.8 334.6 668.8 334.6Z" fill="#006088"/>
<path d="M670 337.9C670.2 338.2 670.3 338.5 670.4 338.8C670.5 339.1 670.4 339.4 670.4 339.7C670.3 340 670.2 340.3 670.1 340.6C669.9 340.9 669.6 341.2 669.2 341.2C669.1 341.2 669 341.1 669 341V340.9C669.1 340.7 669.2 340.5 669.2 340.3C669.2 340.1 669.3 339.9 669.3 339.6C669.3 339.1 669.3 338.7 669.3 338.2C669.3 338 669.4 337.9 669.6 337.9C669.8 337.8 669.9 337.9 670 337.9Z" fill="#006088"/>
<path d="M665.6 332.5C666.1 336.7 666.1 341 666.2 345.3C666.3 349.6 666.3 353.8 666.3 358.1C666.3 366.6 666.2 375.1 666 383.6C666 383.9 665.7 384.2 665.4 384.2H657.4C657.1 384.2 656.9 384 656.8 383.7L655.5 362.2L654.8 351.5C654.6 347.9 654.2 344.3 654.4 340.7C654.4 340.6 654.5 340.5 654.6 340.5C654.7 340.5 654.7 340.6 654.8 340.6C655.6 344.2 655.6 347.7 655.9 351.3L656.6 362L658 383.5L657.4 383H665.4L664.8 383.6C665 375.1 665.2 366.6 665.2 358.1C665.2 353.8 665.2 349.6 665.2 345.3C665.2 341 665 336.8 665 332.6C665 332.4 665.1 332.3 665.3 332.3C665.4 332.2 665.5 332.3 665.6 332.5Z" fill="#006088"/>
<path d="M655.9 355.5C655.6 360.2 655.2 364.8 655 369.5C654.7 374.2 654.5 378.9 654.3 383.6C654.3 383.9 654.1 384.1 653.8 384.1H646.2C645.9 384.1 645.7 383.9 645.7 383.6C645.4 379.3 645.1 375.1 644.9 370.8C644.7 366.5 644.6 362.3 644.6 358C644.6 353.7 644.7 349.5 644.9 345.2C645.1 340.9 645.4 336.7 645.9 332.4V332.5C645.8 329.2 645.8 326 645.9 322.7C645.9 321.1 646 319.4 646.1 317.8C646.2 316.2 646.4 314.5 646.9 312.9C646.9 312.8 647 312.8 647.1 312.8C647.2 312.8 647.2 312.9 647.2 313C647.2 314.6 647.1 316.2 647.1 317.9C647 319.5 647 321.1 646.9 322.8C646.8 326 646.9 329.3 646.9 332.5V332.6C646.4 336.8 646.1 341 645.9 345.3C645.7 349.5 645.6 353.8 645.7 358.1C645.7 362.4 645.8 366.6 646 370.9C646.2 375.2 646.4 379.4 646.7 383.6L646.2 383.1H653.8L653.3 383.6C653.5 378.9 653.7 374.2 654 369.5C654.1 367.2 654.3 364.8 654.5 362.5C654.7 360.2 654.9 357.8 655.3 355.5C655.3 355.3 655.5 355.2 655.7 355.2C655.8 355.2 655.9 355.3 655.9 355.5Z" fill="#006088"/>
<path d="M662.8 383.7C665.7 384.2 670.1 385.9 670 386.7C670 387 669.9 387.2 669.9 387.2C665.3 387.2 664.7 386.6 659.3 385.7" fill="#006088"/>
<path d="M658.543 387.332L662.843 387.332L662.843 383.732L658.543 383.732L658.543 387.332Z" fill="#006088"/>
<path d="M648.6 383.7C645.7 384.2 641.3 385.9 641.4 386.7C641.4 387 641.5 387.2 641.5 387.2C646.1 387.2 646.7 386.6 652.1 385.7" fill="#006088"/>
<path d="M652.9 383.7H648.6V387.3H652.9V383.7Z" fill="#006088"/>
<path d="M644.7 358.7C645.5 359.3 646.2 360 646.8 360.8C647.3 361.6 647.8 362.5 647.8 363.6C647.8 363.7 647.7 363.8 647.6 363.8C647.5 363.8 647.5 363.8 647.5 363.7C646.9 363 646.4 362.2 645.9 361.4C645.4 360.6 644.9 359.9 644.3 359.2C644.2 359.1 644.2 358.8 644.3 358.7C644.4 358.6 644.6 358.6 644.7 358.7Z" fill="#187AA2"/>
<path d="M662.2 358H679.1C680.4 358 681.4 357 681.4 355.8V344C681.4 342.8 680.4 341.8 679.1 341.8H662.2C660.9 341.8 659.9 342.8 659.9 344V355.8C659.9 357 661 358 662.2 358Z" fill="#6ab3d0"/>
<path d="M613.1 288.2C613.3 288.4 613.3 288.6 613.3 288.7V289.2V290.3C613.3 290.5 613.4 290.8 613.6 290.9C613.7 291 613.8 291.1 613.9 291.1C614 291.2 614.1 291.2 614.3 291.2C615 291.4 615.7 291.7 616.4 292.1C617.1 292.4 617.7 292.9 618.2 293.5C618.3 293.6 618.2 293.7 618.2 293.7H618.1C617.3 293.5 616.7 293.2 616.1 292.9C615.5 292.6 614.8 292.4 614.2 292.2C614.1 292.2 613.8 292.1 613.6 292C613.4 291.9 613.2 291.7 613 291.6C612.7 291.2 612.5 290.7 612.5 290.2V289.1V288.6C612.5 288.4 612.5 288.2 612.7 288.1C612.6 288 612.9 288 613.1 288.2C613.1 288.2 613.1 288.1 613.1 288.2Z" fill="#006088"/>
<path d="M436.3 31.2C436.3 22.4 429.1 15.2 420.3 15.2C411.5 15.2 404.3 22.4 404.3 31.2C404.3 34.4 405.2 37.2999 406.8 39.7999C412.2 48.1999 420.3 60.9 420.3 60.9C420.3 60.9 428.4 48.1999 433.8 39.7999C435.3 37.2999 436.3 34.4 436.3 31.2ZM420.3 38.0999C416.5 38.0999 413.4 35 413.4 31.2C413.4 27.4 416.5 24.3 420.3 24.3C424.1 24.3 427.2 27.4 427.2 31.2C427.2 35 424 38.0999 420.3 38.0999Z" fill="#006088"/>
<path d="M658.7 132.8C658.7 128.1 654.9 124.3 650.2 124.3C645.5 124.3 641.7 128.1 641.7 132.8C641.7 134.5 642.2 136 643 137.4C645.9 141.9 650.1 148.6 650.1 148.6C650.1 148.6 654.4 141.9 657.2 137.4C658.3 136 658.7 134.5 658.7 132.8ZM650.3 136.4C648.3 136.4 646.7 134.8 646.7 132.8C646.7 130.8 648.3 129.2 650.3 129.2C652.3 129.2 653.9 130.8 653.9 132.8C653.9 134.8 652.3 136.4 650.3 136.4Z" fill="#bedae6"/>
<path d="M76.8 250.3H95.4999C110.2 256.8 125.8 262.2 125.8 262.2C125.8 262.2 121.4 258 119 250.3H126.9C133.5 250.3 138.9 244.9 138.9 238.3V216.2C138.9 209.6 133.5 204.2 126.9 204.2H76.8C70.2 204.2 64.8 209.6 64.8 216.2V238.3C64.7 244.9 70.1 250.3 76.8 250.3Z" fill="#6AB3D0"/>
<path d="M729 284.7H699.5C699.5 284.7 693.9 293.8 682.1 296.1L686.6 284.7H686.2C678.7 284.7 672.6 278.6 672.6 271.1V251C672.6 243.5 678.7 237.4 686.2 237.4H729C736.5 237.4 742.6 243.5 742.6 251V271.1C742.6 278.6 736.5 284.7 729 284.7Z" fill="#fff"/>
<path d="M729 284.9C724.1 284.9 719.2 285 714.2 285.1L706.8 285.3C704.3 285.3 701.9 285.4 699.4 285.4L700 285.1C699 286.7 697.8 288 696.5 289.3C695.2 290.6 693.8 291.7 692.2 292.7C690.7 293.7 689.1 294.6 687.4 295.2C685.7 295.9 683.9 296.4 682.2 296.8C681.8 296.9 681.4 296.6 681.3 296.2C681.3 296 681.3 295.9 681.3 295.8L685.8 284.4L686.5 285.5C682.8 285.6 679 284.2 676.3 281.7C673.6 279.2 671.9 275.5 671.7 271.8C671.6 264.7 671.6 257.7 671.7 250.6C671.8 246.9 673.4 243.2 676.1 240.6C678.8 238 682.5 236.5 686.3 236.6H707.4H728.5C730.3 236.6 732.2 236.8 733.9 237.5C735.6 238.1 737.3 239.1 738.6 240.4C741.4 242.9 743.1 246.5 743.2 250.2C743.3 253.8 743.2 257.3 743.2 260.8C743.2 264.3 743.1 267.8 743 271.4C742.9 275.1 741.3 278.6 738.6 281C736.1 283.5 732.6 284.9 729 284.9ZM729 284.5C730.7 284.5 732.5 284.1 734.1 283.5C735.7 282.8 737.2 281.8 738.4 280.6C740.8 278.1 742.2 274.7 742.2 271.3C742 264.3 742 257.2 741.9 250.2C741.7 246.9 740.2 243.7 737.7 241.4C735.2 239.1 731.9 238 728.6 238.1H707.5H686.4C683.1 238.1 679.8 239.4 677.5 241.7C675.1 244 673.7 247.2 673.6 250.5C673.6 257.5 673.5 264.6 673.6 271.5C673.7 274.8 675.2 278 677.6 280.3C680 282.6 683.3 283.8 686.7 283.8C687.1 283.8 687.5 284.1 687.5 284.6C687.5 284.7 687.5 284.8 687.4 284.9L682.9 296.3L682 295.3C683.7 294.9 685.4 294.5 687 293.8C688.6 293.2 690.1 292.3 691.6 291.4C693.1 290.5 694.4 289.4 695.7 288.2C697 287 698.1 285.7 699.1 284.3C699.2 284.1 699.4 284 699.6 284C702.1 284 704.5 284.1 707 284.1L714.4 284.3C719.2 284.4 724.1 284.5 729 284.5Z" fill="#bedae6"/>
<path d="M197.8 246.3C197.6 245.7 196.9 245 196.3 244.8L190.8 242.9C190.2 242.7 190.2 242.3 190.8 242.1L196.3 240.2C196.9 240 197.6 239.3 197.8 238.7L199.7 233.2C199.9 232.6 200.3 232.6 200.5 233.2L202.4 238.7C202.6 239.3 203.3 240 203.9 240.2L209.4 242.1C210 242.3 210 242.7 209.4 242.9L203.9 244.8C203.3 245 202.6 245.7 202.4 246.3L200.5 251.8C200.3 252.4 199.9 252.4 199.7 251.8L197.8 246.3Z" fill="#6AB3D0"/>
<path d="M436.4 11.9C436.2 11.6 436 11.3 435.7 11.1C435.4 10.9 435.1 10.8 434.8 10.7L432.7 10.1C432.5 9.99998 432.4 9.99998 432.1 9.89998C432 9.79998 431.8 9.79998 431.7 9.59998C431.6 9.49998 431.6 9.29998 431.7 9.19998C431.7 9.09998 431.8 8.99998 431.9 8.89998C432.2 8.69998 432.4 8.59998 432.5 8.59998L433 8.39998L435.1 7.59998C435.3 7.49998 435.6 7.29998 435.8 7.09998C436 6.89998 436.1 6.69998 436.2 6.29998L436.9 4.19998C437 3.99998 437 3.89998 437.1 3.59998C437.2 3.49998 437.2 3.29998 437.5 3.19998C437.6 3.09998 437.9 3.09998 438 3.09998C438.2 3.19998 438.3 3.19998 438.4 3.29998C438.7 3.59998 438.7 3.79998 438.8 3.99998L439 4.49998L439.7 6.59998C439.8 6.79998 440 7.09998 440.2 7.29998C440.4 7.49998 440.6 7.59998 441 7.69998L443.1 8.49998C443.3 8.59998 443.4 8.59998 443.7 8.69998C443.8 8.79998 444 8.79998 444.1 9.09998C444.2 9.19998 444.2 9.49998 444.1 9.59998C444 9.79998 444 9.89998 443.9 9.89998C443.6 10.2 443.4 10.2 443.2 10.2L442.7 10.4L440.6 11.1C440.4 11.2 440.1 11.4 439.9 11.6C439.7 11.8 439.6 12 439.5 12.4L438.7 14.5C438.6 14.7 438.6 14.8 438.5 15.1C438.4 15.2 438.4 15.3 438.2 15.5C438.1 15.6 437.9 15.6 437.8 15.5C437.7 15.5 437.6 15.4 437.5 15.3C437.3 15.1 437.3 14.8 437.2 14.7L437 14.2L436.4 11.9ZM436.7 11.8L437.5 13.9L437.7 14.4C437.8 14.6 437.8 14.7 437.9 14.8C437.9 14.8 437.8 14.7 437.7 14.8V14.7C437.7 14.6 437.8 14.4 437.9 14.2L438.6 12.1C438.7 11.8 438.9 11.3 439.2 11C439.5 10.7 439.8 10.4 440.3 10.2L442.4 9.39998L442.9 9.19998C443.1 9.09998 443.2 9.09998 443.2 9.09998L443.1 9.19998V9.49998C443.2 9.59998 443.2 9.59998 443.1 9.49998C443 9.49998 442.8 9.39998 442.6 9.29998L440.5 8.59998C440.2 8.49998 439.6 8.29998 439.3 7.99998C439 7.69998 438.7 7.39998 438.5 6.89998L437.8 4.79998L437.6 4.29998C437.5 4.09998 437.5 3.99998 437.5 3.99998L437.6 4.09998H437.9C438 3.99998 438 3.99998 438 4.09998C438 4.19998 437.9 4.39998 437.8 4.59998L437 6.69998C436.9 6.99998 436.7 7.49998 436.4 7.79998C436.1 8.09998 435.8 8.39998 435.3 8.59998L433.2 9.29998L432.7 9.49998C432.5 9.59998 432.4 9.59998 432.3 9.59998V9.29998C432.3 9.19998 432.3 9.29998 432.3 9.29998C432.4 9.29998 432.6 9.39998 432.8 9.49998L434.9 10.3C435.7 10.5 436.4 11.1 436.7 11.8Z" fill="#bedae6"/>
<path d="M390.5 22.2L388 23.4L389.2 20.9L388 18.4L390.5 19.6L393 18.4L391.8 20.9L393 23.4L390.5 22.2Z" fill="#bedae6"/>
<path d="M390.4 22.3C389.6 22.8 388.9 23.3 388.1 23.7C387.9 23.8 387.7 23.7 387.6 23.6C387.5 23.5 387.5 23.4 387.6 23.3V23.2C387.9 22.3 388.3 21.5 388.7 20.6V21L387.5 18.5C387.4 18.2 387.5 17.9 387.7 17.8C387.9 17.7 388 17.7 388.2 17.8L390.7 19H390.2L392.7 17.8C393 17.7 393.3 17.8 393.4 18.1C393.5 18.3 393.5 18.4 393.4 18.6C393 19.4 392.6 20.3 392.2 21.1V20.7C392.6 21.5 392.9 22.4 393.3 23.3C393.4 23.5 393.3 23.7 393.1 23.8H392.8C392 23.3 391.3 22.8 390.4 22.3ZM390.6 22C391.4 22.3 392.3 22.6 393.1 23L392.6 23.5C392.2 22.7 391.7 21.9 391.3 21.1C391.2 21 391.2 20.8 391.3 20.7C391.7 19.9 392.1 19 392.5 18.2L393.2 18.9L390.7 20.1C390.5 20.2 390.4 20.2 390.2 20.1L387.7 18.9L388.4 18.2L389.6 20.7C389.7 20.8 389.7 21 389.6 21.1C389.2 21.9 388.7 22.7 388.3 23.5L387.8 23C388.7 22.6 389.6 22.3 390.5 22H390.6Z" fill="#bedae6"/>
<path d="M443 28.5L440.5 29.7L441.7 27.2L440.5 24.7L443 25.9L445.5 24.7L444.3 27.2L445.5 29.7L443 28.5Z" fill="#bedae6"/>
<path d="M214.2 251.4C213.9 251.3 213.4 251.3 213.1 251.4L210.9 252.5C210.6 252.6 210.5 252.5 210.6 252.2L211.7 250C211.8 249.7 211.8 249.2 211.7 248.9L210.6 246.7C210.5 246.4 210.6 246.3 210.9 246.4L213.1 247.5C213.4 247.6 213.9 247.6 214.2 247.5L216.4 246.4C216.7 246.3 216.8 246.4 216.7 246.7L215.6 248.9C215.5 249.2 215.5 249.7 215.6 250L216.7 252.2C216.8 252.5 216.7 252.6 216.4 252.5L214.2 251.4Z" fill="#6AB3D0"/>
<path d="M420.3 118C421.791 118 423 116.791 423 115.3C423 113.809 421.791 112.6 420.3 112.6C418.809 112.6 417.6 113.809 417.6 115.3C417.6 116.791 418.809 118 420.3 118Z" fill="#bedae6"/>
<path d="M420.3 106.5C421.791 106.5 423 105.291 423 103.8C423 102.309 421.791 101.1 420.3 101.1C418.809 101.1 417.6 102.309 417.6 103.8C417.6 105.291 418.809 106.5 420.3 106.5Z" fill="#bedae6"/>
<path d="M420.3 94.2C421.791 94.2 423 92.9912 423 91.5C423 90.0089 421.791 88.8 420.3 88.8C418.809 88.8 417.6 90.0089 417.6 91.5C417.6 92.9912 418.809 94.2 420.3 94.2Z" fill="#bedae6"/>
<path d="M420.3 81.9C421.791 81.9 423 80.6912 423 79.2C423 77.7088 421.791 76.5 420.3 76.5C418.809 76.5 417.6 77.7088 417.6 79.2C417.6 80.6912 418.809 81.9 420.3 81.9Z" fill="#bedae6"/>
<path d="M321.4 158.4C322.228 158.4 322.9 157.728 322.9 156.9C322.9 156.072 322.228 155.4 321.4 155.4C320.571 155.4 319.9 156.072 319.9 156.9C319.9 157.728 320.571 158.4 321.4 158.4Z" fill="#bedae6"/>
<path d="M321.4 151.5C322.228 151.5 322.9 150.828 322.9 150C322.9 149.172 322.228 148.5 321.4 148.5C320.571 148.5 319.9 149.172 319.9 150C319.9 150.828 320.571 151.5 321.4 151.5Z" fill="#bedae6"/>
<path d="M89.9 230.4C91.3911 230.4 92.6 229.191 92.6 227.7C92.6 226.209 91.3911 225 89.9 225C88.4088 225 87.2 226.209 87.2 227.7C87.2 229.191 88.4088 230.4 89.9 230.4Z" fill="#fff"/>
<path d="M101.4 230.4C102.891 230.4 104.1 229.191 104.1 227.7C104.1 226.209 102.891 225 101.4 225C99.9088 225 98.7 226.209 98.7 227.7C98.7 229.191 99.9088 230.4 101.4 230.4Z" fill="#fff"/>
<path d="M113.7 230.4C115.191 230.4 116.4 229.191 116.4 227.7C116.4 226.209 115.191 225 113.7 225C112.209 225 111 226.209 111 227.7C111 229.191 112.209 230.4 113.7 230.4Z" fill="#fff"/>
<path d="M187.2 289.2L184.1 280.3C183.9 279.8 184.2 279.3 184.7 279.1L189 277.6C189.5 277.4 190 277.7 190.2 278.2L193.3 287.1C193.5 287.6 193.2 288.1 192.7 288.3L188.4 289.8C187.9 290 187.3 289.7 187.2 289.2Z" fill="#3895BA"/>
<path d="M189.395 278.758L184.867 280.35L187.587 288.086L192.115 286.494L189.395 278.758Z" fill="#fff"/>
<path d="M189.471 278.73L184.943 280.322L185.307 281.36L189.836 279.768L189.471 278.73Z" fill="#006088"/>
<path d="M190.1 289.3C190.1 289.3 189.3 287.3 188.9 287.6C188.2 288.3 189 291 189 291" fill="#bedae6"/>
<path d="M190.1 289.3C190.1 289.3 189.3 287.3 188.9 287.6C188.2 288.3 189 291 189 291" stroke="#006088" stroke-miterlimit="10" stroke-linecap="round" stroke-linejoin="round"/>
<path d="M589.2 292.5H577V291.5H588.2C588.7 291.4 589.2 291.9 589.2 292.5Z" fill="#fff" stroke="#bedae6" stroke-miterlimit="10" stroke-linecap="round" stroke-linejoin="round"/>
<path d="M581.3 292.5H564.5L563 281.7C562.9 280.7 563.6 279.8 564.6 279.8H578.1C578.9 279.8 579.6 280.4 579.7 281.2L581.3 292.5Z" fill="#fff"/>
<path d="M581.5 292.8C580.2 292.9 578.9 293 577.5 293L573.2 293.1L564.6 293.2C564.3 293.2 564.1 293 564.1 292.7L562.7 282.6L562.6 282C562.6 281.7 562.6 281.4 562.6 281.2C562.7 280.6 563.1 280.2 563.6 279.9C563.8 279.8 564.1 279.6 564.4 279.6C564.5 279.6 564.7 279.6 564.8 279.6H565.1H566.4H571.5H576.6H577.9C578.1 279.6 578.3 279.6 578.6 279.6C578.9 279.6 579.1 279.7 579.4 279.9C579.9 280.2 580.2 280.7 580.3 281.2C580.4 281.7 580.4 282.1 580.5 282.6C580.9 286.1 581.3 289.6 581.5 292.9V292.8ZM581.2 292.3C580.5 288.8 579.9 285.6 579.5 282.4L579.3 281.2C579.2 280.9 579 280.7 578.8 280.5C578.7 280.4 578.5 280.4 578.4 280.3C578.3 280.3 578.1 280.3 577.8 280.3H576.5H571.4H566.3H565C564.8 280.3 564.6 280.3 564.5 280.3C564.4 280.3 564.2 280.4 564.1 280.4C563.9 280.5 563.7 280.8 563.6 281.1C563.6 281.2 563.6 281.4 563.6 281.5L563.7 282.1L565.1 292.2L564.6 291.7L572.8 291.8L576.9 291.9C578.3 291.9 579.7 292 581.2 292.1V292.3Z" fill="#bedae6"/>
<path d="M586.1 277.7C587.591 277.7 588.8 276.491 588.8 275C588.8 273.509 587.591 272.3 586.1 272.3C584.609 272.3 583.4 273.509 583.4 275C583.4 276.491 584.609 277.7 586.1 277.7Z" fill="#bedae6"/>
<path d="M586.1 266.2C587.591 266.2 588.8 264.991 588.8 263.5C588.8 262.009 587.591 260.8 586.1 260.8C584.609 260.8 583.4 262.009 583.4 263.5C583.4 264.991 584.609 266.2 586.1 266.2Z" fill="#bedae6"/>
<path d="M586.1 253.9C587.591 253.9 588.8 252.691 588.8 251.2C588.8 249.709 587.591 248.5 586.1 248.5C584.609 248.5 583.4 249.709 583.4 251.2C583.4 252.691 584.609 253.9 586.1 253.9Z" fill="#6AB3D0"/>
<path d="M586.1 242.5C594.439 242.5 601.2 235.74 601.2 227.4C601.2 219.061 594.439 212.3 586.1 212.3C577.76 212.3 571 219.061 571 227.4C571 235.74 577.76 242.5 586.1 242.5Z" fill="#fff"/>
<path d="M601.8 227.4C601.9 229.4 601.6 231.5 600.8 233.5C600 235.4 598.8 237.2 597.4 238.7C594.5 241.7 590.3 243.4 586.2 243.4C582 243.4 577.9 241.7 574.9 238.8C573.4 237.3 572.2 235.6 571.4 233.6C570.6 231.7 570.2 229.6 570.2 227.5C570.2 223.3 571.9 219.2 574.9 216.2C577.8 213.2 582 211.5 586.2 211.6C588.3 211.6 590.4 212 592.3 212.8C594.2 213.6 595.9 214.8 597.4 216.3C600.3 219.3 601.9 223.4 601.6 227.5H601.8V227.4ZM601 227.4C600.8 223.5 599.1 219.8 596.3 217.2C593.6 214.6 589.8 213.1 586.1 213.1C582.3 213.1 578.6 214.7 576 217.3C573.3 220 571.8 223.7 571.8 227.4C571.8 231.2 573.3 234.9 576 237.5C578.6 240.2 582.3 241.7 586.1 241.7C589.9 241.7 593.6 240.2 596.3 237.5C597.6 236.2 598.7 234.6 599.4 232.8C600.1 231.1 600.6 229.2 600.7 227.3H601V227.4Z" fill="#bedae6"/>
<path d="M586.2 220.6C580.4 220.6 577.2 225.1 576.8 225.4L578.3 226.9C586.1 218 593.7 226.5 594 226.9L595.5 225.4C595.1 225.2 592.2 220.5 586.2 220.6Z" fill="#6AB3D0"/>
<path d="M586.1 224.8C583.3 224.8 580.8 226.3 579.5 228.3C580 228.7 580.3 229.2 580.8 229.6C580.9 229.4 586.1 223.5 591.4 229.6C591.9 229.1 592.2 228.7 592.7 228.3C591.4 226.3 589 224.8 586.1 224.8Z" fill="#6AB3D0"/>
<path d="M586.2 228.7C586.1 228.7 586.1 228.7 586.2 228.7C584.5 228.7 583 229.6 582.2 230.8C582.6 231.2 583.5 232.1 583.5 232.1C584 231.1 585.2 230.6 586 230.7C586 230.7 587.9 230.7 588.7 232.1C588.7 232.1 589.6 231.2 590 230.8C588.8 228.7 586.2 228.7 586.2 228.7Z" fill="#6AB3D0"/>
<path d="M584.7 233.4L586.1 234.5L587.4 233.3C587.5 233.3 585.9 232.2 584.7 233.4Z" fill="#6AB3D0"/>
<path d="M321.4 120.8C312.8 120.8 308.2 127.4 307.6 127.9L309.8 130.2C321.3 117.2 332.4 129.6 332.8 130.2L335 127.9C334.5 127.4 330.3 120.5 321.4 120.8Z" fill="#bedae6"/>
<path d="M321.4 126.9C317.3 126.9 313.7 129.1 311.7 132C312.4 132.6 312.9 133.3 313.6 133.9C313.8 133.6 321.3 124.9 329.1 133.9C329.8 133.2 330.3 132.6 331 132C329.1 129.1 325.5 126.8 321.4 126.9Z" fill="#bedae6"/>
<path d="M321.4 132.6C319 132.7 316.7 133.8 315.6 135.7C316.2 136.3 317.5 137.6 317.5 137.6C318.2 136.1 319.9 135.4 321.2 135.5C321.2 135.5 324 135.6 325.2 137.6C325.2 137.6 326.6 136.3 327.1 135.7C325.4 132.6 321.4 132.6 321.4 132.6Z" fill="#bedae6"/>
<path d="M319.3 139.5L321.4 141.1L323.3 139.3C323.3 139.3 321 137.7 319.3 139.5Z" fill="#bedae6"/>
<path d="M650.3 162.4C651.128 162.4 651.8 161.728 651.8 160.9C651.8 160.072 651.128 159.4 650.3 159.4C649.472 159.4 648.8 160.072 648.8 160.9C648.8 161.728 649.472 162.4 650.3 162.4Z" fill="#bedae6"/>
<path d="M650.3 155.5C651.128 155.5 651.8 154.828 651.8 154C651.8 153.172 651.128 152.5 650.3 152.5C649.472 152.5 648.8 153.172 648.8 154C648.8 154.828 649.472 155.5 650.3 155.5Z" fill="#bedae6"/>
<path d="M545.5 263.1C544.6 262.4 543.9 261.6 543.2 260.8C542.5 260 541.8 259.1 541.2 258.2V258.1H541.3C542.2 258.8 542.9 259.7 543.6 260.5C544.3 261.3 545 262.1 545.5 263.1C545.6 263.1 545.6 263.1 545.5 263.1Z" fill="#bedae6"/>
<path d="M546.2 262.9C545.3 262.2 544.6 261.3 543.9 260.5C543.2 259.6 542.5 258.8 541.9 257.8V257.7H542C542.8 258.4 543.5 259.3 544.2 260.1C545.1 261 545.8 261.8 546.2 262.9C546.3 262.9 546.3 262.8 546.2 262.9C546.2 262.9 546.3 262.9 546.2 262.9Z" fill="#bedae6"/>
<path d="M546.9 269.2V269.7C546.9 270 547.3 270.2 547.8 270.2H551.5" fill="#fff"/>
<path d="M546.9 269.2L547 269.5C547 269.6 547 269.7 547.1 269.8C547.2 269.9 547.4 270 547.6 270C548 270 548.5 270 548.9 270C549.8 270 550.7 270 551.6 270.2C551.7 270.2 551.7 270.3 551.7 270.3C551.7 270.3 551.7 270.4 551.6 270.4C550.7 270.6 549.8 270.6 548.9 270.6C548.4 270.6 548 270.6 547.5 270.5C547.3 270.4 547 270.3 546.8 270C546.7 269.8 546.8 269.7 546.8 269.6L546.9 269.3C546.8 269.2 546.9 269.1 546.9 269.2Z" fill="#bedae6"/>
<path d="M543.4 263.1C545.9 259.9 549.4 262.9 553.1 262.3Z" fill="#fff"/>
<path d="M543.4 263.1C543.8 262.3 544.6 261.7 545.5 261.5C546.4 261.3 547.3 261.4 548.2 261.5C549.9 261.8 551.5 262.3 553.2 262.3C553.3 262.3 553.3 262.3 553.3 262.4C553.3 262.4 553.3 262.5 553.2 262.5C552.3 262.7 551.4 262.7 550.6 262.6C549.7 262.5 548.9 262.3 548.1 262.1C547.3 261.9 546.4 261.8 545.7 262C544.8 262.1 544.1 262.5 543.4 263.1Z" fill="#bedae6"/>
<path d="M554.2 262.1C554 261 551.7 260.2 549.3 261.2Z" fill="#fff"/>
<path d="M554.1 262.1C553.9 261.7 553.5 261.5 553.1 261.3C552.7 261.1 552.3 261 551.9 261C551 260.9 550.2 261.1 549.3 261.2C549.2 261.2 549.2 261.2 549.2 261.1V261C550 260.5 551 260.3 551.9 260.4C552.4 260.5 552.9 260.6 553.3 260.8C553.8 261.2 554.2 261.6 554.1 262.1C554.2 262.2 554.2 262.1 554.1 262.1C554.1 262.1 554.2 262.2 554.1 262.1Z" fill="#bedae6"/>
<path d="M555.8 263.1V264.1C555.8 266.9 553.1 269.2 549.7 269.2H549.2C545.9 269.2 543.1 266.9 543.1 264.1V263.1H554.1" fill="#fff"/>
<path d="M555.9 263.1C555.9 263.9 556 264.8 555.7 265.6C555.4 266.4 554.9 267.2 554.3 267.7C553 268.9 551.2 269.4 549.5 269.4C547.8 269.4 546 268.9 544.7 267.8C544 267.2 543.5 266.5 543.2 265.7C542.9 264.9 542.9 263.9 542.9 263.1C542.9 263 543 262.8 543.2 262.8C545 262.8 546.9 262.8 548.7 262.9C550.5 262.9 552.4 262.9 554.2 263C554.3 263 554.3 263 554.3 263.1C554.3 263.2 554.3 263.2 554.2 263.2C552.4 263.3 550.5 263.3 548.7 263.3C546.9 263.3 545 263.3 543.2 263.4L543.5 263.1C543.5 263.9 543.5 264.7 543.8 265.5C544.1 266.2 544.6 266.9 545.1 267.4C546.3 268.5 547.9 268.9 549.5 268.9C551.1 268.9 552.8 268.5 554 267.4C554.6 266.9 555.1 266.2 555.4 265.5C555.7 264.8 555.7 263.9 555.8 263.1C555.8 263.1 555.8 263 555.9 263.1C555.9 263.1 555.8 263 555.9 263.1Z" fill="#bedae6"/>
<path d="M607.2 306.5L608.8 297.2C608.9 296.7 609.4 296.3 609.9 296.4L614.4 297.2C614.9 297.3 615.3 297.8 615.2 298.3L613.6 307.6C613.5 308.1 613 308.5 612.5 308.4L608 307.6C607.4 307.5 607.1 307 607.2 306.5Z" fill="#6AB3D0"/>
<path d="M625.6 308.6L625.8 309.5L626.3 316.5L625.6 319.6L623 320.7L620.8 319.6L618.5 316.5L616.4 313L614.5 308.9L613.4 308.4L612.7 305.4L612.3 304.3C612.3 304.3 612.2 303.8 611.2 303.5L610.1 303.6C609 303 609.7 301.9 610.2 301.8L613.5 301.3L615.1 300.8L616.8 306.4L620.8 310V309.7L625.6 308.6Z" fill="#fff"/>
<path d="M622.2 312.1C621.7 311.9 621.3 311.5 620.9 311.1L619.7 310L617.2 307.7L616.6 307.1L616.3 306.8C616.2 306.7 616 306.5 615.9 306.3C615.8 306.1 615.7 305.9 615.7 305.8L615.6 305.4L615.4 304.6C615.2 303.5 614.9 302.4 614.8 301.3V301.4C614.8 301.3 614.7 301.2 614.7 301.2C614.7 301.2 614.7 301.1 614.6 301.2C614.4 301.3 614.3 301.6 614.2 301.9C614.2 302 614.1 302 614 302C613.9 302 613.9 301.9 613.9 301.9C613.8 301.5 613.8 301 614.2 300.6C614.4 300.4 614.8 300.3 615.1 300.5C615.4 300.6 615.6 300.9 615.7 301.1V301.2C616 302.3 616.2 303.4 616.5 304.5L616.7 305.3L616.8 305.7C616.8 305.8 616.8 305.9 616.9 306C616.9 306.1 617 306.1 617 306.2L617.3 306.5L617.9 307.1L620.3 309.4L621.5 310.6C621.9 311 622.3 311.3 622.6 311.9C622.7 312.1 622.6 312.3 622.4 312.4C622.4 312.1 622.3 312.1 622.2 312.1Z" fill="#006088"/>
<path d="M615.5 304.3C615.2 304.2 615.1 303.9 615 303.7C614.9 303.5 614.7 303.3 614.6 303.1C614.3 302.7 613.9 302.5 613.6 302.2C613.2 302 612.8 301.9 612.3 301.8C611.8 301.8 611.4 301.8 610.8 301.7C610.7 301.7 610.6 301.6 610.7 301.5V301.4C611.1 301 611.7 300.8 612.3 300.8C612.9 300.8 613.5 300.9 614.1 301.2C614.7 301.5 615.1 301.9 615.4 302.4C615.6 302.6 615.7 302.9 615.9 303.1C616 303.4 616.2 303.6 616.1 303.9C616.1 304.2 615.8 304.3 615.5 304.3C615.6 304.3 615.6 304.3 615.5 304.3Z" fill="#006088"/>
<path d="M610.2 302C611.9 301.4 613.1 302.3 614.1 303.7" stroke="#006088" stroke-miterlimit="10" stroke-linecap="round" stroke-linejoin="round"/>
<path d="M619 308.9C618.7 308.7 618.8 308.5 618.7 308.3L618.6 307.7C618.5 307.3 618.4 306.8 618.4 306.4C618.3 306 618.3 305.5 618.3 305.1C618.3 304.7 618.3 304.2 618.6 303.8C618.7 303.7 618.8 303.7 618.9 303.7C618.9 303.7 618.9 303.7 619 303.7C619.3 304.1 619.4 304.5 619.4 304.9C619.5 305.3 619.5 305.7 619.6 306.2C619.7 306.6 619.7 307 619.7 307.4L619.8 308C619.8 308.2 619.9 308.4 619.8 308.6C619.4 309 619.2 309.1 619 308.9Z" fill="#006088"/>
<path d="M625.9 308.5C626.2 309.7 626.3 310.9 626.4 312.1C626.5 313.3 626.6 314.5 626.6 315.8C626.6 317 626.5 318.3 625.9 319.6C625.6 320.2 625 320.8 624.3 321.1C624 321.2 623.6 321.3 623.3 321.3C623.1 321.3 623 321.3 622.8 321.3C622.6 321.3 622.4 321.3 622.2 321.2C620.8 320.8 619.9 319.7 619.1 318.8C618.3 317.8 617.7 316.8 617.1 315.7C615.9 313.6 614.9 311.4 613.9 309.1L614.2 309.4C613.4 309.1 612.8 308.5 612.5 307.8C612.1 307.1 612.1 306.3 612.2 305.5C612.3 304.8 612.3 304.3 611.9 304C611.5 303.7 610.8 303.7 610.1 303.8C610 303.8 609.9 303.8 609.9 303.7C609.9 303.6 609.9 303.5 610 303.5C610.3 303.4 610.7 303.3 611.1 303.3C611.5 303.3 611.9 303.3 612.3 303.5C612.7 303.7 613 304.1 613.1 304.5C613.2 304.9 613.2 305.3 613.2 305.6C613.2 306.2 613.2 306.8 613.5 307.3C613.8 307.8 614.3 308.2 614.7 308.4C614.8 308.5 614.9 308.6 615 308.7C615.9 310.9 617 313.1 618.2 315.1C618.8 316.1 619.4 317.1 620.2 318C620.9 318.9 621.8 319.8 622.7 320C622.9 320.1 623.1 320.1 623.4 320C623.7 320 623.9 319.9 624.1 319.8C624.6 319.6 624.9 319.3 625.1 318.9C625.6 318 625.7 316.8 625.7 315.6C625.7 314.4 625.7 313.2 625.6 312C625.5 310.8 625.4 309.6 625.4 308.4C625.4 308.2 625.6 308.1 625.7 308.1C625.7 308.3 625.9 308.4 625.9 308.5Z" fill="#006088"/>
<path d="M719 261.3C720.3 259.4 720.5 255.4 717.9 252.7C714.2 249 708 245.1 708 245.1C708 245.1 707.2 247.3 703 248.4C697 250 698.2 254.1 698.2 254.1C695.1 255.8 693.8 259 696.2 261.2" fill="#6ab3d0"/>
<path d="M694.8 262L697.9 273.5C698.4 275.5 700.2 276.9 702.3 276.9H713.3C715.3 276.9 717.1 275.5 717.7 273.6L720.9 262.1" fill="#6AB3D0"/>
<path d="M696.3 262.1C695.6 261.5 695 260.6 694.7 259.6C694.4 258.6 694.5 257.4 695 256.4C695.5 255.4 696.2 254.6 697.1 254C697.5 253.7 698 253.5 698.4 253.2C698.9 253 699.3 252.8 699.8 252.6C700.3 252.5 700.8 252.3 701.2 252.2L702.6 251.9C703.6 251.8 704.6 251.7 705.4 251.6C707.2 251.4 709 251.1 710.9 250.8L711.1 251.4C709.4 252.2 707.5 252.8 705.6 253.1C704.6 253.2 703.7 253.4 702.8 253.5L701.5 253.8C701.1 253.9 700.6 254.1 700.2 254.2C699.8 254.3 699.4 254.5 699 254.7C698.6 254.9 698.2 255.1 697.9 255.3C697.2 255.7 696.6 256.3 696.2 257C695.4 258.4 695.6 260.2 696.4 261.9L696.3 262.1Z" fill="#6AB3D0"/>
<path d="M692.9 260.9C694.1 260.4 695.4 260.6 696.6 260.5H700.3C702.8 260.5 705.2 260.4 707.7 260.4C710.2 260.4 712.6 260.4 715.1 260.5C717.6 260.5 720 260.6 722.5 261.2V261.9C720 262.5 717.6 262.6 715.1 262.6C712.6 262.7 710.2 262.7 707.7 262.7C705.2 262.7 702.8 262.7 700.3 262.6H696.6C695.4 262.5 694.1 262.7 692.9 262.2V260.9Z" fill="#006088"/>
<path d="M717.7 251.4C718 252.6 717.5 253.9 716.7 254.8C715.9 255.7 714.9 256.4 713.8 256.9C712.7 257.4 711.6 257.7 710.5 257.9C709.4 258.1 708.3 258.1 707.2 258L707.1 257.4C708.1 257 709.2 256.7 710.2 256.4C711.2 256.1 712.2 255.8 713.1 255.3C714 254.9 714.9 254.4 715.6 253.7C716.3 253.1 716.9 252.3 717.4 251.4H717.7Z" fill="#6AB3D0"/>
<path d="M642.9 269.2C643.1 268.6 643.8 267.9 644.4 267.7L649.9 265.8C650.5 265.6 650.5 265.2 649.9 265L644.4 263.1C643.8 262.9 643.1 262.2 642.9 261.6L641 256C640.8 255.4 640.4 255.4 640.2 256L638.3 261.5C638.1 262.1 637.4 262.8 636.8 263L631.3 264.9C630.7 265.1 630.7 265.5 631.3 265.7L636.8 267.6C637.4 267.8 638.1 268.5 638.3 269.1L640.2 274.6C640.4 275.2 640.8 275.2 641 274.6L642.9 269.2Z" fill="#6AB3D0"/>
<path d="M626.6 274.3C626.9 274.2 627.4 274.2 627.7 274.3L629.9 275.4C630.2 275.5 630.3 275.4 630.2 275.1L629.1 272.9C629 272.6 629 272.1 629.1 271.8L630.2 269.6C630.3 269.3 630.2 269.2 629.9 269.3L627.7 270.4C627.4 270.5 626.9 270.5 626.6 270.4L624.4 269.3C624.1 269.2 624 269.3 624.1 269.6L625.2 271.8C625.3 272.1 625.3 272.6 625.2 272.9L624.1 275.1C624 275.4 624.1 275.5 624.4 275.4L626.6 274.3Z" fill="#6AB3D0"/>
</g>
<defs>
<clipPath id="clip0">
<rect width="752" height="393.4" fill="#fff"/>
</clipPath>
</defs>
</svg>
