<svg width="752" height="394" fill="none" xmlns="http://www.w3.org/2000/svg"><g clip-path="url(#clip0)"><path d="M146.7 32.1l-10.9.2c-3.7.1-7.3.1-11 .2l-22 .2c-.4 0-.8-.3-.9-.6-.5-1.9-.7-3.8-.5-5.8.2-2 1.2-4 3-5.3.9-.6 1.8-1 2.8-1.3.9-.2 1.9-.4 3-.4.5 0 1.1.1 1.6.3h.1H111.6c-.1 0-.3.1-.4.3-.1.1-.1.2-.1.3V20l.1-.4c.2-1 .5-2 .9-2.9.5-.9 1.1-1.7 1.9-2.4.8-.7 1.8-1.1 2.7-1.4 1.9-.5 3.9-.5 5.8-.1s3.7 1.4 5.1 2.7c.7.6 1.4 1.3 2 2.1.6.7 1.2 1.5 1.7 2.4l-1.5-.1c.6-.9 1.3-1.4 2.2-1.9.8-.5 1.8-.8 2.8-.9 1.9-.2 3.7.1 5.4 1 1.7.8 3 2.2 3.9 3.7 1 1.5 1.6 3.2 2 4.9 0 .1-.1.3-.2.3s-.3 0-.3-.2c-.5-1.6-1.3-3.1-2.3-4.5-1-1.3-2.3-2.4-3.7-3.1-1.5-.6-3.1-.8-4.7-.6-1.5.2-2.8 1.2-3.7 2.3-.3.4-.8.5-1.2.2l-.3-.3c-1.4-3-4.3-5.6-7.6-6.2-1.6-.3-3.4-.3-5 .2s-2.8 1.5-3.5 3c-.4.7-.6 1.5-.7 2.3v.5c0 .2-.1.4-.2.6-.2.3-.6.5-.9.6h-.5c-.1 0-.2 0-.3-.1h-.1c-.3-.1-.6-.2-1-.2-.8 0-1.6.1-2.4.3-.8.2-1.5.5-2.2.9-1.3.9-2 2.3-2.3 4-.2 1.6-.1 3.4.3 5l-.9-.6h22.1c3.7 0 7.4.1 11 .1l5.5.1 2.8.1 1.4.1h1.6c.2 0 .3.2.3.4s-.2.3-.4.3v-.1zM72.6 322.1c-.8-4-1.6-8-2.5-11.9-.4-2-.9-3.9-1.4-5.9-.3-1-.6-1.9-.9-2.8-.3-.9-.8-1.9-1.3-2.5-.2-.2-.2-.6 0-.8.2-.2.5-.2.8 0 1.7 1.5 3.1 3.3 4.3 5.2 1.2 1.9 2.3 3.8 3.2 5.9.9 2 1.7 4.1 2.3 6.3.6 2.1 1 4.4 1 6.6 0 .1-.1.2-.2.2s-.2-.1-.2-.2c-.1-2.2-.7-4.3-1.3-6.4-.7-2.1-1.5-4.1-2.4-6.1-.9-2-2-3.9-3.2-5.7-1.2-1.8-2.5-3.5-4.1-4.9l.8-.8c.8.9 1.2 1.9 1.6 2.9.4 1 .7 2 .9 2.9.5 2 1 4 1.4 6 .4 2 .7 4 1 6 .3 2 .5 4 .7 6.1 0 .1 0 .1-.1.1-.4-.1-.4-.1-.4-.2z" fill="#bedae6"/><path d="M77.6 321.8c-.1-3.2-.2-6.4-.5-9.6-.1-1.6-.3-3.2-.5-4.7-.1-.8-.3-1.5-.5-2.3-.2-.7-.6-1.4-1-1.9-.2-.2-.2-.6 0-.8.2-.2.5-.2.8 0 1.4 1.2 2.6 2.7 3.6 4.2s1.8 3.2 2.4 4.9c.6 1.7 1.1 3.5 1.4 5.3.3 1.8.4 3.6.1 5.4 0 .1-.1.2-.2.2s-.2-.1-.2-.2c.1-1.8-.1-3.5-.5-5.2-.4-1.7-.9-3.4-1.5-5-1.3-3.2-3.2-6.4-5.8-8.6l.7-.8c.7.7 1 1.6 1.3 2.4.2.8.4 1.6.5 2.4.3 1.6.4 3.2.5 4.9.1 1.6.1 3.2 0 4.9-.1 1.6-.1 3.2-.3 4.8-.1-.2-.1-.2-.3-.3 0 .1.1.1 0 0zM103.8 322.1c.2-2.7.6-5.4 1.1-8.1.3-1.3.6-2.7.9-4 .2-.7.4-1.3.6-2 .3-.7.5-1.3 1.1-1.9l.6.6c-1.1.9-1.9 2.1-2.7 3.3-.8 1.2-1.5 2.5-2.1 3.8-.6 1.3-1.2 2.7-1.6 4.1-.4 1.4-.8 2.8-.9 4.3 0 .1-.1.1-.2.1s-.1-.1-.1-.1c0-1.5.2-3 .6-4.4.4-1.4.9-2.8 1.5-4.2.6-1.4 1.3-2.7 2.1-3.9.8-1.3 1.7-2.5 2.9-3.5.2-.2.4-.1.6 0 .1.2.1.4 0 .6-.4.4-.6 1-.9 1.6-.2.6-.4 1.3-.6 1.9-.4 1.3-.7 2.6-1 3.9-.6 2.6-1.1 5.3-1.7 8-.1 0-.1 0-.2-.1 0 .1 0 .1 0 0z" fill="#bedae6"/><path d="M100.4 322c-.3-2.2-.3-4.3-.2-6.5.1-1.1.1-2.2.3-3.3.1-.5.2-1.1.4-1.6s.4-1.1.8-1.6l.6.6c-1.8 1.5-3 3.6-3.9 5.7-.4 1.1-.8 2.2-1 3.4-.2 1.2-.4 2.3-.3 3.5 0 .1-.1.2-.1.2-.1 0-.1-.1-.2-.1-.4-2.4.1-4.9 1-7.2.4-1.1 1-2.2 1.6-3.3.7-1 1.4-2 2.4-2.8.2-.1.4-.1.6.1.1.2.1.4 0 .5-.6.6-.8 1.7-1 2.8-.2 1-.3 2.1-.4 3.2-.2 2.1-.2 4.3-.4 6.4h-.2zM692.9 323.1c-.8-4-1.6-8-2.5-11.9-.4-2-.9-3.9-1.4-5.9-.3-1-.6-1.9-.9-2.8-.3-.9-.8-1.9-1.3-2.5-.2-.2-.2-.6 0-.8.2-.2.5-.2.8 0 1.7 1.5 3.1 3.3 4.3 5.2 1.2 1.9 2.3 3.8 3.2 5.9.9 2 1.7 4.1 2.3 6.3.6 2.1 1 4.4 1 6.6 0 .1-.1.2-.2.2s-.2-.1-.2-.2c-.1-2.2-.7-4.3-1.3-6.4-.7-2.1-1.5-4.1-2.4-6.1-.9-2-2-3.9-3.2-5.7-1.2-1.8-2.5-3.5-4.1-4.9l.8-.8c.8.9 1.2 1.9 1.6 2.9.4 1 .7 2 .9 2.9.5 2 1 4 1.4 6 .4 2 .7 4 1 6 .3 2 .5 4 .7 6.1 0 .1 0 .1-.1.1-.4-.1-.4-.1-.4-.2z" fill="#bedae6"/><path d="M697.9 322.8c-.1-3.2-.2-6.4-.5-9.6-.1-1.6-.3-3.2-.5-4.7-.1-.8-.3-1.5-.5-2.3-.2-.7-.6-1.4-1-1.9-.2-.2-.2-.6 0-.8.2-.2.5-.2.8 0 1.4 1.2 2.6 2.7 3.6 4.2s1.8 3.2 2.4 4.9c.6 1.7 1.1 3.5 1.4 5.3.3 1.8.4 3.6.1 5.4 0 .1-.1.2-.2.2s-.2-.1-.2-.2c.1-1.8-.1-3.5-.5-5.2-.4-1.7-.9-3.4-1.5-5-1.3-3.2-3.2-6.4-5.8-8.6l.7-.8c.7.7 1 1.6 1.3 2.4.2.8.4 1.6.5 2.4.3 1.6.4 3.2.5 4.9.1 1.6.1 3.2 0 4.9-.1 1.6-.1 3.2-.3 4.8-.1-.2-.1-.2-.3-.3.1.1.1.1 0 0z" fill="#bedae6"/><path d="M301 335.8a2 2 0 10.001-3.999A2 2 0 00301 335.8z" fill="#fff"/><path d="M372.3 147.7c-.5-.9-.3-1.7-.4-2.6v-2.6c0-1.7-.1-3.4-.1-5.2 0-1.7 0-3.4.1-5.2 0-1.7.1-3.4.7-5.2.1-.2.3-.3.4-.2.1 0 .2.1.2.2.6 1.7.7 3.4.7 5.2.1 1.7.1 3.4.1 5.2 0 1.7 0 3.4-.1 5.2v2.6c-.1.9.1 1.7-.4 2.6-.2.4-.7.5-1 .3 0-.1-.1-.2-.2-.3zM181.1 228.8c1.4-.3 2.8-.3 4.2-.3 1.4 0 2.8.1 4.2.3.1 0 .2.1.1.2 0 .1-.1.1-.1.1-1.4.2-2.8.3-4.2.3-1.4 0-2.8 0-4.2-.3-.1 0-.1-.1-.1-.2s.1-.1.1-.1zM544.3 111.4c1.4-.3 2.8-.3 4.2-.3 1.4 0 2.8.1 4.2.3.1 0 .2.1.1.2 0 .1-.1.1-.1.1-1.4.2-2.8.3-4.2.3-1.4 0-2.8 0-4.2-.3-.1 0-.1-.1-.1-.2s.1-.1.1-.1zM344.9 219.2c1.4-.3 2.8-.3 4.2-.3 1.4 0 2.8.1 4.2.3.1 0 .2.1.1.2 0 .1-.1.1-.1.1-1.4.2-2.8.3-4.2.3-1.4 0-2.8 0-4.2-.3-.1 0-.1-.1-.1-.2s0-.1.1-.1zM384.6 251c1.4-.3 2.8-.3 4.2-.3 1.4 0 2.8.1 4.2.3.1 0 .2.1.1.2 0 .1-.1.1-.1.1-1.4.2-2.8.3-4.2.3-1.4 0-2.8 0-4.2-.3-.1 0-.1-.1-.1-.2 0 0 0-.1.1-.1zM284.9 233c1.4-.3 2.8-.3 4.2-.3 1.4 0 2.8.1 4.2.3.1 0 .2.1.1.2 0 .1-.1.1-.1.1-1.4.2-2.8.3-4.2.3-1.4 0-2.8 0-4.2-.3-.1 0-.1-.1-.1-.2l.1-.1zM109.2 182.7c1.4-.3 2.8-.3 4.2-.3 1.4 0 2.8.1 4.2.3.1 0 .2.1.1.2 0 .1-.1.1-.1.1-1.4.2-2.8.3-4.2.3-1.4 0-2.8 0-4.2-.3-.1 0-.1-.1-.1-.2 0 0 0-.1.1-.1zM131.3 251c1.4-.3 2.8-.3 4.2-.3 1.4 0 2.8.1 4.2.3.1 0 .2.1.1.2 0 .1-.1.1-.1.1-1.4.2-2.8.3-4.2.3-1.4 0-2.8 0-4.2-.3-.1 0-.1-.1-.1-.2l.1-.1zM656.5 194.1c1.4-.3 2.8-.3 4.2-.3 1.4 0 2.8.1 4.2.3.1 0 .2.1.1.2 0 .1-.1.1-.1.1-1.4.2-2.8.3-4.2.3-1.4 0-2.8 0-4.2-.3-.1 0-.1-.1-.1-.2s0-.1.1-.1z" fill="#bedae6"/><path d="M674.9 260.5c-.1-15.1-.2-30.3-.2-45.4l-.1-45.4.9.9-48.8.1 1-1V238c0 .6-.4 1-1 1h-12.4c-.6 0-1-.4-1-1v-19.4l1 1h-7.5c-.6 0-1-.4-1-1V71l1 1-12-.2c-.5 0-1-.5-1-1V53.5l1 1h-31.9l1-1-.1 18.6c0 .5-.4 1-1 1l-25.6.2 1-1V100l-1-1h8c.6 0 1 .4 1 1v107c0 .5-.4 1-.9 1l-8.9.8c-.6 0-1-.4-1.1-.9v-61.4l.3.7-17-19.2-.1-.1-9-14.4h1.7l-8.5 14.2c0 .1-.1.1-.1.2l-18.1 19.4.3-.7v10.1c0 .6-.4 1-1 1h-11.3l1-1V197c0 .6-.4 1-1 1h-21.3l1-1v15.3c0 .6-.4 1-1 1H444c-.6 0-1-.4-1-1V197l1 1h-39l1-1v33.5h-2v-.1l1 1h-29.9c-.6 0-1-.4-1-1v-87.7l1.7.7-42.8 38 .3-.7v72.7c0 .6-.4 1-1 1h-37.6c-.6 0-1-.4-1-1v-57.2l1 1h-40.8l1-1v45.9c0 .6-.4 1-1 1-.3 0-.6-.1-.8-.4l-52.5-61.5.7.3h-33.4l.9-.9-.1 36.9c0 .5-.4.9-.9.9h-20.7c-.5 0-.8-.4-.8-.8l.1-59.7.8.8-37.6-.1.7-.7-.2 102c0 .3-.2.5-.5.5l-39-.1c-.2 0-.3-.2-.3-.3 0-.2.1-.3.3-.3l39-.1-.5.5-.2-102c0-.4.3-.7.7-.7l37.6-.1c.4 0 .8.3.8.8l.1 59.7-.8-.8H168l-.9.9-.1-36.9c0-.5.4-.9.9-.9h33.4c.3 0 .6.1.7.3l52.5 61.5-1.8.6v-45.9c0-.6.4-1 1-1h40.8c.6 0 1 .4 1 1v57.2l-1-1h37.6l-1 1v-72.7c0-.3.1-.6.3-.7l42.7-38.1c.4-.4 1-.3 1.4.1.2.2.3.4.3.7v87.7l-1-1H405c.6 0 1 .4 1 1v.1h-2v-33.5c0-.6.4-1 1-1h39c.6 0 1 .4 1 1v15.3l-1-1h7.1l-1 1v-15.3c0-.6.4-1 1-1h21.3l-1 1v-40.3c0-.6.4-1 1-1h11.3l-1 1V147c0-.3.1-.5.3-.7l18.1-19.4-.1.2 8.5-14.2c.3-.5.9-.6 1.4-.3.1.1.3.2.3.3l9 14.4-.1-.1 17 19.2c.2.2.2.4.3.7v61.3l-1.1-1 8.9-.8-.9 1v-107l1 1h-8c-.6 0-1-.4-1-1V72.3c0-.6.4-1 1-1l25.6-.2-1 1 .1-18.6c0-.6.4-1 1-1h31.9c.6 0 1 .4 1 1v17.3l-1-1 12 .2c.5 0 1 .5 1 1v147.6l-1-1h7.5c.6 0 1 .4 1 1V238l-1-1h12.4l-1 1v-68.3c0-.6.4-1 1-1l48.8.1c.5 0 .9.4.9.9l-.1 45.4c0 15.1-.1 30.3-.2 45.4 0 .4-.3.7-.7.7-.3 0-.6-.3-.6-.7zM477.9 47.3l7.3-.2-.8.7c.3-1.7.8-3.2 1.4-4.7.7-1.5 1.5-3 2.8-4.2 1.2-1.2 2.9-2.2 4.7-2.4.9-.1 1.8-.1 2.7.1.9.2 1.8.6 2.5 1.2s1.3 1.4 1.7 2.2l.3.6s0 .1.1.1c0 0 .1.1.2 0h.1l.3-.2.6-.3c.4-.1.9-.3 1.3-.3.9-.1 1.8-.1 2.6 0 .4.1.8.1 1.3.2l.7.2c.2.1.4.2.7.4.8.5 1.5 1.3 1.9 2.2.8 1.7.9 3.4.7 5.1l-.9-1c2.8 0 5.6.1 8.4.2.4 0 .7.3.6.7 0 .4-.3.6-.6.6-2.8.1-5.6.2-8.4.2-.5 0-.9-.4-.9-.8v-.2c.1-1.4-.1-3-.7-4.1-.3-.6-.7-1.1-1.2-1.4l-.4-.2-.4-.1c-.3-.1-.7-.1-1-.2-.7-.1-1.4-.1-2.1 0-.3.1-.7.1-1 .3-.2.1-.3.1-.5.2l-.2.1c-.1 0-.3.1-.5.2-.7.2-1.5 0-2-.5-.3-.2-.5-.5-.6-.9-.1-.2-.1-.3-.2-.5-.3-.6-.7-1.1-1.2-1.5-1-.8-2.4-1.1-3.8-.9-1.4.1-2.6.8-3.6 1.8-2 2-3.3 5-3.9 7.9v.1c-.1.4-.4.6-.8.6l-7.3-.2c-.4 0-.7-.3-.7-.7.2-.1.5-.4.8-.4zM203.8 92.1l14-.2-.8.7c.6-3.1 1.5-6 2.8-8.9 1.3-2.8 2.9-5.6 5.2-7.9 4.4-4.7 12.4-6.1 17.9-2 1.3 1.1 2.3 2.4 3.1 3.9.2.4.3.7.5 1.1.1.2.2.4.4.5.3.3.8.4 1.2.3.1 0 .2-.1.3-.1l.6-.3c.4-.2.8-.3 1.1-.5.8-.3 1.6-.5 2.4-.6 1.6-.3 3.2-.2 4.8-.1.8.1 1.6.2 2.4.4l1.2.4c.4.2.8.4 1.1.6 1.5.9 2.6 2.3 3.3 3.8.7 1.5 1.1 3.1 1.3 4.6.2 1.6.2 3.1.1 4.8l-.9-1c5.3 0 10.7.1 16 .2.4 0 .7.3.7.7 0 .4-.3.7-.7.7-5.3.1-10.7.2-16 .2-.5 0-.9-.4-.9-.9v-.1c.2-2.8-.1-5.9-1.4-8.4-.6-1.2-1.5-2.3-2.6-3l-.9-.5-1-.3c-.7-.2-1.4-.3-2.1-.4-1.4-.2-2.9-.2-4.3.1-.7.1-1.4.3-2 .5-.3.1-.7.2-1 .4-.2.1-.3.2-.5.2-.2.1-.5.2-.7.3-1.1.3-2.2 0-3.1-.7-.4-.4-.7-.8-.9-1.3-.1-.3-.3-.6-.4-1-.6-1.3-1.5-2.4-2.5-3.2-2.1-1.7-5.1-2.2-7.9-1.9-2.8.3-5.4 1.7-7.4 3.7-2.1 2-3.6 4.6-4.9 7.2-1.2 2.7-2.2 5.6-2.7 8.4-.1.4-.4.7-.8.7l-14-.2c-.4 0-.7-.3-.7-.7.1.1.4-.2.7-.2zM641.4 26.9h2.2l2-.1 4-.1 7.9-.1c5.3-.1 10.5-.1 15.8-.1h31.6l-.9.6c.6-2.3.9-5 .5-7.3-.3-2.4-1.5-4.6-3.4-6-.9-.7-2.1-1.1-3.2-1.4-1.2-.3-2.4-.5-3.6-.5-.6 0-1.1.1-1.6.3h-.1c-.1 0-.2.1-.3.1h-.6c-.4-.1-.8-.3-1.1-.7-.1-.2-.2-.4-.2-.7v-.2l-.1-.4c-.2-1.2-.5-2.4-1-3.4-1-2.1-3-3.7-5.3-4.4-2.3-.7-4.9-.7-7.3-.2-4.8 1-9 4.7-11.1 9.1-.2.4-.7.6-1.2.4l-.3-.3c-1.3-1.7-3.3-3.2-5.5-3.5-2.3-.3-4.7-.1-6.9.9-2.1 1-4 2.6-5.4 4.5-1.4 1.9-2.5 4.2-3.2 6.5 0 .1-.2.2-.3.2-.1 0-.2-.2-.2-.3.6-2.5 1.5-4.8 2.9-6.9 1.4-2.1 3.3-3.9 5.6-5.1 2.3-1.2 5-1.5 7.6-1.3 1.3.1 2.6.6 3.8 1.3 1.2.7 2.2 1.5 3 2.7l-1.5.1c.6-1.3 1.4-2.3 2.3-3.4.9-1 1.8-2 2.8-2.9 2.1-1.8 4.5-3.1 7.2-3.7 1.3-.3 2.7-.4 4.1-.4 1.4 0 2.8.2 4.1.6 1.3.4 2.7 1 3.8 1.9 1.1.9 2 2.1 2.7 3.3.7 1.3 1.1 2.6 1.3 4l.1.5v.2c0-.1 0-.1-.1-.2l-.2-.2h-.1-.1l.1-.1c.8-.3 1.5-.4 2.2-.4 1.5-.1 2.8.2 4.2.5 1.3.4 2.7.9 3.9 1.8 1.2.8 2.2 2 2.8 3.2.7 1.3 1.1 2.6 1.3 4 .4 2.8.1 5.5-.6 8.2-.1.4-.5.6-.9.6l-31.6-.2-31.5-.3h-.2c-.2 0-.4-.2-.4-.4-.1-.2 0-.3.2-.3z" fill="#bedae6"/><path d="M723.9 318.6s-1-2.6-3.5-3.1c-1.3-.2-2.5.1-3.2.5-.8.4-1 1.4-.4 2 .6.7 1.5 1.5 2.9 1.7 2.5.6 4.2-1.1 4.2-1.1zM731.4 320.9c.7-.5.8-1.5.2-2.1-.7-.6-1.7-1.3-3.1-1.3-2.6 0-4.1 2.1-4.1 2.1s1.4 2.3 4.1 2.3c1.2-.1 2.2-.5 2.9-1zM732.5 314.5c.7-.4.9-1.4.3-2.1-.6-.7-1.6-1.4-3-1.6-2.6-.2-4.3 1.7-4.3 1.7s1.2 2.4 3.9 2.6c1.3.2 2.3-.2 3.1-.6zM735.1 309c.8-.2 1.2-1.2.8-1.9-.4-.8-1.2-1.8-2.5-2.2-2.5-.8-4.6.7-4.6.7s.6 2.6 3.2 3.4c1.2.3 2.3.2 3.1 0zM725.4 312.4s0-2.8-2.3-4.1c-1.2-.7-2.3-.7-3.2-.6-.8.1-1.4 1-1.1 1.8.3.9.9 1.9 2.1 2.6 2.3 1.3 4.5.3 4.5.3zM728.6 306.3s.4-2.8-1.7-4.4c-.9-.7-1.9-1-2.7-1.1-1.1-.1-2 .9-1.7 2 .2.8.7 1.7 1.6 2.5 2.2 1.6 4.5 1 4.5 1z" stroke="#bedae6" stroke-miterlimit="10"/><path d="M707.8 323.4c-.2-.9-.3-1.9-.2-2.8.1-.9.2-1.8.5-2.7.2-.9.6-1.8.9-2.6.4-.8.8-1.7 1.4-2.4l.3.2c-.6 1.7-1.2 3.4-1.6 5.1-.2.9-.4 1.7-.6 2.6-.2.9-.3 1.7-.6 2.6h-.1z" fill="#bedae6"/><path d="M707.5 323.4c-.2-.7-.2-1.4.1-2.1.3-.7.6-1.3 1.1-1.8.9-1 2-1.8 3.1-2.5l.3.3c-.4.6-.8 1.1-1.3 1.5-.5.5-.9.9-1.3 1.4-.4.5-.8.9-1 1.5-.3.5-.5 1-.8 1.7h-.2zM724.1 324.4c-.3-2-.3-4-.1-6.1.2-2 .6-4 1.2-6 1.2-3.9 3.4-7.6 6.6-10.1l.3.3c-1.3 1.5-2.5 3.1-3.5 4.8-1 1.7-1.8 3.5-2.3 5.4-.6 1.9-1 3.8-1.2 5.8-.3 2-.5 3.9-.7 5.9h-.3z" fill="#bedae6"/><path d="M571.4 237.7H469.8v86.5h101.6v-86.5z" fill="#6AB3D0"/><path d="M481 256.9v29.7h45.2v-41.5h-33.5c-6.4 0-11.7 5.3-11.7 11.8zM561.8 245.1h-26.7v74.2h26.7v-74.2z" fill="#bedae6"/><path d="M558.3 249.9H539V278h19.3v-28.1z" fill="#fff"/><path d="M469.8 222h112.9v5.5c0 5.5-4.3 9.9-9.7 10.1H469.8V222zM582.7 222L559 186.4h-89.2V222h112.9zM469.8 176.9h88.5l.7 9.5h-89.2v-9.5z" fill="#6ab3d0"/><path d="M559.8 293.1c2.5-.8 4.9-.7 7.4-.8 2.5-.1 4.9-.1 7.4-.1s4.9 0 7.4.1 4.9 0 7.4.8v.5c-2.5.8-4.9.7-7.4.8-2.5.1-4.9.1-7.4.1s-4.9 0-7.4-.1-4.9 0-7.4-.8v-.5z" fill="#187AA2"/><path d="M574 322.7c-.5-1.2-.3-2.5-.4-3.7v-3.7c0-2.5-.1-4.9-.1-7.4s0-4.9.1-7.4c0-2.5.1-4.9.7-7.4h.7c.6 2.5.7 4.9.7 7.4.1 2.5.1 4.9.1 7.4s0 4.9-.1 7.4v3.7c-.1 1.2.1 2.5-.4 3.7H574z" fill="#187AA2"/><path d="M568.8 322.9c1-.8 1.9-.7 2.9-.8 1-.1 1.9-.1 2.9-.1s1.9 0 2.9.1 1.9 0 2.9.8v.5c-1 .8-1.9.7-2.9.8-1 .1-1.9.1-2.9.1s-1.9 0-2.9-.1-1.9 0-2.9-.8v-.5zM587.8 307.2c.3-.3.6-.2.9-.2h.9c.6 0 1.2-.1 1.8 0 .6 0 1.2 0 1.8.1.6 0 1.2.1 1.8.5v.5c-.6.4-1.2.5-1.8.5-.6 0-1.2.1-1.8.1h-2.7c-.3 0-.6.1-.9-.2v-1.3zM606.9 290.6c.1 1.7-.6 3.1-1.2 4.5l-1.7 4.2c-.6 1.4-1.2 2.8-1.7 4.2-.3.7-.5 1.4-.8 2.1-.3.7-.6 1.3-1.1 2h-.5c-.6-1.7-.1-3.3.4-4.8.4-1.5 1-3 1.5-4.4.6-1.4 1.2-2.8 1.9-4.2.7-1.4 1.3-2.8 2.7-3.9l.5.3z" fill="#187AA2"/><path d="M588.5 324c-.3-.8 0-1.4 0-2.2l.3-2.1c.2-1.4.4-2.8.7-4.2.2-1.4.5-2.8.8-4.2.3-1.4.6-2.8 1.4-4.1l.7.1c.3 1.5.2 2.9-.1 4.3-.2 1.4-.4 2.8-.7 4.2-.2 1.4-.5 2.8-.8 4.2l-.4 2.1c-.2.7-.1 1.4-.7 2l-1.2-.1zM562.7 308.4c-.6.5-1.3.3-1.9.4h-1.9c-1.3 0-2.6.1-3.8.1-1.3 0-2.6 0-3.8-.1-1.3 0-2.6-.1-3.8-.7v-.7c1.3-.6 2.6-.7 3.8-.7 1.3-.1 2.6-.1 3.8-.1 1.3 0 2.6 0 3.8.1h1.9c.6.1 1.3-.1 1.9.4v1.3z" fill="#187AA2"/><path d="M544.1 290.4c1.4 1 2 2.5 2.7 3.9.7 1.4 1.3 2.8 1.9 4.2.6 1.4 1.1 2.9 1.5 4.4.4 1.5 1 3.1.4 4.8h-.5c-.5-.7-.8-1.3-1.1-2-.3-.7-.5-1.4-.8-2.1-.6-1.4-1.1-2.8-1.7-4.2l-1.7-4.2c-.6-1.4-1.3-2.8-1.2-4.5l.5-.3zM560.7 324.3c-.6-.6-.5-1.3-.7-2l-.4-2.1c-.3-1.4-.6-2.8-.8-4.2-.3-1.4-.5-2.8-.7-4.2-.2-1.4-.4-2.8-.1-4.3l.7-.1c.8 1.3 1.2 2.7 1.4 4.1.3 1.4.6 2.8.8 4.2.3 1.4.5 2.8.7 4.2l.3 2.1c.1.7.4 1.4 0 2.2l-1.2.1zM548.1 324c-.3-.8 0-1.5.1-2.2l.4-2.1c.3-1.4.5-2.8.8-4.2.3-1.4.6-2.8 1-4.2.3-1.4.7-2.8 1.6-4l.7.1c.3 1.5.1 2.9-.2 4.3-.3 1.4-.5 2.8-.8 4.2-.3 1.4-.6 2.8-1 4.2l-.5 2.1c-.2.7-.2 1.4-.8 2l-1.3-.2z" fill="#187AA2"/><path d="M560 316.5h-9.6" stroke="#187AA2" stroke-width="2" stroke-miterlimit="10"/><path d="M469.7 178.3H369.3v145.8h100.4V178.3z" fill="#bedae6"/><path d="M431.1 276.2h-44.7c-4.5 0-8.1-3.6-8.1-8.1v-44.7h52.8v52.8z" fill="#6AB3D0"/><path d="M461.6 201.1h-83.3v17h83.3v-17z" fill="#fff"/><path d="M461.6 223.4h-25.3v62.3h25.3v-62.3z" fill="#6AB3D0"/><path d="M368.9 285.1c4.3-.5 8.5-.3 12.8-.4h12.8c8.5 0 17-.1 25.6 0l25.6.1c8.5 0 17 .1 25.6.7v.7c-8.5.6-17 .7-25.6.7l-25.6.1c-8.5.1-17 0-25.6 0h-12.8c-4.3-.1-8.5.1-12.8-.4v-1.5zM469.7 295.7c-1.5.5-3 .3-4.4.4h-4.4c-3 0-5.9.1-8.9.1s-5.9 0-8.9-.1c-3 0-5.9-.1-8.9-.7v-.7c3-.6 5.9-.7 8.9-.7 3-.1 5.9-.1 8.9-.1s5.9 0 8.9.1h4.4c1.5.1 3-.1 4.4.4v1.3zM434.2 302.4c1.5-.5 3-.3 4.4-.4h4.4c3 0 5.9-.1 8.9-.1s5.9 0 8.9.1c3 0 5.9.1 8.9.7v.7c-3 .6-5.9.7-8.9.7s-5.9.1-8.9.1-5.9 0-8.9-.1h-4.4c-1.5-.1-3 .1-4.4-.4v-1.3zM434.2 310.4c1.5-.5 3-.3 4.4-.4h4.4c3 0 5.9-.1 8.9-.1s5.9 0 8.9.1c3 0 5.9.1 8.9.7v.7c-3 .6-5.9.7-8.9.7s-5.9.1-8.9.1-5.9 0-8.9-.1h-4.4c-1.5-.1-3 .1-4.4-.4v-1.3z" fill="#187AA2"/><path d="M397.2 251.9l-4.6-2.2c3.4-9.8 10.7-10 10.7-10l2.6 1.8 2.7-1.8c6.1 1.5 8.2 9 8.2 11.4l-4.5 1.2.4 10.5h-16l.5-10.9z" fill="#fff"/><path d="M251.1 324V204.8l25.2-41.4 30 44.3 63.1.5V324H251.1z" fill="#006088"/><path d="M283.4 254.6h-14.8v38.8h14.8v-38.8zM312 249.9v74.4h41.9v-74.4H312zM275.9 194.3c-1.3 0-7.4.5-7.4 8.1v26.2h14.8v-26.2c0-7.7-6.1-8.1-7.4-8.1z" fill="#6ab3d0"/><path d="M346.3 270.9h-26.5v53.4h26.5v-53.4z" fill="#6AB3D0"/><path d="M238.7 207.7l37.1-58.6 17.1 23.6h76.5v35.5l-63.6-.2-30-44.3-26.7 44h-10.4z" fill="#6ab3d0"/><path d="M420.4 178.3h56.5c-8.8-7.2-14.7-45-14.7-45l-41.8-.6h-.2l-41.8.6s-5.9 37.8-14.7 45h56.5" fill="#006088"/><path d="M311.3 252.9c0-12 9.7-21.7 21.7-21.7s21.7 9.7 21.7 21.7v6h-43.4v-6z" fill="#bedae6"/><path d="M355.8 324.5c-3.8.4-7.6.4-11.4.4l-11.4.1-11.4-.1c-3.8 0-7.6 0-11.4-.4v-.2c3.8-.4 7.6-.4 11.4-.4l11.4-.1 11.4.1c3.8 0 7.6 0 11.4.4v.2z" fill="#fff"/><path d="M338.4 245.9c.6-.9.8-2.9-.6-4.2-1.8-1.8-4.8-3.7-4.8-3.7s-.4 1.1-2.5 1.6c-2.9.8-2.3 2.8-2.3 2.8-1.5.8-2.1 2.4-1 3.5" fill="#6ab3d0"/><path d="M326.6 246.2l1.5 5.6c.3 1 1.1 1.6 2.1 1.6h5.4c1 0 1.9-.7 2.1-1.6l1.6-5.6" fill="#6AB3D0"/><path d="M327.3 246.3c-.7-.6-1.1-1.8-.6-2.8.5-1 1.4-1.6 2.3-1.8.9-.3 1.9-.4 2.8-.4.9-.1 1.8-.2 2.7-.4l.1.3c-.8.4-1.8.7-2.7.8-.9.1-1.8.2-2.6.5s-1.6.7-1.9 1.4c-.4.7-.3 1.5.1 2.4h-.2z" fill="#6AB3D0"/><path d="M325.6 245.7c.6-.2 1.2-.1 1.8-.2h9c1.2 0 2.4 0 3.6.3v.3c-1.2.3-2.4.3-3.6.3h-9c-.6 0-1.2.1-1.8-.2v-.5z" fill="#006088"/><path d="M337.7 241.1c.1.6-.1 1.2-.5 1.6-.4.4-.9.8-1.4 1-1 .4-2.1.7-3.2.5v-.3c1-.4 2-.5 2.9-1 .4-.2.9-.4 1.2-.8.4-.3.6-.7.9-1.1l.1.1z" fill="#6AB3D0"/><path d="M314.9 262.3a3.6 3.6 0 100-7.2 3.6 3.6 0 000 7.2z" fill="#bedae6"/><path d="M322.2 262.3a3.6 3.6 0 100-7.2 3.6 3.6 0 000 7.2z" fill="#bedae6"/><path d="M329.4 262.3a3.6 3.6 0 100-7.2 3.6 3.6 0 000 7.2z" fill="#bedae6"/><path d="M336.7 262.3a3.6 3.6 0 100-7.2 3.6 3.6 0 000 7.2z" fill="#bedae6"/><path d="M343.9 262.3a3.6 3.6 0 100-7.2 3.6 3.6 0 000 7.2z" fill="#bedae6"/><path d="M351.1 262.3a3.6 3.6 0 100-7.2 3.6 3.6 0 000 7.2z" fill="#bedae6"/><path d="M491.2 284.6c-.1-7.4 2.4-12.5 5.3-14 1.6-.8 3.9-.1 5.1 1.2 1.4 1.5 2.1 3.6 1.9 5.6l-.8 8.2" fill="#fff"/><path d="M491.2 284.6c-.1-7.4 2.4-12.5 5.3-14 1.6-.8 3.9-.1 5.1 1.2 1.4 1.5 2.1 3.6 1.9 5.6l-.8 8.2" stroke="#6ab3d0" stroke-width=".75" stroke-miterlimit="10" stroke-linecap="round" stroke-linejoin="round"/><path d="M498.6 266.8c3.8-.7 4.9 3.5 4.9 3.5M500.5 270.8c1.5-.2 4.8-.2 5.2 1.7.2.7-.2 1.9-1 2.4M499.8 269c-1.9-1.3-4.2-2-5.6-.6-.6.6-.4 2.3.9 3.3" stroke="#6AB3D0" stroke-width=".75" stroke-miterlimit="10" stroke-linecap="round" stroke-linejoin="round"/><path d="M505.6 256.9l-1.7 6.5c-.5 1.5-3.6 5.2-5.2 5l-4-1c.1 0 .6-14.7 10.9-10.5z" fill="#006088"/><path d="M490.5 286.7l.7-2.1 11.6 1 .1.9" fill="#fff"/><path d="M490.5 286.7l.7-2.1 11.6 1 .1.9" stroke="#6ab3d0" stroke-width=".75" stroke-miterlimit="10" stroke-linecap="round" stroke-linejoin="round"/><path d="M497.9 273.2c3.1.1 4.9 13.3 4.9 13.3l6.2 10.1-.8.5c-1.8 1.1-4.2.6-5.4-1.1l-4.7-6.8c0 .1-5.5-16.2-.2-16z" fill="#6AB3D0"/><path d="M505.5 257.4c1.2.5 1.5 1.3 1.7 2.3.2 1.9 1.7 2.3 1.7 3.3 0 .7-1.2.8-1.4 1.5-.6 2.3-2.3 3.9-4.8 4" fill="#fff"/><path d="M505.5 257.4c1.2.5 1.5 1.3 1.7 2.3.2 1.9 1.7 2.3 1.7 3.3 0 .7-1.2.8-1.4 1.5-.6 2.3-2.3 3.9-4.8 4M505.5 265.8c.5.4 1.1.4 1.1.4" stroke="#006088" stroke-width=".75" stroke-miterlimit="10" stroke-linecap="round" stroke-linejoin="round"/><path d="M505.6 256.9c.7 1.1 1.5 2.8 1.5 2.8l-3.6.4.2-2.1 1.9-1.1zM505.9 263c-.2 0-.3-.2-.3-.4v-.6c0-.2.2-.4.4-.4s.3.2.3.4v.6c0 .2-.2.4-.4.4z" fill="#006088"/><path d="M.2 323.3l46.6-.3 46.6-.2 93.2-.3 186.5-.1 186.5.2 93.2.2 46.6.1 46.6.2c.2 0 .4.2.4.4s-.2.4-.4.4l-46.6.2-46.6.1-93.2.2-186.5.2-186.5-.1-93.2-.3-46.6-.2-46.6-.3c-.1 0-.2-.1-.2-.2s.1-.2.2-.2zM354.2 335.8c4.1-.3 8.2-.3 12.4-.4l12.4-.1c8.2.1 16.5 0 24.7.4.1 0 .2.1.2.2s-.1.2-.2.2c-8.2.3-16.5.3-24.7.4l-12.4-.1c-4.1-.1-8.2-.1-12.4-.4-.1 0-.1-.1 0-.2-.1 0-.1 0 0 0zM60.7 335.8c2.5-.3 4.9-.3 7.4-.4l7.4-.1c4.9.1 9.8 0 14.7.4.1 0 .2.1.2.2s-.1.2-.2.2c-4.9.3-9.8.3-14.7.4l-7.4-.1c-2.5-.1-4.9-.1-7.4-.4 0 0-.1-.1 0-.2zM529.1 338.1c2.5-.3 4.9-.3 7.4-.4l7.4-.1c4.9.1 9.8 0 14.7.4.1 0 .2.1.2.2s-.1.2-.2.2c-4.9.3-9.8.3-14.7.4l-7.4-.1c-2.5-.1-4.9-.1-7.4-.4-.1 0-.1-.1 0-.2 0 0-.1 0 0 0zM514.4 353.3c1.8-.3 3.6-.4 5.4-.4 1.8 0 3.6-.1 5.4-.1 3.6.1 7.2 0 10.7.4.1 0 .2.1.2.2s-.1.2-.2.2c-3.6.3-7.2.3-10.7.4-1.8 0-3.6 0-5.4-.1-1.8 0-3.6-.1-5.4-.4-.1 0-.1-.1 0-.2-.1 0-.1 0 0 0zM732.4 350.2c1.6-.3 3.2-.4 4.9-.4 1.6 0 3.2-.1 4.9-.1 3.2.1 6.5 0 9.7.4.1 0 .2.1.2.2s-.1.2-.2.2c-3.2.3-6.5.3-9.7.4-1.6 0-3.2 0-4.9-.1-1.6 0-3.2-.1-4.9-.4-.1-.1-.1-.1 0-.2-.1 0-.1 0 0 0z" fill="#bedae6"/><path d="M665.2 332.5l.3 45.5-.2 5.6h-8l-1.7-26.8-1.9 26.8h-7.5l-1-29 .4-13.6 1.3-9 18.3.5zM150.8 270.5c.8 0 1.1-.1 1.9-.4 3.2-1.1 4.7-3.8 4.6-6.9 0-.9 1.5-1.5 1.2-2.4-.4-1.2-2.5-1.1-3.5-3.3-1.2-2.5-4.3-3.2-7.2-2.2-4.1 1.4-6.3 5.8-4.9 9.9" fill="#fff"/><path d="M150.8 270.5c.8 0 1.1-.1 1.9-.4 3.2-1.1 4.7-3.8 4.6-6.9 0-.9 1.5-1.5 1.2-2.4-.4-1.2-2.5-1.1-3.5-3.3-1.2-2.5-4.3-3.2-7.2-2.2-4.1 1.4-6.3 5.8-4.9 9.9" stroke="#006088" stroke-miterlimit="10" stroke-linecap="round" stroke-linejoin="round"/><path d="M149.9 260.8c1.1 2.8.9 7.6-2.1 8.7-2.9 1.1-5-4.3-5-4.3l7.1-4.4z" fill="#187aa2"/><path d="M141.7 302c-2.6 19.8-.4 62-.4 62h9.7l.9-35.4" fill="#006088"/><path d="M141.7 302c-2.6 19.8-.4 62-.4 62h9.7l.9-35.4" stroke="#006088" stroke-width=".735" stroke-miterlimit="10"/><path d="M141.3 363c2.9.1 11.8.7 13.2 1.1 1.3.5 1.4.7-.2 1-1.6.4-13 0-13 0V363z" fill="#006088" stroke="#006088" stroke-width=".735" stroke-miterlimit="10"/><path d="M157.5 301.6s1.1 15 1.6 30.4c.4 12.9-1.1 26.5-1 32h-10.5c.1-31.5-6.1-44.6-5.8-62M205.3 365.4c-1.3.4-5.3 1.2-6.5 1.6-1 .3-.8 1.8.3 1.8h10.8c1.2 0 2.2-1.1 2-2.3l-.2-1.2-6.4.1z" fill="#6ab3d0"/><path d="M140.9 280.2c-1.2 10.8.8 21.8.8 21.8l15.9-.4-.2-9.8-3.7-2 4.5-8.7-3-3.1-4.5-4.7c-4.6-1-9.2 2.2-9.8 6.9z" fill="#6ab3d0"/><path d="M152.3 289.1l.7 51.7h6.6l-1-48.6-6.3-3.1z" fill="#6AB3D0"/><path d="M150.4 287c6.3 5.4 12.4 7 14.9 4.8 3.8-3.2-3-15.8-3.4-17.6-1.6-6.4-5.1-6.4-6-5.7-.9.7.9 4.7.9 4.7l1.6 8.5" fill="#fff"/><path d="M150.4 287c6.3 5.4 12.4 7 14.9 4.8 3.8-3.2-3-15.8-3.4-17.6-1.6-6.4-5.1-6.4-6-5.7-.9.7.9 4.7.9 4.7l1.6 8.5M154.7 278.3l5.8 5.6" stroke="#006088" stroke-miterlimit="10" stroke-linecap="round" stroke-linejoin="round"/><path d="M147.6 363c2.9.1 11.8.7 13.2 1.1 1.3.5 1.4 1.2-.2 1.6-1.6.4-13 0-13 0V363z" fill="#6ab3d0"/><path d="M152.1 270.7l-.8 2.6-.7-2.7 1.5.1z" stroke="#006088" stroke-miterlimit="10" stroke-linecap="round" stroke-linejoin="round"/><path d="M155 301.3c-4.8 2.1-14.2 1-14.2 1" stroke="#6AB3D0" stroke-miterlimit="10" stroke-linecap="round" stroke-linejoin="round"/><path d="M160.5 315.7c-1.6.3-3.5.2-5.4-.1" stroke="#fff" stroke-miterlimit="10" stroke-linecap="round" stroke-linejoin="round"/><path d="M147.2 273.6c2.5-.9-2.9-3.8-3.3-1.8-.3 2 1.1 2.5 3.3 1.8zM148.3 273.2s3.1.4 4.7 2M142.3 266l15.6-10.7" stroke="#6AB3D0" stroke-miterlimit="10" stroke-linecap="round" stroke-linejoin="round"/><path d="M155.4 265.7c.7.1 1.3-.2 1.3-.2" stroke="#006088" stroke-miterlimit="10" stroke-linecap="round" stroke-linejoin="round"/><path d="M154.7 262.4c-.2 0-.5-.1-.5-.4l-.1-.7c0-.2.1-.5.4-.5.2 0 .5.1.5.4l.1.7c0 .3-.2.5-.4.5z" fill="#006088"/><path d="M473.9 284.9l-1.1.4-.8 2.9.8 11.4-.5 2.5-.1 6.3 2.5 3.7 1.8.3 1.8-2.5 2.9.4 2.3-12.8-9.6-12.6zM474.2 343.4c-4.4 8.4-5.1 11.8-4.4 16.6.7 4.8 5.4 11.1 5.4 11.1" fill="#fff"/><path d="M474.2 343.4c-4.4 8.4-5.1 11.8-4.4 16.6.7 4.8 5.4 11.1 5.4 11.1" stroke="#6AB3D0" stroke-miterlimit="10" stroke-linecap="round" stroke-linejoin="round"/><path d="M487.1 309.2c1.2 7.2 1.5 20.8 1.5 20.8l-13.4.6s-2.6-15.6-1.1-18.5" fill="#6AB3D0"/><path d="M472.4 301c-1.2 9.8 3.3 13.1 4.8 11.2z" fill="#fff"/><path d="M472.4 301c-1.2 9.8 3.3 13.1 4.8 11.2" stroke="#6AB3D0" stroke-miterlimit="10" stroke-linecap="round" stroke-linejoin="round"/><path d="M471.5 287.5c-1.1.7-1.8 1.7-2 3-.3 2.3-2.2 2.8-2.2 4 0 .9 1.5 1 1.7 1.8.8 2.8 3 4.9 6.1 4.9" fill="#fff"/><path d="M471.5 287.5c-1.1.7-1.8 1.7-2 3-.3 2.3-2.2 2.8-2.2 4 0 .9 1.5 1 1.7 1.8.8 2.8 3 4.9 6.1 4.9M471.2 296.9c-.4.9-1.3 1.3-1.3 1.3" stroke="#006088" stroke-miterlimit="10" stroke-linecap="round" stroke-linejoin="round"/><path d="M470.7 294c.2 0 .4-.2.4-.4v-.7c0-.2-.2-.4-.4-.4s-.4.2-.4.4v.7c-.1.2.1.4.4.4zM484.4 305.6c-3.8-1.6-11.6 12.7-11.6 12.7l-7.9-12.8-4.4 1.8s4 18 11.8 18.8c7.8.8 13.9-10.7 13.9-10.7s3.1-7.8-1.8-9.8z" fill="#006088"/><path d="M487.9 329.3c3.6 8.8-.6 59.3-.6 59.3h-10.2s-5.1-48.5-1.6-58.7" fill="#fff"/><path d="M487.9 329.3c3.6 8.8-.6 59.3-.6 59.3h-10.2s-5.1-48.5-1.6-58.7M472 287.2c2.5 2.1 2.7 7.4 3.2 9.7.6 2.9 1.6 5.6-1 5.8" stroke="#6AB3D0" stroke-miterlimit="10" stroke-linecap="round" stroke-linejoin="round"/><path d="M485.1 301.1c2.7-5.8-.2-15.5-6.5-16.8-2.1-.4-4.6.6-5.8 1" fill="#fff"/><path d="M485.1 301.1c2.7-5.8-.2-15.5-6.5-16.8-2.1-.4-4.6.6-5.8 1M488.9 370.8l6.7 8.9-8.2 8.9" stroke="#6AB3D0" stroke-miterlimit="10" stroke-linecap="round" stroke-linejoin="round"/><path d="M464.6 306.2c-.2-3-1.6-11.7-3-11.2-1.4.6-.3 4.8-.7 6.3-.4 1.4-1.1 3.4.1 6" fill="#fff"/><path d="M464.6 306.2c-.2-3-1.6-11.7-3-11.2-1.4.6-.3 4.8-.7 6.3-.4 1.4-1.1 3.4.1 6" stroke="#006088" stroke-miterlimit="10" stroke-linecap="round" stroke-linejoin="round"/><path d="M460.6 301.5s-.7-1.5-1-1.2c-.3.4.8 2.2.8 2.2" stroke="#006088" stroke-miterlimit="10" stroke-linecap="round" stroke-linejoin="round"/><path d="M480.2 296.2c0 2.7-1.1 5-2.3 5.5z" fill="#fff"/><path d="M480.2 296.2c0 2.7-1.1 5-2.3 5.5M486.1 335.8l-2.8 5.4" stroke="#6AB3D0" stroke-miterlimit="10" stroke-linecap="round" stroke-linejoin="round"/><path d="M483.9 295.6c1.8 6.5.6 15.7-6.3 14.6z" fill="#fff"/><path d="M483.9 295.6c1.8 6.5.6 15.7-6.3 14.6" stroke="#6AB3D0" stroke-miterlimit="10" stroke-linecap="round" stroke-linejoin="round"/><path d="M338 306.7s-6.7-.7-7.9 3.7c0 0-.8 3.2.5 5.7v1.7s-1.9-.9-3.8-.7c0 0-2.3.6-1.7 2.2l1.5 2.3 9.6 5.6s3.2-3.5 2.2-5.3l-2.2-1.2-1-2.6 2.8-11.4zM320 284.2s-3.6-3.6-6.6-3c0 0-6.9.4-7.1 6.3 0 0 .2 5.2 1.6 7.9l1.8 1.2-.5 1.5-1.4-.3-2.7 5.3 10.6 5.4 1.8-7.6-2.3-.8 1.3-3.4 3.5-12.5z" fill="#fff"/><path d="M315.8 300.1l1-3.4c2.8.4 4-1.2 5.1-3.7.3-.7 1.7-.6 1.8-1.4.1-1.1-1.5-1.8-1.4-4 0-1.2-.2-2.8-1.4-3 0 0-5.4 2.3-8.1 5.2-1.2 3.3-1.9 4.9-1.9 4.9l-1.4 3.4 6.3 2z" fill="#bedae6"/><path d="M336.2 328.4l-.9 9.3s-5.1 13.2-.9 8.2c-5.6 6.6-12.2-1.6-12.4-9.3-.2-8.5 2.7-14.3 6.1-16 1.8-.9 4.5-.1 5.9 1.3 1.6 1.7 2.4 4.1 2.2 6.5z" fill="#fff" stroke="#6ab3d0" stroke-miterlimit="10" stroke-linecap="round" stroke-linejoin="round"/><path d="M330.6 316.1c4.3-.8 5.6 4.1 5.6 4.1M332.7 320.7c1.8-.2 5.5-.2 6 1.9.2.8-.2 2.2-1.1 2.8M331.9 318.6c-2.2-1.5-4.8-2.3-6.4-.7-.7.7-.5 2.6 1.1 3.7" stroke="#6AB3D0" stroke-miterlimit="10" stroke-linecap="round" stroke-linejoin="round"/><path d="M299.2 347.7c1.3 8.5-13.4 32.7-13.4 32.7l6.7 9.8s12.8-18.4 15.4-26.1M319.2 358.5l6.3 32.7-10.4 1.3-9.8-38.7" stroke="#006088" stroke-miterlimit="10" stroke-linecap="round" stroke-linejoin="round"/><path d="M311.5 302.8c7.3 3.8 6.8 15.3 7.6 20.5.9 5.2 2.1 35 2.1 35l-27.6-1.1c-.1 0-.8-64 17.9-54.4z" fill="#6ab3d0"/><path d="M336.2 360.5l4.9 27.2c.1.8.8 1.4 1.6 1.5 1.4.2 3.5.8 3.5 2.5 0 .4-3.6.6-6.4.7-1.8 0-3.5-1.1-4-2.9l-8.3-26.6" fill="#6AB3D0"/><path d="M330 363.7l-15.1 23.2c-.5.7-.4 1.6.1 2.2.9 1.1 2 3 .8 4.2-.3.3-3-2-5.1-3.9-1.4-1.2-1.7-3.2-.9-4.8l12.2-25.1" fill="#6AB3D0"/><path d="M338.6 304.8l-2.2 6.6c-.6 1.7-2.3 2.8-4.1 2.5l-5.5-.9c0 .1 3-11.2 11.8-8.2z" fill="#006088"/><path d="M320 293.2c.3.9 1.2 1.2 1.2 1.2" stroke="#006088" stroke-miterlimit="10" stroke-linecap="round" stroke-linejoin="round"/><path d="M335.3 337.7l5.7 39.5-32-3.9 13.1-36.7 13.2 1.1z" fill="#fff" stroke="#6ab3d0" stroke-miterlimit="10" stroke-linecap="round" stroke-linejoin="round"/><path d="M331.2 323c3.3 1.2.4 16.2.4 16.2l3 13.3-1.1.2c-2.4.5-4.8-.9-5.4-3.2l-2.6-9.1c0 .1 0-19.5 5.7-17.4z" fill="#6AB3D0"/><path d="M305 310.4c-1.5 11.3-2.3 14.5 2.2 21.6 2.2 3.5 6.3 7.8 6.3 7.8M312.5 315s.1 4.7 0 6.8M314.1 323.9l-3.6-.5M315.4 325.4l-2 .9" stroke="#006088" stroke-miterlimit="10" stroke-linecap="round" stroke-linejoin="round"/><path d="M318.7 333.8l-8.2 9.8" stroke="#fff" stroke-miterlimit="10" stroke-linecap="round" stroke-linejoin="round"/><path d="M315.4 327.2l3.3 6.6M314.6 289.9l9.9-2.5M324.1 285.7l.7 3.6M320.3 282.9c-.2 3.4-5.9 4.5-7.7 6.9-1.8 2.4-1.1 4.5-1.1 4.5" stroke="#006088" stroke-miterlimit="10" stroke-linecap="round" stroke-linejoin="round"/><path d="M318.2 282.9c-1.7-2.5-8.6-2.3-10.8 1.3-2.7 4.5.5 11.2.5 11.2" stroke="#006088" stroke-miterlimit="10" stroke-linecap="round" stroke-linejoin="round"/><path d="M307.4 297.4l10.3 3.3-.9 3.2" stroke="#6ab3d0" stroke-miterlimit="10" stroke-linecap="round" stroke-linejoin="round"/><path d="M320.8 284.6c.9.8 1.4 1.8 1.4 3 0 2.2 1.6 2.9 1.4 4-.1.8-1.5.7-1.8 1.4-1.1 2.5-2.2 4.1-5.1 3.7l-1 3.4" stroke="#006088" stroke-miterlimit="10" stroke-linecap="round" stroke-linejoin="round"/><path d="M328.8 306.7h1.8v-1.8c0-1-.8-1.8-1.8-1.8s-1.8.8-1.8 1.8.8 1.8 1.8 1.8z" fill="#006088"/><path d="M338.4 305.3c1.3.6 1.7 1.5 1.9 2.7.3 2.2 2 2.6 2 3.7 0 .8-1.4.9-1.6 1.7-.7 2.6-2.7 4.5-5.5 4.5" fill="#fff"/><path d="M338.4 305.3c1.3.6 1.7 1.5 1.9 2.7.3 2.2 2 2.6 2 3.7 0 .8-1.4.9-1.6 1.7-.7 2.6-2.7 4.5-5.5 4.5" stroke="#006088" stroke-miterlimit="10" stroke-linecap="round" stroke-linejoin="round"/><path d="M338.4 314.9c.6.5 1.3.5 1.3.5" stroke="#006088" stroke-width="1.105" stroke-miterlimit="10" stroke-linecap="round" stroke-linejoin="round"/><path d="M338.6 304.8c.8 1.3 1.7 3.2 1.7 3.2l-4.1.5.2-2.4 2.2-1.3zM338.9 311.8c-.2 0-.4-.2-.4-.4v-.7c0-.2.2-.4.4-.4s.4.2.4.4v.7c0 .2-.1.4-.4.4z" fill="#006088"/><path d="M207.7 290.7h-6l-1-13.7h7v13.7zM214.1 288.8c3-.4 11.2 9.9 12.7 13.8 1.5 4-8.3 6.3-8.3 6.3" fill="#bedae6"/><path d="M214.1 288.8c3-.4 11.2 9.9 12.7 13.8 1.5 4-8.3 6.3-8.3 6.3" stroke="#006088" stroke-miterlimit="10" stroke-linecap="round" stroke-linejoin="round"/><path d="M224.7 338.2s5.7 10.9 4.9 21.3l-.9 2.7-18.1-25" fill="#bedae6"/><path d="M224.7 338.2s5.7 10.9 4.9 21.3l-.9 2.7-18.1-25" stroke="#006088" stroke-miterlimit="10" stroke-linecap="round" stroke-linejoin="round"/><path d="M202.9 336.3s1.3 25.9 2.7 30.3l5.4-.1c.3-9.1 3.4-20.7 3.7-32.4" fill="#bedae6"/><path d="M202.9 336.3s1.3 25.9 2.7 30.3l5.4-.1c.3-9.1 3.4-20.7 3.7-32.4" stroke="#006088" stroke-miterlimit="10" stroke-linecap="round" stroke-linejoin="round"/><path d="M200.7 283.6c1.3.3 2.8-.1 2.8-.1.1 0 .1.1.1.1l-2.3 2.4-.6-2.6" fill="#006088"/><path d="M200.7 283.6c1.3.3 2.8-.1 2.8-.1.1 0 .1.1.1.1l-2.3 2.4-.6-2.6" stroke="#006088" stroke-width=".876" stroke-miterlimit="10"/><path d="M202.3 267.9c-3.1-.1-5.9 1.3-6.3 4.1-.4 2.4-2.4 2.9-2.5 4.2 0 .9 1.6 1.1 1.8 2 .7 3 2.9 5.2 6.3 5.4.8 0 1.2 0 1.9-.2" fill="#bedae6"/><path d="M202.3 267.9c-3.1-.1-5.9 1.3-6.3 4.1-.4 2.4-2.4 2.9-2.5 4.2 0 .9 1.6 1.1 1.8 2 .7 3 2.9 5.2 6.3 5.4.8 0 1.2 0 1.9-.2M197.4 278.7c-.4 1-1.4 1.4-1.4 1.4" stroke="#006088" stroke-miterlimit="10" stroke-linecap="round" stroke-linejoin="round"/><path d="M197 275.7c.2 0 .4-.2.4-.4v-.8c0-.2-.2-.4-.4-.4s-.4.2-.4.4v.8c0 .2.2.4.4.4z" fill="#006088"/><path d="M201 286.9c8.4-2.7 11.9-.7 15.1 4.1 5.2 7.9 2.2 9.9 4.1 17.1 1.9 7.2 6.3 10.3 5.5 30.8h-24s-2.3-23.7-1.6-30.6M225.9 359.3s5.6 9.8 7.4 9.4c1.1-.2-.7-5-1.3-7.2-.4-1.6-.8-2.6-2.4-2.4l-3.7.2z" fill="#6ab3d0"/><path d="M196.2 295.6s-1.6-1.2-2.9-3.4c-1.9-3.4-6.8-9.2-8-7.6-1.2 1.5.9 6.9 2.7 7.8 1.3 4.3 8.2 18.7 12.3 17.6 4.1-1.1 7.4-23 1.7-22.7-5.7.3-6.1 12.9-6.1 12.9" fill="#bedae6"/><path d="M196.2 295.6s-1.6-1.2-2.9-3.4c-1.9-3.4-6.8-9.2-8-7.6-1.2 1.5.9 6.9 2.7 7.8 1.3 4.3 8.2 18.7 12.3 17.6 4.1-1.1 7.4-23 1.7-22.7-5.7.3-6.1 12.9-6.1 12.9" stroke="#006088" stroke-miterlimit="10" stroke-linecap="round" stroke-linejoin="round"/><path d="M216.2 281.6c-.6-1-1.3-1.8-2.1-2.4-.7-.6-1.2-1.4-1.4-2.3-.2-1.3-.6-2.5-1.2-3.4-.8-1.2-2.3-2.2-3.8-2.6-1.4-2.4-2.6-2.8-4.3-3.3-2.8-.9-5.5.8-5.5.8-.4 3.2.9 6.7 3.8 6.9-.5 2.4.9 5.7 3.6 6.5-.3 1.8.1 4 1.3 5.9 2.2 3.6 6.2 5.1 8.8 3.5 2.7-1.8 3-6 .8-9.6z" fill="#006088"/><path d="M600.1 325.1c.2 10.4-.8 26.8-.6 29.9 0 .6.6 1.1 1.2 1.1h9l1.2-14.1 1.6 14.1h9.1c.7 0 1.2-.5 1.2-1.2l-2.6-29.9h-20.1" fill="#6AB3D0"/><path d="M604.8 307.9l-4.6 2-6.7-3.2c4.9-14.1 13.1-14.8 13.1-14.8l3.8 2.6 3.9-2.6c8.7 2.2 11.8 13 11.8 16.4l-6.5 1.8 2.6 15.1h-24l.9-7.9s5.8-5.2 6.7-6" fill="#006088"/><path d="M608.4 304.5c.4-1.1-.4-1.6-.9-1l-.9 1.8" fill="#fff"/><path d="M593.8 319.5c3.5 1.2 11.9-8.3 11.9-8.3s2.3 0 2.9-2.7c.4-1.8 2-1.4 3-.9.3.2.7-.1.7-.5 0-1.2-.8-2.2-1.9-2.4-1.6-.3-3.3.3-4.4 1.5l1.5-2.6-2.7 4.3-7.7 3.3" fill="#fff"/><path d="M614.9 277.5c.7 1.1 1 2.4 1.2 3.7.1 1.3.1 2.6-.3 3.9-.4 1.3-1.2 2.5-2.3 3.3-1.1.8-2.5 1.2-3.8 1.2-1.3 0-2.7-.3-3.9-1.1-1.1-.8-1.8-2.1-2.2-3.3-.7-2.5-.4-5.3.9-7.5 0-.1.1-.1.2-.1s.1.1.1.2c-.7 2.3-.8 4.8-.2 7.1.3 1.1.9 2.1 1.8 2.8.9.7 2 .9 3.2.9 1.2-.1 2.3-.4 3.2-1 .9-.6 1.6-1.6 1.9-2.7.4-1.1.4-2.3.3-3.5-.1-1.2-.5-2.3-.7-3.5 0-.2.1-.4.3-.4.1-.1.2-.1.3 0z" fill="#006088"/><path d="M611 283.1l.1 1.7c0 .3-.2.5-.5.5s-.5-.2-.5-.5v-.1l.1-1.7c0-.2.2-.4.4-.3.2.1.3.2.4.4z" fill="#006088"/><path d="M608.2 283.9v.5M613.1 283.9v.5" stroke="#006088" stroke-miterlimit="10" stroke-linecap="round" stroke-linejoin="round"/><path d="M597 310.9c.4-.4 1-.6 1.5-.8l1.5-.7 3.1-1.4.8-.3.4-.2c.1 0 .1-.1.2-.1l.2-.2.2-.4.5-.7c.6-.9 1.2-1.9 1.8-2.8.2-.2.4-.3.8-.4.3 0 .7.2.8.4.3.5.1 1-.1 1.3 0 .1-.1.1-.2.1s-.1-.1-.1-.2c0-.3 0-.7-.2-.8-.1-.1-.1 0-.1 0l-.2.2.1-.1c-.5 1-1.1 1.9-1.7 2.9l-.4.7-.2.4c-.1.1-.2.3-.3.4-.1.1-.3.3-.5.3l-.4.2-.8.3-3.1 1.3-1.5.7c-.5.2-1 .5-1.6.5-.2 0-.4-.1-.4-.3-.2-.1-.2-.2-.1-.3z" fill="#006088"/><path d="M605.7 305.9c0-.4.3-.5.5-.7.2-.2.4-.4.7-.5.5-.3 1-.6 1.7-.7.6-.1 1.2 0 1.8.2.6.2 1.1.5 1.3 1.1 0 .1 0 .2-.1.3h-.1c-.6-.1-1-.2-1.5-.4-.4-.1-.9-.1-1.3-.1-.4.1-.9.2-1.3.5-.2.1-.4.3-.6.4-.2.1-.3.4-.7.4-.2 0-.4-.2-.4-.5 0 0 0 .1 0 0z" fill="#006088"/><path d="M612 306.1c-1.4-1.1-2.9-.7-4.2.3" stroke="#006088" stroke-miterlimit="10" stroke-linecap="round" stroke-linejoin="round"/><path d="M600.8 309.3c-.1-.3.1-.4.2-.6l.3-.6c.2-.4.4-.8.5-1.1.2-.4.4-.8.6-1.1.2-.4.4-.8.8-1 .1-.1.2 0 .3.1v.1c.1.5 0 .9-.2 1.3s-.3.8-.5 1.2c-.2.4-.4.8-.6 1.1l-.3.6c-.1.2-.2.4-.5.5-.3-.1-.5-.2-.6-.5zM602 357c.3.8.2 1.6.3 2.3l.1 2.4c.1 1.6.2 3.1.2 4.7.1 1.6.1 3.1.2 4.7s.1 3.1-.1 4.7c0 .1-.1.2-.2.1-.1 0-.1-.1-.1-.1-.4-1.6-.5-3.1-.6-4.7-.1-1.6-.2-3.1-.2-4.7-.1-1.6-.1-3.1-.2-4.7l-.1-2.4c0-.8-.1-1.6.1-2.4 0-.2.2-.3.4-.3.1.2.2.3.2.4zM609.4 357.1c.2.7 0 1.3 0 2l-.2 1.9-.3 3.9c-.1 1.3-.3 2.6-.4 3.9-.1 1.3-.3 2.6-.7 3.9 0 .1-.1.1-.2.1s-.1-.1-.1-.1c-.2-1.3-.1-2.6 0-3.9l.3-3.9c.1-1.3.3-2.6.4-3.9l.2-1.9c.1-.6.1-1.3.4-1.9.1-.2.3-.3.5-.2 0-.1.1 0 .1.1zM599.7 344.4c.3-.2.6-.1.9-.2h4.3c.6 0 1.1 0 1.7.3.1 0 .1.2.1.3 0 0 0 .1-.1.1-.6.3-1.1.3-1.7.3h-4.3c-.3 0-.6.1-.9-.2-.2-.1-.2-.4 0-.6z" fill="#006088"/><path d="M599.9 347c.3-.2.6-.1.9-.2H603.5c.5-.1.9-.3 1.2-.7.3-.4.5-.8.9-1.4.1-.1.2-.1.3-.1l.1.1c.2.6.1 1.4-.4 2-.4.6-1.1 1-1.9 1.1h-2.8c-.3 0-.6.1-.9-.2-.2-.1-.3-.4-.1-.6zM618.3 341.2c.1-.2.3-.2.4-.2h1.4c.3 0 .6.1.9.1.3.1.6.1.8.5.1.1 0 .2-.1.3-.3.2-.6.2-.9.2h-.8c-.3 0-.6-.1-.8-.1h-.4c-.1 0-.3.1-.4-.2-.2-.2-.2-.5-.1-.6z" fill="#006088"/><path d="M606.9 274c.2 2.4-1.9 13.8-1.9 13.8-2.4-.2-5.3-6.8-2.7-11.9 1.7-3.2 4.6-1.9 4.6-1.9z" fill="#6ab3d0"/><path d="M604.8 275.8s3 4.4 4.3 4.7c1.9.4 7.8-.2 7.8-.2s-.9-6.6-6-7.3c-5.1-.7-5.8 2.7-5.8 2.7" fill="#6ab3d0"/><path d="M608.5 281.3h-.9c-.3 0-.7.1-1 .2h-.1c-.2.1-.4 0-.4-.2 0-.1 0-.2.1-.3.3-.5.8-.6 1.3-.7h.8c.3.1.6.2.7.5.1.2 0 .3-.1.4h-.2l-.2.1zM612.2 280.9c.2-.3.5-.4.7-.5.3 0 .5-.1.8 0 .5.1.9.3 1.3.7.1.1.1.4-.1.5-.1.1-.2.1-.3.1h-.1c-.3-.1-.6-.2-1-.2h-1.1c-.2 0-.3-.1-.3-.3.1-.2.1-.2.1-.3zM609.9 286.1c.2.1.4.1.7.1.3 0 .4 0 .7-.1l.1-.1c.2-.1.4 0 .4.2v.2c-.1.3-.3.5-.5.6-.2.1-.5.2-.7.2-.5 0-1-.2-1.2-.7-.1-.2 0-.4.2-.4H609.9z" fill="#006088"/><path d="M606 276.5s-.3 2.1 2 4.1" stroke="#6ab3d0" stroke-width="2" stroke-miterlimit="10" stroke-linecap="round" stroke-linejoin="round"/><path d="M595.6 307.3c-.4 1.2-.9 2.2-1.4 3.3-.5 1.1-1 2.2-1.3 3.3-.4 1.1-.7 2.3-.5 3.3.1.5.3.9.6 1.2.2.1.4.3.6.4.3.1.5.2.7.2.9.1 2-.5 3-1.1 1-.6 1.9-1.3 2.8-2.1 1.8-1.5 3.5-3.2 5.1-5 .1-.1.2-.2.4-.2.5 0 1.1-.3 1.5-.6.4-.4.7-.9.9-1.5.1-.3.2-.7.5-1.1.2-.3.6-.6 1.1-.7.4-.1.8 0 1.2.2.3.2.6.3.9.6.1.1.1.2 0 .2-.1.1-.1.1-.2 0-.6-.3-1.2-.5-1.7-.4-.5.1-.7.7-.8 1.3-.2.7-.5 1.5-1.1 2-.6.6-1.3.9-2.2.9l.4-.2c-1.6 1.8-3.3 3.6-5.2 5.2-.9.8-1.9 1.6-2.9 2.2-1.1.6-2.2 1.3-3.7 1.3-.2 0-.4-.1-.6-.1-.2-.1-.3-.1-.5-.2-.3-.1-.6-.3-.9-.6-.6-.5-.9-1.2-1-1.9-.2-1.4.2-2.6.6-3.8.4-1.2.9-2.3 1.4-3.4.5-1.1 1-2.2 1.7-3.2.1-.2.3-.2.5-.1.1.3.1.4.1.6zM607.6 377.3c0 .4-.3.6-.7.6-9.1 0-11.4 1.1-12-.6-.4-1.4 9.1-2.8 12.2-3.2.5-.1.9.3.8.8l-.3 2.4zM621.2 356.8c.2.7.1 1.4.1 2.1l-.1 2.1c-.1 1.4-.1 2.8-.2 4.2l-.3 4.2c-.1 1.4-.2 2.8-.6 4.2 0 .1-.1.1-.2.1s-.1-.1-.1-.1c-.2-1.4-.2-2.8-.1-4.3.1-1.4.1-2.8.2-4.2l.3-4.2.1-2.1c.1-.7 0-1.4.3-2.1.1-.2.3-.3.5-.2 0 .1 0 .2.1.3zM611.2 341.1c.4 1.4.5 2.9.7 4.3l.5 4.3c.3 2.9.7 5.7 1 8.6l1 8.6c.3 2.9.6 5.7.7 8.6 0 .1-.1.2-.2.2s-.1-.1-.2-.1c-.6-2.8-1-5.7-1.4-8.6l-1.1-8.6c-.4-2.9-.7-5.7-1-8.6l-.5-4.3c-.1-1.4-.4-2.9-.3-4.3 0-.2.2-.3.4-.3s.3.1.4.2z" fill="#006088"/><path d="M614.5 377.3c0 .4.3.6.7.6 9.1 0 11.4 1.1 12-.6.4-1.4-9.1-2.8-12.2-3.2-.5-.1-.9.3-.8.8l.3 2.4z" fill="#006088"/><path d="M643 335c-2.1 2.8-.7 9.1.7 9.1 1.9 0-.6-3.5-.2-4.8.4-1.3.7-1.6 1-1.5.3.1-.1 3.9.9 3.8l.4-6.7-2.8.1z" fill="#bedae6"/><path d="M644.6 337.2c-.2 1-.3 2-.3 3s.2 2 .2 3.1c0 .1-.1.2-.2.2s-.1 0-.1-.1c-.7-.9-.9-2.1-.9-3.2s.2-2.3.7-3.3c.1-.2.3-.2.5-.1 0 0 .1.2.1.4z" fill="#006088"/><path d="M653.252 301.672h6.4v-6.3h-6.4v6.3z" fill="#bedae6"/><path d="M659.6 298.3l-.2.2c-.6.7-3.2 2.7-3.2 2.7s-2.3-2-3-2.9l-1.6 1.3 2.7 14.2 8.1-10.5-1.1-4.3-1.7-.7z" fill="#fff"/><path d="M669.9 345.7h1.4c.5 0 .9 0 1.3-.1.8-.3 1.4-.9 1.5-1.7V342.6c0-.4-.1-.8-.3-1.1-.4-.7-1.2-1.1-1.9-1.1h-1.4c-.5 0-.9 0-1.3.1-.8.2-1.4.9-1.6 1.7-.1.4-.1.9-.1 1.3s.1.8.3 1.2c.4.8 1.2 1.3 2.1 1.3v-.3zm0 .5c-1 .1-2.1-.5-2.6-1.4-.3-.4-.4-1-.5-1.5 0-.5-.1-.9 0-1.5.2-1.1 1-2 2.1-2.4.3-.1.5-.1.8-.2H671.8c1.1 0 2.2.6 2.8 1.6.3.5.4 1 .4 1.6v.7c0 .2 0 .5-.1.8-.2 1.1-1.1 2-2.2 2.3-.5.2-1.1.1-1.5.1h-1.4v-.1h.1z" fill="#006088"/><path d="M668.3 333.7c.2 2.4-2.2 5.8-1.1 6.5.8.4 2.1-2.5 2.1-2.5.7-.1.6 2.1.2 3-.4.9.7 1.2 1.8.6s2.6-3.4.2-7.8M663 286c.2 7.1-4.3 11.4-6.5 11.4-2.3 0-7-5.1-6.5-11.4.2-2.8 2.1-4.8 6.8-4.4 4.7.4 6.1.9 6.2 4.4z" fill="#bedae6"/><path d="M650.5 287c.3 1.1.2 2.2.5 3.2.2 1 .6 2 1.1 2.9.5.9 1.2 1.7 2.1 2.2.8.5 1.8.9 2.8.7.9-.1 1.9-.6 2.6-1.3.7-.7 1.3-1.6 1.8-2.5.9-1.9 1.2-4.1 1.5-6.2 0-.1.1-.2.2-.1.1 0 .1.1.1.1.3 2.2 0 4.6-.9 6.7-.5 1.1-1.1 2-2 2.9-.8.8-1.9 1.5-3.2 1.7-1.3.2-2.5-.2-3.5-.9s-1.8-1.6-2.4-2.6c-.6-1-.9-2.1-1.2-3.3-.2-1.1-.4-2.3-.2-3.4 0-.2.2-.3.4-.3.1-.1.2 0 .3.2z" fill="#006088"/><path d="M655.3 281.2c-4 0-6.7 2-5.9 3.5.8 1.4 7.9-.9 9.5.8 1 1.1 1 3.4.9 4.9-.1.9.4 1.7 1.2 2l.9.5c2.3-5.4 3.8-11.7-6.6-11.7zM655.5 289.3l.1 2.9c0 .3-.2.5-.5.5s-.5-.2-.5-.5l.1-2.9c0-.2.2-.4.4-.4.3 0 .4.2.4.4z" fill="#006088"/><path d="M652.3 289.3v.5M657.4 289.3v.5" stroke="#006088" stroke-miterlimit="10" stroke-linecap="round" stroke-linejoin="round"/><path d="M653.3 287.7h-.9c-.3 0-.7.1-1 .2h-.1c-.2.1-.4 0-.4-.2 0-.1 0-.2.1-.3.3-.5.8-.6 1.3-.7h.8c.3.1.6.2.7.5.1.2 0 .3-.1.4h-.2l-.2.1zM656.6 287.3c.2-.3.5-.4.7-.5.3 0 .5-.1.8 0 .5.1.9.3 1.3.7.1.1.1.4-.1.5-.1.1-.2.1-.3.1h-.1c-.3-.1-.6-.2-1-.2h-1.1c-.2 0-.3-.1-.3-.3 0-.2 0-.2.1-.3zM654.7 293.7c.2.1.4.1.7.1.3 0 .4 0 .7-.1l.1-.1c.2-.1.4 0 .4.2v.2c-.1.3-.3.5-.5.6-.2.1-.5.2-.7.2-.5 0-1-.2-1.2-.7-.1-.2 0-.4.2-.4H654.7z" fill="#006088"/><path d="M653.5 291h-1.8c-.4 0-.8-.4-.9-1l-.1-1.1c0-.3.2-.5.4-.5h2.9c.2 0 .4.2.4.5l-.1 1.1c0 .6-.3 1-.8 1zM658.7 291H657c-.4 0-.8-.4-.9-1l-.1-1c0-.3.2-.5.4-.5h2.9c.2 0 .4.2.4.5l-.1 1.1c-.1.5-.4.9-.9.9zM654.5 289h1.5" stroke="#e6f1f5" stroke-width=".5" stroke-miterlimit="10" stroke-linecap="round" stroke-linejoin="round"/><path d="M661.4 299.8c7.9-.4 9 2.2 13.1 20.9.1.3.1.6.1.8.1 5.9-.1 9.4-.3 11.3-.1 1-1 1.7-2 1.7h-5.4l.8-12.8-1-4.3-1.3 15.1h-19v2.5H643c-1 0-1.8-.8-1.8-1.8.2-6.6.4-27.5 2.9-31.5 1.6-2.4 7.6-1.4 7.6-1.4l4.1 7.9 5.6-8.4z" fill="#187AA2"/><path d="M665.3 300l-9.4 17.2-8.6-17 4.4-.6 4.2 8.7 5.5-9.2 3.9.9z" fill="#006088"/><path d="M656.2 315.5c.2.4.2.9.2 1.3V320.7c-.1 1.7-.1 3.5-.3 5.2 0 .1-.1.2-.2.1-.1 0-.1-.1-.1-.1-.2-1.7-.2-3.5-.3-5.2V316.8c0-.4-.1-.9.2-1.3.1-.2.3-.3.5-.2-.1.1 0 .1 0 .2zM664.8 312.8c.4.3.5.7.8 1.1l.6 1.2c.3.8.7 1.6.9 2.5.3.8.5 1.7.7 2.5.2.9.3 1.7.1 2.6 0 .1-.1.2-.2.1-.1 0-.1 0-.1-.1-.4-.8-.6-1.6-.8-2.4-.2-.8-.5-1.6-.7-2.4-.3-.8-.5-1.6-.9-2.4-.2-.4-.3-.8-.5-1.2-.2-.4-.4-.7-.4-1.2 0-.2.2-.4.4-.4 0 .1 0 .1.1.1zM646.6 321.3c.1.3-.1.3-.1.4-.1.1-.2.2-.2.3-.1.2-.3.5-.4.7l-.4.8-.2.4-.1.2c0 .1-.1.1-.4.1-.1 0-.2-.1-.3-.1-.2-.2-.3-.3-.2-.3l.1-.2.2-.4c.1-.3.3-.6.4-.8.2-.3.3-.5.5-.8.1-.1.2-.3.3-.4.1-.1.2-.3.5-.3.2 0 .4.2.4.4h-.1zM668.8 334.6c.1.3 0 .6-.1.8 0 .1-.1.3-.2.4l-.3.3c-.1.1-.2 0-.3-.1-.1-.2-.1-.3-.1-.5v-.4c.1-.3.2-.5.4-.7.2-.1.4-.1.5 0 .1.1.1.2.1.2zM670 337.9c.2.3.3.6.4.9.1.3 0 .6 0 .9l-.3.9c-.2.3-.5.6-.9.6-.1 0-.2-.1-.2-.2v-.1c.1-.2.2-.4.2-.6 0-.2.1-.4.1-.7v-1.4c0-.2.1-.3.3-.3.2-.1.3 0 .4 0zM665.6 332.5c.5 4.2.5 8.5.6 12.8.1 4.3.1 8.5.1 12.8 0 8.5-.1 17-.3 25.5 0 .3-.3.6-.6.6h-8c-.3 0-.5-.2-.6-.5l-1.3-21.5-.7-10.7c-.2-3.6-.6-7.2-.4-10.8 0-.1.1-.2.2-.2s.1.1.2.1c.8 3.6.8 7.1 1.1 10.7l.7 10.7 1.4 21.5-.6-.5h8l-.6.6c.2-8.5.4-17 .4-25.5v-12.8c0-4.3-.2-8.5-.2-12.7 0-.2.1-.3.3-.3.1-.1.2 0 .3.2z" fill="#006088"/><path d="M655.9 355.5c-.3 4.7-.7 9.3-.9 14-.3 4.7-.5 9.4-.7 14.1 0 .3-.2.5-.5.5h-7.6c-.3 0-.5-.2-.5-.5-.3-4.3-.6-8.5-.8-12.8a273.33 273.33 0 010-25.6c.2-4.3.5-8.5 1-12.8v.1c-.1-3.3-.1-6.5 0-9.8 0-1.6.1-3.3.2-4.9.1-1.6.3-3.3.8-4.9 0-.1.1-.1.2-.1s.1.1.1.2c0 1.6-.1 3.2-.1 4.9-.1 1.6-.1 3.2-.2 4.9-.1 3.2 0 6.5 0 9.7v.1c-.5 4.2-.8 8.4-1 12.7-.2 4.2-.3 8.5-.2 12.8 0 4.3.1 8.5.3 12.8.2 4.3.4 8.5.7 12.7l-.5-.5h7.6l-.5.5c.2-4.7.4-9.4.7-14.1.1-2.3.3-4.7.5-7s.4-4.7.8-7c0-.2.2-.3.4-.3.1 0 .2.1.2.3zM662.8 383.7c2.9.5 7.3 2.2 7.2 3 0 .3-.1.5-.1.5-4.6 0-5.2-.6-10.6-1.5" fill="#006088"/><path d="M658.543 387.332h4.3v-3.6h-4.3v3.6zM648.6 383.7c-2.9.5-7.3 2.2-7.2 3 0 .3.1.5.1.5 4.6 0 5.2-.6 10.6-1.5" fill="#006088"/><path d="M652.9 383.7h-4.3v3.6h4.3v-3.6z" fill="#006088"/><path d="M644.7 358.7c.8.6 1.5 1.3 2.1 2.1.5.8 1 1.7 1 2.8 0 .1-.1.2-.2.2s-.1 0-.1-.1c-.6-.7-1.1-1.5-1.6-2.3-.5-.8-1-1.5-1.6-2.2-.1-.1-.1-.4 0-.5.1-.1.3-.1.4 0z" fill="#187AA2"/><path d="M662.2 358h16.9c1.3 0 2.3-1 2.3-2.2V344c0-1.2-1-2.2-2.3-2.2h-16.9c-1.3 0-2.3 1-2.3 2.2v11.8c0 1.2 1.1 2.2 2.3 2.2z" fill="#6ab3d0"/><path d="M613.1 288.2c.2.2.2.4.2.5v1.6c0 .2.1.5.3.6.1.1.2.2.3.2.1.1.2.1.4.1.7.2 1.4.5 2.1.9.7.3 1.3.8 1.8 1.4.1.1 0 .2 0 .2h-.1c-.8-.2-1.4-.5-2-.8-.6-.3-1.3-.5-1.9-.7-.1 0-.4-.1-.6-.2-.2-.1-.4-.3-.6-.4-.3-.4-.5-.9-.5-1.4v-1.6c0-.2 0-.4.2-.5-.1-.1.2-.1.4.1 0 0 0-.1 0 0zM436.3 31.2c0-8.8-7.2-16-16-16s-16 7.2-16 16c0 3.2.9 6.1 2.5 8.6 5.4 8.4 13.5 21.1 13.5 21.1s8.1-12.7 13.5-21.1c1.5-2.5 2.5-5.4 2.5-8.6zm-16 6.9c-3.8 0-6.9-3.1-6.9-6.9 0-3.8 3.1-6.9 6.9-6.9 3.8 0 6.9 3.1 6.9 6.9 0 3.8-3.2 6.9-6.9 6.9z" fill="#006088"/><path d="M658.7 132.8c0-4.7-3.8-8.5-8.5-8.5s-8.5 3.8-8.5 8.5c0 1.7.5 3.2 1.3 4.6 2.9 4.5 7.1 11.2 7.1 11.2s4.3-6.7 7.1-11.2c1.1-1.4 1.5-2.9 1.5-4.6zm-8.4 3.6c-2 0-3.6-1.6-3.6-3.6s1.6-3.6 3.6-3.6 3.6 1.6 3.6 3.6-1.6 3.6-3.6 3.6z" fill="#bedae6"/><path d="M76.8 250.3h18.7c14.7 6.5 30.3 11.9 30.3 11.9s-4.4-4.2-6.8-11.9h7.9c6.6 0 12-5.4 12-12v-22.1c0-6.6-5.4-12-12-12H76.8c-6.6 0-12 5.4-12 12v22.1c-.1 6.6 5.3 12 12 12z" fill="#6AB3D0"/><path d="M729 284.7h-29.5s-5.6 9.1-17.4 11.4l4.5-11.4h-.4c-7.5 0-13.6-6.1-13.6-13.6V251c0-7.5 6.1-13.6 13.6-13.6H729c7.5 0 13.6 6.1 13.6 13.6v20.1c0 7.5-6.1 13.6-13.6 13.6z" fill="#fff"/><path d="M729 284.9c-4.9 0-9.8.1-14.8.2l-7.4.2c-2.5 0-4.9.1-7.4.1l.6-.3c-1 1.6-2.2 2.9-3.5 4.2-1.3 1.3-2.7 2.4-4.3 3.4-1.5 1-3.1 1.9-4.8 2.5-1.7.7-3.5 1.2-5.2 1.6-.4.1-.8-.2-.9-.6v-.4l4.5-11.4.7 1.1c-3.7.1-7.5-1.3-10.2-3.8-2.7-2.5-4.4-6.2-4.6-9.9-.1-7.1-.1-14.1 0-21.2.1-3.7 1.7-7.4 4.4-10 2.7-2.6 6.4-4.1 10.2-4h42.2c1.8 0 3.7.2 5.4.9 1.7.6 3.4 1.6 4.7 2.9 2.8 2.5 4.5 6.1 4.6 9.8.1 3.6 0 7.1 0 10.6s-.1 7-.2 10.6c-.1 3.7-1.7 7.2-4.4 9.6-2.5 2.5-6 3.9-9.6 3.9zm0-.4c1.7 0 3.5-.4 5.1-1 1.6-.7 3.1-1.7 4.3-2.9 2.4-2.5 3.8-5.9 3.8-9.3-.2-7-.2-14.1-.3-21.1-.2-3.3-1.7-6.5-4.2-8.8-2.5-2.3-5.8-3.4-9.1-3.3h-42.2c-3.3 0-6.6 1.3-8.9 3.6-2.4 2.3-3.8 5.5-3.9 8.8 0 7-.1 14.1 0 21 .1 3.3 1.6 6.5 4 8.8 2.4 2.3 5.7 3.5 9.1 3.5.4 0 .8.3.8.8 0 .1 0 .2-.1.3l-4.5 11.4-.9-1c1.7-.4 3.4-.8 5-1.5 1.6-.6 3.1-1.5 4.6-2.4 1.5-.9 2.8-2 4.1-3.2 1.3-1.2 2.4-2.5 3.4-3.9.1-.2.3-.3.5-.3 2.5 0 4.9.1 7.4.1l7.4.2c4.8.1 9.7.2 14.6.2z" fill="#bedae6"/><path d="M197.8 246.3c-.2-.6-.9-1.3-1.5-1.5l-5.5-1.9c-.6-.2-.6-.6 0-.8l5.5-1.9c.6-.2 1.3-.9 1.5-1.5l1.9-5.5c.2-.6.6-.6.8 0l1.9 5.5c.2.6.9 1.3 1.5 1.5l5.5 1.9c.6.2.6.6 0 .8l-5.5 1.9c-.6.2-1.3.9-1.5 1.5l-1.9 5.5c-.2.6-.6.6-.8 0l-1.9-5.5z" fill="#6AB3D0"/><path d="M436.4 11.9c-.2-.3-.4-.6-.7-.8-.3-.2-.6-.3-.9-.4l-2.1-.6c-.2-.1-.3-.1-.6-.2-.1-.1-.3-.1-.4-.3-.1-.1-.1-.3 0-.4 0-.1.1-.2.2-.3.3-.2.5-.3.6-.3l.5-.2 2.1-.8c.2-.1.5-.3.7-.5.2-.2.3-.4.4-.8l.7-2.1c.1-.2.1-.3.2-.6.1-.1.1-.3.4-.4.1-.1.4-.1.5-.1.2.1.3.1.4.2.3.3.3.5.4.7l.2.5.7 2.1c.1.2.3.5.5.7.2.2.4.3.8.4l2.1.8c.2.1.3.1.6.2.1.1.3.1.4.4.1.1.1.4 0 .5-.1.2-.1.3-.2.3-.3.3-.5.3-.7.3l-.5.2-2.1.7c-.2.1-.5.3-.7.5-.2.2-.3.4-.4.8l-.8 2.1c-.1.2-.1.3-.2.6-.1.1-.1.2-.3.4-.1.1-.3.1-.4 0-.1 0-.2-.1-.3-.2-.2-.2-.2-.5-.3-.6l-.2-.5-.6-2.3zm.3-.1l.8 2.1.2.5c.1.2.1.3.2.4 0 0-.1-.1-.2 0v-.1c0-.1.1-.3.2-.5l.7-2.1c.1-.3.3-.8.6-1.1.3-.3.6-.6 1.1-.8l2.1-.8.5-.2c.2-.1.3-.1.3-.1l-.1.1v.3c.1.1.1.1 0 0-.1 0-.3-.1-.5-.2l-2.1-.7c-.3-.1-.9-.3-1.2-.6-.3-.3-.6-.6-.8-1.1l-.7-2.1-.2-.5c-.1-.2-.1-.3-.1-.3l.1.1h.3c.1-.1.1-.1.1 0s-.1.3-.2.5l-.8 2.1c-.1.3-.3.8-.6 1.1-.3.3-.6.6-1.1.8l-2.1.7-.5.2c-.2.1-.3.1-.4.1v-.3c0-.1 0 0 0 0 .1 0 .3.1.5.2l2.1.8c.8.2 1.5.8 1.8 1.5zM390.5 22.2l-2.5 1.2 1.2-2.5-1.2-2.5 2.5 1.2 2.5-1.2-1.2 2.5 1.2 2.5-2.5-1.2z" fill="#bedae6"/><path d="M390.4 22.3c-.8.5-1.5 1-2.3 1.4-.2.1-.4 0-.5-.1-.1-.1-.1-.2 0-.3v-.1c.3-.9.7-1.7 1.1-2.6v.4l-1.2-2.5c-.1-.3 0-.6.2-.7.2-.1.3-.1.5 0l2.5 1.2h-.5l2.5-1.2c.3-.1.6 0 .7.3.1.2.1.3 0 .5-.4.8-.8 1.7-1.2 2.5v-.4c.4.8.7 1.7 1.1 2.6.1.2 0 .4-.2.5h-.3c-.8-.5-1.5-1-2.4-1.5zm.2-.3c.8.3 1.7.6 2.5 1l-.5.5c-.4-.8-.9-1.6-1.3-2.4-.1-.1-.1-.3 0-.4.4-.8.8-1.7 1.2-2.5l.7.7-2.5 1.2c-.2.1-.3.1-.5 0l-2.5-1.2.7-.7 1.2 2.5c.1.1.1.3 0 .4-.4.8-.9 1.6-1.3 2.4l-.5-.5c.9-.4 1.8-.7 2.7-1h.1zM443 28.5l-2.5 1.2 1.2-2.5-1.2-2.5 2.5 1.2 2.5-1.2-1.2 2.5 1.2 2.5-2.5-1.2z" fill="#bedae6"/><path d="M214.2 251.4c-.3-.1-.8-.1-1.1 0l-2.2 1.1c-.3.1-.4 0-.3-.3l1.1-2.2c.1-.3.1-.8 0-1.1l-1.1-2.2c-.1-.3 0-.4.3-.3l2.2 1.1c.3.1.8.1 1.1 0l2.2-1.1c.3-.1.4 0 .3.3l-1.1 2.2c-.1.3-.1.8 0 1.1l1.1 2.2c.1.3 0 .4-.3.3l-2.2-1.1z" fill="#6AB3D0"/><path d="M420.3 118a2.7 2.7 0 100-5.4 2.7 2.7 0 000 5.4zM420.3 106.5a2.7 2.7 0 100-5.4 2.7 2.7 0 000 5.4zM420.3 94.2a2.7 2.7 0 100-5.4 2.7 2.7 0 000 5.4zM420.3 81.9a2.7 2.7 0 100-5.4 2.7 2.7 0 000 5.4zM321.4 158.4a1.5 1.5 0 10-.001-3.001 1.5 1.5 0 00.001 3.001zM321.4 151.5a1.5 1.5 0 10-.001-3.001 1.5 1.5 0 00.001 3.001z" fill="#bedae6"/><path d="M89.9 230.4a2.7 2.7 0 100-5.4 2.7 2.7 0 000 5.4zM101.4 230.4a2.7 2.7 0 100-5.4 2.7 2.7 0 000 5.4zM113.7 230.4a2.7 2.7 0 100-5.4 2.7 2.7 0 000 5.4z" fill="#fff"/><path d="M187.2 289.2l-3.1-8.9c-.2-.5.1-1 .6-1.2l4.3-1.5c.5-.2 1 .1 1.2.6l3.1 8.9c.2.5-.1 1-.6 1.2l-4.3 1.5c-.5.2-1.1-.1-1.2-.6z" fill="#3895BA"/><path d="M189.395 278.758l-4.528 1.592 2.72 7.736 4.528-1.592-2.72-7.736z" fill="#fff"/><path d="M189.471 278.73l-4.528 1.592.364 1.038 4.529-1.592-.365-1.038z" fill="#006088"/><path d="M190.1 289.3s-.8-2-1.2-1.7c-.7.7.1 3.4.1 3.4" fill="#bedae6"/><path d="M190.1 289.3s-.8-2-1.2-1.7c-.7.7.1 3.4.1 3.4" stroke="#006088" stroke-miterlimit="10" stroke-linecap="round" stroke-linejoin="round"/><path d="M589.2 292.5H577v-1h11.2c.5-.1 1 .4 1 1z" fill="#fff" stroke="#bedae6" stroke-miterlimit="10" stroke-linecap="round" stroke-linejoin="round"/><path d="M581.3 292.5h-16.8l-1.5-10.8c-.1-1 .6-1.9 1.6-1.9h13.5c.8 0 1.5.6 1.6 1.4l1.6 11.3z" fill="#fff"/><path d="M581.5 292.8c-1.3.1-2.6.2-4 .2l-4.3.1-8.6.1c-.3 0-.5-.2-.5-.5l-1.4-10.1-.1-.6v-.8c.1-.6.5-1 1-1.3.2-.1.5-.3.8-.3h14.2c.3 0 .5.1.8.3.5.3.8.8.9 1.3.1.5.1.9.2 1.4.4 3.5.8 7 1 10.3v-.1zm-.3-.5c-.7-3.5-1.3-6.7-1.7-9.9l-.2-1.2c-.1-.3-.3-.5-.5-.7-.1-.1-.3-.1-.4-.2h-13.9c-.1 0-.3.1-.4.1-.2.1-.4.4-.5.7v.4l.1.6 1.4 10.1-.5-.5 8.2.1 4.1.1c1.4 0 2.8.1 4.3.2v.2zM586.1 277.7a2.7 2.7 0 100-5.4 2.7 2.7 0 000 5.4zM586.1 266.2a2.7 2.7 0 100-5.4 2.7 2.7 0 000 5.4z" fill="#bedae6"/><path d="M586.1 253.9a2.7 2.7 0 100-5.4 2.7 2.7 0 000 5.4z" fill="#6AB3D0"/><path d="M586.1 242.5c8.339 0 15.1-6.76 15.1-15.1 0-8.339-6.761-15.1-15.1-15.1-8.34 0-15.1 6.761-15.1 15.1 0 8.34 6.76 15.1 15.1 15.1z" fill="#fff"/><path d="M601.8 227.4c.1 2-.2 4.1-1 6.1-.8 1.9-2 3.7-3.4 5.2-2.9 3-7.1 4.7-11.2 4.7-4.2 0-8.3-1.7-11.3-4.6-1.5-1.5-2.7-3.2-3.5-5.2-.8-1.9-1.2-4-1.2-6.1 0-4.2 1.7-8.3 4.7-11.3 2.9-3 7.1-4.7 11.3-4.6 2.1 0 4.2.4 6.1 1.2 1.9.8 3.6 2 5.1 3.5 2.9 3 4.5 7.1 4.2 11.2h.2v-.1zm-.8 0c-.2-3.9-1.9-7.6-4.7-10.2-2.7-2.6-6.5-4.1-10.2-4.1-3.8 0-7.5 1.6-10.1 4.2-2.7 2.7-4.2 6.4-4.2 10.1 0 3.8 1.5 7.5 4.2 10.1 2.6 2.7 6.3 4.2 10.1 4.2s7.5-1.5 10.2-4.2c1.3-1.3 2.4-2.9 3.1-4.7.7-1.7 1.2-3.6 1.3-5.5h.3v.1z" fill="#bedae6"/><path d="M586.2 220.6c-5.8 0-9 4.5-9.4 4.8l1.5 1.5c7.8-8.9 15.4-.4 15.7 0l1.5-1.5c-.4-.2-3.3-4.9-9.3-4.8z" fill="#6AB3D0"/><path d="M586.1 224.8c-2.8 0-5.3 1.5-6.6 3.5.5.4.8.9 1.3 1.3.1-.2 5.3-6.1 10.6 0 .5-.5.8-.9 1.3-1.3-1.3-2-3.7-3.5-6.6-3.5z" fill="#6AB3D0"/><path d="M586.2 228.7c-.1 0-.1 0 0 0-1.7 0-3.2.9-4 2.1l1.3 1.3c.5-1 1.7-1.5 2.5-1.4 0 0 1.9 0 2.7 1.4l1.3-1.3c-1.2-2.1-3.8-2.1-3.8-2.1zM584.7 233.4l1.4 1.1 1.3-1.2c.1 0-1.5-1.1-2.7.1z" fill="#6AB3D0"/><path d="M321.4 120.8c-8.6 0-13.2 6.6-13.8 7.1l2.2 2.3c11.5-13 22.6-.6 23 0l2.2-2.3c-.5-.5-4.7-7.4-13.6-7.1z" fill="#bedae6"/><path d="M321.4 126.9c-4.1 0-7.7 2.2-9.7 5.1.7.6 1.2 1.3 1.9 1.9.2-.3 7.7-9 15.5 0 .7-.7 1.2-1.3 1.9-1.9-1.9-2.9-5.5-5.2-9.6-5.1z" fill="#bedae6"/><path d="M321.4 132.6c-2.4.1-4.7 1.2-5.8 3.1l1.9 1.9c.7-1.5 2.4-2.2 3.7-2.1 0 0 2.8.1 4 2.1 0 0 1.4-1.3 1.9-1.9-1.7-3.1-5.7-3.1-5.7-3.1zM319.3 139.5l2.1 1.6 1.9-1.8s-2.3-1.6-4 .2zM650.3 162.4a1.5 1.5 0 10-.001-3.001 1.5 1.5 0 00.001 3.001zM650.3 155.5a1.5 1.5 0 10-.001-3.001 1.5 1.5 0 00.001 3.001zM545.5 263.1c-.9-.7-1.6-1.5-2.3-2.3-.7-.8-1.4-1.7-2-2.6v-.1h.1c.9.7 1.6 1.6 2.3 2.4.7.8 1.4 1.6 1.9 2.6.1 0 .1 0 0 0zM546.2 262.9c-.9-.7-1.6-1.6-2.3-2.4-.7-.9-1.4-1.7-2-2.7v-.1h.1c.8.7 1.5 1.6 2.2 2.4.9.9 1.6 1.7 2 2.8.1 0 .1-.1 0 0 0 0 .1 0 0 0z" fill="#bedae6"/><path d="M546.9 269.2v.5c0 .3.4.5.9.5h3.7" fill="#fff"/><path d="M546.9 269.2l.1.3c0 .1 0 .2.1.3.1.1.3.2.5.2h1.3c.9 0 1.8 0 2.7.2.1 0 .1.1.1.1s0 .1-.1.1c-.9.2-1.8.2-2.7.2-.5 0-.9 0-1.4-.1-.2-.1-.5-.2-.7-.5-.1-.2 0-.3 0-.4l.1-.3c-.1-.1 0-.2 0-.1z" fill="#bedae6"/><path d="M543.4 263.1c2.5-3.2 6-.2 9.7-.8z" fill="#fff"/><path d="M543.4 263.1c.4-.8 1.2-1.4 2.1-1.6.9-.2 1.8-.1 2.7 0 1.7.3 3.3.8 5 .8.1 0 .1 0 .1.1 0 0 0 .1-.1.1-.9.2-1.8.2-2.6.1-.9-.1-1.7-.3-2.5-.5s-1.7-.3-2.4-.1c-.9.1-1.6.5-2.3 1.1z" fill="#bedae6"/><path d="M554.2 262.1c-.2-1.1-2.5-1.9-4.9-.9z" fill="#fff"/><path d="M554.1 262.1c-.2-.4-.6-.6-1-.8-.4-.2-.8-.3-1.2-.3-.9-.1-1.7.1-2.6.2-.1 0-.1 0-.1-.1v-.1c.8-.5 1.8-.7 2.7-.6.5.1 1 .2 1.4.4.5.4.9.8.8 1.3.1.1.1 0 0 0 0 0 .1.1 0 0z" fill="#bedae6"/><path d="M555.8 263.1v1c0 2.8-2.7 5.1-6.1 5.1h-.5c-3.3 0-6.1-2.3-6.1-5.1v-1h11" fill="#fff"/><path d="M555.9 263.1c0 .8.1 1.7-.2 2.5-.3.8-.8 1.6-1.4 2.1-1.3 1.2-3.1 1.7-4.8 1.7-1.7 0-3.5-.5-4.8-1.6-.7-.6-1.2-1.3-1.5-2.1-.3-.8-.3-1.8-.3-2.6 0-.1.1-.3.3-.3 1.8 0 3.7 0 5.5.1 1.8 0 3.7 0 5.5.1.1 0 .1 0 .1.1s0 .1-.1.1c-1.8.1-3.7.1-5.5.1-1.8 0-3.7 0-5.5.1l.3-.3c0 .8 0 1.6.3 2.4.3.7.8 1.4 1.3 1.9 1.2 1.1 2.8 1.5 4.4 1.5 1.6 0 3.3-.4 4.5-1.5.6-.5 1.1-1.2 1.4-1.9.3-.7.3-1.6.4-2.4 0 0 0-.1.1 0 0 0-.1-.1 0 0z" fill="#bedae6"/><path d="M607.2 306.5l1.6-9.3c.1-.5.6-.9 1.1-.8l4.5.8c.5.1.9.6.8 1.1l-1.6 9.3c-.1.5-.6.9-1.1.8l-4.5-.8c-.6-.1-.9-.6-.8-1.1z" fill="#6AB3D0"/><path d="M625.6 308.6l.2.9.5 7-.7 3.1-2.6 1.1-2.2-1.1-2.3-3.1-2.1-3.5-1.9-4.1-1.1-.5-.7-3-.4-1.1s-.1-.5-1.1-.8l-1.1.1c-1.1-.6-.4-1.7.1-1.8l3.3-.5 1.6-.5 1.7 5.6 4 3.6v-.3l4.8-1.1z" fill="#fff"/><path d="M622.2 312.1c-.5-.2-.9-.6-1.3-1l-1.2-1.1-2.5-2.3-.6-.6-.3-.3c-.1-.1-.3-.3-.4-.5-.1-.2-.2-.4-.2-.5l-.1-.4-.2-.8c-.2-1.1-.5-2.2-.6-3.3v.1c0-.1-.1-.2-.1-.2s0-.1-.1 0c-.2.1-.3.4-.4.7 0 .1-.1.1-.2.1s-.1-.1-.1-.1c-.1-.4-.1-.9.3-1.3.2-.2.6-.3.9-.1.3.1.5.4.6.6v.1c.3 1.1.5 2.2.8 3.3l.2.8.1.4c0 .1 0 .2.1.3 0 .1.1.1.1.2l.3.3.6.6 2.4 2.3 1.2 1.2c.4.4.8.7 1.1 1.3.1.2 0 .4-.2.5 0-.3-.1-.3-.2-.3z" fill="#006088"/><path d="M615.5 304.3c-.3-.1-.4-.4-.5-.6-.1-.2-.3-.4-.4-.6-.3-.4-.7-.6-1-.9-.4-.2-.8-.3-1.3-.4-.5 0-.9 0-1.5-.1-.1 0-.2-.1-.1-.2v-.1c.4-.4 1-.6 1.6-.6.6 0 1.2.1 1.8.4.6.3 1 .7 1.3 1.2.2.2.3.5.5.7.1.3.3.5.2.8 0 .3-.3.4-.6.4.1 0 .1 0 0 0z" fill="#006088"/><path d="M610.2 302c1.7-.6 2.9.3 3.9 1.7" stroke="#006088" stroke-miterlimit="10" stroke-linecap="round" stroke-linejoin="round"/><path d="M619 308.9c-.3-.2-.2-.4-.3-.6l-.1-.6c-.1-.4-.2-.9-.2-1.3-.1-.4-.1-.9-.1-1.3s0-.9.3-1.3c.1-.1.2-.1.3-.1h.1c.3.4.4.8.4 1.2.1.4.1.8.2 1.3.1.4.1.8.1 1.2l.1.6c0 .2.1.4 0 .6-.4.4-.6.5-.8.3z" fill="#006088"/><path d="M625.9 308.5c.3 1.2.4 2.4.5 3.6.1 1.2.2 2.4.2 3.7 0 1.2-.1 2.5-.7 3.8-.3.6-.9 1.2-1.6 1.5-.3.1-.7.2-1 .2h-.5c-.2 0-.4 0-.6-.1-1.4-.4-2.3-1.5-3.1-2.4-.8-1-1.4-2-2-3.1-1.2-2.1-2.2-4.3-3.2-6.6l.3.3c-.8-.3-1.4-.9-1.7-1.6-.4-.7-.4-1.5-.3-2.3.1-.7.1-1.2-.3-1.5-.4-.3-1.1-.3-1.8-.2-.1 0-.2 0-.2-.1s0-.2.1-.2c.3-.1.7-.2 1.1-.2.4 0 .8 0 1.2.2.4.2.7.6.8 1 .1.4.1.8.1 1.1 0 .6 0 1.2.3 1.7s.8.9 1.2 1.1l.3.3c.9 2.2 2 4.4 3.2 6.4.6 1 1.2 2 2 2.9.7.9 1.6 1.8 2.5 2 .2.1.4.1.7 0 .3 0 .5-.1.7-.2.5-.2.8-.5 1-.9.5-.9.6-2.1.6-3.3 0-1.2 0-2.4-.1-3.6-.1-1.2-.2-2.4-.2-3.6 0-.2.2-.3.3-.3 0 .2.2.3.2.4z" fill="#006088"/><path d="M719 261.3c1.3-1.9 1.5-5.9-1.1-8.6-3.7-3.7-9.9-7.6-9.9-7.6s-.8 2.2-5 3.3c-6 1.6-4.8 5.7-4.8 5.7-3.1 1.7-4.4 4.9-2 7.1" fill="#6ab3d0"/><path d="M694.8 262l3.1 11.5c.5 2 2.3 3.4 4.4 3.4h11c2 0 3.8-1.4 4.4-3.3l3.2-11.5" fill="#6AB3D0"/><path d="M696.3 262.1c-.7-.6-1.3-1.5-1.6-2.5-.3-1-.2-2.2.3-3.2s1.2-1.8 2.1-2.4c.4-.3.9-.5 1.3-.8.5-.2.9-.4 1.4-.6.5-.1 1-.3 1.4-.4l1.4-.3c1-.1 2-.2 2.8-.3 1.8-.2 3.6-.5 5.5-.8l.2.6c-1.7.8-3.6 1.4-5.5 1.7-1 .1-1.9.3-2.8.4l-1.3.3c-.4.1-.9.3-1.3.4-.4.1-.8.3-1.2.5-.4.2-.8.4-1.1.6-.7.4-1.3 1-1.7 1.7-.8 1.4-.6 3.2.2 4.9l-.1.2z" fill="#6AB3D0"/><path d="M692.9 260.9c1.2-.5 2.5-.3 3.7-.4h3.7c2.5 0 4.9-.1 7.4-.1s4.9 0 7.4.1c2.5 0 4.9.1 7.4.7v.7c-2.5.6-4.9.7-7.4.7-2.5.1-4.9.1-7.4.1s-4.9 0-7.4-.1h-3.7c-1.2-.1-2.5.1-3.7-.4v-1.3z" fill="#006088"/><path d="M717.7 251.4c.3 1.2-.2 2.5-1 3.4-.8.9-1.8 1.6-2.9 2.1-1.1.5-2.2.8-3.3 1-1.1.2-2.2.2-3.3.1l-.1-.6c1-.4 2.1-.7 3.1-1 1-.3 2-.6 2.9-1.1.9-.4 1.8-.9 2.5-1.6.7-.6 1.3-1.4 1.8-2.3h.3zM642.9 269.2c.2-.6.9-1.3 1.5-1.5l5.5-1.9c.6-.2.6-.6 0-.8l-5.5-1.9c-.6-.2-1.3-.9-1.5-1.5L641 256c-.2-.6-.6-.6-.8 0l-1.9 5.5c-.2.6-.9 1.3-1.5 1.5l-5.5 1.9c-.6.2-.6.6 0 .8l5.5 1.9c.6.2 1.3.9 1.5 1.5l1.9 5.5c.2.6.6.6.8 0l1.9-5.4zM626.6 274.3c.3-.1.8-.1 1.1 0l2.2 1.1c.3.1.4 0 .3-.3l-1.1-2.2c-.1-.3-.1-.8 0-1.1l1.1-2.2c.1-.3 0-.4-.3-.3l-2.2 1.1c-.3.1-.8.1-1.1 0l-2.2-1.1c-.3-.1-.4 0-.3.3l1.1 2.2c.1.3.1.8 0 1.1l-1.1 2.2c-.1.3 0 .4.3.3l2.2-1.1z" fill="#6AB3D0"/></g><defs><clipPath id="clip0"><path fill="#fff" d="M0 0h752v393.4H0z"/></clipPath></defs></svg>