<svg viewBox="0 0 300 250" xmlns="http://www.w3.org/2000/svg"><path d="m245.4 164.2h-217.6v-131.2h217.6z" fill="#fff"/><path d="m245.4 166.6c-18.1.8-36.3 1.3-54.4 1.2l-54.4.1-108.8.2c-2.1 0-3.9-1.7-3.9-3.9l-.1-131.2c0-2.2 1.8-4 4-4l217.6.4c2 0 3.5 1.6 3.5 3.6l-.3 32.8c-.1 10.9-.1 21.9-.4 32.8l-.6 32.8c-.4 10.9-.6 21.9-1 32.8l-.1 1.3c0 .6-.5 1.1-1.1 1.1zm-1.3-4.8c-.4-10.1-.6-20.3-1-30.4l-.6-32.8c-.3-10.9-.3-21.9-.4-32.8l-.3-32.8 3.6 3.6-217.6.3 4-4-.1 131.3-3.9-3.9 108.8.2 54.4.1c17.7-.1 35.4.4 53.1 1.2z" fill="#98c6d9"/><path d="m27.8 35.6 108.3 71.4 103.9-69.6" fill="#fff"/><g fill="#98c6d9"><path d="m28 35.3 7.3 3.7 7.2 3.9 14.3 7.7 14.1 8.1c4.7 2.7 9.3 5.5 14 8.3 9.3 5.5 18.4 11.3 27.6 17l13.6 8.8c4.5 3 9.1 5.8 13.6 8.8h-7.1l13.1-8.6c4.4-2.8 8.7-5.8 13.1-8.5l13.2-8.3c4.4-2.8 8.9-5.5 13.3-8.2 4.5-2.7 8.9-5.5 13.4-8.1s9-5.3 13.6-7.9l13.7-7.6c4.5-2.6 9.2-5 13.9-7.4.2-.1.4 0 .5.2s0 .4-.1.5l-103.7 69.9c-.2.2-.6.2-.8 0l-108.2-71.7c-.2-.1-.2-.3-.1-.5.1-.1.3-.2.5-.1z"/><path d="m100 78.7s-.6 1.3-2 3.4c-1.4 2-3.6 4.8-6.2 8.1s-5.6 7.2-8.8 11.4-6.7 8.7-10.2 13.1c-7 8.8-14 17.7-19.4 24.2-2.7 3.3-5.1 5.8-6.8 7.6s-2.8 2.8-2.8 2.8c-.2.2-.6.2-.9 0-.2-.2-.2-.5-.1-.7 0 0 .7-1.2 2-3.3 1.4-2.1 3.3-5 5.8-8.4 5.1-6.8 12.1-15.6 18.9-24.6 3.4-4.5 7-8.9 10.3-13s6.4-8 9-11.3c2.7-3.3 4.8-6.1 6.4-8 1.7-1.8 2.8-2.7 2.8-2.7.5-.4 1.3-.3 1.7.2.4.3.5.8.3 1.2zm78.2-.6s1.2.9 2.8 2.7c1.6 1.9 3.8 4.7 6.5 8s5.8 7.2 9.1 11.3 6.9 8.5 10.4 13c7 8.9 14.1 17.8 19.3 24.6 2.6 3.4 4.5 6.4 5.9 8.4 1.3 2.1 2.1 3.3 2.1 3.3.2.3.1.7-.2.8-.2.1-.5.1-.7-.1 0 0-1.1-1-2.8-2.8s-4.2-4.4-6.9-7.6c-5.4-6.6-12.5-15.4-19.7-24.2-3.6-4.4-7.1-8.9-10.4-13.1s-6.4-8.1-9-11.4c-2.6-3.4-4.9-6.1-6.3-8.1-1.4-2.1-2-3.4-2-3.4-.3-.6 0-1.4.6-1.6.4-.2.9-.1 1.3.2z"/><path d="m278.9 220.1c-.3-6.8-.4-13.5-.6-20.3l-.4-21.9c-.2-7.3-.2-14.6-.3-21.9l-.2-21.9 2.4 2.4-145.1.3 2.6-2.6v87.5l-2.6-2.6 72.6.1 36.3.1c11.7 0 23.5.3 35.3.8zm.8 3.2c-12.1.5-24.2.8-36.3.8l-36.3.1-72.6.1c-1.4 0-2.6-1.2-2.6-2.6v-87.5c0-1.5 1.2-2.6 2.6-2.6l145.1.3c1.3 0 2.4 1.1 2.4 2.4l-.2 21.9c-.1 7.3-.1 14.6-.3 21.9l-.4 21.9c-.2 7.3-.4 14.6-.7 21.9v.8c.1.3-.3.6-.7.6z"/></g><path d="m134.6 136 72.2 47.5 69.4-46.4" fill="#fff"/><path d="m134.6 134.2v1.6h.1l4.9 2.5 4.8 2.6 9.5 5.2 9.4 5.4c3.1 1.8 6.2 3.7 9.3 5.5 6.2 3.7 12.3 7.6 18.4 11.3l9.1 5.9c2.2 1.5 4.5 2.9 6.7 4.3l6.3-4.2 8.7-5.7 8.8-5.6c2.9-1.9 5.9-3.7 8.9-5.5s5.9-3.6 9-5.4c3-1.7 6-3.5 9-5.2l9.2-5.1c3-1.7 6.1-3.3 9.3-4.9.1-.1.3 0 .3.1.1.1 0 .2-.1.3l-40.8 27.5c.3.3.8.7 1.3 1.3 1.1 1.2 2.5 3.1 4.3 5.3s3.9 4.8 6.1 7.5c2.2 2.8 4.6 5.7 7 8.7 4.7 6 9.4 11.9 12.8 16.4 1.7 2.3 3 4.2 3.9 5.6s1.4 2.2 1.4 2.2c.1.2 0 .4-.1.6-.2.1-.3.1-.5-.1 0 0-.7-.6-1.9-1.8-1.1-1.2-2.8-2.9-4.6-5.1-3.6-4.4-8.3-10.3-13.1-16.2-2.4-2.9-4.7-5.9-6.9-8.7s-4.2-5.4-6-7.6c-1.7-2.2-3.2-4.1-4.2-5.4-.5-.7-.8-1.3-1-1.7l-26.8 18.1c-.2.1-.4.1-.5 0l-25.3-16.8c-1 1.3-2.3 3.1-4 5.2-1.7 2.2-3.7 4.8-5.9 7.6s-4.4 5.8-6.8 8.7c-4.7 5.9-9.3 11.8-12.9 16.2-1.8 2.2-3.4 3.9-4.5 5.1l-1.8 1.8c-.2.2-.4.1-.6 0-.1-.1-.1-.3-.1-.5 0 0 .5-.8 1.3-2.2.9-1.4 2.2-3.4 3.9-5.6 3.4-4.5 8-10.4 12.6-16.4 2.3-3 4.6-5.9 6.8-8.7s4.2-5.3 6-7.5c1.6-2 2.9-3.7 4-4.9l-44.7-29.6v85.5h145.1v-87.5h-145.1z" fill="#3895ba"/></svg>
