<?xml version="1.0" encoding="utf-8"?>
<!-- Generator: Adobe Illustrator 19.2.1, SVG Export Plug-In . SVG Version: 6.00 Build 0)  -->
<svg version="1.1" id="Layer_1" xmlns="http://www.w3.org/2000/svg" xmlns:xlink="http://www.w3.org/1999/xlink" x="0px" y="0px"
	 viewBox="0 0 300 250" style="enable-background:new 0 0 300 250;" xml:space="preserve">
<style type="text/css">
	.st0{fill:#FFFFFF;}
	.st1{fill:#BBC9D5;}
	.st2{fill:#7093AC;}
</style>
<g>
	<g>
		<g>
			<g>
				<polygon class="st0" points="245.4,164.2 27.8,164.2 27.8,35.6 27.8,33 245.4,33 				"/>
				<path class="st1" d="M245.4,166.6c-18.1,0.8-36.3,1.3-54.4,1.2l-54.4,0.1l-108.8,0.2c-2.1,0-3.9-1.7-3.9-3.9v0L23.8,33
					c0-2.2,1.8-4,4-4h0l217.6,0.4l0,0c2,0,3.5,1.6,3.5,3.6l0,0l-0.3,32.8c-0.1,10.9-0.1,21.9-0.4,32.8l-0.6,32.8
					c-0.4,10.9-0.6,21.9-1,32.8l-0.1,1.3C246.5,166.1,246,166.6,245.4,166.6z M244.1,161.8c-0.4-10.1-0.6-20.3-1-30.4l-0.6-32.8
					c-0.3-10.9-0.3-21.9-0.4-32.8L241.8,33l3.6,3.6L27.8,36.9l4-4l-0.1,131.3l-3.9-3.9l108.8,0.2l54.4,0.1
					C208.7,160.5,226.4,161,244.1,161.8z"/>
			</g>
			<g>
				<polyline class="st0" points="27.8,35.6 136.1,107 240,37.4 				"/>
				<path class="st1" d="M28,35.3l7.3,3.7l7.2,3.9l14.3,7.7l14.1,8.1c4.7,2.7,9.3,5.5,14,8.3c9.3,5.5,18.4,11.3,27.6,17l13.6,8.8
					c4.5,3,9.1,5.8,13.6,8.8l-7.1,0l13.1-8.6c4.4-2.8,8.7-5.8,13.1-8.5l13.2-8.3c4.4-2.8,8.9-5.5,13.3-8.2c4.5-2.7,8.9-5.5,13.4-8.1
					c4.5-2.6,9-5.3,13.6-7.9l13.7-7.6c4.5-2.6,9.2-5,13.9-7.4l0,0c0.2-0.1,0.4,0,0.5,0.2c0.1,0.2,0,0.4-0.1,0.5l-103.7,69.9
					c-0.2,0.2-0.6,0.2-0.8,0L27.6,35.9c-0.2-0.1-0.2-0.3-0.1-0.5C27.6,35.3,27.8,35.2,28,35.3L28,35.3z"/>
			</g>
			<path class="st1" d="M100,78.7c0,0-0.6,1.3-2,3.4c-1.4,2-3.6,4.8-6.2,8.1c-2.6,3.3-5.6,7.2-8.8,11.4c-3.2,4.2-6.7,8.7-10.2,13.1
				c-7,8.8-14,17.7-19.4,24.2c-2.7,3.3-5.1,5.8-6.8,7.6c-1.7,1.8-2.8,2.8-2.8,2.8c-0.2,0.2-0.6,0.2-0.9,0c-0.2-0.2-0.2-0.5-0.1-0.7
				c0,0,0.7-1.2,2-3.3c1.4-2.1,3.3-5,5.8-8.4c5.1-6.8,12.1-15.6,18.9-24.6c3.4-4.5,7-8.9,10.3-13c3.3-4.1,6.4-8,9-11.3
				c2.7-3.3,4.8-6.1,6.4-8c1.7-1.8,2.8-2.7,2.8-2.7c0.5-0.4,1.3-0.3,1.7,0.2C100.1,77.8,100.2,78.3,100,78.7z"/>
			<path class="st1" d="M178.2,78.1c0,0,1.2,0.9,2.8,2.7c1.6,1.9,3.8,4.7,6.5,8c2.7,3.3,5.8,7.2,9.1,11.3c3.3,4.1,6.9,8.5,10.4,13
				c7,8.9,14.1,17.8,19.3,24.6c2.6,3.4,4.5,6.4,5.9,8.4c1.3,2.1,2.1,3.3,2.1,3.3c0.2,0.3,0.1,0.7-0.2,0.8c-0.2,0.1-0.5,0.1-0.7-0.1
				c0,0-1.1-1-2.8-2.8c-1.7-1.8-4.2-4.4-6.9-7.6c-5.4-6.6-12.5-15.4-19.7-24.2c-3.6-4.4-7.1-8.9-10.4-13.1c-3.3-4.2-6.4-8.1-9-11.4
				c-2.6-3.4-4.9-6.1-6.3-8.1c-1.4-2.1-2-3.4-2-3.4c-0.3-0.6,0-1.4,0.6-1.6C177.3,77.7,177.8,77.8,178.2,78.1z"/>
		</g>
	</g>
	<g>
		<g>
			<path class="st1" d="M278.9,220.1c-0.3-6.8-0.4-13.5-0.6-20.3l-0.4-21.9c-0.2-7.3-0.2-14.6-0.3-21.9l-0.2-21.9l2.4,2.4
				l-145.1,0.3l2.6-2.6l0,87.5l-2.6-2.6l72.6,0.1l36.3,0.1C255.3,219.3,267.1,219.6,278.9,220.1z M279.7,223.3
				c-12.1,0.5-24.2,0.8-36.3,0.8l-36.3,0.1l-72.6,0.1c-1.4,0-2.6-1.2-2.6-2.6v0l0-87.5c0-1.5,1.2-2.6,2.6-2.6h0l145.1,0.3l0,0
				c1.3,0,2.4,1.1,2.4,2.4l0,0l-0.2,21.9c-0.1,7.3-0.1,14.6-0.3,21.9l-0.4,21.9c-0.2,7.3-0.4,14.6-0.7,21.9l0,0.8
				C280.5,223,280.1,223.3,279.7,223.3z"/>
			<polyline class="st0" points="134.6,136 206.8,183.5 276.2,137.1 			"/>
			<path class="st2" d="M134.6,134.2v1.6c0,0,0.1,0,0.1,0l0,0l4.9,2.5l4.8,2.6l9.5,5.2l9.4,5.4c3.1,1.8,6.2,3.7,9.3,5.5
				c6.2,3.7,12.3,7.6,18.4,11.3l9.1,5.9c2.2,1.5,4.5,2.9,6.7,4.3l6.3-4.2c2.9-1.9,5.8-3.8,8.7-5.7l8.8-5.6c2.9-1.9,5.9-3.7,8.9-5.5
				c3-1.8,5.9-3.6,9-5.4c3-1.7,6-3.5,9-5.2l9.2-5.1c3-1.7,6.1-3.3,9.3-4.9l0,0c0.1-0.1,0.3,0,0.3,0.1c0.1,0.1,0,0.2-0.1,0.3
				l-40.8,27.5c0.3,0.3,0.8,0.7,1.3,1.3c1.1,1.2,2.5,3.1,4.3,5.3c1.8,2.2,3.9,4.8,6.1,7.5c2.2,2.8,4.6,5.7,7,8.7
				c4.7,6,9.4,11.9,12.8,16.4c1.7,2.3,3,4.2,3.9,5.6c0.9,1.4,1.4,2.2,1.4,2.2c0.1,0.2,0,0.4-0.1,0.6c-0.2,0.1-0.3,0.1-0.5-0.1
				c0,0-0.7-0.6-1.9-1.8c-1.1-1.2-2.8-2.9-4.6-5.1c-3.6-4.4-8.3-10.3-13.1-16.2c-2.4-2.9-4.7-5.9-6.9-8.7c-2.2-2.8-4.2-5.4-6-7.6
				c-1.7-2.2-3.2-4.1-4.2-5.4c-0.5-0.7-0.8-1.3-1-1.7l-26.8,18.1c-0.2,0.1-0.4,0.1-0.5,0l-25.3-16.8c-1,1.3-2.3,3.1-4,5.2
				c-1.7,2.2-3.7,4.8-5.9,7.6c-2.2,2.8-4.4,5.8-6.8,8.7c-4.7,5.9-9.3,11.8-12.9,16.2c-1.8,2.2-3.4,3.9-4.5,5.1
				c-1.2,1.2-1.8,1.8-1.8,1.8c-0.2,0.2-0.4,0.1-0.6,0c-0.1-0.1-0.1-0.3-0.1-0.5c0,0,0.5-0.8,1.3-2.2c0.9-1.4,2.2-3.4,3.9-5.6
				c3.4-4.5,8-10.4,12.6-16.4c2.3-3,4.6-5.9,6.8-8.7c2.2-2.8,4.2-5.3,6-7.5c1.6-2,2.9-3.7,4-4.9l-44.7-29.6v85.5h145.1v-87.5H134.6z
				"/>
		</g>
	</g>
</g>
</svg>
