<svg height="250" viewBox="0 0 400 250" width="400" xmlns="http://www.w3.org/2000/svg"><path d="m128.7 81.8h126.3v88.4h-126.3z" fill="#fff"/><path d="m127.7 170.3c-.4-28-.7-56-.8-84l-.1-10.5v-5.3c0-.9.1-1.9.4-2.9.3-.9.8-1.8 1.3-2.6 1.2-1.6 2.9-2.7 4.9-3.2 1-.2 2-.2 2.8-.2h13.1l42-.1 42-.1h13.1c.8 0 1.9 0 2.9.2 2 .4 3.7 1.6 5 3.2.6.8 1.1 1.7 1.4 2.7.3.9.4 2 .4 2.9v15.8l-.1 84c0 .5-.4 1-1 1l-58.6-.2-29.3-.1-29.3-.2c-.2 0-.4-.2-.4-.4s.2-.4.4-.4l29.3-.2 29.3-.1 58.6-.2-1 1-.1-84v-15.8c0-.8-.1-1.5-.3-2.3-.2-.7-.6-1.4-1-2-.9-1.2-2.2-2.1-3.7-2.4-.7-.2-1.4-.2-2.4-.2h-13.1l-42-.1-42-.1h-13.1c-.9 0-1.6 0-2.4.2-1.5.3-2.8 1.2-3.8 2.4-.5.6-.8 1.3-1.1 2-.2.8-.3 1.5-.3 2.3v15.8c0 28-.2 56-.5 84 0 .1-.1.2-.2.2-.2 0-.3 0-.3-.1zm132-87.8c-11.4.9-22.7.8-34.1.9l-34.1.1-34.1-.1c-11.4-.1-22.7 0-34.1-.9v-.5c11.4-.9 22.7-.8 34.1-.9l34.1-.1 34.1.1c11.4.1 22.7 0 34.1.9z" fill="#a7aaad"/><path d="m82.6 210.9c4.2.1 17.1 1 19 1.6s2.1 1-.3 1.5h-18.8zm12.6 3.9c-5.4 0-12.4-.2-12.8-.2h-.5v-4.1h.6c4 .1 17.1 1 19.1 1.6 1 .3 1.9.6 1.8 1.3 0 .6-.8.9-2.2 1.2-.7.1-3.1.2-6 .2zm-12.2-1.3c5.8.2 16.4.4 18.2 0 .4-.1.7-.2.9-.2-.2-.1-.4-.1-.7-.2-1.7-.6-13.7-1.4-18.4-1.6z" fill="#004e6e"/><path d="m91.7 210.9c4.2.1 17.1 1 19 1.6s2.1 1.8-.3 2.3h-18.8v-3.9z" fill="#3895ba"/><path d="m287.4 98h5.5v32.5h-5.5z" fill="#fff"/><path d="m315.8 110.9-2.4 10.3h-23.2s-8.8-12.9-1.8-27.4c0 0 2.4 8.7 13.4 8.7 13.2 0 14.6-10.5 14.6-10.5m-38.6 123h16.1c.6 0 1-.4 1-1v-1c0-.6-.4-1-1-1h-.1l-16.1 1c-.5 0-.9.5-.9 1 0 .6.4 1 1 1zm48 0h-16.1c-.6 0-1-.4-1-1v-1c0-.6.4-1 1-1h.1l16.1 1c.5 0 .9.5.9 1 0 .6-.5 1-1 1z" fill="#187aa2"/><path d="m310.1 62.1c-2.7-1.7-13.6-2.1-15.7 1.1 0 0 3-6.7 7.1-8.2 6.1-1.4 7.4 3.9 8.6 7.1z" fill="#004e6e"/><path d="m313.4 121.2c6.7 8.5 5.4 39.2 5.4 51.5l-1.6 39.3h-9.2l-7.7-72.2" fill="#fff"/><path d="m313.8 120.9c1.2 1.6 2.2 3.3 2.8 5.2.6 1.8 1.1 3.7 1.4 5.7.6 3.8 1.1 7.6 1.3 11.5.5 7.7.5 15.3.4 23 0 3.8 0 7.6-.1 11.5-.1 3.8-.2 7.6-.4 11.5-.3 7.6-.7 15.3-1.1 22.9 0 .5-.4.9-.9.9h-9.2c-.5 0-.8-.3-.9-.8l-3.8-36.1-1.9-18-1-9c-.4-3-.5-6-.4-9.1 0-.1.1-.3.3-.3.1 0 .2.1.2.2.7 3 1.2 6 1.5 9l1 9 2 18 3.9 36.1-.9-.8h9.3l-.9.9c.4-7.6.8-15.2 1.2-22.9.2-3.8.3-7.6.4-11.4s.1-7.6.1-11.5c.1-7.6.1-15.3-.4-22.9-.2-3.8-.6-7.6-1.3-11.4-.3-1.9-.7-3.7-1.2-5.5s-1.2-3.4-2.2-5c-.2-.2-.1-.6.1-.7.2-.3.6-.3.7 0zm2.5-34.7c4.6 2 7.5 26.8 7.5 34.1-.1 6.6-3.1 12.9-8.3 17l-3.5-8.3 4.1-8-4.9-7.9" fill="#187aa2"/><path d="m310 77.2c.1-.9.4-1.6.5-2.4s.2-1.6.2-2.5c0-1.7 0-3.3-.2-5s-.5-3.4-.9-5-.9-3.2-1.4-4.9l.1-.2.2.1c1 1.4 1.7 3 2.1 4.7.5 1.7.8 3.4 1 5.1s.3 3.5.2 5.2c0 .9-.1 1.7-.3 2.6-.1.9-.4 1.7-.9 2.5-.1.2-.3.2-.5.1-.1-.1-.1-.2-.1-.3zm-5.1 17.1c2-.6 3.7-1.8 4.8-3.5 1.2-1.7 2-3.6 2.5-5.7.6-2 1.1-4.1 1.8-6.1s1.2-4 1.6-6.1c.8-4.1.2-8.4-1.5-12.2-.9-1.9-2.1-3.6-3.4-5.2s-2.9-3-4.7-4-3.8-1.4-5.9-1.2c-2 .2-4 1-5.6 2.2-1.7 1.2-3 2.8-3.9 4.6-.5.9-.7 1.9-.9 2.9v16c0 2.1.4 4.2 1.2 6.1.8 2 1.8 3.8 3.1 5.5l-.1.2h-.2c-1.5-1.6-2.6-3.4-3.5-5.4s-1.3-4.2-1.4-6.4c-.1-4.3-.1-8.5-.1-12.8v-3.2c.1-1.1.4-2.2 1-3.2 1-2 2.5-3.7 4.2-5 1.8-1.4 3.9-2.2 6.1-2.5 2.2-.2 4.5.2 6.5 1.3 1.9 1.1 3.6 2.5 5 4.2 1.4 1.6 2.7 3.5 3.6 5.5 1.8 4 2.4 8.5 1.6 12.8-.4 2.1-1 4.2-1.7 6.3-.7 2-1.2 4-1.8 6.1s-1.5 4.1-2.7 5.9c-1.3 1.9-3.3 3.2-5.5 3.6-.2 0-.4-.1-.4-.2 0-.3.1-.5.3-.5zm-15.4-25c-.2.8-.4 1.5-.8 2.3-.3.8-.5 1.5-.7 2.3-.4 1.5-.6 3.1-.6 4.7s.2 3.1.5 4.7c.4 1.5.9 3 1.4 4.6l-.1.2-.2-.1c-1-1.3-1.7-2.9-2.1-4.5-.5-1.6-.7-3.3-.7-4.9 0-1.7.3-3.3.7-4.9.2-.8.5-1.6.8-2.4.2-.8.6-1.5 1.1-2.2.1-.1.3-.2.5 0 .2 0 .3.1.2.2zm14.2-14.5c-.7.4-1.5.3-2.2.6l-.5.2c-.2.1-.3.2-.5.2-.4.1-.7.3-1 .5-1.2.8-2.3 1.9-2.9 3.3-.7 1.4-1.2 2.8-1.5 4.3s-.5 3-.8 4.6c0 .1-.1.1-.2.1l-.1-.1c-.2-1.6-.2-3.2.1-4.8s.8-3.2 1.5-4.7c.8-1.5 1.9-2.7 3.4-3.6l1.1-.6c.2-.1.4-.2.6-.2l.6-.2c.8-.3 1.6-.4 2.4-.3.2 0 .3.2.3.4zm7.6 12.1c-.3 1.5-.8 3-1.3 4.5s-1.2 3-2 4.3c-.8 1.5-2.1 2.6-3.7 3.3-.8.3-1.6.5-2.4.5h-1.2c-.4 0-.9-.2-1.3-.3-1.5-.8-2.6-2.1-3.3-3.6-.7-1.4-1.3-2.9-1.7-4.5-.9-3-1.5-6.1-1.9-9.2 0-.1.1-.2.2-.2l.1.1 2.6 9c.4 1.5 1 2.9 1.7 4.2.6 1.3 1.6 2.4 2.8 3.1.6.2 1.3.3 2 .2.7 0 1.4-.2 2.1-.4 1.3-.5 2.5-1.5 3.2-2.8.8-1.3 1.4-2.7 2-4.1s1-2.9 1.7-4.3c.1-.2.3-.2.5-.1-.2 0-.1.1-.1.3z" fill="#c3c4c7"/><path d="m290.3 121.2c-8.9 6.4-8.5 45.9-4.2 90.8h10l5-64.3" fill="#fff"/><path d="m290.6 121.6c-1.3 1.3-2.3 2.8-2.9 4.5-.7 1.8-1.2 3.6-1.6 5.4-.8 3.7-1.3 7.5-1.6 11.3-.6 7.6-.6 15.3-.5 23s.5 15.4 1.1 23c.5 7.6 1.1 15.3 1.9 23l-.9-.8h10l-.8.8 2.6-32.1 1.4-16.1c.5-5.4 1-10.7 1.6-16 0-.1.2-.2.3-.2s.2.1.2.2c-.2 5.4-.5 10.7-.9 16.1l-1.1 16.1-2.4 32.2c0 .4-.4.8-.9.8h-10c-.4 0-.8-.3-.9-.8-1.5-15.3-2.6-30.7-2.9-46.2-.1-7.7 0-15.4.6-23.2.3-3.9.8-7.7 1.7-11.5.4-1.9 1-3.8 1.8-5.6.7-1.9 2-3.6 3.6-4.8.2-.2.6-.1.7.1s.2.6-.1.8z" fill="#187aa2"/><path d="m293.5 126.6c-.1.5-.2 1.1-.4 1.5l-.6 1.5c-.4 1-.8 2-1.1 3-.4 1-.8 2-1.2 2.9-.4 1-.9 2-1.5 2.8h-.2l-.1-.1c.2-1.1.5-2.1.9-3.1s.8-2 1.1-3c.4-1 .8-2 1.2-2.9l.6-1.5c.2-.5.4-1 .7-1.4.1-.1.3-.1.5 0 .1.1.1.2.1.3z" fill="#c3c4c7"/><path d="m319.9 175.3c-.8.9-1.7 1.8-2.6 2.6-.9.9-1.8 1.6-2.9 2.2l-.2-.1v-.2c.7-1 1.5-1.9 2.5-2.7.9-.8 1.8-1.6 2.8-2.3.1-.1.3-.1.4.1s.1.3 0 .4z" fill="#187aa2"/><path d="m287.9 109c-.2-.1-.6-.2-.9-.4l-.9-.3c-.3-.1-.6-.1-1-.2l-1-.3-.1-.2.1-.1c.7-.3 1.5-.3 2.2-.1.4.1.7.2 1 .4.4.2.7.4.9.7.1.1.1.3 0 .4-.1.2-.2.2-.3.1z" fill="#004e6e"/><path d="m311.4 126.4c.3.4.6.9.7 1.4l.6 1.5c.4 1 .8 2 1.2 2.9s.8 2 1.1 3c.4 1 .7 2 .9 3.1l-.1.2-.1-.1c-.6-.9-1.1-1.8-1.5-2.8l-1.2-2.9-1.2-3-.6-1.5c-.2-.5-.4-1-.4-1.5 0-.2.1-.3.3-.3.2-.1.2-.1.3 0z" fill="#c3c4c7"/><g fill="#004e6e"><path d="m301.9 67.2c.1.7.2 1.3.2 2s0 1.3-.1 2c0 .2-.2.3-.4.3-.1 0-.3-.1-.3-.3-.1-.7-.1-1.3-.1-2s.1-1.3.2-2c0-.1.2-.2.3-.2z"/><path d="m305.4 69.2c-.4 0-.7-.3-.7-.7v-1.1c0-.4.3-.7.7-.7s.7.3.7.7v1.1c0 .4-.3.7-.7.7zm-7.3 0c-.4 0-.7-.3-.7-.7v-1.1c0-.4.3-.7.7-.7s.7.3.7.7v1.1c0 .4-.3.7-.7.7z"/><path d="m303.2 73.5c-.2.3-.4.6-.8.7-.3.1-.7.2-1 .2s-.7-.1-1-.2c-.3-.2-.6-.4-.7-.8-.1-.2 0-.3.2-.4.1-.1.3 0 .3.1.3.3.7.4 1.2.4.4 0 .9-.1 1.2-.4.1-.1.3-.1.4.1.1.1.1.2 0 .3zm1.3-9.5c.2-.2.6-.3.9-.4h.8c.6.1 1.1.4 1.5.8.1.1.1.3-.1.4-.1.1-.2.1-.3 0-.4-.2-.8-.3-1.2-.3-.4-.1-.8-.1-1.2-.1h-.1c-.2 0-.3-.1-.3-.4-.1.2-.1.1 0 0zm-5.4.5c-.4 0-.8 0-1.2.1-.4 0-.8.2-1.2.3-.2.1-.3 0-.4-.1v-.3c.4-.4.9-.7 1.5-.8h.9c.3 0 .6.2.9.4.1.1.2.3.1.4s-.2.1-.3.1z"/><circle cx="298.6" cy="72.4" r=".4"/></g><path d="m318.7 213.1h-.4c-.2 0-.3-.1-.4-.3-.8-2.3 0-3.5.5-4 .6-.6 1.6-.9 2.3-.6.9.3 1.4 1.5 1.2 2.7-.1.6-.7 2.2-3.2 2.2zm0-.9c1.3 0 2.1-.5 2.3-1.5.2-.7-.1-1.5-.6-1.7-.3-.1-.9 0-1.3.4-.6.6-.8 1.6-.4 2.8zm-34.5.9c-2 0-3-1.1-3.2-2.2-.3-1.2.3-2.4 1.2-2.7s1.9 0 2.5.8l.1.2c.4.6.9 1.7.2 3.6-.1.2-.2.3-.4.3zm-1.4-4.1c-.1 0-.3 0-.4.1-.4.2-.7.9-.6 1.6.1.5.5 1.5 2.3 1.5.3-1.1.2-2-.3-2.6l-.1-.2c-.1-.2-.5-.4-.9-.4z" fill="#187aa2"/><path d="m95.7 77.2c.9 0 1.9-.2 2.8-.6 4.6-1.5 6.8-5.5 6.6-10 0-1.3 2.1-2.1 1.7-3.4-.6-1.7-3.6-1.6-5.1-4.8-1.7-3.6-6.2-4.6-10.4-3.2-5.9 2-9.1 8.4-7.1 14.3" fill="#fff"/><path d="m95.7 77.7c-.3 0-.5-.2-.5-.5s.2-.5.5-.5c.9 0 1.7-.2 2.6-.5 4.2-1.4 6.5-4.9 6.3-9.5 0-.8.5-1.4 1-1.9.5-.6.8-1 .7-1.3-.2-.5-.8-.9-1.5-1.3-1.2-.6-2.6-1.5-3.5-3.4-1.5-3.1-5.5-4.3-9.8-2.9-5.6 1.9-8.7 8-6.8 13.6l-1 .3c-2-6.2 1.3-12.8 7.4-14.9 4.8-1.6 9.3-.2 11 3.4.8 1.7 2 2.4 3.1 3 .9.5 1.7 1 2 1.9.3 1-.4 1.7-.9 2.3-.4.4-.8.8-.8 1.2.2 5-2.4 9-7 10.5-.8.3-1.7.5-2.8.5zm-11.9-7.9.4-.2z" fill="#004e6e"/><path d="m94.5 63.1c1.6 4.1 1.2 11-3 12.6l-7.3-6.2z" fill="#646970"/><path d="m82.6 122.8c-3.7 28.5-.6 89.5-.6 89.5h14l1.2-51.1" fill="#004e6e"/><path d="m96.5 212.8h-15v-.5c0-.6-3.1-61.4.6-89.6l1.1.1c-3.5 26.8-.9 83-.6 88.9h12.9l1.2-50.6h1.1z" fill="#004e6e"/><path d="m105.5 122.1s1.5 21.6 2.3 43.9c.6 18.7-1.6 38.3-1.4 46.8h-15.3c.2-46.2-8.9-65.1-8.4-90.2" fill="#3895ba"/><path d="m81.5 91.2c-1.7 15.6 1.1 31.5 1.1 31.5l23-.6-.3-14.1-5.3-2.9 6.5-12.6-4.3-4.5-6.5-6.8c-6.2-1.5-12.4 2.4-13.9 8.6-.1.5-.2 1-.3 1.4z" fill="#3895ba"/><path d="m97.9 104.1 1 74.7h9.6l-1.4-70.2z" fill="#c3c4c7"/><path d="m95.2 101c9 7.8 17.9 10.1 21.6 7 5.5-4.6-4.3-22.8-4.9-25.5-2.3-9.2-7.4-9.2-8.6-8.2l1.2 6.8 2.3 12.3" fill="#fff"/><path d="m112.4 109.8c-4.8 0-11.3-3-17.6-8.4-.2-.2-.2-.5-.1-.7.2-.2.5-.2.7-.1 9.3 8.1 17.7 9.6 20.9 7 4.1-3.4-1.2-15.7-3.7-21.5-.7-1.6-1.2-2.8-1.4-3.4-1.5-6-4-7.6-5.4-8.1-1.2-.4-2.1-.1-2.4.1-.6.5.3 3.6 1.4 6.2v.1l2.3 12.3c0 .3-.1.5-.4.6s-.5-.1-.6-.4l-2.1-12.3c-.6-1.5-2.5-6.1-1.1-7.3.6-.5 1.9-.8 3.3-.3 1.6.5 4.5 2.4 6.1 8.8.1.5.6 1.7 1.3 3.3 2.8 6.6 8.1 18.8 3.4 22.7-1.1 1-2.7 1.4-4.6 1.4zm-2.6-12.8c-.1 0-.2 0-.3-.1l-8.4-8c-.2-.2-.2-.5 0-.7s.5-.2.7 0l8.4 8c.2.2.2.5 0 .7-.2 0-.3.1-.4.1zm-13.4-15.2c-.2 0-.4-.2-.5-.4l-1-3.9c0-.2 0-.3.1-.4s.2-.2.4-.2l2.2.1c.3 0 .5.3.5.5 0 .3-.2.5-.5.5l-1.5-.1.8 3.2c.1.3-.1.5-.4.6z" fill="#004e6e"/><path d="m89.3 124.3c-4.3 0-7.8-.4-8.1-.4-.4 0-.7-.4-.6-.8 0-.4.4-.7.8-.6.1 0 13.4 1.6 20.2-1.4.4-.2.8 0 1 .4s0 .8-.4 1c-3.7 1.5-8.7 1.8-12.9 1.8z" fill="#c3c4c7"/><path d="m106.2 143.5c-1.5 0-3-.1-4.5-.4-.4-.1-.7-.4-.6-.8s.4-.7.8-.6c2.5.4 5.1.5 7.6.1.4-.1.8.2.8.6.1.4-.2.8-.6.8-1.1.2-2.3.3-3.5.3z" fill="#fff"/><path d="m290.7 101.3-.7 6.7s-4.9 17.4-6.3 26c-2.2 13-2 33.3-2 33.3l38.3.7c.5-8.2.2-16.5-.7-24.7-1.5-12.4-5.3-25-5-26.3.7-2.7 2.4-15.1-1.7-18-.5-.4-1.3 2-6.8 3.2-3.8.9-15.1-.9-15.1-.9zm-202.5-18.5c-.9 0-1.7-.2-2.3-.7s-1.2-1.4-.9-3.2c.2-1 1-1.6 2.1-1.6 1.9 0 4.7 1.5 5 3.1.1.4.1 1.4-1.4 1.9-.9.4-1.7.5-2.5.5zm-1.1-4c-.6 0-.6.2-.6.4-.1.9 0 1.5.4 1.8.6.5 1.9.5 3.4 0 .4-.1.5-.3.5-.3 0-.4-1.7-1.7-3.3-1.9zm11.8 5.9c-.2 0-.4-.1-.5-.2-2.1-2.1-6.3-2.7-6.4-2.7-.4-.1-.7-.4-.6-.8s.4-.7.8-.6c.2 0 4.8.7 7.2 3.1.3.3.3.7 0 1-.1.1-.3.2-.5.2zm-15.4-13.6c-.2 0-.3-.1-.4-.2-.2-.2-.1-.5.1-.7l22.6-15.4c.2-.2.5-.1.7.1s.1.5-.1.7l-22.6 15.4c-.1.1-.2.1-.3.1z" fill="#c3c4c7"/><path d="m102.7 70.8h-.4c-.3 0-.5-.3-.5-.5 0-.3.3-.5.5-.5.6 0 1.1 0 1.6-.2.3-.1.5 0 .6.3s0 .5-.3.6c-.3.2-.9.3-1.5.3zm-2.1-7.7c.3-.1.7.2.7.5l.2 1.1c.1.4-.2.7-.5.8s-.7-.2-.7-.5l-.2-1.1c-.1-.4.1-.8.5-.8z" fill="#004e6e"/><path d="m288.7 86.6c-5.8.9-13.6 29.7-7.8 34.1 5.1 3.8 13.6-4.4 18-8.9l-3.8-5.2-2.6-.1" fill="#187aa2"/><path d="m315.5 77.2c.6 2.6 1 5.2 1.1 7.8.2 2.7 0 5.3-.5 7.9l-.5 2c-.2.6-.5 1.3-.8 1.9-.6 1.2-1.5 2.3-2.5 3.2-2.1 1.8-4.8 2.7-7.6 2.7-2.7.2-5.4-.1-8-.9-1.3-.4-2.6-1-3.7-1.8s-2-1.9-2.7-3.1c-1.2-2.4-1.8-5.1-1.6-7.8.1-2.6.6-5.3 1.3-7.8l.2-.1.1.2c-.5 2.6-.7 5.1-.8 7.7-.1 2.5.4 5.1 1.6 7.3.6 1.1 1.4 2 2.4 2.8 1 .7 2.2 1.3 3.4 1.6 2.5.7 5 .9 7.6.8 2.5 0 4.9-.9 6.9-2.5.9-.8 1.7-1.8 2.3-2.9l.7-1.7c.2-.6.4-1.2.5-1.8.5-2.5.7-5.1.5-7.7-.1-2.6-.5-5.1-.7-7.8 0-.2.1-.4.3-.4.3.2.5.3.5.4z" fill="#c3c4c7"/><path d="m272.3 60.5-7.7-9.6-.3-.3.4-.1c3-.5 6.1 0 8.9 1.2 2.8 1.3 5.1 3.3 6.8 5.9 1.6 2.6 2.4 5.6 2.2 8.7-.2 3-1 6-2.3 8.7v-.4l21.1 26.5 21.1 26.6-.7-.1c2.6-1.5 5.6-2.2 8.6-1.9 3 .4 5.7 1.9 7.7 4.2 2 2.2 3.4 4.9 3.9 7.8s.2 5.9-.8 8.7l-.3.9-.6-.7-7.7-9.6.5.2-8.7 1.3.4-.3-3.2 8.2-.1-.5 7.7 9.6.6.7-.9.1c-2.9.4-5.8.1-8.5-1s-5-2.9-6.7-5.3c-1.8-2.3-2.7-5.2-2.6-8.2.3-2.9 1.5-5.7 3.4-7.9v.7l-21.2-26.9-10.6-13.5-10.6-13.5.4.2c-2.9.6-5.9.6-8.8.1-3-.6-5.7-2-7.8-4.2s-3.4-4.9-4-7.8-.3-6 .8-8.8l.2-.5.3.4 7.6 9.7-.2-.1 8.7-1.2-.1.1 3.1-8.1z" fill="#004e6e"/><path d="m292.6 106.8-3.9 2.1-3.8 2.1-.2-.1v-.2c1-1.1 2.2-2.1 3.6-2.7 1.3-.7 2.7-1.3 4.1-1.8.2 0 .3.1.4.2 0 .2 0 .4-.2.4z" fill="#004e6e"/><path d="m294 106.6c2.7-4.4 5.7-6.8 10.2-6.8s4.2 4.8 2.1 5.4c-3.7 1-2.5 3.7-6 5.9l-2.4 1.4z" fill="#fff"/><path d="m306.2 105.4c-.5 0-1 .1-1.5.4-.4.3-.7.7-1 1.1-.5 1-1.1 2-1.8 3s-1.7 1.8-2.8 2.3c-1 .5-1.9 1.1-2.7 1.9-1.7 1.5-3.2 3.2-5.1 4.6-.9.7-1.9 1.4-3 1.9s-2.3.7-3.4.8l-.2-.2.2-.2c1.1-.2 2.2-.5 3.2-1s1.9-1.2 2.8-1.9c1.7-1.5 3.2-3.2 5-4.7.9-.8 1.9-1.5 2.9-2s1.9-1.1 2.5-2c.7-.8 1.2-1.9 1.8-2.9.3-.5.8-1 1.3-1.3.6-.3 1.2-.4 1.8-.4.2 0 .3.2.2.4.1.1 0 .2-.2.2zm1.2-2.4c-.7-.1-1.3-.1-2 0s-1.3.2-2 .4l-1.9.6c-.6.2-1.3.4-2 .6l-.2-.1v-.1c1.1-.9 2.4-1.5 3.8-1.9.7-.2 1.4-.3 2.1-.4s1.5 0 2.2.2c.2.1.2.2.2.4s-.1.2-.2.3zm-1.9-2.3c-1.7-.1-3.5.2-5.1.8-.8.3-1.5.7-2.2 1.2s-1.3 1.1-1.8 1.8h-.2l-.1-.2c.3-.9.9-1.7 1.6-2.3s1.5-1.1 2.4-1.4c.9-.4 1.8-.6 2.7-.7s1.9-.1 2.8.1c.2 0 .3.2.2.4 0 .2-.1.3-.3.3zm9.3 1.5c1 3.1 1.3 6.4.9 9.6-.1 1.6-.4 3.2-.7 4.8s-.8 3.1-1.4 4.6l-.2.1-.1-.2.9-4.7c.3-1.6.5-3.1.6-4.7s.2-3.1.1-4.7-.3-3.1-.7-4.6c0-.2.1-.3.2-.4.2 0 .4.1.4.2z" fill="#004e6e"/><path d="m302.2 136.2c-3.2 0-6.6-.2-8.3-.5-.4-.1-.6-.5-.6-.9.1-.4.5-.6.9-.6 3.2.6 13.1.7 15.3 0 .4-.1.8.1.9.5s-.1.8-.5.9c-1.2.4-4.4.6-7.7.6z" fill="#fff"/><path d="m40.2 215.1c26.6-.6 53.3-.7 79.9-.8l79.9-.1c53.3.1 106.6.1 159.8.7.2 0 .4.2.4.4s-.2.4-.4.4c-53.3.7-106.6.6-159.8.7l-79.9-.1c-26.6-.1-53.3-.3-79.9-.8-.1 0-.2-.1-.2-.2s.1-.2.2-.2zm151.8-113.1c-12.7 0-23 10.3-23 23s10.3 23 23 23 23-10.3 23-23-10.3-23-23-23zm2.3 34.5h-4.6v-4.6h4.6zm0-9.2h-4.6l-1.2-13.8h6.9z" fill="#a7aaad"/></svg>
