<?xml version="1.0" encoding="utf-8"?>
<!-- Generator: Adobe Illustrator 19.2.1, SVG Export Plug-In . SVG Version: 6.00 Build 0)  -->
<svg version="1.1" id="Layer_1" xmlns="http://www.w3.org/2000/svg" xmlns:xlink="http://www.w3.org/1999/xlink" x="0px" y="0px"
	 viewBox="0 0 180 180" style="enable-background:new 0 0 180 180;" xml:space="preserve">
<style type="text/css">
	.st0{fill:#6F93AD;}
	.st1{fill:none;}
	.st2{fill:#969CA1;}
	.st3{fill:#CCCED0;}
	.st4{fill:#204A69;}
</style>
<g>
	<path class="st0" d="M165.7,162.1c-5.9-17.5-17.8-39.7-41.6-49.6c-4.4-1.8-8.9-3.2-13.5-4c0,0-0.4,0.5-1.1,1.4
		c-2.7,3.3-10.5,11.3-21.4,11.3c-12.3,0-19.1-10.3-20.3-12.3c-0.1-0.2-0.2-0.4-0.2-0.4c-5.5,1.7-10.9,4.1-15.8,7
		c-20,11.9-28.9,31-32.8,46.6H165.7z"/>
	<path class="st1" d="M107.3,108.2c-4.2-0.6-7.4-4.1-7.5-8.4l-0.3-9.5c0,0,4.8-1,9.1-9c4.5-8.5,5.4-23.6-5.4-31.7
		c-4.9-3.7-8.9-8.3-10.4-11.3c-4.3,8.4-8.5,22.6-27.6,21.3c0,0,2.7,29.9,12.7,31.6l-1,8.5c-0.6,4.7-4.2,8.3-8.9,8.9l0,0v0.4
		c1.2,2.1,8,12.3,20.3,12.3c10.9,0,18.6-8,21.4-11.3v-1.4L107.3,108.2z"/>
	<path class="st2" d="M67.8,108.9v-0.4l0,0c4.7-0.6,8.3-4.2,8.9-8.9l1-8.5c-10-1.7-12.7-31.6-12.7-31.6
		c19.1,1.3,23.3-12.9,27.6-21.3c1.5,3,5.5,7.7,10.4,11.3c10.9,8.2,10,23.2,5.4,31.7c-4.3,8-9.1,9-9.1,9l0.3,9.5
		c0.1,4.2,3.3,7.8,7.5,8.4l2.2,0.3v1.4c0.7-0.9,1.1-1.4,1.1-1.4c4.6,0.8,9.2,2.2,13.5,4c2.5-2.6,5.2-6.5,7.1-12
		c4.3-12.4-7.6-27.9-8.2-34.1c-0.9-10.2,2.5-15.1-2.7-29.9c-3.3-9.3-19.4-20.1-36-16.1c-17.9,2.4-25.5,18.6-25.5,36.8
		c0,24.3-14.7,23.7-14.7,40.7c0,10.1,4.2,15.2,7.6,17.6c5-3,10.3-5.3,15.8-7C67.6,108.5,67.7,108.6,67.8,108.9z"/>
	<path class="st3" d="M100.4,97.6v-6.4c-8.2,1.4-15.4,2.1-21.8,0C72.3,89.1,88.6,97.8,100.4,97.6z"/>
	<path class="st4" d="M77.1,61.3h3.5c0.1,0,0.2,0.1,0.2,0.2v6.6c0,0.1-0.1,0.2-0.2,0.2h-3.5c-0.1,0-0.2-0.1-0.2-0.2v-6.6
		C76.9,61.4,77,61.3,77.1,61.3z"/>
	<path class="st4" d="M66,59.1c0.1,3.9,0.3,7.8,0.8,11.6c0.5,3.8,1.4,7.6,3.2,10.9c1.7,3.3,4.5,5.8,7.9,7.3c3.4,1.5,7.2,2,11,2.1
		c3.8,0.1,7.6-0.2,11-1.6c3.4-1.4,6-4.1,7.5-7.5c1.5-3.4,2.1-7.2,2.5-11.1c0.4-3.8,0.5-7.7,0.6-11.6c0-0.4,0.4-0.8,0.8-0.8
		s0.8,0.4,0.8,0.8l0,0c0.1,3.9,0.1,7.9-0.1,11.8c-0.3,3.9-0.9,8-2.4,11.8c-1.6,3.8-4.7,7.2-8.6,8.8c-3.9,1.7-8,1.9-12,1.8
		c-4-0.1-8.1-0.7-11.9-2.4c-0.9-0.4-1.9-0.9-2.7-1.5c-0.4-0.3-0.9-0.6-1.3-0.9l-1.2-1.1c-0.8-0.7-1.4-1.6-2.1-2.3
		c-0.6-0.8-1.1-1.8-1.6-2.6c-1.8-3.7-2.7-7.7-3.2-11.6c-0.4-4-0.5-7.9-0.5-11.8c0-0.4,0.4-0.8,0.8-0.8C65.6,58.3,66,58.6,66,59.1
		L66,59.1L66,59.1z"/>
	<path class="st4" d="M91,61.6c0.4,1.8,0.5,3.7,0.6,5.5c0,0.9,0,1.8,0,2.7c0,0.9-0.1,1.8-0.3,2.7c-0.1,0.5-0.6,0.8-1,0.7
		c-0.4-0.1-0.6-0.3-0.7-0.7c-0.2-0.9-0.3-1.8-0.3-2.7c-0.1-0.9-0.1-1.8,0-2.7c0.1-1.8,0.2-3.7,0.6-5.5c0.1-0.3,0.4-0.5,0.7-0.5
		C90.7,61.2,90.9,61.4,91,61.6L91,61.6z"/>
	<path class="st4" d="M99.7,61.3h3.5c0.1,0,0.2,0.1,0.2,0.2v6.6c0,0.1-0.1,0.2-0.2,0.2h-3.5c-0.1,0-0.2-0.1-0.2-0.2v-6.6
		C99.5,61.4,99.6,61.3,99.7,61.3z"/>
	<path class="st4" d="M85.5,78.7c0.8,0.3,1.6,0.4,2.4,0.5c0.8,0.1,1.7,0.2,2.6,0.2c0.9,0,1.7,0,2.5-0.1c0.8-0.1,1.5-0.2,2.2-0.5
		l0.1-0.1c0.4-0.2,0.9,0,1.1,0.4c0.1,0.3,0.1,0.7-0.2,0.9c-0.9,0.9-1.9,1.2-2.9,1.5c-1,0.2-2,0.3-3,0.3c-1,0-2-0.1-3-0.4
		c-1-0.3-2-0.6-2.8-1.4c-0.3-0.3-0.4-0.8-0.1-1.1c0.2-0.2,0.6-0.3,0.9-0.2L85.5,78.7z"/>
	<path class="st4" d="M96.4,53.2c0.7-0.8,1.5-1,2.3-1.3c0.8-0.2,1.6-0.3,2.3-0.2c0.8,0.1,1.6,0.1,2.3,0.4c0.8,0.2,1.6,0.7,2.2,1.3
		c0.3,0.3,0.3,0.8,0,1.1c-0.2,0.2-0.6,0.3-0.9,0.2l-0.1,0c-0.6-0.2-1.1-0.3-1.7-0.4c-0.6-0.1-1.3-0.1-1.9-0.1c-0.6,0-1.3,0-1.9,0.1
		c-0.5,0-1.1,0.1-1.6,0.2l-0.3,0.1c-0.4,0.1-0.8-0.2-0.9-0.6C96.2,53.6,96.2,53.4,96.4,53.2z"/>
	<path class="st4" d="M82.6,54.4c-0.5-0.1-1.1-0.2-1.6-0.2c-0.6-0.1-1.3-0.1-1.9-0.1c-0.6,0-1.3,0.1-1.9,0.1
		c-0.6,0.1-1.2,0.2-1.7,0.4l-0.1,0c-0.4,0.2-0.9,0-1-0.5c-0.1-0.3,0-0.6,0.2-0.9c0.6-0.6,1.3-1,2.2-1.3c0.8-0.3,1.5-0.3,2.3-0.4
		c0.8,0,1.6,0,2.3,0.2c0.8,0.2,1.6,0.5,2.3,1.3c0.3,0.3,0.3,0.8-0.1,1.1c-0.2,0.2-0.4,0.2-0.7,0.2L82.6,54.4z"/>
	<circle class="st3" cx="89" cy="131.9" r="2.1"/>
	<path class="st3" d="M79.2,79.3c-0.1-0.2-0.1-0.5,0-0.7c0-0.2,0.1-0.4,0.2-0.7c0.2-0.4,0.4-0.8,0.8-1.1l0.7,0.3
		c0.1,0.5,0,1-0.1,1.4c-0.1,0.2-0.2,0.4-0.3,0.6c-0.1,0.2-0.3,0.4-0.5,0.5L79.2,79.3z"/>
	<path class="st3" d="M101,79.6c-0.2-0.1-0.4-0.3-0.5-0.5c-0.1-0.2-0.2-0.4-0.3-0.6c-0.1-0.4-0.2-0.9-0.1-1.4l0.7-0.3
		c0.4,0.3,0.6,0.7,0.8,1.1c0.1,0.2,0.1,0.4,0.2,0.7c0,0.2,0,0.5,0,0.7L101,79.6z"/>
	<path class="st2" d="M110.1,60.7c-1-1.2-2.5-1.9-4.1-2l-5.6-0.2c-2.2-0.1-4.3,0.9-5.6,2.6c-0.1,0-0.2,0-0.3,0l-8.6-0.3h0
		c-0.2-0.3-0.4-0.5-0.6-0.8c-1.2-1.3-3-2.1-4.8-2.1l-5.6-0.2c-1.6-0.1-3.1,0.6-4.2,1.7c-1,1.1-1.6,2.5-1.4,4l0.1,1.8
		c0.3,4,3.8,7.1,7.9,7.1h0.1l1.4,0c4.4-0.1,8-3.4,8.2-7.7c0-0.6-0.1-1.3-0.2-1.9l7.1,0.2c-0.2,0.6-0.3,1.2-0.4,1.9
		c-0.2,4.2,3.2,7.9,7.6,8.2l1.4,0.1c0.2,0,0.4,0,0.7,0c3.9,0,7.3-2.8,7.9-6.5l0.3-1.8C111.5,63.3,111.1,61.9,110.1,60.7z M85.2,64.5
		c-0.1,3.3-2.9,5.9-6.4,5.9l-1.4,0c-3.3,0.1-6-2.3-6.2-5.4l-0.1-1.8c-0.1-1,0.3-1.9,0.9-2.6c0.7-0.7,1.7-1.1,2.7-1.1h0.1l5.6,0.2
		c1.3,0,2.6,0.6,3.5,1.6C84.8,62.1,85.2,63.3,85.2,64.5z M109.5,64.5l-0.3,1.8c-0.5,3-3.3,5.2-6.6,5l-1.4-0.1
		c-3.4-0.3-6.1-3.1-5.9-6.3c0.1-2.6,2.4-4.5,5.1-4.5l5.6,0.2c1.1,0,2.1,0.5,2.8,1.3C109.3,62.6,109.6,63.6,109.5,64.5L109.5,64.5z"
		/>
	<path class="st4" d="M101.5,91.3l0.1,4.7l0.1,2.3c0,0.7,0,1.5,0.1,2.2c0.3,2.6,2.2,5,4.6,5.9c0.3,0.1,0.6,0.2,0.9,0.3l0.5,0.1
		l0.6,0.1c0.8,0.1,1.6,0.3,2.4,0.4c1.6,0.3,3.1,0.7,4.7,1.1c3.1,0.8,6.1,1.9,9.1,3.1c5.9,2.4,11.5,5.6,16.6,9.6c5,4,9.5,8.7,13,14
		c0.3,0.5,0.2,1.2-0.3,1.5c-0.5,0.3-1.1,0.2-1.4-0.2c-3.8-4.9-8.2-9.2-13.1-12.9c-4.9-3.7-10.3-6.7-16-9c-2.8-1.2-5.7-2.2-8.7-3
		c-1.5-0.4-3-0.8-4.5-1.1l-2.3-0.5l-0.6-0.1l-0.7-0.2c-0.4-0.1-0.9-0.3-1.3-0.4c-3.4-1.4-5.9-4.7-6.2-8.3c0-0.4-0.1-0.9,0-1.3l0-1.2
		l0.1-2.3l0.1-4.7c0-0.6,0.5-1.1,1.1-1C101,90.3,101.5,90.7,101.5,91.3L101.5,91.3z"/>
</g>
</svg>
