<svg viewBox="0 0 180 180" xmlns="http://www.w3.org/2000/svg"><path d="m165.7 162.1c-5.9-17.5-17.8-39.7-41.6-49.6-4.4-1.8-8.9-3.2-13.5-4 0 0-.4.5-1.1 1.4-2.7 3.3-10.5 11.3-21.4 11.3-12.3 0-19.1-10.3-20.3-12.3l-.2-.4c-5.5 1.7-10.9 4.1-15.8 7-20 11.9-28.9 31-32.8 46.6z" fill="#3895ba"/><path d="m107.3 108.2c-4.2-.6-7.4-4.1-7.5-8.4l-.3-9.5s4.8-1 9.1-9c4.5-8.5 5.4-23.6-5.4-31.7-4.9-3.7-8.9-8.3-10.4-11.3-4.3 8.4-8.5 22.6-27.6 21.3 0 0 2.7 29.9 12.7 31.6l-1 8.5c-.6 4.7-4.2 8.3-8.9 8.9v.4c1.2 2.1 8 12.3 20.3 12.3 10.9 0 18.6-8 21.4-11.3v-1.4z" fill="none"/><path d="m67.8 108.9v-.4c4.7-.6 8.3-4.2 8.9-8.9l1-8.5c-10-1.7-12.7-31.6-12.7-31.6 19.1 1.3 23.3-12.9 27.6-21.3 1.5 3 5.5 7.7 10.4 11.3 10.9 8.2 10 23.2 5.4 31.7-4.3 8-9.1 9-9.1 9l.3 9.5c.1 4.2 3.3 7.8 7.5 8.4l2.2.3v1.4c.7-.9 1.1-1.4 1.1-1.4 4.6.8 9.2 2.2 13.5 4 2.5-2.6 5.2-6.5 7.1-12 4.3-12.4-7.6-27.9-8.2-34.1-.9-10.2 2.5-15.1-2.7-29.9-3.3-9.3-19.4-20.1-36-16.1-17.9 2.4-25.5 18.6-25.5 36.8 0 24.3-14.7 23.7-14.7 40.7 0 10.1 4.2 15.2 7.6 17.6 5-3 10.3-5.3 15.8-7 .3.1.4.2.5.5z" fill="#8e9196"/><path d="m100.4 97.6v-6.4c-8.2 1.4-15.4 2.1-21.8 0-6.3-2.1 10 6.6 21.8 6.4z" fill="#c3c4c7"/><g fill="#004e6e"><path d="m77.1 61.3h3.5c.1 0 .2.1.2.2v6.6c0 .1-.1.2-.2.2h-3.5c-.1 0-.2-.1-.2-.2v-6.6c0-.1.1-.2.2-.2z"/><path d="m66 59.1c.1 3.9.3 7.8.8 11.6s1.4 7.6 3.2 10.9c1.7 3.3 4.5 5.8 7.9 7.3s7.2 2 11 2.1 7.6-.2 11-1.6 6-4.1 7.5-7.5 2.1-7.2 2.5-11.1c.4-3.8.5-7.7.6-11.6 0-.4.4-.8.8-.8s.8.4.8.8c.1 3.9.1 7.9-.1 11.8-.3 3.9-.9 8-2.4 11.8-1.6 3.8-4.7 7.2-8.6 8.8-3.9 1.7-8 1.9-12 1.8s-8.1-.7-11.9-2.4c-.9-.4-1.9-.9-2.7-1.5-.4-.3-.9-.6-1.3-.9l-1.2-1.1c-.8-.7-1.4-1.6-2.1-2.3-.6-.8-1.1-1.8-1.6-2.6-1.8-3.7-2.7-7.7-3.2-11.6-.4-4-.5-7.9-.5-11.8 0-.4.4-.8.8-.8.3-.1.7.2.7.7z"/><path d="m91 61.6c.4 1.8.5 3.7.6 5.5v2.7c0 .9-.1 1.8-.3 2.7-.1.5-.6.8-1 .7s-.6-.3-.7-.7c-.2-.9-.3-1.8-.3-2.7-.1-.9-.1-1.8 0-2.7.1-1.8.2-3.7.6-5.5.1-.3.4-.5.7-.5.1.1.3.3.4.5zm8.7-.3h3.5c.1 0 .2.1.2.2v6.6c0 .1-.1.2-.2.2h-3.5c-.1 0-.2-.1-.2-.2v-6.6c0-.1.1-.2.2-.2zm-14.2 17.4c.8.3 1.6.4 2.4.5s1.7.2 2.6.2 1.7 0 2.5-.1 1.5-.2 2.2-.5l.1-.1c.4-.2.9 0 1.1.4.1.3.1.7-.2.9-.9.9-1.9 1.2-2.9 1.5-1 .2-2 .3-3 .3s-2-.1-3-.4-2-.6-2.8-1.4c-.3-.3-.4-.8-.1-1.1.2-.2.6-.3.9-.2zm10.9-25.5c.7-.8 1.5-1 2.3-1.3.8-.2 1.6-.3 2.3-.2.8.1 1.6.1 2.3.4.8.2 1.6.7 2.2 1.3.3.3.3.8 0 1.1-.2.2-.6.3-.9.2h-.1c-.6-.2-1.1-.3-1.7-.4s-1.3-.1-1.9-.1-1.3 0-1.9.1c-.5 0-1.1.1-1.6.2l-.3.1c-.4.1-.8-.2-.9-.6 0-.4 0-.6.2-.8zm-13.8 1.2c-.5-.1-1.1-.2-1.6-.2-.6-.1-1.3-.1-1.9-.1s-1.3.1-1.9.1c-.6.1-1.2.2-1.7.4h-.1c-.4.2-.9 0-1-.5-.1-.3 0-.6.2-.9.6-.6 1.3-1 2.2-1.3.8-.3 1.5-.3 2.3-.4.8 0 1.6 0 2.3.2.8.2 1.6.5 2.3 1.3.3.3.3.8-.1 1.1-.2.2-.4.2-.7.2z"/></g><circle cx="89" cy="131.9" fill="#c3c4c7" r="2.1"/><path d="m79.2 79.3c-.1-.2-.1-.5 0-.7 0-.2.1-.4.2-.7.2-.4.4-.8.8-1.1l.7.3c.1.5 0 1-.1 1.4l-.3.6c-.1.2-.3.4-.5.5zm21.8.3c-.2-.1-.4-.3-.5-.5l-.3-.6c-.1-.4-.2-.9-.1-1.4l.7-.3c.4.3.6.7.8 1.1.1.2.1.4.2.7v.7z" fill="#c3c4c7"/><path d="m110.1 60.7c-1-1.2-2.5-1.9-4.1-2l-5.6-.2c-2.2-.1-4.3.9-5.6 2.6h-.3l-8.6-.3c-.2-.3-.4-.5-.6-.8-1.2-1.3-3-2.1-4.8-2.1l-5.6-.2c-1.6-.1-3.1.6-4.2 1.7-1 1.1-1.6 2.5-1.4 4l.1 1.8c.3 4 3.8 7.1 7.9 7.1h1.5c4.4-.1 8-3.4 8.2-7.7 0-.6-.1-1.3-.2-1.9l7.1.2c-.2.6-.3 1.2-.4 1.9-.2 4.2 3.2 7.9 7.6 8.2l1.4.1h.7c3.9 0 7.3-2.8 7.9-6.5l.3-1.8c.1-1.5-.3-2.9-1.3-4.1zm-24.9 3.8c-.1 3.3-2.9 5.9-6.4 5.9h-1.4c-3.3.1-6-2.3-6.2-5.4l-.1-1.8c-.1-1 .3-1.9.9-2.6.7-.7 1.7-1.1 2.7-1.1h.1l5.6.2c1.3 0 2.6.6 3.5 1.6.9.8 1.3 2 1.3 3.2zm24.3 0-.3 1.8c-.5 3-3.3 5.2-6.6 5l-1.4-.1c-3.4-.3-6.1-3.1-5.9-6.3.1-2.6 2.4-4.5 5.1-4.5l5.6.2c1.1 0 2.1.5 2.8 1.3.5.7.8 1.7.7 2.6z" fill="#8e9196"/><path d="m101.5 91.3.1 4.7.1 2.3c0 .7 0 1.5.1 2.2.3 2.6 2.2 5 4.6 5.9l.9.3.5.1.6.1c.8.1 1.6.3 2.4.4 1.6.3 3.1.7 4.7 1.1 3.1.8 6.1 1.9 9.1 3.1 5.9 2.4 11.5 5.6 16.6 9.6 5 4 9.5 8.7 13 14 .3.5.2 1.2-.3 1.5s-1.1.2-1.4-.2c-3.8-4.9-8.2-9.2-13.1-12.9s-10.3-6.7-16-9c-2.8-1.2-5.7-2.2-8.7-3-1.5-.4-3-.8-4.5-1.1l-2.3-.5-.6-.1-.7-.2c-.4-.1-.9-.3-1.3-.4-3.4-1.4-5.9-4.7-6.2-8.3 0-.4-.1-.9 0-1.3v-1.2l.1-2.3.1-4.7c0-.6.5-1.1 1.1-1 .6-.1 1.1.3 1.1.9z" fill="#004e6e"/></svg>
