<svg viewBox="0 0 250 157" xmlns="http://www.w3.org/2000/svg"><g fill="#3895ba"><path d="m73.8 69.1c-1.4-1-2-2.3-2.7-3.6l-2.1-3.9c-.7-1.3-1.3-2.7-1.9-4-.6-1.4-1.3-2.7-1.3-4.4 0-.2.1-.3.3-.3.1 0 .1 0 .2.1 1.4 1 2 2.3 2.7 3.6l2.1 3.9c.6 1.3 1.3 2.7 1.9 4 .6 1.4 1.3 2.7 1.3 4.4 0 .2-.1.3-.3.3-.1-.1-.1-.1-.2-.1zm-6.5-21.9c-1.6-1.5-2.5-3.4-3.5-5.2s-1.9-3.7-2.8-5.5c-.9-1.9-1.8-3.7-2.6-5.6s-1.8-3.7-2-5.9c0-.1.1-.3.2-.3s.2 0 .2.1c1.6 1.5 2.5 3.4 3.5 5.2s1.9 3.7 2.8 5.5c.9 1.9 1.8 3.7 2.6 5.6s1.8 3.7 2 5.9c0 .1-.1.3-.2.3 0-.1-.1-.1-.2-.1z"/><path d="m72.8 40.9c-.9-1.2-.9-2.5-1.1-3.7-.2-1.3-.3-2.5-.4-3.8s-.1-2.5-.1-3.8-.2-2.5.5-3.8c.1-.1.3-.2.4-.1l.1.1c.9 1.2.9 2.5 1.1 3.7.2 1.3.3 2.5.4 3.8s.1 2.5.1 3.8.2 2.5-.5 3.8c-.1.2-.3.2-.5 0 0 .1 0 .1 0 0z"/><path d="m80.2 67.7c-.4-2.2 0-4.2.3-6.2s.6-4.1 1-6.1.8-4.1 1.2-6.1.7-4.1 1.9-6c.1-.1.2-.2.4-.1.1 0 .1.1.1.2.4 2.2 0 4.2-.3 6.2s-.6 4.1-1 6.1-.8 4.1-1.2 6.1-.7 4.1-1.9 6c-.1.1-.2.2-.4.1-.1-.1-.1-.2-.1-.2zm2.8-33.4c-.6-1.4-.3-2.7-.1-4s.4-2.6.6-3.8c.3-1.3.5-2.5.8-3.8s.5-2.5 1.5-3.7c.1-.1.3-.1.4 0l.1.1c.6 1.4.3 2.7.1 4s-.4 2.6-.6 3.8c-.3 1.3-.5 2.5-.8 3.8s-.5 2.5-1.5 3.7c-.1.1-.3.1-.4 0 0 0-.1 0-.1-.1zm10.3 5.2c-.3-1.6.2-2.9.6-4.3s.8-2.7 1.2-4.1c.5-1.3.9-2.7 1.5-4 .5-1.3.9-2.7 2.1-3.8.1-.1.3-.1.4 0l.1.1c.3 1.6-.2 2.9-.6 4.3s-.8 2.7-1.2 4.1c-.5 1.3-.9 2.7-1.5 4-.5 1.3-.9 2.7-2.1 3.8-.1.1-.3.1-.4 0-.1 0-.1 0-.1-.1zm13.5 6.2c-.2-1.3.4-2.2.9-3.1s1-1.9 1.5-2.8 1.1-1.8 1.7-2.7 1.1-1.8 2.3-2.3c.2-.1.3 0 .4.2v.1c.2 1.3-.4 2.2-.9 3.1s-1 1.9-1.5 2.8-1.1 1.8-1.7 2.7-1.1 1.8-2.3 2.3c-.1 0-.3-.1-.4-.3zm-14.4 13.6c.1-1.7.9-2.9 1.6-4.2s1.4-2.6 2.2-3.9 1.5-2.5 2.4-3.8c.8-1.2 1.5-2.5 3-3.4.1-.1.3 0 .4.1v.2c-.1 1.7-.9 2.9-1.6 4.2s-1.4 2.6-2.2 3.9-1.5 2.5-2.4 3.8c-.8 1.2-1.5 2.5-3 3.4-.1.1-.3 0-.4-.1.1-.1 0-.2 0-.2zm-7 13.9c.4-1.5 1.5-2.4 2.4-3.4s1.9-1.9 2.9-2.9c1-.9 2-1.8 3.1-2.7 1-.9 2-1.8 3.5-2.2.2 0 .3.1.3.2v.1c-.4 1.5-1.5 2.4-2.4 3.4s-1.9 1.9-2.9 2.9c-1 .9-2 1.8-3.1 2.7-1 .9-2 1.8-3.5 2.2-.2 0-.3-.1-.3-.2zm26.9-2.2c.7-1.2 1.7-1.5 2.6-2 1-.5 1.9-.9 2.9-1.4l3-1.2c1-.4 2-.8 3.3-.5.2 0 .3.2.2.4v.1c-.7 1.2-1.7 1.5-2.6 2-1 .5-1.9.9-2.9 1.4l-3 1.2c-1 .4-2 .8-3.3.5-.1-.1-.2-.3-.2-.5zm3 9.5c1.6-.7 3.2-.5 4.8-.5s3.2.1 4.8.2 3.2.2 4.8.4 3.2.2 4.7 1.1c.1.1.2.3.1.4 0 .1-.1.1-.1.1-1.6.7-3.2.5-4.8.5s-3.2-.1-4.8-.2-3.2-.2-4.8-.4-3.2-.2-4.7-1.1c-.1-.1-.2-.2-.1-.4 0-.1.1-.1.1-.1zm-29.9-2.4c1.4-.7 2.7-.5 4-.4 1.3 0 2.7.2 4 .3 1.3.2 2.6.3 4 .5 1.3.2 2.6.3 3.9 1.2.1.1.2.3.1.4l-.1.1c-1.4.7-2.7.5-4 .4-1.3 0-2.7-.2-4-.3-1.3-.2-2.6-.3-4-.5-1.3-.2-2.6-.3-3.9-1.2-.1-.1-.2-.3-.1-.4.1 0 .1-.1.1-.1zm13.9-9.9c.9-1.4 2.3-2.1 3.6-2.9s2.6-1.5 3.9-2.2 2.7-1.4 4-2c1.4-.6 2.7-1.4 4.4-1.4.2 0 .3.1.3.3v.2c-.9 1.4-2.3 2.1-3.6 2.9s-2.6 1.5-3.9 2.2-2.7 1.4-4 2c-1.4.6-2.7 1.4-4.4 1.4-.2 0-.3-.1-.3-.3-.1-.1-.1-.1 0-.2zm-15.8 13.3c1.7.1 2.9.9 4.2 1.6s2.6 1.5 3.8 2.2c1.2.8 2.5 1.6 3.7 2.4s2.5 1.5 3.4 3c.1.1 0 .3-.1.4h-.2c-1.7-.1-2.9-.9-4.2-1.6s-2.6-1.5-3.8-2.2c-1.2-.8-2.5-1.6-3.7-2.4s-2.5-1.5-3.4-3c-.1-.1 0-.3.1-.4zm30.3 7.9c1.3-.5 2.5-.1 3.6.2 1.1.2 2.3.5 3.4.8s2.2.7 3.4 1.1c1.1.4 2.3.6 3.2 1.7.1.1.1.3 0 .4 0 0-.1 0-.1.1-1.3.5-2.5.1-3.6-.2-1.1-.2-2.3-.5-3.4-.8s-2.2-.7-3.4-1.1c-1.1-.4-2.3-.6-3.2-1.7-.1-.1-.1-.3.1-.5zm-7.7 3.3c2.5.6 4.5 1.9 6.6 3l6.3 3.6c2.1 1.3 4.1 2.5 6.2 3.8 2 1.3 4.1 2.5 5.8 4.4.1.1.1.3 0 .4s-.2.1-.2.1c-2.5-.6-4.5-1.9-6.6-3l-6.3-3.6c-2.1-1.3-4.1-2.5-6.2-3.8-2-1.3-4.1-2.5-5.8-4.4-.1-.1-.1-.3 0-.4s.2-.1.2-.1zm8.2 12.4c1.5.2 2.3 1 3.3 1.8 1 .7 1.9 1.5 2.9 2.3.9.8 1.8 1.6 2.7 2.5s1.9 1.6 2.3 3c0 .2 0 .3-.2.4h-.1c-1.5-.2-2.3-1-3.3-1.8-1-.7-1.9-1.5-2.9-2.3-.9-.8-1.8-1.6-2.7-2.5s-1.9-1.6-2.3-3c0-.2 0-.3.2-.4zm-24.6-12.6c1.3.4 1.8 1.3 2.5 2.1s1.3 1.7 1.9 2.5l1.8 2.7c.6.9 1.2 1.7 1.2 3.1 0 .2-.2.3-.3.3h-.1c-1.3-.4-1.8-1.3-2.5-2.1s-1.3-1.7-1.9-2.5l-1.8-2.7c-.6-.9-1.2-1.7-1.2-3.1 0-.2.1-.3.4-.3-.1 0-.1 0 0 0zm8.6 17.3c1.3.9 1.8 2.2 2.4 3.4s1.2 2.5 1.8 3.7c.5 1.3 1.1 2.5 1.6 3.8s1.1 2.5.9 4.1c0 .2-.2.3-.3.3s-.1 0-.1-.1c-1.3-.9-1.8-2.2-2.4-3.4s-1.2-2.5-1.8-3.7c-.5-1.3-1.1-2.5-1.6-3.8s-1.1-2.5-.9-4.1c0-.2.2-.3.3-.3 0 .1 0 .1.1.1zm-13-6.6c1 1.8 1.2 3.6 1.4 5.4.3 1.8.5 3.7.7 5.5s.4 3.7.5 5.6.4 3.7-.2 5.6c0 .1-.2.2-.3.2s-.1-.1-.2-.1c-1-1.8-1.2-3.6-1.4-5.4-.3-1.8-.5-3.7-.7-5.5s-.4-3.7-.5-5.6-.4-3.7.2-5.6c0-.1.2-.2.3-.2.2 0 .2.1.2.1zm-5.5-18c.8 1.2.7 2.4.7 3.6v3.5c0 1.2-.1 2.4-.2 3.5-.1 1.2-.1 2.4-.9 3.5-.1.1-.3.2-.4.1l-.1-.1c-.8-1.2-.7-2.4-.7-3.6v-3.5c0-1.2.1-2.4.2-3.5.1-1.2.1-2.4.9-3.5.1-.2.3-.2.5 0 0-.1 0-.1 0 0zm-2 31.2c.8.9.7 1.8.7 2.7s.1 1.8 0 2.6c0 .9-.1 1.8-.2 2.6-.1.9-.1 1.8-.9 2.6-.1.1-.3.1-.5 0-.8-.9-.7-1.8-.7-2.7s-.1-1.8 0-2.6c0-.9.1-1.8.2-2.6.1-.9.1-1.8.9-2.6.1-.1.3-.1.5 0zm-4.2-12.5c.3 1.8-.3 3.3-.7 4.9s-.9 3.1-1.4 4.7c-.5 1.5-1 3.1-1.6 4.6s-1 3.1-2.3 4.4c-.1.1-.3.1-.4 0 0 0-.1-.1-.1-.2-.3-1.8.3-3.3.7-4.9s.9-3.1 1.4-4.7c.5-1.5 1-3.1 1.6-4.6s1-3.1 2.3-4.4c.1-.1.3-.1.4 0s.1.1.1.2zm.5-18.9c.2 1.4-.4 2.3-.9 3.4l-1.5 3c-.5 1-1.1 2-1.7 2.9-.6 1-1.1 2-2.4 2.6-.2.1-.3 0-.4-.1v-.1c-.2-1.4.4-2.3.9-3.4l1.5-3c.5-1 1.1-2 1.7-2.9.6-1 1.1-2 2.4-2.6.1-.1.3 0 .4.2zm-11.9 20.7c-.2 2.3-1.2 4.2-2.1 6.1s-1.8 3.9-2.7 5.8c-1 1.9-1.9 3.8-3 5.7-1 1.9-1.9 3.8-3.6 5.4-.1.1-.3.1-.4 0s-.1-.1-.1-.2c.2-2.3 1.2-4.2 2.1-6.1s1.8-3.9 2.7-5.8c1-1.9 1.9-3.8 3-5.7 1-1.9 1.9-3.8 3.6-5.4.1-.1.3-.1.4 0 .1 0 .1.1.1.2zm-7.9-4.5c-.1 1.4-.9 2.2-1.6 3.1s-1.4 1.8-2.1 2.6c-.7.9-1.5 1.7-2.3 2.5s-1.5 1.7-2.8 2c-.2 0-.3-.1-.4-.2v-.1c.1-1.4.9-2.2 1.6-3.1s1.4-1.8 2.1-2.6c.7-.9 1.5-1.7 2.3-2.5s1.5-1.7 2.8-2c.2-.1.4 0 .4.3 0-.1 0-.1 0 0zm9.9-17.2c-.8 1.3-2 1.7-3.1 2.3-1 .7-2.1 1.2-3.3 1.7-1.1.5-2.3 1-3.4 1.5-1.2.5-2.3 1-3.7.8-.2 0-.3-.2-.3-.3v-.1c.8-1.3 2-1.7 3.1-2.3s2.2-1.2 3.3-1.7 2.3-1 3.4-1.5c1.2-.5 2.3-1 3.7-.8.2 0 .3.2.3.3.1.1 0 .1 0 .1zm-17.5 9c-1.4 1.5-3.1 2.2-4.8 3.1l-5.1 2.4c-1.7.8-3.5 1.5-5.2 2.2s-3.4 1.5-5.5 1.6c-.2 0-.3-.1-.3-.3 0-.1 0-.1.1-.2 1.4-1.5 3.1-2.2 4.8-3.1l5.1-2.4c1.7-.8 3.5-1.5 5.2-2.2s3.4-1.5 5.5-1.6c.2 0 .3.1.3.3 0 .1 0 .1-.1.2zm-.4-9.8c-2.1 1.4-4.3 1.9-6.6 2.6-2.2.7-4.5 1.3-6.8 1.9s-4.5 1.1-6.8 1.7c-2.3.5-4.5 1.2-7 1-.1 0-.3-.1-.2-.3 0-.1.1-.2.1-.2 2.1-1.4 4.3-1.9 6.6-2.6 2.2-.7 4.5-1.3 6.8-1.9s4.5-1.1 6.8-1.7c2.3-.5 4.5-1.2 7-1 .1 0 .3.1.2.3 0 .1 0 .2-.1.2zm-.8-8.7c-1.4.7-2.6.5-3.9.5s-2.6-.1-3.9-.2-2.6-.3-3.8-.5c-1.3-.2-2.6-.2-3.8-1.2-.1-.1-.2-.3-.1-.4l.1-.1c1.4-.7 2.6-.5 3.9-.5s2.6.1 3.9.2 2.6.3 3.8.5c1.3.2 2.6.2 3.8 1.2.1.1.2.3.1.4-.1 0-.1.1-.1.1zm23.5 3.9c-1.5.6-2.9.4-4.4.3-1.4-.1-2.9-.2-4.3-.4l-4.2-.6c-1.4-.2-2.8-.3-4.2-1.3-.1-.1-.2-.3-.1-.4l.1-.1c1.5-.6 2.9-.4 4.4-.3 1.4.1 2.9.2 4.3.4l4.2.6c1.4.2 2.8.3 4.2 1.3.1.1.2.3.1.4zm.4-5.6c-1.9-.2-3.4-1.1-4.9-1.9s-3.1-1.7-4.6-2.6-3-1.8-4.5-2.8c-1.5-.9-3-1.8-4.1-3.4-.1-.1-.1-.3.1-.4.1 0 .1-.1.2 0 1.9.2 3.4 1.1 4.9 1.9s3.1 1.7 4.6 2.6 3 1.8 4.5 2.8c1.5.9 3 1.8 4.1 3.4.1.1.1.3-.1.4-.1-.1-.2 0-.2 0zm-28.6-8.1c-1.8.2-3.2-.5-4.7-1s-3-1.1-4.4-1.7c-1.5-.6-2.9-1.2-4.4-1.9-1.4-.7-2.9-1.2-4.1-2.5-.1-.1-.1-.3 0-.4 0 0 .1-.1.2-.1 1.8-.2 3.2.5 4.7 1s3 1.1 4.4 1.7c1.5.6 2.9 1.2 4.4 1.9 1.4.7 2.9 1.2 4.1 2.5.1.1.1.3 0 .4-.1 0-.1.1-.2.1zm7-5.3c-1.8-.4-3.2-1.4-4.6-2.3s-2.8-1.9-4.1-2.9-2.7-2-4-3-2.7-2-3.6-3.6c-.1-.1 0-.3.1-.4h.2c1.8.3 3.1 1.4 4.5 2.3s2.8 1.9 4.1 2.9 2.7 2 4 3 2.7 2 3.6 3.6c.1.1 0 .3-.1.4zm14.6-.8c-1.6-1-2.4-2.5-3.4-3.9s-1.9-2.8-2.8-4.3-1.8-2.9-2.6-4.4-1.8-2.9-2-4.8c0-.2.1-.3.2-.3h.2c1.6 1 2.4 2.5 3.4 3.9s1.9 2.8 2.8 4.3 1.8 2.9 2.6 4.4 1.8 2.9 2 4.8c0 .2-.1.3-.2.3z"/></g><path d="m138.7 31.1c-.7-1.1-.6-2.1-.6-3.1s.1-2 .1-3c.1-1 .2-2 .4-3s.2-2 1.1-3c.1-.1.3-.1.5 0v.1c.7 1.1.6 2.1.6 3.1s-.1 2-.1 3c-.1 1-.2 2-.4 3s-.2 2-1.1 3c-.2 0-.4 0-.5-.1zm4.1-6c-.2-1.6.5-2.9 1-4.3.5-1.3 1.1-2.7 1.6-4 .6-1.3 1.2-2.6 1.9-3.9s1.2-2.6 2.5-3.6c.1-.1.3-.1.4.1 0 0 0 .1.1.1.2 1.6-.5 2.9-1 4.3-.5 1.3-1.1 2.7-1.6 4-.6 1.3-1.2 2.6-1.9 3.9s-1.2 2.6-2.5 3.6c-.1.1-.3.1-.4-.1zm1.1 5.5c.7-1.7 1.9-2.7 3.1-3.9s2.4-2.3 3.6-3.4 2.5-2.2 3.7-3.2c1.3-1 2.4-2.2 4.2-2.7.1 0 .3 0 .3.2v.2c-.7 1.7-1.9 2.7-3.1 3.9s-2.4 2.3-3.6 3.4-2.5 2.2-3.7 3.2c-1.3 1-2.4 2.2-4.2 2.7-.1 0-.3 0-.3-.2zm10.3-14.8c-.2-1.2.4-1.9.8-2.7s.9-1.5 1.4-2.3c.5-.7 1-1.4 1.6-2.1.5-.7 1-1.5 2.1-1.8.2 0 .4.1.4.2.2 1.2-.4 1.9-.8 2.7s-.9 1.5-1.4 2.3c-.5.7-1 1.4-1.6 2.1-.5.7-1 1.5-2.1 1.8-.2.1-.4 0-.4-.2zm12.8 9.6c.4-1 1.1-1.2 1.7-1.6.6-.3 1.3-.6 2-.9s1.3-.5 2-.7 1.3-.5 2.3-.1c.2.1.3.3.2.5-.4 1-1.1 1.2-1.7 1.6-.6.3-1.3.6-2 .9s-1.3.5-2 .7-1.3.5-2.3.1c-.2-.1-.3-.3-.2-.5zm-14.6 7.2c.6-1.1 1.6-1.4 2.5-1.9.9-.4 1.8-.9 2.8-1.2.9-.4 1.9-.7 2.9-1s1.9-.7 3.1-.4c.2.1.3.2.2.4v.1c-.6 1.1-1.6 1.4-2.5 1.9-.9.4-1.8.9-2.8 1.2-.9.4-1.9.7-2.9 1s-1.9.7-3.1.4c-.2 0-.3-.2-.2-.5 0 .1 0 .1 0 0zm12.1 2.5c.8-.8 1.6-.8 2.4-.9s1.6-.1 2.5-.2c.8 0 1.6 0 2.5.1.8.1 1.6 0 2.5.8.1.1.1.4 0 .5-.8.8-1.6.8-2.4.9s-1.6.1-2.5.2c-.8 0-1.6 0-2.5-.1-.8-.1-1.6 0-2.5-.8-.1-.1-.1-.3 0-.5zm-19.5 2.4c1.1-.4 1.9 0 2.8.3.8.3 1.7.6 2.5 1l2.4 1.2c.8.4 1.6.7 2.1 1.8.1.2 0 .4-.2.4-1.1.4-1.9 0-2.8-.3-.8-.3-1.7-.6-2.5-1l-2.4-1.2c-.8-.4-1.6-.7-2.1-1.8 0-.1 0-.3.2-.4zm-4 2.6c1.1.6 1.4 1.6 1.8 2.5s.8 1.8 1.2 2.8c.4.9.7 1.9 1 2.9s.7 1.9.3 3.1c-.1.2-.2.3-.4.2h-.1c-1.1-.6-1.4-1.6-1.8-2.5s-.8-1.8-1.2-2.8c-.4-.9-.7-1.9-1-2.9s-.7-1.9-.3-3.1c.1-.2.3-.3.5-.2z" fill="#004e6e"/><path d="m149.9 45.8 8.1 11.9" fill="#d48fc8"/><path d="m150.1 45.6c1.3.5 2 1.6 2.7 2.5.7 1 1.4 1.9 2.1 2.9s1.3 2 1.9 3.1c.6 1 1.3 2 1.4 3.4 0 .2-.1.3-.3.3h-.1c-1.3-.5-2-1.6-2.7-2.5-.7-1-1.4-1.9-2.1-2.9s-1.3-2-1.9-3.1c-.6-1-1.3-2-1.4-3.4 0-.2.1-.3.3-.3zm-14.2-3.9c.4 1.1 0 1.8-.2 2.5-.3.8-.5 1.5-.8 2.3-.3.7-.7 1.5-1.1 2.2s-.6 1.5-1.7 1.9c-.2.1-.4 0-.5-.2-.4-1.1 0-1.8.2-2.5.3-.8.5-1.5.8-2.3.3-.7.7-1.5 1.1-2.2s.6-1.5 1.7-1.9c.2-.1.4 0 .5.2z" fill="#004e6e"/><path d="m125.8 50.1c-.5 1.3-1.4 1.9-2.3 2.6s-1.8 1.4-2.7 2-1.9 1.2-2.8 1.8c-1 .6-1.8 1.3-3.2 1.2-.2 0-.3-.1-.3-.3v-.1c.5-1.3 1.4-1.9 2.3-2.6s1.8-1.4 2.7-2 1.9-1.2 2.8-1.8c1-.6 1.8-1.3 3.2-1.2.2 0 .3.1.3.4 0-.1 0-.1 0 0z" fill="#3895ba"/><path d="m121.8 43.8c-.4 1.1-1.2 1.4-1.9 1.9-.7.4-1.5.9-2.3 1.2-.8.4-1.6.7-2.4 1s-1.5.8-2.7.4c-.2-.1-.3-.2-.2-.4.4-1.1 1.2-1.4 1.9-1.9.7-.4 1.5-.9 2.3-1.2.8-.4 1.6-.7 2.4-1s1.5-.8 2.7-.4c.2 0 .3.2.2.4zm12-5.9c-.4 1.1-1.1 1.3-1.8 1.7s-1.4.7-2.1 1-1.4.6-2.2.8c-.7.2-1.4.6-2.5.2-.2-.1-.3-.3-.2-.5.4-1.1 1.1-1.3 1.8-1.7s1.4-.7 2.1-1 1.4-.6 2.2-.8c.7-.2 1.4-.6 2.5-.2.2.1.3.3.2.5zm-7.7-6.9c-1.5.4-2.8-.1-4-.4-1.3-.3-2.6-.7-3.8-1-1.3-.4-2.5-.8-3.8-1.3-1.2-.5-2.5-.8-3.6-1.9-.1-.1-.1-.3 0-.4l.1-.1c1.5-.4 2.8.1 4 .4 1.3.3 2.6.7 3.8 1 1.3.4 2.5.8 3.8 1.3 1.2.5 2.5.8 3.6 1.9.1.1.1.3 0 .4zm-7.3-9.9c-1.2.3-1.9-.2-2.8-.6l-2.4-1.2c-.8-.4-1.6-.9-2.3-1.4-.8-.5-1.6-.9-2-2-.1-.2 0-.4.2-.4 1.2-.3 1.9.2 2.8.6l2.4 1.2c.8.4 1.6.9 2.3 1.4.8.5 1.6.9 2 2 .1.1 0 .3-.2.4zm13.6 8.2c-1.2-.4-1.8-1.3-2.4-2.1s-1.2-1.6-1.8-2.5-1.1-1.7-1.6-2.6-1.1-1.7-1-3c0-.2.2-.3.3-.3h.1c1.2.4 1.8 1.3 2.4 2.1s1.2 1.6 1.8 2.5 1.1 1.7 1.6 2.6 1.1 1.7 1 3c0 .2-.1.3-.4.3zm-6.4-15.3c-1.2-.4-1.6-1.2-2.2-1.9-.5-.7-1.1-1.5-1.6-2.3s-.9-1.6-1.4-2.4c-.4-.8-1-1.6-.8-2.8 0-.2.2-.3.4-.3 1.2.3 1.6 1.2 2.2 1.9.5.7 1.1 1.5 1.6 2.3s.9 1.6 1.4 2.4c.4.8 1 1.6.8 2.8 0 .2-.1.3-.4.3.1 0 .1 0 0 0zm8.5 1.1c-.8-.9-.8-1.9-.9-2.9s-.2-1.9-.2-2.9v-2.9c0-1 0-1.9.7-2.9.1-.1.3-.2.5-.1.8.9.8 1.9.9 2.9s.2 1.9.2 2.9v2.9c0 1 0 1.9-.7 2.9-.2.3-.4.3-.5.1 0 .1 0 .1 0 0zm5.5-2.6c-.7-1.1-.5-2.2-.4-3.2s.1-2.1.2-3.1.3-2.1.5-3.1.2-2.1 1.2-3c.1-.1.3-.1.4 0v.1c.7 1.1.5 2.2.5 3.2-.1 1-.1 2.1-.2 3.1s-.3 2.1-.5 3.1-.2 2.1-1.2 3c-.1.1-.3.1-.5-.1z" fill="#004e6e"/><path d="m206.2 69.1c.9-1.6 2.3-2.5 3.6-3.4 1.3-1 2.7-1.9 4-2.9l4.2-2.7c1.4-.9 2.7-1.8 4.6-2.1.2 0 .3.1.3.2v.2c-.9 1.6-2.3 2.5-3.6 3.4-1.3 1-2.7 1.9-4 2.9l-4.2 2.7c-1.4.9-2.7 1.8-4.6 2.1-.2 0-.3-.1-.3-.2zm-22.4 13.5c.9-1.6 2.3-2.4 3.5-3.4 1.3-1 2.6-1.9 3.9-2.8s2.7-1.8 4.1-2.6 2.7-1.8 4.5-2c.2 0 .3.1.3.2v.2c-.9 1.6-2.3 2.4-3.5 3.4-1.3 1-2.6 1.9-3.9 2.8s-2.7 1.8-4.1 2.6-2.7 1.8-4.5 2c-.2 0-.3-.1-.3-.2-.1-.1-.1-.2 0-.2zm27.4-4.5c.9-1 2.1-1.2 3.1-1.5 1.1-.3 2.2-.6 3.3-.8l3.3-.6c1.1-.2 2.2-.4 3.5.1.2.1.2.3.2.4 0 0 0 .1-.1.1-.9 1-2.1 1.2-3.1 1.5-1.1.3-2.2.6-3.3.8l-3.3.6c-1.1.2-2.2.4-3.5-.1-.2 0-.2-.2-.1-.5-.1.1 0 .1 0 0zm-22.5 8.3c1.7-.6 3.2-.4 4.8-.3s3.2.3 4.8.4c1.6.2 3.2.4 4.7.6 1.6.2 3.2.3 4.7 1.3.1.1.2.3.1.4 0 .1-.1.1-.1.1-1.7.6-3.2.4-4.8.3s-3.2-.3-4.8-.4c-1.6-.2-3.2-.4-4.7-.6-1.6-.2-3.2-.3-4.7-1.3-.1-.1-.2-.3-.1-.4zm25.4-.7c1.2-.6 2.2-.4 3.3-.3s2.1.2 3.2.3c1 .2 2.1.4 3.1.6s2.1.3 3 1.3c.1.1.1.3 0 .4h-.1c-1.2.6-2.2.4-3.3.3s-2.1-.2-3.2-.3c-1-.2-2.1-.4-3.1-.6s-2.1-.3-3-1.3c-.1 0-.1-.2.1-.4-.1.1-.1.1 0 0zm-4.1 9.8c1.4-.3 2.4.2 3.6.5 1.1.4 2.2.7 3.3 1.2 1.1.4 2.2.9 3.2 1.4 1.1.5 2.2.9 3 2 .1.1.1.3-.1.4h-.1c-1.4.3-2.4-.2-3.6-.5-1.1-.4-2.2-.7-3.3-1.2-1.1-.4-2.2-.9-3.2-1.4-1.1-.5-2.2-.9-3-2-.1 0-.1-.2.2-.4-.1.1-.1.1 0 0zm-17.4-.6c1.5.1 2.4.8 3.4 1.5s2 1.3 3 2.1c1 .7 1.9 1.5 2.9 2.3.9.8 1.9 1.4 2.4 2.8.1.2 0 .3-.2.4h-.1c-1.5-.1-2.4-.8-3.4-1.5s-2-1.3-3-2.1c-1-.7-1.9-1.5-2.9-2.3-.9-.8-1.9-1.4-2.4-2.8-.1-.2 0-.3.2-.4zm11.1 17.7c1.1.1 1.5.7 2 1.2s1 1.1 1.4 1.6c.5.6.9 1.2 1.3 1.8s.9 1.1.7 2.2c0 .2-.2.3-.4.3-1.1-.1-1.5-.7-2-1.2s-1-1.1-1.4-1.6c-.5-.6-.9-1.2-1.3-1.8s-.9-1.1-.7-2.2c0-.2.2-.3.4-.3zm-18.4-.5c1.1.5 1.3 1.4 1.7 2.1.4.8.7 1.6 1.1 2.4.3.8.6 1.6.8 2.5.2.8.6 1.6.2 2.7-.1.2-.3.3-.4.2-1.1-.5-1.3-1.4-1.7-2.1-.4-.8-.7-1.6-1.1-2.4-.3-.8-.6-1.6-.8-2.5-.2-.8-.6-1.6-.2-2.7 0-.2.2-.3.4-.2zm5.7-8.8c1.2.5 1.7 1.5 2.3 2.4s1.2 1.8 1.7 2.7 1 1.9 1.5 2.8c.5 1 1.1 1.9.9 3.2 0 .2-.2.3-.4.3h-.1c-1.2-.5-1.7-1.5-2.3-2.4s-1.2-1.8-1.7-2.7-1-1.9-1.5-2.8c-.5-1-1.1-1.9-.9-3.2.1-.2.3-.4.5-.3zm-9.6-11.2c1.1.7 1.4 1.8 1.8 2.7l1.2 3c.3 1 .7 2 .9 3 .3 1 .7 2 .3 3.3-.1.2-.2.3-.4.2h-.1c-1.1-.7-1.4-1.8-1.8-2.7l-1.2-3c-.3-1-.7-2-.9-3-.3-1-.7-2-.3-3.3.1-.2.3-.3.5-.2 0-.1 0-.1 0 0zm-5.5-1.5c.2 1.4-.4 2.5-.9 3.6l-1.5 3.3c-.5 1.1-1.1 2.2-1.7 3.2-.6 1.1-1.1 2.2-2.3 2.9-.1.1-.3 0-.4-.1v-.1c-.2-1.4.4-2.5.9-3.6l1.5-3.3c.5-1.1 1.1-2.2 1.7-3.2.6-1.1 1.1-2.2 2.3-2.9.1-.1.3 0 .4.1zm-1.2 22.6c.5 1.1.2 2 0 3-.2.9-.4 1.9-.6 2.8s-.5 1.8-.9 2.8c-.3.9-.5 1.9-1.5 2.6-.1.1-.4.1-.5-.1-.5-1.1-.2-2 0-3 .2-.9.4-1.9.6-2.8s.5-1.8.9-2.8c.3-.9.5-1.9 1.5-2.6.2-.1.4-.1.5.1zm-6.8-4.3c0 1.8-.8 3.3-1.4 4.8s-1.3 3-2 4.5-1.5 2.9-2.2 4.4c-.8 1.4-1.4 3-2.9 4.1-.1.1-.3.1-.4 0 0-.1-.1-.1-.1-.2 0-1.8.8-3.3 1.4-4.8s1.3-3 2-4.5 1.5-2.9 2.2-4.4c.8-1.4 1.4-3 2.9-4.1.1-.1.3-.1.4 0s.1.1.1.2zm-5.9-7.5c-.1 1.2-.8 1.9-1.4 2.6s-1.2 1.4-1.9 2.1c-.6.7-1.3 1.3-2 2-.7.6-1.3 1.4-2.5 1.5-.2 0-.3-.1-.4-.3.1-1.2.8-1.9 1.4-2.6s1.2-1.4 1.9-2.1c.6-.7 1.3-1.3 2-2 .7-.6 1.3-1.4 2.5-1.5.3 0 .4.1.4.3zm-5.6-8.9c-1.1 1.4-2.6 1.9-4 2.6s-2.8 1.3-4.2 2c-1.4.6-2.9 1.2-4.3 1.7-1.5.5-2.9 1.2-4.6 1.1-.2 0-.3-.1-.3-.3 0-.1 0-.1.1-.2 1.1-1.4 2.6-1.9 4-2.6s2.8-1.3 4.2-2c1.4-.6 2.9-1.2 4.3-1.7 1.5-.5 2.9-1.2 4.6-1.1.2 0 .3.1.3.3 0 .1 0 .2-.1.2zm16.5-5.5c-.6 1.1-1.6 1.4-2.5 1.8s-1.8.8-2.7 1.1-1.8.6-2.8.9c-.9.3-1.8.7-3 .2-.2-.1-.3-.2-.2-.4v-.1c.6-1.1 1.6-1.4 2.5-1.8s1.8-.8 2.7-1.1 1.8-.6 2.8-.9c.9-.3 1.8-.7 3-.2.2.1.3.3.2.5zm-19.1-6.6c-1.7.4-3.2 0-4.7-.3s-3-.6-4.5-1l-4.5-1.2c-1.5-.4-3-.7-4.3-1.9-.1-.1-.1-.3 0-.4l.1-.1c1.7-.4 3.2 0 4.7.3s3 .6 4.5 1l4.5 1.2c1.5.4 3 .7 4.3 1.9.1.1.1.3 0 .4zm15.5 3.1c-1.1.6-2 .3-2.9.1s-1.8-.3-2.7-.6c-.9-.2-1.8-.5-2.7-.8s-1.8-.5-2.5-1.5c-.1-.2-.1-.4.1-.5 1.1-.6 2-.3 2.9-.1s1.8.3 2.7.6c.9.2 1.8.5 2.7.8s1.8.5 2.5 1.5c.2.1.1.3-.1.5zm-18.5-12.8c-1.2.3-2-.2-2.8-.6s-1.7-.8-2.5-1.2-1.6-.9-2.4-1.4-1.6-.9-2-2c-.1-.2 0-.4.2-.4 1.2-.3 2 .2 2.8.6s1.7.8 2.5 1.2 1.6.9 2.4 1.4 1.6.9 2 2c.1.1 0 .3-.2.4zm24.2 7.6c-1.5-.3-2.4-1.2-3.4-2s-2-1.7-2.9-2.5c-.9-.9-1.9-1.8-2.8-2.7s-1.9-1.7-2.3-3.2c0-.2.1-.3.2-.4h.1c1.5.3 2.4 1.2 3.4 2s2 1.7 2.9 2.5c.9.9 1.9 1.8 2.8 2.7s1.9 1.7 2.3 3.2c0 .2-.1.3-.2.4zm-14.6-10.9c-1.5-.3-2.4-1.2-3.4-2.1-1-.8-1.9-1.7-2.9-2.6-.9-.9-1.8-1.8-2.7-2.8-.9-.9-1.9-1.8-2.2-3.3 0-.2.1-.3.2-.4h.1c1.5.3 2.4 1.2 3.4 2.1 1 .8 1.9 1.7 2.9 2.6.9.9 1.8 1.8 2.7 2.8.9.9 1.9 1.8 2.2 3.3 0 .2-.1.3-.2.4zm7.6-10.4c-1.4-1.1-2.1-2.5-2.8-3.9-.8-1.4-1.5-2.8-2.2-4.2s-1.4-2.9-2-4.3c-.6-1.5-1.4-2.9-1.4-4.6 0-.2.1-.3.3-.3.1 0 .1 0 .2.1 1.4 1.1 2.1 2.5 2.8 3.9.8 1.4 1.5 2.8 2.2 4.2s1.4 2.9 2 4.3c.6 1.5 1.4 2.9 1.4 4.6 0 .2-.1.3-.3.3-.1 0-.2 0-.2-.1zm9.1 14.8c-1.1-1-1.3-2.3-1.7-3.5s-.7-2.4-1-3.6-.5-2.4-.8-3.7c-.2-1.2-.6-2.4-.1-3.8.1-.2.2-.2.4-.2 0 0 .1 0 .1.1 1.1 1 1.3 2.3 1.7 3.5s.7 2.4 1 3.6.5 2.4.8 3.7c.2 1.2.6 2.4.1 3.8-.1.2-.2.2-.4.2 0-.1-.1-.1-.1-.1zm3.8-22c-.8-1.1-.8-2.1-.8-3.2-.1-1.1-.1-2.1-.1-3.2s0-2.1.1-3.2 0-2.1.8-3.2c.1-.1.3-.2.4-.1l.1.1c.8 1.1.8 2.1.8 3.2.1 1.1.1 2.1.1 3.2s0 2.1-.1 3.2 0 2.1-.8 3.2c-.1.1-.3.1-.5 0 .1 0 .1 0 0 0zm-.6 26.2c-.3-1.4.2-2.3.6-3.4.4-1 .8-2.1 1.3-3.1l1.5-3c.5-1 .9-2 2.1-2.7.1-.1.3 0 .4.1v.1c.3 1.4-.2 2.3-.6 3.4-.4 1-.8 2.1-1.3 3.1l-1.5 3c-.5 1-.9 2-2.1 2.7-.1 0-.3 0-.4-.2zm8.5-20.5c-.4-1-.1-1.5.1-2.2.2-.6.5-1.3.8-1.9s.6-1.2 1-1.8.6-1.2 1.6-1.5c.2 0 .4 0 .5.2.4 1 .1 1.5-.1 2.2-.2.6-.5 1.3-.8 1.9s-.6 1.2-1 1.8-.6 1.2-1.6 1.5c-.2.1-.4 0-.5-.2zm1.7 10.1c-.2-1.3.4-2.1.9-3s.9-1.7 1.5-2.6c.5-.8 1.1-1.7 1.7-2.5s1-1.7 2.2-2.1c.2-.1.4 0 .4.2v.1c.2 1.3-.4 2.1-.9 3s-.9 1.7-1.5 2.6c-.5.8-1.1 1.7-1.7 2.5s-1 1.7-2.2 2.1c-.2 0-.3-.1-.4-.3zm10.5-8.5c.3-1.4 1.1-2.2 1.9-3 .8-.9 1.6-1.7 2.4-2.5s1.7-1.6 2.6-2.4 1.7-1.6 3.1-1.9c.2 0 .3.1.4.2v.1c-.3 1.4-1.1 2.2-1.9 3-.8.9-1.6 1.7-2.4 2.5s-1.7 1.6-2.6 2.4-1.7 1.6-3.1 1.9c-.2 0-.3-.1-.4-.2z" fill="#c475bd"/><path d="m230.9 50.7-2.1-4.4" fill="#fff"/><path d="m230.7 50.7c-.6-.2-.7-.5-1-.9-.2-.3-.4-.7-.6-1.1s-.3-.7-.5-1.1c-.1-.4-.3-.7-.1-1.3l.3-.1c.6.2.7.5 1 .9.2.3.4.7.6 1.1s.3.7.5 1.1c.1.4.3.7.1 1.3z" fill="#f2cf75"/><path d="m227.6 49.5 4.4-2.1" fill="#fff"/><path d="m227.6 49.4c.2-.6.5-.7.9-1 .3-.2.7-.4 1.1-.6s.7-.3 1.1-.5c.4-.1.7-.3 1.3-.1l.1.3c-.2.6-.5.7-.9 1-.3.2-.7.4-1.1.6s-.7.3-1.1.5c-.4.1-.7.3-1.3.1z" fill="#f2cf75"/><path d="m4.9 106.7.9-1.7c.1-.3-.2-.6-.5-.5l-1.7 1-1.5-1.4c-.2-.2-.6 0-.6.3l.4 2-1.7.9c-.3.2-.2.6.1.6l1.9.2.4 2.1c.1.3.5.4.7.1l.8-1.9 2.1.3c.3 0 .5-.4.3-.6z" fill="#004e6e"/><path d="m81.9 4.8.7-1.3c.1-.2-.1-.5-.4-.3l-1.3.7-1.1-1c-.2-.2-.5 0-.4.2l.3 1.5-1.3.7c-.2.1-.2.5.1.5l1.4.1.3 1.6c0 .3.4.3.5.1l.6-1.5 1.6.2c.3 0 .4-.3.2-.5z" fill="#f0c443"/><path d="m243.7 57.3.9-1.8c.2-.3-.2-.6-.5-.5l-1.8 1-1.5-1.4c-.3-.2-.6 0-.6.3l.4 2-1.7 1c-.3.2-.2.6.1.7l1.9.2.4 2.1c.1.3.5.4.7.1l.9-2 2.1.3c.3 0 .5-.4.3-.6z" fill="#8e9196"/><path d="m197.5 5.6 1.6-3.3c.3-.6-.3-1.2-.9-.8l-3.2 1.8-2.8-2.5c-.5-.4-1.2 0-1.1.6l.7 3.7-3.2 1.8c-.6.3-.4 1.1.3 1.2l3.5.3.7 3.9c.1.6 1 .7 1.2.1l1.6-3.6 3.9.5c.6.1 1-.7.5-1.1zm-56.4 146.9c0-1.1.2-2.3.3-3.4.3-1.9.7-3.8 1.3-5.7s1.3-3.7 2.1-5.5 1.7-3.5 2.8-5.2c2.1-3.3 4.6-6.4 7.7-8.9l-.2-.2c-3.3 2.2-6.1 5.3-8.3 8.6s-3.9 7-5.1 10.9c-.6 1.9-1.1 3.9-1.4 5.9-.2 1.2-.3 2.4-.4 3.6h1.2z" fill="#004e6e"/><circle cx="248.5" cy="110.9" fill="#d48fc8" r="1.5"/><path d="m128.8 148.9c.8 1.9 2.1 3.7 3.6 5.2.9 1 2 1.9 3 2.8h2.1c-1.4-1.2-2.9-2.3-4.1-3.6-1.4-1.4-2.6-3.1-3.4-4.8-.8-1.8-1.3-3.7-1.6-5.6s-.5-3.9-.5-5.8c0-2 .1-3.9.4-5.9.2-1.9.6-3.9 1.2-5.8 1.1-3.8 2.7-7.5 5.1-10.8l-.2-.2c-2.7 3.1-4.6 6.9-5.8 10.7-1.2 3.9-1.8 7.9-1.8 11.9 0 2 .2 4 .5 6 .2 2 .7 4 1.5 5.9zm-16.2-14.1c1.4 3.1 2.3 6.4 2.9 9.7.3 1.7.5 3.4.6 5.1s.1 3.4-.1 5.1c-.1.7-.2 1.3-.3 2l1.2.3c.1-.7.3-1.5.3-2.2.2-1.8.2-3.5 0-5.3-.1-1.7-.4-3.5-.7-5.2-.7-3.4-1.6-6.8-3.2-10-.8-1.6-1.6-3.1-2.7-4.5s-2.3-2.7-3.7-3.6l-.2.2c1.3 1.1 2.4 2.4 3.3 3.8 1.2 1.5 2 3 2.6 4.6z" fill="#004e6e"/><path d="m95.3 146.2-3.6-7.6" fill="#fff"/><path d="m95 146.3c-1-.3-1.3-.9-1.6-1.5-.4-.6-.7-1.2-1-1.8s-.6-1.3-.8-1.9c-.2-.7-.6-1.3-.1-2.2l.5-.2c1 .3 1.3.9 1.6 1.5.4.6.7 1.2 1 1.8s.6 1.3.8 1.9c.2.7.6 1.3.1 2.2z" fill="#f2cf75"/><path d="m89.7 144.2 7.6-3.6" fill="#fff"/><path d="m89.6 143.9c.3-1 .9-1.3 1.5-1.6.6-.4 1.2-.7 1.8-1s1.3-.6 1.9-.8c.7-.2 1.3-.6 2.2-.1l.2.5c-.3 1-.9 1.3-1.5 1.6-.6.4-1.2.7-1.8 1s-1.3.6-1.9.8c-.7.2-1.3.6-2.2.1z" fill="#f2cf75"/><circle cx="10.2" cy="29" fill="#d48fc8" r="1.5"/><path d="m31 110.5c.3-1.3 1.2-1.8 2-2.5s1.6-1.3 2.4-2c.8-.6 1.7-1.2 2.5-1.8.9-.6 1.7-1.2 3-1.2.2 0 .3.1.3.3v.1c-.3 1.3-1.2 1.8-2 2.5s-1.6 1.3-2.4 2c-.8.6-1.7 1.2-2.5 1.8-.9.6-1.7 1.2-3 1.2-.2 0-.3-.1-.3-.4 0 .1 0 .1 0 0z" fill="#3895ba"/></svg>
