<svg viewBox="0 0 1431.2 1194.12" xmlns="http://www.w3.org/2000/svg"><g transform="translate(-1828.02 -1320.81)"><path d="m3053.1 2514.93a48.95 48.95 0 0 1 -37.43-80.45c127.89-152.09 175.31-357.42 126.85-549.24-40.41-159.95-140.69-294.58-282.34-379.09s-307.65-108.74-467.69-68.35-294.56 140.65-379.05 282.3-108.81 307.76-68.41 467.66a610.86 610.86 0 0 0 118.72 237.24 48.95 48.95 0 1 1 -76 61.72 708.09 708.09 0 0 1 -137.66-275c-46.8-185.25-18.66-377.66 79.25-541.79s253.86-280.26 439.16-327.07 377.81-18.66 541.81 79.2 280.29 253.94 327.12 439.2c56.15 222.26 1.26 460.11-146.84 636.22a48.85 48.85 0 0 1 -37.49 17.45z" fill="#f6f7f7"/><path d="m2025.79 2504.8a48.84 48.84 0 0 1 -38-18.09 708.09 708.09 0 0 1 -137.66-275c-46.8-185.25-18.66-377.66 79.25-541.79s253.86-280.26 439.16-327.07 377.81-18.66 541.81 79.2 280.25 253.95 327.08 439.21a713.38 713.38 0 0 1 -9.7 384.61 48.95 48.95 0 0 1 -93.56-28.8 615.38 615.38 0 0 0 8.34-331.83c-40.41-159.94-140.69-294.57-282.34-379.08s-307.65-108.74-467.69-68.35-294.56 140.65-379.05 282.3-108.81 307.76-68.41 467.66a610.86 610.86 0 0 0 118.73 237.23 48.95 48.95 0 0 1 -38 79.81z" fill="#3895ba"/></g></svg>
