<?xml version="1.0" encoding="utf-8"?>
<!-- Generator: Adobe Illustrator 19.2.1, SVG Export Plug-In . SVG Version: 6.00 Build 0)  -->
<svg version="1.1" id="Layer_1" xmlns="http://www.w3.org/2000/svg" xmlns:xlink="http://www.w3.org/1999/xlink" x="0px" y="0px"
	 viewBox="0 0 300 250" style="enable-background:new 0 0 300 250;" xml:space="preserve">
<style type="text/css">
	.st0{fill:none;}
	.st1{fill:#E1E2E2;}
	.st2{fill:#224B68;}
	.st3{fill:#FFFFFF;}
	.st4{fill:#CCCED0;}
	.st5{fill:#DEF2FA;}
	.st6{fill:#7093AC;}
</style>
<g id="google-adwords">
	<path class="st0" d="M39,67.4h223.4v154.7H39V67.4z"/>
	<path class="st1" d="M63.2,223.1h104.8V92.3H63.2"/>
	<path class="st2" d="M118.8,174.3H90.7c0,15.5,12.5,28.1,28.1,28.1c15.5,0,28.1-12.6,28.1-28.1s-12.6-28.1-28.1-28.1h-0.6
		L118.8,174.3z"/>
	<path class="st3" d="M110.6,167.4v-28.1c-15.5,0.1-28,12.6-28.1,28.1H110.6z"/>
	<path class="st3" d="M39.9,224.5L39.6,58.7"/>
	<path class="st4" d="M40,224.5c-1.4-13.9-1.3-27.6-1.4-41.5l-0.3-41.5l0.1-41.5c0.1-13.9-0.1-27.6,1.2-41.5h0.8
		c1.4,13.9,1.3,27.6,1.4,41.5l0.3,41.5L42,183.1c-0.1,13.9,0.1,27.6-1.2,41.5H40z M263.1,66.6c0.4,12.9,0.6,26,0.8,39s0.2,26,0.3,39
		l0.2,78v1.7h-1.7l-47.9,0.1l-47.9-0.1l-47.9-0.1C103,224,87,223.9,71,223v-0.8c16-0.9,31.9-1.1,47.9-1.2l47.9-0.1l47.9-0.1
		l47.9,0.1l-1.8,1.7l0.2-78c0.1-13,0.1-26,0.4-39c0.3-13,0.4-26,0.8-39L263.1,66.6z"/>
	<path class="st4" d="M38.2,71.6v-26c0-7.4,6.1-13.2,13.3-13.2h198.3c7.4,0,13.3,5.9,13.3,13.2v26H38.2z"/>
	<path class="st5" d="M273.7,66.6H26.4"/>
	<g>
		<path class="st4" d="M148.5,106.6H81v15.8h69.1v-13.8C150.2,107.5,149.5,106.6,148.5,106.6z"/>
		<rect x="181.5" y="161.4" class="st4" width="56.6" height="43.5"/>
	</g>
	<path class="st6" d="M180.7,92.1v55.2h57.4V92.1H180.7z M206.8,137.7h-14.1v-13.1c0-0.4,0.5-0.8,1.1-0.8h12.9L206.8,137.7z
		 M213.1,137.7v-27.5c0-0.2,0.2-0.4,0.4-0.4h13.6v27.9H213.1z"/>
	<path class="st2" d="M273.3,71c-5.2,0.4-10.3,0.7-15.4,0.9l-7.7,0.3l-3.8,0.1l-3.8,0.1c-5.2,0.1-10.3,0.1-15.4,0.2l-15.4,0.1
		l-15.6,0.1h-15.4L150.1,73l-30.9-0.1h-15.5l-15.4-0.1l-15.4-0.1c-5.2,0-10.3-0.1-15.4-0.2l-3.8-0.1l-3.8-0.1l-7.7-0.3
		C37,71.7,31.9,71.4,26.8,71v-1c5.2-0.4,10.3-0.7,15.4-0.9l7.7-0.3l3.8-0.1l3.8-0.1c5.2-0.1,10.3-0.1,15.4-0.2l15.4-0.1l15.4-0.1
		H119l30.8-0.1l30.8,0.1h15.4l15.4,0.1l15.4,0.1c5.2,0,10.3,0.1,15.4,0.2l3.8,0.1l3.8,0.1l7.7,0.3c5.2,0.2,10.3,0.5,15.4,0.9v1
		L273.3,71z"/>
	<path class="st3" d="M62,52c0,1.8-1.5,3.3-3.3,3.3s-3.3-1.5-3.3-3.3c0-1.8,1.5-3.3,3.3-3.3C60.5,48.8,62,50.2,62,52"/>
	<path class="st1" d="M79.1,52c0,1.8-1.5,3.3-3.3,3.3c-1.8,0-3.3-1.5-3.3-3.3c0-1.8,1.5-3.3,3.3-3.3C77.6,48.8,79.1,50.2,79.1,52
		 M97.5,52c0,1.8-1.5,3.3-3.3,3.3c-1.8,0-3.3-1.5-3.3-3.3c0-1.8,1.5-3.3,3.3-3.3c0,0,0,0,0,0C96.1,48.8,97.5,50.2,97.5,52"/>
</g>
</svg>
