<svg viewBox="0 0 1600 1168" xmlns="http://www.w3.org/2000/svg"><path d="m207.68 272h1191.1v824.61h-1191.1z" fill="#fff"/><path d="m337 1102h558.9v-697.44h-558.9" fill="#e1e2e2"/><path d="m633.46 841.66h-149.83c0 82.46 66.83 149.83 149.83 149.83a149.83 149.83 0 0 0 0-299.66h-3.23z" fill="#00b328"/><path d="m589.81 805v-149.82a150.91 150.91 0 0 0 -149.81 149.82z" fill="#fff"/><path d="m431.89 565.17v-84.08h360c4.85 0 8.62 4.86 8.62 10.78v73.3z" fill="#ccced0"/><path d="m212.53 1109.52-1.61-883.89" fill="#fff"/><path d="m213.07 1109.52c-7.54-73.84-7-147.13-7.54-221l-1.62-221 .54-221c.54-73.84-.54-147.13 6.47-221h4.31c7.54 73.84 7 147.13 7.54 221l1.62 221-.54 221c-.54 73.84.54 147.13-6.47 221zm1189.49-841.85c2.15 69 3.23 138.51 4.31 208s1.08 138.52 1.62 208l1.07 415.54v9.16h-9.16l-255.47.54-255.46-.54-255.47-.47c-85.16-1.07-170.31-1.61-255.47-6.46v-4.31c85.16-4.86 170.31-5.93 255.47-6.47l255.47-.54 255.46-.54 255.47.54-9.7 9.16 1.08-415.54c.54-69.52.54-138.51 2.15-208s2.16-138.51 4.32-208z" fill="#ccced0"/><path d="m203.91 294.61v-138.51c0-39.34 32.34-70.6 71.14-70.6h1056.95c39.35 0 71.15 31.26 71.15 70.6v138.51z" fill="#ccced0"/><path d="m1459.15 267.67h-1318.3" fill="#def2fa"/><path d="m967.62 773.21h301.81v231.79h-301.81z" fill="#ccced0"/><path d="m963.3 403.48v294.28h306.13v-294.28zm139.06 243.08h-74.92v-70.07c0-2.16 2.7-4.31 5.93-4.31h69zm33.41 0v-146.56a2.32 2.32 0 0 1 2.16-2.16h72.76v148.72z" fill="#00be28"/><path d="m1457 291.38c-27.49 2.16-55 3.77-81.92 4.85l-41 1.62-20.48.54-20.48.54c-27.49.54-55 .54-81.92 1.07l-81.93.54-83 .54h-81.89l-164.38.54-164.92-.54h-82.46l-81.92-.54-81.93-.54c-27.48 0-55-.53-81.92-1.07l-20.48-.54-20.48-.54-41-1.62c-27.49-1.08-55-2.69-81.92-4.85v-5.38c27.48-2.15 55-3.77 81.92-4.85l41-1.62 20.48-.54 20.48-.53c27.49-.54 55-.54 81.92-1.08l81.93-.54 81.92-.54h81.92l164.38-.54 164.38.54h81.93l81.92.54 81.92.54c27.49 0 55 .54 81.92 1.08l20.48.53 20.48.54 41 1.62c27.49 1.08 55 2.7 81.93 4.85v5.39z" fill="#204a69"/><path d="m330.57 190.06a17.79 17.79 0 1 1 -17.79-17.79c9.7.54 17.79 8.08 17.79 17.79" fill="#fff"/><path d="m421.65 190.06a17.79 17.79 0 1 1 -17.79-17.79c9.71.54 17.79 8.08 17.79 17.79m98.09 0a17.79 17.79 0 1 1 -17.74-17.79c10.24.54 17.78 8.08 17.78 17.79" fill="#e1e2e2"/><path d="m0 0h1600v1168h-1600z" fill="none"/></svg>