<svg xmlns="http://www.w3.org/2000/svg" viewBox="0 0 1600 1168"><defs><style>.cls-1{fill:#fff}.cls-2{fill:#E1E2E2}.cls-3{fill:#016087}.cls-4{fill:#CCCED0}.cls-5{fill:#CCCED0}.cls-6{fill:#def2fa}.cls-7{fill:#016087}.cls-8{fill:#204A69}.cls-9{fill:#E1E2E2}.cls-10{fill:none}</style></defs><title>google-adwords</title><g id="google-adwords"><path class="cls-1" d="M207.68 272h1191.1v824.61H207.68z"/><path class="cls-2" d="M337 1102h558.9V404.56H337"/><path class="cls-3" d="M633.46 841.66H483.63c0 82.46 66.83 149.83 149.83 149.83a149.83 149.83 0 0 0 0-299.66h-3.23z"/><path class="cls-1" d="M589.81 805V655.18A150.91 150.91 0 0 0 440 805z"/><path class="cls-4" d="M431.89 565.17v-84.08h360c4.85 0 8.62 4.86 8.62 10.78v73.3z"/><path class="cls-1" d="M212.53 1109.52l-1.61-883.89"/><path class="cls-5" d="M213.07 1109.52c-7.54-73.84-7-147.13-7.54-221l-1.62-221 .54-221c.54-73.84-.54-147.13 6.47-221h4.31c7.54 73.84 7 147.13 7.54 221l1.62 221-.54 221c-.54 73.84.54 147.13-6.47 221zm1189.49-841.85c2.15 69 3.23 138.51 4.31 208s1.08 138.52 1.62 208l1.07 415.54v9.16h-9.16l-255.47.54-255.46-.54-255.47-.47c-85.16-1.07-170.31-1.61-255.47-6.46v-4.31c85.16-4.86 170.31-5.93 255.47-6.47l255.47-.54 255.46-.54 255.47.54-9.7 9.16 1.08-415.54c.54-69.52.54-138.51 2.15-208s2.16-138.51 4.32-208z"/><path class="cls-4" d="M203.91 294.61V156.1c0-39.34 32.34-70.6 71.14-70.6H1332c39.35 0 71.15 31.26 71.15 70.6v138.51z"/><path class="cls-6" d="M1459.15 267.67H140.85"/><path class="cls-4" d="M967.62 773.21h301.81V1005H967.62z"/><path class="cls-7" d="M963.3 403.48v294.28h306.13V403.48zm139.06 243.08h-74.92v-70.07c0-2.16 2.7-4.31 5.93-4.31h69zm33.41 0V500a2.32 2.32 0 0 1 2.16-2.16h72.76v148.72z"/><path class="cls-8" d="M1457 291.38c-27.49 2.16-55 3.77-81.92 4.85l-41 1.62-20.48.54-20.48.54c-27.49.54-55 .54-81.92 1.07l-81.93.54-83 .54h-81.89l-164.38.54-164.92-.54h-82.46l-81.92-.54-81.93-.54c-27.48 0-55-.53-81.92-1.07l-20.48-.54-20.48-.54-41-1.62c-27.49-1.08-55-2.69-81.92-4.85V286c27.48-2.15 55-3.77 81.92-4.85l41-1.62 20.48-.54 20.48-.53c27.49-.54 55-.54 81.92-1.08l81.93-.54 81.92-.54h81.92l164.38-.54 164.38.54h81.93l81.92.54 81.92.54c27.49 0 55 .54 81.92 1.08l20.48.53 20.48.54 41 1.62c27.49 1.08 55 2.7 81.93 4.85v5.39z"/><path class="cls-1" d="M330.57 190.06a17.79 17.79 0 1 1-17.79-17.79c9.7.54 17.79 8.08 17.79 17.79"/><path class="cls-9" d="M421.65 190.06a17.79 17.79 0 1 1-17.79-17.79c9.71.54 17.79 8.08 17.79 17.79m98.09 0A17.79 17.79 0 1 1 502 172.27c10.24.54 17.78 8.08 17.78 17.79"/></g><g id="clear_rectangle" data-name="clear rectangle"><path id="Layer_4" data-name="Layer 4" class="cls-10" d="M0 0h1600v1168H0z"/></g></svg>