<svg height="123" viewBox="0 0 175 123" width="175" xmlns="http://www.w3.org/2000/svg" xmlns:xlink="http://www.w3.org/1999/xlink"><mask id="a" fill="#fff"><path d="m0 0h46v30h-46z" fill="#fff" fill-rule="evenodd"/></mask><g fill="none" fill-rule="evenodd"><g transform="translate(1 4)"><path d="m156.1572 109.478h-140.858v-101.568c0-4.005 3.247-7.251 7.252-7.251h133.606z" fill="#bbc9d5"/><path d="m27.7036 97.6499v-68.743h117.193v68.743h-110.857" fill="#e1e2e2"/><path d="m27.7036 28.561v-16.098h117.193v16.098h-110.857" fill="#6f93ad"/><path d="m135.9653 45.5522v52.098h-35.174v-57.877h35.174" fill="#fff"/><path d="m86.453 97.877h-49.453v-57.877h57.461v57.877" fill="#fff"/><path d="m129.0908 76.5971c-5.87 0-6.649 2.536-7.907 5.358-1.001 2.247-4.515 3.832-8.333 4.594-3.894.777-5.191 3.804-5.191 6.122h21.617z" fill="#bbc9d5"/><path d="m164.8261 118.1264h-159.58c-2.772 0-5.018-2.247-5.018-5.019v-4.279h170.825v3.071c0 3.439-2.788 6.227-6.227 6.227" fill="#46799a"/><path d="m96.9213 113.477h-22.562c-2.14 0-3.874-1.734-3.874-3.874v-.774h30.31v.774c0 2.14-1.734 3.874-3.874 3.874" fill="#204a69"/><path d="m148.871 28.811c-10.393.866-20.79.864-31.186.969l-31.19.308-31.191.038c-10.397.01-20.793.129-31.195-.623l-.003-.5c10.393-.867 20.79-.864 31.186-.97l31.19-.307 31.191-.039c10.397-.01 20.794-.126 31.195.624z" fill="#204a69"/><g transform="translate(107 49)"><g fill="#bbc9d5"><path d="m.826 14.185h5.189v-4.191h-5.189z"/><path d="m8.644 12.469h5.189v-6.475h-5.189z"/><path d="m16.463 9.994h5.189v-9.768h-5.189z"/></g><path d="m.826 18.335h5.189v-3.15h-5.189z" fill="#00be28"/><path d="m8.644 18.335h5.189v-4.866h-5.189z" fill="#00be28"/><path d="m16.463 18.335h5.189v-7.342h-5.189z" fill="#00be28"/></g></g><path d="m44 61.9250011h46v-12.0861339h-46z" fill="#bbc9d5"/><path d="m37.7805459 30h-37.7805459v-30h46v21.0092005c0 4.9639826-3.6804693 8.9907995-8.2194541 8.9907995" fill="#84a5bc" mask="url(#a)" opacity=".499888" transform="translate(44 67)"/></g></svg>