<svg viewBox="0 0 300 250" xmlns="http://www.w3.org/2000/svg"><path d="m39 67.4h223.4v154.7h-223.4z" fill="none"/><path d="m63.2 223.1h104.8v-130.8h-104.8" fill="#dcdcde"/><path d="m118.8 174.3h-28.1c0 15.5 12.5 28.1 28.1 28.1 15.5 0 28.1-12.6 28.1-28.1s-12.6-28.1-28.1-28.1h-.6z" fill="#004e6e"/><path d="m110.6 167.4v-28.1c-15.5.1-28 12.6-28.1 28.1zm-70.7 57.1-.3-165.8" fill="#fff"/><path d="m40 224.5c-1.4-13.9-1.3-27.6-1.4-41.5l-.3-41.5.1-41.5c.1-13.9-.1-27.6 1.2-41.5h.8c1.4 13.9 1.3 27.6 1.4 41.5l.3 41.5-.1 41.6c-.1 13.9.1 27.6-1.2 41.5h-.8zm223.1-157.9c.4 12.9.6 26 .8 39s.2 26 .3 39l.2 78v1.7h-1.7l-47.9.1-47.9-.1-47.9-.1c-16-.2-32-.3-48-1.2v-.8c16-.9 31.9-1.1 47.9-1.2l47.9-.1 47.9-.1 47.9.1-1.8 1.7.2-78c.1-13 .1-26 .4-39s.4-26 .8-39z" fill="#c3c4c7"/><path d="m38.2 71.6v-26c0-7.4 6.1-13.2 13.3-13.2h198.3c7.4 0 13.3 5.9 13.3 13.2v26z" fill="#c3c4c7"/><path d="m273.7 66.6h-247.3" fill="#e6f1f5"/><path d="m148.5 106.6h-67.5v15.8h69.1v-13.8c.1-1.1-.6-2-1.6-2zm33 54.8h56.6v43.5h-56.6z" fill="#c3c4c7"/><path d="m180.7 92.1v55.2h57.4v-55.2zm26.1 45.6h-14.1v-13.1c0-.4.5-.8 1.1-.8h12.9zm6.3 0v-27.5c0-.2.2-.4.4-.4h13.6v27.9z" fill="#3895ba"/><path d="m273.3 71c-5.2.4-10.3.7-15.4.9l-7.7.3-3.8.1-3.8.1c-5.2.1-10.3.1-15.4.2l-15.4.1-15.6.1h-15.4l-30.7.2-30.9-.1h-15.5l-15.4-.1-15.4-.1c-5.2 0-10.3-.1-15.4-.2l-3.8-.1-3.8-.1-7.7-.3c-5.2-.3-10.3-.6-15.4-1v-1c5.2-.4 10.3-.7 15.4-.9l7.7-.3 3.8-.1 3.8-.1c5.2-.1 10.3-.1 15.4-.2l15.4-.1 15.4-.1h15.3l30.8-.1 30.8.1h15.4l15.4.1 15.4.1c5.2 0 10.3.1 15.4.2l3.8.1 3.8.1 7.7.3c5.2.2 10.3.5 15.4.9v1z" fill="#004e6e"/><path d="m62 52c0 1.8-1.5 3.3-3.3 3.3s-3.3-1.5-3.3-3.3 1.5-3.3 3.3-3.3c1.8.1 3.3 1.5 3.3 3.3" fill="#fff"/><path d="m79.1 52c0 1.8-1.5 3.3-3.3 3.3s-3.3-1.5-3.3-3.3 1.5-3.3 3.3-3.3c1.8.1 3.3 1.5 3.3 3.3m18.4 0c0 1.8-1.5 3.3-3.3 3.3s-3.3-1.5-3.3-3.3 1.5-3.3 3.3-3.3c1.9.1 3.3 1.5 3.3 3.3" fill="#dcdcde"/></svg>
