<svg id="Layer_1" xmlns="http://www.w3.org/2000/svg" viewBox="0 0 300 250"><style>.st1{fill:#e1e2e2}.st2{fill:#224b68}.st3{fill:#fff}.st4{fill:#ccced0}</style><g id="google-adwords"><path d="M39 67.4h223.4v154.7H39V67.4z" fill="none"/><path class="st1" d="M63.2 223.1H168V92.3H63.2"/><path class="st2" d="M118.8 174.3H90.7c0 15.5 12.5 28.1 28.1 28.1 15.5 0 28.1-12.6 28.1-28.1s-12.6-28.1-28.1-28.1h-.6l.6 28.1z"/><path class="st3" d="M110.6 167.4v-28.1c-15.5.1-28 12.6-28.1 28.1h28.1zM39.9 224.5l-.3-165.8"/><path class="st4" d="M40 224.5c-1.4-13.9-1.3-27.6-1.4-41.5l-.3-41.5.1-41.5c.1-13.9-.1-27.6 1.2-41.5h.8c1.4 13.9 1.3 27.6 1.4 41.5l.3 41.5-.1 41.6c-.1 13.9.1 27.6-1.2 41.5H40zM263.1 66.6c.4 12.9.6 26 .8 39s.2 26 .3 39l.2 78v1.7h-1.7l-47.9.1-47.9-.1-47.9-.1c-16-.2-32-.3-48-1.2v-.8c16-.9 31.9-1.1 47.9-1.2l47.9-.1 47.9-.1 47.9.1-1.8 1.7.2-78c.1-13 .1-26 .4-39 .3-13 .4-26 .8-39h.9z"/><path class="st4" d="M38.2 71.6v-26c0-7.4 6.1-13.2 13.3-13.2h198.3c7.4 0 13.3 5.9 13.3 13.2v26H38.2z"/><path d="M273.7 66.6H26.4" fill="#def2fa"/><path class="st4" d="M148.5 106.6H81v15.8h69.1v-13.8c.1-1.1-.6-2-1.6-2zM181.5 161.4h56.6v43.5h-56.6z"/><path d="M180.7 92.1v55.2h57.4V92.1h-57.4zm26.1 45.6h-14.1v-13.1c0-.4.5-.8 1.1-.8h12.9l.1 13.9zm6.3 0v-27.5c0-.2.2-.4.4-.4h13.6v27.9h-14z" fill="#7093ac"/><path class="st2" d="M273.3 71c-5.2.4-10.3.7-15.4.9l-7.7.3-3.8.1-3.8.1c-5.2.1-10.3.1-15.4.2l-15.4.1-15.6.1h-15.4l-30.7.2-30.9-.1h-15.5l-15.4-.1-15.4-.1c-5.2 0-10.3-.1-15.4-.2l-3.8-.1-3.8-.1-7.7-.3c-5.2-.3-10.3-.6-15.4-1v-1c5.2-.4 10.3-.7 15.4-.9l7.7-.3 3.8-.1 3.8-.1c5.2-.1 10.3-.1 15.4-.2l15.4-.1 15.4-.1H119l30.8-.1 30.8.1H196l15.4.1 15.4.1c5.2 0 10.3.1 15.4.2l3.8.1 3.8.1 7.7.3c5.2.2 10.3.5 15.4.9v1h.4z"/><path class="st3" d="M62 52c0 1.8-1.5 3.3-3.3 3.3s-3.3-1.5-3.3-3.3c0-1.8 1.5-3.3 3.3-3.3 1.8.1 3.3 1.5 3.3 3.3"/><path class="st1" d="M79.1 52c0 1.8-1.5 3.3-3.3 3.3-1.8 0-3.3-1.5-3.3-3.3 0-1.8 1.5-3.3 3.3-3.3 1.8.1 3.3 1.5 3.3 3.3m18.4 0c0 1.8-1.5 3.3-3.3 3.3-1.8 0-3.3-1.5-3.3-3.3 0-1.8 1.5-3.3 3.3-3.3 1.9.1 3.3 1.5 3.3 3.3"/></g></svg>