<svg xmlns="http://www.w3.org/2000/svg" xmlns:xlink="http://www.w3.org/1999/xlink" width="314" height="304" viewBox="0 0 314 304"><defs><path id="b" d="M151.485 45l7-7 7 7H298a4 4 0 0 1 4 4v239a4 4 0 0 1-4 4H16a4 4 0 0 1-4-4V49a4 4 0 0 1 4-4h135.485z"/><filter id="a" width="112.4%" height="114.2%" x="-6.2%" y="-7.1%" filterUnits="objectBoundingBox"><feOffset in="SourceAlpha" result="shadowOffsetOuter1"/><feGaussianBlur in="shadowOffsetOuter1" result="shadowBlurOuter1" stdDeviation="6"/><feComposite in="shadowBlurOuter1" in2="SourceAlpha" operator="out" result="shadowBlurOuter1"/><feColorMatrix in="shadowBlurOuter1" values="0 0 0 0 0 0 0 0 0 0 0 0 0 0 0 0 0 0 0.15 0"/></filter><path id="c" d="M13 14v7h-2v-7h-1v-.022a5.5 5.5 0 1 1 0-10.955V3h9v2h-2v16h-2V5h-2v9z"/><path id="e" d="M7 10l5 5 5-5"/><path id="g" d="M12 4c4.411 0 8 3.589 8 8s-3.589 8-8 8-8-3.589-8-8 3.589-8 8-8zm0-2C6.477 2 2 6.477 2 12s4.477 10 10 10 10-4.477 10-10S17.523 2 12 2zm5 9h-4V7h-2v4H7v2h4v4h2v-4h4v-2z"/></defs><g fill="none" fill-rule="evenodd"><use fill="#101517" filter="url(#a)" xlink:href="#b"/><path fill="#FFF" stroke="#c3c4c7" stroke-linejoin="square" d="M158.485 38.707l-6.793 6.793H16a3.5 3.5 0 0 0-3.5 3.5v239a3.5 3.5 0 0 0 3.5 3.5h282a3.5 3.5 0 0 0 3.5-3.5V49a3.5 3.5 0 0 0-3.5-3.5H165.278l-6.793-6.793z"/><rect width="259" height="28" x="27" y="60" stroke="#399ce3" stroke-width="2" rx="4"/><path fill="#c3c4c7" d="M26 101h262v1H26z"/><path fill="#a7aaad" d="M26 113h71v12H26z"/><path fill="#f6f7f7" d="M36 68h71v12H36zM46 184h40v12H46zM135 184h40v12h-40zM227 184h40v12h-40z"/><rect width="81" height="44" x="26" y="133" rx="4"/><rect width="81" height="44" x="207" y="133" rx="4"/><rect width="81" height="44" x="116" y="133" rx="4"/><g transform="translate(55 143)"><path d="M0 0h24v24H0z"/><mask id="d" fill="#fff"><use xlink:href="#c"/></mask><use fill="#1d2327" xlink:href="#c"/><g fill="#50575e" mask="url(#d)"><path d="M0 0h24v24H0z"/></g></g><path fill="#f6f7f7" d="M46 262h40v12H46zM135 262h40v12h-40zM227 262h40v12h-40z"/><rect width="81" height="44" x="26" y="211" rx="4"/><rect width="81" height="44" x="207" y="211" rx="4"/><rect width="81" height="44" x="116" y="211" rx="4"/><g transform="rotate(180 146.5 65.5)"><path d="M0 0h24v24H0z"/><mask id="f" fill="#fff"><use xlink:href="#e"/></mask><use fill="#1d2327" xlink:href="#e"/><g fill="#50575e" mask="url(#f)"><path d="M0 0h24v24H0z"/></g></g><path d="M54 221h24v24H54z"/><g fill="#50575e" fill-rule="nonzero"><path d="M75 225H57c-1.1 0-2 .9-2 2v12c0 1.1.9 2 2 2h18c1.1 0 2-.9 2-2v-12c0-1.1-.9-2-2-2zm0 14H57v-12h18v12z"/><path d="M68.5 232l-3.5 4.51-2.5-3.01L59 238h14z"/></g><path d="M235 221h24v24h-24z"/><path fill="#50575e" fill-rule="nonzero" d="M244.17 227l2 2H255v10h-16v-12h5.17zm.83-2h-6c-1.1 0-1.99.9-1.99 2l-.01 12c0 1.1.9 2 2 2h16c1.1 0 2-.9 2-2v-10c0-1.1-.9-2-2-2h-8l-2-2z"/><path d="M145 221h24v24h-24z"/><path fill="#50575e" fill-rule="nonzero" d="M165 224h-15c-1.1 0-2 .9-2 2v14c0 1.1.9 2 2 2h15c1.1 0 2-.9 2-2v-14c0-1.1-.9-2-2-2zm0 2v3h-15v-3h15zm-5 14h-5v-9h5v9zm-10-9h3v9h-3v-9zm12 9v-9h3v9h-3z"/><g><path d="M235 143h24v24h-24z"/><path fill="#50575e" fill-rule="nonzero" d="M237.5 147v3h5v12h3v-12h5v-3h-13zm19 5h-9v3h3v7h3v-7h3v-3z"/></g><g><path d="M145 143h24v24h-24z"/><path fill="#50575e" fill-rule="nonzero" d="M164 146h-14c-1.1 0-2 .9-2 2v14c0 1.1.9 2 2 2h14c1.1 0 2-.9 2-2v-14c0-1.1-.9-2-2-2zm0 16h-14v-14h14v14zm-5.04-6.71l-2.75 3.54-1.96-2.36-2.75 3.53h11l-3.54-4.71z"/></g><g transform="translate(145 8)"><mask id="h" fill="#fff"><use xlink:href="#g"/></mask><g fill="#399ce3" mask="url(#h)"><path d="M0 0h24v24H0z"/></g></g></g></svg>
