<svg xmlns="http://www.w3.org/2000/svg" xmlns:xlink="http://www.w3.org/1999/xlink" width="206" height="189"><defs><path id="a" d="M8 2.667A5.34 5.34 0 0113.333 8 5.34 5.34 0 018 13.333 5.34 5.34 0 012.667 8 5.34 5.34 0 018 2.667zm0-1.334a6.667 6.667 0 100 13.333A6.667 6.667 0 008 1.333zm3.333 6H8.667V4.667H7.333v2.666H4.667v1.334h2.666v2.666h1.334V8.667h2.666V7.333z"/><path id="d" d="M87.55 5.382L91.94.993l4.389 4.389H178a4 4 0 014 4V156a4 4 0 01-4 4H4a4 4 0 01-4-4V9.382a4 4 0 014-4h83.55z"/><path id="e" d="M8.125 8.75v4.375h-1.25V8.75H6.25v-.014a3.437 3.437 0 110-6.847v-.014h5.625v1.25h-1.25v10h-1.25v-10h-1.25V8.75z"/><path id="g" d="M4.375 6.25L7.5 9.375l3.125-3.125"/><filter id="c" width="119.8%" height="122.6%" x="-9.9%" y="-11.3%" filterUnits="objectBoundingBox"><feOffset in="SourceAlpha" result="shadowOffsetOuter1"/><feGaussianBlur in="shadowOffsetOuter1" result="shadowBlurOuter1" stdDeviation="6"/><feComposite in="shadowBlurOuter1" in2="SourceAlpha" operator="out" result="shadowBlurOuter1"/><feColorMatrix in="shadowBlurOuter1" values="0 0 0 0 0 0 0 0 0 0 0 0 0 0 0 0 0 0 0.15 0"/></filter></defs><g fill="none" fill-rule="evenodd"><g transform="translate(95 -1)"><mask id="b" fill="#fff"><use xlink:href="#a"/></mask><g fill="#399ce3" mask="url(#b)"><path d="M0 0h16v16H0z"/></g></g><g transform="translate(12 17)"><use fill="#101517" filter="url(#c)" xlink:href="#d"/><path fill="#FFF" stroke="#c3c4c7" stroke-linejoin="square" d="M91.939 1.7l-4.182 4.182H4a3.5 3.5 0 00-3.5 3.5V156a3.5 3.5 0 003.5 3.5h174a3.5 3.5 0 003.5-3.5V9.382a3.5 3.5 0 00-3.5-3.5H96.12L91.94 1.7z"/><rect width="162" height="17" x="10" y="15" stroke="#399ce3" stroke-width="2" rx="4"/><path fill="#c3c4c7" d="M9 40h164v1H9z"/><path fill="#a7aaad" d="M9 48h45v8H9z"/><path fill="#f6f7f7" d="M15 20h45v8H15zm6 72h25v8H21zm56 0h25v8H77zm58 0h25v8h-25z"/><rect width="51" height="28" x="9" y="60" rx="4"/><rect width="51" height="28" x="122" y="60" rx="4"/><rect width="51" height="28" x="65" y="60" rx="4"/><g transform="translate(27 67)"><path d="M0 0h15v15H0z"/><mask id="f" fill="#fff"><use xlink:href="#e"/></mask><use fill="#1d2327" xlink:href="#e"/><g fill="#50575e" mask="url(#f)"><path d="M0 0h15v15H0z"/></g></g><path fill="#f6f7f7" d="M21 141h25v8H21zm56 0h25v8H77zm58 0h25v8h-25z"/><rect width="51" height="28" x="9" y="109" rx="4"/><rect width="51" height="28" x="122" y="109" rx="4"/><rect width="51" height="28" x="65" y="109" rx="4"/><g transform="rotate(180 88 29.5)"><path d="M0 0h15v15H0z"/><mask id="h" fill="#fff"><use xlink:href="#g"/></mask><use fill="#1d2327" xlink:href="#g"/><g fill="#50575e" mask="url(#h)"><path d="M0 0h15v15H0z"/></g></g><path d="M26 116h15v15H26z"/><g fill="#50575e" fill-rule="nonzero"><path d="M39.125 118.5h-11.25c-.688 0-1.25.563-1.25 1.25v7.5c0 .688.563 1.25 1.25 1.25h11.25c.688 0 1.25-.563 1.25-1.25v-7.5c0-.688-.563-1.25-1.25-1.25zm0 8.75h-11.25v-7.5h11.25v7.5z"/><path d="M35.063 122.875l-2.188 2.819-1.563-1.882-2.187 2.813h8.75z"/></g><path d="M140 116h15v15h-15z"/><path fill="#50575e" fill-rule="nonzero" d="M145.731 119.75l1.25 1.25h5.519v6.25h-10v-7.5h3.231zm.519-1.25h-3.75c-.688 0-1.244.563-1.244 1.25l-.006 7.5c0 .688.563 1.25 1.25 1.25h10c.688 0 1.25-.563 1.25-1.25V121c0-.688-.563-1.25-1.25-1.25h-5l-1.25-1.25z"/><path d="M83 116h15v15H83z"/><path fill="#50575e" fill-rule="nonzero" d="M95.5 117.875h-9.375c-.688 0-1.25.563-1.25 1.25v8.75c0 .688.563 1.25 1.25 1.25H95.5c.688 0 1.25-.563 1.25-1.25v-8.75c0-.688-.563-1.25-1.25-1.25zm0 1.25V121h-9.375v-1.875H95.5zm-3.125 8.75H89.25v-5.625h3.125v5.625zm-6.25-5.625H88v5.625h-1.875v-5.625zm7.5 5.625v-5.625H95.5v5.625h-1.875z"/><path d="M140 67h15v15h-15z"/><path fill="#50575e" fill-rule="nonzero" d="M141.563 69.5v1.875h3.125v7.5h1.875v-7.5h3.125V69.5h-8.125zm11.875 3.125h-5.625V74.5h1.875v4.375h1.875V74.5h1.875v-1.875z"/><g><path d="M83 67h15v15H83z"/><path fill="#50575e" fill-rule="nonzero" d="M94.875 68.875h-8.75c-.688 0-1.25.563-1.25 1.25v8.75c0 .688.563 1.25 1.25 1.25h8.75c.688 0 1.25-.563 1.25-1.25v-8.75c0-.688-.563-1.25-1.25-1.25zm0 10h-8.75v-8.75h8.75v8.75zm-3.15-4.194l-1.719 2.213-1.225-1.475-1.719 2.206h6.876l-2.213-2.944z"/></g></g></g></svg>