<svg viewBox="0 0 250 119" xmlns="http://www.w3.org/2000/svg"><path d="m0 117.8c20.8-.6 41.7-.7 62.5-.8l62.5-.1c41.7.1 83.3.1 125 .7.2 0 .4.2.4.4s-.2.4-.4.4c-41.7.7-83.3.6-125 .7l-62.5-.1c-20.8-.1-41.7-.3-62.5-.8-.1 0-.2-.1-.2-.2s.1-.2.2-.2z" fill="#fff"/><path d="m58.5 119v-108.6c0-4.6 3.6-8.2 8.2-8.2h121.5c4.6 0 8.2 3.6 8.2 8.2v108.6z" fill="#dcdcde"/><path d="m58.5 23.8v-13.7c0-5.4 3.6-9.8 8.1-9.8h121.5c4.6 0 8.2 4.4 8.2 9.8v13.6h-137.8z" fill="#3895ba"/><path d="m198.6 23.8c-11.8 1-23.8.9-35.6 1l-35.6.1-35.6-.1c-11.8 0-23.8 0-35.6-1v-.6c11.8-1 23.8-.9 35.6-1l35.6-.1 35.6.1c11.8 0 23.8 0 35.6 1z" fill="#004e6e"/><path d="m184.3 106.1h-41.3v-69.4h41.2" fill="#fff"/><path d="m168.5 65.9h-15.5v-14.5c0-3.6 3-6.7 6.7-6.7h15.8v14.3c0 3.7-3 6.9-7 6.9z" fill="#dcdcde"/><path d="m175.2 98.9h-22.2v-25.4h22.4v25.2c.1.1-.1.2-.2.2z" fill="#2fb41f"/><path d="m128.7 106.6h-59.7v-49.4h65.7v49.4" fill="#fff"/><path d="m128.7 48.5h-59.7v-4.5c0-4 3.2-7.3 7.3-7.3h58.5v11.8" fill="#004e6e"/><path d="m113.1 92.6s-1.3-3.2-4.4-3.9c-1.7-.2-3.1.1-4 .6-1 .5-1.3 1.8-.5 2.5.7.9 1.9 1.9 3.6 2.2 3.1.6 5.3-1.4 5.3-1.4z" fill="#fff"/><path d="m109.1 94.7c-.4 0-.9 0-1.4-.1-1.5-.2-2.9-1-4-2.4-.5-.5-.6-1.1-.5-1.8s.6-1.4 1.3-1.7c.9-.5 2.5-1 4.4-.6 3.5.7 4.8 4.2 4.9 4.3l.1.4-.2.2c-.2.1-2 1.7-4.6 1.7zm-1.5-5.6c-1.1 0-2.2.2-2.6.6-.4.1-.5.5-.6.7 0 .2 0 .5.2.7.6.7 1.7 1.8 3.2 2 2.2.4 3.8-.5 4.4-1-.4-.9-1.7-2.6-3.8-3.1-.1.3-.5.1-.8.1z" fill="#c3c4c7"/><path d="m122.5 95.3c.9-.6 1-1.9.2-2.6-.9-.7-2.2-1.7-3.9-1.7-3.2 0-5.2 2.6-5.2 2.6s1.8 2.9 5.2 2.9c1.5.1 2.8-.6 3.7-1.2z" fill="#fff"/><path d="m118.9 97.2c-3.6 0-5.6-3-5.6-3.1l-.2-.4.2-.4c.1-.1 2.2-2.9 5.6-2.9 2 0 3.4 1 4.3 1.8.5.5.7 1.1.7 1.9 0 .7-.4 1.4-1 1.8-1.3.8-2.7 1.3-4 1.3zm-4.4-3.5c.5.7 2 2.3 4.4 2.3 1.1 0 2.3-.4 3.2-1.1.2-.2.5-.5.5-.9s-.1-.6-.2-.9c-.7-.6-1.9-1.5-3.4-1.5-2.4.1-3.9 1.5-4.5 2.1z" fill="#c3c4c7"/><path d="m123.9 87.4c.9-.5 1.1-1.8.4-2.6-.7-.9-2-1.8-3.8-2-3.2-.2-5.4 2.2-5.4 2.2s1.5 3 4.9 3.2c1.6.2 2.9-.3 3.9-.8z" fill="#fff"/><path d="m120.9 88.9c-.2 0-.6 0-1-.1-3.6-.2-5.3-3.5-5.4-3.6l-.2-.4.2-.4c.1-.1 2.4-2.6 5.9-2.4 2.3.4 3.6 1.5 4.2 2.3.5.5.6 1.3.5 2-.1.6-.5 1.3-1.1 1.7-.8.4-1.9.9-3.1.9zm-5.1-3.9c.5.7 1.9 2.4 4.2 2.5 1.5.2 2.5-.2 3.5-.6.2-.1.4-.4.5-.7 0-.4 0-.6-.2-1-.5-.5-1.5-1.5-3.4-1.8-2.2-.2-3.8 1-4.6 1.6z" fill="#c3c4c7"/><path d="m127.2 80.4c1-.2 1.5-1.5 1-2.4-.5-1-1.5-2.3-3.1-2.8-3.1-1-5.8.9-5.8.9s.7 3.2 4 4.3c1.5.4 2.9.2 3.9 0z" fill="#fff"/><path d="m125.1 81.2c-.6 0-1.3-.1-2-.4-3.5-1.1-4.4-4.6-4.4-4.8l-.2-.2.4-.2c.1-.1 2.9-2 6.3-1 2.2.6 3.1 2.4 3.5 3.1.4.5.4 1.3.1 2-.2.6-.9 1.1-1.5 1.3-.6.1-1.4.2-2.2.2zm-5.1-4.9c.2.9 1.3 2.6 3.5 3.4 1.4.5 2.5.2 3.5 0 .2-.1.5-.2.6-.6.1-.2.1-.6 0-.9-.2-.6-1.1-2-2.8-2.5-2.2-.6-4.1.2-4.8.6z" fill="#c3c4c7"/><path d="m114.9 84.6s0-3.5-2.9-5.2c-1.5-.9-2.9-.9-4-.7-1 .1-1.8 1.3-1.4 2.3.4 1.1 1.1 2.4 2.6 3.2 3 1.7 5.7.4 5.7.4z" fill="#fff"/><path d="m112.4 85.8c-1 0-2.3-.2-3.5-.9-1.4-.9-2.4-2-2.9-3.6-.2-.6-.1-1.4.2-2 .4-.6 1-1 1.7-1.1 1.1-.1 2.8-.1 4.4.9 3.1 1.8 3.1 5.5 3.1 5.6v.3l-.4.1c.1.2-.9.7-2.6.7zm-3.3-6.4h-.9c-.2 0-.6.2-.7.5-.1.2-.2.6-.1.9.4 1.3 1.3 2.3 2.4 2.9 2 1.1 3.9.7 4.7.5-.1-.9-.6-3-2.5-4.2-1.2-.5-2.2-.6-2.9-.6z" fill="#c3c4c7"/><path d="m119 77s.5-3.5-2.2-5.5c-1.1-.9-2.4-1.3-3.4-1.4-1.4-.1-2.5 1.1-2.2 2.5.2 1 .9 2.2 2 3.1 2.9 2.1 5.8 1.3 5.8 1.3z" fill="#fff"/><g fill="#c3c4c7"><path d="m117.5 77.7c-1.3 0-2.9-.2-4.6-1.5-1.5-1.3-2-2.6-2.3-3.5-.2-.9 0-1.7.5-2.4.5-.6 1.4-1 2.3-.9 1 .1 2.4.5 3.8 1.5 2.9 2.3 2.4 5.9 2.4 6.2v.4l-.5.1s-.6.1-1.6.1zm-4.3-7c-.4 0-.7.1-1.1.5-.2.4-.4.7-.2 1.3.2 1 .9 2 1.9 2.9 1.9 1.4 3.8 1.4 4.7 1.3 0-.9-.1-3.1-1.9-4.6-1.3-1.1-2.4-1.3-3.4-1.4.1 0 .1 0 0 0zm-4.1 24.1c-.4 0-.9 0-1.4-.1-1.5-.2-2.9-1-4-2.4-.5-.5-.7-1.1-.6-1.9s.6-1.4 1.3-1.8c.9-.5 2.5-1 4.4-.7 3.5.7 4.9 4.2 4.9 4.4l.1.5-.4.4c.1 0-1.7 1.6-4.3 1.6zm-1.5-5.5c-1.1 0-2 .2-2.6.6-.4.1-.5.4-.6.7 0 .1 0 .4.2.6.6.7 1.7 1.8 3.2 1.9 2 .4 3.6-.4 4.3-.9-.5-.9-1.7-2.6-3.6-3z"/><path d="m118.9 97.4c-3.8 0-5.6-3.1-5.8-3.2l-.2-.4.2-.4c.1-.1 2.2-2.9 5.8-2.9 2 0 3.5 1 4.4 1.8.5.5.7 1.3.7 1.9 0 .7-.4 1.4-1 1.8-1.4.8-2.8 1.4-4.1 1.4zm-4.3-3.7c.6.7 2 2.2 4.3 2.2 1.1 0 2.2-.4 3.2-1.1.2-.1.4-.5.5-.7 0-.2-.1-.6-.2-.7-.7-.6-1.9-1.4-3.4-1.4-2.3-.2-3.8 1.1-4.4 1.7zm6.3-4.8c-.2 0-.6 0-1-.1-3.6-.2-5.4-3.5-5.4-3.6l-.2-.4.4-.4c.1-.1 2.4-2.6 6-2.4 2.3.4 3.6 1.5 4.3 2.3.5.6.7 1.4.6 2-.1.7-.5 1.3-1.1 1.7-1.3.5-2.3.9-3.6.9zm-4.9-3.9c.5.7 1.9 2.3 4 2.4 1.5.2 2.5-.2 3.5-.6.2-.1.4-.4.4-.6 0-.4 0-.6-.2-.9-.5-.5-1.5-1.5-3.2-1.8-2.2-.3-3.8.9-4.5 1.5zm9.1-3.7c-.6 0-1.4-.1-2-.4-3.6-1.1-4.4-4.7-4.6-4.8l-.1-.4.4-.2c.1-.1 3-2.2 6.4-1 2.2.6 3.1 2.4 3.5 3.1.4.6.4 1.4.1 2-.2.6-.9 1.1-1.5 1.4-.6.2-1.4.3-2.2.3zm-5-4.9c.4.9 1.3 2.6 3.4 3.2 1.3.4 2.5.2 3.5 0 .2 0 .5-.2.6-.5.1-.2.1-.6 0-.7-.2-.6-1.1-1.9-2.8-2.4-2.1-.8-3.9-.1-4.7.4z"/><path d="m112.4 85.8c-1 0-2.3-.2-3.5-.9-1.4-.9-2.4-2-3-3.6-.2-.6-.1-1.4.2-2s1-1.1 1.8-1.1c1.1-.1 2.8-.1 4.6.9 3.2 1.8 3.2 5.6 3.2 5.8v.5l-.4.2c-.1-.3-1.2.2-2.9.2zm-3.3-6.4h-.9c-.2 0-.5.2-.7.5-.1.2-.2.5-.1.7.4 1.3 1.3 2.3 2.4 2.9 1.9 1 3.8.7 4.6.5-.1-.9-.6-3-2.5-4-1.2-.5-2.1-.6-2.8-.6zm8.4-1.6c-1.3 0-2.9-.2-4.7-1.7-1.5-1.3-2-2.6-2.3-3.5s0-1.8.5-2.4c.6-.6 1.5-1 2.4-1 1 .1 2.4.5 3.8 1.5 2.9 2.3 2.4 6 2.4 6.2l-.1.5-.4.1c0 .2-.6.3-1.6.3zm-4.3-7c-.4 0-.7.1-1 .5-.2.4-.4.7-.2 1.1.2 1 .9 2 1.8 2.8 1.8 1.4 3.6 1.4 4.6 1.3 0-1-.1-3-1.9-4.4-1.2-1-2.3-1.3-3.3-1.3.1 0 .1 0 0 0zm-20.4 27.8c-.2-1.1-.4-2.4-.2-3.5.1-1.1.2-2.3.6-3.4.2-1.1.7-2.3 1.1-3.2.5-1 1-2.2 1.8-3l.4.2c-.7 2.2-1.5 4.3-2 6.4-.2 1.1-.5 2.2-.7 3.2s-.5 2.2-1 3.3z"/><path d="m92.4 98.6c-.2-.9-.2-1.8.1-2.6.4-.9.7-1.7 1.4-2.3 1.1-1.3 2.5-2.3 3.9-3.1l.4.4c-.5.7-1 1.4-1.7 1.9-.6.6-1.1 1.1-1.7 1.8-.5.6-1 1.1-1.3 1.9-.4.6-.6 1.3-1 2.2z"/></g><path d="m69 101.6c17-7.1 53.7-2.4 65.8 5l-65.8-.2z" fill="#2fb41f"/><path d="m113.3 99.7c-.4-2.5-.4-5-.1-7.7.2-2.5.7-5 1.5-7.6 1.5-4.9 4.3-9.6 8.3-12.7l.4.4c-1.7 1.9-3.1 3.9-4.4 6s-2.3 4.4-2.9 6.8c-.7 2.4-1.3 4.8-1.5 7.3-.4 2.5-.6 4.9-.9 7.4 0 .1-.4.1-.4.1z" fill="#c3c4c7"/><circle cx="71.7" cy="11.8" fill="#dcdcde" r="2"/><circle cx="82.3" cy="11.8" fill="#c3c4c7" r="2"/><circle cx="93.1" cy="11.8" fill="#c3c4c7" r="2"/></svg>
