<svg id="Layer_1" xmlns="http://www.w3.org/2000/svg" viewBox="0 0 276.4 143.4"><style>.st0{fill:#f6f7f7}.st1{fill:#fff}.st2,.st3{fill:#c3c4c7}.st6{fill:#dcdcde}.st7{fill:#3895ba}.st8,.st9{fill:none;stroke:#c3c4c7;stroke-linecap:round;stroke-linejoin:round;stroke-miterlimit:10}.st9{stroke:#004e6e}.st10{fill:#004e6e}.st11{fill:none;stroke:#3895ba;stroke-linecap:round;stroke-linejoin:round;stroke-miterlimit:10}.st12{fill:#004e6e}</style><path class="st0" d="M13.4 16c2.2-.1 4.3-.2 6.5-.2s4.3-.1 6.5-.1l-.5.3c.7-2.1 1.5-4.1 2.7-6 1.2-1.8 2.7-3.6 4.8-4.5 4.4-2 9.8 1 10.8 5.6.1.6.1 1.2 0 1.8-.1.6-.5 1.3-1.1 1.7-.6.4-1.3.5-1.9.5-.6 0-1.4-.1-1.9-.8-.5-.6-.5-1.5-.3-2 .2-.6.5-1.1.9-1.6 1.1-.8 2.1-1.5 3.2-1.8 1.1-.4 2.3-.5 3.4-.4 1.1.1 2.3.5 3.2 1.3.9.8 1.4 1.9 1.7 3 .3 1.1.3 2.2.2 3.4l-.4-.5c4.7 0 9.4.1 14.1.2.1 0 .2.1.2.2s-.1.2-.2.2c-4.7.1-9.4.2-14.1.2-.2 0-.4-.2-.4-.4.2-2-.2-4.3-1.6-5.5-.7-.6-1.7-1-2.7-1-1-.1-2 0-3 .3-.9.3-1.8.9-2.4 1.6-.3.4-.6.8-.7 1.2-.1.4-.1.8.1 1 .3.5 1.7.5 2.2 0 .6-.4.8-1.4.6-2.4-.4-1.9-1.8-3.6-3.5-4.5-.9-.5-1.9-.7-2.9-.9-1 0-2 0-2.9.5-1.9.8-3.3 2.4-4.4 4.1-1.2 1.7-2.1 3.7-2.7 5.7-.1.2-.2.3-.4.3-2.2 0-4.3-.1-6.5-.1s-4.3-.1-6.5-.2c-.1 0-.2 0-.1-.2-.1.1 0 0 0 0"/><path class="st1" d="M125.6 133.2s57.3-37.4 146.8-40.3"/><path class="st2" d="M125.5 133.1c2.7-1.7 5.4-3.4 8.3-4.9 1.4-.8 2.8-1.5 4.2-2.3 1.4-.7 2.8-1.5 4.3-2.2 2.9-1.4 5.8-2.8 8.7-4.1 2.9-1.3 5.8-2.6 8.8-3.8l4.5-1.8c1.5-.6 3-1.1 4.5-1.7 3-1.1 6-2.2 9.1-3.2 3.1-1 6.1-2 9.2-2.9l9.3-2.6 2.3-.6 2.3-.6 4.7-1.1c3.1-.7 6.2-1.5 9.4-2.1l9.4-1.9c3.2-.6 6.3-1 9.5-1.5 6.3-1.1 12.7-1.5 19.1-2.2 1.6-.2 3.2-.3 4.8-.4l4.8-.2 9.6-.4c.1 0 .2.1.2.2s-.1.2-.2.2l-9.6.7c-3.2.2-6.4.3-9.6.7-6.4.7-12.7 1.3-19 2.4-3.2.5-6.3.9-9.5 1.5l-9.4 1.8c-3.2.6-6.3 1.3-9.4 2.1l-4.7 1.1-2.3.6-2.3.6-9.2 2.6c-3.1.9-6.1 1.9-9.1 2.9-3.1.9-6 2.1-9.1 3.2-1.5.6-3 1.1-4.5 1.7l-4.5 1.8c-1.5.6-3 1.1-4.5 1.8l-4.4 1.9c-3 1.2-5.8 2.6-8.7 3.9-1.5.7-2.9 1.4-4.3 2.1-1.4.7-2.9 1.4-4.3 2.2-2.8 1.5-5.7 3-8.4 4.6h-.1c.1 0 .1 0 .1-.1"/><path class="st1" d="M125.7 118.7c8.7 3.4 14 6 14 6"/><path class="st2" d="M125.7 118.6c1.3.2 2.5.6 3.7 1 1.2.4 2.4.9 3.5 1.4 2.3 1 4.6 2 6.8 3.4.1.1.1.2.1.3 0 .1-.1.1-.2.1-2.4-.8-4.7-1.8-7.1-2.7-1.2-.5-2.3-1-3.5-1.5-1.1-.5-2.3-1.1-3.4-1.8 0 0-.1-.1 0-.1 0-.1.1-.1.1-.1"/><path class="st1" d="M2.6 107.1c18.7-7.4 40.3-7.8 60.8-5.1"/><path class="st2" d="M2.5 107c4.7-2.2 9.7-3.6 14.7-4.8 5.1-1.1 10.2-1.7 15.3-2.1 10.3-.6 20.7-.1 30.8 1.6.1 0 .2.1.2.2s-.1.2-.2.2c-10.2-1-20.5-1.6-30.7-.9-5.1.3-10.2.9-15.2 1.9-5 1-10 2.3-14.8 4-.1 0-.1 0-.1-.1-.1 0 0 0 0 0"/><path class="st1" d="M64.6 119.9l-.2-101.4"/><path class="st2" d="M64.4 119.9c-.8-8.4-.8-16.9-.8-25.3l-.2-25.3.1-25.3c0-8.4 0-16.9.7-25.3h.5c.8 8.4.8 16.9.8 25.3l.2 25.3-.1 25.3c0 8.4 0 16.9-.7 25.3h-.5z"/><path class="st1" d="M201 23.5v95.4H83.5"/><path class="st2" d="M201.3 23.5c.3 7.9.4 15.9.5 23.8.1 7.9.1 15.9.2 23.8l.1 47.7v1.1H201l-29.4.1-29.4-.1-29.4-.1c-9.8-.1-19.6-.2-29.4-.8v-.5c9.8-.6 19.6-.7 29.4-.8l29.4-.1 29.4-.1 29.4.1-1.1 1.1.1-47.7c.1-7.9.1-15.9.2-23.8s.3-15.9.5-23.8h.6z"/><path class="st3" d="M63.4 23.5v-13c0-4.5 3.7-8.2 8.2-8.2h121.2c4.5 0 8.2 3.7 8.2 8.2v13H63.4z"/><path d="M207.9 23.5H56.6" fill="#e6f1f5"/><path d="M207.9 23.8c-12.6.8-25.2.8-37.8.8l-37.8.1-37.8-.1c-12.6 0-25.2 0-37.8-.8v-.5c12.6-.8 25.2-.8 37.8-.8l37.8-.1 37.8.1c12.6 0 25.2 0 37.8.8v.5z" fill="#004e6e"/><path class="st2" d="M76.7 107.3h30.7V36.5H76.7m107.8 11.2h-51.2V36.5h54.5v8c0 1.7-1.5 3.2-3.3 3.2"/><path class="st6" d="M127 47.4h-10.6V40c0-1.8 1.4-3.2 3.2-3.2h7.3v10.6z"/><path class="st2" d="M184.5 107.3h-51.2V87.7h54.5V104c0 1.8-1.5 3.3-3.3 3.3"/><path class="st6" d="M127 98.2h-10.6v-7.3c0-1.8 1.4-3.2 3.2-3.2h7.3v10.5z"/><path class="st2" d="M184.5 79.3h-51.2V54.9h54.5v21.2c0 1.7-1.5 3.2-3.3 3.2"/><path class="st7" d="M127 65.5h-10.6v-7.3c0-1.8 1.4-3.2 3.2-3.2h7.3v10.5z"/><path class="st1" d="M100.6 53c0 4.7-3.8 8.5-8.5 8.5s-8.5-3.8-8.5-8.5 3.8-8.5 8.5-8.5c4.6-.1 8.5 3.8 8.5 8.5"/><path class="st0" d="M1.6 142.2c22.8-.5 45.6-.6 68.4-.8l68.4-.1 68.4.2 34.2.2 17.1.1 17.1.2c.1 0 .2.2.2.4s-.1.4-.2.4l-17.2.2-17.1.1-34.2.2-68.4.2-68.3-.1c-22.8-.1-45.6-.2-68.4-.8 0 0-.1-.1-.1-.2s.1-.2.1-.2"/><path class="st2" d="M229.7 50.8l-1-3.4c-2.8.4-4-1.2-5.1-3.7-.3-.7-1.7-.6-1.8-1.4-.1-1.1 1.5-1.8 1.4-4 0-1.2.2-2.8 1.4-3 0 0 5.4 2.3 8.1 5.2 1.2 3.3 1.9 4.9 1.9 4.9l1.4 3.4-6.3 2z"/><path class="st1" d="M71.4 27.3c0 .8-.7 1.5-1.5 1.5s-1.5-.7-1.5-1.5.7-1.5 1.5-1.5 1.5.7 1.5 1.5m2.4 111.8s-2.8-20.5-5.9-23.5c5.1 4.3 10.8 16.5 10.8 23.5"/><path class="st2" d="M73.7 139.1c-.8-4-1.6-8-2.5-11.9-.4-2-.9-3.9-1.4-5.9-.3-1-.6-1.9-.9-2.8-.3-.9-.8-1.9-1.3-2.5-.2-.2-.2-.6 0-.8.2-.2.5-.2.8 0 1.7 1.5 3.1 3.3 4.3 5.2 1.2 1.9 2.3 3.8 3.2 5.9.9 2 1.7 4.1 2.3 6.3.6 2.1 1 4.4 1 6.6 0 .1-.1.2-.2.2s-.2-.1-.2-.2c-.1-2.2-.7-4.3-1.3-6.4-.7-2.1-1.5-4.1-2.4-6.1-.9-2-2-3.9-3.2-5.7-1.2-1.8-2.5-3.5-4.1-4.9l.8-.8c.8.9 1.2 1.9 1.6 2.9.4 1 .7 2 .9 2.9.5 2 1 4 1.4 6 .4 2 .7 4 1 6 .3 2 .5 4 .7 6.1 0 .1 0 .1-.1.1-.3-.1-.4-.2-.4-.2"/><path class="st1" d="M78.9 138.8s.7-16.1-2.3-18.9c5.1 4.1 8.3 13.4 7.6 19.3"/><path class="st2" d="M78.8 138.8c-.1-3.2-.2-6.4-.5-9.6-.1-1.6-.3-3.2-.5-4.7-.1-.8-.3-1.5-.5-2.3-.2-.7-.6-1.4-1-1.9-.2-.2-.2-.6 0-.8.2-.2.5-.2.8 0 1.4 1.2 2.6 2.7 3.6 4.2s1.8 3.2 2.4 4.9c.6 1.7 1.1 3.5 1.4 5.3.3 1.8.4 3.6.1 5.4 0 .1-.1.2-.2.2s-.2-.1-.2-.2c.1-1.8-.1-3.5-.5-5.2-.4-1.7-.9-3.4-1.5-5-1.3-3.2-3.2-6.4-5.8-8.6l.7-.8c.7.7 1 1.6 1.3 2.4.2.8.4 1.6.5 2.4.3 1.6.4 3.2.5 4.9.1 1.6.1 3.2 0 4.9-.1 1.6-.1 3.2-.3 4.8-.1-.2-.2-.2-.3-.3 0 .1 0 0 0 0"/><path class="st1" d="M49.8 96.9c4.4 8.4 5.1 11.8 4.4 16.6-.7 4.8-5.4 11.1-5.4 11.1"/><path class="st8" d="M49.8 96.9c4.4 8.4 5.1 11.8 4.4 16.6-.7 4.8-5.4 11.1-5.4 11.1"/><path class="st3" d="M36.8 62.8c-1.2 7.2-1.5 20.8-1.5 20.8l13.4.6s2.6-15.6 1.1-18.5"/><path class="st1" d="M51.6 54.5c1.2 9.8-3.3 13.1-4.8 11.2"/><path class="st8" d="M51.6 54.5c1.2 9.8-3.3 13.1-4.8 11.2"/><path class="st1" d="M52.5 41.1c1.1.7 1.8 1.7 2 3 .3 2.3 2.2 2.8 2.2 4 0 .9-1.5 1-1.7 1.8-.8 2.8-3 4.9-6.1 4.9"/><path class="st9" d="M52.5 41.1c1.1.7 1.8 1.7 2 3 .3 2.3 2.2 2.8 2.2 4 0 .9-1.5 1-1.7 1.8-.8 2.8-3 4.9-6.1 4.9m3.9-4.4c.4.9 1.3 1.3 1.3 1.3"/><path class="st10" d="M53.3 47.5c-.2 0-.4-.2-.4-.4v-.7c0-.2.2-.4.4-.4s.4.2.4.4v.7c0 .2-.2.4-.4.4M39.6 59.2c3.8-1.6 11.6 12.7 11.6 12.7l7.9-12.8 4.4 1.8s-4 18-11.8 18.8c-7.7.7-13.9-10.8-13.9-10.8s-3.1-7.7 1.8-9.7"/><path class="st1" d="M36 82.9c-3.6 8.8.6 59.3.6 59.3h10.2s5.1-48.5 1.6-58.7"/><path class="st8" d="M36 82.9c-3.6 8.8.6 59.3.6 59.3h10.2s5.1-48.5 1.6-58.7M52 40.8c-2.5 2.1-2.7 7.4-3.2 9.7-.6 2.9-1.6 5.6 1 5.8"/><path class="st1" d="M38.9 54.7c-2.7-5.8.2-15.5 6.5-16.8 2.1-.4 4.6.6 5.8 1"/><path class="st8" d="M38.9 54.7c-2.7-5.8.2-15.5 6.5-16.8 2.1-.4 4.6.6 5.8 1M35 124.3l-6.6 9 8.2 8.8"/><path class="st1" d="M59.3 59.8c.2-3 1.6-11.7 3-11.2 1.4.6.3 4.8.7 6.3s1.1 3.4-.1 6"/><path class="st9" d="M59.3 59.8c.2-3 1.6-11.7 3-11.2 1.4.6.3 4.8.7 6.3s1.1 3.4-.1 6"/><path class="st9" d="M63.4 55.1s.7-1.5 1-1.2c.3.4-.8 2.2-.8 2.2"/><path class="st1" d="M43.8 49.7c0 2.7 1.1 5 2.3 5.5"/><path class="st8" d="M43.8 49.7c0 2.7 1.1 5 2.3 5.5m-8.2 34.2l2.8 5.4"/><path class="st1" d="M40 49.2c-1.8 6.5-.6 15.7 6.3 14.6"/><path class="st8" d="M40 49.2c-1.8 6.5-.6 15.7 6.3 14.6"/><path class="st1" d="M209.2 79l.9 9.3s5.1 13.2.9 8.2c5.6 6.6 12.2-1.6 12.4-9.3.2-8.5-2.7-14.3-6.1-16-1.8-.9-4.5-.1-5.9 1.3-1.6 1.7-2.4 4.1-2.2 6.5"/><path class="st11" d="M209.2 79l.9 9.3s5.1 13.2.9 8.2c5.6 6.6 12.2-1.6 12.4-9.3.2-8.5-2.7-14.3-6.1-16-1.8-.9-4.5-.1-5.9 1.3-1.6 1.7-2.4 4.1-2.2 6.5z"/><path class="st8" d="M214.8 66.7c-4.3-.8-5.6 4.1-5.6 4.1m3.5.5c-1.8-.2-5.5-.2-6 1.9-.2.8.2 2.2 1.1 2.8m5.7-6.8c2.2-1.5 4.8-2.3 6.4-.7.7.7.5 2.6-1.1 3.7"/><path class="st9" d="M246.2 98.3c-1.3 8.5 13.4 32.7 13.4 32.7l-6.7 9.8s-12.8-18.4-15.4-26.1"/><path class="st9" d="M226.2 109.2l-6.3 32.6 10.4 1.3 9.9-38.7"/><path class="st7" d="M234 53.4c-7.3 3.8-6.8 15.3-7.6 20.5-.9 5.2-2.1 35-2.1 35l27.6-1.1s.8-64-17.9-54.4"/><path class="st3" d="M209.2 111.1l-4.9 27.2c-.1.8-.8 1.4-1.6 1.5-1.4.2-3.5.8-3.5 2.5 0 .4 3.6.6 6.4.7 1.8 0 3.5-1.1 4-2.9l8.3-26.6"/><path class="st3" d="M215.4 114.3l15.1 23.2c.5.7.4 1.6-.1 2.2-.9 1.1-2 3-.8 4.2.3.3 3-2 5.1-3.9 1.4-1.2 1.7-3.2.9-4.8l-12.2-25.1"/><path class="st12" d="M206.8 55.5l2.2 6.6c.6 1.7 2.3 2.8 4.1 2.5l5.5-.9s-3-11.2-11.8-8.2"/><path class="st9" d="M225.5 43.8c-.3.9-1.2 1.2-1.2 1.2"/><path class="st1" d="M210.1 88.3l-5.7 39.5 32.1-3.9-13.2-36.7z"/><path class="st11" d="M210.1 88.3l-5.7 39.5 32.1-3.9-13.2-36.7z"/><path class="st3" d="M214.2 73.7c-3.3 1.2-.4 16.2-.4 16.2l-3 13.3 1.1.2c2.4.5 4.8-.9 5.4-3.2l2.6-9.1s0-19.6-5.7-17.4"/><path class="st9" d="M240.4 61c1.5 11.3 2.3 14.5-2.2 21.6-2.2 3.5-6.3 7.8-6.3 7.8m1.1-24.8s-.1 4.7 0 6.8m-1.7 2.1l3.6-.5m-4.9 2l2 1"/><path d="M226.7 84.4l8.2 9.8" fill="none" stroke="#fff" stroke-linecap="round" stroke-linejoin="round" stroke-miterlimit="10"/><path class="st9" d="M230 77.9l-3.3 6.5m4.2-43.9L221 38m.3-1.7l-.7 3.6m4.5-6.4c.2 3.4 5.9 4.5 7.7 6.9 1.8 2.4 1.1 4.5 1.1 4.5"/><path class="st9" d="M227.2 33.5c1.7-2.5 8.6-2.3 10.8 1.3 2.7 4.5-.5 11.2-.5 11.2"/><path class="st11" d="M238 48l-10.3 3.3.9 3.2"/><path class="st9" d="M224.6 35.2c-.9.8-1.4 1.8-1.4 3 0 2.2-1.6 2.9-1.4 4 .1.8 1.5.7 1.8 1.4 1.1 2.5 2.2 4.1 5.1 3.7l1 3.4"/><path class="st12" d="M216.6 57.3h-1.8v-1.8c0-1 .8-1.8 1.8-1.8s1.8.8 1.8 1.8-.8 1.8-1.8 1.8"/><path class="st1" d="M207 56c-1.3.6-1.7 1.5-1.9 2.7-.3 2.2-2 2.6-2 3.7 0 .8 1.4.9 1.6 1.7.7 2.6 2.7 4.5 5.5 4.5"/><path class="st9" d="M207 56c-1.3.6-1.7 1.5-1.9 2.7-.3 2.2-2 2.6-2 3.7 0 .8 1.4.9 1.6 1.7.7 2.6 2.7 4.5 5.5 4.5"/><path d="M207 65.6c-.6.5-1.3.5-1.3.5" fill="none" stroke="#004e6e" stroke-width="1.105" stroke-linecap="round" stroke-linejoin="round" stroke-miterlimit="10"/><path class="st12" d="M206.8 55.5c-.8 1.3-1.7 3.2-1.7 3.2l4.1.5-.2-2.4-2.2-1.3"/><path class="st10" d="M206.5 62.4c.2 0 .4-.2.4-.4v-.7c0-.2-.2-.4-.4-.4s-.4.2-.4.4v.7c0 .2.2.4.4.4"/><path d="M-135.6 206.9H-14v100h-121.6z" fill="none"/></svg>