<svg height="250" viewBox="0 0 400 250" width="400" xmlns="http://www.w3.org/2000/svg"><path d="m40.2 212.1c26.6-.6 53.3-.7 79.9-.8l79.9-.1c53.3.1 106.6.1 159.8.7a.4.4 0 0 1 0 .8c-53.3.7-106.6.6-159.8.7l-79.9-.1c-26.6-.1-53.3-.3-79.9-.8a.2.2 0 1 1 0-.4z" fill="#c3c4c7"/><path d="m177.3 75.8c3-1.7 11.4-1.1 14.4.3l-6.2 6.8" fill="#c3c4c7"/><path d="m179.2 67.7h10.5v15.1h-10.5z" fill="#a7aaad"/><path d="m190.5 54.7c2.7 5.9 2.2 17.3-7.2 17.3s-9.9-11.4-7.2-17.3" fill="#a7aaad"/><path d="m179.2 71.4v3.2s5.7-.6 8-3.2z" fill="#8e9196"/><path d="m201.8 158.8 9.5 45.4-6.5 1.4-3.2-5.3c-1.8-7.1-4.7-9.2-7.3-22.5a13.52 13.52 0 0 0 -1.1-3.4c-1.5-3.2-4.6-10.9-4.3-18.6" fill="#a7aaad"/><path d="m201.8 158.8 9.5 45.4-6.5 1.4-3.2-5.3c-1.8-7.1-4.7-9.2-7.3-22.5a13.52 13.52 0 0 0 -1.1-3.4c-1.5-3.2-4.6-10.9-4.3-18.6m-21.1 1.7s3.4 34.3 2.8 46.2l3.5 1.9 4.9-4.2c.7-6.9 3.8-12.8 2.7-20.2a21.25 21.25 0 0 1 0-8.7c1-4.3 1.6-9.7.5-21.4" fill="#a7aaad"/><path d="m163 160.2c-2.3-15.5-2.4-40.3 6.9-51.9s25.2-1.6 25.2-1.6c7.6 7.2 13.1 21.4 9.9 53.4" fill="#c3c4c7"/><path d="m189.9 69s1.6 2.3 5.1.3 2.3-6.9 2.3-6.9 2.3-1.5 1.6-5.4c-.5-3.3-4.2-4.5-4.2-4.5s.5-2.5-2.6-5.2c-3.7-3.1-8.4-.4-8.4-.4s-2.6-2.1-7.6-.6c-6.2 1.9-4.4 7.9-4.4 7.9-6.1 3-4.2 13.1 3.7 13.5 0 0-4.2-17.2 8.6-17.2 13.5 0 5.9 18.5 5.9 18.5m-28.6 90.8a55.25 55.25 0 0 1 5.8-.2h28.8c3.8 0 7.7.1 11.5.3a.22.22 0 0 1 .2.2c0 .1-.1.1-.2.2-3.8.3-7.7.3-11.5.3h-28.8a37.93 37.93 0 0 1 -5.8-.2c-.2 0-.3-.2-.3-.4a1.24 1.24 0 0 1 .3-.2z" fill="#004e6e"/><path d="m190.5 54.7c2.7 5.9 2.2 17.3-7.2 17.3s-9.9-11.4-7.2-17.3" fill="none" stroke="#004e6e" stroke-linecap="round" stroke-linejoin="round"/><path d="m175.3 49.7c.4 5.9 4.1 13.7 16.6 13.1 0 0 3.1-12.7-6.6-13.2" fill="#004e6e"/><path d="m175.3 77.3c-6-.3-14.6 10.7-17.9 14.7a1.92 1.92 0 0 0 .3 2.7l8.7 6.7 7.6-6.2m20.6-17.2c4.7 0 12.7 10 16 14a1.92 1.92 0 0 1 -.3 2.7l-7.8 6.6-2.1-2.1c3.1-13.6-5.8-21.2-5.8-21.2z" fill="#004e6e"/><path d="m201.1 91c0 18.3-6.5 20.9-16.9 21-9 .1-16.3 4.6-16.3-18.3 0-5.6 3.8-16.5 9.9-18.3l6.5 6.5 6.5-6.5c6.4 1.9 10.3 9.6 10.3 15.6z" fill="#c3c4c7"/><g fill="#004e6e"><path d="m178 75.1a13 13 0 0 1 1.8 1.5l1.7 1.6 3.3 3.3h-.8c1.1-1.1 2.2-2.1 3.3-3.2a25.17 25.17 0 0 1 3.5-3 .14.14 0 0 1 .2 0v.2a25.17 25.17 0 0 1 -3 3.5c-1.1 1.1-2.1 2.2-3.2 3.3a.61.61 0 0 1 -.8 0l-3.3-3.3-1.6-1.7a13 13 0 0 1 -1.5-1.8.44.44 0 0 1 .1-.5.37.37 0 0 0 .3.1zm17.3 31.4a20.34 20.34 0 0 1 4.7 5.4 30.71 30.71 0 0 1 1.7 3.1c.3.5.5 1.1.8 1.6l.7 1.7a54.32 54.32 0 0 1 3.2 13.8 94.92 94.92 0 0 1 .4 14.1l-.2 3.5-.4 3.5c-.1 1.2-.3 2.3-.5 3.5s-.4 2.3-.6 3.5c0 .1-.1.1-.2.1s-.1-.1-.1-.2c.3-4.7.9-9.3 1-14a93.58 93.58 0 0 0 -.4-14 53.63 53.63 0 0 0 -3.1-13.6l-.6-1.6c-.2-.5-.5-1-.7-1.6a29.1 29.1 0 0 0 -1.7-3 31.87 31.87 0 0 0 -4.3-5.4.45.45 0 0 1 0-.5.77.77 0 0 1 .3.1z"/><path d="m201.9 89.7a6.9 6.9 0 0 1 .4 2.5v1.2l-.1 1.2a26.31 26.31 0 0 1 -.7 4.9 26 26 0 0 1 -1.6 4.7 12.3 12.3 0 0 1 -2.6 4.2c-.1.1-.2.1-.2 0s-.1-.1 0-.2c.6-1.5 1.3-3 1.9-4.4a35.32 35.32 0 0 0 1.5-4.6 24.3 24.3 0 0 0 .8-4.7l.1-1.2v-1.2a9.64 9.64 0 0 1 0-2.4c0-.2.2-.3.4-.3-.1.1 0 .2.1.3zm-25 121.7a20.18 20.18 0 0 1 .1-3.5 7.34 7.34 0 0 1 1.2-3.4.35.35 0 0 1 .5-.1c.1 0 .1.1.1.2a7.41 7.41 0 0 1 .2 3.6 18.73 18.73 0 0 1 -.8 3.4c-.1.4-.5.5-.9.4-.2-.2-.4-.4-.4-.6z"/><path d="m170.8 202.4a.54.54 0 0 0 -.9-.4c-6.7 6.6-11.7 8.9-10.7 10.3 2 2.5 16.1-2.7 18.2-4.1s2.7-3.2 1.5-6.7c0 0-3.1 2.5-5.7 2.3-1-.1-2.4-.8-2.4-1.4z"/><path d="m202.5 210.7a14 14 0 0 1 -.8-3.4 7.41 7.41 0 0 1 .2-3.6.37.37 0 0 1 .5-.2c.1 0 .1.1.2.1a7.34 7.34 0 0 1 1.2 3.4 13.68 13.68 0 0 1 .1 3.5.64.64 0 0 1 -.8.6.68.68 0 0 1 -.6-.4z"/><path d="m210.3 201.6a.54.54 0 0 1 .9-.4c6.7 6.6 11.7 8.9 10.7 10.3-2 2.5-16.4-2.7-18.6-4.1s-2.9-3.5-1.6-7c0 0 3.6 2.8 6.1 2.5 1-.1 2.5-.7 2.5-1.3z"/><path d="m183.2 62.1a6.8 6.8 0 0 1 .2 2 13.4 13.4 0 0 1 -.1 2c0 .2-.2.3-.4.3a.32.32 0 0 1 -.3-.3 13.4 13.4 0 0 1 -.1-2 13.55 13.55 0 0 1 .2-2c0-.1.2-.2.3-.2s.2.1.2.2z"/><path d="m179.3 64.1a.68.68 0 0 1 -.7-.7v-1.1a.7.7 0 1 1 1.4 0v1.1a.68.68 0 0 1 -.7.7zm7.3 0a.68.68 0 0 1 -.7-.7v-1.1a.7.7 0 1 1 1.4 0v1.1a.75.75 0 0 1 -.7.7z"/><path d="m181.9 68a2.38 2.38 0 0 0 1.2.3 1.5 1.5 0 0 0 1.1-.4.45.45 0 0 1 .5 0 .37.37 0 0 1 .1.3 1.78 1.78 0 0 1 -.7.8 1.8 1.8 0 0 1 -1 .2 3.55 3.55 0 0 1 -1-.2 2.7 2.7 0 0 1 -.8-.7c-.1-.2 0-.4.2-.4s.3 0 .4.1zm-2.1-8.6a5.28 5.28 0 0 0 -1.2.1c-.4.1-.9.2-1.2.3h-.1c-.2.1-.4 0-.4-.2v-.3a2.48 2.48 0 0 1 1.5-.8 2.72 2.72 0 0 1 .9 0 1.8 1.8 0 0 1 .9.4.3.3 0 0 1 0 .4c-.1.1-.1.1-.2.1zm5.2-.8a2 2 0 0 1 1.1-.6 1.7 1.7 0 0 1 1 0 2.54 2.54 0 0 1 1.7 1.1.52.52 0 0 1 -.2.8c-.1 0-.2.1-.3.1h-.5a4.48 4.48 0 0 1 -1.1-.1c-.2 0-.4-.1-.6-.1a.52.52 0 0 1 -.4-.2.65.65 0 0 1 -.9-.2.54.54 0 0 1 .2-.8z"/></g><path d="m215.8 124.6-3.3 5-54.4-46.7 8-7.5 48.8 42a5.37 5.37 0 0 1 .9 7.2z" fill="#3895ba"/><circle cx="145.2" cy="61.46" fill="none" r="21.7" stroke="#3895ba" stroke-linecap="round" stroke-linejoin="round" stroke-width="8" transform="matrix(.55237353 -.83359671 .83359671 .55237353 13.760008 148.550709)"/><path d="m159 95.9c-6.4 7.3-4.4 16.7 1 19.3 9 4.2 21.7-15 22.8-16.7s4.5-2.4 5.7-4.7 1.5-5.4.6-6.5-2 0-2 0c-.7 2.9-4.4 5.3-4.4 5.3s2.1-3.9.6-3.9c-1.7 0-3.1 3.6-4.3 5.5s-13.2 4.3-16.1 11.6l3.4-4.4" fill="#a7aaad"/><path d="m187.5 87.3a5.86 5.86 0 0 1 -1.7 3.2 15.46 15.46 0 0 1 -2.7 2.4.48.48 0 0 1 -.7-.1.45.45 0 0 1 0-.5 14.17 14.17 0 0 0 .8-1.8 2.92 2.92 0 0 0 .2-.9c.1-.3 0-.6 0-.5s-.1 0-.3.1a2.65 2.65 0 0 0 -.6.5c-.4.4-.7 1-1.1 1.5s-.6 1.1-.9 1.7l-.5.9a2.76 2.76 0 0 1 -.7.9 7.24 7.24 0 0 1 -1.9 1.1 14.17 14.17 0 0 1 -1.8.8 46.27 46.27 0 0 0 -7 3.6 15.8 15.8 0 0 0 -5.4 5.5c0 .1-.1.1-.2.1s-.1-.1-.1-.2a12.11 12.11 0 0 1 5.2-6.2 53.36 53.36 0 0 1 7.1-3.7c.6-.3 1.2-.5 1.8-.8a11.42 11.42 0 0 0 1.6-.9 6.82 6.82 0 0 0 .5-.7l.5-.9a16.18 16.18 0 0 1 1-1.8 10.38 10.38 0 0 1 1.2-1.7 3.11 3.11 0 0 1 .9-.7 1.45 1.45 0 0 1 .7-.2h.4a1.69 1.69 0 0 1 .5.2c.2.1.2.3.3.4s.1.3.1.4v.6c-.1.4-.2.7-.3 1a6.63 6.63 0 0 1 -.9 1.9l-.7-.7a13.15 13.15 0 0 0 2.5-2.2 9.8 9.8 0 0 0 1.8-2.7.4.4 0 0 1 .4-.2c0 .3.1.4 0 .6z" fill="#004e6e"/><path d="m200.1 116.6c.7-6.4 5-12.3 5-12.3l-2.3-3.3 7.8-6.7c3.4 3.9 5.7 5.1 5.5 9.4s-9.5 14.6-9.5 14.6c-2.5 3.3-5.9 7.2-7.5 7.6s-4.9 1-5.4-.8c-.7-2.3 2.6-3.8 4.9-4.9 1.2-.6.8-1.7-.3-1.3s-2.8-.7-.5-1.5z" fill="#a7aaad"/><path d="m205.8 103.8a6.19 6.19 0 0 0 -1.1 1.7l-.9 1.8c-.6 1.3-1.1 2.5-1.6 3.8s-1 2.6-1.4 3.9l-.3 1-.1.2a.37.37 0 0 1 -.1.3 1 1 0 0 1 -.5.6 5 5 0 0 1 -2.1 1 9.44 9.44 0 0 0 -.9.3l.1-.1a.37.37 0 0 0 .1-.3v-.1c0 .1 0 .1.1.2a.1.1 0 0 0 .1.1c.1.1.4.1.7.1a4 4 0 0 1 1.1 0 .76.76 0 0 1 .4.1c.1 0 .2.1.3.1a1.38 1.38 0 0 1 .3.4c0 .4-.1.5-.2.6l-.3.3a4.7 4.7 0 0 1 -.9.6l-1.8 1.1c-.6.4-1.2.7-1.7 1.1a3.18 3.18 0 0 0 -1.1 1.3c0 .7 0 1.3.4 1.6a5.34 5.34 0 0 0 1.8.5.2.2 0 1 1 0 .4 4.22 4.22 0 0 1 -2.2-.3 1.45 1.45 0 0 1 -.7-1 4.48 4.48 0 0 1 -.1-1.1 2.2 2.2 0 0 1 .5-1.2 6 6 0 0 1 .8-.8 19.23 19.23 0 0 1 1.7-1.3 17.39 17.39 0 0 1 1.8-1.1 5.55 5.55 0 0 0 .8-.6c.1-.1.1 0 .1-.1v.2c.1.2.2.2.2.2h-.1c-.5-.1-1.3.3-2.3-.2a1.72 1.72 0 0 1 -.6-.6.37.37 0 0 1 -.1-.3v-.1c0-.2 0-.3.1-.4s.2-.2.3-.2c.5-.2.8-.3 1.1-.4a6.69 6.69 0 0 0 1.7-.7l.2-.2a.31.31 0 0 1 .1-.2l.1-.3.3-1c.5-1.3.9-2.6 1.5-3.9s1.1-2.6 1.8-3.8a9.31 9.31 0 0 1 2.6-3.3h.1a.1.1 0 0 0 -.1.1z" fill="#004e6e"/><path d="m110.6 162.3a13.1 13.1 0 0 0 4.3-6.5 20.49 20.49 0 0 0 .6-7.8 41.21 41.21 0 0 0 -5-14.8 38.46 38.46 0 0 0 -10.4-11.6 29.92 29.92 0 0 0 -6.8-3.7 12 12 0 0 0 -7.5-.3 10.14 10.14 0 0 0 -5.7 4.7 11.71 11.71 0 0 0 -1.2 7.4c.5 5.2 2.6 10.1 5 14.8a64 64 0 0 0 9.1 12.9 32.42 32.42 0 0 0 6 5.1 12.25 12.25 0 0 0 3.5 1.6 5.24 5.24 0 0 0 3.7-.3c.1-.1.2 0 .3.1s0 .2-.1.3a6.15 6.15 0 0 1 -4 .5 17.68 17.68 0 0 1 -3.8-1.5 33.67 33.67 0 0 1 -6.2-5.1 62.69 62.69 0 0 1 -9.4-12.9 48 48 0 0 1 -3.3-7.3 34.2 34.2 0 0 1 -1.9-7.8 13.44 13.44 0 0 1 1.3-8.1 11.18 11.18 0 0 1 6.3-5.2 13.51 13.51 0 0 1 8.2.4 28.4 28.4 0 0 1 7.1 3.8 38.12 38.12 0 0 1 10.6 12 40.35 40.35 0 0 1 3.2 7.4 34.74 34.74 0 0 1 1.7 7.9 21.63 21.63 0 0 1 -.8 8 13.2 13.2 0 0 1 -4.6 6.5h-.1a2.8 2.8 0 0 1 -.1-.5zm10.6 6.8a15.57 15.57 0 0 1 -2.2-7 22.52 22.52 0 0 1 .9-7.3 27.17 27.17 0 0 1 8-12.3.48.48 0 0 1 .7 0c.1.1.1.1.1.2l2.4 8.4-1 .1 1.2-9.5a.43.43 0 0 1 .4-.4 14.24 14.24 0 0 1 6.8-.5 11 11 0 0 1 3.3 1.2 8.2 8.2 0 0 1 2.5 2.4 12 12 0 0 1 2.5 6.3 15.27 15.27 0 0 1 -1.1 6.7 23.9 23.9 0 0 1 -8.4 10.2 19.36 19.36 0 0 1 -5.9 3 10 10 0 0 1 -6.6-.1c-.1 0-.1-.2-.1-.3s.2-.1.3-.1a9.13 9.13 0 0 0 6.3-.2 25.92 25.92 0 0 0 5.7-3 25.24 25.24 0 0 0 8-10 13.29 13.29 0 0 0 1-6.2 10.66 10.66 0 0 0 -2.3-5.7 10.82 10.82 0 0 0 -2.2-2.1 10.21 10.21 0 0 0 -2.9-1.1 13.08 13.08 0 0 0 -6.2.4l.4-.4-1.3 9.5a.44.44 0 0 1 -.6.4.43.43 0 0 1 -.4-.4l-2.3-8.4.8.2a26.54 26.54 0 0 0 -7.9 11.8 19.19 19.19 0 0 0 -1.1 7.1 13.94 13.94 0 0 0 1.8 6.9v.1z" fill="#a7aaad"/><path d="m118.2 177.2a22.73 22.73 0 0 1 2-7.2 32.68 32.68 0 0 1 4-6.4 58.42 58.42 0 0 1 10.9-10.2c.1-.1.2 0 .3 0s0 .2 0 .3c-3.5 3.5-7.3 6.7-10.2 10.6a30.09 30.09 0 0 0 -3.9 6.1 43.74 43.74 0 0 0 -2.7 6.8.1.1 0 0 1 -.1.1c-.3 0-.4 0-.3-.1zm-6.9 0a135.73 135.73 0 0 0 -1.4-14.3 65.86 65.86 0 0 0 -3.9-13.8 44.75 44.75 0 0 0 -7.4-12.2 51 51 0 0 0 -10.7-9.5.22.22 0 1 1 .2-.4 43 43 0 0 1 11.2 9.2 46.48 46.48 0 0 1 7.6 12.4 57.17 57.17 0 0 1 3.9 14 70.45 70.45 0 0 1 .6 14.5c.1.2.1.2-.1.1z" fill="#c3c4c7"/><path d="m114.4 211.9a15 15 0 0 1 -7.5-1.7 19 19 0 0 1 -6-4.9 20.62 20.62 0 0 1 -4.1-14.8v-.1l3.9-13.4a.66.66 0 0 1 .5-.4h26.4a.66.66 0 0 1 .5.4l3.9 13.4v.1a20.62 20.62 0 0 1 -4.1 14.8 18.06 18.06 0 0 1 -6 5 14 14 0 0 1 -7.5 1.6zm0-.3a15.57 15.57 0 0 0 7.3-1.9 17.92 17.92 0 0 0 5.7-4.9 19.45 19.45 0 0 0 3.7-14.2v.1l-4-13.3.5.4h-26.4l.5-.4-4 13.3v-.1a21.14 21.14 0 0 0 .5 7.5 18.85 18.85 0 0 0 3.2 6.7 17.56 17.56 0 0 0 5.6 4.9 13.87 13.87 0 0 0 7.4 1.9z" fill="#c3c4c7"/><path d="m97.2 183.6c3-.3 5.9-.3 8.9-.4l8.9-.1c5.9.1 11.8 0 17.7.4a.2.2 0 1 1 0 .4c-5.9.3-11.8.3-17.7.4l-8.9-.1c-3-.1-5.9-.1-8.9-.4a.14.14 0 0 1 0-.2z" fill="#a7aaad"/><path d="m268.4 147.6c-.3 14.6-2.6 27.9-2.9 32.3a1.67 1.67 0 0 1 -1.7 1.6h-12.6l-1.7-19.7-2.3 19.7h-12.8a1.69 1.69 0 0 1 -1.7-1.7l-2.4-31.1 6.1-10.6h30.4" fill="#187aa2"/><path d="m267.13 128a64.71 64.71 0 0 1 -9.11-8.23l-1.12-1v-.1a4.3 4.3 0 0 1 -3.93-3.7c-.6-2.6-2.8-1.9-4.1-1.3a.69.69 0 0 1 -1-.6 3.52 3.52 0 0 1 2.7-3.4 6.54 6.54 0 0 1 6.1 2l-2.2-3.7 3.7 6.1 6.4 2.8 9.3-4.5c-6.8-19.7-18.3-20.7-18.3-20.7l-5.3 3.6-5.4-3.6c-12.2 3-16.5 18.1-16.5 23l9.1 2.5-.8 21.1h32.2l-.5-9.1zm-12.73-20.1 1.3 2.5-2.6-1.1c-.5-1.6.5-2.2 1.3-1.4z" fill="#c3c4c7"/><path d="m257 118.6a4.29 4.29 0 0 1 -4-3.7c-.6-2.6-2.8-1.9-4.1-1.3a.69.69 0 0 1 -1-.6 3.52 3.52 0 0 1 2.7-3.4 6.1 6.1 0 0 1 2.4 0l-10.9-17.1a19 19 0 0 0 -6.7 5.1l25.8 39.6 6.7-4.3-5.82-9.12c-2.89-2.69-5.08-5.18-5.08-5.18z" fill="#187aa2"/><path d="m243 70.4a34.88 34.88 0 0 0 -1.2 5.4 17 17 0 0 0 .3 5.5 9 9 0 0 0 2.5 4.7 8.4 8.4 0 0 0 4.8 2.1 8.24 8.24 0 0 0 5.1-1.2 11.52 11.52 0 0 0 3.9-3.7 15.28 15.28 0 0 0 2.1-5.1 9.89 9.89 0 0 0 -.2-5.4c0-.1 0-.2.1-.2s.2 0 .2.1a9.31 9.31 0 0 1 .8 5.7 14.26 14.26 0 0 1 -2.1 5.5 13.69 13.69 0 0 1 -4.2 4.1 10.42 10.42 0 0 1 -5.8 1.4 9.47 9.47 0 0 1 -2.9-.7 8.52 8.52 0 0 1 -2.5-1.7 9.65 9.65 0 0 1 -2.7-5.3 18.88 18.88 0 0 1 -.3-5.8 13.87 13.87 0 0 1 1.6-5.6c.1-.2.3-.2.5-.1z" fill="#004e6e"/><path d="m249 79.3.1 2.3a.5.5 0 0 1 -1 0v-.1l.1-2.3a.43.43 0 0 1 .4-.4.51.51 0 0 1 .4.5z" fill="#004e6e"/><path d="m252 78.9v.8m-6.8-.8v.8" fill="none" stroke="#004e6e" stroke-linecap="round" stroke-linejoin="round"/><path d="m268.8 119a8.26 8.26 0 0 1 -2.2-.8l-2.2-.9-4.3-1.8-1.1-.5-.5-.2a3.11 3.11 0 0 1 -.6-.4 2.65 2.65 0 0 1 -.5-.6l-.3-.5-.6-1c-.8-1.3-1.6-2.7-2.4-4l.1.1-.3-.3a.37.37 0 0 0 -.3.1.76.76 0 0 0 -.2.5v.7a.22.22 0 0 1 -.2.2c-.1 0-.1 0-.2-.1a2 2 0 0 1 -.1-1.7 1 1 0 0 1 1-.5 1.05 1.05 0 0 1 .9.5c.9 1.3 1.7 2.6 2.5 4l.6 1 .3.5c.1.2.2.2.3.3s.2.2.3.2l.5.2 1.1.5 4.3 1.9 2.1 1a10.6 10.6 0 0 1 2.1 1.1.44.44 0 0 1 .1.5c0-.1-.1 0-.2 0z" fill="#004e6e"/><path d="m256.4 111.8c-.4-.1-.6-.4-.9-.6a5.55 5.55 0 0 1 -.8-.6 4.38 4.38 0 0 0 -1.9-.7 4.08 4.08 0 0 0 -1.9.1c-.6.2-1.3.5-2 .7-.1 0-.2 0-.2-.1v-.1a3.42 3.42 0 0 1 1.9-1.4 4 4 0 0 1 2.4-.2 5.39 5.39 0 0 1 2.2.9c.3.2.6.5.9.7s.6.5.7.9a.55.55 0 0 1 -.3.5.1.1 0 0 0 -.1-.1z" fill="#004e6e"/><path d="m253.8 112.2c-.4 0-.5-.2-.7-.3a4.35 4.35 0 0 0 -.7-.4 5.73 5.73 0 0 0 -1.4-.4 2.25 2.25 0 0 0 -1.4.1 15.46 15.46 0 0 1 -1.5.4.22.22 0 0 1 -.2-.2v-.1a1.77 1.77 0 0 1 1.4-1.1 3.72 3.72 0 0 1 1.8-.2 4.92 4.92 0 0 1 1.7.6 1.79 1.79 0 0 1 .7.5c.2.2.5.3.6.6s0 .4-.3.5zm9.3 4.2c-.4-.1-.5-.4-.6-.7l-.5-.7c-.3-.5-.6-1.1-.9-1.6a8.65 8.65 0 0 1 -.7-1.7 5.26 5.26 0 0 1 -.4-1.8.22.22 0 0 1 .2-.2h.1a3.6 3.6 0 0 1 1 1.5l.8 1.6.8 1.6.4.8c.1.3.4.5.3.8s-.2.5-.5.4zm-32.3-1.9a20.81 20.81 0 0 1 -.6 3.6c-.2 1.2-.5 2.4-.7 3.6a44 44 0 0 0 -.6 7.3 35.29 35.29 0 0 0 .8 7.2c.5 2.4 1 4.8 1.4 7.2 0 .1 0 .2-.1.2s-.2 0-.2-.1a35.77 35.77 0 0 1 -2-7.1 45.35 45.35 0 0 1 -.9-7.4 30.47 30.47 0 0 1 .7-7.4c.2-1.2.5-2.4.7-3.6a24.18 24.18 0 0 1 1-3.6c.1-.2.3-.3.4-.2a1 1 0 0 1 .1.3zm2.4 9.1a5.7 5.7 0 0 1 -.1 1.3 3.08 3.08 0 0 1 -.5 1.2.19.19 0 0 1 -.3 0 1.74 1.74 0 0 1 -.1-1.4 3.49 3.49 0 0 1 .5-1.3c.1-.2.3-.2.5-.1-.1 0 0 .1 0 .3z" fill="#004e6e"/><path d="m236.6 138-6 10.7" fill="none" stroke="#3895ba" stroke-linecap="round" stroke-linejoin="round"/><path d="m262.8 182.7a12.16 12.16 0 0 1 0 3.3l-.1 3.3c-.1 2.2-.1 4.4-.3 6.6l-.3 6.6a49.06 49.06 0 0 1 -.6 6.6c0 .1-.1.2-.2.1s-.1-.1-.1-.2a48.47 48.47 0 0 1 -.1-6.6l.2-6.6.3-6.6.2-3.3a18.41 18.41 0 0 1 .3-3.3c0-.2.2-.3.4-.2s.3.2.3.3zm-10.3 0c.3 1.1.3 2.2.5 3.3l.3 3.3c.2 2.2.4 4.5.6 6.7l.5 6.7a50 50 0 0 1 .2 6.7.22.22 0 0 1 -.2.2c-.1 0-.1-.1-.2-.1a49.09 49.09 0 0 1 -.9-6.7l-.6-6.7c-.2-2.2-.4-4.5-.5-6.7l-.3-3.3a19 19 0 0 1 -.1-3.4c0-.2.2-.3.4-.3s.3.2.3.3zm15.5-16.9a5 5 0 0 1 -1.2.2h-6a6.61 6.61 0 0 1 -2.4-.3c-.1 0-.1-.1-.1-.2a.1.1 0 0 1 .1-.1 6.61 6.61 0 0 1 2.4-.3h6a1.72 1.72 0 0 1 1.2.2c.2.1.2.3.1.5 0-.1 0 0-.1 0z" fill="#004e6e"/><path d="m267.7 169.5a5.85 5.85 0 0 1 -1.3.2h-3.2a1.7 1.7 0 0 1 -.7-.1 4.07 4.07 0 0 1 -2.5-1.5 3.1 3.1 0 0 1 -.6-1.3 3.3 3.3 0 0 1 0-1.4c0-.1.1-.2.2-.1s.1 0 .1.1a9.74 9.74 0 0 1 .5 1.1c.2.3.3.7.6.9a2.75 2.75 0 0 0 1.9 1h3.7a2 2 0 0 1 1.3.2c.2.1.2.3.1.5s0 .3-.1.4zm-29.9-8.2c-.2.2-.4.1-.6.2h-.6l-1.2.1-1.2.1a2.46 2.46 0 0 1 -1.2-.1c-.1 0-.1-.2-.1-.3v-.1a1.46 1.46 0 0 1 1.2-.5c.4-.1.8-.1 1.2-.2h1.9a.73.73 0 0 1 .6.2.38.38 0 0 1 0 .6z" fill="#004e6e"/><path d="m255.2 64.6c-.3 3.3 2.7 20.8 2.7 20.8 3.3-.2 7.4-11 3.7-18.1-2.3-4.6-6.4-2.7-6.4-2.7z" fill="#c3c4c7"/><path d="m257.2 67.1s-4.2 6.2-6 6.6c-2.6.6-10.9-.2-10.9-.2s1.3-9.3 8.4-10.2 8.2 3.8 8.2 3.8" fill="#c3c4c7"/><path d="m250.9 76.2a1.33 1.33 0 0 1 .9-.6 1.7 1.7 0 0 1 1 0 3.15 3.15 0 0 1 1.7.9.45.45 0 0 1 0 .5c-.1.1-.2.1-.4 0h-.1a5.73 5.73 0 0 0 -1.4-.4 1.9 1.9 0 0 0 -1.3.1h-.1c-.2.1-.4 0-.4-.2a.37.37 0 0 0 .1-.3zm-5.2.5a4.89 4.89 0 0 0 -1.3-.1 5.73 5.73 0 0 0 -1.4.4h-.1c-.2.1-.4 0-.4-.2v-.4a2.61 2.61 0 0 1 1.7-.9 1.7 1.7 0 0 1 1 0 1.8 1.8 0 0 1 .9.6.44.44 0 0 1 -.1.5c0 .2-.1.2-.3.1zm4.5 7.2a1.58 1.58 0 0 1 -.7.7 2.13 2.13 0 0 1 -1.8 0 1.58 1.58 0 0 1 -.7-.7c-.1-.2 0-.4.2-.4a.37.37 0 0 1 .3.1 1.69 1.69 0 0 0 1 .3 2 2 0 0 0 1.1-.3h.1a.44.44 0 0 1 .5.1c.1 0 .1.1 0 .2z" fill="#004e6e"/><path d="m255.5 68.1s.4 2.9-2.8 5.7" fill="none" stroke="#c3c4c7" stroke-linecap="round" stroke-linejoin="round"/><path d="m237.3 106.8c-.3 1.3-.7 2.5-.9 3.7a9.26 9.26 0 0 0 .2 3.7 26 26 0 0 0 1.3 3.6c.1.3.2.7.3 1.1s0 .7.1 1v2c-.1 2.6-.3 5.3-.5 7.9a69 69 0 0 1 -.9 7.8c0 .1-.1.2-.2.1s-.1-.1-.1-.2a69.47 69.47 0 0 1 .2-7.9c.2-2.6.3-5.2.4-7.9v-2.9a2.35 2.35 0 0 0 -.2-.8 33.74 33.74 0 0 1 -1.3-3.8 11.31 11.31 0 0 1 -.1-4.1 10.1 10.1 0 0 1 1.3-3.8c.1-.2.3-.2.5-.1-.2.3-.1.4-.1.6z" fill="#004e6e"/><path d="m268.8 162.1 15.5-7.2c-2.6-9.1-10.4-19.3-13.5-23.1a2.59 2.59 0 0 0 -3.1-.7l-7.3 3.8a2.5 2.5 0 0 0 -1.3 2.9c1.3 4.7 4.8 16.4 9.7 24.3z" fill="#fff"/><path d="m268.8 161.8.1-.1c2.6-1.4 5.1-2.6 7.6-3.8l7.6-3.6-.3.6c-1.6-5.4-4.5-10.3-7.6-15-1.6-2.3-3.3-4.6-5-6.8l-.7-.8a1.7 1.7 0 0 0 -.6-.6 1.84 1.84 0 0 0 -1.6-.2.76.76 0 0 0 -.4.2l-.5.2-.9.5-1.9 1-3.8 2a1.84 1.84 0 0 0 -1.1 1.2 2.49 2.49 0 0 0 -.1.8 2.92 2.92 0 0 0 .2.9c.8 2.7 1.6 5.4 2.6 8.1s1.9 5.3 3 7.9c.5 1.3 1.1 2.6 1.7 3.9.3.6.6 1.3.9 1.9a13 13 0 0 0 .8 1.7zm0 .6-.1-.1a19.93 19.93 0 0 1 -1.2-1.9c-.4-.6-.7-1.2-1.1-1.9-.7-1.3-1.3-2.5-1.9-3.8-1.2-2.6-2.2-5.3-3.2-7.9s-1.8-5.4-2.6-8.1c-.1-.3-.2-.7-.3-1.1a5.7 5.7 0 0 1 .1-1.3 3 3 0 0 1 1.7-1.8l3.8-2 1.9-1 .9-.5.5-.2a1.42 1.42 0 0 1 .6-.2 3.15 3.15 0 0 1 2.5.4 3.63 3.63 0 0 1 .9.8l.7.8q2.7 3.3 5.1 6.9a59.42 59.42 0 0 1 7.7 15.3c.1.2-.1.5-.3.6l-7.9 3.6c-2.7 1.2-5.3 2.3-7.8 3.4z" fill="#187aa2"/><path d="m271.8 112.8a38.11 38.11 0 0 1 2.3 4.5 38.47 38.47 0 0 1 1.9 4.7 11.18 11.18 0 0 1 .8 5.2 4.07 4.07 0 0 1 -1.3 2.5 3.74 3.74 0 0 1 -1.2.7l-.6.3a1.7 1.7 0 0 1 -.7.1 5.92 5.92 0 0 1 -2.7-.5 16.65 16.65 0 0 1 -2.3-1.2 31.49 31.49 0 0 1 -4.1-3.1 61.2 61.2 0 0 1 -7.2-7.2l.4.2a4.56 4.56 0 0 1 -2.9-1.3 5.57 5.57 0 0 1 -1.5-2.7c-.2-.9-.5-1.7-1.3-1.9a3.88 3.88 0 0 0 -2.5.6c-.1 0-.2 0-.2-.1v-.2a5.67 5.67 0 0 1 1.3-.8 2.85 2.85 0 0 1 1.6-.2 2.3 2.3 0 0 1 1.4.9 5.34 5.34 0 0 1 .6 1.4 3.55 3.55 0 0 0 1.3 2.2 4 4 0 0 0 2.3 1 .76.76 0 0 1 .4.2 59.53 59.53 0 0 0 7.2 7 37.92 37.92 0 0 0 4 3 15.05 15.05 0 0 0 2.2 1.1 5.85 5.85 0 0 0 2.2.5 1.93 1.93 0 0 0 1-.3c.4-.1.6-.4.9-.6a2.75 2.75 0 0 0 1-1.9 11.22 11.22 0 0 0 -.7-4.7 46.23 46.23 0 0 0 -1.9-4.7c-.7-1.5-1.4-3-2-4.6-.1-.2 0-.4.2-.4-.2.1 0 .1.1.3zm-17.6 98.2a1.06 1.06 0 0 0 1 .9c12.7.1 16 1.6 16.7-.8.6-2-12.8-4.9-17-5.4a1 1 0 0 0 -1.1 1.1zm-18.2-28.7a10.21 10.21 0 0 1 .3 3l.2 3 .4 5.9.3 5.9a40.06 40.06 0 0 1 0 6 .22.22 0 0 1 -.2.2c-.1 0-.1-.1-.2-.1a39.55 39.55 0 0 1 -.7-5.9l-.4-5.9-.3-5.9-.1-3a15 15 0 0 1 0-3c0-.2.2-.3.4-.3s.3 0 .3.1zm14-21.7c0 2-.3 4-.5 6l-.7 6c-.5 4-.9 8-1.4 12l-1.5 12c-.5 4-1 8-1.8 12 0 .1-.1.2-.2.1s-.1-.1-.1-.2c.2-4 .6-8.1 1.1-12.1l1.4-12 1.5-12 .7-6c.3-2 .4-4 .9-6 0-.2.2-.3.4-.2a.52.52 0 0 1 .2.4z" fill="#004e6e"/><path d="m244.6 211a1.06 1.06 0 0 1 -1 .9c-12.7.1-16 1.6-16.7-.8-.6-2 12.8-4.8 17.1-5.4a1 1 0 0 1 1.1 1.1zm2.7-122.6c.2.1.2.2.2.3v1a4.71 4.71 0 0 1 -.6 1.5 2.58 2.58 0 0 1 -1.3.8 5.64 5.64 0 0 0 -1.2.4 22.88 22.88 0 0 0 -2.3 1 22.88 22.88 0 0 1 -2.3 1c-.1 0-.2 0-.2-.1v-.2a6.52 6.52 0 0 1 2.1-1.6 25.57 25.57 0 0 1 2.4-1.1 5 5 0 0 1 1.3-.4 2.18 2.18 0 0 0 .8-.5 1.23 1.23 0 0 0 .4-.8v-.9c0-.1 0-.2.2-.3s.3-.2.5-.1z" fill="#004e6e"/><path d="m255.7 88.5c.2 1 .3 2 .4 3 0 .1-.1.3-.2.3-.9.6-1.7 1.3-2.6 1.9l-2.7 1.8a.64.64 0 0 1 -.6 0c-.9-.6-1.8-1.2-2.7-1.9s-1.7-1.3-2.6-2a.19.19 0 0 1 0-.3c.1-.1.2-.1.2 0a25.43 25.43 0 0 1 2.8 1.6c.9.5 1.8 1.1 2.7 1.7h-.6l2.7-1.8c.9-.6 1.8-1.2 2.7-1.7l-.2.4c.1-1 .2-2 .4-3a.19.19 0 0 1 .3 0z" fill="#004e6e"/><path d="m298.9 185.8c0-10.1.2-15.5 6.6-21.6" fill="none" stroke="#c3c4c7" stroke-miterlimit="10" stroke-width=".88"/><path d="m298.4 179.5-.1-.1-.2-.3c-.1-.2-.3-.3-.4-.5a6.47 6.47 0 0 0 -.9-.8 5.38 5.38 0 0 0 -2-1 4.12 4.12 0 0 0 -2.2.1 4.87 4.87 0 0 0 -1.1.4.82.82 0 0 0 -.5.5.88.88 0 0 0 .1.7 3 3 0 0 0 .8.8 5.38 5.38 0 0 0 2 1 4.48 4.48 0 0 0 2.3 0c.4-.1.8-.2 1.1-.3a2.19 2.19 0 0 0 .5-.3l.3-.2zm.3.3-.2.2-.3.2c-.2.1-.4.3-.6.4l-1.2.6a5 5 0 0 1 -2.7.2 6.6 6.6 0 0 1 -2.6-1.1 4.74 4.74 0 0 1 -1-1 1.79 1.79 0 0 1 -.3-1.7 1.82 1.82 0 0 1 1.1-1.3 6.94 6.94 0 0 1 1.3-.5 6.61 6.61 0 0 1 2.8 0 4.69 4.69 0 0 1 2.4 1.5 4.44 4.44 0 0 1 .8 1.1l.3.6.1.3v.4z" fill="#a7aaad"/><path d="m306.7 181a1.67 1.67 0 0 0 .4-1.1.76.76 0 0 0 -.2-.5l-.4-.4a5.13 5.13 0 0 0 -2.4-1 4.51 4.51 0 0 0 -2.5.5 6.18 6.18 0 0 0 -2 1.5v-.7a5.71 5.71 0 0 0 1.3 1.4 3.7 3.7 0 0 0 1.8.8 6.31 6.31 0 0 0 4-.5zm.2.3a5.79 5.79 0 0 1 -4.4 1.3 5 5 0 0 1 -2.3-.9 6.86 6.86 0 0 1 -1.7-1.7.85.85 0 0 1 0-.7 6.27 6.27 0 0 1 5.7-2.5 5.33 5.33 0 0 1 2.8 1.4 1.79 1.79 0 0 1 .5.7 2.92 2.92 0 0 1 .2.9 2.44 2.44 0 0 1 -.8 1.5zm1-6.3a1.61 1.61 0 0 0 .5-1.1.76.76 0 0 0 -.2-.5c-.1-.1-.2-.3-.4-.4a5.67 5.67 0 0 0 -2.3-1.2 5.39 5.39 0 0 0 -2.5.3 6.36 6.36 0 0 0 -2.2 1.4l.1-.7a5.66 5.66 0 0 0 1.2 1.5 5.85 5.85 0 0 0 1.7 1 7.27 7.27 0 0 0 4.1-.3zm.1.3a5.51 5.51 0 0 1 -4.5.9 5.08 5.08 0 0 1 -2.2-1.1 6.9 6.9 0 0 1 -1.6-1.8.62.62 0 0 1 .1-.7 7.12 7.12 0 0 1 2.7-1.8 5.78 5.78 0 0 1 3.2-.2 4.84 4.84 0 0 1 2.7 1.7 1.79 1.79 0 0 1 .5.7 2.77 2.77 0 0 1 .1.9 2.07 2.07 0 0 1 -1 1.4zm2.7-5.4a1.2 1.2 0 0 0 .7-1v-.5c-.1-.2-.2-.3-.3-.5a6.14 6.14 0 0 0 -1.9-1.7 7.27 7.27 0 0 0 -2.5-.4 6.81 6.81 0 0 0 -2.4.8l.2-.7a5.31 5.31 0 0 0 .8 1.7 5.71 5.71 0 0 0 1.4 1.3 5.49 5.49 0 0 0 4 .7zm.1.3a6.14 6.14 0 0 1 -4.6-.2 7 7 0 0 1 -1.9-1.5 5.7 5.7 0 0 1 -1.1-2.2.48.48 0 0 1 .2-.6 6.42 6.42 0 0 1 3-1.1 5.92 5.92 0 0 1 3.2.6 4.48 4.48 0 0 1 2.2 2.3 1.91 1.91 0 0 1 .3.8 2.77 2.77 0 0 1 -.1.9 1.7 1.7 0 0 1 -1.3 1z" fill="#a7aaad"/><path d="m300 172.6v-.1l-.1-.3c-.1-.2-.1-.4-.2-.6a5.36 5.36 0 0 0 -.5-1.1 4.1 4.1 0 0 0 -1.6-1.6 5.22 5.22 0 0 0 -2.1-.7h-1.1a.85.85 0 0 0 -.6.3.82.82 0 0 0 -.1.7c.1.3.3.7.4 1a4.1 4.1 0 0 0 1.6 1.6 5.84 5.84 0 0 0 2.2.8 4.87 4.87 0 0 0 1.2.1 1.27 1.27 0 0 0 .6-.1l.3-.1zm.2.4-.3.1-.3.1c-.2.1-.4.1-.6.2a6.15 6.15 0 0 1 -1.4.1 6.77 6.77 0 0 1 -2.7-.7 5.58 5.58 0 0 1 -2.6-3.2 1.75 1.75 0 0 1 .3-1.7 2.37 2.37 0 0 1 1.5-.9h1.4a4.9 4.9 0 0 1 2.6 1 4.14 4.14 0 0 1 1.7 2.2 6.47 6.47 0 0 1 .4 1.3zm3.4-7.1v-.4c0-.2-.1-.4-.1-.6a3.58 3.58 0 0 0 -.4-1.1 4.63 4.63 0 0 0 -1.3-1.8 5.38 5.38 0 0 0 -2-1c-.2 0-.4-.1-.6-.1h-.5a1 1 0 0 0 -1 1 2.65 2.65 0 0 0 .3 1 4.63 4.63 0 0 0 1.3 1.8 5.64 5.64 0 0 0 2 1.1 5 5 0 0 0 1.2.2h.9zm.1.4-.3.1-.3.1c-.2 0-.4.1-.7.1a5.7 5.7 0 0 1 -1.3-.1 4.72 4.72 0 0 1 -2.5-1.1 4.14 4.14 0 0 1 -1.7-2.2 3 3 0 0 1 -.4-1.5 2.27 2.27 0 0 1 .6-1.6 2.33 2.33 0 0 1 1.5-.7h.7c.2 0 .5.1.7.1a5.85 5.85 0 0 1 2.4 1.4 4.52 4.52 0 0 1 1.4 2.4 5.7 5.7 0 0 1 .1 1.3 2 2 0 0 1 -.1.7l-.1.3z" fill="#a7aaad"/><path d="m298.8 185.8a39 39 0 0 1 -.4-5.9 28.8 28.8 0 0 1 .6-5.9 18.39 18.39 0 0 1 2.3-5.6 18.76 18.76 0 0 1 4-4.4.21.21 0 0 1 .3.3 28.68 28.68 0 0 0 -3.4 4.6 16.15 16.15 0 0 0 -2 5.3 37 37 0 0 0 -.7 5.7 56.74 56.74 0 0 1 -.5 5.8c0 .2-.1.3-.2.1z" fill="#a7aaad"/><path d="m296.7 185.7 10.2-.3a.43.43 0 0 1 .4.4v.2c-.9 2-1.9 4-2.9 5.9v-.5a24.09 24.09 0 0 1 2.4 6.3 18.87 18.87 0 0 1 .6 6.7 9.5 9.5 0 0 1 -3.1 6.1 10.6 10.6 0 0 1 -6.6 2.1v-1.3h.2a.6.6 0 1 1 0 1.2 10.6 10.6 0 0 1 -6.6-2.1 8.66 8.66 0 0 1 -3.1-6.1 18.66 18.66 0 0 1 .6-6.7 34.13 34.13 0 0 1 2.4-6.3v.5l-2.9-5.9a.48.48 0 0 1 .2-.6h.2l10.2.2v.5h-2.2zm0-.1h2.2a.32.32 0 0 1 .3.3.27.27 0 0 1 -.3.3l-10.2.2.4-.6 3.1 5.8a.45.45 0 0 1 0 .5 26.14 26.14 0 0 0 -2.2 6.1 17 17 0 0 0 -.5 6.3 7.62 7.62 0 0 0 2.7 5.3 9.11 9.11 0 0 0 5.8 1.8v1.3h-.2a.58.58 0 0 1 -.6-.6.65.65 0 0 1 .6-.6 9.1 9.1 0 0 0 5.8-1.8 7.62 7.62 0 0 0 2.7-5.3 16.84 16.84 0 0 0 -.5-6.3 34.24 34.24 0 0 0 -2.2-6.1.45.45 0 0 1 0-.5c1-1.9 2-3.9 3.1-5.8l.4.6-10.2-.3v-.6z" fill="#c3c4c7"/></svg>
