<svg enable-background="new 0 0 400 250" height="250" viewBox="0 0 400 250" width="400" xmlns="http://www.w3.org/2000/svg"><path d="m40.2 211.1c26.6-.6 53.3-.7 79.9-.8l79.9-.1c53.3.1 106.6.1 159.8.7.2 0 .4.2.4.4s-.2.4-.4.4c-53.3.7-106.6.6-159.8.7l-79.9-.1c-26.6-.1-53.3-.3-79.9-.8-.1 0-.2-.1-.2-.2s.1-.2.2-.2z" fill="#a7aaad"/><path d="m123.1 94.3h23.3v59.1h-23.3zm36.9 25.4h57.2v33.7h-57.2zm0-25.4h57.2v10.4h-57.2z" style="fill:none;stroke:#a7aaad;stroke-linecap:round;stroke-linejoin:round;stroke-miterlimit:10;stroke-dasharray:5 5"/><path d="m106.7 167.3c-.4-28-.7-56-.8-84l-.1-10.5v-5.3c0-.9.1-1.9.4-2.9.3-.9.8-1.8 1.3-2.6 1.2-1.6 2.9-2.7 4.9-3.2 1-.2 2-.2 2.8-.2h13.1l42-.1 42-.1h13.1c.8 0 1.9 0 2.9.2 2 .4 3.7 1.6 5 3.2.6.8 1.1 1.7 1.4 2.7.3.9.4 2 .4 2.9v15.8l-.1 84c0 .5-.4 1-1 1l-58.6-.2-29.3-.1-29.3-.2c-.2 0-.4-.2-.4-.4s.2-.4.4-.4l29.3-.2 29.3-.1 58.6-.2-1 1-.1-84v-15.8c0-.8-.1-1.5-.3-2.3-.2-.7-.6-1.4-1-2-.9-1.2-2.2-2.1-3.7-2.4-.7-.2-1.4-.2-2.4-.2h-13.1l-42-.1-42-.1h-13.1c-.9 0-1.6 0-2.4.2-1.5.3-2.8 1.2-3.8 2.4-.5.6-.8 1.3-1.1 2-.2.8-.3 1.5-.3 2.3v15.8c0 28-.2 56-.5 84 0 .1-.1.2-.2.2-.2 0-.3 0-.3-.1z" fill="#a7aaad"/><path d="m233.9 79.1h-133.6m59 71.2c4.7-8.7 11.7-11.3 15.5-11.3 8.8 0 12.2 4.8 19.6 4.8s11.4-11.5 22.9-11.5" style="fill:none;stroke:#a7aaad;stroke-linecap:round;stroke-linejoin:round;stroke-miterlimit:10;stroke-dasharray:5 5"/><path d="m251.8 186.6s.2 20.1-1.1 20.8c-.6.3-1.2.6-1.8 1-1 .7-.6 2.2.6 2.3 1 .1 3.3.2 4.5.1 1.9-.2 2.4-1.6 2.7-3.6l2.9-20.6m6.4.5s8.1 18.4 7.1 19.6c-.4.5-.9 1-1.3 1.6-.6 1 .3 2.2 1.4 1.9 1-.3 3.1-1.1 4.2-1.7 1.7-.9 1.6-2.5 1.1-4.3l-5.4-20.1" fill="#004e6e"/><path d="m264.2 131.1c3.4-1.2 9.6-.1 13.4 9.9 3.3 8.7 2.9 19.4-4.1 21.3-4.1 1.1-9.3-31.2-9.3-31.2z" fill="#3895ba"/><path d="m251.8 187.8h27.2c-3.1-20.6-8.1-41.3-8.1-41.3l-6.6-15.4s-.5-1.4-3.9.3c-7 3.5-8.3 41.1-8.6 56.4zm72.5-55.7-3.3 5-61.4-51.7 8-7.5 55.8 47c2.1 1.7 2.5 4.8.9 7.2z" fill="#c3c4c7"/><ellipse cx="246.6" cy="63.9" rx="21.7" ry="21.7" style="fill:none;stroke:#c3c4c7;stroke-width:8;stroke-linecap:round;stroke-linejoin:round;stroke-miterlimit:10" transform="matrix(.552 -.834 .834 .552 57.226 234.261)"/><path d="m284.5 100.9 6.2-18.2 9.4 5.9-8.9 15.2z" fill="#fff"/><path d="m312 154.3c17.8 16.3 19.1 22.9 23.8 37.1l-12.1 11.7-12.1-18.2" fill="#3895ba"/><path d="m293.8 126.6c-8.2 23.8-8.8 30.4-1.1 43.9z" fill="#3895ba"/><path d="m290.7 82.7 11.6 8.2-11.1 12.9 1.7 19.2h24.1s3.5-4.8 3.8-11-4.3-38.6-15.5-39.9c-11.3-1.4-14.6 10.6-14.6 10.6z" fill="#004e6e"/><path d="m98.7 193.9 3.9 10.3-7.2 4.3s-6.5-8-16.9-30.5" fill="#fff"/><path d="m99.2 193.7 4.3 10.2c.2.4 0 .8-.4 1l-3.6 2.1c-1.2.7-2.4 1.4-3.6 2.2-.3.2-.7.1-1-.2-1.8-2.4-3.3-4.9-4.8-7.4s-2.9-5.1-4.3-7.7-2.7-5.2-4-7.8-2.5-5.3-3.7-7.9c-.1-.3 0-.5.2-.7.2-.1.5 0 .7.2 1.2 2.6 2.5 5.2 3.8 7.8s2.7 5.2 4.1 7.7c1.4 2.6 2.8 5.1 4.4 7.5 1.5 2.5 3.1 4.9 4.8 7.2l-1-.2 3.6-2.1c1.2-.7 2.4-1.4 3.5-2.2l-.3 1-3.6-10.4c-.1-.3 0-.5.3-.6.2 0 .5.1.6.3z" fill="#004e6e"/><path d="m94.1 207c3.4-1.9 13.9-7.4 15.7-7.7 1.8-.4 2.1-.2.5 1.3l-14.7 8.9z" fill="#004e6e" stroke="#004e6e" stroke-miterlimit="10" stroke-width=".7347"/><path d="m86.6 199.4-1.7 11.1h-9s-1.4-10.3 1.3-34.9" fill="#fff"/><path d="m87.1 199.5-1.4 11.1c-.1.4-.4.7-.8.7-1.5-.1-3-.1-4.5-.1h-4.5c-.4 0-.7-.3-.7-.7-.3-3-.3-5.9-.3-8.8s.1-5.9.3-8.8l.6-8.7.9-8.7c0-.3.3-.5.6-.4.3 0 .5.3.4.5-.3 2.9-.6 5.8-.8 8.7s-.4 5.8-.5 8.7-.2 5.8-.2 8.7.1 5.8.4 8.6l-.8-.7h4.5s3 0 4.5-.1l-.8.7 2.1-11c.1-.3.3-.5.6-.4.2.2.4.5.4.7zm5.7-48.3 7.9 46.7-13.7 3.4" fill="#004e6e"/><path d="m76.5 125c-5.2 22.3-2 35.5-2.6 40.6-.7 5.1-4.3 26.2-3.5 33.6l16.6 2.2 9-65.5" fill="#3895ba"/><path d="m99.3 90.2c.8.5 1.3.6 2.3.9 4 1 7.5-.9 9.4-4.2.5-.9 2.5-.6 2.8-1.7.4-1.5-1.9-2.8-1.5-5.8.4-3.4-2.4-6.2-6.1-7.1-5.2-1.3-10.4 1.9-11.7 7.1" fill="#fff"/><path d="m99.6 89.7c.4.2.8.4 1.3.5s1 .2 1.4.3c.9.1 1.9.1 2.8-.1 1.8-.4 3.3-1.5 4.4-3l.4-.6.2-.3c.1-.1.1-.1.3-.4.3-.4.7-.6 1-.7s.6-.2.8-.3l.6-.2.1-.1v-.2s-.1-.2-.1-.4c-.3-.7-1-1.8-1.3-2.9-.1-.6-.2-1.2-.1-1.8l.1-.7v-.6c-.1-1.6-1.3-3.1-2.9-4.1-1.6-.9-3.4-1.4-5.3-1.3-3.8.2-7.3 2.9-8.3 6.7-.1.3-.4.4-.6.3-.3-.1-.4-.3-.4-.6.4-2.1 1.5-4.1 3.2-5.5 1.6-1.5 3.7-2.4 5.9-2.6s4.4.3 6.4 1.4c1 .6 1.9 1.3 2.6 2.2s1.2 2.1 1.3 3.3c0 .3.1.6 0 .9v.8c0 .4 0 .8.1 1.2.2.8.6 1.5 1.1 2.6.2.5.5 1.4 0 2.3-.3.5-.7.7-1 .9l-.9.3c-.5.1-.9.3-.8.3 0-.1-.1.1-.2.2l-.2.3c-.2.2-.3.4-.5.7-1.4 1.7-3.4 3-5.6 3.4-1.1.2-2.2.1-3.3-.1l-1.5-.4c-.5-.2-1-.5-1.5-.8-.2-.2-.3-.5-.1-.7.1-.2.4-.3.6-.2zm195.7-20c-.5.3-1 .6-1.6.7-.6.2-1.1.3-1.6.4-1.1.2-2.3.2-3.5 0-2.3-.5-4.4-1.9-5.7-3.8l-.5-.7-.2-.4c-.1-.1-.2-.3-.2-.3s-.4-.2-.9-.4l-.9-.3c-.3-.2-.8-.4-1-.9-.5-1-.1-1.9.1-2.4.6-1.1 1.1-1.8 1.3-2.7.1-.4.2-.9.2-1.3v-.8c0-.3 0-.6.1-.9.2-1.3.8-2.4 1.5-3.4.8-.9 1.8-1.7 2.8-2.2 2.1-1.1 4.5-1.5 6.8-1.2s4.5 1.4 6.1 3c1.7 1.6 2.7 3.7 3.1 6 0 .3-.1.5-.4.6-.3 0-.5-.1-.6-.4-.9-4-4.5-7.1-8.4-7.4-1.9-.2-4 .2-5.7 1.2-1.7.9-3 2.4-3.3 4.2 0 .2-.1.4 0 .7v.8c0 .6 0 1.3-.2 1.9-.3 1.2-1.1 2.3-1.5 3-.1.2-.2.4-.2.5v.2l.2.1c.1.1.4.2.6.2.3.1.5.2.9.3.3.1.7.4 1 .8.2.3.2.3.3.4l.2.3.4.6c1.1 1.6 2.7 2.9 4.6 3.4.9.2 1.9.3 2.9.2.5 0 1-.1 1.5-.2s.9-.3 1.4-.5c.2-.1.5 0 .7.2 0 .1-.1.4-.3.5z" fill="#004e6e"/><path d="m75.4 208.5c3.9.1 15.7.9 17.5 1.5s1.9.9-.3 1.4c-2.1.5-17.2 0-17.2 0z" fill="#004e6e" stroke="#004e6e" stroke-miterlimit="10" stroke-width=".7347"/><path d="m107.4 87.6c.7.6 1.5.8 1.5.8" fill="none" stroke="#004e6e" stroke-linecap="round" stroke-linejoin="round" stroke-miterlimit="10"/><path d="m107.7 83.7c-.3-.1-.4-.5-.3-.8l.4-.9c.1-.3.5-.4.8-.3s.4.5.3.8l-.4.9c-.1.3-.5.4-.8.3z" fill="#004e6e"/><path d="m97.9 124.6-1.9 11.2-25.7-5.4s6.9-39 21.2-39.1c4.6 0 9.3 3.5 8.5 10.9" fill="#3895ba"/><path d="m98.5 106c2.5-6.1 5.5-12.5 10.3-13.8s.7 5.4-1.8 7.6c-.4 2.8 2.7 21-8.9 20.9-14.8-.1-13.7-24.4-7.6-25.9 5.4-1.3 6.2 7.3 8.6 15.2" fill="#fff"/><path d="m98 105.8c.9-2.2 1.8-4.4 2.9-6.6 1.1-2.1 2.5-4.2 4.4-5.9 1-.8 2.1-1.5 3.4-1.8.3-.1.7-.2 1-.2.4 0 .8 0 1.3.3s.7.9.8 1.3c0 .4 0 .8-.1 1.1-.3 1.3-1 2.4-1.6 3.5-.7 1-1.4 2-2.4 2.9l.3-.6c-.1.6 0 1.5 0 2.3v2.5c0 1.7 0 3.3-.2 5s-.4 3.3-1 5c-.5 1.6-1.3 3.2-2.6 4.5s-3.1 2.1-4.8 2.2c-1.8.2-3.5 0-5.2-.6s-3.2-1.6-4.4-2.8c-1.2-1.3-2.1-2.8-2.8-4.4-1.3-3.2-1.7-6.6-1.5-10 .1-1.7.4-3.4.9-5 .3-.8.6-1.6 1.1-2.4.5-.7 1.1-1.5 2.1-1.9.2-.1.5-.2.7-.2s.5-.1.7-.1c.5-.1 1 0 1.5.1 1 .2 1.8.9 2.4 1.6 1.1 1.4 1.7 3.1 2.2 4.6 1 3.2 1.6 6.4 2.5 9.5.1.3-.1.5-.3.6-.3.1-.5-.1-.6-.3l-2.7-9.4c-.5-1.5-1.1-3-2-4.2-.5-.6-1-1-1.6-1.1-.3-.1-.6-.1-1 0l-.5.1s-.3.1-.4.2c-1.1.6-1.9 2.1-2.4 3.5-.5 1.5-.8 3-.9 4.6-.2 3.2.2 6.4 1.4 9.3s3.3 5.4 6.2 6.3c2.8.9 6.4.8 8.4-1.3 1.1-1 1.7-2.4 2.2-3.9s.7-3.1.8-4.7.1-3.2.1-4.8l-.1-2.4c0-.8-.1-1.6 0-2.6 0-.2.1-.4.2-.5l.1-.1c.8-.7 1.6-1.6 2.2-2.5s1.3-1.9 1.5-2.9c.1-.2.1-.5.1-.6 0-.2 0-.2-.1-.2-.1-.1-.7-.1-1.2 0-1 .3-2 .8-2.9 1.5-1.7 1.4-3.1 3.4-4.2 5.4s-2.1 4.2-3 6.4c-.1.3-.4.4-.7.3-.2-.1-.3-.4-.2-.6zm-4.4-23.3c0 3.1 13.5 1.3 17.4-8.4 0 0-8.1-4.4-12.4-1.5-4.4 3.1-5 6.8-5 9.9zm7.3 8.4-1.7 2.8-.1-3.5" fill="#004e6e"/><path d="m101.2 91c-.4 1-1 2-1.5 2.9-.1.2-.4.3-.7.2-.1-.1-.2-.3-.2-.4v-1.7c0-.6.1-1.2.2-1.7 0-.1.2-.2.3-.2s.2.1.2.2c.1.6.2 1.2.2 1.7 0 .6.1 1.2.1 1.7l-.9-.3c.6-.9 1.2-1.8 2-2.7.1-.1.3-.1.4 0-.1.1-.1.2-.1.3zm-5.5-24.6c-5.7 3.1-1 9.8 4.4 7.2s1.4-10.3-4.4-7.2zm-2.6-6.3c-4.6 2.5-1.1 8.8 3.2 6.7s1.5-9.3-3.2-6.7z" fill="#004e6e"/><path d="m83.8 133.5c.1 1.5.1 4.5.5 7.5" fill="#fff"/><path d="m84.3 133.5c.2 1.3.3 2.5.4 3.7s.2 2.5.1 3.7c0 .3-.2.5-.5.5-.2 0-.4-.2-.5-.4-.4-1.2-.5-2.5-.6-3.8s0-2.5.1-3.8c0-.3.3-.5.6-.5.2.2.4.4.4.6z" fill="#004e6e"/><path d="m302.3 90.9s-9.1 21.7-14.4 22.6-14.7-11.2-18.5-15c-7.1-.6-8.6-9.9-7-11.1 2.4-1.7 6 5.5 7.5 4.4s-2-4.2-.7-5.3c1.2-1 4.8 2.5 5.7 6.2.2.8.7 1.4 1.4 1.7 5.3 2 10.1 4.6 10.1 4.6" fill="#fff"/><path d="m302.8 91.1c-1.6 4-3.4 8-5.4 11.8-1 1.9-2.1 3.8-3.3 5.7-.6.9-1.2 1.8-1.9 2.7s-1.5 1.7-2.5 2.4c-.2.2-.6.3-.9.5-.3.1-.7.3-1 .3-.7.1-1.3 0-1.9-.2-1.2-.3-2.2-.9-3.2-1.5-1.9-1.2-3.6-2.7-5.2-4.2s-3.1-3.1-4.5-4.7c-1.5-1.6-2.9-3.3-4.3-4.8l.6.3c-1.2-.1-2.5-.5-3.5-1.1-1.1-.6-2-1.5-2.7-2.5s-1.3-2.1-1.6-3.2c-.4-1.1-.6-2.3-.6-3.5 0-.3 0-.6.1-1 .1-.3.2-.7.5-1.1l.3-.3.3-.2c.2-.1.4-.2.7-.2.5-.1.9 0 1.3.1.7.3 1.2.6 1.7 1s.9.8 1.3 1.2c.8.8 1.5 1.7 2.2 2.2.2.1.3.2.4.2h-.1v-.2c0-.1-.1-.4-.2-.6-.2-.4-.4-.9-.7-1.4-.1-.3-.3-.5-.4-.9-.1-.3-.2-.7-.1-1.3s.6-1 1.1-1.1 1 0 1.3.1c.7.3 1.2.6 1.6 1 .9.8 1.6 1.7 2.2 2.7.3.5.6 1 .8 1.6.1.3.2.6.3.8l.2.8c.1.4.4.7.7.9.1 0 .2.1.2.1l.4.2.8.3 3 1.3c2 .9 4 1.9 5.9 3 .2.1.3.4.2.7-.1.2-.4.3-.7.2-1.9-1-3.9-1.9-5.9-2.8l-3-1.2-.8-.3-.4-.1-.5-.2c-.6-.4-1.1-1-1.3-1.6l-.2-.8-.3-.7c-.2-.5-.4-.9-.7-1.4-.5-.9-1.2-1.7-1.9-2.3-.4-.3-.8-.6-1.1-.7-.2-.1-.3-.1-.3-.1s.1.6.3 1c.2.5.5.9.8 1.5.1.3.2.6.3 1s0 1-.3 1.4c-.2.2-.3.4-.6.5-.3.2-.7.2-.9.1-.5-.1-.8-.3-1.1-.5-1-.8-1.7-1.6-2.5-2.4-.7-.7-1.6-1.5-2.2-1.7-.2-.1-.3-.1-.3 0h-.2s-.1.2-.1.4-.1.4-.1.7c0 1.9.7 4 1.9 5.6s2.9 2.6 4.8 2.8c.2 0 .5.1.6.3 3 3.2 5.7 6.5 8.8 9.4 1.5 1.5 3.1 2.9 4.8 4s3.7 2 5 1c.8-.5 1.5-1.2 2.2-2s1.3-1.6 1.9-2.5c1.2-1.7 2.3-3.6 3.3-5.5 2.1-3.7 4-7.6 5.8-11.5.1-.3.4-.4.7-.2.1.2.2.5.1.7z" fill="#004e6e"/><path d="m279.1 50.4c-.3 4.4 4.1 5.1 6.4 6.8 2.4 1.8 2.5 4 4.8 4.6s3.3-.5 6.1.1c2.6.5 3.5 2.3 6.5 1.8 2.4-.4 4.1-1.4 4.5-4.9s-1.4-4-2.1-7.3-.8-5.1-4.1-6.2c-3-1-4.4 0-6.9-.9s-3.4-2.1-6.2-1.9c-1.9.1-3 1-4.6 2.9-1.7 1.8-4.2 1.3-4.4 5z" fill="#3895ba"/><path d="m285.3 65.5c-.9.5-1.5.8-1.5.8" fill="none" stroke="#004e6e" stroke-linecap="round" stroke-linejoin="round" stroke-miterlimit="10"/><path d="m285.9 61.6c.3-.1.5-.4.5-.8l-.3-1c-.1-.3-.4-.5-.8-.5-.3.1-.5.4-.5.8l.3 1c.2.4.5.6.8.5z" fill="#004e6e"/><path d="m293.9 123-1.2 85.6 15.2-2.1s6.3-22.1 5.3-34.3c-1.9-22.6 4.7-34 3.8-49.2" fill="#fff"/><path d="m294.4 123.1-.4 42.8-.2 21.4c0 7.1-.3 14.3-.4 21.4l-.9-.8 15.2-2.1-.6.5c1.8-6.7 3.4-13.6 4.4-20.5.5-3.4.9-6.9 1-10.4 0-1.7-.1-3.4-.2-5.2s-.2-3.5-.2-5.3c0-3.5.1-7.1.5-10.6s.9-7 1.5-10.5c1.2-6.9 2.6-13.8 2.2-20.8 0-.3.2-.5.5-.5s.5.2.5.5c.5 7.1-.9 14.1-2 21-.6 3.5-1.1 6.9-1.5 10.4s-.5 7-.5 10.4c0 1.7.1 3.5.2 5.2s.3 3.5.3 5.3c0 3.6-.4 7.1-.9 10.6-1 7-2.6 13.9-4.4 20.7-.1.3-.3.5-.6.5l-15.2 2.1c-.4.1-.8-.2-.8-.6v-.1l.2-21.4.4-21.4.8-42.8c0-.3.2-.5.5-.5.4.2.6.4.6.7zm41.4 68.2c-4.1 3.5-16.7 14.4-18.1 16.6s-1.3 2.6 1.5 1.3c2.3-1.1 14.1-10.9 17.7-13.9.6-.5.7-1.3.3-2z" fill="#3895ba"/><path d="m294 70.1 2.3 3.2c-.5-.7-1.1-4-1.1-4" fill="#004e6e" stroke="#004e6e" stroke-linecap="round" stroke-linejoin="round" stroke-miterlimit="10"/><path d="m260.7 139.5c-.4-1.1-.6-2.3-.6-3.5s.1-2.5.7-3.7c.1-.3.3-.6.5-.9s.5-.6.7-.8c.6-.5 1.3-.8 2.1-.8 1.6.1 2.7 1 3.3 2 .2.2.1.5-.1.7-.2.1-.4.1-.6 0-.8-.7-1.8-1.1-2.5-1-.4.1-.7.2-.9.5-.3.3-.5.7-.7 1.1-.4.9-.6 1.9-.7 2.9-.1 1.1-.2 2.1-.3 3.3 0 .3-.3.5-.6.5-.1 0-.2-.1-.3-.3zm6.8 17.7c.7.5 1.2 1.1 1.8 1.6l1.6 1.5c.6.4 1.1.8 1.7.9.3.1.5.1.8 0 .3 0 .6-.2.8-.4l.1-.1c.2-.2.5-.1.7.1.1.1.1.3 0 .5-.2.5-.6.9-1.1 1.2s-1 .4-1.6.3c-1.1-.1-1.9-.6-2.7-1.1-.4-.3-.7-.6-1-.9s-.6-.6-.8-1c-.5-.7-.9-1.4-1.2-2.2-.1-.3 0-.6.3-.7.3.1.5.2.6.3z" fill="#3895ba"/><path d="m263 151.8s-2.5-19.3 1.3-19.6c6.1-.5 9.8 29 1.3 29.7-7.9.6-12.4-23-4.1-26.2" fill="#a7aaad"/><path d="m262.5 151.8c-.6-3.6-.9-7.1-1.1-10.7-.1-1.8-.1-3.6.2-5.5.1-.9.3-1.9.7-2.9.3-.5.6-1.1 1.4-1.4.2-.1.4-.1.6-.1h.5c.3 0 .6.2.9.3 1.1.5 1.7 1.4 2.2 2.2s.9 1.7 1.3 2.6c.7 1.7 1.1 3.5 1.5 5.3.7 3.6 1 7.2.8 10.9-.1 1.8-.4 3.7-1 5.5-.3.9-.7 1.8-1.3 2.6s-1.5 1.6-2.6 1.9-2.3.2-3.2-.3c-1-.4-1.8-1.1-2.4-1.8-1.3-1.5-2.1-3.2-2.8-4.9-1.3-3.5-1.9-7.1-1.7-10.8.1-1.8.4-3.7 1.1-5.4s2-3.4 3.8-4.1c.3-.1.5 0 .6.3.1.2 0 .5-.3.6-1.5.6-2.5 2.1-3 3.6-.6 1.6-.8 3.3-.8 5 0 3.5.6 7 1.9 10.2.6 1.6 1.5 3.1 2.5 4.3 1.1 1.2 2.5 1.9 3.8 1.5 1.2-.4 2.1-1.8 2.6-3.4s.8-3.3.9-5c.2-3.5-.1-7-.7-10.4-.3-1.7-.8-3.4-1.4-5-.3-.8-.6-1.6-1.1-2.3-.4-.7-.9-1.3-1.4-1.6-.1 0-.2-.1-.4-.1h-.3s-.3.2-.4.5c-.3.6-.5 1.5-.6 2.3-.3 1.7-.3 3.5-.3 5.2 0 3.5.2 7.1.6 10.6 0 .3-.2.5-.5.5-.4.3-.6.1-.6-.2z" fill="#004e6e"/><path d="m268 121.2c.9-5.7-4.1-12.5-9.4-11.7-7 1.1-8.5 6.2-7.2 10.8.3 1-.5 2.4 0 3.3.5.8 1.7.1 2.1.9 1.9 3 5.5 4.4 8.9 3 1.6-.7 3.6-2.1 4.3-3.2" fill="#a7aaad"/><g fill="#004e6e"><path d="m267.5 121.1c.3-2.1-.2-4.3-1.2-6.1-1-1.9-2.5-3.5-4.4-4.4-.9-.4-1.9-.6-2.9-.5s-2.1.4-3 .9c-1.9.8-3.4 2.4-3.9 4.3-.3 1-.3 2-.2 3l.3 1.5c.1.2.2.7.2 1.1s-.1.7-.1 1c-.1.6-.2 1.1-.1 1.3h.5s.9 0 1.4.5l.3.3.1.2.2.3c.3.4.6.8 1 1.1 1.5 1.3 3.5 1.8 5.4 1.4.9-.2 1.8-.6 2.8-1.1.5-.2.9-.5 1.3-.8s.9-.6 1.2-.9c.2-.2.5-.2.7 0 .1.2.2.4.1.6-.6 1.2-1.5 2-2.4 2.7s-2 1.3-3.3 1.6c-2.5.6-5.2-.2-7.1-1.9-.5-.4-.9-.9-1.3-1.4l-.3-.4-.1-.2c.1.1.1 0-.2 0-.2 0-.6 0-1.2-.2-.5-.2-.9-.7-1-1.2-.2-.9 0-1.5.1-2.1 0-.3.1-.5.1-.7s0-.2-.1-.6c-.2-.6-.3-1.2-.3-1.8-.1-1.2 0-2.4.3-3.6s1-2.3 1.8-3.2c.9-.9 1.9-1.5 3-2 1.1-.4 2.2-.7 3.4-.8s2.5.1 3.6.6c2.2 1 3.8 2.9 4.9 5s1.6 4.5 1.2 6.8c0 .3-.3.5-.6.4-.1-.2-.3-.4-.2-.7zm-14.9-8.4c1.7 2.7 4.4 4.4 7.3 5.7s6.1 2.1 9.3 3.1c.3.1.4.4.3.6s-.3.4-.5.4c-1.7-.1-3.3-.4-5-.7-1.7-.4-3.3-.8-4.9-1.5s-3.1-1.5-4.5-2.7c-1.3-1.2-2.4-2.7-2.9-4.4-.1-.3.1-.5.3-.6.2-.2.4-.1.6.1z"/><path d="m256.1 110.3c1.3-3-3.9-5.6-6.1-1.6-1.1 2-.1 4.9 2 5.1"/><path d="m255.7 110.1c.2-1.1-.4-1.9-1.4-2.3-.9-.4-2-.2-2.7.4-.3.3-.7.8-.9 1.2s-.3.9-.2 1.5c.1 1 .6 2 1.6 2.4.3.1.4.4.3.6s-.3.3-.5.3c-.8 0-1.6-.4-2.2-1s-.9-1.4-1.1-2.2c-.1-.8-.1-1.6.2-2.4s.8-1.4 1.4-2c.6-.5 1.5-.9 2.3-1 .9-.1 1.7.1 2.4.5s1.3 1 1.7 1.8c.3.8.2 1.8-.2 2.4-.1.2-.5.3-.7.2 0 0-.1-.2 0-.4z"/></g><path d="m254.7 120.1.1.8" style="fill:none;stroke:#004e6e;stroke-width:1.3476;stroke-linecap:round;stroke-linejoin:round;stroke-miterlimit:10"/><path d="m254.3 125.4c.4.1.8 0 1.2-.1l.6-.3c.2-.1.3-.3.4-.4.1-.2.3-.2.5-.1.1.1.2.2.2.3 0 .4-.2.7-.4 1s-.5.4-.8.6c-.3.1-.7.2-1 .1-.3 0-.7-.1-1-.4-.1-.1-.1-.3 0-.5 0-.2.1-.2.3-.2zm10.9-13.1c.4 3.3 7.8 4.7 7.8-1.4s-8.7-6.2-7.8 1.4z" fill="#004e6e"/><path d="m265.7 112.3c.1.9.9 1.6 1.8 1.9s1.9.3 2.7 0 1.3-1 1.6-1.8c.2-.8.3-1.9.1-2.7-.2-.9-.7-1.6-1.4-2.1s-1.7-.6-2.5-.3-1.6 1-1.9 1.9c-.5 1-.5 2-.4 3.1zm-1 .1c-.1-1.1-.1-2.4.3-3.5s1.2-2.3 2.4-2.8 2.7-.5 3.9.1 2.1 1.8 2.5 3.1c.2.6.2 1.3.2 1.9s-.1 1.3-.3 1.9-.6 1.3-1.1 1.7c-.5.5-1.2.8-1.8 1-1.3.3-2.6.1-3.7-.5-.6-.3-1.1-.6-1.5-1.1-.5-.5-.9-1.2-.9-1.8z" fill="#004e6e"/><path d="m289.8 85.7-4.9 12.6" fill="none"/><path d="m290.3 85.9c-.2 1.1-.5 2.2-.8 3.3-.4 1.1-.7 2.1-1.2 3.2l-1.3 3.1c-.5 1-1 2-1.6 3-.1.2-.5.3-.7.2s-.3-.3-.2-.5c.2-1.1.6-2.2.9-3.3s.7-2.1 1.1-3.2.8-2.1 1.3-3.1 1-2 1.6-3c.2-.2.5-.3.7-.1.2 0 .2.2.2.4z" fill="#004e6e"/><path d="m254.5 111.2c-3.2 0-1.8 1.5-1.8 1.5s-.9.3 0 1.5 6.6 5.5 10.8 6.6c4.3 1 3.8 1.5 4 1 .3-.5 1.3-3.8-1.2-7.4s-4.7-5.4-8-4.8z" fill="#004e6e"/><path d="m310 205.6c-5.4.2-21.7 1.2-24.2 2.1-2.4.9-2.6 1.2.3 1.9 3 .7 23.8 0 23.8 0v-4z" fill="#3895ba"/></svg>
