<svg viewBox="0 0 1437.07 1089.9" xmlns="http://www.w3.org/2000/svg"><path d="m809.13 522.69a57 57 0 0 1 -2.25-14.16 82.76 82.76 0 0 1 .67-13.87 213.54 213.54 0 0 1 5.42-27.3c4.85-18 12.31-35.7 23.43-51.59a118.48 118.48 0 0 1 19.66-21.67 127.62 127.62 0 0 1 11.76-9 125.16 125.16 0 0 1 12.92-7.23c17.73-8.9 37.38-12.24 56.29-12.68l3.73-.11c1.53 0 2.74.1 4 .2 2.53.17 4.95.47 7.37.8a144.38 144.38 0 0 1 14.25 2.8 137.71 137.71 0 0 1 27.19 9.95c17.35 8.61 33.06 21.25 44.51 37a131.46 131.46 0 0 1 14.54 24.9 127.58 127.58 0 0 1 8.44 27 140.85 140.85 0 0 1 .09 54.81 3.87 3.87 0 0 1 -7.59 0c-3.55-17.31-7-34-12.33-49.62s-12-30.38-21.88-42.71a101.52 101.52 0 0 0 -36.68-28.81 121.32 121.32 0 0 0 -22.36-7.8c-3.86-.9-7.75-1.65-11.63-2.15-1.93-.24-3.88-.45-5.74-.58-.91-.07-1.9-.11-2.56-.13l-2.86.11a112 112 0 0 0 -12 .77c-2 .24-4 .4-5.93.7l-5.8 1.14c-1 .2-1.95.34-2.9.56l-2.82.78c-1.88.53-3.78 1-5.64 1.57a102.54 102.54 0 0 0 -10.76 4.33 100.21 100.21 0 0 0 -10.16 5.48 103.09 103.09 0 0 0 -9.26 6.9 97.42 97.42 0 0 0 -15.94 17c-9.34 12.74-16.19 27.72-20.82 43.54a193.43 193.43 0 0 0 -5.39 24.28c-.68 4.11-1.41 8.21-2.34 12.31a93.13 93.13 0 0 1 -3.42 12.18l-.31.81a7.87 7.87 0 0 1 -14.88-.54z" fill="#c3c4c7" transform="translate(-30.86 -365.1)"/><path d="m581.6 565.44v837.77l710.9-14.1v-823.67zm481.78 363h-250.52v-217h250.53z" fill="#bedae6" transform="translate(-30.86 -365.1)"/><path d="m781.99 346.33h250.53v217h-250.53z" fill="#fff"/><path d="m37.79 1389.54 177.9-1.58 177.9-.94 89-.43 89-.15 177.9-.29c59.3-.19 118.6 0 177.9.12l177.9.4 177.9 1.05 89 .82 89 1a7 7 0 0 1 0 14l-89 1-89 .82-177.9 1.05-177.9.4c-59.3.11-118.6.3-177.9.12l-177.9-.29-89-.15-89-.43-177.9-.94-177.9-1.58a7 7 0 0 1 0-14z" fill="#8e9196" transform="translate(-30.86 -365.1)"/><path d="m261.61 1078.87-62.43-26.18 12.08-580.29h31.22" fill="#fff"/><g transform="translate(-30.86 -365.1)"><path d="m707.33 837.5h-434l19.14 606.5c66.78-1.26 396.17-27.93 501.46-26.18l-24.17-580.32" fill="#fff"/><path d="m796.39 1272.36c-2.18-48.35-4.68-96.69-7.15-145l-7.49-145-8.11-145a3.88 3.88 0 0 0 -7.75.32l4 145.16 4.56 145.16c1.56 48.38 3.08 96.75 4.93 145.12l4.94 135.36c-39.07-.24-77.68 1.48-116.37 3.27-41.87 2-83.69 4.38-125.49 6.88l-125.34 7.7-62.6 3.67c-17.12.92-34.4 1.92-51.39 2.55l-9.56-292.19-10.26-293.36 98.52-.85c36.17-.47 72.33-.82 108.5-1.5s72.33-1.32 108.5-2.13c36.17-1.05 72.33-1.77 108.5-3.13a1.94 1.94 0 0 0 0-3.88c-36.17-1.36-72.33-2.08-108.5-3.13q-54.25-1.23-108.5-2.13c-36.17-.68-72.33-1-108.5-1.5l-108.5-.93h-.33a9.55 9.55 0 0 0 -8.38 5.5c-2.29-.22-4.59-.44-6.88-.63-5.2-.48-10.41-.81-15.61-1.22a5.5 5.5 0 0 0 -5.9 5l-.08.89c-2.22 24.14-3.62 48.3-4.76 72.47s-1.62 48.34-2.32 72.52c-1.38 48.35-2.83 96.7-3.79 145.06l-1.58 72.59-1.25 72.54-2.25 145.09v.17a9.71 9.71 0 0 0 6 9.11c10.45 4.27 20.82 8.69 31.34 12.8 5.28 2 10.59 3.91 16 5.68 2.85.9 5.71 1.78 8.59 2.59a10.86 10.86 0 0 0 10.54 7.06l16-.54 15.76-.83 31.43-1.87 62.69-4.15 125.24-8.48c41.74-2.76 83.47-5.41 125.19-7.65l31.28-1.59c10.43-.54 20.85-1 31.26-1.34 20.84-.93 41.63-1.47 62.27-1.5h.63a9.21 9.21 0 0 0 8.77-9.64zm-531.45 149.74c-8.24-3.7-16.57-7.2-24.89-10.73l3.62-138.43 1.77-72.53 1.45-72.54c1.05-48.36 1.62-96.72 2.25-145.09.31-24.18.72-48.36.7-72.55-.12-22.4-.47-44.8-1.49-67.21 3.12-.23 6.25-.46 9.37-.75 2-.17 4.06-.36 6.09-.56l8.42 299.37 8.77 288.92-.83-.45c-5.02-2.64-10.1-5.09-15.23-7.45z" fill="#004e6e"/><path d="m406.55 820c-2.51-9.56-2.31-18.65-1.19-27.84a212.48 212.48 0 0 1 5.42-27.13c4.84-17.87 12.27-35.43 23.29-51.15a117.34 117.34 0 0 1 19.46-21.42 126.31 126.31 0 0 1 11.62-8.87 123.8 123.8 0 0 1 12.77-7.13c17.52-8.78 37-12.09 55.72-12.52l3.68-.11c1.49 0 2.68.1 3.94.19 2.49.17 4.88.46 7.28.79a143 143 0 0 1 14.11 2.77 136.79 136.79 0 0 1 26.93 9.83c17.18 8.51 32.73 21 44.08 36.53a130.38 130.38 0 0 1 14.44 24.64 128.88 128.88 0 0 1 8.48 26.78 144.11 144.11 0 0 1 2.92 27.43c0 4.56-.22 9.12-.42 13.63-.48 4.52-1 9-1.75 13.47h-6.77c-1-4.33-1.72-8.63-2.43-12.89-.94-4.24-1.76-8.46-2.6-12.64-2-8.3-4-16.5-6.64-24.37-5.1-15.78-12-30.71-21.94-43.21a102.65 102.65 0 0 0 -37.1-29.25 122.16 122.16 0 0 0 -22.63-7.92c-3.9-.91-7.84-1.67-11.78-2.19-2-.25-3.93-.46-5.83-.59-.93-.07-1.93-.12-2.64-.14l-2.91.11a113.32 113.32 0 0 0 -12.13.77c-2 .25-4 .4-6 .71l-5.88 1.15c-1 .2-2 .35-2.94.57l-2.86.8c-1.9.54-3.83 1-5.72 1.6a103.93 103.93 0 0 0 -10.92 4.4 101.62 101.62 0 0 0 -10.31 5.57 104.45 104.45 0 0 0 -9.4 7 98.58 98.58 0 0 0 -16.15 17.29c-9.44 12.91-16.32 28-21 44a194.54 194.54 0 0 0 -5.39 24.44c-1.36 8.21-2.82 16.66-5.36 24.68z" fill="#004e6e"/><path d="m386.48 1341.87a186.45 186.45 0 0 1 -6.67-24.66c-1.72-8.25-3-16.52-4.06-24.81s-1.68-16.6-2.34-24.9l-2-24.92c-2.56-33.23-4.92-66.48-6.79-99.75s-3.14-66.58-4.26-99.89l-.78-25c-.27-8.33-.54-16.66-.43-25s.5-16.72 1.29-25.1a186.09 186.09 0 0 1 3.92-25.25l5.79-.32a186.09 186.09 0 0 1 6.68 24.66c1.72 8.25 3 16.52 4.06 24.81s1.68 16.6 2.33 24.9l2 24.92c2.56 33.23 4.92 66.48 6.79 99.75s3.13 66.58 4.26 99.89l.78 25c.27 8.33.53 16.66.43 25s-.5 16.72-1.29 25.1a186.45 186.45 0 0 1 -3.91 25.25z" fill="#c3c4c7"/></g></svg>
