<svg width="178px" height="120px" id="Layer_1" xmlns="http://www.w3.org/2000/svg" viewBox="0 0 178 120">
    <style>
        .st0{fill:#CCCED0}.st1{fill:#fff}.st2{fill:#204A69}.st3{fill:#E1E2E2}.st4{fill:#CCCED0}.st5{fill:#204A69}.st6{fill:#46799A}
    </style>
    <path class="st0" d="M89.5 24.8l-29.6.2H30.3l.9-.9.1 36.7v36.8l-.3-.8 14.1 11.6-.6-.2 28.9.1 28.9.2c.4 0 .7.3.7.7 0 .4-.3.7-.7.7l-28.9.1H44.5c-.2 0-.4-.1-.6-.2L29.7 98.3c-.2-.2-.3-.5-.4-.7V60.8l.1-36.7c0-.5.4-.9.9-.9l29.6.1 29.6.2c.4 0 .7.3.7.7-.1.3-.3.6-.7.6z"/>
    <path class="st0" d="M119.9 60.2c-5.2-1.7-25 14.5-29.5 18.5 8.5 5.5 21.7 9.3 31.8 6.5 1.5-.4 6.1 1 10.3 2.4 4.1 1.4 8.5-1.2 9-5.5.7-5.2 1-11.3-1.1-13.2-3.3-2.9-13.2-6.3-20.5-8.7z"/>
    <path class="st2" d="M46.3 86.6c1.5-1.7 3.2-3.2 5.1-4.5 1-.6 2-1.2 3.3-1.6.6-.2 1.3-.3 2-.2.7.1 1.4.3 2.1.7.6.4 1.2 1.2 1.3 1.9.2.7.2 1.4.2 2-.1 1.2-.3 2.3-.3 3.3 0 .5.1.9.3 1.1.1.2.4.4.8.5.9.1 1.9.2 3 .1.4 0 .7.3.7.7 0 .3-.1.5-.4.6-1.1.5-2.4.8-3.7.5-.7-.1-1.5-.5-2-1.2s-.6-1.5-.6-2.1c0-1.3.2-2.4.3-3.4 0-.5 0-1-.1-1.4-.1-.4-.3-.6-.6-.8-1.3-.9-3.4 0-5.2 1.2-1.8 1.1-3.6 2.5-5.6 3.6-.2.1-.6.1-.7-.2-.1-.3-.1-.6.1-.8z"/>
    <path class="st3" d="M79.9 84.2l-13.5 6.2V75.9L73 65.5l13.5 8.3z"/>
    <path class="st0" d="M103.6 67.5c2.2-5.2-6.2-10.2-14.1-11.5S73.8 71.6 70 67.8c-6-5.9 15.7-33.6 41-21.5 11.5 5.5 28 21.6 28 21.6"/>
    <path class="st2" d="M102.9 67.2c.4-1.1.3-2.3-.4-3.3-.6-1-1.6-1.9-2.7-2.7-2.2-1.5-4.7-2.6-7.3-3.3-.7-.2-1.3-.3-2-.5-.3-.1-.7-.1-1-.2-.3-.1-.6-.1-.9-.1-1.1 0-2.3.4-3.4 1.1-2.2 1.3-4.2 3.3-6.1 5.4-1 1-1.9 2.1-3 3.1-.5.5-1.1 1-1.7 1.5-.6.5-1.3.9-2.2 1.2-.5.1-1 .2-1.6.1-.6-.1-1.1-.4-1.5-.8-.6-.7-1-1.7-1.1-2.5-.3-1.8.1-3.3.6-4.7 1.1-2.9 2.8-5.3 4.7-7.5 1.9-2.2 4.1-4.1 6.5-5.8 4.8-3.3 10.4-5.5 16.3-5.9 5.9-.4 11.8 1.1 16.8 3.9 5.1 2.8 9.6 6.2 14 9.8 4.4 3.6 8.6 7.4 12.7 11.3.3.3.3.8 0 1.1-.3.3-.8.3-1.1 0-4.1-3.8-8.3-7.5-12.7-11-2.2-1.8-4.4-3.4-6.7-5s-4.6-3.1-7.1-4.4c-4.8-2.6-10.3-3.9-15.7-3.5-5.4.4-10.7 2.4-15.2 5.6-2.2 1.6-4.3 3.4-6.1 5.4-1.8 2-3.3 4.3-4.2 6.8-.4 1.2-.7 2.5-.5 3.5.1.5.3.9.6 1.2.3.2.4.3.8.1.9-.3 2-1.3 2.9-2.2 1-1 1.9-2 2.9-3 2-2 4-4.1 6.6-5.7 1.3-.8 2.9-1.4 4.6-1.4.4 0 .9.1 1.2.1.4.1.7.1 1.1.2.7.2 1.4.3 2.1.5 2.8.8 5.5 2 7.9 3.9 1.2.9 2.3 2 3.1 3.4.4.7.6 1.5.7 2.4.1.8-.1 1.7-.5 2.4-.2.4-.6.6-1 .4-.3-.1-.5-.6-.4-.9z"/>
    <path class="st4" d="M118 23.9L80 84.2l-13.6-8.3 38.1-60.3z"/>
    <path class="st1" d="M106.6 27.6c-1-.6-2.3-.7-3.3-.2l-.4.2-.7 1.1-3.4 5.4-.8 1.1v.3c0 1.2.6 2.3 1.7 2.9 1 .6 2.3.7 3.3.2l.4-.2.7-1.1 3.4-5.4.7-1.1v-.3c0-1.2-.6-2.3-1.6-2.9z"/>
    <path class="st5" d="M71.3 88.2l-4.9-3v5.2z"/>
    <path class="st6" d="M122.2 17.2l-9-5.5c-2.5-1.5-5.7-.8-7.3 1.7l-1.3 2 13.5 8.3 4.1-6.5z"/>
    <g>
        <path class="st0" d="M103.9 14.2c1.4.7 2.7 1.5 4 2.3 1.3.8 2.6 1.6 4 2.4 1.3.8 2.6 1.7 3.9 2.5 1.3.9 2.5 1.7 3.8 2.7.3.2.3.6.1.9-.2.3-.5.3-.8.2-1.4-.7-2.7-1.5-4.1-2.2l-3.9-2.4c-1.3-.8-2.6-1.7-3.9-2.5-1.3-.9-2.5-1.7-3.8-2.7-.3-.2-.4-.6-.1-.9.1-.3.5-.4.8-.3z"/>
    </g>
    <g>
        <path class="st0" d="M93.6 80.6c-8.1-4.3-12.7-10.1-11.7-13.1 2.2-6.4 18.9 4.5 21.7-.1"/>
        <path class="st2" d="M93.2 81.3c-3.2-1.6-6.2-3.6-8.8-6.1-1.3-1.3-2.5-2.7-3.3-4.5-.4-.9-.7-2-.4-3.2.2-.6.4-1.1.8-1.6s.9-.8 1.5-1c1.1-.4 2.1-.5 3-.4 1 0 1.9.2 2.8.4 1.8.3 3.5.9 5.1 1.4 1.7.5 3.3 1 4.9 1.3.8.2 1.6.3 2.4.3.7 0 1.3-.2 1.7-.6.3-.3.7-.4 1.1-.1.3.2.4.7.2 1-.3.5-.8 1-1.3 1.2-.5.3-1 .4-1.5.4-1 .1-1.9 0-2.8-.1-1.8-.3-3.5-.7-5.2-1.2-1.7-.5-3.3-.9-5-1.3-.8-.2-1.6-.3-2.4-.4-.8-.1-1.5 0-2.1.2-.5.2-.9.6-1.1 1.1-.1.5 0 1.2.2 1.9.6 1.4 1.6 2.7 2.8 3.9 2.3 2.4 5.1 4.4 8.1 6.1.4.2.5.7.3 1.1-.1.2-.6.4-1 .2z"/>
    </g>
    <g>
        <path class="st0" d="M30.3 97.5c3 .5 9-.5 12.1-1.1 1-.2 2 .5 2.1 1.6.2 2.8.5 7.7.1 10.6"/>
    </g>
</svg>
