<svg width="217" height="132" viewBox="0 0 217 132" fill="none" xmlns="http://www.w3.org/2000/svg">
<g clip-path="url(#clip0_1619_14223)">
<path d="M57.7 114.5L19.7 113.3V50.3L57.7 51.4001V114.5Z" fill="white"/>
<path d="M70.9 107.4L57.7 114.5V51.4999L70.9 44.3999V107.4Z" fill="white"/>
<path d="M158.5 6.6001L160.9 9.1001L174.3 9.7001L149.1 31.8001L129.1 10.9001L104.9 33.8001L109.2 38.3001L129.1 19.4001L149 40.2001V40.1001V40.2001L176.3 16.2001V14.0001V25.1001L178.3 27.6001L185 28.0001V10.2001V4.2001L182.4 1.6001L158.5 6.6001Z" fill="#003D68" stroke="#003D68" stroke-linecap="round" stroke-linejoin="round"/>
<path d="M158.5 0.5V6.6L171.9 7.2L146.8 29.2L126.7 8.4L102.5 31.3L106.8 35.8L126.7 16.9L146.6 37.6L176.3 11.6V25.1L182.4 25.4V7.7V1.6L158.5 0.5Z" fill="white" stroke="#003D68" stroke-linecap="round" stroke-linejoin="round"/>
<path d="M57.7 114.5L20.1 113.3C19.9962 113.293 19.8985 113.249 19.825 113.175C19.7514 113.102 19.707 113.004 19.7 112.9V50.3L57.7 51.5V114.5Z" stroke="#003D68" stroke-linecap="round" stroke-linejoin="round"/>
<path d="M57.4 51.4L19.7 50.2999L33.2 43.2L70.9 44.4L57.4 51.4Z" fill="white" stroke="#003D68" stroke-linecap="round" stroke-linejoin="round"/>
<path d="M57.4 51.3999L57.7 114.5L70.9 107.4V44.3999L57.4 51.3999Z" fill="#003D68"/>
<path d="M70.9 107.4L57.7 114.5V51.4999L70.9 44.3999V107.4Z" stroke="#003D68" stroke-linecap="round" stroke-linejoin="round"/>
<path d="M130.8 127.9L16.9 124.4L67.9 97.8999L181.8 101.4L130.8 127.9Z" fill="white"/>
<path d="M180.9 101.7L68.8 97.9999C68.7205 98.0027 68.6412 97.9891 68.5671 97.9599C68.4931 97.9308 68.4258 97.8867 68.3695 97.8304C68.3132 97.7741 68.2691 97.7068 68.24 97.6328C68.2108 97.5587 68.1972 97.4794 68.2 97.3999L79.2 29.8999C79.2 29.5999 79.6 29.3999 80 29.3999L192.1 33.0999C192.18 33.0971 192.259 33.1107 192.333 33.1399C192.407 33.169 192.474 33.2131 192.53 33.2694C192.587 33.3257 192.631 33.393 192.66 33.467C192.689 33.5411 192.703 33.6204 192.7 33.6999L181.7 101.2C181.618 101.343 181.502 101.463 181.363 101.55C181.223 101.637 181.064 101.689 180.9 101.7Z" fill="white"/>
<path d="M191.2 42.6001L109.5 39.9001C110 37.0001 113.2 34.7001 116.7 34.9001L192.1 37.4001L191.2 42.6001Z" fill="#00C4D4"/>
<path d="M180.9 101.7L68.8 97.9999C68.7205 98.0027 68.6412 97.9891 68.5671 97.9599C68.4931 97.9308 68.4258 97.8867 68.3695 97.8304C68.3132 97.7741 68.2691 97.7068 68.24 97.6328C68.2108 97.5587 68.1972 97.4794 68.2 97.3999L79.2 29.8999C79.2 29.5999 79.6 29.3999 80 29.3999L192.1 33.0999C192.18 33.0971 192.259 33.1107 192.333 33.1399C192.407 33.169 192.474 33.2131 192.53 33.2694C192.587 33.3257 192.631 33.393 192.66 33.467C192.689 33.5411 192.703 33.6204 192.7 33.6999L181.7 101.2C181.618 101.343 181.502 101.463 181.363 101.55C181.223 101.637 181.064 101.689 180.9 101.7V101.7Z" stroke="#003E6B" stroke-linecap="round" stroke-linejoin="round"/>
<path d="M84.4091 35.0708C85.3252 34.865 85.9304 34.0866 85.761 33.3322C85.5915 32.5778 84.7115 32.1331 83.7954 32.3388C82.8794 32.5446 82.2742 33.323 82.4436 34.0774C82.6131 34.8318 83.4931 35.2765 84.4091 35.0708Z" stroke="#003E6B" stroke-linecap="round" stroke-linejoin="round"/>
<path d="M90.7976 35.2654C91.7136 35.0596 92.3189 34.2812 92.1494 33.5268C91.98 32.7724 91.1 32.3277 90.1839 32.5334C89.2678 32.7392 88.6626 33.5176 88.8321 34.272C89.0015 35.0264 89.8815 35.4711 90.7976 35.2654Z" stroke="#003E6B" stroke-linecap="round" stroke-linejoin="round"/>
<path d="M97.2173 35.571C98.1333 35.3652 98.7385 34.5869 98.5691 33.8325C98.3996 33.0781 97.5196 32.6333 96.6036 32.8391C95.6875 33.0449 95.0823 33.8232 95.2517 34.5776C95.4212 35.332 96.3012 35.7768 97.2173 35.571Z" stroke="#003E6B" stroke-linecap="round" stroke-linejoin="round"/>
<path d="M186.502 38.4712C187.418 38.2654 188.023 37.487 187.854 36.7326C187.684 35.9782 186.804 35.5335 185.888 35.7392C184.972 35.945 184.367 36.7234 184.537 37.4778C184.706 38.2322 185.586 38.6769 186.502 38.4712Z" stroke="#003E6B" stroke-linecap="round" stroke-linejoin="round"/>
<path d="M77.8 38.8L191.2 42.6" stroke="#003E6B" stroke-linecap="round" stroke-linejoin="round"/>
<path d="M130.8 127.9L16.9 124.4L67.9 97.8999L181.8 101.4L130.8 127.9Z" stroke="#003D68" stroke-linecap="round" stroke-linejoin="round"/>
<path d="M130.8 131.5L16.9 127.9V124.4L130.8 127.9V131.5Z" fill="white" stroke="#003D68" stroke-linecap="round" stroke-linejoin="round"/>
<path d="M181.7 104.7L130.8 131.5V127.9L181.7 101.1V104.7Z" fill="#003D68" stroke="#003D68" stroke-linecap="round" stroke-linejoin="round"/>
<path d="M133.3 52.3L154.6 52.9001L151.8 69.9001L130.5 69.4001L133.3 52.3Z" fill="white"/>
<path d="M157.7 53L179.1 53.6L176.2 70.6L154.9 70.1L157.7 53Z" fill="white"/>
<path d="M105.8 70.8L127.2 71.4L124.3 88.4L103 87.9L105.8 70.8Z" fill="white"/>
<path d="M130.1 71.3999L151.5 71.9999L148.6 89.0999L127.3 88.4999L130.1 71.3999Z" fill="white"/>
<path d="M154.5 72L175.8 72.6L172.9 89.6L151.6 89L154.5 72Z" fill="white"/>
<path d="M130.5 52.2001L127.7 69.2001L106.3 68.6001L109.1 51.6001L115.6 51.7001L130.5 52.2001Z" fill="white"/>
<path d="M100 87.6999L77.7 87L83.8 50.7L106.1 51.2999L100 87.6999Z" fill="white"/>
<path d="M109.1 51.6001C109.1 51.6001 110 68.7001 127.7 69.2001L130.6 52.2001L109.1 51.6001Z" fill="url(#paint0_linear_1619_14223)"/>
<path d="M105.7 70.8C105.7 70.8 106.6 87.9 124.3 88.4L127.2 71.4L105.7 70.8Z" fill="url(#paint1_linear_1619_14223)"/>
<path d="M133 52.3C133 52.3 133.9 69.4 151.6 69.9L154.5 52.9L133 52.3Z" fill="url(#paint2_linear_1619_14223)"/>
<path d="M130.2 71.3999C130.2 71.3999 131.1 88.4999 148.8 88.9999L151.7 71.9999L130.2 71.3999Z" fill="url(#paint3_linear_1619_14223)"/>
<path d="M157.7 53C157.7 53 158.6 70.1 176.3 70.6L179.2 53.6L157.7 53Z" fill="url(#paint4_linear_1619_14223)"/>
<path d="M154.5 72C154.5 72 155.4 89.1 173.1 89.6L176 72.6L154.5 72Z" fill="url(#paint5_linear_1619_14223)"/>
<path d="M83.8 50.7C83.8 50.7 78.7 80.8 99.9 87.7L106.1 51.4L83.8 50.7Z" fill="url(#paint6_linear_1619_14223)"/>
<path d="M133.3 52.3L154.6 52.9001L151.8 69.9001L130.5 69.4001L133.3 52.3Z" stroke="#003D68" stroke-linecap="round" stroke-linejoin="round"/>
<path d="M157.7 53L179.1 53.6L176.2 70.6L154.9 70.1L157.7 53Z" stroke="#003D68" stroke-linecap="round" stroke-linejoin="round"/>
<path d="M105.8 70.8L127.2 71.4L124.3 88.4L103 87.9L105.8 70.8Z" stroke="#003D68" stroke-linecap="round" stroke-linejoin="round"/>
<path d="M130.1 71.3999L151.5 71.9999L148.6 89.0999L127.3 88.4999L130.1 71.3999Z" stroke="#003D68" stroke-linecap="round" stroke-linejoin="round"/>
<path d="M154.5 72L175.8 72.6L172.9 89.6L151.6 89L154.5 72Z" stroke="#003D68" stroke-linecap="round" stroke-linejoin="round"/>
<path d="M130.5 52.2001L127.7 69.2001L106.3 68.6001L109.1 51.6001L115.6 51.7001L130.5 52.2001Z" stroke="#003D68" stroke-linecap="round" stroke-linejoin="round"/>
<path d="M100 87.6999L77.7 87L83.8 50.7L106.1 51.2999L100 87.6999Z" stroke="#003D68" stroke-linecap="round" stroke-linejoin="round"/>
<path d="M48.1 100.2L3.50001 98.8C3.23479 98.8 2.98044 98.6946 2.7929 98.5071C2.60536 98.3195 2.50001 98.0652 2.50001 97.8V69.1C2.49117 68.9663 2.51097 68.8324 2.5581 68.7071C2.60523 68.5817 2.67859 68.4679 2.77328 68.3732C2.86796 68.2785 2.98178 68.2052 3.10711 68.158C3.23244 68.1109 3.3664 68.0911 3.50001 68.1L48.1 69.5C48.3652 69.5 48.6196 69.6053 48.8071 69.7928C48.9947 69.9804 49.1 70.2347 49.1 70.5V99.1C49.114 99.2394 49.0986 99.3803 49.0546 99.5134C49.0107 99.6465 48.9393 99.7689 48.845 99.8726C48.7507 99.9764 48.6356 100.059 48.5073 100.115C48.3789 100.172 48.2402 100.201 48.1 100.2Z" fill="#003D68"/>
<path d="M46.1 102.2L1.50001 100.8C1.23479 100.8 0.980435 100.695 0.792899 100.507C0.605363 100.32 0.500006 100.065 0.500006 99.8V71.1C0.491167 70.9663 0.510975 70.8324 0.558103 70.7071C0.605232 70.5817 0.678593 70.4679 0.773275 70.3732C0.867957 70.2785 0.981775 70.2052 1.10711 70.158C1.23244 70.1109 1.3664 70.0911 1.50001 70.1L46.1 71.5C46.3652 71.5 46.6196 71.6053 46.8071 71.7928C46.9947 71.9804 47.1 72.2347 47.1 72.5V101.1C47.114 101.239 47.0986 101.38 47.0546 101.513C47.0107 101.647 46.9393 101.769 46.845 101.873C46.7507 101.976 46.6356 102.059 46.5073 102.115C46.3789 102.172 46.2402 102.201 46.1 102.2Z" fill="white"/>
<path d="M7.10001 70.3L23.3 101.5L33.9 102.2L31.4 71.1L7.10001 70.3Z" fill="url(#paint7_linear_1619_14223)"/>
<path d="M46.1 102.2L1.50001 100.8C1.23479 100.8 0.980435 100.695 0.792899 100.507C0.605363 100.32 0.500006 100.065 0.500006 99.8V71.1C0.491167 70.9663 0.510975 70.8324 0.558103 70.7071C0.605232 70.5817 0.678593 70.4679 0.773275 70.3732C0.867957 70.2785 0.981775 70.2052 1.10711 70.158C1.23244 70.1109 1.3664 70.0911 1.50001 70.1L46.1 71.5C46.3652 71.5 46.6196 71.6053 46.8071 71.7928C46.9947 71.9804 47.1 72.2347 47.1 72.5V101.1C47.114 101.239 47.0986 101.38 47.0546 101.513C47.0107 101.647 46.9393 101.769 46.845 101.873C46.7507 101.976 46.6356 102.059 46.5073 102.115C46.3789 102.172 46.2402 102.201 46.1 102.2Z" stroke="#003D68" stroke-linecap="round" stroke-linejoin="round"/>
<path d="M11 83.3001L5.3 83.1001C4.85311 83.0875 4.42799 82.9043 4.11187 82.5882C3.79575 82.2721 3.6126 81.8469 3.6 81.4001V78.1001C3.59181 77.8791 3.631 77.6589 3.71494 77.4543C3.79887 77.2498 3.9256 77.0655 4.08662 76.914C4.24765 76.7624 4.43923 76.6471 4.64851 76.5757C4.85779 76.5043 5.07993 76.4785 5.3 76.5001L11 76.7001C11.4469 76.7126 11.872 76.8958 12.1881 77.2119C12.5043 77.528 12.6874 77.9532 12.7 78.4001V81.7001C12.6676 82.1309 12.4752 82.5339 12.1606 82.83C11.846 83.1261 11.432 83.2938 11 83.3001Z" fill="white" stroke="#003D68" stroke-linecap="round" stroke-linejoin="round"/>
<path d="M12.6 78.1C12.5001 78.4391 12.2866 78.7336 11.9952 78.9339C11.7039 79.1342 11.3524 79.2281 11 79.2L5.20001 79C4.8282 78.9868 4.47082 78.8528 4.18208 78.6182C3.89333 78.3836 3.68898 78.0612 3.60001 77.7" stroke="#003D68" stroke-linecap="round" stroke-linejoin="round"/>
<path d="M3.60001 81.8C3.69393 81.4498 3.90263 81.1412 4.19272 80.9236C4.4828 80.706 4.83749 80.5921 5.20001 80.6L10.9 80.8C11.2718 80.8131 11.6292 80.9472 11.9179 81.1818C12.2067 81.4164 12.411 81.7388 12.5 82.1" stroke="#003D68" stroke-linecap="round" stroke-linejoin="round"/>
<path d="M8.10001 76.6001V83.2001" stroke="#003D68" stroke-linecap="round" stroke-linejoin="round"/>
<path d="M41.5 99.1001L35.8 98.9001C35.3531 98.8875 34.928 98.7044 34.6119 98.3882C34.2957 98.0721 34.1126 97.647 34.1 97.2001V93.9001C34.0918 93.6791 34.131 93.459 34.2149 93.2544C34.2989 93.0498 34.4256 92.8656 34.5866 92.714C34.7476 92.5625 34.9392 92.4471 35.1485 92.3757C35.3578 92.3043 35.5799 92.2786 35.8 92.3001L41.5 92.5001C41.9469 92.5127 42.372 92.6958 42.6881 93.012C43.0043 93.3281 43.1874 93.7532 43.2 94.2001V97.5001C43.1818 97.936 42.9937 98.3475 42.676 98.6465C42.3583 98.9455 41.9362 99.1083 41.5 99.1001Z" fill="white" stroke="#003D68" stroke-linecap="round" stroke-linejoin="round"/>
<path d="M4.20001 89.1C4.04471 89.0884 3.89871 89.0215 3.7886 88.9114C3.67848 88.8013 3.61156 88.6553 3.60001 88.5V86.6C3.61156 86.4447 3.67848 86.2987 3.7886 86.1886C3.89871 86.0785 4.04471 86.0116 4.20001 86C4.35531 86.0116 4.5013 86.0785 4.61142 86.1886C4.72153 86.2987 4.78846 86.4447 4.80001 86.6V88.5C4.78846 88.6553 4.72153 88.8013 4.61142 88.9114C4.5013 89.0215 4.35531 89.0884 4.20001 89.1Z" fill="white" stroke="#003D68" stroke-linecap="round" stroke-linejoin="round"/>
<path d="M6.4 89.2001C6.2447 89.1885 6.09871 89.1216 5.98859 89.0115C5.87848 88.9014 5.81155 88.7554 5.8 88.6001V86.7001C5.81155 86.5448 5.87848 86.3988 5.98859 86.2887C6.09871 86.1786 6.2447 86.1116 6.4 86.1001C6.5553 86.1116 6.7013 86.1786 6.81141 86.2887C6.92153 86.3988 6.98845 86.5448 7 86.7001V88.6001C7.1 88.9001 6.8 89.2001 6.4 89.2001Z" fill="white" stroke="#003D68" stroke-linecap="round" stroke-linejoin="round"/>
<path d="M8.70001 89.2001C8.54471 89.1885 8.39871 89.1216 8.2886 89.0115C8.17848 88.9014 8.11156 88.7554 8.10001 88.6001V86.7001C8.11156 86.5448 8.17848 86.3988 8.2886 86.2887C8.39871 86.1786 8.54471 86.1116 8.70001 86.1001C8.85531 86.1116 9.0013 86.1786 9.11142 86.2887C9.22153 86.3988 9.28846 86.5448 9.30001 86.7001V88.6001C9.3028 88.6796 9.28919 88.7589 9.26003 88.833C9.23086 88.907 9.18677 88.9743 9.13049 89.0306C9.0742 89.0869 9.00694 89.131 8.93288 89.1601C8.85882 89.1893 8.77955 89.2029 8.70001 89.2001Z" fill="white" stroke="#003D68" stroke-linecap="round" stroke-linejoin="round"/>
<path d="M11 89.3C10.8447 89.2884 10.6987 89.2215 10.5886 89.1114C10.4785 89.0012 10.4115 88.8553 10.4 88.7V86.8C10.4115 86.6447 10.4785 86.4987 10.5886 86.3885C10.6987 86.2784 10.8447 86.2115 11 86.2C11.1553 86.2115 11.3013 86.2784 11.4114 86.3885C11.5215 86.4987 11.5884 86.6447 11.6 86.8V88.7C11.5884 88.8553 11.5215 89.0012 11.4114 89.1114C11.3013 89.2215 11.1553 89.2884 11 89.3Z" fill="white" stroke="#003D68" stroke-linecap="round" stroke-linejoin="round"/>
<path d="M14.7 89.4C14.5447 89.3885 14.3987 89.3216 14.2886 89.2115C14.1785 89.1013 14.1116 88.9553 14.1 88.8V86.9C14.1116 86.7447 14.1785 86.5988 14.2886 86.4886C14.3987 86.3785 14.5447 86.3116 14.7 86.3C14.8553 86.3116 15.0013 86.3785 15.1114 86.4886C15.2215 86.5988 15.2885 86.7447 15.3 86.9V88.8C15.3117 88.8816 15.3043 88.9647 15.2783 89.0428C15.2523 89.121 15.2084 89.192 15.1502 89.2502C15.0919 89.3084 15.0209 89.3523 14.9428 89.3783C14.8646 89.4043 14.7815 89.4118 14.7 89.4Z" fill="white" stroke="#003D68" stroke-linecap="round" stroke-linejoin="round"/>
<path d="M17 89.4999C16.8447 89.4884 16.6987 89.4214 16.5886 89.3113C16.4785 89.2012 16.4115 89.0552 16.4 88.8999V86.9999C16.4115 86.8446 16.4785 86.6986 16.5886 86.5885C16.6987 86.4784 16.8447 86.4115 17 86.3999C17.1553 86.4115 17.3013 86.4784 17.4114 86.5885C17.5215 86.6986 17.5884 86.8446 17.6 86.9999V88.8999C17.5884 89.0552 17.5215 89.2012 17.4114 89.3113C17.3013 89.4214 17.1553 89.4884 17 89.4999Z" fill="white" stroke="#003D68" stroke-linecap="round" stroke-linejoin="round"/>
<path d="M19.2 89.6C19.0447 89.5884 18.8987 89.5215 18.7886 89.4114C18.6785 89.3013 18.6116 89.1553 18.6 89V87.1C18.6116 86.9447 18.6785 86.7987 18.7886 86.6886C18.8987 86.5785 19.0447 86.5116 19.2 86.5C19.3553 86.5116 19.5013 86.5785 19.6114 86.6886C19.7215 86.7987 19.7885 86.9447 19.8 87.1V89C19.9 89.3 19.6 89.6 19.2 89.6Z" fill="white" stroke="#003D68" stroke-linecap="round" stroke-linejoin="round"/>
<path d="M21.5 89.6C21.3447 89.5884 21.1987 89.5215 21.0886 89.4114C20.9785 89.3013 20.9115 89.1553 20.9 89V87.1C20.9115 86.9447 20.9785 86.7987 21.0886 86.6886C21.1987 86.5785 21.3447 86.5116 21.5 86.5C21.6553 86.5116 21.8013 86.5785 21.9114 86.6886C22.0215 86.7987 22.0884 86.9447 22.1 87.1V89C22.1028 89.0795 22.0892 89.1588 22.06 89.2329C22.0309 89.3069 21.9868 89.3742 21.9305 89.4305C21.8742 89.4868 21.8069 89.5309 21.7329 89.56C21.6588 89.5892 21.5795 89.6028 21.5 89.6Z" fill="white" stroke="#003D68" stroke-linecap="round" stroke-linejoin="round"/>
<path d="M25.3 89.8C25.1447 89.7884 24.9987 89.7215 24.8886 89.6114C24.7785 89.5012 24.7115 89.3553 24.7 89.2V87.3C24.7115 87.1447 24.7785 86.9987 24.8886 86.8885C24.9987 86.7784 25.1447 86.7115 25.3 86.7C25.4553 86.7115 25.6013 86.7784 25.7114 86.8885C25.8215 86.9987 25.8884 87.1447 25.9 87.3V89.2C25.8884 89.3553 25.8215 89.5012 25.7114 89.6114C25.6013 89.7215 25.4553 89.7884 25.3 89.8Z" fill="white" stroke="#003D68" stroke-linecap="round" stroke-linejoin="round"/>
<path d="M27.5 89.8C27.3447 89.7884 27.1987 89.7215 27.0886 89.6114C26.9785 89.5012 26.9115 89.3553 26.9 89.2V87.3C26.9115 87.1447 26.9785 86.9987 27.0886 86.8885C27.1987 86.7784 27.3447 86.7115 27.5 86.7C27.6553 86.7115 27.8013 86.7784 27.9114 86.8885C28.0215 86.9987 28.0884 87.1447 28.1 87.3V89.2C28.1117 89.2815 28.1043 89.3646 28.0783 89.4427C28.0522 89.5209 28.0084 89.5919 27.9501 89.6501C27.8919 89.7083 27.8209 89.7522 27.7428 89.7782C27.6646 89.8042 27.5815 89.8117 27.5 89.8Z" fill="white" stroke="#003D68" stroke-linecap="round" stroke-linejoin="round"/>
<path d="M29.8 89.9C29.6447 89.8885 29.4987 89.8216 29.3886 89.7115C29.2785 89.6013 29.2115 89.4553 29.2 89.3V87.4C29.2115 87.2447 29.2785 87.0988 29.3886 86.9886C29.4987 86.8785 29.6447 86.8116 29.8 86.8C29.9553 86.8116 30.1013 86.8785 30.2114 86.9886C30.3215 87.0988 30.3884 87.2447 30.4 87.4V89.3C30.3884 89.4553 30.3215 89.6013 30.2114 89.7115C30.1013 89.8216 29.9553 89.8885 29.8 89.9Z" fill="white" stroke="#003D68" stroke-linecap="round" stroke-linejoin="round"/>
<path d="M32 89.9999C31.8447 89.9884 31.6987 89.9214 31.5886 89.8113C31.4785 89.7012 31.4115 89.5552 31.4 89.3999V87.4999C31.4115 87.3446 31.4785 87.1986 31.5886 87.0885C31.6987 86.9784 31.8447 86.9115 32 86.8999C32.1553 86.9115 32.3013 86.9784 32.4114 87.0885C32.5215 87.1986 32.5884 87.3446 32.6 87.4999V89.3999C32.7 89.6999 32.4 89.9999 32 89.9999Z" fill="white" stroke="#003D68" stroke-linecap="round" stroke-linejoin="round"/>
<path d="M35.8 90.1C35.6447 90.0884 35.4987 90.0215 35.3886 89.9114C35.2785 89.8013 35.2115 89.6553 35.2 89.5V87.6C35.2115 87.4447 35.2785 87.2987 35.3886 87.1886C35.4987 87.0785 35.6447 87.0116 35.8 87C35.9553 87.0116 36.1013 87.0785 36.2114 87.1886C36.3215 87.2987 36.3884 87.4447 36.4 87.6V89.5C36.3884 89.6553 36.3215 89.8013 36.2114 89.9114C36.1013 90.0215 35.9553 90.0884 35.8 90.1Z" fill="white" stroke="#003D68" stroke-linecap="round" stroke-linejoin="round"/>
<path d="M38.1 90.2001C37.9447 90.1885 37.7987 90.1216 37.6886 90.0115C37.5785 89.9014 37.5116 89.7554 37.5 89.6001V87.7001C37.5116 87.5448 37.5785 87.3988 37.6886 87.2887C37.7987 87.1786 37.9447 87.1116 38.1 87.1001C38.2553 87.1116 38.4013 87.1786 38.5114 87.2887C38.6215 87.3988 38.6885 87.5448 38.7 87.7001V89.6001C38.6885 89.7554 38.6215 89.9014 38.5114 90.0115C38.4013 90.1216 38.2553 90.1885 38.1 90.2001Z" fill="white" stroke="#003D68" stroke-linecap="round" stroke-linejoin="round"/>
<path d="M40.3 90.2001C40.1447 90.1885 39.9987 90.1216 39.8886 90.0115C39.7785 89.9014 39.7115 89.7554 39.7 89.6001V87.7001C39.7115 87.5448 39.7785 87.3988 39.8886 87.2887C39.9987 87.1786 40.1447 87.1116 40.3 87.1001C40.4553 87.1116 40.6013 87.1786 40.7114 87.2887C40.8215 87.3988 40.8884 87.5448 40.9 87.7001V89.6001C40.9117 89.6816 40.9043 89.7647 40.8783 89.8429C40.8522 89.921 40.8084 89.992 40.7502 90.0503C40.6919 90.1085 40.6209 90.1523 40.5428 90.1784C40.4646 90.2044 40.3815 90.2118 40.3 90.2001Z" fill="white" stroke="#003D68" stroke-linecap="round" stroke-linejoin="round"/>
<path d="M42.6 90.3C42.4447 90.2884 42.2987 90.2215 42.1886 90.1114C42.0785 90.0012 42.0116 89.8553 42 89.7V87.8C42.0116 87.6447 42.0785 87.4987 42.1886 87.3885C42.2987 87.2784 42.4447 87.2115 42.6 87.2C42.7553 87.2115 42.9013 87.2784 43.0114 87.3885C43.1215 87.4987 43.1885 87.6447 43.2 87.8V89.7C43.2028 89.7795 43.1892 89.8588 43.16 89.9328C43.1309 90.0069 43.0868 90.0742 43.0305 90.1304C42.9742 90.1867 42.9069 90.2308 42.8329 90.26C42.7588 90.2891 42.6795 90.3028 42.6 90.3Z" fill="white" stroke="#003D68" stroke-linecap="round" stroke-linejoin="round"/>
<path d="M82.1 103.8L75.1 103.5L82 100L88.9 100.2L82.1 103.8Z" fill="url(#paint8_linear_1619_14223)"/>
<path d="M91.7 104.1L84.8 103.8L91.6 100.3L98.5 100.5L91.7 104.1Z" fill="url(#paint9_linear_1619_14223)"/>
<path d="M101.3 104.4L94.4 104.1L101.2 100.6L108.2 100.8L101.3 104.4Z" fill="url(#paint10_linear_1619_14223)"/>
<path d="M110.9 104.7L104 104.5L110.8 100.9L117.8 101.1L110.9 104.7Z" fill="url(#paint11_linear_1619_14223)"/>
<path d="M120.6 105L113.6 104.8L120.4 101.2L127.4 101.4L120.6 105Z" fill="url(#paint12_linear_1619_14223)"/>
<path d="M130.2 105.3L123.2 105.1L130 101.5L137 101.7L130.2 105.3Z" fill="url(#paint13_linear_1619_14223)"/>
<path d="M139.8 105.6L132.8 105.4L139.6 101.8L146.6 102.1L139.8 105.6Z" fill="url(#paint14_linear_1619_14223)"/>
<path d="M149.4 105.9L142.4 105.7L149.2 102.1L156.2 102.4L149.4 105.9Z" fill="url(#paint15_linear_1619_14223)"/>
<path d="M72.6 108.7L65.7 108.5L72.5 104.9L79.4 105.1L72.6 108.7Z" fill="url(#paint16_linear_1619_14223)"/>
<path d="M82.2 109L75.3 108.8L82.1 105.2L89.1 105.5L82.2 109Z" fill="url(#paint17_linear_1619_14223)"/>
<path d="M91.8 109.3L84.9 109.1L91.7 105.5L98.7 105.8L91.8 109.3Z" fill="url(#paint18_linear_1619_14223)"/>
<path d="M101.5 109.6L94.5 109.4L101.3 105.9L108.3 106.1L101.5 109.6Z" fill="url(#paint19_linear_1619_14223)"/>
<path d="M111.1 110L104.1 109.7L110.9 106.2L117.9 106.4L111.1 110Z" fill="url(#paint20_linear_1619_14223)"/>
<path d="M120.7 110.3L113.7 110L120.5 106.5L127.5 106.7L120.7 110.3Z" fill="url(#paint21_linear_1619_14223)"/>
<path d="M130.3 110.6L123.3 110.3L130.1 106.8L137.1 107L130.3 110.6Z" fill="url(#paint22_linear_1619_14223)"/>
<path d="M139.9 110.9L132.9 110.7L139.7 107.1L146.7 107.3L139.9 110.9Z" fill="url(#paint23_linear_1619_14223)"/>
<path d="M63.1 113.7L56.2 113.4L63 109.9L70 110.1L63.1 113.7Z" fill="url(#paint24_linear_1619_14223)"/>
<path d="M72.7 114L65.8 113.7L72.6 110.2L79.6 110.4L72.7 114Z" fill="url(#paint25_linear_1619_14223)"/>
<path d="M82.3 114.3L75.4 114.1L82.2 110.5L89.2 110.7L82.3 114.3Z" fill="url(#paint26_linear_1619_14223)"/>
<path d="M92 114.6L85 114.4L91.8 110.8L98.8 111L92 114.6Z" fill="url(#paint27_linear_1619_14223)"/>
<path d="M101.6 114.9L94.6 114.7L101.4 111.1L108.4 111.3L101.6 114.9Z" fill="url(#paint28_linear_1619_14223)"/>
<path d="M111.2 115.2L104.2 115L111 111.4L118 111.7L111.2 115.2Z" fill="url(#paint29_linear_1619_14223)"/>
<path d="M120.8 115.5L113.8 115.3L120.6 111.7L127.6 112L120.8 115.5Z" fill="url(#paint30_linear_1619_14223)"/>
<path d="M130.4 115.8L123.4 115.6L130.2 112.1L137.2 112.3L130.4 115.8Z" fill="url(#paint31_linear_1619_14223)"/>
<path d="M53.6 118.6L46.7 118.4L53.5 114.8L60.5 115.1L53.6 118.6Z" fill="url(#paint32_linear_1619_14223)"/>
<path d="M63.2 118.9L56.3 118.7L63.1 115.1L70.1 115.4L63.2 118.9Z" fill="url(#paint33_linear_1619_14223)"/>
<path d="M72.9 119.2L65.9 119L72.7 115.5L79.7 115.7L72.9 119.2Z" fill="url(#paint34_linear_1619_14223)"/>
<path d="M82.5 119.5L75.5 119.3L82.3 115.8L89.3 116L82.5 119.5Z" fill="url(#paint35_linear_1619_14223)"/>
<path d="M92.1 119.9L85.1 119.6L91.9 116.1L98.9 116.3L92.1 119.9Z" fill="url(#paint36_linear_1619_14223)"/>
<path d="M101.7 120.2L94.7 119.9L101.5 116.4L108.5 116.6L101.7 120.2Z" fill="url(#paint37_linear_1619_14223)"/>
<path d="M111.3 120.5L104.3 120.3L111.1 116.7L118.1 116.9L111.3 120.5Z" fill="url(#paint38_linear_1619_14223)"/>
<path d="M120.9 120.8L113.9 120.6L120.7 117L127.7 117.2L120.9 120.8Z" fill="url(#paint39_linear_1619_14223)"/>
<path d="M47.5934 50.5952C56.148 50.28 62.9972 47.698 62.8914 44.8281C62.7857 41.9581 55.7651 39.8871 47.2105 40.2023C38.6559 40.5174 31.8067 43.0995 31.9125 45.9694C32.0182 48.8394 39.0388 50.9104 47.5934 50.5952Z" fill="white"/>
<path d="M41.3 50.3001L43.2 40.5001C43.2 40.5001 50.7 39.7001 52.6 40.5001L54.3 49.8001C54.2 49.8001 47.4 51.7001 41.3 50.3001Z" fill="#00C4D4"/>
<path d="M47.5934 50.5952C56.148 50.28 62.9972 47.698 62.8914 44.8281C62.7857 41.9581 55.7651 39.8871 47.2105 40.2023C38.6559 40.5174 31.8067 43.0995 31.9125 45.9694C32.0182 48.8394 39.0388 50.9104 47.5934 50.5952Z" stroke="#003D68" stroke-linecap="round" stroke-linejoin="round"/>
<path d="M47.5909 46.9978C56.1455 46.6826 62.9946 44.1006 62.8889 41.2307C62.7832 38.3607 55.7626 36.2897 47.208 36.6049C38.6533 36.92 31.8042 39.5021 31.9099 42.372C32.0157 45.2419 39.0363 47.313 47.5909 46.9978Z" fill="white"/>
<path d="M41.3 46.8001L43.2 37.0001C43.2 37.0001 50.7 36.2001 52.6 37.0001L54.3 46.3001C54.2 46.3001 47.4 48.2001 41.3 46.8001Z" fill="#00C4D4"/>
<path d="M47.5909 46.9978C56.1455 46.6826 62.9946 44.1006 62.8889 41.2307C62.7832 38.3607 55.7626 36.2897 47.208 36.6049C38.6533 36.92 31.8042 39.5021 31.9099 42.372C32.0157 45.2419 39.0363 47.313 47.5909 46.9978Z" stroke="#003D68" stroke-linecap="round" stroke-linejoin="round"/>
<path d="M47.592 43.5002C56.1466 43.1851 62.9958 40.603 62.89 37.7331C62.7843 34.8632 55.7637 32.7921 47.2091 33.1073C38.6545 33.4225 31.8053 36.0045 31.9111 38.8745C32.0168 41.7444 39.0374 43.8154 47.592 43.5002Z" fill="white"/>
<path d="M41.3 43.2L43.2 33.4C43.2 33.4 50.7 32.6 52.6 33.4L54.3 42.7C54.2 42.7 47.4 44.6 41.3 43.2Z" fill="#00C4D4"/>
<path d="M47.592 43.5002C56.1466 43.1851 62.9958 40.603 62.89 37.7331C62.7843 34.8632 55.7637 32.7921 47.2091 33.1073C38.6545 33.4225 31.8053 36.0045 31.9111 38.8745C32.0168 41.7444 39.0374 43.8154 47.592 43.5002Z" stroke="#003D68" stroke-linecap="round" stroke-linejoin="round"/>
<path d="M47.5895 39.8926C56.1441 39.5774 62.9932 36.9954 62.8875 34.1254C62.7818 31.2555 55.7612 29.1845 47.2065 29.4996C38.6519 29.8148 31.8028 32.3969 31.9085 35.2668C32.0142 38.1367 39.0348 40.2078 47.5895 39.8926Z" fill="white"/>
<path d="M41.3 39.7L43.2 29.9C43.2 29.9 50.7 29.1 52.6 29.9L54.3 39.2C54.2 39.1 47.4 41.1 41.3 39.7Z" fill="#00C4D4"/>
<path d="M47.5895 39.8926C56.1441 39.5774 62.9932 36.9954 62.8875 34.1254C62.7818 31.2555 55.7612 29.1845 47.2065 29.4996C38.6519 29.8148 31.8028 32.3969 31.9085 35.2668C32.0142 38.1367 39.0348 40.2078 47.5895 39.8926Z" stroke="#003D68" stroke-linecap="round" stroke-linejoin="round"/>
<path d="M47.5969 36.2949C56.1515 35.9797 63.0007 33.3977 62.895 30.5278C62.7892 27.6578 55.7686 25.5868 47.214 25.902C38.6594 26.2172 31.8102 28.7992 31.916 31.6691C32.0217 34.5391 39.0423 36.6101 47.5969 36.2949Z" fill="white"/>
<path d="M41.3 36.0999L43.2 26.2999C43.2 26.2999 50.7 25.4999 52.6 26.2999L54.3 35.5999C54.2 35.5999 47.4 37.4999 41.3 36.0999Z" fill="#00C4D4"/>
<path d="M47.5969 36.2949C56.1515 35.9797 63.0007 33.3977 62.895 30.5278C62.7892 27.6578 55.7686 25.5868 47.214 25.902C38.6594 26.2172 31.8102 28.7992 31.916 31.6691C32.0217 34.5391 39.0423 36.6101 47.5969 36.2949Z" stroke="#003D68" stroke-linecap="round" stroke-linejoin="round"/>
<path d="M47.5881 32.7974C56.1427 32.4822 62.9918 29.9001 62.8861 27.0302C62.7804 24.1603 55.7598 22.0892 47.2051 22.4044C38.6505 22.7196 31.8014 25.3016 31.9071 28.1716C32.0128 31.0415 39.0334 33.1125 47.5881 32.7974Z" fill="white"/>
<path d="M41.3 32.5L43.2 22.7C43.2 22.7 50.7 21.9 52.6 22.7L54.3 32C54.2 32 47.4 34 41.3 32.5Z" fill="#00C4D4"/>
<path d="M47.5881 32.7974C56.1427 32.4822 62.9918 29.9001 62.8861 27.0302C62.7804 24.1603 55.7598 22.0892 47.2051 22.4044C38.6505 22.7196 31.8014 25.3016 31.9071 28.1716C32.0128 31.0415 39.0334 33.1125 47.5881 32.7974Z" stroke="#003D68" stroke-linecap="round" stroke-linejoin="round"/>
<path d="M165.3 67.4001L202.5 68.5001L213 63.1001L175.8 62.1001L165.3 67.4001Z" fill="url(#paint40_linear_1619_14223)"/>
<path d="M216.3 116.4L204.6 122.4L202.5 68.5001L213 63.1001L216.3 116.4Z" fill="white"/>
<path d="M204.6 122.4L163.2 121.2L165.3 67.3999L202.5 68.4999L204.6 122.4Z" fill="white"/>
<path d="M204.6 122.4L202.5 68.5L207.4 66L209.4 109.4L216.3 116.4L204.6 122.4Z" fill="url(#paint41_linear_1619_14223)"/>
<path d="M204.6 122.4L163.2 121.2L165.3 67.3999L202.5 68.4999L204.6 122.4Z" stroke="#003D68" stroke-linecap="round" stroke-linejoin="round"/>
<path d="M216.3 116.4L204.6 122.4L202.5 68.5001L213 63.1001L216.3 116.4Z" stroke="#003D68" stroke-linecap="round" stroke-linejoin="round"/>
<path d="M175.406 72.2986C176.1 71.957 176.405 71.158 176.088 70.5139C175.771 69.8698 174.951 69.6246 174.258 69.9662C173.564 70.3078 173.259 71.1069 173.576 71.751C173.893 72.395 174.713 72.6403 175.406 72.2986Z" fill="white" stroke="#003D68" stroke-linecap="round" stroke-linejoin="round"/>
<path d="M195.598 73.1778C196.291 72.8362 196.596 72.0371 196.279 71.393C195.962 70.7489 195.143 70.5037 194.449 70.8453C193.755 71.1869 193.45 71.986 193.767 72.6301C194.085 73.2742 194.904 73.5194 195.598 73.1778Z" fill="white" stroke="#003D68" stroke-linecap="round" stroke-linejoin="round"/>
<path d="M174.9 69.7001L175.4 62.5001C175.617 59.8347 176.847 57.3538 178.837 55.568C180.828 53.7822 183.427 52.8274 186.1 52.9001V52.9001C187.392 52.8954 188.671 53.1548 189.858 53.6621C191.046 54.1695 192.118 54.9143 193.007 55.8507C193.897 56.7871 194.586 57.8955 195.032 59.1077C195.477 60.3199 195.671 61.6104 195.6 62.9001L195.1 70.6001" stroke="#003D68" stroke-linecap="round" stroke-linejoin="round"/>
<path d="M181.589 65.7847C182.282 65.4431 182.587 64.644 182.27 63.9999C181.953 63.3558 181.134 63.1106 180.44 63.4523C179.746 63.7939 179.441 64.5929 179.758 65.237C180.076 65.8811 180.895 66.1263 181.589 65.7847Z" fill="white" stroke="#003D68" stroke-linecap="round" stroke-linejoin="round"/>
<path d="M201.784 66.6727C202.478 66.3311 202.783 65.532 202.466 64.8879C202.149 64.2438 201.329 63.9986 200.636 64.3402C199.942 64.6818 199.637 65.4809 199.954 66.125C200.271 66.7691 201.091 67.0143 201.784 66.6727Z" fill="white" stroke="#003D68" stroke-linecap="round" stroke-linejoin="round"/>
<path d="M181.1 63.3L181.6 56.1C181.816 53.4346 183.047 50.9537 185.037 49.1678C187.027 47.382 189.627 46.4272 192.3 46.5V46.5C193.592 46.4953 194.871 46.7546 196.058 47.262C197.246 47.7694 198.318 48.5141 199.207 49.4506C200.097 50.387 200.786 51.4953 201.232 52.7075C201.677 53.9198 201.871 55.2103 201.8 56.5L201.3 64.2" stroke="#003D68" stroke-linecap="round" stroke-linejoin="round"/>
<path d="M202.5 68.5001L165.3 67.4001L175.8 62.1001L213 63.1001L202.5 68.5001Z" stroke="#003D68" stroke-linecap="round" stroke-linejoin="round"/>
<path d="M194.8 107.6C194.474 107.454 194.115 107.397 193.76 107.437C193.405 107.476 193.067 107.61 192.781 107.825C192.495 108.039 192.272 108.326 192.135 108.656C191.997 108.986 191.951 109.346 192 109.7C192.072 110.157 191.987 110.625 191.759 111.028C191.531 111.43 191.174 111.744 190.745 111.918C190.316 112.091 189.841 112.115 189.397 111.985C188.954 111.855 188.567 111.578 188.3 111.2C188.086 110.898 187.796 110.659 187.458 110.508C187.121 110.357 186.75 110.298 186.382 110.339C186.015 110.38 185.665 110.518 185.369 110.74C185.073 110.962 184.842 111.259 184.7 111.6C184 113.6 181 113.1 180.6 111C180.538 110.626 180.383 110.273 180.149 109.975C179.915 109.676 179.609 109.441 179.261 109.292C178.912 109.143 178.531 109.083 178.154 109.12C177.776 109.156 177.414 109.287 177.1 109.5C176.722 109.76 176.272 109.895 175.814 109.885C175.355 109.874 174.912 109.72 174.546 109.443C174.181 109.166 173.912 108.781 173.778 108.342C173.644 107.904 173.652 107.434 173.8 107C173.919 106.643 173.944 106.261 173.875 105.891C173.806 105.521 173.643 105.175 173.403 104.885C173.163 104.595 172.854 104.371 172.503 104.234C172.153 104.096 171.773 104.05 171.4 104.1C170.936 104.163 170.464 104.073 170.054 103.845C169.645 103.618 169.321 103.263 169.129 102.836C168.938 102.408 168.89 101.93 168.993 101.473C169.096 101.016 169.344 100.604 169.7 100.3C169.989 100.061 170.208 99.7478 170.334 99.3946C170.46 99.0414 170.489 98.6607 170.417 98.2925C170.346 97.9244 170.176 97.5822 169.927 97.302C169.678 97.0218 169.357 96.8139 169 96.7001C166.9 95.9001 167.2 92.9001 169.3 92.7001C169.655 92.6461 169.989 92.4975 170.267 92.2698C170.545 92.0422 170.757 91.7438 170.879 91.4062C171.002 91.0686 171.032 90.7041 170.965 90.3511C170.898 89.9981 170.738 89.6695 170.5 89.4001C170.228 89.0551 170.078 88.6304 170.071 88.1914C170.065 87.7523 170.203 87.3234 170.465 86.9708C170.727 86.6182 171.097 86.3615 171.519 86.2403C171.941 86.119 172.391 86.1401 172.8 86.3001C173.126 86.4464 173.485 86.5027 173.84 86.4632C174.195 86.4237 174.533 86.2898 174.819 86.0755C175.105 85.8611 175.328 85.5741 175.465 85.2443C175.603 84.9145 175.649 84.5539 175.6 84.2001C175.528 83.743 175.613 83.2752 175.841 82.8726C176.069 82.47 176.426 82.1562 176.855 81.9824C177.284 81.8086 177.759 81.7849 178.203 81.9152C178.646 82.0455 179.033 82.3221 179.3 82.7001C179.514 83.0018 179.804 83.2407 180.141 83.3922C180.479 83.5436 180.85 83.6019 181.218 83.5611C181.585 83.5202 181.935 83.3818 182.231 83.16C182.527 82.9382 182.758 82.6413 182.9 82.3001C183.6 80.3001 186.6 80.8001 187 82.9001C187.062 83.2743 187.217 83.6269 187.451 83.9254C187.685 84.2239 187.991 84.4587 188.339 84.6082C188.688 84.7576 189.069 84.8168 189.446 84.7805C189.824 84.7441 190.186 84.6133 190.5 84.4001C190.878 84.1398 191.328 84.0053 191.786 84.0156C192.244 84.0258 192.688 84.1804 193.054 84.4573C193.419 84.7343 193.688 85.1194 193.822 85.5579C193.956 85.9965 193.948 86.4661 193.8 86.9001C193.681 87.2573 193.656 87.6388 193.725 88.0087C193.794 88.3787 193.957 88.7249 194.197 89.0149C194.437 89.3049 194.746 89.529 195.097 89.6664C195.447 89.8037 195.827 89.8497 196.2 89.8001C196.664 89.7375 197.136 89.8268 197.546 90.0547C197.955 90.2826 198.279 90.6368 198.471 91.0644C198.662 91.4921 198.71 91.9701 198.607 92.4272C198.504 92.8842 198.256 93.2957 197.9 93.6001C197.611 93.8395 197.392 94.1523 197.266 94.5055C197.14 94.8587 197.111 95.2394 197.183 95.6076C197.254 95.9758 197.424 96.3179 197.673 96.5981C197.922 96.8783 198.243 97.0862 198.6 97.2001C200.7 98.0001 200.4 101 198.3 101.2C197.945 101.254 197.611 101.403 197.333 101.63C197.055 101.858 196.843 102.156 196.721 102.494C196.598 102.832 196.568 103.196 196.635 103.549C196.702 103.902 196.862 104.231 197.1 104.5C197.372 104.845 197.522 105.27 197.529 105.709C197.535 106.148 197.397 106.577 197.135 106.929C196.873 107.282 196.503 107.539 196.081 107.66C195.659 107.781 195.209 107.76 194.8 107.6Z" fill="white"/>
<path d="M194.8 107.6C194.474 107.454 194.115 107.397 193.76 107.437C193.405 107.476 193.067 107.61 192.781 107.824C192.495 108.039 192.272 108.326 192.135 108.656C191.997 108.985 191.951 109.346 192 109.7C192.072 110.157 191.987 110.625 191.759 111.027C191.531 111.43 191.174 111.744 190.745 111.918C190.316 112.091 189.841 112.115 189.397 111.985C188.954 111.854 188.567 111.578 188.3 111.2C188.086 110.898 187.796 110.659 187.458 110.508C187.121 110.356 186.75 110.298 186.382 110.339C186.015 110.38 185.665 110.518 185.369 110.74C185.073 110.962 184.842 111.259 184.7 111.6C184 113.6 181 113.1 180.6 111C180.538 110.626 180.383 110.273 180.149 109.975C179.915 109.676 179.609 109.441 179.261 109.292C178.912 109.142 178.531 109.083 178.154 109.119C177.776 109.156 177.414 109.287 177.1 109.5C176.722 109.76 176.272 109.895 175.814 109.884C175.355 109.874 174.912 109.72 174.546 109.443C174.181 109.166 173.912 108.781 173.778 108.342C173.644 107.903 173.652 107.434 173.8 107C173.919 106.643 173.944 106.261 173.875 105.891C173.806 105.521 173.643 105.175 173.403 104.885C173.163 104.595 172.854 104.371 172.503 104.234C172.153 104.096 171.773 104.05 171.4 104.1C170.936 104.162 170.464 104.073 170.054 103.845C169.645 103.617 169.321 103.263 169.129 102.836C168.938 102.408 168.89 101.93 168.993 101.473C169.096 101.016 169.344 100.604 169.7 100.3C169.989 100.06 170.208 99.7477 170.334 99.3945C170.46 99.0412 170.489 98.6606 170.417 98.2924C170.346 97.9242 170.176 97.582 169.927 97.3019C169.678 97.0217 169.357 96.8137 169 96.6999C166.9 95.8999 167.2 92.8999 169.3 92.6999C169.655 92.646 169.989 92.4974 170.267 92.2697C170.545 92.042 170.757 91.7437 170.879 91.406C171.002 91.0684 171.032 90.7039 170.965 90.3509C170.898 89.9979 170.738 89.6694 170.5 89.3999C170.228 89.055 170.078 88.6302 170.071 88.1912C170.065 87.7522 170.203 87.3233 170.465 86.9707C170.727 86.618 171.097 86.3613 171.519 86.2401C171.941 86.1189 172.391 86.1399 172.8 86.2999C174.3 86.9999 174.7 101.8 198.2 101.2C197.845 101.254 197.511 101.402 197.233 101.63C196.955 101.858 196.743 102.156 196.621 102.494C196.498 102.831 196.468 103.196 196.535 103.549C196.602 103.902 196.762 104.23 197 104.5C197.335 104.818 197.544 105.246 197.589 105.706C197.634 106.166 197.512 106.627 197.244 107.004C196.977 107.381 196.582 107.648 196.133 107.758C195.684 107.867 195.211 107.811 194.8 107.6Z" fill="#00C4D4"/>
<path d="M177.8 95.5999C177.288 94.9088 177.04 94.0578 177.1 93.1999C177.022 92.3711 177.274 91.5449 177.8 90.8999C178.056 90.6361 178.37 90.4355 178.717 90.314C179.065 90.1925 179.435 90.1534 179.8 90.1999C180.185 90.2185 180.561 90.317 180.905 90.4892C181.25 90.6613 181.554 90.9034 181.8 91.1999C182.312 91.891 182.56 92.7421 182.5 93.5999C182.578 94.4288 182.326 95.2549 181.8 95.8999C181.544 96.1638 181.23 96.3644 180.883 96.4859C180.535 96.6074 180.165 96.6464 179.8 96.5999C179.415 96.5814 179.039 96.4829 178.695 96.3107C178.35 96.1385 178.046 95.8965 177.8 95.5999ZM180.7 94.8999C180.937 94.4373 181.041 93.9181 181 93.3999C181.029 92.8826 180.925 92.3665 180.7 91.8999C180.623 91.7242 180.498 91.5741 180.338 91.4677C180.179 91.3614 179.992 91.3031 179.8 91.2999C179.616 91.2767 179.43 91.3126 179.268 91.4025C179.106 91.4924 178.977 91.6317 178.9 91.7999C178.663 92.2626 178.559 92.7818 178.6 93.2999C178.583 93.8164 178.685 94.3299 178.9 94.7999C178.977 94.9757 179.102 95.1257 179.262 95.2321C179.421 95.3385 179.608 95.3968 179.8 95.3999C179.98 95.4009 180.158 95.3554 180.315 95.2678C180.473 95.1802 180.606 95.0535 180.7 94.8999ZM179 102.9L187.2 90.7999L188.8 90.8999L180.6 103L179 102.9ZM186 102.6C185.488 101.909 185.24 101.058 185.3 100.2C185.222 99.3711 185.474 98.5449 186 97.8999C186.256 97.6361 186.57 97.4355 186.917 97.314C187.265 97.1925 187.635 97.1534 188 97.1999C188.385 97.2185 188.761 97.317 189.105 97.4892C189.45 97.6613 189.754 97.9034 190 98.1999C190.512 98.891 190.76 99.7421 190.7 100.6C190.778 101.429 190.526 102.255 190 102.9C189.744 103.164 189.43 103.364 189.083 103.486C188.735 103.607 188.365 103.646 188 103.6C187.229 103.537 186.513 103.179 186 102.6ZM189 101.9C189.237 101.437 189.341 100.918 189.3 100.4C189.329 99.8826 189.225 99.3665 189 98.8999C188.923 98.7242 188.798 98.5741 188.638 98.4677C188.479 98.3614 188.292 98.3031 188.1 98.2999C187.916 98.2767 187.73 98.3126 187.568 98.4025C187.406 98.4924 187.277 98.6317 187.2 98.7999C186.963 99.2626 186.859 99.7818 186.9 100.3C186.883 100.816 186.985 101.33 187.2 101.8C187.277 101.976 187.402 102.126 187.562 102.232C187.721 102.338 187.908 102.397 188.1 102.4C188.28 102.4 188.457 102.354 188.615 102.267C188.772 102.179 188.905 102.053 189 101.9Z" fill="#003D68"/>
<path d="M194.8 107.6C194.474 107.454 194.115 107.397 193.76 107.437C193.405 107.476 193.067 107.61 192.781 107.825C192.495 108.039 192.272 108.326 192.135 108.656C191.997 108.986 191.951 109.346 192 109.7C192.072 110.157 191.987 110.625 191.759 111.028C191.531 111.43 191.174 111.744 190.745 111.918C190.316 112.091 189.841 112.115 189.397 111.985C188.954 111.855 188.567 111.578 188.3 111.2V111.2C188.086 110.898 187.796 110.659 187.458 110.508C187.121 110.357 186.75 110.298 186.382 110.339C186.015 110.38 185.665 110.518 185.369 110.74C185.073 110.962 184.842 111.259 184.7 111.6V111.6C184 113.6 181 113.1 180.6 111C180.538 110.626 180.383 110.273 180.149 109.975C179.915 109.676 179.609 109.441 179.261 109.292C178.912 109.143 178.531 109.083 178.154 109.12C177.776 109.156 177.414 109.287 177.1 109.5V109.5C176.722 109.76 176.272 109.895 175.814 109.885C175.355 109.874 174.912 109.72 174.546 109.443C174.181 109.166 173.912 108.781 173.778 108.342C173.644 107.904 173.652 107.434 173.8 107V107C173.919 106.643 173.944 106.261 173.875 105.891C173.806 105.521 173.643 105.175 173.403 104.885C173.163 104.595 172.854 104.371 172.503 104.234C172.153 104.096 171.773 104.05 171.4 104.1C170.936 104.163 170.464 104.073 170.054 103.845C169.645 103.618 169.321 103.263 169.129 102.836C168.938 102.408 168.89 101.93 168.993 101.473C169.096 101.016 169.344 100.604 169.7 100.3V100.3C169.989 100.061 170.208 99.7478 170.334 99.3946C170.46 99.0414 170.489 98.6607 170.417 98.2925C170.346 97.9244 170.176 97.5822 169.927 97.302C169.678 97.0218 169.357 96.8139 169 96.7001V96.7001C166.9 95.9001 167.2 92.9001 169.3 92.7001C169.655 92.6461 169.989 92.4975 170.267 92.2698C170.545 92.0422 170.757 91.7438 170.879 91.4062C171.002 91.0686 171.032 90.7041 170.965 90.3511C170.898 89.9981 170.738 89.6695 170.5 89.4001C170.228 89.0551 170.078 88.6304 170.071 88.1914C170.065 87.7523 170.203 87.3234 170.465 86.9708C170.727 86.6182 171.097 86.3615 171.519 86.2403C171.941 86.119 172.391 86.1401 172.8 86.3001C173.126 86.4464 173.485 86.5027 173.84 86.4632C174.195 86.4237 174.533 86.2898 174.819 86.0755C175.105 85.8611 175.328 85.5741 175.465 85.2443C175.603 84.9145 175.649 84.5539 175.6 84.2001C175.528 83.743 175.613 83.2752 175.841 82.8726C176.069 82.47 176.426 82.1562 176.855 81.9824C177.284 81.8086 177.759 81.7849 178.203 81.9152C178.646 82.0455 179.033 82.3221 179.3 82.7001V82.7001C179.514 83.0018 179.804 83.2407 180.141 83.3922C180.479 83.5436 180.85 83.6019 181.218 83.5611C181.585 83.5202 181.935 83.3818 182.231 83.16C182.527 82.9382 182.758 82.6413 182.9 82.3001V82.3001C183.6 80.3001 186.6 80.8001 187 82.9001C187.062 83.2743 187.217 83.6269 187.451 83.9254C187.685 84.2239 187.991 84.4587 188.339 84.6082C188.688 84.7576 189.069 84.8168 189.446 84.7805C189.824 84.7441 190.186 84.6133 190.5 84.4001V84.4001C190.878 84.1398 191.328 84.0053 191.786 84.0156C192.244 84.0258 192.688 84.1804 193.054 84.4573C193.419 84.7343 193.688 85.1194 193.822 85.5579C193.956 85.9965 193.948 86.4661 193.8 86.9001V86.9001C193.681 87.2573 193.656 87.6388 193.725 88.0087C193.794 88.3787 193.957 88.7249 194.197 89.0149C194.437 89.3049 194.746 89.529 195.097 89.6664C195.447 89.8037 195.827 89.8497 196.2 89.8001V89.8001C196.664 89.7375 197.136 89.8268 197.546 90.0547C197.955 90.2826 198.279 90.6368 198.471 91.0644C198.662 91.4921 198.71 91.9701 198.607 92.4272C198.504 92.8842 198.256 93.2957 197.9 93.6001C197.611 93.8395 197.392 94.1523 197.266 94.5055C197.14 94.8587 197.111 95.2394 197.183 95.6076C197.254 95.9758 197.424 96.3179 197.673 96.5981C197.922 96.8783 198.243 97.0862 198.6 97.2001V97.2001C200.7 98.0001 200.4 101 198.3 101.2C197.945 101.254 197.611 101.403 197.333 101.63C197.055 101.858 196.843 102.156 196.721 102.494C196.598 102.832 196.568 103.196 196.635 103.549C196.702 103.902 196.862 104.231 197.1 104.5C197.372 104.845 197.522 105.27 197.529 105.709C197.535 106.148 197.397 106.577 197.135 106.929C196.873 107.282 196.503 107.539 196.081 107.66C195.659 107.781 195.209 107.76 194.8 107.6V107.6Z" stroke="#003D68" stroke-linecap="round" stroke-linejoin="round"/>
<path d="M204.6 122.4L209.4 109.4L216.3 116.4" stroke="#003D68" stroke-linecap="round" stroke-linejoin="round"/>
<path d="M209.4 109.4L207.4 66" stroke="#003D68" stroke-linecap="round" stroke-linejoin="round"/>
</g>
<defs>
<linearGradient id="paint0_linear_1619_14223" x1="109.1" y1="60.4001" x2="130.57" y2="60.4001" gradientUnits="userSpaceOnUse">
<stop stop-color="#E6E6E6"/>
<stop offset="1" stop-color="#ECECEC"/>
</linearGradient>
<linearGradient id="paint1_linear_1619_14223" x1="105.7" y1="79.6" x2="127.17" y2="79.6" gradientUnits="userSpaceOnUse">
<stop stop-color="#E6E6E6"/>
<stop offset="1" stop-color="#ECECEC"/>
</linearGradient>
<linearGradient id="paint2_linear_1619_14223" x1="133.02" y1="61.1" x2="154.49" y2="61.1" gradientUnits="userSpaceOnUse">
<stop stop-color="#E6E6E6"/>
<stop offset="1" stop-color="#ECECEC"/>
</linearGradient>
<linearGradient id="paint3_linear_1619_14223" x1="130.17" y1="80.1999" x2="151.64" y2="80.1999" gradientUnits="userSpaceOnUse">
<stop stop-color="#E6E6E6"/>
<stop offset="1" stop-color="#ECECEC"/>
</linearGradient>
<linearGradient id="paint4_linear_1619_14223" x1="157.73" y1="61.8" x2="179.2" y2="61.8" gradientUnits="userSpaceOnUse">
<stop stop-color="#E6E6E6"/>
<stop offset="1" stop-color="#ECECEC"/>
</linearGradient>
<linearGradient id="paint5_linear_1619_14223" x1="154.5" y1="80.8" x2="175.97" y2="80.8" gradientUnits="userSpaceOnUse">
<stop stop-color="#E6E6E6"/>
<stop offset="1" stop-color="#ECECEC"/>
</linearGradient>
<linearGradient id="paint6_linear_1619_14223" x1="83.29" y1="69.2" x2="106.13" y2="69.2" gradientUnits="userSpaceOnUse">
<stop stop-color="#E6E6E6"/>
<stop offset="1" stop-color="#ECECEC"/>
</linearGradient>
<linearGradient id="paint7_linear_1619_14223" x1="7.05001" y1="86.25" x2="33.89" y2="86.25" gradientUnits="userSpaceOnUse">
<stop stop-color="#E6E6E6"/>
<stop offset="1" stop-color="#ECECEC"/>
</linearGradient>
<linearGradient id="paint8_linear_1619_14223" x1="75.15" y1="101.9" x2="88.95" y2="101.9" gradientUnits="userSpaceOnUse">
<stop stop-color="#E6E6E6"/>
<stop offset="1" stop-color="#ECECEC"/>
</linearGradient>
<linearGradient id="paint9_linear_1619_14223" x1="84.75" y1="102.2" x2="98.55" y2="102.2" gradientUnits="userSpaceOnUse">
<stop stop-color="#E6E6E6"/>
<stop offset="1" stop-color="#ECECEC"/>
</linearGradient>
<linearGradient id="paint10_linear_1619_14223" x1="94.36" y1="102.5" x2="108.16" y2="102.5" gradientUnits="userSpaceOnUse">
<stop stop-color="#E6E6E6"/>
<stop offset="1" stop-color="#ECECEC"/>
</linearGradient>
<linearGradient id="paint11_linear_1619_14223" x1="103.97" y1="102.8" x2="117.77" y2="102.8" gradientUnits="userSpaceOnUse">
<stop stop-color="#E6E6E6"/>
<stop offset="1" stop-color="#ECECEC"/>
</linearGradient>
<linearGradient id="paint12_linear_1619_14223" x1="113.58" y1="103.1" x2="127.38" y2="103.1" gradientUnits="userSpaceOnUse">
<stop stop-color="#E6E6E6"/>
<stop offset="1" stop-color="#ECECEC"/>
</linearGradient>
<linearGradient id="paint13_linear_1619_14223" x1="123.2" y1="103.4" x2="137" y2="103.4" gradientUnits="userSpaceOnUse">
<stop stop-color="#E6E6E6"/>
<stop offset="1" stop-color="#ECECEC"/>
</linearGradient>
<linearGradient id="paint14_linear_1619_14223" x1="132.8" y1="103.7" x2="146.6" y2="103.7" gradientUnits="userSpaceOnUse">
<stop stop-color="#E6E6E6"/>
<stop offset="1" stop-color="#ECECEC"/>
</linearGradient>
<linearGradient id="paint15_linear_1619_14223" x1="142.4" y1="104" x2="156.2" y2="104" gradientUnits="userSpaceOnUse">
<stop stop-color="#E6E6E6"/>
<stop offset="1" stop-color="#ECECEC"/>
</linearGradient>
<linearGradient id="paint16_linear_1619_14223" x1="65.65" y1="106.8" x2="79.45" y2="106.8" gradientUnits="userSpaceOnUse">
<stop stop-color="#E6E6E6"/>
<stop offset="1" stop-color="#ECECEC"/>
</linearGradient>
<linearGradient id="paint17_linear_1619_14223" x1="75.26" y1="107.1" x2="89.06" y2="107.1" gradientUnits="userSpaceOnUse">
<stop stop-color="#E6E6E6"/>
<stop offset="1" stop-color="#ECECEC"/>
</linearGradient>
<linearGradient id="paint18_linear_1619_14223" x1="84.87" y1="107.4" x2="98.67" y2="107.4" gradientUnits="userSpaceOnUse">
<stop stop-color="#E6E6E6"/>
<stop offset="1" stop-color="#ECECEC"/>
</linearGradient>
<linearGradient id="paint19_linear_1619_14223" x1="94.48" y1="107.75" x2="108.28" y2="107.75" gradientUnits="userSpaceOnUse">
<stop stop-color="#E6E6E6"/>
<stop offset="1" stop-color="#ECECEC"/>
</linearGradient>
<linearGradient id="paint20_linear_1619_14223" x1="104.08" y1="108.1" x2="117.88" y2="108.1" gradientUnits="userSpaceOnUse">
<stop stop-color="#E6E6E6"/>
<stop offset="1" stop-color="#ECECEC"/>
</linearGradient>
<linearGradient id="paint21_linear_1619_14223" x1="113.7" y1="108.4" x2="127.5" y2="108.4" gradientUnits="userSpaceOnUse">
<stop stop-color="#E6E6E6"/>
<stop offset="1" stop-color="#ECECEC"/>
</linearGradient>
<linearGradient id="paint22_linear_1619_14223" x1="123.3" y1="108.7" x2="137.1" y2="108.7" gradientUnits="userSpaceOnUse">
<stop stop-color="#E6E6E6"/>
<stop offset="1" stop-color="#ECECEC"/>
</linearGradient>
<linearGradient id="paint23_linear_1619_14223" x1="132.9" y1="109" x2="146.7" y2="109" gradientUnits="userSpaceOnUse">
<stop stop-color="#E6E6E6"/>
<stop offset="1" stop-color="#ECECEC"/>
</linearGradient>
<linearGradient id="paint24_linear_1619_14223" x1="56.16" y1="111.8" x2="69.96" y2="111.8" gradientUnits="userSpaceOnUse">
<stop stop-color="#E6E6E6"/>
<stop offset="1" stop-color="#ECECEC"/>
</linearGradient>
<linearGradient id="paint25_linear_1619_14223" x1="65.77" y1="112.1" x2="79.57" y2="112.1" gradientUnits="userSpaceOnUse">
<stop stop-color="#E6E6E6"/>
<stop offset="1" stop-color="#ECECEC"/>
</linearGradient>
<linearGradient id="paint26_linear_1619_14223" x1="75.37" y1="112.4" x2="89.17" y2="112.4" gradientUnits="userSpaceOnUse">
<stop stop-color="#E6E6E6"/>
<stop offset="1" stop-color="#ECECEC"/>
</linearGradient>
<linearGradient id="paint27_linear_1619_14223" x1="84.98" y1="112.7" x2="98.78" y2="112.7" gradientUnits="userSpaceOnUse">
<stop stop-color="#E6E6E6"/>
<stop offset="1" stop-color="#ECECEC"/>
</linearGradient>
<linearGradient id="paint28_linear_1619_14223" x1="94.6" y1="113" x2="108.4" y2="113" gradientUnits="userSpaceOnUse">
<stop stop-color="#E6E6E6"/>
<stop offset="1" stop-color="#ECECEC"/>
</linearGradient>
<linearGradient id="paint29_linear_1619_14223" x1="104.2" y1="113.3" x2="118" y2="113.3" gradientUnits="userSpaceOnUse">
<stop stop-color="#E6E6E6"/>
<stop offset="1" stop-color="#ECECEC"/>
</linearGradient>
<linearGradient id="paint30_linear_1619_14223" x1="113.8" y1="113.6" x2="127.6" y2="113.6" gradientUnits="userSpaceOnUse">
<stop stop-color="#E6E6E6"/>
<stop offset="1" stop-color="#ECECEC"/>
</linearGradient>
<linearGradient id="paint31_linear_1619_14223" x1="123.42" y1="113.95" x2="137.22" y2="113.95" gradientUnits="userSpaceOnUse">
<stop stop-color="#E6E6E6"/>
<stop offset="1" stop-color="#ECECEC"/>
</linearGradient>
<linearGradient id="paint32_linear_1619_14223" x1="46.66" y1="116.7" x2="60.46" y2="116.7" gradientUnits="userSpaceOnUse">
<stop stop-color="#E6E6E6"/>
<stop offset="1" stop-color="#ECECEC"/>
</linearGradient>
<linearGradient id="paint33_linear_1619_14223" x1="56.27" y1="117" x2="70.07" y2="117" gradientUnits="userSpaceOnUse">
<stop stop-color="#E6E6E6"/>
<stop offset="1" stop-color="#ECECEC"/>
</linearGradient>
<linearGradient id="paint34_linear_1619_14223" x1="65.88" y1="117.35" x2="79.68" y2="117.35" gradientUnits="userSpaceOnUse">
<stop stop-color="#E6E6E6"/>
<stop offset="1" stop-color="#ECECEC"/>
</linearGradient>
<linearGradient id="paint35_linear_1619_14223" x1="75.5" y1="117.65" x2="89.3" y2="117.65" gradientUnits="userSpaceOnUse">
<stop stop-color="#E6E6E6"/>
<stop offset="1" stop-color="#ECECEC"/>
</linearGradient>
<linearGradient id="paint36_linear_1619_14223" x1="85.1" y1="118" x2="98.9" y2="118" gradientUnits="userSpaceOnUse">
<stop stop-color="#E6E6E6"/>
<stop offset="1" stop-color="#ECECEC"/>
</linearGradient>
<linearGradient id="paint37_linear_1619_14223" x1="94.7" y1="118.3" x2="108.5" y2="118.3" gradientUnits="userSpaceOnUse">
<stop stop-color="#E6E6E6"/>
<stop offset="1" stop-color="#ECECEC"/>
</linearGradient>
<linearGradient id="paint38_linear_1619_14223" x1="104.3" y1="118.6" x2="118.1" y2="118.6" gradientUnits="userSpaceOnUse">
<stop stop-color="#E6E6E6"/>
<stop offset="1" stop-color="#ECECEC"/>
</linearGradient>
<linearGradient id="paint39_linear_1619_14223" x1="113.92" y1="118.9" x2="127.72" y2="118.9" gradientUnits="userSpaceOnUse">
<stop stop-color="#E6E6E6"/>
<stop offset="1" stop-color="#ECECEC"/>
</linearGradient>
<linearGradient id="paint40_linear_1619_14223" x1="165.3" y1="65.3001" x2="213" y2="65.3001" gradientUnits="userSpaceOnUse">
<stop stop-color="#E6E6E6"/>
<stop offset="1" stop-color="#ECECEC"/>
</linearGradient>
<linearGradient id="paint41_linear_1619_14223" x1="202.52" y1="94.2" x2="216.26" y2="94.2" gradientUnits="userSpaceOnUse">
<stop stop-color="#E6E6E6"/>
<stop offset="1" stop-color="#ECECEC"/>
</linearGradient>
<clipPath id="clip0_1619_14223">
<rect width="216.8" height="132" fill="white"/>
</clipPath>
</defs>
</svg>
