<svg width="124" height="101" viewBox="0 0 124 101" fill="none" xmlns="http://www.w3.org/2000/svg">
<path d="M80.9527 96.5111L46.0654 95.3889L56.8559 90.1144L91.7432 91.1805L80.9527 96.5111Z" fill="#003C65" stroke="#003C65" stroke-width="1.8" stroke-miterlimit="10" stroke-linecap="round" stroke-linejoin="round"/>
<path d="M76.033 94.3789L58.0862 93.93L57.8066 76.6478L76.033 77.0405V94.3789Z" fill="white"/>
<path d="M57.8066 76.6478C57.8066 76.6478 66.2489 87.6455 76.0889 88.9922L76.033 77.0405L57.8066 76.6478Z" fill="#8BBECE"/>
<path d="M76.033 94.3789L58.0862 93.93L57.8066 76.6478L76.033 77.0405V94.3789Z" stroke="#003C65" stroke-width="1.8" stroke-miterlimit="10" stroke-linecap="round" stroke-linejoin="round"/>
<path d="M80.2823 92.2467L76.0332 94.3789V77.0405L80.2823 74.9083V92.2467Z" fill="#003C65" stroke="#003C65" stroke-width="1.8" stroke-miterlimit="10" stroke-linecap="round" stroke-linejoin="round"/>
<path d="M113.995 80.5756L18.1111 76.76C17.7756 76.76 17.4961 76.4794 17.4961 76.1428V7.91167C17.4961 7.575 17.7756 7.35056 18.1111 7.35056L113.995 11.1661C114.331 11.1661 114.61 11.4467 114.61 11.7833V80.0705C114.61 80.295 114.331 80.5756 113.995 80.5756Z" fill="white"/>
<path d="M113.995 80.5756L18.1111 76.76C17.7756 76.76 17.4961 76.4794 17.4961 76.1428V7.91167C17.4961 7.575 17.7756 7.35056 18.1111 7.35056L113.995 11.1661C114.331 11.1661 114.61 11.4467 114.61 11.7833V80.0705C114.61 80.295 114.331 80.5756 113.995 80.5756Z" stroke="#003C65" stroke-width="1.8" stroke-miterlimit="10" stroke-linecap="round" stroke-linejoin="round"/>
<path d="M114.61 80.5756V11.2222L17.5517 7.35055C17.4958 7.35055 17.4958 7.29444 17.5517 7.23832L21.4653 4.43277L117.349 8.24833C117.685 8.24833 117.964 8.52888 117.964 8.86555V77.1528L114.61 80.5756Z" fill="#003C65" stroke="#003C65" stroke-miterlimit="10"/>
<path d="M65.4113 47.975L23.9268 46.3478V28.0555L82.6872 30.3V31.9833C82.7431 41.1855 74.9718 48.3678 65.4113 47.975Z" fill="#8BBECE"/>
<path d="M105.274 36.3039L95.0986 35.9111C95.0986 34.4522 96.2727 33.33 97.8382 33.3861L105.274 33.6667V36.3039Z" fill="url(#paint0_linear_343_11252)"/>
<path d="M99.404 54.3716L89.2285 53.9789C89.2285 52.52 90.4026 51.3977 91.9681 51.4539L99.404 51.7344V54.3716Z" fill="url(#paint1_linear_343_11252)"/>
<path d="M108.349 23.5105L47.4639 21.1539C47.4639 18.6289 49.5884 16.665 52.1602 16.7772L108.293 18.9094V23.5105H108.349Z" fill="url(#paint2_linear_343_11252)"/>
<path d="M107.846 74.8522L24.2617 71.6539C23.9822 71.6539 23.8145 71.4294 23.8145 71.205V12.5128C23.8145 12.2322 24.0381 12.0639 24.3735 12.0639L107.958 15.2622C108.237 15.2622 108.405 15.4867 108.405 15.7111V74.3472C108.349 74.6278 108.125 74.8522 107.846 74.8522Z" stroke="#003C65" stroke-width="1.8" stroke-miterlimit="10" stroke-linecap="round" stroke-linejoin="round"/>
<path d="M82.7426 48.6483L23.8145 46.3478V27.9433L82.7426 30.2439V48.6483Z" stroke="#003C65" stroke-width="1.8" stroke-miterlimit="10" stroke-linecap="round" stroke-linejoin="round"/>
<path d="M29.1195 16.3126C29.376 15.7149 29.0551 15.0018 28.4028 14.7199C27.7505 14.438 27.0138 14.694 26.7573 15.2918C26.5009 15.8895 26.8218 16.6026 27.4741 16.8845C28.1264 17.1664 28.8631 16.9104 29.1195 16.3126Z" stroke="#003C65" stroke-width="1.8001" stroke-miterlimit="10.0003" stroke-linecap="round" stroke-linejoin="round"/>
<path d="M33.8852 16.5237C34.1416 15.926 33.8207 15.2129 33.1684 14.931C32.5161 14.6491 31.7794 14.9052 31.5229 15.5029C31.2665 16.1006 31.5874 16.8137 32.2397 17.0956C32.892 17.3775 33.6287 17.1215 33.8852 16.5237Z" stroke="#003C65" stroke-width="1.8001" stroke-miterlimit="10.0003" stroke-linecap="round" stroke-linejoin="round"/>
<path d="M38.6381 16.6627C38.8945 16.0649 38.5736 15.3519 37.9213 15.07C37.269 14.7881 36.5323 15.0441 36.2759 15.6419C36.0194 16.2396 36.3403 16.9527 36.9926 17.2346C37.6449 17.5165 38.3816 17.2604 38.6381 16.6627Z" stroke="#003C65" stroke-width="1.8001" stroke-miterlimit="10.0003" stroke-linecap="round" stroke-linejoin="round"/>
<path d="M105.243 19.2453C105.499 18.6476 105.178 17.9345 104.526 17.6526C103.874 17.3707 103.137 17.6268 102.88 18.2245C102.624 18.8222 102.945 19.5353 103.597 19.8172C104.249 20.0991 104.986 19.8431 105.243 19.2453Z" stroke="#003C65" stroke-width="1.8001" stroke-miterlimit="10.0003" stroke-linecap="round" stroke-linejoin="round"/>
<path d="M23.8145 20.2561L108.349 23.5105" stroke="#003C65" stroke-width="1.8" stroke-miterlimit="10" stroke-linecap="round" stroke-linejoin="round"/>
<path d="M82.7422 22.6128V73.8422" stroke="#003C65" stroke-width="1.8" stroke-miterlimit="10" stroke-linecap="round" stroke-linejoin="round"/>
<path d="M105.274 36.3039L93.5332 35.855V31.2539L105.274 31.6467V36.3039Z" stroke="#003C65" stroke-width="1.8" stroke-miterlimit="10" stroke-linecap="round" stroke-linejoin="round"/>
<path d="M98.6772 54.7644L86.9922 54.3155V49.7144L98.6772 50.1633V54.7644Z" stroke="#003C65" stroke-width="1.8" stroke-miterlimit="10" stroke-linecap="round" stroke-linejoin="round"/>
<path d="M86.9922 40.1755L105.274 40.905" stroke="#003C65" stroke-width="1.8" stroke-miterlimit="10" stroke-linecap="round" stroke-linejoin="round"/>
<path d="M29.1816 56.2233L57.4157 57.3455" stroke="#003C65" stroke-width="1.8" stroke-miterlimit="10" stroke-linecap="round" stroke-linejoin="round"/>
<path d="M86.9922 44.7766L105.274 45.45" stroke="#003C65" stroke-width="1.8" stroke-miterlimit="10" stroke-linecap="round" stroke-linejoin="round"/>
<path d="M29.1816 51.1733L78.6053 53.025" stroke="#003C65" stroke-width="1.8" stroke-miterlimit="10" stroke-linecap="round" stroke-linejoin="round"/>
<path d="M29.6842 91.405V91.6294C29.6842 93.3689 28.3424 94.7156 26.7769 94.6033L9.94829 93.8739C8.32692 93.8178 7.04102 92.3589 7.04102 90.6756V90.4511L29.6842 91.405Z" fill="#003C65" stroke="#003C65" stroke-width="1.8" stroke-miterlimit="10" stroke-linecap="round" stroke-linejoin="round"/>
<path d="M29.6842 57.6822L7.04102 56.7283C7.04102 54.9889 8.38283 53.6422 9.94829 53.7544L26.7769 54.4839C28.4542 54.5961 29.6842 56.055 29.6842 57.6822Z" fill="#003C65" stroke="#003C65" stroke-width="1.8" stroke-miterlimit="10" stroke-linecap="round" stroke-linejoin="round"/>
<path d="M29.6842 57.6822V91.405L7.04102 90.395V56.7844L29.6842 57.6822Z" stroke="#003C65" stroke-width="1.8" stroke-miterlimit="10" stroke-linecap="round" stroke-linejoin="round"/>
<path d="M28.7899 58.3555V92.0222L6.09082 91.0683V57.4578L28.7899 58.3555Z" fill="white"/>
<path d="M25.7149 88.3189L9.16578 87.6455C8.83033 87.6455 8.55078 87.3089 8.55078 86.9722V75.5816C8.55078 75.245 8.83033 74.9644 9.16578 74.9644L25.7149 75.6939C26.0503 75.6939 26.3299 76.0305 26.3299 76.3672V87.7577C26.274 88.0944 26.0503 88.375 25.7149 88.3189Z" fill="#8BBECE"/>
<path d="M28.7897 92.0222V92.2466C28.7897 93.9861 27.4478 95.3327 25.8824 95.2205L9.05376 94.4911C7.43239 94.435 6.14648 92.9761 6.14648 91.2927V91.0683L28.7897 92.0222Z" fill="#003C65" stroke="#003C65" stroke-width="1.8" stroke-miterlimit="10" stroke-linecap="round" stroke-linejoin="round"/>
<path d="M28.7899 58.3555L6.09082 57.4578C6.09082 55.7183 7.43264 54.3716 8.99809 54.4839L25.8267 55.2133C27.4481 55.2133 28.7899 56.6161 28.7899 58.3555Z" fill="#003C65" stroke="#003C65" stroke-width="1.8" stroke-miterlimit="10" stroke-linecap="round" stroke-linejoin="round"/>
<path d="M28.7899 58.3555V92.0222L6.09082 91.0683V57.4578L28.7899 58.3555Z" stroke="#003C65" stroke-width="1.8" stroke-miterlimit="10" stroke-linecap="round" stroke-linejoin="round"/>
<path fill-rule="evenodd" clip-rule="evenodd" d="M22.193 67.1089C22.193 64.0228 19.8449 61.4978 16.9935 61.3855C14.1421 61.2733 11.7939 63.63 11.7939 66.66C11.7939 69.7461 14.1421 72.2711 16.9935 72.3833C19.8449 72.4955 22.193 70.0828 22.193 67.1089ZM15.8194 69.8022L14.0303 64.64C14.3099 64.64 14.6453 64.64 14.6453 64.64C14.9249 64.64 14.8689 64.0228 14.6453 64.0228C14.6453 64.0228 13.9185 64.0228 13.3594 64.0228C13.3035 64.0228 13.1358 64.0228 13.0239 64.0228C13.8067 62.6761 15.2603 61.8905 16.8817 61.9466C18.0558 62.0028 19.2299 62.5639 20.0126 63.3494C19.6771 63.2933 19.1739 63.5739 19.1739 64.1911C19.1739 64.5278 19.3976 64.8644 19.5653 65.2011C19.5653 65.2572 19.6212 65.3133 19.6212 65.3133C19.8449 65.65 19.9008 66.0428 19.9008 66.7161C19.9008 67.5016 19.1739 69.4655 19.1739 69.4655L17.5526 64.8083C17.8321 64.8083 17.9439 64.7522 17.9439 64.7522C18.2235 64.7522 18.1676 64.0789 17.9439 64.0789C17.9439 64.0789 17.2171 64.135 16.658 64.0789C16.2108 64.0789 15.4839 63.9666 15.4839 63.9666C15.2044 63.9666 15.2044 64.64 15.4839 64.64L15.9312 64.6961L16.6021 66.6039L15.8194 69.8022ZM20.8512 66.9966C20.4599 68.0628 20.1244 69.1289 19.733 70.1389C19.6212 70.5316 19.4535 70.8683 19.3417 71.2611C20.7394 70.4755 21.578 68.8483 21.578 67.0528C21.578 66.2111 21.3544 65.3694 21.0189 64.64C21.1867 65.9866 21.0189 66.66 20.8512 66.9966ZM14.9808 71.2611C13.4712 70.4194 12.4089 68.68 12.4089 66.66C12.4089 65.9305 12.5208 65.3133 12.8003 64.7522C12.9121 65.2011 13.1358 65.7061 13.2476 66.155C13.7508 67.7822 14.3658 69.5216 14.9808 71.2611ZM18.3912 71.5978L17.0494 67.67C16.7699 68.3994 16.6021 69.185 16.3226 69.9144C16.0989 70.4755 15.9871 70.9805 15.7635 71.5416C16.1549 71.6539 16.5462 71.7661 16.9376 71.8222C17.4967 71.7661 17.9439 71.71 18.3912 71.5978Z" fill="#02395C"/>
<path d="M15.4277 56.2794L18.5586 56.4477" stroke="white" stroke-width="3" stroke-miterlimit="10" stroke-linecap="round" stroke-linejoin="round"/>
<defs>
<linearGradient id="paint0_linear_343_11252" x1="95.1016" y1="34.5698" x2="105.267" y2="34.5698" gradientUnits="userSpaceOnUse">
<stop stop-color="#E8E8E8"/>
<stop offset="1" stop-color="#EEEEEE"/>
</linearGradient>
<linearGradient id="paint1_linear_343_11252" x1="89.2358" y1="52.6392" x2="99.4011" y2="52.6392" gradientUnits="userSpaceOnUse">
<stop stop-color="#E8E8E8"/>
<stop offset="1" stop-color="#EEEEEE"/>
</linearGradient>
<linearGradient id="paint2_linear_343_11252" x1="47.4447" y1="18.8357" x2="108.37" y2="18.8357" gradientUnits="userSpaceOnUse">
<stop stop-color="#E8E8E8"/>
<stop offset="1" stop-color="#EEEEEE"/>
</linearGradient>
</defs>
</svg>
