<svg id="Layer_1" xmlns="http://www.w3.org/2000/svg" width="400px" height="250px" viewBox="0 0 400 250">
    <style>
        .st0{fill:#F6F6F6}.st1{fill:none}.st2{fill:#204A69}.st3{fill:#46799A}.st4{fill:#204A69}.st5{fill:#204A69}.st6{fill:none;stroke:#204A69;stroke-linecap:round;stroke-linejoin:round;stroke-miterlimit:10}.st7{fill:#6F93AD}.st8{fill:#CCCED0}.st9{fill:#969CA1}.st10{fill:#E1E2E2}
    </style>
    <path class="st0" d="M162.1 162.9C137.5 181 117 196 110.6 200.7h.3l18.3-11.5-14.5 11.5h1.1l14.1-10.4-11.2 10.4h1.2c9.2-7.3 25.6-20.3 44.4-35.1l-2.2-2.7z"/>
    <path class="st1" d="M130.1 190.3l-14.2 10.4h3l11.2-10.4zm-.9-1.1l-18.3 11.5h3.9l14.4-11.5z"/>
    <path class="st0" d="M165.8 110.3h-.1c-.8-.3-1.8-.6-2.7-1l.5-.5c.5.8.9 1.6 1.3 2.4l.1.2-.1.2-1.2 2.5-.7-.7 2.5-1.2.2-.1.2.1 2.5 1.2-.7.7c-.4-.8-.8-1.7-1.2-2.5l-.1-.2.1-.2c.4-.8.9-1.6 1.3-2.4l.5.5c-.7.4-1.6.7-2.4 1zm-.2-.2c.9-.5 1.7-1 2.4-1.4l.9-.5-.4 1c-.4.9-.7 1.7-1.1 2.6v-.4c.4.8.8 1.7 1.2 2.5l.7 1.4-1.4-.6-2.5-1.2h.5l-2.5 1.2-1.5.7.7-1.4 1.2-2.5v.4c-.4-.8-.7-1.7-1.1-2.6l-.4-1 .9.5c.9.3 1.6.7 2.4 1.3zm12.1 40l2.4 2.2c31.8-25.2 68.9-54.3 90.3-70.8-21.8 16.3-59.9 44.5-92.7 68.6z"/>
    <path class="st2" d="M276 77.3c-.9-1.2-8.9 3-8.9 3s2.2.1 3.1 1.2c.2-.2.5-.4.7-.6-.2.2-.5.4-.7.6 0 0 .1 0 .1.1.9 1.2.4 3.4.4 3.4s6.2-6.5 5.3-7.7z"/>
    <path class="st2" d="M275.9 77.5c-.2-.1-.6 0-.9.2-.3.1-.7.3-1 .5-.7.3-1.4.7-2.1 1-1.4.7-2.8 1.4-4.2 2.2l-.4-2c.4 0 .7.1 1 .1.3.1.6.1 1 .2.6.2 1.3.5 1.9 1.2l-1.5-.2.7-.6c.5-.4 1.2-.3 1.6.2s.3 1.2-.2 1.6l-.7.6.2-1.6c.3.4.5.8.6 1.2.1.4.2.8.2 1.1v1.1c0 .4-.1.7-.2 1.1l-1.8-.9c1.1-1.1 2.1-2.3 3.2-3.4.5-.6 1-1.2 1.5-1.7.2-.3.5-.6.6-.9.1-.1.2-.3.2-.4.1-.1.1-.2.1-.2l.2-.4zm.4-.4c.3.4.2.7.2.9 0 .3-.1.5-.2.7-.1.4-.3.8-.5 1.2-.4.7-.8 1.4-1.3 2.1-.9 1.4-1.9 2.6-3 3.8-.4.4-1 .5-1.5.1-.3-.2-.4-.6-.3-.9v-.1c0-.2.1-.5.1-.7v-.7c-.1-.5-.2-.9-.4-1-.4-.4-.5-1-.1-1.4l.1-.1.1-.1.7-.6 1.4 1.8-.7.6c-.5.4-1.1.3-1.5-.2-.2-.2-.5-.4-1-.6-.2-.1-.4-.1-.7-.2-.2-.1-.5-.1-.7-.1h-.1c-.6-.1-1-.6-.9-1.2 0-.4.3-.7.6-.8 1.5-.7 2.9-1.4 4.5-1.9.8-.3 1.6-.5 2.4-.6.4-.1.8-.1 1.3-.1.2 0 .4 0 .7.1.2 0 .5.1.7.4l.1-.4z"/>
    <path class="st2" d="M270.3 81.6c.3-.2.5-.4.7-.6-.2.2-.4.4-.7.6z"/>
    <path class="st2" d="M270.5 81.6v-.2h-.3c-.1-.3-.1-.4-.1-.6v-.3c.1-.2.2-.3.3-.4l1.4 1.8s-.1-.1-.2-.1c-.1-.1-.5-.2-.8-.2h-.3zm-.6-.1c-.1-.2-.2-.4-.1-.7.1-.3.3-.5.5-.7.5-.4 1.2-.4 1.6.1.4.4.4 1.1 0 1.5l-.2.2c-.1.1-.3.2-.4.2h-.3c-.1 0-.3-.1-.5-.3h-.3v-.2l-.3-.1z"/>
    <path class="st3" d="M200 181.9c0-17-9.4-30.6-22.5-32.9-1.9 6.3-12.1 6.5-14.3.3l-.1-.3c-14.6 3-24.8 16.7-26.3 32.5-2.2 22.7-.5 19.1-.5 19.1h63.9"/>
    <path class="st4" d="M155.1 172.2c.1 1.2-.1 2.3-.1 3.5l-.3 3.5-.6 6.9-.7 6.9c-.2 2.3-.5 4.6-1 6.9 0 .1-.1.1-.2.1s-.1-.1-.1-.2c-.1-2.3.1-4.6.3-6.9l.6-6.9.6-6.9.3-3.5c.1-1.1.2-2.3.5-3.4.1-.2.2-.3.4-.2.1 0 .2.1.3.2zm22-28.4c.2.6.2 1.3.2 1.9 0 .6 0 1.3.1 1.8s.4.9.8 1.2c.2.1.4.2.7.3s.7.2 1 .3c2.5.9 4.6 2.3 6.7 3.8 2 1.5 3.9 3.2 5.7 5.1 1.7 1.9 3.2 4 4.2 6.4 0 .1 0 .2-.1.2s-.2 0-.2-.1c-1.4-2.1-2.9-4-4.6-5.9-1.7-1.8-3.6-3.5-5.6-4.9-1-.7-2-1.4-3.1-2s-2.2-1.2-3.3-1.6c-.3-.1-.6-.2-.8-.3-.4-.1-.7-.2-1-.4-.6-.4-1.1-1.1-1.3-1.8-.1-.4-.1-.8-.1-1.1v-.9c0-.6-.1-1.3.2-1.9.1-.2.3-.3.5-.1-.1-.2-.1-.1 0 0z"/>
    <path class="st4" d="M179.8 117c1.2 2.3 1.9 4.9 2.5 7.4s1 5.1 1.1 7.8c0 2.6-.4 5.4-1.8 7.7-.7 1.2-1.7 2.2-2.8 3-1.2.8-2.5 1.2-3.8 1.5-2.7.5-5.5.1-7.9-1.1-2.4-1.1-4.6-2.8-6.4-4.7-3.7-3.8-6.2-8.5-7.8-13.4 0-.1 0-.2.1-.2s.2 0 .2.1c2.2 4.7 4.7 9.2 8.3 12.9 1.8 1.8 3.8 3.4 6.1 4.4s4.8 1.4 7.2.9c1.2-.3 2.4-.7 3.4-1.4s1.9-1.6 2.5-2.6c1.3-2.1 1.7-4.7 1.7-7.2s-.4-5.1-1-7.6-1.5-4.9-2.2-7.4c-.1-.2 0-.4.2-.4.2.1.3.1.4.3z"/>
    <path class="st4" d="M164.6 109.5c8-3.2 15-1.4 14.5 2.4-.4 3.3-16.5 4.4-18.4 9-1.2 3 .6 7.5 2.1 10.4.9 1.7.5 3.7-.8 5l-1.4 1.7c-8.9-8.8-16.9-20.2 4-28.5zm9.8 17.4c.5.8.9 1.7 1.3 2.5.3.9.7 1.8.9 2.7 0 .2-.1.4-.3.4s-.3 0-.4-.2c-.5-.8-.8-1.7-1.2-2.6-.3-.9-.6-1.8-.8-2.7 0-.1.1-.3.2-.3.1.1.2.1.3.2z"/>
    <path class="st5" d="M179.2 127.7c.5-.2.8-.8.6-1.3l-.6-1.5c-.2-.5-.8-.8-1.3-.6-.5.2-.8.8-.6 1.3l.6 1.5c.2.5.8.8 1.3.6zm-9.8 3.8c.5-.2.8-.8.6-1.3l-.6-1.5c-.2-.5-.8-.8-1.3-.6s-.8.8-.6 1.3l.6 1.5c.2.6.8.8 1.3.6z"/>
    <path class="st6" d="M177.7 135.9c-.4 1.4-2.6 2.4-3.9 1.5"/>
    <path class="st4" d="M167 125.1c-.2 0-.5.2-.8.3-.3.1-.6.3-.9.5-.3.2-.5.4-.8.6-.2.2-.5.4-.6.7-.1.2-.3.2-.5.1-.1-.1-.2-.2-.1-.4.2-.9.9-1.4 1.5-1.9.3-.2.7-.4 1.1-.5.4-.1.8-.2 1.3-.1.2 0 .3.2.2.4-.1.1-.2.2-.4.3zm7.9-3.8c.3-.4.7-.6 1-.8.4-.2.8-.3 1.1-.3.8-.1 1.6-.1 2.4.4.2.1.2.3.1.5-.1.1-.2.2-.4.1-.3-.1-.6-.1-.9-.1-.3 0-.7 0-1 .1s-.7.1-1 .2-.6.2-.8.3l-.1.1c-.2.1-.4 0-.4-.1v-.4z"/>
    <path class="st7" d="M179.9 111.8c-8-14-34.7-2.9-28 14.3"/>
    <path class="st8" d="M186.5 109.4c-2.8 1.7-5.8 3.2-8.7 4.7l-8.8 4.4-8.9 4.4c-3 1.5-5.9 2.9-8.9 4.3-.2.1-.4 0-.4-.2-.1-.2 0-.3.1-.4 2.9-1.6 5.8-3.1 8.8-4.6l8.8-4.4 8.9-4.4c3-1.5 5.9-2.9 9-4.1.1 0 .2 0 .3.1-.1 0-.1.2-.2.2z"/>
    <path class="st8" d="M164.8 119.5c5.7-5.4 15-14.2 21.5-10.3m-21.6 10.2c1.4-1.6 2.9-3.1 4.5-4.5s3.3-2.7 5.1-3.9c1.8-1.2 3.7-2.2 5.9-2.8l.8-.2c.3 0 .6-.1.8-.1.3 0 .6-.1.8-.1l.8.1c.6 0 1.1.2 1.6.4s1 .5 1.5.7c.2.1.2.3.2.4s-.3.2-.4.2c-1.8-.9-3.9-.9-5.8-.4-2 .5-3.8 1.6-5.5 2.7s-3.4 2.4-5 3.8-3.2 2.8-4.9 4.1c-.1.1-.2.1-.3 0-.2-.2-.2-.3-.1-.4zm12.4 80.9h45.2v-3.8h-42c-1.8 0-3.2 1.4-3.2 3.2v.6z"/>
    <path class="st8" d="M201.8 200.3h52.9l4.7-33.9c.4-3.1-2-5.9-5.1-5.9h-42.5c-2.6 0-4.8 1.9-5.1 4.5l-4.9 35.3z"/>
    <path class="st9" d="M298.3 200.9c-16.5.4-33 .5-49.5.7l-49.5.1c-33-.1-66 0-99-.6-.2 0-.3-.2-.3-.3 0-.2.1-.3.3-.3 33-.6 66-.5 99-.6l49.5.1c16.5.1 33 .2 49.5.7.1 0 .2.1.2.2-.1-.1-.2 0-.2 0z"/>
    <path class="st4" d="M163.2 144.1c.2.8.3 1.6.4 2.5 0 .8.1 1.6.1 2.5v-.2c.2.4.4.9.6 1.4.2.4.5.9.8 1.2.3.4.7.7 1.1 1 .4.3.8.6 1.3.8.1.1.1.2.1.3s-.1.1-.2.1c-.6-.1-1.1-.2-1.6-.5s-1-.6-1.4-1.1c-.4-.4-.7-.9-1-1.4s-.5-1-.7-1.6v-.2c0-.8 0-1.6.1-2.5.1-.8.2-1.6.4-2.5-.2.2-.1.1 0 .2z"/>
    <g id="Group_2_" transform="translate(28)">
        <g id="Rectangle-66_12_">
            <path class="st10" d="M226.8 130c-.2-.5-.7-1.1-1.3-1.3l-2.8-1c-.5-.2-.5-.5 0-.7l2.8-1c.5-.2 1.1-.7 1.3-1.3l1-2.8c.2-.5.5-.5.7 0l1 2.8c.2.5.7 1.1 1.3 1.3l2.8 1c.5.2.5.5 0 .7l-2.8 1c-.5.2-1.1.7-1.3 1.3l-1 2.8c-.2.5-.5.5-.7 0l-1-2.8z"/>
            <path class="st10" d="M226.7 130c-.2-.3-.4-.6-.7-.8s-.6-.3-.9-.4l-2.1-.6c-.2-.1-.3-.1-.6-.2-.1-.1-.3-.1-.4-.3-.1-.1-.1-.3 0-.4 0-.1.1-.2.2-.3.3-.2.5-.3.6-.3l.5-.2 2.1-.8c.2-.1.5-.3.7-.5s.3-.4.4-.8l.7-2.1c.1-.2.1-.3.2-.6.1-.1.1-.3.4-.4.1-.1.4-.1.5-.1.2.1.3.1.4.2.3.3.3.5.4.7l.2.5.7 2.1c.1.2.3.5.5.7s.4.3.8.4l2.1.8c.2.1.3.1.6.2.1.1.3.1.4.4.1.1.1.4 0 .5-.1.2-.1.3-.2.3-.3.3-.5.3-.7.3l-.5.2-2.1.7c-.2.1-.5.3-.7.5s-.3.4-.4.8l-.8 2.1c-.1.2-.1.3-.2.6-.1.1-.1.2-.3.4-.1.1-.3.1-.4 0-.1 0-.2-.1-.3-.2-.2-.2-.2-.5-.3-.6l-.2-.5-.6-2.3zm.3-.1l.8 2.1.2.5c.1.2.1.3.2.4 0 0-.1-.1-.2 0v-.1c0-.1.1-.3.2-.5l.7-2.1c.1-.3.3-.8.6-1.1s.6-.6 1.1-.8l2.1-.8.5-.2c.2-.1.3-.1.3-.1l-.1.1v.3c.1.1.1.1 0 0-.1 0-.3-.1-.5-.2l-2.1-.7c-.3-.1-.9-.3-1.2-.6-.3-.3-.6-.6-.8-1.1l-.7-2.1-.2-.5c-.1-.2-.1-.3-.1-.3l.1.1h.3c.1-.1.1-.1.1 0s-.1.3-.2.5l-.8 2.1c-.1.3-.3.8-.6 1.1-.3.3-.6.6-1.1.8l-2.1.7-.5.2c-.2.1-.3.1-.4.1v-.3c0-.1 0 0 0 0 .1 0 .3.1.5.2l2.1.8c.8.2 1.5.8 1.8 1.5z"/>
        </g>
        <g id="Rectangle-66_11_">
            <path class="st10" d="M202 143l-2.5 1.2 1.2-2.5-1.2-2.5 2.5 1.2 2.5-1.2-1.2 2.5 1.2 2.5-2.5-1.2z"/>
            <path class="st10" d="M201.9 143.1c-.8.5-1.5 1-2.3 1.4-.2.1-.4 0-.5-.1s-.1-.2 0-.3v-.1c.3-.9.7-1.7 1.1-2.6v.4l-1.2-2.5c-.1-.3 0-.6.2-.7.2-.1.3-.1.5 0l2.5 1.2h-.5l2.5-1.2c.3-.1.6 0 .7.3.1.2.1.3 0 .5-.4.8-.8 1.7-1.2 2.5v-.4c.4.8.7 1.7 1.1 2.6.1.2 0 .4-.2.5h-.3c-.8-.5-1.5-1-2.4-1.5zm.2-.3c.8.3 1.7.6 2.5 1l-.5.5c-.4-.8-.9-1.6-1.3-2.4-.1-.1-.1-.3 0-.4.4-.8.8-1.7 1.2-2.5l.7.7-2.5 1.2c-.2.1-.3.1-.5 0l-2.5-1.2.7-.7 1.2 2.5c.1.1.1.3 0 .4-.4.8-.9 1.6-1.3 2.4l-.5-.5c.9-.4 1.8-.7 2.7-1h.1z"/>
        </g>
        <g id="Rectangle-66_10_">
            <path class="st10" d="M205.2 87.7l-2.5 1.2 1.2-2.5-1.2-2.5 2.5 1.2 2.5-1.2-1.2 2.5 1.2 2.5-2.5-1.2z"/>
            <path class="st10" d="M205.1 87.9c-.8.5-1.5 1-2.3 1.4-.2.1-.4 0-.5-.1s-.1-.2 0-.3v-.1c.3-.9.7-1.7 1.1-2.6v.4l-1.2-2.5c-.1-.3 0-.6.2-.7s.3-.1.5 0l2.5 1.2h-.5l2.5-1.2c.3-.1.6 0 .7.3.1.2.1.3 0 .5-.4.8-.8 1.7-1.2 2.5v-.4c.4.8.7 1.7 1.1 2.6.1.2 0 .4-.2.5h-.3c-.8-.6-1.5-1-2.4-1.5zm.2-.3c.8.3 1.7.6 2.5 1l-.5.5c-.4-.8-.9-1.6-1.3-2.4-.1-.1-.1-.3 0-.4.4-.8.8-1.7 1.2-2.5l.7.7-2.5 1.2c-.2.1-.3.1-.5 0l-2.5-1.2.7-.7 1.2 2.5c.1.1.1.3 0 .4-.4.8-.9 1.6-1.3 2.4l-.5-.5c.9-.4 1.8-.7 2.7-1h.1z"/>
        </g>
        <g id="Rectangle-66_9_">
            <path class="st10" d="M146.1 81.7c-.5-.2-1.3-.2-1.8 0l-3.7 1.8c-.5.2-.7 0-.5-.5l1.8-3.7c.2-.5.2-1.3 0-1.8l-1.8-3.7c-.2-.5 0-.7.5-.5l3.7 1.8c.5.2 1.3.2 1.8 0l3.7-1.8c.5-.2.7 0 .5.5l-1.8 3.7c-.2.5-.2 1.3 0 1.8l1.8 3.7c.2.5 0 .7-.5.5l-3.7-1.8z"/>
            <path class="st10" d="M146 81.8c-.4-.1-.9-.1-1.3 0s-.8.4-1.2.6l-2.5 1.3c-.2.1-.4.2-.8.3h-.4c-.2-.1-.3-.3-.3-.4-.1-.3 0-.4.1-.6l.6-1.3 1.2-2.5c.1-.3.2-.7.1-1.1 0-.3-.3-.7-.5-1.1l-1.2-2.5c-.1-.2-.2-.4-.3-.8 0-.1 0-.3.1-.5s.3-.4.5-.4c.4-.1.5 0 .7.1l1.3.6 2.5 1.2c.3.1.7.2 1 .1.3 0 .7-.3 1.1-.5l2.5-1.2c.2-.1.4-.2.8-.3.1 0 .3 0 .5.1s.4.3.4.5c.1.3 0 .5-.1.6l-.6 1.3-1.2 2.5c-.1.3-.2.7-.1 1.1 0 .3.3.7.5 1.2l1.1 2.5c.1.2.2.4.3.8v.4c-.1.2-.2.3-.4.3-.3 0-.4 0-.5-.1l-1.3-.6-2.6-1.6zm.1-.3l2.5 1.1 1.3.6h.1s-.1 0-.1.1c0-.1-.1-.3-.2-.5l-1.3-2.5-.3-.6c-.1-.2-.2-.5-.3-.8-.1-.5-.1-1.1.2-1.7l1.2-2.5.6-1.2c0-.1 0-.1 0 0s.1.2.2.2h.1s-.3.1-.5.2l-2.5 1.2-.6.3c-.2.1-.5.2-.8.3-.6.1-1.1.1-1.7-.2l-2.5-1.2-1.2-.6c-.1 0-.1 0 0 0s.2-.1.2-.2v-.1s.1.3.2.5l1.2 2.5.3.6c.1.2.2.5.3.8.1.6.1 1.1-.2 1.7L141 82l-.6 1.2v.1s-.1-.1-.1-.2c-.1 0-.1 0 0 0s.3-.1.5-.2l2.6-1.1c.4-.2.8-.4 1.4-.5.4 0 .9.1 1.3.2z"/>
        </g>
        <g id="Rectangle-66_8_">
            <path class="st10" d="M178.8 99c-.2-.5-.7-1.1-1.3-1.3l-2.8-1c-.5-.2-.5-.5 0-.7l2.8-1c.5-.2 1.1-.7 1.3-1.3l1-2.8c.2-.5.5-.5.7 0l1 2.8c.2.5.7 1.1 1.3 1.3l2.8 1c.5.2.5.5 0 .7l-2.8 1c-.5.2-1.1.7-1.3 1.3l-1 2.8c-.2.5-.5.5-.7 0l-1-2.8z"/>
            <path class="st10" d="M178.7 99c-.2-.3-.4-.6-.7-.8-.3-.2-.6-.3-.9-.4l-2.1-.6c-.2-.1-.3-.1-.6-.2-.1-.1-.3-.1-.4-.3-.1-.1-.1-.3 0-.4 0-.1.1-.2.2-.3.3-.2.5-.3.6-.3l.5-.2 2.1-.8c.2-.1.5-.3.7-.5s.3-.4.4-.8l.7-2.1c.1-.2.1-.3.2-.6.1-.1.1-.3.4-.4.1-.1.4-.1.5-.1.2.1.3.1.4.2.3.3.3.5.4.7l.2.5.7 2.1c.1.2.3.5.5.7s.4.3.8.4l2.1.8c.2.1.3.1.6.2.1.1.3.1.4.4.1.1.1.4 0 .5-.1.2-.1.3-.2.3-.3.3-.5.3-.7.3l-.5.2-2.1.7c-.2.1-.5.3-.7.5s-.3.4-.4.8l-.8 2.1c-.1.2-.1.3-.2.6-.1.1-.1.2-.3.4-.1.1-.3.1-.4 0-.1 0-.2-.1-.3-.2-.2-.2-.2-.5-.3-.6l-.2-.5-.6-2.3zm.3-.1l.8 2.1.2.5c.1.2.1.3.2.4 0 0-.1-.1-.2 0v-.1c0-.1.1-.3.2-.5l.7-2.1c.1-.3.3-.8.6-1.1.3-.3.6-.6 1.1-.8l2.1-.8.5-.2c.2-.1.3-.1.3-.1l-.1.1v.3c.1.1.1.1 0 0-.1 0-.3-.1-.5-.2l-2.1-.7c-.3-.1-.9-.3-1.2-.6-.3-.3-.6-.6-.8-1.1l-.7-2.1-.2-.5c-.1-.2-.1-.3-.1-.3l.1.1h.3c.1-.1.1-.1.1 0s-.1.3-.2.5l-.8 2.1c-.1.3-.3.8-.6 1.1-.3.3-.6.6-1.1.8l-2.1.7-.5.2c-.2.1-.3.1-.4.1v-.3c0-.1 0 0 0 0 .1 0 .3.1.5.2l2.1.8c.8.2 1.5.8 1.8 1.5z"/>
        </g>
        <g id="Rectangle-66_7_">
            <path class="st10" d="M98.8 124c-.2-.5-.7-1.1-1.3-1.3l-2.8-1c-.5-.2-.5-.5 0-.7l2.8-1c.5-.2 1.1-.7 1.3-1.3l1-2.8c.2-.5.5-.5.7 0l1 2.8c.2.5.7 1.1 1.3 1.3l2.8 1c.5.2.5.5 0 .7l-2.8 1c-.5.2-1.1.7-1.3 1.3l-1 2.8c-.2.5-.5.5-.7 0l-1-2.8z"/>
            <path class="st10" d="M98.7 124c-.2-.3-.4-.6-.7-.8-.3-.2-.6-.3-.9-.4l-2.1-.6c-.2-.1-.3-.1-.6-.2-.1-.1-.3-.1-.4-.3-.1-.1-.1-.3 0-.4 0-.1.1-.2.2-.3.3-.2.5-.3.6-.3l.5-.2 2.1-.8c.2-.1.5-.3.7-.5s.3-.4.4-.8l.7-2.1c.1-.2.1-.3.2-.6.1-.1.1-.3.4-.4.1-.1.4-.1.5-.1.2.1.3.1.4.2.3.3.3.5.4.7l.2.5.7 2.1c.1.2.3.5.5.7s.4.3.8.4l2.1.8c.2.1.3.1.6.2.1.1.3.1.4.4.1.1.1.4 0 .5-.1.2-.1.3-.2.3-.3.3-.5.3-.7.3l-.5.2-2.1.7c-.2.1-.5.3-.7.5s-.3.4-.4.8l-.8 2.1c-.1.2-.1.3-.2.6-.1.1-.1.2-.3.4-.1.1-.3.1-.4 0-.1 0-.2-.1-.3-.2-.2-.2-.2-.5-.3-.6l-.2-.5-.6-2.3zm.3-.1l.8 2.1.2.5c.1.2.1.3.2.4 0 0-.1-.1-.2 0v-.1c0-.1.1-.3.2-.5l.7-2.1c.1-.3.3-.8.6-1.1.3-.3.6-.6 1.1-.8l2.1-.8.5-.2c.2-.1.3-.1.3-.1l-.1.1v.3c.1.1.1.1 0 0-.1 0-.3-.1-.5-.2l-2.1-.7c-.3-.1-.9-.3-1.2-.6-.3-.3-.6-.6-.8-1.1l-.7-2.1-.2-.5c-.1-.2-.1-.3-.1-.3l.1.1h.3c.1-.1.1-.1.1 0s-.1.3-.2.5l-.8 2.1c-.1.3-.3.8-.6 1.1-.3.3-.6.6-1.1.8l-2.1.7-.5.2c-.2.1-.3.1-.4.1v-.3c0-.1 0 0 0 0 .1 0 .3.1.5.2l2.1.8c.8.2 1.5.8 1.8 1.5z"/>
        </g>
    </g>
</svg>
