<svg height="250" viewBox="0 0 400 250" width="400" xmlns="http://www.w3.org/2000/svg"><path d="m175 105.62a18.76 18.76 0 0 1 1.8-1.2l1.8-1.1a32.52 32.52 0 0 1 3.7-2.1 12.44 12.44 0 0 1 1.42-.54l-1.42-2.36-.9-1.5a12 12 0 0 0 -1.1-1.2 6.19 6.19 0 0 0 -2.8-1.4 6.89 6.89 0 0 0 -3 .15.27.27 0 0 1 .08 0c0 .1 0 .2-.1.2l-1.6 1.2a8.7 8.7 0 0 0 -1.4 1.2 5.34 5.34 0 0 0 -1 3.5 7.94 7.94 0 0 0 1.1 3.6c.53 1.06 1.06 2.14 1.6 3.27a14.66 14.66 0 0 1 1.82-1.72zm-69.8 73.2-.1 20.4-.1 4.78c0 4-.1 8-.2 12h6.29l-.29-16.92c-.1-6.8-.1-13.5-.1-20.2a5.83 5.83 0 0 1 -2.6.6 5.92 5.92 0 0 1 -2.9-.66zm6.5-.5-1 .6a8.81 8.81 0 0 0 1-.6zm109.9 33.1a12.29 12.29 0 0 1 12.3-12.3h12.2v22.88h8.4l.16-60.8c-1.38-2-2.67-4-3.86-6.1a62.15 62.15 0 0 1 -3.4-7.4q-.48-1.38-.88-2.77c-5.61.12-11.23.12-16.82.17l-30.4.1-30.4-.1c-8.67 0-17.41 0-26.1-.51v3.11l-.49 74.65h10.89v-10.93a12.29 12.29 0 0 1 12.3-12.3h46v23h10.1zm-21.8-21.8c-7.8.1-15.5.1-23.3.1h-23.8v-23.5a13 13 0 0 1 2.6-7.4 12.94 12.94 0 0 1 10.3-5.1h49.8l30.7.1h.4v.4l-.3 35.1zm-58.3-45.19-3-.21v-.5l2.6-.18v-5.39l-9.1 9.47-19.8 20.38-.1.1a2.18 2.18 0 0 1 .5.4 6.81 6.81 0 0 1 1.7 4.5h-.1a5.85 5.85 0 0 1 -1.6 4.5 6.47 6.47 0 0 1 -.9.8c0 7 0 14.1-.1 21l-.19 16.73 9.79.07c1.1 0 2.2 0 3.4.1a7.6 7.6 0 0 1 3.3 1.1 7.11 7.11 0 0 1 2.3 2.6 10.41 10.41 0 0 1 .6 1.6c0 .28.08.56.09.84l11.1-.09-.49-74.65zm-37.5 31.99c.2.1.3.3.4.4l.8.6a4.72 4.72 0 0 0 3 1 5.73 5.73 0 0 0 2.5-.6 2.08 2.08 0 0 0 1-.6l.4-.3a5.52 5.52 0 0 0 1.8-3.9 5.71 5.71 0 0 0 -1.8-3.9 1.27 1.27 0 0 0 -.6-.4l.1-.1-.9-.5a4.34 4.34 0 0 0 -2.5-.5 5.46 5.46 0 0 0 -5.4 5.4 4.38 4.38 0 0 0 .8 2.5l-.1.1.5.7a2.77 2.77 0 0 1 -.83.86 6 6 0 0 0 .83-.76zm66-59.3a14.32 14.32 0 0 1 2.1-8.3c.23-.35.49-.69.75-1-.39-.55-.76-1.12-1.12-1.69-5.78 6.16-11.56 12.24-17.43 18.31l-.19.2h18.14a16.3 16.3 0 0 1 -2.25-7.52zm100.12 71.4-1.69 5.69c2-.09 4-.12 6-.19l9-.1c4.65.08 9.29 0 13.94.2l-1.66-5.6zm4.28 6.48c-2-.07-4.1-.1-6.15-.2l-2 6.6v-.1a21.14 21.14 0 0 0 .5 7.5 19.31 19.31 0 0 0 3.2 6.8 17.87 17.87 0 0 0 5.6 5 17.29 17.29 0 0 0 5.54 1.92h1.76-.1a15.26 15.26 0 0 0 7.3-1.9 17 17 0 0 0 5.7-5 20.3 20.3 0 0 0 3.7-14.3v.1l-1.94-6.55c-4.72.15-9.44.17-14.16.25zm-144.2 26.72a4.72 4.72 0 0 0 -.6-1.5 6.08 6.08 0 0 0 -2.2-2.3 5.29 5.29 0 0 0 -3-.9h-3.3l-13.4.1h-16.7a6.15 6.15 0 0 0 -2.9.9 6 6 0 0 0 -2.69 4.7l20.68.09q12.1-.34 24.19-.44a5.19 5.19 0 0 1 -.08-.65z" fill="none"/><path d="m254.66 161.13-.16 61.27h-8.4v.3l10.6.06.08-58.82q-1.1-1.36-2.12-2.81zm-111.86-16.62-1.3-.08v3.19l.49 74.65h.31l.49-74.65zm77.6 77.67h1.2z" fill="#8e9196"/><path d="m182.6 129.52c-2.7 1.6-5.4 3.1-8.2 4.5h-.1l.1-.2c.86-.62 1.75-1.23 2.65-1.83-1.54-2.23-3-4.55-4.45-6.77l-.35-.6h-18.14l-13 13.53v5.39c9.25-.6 18.57-.53 27.8-.62l30.4-.1 30.4.1c5.43 0 10.89 0 16.35.13a22.25 22.25 0 0 1 -.55-3.43 13.21 13.21 0 0 1 1.4-8.2 11.23 11.23 0 0 1 6.4-5.3l.49-.13a6.1 6.1 0 0 0 -3.79-1.37h-59.15l-.16.1zm-34.6-4.9c-3.8 0-6.9 3.7-6.9 8.2v3.79l11.63-12z" fill="#3895ba"/><path d="m138.5 144.22 3 .21 1.3.08c8.69.51 17.43.51 26.1.51l30.4.1 30.4-.1c5.59-.06 11.2-.05 16.82-.17q-.26-.89-.47-1.8c-5.46-.12-10.92-.13-16.35-.13l-30.4-.1-30.4.1c-9.23.09-18.55 0-27.8.62l-2.6.18z" fill="#646970"/><path d="m165.5 199.12a12.29 12.29 0 0 0 -12.3 12.3v10.79l46.9-.09h11.4v-23zm80.6 0h-12.2a12.29 12.29 0 0 0 -12.3 12.3v10.76l24.5.09z" fill="#dcdcde"/><path d="m174.52 94.38a6.89 6.89 0 0 1 3-.15 6.19 6.19 0 0 1 2.8 1.4 12 12 0 0 1 1.1 1.2l.9 1.5 1.42 2.36.48-.15c-.43-.84-.89-1.7-1.3-2.51l-.8-1.6a4.18 4.18 0 0 0 -1.1-1.5 5.06 5.06 0 0 0 -3.3-1.7 4 4 0 0 0 -3.5 1.1h.1a.46.46 0 0 1 .2.05zm-.32-.06c-.1 0-.1.1 0 0zm-2.1 11.4-.37.39c.36.57.73 1.14 1.12 1.69l.34-.41c-.53-1.13-1.06-2.21-1.6-3.27a7.94 7.94 0 0 1 -1.1-3.6 5.34 5.34 0 0 1 1-3.5 8.7 8.7 0 0 1 1.4-1.2l1.6-1.2c.1 0 .1-.1.1-.2a.27.27 0 0 0 -.08 0 .46.46 0 0 0 -.22-.05h-.1c-.66.28-1.23.57-1.8.85a5.5 5.5 0 0 0 -1.8 1.3 5.87 5.87 0 0 0 -1.3 4.2 5.37 5.37 0 0 0 .5 2.1 4.06 4.06 0 0 0 .5.9l.5.9.58.93.22-.23zm10.2-4.5a32.52 32.52 0 0 0 -3.7 2.1l-1.8 1.1a18.76 18.76 0 0 0 -1.8 1.2 14.66 14.66 0 0 0 -1.8 1.77l-.34.41c-.27.33-.52.67-.75 1a14.32 14.32 0 0 0 -2.1 8.3 16.3 16.3 0 0 0 2.25 7.5l.35.6c1.45 2.23 2.91 4.54 4.45 6.77l.17-.11c-1.37-2.36-2.65-4.8-4-7.16-.23-.38-.44-.78-.64-1.18a16.15 16.15 0 0 1 -1.69-6.52 13.88 13.88 0 0 1 2-7.7 10.62 10.62 0 0 1 2.7-2.9 29.84 29.84 0 0 1 3.5-2.2c1.2-.7 2.4-1.5 3.6-2.1a12.56 12.56 0 0 1 3.8-1 12.42 12.42 0 0 1 7.7 1.8 16.67 16.67 0 0 1 5.8 5.7c1.45 2.31 2.89 4.63 4.34 6.85l.41-.23c-1.26-2.4-2.6-4.71-3.95-7a17.52 17.52 0 0 0 -6-6.1 15 15 0 0 0 -8.3-2 11.85 11.85 0 0 0 -2.3.41l-.48.15a12.44 12.44 0 0 0 -1.42.54z" fill="#a7aaad"/><path d="m246.5 154.22v-.4h-.4l-30.7-.1h-49.8a12.94 12.94 0 0 0 -10.3 5.1 13 13 0 0 0 -2.6 7.4v23.5h23.8c7.8 0 15.5 0 23.3-.1l46.4-.3zm-33.8 12.3c-2.2 2.2-4.4 4.3-6.6 6.4l-6.4 6-7.1-6.5-.3-.3.3-.3 1.4-1.5.3-.4.4.3c1.68 1.59 3.35 3.26 5 4.94l5.25-5.34 5.7-5.6.4-.4.4.4 1.4 1.5.3.4z" fill="#c3c4c7"/><path d="m190.2 123.72-8 4.9c-1.65 1.08-3.33 2.16-5 3.26l-.2.12c-.9.6-1.79 1.21-2.65 1.83l-.1.2h.1c2.8-1.4 5.5-2.9 8.2-4.5l8.1-4.8.16-.1c5.34-3.26 10.59-6.44 15.74-9.9a.37.37 0 0 0 .1-.3c-.1-.1-.2-.2-.3-.1l-1.65.92-.41.23c-4.72 2.66-9.37 5.45-14.09 8.24z" fill="#a7aaad"/><path d="m211.4 164.22-.4-.4-.4.4-5.7 5.6-5.25 5.34c-1.6-1.68-3.27-3.36-5-4.94l-.4-.3-.3.4-1.4 1.5-.3.3.3.3 7.1 6.5 6.4-6c2.2-2.1 4.4-4.2 6.6-6.4l.4-.4-.3-.4z" fill="#fff"/><path d="m282.6 223v-.1a16.21 16.21 0 0 1 -4-.41q-11-.12-21.91-.18l-10.6-.06-24.5-.09h-21.5l-46.9.09h-11.19l-11.1.09v.46c-.2.1-.2.3-.2.5l-11.3.2-9.82.17c13.28.3 26.6.45 39.92.53l50.6.1q19.43-.06 38.82-.08l17.2-.07c15.08-.08 30.17-.23 45.27-.54a.4.4 0 1 0 0-.8c-4.91-.09-9.81-.14-14.72-.2a15.5 15.5 0 0 1 -4.07.39zm.3-.28v-.15h-1.76a14.87 14.87 0 0 0 1.76.15zm-152.6.2v-.4a1.2 1.2 0 0 0 0-.15q-12.08.12-24.19.44h1.51l11.4.2 11.4.2c-.12-.21-.12-.21-.12-.29zm116.6-91.5a13.21 13.21 0 0 0 -1.4 8.2 22.25 22.25 0 0 0 .55 3.43q.21.91.47 1.8.41 1.39.88 2.77a62.15 62.15 0 0 0 3.4 7.4c1.2 2.09 2.48 4.13 3.86 6.1q1 1.45 2.11 2.85a52.73 52.73 0 0 0 3.62 4.15 31.14 31.14 0 0 0 6.3 5.2 12.78 12.78 0 0 0 3.8 1.6 5.78 5.78 0 0 0 4.1-.5c.1-.1.2-.2.1-.3s-.2-.2-.3-.1a5.52 5.52 0 0 1 -3.8.3 11.66 11.66 0 0 1 -3.6-1.6 30 30 0 0 1 -6.1-5.1c-1-1.12-2-2.3-3-3.5a62.94 62.94 0 0 1 -6.23-9.5 42.38 42.38 0 0 1 -5.1-15 12.78 12.78 0 0 1 1.3-7.5 10.87 10.87 0 0 1 5.8-4.8 10 10 0 0 1 3.67-.45 15.58 15.58 0 0 1 3.93.75 24.28 24.28 0 0 1 6.9 3.7 38.53 38.53 0 0 1 10.6 11.8 39.89 39.89 0 0 1 5.1 15 19 19 0 0 1 -.6 7.9 12.87 12.87 0 0 1 -4 6.26v.2a14.17 14.17 0 0 0 4.3-6.26 20.26 20.26 0 0 0 .9-8.1 30.83 30.83 0 0 0 -1.7-8 41.27 41.27 0 0 0 -3.2-7.5 39.46 39.46 0 0 0 -10.8-12.2 27.88 27.88 0 0 0 -7.2-3.9 13.44 13.44 0 0 0 -7.81-.53c-.16 0-.33.08-.49.13a11.23 11.23 0 0 0 -6.36 5.3zm68.8 29.2a12.35 12.35 0 0 0 -2.5-6.4 9.92 9.92 0 0 0 -2.6-2.4 10.1 10.1 0 0 0 -3.3-1.2 14.65 14.65 0 0 0 -6.9.5.43.43 0 0 0 -.4.4l-1 7.23-1.73-6.13c0-.1 0-.1-.1-.2a.48.48 0 0 0 -.7 0 27.16 27.16 0 0 0 -8.1 12.5 23.13 23.13 0 0 0 -.9 7.4 14 14 0 0 0 1.91 6.62l.21-.4a13.62 13.62 0 0 1 -1.51-6.31 19.39 19.39 0 0 1 1.1-7.2 26.68 26.68 0 0 1 7.41-11.36l2.1 7.45v.1l.06.2a.43.43 0 0 0 .4.4.44.44 0 0 0 .6-.4l1.26-9.4a12.32 12.32 0 0 1 5.94-.3 10.21 10.21 0 0 1 2.9 1.1 7.59 7.59 0 0 1 2.3 2.1 11.31 11.31 0 0 1 2.3 5.8 13.71 13.71 0 0 1 -1 6.3 24.93 24.93 0 0 1 -8.1 10.1 19.67 19.67 0 0 1 -5.7 3.1 9.11 9.11 0 0 1 -6.3.2c-.1 0-.3 0-.3.1s0 .3.1.3a9.12 9.12 0 0 0 6.7.1 22.79 22.79 0 0 0 6-3.1 25.54 25.54 0 0 0 8.6-10.4 14.64 14.64 0 0 0 1.25-6.8zm-26.9 19.5a26.3 26.3 0 0 0 -2 6.9h.2a50.85 50.85 0 0 1 2.69-6.5 35.64 35.64 0 0 1 4-6.1c3-3.9 6.8-7.1 10.3-10.6 0-.1.1-.2 0-.3s-.2-.1-.3 0a61.94 61.94 0 0 0 -10.9 10.2 32.28 32.28 0 0 0 -3.19 4.81l-.21.4c-.19.4-.39.79-.59 1.19zm-13.3-21.3a46.65 46.65 0 0 0 -7.8-12.6c-.66-.74-1.34-1.45-2-2.14a43 43 0 0 0 -9.36-7.16.22.22 0 1 0 -.2.4 53.15 53.15 0 0 1 9.35 8c.49.53 1 1 1.45 1.6a46.15 46.15 0 0 1 7.5 12.4 59.94 59.94 0 0 1 4 13.9 133.3 133.3 0 0 1 1.36 13.8h.2a72.41 72.41 0 0 0 -.63-14c0-.18-.07-.36-.1-.54v-.2a59.91 59.91 0 0 0 -3.77-13.46zm25.9 35.9a.2.2 0 1 0 0-.4c-.87-.06-1.73-.09-2.6-.13l.18.62zm-36-.1 1.05.08.11-.37-1.16.09a.14.14 0 0 0 0 .2zm9-.62c-2 .07-4 .1-6 .19l-.18.61c2 .1 4.1.13 6.15.2l9 .1c4.72-.08 9.44-.1 14.16-.25l-.22-.75c-4.65-.16-9.29-.13-13.94-.2zm8.3-7h-13.4a.76.76 0 0 0 -.8.6l-1.94 6.71-.11.37-1.85 6.42v.1a21 21 0 0 0 4.3 15.1 18.76 18.76 0 0 0 6.2 5 18.1 18.1 0 0 0 3.51 1.19 16.21 16.21 0 0 0 4 .41v.1a15.5 15.5 0 0 0 4.08-.4 16.36 16.36 0 0 0 3.62-1.3 17.59 17.59 0 0 0 6.2-5 20.72 20.72 0 0 0 3.6-7.1 19.67 19.67 0 0 0 .7-8v-.1l-1.81-6.28-.18-.62-1.9-6.57a.76.76 0 0 0 -.8-.6h-13.42zm13 1.5 1.66 5.6.22.75 1.94 6.55v-.1a20.3 20.3 0 0 1 -3.7 14.3 17 17 0 0 1 -5.7 5 15.26 15.26 0 0 1 -7.3 1.9h.1v.2a14.87 14.87 0 0 1 -1.76-.18 17.29 17.29 0 0 1 -5.54-1.92 17.87 17.87 0 0 1 -5.6-5 19.31 19.31 0 0 1 -3.2-6.8 21.14 21.14 0 0 1 -.5-7.5v.1l2-6.6.18-.61 1.69-5.69h25.56zm-190.9 27.5v.2l6.3.3v-.5h-3.29zm25.9 7.32c0-.2 0-.4.2-.5v-.46l-.09-.84a10.41 10.41 0 0 0 -.6-1.6 7.11 7.11 0 0 0 -2.3-2.6 7.6 7.6 0 0 0 -3.3-1.1c-1.2-.1-2.3-.1-3.4-.1l-9.79-.07v.57l-6.7.2c-.1 0-.3-.1-.3-.2v-.6h-13.42a6 6 0 0 0 -3.4 1.1 7.81 7.81 0 0 0 -2.4 2.7 7.19 7.19 0 0 0 -.8 3.5.56.56 0 0 0 .6.5l23-.1h1.58l9.82-.17zm-23.1-.5h-1.51l-20.68-.09a6 6 0 0 1 2.69-4.73 6.15 6.15 0 0 1 2.9-.9h16.7l13.4-.1h3.3a5.29 5.29 0 0 1 3 .9 6.08 6.08 0 0 1 2.2 2.3 4.72 4.72 0 0 1 .6 1.5 5.19 5.19 0 0 0 .08.65 1.2 1.2 0 0 1 0 .15v.4c0 .1 0 .1.1.3l-11.38-.2zm-2.8-6.3v-.3h-.3zm-.1.3 6.7-.2v-.57l.19-16.73c.1-6.9.1-14 .1-21a8.81 8.81 0 0 1 -1 .6c0 6.7 0 13.4.1 20.2l.29 16.92v.48l-6.3-.3v.3l-.3-.3h.3v-.22c.1-4 .2-8 .2-12l.1-4.8.1-20.4a7.46 7.46 0 0 1 -1.2-.7l.1 21.2.1 4.8c0 4 .09 7.91.19 11.9v.6s.23.22.33.22zm-1.6-39.6c-.18-.18-.29-.44-.46-.64-5.38 5.58-10.56 11.16-15.74 16.84v.2h.1c5.4-5.4 10.8-10.9 16.2-16.4zm9.1-9.22 19.8-20.4 9.1-9.47 13-13.53.19-.2c5.88-6.07 11.65-12.14 17.43-18.31l.37-.39-.5-.4-.22.23c-5.93 6-11.85 12.15-17.78 18.17l-.87.9-11.63 12-9.9 10.21-19.9 20.7.1-.1c.31.21.51.41.81.59zm-8.7 7.62.1-.1a4.38 4.38 0 0 1 -.8-2.5 5.46 5.46 0 0 1 5.4-5.4 4.34 4.34 0 0 1 2.5.5l.6-.7a6.33 6.33 0 0 0 -3.2-1 6.49 6.49 0 0 0 -6.5 6.5 6.3 6.3 0 0 0 1.1 3.5zm-.3 1.6a1.38 1.38 0 0 1 .3.4l.5.5v-1.7a6 6 0 0 1 -.8.8zm5 1.2a4.72 4.72 0 0 1 -3-1v1.4a5.92 5.92 0 0 0 2.9.7 5.83 5.83 0 0 0 2.6-.6v-1.1a5.73 5.73 0 0 1 -2.5.6zm6-5.42h.1a6.81 6.81 0 0 0 -1.7-4.5 2.18 2.18 0 0 0 -.5-.4l-.5.5-.1.1a1.27 1.27 0 0 1 .6.4 5.71 5.71 0 0 1 1.8 3.9 5.52 5.52 0 0 1 -1.8 3.9l-.4.3v1.1a6.47 6.47 0 0 0 .9-.8 5.85 5.85 0 0 0 1.6-4.5zm-9 4.42-.8-.6c-.1-.1-.2-.3-.4-.4v1.7a7.46 7.46 0 0 0 1.2.7zm5.5.4v1.1l1-.6v-1.1a2.08 2.08 0 0 1 -1 .6zm1.4-9.7.1-.1-.8-.6-.1.1-.6.6.9.5zm-8.93 9.06a2.77 2.77 0 0 0 .83-.86l-.5-.7-.8.8-.1.1v.06c.17.2.27.46.46.64z" fill="#a7aaad"/></svg>
