<svg xmlns="http://www.w3.org/2000/svg" width="300" height="160" viewBox="0 0 300 160"><defs><style>.cls-1,.cls-4{fill:#fff;}.cls-2{fill:#c3c4c7;}.cls-3{fill:#f6f7f7;}.cls-4,.cls-6,.cls-9{stroke:#004e6e;}.cls-10,.cls-11,.cls-13,.cls-14,.cls-16,.cls-17,.cls-18,.cls-20,.cls-21,.cls-22,.cls-23,.cls-4,.cls-9{stroke-linecap:round;stroke-linejoin:round;}.cls-19,.cls-5{fill:#646970;}.cls-12,.cls-6{fill:#004e6e;}.cls-6{stroke-miterlimit:10;stroke-width:0.73px;}.cls-7{fill:#3895ba;}.cls-8{fill:#c3c4c7;}.cls-10,.cls-11,.cls-13,.cls-14,.cls-16,.cls-17,.cls-18,.cls-20,.cls-21,.cls-22,.cls-23,.cls-9{fill:none;}.cls-10{stroke:#c3c4c7;}.cls-11,.cls-16,.cls-17,.cls-18{stroke:#fff;}.cls-13,.cls-14,.cls-20,.cls-21,.cls-22,.cls-23{stroke:#c3c4c7;}.cls-13,.cls-14,.cls-16,.cls-17,.cls-18,.cls-20,.cls-21,.cls-22,.cls-23{stroke-width:2px;}.cls-14{stroke-dasharray:5.09 5.09;}.cls-15{fill:#8e9196;}.cls-15,.cls-19{opacity:0.26;}.cls-17{stroke-dasharray:4.61 4.61;}.cls-18{stroke-dasharray:5.27 5.27;}.cls-20{stroke-dasharray:5.28 5.28;}.cls-21{stroke-dasharray:5.72 5.72;}.cls-22{stroke-dasharray:5.23 5.23;}.cls-23{stroke-dasharray:5.29 5.29;}</style></defs><title>illustration-start</title><path class="cls-1" d="M69.6 102.93l-.92-13"/><path class="cls-2" d="M69.5 102.93a16.71 16.71 0 0 1-.63-3.22c-.12-1.08-.22-2.16-.29-3.25s-.11-2.17-.15-3.26a27.87 27.87 0 0 1 .06-3.27.2.2 0 0 1 .4 0 27.87 27.87 0 0 1 .52 3.23c.11 1.08.22 2.16.31 3.24s.13 2.17.17 3.25a16.71 16.71 0 0 1-.17 3.28.1.1 0 0 1-.2 0z"/><path class="cls-1" d="M72.27 105.78l-.23-13"/><path class="cls-3" d="M72.17 105.79a16.63 16.63 0 0 1-.46-3.24c-.06-1.08-.11-2.17-.12-3.25v-3.25a27.74 27.74 0 0 1 .23-3.26.2.2 0 0 1 .4 0 27.74 27.74 0 0 1 .37 3.21c.06 1.08.1 2.17.13 3.25v3.25a16.63 16.63 0 0 1-.35 3.26.1.1 0 0 1-.2 0z"/><path class="cls-1" d="M74.8 106.86l1.65-12.9"/><path class="cls-3" d="M74.7 106.84a16.63 16.63 0 0 1 0-3.28c.1-1.08.21-2.16.35-3.23s.31-2.14.49-3.21a27.74 27.74 0 0 1 .7-3.19.2.2 0 0 1 .4.05 27.74 27.74 0 0 1-.12 3.26c-.1 1.08-.21 2.16-.34 3.23s-.29 2.15-.47 3.22a16.63 16.63 0 0 1-.81 3.17.1.1 0 0 1-.2 0z"/><path class="cls-1" d="M77.1 115.98h-10.75l-1.1-15.93h12.94l-1.09 15.93z"/><path class="cls-3" d="M77.24 116h-.08c-3.46.16-7.13.34-10.82.38a.45.45 0 0 1-.45-.41c-.45-5.3-.79-10.62-1.19-15.92a.54.54 0 0 1 .5-.58c4.31-.06 8.63 0 12.94 0a.49.49 0 0 1 .49.5c-.39 5.51-.89 10.87-1.39 16.03zm-.24-.1v-.07c.23-5.39.46-10.62.73-15.82l.5.54c-4.31 0-8.63.1-12.94 0l.54-.58c.33 5.31.73 10.62 1 15.94l-.45-.42c3.42.07 6.89.25 10.62.41z"/><path class="cls-2" d="M69.12 89a.79.79 0 0 1-1.12 0c-.32-.29-.18-.91-.06-1.11l.51-.87a6.09 6.09 0 0 1 .6.81c.25.44.36.82.07 1.17z"/><path class="cls-3" d="M72.57 91.78a.79.79 0 0 1-1.11.06c-.32-.29-.18-.91-.06-1.11l.51-.87a6.09 6.09 0 0 1 .6.81c.25.4.36.79.06 1.11zM77.12 93.1a.79.79 0 0 1-1.12-.1c-.28-.34 0-.92.1-1.11l.63-.78a6.09 6.09 0 0 1 .48.89c.19.42.24.82-.09 1.1z"/><path class="cls-1" d="M263.75 115.87h-19.52"/><path class="cls-2" d="M263.75 116a37.5 37.5 0 0 1-4.88.4c-1.63 0-3.25.07-4.88.06-3.25-.06-6.5 0-9.76-.37a.2.2 0 0 1 0-.4c3.25-.34 6.5-.31 9.76-.37 1.63 0 3.25 0 4.88.06a37.5 37.5 0 0 1 4.88.4.1.1 0 0 1 0 .2z"/><path class="cls-1" d="M256.81 154.86v-38.99"/><path class="cls-3" d="M256.71 154.86c-.28-3.25-.33-6.5-.4-9.75l-.06-9.75c.06-6.5 0-13 .37-19.49a.2.2 0 0 1 .4 0c.34 6.5.31 13 .37 19.49l-.06 9.75c-.07 3.25-.13 6.5-.4 9.75a.1.1 0 0 1-.2 0z"/><path class="cls-1" d="M56.95 77.74h3.8v22.47h-3.8zM61.71 77.74h-11.06a3 3 0 0 1 1.74-2.74 22.73 22.73 0 0 1 9.32-2.11zM65.07 77.74h-1.8v-4.81h1.8a1 1 0 0 1 1 1v2.8a1 1 0 0 1-1 1.01z"/><path class="cls-3" d="M60.91 100.29h-.08c-1.22.08-2.53.19-3.88.24a.31.31 0 0 1-.32-.3c-.16-3.74-.24-7.49-.26-11.23l-.06-11.23a.64.64 0 0 1 .64-.64h3.8a.61.61 0 0 1 .61.62c0 3.81 0 7.65-.14 11.44zm-.32-.16v-.13l-.32-11.27c-.1-3.7-.1-7.36-.14-11l.62.62h-3.8l.64-.64-.05 11.29c0 3.74-.1 7.49-.26 11.23l-.28-.34c1.12.05 2.31.11 3.59.23zM61.88 77.81h-.09c-1.84.18-3.85.34-5.91.43-1 0-2.07.07-3.12.09h-2.1100000000000003c-1.27-1.27-.35-.36-.63-.64v-.26a3.62 3.62 0 0 1 1.18-2.41 3.47 3.47 0 0 1 .75-.52c.28-.14.48-.22.73-.32a24.42 24.42 0 0 1 2.92-1 19.85 19.85 0 0 1 6.1-.76.46.46 0 0 1 .44.47c-.01 1.73-.14 3.38-.26 4.92zm-.32-.16v-.08c-.1-1.64-.25-3.17-.32-4.65l.48.48a24.32 24.32 0 0 0-5.77 1 23.19 23.19 0 0 0-2.75 1 4 4 0 0 0-1.12.63 2.34 2.34 0 0 0-.77 1.54v.17l-.63-.63h1.94c1 0 1.93 0 2.9.09 1.91.12 3.9.27 6.04.45zM65.07 77.85a13.59 13.59 0 0 1-1.8.32.38.38 0 0 1-.42-.34v-.1c-.09-.8-.14-1.6-.16-2.41s0-1.6-.05-2.41a.64.64 0 0 1 .64-.64h1.46a5.18 5.18 0 0 1 .57 0 1.61 1.61 0 0 1 1.36 1.63v.49c0 .65-.07 1.29-.13 1.94 0 .18 0 .28-.06.53a1.32 1.32 0 0 1-.28.59 1.29 1.29 0 0 1-1.1.47zm0-.34a.72.72 0 0 0 .55-.4c.1-.21.05-.37 0-.74-.06-.65-.11-1.29-.13-1.94v-.49a.41.41 0 0 0-.06-.2.4.4 0 0 0-.31-.2h-1.84l.64-.64c0 .8 0 1.6-.05 2.41s-.07 1.6-.16 2.41l-.43-.43a13.59 13.59 0 0 1 1.8.32z"/><path class="cls-2" d="M36.25 115.77c4.59-.28 9.17-.33 13.76-.4l13.76-.06c9.17.06 18.34 0 27.51.37a.2.2 0 0 1 0 .4c-9.17.34-18.34.31-27.51.37l-13.77-.07c-4.59-.07-9.17-.13-13.76-.4a.1.1 0 0 1 0-.2z"/><path class="cls-1" d="M87.28 124.89v10.5h-34.54v-10.5"/><path class="cls-3" d="M87.39 124.89q.28 5.25.35 10.5a.44.44 0 0 1-.43.45c-2.88.06-5.76.06-8.64.08l-8.67.08c-5.76 0-11.52 0-17.27-.12a.44.44 0 0 1-.44-.45c0-3.5.13-7 .25-10.5a.2.2 0 0 1 .4 0c.12 3.5.21 7 .25 10.5l-.45-.45c5.76-.09 11.52-.08 17.27-.12h8.64c2.88 0 5.76 0 8.64.08l-.45.45q.07-5.25.35-10.5a.1.1 0 0 1 .2 0z"/><path class="cls-4" d="M94 62.62a5.29 5.29 0 0 0 1.91-.38 6.65 6.65 0 0 0 4.6-6.91c0-.88 1.48-1.47 1.18-2.37-.39-1.17-2.47-1.09-3.52-3.33-1.17-2.52-4.27-3.16-7.17-2.19a7.8 7.8 0 0 0-4.92 9.87"/><path class="cls-5" d="M93.18 52.87c1.14 2.84.85 7.58-2.08 8.72l-5-4.26z"/><path class="cls-6" d="M85 94.12c-2.56 19.75-.41 62-.41 62h9.66l.85-35.38"/><path class="cls-6" d="M84.56 155.08c2.94.09 11.84.66 13.17 1.14s1.42.66-.19 1h-13z"/><path class="cls-7" d="M100.76 93.7s1.06 15 1.56 30.41c.42 12.91-1.12 26.54-1 32h-10.51c.14-31.55-6.13-44.62-5.84-62"/><path class="cls-7" d="M84.19 72.31a89.32 89.32 0 0 0 .81 21.81l15.93-.43-.24-9.76-3.69-2 4.5-8.72-3-3.13-4.5-4.65a8 8 0 0 0-9.81 6.88z"/><path class="cls-8" d="M95.5 81.19l.71 51.73h6.68l-1-48.6-6.39-3.13z"/><path class="cls-4" d="M93.65 79.06c6.25 5.4 12.36 7 14.92 4.83 3.82-3.19-3-15.78-3.41-17.62-1.56-6.39-5.12-6.39-6-5.68l.85 4.69 1.56 8.53"/><path class="cls-9" d="M97.91 70.39l5.83 5.54"/><path class="cls-7" d="M90.81 155.08c2.94.09 11.84.66 13.17 1.14s1.42 1.23-.19 1.61h-13z"/><path class="cls-9" d="M95.36 62.81l-.86 2.61-.66-2.7 1.52.09z"/><path class="cls-10" d="M98.2 93.41c-4.83 2.13-14.21 1-14.21 1"/><path class="cls-11" d="M103.69 107.81a17.31 17.31 0 0 1-5.43-.1"/><path class="cls-10" d="M90.4 65.68c2.51-.85-2.94-3.75-3.26-1.8s1.11 2.53 3.26 1.8zM91.52 65.28s3.13.43 4.69 2M85.55 58.03l15.63-10.66"/><path class="cls-9" d="M98.62 57.79a3.11 3.11 0 0 0 1.28-.17"/><rect class="cls-12" x="97.35" y="52.88" width=".89" height="1.65" rx=".45" ry=".45" transform="translate(-8.1 18.58) rotate(-10.42)"/><path class="cls-1" d="M208.77 79.82h-1.21"/><path class="cls-3" d="M208.77 79.9a.56.56 0 0 1-.3.34.77.77 0 0 1-.3.05c-.2-.05-.41 0-.61-.3a.29.29 0 0 1 0-.33c.2-.28.41-.25.61-.3a.77.77 0 0 1 .3.05.56.56 0 0 1 .3.34.2.2 0 0 1 0 .15z"/><path class="cls-1" d="M208.77 85.91h-1.21"/><path class="cls-3" d="M208.77 86a.56.56 0 0 1-.3.34.77.77 0 0 1-.3.05c-.2-.05-.41 0-.61-.3a.29.29 0 0 1 0-.33c.2-.28.41-.25.61-.3a.77.77 0 0 1 .3.05.56.56 0 0 1 .3.34.2.2 0 0 1 0 .15z"/><path class="cls-1" d="M208.77 88.12h-1.21"/><path class="cls-3" d="M208.77 88.21a.56.56 0 0 1-.3.34.77.77 0 0 1-.3.05c-.2-.05-.41 0-.61-.3a.29.29 0 0 1 0-.33c.2-.28.41-.25.61-.3a.77.77 0 0 1 .3.05.56.56 0 0 1 .3.34.2.2 0 0 1 0 .15z"/><path class="cls-1" d="M208.77 94.44h-1.21"/><path class="cls-3" d="M208.77 94.52a.56.56 0 0 1-.3.34.77.77 0 0 1-.3.05c-.2-.05-.41 0-.61-.3a.29.29 0 0 1 0-.33c.2-.28.41-.25.61-.3a.77.77 0 0 1 .3.05.56.56 0 0 1 .3.34.2.2 0 0 1 0 .15z"/><path class="cls-1" d="M208.77 100.5h-1.21"/><path class="cls-3" d="M208.77 100.58a.56.56 0 0 1-.3.34.77.77 0 0 1-.3.05c-.2-.05-.41 0-.61-.3a.29.29 0 0 1 0-.33c.2-.28.41-.25.61-.3a.77.77 0 0 1 .3.05.56.56 0 0 1 .3.34.2.2 0 0 1 0 .15z"/><path class="cls-1" d="M208.77 106.21h-1.21"/><path class="cls-3" d="M208.77 106.29a.56.56 0 0 1-.3.34.77.77 0 0 1-.3.05c-.2-.05-.41 0-.61-.3a.29.29 0 0 1 0-.33c.2-.28.41-.25.61-.3a.77.77 0 0 1 .3.05.56.56 0 0 1 .3.34.2.2 0 0 1 0 .15zM66.94 128.17a4 4 0 0 1 1.52-.4c.51 0 1-.07 1.52-.06s1 0 1.52.08a6.35 6.35 0 0 1 1.52.29.21.21 0 0 1 0 .4 6.35 6.35 0 0 1-1.52.29c-.51 0-1 .06-1.52.08s-1 0-1.52-.06a4 4 0 0 1-1.52-.4.11.11 0 0 1 0-.2z"/><path class="cls-1" d="M105.85 39l-.22-7.79v-5.21a8.2 8.2 0 0 1 8.2-8.2h121.23a8.2 8.2 0 0 1 8.2 8.2v13"/><path class="cls-13" d="M105.85 38.98l-.08-2.5"/><path class="cls-14" d="M105.63 31.39v-5.39a8.2 8.2 0 0 1 8.2-8.2h121.23a8.2 8.2 0 0 1 8.2 8.2v7.93"/><path class="cls-13" d="M243.26 36.48v2.5"/><path class="cls-2" d="M250.1 40.23c-12.61.76-25.22.75-37.83.8l-37.83.13-37.83-.16c-12.61 0-25.22 0-37.83-.8v-.5c12.61-.76 25.22-.75 37.83-.8l37.83-.13 37.83.13c12.61 0 25.22 0 37.83.8z"/><path class="cls-1" d="M122.81 81.84h57.4v36.93h-57.4zM180.21 71.16h-57.4v-8.16a10.67 10.67 0 0 1 10.67-10.67h46.73zM171.28 90.12c-7 0-9.38 3.22-10.85 5.88a15.33 15.33 0 0 1-9.29 7.2c-4.8 1.26-6.79 4.13-6.79 6.82h27.17z"/><path class="cls-15" d="M108.9 144.57v-96.06h137.58v96.06h-137.57999999999998z"/><path class="cls-16" d="M180.63 122.39v2.5h-2.5"/><path class="cls-17" d="M173.52 124.89h-43.8"/><path class="cls-16" d="M127.42 124.89h-2.5v-2.5"/><path class="cls-18" d="M124.92 117.12v-39.5"/><path class="cls-16" d="M124.92 74.98v-2.5h2.5"/><path class="cls-17" d="M132.03 72.48h43.8"/><path class="cls-16" d="M178.13 72.48h2.5v2.5"/><path class="cls-18" d="M180.63 80.25v39.5"/><path class="cls-1" d="M133.62 88.27h51.92v1.73a8.2 8.2 0 0 1-8.2 8.2h-43.72v-9.93z"/><path class="cls-19" d="M133.62 106.66h32.44v1.75a8.2 8.2 0 0 1-8.2 8.2h-24.24v-9.95z"/><path class="cls-7" d="M201.77 100.68h32.71v34.86h-39.69v-27.89a7 7 0 0 1 6.98-6.97z"/><path class="cls-1" d="M253.79 91.54h-42v-33.6h36.12a5.84 5.84 0 0 1 5.84 5.84z"/><path class="cls-13" d="M253.78 89.04v2.5h-2.5"/><path class="cls-20" d="M246.01 91.54h-29.04"/><path class="cls-13" d="M214.33 91.54h-2.5v-2.5"/><path class="cls-21" d="M211.83 83.32v-20.02"/><path class="cls-13" d="M211.83 60.44v-2.5h2.5"/><path class="cls-22" d="M219.56 57.94h28.38a5.84 5.84 0 0 1 5.84 5.84v22.65"/><path class="cls-1" d="M211.64 58.1l41.01 33"/><path class="cls-13" d="M211.64 58.1l1.95 1.56"/><path class="cls-23" d="M217.71 62.98l30.93 24.89"/><path class="cls-13" d="M250.7 89.53l1.95 1.57"/><circle class="cls-15" cx="120.84" cy="28.39" r="2.05"/><circle class="cls-15" cx="131.58" cy="28.39" r="2.05"/><circle class="cls-15" cx="142.32" cy="28.39" r="2.05"/><path class="cls-3" d="M25 157.82c20.83-.49 41.67-.6 62.5-.72l62.5-.1 62.5.15 31.25.2 15.63.11 15.63.2a.36.36 0 0 1 0 .71l-15.62.2-15.62.11-31.25.2-62.52.12-62.5-.11c-20.83-.12-41.67-.23-62.5-.72a.18.18 0 0 1 0-.36z"/></svg>
