<svg height="250" viewBox="0 0 400 250" width="400" xmlns="http://www.w3.org/2000/svg"><path d="m199.3 103.8c-15.1 0-27.3 12.2-27.3 27.3s12.2 27.3 27.3 27.3 27.3-12.2 27.3-27.3c-.1-15.1-12.3-27.3-27.3-27.3zm-24.5 27.2c0-3.4.7-6.8 2.1-10l11.7 32c-8.5-4.1-13.9-12.6-13.8-22zm24.5 24.6c-2.3 0-4.7-.4-6.9-1l7.4-21.4 7.5 20.6c0 .1.1.2.2.3-2.7 1-5.4 1.5-8.2 1.5zm3.4-36.1 2.8-.2c.6-.1 1-.5.9-1.1s-.5-1-1.1-.9c0 0-4 .3-6.5.3s-6.5-.3-6.5-.3c-.6-.1-1 .3-1.1.9s.3 1 .9 1.1c.9.1 1.7.2 2.6.2l3.9 10.5-5.4 16.1-8.9-26.6 2.8-.2c.6-.1 1-.5.9-1.1s-.5-1-1.1-.9c0 0-4 .3-6.5.3h-1.6c7.4-11.4 22.7-14.5 34-7.1 1.1.7 2.1 1.5 3.1 2.4h-.3c-2.3.1-4.2 2-4.1 4.4 0 2 1.2 3.7 2.4 5.7 1.3 2 2 4.4 2 6.8-.1 2.7-.8 5.4-1.9 7.9l-2.4 8.2zm8.9 32.7 7.5-21.7c1.2-2.8 1.8-5.8 1.9-8.8 0-.8-.1-1.7-.2-2.5 6.3 11.7 2.2 26.3-9.2 33z" fill="#3895ba"/><path d="m267.7 170.4-21.8-.1h-16.5l-16.5.1c-11 .1-22 .2-33 .8-.1.1-.1.1-.2.4 0 .1.1.2.2.2 11 .5 22 .7 33 .8l16.5.1h16.5l21.9-.1zm44.2.7c-5.2-.2-10.4-.3-15.7-.4l-.1 1.6c5.3-.1 10.5-.2 15.8-.4.2 0 .4-.2.4-.4s-.2-.4-.4-.4z" fill="#c3c4c7"/><g fill="#a7aaad"><path d="m269.6 139.1h.8l-.1-1.2-2.8-25.3 2.2-4.9 3.6 4.2 1.4 12.4 1.5 12.6.3 2.2h.7l-.2-2-1.3-12.8-1.4-12.8c0-.1 0-.2-.1-.3l-4.1-4.9c-.1-.1-.1-.2-.2-.2-.3-.1-.6 0-.7.3l-2.6 5.7v.3l2.9 25.5z"/><path d="m273.6 111.9c-.2.6-.6 1.2-1 1.7-.1.2-.4.2-.6.1h-.1c-.5-.3-1-.6-1.5-1l.8-.1-1.5 1.5-.1.1c-.2.1-.4.1-.6 0l-1.6-1.5c-.1-.1-.1-.2 0-.3s.2-.1.2 0l1.9 1-.7.1c.4-.6.9-1.1 1.4-1.6.2-.2.5-.2.8-.1.5.3 1 .7 1.4 1.1l-.7.1c.5-.5 1-.9 1.6-1.2.2-.1.3-.1.3.1zm-5.2-2.5c1.1.2 2.2-.1 3.1-.6l-1.8-2.2zm13.6 29.7v-18.3c0-.7.3-1.4.9-1.9s1.3-.8 2.1-.7c1.5 0 2.7 1.3 2.7 2.8v18.1h1.1v-18.1c.1-1-.3-2.1-1-2.8-.7-.8-1.7-1.2-2.8-1.2-.5 0-1 0-1.5.2s-.9.5-1.3.8c-.8.7-1.3 1.7-1.3 2.7v18.4z"/><path d="m284.1 117.2c1.2.1 2.4-.7 2.8-1.8.5-1.1.6-2.3.5-3.5s-.5-2.3-1-3.4-1.2-2.1-2-3l.9-.1c-.8 1.7-1.7 3.3-2.3 5-.3.8-.6 1.7-.7 2.6s0 1.8.5 2.5v.2h-.2c-.7-.7-1.1-1.7-1-2.7s.2-2 .5-2.9c.6-1.8 1.4-3.5 2.2-5.2.1-.3.4-.4.7-.3.1 0 .1.1.2.1 1.8 1.9 3 4.4 3.3 7.1.1 1.4-.1 2.7-.8 3.9-.4.6-.9 1.1-1.5 1.4s-1.3.3-2 .2c-.1 0-.1 0-.1-.1-.1 0-.1 0 0 0z"/><path d="m287.9 111c-.4.4-.9.6-1.4.6-.6.1-1.1 0-1.6-.3s-.8-.5-1.2-.7-.8-.2-1.2-.4c-.1 0-.2-.1-.1-.2v-.1c0-.1 0-.1.1-.1.5-.2 1.1-.3 1.6-.2s1 .3 1.4.6c.3.2.7.3 1.1.3.5 0 1 0 1.4.2-.1.2 0 .2-.1.3zm10.5 28.1c-.4 8.9-.9 17.9-1.4 26.8l-.4 6.7-.2 3.4c-.1 1.2-.6 2.3-1.3 3.3-1.5 1.9-3.9 2.9-6.3 2.7h-13.4c-2.4.2-4.8-.8-6.4-2.7-.8-1-1.3-2.1-1.4-3.4-.1-1.2-.1-2.3-.1-3.4l-.2-6.7-.9-26.8c0-.2.2-.4.4-.5l12.8.1c4.3 0 8.5.1 12.8.1.1 0 .2.1.2.2s-.1.2-.2.2c-4.3.1-8.5.1-12.8.1l-12.8.1.4-.5 1.1 26.8.3 6.7c.1 1.1.1 2.3.2 3.3s.5 2 1.2 2.8c.6.8 1.5 1.4 2.4 1.8 1 .4 2 .5 3.1.5h13.4c2.1.1 4.1-.7 5.5-2.3.6-.8 1-1.8 1.1-2.8l.2-3.3.5-6.7c.6-8.9 1.3-17.8 2.1-26.8 0-.1 0-.1.1-.1z"/><path d="m272.8 146.2c.4 1.5.6 3.1.7 4.7s.3 3.1.4 4.7c.2 3.1.4 6.2.3 9.4 0 .1-.1.2-.2.2s-.2-.1-.2-.2c-.6-3.1-.7-6.2-1-9.3-.1-1.6-.2-3.1-.3-4.7s-.1-3.1.1-4.7c0-.2.1-.2.2-.1z"/></g><path d="m142.2 129.3-.4-32.7-.1-16.4c0-1.5.4-3 1.2-4.3s2-2.3 3.4-2.9c.7-.3 1.4-.5 2.2-.5.7-.1 1.4-.1 2.1 0h4.1l32.7-.1 32.7-.1h28.7c1.6-.1 3.2.3 4.5 1.2 1.4.8 2.4 2.1 3.1 3.5.4.7.6 1.5.6 2.3.1.4.1.8.1 1.2v25.6l-.1 65.5c0 .6-.5 1.1-1.1 1.1l-39.8-.2-19.9-.2-19.9-.3c-.2 0-.4-.2-.4-.4s.2-.4.4-.4c6.6-.1 13.3-.3 19.9-.3l19.9-.2 39.8-.2-1.1 1.1-.1-65.5v-25.6c0-.3 0-.6-.1-.9-.1-.6-.2-1.2-.5-1.7-.5-1-1.3-1.9-2.2-2.6-.5-.3-1-.5-1.6-.7-.3-.1-.5-.1-.8-.1h-29.6l-32.7-.1-32.7-.1h-6.1c-.6.1-1.1.2-1.7.4-2.3.9-3.8 3.2-3.8 5.7l-.1 16.4-.2 32.5c0 .1-.1.2-.2.2-.2 0-.2-.1-.2-.2z" fill="#8e9196"/><path d="m141.3 91.4v-11.4c0-4.5 3.1-8.2 6.9-8.2h102c3.8 0 6.9 3.7 6.9 8.2v11.4z" fill="#3895ba"/><path d="m260.3 91.4c-10.1.8-20.3.7-30.4.8l-30.4.1-30.4-.1c-10.1 0-20.3 0-30.4-.8v-.5c10.1-.8 20.3-.7 30.4-.8l30.4-.1 30.4.1c10.1 0 20.3 0 30.4.8z" fill="#646970"/><path d="m126.5 141.5c.6-1 1.3-2 2-3 .3-.5.7-1 1.1-1.5s.9-.9 1.5-1.3c.6-.3 1.2-.5 1.9-.6s1.2 0 1.9-.1h9.1c.7.1 1.3.3 1.9.6s1.1.7 1.5 1.2.7 1 1.1 1.5c.7 1 1.3 2 2 3 .1.1 0 .2-.1.3s-.2 0-.3 0c-.8-.9-1.5-1.8-2.3-2.8-.4-.4-.8-.9-1.1-1.4-.4-.4-.8-.7-1.3-1-.5-.2-1-.4-1.5-.4h-10.6c-.5.1-1 .2-1.5.5-.5.2-.9.6-1.3 1s-.8.9-1.1 1.4l-2.4 2.7h-.1c-.5 0-.5-.1-.4-.1z" fill="#a7aaad"/><path d="m135.8 135.6c-.1-.2-.2-.5-.3-.7 0-.1 0-.1-.1-.2l-.1-.1c-.1-.1-.1-.1-.2-.1h-.7c-.2 0-.3.1-.4.3s0 .5.5.6c.1 0 .2.1.1.2v.1c0 .1 0 .1-.1.1-.3.1-.6.1-.9-.1s-.5-.5-.6-.9c0-.4.1-.7.3-1 .3-.3.6-.4 1-.4h.7c.4 0 .8.2 1 .5.1.2.2.3.2.5v.5c-.1.2-.2.5-.4.7 0 .2.1.1 0 0zm7.3 0c-.1-.2-.2-.5-.3-.7 0-.1 0-.1-.1-.2l-.1-.1c-.1-.1-.1-.1-.2-.1h-.7c-.2 0-.3.1-.4.3s0 .5.5.6c.1 0 .2.1.1.2v.1c0 .1 0 .1-.1.1-.3.1-.6.1-.9-.1s-.5-.5-.6-.9c0-.4.1-.7.3-1 .3-.3.6-.4 1-.4h.7c.4 0 .8.2 1 .5.1.2.2.3.2.5v.5c-.1.2-.2.5-.4.7.2.1.1.1 0 0zm14.4 41.4-11.3.2-11.3.1-22.5.2h-2.8c-1 0-2-.2-2.9-.6-1.8-.9-3.1-2.7-3.5-4.7-.1-1-.1-1.9-.1-2.9v-21.1c0-.5 0-1 .1-1.5.1-1 .5-2 1.1-2.8 1.2-1.7 3.1-2.7 5.2-2.7h47.9c1 0 2 .2 2.9.6 1.8.9 3.1 2.7 3.5 4.7.1 1 .1 1.9.1 2.9v8.4l-.3 11.2c0 .9 0 1.9-.1 2.8-.1 1-.5 1.9-1.1 2.7-1.1 1.6-3 2.6-4.9 2.5zm0-.3c1.8 0 3.6-.9 4.6-2.4.5-.7.8-1.6.9-2.5s.1-1.9 0-2.8l-.1-11.3v-8.4c0-.9 0-1.8-.1-2.7-.3-1.7-1.4-3.2-3-4-.8-.4-1.6-.5-2.5-.5h-47.9c-1.7 0-3.4.9-4.4 2.3-.5.7-.8 1.5-.9 2.4-.1.4-.1.9-.1 1.3v21.1c0 .9 0 1.8.1 2.7.3 1.7 1.4 3.2 3 4 .8.4 1.6.6 2.5.5h2.8l22.5.2 11.3.1z" fill="#a7aaad"/><path d="m155 163.1c-.7 3.4-2.7 6.4-5.6 8.4-2.9 1.9-6.5 2.7-10 2-7.3-1.5-12.1-8.5-10.8-15.8.6-3.5 2.6-6.6 5.5-8.7s6.5-3 10-2.4c3.5.5 6.7 2.4 8.8 5.2 1 1.4 1.8 3 2.3 4.7.4 1.7.5 3.4.3 5.1 0 .1-.1.2-.2.2s-.2-.1-.2-.2c.3-3.3-.7-6.7-2.8-9.3-2-2.6-5-4.3-8.3-4.7-3.2-.4-6.5.4-9.2 2.3s-4.4 4.9-5 8.1.1 6.6 2 9.3 4.7 4.6 7.9 5.3c4.9 1 10-1 13-5 1-1.3 1.8-2.9 2.2-4.5 0-.1 0-.1.1-.1z" fill="#a7aaad"/><path d="m150.6 162.9c-1.4 4.8-6.4 7.6-11.2 6.2-2.1-.6-3.9-1.9-5.1-3.8-2.8-4.1-1.9-9.6 2-12.6 1.8-1.5 4.2-2.1 6.5-1.9s4.5 1.3 6.1 3c1.5 1.7 2.4 4 2.3 6.3 0 .1-.1.2-.2.2s-.2-.1-.2-.2c-.1-2.1-1-4.1-2.4-5.7-1.5-1.5-3.5-2.5-5.6-2.6-2.1-.2-4.2.5-5.8 1.8s-2.7 3.2-3 5.2.1 4.1 1.2 5.9c1.2 1.8 2.9 3 5 3.5s4.2.3 6.1-.7 3.4-2.7 4.3-4.6c-.1-.2-.1-.2 0-.2zm-31.1 14.1-13 .3c-.6 0-1.2-.1-1.8-.3-.5-.3-1-.8-1.3-1.3-.2-.6-.3-1.2-.3-1.8v-1.6l-.1-6.5v-16.3c-.1-1.1 0-2.2.1-3.3.3-2.3 1.5-4.4 3.3-5.9s4-2.3 6.3-2.4c1.1-.1 2.3.1 3.4.4s2.2.9 3.1 1.6c1.8 1.5 3 3.6 3.3 5.9.1 1.2.1 2.2.1 3.3v3.3l-.1 13-.1 6.5v1.6c0 .6 0 1.1-.1 1.7-.5 1.2-1.6 1.9-2.8 1.8zm0-.3c1 0 1.9-.7 2.2-1.7.1-.5 0-1 .1-1.6v-1.6l-.1-6.5-.1-13v-3.3c0-1.1 0-2.2-.1-3.2-.2-2-1.3-3.9-2.9-5.2-.8-.6-1.7-1.1-2.7-1.4s-2.1-.4-3.1-.3c-4.2 0-7.8 3.1-8.5 7.3-.1 1.1-.2 2.1-.1 3.2v16.3l-.1 6.5v1.6c0 .5 0 1 .2 1.4s.5.8.9 1 .9.3 1.4.3c4.2.1 8.6.2 12.9.2zm36.7-5.5c.5-.2 1 0 1.3.4v.1c.3.5.2 1.2-.3 1.6-.4.4-1.1.5-1.6.3s-.8-.8-.6-1.3c0-.1.1-.2.2-.1h.1c.1 0 .1 0 .1.1.4.5.8.5 1 .3s.2-.3.1-.4-.1-.4-.4-.7c0-.2 0-.2.1-.3zm-24.9-22.8c-1.3.3-2.7.4-4 .4h-1.6c-.3 0-.6-.2-.8-.5-.1-.2-.2-.5-.2-.8v-1.6c0-.3.2-.6.5-.8.2-.1.5-.2.8-.2h4.5c.2 0 .5.1.7.2.2.2.4.4.4.7v.6c0 .3-.1.7-.1 1 0 .1-.1.2-.2.2s-.2-.1-.2-.2c0-.3-.1-.7-.1-1v-.4c0-.1 0-.1-.1-.1h-5v1.6h1.5c1.3 0 2.7.1 4 .4-.1.3 0 .3-.1.5z" fill="#a7aaad"/><path d="m105.4 141.1c.9-.1 1.7 0 2.5.4.7.4 1.3 1 1.8 1.7.4.6 1 1 1.6 1.4.7.3 1.4.4 2.1.4s1.4-.1 2.1-.4 1.3-.8 1.8-1.3c.6-.6 1.3-1.1 2-1.6.8-.4 1.6-.6 2.5-.5.1 0 .2.1.2.2s-.1.2-.2.2c-.7.1-1.5.3-2.1.7-.6.5-1.2 1-1.7 1.6-.6.6-1.3 1.2-2 1.6-1.6.8-3.5.8-5.1.1-.8-.4-1.4-1.1-1.9-1.8-.4-.6-.9-1.2-1.5-1.7-.7-.5-1.4-.8-2.1-1-.1.2-.1.2 0 0-.1.1 0 .1 0 0zm58 5.8c.2 1.9-.2 3.8-.9 5.5-.7 1.6-1.1 3.4-1.1 5.2-.1 1.8.3 3.5 1 5.1.4.9.7 1.8.9 2.7s.3 1.9.2 2.8c0 .1-.1.2-.2.2s-.2-.1-.2-.2c-.1-.9-.3-1.8-.6-2.6-.3-.9-.7-1.7-1.1-2.5-.8-1.7-1.3-3.6-1.3-5.5 0-1 .1-2 .4-2.9.2-.9.6-1.8.9-2.7s.7-1.7 1-2.5.5-1.7.6-2.6c.2-.1.3-.1.4 0zm-59.8 6.1c.1 2.2-.2 4.4-.9 6.5s-1.9 4-3.5 5.6c-1.6 1.5-3.3 2.8-5.2 4-1.8 1-3.4 2.6-4.4 4.4-.8 1.9-.9 4-.1 5.9s2.3 3.4 4.2 4.2c1.9.9 4 1.4 6.1 1.7s4.3.4 6.4.4c8.6-.2 17.2-1.1 25.7-2.9 8.5-1.6 16.9-3.7 25.3-6 .1 0 .2 0 .2.1s0 .2-.1.2c-4.1 1.3-8.3 2.5-12.5 3.6s-8.4 2.1-12.7 3-8.6 1.6-12.9 2.2-8.7.9-13.1.9c-2.2 0-4.4-.1-6.6-.4-2.2-.2-4.4-.9-6.4-1.8-2.1-.9-3.8-2.7-4.7-4.8-.4-1.1-.6-2.2-.6-3.4s.2-2.3.7-3.4c1-2.1 3-3.5 4.8-4.7s3.6-2.4 5.2-3.8c1.5-1.4 2.7-3.2 3.5-5.2.7-2 1.1-4.1 1.2-6.3.2-.1.3-.1.4 0z" fill="#a7aaad"/></svg>
