<svg width="206" height="156" fill="none" xmlns="http://www.w3.org/2000/svg"><g clip-path="url(#clip0)"><path d="M110.824 156c41.469 0 75.087-9.596 75.087-21.433s-33.618-21.433-75.087-21.433c-41.47 0-75.087 9.596-75.087 21.433S69.355 156 110.824 156z" fill="#F5F5F5"/><path d="M182.264 51.19s-13.301 13.29-5.793 33.008c7.509 19.718-12.872 52.511-12.872 52.511s.215-.033.625-.103c27.318-4.818 40.892-36.033 25.701-59.222-5.64-8.62-10.285-18.734-7.661-26.193z" fill="#7F54B3"/><path d="M182.264 51.19s-7.509 16.29 0 29.578c7.509 13.289 1.287 50.582-18.665 55.941" stroke="#535461" stroke-width="2" stroke-miterlimit="10"/><path d="M205.953 104.938s-15.178-2.415-16.562 11.175c-1.384 13.591-29.177 15.473-29.177 15.473s.18.124.521.347c22.956 15.054 44.9 9.589 41.594-10.401-1.238-7.431-1.139-14.896 3.624-16.594z" fill="#7F54B3"/><path opacity=".2" d="M205.953 104.938s-15.178-2.415-16.562 11.175c-1.384 13.591-29.177 15.473-29.177 15.473s.18.124.521.347c22.956 15.054 44.9 9.589 41.594-10.401-1.238-7.431-1.139-14.896 3.624-16.594z" fill="#F5F5F5"/><path d="M205.953 104.938s-11.782 2.585-10.815 13.288c.968 10.704-17.504 23.53-34.932 13.355" stroke="#535461" stroke-width="2" stroke-miterlimit="10"/><path opacity=".2" d="M32.48.017c-1.729-.06-3.5 0-5.123.605-4.413 1.644-6.504 7.021-5.824 11.679.68 4.657 3.477 8.701 6.38 12.407 2.903 3.706 6.048 7.364 7.64 11.788.793 2.21 1.165 4.685.358 6.891-1.244 3.401-4.997 5.303-8.599 5.697-3.602.394-7.219-.375-10.834-.643-1.516-.107-3.076-.12-4.505.377-1.568.542-2.875 1.648-4.076 2.801C3.209 56.142-.543 62.314.064 68.796c.687 7.347 6.81 13.155 13.516 16.27 2.22 1.033 4.57 1.868 6.524 3.343 5.149 3.888 6.305 11.173 5.792 17.605-.512 6.432-2.259 12.871-1.287 19.247 1.144 7.416 6.205 14.114 13.031 17.243 6.082 2.786 13.694 2.612 19.094-1.329 2.632-1.929 4.623-4.589 6.354-7.347a63.414 63.414 0 006.318-13.263c.753-2.21 1.461-4.587 3.218-6.123 1.073-.946 2.463-1.475 3.838-1.887 4.145-1.238 8.51-1.579 12.694-2.681 4.184-1.101 8.393-3.155 10.667-6.826 3.218-5.21 1.716-11.874 1.731-18.004.026-13.966 8.39-26.47 11.478-40.08 1.008-4.45 1.383-9.372-.869-13.34-1.532-2.706-4.113-4.635-6.827-6.136-5.964-3.309-12.743-4.781-19.413-6.215-9.27-1.99-20.526-2.247-27.711-8.68C51.317 4.42 41.883.016 32.48.016z" fill="#7F54B3"/><path opacity=".5" d="M66.107 54.073a32.24 32.24 0 00-1.564-9.915l-2.575-7.975v-.394c.08-5.112-3.909-7.663-5.445-7.386-1.572.283-5.936-1.903-5.936-1.903v.06c-.299-.345-.569-.713-.806-1.102a6.995 6.995 0 002.805-4.646 6.983 6.983 0 00-1.366-5.252 3.07 3.07 0 001.036-1.389c.356-1 .084-2.143-.495-3.035a5.881 5.881 0 00-.858-1.022 10.857 10.857 0 00-1.6-1.307c-1.432-.99-3.004-1.841-4.72-2.144a1.967 1.967 0 00-.904 0 3.743 3.743 0 00-.731.395c-1.176.668-2.64.38-3.995.308-1.356-.07-3.003.309-3.433 1.58-.133.392-.124.817-.214 1.22-.214.985-.976 1.75-1.564 2.572-.588.82-1.028 1.928-.538 2.82.167.3.429.577.429.92 0 .246-.146.467-.215.703-.148.535.131 1.071.56 1.46.185.198.403.364.644.49.68.347 1.463.454 2.156.776.346.162.663.38.94.643a3.69 3.69 0 011.02 2.664l.144.015v.126c.15.017.31.032.466.039.225.363.483.706.77 1.022a10.48 10.48 0 01-.165.558c-.504.349-4.628 3.092-9.317 2.432-5.005-.705-7.867 21.157-7.867 21.157a24.977 24.977 0 00-.27 3.776c-.022 3.215.654 7.422 4.419 6.803l2.001-.658v10.813s.286 2.962-.714 4.93c-1 1.967 3.147 1.268 3.147 1.268s.159.165.45.446l-.092.26.123.124a28.335 28.335 0 01-2.195 5.377l.118.06a4.366 4.366 0 01-.118.215s1.54.786 3.66 1.8C35 89.53 38.73 102.853 37.503 105.39l.034.073c.23.476 1.513 3.281 1.253 5.851-.234 2.298 2.95 12.738 4.138 16.529l-.562.114 2.002 7.193-.43 4.655s-2.43 6.488 3.29 5.219c5.72-1.269 4.147-6.488 4.147-6.488l.143-10.579s-.551-.307-1.231-.6c-.468-1.263-1.487-4.246-1.487-6.31 0-2.679-1.86-14.247-1.86-14.247v-.081l-.01-.154v-.026c0-.144-.024-.341-.041-.581v-.013c-.215-3.127-.858-13.751-.389-19.29.414-.28.843-.537 1.288-.767 1.392 3.515 4.981 13.012 4.752 16.997-.286 4.929-.071 1.058 0 .428.021-.195.036.041.042.57V105.969c0 .429 0 .904-.015 1.399v.3c0 .303 0 .611-.015.924 0 .429-.017.845-.025 1.276-.022.964-.05 1.939-.084 2.852a71.258 71.258 0 01-.06 1.451l-.028.53c-.01.201-.024.394-.034.578l-.777-.111-.165 1.783a19.372 19.372 0 001.073 8.359c.266.733.471 1.34.517 1.556.143.705 0 5.787 0 5.787s.858 6.629 4.863 5.358c1.802-.572 2.678-2.312 3.096-4.057a10.05 10.05 0 00-.496-6.059c-.568-1.428-1.15-3.429-.74-4.977.715-2.679.715-6.488.715-6.488l-.442-.062c.11-.209.21-.424.298-.643 0 0-.144-9.733 1.143-11.001.708-.699.644-2.377.43-3.749a25.62 25.62 0 01-.215-6.001c.088-1.031.214-1.93.362-2.249.378-.745.756-8.264-.916-11.882l.343-.107-.053-.266.053-.017c.253.672.539 1.331.859 1.974a.786.786 0 00.285.141c4.632-.812 4.818-5.13 4.561-7.488.195.094.303.154.303.154l.428-6.216c.44-.992.603-2.259.593-3.628.019-4.895-2.332-11.317-2.332-11.317zM61 71.74c-.318-2.707-.758-5.255-.758-5.255l-2.145-7.617v-2.774l3.403 12.689-.5 2.957z" fill="url(#paint0_linear)"/><path d="M51.355 113.349l-.159 1.742a19.16 19.16 0 001.04 8.177c.256.718.456 1.309.499 1.522.137.69 0 5.651 0 5.651s.828 6.48 4.691 5.239c1.738-.558 2.575-2.262 2.987-3.965a9.945 9.945 0 00-.48-5.92c-.55-1.396-1.112-3.357-.715-4.863.69-2.619.69-6.34.69-6.34l-8.553-1.243z" fill="#5A5773"/><path d="M47.217 83.436s5.38 13.096 5.104 17.918c-.277 4.823-.07 1.034 0 .414.122-1.104 0 12.003-.414 13.503 0 0 5.657 4.134 7.864-1.378 0 0-.137-9.51 1.103-10.751.682-.682.616-2.323.414-3.663a25.361 25.361 0 01-.214-5.858c.083-1.007.2-1.894.35-2.196.413-.828.827-10.2-1.657-12.82l-12.55 4.831z" fill="#605D82"/><path opacity=".1" d="M52.597 115.278c.414-1.516.537-14.613.414-13.503-.068.619-.276 4.411 0-.414.277-4.824-5.103-17.918-5.103-17.918l12.037-4.625a3.141 3.141 0 00-.172-.2L47.22 83.444s5.38 13.096 5.104 17.918c-.277 4.823-.069 1.033 0 .414.122-1.104 0 12.002-.414 13.503 0 0 2.259 1.65 4.48 1.474-1.977-.148-3.792-1.474-3.792-1.474z" fill="#000"/><path d="M42.525 125.891l1.93 7.03-.413 4.548s-2.345 6.34 3.173 5.099c5.517-1.241 4-6.34 4-6.34l.138-10.337s-2.208-1.241-3.173-1.101c-.965.139-5.655 1.101-5.655 1.101z" fill="#5A5773"/><path d="M33.006 80.129s6.346 20.537 4.83 23.707c0 0 1.516 3.033 1.241 5.787-.274 2.754 4.416 17.504 4.416 17.504l6.899-1.241s-1.656-4.134-1.656-6.753c0-2.619-1.794-13.932-1.794-13.932s-1.517-20.676.277-22.882l-14.213-2.19z" fill="#605D82"/><g opacity=".1" fill="#000"><path opacity=".1" d="M46.683 84c-1.144 4.681.12 21.907.12 21.907s1.793 11.301 1.793 13.931c0 2 .964 4.88 1.42 6.132l.374-.066s-1.656-4.135-1.656-6.754c0-2.619-1.794-13.931-1.794-13.931S45.786 89.476 46.683 84zM37.835 103.835l.035.071c.01-.071.021-.146.027-.214a1.403 1.403 0 01-.062.143zM46.906 82.997a2.03 2.03 0 01.31-.663l-14.21-2.205s.084.268.227.746l13.673 2.122z"/></g><path d="M66.117 72.686s2.07 7.715-4.138 8.821a.756.756 0 01-.277-.137s-3.587-7.03-.828-9.786l5.243 1.102zM40.732 21.416s.414 5.787-4.139 8.545c-4.552 2.759 9.654 10.337 9.654 10.337l7.451-11.854s-3.17.41-5.102-5.099l-7.864-1.929z" fill="#A1616A"/><path opacity=".1" d="M37.696 30.37s7.037 14.611 13.382.828l9.796 48.516S45.696 84.4 45.561 86.606c-.136 2.206-15.312-5.65-15.312-5.65s3.31-6.065 2.485-9.785c-.826-3.721 4.962-40.8 4.962-40.8z" fill="#000"/><path d="M37.696 30.094s7.037 14.61 13.382.827l9.796 48.518s-15.178 4.687-15.313 6.893c-.136 2.205-15.312-5.652-15.312-5.652s3.31-6.066 2.485-9.786c-.826-3.721 4.962-40.8 4.962-40.8z" fill="#E1E7EF"/><path d="M44.595 129.751s-1.793-3.998 2.345-3.998 3.45 3.584 3.45 3.584l-5.795.414zM53.977 119.412s-1.656-4.274 2.484-4.411c4.14-.137 2.07 3.858 2.07 3.858l-4.554.553z" fill="#5A5773"/><path opacity=".1" d="M50.459 26.988s4.206 2.144 5.725 1.86c1.52-.282 5.518 2.343 5.244 7.581l2.492 7.815a31.888 31.888 0 011.502 9.69s3.587 9.923 1.657 14.334l-.415 6.066s-3.173-1.792-6.485-1.241l.835-4.953-3.733-14.063-6.209-15.024-.614-12.065z" fill="#000"/><path d="M50.459 26.716s4.206 2.143 5.725 1.86c1.52-.283 5.518 2.343 5.244 7.581l2.492 7.815a31.888 31.888 0 011.502 9.69s3.587 9.923 1.657 14.334l-.415 6.065s-3.173-1.792-6.485-1.24l.828-4.962L57.281 53.8l-6.203-15.025-.62-12.06z" fill="#67647E"/><path opacity=".1" d="M57.427 43.464V59.04l2.07 7.443s1.38 8.132.965 10.614c-.414 2.482-7.037 3.033-8.83.964-1.793-2.068-.828-19.718-.828-19.718l-.346-25.838.277-.827 6.692 11.786z" fill="#000"/><path d="M57.71 42.776v15.575l2.07 7.444s1.38 8.132.965 10.614c-.414 2.482-7.036 3.033-8.83.964-1.793-2.068-.828-19.718-.828-19.718l-.345-25.844 6.968 10.965z" fill="#67647E"/><path opacity=".1" d="M29.902 55.733l4.415 13.717-2.07 5.857s9.795 10.337 16.004 5.376c0 0 .69-21.09-.69-26.052-1.382-4.962-8.003-21.647-8.003-21.647l-1.37-4.405-7.312 4.135-.974 23.019z" fill="#000"/><path d="M29.556 55.042v13.503s.277 2.896-.69 4.825c-.968 1.929 3.035 1.24 3.035 1.24s9.796 10.338 16.004 5.376c0 0 .691-21.09-.69-26.052-1.382-4.962-8.003-21.647-8.003-21.647l-1.379-4.411-7.311 4.134-.966 23.032z" fill="#67647E"/><path opacity=".1" d="M40.249 25.477s-4.207 3.101-9.036 2.411c-4.83-.69-7.588 20.677-7.588 20.677s-1.794 11.027 4 10.063l12.832-4.274s-2.76-2.896-2.345-6.617l-6.21 2.48.278-11.852 8.069-12.888z" fill="#000"/><path opacity=".1" d="M23.9 48.288s-1.794 11.028 4 10.063l12.831-4.274s-2.758-2.893-2.344-6.616l-6.207 2.482-8.28-1.655z" fill="#000"/><path d="M38.082 48.914s4.306-5.656 7.477-2.94c3.17 2.715-6.34 7.692-6.34 7.692l-1.137-4.752z" fill="#A1616A"/><path d="M40.249 25.2s-4.207 3.102-9.036 2.412c-4.83-.69-7.588 20.676-7.588 20.676s-1.794 11.028 4 10.063l12.832-4.274s-2.76-2.895-2.345-6.616l-6.21 2.482.278-11.855 7.037-5.787 1.032-7.1z" fill="#67647E"/><path opacity=".1" d="M48.733 23.615l-7.864-1.929s.41.463-.069 2.274c1.266 1.451 2.821 3.378 4.898 3.378a6.87 6.87 0 004.123-1.365 12.386 12.386 0 01-1.087-2.358z" fill="#000"/><path d="M45.56 27.063c3.811 0 6.9-3.086 6.9-6.893a6.896 6.896 0 00-6.9-6.893c-3.81 0-6.899 3.086-6.899 6.893a6.896 6.896 0 006.9 6.893z" fill="#A1616A"/><path opacity=".1" d="M48.176 17.178c1.6-.272 3.36-.981 3.896-2.512.343-.98.081-2.094-.479-2.966-.56-.872-1.383-1.543-2.233-2.143-1.38-.97-2.9-1.8-4.56-2.092a1.875 1.875 0 00-.872 0 3.596 3.596 0 00-.706.386c-1.135.653-2.546.37-3.861.302-1.315-.069-2.892.302-3.306 1.543-.129.384-.12.797-.215 1.192-.214.964-.942 1.714-1.502 2.518-.56.804-.99 1.89-.519 2.756.161.294.43.564.43.898a2.784 2.784 0 01-.215.688c-.195.712.373 1.43 1.03 1.769.656.338 1.411.443 2.08.758a3.645 3.645 0 012.032 3.374c.61.07 1.32.107 1.731-.347.185-.204.275-.476.442-.693.215-.283.55-.45.824-.677 1.444-1.185.419-2.823 1.236-4.1.429-.658 1.111-.457 1.802-.446.993.023 1.985-.046 2.965-.208z" fill="#000"/><path d="M48.038 17.041c1.6-.272 3.36-.982 3.896-2.512.344-.98.082-2.094-.478-2.966-.56-.873-1.384-1.543-2.233-2.143-1.38-.97-2.9-1.8-4.561-2.092a1.874 1.874 0 00-.871 0 3.597 3.597 0 00-.706.385c-1.135.654-2.547.371-3.862.303-1.315-.069-2.892.302-3.306 1.543-.129.383-.12.797-.214 1.192-.215.964-.942 1.714-1.502 2.518-.56.804-.991 1.89-.52 2.756.162.294.43.564.43.898a2.782 2.782 0 01-.215.688c-.195.712.374 1.43 1.03 1.768.657.34 1.412.444 2.081.76a3.645 3.645 0 012.038 3.381c.61.071 1.32.107 1.731-.347.185-.204.275-.476.442-.692.215-.283.55-.45.824-.678 1.444-1.185.419-2.822 1.236-4.1.429-.658 1.111-.456 1.802-.445.99.02 1.981-.053 2.958-.217z" fill="#4A4347"/><path opacity=".1" d="M56.39 40.226s1.517 7.857.828 10.89c-.42 1.764-.358 3.609.18 5.34M31.871 43.532s-.66 5.239.44 6.34l-.44-6.34z" fill="#000"/><path d="M70.395 108.087a.323.323 0 00.322-.322.32.32 0 00-.322-.321.323.323 0 00-.322.321.323.323 0 00.322.322z" fill="#000"/><path opacity=".5" d="M169.482 70.633v-.178l-58.534-44.967a.212.212 0 00-.255 0L52.158 70.455v69.7h.111v.111h117.327v-69.7l-.114.067z" fill="url(#paint1_linear)"/><path d="M167.461 138.211H54.187v-67.3l56.637-43.509 56.637 43.51v67.299z" fill="#fff"/><path d="M163.385 134.222H58.263V71.766l52.561-40.377 52.561 40.377v62.456z" fill="#E0E0E0"/><path d="M128.655 30.455L64.531 47.25l21.38 81.478 64.125-16.794-21.381-81.479z" fill="#7F54B3"/><path d="M144.291 42.834h-66.29v84.232h66.29V42.834z" fill="#F5F5F5"/><path opacity=".05" d="M54.723 71.019l56.637 33.649-56.637 33.65v-67.3z" fill="#000"/><path d="M54.294 71.019l56.637 33.649-56.637 33.65v-67.3z" fill="#fff"/><path opacity=".05" d="M167.139 71.019l-56.637 33.649 56.637 33.65v-67.3z" fill="#000"/><path d="M167.568 71.019l-56.637 33.649 56.637 33.65v-67.3z" fill="#fff"/><path opacity=".05" d="M54.294 137.247l56.637-44.152 56.637 44.152H54.294z" fill="#000"/><path d="M54.294 138.318l56.637-44.152 56.637 44.152H54.294z" fill="#fff"/><path d="M65.804 143.43s-2.845-9.645.534-16.748a15.224 15.224 0 001.234-9.559 25.601 25.601 0 00-1.354-4.486" stroke="#535461" stroke-width="2" stroke-miterlimit="10"/><path d="M68.319 108.149c0 1.183-2.146 4.61-2.146 4.61s-2.145-3.429-2.145-4.61a2.143 2.143 0 012.145-2.144 2.147 2.147 0 012.145 2.144zM71.87 114.699c-.645.992-4.309 2.707-4.309 2.707s.067-4.042.71-5.035a2.145 2.145 0 013.598 2.328zM71.706 125.889c-1.058.531-5.087.165-5.087.165s2.1-3.455 3.156-3.987a2.154 2.154 0 012.43.232 2.14 2.14 0 01.198 3.089 2.144 2.144 0 01-.697.503v-.002zM69.68 134.331c-.952.703-4.985 1.02-4.985 1.02s1.484-3.759 2.437-4.462a2.148 2.148 0 012.915.508 2.142 2.142 0 01-.366 2.934zM63.054 117.633c.858.823 4.803 1.678 4.803 1.678s-.967-3.924-1.817-4.747a2.146 2.146 0 00-3.566 1.586 2.142 2.142 0 00.58 1.485v-.002zM60.81 127.537c1.057.532 5.086.165 5.086.165s-2.1-3.455-3.155-3.987a2.15 2.15 0 00-2.8.988 2.141 2.141 0 00.869 2.836v-.002zM59.952 137.46c.952.703 4.985 1.021 4.985 1.021s-1.484-3.76-2.437-4.463a2.151 2.151 0 00-2.44-.191 2.158 2.158 0 00-1.006 1.358 2.138 2.138 0 00.898 2.275z" fill="#7F54B3"/><path opacity=".5" d="M108.464 46.692H81.862v2.143h26.602v-2.143zM139.357 55.265H81.862v2.143h57.495v-2.143zM139.357 60.838H81.862v2.143h57.495v-2.143z" fill="#7F54B3"/><path opacity=".4" d="M139.357 66.41H81.862v2.144h57.495V66.41zM139.357 71.983H81.862v2.143h57.495v-2.143z" fill="#7F54B3"/><path opacity=".3" d="M114.686 77.556H81.862v2.143h32.824v-2.143zM126.7 83.128H81.862v2.143H126.7v-2.143z" fill="#7F54B3"/></g><defs><linearGradient id="paint0_linear" x1="22.5" y1="75.911" x2="68.415" y2="75.911" gradientUnits="userSpaceOnUse"><stop stop-color="gray" stop-opacity=".25"/><stop offset=".54" stop-color="gray" stop-opacity=".12"/><stop offset="1" stop-color="gray" stop-opacity=".1"/></linearGradient><linearGradient id="paint1_linear" x1="74840.3" y1="85055.4" x2="74840.3" y2="23540.6" gradientUnits="userSpaceOnUse"><stop stop-color="gray" stop-opacity=".25"/><stop offset=".54" stop-color="gray" stop-opacity=".12"/><stop offset="1" stop-color="gray" stop-opacity=".1"/></linearGradient><clipPath id="clip0"><path fill="#fff" d="M0 0h206v156H0z"/></clipPath></defs></svg>
