<svg viewBox="0 0 1562 860" xmlns="http://www.w3.org/2000/svg"><path d="m1035.7 789.9h-590.8v-415c.2-62.1 50.6-112.4 112.8-112.3h356.5c67 0 121.4 54.2 121.6 121.3v406z" fill="#dcdcde"/><path d="m1032.9 214.1-254.9 78.8s-21-28.6 3.5-85.5 114.7-112.6 206.4-128.3c40.4-5.6 81.1-8.6 121.9-9 55.9-1.3 98.6 52.5 88.8 111.1-5.1 29.5-16.2 57.6-32.7 82.6" fill="#c3c4c7"/><circle cx="744.1" cy="553.6" fill="#008710" r="147.8"/><path d="m596.3 467.3h295.5v86.3h-295.5z" fill="#008710"/><circle cx="744.1" cy="469.7" fill="#2fb41f" r="147.8"/><path d="m686.9 482.5c14.9 13.5 29.4 27.4 43.8 41.4l-9 .5c14.3-18.9 28.5-38.1 43.3-56.7s29.5-37.4 44.8-55.5c1.7-1.7 4.5-1.7 6.2.1 1.4 1.4 1.6 3.5.7 5.2-13.4 19.5-27.6 38.8-42 57.8s-29 37.7-43.7 56.6c-2 2.6-5.8 3.1-8.4 1.1l-.6-.6c-14-14.4-27.8-29-41.4-43.8-1.7-1.7-1.7-4.5 0-6.2 1.8-1.7 4.6-1.7 6.3.1z" fill="#fff"/><path d="m985.9 175c-186.3 32.8-284.3 207.8-247.8 217.9s110.6-129 218.6-139.1c83.4-7.9 69.4 29.8 21.6 50.8-70.9 31.2-83.2 59.2-72.4 78.8s142-19.3 221.8-78.8c29.1-22.5 50.5-53.5 61.2-88.6" fill="#c3c4c7"/><path d="m986.7 179.2c-49.4 9.2-96.3 28.9-137.4 57.7-20.6 14.2-39.7 30.4-57 48.4-17.4 17.8-32.3 37.9-44.3 59.7-6 10.2-10 21.6-11.7 33.3-.2 2.3.1 4.6.8 6.7.5 1.3 1.6 2.2 3 2.4 4.8.4 9.7-.8 13.7-3.6 10.1-6.9 19.6-14.7 28.1-23.5l26.9-26.9c18.1-18.2 37.7-35 58.4-50.2 21.2-15.6 45.2-26.8 70.7-33.2 12.9-2.7 26.1-4 39.3-3.9 6.7-.1 13.4.4 20.1 1.5 7.9.9 15.3 4.2 21.2 9.6 3.4 3.7 5.1 8.7 4.7 13.7-.5 4.2-2 8.2-4.5 11.7-4.1 5.8-9.2 10.9-15.1 14.9-10.9 7.2-22.5 13.2-34.7 17.9-11.2 5.2-22 11.2-32.3 17.9-10 6.3-18.4 14.7-24.7 24.6-2.6 4.4-3.7 9.5-3 14.6.4 2.5 1.1 4.8 2.3 7 0 0 1.3 1.2 3.8 1.7 11.9 1 23.8-.1 35.3-3 24.5-5.5 48.5-13.1 71.7-22.8 23.3-9.4 45.9-20.4 67.7-32.9 22-11.8 42-26.9 59.2-44.8 16.5-18.4 28.9-40.2 36.5-63.7 1-2.2 3.6-3.2 5.8-2.3 1.9.8 2.9 2.8 2.6 4.9-7.6 25.3-20.5 48.7-37.9 68.6-8.6 9.8-18.3 18.6-28.9 26.4-10.4 7.6-21.1 14.7-32.2 21.2-22.2 12.9-45.2 24.3-68.9 34.1-23.7 10-48.3 17.9-73.3 23.8-6.4 1.4-12.8 2.5-19.3 3.2-6.9 1-14 1-20.9 0-2.1-.4-4.1-1-6-2-2.5-1.2-4.6-3.3-5.9-5.7-1.9-3.5-3.1-7.3-3.7-11.3-1-7.6.5-15.4 4.3-22.1 7.2-11.7 16.9-21.6 28.4-29 10.8-7.3 22.1-13.8 33.9-19.4 11.4-4.6 22.3-10.4 32.5-17.2 4.6-3.2 8.6-7.1 11.9-11.7 1.2-1.7 2-3.7 2.3-5.8.2-1.4-.3-2.8-1.3-3.8-3.9-3.1-8.6-5-13.5-5.6-5.9-.9-11.9-1.4-17.9-1.4-12.2 0-24.4 1.2-36.4 3.6-23.8 5.9-46.2 16.4-65.9 30.9-20.3 14.7-39.4 31-57.2 48.7l-26.9 27c-9.2 9.4-19.4 17.7-30.4 24.9-6.4 4.6-14.4 6.5-22.2 5.5-4.9-1-9.1-4.4-11.1-9-1.5-3.8-2.1-7.9-1.7-12 1.8-13.5 6.2-26.4 13.1-38.1 12.6-22.7 28.2-43.5 46.4-62 17.9-18.6 37.6-35.2 59-49.7 42.6-29.1 91-48.8 141.9-57.5 2.3-.4 4.6 1.1 5 3.5v.1c.1 2.4-1.8 4.3-4.3 4.4zm-14.5-41c-18.9 4.2-37.3 10.1-55.2 17.4-17.8 7.3-35.1 16-51.5 26s-31.8 21.5-46.2 34.3c-14.4 12.6-27 27.1-37.4 43.2-1.2 2-3.9 2.6-5.9 1.4 0 0-.1 0-.1-.1-1.9-1.2-2.5-3.7-1.5-5.6 9.5-17.9 21.9-34.1 36.7-48 14.6-13.8 30.6-26 47.8-36.4 17.1-10.4 35.1-19.1 53.8-26 18.8-7 38.2-12 58-14.9 2.3-.4 4.5 1.2 4.9 3.6v.1c.3 2.3-1.2 4.5-3.4 5zm-194.4 67.1c8.7-15.6 20.1-29.6 33.6-41.3 13-11.8 26.9-22.5 41.6-32.2 14.4-9.6 29.4-18.5 44.8-26.4 15.6-7.9 31.6-14.8 48-20.7 2.2-.8 4.7.3 5.5 2.6v.1c.7 2.1-.3 4.4-2.2 5.4-15.4 7.4-30.7 15.1-45.6 23.5-14.9 8.3-29.1 16.8-43.4 26.4-14.3 9.2-27.9 19.4-41 30.3-12.9 10.6-24.3 22.9-33.7 36.7-1.2 2.1-3.9 2.7-5.9 1.5-2.1-1.2-2.7-3.9-1.5-5.9z" fill="#004e6e"/><path d="m0 0h1562v860h-1562z" fill="none"/></svg>
