<svg viewBox="0 0 1600 1168" xmlns="http://www.w3.org/2000/svg"><path d="m1234.21 618.37v419.12a75.35 75.35 0 0 1 -75.35 75.36h-718.21a75.36 75.36 0 0 1 -75.36-75.36v-419.12" fill="#c3c4c7"/><path d="m399 392.18v-303.75h667.77v476.8" fill="#fff"/><path d="m396.59 392.18c-2.95-50.56-4.79-101.25-6.26-151.81s-2-101.25-3.07-151.94a11.41 11.41 0 0 1 10.52-12.24h.77l167.4-1h166.91l333.95.86a12.27 12.27 0 0 1 12.27 12.28l-2.21 238.46c-1.35 79.41-2.7 159.55-5.27 238.34a5 5 0 0 1 -5.16 4.79 4.91 4.91 0 0 1 -4.66-4.79c-2.7-79.41-4-158.93-5.4-238.34l-2.09-238.34 12.27 12.27-333.94 1.48h-166.91l-166.71-1.87 12.27-12.27c-1.59 51.06-1.59 101.62-3.56 152.31s-3.31 101.25-6.25 151.81a2.47 2.47 0 0 1 -2.58 2.34 2.33 2.33 0 0 1 -2.33-2.34z" fill="#c3c4c7"/><path d="m517.72 602.17v-390.4h667.77v400.34" fill="#fff"/><path d="m515.27 602.3c-1.85-32.53-2.95-65-4.3-98.19l-3.07-97.11-1.59-98.18-1.31-97.54a12.27 12.27 0 0 1 12.23-12.28q167.52-1.72 334.31-1.11l333.83 1.6a12.27 12.27 0 0 1 12.27 12.27l-2.46 200.17c-1.35 66.77-2.7 133.41-5.27 200.17a4.78 4.78 0 0 1 -4.9 4.67h-.14a5 5 0 0 1 -4.78-4.67c-2.58-66.76-3.93-133.4-5.28-200.17l-2.09-200.17 12.28 12.29-333.46 1.71q-166.9 0-333.94-1.47l12.27-12.29-1.23 98.18-1.72 98.18-2.82 98.19c-1.35 32.52-2.45 65-4.29 98.18a2.34 2.34 0 0 1 -2.32 2.35h-.26a2.58 2.58 0 1 1 -2-4.78z" fill="#c3c4c7"/><path d="m904 287.86h214.9v226.93" fill="#2fb41f"/><path d="m1275.69 441.52v182.87h-951.88v-182.87" fill="#c3c4c7"/><path d="m962 750.43v49.83a50.07 50.07 0 0 1 -47.49 52.53h-229.88a50.2 50.2 0 0 1 -47.63-52.53v-49.83" fill="#fff"/><path d="m327.61 615.92c19.64-1.84 39.28-2.82 58.91-4.17l59-2.7c39.27-1.72 78.54-2.46 117.94-3.07l117.94-1.35h117.98l236.26 1.72c78.67 1.22 157.33 2.7 235.88 7.11a4.92 4.92 0 0 1 4.67 5.15 5.16 5.16 0 0 1 -4.67 4.66c-78.55 4.3-157.21 5.77-235.88 7l-235.77 2h-117.94l-117.93-1.38c-39.4 0-78.67-1.35-117.94-3.07l-59-2.7c-19.63-1.35-39.27-2.33-58.91-4a2.44 2.44 0 0 1 -2.21-2.67 2.34 2.34 0 0 1 1.67-2.53z" fill="#3895ba"/><path d="m0 0h1600v1168h-1600z" fill="none"/></svg>
