<svg width="46" height="49" viewBox="0 0 46 49" fill="none" xmlns="http://www.w3.org/2000/svg">
<rect width="45.8599" height="48.6087" fill="#fff"/>
<path fill-rule="evenodd" clip-rule="evenodd" d="M22.9299 8.10175C29.8854 8.10175 35.6752 13.3474 36.9745 20.3349C41.9427 20.6995 45.8599 25.0338 45.8599 30.3807C45.8599 35.9707 41.5796 40.5076 36.3057 40.5076H11.465C5.14013 40.5076 0 35.0593 0 28.3554C0 22.097 4.47134 16.9323 10.2229 16.2842C12.6115 11.4233 17.4076 8.10175 22.9299 8.10175ZM26.7517 34.4318V26.3303H32.4842L22.9301 16.2035L13.3759 26.3303H19.1084V34.4318H26.7517Z" fill="#A7AAAD"/>
<mask id="mask0" mask-type="alpha" maskUnits="userSpaceOnUse" x="0" y="8" width="46" height="33">
<path d="M36.9745 20.3349C35.6752 13.3474 29.8854 8.10175 22.9299 8.10175C17.4076 8.10175 12.6115 11.4233 10.2229 16.2842C4.47134 16.9323 0 22.097 0 28.3554C0 35.0593 5.14013 40.5076 11.465 40.5076H36.3057C41.5796 40.5076 45.8599 35.9707 45.8599 30.3807C45.8599 25.0338 41.9427 20.6995 36.9745 20.3349Z" fill="#fff"/>
</mask>
<g mask="url(#mask0)">
<rect width="45.8599" height="48.6087" fill="#D63638"/>
</g>
<path d="M21.0765 14.146H24.8027V25.9406H21.0765V14.146Z" fill="#fff"/>
<path d="M21.0765 29.9142H24.8027V33.8084H21.0765V29.9142Z" fill="#fff"/>
</svg>
