<svg viewBox="0 0 1600 1168" xmlns="http://www.w3.org/2000/svg"><path d="m953.7 160a21.52 21.52 0 0 1 0 5.32c-12.36-29.87-49.68-70.79-162-70.79a187.43 187.43 0 0 0 -137.22 60.47 28.65 28.65 0 0 1 0-5.4c-75.62 50.7-75.48 200.47-75.48 200.47 28 .74 72.51-65.47 96.65-126.12a49.11 49.11 0 0 1 46.57-28h158.48a49.1 49.1 0 0 1 46.89 28.73c22.59 62.12 67.85 136.35 96.33 135.61 0 .01 5.4-149.84-70.22-200.29z" fill="#969ca1"/><rect fill="#204a69" height="67.19" rx="16.94" width="37.65" x="674.95" y="421.68"/><path d="m811.54 424.38a353.2 353.2 0 0 1 3.85 52.38 261.85 261.85 0 0 1 -3.85 52.3 7.91 7.91 0 0 1 -15.55 0 267.91 267.91 0 0 1 -3.76-52.3 364.34 364.34 0 0 1 3.77-52.38 8.18 8.18 0 0 1 15.55 0z" fill="#ccced0"/><rect fill="#204a69" height="67.19" rx="16.94" width="37.65" x="891.01" y="421.68"/><path d="m757.2 586.92a126.16 126.16 0 0 0 22.42 4.75 240.38 240.38 0 0 0 24.55 2 183.07 183.07 0 0 0 24.56-.81 72.77 72.77 0 0 0 21.36-5l1.31-.57a7.77 7.77 0 0 1 8.67 12.52 57.34 57.34 0 0 1 -27.5 14 117.28 117.28 0 0 1 -28.56 3 119 119 0 0 1 -28.24-3.69 64.6 64.6 0 0 1 -26.84-13.5 8.18 8.18 0 0 1 -.57-11 7.68 7.68 0 0 1 8.18-2.21zm104.18-243a41.73 41.73 0 0 1 22-12.27 79.18 79.18 0 0 1 22.34-2.05 82.64 82.64 0 0 1 22.18 3.68 49.79 49.79 0 0 1 20.71 12.12 7.78 7.78 0 0 1 -8.19 12.84l-1.47-.49a107.89 107.89 0 0 0 -34.21-5.07c-6.06 0-12.11 0-17.93.49a115.56 115.56 0 0 0 -15.38 2.21l-3.28.65a7.43 7.43 0 0 1 -8.83-5.72 7.61 7.61 0 0 1 2.06-6.38zm-131.52 11.55a117.13 117.13 0 0 0 -15.39-2.21q-8.94-.67-17.92-.49a108.17 108.17 0 0 0 -34.21 5.07l-1 .41a8.18 8.18 0 0 1 -8.18-12.85 50 50 0 0 1 20.46-12.19 84 84 0 0 1 22.26-3.68 79.58 79.58 0 0 1 22.34 2 40.91 40.91 0 0 1 21.93 12.28 7.27 7.27 0 0 1 -.37 10.29 1.8 1.8 0 0 1 -.2.19 7.62 7.62 0 0 1 -6.46 1.8z" fill="#204a69"/><path d="m1025.88 400.65a931.8 931.8 0 0 1 -13.83 107.21 428.22 428.22 0 0 1 -33.23 103.61 203.83 203.83 0 0 1 -71.28 84.63 176.2 176.2 0 0 1 -51.54 22.67 200.34 200.34 0 0 1 -27.34 5.65 161.55 161.55 0 0 1 -28.15 1.63 233 233 0 0 1 -107.38-29.13 222.2 222.2 0 0 1 -80.77-77.26 292.63 292.63 0 0 1 -38.55-103.94 413 413 0 0 1 -6-54.67c-1.06-18.17-1.06-36.26-1.06-54.18a565.73 565.73 0 0 1 12.11-108.87 364.07 364.07 0 0 1 37.65-103.37 236.71 236.71 0 0 1 74.07-82.41 197.56 197.56 0 0 1 50.74-24.56 195.16 195.16 0 0 1 55.73-8.18 202.5 202.5 0 0 1 106.4 31.67 244.9 244.9 0 0 1 77.34 78.41 300.86 300.86 0 0 1 39.37 102.14 402.33 402.33 0 0 1 5.72 108.95zm-15.55-1.23a382 382 0 0 0 -5.89-104.51 285.21 285.21 0 0 0 -37.89-96.58 223.5 223.5 0 0 0 -72.43-72.33 185 185 0 0 0 -97.07-27.75 171.73 171.73 0 0 0 -49.92 8.19 177.21 177.21 0 0 0 -45.34 22.18 216.26 216.26 0 0 0 -66.7 76.44 354.41 354.41 0 0 0 -34.46 97.72 541.67 541.67 0 0 0 -10.88 104.1c-.41 17.59 0 35.19 1.06 52.79a404.16 404.16 0 0 0 5.89 51.8 269.57 269.57 0 0 0 34.87 96.09 203 203 0 0 0 72 70.3 213.3 213.3 0 0 0 97.15 28 175.15 175.15 0 0 0 96.82-25.21 186 186 0 0 0 66.12-76.44 404.88 404.88 0 0 0 32.74-99.68 882.77 882.77 0 0 0 13.93-105.11z" fill="#969ca1"/><path d="m912.7 576.53a38.81 38.81 0 0 1 3.84 16.77 30 30 0 0 1 -3.84 16.37 9.08 9.08 0 0 1 -12.44 3.11 9.25 9.25 0 0 1 -3.11-3.11 29.25 29.25 0 0 1 -3.77-16.37 38.78 38.78 0 0 1 3.77-16.77 8.67 8.67 0 0 1 11.64-3.88h.06a8.22 8.22 0 0 1 3.85 3.88z" fill="#ccced0"/><path d="m272.12 1168c0-152.23 234-286.45 297-319.92 0 0 118.92 92.64 227.28 92.64s197.89-86 197.89-86 249.7 81.84 333.59 313h-1055.76" fill="#46799a"/><path d="m829.38 901.28-13-31.92-6.48-16.36a76.12 76.12 0 0 0 -3-7 45.16 45.16 0 0 0 -3.68-6 43.16 43.16 0 0 0 -22.67-15.72l-32.33-11.13c-43.78-13.5-87.65-26.76-130.94-41.41l12.65-4.74c-4.83 7.21-9.82 14.33-14.73 21.45s-10.07 14.4-15.71 21.28a8.19 8.19 0 0 1 -13.18-8.19c3.69-8.21 7.69-15.54 11.79-23.27s8.18-15.22 12.68-22.75a10.55 10.55 0 0 1 12.44-4.91h.78c44.11 13 87.82 27.33 131.6 41.49 10.89 3.68 21.69 8.18 32.74 12.28a64.53 64.53 0 0 1 31.67 24.55 71.1 71.1 0 0 1 5 8.84 78.48 78.48 0 0 1 3.36 8.92l5.4 16.37 10.64 32.73a7.78 7.78 0 0 1 -14.57 5.32zm5.4-99.36c18.83-9.82 38.06-18.91 57.29-27.5s38.88-16.86 58.6-24.55a11.14 11.14 0 0 1 14.08 5.56c8.67 18.34 16.86 36.91 24.55 56a8.18 8.18 0 0 1 -13.91 7q-16.33-25.77-30.53-52.79l14.49 5.32q-29.15 12.93-58.68 24.55c-19.65 7.21-39.29 14.41-59.91 20.63a7.71 7.71 0 0 1 -9.7-4.94v-.14a8.18 8.18 0 0 1 3.72-9.14z" fill="#ccced0"/><path d="m917.69 672.86a38.82 38.82 0 0 1 7.12 14.89 51.55 51.55 0 0 1 1.55 14.9 72.49 72.49 0 0 1 -2.12 15.22 51.37 51.37 0 0 1 -6.55 14.89 3.66 3.66 0 0 1 -5.89 0 51.37 51.37 0 0 1 -6.55-14.89 72.92 72.92 0 0 1 -2.13-15 51.53 51.53 0 0 1 1.56-14.87 38.65 38.65 0 0 1 7.12-14.9 3.69 3.69 0 0 1 5.17-.63l.06.06z" fill="#969ca1"/><path d="m0 0h1600v1168h-1600z" fill="none"/></svg>