<svg viewBox="0 0 1459 693.5" xmlns="http://www.w3.org/2000/svg"><path d="m319.8 119.5v-73.3c.2-25.5 20.9-46.1 46.4-46.2h683.1c25.5.1 46.1 20.7 46.2 46.2v73.3z" fill="#c3c4c7"/><path d="m320 678v-558.5h775.5v561.3l-580.5-9" fill="#dcdcde"/><path d="m1026.2 601.3h-226.6v-406.9h226.6" fill="#fff"/><path d="m938.3 360.7h-84.4v-78.4c.2-19.8 16.2-35.7 36-35.9h85.6v77c.4 20.1-15.6 36.8-35.7 37.2-.6.1-1.1.1-1.5.1z" fill="#bedae6"/><path d="m974.3 540.5h-120.5v-138.1h121.7v136.4c.5 1.1-.1 1.7-1.2 1.7z" fill="#8e9196" opacity=".26"/><path d="m720.7 604.7h-329.2v-289.7h362.4v289.7m-33.2-340.9h-329.2v-69.4h362.4v69.4" fill="#fff"/><path d="m621.5 468.3h-81.7c-.1 45.1 36.4 81.8 81.5 81.9s81.8-36.4 81.9-81.5-36.4-81.8-81.5-81.9h-1.9z" fill="#2fb41f" opacity=".83"/><path d="m582.1 444.1v-81.7c-45.1 0-81.7 36.6-81.7 81.7z" fill="#98c6d9" opacity=".26"/><path d="m1127.6 117.2-833.5 4" fill="none"/><path d="m1127.6 118.4c-69.3 5.1-138.7 5.1-208.5 5.6l-208.5 1.7-208.5.5c-69.3 0-139.2.6-208.6-3.4v-2.8c69.3-5.1 138.7-5.1 208.6-5.6l208.5-1.7 208.5-.5c69.3 0 139.2-.6 208.5 3.4z" fill="#004e6e"/><path d="m1431.9 681c-26.9-.6-55.7-1.1-85.6-1.4v8.5c30.1-.4 58.8-1 85.6-1.4 1.5-.2 2.6-1.5 2.4-3-.1-1.3-1.1-2.3-2.4-2.4z" fill="#f6f7f7"/><path d="m1373.6 414.2c10-1.3 19.9-2 29.8-2.2 10-.3 19.9-.3 29.9-.5l-3.4 4.2c-2.3-11.2-6.2-22-11.5-32-5.3-9.5-13.7-18.3-24-18.7s-19.7 7.2-26.8 15.6c-7.1 9-13 18.8-17.6 29.4-9.2 21.4-16 43.7-20.5 66.5-5 22.8-8.5 46-11.4 69.1 0 .6-.6 1.1-1.2 1.1h-.1c-.7-.1-1.1-.7-1.1-1.3v-.1c1.5-23.5 4.3-46.9 8.6-70 4.2-23.3 11-46 20.1-67.9 4.7-11 10.8-21.4 18.2-30.8 3.9-4.9 8.5-9.1 13.7-12.6 5.5-3.7 11.9-5.7 18.5-5.7 6.7.4 13 3 18 7.5 4.7 4.2 8.7 9.1 11.7 14.7 5.7 10.7 9.8 22.1 12 34 .3 1.8-.8 3.6-2.6 4h-.8c-10-.2-19.9 0-29.8-.5-10-.5-19.9-1-29.9-2.2-.4 0-.6-.4-.6-.7.4-.5.6-.8.8-.9zm-16.1-56.3c-32.2 1.7-64.4 2.1-96.6 2.5l-48.3.2h-24.2c-3.7-.1-7.5 0-11.2.4-3.4 1-6.5 2.7-9.2 5-11.6 9.6-20.1 23.7-27.4 37.7-7.1 14.2-13.1 29-17.9 44.1-9.9 30.4-15.6 62-16.9 94 0 .7-.6 1.2-1.3 1.3-.7 0-1.2-.6-1.3-1.3-.6-32.5 4-64.8 13.7-95.8 4.7-15.6 10.7-30.8 17.9-45.4 3.6-7.3 7.8-14.4 12.3-21.2 4.6-7 10.1-13.4 16.5-18.8 3.5-2.9 7.5-5 11.8-6.2 2.3-.5 4.6-.6 6.8-.5h30l48.2.2c32.2.4 64.3.8 96.5 2.5.3 0 .6.3.6.6 0 .4 0 .7-.5.7z" fill="#c3c4c7"/><path d="m264.8 491.7c12.7-57 50.5-92.7 92.7-128.7m-130.7 130.6c2-149.2-57.5-231.9-128.9-275.7" fill="#fff"/><path d="m226.4 493.6c-1.1-26.5-3.6-52.9-7.7-79.1-4.1-26.1-11.4-51.6-21.7-76-10-24.4-23.7-47.1-40.5-67.4-17.2-20.1-37.1-37.7-59.1-52.4-.5-.3-.6-1-.3-1.5 0 0 0-.1.1-.1.3-.5.9-.6 1.4-.4 23.3 13.4 44.2 30.6 61.9 50.8 17.6 20.5 31.8 43.6 42.2 68.5 10.2 24.8 17.4 50.7 21.4 77.3 3.8 26.5 4.9 53.3 3.4 80 0 .3-.3.5-.6.5-.4.1-.5.1-.5-.2z" fill="#c3c4c7"/><path d="m1014.7 676.6c-114.4-.7-204.5-.8-318.9-1.2l-316.7.8c-31.7.3-66.9.6-103.6.9-.2.8-.9 1.5-1.7 1.5-7.7 1.5-14 6-21.9 5.8-2.8-.1-5.6-.3-8.4-.7-9.1.2-17.1-4.7-26.1-4.7-.9 0-1.7-.5-2-1.4-67.2.8-135.2 2-192 3.9-.7 0-1.2.6-1.3 1.3 0 .7.5 1.3 1.2 1.4 105.6 3.7 249.9 4.4 355.5 5.3l316.7.9c114.1-.4 205 0 319-.8-.4-4.4 0-8.7 0-13z" fill="#f6f7f7"/><path d="m334.6 358.2 3.4-61.6s71.9-13.7 78.7 47.9c4.5 40.3-13.3 69-51.3 92.4-44.5 27.4-75.3 27.4-89.3-.8-11.3-22.6-10-88.2 41.4-125.9 11.6 32.3 17.1 48 17.1 48zm830.7 191.9s-146.1-20.5-149.5 140.3c130.1-3.4 167.7-10.3 167.7-10.3z" fill="#fff"/><path d="m1298.8 418.9c-9.1 1.5-18.2 2.4-27.4 2.5-9.1.3-18.2.5-27.4.4-18.2-.4-36.5-.2-54.8-2.3-.7-.1-1.2-.7-1.1-1.4.1-.6.5-1 1.1-1.1 18.2-2.1 36.5-1.9 54.8-2.3 9.1 0 18.2 0 27.4.4 9.2.2 18.3 1 27.4 2.5.3.1.6.4.5.7v.1c-.1.3-.3.5-.5.5zm-20.1 46.6c-4.5 1.5-9.2 2.3-14 2.5-4.7.3-9.3.5-14 .4s-9.3-.3-14-.5-9.4-.8-14-1.8c-.7-.2-1.1-.9-1-1.6.1-.5.5-.9 1-1 4.6-1 9.3-1.6 14-1.8s9.3-.4 14-.5 9.3 0 14 .4c4.8.2 9.4 1 14 2.5.3.1.5.4.4.8v.1c0 .3-.2.5-.4.5zm76.5 19.9c-2.1-2.6-5.3-4-8.6-3.8-2.6 0-5.2.3-7.8.9-.2 0-.4.2-.5.4-.1.3.1.6.4.8 2.4.9 5 1.5 7.2 2.1s3.9 1.6 4.2 2.8c.6 1.8.9 3.7.7 5.6-.2 2.4-.4 4.7-.9 7.1-1.4 9.9-2.5 19.9-3.4 29.8-.4 3.4-.8 7.3-1.1 10.9l-102 .2h-51.7c-17.3.2-34.2-.3-51.8.7-35.5 2.3-68.6 18.6-92.1 45.2-11.7 13.1-20.7 28.5-26.4 45.1-1.5 4.1-2.7 8.2-3.6 12.5-1.1 4.2-1.9 8.5-2.4 12.8-.3 2.2-.7 4.3-.9 6.5l-.3 6.5-.3 6.5c0 2.3.2 4.7.4 6.8h.5c54.4.9 109.5 1.7 164.9 2.1s111 .6 166.6.8c1.9 0 3.4-1.5 3.4-3.4v-129c1.1-7.9 2-15.8 3-23.7 1.4-9.9 2.6-19.8 3.7-29.6.3-2.6.5-5.2.5-7.9.3-3.1-.4-6.2-2-8.8zm-338.7 198.5v-.5c.2-1.9.4-3.7.4-5.6l.4-6.4.4-6.4c.2-2.2.7-4.2 1-6.3.5-4.2 1.4-8.4 2.6-12.5 1-4.1 2.2-8.2 3.8-12.1 5.9-15.9 14.8-30.6 26.2-43.2 23-25.2 54.9-40.4 89-42.3 34-.5 68.7 0 103.1 0l99.8.2v132.1c-53.7.2-107.2.2-160.9.8-54.8.5-110.1 1.4-165.8 2.2z" fill="#c3c4c7"/><path d="m1048.4 630.6c20.5-1.7 41.1-2.1 61.6-2.5l61.8-.4c41.1.4 82.3.2 123.4 2.3.6 0 1.2.5 1.2 1.1v.2c0 .6-.5 1.1-1.2 1.2-41.1 2.1-82.3 1.9-123.4 2.3l-61.8-.4c-20.5-.4-41.1-.8-61.6-2.5-.4 0-.6-.3-.6-.7.1-.3.3-.6.6-.6zm-826.1-219.6c11.3-9.2 19.5-21.7 23.4-35.7 3.9-13.9 5-28.5 3.4-42.9-3.6-28.8-12.9-56.6-27.4-81.8a211.55 211.55 0 0 0 -57.6-64.1c-11.5-8.6-24.1-15.4-37.7-20.2-13.3-5-27.8-5.7-41.5-2.1-13.3 4.5-24.5 13.7-31.4 26-6.8 11.9-8.1 26.8-6.8 40.8 3 28.6 14.3 56.1 27.8 81.7 13.6 25.7 30.6 49.6 50.3 71 9.8 10.7 20.9 20.1 33.1 28 6 3.9 12.6 6.8 19.5 8.7 6.8 1.9 14.1 1.4 20.5-1.6.5-.3 1.2-.1 1.4.4v.1c.3.5.1 1.2-.5 1.5-6.9 3.5-14.7 4.3-22.2 2.5-7.3-1.7-14.2-4.6-20.5-8.5-12.6-7.8-24.1-17.3-34.2-28.1-20.4-21.3-37.9-45.2-52.1-71.1-7.1-13-13.3-26.4-18.4-40.3-5.3-13.9-8.8-28.5-10.6-43.3-1.3-14.7-.5-30.8 7.5-44.5 7.6-13.6 20-23.9 34.7-28.9 14.9-4.7 30.8-2.6 45.1 2.1 14.1 5 27.4 12.2 39.4 21.2 23.9 17.8 43.9 40.3 58.7 66.2 7 13.1 12.9 26.7 17.7 40.7s7.9 28.6 9.1 43.4c1.4 14.8-.2 29.8-4.7 44-4.6 14.3-13.5 26.7-25.5 35.7-.2.2-.6.2-.8 0-.1-.3 0-.6.2-.9zm198.9-64c-1.1-12.7-5.8-24.8-13.7-34.9-3.8-5.2-8.5-9.6-14-13.1-5.5-3.3-11.6-5.6-17.9-6.8-12.5-2.2-25.3-1.3-37.3 2.6-1.1.3-1.8 1.2-2 2.3l-5 39.2-9.3-33c-.1-.4-.3-.8-.6-1.1-1-1.1-2.7-1.2-3.8-.2-20.5 18.2-35.7 41.7-43.8 67.9-4.1 13-5.9 26.7-5.3 40.4.6 13.6 4.8 26.9 12 38.5.2.2.5.3.8.2.3-.2.4-.5.2-.8-6.7-11.6-10.2-24.7-10.3-38-.2-13.2 1.9-26.4 6.1-39 8.1-23.8 22.1-45.2 40.7-62.1l11.5 41.8c.3 1.1 1.2 1.9 2.3 2.1 1.5.2 2.9-.9 3.1-2.4l6.8-50.7c10.6-3.1 21.8-3.7 32.7-1.6 5.6 1.1 11 3.1 15.9 6 4.8 3.1 9 7 12.3 11.6 7.2 9.1 11.6 20.1 12.6 31.7.8 11.7-1.1 23.4-5.7 34.2-9.6 21.8-24.7 40.7-43.9 54.8-9.5 7.2-20.1 12.9-31.3 16.8-11.2 3.7-23.6 5.4-34.5.9-.6-.2-1.2 0-1.4.6-.3.5-.1 1.1.4 1.4 0 0 .1 0 .1.1 11.5 5.2 24.8 4.2 36.6.6 11.7-3.8 22.8-9.4 32.8-16.7 20.4-14.1 36.5-33.7 46.6-56.4 4.9-11.7 7.1-24.3 6.3-36.9z" fill="#c3c4c7"/><path d="m319.8 497.3s22.4 69.1 18.5 95.1-21.3 77.3-48.5 82.5-37.7-59.9-37.7-59.9l30.8-95.8 30.8-20.5z" fill="#fff"/><g fill="#c3c4c7"><path d="m344.1 529.6-11.5-.6-10.9-37.2c-.5-1.8-2.2-3.1-4.1-3.1l-73.2-.3-73.2.2c-2 0-3.7 1.3-4.2 3.2l-11 37.8-7.5.6c-.3 0-.5.2-.5.5s.2.5.5.6l6.8.6-9.9 34c-.1.2-.1.5 0 .7-3.3 29.5 5 59.2 23.3 82.7 9.1 11.5 20.6 20.8 33.7 27.4 13.1 6.4 27.6 9.4 42.1 8.9v.8c14.6.3 29-3 42.1-9.6s24.6-15.9 33.6-27.4c9.1-11.5 15.8-24.8 19.7-39 3.8-14.2 4.9-29 3.4-43.6v-.6l-9.7-33.5c3.4 0 7.1-.3 10.6-.5.6 0 1-.5 1.1-1.1-.1-.6-.6-1.1-1.3-1.2zm-169.7-32.2 69.9.2 70-.3 9.3 31.3c-25.8-.9-51.6-.8-77.4-1.1l-49 .4c-10.8.3-21.5.5-32.3 1.1zm160.8 70.3c3.4 27.5-3.8 55.2-20.2 77.6-8.2 11.1-18.7 20.4-30.8 27-12.2 6.7-25.9 10.3-39.8 10.6v.8c-14-.6-27.7-4.4-39.9-11.3-12.1-6.8-22.6-16.1-30.8-27.4-8.2-11.1-14.2-23.7-17.6-37-3.3-13.2-4.2-26.9-2.6-40.5l10.6-35.4c11.2.6 22.2.9 33.4 1.1l48.9.4c26.2-.3 52.4-.2 78.7-1.2l10.3 35.1z"/><path d="m264.2 491.6c1.8-13.6 5.7-26.8 11.6-39.2 6-12.4 13.3-24 21.8-34.8 17.4-20.9 37.3-39.6 59.4-55.5.4-.4 1.1-.4 1.5 0 .3.4.3 1 0 1.5-19.4 19.1-39.8 36.9-56 57.9-8.4 10.3-15.7 21.5-21.7 33.3-6 11.9-11.2 24.2-15.3 36.9-.1.3-.4.5-.7.4-.3 0-.5-.2-.6-.5z"/></g></svg>
