<svg class="jetpack-connection-migration" xmlns="http://www.w3.org/2000/svg" viewBox="0 0 1409.1 643">
<g class="jetpack-connection-migration__destination">
	<path fill="#FFFFFF" d="M1395.5,56.5c-9.8-0.3-19.6-1.2-29.2-2.8c-11.2-1.8-22.2-4.5-32.9-8.1c-10.8-3.7-21.2-8.6-30.8-14.7 c-8.2-5.2-15.6-11.6-22.1-19c-6.1,6.4-12.8,12.2-20,17.4c-8.6,6.2-17.9,11.5-27.6,15.8c-9.8,4.3-20,7.4-30.6,9.2 c-9.3,1.5-18.8,2-28.2,1.5c-1.7,10.9-2.8,21.9-3.3,32.9c-0.3,7.1-0.4,14.9-0.1,23.2c0.1,3.8,0.3,7.6,0.6,11.6 c3.2,48.2,18.7,108.9,71.1,143.2c12,7.7,25.3,13.6,39,17.7c0.3-0.1,0.6-0.2,0.9-0.3c2-0.7,4-1.4,6-2.1c8.8-3.3,17.3-7.3,25.5-11.9 c10.2-5.9,20.1-12.3,28.8-20c17.6-15.6,31.2-35.2,39.6-57.2c2.4-5.4,4-11.1,5.8-16.6c1.4-5.7,3.2-11.4,4.3-17.2 c2.7-11.5,4-23.4,5.1-35.2C1399,101.5,1397.9,79,1395.5,56.5z M1353.6,102.2c-10.4,16.6-23,31.2-35.7,45.8c-9.6,11-19,22-28.6,32.9 c-2.7,3-5.3,6.1-8,9.1c-0.5,0.5-1,1.1-1.4,1.6c-2,2.2-5.4,2.6-7.8,0.7c-6.3-4.9-12.4-10.2-18.7-15.3l-9.3-7.7 c-3-2.7-6.6-4.6-8.3-8.9c-0.8-2,0.2-4.3,2.3-5.1c0.6-0.2,1.3-0.3,1.9-0.3c4.6,0.7,7.2,3.8,10.5,6.1l9.6,7.4 c4.9,3.8,9.9,7.6,14.8,11.4c2.1-2.3,4.2-4.7,6.3-7c2.8-3.1,5.5-6.2,8.3-9.3c6.8-7.6,13.7-15.2,20.6-22.7 c12.9-14.4,25.9-28.6,41.1-41c0.7-0.6,1.8-0.5,2.4,0.3C1353.9,100.8,1354,101.6,1353.6,102.2z"/>
	<path fill="#CCCED0" d="M1286.5,479.3L1286.5,479.3c0-0.6-0.5-1.2-1.2-1.2s-1.2,0.5-1.2,1.2l-1.4,78.2l-1,74.4 c-34.2-1.2-68.5-1.5-102.7-2.1l-106.3-0.7c-35.4-0.1-70.9-0.2-106.3,0.1L866,629.7c-0.2-16.4-0.6-32.9-1-49.3 c-0.6-18.4-1.3-36.9-2.6-55.3c-0.1-1.2-1-2.1-2.2-2.2c-1.3-0.1-2.4,0.9-2.5,2.2c-1.3,18.4-1.9,36.9-2.6,55.3 c-0.4,18.4-0.9,36.9-1.1,55.3l0,0c0,3.3,2.6,6,5.9,6h0.1l106.3,0.5c35.4,0.3,70.9,0.2,106.3,0.1l106.3-0.7 c35.4-0.6,70.9-1,106.3-2.3h0.2c2-0.1,3.5-1.7,3.5-3.6l-1.1-78.2L1286.5,479.3z"/>
	<path fill="#CCCED0" d="M1297.8,392.2l-16.5,24.5l0,0c-0.9,1.4-0.5,3.2,0.8,4.1c0.5,0.3,1.1,0.5,1.6,0.5l0,0c1,0,1.9-0.5,2.4-1.3 l16.5-24.6c0.5-1.2,0.3-2.5-0.7-3.4C1300.9,390.9,1299,391,1297.8,392.2z"/>
	<path fill="#CCCED0" d="M1220,518l16.5-24.5c0.5-1.2,0.3-2.5-0.7-3.4c-1.2-1.1-3.1-1.1-4.2,0.1l-16.5,24.5l0,0 c-0.9,1.4-0.5,3.2,0.8,4.1c0.5,0.3,1.1,0.5,1.6,0.5l0,0C1218.6,519.3,1219.5,518.8,1220,518z"/>
	<path fill="#CCCED0" d="M1253.1,469l16.5-24.5c0.2-0.2,0.4-0.5,0.6-0.8c0.7-1.5,0-3.3-1.5-4s-3.3,0-4,1.5l-16.5,24.5l0,0 c-0.9,1.4-0.5,3.2,0.8,4.1c0.5,0.3,1.1,0.5,1.6,0.5l0,0C1251.6,470.3,1252.5,469.8,1253.1,469z"/>
	<path fill="#CCCED0" d="M1129.4,487.2c-1.2,1.1-1.3,3-0.2,4.2l23.5,18c0.5,0.4,1.1,0.6,1.8,0.6l0,0c0.8,0,1.6-0.4,2.2-1.1 c1.1-1.3,0.9-3.2-0.4-4.2l-23.5-18C1131.7,486.1,1130.3,486.3,1129.4,487.2z"/>
	<path fill="#CCCED0" d="M1011.6,558.4c-1.2-1.2-3.1-1.1-4.2,0l-3.2,4.7c-1.7-0.6-3.5-0.9-5.5-0.9c-9.1,0-16.5,7.4-16.5,16.5 s7.4,16.5,16.5,16.5s16.5-7.4,16.5-16.5c0-5.1-2.3-9.6-5.9-12.7l2.9-4.3C1012.7,560.6,1012.5,559.2,1011.6,558.4z"/>
	<path fill="#CCCED0" d="M1028.9,537.3l16.6-24.4c0.5-1.1,0.3-2.5-0.6-3.4c-1.2-1.2-3.1-1.1-4.2,0L1024,534c-0.3,0.5-0.5,1-0.5,1.5 c0,1.7,1.3,3,2.9,3.1l0,0C1027.4,538.6,1028.3,538.1,1028.9,537.3z"/>
	<path fill="#CCCED0" d="M1166.9,200.6c0.1-1.3-0.8-2.5-2.1-2.6c-19.1-2.1-38.1-2.9-57.2-3.4s-38.1-0.8-57.2-0.9l-28.6,0.1l-28.6,0.6 c-19.1,0.6-38.1,1.6-57.2,4.8l0,0c-0.5,0.1-0.9,0.5-1,1c-0.1,0.7,0.3,1.3,1,1.4c19.1,3.1,38.1,4.2,57.2,4.8l28.6,0.6l28.6,0.1 c19.1-0.1,38.1-0.4,57.2-0.9s38.1-1.4,57.2-3.4C1165.9,202.6,1166.8,201.7,1166.9,200.6z"/>
	<path fill="#CCCED0" d="M1332.5,328.8c-9.1,0-16.5,7.4-16.5,16.5c0,4.8,2,9.1,5.3,12.1l-6.9,10.3c-0.3,0.5-0.5,1-0.5,1.5 c0,1.7,1.3,3,2.9,3.1l0,0c1,0,1.9-0.5,2.5-1.3l7-10.4c1.9,0.8,4,1.2,6.3,1.2c9.1,0,16.5-7.4,16.5-16.5 C1349.1,336.2,1341.7,328.8,1332.5,328.8z"/>
	<path fill="#CCCED0" d="M1198.9,518.2c-6.1,0-11.5,3.3-14.3,8.3l-4.8-3.7c-1.1-0.6-2.5-0.4-3.4,0.5c-1.2,1.1-1.3,3-0.2,4.2l6.4,4.9 c-0.1,0.8-0.2,1.6-0.2,2.4c0,9.1,7.4,16.5,16.5,16.5s16.5-7.4,16.5-16.5S1208,518.2,1198.9,518.2z"/>
	<path fill="#CCCED0" d="M1404.8,50.8c-0.4-2.5-2.5-4.4-5-4.4l0,0c-10.7,0-21.4-0.9-32-2.6c-10.6-1.7-21.1-4.2-31.3-7.6 c-10.1-3.4-19.8-7.9-28.8-13.6c-8.9-5.6-16.8-12.7-23.4-20.9c-0.2-0.2-0.4-0.5-0.6-0.7c-2-1.7-5-1.5-6.7,0.5v0.1 c-6.5,7.5-13.9,14.2-21.9,20.1c-8,6-16.7,11.1-25.8,15.2c-18.2,8.3-38.2,12-58.2,10.5h-0.2c-2-0.1-3.7,1.3-4,3.2 c-3,20.2-4.2,40.7-3.4,61.2l-90.8-0.4L966.4,111l-106.3,0.1H860l0,0c-3.6,0-6.5,3-6.4,6.6c0.4,38.3,0.4,76.6,1.3,115 c0.3,19.2,0.7,38.3,1.5,57.5c0.6,19.2,1.5,38.3,2.7,57.5l0,0c0,0.6,0.5,1.2,1.2,1.2s1.2-0.5,1.2-1.2c1.2-19.2,2.1-38.3,2.7-57.5 c0.8-19.2,1.2-38.3,1.5-57.5c0.8-36.1,0.9-72.3,1.2-108.4l99.8,0.1L1073,124l91.5-0.4c1.8,23.7,6.2,47.3,14.6,69.6 c8.5,22.5,21.8,43.5,39.4,60s39.8,27.7,62.8,33.8c0.3,0.1,0.6,0,0.8-0.1c0.2,0,0.3,0,0.5,0l0.6,48.5c0.1,1.2,1,2.1,2.2,2.2 c1.3,0.1,2.4-0.9,2.5-2.2l0.6-49c22.5-2.8,43.8-13.7,61-28.5c19.1-16.5,34.1-37.3,43.5-60.7c10-23.1,14.1-48,15.7-72.7 C1409.9,99.8,1408.3,75,1404.8,50.8z M1221.1,249.9c-16.9-16.2-29-36.8-36.9-58.9c-7.8-21.7-11.8-44.6-13.2-67.7h0.2 c-0.3-3.9-0.4-7.8-0.6-11.6h-0.2c-0.2-7.7-0.1-15.5,0.3-23.2c0.5-11,1.6-22,3.3-32.9c9.4,0.6,18.9,0.1,28.2-1.5 c10.5-1.8,20.8-4.9,30.6-9.2c9.7-4.3,19-9.6,27.6-15.8c7.2-5.2,13.9-11,20-17.4c6.4,7.3,13.8,13.7,22.1,19 c9.7,6.1,20,11.1,30.8,14.7c10.7,3.6,21.7,6.4,32.9,8.1c9.7,1.6,19.4,2.5,29.2,2.8c2.5,22.4,3.5,45,1.9,67.3 c-1.1,11.8-2.4,23.7-5.1,35.2c-1.1,5.8-2.9,11.4-4.3,17.2c-1.8,5.6-3.5,11.3-5.8,16.6c-8.5,21.9-22.1,41.5-39.6,57.2 c-8.8,7.7-18.6,14.1-28.8,20c-8.2,4.6-16.7,8.6-25.5,11.9c-2,0.7-4,1.5-6,2.1c-0.3,0.1-0.6,0.2-0.9,0.3c-13.8-4.1-27-10.1-39-17.7 C1234.8,261.8,1227.6,256.2,1221.1,249.9z"/>
	<path fill="#CCCED0" d="M1317.9,148c12.7-14.6,25.3-29.2,35.7-45.8c0.4-0.6,0.3-1.4-0.1-2c-0.6-0.7-1.7-0.9-2.4-0.3 c-15.2,12.4-28.1,26.6-41.1,41c-6.9,7.5-13.7,15.1-20.6,22.7c-2.8,3.1-5.5,6.2-8.3,9.3c-2.1,2.3-4.2,4.7-6.3,7 c-4.9-3.8-9.9-7.6-14.8-11.4l-9.6-7.4c-3.3-2.3-5.9-5.4-10.5-6.1c-0.6-0.1-1.3,0-1.9,0.3c-2,0.8-3,3.1-2.3,5.1 c1.7,4.3,5.3,6.2,8.3,8.9l9.3,7.7c6.2,5.1,12.3,10.3,18.7,15.3c2.4,1.8,5.8,1.5,7.8-0.7c0.5-0.5,1-1.1,1.4-1.6c2.7-3,5.3-6.1,8-9.1 C1298.9,170,1308.3,159,1317.9,148z"/>
	<path fill="#00BE28" d="M1072.7,232.7c-70.9,0-128.3,57.4-128.3,128.3c0,70.9,57.4,128.3,128.3,128.3c70.9,0,128.3-57.4,128.3-128.3 C1201,290.1,1143.6,232.7,1072.7,232.7z"/>
	<polygon fill="#FFFFFF" points="1066.2,382.5 1002.2,382.5 1066.2,258.1 	"/>
	<polygon fill="#FFFFFF" points="1079.2,463.9 1079.2,339.5 1143.2,339.5 	"/>
</g>
<g class="jetpack-connection-migration__origin">
	<path fill="#FFFFFF" d="M541.9,56.5c-9.8-0.3-19.6-1.2-29.2-2.8c-11.2-1.8-22.2-4.5-32.9-8.1C469,41.9,458.6,37,449,30.9 c-8.2-5.2-15.6-11.6-22.1-19c-6.1,6.4-12.8,12.2-20,17.4c-8.6,6.2-17.9,11.5-27.6,15.8c-9.8,4.3-20,7.4-30.6,9.2 c-9.3,1.5-18.8,2-28.2,1.5c-1.7,10.9-2.8,21.9-3.3,32.9c-0.3,7.1-0.4,14.9-0.1,23.2c0.1,3.8,0.3,7.6,0.6,11.6 c3.2,48.2,18.7,108.9,71.1,143.2c12,7.7,25.3,13.6,39,17.7c0.3-0.1,0.6-0.2,0.9-0.3c2-0.7,4-1.4,6-2.1c8.8-3.3,17.3-7.3,25.5-11.9 c10.2-5.9,20.1-12.3,28.8-20c17.6-15.6,31.2-35.2,39.6-57.2c2.4-5.4,4-11.1,5.8-16.6c1.4-5.7,3.2-11.4,4.3-17.2 c2.7-11.5,4-23.4,5.1-35.2C545.4,101.5,544.3,79,541.9,56.5z M500,102.2c-10.4,16.6-23,31.2-35.7,45.8c-9.6,11-19,22-28.6,32.9 c-2.7,3-5.3,6.1-8,9.1c-0.5,0.5-1,1.1-1.4,1.6c-2,2.2-5.4,2.6-7.8,0.7c-6.3-4.9-12.4-10.2-18.7-15.3l-9.3-7.7 c-3-2.7-6.6-4.6-8.3-8.9c-0.8-2,0.2-4.3,2.3-5.1c0.6-0.2,1.3-0.3,1.9-0.3c4.6,0.7,7.2,3.8,10.5,6.1l9.6,7.4 c4.9,3.8,9.9,7.6,14.8,11.4c2.1-2.3,4.2-4.7,6.3-7c2.8-3.1,5.5-6.2,8.3-9.3c6.8-7.6,13.7-15.2,20.6-22.7 c12.9-14.4,25.9-28.6,41.1-41c0.7-0.6,1.8-0.5,2.4,0.3C500.3,100.8,500.4,101.6,500,102.2z"/>
	<path fill="#CCCED0" d="M432.9,479.3L432.9,479.3c0-0.6-0.5-1.2-1.2-1.2s-1.2,0.5-1.2,1.2l-1.4,78.2l-1,74.4 c-34.2-1.2-68.5-1.5-102.7-2.1l-106.3-0.7c-35.4-0.1-70.9-0.2-106.3,0.1l-100.4,0.5c-0.2-16.4-0.6-32.9-1-49.3 c-0.6-18.4-1.3-36.9-2.6-55.3c-0.1-1.2-1-2.1-2.2-2.2c-1.3-0.1-2.4,0.9-2.5,2.2c-1.3,18.4-1.9,36.9-2.6,55.3 c-0.4,18.4-0.9,36.9-1.1,55.3l0,0c0,3.3,2.6,6,5.9,6h0.1l106.3,0.5c35.4,0.3,70.9,0.2,106.3,0.1l106.3-0.7 c35.4-0.6,70.9-1,106.3-2.3h0.2c2-0.1,3.5-1.7,3.5-3.6l-1.1-78.2L432.9,479.3z"/>
	<path fill="#CCCED0" d="M444.2,392.2l-16.5,24.5l0,0c-0.9,1.4-0.5,3.2,0.8,4.1c0.5,0.3,1.1,0.5,1.6,0.5l0,0c1,0,1.9-0.5,2.4-1.3 l16.5-24.6c0.5-1.2,0.3-2.5-0.7-3.4C447.3,390.9,445.4,391,444.2,392.2z"/>
	<path fill="#CCCED0" d="M366.4,518l16.5-24.5c0.5-1.2,0.3-2.5-0.7-3.4c-1.2-1.1-3.1-1.1-4.2,0.1l-16.5,24.5l0,0 c-0.9,1.4-0.5,3.2,0.8,4.1c0.5,0.3,1.1,0.5,1.6,0.5l0,0C365,519.3,365.9,518.8,366.4,518z"/>
	<path fill="#CCCED0" d="M399.5,469l16.5-24.5c0.2-0.2,0.4-0.5,0.6-0.8c0.7-1.5,0-3.3-1.5-4s-3.3,0-4,1.5l-16.5,24.5l0,0 c-0.9,1.4-0.5,3.2,0.8,4.1c0.5,0.3,1.1,0.5,1.6,0.5l0,0C398,470.3,398.9,469.8,399.5,469z"/>
	<path fill="#CCCED0" d="M275.8,487.2c-1.2,1.1-1.3,3-0.2,4.2l23.5,18c0.5,0.4,1.1,0.6,1.8,0.6l0,0c0.8,0,1.6-0.4,2.2-1.1 c1.1-1.3,0.9-3.2-0.4-4.2l-23.5-18C278.1,486.1,276.7,486.3,275.8,487.2z"/>
	<path fill="#CCCED0" d="M158,558.4c-1.2-1.2-3.1-1.1-4.2,0l-3.2,4.7c-1.7-0.6-3.5-0.9-5.5-0.9c-9.1,0-16.5,7.4-16.5,16.5 s7.4,16.5,16.5,16.5s16.5-7.4,16.5-16.5c0-5.1-2.3-9.6-5.9-12.7l2.9-4.3C159.1,560.6,158.9,559.2,158,558.4z"/>
	<path fill="#CCCED0" d="M175.3,537.3l16.6-24.4c0.5-1.1,0.3-2.5-0.6-3.4c-1.2-1.2-3.1-1.1-4.2,0L170.4,534c-0.3,0.5-0.5,1-0.5,1.5 c0,1.7,1.3,3,2.9,3.1l0,0C173.8,538.6,174.7,538.1,175.3,537.3z"/>
	<path fill="#CCCED0" d="M313.3,200.6c0.1-1.3-0.8-2.5-2.1-2.6c-19.1-2.1-38.1-2.9-57.2-3.4s-38.1-0.8-57.2-0.9l-28.6,0.1l-28.6,0.6 c-19.1,0.6-38.1,1.6-57.2,4.8l0,0c-0.5,0.1-0.9,0.5-1,1c-0.1,0.7,0.3,1.3,1,1.4c19.1,3.1,38.1,4.2,57.2,4.8l28.6,0.6l28.6,0.1 c19.1-0.1,38.1-0.4,57.2-0.9s38.1-1.4,57.2-3.4C312.3,202.6,313.2,201.7,313.3,200.6z"/>
	<path fill="#CCCED0" d="M478.9,328.8c-9.1,0-16.5,7.4-16.5,16.5c0,4.8,2,9.1,5.3,12.1l-6.9,10.3c-0.3,0.5-0.5,1-0.5,1.5 c0,1.7,1.3,3,2.9,3.1l0,0c1,0,1.9-0.5,2.5-1.3l7-10.4c1.9,0.8,4,1.2,6.3,1.2c9.1,0,16.5-7.4,16.5-16.5 C495.5,336.2,488.1,328.8,478.9,328.8z"/>
	<path fill="#CCCED0" d="M345.3,518.2c-6.1,0-11.5,3.3-14.3,8.3l-4.8-3.7c-1.1-0.6-2.5-0.4-3.4,0.5c-1.2,1.1-1.3,3-0.2,4.2l6.4,4.9 c-0.1,0.8-0.2,1.6-0.2,2.4c0,9.1,7.4,16.5,16.5,16.5s16.5-7.4,16.5-16.5S354.4,518.2,345.3,518.2z"/>
	<path fill="#CCCED0" d="M551.2,50.8c-0.4-2.5-2.5-4.4-5-4.4l0,0c-10.7,0-21.4-0.9-32-2.6c-10.6-1.7-21.1-4.2-31.3-7.6 c-10.1-3.4-19.8-7.9-28.8-13.6c-8.9-5.6-16.8-12.7-23.4-20.9c-0.2-0.2-0.4-0.5-0.6-0.7c-2-1.7-5-1.5-6.7,0.5v0.1 c-6.5,7.5-13.9,14.2-21.9,20.1c-8,6-16.7,11.1-25.8,15.2c-18.2,8.3-38.2,12-58.2,10.5h-0.2c-2-0.1-3.7,1.3-4,3.2 c-3,20.2-4.2,40.7-3.4,61.2l-90.8-0.4L112.8,111L6.5,111.1H6.4l0,0c-3.6,0-6.5,3-6.4,6.6c0.4,38.3,0.4,76.6,1.3,115 C1.6,251.9,2,271,2.8,290.2c0.6,19.2,1.5,38.3,2.7,57.5l0,0c0,0.6,0.5,1.2,1.2,1.2s1.2-0.5,1.2-1.2c1.2-19.2,2.1-38.3,2.7-57.5 c0.8-19.2,1.2-38.3,1.5-57.5c0.8-36.1,0.9-72.3,1.2-108.4l99.8,0.1l106.3-0.4l91.5-0.4c1.8,23.7,6.2,47.3,14.6,69.6 c8.5,22.5,21.8,43.5,39.4,60s39.8,27.7,62.8,33.8c0.3,0.1,0.6,0,0.8-0.1c0.2,0,0.3,0,0.5,0l0.6,48.5c0.1,1.2,1,2.1,2.2,2.2 c1.3,0.1,2.4-0.9,2.5-2.2l0.6-49c22.5-2.8,43.8-13.7,61-28.5c19.1-16.5,34.1-37.3,43.5-60.7c10-23.1,14.1-48,15.7-72.7 C556.3,99.8,554.7,75,551.2,50.8z M367.5,249.9c-16.9-16.2-29-36.8-36.9-58.9c-7.8-21.7-11.8-44.6-13.2-67.7h0.2 c-0.3-3.9-0.4-7.8-0.6-11.6h-0.2c-0.2-7.7-0.1-15.5,0.3-23.2c0.5-11,1.6-22,3.3-32.9c9.4,0.6,18.9,0.1,28.2-1.5 c10.5-1.8,20.8-4.9,30.6-9.2c9.7-4.3,19-9.6,27.6-15.8c7.2-5.2,13.9-11,20-17.4c6.4,7.3,13.8,13.7,22.1,19 c9.7,6.1,20,11.1,30.8,14.7c10.7,3.6,21.7,6.4,32.9,8.1c9.7,1.6,19.4,2.5,29.2,2.8c2.5,22.4,3.5,45,1.9,67.3 c-1.1,11.8-2.4,23.7-5.1,35.2c-1.1,5.8-2.9,11.4-4.3,17.2c-1.8,5.6-3.5,11.3-5.8,16.6c-8.5,21.9-22.1,41.5-39.6,57.2 c-8.8,7.7-18.6,14.1-28.8,20c-8.2,4.6-16.7,8.6-25.5,11.9c-2,0.7-4,1.5-6,2.1c-0.3,0.1-0.6,0.2-0.9,0.3c-13.8-4.1-27-10.1-39-17.7 C381.2,261.8,374,256.2,367.5,249.9z"/>
	<path fill="#CCCED0" d="M464.3,148c12.7-14.6,25.3-29.2,35.7-45.8c0.4-0.6,0.3-1.4-0.1-2c-0.6-0.7-1.7-0.9-2.4-0.3 c-15.2,12.4-28.1,26.6-41.1,41c-6.9,7.5-13.7,15.1-20.6,22.7c-2.8,3.1-5.5,6.2-8.3,9.3c-2.1,2.3-4.2,4.7-6.3,7 c-4.9-3.8-9.9-7.6-14.8-11.4l-9.6-7.4c-3.3-2.3-5.9-5.4-10.5-6.1c-0.6-0.1-1.3,0-1.9,0.3c-2,0.8-3,3.1-2.3,5.1 c1.7,4.3,5.3,6.2,8.3,8.9l9.3,7.7c6.2,5.1,12.3,10.3,18.7,15.3c2.4,1.8,5.8,1.5,7.8-0.7c0.5-0.5,1-1.1,1.4-1.6c2.7-3,5.3-6.1,8-9.1 C445.3,170,454.7,159,464.3,148z"/>
	<path fill="#CCCED0" d="M219.1,232.7c-70.9,0-128.3,57.4-128.3,128.3c0,70.9,57.4,128.3,128.3,128.3c70.9,0,128.3-57.4,128.3-128.3 C347.4,290.1,290,232.7,219.1,232.7z"/>
	<polygon fill="#FFFFFF" points="212.6,382.5 148.6,382.5 212.6,258.1 	"/>
	<polygon fill="#FFFFFF" points="225.6,463.9 225.6,339.5 289.6,339.5 	"/>
</g>
<g class="jetpack-connection-migration__dots">
	<circle fill="#CCCED0" cx="583.8" cy="361" r="18.7"/>
	<circle fill="#CCCED0" cx="666.7" cy="361" r="18.7"/>
	<circle fill="#CCCED0" cx="747.7" cy="361" r="18.7"/>
</g>
</svg>
