<svg id="Layer_1" xmlns="http://www.w3.org/2000/svg" viewBox="0 0 339 176" enable-background="new 0 0 339 176"><style>.st0{fill:#e6f1f5}.st1{fill:#fff}.st2{fill:#c3c4c7}.st3{fill:#98c6d9}.st4{fill:#e6f1f5}.st5{fill:#004e6e}.st6{fill:#2fb41f}.st7{fill:#dcdcde}.st8{fill:#2fb41f}.st10,.st9{fill:none;stroke:#98c6d9;stroke-linecap:round;stroke-linejoin:round}.st10{stroke:#004e6e}.st11{fill:#004e6e}.st12{fill:none;stroke:#3895ba;stroke-linecap:round;stroke-linejoin:round}.st13{fill:#3895ba}.st14{filter:url(#Adobe_OpacityMaskFilter)}.st15{mask:url(#b_1_);fill:#98c6d9}.st16{fill:#004e6e}.st17,.st18{fill:none;stroke:#fff;stroke-linecap:round;stroke-linejoin:round}.st18{stroke:#004e6e;stroke-width:1.105}</style><title>Page 1</title><path class="st0" d="M13.1 16.4c2.7-.1 5.4-.2 8.1-.2 2.7-.1 5.4-.1 8.1-.1l-.5.4c.8-2.5 1.9-4.9 3.4-7.1 1.5-2.2 3.4-4.3 6.1-5.4 5.5-2.3 12.2 1.2 13.5 6.8.1.7.2 1.4 0 2.2-.2.7-.6 1.5-1.3 2-.7.5-1.6.6-2.3.6-.7 0-1.7-.2-2.3-.9-.6-.8-.6-1.7-.3-2.4.2-.7.7-1.3 1.2-1.9 1-1.1 2.3-1.8 3.6-2.2 1.4-.4 2.8-.6 4.2-.4 1.4.1 2.9.6 4 1.5s1.8 2.3 2.1 3.6c.3 1.3.4 2.7.2 4l-.5-.6c5.8.1 11.7.1 17.5.3.1 0 .2.1.2.2s-.1.2-.2.2c-6-.1-11.8 0-17.7 0-.3 0-.5-.2-.6-.5v-.1c.2-2.4-.2-5.1-2-6.6-.9-.7-2.1-1.1-3.3-1.2-1.2-.1-2.5 0-3.7.4-1.2.4-2.3 1-3 1.9-.4.4-.7.9-.9 1.4-.2.5-.1 1 .1 1.2.4.6 2.1.6 2.8.1.8-.5 1-1.7.7-2.8-.5-2.3-2.2-4.3-4.4-5.4-1.1-.6-2.3-.9-3.6-1-1.2 0-2.5.1-3.6.6-2.3.9-4.1 2.9-5.5 4.9-1.4 2.1-2.6 4.4-3.4 6.8-.1.2-.3.3-.5.3-2.7 0-5.4-.1-8.1-.1-2.7 0-5.4-.2-8.1-.2-.1 0-.1-.1-.1-.1 0-.2.1-.2.1-.2"/><path class="st1" d="M153 162s71.1-46.4 182-50"/><path class="st2" d="M153.1 161.8c3.4-2.1 6.8-4.2 10.3-6.1 1.7-1 3.5-1.9 5.3-2.8 1.8-.9 3.5-1.8 5.3-2.7 3.6-1.7 7.2-3.5 10.8-5 3.6-1.6 7.3-3.2 11-4.7l5.6-2.2c1.8-.7 3.7-1.4 5.6-2.1 3.8-1.3 7.5-2.8 11.3-3.9l11.4-3.6 11.5-3.2 2.9-.8 2.9-.7 5.8-1.4c3.9-.9 7.8-1.9 11.7-2.6l11.8-2.3c3.9-.7 7.9-1.2 11.8-1.8 7.9-1.3 15.9-1.9 23.8-2.7 2-.2 4-.4 6-.5l6-.3 12-.5c.1 0 .3.1.3.2s-.1.2-.2.3l-11.9.8c-4 .3-8 .4-11.9.9-7.9.9-15.8 1.6-23.7 3-3.9.6-7.9 1.1-11.8 1.8l-11.7 2.3c-3.9.7-7.8 1.7-11.6 2.6l-5.8 1.4-2.9.7-2.9.8-11.5 3.2c-3.8 1.1-7.6 2.4-11.4 3.6-3.8 1.1-7.5 2.6-11.3 3.9-1.9.7-3.8 1.3-5.6 2l-5.5 2.2c-1.8.8-3.7 1.4-5.5 2.2l-5.5 2.3c-3.7 1.5-7.3 3.2-10.9 4.9-1.8.8-3.6 1.7-5.4 2.6-1.8.9-3.6 1.8-5.3 2.7-3.5 1.8-7 3.7-10.4 5.7h-.2c-.3-.1-.3-.2-.2-.2"/><path class="st1" d="M153 144c10.6 4 17 7 17 7"/><path class="st2" d="M153.1 144c1.6.3 3.1.8 4.7 1.3l4.5 1.8c2.9 1.3 5.9 2.6 8.6 4.4.1.1.2.2.1.4-.1.1-.2.1-.3.1-3.1-1-6-2.3-8.9-3.5-1.5-.6-2.9-1.3-4.4-1.9-1.5-.7-2.9-1.4-4.3-2.3-.1 0-.1-.1 0-.2-.1-.1 0-.1 0-.1"/><path class="st1" d="M0 130c23-8.9 49.7-9.4 75-6.2"/><path class="st2" d="M.1 129.8c5.8-2.7 12-4.5 18.3-5.9 6.3-1.3 12.7-2.2 19.1-2.6 12.8-.7 25.7-.1 38.3 2 .1 0 .2.1.2.3 0 .1-.1.2-.3.2-12.7-1.2-25.5-2-38.2-1.1-6.4.4-12.7 1.1-18.9 2.4-6.3 1.2-12.4 2.9-18.5 4.9-.1 0-.1 0-.2-.1.1 0 .1-.1.2-.1"/><path class="st1" d="M77.2 146L77 20"/><path class="st2" d="M77.3 146c-1-10.5-1-21-1.1-31.5L76 83l.1-31.5c0-10.5-.1-21 .9-31.5h.6c1 10.5 1 21 1.1 31.5L79 83l-.1 31.5c0 10.5.1 21-.9 31.5h-.7z"/><path class="st1" d="M247 26v118H101"/><path class="st2" d="M247 26c.3 9.9.5 19.8.6 29.6.2 9.9.2 19.8.3 29.6l.1 59.3v1.3h-1.3l-36.4.1-36.4-.1-36.4-.1c-12.1-.1-24.3-.2-36.4-.9v-.6c12.1-.7 24.3-.8 36.4-.9l36.4-.1 36.4-.1 36.4.1-1.3 1.3.1-59.3c.1-9.9.1-19.8.3-29.6.1-9.9.3-19.8.6-29.6h.6z"/><path class="st3" d="M76 26V10.1C76 4.5 80.6 0 86.2 0h150.6c5.6 0 10.2 4.5 10.2 10.1V26H76z"/><path class="st4" d="M255 26H67"/><path class="st5" d="M255 26.8c-15.7 1-31.3 1-47 1l-47 .2-47-.2c-15.7-.1-31.3 0-47-1v-.6c15.7-1 31.3-1 47-1l47-.2 47 .2c15.7.1 31.3 0 47 1v.6z"/><path class="st6" d="M92 130h38V42H92"/><path class="st2" d="M226 56h-64V42h68v10c0 2.2-1.8 4-4 4"/><path class="st7" d="M154 56h-13v-9c0-2.2 1.8-4 4-4h9v13z"/><path class="st2" d="M226 130h-64v-24h68v20c0 2.2-1.8 4-4 4"/><path class="st7" d="M154 119h-13v-9c0-2.2 1.8-4 4-4h9v13z"/><path class="st2" d="M226 95h-64V65h68v26c0 2.2-1.8 4-4 4"/><path class="st8" d="M154 78h-13v-9c0-2.2 1.8-4 4-4h9v13z"/><path class="st1" d="M122 62.5c0 5.8-4.7 10.5-10.5 10.5S101 68.3 101 62.5 105.7 52 111.5 52 122 56.7 122 62.5"/><path class="st0" d="M1.2 173.2c28.1-.7 56.2-.9 84.3-1.1l84.3-.2c56.2.2 112.4.1 168.6 1 .3 0 .5.2.5.5s-.2.5-.5.5c-56.2.9-112.4.8-168.6 1l-84.3-.2c-28.1-.2-56.2-.3-84.3-1.1-.1 0-.2-.1-.2-.3 0 .1.1-.1.2-.1"/><path class="st2" d="M281.9 60l-1.2-4.2c-3.6.5-5.1-1.5-6.4-4.5-.4-.9-2.1-.7-2.3-1.7-.2-1.3 1.9-2.2 1.8-4.9 0-1.5.3-3.4 1.7-3.7 0 0 6.8 2.8 10.2 6.3 1.5 4.1 2.4 6 2.4 6l1.8 4.2-8 2.5z"/><path class="st1" d="M86 31c0 1.1-.8 2-2 2-1.1 0-2-.8-2-2v-.1c0-1.1.9-2 2-2 1.1.2 2 1 2 2.1m2 138s-3.4-25.4-7-29c6.1 5.4 13 20.4 13 29"/><path class="st2" d="M88.6 169.8c-1-4.9-1.9-9.9-3-14.7-.5-2.4-1.1-4.9-1.7-7.3-.3-1.2-.7-2.4-1.1-3.5-.4-1.1-.9-2.3-1.6-3-.3-.3-.2-.7 0-1 .3-.2.7-.3.9 0 2.1 1.9 3.7 4.1 5.1 6.4 1.4 2.3 2.7 4.7 3.8 7.2 1.1 2.5 2 5.1 2.8 7.7.7 2.6 1.2 5.4 1.1 8.2 0 .1-.1.2-.2.2s-.2-.1-.2-.2c-.1-2.7-.8-5.3-1.6-7.9-.8-2.6-1.8-5.1-2.9-7.5-1.1-2.4-2.4-4.8-3.8-7s-3-4.4-4.9-6.1l.9-1c1 1.1 1.4 2.4 1.9 3.6.4 1.2.8 2.4 1.1 3.6.7 2.4 1.2 4.9 1.7 7.4.4 2.5.9 5 1.2 7.4.3 2.5.6 5 .8 7.5 0 .1 0 .1-.1.1s-.2-.1-.2-.1"/><path class="st1" d="M94.9 169.5s.9-20-2.9-23.5c6.5 5.2 10.8 16.6 9.9 24"/><path class="st2" d="M94.5 169.2c-.2-4-.3-8-.6-12-.2-2-.3-4-.7-5.9-.2-1-.4-1.9-.7-2.8-.3-.9-.7-1.8-1.3-2.3-.3-.3-.3-.7 0-1 .3-.3.7-.3 1 0 1.8 1.5 3.3 3.3 4.6 5.2 1.2 1.9 2.3 4 3.1 6.1.8 2.1 1.4 4.3 1.8 6.6.4 2.2.5 4.5.1 6.8 0 .1-.2.2-.3.2-.1 0-.2-.1-.2-.3.1-2.2-.2-4.4-.6-6.5-.5-2.1-1.1-4.3-2-6.3-1.7-4-4.1-7.9-7.4-10.7l1-1.1c.9.9 1.3 1.9 1.6 2.9.3 1 .5 2 .7 3 .3 2 .5 4 .6 6 .1 2 .1 4 0 6s-.2 4-.4 6c0 .1-.1.1-.1.1-.2.1-.2.1-.2 0"/><path class="st1" d="M58.8 117.2c5.7 10.4 6.6 14.6 5.7 20.6-.9 6-6.9 13.8-6.9 13.8"/><path class="st9" d="M58.8 117.2c5.7 10.4 6.6 14.6 5.7 20.6-.9 6-6.9 13.8-6.9 13.8"/><path class="st3" d="M42.9 75c-1.6 8.8-1.9 25.3-1.9 25.3l17 .7s3.3-19 1.4-22.5"/><path class="st1" d="M61 64.7c1.4 12-3.9 16.2-5.6 13.8"/><path class="st9" d="M61 64.7c1.4 12-3.9 16.2-5.6 13.8"/><path class="st1" d="M61.9 48.1c1.3.8 2.2 2.1 2.4 3.7.4 2.8 2.7 3.5 2.7 4.9 0 1.1-1.9 1.2-2.1 2.2-1 3.4-3.6 5.9-7.5 5.9"/><path class="st10" d="M61.9 48.1c1.3.8 2.2 2.1 2.4 3.7.4 2.8 2.7 3.5 2.7 4.9 0 1.1-1.9 1.2-2.1 2.2-1 3.4-3.6 5.9-7.5 5.9M62 60c.5 1.4 2 2 2 2"/><path class="st11" d="M63.4 56c-.2 0-.4-.3-.4-.6v-.9c0-.3.2-.5.4-.5s.4.3.4.6v.9c0 .3-.2.5-.4.5m-17 14.1c4.7-2 14.4 16.1 14.4 16.1L70.5 70l5.5 2.2s-5 22.7-14.6 23.7c-9.6.9-17.2-13.5-17.2-13.5s-3.8-9.7 2.2-12.3"/><path class="st1" d="M42 100.1c-4.4 11 .7 73.8.7 73.8h12.8s6.4-60.4 2-73.1"/><path class="st9" d="M42 100.1c-4.4 11 .7 73.8.7 73.8h12.8s6.4-60.4 2-73.1M62 48c-3.2 2.6-3.5 9.1-4.1 11.9-.8 3.6-2 6.9 1.3 7.1"/><path class="st1" d="M44.7 64.6c-3.3-7.1.3-19 7.9-20.5 2.5-.5 5.6.7 7.1 1.2"/><path class="st9" d="M44.7 64.6c-3.3-7.1.3-19 7.9-20.5 2.5-.5 5.6.7 7.1 1.2M40.1 151L32 162.1 42 173"/><path class="st1" d="M70 71.5c.3-3.7 1.8-14.4 3.5-13.7 1.7.7.3 5.9.8 7.7.5 1.7 1.2 4.2-.2 7.3"/><path class="st10" d="M70 71.5c.3-3.7 1.8-14.4 3.5-13.7 1.7.7.3 5.9.8 7.7.5 1.7 1.2 4.2-.2 7.3m1.9-7.2s.7-2 1-1.5c.3.5-.7 2.9-.7 2.9"/><path class="st1" d="M51.5 59c0 3.5 1.4 6.4 3 7.1"/><path class="st9" d="M51.5 59c0 3.5 1.4 6.4 3 7.1M44 108l4 7"/><path class="st1" d="M47 58.2c-2.2 8.3-.8 19.8 7.9 18.5"/><path class="st9" d="M47 58.2c-2.2 8.3-.8 19.8 7.9 18.5"/><path class="st1" d="M257 95.2l1.1 11.6s6.4 16.4 1.1 10.2c7.1 8.3 15.6-2 15.8-11.6.2-10.6-3.5-17.8-7.7-19.9-2.3-1.1-5.7-.1-7.5 1.7-2 2.1-3 5-2.8 8"/><path class="st12" d="M257 95.2l1.1 11.6s6.4 16.4 1.1 10.2c7.1 8.3 15.6-2 15.8-11.6.2-10.6-3.5-17.8-7.7-19.9-2.3-1.1-5.7-.1-7.5 1.7-2 2.1-3 5-2.8 8z"/><path class="st9" d="M264 80.1c-5.4-.9-7 4.9-7 4.9m3 .1c-2.1-.3-6.4-.3-6.9 2.4-.2 1.1.2 2.7 1.3 3.5m7.6-7.9c2.6-2 5.6-3 7.5-.9.8.9.6 3.4-1.3 4.8"/><path class="st10" d="M302.7 119c-1.6 10.6 16.3 40.8 16.3 40.8l-8.2 12.2s-15.7-23-18.8-32.6m-14.2-6.5l-7.8 40.6 12.8 1.5 12.2-48"/><path class="st13" d="M286.9 63.2c-9 4.7-8.3 19-9.4 25.4C276.4 95 275 132 275 132l34-1.3s.9-79.4-22.1-67.5"/><path class="st3" d="M256.3 135l-6 34.1c-.2 1-1 1.8-2 1.9-1.8.3-4.3 1-4.3 3.2 0 .5 4.4.8 7.8.8 2.2.1 4.3-1.4 4.9-3.6l10.2-33.3"/><g transform="translate(264 133)"><defs><filter id="Adobe_OpacityMaskFilter" filterUnits="userSpaceOnUse" x=".2" y=".2" width="25.3" height="41.8"><feColorMatrix values="1 0 0 0 0 0 1 0 0 0 0 0 1 0 0 0 0 0 1 0"/></filter></defs><mask maskUnits="userSpaceOnUse" x=".2" y=".2" width="25.3" height="41.8" id="b_1_"><g class="st14"><path id="a_1_" class="st1" d="M.2.2h25.3V42H.2V.2z"/></g></mask><path class="st15" d="M.2 5.4L18.7 34c.6.9.5 2-.2 2.8-1.1 1.4-2.4 3.7-1 5.2.4.4 3.7-2.5 6.2-4.8 1.7-1.5 2.1-4 1.2-6L9.9.2"/></g><path class="st16" d="M254 65.6l2.8 8.2c.7 2.1 2.9 3.4 5.2 3.1l7-1.1c0 .1-3.8-13.9-15-10.2"/><path class="st10" d="M276 51c-.3 1.4-1 2-1 2"/><path class="st1" d="M258.1 106.4L251 155l40-4.8-16.4-45.2-16.5 1.4z"/><path class="st12" d="M258.1 106.4L251 155l40-4.8-16.4-45.2-16.5 1.4z"/><path class="st3" d="M263.2 88.2c-4 1.5-.5 20-.5 20l-3.6 16.3 1.3.3c2.9.7 5.8-1.1 6.6-3.9l3.1-11.2c-.1 0-.1-24.1-6.9-21.5"/><path class="st10" d="M295.6 73c1.9 13.9 2.8 17.7-2.7 26.4-2.7 4.3-7.8 9.6-7.8 9.6m.9-31s-.1 5.5 0 8m-2 3.5l4-.5m-6 2l2 .9"/><path class="st17" d="M278 102l10 12"/><path class="st10" d="M282 94l-4 8m5-55l-12-3m.6-2l-.6 4m5-7c.2 4.2 7.3 5.5 9.5 8.5s1.4 5.5 1.4 5.5M279 39.1c2.1-3.2 10.9-2.9 13.6 1.6 3.5 5.7-.6 14.3-.6 14.3"/><path class="st12" d="M293 57l-13 4.1 1.1 3.9"/><path class="st10" d="M275.6 41c-1.1 1-1.8 2.2-1.7 3.7 0 2.7-2 3.6-1.8 4.9.1 1 1.9.9 2.3 1.7 1.4 3 2.9 5 6.5 4.5L282 60"/><path class="st16" d="M266 68h-2v-2c0-1.1.9-2 2-2s2 .9 2 2-.9 2-2 2"/><path class="st1" d="M253.7 66.2c-1.6.7-2.2 1.8-2.4 3.2-.3 2.6-2.5 3.2-2.5 4.5 0 1 1.7 1.1 2 2 .9 3.2 3.3 5.5 6.9 5.5"/><path class="st10" d="M253.7 66.2c-1.6.7-2.2 1.8-2.4 3.2-.3 2.6-2.5 3.2-2.5 4.5 0 1 1.7 1.1 2 2 .9 3.2 3.3 5.5 6.9 5.5"/><path class="st18" d="M254 78c-1 .5-2 .5-2 .5"/><path class="st16" d="M253.1 66c-1 1.5-2.1 3.5-2.1 3.5l5 .5-.3-2.6-2.6-1.4"/><path class="st11" d="M253.4 75c.2 0 .4-.3.4-.6v-.9c0-.3-.2-.5-.4-.5s-.4.3-.4.6v.9c0 .3.2.5.4.5"/><path class="st1" d="M97 12.5c0 1.4-1.1 2.5-2.5 2.5S92 13.9 92 12.5s1.1-2.5 2.5-2.5 2.5 1.1 2.5 2.5"/><path class="st7" d="M110 12.5c0 1.4-1.1 2.5-2.5 2.5s-2.5-1.1-2.5-2.5 1.1-2.5 2.5-2.5 2.5 1.1 2.5 2.5m14 0c0 1.4-1.1 2.5-2.5 2.5s-2.5-1.1-2.5-2.5 1.1-2.5 2.5-2.5 2.5 1.1 2.5 2.5"/></svg>
