<?xml version="1.0" encoding="utf-8"?>
<!-- Generator: Adobe Illustrator 19.2.1, SVG Export Plug-In . SVG Version: 6.00 Build 0)  -->
<svg version="1.1" id="Layer_1" xmlns="http://www.w3.org/2000/svg" xmlns:xlink="http://www.w3.org/1999/xlink" x="0px" y="0px"
	 viewBox="0 0 1600 1168" style="enable-background:new 0 0 1600 1168;" xml:space="preserve">
<style type="text/css">
	.st0{fill:#FFFFFF;}
	.st1{fill:#CCCED0;}
	.st2{fill:#204A69;}
	.st3{fill:none;}
</style>
<g>
	<path class="st0" d="M1282.9,676.6c-32.9-89.2-192.6-155.5-332.1-119"/>
</g>
<g>
	<path class="st1" d="M1273.8,679.5c-3-2.5-5.6-5.4-7.9-8.6c-1-1.4-2-2.9-2.8-4.4c-1.1-1.4-2.2-2.8-3.3-4.2l-6-8.6
		c-2.1-2.8-4.8-5.3-7-8.1c-4.8-5.4-10-10.5-15.6-15.1c-5.5-4.8-11.2-9.2-17.2-13.4c-24.9-16.7-52.1-29.6-80.8-38.2
		c-28.9-8.9-58.7-14.4-88.9-16.3c-30.3-1.4-60.5,0-92.2-0.6c-2.7-0.1-4.9-2.4-4.8-5.1c0.1-1.8,1.1-3.4,2.6-4.2
		c29.5-15,62.6-21.9,95.6-19.8c33,0.4,65.9,5.5,97.4,15.2c32,9.5,62.1,24.2,89.2,43.7c6.8,4.9,13.4,10.3,19.6,16
		c6.2,5.7,12,11.9,17.3,18.5c2.8,3.4,5.7,6.5,8.6,10l7.1,11.1c1.2,1.8,2.2,3.7,3.2,5.6c0.7,2.2,1.6,4.2,2.1,6.4
		c1.3,4.3,2.1,8.8,2.2,13.3c0,5.5-4.5,10-10,10.1c-2.3,0.1-4.6-0.7-6.4-2.2L1273.8,679.5z"/>
</g>
<g>
	<path class="st0" d="M818.5,571.4c180.5-66.9,351.3,58.2,411.4,117.2"/>
</g>
<g>
	<path class="st1" d="M815.1,562.4c16.6-10.8,35.6-17.6,55.3-19.8c4.8-0.9,9.6-2,14.5-2.7l14.7-1.3c9.8-1.2,19.6-1.7,29.4-1.5
		c39.3-0.1,78.3,6.5,115.5,19.3c36.7,12.6,71.7,29.8,104.3,51c33.4,19.6,62.2,46.1,84.5,77.8c1.5,2.2,1,5.2-1.2,6.7c0,0,0,0,0,0
		l-0.2,0.1c-1.6,1-3.6,1-5.2,0c-32.7-19.3-62-40.6-93.5-59.5c-31.2-18.5-64.3-33.8-98.7-45.5c-34.1-11.6-69.7-18-105.7-18.9
		c-8.9-0.5-17.8-0.2-26.7,0.7l-13.4,0.8c-4.4,0.5-8.6,1.5-13.2,2.2l-13.2,2.3l-6.7,1.1l-6.4,1.9c-8.8,2.7-18.1,3.8-27.3,3.3h-1.6
		c-5.5-0.5-9.6-5.2-9.2-10.7C811.4,566.8,812.8,564.1,815.1,562.4L815.1,562.4z"/>
</g>
<g>
	<path class="st0" d="M998.5,878.2c16.5-88.3-50.8-146.9-107.3-163.4c-116-34.6-253.9,32.7-270.6-48c-14.7-70.5,282-211,568.4,75.1"
		/>
</g>
<g>
	<path class="st1" d="M989,876.4c-1.7-11-2.6-22.2-2.8-33.4c-0.9-10.7-3.3-21.2-7.2-31.2c-8-20.2-21-38.1-37.9-51.8
		c-16.9-14.1-36.6-24.4-57.7-30.4c-22.2-5.8-45-8.9-67.9-9.1c-23.3-0.5-47.1,1-71.3,2.5c-25.2,2.3-50.6,2.3-75.8,0
		c-15-1.5-29.3-6.9-41.5-15.8c-6.6-5.2-11.9-11.7-15.7-19.2c-1.8-3.6-3.3-7.2-4.5-11c-1.3-4-2.1-8.2-2.6-12.4
		c-0.4-9,1.6-17.9,5.7-25.9c3.4-6.6,7.7-12.7,12.7-18.1c9.4-9.9,20.1-18.4,31.8-25.4c22.4-13.1,46.6-23,71.9-29.1
		c24.5-6.3,49.7-10,75-11.1c50.2-1.9,100.5,4.8,148.4,20c47.5,15,92.5,37.1,133.4,65.5c40.6,27.8,77.5,60.8,109.7,98
		c1.9,1.9,1.9,4.9,0,6.7c0,0,0,0,0,0c-1.8,1.6-4.6,1.6-6.4,0c-36-31.7-74.7-60.2-115.5-85.2c-40.4-24.6-83.8-44-129.1-57.6
		c-44.9-13.6-91.8-19.5-138.6-17.3c-23.1,1.2-46.1,4.8-68.5,10.7c-22,5.6-43.1,14.3-62.6,25.9c-9.4,5.6-18,12.4-25.5,20.3
		c-5.8,5.3-9.5,12.6-10.4,20.4c0.7,3.9,1.9,7.6,3.6,11.2c1.7,3.3,4.1,6.3,7.1,8.6c7.8,5,16.7,8,25.9,8.6c23,1.8,46.1,1.6,69.1-0.6
		c24.2-1.6,48.9-3.2,74-2.7c25.6,0.2,51.1,3.7,75.9,10.2c25.6,7.2,49.2,20.2,69.1,37.8c20.5,17.5,36.2,40,45.5,65.3
		c4.8,12.8,7.8,26.2,8.7,39.8c1.5,13.4-0.9,27-7.1,39c-2.6,5-8.7,7-13.7,4.4c0,0,0,0,0,0l-0.4-0.2c-2.6-1.4-4.4-3.9-4.9-6.8
		L989,876.4z"/>
</g>
<g>
	<path class="st2" d="M1013,878.2l-110.2,77.5L568,504.2l110.1-77.5L1013,878.2z"/>
</g>
<g>
	<path class="st2" d="M546.7,542.2c-62.8,0-121.9-24.5-166.3-68.9C336,428.9,311.6,369.8,311.6,307s24.5-121.9,68.9-166.3
		s103.5-68.9,166.3-68.9S668.5,96.3,713,140.8s68.9,103.5,68.9,166.3S757.4,428.9,713,473.3C668.5,517.7,609.5,542.2,546.7,542.2z
		 M546.7,144.1c-89.8,0-162.9,73.1-162.9,162.9S456.9,470,546.7,470S709.6,396.9,709.6,307S636.5,144.1,546.7,144.1z"/>
</g>
<g>
	<path class="st0" d="M1018.2,1159.1C747.8,1046,669.3,680.4,735.3,656.6c79.6-28.7,177.7,261.1,233.2,252.6
		c31.7-4.8,40.5-30.5,39.8-56.8"/>
</g>
<g>
	<path class="st1" d="M1014.5,1168c-44.8-11.5-83.7-38.4-119-67.2c-35.1-29.5-66.2-63.4-92.8-100.7c-26.6-37.2-48.9-77.2-66.7-119.3
		c-18.4-42.2-30.8-86.8-37-132.4c-1.4-11.7-2.1-23.6-2-35.4c0-12.6,1.7-25.2,5-37.3c2-7.1,5.2-13.9,9.5-20c2.7-3.6,5.9-6.8,9.6-9.4
		c3.8-2.7,8.1-4.7,12.6-5.8c7.9-2.1,16.1-2.3,24.1-0.5c7.1,1.6,13.8,4.3,20,8.1c10.7,6.7,20.5,14.8,28.9,24.2
		c8,8.6,15.4,17.7,22.4,27.1c13.7,18.5,25.9,37.6,37.6,56.8c23.4,38.1,44.8,77.8,69.1,112.3c5.6,8.3,12.2,16,19.6,22.9
		c2.7,2.5,5.8,4.4,9.2,5.8c0.5,0.1,0.9,0.1,1.4,0h2.2c2.2-0.2,4.3-0.6,6.5-1.1c8.4-2.1,15.6-7.4,20-14.8c4.8-8.9,7.7-18.7,8.6-28.8
		c0.3-2.7,2.7-4.6,5.4-4.2h0.1c2.1,0.3,3.8,1.9,4.1,4.1c2.3,12.1,1.4,24.7-2.7,36.4c-4.9,13.1-15.1,23.5-28.2,28.7
		c-3.1,1.2-6.3,2.3-9.6,3l-2.5,0.6h-3.6c-2.3,0.1-4.6-0.1-6.8-0.5c-7.3-1.7-14.2-5-20-9.8c-9.5-7.6-18-16.3-25.5-25.9
		c-28.3-36.7-49.6-75.8-73.3-113c-11.8-18.7-23.8-37-36.8-54c-11.6-16.6-26-30.9-42.6-42.4c-5.7-4-12.8-5.5-19.7-4.2
		c-1.8,0.6-1.8,0.5-2.5,1c-0.8,0.6-1.5,1.4-2.2,2.2c-2.1,3.1-3.6,6.5-4.6,10.1c-2.4,9.4-3.6,19-3.5,28.7c0,10.4,0.6,20.8,1.9,31.2
		c6.1,42.7,17.7,84.3,34.5,124c16.5,40.1,37.4,78.3,62.3,113.9c24.6,35.5,53.6,67.7,86.4,95.9c16.4,13.9,33.7,26.6,51.8,38.1
		c18.2,11.6,36.8,22.2,55.5,33.9c4.2,3.4,4.9,9.5,1.5,13.7c-2.2,2.7-5.7,4.1-9.1,3.6L1014.5,1168z"/>
</g>
<g>
	<path class="st3" d="M0,0h1600v1168H0V0z"/>
</g>
</svg>
