<svg width="48" height="48" viewBox="0 0 48 48" fill="none" xmlns="http://www.w3.org/2000/svg">
<path fill-rule="evenodd" clip-rule="evenodd" d="M4 3H33C33.5523 3 34 3.44772 34 4V9H37V4C37 1.79086 35.2091 0 33 0H4C1.79086 0 0 1.79086 0 4V33C0 35.2091 1.79086 37 4 37H9V34H4C3.44772 34 3 33.5523 3 33V4C3 3.44772 3.44772 3 4 3ZM44 14H15C14.4477 14 14 14.4477 14 15V44C14 44.5523 14.4477 45 15 45H44C44.5523 45 45 44.5523 45 44V15C45 14.4477 44.5523 14 44 14ZM15 11C12.7909 11 11 12.7909 11 15V44C11 46.2091 12.7909 48 15 48H44C46.2091 48 48 46.2091 48 44V15C48 12.7909 46.2091 11 44 11H15ZM28.3839 35.3839L37.8839 25.8839L36.1161 24.1161L27.5 32.7322L22.8839 28.1161L21.1161 29.8839L26.6161 35.3839L27.5 36.2678L28.3839 35.3839Z" fill="#069E08"/>
</svg>
