<svg xmlns="http://www.w3.org/2000/svg" viewBox="0 0 1600 1168"><defs><style>.cls-1{fill:#CCCED0}.cls-2{fill:#fff}.cls-3{fill:#CCCED0}.cls-4{fill:#00be28}.cls-5{fill:#658eab}.cls-6{fill:none}</style></defs><title>jetpack-spam</title><g id="jetpack-spam"><g id="Layer_2" data-name="Layer 2"><g id="Layer_1-2" data-name="Layer 1-2"><path class="cls-1" d="M1234.21 618.37v419.12a75.35 75.35 0 0 1-75.35 75.36H440.65a75.36 75.36 0 0 1-75.36-75.36V618.37"/><path class="cls-2" d="M399 392.18V88.43h667.77v476.8"/><path class="cls-3" d="M396.59 392.18c-2.95-50.56-4.79-101.25-6.26-151.81s-2-101.25-3.07-151.94a11.41 11.41 0 0 1 10.52-12.24h.77l167.4-1h166.91l333.95.86a12.27 12.27 0 0 1 12.27 12.28l-2.21 238.46c-1.35 79.41-2.7 159.55-5.27 238.34a5 5 0 0 1-5.16 4.79 4.91 4.91 0 0 1-4.66-4.79c-2.7-79.41-4-158.93-5.4-238.34l-2.09-238.34 12.27 12.27-333.94 1.48H565.71L399 100.33l12.27-12.27c-1.59 51.06-1.59 101.62-3.56 152.31s-3.31 101.25-6.25 151.81a2.47 2.47 0 0 1-2.58 2.34 2.33 2.33 0 0 1-2.33-2.34z"/><path class="cls-2" d="M517.72 602.17v-390.4h667.77v400.34"/><path class="cls-3" d="M515.27 602.3c-1.85-32.53-2.95-65-4.3-98.19L507.9 407l-1.59-98.18-1.31-97.54A12.27 12.27 0 0 1 517.23 199q167.52-1.72 334.31-1.11l333.83 1.6a12.27 12.27 0 0 1 12.27 12.27l-2.46 200.17c-1.35 66.77-2.7 133.41-5.27 200.17a4.78 4.78 0 0 1-4.9 4.67h-.14a5 5 0 0 1-4.78-4.67c-2.58-66.76-3.93-133.4-5.28-200.17l-2.09-200.17 12.28 12.29-333.46 1.71q-166.9 0-333.94-1.47L529.87 212l-1.23 98.18-1.72 98.18-2.82 98.19c-1.35 32.52-2.45 65-4.29 98.18a2.34 2.34 0 0 1-2.32 2.35h-.26a2.58 2.58 0 1 1-2-4.78z"/><path class="cls-4" d="M904 287.86h214.9v226.93"/><path class="cls-1" d="M1275.69 441.52v182.87H323.81V441.52"/><path class="cls-2" d="M962 750.43v49.83a50.07 50.07 0 0 1-47.49 52.53H684.63A50.2 50.2 0 0 1 637 800.26v-49.83"/><path class="cls-5" d="M327.61 615.92c19.64-1.84 39.28-2.82 58.91-4.17l59-2.7c39.27-1.72 78.54-2.46 117.94-3.07l117.94-1.35h117.98l236.26 1.72c78.67 1.22 157.33 2.7 235.88 7.11a4.92 4.92 0 0 1 4.67 5.15 5.16 5.16 0 0 1-4.67 4.66c-78.55 4.3-157.21 5.77-235.88 7l-235.77 2H681.93L564 630.89c-39.4 0-78.67-1.35-117.94-3.07l-59-2.7c-19.63-1.35-39.27-2.33-58.91-4a2.44 2.44 0 0 1-2.21-2.67 2.34 2.34 0 0 1 1.67-2.53z"/></g></g></g><g id="clear_rectangle" data-name="clear rectangle"><path id="Layer_4" data-name="Layer 4" class="cls-6" d="M0 0h1600v1168H0z"/></g></svg>