<svg viewBox="0 0 1600 1168" xmlns="http://www.w3.org/2000/svg"><path d="m543.1 757.13v-634.13a48 48 0 0 1 48-48h709.73a48 48 0 0 1 48 48v634.13z" fill="#6f93ad"/><path d="m625.53 313.91h245.17v337.68h-245.17zm338.49 0h287.56v356.15h-287.58zm-420.92-75.44v-115.47a48 48 0 0 1 48-48h709.73a48 48 0 0 1 48 48v115.47z" fill="#46799a"/><path d="m250 1119.17v-627.52a47.69 47.69 0 0 1 47.91-47.47h709.81a47.69 47.69 0 0 1 47.84 47.47v627.52z" fill="#ccced0"/><path d="m856.27 602.5h-520.06v-19.65a42.47 42.47 0 0 1 42.17-42.55h477.89zm-297.72 125.12h-222.34v-62.12h280.34v4.12a58 58 0 0 1 -58 58z" fill="#e1e2e2"/><path d="m250 830.51h426.32v288.66h-426.32z" fill="#6f93ad"/><path d="m652.84 830.51h398v288.66h-398z" fill="#fff"/><path d="m1050.87 830.51v284.49h-398" fill="none" stroke="#ccced0" stroke-miterlimit="10" stroke-width="11.41"/><path d="m978.67 881.37v172.37h-182.09" fill="#00be28"/><path d="m1071.48 833.09c-35 4.56-70.07 6.62-105 7.8s-70.07 1-105 1.47c-70.07.89-139.84 1-210.13 1.33s-139.84-.44-210.06-1.33c-35-.44-70-.51-105-1.47s-70-2.87-105-7.8v-5.74c35-4.64 70-6.7 105-7.88s70.06-1 105-1.47c70.07-.88 139.85-1 210.06-1.32s139.84.44 210.13 1.32c35 .44 70 .52 105 1.47a1008.55 1008.55 0 0 1 105 7.88z" fill="#204a69"/><path d="m0 0h1600v1168h-1600z" fill="none"/></svg>