<svg width="49" height="51" viewBox="0 0 49 51" fill="none" xmlns="http://www.w3.org/2000/svg">
<rect width="48.9172" height="50.1767" fill="#fff"/>
<path fill-rule="evenodd" clip-rule="evenodd" d="M24.4586 8.36279C31.8777 8.36279 38.0535 13.7777 39.4395 20.9906C44.7388 21.3669 48.9172 25.841 48.9172 31.3605C48.9172 37.1308 44.3516 41.814 38.7261 41.814H12.2293C5.4828 41.814 0 36.19 0 29.2698C0 22.8095 4.76943 17.4782 10.9045 16.8092C13.4522 11.7915 18.5682 8.36279 24.4586 8.36279ZM20.3822 16.7257L20.3822 25.0885H14.2675L24.4586 35.542L34.6497 25.0885L28.5351 25.0885V16.7257H20.3822Z" fill="#A7AAAD"/>
<mask id="mask0" mask-type="alpha" maskUnits="userSpaceOnUse" x="0" y="8" width="49" height="34">
<path fill-rule="evenodd" clip-rule="evenodd" d="M24.4586 8.36279C31.8777 8.36279 38.0535 13.7777 39.4395 20.9906C44.7388 21.3669 48.9172 25.841 48.9172 31.3605C48.9172 37.1308 44.3516 41.814 38.7261 41.814H12.2293C5.4828 41.814 0 36.19 0 29.2698C0 22.8095 4.76943 17.4782 10.9045 16.8092C13.4522 11.7915 18.5682 8.36279 24.4586 8.36279ZM21.1265 17.7325V24.9342H15.8985L24.6118 33.9363L33.3252 24.9342H28.0972L28.0972 17.7325L21.1265 17.7325Z" fill="#fff"/>
</mask>
<g mask="url(#mask0)">
<rect width="48.9172" height="50.1767" fill="#069E08"/>
</g>
</svg>
