<svg width="48" height="48" viewBox="0 0 48 48" fill="none" xmlns="http://www.w3.org/2000/svg">
<path fill-rule="evenodd" clip-rule="evenodd" d="M33 3H4C3.44772 3 3 3.44772 3 4V33C3 33.5523 3.44772 34 4 34H9V37H4C1.79086 37 0 35.2091 0 33V4C0 1.79086 1.79086 0 4 0H33C35.2091 0 37 1.79086 37 4V9H34V4C34 3.44772 33.5523 3 33 3ZM15 14H44C44.5523 14 45 14.4477 45 15V44C45 44.5523 44.5523 45 44 45H15C14.4477 45 14 44.5523 14 44V15C14 14.4477 14.4477 14 15 14ZM11 15C11 12.7909 12.7909 11 15 11H44C46.2091 11 48 12.7909 48 15V44C48 46.2091 46.2091 48 44 48H15C12.7909 48 11 46.2091 11 44V15Z" fill="black"/>
</svg>
