<svg xmlns="http://www.w3.org/2000/svg" width="85" height="85" fill="none"><mask id="A" mask-type="alpha" maskUnits="userSpaceOnUse" x="7" y="7" width="71" height="71"><path d="M7.508 47.905c2.628 16.933 17.36 29.998 34.995 29.998 19.476 0 35.4-15.934 35.4-35.41s-15.93-35.4-35.406-35.4c-11.68 0-21.958 5.67-28.34 14.167V7.087l-7.073-.004-.01 24.792h24.792v-7.083l-11.33-.003c4.955-6.368 13.108-10.62 21.962-10.62 15.576 0 28.326 12.75 28.326 28.326s-12.75 28.33-28.33 28.33c-13.735 0-25.26-9.895-27.8-22.918H7.508z" fill="#fff"/></mask><g mask="url(#A)"><path fill="#069e08" d="M0 0h85v85H0z"/></g><path fill-rule="evenodd" d="M41.818 49.046L32.272 39.5 29.1 42.682 41.818 55.4 60.9 36.318l-3.182-3.182-15.9 15.9z" fill="#d8d8d8"/><mask id="B" mask-type="alpha" maskUnits="userSpaceOnUse" x="29" y="33" width="32" height="23"><path fill-rule="evenodd" d="M41.818 49.046L32.272 39.5 29.1 42.682 41.818 55.4 60.9 36.318l-3.182-3.182-15.9 15.9z" fill="#fff"/></mask><g mask="url(#B)"><path fill="#069e08" d="M27 26h36v36H27z"/></g></svg>