<svg viewBox="0 0 1409.1 643" xmlns="http://www.w3.org/2000/svg"><path d="m1395.5 56.5c-9.8-.3-19.6-1.2-29.2-2.8-11.2-1.8-22.2-4.5-32.9-8.1-10.8-3.7-21.2-8.6-30.8-14.7-8.2-5.2-15.6-11.6-22.1-19-6.1 6.4-12.8 12.2-20 17.4-8.6 6.2-17.9 11.5-27.6 15.8-9.8 4.3-20 7.4-30.6 9.2-9.3 1.5-18.8 2-28.2 1.5-1.7 10.9-2.8 21.9-3.3 32.9-.3 7.1-.4 14.9-.1 23.2.1 3.8.3 7.6.6 11.6 3.2 48.2 18.7 108.9 71.1 143.2 12 7.7 25.3 13.6 39 17.7.3-.1.6-.2.9-.3 2-.7 4-1.4 6-2.1 8.8-3.3 17.3-7.3 25.5-11.9 10.2-5.9 20.1-12.3 28.8-20 17.6-15.6 31.2-35.2 39.6-57.2 2.4-5.4 4-11.1 5.8-16.6 1.4-5.7 3.2-11.4 4.3-17.2 2.7-11.5 4-23.4 5.1-35.2 1.6-22.4.5-44.9-1.9-67.4zm-41.9 45.7c-10.4 16.6-23 31.2-35.7 45.8-9.6 11-19 22-28.6 32.9-2.7 3-5.3 6.1-8 9.1-.5.5-1 1.1-1.4 1.6-2 2.2-5.4 2.6-7.8.7-6.3-4.9-12.4-10.2-18.7-15.3l-9.3-7.7c-3-2.7-6.6-4.6-8.3-8.9-.8-2 .2-4.3 2.3-5.1.6-.2 1.3-.3 1.9-.3 4.6.7 7.2 3.8 10.5 6.1l9.6 7.4c4.9 3.8 9.9 7.6 14.8 11.4 2.1-2.3 4.2-4.7 6.3-7 2.8-3.1 5.5-6.2 8.3-9.3 6.8-7.6 13.7-15.2 20.6-22.7 12.9-14.4 25.9-28.6 41.1-41 .7-.6 1.8-.5 2.4.3.3.6.4 1.4 0 2z" fill="#fff"/><path d="m1286.5 479.3c0-.6-.5-1.2-1.2-1.2s-1.2.5-1.2 1.2l-1.4 78.2-1 74.4c-34.2-1.2-68.5-1.5-102.7-2.1l-106.3-.7c-35.4-.1-70.9-.2-106.3.1l-100.4.5c-.2-16.4-.6-32.9-1-49.3-.6-18.4-1.3-36.9-2.6-55.3-.1-1.2-1-2.1-2.2-2.2-1.3-.1-2.4.9-2.5 2.2-1.3 18.4-1.9 36.9-2.6 55.3-.4 18.4-.9 36.9-1.1 55.3 0 3.3 2.6 6 5.9 6h.1l106.3.5c35.4.3 70.9.2 106.3.1l106.3-.7c35.4-.6 70.9-1 106.3-2.3h.2c2-.1 3.5-1.7 3.5-3.6l-1.1-78.2z" fill="#c3c4c7"/><path d="m1297.8 392.2-16.5 24.5c-.9 1.4-.5 3.2.8 4.1.5.3 1.1.5 1.6.5 1 0 1.9-.5 2.4-1.3l16.5-24.6c.5-1.2.3-2.5-.7-3.4-1-1.1-2.9-1-4.1.2z" fill="#c3c4c7"/><path d="m1220 518 16.5-24.5c.5-1.2.3-2.5-.7-3.4-1.2-1.1-3.1-1.1-4.2.1l-16.5 24.5c-.9 1.4-.5 3.2.8 4.1.5.3 1.1.5 1.6.5 1.1 0 2-.5 2.5-1.3z" fill="#c3c4c7"/><path d="m1253.1 469 16.5-24.5c.2-.2.4-.5.6-.8.7-1.5 0-3.3-1.5-4s-3.3 0-4 1.5l-16.5 24.5c-.9 1.4-.5 3.2.8 4.1.5.3 1.1.5 1.6.5 1 0 1.9-.5 2.5-1.3z" fill="#c3c4c7"/><path d="m1129.4 487.2c-1.2 1.1-1.3 3-.2 4.2l23.5 18c.5.4 1.1.6 1.8.6.8 0 1.6-.4 2.2-1.1 1.1-1.3.9-3.2-.4-4.2l-23.5-18c-1.1-.6-2.5-.4-3.4.5z" fill="#c3c4c7"/><path d="m1011.6 558.4c-1.2-1.2-3.1-1.1-4.2 0l-3.2 4.7c-1.7-.6-3.5-.9-5.5-.9-9.1 0-16.5 7.4-16.5 16.5s7.4 16.5 16.5 16.5 16.5-7.4 16.5-16.5c0-5.1-2.3-9.6-5.9-12.7l2.9-4.3c.5-1.1.3-2.5-.6-3.3z" fill="#c3c4c7"/><path d="m1028.9 537.3 16.6-24.4c.5-1.1.3-2.5-.6-3.4-1.2-1.2-3.1-1.1-4.2 0l-16.7 24.5c-.3.5-.5 1-.5 1.5 0 1.7 1.3 3 2.9 3.1 1 0 1.9-.5 2.5-1.3z" fill="#c3c4c7"/><path d="m1166.9 200.6c.1-1.3-.8-2.5-2.1-2.6-19.1-2.1-38.1-2.9-57.2-3.4s-38.1-.8-57.2-.9l-28.6.1-28.6.6c-19.1.6-38.1 1.6-57.2 4.8-.5.1-.9.5-1 1-.1.7.3 1.3 1 1.4 19.1 3.1 38.1 4.2 57.2 4.8l28.6.6 28.6.1c19.1-.1 38.1-.4 57.2-.9s38.1-1.4 57.2-3.4c1.1-.2 2-1.1 2.1-2.2z" fill="#c3c4c7"/><path d="m1332.5 328.8c-9.1 0-16.5 7.4-16.5 16.5 0 4.8 2 9.1 5.3 12.1l-6.9 10.3c-.3.5-.5 1-.5 1.5 0 1.7 1.3 3 2.9 3.1 1 0 1.9-.5 2.5-1.3l7-10.4c1.9.8 4 1.2 6.3 1.2 9.1 0 16.5-7.4 16.5-16.5s-7.4-16.5-16.6-16.5z" fill="#c3c4c7"/><path d="m1198.9 518.2c-6.1 0-11.5 3.3-14.3 8.3l-4.8-3.7c-1.1-.6-2.5-.4-3.4.5-1.2 1.1-1.3 3-.2 4.2l6.4 4.9c-.1.8-.2 1.6-.2 2.4 0 9.1 7.4 16.5 16.5 16.5s16.5-7.4 16.5-16.5-7.4-16.6-16.5-16.6z" fill="#c3c4c7"/><path d="m1404.8 50.8c-.4-2.5-2.5-4.4-5-4.4-10.7 0-21.4-.9-32-2.6s-21.1-4.2-31.3-7.6c-10.1-3.4-19.8-7.9-28.8-13.6-8.9-5.6-16.8-12.7-23.4-20.9-.2-.2-.4-.5-.6-.7-2-1.7-5-1.5-6.7.5v.1c-6.5 7.5-13.9 14.2-21.9 20.1-8 6-16.7 11.1-25.8 15.2-18.2 8.3-38.2 12-58.2 10.5h-.2c-2-.1-3.7 1.3-4 3.2-3 20.2-4.2 40.7-3.4 61.2l-90.8-.4-106.3-.4-106.3.1h-.1c-3.6 0-6.5 3-6.4 6.6.4 38.3.4 76.6 1.3 115 .3 19.2.7 38.3 1.5 57.5.6 19.2 1.5 38.3 2.7 57.5 0 .6.5 1.2 1.2 1.2s1.2-.5 1.2-1.2c1.2-19.2 2.1-38.3 2.7-57.5.8-19.2 1.2-38.3 1.5-57.5.8-36.1.9-72.3 1.2-108.4l99.8.1 106.3-.4 91.5-.4c1.8 23.7 6.2 47.3 14.6 69.6 8.5 22.5 21.8 43.5 39.4 60s39.8 27.7 62.8 33.8c.3.1.6 0 .8-.1h.5l.6 48.5c.1 1.2 1 2.1 2.2 2.2 1.3.1 2.4-.9 2.5-2.2l.6-49c22.5-2.8 43.8-13.7 61-28.5 19.1-16.5 34.1-37.3 43.5-60.7 10-23.1 14.1-48 15.7-72.7 1.2-24.7-.4-49.5-3.9-73.7zm-183.7 199.1c-16.9-16.2-29-36.8-36.9-58.9-7.8-21.7-11.8-44.6-13.2-67.7h.2c-.3-3.9-.4-7.8-.6-11.6h-.2c-.2-7.7-.1-15.5.3-23.2.5-11 1.6-22 3.3-32.9 9.4.6 18.9.1 28.2-1.5 10.5-1.8 20.8-4.9 30.6-9.2 9.7-4.3 19-9.6 27.6-15.8 7.2-5.2 13.9-11 20-17.4 6.4 7.3 13.8 13.7 22.1 19 9.7 6.1 20 11.1 30.8 14.7 10.7 3.6 21.7 6.4 32.9 8.1 9.7 1.6 19.4 2.5 29.2 2.8 2.5 22.4 3.5 45 1.9 67.3-1.1 11.8-2.4 23.7-5.1 35.2-1.1 5.8-2.9 11.4-4.3 17.2-1.8 5.6-3.5 11.3-5.8 16.6-8.5 21.9-22.1 41.5-39.6 57.2-8.8 7.7-18.6 14.1-28.8 20-8.2 4.6-16.7 8.6-25.5 11.9-2 .7-4 1.5-6 2.1-.3.1-.6.2-.9.3-13.8-4.1-27-10.1-39-17.7-7.5-4.6-14.7-10.2-21.2-16.5z" fill="#c3c4c7"/><path d="m1317.9 148c12.7-14.6 25.3-29.2 35.7-45.8.4-.6.3-1.4-.1-2-.6-.7-1.7-.9-2.4-.3-15.2 12.4-28.1 26.6-41.1 41-6.9 7.5-13.7 15.1-20.6 22.7-2.8 3.1-5.5 6.2-8.3 9.3-2.1 2.3-4.2 4.7-6.3 7-4.9-3.8-9.9-7.6-14.8-11.4l-9.6-7.4c-3.3-2.3-5.9-5.4-10.5-6.1-.6-.1-1.3 0-1.9.3-2 .8-3 3.1-2.3 5.1 1.7 4.3 5.3 6.2 8.3 8.9l9.3 7.7c6.2 5.1 12.3 10.3 18.7 15.3 2.4 1.8 5.8 1.5 7.8-.7.5-.5 1-1.1 1.4-1.6 2.7-3 5.3-6.1 8-9.1 9.7-10.9 19.1-21.9 28.7-32.9z" fill="#c3c4c7"/><path d="m1072.7 232.7c-70.9 0-128.3 57.4-128.3 128.3s57.4 128.3 128.3 128.3 128.3-57.4 128.3-128.3-57.4-128.3-128.3-128.3z" fill="#2fb41f"/><path d="m1066.2 382.5h-64l64-124.4z" fill="#fff"/><path d="m1079.2 463.9v-124.4h64z" fill="#fff"/><path d="m541.9 56.5c-9.8-.3-19.6-1.2-29.2-2.8-11.2-1.8-22.2-4.5-32.9-8.1-10.8-3.7-21.2-8.6-30.8-14.7-8.2-5.2-15.6-11.6-22.1-19-6.1 6.4-12.8 12.2-20 17.4-8.6 6.2-17.9 11.5-27.6 15.8-9.8 4.3-20 7.4-30.6 9.2-9.3 1.5-18.8 2-28.2 1.5-1.7 10.9-2.8 21.9-3.3 32.9-.3 7.1-.4 14.9-.1 23.2.1 3.8.3 7.6.6 11.6 3.2 48.2 18.7 108.9 71.1 143.2 12 7.7 25.3 13.6 39 17.7.3-.1.6-.2.9-.3 2-.7 4-1.4 6-2.1 8.8-3.3 17.3-7.3 25.5-11.9 10.2-5.9 20.1-12.3 28.8-20 17.6-15.6 31.2-35.2 39.6-57.2 2.4-5.4 4-11.1 5.8-16.6 1.4-5.7 3.2-11.4 4.3-17.2 2.7-11.5 4-23.4 5.1-35.2 1.6-22.4.5-44.9-1.9-67.4zm-41.9 45.7c-10.4 16.6-23 31.2-35.7 45.8-9.6 11-19 22-28.6 32.9-2.7 3-5.3 6.1-8 9.1-.5.5-1 1.1-1.4 1.6-2 2.2-5.4 2.6-7.8.7-6.3-4.9-12.4-10.2-18.7-15.3l-9.3-7.7c-3-2.7-6.6-4.6-8.3-8.9-.8-2 .2-4.3 2.3-5.1.6-.2 1.3-.3 1.9-.3 4.6.7 7.2 3.8 10.5 6.1l9.6 7.4c4.9 3.8 9.9 7.6 14.8 11.4 2.1-2.3 4.2-4.7 6.3-7 2.8-3.1 5.5-6.2 8.3-9.3 6.8-7.6 13.7-15.2 20.6-22.7 12.9-14.4 25.9-28.6 41.1-41 .7-.6 1.8-.5 2.4.3.3.6.4 1.4 0 2z" fill="#fff"/><g fill="#c3c4c7"><path d="m432.9 479.3c0-.6-.5-1.2-1.2-1.2s-1.2.5-1.2 1.2l-1.4 78.2-1 74.4c-34.2-1.2-68.5-1.5-102.7-2.1l-106.3-.7c-35.4-.1-70.9-.2-106.3.1l-100.4.5c-.2-16.4-.6-32.9-1-49.3-.6-18.4-1.3-36.9-2.6-55.3-.1-1.2-1-2.1-2.2-2.2-1.3-.1-2.4.9-2.5 2.2-1.3 18.4-1.9 36.9-2.6 55.3-.4 18.4-.9 36.9-1.1 55.3 0 3.3 2.6 6 5.9 6h.1l106.3.5c35.4.3 70.9.2 106.3.1l106.3-.7c35.4-.6 70.9-1 106.3-2.3h.2c2-.1 3.5-1.7 3.5-3.6l-1.1-78.2z"/><path d="m444.2 392.2-16.5 24.5c-.9 1.4-.5 3.2.8 4.1.5.3 1.1.5 1.6.5 1 0 1.9-.5 2.4-1.3l16.5-24.6c.5-1.2.3-2.5-.7-3.4-1-1.1-2.9-1-4.1.2z"/><path d="m366.4 518 16.5-24.5c.5-1.2.3-2.5-.7-3.4-1.2-1.1-3.1-1.1-4.2.1l-16.5 24.5c-.9 1.4-.5 3.2.8 4.1.5.3 1.1.5 1.6.5 1.1 0 2-.5 2.5-1.3z"/><path d="m399.5 469 16.5-24.5c.2-.2.4-.5.6-.8.7-1.5 0-3.3-1.5-4s-3.3 0-4 1.5l-16.5 24.5c-.9 1.4-.5 3.2.8 4.1.5.3 1.1.5 1.6.5 1 0 1.9-.5 2.5-1.3z"/><path d="m275.8 487.2c-1.2 1.1-1.3 3-.2 4.2l23.5 18c.5.4 1.1.6 1.8.6.8 0 1.6-.4 2.2-1.1 1.1-1.3.9-3.2-.4-4.2l-23.5-18c-1.1-.6-2.5-.4-3.4.5z"/><path d="m158 558.4c-1.2-1.2-3.1-1.1-4.2 0l-3.2 4.7c-1.7-.6-3.5-.9-5.5-.9-9.1 0-16.5 7.4-16.5 16.5s7.4 16.5 16.5 16.5 16.5-7.4 16.5-16.5c0-5.1-2.3-9.6-5.9-12.7l2.9-4.3c.5-1.1.3-2.5-.6-3.3z"/><path d="m175.3 537.3 16.6-24.4c.5-1.1.3-2.5-.6-3.4-1.2-1.2-3.1-1.1-4.2 0l-16.7 24.5c-.3.5-.5 1-.5 1.5 0 1.7 1.3 3 2.9 3.1 1 0 1.9-.5 2.5-1.3z"/><path d="m313.3 200.6c.1-1.3-.8-2.5-2.1-2.6-19.1-2.1-38.1-2.9-57.2-3.4s-38.1-.8-57.2-.9l-28.6.1-28.6.6c-19.1.6-38.1 1.6-57.2 4.8-.5.1-.9.5-1 1-.1.7.3 1.3 1 1.4 19.1 3.1 38.1 4.2 57.2 4.8l28.6.6 28.6.1c19.1-.1 38.1-.4 57.2-.9s38.1-1.4 57.2-3.4c1.1-.2 2-1.1 2.1-2.2z"/><path d="m478.9 328.8c-9.1 0-16.5 7.4-16.5 16.5 0 4.8 2 9.1 5.3 12.1l-6.9 10.3c-.3.5-.5 1-.5 1.5 0 1.7 1.3 3 2.9 3.1 1 0 1.9-.5 2.5-1.3l7-10.4c1.9.8 4 1.2 6.3 1.2 9.1 0 16.5-7.4 16.5-16.5s-7.4-16.5-16.6-16.5z"/><path d="m345.3 518.2c-6.1 0-11.5 3.3-14.3 8.3l-4.8-3.7c-1.1-.6-2.5-.4-3.4.5-1.2 1.1-1.3 3-.2 4.2l6.4 4.9c-.1.8-.2 1.6-.2 2.4 0 9.1 7.4 16.5 16.5 16.5s16.5-7.4 16.5-16.5-7.4-16.6-16.5-16.6z"/><path d="m551.2 50.8c-.4-2.5-2.5-4.4-5-4.4-10.7 0-21.4-.9-32-2.6s-21.1-4.2-31.3-7.6c-10.1-3.4-19.8-7.9-28.8-13.6-8.9-5.6-16.8-12.7-23.4-20.9-.2-.2-.4-.5-.6-.7-2-1.7-5-1.5-6.7.5v.1c-6.5 7.5-13.9 14.2-21.9 20.1-8 6-16.7 11.1-25.8 15.2-18.2 8.3-38.2 12-58.2 10.5h-.2c-2-.1-3.7 1.3-4 3.2-3 20.2-4.2 40.7-3.4 61.2l-90.8-.4-106.3-.4-106.3.1h-.1c-3.6 0-6.5 3-6.4 6.6.4 38.3.4 76.6 1.3 115 .3 19.2.7 38.3 1.5 57.5.6 19.2 1.5 38.3 2.7 57.5 0 .6.5 1.2 1.2 1.2s1.2-.5 1.2-1.2c1.2-19.2 2.1-38.3 2.7-57.5.8-19.2 1.2-38.3 1.5-57.5.8-36.1.9-72.3 1.2-108.4l99.8.1 106.3-.4 91.5-.4c1.8 23.7 6.2 47.3 14.6 69.6 8.5 22.5 21.8 43.5 39.4 60s39.8 27.7 62.8 33.8c.3.1.6 0 .8-.1h.5l.6 48.5c.1 1.2 1 2.1 2.2 2.2 1.3.1 2.4-.9 2.5-2.2l.6-49c22.5-2.8 43.8-13.7 61-28.5 19.1-16.5 34.1-37.3 43.5-60.7 10-23.1 14.1-48 15.7-72.7 1.2-24.7-.4-49.5-3.9-73.7zm-183.7 199.1c-16.9-16.2-29-36.8-36.9-58.9-7.8-21.7-11.8-44.6-13.2-67.7h.2c-.3-3.9-.4-7.8-.6-11.6h-.2c-.2-7.7-.1-15.5.3-23.2.5-11 1.6-22 3.3-32.9 9.4.6 18.9.1 28.2-1.5 10.5-1.8 20.8-4.9 30.6-9.2 9.7-4.3 19-9.6 27.6-15.8 7.2-5.2 13.9-11 20-17.4 6.4 7.3 13.8 13.7 22.1 19 9.7 6.1 20 11.1 30.8 14.7 10.7 3.6 21.7 6.4 32.9 8.1 9.7 1.6 19.4 2.5 29.2 2.8 2.5 22.4 3.5 45 1.9 67.3-1.1 11.8-2.4 23.7-5.1 35.2-1.1 5.8-2.9 11.4-4.3 17.2-1.8 5.6-3.5 11.3-5.8 16.6-8.5 21.9-22.1 41.5-39.6 57.2-8.8 7.7-18.6 14.1-28.8 20-8.2 4.6-16.7 8.6-25.5 11.9-2 .7-4 1.5-6 2.1-.3.1-.6.2-.9.3-13.8-4.1-27-10.1-39-17.7-7.5-4.6-14.7-10.2-21.2-16.5z"/><path d="m464.3 148c12.7-14.6 25.3-29.2 35.7-45.8.4-.6.3-1.4-.1-2-.6-.7-1.7-.9-2.4-.3-15.2 12.4-28.1 26.6-41.1 41-6.9 7.5-13.7 15.1-20.6 22.7-2.8 3.1-5.5 6.2-8.3 9.3-2.1 2.3-4.2 4.7-6.3 7-4.9-3.8-9.9-7.6-14.8-11.4l-9.6-7.4c-3.3-2.3-5.9-5.4-10.5-6.1-.6-.1-1.3 0-1.9.3-2 .8-3 3.1-2.3 5.1 1.7 4.3 5.3 6.2 8.3 8.9l9.3 7.7c6.2 5.1 12.3 10.3 18.7 15.3 2.4 1.8 5.8 1.5 7.8-.7.5-.5 1-1.1 1.4-1.6 2.7-3 5.3-6.1 8-9.1 9.7-10.9 19.1-21.9 28.7-32.9z"/><path d="m219.1 232.7c-70.9 0-128.3 57.4-128.3 128.3s57.4 128.3 128.3 128.3 128.3-57.4 128.3-128.3-57.4-128.3-128.3-128.3z"/></g><path d="m212.6 382.5h-64l64-124.4z" fill="#fff"/><path d="m225.6 463.9v-124.4h64z" fill="#fff"/><circle cx="583.8" cy="361" fill="#c3c4c7" r="18.7"/><circle cx="666.7" cy="361" fill="#c3c4c7" r="18.7"/><circle cx="747.7" cy="361" fill="#c3c4c7" r="18.7"/></svg>
