<svg viewBox="0 0 3272 624.62" xmlns="http://www.w3.org/2000/svg"><g transform="translate(-46 -2945.52)"><path d="m575.72 3357.78c-192.11 86.34-352.08 157.72-402.05 180.12l2 .44 140.06-51-114.44 56.49 7.42 1.6 110.15-49.66-90.6 53.87 8.09 1.74c72.62-35.87 202-99.72 350.27-172.22l-10.91-21.4z" fill="#f6f7f7"/><path d="m695.35 3028.07-.67-.15c-5-3.18-11.26-6.66-16.75-10.66l4.1-2.65c2.21 6.12 3.75 12.09 5.28 18.07l.38 1.49-1 1.2-11.69 15.13-3.7-5.73 18.6-4.46 1.49-.38 1.2 1 15.11 11.72-5.73 3.7c-1.54-6-2.93-12.62-4.46-18.6l-.38-1.49 1-1.2c3.86-4.81 8.39-9.48 12.25-14.29l2.65 4.1c-5.3 1.68-11.8 2.4-17.63 3.26zm-1.06-1.64c6.79-2.07 12.91-4.28 18.21-6l6.79-2.07-4.15 6.16c-4 5.49-7.19 10.45-11.19 15.93l.58-2.7c1.54 6 2.93 12.62 4.46 18.6l2.69 10.45-8.57-6.08-15.11-11.66 3.37.73-18.6 4.46-11.13 2.54 6.75-8.42 11.72-15.11-.58 2.7c-1.54-6-2.25-12.48-3.64-19.12l-1.25-7.32 5.34 4.68a55.38 55.38 0 0 1 14.29 12.25zm23.54 287.23 13 18.31c251-123.76 543.3-266.12 711.52-346.31-170.62 78.26-468.4 213.11-724.5 328z" fill="#f6f7f7"/><path d="m1486.19 2965.47c-4.33-9.4-64.36 7.31-64.36 7.31s14.69 3.87 19.16 12.59c1.64-1.06 4-2 5.59-3-1.64 1.06-4 2-5.59 3a.68.68 0 0 1 .53.82c4.33 9.4-2.24 23.5-2.24 23.5s51.23-34.82 46.91-44.22z" fill="#004e6e"/><path d="m1485.22 2966.68c-1.2-1-4-.87-6.36 0a32.21 32.21 0 0 0 -7.47 1.92c-5.15 1-10.45 2.69-15.61 3.7-10.45 2.69-20.91 5.38-31.51 8.74l.21-14.06c2.7.58 4.57 1.69 6.6 2.13 1.88 1.11 3.9 1.54 6.45 2.8a27.8 27.8 0 0 1 11.07 10.85l-9.82-3.52 5.59-3a7.86 7.86 0 1 1 6.83 14.17l-5.59 3 3.67-10.5a23.31 23.31 0 0 1 2.3 9 35.58 35.58 0 0 1 -.25 7.71l-1.6 7.42c-.58 2.7-1.69 4.57-2.94 7.13l-10.83-8.68c9-5.82 17.5-12.46 26.51-18.28 4.24-3.32 8.48-6.64 12.58-9.28 1.78-1.73 4.24-3.32 5.35-5.2a5.23 5.23 0 0 0 1.93-2.41 2.14 2.14 0 0 0 1-1.2l1.93-2.41zm3.28-2.12c1.44 3.13.33 5 0 6.36a10 10 0 0 1 -2.36 4.43 42.18 42.18 0 0 1 -5.11 7.36 165 165 0 0 1 -11.81 12.27 192.17 192.17 0 0 1 -25.74 21.27 7.49 7.49 0 0 1 -10.26-1.5 5.56 5.56 0 0 1 -.72-6.5l.15-.67c.29-1.35 1.4-3.23 1.69-4.57l1-4.72c.05-3.52 0-6.36-1.25-7.32-2.12-3.28-1.92-7.47 1.36-9.58l.82-.53.82-.53 5.59-3 6.83 14.17-5.59 3c-4 2-7.85.43-9.82-3.52a19.91 19.91 0 0 0 -5.87-5.5c-1.2-1-2.55-1.25-4.43-2.36a11.74 11.74 0 0 0 -4.57-1.69l-.67-.15c-3.9-1.54-5.87-5.5-4.33-9.4a6 6 0 0 1 5.21-4.52c11.13-2.54 21.58-5.23 33.1-6.28a72.74 72.74 0 0 1 17.05-.56 36.43 36.43 0 0 1 8.91 1.21 13.46 13.46 0 0 1 4.57 1.69 6 6 0 0 1 4.14 3.71l1.25-2.55z" fill="#004e6e"/><path d="m1441.52 2986.19a30 30 0 0 0 5.59-3 30 30 0 0 1 -5.59 3z" fill="#004e6e"/><path d="m1442.87 2986.48.29-1.35-2-.44a10.25 10.25 0 0 1 .2-4.19l.44-2a9.52 9.52 0 0 1 2.6-2.26l6.83 14.17a2.41 2.41 0 0 0 -1.2-1c-.53-.82-3.08-2.07-5.1-2.51zm-3.9-1.54c-.38-1.49-.77-3 .34-4.86a12.37 12.37 0 0 1 4.39-4c4-2 8.67-1 10.64 3a7.5 7.5 0 0 1 -2.18 10.11l-1.64 1.06a5.23 5.23 0 0 1 -3 .77l-2-.44a6.3 6.3 0 0 1 -2.94-2.75l-2-.44.29-1.35-1.88-1.11z" fill="#004e6e"/><g fill="#dcdcde"><path d="m190.94 3085.53c-2.35-5.88-8.82-12.94-15.29-15.29l-54.65-19.41c-5.88-2.35-5.88-5.88 0-7.64l54.69-19.41c5.88-2.35 12.94-8.82 15.29-15.29l19.41-54.69c2.35-5.88 5.88-5.88 7.64 0l19.41 54.69c2.35 5.88 8.82 12.94 15.29 15.29l54.69 19.41c5.88 2.35 5.88 5.88 0 7.64l-54.69 19.41c-5.88 2.35-12.94 8.82-15.29 15.29l-19.44 54.69c-2.35 5.88-5.88 5.88-7.64 0z"/><path d="m190.35 3085.53c-2.35-5.88-7.06-10-12.35-12.94-5.29-2.35-11.76-4.12-17.64-5.88l-35.87-11.71-4.7-1.76a9.35 9.35 0 0 1 -5.29-3.53 6.25 6.25 0 0 1 -.59-4.7 12.83 12.83 0 0 1 2.35-2.94 34.67 34.67 0 0 1 4.7-2.35l17.64-6.47 35.28-12.94c4.7-1.76 9.41-6.47 12.35-11.17a34 34 0 0 0 2.94-8.23l2.94-8.82 12.35-35.28 1.76-4.7a9.35 9.35 0 0 1 3.53-5.29 4.38 4.38 0 0 1 5.29-.59 4.83 4.83 0 0 1 2.94 2.94 20.89 20.89 0 0 1 2.35 5.29l6.47 17.64 12.35 35.28a22.9 22.9 0 0 0 10.58 11.76 34 34 0 0 0 8.27 2.86l8.82 2.94 35.28 12.35 4.7 1.76a9.35 9.35 0 0 1 5.29 3.53 4.38 4.38 0 0 1 .59 5.29 4.83 4.83 0 0 1 -2.94 2.94 20.89 20.89 0 0 1 -5.29 2.35l-17.64 6.47-35.3 12.37a25 25 0 0 0 -12.35 11.17c-1.18 2.35-2.35 5.29-3.53 8.23l-2.94 8.82-12.94 35.28-1.76 4.7c-.59 1.76-1.18 3.53-2.94 4.7-1.18.59-2.94 1.18-4.12.59s-1.76-1.76-2.35-2.35a34.67 34.67 0 0 1 -2.35-4.7l-5.88-17.64zm1.76-.59 12.94 35.28 6.47 17.64a28.66 28.66 0 0 0 1.76 4.12l.59.59c1.18-1.18 2.35-4.7 2.94-7.64l12.35-35.87 2.94-8.82c1.18-2.94 1.76-5.88 3.53-9.41 3.53-5.88 8.23-11.17 15.29-13.53l35.28-12.35 17.64-6.47a9.57 9.57 0 0 0 3.53-1.76.58.58 0 0 0 .59-.59v.59c-.59-.59-4.12-1.76-7.06-2.94l-35.28-12.35-8.82-2.94c-2.94-1.18-5.88-1.76-9.41-3.53a32.32 32.32 0 0 1 -14.11-15.29l-12.35-35.28-6.47-17.64a9.57 9.57 0 0 0 -1.76-3.53.58.58 0 0 0 -.59-.59h1.18c-.59.59-1.76 4.12-2.94 7.06l-12.35 35.31-2.94 8.82c-1.18 2.94-1.76 5.88-3.53 9.41-3.53 5.88-8.82 11.17-15.29 13.53l-35.87 12.35-17.65 5.89a9.57 9.57 0 0 0 -3.53 1.76.58.58 0 0 0 -.59.59c.59 1.18 4.12 2.35 7.06 3.53l35.28 12.94c5.88 2.35 11.76 4.12 17.64 7.06a31.27 31.27 0 0 1 13.53 14.11z"/><path d="m1600.17 3299c-1.38-3.45-4.83-7.59-9-9l-19.31-6.9c-3.45-1.38-3.45-3.45 0-4.83l19.31-6.9c3.45-1.38 7.59-4.83 9-9l6.9-19.31c1.38-3.45 3.45-3.45 4.83 0l6.9 19.31c1.38 3.45 4.83 7.59 9 9l19.31 6.9c3.45 1.38 3.45 3.45 0 4.83l-19.31 6.9c-3.45 1.38-7.59 4.83-9 9l-6.9 19.31c-1.38 3.45-3.45 3.45-4.83 0z"/><path d="m1599.48 3299a18.59 18.59 0 0 0 -4.83-5.52 24.5 24.5 0 0 0 -6.21-2.76l-14.48-4.14a28.74 28.74 0 0 0 -4.14-1.38c-.69-.69-2.07-.69-2.76-2.07a2.1 2.1 0 0 1 0-2.76c0-.69.69-1.38 1.38-2.07q3.1-2.07 4.14-2.07l3.45-1.38 14.48-5.52a21 21 0 0 0 4.83-3.45c1.38-1.38 2.07-2.76 2.76-5.52l4.83-14.48a28.74 28.74 0 0 0 1.38-4.14c.69-.69.69-2.07 2.76-2.76.69-.69 2.76-.69 3.45-.69 1.38.69 2.07.69 2.76 1.38 2.07 2.07 2.07 3.45 2.76 4.83l1.38 3.45 4.83 14.48a21 21 0 0 0 3.45 4.83c1.38 1.38 2.76 2.07 5.52 2.76l14.48 5.52a28.75 28.75 0 0 0 4.14 1.38c.69.69 2.07.69 2.76 2.76a3.13 3.13 0 0 1 0 3.45c-.69 1.38-.69 2.07-1.38 2.07a5.73 5.73 0 0 1 -4.83 2.07l-3.45 1.38-14.48 4.83a21 21 0 0 0 -4.83 3.45c-1.38 1.38-2.07 2.76-2.76 5.52l-5.52 14.48a28.74 28.74 0 0 0 -1.38 4.14c-.69.69-.69 1.38-2.07 2.76a2.1 2.1 0 0 1 -2.76 0c-.69 0-1.38-.69-2.07-1.38-1.38-1.38-1.38-3.45-2.07-4.14l-1.38-3.45zm2.07-.69 5.52 14.48 1.38 3.45c.69 1.38.69 2.07 1.38 2.76a1 1 0 0 0 -1.38 0v-.69a11.65 11.65 0 0 1 1.38-3.45l4.83-14.48c.69-2.07 2.07-5.52 4.14-7.59a21.61 21.61 0 0 1 7.59-5.52l14.48-5.52 3.45-1.38a5.34 5.34 0 0 1 2.07-.69l-.69.69v2.07a11.65 11.65 0 0 1 -3.45-1.38l-14.48-4.83c-2.07-.69-6.21-2.07-8.28-4.14a21.61 21.61 0 0 1 -5.52-7.59l-4.83-14.48-1.38-3.45a5.34 5.34 0 0 1 -.69-2.07l.69.69h2.07c.69-.69.69-.69.69 0a11.65 11.65 0 0 1 -1.38 3.45l-5.52 14.48c-.69 2.07-2.07 5.52-4.14 7.59a21.61 21.61 0 0 1 -7.59 5.52l-14.48 4.83-3.45 1.38a5.21 5.21 0 0 1 -2.76.69v-2.07a11.65 11.65 0 0 1 3.45 1.38l14.48 5.52a18.82 18.82 0 0 1 12.41 10.34z"/><path d="m1429.15 3388.64-17.24 8.28 8.28-17.24-8.28-17.24 17.24 8.28 17.24-8.28-8.28 17.24 8.28 17.24z"/><path d="m1428.46 3389.33c-5.52 3.45-10.34 6.9-15.86 9.65a3 3 0 0 1 -3.45-.69 1.29 1.29 0 0 1 0-2.07v-.69c2.07-6.21 4.83-11.72 7.59-17.93v2.76l-8.28-17.24c-.69-2.07 0-4.14 1.38-4.83a3.13 3.13 0 0 1 3.45 0l17.24 8.28h-3.45l17.24-8.28c2.07-.69 4.14 0 4.83 2.07a3.13 3.13 0 0 1 0 3.45c-2.76 5.52-5.52 11.72-8.28 17.24v-2.76c2.76 5.52 4.83 11.72 7.59 17.93a2.52 2.52 0 0 1 -1.38 3.45h-2.08c-5.52-3.45-10.34-6.9-16.55-10.34zm1.38-2.07c5.52 2.07 11.72 4.14 17.24 6.9l-3.45 3.45c-2.76-5.52-6.21-11-9-16.55a2.1 2.1 0 0 1 0-2.76c2.76-5.52 5.52-11.72 8.28-17.24l4.83 4.83-17.24 8.28a3.13 3.13 0 0 1 -3.45 0l-17.24-8.28 4.83-4.83 8.28 17.24a2.1 2.1 0 0 1 0 2.76c-2.76 5.52-6.21 11-9 16.55l-3.45-3.45c6.21-2.76 12.41-4.83 18.62-6.9h.69z"/><path d="m1329.31 3225.71-17.24 8.28 8.28-17.24-8.28-17.24 17.24 8.28 17.24-8.28-8.28 17.24 8.28 17.24z"/><path d="m1328.62 3227.09c-5.52 3.45-10.34 6.9-15.86 9.65a3 3 0 0 1 -3.45-.69 1.29 1.29 0 0 1 0-2.07v-.69c2.07-6.21 4.83-11.72 7.59-17.93v2.76l-8.28-17.24c-.69-2.07 0-4.14 1.38-4.83a3.13 3.13 0 0 1 3.45 0l17.24 8.28h-3.45l17.24-8.28c2.07-.69 4.14 0 4.83 2.07a3.13 3.13 0 0 1 0 3.45c-2.76 5.52-5.52 11.72-8.28 17.24v-2.76c2.76 5.52 4.83 11.72 7.59 17.93a2.52 2.52 0 0 1 -1.38 3.45h-2.07a133.8 133.8 0 0 0 -16.55-10.34zm1.38-2.09c5.52 2.07 11.72 4.14 17.24 6.9l-3.45 3.45c-2.76-5.52-6.21-11-9-16.55a2.1 2.1 0 0 1 0-2.76c2.76-5.52 5.52-11.72 8.28-17.24l4.83 4.83-17.24 8.28a3.13 3.13 0 0 1 -3.45 0l-17.24-8.28 4.83-4.83 8.28 17.24a2.1 2.1 0 0 1 0 2.76c-2.76 5.52-6.21 11-9 16.55l-3.45-3.45c6.21-2.76 12.41-4.83 18.62-6.9h.69z"/><path d="m355 3137.28a16.32 16.32 0 0 0 -10.58 0l-21.76 10.58c-2.94 1.18-4.12 0-2.94-2.94l10.58-21.76a16.32 16.32 0 0 0 0-10.58l-10.58-21.76c-1.18-2.94 0-4.12 2.94-2.94l21.76 10.58a16.32 16.32 0 0 0 10.58 0l21.76-10.58c2.94-1.18 4.12 0 2.94 2.94l-10.58 21.76a16.32 16.32 0 0 0 0 10.58l10.58 21.76c1.18 2.94 0 4.12-2.94 2.94z"/><path d="m354.42 3137.86a16.78 16.78 0 0 0 -7.64 0c-2.35.59-4.7 2.35-7.06 3.53l-14.72 7.61a19.91 19.91 0 0 1 -4.7 1.76h-2.3a3.15 3.15 0 0 1 -1.76-2.35c-.59-1.76 0-2.35.59-3.53l3.53-7.64 7.06-14.7a11.68 11.68 0 0 0 .59-6.47c0-1.76-1.76-4.12-2.94-6.47l-7.06-14.7a19.91 19.91 0 0 1 -1.76-4.7 6.39 6.39 0 0 1 .59-2.94c.59-1.18 1.76-2.35 2.94-2.35a4.46 4.46 0 0 1 4.12.59l7.64 3.53 14.7 7.06c1.76.59 4.12 1.18 5.88.59 1.76 0 4.12-1.76 6.47-2.94l14.7-7.06a19.91 19.91 0 0 1 4.7-1.76 6.39 6.39 0 0 1 2.94.59c1.18.59 2.35 1.76 2.35 2.94a3.3 3.3 0 0 1 -.59 3.53l-3.53 7.64-7.06 14.7a11.68 11.68 0 0 0 -.59 6.47c0 1.76 1.76 4.12 2.94 7.06l6.47 14.7a19.91 19.91 0 0 1 1.76 4.7v2.35c-.59 1.18-1.18 1.76-2.35 1.76-1.76 0-2.35 0-2.94-.59l-7.64-3.53-15.29-9.41zm.59-1.76 14.7 6.47 7.64 3.53h.59a.58.58 0 0 0 -.59.59 9.94 9.94 0 0 0 -1.18-2.94l-7.64-14.7-1.76-3.53a40.51 40.51 0 0 1 -1.76-4.7 15.26 15.26 0 0 1 1.18-10l7.06-14.7 3.53-7.06a1.26 1.26 0 0 0 1.18 1.18h.59a27.69 27.69 0 0 0 -2.94 1.18l-14.7 7.06-3.53 1.76a40.52 40.52 0 0 1 -4.7 1.76c-3.53.59-6.47.59-10-1.18l-14.7-7.06-7.06-3.53a1.26 1.26 0 0 0 1.18-1.18v-.59a27.7 27.7 0 0 0 1.18 2.94l7.06 14.7 1.76 3.53a40.51 40.51 0 0 1 1.76 4.7c.59 3.53.59 6.47-1.18 10l-7.68 14.67-3.53 7.06v.59a2.05 2.05 0 0 1 -.59-1.18 9.93 9.93 0 0 0 2.94-1.18l15.29-6.47a26.85 26.85 0 0 1 8.23-2.94 34.42 34.42 0 0 1 7.64 1.18z"/><path d="m1787.72 3115.61c-1.38-3.45-4.83-7.59-9-9l-19.31-6.9c-3.45-1.38-3.45-3.45 0-4.83l19.31-6.9c3.45-1.38 7.59-4.83 9-9l6.9-19.31c1.38-3.45 3.45-3.45 4.83 0l6.9 19.31c1.38 3.45 4.83 7.59 9 9l19.31 6.9c3.45 1.38 3.45 3.45 0 4.83l-19.31 6.9c-3.45 1.38-7.59 4.83-9 9l-6.9 19.31c-1.38 3.45-3.45 3.45-4.83 0z"/><path d="m1787 3115.61a18.59 18.59 0 0 0 -4.83-5.52 24.5 24.5 0 0 0 -6.21-2.76l-14.48-4.14a28.75 28.75 0 0 0 -4.14-1.38c-.69-.69-2.07-.69-2.76-2.07a2.1 2.1 0 0 1 0-2.76c0-.69.69-1.38 1.38-2.07q3.1-2.07 4.14-2.07l3.45-1.38 14.48-5.52a21 21 0 0 0 4.83-3.45c1.38-1.38 2.07-2.76 2.76-5.52l4.83-14.48a28.74 28.74 0 0 0 1.38-4.14c.69-.69.69-2.07 2.76-2.76.69-.69 2.76-.69 3.45-.69 1.38.69 2.07.69 2.76 1.38 2.07 2.07 2.07 3.45 2.76 4.83l1.38 3.45 4.83 14.48a21 21 0 0 0 3.45 4.83c1.38 1.38 2.76 2.07 5.52 2.76l14.48 5.52a28.75 28.75 0 0 0 4.14 1.38c.69.69 2.07.69 2.76 2.76a3.13 3.13 0 0 1 0 3.45c-.69 1.38-.69 2.07-1.38 2.07a5.73 5.73 0 0 1 -4.83 2.07l-3.45 1.38-14.46 4.84a21 21 0 0 0 -4.83 3.45c-1.38 1.38-2.07 2.76-2.76 5.52l-5.52 14.48a28.74 28.74 0 0 0 -1.38 4.14c-.69.69-.69 1.38-2.07 2.76a2.1 2.1 0 0 1 -2.76 0c-.69 0-1.38-.69-2.07-1.38-1.38-1.38-1.38-3.45-2.07-4.14l-1.38-3.45-4.14-15.86zm2.07-.69 5.52 14.48 1.38 3.45c.69 1.38.69 2.07 1.38 2.76a1 1 0 0 0 -1.38 0v-.69a11.65 11.65 0 0 1 1.38-3.45l4.83-14.48c.69-2.07 2.07-5.52 4.14-7.59a21.61 21.61 0 0 1 7.59-5.52l14.48-5.52 3.45-1.38a5.34 5.34 0 0 1 2.07-.69l-.69.69v2.07a11.65 11.65 0 0 1 -3.45-1.38l-14.48-4.83c-2.07-.69-6.21-2.07-8.28-4.14a21.61 21.61 0 0 1 -5.52-7.59l-4.83-14.48-1.38-3.45a5.34 5.34 0 0 1 -.69-2.07l.69.69h2.07c.69-.69.69-.69.69 0a11.65 11.65 0 0 1 -1.38 3.45l-5.52 14.48c-.69 2.07-2.07 5.52-4.14 7.59a21.61 21.61 0 0 1 -7.59 5.52l-14.48 4.83-3.45 1.38a5.21 5.21 0 0 1 -2.76.69v-2.07a11.65 11.65 0 0 1 3.45 1.38l14.48 5.52a18.82 18.82 0 0 1 12.41 10.34z"/><path d="m76.86 3386c-1.18-2.94-4.12-6.47-7.64-7.64l-16.47-5.88c-2.94-1.18-2.94-2.94 0-4.12l16.47-5.88c2.94-1.18 6.47-4.12 7.64-7.64l5.88-16.47c1.18-2.94 2.94-2.94 4.12 0l5.88 16.47c1.18 2.94 4.12 6.47 7.64 7.64l16.47 5.88c2.94 1.18 2.94 2.94 0 4.12l-16.47 5.88c-2.94 1.18-6.47 4.12-7.64 7.64l-5.88 16.47c-1.18 2.94-2.94 2.94-4.12 0z"/><path d="m76.27 3386a15.85 15.85 0 0 0 -4.12-4.7 20.89 20.89 0 0 0 -5.29-2.35l-12.35-3.53a24.52 24.52 0 0 0 -3.53-1.18c-.59-.59-1.76-.59-2.35-1.76a1.79 1.79 0 0 1 0-2.35c0-.59.59-1.18 1.18-1.76q2.65-1.76 3.53-1.76l2.94-1.18 12.35-4.7a17.87 17.87 0 0 0 4.12-2.94 8.86 8.86 0 0 0 2.35-4.7l4.12-12.35a24.52 24.52 0 0 0 1.18-3.53c.59-.59.59-1.76 2.35-2.35.59-.59 2.35-.59 2.94-.59 1.18.59 1.76.59 2.35 1.18 1.76 1.76 1.76 2.94 2.35 4.12l1.18 2.94 4.12 12.35a17.87 17.87 0 0 0 2.94 4.12 8.86 8.86 0 0 0 4.7 2.35l12.35 4.7a24.52 24.52 0 0 0 3.53 1.18c.59.59 1.76.59 2.35 2.35a2.67 2.67 0 0 1 0 2.94c-.59 1.18-.59 1.76-1.18 1.76a4.89 4.89 0 0 1 -4.12 1.76l-2.94 1.18-12.32 4.12a17.87 17.87 0 0 0 -4.12 2.94 8.86 8.86 0 0 0 -2.35 4.7l-4.7 12.35a24.52 24.52 0 0 0 -1.18 3.53c-.59.59-.59 1.18-1.76 2.35a1.79 1.79 0 0 1 -2.35 0c-.59 0-1.18-.59-1.76-1.18-1.18-1.18-1.18-2.94-1.76-3.53l-1.18-2.94zm1.76-.59 4.7 12.35 1.18 2.94c.59 1.18.59 1.76 1.18 2.35a.81.81 0 0 0 -1.18 0v-.59a9.94 9.94 0 0 1 1.18-2.94l4.12-12.35a17.66 17.66 0 0 1 3.53-6.47 18.43 18.43 0 0 1 6.47-4.7l12.35-4.7 2.94-1.18a4.55 4.55 0 0 1 1.76-.59l-.59.59v1.76a9.94 9.94 0 0 1 -2.94-1.18l-12.35-4.12c-1.76-.59-5.29-1.76-7.06-3.53a18.43 18.43 0 0 1 -4.7-6.47l-4.12-12.35-1.18-2.94a4.55 4.55 0 0 1 -.59-1.76l.59.59h1.76c.59-.59.59-.59.59 0a9.94 9.94 0 0 1 -1.18 2.94l-4.7 12.35a17.66 17.66 0 0 1 -3.53 6.47 18.43 18.43 0 0 1 -6.47 4.7l-12.35 4.12-2.94 1.18a4.45 4.45 0 0 1 -2.35.59v-1.76a9.94 9.94 0 0 1 2.94 1.18l12.35 4.7a16.05 16.05 0 0 1 10.56 8.84z"/></g><path d="m869.37 3449.44c0-103.63-57.3-186.53-137.16-200.55-11.58 38.4-73.76 39.62-87.17 1.83l-.61-1.83c-89 18.29-151.18 101.8-160.32 198.11-13.41 138.38-3 116.43-3 116.43h389.48" fill="#187aa2"/><path d="m595.66 3390.31c.61 7.31-.61 14-.61 21.34l-1.82 21.35-3.66 42-4.27 42.06a333 333 0 0 1 -6.1 42.06c0 .61-.61.61-1.22.61s-.61-.61-.61-1.22c-.61-14 .61-28 1.83-42.06l3.66-42.06 3.66-42.06 1.83-21.34c.61-6.71 1.22-14 3-20.73.61-1.22 1.22-1.83 2.44-1.22.61 0 1.22.61 1.83 1.22zm134.11-173.12c1.22 3.66 1.22 7.92 1.22 11.58a62.68 62.68 0 0 0 .61 11 12.13 12.13 0 0 0 4.88 7.31 29.72 29.72 0 0 0 4.27 1.83c1.83.61 4.27 1.22 6.1 1.83 15.24 5.49 28 14 40.84 23.16a276 276 0 0 1 34.74 31.1c10.36 11.58 19.51 24.38 25.6 39 0 .61 0 1.22-.61 1.22s-1.22 0-1.22-.61a316.68 316.68 0 0 0 -28-36 226.22 226.22 0 0 0 -34.2-29.85 200.2 200.2 0 0 0 -18.9-12.19c-6.71-3.66-13.41-7.31-20.12-9.75a42 42 0 0 1 -4.88-1.83 18.26 18.26 0 0 1 -6.1-2.44 20.61 20.61 0 0 1 -7.92-11 27.34 27.34 0 0 1 -.61-6.71v-5.49c0-3.66-.61-7.92 1.22-11.58.61-1.22 1.83-1.83 3-.61-.61-1.22-.61-.61 0 0z" fill="#004e6e"/><path d="m746.23 3053.82c7.31 14 11.58 29.87 15.24 45.11a241.62 241.62 0 0 1 6.71 47.55c0 15.85-2.44 32.92-11 46.94a61.17 61.17 0 0 1 -17.07 18.29c-7.31 4.88-15.24 7.31-23.16 9.14a76.9 76.9 0 0 1 -48.16-6.71c-14.63-6.71-28-17.07-39-28.65-22.55-23.16-37.79-51.81-47.55-81.68 0-.61 0-1.22.61-1.22s1.22 0 1.22.61c13.41 28.65 28.65 56.08 50.6 78.64 11 11 23.16 20.73 37.18 26.82s29.26 8.53 43.89 5.49c7.31-1.83 14.63-4.27 20.73-8.53a53.83 53.83 0 0 0 15.24-15.85c7.92-12.8 10.36-28.65 10.36-43.89s-2.44-31.09-6.1-46.33-9.14-29.87-13.41-45.11c-.61-1.22 0-2.44 1.22-2.44 1.22.61 1.83.61 2.44 1.83z" fill="#004e6e"/><path d="m653.57 3008.1c48.77-19.51 91.44-8.53 88.39 14.63-2.44 20.12-100.58 26.82-112.16 54.86-7.31 18.29 3.66 45.72 12.8 63.4a25.86 25.86 0 0 1 -4.88 30.48l-8.53 10.36c-54.25-53.64-103-123.14 24.38-173.73zm59.74 106.07c3 4.88 5.49 10.36 7.92 15.24 1.83 5.49 4.27 11 5.49 16.46 0 1.22-.61 2.44-1.83 2.44s-1.83 0-2.44-1.22c-3-4.88-4.88-10.36-7.31-15.85a168.15 168.15 0 0 1 -4.88-16.46c0-.61.61-1.83 1.22-1.83.61.61 1.22.61 1.83 1.22z" fill="#004e6e"/><path d="m742.57 3119a6.34 6.34 0 0 0 3.66-7.92l-3.66-9.14a6.17 6.17 0 0 0 -11.58 4.27l3.66 9.14a6.34 6.34 0 0 0 7.92 3.65zm-59.74 23.16a6.34 6.34 0 0 0 3.66-7.92l-3.66-9.14a6.17 6.17 0 0 0 -11.58 4.27l3.66 9.14a5.86 5.86 0 0 0 7.92 3.7z" fill="#004e6e"/><path d="m716.8 3183.73a15.85 15.85 0 0 1 -9.11-2.71 3.45 3.45 0 1 1 3.93-5.67c2.51 1.74 6.14 2 10 .6 4.19-1.5 7.62-4.65 8.53-7.86a3.4 3.4 0 0 1 4.26-2.36 3.44 3.44 0 0 1 2.36 4.26c-1.54 5.4-6.47 10.18-12.84 12.46a21.27 21.27 0 0 1 -7.13 1.28z" fill="#004e6e"/><path d="m668.2 3103.2c-1.22 0-3 1.22-4.88 1.83a24.71 24.71 0 0 0 -5.49 3c-1.83 1.22-3 2.44-4.88 3.66-1.22 1.22-3 2.44-3.66 4.27-.61 1.22-1.83 1.22-3 .61-.61-.61-1.22-1.22-.61-2.44 1.22-5.49 5.49-8.53 9.14-11.58a22.53 22.53 0 0 1 6.71-3 16.88 16.88 0 0 1 7.92-.61c1.22 0 1.83 1.22 1.22 2.44a8.42 8.42 0 0 1 -2.47 1.82zm48.16-23.2c1.83-2.44 4.27-3.66 6.1-4.88a15.89 15.89 0 0 1 6.71-1.83c4.88-.61 9.75-.61 14.63 2.44 1.22.61 1.22 1.83.61 3-.61.61-1.22 1.22-2.44.61a16.88 16.88 0 0 0 -5.49-.61 20.74 20.74 0 0 0 -6.1.61c-1.83.61-4.27.61-6.1 1.22a42 42 0 0 0 -4.88 1.83l-.61.61c-1.22.61-2.44 0-2.44-.61v-2.39z" fill="#004e6e"/><path d="m746.84 3022.12c-48.77-85.34-211.53-17.68-170.68 87.17" fill="#3895ba"/><path d="m787.07 3007.49c-17.07 10.36-35.36 19.51-53 28.65l-53.67 26.86-54.25 26.82c-18.29 9.14-36 17.68-54.25 26.21-1.22.61-2.44 0-2.44-1.22-.61-1.22 0-1.83.61-2.44 17.68-9.75 35.36-18.9 53.64-28l53.64-26.82 54.25-26.82c18.29-9.14 36-17.68 54.86-25a2.24 2.24 0 0 1 1.83.61c-.61 0-.61 1.22-1.22 1.22z" fill="#c3c4c7"/><path d="m654.79 3069.06c34.75-32.92 91.44-86.56 131.06-62.79m-131.67 62.18a291.27 291.27 0 0 1 27.44-27.45 299.07 299.07 0 0 1 31.09-23.77c11-7.31 22.55-13.41 36-17.07l4.88-1.22c1.83 0 3.66-.61 4.88-.61 1.83 0 3.66-.61 4.88-.61l4.88.61c3.66 0 6.71 1.22 9.75 2.44s6.1 3 9.14 4.27a2.43 2.43 0 0 1 1.22 2.44c0 .61-1.83 1.22-2.44 1.22-11-5.49-23.77-5.49-35.36-2.44-12.19 3-23.16 9.75-33.53 16.46a268 268 0 0 0 -30.48 23.16c-9.75 8.53-19.51 17.07-29.87 25a1.14 1.14 0 0 1 -1.83 0c-1.22-1.22-1.22-1.83-.61-2.44zm75.59 493.15h275.53v-23.16h-256a19.26 19.26 0 0 0 -19.51 19.51z" fill="#c3c4c7"/><path d="m880.34 3561.61h322.47l28.65-206.61c2.44-18.9-12.19-36-31.09-36h-259.07a31 31 0 0 0 -31.09 27.43z" fill="#c3c4c7"/><path d="m3316.78 3565.26c-100.58 2.44-201.16 3-301.74 4.27l-2287.86.61c-201.16-.61-478.18 0-679.35-3.66a2 2 0 0 1 -1.83-1.83 1.62 1.62 0 0 1 1.83-1.83c201.16-3.66 478.18-3 679.35-3.66l2287.86.61c100.58.61 201.16 1.22 301.74 4.27a1.31 1.31 0 0 1 1.22 1.22.84.84 0 0 0 -1.22 0z" fill="#8e9196"/><path d="m645 3219a113.77 113.77 0 0 1 2.44 15.24c0 4.88.61 9.75.61 15.24v-1.22c1.22 2.44 2.44 5.49 3.66 8.53a30.63 30.63 0 0 0 4.88 7.31 32 32 0 0 0 6.71 6.1 34.56 34.56 0 0 0 7.92 4.88 2.24 2.24 0 0 1 .61 1.83c0 .61-.61.61-1.22.61-3.66-.61-6.71-1.22-9.75-3s-6.1-3.66-8.53-6.71a43.27 43.27 0 0 1 -6.1-8.53 47.18 47.18 0 0 1 -4.27-9.75v-1.22a132.58 132.58 0 0 1 .61-15.24c.61-4.88 1.22-9.75 2.44-15.24-1.22 1.22-.61.61 0 1.22z" fill="#004e6e"/><path d="m320.23 3496.08-110.83 49.52 20.23 4.35zm-4.47-8.72-140.06 51 26.3 5.64z" fill="none"/></g></svg>
