<svg width="70" height="75" fill="none" xmlns="http://www.w3.org/2000/svg"><path fill="#fff" d="M0 0h70v74.2H0z"/><path fill-rule="evenodd" clip-rule="evenodd" d="M35 12.4c10.6 0 19.5 8 21.4 18.6A15 15 0 0170 46.4c0 8.5-6.5 15.4-14.6 15.4H17.5C7.8 61.8 0 53.5 0 43.3c0-9.6 6.8-17.5 15.6-18.4 3.7-7.5 11-12.5 19.4-12.5zm5.8 40.2V40.2h8.8L35 24.7 20.4 40.2h8.8v12.4h11.6z" fill="#A7AAAD"/><mask id="a" maskUnits="userSpaceOnUse" x="0" y="12" width="70" height="50"><path d="M56.4 31A22.2 22.2 0 0035 12.4c-8.4 0-15.8 5-19.4 12.5C6.8 25.9 0 33.7 0 43.3c0 10.2 7.8 18.5 17.5 18.5h38c8 0 14.5-6.9 14.5-15.4A15 15 0 0056.4 31z" fill="#fff"/></mask><g mask="url(#a)"><path fill="#8E9196" d="M0 0h70v74.2H0z"/></g><path d="M32.2 21.6h5.7v18h-5.7v-18zM32.2 45.7h5.7v5.9h-5.7v-6z" fill="#fff"/></svg>