<svg xmlns="http://www.w3.org/2000/svg" viewBox="0 0 1600 1168"><defs><style>.cls-1{fill:#fff}.cls-2{fill:#46799A}.cls-3{fill:#00be28}.cls-4{fill:none}</style></defs><title>jetpack-support</title><g id="jetpack-support"><path class="cls-1" d="M1293.52 561.71c-.37 257.76-209.62 466.42-467.38 466.06a467 467 0 0 1-66.09-4.8c-65.64-9.47-143.76 63.41-401.19 44.58 119.24-124.48 84.36-242.39 84.36-242.39C297.37 613 351.11 322.78 563.27 176.93S1065.65 84.83 1211.5 297a466.23 466.23 0 0 1 82.02 264.71z"/><path class="cls-2" d="M1299.31 561.71a548.18 548.18 0 0 1-21.06 151.12 491.44 491.44 0 0 1-65.08 140.3 417.11 417.11 0 0 1-49.59 60.74 404.33 404.33 0 0 1-60 51.26 474.37 474.37 0 0 1-142.31 68 490.27 490.27 0 0 1-156.8 19.06c-13.26 0-26.41-1.56-39.56-3.12l-9.36-1.23a62.21 62.21 0 0 0-6.69 0 99.29 99.29 0 0 0-14.71 1.12c-21 3.34-45.35 11.14-69.87 18a771.51 771.51 0 0 1-153 27.19 1049.8 1049.8 0 0 1-154.91.22l-55.72-3.67 38.9-41a306.83 306.83 0 0 0 66.89-102.4 229.72 229.72 0 0 0 13.82-58.06 199.35 199.35 0 0 0 .89-29.42c0-4.9 0-9.7-1.22-14.38l-1.12-6.91a25.6 25.6 0 0 0-1.11-5.35l3.56 7.58c-154.12-223.42-97.94-529.48 125.48-683.6a491.33 491.33 0 0 1 134.85-65.29 497.08 497.08 0 0 1 227.34-13.82 478 478 0 0 1 208.29 90.27 451 451 0 0 1 137.63 177.31 538.2 538.2 0 0 1 44.46 216.08zm-11.14 0a407.43 407.43 0 0 0-55.72-204.38 498.46 498.46 0 0 0-232.36-203 441.21 441.21 0 0 0-478.2 91.61 434.91 434.91 0 0 0-64.63 79.57 424.38 424.38 0 0 0-44.58 92.27 445.81 445.81 0 0 0-20.06 202.49 437.25 437.25 0 0 0 72.66 190.12l2.57 3.68 1 3.9a109 109 0 0 1 2.45 11.14c.67 3.23 1.11 6.47 1.56 9.59.78 6.46 1.34 12.7 1.56 18.94a244.94 244.94 0 0 1-1.23 37.33A283 283 0 0 1 456 966.36a360.67 360.67 0 0 1-78 120.13l-17.27-44.57a993.15 993.15 0 0 0 146.77.78 725.12 725.12 0 0 0 143.54-25.08 737.11 737.11 0 0 1 76.11-18.83 137.47 137.47 0 0 1 22.29-1.56 112.26 112.26 0 0 1 12.15.89l9.36 1.34c11.7 1.56 23.62 2.67 35.44 3.23a444.81 444.81 0 0 0 141.75-15.83 488.5 488.5 0 0 0 237.26-154.68 442 442 0 0 0 75-125.37 389.33 389.33 0 0 0 20.28-71.1 456.85 456.85 0 0 0 6.91-74z"/><circle class="cls-3" cx="634.34" cy="592.92" r="41.79" transform="rotate(-80.78 634.37 592.917)"/><circle class="cls-3" cx="847.86" cy="592.92" r="41.79"/><circle class="cls-3" cx="1061.27" cy="592.92" r="41.79"/></g><g id="clear_rectangle" data-name="clear rectangle"><path id="Layer_4" data-name="Layer 4" class="cls-4" d="M0 0h1600v1168H0z"/></g></svg>