<svg viewBox="0 0 1600 1168" xmlns="http://www.w3.org/2000/svg"><path d="m1282.92 676.57c-32.91-89.23-192.63-155.49-332.14-119" fill="#fff"/><path d="m1273.85 679.51a43.31 43.31 0 0 1 -7.86-8.64 48.75 48.75 0 0 1 -2.85-4.41c-1.12-1.38-2.24-2.76-3.28-4.23l-6-8.64c-2.07-2.85-4.75-5.35-7-8.12a135.34 135.34 0 0 0 -15.55-15.11 191 191 0 0 0 -17.23-13.36 298.79 298.79 0 0 0 -80.77-38.19 387.12 387.12 0 0 0 -88.89-16.32c-30.32-1.38-60.47 0-92.17-.61a5 5 0 0 1 -4.84-5.09 5.2 5.2 0 0 1 2.6-4.24 185.37 185.37 0 0 1 95.62-19.78 345.84 345.84 0 0 1 97.44 15.23 297.6 297.6 0 0 1 89.23 43.71 214.59 214.59 0 0 1 19.61 16 162.39 162.39 0 0 1 17.28 18.48c2.76 3.37 5.7 6.48 8.64 10l7.08 11.06a61 61 0 0 1 3.2 5.61c.69 2.16 1.55 4.24 2.07 6.4a49.18 49.18 0 0 1 2.16 13.3 10.11 10.11 0 0 1 -10 10.11 9.69 9.69 0 0 1 -6.39-2.16z" fill="#ccced0"/><path d="m818.45 571.44c180.45-66.86 351.31 58.22 411.44 117.22" fill="#fff"/><path d="m815.08 562.37a127.67 127.67 0 0 1 55.28-19.78c4.84-.86 9.59-2 14.51-2.68l14.69-1.29a195.88 195.88 0 0 1 29.44-1.47 353.24 353.24 0 0 1 115.5 19.26 470.28 470.28 0 0 1 104.26 51.05 271.73 271.73 0 0 1 84.48 77.75 4.83 4.83 0 0 1 -1.23 6.73l-.15.09a4.89 4.89 0 0 1 -5.18 0c-32.65-19.35-62-40.6-93.47-59.52a526.16 526.16 0 0 0 -98.72-45.51 357.57 357.57 0 0 0 -105.65-18.92 172.4 172.4 0 0 0 -26.69.69l-13.39.78c-4.41.52-8.64 1.47-13.22 2.16l-13.21 2.29-6.65 1.12-6.4 1.9a78.55 78.55 0 0 1 -27.28 3.32h-1.64a10.11 10.11 0 0 1 -9.25-10.71 10.27 10.27 0 0 1 3.97-7.26z" fill="#ccced0"/><path d="m998.55 878.19c16.45-88.29-50.79-146.85-107.28-163.35-116-34.56-253.88 32.74-270.64-48-14.69-70.49 282-210.95 568.4 75.06" fill="#fff"/><path d="m989.05 876.37a256.79 256.79 0 0 1 -2.85-33.37 109.8 109.8 0 0 0 -7.2-31.24 127 127 0 0 0 -37.92-51.83 156.77 156.77 0 0 0 -57.71-30.41 274.9 274.9 0 0 0 -67.89-9.07c-23.33-.52-47.08.95-71.27 2.51a419.47 419.47 0 0 1 -75.84 0 84.19 84.19 0 0 1 -41.46-15.81 57 57 0 0 1 -15.7-19.15 71.06 71.06 0 0 1 -4.49-11.05 62.75 62.75 0 0 1 -2.59-12.36 51.34 51.34 0 0 1 5.7-25.91 84.41 84.41 0 0 1 12.7-18.14 148.44 148.44 0 0 1 31.79-25.4 268 268 0 0 1 71.87-29.14 363.2 363.2 0 0 1 75-11.06 437.13 437.13 0 0 1 148.4 20 494.1 494.1 0 0 1 133.41 65.52 576.35 576.35 0 0 1 109.7 98 4.75 4.75 0 0 1 0 6.72 4.83 4.83 0 0 1 -6.39 0 835.35 835.35 0 0 0 -115.54-85.18 553 553 0 0 0 -129.06-57.61 410.34 410.34 0 0 0 -138.64-17.28 337.66 337.66 0 0 0 -68.5 10.71 234.38 234.38 0 0 0 -62.63 25.92 119.47 119.47 0 0 0 -25.48 20.26 32.37 32.37 0 0 0 -10.37 20.38 40.68 40.68 0 0 0 3.63 11.15 26.86 26.86 0 0 0 7.08 8.63 54.26 54.26 0 0 0 25.92 8.64 398.66 398.66 0 0 0 69.1-.6c24.19-1.56 48.9-3.2 74-2.68a309.9 309.9 0 0 1 75.93 10.19 175.74 175.74 0 0 1 69.11 37.84 157.55 157.55 0 0 1 45.52 65.3 140.69 140.69 0 0 1 8.73 39.83 68.27 68.27 0 0 1 -7.09 39 10.18 10.18 0 0 1 -13.71 4.42l-.37-.19a9.86 9.86 0 0 1 -4.92-6.83z" fill="#ccced0"/><path d="m1013 878.19-110.16 77.48-334.84-451.43 110.14-77.49z" fill="#204a69"/><circle cx="546.69" cy="307.03" fill="none" r="199.03" stroke="#204a69" stroke-linecap="round" stroke-linejoin="round" stroke-width="72.22"/><path d="m1018.16 1159.1c-270.38-113.1-348.9-478.73-282.9-502.48 79.64-28.68 177.74 261.13 233.23 252.58 31.7-4.84 40.52-30.5 39.82-56.76" fill="#fff"/><path d="m1014.45 1168c-44.84-11.49-83.71-38.44-119-67.21a542.68 542.68 0 0 1 -92.77-100.72 618 618 0 0 1 -66.68-119.29 498.24 498.24 0 0 1 -37-132.43 281.26 281.26 0 0 1 -2-35.41 143.4 143.4 0 0 1 5-37.32 66.86 66.86 0 0 1 9.5-20 45.32 45.32 0 0 1 9.59-9.42 37.27 37.27 0 0 1 12.61-5.78 50.51 50.51 0 0 1 24.1-.52 68.06 68.06 0 0 1 20.05 8.1 136.57 136.57 0 0 1 28.93 24.18 310.46 310.46 0 0 1 22.38 27.13c13.73 18.48 25.91 37.57 37.57 56.75 23.41 38.1 44.84 77.75 69.11 112.3a133.06 133.06 0 0 0 19.61 22.89 28.32 28.32 0 0 0 9.15 5.75 3.26 3.26 0 0 0 1.39 0h2.16a39.45 39.45 0 0 0 6.47-1.12 32.57 32.57 0 0 0 20-14.78 74.4 74.4 0 0 0 8.63-28.76 4.84 4.84 0 0 1 5.37-4.24h.08a4.74 4.74 0 0 1 4.14 4.06 70.25 70.25 0 0 1 -2.68 36.36 49.62 49.62 0 0 1 -28.16 28.71 64.69 64.69 0 0 1 -9.59 3l-2.51.6h-3.62a34.71 34.71 0 0 1 -6.83-.52 48.37 48.37 0 0 1 -20-9.76 150.44 150.44 0 0 1 -25.45-25.88c-28.33-36.72-49.58-75.76-73.33-113-11.84-18.66-23.85-37-36.8-54a169.49 169.49 0 0 0 -42.59-42.42 25.94 25.94 0 0 0 -19.7-4.23c-1.81.61-1.81.52-2.5 1a11.18 11.18 0 0 0 -2.16 2.24 33.71 33.71 0 0 0 -4.58 10.11 114.15 114.15 0 0 0 -3.54 28.68 255.85 255.85 0 0 0 1.9 31.18 497.53 497.53 0 0 0 34.55 124 587.53 587.53 0 0 0 62.29 113.86 508.21 508.21 0 0 0 86.36 95.91 463 463 0 0 0 51.83 38.09c18.22 11.58 36.8 22.2 55.45 33.87a9.76 9.76 0 0 1 -7.6 17.27z" fill="#ccced0"/><path d="m0 0h1600v1168h-1600z" fill="none"/></svg>
<?xml version="1.0" encoding="utf-8"?>
<!-- Generator: Adobe Illustrator 19.2.1, SVG Export Plug-In . SVG Version: 6.00 Build 0)  -->
<svg version="1.1" id="Layer_1" xmlns="http://www.w3.org/2000/svg" xmlns:xlink="http://www.w3.org/1999/xlink" x="0px" y="0px"
	 viewBox="0 0 1600 1168" style="enable-background:new 0 0 1600 1168;" xml:space="preserve">
<style type="text/css">
	.st0{fill:#FFFFFF;}
	.st1{fill:#CCCED0;}
	.st2{fill:#204A69;}
	.st3{fill:none;}
</style>
<g>
	<path class="st0" d="M1282.9,676.6c-32.9-89.2-192.6-155.5-332.1-119"/>
</g>
<g>
	<path class="st1" d="M1273.8,679.5c-3-2.5-5.6-5.4-7.9-8.6c-1-1.4-2-2.9-2.8-4.4c-1.1-1.4-2.2-2.8-3.3-4.2l-6-8.6
		c-2.1-2.8-4.8-5.3-7-8.1c-4.8-5.4-10-10.5-15.6-15.1c-5.5-4.8-11.2-9.2-17.2-13.4c-24.9-16.7-52.1-29.6-80.8-38.2
		c-28.9-8.9-58.7-14.4-88.9-16.3c-30.3-1.4-60.5,0-92.2-0.6c-2.7-0.1-4.9-2.4-4.8-5.1c0.1-1.8,1.1-3.4,2.6-4.2
		c29.5-15,62.6-21.9,95.6-19.8c33,0.4,65.9,5.5,97.4,15.2c32,9.5,62.1,24.2,89.2,43.7c6.8,4.9,13.4,10.3,19.6,16
		c6.2,5.7,12,11.9,17.3,18.5c2.8,3.4,5.7,6.5,8.6,10l7.1,11.1c1.2,1.8,2.2,3.7,3.2,5.6c0.7,2.2,1.6,4.2,2.1,6.4
		c1.3,4.3,2.1,8.8,2.2,13.3c0,5.5-4.5,10-10,10.1c-2.3,0.1-4.6-0.7-6.4-2.2L1273.8,679.5z"/>
</g>
<g>
	<path class="st0" d="M818.5,571.4c180.5-66.9,351.3,58.2,411.4,117.2"/>
</g>
<g>
	<path class="st1" d="M815.1,562.4c16.6-10.8,35.6-17.6,55.3-19.8c4.8-0.9,9.6-2,14.5-2.7l14.7-1.3c9.8-1.2,19.6-1.7,29.4-1.5
		c39.3-0.1,78.3,6.5,115.5,19.3c36.7,12.6,71.7,29.8,104.3,51c33.4,19.6,62.2,46.1,84.5,77.8c1.5,2.2,1,5.2-1.2,6.7c0,0,0,0,0,0
		l-0.2,0.1c-1.6,1-3.6,1-5.2,0c-32.7-19.3-62-40.6-93.5-59.5c-31.2-18.5-64.3-33.8-98.7-45.5c-34.1-11.6-69.7-18-105.7-18.9
		c-8.9-0.5-17.8-0.2-26.7,0.7l-13.4,0.8c-4.4,0.5-8.6,1.5-13.2,2.2l-13.2,2.3l-6.7,1.1l-6.4,1.9c-8.8,2.7-18.1,3.8-27.3,3.3h-1.6
		c-5.5-0.5-9.6-5.2-9.2-10.7C811.4,566.8,812.8,564.1,815.1,562.4L815.1,562.4z"/>
</g>
<g>
	<path class="st0" d="M998.5,878.2c16.5-88.3-50.8-146.9-107.3-163.4c-116-34.6-253.9,32.7-270.6-48c-14.7-70.5,282-211,568.4,75.1"
		/>
</g>
<g>
	<path class="st1" d="M989,876.4c-1.7-11-2.6-22.2-2.8-33.4c-0.9-10.7-3.3-21.2-7.2-31.2c-8-20.2-21-38.1-37.9-51.8
		c-16.9-14.1-36.6-24.4-57.7-30.4c-22.2-5.8-45-8.9-67.9-9.1c-23.3-0.5-47.1,1-71.3,2.5c-25.2,2.3-50.6,2.3-75.8,0
		c-15-1.5-29.3-6.9-41.5-15.8c-6.6-5.2-11.9-11.7-15.7-19.2c-1.8-3.6-3.3-7.2-4.5-11c-1.3-4-2.1-8.2-2.6-12.4
		c-0.4-9,1.6-17.9,5.7-25.9c3.4-6.6,7.7-12.7,12.7-18.1c9.4-9.9,20.1-18.4,31.8-25.4c22.4-13.1,46.6-23,71.9-29.1
		c24.5-6.3,49.7-10,75-11.1c50.2-1.9,100.5,4.8,148.4,20c47.5,15,92.5,37.1,133.4,65.5c40.6,27.8,77.5,60.8,109.7,98
		c1.9,1.9,1.9,4.9,0,6.7c0,0,0,0,0,0c-1.8,1.6-4.6,1.6-6.4,0c-36-31.7-74.7-60.2-115.5-85.2c-40.4-24.6-83.8-44-129.1-57.6
		c-44.9-13.6-91.8-19.5-138.6-17.3c-23.1,1.2-46.1,4.8-68.5,10.7c-22,5.6-43.1,14.3-62.6,25.9c-9.4,5.6-18,12.4-25.5,20.3
		c-5.8,5.3-9.5,12.6-10.4,20.4c0.7,3.9,1.9,7.6,3.6,11.2c1.7,3.3,4.1,6.3,7.1,8.6c7.8,5,16.7,8,25.9,8.6c23,1.8,46.1,1.6,69.1-0.6
		c24.2-1.6,48.9-3.2,74-2.7c25.6,0.2,51.1,3.7,75.9,10.2c25.6,7.2,49.2,20.2,69.1,37.8c20.5,17.5,36.2,40,45.5,65.3
		c4.8,12.8,7.8,26.2,8.7,39.8c1.5,13.4-0.9,27-7.1,39c-2.6,5-8.7,7-13.7,4.4c0,0,0,0,0,0l-0.4-0.2c-2.6-1.4-4.4-3.9-4.9-6.8
		L989,876.4z"/>
</g>
<g>
	<path class="st2" d="M1013,878.2l-110.2,77.5L568,504.2l110.1-77.5L1013,878.2z"/>
</g>
<g>
	<path class="st2" d="M546.7,542.2c-62.8,0-121.9-24.5-166.3-68.9C336,428.9,311.6,369.8,311.6,307s24.5-121.9,68.9-166.3
		s103.5-68.9,166.3-68.9S668.5,96.3,713,140.8s68.9,103.5,68.9,166.3S757.4,428.9,713,473.3C668.5,517.7,609.5,542.2,546.7,542.2z
		 M546.7,144.1c-89.8,0-162.9,73.1-162.9,162.9S456.9,470,546.7,470S709.6,396.9,709.6,307S636.5,144.1,546.7,144.1z"/>
</g>
<g>
	<path class="st0" d="M1018.2,1159.1C747.8,1046,669.3,680.4,735.3,656.6c79.6-28.7,177.7,261.1,233.2,252.6
		c31.7-4.8,40.5-30.5,39.8-56.8"/>
</g>
<g>
	<path class="st1" d="M1014.5,1168c-44.8-11.5-83.7-38.4-119-67.2c-35.1-29.5-66.2-63.4-92.8-100.7c-26.6-37.2-48.9-77.2-66.7-119.3
		c-18.4-42.2-30.8-86.8-37-132.4c-1.4-11.7-2.1-23.6-2-35.4c0-12.6,1.7-25.2,5-37.3c2-7.1,5.2-13.9,9.5-20c2.7-3.6,5.9-6.8,9.6-9.4
		c3.8-2.7,8.1-4.7,12.6-5.8c7.9-2.1,16.1-2.3,24.1-0.5c7.1,1.6,13.8,4.3,20,8.1c10.7,6.7,20.5,14.8,28.9,24.2
		c8,8.6,15.4,17.7,22.4,27.1c13.7,18.5,25.9,37.6,37.6,56.8c23.4,38.1,44.8,77.8,69.1,112.3c5.6,8.3,12.2,16,19.6,22.9
		c2.7,2.5,5.8,4.4,9.2,5.8c0.5,0.1,0.9,0.1,1.4,0h2.2c2.2-0.2,4.3-0.6,6.5-1.1c8.4-2.1,15.6-7.4,20-14.8c4.8-8.9,7.7-18.7,8.6-28.8
		c0.3-2.7,2.7-4.6,5.4-4.2h0.1c2.1,0.3,3.8,1.9,4.1,4.1c2.3,12.1,1.4,24.7-2.7,36.4c-4.9,13.1-15.1,23.5-28.2,28.7
		c-3.1,1.2-6.3,2.3-9.6,3l-2.5,0.6h-3.6c-2.3,0.1-4.6-0.1-6.8-0.5c-7.3-1.7-14.2-5-20-9.8c-9.5-7.6-18-16.3-25.5-25.9
		c-28.3-36.7-49.6-75.8-73.3-113c-11.8-18.7-23.8-37-36.8-54c-11.6-16.6-26-30.9-42.6-42.4c-5.7-4-12.8-5.5-19.7-4.2
		c-1.8,0.6-1.8,0.5-2.5,1c-0.8,0.6-1.5,1.4-2.2,2.2c-2.1,3.1-3.6,6.5-4.6,10.1c-2.4,9.4-3.6,19-3.5,28.7c0,10.4,0.6,20.8,1.9,31.2
		c6.1,42.7,17.7,84.3,34.5,124c16.5,40.1,37.4,78.3,62.3,113.9c24.6,35.5,53.6,67.7,86.4,95.9c16.4,13.9,33.7,26.6,51.8,38.1
		c18.2,11.6,36.8,22.2,55.5,33.9c4.2,3.4,4.9,9.5,1.5,13.7c-2.2,2.7-5.7,4.1-9.1,3.6L1014.5,1168z"/>
</g>
<g>
	<path class="st3" d="M0,0h1600v1168H0V0z"/>
</g>
</svg>
