<svg viewBox="0 0 1600 1168" xmlns="http://www.w3.org/2000/svg"><path d="m242.4 1066.2c-6.8-69.4-6.4-138.8-6.9-208.2l-1.5-208.2.7-208.2c.3-69.4-.4-138.8 6.1-208.2h4.1c6.8 69.4 6.4 138.8 6.9 208.2l1.5 208.2-.6 208.2c-.3 69.4.4 138.8-6.1 208.2zm1131.8-8.4-.8-391.7c-.6-65.3-.6-130.6-1.8-195.8-.9-65.3-2.1-130.6-4.2-195.8h-4.1c-2.1 65.3-3.3 130.6-4.2 195.8-1.2 65.3-1.1 130.6-1.8 195.8l-.8 382.8-232.5-.7-241.4.6-241.4.8c-80.5.8-160.9 1.5-241.4 6.2v4.1c80.5 4.7 160.9 5.4 241.4 6.2l241.4.8 241.4.6 241.4-.8h8.9z" fill="#ccced0"/><path d="m234.7 274.5v-106.6c0-37.2 30.1-67.3 67.3-67.3h996c37.2 0 67.3 30.1 67.3 67.3v106.6zm185.3 309.8c-38.3 0-69.4 31.1-69.4 69.4s31.1 69.4 69.4 69.4 69.4-31.1 69.4-69.4-31-69.4-69.4-69.4z" fill="#ccced0"/><path d="m1421.5 276.5c-103.6 6.2-207.2 6.2-310.8 6.5l-310.7 1.2-310.8-1.2c-103.6-.4-207.2-.3-310.8-6.5v-4.1c103.6-6.2 207.2-6.2 310.8-6.5l310.8-1.1 310.8 1.1c103.6.4 207.2.3 310.8 6.5v4.1z" fill="#204a69"/><path d="m1226.7 473.1h-677.4v-92h704v65.4c0 14.7-11.9 26.6-26.6 26.6zm26.6 487.6v-134h-704v160.6h677.4c14.7 0 26.6-11.9 26.6-26.6zm0-238.1v-174h-704v200.6h677.4c14.7 0 26.6-11.9 26.6-26.6z" fill="#e1e2e2"/><path d="m419.9 518.7c2.2 3.4 3.1 6.9 3.5 10.4s.7 7 .7 10.6c0 3.5-.2 7-.4 10.6-.3 3.5-.8 7-2.2 10.5-.4.9-1.4 1.3-2.3 1-.5-.2-.8-.5-1-.9l-.1-.1c-1.5-3.5-2.2-7-2.6-10.5s-.7-6.9-.8-10.4 0-6.9.3-10.4 1-7 3.1-10.6c.2-.5.8-.6 1.3-.4.3-.1.4.1.5.2zm-.5 225.4c-.5-.2-1 .1-1.1.5-2 5.9-2.6 11.6-2.9 17.4s-.4 11.6-.4 17.3c.4 11.6.2 23.1 2.5 34.7.1.6.6 1.1 1.2 1.3.9.3 1.8-.3 2.1-1.2 1.7-5.8 2.4-11.6 2.8-17.4s.6-11.6.7-17.5c0-5.8-.2-11.6-.7-17.4s-1.4-11.6-3.7-17.3c-.1-.1-.3-.3-.5-.4z" fill="#ccced0"/><circle cx="360.2" cy="185.4" fill="#fff" r="16.8"/><path d="m489.4 425.4c0 38.3-31.1 69.4-69.4 69.4s-69.4-31.1-69.4-69.4 31.1-69.4 69.4-69.4 69.4 31.1 69.4 69.4zm-69.4 411.7c-38.3 0-69.4 31.1-69.4 69.4s31.1 69.4 69.4 69.4 69.4-31.1 69.4-69.4-31-69.4-69.4-69.4z" fill="#00be27"/><path d="m465.2 185.4c0 9.3-7.5 16.8-16.8 16.8s-16.8-7.5-16.8-16.8 7.5-16.8 16.8-16.8 16.8 7.5 16.8 16.8zm71.4-16.9c-9.3 0-16.8 7.5-16.8 16.8s7.5 16.8 16.8 16.8 16.8-7.5 16.8-16.8c.1-9.2-7.5-16.8-16.8-16.8z" fill="#e1e2e2"/></svg>