<svg viewBox="0 0 198 142" xmlns="http://www.w3.org/2000/svg"><path d="m177.9 99.1h19.5z" fill="#fff"/><path d="m197.6 98.9h-19.5" fill="none"/><path d="m197.6 99c-1.6.2-3.2.4-4.9.4l-2.4.1h-2.4c-1.6 0-3.2 0-4.9-.1s-3.2-.1-4.9-.3c-.1 0-.2-.1-.2-.2s.1-.2.2-.2c1.6-.2 3.3-.2 4.9-.3s3.2-.1 4.9-.1h2.4l2.4.1c1.6 0 3.3.2 4.9.4.1 0 .1.1.1.1 0 .1 0 .1-.1.1z" fill="#c3c4c7"/><path d="m190.7 137.9v-39" fill="none"/><path d="m190.6 137.9c-.1-.8-.1-1.6-.2-2.4l-.1-2.4c-.1-1.6-.1-3.2-.1-4.9v-9.8l.1-9.7c.1-3.2.1-6.5.3-9.7 0-.1.1-.2.2-.2s.2.1.2.2c.2 3.2.2 6.5.3 9.7l.1 9.7v4.9l-.1 4.9c0 1.6-.1 3.2-.1 4.9l-.1 2.4c-.1.8-.1 1.6-.2 2.4 0 .1 0 .1-.1.1s-.2-.1-.2-.1z" fill="#f6f7f7"/><path d="m.3 98.8c2.1-.3 4.2-.3 6.3-.4l3.1-.1h3.1l6.3.1c2.1.1 4.2.1 6.3.3.1 0 .1.1.1.2s0 .2-.1.2c-2.1.2-4.2.2-6.3.3l-6.3.1h-3l-3.1-.1c-2.1-.1-4.2-.1-6.3-.4v-.1c-.1 0-.1-.1-.1-.1z" fill="#c3c4c7"/><path d="m28.1 45.7c.7 0 1.3-.1 1.9-.4 3.2-1 4.7-3.8 4.6-6.9 0-.9 1.5-1.5 1.2-2.4-.4-1.2-2.5-1.1-3.5-3.3-1.2-2.5-4.3-3.1-7.2-2.2-4.1 1.4-6.3 5.8-4.9 9.9" fill="#fff"/><path d="m28.1 46.2c-.3 0-.5-.2-.5-.5s.2-.5.5-.5c.6 0 1.2-.1 1.7-.3 2.8-.9 4.4-3.3 4.3-6.4 0-.6.4-1.1.7-1.5s.5-.6.5-.8c-.1-.3-.4-.5-1-.8-.8-.4-1.8-1-2.5-2.5-1.1-2.4-4.2-2.7-6.6-1.9-3.8 1.3-5.9 5.4-4.6 9.2.1.3-.1.5-.3.6-.3.1-.5-.1-.6-.3-1.4-4.3.9-9 5.2-10.5 3.4-1.1 6.6-.1 7.8 2.4.5 1.1 1.4 1.6 2.1 2 .6.4 1.2.7 1.5 1.4.3.8-.3 1.3-.7 1.8-.2.3-.5.5-.5.7.1 3.5-1.7 6.3-4.9 7.4-.6.4-1.3.5-2.1.5z" fill="#004e6e"/><path d="m27.3 36c1.1 2.8.9 7.6-2.1 8.7s-5-4.3-5-4.3z" fill="#646970"/><g fill="#004e6e"><path d="m19.1 77.2c-2.6 19.7-.4 61.9-.4 61.9h9.6l.8-35.3"/><path d="m28.7 139.5h-10.4v-.3c0-.4-2.1-42.4.4-62l.7.1c-2.4 18.5-.6 57.4-.4 61.5h9l.8-35h.7z"/><path d="m18.7 138.1c2.9.1 11.8.7 13.2 1.1s1.4.7-.2 1c-1.6.4-13 0-13 0z"/><path d="m27.5 140.8c-3.7 0-8.5-.2-8.8-.2h-.4v-2.9h.4c2.6.1 11.8.6 13.3 1.2.8.3 1.3.5 1.2.9 0 .4-.5.6-1.5.8-.5.2-2.2.2-4.2.2zm-8.5-.9c3.4.1 11.3.3 12.5 0 .3-.1.5-.1.6-.2-.1 0-.3-.1-.5-.2-1.2-.4-9.2-1-12.7-1.1v1.5z"/></g><path d="m34.9 76.8s1 15 1.6 30.4c.4 12.9-1.1 26.5-1 31.9h-10.6c.1-31.5-6.1-44.6-5.8-61.9" fill="#3895ba"/><path d="m18.3 55.4c-1.1 10.8.8 21.8.8 21.8l15.9-.4-.2-9.8-3.7-2 4.5-8.7-3-3.1-4.5-4.6c-4.3-1-8.6 1.7-9.6 5.9-.1.3-.2.6-.2.9z" fill="#3895ba"/><path d="m29.6 64.3.7 51.7h6.7l-1-48.6z" fill="#c3c4c7"/><path d="m27.8 62.2c6.2 5.4 12.3 7 14.9 4.8 3.8-3.2-3-15.7-3.4-17.6-1.6-6.4-5.1-6.4-6-5.7-.8.7.8 4.7.8 4.7l1.6 8.5" fill="#fff"/><path d="m39.7 68.4c-3.3 0-7.9-2.1-12.3-5.9-.2-.2-.2-.5-.1-.7.2-.2.5-.2.7-.1 6.4 5.5 12.1 6.6 14.3 4.8 2.7-2.3-.9-10.7-2.6-14.7-.5-1.2-.9-2-1-2.4-1-4-2.7-5.2-3.6-5.5-.8-.3-1.3-.1-1.5.1-.3.3.2 2.3 1 4.1v.1l1.6 8.5c0 .3-.1.5-.4.6-.3 0-.5-.1-.6-.4l-1.6-8.5c-.6-1.5-1.6-4.3-.6-5.1.5-.4 1.4-.6 2.5-.2s3.2 1.7 4.3 6.2c.1.3.5 1.2.9 2.3 2 4.6 5.6 13.1 2.3 15.8-.9.7-2 1-3.3 1z" fill="#004e6e"/><path d="m37.8 59.5c-.1 0-.2 0-.3-.1l-5.8-5.5c-.2-.2-.2-.5 0-.7s.5-.2.7 0l5.8 5.5c.2.2.2.5 0 .7-.1.1-.2.1-.4.1z" fill="#004e6e"/><path d="m24.9 138.1c2.9.1 11.8.7 13.1 1.1 1.3.5 1.4 1.2-.2 1.6s-13 0-13 0v-2.7z" fill="#3895ba"/><path d="m28.6 49c-.2 0-.4-.2-.5-.4l-.6-2.6c0-.2 0-.3.1-.4s.3-.2.4-.2l1.5.1c.2 0 .3.1.4.2s.1.3.1.4l-.9 2.6c-.1.2-.3.3-.5.3zm0-2.6.1.3.1-.3z" fill="#004e6e"/><path d="m23.7 78.3c-3 0-5.4-.3-5.6-.3-.3 0-.5-.3-.4-.6 0-.3.3-.5.6-.4.1 0 9.3 1.1 13.9-1 .3-.1.5 0 .7.3.1.3 0 .5-.3.7-2.5 1-6 1.3-8.9 1.3z" fill="#c3c4c7"/><path d="m35.4 91.5c-1 0-2.1-.1-3.1-.3-.3 0-.5-.3-.4-.6 0-.3.3-.5.6-.4 1.7.3 3.5.3 5.3.1.3 0 .5.2.6.4s-.2.5-.4.6c-1 .2-1.8.2-2.6.2z" fill="#fff"/><path d="m22.9 49.6c-.6 0-1.2-.2-1.6-.5s-.8-1-.6-2.2c.1-.7.7-1.1 1.5-1.1 1.3 0 3.3 1.1 3.4 2.1 0 .3 0 .9-1 1.3-.6.3-1.2.4-1.7.4zm-.7-2.8c-.4 0-.4.2-.5.2-.1.4-.1 1 .3 1.2.4.4 1.3.3 2.4 0 .3-.1.3-.2.3-.2 0-.3-1.2-1.2-2.3-1.3-.1.2-.2.1-.2.1z" fill="#c3c4c7"/><path d="m30.3 50.9c-.1 0-.3 0-.4-.1-1.4-1.4-4.4-1.8-4.4-1.8-.3 0-.5-.3-.4-.6 0-.3.3-.5.6-.4.1 0 3.3.5 5 2.1.2.2.2.5 0 .7-.1 0-.3.1-.4.1zm-10.6-9.2c-.2 0-.3-.1-.4-.2-.2-.2-.1-.5.1-.7l15.6-10.7c.2-.2.5-.1.7.1s.1.5-.1.7l-15.6 10.7c-.1 0-.2.1-.3.1z" fill="#c3c4c7"/><path d="m33 41.4h-.3c-.3 0-.5-.3-.5-.5 0-.3.2-.5.5-.5.4 0 .7 0 1.1-.1.3-.1.5 0 .6.3s0 .5-.3.6c-.3.2-.7.2-1.1.2zm-1.2-5.4c.2 0 .5.1.5.4l.1.7c0 .2-.1.5-.4.5-.2 0-.5-.1-.5-.4l-.1-.7c0-.2.1-.4.4-.5z" fill="#004e6e"/><path d="m42.9 22.1-.2-7.8v-5.1c0-4.5 3.7-8.2 8.2-8.2h121.1c4.5 0 8.2 3.7 8.2 8.2v13" fill="#fff"/><path d="m42.9 23.1c-.5 0-1-.4-1-1l-.1-2.5c0-.6.4-1 1-1s1 .4 1 1l.1 2.5c.1.6-.4 1-1 1 .1 0 .1 0 0 0zm137.3-7.5c-.6 0-1-.4-1-1v-5.1c0-.6.4-1 1-1s1 .4 1 1v5.1c0 .5-.5 1-1 1zm-137.5 0c-.6 0-1-.4-1-1v-5.1c0-.6.4-1 1-1s1 .4 1 1v5.1c0 .5-.4 1-1 1zm136.1-9.9c-.3 0-.6-.2-.8-.4-.8-1.2-2-2.2-3.4-2.8-.5-.2-.8-.8-.6-1.3s.8-.8 1.3-.6c1.8.7 3.3 1.9 4.4 3.5.3.5.2 1.1-.3 1.4-.2.1-.4.2-.6.2zm-134.7 0c-.2 0-.4-.1-.6-.2-.5-.3-.6-.9-.3-1.4 1.1-1.6 2.6-2.8 4.4-3.5.5-.2 1.1.1 1.3.6s-.1 1.1-.6 1.3c-1.3.5-2.6 1.5-3.4 2.7-.2.3-.5.5-.8.5zm125.8-3.7h-5.1c-.6 0-1-.4-1-1s.4-1 1-1h5.1c.6 0 1 .4 1 1s-.4 1-1 1zm-10.1 0h-5.1c-.6 0-1-.4-1-1s.4-1 1-1h5.1c.6 0 1 .4 1 1s-.5 1-1 1zm-10.2 0h-5.1c-.6 0-1-.4-1-1s.4-1 1-1h5.1c.6 0 1 .4 1 1s-.5 1-1 1zm-10.2 0h-5.1c-.6 0-1-.4-1-1s.4-1 1-1h5.1c.6 0 1 .4 1 1s-.4 1-1 1zm-10.1 0h-5.1c-.6 0-1-.4-1-1s.4-1 1-1h5.1c.6 0 1 .4 1 1s-.5 1-1 1zm-10.2 0h-5.1c-.6 0-1-.4-1-1s.4-1 1-1h5.1c.6 0 1 .4 1 1s-.5 1-1 1zm-10.2 0h-5.1c-.6 0-1-.4-1-1s.4-1 1-1h5.1c.6 0 1 .4 1 1s-.4 1-1 1zm-10.1 0h-5.1c-.6 0-1-.4-1-1s.4-1 1-1h5.1c.6 0 1 .4 1 1s-.5 1-1 1zm-10.2 0h-5.1c-.6 0-1-.4-1-1s.4-1 1-1h5.1c.6 0 1 .4 1 1s-.5 1-1 1zm-10.2 0h-5.1c-.6 0-1-.4-1-1s.4-1 1-1h5.1c.6 0 1 .4 1 1s-.4 1-1 1zm-10.1 0h-5.1c-.6 0-1-.4-1-1s.4-1 1-1h5.1c.6 0 1 .4 1 1s-.5 1-1 1zm-10.2 0h-5.1c-.6 0-1-.4-1-1s.4-1 1-1h5.1c.6 0 1 .4 1 1s-.5 1-1 1zm122.1 21.1c-.6 0-1-.4-1-1v-2.5c0-.6.4-1 1-1s1 .4 1 1v2.5c0 .6-.5 1-1 1z" fill="#c3c4c7"/><path d="m187 23.1h-151.1" fill="none"/><path d="m187 23.4c-6.3.4-12.6.6-18.9.7s-12.6.1-18.9.1l-37.8.1-37.8-.1c-6.3 0-12.6 0-18.9-.1s-12.6-.3-18.9-.7v-.5c6.3-.4 12.6-.6 18.9-.7s12.6-.1 18.9-.1l37.8-.1 37.8.1c6.3 0 12.6 0 18.9.1s12.6.3 18.9.7z" fill="#c3c4c7"/><path d="m43 127.6v-95.9h137.4v95.9z" fill="#8e9196" opacity=".26"/><path d="m114.6 108.9h-2.5c-.6 0-1-.4-1-1s.4-1 1-1h1.5v-1.5c0-.6.4-1 1-1s1 .4 1 1v2.5c0 .6-.4 1-1 1zm-7.1 0h-4.6c-.6 0-1-.4-1-1s.4-1 1-1h4.6c.6 0 1 .4 1 1s-.4 1-1 1zm-9.2 0h-4.6c-.6 0-1-.4-1-1s.4-1 1-1h4.6c.6 0 1 .4 1 1s-.4 1-1 1zm-9.2 0h-4.6c-.6 0-1-.4-1-1s.4-1 1-1h4.6c.6 0 1 .4 1 1s-.4 1-1 1zm-9.2 0h-4.6c-.6 0-1-.4-1-1s.4-1 1-1h4.6c.6 0 1 .4 1 1s-.5 1-1 1zm-9.2 0h-4.6c-.6 0-1-.4-1-1s.4-1 1-1h4.6c.6 0 1 .4 1 1s-.5 1-1 1zm-9.2 0h-2.5c-.6 0-1-.4-1-1v-2.5c0-.6.4-1 1-1s1 .4 1 1v1.5h1.5c.6 0 1 .4 1 1s-.5 1-1 1zm-2.5-7.7c-.6 0-1-.4-1-1v-5.3c0-.6.4-1 1-1s1 .4 1 1v5.3c0 .5-.5 1-1 1zm0-10.5c-.6 0-1-.4-1-1v-5.3c0-.6.4-1 1-1s1 .4 1 1v5.3c0 .5-.5 1-1 1zm0-10.6c-.6 0-1-.4-1-1v-5.3c0-.6.4-1 1-1s1 .4 1 1v5.3c0 .6-.5 1-1 1zm0-10.5c-.6 0-1-.4-1-1v-5.3c0-.6.4-1 1-1s1 .4 1 1v5.3c0 .6-.5 1-1 1zm0-10.5c-.6 0-1-.4-1-1v-2.5c0-.6.4-1 1-1h2.5c.6 0 1 .4 1 1s-.4 1-1 1h-1.5v1.5c0 .5-.5 1-1 1zm48.5-2.5h-4.6c-.6 0-1-.4-1-1s.4-1 1-1h4.6c.6 0 1 .4 1 1s-.4 1-1 1zm-9.2 0h-4.6c-.6 0-1-.4-1-1s.4-1 1-1h4.6c.6 0 1 .4 1 1s-.4 1-1 1zm-9.2 0h-4.6c-.6 0-1-.4-1-1s.4-1 1-1h4.6c.6 0 1 .4 1 1s-.4 1-1 1zm-9.2 0h-4.6c-.6 0-1-.4-1-1s.4-1 1-1h4.6c.6 0 1 .4 1 1s-.4 1-1 1zm-9.2 0h-4.6c-.6 0-1-.4-1-1s.4-1 1-1h4.6c.6 0 1 .4 1 1s-.5 1-1 1zm43.9 2.5c-.6 0-1-.4-1-1v-1.5h-1.5c-.6 0-1-.4-1-1s.4-1 1-1h2.5c.6 0 1 .4 1 1v2.5c0 .5-.4 1-1 1zm0 42.1c-.6 0-1-.4-1-1v-5.3c0-.6.4-1 1-1s1 .4 1 1v5.3c0 .5-.4 1-1 1zm0-10.5c-.6 0-1-.4-1-1v-5.3c0-.6.4-1 1-1s1 .4 1 1v5.3c0 .5-.4 1-1 1zm0-10.6c-.6 0-1-.4-1-1v-5.3c0-.6.4-1 1-1s1 .4 1 1v5.3c0 .6-.4 1-1 1zm0-10.5c-.6 0-1-.4-1-1v-5.3c0-.6.4-1 1-1s1 .4 1 1v5.3c0 .6-.4 1-1 1z" fill="#fff"/><path d="m67.7 71.3h51.8v1.7c0 4.5-3.6 8.2-8.2 8.2h-43.6z" fill="#fff"/><path d="m67.7 89.7h32.4v1.7c0 4.5-3.6 8.2-8.2 8.2h-24.2z" fill="#646970" opacity=".26"/><path d="m135.7 83.8h32.7v34.8h-39.6v-27.9c0-3.8 3.1-6.9 6.9-6.9z" fill="#2fb41f"/><path d="m187.7 74.6h-41.9v-33.5h36.1c3.2 0 5.8 2.6 5.8 5.8z" fill="#fff"/><path d="m187.7 75.6h-2.5c-.6 0-1-.4-1-1s.4-1 1-1h1.5v-1.5c0-.6.4-1 1-1s1 .4 1 1v2.5c0 .6-.5 1-1 1zm-7.8 0h-5.3c-.6 0-1-.4-1-1s.4-1 1-1h5.3c.6 0 1 .4 1 1s-.4 1-1 1zm-10.5 0h-5.3c-.6 0-1-.4-1-1s.4-1 1-1h5.3c.6 0 1 .4 1 1s-.5 1-1 1zm-10.6 0h-5.3c-.6 0-1-.4-1-1s.4-1 1-1h5.3c.6 0 1 .4 1 1s-.4 1-1 1zm-10.5 0h-2.5c-.6 0-1-.4-1-1v-2.5c0-.6.4-1 1-1s1 .4 1 1v1.5h1.5c.6 0 1 .4 1 1s-.5 1-1 1zm-2.5-8.2c-.6 0-1-.4-1-1v-5.7c0-.6.4-1 1-1s1 .4 1 1v5.7c0 .6-.5 1-1 1zm0-11.4c-.6 0-1-.4-1-1v-5.7c0-.6.4-1 1-1s1 .4 1 1v5.7c0 .5-.5 1-1 1zm0-11.4c-.6 0-1-.4-1-1v-2.5c0-.6.4-1 1-1h2.5c.6 0 1 .4 1 1s-.4 1-1 1h-1.5v1.5c0 .5-.5 1-1 1zm41.9 23.3c-.6 0-1-.4-1-1v-5.2c0-.6.4-1 1-1s1 .4 1 1v5.2c0 .6-.5 1-1 1zm0-10.4c-.6 0-1-.4-1-1v-5.2c0-.6.4-1 1-1s1 .4 1 1v5.2c0 .5-.5 1-1 1zm-.1-10.5c-.5 0-.9-.4-1-.8-.2-1.5-1.1-2.7-2.4-3.5-.5-.3-.6-.9-.4-1.4.3-.5.9-.6 1.4-.4 1.8 1 3 2.8 3.4 4.9.1.5-.3 1.1-.8 1.1-.1.1-.1.1-.2.1zm-7.9-4.9h-5.2c-.6 0-1-.4-1-1s.4-1 1-1h5.2c.6 0 1 .4 1 1s-.5 1-1 1zm-10.5 0h-5.2c-.6 0-1-.4-1-1s.4-1 1-1h5.2c.6 0 1 .4 1 1s-.5 1-1 1zm-10.5 0h-5.2c-.6 0-1-.4-1-1s.4-1 1-1h5.2c.6 0 1 .4 1 1s-.4 1-1 1z" fill="#c3c4c7"/><path d="m145.6 41.2 40.9 33" fill="none"/><path d="m147.5 43.8c-.2 0-.4-.1-.6-.2l-1.9-1.6c-.4-.3-.5-1-.1-1.4.3-.4 1-.5 1.4-.1l1.9 1.6c.4.3.5 1 .1 1.4-.2.2-.5.3-.8.3zm33 26.5c-.2 0-.4-.1-.6-.2l-4.1-3.3c-.4-.3-.5-1-.2-1.4s1-.5 1.4-.2l4.1 3.3c.4.3.5 1 .2 1.4-.2.3-.5.4-.8.4zm-8.2-6.6c-.2 0-.4-.1-.6-.2l-4.1-3.3c-.4-.3-.5-1-.2-1.4s1-.5 1.4-.2l4.1 3.3c.4.3.5 1 .2 1.4-.3.3-.6.4-.8.4zm-8.3-6.6c-.2 0-.4-.1-.6-.2l-4.1-3.3c-.4-.3-.5-1-.2-1.4s1-.5 1.4-.2l4.1 3.3c.4.3.5 1 .2 1.4-.2.2-.5.4-.8.4zm-8.2-6.7c-.2 0-.4-.1-.6-.2l-4.1-3.3c-.4-.3-.5-1-.2-1.4s1-.5 1.4-.2l4.1 3.3c.4.3.5 1 .2 1.4-.2.3-.5.4-.8.4zm30.7 24.8c-.2 0-.4-.1-.6-.2l-1.9-1.6c-.4-.3-.5-1-.2-1.4s1-.5 1.4-.2l1.9 1.6c.4.3.5 1 .2 1.4-.2.3-.5.4-.8.4z" fill="#c3c4c7"/><circle cx="57.9" cy="11.6" fill="#8e9196" opacity=".26" r="2"/><circle cx="68.6" cy="11.6" fill="#8e9196" opacity=".26" r="2"/><circle cx="79.4" cy="11.6" fill="#8e9196" opacity=".26" r="2"/></svg>
