<svg xmlns="http://www.w3.org/2000/svg" viewBox="0 0 1600 1168"><defs><style>.cls-1{fill:#46799A}.cls-2{fill:#00be28}.cls-3{fill:#CCCED0}.cls-4{fill:#204A69}.cls-5{fill:#6F93AD}.cls-6{fill:none}</style></defs><title>jetpack-marketing</title><g id="jetpack-marketing"><g id="Layer_2" data-name="Layer 2"><g id="Layer_1-2" data-name="Layer 1-2"><path class="cls-1" d="M598.9 1043.22c9.5-2 15.42-2.78 24.92-4.17l6.5-.93 6.37-1.51a95.19 95.19 0 0 0 12.52-3.48 156 156 0 0 0 45.57-23.13 145.37 145.37 0 0 0 55.65-81.16 183 183 0 0 0 4.05-51.13V713.84L767 727.06H596.58l13.21-13.22c0 53.68-1.27 107.36-2.43 161.39s-3.48 108.28-8.46 167.99zm-4.18 4.06c-4.87-50.9-7.65-106.9-8.69-163.47s-2-113.51-2.44-170.32v-13.21h197.33v177.38a204.88 204.88 0 0 1-5.92 57.27 159.45 159.45 0 0 1-67.24 92.75 147.66 147.66 0 0 1-54.84 21.45 97.61 97.61 0 0 1-14.26 1.74 82.82 82.82 0 0 1-14.26 0 172.26 172.26 0 0 1-29.68-3.59z"/><path class="cls-2" d="M152.54 651.7v-79.53a56.47 56.47 0 0 1 46.37-55.54l8-.81a2366.3 2366.3 0 0 0 823.85-313l163-101a45.44 45.44 0 0 1 62.6 42.2V909.2a45.55 45.55 0 0 1-56.23 44.28l-142.48-61.09a2380.06 2380.06 0 0 0-823.14-189.56l-33.39-1.51a50.09 50.09 0 0 1-48.58-49.62z"/><path class="cls-3" d="M1193.77 101.81L1030.76 202a2371.52 2371.52 0 0 1-551.28 248v277.41a2378.26 2378.26 0 0 1 578.18 165l142.48 61a45.54 45.54 0 0 0 56.23-44.29V143.9a45.45 45.45 0 0 0-62.6-42.09z"/><path class="cls-4" d="M245.29 432.35a274.6 274.6 0 0 1 9.51 82.43c.92 27.48 1 55 1.27 82.43s0 54.95-1.27 82.43a274.6 274.6 0 0 1-9.51 82.43h-5.8a271 271 0 0 1-9.39-82.43c-.93-27.48-1.16-54.95-1.39-82.43s0-55 1.39-82.43a271 271 0 0 1 9.39-82.43z"/><path class="cls-1" d="M1443.73 268.41a38.28 38.28 0 0 1-15.31 25.59c-6.6 6.72-13.44 13.21-20.52 19.36s-14.72 11.59-22.37 17.39a37.71 37.71 0 0 1-27.25 11.13l-3.71-4.41a38.12 38.12 0 0 1 15.31-25.5c6.72-6.73 13.44-13.22 20.63-19.37s14.61-11.59 22.26-17.39a37.81 37.81 0 0 1 27.6-11.59zm51.13 213.33a43.29 43.29 0 0 1-30.5 9.16c-10.2.69-20.28 1-30.37 1s-20.29-.81-30.38-1.74a42.78 42.78 0 0 1-30.37-9.74v-5.79a43.11 43.11 0 0 1 30.49-9.16c10.09-.7 20.29-1.05 30.37-1.05s20.29.81 30.38 1.74a42.43 42.43 0 0 1 30.26 9.74zm-61 157.9a28.06 28.06 0 0 1-24.46-6.37 203.39 203.39 0 0 1-19.71-12.76 222.53 222.53 0 0 1-18.09-15.07 28.17 28.17 0 0 1-13.32-21.44l3.48-4.63a27.8 27.8 0 0 1 24.46 6.26 226.94 226.94 0 0 1 19.71 12.75c6.26 4.75 12.29 9.74 18.09 15.07a27.93 27.93 0 0 1 13.21 21.45z"/><path class="cls-5" d="M1152.73 114.8a1761.7 1761.7 0 0 1 9.5 211c.81 70.38 1 140.75 1.28 211.12s-.47 141.21-1.28 210.78a1759.62 1759.62 0 0 1-9.5 211h-5.8a1736.86 1736.86 0 0 1-8.93-211c-.93-70.38-1.16-140.75-1.39-211.12s0-140.75 1.39-211.13a1739 1739 0 0 1 9.39-211z"/></g></g></g><g id="clear_rectangle" data-name="clear rectangle"><path id="Layer_4" data-name="Layer 4" class="cls-6" d="M0 0h1600v1168H0z"/></g></svg>