<?xml version="1.0" encoding="UTF-8"?>
<svg width="102px" height="79px" viewBox="0 0 102 79" version="1.1" xmlns="http://www.w3.org/2000/svg" xmlns:xlink="http://www.w3.org/1999/xlink">
    <!-- Generator: Sketch 54.1 (76490) - https://sketchapp.com -->
    <title>Group 32</title>
    <desc>Created with Sketch.</desc>
    <defs>
        <polygon id="path-1" points="0.4489 0.0782819277 0.9489 0.0782819277 0.9489 68 0.4489 68"></polygon>
        <polygon id="path-3" points="0 0.03865 101.793109 0.03865 101.793109 0.53865 0 0.53865"></polygon>
        <polygon id="path-5" points="0 0.038 101.792944 0.038 101.792944 1.9784 0 1.9784"></polygon>
    </defs>
    <g id="Page-1" stroke="none" stroke-width="1" fill="none" fill-rule="evenodd">
        <g id="Hire---illustrations" transform="translate(-965.000000, -613.000000)">
            <g id="Publicize" transform="translate(944.000000, 585.000000)">
                <g id="Group-32" transform="translate(21.000000, 28.000000)">
                    <path d="M97.9173491,46.1466663 C97.8754068,40.7868097 97.8754068,35.4610872 97.7923446,30.0999969 C97.7179177,25.292864 97.6397899,20.4857311 97.5053279,15.7049184 L97.5053279,5.4462196 C97.5053279,2.41158587 95.0525273,0 92.0170581,0 L10.4874474,0 C7.49474285,0 5,2.41158587 5,5.4462196 L5,16.1322099 L5.198609,16.1322099 C5.04440947,20.0374656 5.07031499,23.9344963 5.04153107,27.8512671 L5,44.9009818 L5.12500442,61.9502853 C5.1665355,67.649014 5.12500442,73.3033275 5.70643946,79 L6.03909925,79 C6.57982562,73.30086 6.49635227,67.6469578 6.53788334,61.9502853 L6.57982562,44.9009818 L6.45482119,27.8512671 C6.42603728,23.9332625 6.43220526,20.0362319 6.25251141,16.1322099 L97.073158,16.1322099 C96.953088,20.7941706 96.9025105,25.4368024 96.7943653,30.1057544 C96.6701832,35.4664334 96.6701832,40.7892772 96.628241,46.1524238 L96.5468236,77.5013951 L77.5872714,77.4619149 L57.8818047,77.5030401 L38.1755155,77.5449879 C31.6066154,77.5865244 25.0385377,77.668775 18.4696376,78.0442487 L18.4696376,78.3765409 C25.0385377,78.7503696 31.6066154,78.7923174 38.1755155,78.8749792 L57.8818047,78.9111694 L77.5872714,78.9527059 L97.2931493,78.9111694 L98,78.9111694 L98,78.204226 L97.9173491,46.1466663 Z" id="Fill-1" fill="#CCCED0"></path>
                    <path d="M15.3635868,28.3650049 L51.0391007,28.3320437 L86.796932,28.2863101 L86.8405602,37.5941353 C86.851673,40.8976696 86.872664,44.2016159 86.9134111,47.5051502 L87.0216584,57.415753 L87.1825888,66.911045 C84.2241034,66.8488308 81.2652065,66.7915607 78.3067211,66.7515953 C75.2766196,66.7178101 72.2469298,66.7021535 69.2172399,66.7050376 L51.0391007,66.688145 L15.3537087,66.6551838 L15.3635868,28.3650049 Z M69.2172399,67.9484982 C72.2469298,67.9517943 75.2766196,67.9357257 78.3067211,67.9015285 C81.3359994,67.861151 84.3656892,67.8030569 87.3957907,67.7387826 L87.5945871,67.7346625 L87.7695114,57.415753 L87.8777587,47.5051502 C87.9185058,44.2016159 87.9394968,40.8976696 87.9506096,37.5941353 L87.9975305,27.6835325 L88,27.0815789 L87.3957907,27.0807549 L51.0391007,27.0346092 L14.6819992,27.000824 L14,27 L14,27.6835325 L14.0102897,67.3267679 L14.0107013,68 L14.6819992,67.999176 L51.0391007,67.9653908 L69.2172399,67.9484982 Z" id="Fill-3" fill="#CCCED0"></path>
                    <path d="M51.5,54.9976134 C54.8125,54.9958343 58.125,54.9928691 61.2307502,54.9744851 C64.336091,54.9558045 67.2346821,54.9584731 69.7189547,54.9258562 C70.9606816,54.9080652 72.0992384,54.8881985 73.1088323,54.8576573 C74.1180169,54.8318602 74.9982388,54.7974642 75.7224771,54.7678125 C77.1717726,54.707916 78,54.648316 78,54.648316 L78,54.3517988 C78,54.3517988 77.1717726,54.2921988 75.7224771,54.2323023 C74.9982388,54.2026506 74.1180169,54.167958 73.1088323,54.1424576 C72.0992384,54.1119163 70.9606816,54.0917531 69.7189547,54.0742586 C67.2346821,54.0413452 64.336091,54.0443103 61.2307502,54.0256297 C58.125,54.0069492 54.8125,54.003984 51.5,54.0025014 C48.1875,53.9939024 44.875,54.0096178 41.7696592,54.0173273 C38.663909,54.0262228 35.7657274,54.0342287 33.2814547,54.0413452 C30.7967726,54.0543919 28.7268184,54.0404556 27.2771135,54.072183 C26.5524657,54.090567 25.983392,54.1202188 25.5952756,54.1525391 C25.2071592,54.1798187 25,54.2035401 25,54.2035401 L25,54.7965747 C25,54.7965747 25.2071592,54.8199996 25.5952756,54.8472791 C25.983392,54.879896 26.5524657,54.9095478 27.2771135,54.9279318 C28.7268184,54.9596592 30.7967726,54.9454264 33.2814547,54.9587696 C35.7657274,54.9658861 38.663909,54.973892 41.7696592,54.9827875 C44.875,54.990497 48.1875,55.0059159 51.5,54.9976134" id="Fill-5" fill="#CCCED0"></path>
                    <path d="M40.4312193,60.1425454 C40.1077679,60.1117075 39.742527,60.0918407 39.3438545,60.0743461 C38.5469272,60.0414326 37.617527,60.0443978 36.6212635,60.0254206 C35.625,60.0070364 34.5627089,60.0040712 33.5,60.0022921 C32.4377089,59.9948792 31.375,60.007333 30.3791544,60.0129668 C29.3828909,60.0224554 28.4530728,60.0310544 27.6565634,60.0384674 C26.8592183,60.0527003 26.1955998,60.0408395 25.7304818,60.0722705 C25.2657817,60.1063701 25,60.2036282 25,60.2036282 L25,60.7966652 C25,60.7966652 25.2657817,60.8936268 25.7304818,60.9277264 C26.1955998,60.9591573 26.8592183,60.9472966 27.6565634,60.961826 C28.4530728,60.9689425 29.3828909,60.9775415 30.3791544,60.9873266 C31.375,60.9926639 32.4377089,61.0051177 33.5,60.9977048 C34.5627089,60.9959256 35.625,60.9929605 36.6212635,60.9745763 C37.617527,60.9558956 38.5469272,60.9585643 39.3438545,60.9259473 C39.742527,60.9081562 40.1077679,60.8882894 40.4312193,60.857748 C40.7550885,60.8319509 41.0371681,60.7975548 41.2695182,60.7676064 C41.7346362,60.7080062 42,60.648406 42,60.648406 L42,60.3518875 C42,60.3518875 41.7346362,60.2922872 41.2695182,60.2323905 C41.0371681,60.2027386 40.7550885,60.168046 40.4312193,60.1425454" id="Fill-7" fill="#CCCED0"></path>
                    <path d="M52.7420273,60.7669964 C52.9060364,60.7075417 53,60.6480869 53,60.6480869 L53,60.3522922 C53,60.3522922 52.9060364,60.2925416 52.7420273,60.2327911 C52.5780182,60.1730405 52.3435364,60.1053035 52.0620729,60.0742451 C51.7810364,60.045553 51.4525911,60.0396371 51.1015091,60.0230726 C50.75,60.0103534 50.375,60.0017753 50,60.0005922 C49.625,59.9973384 49.25,60.0082828 48.8984909,60.0141987 C48.5469818,60.0233684 48.2189636,60.0322422 47.9375,60.0396371 C47.7969818,60.0437782 47.6679954,60.0476235 47.5539579,60.0511731 C47.4394932,60.0559058 47.3399772,60.0520605 47.2579727,60.0718787 C47.0939636,60.1091489 47,60.2043948 47,60.2043948 L47,60.7959843 C47,60.7959843 47.0939636,60.8906386 47.2579727,60.9279088 C47.3399772,60.947727 47.4394932,60.9441775 47.5539579,60.9489102 C47.6679954,60.9524598 47.7969818,60.9563051 47.9375,60.9604462 C48.2189636,60.9678411 48.5469818,60.9764191 48.8984909,60.9858846 C49.25,60.9918005 49.625,61.0024491 50,60.9994911 C50.375,60.9980122 50.75,60.9894341 51.1015091,60.9767149 C51.4525911,60.9601504 51.7810364,60.9545303 52.0620729,60.9258382 C52.3435364,60.8947798 52.5780182,60.826747 52.7420273,60.7669964" id="Fill-9" fill="#CCCED0"></path>
                    <g id="Group-13" transform="translate(8.000000, 13.000000)">
                        <mask id="mask-2" fill="white">
                            <use xlink:href="#path-1"></use>
                        </mask>
                        <g id="Clip-12"></g>
                        <path d="M0.7744,68.000041 L0.6234,0.0782819277" id="Fill-11" fill="#FFFFFF" mask="url(#mask-2)"></path>
                    </g>
                    <g id="Group-16" transform="translate(0.000000, 14.000000)">
                        <mask id="mask-4" fill="white">
                            <use xlink:href="#path-3"></use>
                        </mask>
                        <g id="Clip-15"></g>
                        <path d="M101.959489,0.28865 L-0.163984615,0.28865" id="Fill-14" fill="#DEF2FA" mask="url(#mask-4)"></path>
                    </g>
                    <g id="Group-19" transform="translate(0.000000, 15.000000)">
                        <mask id="mask-6" fill="white">
                            <use xlink:href="#path-5"></use>
                        </mask>
                        <g id="Clip-18"></g>
                        <path d="M101.792944,1.21 C99.6637457,1.372 97.5324826,1.4928 95.4470575,1.574 L92.271017,1.6956 L90.6844421,1.736 L89.0978672,1.7768 C86.9686688,1.8172 84.8369927,1.8172 82.7519806,1.8568 L76.4048551,1.8972 L69.9751385,1.938 L63.6317296,1.938 L50.8978348,1.9784 L38.1218186,1.938 L31.7342235,1.938 L25.3879239,1.8972 L19.0412113,1.8568 C16.9124259,1.8568 14.7803368,1.8172 12.6953247,1.7768 L11.1087498,1.736 L9.5221749,1.6956 L6.34613441,1.574 C4.21652308,1.4928 2.08525992,1.372 -0.000165182186,1.21 L-0.000165182186,0.8064 C2.12862024,0.6448 4.26070931,0.5236 6.34613441,0.4424 L9.5221749,0.3208 L11.1087498,0.2804 L12.6953247,0.2404 C14.8245231,0.2 16.9557862,0.2 19.0412113,0.1596 L25.3879239,0.1188 L31.7342235,0.0784 L38.0801101,0.0784 L50.8140049,0.038 L63.5483126,0.0784 L69.8950251,0.0784 L76.2409117,0.1188 L82.5867984,0.1596 C84.7164097,0.1596 86.8476729,0.2 88.932685,0.2404 L90.5192599,0.2804 L92.1058348,0.3208 L95.2818753,0.4424 C97.4118996,0.5236 99.5427498,0.6448 101.629001,0.8064 L101.629001,1.2108 L101.792944,1.21 Z" id="Fill-17" fill="#224B68" mask="url(#mask-6)"></path>
                    </g>
                    <path d="M15,8.5 C15,9.32843872 14.3284387,10 13.5,10 C12.6715613,10 12,9.32843872 12,8.5 C12,7.67156128 12.6715613,7 13.5,7 C14.3176506,7.04540006 15,7.6814504 15,8.5" id="Fill-20" fill="#FFFFFF"></path>
                    <path d="M20.5,7 C19.6715613,7 19,7.67156128 19,8.5 C19,9.32843872 19.6715613,10 20.5,10 C21.3284387,10 22,9.32843872 22,8.5 C22,7.6814504 21.3185496,7.04540006 20.5,7" id="Fill-22" fill="#E1E2E2"></path>
                    <path d="M27.5026938,7 L27.4986531,7 C26.6707573,7 26,7.67156128 26,8.5 C26,9.32843872 26.6707573,10 27.4986531,10 C28.325651,10 28.9968572,9.32843872 28.9968572,8.5 L29,8.5 C29,7.6814504 28.3651601,7.04540006 27.5026938,7" id="Fill-24" fill="#E1E2E2"></path>
                    <path d="M33.8031662,38.3032884 C33.7550911,38.281299 33.7074415,38.2671926 33.6636209,38.2597246 L33.6312872,38.253916 L33.6061861,38.2505969 L33.5555584,38.2431288 L33.4555793,38.2294373 C33.3219902,38.210767 33.1896774,38.1925117 33.058641,38.1742564 C32.7965682,38.1381606 32.5396006,38.1024797 32.2873129,38.0672137 C31.7835885,37.9987561 31.3007107,37.9332028 30.8412324,37.8709687 C30.6119186,37.8398516 30.3877102,37.8099793 30.1703088,37.7805218 C30.1158521,37.7734686 30.0618209,37.7668303 30.0082151,37.7597771 L29.9733287,37.7552132 L29.9337626,37.7485749 C29.9137667,37.7435962 29.8984508,37.7406919 29.8759023,37.7328089 C29.7920901,37.7062557 29.7095541,37.661862 29.6372288,37.6095854 C29.5644781,37.5573087 29.4993853,37.4950746 29.4538629,37.4295213 C29.4415251,37.4129255 29.4330162,37.3971595 29.4223801,37.379734 C29.4108932,37.3581595 29.3994062,37.3369999 29.3883447,37.3158403 C29.3653708,37.2731062 29.3432477,37.2312019 29.3206993,37.1892976 C29.2313562,37.0225101 29.1449913,36.8611163 29.0624554,36.7067756 C28.8965326,36.3976795 28.7463513,36.1126472 28.6059551,35.8570723 C28.32729,35.3459227 28.1081869,34.9443052 27.9588564,34.670475 C27.8078241,34.3974746 27.7274154,34.2518468 27.7274154,34.2518468 L27.7746396,34.2232191 C27.7746396,34.2232191 27.7695343,34.2140914 27.7601745,34.195836 C27.756771,34.188368 27.7465604,34.1721871 27.7342225,34.1547615 C27.7227356,34.1360913 27.7074196,34.1190806 27.6887001,34.097921 C27.6784895,34.0879636 27.6670025,34.0771763 27.6546647,34.066804 C27.6397742,34.0564316 27.62616,34.0452295 27.607866,34.0356869 C27.5725542,34.015772 27.5236283,34.000006 27.4683207,34.000006 C27.4125876,33.9995911 27.3560037,34.0207507 27.3113322,34.0506231 C27.2666607,34.0800806 27.2292217,34.1182508 27.2007171,34.1593254 C27.1849757,34.1796552 27.1734887,34.2024744 27.1607254,34.2232191 C27.1505148,34.2410595 27.1403042,34.2593149 27.1296681,34.2784 C27.1088214,34.3165703 27.0862729,34.3564001 27.063299,34.3983044 C27.0165003,34.4825279 26.9658726,34.5738046 26.9109904,34.6729644 C26.8025025,34.8712838 26.6778477,35.0994756 26.5378769,35.3546355 C26.2587864,35.8657851 25.9354497,36.4939349 25.5602091,37.2125316 C25.5368097,37.2573402 25.5129849,37.3025637 25.4891601,37.348202 L25.4712915,37.3826383 C25.4712915,37.3826383 25.4653353,37.3942553 25.4700151,37.3855425 L25.4653353,37.3938404 L25.4555501,37.4108511 C25.452572,37.4158298 25.448743,37.422883 25.4461903,37.426617 L25.4389578,37.4365745 C25.4342779,37.4427979 25.4308744,37.4490213 25.4236419,37.4577341 C25.3742905,37.5228725 25.3053687,37.5851066 25.228789,37.6353088 C25.1526347,37.6867557 25.0658443,37.7261706 24.9841593,37.7448409 L24.9548037,37.7502345 L24.9139612,37.756043 C24.885882,37.7597771 24.8578027,37.763926 24.8292981,37.7676601 C24.7727142,37.7759579 24.7157048,37.7838409 24.65827,37.7917239 C24.1992171,37.8552027 23.7163393,37.9224156 23.2126149,37.9925327 C22.7088904,38.0622349 22.1843193,38.1352563 21.6410286,38.210767 C21.5733832,38.2203096 21.5048869,38.2294373 21.436816,38.2389798 L21.3853374,38.2464479 L21.3649161,38.2493522 L21.3521529,38.2518416 L21.3266263,38.2564054 C21.3010997,38.2626288 21.2713187,38.2692671 21.2470684,38.2792246 L21.2100549,38.2941608 L21.1721905,38.3140757 C21.1215628,38.3439481 21.0675315,38.3895864 21.0330706,38.4576291 C20.9977589,38.5252568 20.993079,38.6065761 21.0079695,38.6692251 C21.02286,38.7327039 21.0505138,38.7808316 21.0798694,38.8231508 C21.0947599,38.8426509 21.1100758,38.8638105 21.1262427,38.8795765 L21.1504929,38.9057148 L21.1692124,38.9239701 C21.3691706,39.1193853 21.5725323,39.3181196 21.7780212,39.5193433 C22.18985,39.9217906 22.6127403,40.3354401 23.0454158,40.7582173 C23.2615408,40.9693984 23.479793,41.183069 23.7005979,41.3988139 L23.7108086,41.4087714 C23.7120849,41.4100161 23.722721,41.4203884 23.7163393,41.414165 L23.7359097,41.4349097 L23.7461203,41.445697 C23.7490984,41.4490161 23.7499493,41.4502608 23.7516511,41.4527502 L23.7622872,41.4664417 C23.7788794,41.4880162 23.7963226,41.5145694 23.8112131,41.5411226 C23.8414195,41.5954738 23.8665207,41.6556334 23.8848147,41.7174527 C23.9022579,41.7784421 23.9141703,41.8427507 23.9158721,41.9024955 C23.9167229,41.9323678 23.9162975,41.9622402 23.9120431,41.9879637 C23.9111922,41.9991658 23.9069378,42.0215701 23.9035342,42.0398254 L23.893749,42.0970808 C23.7878137,42.7090497 23.6801767,43.3305612 23.5708378,43.9599557 C23.5163811,44.2748604 23.461499,44.5914246 23.4066169,44.9096485 C23.3789631,45.068553 23.3513093,45.2282872 23.32323,45.3880215 L23.3023833,45.5083408 C23.297278,45.5465111 23.2964271,45.5460962 23.293449,45.5830217 C23.2925981,45.5996175 23.2917473,45.6166282 23.2921727,45.6332239 L23.2955762,45.6809368 C23.3036597,45.7452454 23.3262081,45.8232455 23.3891737,45.8925328 C23.4049151,45.9091286 23.4232091,45.9244797 23.4419286,45.9385861 C23.4619244,45.950618 23.4827711,45.9638946 23.5040433,45.9721925 C23.5465876,45.9900329 23.5899828,45.9983308 23.6291235,45.9995755 C23.7078305,46.0028947 23.7733487,45.9862989 23.8282308,45.9655542 C23.8426959,45.9609903 23.8546083,45.954352 23.867797,45.9485435 C23.8809857,45.9431499 23.8950254,45.9365116 23.9026833,45.9323626 L23.9588418,45.9045647 L24.1821993,45.7925433 C24.3315298,45.7182772 24.4808603,45.6435963 24.6301908,45.5689153 C24.9292772,45.4191385 25.2292144,45.268532 25.5295772,45.1175105 C25.8299399,44.9669039 26.1311535,44.8158824 26.4323671,44.664446 L26.8841875,44.437084 L27.1105232,44.323403 L27.1603,44.2980945 C27.1781686,44.2902115 27.2032697,44.2781795 27.2113531,44.27652 L27.2292217,44.2698817 L27.2526211,44.2632434 C27.2675116,44.2578497 27.2849548,44.2553604 27.3006962,44.2507965 C27.4334344,44.2242433 27.5870193,44.2279773 27.711674,44.2653178 C27.7278409,44.2690519 27.741455,44.2752753 27.7563455,44.2806689 C27.7635781,44.2831583 27.7695343,44.2864774 27.7763414,44.2893817 C27.7835739,44.2922859 27.7891047,44.2943604 27.7997407,44.3001689 L27.9129086,44.3565945 L28.1392442,44.4694458 C28.4408833,44.6200523 28.7420969,44.7706589 29.042885,44.9208506 C29.6444614,45.221234 30.243485,45.5203727 30.8378288,45.817437 L31.0607609,45.9282137 C31.0969236,45.9448095 31.0939455,45.9452244 31.1322353,45.9597457 C31.164569,45.9721925 31.1960518,45.9796606 31.2271091,45.985884 C31.2917764,45.9970861 31.3743124,45.9987457 31.4589755,45.9605754 C31.5002435,45.9402456 31.5389588,45.911203 31.567038,45.8767668 C31.5810776,45.8597562 31.5946918,45.8419157 31.6036261,45.8240753 C31.6138368,45.8062348 31.6227711,45.7883944 31.6278764,45.7709688 C31.6525521,45.7004368 31.6551047,45.6365431 31.6508503,45.5809473 C31.6499994,45.5660111 31.6478722,45.5531494 31.6461704,45.5394579 C31.6444686,45.5253514 31.6423414,45.5120748 31.6406397,45.5033621 L31.6300036,45.4436173 L31.6087314,45.3241278 C31.5517221,45.0067337 31.4955636,44.6901695 31.4389797,44.3756797 C31.3270882,43.747115 31.2160476,43.1256035 31.1067088,42.5144644 C31.0794804,42.3617833 31.0522521,42.209932 31.0254492,42.0580808 L31.0152385,42.0016552 L31.0126859,41.9871339 C31.0122604,41.9854743 31.0101332,41.970953 31.0114095,41.9796658 L31.0071551,41.9510381 L31.0054533,41.9369317 C31.0046025,41.9327827 31.0050279,41.9311232 31.0050279,41.927804 L31.004177,41.9103785 C31.0037516,41.8979316 31.004177,41.8817508 31.0046025,41.8668146 C31.008006,41.8066549 31.0199184,41.743591 31.0382124,41.6826015 C31.0573574,41.6216121 31.082884,41.5622822 31.1139413,41.5091758 C31.1301081,41.4830374 31.1467004,41.4577289 31.1649944,41.4357395 C31.1845648,41.4116756 31.1973281,41.3992288 31.2292363,41.3689415 C31.3398515,41.2639733 31.4504667,41.1598349 31.5606564,41.0561113 C32.000139,40.6403874 32.4302618,40.234206 32.8493231,39.8388118 C33.058641,39.6409073 33.2649808,39.4454921 33.468768,39.253811 C33.5704489,39.1575556 33.6712789,39.0625448 33.7712579,38.967534 L33.8512412,38.8916084 L33.8695353,38.8737679 C33.8754915,38.8671296 33.8801713,38.8625658 33.890382,38.8505339 C33.9078251,38.8302041 33.9248428,38.8086296 33.9380316,38.78747 C33.9652599,38.7439061 33.9907865,38.6920443 33.998019,38.6240016 C34.0065279,38.5576186 33.987383,38.4771291 33.9452641,38.4202886 C33.9039961,38.3626183 33.8512412,38.3261076 33.8031662,38.3032884" id="Fill-26" fill="#224B68"></path>
                    <path d="M74.4102333,36.4647096 C73.9045667,36.4053069 73.2899556,36.3363001 72.5857222,36.2850786 C71.8810778,36.2228303 71.0859889,36.1861927 70.2189556,36.1463537 C68.4844778,36.0855282 66.4609889,36.0876624 64.2932,36.0513805 C63.2091,36.0392866 62.0888222,36.0268369 60.9508667,36.0140315 C59.8125,36.0111859 58.6564556,36.0083403 57.5,36.0051389 C56.3439556,36.0037161 55.1875,35.9941121 54.0495444,36.0054946 C52.9111778,36.0126087 51.7909,36.0197228 50.7068,36.0261255 C48.5390111,36.0446222 46.5155222,36.0620517 44.7810444,36.0769913 C43.9140111,36.0855282 43.1189222,36.0933537 42.4142778,36.1004678 C41.7096333,36.111139 41.0954333,36.1001121 40.5897667,36.1445752 C39.5780222,36.2128705 39,36.4070854 39,36.4070854 L39,37.5926496 C39,37.5926496 39.5780222,37.7872201 40.5897667,37.8555155 C41.0954333,37.8999786 41.7096333,37.8889517 42.4142778,37.8996229 C43.1189222,37.906737 43.9140111,37.9145625 44.7810444,37.9227437 C46.5155222,37.9376833 48.5390111,37.9551128 50.7068,37.9739652 C51.7909,37.9803679 52.9111778,37.987482 54.0495444,37.9942403 C55.1875,38.0059786 56.3439556,37.9963746 57.5,37.9949518 C58.6564556,37.9917504 59.8125,37.9889048 60.9508667,37.9857034 C62.0888222,37.9732538 63.2091,37.9608041 64.2932,37.9487101 C66.4609889,37.9120725 68.4844778,37.9142068 70.2189556,37.8533812 C71.0859889,37.813898 71.8810778,37.7772604 72.5857222,37.7150121 C73.2899556,37.6637906 73.9045667,37.5944281 74.4102333,37.5350254 C75.4219778,37.4137301 76,37.2963475 76,37.2963475 L76,36.7033875 C76,36.7033875 75.4219778,36.5863606 74.4102333,36.4647096" id="Fill-28" fill="#224B68"></path>
                    <path d="M53.3438545,43.1484686 C52.9455998,43.1140364 52.5139135,43.1051622 52.0571534,43.0898984 C51.6008112,43.0760546 51.1193953,43.0615008 50.6212635,43.046592 C49.625,43.0213891 48.5627089,43.0036406 47.5,43.0011558 C46.4377089,42.9947663 45.375,43.0164195 44.3791544,43.0281335 C43.3828909,43.046947 42.4530728,43.0643405 41.6565634,43.0792493 C41.2578909,43.0874136 40.89265,43.095578 40.5691986,43.1023224 C40.2453294,43.1119066 39.9628319,43.1040973 39.7304818,43.143854 C39.2657817,43.216623 39,43.4083072 39,43.4083072 L39,44.5914245 C39,44.5914245 39.2657817,44.7831087 39.7304818,44.8562327 C39.9628319,44.8959894 40.2453294,44.88818 40.5691986,44.8981192 C40.89265,44.9048636 41.2578909,44.912673 41.6565634,44.9208373 C42.4530728,44.9357461 43.3828909,44.9531397 44.3791544,44.9719531 C45.375,44.9840221 46.4377089,45.0049654 47.5,44.9989309 C48.5627089,44.9964461 49.625,44.9786975 50.6212635,44.9538496 C51.1193953,44.9385859 51.6008112,44.9240321 52.0571534,44.9101882 C52.5139135,44.8949245 52.9455998,44.8864052 53.3438545,44.851618 C54.1407817,44.791983 54.8048181,44.6560292 55.2695182,44.5339193 C55.7346362,44.4128742 56,44.2957339 56,44.2957339 L56,43.7039978 C56,43.7039978 55.7346362,43.5872124 55.2695182,43.4661674 C54.8048181,43.3440575 54.1407817,43.2084586 53.3438545,43.1484686" id="Fill-30" fill="#224B68"></path>
                </g>
            </g>
        </g>
    </g>
</svg>