<svg width="102" height="79" xmlns="http://www.w3.org/2000/svg" xmlns:xlink="http://www.w3.org/1999/xlink"><defs><path id="a" d="M.449.078h.5V68h-.5z"/><path id="c" d="M0 .039h101.793v.5H0z"/><path id="e" d="M0 .038h101.793v1.94H0z"/></defs><g fill="none" fill-rule="evenodd"><path d="M97.917 46.147c-.042-5.36-.042-10.686-.125-16.047-.074-4.807-.152-9.614-.287-14.395V5.446C97.505 2.412 95.053 0 92.017 0h-81.53C7.495 0 5 2.412 5 5.446v10.686h.199c-.155 3.905-.129 7.802-.157 11.72L5 44.9l.125 17.05c.042 5.698 0 11.352.581 17.049h.333c.54-5.7.457-11.353.499-17.05l.042-17.049-.125-17.05c-.029-3.918-.023-7.815-.202-11.719h90.82c-.12 4.662-.17 9.305-.279 13.974-.124 5.36-.124 10.683-.166 16.046l-.081 31.35-18.96-.04-19.705.041-19.706.042c-6.57.042-13.137.124-19.706.5v.332c6.569.373 13.137.415 19.706.498l19.706.036 19.705.042 19.706-.042H98v-.707l-.083-32.057z" fill="#CCCED0"/><path d="M15.364 28.365l35.675-.033 35.758-.046.044 9.308c.01 3.304.032 6.608.072 9.911l.109 9.91.16 9.496c-2.958-.062-5.917-.12-8.875-.16-3.03-.033-6.06-.049-9.09-.046l-18.178-.017-35.685-.033.01-38.29zm53.853 39.583c3.03.004 6.06-.012 9.09-.046 3.029-.04 6.059-.099 9.089-.163l.199-.004.175-10.32.108-9.91c.04-3.303.061-6.607.073-9.91l.047-9.911.002-.602-.604-.001-36.357-.046L14.682 27 14 27v.684l.01 39.643V68h.672l36.357-.035 18.178-.017z" fill="#CCCED0"/><path d="M51.5 54.998c3.313-.002 6.625-.005 9.73-.024 3.106-.018 6.005-.016 8.489-.048a219.44 219.44 0 0 0 6.003-.158c1.45-.06 2.278-.12 2.278-.12v-.296s-.828-.06-2.278-.12a215.767 215.767 0 0 0-6.004-.158c-2.483-.033-5.382-.03-8.487-.048-3.106-.02-6.419-.022-9.731-.023-3.313-.01-6.625.007-9.73.014-3.106.01-6.004.017-8.489.024-2.484.013-4.554 0-6.004.031-.725.019-1.294.048-1.682.08-.388.028-.595.052-.595.052v.593s.207.023.595.05c.388.033.957.063 1.682.08 1.45.033 3.52.018 6.004.032l8.489.024c3.105.007 6.417.023 9.73.015M40.431 60.143c-.323-.031-.688-.051-1.087-.069-.797-.033-1.726-.03-2.723-.049-.996-.018-2.058-.02-3.121-.023-1.062-.007-2.125.005-3.12.011l-2.723.025c-.798.015-1.461.003-1.927.034-.464.034-.73.132-.73.132v.593s.266.097.73.13c.466.032 1.13.02 1.927.035l2.722.025c.996.006 2.059.018 3.121.01 1.063-.001 2.125-.004 3.121-.022.997-.02 1.926-.016 2.723-.05a22.64 22.64 0 0 0 1.926-.157c.465-.06.73-.12.73-.12v-.296s-.265-.06-.73-.12c-.233-.03-.515-.064-.839-.09M52.742 60.767c.164-.06.258-.119.258-.119v-.296s-.094-.06-.258-.12a2.946 2.946 0 0 0-.68-.158c-.281-.028-.61-.034-.96-.05A33.675 33.675 0 0 0 50 60c-.375-.004-.75.007-1.102.013l-.96.026-.384.011c-.115.005-.214.001-.296.02-.164.038-.258.133-.258.133v.592s.094.095.258.132c.082.02.181.016.296.02l.383.012.961.026c.352.006.727.016 1.102.013.375-.001.75-.01 1.102-.022.35-.017.679-.022.96-.051.282-.031.516-.1.68-.159" fill="#CCCED0"/><g transform="translate(8 13)"><mask id="b" fill="#fff"><use xlink:href="#a"/></mask><path d="M.774 68L.624.078" fill="#FFF" mask="url(#b)"/></g><g transform="translate(0 14)"><mask id="d" fill="#fff"><use xlink:href="#c"/></mask><path d="M101.96.289H-.165" fill="#DEF2FA" mask="url(#d)"/></g><g transform="translate(0 15)"><mask id="f" fill="#fff"><use xlink:href="#e"/></mask><path d="M101.793 1.21c-2.13.162-4.26.283-6.346.364l-3.176.122-1.587.04-1.586.04c-2.13.041-4.261.041-6.346.08l-6.347.041-6.43.041h-6.343l-12.734.04-12.776-.04h-6.388l-6.346-.04-6.347-.041c-2.129 0-4.26-.04-6.346-.08l-1.586-.041-1.587-.04-3.176-.122C4.216 1.493 2.086 1.372 0 1.21V.806A173.17 173.17 0 0 1 6.346.442L9.522.321 11.11.28l1.586-.04C14.825.2 16.955.2 19.041.16l6.347-.041 6.346-.04h6.346L50.814.037l12.734.04h6.347l6.346.04 6.346.042c2.13 0 4.26.04 6.346.08l1.586.04 1.587.04 3.176.122c2.13.082 4.26.203 6.347.364v.405l.164-.001z" fill="#224B68" mask="url(#f)"/></g><path d="M15 8.5A1.5 1.5 0 1 1 13.5 7c.818.045 1.5.681 1.5 1.5" fill="#FFF"/><path d="M20.5 7A1.5 1.5 0 1 0 22 8.5c0-.819-.681-1.455-1.5-1.5M27.503 7h-.004a1.5 1.5 0 1 0 1.498 1.5H29c0-.819-.635-1.455-1.497-1.5" fill="#E1E2E2"/><path d="M33.803 38.303a.567.567 0 0 0-.14-.043l-.032-.006-.025-.003-.05-.008-.1-.014-.397-.055-.772-.107-1.446-.196-.67-.09-.163-.021-.035-.005-.04-.006c-.02-.005-.035-.008-.057-.016a.86.86 0 0 1-.239-.123.776.776 0 0 1-.183-.18l-.032-.05-.034-.064-.067-.127-.259-.482c-.165-.31-.316-.594-.456-.85l-.647-1.187-.232-.418.048-.029-.015-.027a.338.338 0 0 0-.026-.041c-.011-.019-.027-.036-.045-.057a.627.627 0 0 0-.034-.031c-.015-.01-.029-.022-.047-.031a.288.288 0 0 0-.14-.036.288.288 0 0 0-.157.05.412.412 0 0 0-.11.11c-.016.02-.028.042-.04.063l-.031.055-.067.12-.152.275-.373.682c-.28.51-.603 1.139-.978 1.858l-.07.135-.019.035s-.006.011-.001.003l-.005.008-.01.017-.009.016-.007.01-.015.02a.793.793 0 0 1-.195.178.75.75 0 0 1-.245.11l-.03.005-.04.006-.085.012-.17.024-1.446.2-1.572.219-.204.028-.052.007-.02.003-.013.003-.025.004c-.026.007-.056.013-.08.023l-.037.015-.038.02a.355.355 0 0 0-.139.144.316.316 0 0 0-.025.211.439.439 0 0 0 .072.154c.015.02.03.04.046.057l.024.026.02.018.608.595 1.267 1.24c.217.21.435.424.656.64l.01.01.005.005.02.02.01.012.006.007.01.013a.88.88 0 0 1 .123.251c.017.061.03.126.03.185.002.03.001.06-.003.086 0 .011-.005.034-.008.052l-.01.057-.323 1.863c-.055.315-.11.631-.164.95l-.084.478-.02.12c-.006.039-.007.038-.01.075a.66.66 0 0 0 0 .05l.003.048c.008.064.03.142.093.212a.427.427 0 0 0 .053.046c.02.012.04.025.062.033a.355.355 0 0 0 .125.028.493.493 0 0 0 .2-.034c.014-.005.026-.012.039-.017a.407.407 0 0 0 .035-.017l.056-.027.223-.112a225.12 225.12 0 0 0 1.348-.675l.902-.454.452-.227.227-.114.05-.025c.017-.008.042-.02.05-.021l.018-.007.024-.007c.015-.005.032-.008.048-.012a.89.89 0 0 1 .41.014c.017.004.03.01.045.016.008.002.014.005.02.008l.024.011.113.057.226.112.904.452 1.795.896.223.111c.036.017.033.017.071.032.033.012.064.02.095.026a.393.393 0 0 0 .232-.025.328.328 0 0 0 .169-.19.456.456 0 0 0 .023-.19l-.005-.042a.538.538 0 0 0-.005-.036l-.011-.06-.021-.119-.17-.948-.332-1.862-.082-.456-.01-.056-.002-.015c0-.002-.003-.016-.002-.007l-.004-.029-.002-.014v-.07a.809.809 0 0 1 .16-.431.62.62 0 0 1 .064-.067 1386.19 1386.19 0 0 1 1.62-1.53c.21-.198.416-.394.62-.585l.302-.286.08-.076.019-.018.02-.023a.535.535 0 0 0 .048-.064.375.375 0 0 0 .06-.163.297.297 0 0 0-.053-.204.366.366 0 0 0-.142-.117M74.41 36.465c-.505-.06-1.12-.129-1.824-.18-.705-.062-1.5-.099-2.367-.139-1.735-.06-3.758-.058-5.926-.095l-3.342-.037-3.451-.009c-1.156-.001-2.313-.01-3.45 0l-3.343.021-5.926.051-2.367.023c-.704.011-1.319 0-1.824.045-1.012.068-1.59.262-1.59.262v1.186s.578.194 1.59.263c.505.044 1.12.033 1.824.044a3586.818 3586.818 0 0 0 8.293.074l3.343.02c1.138.012 2.294.002 3.45.001l3.45-.01 3.343-.036c2.168-.037 4.191-.035 5.926-.096.867-.04 1.662-.076 2.367-.138.704-.051 1.319-.12 1.824-.18 1.012-.121 1.59-.239 1.59-.239v-.593s-.578-.117-1.59-.238M53.344 43.148c-.398-.034-.83-.043-1.287-.058A137.12 137.12 0 0 0 47.5 43c-1.062-.006-2.125.015-3.12.027l-2.723.051-1.088.023c-.324.01-.606.002-.839.042-.464.073-.73.264-.73.264v1.183s.266.192.73.265c.233.04.515.032.84.042l1.087.023 2.722.051c.996.012 2.059.033 3.121.027 1.063-.003 2.125-.02 3.121-.045l1.436-.044c.457-.015.889-.024 1.287-.058a10.83 10.83 0 0 0 1.926-.318c.465-.121.73-.238.73-.238v-.592s-.265-.117-.73-.238a10.864 10.864 0 0 0-1.926-.318" fill="#224B68"/></g></svg>