<svg viewBox="0 0 280 200" xmlns="http://www.w3.org/2000/svg"><path d="m107.1 178.6c1.6-.3 2.6-.5 4.2-.7l1.1-.2 1.1-.3c.7-.1 1.4-.3 2.1-.6 2.7-.9 5.3-2.2 7.6-3.9 4.6-3.3 7.8-8.1 9.3-13.5.6-2.8.9-5.7.7-8.5v-27.3l2.1 2.2h-28.4l2.2-2.2c0 8.9-.2 17.9-.4 26.9-.4 9.1-.8 18.1-1.6 28.1zm-.7.7c-.8-8.5-1.3-17.8-1.4-27.2-.2-9.4-.3-18.9-.4-28.4v-2.2h32.9v29.5c.1 3.2-.2 6.4-1 9.5-1.7 6.4-5.7 11.9-11.2 15.5-2.8 1.8-5.9 3-9.1 3.6-.8.2-1.6.3-2.4.3-.8.1-1.6.1-2.4 0-1.7-.1-3.4-.3-5-.6z" fill="#46799a"/><path d="m32.7 113.3v-13.3c0-4.5 3.3-8.4 7.7-9.3l1.3-.1c48.6-8.6 95.2-26.3 137.3-52.2l27.2-16.8c3.9-1.6 8.3.3 9.9 4.2.4.9.6 1.9.6 2.9v127.5c0 4.2-3.4 7.6-7.6 7.6-.6 0-1.2-.1-1.8-.2l-23.7-10.2a397.92 397.92 0 0 0 -137.2-31.6l-5.6-.3c-4.4 0-8-3.7-8.1-8.2z" fill="#224b68"/><path d="m206.2 21.7-27.2 16.7c-28.7 17.6-59.5 31.5-91.8 41.3v46.3c33.1 5.1 65.5 14.3 96.3 27.5l23.7 10.2c4.1 1 8.2-1.5 9.2-5.6.1-.6.2-1.2.2-1.8v-127.6c0-4.2-3.4-7.6-7.6-7.6-.9.1-1.9.2-2.8.6z" fill="#ccced0"/><path d="m48.2 76.8c1.2 4.5 1.8 9.1 1.6 13.7.2 4.6.2 9.2.2 13.7 0 4.6 0 9.2-.2 13.7.2 4.6-.4 9.3-1.6 13.7h-1c-1.2-4.5-1.8-9.1-1.6-13.7-.2-4.6-.2-9.2-.2-13.7 0-4.6 0-9.2.2-13.7-.2-4.6.3-9.3 1.6-13.7z" fill="#204a69"/><path d="m247.9 49.5c-.2 1.7-1.2 3.2-2.6 4.3-1.1 1.1-2.2 2.2-3.4 3.2s-2.5 1.9-3.7 2.9c-1.2 1.2-2.8 1.9-4.5 1.9l-.7-.8c.2-1.7 1.2-3.2 2.6-4.2 1.1-1.1 2.2-2.2 3.4-3.2s2.4-1.9 3.7-2.9c1.2-1.2 2.9-1.9 4.6-1.9zm8.5 35.5c-1.4 1.1-3.3 1.7-5.1 1.5-1.7.1-3.4.2-5.1.2s-3.4-.1-5.1-.3c-1.8.1-3.6-.4-5.1-1.6v-1c1.4-1.1 3.3-1.7 5.1-1.5 1.7-.1 3.4-.2 5.1-.2s3.4.1 5.1.3c1.8-.1 3.6.4 5 1.6zm-10.2 26.3c-1.4.3-3-.1-4.1-1.1-1.1-.6-2.2-1.4-3.3-2.1-1-.8-2.1-1.6-3-2.5-1.3-.8-2.1-2.1-2.2-3.6l.6-.8c1.4-.3 3 .1 4.1 1l3.3 2.1c1 .8 2 1.6 3 2.5 1.3.8 2.1 2.1 2.2 3.6z" fill="#46799a"/><path d="m199.4 23.9c1.2 11.7 1.8 23.4 1.6 35.2.1 11.7.2 23.5.2 35.2s-.1 23.5-.2 35.1c.2 11.7-.4 23.5-1.6 35.2h-1c-1.2-11.7-1.7-23.4-1.5-35.2-.2-11.7-.2-23.5-.2-35.2s0-23.5.2-35.2c-.2-11.7.3-23.5 1.6-35.2l.9.1z" fill="#6f93ad"/></svg>