<svg id="Layer_1" data-name="Layer 1" xmlns="http://www.w3.org/2000/svg" viewBox="0 0 295.11 215.66"><defs><style>.cls-1{fill:none;clip-rule:evenodd}.cls-4{clip-path:url(#clip-path-2)}.cls-5{fill:#46799a}</style><clipPath id="clip-path" transform="translate(-3.16 7.5)"><path class="cls-1" d="M105.56 192.43c1.91-.39 3.1-.54 5-.81l1.31-.18 1.28-.29a19.48 19.48 0 0 0 2.52-.68 31.79 31.79 0 0 0 9.17-4.49A28.21 28.21 0 0 0 136 170.23a34.29 34.29 0 0 0 .81-9.92V128.5l2.52 2.57h-34.24l2.66-2.57c0 10.42-.26 20.84-.49 31.32s-.7 21.02-1.7 32.61zm-.84.79c-1-9.88-1.54-20.75-1.75-31.73s-.4-22-.49-33.06v-2.56h39.7v34.43a38.44 38.44 0 0 1-1.18 11.11 31 31 0 0 1-13.53 18 30.35 30.35 0 0 1-11 4.16 20.26 20.26 0 0 1-2.87.34 17.34 17.34 0 0 1-2.87 0 35.94 35.94 0 0 1-6.01-.7z"/></clipPath><clipPath id="clip-path-2" transform="translate(-3.16 7.5)"><path fill="none" d="M-2735.09-1965.42h4429.44v3546.96h-4429.44z"/></clipPath><clipPath id="clip-path-3" transform="translate(-3.16 7.5)"><path class="cls-1" d="M17.35 116.69v-15.81a11.21 11.21 0 0 1 9.18-11l1.58-.16a467.12 467.12 0 0 0 163.08-62.28l32.26-20.08a9 9 0 0 1 11.73 5 9.08 9.08 0 0 1 .67 3.44v152.09a9 9 0 0 1-11.13 8.8l-28.2-12.15a469.4 469.4 0 0 0-162.95-37.68l-6.61-.3a9.94 9.94 0 0 1-9.61-9.87z"/></clipPath><clipPath id="clip-path-5" transform="translate(-3.16 7.5)"><path class="cls-1" d="M223.49 7.36l-32.15 19.92A465.89 465.89 0 0 1 82.61 76.59v55.16a466.19 466.19 0 0 1 114 32.81l28.1 12.13a9 9 0 0 0 10.88-6.69 9.14 9.14 0 0 0 .25-2.13V15.73a9 9 0 0 0-9-9 8.89 8.89 0 0 0-3.35.63z"/></clipPath><clipPath id="clip-path-7" transform="translate(-3.16 7.5)"><path class="cls-1" d="M35 72a52.33 52.33 0 0 1 2 16.32c.19 5.44.21 10.89.26 16.32s0 10.88-.26 16.32a52.33 52.33 0 0 1-2 16.32h-1.22a51.62 51.62 0 0 1-1.94-16.32c-.19-5.44-.24-10.88-.29-16.32s0-10.89.29-16.32A51.62 51.62 0 0 1 33.78 72H35z"/></clipPath><clipPath id="clip-path-9" transform="translate(-3.16 7.5)"><path class="cls-1" d="M273.74 41.68a7.46 7.46 0 0 1-3.1 5c-1.34 1.32-2.72 2.59-4.15 3.79s-3 2.27-4.52 3.41a7.75 7.75 0 0 1-5.51 2.18l-.75-.86a7.43 7.43 0 0 1 3.1-5c1.36-1.32 2.72-2.59 4.17-3.79s3-2.27 4.5-3.41a7.77 7.77 0 0 1 5.58-2.27zm10.34 41.78a9 9 0 0 1-6.17 1.8c-2.06.13-4.1.2-6.14.2s-4.1-.16-6.14-.34a8.84 8.84 0 0 1-6.14-1.91v-1.14a8.92 8.92 0 0 1 6.17-1.8c2-.14 4.1-.21 6.14-.21s4.1.16 6.14.34a8.77 8.77 0 0 1 6.12 1.91zm-12.34 30.93a5.81 5.81 0 0 1-4.95-1.25 41.33 41.33 0 0 1-4-2.5 44.68 44.68 0 0 1-3.66-3 5.5 5.5 0 0 1-2.69-4.2l.7-.91a5.75 5.75 0 0 1 4.95 1.23 46.05 46.05 0 0 1 4 2.5c1.27.93 2.49 1.91 3.66 3a5.46 5.46 0 0 1 2.67 4.2z"/></clipPath><clipPath id="clip-path-11" transform="translate(-3.16 7.5)"><path class="cls-1" d="M216.54 9.6a330.26 330.26 0 0 1 2 41.84c.17 14 .21 27.91.27 41.87s-.1 28-.27 41.8a329.79 329.79 0 0 1-2 41.84h-1.22a325.36 325.36 0 0 1-1.87-41.84c-.2-14-.24-27.91-.29-41.87s0-27.91.29-41.87a325.84 325.84 0 0 1 2-41.84z"/></clipPath></defs><g class="cls-4" clip-path="url(#clip-path)"><path class="cls-5" d="M85.13 119.18h68.1v96.48h-68.1z"/></g><g clip-path="url(#clip-path-3)"><path fill="#224b68" d="M0 0h246.87v198.63H0z"/></g><g clip-path="url(#clip-path-5)"><path fill="#ccced0" d="M65.26 0h181.6v198.63H65.26z"/></g><g clip-path="url(#clip-path-7)"><path fill="#204a69" d="M14.19 65.26h34.05v93.64H14.19z"/></g><g class="cls-4" clip-path="url(#clip-path-9)"><path class="cls-5" d="M238.36 34.05h56.75V136.2h-56.75z"/></g><g clip-path="url(#clip-path-11)"><path fill="#6f93ad" d="M195.79 2.84h34.05v195.79h-34.05z"/></g></svg>