<svg viewBox="0 0 1511.45 1175.34" xmlns="http://www.w3.org/2000/svg"><path d="m3953.8 2413.33c4.12 39.77 8.15 79.55 11.79 119.36 3.88 39.79 7.1 79.64 10.68 119.46s6.54 79.69 9.75 119.54l4.34 59.81 3.83 59.86a4.72 4.72 0 0 1 -9.4.79l-6.27-59.65-5.76-59.69c-3.52-39.82-7.22-79.63-10.44-119.48s-6.66-79.68-9.51-119.55c-3.09-39.86-5.79-79.75-8.4-119.65a4.72 4.72 0 0 1 9.4-.79z" fill="#c3c4c7" transform="translate(-3702.12 -1932.72)"/><path d="m4086.56 2485-368.68 30.88-15.53-185.39a66.63 66.63 0 0 1 60.83-72l409.82-34.32 15.53 185.39a66.63 66.63 0 0 1 -60.83 72" fill="#c3c4c7" transform="translate(-3702.12 -1932.72)"/><path d="m4161.51 2897.6h-87.62v-552.31a41.78 41.78 0 0 1 41.78-41.78h618.17a41.78 41.78 0 0 1 41.78 41.78v552.31h-524" fill="#fff" transform="translate(-3702.12 -1932.72)"/><path d="m4161.51 2901.14c-29.21.71-58.41 1.13-87.62 1.44a4.93 4.93 0 0 1 -5-4.87v-.1c-.67-154.5-.18-309-.33-463.51v-86.91a52.53 52.53 0 0 1 2.11-15.88 47.66 47.66 0 0 1 7.47-14.42 46.79 46.79 0 0 1 26.82-17.43c5.25-1.28 11-1.31 15.6-1.26h608.36c4.55-.05 10.34 0 15.6 1.26a46.81 46.81 0 0 1 26.82 17.43 47.74 47.74 0 0 1 7.47 14.42 52.53 52.53 0 0 1 2.11 15.88v550.41a5.29 5.29 0 0 1 -5.28 5.31l-262-.8-131-1.06-131-1.68a1.77 1.77 0 0 1 0-3.54l131-1.68 131-1.06 262-.8-5.3 5.31v-550.41a36.69 36.69 0 0 0 -7.43-23.89 36.19 36.19 0 0 0 -20.76-13.5c-4.16-1-8.11-1-13.19-1h-608.37c-5.09 0-9 0-13.2 1a36.19 36.19 0 0 0 -20.76 13.5 36.66 36.66 0 0 0 -7.43 23.89v86.91c-.15 154.5.33 309-.34 463.51l-5-5c29.21.3 58.41.72 87.62 1.44a3.54 3.54 0 0 1 0 7.08z" fill="#c3c4c7" transform="translate(-3702.12 -1932.72)"/><path d="m4810.5 2413.19c-64.29 5.72-128.58 5.3-192.87 5.64l-192.87 1-192.87-1c-64.29-.34-128.58.09-192.87-5.64a1.78 1.78 0 0 1 0-3.54c64.29-5.73 128.58-5.3 192.87-5.64l192.87-1 192.87 1c64.29.34 128.58-.08 192.87 5.64a1.78 1.78 0 0 1 0 3.54z" fill="#3895ba" transform="translate(-3702.12 -1932.72)"/><path d="m459.4 697.22h292.67v188.31h-292.67z" fill="#f6f7f7"/><path d="m4455.38 2599.29c-23.12 1.13-47 1.81-71.35 1.9l-74.07.67-148.45.75a5.83 5.83 0 0 1 -5.86-5.8v-.06l-.06-23.59v-11.8c-.06-3.86 0-7.87.26-12.22a81.26 81.26 0 0 1 18.82-46.37c11-12.84 25.88-22.53 42.4-26.46a81.53 81.53 0 0 1 12.49-2.17c4.25-.24 8.49-.44 12.31-.35l23.59.05c62.91.28 125.82 0 188.73.74h.1a4.87 4.87 0 0 1 4.83 4.92c-.16 20.12-.59 40.28-1.35 60.1-.6 19.88-1.51 39.39-2.33 58.39zm-2.49-5-2.28-57.66c-.76-19.26-1.19-38.18-1.35-57.14l4.92 4.92c-62.91.76-125.82.46-188.73.74l-23.59.05c-4-.07-7.66.16-11.26.36a69.88 69.88 0 0 0 -10.71 1.92c-14.14 3.41-26.85 11.81-36.23 22.83a69.74 69.74 0 0 0 -15.92 39.67l-.28 5.46v5.9 11.8l-.06 23.59-5.86-5.86 144.22.75 72.27.67c24 .09 48.42.76 73.68 1.93z" fill="#f6f7f7" transform="translate(-3702.12 -1932.72)"/><path d="m4408.66 2672.18c-35.65 0-47.82 16.43-55.34 30-7.1 12.79-22.88 30.3-47.36 36.71s-34.63 21-34.63 34.76h138.53z" fill="#fff" transform="translate(-3702.12 -1932.72)"/><path d="m797.3 546.8h188.31v338.73h-188.31z" fill="#f6f7f7"/><path d="m4962.68 2323.68c-6.51 48-13.11 96-20.09 143.91-6.75 48-14.15 95.83-21.19 143.75l-22.12 143.61-11.59 71.72-12.1 71.65a4.72 4.72 0 0 1 -9.33-1.41l9.67-72 10.18-71.94 21.43-143.71c7.47-47.85 14.58-95.76 22.35-143.57 7.53-47.84 15.45-95.63 23.46-143.4a4.72 4.72 0 0 1 9.33 1.42z" fill="#c3c4c7" transform="translate(-3702.12 -1932.72)"/><path d="m4733.12 2153h468.45a0 0 0 0 1 0 0v243.25a9.41 9.41 0 0 1 -9.41 9.41h-468.45a0 0 0 0 1 0 0v-243.24a9.41 9.41 0 0 1 9.41-9.42z" fill="#3895ba" transform="matrix(.9944303 .10539631 -.10539631 .9944303 -3434.13 -2443.26)"/><path d="m3931.73 2897.32a162.71 162.71 0 0 0 -3.39-27.5 190 190 0 0 0 -7.82-26.63c-3.33-8.68-7-17.26-11.16-25.7s-8.58-16.78-13-25.22a4.74 4.74 0 0 1 7.8-5.3 169.94 169.94 0 0 1 17 24.31 162.45 162.45 0 0 1 12.56 27.15c3.23 9.48 6.1 19.2 7.31 29.25a108 108 0 0 1 .16 30.24 4.74 4.74 0 0 1 -9.42-.5z" fill="#c3c4c7" transform="translate(-3702.12 -1932.72)"/><path d="m3890.22 2897.55a94.06 94.06 0 0 0 -10.16-31.34c-5.18-9.79-11.95-18.79-18.88-28.3v-.06a4.78 4.78 0 0 1 6.58-6.75 77.69 77.69 0 0 1 24.85 28.63c5.91 11.51 9 25 7.1 37.93a4.76 4.76 0 0 1 -9.42 0z" fill="#c3c4c7" transform="translate(-3702.12 -1932.72)"/><path d="m3886.49 2796.57a25.84 25.84 0 0 1 -19-6.82 27.15 27.15 0 0 1 -.73-38.82 28.13 28.13 0 0 1 19.77-8.39 27.35 27.35 0 0 1 19.16 47.32 25.67 25.67 0 0 1 -19.16 6.71 4.74 4.74 0 0 1 -.08-9.43h.08c8.71-.92 15.13-8.75 14.49-16.43a14.81 14.81 0 0 0 -14.49-14.15 14.28 14.28 0 0 0 -10.14 4 15.62 15.62 0 0 0 -4.59 10.14c-.55 7.79 6 15.7 14.73 16.43a4.73 4.73 0 0 1 0 9.43z" fill="#c3c4c7" transform="translate(-3702.12 -1932.72)"/><path d="m3803.24 2892.89 257.68-1.7 257.68-.59 257.68.35 128.84.71 128.84 1.23a4.72 4.72 0 0 1 0 9.44l-128.84 1.23-128.84.71-257.68.35-257.68-.58-257.68-1.7a4.72 4.72 0 0 1 0-9.44z" fill="#8e9196" transform="translate(-3702.12 -1932.72)"/><path d="m4065.48 2078.93c11.67-12.55 24.79-22.91 38.44-32.71s27.79-18.77 42.24-27.26a659.4 659.4 0 0 1 90.08-44.54c62.24-24.93 128.88-40 196.2-41.54s134.73 10 197.77 33a567.13 567.13 0 0 1 172.47 100.65 2.36 2.36 0 0 1 -2.84 3.77c-55.27-36.43-113.05-68.19-174.54-90.84-61.6-22-127.13-33-192.44-31a572.34 572.34 0 0 0 -191.07 39.9 644.53 644.53 0 0 0 -88.31 43c-28.45 16.3-54.94 35.87-81.65 54.5l-.19.13a4.73 4.73 0 0 1 -6.17-7.1z" fill="#c3c4c7" transform="translate(-3702.12 -1932.72)"/><path d="m4814.85 2028.23c4.5 4.22 4.47 9.53 6.07 14.45l3.93 15c2.54 10 5.42 19.91 7.66 30v.12a7.94 7.94 0 0 1 -6 9.47 8.42 8.42 0 0 1 -1.7.19c-10.21 0-20.42-.27-30.63-.62a133.27 133.27 0 0 1 -15.32-1 58.8 58.8 0 0 1 -15.32-4 2.57 2.57 0 0 1 0-4.72 58.8 58.8 0 0 1 15.32-4 133.66 133.66 0 0 1 15.32-1c10.21-.35 20.42-.65 30.63-.62l-7.69 9.78c-2.62-10-4.59-20.11-6.9-30.17l-3.35-15.11c-.82-5.11-3.28-9.82-1.2-15.63a5.64 5.64 0 0 1 7.21-3.42 5.78 5.78 0 0 1 1.97 1.28z" fill="#c3c4c7" transform="translate(-3702.12 -1932.72)"/><circle cx="1262.66" cy="940.3" fill="#fff" r="235.03"/><path d="m5195.61 2862.72a10.46 10.46 0 0 1 -.36-4.45c-9.81 11-22.37 19.5-36.54 23.38a70.6 70.6 0 0 1 -22.12 2.43q-2.79-.14-5.56-.5l-1.45-.19-1.89-.13a23.07 23.07 0 0 0 -3.55.24 114 114 0 0 0 -11.91 2.91c-12.17 3.47-24.76 4.51-37.45 4.17a26.91 26.91 0 0 0 1.63-2.29 52.68 52.68 0 0 0 5.24-9.91 45.38 45.38 0 0 0 2.68-11 33.64 33.64 0 0 0 -.64-11.82l-.13-.55-.42-.61a68.08 68.08 0 0 1 36.24-103.58 69.94 69.94 0 0 1 43.1.54l-.09-.36-.44-.77a1.84 1.84 0 0 1 -.29-.58c-.12-.1-.2-.19-.31-.31-.33-.21-.66-.4-1-.58a8.28 8.28 0 0 1 -4.21-6.79 78 78 0 0 0 -39.06 1.47 76.89 76.89 0 0 0 -50 47.52c-8.14 22.18-4.57 48 8.88 67.37a24.66 24.66 0 0 1 .45 3.66 29.3 29.3 0 0 1 -.14 4.56 37.4 37.4 0 0 1 -2.14 9 44.83 44.83 0 0 1 -4.37 8.37c-.82 1.36-1.9 2.57-2.83 3.88s-2.14 2.42-3.2 3.64l-5.35 6.13 8 .54c15.92 1.07 32.48.26 48-4.25a112.77 112.77 0 0 1 10.93-2.76 15.3 15.3 0 0 1 2.32-.18l1 .07c.38 0 1 .12 1.47.18q3.08.37 6.18.5a78.26 78.26 0 0 0 24.5-2.9 71.46 71.46 0 0 0 34.45-21.54 10.88 10.88 0 0 1 .38-4.51z" fill="#187aa2" transform="translate(-3702.12 -1932.72)"/><ellipse cx="1407.51" cy="888.03" fill="#c3c4c7" rx="6.54" ry="6.46"/><ellipse cx="1440.89" cy="888.03" fill="#c3c4c7" rx="6.54" ry="6.46"/><ellipse cx="1474.26" cy="888.03" fill="#c3c4c7" rx="6.54" ry="6.46"/><path d="m5012.46 2771.08a6.73 6.73 0 0 1 -.09 1.66c-3.85-9.24-15.53-21.89-50.66-21.89-20.38 0-34.5 10-42.92 18.73a7.74 7.74 0 0 1 -.08-1.67c-23.66 15.66-23.59 62-23.59 62 8.75.22 22.68-20.18 30.23-39 2.07-5.15 7.93-8.66 14.6-8.66h49.67c6.77 0 12.74 3.61 14.68 8.88 7.06 19.22 21.22 42.17 30.12 41.95-.01-.02 1.7-46.34-21.96-62z" fill="#8e9196" transform="translate(-3702.12 -1932.72)"/><rect fill="#004e6e" height="20.77" rx=".62" width="11.77" x="1223.16" y="919.3"/><path d="m4968 2852.87a109.06 109.06 0 0 1 1.2 16.18 81 81 0 0 1 -1.2 16.18 2.48 2.48 0 0 1 -4.86 0 81 81 0 0 1 -1.2-16.18 109.06 109.06 0 0 1 1.2-16.18 2.46 2.46 0 0 1 4.86 0z" fill="#c3c4c7" transform="translate(-3702.12 -1932.72)"/><rect fill="#004e6e" height="20.77" rx=".62" width="11.77" x="1290.74" y="919.3"/><g transform="translate(-3702.12 -1932.72)"><path d="m4951 2903.11a38.09 38.09 0 0 0 7 1.48c2.49.34 5.06.53 7.61.63a61.7 61.7 0 0 0 7.58-.25 22.14 22.14 0 0 0 6.68-1.56l.38-.17a2.43 2.43 0 0 1 3.22 1.15 2.38 2.38 0 0 1 -.49 2.72 18 18 0 0 1 -8.6 4.34 36.5 36.5 0 0 1 -8.92.94 36.91 36.91 0 0 1 -8.84-1.15 20.31 20.31 0 0 1 -8.41-4.17 2.39 2.39 0 0 1 -.21-3.39 2.45 2.45 0 0 1 2.63-.68z" fill="#004e6e"/><path d="m4983.49 2828a13.19 13.19 0 0 1 6.87-3.78 25.23 25.23 0 0 1 7-.65 26.22 26.22 0 0 1 6.94 1.16 15.67 15.67 0 0 1 6.46 3.75 2.4 2.4 0 0 1 0 3.42 2.46 2.46 0 0 1 -2.55.55l-.34-.12a34.37 34.37 0 0 0 -10.69-1.58c-1.89 0-3.78 0-5.61.17a33.22 33.22 0 0 0 -4.81.68l-1 .23a2.34 2.34 0 0 1 -2.83-1.7 2.32 2.32 0 0 1 .56-2.13z" fill="#004e6e"/><path d="m4942.44 2831.56a33.22 33.22 0 0 0 -4.81-.68c-1.83-.15-3.72-.18-5.61-.17a34.37 34.37 0 0 0 -10.69 1.58l-.33.12a2.45 2.45 0 0 1 -3.14-1.44 2.4 2.4 0 0 1 .55-2.52 15.67 15.67 0 0 1 6.46-3.75 26.22 26.22 0 0 1 6.94-1.16 25.23 25.23 0 0 1 7 .65 13.19 13.19 0 0 1 6.87 3.78 2.3 2.3 0 0 1 -.15 3.27 2.36 2.36 0 0 1 -2.12.54z" fill="#004e6e"/><path d="m5035 2845.52a280.17 280.17 0 0 1 -4.32 33.16c-2.23 11-5.33 21.88-10.38 32.13s-12.28 19.82-22.31 26.15a54.83 54.83 0 0 1 -16.13 7 65.28 65.28 0 0 1 -17.44 2.17 73.72 73.72 0 0 1 -33.59-9 69.3 69.3 0 0 1 -25.18-23.89 90 90 0 0 1 -12.05-32.15 124 124 0 0 1 -1.86-16.91c-.26-5.6-.41-11.21-.26-16.82a174.43 174.43 0 0 1 3.7-33.57 112.76 112.76 0 0 1 11.78-32 73.59 73.59 0 0 1 23.17-25.57 61.58 61.58 0 0 1 15.88-7.53 60.66 60.66 0 0 1 17.42-2.51 64 64 0 0 1 33.21 9.79 76.46 76.46 0 0 1 24.2 24.24c12.35 19.5 16.01 43.03 14.16 65.31zm-4.84-.37c1.66-21.55-2-44-13.7-62.18a69.45 69.45 0 0 0 -22.69-22.37 58.27 58.27 0 0 0 -30.34-8.6 53.17 53.17 0 0 0 -29.79 9.37 67.18 67.18 0 0 0 -20.84 23.63 109.71 109.71 0 0 0 -10.79 30.21 167.62 167.62 0 0 0 -3.39 32.27c-.08 10.87.22 21.85 2.17 32.34a83 83 0 0 0 10.9 29.73 63.46 63.46 0 0 0 22.53 21.72 67.15 67.15 0 0 0 30.4 8.65c10.49.19 21.43-2.18 30.3-7.78 9-5.49 15.82-14.11 20.69-23.65s7.91-20.14 10.15-30.81a275.44 275.44 0 0 0 4.43-32.53z" fill="#8e9196"/><path d="m4999.64 2899.9a12.17 12.17 0 0 1 1.2 5.19 9.12 9.12 0 0 1 -1.2 5.19 2.85 2.85 0 0 1 -4.86 0 9.12 9.12 0 0 1 -1.2-5.19 12.17 12.17 0 0 1 1.2-5.19 2.73 2.73 0 0 1 3.64-1.2 2.69 2.69 0 0 1 1.22 1.2z" fill="#c3c4c7"/><path d="m4812.46 3046.75c30.86-37.39 60-52.55 79.72-63 0 0 37.18 28.65 71.09 28.65s61.9-26.49 61.9-26.49 69.23 22.17 87.92 65.43l-66.54 37.72-75.77 14.22a49.72 49.72 0 0 1 -12.8 0l-80.92-16.25z" fill="#187aa2"/><path d="m4973.57 3000.32-4.07-9.87-2-4.94a15.83 15.83 0 0 0 -2.1-4 13.59 13.59 0 0 0 -7.1-4.91l-10.1-3.45-20.55-6.25-20.45-6.55 4-1.47c-1.48 2.25-3.06 4.43-4.59 6.65s-3.16 4.37-4.84 6.5a2.46 2.46 0 0 1 -3.43.42 2.4 2.4 0 0 1 -.7-2.94c1.17-2.44 2.42-4.83 3.7-7.19s2.59-4.72 4-7a3.38 3.38 0 0 1 3.89-1.5h.11l20.63 6.27 20.53 6.56c3.42 1.14 6.78 2.52 10.15 3.79a19.75 19.75 0 0 1 12.53 13.07l1.69 5.06 3.33 10.13a2.4 2.4 0 0 1 -1.56 3 2.45 2.45 0 0 1 -3.07-1.38z" fill="#c3c4c7"/><path d="m4975.27 2969.61q4.41-2.3 8.91-4.39c3-1.36 6-2.81 9-4.11 6.08-2.59 12.14-5.25 18.32-7.6l.14-.05a3.51 3.51 0 0 1 4.39 1.72c1.38 2.83 2.65 5.71 3.93 8.58s2.48 5.79 3.62 8.74a2.41 2.41 0 0 1 -1.41 3.11 2.46 2.46 0 0 1 -2.93-1c-1.71-2.66-3.39-5.34-4.93-8.09s-3.15-5.46-4.61-8.24l4.53 1.66c-6 2.68-12.22 5.05-18.37 7.49-3.07 1.22-6.21 2.29-9.31 3.44s-6.26 2.17-9.43 3.15a2.44 2.44 0 0 1 -3.06-1.58 2.4 2.4 0 0 1 1.21-2.83z" fill="#c3c4c7"/><path d="m5001.19 2929.69a12 12 0 0 1 2.24 4.61 15.51 15.51 0 0 1 .47 4.61 20.48 20.48 0 0 1 -.68 4.61 14.69 14.69 0 0 1 -2 4.61 1.11 1.11 0 0 1 -1.82 0 14.69 14.69 0 0 1 -2-4.61 20.5 20.5 0 0 1 -.68-4.61 15.52 15.52 0 0 1 .47-4.61 12 12 0 0 1 2.24-4.61 1.17 1.17 0 0 1 1.63-.19 1.21 1.21 0 0 1 .13.19z" fill="#8e9196"/><path d="m4879.54 3087.95a260.08 260.08 0 0 1 -79.78-47.26 239.06 239.06 0 0 1 -57.14-74.17c-27.88-57-30-125.48-8-184.94a242.44 242.44 0 1 1 454.58 168.73c-22.12 59.42-68.42 110-126.71 135a239 239 0 0 1 -91.69 18.93 260.12 260.12 0 0 1 -91.26-16.29zm1.23-3.32a215.61 215.61 0 0 0 89.8 12.78 232.53 232.53 0 0 0 86.74-23.51c26.85-13.25 51.41-31 71.64-53a228.9 228.9 0 0 0 46.39-75.79c20.81-56 18.25-119.88-6.93-173.9a228.31 228.31 0 0 0 -301.16-111.79c-54.32 24.51-98 71.27-118.71 127.27a228.91 228.91 0 0 0 -14.29 87.7c1 29.83 8 59.32 19.72 86.88a232.48 232.48 0 0 0 50.4 74.41 215.64 215.64 0 0 0 76.4 48.95z" fill="#63d6b6"/></g></svg>
