<svg height="250" viewBox="0 0 400 250" width="400" xmlns="http://www.w3.org/2000/svg" xmlns:xlink="http://www.w3.org/1999/xlink"><defs><path id="a" d="m58.857 87.852c.286-3.59 1.43-7.034 2.857-10.336 1.572-3.3 3.43-6.316 5.715-9.187 4.571-5.599 9.856-10.479 15.571-14.643.143-.143.286 0 .43 0 .14.144 0 .287 0 .43-5 5.025-10.43 9.618-14.573 15.217-2.143 2.727-4.143 5.598-5.57 8.756-1.573 3.158-2.858 6.46-3.858 9.762 0 .143-.144.143-.144.143-.43 0-.572 0-.43-.143zm-9.857 0c-.43-6.89-.857-13.78-2-20.528-1.143-6.747-3-13.493-5.57-19.81-2.573-6.316-6.144-12.345-10.573-17.512-4.428-5.312-9.57-9.762-15.286-13.637-.14-.144-.14-.288-.14-.43.14-.145.284-.145.427-.145 6 3.445 11.43 7.895 16 13.207 4.572 5.31 8.143 11.34 10.857 17.8 2.715 6.46 4.572 13.206 5.572 20.097 1 6.89 1.285 13.924.857 20.814.143.287.143.287-.143.144.143.143.143.143 0 0z"/><mask id="b" fill="#fff"><path d="m0 0h321v98h-321z" fill="#fff" fill-rule="evenodd"/></mask></defs><g fill="none" fill-rule="evenodd"><g fill-rule="nonzero"><path d="m99.143 178.463c9.57-7.32 10-23.11 1.143-40.624-9-17.514-33.715-35.314-45.286-17.658-11.57 17.657 23.57 68.33 38 60.578" fill="#fff"/><path d="m99 178.463c3-2.297 5-5.742 6.143-9.33 1-3.59 1.286-7.465.857-11.198-.857-7.464-3.57-14.64-7.143-21.245-3.714-6.46-8.857-12.2-14.857-16.65-3-2.155-6.286-4.02-9.714-5.313-3.43-1.148-7.286-1.58-10.715-.43-3.427 1.005-6.284 3.588-8.14 6.747-1.86 3.158-2.144 6.89-1.716 10.622.715 7.465 3.715 14.5 7.143 21.245 3.572 6.605 7.857 12.92 13 18.52 2.572 2.726 5.43 5.31 8.572 7.32 1.57 1.005 3.284 1.866 5 2.297 1.713.43 3.713.43 5.284-.43.143-.144.286 0 .43.143.142.143 0 .287-.144.43-1.714 1.005-3.857 1.005-5.714.718-1.857-.43-3.715-1.292-5.43-2.153-3.285-2.01-6.142-4.594-8.856-7.32-5.286-5.6-9.714-11.772-13.43-18.52-1.856-3.3-3.427-6.89-4.713-10.478-1.286-3.59-2.286-7.32-2.714-11.197-.43-3.875-.143-8.038 1.857-11.627 2-3.445 5.143-6.316 9-7.465 3.857-1.148 8-.717 11.714.575 3.715 1.292 7.143 3.3 10.143 5.454 6.143 4.592 11.43 10.479 15.143 17.225 1.857 3.445 3.43 6.89 4.57 10.623 1.144 3.59 2.144 7.464 2.43 11.34s0 7.752-1.143 11.484c-1.286 3.732-3.428 7.034-6.57 9.33h-.144c-.143-.574-.143-.717-.143-.717z" fill="#c3c4c7"/><path d="m114.143 188.08c-6.286-9.904-2.143-26.843 9.857-37.61l3.43 12.06 1.856-13.638c4.57-1.58 11.857-1.436 15.714 2.727 16.143 17.225-12.857 44.212-26.143 38.327" fill="#fff"/><path d="m114.143 188.224c-1.857-3.014-2.857-6.46-3.143-10.048-.143-3.59.286-7.034 1.286-10.48 2-6.746 6.143-12.92 11.428-17.656.286-.287.715-.287 1 0 .143.144.143.144.143.287l3.43 12.058-1.43.144 1.714-13.638c0-.287.287-.574.573-.574 3.143-1.005 6.428-1.292 9.714-.718 1.572.287 3.143.86 4.714 1.723 1.43.86 2.716 2.153 3.573 3.445 2 2.584 3.286 5.742 3.57 9.043.287 3.303-.427 6.605-1.57 9.62-2.43 6.028-6.857 10.91-12 14.64-2.572 1.867-5.43 3.446-8.43 4.307-3 .862-6.427 1.15-9.427-.143-.143 0-.143-.287-.143-.43 0-.144.286-.144.428-.144 2.86 1.148 6 .717 9-.287 2.86-1.005 5.573-2.584 8.144-4.307 4.857-3.732 9-8.613 11.43-14.355 1.142-2.87 1.713-5.884 1.427-8.9-.284-3.013-1.427-5.884-3.284-8.18-1-1.15-2-2.298-3.143-3.015-1.286-.718-2.714-1.292-4.143-1.58-2.857-.574-6-.287-8.857.575l.57-.575-1.856 13.638c0 .43-.428.717-.857.574-.286 0-.57-.287-.57-.574l-3.287-12.058 1.143.287c-5.143 4.45-9.143 10.335-11.286 16.938-1.143 3.302-1.714 6.747-1.57 10.192 0 3.445.856 6.89 2.57 9.905v.144l-.857.144z" fill="#c3c4c7"/><g fill-rule="evenodd" transform="translate(51 112)"><use fill="#f6f7f7" xlink:href="#a"/><use fill="#c3c4c7" xlink:href="#a"/></g></g><g transform="translate(40 100)"><path d="m60.624 85.044c7.004 3.233 13.327 11.81 21.063 25.344 7.735 13.534 13.612 23.454 27.742 17.793 25.792-10.333 31.49-39.427 45.173-50.19 13.68-10.764 34.232 47.205 58.148 41.56 23.917-5.644 32.955-29.19 40.372-44.15 7.417-14.958 7.825-22.207 13.484-25.707 15.872-9.818 16.39-8.56 17.796-11.897 1.406-3.336 1.174-8.555-2.378-10.126-3.553-1.57-25.08-3.833-32.824 2.885-7.744 6.72-23.275 50.888-36.45 57.698-13.173 6.81-27.436-48.515-58.147-36.416-30.71 12.1-38.514 53.618-47.87 58.55-9.36 4.934-17.03-24.018-32.03-30.53-14.997-6.51-29.567-1.96-14.08 5.187z" fill="#c3c4c7" mask="url(#b)"/><path d="m74.704 79.858c-14.998-6.51-29.568-1.962-14.08 5.186 7.004 3.233 13.327 11.81 21.063 25.344 7.735 13.534 13.612 23.454 27.742 17.793m45.173-50.19c13.68-10.764 34.232 47.205 58.148 41.56m71.652-81.754c1.406-3.336 1.174-8.555-2.378-10.126-3.553-1.57-25.08-3.833-32.824 2.885-7.744 6.72-23.275 50.888-36.45 57.698m-58.147-36.416c-30.71 12.1-38.514 53.618-47.87 58.55" mask="url(#b)" stroke="#187aa2" stroke-linecap="round" stroke-linejoin="bevel" stroke-width="1.3"/></g><path d="m293.49 128.946-5.32-.89c-2.164-.362-3.545 1.07-3.08 3.223l1.005 4.65 7.394-6.984zm6 7-5.32-.89c-2.164-.362-3.545 1.07-3.08 3.223l1.005 4.65 7.394-6.984z" fill="#187aa2"/><path d="m304.834 134.583c.46 0 .834-1.026.834-2.292 0-1.264-.374-2.29-.834-2.29s-.834 1.026-.834 2.29c0 1.267.373 2.293.834 2.293z" fill="#004e6e"/><ellipse cx="320.042" cy="132.042" fill="#187aa2" rx="1.042" ry="1.042"/><g fill-rule="nonzero"><g><path d="m110.472 213.2 31.123-.1c20.633.1 41.266 0 61.898.4.35 0 .7.1.7.2s-.35.2-.7.2c-20.632.3-41.265.3-61.898.4l-31.123-.1c-10.49-.1-20.633-.1-31.124-.4 0 0-.35-.1 0-.2 10.49-.3 20.633-.3 31.124-.4zm8.988-7.6c17.963-.3 35.328-.3 53.292-.4l53.294-.1c35.33.1 70.66 0 105.99.4.598 0 1.197.1 1.197.2s-.6.2-1.198.2c-35.33.3-70.66.3-105.99.4l-53.293-.1c-17.964-.1-35.33-.1-53.293-.4 0 0-.6-.1 0-.2-.6 0 0 0 0 0z" fill="#c3c4c7"/><path d="m69.533 198.6c23-.3 45.234-.3 68.234-.4l68.233-.1c45.233.1 90.467 0 135.7.4.767 0 1.533.1 1.533.2s-.766.2-1.533.2c-45.233.3-90.467.3-135.7.4l-68.233-.1c-23-.1-45.234-.1-68.234-.4 0 0-.766-.1 0-.2-.766 0 0 0 0 0z" fill="#8e9196"/></g><g fill="#c3c4c7"><path d="m321.31 192.59-.106-.11-.214-.32c-.107-.216-.32-.323-.428-.538-.32-.322-.642-.644-.963-.86-.643-.536-1.393-.858-2.142-1.073-.75-.216-1.605-.11-2.354.106-.428.108-.75.215-1.178.43-.32.107-.428.322-.535.537-.106.215 0 .537.108.752.214.322.535.644.857.86.642.536 1.39.858 2.14 1.073.856.215 1.605.215 2.462 0 .428-.107.856-.215 1.177-.322.214-.107.428-.215.535-.322l.32-.215h.32s0-.11 0 0zm.322.32-.214.216-.32.215c-.215.108-.43.323-.643.43l-1.284.645c-.963.322-1.926.43-2.89.215-.962-.108-1.925-.645-2.782-1.182-.428-.322-.75-.644-1.07-1.074-.428-.537-.535-1.29-.32-1.826.106-.644.64-1.18 1.176-1.396.428-.215.963-.43 1.392-.537.963-.215 2.033-.215 2.996 0s1.927.86 2.57 1.61c.32.323.64.753.855 1.182l.32.645.108.322v.43l.107.107z"/><path d="m330.194 194.2c.32-.322.428-.86.428-1.18 0-.216-.107-.43-.214-.54l-.428-.428c-.75-.537-1.605-.967-2.57-1.074-.855-.108-1.818.107-2.674.537s-1.606.966-2.14 1.61v-.75c.32.536.856 1.073 1.39 1.503.536.43 1.178.752 1.927.86 1.284.32 2.89.106 4.28-.538zm.214.322c-1.284 1.074-2.997 1.61-4.71 1.397-.855-.11-1.71-.43-2.46-.968-.75-.537-1.285-1.074-1.82-1.826-.107-.215-.107-.537 0-.752.75-.967 1.605-1.61 2.676-2.148 1.07-.43 2.247-.645 3.424-.537 1.178.214 2.248.75 2.997 1.503.214.214.428.43.535.75.107.324.214.646.214.968-.107.646-.428 1.29-.856 1.612zm1.07-6.766c.32-.323.535-.752.535-1.182 0-.215-.107-.43-.214-.537-.108-.107-.215-.322-.43-.43-.748-.644-1.604-1.074-2.46-1.288-.856-.11-1.82 0-2.676.32-.856.323-1.712.86-2.354 1.504l.107-.75c.32.536.75 1.18 1.284 1.61.536.43 1.178.86 1.82 1.074 1.392.322 2.89.215 4.388-.322zm.107.322c-1.39.966-3.103 1.396-4.816.966-.857-.214-1.606-.537-2.355-1.18-.642-.538-1.285-1.183-1.713-1.934-.107-.215-.107-.537.107-.752.856-.86 1.712-1.504 2.89-1.934 1.07-.43 2.246-.43 3.424-.214 1.177.214 2.14.966 2.89 1.826.213.214.427.43.534.75.108.324.108.646.108.968-.108.645-.536 1.182-1.07 1.504zm2.89-5.8c.428-.215.75-.645.75-1.074v-.537c-.108-.215-.215-.323-.322-.537-.535-.752-1.284-1.397-2.033-1.826-.857-.323-1.82-.43-2.676-.43-.856.107-1.82.43-2.57.86l.215-.753c.106.646.535 1.29.856 1.827.428.537.963 1.074 1.498 1.397 1.177.752 2.783 1.074 4.28.752v.322zm.107.322c-1.498.537-3.318.537-4.923-.215-.75-.43-1.5-.966-2.035-1.61-.535-.753-.963-1.397-1.177-2.364-.107-.214 0-.536.214-.643.963-.645 2.034-1.074 3.21-1.182 1.178-.107 2.355.108 3.426.645 1.07.537 1.926 1.396 2.354 2.47.107.215.32.537.32.86 0 .32 0 .644-.106.966-.214.537-.75.967-1.39 1.074h.106z"/><path d="m323.023 185.178v-.108l-.107-.322c-.107-.215-.107-.43-.214-.644-.107-.43-.32-.752-.535-1.182-.428-.752-.963-1.29-1.712-1.718-.642-.43-1.498-.645-2.248-.752h-1.177c-.32 0-.535.215-.642.322-.107.215-.214.43-.107.752.108.322.322.752.43 1.074.427.752.962 1.29 1.71 1.72.75.428 1.5.75 2.356.858.428.107.856.107 1.284.107.214 0 .428 0 .642-.107l.32-.108zm.214.43-.32.107-.322.107c-.214.108-.428.108-.642.215-.428.107-.963.107-1.498.107-.963 0-1.927-.322-2.89-.75-.856-.43-1.605-1.183-2.14-2.042-.32-.43-.428-.86-.642-1.396-.214-.645-.107-1.29.32-1.826.322-.537 1.07-.86 1.606-.967h1.497c.964.107 2.034.43 2.783 1.074.856.537 1.498 1.396 1.82 2.363.213.43.32.967.427 1.396v1.61zm3.64-7.627v-.428c0-.215-.108-.43-.108-.645-.108-.43-.215-.86-.43-1.18-.32-.753-.748-1.397-1.39-1.934s-1.39-.86-2.14-1.074c-.215 0-.43-.11-.643-.11h-.535c-.32 0-.535.11-.75.323-.213.215-.32.43-.32.752 0 .215.107.645.32 1.074.322.75.75 1.396 1.392 1.933s1.392.966 2.14 1.18c.43.108.857.216 1.285.216h.962l.214-.11zm.106.43-.32.11-.322.106c-.213 0-.427.107-.748.107-.428 0-.963 0-1.39-.107-.965-.107-1.928-.537-2.677-1.182-.856-.537-1.498-1.396-1.82-2.363-.213-.428-.427-.858-.427-1.61 0-.644.214-1.29.642-1.718.428-.43 1.07-.752 1.605-.752h.75c.213 0 .534.107.748.107.964.323 1.82.752 2.57 1.504.748.646 1.283 1.612 1.497 2.58.107.43.107.966.107 1.395 0 .215 0 .43-.107.752l-.107.322v.75z"/><path d="m321.74 199.356c-.322-2.15-.43-4.19-.43-6.337 0-2.15.215-4.298.643-6.34.535-2.147 1.284-4.187 2.462-6.013 1.177-1.826 2.675-3.437 4.28-4.726.108-.107.215-.107.322 0 .107.108.107.216 0 .323-1.392 1.61-2.676 3.222-3.64 4.94-1.07 1.72-1.71 3.653-2.14 5.693-.428 2.04-.642 4.082-.75 6.123-.106 2.04-.213 4.187-.534 6.228 0 .215-.107.322-.214.108 0 .107 0 .107 0 0z"/></g></g></g></svg>
