<svg xmlns="http://www.w3.org/2000/svg" viewBox="0 0 1600 1168"><defs><style>.cls-1{fill:#fff}.cls-2{fill:#46799A}.cls-3{fill:#E1E2E2}.cls-4{fill:#6F93AD}.cls-5{fill:#016087}.cls-6{fill:#ddf8ff}.cls-7{fill:none}</style></defs><title>jetpack-payments</title><g id="jetpack-payments"><g id="Layer_2" data-name="Layer 2"><g id="Layer_1-2" data-name="Layer 1-2"><path class="cls-1" d="M1056.35 204.76a19.6 19.6 0 0 0 15.78-8.13 17.7 17.7 0 0 0 3.33-8.14 50.57 50.57 0 0 0 0-9.37l-3.46-40.69c0-6.78-.74-13.44-.86-20.35a97.29 97.29 0 0 0-1-17.88 14.4 14.4 0 0 0-9-8.75 21.91 21.91 0 0 0-3.08-.74h-14.55l-163 1a12.32 12.32 0 0 0-10.36 4.93 11.14 11.14 0 0 0-2.59 5.3 38.8 38.8 0 0 0 0 7.77v61.4a81.86 81.86 0 0 0 .62 17.63 13.65 13.65 0 0 0 8.5 8.76 8.71 8.71 0 0 0 3 .74h49.69c15.29 0 30.58 0 46 1.23 27.25 2 54.5 5.3 81.62 5.3zm-54.87 7c-8.64.74-17.39 1.48-26 2-15.41.87-30.7 1-46 1.24v39.45h75a318.59 318.59 0 0 1-3-42.66z"/><path class="cls-2" d="M1086.8 101.56a32.43 32.43 0 0 0-1.36-6.9 31.06 31.06 0 0 0-18.86-19.24 25.46 25.46 0 0 0-6.78-1.48 11.09 11.09 0 0 0-3.45 0H1044l-163.61-1.48a32.67 32.67 0 0 0-24.66 12.33 30.09 30.09 0 0 0-6.66 12.33 47.66 47.66 0 0 0-.74 12.33v77.44a26.91 26.91 0 0 0 1.61 7 30.91 30.91 0 0 0 19.23 19.36 37.25 37.25 0 0 0 6.91 1.6 15.31 15.31 0 0 0 3.45 0h33.91v39.46h14v-39.44c15.29 0 30.58 0 46-1.23 8.63 0 17.38-1.23 26-2 .74 13.93 1.61 28 2.84 42.91h6.29c1.11-12.33 2-25.4 2.46-38.6v-5.3c14.55-1.11 29.23-2.22 43.78-2a26 26 0 0 0 20.59-9 29.57 29.57 0 0 0 5.55-10 50.19 50.19 0 0 0 1.35-10.85l3.21-40.81c0-6.78.74-13.69.74-20.47v-10.16a31.4 31.4 0 0 0 .55-5.8zM975 200.2c-15.42-.86-30.58-1-46-1.23h-49.84l-3-.74a13.69 13.69 0 0 1-8.51-8.76 91 91 0 0 1-.61-18.37v-61.65a32.57 32.57 0 0 1 0-7.77 14 14 0 0 1 3.33-4.56 13.32 13.32 0 0 1 10.35-4.93l163.13-1.11h14.18a10.79 10.79 0 0 1 3.21.74 14.83 14.83 0 0 1 8.88 8.75 80.5 80.5 0 0 1 1 17.88 163.09 163.09 0 0 0 .86 20.35l3.46 40.32a40.78 40.78 0 0 1 0 9.37 17.39 17.39 0 0 1-3.21 8.14 19.81 19.81 0 0 1-15.9 8.13c-27.13 0-54.87-3.33-81.38-5.17z"/><path class="cls-3" d="M1241.54 549.27l-9.24-181.75a123.32 123.32 0 0 0-45.87-91.86 91.47 91.47 0 0 0-57.34-21.08h-658.8a87.68 87.68 0 0 0-69.54 33.78 145.58 145.58 0 0 0-33.54 87.05l-8.51 181.38-88.28 348.82h1062zm-110-227.62a10 10 0 0 1 10.36 8.64l7.52 156.1a11.12 11.12 0 0 1-3.82 8.75 14.56 14.56 0 0 1-9.87 3.82H678.18V493L675 321.65zM460.67 480.47l7.65-158.82h132.92a9.74 9.74 0 0 1 10.35 8.64l-3.82 156.1a11.48 11.48 0 0 1-3.7 8.75 15.07 15.07 0 0 1-10 3.82h-133.4zm97.53 359.79h-54.62v-51.17c0-1.6 2-3.08 4.44-3.08h50.18zm0-86.31h-54.62v-51.17c0-1.6 2-3.08 4.44-3.08h50.18zm0-86.31h-54.62v-51.17c0-1.6 2-3 4.44-3h50.18zm107.89 172.62h-54.62v-51.17c0-1.6 2.1-3.08 4.44-3.08h50.18zm0-86.31h-54.62v-51.17c0-1.6 2.1-3.08 4.44-3.08h50.18zm0-86.31h-54.62v-51.17c0-1.6 2.1-3 4.44-3h50.18zm108 172.62h-54.61v-51.17c0-1.6 2-3.08 4.44-3.08h50.19zm0-86.31h-54.61v-51.17c0-1.6 2-3.08 4.44-3.08h50.19zm0-86.31h-54.61v-51.17c0-1.6 2-3 4.44-3h50.19zm108 172.62H827.5v-51.17c0-1.6 2-3.08 4.44-3.08h50.18zm0-86.31H827.5v-51.17c0-1.6 2-3.08 4.44-3.08h50.18zm0-86.31H827.5v-51.17c0-1.6 2-3 4.44-3h50.18zm108.17 172.62h-54.63v-51.17c0-1.6 2-3.08 4.44-3.08h50.19zm0-86.31h-54.63v-51.17c0-1.6 2-3.08 4.44-3.08h50.19zm0-86.31h-54.63v-51.17c0-1.6 2-3 4.44-3h50.19zm107.88 172.62h-54.62v-51.17c0-1.6 2.1-3.08 4.44-3.08h50.18zm0-86.31h-54.62v-51.17c0-1.6 2.1-3.08 4.44-3.08h50.18zm0-86.31h-54.62v-51.17c0-1.6 2.1-3 4.44-3h50.18zm51.3-107.52a1220.35 1220.35 0 0 1-172.62 8.76c-57.34.73-114.68 1-172.63 1.35s-114.67 0-172.62-1.35A1257.23 1257.23 0 0 1 459 560.12v-5.42a1236.87 1236.87 0 0 1 172.62-8.76c57.33-.74 114.67-1 172.62-1.36s114.8 0 172.63 1.36a1257.23 1257.23 0 0 1 172.62 8.76z"/><path class="cls-4" d="M1332.3 905.61h-1083v262.14H290l514.17-1.6c182.24.74 364.36.86 546.48 1.85V905.61zm-338.1 157.95c0 11.47-1 22.94-1.6 34.4a2.71 2.71 0 0 1-5.3 0c0-11.46-1.11-22.93-1.61-34.4s0-19.48-1-29.22c-29.84.74-59.8 1.23-89.52 1.23l-94.94.74-94.7-.74c-30.09 0-60.17-.86-90.13-1.85 0 10-.87 19.73-1.61 29.6s-1.23 16.89-1.85 24.66a1.3 1.3 0 0 1-1.48 1.23 1.24 1.24 0 0 1-1.11-1.23c-.73-8.26-1.35-16.77-2-24.66-.61-11.47-1.23-22.94-1.72-34.65a4.68 4.68 0 0 1 4.55-4.81c31.69-1.23 63.25-2.1 94.94-2.1L800 1021l94.94.74c31.57 0 63.26.74 94.82 1.48a5.81 5.81 0 0 1 5.06 5.68c.24 11.48-.13 23.1-.62 34.66z"/><path class="cls-5" d="M678.18 498.84H1135a14.87 14.87 0 0 0 9.87-3.82 10.74 10.74 0 0 0 3.82-8.76l-6.91-156.1a9.86 9.86 0 0 0-10.35-8.63H675.22l3.2 158.94z"/><path class="cls-6" d="M1215.65 553.34H389.53"/><path class="cls-2" d="M1215.65 556.42a1566 1566 0 0 1-206.53 10c-68.93 1-137.73 1.23-206.53 1.48s-137.73 0-206.53-1.48a1564.27 1564.27 0 0 1-206.53-10v-6.16a1564.27 1564.27 0 0 1 206.53-10c68.8-1 137.6-1.23 206.53-1.48s137.6 0 206.53 1.48a1564.27 1564.27 0 0 1 206.53 10z"/></g></g></g><g id="clear_rectangle" data-name="clear rectangle"><path id="Layer_4" data-name="Layer 4" class="cls-7" d="M0 0h1600v1168H0z"/></g></svg>