<svg viewBox="0 0 1492.85 1492.85" xmlns="http://www.w3.org/2000/svg"><circle cx="746.43" cy="746.43" fill="#dcdcde" r="746.43"/><g transform="translate(-7.15 -7.15)"><path d="m979.9 1011.29c-33-51.29-31.8-168.69-31.8-286.07h-325.49s-52.2 256.56 46.18 332.56c75.8-.89 301.2-6.18 301.2-6.18" fill="#fff"/><path d="m602.55 899.28c-1.65-29.45-.77-58.88 1.4-88.14a818 818 0 0 1 11.33-87.41 7.36 7.36 0 0 1 7.25-6h.08l75.33.25-242-268.62-27.71 531.9 190 9.9q-.72-2.14-1.39-4.27c-8.75-28.64-12.71-58.19-14.29-87.61z" fill="#c3c4c7"/><path d="m664.94 1062.76.12.09a6 6 0 0 0 3.8 1.22l150.61-4.5c50.2-1.31 100.4-3.26 150.58-5.34a2.63 2.63 0 0 0 -.12-5.27c-50.22 0-100.43.09-150.62.84l-148.25 1.65c-18.15-15.16-30.24-36.66-38.37-59.54l-14.49-.76c8.98 26.85 23.05 53.53 46.74 71.61z" fill="#c3c4c7"/><path d="m981 1010.58c-12.11-20.71-16.88-44.78-20.32-68.41a674.61 674.61 0 0 1 -5.75-71.94c-1.45-48.21-1-96.57-.42-145a6.35 6.35 0 0 0 -6.33-6.37h-.09l-250.15-.86 13 14.43 230.81-.75c.54 46.27.44 92.66 3.71 139.06 1.75 24.25 4.07 48.54 8.6 72.55 4.85 23.79 11.06 48.1 24.73 68.73a1.36 1.36 0 0 0 1.8.39 1.32 1.32 0 0 0 .41-1.83z" fill="#c3c4c7"/><path d="m622.61 717.74h-.08a7.36 7.36 0 0 0 -7.25 6 818 818 0 0 0 -11.28 87.4c-2.17 29.26-3.05 58.69-1.4 88.14s5.54 59 14.25 87.6q.67 2.14 1.39 4.27l14.49.76q-1.59-4.47-3-9c-8.09-27.13-11.81-55.72-13.16-84.36s-.42-57.54 1.88-86.27c2.24-26.66 5.67-53.44 10.43-79.61l82.09-.27-13-14.43z" fill="#c3c4c7"/><path d="m1078.93 903.67c-33-51.29-48.8-168.69-48.8-286.07h-325.48s-35.21 256.56 63.17 332.56c75.8-.89 301.2-6.18 301.2-6.18" fill="#fff"/><path d="m1080 903c-12-21-19.15-44.45-24.41-68.07a659.27 659.27 0 0 1 -11.91-71.77 1227.46 1227.46 0 0 1 -7.17-145.51 6.37 6.37 0 0 0 -6.35-6.39h-.08l-325.48-1.06h-.08a7.37 7.37 0 0 0 -7.33 6.47 838.89 838.89 0 0 0 -5.83 88.24 708 708 0 0 0 3.85 88.35c3.26 29.37 8.81 58.71 18.72 87 10.17 27.91 25.1 55.9 50 75l.11.09a6 6 0 0 0 3.81 1.23l150.66-4.58c50.2-1.31 100.4-3.26 150.58-5.34a2.63 2.63 0 0 0 -.12-5.27c-50.22 0-100.43.09-150.62.84l-148.25 1.65c-20.65-17.24-34.13-42.2-43.38-68.15-9.26-26.92-14.52-55.37-17.52-84a693.93 693.93 0 0 1 -3.26-86.59c.59-26.72 2.32-53.63 5.38-80l312.52-1c.87 46.9 3.47 93.85 10.49 140.31 3.7 24.27 8.25 48.46 14.8 72.19s15.23 47.08 28.7 67.84a1.38 1.38 0 0 0 1.81.39 1.32 1.32 0 0 0 .36-1.87z" fill="#c3c4c7"/><path d="m766.92 724.85c15.91-8.65 33.91-11.59 51.24-13.33a502.68 502.68 0 0 1 52.42-2c34.85 1.18 69.65 2.4 104 9.62a2.65 2.65 0 0 1 2 3.14 2.7 2.7 0 0 1 -2.5 2.1c-34.76 1.72-69.2-.39-103.64 0-17.2 0-34.37-.11-51.47.32s-34 .78-51.2 2.58h-.1a1.33 1.33 0 0 1 -.77-2.5z" fill="#c3c4c7"/><path d="m786.55 794.78c13.81.46 27.5 0 41.24.38s27.51.17 41.27.15c27.6.17 54.93-1.45 82.77-1.89a2.67 2.67 0 0 1 .94 5.18c-13.45 4.73-27.45 7.21-41.43 8.87s-28.07 2.48-42.14 2.76a374.39 374.39 0 0 1 -42.2-1.83c-13.95-1.63-28.35-3.69-41.31-11.14a1.33 1.33 0 0 1 .71-2.49z" fill="#c3c4c7"/></g></svg>
