<svg viewBox="0 0 1458.83 692.63" xmlns="http://www.w3.org/2000/svg"><path d="m3253.9 860.75c-27.82-.59-57.45-1.1-88.4-1.54v8.56c31-.44 60.58-1 88.4-1.54a2.74 2.74 0 0 0 0-5.47z" fill="#f6f7f7" transform="translate(-1800.14 -177.91)"/><path d="m2919.08 668.38v-356.64a71.64 71.64 0 0 1 -10.27.73v418a15.86 15.86 0 0 1 6.19-3.22c0-20 2.24-49.67 4.08-58.87z" fill="#8e9196" transform="translate(-1800.14 -177.91)"/><path d="m2109.68 815.79-.71 44.67c3.42.1 6.84.3 10.26.53l1-61.27a40.87 40.87 0 0 1 -10.55 16.07z" fill="#8e9196" transform="translate(-1800.14 -177.91)"/><path d="m2121.59 712.95 1.4-87.36c-3 2.56-6.34 3.29-10.33 3.84l-1.1 69c4.85 3.2 8.02 8.78 10.03 14.52z" fill="#8e9196" transform="translate(-1800.14 -177.91)"/><path d="m325.2 287.7.86-158.03h-10.26l-1.04 191.04 3.84 6.73z" fill="#8e9196"/><path d="m2186.66 398.83v70.7c37 32.14 33.67 72.81 0 115.47v276.18h375.64v-462.35z" fill="#d48fc8" transform="translate(-1800.14 -177.91)"/><path d="m828.88 220.91h204.97v197.13h-204.97z" fill="#d48fc8"/><path d="m828.88 478.39h204.97v102.97h-204.97z" fill="#c475bd"/><path d="m2116.59 315.83-.21-42.74-.17-38.43c-.15-30.94 20.85-56.12 46.91-56.25l708.5-.5c26.06-.13 47.31 24.85 47.47 55.78l.39 78.17z" fill="#c475bd" transform="translate(-1800.14 -177.91)"/><path d="m2935.66 313.83c-69.91 5.53-139.81 5.13-209.72 5.45l-209.72.92-209.72-.92c-69.91-.33-139.81.09-209.72-5.45v-3.43c69.91-5.54 139.81-5.13 209.72-5.45l209.72-.92 209.72.92c69.91.32 139.81-.08 209.72 5.45z" fill="#004e6e" transform="translate(-1800.14 -177.91)"/><path d="m2383.94 704.2h-107.81c0 59.14 48.67 107.81 107.81 107.81s107.81-48.67 107.81-107.81-48.67-107.81-107.81-107.81h-2.45z" fill="#c475bd" transform="translate(-1800.14 -177.91)"/><path d="m2352.78 677.75v-107.81c-59.14 0-107.81 48.67-107.81 107.81z" fill="#c475bd" transform="translate(-1800.14 -177.91)"/><path d="m2722.31 561.69h-50.15v-47.06c0-1.52 1.84-2.75 4.1-2.75h46.05z" fill="#fff" transform="translate(-1800.14 -177.91)"/><path d="m945.89 284.17h48.84a0 0 0 0 1 0 0v99.6a0 0 0 0 1 0 0h-50.16a0 0 0 0 1 0 0v-98.28a1.31 1.31 0 0 1 1.32-1.32z" fill="#fff"/><g transform="translate(-1800.14 -177.91)"><path d="m3193.87 585.73c10.26-1.35 20.52-2 30.78-2.34s20.52-.34 30.78-.54l-3.45 4.27c-2.56-11.55-6.22-22.92-11.91-33-5.55-9.83-14.1-18.88-24.62-19.25s-20.3 7.37-27.59 16.1c-7.41 9-13.19 19.44-18.11 30.25-9.72 21.75-16.36 45-21.42 68.47s-8.8 47.37-11.68 71.35a1.29 1.29 0 0 1 -2.57-.24 591.72 591.72 0 0 1 8.94-72.2c4.72-23.82 10.85-47.56 20.74-70.07 5-11.2 10.91-22.16 18.84-31.93a64.24 64.24 0 0 1 14-13c5.43-3.55 12.06-6.15 19.09-5.87a30.51 30.51 0 0 1 18.62 7.67 55.9 55.9 0 0 1 12.09 15.05c6.17 11.09 9.87 23.06 12.45 35.1v.07a3.47 3.47 0 0 1 -2.67 4.12 3.61 3.61 0 0 1 -.8.08c-10.26-.2-20.52-.08-30.78-.54s-20.52-1-30.78-2.34a.65.65 0 0 1 0-1.29z" fill="#c3c4c7"/><path d="m3177.17 527.7c-33.18 1.79-66.36 2.17-99.55 2.6l-49.78.23-24.89.11c-4 .16-8.71-.29-11.48.41a27 27 0 0 0 -9.48 5.1c-12 9.91-20.67 24.39-28.17 38.74a312.19 312.19 0 0 0 -18.55 45.53 360.88 360.88 0 0 0 -17.54 96.93 1.29 1.29 0 0 1 -2.58 0c-1-33.39 4.48-66.82 14.12-98.82a302.25 302.25 0 0 1 18.45-46.73 191.84 191.84 0 0 1 12.69-21.91c4.81-7 10.13-13.8 17-19.44a32 32 0 0 1 12.31-6.49 27.1 27.1 0 0 1 7.11-.53h6.22l24.87.11 49.74.23c33.16.43 66.31.81 99.48 2.6a.65.65 0 0 1 0 1.29z" fill="#c3c4c7"/><path d="m3116.61 590.52a194.93 194.93 0 0 1 -28.22 2.61c-9.41.27-18.81.46-28.22.4-18.81-.39-37.63-.17-56.44-2.36a1.3 1.3 0 0 1 0-2.58c18.81-2.19 37.63-2 56.44-2.36 9.41-.06 18.81.13 28.22.4a194.87 194.87 0 0 1 28.22 2.61.66.66 0 0 1 0 1.29z" fill="#c3c4c7"/><path d="m3096 638.6a51.92 51.92 0 0 1 -14.39 2.61c-4.8.27-9.59.45-14.39.41s-9.6-.25-14.39-.49a85.44 85.44 0 0 1 -14.39-1.88 1.33 1.33 0 0 1 0-2.58 85.44 85.44 0 0 1 14.39-1.88c4.8-.24 9.6-.42 14.39-.49s9.6.13 14.39.41a51.92 51.92 0 0 1 14.39 2.61.68.68 0 0 1 0 1.29z" fill="#c3c4c7"/><path d="m3174.79 659.12c-2.31-3.38-6.27-3.94-8.87-3.92a39.36 39.36 0 0 0 -8 .86.68.68 0 0 0 -.51.44.67.67 0 0 0 .42.85c2.52.88 5.11 1.48 7.43 2.14s4 1.69 4.4 2.92a12.71 12.71 0 0 1 .67 5.78c-.13 2.36-.55 4.68-.86 7.27-1.42 10.22-2.59 20.48-3.61 30.74q-.57 5.59-1.15 11.18l-105.16.21-53.26.11c-17.83.19-35.34-.29-53.43.67a138.94 138.94 0 0 0 -95 46.56 136.64 136.64 0 0 0 -27 46.37 92.85 92.85 0 0 0 -3.74 12.94 90 90 0 0 0 -2.45 13.23c-.28 2.23-.7 4.44-.87 6.67l-.27 6.72-.27 6.72c0 2.38.2 4.82.42 7.1h.48c56.12.87 112.89 1.82 170.08 2.22 57.11.64 114.55.63 171.84.79a3.46 3.46 0 0 0 3.45-3.47l.11-132.82c1.09-8.14 2.06-16.29 3.12-24.42q2-15.31 3.85-30.63a57.74 57.74 0 0 0 .49-8.11c-.04-2.75-.1-5.94-2.31-9.12zm-349.27 204.67.05-.45a51.37 51.37 0 0 0 .45-5.75l.4-6.57.4-6.57c.21-2.18.67-4.34 1-6.51a87.11 87.11 0 0 1 2.65-12.87 89.62 89.62 0 0 1 3.9-12.53 135.92 135.92 0 0 1 27-44.53 133.6 133.6 0 0 1 91.9-43.61c35.13-.49 70.91 0 106.33 0l102.92.21.12 136.23c-55.36.16-110.6.16-166.15.79-56.49.37-113.41 1.29-170.97 2.16z" fill="#c3c4c7"/><path d="m2858.45 808.87c21.22-1.78 42.45-2.15 63.67-2.6l63.67-.41c42.45.39 84.89.17 127.34 2.36a1.29 1.29 0 0 1 0 2.58c-42.45 2.19-84.89 2-127.34 2.36l-63.67-.41c-21.22-.44-42.44-.82-63.67-2.6a.65.65 0 0 1 0-1.29z" fill="#c3c4c7"/><path d="m2006.42 582.42a72.71 72.71 0 0 0 24.21-36.76c4.22-14.28 5-29.42 3.47-44.22-3.21-29.69-14-58.3-28.41-84.38a217.62 217.62 0 0 0 -59.24-66.11c-12-8.73-25.05-16.16-39-20.82s-28.94-6.27-42.6-2c-13.7 4.08-25 14.45-32.38 26.78-7.23 12.3-8.37 27.56-7 42.12 3.12 29.48 14.81 57.76 28.74 84.15 14.18 26.38 31.37 51.34 51.9 73.2 10.3 10.86 21.52 20.94 34.13 28.85 6.31 3.88 13 7.24 20.15 9s14.73 1.65 21.2-1.74a1.12 1.12 0 0 1 1.07 2c-7 3.92-15.37 4.22-22.91 2.59s-14.7-5-21.34-8.77c-13.18-7.91-24.71-18.09-35.35-29-21.16-21.92-38.9-46.92-53.68-73.51a302 302 0 0 1 -19-41.56c-5.2-14.35-9.28-29.24-10.86-44.64-1.43-15.24-.48-31.71 7.67-45.82 8-13.45 20.35-25 35.82-29.76s31.85-2.75 46.46 2.19 28.2 12.81 40.56 21.86a220.91 220.91 0 0 1 60.5 68.25 267.34 267.34 0 0 1 18.21 42 186.07 186.07 0 0 1 9.45 44.75c1.15 15.23.05 30.84-4.78 45.45s-13.92 27.78-26.26 36.79a.56.56 0 0 1 -.68-.89z" fill="#c3c4c7"/><path d="m2211.5 516.35a68 68 0 0 0 -14.07-36c-3.85-5.07-8.57-10.11-14.41-13.53a56.28 56.28 0 0 0 -18.49-6.88 78.42 78.42 0 0 0 -38.54 2.66 3 3 0 0 0 -2 2.42l-5.24 40.31-9.62-34a2.79 2.79 0 0 0 -4.55-1.3c-20.94 18.79-37.12 43-45.24 70a122.23 122.23 0 0 0 -5.31 41.58c.83 14 4.8 27.94 12.44 39.66a.57.57 0 0 0 .76.17.56.56 0 0 0 .19-.77c-7-11.85-10.22-25.58-10.43-39.19a119.2 119.2 0 0 1 6.33-40.2 152.49 152.49 0 0 1 41.62-64l12.06 43.19a2.89 2.89 0 0 0 5.65-.4l7-52.32a72.46 72.46 0 0 1 33.66-1.7 50 50 0 0 1 16.38 6.18c5 3 8.93 7.18 12.68 12a61.79 61.79 0 0 1 13 32.67c1.08 11.89-1.36 24-5.87 35.22-9.31 22.45-25.75 41.9-45.32 56.64-9.86 7.29-20.67 13.46-32.28 17.3s-24.27 5.55-35.62.93a1.14 1.14 0 0 0 -1.47.57 1.12 1.12 0 0 0 .56 1.49c11.89 5.42 25.61 4.3 37.67.62 12.21-3.74 23.49-9.88 33.84-17.18 20.5-14.77 38.09-34.38 48-58.16 4.94-11.9 7.71-24.92 6.62-37.98z" fill="#c3c4c7"/><path d="m2050.32 665.63c13.14-58.87 52-95.59 95.73-132.66" fill="#fff"/><path d="m2049.77 665.51c1.56-14 6-27.56 11.86-40.38a194.88 194.88 0 0 1 22.47-35.81c17.82-21.89 38.82-40.67 61.22-57.21a1.13 1.13 0 0 1 1.45 1.71c-19.91 19.42-40.86 37.7-57.7 59.45a197.42 197.42 0 0 0 -22.39 34.35c-6.41 12.12-11.27 25-15.82 38.12a.57.57 0 0 1 -1.1-.24z" fill="#c3c4c7"/><path d="m2011.19 667.62c2-153.94-59.3-239.23-132.92-284.35" fill="#fff"/><path d="m2010.62 667.61c-1.47-27.42-3.32-54.68-7.91-81.58a340.19 340.19 0 0 0 -22.36-78.27c-10.45-25-24.28-48.75-41.85-69.47s-38.15-38.81-60.84-54.07a1.12 1.12 0 0 1 -.32-1.56 1.14 1.14 0 0 1 1.5-.36 248.87 248.87 0 0 1 63.84 52.43c18.27 20.91 32.57 45.1 43.52 70.55a339.58 339.58 0 0 1 22.08 79.85 414 414 0 0 1 3.46 82.49.56.56 0 0 1 -.59.53.57.57 0 0 1 -.53-.54z" fill="#c3c4c7"/></g><path d="m130.05 527.87h201.87" fill="#fff"/><path d="m2353 340.77h43.61a0 0 0 0 1 0 0v265.56a0 0 0 0 1 0 0h-50.15a0 0 0 0 1 0 0v-259a6.54 6.54 0 0 1 6.54-6.56z" fill="#c475bd" transform="matrix(0 1 -1 0 1044.94 -2075.91)"/><path d="m2823.55 856.29c-118-.71-210.92-.79-328.87-1.23l-326.61.87c-32.7.28-69 .55-106.76.89a2.2 2.2 0 0 1 -1.75 1.62c-7.85 1.46-14.36 6.2-22.56 6a70.75 70.75 0 0 1 -8.55-.74c-9.42.25-17.55-4.89-26.89-4.9a2.15 2.15 0 0 1 -2.12-1.39c-69.27.79-139.41 2-198 4a1.37 1.37 0 0 0 0 2.74c108.87 3.77 257.74 4.57 366.61 5.51l326.61.87c117.68-.45 211.36-.14 329-.85-.66-4.55-.11-9.02-.11-13.39z" fill="#f6f7f7" transform="translate(-1800.14 -177.91)"/><path d="m2132.06 704.66q-6-.34-11.93-.59l-11.13-38.43a4.49 4.49 0 0 0 -4.29-3.24l-75.52-.27-75.52.21a4.55 4.55 0 0 0 -4.35 3.28l-11.31 39c-2.58.18-5.15.38-7.73.62a.56.56 0 0 0 0 1.12c2.35.22 4.7.4 7.05.58l-10.16 35a4.11 4.11 0 0 0 -.13.66c-3.42 30.18 5.21 61.58 24 85.28a103.77 103.77 0 0 0 34.84 28.19 90.46 90.46 0 0 0 43.35 9.16v.85a93.27 93.27 0 0 0 43.43-9.86 102.64 102.64 0 0 0 34.67-28.41 113.2 113.2 0 0 0 20.34-40.16 122.16 122.16 0 0 0 3.69-45 3.85 3.85 0 0 0 -.13-.64v-.07l-10-34.49q5.47-.24 10.95-.55a1.12 1.12 0 0 0 0-2.25zm-175-33.17 72.12.2 72.16-.26 9.63 32.28c-26.6-.9-53.2-.84-79.8-1.11l-50.47.36c-11.11.26-22.23.49-33.34 1.06zm165.88 72.51c3.43 27.95-3.85 57.21-20.79 80a99.25 99.25 0 0 1 -31.88 27.89 89.08 89.08 0 0 1 -41.13 10.91v.84a91.94 91.94 0 0 1 -41.21-11.64 98.11 98.11 0 0 1 -31.71-28.11 108.85 108.85 0 0 1 -18.09-38.16 117.84 117.84 0 0 1 -2.71-41.73l10.88-36.48c11.46.61 22.91.86 34.37 1.12l50.47.36c27-.27 54-.2 81-1.15z" fill="#c3c4c7" transform="translate(-1800.14 -177.91)"/></svg>
