<svg viewBox="0 0 1495.06 1495.06" xmlns="http://www.w3.org/2000/svg"><circle cx="747.53" cy="747.53" fill="#f5e9ed" r="747.53"/><path d="m561.73 720v-264.84c-145.27 0-264.82 119.54-264.82 264.82z" fill="#c475bd" transform="translate(-4.94 -4.94)"/><path d="m1147.78 767.85v135.61h-221.91-146.83v-449.3h368.74v188.71" fill="#fff"/><g transform="translate(-4.94 -4.94)"><path d="m777.05 908.45v-.06l-.56-224.65.29-124a262.11 262.11 0 0 0 -138.53-39.6q-3 0-6 .07l6 264.75h-264.81c0 145.27 119.54 264.82 264.82 264.82 98.16 0 184.55-54.58 230.28-134.79l-84.55.34a6.9 6.9 0 0 1 -6.94-6.88z" fill="#c475bd"/><path d="m968.35 914.57c61.46-.45 122.91-1 184.37-2.11h.12a4 4 0 0 0 3.95-4.07c-.49-45.2-1.83-90.41-2.75-135.61a1.32 1.32 0 0 0 -2.64 0c-.88 43.83-2.17 87.65-2.69 131.48-60.12-1.08-120.24-1.6-180.35-2l-92.81-.38q-3.32 6.68-7 13.14z" fill="#c3c4c7"/><path d="m1152.8 454.22h-.08l-184.37-1.44-184.35-.65a6.94 6.94 0 0 0 -6.92 7l-.24 100.65q7.37 4.57 14.42 9.59l-.26-103.37 177.39-.62 179.53-1.4.76 89.44 1.44 94.36a2.64 2.64 0 0 0 5.27 0l1.44-94.36.8-94.36a4.84 4.84 0 0 0 -4.83-4.84z" fill="#c3c4c7"/><path d="m776.49 683.74.56 224.65v.06a6.9 6.9 0 0 0 6.93 6.87l84.55-.34q3.68-6.46 7-13.14l-84.61-.34.54-217.75-.27-114.41q-7-5-14.42-9.59z" fill="#c3c4c7"/></g><path d="m844.91 536.15h198.43" fill="#fff"/><path d="m849.84 539.77c16.54-3.45 33.07-4.69 49.61-5.32s33.07-.94 49.61-.82c33.07.79 66.14.34 99.22 4.82a2.66 2.66 0 0 1 0 5.27c-33.07 4.48-66.14 4-99.22 4.82-16.54.12-33.07-.26-49.61-.82s-33.07-1.87-49.61-5.32a1.35 1.35 0 0 1 0-2.64z" fill="#c3c4c7" transform="translate(-4.94 -4.94)"/><path d="m839.7 603.12h242.09" fill="#fff"/><path d="m844.64 606.74c20.17-3.45 40.35-4.69 60.52-5.32s40.35-.94 60.52-.82c40.35.79 80.7.34 121 4.82a2.65 2.65 0 0 1 0 5.27c-40.35 4.48-80.7 4-121 4.82-20.17.12-40.35-.26-60.52-.82s-40.35-1.87-60.52-5.32a1.34 1.34 0 0 1 0-2.64z" fill="#c3c4c7" transform="translate(-4.94 -4.94)"/><path d="m844.91 673.4h236.88" fill="#fff"/><path d="m849.84 677c19.74-3.45 39.48-4.69 59.22-5.32s39.48-.94 59.22-.82c39.48.79 79 .34 118.44 4.82a2.65 2.65 0 0 1 0 5.27c-39.48 4.48-79 4-118.44 4.82-19.74.12-39.48-.26-59.22-.82s-39.48-1.87-59.22-5.32a1.34 1.34 0 0 1 0-2.64z" fill="#c3c4c7" transform="translate(-4.94 -4.94)"/><path d="m839.7 738.49h65.7" fill="#fff"/><path d="m844.64 742.11c5.48-3.48 11-4.71 16.42-5.32a139.82 139.82 0 0 1 16.42-.83c5.47.15 11 .51 16.42 1a57.71 57.71 0 0 1 16.42 3.83 2.86 2.86 0 0 1 0 5.27 57.71 57.71 0 0 1 -16.42 3.83c-5.47.49-11 .86-16.42 1a139.82 139.82 0 0 1 -16.42-.83c-5.47-.61-10.95-1.84-16.42-5.32a1.56 1.56 0 0 1 -.48-2.16 1.59 1.59 0 0 1 .48-.47z" fill="#c3c4c7" transform="translate(-4.94 -4.94)"/><path d="m1193.69 642.21a14.32 14.32 0 0 0 -12.38 21.56l-97.31 144.12a14.27 14.27 0 0 0 -16.16 2.55l-75.44-57.81a14.34 14.34 0 1 0 -28.29 4.51l-59.54 87.51h-.41a14.35 14.35 0 1 0 12 6.45l56.74-83.39a14.29 14.29 0 0 0 14.49-2.31l76.42 58.56a14.34 14.34 0 0 0 28.32-3.15c0-.42 0-.84-.06-1.25l100.38-148.71c.41 0 .82.06 1.25.06a14.34 14.34 0 0 0 0-28.68z" fill="#c3c4c7" transform="translate(-4.94 -4.94)"/></svg>
