<svg viewBox="0 0 1498.01 1498.01" xmlns="http://www.w3.org/2000/svg"><circle cx="749.01" cy="749.01" fill="#f7dcc6" r="749.01"/><path d="m360.91 499.8h377.84a0 0 0 0 1 0 0v504.65a0 0 0 0 1 0 0h-396.42a0 0 0 0 1 0 0v-486.07a18.58 18.58 0 0 1 18.58-18.58z" fill="#f2cf75"/><path d="m389.73 1004.68c64-7 128-9.43 192-10.67l96-1.39 96-.25 192 2c64 1.36 128 2.88 192 7.62a5.3 5.3 0 0 1 0 10.57c-64 4.74-128 6.26-192 7.62l-192 2-96-.25-96-1.39c-64-1.23-128-3.7-192-10.67a2.66 2.66 0 0 1 0-5.29z" fill="#c3c4c7" transform="translate(-1.99 -1)"/><path d="m820.35 924.41-51.49-466.25-37.93-44.99-23.7 51.8 51.49 466.25z" fill="#fff"/><path d="m765.92 460.16-12.16 13.51-13.29-9.45-12.94 14.37-15.95-11.34" fill="#fff"/><g transform="translate(-1.99 -1)"><path d="m823.37 926.24-9.84-115.24-10.92-117c-3.59-39.12-8-78.5-12-117.77l-12.5-117.91a7.31 7.31 0 0 0 -1.68-3.91l-37.8-45.09a7.62 7.62 0 0 0 -2.63-2 7.45 7.45 0 0 0 -9.87 3.7l-23.66 51.81a7.51 7.51 0 0 0 -.63 3.9l26.54 233 28.62 232.9v.1a3.66 3.66 0 0 0 4.09 3.17c21.08-2.65 42-5.76 62.34-8.71zm-94.12-486.14a43.36 43.36 0 0 0 13.56-2.72l20.59 24.29a41.4 41.4 0 0 0 -7.55 4.44c-2.94-2.44-5.92-4.81-9-7a7.59 7.59 0 0 0 -10 1.1c-3.31 3.68-6.61 7.37-9.6 11.33l-10.29-4.57zm91 483.67c-19.18 1.45-37.77 2.75-56.23 4.43l-22.5-229.82-23.73-221.8 7.88 8.41a5.16 5.16 0 0 0 7 .44l1.69-1.4a101.07 101.07 0 0 0 9.26-8.92c2.7 1.71 5.45 3.36 8.22 5l1.11.65a5.86 5.86 0 0 0 7.68-1.62 60.26 60.26 0 0 0 4.33-6.79l11.83 102.86c4.56 38.44 8.74 76.77 13.74 115.36l14.88 116.13 15.78 117z" fill="#c3c4c7"/><path d="m843.07 865.69h57.4a2.35 2.35 0 0 0 2.35-2.35v-316.34a31.05 31.05 0 0 0 -31.05-31.05 31.05 31.05 0 0 0 -31.05 31.05v316.34a2.35 2.35 0 0 0 2.35 2.35z" fill="#fff"/><path d="m871.78 864.37c15.65-.66 28.35-14.68 27.47-29.19l-1.43-48.08-1.63-96.3-.47-96.3-.26-48c0-12.55-11.34-23.31-23.69-23.11-12.39-.39-23.77 10.54-23.77 23.09l-.26 48-.62 96.3-1.57 96.3-1 48.08c-.55 14.34 12.23 27.84 27.23 27.84zm0 4c-17.71.87-34.57-14.58-34.85-33l-1-48.23-1.57-96.3-.62-96.3-.2-48.29c-.24-20.2 18-38.18 38.26-37.77 20.36-.61 38.6 17.56 38.36 37.77l-.2 48.29-.47 96.3-1.63 96.3-1.49 48.22c-.6 18.25-17.52 33.16-34.57 31.69z" fill="#c3c4c7"/><path d="m869.64 400.46c-15.33 32.22-38.29 75.28-19.52 95.91l13.81 15.23c37.07 5.4 53.02-58.5 5.71-111.14z" fill="#fff"/><path d="m905.34 461.92c-1.69-25.2-13.64-48.51-30.2-66.4l-.22-.24a7.28 7.28 0 0 0 -12 2c-6.93 15.52-14.85 31.06-20 48.07-2.45 8.51-4.74 17.35-4.51 26.72-.11 9.14 2.81 19.55 10.23 25.6a2 2 0 0 0 2.34.11 2 2 0 0 0 .54-2.73c-4.39-6.79-4.78-14.63-3.62-22.39a114.61 114.61 0 0 1 6.36-22.08l6 2.62c3 1.3 5.46 3.53 10.1 6.18a26 26 0 0 0 16.09 2.73 20.2 20.2 0 0 0 5-1.34c.11.77.23 1.55.32 2.33 1.13 10.52.41 21.39-3.75 30.69a25.91 25.91 0 0 1 -24 16.51 1.34 1.34 0 0 0 -.38 2.62 27.14 27.14 0 0 0 18.8-1c6.13-2.71 11.06-7.6 14.71-13 7.11-11.29 9.01-24.54 8.19-37zm-34.28-47.83c7.94 10.75 14.35 22.6 18 35.17-1-.16-2-.29-2.87-.45a26.44 26.44 0 0 1 -9-2.78c-3-1.36-7.71-4.2-13.14-5.23a22.93 22.93 0 0 0 -5.56-.35c3.9-8.8 8.16-17.55 12.56-26.36z" fill="#c3c4c7"/><path d="m994.55 711.16-22.27 335.84c-2 29.53-28.64 52.57-60.9 52.57h-133.38c-32.85 0-59.81-23.86-61-54l-12.92-334.4h234.31" fill="#fff"/><path d="m995.87 711.25c-2.73 81.91-6.73 163.74-11.48 245.52l-3.53 61.34-2 30.82a60.2 60.2 0 0 1 -12.68 31.71c-14 18.28-38.31 27.18-59.78 25.93l-61.44.19-61.44.19c-21.34 1.39-46.21-7-60.38-25.51a60.11 60.11 0 0 1 -13.14-31.9c-.78-11.13-.84-20.71-1.3-31.15l-2.16-61.39c-2.91-81.86-6-163.72-8.14-245.61v-.12a5.68 5.68 0 0 1 5.53-5.82h.2l117.13 1.12c39 .19 78.09 1.29 117.13 2a2.64 2.64 0 0 1 0 5.28c-39 .68-78.09 1.78-117.13 2l-117.13 1.12 5.72-5.95c4.17 81.81 7.42 163.66 10.83 245.51l2.56 61.38c.49 10 .71 20.93 1.42 30.22a45.25 45.25 0 0 0 10.08 24 53.59 53.59 0 0 0 21.48 15.72c8.6 3.62 17 4.48 27.28 4.34l61.44.19 61.44.19c19.33 1.13 37.54-6.07 49.06-20.36a46.59 46.59 0 0 0 10-24.47l2.18-30.46 4.6-61.27c6.09-81.69 12.93-163.33 21-244.89a1.32 1.32 0 0 1 2.64.17z" fill="#c3c4c7"/><path d="m761.44 776c4.46 14 6.68 28.23 8.28 42.46s2.89 28.49 3.79 42.77 1.46 28.59 2 42.9a366.24 366.24 0 0 1 -.87 43.09 2.68 2.68 0 0 1 -5.27.36 366.21 366.21 0 0 1 -6.84-42.58c-1.48-14.24-2.83-28.49-4-42.76s-1.7-28.57-2.12-42.89-.13-28.68 2.36-43.2a1.36 1.36 0 0 1 2.64-.18z" fill="#c3c4c7"/></g></svg>
