<svg viewBox="0 0 1498.28 1498.28" xmlns="http://www.w3.org/2000/svg"><circle cx="749.14" cy="749.14" fill="#e4f2ed" r="749.14"/><g transform="translate(-1.72 -1.72)"><path d="m544.7 898.05-.05 12.26a74.86 74.86 0 0 0 10.52 37.17c13.05 22.82 38.76 37.51 65.24 37.71v1.32c85.47-2.87 170.94-4.16 256.41-4.9a6 6 0 0 1 2.4.48l.13.06c58.1 25.24 117.26 48.47 177 69.79a204.84 204.84 0 0 1 -11.93-18.77 223.91 223.91 0 0 1 -18.57-43.31 7 7 0 0 1 4.59-8.72 7.55 7.55 0 0 1 2.1-.31l41-.08c6.92 0 13.7.05 19.67-.53a73 73 0 0 0 18-4.5c23.31-8.84 41.12-30.56 45.06-55.12 1.9-11.73.83-26.13 1.09-39.63l-.05-41-.26-81.58c-.58-24.89-15.76-48.39-37.47-60.31a74.72 74.72 0 0 0 -35.81-8.83l-41-.1-72.67-.15v209z" fill="none"/><path d="m536.11 787.56c.29-13.64-1.1-27.11 1.35-41.76a85.08 85.08 0 0 1 74.75-68.68c7.44-.55 14.15-.49 21-.55l81.91-.67 163.82-.78 91.19-.22v-239.79h-620.75a12.31 12.31 0 0 0 -12.31 12.31v450.63h199.8l-.28-28.59z" fill="#63d6b6"/><path d="m620.4 987.83h256.41c97.05 43.34 200.47 78.78 200.47 78.78s-29.38-28.06-44.79-78.78h52.47a79.7 79.7 0 0 0 79.7-79.7v-146.47a79.7 79.7 0 0 0 -79.7-79.7h-464.56a79.7 79.7 0 0 0 -79.7 79.7v146.47a79.7 79.7 0 0 0 79.7 79.7z" fill="#fff"/></g><circle cx="979.47" cy="839.69" fill="#c3c4c7" r="25.54"/><circle cx="852.28" cy="839.69" fill="#c3c4c7" r="25.54"/><circle cx="725.09" cy="839.69" fill="#c3c4c7" r="25.54"/><path d="m555.84 706.94a84.66 84.66 0 0 1 35.16-24.82 86 86 0 0 1 21.17-5c7.44-.55 14.15-.49 21-.55l19.77-.16-69.61-89.74-120 177h72.67a117.5 117.5 0 0 1 1.46-17.84 85.19 85.19 0 0 1 18.38-38.89z" fill="#2ebd99" transform="translate(-1.72 -1.72)"/><path d="m1172.07 840c-.06-27.45.28-54.28-.1-82.24-.84-30.07-19.18-58.41-45.4-72.64a89.58 89.58 0 0 0 -42.89-10.52l-41 .1-72.63.18-91.19.22-163.82.78-62.14.51 8.68 11.19 53.46.44 163.82.78 91.19.22 72.63.18 41 .1a74.72 74.72 0 0 1 35.81 8.83c21.71 11.92 36.9 35.41 37.47 60.31l.26 81.58.05 41c-.26 13.5.8 27.9-1.09 39.63-3.94 24.56-21.75 46.28-45.06 55.12a73 73 0 0 1 -18 4.5c-6 .58-12.74.55-19.67.53l-41 .08a7.55 7.55 0 0 0 -2.1.31 7 7 0 0 0 -4.59 8.72 223.91 223.91 0 0 0 18.57 43.31 204.84 204.84 0 0 0 11.93 18.77c-59.7-21.32-118.85-44.56-177-69.79l-.13-.06a6 6 0 0 0 -2.4-.48c-85.47.74-170.94 2-256.41 4.9v-1.32c-26.48-.2-52.19-14.89-65.24-37.71a74.86 74.86 0 0 1 -10.52-37.17l.05-12.26.12-28.59.48-81.91c.21-8-.07-16.08.12-23.92h-9.33c-.12 8.09.28 16 .11 23.92l.48 81.91.28 28.59.12 12.48a82.13 82.13 0 0 0 12.3 40.42c14.71 24.57 42.84 39.8 71.11 39.44v-1.32c85 2.86 170 4.14 255.05 4.88 65.33 29.47 132.05 55.2 199.6 79.06a6.83 6.83 0 0 0 7.13-11.25l-.18-.18a142.24 142.24 0 0 1 -13.74-16.63 192.82 192.82 0 0 1 -11.83-18.62 208.52 208.52 0 0 1 -14.25-31.56l31.25.06c6.72 0 13.62.15 21.25-.54a87.23 87.23 0 0 0 21.61-5.3c28-10.5 49.39-36.38 54.28-66 2.35-15.3 1.05-28.38 1.43-42.13z" fill="#c3c4c7" transform="translate(-1.72 -1.72)"/><path d="m546.86 747.58a75.42 75.42 0 0 1 16.57-34.2 74.49 74.49 0 0 1 31.18-21.57 75.52 75.52 0 0 1 18.6-4.22c6.18-.42 13.14-.29 20-.22l28.45.23-8.68-11.19-19.77.16c-6.82.06-13.53 0-21 .55a86 86 0 0 0 -21.17 5 84.55 84.55 0 0 0 -53.58 63.67 117.5 117.5 0 0 0 -1.46 17.85h9.42a102.39 102.39 0 0 1 1.44-16.06z" fill="#c3c4c7" transform="translate(-1.72 -1.72)"/></svg>
