<svg width="282" height="203" xmlns="http://www.w3.org/2000/svg" xmlns:xlink="http://www.w3.org/1999/xlink"><defs><path id="a" d="M0 203h282V0H0z"/></defs><g fill="none" fill-rule="evenodd"><path d="M218.05 91.063L247.634 91l7.396.006 3.697.004 1.85.003c.65.009 1.301.034 1.95.096 5.199.48 10.152 3.088 13.532 7.084a20.62 20.62 0 0 1 3.849 6.794c.853 2.46 1.157 5.19 1.082 7.692l-.035 14.953c-.179 5.25-2.526 10.36-6.305 13.935-3.763 3.602-8.955 5.59-14.07 5.423a.704.704 0 0 1-.683-.725.709.709 0 0 1 .684-.69c4.759-.127 9.372-2.118 12.704-5.441 3.37-3.289 5.378-7.89 5.556-12.587l.003-14.868c.063-2.464-.215-4.746-.981-6.991a18.396 18.396 0 0 0-3.452-6.065c-3.032-3.568-7.455-5.883-12.091-6.303a21.6 21.6 0 0 0-1.743-.082l-1.85.001-3.697.004-7.396.007-29.582-.064A1.055 1.055 0 0 1 217 92.123a1.053 1.053 0 0 1 1.05-1.06" fill="#C8D7E2"/><path fill="#B0B5B8" d="M173 82h23V59.036L173 51zM247.176 130c6.75 24.808 10.124 48.488-15.75 53l-9.551-26.843L218 144.225 247.176 130z"/><path d="M191 77a.999.999 0 1 1-2 0 1 1 0 0 1 2 0" fill="#FFF"/><path d="M166 20.485c0 23.55 1.414 42.233 19.3 41.494 10.24-.424 16.153-3.58 20.7-24.091 0 0-1.365-29.888-10.46-29.888S166 20.485 166 20.485" fill="#B0B5B8"/><path d="M149.085 137.029L131 135.374c3.353-25.281 14.278-39.203 34.71-61.374L183 76.368 182.886 184l-37.462-.613 3.661-46.358zM250 131.59c-12.153-26.98-18.833-40.582-45.385-57.59L183 76.368 183.114 184l47.222-.53-12.022-39.095L250 131.589z" fill="#D8DEE4"/><path d="M234 183l-32.411-14.465c-9.544 2.669-20.39-1.92-20.39-1.92-4.231.284-11.451 5.191-13.782 6.748-2.009 1.342-5.63-1.467-5.63-1.467-2.821-2.181-3.963-5.217-1.214-7.489 4.558-3.762 15.929-11.717 26.331-12.94 17.719-2.083 31.172 3.192 46.258 8.189L234 183z" fill="#B0B5B8"/><path d="M196 66.998V58c-7.673 3.438-13.64 3.702-19.609 1.719-5.968-1.982 8.525 7.444 19.609 7.279M178.682 20.067c2.666-.107 5.332-.066 7.997-.012 2.665.085 5.332.18 7.998.478.193.022.338.25.322.507-.015.23-.153.408-.322.426-2.666.3-5.333.393-7.998.478-2.665.054-5.33.097-7.997-.011-.389-.017-.694-.445-.682-.962.012-.495.313-.888.682-.904" fill="#7C848B"/><path d="M196.593 58.291c.422.522.265 1.044.319 1.566l.046 1.564c.013 1.044.057 2.087.037 3.13a64.058 64.058 0 0 1-.078 3.129c-.024 1.043-.088 2.087-.62 3.13-.092.178-.298.243-.463.143a.357.357 0 0 1-.13-.143c-.533-1.043-.597-2.087-.62-3.13a65.582 65.582 0 0 1-.079-3.13c-.02-1.042.025-2.085.038-3.129l.045-1.564c.053-.522-.103-1.044.32-1.566a.746.746 0 0 1 1.185 0" fill="#016087"/><path d="M72 183H16v-22h52.682A3.315 3.315 0 0 1 72 164.31V183z" fill="#95ADC1"/><path d="M12 146c-3.51-.02-7.327 2.37-11 6" stroke="#E1E2E2" stroke-width="1.673" stroke-linecap="round" stroke-linejoin="round"/><path d="M23.737 162.538c-.6-1.585-1.225-3.151-1.876-4.727l-.963-2.379c-.3-.81-.616-1.614-.865-2.466-.114-.386.075-.802.422-.93.265-.097.549.008.718.235.512.704.941 1.467 1.36 2.238.404.78.773 1.586 1.094 2.418.64 1.661 1.184 3.408 1.369 5.26.04.402-.219.763-.578.809-.296.036-.566-.154-.677-.443l-.004-.015z" fill="#E1E2E2"/><path d="M1.04 150.974l18.116-.061 18.115.03-.748.3c2.087-1.982 4.376-3.845 7.132-5.091.699-.29 1.385-.606 2.152-.764.379-.085.74-.224 1.132-.259l1.181-.105c.39-.063.791.015 1.19.047.395.06.806.042 1.186.176.762.249 1.557.442 2.213.893 2.802 1.582 4.44 4.257 5.686 6.836 1.266 2.63 1.953 5.415 2.587 8.177a.696.696 0 1 1-1.338.376l-.012-.04c-.878-2.626-1.706-5.277-2.985-7.664-1.2-2.396-2.8-4.652-4.954-5.863-2.13-1.304-4.8-.966-7.16.113-2.39 1.08-4.545 2.818-6.513 4.705-.209.2-.48.3-.749.3l-18.115.03-18.115-.06A1.04 1.04 0 0 1 0 152.009a1.042 1.042 0 0 1 1.04-1.035" fill="#E1E2E2"/><path d="M13.062 145l26.249.333c.386.005.695.307.689.677-.005.36-.312.652-.69.657L13.063 147c-.578.007-1.054-.434-1.062-.986-.007-.553.456-1.006 1.035-1.014h.027z" fill="#E1E2E2"/><path d="M166.553 20.555c.446 3.436.319 6.863.49 10.284.143 3.416.37 6.826.835 10.186.471 3.35 1.149 6.684 2.388 9.759 1.233 3.057 3.078 5.863 5.734 7.663 2.644 1.82 5.965 2.512 9.286 2.544 3.291.06 6.503-.957 9.136-2.868.67-.457 1.256-1.039 1.866-1.58.547-.611 1.148-1.174 1.63-1.85 1.072-1.258 1.912-2.713 2.728-4.172 1.558-2.975 2.745-6.172 3.73-9.456a.32.32 0 0 1 .395-.215.32.32 0 0 1 .227.343c-.442 3.444-1.367 6.853-2.841 10.07-1.533 3.164-3.595 6.245-6.578 8.406-2.938 2.185-6.65 3.375-10.3 3.33-3.57-.007-7.347-.724-10.46-2.829-1.547-1.032-2.881-2.364-3.958-3.844-1.07-1.487-1.893-3.112-2.55-4.774-1.31-3.334-1.977-6.809-2.437-10.262-.453-3.46-.654-6.926-.773-10.382-.072-3.456-.259-6.909.184-10.353a.638.638 0 0 1 1.268 0" fill="#23354B"/><path d="M183.496 35.383c.328 1.509.437 3.016.492 4.523.016.755.023 1.509-.026 2.262-.045.754-.098 1.509-.242 2.262-.072.376-.453.628-.851.559a.715.715 0 0 1-.589-.559c-.144-.753-.197-1.508-.242-2.262a26.322 26.322 0 0 1-.026-2.262c.055-1.507.164-3.014.492-4.523a.507.507 0 0 1 .598-.373c.204.04.354.19.394.373M174.5 40c-.828 0-1.5-.753-1.5-1.681V35.68c0-.93.672-1.681 1.5-1.681s1.5.751 1.5 1.681v2.638c0 .928-.672 1.681-1.5 1.681M191.5 40c-.828 0-1.5-.753-1.5-1.681V35.68c0-.93.672-1.681 1.5-1.681s1.5.751 1.5 1.681v2.638c0 .928-.672 1.681-1.5 1.681" fill="#23354B"/><path d="M180 52.143c1.436 2.363 5.59 2.636 7-.143" stroke="#23354B" stroke-width="1.5" stroke-linecap="round" stroke-linejoin="round"/><path d="M161.28 30.73S156.505 0 186.396 0c21.109 0 26.985 21.842 19.498 40 0 0-.884-12.064-9.829-22.82-8.945-10.755-.8 13.55-34.785 13.55" fill="#23354B"/><path d="M209.834 37l-.668 5" stroke="#7C848B" stroke-width="1.673" stroke-linecap="round" stroke-linejoin="round"/><path d="M172.726 68L183 76.245l-1.818 3.696c-1.635 3.322-5.873 4.093-8.497 1.546L166 73.827 172.726 68z" fill="#016087"/><path d="M172.726 68L183 76.245l-1.818 3.696c-1.635 3.322-5.873 4.093-8.497 1.546L166 73.827 172.726 68z" stroke="#016087"/><path d="M196.65 68L183 76.479l1.808 3.568c1.628 3.207 5.843 3.951 8.452 1.493L204 74.146 196.65 68z" fill="#016087"/><path d="M219.3 143.127c.59.376.594.95.812 1.45l.536 1.543c.341 1.034.713 2.058 1.02 3.105.33 1.038.62 2.088.902 3.143.302 1.047.564 2.107.354 3.329a.359.359 0 0 1-.416.297.344.344 0 0 1-.184-.097c-.864-.856-1.256-1.874-1.608-2.906a70.03 70.03 0 0 1-1.06-3.09c-.347-1.032-.629-2.086-.943-3.129l-.443-1.575c-.109-.537-.433-1.003-.17-1.666a.818.818 0 0 1 1.2-.404" fill="#23354B"/><path d="M232.242 159.67c-3.295-.652-6.39-1.914-9.55-2.924-3.153-1.04-6.31-2.045-9.501-2.878-6.374-1.687-12.888-2.72-19.432-2.712-6.55-.03-13.098.877-19.088 3.51-5.95 2.66-11.442 6.481-16.113 11.22l-.021.021a.312.312 0 0 1-.446-.002.332.332 0 0 1-.032-.418c3.973-5.639 9.63-9.882 15.855-12.645 3.114-1.395 6.407-2.359 9.751-2.97 3.358-.626 6.71-.82 10.09-.864 6.763-.118 13.471 1.124 19.945 2.86 3.244.875 6.428 1.918 9.592 2.992 3.152 1.11 6.344 2.07 9.35 3.58.315.158.448.55.294.874a.634.634 0 0 1-.694.355" fill="#23354B"/><path d="M179.417 161.243c-1.542.175-3.076.706-4.563 1.326-1.48.652-2.953 1.357-4.374 2.172-1.423.808-2.848 1.628-4.233 2.515-.706.426-1.405.863-2.096 1.31l-1.047.662-.52.335-.261.165-.133.082-.065.042-.033.02-.02.013-.01.008-.008.005c.009.404-1.655-1.629-.82-.95a.649.649 0 0 1 .901.037.606.606 0 0 1-.037.875c.839.679-.824-1.356-.81-.953-.009.005-.002 0-.002 0l.005-.005.013-.011.028-.026.058-.053.118-.105.236-.208.483-.406.98-.791a79.096 79.096 0 0 1 2.03-1.496c1.396-.94 2.812-1.862 4.309-2.667 1.5-.791 3.026-1.57 4.661-2.137 1.624-.573 3.346-1.043 5.17-1a.629.629 0 0 1 .623.637.627.627 0 0 1-.564.601l-.02.003zM167.126 171.64c.808-1.062 1.763-1.902 2.813-2.656 1.05-.742 2.178-1.373 3.344-1.934a20.88 20.88 0 0 1 3.646-1.365c1.251-.374 2.56-.55 3.865-.68a.864.864 0 0 1 .401.054l.057.021c1.534.6 3.205 1.1 4.85 1.503 1.66.403 3.34.7 5.026.894 1.687.207 3.382.224 5.06.175 1.682-.061 3.332-.34 4.944-.731l.038-.01c.23-.056.463-.03.664.06l14.619 6.463c2.437 1.078 4.874 2.154 7.272 3.315 2.395 1.17 4.786 2.35 7.114 3.666a.31.31 0 0 1 .118.427.32.32 0 0 1-.375.143c-2.551-.819-5.045-1.77-7.533-2.731-2.485-.972-4.93-2.027-7.378-3.082l-14.68-6.329.704.05c-1.776.454-3.585.769-5.402.852-1.811.08-3.626.012-5.409-.214a43.435 43.435 0 0 1-5.28-.99c-1.742-.446-3.42-.96-5.134-1.648l.458.078c-1.167.11-2.341.25-3.478.581a18.97 18.97 0 0 0-3.333 1.213c-2.162.99-4.12 2.408-6.075 3.738l-.044.03a.644.644 0 0 1-.886-.161.622.622 0 0 1 .014-.733" fill="#23354B"/><path d="M176 154c-11.226-.056-15.609 3.552-14.933 4.716.712 1.228 7.762-1.933 9.163-1.772" stroke="#23354B" stroke-width="1.5" stroke-linecap="round" stroke-linejoin="round"/><path d="M250.367 136.377c.747 1.629.885 3.383 1.204 5.101.28 1.724.528 3.459.744 5.197.417 3.48.733 6.99.679 10.528-.027 3.531-.354 7.096-1.239 10.57-.845 3.434-2.432 6.955-5.254 9.16a.305.305 0 0 1-.438-.06.33.33 0 0 1-.01-.375l.005-.007c1.862-2.855 3.061-5.924 3.843-9.199.743-3.277.984-6.69 1.017-10.103a92.653 92.653 0 0 0-.56-10.275 138.733 138.733 0 0 0-.656-5.129c-.213-1.715-.672-3.382-.55-5.168a.646.646 0 0 1 .677-.616c.24.017.44.17.538.376M156.506 29.045c1.44-.344 2.828-.09 4.233-.08 1.4.04 2.797.05 4.188.018 2.784-.067 5.542-.377 8.206-.978 2.655-.623 5.216-1.614 7.434-3.153 2.215-1.556 4.025-3.55 5.873-5.737a.314.314 0 0 1 .447-.04.33.33 0 0 1 .098.347c-.904 2.827-2.882 5.28-5.306 7.028-2.406 1.796-5.214 2.96-8.068 3.622-2.857.699-5.773.89-8.649.928a83.974 83.974 0 0 1-4.303-.1c-1.422-.12-2.861-.037-4.245-.594a.664.664 0 0 1 .092-1.26" fill="#23354B"/><path d="M160.031 171H74.262c-4.014 0-7.401-2.96-7.905-6.91l-7.293-57.2c-.602-4.718 3.107-8.89 7.903-8.89h85.771c4.013 0 7.4 2.96 7.903 6.909l7.295 57.2c.6 4.719-3.108 8.891-7.905 8.891" fill="#BBC9D5"/><mask id="b" fill="#fff"><use xlink:href="#a"/></mask><path fill="#95ADC1" mask="url(#b)" d="M92 184h42v-39H92z"/><path fill="#FFF" mask="url(#b)" d="M13 203v-20h268v20"/><path d="M12.356 202.163L12 182.398a.873.873 0 0 1 .854-.895h.006l.026-.001 16.756-.207 16.754-.103 33.51-.097 67.018-.095 67.019.094 67.019.255h.015a1.032 1.032 0 0 1 1.023 1.043v.006l-.2 19.765a.843.843 0 0 1-.847.837.842.842 0 0 1-.829-.837l-.2-19.765 1.038 1.049-67.02.254-67.018.094-67.019-.095-33.509-.097-16.754-.103-16.756-.206.888-.896-.356 19.765a.536.536 0 0 1-.542.526.533.533 0 0 1-.52-.526" fill="#95ADC1" mask="url(#b)"/><path d="M189.25 26.634c.723-.497 1.443-.567 2.124-.626a7.592 7.592 0 0 1 2.002.173c.642.156 1.294.319 1.891.63.6.296 1.192.682 1.621 1.258.202.273.123.644-.177.83a.716.716 0 0 1-.718.01l-.07-.04a7.164 7.164 0 0 0-1.384-.584c-.514-.138-1.03-.301-1.575-.383-.54-.087-1.082-.176-1.614-.222a7.993 7.993 0 0 0-1.423-.033l-.25.018c-.346.023-.65-.215-.675-.53a.56.56 0 0 1 .248-.501" fill="#23354B" mask="url(#b)"/><path d="M195.5 105v14" stroke="#016087" stroke-width="1.5" stroke-linecap="round" stroke-linejoin="round" mask="url(#b)"/><path d="M202.646 122h-1.292c-1.3 0-2.354-1.084-2.354-2.421V109.42c0-1.337 1.054-2.421 2.354-2.421h1.292c1.3 0 2.354 1.084 2.354 2.421v10.158c0 1.337-1.054 2.421-2.354 2.421" fill="#016087" mask="url(#b)"/><path d="M202.712 124h-10.425c-3.471 0-6.287-2.685-6.287-6h23c0 3.315-2.816 6-6.288 6M183.592 76.42c.423 1.097.265 2.194.315 3.29l.038 3.295c.014 2.194.073 4.389.05 6.583.003 2.195-.034 4.391-.08 6.585-.024 2.195-.088 4.39-.62 6.586a.303.303 0 0 1-.37.23.315.315 0 0 1-.222-.23c-.532-2.195-.594-4.39-.62-6.586-.044-2.194-.081-4.39-.077-6.585-.024-2.194.035-4.39.05-6.583l.036-3.294c.05-1.097-.107-2.194.315-3.292a.629.629 0 0 1 1.185 0" fill="#016087" mask="url(#b)"/><path d="M13 62.5h129" fill="#FFF" mask="url(#b)"/><path d="M13.396 62.198c5.35-.21 10.7-.136 16.05-.16l16.05-.019 32.1-.019 32.1.038c10.7.002 21.4.052 32.1.31.116.004.208.073.204.157-.004.08-.094.143-.203.146-10.7.26-21.4.31-32.101.311l-32.1.038-32.1-.019-16.05-.018c-5.35-.025-10.7.05-16.05-.161-.232-.01-.408-.152-.395-.32.01-.153.185-.275.395-.284" fill="#E1E2E2" mask="url(#b)"/><path d="M70 41c0 11.597-9.178 21-20.5 21S29 52.597 29 41" fill="#FFF" mask="url(#b)"/><path d="M69.93 41.386c.29 2.806-.36 5.645-1.397 8.25a21.658 21.658 0 0 1-4.59 7.013c-3.92 4.018-9.464 6.405-15.062 6.35-5.59.001-11.125-2.344-15.04-6.368-3.961-3.968-6.188-9.697-5.797-15.245a.212.212 0 0 1 .226-.2.215.215 0 0 1 .196.2c.355 5.415 2.57 10.562 6.287 14.318 3.708 3.758 8.902 5.913 14.128 5.877 5.222-.018 10.41-2.132 14.11-5.896a20.353 20.353 0 0 0 4.349-6.55c1.035-2.45 1.446-5.082 1.746-7.75a.427.427 0 0 1 .466-.383.435.435 0 0 1 .379.384" fill="#E1E2E2" mask="url(#b)"/><path d="M64 42c0 8.284-6.715 15-15 15s-15-6.716-15-15" fill="#FFF" mask="url(#b)"/><path d="M64.918 41.357c.289 2.027-.22 4.084-.979 5.966a15.626 15.626 0 0 1-3.396 5.075c-2.9 2.907-7.01 4.65-11.16 4.601-4.144-.004-8.246-1.706-11.142-4.618-2.934-2.865-4.567-7.036-4.186-11.024a.207.207 0 0 1 .227-.186c.102.007.18.089.19.186.354 3.859 1.975 7.471 4.67 10.132 2.69 2.657 6.455 4.175 10.24 4.146 3.78-.023 7.537-1.502 10.222-4.163a14.344 14.344 0 0 0 3.158-4.633c.759-1.733 1.029-3.591 1.325-5.482a.422.422 0 1 1 .832 0" fill="#E1E2E2" mask="url(#b)"/><path d="M29 41.5h38" fill="#FFF" mask="url(#b)"/><path d="M29.346 41.203c1.56-.208 3.123-.135 4.683-.158l4.684-.018c3.122-.005 6.245-.043 9.367-.02l9.368.04c3.123-.004 6.244.048 9.367.305.116.01.197.083.183.165-.01.07-.088.123-.183.131-3.123.257-6.244.309-9.367.306l-9.368.038c-3.122.025-6.245-.014-9.367-.019l-4.684-.019c-1.56-.023-3.122.05-4.683-.157-.231-.03-.382-.189-.338-.353.032-.125.17-.219.338-.241" fill="#E1E2E2" mask="url(#b)"/><path d="M42.948 45l-.896 2" fill="#FFF" mask="url(#b)"/><path d="M44 45.488c-.022.377-.221.661-.467.92-.13.125-.272.244-.456.341-.183.096-.373.19-.64.243-.183.036-.367-.052-.414-.197a.074.074 0 0 1-.004-.025c-.042-.215-.006-.391.036-.563.04-.173.124-.323.219-.467.207-.278.459-.534.888-.695.295-.11.644-.01.783.222.04.072.059.148.054.221" fill="#E1E2E2" mask="url(#b)"/><path d="M47.807 49l-.614 2" fill="#FFF" mask="url(#b)"/><path d="M47.988 49.37c.041.35-.03.636-.13.91a1.633 1.633 0 0 1-.208.379c-.089.116-.183.23-.325.317-.097.06-.212.005-.258-.12l-.007-.021a1.857 1.857 0 0 1-.06-.523c0-.165.025-.313.058-.458.076-.287.18-.557.399-.768.15-.144.359-.103.47.09a.518.518 0 0 1 .061.195" fill="#E1E2E2" mask="url(#b)"/><path d="M53.42 50l.16 2" fill="#FFF" mask="url(#b)"/><path d="M53.759 50.167c.183.269.23.554.241.841 0 .146-.01.292-.053.44-.042.15-.088.298-.194.455a.208.208 0 0 1-.324.034 1.362 1.362 0 0 1-.273-.403 1.565 1.565 0 0 1-.13-.42c-.04-.285-.047-.572.085-.877.09-.207.317-.296.506-.196a.375.375 0 0 1 .142.126" fill="#E1E2E2" mask="url(#b)"/><path d="M55.072 45l.856 2" fill="#FFF" mask="url(#b)"/><path d="M55.87 45.05c.432.17.679.427.88.708.093.143.172.294.207.465.037.172.067.345.016.558-.036.145-.216.24-.404.215a2.258 2.258 0 0 1-.675-.26 1.97 1.97 0 0 1-.453-.349c-.242-.262-.435-.545-.44-.919-.006-.255.258-.464.588-.468a.773.773 0 0 1 .282.05" fill="#E1E2E2" mask="url(#b)"/><path d="M91.05 37.403C84.823 34.548 80.789 48 92.415 48c5.454 0 8.23-4.162 7.46-7.44-.779-3.314-4.997-6.464-8.823-3.157" fill="#FFF" mask="url(#b)"/><path d="M91.05 37.403C84.823 34.548 80.789 48 92.415 48c5.454 0 8.23-4.162 7.46-7.44-.779-3.314-4.997-6.464-8.823-3.157z" stroke="#E1E2E2" stroke-linecap="round" stroke-linejoin="round" mask="url(#b)"/><path d="M90.996 37C91.104 35.194 89 32 89 32" fill="#FFF" mask="url(#b)"/><path d="M90.876 36.826c-.32-.184-.208-.337-.283-.523-.047-.18-.099-.364-.175-.55-.135-.37-.343-.735-.515-1.113l-.57-1.131c-.209-.376-.402-.754-.31-1.29l.002-.01c.023-.134.169-.226.325-.206.02.002.04.007.057.011.615.192.912.558 1.167.938.272.376.522.764.726 1.177.227.404.372.84.508 1.29.068.223.115.46.156.7.008.235.147.507-.183.751a.715.715 0 0 1-.76.04l-.145-.084z" fill="#E1E2E2" mask="url(#b)"/><path d="M91.012 35c-.23-2.855 2.919-5.502 4.211-4.919 1.495.674.8 2.574-1.801 3.224" fill="#FFF" mask="url(#b)"/><path d="M91.057 35.644c-.197-1.112.136-2.258.711-3.195.582-.946 1.376-1.766 2.521-2.254.295-.112.619-.213 1.02-.192.195.006.418.056.622.148.151.094.307.157.446.287.636.434.789 1.456.441 2.027-.669 1.172-1.846 1.536-2.887 1.665a.22.22 0 0 1-.247-.186.212.212 0 0 1 .127-.223l.01-.004c.884-.391 1.768-.98 1.98-1.664.092-.334.014-.503-.212-.661-.043-.047-.139-.07-.2-.112-.03-.003-.062-.016-.124-.012a1.415 1.415 0 0 0-.47.119c-.741.319-1.44 1-1.965 1.716-.516.74-.858 1.587-.899 2.475v.013a.436.436 0 0 1-.46.408.432.432 0 0 1-.414-.355" fill="#E1E2E2" mask="url(#b)"/><path d="M34.03 75h-3.061C29.88 75 29 74.075 29 72.934V62h7v10.934c0 1.14-.882 2.066-1.97 2.066" fill="#FFF" mask="url(#b)"/><path d="M34.03 75h-3.061C29.88 75 29 74.075 29 72.934V62h7v10.934c0 1.14-.882 2.066-1.97 2.066z" stroke="#E1E2E2" stroke-linecap="round" stroke-linejoin="round" mask="url(#b)"/><path d="M122.03 75h-3.06c-1.089 0-1.97-.925-1.97-2.066V62h7v10.934c0 1.14-.881 2.066-1.97 2.066" fill="#FFF" mask="url(#b)"/><path d="M122.03 75h-3.06c-1.089 0-1.97-.925-1.97-2.066V62h7v10.934c0 1.14-.881 2.066-1.97 2.066z" stroke="#E1E2E2" stroke-linecap="round" stroke-linejoin="round" mask="url(#b)"/><path fill="#FFF" mask="url(#b)" d="M72 62h37v-6H72z"/><path stroke="#E1E2E2" stroke-linecap="round" stroke-linejoin="round" mask="url(#b)" d="M72 62h37v-6H72z"/><path fill="#FFF" mask="url(#b)" d="M77 55h32v-6H77z"/><path stroke="#E1E2E2" stroke-linecap="round" stroke-linejoin="round" mask="url(#b)" d="M77 55h32v-6H77zM80.5 56v6"/></g></svg>