<?xml version="1.0" encoding="UTF-8"?>
<svg width="282px" height="203px" viewBox="0 0 282 203" version="1.1" xmlns="http://www.w3.org/2000/svg" xmlns:xlink="http://www.w3.org/1999/xlink">
    <!-- Generator: Sketch 54.1 (76490) - https://sketchapp.com -->
    <title>Group 109</title>
    <desc>Created with Sketch.</desc>
    <defs>
        <polygon id="path-1" points="0 203 282 203 282 0 0 0"></polygon>
    </defs>
    <g id="Page-1" stroke="none" stroke-width="1" fill="none" fill-rule="evenodd">
        <g id="Hire---illustrations" transform="translate(-456.000000, -112.000000)">
            <g id="SEO" transform="translate(416.000000, 86.000000)">
                <g id="Group-109" transform="translate(40.000000, 26.000000)">
                    <path d="M218.050796,91.0634293 L247.632829,91 L255.028652,91.0063429 L258.725934,91.0101487 L260.575834,91.0126859 C261.226445,91.021566 261.877056,91.0469377 262.52515,91.1090985 C267.725003,91.5886243 272.678204,94.1968391 276.058361,98.1928879 C277.754731,100.180764 279.071054,102.501009 279.906655,104.98744 C280.759874,107.44723 281.064415,110.177229 280.988909,112.678882 L280.953673,127.631716 C280.774975,132.882398 278.427994,137.992266 274.648913,141.567144 C270.886192,145.168662 265.693889,147.156538 260.579609,146.990353 C260.190753,146.980204 259.884953,146.654177 259.896279,146.264721 C259.906346,145.887951 260.210888,145.587296 260.579609,145.575878 C265.339011,145.447751 269.952434,143.457338 273.283511,140.133641 C276.6536,136.845463 278.662063,132.244298 278.839502,127.546721 L278.843277,112.678882 C278.906199,110.215286 278.628085,107.933098 277.861698,105.6877 C277.112929,103.468941 275.931259,101.398607 274.409811,99.6225854 C271.37824,96.0553189 266.954841,93.7401478 262.318766,93.3202455 C261.738628,93.2656963 261.158489,93.2453989 260.575834,93.2377874 L258.725934,93.2390559 L255.028652,93.2428617 L247.632829,93.2504732 L218.050796,93.1857753 C217.46814,93.1857753 216.998744,92.7087866 217.000003,92.1226994 C217.001261,91.5366123 217.46814,91.0621608 218.050796,91.0634293" id="Fill-1" fill="#C8D7E2"></path>
                    <polygon id="Fill-3" fill="#B0B5B8" points="173 82 196 82 196 59.0364724 173 51"></polygon>
                    <path d="M247.175689,130 C253.925679,154.808112 257.300052,178.4883 231.426543,183 L221.874741,156.156881 L218,144.225081 L247.175689,130 Z" id="Fill-5" fill="#B0B5B8"></path>
                    <path d="M191,77.0005534 C191,77.55285 190.553097,78 190.001106,78 C189.448009,78 189,77.55285 189,77.0005534 C189,76.4482568 189.448009,76 190.001106,76 C190.553097,76 191,76.4482568 191,77.0005534" id="Fill-7" fill="#FFFFFF"></path>
                    <path d="M166,20.4854545 C166,44.03547 167.413881,62.7176334 185.299978,61.9788192 C195.539294,61.5551989 201.452687,58.3982184 206,37.8879313 C206,37.8879313 204.635177,8 195.539294,8 C186.444668,8 166,20.4854545 166,20.4854545" id="Fill-9" fill="#B0B5B8"></path>
                    <path d="M149.085201,137.028653 L131,135.374394 C134.35313,110.092921 145.277923,96.1713655 165.709558,74 L183,76.368282 L182.886463,184 L145.42426,183.387078 L149.085201,137.028653 Z" id="Fill-11" fill="#D8DEE4"></path>
                    <path d="M250,131.58944 C237.846851,104.61074 231.166576,91.0076515 204.615092,74 L183,76.368282 L183.114332,184 L230.336096,183.469222 L218.313612,144.374876 L250,131.58944 Z" id="Fill-13" fill="#D8DEE4"></path>
                    <path d="M234,183 L201.588661,168.535002 C192.04542,171.203581 181.199343,166.615322 181.199343,166.615322 C176.967953,166.898656 169.747705,171.806446 167.417174,173.362909 C165.408269,174.704687 161.787466,171.896313 161.787466,171.896313 C158.965702,169.714519 157.823679,166.678979 160.572574,164.407316 C165.130615,160.645343 176.501847,152.689532 186.904432,151.466329 C204.622748,149.384388 218.075753,154.659138 233.162014,159.655548 L234,183 Z" id="Fill-15" fill="#B0B5B8"></path>
                    <path d="M196,66.9978568 L196,58 C188.327156,61.4384989 182.359105,61.7015112 176.391054,59.7186048 C170.423002,57.7369877 184.916294,67.1628841 196,66.9978568" id="Fill-17" fill="#7C848B"></path>
                    <path d="M178.681775,20.066568 C181.348061,19.9595466 184.014346,20.0013519 186.67937,20.0548625 C189.344393,20.1401452 192.010679,20.2354611 194.676964,20.5331142 C194.870027,20.554853 195.015139,20.7822733 194.998735,21.0397935 C194.983593,21.2705583 194.846052,21.4478124 194.676964,21.4662067 C192.010679,21.7655321 189.344393,21.8591758 186.67937,21.9444584 C184.014346,21.9979691 181.348061,22.0414465 178.681775,21.9327529 C178.293126,21.9160308 177.987759,21.4879454 178.000377,20.9712329 C178.011734,20.4762591 178.313316,20.0832901 178.681775,20.066568" id="Fill-19" fill="#7C848B"></path>
                    <path d="M196.592819,58.2914399 C197.014942,58.8128136 196.858425,59.335481 196.911783,59.8568547 L196.958027,61.4209757 C196.97107,62.4650169 197.014942,63.5077642 196.994785,64.5505116 C196.999528,65.5945527 196.96277,66.6373001 196.916526,67.6800475 C196.892811,68.7227949 196.828781,69.766836 196.296384,70.8095833 C196.205082,70.9881183 195.998764,71.0528048 195.833946,70.9531875 C195.778216,70.9195505 195.733158,70.8678013 195.703514,70.8095833 C195.171117,69.766836 195.107087,68.7227949 195.083372,67.6800475 C195.037129,66.6373001 195.001556,65.5945527 195.005114,64.5505116 C194.984956,63.5077642 195.030014,62.4650169 195.043057,61.4209757 L195.088115,59.8568547 C195.141474,59.335481 194.984956,58.8128136 195.407079,58.2914399 C195.6964,57.9343701 196.196782,57.900733 196.524046,58.2164035 C196.547761,58.2396906 196.571476,58.2655652 196.592819,58.2914399" id="Fill-21" fill="#016087"></path>
                    <path d="M72,183 L16,183 L16,161 L68.6815372,161 C70.5138404,161 72,162.483258 72,164.310443 L72,183 Z" id="Fill-23" fill="#95ADC1"></path>
                    <path d="M12,146.00013 C8.49018495,145.97973 4.6733235,148.370244 1,152" id="Stroke-25" stroke="#E1E2E2" stroke-width="1.673" stroke-linecap="round" stroke-linejoin="round"></path>
                    <path d="M23.7366975,162.538423 C23.1373074,160.952784 22.5123123,159.386625 21.8605482,157.811376 L20.8980324,155.432268 C20.5989193,154.621917 20.2823482,153.81806 20.0332812,152.966152 C19.9192225,152.580456 20.1077685,152.163593 20.4546001,152.036327 C20.7199612,151.938929 21.0039441,152.044118 21.1727044,152.27138 C21.6848047,152.975243 22.1142706,153.737544 22.5332618,154.508936 C22.9371227,155.289418 23.3060677,156.094574 23.6272943,156.927002 C24.2674197,158.587962 24.8109443,160.334632 24.9959987,162.186491 C25.0355701,162.589069 24.7771922,162.950091 24.4175582,162.995544 C24.1219366,163.031905 23.8519201,162.842304 23.741353,162.552708 L23.7366975,162.538423 Z" id="Fill-27" fill="#E1E2E2"></path>
                    <path d="M1.04086184,150.973714 L19.1559278,150.912914 L37.2709938,150.942693 L36.5234275,151.24297 C38.6101234,149.261391 40.8989991,147.397689 43.6546357,146.151912 C44.3535291,145.861562 45.0399422,145.546395 45.8074769,145.387571 C46.1856281,145.303196 46.546307,145.164225 46.9394345,145.129482 L48.120065,145.024013 C48.5094485,144.960731 48.9113121,145.038902 49.3106798,145.071164 C49.7050553,145.130723 50.1156551,145.113351 50.4963024,145.247359 C51.257597,145.495522 52.0525881,145.689089 52.7090487,146.139504 C55.5108622,147.721541 57.1495175,150.396735 58.3950453,152.976387 C59.6605414,155.606911 60.3482026,158.391297 60.9821987,161.153348 C61.0683123,161.526833 60.8336839,161.897836 60.4580287,161.982211 C60.107334,162.062864 59.7578873,161.861852 59.6443171,161.529314 L59.6318369,161.489608 C58.7544761,158.862806 57.9257883,156.212428 56.6465639,153.825103 C55.447213,151.429092 53.8472464,149.173293 51.6931573,147.962259 C49.5627806,146.658164 46.8932576,146.995665 44.5332445,148.075173 C42.1432789,149.155922 39.9879417,150.893061 38.0198081,152.780338 C37.8113881,152.980109 37.5393189,153.079374 37.2709938,153.080615 L19.1559278,153.110394 L1.04086184,153.049595 C0.464274832,153.048354 -0.00248608326,152.581808 9.96440898e-06,152.008552 C0.00250601208,151.437778 0.468018903,150.974954 1.04086184,150.973714" id="Fill-29" fill="#E1E2E2"></path>
                    <path d="M13.062407,145 L39.3109039,145.333319 C39.6967454,145.338098 40.0061702,145.640355 39.9999066,146.009514 C39.9948956,146.370311 39.6879762,146.661816 39.3109039,146.666595 L13.062407,146.999914 C12.4836448,147.007082 12.0076065,146.566241 12.0000901,146.014293 C11.9925737,145.461151 12.4560846,145.008363 13.0348469,145 L13.062407,145 Z" id="Fill-31" fill="#E1E2E2"></path>
                    <path d="M166.553441,20.555391 C166.99864,23.9906524 166.871803,27.4183582 167.043033,30.8385085 C167.186359,34.254881 167.41213,37.6649572 167.877623,41.024663 C168.349457,44.375554 169.026769,47.7088153 170.265969,50.7839284 C171.498828,53.8414118 173.344311,56.6470431 176.000284,58.4465257 C178.643573,60.2674158 181.965443,60.9587495 185.286043,60.9914903 C188.577472,61.0506755 191.788992,60.0344527 194.422135,58.1228959 C195.091836,57.6657845 195.677824,57.0840064 196.287912,56.5437838 C196.83458,55.9317834 197.435789,55.3688942 197.917771,54.6926715 C198.989546,53.4346708 199.830478,51.9802254 200.646042,50.520743 C202.203604,47.5463708 203.390801,44.3491095 204.376327,41.0649593 C204.425793,40.8974777 204.602097,40.801774 204.770791,40.8496259 C204.922996,40.8937 205.015587,41.0435519 204.99783,41.1934039 C204.556436,44.6374801 203.630523,48.046297 202.156674,51.2624472 C200.624479,54.4269677 198.562105,57.508377 195.578891,59.6692672 C192.641339,61.8540834 188.928811,63.0440842 185.278433,62.9987508 C181.709231,62.9924545 177.932016,62.2746763 174.819429,60.1704527 C173.272013,59.1378595 171.937685,57.8055624 170.860836,56.3259318 C169.791598,54.8387457 168.968423,53.2143002 168.310138,51.552077 C167.001177,48.2175564 166.334013,44.7432579 165.873593,41.2903669 C165.420784,37.8299203 165.220381,34.3644366 165.101154,30.9077678 C165.028857,27.4523582 164.842406,23.9994672 165.285068,20.555391 C165.329461,20.2078352 165.649091,19.9610202 165.999162,20.0050943 C166.294693,20.0441314 166.516658,20.2758352 166.553441,20.555391" id="Fill-33" fill="#23354B"></path>
                    <path d="M183.496148,35.3831098 C183.824267,36.8916038 183.932759,38.398846 183.988327,39.9060882 C184.004204,40.6609612 184.010819,41.4145823 183.961866,42.1682034 C183.916882,42.9218245 183.863959,43.6766974 183.719746,44.4303185 C183.6483,44.8058772 183.267258,45.0575015 182.869017,44.9886491 C182.562067,44.9360709 182.333177,44.7057282 182.280254,44.4303185 C182.136041,43.6766974 182.083118,42.9218245 182.038134,42.1682034 C181.989181,41.4145823 181.995796,40.6609612 182.011673,39.9060882 C182.067241,38.398846 182.175733,36.8916038 182.503852,35.3831098 C182.560743,35.1239743 182.828002,34.9562247 183.101876,35.0100548 C183.305627,35.0501144 183.456456,35.2003379 183.496148,35.3831098" id="Fill-35" fill="#23354B"></path>
                    <path d="M174.5,40 L174.5,40 C173.671538,40 173,39.2472516 173,38.3186031 L173,35.6813969 C173,34.7514551 173.671538,34 174.5,34 C175.328462,34 176,34.7514551 176,35.6813969 L176,38.3186031 C176,39.2472516 175.328462,40 174.5,40" id="Fill-37" fill="#23354B"></path>
                    <path d="M191.5,40 L191.5,40 C190.671538,40 190,39.2472516 190,38.3186031 L190,35.6813969 C190,34.7514551 190.671538,34 191.5,34 C192.328462,34 193,34.7514551 193,35.6813969 L193,38.3186031 C193,39.2472516 192.328462,40 191.5,40" id="Fill-39" fill="#23354B"></path>
                    <path d="M180,52.1430905 C181.436166,54.5056744 185.590041,54.7791363 187,52" id="Stroke-41" stroke="#23354B" stroke-width="1.5" stroke-linecap="round" stroke-linejoin="round"></path>
                    <path d="M161.279872,30.7298995 C161.279872,30.7298995 156.505443,0 186.396151,0 C207.504688,0 213.38052,21.8417085 205.894265,40 C205.894265,40 205.010111,27.9359296 196.065003,17.1809045 C187.119894,6.42462312 195.264212,30.7298995 161.279872,30.7298995" id="Fill-43" fill="#23354B"></path>
                    <path d="M209.834,37 L209.166,42" id="Stroke-45" stroke="#7C848B" stroke-width="1.673" stroke-linecap="round" stroke-linejoin="round"></path>
                    <path d="M172.726324,68 L183,76.2447168 L181.181672,79.9408467 C179.546914,83.2629788 175.308697,84.0341881 172.685393,81.4871341 L166,73.8279173 L172.726324,68 Z" id="Fill-47" fill="#016087"></path>
                    <path d="M172.726324,68 L183,76.2447168 L181.181672,79.9408467 C179.546914,83.2629788 175.308697,84.0341881 172.685393,81.4871341 L166,73.8279173 L172.726324,68 Z" id="Stroke-49" stroke="#016087"></path>
                    <path d="M196.650062,68 L183,76.4789048 L184.808494,80.0474632 C186.435646,83.2538136 190.650943,83.9981449 193.26006,81.53986 L204,74.1463347 L196.650062,68 Z" id="Fill-51" fill="#016087"></path>
                    <path d="M219.299327,143.127025 C219.890416,143.502512 219.894197,144.076172 220.112232,144.576822 L220.647868,146.12049 C220.989414,147.154382 221.361208,148.177845 221.667466,149.224775 C221.99893,150.262579 222.287543,151.313421 222.569854,152.368174 C222.872331,153.415105 223.134477,154.475073 222.924004,155.696709 C222.888715,155.89749 222.702188,156.030475 222.508099,155.993969 C222.43626,155.980932 222.373244,155.947033 222.324092,155.89749 C221.459513,155.040911 221.067554,154.022663 220.715925,152.991378 C220.344131,151.967916 219.979899,150.941846 219.655997,149.901434 C219.309409,148.868845 219.027098,147.815396 218.713279,146.772377 L218.269646,145.197418 C218.161259,144.660263 217.837357,144.193512 218.100764,143.531195 C218.274688,143.094431 218.75739,142.884523 219.179596,143.064444 C219.221187,143.081393 219.264038,143.103557 219.299327,143.127025" id="Fill-53" fill="#23354B"></path>
                    <path d="M232.242453,159.669092 C228.94655,159.018157 225.852695,157.756482 222.691911,156.746365 C219.538705,155.705127 216.38171,154.701493 213.190619,153.867724 C206.817277,152.180737 200.302503,151.147279 193.758683,151.156356 C187.209813,151.126532 180.660942,152.032915 174.671491,154.666482 C168.721187,157.325983 163.229279,161.147313 158.558189,165.8854 L158.536721,165.907443 C158.412967,166.031925 158.213445,166.030629 158.090954,165.90485 C157.98109,165.790742 157.970988,165.613096 158.059384,165.487318 C162.032146,159.848035 167.688218,155.605282 173.913813,152.842047 C177.027872,151.446814 180.32125,150.483377 183.665139,149.872638 C187.022919,149.246339 190.375647,149.051837 193.754895,149.007749 C200.518441,148.889751 207.226424,150.131975 213.699527,151.868236 C216.943655,152.743499 220.128431,153.786033 223.29174,154.859688 C226.443684,155.970947 229.636037,156.929197 232.641497,158.439835 C232.957196,158.598031 233.08979,158.98963 232.935729,159.313801 C232.806923,159.584808 232.517743,159.723553 232.242453,159.669092" id="Fill-55" fill="#23354B"></path>
                    <path d="M179.416815,161.242887 C177.874542,161.417741 176.341198,161.948506 174.853778,162.568557 C173.374012,163.220851 171.900624,163.92647 170.479538,164.741218 C169.057177,165.548525 167.632264,166.369473 166.246897,167.256147 C165.541457,167.681502 164.842395,168.119259 164.150987,168.566936 L163.10367,169.227911 L162.584476,169.562739 L162.322965,169.727672 L162.190297,169.809519 L162.125238,169.851683 L162.092071,169.872764 L162.072936,169.885165 L162.062731,169.892606 L162.053801,169.897566 C162.062731,170.30184 160.39927,168.269311 161.234827,168.948888 C161.493786,168.715748 161.898171,168.73311 162.135443,168.98485 C162.375268,169.236591 162.357408,169.629704 162.098449,169.860363 C162.936558,170.5387 161.274373,168.50369 161.287129,168.906724 C161.279475,168.911684 161.285854,168.906724 161.285854,168.906724 L161.290956,168.901764 L161.303713,168.890603 L161.331777,168.86456 L161.390458,168.812476 L161.507818,168.707067 L161.743816,168.49873 L162.227291,168.093216 L163.206998,167.302031 C163.875444,166.793588 164.55282,166.293827 165.237849,165.806466 C166.633422,164.865228 168.049405,163.943831 169.545755,163.139005 C171.045931,162.347819 172.571621,161.569034 174.207018,161.002307 C175.830934,160.429379 177.553075,159.95938 179.377269,160.002784 C179.729352,160.011465 180.008721,160.295448 179.999792,160.638957 C179.992138,160.952703 179.747211,161.205684 179.43595,161.240407 L179.416815,161.242887 Z" id="Fill-57" fill="#23354B"></path>
                    <path d="M167.126408,171.639484 C167.934327,170.577695 168.88914,169.737995 169.938929,168.984387 C170.988717,168.242008 172.117018,167.610674 173.283308,167.050458 C174.447066,166.485252 175.670342,166.027348 176.929074,165.685479 C178.180209,165.31117 179.489595,165.135245 180.793916,165.004237 C180.934479,164.990512 181.072509,165.010475 181.195343,165.059135 L181.252328,165.080346 C182.785854,165.67924 184.457411,166.180814 186.102374,166.582572 C187.761268,166.985578 189.441689,167.283777 191.128441,167.47717 C192.815194,167.684288 194.509544,167.700508 196.187433,167.651848 C197.870386,167.590711 199.520415,167.312474 201.132454,166.920698 L201.170444,166.910716 C201.39965,166.85457 201.632655,166.880772 201.834001,166.970606 L216.452524,173.433671 C218.89021,174.51168 221.326631,175.588442 223.725061,176.748799 C226.119693,177.919138 228.510525,179.099458 230.839307,180.41453 C230.992533,180.500621 231.045719,180.692766 230.957076,180.84249 C230.882363,180.973498 230.724071,181.029644 230.582242,180.984727 C228.030586,180.166238 225.53718,179.214246 223.04884,178.25352 C220.5643,177.281565 218.119015,176.227262 215.671198,175.171711 L200.991891,168.843397 L201.694705,168.892057 C199.919309,169.347467 198.109723,169.661886 196.292538,169.745482 C194.481685,169.824086 192.667033,169.756711 190.884039,169.530878 C189.099779,169.310036 187.335781,168.978149 185.60344,168.541455 C183.862235,168.09478 182.183081,167.580729 180.469735,166.893249 L180.928147,166.970606 C179.76059,167.080403 178.586701,167.220145 177.449536,167.552032 C176.308572,167.850231 175.189136,168.255733 174.116554,168.764792 C171.954927,169.754215 169.99718,171.172846 168.041965,172.50289 L167.997644,172.532834 C167.70892,172.728723 167.311292,172.656356 167.112478,172.371882 C166.952921,172.144801 166.968117,171.849097 167.126408,171.639484" id="Fill-59" fill="#23354B"></path>
                    <path d="M176,154.00066 C164.774443,153.944009 160.391203,157.552104 161.067225,158.716135 C161.779165,159.943562 168.829292,156.783276 170.230082,156.943786" id="Stroke-61" stroke="#23354B" stroke-width="1.5" stroke-linecap="round" stroke-linejoin="round"></path>
                    <path d="M250.366847,136.377125 C251.11355,138.005703 251.252011,139.760439 251.570967,141.47822 C251.851599,143.202372 252.098851,144.936719 252.315197,146.674888 C252.731818,150.155051 253.048301,153.665797 252.993905,157.203304 C252.966707,160.734439 252.640334,164.298706 251.75517,167.772497 C250.909567,171.206784 249.323442,174.727724 246.501054,176.933569 C246.363829,177.041886 246.1685,177.015125 246.063417,176.872402 C245.980588,176.758987 245.980588,176.608618 246.053527,176.497752 L246.058472,176.491381 C247.920284,173.635634 249.119458,170.567076 249.900776,167.292079 C250.64377,164.014533 250.884841,160.60191 250.91822,157.189286 C250.920693,153.771565 250.737726,150.336004 250.358193,146.91446 C250.171518,145.203051 249.952699,143.492916 249.701738,141.78533 C249.489101,140.070098 249.030447,138.40329 249.152837,136.616696 C249.17509,136.253516 249.477975,135.979538 249.829073,136.001201 C250.068908,136.017767 250.269183,136.170685 250.366847,136.377125" id="Fill-63" fill="#23354B"></path>
                    <path d="M156.506225,29.0451936 C157.945122,28.7011303 159.334057,28.9541181 160.739229,28.9655025 C162.139405,29.0047156 163.535835,29.0148351 164.927268,28.9832116 C167.711383,28.9161699 170.469268,28.6062599 173.133475,28.0054141 C175.78769,27.3817994 178.349476,26.3913524 180.566526,24.8519222 C182.782327,23.2960477 184.592189,21.3012395 186.439522,19.1154256 C186.551936,18.9788122 186.753032,18.9611031 186.88668,19.0749475 C186.987852,19.1609634 187.022825,19.3013716 186.985354,19.4215407 C186.081047,22.2486785 184.102564,24.7026594 181.679422,26.4495396 C179.272518,28.2457524 176.464671,29.4107609 173.610609,30.0723238 C170.75405,30.7705699 167.837536,30.9615756 164.962241,30.9995238 C163.523344,31.0045835 162.089444,30.9691653 160.65929,30.9008586 C159.236631,30.7806894 157.797735,30.8629104 156.413796,30.3063374 C156.076554,30.1722539 155.91293,29.7864477 156.046577,29.4461792 C156.126516,29.2387292 156.307627,29.0945262 156.506225,29.0451936" id="Fill-65" fill="#23354B"></path>
                    <path d="M160.030978,171 L74.2620685,171 C70.2476867,171 66.8607098,168.039492 66.3570184,164.090061 L59.0642247,106.890287 C58.4620674,102.172251 62.1709523,98 66.96675,98 L152.738184,98 C156.751304,98 160.138281,100.960508 160.64071,104.908687 L167.936028,162.108461 C168.536923,166.827749 164.828038,171 160.030978,171" id="Fill-67" fill="#BBC9D5"></path>
                    <mask id="mask-2" fill="white">
                        <use xlink:href="#path-1"></use>
                    </mask>
                    <g id="Clip-70"></g>
                    <polygon id="Fill-69" fill="#95ADC1" mask="url(#mask-2)" points="92 184 134 184 134 145 92 145"></polygon>
                    <polyline id="Fill-71" fill="#FFFFFF" mask="url(#mask-2)" points="13 203 13 183 281 183 281 203"></polyline>
                    <path d="M12.3559475,202.163174 L12.0001934,182.398011 C11.9901367,181.911691 12.3735467,181.510446 12.8537519,181.502827 L12.8600373,181.502827 L12.8864361,181.501557 L29.6420791,181.294585 L46.3964651,181.191735 L79.9052371,181.095232 L146.924038,181 L213.942839,181.093963 L280.96164,181.349185 L280.976725,181.349185 C281.543669,181.350455 282.002504,181.817729 281.99999,182.391662 L281.99999,182.398011 L281.800114,202.163174 C281.795085,202.629178 281.415447,203.005028 280.952841,202.999949 C280.49652,202.99487 280.129452,202.621559 280.124424,202.163174 L279.924548,182.398011 L280.96164,183.446837 L213.942839,183.70079 L146.924038,183.794753 L79.9052371,183.69952 L46.3964651,183.603018 L29.6420791,183.500167 L12.8864361,183.294465 L13.7739358,182.398011 L13.4181817,202.163174 C13.4118962,202.457759 13.1692795,202.693936 12.8763794,202.688857 C12.5910218,202.683778 12.3609759,202.450141 12.3559475,202.163174" id="Fill-72" fill="#95ADC1" mask="url(#mask-2)"></path>
                    <path d="M189.249776,26.6338627 C189.972763,26.1368887 190.69314,26.0669091 191.374366,26.0076043 C192.058202,25.9779519 192.728988,26.0348845 193.376283,26.1807743 C194.018358,26.3373389 194.669569,26.4998339 195.267273,26.8105909 C195.866282,27.1071148 196.458766,27.4925958 196.888121,28.0690382 C197.090401,28.3418402 197.010794,28.713088 196.710637,28.8981189 C196.487476,29.0333338 196.206895,29.0309616 195.99287,28.9087938 L195.923703,28.8696526 C195.517839,28.6359918 195.041502,28.4450305 194.539066,28.2849076 C194.024883,28.1473205 193.508091,27.9836393 192.963893,27.9017988 C192.424916,27.8152138 191.882023,27.7262566 191.34957,27.6799989 C190.826253,27.6147637 190.288581,27.6242524 189.927087,27.6467882 L189.677826,27.6645797 C189.330688,27.6883016 189.026616,27.4498964 189.00182,27.134395 C188.984855,26.9339449 189.087952,26.7477279 189.249776,26.6338627" id="Fill-73" fill="#23354B" mask="url(#mask-2)"></path>
                    <path d="M195.5,105 L195.5,119" id="Stroke-74" stroke="#016087" stroke-width="1.5" stroke-linecap="round" stroke-linejoin="round" mask="url(#mask-2)"></path>
                    <path d="M202.645813,122 L201.354187,122 C200.054167,122 199,120.915796 199,119.578735 L199,109.421265 C199,108.084204 200.054167,107 201.354187,107 L202.645813,107 C203.945833,107 205,108.084204 205,109.421265 L205,119.578735 C205,120.915796 203.945833,122 202.645813,122" id="Fill-75" fill="#016087" mask="url(#mask-2)"></path>
                    <path d="M202.711851,124 L192.286864,124 C188.815723,124 186,121.315209 186,118 L209,118 C209,121.315209 206.184277,124 202.711851,124" id="Fill-76" fill="#016087" mask="url(#mask-2)"></path>
                    <path d="M183.591707,76.41913 C184.014608,77.5167158 183.857057,78.6143017 183.90681,79.710646 L183.944717,83.0046452 C183.958932,85.1985753 184.018162,87.3937471 183.99447,89.5876772 C183.998024,91.7828489 183.961301,93.9792623 183.915102,96.1731924 C183.89141,98.3683642 183.827442,100.563536 183.295557,102.758708 C183.254096,102.93005 183.088253,103.034346 182.924778,102.989648 C182.812241,102.959849 182.730504,102.86797 182.703258,102.758708 C182.171374,100.563536 182.10859,98.3683642 182.083713,96.1731924 C182.038699,93.9792623 182.001976,91.7828489 182.00553,89.5876772 C181.981838,87.3937471 182.041068,85.1985753 182.055283,83.0046452 L182.092006,79.710646 C182.142943,78.6143017 181.985392,77.5167158 182.407109,76.41913 C182.538599,76.0764448 182.911747,75.9100686 183.238696,76.0491293 C183.405725,76.1199012 183.528923,76.2564787 183.591707,76.41913" id="Fill-77" fill="#016087" mask="url(#mask-2)"></path>
                    <path d="M13,62.5 L142,62.5" id="Fill-78" fill="#FFFFFF" mask="url(#mask-2)"></path>
                    <path d="M13.3959469,62.1983696 C18.7458688,61.9873188 24.0957908,62.0615942 29.4457127,62.0371377 L45.4967335,62.0190217 L77.5962651,62 L109.695797,62.0380435 C120.396896,62.0398551 131.09674,62.0896739 141.796583,62.3487319 C141.91204,62.3523551 142.003653,62.4211957 141.999888,62.5054348 C141.996123,62.5851449 141.905765,62.6476449 141.796583,62.6512681 C131.09674,62.9103261 120.396896,62.9601449 109.695797,62.9619565 L77.5962651,63 L45.4967335,62.9809783 L29.4457127,62.9628623 C24.0957908,62.9384058 18.7458688,63.0126812 13.3959469,62.8016304 C13.1637781,62.7925725 12.9880828,62.6503623 13.0006325,62.4827899 C13.0119271,62.3288043 13.1863675,62.2074275 13.3959469,62.1983696" id="Fill-79" fill="#E1E2E2" mask="url(#mask-2)"></path>
                    <path d="M70,41 C70,52.5973612 60.8222099,62 49.499371,62 C38.1777901,62 29,52.5973612 29,41" id="Fill-80" fill="#FFFFFF" mask="url(#mask-2)"></path>
                    <path d="M69.9308113,41.3859071 C70.2206884,44.1916277 69.5700473,47.0307039 68.5333254,49.6362908 C67.477616,52.2482923 65.9054443,54.6447651 63.9433943,56.648668 C60.0230919,60.666737 54.4787184,63.0542295 48.8811798,62.9990644 C43.2912361,63.0003473 37.7557235,60.6551908 33.8404844,56.6307073 C29.8796752,52.6626717 27.6530649,46.9344858 28.0442091,41.3859071 C28.0518041,41.2665966 28.1530712,41.178076 28.2695284,41.1857734 C28.3758588,41.1934709 28.4581383,41.2807086 28.4657334,41.3859071 C28.821434,46.8010633 31.0353859,51.9480917 34.7531541,55.7044474 C38.4607957,59.4620861 43.6545318,61.6173721 48.8811798,61.5814507 C54.1027644,61.56349 59.2901713,59.449257 62.9914836,55.6852038 C64.8434056,53.8172892 66.3320319,51.5786141 67.3396395,49.1346737 C68.3750956,46.6843187 68.7864932,44.0530736 69.0864969,41.3859071 C69.1118137,41.1485691 69.3206771,40.9779423 69.5523256,41.0023175 C69.7535939,41.024127 69.9080262,41.1896221 69.9308113,41.3859071" id="Fill-81" fill="#E1E2E2" mask="url(#mask-2)"></path>
                    <path d="M64,42 C64,50.2841923 57.2847469,57 49,57 C40.7152531,57 34,50.2841923 34,42" id="Fill-82" fill="#FFFFFF" mask="url(#mask-2)"></path>
                    <path d="M64.9180935,41.3574962 C65.2065255,43.383569 64.6983359,45.4405272 63.939173,47.3232925 C63.1587835,49.2122348 61.9963153,50.9479863 60.542918,52.3983579 C57.6423664,55.3052784 53.5331475,57.0472069 49.3827241,56.9990259 C45.2385438,56.9953196 41.1368167,55.2929243 38.2412596,52.3810622 C35.3069952,49.5161457 33.6737961,45.3454006 34.0546262,41.3574962 C34.0658638,41.242603 34.1670022,41.1598305 34.2818756,41.1709492 C34.3842627,41.1783617 34.4616773,41.2598987 34.4716663,41.3574962 C34.8262753,45.2156825 36.4469881,48.8280222 39.1415169,51.489096 C41.8322999,54.1464635 45.5968987,55.6635473 49.3827241,55.6351329 C53.1623065,55.6116601 56.9194136,54.132874 59.6039534,51.4718002 C60.9487205,50.1511466 62.0300282,48.5698214 62.7617213,46.8390116 C63.5208842,45.105731 63.7905868,43.2476739 64.0865105,41.3574962 C64.1177261,41.1289453 64.3312407,40.9720481 64.5609873,41.0041688 C64.7482808,41.028877 64.8918725,41.1808325 64.9180935,41.3574962" id="Fill-83" fill="#E1E2E2" mask="url(#mask-2)"></path>
                    <path d="M29,41.5 L67,41.5" id="Fill-84" fill="#FFFFFF" mask="url(#mask-2)"></path>
                    <path d="M29.3458818,41.2028586 C30.9065727,40.9953934 32.4685121,41.0684069 34.029203,41.0452563 L38.7125242,41.0274481 C41.8351545,41.0221056 44.9577848,40.9838181 48.0804151,41.0078591 L57.448306,41.0461467 C60.5709363,41.0434754 63.692318,41.0951191 66.8149484,41.3515569 C66.9310638,41.3613514 67.0122197,41.4352553 66.9984856,41.5171729 C66.9872486,41.5875152 66.9098384,41.6400493 66.8149484,41.648063 C63.692318,41.9053911 60.5709363,41.9570348 57.448306,41.9543636 L48.0804151,41.9917608 C44.9577848,42.0166922 41.8351545,41.9775142 38.7125242,41.9730622 L34.029203,41.9543636 C32.4685121,41.931213 30.9065727,42.0042265 29.3458818,41.7967612 C29.1148996,41.7664873 28.9638247,41.6079946 29.007524,41.4441594 C29.0399864,41.3186117 29.1785758,41.2251188 29.3458818,41.2028586" id="Fill-85" fill="#E1E2E2" mask="url(#mask-2)"></path>
                    <path d="M42.948,45 L42.052,47" id="Fill-86" fill="#FFFFFF" mask="url(#mask-2)"></path>
                    <path d="M43.9993207,45.4879535 C43.9781875,45.8648446 43.7789319,46.1493134 43.5328814,46.4085761 C43.4030633,46.5334063 43.2611692,46.6522351 43.0770087,46.7494586 C42.8943577,46.8454818 42.7041591,46.9391044 42.4369754,46.9919172 C42.2543244,47.0279259 42.0701639,46.9403047 42.023369,46.7950696 C42.02035,46.7866676 42.0188405,46.7782655 42.0188405,46.7698635 C41.9765742,46.5550115 42.0128024,46.3785689 42.0550688,46.2069274 C42.0958256,46.0340855 42.1788488,45.8840493 42.2739481,45.7400144 C42.4807513,45.4615471 42.7328398,45.2058852 43.1615414,45.0450463 C43.4574058,44.9346196 43.8061031,45.0342437 43.9449783,45.2671 C43.9857351,45.3391175 44.0038493,45.4147358 43.9993207,45.4879535" id="Fill-87" fill="#E1E2E2" mask="url(#mask-2)"></path>
                    <path d="M47.807,49 L47.193,51" id="Fill-88" fill="#FFFFFF" mask="url(#mask-2)"></path>
                    <path d="M47.9880456,49.3706032 C48.0294297,49.7192198 47.9578696,50.006184 47.8578581,50.2808177 C47.8018171,50.4142112 47.7397409,50.5431209 47.6500753,50.6585792 C47.561272,50.7751584 47.4672955,50.8883747 47.3250377,50.9758091 C47.2284748,51.0352197 47.1129441,50.9814139 47.0672492,50.8558671 C47.0646627,50.8480204 47.0620762,50.8412947 47.0603518,50.8345689 C47.0060352,50.6417649 47.0008622,50.4758637 47,50.3122044 C47,50.1474242 47.0250029,49.9994583 47.0577653,49.8537343 C47.1344983,49.5667701 47.2388208,49.2966202 47.4569495,49.0858809 C47.6061047,48.9423988 47.8156118,48.9827532 47.9268316,49.1766782 C47.959594,49.2349678 47.980286,49.302225 47.9880456,49.3706032" id="Fill-89" fill="#E1E2E2" mask="url(#mask-2)"></path>
                    <path d="M53.4205,50 L53.5795,52" id="Fill-90" fill="#FFFFFF" mask="url(#mask-2)"></path>
                    <path d="M53.7587348,50.1667641 C53.9423699,50.4358888 53.9882786,50.7210328 54,51.0083127 C54,51.1535546 53.9892554,51.2998645 53.9472538,51.4483102 C53.9052521,51.5978239 53.8593434,51.7462697 53.7528741,51.9032591 C53.6805923,52.0100546 53.5418892,52.0314137 53.4451878,51.952385 C53.4393271,51.9481132 53.4334664,51.9427734 53.4285825,51.9374337 C53.2957401,51.8082111 53.2234582,51.6704449 53.1560603,51.5337466 C53.0876855,51.3959804 53.0515446,51.2560783 53.0251715,51.1140403 C52.9851234,50.8288962 52.9792627,50.5416163 53.1111283,50.2372491 C53.2009922,50.0300658 53.4276057,49.9414255 53.6171014,50.0407454 C53.6747316,50.0695802 53.7235707,50.1144343 53.7587348,50.1667641" id="Fill-91" fill="#E1E2E2" mask="url(#mask-2)"></path>
                    <path d="M55.072,45 L55.928,47" id="Fill-92" fill="#FFFFFF" mask="url(#mask-2)"></path>
                    <path d="M55.8708225,45.0498554 C56.3023509,45.2194225 56.5489386,45.4767376 56.749291,45.7577684 C56.8433026,45.9012483 56.9219024,46.0518428 56.9573494,46.2225957 C56.9943375,46.3945344 57.0236198,46.5676588 56.9727611,46.7810999 C56.9373141,46.9257656 56.7569969,47.0218141 56.5689738,46.9957268 C56.5581856,46.994541 56.5473974,46.9921695 56.5381504,46.9897979 C56.2669039,46.9316945 56.0773397,46.8344602 55.8939401,46.7348543 C55.7089994,46.6352485 55.5687527,46.5131128 55.4408353,46.3874197 C55.1988712,46.1253614 55.0062246,45.8419591 55.0000599,45.4684371 C54.9954364,45.2134936 55.2589769,45.0036098 55.5887879,45.0000525 C55.6905053,44.9988667 55.786058,45.0178393 55.8708225,45.0498554" id="Fill-93" fill="#E1E2E2" mask="url(#mask-2)"></path>
                    <path d="M91.0505124,37.4026775 C84.8220779,34.5481063 80.7879194,48 92.4137542,48 C97.8679562,48 100.643833,43.8381953 99.8733047,40.5591977 C99.0953678,37.246246 94.877221,34.095789 91.0505124,37.4026775" id="Fill-94" fill="#FFFFFF" mask="url(#mask-2)"></path>
                    <path d="M91.0505124,37.4026775 C84.8220779,34.5481063 80.7879194,48 92.4137542,48 C97.8679562,48 100.643833,43.8381953 99.8733047,40.5591977 C99.0953678,37.246246 94.877221,34.095789 91.0505124,37.4026775 Z" id="Stroke-95" stroke="#E1E2E2" stroke-linecap="round" stroke-linejoin="round" mask="url(#mask-2)"></path>
                    <path d="M90.9959977,37 C91.1037507,35.1936275 89,32 89,32" id="Fill-96" fill="#FFFFFF" mask="url(#mask-2)"></path>
                    <path d="M90.8758311,36.8259032 C90.5551457,36.6415536 90.6679291,36.4885086 90.5931931,36.3029995 C90.5456339,36.1221282 90.4939981,35.938938 90.4179033,35.7534289 C90.2833785,35.3824108 90.0754765,35.0183492 89.9029043,34.6403745 L89.3335519,33.5087691 C89.1242911,33.1331132 88.9313363,32.7551385 89.0237372,32.219481 L89.025096,32.2090462 C89.0481962,32.0745521 89.1935917,31.982957 89.3498579,32.0026673 C89.3702405,32.0049862 89.3892642,32.0096239 89.406929,32.0142616 C90.0224819,32.2055679 90.3187082,32.5719483 90.5741694,32.9522419 C90.8459367,33.3278978 91.0959626,33.7163074 91.299788,34.1290651 C91.5267137,34.5325473 91.6721092,34.9696531 91.8079928,35.4195126 C91.8759346,35.6421235 91.9234939,35.879807 91.964259,36.1186499 C91.972412,36.3540145 92.1110133,36.626481 91.7808161,36.8699616 C91.5620434,37.0311227 91.2495111,37.0403981 91.0212266,36.9093823 L90.8758311,36.8259032 Z" id="Fill-97" fill="#E1E2E2" mask="url(#mask-2)"></path>
                    <path d="M91.0118737,35 C90.7827249,32.1448345 93.9308556,29.4982068 95.2231479,30.0813403 C96.7179437,30.7545826 96.0225039,32.6545936 93.4219322,33.304665" id="Fill-98" fill="#FFFFFF" mask="url(#mask-2)"></path>
                    <path d="M91.0571423,35.644468 C90.8596661,34.531999 91.1927426,33.3862073 91.7680564,32.4493238 C92.3499529,31.5034688 93.143807,30.6832152 94.2891688,30.194908 C94.5840665,30.0834048 94.9079274,29.9821547 95.3081458,30.002661 C95.5043054,30.0090693 95.7267952,30.0590535 95.9308539,30.151332 C96.0822523,30.2448922 96.2376002,30.3076929 96.37715,30.4384208 C97.0130233,30.8716172 97.1657382,31.894371 96.8181801,32.4647036 C96.1493942,33.6374099 94.9724363,34.0013975 93.9310787,34.1295621 C93.8099599,34.1449419 93.6993733,34.0616348 93.6835752,33.9437234 C93.6704101,33.8488816 93.7243869,33.7578847 93.8112765,33.7207169 L93.820492,33.716872 C94.7051852,33.3259699 95.5885619,32.7376942 95.8005197,32.0532951 C95.8926752,31.7187854 95.8150012,31.5496081 95.5885619,31.3919656 C95.5464337,31.3445447 95.4503286,31.3214751 95.3884527,31.2804624 C95.358173,31.2766175 95.3265769,31.263801 95.264701,31.2676459 C95.1514813,31.2689276 94.9724363,31.3125036 94.7947077,31.386839 C94.0535139,31.705969 93.3544483,32.3865231 92.8304782,33.1029634 C92.3144072,33.8424733 91.9721151,34.6896415 91.9313034,35.5778224 L91.9313034,35.5906389 C91.9194548,35.8277434 91.7140796,36.0110189 91.4705257,35.999484 C91.2598845,35.9917942 91.090055,35.8392783 91.0571423,35.644468" id="Fill-99" fill="#E1E2E2" mask="url(#mask-2)"></path>
                    <path d="M34.0299108,75 L30.9688648,75 C29.8803568,75 29,74.074916 29,72.933979 L29,62 L36,62 L36,72.933979 C36,74.074916 35.1184188,75 34.0299108,75" id="Fill-100" fill="#FFFFFF" mask="url(#mask-2)"></path>
                    <path d="M34.0299108,75 L30.9688648,75 C29.8803568,75 29,74.074916 29,72.933979 L29,62 L36,62 L36,72.933979 C36,74.074916 35.1184188,75 34.0299108,75 Z" id="Stroke-101" stroke="#E1E2E2" stroke-linecap="round" stroke-linejoin="round" mask="url(#mask-2)"></path>
                    <path d="M122.030255,75 L118.969745,75 C117.881427,75 117,74.074916 117,72.933979 L117,62 L124,62 L124,72.933979 C124,74.074916 123.118573,75 122.030255,75" id="Fill-102" fill="#FFFFFF" mask="url(#mask-2)"></path>
                    <path d="M122.030255,75 L118.969745,75 C117.881427,75 117,74.074916 117,72.933979 L117,62 L124,62 L124,72.933979 C124,74.074916 123.118573,75 122.030255,75 Z" id="Stroke-103" stroke="#E1E2E2" stroke-linecap="round" stroke-linejoin="round" mask="url(#mask-2)"></path>
                    <polygon id="Fill-104" fill="#FFFFFF" mask="url(#mask-2)" points="72 62 109 62 109 56 72 56"></polygon>
                    <polygon id="Stroke-105" stroke="#E1E2E2" stroke-linecap="round" stroke-linejoin="round" mask="url(#mask-2)" points="72 62 109 62 109 56 72 56"></polygon>
                    <polygon id="Fill-106" fill="#FFFFFF" mask="url(#mask-2)" points="77 55 109 55 109 49 77 49"></polygon>
                    <polygon id="Stroke-107" stroke="#E1E2E2" stroke-linecap="round" stroke-linejoin="round" mask="url(#mask-2)" points="77 55 109 55 109 49 77 49"></polygon>
                    <path d="M80.5,56 L80.5,62" id="Stroke-108" stroke="#E1E2E2" stroke-linecap="round" stroke-linejoin="round" mask="url(#mask-2)"></path>
                </g>
            </g>
        </g>
    </g>
</svg>