<svg id="Layer_1" data-name="Layer 1" xmlns="http://www.w3.org/2000/svg" xmlns:xlink="http://www.w3.org/1999/xlink" viewBox="0 0 1004 531"><defs><style>.cls-1,.cls-12,.cls-15,.cls-18,.cls-25,.cls-5{fill:#fff;}.cls-2{mask:url(#mask);}.cls-28,.cls-3{fill:#CCCED0;}.cls-4{fill:#6F93AD;}.cls-5,.cls-6{stroke:#CCCED0;}.cls-12,.cls-13,.cls-15,.cls-16,.cls-18,.cls-22,.cls-23,.cls-24,.cls-25,.cls-26,.cls-27,.cls-28,.cls-30,.cls-31,.cls-32,.cls-38,.cls-5{stroke-linecap:round;stroke-linejoin:round;}.cls-18,.cls-22,.cls-23,.cls-24,.cls-25,.cls-26,.cls-28,.cls-30,.cls-38,.cls-5,.cls-6{stroke-width:1.33px;}.cls-10,.cls-13,.cls-16,.cls-21,.cls-22,.cls-23,.cls-24,.cls-26,.cls-27,.cls-30,.cls-31,.cls-32,.cls-38,.cls-6{fill:none;}.cls-7{fill:#BBC9D5;}.cls-8{fill:#E1E2E2;}.cls-9{fill:#46799A;}.cls-10{stroke:#46799A;}.cls-10,.cls-31{stroke-width:2.67px;}.cls-11{fill:#204A69;}.cls-12,.cls-26,.cls-31{stroke:#6F93AD;}.cls-13,.cls-23,.cls-25{stroke:#BBC9D5;}.cls-14{fill:#204A69;}.cls-15,.cls-16,.cls-18,.cls-20,.cls-21,.cls-22,.cls-27,.cls-28,.cls-29{stroke:#204A69;}.cls-17,.cls-20,.cls-29{fill:#204A69;}.cls-19{fill:#4e748e;}.cls-20,.cls-21{stroke-width:0.98px;}.cls-24{stroke:#fff;}.cls-27{stroke-width:1.47px;}.cls-29{stroke-width:1.17px;}.cls-30{stroke:#204A69;}.cls-32{stroke:#f2f5f7;stroke-width:0.67px;}.cls-33{fill:#CCCED0;}.cls-34{fill:#CCCED0;}.cls-35{fill:#E1E2E2;}.cls-36{fill:#6F93AD;}.cls-37{fill:#204A69;}.cls-38{stroke:#CCCED0;}.cls-39{fill:#E1E2E2;}</style><mask id="mask" x="-1.67" y="-14.83" width="1005.33" height="541.67" maskUnits="userSpaceOnUse"><g id="mask-2"><polygon id="path-1" class="cls-1" points="-1.67 -14.83 1003.67 -14.83 1003.67 526.83 -1.67 526.83 -1.67 -14.83"/></g></mask></defs><title>Artboard 1</title><g id="Page-1"><g id="Artboard"><g id="rebrand-cities-welcome"><g id="g10"><g id="g12"><g id="g14-Clipped"><g class="cls-2"><g id="g14"><g id="g20"><path id="path22" class="cls-1" d="M196.28,43.46c-.66-.23-58.8,0-58.8,0s-3.73-12.24,6.18-14.81c3-.77,4.69-.48,5.57-.11a.56.56,0,0,0,.79-.42c.21-2.45,1.61-9.18,10.56-9.18,9.85,0,14.17,9.27,14.17,9.27a8.86,8.86,0,0,1,6.08-3.51c11.5-.92,14.31,11.79,14.31,11.79"/></g><g id="g24"><path id="path26" class="cls-3" d="M196.11,43.95l-14.53.27c-4.9.1-9.8.19-14.7.22l-29.4.23h0a1.17,1.17,0,0,1-1.14-.86,19.35,19.35,0,0,1-.61-7.75,10.12,10.12,0,0,1,4-7,11.09,11.09,0,0,1,3.73-1.7,13.57,13.57,0,0,1,4-.5,6.81,6.81,0,0,1,2.2.43l.14.06-.12,0a.73.73,0,0,0-.26,0,.74.74,0,0,0-.49.33.83.83,0,0,0-.13.37l0-.22.07-.5A12.54,12.54,0,0,1,150,23.43a10.07,10.07,0,0,1,2.59-3.2,10.33,10.33,0,0,1,3.63-1.86,15.84,15.84,0,0,1,14.65,3.39,23.83,23.83,0,0,1,2.68,2.75,16,16,0,0,1,2.21,3.21l-2-.17a9.67,9.67,0,0,1,2.9-2.59,9,9,0,0,1,3.67-1.23,13.16,13.16,0,0,1,7.2,1.28,14.06,14.06,0,0,1,5.27,4.89,20.13,20.13,0,0,1,2.66,6.51.34.34,0,0,1-.66.17v0a19.24,19.24,0,0,0-3-5.94,12.58,12.58,0,0,0-5-4.08,11.65,11.65,0,0,0-6.22-.78,7.87,7.87,0,0,0-4.89,3.12l0,.05a1.17,1.17,0,0,1-2-.22,14.93,14.93,0,0,0-10.11-8.32,13.65,13.65,0,0,0-6.62.23,7.52,7.52,0,0,0-4.67,4,10,10,0,0,0-.91,3.08l0,.4,0,.23a1.77,1.77,0,0,1-.28.79,1.87,1.87,0,0,1-1.24.81,1.9,1.9,0,0,1-.72,0,1.87,1.87,0,0,1-.34-.1l-.07,0a4.58,4.58,0,0,0-1.36-.23,12.23,12.23,0,0,0-3.22.41,8.49,8.49,0,0,0-2.87,1.25,7.54,7.54,0,0,0-3,5.27,17,17,0,0,0,.45,6.67l-1.17-.86,29.4.07c4.9,0,9.8.09,14.7.19l7.35.15,3.68.11,1.84.07.92,0,.47,0h.23l.37.05a.49.49,0,0,1-.09,1Z"/></g><g id="g28"><path id="path30" class="cls-1" d="M392,465.78a2,2,0,1,1-2-2,2,2,0,0,1,2,2"/></g><g id="g32"><path id="path34" class="cls-1" d="M97.32,430.6s-3.79-27.37-7.8-31.31C96.28,405.09,104,421.35,104,430.6"/></g><g id="g36"><path id="path38" class="cls-3" d="M97.19,430.62c-1.12-5.3-2.1-10.62-3.29-15.88-.56-2.64-1.18-5.26-1.91-7.84-.37-1.29-.77-2.56-1.24-3.8A10.53,10.53,0,0,0,89,399.84l0,0A.76.76,0,0,1,90,398.72a33.58,33.58,0,0,1,5.68,6.95,63,63,0,0,1,4.23,7.81,58.55,58.55,0,0,1,3,8.33,30.83,30.83,0,0,1,1.27,8.79.27.27,0,0,1-.53,0h0a34.7,34.7,0,0,0-1.75-8.48A64.92,64.92,0,0,0,98.73,414a64.25,64.25,0,0,0-4.23-7.59A32.59,32.59,0,0,0,89,399.87l1-1.12a11.55,11.55,0,0,1,2.07,3.83c.48,1.3.88,2.61,1.24,3.93.72,2.64,1.31,5.29,1.85,8s1,5.34,1.34,8,.7,5.38.91,8.08a.13.13,0,0,1-.26,0"/></g><g id="g40"><path id="path42" class="cls-1" d="M104.09,430.22s.93-21.51-3-25.22c6.74,5.53,11.09,17.85,10.19,25.77"/></g><g id="g44"><path id="path46" class="cls-3" d="M104,430.21c-.2-4.29-.3-8.57-.64-12.82a62,62,0,0,0-.73-6.32,23.88,23.88,0,0,0-.72-3,6.4,6.4,0,0,0-1.31-2.49l0,0a.75.75,0,0,1,1-1.11,23.82,23.82,0,0,1,4.78,5.6,35.48,35.48,0,0,1,3.24,6.53,36.62,36.62,0,0,1,1.86,7,23.92,23.92,0,0,1,.11,7.25.27.27,0,0,1-.3.22.27.27,0,0,1-.23-.28,27.67,27.67,0,0,0-.63-7,39.32,39.32,0,0,0-2-6.73,28.69,28.69,0,0,0-7.73-11.43l1-1.13a7.64,7.64,0,0,1,1.67,3.15,25,25,0,0,1,.72,3.23,59.19,59.19,0,0,1,.65,6.48c.07,2.16.11,4.32,0,6.47s-.19,4.3-.45,6.45a.13.13,0,0,1-.15.12.14.14,0,0,1-.12-.13"/></g><g id="g48"><path id="path50" class="cls-1" d="M138.93,430.66s2.54-18.33,5.22-21c-4.53,3.88-9.68,14.77-9.68,21"/></g><g id="g52"><path id="path54" class="cls-3" d="M138.83,430.64a97,97,0,0,1,1.46-10.8c.36-1.78.75-3.56,1.23-5.33.24-.88.51-1.76.83-2.64a7.76,7.76,0,0,1,1.4-2.59l.77.84a21.81,21.81,0,0,0-3.66,4.39,43,43,0,0,0-2.83,5.07,43.81,43.81,0,0,0-2.17,5.4,23.47,23.47,0,0,0-1.19,5.67.2.2,0,0,1-.21.19.21.21,0,0,1-.19-.19,20.43,20.43,0,0,1,.83-5.89,39.1,39.1,0,0,1,2-5.59,42.26,42.26,0,0,1,2.83-5.24,22.6,22.6,0,0,1,3.81-4.67.57.57,0,0,1,.79.81l0,0a7.05,7.05,0,0,0-1.17,2.17c-.32.82-.59,1.68-.83,2.54-.49,1.72-.9,3.48-1.28,5.24-.8,3.52-1.46,7.08-2.24,10.62a.1.1,0,0,1-.2,0"/></g><g id="g56"><path id="path58" class="cls-1" d="M134.4,430.4s-.62-14.4,2-16.89c-4.51,3.7-7.43,11.95-6.82,17.26"/></g><g id="g60"><path id="path62" class="cls-3" d="M134.3,430.4a54.93,54.93,0,0,1-.31-8.65,39.31,39.31,0,0,1,.43-4.34,15.36,15.36,0,0,1,.49-2.17A5.35,5.35,0,0,1,136,413.1l.75.85a19.15,19.15,0,0,0-5.17,7.63,26.37,26.37,0,0,0-1.38,4.49,18.62,18.62,0,0,0-.44,4.68.2.2,0,0,1-.18.21.21.21,0,0,1-.21-.17,19.74,19.74,0,0,1,1.29-9.57,23.73,23.73,0,0,1,2.17-4.38,16,16,0,0,1,3.21-3.76.56.56,0,0,1,.78.81l0,0a8.2,8.2,0,0,0-1.34,3.67,40.91,40.91,0,0,0-.49,4.22c-.24,2.84-.31,5.71-.47,8.58a.1.1,0,0,1-.1.1.1.1,0,0,1-.1-.09"/></g><g id="g64"><path id="path66" class="cls-1" d="M924.4,431.93s-3.79-27.37-7.8-31.31c6.77,5.79,14.45,22.05,14.45,31.31"/></g><g id="g68"><path id="path70" class="cls-3" d="M924.27,432c-1.12-5.3-2.1-10.62-3.29-15.88-.56-2.64-1.18-5.26-1.91-7.84-.37-1.29-.77-2.56-1.24-3.8a10.56,10.56,0,0,0-1.76-3.27l0,0a.76.76,0,0,1,1.06-1.08,33.58,33.58,0,0,1,5.68,6.95,63.22,63.22,0,0,1,4.23,7.81,58.71,58.71,0,0,1,3,8.33,30.83,30.83,0,0,1,1.27,8.79.27.27,0,0,1-.53,0h0a34.7,34.7,0,0,0-1.75-8.48,64.92,64.92,0,0,0-3.22-8.08,64.06,64.06,0,0,0-4.23-7.59,32.59,32.59,0,0,0-5.48-6.57l1-1.12a11.55,11.55,0,0,1,2.07,3.83c.48,1.3.88,2.61,1.24,3.93.72,2.64,1.31,5.29,1.85,8s1,5.34,1.34,8,.7,5.38.91,8.08a.13.13,0,0,1-.26,0"/></g><g id="g72"><path id="path74" class="cls-1" d="M931.18,431.55s.93-21.51-3-25.22c6.74,5.53,11.09,17.85,10.19,25.77"/></g><g id="g76"><path id="path78" class="cls-3" d="M931,431.54c-.2-4.29-.29-8.57-.64-12.82a61.57,61.57,0,0,0-.73-6.32,24.11,24.11,0,0,0-.72-3,6.42,6.42,0,0,0-1.31-2.49l0,0a.75.75,0,0,1,1-1.11,23.82,23.82,0,0,1,4.78,5.6,35.48,35.48,0,0,1,3.24,6.53,36.53,36.53,0,0,1,1.86,7,23.88,23.88,0,0,1,.11,7.25.27.27,0,0,1-.3.22.27.27,0,0,1-.23-.28,27.61,27.61,0,0,0-.63-7,39.32,39.32,0,0,0-2-6.73,28.69,28.69,0,0,0-7.73-11.43l1-1.13a7.64,7.64,0,0,1,1.67,3.15,25,25,0,0,1,.72,3.23,59.19,59.19,0,0,1,.65,6.48c.07,2.16.11,4.32,0,6.47s-.19,4.3-.45,6.45a.13.13,0,0,1-.15.12.14.14,0,0,1-.12-.13"/></g><g id="g80"><path id="path82" class="cls-1" d="M404.56,446.2a2.73,2.73,0,1,1-2.73-2.73,2.73,2.73,0,0,1,2.73,2.73"/></g><g id="g88"><path id="path90" class="cls-3" d="M496.88,198.08c-.63-1.15-.4-2.29-.47-3.44l-.06-3.44c0-2.29-.11-4.58-.07-6.88s0-4.58.12-6.88a21.41,21.41,0,0,1,.93-6.88.47.47,0,0,1,.89,0,21.41,21.41,0,0,1,.93,6.88c.07,2.29.12,4.59.12,6.88s-.05,4.59-.07,6.88l-.06,3.44c-.07,1.15.16,2.29-.47,3.44a1,1,0,0,1-1.38.4,1,1,0,0,1-.4-.4"/></g><g id="g92"><path id="path94" class="cls-3" d="M242,306.14a26.29,26.29,0,0,1,5.54-.44,34.58,34.58,0,0,1,5.54.44.23.23,0,0,1,.18.26.23.23,0,0,1-.18.18,34.43,34.43,0,0,1-5.54.44,26.29,26.29,0,0,1-5.54-.44.22.22,0,0,1,0-.44"/></g><g id="g96"><path id="path98" class="cls-3" d="M726.23,149.6a26.29,26.29,0,0,1,5.54-.44,34.58,34.58,0,0,1,5.54.44.22.22,0,0,1,.18.26.23.23,0,0,1-.18.18,34.43,34.43,0,0,1-5.54.44,26.29,26.29,0,0,1-5.54-.44.22.22,0,0,1,0-.44"/></g><g id="g100"><path id="path102" class="cls-3" d="M460.33,293.36a26.29,26.29,0,0,1,5.54-.44,34.58,34.58,0,0,1,5.54.44.22.22,0,0,1,.18.26.23.23,0,0,1-.18.18,34.43,34.43,0,0,1-5.54.44,26.29,26.29,0,0,1-5.54-.44.22.22,0,0,1,0-.44"/></g><g id="g104"><path id="path106" class="cls-3" d="M513.22,335.8a26.29,26.29,0,0,1,5.54-.44,34.28,34.28,0,0,1,5.54.44.23.23,0,0,1,0,.44,34.43,34.43,0,0,1-5.54.44,26.2,26.2,0,0,1-5.54-.44.22.22,0,0,1,0-.44"/></g><g id="g108"><path id="path110" class="cls-3" d="M380.36,311.81a26.2,26.2,0,0,1,5.54-.44,34.43,34.43,0,0,1,5.54.44.22.22,0,0,1,.18.26.23.23,0,0,1-.18.18,34.43,34.43,0,0,1-5.54.44,26.29,26.29,0,0,1-5.54-.44.22.22,0,0,1,0-.44"/></g><g id="g112"><path id="path114" class="cls-3" d="M146,244.77a26.29,26.29,0,0,1,5.54-.44,34.43,34.43,0,0,1,5.54.44.23.23,0,0,1,0,.44,34.58,34.58,0,0,1-5.54.44,26.29,26.29,0,0,1-5.54-.44.23.23,0,0,1-.17-.27.23.23,0,0,1,.17-.17"/></g><g id="g116"><path id="path118" class="cls-3" d="M175.53,335.8a26.29,26.29,0,0,1,5.54-.44,34.28,34.28,0,0,1,5.54.44.23.23,0,0,1,0,.44,34.43,34.43,0,0,1-5.54.44,26.2,26.2,0,0,1-5.54-.44.22.22,0,0,1,0-.44"/></g><g id="g120"><path id="path122" class="cls-3" d="M875.78,259.89a26.29,26.29,0,0,1,5.54-.44,34.28,34.28,0,0,1,5.54.44.23.23,0,0,1,0,.44,34.43,34.43,0,0,1-5.54.44,26.2,26.2,0,0,1-5.54-.44.22.22,0,0,1,0-.44"/></g><g id="g124"><path id="path126" class="cls-3" d="M900.31,348.47c-.1-20.17-.25-40.34-.25-60.5l-.12-60.5,1.27,1.26-65.12.07,1.33-1.33v91a1.33,1.33,0,0,1-1.33,1.33H819.53a1.33,1.33,0,0,1-1.33-1.33V292.62l1.33,1.33h-10a1.33,1.33,0,0,1-1.33-1.33V95.83l1.31,1.33-16-.27a1.33,1.33,0,0,1-1.31-1.33V72.47l1.33,1.33H750.93l1.33-1.33-.11,24.77a1.33,1.33,0,0,1-1.32,1.33l-34.19.23L718,97.47v36.92L716.64,133h10.64a1.33,1.33,0,0,1,1.33,1.33V277.11a1.34,1.34,0,0,1-1.22,1.33l-11.83,1a1.33,1.33,0,0,1-1.44-1.21V196.44l.33.88-22.64-25.65-.13-.18-11.94-19.13,2.27,0-11.38,18.93a1.36,1.36,0,0,1-.17.22l-24.18,25.86.36-.91v13.45a1.33,1.33,0,0,1-1.33,1.33h-15l1.33-1.33v53.78a1.33,1.33,0,0,1-1.33,1.33H601.87l1.33-1.33v20.41a1.33,1.33,0,0,1-1.33,1.33h-9.48a1.33,1.33,0,0,1-1.33-1.33V263.66l1.33,1.33h-52l1.33-1.33v44.61h-2.67v-.13l1.33,1.33h-39.9a1.33,1.33,0,0,1-1.33-1.33V191.2l2.22,1-57,50.74.45-1v97a1.33,1.33,0,0,1-1.33,1.33h-50.1a1.33,1.33,0,0,1-1.33-1.33V262.72l1.33,1.33H339l1.33-1.33V324a1.33,1.33,0,0,1-2.35.86l-70-82.06,1,.45-44.54-.06,1.23-1.23-.07,49.2a1.16,1.16,0,0,1-1.16,1.16h0l-27.55,0a1.12,1.12,0,0,1-1.12-1.12h0l.11-79.61,1,1-50.16-.07.94-.94-.32,136a.62.62,0,0,1-.61.62h0L94.67,348a.44.44,0,0,1,0-.89l52.06-.17-.62.62-.32-136a.94.94,0,0,1,.94-.94h0l50.16-.07a1,1,0,0,1,1,1l.11,79.61L196.89,290l27.55,0-1.16,1.16-.07-49.2a1.23,1.23,0,0,1,1.23-1.23l44.54-.06a1.31,1.31,0,0,1,1,.45l70,82-2.35.87V262.72a1.33,1.33,0,0,1,1.33-1.33h54.47a1.33,1.33,0,0,1,1.33,1.33v76.21l-1.33-1.33h50.1l-1.33,1.33v-97a1.34,1.34,0,0,1,.45-1l57-50.74a1.33,1.33,0,0,1,2.22,1V308.15l-1.33-1.33h39.9a1.33,1.33,0,0,1,1.33,1.33v.13h-2.67V263.66a1.33,1.33,0,0,1,1.33-1.33h52a1.33,1.33,0,0,1,1.33,1.33v20.41l-1.33-1.33h9.48l-1.33,1.33V263.66a1.33,1.33,0,0,1,1.33-1.33h28.44L629,263.66V209.88a1.33,1.33,0,0,1,1.33-1.33h15L644,209.88V196.44a1.34,1.34,0,0,1,.36-.91l24.19-25.86-.17.22L679.73,151a1.33,1.33,0,0,1,2.27,0l11.94,19.13-.13-.18,22.64,25.65a1.33,1.33,0,0,1,.33.88v81.71l-1.45-1.33,11.83-1-1.22,1.33V134.38l1.33,1.33H716.64a1.33,1.33,0,0,1-1.33-1.33V97.47a1.33,1.33,0,0,1,1.32-1.33l34.19-.23-1.33,1.33.11-24.76a1.33,1.33,0,0,1,1.33-1.33h42.57a1.33,1.33,0,0,1,1.33,1.33V95.56l-1.31-1.33,16,.27a1.33,1.33,0,0,1,1.31,1.33V292.62l-1.33-1.33h10a1.33,1.33,0,0,1,1.33,1.33v25.86l-1.33-1.33h16.56l-1.33,1.33v-91a1.33,1.33,0,0,1,1.33-1.33h0l65.12.07a1.26,1.26,0,0,1,1.27,1.26h0l-.12,60.5c0,20.17-.15,40.34-.26,60.5a.89.89,0,0,1-1.78,0"/></g><g id="g128"><path id="path130" class="cls-3" d="M637.68,64.19l9.76-.22-1.09.92a28.51,28.51,0,0,1,1.92-6.33A18.5,18.5,0,0,1,652,52.91a10.69,10.69,0,0,1,6.29-3.14,10.08,10.08,0,0,1,3.58.13,8.16,8.16,0,0,1,3.38,1.58,8.55,8.55,0,0,1,2.31,2.92c.13.27.26.56.37.83a.32.32,0,0,0,.08.12.26.26,0,0,0,.24.07l.11,0,.42-.2a8.66,8.66,0,0,1,.85-.34,10.22,10.22,0,0,1,1.76-.44,12.42,12.42,0,0,1,3.52,0,11.61,11.61,0,0,1,1.72.33l.93.3c.3.15.59.31.88.47a6.78,6.78,0,0,1,2.5,2.89,13.52,13.52,0,0,1,1,6.86l-1.15-1.28c3.71,0,7.43.15,11.15.26a.89.89,0,0,1,0,1.78c-3.72.11-7.43.22-11.15.26a1.14,1.14,0,0,1-1.15-1.12V65a11.27,11.27,0,0,0-.93-5.52,4.53,4.53,0,0,0-1.6-1.82l-.52-.27-.58-.18a9.21,9.21,0,0,0-1.39-.25,9.86,9.86,0,0,0-2.79,0,7.78,7.78,0,0,0-1.31.34c-.21.08-.42.16-.61.25l-.29.15a3.51,3.51,0,0,1-.62.26,2.92,2.92,0,0,1-2.72-.6,3,3,0,0,1-.82-1.17c-.08-.22-.17-.42-.27-.62a5.92,5.92,0,0,0-1.57-2,6.57,6.57,0,0,0-5-1.2,8.11,8.11,0,0,0-4.82,2.38c-2.72,2.66-4.35,6.68-5.2,10.54l0,.08a1.08,1.08,0,0,1-1.07.84L637.68,66a.89.89,0,0,1,0-1.78"/></g><g id="g132"><path id="path134" class="cls-3" d="M303.36,110q.24,21.51.38,43l.17,43v43l-.1,21.51-.2,21.51a.89.89,0,0,1-1.78,0l-.26-21.51-.16-21.51-.12-43,.05-43q.05-21.51.26-43a.89.89,0,0,1,1.78,0"/></g><g id="g136"><path id="path138" class="cls-4" d="M424,124.79H185a3.06,3.06,0,0,1-3.06-3.06v-105A3.06,3.06,0,0,1,185,13.62H421A3.06,3.06,0,0,1,424,16.68Z"/></g><g id="g140"><path id="path142" class="cls-1" d="M256.16,98.73l10.43-30.15a31.94,31.94,0,0,0,2.6-12.2,27.88,27.88,0,0,0-.23-3.51,34.08,34.08,0,0,1-12.8,45.86ZM243.68,53.23c2-.09,3.92-.32,3.92-.32a1.42,1.42,0,0,0-.23-2.82s-5.51.45-9.11.45c-3.37,0-9-.45-9-.45a1.42,1.42,0,0,0-.23,2.82s1.73.23,3.6.32L238,67.81l-7.47,22.4-12.43-37c2-.09,3.92-.32,3.92-.32a1.42,1.42,0,0,0-.23-2.82s-5.51.45-9.11.45c-.64,0-1.41,0-2.19,0A34.09,34.09,0,0,1,262,44.08c-.14,0-.27,0-.46,0a5.9,5.9,0,0,0-5.74,6.06c0,2.82,1.64,5.19,3.37,8A18.2,18.2,0,0,1,262,67.53a31.65,31.65,0,0,1-2.6,11L256,89.94ZM239,103.37a33.67,33.67,0,0,1-9.65-1.41l10.25-29.74L250.06,101a4.39,4.39,0,0,0,.23.46,33.08,33.08,0,0,1-11.29,2ZM204.88,69.26a33.6,33.6,0,0,1,3-13.89L224.1,100a34.09,34.09,0,0,1-19.22-30.69Zm34.11-38a38,38,0,1,0,37.93,37.93A38,38,0,0,0,239,31.28Z"/></g><g id="g144"><path id="path146" class="cls-1" d="M303.27,38.71c.51,5.22.5,10.44.53,15.66L303.89,70l-.09,15.66c0,5.22,0,10.44-.53,15.66h-.33c-.51-5.22-.5-10.44-.53-15.66L302.32,70l.09-15.66c0-5.22,0-10.44.53-15.66Z"/></g><g id="g148"><path id="path150" class="cls-1" d="M338.55,59.89h2.11a.16.16,0,0,0,.16-.16v-19a.16.16,0,0,0-.16-.16h-2.11a.16.16,0,0,0-.16.16l.16,19.19h0"/></g><g id="g152"><path id="path154" class="cls-1" d="M345.38,50.46a1.9,1.9,0,0,0,.33-1.14V42.16c0-1.14-.49-1.63-1.63-1.63h-2.6a.16.16,0,0,0-.16.16v2a.16.16,0,0,0,.16.16h1.63a.16.16,0,0,1,.16.16v6a.16.16,0,0,1-.16.16h-1.46a.16.16,0,0,0-.16.16v2.11l2.11,8.3.16.16h2.44v-.16l-2.11-8.62a.16.16,0,0,1,.16-.16h.16c.49-.16.81-.16,1-.49"/></g><g id="g156"><path id="path158" class="cls-1" d="M365.55,59.89h2.11a.16.16,0,0,0,.16-.16v-19a.16.16,0,0,0-.16-.16h-2.11a.16.16,0,0,0-.16.16l.16,19.19h0"/></g><g id="g160"><path id="path162" class="cls-1" d="M372.38,50.46a1.9,1.9,0,0,0,.33-1.14V42.16c0-1.14-.49-1.63-1.63-1.63h-2.6a.16.16,0,0,0-.16.16v2a.16.16,0,0,0,.16.16h1.63a.16.16,0,0,1,.16.16v6a.16.16,0,0,1-.16.16h-1.46a.16.16,0,0,0-.16.16v2.11l2.11,8.3.16.16h2.44v-.16l-2.11-8.62a.16.16,0,0,1,.16-.16h.49c0-.16.33-.16.65-.49"/></g><g id="g164"><path id="path166" class="cls-1" d="M347.66,42v5c0,.49,0,.81.16,1s.16.33.49.49l1.14.81.16.16.16.16a8.94,8.94,0,0,1,1.46,1.14h.16l1-.81.16-.16v-.16a.16.16,0,0,0-.16-.16l-2.44-2-.16-.16V43a.16.16,0,0,1,.16-.16h.49a.16.16,0,0,0,.16-.16V40.53a.16.16,0,0,0-.16-.16h-1.14A1.46,1.46,0,0,0,347.66,42"/></g><g id="g168"><path id="path170" class="cls-1" d="M347.82,51.27a2.06,2.06,0,0,0-.16,1v5.69c0,1.14.49,1.63,1.63,1.63h1.46a.16.16,0,0,0,.16-.16v-2a.16.16,0,0,0-.16-.16h-.49a.16.16,0,0,1-.16-.16v-5a.16.16,0,0,1,.16-.16l.81-.65v-.16L349.61,50h-.16l-1,.65-.65.65"/></g><g id="g172"><path id="path174" class="cls-1" d="M354.33,57.94V54.36a.16.16,0,0,0-.16-.16h-2.11a.16.16,0,0,0-.16.16v2.93a.16.16,0,0,1-.16.16h-.49a.16.16,0,0,0-.16.16v2a.16.16,0,0,0,.16.16h1.46c1.14,0,1.63-.65,1.63-1.79"/></g><g id="g176"><path id="path178" class="cls-1" d="M352.7,40.37h-1.46a.16.16,0,0,0-.16.16v2a.16.16,0,0,0,.16.16h.49a.16.16,0,0,1,.16.16v2.6a.16.16,0,0,0,.16.16h2.11a.16.16,0,0,0,.16-.16V42a1.46,1.46,0,0,0-1.63-1.63"/></g><g id="g180"><path id="path182" class="cls-1" d="M377.91,40.7V47l.81,6.67a.16.16,0,0,1-.16.16h-.49a.16.16,0,0,0-.16.16v2a.16.16,0,0,0,.16.16h.65a.16.16,0,0,1,.16.16l.33,3.42a.16.16,0,0,0,.16.16h2.28v-.16l-2.77-18.87-.16-.16h-.81"/></g><g id="g184"><path id="path186" class="cls-1" d="M376.78,53.71l.65-6.67.16-1V40.7a.16.16,0,0,0-.16-.16h-.81a.16.16,0,0,0-.16.16l-2.77,18.87v.16H376a.16.16,0,0,0,.16-.16l.33-3.42a.16.16,0,0,1,.16-.16h.81a.16.16,0,0,0,.16-.16v-2a.16.16,0,0,0-.16-.16h-.65c.16.16,0,.16,0,0"/></g><g id="g188"><path id="path190" class="cls-1" d="M358.39,40.53h-2.11a.16.16,0,0,0-.16.16v19a.16.16,0,0,0,.16.16h2.11a.16.16,0,0,0,.16-.16l-.16-19.19h0"/></g><g id="g192"><path id="path194" class="cls-1" d="M363.11,51.11a2.86,2.86,0,0,0-.65-.81l-.81-.49v-.16l.81-.49c.33-.33.65-.49.65-.65.16-.16.16-.65.16-1.14V42.16c0-1.14-.49-1.63-1.63-1.63H359a.16.16,0,0,0-.16.16v2a.16.16,0,0,0,.16.16h1.63a.16.16,0,0,1,.16.16v4.72a.16.16,0,0,1-.16.16l-.81.65a.57.57,0,0,1-.33.16h-.65a.16.16,0,0,0-.16.16v2a.16.16,0,0,0,.16.16h.65a.5.5,0,0,1,.33.16l.81.65.16.16v5.69a.16.16,0,0,1-.16.16H359a.16.16,0,0,0-.16.16v2a.16.16,0,0,0,.16.16h2.6c1.14,0,1.63-.49,1.63-1.63v-6c0-.65-.16-1-.16-1.3"/></g><g id="g196"><path id="path198" class="cls-1" d="M392.72,59.89h2.11a.16.16,0,0,0,.16-.16V43a.16.16,0,0,1,.16-.16h.65a.16.16,0,0,0,.16-.16v-2a.16.16,0,0,0-.16-.16h-3.09a.16.16,0,0,0-.16.16l.16,19.19c-.16-.16-.16,0,0,0"/></g><g id="g200"><path id="path202" class="cls-1" d="M397.11,40.53h-.81a.16.16,0,0,0-.16.16v2.11a.86.86,0,0,1,1,1V56.64c0,.65-.33,1-1.14,1h-.81a.16.16,0,0,0-.16.16v2a.16.16,0,0,0,.16.16h1.63a2.38,2.38,0,0,0,2-.65,2.59,2.59,0,0,0,.65-2V43.46a2.59,2.59,0,0,0-.65-2c0-.65-.65-1-1.63-1"/></g><g id="g204"><path id="path206" class="cls-1" d="M383.12,59.4h2.11a.16.16,0,0,0,.16-.16V51.43L383.12,43V59.4h0"/></g><g id="g208"><path id="path210" class="cls-1" d="M388.16,40.37v8l2.28,8.46V40.53a.16.16,0,0,0-.16-.16h-2.11"/></g><g id="g212"><path id="path214" class="cls-1" d="M405,69.55a.42.42,0,0,1-.39.39H396a.43.43,0,0,0-.4.4l-.79,3.16h-.2L383.11,32l-.2-.2h-53a.43.43,0,0,0-.39.4V53.75a.19.19,0,0,0,.2.2h2.37a.19.19,0,0,0,.2-.2v-19a.43.43,0,0,1,.4-.4h48.28c.2,0,.2,0,.2.2l4.15,15.22s8.3,30.63,9.09,33.79h.2l3-10.67a.19.19,0,0,1,.2-.2h9.67a.43.43,0,0,0,.4-.4V53a.19.19,0,0,0-.2-.2h-2.37a.19.19,0,0,0-.2.2Z"/></g><g id="g216"><path id="path218" class="cls-1" d="M329.49,68.15a.19.19,0,0,0,.2.2h56.87a.19.19,0,0,0,.2-.2l-.59-2.37a.19.19,0,0,0-.2-.2H332.66a.19.19,0,0,1-.2-.2V48.79a.19.19,0,0,0-.2-.2h-2.57a.19.19,0,0,0-.2.2Z"/></g><g id="g220"><path id="path222" class="cls-1" d="M407.8,32a.19.19,0,0,0-.2-.2H385.23a.19.19,0,0,0-.2.2l.59,2.37a.19.19,0,0,0,.2.2h18.81a.19.19,0,0,1,.2.2V54.37a.19.19,0,0,0,.2.2,13,13,0,0,0,2.77-.2Z"/></g><g id="g224"><path id="path226" class="cls-1" d="M329.49,106.29a.19.19,0,0,0,.2.2h67.78a.19.19,0,0,0,.2-.2l-.59-2.37a.19.19,0,0,0-.2-.2H332.66a.19.19,0,0,1-.2-.2V65.59a.19.19,0,0,0-.2-.2h-2.57a.19.19,0,0,0-.2.2Z"/></g><g id="g228"><path id="path230" class="cls-1" d="M407.8,106.29a.19.19,0,0,1-.2.2H350.73a.19.19,0,0,1-.2-.2l.59-2.37a.19.19,0,0,1,.2-.2h53.32a.19.19,0,0,0,.2-.2v-36a.19.19,0,0,1,.2-.2h2.57a.19.19,0,0,1,.2.2Z"/></g><g id="g232"><path id="path234" class="cls-1" d="M347.53,95.81V90.64a.19.19,0,0,0-.2-.2h-2.57a.19.19,0,0,0-.2.2V95a.19.19,0,0,1-.2.2h-.69a.19.19,0,0,0-.2.2v2.37a.19.19,0,0,0,.2.2h1.88c1.38,0,2-.79,2-2.17"/></g><g id="g236"><path id="path238" class="cls-1" d="M345.71,74.49h-2.05a.19.19,0,0,0-.2.2v2.37a.19.19,0,0,0,.2.2h.87a.19.19,0,0,1,.2.2V82a.19.19,0,0,0,.2.2h2.57a.19.19,0,0,0,.2-.2V76.47a1.77,1.77,0,0,0-2-2"/></g><g id="g240"><path id="path242" class="cls-1" d="M368.37,76.74v6.13c0,.59,0,1,.2,1.19s.2.39.59.59l1.38,1,.2.2.2.2a10.86,10.86,0,0,1,1.78,1.38h.2l1.19-1,.2-.2V86a.19.19,0,0,0-.2-.2l-3-2.37-.2-.2V77.92a.19.19,0,0,1,.2-.2h.59a.19.19,0,0,0,.2-.2V75a.19.19,0,0,0-.2-.2h-1.38a1.77,1.77,0,0,0-2,2"/></g><g id="g244"><path id="path246" class="cls-1" d="M368.57,88a2.51,2.51,0,0,0-.2,1.19V96.1c0,1.38.59,2,2,2h1.78a.19.19,0,0,0,.2-.2V95.51a.19.19,0,0,0-.2-.2h-.59a.19.19,0,0,1-.2-.2V89a.19.19,0,0,1,.2-.2l1-.79v-.2l-1.78-1.38h-.2l-1.19.79-.79.79"/></g><g id="g248"><path id="path250" class="cls-1" d="M376.47,96.1V91.76a.19.19,0,0,0-.2-.2h-2.57a.19.19,0,0,0-.2.2v3.56a.19.19,0,0,1-.2.2h-.59a.19.19,0,0,0-.2.2v2.37a.19.19,0,0,0,.2.2h1.78c1.38,0,2-.79,2-2.17"/></g><g id="g252"><path id="path254" class="cls-1" d="M374.5,74.76h-1.78a.19.19,0,0,0-.2.2v2.37a.19.19,0,0,0,.2.2h.59a.19.19,0,0,1,.2.2v3.16a.19.19,0,0,0,.2.2h2.57a.19.19,0,0,0,.2-.2V76.74a1.77,1.77,0,0,0-2-2"/></g><g id="g256"><path id="path258" class="cls-1" d="M341.46,98h1.48a.19.19,0,0,0,.2-.2V95.24h-.49a1,1,0,0,1-1.19-1.19V78.44q0-1.19,1.48-1.19h-.1a.19.19,0,0,0,.2-.2V74.69a.19.19,0,0,0-.2-.2h-1a2.89,2.89,0,0,0-2.37.79,3.15,3.15,0,0,0-.79,2.37v16.8a3.15,3.15,0,0,0,.79,2.37c0,.79.79,1.19,2,1.19"/></g><g id="g260"><path id="path262" class="cls-1" d="M363.57,98.18h2.57a.19.19,0,0,0,.2-.2V74.86a.19.19,0,0,0-.2-.2h-2.57a.19.19,0,0,0-.2.2l.2,23.32c-.2-.2-.2,0,0,0"/></g><g id="g264"><path id="path266" class="cls-1" d="M349.78,98.18h2.57a.19.19,0,0,0,.2-.2V74.86a.19.19,0,0,0-.2-.2h-2.57a.19.19,0,0,0-.2.2l.2,23.32c-.2-.2-.2,0,0,0"/></g><g id="g268"><path id="path270" class="cls-1" d="M353.89,77.53h2a.19.19,0,0,0,.2-.2V75a.19.19,0,0,0-.2-.2h-2a.19.19,0,0,0-.2.2l.2,2.57c-.2-.2-.2,0,0,0"/></g><g id="g272"><path id="path274" class="cls-1" d="M356.46,98.08H359a.19.19,0,0,0,.2-.2V77.73a.19.19,0,0,1,.2-.2h2.37a.19.19,0,0,0,.2-.2V75a.19.19,0,0,0-.2-.2h-5.14a.19.19,0,0,0-.2.2V98.08h0"/></g><g id="g276"><path id="path278" class="cls-1" d="M383.34,74.76h2.29a1.67,1.67,0,0,1,1.84,1.75v5.63h-3V77.34h-1.15Z"/></g><g id="g280"><path id="path282" class="cls-1" d="M383.16,98.08h-2.57a1.67,1.67,0,0,1-1.84-1.75V90.69h3V95.5h1.42Z"/></g><g id="g284"><path id="path286" class="cls-1" d="M382.92,74.71v2.68h-1.15l0,4.53,4.18,5.68L387,89.09s.47.39.47,1.72V96.1s.15,1.6-1.06,2a2.88,2.88,0,0,1-.92.1h-2.16l-.06-2.72h1.27l-.06-4.81-5.09-6.83a2.72,2.72,0,0,1-.66-1.74V76.73s0-2,1.68-2Z"/></g><g id="g288"><path id="path290" class="cls-1" d="M855.8,37.41c1-.33,84.3,0,84.3,0s5.35-17.54-8.86-21.23c-4.26-1.11-6.72-.69-8-.15a.8.8,0,0,1-1.13-.6c-.3-3.51-2.31-13.16-15.14-13.16-14.12,0-20.31,13.28-20.31,13.28a12.69,12.69,0,0,0-8.72-5c-16.48-1.32-20.52,16.9-20.52,16.9"/></g><g id="g292"><path id="path294" class="cls-3" d="M855.64,36.93l.47-.06.33,0,.67,0,1.32-.05,2.64-.08,5.27-.12,10.54-.15c7-.1,14.05-.18,21.08-.18l42.15,0-1.17.86a24.89,24.89,0,0,0,.68-9.8,11.37,11.37,0,0,0-4.52-7.93,12.72,12.72,0,0,0-4.31-1.89,17.77,17.77,0,0,0-4.78-.61,7,7,0,0,0-2.14.37l-.12,0a2.27,2.27,0,0,1-.39.12,2.2,2.2,0,0,1-.81,0,2.12,2.12,0,0,1-1.41-.91,2,2,0,0,1-.32-.88l0-.33-.07-.6a14.86,14.86,0,0,0-1.38-4.58,11.3,11.3,0,0,0-7-5.9,20.11,20.11,0,0,0-9.73-.31c-6.43,1.35-12,6.27-14.85,12.17a1.18,1.18,0,0,1-2,.21l0,0a11.68,11.68,0,0,0-7.38-4.64,16.86,16.86,0,0,0-9.15,1.22A18.39,18.39,0,0,0,862,18.84a27.77,27.77,0,0,0-4.25,8.64v0a.34.34,0,0,1-.66-.17A28.69,28.69,0,0,1,861,18.13a19.82,19.82,0,0,1,7.5-6.81,18.69,18.69,0,0,1,10.1-1.74,12.33,12.33,0,0,1,5.06,1.72,13.61,13.61,0,0,1,4,3.58l-2,.17a23.59,23.59,0,0,1,3.07-4.53,31.84,31.84,0,0,1,3.77-3.88,22.51,22.51,0,0,1,9.65-5,22.89,22.89,0,0,1,5.45-.56,20,20,0,0,1,5.46.78,14.28,14.28,0,0,1,5,2.6,13.92,13.92,0,0,1,3.56,4.44,17.42,17.42,0,0,1,1.69,5.35l.09.69,0,.32a.66.66,0,0,0-.1-.27.5.5,0,0,0-.33-.23.44.44,0,0,0-.17,0l-.08,0,.19-.07a9.27,9.27,0,0,1,3-.57,19,19,0,0,1,5.54.7,15.31,15.31,0,0,1,5.16,2.34,12.69,12.69,0,0,1,3.79,4.32,16,16,0,0,1,1.71,5.37,27.23,27.23,0,0,1-.85,10.87,1.17,1.17,0,0,1-1.13.86h0l-42.15-.27-42-.46h-.25a.49.49,0,0,1-.08-1"/></g><polygon id="path296" class="cls-5" points="250.44 22.69 231.26 22.69 231.26 3.5 250.44 3.5 250.44 22.69"/><polygon id="path298" class="cls-5" points="312.58 22.69 293.39 22.69 293.39 3.5 312.58 3.5 312.58 22.69"/><polygon id="path300" class="cls-5" points="374.71 22.69 355.53 22.69 355.53 3.5 374.71 3.5 374.71 22.69"/><g id="g302"><polyline id="path304" class="cls-1" points="280.9 124.79 280.9 137.31 326.75 137.31 326.75 124.79"/></g><g id="g306"><path id="path308" class="cls-3" d="M281.34,124.79a59.87,59.87,0,0,1,.23,6.26l0,6.26-.69-.69,22.93,0,22.93.09-.65.65c0-2.09,0-4.17.13-6.26s.15-4.17.3-6.26a.22.22,0,0,1,.44,0c.15,2.09.23,4.17.3,6.26s.08,4.17.13,6.26a.63.63,0,0,1-.62.65h0l-22.93.09-22.93,0a.69.69,0,0,1-.69-.69h0l0-6.26a60.24,60.24,0,0,1,.23-6.26.45.45,0,0,1,.89,0"/></g><polygon id="path310" class="cls-1" points="313.42 149.82 294.23 149.82 294.23 137.31 313.42 137.31 313.42 149.82"/><g id="g312"><path id="path314" class="cls-3" d="M313.25,149.52c-.13-2.13-.25-4.17-.34-6.16s-.13-4-.16-6l.67.67-19.18.07.74-.74,0,12.52-.72-.72,9.33.09,4.68.08c1.56,0,3.18.13,4.86.24Zm.31.63c-1.47.11-3,.21-4.57.23l-4.91.08-9.85.09a.71.71,0,0,1-.72-.71h0l0-12.52a.73.73,0,0,1,.73-.74h0l19.18.07h0a.66.66,0,0,1,.66.66h0c0,2.16-.07,4.34-.16,6.47s-.21,4.22-.35,6.21Z"/></g><g id="g316"><path id="path318" class="cls-1" d="M965.71,426s-1.28-3.49-4.7-4.11a6.91,6.91,0,0,0-4.33.67,1.77,1.77,0,0,0-.58,2.7,6.32,6.32,0,0,0,3.81,2.31,7,7,0,0,0,5.81-1.56"/></g><g id="g320"><path id="path322" class="cls-6" d="M965.71,426s-1.28-3.49-4.7-4.11a6.91,6.91,0,0,0-4.33.67,1.77,1.77,0,0,0-.58,2.7,6.32,6.32,0,0,0,3.81,2.31A7,7,0,0,0,965.71,426Z"/></g><g id="g324"><path id="path326" class="cls-1" d="M975.63,429a1.79,1.79,0,0,0,.21-2.78,6.05,6.05,0,0,0-4.15-1.74,7.41,7.41,0,0,0-5.52,2.76,6.77,6.77,0,0,0,5.45,3,7,7,0,0,0,4-1.26"/></g><g id="g328"><path id="path330" class="cls-6" d="M975.63,429a1.79,1.79,0,0,0,.21-2.78,6.05,6.05,0,0,0-4.15-1.74,7.41,7.41,0,0,0-5.52,2.76,6.77,6.77,0,0,0,5.45,3A7,7,0,0,0,975.63,429Z"/></g><g id="g332"><path id="path334" class="cls-1" d="M977.07,420.48a1.79,1.79,0,0,0,.44-2.75,6.06,6.06,0,0,0-4-2.08,7.41,7.41,0,0,0-5.73,2.29A6.78,6.78,0,0,0,973,421.4a7,7,0,0,0,4.09-.92"/></g><g id="g336"><path id="path338" class="cls-6" d="M977.07,420.48a1.79,1.79,0,0,0,.44-2.75,6.06,6.06,0,0,0-4-2.08,7.41,7.41,0,0,0-5.73,2.29A6.78,6.78,0,0,0,973,421.4,7,7,0,0,0,977.07,420.48Z"/></g><g id="g340"><path id="path342" class="cls-1" d="M980.53,413.07a1.79,1.79,0,0,0,1.08-2.57,6.07,6.07,0,0,0-3.39-3,7.39,7.39,0,0,0-6.1.87,6.81,6.81,0,0,0,4.22,4.59,7,7,0,0,0,4.19.07"/></g><g id="g344"><path id="path346" class="cls-6" d="M980.53,413.07a1.79,1.79,0,0,0,1.08-2.57,6.07,6.07,0,0,0-3.39-3,7.39,7.39,0,0,0-6.1.87,6.81,6.81,0,0,0,4.22,4.59A7,7,0,0,0,980.53,413.07Z"/></g><g id="g348"><path id="path350" class="cls-1" d="M967.65,417.65s0-3.72-3.06-5.46a6.92,6.92,0,0,0-4.29-.83,1.77,1.77,0,0,0-1.46,2.35,6.35,6.35,0,0,0,2.81,3.46,7,7,0,0,0,6,.49"/></g><g id="g352"><path id="path354" class="cls-6" d="M967.65,417.65s0-3.72-3.06-5.46a6.92,6.92,0,0,0-4.29-.83,1.77,1.77,0,0,0-1.46,2.35,6.35,6.35,0,0,0,2.81,3.46A7,7,0,0,0,967.65,417.65Z"/></g><g id="g356"><path id="path358" class="cls-1" d="M971.9,409.47s.51-3.69-2.21-5.86a6.81,6.81,0,0,0-3.55-1.43,2.07,2.07,0,0,0-2.22,2.63,6.27,6.27,0,0,0,2.13,3.27,7,7,0,0,0,5.85,1.38"/></g><g id="g360"><path id="path362" class="cls-6" d="M971.9,409.47s.51-3.69-2.21-5.86a6.81,6.81,0,0,0-3.55-1.43,2.07,2.07,0,0,0-2.22,2.63,6.27,6.27,0,0,0,2.13,3.27A7,7,0,0,0,971.9,409.47Z"/></g><g id="g364"><path id="path366" class="cls-6" d="M965.71,426s-1.28-3.49-4.7-4.11a6.91,6.91,0,0,0-4.33.67,1.77,1.77,0,0,0-.58,2.7,6.32,6.32,0,0,0,3.81,2.31A7,7,0,0,0,965.71,426Z"/></g><g id="g368"><path id="path370" class="cls-6" d="M975.63,429a1.79,1.79,0,0,0,.21-2.78,6.05,6.05,0,0,0-4.15-1.74,7.41,7.41,0,0,0-5.52,2.76,6.77,6.77,0,0,0,5.45,3A7,7,0,0,0,975.63,429Z"/></g><g id="g372"><path id="path374" class="cls-6" d="M977.07,420.48a1.79,1.79,0,0,0,.44-2.75,6.06,6.06,0,0,0-4-2.08,7.41,7.41,0,0,0-5.73,2.29A6.78,6.78,0,0,0,973,421.4,7,7,0,0,0,977.07,420.48Z"/></g><g id="g376"><path id="path378" class="cls-6" d="M980.53,413.07a1.79,1.79,0,0,0,1.08-2.57,6.07,6.07,0,0,0-3.39-3,7.39,7.39,0,0,0-6.1.87,6.81,6.81,0,0,0,4.22,4.59A7,7,0,0,0,980.53,413.07Z"/></g><g id="g380"><path id="path382" class="cls-6" d="M967.65,417.65s0-3.72-3.06-5.46a6.92,6.92,0,0,0-4.29-.83,1.77,1.77,0,0,0-1.46,2.35,6.35,6.35,0,0,0,2.81,3.46A7,7,0,0,0,967.65,417.65Z"/></g><g id="g384"><path id="path386" class="cls-6" d="M971.9,409.47s.51-3.69-2.21-5.86a6.81,6.81,0,0,0-3.55-1.43,2.07,2.07,0,0,0-2.22,2.63,6.27,6.27,0,0,0,2.13,3.27A7,7,0,0,0,971.9,409.47Z"/></g><g id="g388"><path id="path390" class="cls-3" d="M944.15,432.36a10.77,10.77,0,0,1-.22-3.69,22,22,0,0,1,.64-3.64,25.69,25.69,0,0,1,1.22-3.49,13.13,13.13,0,0,1,1.89-3.18l.46.27c-.75,2.27-1.56,4.48-2.11,6.78-.28,1.14-.56,2.29-.78,3.45a29.18,29.18,0,0,1-.84,3.51Z"/></g><g id="g392"><path id="path394" class="cls-3" d="M943.78,432.36a4,4,0,0,1,.14-2.79,8.28,8.28,0,0,1,1.47-2.37,16,16,0,0,1,4.15-3.27l.38.37a11.42,11.42,0,0,1-1.69,2c-.6.61-1.18,1.21-1.7,1.84a12.71,12.71,0,0,0-1.4,1.95c-.39.69-.71,1.39-1.09,2.22Z"/></g><g id="g396"><path id="path398" class="cls-3" d="M965.93,433.6a36.7,36.7,0,0,1-.1-8.07,38.91,38.91,0,0,1,1.55-8,27.93,27.93,0,0,1,8.85-13.45l.37.38a40.73,40.73,0,0,0-4.67,6.35,32,32,0,0,0-3.11,7.17,49.62,49.62,0,0,0-1.66,7.69c-.37,2.61-.61,5.25-1,7.91Z"/></g><polygon id="path400" class="cls-7" points="626.83 318.07 762.3 318.07 762.3 433.34 626.83 433.34 626.83 318.07"/><g id="g402"><path id="path404" class="cls-8" d="M641.78,343.68v39.66H702.1V328H657.49a15.72,15.72,0,0,0-15.72,15.72"/></g><polygon id="path406" class="cls-8" points="713.97 426.85 749.57 426.85 749.57 327.96 713.97 327.96 713.97 426.85"/><polygon id="path408" class="cls-1" points="719.14 371.78 744.87 371.78 744.87 334.32 719.14 334.32 719.14 371.78"/><g id="g410"><path id="path412" class="cls-4" d="M626.83,297.14H777.35v7.37a13.53,13.53,0,0,1-13,13.52c-.65,0-1.33,0-2,0H626.83Z"/></g><g id="g414"><polygon id="path416" class="cls-4" points="777.36 297.14 745.8 249.59 626.84 249.59 626.84 297.14 777.36 297.14"/></g><g id="g418"><polygon id="path420" class="cls-4" points="626.84 237.03 744.9 237.03 745.8 249.59 626.84 249.59 626.84 237.03"/></g><g id="g426"><path id="path428" class="cls-9" d="M746.83,391.92c3.3-1.08,6.59-1,9.89-1.09s6.59-.12,9.89-.15,6.59,0,9.89.15,6.59,0,9.89,1.09v.67c-3.3,1.08-6.59,1-9.89,1.09s-6.59.12-9.89.15-6.59-.05-9.89-.16-6.59,0-9.89-1.09Z"/></g><g id="g434"><path id="path436" class="cls-9" d="M765.72,431.37c-.63-1.65-.4-3.3-.47-4.94l-.06-4.95c0-3.3-.11-6.59-.07-9.89s0-6.59.12-9.89a43.54,43.54,0,0,1,.93-9.89H767a43.54,43.54,0,0,1,.93,9.89c.07,3.3.12,6.59.12,9.89s-.05,6.59-.07,9.89l-.06,4.95c-.07,1.65.16,3.3-.47,4.94Z"/></g><g id="g442"><path id="path444" class="cls-9" d="M758.83,431.68c1.3-1.08,2.59-1,3.89-1.09s2.59-.15,3.89-.16,2.59.06,3.89.15,2.59,0,3.89,1.09v.67c-1.3,1.08-2.59,1-3.89,1.09s-2.59.15-3.89.15-2.59-.06-3.89-.15-2.59,0-3.89-1.09Z"/></g><g id="g446"><path id="path448" class="cls-9" d="M784.23,410.75c.41-.44.82-.27,1.23-.33l1.23,0c.82,0,1.63-.08,2.45-.05s1.63,0,2.45.08a4.28,4.28,0,0,1,2.45.64v.61a4.28,4.28,0,0,1-2.45.65c-.82,0-1.63.08-2.45.08s-1.63,0-2.45-.05l-1.23,0c-.41-.05-.82.11-1.23-.33Z"/></g><g id="g450"><path id="path452" class="cls-9" d="M809.64,388.62c.09,2.3-.84,4.11-1.59,6l-2.26,5.66c-.79,1.86-1.53,3.74-2.29,5.6-.37.93-.67,1.88-1,2.8a14.16,14.16,0,0,1-1.46,2.71l-.67,0c-.84-2.28-.08-4.4.48-6.37s1.31-4,2.06-5.88,1.65-3.79,2.58-5.62,1.71-3.75,3.58-5.13Z"/></g><g id="g454"><path id="path456" class="cls-9" d="M785.14,433.18c-.46-1-.05-1.93,0-2.87l.45-2.8c.31-1.86.56-3.74.93-5.59s.72-3.71,1.12-5.55a14.73,14.73,0,0,1,1.93-5.41l.87.16a14.72,14.72,0,0,1-.09,5.74c-.27,1.87-.55,3.74-.89,5.59s-.72,3.71-1.08,5.56l-.56,2.78c-.24.92-.18,1.89-1,2.7Z"/></g><g id="g458"><path id="path460" class="cls-9" d="M750.68,412.26c-.85.63-1.7.4-2.56.47l-2.55.06c-1.7,0-3.41.11-5.11.07s-3.41,0-5.11-.12a12.16,12.16,0,0,1-5.11-.93v-.89a12.14,12.14,0,0,1,5.11-.93c1.7-.07,3.41-.12,5.11-.12s3.41.05,5.11.07l2.55.06c.85.07,1.7-.16,2.56.47Z"/></g><g id="g462"><path id="path464" class="cls-9" d="M725.87,388.33c1.87,1.38,2.65,3.3,3.58,5.13s1.77,3.73,2.58,5.62,1.48,3.87,2.06,5.88,1.32,4.09.48,6.37l-.66,0a14,14,0,0,1-1.46-2.71c-.37-.92-.67-1.87-1-2.8-.75-1.86-1.49-3.74-2.29-5.6l-2.26-5.66c-.74-1.9-1.68-3.7-1.59-6Z"/></g><g id="g466"><path id="path468" class="cls-9" d="M748,433.5c-.79-.82-.73-1.79-1-2.7L746.5,428c-.36-1.85-.78-3.7-1.08-5.56s-.62-3.72-.89-5.59a14.76,14.76,0,0,1-.09-5.74l.87-.16a14.73,14.73,0,0,1,1.92,5.41c.4,1.85.79,3.69,1.12,5.55s.62,3.73.93,5.59l.45,2.8c.09.94.5,1.83,0,2.87Z"/></g><g id="g470"><path id="path472" class="cls-9" d="M731.27,433.16c-.42-1.06,0-1.94.14-2.89l.55-2.8c.38-1.86.69-3.74,1.13-5.59s.85-3.7,1.31-5.55a15,15,0,0,1,2.11-5.38l.87.19a15,15,0,0,1-.29,5.77c-.33,1.87-.68,3.74-1.09,5.6s-.85,3.7-1.27,5.56l-.65,2.77c-.27.91-.24,1.89-1.06,2.69Z"/></g><g id="g474"><path id="path476" class="cls-10" d="M747.06,423.17H734.33"/></g><polygon id="path478" class="cls-8" points="626.67 433.19 492.85 433.19 492.85 238.85 626.67 238.85 626.67 433.19"/><g id="g480"><path id="path482" class="cls-7" d="M575.24,369.41h-59.6a10.84,10.84,0,0,1-10.84-10.84V299h70.44Z"/></g><polygon id="path484" class="cls-1" points="615.9 269.19 504.79 269.19 504.79 291.86 615.9 291.86 615.9 269.19"/><polygon id="path486" class="cls-7" points="615.9 382.08 582.13 382.08 582.13 298.97 615.9 298.97 615.9 382.08"/><g id="g492"><path id="path494" class="cls-9" d="M492.35,381.19c5.68-.62,11.37-.4,17-.47l17-.06c11.37,0,22.73-.13,34.1-.05l34.1.11c11.37,0,22.73.15,34.1.91v.89c-11.37.77-22.73.92-34.1.92l-34.1.11c-11.37.07-22.73,0-34.1-.06l-17-.06c-5.68-.07-11.37.15-17-.47Z"/></g><g id="g500"><path id="path502" class="cls-9" d="M626.67,395.41c-2,.63-3.95.4-5.92.47l-5.92.06c-3.95,0-7.89.11-11.84.07s-7.89,0-11.84-.12a62.17,62.17,0,0,1-11.84-.93v-.89a62.07,62.07,0,0,1,11.84-.93c3.95-.07,7.89-.12,11.84-.12s7.89.05,11.84.07l5.92.06c2,.07,3.95-.16,5.92.47Z"/></g><g id="g508"><path id="path510" class="cls-9" d="M579.32,404.3c2-.63,3.95-.4,5.92-.47l5.92-.06c3.95,0,7.89-.11,11.84-.07s7.89,0,11.84.12a62.07,62.07,0,0,1,11.84.93v.89a62.07,62.07,0,0,1-11.84.93c-3.95.07-7.89.12-11.84.12s-7.89-.05-11.84-.07l-5.92-.06c-2-.07-3.95.16-5.92-.47Z"/></g><g id="g516"><path id="path518" class="cls-9" d="M579.32,415c2-.63,3.95-.4,5.92-.47l5.92-.06c3.95,0,7.89-.11,11.84-.07s7.89,0,11.84.12a62.07,62.07,0,0,1,11.84.93v.89a62.07,62.07,0,0,1-11.84.93c-3.95.07-7.89.12-11.84.12s-7.89-.05-11.84-.07l-5.92-.06c-2-.07-3.95.16-5.92-.47Z"/></g><g id="g520"><path id="path522" class="cls-1" d="M530.06,337l-6.16-3c4.51-13,14.21-13.39,14.21-13.39l3.52,2.36,3.57-2.36c8.09,2,10.93,12,10.93,15.18l-6,1.62.52,13.94H529.3Z"/></g><g id="g524"><polygon id="path526" class="cls-11" points="335.19 433.1 335.19 274.25 368.87 218.96 408.9 278.06 493.01 278.69 493.01 433.1 335.19 433.1"/></g><polygon id="path528" class="cls-4" points="378.22 392.25 358.52 392.25 358.52 340.52 378.22 340.52 378.22 392.25"/><g id="g530"><polygon id="path532" class="cls-4" points="416.49 334.27 416.49 433.56 444.43 433.56 472.37 433.56 472.37 334.27 416.49 334.27"/></g><g id="g534"><path id="path536" class="cls-4" d="M368.37,260.12c-1.71,0-9.85.65-9.85,10.74v35h19.7v-35c0-10.09-8.14-10.72-9.85-10.74"/></g><polygon id="path538" class="cls-7" points="462.06 433.56 426.79 433.56 426.79 362.34 462.06 362.34 462.06 433.56"/><g id="g540"><polygon id="path542" class="cls-4" points="318.7 278.12 368.17 199.92 391.04 231.41 493.01 231.36 493.01 278.78 408.2 278.52 368.17 219.42 332.52 278.12 318.7 278.12"/></g><g id="g544"><path id="path546" class="cls-11" d="M561,238.85h75.32c-11.78-9.67-19.63-60-19.63-60L561,178h-.35l-55.69.82s-7.85,50.33-19.63,60h75.32"/></g><g id="g548"><path id="path550" class="cls-8" d="M415.55,338.31a28.94,28.94,0,1,1,57.89,0v8H415.55Z"/></g><g id="g552"><path id="path554" class="cls-1" d="M474.79,433.73c-5.06.51-10.11.5-15.17.53l-15.17.09-15.17-.09c-5.06,0-10.11,0-15.17-.53v-.33c5.06-.51,10.11-.5,15.17-.53l15.17-.09,15.17.09c5.06,0,10.11,0,15.17.53Z"/></g><g id="g556"><path id="path558" class="cls-4" d="M451.64,329a4.66,4.66,0,0,0-.74-5.59,44.85,44.85,0,0,0-6.4-4.93s-.54,1.42-3.28,2.17c-3.89,1.07-3.11,3.7-3.11,3.7-2,1.1-2.83,3.17-1.33,4.65"/></g><g id="g560"><path id="path562" class="cls-7" d="M435.87,329.42l2,7.45a3,3,0,0,0,2.86,2.18H448a3,3,0,0,0,2.86-2.17l2.08-7.46"/></g><g id="g564"><path id="path566" class="cls-7" d="M436.85,329.48a3.18,3.18,0,0,1-.86-3.73,5,5,0,0,1,3.13-2.46,15.76,15.76,0,0,1,3.73-.6c1.19-.09,2.37-.31,3.58-.51l.12.38a12.73,12.73,0,0,1-3.58,1.1,15.91,15.91,0,0,0-3.49.7,4.48,4.48,0,0,0-2.59,1.83,3.43,3.43,0,0,0,.12,3.16Z"/></g><g id="g568"><path id="path570" class="cls-11" d="M434.64,328.7a7,7,0,0,1,2.4-.24l2.4,0c1.6,0,3.2-.06,4.81,0s3.2,0,4.81.06a20.55,20.55,0,0,1,4.81.47v.44a20.62,20.62,0,0,1-4.81.47c-1.6,0-3.2.06-4.81.06s-3.2,0-4.81,0l-2.4,0a7.06,7.06,0,0,1-2.4-.24Z"/></g><g id="g572"><path id="path574" class="cls-7" d="M450.77,322.52a2.57,2.57,0,0,1-.64,2.2,5.3,5.3,0,0,1-1.86,1.35,8.6,8.6,0,0,1-4.29.69l0-.4A35.77,35.77,0,0,0,447.8,325a6.58,6.58,0,0,0,1.6-1,5.43,5.43,0,0,0,1.17-1.53Z"/></g><g id="g576"><path id="path578" class="cls-8" d="M425.2,346a4.82,4.82,0,1,1-4.82-4.82A4.82,4.82,0,0,1,425.2,346"/></g><g id="g580"><path id="path582" class="cls-8" d="M434.85,346a4.82,4.82,0,1,1-4.82-4.82,4.82,4.82,0,0,1,4.82,4.82"/></g><g id="g584"><path id="path586" class="cls-8" d="M444.5,346a4.82,4.82,0,1,1-4.82-4.82A4.82,4.82,0,0,1,444.5,346"/></g><g id="g588"><path id="path590" class="cls-8" d="M454.14,346a4.82,4.82,0,1,1-4.82-4.82,4.82,4.82,0,0,1,4.82,4.82"/></g><g id="g592"><path id="path594" class="cls-8" d="M463.79,346a4.82,4.82,0,1,1-4.82-4.82,4.82,4.82,0,0,1,4.82,4.82"/></g><g id="g596"><path id="path598" class="cls-8" d="M473.44,346a4.82,4.82,0,1,1-4.82-4.82,4.82,4.82,0,0,1,4.82,4.82"/></g><g id="g600"><path id="path602" class="cls-12" d="M655.38,380.64c-.19-9.91,3.18-16.68,7.07-18.61,2.13-1.07,5.25-.11,6.83,1.57a9.92,9.92,0,0,1,2.54,7.5l-1,10.89"/></g><g id="g604"><path id="path606" class="cls-13" d="M665.29,356.85c5-.88,6.56,4.73,6.56,4.73"/></g><g id="g608"><path id="path610" class="cls-13" d="M667.75,362.15c2.06-.28,6.39-.28,7,2.26a3.37,3.37,0,0,1-1.29,3.23"/></g><g id="g612"><path id="path614" class="cls-13" d="M666.83,359.75c-2.59-1.8-5.57-2.69-7.46-.81-.82.81-.6,3.06,1.25,4.34"/></g><g id="g616"><path id="path618" class="cls-14" d="M674.64,343.71l-2.27,8.63c-.67,2-4.78,6.93-6.87,6.61l-5.3-1.27s.67-19.61,14.43-14"/></g><g id="g620"><polyline id="path622" class="cls-12" points="654.42 383.34 655.38 380.64 670.8 381.98 670.97 383.16"/></g><g id="g624"><path id="path626" class="cls-7" d="M664.33,365.41c4.07.14,6.55,17.76,6.55,17.76l8.28,13.53-1.09.68a5.32,5.32,0,0,1-7.17-1.5l-6.26-9.08s-7.32-21.63-.3-21.39"/></g><g id="g628"><path id="path630" class="cls-15" d="M674.39,344.28a3.45,3.45,0,0,1,2.21,3.11c.31,2.51,2.3,3.08,2.32,4.33,0,1-1.61,1.07-1.84,1.93a6.65,6.65,0,0,1-6.45,5.29"/></g><g id="g632"><path id="path634" class="cls-16" d="M674.39,355.46a2.69,2.69,0,0,0,1.48.54"/></g><g id="g636"><path id="path638" class="cls-14" d="M674.64,343.71c.94,1.53,2,3.68,2,3.68l-4.75.53.25-2.75,2.54-1.45"/></g><g id="g640"><path id="path642" class="cls-17" d="M675,351.78h0a.48.48,0,0,1-.45-.5l0-.82a.47.47,0,1,1,.94,0l0,.82a.48.48,0,0,1-.49.47"/></g><g id="g644"><path id="path646" class="cls-3" d="M.71,432.24l62.15-.45,62.15-.22,124.31-.41L497.93,431l248.61.22,124.31.29,62.15.16,62.15.3a.53.53,0,0,1,0,1.07l-62.15.3-62.15.16-124.31.29L497.93,434l-248.61-.17L125,433.44l-62.15-.22L.71,432.77a.27.27,0,0,1,0-.53"/></g><g id="g648"><path id="path650" class="cls-3" d="M472.7,448.8c5.5-.37,11-.44,16.49-.54l16.49-.08c11,.08,22,0,33,.49a.27.27,0,0,1,0,.53c-11,.45-22,.41-33,.49l-16.49-.08c-5.5-.09-11-.17-16.49-.54a.13.13,0,0,1-.12-.14.13.13,0,0,1,.12-.13"/></g><g id="g652"><path id="path654" class="cls-3" d="M81.43,448.8c3.28-.37,6.55-.44,9.83-.54l9.83-.09c6.55.08,13.1,0,19.65.49a.27.27,0,0,1,0,.53c-6.55.45-13.1.41-19.65.49l-9.83-.08c-3.27-.09-6.55-.17-9.83-.54a.13.13,0,0,1,0-.27"/></g><g id="g656"><path id="path658" class="cls-3" d="M705.92,451.92c3.28-.37,6.55-.44,9.83-.54l9.83-.09c6.55.08,13.1,0,19.65.49a.27.27,0,0,1,0,.53c-6.55.45-13.1.41-19.65.49l-9.83-.08c-3.27-.09-6.55-.17-9.83-.54a.13.13,0,0,1,0-.27"/></g><g id="g660"><path id="path662" class="cls-3" d="M686.26,472.14a60.45,60.45,0,0,1,7.16-.54c2.39-.06,4.77-.09,7.16-.08,4.77.08,9.55,0,14.32.49a.27.27,0,0,1,0,.53c-4.77.45-9.55.41-14.32.49-2.39,0-4.77,0-7.16-.08a60.45,60.45,0,0,1-7.16-.54.13.13,0,0,1-.11-.15.13.13,0,0,1,.11-.11"/></g><g id="g664"><path id="path666" class="cls-3" d="M976.93,468a49.82,49.82,0,0,1,6.49-.54c2.16-.06,4.33-.1,6.49-.08,4.33.08,8.66,0,13,.49a.27.27,0,0,1,0,.53c-4.33.45-8.66.41-13,.49-2.16,0-4.33,0-6.49-.08a49.82,49.82,0,0,1-6.49-.54.14.14,0,0,1,0-.27"/></g><g id="g668"><polygon id="path670" class="cls-1" points="887.41 444.48 887.72 505.08 887.56 512.56 876.87 512.56 874.53 476.86 872.11 512.56 862 512.56 860.66 473.97 861.3 455.79 862.93 443.75 887.41 444.48"/></g><g id="g672"><path id="path674" class="cls-18" d="M201.49,361.85a7.07,7.07,0,0,0,2.54-.51,8.87,8.87,0,0,0,6.13-9.22c0-1.17,2-2,1.58-3.16-.52-1.56-3.29-1.45-4.69-4.44-1.57-3.36-5.73-4.21-9.62-2.91a10.4,10.4,0,0,0-6.56,13.16"/></g><g id="g676"><path id="path678" class="cls-19" d="M200.36,348.84c1.52,3.79,1.14,10.11-2.78,11.62s-6.71-5.69-6.71-5.69Z"/></g><g id="g680"><path id="path682" class="cls-20" d="M189.41,403.85c-3.41,26.34-.55,82.61-.55,82.61h12.88l1.14-47.18"/></g><g id="g684"><path id="path686" class="cls-17" d="M188.86,485.14c3.92.13,15.79.88,17.56,1.52s1.89.88-.25,1.39-17.3,0-17.3,0Z"/></g><g id="g688"><path id="path690" class="cls-21" d="M188.86,485.14c3.92.13,15.79.88,17.56,1.52s1.89.88-.25,1.39-17.3,0-17.3,0Z"/></g><g id="g692"><path id="path694" class="cls-4" d="M210.46,403.28s1.41,20,2.08,40.55c.57,17.21-1.5,35.38-1.33,42.63h-14c.19-42.06-8.17-59.49-7.79-82.61"/></g><g id="g696"><path id="path698" class="cls-4" d="M274.19,488.35c-1.67.58-7,1.61-8.63,2.13a1.22,1.22,0,0,0,.38,2.38h14.37a2.72,2.72,0,0,0,2.69-3.11l-.23-1.63Z"/></g><g id="g700"><path id="path702" class="cls-4" d="M188.37,374.77a119.11,119.11,0,0,0,1,29.08l21.24-.57-.32-13-4.93-2.65,6-11.62-4-4.17-6-6.24a10.65,10.65,0,0,0-13,9.18"/></g><g id="g704"><polygon id="path706" class="cls-7" points="203.45 386.61 204.4 455.58 213.31 455.58 211.98 390.78 203.45 386.61"/></g><g id="g708"><path id="path710" class="cls-18" d="M201,383.77c8.34,7.2,16.48,9.28,19.89,6.44,5.09-4.25-3.95-21-4.55-23.49-2.08-8.53-6.82-8.53-8-7.58s1.14,6.25,1.14,6.25l2.08,11.37"/></g><g id="g712"><path id="path714" class="cls-22" d="M206.67,372.21l7.77,7.39"/></g><g id="g716"><path id="path718" class="cls-4" d="M197.2,485.14c3.92.13,15.79.88,17.56,1.52s1.89,1.64-.25,2.15-17.3,0-17.3,0Z"/></g><g id="g720"><polygon id="path722" class="cls-22" points="203.27 362.1 202.13 365.58 201.24 361.98 203.27 362.1"/></g><g id="g724"><path id="path726" class="cls-23" d="M207.05,402.91c-6.44,2.84-18.95,1.33-18.95,1.33"/></g><g id="g728"><path id="path730" class="cls-24" d="M214.38,422.1a23.11,23.11,0,0,1-7.24-.13"/></g><g id="g732"><path id="path734" class="cls-23" d="M196.65,365.93c3.35-1.14-3.92-5-4.35-2.41S193.79,366.91,196.65,365.93Z"/></g><g id="g736"><path id="path738" class="cls-23" d="M198.15,365.39s4.17.57,6.25,2.65"/></g><g id="g740"><path id="path742" class="cls-23" d="M190.19,355.73,211,341.52"/></g><g id="g744"><path id="path746" class="cls-22" d="M207.62,355.41a4.16,4.16,0,0,0,1.7-.23"/></g><g id="g748"><path id="path750" class="cls-17" d="M206.72,351.05h0a.6.6,0,0,1-.69-.48l-.18-1a.6.6,0,1,1,1.17-.22l.18,1a.59.59,0,0,1-.48.69"/></g><g id="g752"><polygon id="path754" class="cls-1" points="632.32 381.03 630.79 381.55 629.72 385.34 630.79 400.56 630.17 403.88 630.06 412.34 633.41 417.19 635.78 417.65 638.18 414.36 642.03 414.81 645.18 397.84 632.32 381.03"/></g><g id="g756"><path id="path758" class="cls-25" d="M632.66,458.94c-5.87,11.18-6.82,15.73-5.87,22.17s7.2,14.78,7.2,14.78"/></g><g id="g760"><path id="path762" class="cls-7" d="M650,413.4c1.64,9.6,2,27.73,2,27.73l-17.81.76s-3.41-20.84-1.52-24.63"/></g><g id="g764"><path id="path766" class="cls-25" d="M630.32,402.44c-1.57,13,4.42,17.5,6.44,14.92"/></g><g id="g768"><path id="path770" class="cls-18" d="M629.12,384.48a5.58,5.58,0,0,0-2.62,4c-.4,3.1-2.92,3.8-2.94,5.35,0,1.2,2,1.32,2.33,2.39a8.37,8.37,0,0,0,8.17,6.52"/></g><g id="g772"><path id="path774" class="cls-22" d="M628.7,396.95a3.64,3.64,0,0,1-1.76,1.79"/></g><g id="g776"><path id="path778" class="cls-17" d="M628,393.07h0a.56.56,0,0,0,.54-.58l0-1a.56.56,0,0,0-1.13,0l0,1a.56.56,0,0,0,.58.54"/></g><g id="g780"><path id="path782" class="cls-17" d="M646.3,408.65c-5.06-2.07-15.45,17-15.45,17l-10.51-17.1-5.87,2.37S619.86,435,630.16,436s18.55-14.32,18.55-14.32,4.12-10.33-2.4-13"/></g><g id="g784"><path id="path786" class="cls-25" d="M651,440.18c4.74,11.75-.76,79-.76,79H636.63s-6.82-64.61-2.08-78.25"/></g><g id="g788"><path id="path790" class="cls-23" d="M629.72,384.06c3.34,2.86,3.65,9.84,4.3,12.89.82,3.9,2.08,7.44-1.37,7.68"/></g><g id="g792"><path id="path794" class="cls-25" d="M647.23,402.62c3.58-7.76-.32-20.7-8.68-22.38-2.77-.55-6.18.77-7.76,1.31"/></g><g id="g796"><polyline id="path798" class="cls-23" points="652.36 495.5 661.27 507.44 650.28 519.19"/></g><g id="g800"><path id="path802" class="cls-18" d="M620,409.39c-.31-4-2.08-15.63-4-14.87s-.38,6.44-.95,8.34a10.07,10.07,0,0,0,.19,8"/></g><g id="g804"><path id="path806" class="cls-22" d="M614.56,403.15s-1-2-1.36-1.56,1.05,3,1.05,3"/></g><g id="g808"><path id="path810" class="cls-25" d="M640.7,396c0,3.58-1.43,6.62-3,7.34"/></g><g id="g812"><path id="path814" class="cls-23" d="M648.57,448.89l-3.79,7.2"/></g><g id="g816"><path id="path818" class="cls-25" d="M645.71,395.25c2.39,8.71.81,20.88-8.41,19.45"/></g><g id="g820"><path id="path822" class="cls-1" d="M451.14,410.07s-9-.87-10.59,5c0,0-1,4.24.71,7.57v2.26a10.13,10.13,0,0,0-5.07-.87s-3.08.86-2.22,2.89l2,3.08,12.85,7.46s4.25-4.72,2.9-7l-2.9-1.64-1.37-3.52Z"/></g><g id="g824"><path id="path826" class="cls-1" d="M427.06,380s-4.83-4.74-8.76-3.94c0,0-9.2.57-9.41,8.36,0,0,.31,6.91,2.14,10.55l2.44,1.61-.61,2-1.86-.38-3.54,7,14.17,7.22,2.4-10.08L421,401.3l1.74-4.48Z"/></g><g id="g828"><path id="path830" class="cls-3" d="M421.45,401.3l1.29-4.59c3.79.52,5.37-1.58,6.79-4.89.4-.94,2.25-.78,2.39-1.88.18-1.43-2-2.41-1.93-5.3,0-1.62-.31-3.74-1.82-4,0,0-7.2,3.09-10.82,6.92-1.62,4.45-2.57,6.55-2.57,6.55l-1.9,4.56Z"/></g><g id="g832"><path id="path834" class="cls-1" d="M448.74,438.94l-1.17,12.46s-6.75,17.6-1.14,10.89c-7.4,8.85-16.31-2.15-16.51-12.43-.22-11.35,3.64-19.09,8.09-21.31,2.44-1.22,6-.12,7.81,1.8a11.37,11.37,0,0,1,2.91,8.59"/></g><g id="g836"><path id="path838" class="cls-26" d="M448.74,438.94l-1.17,12.46s-6.75,17.6-1.14,10.89c-7.4,8.85-16.31-2.15-16.51-12.43-.22-11.35,3.64-19.09,8.09-21.31,2.44-1.22,6-.12,7.81,1.8A11.37,11.37,0,0,1,448.74,438.94Z"/></g><g id="g840"><path id="path842" class="cls-23" d="M441.27,422.63c5.74-1,7.51,5.41,7.51,5.41"/></g><g id="g844"><path id="path846" class="cls-23" d="M444.08,428.69c2.36-.32,7.31-.32,8,2.59a3.85,3.85,0,0,1-1.47,3.69"/></g><g id="g848"><path id="path850" class="cls-23" d="M443,426c-3-2.06-6.37-3.08-8.53-.93-.94.93-.68,3.5,1.44,5"/></g><g id="g852"><path id="path854" class="cls-22" d="M399.36,464.71c1.71,11.3-17.81,43.64-17.81,43.64l9,13s17.12-24.6,20.51-34.79"/></g><g id="g856"><polyline id="path858" class="cls-22" points="426.1 479.17 434.47 522.76 420.64 524.39 407.47 472.86"/></g><g id="g860"><path id="path862" class="cls-4" d="M415.74,404.79c9.8,5,9,20.43,10.16,27.36s2.75,46.67,2.75,46.67l-36.83-1.44s-1-85.39,23.91-72.59"/></g><g id="g864"><path id="path866" class="cls-7" d="M448.71,481.74,455.22,518a2.53,2.53,0,0,0,2.16,2c1.91.27,4.63,1.06,4.63,3.38,0,.58-4.81.8-8.49.88a5.47,5.47,0,0,1-5.34-3.84L437.07,485"/></g><g id="g868"><path id="path870" class="cls-7" d="M440.45,486.09,420.29,517a2.53,2.53,0,0,0,.17,3c1.2,1.5,2.64,3.95,1.05,5.63-.4.42-4-2.72-6.78-5.18a5.47,5.47,0,0,1-1.26-6.46l16.26-33.44"/></g><g id="g872"><path id="path874" class="cls-14" d="M452,407.58,449,416.44a5,5,0,0,1-5.46,3.33l-7.38-1.16s4-15,15.78-11"/></g><g id="g876"><path id="path878" class="cls-22" d="M427.06,392a3.33,3.33,0,0,0,1.59,1.67"/></g><g id="g880"><polygon id="path882" class="cls-1" points="447.57 451.4 455.11 504 412.41 498.85 429.92 449.86 447.57 451.4"/></g><g id="g884"><polygon id="path886" class="cls-26" points="447.57 451.4 455.11 504 412.41 498.85 429.92 449.86 447.57 451.4"/></g><g id="g888"><path id="path890" class="cls-7" d="M442,431.85c4.36,1.65.58,21.66.58,21.66l4,17.71-1.44.33a6.09,6.09,0,0,1-7.23-4.26l-3.46-12.14s0-26.15,7.53-23.3"/></g><g id="g892"><path id="path894" class="cls-22" d="M407.12,415c-2,15.12-3,19.28,3,28.74a85.45,85.45,0,0,0,8.45,10.45"/></g><g id="g896"><path id="path898" class="cls-22" d="M417.06,421.07s.11,6.3,0,9.09"/></g><g id="g900"><path id="path902" class="cls-22" d="M419.22,433l-4.76-.7"/></g><g id="g904"><path id="path906" class="cls-22" d="M421,435l-2.66,1.26"/></g><g id="g908"><path id="path910" class="cls-24" d="M425.39,446.12l-10.92,13.12"/></g><g id="g912"><path id="path914" class="cls-22" d="M421,437.45l4.42,8.67"/></g><g id="g916"><path id="path918" class="cls-22" d="M419.87,387.6l13.19-3.34"/></g><g id="g920"><path id="path922" class="cls-22" d="M432.64,382l.84,4.84"/></g><g id="g924"><path id="path926" class="cls-22" d="M427.56,378.28c-.22,4.57-7.87,6-10.21,9.23a7.29,7.29,0,0,0-1.47,6.06"/></g><g id="g928"><path id="path930" class="cls-22" d="M424.73,378.28c-2.25-3.34-11.45-3.06-14.37,1.71-3.64,5.93.69,15,.69,15"/></g><g id="g932"><polyline id="path934" class="cls-26" points="410.35 397.61 424.04 402.06 422.87 406.31"/></g><g id="g936"><path id="path938" class="cls-22" d="M428.17,380.6a5.24,5.24,0,0,1,1.82,4c0,2.89,2.11,3.88,1.93,5.3-.14,1.1-2,.94-2.39,1.88-1.42,3.31-3,5.41-6.79,4.89l-1.29,4.59"/></g><g id="g940"><path id="path942" class="cls-14" d="M438.87,410.07h2.39v-2.39a2.4,2.4,0,1,0-2.39,2.39"/></g><g id="g944"><path id="path946" class="cls-18" d="M451.68,408.24a4,4,0,0,1,2.53,3.56c.36,2.87,2.64,3.52,2.65,5,0,1.11-1.84,1.23-2.1,2.21-.94,3.49-3.57,6-7.39,6.05"/></g><g id="g948"><path id="path950" class="cls-27" d="M451.68,421a3.07,3.07,0,0,0,1.69.62"/></g><g id="g952"><path id="path954" class="cls-14" d="M452,407.58c1.07,1.75,2.24,4.21,2.24,4.21l-5.44.61.29-3.15,2.91-1.67"/></g><g id="g956"><path id="path958" class="cls-17" d="M452.36,416.83h0a.55.55,0,0,1-.52-.57l0-.94a.54.54,0,1,1,1.08,0l0,.94a.55.55,0,0,1-.56.53"/></g><g id="g960"><polygon id="path962" class="cls-3" points="277.43 388.75 269.34 388.75 268.01 370.39 277.43 370.39 277.43 388.75"/></g><g id="g964"><path id="path966" class="cls-28" d="M285.86,386.18c4-.51,14.91,13.14,16.93,18.44S291.67,413,291.67,413"/></g><g id="g968"><path id="path970" class="cls-28" d="M300,452s7.65,14.58,6.55,28.38l-1.26,3.67-24.16-33.29"/></g><g id="g972"><path id="path974" class="cls-28" d="M271,449.47s1.71,34.48,3.6,40.36l7.2-.19c.38-12.13,4.55-27.66,4.93-43.2"/></g><g id="g976"><path id="path978" class="cls-29" d="M268.08,379.25a8.23,8.23,0,0,0,3.7-.15c.11,0,.17.12.08.19l-3,3.24-.81-3.47"/></g><g id="g980"><path id="path982" class="cls-28" d="M270.16,358.35c-4.1-.2-7.86,1.76-8.47,5.41-.54,3.26-3.23,3.91-3.31,5.55-.06,1.27,2.1,1.47,2.37,2.61a8.86,8.86,0,0,0,8.4,7.21,7.07,7.07,0,0,0,2.58-.2"/></g><g id="g984"><path id="path986" class="cls-22" d="M263.71,372.78a3.86,3.86,0,0,1-1.92,1.83"/></g><g id="g988"><path id="path990" class="cls-17" d="M263.11,368.66h0a.6.6,0,0,0,.6-.6v-1a.6.6,0,1,0-1.19,0v1a.6.6,0,0,0,.6.6"/></g><g id="g992"><path id="path994" class="cls-4" d="M268.49,383.72c11.15-3.54,15.93-1,20.18,5.49,6.92,10.52,3,13.14,5.49,22.74s8.43,13.74,7.29,41.12h-32s-3-31.55-2.08-40.74"/></g><g id="g996"><path id="path998" class="cls-4" d="M301.61,480.24s7.43,13.06,9.93,12.52c1.5-.33-.88-6.68-1.67-9.65-.55-2.07-1-3.44-3.15-3.22Z"/></g><g id="g1000"><path id="path1002" class="cls-28" d="M262,395.28a15.88,15.88,0,0,1-3.89-4.59c-2.56-4.51-9-12.22-10.64-10.19s1.24,9.14,3.66,10.36c1.77,5.68,10.93,24.94,16.42,23.41s9.85-30.71,2.27-30.33-8.15,17.15-8.15,17.15"/></g><g id="g1004"><path id="path1006" class="cls-17" d="M288.77,376.62a12.86,12.86,0,0,0-2.85-3.26,4.94,4.94,0,0,1-1.81-3.11,11.23,11.23,0,0,0-1.67-4.54,9,9,0,0,0-5.07-3.41c-1.83-3.25-3.49-3.73-5.79-4.42a10,10,0,0,0-7.33,1c-.5,4.2,1.15,8.93,5.09,9.19-.68,3.2,1.17,7.59,4.74,8.64a11.75,11.75,0,0,0,1.79,7.86c2.94,4.76,8.2,6.83,11.77,4.63s4.07-7.84,1.13-12.6"/></g><g id="g1008"><path id="path1010" class="cls-7" d="M800.58,434.55c.26,13.9-1,35.67-.78,39.9a1.58,1.58,0,0,0,1.58,1.49h12l1.6-18.76,2.19,18.76h12.18a1.58,1.58,0,0,0,1.58-1.58l-3.51-39.81H800.58"/></g><g id="g1012"><path id="path1014" class="cls-11" d="M806.83,411.63l-6.11,2.65L791.84,410c6.5-18.79,17.44-19.74,17.44-19.74l5.07,3.41,5.15-3.41c11.66,2.89,15.75,17.29,15.75,21.89l-8.72,2.34L830,434.55h-32L799.14,424s7.77-7,8.88-8"/></g><g id="g1016"><path id="path1018" class="cls-1" d="M811.66,407.18c.52-1.49-.52-2.14-1.26-1.33l-1.21,2.41"/></g><g id="g1020"><path id="path1022" class="cls-1" d="M792.16,427.1C796.84,428.76,808,416,808,416a4.12,4.12,0,0,0,3.81-3.57c.55-2.46,2.68-1.84,3.95-1.22a.67.67,0,0,0,1-.6,3.25,3.25,0,0,0-2.56-3.21,6.41,6.41,0,0,0-5.84,1.93l2.06-3.49-3.57,5.79-10.23,4.44"/></g><g id="g1024"><path id="path1026" class="cls-11" d="M820.32,371.16a10.87,10.87,0,0,1,1.54,4.91,12.93,12.93,0,0,1-.43,5.21,8.18,8.18,0,0,1-3.11,4.35,9.71,9.71,0,0,1-5.07,1.62,8.11,8.11,0,0,1-5.15-1.5,8.35,8.35,0,0,1-2.9-4.47,13.3,13.3,0,0,1,1.2-10,.22.22,0,0,1,.41.17h0a17.6,17.6,0,0,0-.3,9.46,7,7,0,0,0,2.45,3.71,6.67,6.67,0,0,0,4.23,1.16,8.87,8.87,0,0,0,4.3-1.36,6.71,6.71,0,0,0,2.6-3.57,11.55,11.55,0,0,0,.43-4.64,33.22,33.22,0,0,0-1-4.68h0a.45.45,0,0,1,.81-.36"/></g><g id="g1028"><path id="path1030" class="cls-11" d="M815.06,378.62l.17,2.22a.67.67,0,0,1-1.33.1.83.83,0,0,1,0-.1l.17-2.22a.5.5,0,0,1,1,0"/></g><g id="g1032"><path id="path1034" class="cls-30" d="M811.35,379.64v.71"/></g><g id="g1036"><path id="path1038" class="cls-30" d="M817.85,379.64v.71"/></g><g id="g1040"><path id="path1042" class="cls-11" d="M796.43,415.67a6.68,6.68,0,0,1,2-1.11l2-.91,4.09-1.83,1-.44.51-.22a1,1,0,0,0,.26-.17,1.18,1.18,0,0,0,.22-.29l.3-.48.6-.95c.82-1.25,1.59-2.53,2.44-3.76l0-.06,0,0a1.58,1.58,0,0,1,1-.48,1.16,1.16,0,0,1,1.07.58,1.71,1.71,0,0,1-.14,1.73.23.23,0,0,1-.42-.13h0a1.37,1.37,0,0,0-.21-1c-.08-.07-.12,0-.16,0a.76.76,0,0,0-.22.21l.07-.09c-.71,1.32-1.51,2.58-2.26,3.87l-.58,1-.29.48a2.63,2.63,0,0,1-.47.59,2.49,2.49,0,0,1-.67.45l-.52.23-1,.45L801,414.93l-2.06.87a6.68,6.68,0,0,1-2.15.68.47.47,0,0,1-.35-.81"/></g><g id="g1044"><path id="path1046" class="cls-11" d="M808,409c0-.48.39-.66.65-.93a9.56,9.56,0,0,1,.91-.7,5.42,5.42,0,0,1,2.22-.89,4.78,4.78,0,0,1,2.41.26A2.94,2.94,0,0,1,816,408.2a.25.25,0,0,1-.12.34.25.25,0,0,1-.13,0h0a9.16,9.16,0,0,1-1.94-.5A4.37,4.37,0,0,0,812,408a5,5,0,0,0-1.7.62,7.87,7.87,0,0,0-.79.54c-.28.19-.43.49-.89.51h0a.58.58,0,0,1-.6-.56s0,0,0-.06"/></g><g id="g1048"><path id="path1050" class="cls-30" d="M816.42,409.19c-1.82-1.51-3.81-1-5.63.46"/></g><g id="g1052"><path id="path1054" class="cls-11" d="M801.53,413.53c-.12-.41.13-.57.23-.83l.39-.73c.25-.49.47-1,.73-1.5s.5-1,.76-1.5a3,3,0,0,1,1.09-1.37h0a.27.27,0,0,1,.37.08.3.3,0,0,1,0,.09,2.79,2.79,0,0,1-.24,1.77c-.2.54-.42,1.08-.67,1.6s-.54,1-.83,1.53l-.46.75c-.18.23-.24.55-.66.62a.65.65,0,0,1-.74-.45Z"/></g><g id="g1056"><path id="path1058" class="cls-11" d="M803.16,477.14a12,12,0,0,1,.37,3.13l.17,3.14c.1,2.09.24,4.19.31,6.28s.16,4.19.22,6.29a35.4,35.4,0,0,1-.19,6.3.23.23,0,0,1-.44,0,35.41,35.41,0,0,1-.74-6.26c-.13-2.09-.24-4.19-.33-6.28s-.16-4.19-.24-6.29l-.11-3.14a12,12,0,0,1,.1-3.15.46.46,0,0,1,.56-.34.47.47,0,0,1,.33.3"/></g><g id="g1060"><path id="path1062" class="cls-11" d="M813,477.2a8.27,8.27,0,0,1,0,2.61l-.2,2.59c-.14,1.73-.25,3.46-.43,5.19s-.33,3.46-.52,5.18a24.39,24.39,0,0,1-.93,5.14.23.23,0,0,1-.29.15.23.23,0,0,1-.16-.19,24.29,24.29,0,0,1,0-5.23c.12-1.73.25-3.46.41-5.19s.34-3.45.5-5.18l.26-2.59a8.26,8.26,0,0,1,.47-2.57.47.47,0,0,1,.89.08"/></g><g id="g1064"><path id="path1066" class="cls-11" d="M800.08,460.27c.38-.32.77-.2,1.15-.24l1.15,0c.77,0,1.53-.06,2.29,0s1.53,0,2.29.06a5,5,0,0,1,2.29.47.25.25,0,0,1,.11.34.24.24,0,0,1-.11.11,5,5,0,0,1-2.29.47c-.77,0-1.53.06-2.29.06s-1.53,0-2.29,0l-1.15,0c-.38,0-.76.08-1.15-.24a.58.58,0,0,1-.08-.81l.08-.08"/></g><g id="g1068"><path id="path1070" class="cls-11" d="M800.38,463.76c.41-.32.81-.2,1.22-.24l1.22,0,1.22,0h.61a3.28,3.28,0,0,0,.49,0,2.85,2.85,0,0,0,1.65-.89,17.66,17.66,0,0,0,1.15-1.85.24.24,0,0,1,.33-.07.23.23,0,0,1,.09.12v0a2.8,2.8,0,0,1-.53,2.65,3.89,3.89,0,0,1-2.47,1.49,4.79,4.79,0,0,1-.73.06H804l-1.22,0-1.22,0c-.41,0-.81.08-1.22-.24a.57.57,0,0,1-.1-.79l.1-.1"/></g><g id="g1072"><path id="path1074" class="cls-11" d="M824.9,456c.18-.33.39-.22.59-.26l.6,0a8.89,8.89,0,0,1,1.21,0,7.87,7.87,0,0,1,1.19.18,1.47,1.47,0,0,1,1.11.66.31.31,0,0,1-.08.42h0a1.6,1.6,0,0,1-1.18.27l-1.12-.05c-.37,0-.74-.07-1.11-.08l-.56,0c-.19,0-.37.1-.57-.21l0,0a.83.83,0,0,1,0-.86"/></g><g id="g1076"><path id="path1078" class="cls-4" d="M809.69,366.49c.24,3.17-2.54,18.45-2.54,18.45-3.17-.21-7.12-9.08-3.65-15.91a4.67,4.67,0,0,1,6.19-2.54"/></g><g id="g1080"><path id="path1082" class="cls-4" d="M806.83,368.79s4,5.87,5.71,6.26c2.49.57,10.39-.21,10.39-.21s-1.23-8.83-8-9.7-7.77,3.65-7.77,3.65"/></g><g id="g1084"><path id="path1086" class="cls-11" d="M811.81,376.25a2.35,2.35,0,0,0-.47,0,4,4,0,0,0-.61.05,8.56,8.56,0,0,0-1.27.31l-.15,0a.44.44,0,0,1-.47-.68,2.79,2.79,0,0,1,2.68-1,1.47,1.47,0,0,1,1,.67.42.42,0,0,1-.17.57.43.43,0,0,1-.25,0Z"/></g><g id="g1088"><path id="path1090" class="cls-11" d="M816.77,375.66a1.47,1.47,0,0,1,1-.67,2.8,2.8,0,0,1,2.68,1,.44.44,0,0,1-.47.68l-.15,0a8.88,8.88,0,0,0-1.27-.31,4.11,4.11,0,0,0-.61-.05,2.35,2.35,0,0,0-.47,0l-.25,0a.42.42,0,0,1-.47-.37.41.41,0,0,1,0-.25"/></g><g id="g1092"><path id="path1094" class="cls-11" d="M813.65,382.63a4.14,4.14,0,0,0,.93.16,1.76,1.76,0,0,0,.87-.17l.14-.07a.44.44,0,0,1,.61.53,1.42,1.42,0,0,1-.68.78,2,2,0,0,1-1,.24,1.72,1.72,0,0,1-1.64-1,.43.43,0,0,1,.23-.56.42.42,0,0,1,.27,0Z"/></g><g id="g1096"><path id="path1098" class="cls-31" d="M808.47,369.74s-.4,2.8,2.67,5.42"/></g><g id="g1100"><path id="path1102" class="cls-11" d="M794.54,410.8a41,41,0,0,1-1.82,4.45c-.64,1.46-1.27,2.93-1.76,4.42a10.14,10.14,0,0,0-.69,4.39,2.54,2.54,0,0,0,.86,1.64,3.58,3.58,0,0,0,.85.52,2.29,2.29,0,0,0,.9.27,7.92,7.92,0,0,0,4-1.46,32.89,32.89,0,0,0,3.78-2.81,73.66,73.66,0,0,0,6.82-6.67.69.69,0,0,1,.47-.23h0a3.47,3.47,0,0,0,2-.85,4.11,4.11,0,0,0,1.18-2,5.37,5.37,0,0,1,.6-1.41,2.16,2.16,0,0,1,1.41-.93,2.75,2.75,0,0,1,1.54.25,4.74,4.74,0,0,1,1.22.78.22.22,0,0,1,0,.31.22.22,0,0,1-.27,0h0a3.38,3.38,0,0,0-2.32-.53c-.66.17-.93.89-1.08,1.76a5.32,5.32,0,0,1-1.43,2.68,4.4,4.4,0,0,1-2.89,1.26l.51-.23a74.94,74.94,0,0,1-6.9,6.87,34.4,34.4,0,0,1-3.93,3,8.72,8.72,0,0,1-4.94,1.68,3.32,3.32,0,0,1-.75-.15,6.86,6.86,0,0,1-.64-.27,5,5,0,0,1-1.19-.75,4,4,0,0,1-1.33-2.53,11.34,11.34,0,0,1,.79-5.05c.53-1.56,1.18-3,1.84-4.53a28.58,28.58,0,0,1,2.25-4.29.45.45,0,0,1,.8.39"/></g><g id="g1104"><path id="path1106" class="cls-11" d="M810.62,504.15a1,1,0,0,1-.95.84c-12.15.06-15.25,1.48-15.95-.75-.6-1.92,12.14-3.76,16.21-4.3A1,1,0,0,1,811,501Z"/></g><g id="g1108"><path id="path1110" class="cls-11" d="M828.68,476.8a9.82,9.82,0,0,1,.07,2.84l-.13,2.83c-.1,1.89-.16,3.77-.29,5.66s-.24,3.77-.38,5.65a28.75,28.75,0,0,1-.79,5.63.23.23,0,0,1-.44,0,29,29,0,0,1-.14-5.68c.07-1.89.15-3.77.27-5.66s.24-3.77.36-5.65l.19-2.83a9.82,9.82,0,0,1,.4-2.81.47.47,0,0,1,.61-.26.48.48,0,0,1,.28.31"/></g><g id="g1112"><path id="path1114" class="cls-11" d="M815.35,456a40.16,40.16,0,0,1,.92,5.71l.71,5.73c.46,3.82,1,7.64,1.39,11.47l1.31,11.48a115,115,0,0,1,.91,11.53.22.22,0,0,1-.44.05,115.4,115.4,0,0,1-1.82-11.42l-1.42-11.47c-.49-3.82-.89-7.65-1.34-11.47l-.66-5.74a40.36,40.36,0,0,1-.45-5.76.45.45,0,0,1,.88-.11"/></g><g id="g1116"><path id="path1118" class="cls-11" d="M819.8,504.15a1,1,0,0,0,.95.84c12.15.06,15.25,1.48,15.95-.75.6-1.92-12.14-3.76-16.21-4.3a1,1,0,0,0-1.08,1.07Z"/></g><g id="g1120"><path id="path1122" class="cls-3" d="M857.83,447.81c-2.75,3.75-.89,12.14,1,12.16,2.55,0-.85-4.62-.32-6.34s.9-2.11,1.27-2.06-.12,5.14,1.16,5.13l.59-8.88Z"/></g><g id="g1124"><path id="path1126" class="cls-11" d="M859.87,450.67a18.06,18.06,0,0,0-.46,4c0,1.36.21,2.66.25,4.11a.23.23,0,0,1-.22.24.24.24,0,0,1-.2-.09,7.06,7.06,0,0,1-1.17-4.25,9.08,9.08,0,0,1,1-4.34.45.45,0,0,1,.83.31Z"/></g><polygon id="path1128" class="cls-3" points="871.43 403.33 879.93 403.33 879.93 394.88 871.43 394.88 871.43 403.33"/><g id="g1130"><path id="path1132" class="cls-1" d="M879.92,398.87l-.21.25a55.94,55.94,0,0,1-4.31,3.63,45.06,45.06,0,0,1-4-3.88l-2.1,1.68,3.65,19,10.86-14-1.52-5.69Z"/></g><g id="g1134"><path id="path1136" class="cls-11" d="M893.65,462.73a3.92,3.92,0,0,1-3.5-1.83,4.07,4.07,0,0,1-.61-2,9.61,9.61,0,0,1,0-2,4.17,4.17,0,0,1,2.79-3.14,4.32,4.32,0,0,1,1.09-.2c.37,0,.65,0,1,0l1.9,0a4.3,4.3,0,0,1,3.71,2.15,4.19,4.19,0,0,1,.57,2.14v1a4.86,4.86,0,0,1-.12,1.07,4.19,4.19,0,0,1-2.88,3.05,6.38,6.38,0,0,1-2,.15l-1.9,0Zm0-.67,1.9,0a5.4,5.4,0,0,0,1.72-.19,3.12,3.12,0,0,0,2-2.29,3.56,3.56,0,0,0,.06-.81l0-.95a3.13,3.13,0,0,0-.42-1.48,3,3,0,0,0-2.57-1.47l-1.9,0a5.51,5.51,0,0,0-1.7.11,3.15,3.15,0,0,0-2.11,2.21,9,9,0,0,0-.13,1.77,3.25,3.25,0,0,0,.38,1.6,3.38,3.38,0,0,0,2.79,1.8Z"/></g><g id="g1138"><path id="path1140" class="cls-3" d="M891.51,446.12c.29,3.17-3,7.72-1.4,8.61,1,.58,2.75-3.28,2.75-3.28.93-.18.74,2.77.21,3.94s1,1.61,2.38.82,3.44-4.55.26-10.36"/></g><g id="g1142"><path id="path1144" class="cls-3" d="M884.39,382.4c.22,9.43-5.71,15.2-8.72,15.2s-9.32-6.73-8.72-15.2c.26-3.73,2.8-6.42,9.09-5.84s8.25,1.29,8.35,5.84"/></g><g id="g1146"><path id="path1148" class="cls-11" d="M867.76,383.74c.36,1.44.3,2.87.65,4.25a13.61,13.61,0,0,0,1.45,3.92,8.78,8.78,0,0,0,2.74,3,5.63,5.63,0,0,0,3.67,1,6.6,6.6,0,0,0,3.48-1.8,11,11,0,0,0,2.38-3.37,29.77,29.77,0,0,0,2.05-8.33.22.22,0,0,1,.25-.2.23.23,0,0,1,.2.2,16.49,16.49,0,0,1-1.26,8.9,12.37,12.37,0,0,1-2.64,3.83,8,8,0,0,1-4.24,2.22,6.73,6.73,0,0,1-4.69-1.23,10.21,10.21,0,0,1-3.16-3.5,14.93,14.93,0,0,1-1.55-4.35,12.06,12.06,0,0,1-.21-4.53.45.45,0,0,1,.88,0Z"/></g><g id="g1150"><path id="path1152" class="cls-11" d="M874.22,376c-5.31,0-9,2.62-7.85,4.68,1,1.83,10.55-1.19,12.69,1,1.38,1.43,1.34,4.49,1.14,6.5a2.63,2.63,0,0,0,1.61,2.69l1.21.63c3.06-7.06,5.09-15.49-8.8-15.53"/></g><g id="g1154"><path id="path1156" class="cls-11" d="M874.5,386.84l.17,3.81a.67.67,0,0,1-1.33.06v-.06l.17-3.81a.5.5,0,0,1,1,0"/></g><g id="g1158"><path id="path1160" class="cls-30" d="M870.15,386.84v.71"/></g><g id="g1162"><path id="path1164" class="cls-30" d="M877,386.84v.71"/></g><g id="g1166"><path id="path1168" class="cls-11" d="M871.56,384.78a2.35,2.35,0,0,0-.47,0,4,4,0,0,0-.61.05,8.58,8.58,0,0,0-1.27.31l-.14,0a.44.44,0,0,1-.47-.68,2.79,2.79,0,0,1,2.68-1,1.47,1.47,0,0,1,1,.67.42.42,0,0,1-.17.57.43.43,0,0,1-.25,0Z"/></g><g id="g1170"><path id="path1172" class="cls-11" d="M875.88,384.2a1.47,1.47,0,0,1,1-.67,2.8,2.8,0,0,1,2.68,1,.44.44,0,0,1-.47.68l-.15,0a8.9,8.9,0,0,0-1.28-.31,4.08,4.08,0,0,0-.61-.05,2.36,2.36,0,0,0-.47,0l-.25,0a.42.42,0,0,1-.42-.61"/></g><g id="g1174"><path id="path1176" class="cls-11" d="M873.4,392.75a4.14,4.14,0,0,0,.93.16,1.76,1.76,0,0,0,.87-.17l.14-.07a.44.44,0,0,1,.61.53,1.42,1.42,0,0,1-.68.78,2,2,0,0,1-1,.24,1.72,1.72,0,0,1-1.64-1,.43.43,0,0,1,.5-.58Z"/></g><g id="g1178"><path id="path1180" class="cls-32" d="M871.82,389.18h-2.37a1.27,1.27,0,0,1-1.15-1.27l-.12-1.47a.58.58,0,0,1,.5-.67h3.91a.58.58,0,0,1,.5.67l-.12,1.47A1.27,1.27,0,0,1,871.82,389.18Z"/></g><g id="g1182"><path id="path1184" class="cls-32" d="M878.75,389.18h-2.37a1.27,1.27,0,0,1-1.15-1.27l-.12-1.47a.58.58,0,0,1,.5-.67h3.91a.58.58,0,0,1,.5.67l-.12,1.47A1.27,1.27,0,0,1,878.75,389.18Z"/></g><g id="g1186"><path id="path1188" class="cls-32" d="M873.09,386.44h2"/></g><g id="g1190"><path id="path1192" class="cls-9" d="M882.29,400.82c10.51-.57,12,2.94,17.53,27.8a5.68,5.68,0,0,1,.13,1.12,116,116,0,0,1-.45,15.11,2.63,2.63,0,0,1-2.61,2.33h-7.22l1.07-17.13-1.27-5.75-1.74,20.18H862.36v3.33h-4.53a2.38,2.38,0,0,1-2.38-2.46c.29-8.82.47-36.67,3.91-42,2.07-3.21,10.08-1.81,10.08-1.81l5.52,10.6Z"/></g><g id="g1194"><polygon id="path1196" class="cls-11" points="887.56 401.09 874.97 424.02 863.5 401.36 869.34 400.55 874.97 412.13 882.32 399.9 887.56 401.09"/></g><g id="g1198"><path id="path1200" class="cls-11" d="M875.41,421.76a3.84,3.84,0,0,1,.24,1.73l0,1.73c0,1.16,0,2.31-.07,3.47-.1,2.31-.2,4.63-.43,6.94a.22.22,0,0,1-.24.2.23.23,0,0,1-.2-.2c-.23-2.31-.33-4.63-.43-6.94,0-1.16-.06-2.31-.07-3.47l0-1.73a3.84,3.84,0,0,1,.24-1.73.5.5,0,0,1,.68-.21.49.49,0,0,1,.21.21"/></g><g id="g1202"><path id="path1204" class="cls-11" d="M886.85,418.25a3.44,3.44,0,0,1,1,1.46c.26.53.5,1.05.74,1.59a30.71,30.71,0,0,1,1.25,3.27,27.7,27.7,0,0,1,.87,3.39,8.43,8.43,0,0,1,.15,3.51.23.23,0,0,1-.44.06h0a14.83,14.83,0,0,1-1-3.26c-.28-1.09-.61-2.17-1-3.24s-.71-2.14-1.14-3.18q-.31-.78-.66-1.55a4,4,0,0,1-.55-1.6v0a.5.5,0,0,1,.77-.41"/></g><g id="g1206"><path id="path1208" class="cls-11" d="M862.57,429.51c.09.35-.09.37-.18.54s-.21.29-.3.45a11.34,11.34,0,0,0-.55,1l-.55,1-.29.51-.14.26c0,.09-.13.16-.53.09h0a.86.86,0,0,1-.39-.17c-.32-.25-.34-.37-.29-.46l.11-.29.22-.58a12.13,12.13,0,0,1,.55-1.12c.22-.36.45-.71.71-1.06.13-.17.27-.35.42-.52s.26-.42.65-.34a.7.7,0,0,1,.54.5Z"/></g><g id="g1210"><path id="path1212" class="cls-11" d="M892.23,447.29a1.94,1.94,0,0,1-.07,1.12,1.8,1.8,0,0,1-.26.5,1.77,1.77,0,0,1-.47.44.3.3,0,0,1-.42-.1v0a1.78,1.78,0,0,1-.18-.62,1.82,1.82,0,0,1,0-.56,2,2,0,0,1,.51-1,.51.51,0,0,1,.72,0,.52.52,0,0,1,.13.23"/></g><g id="g1214"><path id="path1216" class="cls-11" d="M893.74,451.71a2.54,2.54,0,0,1,.48,1.17,3.58,3.58,0,0,1,0,1.22,3,3,0,0,1-.46,1.17,1.48,1.48,0,0,1-1.15.74.23.23,0,0,1-.23-.23.21.21,0,0,1,.05-.14l0-.06a1.68,1.68,0,0,0,.31-.76,7.91,7.91,0,0,0,.1-.9c0-.62,0-1.25,0-1.86V452a.46.46,0,0,1,.82-.29"/></g><g id="g1218"><path id="path1220" class="cls-11" d="M887.86,444.45c.66,5.66.66,11.35.78,17s.11,11.36.1,17q0,17-.42,34.06a.76.76,0,0,1-.76.74H876.87a.75.75,0,0,1-.74-.7l-1.73-28.66-.9-14.33c-.26-4.78-.8-9.54-.57-14.34v0a.22.22,0,0,1,.44,0c1.09,4.74,1.09,9.53,1.49,14.3l.94,14.33,1.82,28.66-.74-.7h10.69l-.76.74q.42-17,.53-34c0-5.67,0-11.34,0-17s-.28-11.33-.31-17a.45.45,0,0,1,.89-.06"/></g><g id="g1222"><path id="path1224" class="cls-11" d="M875,475.14c-.34,6.24-.89,12.46-1.23,18.71s-.67,12.49-.92,18.74a.71.71,0,0,1-.71.68l-10.11,0a.73.73,0,0,1-.72-.67c-.41-5.67-.78-11.35-1-17s-.37-11.38-.37-17.07.11-11.38.38-17.07.65-11.36,1.39-17.05v.12c-.09-4.36-.1-8.7,0-13.05.05-2.17.1-4.35.26-6.53a31.64,31.64,0,0,1,1-6.48.22.22,0,0,1,.28-.15.23.23,0,0,1,.16.22c0,2.17-.09,4.32-.18,6.48s-.18,4.32-.21,6.48c-.08,4.33-.05,8.67.05,13a.65.65,0,0,1,0,.1v0c-.71,5.58-1.07,11.26-1.33,16.92s-.33,11.33-.33,17,.16,11.34.38,17,.56,11.33,1,17l-.72-.67h10.11l-.71.68q.41-9.39,1-18.77c.19-3.13.4-6.25.64-9.38s.54-6.25,1.06-9.35a.45.45,0,0,1,.88.1"/></g><g id="g1226"><path id="path1228" class="cls-11" d="M884.19,512.76c3.91.64,9.79,2.87,9.66,4a3.59,3.59,0,0,1-.16.73c-6.17,0-7-.86-14.1-2"/></g><polygon id="path1230" class="cls-11" points="878.49 517.52 884.19 517.52 884.19 512.76 878.49 512.76 878.49 517.52"/><g id="g1232"><path id="path1234" class="cls-11" d="M865.27,512.76c-3.91.64-9.79,2.87-9.66,4a3.59,3.59,0,0,0,.16.73c6.17,0,7-.86,14.1-2"/></g><polygon id="path1236" class="cls-11" points="870.97 517.52 865.27 517.52 865.27 512.76 870.97 512.76 870.97 517.52"/><g id="g1238"><path id="path1240" class="cls-9" d="M860.07,479.35a9.51,9.51,0,0,1,2.74,2.85,7.17,7.17,0,0,1,1.39,3.67.23.23,0,0,1-.41.16h0a25.7,25.7,0,0,1-2.09-3.09,31.42,31.42,0,0,0-2.2-2.91h0a.45.45,0,0,1,.59-.66"/></g><g id="g1242"><path id="path1244" class="cls-4" d="M883.44,478.42l22.5.05a3,3,0,0,0,3.12-2.89V459.87a3,3,0,0,0-3.12-2.89l-22.5-.05a3,3,0,0,0-3.12,2.89v15.71a3,3,0,0,0,3.12,2.89"/></g><g id="g1246"><path id="path1248" class="cls-11" d="M817.93,385.35a1,1,0,0,1,.23.73l0,.73,0,1.43a1.3,1.3,0,0,0,.36.83,1.46,1.46,0,0,0,.37.28,2.44,2.44,0,0,0,.54.18,14.47,14.47,0,0,1,2.8,1.16,6.59,6.59,0,0,1,2.34,1.86.24.24,0,0,1,0,.33.24.24,0,0,1-.19,0,12.17,12.17,0,0,1-2.7-1,17.86,17.86,0,0,0-2.6-.95,4,4,0,0,1-.83-.28,2.71,2.71,0,0,1-.79-.59,2.76,2.76,0,0,1-.71-1.8l0-1.47,0-.73a1,1,0,0,1,.22-.73.58.58,0,0,1,.82-.07l.07.07"/></g><g id="g1250"><path id="path1252" class="cls-11" d="M560.79,51.9a9.14,9.14,0,1,1,9.14-9.14,9.14,9.14,0,0,1-9.14,9.14m21.33-9.14a21.33,21.33,0,1,0-39.3,11.47h0l18,28.14,18-28.14h0a21.25,21.25,0,0,0,3.36-11.47"/></g><g id="g1254"><path id="path1256" class="cls-33" d="M867.5,183a4.84,4.84,0,1,1,4.84-4.84A4.84,4.84,0,0,1,867.5,183m11.28-4.84A11.28,11.28,0,1,0,858,184.27h0l9.51,14.89L877,184.27h0a11.24,11.24,0,0,0,1.78-6.07"/></g><g id="g1258"><path id="path1260" class="cls-34" d="M102.82,334.89h24.93c19.54,8.73,40.36,15.86,40.36,15.86a39.22,39.22,0,0,1-9-15.86h10.56a16,16,0,0,0,16-16V289.36a16,16,0,0,0-16-16H102.82a16,16,0,0,0-16,16v29.49a16,16,0,0,0,16,16"/></g><g id="g1262"><path id="path1264" class="cls-1" d="M972.46,380.7H933.07a37.2,37.2,0,0,1-23.25,15.18l6-15.18h-.47a18.13,18.13,0,0,1-18.15-18.11V335.74a18.13,18.13,0,0,1,18.15-18.11h57.09a18.13,18.13,0,0,1,18.15,18.11v26.84a18.13,18.13,0,0,1-18.15,18.11"/></g><g id="g1266"><path id="path1268" class="cls-33" d="M972.46,380.45a18,18,0,0,0,6.76-1.36,17.73,17.73,0,0,0,5.69-3.84,17.45,17.45,0,0,0,5-12.34c-.22-9.33-.27-18.81-.37-28.08A17,17,0,0,0,984,323.16a17.33,17.33,0,0,0-12.17-4.46l-28.14,0-28.14,0a17.09,17.09,0,0,0-11.93,4.77,16.83,16.83,0,0,0-5.21,11.72c0,9.29-.09,18.79,0,28.06A16.93,16.93,0,0,0,903.75,375a17.27,17.27,0,0,0,12.09,4.6,1,1,0,0,1,1,1.43v0l-6,15.17-1.16-1.39a37.41,37.41,0,0,0,6.61-2,34.25,34.25,0,0,0,6.12-3.2,38.31,38.31,0,0,0,5.45-4.27,31.77,31.77,0,0,0,4.52-5.18l0,0a.88.88,0,0,1,.73-.38c3.28,0,6.56.13,9.85.19l9.84.21c6.56.16,13.13.22,19.69.24m0,.5c-6.56,0-13.13.07-19.69.24l-9.84.21c-3.28.06-6.56.17-9.85.19l.75-.42a33.35,33.35,0,0,1-4.69,5.63,35.39,35.39,0,0,1-5.67,4.57,36.21,36.21,0,0,1-6.45,3.4,39.62,39.62,0,0,1-7,2.13,1,1,0,0,1-1.17-1.36v0l6-15.19,1,1.45a19.43,19.43,0,0,1-13.57-5.13,19.12,19.12,0,0,1-6.13-13.18c-.09-9.49-.08-18.76-.07-28.22A19.18,19.18,0,0,1,902,321.86a19.44,19.44,0,0,1,13.57-5.38l28.14,0,28.14,0a20.39,20.39,0,0,1,7.26,1.21,19.14,19.14,0,0,1,12.49,16.94c.11,4.79,0,9.41,0,14.12s-.13,9.37-.26,14.08a18.53,18.53,0,0,1-5.84,12.85,18.87,18.87,0,0,1-13,5.17"/></g><g id="g1270"><path id="path1272" class="cls-34" d="M264.24,329.46a4,4,0,0,0-2-2l-7.27-2.58c-.78-.31-.78-.78,0-1l7.27-2.58a4,4,0,0,0,2-2l2.58-7.27c.31-.78.78-.78,1,0l2.58,7.27a4,4,0,0,0,2,2l7.27,2.58c.78.31.78.78,0,1l-7.27,2.58a4,4,0,0,0-2,2l-2.58,7.27c-.31.78-.78.78-1,0Z"/></g><g id="g1274"><path id="path1276" class="cls-35" d="M582.65,16.9l1.07,2.8.27.67c.13.27.13.4.27.53a.18.18,0,0,0-.27,0v-.13a2.25,2.25,0,0,1,.27-.67l.93-2.8a4,4,0,0,1,.8-1.47,4.18,4.18,0,0,1,1.47-1.07l2.8-1.07.67-.27a1,1,0,0,1,.4-.13l-.13.13v.4h0a2.25,2.25,0,0,1-.67-.27l-2.8-.93a4.51,4.51,0,0,1-1.6-.8,4.18,4.18,0,0,1-1.07-1.47l-.93-2.8-.27-.67a1,1,0,0,1-.13-.4l.13.13h.4c.13-.13.13-.13.13,0a2.25,2.25,0,0,1-.27.67l-1.07,2.8a4,4,0,0,1-.8,1.47,4.18,4.18,0,0,1-1.47,1.07l-2.8.93-.67.27a1,1,0,0,1-.53.13v-.4h0a2.25,2.25,0,0,1,.67.27l2.8,1.07a3.64,3.64,0,0,1,2.4,2Zm-.4.13a3.59,3.59,0,0,0-.93-1.07,4.74,4.74,0,0,0-1.2-.53l-2.8-.8a5.56,5.56,0,0,0-.8-.27c-.13-.13-.4-.13-.53-.4a.41.41,0,0,1,0-.53c0-.13.13-.27.27-.4a2.06,2.06,0,0,1,.8-.4l.67-.27,2.8-1.07a4.05,4.05,0,0,0,.93-.67A2,2,0,0,0,582,9.57l.93-2.8a5.56,5.56,0,0,0,.27-.8c.13-.13.13-.4.53-.53.13-.13.53-.13.67-.13s.4.13.53.27a2.29,2.29,0,0,1,.53.93l.27.67.93,2.8a4.05,4.05,0,0,0,.67.93,2,2,0,0,0,1.07.53l2.8,1.07a5.56,5.56,0,0,0,.8.27c.13.13.4.13.53.53a.61.61,0,0,1,0,.67c-.13.27-.13.4-.27.4a1.11,1.11,0,0,1-.93.4l-.67.27-2.8.93a4.05,4.05,0,0,0-.93.67,2,2,0,0,0-.53,1.07l-1.07,2.8a5.56,5.56,0,0,0-.27.8c-.13.13-.13.27-.4.53a.41.41,0,0,1-.53,0c-.13,0-.27-.13-.4-.27s-.27-.67-.4-.8l-.27-.67Z"/></g><g id="g1278"><polygon id="path1280" class="cls-35" points="521.12 30.7 517.79 32.3 519.39 28.96 517.79 25.63 521.12 27.23 524.46 25.63 522.86 28.96 524.46 32.3 521.12 30.7"/></g><g id="g1282"><path id="path1284" class="cls-35" d="M521.26,30.43a34.72,34.72,0,0,1,3.33,1.33l-.67.67c-.53-1.07-1.2-2.13-1.73-3.2a.41.41,0,0,1,0-.53c.53-1.07,1.07-2.27,1.6-3.33l.93.93-3.33,1.6a.61.61,0,0,1-.67,0l-3.33-1.6.93-.93,1.6,3.33a.41.41,0,0,1,0,.53c-.53,1.07-1.2,2.13-1.73,3.2l-.67-.67c1.2-.53,2.4-.93,3.6-1.33Zm-.27.4c-1.07.67-2,1.33-3.07,1.87a.59.59,0,0,1-.67-.13.25.25,0,0,1,0-.4V32c.4-1.2.93-2.27,1.47-3.47v.53l-1.6-3.33a.76.76,0,0,1,.27-.93.61.61,0,0,1,.67,0l3.33,1.6h-.67l3.33-1.6a.69.69,0,0,1,.93.4.61.61,0,0,1,0,.67c-.53,1.07-1.07,2.27-1.6,3.33V28.7c.53,1.07.93,2.27,1.47,3.47a.49.49,0,0,1-.27.67h-.4c-1.07-.67-2-1.33-3.2-2Z"/></g><g id="g1286"><polygon id="path1288" class="cls-35" points="591.17 39.15 587.84 40.75 589.44 37.41 587.84 34.08 591.17 35.68 594.5 34.08 592.9 37.41 594.5 40.75 591.17 39.15"/></g><g id="g1290"><path id="path1292" class="cls-34" d="M286.05,336.34a2.17,2.17,0,0,0-1.41,0l-2.89,1.41c-.39.16-.55,0-.39-.39l1.41-2.89a2.17,2.17,0,0,0,0-1.41l-1.41-2.89c-.16-.39,0-.55.39-.39l2.89,1.41a2.16,2.16,0,0,0,1.41,0l2.89-1.41c.39-.16.55,0,.39.39l-1.41,2.89a2.17,2.17,0,0,0,0,1.41l1.41,2.89c.16.39,0,.55-.39.39Z"/></g><g id="g1294"><path id="path1296" class="cls-33" d="M564.4,154.82a3.6,3.6,0,1,1-3.6-3.6,3.6,3.6,0,0,1,3.6,3.6"/></g><g id="g1298"><path id="path1300" class="cls-34" d="M564.4,139.46a3.6,3.6,0,1,1-3.6-3.6,3.6,3.6,0,0,1,3.6,3.6"/></g><g id="g1302"><path id="path1304" class="cls-33" d="M564.4,123.1a3.6,3.6,0,1,1-3.6-3.6,3.6,3.6,0,0,1,3.6,3.6"/></g><g id="g1306"><path id="path1308" class="cls-33" d="M564.4,106.74a3.6,3.6,0,1,1-3.6-3.6,3.6,3.6,0,0,1,3.6,3.6"/></g><g id="g1310"><path id="path1312" class="cls-33" d="M431,210.36a2,2,0,1,1-2-2,2,2,0,0,1,2,2"/></g><g id="g1314"><path id="path1316" class="cls-33" d="M431,201.19a2,2,0,1,1-2-2,2,2,0,0,1,2,2"/></g><g id="g1318"><path id="path1320" class="cls-1" d="M120.3,308.3a3.6,3.6,0,1,1,3.6-3.6,3.6,3.6,0,0,1-3.6,3.6"/></g><g id="g1322"><path id="path1324" class="cls-1" d="M135.65,308.3a3.6,3.6,0,1,1,3.6-3.6,3.6,3.6,0,0,1-3.6,3.6"/></g><g id="g1326"><path id="path1328" class="cls-1" d="M152,308.3a3.6,3.6,0,1,1,3.6-3.6,3.6,3.6,0,0,1-3.6,3.6"/></g><g id="g1330"><path id="path1332" class="cls-36" d="M250,386.78l-4.17-11.86a1.28,1.28,0,0,1,.78-1.63l5.72-2a1.28,1.28,0,0,1,1.63.78l4.17,11.86a1.28,1.28,0,0,1-.78,1.63l-5.72,2a1.28,1.28,0,0,1-1.63-.78"/></g><g id="g1334"><polygon id="path1336" class="cls-1" points="256.66 383.12 250.62 385.25 246.99 374.93 253.03 372.8 256.66 383.12"/></g><g id="g1338"><polygon id="path1340" class="cls-37" points="253.02 372.77 246.98 374.89 247.48 376.33 253.52 374.2 253.02 372.77"/></g><g id="g1342"><path id="path1344" class="cls-28" d="M253.88,386.9s-1.11-2.68-1.55-2.28c-.94.88.2,4.56.2,4.56"/></g><g id="g1346"><path id="path1348" class="cls-1" d="M786,391.07H769.73v-1.36h14.92a1.36,1.36,0,0,1,1.36,1.36"/></g><g id="g1350"><path id="path1352" class="cls-38" d="M786,391.07H769.73v-1.36h14.92A1.36,1.36,0,0,1,786,391.07Z"/></g><g id="g1354"><path id="path1356" class="cls-1" d="M775.56,391.17H753.14l-2-14.37a2.19,2.19,0,0,1,2.17-2.49h18a2.19,2.19,0,0,1,2.17,1.89Z"/></g><g id="g1358"><path id="path1360" class="cls-33" d="M775.37,390.88c-.87-4.6-1.67-8.87-2.32-13.17l-.25-1.57a1.54,1.54,0,0,0-.68-.93,1.45,1.45,0,0,0-.55-.21,5,5,0,0,0-.74,0h-1.7l-6.81,0-6.81,0h-1.7a5.08,5.08,0,0,0-.73,0,1.48,1.48,0,0,0-.52.2,1.45,1.45,0,0,0-.64.9,1.53,1.53,0,0,0,0,.57l.12.84,1.84,13.5-.71-.62,10.93.09,5.48.09c1.83,0,3.73.13,5.68.24Zm.37.58c-1.74.1-3.53.2-5.38.23l-5.73.09-11.49.09a.71.71,0,0,1-.71-.61h0l-1.89-13.49-.11-.84a3,3,0,0,1,.05-1.12,2.91,2.91,0,0,1,2.36-2.19,3.06,3.06,0,0,1,.54,0h2.13l6.81,0,6.81,0h1.7a6,6,0,0,1,1,0,2.8,2.8,0,0,1,1,.4,2.88,2.88,0,0,1,1.27,1.76c.13.69.16,1.19.24,1.8.58,4.65,1,9.34,1.39,13.68Z"/></g><g id="g1362"><path id="path1364" class="cls-33" d="M785.58,367.8a3.6,3.6,0,1,1-3.6-3.6,3.6,3.6,0,0,1,3.6,3.6"/></g><g id="g1366"><path id="path1368" class="cls-33" d="M785.58,352.44a3.6,3.6,0,1,1-3.6-3.6,3.6,3.6,0,0,1,3.6,3.6"/></g><g id="g1370"><path id="path1372" class="cls-34" d="M785.58,336.08a3.6,3.6,0,1,1-3.6-3.6,3.6,3.6,0,0,1,3.6,3.6"/></g><g id="g1374"><path id="path1376" class="cls-1" d="M802.15,304.33A20.17,20.17,0,1,1,782,284.16a20.17,20.17,0,0,1,20.17,20.17"/></g><g id="g1378"><path id="path1380" class="cls-33" d="M801.81,304.33a20.56,20.56,0,0,0-6.2-13.63A19.7,19.7,0,0,0,782,285.18a19.12,19.12,0,1,0,17.71,26.48,22.22,22.22,0,0,0,1.79-7.33Zm1,0a18.92,18.92,0,0,1-1.28,8.1,21.52,21.52,0,1,1-4.67-23,20,20,0,0,1,5.61,14.89Z"/></g><g id="g1382"><path id="path1384" class="cls-34" d="M782,295.3h0c-7.75,0-12,6-12.48,6.42l2,2.05c10.45-11.83,20.53-.59,20.9,0l2-2.05c-.52-.38-4.41-6.63-12.44-6.42"/></g><g id="g1386"><path id="path1388" class="cls-34" d="M782,300.84a10.82,10.82,0,0,0-8.81,4.65c.63.59,1.11,1.15,1.76,1.75.18-.28,7.05-8.17,14.1,0,.65-.6,1.13-1.16,1.76-1.75a10.74,10.74,0,0,0-8.81-4.65"/></g><g id="g1390"><path id="path1392" class="cls-34" d="M782,306.11h0a6.27,6.27,0,0,0-5.25,2.85c.52.58,1.75,1.76,1.75,1.76a3.72,3.72,0,0,1,3.38-1.93,4.7,4.7,0,0,1,3.65,1.93s1.23-1.18,1.75-1.76c-1.67-2.85-5.25-2.85-5.25-2.85"/></g><g id="g1394"><path id="path1396" class="cls-34" d="M780.09,312.36l1.89,1.49,1.75-1.67s-2.12-1.47-3.64.18"/></g><g id="g1398"><path id="path1400" class="cls-3" d="M429,162.14H429c-11.35,0-17.53,8.84-18.29,9.4l3,3c15.32-17.34,30.09-.86,30.63,0l3-3c-.76-.56-6.47-9.72-18.23-9.4"/></g><g id="g1402"><path id="path1404" class="cls-3" d="M429,170.26a15.85,15.85,0,0,0-12.91,6.81c.93.86,1.63,1.68,2.59,2.56.27-.41,10.33-12,20.66,0,1-.88,1.65-1.7,2.59-2.56A15.72,15.72,0,0,0,429,170.26"/></g><g id="g1406"><path id="path1408" class="cls-3" d="M429,178H429a9.19,9.19,0,0,0-7.69,4.17c.76.85,2.57,2.57,2.57,2.57a5.45,5.45,0,0,1,5-2.83s3.69.08,5.35,2.83c0,0,1.81-1.72,2.57-2.57C434.25,178,429,178,429,178"/></g><g id="g1410"><path id="path1412" class="cls-3" d="M426.22,187.14l2.76,2.18,2.57-2.44s-3.1-2.15-5.33.26"/></g><g id="g1414"><path id="path1416" class="cls-33" d="M869.52,215.64a2,2,0,1,1-2-2,2,2,0,0,1,2,2"/></g><g id="g1418"><path id="path1420" class="cls-33" d="M869.52,206.46a2,2,0,1,1-2-2,2,2,0,0,1,2,2"/></g><g id="g1422"><path id="path1424" class="cls-39" d="M727.75,352a21.69,21.69,0,0,1-3.13-3.11,34.49,34.49,0,0,1-2.71-3.47.14.14,0,0,1,0-.19.13.13,0,0,1,.16,0,34.84,34.84,0,0,1,3.08,3.15,21.81,21.81,0,0,1,2.66,3.52.07.07,0,0,1,0,.09.07.07,0,0,1-.07,0"/></g><g id="g1426"><path id="path1428" class="cls-39" d="M728.75,351.63a21.7,21.7,0,0,1-3-3.19,35,35,0,0,1-2.62-3.54.13.13,0,0,1,.21-.17,34.77,34.77,0,0,1,3,3.23,21.66,21.66,0,0,1,2.57,3.59.07.07,0,0,1,0,.09.07.07,0,0,1-.07,0"/></g><g id="g1430"><path id="path1432" class="cls-1" d="M729.64,360v.72c0,.36.53.64,1.17.64h5"/></g><g id="g1434"><path id="path1436" class="cls-33" d="M729.7,360l.07.45c0,.15,0,.33.09.35a1.14,1.14,0,0,0,.62.22c.48,0,1.16,0,1.73,0a22,22,0,0,1,3.59.24.14.14,0,0,1,.11.16.13.13,0,0,1-.11.11,21.84,21.84,0,0,1-3.59.25,14.76,14.76,0,0,1-1.85-.1,1.21,1.21,0,0,1-.88-.66,1.11,1.11,0,0,1,0-.53l.07-.45a.07.07,0,0,1,.08-.06.07.07,0,0,1,.06.06"/></g><g id="g1438"><path id="path1440" class="cls-1" d="M725,351.9c3.37-4.32,8.05-.29,13-1"/></g><g id="g1442"><path id="path1444" class="cls-33" d="M724.94,351.86a4.53,4.53,0,0,1,2.76-2.17,8.73,8.73,0,0,1,3.55,0,26.93,26.93,0,0,0,6.69,1,.13.13,0,0,1,.14.13.14.14,0,0,1-.1.14,9.2,9.2,0,0,1-3.48.09c-1.15-.16-2.27-.43-3.38-.62a8.35,8.35,0,0,0-3.26-.13,5.85,5.85,0,0,0-2.81,1.6.07.07,0,0,1-.11-.08"/></g><g id="g1446"><path id="path1448" class="cls-1" d="M739.35,350.61c-.31-1.46-3.39-2.54-6.51-1.2"/></g><g id="g1450"><path id="path1452" class="cls-33" d="M739.29,350.62a2.62,2.62,0,0,0-1.29-1,4.89,4.89,0,0,0-1.63-.41,10.1,10.1,0,0,0-3.47.32.14.14,0,0,1-.16-.1.14.14,0,0,1,.06-.14,5.86,5.86,0,0,1,3.65-.83,5.26,5.26,0,0,1,1.86.56,1.91,1.91,0,0,1,1.12,1.57.07.07,0,0,1-.07.07.06.06,0,0,1-.05,0Z"/></g><g id="g1454"><path id="path1456" class="cls-1" d="M741.52,351.9v1.32c0,3.72-3.61,6.74-8.07,6.74h-.69c-4.46,0-8.07-3-8.07-6.74V351.9h14.73"/></g><g id="g1458"><path id="path1460" class="cls-33" d="M741.59,351.9a8.75,8.75,0,0,1-.23,3.36,6.81,6.81,0,0,1-1.9,2.83,9.18,9.18,0,0,1-6.35,2.21,9.4,9.4,0,0,1-6.41-2.14,7,7,0,0,1-2-2.85,9.31,9.31,0,0,1-.36-3.42.36.36,0,0,1,.35-.35c2.45,0,4.91,0,7.36.07s4.91.06,7.36.15a.13.13,0,0,1,0,.27c-2.45.09-4.91.11-7.36.15s-4.91.06-7.36.07l.35-.35a8.64,8.64,0,0,0,.35,3.16,6.51,6.51,0,0,0,1.8,2.53,8.69,8.69,0,0,0,5.92,2,8.94,8.94,0,0,0,6-1.94,6.7,6.7,0,0,0,1.9-2.55,9.19,9.19,0,0,0,.47-3.22.07.07,0,0,1,.07-.06.07.07,0,0,1,.06.06"/></g><g id="g1462"><path id="path1464" class="cls-34" d="M810,409.74l2.17-12.38a1.28,1.28,0,0,1,1.48-1l6,1a1.28,1.28,0,0,1,1,1.48l-2.17,12.38a1.28,1.28,0,0,1-1.48,1l-6-1a1.28,1.28,0,0,1-1-1.48"/></g><g id="g1466"><path id="path1468" class="cls-1" d="M834.52,412.54l.21,1.24.61,9.4-.91,4.07-3.46,1.5-2.94-1.5-3-4.07-2.78-4.7-2.5-5.48-1.47-.61-.93-4-.5-1.49s-.08-.7-1.5-1l-1.53.13a1.34,1.34,0,0,1,.1-2.45l4.35-.62,2.18-.71,2.26,7.46,5.27,4.81,0-.43Z"/></g><g id="g1470"><path id="path1472" class="cls-11" d="M830.08,417.2a6.69,6.69,0,0,1-1.8-1.36l-1.66-1.51-3.31-3-.82-.76-.42-.39a2.47,2.47,0,0,1-.48-.64,2.67,2.67,0,0,1-.24-.72l-.11-.55-.22-1.1c-.28-1.47-.61-2.92-.84-4.4l0,.11a.75.75,0,0,0-.14-.27s-.05-.09-.16-.05a1.37,1.37,0,0,0-.55.91h0a.23.23,0,0,1-.27.17.22.22,0,0,1-.17-.18,1.71,1.71,0,0,1,.44-1.68,1.16,1.16,0,0,1,1.2-.19,1.57,1.57,0,0,1,.79.79v0l0,.07c.4,1.44.7,2.9,1.05,4.35l.25,1.09.12.55a1.14,1.14,0,0,0,.11.34,1,1,0,0,0,.19.25l.4.37.82.76,3.25,3.09,1.62,1.54a6.67,6.67,0,0,1,1.48,1.7.47.47,0,0,1-.61.65"/></g><g id="g1474"><path id="path1476" class="cls-11" d="M821.16,406.8c-.43-.17-.47-.51-.67-.78a7.91,7.91,0,0,0-.56-.78,5,5,0,0,0-1.39-1.15,4.34,4.34,0,0,0-1.69-.5,9.19,9.19,0,0,1-2-.18h0a.25.25,0,0,1-.18-.31.26.26,0,0,1,.07-.12,2.93,2.93,0,0,1,2.17-.77,4.81,4.81,0,0,1,2.36.56,5.44,5.44,0,0,1,1.79,1.58,9.22,9.22,0,0,1,.63,1c.16.34.44.63.31,1.1a.58.58,0,0,1-.72.4l-.06,0Z"/></g><g id="g1478"><path id="path1480" class="cls-30" d="M814,403.78c2.22-.81,3.91.36,5.15,2.31"/></g><g id="g1482"><path id="path1484" class="cls-11" d="M825.72,413c-.37-.21-.33-.53-.42-.81l-.18-.86c-.1-.57-.22-1.14-.27-1.72s-.09-1.15-.1-1.73a2.78,2.78,0,0,1,.36-1.75.27.27,0,0,1,.37-.08l.07.06h0a3,3,0,0,1,.56,1.66c.08.56.16,1.11.21,1.67s.11,1.11.19,1.66l.12.82c0,.28.19.52-.06.86l0,0a.65.65,0,0,1-.85.18"/></g><g id="g1486"><path id="path1488" class="cls-11" d="M835,412.49a28.54,28.54,0,0,1,.7,4.79c.13,1.61.25,3.23.23,4.88a11.37,11.37,0,0,1-.93,5,4,4,0,0,1-2.09,1.94,5,5,0,0,1-1.37.31,6.73,6.73,0,0,1-.69,0,3.33,3.33,0,0,1-.76-.11,8.7,8.7,0,0,1-4.09-3.23,34.38,34.38,0,0,1-2.72-4.11,74.86,74.86,0,0,1-4.22-8.78l.4.39a4.4,4.4,0,0,1-2.31-2.15,5.3,5.3,0,0,1-.45-3c.14-.87.13-1.63-.43-2a3.37,3.37,0,0,0-2.36-.27h0a.22.22,0,0,1-.12-.43,4.66,4.66,0,0,1,1.41-.33,2.74,2.74,0,0,1,1.54.28,2.15,2.15,0,0,1,1,1.35,5.35,5.35,0,0,1,.1,1.53,4.1,4.1,0,0,0,.44,2.3,3.47,3.47,0,0,0,1.62,1.47h0a.7.7,0,0,1,.37.37,73.46,73.46,0,0,0,4.21,8.56,33.07,33.07,0,0,0,2.63,3.91,8,8,0,0,0,3.31,2.72,2.27,2.27,0,0,0,.94,0,3.56,3.56,0,0,0,1-.2,2.55,2.55,0,0,0,1.36-1.26,10.15,10.15,0,0,0,.81-4.37c0-1.57-.07-3.16-.18-4.75a40.54,40.54,0,0,1-.24-4.81.45.45,0,0,1,.88-.09"/></g><g id="g1490"><path id="path1492" class="cls-4" d="M959.12,349.53c1.75-2.47,2.05-7.9-1.52-11.46-4.95-4.94-13.13-10.11-13.13-10.11s-1.11,2.92-6.73,4.46c-8,2.18-6.38,7.58-6.38,7.58-4.08,2.26-5.81,6.5-2.72,9.53"/></g><g id="g1494"><path id="path1496" class="cls-7" d="M926.79,350.42,931,365.71a6.09,6.09,0,0,0,5.87,4.47h14.72a6.09,6.09,0,0,0,5.86-4.45l4.26-15.31"/></g><g id="g1498"><path id="path1500" class="cls-7" d="M928.8,350.55a6.67,6.67,0,0,1-2.14-3.4,6.29,6.29,0,0,1,.37-4.25,8.41,8.41,0,0,1,2.76-3.25,16.53,16.53,0,0,1,1.78-1.05c.62-.25,1.24-.55,1.87-.75s1.28-.37,1.92-.52l1.93-.35c1.28-.14,2.61-.27,3.8-.35,2.43-.21,4.86-.61,7.33-1l.26.78a26,26,0,0,1-7.34,2.27c-1.31.18-2.47.34-3.68.54l-1.76.39c-.58.15-1.13.34-1.7.51s-1.08.43-1.63.63a14.72,14.72,0,0,0-1.47.84,6.27,6.27,0,0,0-2.21,2.29c-1,1.81-.84,4.23.24,6.48Z"/></g><g id="g1502"><path id="path1504" class="cls-11" d="M924.26,348.94c1.64-.65,3.29-.41,4.93-.48l4.93-.06c3.29,0,6.57-.11,9.86-.08s6.57.05,9.85.12a42.16,42.16,0,0,1,9.86,1v.91a42.16,42.16,0,0,1-9.86,1c-3.29.07-6.57.13-9.85.12s-6.57-.05-9.86-.08l-4.93-.06c-1.64-.08-3.29.17-4.93-.48Z"/></g><g id="g1506"><path id="path1508" class="cls-7" d="M957.34,336.28a5.24,5.24,0,0,1-1.32,4.5,10.9,10.9,0,0,1-3.81,2.76,19.74,19.74,0,0,1-4.35,1.29,15,15,0,0,1-4.45.13l-.09-.82c1.38-.52,2.74-.87,4.08-1.27a26,26,0,0,0,3.84-1.44,13.22,13.22,0,0,0,3.29-2.07,11.29,11.29,0,0,0,2.41-3.13Z"/></g><g id="g1510"><path id="path1512" class="cls-34" d="M857.69,360a4,4,0,0,1,2-2l7.27-2.58c.78-.31.78-.78,0-1l-7.27-2.58a4,4,0,0,1-2-2l-2.58-7.27c-.31-.78-.78-.78-1,0l-2.58,7.27a4,4,0,0,1-2,2l-7.27,2.58c-.78.31-.78.78,0,1l7.27,2.58a4,4,0,0,1,2,2l2.58,7.27c.31.78.78.78,1,0Z"/></g><g id="g1514"><path id="path1516" class="cls-34" d="M835.88,366.9a2.17,2.17,0,0,1,1.41,0l2.89,1.41c.39.16.55,0,.39-.39L839.16,365a2.17,2.17,0,0,1,0-1.41l1.41-2.89c.16-.39,0-.55-.39-.39l-2.89,1.41a2.16,2.16,0,0,1-1.41,0L833,360.33c-.39-.16-.55,0-.39.39l1.41,2.89a2.17,2.17,0,0,1,0,1.41l-1.41,2.89c-.16.39,0,.55.39.39Z"/></g></g></g></g></g></g></g></g></g></svg>