<svg viewBox="0 0 1004 531" xmlns="http://www.w3.org/2000/svg" xmlns:xlink="http://www.w3.org/1999/xlink"><mask id="a" height="541.67" maskUnits="userSpaceOnUse" width="1005.33" x="-1.67" y="-14.83"><path d="m-1.67-14.83h1005.34v541.66h-1005.34z" fill="#fff"/></mask><g mask="url(#a)"><path d="m196.28 43.46c-.66-.23-58.8 0-58.8 0s-3.73-12.24 6.18-14.81c3-.77 4.69-.48 5.57-.11a.56.56 0 0 0 .79-.42c.21-2.45 1.61-9.18 10.56-9.18 9.85 0 14.17 9.27 14.17 9.27a8.86 8.86 0 0 1 6.08-3.51c11.5-.92 14.31 11.79 14.31 11.79" fill="#fff"/><path d="m196.11 43.95-14.53.27c-4.9.1-9.8.19-14.7.22l-29.4.23a1.17 1.17 0 0 1 -1.14-.86 19.35 19.35 0 0 1 -.61-7.75 10.12 10.12 0 0 1 4-7 11.09 11.09 0 0 1 3.73-1.7 13.57 13.57 0 0 1 4-.5 6.81 6.81 0 0 1 2.2.43l.14.06h-.12a.73.73 0 0 0 -.26 0 .74.74 0 0 0 -.49.33.83.83 0 0 0 -.13.37v-.22l.07-.5a12.54 12.54 0 0 1 1.13-3.9 10.07 10.07 0 0 1 2.59-3.2 10.33 10.33 0 0 1 3.63-1.86 15.84 15.84 0 0 1 14.65 3.39 23.83 23.83 0 0 1 2.68 2.75 16 16 0 0 1 2.21 3.21l-2-.17a9.67 9.67 0 0 1 2.9-2.59 9 9 0 0 1 3.67-1.23 13.16 13.16 0 0 1 7.2 1.28 14.06 14.06 0 0 1 5.27 4.89 20.13 20.13 0 0 1 2.66 6.51.34.34 0 0 1 -.66.17 19.24 19.24 0 0 0 -3-5.94 12.58 12.58 0 0 0 -5-4.08 11.65 11.65 0 0 0 -6.22-.78 7.87 7.87 0 0 0 -4.89 3.12v.05a1.17 1.17 0 0 1 -2-.22 14.93 14.93 0 0 0 -10.11-8.32 13.65 13.65 0 0 0 -6.62.23 7.52 7.52 0 0 0 -4.67 4 10 10 0 0 0 -.91 3.08v.4.23a1.77 1.77 0 0 1 -.28.79 1.87 1.87 0 0 1 -1.24.81 1.9 1.9 0 0 1 -.72 0 1.87 1.87 0 0 1 -.34-.1h-.07a4.58 4.58 0 0 0 -1.36-.23 12.23 12.23 0 0 0 -3.22.41 8.49 8.49 0 0 0 -2.87 1.25 7.54 7.54 0 0 0 -3 5.27 17 17 0 0 0 .45 6.67l-1.17-.86 29.4.07c4.9 0 9.8.09 14.7.19l7.35.15 3.68.11 1.84.07h.92.47.23l.37.05a.49.49 0 0 1 -.09 1z" fill="#c3c4c7"/><path d="m392 465.78a2 2 0 1 1 -2-2 2 2 0 0 1 2 2" fill="#fff"/><path d="m97.32 430.6s-3.79-27.37-7.8-31.31c6.76 5.8 14.48 22.06 14.48 31.31" fill="#fff"/><path d="m97.19 430.62c-1.12-5.3-2.1-10.62-3.29-15.88-.56-2.64-1.18-5.26-1.91-7.84-.37-1.29-.77-2.56-1.24-3.8a10.53 10.53 0 0 0 -1.75-3.26.76.76 0 0 1 1-1.12 33.58 33.58 0 0 1 5.68 6.95 63 63 0 0 1 4.23 7.81 58.55 58.55 0 0 1 3 8.33 30.83 30.83 0 0 1 1.27 8.79.27.27 0 0 1 -.53 0 34.7 34.7 0 0 0 -1.75-8.48 64.92 64.92 0 0 0 -3.17-8.12 64.25 64.25 0 0 0 -4.23-7.59 32.59 32.59 0 0 0 -5.5-6.54l1-1.12a11.55 11.55 0 0 1 2.07 3.83c.48 1.3.88 2.61 1.24 3.93.72 2.64 1.31 5.29 1.85 8s1 5.34 1.34 8 .7 5.38.91 8.08a.13.13 0 0 1 -.26 0" fill="#c3c4c7"/><path d="m104.09 430.22s.93-21.51-3-25.22c6.74 5.53 11.09 17.85 10.19 25.77" fill="#fff"/><path d="m104 430.21c-.2-4.29-.3-8.57-.64-12.82a62 62 0 0 0 -.73-6.32 23.88 23.88 0 0 0 -.72-3 6.4 6.4 0 0 0 -1.31-2.49.75.75 0 0 1 1-1.11 23.82 23.82 0 0 1 4.78 5.6 35.48 35.48 0 0 1 3.24 6.53 36.62 36.62 0 0 1 1.86 7 23.92 23.92 0 0 1 .11 7.25.27.27 0 0 1 -.3.22.27.27 0 0 1 -.23-.28 27.67 27.67 0 0 0 -.63-7 39.32 39.32 0 0 0 -2-6.73 28.69 28.69 0 0 0 -7.73-11.43l1-1.13a7.64 7.64 0 0 1 1.67 3.15 25 25 0 0 1 .72 3.23 59.19 59.19 0 0 1 .65 6.48c.07 2.16.11 4.32 0 6.47s-.19 4.3-.45 6.45a.13.13 0 0 1 -.15.12.14.14 0 0 1 -.12-.13" fill="#c3c4c7"/><path d="m138.93 430.66s2.54-18.33 5.22-21c-4.53 3.88-9.68 14.77-9.68 21" fill="#fff"/><path d="m138.83 430.64a97 97 0 0 1 1.46-10.8c.36-1.78.75-3.56 1.23-5.33.24-.88.51-1.76.83-2.64a7.76 7.76 0 0 1 1.4-2.59l.77.84a21.81 21.81 0 0 0 -3.66 4.39 43 43 0 0 0 -2.83 5.07 43.81 43.81 0 0 0 -2.17 5.4 23.47 23.47 0 0 0 -1.19 5.67.2.2 0 0 1 -.21.19.21.21 0 0 1 -.19-.19 20.43 20.43 0 0 1 .83-5.89 39.1 39.1 0 0 1 2-5.59 42.26 42.26 0 0 1 2.83-5.24 22.6 22.6 0 0 1 3.81-4.67.57.57 0 0 1 .79.81 7.05 7.05 0 0 0 -1.17 2.17c-.32.82-.59 1.68-.83 2.54-.49 1.72-.9 3.48-1.28 5.24-.8 3.52-1.46 7.08-2.24 10.62a.1.1 0 0 1 -.2 0" fill="#c3c4c7"/><path d="m134.4 430.4s-.62-14.4 2-16.89c-4.51 3.7-7.43 11.95-6.82 17.26" fill="#fff"/><path d="m134.3 430.4a54.93 54.93 0 0 1 -.31-8.65 39.31 39.31 0 0 1 .43-4.34 15.36 15.36 0 0 1 .49-2.17 5.35 5.35 0 0 1 1.09-2.14l.75.85a19.15 19.15 0 0 0 -5.17 7.63 26.37 26.37 0 0 0 -1.38 4.49 18.62 18.62 0 0 0 -.44 4.68.2.2 0 0 1 -.18.21.21.21 0 0 1 -.21-.17 19.74 19.74 0 0 1 1.29-9.57 23.73 23.73 0 0 1 2.17-4.38 16 16 0 0 1 3.21-3.76.56.56 0 0 1 .78.81 8.2 8.2 0 0 0 -1.34 3.67 40.91 40.91 0 0 0 -.49 4.22c-.24 2.84-.31 5.71-.47 8.58a.1.1 0 0 1 -.1.1.1.1 0 0 1 -.1-.09" fill="#c3c4c7"/><path d="m924.4 431.93s-3.79-27.37-7.8-31.31c6.77 5.79 14.45 22.05 14.45 31.31" fill="#fff"/><path d="m924.27 432c-1.12-5.3-2.1-10.62-3.29-15.88-.56-2.64-1.18-5.26-1.91-7.84-.37-1.29-.77-2.56-1.24-3.8a10.56 10.56 0 0 0 -1.76-3.27.76.76 0 0 1 1.06-1.08 33.58 33.58 0 0 1 5.68 6.95 63.22 63.22 0 0 1 4.23 7.81 58.71 58.71 0 0 1 3 8.33 30.83 30.83 0 0 1 1.27 8.79.27.27 0 0 1 -.53 0 34.7 34.7 0 0 0 -1.75-8.48 64.92 64.92 0 0 0 -3.22-8.08 64.06 64.06 0 0 0 -4.23-7.59 32.59 32.59 0 0 0 -5.48-6.57l1-1.12a11.55 11.55 0 0 1 2.07 3.83c.48 1.3.88 2.61 1.24 3.93.72 2.64 1.31 5.29 1.85 8s1 5.34 1.34 8 .7 5.38.91 8.08a.13.13 0 0 1 -.26 0" fill="#c3c4c7"/><path d="m931.18 431.55s.93-21.51-3-25.22c6.74 5.53 11.09 17.85 10.19 25.77" fill="#fff"/><path d="m931 431.54c-.2-4.29-.29-8.57-.64-12.82a61.57 61.57 0 0 0 -.73-6.32 24.11 24.11 0 0 0 -.72-3 6.42 6.42 0 0 0 -1.31-2.49.75.75 0 0 1 1-1.11 23.82 23.82 0 0 1 4.78 5.6 35.48 35.48 0 0 1 3.24 6.53 36.53 36.53 0 0 1 1.86 7 23.88 23.88 0 0 1 .11 7.25.27.27 0 0 1 -.3.22.27.27 0 0 1 -.23-.28 27.61 27.61 0 0 0 -.63-7 39.32 39.32 0 0 0 -2-6.73 28.69 28.69 0 0 0 -7.73-11.43l1-1.13a7.64 7.64 0 0 1 1.67 3.15 25 25 0 0 1 .72 3.23 59.19 59.19 0 0 1 .65 6.48c.07 2.16.11 4.32 0 6.47s-.19 4.3-.45 6.45a.13.13 0 0 1 -.15.12.14.14 0 0 1 -.12-.13" fill="#c3c4c7"/><path d="m404.56 446.2a2.73 2.73 0 1 1 -2.73-2.73 2.73 2.73 0 0 1 2.73 2.73" fill="#fff"/><path d="m496.88 198.08c-.63-1.15-.4-2.29-.47-3.44l-.06-3.44c0-2.29-.11-4.58-.07-6.88s0-4.58.12-6.88a21.41 21.41 0 0 1 .93-6.88.47.47 0 0 1 .89 0 21.41 21.41 0 0 1 .93 6.88c.07 2.29.12 4.59.12 6.88s-.05 4.59-.07 6.88l-.06 3.44c-.07 1.15.16 2.29-.47 3.44a1 1 0 0 1 -1.38.4 1 1 0 0 1 -.4-.4" fill="#c3c4c7"/><path d="m242 306.14a26.29 26.29 0 0 1 5.54-.44 34.58 34.58 0 0 1 5.54.44.23.23 0 0 1 .18.26.23.23 0 0 1 -.18.18 34.43 34.43 0 0 1 -5.54.44 26.29 26.29 0 0 1 -5.54-.44.22.22 0 0 1 0-.44" fill="#c3c4c7"/><path d="m726.23 149.6a26.29 26.29 0 0 1 5.54-.44 34.58 34.58 0 0 1 5.54.44.22.22 0 0 1 .18.26.23.23 0 0 1 -.18.18 34.43 34.43 0 0 1 -5.54.44 26.29 26.29 0 0 1 -5.54-.44.22.22 0 0 1 0-.44" fill="#c3c4c7"/><path d="m460.33 293.36a26.29 26.29 0 0 1 5.54-.44 34.58 34.58 0 0 1 5.54.44.22.22 0 0 1 .18.26.23.23 0 0 1 -.18.18 34.43 34.43 0 0 1 -5.54.44 26.29 26.29 0 0 1 -5.54-.44.22.22 0 0 1 0-.44" fill="#c3c4c7"/><path d="m513.22 335.8a26.29 26.29 0 0 1 5.54-.44 34.28 34.28 0 0 1 5.54.44.23.23 0 0 1 0 .44 34.43 34.43 0 0 1 -5.54.44 26.2 26.2 0 0 1 -5.54-.44.22.22 0 0 1 0-.44" fill="#c3c4c7"/><path d="m380.36 311.81a26.2 26.2 0 0 1 5.54-.44 34.43 34.43 0 0 1 5.54.44.22.22 0 0 1 .18.26.23.23 0 0 1 -.18.18 34.43 34.43 0 0 1 -5.54.44 26.29 26.29 0 0 1 -5.54-.44.22.22 0 0 1 0-.44" fill="#c3c4c7"/><path d="m146 244.77a26.29 26.29 0 0 1 5.54-.44 34.43 34.43 0 0 1 5.54.44.23.23 0 0 1 0 .44 34.58 34.58 0 0 1 -5.54.44 26.29 26.29 0 0 1 -5.54-.44.23.23 0 0 1 -.17-.27.23.23 0 0 1 .17-.17" fill="#c3c4c7"/><path d="m175.53 335.8a26.29 26.29 0 0 1 5.54-.44 34.28 34.28 0 0 1 5.54.44.23.23 0 0 1 0 .44 34.43 34.43 0 0 1 -5.54.44 26.2 26.2 0 0 1 -5.54-.44.22.22 0 0 1 0-.44" fill="#c3c4c7"/><path d="m875.78 259.89a26.29 26.29 0 0 1 5.54-.44 34.28 34.28 0 0 1 5.54.44.23.23 0 0 1 0 .44 34.43 34.43 0 0 1 -5.54.44 26.2 26.2 0 0 1 -5.54-.44.22.22 0 0 1 0-.44" fill="#c3c4c7"/><path d="m900.31 348.47c-.1-20.17-.25-40.34-.25-60.5l-.12-60.5 1.27 1.26-65.12.07 1.33-1.33v91a1.33 1.33 0 0 1 -1.33 1.33h-16.56a1.33 1.33 0 0 1 -1.33-1.33v-25.85l1.33 1.33h-10a1.33 1.33 0 0 1 -1.33-1.33v-196.79l1.31 1.33-16-.27a1.33 1.33 0 0 1 -1.31-1.33v-23.09l1.33 1.33h-42.6l1.33-1.33-.11 24.77a1.33 1.33 0 0 1 -1.32 1.33l-34.19.23 1.36-1.33v36.92l-1.36-1.39h10.64a1.33 1.33 0 0 1 1.33 1.33v142.78a1.34 1.34 0 0 1 -1.22 1.33l-11.83 1a1.33 1.33 0 0 1 -1.44-1.21v-81.79l.33.88-22.64-25.65-.13-.18-11.94-19.13h2.27l-11.38 18.93a1.36 1.36 0 0 1 -.17.22l-24.18 25.86.36-.91v13.45a1.33 1.33 0 0 1 -1.33 1.33h-15l1.33-1.33v53.78a1.33 1.33 0 0 1 -1.33 1.33h-28.44l1.33-1.33v20.41a1.33 1.33 0 0 1 -1.33 1.33h-9.48a1.33 1.33 0 0 1 -1.33-1.33v-20.44l1.33 1.33h-52l1.33-1.33v44.61h-2.67v-.13l1.33 1.33h-39.9a1.33 1.33 0 0 1 -1.33-1.33v-116.94l2.22 1-57 50.74.45-1v97a1.33 1.33 0 0 1 -1.33 1.33h-50.1a1.33 1.33 0 0 1 -1.33-1.33v-76.22l1.33 1.33h-54.39l1.33-1.33v61.28a1.33 1.33 0 0 1 -2.35.86l-70-82.06 1 .45-44.54-.06 1.23-1.23-.07 49.2a1.16 1.16 0 0 1 -1.16 1.16h-27.55a1.12 1.12 0 0 1 -1.12-1.12l.11-79.61 1 1-50.16-.07.94-.94-.32 136a.62.62 0 0 1 -.61.62l-52.06-.2a.44.44 0 0 1 0-.89l52.06-.17-.62.62-.32-136a.94.94 0 0 1 .94-.94l50.16-.07a1 1 0 0 1 1 1l.11 79.61-1.11-1.16h27.55l-1.16 1.16-.07-49.2a1.23 1.23 0 0 1 1.23-1.23l44.54-.06a1.31 1.31 0 0 1 1 .45l70 82-2.35.87v-61.27a1.33 1.33 0 0 1 1.33-1.33h54.47a1.33 1.33 0 0 1 1.33 1.33v76.21l-1.33-1.33h50.1l-1.33 1.33v-97a1.34 1.34 0 0 1 .45-1l57-50.74a1.33 1.33 0 0 1 2.22 1v116.96l-1.33-1.33h39.9a1.33 1.33 0 0 1 1.33 1.33v.13h-2.67v-44.62a1.33 1.33 0 0 1 1.33-1.33h52a1.33 1.33 0 0 1 1.33 1.33v20.41l-1.33-1.33h9.48l-1.33 1.33v-20.41a1.33 1.33 0 0 1 1.33-1.33h28.44l-1.35 1.33v-53.78a1.33 1.33 0 0 1 1.33-1.33h15l-1.33 1.33v-13.44a1.34 1.34 0 0 1 .36-.91l24.19-25.86-.17.22 11.35-18.89a1.33 1.33 0 0 1 2.27 0l11.94 19.13-.13-.18 22.64 25.65a1.33 1.33 0 0 1 .33.88v81.71l-1.45-1.33 11.83-1-1.22 1.33v-142.81l1.33 1.33h-10.63a1.33 1.33 0 0 1 -1.33-1.33v-36.91a1.33 1.33 0 0 1 1.32-1.33l34.19-.23-1.33 1.33.11-24.76a1.33 1.33 0 0 1 1.33-1.33h42.57a1.33 1.33 0 0 1 1.33 1.33v23.08l-1.31-1.33 16 .27a1.33 1.33 0 0 1 1.31 1.33v196.79l-1.33-1.33h10a1.33 1.33 0 0 1 1.33 1.33v25.86l-1.33-1.33h16.56l-1.33 1.33v-91a1.33 1.33 0 0 1 1.33-1.33l65.12.07a1.26 1.26 0 0 1 1.27 1.26l-.12 60.5c0 20.17-.15 40.34-.26 60.5a.89.89 0 0 1 -1.78 0" fill="#c3c4c7"/><path d="m637.68 64.19 9.76-.22-1.09.92a28.51 28.51 0 0 1 1.92-6.33 18.5 18.5 0 0 1 3.73-5.65 10.69 10.69 0 0 1 6.29-3.14 10.08 10.08 0 0 1 3.58.13 8.16 8.16 0 0 1 3.38 1.58 8.55 8.55 0 0 1 2.31 2.92c.13.27.26.56.37.83a.32.32 0 0 0 .08.12.26.26 0 0 0 .24.07h.11l.42-.2a8.66 8.66 0 0 1 .85-.34 10.22 10.22 0 0 1 1.76-.44 12.42 12.42 0 0 1 3.52 0 11.61 11.61 0 0 1 1.72.33l.93.3c.3.15.59.31.88.47a6.78 6.78 0 0 1 2.5 2.89 13.52 13.52 0 0 1 1 6.86l-1.15-1.28c3.71 0 7.43.15 11.15.26a.89.89 0 0 1 0 1.78c-3.72.11-7.43.22-11.15.26a1.14 1.14 0 0 1 -1.15-1.12v-.19a11.27 11.27 0 0 0 -.93-5.52 4.53 4.53 0 0 0 -1.6-1.82l-.52-.27-.58-.18a9.21 9.21 0 0 0 -1.39-.25 9.86 9.86 0 0 0 -2.79 0 7.78 7.78 0 0 0 -1.31.34c-.21.08-.42.16-.61.25l-.29.15a3.51 3.51 0 0 1 -.62.26 2.92 2.92 0 0 1 -2.72-.6 3 3 0 0 1 -.82-1.17c-.08-.22-.17-.42-.27-.62a5.92 5.92 0 0 0 -1.57-2 6.57 6.57 0 0 0 -5-1.2 8.11 8.11 0 0 0 -4.82 2.38c-2.72 2.66-4.35 6.68-5.2 10.54v.08a1.08 1.08 0 0 1 -1.07.84l-9.85-.21a.89.89 0 0 1 0-1.78" fill="#c3c4c7"/><path d="m303.36 110q.24 21.51.38 43l.17 43v43l-.1 21.51-.2 21.51a.89.89 0 0 1 -1.78 0l-.26-21.51-.16-21.51-.12-43 .05-43q.05-21.51.26-43a.89.89 0 0 1 1.78 0" fill="#c3c4c7"/><path d="m424 124.79h-239a3.06 3.06 0 0 1 -3.06-3.06v-105a3.06 3.06 0 0 1 3.06-3.11h236a3.06 3.06 0 0 1 3 3.06z" fill="#3895ba"/><g fill="#fff"><path d="m256.16 98.73 10.43-30.15a31.94 31.94 0 0 0 2.6-12.2 27.88 27.88 0 0 0 -.23-3.51 34.08 34.08 0 0 1 -12.8 45.86zm-12.48-45.5c2-.09 3.92-.32 3.92-.32a1.42 1.42 0 0 0 -.23-2.82s-5.51.45-9.11.45c-3.37 0-9-.45-9-.45a1.42 1.42 0 0 0 -.23 2.82s1.73.23 3.6.32l5.37 14.58-7.47 22.4-12.43-37c2-.09 3.92-.32 3.92-.32a1.42 1.42 0 0 0 -.23-2.82s-5.51.45-9.11.45c-.64 0-1.41 0-2.19 0a34.09 34.09 0 0 1 51.51-6.44c-.14 0-.27 0-.46 0a5.9 5.9 0 0 0 -5.74 6.06c0 2.82 1.64 5.19 3.37 8a18.2 18.2 0 0 1 2.83 9.39 31.65 31.65 0 0 1 -2.6 11l-3.4 11.41zm-4.68 50.14a33.67 33.67 0 0 1 -9.65-1.41l10.25-29.74 10.46 28.78a4.39 4.39 0 0 0 .23.46 33.08 33.08 0 0 1 -11.29 2zm-34.12-34.11a33.6 33.6 0 0 1 3-13.89l16.22 44.63a34.09 34.09 0 0 1 -19.22-30.69zm34.11-38a38 38 0 1 0 37.93 37.93 38 38 0 0 0 -37.92-37.91z"/><path d="m303.27 38.71c.51 5.22.5 10.44.53 15.66l.09 15.63-.09 15.66c0 5.22 0 10.44-.53 15.66h-.33c-.51-5.22-.5-10.44-.53-15.66l-.09-15.66.09-15.66c0-5.22 0-10.44.53-15.66z"/><path d="m338.55 59.89h2.11a.16.16 0 0 0 .16-.16v-19a.16.16 0 0 0 -.16-.16h-2.11a.16.16 0 0 0 -.16.16l.16 19.19"/><path d="m345.38 50.46a1.9 1.9 0 0 0 .33-1.14v-7.16c0-1.14-.49-1.63-1.63-1.63h-2.6a.16.16 0 0 0 -.16.16v2a.16.16 0 0 0 .16.16h1.63a.16.16 0 0 1 .16.16v6a.16.16 0 0 1 -.16.16h-1.46a.16.16 0 0 0 -.16.16v2.11l2.11 8.3.16.16h2.44v-.16l-2.11-8.62a.16.16 0 0 1 .16-.16h.16c.49-.16.81-.16 1-.49"/><path d="m365.55 59.89h2.11a.16.16 0 0 0 .16-.16v-19a.16.16 0 0 0 -.16-.16h-2.11a.16.16 0 0 0 -.16.16l.16 19.19"/><path d="m372.38 50.46a1.9 1.9 0 0 0 .33-1.14v-7.16c0-1.14-.49-1.63-1.63-1.63h-2.6a.16.16 0 0 0 -.16.16v2a.16.16 0 0 0 .16.16h1.63a.16.16 0 0 1 .16.16v6a.16.16 0 0 1 -.16.16h-1.46a.16.16 0 0 0 -.16.16v2.11l2.11 8.3.16.16h2.44v-.16l-2.11-8.62a.16.16 0 0 1 .16-.16h.49c0-.16.33-.16.65-.49"/><path d="m347.66 42v5c0 .49 0 .81.16 1s.16.33.49.49l1.14.81.16.16.16.16a8.94 8.94 0 0 1 1.46 1.14h.16l1-.81.16-.16v-.16a.16.16 0 0 0 -.16-.16l-2.44-2-.16-.16v-4.31a.16.16 0 0 1 .16-.16h.49a.16.16 0 0 0 .16-.16v-2.15a.16.16 0 0 0 -.16-.16h-1.14a1.46 1.46 0 0 0 -1.64 1.63"/><path d="m347.82 51.27a2.06 2.06 0 0 0 -.16 1v5.69c0 1.14.49 1.63 1.63 1.63h1.46a.16.16 0 0 0 .16-.16v-2a.16.16 0 0 0 -.16-.16h-.49a.16.16 0 0 1 -.16-.16v-5a.16.16 0 0 1 .16-.16l.81-.65v-.16l-1.46-1.14h-.16l-1 .65-.65.65"/><path d="m354.33 57.94v-3.58a.16.16 0 0 0 -.16-.16h-2.11a.16.16 0 0 0 -.16.16v2.93a.16.16 0 0 1 -.16.16h-.49a.16.16 0 0 0 -.16.16v2a.16.16 0 0 0 .16.16h1.46c1.14 0 1.63-.65 1.63-1.79"/><path d="m352.7 40.37h-1.46a.16.16 0 0 0 -.16.16v2a.16.16 0 0 0 .16.16h.49a.16.16 0 0 1 .16.16v2.6a.16.16 0 0 0 .16.16h2.11a.16.16 0 0 0 .16-.16v-3.45a1.46 1.46 0 0 0 -1.63-1.63"/><path d="m377.91 40.7v6.3l.81 6.67a.16.16 0 0 1 -.16.16h-.49a.16.16 0 0 0 -.16.16v2a.16.16 0 0 0 .16.16h.65a.16.16 0 0 1 .16.16l.33 3.42a.16.16 0 0 0 .16.16h2.28v-.16l-2.77-18.87-.16-.16z"/><path d="m376.78 53.71.65-6.67.16-1v-5.34a.16.16 0 0 0 -.16-.16h-.81a.16.16 0 0 0 -.16.16l-2.77 18.87v.16h2.31a.16.16 0 0 0 .16-.16l.33-3.42a.16.16 0 0 1 .16-.16h.81a.16.16 0 0 0 .16-.16v-2a.16.16 0 0 0 -.16-.16h-.65c.16.16 0 .16 0 0"/><path d="m358.39 40.53h-2.11a.16.16 0 0 0 -.16.16v19a.16.16 0 0 0 .16.16h2.11a.16.16 0 0 0 .16-.16l-.16-19.19"/><path d="m363.11 51.11a2.86 2.86 0 0 0 -.65-.81l-.81-.49v-.16l.81-.49c.33-.33.65-.49.65-.65.16-.16.16-.65.16-1.14v-5.21c0-1.14-.49-1.63-1.63-1.63h-2.64a.16.16 0 0 0 -.16.16v2a.16.16 0 0 0 .16.16h1.63a.16.16 0 0 1 .16.16v4.72a.16.16 0 0 1 -.16.16l-.81.65a.57.57 0 0 1 -.33.16h-.65a.16.16 0 0 0 -.16.16v2a.16.16 0 0 0 .16.16h.65a.5.5 0 0 1 .33.16l.81.65.16.16v5.69a.16.16 0 0 1 -.16.16h-1.63a.16.16 0 0 0 -.16.16v2a.16.16 0 0 0 .16.16h2.6c1.14 0 1.63-.49 1.63-1.63v-6c0-.65-.16-1-.16-1.3"/><path d="m392.72 59.89h2.11a.16.16 0 0 0 .16-.16v-16.73a.16.16 0 0 1 .16-.16h.65a.16.16 0 0 0 .16-.16v-2a.16.16 0 0 0 -.16-.16h-3.09a.16.16 0 0 0 -.16.16l.16 19.19c-.16-.16-.16 0 0 0"/><path d="m397.11 40.53h-.81a.16.16 0 0 0 -.16.16v2.11a.86.86 0 0 1 1 1v12.84c0 .65-.33 1-1.14 1h-.81a.16.16 0 0 0 -.16.16v2a.16.16 0 0 0 .16.16h1.63a2.38 2.38 0 0 0 2-.65 2.59 2.59 0 0 0 .65-2v-13.85a2.59 2.59 0 0 0 -.65-2c0-.65-.65-1-1.63-1"/><path d="m383.12 59.4h2.11a.16.16 0 0 0 .16-.16v-7.81l-2.27-8.43z"/><path d="m388.16 40.37v8l2.28 8.46v-16.3a.16.16 0 0 0 -.16-.16h-2.11"/><path d="m405 69.55a.42.42 0 0 1 -.39.39h-8.61a.43.43 0 0 0 -.4.4l-.79 3.16h-.2l-11.5-41.5-.2-.2h-53a.43.43 0 0 0 -.39.4v21.55a.19.19 0 0 0 .2.2h2.37a.19.19 0 0 0 .2-.2v-19a.43.43 0 0 1 .4-.4h48.28c.2 0 .2 0 .2.2l4.15 15.22s8.3 30.63 9.09 33.79h.2l3-10.67a.19.19 0 0 1 .2-.2h9.67a.43.43 0 0 0 .4-.4v-19.29a.19.19 0 0 0 -.2-.2h-2.37a.19.19 0 0 0 -.2.2z"/><path d="m329.49 68.15a.19.19 0 0 0 .2.2h56.87a.19.19 0 0 0 .2-.2l-.59-2.37a.19.19 0 0 0 -.2-.2h-53.31a.19.19 0 0 1 -.2-.2v-16.59a.19.19 0 0 0 -.2-.2h-2.57a.19.19 0 0 0 -.2.2z"/><path d="m407.8 32a.19.19 0 0 0 -.2-.2h-22.37a.19.19 0 0 0 -.2.2l.59 2.37a.19.19 0 0 0 .2.2h18.81a.19.19 0 0 1 .2.2v19.6a.19.19 0 0 0 .2.2 13 13 0 0 0 2.77-.2z"/><path d="m329.49 106.29a.19.19 0 0 0 .2.2h67.78a.19.19 0 0 0 .2-.2l-.59-2.37a.19.19 0 0 0 -.2-.2h-64.22a.19.19 0 0 1 -.2-.2v-37.93a.19.19 0 0 0 -.2-.2h-2.57a.19.19 0 0 0 -.2.2z"/><path d="m407.8 106.29a.19.19 0 0 1 -.2.2h-56.87a.19.19 0 0 1 -.2-.2l.59-2.37a.19.19 0 0 1 .2-.2h53.32a.19.19 0 0 0 .2-.2v-36a.19.19 0 0 1 .2-.2h2.57a.19.19 0 0 1 .2.2z"/><path d="m347.53 95.81v-5.17a.19.19 0 0 0 -.2-.2h-2.57a.19.19 0 0 0 -.2.2v4.36a.19.19 0 0 1 -.2.2h-.69a.19.19 0 0 0 -.2.2v2.37a.19.19 0 0 0 .2.2h1.88c1.38 0 2-.79 2-2.17"/><path d="m345.71 74.49h-2.05a.19.19 0 0 0 -.2.2v2.37a.19.19 0 0 0 .2.2h.87a.19.19 0 0 1 .2.2v4.54a.19.19 0 0 0 .2.2h2.57a.19.19 0 0 0 .2-.2v-5.53a1.77 1.77 0 0 0 -2-2"/><path d="m368.37 76.74v6.13c0 .59 0 1 .2 1.19s.2.39.59.59l1.38 1 .2.2.2.2a10.86 10.86 0 0 1 1.78 1.38h.2l1.19-1 .2-.2v-.23a.19.19 0 0 0 -.2-.2l-3-2.37-.2-.2v-5.31a.19.19 0 0 1 .2-.2h.59a.19.19 0 0 0 .2-.2v-2.52a.19.19 0 0 0 -.2-.2h-1.38a1.77 1.77 0 0 0 -2 2"/><path d="m368.57 88a2.51 2.51 0 0 0 -.2 1.19v6.91c0 1.38.59 2 2 2h1.78a.19.19 0 0 0 .2-.2v-2.39a.19.19 0 0 0 -.2-.2h-.59a.19.19 0 0 1 -.2-.2v-6.11a.19.19 0 0 1 .2-.2l1-.79v-.2l-1.78-1.38h-.2l-1.19.79-.79.79"/><path d="m376.47 96.1v-4.34a.19.19 0 0 0 -.2-.2h-2.57a.19.19 0 0 0 -.2.2v3.56a.19.19 0 0 1 -.2.2h-.59a.19.19 0 0 0 -.2.2v2.37a.19.19 0 0 0 .2.2h1.78c1.38 0 2-.79 2-2.17"/><path d="m374.5 74.76h-1.78a.19.19 0 0 0 -.2.2v2.37a.19.19 0 0 0 .2.2h.59a.19.19 0 0 1 .2.2v3.16a.19.19 0 0 0 .2.2h2.57a.19.19 0 0 0 .2-.2v-4.15a1.77 1.77 0 0 0 -2-2"/><path d="m341.46 98h1.48a.19.19 0 0 0 .2-.2v-2.56h-.49a1 1 0 0 1 -1.19-1.19v-15.61q0-1.19 1.48-1.19h-.1a.19.19 0 0 0 .2-.2v-2.36a.19.19 0 0 0 -.2-.2h-1a2.89 2.89 0 0 0 -2.37.79 3.15 3.15 0 0 0 -.79 2.37v16.8a3.15 3.15 0 0 0 .79 2.37c0 .79.79 1.19 2 1.19"/><path d="m363.57 98.18h2.57a.19.19 0 0 0 .2-.2v-23.12a.19.19 0 0 0 -.2-.2h-2.57a.19.19 0 0 0 -.2.2l.2 23.32c-.2-.2-.2 0 0 0"/><path d="m349.78 98.18h2.57a.19.19 0 0 0 .2-.2v-23.12a.19.19 0 0 0 -.2-.2h-2.57a.19.19 0 0 0 -.2.2l.2 23.32c-.2-.2-.2 0 0 0"/><path d="m353.89 77.53h2a.19.19 0 0 0 .2-.2v-2.33a.19.19 0 0 0 -.2-.2h-2a.19.19 0 0 0 -.2.2l.2 2.57c-.2-.2-.2 0 0 0"/><path d="m356.46 98.08h2.54a.19.19 0 0 0 .2-.2v-20.15a.19.19 0 0 1 .2-.2h2.37a.19.19 0 0 0 .2-.2v-2.33a.19.19 0 0 0 -.2-.2h-5.14a.19.19 0 0 0 -.2.2v23.08"/><path d="m383.34 74.76h2.29a1.67 1.67 0 0 1 1.84 1.75v5.63h-3v-4.8h-1.15z"/><path d="m383.16 98.08h-2.57a1.67 1.67 0 0 1 -1.84-1.75v-5.64h3v4.81h1.42z"/><path d="m382.92 74.71v2.68h-1.15v4.53l4.18 5.68 1.05 1.49s.47.39.47 1.72v5.29s.15 1.6-1.06 2a2.88 2.88 0 0 1 -.92.1h-2.16l-.06-2.72h1.27l-.06-4.81-5.09-6.83a2.72 2.72 0 0 1 -.66-1.74v-5.37s0-2 1.68-2z"/><path d="m855.8 37.41c1-.33 84.3 0 84.3 0s5.35-17.54-8.86-21.23c-4.26-1.11-6.72-.69-8-.15a.8.8 0 0 1 -1.13-.6c-.3-3.51-2.31-13.16-15.14-13.16-14.12 0-20.31 13.28-20.31 13.28a12.69 12.69 0 0 0 -8.72-5c-16.48-1.32-20.52 16.9-20.52 16.9"/></g><path d="m855.64 36.93.47-.06h.33.67l1.32-.05 2.64-.08 5.27-.12 10.54-.15c7-.1 14.05-.18 21.08-.18h42.15l-1.17.86a24.89 24.89 0 0 0 .68-9.8 11.37 11.37 0 0 0 -4.52-7.93 12.72 12.72 0 0 0 -4.31-1.89 17.77 17.77 0 0 0 -4.78-.61 7 7 0 0 0 -2.14.37h-.12a2.27 2.27 0 0 1 -.39.12 2.2 2.2 0 0 1 -.81 0 2.12 2.12 0 0 1 -1.41-.91 2 2 0 0 1 -.32-.88v-.33l-.07-.6a14.86 14.86 0 0 0 -1.38-4.58 11.3 11.3 0 0 0 -7-5.9 20.11 20.11 0 0 0 -9.73-.31c-6.43 1.35-12 6.27-14.85 12.17a1.18 1.18 0 0 1 -2 .21 11.68 11.68 0 0 0 -7.38-4.64 16.86 16.86 0 0 0 -9.15 1.22 18.39 18.39 0 0 0 -7.26 5.98 27.77 27.77 0 0 0 -4.25 8.64.34.34 0 0 1 -.66-.17 28.69 28.69 0 0 1 3.91-9.18 19.82 19.82 0 0 1 7.5-6.81 18.69 18.69 0 0 1 10.1-1.74 12.33 12.33 0 0 1 5.06 1.72 13.61 13.61 0 0 1 4 3.58l-2 .17a23.59 23.59 0 0 1 3.07-4.53 31.84 31.84 0 0 1 3.77-3.88 22.51 22.51 0 0 1 9.65-5 22.89 22.89 0 0 1 5.45-.56 20 20 0 0 1 5.46.78 14.28 14.28 0 0 1 5 2.6 13.92 13.92 0 0 1 3.56 4.44 17.42 17.42 0 0 1 1.69 5.35l.09.69v.32a.66.66 0 0 0 -.1-.27.5.5 0 0 0 -.33-.23.44.44 0 0 0 -.17 0h-.08l.19-.07a9.27 9.27 0 0 1 3-.57 19 19 0 0 1 5.54.7 15.31 15.31 0 0 1 5.16 2.34 12.69 12.69 0 0 1 3.79 4.32 16 16 0 0 1 1.71 5.37 27.23 27.23 0 0 1 -.85 10.87 1.17 1.17 0 0 1 -1.13.86l-42.15-.27-42-.46h-.25a.49.49 0 0 1 -.08-1" fill="#c3c4c7"/><path d="m250.44 22.69h-19.18v-19.19h19.18z" fill="#fff" stroke="#c3c4c7" stroke-linecap="round" stroke-linejoin="round" stroke-width="1.33"/><path d="m312.58 22.69h-19.19v-19.19h19.19z" fill="#fff" stroke="#c3c4c7" stroke-linecap="round" stroke-linejoin="round" stroke-width="1.33"/><path d="m374.71 22.69h-19.18v-19.19h19.18z" fill="#fff" stroke="#c3c4c7" stroke-linecap="round" stroke-linejoin="round" stroke-width="1.33"/><path d="m280.9 124.79v12.52h45.85v-12.52" fill="#fff"/><path d="m281.34 124.79a59.87 59.87 0 0 1 .23 6.26v6.26l-.69-.69h22.93l22.93.09-.65.65c0-2.09 0-4.17.13-6.26s.15-4.17.3-6.26a.22.22 0 0 1 .44 0c.15 2.09.23 4.17.3 6.26s.08 4.17.13 6.26a.63.63 0 0 1 -.62.65l-22.93.09h-22.93a.69.69 0 0 1 -.69-.69v-6.26a60.24 60.24 0 0 1 .23-6.26.45.45 0 0 1 .89 0" fill="#c3c4c7"/><path d="m313.42 149.82h-19.19v-12.51h19.19z" fill="#fff"/><path d="m313.25 149.52c-.13-2.13-.25-4.17-.34-6.16s-.13-4-.16-6l.67.67-19.18.07.74-.74v12.52l-.72-.72 9.33.09 4.68.08c1.56 0 3.18.13 4.86.24zm.31.63c-1.47.11-3 .21-4.57.23l-4.91.08-9.85.09a.71.71 0 0 1 -.72-.71v-12.52a.73.73 0 0 1 .73-.74l19.18.07a.66.66 0 0 1 .66.66c0 2.16-.07 4.34-.16 6.47s-.21 4.22-.35 6.21z" fill="#c3c4c7"/><path d="m965.71 426s-1.28-3.49-4.7-4.11a6.91 6.91 0 0 0 -4.33.67 1.77 1.77 0 0 0 -.58 2.7 6.32 6.32 0 0 0 3.81 2.31 7 7 0 0 0 5.81-1.56" fill="#fff"/><path d="m965.71 426s-1.28-3.49-4.7-4.11a6.91 6.91 0 0 0 -4.33.67 1.77 1.77 0 0 0 -.58 2.7 6.32 6.32 0 0 0 3.81 2.31 7 7 0 0 0 5.8-1.57z" fill="none" stroke="#c3c4c7" stroke-width="1.33"/><path d="m975.63 429a1.79 1.79 0 0 0 .21-2.78 6.05 6.05 0 0 0 -4.15-1.74 7.41 7.41 0 0 0 -5.52 2.76 6.77 6.77 0 0 0 5.45 3 7 7 0 0 0 4-1.26" fill="#fff"/><path d="m975.63 429a1.79 1.79 0 0 0 .21-2.78 6.05 6.05 0 0 0 -4.15-1.74 7.41 7.41 0 0 0 -5.52 2.76 6.77 6.77 0 0 0 5.45 3 7 7 0 0 0 4.01-1.24z" fill="none" stroke="#c3c4c7" stroke-width="1.33"/><path d="m977.07 420.48a1.79 1.79 0 0 0 .44-2.75 6.06 6.06 0 0 0 -4-2.08 7.41 7.41 0 0 0 -5.73 2.29 6.78 6.78 0 0 0 5.22 3.46 7 7 0 0 0 4.09-.92" fill="#fff"/><path d="m977.07 420.48a1.79 1.79 0 0 0 .44-2.75 6.06 6.06 0 0 0 -4-2.08 7.41 7.41 0 0 0 -5.73 2.29 6.78 6.78 0 0 0 5.22 3.46 7 7 0 0 0 4.07-.92z" fill="none" stroke="#c3c4c7" stroke-width="1.33"/><path d="m980.53 413.07a1.79 1.79 0 0 0 1.08-2.57 6.07 6.07 0 0 0 -3.39-3 7.39 7.39 0 0 0 -6.1.87 6.81 6.81 0 0 0 4.22 4.59 7 7 0 0 0 4.19.07" fill="#fff"/><path d="m980.53 413.07a1.79 1.79 0 0 0 1.08-2.57 6.07 6.07 0 0 0 -3.39-3 7.39 7.39 0 0 0 -6.1.87 6.81 6.81 0 0 0 4.22 4.59 7 7 0 0 0 4.19.11z" fill="none" stroke="#c3c4c7" stroke-width="1.33"/><path d="m967.65 417.65s0-3.72-3.06-5.46a6.92 6.92 0 0 0 -4.29-.83 1.77 1.77 0 0 0 -1.46 2.35 6.35 6.35 0 0 0 2.81 3.46 7 7 0 0 0 6 .49" fill="#fff"/><path d="m967.65 417.65s0-3.72-3.06-5.46a6.92 6.92 0 0 0 -4.29-.83 1.77 1.77 0 0 0 -1.46 2.35 6.35 6.35 0 0 0 2.81 3.46 7 7 0 0 0 6 .48z" fill="none" stroke="#c3c4c7" stroke-width="1.33"/><path d="m971.9 409.47s.51-3.69-2.21-5.86a6.81 6.81 0 0 0 -3.55-1.43 2.07 2.07 0 0 0 -2.22 2.63 6.27 6.27 0 0 0 2.13 3.27 7 7 0 0 0 5.85 1.38" fill="#fff"/><path d="m971.9 409.47s.51-3.69-2.21-5.86a6.81 6.81 0 0 0 -3.55-1.43 2.07 2.07 0 0 0 -2.22 2.63 6.27 6.27 0 0 0 2.13 3.27 7 7 0 0 0 5.85 1.39z" fill="none" stroke="#c3c4c7" stroke-width="1.33"/><path d="m965.71 426s-1.28-3.49-4.7-4.11a6.91 6.91 0 0 0 -4.33.67 1.77 1.77 0 0 0 -.58 2.7 6.32 6.32 0 0 0 3.81 2.31 7 7 0 0 0 5.8-1.57z" fill="none" stroke="#c3c4c7" stroke-width="1.33"/><path d="m975.63 429a1.79 1.79 0 0 0 .21-2.78 6.05 6.05 0 0 0 -4.15-1.74 7.41 7.41 0 0 0 -5.52 2.76 6.77 6.77 0 0 0 5.45 3 7 7 0 0 0 4.01-1.24z" fill="none" stroke="#c3c4c7" stroke-width="1.33"/><path d="m977.07 420.48a1.79 1.79 0 0 0 .44-2.75 6.06 6.06 0 0 0 -4-2.08 7.41 7.41 0 0 0 -5.73 2.29 6.78 6.78 0 0 0 5.22 3.46 7 7 0 0 0 4.07-.92z" fill="none" stroke="#c3c4c7" stroke-width="1.33"/><path d="m980.53 413.07a1.79 1.79 0 0 0 1.08-2.57 6.07 6.07 0 0 0 -3.39-3 7.39 7.39 0 0 0 -6.1.87 6.81 6.81 0 0 0 4.22 4.59 7 7 0 0 0 4.19.11z" fill="none" stroke="#c3c4c7" stroke-width="1.33"/><path d="m967.65 417.65s0-3.72-3.06-5.46a6.92 6.92 0 0 0 -4.29-.83 1.77 1.77 0 0 0 -1.46 2.35 6.35 6.35 0 0 0 2.81 3.46 7 7 0 0 0 6 .48z" fill="none" stroke="#c3c4c7" stroke-width="1.33"/><path d="m971.9 409.47s.51-3.69-2.21-5.86a6.81 6.81 0 0 0 -3.55-1.43 2.07 2.07 0 0 0 -2.22 2.63 6.27 6.27 0 0 0 2.13 3.27 7 7 0 0 0 5.85 1.39z" fill="none" stroke="#c3c4c7" stroke-width="1.33"/><path d="m944.15 432.36a10.77 10.77 0 0 1 -.22-3.69 22 22 0 0 1 .64-3.64 25.69 25.69 0 0 1 1.22-3.49 13.13 13.13 0 0 1 1.89-3.18l.46.27c-.75 2.27-1.56 4.48-2.11 6.78-.28 1.14-.56 2.29-.78 3.45a29.18 29.18 0 0 1 -.84 3.51z" fill="#c3c4c7"/><path d="m943.78 432.36a4 4 0 0 1 .14-2.79 8.28 8.28 0 0 1 1.47-2.37 16 16 0 0 1 4.15-3.27l.38.37a11.42 11.42 0 0 1 -1.69 2c-.6.61-1.18 1.21-1.7 1.84a12.71 12.71 0 0 0 -1.4 1.95c-.39.69-.71 1.39-1.09 2.22z" fill="#c3c4c7"/><path d="m965.93 433.6a36.7 36.7 0 0 1 -.1-8.07 38.91 38.91 0 0 1 1.55-8 27.93 27.93 0 0 1 8.85-13.45l.37.38a40.73 40.73 0 0 0 -4.67 6.35 32 32 0 0 0 -3.11 7.17 49.62 49.62 0 0 0 -1.66 7.69c-.37 2.61-.61 5.25-1 7.91z" fill="#c3c4c7"/><path d="m626.83 318.07h135.47v115.27h-135.47z" fill="#98c6d9"/><path d="m641.78 343.68v39.66h60.32v-55.34h-44.61a15.72 15.72 0 0 0 -15.72 15.72" fill="#dcdcde"/><path d="m713.97 426.85h35.6v-98.89h-35.6z" fill="#dcdcde"/><path d="m719.14 371.78h25.73v-37.46h-25.73z" fill="#fff"/><path d="m626.83 297.14h150.52v7.37a13.53 13.53 0 0 1 -13 13.52c-.65 0-1.33 0-2 0h-135.52z" fill="#3895ba"/><path d="m777.36 297.14-31.56-47.55h-118.96v47.55z" fill="#3895ba"/><path d="m626.84 237.03h118.06l.9 12.56h-118.96z" fill="#3895ba"/><path d="m746.83 391.92c3.3-1.08 6.59-1 9.89-1.09s6.59-.12 9.89-.15 6.59 0 9.89.15 6.59 0 9.89 1.09v.67c-3.3 1.08-6.59 1-9.89 1.09s-6.59.12-9.89.15-6.59-.05-9.89-.16-6.59 0-9.89-1.09z" fill="#187aa2"/><path d="m765.72 431.37c-.63-1.65-.4-3.3-.47-4.94l-.06-4.95c0-3.3-.11-6.59-.07-9.89s0-6.59.12-9.89a43.54 43.54 0 0 1 .93-9.89h.83a43.54 43.54 0 0 1 .93 9.89c.07 3.3.12 6.59.12 9.89s-.05 6.59-.07 9.89l-.06 4.95c-.07 1.65.16 3.3-.47 4.94z" fill="#187aa2"/><path d="m758.83 431.68c1.3-1.08 2.59-1 3.89-1.09s2.59-.15 3.89-.16 2.59.06 3.89.15 2.59 0 3.89 1.09v.67c-1.3 1.08-2.59 1-3.89 1.09s-2.59.15-3.89.15-2.59-.06-3.89-.15-2.59 0-3.89-1.09z" fill="#187aa2"/><path d="m784.23 410.75c.41-.44.82-.27 1.23-.33h1.23c.82 0 1.63-.08 2.45-.05s1.63 0 2.45.08a4.28 4.28 0 0 1 2.45.64v.61a4.28 4.28 0 0 1 -2.45.65c-.82 0-1.63.08-2.45.08s-1.63 0-2.45-.05h-1.23c-.41-.05-.82.11-1.23-.33z" fill="#187aa2"/><path d="m809.64 388.62c.09 2.3-.84 4.11-1.59 6l-2.26 5.66c-.79 1.86-1.53 3.74-2.29 5.6-.37.93-.67 1.88-1 2.8a14.16 14.16 0 0 1 -1.46 2.71h-.67c-.84-2.28-.08-4.4.48-6.37s1.31-4 2.06-5.88 1.65-3.79 2.58-5.62 1.71-3.75 3.58-5.13z" fill="#187aa2"/><path d="m785.14 433.18c-.46-1-.05-1.93 0-2.87l.45-2.8c.31-1.86.56-3.74.93-5.59s.72-3.71 1.12-5.55a14.73 14.73 0 0 1 1.93-5.41l.87.16a14.72 14.72 0 0 1 -.09 5.74c-.27 1.87-.55 3.74-.89 5.59s-.72 3.71-1.08 5.56l-.56 2.78c-.24.92-.18 1.89-1 2.7z" fill="#187aa2"/><path d="m750.68 412.26c-.85.63-1.7.4-2.56.47l-2.55.06c-1.7 0-3.41.11-5.11.07s-3.41 0-5.11-.12a12.16 12.16 0 0 1 -5.11-.93v-.89a12.14 12.14 0 0 1 5.11-.93c1.7-.07 3.41-.12 5.11-.12s3.41.05 5.11.07l2.55.06c.85.07 1.7-.16 2.56.47z" fill="#187aa2"/><path d="m725.87 388.33c1.87 1.38 2.65 3.3 3.58 5.13s1.77 3.73 2.58 5.62 1.48 3.87 2.06 5.88 1.32 4.09.48 6.37h-.66a14 14 0 0 1 -1.46-2.71c-.37-.92-.67-1.87-1-2.8-.75-1.86-1.49-3.74-2.29-5.6l-2.26-5.66c-.74-1.9-1.68-3.7-1.59-6z" fill="#187aa2"/><path d="m748 433.5c-.79-.82-.73-1.79-1-2.7l-.5-2.8c-.36-1.85-.78-3.7-1.08-5.56s-.62-3.72-.89-5.59a14.76 14.76 0 0 1 -.09-5.74l.87-.16a14.73 14.73 0 0 1 1.92 5.41c.4 1.85.79 3.69 1.12 5.55s.62 3.73.93 5.59l.45 2.8c.09.94.5 1.83 0 2.87z" fill="#187aa2"/><path d="m731.27 433.16c-.42-1.06 0-1.94.14-2.89l.55-2.8c.38-1.86.69-3.74 1.13-5.59s.85-3.7 1.31-5.55a15 15 0 0 1 2.11-5.38l.87.19a15 15 0 0 1 -.29 5.77c-.33 1.87-.68 3.74-1.09 5.6s-.85 3.7-1.27 5.56l-.65 2.77c-.27.91-.24 1.89-1.06 2.69z" fill="#187aa2"/><path d="m747.06 423.17h-12.73" fill="none" stroke="#187aa2" stroke-width="2.67"/><path d="m626.67 433.19h-133.82v-194.34h133.82z" fill="#dcdcde"/><path d="m575.24 369.41h-59.6a10.84 10.84 0 0 1 -10.84-10.84v-59.57h70.44z" fill="#98c6d9"/><path d="m615.9 269.19h-111.11v22.67h111.11z" fill="#fff"/><path d="m615.9 382.08h-33.77v-83.11h33.77z" fill="#98c6d9"/><path d="m492.35 381.19c5.68-.62 11.37-.4 17-.47l17-.06c11.37 0 22.73-.13 34.1-.05l34.1.11c11.37 0 22.73.15 34.1.91v.89c-11.37.77-22.73.92-34.1.92l-34.1.11c-11.37.07-22.73 0-34.1-.06l-17-.06c-5.68-.07-11.37.15-17-.47z" fill="#187aa2"/><path d="m626.67 395.41c-2 .63-3.95.4-5.92.47l-5.92.06c-3.95 0-7.89.11-11.84.07s-7.89 0-11.84-.12a62.17 62.17 0 0 1 -11.84-.93v-.89a62.07 62.07 0 0 1 11.84-.93c3.95-.07 7.89-.12 11.84-.12s7.89.05 11.84.07l5.92.06c2 .07 3.95-.16 5.92.47z" fill="#187aa2"/><path d="m579.32 404.3c2-.63 3.95-.4 5.92-.47l5.92-.06c3.95 0 7.89-.11 11.84-.07s7.89 0 11.84.12a62.07 62.07 0 0 1 11.84.93v.89a62.07 62.07 0 0 1 -11.84.93c-3.95.07-7.89.12-11.84.12s-7.89-.05-11.84-.07l-5.92-.06c-2-.07-3.95.16-5.92-.47z" fill="#187aa2"/><path d="m579.32 415c2-.63 3.95-.4 5.92-.47l5.92-.06c3.95 0 7.89-.11 11.84-.07s7.89 0 11.84.12a62.07 62.07 0 0 1 11.84.93v.89a62.07 62.07 0 0 1 -11.84.93c-3.95.07-7.89.12-11.84.12s-7.89-.05-11.84-.07l-5.92-.06c-2-.07-3.95.16-5.92-.47z" fill="#187aa2"/><path d="m530.06 337-6.16-3c4.51-13 14.21-13.39 14.21-13.39l3.52 2.36 3.57-2.36c8.09 2 10.93 12 10.93 15.18l-6 1.62.52 13.94h-21.35z" fill="#fff"/><path d="m335.19 433.1v-158.85l33.68-55.29 40.03 59.1 84.11.63v154.41z" fill="#004e6e"/><path d="m378.22 392.25h-19.7v-51.73h19.7z" fill="#3895ba"/><path d="m416.49 334.27v99.29h27.94 27.94v-99.29z" fill="#3895ba"/><path d="m368.37 260.12c-1.71 0-9.85.65-9.85 10.74v35h19.7v-35c0-10.09-8.14-10.72-9.85-10.74" fill="#3895ba"/><path d="m462.06 433.56h-35.27v-71.22h35.27z" fill="#98c6d9"/><path d="m318.7 278.12 49.47-78.2 22.87 31.49 101.97-.05v47.42l-84.81-.26-40.03-59.1-35.65 58.7z" fill="#3895ba"/><path d="m561 238.85h75.32c-11.78-9.67-19.63-60-19.63-60l-55.69-.85h-.35l-55.69.82s-7.85 50.33-19.63 60h75.32" fill="#004e6e"/><path d="m415.55 338.31a28.94 28.94 0 1 1 57.89 0v8h-57.89z" fill="#dcdcde"/><path d="m474.79 433.73c-5.06.51-10.11.5-15.17.53l-15.17.09-15.17-.09c-5.06 0-10.11 0-15.17-.53v-.33c5.06-.51 10.11-.5 15.17-.53l15.17-.09 15.17.09c5.06 0 10.11 0 15.17.53z" fill="#fff"/><path d="m451.64 329a4.66 4.66 0 0 0 -.74-5.59 44.85 44.85 0 0 0 -6.4-4.93s-.54 1.42-3.28 2.17c-3.89 1.07-3.11 3.7-3.11 3.7-2 1.1-2.83 3.17-1.33 4.65" fill="#3895ba"/><path d="m435.87 329.42 2 7.45a3 3 0 0 0 2.86 2.18h7.27a3 3 0 0 0 2.86-2.17l2.08-7.46" fill="#98c6d9"/><path d="m436.85 329.48a3.18 3.18 0 0 1 -.86-3.73 5 5 0 0 1 3.13-2.46 15.76 15.76 0 0 1 3.73-.6c1.19-.09 2.37-.31 3.58-.51l.12.38a12.73 12.73 0 0 1 -3.58 1.1 15.91 15.91 0 0 0 -3.49.7 4.48 4.48 0 0 0 -2.59 1.83 3.43 3.43 0 0 0 .12 3.16z" fill="#98c6d9"/><path d="m434.64 328.7a7 7 0 0 1 2.4-.24h2.4c1.6 0 3.2-.06 4.81 0s3.2 0 4.81.06a20.55 20.55 0 0 1 4.81.47v.44a20.62 20.62 0 0 1 -4.81.47c-1.6 0-3.2.06-4.81.06s-3.2 0-4.81 0h-2.4a7.06 7.06 0 0 1 -2.4-.24z" fill="#004e6e"/><path d="m450.77 322.52a2.57 2.57 0 0 1 -.64 2.2 5.3 5.3 0 0 1 -1.86 1.35 8.6 8.6 0 0 1 -4.29.69v-.4a35.77 35.77 0 0 0 3.82-1.36 6.58 6.58 0 0 0 1.6-1 5.43 5.43 0 0 0 1.17-1.53z" fill="#98c6d9"/><path d="m425.2 346a4.82 4.82 0 1 1 -4.82-4.82 4.82 4.82 0 0 1 4.82 4.82" fill="#dcdcde"/><path d="m434.85 346a4.82 4.82 0 1 1 -4.82-4.82 4.82 4.82 0 0 1 4.82 4.82" fill="#dcdcde"/><path d="m444.5 346a4.82 4.82 0 1 1 -4.82-4.82 4.82 4.82 0 0 1 4.82 4.82" fill="#dcdcde"/><path d="m454.14 346a4.82 4.82 0 1 1 -4.82-4.82 4.82 4.82 0 0 1 4.82 4.82" fill="#dcdcde"/><path d="m463.79 346a4.82 4.82 0 1 1 -4.82-4.82 4.82 4.82 0 0 1 4.82 4.82" fill="#dcdcde"/><path d="m473.44 346a4.82 4.82 0 1 1 -4.82-4.82 4.82 4.82 0 0 1 4.82 4.82" fill="#dcdcde"/><path d="m655.38 380.64c-.19-9.91 3.18-16.68 7.07-18.61 2.13-1.07 5.25-.11 6.83 1.57a9.92 9.92 0 0 1 2.54 7.5l-1 10.89" fill="#fff" stroke="#3895ba" stroke-linecap="round" stroke-linejoin="round"/><path d="m665.29 356.85c5-.88 6.56 4.73 6.56 4.73" fill="none" stroke="#98c6d9" stroke-linecap="round" stroke-linejoin="round"/><path d="m667.75 362.15c2.06-.28 6.39-.28 7 2.26a3.37 3.37 0 0 1 -1.29 3.23" fill="none" stroke="#98c6d9" stroke-linecap="round" stroke-linejoin="round"/><path d="m666.83 359.75c-2.59-1.8-5.57-2.69-7.46-.81-.82.81-.6 3.06 1.25 4.34" fill="none" stroke="#98c6d9" stroke-linecap="round" stroke-linejoin="round"/><path d="m674.64 343.71-2.27 8.63c-.67 2-4.78 6.93-6.87 6.61l-5.3-1.27s.67-19.61 14.43-14" fill="#004e6e"/><path d="m654.42 383.34.96-2.7 15.42 1.34.17 1.18" fill="#fff" stroke="#3895ba" stroke-linecap="round" stroke-linejoin="round"/><path d="m664.33 365.41c4.07.14 6.55 17.76 6.55 17.76l8.28 13.53-1.09.68a5.32 5.32 0 0 1 -7.17-1.5l-6.26-9.08s-7.32-21.63-.3-21.39" fill="#98c6d9"/><path d="m674.39 344.28a3.45 3.45 0 0 1 2.21 3.11c.31 2.51 2.3 3.08 2.32 4.33 0 1-1.61 1.07-1.84 1.93a6.65 6.65 0 0 1 -6.45 5.29" fill="#fff" stroke="#004e6e" stroke-linecap="round" stroke-linejoin="round"/><path d="m674.39 355.46a2.69 2.69 0 0 0 1.48.54" fill="none" stroke="#004e6e" stroke-linecap="round" stroke-linejoin="round"/><path d="m674.64 343.71c.94 1.53 2 3.68 2 3.68l-4.75.53.25-2.75 2.54-1.45" fill="#004e6e"/><path d="m675 351.78a.48.48 0 0 1 -.45-.5v-.82a.47.47 0 1 1 .94 0v.82a.48.48 0 0 1 -.49.47" fill="#004e6e"/><path d="m.71 432.24 62.15-.45 62.15-.22 124.31-.41 248.61-.16 248.61.22 124.31.29 62.15.16 62.15.3a.53.53 0 0 1 0 1.07l-62.15.3-62.15.16-124.31.29-248.61.21-248.61-.17-124.32-.39-62.15-.22-62.14-.45a.27.27 0 0 1 0-.53" fill="#c3c4c7"/><path d="m472.7 448.8c5.5-.37 11-.44 16.49-.54l16.49-.08c11 .08 22 0 33 .49a.27.27 0 0 1 0 .53c-11 .45-22 .41-33 .49l-16.49-.08c-5.5-.09-11-.17-16.49-.54a.13.13 0 0 1 -.12-.14.13.13 0 0 1 .12-.13" fill="#c3c4c7"/><path d="m81.43 448.8c3.28-.37 6.55-.44 9.83-.54l9.83-.09c6.55.08 13.1 0 19.65.49a.27.27 0 0 1 0 .53c-6.55.45-13.1.41-19.65.49l-9.83-.08c-3.27-.09-6.55-.17-9.83-.54a.13.13 0 0 1 0-.27" fill="#c3c4c7"/><path d="m705.92 451.92c3.28-.37 6.55-.44 9.83-.54l9.83-.09c6.55.08 13.1 0 19.65.49a.27.27 0 0 1 0 .53c-6.55.45-13.1.41-19.65.49l-9.83-.08c-3.27-.09-6.55-.17-9.83-.54a.13.13 0 0 1 0-.27" fill="#c3c4c7"/><path d="m686.26 472.14a60.45 60.45 0 0 1 7.16-.54c2.39-.06 4.77-.09 7.16-.08 4.77.08 9.55 0 14.32.49a.27.27 0 0 1 0 .53c-4.77.45-9.55.41-14.32.49-2.39 0-4.77 0-7.16-.08a60.45 60.45 0 0 1 -7.16-.54.13.13 0 0 1 -.11-.15.13.13 0 0 1 .11-.11" fill="#c3c4c7"/><path d="m976.93 468a49.82 49.82 0 0 1 6.49-.54c2.16-.06 4.33-.1 6.49-.08 4.33.08 8.66 0 13 .49a.27.27 0 0 1 0 .53c-4.33.45-8.66.41-13 .49-2.16 0-4.33 0-6.49-.08a49.82 49.82 0 0 1 -6.49-.54.14.14 0 0 1 0-.27" fill="#c3c4c7"/><path d="m887.41 444.48.31 60.6-.16 7.48h-10.69l-2.34-35.7-2.42 35.7h-10.11l-1.34-38.59.64-18.18 1.63-12.04z" fill="#fff"/><path d="m201.49 361.85a7.07 7.07 0 0 0 2.54-.51 8.87 8.87 0 0 0 6.13-9.22c0-1.17 2-2 1.58-3.16-.52-1.56-3.29-1.45-4.69-4.44-1.57-3.36-5.73-4.21-9.62-2.91a10.4 10.4 0 0 0 -6.56 13.16" fill="#fff" stroke="#004e6e" stroke-linecap="round" stroke-linejoin="round" stroke-width="1.33"/><path d="m200.36 348.84c1.52 3.79 1.14 10.11-2.78 11.62s-6.71-5.69-6.71-5.69z" fill="#187aa2"/><path d="m189.41 403.85c-3.41 26.34-.55 82.61-.55 82.61h12.88l1.14-47.18" fill="#004e6e" stroke="#004e6e" stroke-width=".98"/><path d="m188.86 485.14c3.92.13 15.79.88 17.56 1.52s1.89.88-.25 1.39-17.3 0-17.3 0z" fill="#004e6e"/><path d="m188.86 485.14c3.92.13 15.79.88 17.56 1.52s1.89.88-.25 1.39-17.3 0-17.3 0z" fill="none" stroke="#004e6e" stroke-width=".98"/><path d="m210.46 403.28s1.41 20 2.08 40.55c.57 17.21-1.5 35.38-1.33 42.63h-14c.19-42.06-8.17-59.49-7.79-82.61" fill="#3895ba"/><path d="m274.19 488.35c-1.67.58-7 1.61-8.63 2.13a1.22 1.22 0 0 0 .38 2.38h14.37a2.72 2.72 0 0 0 2.69-3.11l-.23-1.63z" fill="#3895ba"/><path d="m188.37 374.77a119.11 119.11 0 0 0 1 29.08l21.24-.57-.32-13-4.93-2.65 6-11.62-4-4.17-6-6.24a10.65 10.65 0 0 0 -13 9.18" fill="#3895ba"/><path d="m203.45 386.61.95 68.97h8.91l-1.33-64.8z" fill="#98c6d9"/><path d="m201 383.77c8.34 7.2 16.48 9.28 19.89 6.44 5.09-4.25-3.95-21-4.55-23.49-2.08-8.53-6.82-8.53-8-7.58s1.14 6.25 1.14 6.25l2.08 11.37" fill="#fff" stroke="#004e6e" stroke-linecap="round" stroke-linejoin="round" stroke-width="1.33"/><path d="m206.67 372.21 7.77 7.39" fill="none" stroke="#004e6e" stroke-linecap="round" stroke-linejoin="round" stroke-width="1.33"/><path d="m197.2 485.14c3.92.13 15.79.88 17.56 1.52s1.89 1.64-.25 2.15-17.3 0-17.3 0z" fill="#3895ba"/><path d="m203.27 362.1-1.14 3.48-.89-3.6z" fill="none" stroke="#004e6e" stroke-linecap="round" stroke-linejoin="round" stroke-width="1.33"/><path d="m207.05 402.91c-6.44 2.84-18.95 1.33-18.95 1.33" fill="none" stroke="#98c6d9" stroke-linecap="round" stroke-linejoin="round" stroke-width="1.33"/><path d="m214.38 422.1a23.11 23.11 0 0 1 -7.24-.13" fill="none" stroke="#fff" stroke-linecap="round" stroke-linejoin="round" stroke-width="1.33"/><path d="m196.65 365.93c3.35-1.14-3.92-5-4.35-2.41s1.49 3.39 4.35 2.41z" fill="none" stroke="#98c6d9" stroke-linecap="round" stroke-linejoin="round" stroke-width="1.33"/><path d="m198.15 365.39s4.17.57 6.25 2.65" fill="none" stroke="#98c6d9" stroke-linecap="round" stroke-linejoin="round" stroke-width="1.33"/><path d="m190.19 355.73 20.81-14.21" fill="none" stroke="#98c6d9" stroke-linecap="round" stroke-linejoin="round" stroke-width="1.33"/><path d="m207.62 355.41a4.16 4.16 0 0 0 1.7-.23" fill="none" stroke="#004e6e" stroke-linecap="round" stroke-linejoin="round" stroke-width="1.33"/><path d="m206.72 351.05a.6.6 0 0 1 -.69-.48l-.18-1a.6.6 0 1 1 1.17-.22l.18 1a.59.59 0 0 1 -.48.69" fill="#004e6e"/><path d="m632.32 381.03-1.53.52-1.07 3.79 1.07 15.22-.62 3.32-.11 8.46 3.35 4.85 2.37.46 2.4-3.29 3.85.45 3.15-16.97z" fill="#fff"/><path d="m632.66 458.94c-5.87 11.18-6.82 15.73-5.87 22.17s7.2 14.78 7.2 14.78" fill="#fff" stroke="#98c6d9" stroke-linecap="round" stroke-linejoin="round" stroke-width="1.33"/><path d="m650 413.4c1.64 9.6 2 27.73 2 27.73l-17.81.76s-3.41-20.84-1.52-24.63" fill="#98c6d9"/><path d="m630.32 402.44c-1.57 13 4.42 17.5 6.44 14.92" fill="#fff" stroke="#98c6d9" stroke-linecap="round" stroke-linejoin="round" stroke-width="1.33"/><path d="m629.12 384.48a5.58 5.58 0 0 0 -2.62 4c-.4 3.1-2.92 3.8-2.94 5.35 0 1.2 2 1.32 2.33 2.39a8.37 8.37 0 0 0 8.17 6.52" fill="#fff" stroke="#004e6e" stroke-linecap="round" stroke-linejoin="round" stroke-width="1.33"/><path d="m628.7 396.95a3.64 3.64 0 0 1 -1.76 1.79" fill="none" stroke="#004e6e" stroke-linecap="round" stroke-linejoin="round" stroke-width="1.33"/><path d="m628 393.07a.56.56 0 0 0 .54-.58v-1a.56.56 0 0 0 -1.13 0v1a.56.56 0 0 0 .58.54" fill="#004e6e"/><path d="m646.3 408.65c-5.06-2.07-15.45 17-15.45 17l-10.51-17.1-5.87 2.37s5.39 24.08 15.69 25.08 18.55-14.32 18.55-14.32 4.12-10.33-2.4-13" fill="#004e6e"/><path d="m651 440.18c4.74 11.75-.76 79-.76 79h-13.61s-6.82-64.61-2.08-78.25" fill="#fff" stroke="#98c6d9" stroke-linecap="round" stroke-linejoin="round" stroke-width="1.33"/><path d="m629.72 384.06c3.34 2.86 3.65 9.84 4.3 12.89.82 3.9 2.08 7.44-1.37 7.68" fill="none" stroke="#98c6d9" stroke-linecap="round" stroke-linejoin="round" stroke-width="1.33"/><path d="m647.23 402.62c3.58-7.76-.32-20.7-8.68-22.38-2.77-.55-6.18.77-7.76 1.31" fill="#fff" stroke="#98c6d9" stroke-linecap="round" stroke-linejoin="round" stroke-width="1.33"/><path d="m652.36 495.5 8.91 11.94-10.99 11.75" fill="none" stroke="#98c6d9" stroke-linecap="round" stroke-linejoin="round" stroke-width="1.33"/><path d="m620 409.39c-.31-4-2.08-15.63-4-14.87s-.38 6.44-.95 8.34a10.07 10.07 0 0 0 .19 8" fill="#fff" stroke="#004e6e" stroke-linecap="round" stroke-linejoin="round" stroke-width="1.33"/><path d="m614.56 403.15s-1-2-1.36-1.56 1.05 3 1.05 3" fill="none" stroke="#004e6e" stroke-linecap="round" stroke-linejoin="round" stroke-width="1.33"/><path d="m640.7 396c0 3.58-1.43 6.62-3 7.34" fill="#fff" stroke="#98c6d9" stroke-linecap="round" stroke-linejoin="round" stroke-width="1.33"/><path d="m648.57 448.89-3.79 7.2" fill="none" stroke="#98c6d9" stroke-linecap="round" stroke-linejoin="round" stroke-width="1.33"/><path d="m645.71 395.25c2.39 8.71.81 20.88-8.41 19.45" fill="#fff" stroke="#98c6d9" stroke-linecap="round" stroke-linejoin="round" stroke-width="1.33"/><path d="m451.14 410.07s-9-.87-10.59 5c0 0-1 4.24.71 7.57v2.26a10.13 10.13 0 0 0 -5.07-.87s-3.08.86-2.22 2.89l2 3.08 12.85 7.46s4.25-4.72 2.9-7l-2.9-1.64-1.37-3.52z" fill="#fff"/><path d="m427.06 380s-4.83-4.74-8.76-3.94c0 0-9.2.57-9.41 8.36 0 0 .31 6.91 2.14 10.55l2.44 1.61-.61 2-1.86-.38-3.54 7 14.17 7.22 2.4-10.08-3.03-1.04 1.74-4.48z" fill="#fff"/><path d="m421.45 401.3 1.29-4.59c3.79.52 5.37-1.58 6.79-4.89.4-.94 2.25-.78 2.39-1.88.18-1.43-2-2.41-1.93-5.3 0-1.62-.31-3.74-1.82-4 0 0-7.2 3.09-10.82 6.92-1.62 4.45-2.57 6.55-2.57 6.55l-1.9 4.56z" fill="#c3c4c7"/><path d="m448.74 438.94-1.17 12.46s-6.75 17.6-1.14 10.89c-7.4 8.85-16.31-2.15-16.51-12.43-.22-11.35 3.64-19.09 8.09-21.31 2.44-1.22 6-.12 7.81 1.8a11.37 11.37 0 0 1 2.91 8.59" fill="#fff"/><path d="m448.74 438.94-1.17 12.46s-6.75 17.6-1.14 10.89c-7.4 8.85-16.31-2.15-16.51-12.43-.22-11.35 3.64-19.09 8.09-21.31 2.44-1.22 6-.12 7.81 1.8a11.37 11.37 0 0 1 2.92 8.59z" fill="none" stroke="#3895ba" stroke-linecap="round" stroke-linejoin="round" stroke-width="1.33"/><path d="m441.27 422.63c5.74-1 7.51 5.41 7.51 5.41" fill="none" stroke="#98c6d9" stroke-linecap="round" stroke-linejoin="round" stroke-width="1.33"/><path d="m444.08 428.69c2.36-.32 7.31-.32 8 2.59a3.85 3.85 0 0 1 -1.47 3.69" fill="none" stroke="#98c6d9" stroke-linecap="round" stroke-linejoin="round" stroke-width="1.33"/><path d="m443 426c-3-2.06-6.37-3.08-8.53-.93-.94.93-.68 3.5 1.44 5" fill="none" stroke="#98c6d9" stroke-linecap="round" stroke-linejoin="round" stroke-width="1.33"/><path d="m399.36 464.71c1.71 11.3-17.81 43.64-17.81 43.64l9 13s17.12-24.6 20.51-34.79" fill="none" stroke="#004e6e" stroke-linecap="round" stroke-linejoin="round" stroke-width="1.33"/><path d="m426.1 479.17 8.37 43.59-13.83 1.63-13.17-51.53" fill="none" stroke="#004e6e" stroke-linecap="round" stroke-linejoin="round" stroke-width="1.33"/><path d="m415.74 404.79c9.8 5 9 20.43 10.16 27.36s2.75 46.67 2.75 46.67l-36.83-1.44s-1-85.39 23.91-72.59" fill="#3895ba"/><path d="m448.71 481.74 6.51 36.26a2.53 2.53 0 0 0 2.16 2c1.91.27 4.63 1.06 4.63 3.38 0 .58-4.81.8-8.49.88a5.47 5.47 0 0 1 -5.34-3.84l-11.11-35.42" fill="#98c6d9"/><path d="m440.45 486.09-20.16 30.91a2.53 2.53 0 0 0 .17 3c1.2 1.5 2.64 3.95 1.05 5.63-.4.42-4-2.72-6.78-5.18a5.47 5.47 0 0 1 -1.26-6.46l16.26-33.44" fill="#98c6d9"/><path d="m452 407.58-3 8.86a5 5 0 0 1 -5.46 3.33l-7.38-1.16s4-15 15.78-11" fill="#004e6e"/><path d="m427.06 392a3.33 3.33 0 0 0 1.59 1.67" fill="none" stroke="#004e6e" stroke-linecap="round" stroke-linejoin="round" stroke-width="1.33"/><path d="m447.57 451.4 7.54 52.6-42.7-5.15 17.51-48.99z" fill="#fff"/><path d="m447.57 451.4 7.54 52.6-42.7-5.15 17.51-48.99z" fill="none" stroke="#3895ba" stroke-linecap="round" stroke-linejoin="round" stroke-width="1.33"/><path d="m442 431.85c4.36 1.65.58 21.66.58 21.66l4 17.71-1.44.33a6.09 6.09 0 0 1 -7.23-4.26l-3.46-12.14s0-26.15 7.53-23.3" fill="#98c6d9"/><path d="m407.12 415c-2 15.12-3 19.28 3 28.74a85.45 85.45 0 0 0 8.45 10.45" fill="none" stroke="#004e6e" stroke-linecap="round" stroke-linejoin="round" stroke-width="1.33"/><path d="m417.06 421.07s.11 6.3 0 9.09" fill="none" stroke="#004e6e" stroke-linecap="round" stroke-linejoin="round" stroke-width="1.33"/><path d="m419.22 433-4.76-.7" fill="none" stroke="#004e6e" stroke-linecap="round" stroke-linejoin="round" stroke-width="1.33"/><path d="m421 435-2.66 1.26" fill="none" stroke="#004e6e" stroke-linecap="round" stroke-linejoin="round" stroke-width="1.33"/><path d="m425.39 446.12-10.92 13.12" fill="none" stroke="#fff" stroke-linecap="round" stroke-linejoin="round" stroke-width="1.33"/><path d="m421 437.45 4.42 8.67" fill="none" stroke="#004e6e" stroke-linecap="round" stroke-linejoin="round" stroke-width="1.33"/><path d="m419.87 387.6 13.19-3.34" fill="none" stroke="#004e6e" stroke-linecap="round" stroke-linejoin="round" stroke-width="1.33"/><path d="m432.64 382 .84 4.84" fill="none" stroke="#004e6e" stroke-linecap="round" stroke-linejoin="round" stroke-width="1.33"/><path d="m427.56 378.28c-.22 4.57-7.87 6-10.21 9.23a7.29 7.29 0 0 0 -1.47 6.06" fill="none" stroke="#004e6e" stroke-linecap="round" stroke-linejoin="round" stroke-width="1.33"/><path d="m424.73 378.28c-2.25-3.34-11.45-3.06-14.37 1.71-3.64 5.93.69 15 .69 15" fill="none" stroke="#004e6e" stroke-linecap="round" stroke-linejoin="round" stroke-width="1.33"/><path d="m410.35 397.61 13.69 4.45-1.17 4.25" fill="none" stroke="#3895ba" stroke-linecap="round" stroke-linejoin="round" stroke-width="1.33"/><path d="m428.17 380.6a5.24 5.24 0 0 1 1.82 4c0 2.89 2.11 3.88 1.93 5.3-.14 1.1-2 .94-2.39 1.88-1.42 3.31-3 5.41-6.79 4.89l-1.29 4.59" fill="none" stroke="#004e6e" stroke-linecap="round" stroke-linejoin="round" stroke-width="1.33"/><path d="m438.87 410.07h2.39v-2.39a2.4 2.4 0 1 0 -2.39 2.39" fill="#004e6e"/><path d="m451.68 408.24a4 4 0 0 1 2.53 3.56c.36 2.87 2.64 3.52 2.65 5 0 1.11-1.84 1.23-2.1 2.21-.94 3.49-3.57 6-7.39 6.05" fill="#fff" stroke="#004e6e" stroke-linecap="round" stroke-linejoin="round" stroke-width="1.33"/><path d="m451.68 421a3.07 3.07 0 0 0 1.69.62" fill="none" stroke="#004e6e" stroke-linecap="round" stroke-linejoin="round" stroke-width="1.47"/><path d="m452 407.58c1.07 1.75 2.24 4.21 2.24 4.21l-5.44.61.29-3.15z" fill="#004e6e"/><path d="m452.36 416.83a.55.55 0 0 1 -.52-.57v-.94a.54.54 0 1 1 1.08 0v.94a.55.55 0 0 1 -.56.53" fill="#004e6e"/><path d="m277.43 388.75h-8.09l-1.33-18.36h9.42z" fill="#c3c4c7"/><path d="m285.86 386.18c4-.51 14.91 13.14 16.93 18.44s-11.12 8.38-11.12 8.38" fill="#c3c4c7" stroke="#004e6e" stroke-linecap="round" stroke-linejoin="round" stroke-width="1.33"/><path d="m300 452s7.65 14.58 6.55 28.38l-1.26 3.67-24.16-33.29" fill="#c3c4c7" stroke="#004e6e" stroke-linecap="round" stroke-linejoin="round" stroke-width="1.33"/><path d="m271 449.47s1.71 34.48 3.6 40.36l7.2-.19c.38-12.13 4.55-27.66 4.93-43.2" fill="#c3c4c7" stroke="#004e6e" stroke-linecap="round" stroke-linejoin="round" stroke-width="1.33"/><path d="m268.08 379.25a8.23 8.23 0 0 0 3.7-.15c.11 0 .17.12.08.19l-3 3.24-.81-3.47" fill="#004e6e" stroke="#004e6e" stroke-width="1.17"/><path d="m270.16 358.35c-4.1-.2-7.86 1.76-8.47 5.41-.54 3.26-3.23 3.91-3.31 5.55-.06 1.27 2.1 1.47 2.37 2.61a8.86 8.86 0 0 0 8.4 7.21 7.07 7.07 0 0 0 2.58-.2" fill="#c3c4c7" stroke="#004e6e" stroke-linecap="round" stroke-linejoin="round" stroke-width="1.33"/><path d="m263.71 372.78a3.86 3.86 0 0 1 -1.92 1.83" fill="none" stroke="#004e6e" stroke-linecap="round" stroke-linejoin="round" stroke-width="1.33"/><path d="m263.11 368.66a.6.6 0 0 0 .6-.6v-1a.6.6 0 1 0 -1.19 0v1a.6.6 0 0 0 .6.6" fill="#004e6e"/><path d="m268.49 383.72c11.15-3.54 15.93-1 20.18 5.49 6.92 10.52 3 13.14 5.49 22.74s8.43 13.74 7.29 41.12h-32s-3-31.55-2.08-40.74" fill="#3895ba"/><path d="m301.61 480.24s7.43 13.06 9.93 12.52c1.5-.33-.88-6.68-1.67-9.65-.55-2.07-1-3.44-3.15-3.22z" fill="#3895ba"/><path d="m262 395.28a15.88 15.88 0 0 1 -3.89-4.59c-2.56-4.51-9-12.22-10.64-10.19s1.24 9.14 3.66 10.36c1.77 5.68 10.93 24.94 16.42 23.41s9.85-30.71 2.27-30.33-8.15 17.15-8.15 17.15" fill="#c3c4c7" stroke="#004e6e" stroke-linecap="round" stroke-linejoin="round" stroke-width="1.33"/><path d="m288.77 376.62a12.86 12.86 0 0 0 -2.85-3.26 4.94 4.94 0 0 1 -1.81-3.11 11.23 11.23 0 0 0 -1.67-4.54 9 9 0 0 0 -5.07-3.41c-1.83-3.25-3.49-3.73-5.79-4.42a10 10 0 0 0 -7.33 1c-.5 4.2 1.15 8.93 5.09 9.19-.68 3.2 1.17 7.59 4.74 8.64a11.75 11.75 0 0 0 1.79 7.86c2.94 4.76 8.2 6.83 11.77 4.63s4.07-7.84 1.13-12.6" fill="#004e6e"/><path d="m800.58 434.55c.26 13.9-1 35.67-.78 39.9a1.58 1.58 0 0 0 1.58 1.49h12l1.6-18.76 2.19 18.76h12.18a1.58 1.58 0 0 0 1.58-1.58l-3.51-39.81z" fill="#98c6d9"/><path d="m806.83 411.63-6.11 2.65-8.88-4.28c6.5-18.79 17.44-19.74 17.44-19.74l5.07 3.41 5.15-3.41c11.66 2.89 15.75 17.29 15.75 21.89l-8.72 2.34 3.47 20.06h-32l1.14-10.55s7.77-7 8.88-8" fill="#004e6e"/><path d="m811.66 407.18c.52-1.49-.52-2.14-1.26-1.33l-1.21 2.41" fill="#fff"/><path d="m792.16 427.1c4.68 1.66 15.84-11.1 15.84-11.1a4.12 4.12 0 0 0 3.81-3.57c.55-2.46 2.68-1.84 3.95-1.22a.67.67 0 0 0 1-.6 3.25 3.25 0 0 0 -2.56-3.21 6.41 6.41 0 0 0 -5.84 1.93l2.06-3.49-3.57 5.79-10.23 4.44" fill="#fff"/><path d="m820.32 371.16a10.87 10.87 0 0 1 1.54 4.91 12.93 12.93 0 0 1 -.43 5.21 8.18 8.18 0 0 1 -3.11 4.35 9.71 9.71 0 0 1 -5.07 1.62 8.11 8.11 0 0 1 -5.15-1.5 8.35 8.35 0 0 1 -2.9-4.47 13.3 13.3 0 0 1 1.2-10 .22.22 0 0 1 .41.17 17.6 17.6 0 0 0 -.3 9.46 7 7 0 0 0 2.45 3.71 6.67 6.67 0 0 0 4.23 1.16 8.87 8.87 0 0 0 4.3-1.36 6.71 6.71 0 0 0 2.6-3.57 11.55 11.55 0 0 0 .43-4.64 33.22 33.22 0 0 0 -1-4.68.45.45 0 0 1 .81-.36" fill="#004e6e"/><path d="m815.06 378.62.17 2.22a.67.67 0 0 1 -1.33.1.83.83 0 0 1 0-.1l.17-2.22a.5.5 0 0 1 1 0" fill="#004e6e"/><path d="m811.35 379.64v.71" fill="none" stroke="#004e6e" stroke-linecap="round" stroke-linejoin="round" stroke-width="1.33"/><path d="m817.85 379.64v.71" fill="none" stroke="#004e6e" stroke-linecap="round" stroke-linejoin="round" stroke-width="1.33"/><path d="m796.43 415.67a6.68 6.68 0 0 1 2-1.11l2-.91 4.09-1.83 1-.44.51-.22a1 1 0 0 0 .26-.17 1.18 1.18 0 0 0 .22-.29l.3-.48.6-.95c.82-1.25 1.59-2.53 2.44-3.76v-.06a1.58 1.58 0 0 1 1-.48 1.16 1.16 0 0 1 1.07.58 1.71 1.71 0 0 1 -.14 1.73.23.23 0 0 1 -.42-.13 1.37 1.37 0 0 0 -.21-1c-.08-.07-.12 0-.16 0a.76.76 0 0 0 -.22.21l.07-.09c-.71 1.32-1.51 2.58-2.26 3.87l-.58 1-.29.48a2.63 2.63 0 0 1 -.47.59 2.49 2.49 0 0 1 -.67.45l-.52.23-1 .45-4.05 1.59-2.06.87a6.68 6.68 0 0 1 -2.15.68.47.47 0 0 1 -.35-.81" fill="#004e6e"/><path d="m808 409c0-.48.39-.66.65-.93a9.56 9.56 0 0 1 .91-.7 5.42 5.42 0 0 1 2.22-.89 4.78 4.78 0 0 1 2.41.26 2.94 2.94 0 0 1 1.81 1.46.25.25 0 0 1 -.12.34.25.25 0 0 1 -.13 0 9.16 9.16 0 0 1 -1.94-.5 4.37 4.37 0 0 0 -1.81-.04 5 5 0 0 0 -1.7.62 7.87 7.87 0 0 0 -.79.54c-.28.19-.43.49-.89.51a.58.58 0 0 1 -.6-.56s0 0 0-.06" fill="#004e6e"/><path d="m816.42 409.19c-1.82-1.51-3.81-1-5.63.46" fill="none" stroke="#004e6e" stroke-linecap="round" stroke-linejoin="round" stroke-width="1.33"/><path d="m801.53 413.53c-.12-.41.13-.57.23-.83l.39-.73c.25-.49.47-1 .73-1.5s.5-1 .76-1.5a3 3 0 0 1 1.09-1.37.27.27 0 0 1 .37.08.3.3 0 0 1 0 .09 2.79 2.79 0 0 1 -.24 1.77c-.2.54-.42 1.08-.67 1.6s-.54 1-.83 1.53l-.46.75c-.18.23-.24.55-.66.62a.65.65 0 0 1 -.74-.45z" fill="#004e6e"/><path d="m803.16 477.14a12 12 0 0 1 .37 3.13l.17 3.14c.1 2.09.24 4.19.31 6.28s.16 4.19.22 6.29a35.4 35.4 0 0 1 -.19 6.3.23.23 0 0 1 -.44 0 35.41 35.41 0 0 1 -.74-6.26c-.13-2.09-.24-4.19-.33-6.28s-.16-4.19-.24-6.29l-.11-3.14a12 12 0 0 1 .1-3.15.46.46 0 0 1 .56-.34.47.47 0 0 1 .33.3" fill="#004e6e"/><path d="m813 477.2a8.27 8.27 0 0 1 0 2.61l-.2 2.59c-.14 1.73-.25 3.46-.43 5.19s-.33 3.46-.52 5.18a24.39 24.39 0 0 1 -.93 5.14.23.23 0 0 1 -.29.15.23.23 0 0 1 -.16-.19 24.29 24.29 0 0 1 0-5.23c.12-1.73.25-3.46.41-5.19s.34-3.45.5-5.18l.26-2.59a8.26 8.26 0 0 1 .47-2.57.47.47 0 0 1 .89.08" fill="#004e6e"/><path d="m800.08 460.27c.38-.32.77-.2 1.15-.24h1.15c.77 0 1.53-.06 2.29 0s1.53 0 2.29.06a5 5 0 0 1 2.29.47.25.25 0 0 1 .11.34.24.24 0 0 1 -.11.11 5 5 0 0 1 -2.29.47c-.77 0-1.53.06-2.29.06s-1.53 0-2.29 0h-1.15c-.38 0-.76.08-1.15-.24a.58.58 0 0 1 -.08-.81l.08-.08" fill="#004e6e"/><path d="m800.38 463.76c.41-.32.81-.2 1.22-.24h1.22 1.22.61a3.28 3.28 0 0 0 .49 0 2.85 2.85 0 0 0 1.65-.89 17.66 17.66 0 0 0 1.15-1.85.24.24 0 0 1 .33-.07.23.23 0 0 1 .09.12 2.8 2.8 0 0 1 -.53 2.65 3.89 3.89 0 0 1 -2.47 1.49 4.79 4.79 0 0 1 -.73.06h-.63-1.22-1.22c-.41 0-.81.08-1.22-.24a.57.57 0 0 1 -.1-.79l.1-.1" fill="#004e6e"/><path d="m824.9 456c.18-.33.39-.22.59-.26h.6a8.89 8.89 0 0 1 1.21 0 7.87 7.87 0 0 1 1.19.18 1.47 1.47 0 0 1 1.11.66.31.31 0 0 1 -.08.42 1.6 1.6 0 0 1 -1.18.27l-1.12-.05c-.37 0-.74-.07-1.11-.08h-.56c-.19 0-.37.1-.57-.21a.83.83 0 0 1 0-.86" fill="#004e6e"/><path d="m809.69 366.49c.24 3.17-2.54 18.45-2.54 18.45-3.17-.21-7.12-9.08-3.65-15.91a4.67 4.67 0 0 1 6.19-2.54" fill="#3895ba"/><path d="m806.83 368.79s4 5.87 5.71 6.26c2.49.57 10.39-.21 10.39-.21s-1.23-8.83-8-9.7-7.77 3.65-7.77 3.65" fill="#3895ba"/><path d="m811.81 376.25a2.35 2.35 0 0 0 -.47 0 4 4 0 0 0 -.61.05 8.56 8.56 0 0 0 -1.27.31h-.15a.44.44 0 0 1 -.47-.68 2.79 2.79 0 0 1 2.68-1 1.47 1.47 0 0 1 1 .67.42.42 0 0 1 -.17.57.43.43 0 0 1 -.25 0z" fill="#004e6e"/><path d="m816.77 375.66a1.47 1.47 0 0 1 1-.67 2.8 2.8 0 0 1 2.68 1 .44.44 0 0 1 -.47.68h-.15a8.88 8.88 0 0 0 -1.27-.31 4.11 4.11 0 0 0 -.61-.05 2.35 2.35 0 0 0 -.47 0h-.25a.42.42 0 0 1 -.47-.37.41.41 0 0 1 0-.25" fill="#004e6e"/><path d="m813.65 382.63a4.14 4.14 0 0 0 .93.16 1.76 1.76 0 0 0 .87-.17l.14-.07a.44.44 0 0 1 .61.53 1.42 1.42 0 0 1 -.68.78 2 2 0 0 1 -1 .24 1.72 1.72 0 0 1 -1.64-1 .43.43 0 0 1 .23-.56.42.42 0 0 1 .27 0z" fill="#004e6e"/><path d="m808.47 369.74s-.4 2.8 2.67 5.42" fill="none" stroke="#3895ba" stroke-linecap="round" stroke-linejoin="round" stroke-width="2.67"/><path d="m794.54 410.8a41 41 0 0 1 -1.82 4.45c-.64 1.46-1.27 2.93-1.76 4.42a10.14 10.14 0 0 0 -.69 4.39 2.54 2.54 0 0 0 .86 1.64 3.58 3.58 0 0 0 .85.52 2.29 2.29 0 0 0 .9.27 7.92 7.92 0 0 0 4-1.46 32.89 32.89 0 0 0 3.78-2.81 73.66 73.66 0 0 0 6.82-6.67.69.69 0 0 1 .47-.23 3.47 3.47 0 0 0 2-.85 4.11 4.11 0 0 0 1.18-2 5.37 5.37 0 0 1 .6-1.41 2.16 2.16 0 0 1 1.41-.93 2.75 2.75 0 0 1 1.54.25 4.74 4.74 0 0 1 1.22.78.22.22 0 0 1 0 .31.22.22 0 0 1 -.27 0 3.38 3.38 0 0 0 -2.32-.53c-.66.17-.93.89-1.08 1.76a5.32 5.32 0 0 1 -1.43 2.68 4.4 4.4 0 0 1 -2.89 1.26l.51-.23a74.94 74.94 0 0 1 -6.9 6.87 34.4 34.4 0 0 1 -3.93 3 8.72 8.72 0 0 1 -4.94 1.68 3.32 3.32 0 0 1 -.75-.15 6.86 6.86 0 0 1 -.64-.27 5 5 0 0 1 -1.19-.75 4 4 0 0 1 -1.33-2.53 11.34 11.34 0 0 1 .79-5.05c.53-1.56 1.18-3 1.84-4.53a28.58 28.58 0 0 1 2.25-4.29.45.45 0 0 1 .8.39" fill="#004e6e"/><path d="m810.62 504.15a1 1 0 0 1 -.95.84c-12.15.06-15.25 1.48-15.95-.75-.6-1.92 12.14-3.76 16.21-4.3a1 1 0 0 1 1.07 1.06z" fill="#004e6e"/><path d="m828.68 476.8a9.82 9.82 0 0 1 .07 2.84l-.13 2.83c-.1 1.89-.16 3.77-.29 5.66s-.24 3.77-.38 5.65a28.75 28.75 0 0 1 -.79 5.63.23.23 0 0 1 -.44 0 29 29 0 0 1 -.14-5.68c.07-1.89.15-3.77.27-5.66s.24-3.77.36-5.65l.19-2.83a9.82 9.82 0 0 1 .4-2.81.47.47 0 0 1 .61-.26.48.48 0 0 1 .28.31" fill="#004e6e"/><path d="m815.35 456a40.16 40.16 0 0 1 .92 5.71l.71 5.73c.46 3.82 1 7.64 1.39 11.47l1.31 11.48a115 115 0 0 1 .91 11.53.22.22 0 0 1 -.44.05 115.4 115.4 0 0 1 -1.82-11.42l-1.42-11.47c-.49-3.82-.89-7.65-1.34-11.47l-.66-5.74a40.36 40.36 0 0 1 -.45-5.76.45.45 0 0 1 .88-.11" fill="#004e6e"/><path d="m819.8 504.15a1 1 0 0 0 .95.84c12.15.06 15.25 1.48 15.95-.75.6-1.92-12.14-3.76-16.21-4.3a1 1 0 0 0 -1.08 1.07z" fill="#004e6e"/><path d="m857.83 447.81c-2.75 3.75-.89 12.14 1 12.16 2.55 0-.85-4.62-.32-6.34s.9-2.11 1.27-2.06-.12 5.14 1.16 5.13l.59-8.88z" fill="#c3c4c7"/><path d="m859.87 450.67a18.06 18.06 0 0 0 -.46 4c0 1.36.21 2.66.25 4.11a.23.23 0 0 1 -.22.24.24.24 0 0 1 -.2-.09 7.06 7.06 0 0 1 -1.17-4.25 9.08 9.08 0 0 1 1-4.34.45.45 0 0 1 .83.31z" fill="#004e6e"/><path d="m871.43 403.33h8.5v-8.45h-8.5z" fill="#c3c4c7"/><path d="m879.92 398.87-.21.25a55.94 55.94 0 0 1 -4.31 3.63 45.06 45.06 0 0 1 -4-3.88l-2.1 1.68 3.65 19 10.86-14-1.52-5.69z" fill="#fff"/><path d="m893.65 462.73a3.92 3.92 0 0 1 -3.5-1.83 4.07 4.07 0 0 1 -.61-2 9.61 9.61 0 0 1 0-2 4.17 4.17 0 0 1 2.79-3.14 4.32 4.32 0 0 1 1.09-.2h1 1.9a4.3 4.3 0 0 1 3.71 2.15 4.19 4.19 0 0 1 .57 2.14v1a4.86 4.86 0 0 1 -.12 1.07 4.19 4.19 0 0 1 -2.88 3.05 6.38 6.38 0 0 1 -2 .15h-1.9zm0-.67h1.9a5.4 5.4 0 0 0 1.72-.19 3.12 3.12 0 0 0 2-2.29 3.56 3.56 0 0 0 .06-.81v-.95a3.13 3.13 0 0 0 -.42-1.48 3 3 0 0 0 -2.57-1.47h-1.9a5.51 5.51 0 0 0 -1.7.11 3.15 3.15 0 0 0 -2.11 2.21 9 9 0 0 0 -.13 1.77 3.25 3.25 0 0 0 .38 1.6 3.38 3.38 0 0 0 2.79 1.8z" fill="#004e6e"/><path d="m891.51 446.12c.29 3.17-3 7.72-1.4 8.61 1 .58 2.75-3.28 2.75-3.28.93-.18.74 2.77.21 3.94s1 1.61 2.38.82 3.44-4.55.26-10.36" fill="#c3c4c7"/><path d="m884.39 382.4c.22 9.43-5.71 15.2-8.72 15.2s-9.32-6.73-8.72-15.2c.26-3.73 2.8-6.42 9.09-5.84s8.25 1.29 8.35 5.84" fill="#c3c4c7"/><path d="m867.76 383.74c.36 1.44.3 2.87.65 4.25a13.61 13.61 0 0 0 1.45 3.92 8.78 8.78 0 0 0 2.74 3 5.63 5.63 0 0 0 3.67 1 6.6 6.6 0 0 0 3.48-1.8 11 11 0 0 0 2.38-3.37 29.77 29.77 0 0 0 2.05-8.33.22.22 0 0 1 .25-.2.23.23 0 0 1 .2.2 16.49 16.49 0 0 1 -1.26 8.9 12.37 12.37 0 0 1 -2.64 3.83 8 8 0 0 1 -4.24 2.22 6.73 6.73 0 0 1 -4.69-1.23 10.21 10.21 0 0 1 -3.16-3.5 14.93 14.93 0 0 1 -1.55-4.35 12.06 12.06 0 0 1 -.21-4.53.45.45 0 0 1 .88 0z" fill="#004e6e"/><path d="m874.22 376c-5.31 0-9 2.62-7.85 4.68 1 1.83 10.55-1.19 12.69 1 1.38 1.43 1.34 4.49 1.14 6.5a2.63 2.63 0 0 0 1.61 2.69l1.21.63c3.06-7.06 5.09-15.49-8.8-15.53" fill="#004e6e"/><path d="m874.5 386.84.17 3.81a.67.67 0 0 1 -1.33.06v-.06l.17-3.81a.5.5 0 0 1 1 0" fill="#004e6e"/><path d="m870.15 386.84v.71" fill="none" stroke="#004e6e" stroke-linecap="round" stroke-linejoin="round" stroke-width="1.33"/><path d="m877 386.84v.71" fill="none" stroke="#004e6e" stroke-linecap="round" stroke-linejoin="round" stroke-width="1.33"/><path d="m871.56 384.78a2.35 2.35 0 0 0 -.47 0 4 4 0 0 0 -.61.05 8.58 8.58 0 0 0 -1.27.31h-.14a.44.44 0 0 1 -.47-.68 2.79 2.79 0 0 1 2.68-1 1.47 1.47 0 0 1 1 .67.42.42 0 0 1 -.17.57.43.43 0 0 1 -.25 0z" fill="#004e6e"/><path d="m875.88 384.2a1.47 1.47 0 0 1 1-.67 2.8 2.8 0 0 1 2.68 1 .44.44 0 0 1 -.47.68h-.15a8.9 8.9 0 0 0 -1.28-.31 4.08 4.08 0 0 0 -.61-.05 2.36 2.36 0 0 0 -.47 0h-.25a.42.42 0 0 1 -.42-.61" fill="#004e6e"/><path d="m873.4 392.75a4.14 4.14 0 0 0 .93.16 1.76 1.76 0 0 0 .87-.17l.14-.07a.44.44 0 0 1 .61.53 1.42 1.42 0 0 1 -.68.78 2 2 0 0 1 -1 .24 1.72 1.72 0 0 1 -1.64-1 .43.43 0 0 1 .5-.58z" fill="#004e6e"/><path d="m871.82 389.18h-2.37a1.27 1.27 0 0 1 -1.15-1.27l-.12-1.47a.58.58 0 0 1 .5-.67h3.91a.58.58 0 0 1 .5.67l-.12 1.47a1.27 1.27 0 0 1 -1.15 1.27z" fill="none" stroke="#f6f7f7" stroke-linecap="round" stroke-linejoin="round" stroke-width=".67"/><path d="m878.75 389.18h-2.37a1.27 1.27 0 0 1 -1.15-1.27l-.12-1.47a.58.58 0 0 1 .5-.67h3.91a.58.58 0 0 1 .5.67l-.12 1.47a1.27 1.27 0 0 1 -1.15 1.27z" fill="none" stroke="#f6f7f7" stroke-linecap="round" stroke-linejoin="round" stroke-width=".67"/><path d="m873.09 386.44h2" fill="none" stroke="#f6f7f7" stroke-linecap="round" stroke-linejoin="round" stroke-width=".67"/><path d="m882.29 400.82c10.51-.57 12 2.94 17.53 27.8a5.68 5.68 0 0 1 .13 1.12 116 116 0 0 1 -.45 15.11 2.63 2.63 0 0 1 -2.61 2.33h-7.22l1.07-17.13-1.27-5.75-1.74 20.18h-25.37v3.33h-4.53a2.38 2.38 0 0 1 -2.38-2.46c.29-8.82.47-36.67 3.91-42 2.07-3.21 10.08-1.81 10.08-1.81l5.52 10.6z" fill="#187aa2"/><path d="m887.56 401.09-12.59 22.93-11.47-22.66 5.84-.81 5.63 11.58 7.35-12.23z" fill="#004e6e"/><path d="m875.41 421.76a3.84 3.84 0 0 1 .24 1.73v1.73c0 1.16 0 2.31-.07 3.47-.1 2.31-.2 4.63-.43 6.94a.22.22 0 0 1 -.24.2.23.23 0 0 1 -.2-.2c-.23-2.31-.33-4.63-.43-6.94 0-1.16-.06-2.31-.07-3.47v-1.73a3.84 3.84 0 0 1 .24-1.73.5.5 0 0 1 .68-.21.49.49 0 0 1 .21.21" fill="#004e6e"/><path d="m886.85 418.25a3.44 3.44 0 0 1 1 1.46c.26.53.5 1.05.74 1.59a30.71 30.71 0 0 1 1.25 3.27 27.7 27.7 0 0 1 .87 3.39 8.43 8.43 0 0 1 .15 3.51.23.23 0 0 1 -.44.06 14.83 14.83 0 0 1 -1-3.26c-.28-1.09-.61-2.17-1-3.24s-.71-2.14-1.14-3.18q-.31-.78-.66-1.55a4 4 0 0 1 -.55-1.6.5.5 0 0 1 .77-.41" fill="#004e6e"/><path d="m862.57 429.51c.09.35-.09.37-.18.54s-.21.29-.3.45a11.34 11.34 0 0 0 -.55 1l-.55 1-.29.51-.14.26c0 .09-.13.16-.53.09a.86.86 0 0 1 -.39-.17c-.32-.25-.34-.37-.29-.46l.11-.29.22-.58a12.13 12.13 0 0 1 .55-1.12c.22-.36.45-.71.71-1.06.13-.17.27-.35.42-.52s.26-.42.65-.34a.7.7 0 0 1 .54.5z" fill="#004e6e"/><path d="m892.23 447.29a1.94 1.94 0 0 1 -.07 1.12 1.8 1.8 0 0 1 -.26.5 1.77 1.77 0 0 1 -.47.44.3.3 0 0 1 -.42-.1 1.78 1.78 0 0 1 -.18-.62 1.82 1.82 0 0 1 0-.56 2 2 0 0 1 .51-1 .51.51 0 0 1 .72 0 .52.52 0 0 1 .13.23" fill="#004e6e"/><path d="m893.74 451.71a2.54 2.54 0 0 1 .48 1.17 3.58 3.58 0 0 1 0 1.22 3 3 0 0 1 -.46 1.17 1.48 1.48 0 0 1 -1.15.74.23.23 0 0 1 -.23-.23.21.21 0 0 1 .05-.14v-.06a1.68 1.68 0 0 0 .31-.76 7.91 7.91 0 0 0 .1-.9c0-.62 0-1.25 0-1.86v-.06a.46.46 0 0 1 .82-.29" fill="#004e6e"/><path d="m887.86 444.45c.66 5.66.66 11.35.78 17s.11 11.36.1 17q0 17-.42 34.06a.76.76 0 0 1 -.76.74h-10.69a.75.75 0 0 1 -.74-.7l-1.73-28.66-.9-14.33c-.26-4.78-.8-9.54-.57-14.34a.22.22 0 0 1 .44 0c1.09 4.74 1.09 9.53 1.49 14.3l.94 14.33 1.82 28.66-.74-.7h10.69l-.76.74q.42-17 .53-34c0-5.67 0-11.34 0-17s-.28-11.33-.31-17a.45.45 0 0 1 .89-.06" fill="#004e6e"/><path d="m875 475.14c-.34 6.24-.89 12.46-1.23 18.71s-.67 12.49-.92 18.74a.71.71 0 0 1 -.71.68h-10.11a.73.73 0 0 1 -.72-.67c-.41-5.67-.78-11.35-1-17s-.37-11.38-.37-17.07.11-11.38.38-17.07.65-11.36 1.39-17.05v.12c-.09-4.36-.1-8.7 0-13.05.05-2.17.1-4.35.26-6.53a31.64 31.64 0 0 1 1-6.48.22.22 0 0 1 .28-.15.23.23 0 0 1 .16.22c0 2.17-.09 4.32-.18 6.48s-.18 4.32-.21 6.48c-.08 4.33-.05 8.67.05 13a.65.65 0 0 1 0 .1c-.71 5.58-1.07 11.26-1.33 16.92s-.33 11.33-.33 17 .16 11.34.38 17 .56 11.33 1 17l-.72-.67h10.11l-.71.68q.41-9.39 1-18.77c.19-3.13.4-6.25.64-9.38s.54-6.25 1.06-9.35a.45.45 0 0 1 .88.1" fill="#004e6e"/><path d="m884.19 512.76c3.91.64 9.79 2.87 9.66 4a3.59 3.59 0 0 1 -.16.73c-6.17 0-7-.86-14.1-2" fill="#004e6e"/><path d="m878.49 517.52h5.7v-4.76h-5.7z" fill="#004e6e"/><path d="m865.27 512.76c-3.91.64-9.79 2.87-9.66 4a3.59 3.59 0 0 0 .16.73c6.17 0 7-.86 14.1-2" fill="#004e6e"/><path d="m870.97 517.52h-5.7v-4.76h5.7z" fill="#004e6e"/><path d="m860.07 479.35a9.51 9.51 0 0 1 2.74 2.85 7.17 7.17 0 0 1 1.39 3.67.23.23 0 0 1 -.41.16 25.7 25.7 0 0 1 -2.09-3.09 31.42 31.42 0 0 0 -2.2-2.91.45.45 0 0 1 .59-.66" fill="#187aa2"/><path d="m883.44 478.42 22.5.05a3 3 0 0 0 3.12-2.89v-15.71a3 3 0 0 0 -3.12-2.89l-22.5-.05a3 3 0 0 0 -3.12 2.89v15.71a3 3 0 0 0 3.12 2.89" fill="#3895ba"/><path d="m817.93 385.35a1 1 0 0 1 .23.73v.73 1.43a1.3 1.3 0 0 0 .36.83 1.46 1.46 0 0 0 .37.28 2.44 2.44 0 0 0 .54.18 14.47 14.47 0 0 1 2.8 1.16 6.59 6.59 0 0 1 2.34 1.86.24.24 0 0 1 0 .33.24.24 0 0 1 -.19 0 12.17 12.17 0 0 1 -2.7-1 17.86 17.86 0 0 0 -2.6-.95 4 4 0 0 1 -.83-.28 2.71 2.71 0 0 1 -.79-.59 2.76 2.76 0 0 1 -.71-1.8v-1.47-.73a1 1 0 0 1 .22-.73.58.58 0 0 1 .82-.07l.07.07" fill="#004e6e"/><path d="m560.79 51.9a9.14 9.14 0 1 1 9.14-9.14 9.14 9.14 0 0 1 -9.14 9.14m21.33-9.14a21.33 21.33 0 1 0 -39.3 11.47l18 28.14 18-28.14a21.25 21.25 0 0 0 3.36-11.47" fill="#004e6e"/><path d="m867.5 183a4.84 4.84 0 1 1 4.84-4.84 4.84 4.84 0 0 1 -4.84 4.84m11.28-4.84a11.28 11.28 0 1 0 -20.78 6.11l9.51 14.89 9.49-14.89a11.24 11.24 0 0 0 1.78-6.07" fill="#c3c4c7"/><path d="m102.82 334.89h24.93c19.54 8.73 40.36 15.86 40.36 15.86a39.22 39.22 0 0 1 -9-15.86h10.56a16 16 0 0 0 16-16v-29.53a16 16 0 0 0 -16-16h-66.85a16 16 0 0 0 -16 16v29.49a16 16 0 0 0 16 16" fill="#c3c4c7"/><path d="m972.46 380.7h-39.39a37.2 37.2 0 0 1 -23.25 15.18l6-15.18h-.47a18.13 18.13 0 0 1 -18.15-18.11v-26.85a18.13 18.13 0 0 1 18.15-18.11h57.09a18.13 18.13 0 0 1 18.15 18.11v26.84a18.13 18.13 0 0 1 -18.15 18.11" fill="#fff"/><path d="m972.46 380.45a18 18 0 0 0 6.76-1.36 17.73 17.73 0 0 0 5.69-3.84 17.45 17.45 0 0 0 5-12.34c-.22-9.33-.27-18.81-.37-28.08a17 17 0 0 0 -5.54-11.67 17.33 17.33 0 0 0 -12.17-4.46h-28.14-28.14a17.09 17.09 0 0 0 -11.93 4.77 16.83 16.83 0 0 0 -5.21 11.72c0 9.29-.09 18.79 0 28.06a16.93 16.93 0 0 0 5.34 11.75 17.27 17.27 0 0 0 12.09 4.6 1 1 0 0 1 1 1.43l-6 15.17-1.16-1.39a37.41 37.41 0 0 0 6.61-2 34.25 34.25 0 0 0 6.12-3.2 38.31 38.31 0 0 0 5.45-4.27 31.77 31.77 0 0 0 4.52-5.18.88.88 0 0 1 .73-.38c3.28 0 6.56.13 9.85.19l9.84.21c6.56.16 13.13.22 19.69.24m0 .5c-6.56 0-13.13.07-19.69.24l-9.84.21c-3.28.06-6.56.17-9.85.19l.75-.42a33.35 33.35 0 0 1 -4.69 5.63 35.39 35.39 0 0 1 -5.67 4.57 36.21 36.21 0 0 1 -6.45 3.4 39.62 39.62 0 0 1 -7 2.13 1 1 0 0 1 -1.17-1.36l6-15.19 1 1.45a19.43 19.43 0 0 1 -13.57-5.13 19.12 19.12 0 0 1 -6.13-13.18c-.09-9.49-.08-18.76-.07-28.22a19.18 19.18 0 0 1 5.89-13.38 19.44 19.44 0 0 1 13.57-5.38h28.14 28.14a20.39 20.39 0 0 1 7.26 1.21 19.14 19.14 0 0 1 12.49 16.94c.11 4.79 0 9.41 0 14.12s-.13 9.37-.26 14.08a18.53 18.53 0 0 1 -5.84 12.85 18.87 18.87 0 0 1 -13 5.17" fill="#c3c4c7"/><path d="m264.24 329.46a4 4 0 0 0 -2-2l-7.27-2.58c-.78-.31-.78-.78 0-1l7.27-2.58a4 4 0 0 0 2-2l2.58-7.27c.31-.78.78-.78 1 0l2.58 7.27a4 4 0 0 0 2 2l7.27 2.58c.78.31.78.78 0 1l-7.27 2.58a4 4 0 0 0 -2 2l-2.58 7.27c-.31.78-.78.78-1 0z" fill="#c3c4c7"/><path d="m582.65 16.9 1.07 2.8.27.67c.13.27.13.4.27.53a.18.18 0 0 0 -.27 0v-.13a2.25 2.25 0 0 1 .27-.67l.93-2.8a4 4 0 0 1 .8-1.47 4.18 4.18 0 0 1 1.47-1.07l2.8-1.07.67-.27a1 1 0 0 1 .4-.13l-.13.13v.4a2.25 2.25 0 0 1 -.67-.27l-2.8-.93a4.51 4.51 0 0 1 -1.6-.8 4.18 4.18 0 0 1 -1.07-1.47l-.93-2.8-.27-.67a1 1 0 0 1 -.13-.4l.13.13h.4c.13-.13.13-.13.13 0a2.25 2.25 0 0 1 -.27.67l-1.07 2.8a4 4 0 0 1 -.8 1.47 4.18 4.18 0 0 1 -1.47 1.07l-2.8.93-.67.27a1 1 0 0 1 -.53.13v-.4a2.25 2.25 0 0 1 .67.27l2.8 1.07a3.64 3.64 0 0 1 2.4 2zm-.4.13a3.59 3.59 0 0 0 -.93-1.07 4.74 4.74 0 0 0 -1.2-.53l-2.8-.8a5.56 5.56 0 0 0 -.8-.27c-.13-.13-.4-.13-.53-.4a.41.41 0 0 1 0-.53c0-.13.13-.27.27-.4a2.06 2.06 0 0 1 .8-.4l.67-.27 2.8-1.07a4.05 4.05 0 0 0 .93-.67 2 2 0 0 0 .54-1.05l.93-2.8a5.56 5.56 0 0 0 .27-.8c.13-.13.13-.4.53-.53.13-.13.53-.13.67-.13s.4.13.53.27a2.29 2.29 0 0 1 .53.93l.27.67.93 2.8a4.05 4.05 0 0 0 .67.93 2 2 0 0 0 1.07.53l2.8 1.07a5.56 5.56 0 0 0 .8.27c.13.13.4.13.53.53a.61.61 0 0 1 0 .67c-.13.27-.13.4-.27.4a1.11 1.11 0 0 1 -.93.4l-.67.27-2.8.93a4.05 4.05 0 0 0 -.93.67 2 2 0 0 0 -.53 1.07l-1.07 2.8a5.56 5.56 0 0 0 -.27.8c-.13.13-.13.27-.4.53a.41.41 0 0 1 -.53 0c-.13 0-.27-.13-.4-.27s-.27-.67-.4-.8l-.27-.67z" fill="#dcdcde"/><path d="m521.12 30.7-3.33 1.6 1.6-3.34-1.6-3.33 3.33 1.6 3.34-1.6-1.6 3.33 1.6 3.34z" fill="#dcdcde"/><path d="m521.26 30.43a34.72 34.72 0 0 1 3.33 1.33l-.67.67c-.53-1.07-1.2-2.13-1.73-3.2a.41.41 0 0 1 0-.53c.53-1.07 1.07-2.27 1.6-3.33l.93.93-3.33 1.6a.61.61 0 0 1 -.67 0l-3.33-1.6.93-.93 1.6 3.33a.41.41 0 0 1 0 .53c-.53 1.07-1.2 2.13-1.73 3.2l-.67-.67c1.2-.53 2.4-.93 3.6-1.33zm-.27.4c-1.07.67-2 1.33-3.07 1.87a.59.59 0 0 1 -.67-.13.25.25 0 0 1 0-.4v-.17c.4-1.2.93-2.27 1.47-3.47v.53l-1.6-3.33a.76.76 0 0 1 .27-.93.61.61 0 0 1 .67 0l3.33 1.6h-.67l3.33-1.6a.69.69 0 0 1 .93.4.61.61 0 0 1 0 .67c-.53 1.07-1.07 2.27-1.6 3.33v-.5c.53 1.07.93 2.27 1.47 3.47a.49.49 0 0 1 -.27.67h-.4c-1.07-.67-2-1.33-3.2-2z" fill="#dcdcde"/><path d="m591.17 39.15-3.33 1.6 1.6-3.34-1.6-3.33 3.33 1.6 3.33-1.6-1.6 3.33 1.6 3.34z" fill="#dcdcde"/><path d="m286.05 336.34a2.17 2.17 0 0 0 -1.41 0l-2.89 1.41c-.39.16-.55 0-.39-.39l1.41-2.89a2.17 2.17 0 0 0 0-1.41l-1.41-2.89c-.16-.39 0-.55.39-.39l2.89 1.41a2.16 2.16 0 0 0 1.41 0l2.89-1.41c.39-.16.55 0 .39.39l-1.41 2.89a2.17 2.17 0 0 0 0 1.41l1.41 2.89c.16.39 0 .55-.39.39z" fill="#c3c4c7"/><path d="m564.4 154.82a3.6 3.6 0 1 1 -3.6-3.6 3.6 3.6 0 0 1 3.6 3.6" fill="#c3c4c7"/><path d="m564.4 139.46a3.6 3.6 0 1 1 -3.6-3.6 3.6 3.6 0 0 1 3.6 3.6" fill="#c3c4c7"/><path d="m564.4 123.1a3.6 3.6 0 1 1 -3.6-3.6 3.6 3.6 0 0 1 3.6 3.6" fill="#c3c4c7"/><path d="m564.4 106.74a3.6 3.6 0 1 1 -3.6-3.6 3.6 3.6 0 0 1 3.6 3.6" fill="#c3c4c7"/><path d="m431 210.36a2 2 0 1 1 -2-2 2 2 0 0 1 2 2" fill="#c3c4c7"/><path d="m431 201.19a2 2 0 1 1 -2-2 2 2 0 0 1 2 2" fill="#c3c4c7"/><path d="m120.3 308.3a3.6 3.6 0 1 1 3.6-3.6 3.6 3.6 0 0 1 -3.6 3.6" fill="#fff"/><path d="m135.65 308.3a3.6 3.6 0 1 1 3.6-3.6 3.6 3.6 0 0 1 -3.6 3.6" fill="#fff"/><path d="m152 308.3a3.6 3.6 0 1 1 3.6-3.6 3.6 3.6 0 0 1 -3.6 3.6" fill="#fff"/><path d="m250 386.78-4.17-11.86a1.28 1.28 0 0 1 .78-1.63l5.72-2a1.28 1.28 0 0 1 1.63.78l4.17 11.86a1.28 1.28 0 0 1 -.78 1.63l-5.72 2a1.28 1.28 0 0 1 -1.63-.78" fill="#3895ba"/><path d="m256.66 383.12-6.04 2.13-3.63-10.32 6.04-2.13z" fill="#fff"/><path d="m253.02 372.77-6.04 2.12.5 1.44 6.04-2.13z" fill="#004e6e"/><path d="m253.88 386.9s-1.11-2.68-1.55-2.28c-.94.88.2 4.56.2 4.56" fill="#c3c4c7" stroke="#004e6e" stroke-linecap="round" stroke-linejoin="round" stroke-width="1.33"/><path d="m786 391.07h-16.27v-1.36h14.92a1.36 1.36 0 0 1 1.36 1.36" fill="#fff"/><path d="m786 391.07h-16.27v-1.36h14.92a1.36 1.36 0 0 1 1.35 1.36z" fill="none" stroke="#c3c4c7" stroke-linecap="round" stroke-linejoin="round" stroke-width="1.33"/><path d="m775.56 391.17h-22.42l-2-14.37a2.19 2.19 0 0 1 2.17-2.49h18a2.19 2.19 0 0 1 2.17 1.89z" fill="#fff"/><path d="m775.37 390.88c-.87-4.6-1.67-8.87-2.32-13.17l-.25-1.57a1.54 1.54 0 0 0 -.68-.93 1.45 1.45 0 0 0 -.55-.21 5 5 0 0 0 -.74 0h-1.7-6.81-6.81-1.7a5.08 5.08 0 0 0 -.73 0 1.48 1.48 0 0 0 -.52.2 1.45 1.45 0 0 0 -.64.9 1.53 1.53 0 0 0 0 .57l.12.84 1.84 13.5-.71-.62 10.93.09 5.48.09c1.83 0 3.73.13 5.68.24zm.37.58c-1.74.1-3.53.2-5.38.23l-5.73.09-11.49.09a.71.71 0 0 1 -.71-.61l-1.89-13.49-.11-.84a3 3 0 0 1 .05-1.12 2.91 2.91 0 0 1 2.36-2.19 3.06 3.06 0 0 1 .54 0h2.13 6.81 6.81 1.7a6 6 0 0 1 1 0 2.8 2.8 0 0 1 1 .4 2.88 2.88 0 0 1 1.27 1.76c.13.69.16 1.19.24 1.8.58 4.65 1 9.34 1.39 13.68z" fill="#c3c4c7"/><path d="m785.58 367.8a3.6 3.6 0 1 1 -3.6-3.6 3.6 3.6 0 0 1 3.6 3.6" fill="#c3c4c7"/><path d="m785.58 352.44a3.6 3.6 0 1 1 -3.6-3.6 3.6 3.6 0 0 1 3.6 3.6" fill="#c3c4c7"/><path d="m785.58 336.08a3.6 3.6 0 1 1 -3.6-3.6 3.6 3.6 0 0 1 3.6 3.6" fill="#c3c4c7"/><path d="m802.15 304.33a20.17 20.17 0 1 1 -20.15-20.17 20.17 20.17 0 0 1 20.17 20.17" fill="#fff"/><path d="m801.81 304.33a20.56 20.56 0 0 0 -6.2-13.63 19.7 19.7 0 0 0 -13.61-5.52 19.12 19.12 0 1 0 17.71 26.48 22.22 22.22 0 0 0 1.79-7.33zm1 0a18.92 18.92 0 0 1 -1.28 8.1 21.52 21.52 0 1 1 -4.67-23 20 20 0 0 1 5.61 14.89z" fill="#c3c4c7"/><path d="m782 295.3c-7.75 0-12 6-12.48 6.42l2 2.05c10.45-11.83 20.53-.59 20.9 0l2-2.05c-.52-.38-4.41-6.63-12.44-6.42" fill="#c3c4c7"/><path d="m782 300.84a10.82 10.82 0 0 0 -8.81 4.65c.63.59 1.11 1.15 1.76 1.75.18-.28 7.05-8.17 14.1 0 .65-.6 1.13-1.16 1.76-1.75a10.74 10.74 0 0 0 -8.81-4.65" fill="#c3c4c7"/><path d="m782 306.11a6.27 6.27 0 0 0 -5.25 2.85c.52.58 1.75 1.76 1.75 1.76a3.72 3.72 0 0 1 3.38-1.93 4.7 4.7 0 0 1 3.65 1.93s1.23-1.18 1.75-1.76c-1.67-2.85-5.25-2.85-5.25-2.85" fill="#c3c4c7"/><path d="m780.09 312.36 1.89 1.49 1.75-1.67s-2.12-1.47-3.64.18" fill="#c3c4c7"/><path d="m429 162.14c-11.35 0-17.53 8.84-18.29 9.4l3 3c15.32-17.34 30.09-.86 30.63 0l3-3c-.76-.56-6.47-9.72-18.23-9.4" fill="#c3c4c7"/><path d="m429 170.26a15.85 15.85 0 0 0 -12.91 6.81c.93.86 1.63 1.68 2.59 2.56.27-.41 10.33-12 20.66 0 1-.88 1.65-1.7 2.59-2.56a15.72 15.72 0 0 0 -12.93-6.81" fill="#c3c4c7"/><path d="m429 178a9.19 9.19 0 0 0 -7.69 4.17c.76.85 2.57 2.57 2.57 2.57a5.45 5.45 0 0 1 5-2.83s3.69.08 5.35 2.83c0 0 1.81-1.72 2.57-2.57-2.55-4.17-7.8-4.17-7.8-4.17" fill="#c3c4c7"/><path d="m426.22 187.14 2.76 2.18 2.57-2.44s-3.1-2.15-5.33.26" fill="#c3c4c7"/><path d="m869.52 215.64a2 2 0 1 1 -2-2 2 2 0 0 1 2 2" fill="#c3c4c7"/><path d="m869.52 206.46a2 2 0 1 1 -2-2 2 2 0 0 1 2 2" fill="#c3c4c7"/><path d="m727.75 352a21.69 21.69 0 0 1 -3.13-3.11 34.49 34.49 0 0 1 -2.71-3.47.14.14 0 0 1 0-.19.13.13 0 0 1 .16 0 34.84 34.84 0 0 1 3.08 3.15 21.81 21.81 0 0 1 2.66 3.52.07.07 0 0 1 0 .09.07.07 0 0 1 -.07 0" fill="#dcdcde"/><path d="m728.75 351.63a21.7 21.7 0 0 1 -3-3.19 35 35 0 0 1 -2.62-3.54.13.13 0 0 1 .21-.17 34.77 34.77 0 0 1 3 3.23 21.66 21.66 0 0 1 2.57 3.59.07.07 0 0 1 0 .09.07.07 0 0 1 -.07 0" fill="#dcdcde"/><path d="m729.64 360v.72c0 .36.53.64 1.17.64h5" fill="#fff"/><path d="m729.7 360 .07.45c0 .15 0 .33.09.35a1.14 1.14 0 0 0 .62.22h1.73a22 22 0 0 1 3.59.24.14.14 0 0 1 .11.16.13.13 0 0 1 -.11.11 21.84 21.84 0 0 1 -3.59.25 14.76 14.76 0 0 1 -1.85-.1 1.21 1.21 0 0 1 -.88-.66 1.11 1.11 0 0 1 0-.53l.07-.45a.07.07 0 0 1 .08-.06.07.07 0 0 1 .06.06" fill="#c3c4c7"/><path d="m725 351.9c3.37-4.32 8.05-.29 13-1" fill="#fff"/><path d="m724.94 351.86a4.53 4.53 0 0 1 2.76-2.17 8.73 8.73 0 0 1 3.55 0 26.93 26.93 0 0 0 6.69 1 .13.13 0 0 1 .14.13.14.14 0 0 1 -.1.14 9.2 9.2 0 0 1 -3.48.09c-1.15-.16-2.27-.43-3.38-.62a8.35 8.35 0 0 0 -3.26-.13 5.85 5.85 0 0 0 -2.81 1.6.07.07 0 0 1 -.11-.08" fill="#c3c4c7"/><path d="m739.35 350.61c-.31-1.46-3.39-2.54-6.51-1.2" fill="#fff"/><path d="m739.29 350.62a2.62 2.62 0 0 0 -1.29-1 4.89 4.89 0 0 0 -1.63-.41 10.1 10.1 0 0 0 -3.47.32.14.14 0 0 1 -.16-.1.14.14 0 0 1 .06-.14 5.86 5.86 0 0 1 3.65-.83 5.26 5.26 0 0 1 1.86.56 1.91 1.91 0 0 1 1.12 1.57.07.07 0 0 1 -.07.07.06.06 0 0 1 -.05 0z" fill="#c3c4c7"/><path d="m741.52 351.9v1.32c0 3.72-3.61 6.74-8.07 6.74h-.69c-4.46 0-8.07-3-8.07-6.74v-1.32h14.73" fill="#fff"/><path d="m741.59 351.9a8.75 8.75 0 0 1 -.23 3.36 6.81 6.81 0 0 1 -1.9 2.83 9.18 9.18 0 0 1 -6.35 2.21 9.4 9.4 0 0 1 -6.41-2.14 7 7 0 0 1 -2-2.85 9.31 9.31 0 0 1 -.36-3.42.36.36 0 0 1 .35-.35c2.45 0 4.91 0 7.36.07s4.91.06 7.36.15a.13.13 0 0 1 0 .27c-2.45.09-4.91.11-7.36.15s-4.91.06-7.36.07l.35-.35a8.64 8.64 0 0 0 .35 3.16 6.51 6.51 0 0 0 1.8 2.53 8.69 8.69 0 0 0 5.92 2 8.94 8.94 0 0 0 6-1.94 6.7 6.7 0 0 0 1.9-2.55 9.19 9.19 0 0 0 .47-3.22.07.07 0 0 1 .07-.06.07.07 0 0 1 .06.06" fill="#c3c4c7"/><path d="m810 409.74 2.17-12.38a1.28 1.28 0 0 1 1.48-1l6 1a1.28 1.28 0 0 1 1 1.48l-2.17 12.38a1.28 1.28 0 0 1 -1.48 1l-6-1a1.28 1.28 0 0 1 -1-1.48" fill="#c3c4c7"/><path d="m834.52 412.54.21 1.24.61 9.4-.91 4.07-3.46 1.5-2.94-1.5-3-4.07-2.78-4.7-2.5-5.48-1.47-.61-.93-4-.5-1.49s-.08-.7-1.5-1l-1.53.13a1.34 1.34 0 0 1 .1-2.45l4.35-.62 2.18-.71 2.26 7.46 5.27 4.81v-.43z" fill="#fff"/><path d="m830.08 417.2a6.69 6.69 0 0 1 -1.8-1.36l-1.66-1.51-3.31-3-.82-.76-.42-.39a2.47 2.47 0 0 1 -.48-.64 2.67 2.67 0 0 1 -.24-.72l-.11-.55-.22-1.1c-.28-1.47-.61-2.92-.84-4.4v.11a.75.75 0 0 0 -.14-.27s-.05-.09-.16-.05a1.37 1.37 0 0 0 -.55.91.23.23 0 0 1 -.27.17.22.22 0 0 1 -.17-.18 1.71 1.71 0 0 1 .44-1.68 1.16 1.16 0 0 1 1.2-.19 1.57 1.57 0 0 1 .79.79v.07c.4 1.44.7 2.9 1.05 4.35l.25 1.09.12.55a1.14 1.14 0 0 0 .11.34 1 1 0 0 0 .19.25l.4.37.82.76 3.25 3.09 1.62 1.54a6.67 6.67 0 0 1 1.48 1.7.47.47 0 0 1 -.61.65" fill="#004e6e"/><path d="m821.16 406.8c-.43-.17-.47-.51-.67-.78a7.91 7.91 0 0 0 -.56-.78 5 5 0 0 0 -1.39-1.15 4.34 4.34 0 0 0 -1.69-.5 9.19 9.19 0 0 1 -2-.18.25.25 0 0 1 -.18-.31.26.26 0 0 1 .07-.12 2.93 2.93 0 0 1 2.17-.77 4.81 4.81 0 0 1 2.36.56 5.44 5.44 0 0 1 1.79 1.58 9.22 9.22 0 0 1 .63 1c.16.34.44.63.31 1.1a.58.58 0 0 1 -.72.4h-.06z" fill="#004e6e"/><path d="m814 403.78c2.22-.81 3.91.36 5.15 2.31" fill="none" stroke="#004e6e" stroke-linecap="round" stroke-linejoin="round" stroke-width="1.33"/><path d="m825.72 413c-.37-.21-.33-.53-.42-.81l-.18-.86c-.1-.57-.22-1.14-.27-1.72s-.09-1.15-.1-1.73a2.78 2.78 0 0 1 .36-1.75.27.27 0 0 1 .37-.08l.07.06a3 3 0 0 1 .56 1.66c.08.56.16 1.11.21 1.67s.11 1.11.19 1.66l.12.82c0 .28.19.52-.06.86a.65.65 0 0 1 -.85.18" fill="#004e6e"/><path d="m835 412.49a28.54 28.54 0 0 1 .7 4.79c.13 1.61.25 3.23.23 4.88a11.37 11.37 0 0 1 -.93 5 4 4 0 0 1 -2.09 1.94 5 5 0 0 1 -1.37.31 6.73 6.73 0 0 1 -.69 0 3.33 3.33 0 0 1 -.76-.11 8.7 8.7 0 0 1 -4.09-3.23 34.38 34.38 0 0 1 -2.72-4.11 74.86 74.86 0 0 1 -4.22-8.78l.4.39a4.4 4.4 0 0 1 -2.31-2.15 5.3 5.3 0 0 1 -.45-3c.14-.87.13-1.63-.43-2a3.37 3.37 0 0 0 -2.36-.27.22.22 0 0 1 -.12-.43 4.66 4.66 0 0 1 1.41-.33 2.74 2.74 0 0 1 1.54.28 2.15 2.15 0 0 1 1 1.35 5.35 5.35 0 0 1 .1 1.53 4.1 4.1 0 0 0 .44 2.3 3.47 3.47 0 0 0 1.62 1.47.7.7 0 0 1 .37.37 73.46 73.46 0 0 0 4.21 8.56 33.07 33.07 0 0 0 2.63 3.91 8 8 0 0 0 3.31 2.72 2.27 2.27 0 0 0 .94 0 3.56 3.56 0 0 0 1-.2 2.55 2.55 0 0 0 1.36-1.26 10.15 10.15 0 0 0 .81-4.37c0-1.57-.07-3.16-.18-4.75a40.54 40.54 0 0 1 -.24-4.81.45.45 0 0 1 .88-.09" fill="#004e6e"/><path d="m959.12 349.53c1.75-2.47 2.05-7.9-1.52-11.46-4.95-4.94-13.13-10.11-13.13-10.11s-1.11 2.92-6.73 4.46c-8 2.18-6.38 7.58-6.38 7.58-4.08 2.26-5.81 6.5-2.72 9.53" fill="#3895ba"/><path d="m926.79 350.42 4.21 15.29a6.09 6.09 0 0 0 5.87 4.47h14.72a6.09 6.09 0 0 0 5.86-4.45l4.26-15.31" fill="#98c6d9"/><path d="m928.8 350.55a6.67 6.67 0 0 1 -2.14-3.4 6.29 6.29 0 0 1 .37-4.25 8.41 8.41 0 0 1 2.76-3.25 16.53 16.53 0 0 1 1.78-1.05c.62-.25 1.24-.55 1.87-.75s1.28-.37 1.92-.52l1.93-.35c1.28-.14 2.61-.27 3.8-.35 2.43-.21 4.86-.61 7.33-1l.26.78a26 26 0 0 1 -7.34 2.27c-1.31.18-2.47.34-3.68.54l-1.76.39c-.58.15-1.13.34-1.7.51s-1.08.43-1.63.63a14.72 14.72 0 0 0 -1.47.84 6.27 6.27 0 0 0 -2.21 2.29c-1 1.81-.84 4.23.24 6.48z" fill="#98c6d9"/><path d="m924.26 348.94c1.64-.65 3.29-.41 4.93-.48l4.93-.06c3.29 0 6.57-.11 9.86-.08s6.57.05 9.85.12a42.16 42.16 0 0 1 9.86 1v.91a42.16 42.16 0 0 1 -9.86 1c-3.29.07-6.57.13-9.85.12s-6.57-.05-9.86-.08l-4.93-.06c-1.64-.08-3.29.17-4.93-.48z" fill="#004e6e"/><path d="m957.34 336.28a5.24 5.24 0 0 1 -1.32 4.5 10.9 10.9 0 0 1 -3.81 2.76 19.74 19.74 0 0 1 -4.35 1.29 15 15 0 0 1 -4.45.13l-.09-.82c1.38-.52 2.74-.87 4.08-1.27a26 26 0 0 0 3.84-1.44 13.22 13.22 0 0 0 3.29-2.07 11.29 11.29 0 0 0 2.41-3.13z" fill="#98c6d9"/><path d="m857.69 360a4 4 0 0 1 2-2l7.27-2.58c.78-.31.78-.78 0-1l-7.27-2.58a4 4 0 0 1 -2-2l-2.58-7.27c-.31-.78-.78-.78-1 0l-2.58 7.27a4 4 0 0 1 -2 2l-7.27 2.58c-.78.31-.78.78 0 1l7.27 2.58a4 4 0 0 1 2 2l2.58 7.27c.31.78.78.78 1 0z" fill="#c3c4c7"/><path d="m835.88 366.9a2.17 2.17 0 0 1 1.41 0l2.89 1.41c.39.16.55 0 .39-.39l-1.41-2.92a2.17 2.17 0 0 1 0-1.41l1.41-2.89c.16-.39 0-.55-.39-.39l-2.89 1.41a2.16 2.16 0 0 1 -1.41 0l-2.88-1.39c-.39-.16-.55 0-.39.39l1.41 2.89a2.17 2.17 0 0 1 0 1.41l-1.41 2.89c-.16.39 0 .55.39.39z" fill="#c3c4c7"/></g></svg>
