<svg viewBox="0 0 240 136" xmlns="http://www.w3.org/2000/svg"><path d="m.3 129.7c14.5-.7 29-.9 43.4-1.1l21.7-.1h21.7l43.4.2c14.5.1 29 .3 43.4.8.3 0 .5.2.5.5s-.2.5-.5.5c-14.5.5-29 .6-43.4.8l-43.4.2h-21.7l-21.7-.1c-14.5-.2-29-.3-43.4-1.1-.1 0-.3-.1-.3-.3s.1-.3.3-.3z" fill="#e6f1f5"/><path d="m200.3 129.7c3.3-.7 6.5-.9 9.8-1.1l4.9-.1h4.9c3.3 0 6.5.1 9.8.2s6.5.3 9.8.8c.3 0 .5.3.5.6 0 .2-.2.4-.5.5-3.3.5-6.5.7-9.8.8s-6.5.2-9.8.2h-4.9l-4.9-.1c-3.3-.1-6.5-.4-9.8-1.1-.1 0-.2-.2-.2-.3 0-.3.1-.4.2-.4z" fill="#e6f1f5"/><path d="m60.4 107.8v-75.4h92v75.4h-87" fill="#bedae6"/><path d="m60.4 32v-17.6h128.8v17.6h-121.8" fill="#98c6d9"/><path d="m189.2 32.8 1.2 74.7-38 .2v-74.9z" fill="#c3c4c7"/><path d="m134.4 107.7h-63.3v-41.9h69.7v41.9" fill="#fff"/><path d="m140.8 61.1h-69.7v-17.2h69.7z" fill="#fff"/><path d="m125.9 54.1c-1 .2-1.9.6-2.7 1.1s-1.7.9-2.5 1.5c-.6.4-1.2.8-1.8 1.2.6-.7 1.2-1.4 1.7-2.1.7-.8 1.3-1.7 1.9-2.6s1.1-1.9 1.5-2.9c0-.1 0-.2-.1-.2h-.1c-.9.6-1.7 1.4-2.4 2.2s-1.4 1.6-2 2.5c-.6.8-1.2 1.6-1.7 2.4.3-.9.6-1.9.9-2.8.3-1 .5-2 .8-3.1.3-1 .4-2.1.3-3.2 0 0 0-.1-.1-.1s-.1 0-.2 0c-.6.9-1 1.9-1.4 2.9-.3 1-.7 2-.9 3-.2.8-.4 1.6-.6 2.3 0-1-.1-1.9-.1-2.9-.1-1.1-.2-2.3-.3-3.4s-.3-2.3-.6-3.4c0-.1-.2-.2-.3-.2s-.2.1-.2.2c-.1 1.1-.2 2.3-.1 3.4 0 1.1.1 2.3.1 3.4.1 1.1.2 2.3.3 3.4v.1c-.3-.7-.6-1.4-1-2.1-.4-.8-.9-1.7-1.4-2.5s-1-1.6-1.6-2.4c-.1-.1-.3-.1-.4 0s-.1.2-.1.3c.2.9.5 1.8.9 2.7s.8 1.7 1.2 2.6c.2.4.4.8.6 1.2-.7-.7-1.3-1.4-2-2.1-.9-.8-1.7-1.6-2.6-2.4s-1.8-1.6-2.8-2.2c-.1-.1-.3 0-.4.1s-.1.2 0 .3c.7 1 1.5 1.9 2.3 2.8s1.7 1.7 2.5 2.6c.8.8 1.7 1.7 2.6 2.5l.1.1c-.5-.2-1.1-.5-1.6-.7-.8-.3-1.6-.6-2.4-.9s-1.7-.5-2.6-.6c-.1 0-.3.1-.3.2s0 .2.1.3c.7.5 1.5 1 2.3 1.3.8.4 1.6.7 2.4 1.1.8.3 1.6.6 2.4.9s1.6.4 2.5.5c0 0 0 0 .1.1s.2.1.2 0c.9-.3 1.8-.7 2.7-1.2.8-.5 1.7-1 2.5-1.5s1.6-1 2.4-1.6 1.5-1.2 2.2-2v-.1c-.1.1-.1 0-.2 0z" fill="#c3c4c7"/><path d="m193.6 32.3c-11.4 1.1-22.9 1.1-34.3 1.2l-34.3.5h-34.3c-11.4 0-22.9.1-34.3-.9v-.7c11.4-1.1 22.9-1.1 34.3-1.2l34.3-.4h34.3c11.4 0 22.9-.1 34.3.9z" fill="#187aa2"/><path d="m101.3 91.2c-1.4.8-2.7 1.8-3.8 2.9.1-.5.2-1 .4-1.5.5-2.3 1.3-4.4 2.1-6.7l-.5-.3c-.8 1-1.4 2-1.9 3.1s-.9 2.3-1.2 3.4c-.3 1.2-.5 2.4-.6 3.6 0 .3-.1.7-.1 1-.3.8-.4 1.8-.1 2.6h.3l.1-.2v.2h.3c.2-.6.4-1.2.5-1.8.1-.1.1-.3.2-.4.4-.7.9-1.3 1.4-1.9s1.1-1.2 1.7-1.8 1.2-1.2 1.7-2z" fill="#c3c4c7"/><path d="m133.6 77.6c-.6-1.1-1.8-2.6-3.7-3.2-.9-.3-1.7-.4-2.6-.3.4-.5.8-.9 1.2-1.4l-.4-.4c-.8.6-1.5 1.3-2.2 2-.6.2-1.3.4-1.9.7-.2-1.3-.8-3-2.4-4.3-1.1-.9-2.4-1.4-3.9-1.5-1.5-.2-2.8.9-3 2.4 0 .3 0 .7.1 1 .4 1.4 1.2 2.7 2.3 3.6 1.3 1.1 3 1.7 4.8 1.7.4 0 .8 0 1.1-.1-1.3 2-2.4 4.1-3.2 6.3l-.1.1c-.2-1.3-.9-3.7-3.3-5-1.4-.8-3-1.1-4.7-.9-1.3.2-2.3 1.4-2.1 2.7 0 .2.1.3.1.5.5 1.6 1.6 2.9 3.1 3.8 1.2.7 2.5 1 3.8 1 .7 0 1.5-.1 2.1-.3.1.1.1.2.2.4-.6 2.2-1.1 4.4-1.3 6.6-.3-.7-1.8-3.7-5.1-4.3-1.6-.3-3.2 0-4.7.7-1.2.6-1.7 2-1.1 3.2.1.2.2.3.3.4 1 1.3 2.5 2.2 4.2 2.5.5.1.9.1 1.4.1 1.5 0 3-.5 4.3-1.3l-.2.2.2.4c.1.2.3.4.4.6-.1 2 0 4 .2 6h.3c.2-1.6.4-3.3.6-4.9 1.2 1 2.8 1.6 4.4 1.6s3.1-.5 4.3-1.4c.6-.4 1-1.1 1-1.8.1-.7-.2-1.4-.8-1.9-.9-.9-2.5-1.9-4.5-1.9-1.4 0-2.7.4-3.9 1.2.3-1.6.6-3.1 1-4.7 1.1 1.1 2.6 1.7 4.1 1.8h.6c1.3 0 2.7-.4 3.8-1 .6-.4 1.1-1 1.2-1.7s-.1-1.5-.6-2c-.9-.9-2.3-2.1-4.4-2.3-1.1-.1-2.2.1-3.2.5.6-1.4 1.2-2.7 2-3.9.1-.2.2-.3.3-.5.8 1.2 2.1 2.2 3.5 2.6.8.3 1.6.4 2.4.4.7 0 1.4-.1 2.1-.3s1.3-.7 1.6-1.4c.7-.9.7-1.7.3-2.3zm-19.9 6.3c-1.2-.7-2-1.7-2.5-3.1-.2-.6.1-1.2.7-1.4.1 0 .2 0 .2-.1h.8c1.1 0 2.1.3 3 .8 2 1.2 2.5 3.4 2.7 4.4-1.7.5-3.5.3-4.9-.6zm-2 10.2c-1.3-.2-2.5-.9-3.4-2-.4-.5-.3-1.2.2-1.5.1 0 .1-.1.2-.1.9-.4 1.9-.7 2.8-.7.3 0 .7 0 1 .1 2.3.4 3.5 2.4 4 3.2-1.4.9-3.1 1.3-4.8 1zm11.6-1.8c1.7 0 2.9.8 3.7 1.5.2.2.4.6.3.9 0 .3-.2.7-.5.8-1.1.7-2.3 1.1-3.6 1.1-2.1 0-3.5-1.1-4.2-1.9 0-.3.1-.5.1-.8.8-.6 2.2-1.6 4.2-1.6zm1.7-8.7c1.6.1 2.8 1.1 3.5 1.8.2.2.3.6.3.9-.1.3-.3.6-.6.8-1.1.6-2.4.9-3.7.8-1.5-.1-2.9-.8-3.8-2v-.1c.1-.4.3-.9.4-1.3 1.2-.6 2.6-.9 3.9-.9zm-2.2-7.3c-1.7.2-3.4-.3-4.8-1.3-.9-.7-1.6-1.7-1.9-2.9-.2-.7.2-1.5 1-1.7.1 0 .2-.1.4-.1h.2c1.2.1 2.3.5 3.2 1.3 1.8 1.5 2 3.8 1.9 4.7zm9.8 2.9c-.1.3-.4.6-.7.6-1.2.4-2.5.3-3.8-.1s-2.4-1.4-3.1-2.6c.4-.6.8-1.1 1.2-1.6 1.1-.3 2.3-.3 3.4.1 1.6.5 2.5 1.7 3 2.6.1.3.1.7 0 1z" fill="#c3c4c7"/><path d="m201.6 63.5s-10.1 12.5-27.4 11c0 0-9.3 49.8 28.6 60.5 0 0 36.9-5.1 29.5-60.5-.1 0-20.9 1.6-30.7-11z" fill="#e65054"/><path d="m233.7 74.3c-.1-.6-.6-1.1-1.3-1.1-2.8 0-5.5-.2-8.3-.7-2.7-.4-5.5-1.1-8.1-2s-5.1-2-7.4-3.5c-2.3-1.4-4.3-3.3-6-5.4 0-.1-.1-.1-.2-.2-.5-.4-1.3-.4-1.7.1-1.6 1.9-3.6 3.7-5.7 5.2s-4.3 2.9-6.7 3.9c-2.3 1.1-4.8 1.8-7.4 2.3-2.5.5-5.1.6-7.7.4h-.1c-.5 0-1 .3-1 .8-1 6.2-1.1 12.4-.7 18.6s1.6 12.4 3.8 18.2 5.6 11.2 10.2 15.5 10.3 7.1 16.2 8.7h.1c3.2-.1 6.4-1 9.3-2.3s5.7-3.1 8.2-5.2c4.9-4.2 8.8-9.7 11.2-15.7 2.6-6 3.6-12.4 4.1-18.8.5-6.1.1-12.5-.8-18.8zm-2 18.9c-.3 3.1-.6 6.1-1.3 9.1-.3 1.5-.7 3-1.1 4.4-.5 1.4-.9 2.9-1.5 4.3-2.2 5.6-5.7 10.8-10.2 14.8-4.6 3.9-9.9 6.9-15.8 8.9-5.8-1.7-11.2-4.7-15.6-8.9s-7.5-9.5-9.5-15.2-3.1-11.7-3.4-17.8c-.3-5.7-.1-11.5.8-17.2 2.4.2 4.9 0 7.3-.4 2.7-.5 5.4-1.3 7.9-2.4s4.9-2.5 7.1-4.1c1.9-1.3 3.6-2.8 5.2-4.5 1.7 1.9 3.6 3.5 5.7 4.9 2.5 1.6 5.2 2.9 8 3.8s5.6 1.6 8.5 2.1c2.5.4 5 .7 7.6.7.5 5.9.8 11.7.3 17.5z" fill="#003c56"/><path d="m179.9 129.9c-6.5-.3-13.1-.5-19.6-.6-6.5-.2-13.1-.2-19.6-.3-13.1-.2-26.2-.1-39.3-.2l-39.3-.1h-19.6-4.9c-.9 0-1.4 0-2-.2s-1.2-.4-1.7-.8c-1-.7-1.7-1.8-2-3.1-.1-.3-.1-.6-.1-.9v-1.2-.9l69.4-.2h6.3v3.1c0 .3.3.6.6.6h32.1c.3 0 .6-.3.6-.6v-3.3c4.5-.1 9.1-.1 13.6-.3 5.9-.1 11.8-.3 17.7-.6.2 0 .3-.2.3-.4s-.1-.3-.3-.3c-5.9-.2-11.8-.4-17.7-.6-5.9-.1-11.8-.3-17.7-.3-11.8-.1-23.7-.2-35.5-.2l-71-.2c-.8 0-1.5.7-1.5 1.5v2.5 1.2c0 .5.1 1 .1 1.5.6 3 2.9 5.5 5.9 6.3.9.3 2.1.3 2.8.3h4.9 19.6l39.3-.1c13.1-.1 26.2 0 39.3-.2 6.5-.1 13.1-.1 19.6-.3 6.5-.1 13.1-.3 19.6-.6.2 0 .3-.2.3-.4.1 0 0-.1-.2-.1z" fill="#c3c4c7"/><path d="m201.6.3-33.8-.2h-33.8l-67.4-.1h-8.4c-.7 0-1.4 0-2.2 0s-1.6.1-2.4.3c-1.6.4-3 1.1-4.3 2.2-2.5 2.1-4 5.3-4 8.5v8.4 33.8l.1 65.3h2.8l.1-65.3v-33.8-8.4c0-3.7 2.5-7 6.1-7.9.6-.2 1.2-.2 1.8-.3h2.1 8.4l67.5-.1h33.8l32.6-.2.3 25.7.2 13.4.2 13.4c0 .2.3.4.5.4s.3-.2.4-.4l.2-13.4.2-13.4.3-26.9c-.1-.5-.6-1-1.3-1z" fill="#c3c4c7"/><path d="m71.1 102.6c17.8-7.4 56.3-2.5 69 5.3l-69-.2z" fill="#3895ba"/><g fill="#fff"><path d="m206 111.9c-2.5-.1-5-.1-7.4-.1h-.6v.6c0 2.5.1 5 .1 7.4v.5h.5c1.2-.1 2.6-.1 3.8-.2l3.7-.3c.2-2.4.3-5 .4-7.4v-.5z"/><path d="m207.7 82h-11.7l.1.6 1.1 11.2c.2 1.9.3 3.7.5 5.6.1 1.9.3 3.7.5 5.6v.3h.3c2.5-.1 5.1-.2 7.6-.3l1.1-11.1c.4-3.7.8-7.4 1.1-11.3v-.6z"/></g></svg>
