<svg width="103" height="72" xmlns="http://www.w3.org/2000/svg" xmlns:xlink="http://www.w3.org/1999/xlink"><defs><path id="a" d="M.386.638h89.643V3H.386z"/><path id="c" d="M.584.753h6.89v6.584H.584z"/></defs><g fill="none" fill-rule="evenodd"><path d="M3.445 57.435C7.447 45.37 21.525 31.312 32.35 31.79c12.535.553 17.859 7.182 27.462 6.206 16.713-1.7 13.655-34.704 33.217-34.704v67.18H3.445V57.435z" fill="#E1E2E2"/><path d="M36.004 44.075c.81 1.606.742 3.212.814 4.818.08 1.606.093 3.212.117 4.818-.024 1.607-.037 3.213-.116 4.819-.073 1.606-.004 3.212-.815 4.817h-.5c-.81-1.605-.742-3.211-.814-4.817-.08-1.606-.093-3.212-.117-4.82.024-1.605.037-3.211.117-4.817.072-1.606.004-3.212.814-4.818h.5zM65.497 48.495c.81 1.239.742 2.476.815 3.714.07 1.237.115 2.474.117 3.712a67.694 67.694 0 0 1-.117 3.714c-.073 1.236-.003 2.474-.815 3.712h-.5c-.811-1.238-.742-2.476-.814-3.712a66.713 66.713 0 0 1-.117-3.713c0-1.238.047-2.475.117-3.713.072-1.239.004-2.476.814-3.714h.5z" fill="#CCCED0"/><g transform="translate(3 68.248)"><mask id="b" fill="#fff"><use xlink:href="#a"/></mask><path d="M90.029 2.07c-7.47.808-14.94.741-22.41.813L45.208 3l-22.41-.116C15.327 2.811 7.857 2.88.386 2.07v-.5C7.856.76 15.326.827 22.798.754l22.41-.116 22.41.116c7.47.073 14.94.005 22.41.815v.5z" fill="#46799A" mask="url(#b)"/></g><path d="M3.208 57.356c1.29-4.914 3.901-9.418 7.059-13.394 3.178-3.976 7.002-7.479 11.46-10.099 2.226-1.304 4.657-2.348 7.273-2.875a15.81 15.81 0 0 1 3.996-.239c1.285.071 2.57.203 3.844.413 2.55.413 5.042 1.122 7.435 1.981 2.4.851 4.702 1.84 7.008 2.592 2.304.736 4.618 1.257 6.971 1.197 1.188-.022 2.33-.14 3.407-.45a10.549 10.549 0 0 0 3.04-1.46c1.878-1.304 3.389-3.187 4.666-5.23 1.28-2.054 2.355-4.277 3.39-6.535 2.091-4.499 3.912-9.268 6.96-13.479 1.537-2.073 3.436-3.988 5.775-5.235 2.33-1.252 5.008-1.716 7.536-1.5v.5c-2.466.2-4.83.924-6.812 2.234-1.995 1.29-3.605 3.101-4.959 5.093-2.706 4.021-4.54 8.666-6.588 13.253-1.028 2.296-2.11 4.602-3.459 6.81-1.346 2.193-2.992 4.335-5.224 5.921a12.775 12.775 0 0 1-3.68 1.806c-1.328.396-2.694.543-4.003.58-2.662.082-5.32-.447-7.755-1.28-2.444-.828-4.736-1.842-7.044-2.686-2.304-.852-4.637-1.537-7.026-1.95a33.874 33.874 0 0 0-3.61-.424 13.476 13.476 0 0 0-3.475.176c-2.299.444-4.544 1.37-6.637 2.575-4.197 2.422-7.882 5.771-11.11 9.46-3.204 3.718-6.04 7.817-7.964 12.402l-.474-.157z" fill="#46799A"/><path d="M70.086 30.743c.323-2.306 1.211-4.253 1.965-6.335.742-2.075 1.507-4.162 2.354-6.246.894-2.061 1.867-4.131 3.16-6.051.64-.96 1.34-1.901 2.175-2.727.414-.412.913-.752 1.39-1.088a8.03 8.03 0 0 1 1.623-.727l.288.409c-.299.518-.644.93-.962 1.365l-.465.654c-.163.206-.335.4-.47.632-.624.844-1.246 1.69-1.775 2.615-1.06 1.84-1.96 3.809-2.785 5.832-.868 2.006-1.656 4.074-2.555 6.12-.889 2.035-1.72 4.185-3.504 5.785l-.439-.238z" fill="#46799A"/><g transform="translate(89 -.752)"><mask id="d" fill="#fff"><use xlink:href="#c"/></mask><path d="M7.474 4.045c0 1.818-1.543 3.292-3.445 3.292-1.903 0-3.445-1.474-3.445-3.292C.584 2.227 2.126.753 4.03.753c1.902 0 3.445 1.474 3.445 3.292" fill="#46799A" mask="url(#d)"/></g><path d="M6.89 57.435c0 1.818-1.543 3.292-3.445 3.292C1.542 60.727 0 59.253 0 57.435c0-1.818 1.542-3.292 3.445-3.292 1.902 0 3.444 1.474 3.444 3.292" fill="#46799A"/><path d="M101.573 45.91L98.3 49.078a1.894 1.894 0 0 1-2.677-.045l-17.267-17.73 5.993-5.8 17.268 17.731a1.892 1.892 0 0 1-.045 2.676" fill="#004F84"/><path d="M63.826 24.279c-2.671-6.261.24-13.501 6.5-16.171 6.263-2.67 13.502.24 16.172 6.502 2.67 6.26-.241 13.5-6.502 16.17-6.261 2.67-13.5-.24-16.17-6.501z" stroke="#004F84" stroke-width="6.038" stroke-linecap="round" stroke-linejoin="round"/></g></svg>