<?xml version="1.0" encoding="UTF-8"?>
<svg width="103px" height="72px" viewBox="0 0 103 72" version="1.1" xmlns="http://www.w3.org/2000/svg" xmlns:xlink="http://www.w3.org/1999/xlink">
    <!-- Generator: Sketch 54.1 (76490) - https://sketchapp.com -->
    <title>Group 23</title>
    <desc>Created with Sketch.</desc>
    <defs>
        <polygon id="path-1" points="0.3858 0.6383 90.0288 0.6383 90.0288 3 0.3858 3"></polygon>
        <polygon id="path-3" points="0.5841 0.753 7.4741 0.753 7.4741 7.3369 0.5841 7.3369"></polygon>
    </defs>
    <g id="Page-1" stroke="none" stroke-width="1" fill="none" fill-rule="evenodd">
        <g id="Hire---illustrations" transform="translate(-963.000000, -381.000000)">
            <g id="Publicize" transform="translate(944.000000, 352.000000)">
                <g id="Group-23" transform="translate(19.000000, 28.000000)">
                    <path d="M3.4448,58.4349 C7.4468,46.3709 21.5258,32.3119 32.3498,32.7899 C44.8848,33.3429 50.2088,39.9719 59.8118,38.9959 C76.5248,37.2969 73.4668,4.2919 93.0288,4.2919 L93.0288,71.4719 L3.4448,71.4719 L3.4448,58.4349 Z" id="Fill-1" fill="#E1E2E2"></path>
                    <path d="M36.0044,45.0746 C36.8144,46.6806 36.7464,48.2866 36.8184,49.8926 C36.8984,51.4986 36.9114,53.1046 36.9354,54.7106 C36.9114,56.3176 36.8984,57.9236 36.8194,59.5296 C36.7464,61.1356 36.8154,62.7416 36.0044,64.3466 L35.5044,64.3466 C34.6934,62.7416 34.7624,61.1356 34.6904,59.5296 C34.6104,57.9236 34.5974,56.3176 34.5734,54.7106 C34.5974,53.1046 34.6104,51.4986 34.6904,49.8926 C34.7624,48.2866 34.6944,46.6806 35.5044,45.0746 L36.0044,45.0746 Z" id="Fill-3" fill="#CCCED0"></path>
                    <path d="M65.4966,49.4955 C66.3076,50.7335 66.2386,51.9705 66.3116,53.2085 C66.3816,54.4465 66.4266,55.6835 66.4286,56.9215 C66.4266,58.1595 66.3816,59.3965 66.3116,60.6345 C66.2386,61.8715 66.3086,63.1095 65.4966,64.3475 L64.9966,64.3475 C64.1856,63.1095 64.2546,61.8715 64.1826,60.6345 C64.1126,59.3965 64.0666,58.1595 64.0656,56.9215 C64.0666,55.6835 64.1126,54.4465 64.1826,53.2085 C64.2546,51.9705 64.1866,50.7335 64.9966,49.4955 L65.4966,49.4955 Z" id="Fill-5" fill="#CCCED0"></path>
                    <g id="Group-9" transform="translate(3.000000, 69.247500)">
                        <mask id="mask-2" fill="white">
                            <use xlink:href="#path-1"></use>
                        </mask>
                        <g id="Clip-8"></g>
                        <path d="M90.0288,2.0693 C82.5588,2.8783 75.0888,2.8113 67.6188,2.8833 L45.2078,3.0003 L22.7978,2.8843 C15.3268,2.8113 7.8568,2.8803 0.3858,2.0693 L0.3858,1.5693 C7.8568,0.7583 15.3268,0.8273 22.7978,0.7543 L45.2078,0.6383 L67.6188,0.7543 C75.0888,0.8273 82.5588,0.7593 90.0288,1.5693 L90.0288,2.0693 Z" id="Fill-7" fill="#46799A" mask="url(#mask-2)"></path>
                    </g>
                    <path d="M3.2075,58.3563 C4.4985,53.4423 7.1095,48.9383 10.2665,44.9623 C13.4445,40.9863 17.2685,37.4833 21.7275,34.8633 C23.9535,33.5593 26.3845,32.5153 29.0005,31.9883 C30.2945,31.7343 31.7055,31.6633 32.9965,31.7493 C34.2815,31.8203 35.5665,31.9523 36.8405,32.1623 C39.3895,32.5753 41.8825,33.2843 44.2755,34.1433 C46.6755,34.9943 48.9765,35.9833 51.2825,36.7353 C53.5875,37.4713 55.9015,37.9923 58.2545,37.9323 C59.4415,37.9103 60.5835,37.7923 61.6615,37.4813 C62.7405,37.1623 63.7665,36.6733 64.7015,36.0223 C66.5785,34.7183 68.0895,32.8353 69.3665,30.7913 C70.6465,28.7383 71.7215,26.5153 72.7565,24.2573 C74.8485,19.7583 76.6695,14.9893 79.7175,10.7783 C81.2535,8.7053 83.1525,6.7903 85.4915,5.5433 C87.8215,4.2913 90.5005,3.8273 93.0285,4.0423 L93.0285,4.5423 C90.5625,4.7423 88.1975,5.4673 86.2165,6.7773 C84.2205,8.0673 82.6105,9.8783 81.2575,11.8703 C78.5515,15.8913 76.7165,20.5363 74.6695,25.1233 C73.6415,27.4193 72.5585,29.7253 71.2105,31.9333 C69.8635,34.1263 68.2175,36.2683 65.9855,37.8543 C64.8765,38.6433 63.6215,39.2613 62.3055,39.6603 C60.9785,40.0563 59.6125,40.2033 58.3025,40.2393 C55.6405,40.3223 52.9825,39.7933 50.5485,38.9593 C48.1045,38.1323 45.8125,37.1183 43.5045,36.2743 C41.1995,35.4223 38.8665,34.7373 36.4775,34.3243 C35.2835,34.1153 34.0785,33.9803 32.8675,33.9003 C31.6635,33.8123 30.5595,33.8653 29.3935,34.0763 C27.0945,34.5203 24.8495,35.4463 22.7565,36.6513 C18.5595,39.0733 14.8745,42.4223 11.6455,46.1113 C8.4425,49.8293 5.6055,53.9283 3.6825,58.5133 L3.2075,58.3563 Z" id="Fill-10" fill="#46799A"></path>
                    <path d="M70.0864,31.7426 C70.4094,29.4366 71.2974,27.4896 72.0514,25.4076 C72.7934,23.3326 73.5584,21.2456 74.4054,19.1616 C75.2994,17.1006 76.2724,15.0306 77.5654,13.1106 C78.2054,12.1506 78.9054,11.2096 79.7404,10.3836 C80.1544,9.9716 80.6534,9.6316 81.1304,9.2956 C81.6394,8.9926 82.1924,8.7506 82.7534,8.5686 L83.0414,8.9776 C82.7424,9.4956 82.3974,9.9086 82.0794,10.3426 L81.6144,10.9966 C81.4514,11.2026 81.2794,11.3976 81.1434,11.6286 C80.5204,12.4726 79.8984,13.3196 79.3694,14.2436 C78.3094,16.0846 77.4084,18.0526 76.5844,20.0756 C75.7164,22.0816 74.9284,24.1496 74.0294,26.1956 C73.1404,28.2306 72.3094,30.3806 70.5254,31.9806 L70.0864,31.7426 Z" id="Fill-12" fill="#46799A"></path>
                    <g id="Group-16" transform="translate(89.000000, 0.247500)">
                        <mask id="mask-4" fill="white">
                            <use xlink:href="#path-3"></use>
                        </mask>
                        <g id="Clip-15"></g>
                        <path d="M7.4741,4.0449 C7.4741,5.8629 5.9311,7.3369 4.0291,7.3369 C2.1261,7.3369 0.5841,5.8629 0.5841,4.0449 C0.5841,2.2269 2.1261,0.7529 4.0291,0.7529 C5.9311,0.7529 7.4741,2.2269 7.4741,4.0449" id="Fill-14" fill="#46799A" mask="url(#mask-4)"></path>
                    </g>
                    <path d="M6.8891,58.4349 C6.8891,60.2529 5.3471,61.7269 3.4451,61.7269 C1.5421,61.7269 0.0001,60.2529 0.0001,58.4349 C0.0001,56.6169 1.5421,55.1429 3.4451,55.1429 C5.3471,55.1429 6.8891,56.6169 6.8891,58.4349" id="Fill-17" fill="#46799A"></path>
                    <path d="M101.5727,46.9105 L98.3007,50.0775 C97.5497,50.8045 96.3507,50.7845 95.6237,50.0335 L78.3567,32.3025 L84.3497,26.5025 L101.6177,44.2345 C102.3437,44.9855 102.3247,46.1835 101.5727,46.9105" id="Fill-19" fill="#004F84"></path>
                    <path d="M63.8257,25.2787 C61.1547,19.0177 64.0657,11.7777 70.3267,9.1077 C76.5887,6.4377 83.8277,9.3487 86.4977,15.6097 C89.1677,21.8707 86.2567,29.1107 79.9957,31.7807 C73.7347,34.4507 66.4957,31.5397 63.8257,25.2787 Z" id="Stroke-21" stroke="#004F84" stroke-width="6.038" stroke-linecap="round" stroke-linejoin="round"></path>
                </g>
            </g>
        </g>
    </g>
</svg>