<svg enable-background="new 0 0 198 142" viewBox="0 0 198 142" xmlns="http://www.w3.org/2000/svg" xmlns:xlink="http://www.w3.org/1999/xlink"><filter id="a" filterUnits="userSpaceOnUse" height="1.1" width="19.8" x=".7" y=".3"><feColorMatrix values="1 0 0 0 0 0 1 0 0 0 0 0 1 0 0 0 0 0 1 0"/></filter><mask id="b" height="1.1" maskUnits="userSpaceOnUse" width="19.8" x=".7" y=".3"><g filter="url(#a)"><path d="m.7.3h19.8v1.1h-19.8z" fill="#fff"/></g></mask><filter id="c" filterUnits="userSpaceOnUse" height="2.9" width="14.2" x=".4" y=".1"><feColorMatrix values="1 0 0 0 0 0 1 0 0 0 0 0 1 0 0 0 0 0 1 0"/></filter><mask id="d" height="2.9" maskUnits="userSpaceOnUse" width="14.2" x=".4" y=".1"><g filter="url(#c)"><path d="m.4.1h14.2v2.9h-14.2z" fill="#fff"/></g></mask><filter id="e" filterUnits="userSpaceOnUse" height="66.4" width="57.4" x="56.4" y="36.3"><feColorMatrix values="1 0 0 0 0 0 1 0 0 0 0 0 1 0 0 0 0 0 1 0"/></filter><mask id="f" height="66.4" maskUnits="userSpaceOnUse" width="57.4" x="56.4" y="36.3"><g filter="url(#e)"><path d="m0 142h197.5v-141.2h-197.5z" fill="#fff"/></g></mask><filter id="g" filterUnits="userSpaceOnUse" height="19.9" width="27.2" x="78" y="74.1"><feColorMatrix values="1 0 0 0 0 0 1 0 0 0 0 0 1 0 0 0 0 0 1 0"/></filter><mask id="h" height="19.9" maskUnits="userSpaceOnUse" width="27.2" x="78" y="74.1"><g filter="url(#g)"><path d="m0 142h197.5v-141.2h-197.5z" fill="#fff"/></g></mask><filter id="i" filterUnits="userSpaceOnUse" height="96.1" width="137.6" x="42.5" y="32.5"><feColorMatrix values="1 0 0 0 0 0 1 0 0 0 0 0 1 0 0 0 0 0 1 0"/></filter><mask id="j" height="96.1" maskUnits="userSpaceOnUse" width="137.6" x="42.5" y="32.5"><g filter="url(#i)"><path d="m0 142h197.5v-141.2h-197.5z" fill="#fff"/></g></mask><filter id="k" filterUnits="userSpaceOnUse" height="4.5" width="4.5" x="110.8" y="105.4"><feColorMatrix values="1 0 0 0 0 0 1 0 0 0 0 0 1 0 0 0 0 0 1 0"/></filter><mask id="l" height="4.5" maskUnits="userSpaceOnUse" width="4.5" x="110.8" y="105.4"><g filter="url(#k)"><path d="m0 142h197.5v-141.2h-197.5z" fill="#fff"/></g></mask><filter id="m" filterUnits="userSpaceOnUse" height="2" width="43.5" x="64.7" y="107.9"><feColorMatrix values="1 0 0 0 0 0 1 0 0 0 0 0 1 0 0 0 0 0 1 0"/></filter><mask id="n" height="2" maskUnits="userSpaceOnUse" width="43.5" x="64.7" y="107.9"><g filter="url(#m)"><path d="m0 142h197.5v-141.2h-197.5z" fill="#fff"/></g></mask><filter id="o" filterUnits="userSpaceOnUse" height="4.5" width="4.5" x="57.5" y="105.4"><feColorMatrix values="1 0 0 0 0 0 1 0 0 0 0 0 1 0 0 0 0 0 1 0"/></filter><mask id="p" height="4.5" maskUnits="userSpaceOnUse" width="4.5" x="57.5" y="105.4"><g filter="url(#o)"><path d="m0 142h197.5v-141.2h-197.5z" fill="#fff"/></g></mask><filter id="q" filterUnits="userSpaceOnUse" height="38.9" width="2" x="57.5" y="63.3"><feColorMatrix values="1 0 0 0 0 0 1 0 0 0 0 0 1 0 0 0 0 0 1 0"/></filter><mask id="r" height="38.9" maskUnits="userSpaceOnUse" width="2" x="57.5" y="63.3"><g filter="url(#q)"><path d="m0 142h197.5v-141.2h-197.5z" fill="#fff"/></g></mask><filter id="s" filterUnits="userSpaceOnUse" height="4.5" width="4.5" x="57.5" y="55.5"><feColorMatrix values="1 0 0 0 0 0 1 0 0 0 0 0 1 0 0 0 0 0 1 0"/></filter><mask id="t" height="4.5" maskUnits="userSpaceOnUse" width="4.5" x="57.5" y="55.5"><g filter="url(#s)"><path d="m0 142h197.5v-141.2h-197.5z" fill="#fff"/></g></mask><filter id="u" filterUnits="userSpaceOnUse" height="2" width="43.5" x="64.7" y="55.5"><feColorMatrix values="1 0 0 0 0 0 1 0 0 0 0 0 1 0 0 0 0 0 1 0"/></filter><mask id="v" height="2" maskUnits="userSpaceOnUse" width="43.5" x="64.7" y="55.5"><g filter="url(#u)"><path d="m0 142h197.5v-141.2h-197.5z" fill="#fff"/></g></mask><filter id="w" filterUnits="userSpaceOnUse" height="4.5" width="4.5" x="110.8" y="55.5"><feColorMatrix values="1 0 0 0 0 0 1 0 0 0 0 0 1 0 0 0 0 0 1 0"/></filter><mask id="x" height="4.5" maskUnits="userSpaceOnUse" width="4.5" x="110.8" y="55.5"><g filter="url(#w)"><path d="m0 142h197.5v-141.2h-197.5z" fill="#fff"/></g></mask><filter id="y" filterUnits="userSpaceOnUse" height="38.9" width="2" x="113.3" y="63.2"><feColorMatrix values="1 0 0 0 0 0 1 0 0 0 0 0 1 0 0 0 0 0 1 0"/></filter><mask id="z" height="38.9" maskUnits="userSpaceOnUse" width="2" x="113.3" y="63.2"><g filter="url(#y)"><path d="m0 142h197.5v-141.2h-197.5z" fill="#fff"/></g></mask><filter id="A" filterUnits="userSpaceOnUse" height="9.9" width="51.9" x="67.2" y="72.3"><feColorMatrix values="1 0 0 0 0 0 1 0 0 0 0 0 1 0 0 0 0 0 1 0"/></filter><mask id="B" height="9.9" maskUnits="userSpaceOnUse" width="51.9" x="67.2" y="72.3"><g filter="url(#A)"><path d="m0 142h197.5v-141.2h-197.5z" fill="#fff"/></g></mask><filter id="C" filterUnits="userSpaceOnUse" height="9.9" width="32.4" x="67.2" y="90.7"><feColorMatrix values="1 0 0 0 0 0 1 0 0 0 0 0 1 0 0 0 0 0 1 0"/></filter><mask id="D" height="9.9" maskUnits="userSpaceOnUse" width="32.4" x="67.2" y="90.7"><g filter="url(#C)"><path d="m0 142h197.5v-141.2h-197.5z" fill="#fff"/></g></mask><filter id="E" filterUnits="userSpaceOnUse" height="34.9" width="39.7" x="128.4" y="84.7"><feColorMatrix values="1 0 0 0 0 0 1 0 0 0 0 0 1 0 0 0 0 0 1 0"/></filter><mask id="F" height="34.9" maskUnits="userSpaceOnUse" width="39.7" x="128.4" y="84.7"><g filter="url(#E)"><path d="m0 142h197.5v-141.2h-197.5z" fill="#fff"/></g></mask><filter id="G" filterUnits="userSpaceOnUse" height="33.6" width="42" x="145.5" y="41.9"><feColorMatrix values="1 0 0 0 0 0 1 0 0 0 0 0 1 0 0 0 0 0 1 0"/></filter><mask id="H" height="33.6" maskUnits="userSpaceOnUse" width="42" x="145.5" y="41.9"><g filter="url(#G)"><path d="m0 142h197.5v-141.2h-197.5z" fill="#fff"/></g></mask><filter id="I" filterUnits="userSpaceOnUse" height="4.5" width="4.5" x="183.9" y="72"><feColorMatrix values="1 0 0 0 0 0 1 0 0 0 0 0 1 0 0 0 0 0 1 0"/></filter><mask id="J" height="4.5" maskUnits="userSpaceOnUse" width="4.5" x="183.9" y="72"><g filter="url(#I)"><path d="m0 142h197.5v-141.2h-197.5z" fill="#fff"/></g></mask><filter id="K" filterUnits="userSpaceOnUse" height="2" width="31" x="149.6" y="74.5"><feColorMatrix values="1 0 0 0 0 0 1 0 0 0 0 0 1 0 0 0 0 0 1 0"/></filter><mask id="L" height="2" maskUnits="userSpaceOnUse" width="31" x="149.6" y="74.5"><g filter="url(#K)"><path d="m0 142h197.5v-141.2h-197.5z" fill="#fff"/></g></mask><filter id="M" filterUnits="userSpaceOnUse" height="4.5" width="4.5" x="144.5" y="72"><feColorMatrix values="1 0 0 0 0 0 1 0 0 0 0 0 1 0 0 0 0 0 1 0"/></filter><mask id="N" height="4.5" maskUnits="userSpaceOnUse" width="4.5" x="144.5" y="72"><g filter="url(#M)"><path d="m0 142h197.5v-141.2h-197.5z" fill="#fff"/></g></mask><filter id="O" filterUnits="userSpaceOnUse" height="22" width="2" x="144.5" y="46.3"><feColorMatrix values="1 0 0 0 0 0 1 0 0 0 0 0 1 0 0 0 0 0 1 0"/></filter><mask id="P" height="22" maskUnits="userSpaceOnUse" width="2" x="144.5" y="46.3"><g filter="url(#O)"><path d="m0 142h197.5v-141.2h-197.5z" fill="#fff"/></g></mask><filter id="Q" filterUnits="userSpaceOnUse" height="4.5" width="4.5" x="144.5" y="40.9"><feColorMatrix values="1 0 0 0 0 0 1 0 0 0 0 0 1 0 0 0 0 0 1 0"/></filter><mask id="R" height="4.5" maskUnits="userSpaceOnUse" width="4.5" x="144.5" y="40.9"><g filter="url(#Q)"><path d="m0 142h197.5v-141.2h-197.5z" fill="#fff"/></g></mask><filter id="S" filterUnits="userSpaceOnUse" height="30.5" width="36.2" x="152.2" y="40.9"><feColorMatrix values="1 0 0 0 0 0 1 0 0 0 0 0 1 0 0 0 0 0 1 0"/></filter><mask id="T" height="30.5" maskUnits="userSpaceOnUse" width="36.2" x="152.2" y="40.9"><g filter="url(#S)"><path d="m0 142h197.5v-141.2h-197.5z" fill="#fff"/></g></mask><filter id="U" filterUnits="userSpaceOnUse" height="33" width="41" x="145.3" y="42.1"><feColorMatrix values="1 0 0 0 0 0 1 0 0 0 0 0 1 0 0 0 0 0 1 0"/></filter><mask id="V" height="33" maskUnits="userSpaceOnUse" width="41" x="145.3" y="42.1"><g filter="url(#U)"><path d="m0 142h197.5v-141.2h-197.5z" fill="#fff"/></g></mask><filter id="W" filterUnits="userSpaceOnUse" height="3.6" width="3.9" x="144.3" y="41.1"><feColorMatrix values="1 0 0 0 0 0 1 0 0 0 0 0 1 0 0 0 0 0 1 0"/></filter><mask id="X" height="3.6" maskUnits="userSpaceOnUse" width="3.9" x="144.3" y="41.1"><g filter="url(#W)"><path d="m0 142h197.5v-141.2h-197.5z" fill="#fff"/></g></mask><filter id="Y" filterUnits="userSpaceOnUse" height="26.9" width="32.9" x="150.3" y="46"><feColorMatrix values="1 0 0 0 0 0 1 0 0 0 0 0 1 0 0 0 0 0 1 0"/></filter><mask id="Z" height="26.9" maskUnits="userSpaceOnUse" width="32.9" x="150.3" y="46"><g filter="url(#Y)"><path d="m0 142h197.5v-141.2h-197.5z" fill="#fff"/></g></mask><filter id="aa" filterUnits="userSpaceOnUse" height="3.6" width="3.9" x="183.3" y="72.5"><feColorMatrix values="1 0 0 0 0 0 1 0 0 0 0 0 1 0 0 0 0 0 1 0"/></filter><mask id="ab" height="3.6" maskUnits="userSpaceOnUse" width="3.9" x="183.3" y="72.5"><g filter="url(#aa)"><path d="m0 142h197.5v-141.2h-197.5z" fill="#fff"/></g></mask><filter id="ac" filterUnits="userSpaceOnUse" height="4.1" width="25.6" x="52.4" y="10.3"><feColorMatrix values="1 0 0 0 0 0 1 0 0 0 0 0 1 0 0 0 0 0 1 0"/></filter><mask id="ad" height="4.1" maskUnits="userSpaceOnUse" width="25.6" x="52.4" y="10.3"><g filter="url(#ac)"><path d="m0 142h197.5v-141.2h-197.5z" fill="#fff"/></g></mask><path d="m177.9 99.1h19.5z" fill="#fff"/><g transform="translate(0 -.812)"><path d="m20.4 1c-1.6.3-3.3.4-4.9.4s-3.3.1-4.9.1c-3.3-.1-6.5 0-9.8-.4-.1 0-.1-.1-.1-.2s.1-.2.2-.2c3.3-.3 6.5-.3 9.8-.4 1.6 0 3.3 0 4.9.1 1.6 0 3.3.1 4.9.4-.1 0 0 0-.1.2 0-.1 0 0 0 0" fill="#c3c4c7" mask="url(#b)" transform="translate(177 99)"/><path d="m19.7 99.9h-19.5" fill="#fff"/><path d="m19.7 100c-1.6.3-3.3.4-4.9.4s-3.3.1-4.9.1c-3.3-.1-6.5 0-9.8-.4-.1 0-.2-.1-.2-.2s.1-.2.2-.2c3.3-.3 6.5-.3 9.8-.4 1.6 0 3.3 0 4.9.1 1.6 0 3.3.1 4.9.4 0 0 .1 0 0 .2.1-.1.1-.1 0 0 .1-.1 0 0 0 0" fill="#c3c4c7"/><path d="m190.4 138.9v-39" fill="#fff"/><path d="m190.3 138.9c-.3-3.2-.3-6.5-.4-9.7l-.1-9.7c.1-6.5 0-13 .4-19.5 0-.1.1-.2.2-.2s.2.1.2.2c.3 6.5.3 13 .4 19.5l-.1 9.7c-.1 3.2-.1 6.5-.4 9.7 0 0 0 .1-.2 0z" fill="#f6f7f7"/><path d="m27.7 46.6c.8 0 1.1-.1 1.9-.4 3.2-1.1 4.7-3.8 4.6-6.9 0-.9 1.5-1.5 1.2-2.4-.4-1.2-2.5-1.1-3.5-3.3-1.2-2.5-4.3-3.2-7.2-2.2-4.1 1.4-6.3 5.8-4.9 9.9" fill="#fff"/><path d="m27.7 46.6c.8 0 1.1-.1 1.9-.4 3.2-1.1 4.7-3.8 4.6-6.9 0-.9 1.5-1.5 1.2-2.4-.4-1.2-2.5-1.1-3.5-3.3-1.2-2.5-4.3-3.2-7.2-2.2-4.1 1.4-6.3 5.8-4.9 9.9" fill="none" stroke="#004e6e" stroke-linecap="round" stroke-linejoin="round"/><path d="m26.8 36.9c1.1 2.8.9 7.6-2.1 8.7-2.9 1.1-5-4.3-5-4.3z" fill="#646970"/><path d="m18.6 78.1c-2.6 19.8-.4 62-.4 62h9.7l.9-35.4" fill="#004e6e"/><path d="m18.6 78.1c-2.6 19.8-.4 62-.4 62h9.7l.9-35.4" fill="none" stroke="#004e6e" stroke-width=".735"/><path d="m18.2 139.1c2.9.1 11.8.7 13.2 1.1 1.3.5 1.4.7-.2 1-1.6.4-13 0-13 0z" fill="#004e6e"/><path d="m18.2 139.1c2.9.1 11.8.7 13.2 1.1 1.3.5 1.4.7-.2 1-1.6.4-13 0-13 0z" fill="none" stroke="#004e6e" stroke-width=".735"/><path d="m34.4 77.7s1.1 15 1.6 30.4c.4 12.9-1.1 26.5-1 32h-10.6c.1-31.5-6.1-44.6-5.8-62" fill="#3895ba"/><path d="m17.8 56.3c-1.2 10.8.8 21.8.8 21.8l15.9-.4-.2-9.8-3.7-2 4.5-8.7-3-3.1-4.5-4.7c-4.7-1.1-9.3 2.2-9.8 6.9" fill="#3895ba"/><path d="m29.1 65.2.7 51.7h6.7l-1-48.6z" fill="#c3c4c7"/><path d="m27.3 63.1c6.3 5.4 12.4 7 14.9 4.8 3.8-3.2-3-15.8-3.4-17.6-1.6-6.4-5.1-6.4-6-5.7s.9 4.7.9 4.7l1.6 8.5" fill="#fff"/><path d="m27.3 63.1c6.3 5.4 12.4 7 14.9 4.8 3.8-3.2-3-15.8-3.4-17.6-1.6-6.4-5.1-6.4-6-5.7s.9 4.7.9 4.7l1.6 8.5m-3.8-3.4 5.8 5.5" fill="none" stroke="#004e6e" stroke-linecap="round" stroke-linejoin="round"/><path d="m.4.1c2.9.1 11.8.7 13.2 1.1 1.3.5 1.4 1.2-.2 1.6s-13 0-13 0v-2.7z" fill="#3895ba" mask="url(#d)" transform="translate(24 139)"/><path d="m29 46.8-.9 2.6-.7-2.7z" fill="none" stroke="#004e6e" stroke-linecap="round" stroke-linejoin="round"/><path d="m31.8 77.4c-4.8 2.1-14.2 1-14.2 1" fill="none" stroke="#c3c4c7" stroke-linecap="round" stroke-linejoin="round"/><path d="m37.3 91.8c-1.6.3-3.5.2-5.4-.1" fill="none" stroke="#fff" stroke-linecap="round" stroke-linejoin="round"/><path d="m24 49.7c2.5-.9-2.9-3.8-3.3-1.8-.3 1.9 1.2 2.5 3.3 1.8zm1.1-.4s3.1.4 4.7 2m-10.6-9.3 15.6-10.7" fill="none" stroke="#c3c4c7" stroke-linecap="round" stroke-linejoin="round"/><path d="m32.2 41.8c.4 0 .9 0 1.3-.2" fill="none" stroke="#004e6e" stroke-linecap="round" stroke-linejoin="round"/><path d="m31.6 38.5c-.2 0-.5-.1-.5-.4l-.1-.7c0-.2.1-.5.4-.5.2 0 .5.1.5.3l.1.7c0 .3-.2.6-.4.6" fill="#004e6e"/><path d="m142.4 63.8h-1.2" fill="#fff"/><path d="m142.4 63.9c-.1.2-.2.3-.3.3s-.2.1-.3.1c-.2-.1-.4 0-.6-.3-.1-.1-.1-.2 0-.3.2-.3.4-.3.6-.3.1 0 .2 0 .3.1.1 0 .2.1.3.3z" fill="#f6f7f7"/><path d="m142.4 69.9h-1.2" fill="#fff"/><path d="m142.4 70c-.1.2-.2.3-.3.3s-.2.1-.3.1c-.2-.1-.4 0-.6-.3-.1-.1-.1-.2 0-.3.2-.3.4-.3.6-.3.1 0 .2 0 .3.1.1 0 .2.1.3.3z" fill="#f6f7f7"/><path d="m142.4 72.1h-1.2" fill="#fff"/><path d="m142.4 72.2c-.1.2-.2.3-.3.3s-.2.1-.3.1c-.2-.1-.4 0-.6-.3-.1-.1-.1-.2 0-.3.2-.3.4-.3.6-.3.1 0 .2 0 .3.1.1 0 .2.1.3.3z" fill="#f6f7f7"/><path d="m142.4 78.4h-1.2" fill="#fff"/><path d="m142.4 78.5c-.1.2-.2.3-.3.3s-.2.1-.3.1c-.2-.1-.4 0-.6-.3-.1-.1-.1-.2 0-.3.2-.3.4-.3.6-.3.1 0 .2 0 .3.1.1 0 .2.1.3.3z" fill="#f6f7f7"/><path d="m142.4 84.5h-1.2" fill="#fff"/><path d="m142.4 84.6c-.1.2-.2.3-.3.3s-.2.1-.3.1c-.2-.1-.4 0-.6-.3-.1-.1-.1-.2 0-.3.2-.3.4-.3.6-.3.1 0 .2 0 .3.1.1 0 .2.1.3.3z" fill="#f6f7f7"/><path d="m142.4 90.2h-1.2" fill="#fff"/><path d="m142.4 90.3c-.1.2-.2.3-.3.3s-.2.1-.3.1c-.2-.1-.4 0-.6-.3-.1-.1-.1-.2 0-.3.2-.3.4-.3.6-.3.1 0 .2 0 .3.1.1 0 .2.1.3.3z" fill="#f6f7f7"/><path d="m39.5 23-.2-7.8v-5.2c0-4.5 3.7-8.2 8.2-8.2h121.2c4.5 0 8.2 3.7 8.2 8.2v13" fill="#fff"/><path d="m39.5 23-.1-2.5" fill="none" stroke="#c3c4c7" stroke-linecap="round" stroke-linejoin="round" stroke-width="2"/><path d="m39.3 15.4v-5.4c0-4.5 3.7-8.2 8.2-8.2h121.2c4.5 0 8.2 3.7 8.2 8.2v7.9" style="fill:none;stroke-linecap:round;stroke-linejoin:round;stroke:#c3c4c7;stroke-width:2;stroke-dasharray:5.088 5.088"/><path d="m176.9 20.5v2.5" fill="none" stroke="#c3c4c7" stroke-linecap="round" stroke-linejoin="round" stroke-width="2"/><path d="m183.7 24h-151.3" fill="#fff"/><path d="m183.7 24.2c-12.6.8-25.2.8-37.8.8l-37.8.1-37.9-.1c-12.6 0-25.2 0-37.8-.8v-.5c12.6-.7 25.2-.7 37.8-.8l37.8-.1 37.8.1c12.6 0 25.2 0 37.8.8v.5z" fill="#c3c4c7"/><path d="m56.4 102.8h57.4v-37h-57.4zm57.4-47.6h-57.4v-8.2c0-5.9 4.8-10.7 10.7-10.7h46.7z" fill="#fff" mask="url(#f)"/><path d="m104.9 74.1c-7 0-9.4 3.2-10.9 5.9-1.4 2.5-4.5 5.9-9.3 7.2-4.7 1.3-6.7 4.1-6.7 6.8h27.2c-.1 0-.3-19.9-.3-19.9z" fill="#fff" mask="url(#h)"/><path d="m42.5 128.6v-96.1h137.6v96.1z" fill="#8e9196" mask="url(#j)"/><path d="m114.3 106.4v2.5h-2.5" style="fill:none;stroke:#fff;stroke-width:2;stroke-linecap:round;stroke-linejoin:round;mask:url(#l)"/><g mask="url(#n)"><path d="m107.2 109.9h-4.6c-.6 0-1-.4-1-1s.4-1 1-1h4.6c.6 0 1 .4 1 1s-.5 1-1 1zm-9.3 0h-4.6c-.6 0-1-.4-1-1s.4-1 1-1h4.6c.6 0 1 .4 1 1s-.4 1-1 1zm-9.2 0h-4.6c-.6 0-1-.4-1-1s.4-1 1-1h4.6c.6 0 1 .4 1 1s-.4 1-1 1zm-9.2 0h-4.6c-.6 0-1-.4-1-1s.4-1 1-1h4.6c.6 0 1 .4 1 1s-.5 1-1 1zm-9.2 0h-4.6c-.6 0-1-.4-1-1s.4-1 1-1h4.6c.6 0 1 .4 1 1s-.5 1-1 1z" fill="#fff"/></g><path d="m61 108.9h-2.5v-2.5" style="fill:none;stroke:#fff;stroke-width:2;stroke-linecap:round;stroke-linejoin:round;mask:url(#p)"/><g mask="url(#r)"><path d="m58.5 102.1c-.6 0-1-.4-1-1v-5.3c0-.6.4-1 1-1s1 .4 1 1v5.3c0 .6-.4 1-1 1zm0-10.5c-.6 0-1-.4-1-1v-5.3c0-.6.4-1 1-1s1 .4 1 1v5.3c0 .5-.4 1-1 1zm0-10.5c-.6 0-1-.4-1-1v-5.3c0-.6.4-1 1-1s1 .4 1 1v5.3c0 .5-.4 1-1 1zm0-10.6c-.6 0-1-.4-1-1v-5.3c0-.6.4-1 1-1s1 .4 1 1v5.3c0 .6-.4 1-1 1z" fill="#fff"/></g><path d="m58.5 59v-2.5h2.5" style="fill:none;stroke:#fff;stroke-width:2;stroke-linecap:round;stroke-linejoin:round;mask:url(#t)"/><g mask="url(#v)"><path d="m107.1 57.5h-4.6c-.6 0-1-.4-1-1s.4-1 1-1h4.6c.6 0 1 .4 1 1s-.4 1-1 1zm-9.2 0h-4.6c-.6 0-1-.4-1-1s.4-1 1-1h4.6c.6 0 1 .4 1 1s-.4 1-1 1zm-9.2 0h-4.6c-.6 0-1-.4-1-1s.4-1 1-1h4.6c.6 0 1 .4 1 1s-.4 1-1 1zm-9.2 0h-4.6c-.6 0-1-.4-1-1s.4-1 1-1h4.6c.6 0 1 .4 1 1s-.5 1-1 1zm-9.2 0h-4.6c-.6 0-1-.4-1-1s.4-1 1-1h4.6c.6 0 1 .4 1 1s-.5 1-1 1z" fill="#fff"/></g><path d="m111.8 56.5h2.5v2.5" style="fill:none;stroke:#fff;stroke-width:2;stroke-linecap:round;stroke-linejoin:round;mask:url(#x)"/><g mask="url(#z)"><path d="m114.3 102.1c-.6 0-1-.4-1-1v-5.3c0-.6.4-1 1-1s1 .4 1 1v5.3c0 .6-.5 1-1 1zm0-10.5c-.6 0-1-.4-1-1v-5.3c0-.6.4-1 1-1s1 .4 1 1v5.3c0 .5-.5 1-1 1zm0-10.5c-.6 0-1-.4-1-1v-5.3c0-.6.4-1 1-1s1 .4 1 1v5.3c0 .5-.5 1-1 1zm0-10.6c-.6 0-1-.4-1-1v-5.3c0-.6.4-1 1-1s1 .4 1 1v5.3c0 .6-.5 1-1 1z" fill="#fff"/></g><path d="m111 82.2h-43.8v-9.9h51.9v1.7c.1 4.5-3.6 8.2-8.1 8.2" fill="#fff" mask="url(#B)"/><path d="m91.5 100.6h-24.3v-9.9h32.4v1.7c.1 4.5-3.6 8.2-8.1 8.2" fill="#646970" mask="url(#D)"/><path d="m168.1 119.5h-39.7v-27.8c0-3.9 3.1-7 7-7h32.7z" fill="#3895ba" mask="url(#F)"/><path d="m187.4 75.5h-42v-33.6h36.1c3.2 0 5.8 2.6 5.8 5.8z" fill="#fff" mask="url(#H)"/><g fill="none" stroke-linecap="round" stroke-linejoin="round"><path d="m187.4 73v2.5h-2.5" mask="url(#J)" stroke="#c3c4c7" stroke-width="2"/><path d="m179.6 75.5h-29" mask="url(#L)" stroke="#c3c4c7" stroke-dasharray="5.279 5.279" stroke-width="2"/><path d="m148 75.5h-2.5v-2.5" mask="url(#N)" stroke="#c3c4c7" stroke-width="2"/><path d="m145.5 67.3v-20" mask="url(#P)" stroke="#c3c4c7" stroke-dasharray="5.721 5.721" stroke-width="2"/><path d="m145.5 44.4v-2.5h2.5" mask="url(#R)" stroke="#c3c4c7" stroke-width="2"/><path d="m153.2 41.9h28.4c3.2 0 5.8 2.6 5.8 5.8v22.7" mask="url(#T)" stroke="#c3c4c7" stroke-dasharray="5.234 5.234" stroke-width="2"/></g><path d="m145.3 42.1 41 33" fill="#fff" mask="url(#V)"/><path d="m145.3 42.1 1.9 1.6" style="fill:none;stroke:#c3c4c7;stroke-width:2;stroke-linecap:round;stroke-linejoin:round;mask:url(#X)"/><path d="m151.3 47 30.9 24.9" style="fill:none;stroke:#c3c4c7;stroke-width:2;stroke-linecap:round;stroke-linejoin:round;stroke-dasharray:5.293 5.293;mask:url(#Z)"/><path d="m184.3 73.5 1.9 1.6" style="fill:none;stroke:#c3c4c7;stroke-width:2;stroke-linecap:round;stroke-linejoin:round;mask:url(#ab)"/><path d="m56.5 12.4c0 1.1-.9 2-2 2s-2-.9-2-2 1-2 2.1-2c1 0 1.9.9 1.9 2m10.8 0c0 1.1-.9 2-2.1 2-1.1 0-2-.9-2-2s.9-2 2-2c1.1-.1 2.1.9 2.1 2m10.7 0c0 1.1-.9 2.1-2 2.1s-2.1-.9-2.1-2 .9-2 2.1-2c1.1-.2 2 .8 2 1.9" fill="#8e9196" mask="url(#ad)"/></g></svg>
