<svg id="Layer_1" xmlns="http://www.w3.org/2000/svg" viewBox="0 0 198 142" enable-background="new 0 0 198 142"><style>.st0{fill:#fff}.st1{filter:url(#Adobe_OpacityMaskFilter)}.st2{mask:url(#b_1_)}.st2,.st3{fill:#CCCED0}.st4{fill:#F6F6F6}.st5{fill:none;stroke:#204A69;stroke-linecap:round;stroke-linejoin:round}.st6{fill:#636D75}.st7{fill:#204A69}.st8{fill:none;stroke:#204A69;stroke-width:.735}.st9{fill:#6F93AD}.st10{fill:#CCCED0}.st11{filter:url(#Adobe_OpacityMaskFilter_1_)}.st12{mask:url(#d_1_);fill:#6F93AD}.st13,.st14,.st15,.st16{fill:none;stroke:#CCCED0;stroke-linecap:round;stroke-linejoin:round}.st14,.st15,.st16{stroke:#fff}.st15,.st16{stroke:#CCCED0;stroke-width:2}.st16{stroke-dasharray:5.088,5.088}.st17{filter:url(#Adobe_OpacityMaskFilter_2_)}.st18{mask:url(#f_1_);fill:#fff}.st19{filter:url(#Adobe_OpacityMaskFilter_3_)}.st20{mask:url(#f_2_);fill:#fff}.st21{filter:url(#Adobe_OpacityMaskFilter_4_)}.st22{mask:url(#f_3_);fill:#969CA1}.st23{filter:url(#Adobe_OpacityMaskFilter_5_)}.st24{mask:url(#f_4_);fill:none;stroke:#fff;stroke-width:2;stroke-linecap:round;stroke-linejoin:round}.st25{filter:url(#Adobe_OpacityMaskFilter_6_)}.st26{mask:url(#f_7_)}.st27{filter:url(#Adobe_OpacityMaskFilter_7_)}.st28{mask:url(#f_6_);fill:none;stroke:#fff;stroke-width:2;stroke-linecap:round;stroke-linejoin:round}.st29{filter:url(#Adobe_OpacityMaskFilter_8_)}.st30{mask:url(#f_11_)}.st31{filter:url(#Adobe_OpacityMaskFilter_9_)}.st32{mask:url(#f_8_);fill:none;stroke:#fff;stroke-width:2;stroke-linecap:round;stroke-linejoin:round}.st33{filter:url(#Adobe_OpacityMaskFilter_10_)}.st34{mask:url(#f_27_)}.st35{filter:url(#Adobe_OpacityMaskFilter_11_)}.st36{mask:url(#f_10_);fill:none;stroke:#fff;stroke-width:2;stroke-linecap:round;stroke-linejoin:round}.st37{filter:url(#Adobe_OpacityMaskFilter_12_)}.st38{mask:url(#f_9_)}.st39{filter:url(#Adobe_OpacityMaskFilter_13_)}.st40{mask:url(#f_12_);fill:#fff}.st41{filter:url(#Adobe_OpacityMaskFilter_14_)}.st42{mask:url(#f_13_);fill:#636D75}.st43{filter:url(#Adobe_OpacityMaskFilter_15_)}.st44{mask:url(#f_14_);fill:#6F93AD}.st45{filter:url(#Adobe_OpacityMaskFilter_16_)}.st46{mask:url(#f_15_);fill:#fff}.st47{filter:url(#Adobe_OpacityMaskFilter_17_)}.st48{mask:url(#f_16_);fill:none;stroke:#CCCED0;stroke-width:2;stroke-linecap:round;stroke-linejoin:round}.st49{filter:url(#Adobe_OpacityMaskFilter_18_)}.st50{mask:url(#f_17_);fill:none;stroke:#CCCED0;stroke-width:2;stroke-linecap:round;stroke-linejoin:round;stroke-dasharray:5.279,5.279}.st51{filter:url(#Adobe_OpacityMaskFilter_19_)}.st52{mask:url(#f_18_);fill:none;stroke:#CCCED0;stroke-width:2;stroke-linecap:round;stroke-linejoin:round}.st53{filter:url(#Adobe_OpacityMaskFilter_20_)}.st54{mask:url(#f_19_);fill:none;stroke:#CCCED0;stroke-width:2;stroke-linecap:round;stroke-linejoin:round;stroke-dasharray:5.721,5.721}.st55{filter:url(#Adobe_OpacityMaskFilter_21_)}.st56{mask:url(#f_20_);fill:none;stroke:#CCCED0;stroke-width:2;stroke-linecap:round;stroke-linejoin:round}.st57{filter:url(#Adobe_OpacityMaskFilter_22_)}.st58{mask:url(#f_21_);fill:none;stroke:#CCCED0;stroke-width:2;stroke-linecap:round;stroke-linejoin:round;stroke-dasharray:5.234,5.234}.st59{filter:url(#Adobe_OpacityMaskFilter_23_)}.st60{mask:url(#f_22_);fill:#fff}.st61{filter:url(#Adobe_OpacityMaskFilter_24_)}.st62{mask:url(#f_23_);fill:none;stroke:#CCCED0;stroke-width:2;stroke-linecap:round;stroke-linejoin:round}.st63{filter:url(#Adobe_OpacityMaskFilter_25_)}.st64{mask:url(#f_24_);fill:none;stroke:#CCCED0;stroke-width:2;stroke-linecap:round;stroke-linejoin:round;stroke-dasharray:5.293,5.293}.st65{filter:url(#Adobe_OpacityMaskFilter_26_)}.st66{mask:url(#f_25_);fill:none;stroke:#CCCED0;stroke-width:2;stroke-linecap:round;stroke-linejoin:round}.st67{filter:url(#Adobe_OpacityMaskFilter_27_)}.st68{mask:url(#f_26_);fill:#969CA1}</style><title>Page 1</title><path class="st0" d="M177.9 99.1h19.5-19.5z"/><g transform="translate(0 -.812)"><g transform="translate(177 99)"><defs><filter id="Adobe_OpacityMaskFilter" filterUnits="userSpaceOnUse" x=".7" y=".3" width="19.8" height="1.1"><feColorMatrix values="1 0 0 0 0 0 1 0 0 0 0 0 1 0 0 0 0 0 1 0"/></filter></defs><mask maskUnits="userSpaceOnUse" x=".7" y=".3" width="19.8" height="1.1" id="b_1_"><g class="st1"><path id="a_1_" class="st0" d="M.7.3h19.8v1.1H.7V.3z"/></g></mask><path class="st2" d="M20.4 1c-1.6.3-3.3.4-4.9.4-1.6 0-3.3.1-4.9.1-3.3-.1-6.5 0-9.8-.4C.7 1.1.7 1 .7.9S.8.7.9.7C4.2.4 7.4.4 10.7.3c1.6 0 3.3 0 4.9.1 1.6 0 3.3.1 4.9.4-.1 0 0 0-.1.2 0-.1 0 0 0 0"/></g><path class="st0" d="M19.7 99.9H.2"/><path class="st3" d="M19.7 100c-1.6.3-3.3.4-4.9.4-1.6 0-3.3.1-4.9.1-3.3-.1-6.5 0-9.8-.4-.1 0-.2-.1-.2-.2s.1-.2.2-.2c3.3-.3 6.5-.3 9.8-.4 1.6 0 3.3 0 4.9.1 1.6 0 3.3.1 4.9.4 0 0 .1 0 0 .2.1-.1.1-.1 0 0 .1-.1 0 0 0 0"/><path class="st0" d="M190.4 138.9v-39"/><path class="st4" d="M190.3 138.9c-.3-3.2-.3-6.5-.4-9.7l-.1-9.7c.1-6.5 0-13 .4-19.5 0-.1.1-.2.2-.2s.2.1.2.2c.3 6.5.3 13 .4 19.5l-.1 9.7c-.1 3.2-.1 6.5-.4 9.7 0 0 0 .1-.2 0 .1 0 0 0 0 0"/><path class="st0" d="M27.7 46.6c.8 0 1.1-.1 1.9-.4 3.2-1.1 4.7-3.8 4.6-6.9 0-.9 1.5-1.5 1.2-2.4-.4-1.2-2.5-1.1-3.5-3.3-1.2-2.5-4.3-3.2-7.2-2.2-4.1 1.4-6.3 5.8-4.9 9.9"/><path class="st5" d="M27.7 46.6c.8 0 1.1-.1 1.9-.4 3.2-1.1 4.7-3.8 4.6-6.9 0-.9 1.5-1.5 1.2-2.4-.4-1.2-2.5-1.1-3.5-3.3-1.2-2.5-4.3-3.2-7.2-2.2-4.1 1.4-6.3 5.8-4.9 9.9"/><path class="st6" d="M26.8 36.9c1.1 2.8.9 7.6-2.1 8.7-2.9 1.1-5-4.3-5-4.3l7.1-4.4z"/><path class="st7" d="M18.6 78.1c-2.6 19.8-.4 62-.4 62h9.7l.9-35.4"/><path class="st8" d="M18.6 78.1c-2.6 19.8-.4 62-.4 62h9.7l.9-35.4"/><path class="st7" d="M18.2 139.1c2.9.1 11.8.7 13.2 1.1 1.3.5 1.4.7-.2 1-1.6.4-13 0-13 0v-2.1z"/><path class="st8" d="M18.2 139.1c2.9.1 11.8.7 13.2 1.1 1.3.5 1.4.7-.2 1-1.6.4-13 0-13 0v-2.1z"/><path class="st9" d="M34.4 77.7s1.1 15 1.6 30.4c.4 12.9-1.1 26.5-1 32H24.4c.1-31.5-6.1-44.6-5.8-62"/><path class="st9" d="M17.8 56.3c-1.2 10.8.8 21.8.8 21.8l15.9-.4-.2-9.8-3.7-2 4.5-8.7-3-3.1-4.5-4.7c-4.7-1.1-9.3 2.2-9.8 6.9"/><path class="st10" d="M29.1 65.2l.7 51.7h6.7l-1-48.6-6.4-3.1z"/><path class="st0" d="M27.3 63.1c6.3 5.4 12.4 7 14.9 4.8 3.8-3.2-3-15.8-3.4-17.6-1.6-6.4-5.1-6.4-6-5.7-.9.7.9 4.7.9 4.7l1.6 8.5"/><path class="st5" d="M27.3 63.1c6.3 5.4 12.4 7 14.9 4.8 3.8-3.2-3-15.8-3.4-17.6-1.6-6.4-5.1-6.4-6-5.7-.9.7.9 4.7.9 4.7l1.6 8.5m-3.8-3.4l5.8 5.5"/><g transform="translate(24 139)"><defs><filter id="Adobe_OpacityMaskFilter_1_" filterUnits="userSpaceOnUse" x=".4" y=".1" width="14.2" height="2.9"><feColorMatrix values="1 0 0 0 0 0 1 0 0 0 0 0 1 0 0 0 0 0 1 0"/></filter></defs><mask maskUnits="userSpaceOnUse" x=".4" y=".1" width="14.2" height="2.9" id="d_1_"><g class="st11"><path id="c_1_" class="st0" d="M.4.1h14.2V3H.4V.1z"/></g></mask><path class="st12" d="M.4.1c2.9.1 11.8.7 13.2 1.1 1.3.5 1.4 1.2-.2 1.6-1.6.4-13 0-13 0V.1z"/></g><path class="st5" d="M29 46.8l-.9 2.6-.7-2.7 1.6.1z"/><path class="st13" d="M31.8 77.4c-4.8 2.1-14.2 1-14.2 1"/><path class="st14" d="M37.3 91.8c-1.6.3-3.5.2-5.4-.1"/><path class="st13" d="M24 49.7c2.5-.9-2.9-3.8-3.3-1.8-.3 1.9 1.2 2.5 3.3 1.8zm1.1-.4s3.1.4 4.7 2M19.2 42l15.6-10.7"/><path class="st5" d="M32.2 41.8c.4 0 .9 0 1.3-.2"/><path class="st7" d="M31.6 38.5c-.2 0-.5-.1-.5-.4l-.1-.7c0-.2.1-.5.4-.5.2 0 .5.1.5.3l.1.7c0 .3-.2.6-.4.6"/><path class="st0" d="M142.4 63.8h-1.2"/><path class="st4" d="M142.4 63.9c-.1.2-.2.3-.3.3-.1 0-.2.1-.3.1-.2-.1-.4 0-.6-.3-.1-.1-.1-.2 0-.3.2-.3.4-.3.6-.3.1 0 .2 0 .3.1.1 0 .2.1.3.3v.1"/><path class="st0" d="M142.4 69.9h-1.2"/><path class="st4" d="M142.4 70c-.1.2-.2.3-.3.3-.1 0-.2.1-.3.1-.2-.1-.4 0-.6-.3-.1-.1-.1-.2 0-.3.2-.3.4-.3.6-.3.1 0 .2 0 .3.1.1 0 .2.1.3.3v.1"/><path class="st0" d="M142.4 72.1h-1.2"/><path class="st4" d="M142.4 72.2c-.1.2-.2.3-.3.3-.1 0-.2.1-.3.1-.2-.1-.4 0-.6-.3-.1-.1-.1-.2 0-.3.2-.3.4-.3.6-.3.1 0 .2 0 .3.1.1 0 .2.1.3.3v.1"/><path class="st0" d="M142.4 78.4h-1.2"/><path class="st4" d="M142.4 78.5c-.1.2-.2.3-.3.3-.1 0-.2.1-.3.1-.2-.1-.4 0-.6-.3-.1-.1-.1-.2 0-.3.2-.3.4-.3.6-.3.1 0 .2 0 .3.1.1 0 .2.1.3.3v.1"/><path class="st0" d="M142.4 84.5h-1.2"/><path class="st4" d="M142.4 84.6c-.1.2-.2.3-.3.3-.1 0-.2.1-.3.1-.2-.1-.4 0-.6-.3-.1-.1-.1-.2 0-.3.2-.3.4-.3.6-.3.1 0 .2 0 .3.1.1 0 .2.1.3.3v.1"/><path class="st0" d="M142.4 90.2h-1.2"/><path class="st4" d="M142.4 90.3c-.1.2-.2.3-.3.3-.1 0-.2.1-.3.1-.2-.1-.4 0-.6-.3-.1-.1-.1-.2 0-.3.2-.3.4-.3.6-.3.1 0 .2 0 .3.1.1 0 .2.1.3.3v.1"/><path class="st0" d="M39.5 23l-.2-7.8V10c0-4.5 3.7-8.2 8.2-8.2h121.2c4.5 0 8.2 3.7 8.2 8.2v13"/><path class="st15" d="M39.5 23l-.1-2.5"/><path class="st16" d="M39.3 15.4V10c0-4.5 3.7-8.2 8.2-8.2h121.2c4.5 0 8.2 3.7 8.2 8.2v7.9"/><path class="st15" d="M176.9 20.5V23"/><path class="st0" d="M183.7 24H32.4"/><path class="st3" d="M183.7 24.2c-12.6.8-25.2.8-37.8.8l-37.8.1-37.9-.1c-12.6 0-25.2 0-37.8-.8v-.5c12.6-.7 25.2-.7 37.8-.8l37.8-.1 37.8.1c12.6 0 25.2 0 37.8.8v.5z"/><defs><filter id="Adobe_OpacityMaskFilter_2_" filterUnits="userSpaceOnUse" x="56.4" y="36.3" width="57.4" height="66.4"><feColorMatrix values="1 0 0 0 0 0 1 0 0 0 0 0 1 0 0 0 0 0 1 0"/></filter></defs><mask maskUnits="userSpaceOnUse" x="56.4" y="36.3" width="57.4" height="66.4" id="f_1_"><g class="st17"><path id="e_1_" class="st0" d="M0 142h197.5V.8H0V142z"/></g></mask><path class="st18" d="M56.4 102.8h57.4v-37H56.4v37zm57.4-47.6H56.4V47c0-5.9 4.8-10.7 10.7-10.7h46.7v18.9z"/><defs><filter id="Adobe_OpacityMaskFilter_3_" filterUnits="userSpaceOnUse" x="78" y="74.1" width="27.2" height="19.9"><feColorMatrix values="1 0 0 0 0 0 1 0 0 0 0 0 1 0 0 0 0 0 1 0"/></filter></defs><mask maskUnits="userSpaceOnUse" x="78" y="74.1" width="27.2" height="19.9" id="f_2_"><g class="st19"><path id="e_2_" class="st0" d="M0 142h197.5V.8H0V142z"/></g></mask><path class="st20" d="M104.9 74.1c-7 0-9.4 3.2-10.9 5.9-1.4 2.5-4.5 5.9-9.3 7.2C80 88.5 78 91.3 78 94h27.2c-.1 0-.3-19.9-.3-19.9z"/><defs><filter id="Adobe_OpacityMaskFilter_4_" filterUnits="userSpaceOnUse" x="42.5" y="32.5" width="137.6" height="96.1"><feColorMatrix values="1 0 0 0 0 0 1 0 0 0 0 0 1 0 0 0 0 0 1 0"/></filter></defs><mask maskUnits="userSpaceOnUse" x="42.5" y="32.5" width="137.6" height="96.1" id="f_3_"><g class="st21"><path id="e_3_" class="st0" d="M0 142h197.5V.8H0V142z"/></g></mask><path class="st22" d="M42.5 128.6V32.5h137.6v96.1H42.5z"/><defs><filter id="Adobe_OpacityMaskFilter_5_" filterUnits="userSpaceOnUse" x="110.8" y="105.4" width="4.5" height="4.5"><feColorMatrix values="1 0 0 0 0 0 1 0 0 0 0 0 1 0 0 0 0 0 1 0"/></filter></defs><mask maskUnits="userSpaceOnUse" x="110.8" y="105.4" width="4.5" height="4.5" id="f_4_"><g class="st23"><path id="e_4_" class="st0" d="M0 142h197.5V.8H0V142z"/></g></mask><path class="st24" d="M114.3 106.4v2.5h-2.5"/><defs><filter id="Adobe_OpacityMaskFilter_6_" filterUnits="userSpaceOnUse" x="64.7" y="107.9" width="43.5" height="2"><feColorMatrix values="1 0 0 0 0 0 1 0 0 0 0 0 1 0 0 0 0 0 1 0"/></filter></defs><mask maskUnits="userSpaceOnUse" x="64.7" y="107.9" width="43.5" height="2" id="f_7_"><g class="st25"><path id="e_7_" class="st0" d="M0 142h197.5V.8H0V142z"/></g></mask><g class="st26"><path class="st0" d="M107.2 109.9h-4.6c-.6 0-1-.4-1-1s.4-1 1-1h4.6c.6 0 1 .4 1 1s-.5 1-1 1zm-9.3 0h-4.6c-.6 0-1-.4-1-1s.4-1 1-1h4.6c.6 0 1 .4 1 1s-.4 1-1 1zm-9.2 0h-4.6c-.6 0-1-.4-1-1s.4-1 1-1h4.6c.6 0 1 .4 1 1s-.4 1-1 1zm-9.2 0h-4.6c-.6 0-1-.4-1-1s.4-1 1-1h4.6c.6 0 1 .4 1 1s-.5 1-1 1zm-9.2 0h-4.6c-.6 0-1-.4-1-1s.4-1 1-1h4.6c.6 0 1 .4 1 1s-.5 1-1 1z"/></g><defs><filter id="Adobe_OpacityMaskFilter_7_" filterUnits="userSpaceOnUse" x="57.5" y="105.4" width="4.5" height="4.5"><feColorMatrix values="1 0 0 0 0 0 1 0 0 0 0 0 1 0 0 0 0 0 1 0"/></filter></defs><mask maskUnits="userSpaceOnUse" x="57.5" y="105.4" width="4.5" height="4.5" id="f_6_"><g class="st27"><path id="e_6_" class="st0" d="M0 142h197.5V.8H0V142z"/></g></mask><path class="st28" d="M61 108.9h-2.5v-2.5"/><defs><filter id="Adobe_OpacityMaskFilter_8_" filterUnits="userSpaceOnUse" x="57.5" y="63.3" width="2" height="38.9"><feColorMatrix values="1 0 0 0 0 0 1 0 0 0 0 0 1 0 0 0 0 0 1 0"/></filter></defs><mask maskUnits="userSpaceOnUse" x="57.5" y="63.3" width="2" height="38.9" id="f_11_"><g class="st29"><path id="e_11_" class="st0" d="M0 142h197.5V.8H0V142z"/></g></mask><g class="st30"><path class="st0" d="M58.5 102.1c-.6 0-1-.4-1-1v-5.3c0-.6.4-1 1-1s1 .4 1 1v5.3c0 .6-.4 1-1 1zm0-10.5c-.6 0-1-.4-1-1v-5.3c0-.6.4-1 1-1s1 .4 1 1v5.3c0 .5-.4 1-1 1zm0-10.5c-.6 0-1-.4-1-1v-5.3c0-.6.4-1 1-1s1 .4 1 1v5.3c0 .5-.4 1-1 1zm0-10.6c-.6 0-1-.4-1-1v-5.3c0-.6.4-1 1-1s1 .4 1 1v5.3c0 .6-.4 1-1 1z"/></g><defs><filter id="Adobe_OpacityMaskFilter_9_" filterUnits="userSpaceOnUse" x="57.5" y="55.5" width="4.5" height="4.5"><feColorMatrix values="1 0 0 0 0 0 1 0 0 0 0 0 1 0 0 0 0 0 1 0"/></filter></defs><mask maskUnits="userSpaceOnUse" x="57.5" y="55.5" width="4.5" height="4.5" id="f_8_"><g class="st31"><path id="e_8_" class="st0" d="M0 142h197.5V.8H0V142z"/></g></mask><path class="st32" d="M58.5 59v-2.5H61"/><defs><filter id="Adobe_OpacityMaskFilter_10_" filterUnits="userSpaceOnUse" x="64.7" y="55.5" width="43.5" height="2"><feColorMatrix values="1 0 0 0 0 0 1 0 0 0 0 0 1 0 0 0 0 0 1 0"/></filter></defs><mask maskUnits="userSpaceOnUse" x="64.7" y="55.5" width="43.5" height="2" id="f_27_"><g class="st33"><path id="e_27_" class="st0" d="M0 142h197.5V.8H0V142z"/></g></mask><g class="st34"><path class="st0" d="M107.1 57.5h-4.6c-.6 0-1-.4-1-1s.4-1 1-1h4.6c.6 0 1 .4 1 1s-.4 1-1 1zm-9.2 0h-4.6c-.6 0-1-.4-1-1s.4-1 1-1h4.6c.6 0 1 .4 1 1s-.4 1-1 1zm-9.2 0h-4.6c-.6 0-1-.4-1-1s.4-1 1-1h4.6c.6 0 1 .4 1 1s-.4 1-1 1zm-9.2 0h-4.6c-.6 0-1-.4-1-1s.4-1 1-1h4.6c.6 0 1 .4 1 1s-.5 1-1 1zm-9.2 0h-4.6c-.6 0-1-.4-1-1s.4-1 1-1h4.6c.6 0 1 .4 1 1s-.5 1-1 1z"/></g><defs><filter id="Adobe_OpacityMaskFilter_11_" filterUnits="userSpaceOnUse" x="110.8" y="55.5" width="4.5" height="4.5"><feColorMatrix values="1 0 0 0 0 0 1 0 0 0 0 0 1 0 0 0 0 0 1 0"/></filter></defs><mask maskUnits="userSpaceOnUse" x="110.8" y="55.5" width="4.5" height="4.5" id="f_10_"><g class="st35"><path id="e_10_" class="st0" d="M0 142h197.5V.8H0V142z"/></g></mask><path class="st36" d="M111.8 56.5h2.5V59"/><defs><filter id="Adobe_OpacityMaskFilter_12_" filterUnits="userSpaceOnUse" x="113.3" y="63.2" width="2" height="38.9"><feColorMatrix values="1 0 0 0 0 0 1 0 0 0 0 0 1 0 0 0 0 0 1 0"/></filter></defs><mask maskUnits="userSpaceOnUse" x="113.3" y="63.2" width="2" height="38.9" id="f_9_"><g class="st37"><path id="e_9_" class="st0" d="M0 142h197.5V.8H0V142z"/></g></mask><g class="st38"><path class="st0" d="M114.3 102.1c-.6 0-1-.4-1-1v-5.3c0-.6.4-1 1-1s1 .4 1 1v5.3c0 .6-.5 1-1 1zm0-10.5c-.6 0-1-.4-1-1v-5.3c0-.6.4-1 1-1s1 .4 1 1v5.3c0 .5-.5 1-1 1zm0-10.5c-.6 0-1-.4-1-1v-5.3c0-.6.4-1 1-1s1 .4 1 1v5.3c0 .5-.5 1-1 1zm0-10.6c-.6 0-1-.4-1-1v-5.3c0-.6.4-1 1-1s1 .4 1 1v5.3c0 .6-.5 1-1 1z"/></g><defs><filter id="Adobe_OpacityMaskFilter_13_" filterUnits="userSpaceOnUse" x="67.2" y="72.3" width="51.9" height="9.9"><feColorMatrix values="1 0 0 0 0 0 1 0 0 0 0 0 1 0 0 0 0 0 1 0"/></filter></defs><mask maskUnits="userSpaceOnUse" x="67.2" y="72.3" width="51.9" height="9.9" id="f_12_"><g class="st39"><path id="e_12_" class="st0" d="M0 142h197.5V.8H0V142z"/></g></mask><path class="st40" d="M111 82.2H67.2v-9.9h51.9V74c.1 4.5-3.6 8.2-8.1 8.2"/><defs><filter id="Adobe_OpacityMaskFilter_14_" filterUnits="userSpaceOnUse" x="67.2" y="90.7" width="32.4" height="9.9"><feColorMatrix values="1 0 0 0 0 0 1 0 0 0 0 0 1 0 0 0 0 0 1 0"/></filter></defs><mask maskUnits="userSpaceOnUse" x="67.2" y="90.7" width="32.4" height="9.9" id="f_13_"><g class="st41"><path id="e_13_" class="st0" d="M0 142h197.5V.8H0V142z"/></g></mask><path class="st42" d="M91.5 100.6H67.2v-9.9h32.4v1.7c.1 4.5-3.6 8.2-8.1 8.2"/><defs><filter id="Adobe_OpacityMaskFilter_15_" filterUnits="userSpaceOnUse" x="128.4" y="84.7" width="39.7" height="34.9"><feColorMatrix values="1 0 0 0 0 0 1 0 0 0 0 0 1 0 0 0 0 0 1 0"/></filter></defs><mask maskUnits="userSpaceOnUse" x="128.4" y="84.7" width="39.7" height="34.9" id="f_14_"><g class="st43"><path id="e_14_" class="st0" d="M0 142h197.5V.8H0V142z"/></g></mask><path class="st44" d="M168.1 119.5h-39.7V91.7c0-3.9 3.1-7 7-7h32.7v34.8z"/><defs><filter id="Adobe_OpacityMaskFilter_16_" filterUnits="userSpaceOnUse" x="145.5" y="41.9" width="42" height="33.6"><feColorMatrix values="1 0 0 0 0 0 1 0 0 0 0 0 1 0 0 0 0 0 1 0"/></filter></defs><mask maskUnits="userSpaceOnUse" x="145.5" y="41.9" width="42" height="33.6" id="f_15_"><g class="st45"><path id="e_15_" class="st0" d="M0 142h197.5V.8H0V142z"/></g></mask><path class="st46" d="M187.4 75.5h-42V41.9h36.1c3.2 0 5.8 2.6 5.8 5.8l.1 27.8z"/><defs><filter id="Adobe_OpacityMaskFilter_17_" filterUnits="userSpaceOnUse" x="183.9" y="72" width="4.5" height="4.5"><feColorMatrix values="1 0 0 0 0 0 1 0 0 0 0 0 1 0 0 0 0 0 1 0"/></filter></defs><mask maskUnits="userSpaceOnUse" x="183.9" y="72" width="4.5" height="4.5" id="f_16_"><g class="st47"><path id="e_16_" class="st0" d="M0 142h197.5V.8H0V142z"/></g></mask><path class="st48" d="M187.4 73v2.5h-2.5"/><defs><filter id="Adobe_OpacityMaskFilter_18_" filterUnits="userSpaceOnUse" x="149.6" y="74.5" width="31" height="2"><feColorMatrix values="1 0 0 0 0 0 1 0 0 0 0 0 1 0 0 0 0 0 1 0"/></filter></defs><mask maskUnits="userSpaceOnUse" x="149.6" y="74.5" width="31" height="2" id="f_17_"><g class="st49"><path id="e_17_" class="st0" d="M0 142h197.5V.8H0V142z"/></g></mask><path class="st50" d="M179.6 75.5h-29"/><defs><filter id="Adobe_OpacityMaskFilter_19_" filterUnits="userSpaceOnUse" x="144.5" y="72" width="4.5" height="4.5"><feColorMatrix values="1 0 0 0 0 0 1 0 0 0 0 0 1 0 0 0 0 0 1 0"/></filter></defs><mask maskUnits="userSpaceOnUse" x="144.5" y="72" width="4.5" height="4.5" id="f_18_"><g class="st51"><path id="e_18_" class="st0" d="M0 142h197.5V.8H0V142z"/></g></mask><path class="st52" d="M148 75.5h-2.5V73"/><defs><filter id="Adobe_OpacityMaskFilter_20_" filterUnits="userSpaceOnUse" x="144.5" y="46.3" width="2" height="22"><feColorMatrix values="1 0 0 0 0 0 1 0 0 0 0 0 1 0 0 0 0 0 1 0"/></filter></defs><mask maskUnits="userSpaceOnUse" x="144.5" y="46.3" width="2" height="22" id="f_19_"><g class="st53"><path id="e_19_" class="st0" d="M0 142h197.5V.8H0V142z"/></g></mask><path class="st54" d="M145.5 67.3v-20"/><defs><filter id="Adobe_OpacityMaskFilter_21_" filterUnits="userSpaceOnUse" x="144.5" y="40.9" width="4.5" height="4.5"><feColorMatrix values="1 0 0 0 0 0 1 0 0 0 0 0 1 0 0 0 0 0 1 0"/></filter></defs><mask maskUnits="userSpaceOnUse" x="144.5" y="40.9" width="4.5" height="4.5" id="f_20_"><g class="st55"><path id="e_20_" class="st0" d="M0 142h197.5V.8H0V142z"/></g></mask><path class="st56" d="M145.5 44.4v-2.5h2.5"/><defs><filter id="Adobe_OpacityMaskFilter_22_" filterUnits="userSpaceOnUse" x="152.2" y="40.9" width="36.2" height="30.5"><feColorMatrix values="1 0 0 0 0 0 1 0 0 0 0 0 1 0 0 0 0 0 1 0"/></filter></defs><mask maskUnits="userSpaceOnUse" x="152.2" y="40.9" width="36.2" height="30.5" id="f_21_"><g class="st57"><path id="e_21_" class="st0" d="M0 142h197.5V.8H0V142z"/></g></mask><path class="st58" d="M153.2 41.9h28.4c3.2 0 5.8 2.6 5.8 5.8v22.7"/><defs><filter id="Adobe_OpacityMaskFilter_23_" filterUnits="userSpaceOnUse" x="145.3" y="42.1" width="41" height="33"><feColorMatrix values="1 0 0 0 0 0 1 0 0 0 0 0 1 0 0 0 0 0 1 0"/></filter></defs><mask maskUnits="userSpaceOnUse" x="145.3" y="42.1" width="41" height="33" id="f_22_"><g class="st59"><path id="e_22_" class="st0" d="M0 142h197.5V.8H0V142z"/></g></mask><path class="st60" d="M145.3 42.1l41 33"/><defs><filter id="Adobe_OpacityMaskFilter_24_" filterUnits="userSpaceOnUse" x="144.3" y="41.1" width="3.9" height="3.6"><feColorMatrix values="1 0 0 0 0 0 1 0 0 0 0 0 1 0 0 0 0 0 1 0"/></filter></defs><mask maskUnits="userSpaceOnUse" x="144.3" y="41.1" width="3.9" height="3.6" id="f_23_"><g class="st61"><path id="e_23_" class="st0" d="M0 142h197.5V.8H0V142z"/></g></mask><path class="st62" d="M145.3 42.1l1.9 1.6"/><defs><filter id="Adobe_OpacityMaskFilter_25_" filterUnits="userSpaceOnUse" x="150.3" y="46" width="32.9" height="26.9"><feColorMatrix values="1 0 0 0 0 0 1 0 0 0 0 0 1 0 0 0 0 0 1 0"/></filter></defs><mask maskUnits="userSpaceOnUse" x="150.3" y="46" width="32.9" height="26.9" id="f_24_"><g class="st63"><path id="e_24_" class="st0" d="M0 142h197.5V.8H0V142z"/></g></mask><path class="st64" d="M151.3 47l30.9 24.9"/><defs><filter id="Adobe_OpacityMaskFilter_26_" filterUnits="userSpaceOnUse" x="183.3" y="72.5" width="3.9" height="3.6"><feColorMatrix values="1 0 0 0 0 0 1 0 0 0 0 0 1 0 0 0 0 0 1 0"/></filter></defs><mask maskUnits="userSpaceOnUse" x="183.3" y="72.5" width="3.9" height="3.6" id="f_25_"><g class="st65"><path id="e_25_" class="st0" d="M0 142h197.5V.8H0V142z"/></g></mask><path class="st66" d="M184.3 73.5l1.9 1.6"/><defs><filter id="Adobe_OpacityMaskFilter_27_" filterUnits="userSpaceOnUse" x="52.4" y="10.3" width="25.6" height="4.1"><feColorMatrix values="1 0 0 0 0 0 1 0 0 0 0 0 1 0 0 0 0 0 1 0"/></filter></defs><mask maskUnits="userSpaceOnUse" x="52.4" y="10.3" width="25.6" height="4.1" id="f_26_"><g class="st67"><path id="e_26_" class="st0" d="M0 142h197.5V.8H0V142z"/></g></mask><path class="st68" d="M56.5 12.4c0 1.1-.9 2-2 2s-2-.9-2-2 1-2 2.1-2c1 0 1.9.9 1.9 2m10.8 0c0 1.1-.9 2-2.1 2-1.1 0-2-.9-2-2s.9-2 2-2c1.1-.1 2.1.9 2.1 2m10.7 0c0 1.1-.9 2.1-2 2.1s-2.1-.9-2.1-2 .9-2 2.1-2c1.1-.2 2 .8 2 1.9"/></g></svg>