<svg enable-background="new 0 0 300 160" viewBox="0 0 300 160" xmlns="http://www.w3.org/2000/svg"><path d="m152.2 138.7s-4.1-2-11.1-4.8h-.2z" fill="#fff"/><path d="m15.1 121.1h.2s0 0 0-.1c-.1.1-.1.1-.2.1z" fill="#fff"/><path d="m61.7 115c0-.1 0-.2 0-.4s0-.4 0-.6c0-.9 0-1.8 0-2.6 0-3.1-.1-5.9-.3-8.3-.2-2.1-.4-3.8-.7-5-.1-.2-.1-.4-.2-.6v-.1l-11.5-.5v.3c-.1.1-.1.3-.2.4-.4 1.3-.8 3.3-.9 5.9-.2 2.8-.3 6.4-.3 10.2v.3.6.5 3.3c.2 12.4 1.1 26.7 1.7 33.6.1 1.7.2 3 .3 3.6h9.4c0-.6.2-2 .4-4 .3-2.7.6-6.6 1-11.1.6-7.1 1.1-15.6 1.3-23.3-.1-.7 0-1.4 0-2.2zm-8.1-5.7c-.3.1-.6 0-.7-.2l-2.9-5.4c-.2-.3-.1-.6.2-.7s.6 0 .7.2l2.9 5.4c.1.3 0 .6-.2.7z" fill="#fff"/><path d="m58.1 68.1-1.1-2.5c.1.5.2 1 .4 1.5.3.3.5.7.7 1z" fill="#fff"/><path d="m239.1 112.1-.2-.4-.2-.5-1.1-3-1.9-5.4-.4-1-3.1.3c.1 1.9.1 3.2.2 3.1l-2 7-.2.6-.1.5-.2.5-.1.4c-.6 2.3-3 3.7-5.4 3.2l-1.1-.2.5-2.1.1-.5.1-.5.5-2.4v-.1l.4-1.6 1.4-6.1s-.1-.5-.2-1.4l-3.2.3v.3l-1.7 11.6-.1.5-.1.5-1.3 9.2-2.4 16.3 1.5-.2 7.6-.9 8.4-1h.1l1-.1 6.7-.8 4.4-.5 1-.1-.6-1.6-4.7-13.2-1.3-3.8z" fill="#fff"/><path d="m247.8 108.7c.2-.2.2-.5.1-.7l-2.9-3.5-.6-.8-4.5-5.4-.2.4c-.2.2-.4.3-.6.2l8 9.7c.2.2.5.2.7.1z" fill="#fff"/><circle cx="91.2" cy="26.7" fill="#fff" r="2.1"/><path d="m173.2 64.6c-.4 0-.7.2-.7.5v8.1h8.6v-8.6z" fill="#fff"/><path d="m185.2 56.1c-.1 0-.2.1-.2.2v16.9h8.6v-17.1z" fill="#fff"/><path d="m53.4 25.3c-.3.3-.6.7-.7 1.2-.1.3-.1.7.1 1 .7.5 1.6.5 2.2 0 .6-.6.9-1.5.6-2.4-.1-.4-.2-.8-.4-1.1-.7.3-1.3.8-1.8 1.3z" fill="none"/><path d="m250.5 128.8c1.2 3.3 4.2 8.6 7.2 13.4 3.1 5 6.3 9.7 7.5 11.5.1.1.1.2.2.2l6.1-9c-1.2-2-7.8-13.1-11.2-22.5-.1-.2-.1-.4-.2-.5l-8 .3z" fill="none"/><path d="m248.1 134.2 3-11.9-7.1.3z" fill="none"/><path d="m245.6 143.8 1.3-5.3-3.7.5z" fill="none"/><path d="m241.7 156.5c0-1 .7-2.1 1.3-2.8 0 0 0-.1.1-.1l.3-1.1c0-.3-.1-.7-.3-.9l-7.3-11.1-2.9 15.1z" fill="none"/><path d="m41.4 147.3 7.1 7.5c-.2-2.5-.6-8.4-1-15.7z" fill="none"/><path d="m64.2 93.8-2-1.6c-.3 2.4-.6 4.5-.8 5.4.4 1.4.7 3.2.9 5.5.2 2.2.3 4.9.3 7.7.2 0 .4.1.4.3.6 1.1 1.1 2.1 1.5 3l.1.3c3.8.3 7.6.8 11.4 1.4 0-2.4 0-4.7 0-7.1l-.2-25.3v-8c-.4 2.2-4.4 17.8-11.6 18.4z" fill="none"/><path d="m237.9 49.5v.1c.1 0 .2.1.3.1-.2 0-.3-.1-.3-.2z" fill="none"/><path d="m32.2 30.3c2.2 0 4.4.1 6.5.1.2 0 .3-.1.4-.3.6-2 1.5-3.9 2.7-5.7 1.1-1.8 2.6-3.2 4.5-4.1.9-.4 1.9-.6 2.9-.5s1.9.4 2.8.8c1.1.6 2.1 1.4 2.7 2.5-.8.4-1.6.9-2.2 1.6-.4.5-.7 1-.9 1.6-.2.7-.1 1.4.3 2 .5.6 1.2.8 1.9.8s1.3-.1 1.9-.5 1-1 1.1-1.7c.1-.6.1-1.2 0-1.8-.1-.5-.3-1-.5-1.5.8-.2 1.7-.3 2.5-.2 1 0 1.9.4 2.7 1 1.4 1.2 1.8 3.5 1.6 5.5v.1c0 .2.2.4.4.4 4.1 0 8.3-.1 12.4-.2v-.5c-4-.1-8-.2-12-.2.1-1 0-2-.2-2.9-.2-1.2-.8-2.2-1.7-3s-2-1.2-3.2-1.3c-1-.1-2 0-3 .3-2-3.1-6.2-4.8-9.8-3.2-2 1-3.7 2.6-4.8 4.5-1.1 1.8-2 3.8-2.6 5.8-2.1 0-4.1.1-6.1.1-2.2 0-4.4.1-6.5.2h-.4l.1.1c2.2.1 4.3.2 6.5.2zm22.8-2.8c-.6.5-1.5.5-2.2 0-.2-.3-.2-.7-.1-1 .1-.5.4-.9.7-1.2.5-.5 1.1-1 1.8-1.3.2.4.3.7.4 1.1.3.9 0 1.8-.6 2.4z" fill="#f6f7f7"/><path d="m274.9 157.6-15.6-.2-15.6-.1h-.3c-.6.5-1.1.7-1.2.6s-.2-.3-.3-.4l-2-.2-27.4-.2-62.5-.1-62.5.1c-20.8.1-41.7.2-62.5.7-.1 0-.2.1-.2.2s.1.2.2.2c20.8.5 41.7.6 62.5.7l62.5.1 62.5-.2 31.2-.2 15.6-.1 15.6-.2c.2 0 .3-.1.3-.3s-.1-.4-.3-.4z" fill="#f6f7f7"/><path d="m75.9 37.5v-.5c-2.2.1-4.5.2-6.7.3v.5c2.4.2 4.8.3 7.2.4 0-.2 0-.4 0-.7z" fill="#004e6e"/><path d="m76.9 37.5h-.5v.7h.5z" fill="#004e6e"/><path d="m76.9 37.5v.7h.8c0-.2 0-.5 0-.7z" fill="#004e6e"/><path d="m213.8 37.5h-.3-.3v.7h.6c0-.3 0-.5 0-.7z" fill="#004e6e"/><path d="m76.4 37.5c0-.2 0-.4 0-.6-.2 0-.4 0-.6 0v.5h.6z" fill="#004e6e"/><path d="m213.5 36.9c-10.3-.4-20.6-.4-30.9-.4l-37.8-.1-37.8.1c-9.8 0-19.6 0-29.4.4v.6.7c9.8.4 19.6.4 29.3.4l37.8.1 37.8-.1c10.2 0 20.4 0 30.6-.4 0-.2 0-.4 0-.7v-.1h.3.3v.6c2.2-.1 4.4-.2 6.6-.3v-.5c-2.2 0-4.5-.2-6.8-.3z" fill="#004e6e"/><path d="m76.9 36.9v.6h.7c0-.2 0-.4 0-.6-.2 0-.5 0-.7 0z" fill="#004e6e"/><path d="m76.5 36.9v.6h.5v-.6c-.2 0-.4 0-.5 0z" fill="#004e6e"/><path d="m213.2 37.5h.3-.3c0-.1 0 0 0 0z" fill="#004e6e"/><path d="m63 117.6c-.1 5.4-.5 11.6-1 18.6l4.3-8.8c.4-3 .3-5.6-1.4-9.9z" fill="#fff"/><path d="m63.1 113.4v.3h.2c-.1-.1-.2-.2-.2-.3z" fill="#fff"/><path d="m63 116.6 1-.1h.5c-.1-.3-.2-.5-.4-.8-.3 0-.6 0-.9 0h-.2z" fill="#fff"/><path d="m64.5 116.5h-.5z" fill="#fff"/><path d="m75.4 71.8v-1.7c-.1-.4-.2-.7-.3-1-.2-.7-.1-1.7-.1-2.7.1-1.1.2-3-.3-3.3-.8.6-1.9 6-2.3 9.9l2.8 1.1c.1-.2.1-.5.2-.7z" fill="#fff"/><path d="m225.4 101.1c-1.3-8.4-.9-13.1 1.2-13.8.8-.3 1.6-.2 2.3.2 2 1.3 3.2 5.6 3.8 13l2.7-.2c0-5.5-1.4-10.2-3.8-12.9-.1 0-.2 0-.4 0s-.4-.2-.6-.3c-.2-.2-.3-.5-.2-.8-.3-.2-.6-.4-.8-.5-.9-.4-2.2-.4-3.4 0-.2.3-.6.6-1 .5-.3.2-.6.4-.9.7-1.5 1.7-2.2 3.9-2.1 6.1l.8 8.3z" fill="#fff"/><path d="m264.3 112.7c0-1.2-.1-2.6-.2-4 0-.1 0-.2 0-.4 0-.1 0-.3 0-.4-1-18.2-4.5-47.1-17.5-40.5-7.4 3.8-6.8 15.3-7.6 20.5l-1 17.5-1.5-4.4c.1-.1.1-.2.1-.3.1-6.2-1.5-11.4-4.3-14.4-.1.1-.3.2-.4.3-.2.2-.5.1-.7-.1s-.1-.4 0-.6c0 0 0-.1.1-.1.1-.1.2-.2.3-.2-.4-.4-.9-.6-1.3-.9-1.2-.6-2.8-.6-4.4.1 0 0-.1 0-.1.1.2.1.3.2.3.4-.1.2-.3.4-.6.4-.1 0-.1 0-.2 0-.2 0-.5-.1-.8-.1-.2.2-.5.4-.7.6-1.7 1.9-2.5 4.4-2.3 6.9l.9 8.8c0 .1.1.2.1.2s-.1.1-.1.1l-1.8 12.7-.1.5-.1.5-1.3 9.2-2.4 16.6c0 .2 0 .3.1.4s.3.2.4.1l1.9-.2 7.5-.9 8.7-1.1.6-.1h.4l7.3-.9 3.7-.5 1.1-.1.9-.1c.2 0 .3-.1.4-.2s.1-.3 0-.4l-.6-1.8-.6-1.7-4.1-11.6 7.1-.3h1.1l8-.3h1l3.2-.1c-.4-.1-.4-3.8-.5-9.2zm-28.2 26.3-1 .1h-.1l-8.4 1-7.6.9-1.5.2 2.4-16.3 1.3-9.2.1-.5.1-.5 1.7-11.6v-.3l3.2-.3c0-.2-.1-.3-.1-.5 0-.2-.1-.3-.1-.5-.7-4.3-1.7-12.9.8-13.8 3.9-1.5 5.1 7.7 5.5 13.3v.5.5l3.1-.3.4 1 1.9 5.4 1.1 3 .2.5.2.4 2.4 6.8 1.3 3.8 4.7 13.2.6 1.6-1 .1-4.4.5zm8.9-55.3c0-2 0-4.1 0-4.1 0-.3.2-.5.5-.5s.5.2.5.5v4.1 2.7c0 .3-.2.5-.5.5s-.5-.2-.5-.5c0-.7 0-1.7 0-2.7zm-1.2 4.3 3.6-.5c.3-.1.6.1.6.4.1.3-.1.6-.4.6l-3.6.5c-.3.1-.6-.1-.6-.4-.1-.3.1-.6.4-.6zm-1.6 1.8c.2-.2.5-.3.7-.2l2 .9c.2.2.3.5.2.7-.2.2-.5.3-.7.2l-2-.9c-.3-.1-.4-.4-.2-.7zm-3.4 8.5v-.1l3.3-6.5c.2-.3.5-.4.7-.2s.3.5.2.7l-3.1 6.1 4.5 5.4c2.2-2.3 4.2-4.8 6-7.5 2.5-3.9 3.3-6.5 3.3-10.1 0-2.8-.5-6.2-1.2-11.1 0-.2.2-.5.4-.5.3-.1.6.1.6.4.7 4.9 1.2 8.3 1.2 11.2 0 3.8-.9 6.7-3.5 10.7-1.8 2.7-4 5.2-6.2 7.6l2.9 3.5c.1.2.1.5-.1.7-.2.1-.5.1-.7-.1l-8-9.7h-.1c-.1-.1-.2-.2-.2-.3 0 0 0-.1 0-.2zm-13.7-12.1c.4.1.8-.2 1-.5 1.3-.5 2.5-.5 3.4 0 .3.1.6.3.8.5-.1.3 0 .6.2.8s.4.3.6.3h.4c2.4 2.7 3.8 7.5 3.8 12.9l-2.7.2c-.6-7.4-1.8-11.7-3.8-13-.7-.5-1.5-.5-2.3-.2-2.1.7-2.5 5.4-1.2 13.8l-2.4.2-.8-8.3c-.2-2.2.6-4.4 2.1-6.1.3-.2.6-.4.9-.6z" fill="#3895ba"/><path d="m240.7 68.6c.1.3.3.4.6.3s.4-.3.3-.6l-.8-2.7 1.2-.4c-.1-.1-.1-.1-.2-.2l-.2-.7-1.5.5c-.3.1-.4.4-.3.6z" fill="#3895ba"/><path d="m242.7 64.7v.3l7.9-2.6c.3-.1.4-.4.3-.6 0-.2-.3-.4-.5-.3l-2.2.7-5.7 1.8z" fill="#3895ba"/><path d="m229.1 71.4c1 0 1.8-.8 1.8-1.8s-.8-1.8-1.8-1.8-1.8.8-1.8 1.8v1.5c-1.8-1.7-4.5-2.8-8-1.6v.1c-1.2.5-2 1.6-2.1 2.9-.1.9-.5 1.5-1 2-.2.3-.5.5-.7.8s-.4.6-.4 1 .2.7.4.9c.3.3.6.4.9.6.1.1.2.1.3.2l.1.1c.5 2.6 2.7 4.5 5.2 4.8.3 0 .5.1.8.1s.5-.2.5-.5-.2-.5-.5-.5h-.1c-.1 0-.1 0-.2 0-1.3-.1-2.6-.7-3.5-1.6.3-.1.6-.3.9-.5.2-.2.3-.5.1-.8-.2-.1-.5-.1-.8 0-.3.2-.6.3-.9.3-.3-.5-.5-1-.6-1.5-.1-.3-.3-.6-.5-.7-.3-.2-.6-.4-.8-.5-.1-.1-.2-.1-.2-.2v-.1c0-.1 0-.3.2-.4.4-.6 1.6-1.4 1.8-3.2l2.1.3h.2l1 3c.6 1.7 2.3 2.8 4.1 2.5l5.5-.9c.1.1-.9-3.7-3.5-6.3z" fill="#004e6e"/><path d="m61.3 69.2c.8 0 1.6-.1 2.3-.4.3-.1.6-.2.9-.4.9-.5 1.7-1.2 2.3-2.1.1 0 .3-.1.4-.2s0-.3 0-.4c.3-.6.6-1.2.7-1.8 0 0 .1-.1.2-.2.2-.2.5-.3.9-.5.2-.1.3-.2.5-.4.1-.2.2-.4.2-.7 0-.4-.2-.8-.4-1.1-.7-.9-1.6-1.4-1.8-3-.2-1.4-1-2.6-2.2-3.4-.1-.1-.3-.1-.4 0 0 .2 0 .4-.2.5-.1.1-.1.1-.2.2 0 .1.1.2.2.2s.1.1.2.1c.9.6 1.5 1.4 1.6 2.5.2 1.3.8 2.1 1.3 2.7l.7.7s.2.3.2.5c0 .1 0 .1-.1.2s-.4.3-.8.5c-.2.1-.3.2-.5.4s-.3.4-.4.6c-.1.5-.3.9-.5 1.3-.2-.2-.4-.4-.5-.7s-.4-.4-.7-.3-.4.4-.3.7c.2.5.5.9 1 1.2-1 1.4-2.6 2.2-4.4 2.3-.1 0-.1 0-.2 0s-.2 0-.3.1c0 .4.1.7.3.9-.1 0 0 0 0 0z" fill="#004e6e"/><path d="m66.3 61.1v-.7c0-.2-.2-.4-.4-.4s-.4.2-.4.4v.7c0 .2.2.4.4.4s.4-.2.4-.4z" fill="#004e6e"/><path d="m75.9 74v-.5c.3-1.2.3-2.4 0-3.5v-.5-.5-5.7c-.1-.6-.4-1-.9-1.2-.3-.1-.5-.1-.8.1-1.6 1.1-2.7 9.5-2.9 11.1v.1l-7.6 12.6s-.3-.6-.9-1.5c-.6-1-1.4-2.4-2.4-3.8-.1-.1-.2-.3-.3-.4-.2-.3-.4-.6-.6-.9 0 0 0 0 0-.1-.1-.1-.1-.2-.2-.3-.2-.3-.4-.5-.6-.8-.3 0-.6.1-.9.1-1.1 0-2.2-.3-3-.8s-1.5-1.3-2-2.2c-.4-.6-.7-1.3-.9-2-1.6.7-2.3 2.1-2.5 3.5-.4 2.9.9 6.2.9 6.2l11.9 9.2 2 1.6c7.2-.6 11.2-16.2 11.7-18.5.1-.2.1-.3.1-.3h-.1v-.4zm-.5-2.2v1.7c-.1.2-.1.5-.2.7l-2.7-1.2c.4-4 1.6-9.3 2.3-9.9.5.3.4 2.2.3 3.3-.1 1-.1 2 .1 2.7.1.3.2.6.3 1z" fill="#004e6e"/><path d="m245.6 143.8.7 1.4 1.7-6.8-1.1.1z" fill="#004e6e"/><path d="m241.7 156.5-8.8-1 2.9-15.1-.3-.4-.6.1-3 15.8c0 .1 0 .3.1.4s.2.2.3.2l7.6.9 2 .2c0-.1-.1-.1-.1-.2-.1-.4-.1-.6-.1-.9z" fill="#004e6e"/><path d="m272.5 144.7s-.2-.3-.6-1c-1.3-2.2-4.5-7.8-7.4-13.9-1.2-2.6-2.4-5.3-3.3-7.9h-1c.1.2.1.4.2.5 3.4 9.3 10 20.5 11.2 22.5l-6.1 9c-.1-.1-.1-.1-.2-.2-1.2-1.8-4.4-6.5-7.5-11.5-3-4.9-6-10.1-7.2-13.4l1.7-6.5h-1.1l-3 11.8.6 1.7 1.4-5.6c1.7 3.9 5 9.5 8.1 14.5 3.5 5.6 6.8 10.2 6.8 10.2.1.1.2.2.4.2s.3-.1.4-.2l6.7-9.8c0-.1 0-.3-.1-.4z" fill="#004e6e"/><path d="m243.4 152.4-.3 1.1c.2-.3.3-.7.3-1.1z" fill="#004e6e"/><path d="m254.7 86.2c0-2.9-.5-6.3-1.2-11.2 0-.3-.3-.5-.6-.4-.2 0-.4.3-.4.5.7 4.9 1.2 8.3 1.2 11.1 0 3.6-.8 6.2-3.3 10.1-1.8 2.7-3.8 5.2-6 7.5l.6.8c2.2-2.4 4.3-4.9 6.2-7.6 2.6-4.1 3.5-7 3.5-10.8z" fill="#004e6e"/><path d="m246 86.4c0-.7 0-1.7 0-2.7 0-2 0-4.1 0-4.1 0-.3-.2-.5-.5-.5s-.5.2-.5.5v4.1 2.7c0 .3.2.5.5.5s.5-.2.5-.5z" fill="#004e6e"/><path d="m248 87.9c0-.3-.3-.5-.6-.4l-3.6.5c-.3 0-.5.3-.4.6 0 .3.3.5.6.4l3.6-.5c.3 0 .5-.3.4-.6z" fill="#004e6e"/><path d="m242.2 89.8c-.2.3-.1.6.2.7l2 .9c.2.1.5 0 .7-.2.1-.2 0-.5-.2-.7l-2-.9c-.2-.1-.5 0-.7.2z" fill="#004e6e"/><path d="m240.2 47.8c.3-.4.8-.8 1.5-1.1s1.6-.4 2.5-.4c1.2 0 2.4.2 3.5.7s2 1.1 2.5 2c.7 1.2 1 2.6 1 4.1 0 1.7-.4 3.4-.8 4.6-.2.6-.4 1.1-.5 1.5-.1.2-.1.3-.2.4 0 .1-.1.1-.1.1-.1.2 0 .5.2.7.2.1.5 0 .7-.2 0 0 1.7-3.4 1.7-7.1 0-1.5-.3-3.2-1.2-4.6-.7-1.1-1.8-1.9-3-2.4s-2.6-.8-3.8-.8c-1 0-2 .2-2.8.5s-1.5.8-2 1.4c-.2.2-.1.5.1.7s.5.1.7-.1z" fill="#004e6e"/><path d="m233.1 54.4c.3 0 .5-.1.6-.4l.2-1.4 1.3.3c-.1.6-.3 1-.6 1.4-.2.3-.4.5-.5.8-.2.3-.3.6-.3 1v.2c0 .4.3.6.5.8.3.3.7.4 1 .5.1.1.2.1.3.2l.1.1c.2.4.3.7.5 1.1 0 .1 0 .2.1.2 0 .1.1.1.1.2.3.5.6 1 1.1 1.4.7.7 1.7 1.2 3 1.2h.4l.7 2.2.2.7c0 .1.1.2.2.2.1.1.3.1.4.1.2-.1.3-.2.3-.3s0-.2 0-.3v-.1l-.2-.6-.8-2.7c-.1-.2-.3-.4-.5-.4-.3 0-.5.1-.7.1-1 0-1.7-.3-2.3-.9-.3-.3-.5-.6-.7-.9.4-.3.7-.7.9-1.2.1-.3 0-.5-.2-.7-.2-.1-.5 0-.7.3-.1.2-.3.5-.5.7-.1-.2-.2-.4-.3-.7s-.4-.5-.6-.6c-.3-.2-.7-.3-.9-.4-.1-.1-.2-.1-.2-.1v-.1-.1c0-.1 0-.3.2-.5.2-.5 1-1.3 1.2-2.5l6.9 1.7c.3.1.5-.1.6-.4.1-.2-.1-.5-.4-.6l-7-1.8c0-.9.4-1.8 1.2-2.4.1-.1.1-.1.1-.2v-.1c.1.1.2.2.2.3.1.1.1.2.2.3 1 1 2.3 1.7 3.6 2.5 1.3.7 2.4 1.4 3 2.2.7.9 1.1 2 1.1 3.1 0 .3 0 .7-.1 1s.1.5.4.6.5-.1.6-.4c0 0 0 0 0-.1.1-.4.1-.8.1-1.1 0-1.4-.5-2.7-1.3-3.7-.5-.7-1.2-1.2-2.1-1.8-1.2-.8-2.6-1.4-3.7-2.2-.5-.4-1-.8-1.3-1.2s-.5-.9-.5-1.4c0-.3-.2-.5-.5-.5s-.5.3-.5.5c0 .5.1.9.3 1.3-.2-.1-.4-.1-.6.1-.9.7-1.4 1.9-1.5 3l-1.2-.3.2-1.2c0-.3-.1-.5-.4-.6-.3 0-.5.2-.6.4l-.3 1.6v.1.2l-.3 1.7c.1.3.2.5.5.6z" fill="#004e6e"/><path d="m242.1 91.7-3.3 6.5v.1.2c0 .1.1.2.2.3h.1c.2 0 .4 0 .6-.2l.2-.4 3.1-6.1c.1-.2 0-.5-.2-.7-.2-.1-.5 0-.7.3z" fill="#004e6e"/><path d="m218.6 75.3v.7c0 .2.2.4.4.4s.4-.2.4-.4v-.7c0-.2-.2-.4-.4-.4s-.4.2-.4.4z" fill="#004e6e"/><circle cx="102" cy="26.7" fill="#dcdcde" r="2.1"/><circle cx="112.7" cy="26.7" fill="#dcdcde" r="2.1"/><path d="m153.7 45.2h-64.5v79.4h64.5zm-30.7 71c-10.1 0-18.5-8.4-18.5-18.5h18.5l-.4-18.5h.4c10.1 0 18.5 8.4 18.5 18.5s-8.4 18.5-18.5 18.5zm-23.8-23.1c0-10.1 8.4-18.5 18.5-18.5v18.5zm44.5-30.7h-45.6v-8.6h44.5c.6 0 1.1.5 1.1 1.1z" fill="#dcdcde"/><path d="m200.3 45.2h-35.2v33.8h35.2zm-27.8 28v-8.1c0-.3.3-.5.7-.5h7.9v8.6zm12.5 0v-16.9c0-.1.1-.2.2-.2h8.4v17.1z" fill="#dcdcde"/><g fill="#c3c4c7"><path d="m138.1 147.4c.2-.1.4-.2.5-.2l-.5.1s-.1.1 0 .1z"/><path d="m284.9 106.7-9.6.4-4.8.2c-1.6 0-3.2.2-4.8.4-.6.1-1.1.1-1.7.2v.4c6.7-.6 13.7-1.1 20.8-1.3l-.6.2.8-.1c.1 0 .2-.1.2-.2-.1-.1-.2-.2-.3-.2z"/><path d="m214.6 116.3-.1-31.2c-.1-7.9-.1-15.9-.2-23.8-.1-7.7-.2-15.4-.5-23.2-.2 0-.4 0-.6 0-.2 7.7-.4 15.4-.5 23-.1 7.9-.1 15.9-.2 23.8l-.1 32.3v9.6 4.7l-16.9-.1h-11.4-14.5l-14.9.1-29.4.1c-9.8.2-19.6.2-29.4.8v.5c9.8.6 19.6.7 29.4.8l15.6.1h.2 13.6 8.3c-2.7 1.2-5.5 2.6-8.2 3.9-1.4.7-2.9 1.5-4.3 2.2s-2.8 1.5-4.2 2.3c-2.8 1.6-5.6 3.2-8.2 5 0 0 9.2-6 25.9-13.4h1.5l18.5.1h2.5l26.9-.1h1.1v-1.1-6.5-9.1-.5c1.8-.5 3.7-.9 5.6-1.3l.1-.5c-.7.2-1.3.3-2 .5z"/><path d="m46.6 114c-.5 0-.9 0-1.4.1-5.2.4-10.3 1-15.4 2.1-5 1.1-10 2.7-14.7 4.8-.1.1-.1.1.2 0v.1h.1.1c4.8-1.7 9.7-3 14.7-4s10.1-1.6 15.2-1.9h1.2c0-.2 0-.3 0-.5s0-.5 0-.7z"/><path d="m77.7 38.2c-.3 0-.5 0-.8 0-.2 0-.3 0-.5 0-.4 6.5-.4 13.1-.4 19.8v5.3 5.7.5.5c.3 1.1.3 2.4 0 3.5v.5.5.4h.1s0 .1-.1.3v8l.2 25.3v7.1c-3.8-.6-7.6-1.1-11.4-1.4h-.1c-.2 0-.3 0-.5 0v.1c.1.1.1.2.2.3v.1s0 .1.1.1c0 .1.1.2.1.3h.2.3.1c3.5.2 7 .5 10.4.8.2 0 .4 0 .6.1 0 5.9.2 11.9.8 17.8h.2.2c.8-8.5.8-17 .8-25.4l.1-25.3-.3-25.2c0-6.6 0-13.2-.3-19.7z"/><path d="m246.9 58.9c0 .1 0 .1 0 0-.1.4-.3.6-.6.5s-.5-.3-.4-.6.1-.7.1-1c0-1.1-.4-2.2-1.1-3.1-.6-.8-1.7-1.5-3-2.2-1.3-.8-2.6-1.5-3.6-2.5-.1-.1-.1-.2-.2-.3-.1 0-.2-.1-.3-.1 0 .1-.1.1-.1.2-.8.7-1.1 1.5-1.2 2.4l7 1.8c.3.1.5.4.4.6-.1.3-.3.5-.6.4l-6.9-1.7c-.2 1.3-1 2-1.2 2.5-.2.2-.2.4-.2.5v.1.1s.1 0 .2.1c.2.1.6.2.9.4.2.1.5.3.6.6.1.2.2.5.3.7.2-.2.4-.4.5-.7.2-.3.5-.4.7-.3.2.2.3.4.2.7-.2.5-.5.9-.9 1.2.2.3.5.6.7.9.6.6 1.3.9 2.3.9.2 0 .4-.1.7-.1.2 0 .4.2.5.4l.8 2.7 5.7-1.8-1.1-2.8s-.1-.2-.2-.5z"/><path d="m95.6 142.6c-.6-1.7-1.4-3.4-2.4-4.9-1-1.6-2.2-3-3.6-4.2-.2-.2-.5-.2-.7 0-.3.2-.3.6-.1.8 0 .1.1.1.1.2.1.1.1.1.2.2.3.5.6 1 .7 1.5.2.8.4 1.5.5 2.3.2 1.5.4 3.1.5 4.7.1 1.5.2 3 .3 4.5-.1-.5-.2-.9-.4-1.3-.6-2.1-1.4-4.2-2.3-6.2-.9-2.1-2-4-3.2-5.9-1-1.6-2.2-3.1-3.5-4.4-.2-.3-.4-.5-.6-.8l-.1.1s-.1-.1-.1-.1c-.2-.2-.5-.2-.7 0-.3.2-.3.6-.1.8.6.8 1 1.6 1.3 2.5.3 1 .6 1.9.9 2.9.5 2 1 3.9 1.4 5.9.9 3.9 1.7 7.9 2.5 11.9.2.1.2.1.3 0 0 0 .1-.1.2-.1-.2-2.1-.4-4.1-.7-6.1s-.6-4-1-6-.9-4-1.4-6c-.1-.7-.4-1.4-.6-2.1.5.7 1 1.3 1.4 2 1.2 1.8 2.3 3.7 3.2 5.7s1.7 4 2.4 6.1 1.1 4.2 1.3 6.3v.1c0 .1.1.2.2.2s.2-.1.2-.2 0-.1 0-.2h-.1c0-.3 0-.6.1-.8.1-1.2.2-2.4.2-3.8.1-1.7.1-3.3 0-4.9-.1-1.7-.2-3.3-.5-4.9-.1-.5-.2-1-.3-1.6 1.5 1.9 2.8 4 3.6 6.3.6 1.6 1.1 3.3 1.5 5s.6 3.3.5 5.1v.1c0 .1.1.2.2.2s.2-.1.2-.2c.2-1.8.2-3.6-.1-5.4s-.8-3.6-1.4-5.3z"/><path d="m117.7 74.6c-10.1 0-18.5 8.4-18.5 18.5h18.5z"/><path d="m65.1 115.2c-.1 0-.1 0 0 0-.2 0-.3 0-.3 0-.1 0-.1 0-.2 0 0-.1-.1-.2-.1-.3 0 0 0-.1-.1-.1 0 0 0 0 0-.1s-.1-.2-.2-.3c0 0 0 0 0-.1h.5.1l-.1-.3c-.4-.9-.9-1.9-1.5-3-.1-.2-.3-.3-.4-.3 0-2.8-.1-5.5-.3-7.7s-.5-4.1-.9-5.5c.2-1 .5-3 .8-5.4l-12.1-9.1s-1.3-3.3-.9-6.2c-1.1 6.5-1.4 18.1-1.5 20.4-.5 1.4-.7 3.5-1 6.1-.2 2.9-.3 6.5-.3 10.3v.4.6.5 3.3c.1 6.4.4 13.3.7 19.5-.1 0-.1.1-.2.2l-6.7 9c-.1.2-.1.5 0 .6l8.2 8.8c.2.2.4.2.6.1h10c.3 0 .5-.2.5-.4 0 0 .8-7.4 1.5-17.1h.1c.2 0 .4-.1.4-.3l5.4-11.1v-.1c.5-3.3.4-6.1-1.6-10.9 0-.5-.2-1-.4-1.5zm1.2 12.2-4.3 8.8c.5-7 .8-13.2 1-18.6l1.9-.2c1.8 4.3 1.8 6.9 1.4 10zm-3.2-13.7c0-.1 0-.2 0-.3.1.1.1.2.2.3-.1 0-.2 0-.2 0zm1.4 2.8h-.5l-1 .1c0-.3 0-.7 0-1h.2.9c.2.3.3.6.4.9zm-23.1 30.8 6.1-8.1c.4 7.2.8 13.2 1 15.7zm17.9 4.3c-.2 2-.3 3.4-.4 4h-9.4c0-.6-.1-1.9-.3-3.6-.5-6.9-1.5-21.2-1.7-33.6 0-1.1 0-2.2 0-3.3 0-.2 0-.3 0-.5s0-.4 0-.6c0-.1 0-.2 0-.3 0-3.8.1-7.4.3-10.2.2-2.6.5-4.6.9-5.9.1-.2.1-.3.2-.4 0-.1 0-.2 0-.3l11.4.6v.1c.1.2.1.4.2.6.3 1.2.6 3 .7 5 .2 2.4.3 5.2.3 8.3v2.6.6.4c0 .7 0 1.4-.1 2.2-.2 7.7-.8 16.2-1.3 23.3-.2 4.4-.5 8.3-.8 11z"/><path d="m213.5 36.9v-12.4c0-4.5-3.7-8.2-8.2-8.2h-121.2c-4.5 0-8.2 3.7-8.2 8.2v5.3.5 6.7h.6.4.7c9.8-.4 19.6-.4 29.4-.4l37.8-.1 37.8.1c10.3-.1 20.6-.1 30.9.3zm-122.3-8.1c-1.2 0-2.1-.9-2.1-2.1s.9-2.1 2.1-2.1 2.1.9 2.1 2.1-.9 2.1-2.1 2.1zm10.8 0c-1.2 0-2.1-.9-2.1-2.1s.9-2.1 2.1-2.1 2.1.9 2.1 2.1-.9 2.1-2.1 2.1zm10.7 0c-1.2 0-2.1-.9-2.1-2.1s.9-2.1 2.1-2.1 2.1.9 2.1 2.1-.9 2.1-2.1 2.1z"/><path d="m59.3 79c.1.1.1.2.2.3l.1-.2z"/><path d="m64.5 68.5c-.3 0-.6.2-.9.3 0 .3 0 .5.1.8.1.7.1 1.4.1 2 0 2.9-.6 5-1.3 6.3-.4.7-.8 1.1-1.2 1.4-.1 0-.1.1-.2.1-.3.2-.6.3-.8.3-.3 0-.5-.1-.7-.3l.6.9c.1.1.2.3.3.4 1 1.5 1.8 2.8 2.4 3.8.1-2.2 0-4-.4-4.8h-.1c1.3-1.4 2.4-4 2.4-8.1-.1-1-.2-2-.3-3.1z"/><path d="m50.9 103.2c-.1-.2-.4-.3-.7-.2s-.4.4-.2.7l2.9 5.4c.1.2.4.3.7.2.2-.1.3-.4.2-.7z"/><path d="m61.7 59.4c-.4 1.9-.6 3.8-.9 4.9-.3 1.4-.7 2.8-.7 4 0 .6.1 1.2.5 1.6.4.5 1 .7 1.7.8.3 0 .5-.2.5-.5s-.2-.5-.5-.5c-.6 0-.8-.2-1-.4 0 0-.1-.1-.1-.1-.1-.2-.2-.5-.2-.9 0-.9.4-2.3.7-3.8.2-1.2.4-3.1.8-4.9.4-1.7 1-3.4 2-4.3.1-.1.1-.1.2-.2s.2-.3.2-.5c0-.1 0-.1-.1-.2 0-.1-.3-.2-.6 0-1.4 1.2-2.1 3.1-2.5 5z"/><path d="m51.3 69.3c0 1.4.2 2.8.6 4 .2.7.5 1.4.9 2 .5.9 1.2 1.7 2 2.2s1.9.8 3 .8c.3 0 .6 0 .9-.1h.3c.3 0 .5-.3.4-.6 0-.3-.3-.5-.6-.4-.1 0-.1 0-.1 0-.2 0-.4.1-.6.1-.1 0-.1 0-.2 0-1 0-1.8-.2-2.5-.7-1-.6-1.8-1.7-2.3-3.1 0-.1-.1-.3-.1-.4-.4-1.3-.6-2.9-.6-4.4 0-.4 0-.8 0-1.2.1-1.2.3-2.5.5-3.6 0-.2.1-.4.1-.6.1-.3-.1-.5-.4-.6-.2-.1-.4.1-.5.3-.4 1.3-.6 2.6-.7 4-.3-1-.5-2.1-.5-3.2 0-2.5.7-5.2 1.9-7.3s3-3.6 5.2-4.1c.3-.1.6-.1 1-.1 1.6 0 3.3.6 4.4 1 .1 0 .2.1.2.1.3.1.5 0 .6-.3s0-.5-.3-.6c-1-.3-3-1.1-4.9-1.1-.4 0-.8 0-1.2.1-2.5.5-4.5 2.3-5.8 4.5-1.3 2.3-2.1 5.1-2.1 7.8 0 1.8.3 3.6 1 5.2.1.2.2.3.4.3z"/><path d="m58.8 68.7c-.2-.1-.4-.3-.7-.6-.2-.3-.4-.7-.6-1.1s-.3-.9-.4-1.5-.2-1.3-.2-1.9c0-.3-.2-.5-.5-.5-.3.1-.6.4-.6.6 0 1.4.3 2.7.7 3.8.5 1 1.1 1.8 1.9 2.2.3.1.5 0 .7-.3.1-.3 0-.5-.3-.7z"/><path d="m230.3 81.2c-1.5 0-3 .7-4.4 1.7-.2.2-.3.5-.1.7-.1.2.3.2.5.1 1.3-.9 2.7-1.5 3.9-1.5.7 0 1.4.2 1.9.7.1.1.2.4.2.8 0 .6-.3 1.4-.9 2-.1.1-.2.2-.3.2 0 0-.1.1-.1.1-.1.2-.2.4 0 .6s.5.3.7.1c.1-.1.3-.2.4-.3.9-.8 1.3-1.8 1.3-2.7 0-.6-.2-1.1-.5-1.5-.7-.7-1.7-1-2.6-1z"/><path d="m220.8 90.3c.2-.2.1-.5-.1-.7-.6-.5-.9-1.2-.9-1.9 0-.1 0-.3 0-.4.1-.3.2-.5.4-.8.3-.3.9-.6 1.5-.7s1.3-.2 2-.2h.5c.3 0 .6 0 .8.1h.2c.3 0 .5-.2.6-.4 0-.1-.1-.3-.3-.4-.1 0-.1-.1-.2-.1-.5-.1-1-.1-1.7-.1-.4 0-.9 0-1.4.1.2-.4.5-1.2 1-1.9.7-.9 1.7-1.7 3.2-1.7.3 0 .5 0 .8.1.3 0 .5-.1.6-.4s-.1-.6-.4-.6c-.3-.1-.7-.1-1-.1-1 0-1.8.3-2.5.7-.5.3-.9.7-1.2 1.1h.1c.3 0 .5.2.5.5s-.2.5-.5.5-.5 0-.8-.1c-.1.1-.2.2-.2.4-.4.8-.6 1.4-.6 1.4v.3c-.2 0-.3.1-.5.1-.5.2-.9.4-1.2.7-.4.3-.6.8-.7 1.3v.6c0 1 .5 2 1.3 2.7.2.2.5.1.7-.1z"/><path d="m248.2 149.2-1.9-4-.7-1.4-2.4-4.8-7.3.9h-.4l.3.4 7.3 11.1c.2.3.2.6.3.9 0 .4-.1.8-.3 1.1 0 0 0 .1-.1.1-.6.7-1.3 1.8-1.3 2.8 0 .3 0 .5.1.8 0 .1.1.1.1.2.1.1.2.3.3.4s.6-.1 1.2-.6c1-.8 2.6-2.1 3.9-3.3 1.4-1 1.7-3 .9-4.6z"/><path d="m216.9 152.3c-.1.8-.8 1.4-1.6 1.5-1.4.2-3.5.8-3.5 2.5 0 .4 3.6.6 6.4.7 1.8 0 3.5-1.1 4-2.9l4.1-13-7.5.9z"/><path d="m232.3 101.5c0-.2 0-.3 0-.5-.4-5.6-1.6-14.8-5.5-13.3-2.5.9-1.5 9.5-.8 13.8 0 .2.1.3.1.5 0 .2.1.3.1.5.1.9.2 1.4.2 1.4l-1.4 6.1-.4 1.6v.1l-.5 2.4-.1.5-.1.5-.5 2.1 1.1.2c2.4.5 4.8-.9 5.4-3.2l.1-.4.2-.5.1-.5.2-.6 2-7s0-1.3-.2-3.1c0-.3 0-.4 0-.6z"/><path d="m165.1 89.4h35.2v17.7h-35.2z"/><path d="m123 79.2c-.1 0-.3 0-.4 0l.4 18.5h-18.5c0 10.1 8.4 18.5 18.5 18.5s18.5-8.4 18.5-18.5-8.4-18.5-18.5-18.5z"/><path d="m142.6 53.8h-44.5v8.6h45.6v-7.5c0-.6-.5-1.1-1.1-1.1z"/></g></svg>
