<svg viewBox="0 0 1552.71 1296.11" xmlns="http://www.w3.org/2000/svg"><rect fill="#004e6e" height="76.91" rx="1.45" width="43.1" x="461.22" y="442.01"/><path d="m2383.86 1638.12c3.2 20 4.14 39.94 4.38 59.9s-.53 39.94-4.38 59.91a9.05 9.05 0 0 1 -17.78 0c-3.84-20-4.52-39.94-4.38-59.91s1.17-39.94 4.38-59.9a9 9 0 0 1 17.78 0z" fill="#c3c4c7" transform="translate(-1766.27 -1192.95)"/><rect fill="#004e6e" height="76.91" rx="1.45" width="43.1" x="708.56" y="442.01"/><g transform="translate(-1766.27 -1192.95)"><path d="m2321.58 1824.14c7.58 2.67 16.66 4.21 25.73 5.48s18.5 2 27.86 2.32a223.09 223.09 0 0 0 27.73-.92c8.95-1 17.77-2.62 24.45-5.77l1.37-.65a8.86 8.86 0 0 1 10 14.33c-9.45 9.29-20.7 13.34-31.47 16.07a132.08 132.08 0 0 1 -32.64 3.47 133.64 133.64 0 0 1 -32.34-4.25c-10.62-2.89-21.33-7.09-30.8-15.45a8.91 8.91 0 0 1 8.85-15.08z" fill="#004e6e"/><path d="m2440.56 1545.95c7.89-8.65 16.69-11.72 25.15-14a91.36 91.36 0 0 1 25.62-2.41 95 95 0 0 1 25.42 4.29c8.32 2.72 16.73 6.84 23.63 13.87a8.94 8.94 0 0 1 -9.45 14.67l-1.24-.45c-11.31-4.14-25.37-5.6-39.12-5.85-6.9 0-13.85.06-20.54.62a120.2 120.2 0 0 0 -17.6 2.51l-3.52.85a8.57 8.57 0 0 1 -8.35-14.1z" fill="#004e6e"/><path d="m2290.31 1559.19a120.43 120.43 0 0 0 -17.6-2.51c-6.69-.56-13.64-.66-20.53-.62-13.76.25-27.82 1.7-39.13 5.85l-1.22.45a8.94 8.94 0 0 1 -9.46-14.66c6.9-7 15.3-11.15 23.63-13.87a95 95 0 0 1 25.42-4.29 91.33 91.33 0 0 1 25.62 2.41c8.46 2.28 17.27 5.35 25.15 14a8.57 8.57 0 0 1 -8.3 14.11z" fill="#004e6e"/><path d="m2499.66 1812.22c3.2 6.41 4.13 12.82 4.38 19.23s-.54 12.82-4.38 19.23a10.37 10.37 0 0 1 -14.22 3.57 10.48 10.48 0 0 1 -3.56-3.57c-3.84-6.41-4.52-12.82-4.38-19.23s1.18-12.82 4.38-19.23a9.94 9.94 0 0 1 17.78 0z" fill="#c3c4c7"/><path d="m1766.27 2489.05c0-174.32 267.93-327.67 340.08-366.27 0 0 136.1 106.08 260.19 106.08s226.57-98.07 226.57-98.07 285.81 94.07 381.89 358.27h-1208.73" fill="#187aa2"/><path d="m3293.58 1349.9c-17.28-39.09-44-75-78.78-101.47-69.52-53.45-165.3-69.14-249.12-43.33-84.22 25.29-154.34 92.52-183.16 175.93-29.84 82.19-16.77 177.87 32.59 249.68a94.78 94.78 0 0 1 1.58 13.34 109.44 109.44 0 0 1 -.52 16.88 140 140 0 0 1 -7.83 33.35 166 166 0 0 1 -16 31c-3 5-6.95 9.53-10.35 14.35-3.78 4.58-7.84 9-11.73 13.47l-19.58 22.71 29.1 2c58.25 4 118.86.95 175.78-15.76 14.06-3.81 27.94-8.37 40-10.24a55.78 55.78 0 0 1 8.49-.65l3.84.24c1.39.09 3.61.47 5.39.66q11.27 1.38 22.62 1.85c30.19 1.07 60.64-2.24 89.68-10.76 58.16-16.36 110.89-53 144.08-102.9 33.82-49.56 49.17-108.75 49.31-166.72-.23-42.02-7.97-84.46-25.39-123.63zm-39.77 278.34c-36.17 41.83-82.9 74.05-135.67 88.65a255.64 255.64 0 0 1 -81 9q-10.22-.52-20.35-1.84l-5.31-.69-6.92-.49a83.51 83.51 0 0 0 -13 .88c-16.37 2.56-29.88 7.21-43.58 10.78-44.57 12.84-90.65 16.8-137.12 15.52a100 100 0 0 0 6-8.56 196.16 196.16 0 0 0 19.17-36.7 170.21 170.21 0 0 0 9.81-40.8c1.33-14.39 1.52-27.59-2.36-43.78l-.48-2-1.55-2.25c-44.7-64.81-55.53-150.69-30-224.83 25-74.46 87.23-135.36 162.6-158.69a254.43 254.43 0 0 1 173.66 7.95 285.38 285.38 0 0 1 51.65 28.86c32.09 23 60.78 52.11 80.89 87.37a232.89 232.89 0 0 1 32 116.91c.41 57.11-22.61 112.62-58.44 154.71z" fill="#187aa2"/></g><circle cx="1172.23" cy="298.46" fill="#c3c4c7" r="23.93"/><circle cx="1294.38" cy="298.46" fill="#c3c4c7" r="23.93"/><circle cx="1416.53" cy="298.46" fill="#c3c4c7" r="23.93"/><path d="m2505.33 1922.54a44.64 44.64 0 0 1 8.21 17.08 58.17 58.17 0 0 1 1.72 17.08 76.53 76.53 0 0 1 -2.49 17.08 54.74 54.74 0 0 1 -7.44 17.08 4 4 0 0 1 -5.59 1.08 4.09 4.09 0 0 1 -1.08-1.08 54.57 54.57 0 0 1 -7.43-17.08 76.55 76.55 0 0 1 -2.5-17.08 58 58 0 0 1 1.73-17.08 44.62 44.62 0 0 1 8.21-17.08 4.26 4.26 0 0 1 6-.69 4.46 4.46 0 0 1 .66.69z" fill="#8e9196" transform="translate(-1766.27 -1192.95)"/><rect fill="#004e6e" height="76.91" rx="1.45" width="43.1" x="461.22" y="442.01"/><path d="m2383.86 1638.12c3.2 20 4.14 39.94 4.38 59.9s-.53 39.94-4.38 59.91a9.05 9.05 0 0 1 -17.78 0c-3.84-20-4.52-39.94-4.38-59.91s1.17-39.94 4.38-59.9a9 9 0 0 1 17.78 0z" fill="#c3c4c7" transform="translate(-1766.27 -1192.95)"/><rect fill="#004e6e" height="76.91" rx="1.45" width="43.1" x="708.56" y="442.01"/><path d="m2321.58 1824.14c7.58 2.67 16.66 4.21 25.73 5.48s18.5 2 27.86 2.32a223.09 223.09 0 0 0 27.73-.92c8.95-1 17.77-2.62 24.45-5.77l1.37-.65a8.86 8.86 0 0 1 10 14.33c-9.45 9.29-20.7 13.34-31.47 16.07a132.08 132.08 0 0 1 -32.64 3.47 133.64 133.64 0 0 1 -32.34-4.25c-10.62-2.89-21.33-7.09-30.8-15.45a8.91 8.91 0 0 1 8.85-15.08z" fill="#004e6e" transform="translate(-1766.27 -1192.95)"/><path d="m2440.56 1545.95c7.89-8.65 16.69-11.72 25.15-14a91.36 91.36 0 0 1 25.62-2.41 95 95 0 0 1 25.42 4.29c8.32 2.72 16.73 6.84 23.63 13.87a8.94 8.94 0 0 1 -9.45 14.67l-1.24-.45c-11.31-4.14-25.37-5.6-39.12-5.85-6.9 0-13.85.06-20.54.62a120.2 120.2 0 0 0 -17.6 2.51l-3.52.85a8.57 8.57 0 0 1 -8.35-14.1z" fill="#004e6e" transform="translate(-1766.27 -1192.95)"/><path d="m2290.31 1559.19a120.43 120.43 0 0 0 -17.6-2.51c-6.69-.56-13.64-.66-20.53-.62-13.76.25-27.82 1.7-39.13 5.85l-1.22.45a8.94 8.94 0 0 1 -9.46-14.66c6.9-7 15.3-11.15 23.63-13.87a95 95 0 0 1 25.42-4.29 91.33 91.33 0 0 1 25.62 2.41c8.46 2.28 17.27 5.35 25.15 14a8.57 8.57 0 0 1 -8.3 14.11z" fill="#004e6e" transform="translate(-1766.27 -1192.95)"/><path d="m2499.66 1812.22c3.2 6.41 4.13 12.82 4.38 19.23s-.54 12.82-4.38 19.23a10.37 10.37 0 0 1 -14.22 3.57 10.48 10.48 0 0 1 -3.56-3.57c-3.84-6.41-4.52-12.82-4.38-19.23s1.18-12.82 4.38-19.23a9.94 9.94 0 0 1 17.78 0z" fill="#c3c4c7" transform="translate(-1766.27 -1192.95)"/><path d="m1766.27 2489.05c0-174.32 267.93-327.67 340.08-366.27 0 0 136.1 106.08 260.19 106.08s226.57-98.07 226.57-98.07 285.81 94.07 381.89 358.27h-1208.73" fill="#187aa2" transform="translate(-1766.27 -1192.95)"/><circle cx="1172.23" cy="298.46" fill="#c3c4c7" r="23.93"/><circle cx="1294.38" cy="298.46" fill="#c3c4c7" r="23.93"/><circle cx="1416.53" cy="298.46" fill="#c3c4c7" r="23.93"/><path d="m2408.75 2140.42-6.19-18.73a75.45 75.45 0 0 0 -9.58-20.41c-8.5-12.92-22.26-23.11-36.27-28-12.36-4.73-24.65-9.82-37.16-14l-75.15-24.3-75.51-23.2-.4-.13a12.32 12.32 0 0 0 -14.24 5.57c-5 8.58-9.64 17.38-14.48 26.05s-9.27 17.61-13.55 26.63a8.95 8.95 0 0 0 15.13 9.34c6.14-7.87 12-15.92 17.73-24.05 3.7-5.44 7.47-10.83 11.18-16.26l65.85 21.33 75.23 23.15 37 12.76a49.77 49.77 0 0 1 26 18.19c3.35 4.57 5.22 8.53 7.69 14.87l7.37 18.29 14.89 36.53a8.9 8.9 0 0 0 16.7-6.11z" fill="#c3c4c7" transform="translate(-1766.27 -1192.95)"/><path d="m2587.42 2081c-4.15-10.91-8.45-21.76-13.25-32.35s-9.33-21.32-14.39-31.78a12.8 12.8 0 0 0 -16.06-6.36l-.51.2c-22.64 8.7-44.8 18.55-67.05 28.15-11.14 4.79-22 10.16-33.05 15.21s-21.85 10.59-32.61 16.27a8.93 8.93 0 0 0 6.83 16.42q17.42-5.45 34.53-11.66c11.36-4.26 22.84-8.21 34.09-12.73 18.88-7.57 37.83-15 56.51-23 3.63 6.58 7.34 13.12 11 19.67 5.63 10.17 11.77 20.1 18 30a8.94 8.94 0 0 0 15.9-8z" fill="#c3c4c7" transform="translate(-1766.27 -1192.95)"/><path d="m2618.25 1453c-8.25-42.71-24.12-89.6-54.52-120.3-20.42-28.19-45.71-52.86-75-71.65-36-23.34-78.46-36.89-121.55-37.2a214.43 214.43 0 0 0 -63.77 9.55 221.79 221.79 0 0 0 -58.11 28.61c-25.09 17.18-46.47 39.23-64.1 63.91-21.93 24.34-36.36 57.15-45.85 89.84a476.19 476.19 0 0 0 -18 64.86c-8.75 42.08-12.75 84.87-13.53 127.53-.55 21.34 0 42.65 1 63.91 1.11 21.35 2.85 43 6.82 64.26 7.28 42.6 21.48 84.68 44.12 122.13s54.48 69.4 92.16 90.77a262.19 262.19 0 0 0 122.93 34.25c21.7.53 43.05-2.83 63.82-8.24a198 198 0 0 0 54-23.39q-.08 2.42 0 4.84a76.55 76.55 0 0 0 2.5 17.08 54.58 54.58 0 0 0 7.43 17.08 4.09 4.09 0 0 0 1.08 1.08 4 4 0 0 0 5.59-1.08 54.74 54.74 0 0 0 7.44-17.08 76.53 76.53 0 0 0 2.49-17.08 58.18 58.18 0 0 0 -1.72-17.08c-.42-1.58-.9-3.15-1.46-4.73 27.43-23.21 48.2-53.72 63.31-85.64 18.47-38.94 29.83-80.44 38-122.09s12.69-83.88 15.82-126c3.91-49.08 1.01-99.77-10.9-148.14zm-6.78 146.73c-3.34 41.58-8.2 83-16.24 123.65-8.21 40.52-19.37 80.55-37.16 117-17.83 36.24-42.73 69-75.72 89.85-32.45 21.29-72.5 30.27-110.89 29.56-38.87-1.44-77.6-13.11-111.26-32.87a236.39 236.39 0 0 1 -82.45-82.53c-20.32-34.09-33.32-72.88-39.91-112.95-7.14-39.84-8.24-81.56-7.93-122.87a719.05 719.05 0 0 1 4.53-72.6c31-19.05 70.26-82.83 93.31-142.46 7.57-19.58 29-32.92 53.44-32.92h181.81c24.79 0 46.65 13.71 53.74 33.75 22.32 63.07 64 136.68 95.94 155.05a493.67 493.67 0 0 1 -1.2 50.36z" fill="#8e9196" transform="translate(-1766.27 -1192.95)"/></svg>
