<svg id="ThankYou" xmlns="http://www.w3.org/2000/svg" viewBox="0 0 1686.58 1720"><title>thankYou</title><line x1="138.6" y1="550" x2="44.88" y2="466.38" style="fill:#204A69"/><path d="M3736.41,566.44c-15.85,2-23-5.68-31.52-11.84s-16.76-12.66-24.58-19.61-15.16-14.45-22.28-22.2-15.58-14-15.34-30l5-5.57c15.86-2.06,23,5.68,31.52,11.84s16.76,12.66,24.58,19.61,15.16,14.46,22.28,22.2,15.57,14,15.34,30Z" transform="translate(-3600.3 -13.65)" style="fill:#CCCED0"/><path d="M4020.08,472.88l-38.28,26.53a8.27,8.27,0,0,0,4.75,15.06l47.64-.22L4049.78,560a8.27,8.27,0,0,0,15.67-.07L4080.64,514l46.29-.21a8.27,8.27,0,0,0,4.61-15.1l-37.41-25.44,16.07-48.57a8.27,8.27,0,0,0-12.85-9.18l-40.24,30.56-40.51-30.2a8.27,8.27,0,0,0-12.76,9.3Z" transform="translate(-3600.3 -13.65)" style="fill:#fbc239"/><circle cx="712.57" cy="353.32" r="43.97" style="fill:#E1E2E2"/><line x1="1400.4" y1="337.32" x2="1341.01" y2="211.36" style="fill:#fff"/><path d="M4998.17,352.16c-13.14-6.63-17.41-17.45-23.09-27.6s-10.83-20.55-16-30.93c-4.71-10.61-9.52-21.17-13.68-32s-9.85-21-6.6-35.38l5.05-2.39c13.15,6.63,17.41,17.45,23.09,27.6s10.83,20.55,16,30.94c4.71,10.61,9.52,21.17,13.68,32s9.84,21,6.6,35.38Z" transform="translate(-3600.3 -13.65)" style="fill:#CCCED0"/><line x1="1307.73" y1="304.04" x2="1433.68" y2="244.64" style="fill:#fff"/><path d="M4906.83,315.16c6.63-13.14,17.46-17.41,27.6-23.09s20.55-10.83,30.94-16c10.61-4.71,21.17-9.52,32-13.67s21-9.86,35.37-6.6l2.39,5.06c-6.63,13.15-17.46,17.4-27.6,23.09s-20.55,10.83-30.94,16c-10.61,4.71-21.17,9.52-32,13.67s-21,9.84-35.37,6.6Z" transform="translate(-3600.3 -13.65)" style="fill:#CCCED0"/><line x1="956.76" y1="563.53" x2="913.06" y2="470.86" style="fill:#fff"/><path d="M4555.38,578c-9.1-5.15-12.29-13.09-16.42-20.58s-7.9-15.15-11.71-22.8c-3.48-7.8-7-15.56-10.14-23.54s-7.25-15.46-5.43-25.76l3.38-1.59c9.11,5.15,12.29,13.09,16.42,20.58s7.91,15.15,11.71,22.8c3.48,7.8,7,15.57,10.14,23.54s7.25,15.46,5.43,25.76Z" transform="translate(-3600.3 -13.65)" style="fill:#6F93AD"/><line x1="888.58" y1="539.05" x2="981.25" y2="495.35" style="fill:#fff"/><path d="M4488.08,551c5.15-9.1,13.09-12.29,20.58-16.42s15.15-7.91,22.79-11.71c7.8-3.48,15.57-7,23.54-10.14s15.46-7.26,25.77-5.43l1.59,3.37c-5.14,9.11-13.09,12.29-20.57,16.42s-15.16,7.9-22.8,11.71c-7.8,3.48-15.56,7-23.54,10.14s-15.46,7.25-25.76,5.43Z" transform="translate(-3600.3 -13.65)" style="fill:#6F93AD"/><path d="M4767.91,844.13V731.75h-654V844.13h-218v160.13c0,137.62,103,250.6,235.67,268.8,38.15,112.17,135.44,196.75,254.85,216.81v167.21h-94.94c-73,0-95.64,61.78-95.64,61.78H4686c-43.55-73-113.71-61.78-113.71-61.78H4495.4V1489.87c119.41-20.06,216.7-104.64,254.85-216.81,132.71-18.2,235.67-131.19,235.67-268.8V844.13Zm-654,314.26c-63.44-22.45-109-83.06-109-154.13V953.14h109Zm763-154.13c0,71.07-45.56,131.68-109,154.19V953.14h109Z" transform="translate(-3600.3 -13.65)" style="fill:#CCCED0"/><path d="M4495.16,1072.12l19.72,71.26L4453,1103,4391,1143.38l22.86-71.61-65.18-46.22,80-.08,24.3-76.12,24.27,76.07,75.15-.08Z" transform="translate(-3600.3 -13.65)" style="fill:#fff"/><line x1="349.5" y1="1705.16" x2="1351.02" y2="1705.16" style="fill:#fff"/><path d="M3949.8,1708.87c83.46-1.6,166.92-3,250.38-3.59,83.46-1.09,166.92-.78,250.38-1.23,83.46-.3,166.92.41,250.38.73l125.19,1.5,125.19,2.59a9.94,9.94,0,0,1,0,19.89l-125.19,2.59-125.19,1.5c-83.46.32-166.92,1-250.38.73-83.46-.46-166.92-.15-250.38-1.23-83.46-.59-166.92-2-250.38-3.59a9.94,9.94,0,0,1,0-19.89Z" transform="translate(-3600.3 -13.65)" style="fill:#CCCED0"/><path d="M3600.39,207.79c19.66-1.88,39.71,2.89,57.78,10.79,18.26,7.84,34.59,19.32,49.55,32.16,14.81,13.12,28.47,27.54,38.77,45.54s14.24,38.47,17.48,57.13,7,36,18.75,47.68c11.7,12.55,28.22,19.37,46.21,23.73,17.86,4.68,37.86,6.85,56.48,17,18.94,10.13,30.59,30.59,32.55,49.92l-3.56,1.09c-8.59-17.18-20-31-35.71-38.24-15.61-7.58-34.35-10-53.47-14.3-19-4.14-39.7-11.81-54.66-27.25a72,72,0,0,1-16.94-27.38c-3.5-10-5-19.87-6.59-29.32-2.94-18.9-6.31-36.68-14.77-52.29-8.41-15.44-21.1-29.49-34.68-41.82a246.81,246.81,0,0,0-45.21-31.79,164.26,164.26,0,0,0-52.06-18.92Z" transform="translate(-3600.3 -13.65)" style="fill:#46799A"/><line x1="1113.89" y1="448.96" x2="1164.41" y2="333.96" style="fill:#44d0a3"/><path d="M4710.78,461.11c-6.85-14.44-1.72-23.62,1.5-33.64s6.85-19.85,11-29.45,9.05-18.89,14.21-28.05,8.48-19.14,23.76-23.86l6.82,3c6.87,14.45,1.71,23.62-1.5,33.64s-6.85,19.85-11,29.44-9.05,18.88-14.22,28.05-8.48,19.14-23.76,23.86Z" transform="translate(-3600.3 -13.65)" style="fill:#7bdebf"/><path d="M4198,276.08l23.46,16.26a5.07,5.07,0,0,1-2.91,9.23l-29.19-.13-9.56,28a5.07,5.07,0,0,1-9.6,0l-9.3-28.11-28.37-.13a5.07,5.07,0,0,1-2.83-9.25l22.93-15.59-9.85-29.77a5.07,5.07,0,0,1,7.87-5.63l24.66,18.73,24.83-18.51a5.07,5.07,0,0,1,7.82,5.7Z" transform="translate(-3600.3 -13.65)" style="fill:#fcd56e"/><circle cx="1528.62" cy="527.57" r="51.51" style="fill:#d9a2dc"/><path d="M5286.88,211.52a164.26,164.26,0,0,0-52.06,18.92,246.81,246.81,0,0,0-45.21,31.79c-13.58,12.34-26.27,26.39-34.68,41.82-8.46,15.61-11.83,33.39-14.77,52.29-1.59,9.45-3.1,19.36-6.59,29.32A72,72,0,0,1,5116.63,413c-15,15.44-35.69,23.11-54.67,27.25-19.11,4.31-37.86,6.72-53.46,14.3-15.75,7.19-27.11,21.06-35.71,38.24l-3.56-1.09c2-19.33,13.6-39.79,32.55-49.92,18.62-10.13,38.61-12.31,56.48-17,18-4.36,34.51-11.18,46.21-23.73,11.75-11.72,15.4-28.91,18.75-47.68s7.3-39.09,17.49-57.13,24-32.42,38.76-45.54c15-12.84,31.3-24.32,49.56-32.16,18.08-7.9,38.12-12.68,57.78-10.79Z" transform="translate(-3600.3 -13.65)" style="fill:#c879cc"/><path d="M4407.22,300.35c5.28-25.93,2-51.66-5-76.35-3.83-12.12-9.05-24.24-16.18-33.73s-17.1-16.92-28.31-24.48c-5.55-3.86-11.52-7.87-17-13.27a53.42,53.42,0,0,1-13.06-19.95c-5.67-14.78-4.3-31-1-44.47,3.16-13.62,7.24-26.1,7.24-37.77.26-11.55-4.32-22.51-11.94-33.91l2.51-2.76c12.5,6.25,22.93,20.26,23.86,36,1.06,15.47-3.54,29.07-5.71,41.73-2.37,12.67-2.91,24.53,1.3,35.14,3.6,10.15,12.77,17.24,23.83,25,10.89,7.63,23.17,16.48,31.84,28.85s13.65,25.66,17.56,39.26c3.66,13.61,6.09,27.66,5.38,41.87-.47,14.1-4,28.55-11.86,40.34Z" transform="translate(-3600.3 -13.65)" style="fill:#E1E2E2"/><path d="M4122,731.75c12.67,79,10.93,158,12.29,237l2.06,235.49A341.53,341.53,0,0,0,4167.49,1312c16.1,33.89,37.88,65.09,65.61,90.15a254.15,254.15,0,0,0,45,33.29c7.9,5.06,16.53,8.87,24.78,13.42,8.68,3.67,17.15,7.87,26.1,11,35.4,13.74,73.06,22.58,112,29.8l-.28,7.45a307,307,0,0,1-120.69-11.31,271.23,271.23,0,0,1-57-24.26,285,285,0,0,1-51-36c-31.56-27.37-56.9-61.6-75.19-98.81a375.11,375.11,0,0,1-35.35-118.8l-.79-8.67-.05-7.58v-14.84l.14-29.68.28-59.37,1.14-118.73c1.35-79.14-.39-158.32,12.29-237.42Z" transform="translate(-3600.3 -13.65)" style="fill:#204A69"/></svg>