<svg viewBox="0 0 250 119" xmlns="http://www.w3.org/2000/svg"><path d="m249.1 117c-4.8-.1-9.8-.2-15.1-.3v1.5c5.3-.1 10.4-.2 15.1-.3.3 0 .4-.2.5-.5 0-.2-.2-.4-.5-.4z" fill="#f6f7f7"/><path d="m191.8 84v-61.1c-.6.1-1.2.1-1.8.1v71.6c.5-.4 1.1-.5 1.1-.5 0-3.4.4-8.5.7-10.1zm-138.7 25.3-.1 7.7c.6 0 1.2.1 1.8.1l.2-10.5c-.5 1-1.1 2-1.9 2.7zm2-17.6.2-15c-.5.4-1.1.6-1.8.7l-.2 11.8c.9.5 1.5 1.5 1.8 2.5zm.7-42.4.1-27.1h-1.8l-.1 32.8.6 1.1z" fill="#8e9196"/><path d="m66.3 37.9v12.1c6.3 5.5 5.8 12.5 0 19.8v47.3h64.4v-79.2z" fill="#dcdcde"/><path d="m142.1 37.9h35.1v33.8h-35.1z" fill="#2fb41f"/><path d="m142.1 82h35.1v17.6h-35.1zm-87.8-58.4v-13.9c0-5.3 3.6-9.6 8-9.6l121.3-.1c4.5 0 8.1 4.2 8.1 9.6l.1 13.4z" fill="#c3c4c7"/><path d="m194.6 23.3c-12 .9-24 .9-35.9.9l-35.9.2-35.9-.2c-12-.1-24 0-35.9-.9v-.6c12-.9 24-.9 35.9-.9l35.9-.2 35.9.2c12 .1 24 0 35.9.9z" fill="#004e6e"/><path d="m100.1 90.2h-18.5c0 10.1 8.3 18.5 18.5 18.5 10.1 0 18.5-8.3 18.5-18.5s-8.3-18.5-18.5-18.5h-.4z" fill="#2fb41f"/><path d="m94.7 85.7v-18.5c-10.1 0-18.5 8.3-18.5 18.5zm63.4-19.9h-8.6v-8.1c0-.3.3-.5.7-.5h7.9zm12.4 0h-8.6v-16.9c0-.1.1-.2.2-.2h8.4z" fill="#fff"/><g fill="#c3c4c7"><path d="m238.8 69.9c1.8-.2 3.5-.3 5.3-.4s3.5-.1 5.3-.1l-.6.7c-.4-2-1.1-3.9-2-5.7-.9-1.7-2.4-3.2-4.2-3.3s-3.5 1.3-4.7 2.8c-1.3 1.5-2.3 3.3-3.1 5.2-1.7 3.7-2.8 7.7-3.7 11.7s-1.5 8.1-2 12.2c0 .1-.1.2-.2.2s-.2-.1-.2-.2c.3-4.1.8-8.3 1.5-12.4.8-4.1 1.9-8.2 3.5-12 .9-1.9 1.9-3.8 3.2-5.5.7-.8 1.5-1.6 2.4-2.2s2.1-1 3.3-1 2.3.6 3.2 1.3 1.5 1.6 2.1 2.6c1.1 1.9 1.7 4 2.1 6 .1.3-.1.6-.5.7h-.1c-1.8 0-3.5 0-5.3-.1s-3.5-.2-5.3-.5c-.1.1-.1 0-.1 0zm-2.8-10c-5.7.3-11.4.4-17.1.4h-12.8c-.7 0-1.5-.1-2 .1-.5.1-1.1.5-1.6.9-2.1 1.7-3.5 4.2-4.8 6.6-1.3 2.5-2.3 5.1-3.2 7.8-1.7 5.4-2.8 10.9-3 16.6 0 .1-.1.2-.2.2s-.2-.1-.2-.2c-.2-5.7.8-11.4 2.4-16.9.8-2.7 1.9-5.4 3.2-8 .7-1.3 1.4-2.6 2.2-3.8s1.7-2.4 2.9-3.3c.6-.5 1.3-.9 2.1-1.1.4-.1.9-.1 1.2-.1h13.9c5.7.1 11.4.1 17 .4.1 0 .1.1.1.1 0 .3 0 .3-.1.3z"/><path d="m225.6 70.7c-1.6.3-3.2.4-4.8.4-1.6.1-3.2.1-4.8.1-3.2-.1-6.4 0-9.7-.4-.1 0-.2-.1-.2-.2s.1-.2.2-.2c3.2-.4 6.4-.3 9.7-.4 1.6 0 3.2 0 4.8.1s3.2.2 4.8.4c.1 0 .1 0 0 .2.1 0 .1 0 0 0zm-3.5 8.2c-.8.3-1.6.4-2.5.4-.8.1-1.6.1-2.5.1-.8 0-1.6-.1-2.5-.1-.8-.1-1.6-.1-2.5-.3-.1 0-.2-.2-.2-.3s.1-.2.2-.2c.8-.2 1.6-.3 2.5-.3.8 0 1.6-.1 2.5-.1.8 0 1.6 0 2.5.1.8.1 1.6.2 2.5.4 0 .1.1.2 0 .3zm13.5 3.6c-.4-.6-1.1-.7-1.5-.7-.5 0-.9.1-1.4.2 0 0-.1 0-.1.1s0 .1.1.1c.4.2.9.3 1.3.4s.7.3.8.5.1.6.1 1-.1.8-.2 1.3c-.2 1.7-.4 3.5-.6 5.3-.1.6-.1 1.3-.2 1.9h-27.1c-3.1 0-6-.1-9.2.1-6.2.4-12.2 3.3-16.3 8-2.1 2.3-3.6 5-4.6 8-.3.7-.5 1.5-.6 2.2-.2.7-.3 1.5-.4 2.3-.1.4-.1.8-.2 1.1l-.1 1.1-.1 1.1c0 .4 0 .8.1 1.2h.1c9.6.2 19.3.3 29.1.4s19.6.1 29.4.1c.3 0 .6-.3.6-.6v-22.8c.2-1.4.4-2.8.5-4.2.2-1.7.5-3.5.7-5.2.1-.4.1-.9.1-1.4.1-.4.1-1-.3-1.5zm-59.9 35c.1-.4.1-.8.1-1.1l.1-1.1.1-1.1c0-.4.1-.7.2-1.1.1-.7.2-1.5.5-2.2.2-.7.4-1.5.7-2.1 1-2.8 2.6-5.4 4.6-7.6 4-4.4 9.8-7.2 15.7-7.5 6-.1 12.1 0 18.2 0h17.6v23.3c-9.5 0-19 0-28.5.1-9.6.1-19.4.3-29.3.4z"/><path d="m181.4 108.1c3.6-.3 7.3-.4 10.9-.4l10.9-.1c7.3.1 14.5 0 21.8.4.1 0 .2.1.2.2s-.1.2-.2.2c-7.3.4-14.5.3-21.8.4l-10.9-.1c-3.6-.1-7.3-.1-10.9-.4-.1 0-.1-.1-.1-.1s0-.1.1-.1zm-146-38.8c2-1.6 3.4-3.9 4.1-6.3.7-2.5.9-5 .6-7.6-.5-5.1-2.4-10-4.9-14.5-2.6-4.4-6-8.3-10.1-11.3-2.1-1.5-4.3-2.8-6.7-3.6s-5-1.1-7.3-.3c-2.3.7-4.3 2.5-5.6 4.6-1.2 2.1-1.4 4.7-1.2 7.2.5 5.1 2.5 9.9 4.9 14.4s5.4 8.8 8.9 12.5c1.8 1.9 3.7 3.6 5.8 5 1.1.7 2.2 1.2 3.4 1.5s2.5.3 3.6-.3c.1-.1.2 0 .3.1s0 .2-.1.3c-1.2.7-2.6.7-3.9.4s-2.5-.9-3.6-1.5c-2.3-1.4-4.2-3.1-6-5-3.6-3.6-6.6-7.9-9.1-12.5-1.3-2.3-2.3-4.7-3.3-7.1-.9-2.5-1.6-5-1.9-7.6-.2-2.6-.1-5.4 1.3-7.8 1.4-2.3 3.5-4.3 6.1-5.1s5.4-.5 8 .4c2.5.9 4.8 2.2 7 3.8 4.2 3.1 7.8 7.1 10.4 11.7 1.2 2.3 2.3 4.7 3.1 7.2s1.4 5.1 1.6 7.7 0 5.3-.8 7.8-2.4 4.8-4.5 6.3h-.1c-.1-.3 0-.4 0-.4zm35.1-11.3c-.2-2.2-1-4.4-2.4-6.2-.7-.9-1.5-1.7-2.5-2.3s-2.1-1-3.2-1.2c-2.2-.4-4.5-.2-6.6.5-.2.1-.3.2-.3.4l-.9 6.9-1.6-5.8c0-.1-.1-.1-.1-.2-.2-.2-.5-.2-.7 0-3.6 3.2-6.4 7.4-7.7 12-.7 2.3-1 4.7-.9 7.1s.8 4.8 2.1 6.8c0 0 .1.1.1 0 .1 0 .1-.1 0-.1-1.2-2-1.7-4.4-1.8-6.7s.4-4.7 1.1-6.9c1.4-4.2 3.9-8 7.1-11l2 7.4c.1.2.2.3.4.4.3 0 .5-.2.5-.4l1.2-9c1.9-.5 3.9-.7 5.8-.3 1 .2 2 .5 2.8 1.1.9.5 1.5 1.2 2.2 2.1 1.3 1.6 2.1 3.6 2.2 5.6.2 2-.2 4.1-1 6-1.6 3.8-4.4 7.2-7.8 9.7-1.7 1.3-3.5 2.3-5.5 3s-4.2 1-6.1.2c-.1 0-.2 0-.3.1s0 .2.1.3c2 .9 4.4.7 6.5.1s4-1.7 5.8-2.9c3.5-2.5 6.5-5.9 8.2-10 1-2.2 1.5-4.5 1.3-6.7z"/></g><path d="m42.9 83.6c2.2-10.1 8.9-16.4 16.4-22.7" fill="#fff"/><path d="m42.8 83.6c.3-2.4 1-4.7 2-6.9s2.4-4.2 3.9-6.1c3.1-3.8 6.6-7 10.5-9.8.1-.1.2-.1.3 0s.1.2 0 .3c-3.4 3.3-7 6.5-9.9 10.2-1.5 1.8-2.8 3.8-3.8 5.9-1.1 2.1-1.9 4.3-2.7 6.5 0 .1-.1.1-.1.1z" fill="#c3c4c7"/><path d="m36.2 83.9c.3-26.4-10.2-41-22.8-48.7" fill="#fff"/><path d="m36.1 83.9c-.3-4.7-.6-9.4-1.4-14-.7-4.6-2-9.1-3.8-13.4s-4.2-8.3-7.2-11.9c-3-3.5-6.5-6.6-10.4-9.3-.1-.1-.1-.2-.1-.3.1-.1.2-.1.3-.1 4.1 2.3 7.8 5.4 10.9 9s5.6 7.7 7.5 12.1c1.8 4.4 3.1 9 3.8 13.7s.9 9.4.6 14.1c0 .1-.1.2-.2.1 0 .1 0 .1 0 0z" fill="#c3c4c7"/><path d="m75.2 55v-8.6h44.4c.6 0 1.1.5 1.1 1.1v7.5z" fill="#c3c4c7"/><path d="m175.4 116.2c-20.2-.1-36.1-.1-56.4-.2l-56 .1c-5.6.1-11.8.1-18.3.2 0 .1-.1.2-.3.3-1.4.3-2.5 1.1-3.9 1-.5 0-1-.1-1.5-.1-1.6 0-3-.8-4.6-.8-.2 0-.3-.1-.4-.2-11.9.1-23.9.3-33.9.7-.1 0-.2.1-.2.2s.1.2.2.2c18.7.7 44.2.8 62.8.9l56 .2c20.2-.1 36.2 0 56.4-.1 0-.8.1-1.6.1-2.4z" fill="#f6f7f7"/><path d="m56.9 90.3c-.7 0-1.4-.1-2-.1l-1.9-6.6c-.1-.3-.4-.5-.7-.5l-13-.1h-12.9c-.3 0-.7.2-.7.6l-1.9 6.7c-.4 0-.9.1-1.3.1-.1 0-.1 0-.1.1s0 .1.1.1c.4 0 .8.1 1.2.1l-1.7 6v.1c-.6 5.2.9 10.6 4.1 14.6 1.6 2 3.7 3.7 6 4.8s4.9 1.7 7.4 1.6v.1c2.6.1 5.1-.5 7.4-1.7 2.3-1.1 4.3-2.8 5.9-4.9 1.6-2 2.8-4.4 3.5-6.9s.9-5.1.6-7.7v-.1l-1.7-5.9c.6 0 1.3-.1 1.9-.1.1 0 .2-.1.2-.2-.2 0-.3-.1-.4-.1zm-30-5.7h12.4l12.4-.1 1.6 5.5c-4.6-.2-9.1-.1-13.7-.2l-8.6.2c-1.9.1-3.8.1-5.7.2zm28.4 12.4c.6 4.8-.7 9.8-3.6 13.7-1.5 2-3.3 3.6-5.5 4.8-2.1 1.2-4.6 1.8-7 1.9v.1c-2.5-.1-4.9-.8-7.1-2-2.1-1.2-4-2.9-5.4-4.8-1.5-2-2.5-4.2-3.1-6.5s-.7-4.8-.5-7.1l1.9-6.3c2 .1 3.9.2 5.9.2l8.7.1c4.6-.1 9.3 0 13.9-.2z" fill="#c3c4c7"/></svg>
