<svg viewBox="0 0 1454.44 1201.93" xmlns="http://www.w3.org/2000/svg"><path d="m714.25 1174.38c61.49-3.34 123-4 184.46-4.88l92.23-.64 92.23-.11 184.46.93c61.49.62 123 1.32 184.46 3.48a2.42 2.42 0 0 1 0 4.83c-61.49 2.17-123 2.86-184.46 3.48l-184.46.93-92.23-.11-92.23-.64c-61.49-.86-123-1.54-184.46-4.88a1.21 1.21 0 0 1 0-2.42z" fill="#f6f7f7"/><path d="m444.59 187.67h770.06v575.4h-770.06z" fill="#dcdcde"/><path d="m884.48 874.2-19.5 167.92h-420.39v-243.8h777.38l-1.28 74.68z" fill="#c3c4c7"/><path d="m890.39 356.92h-361v-54.76h354.82a6.18 6.18 0 0 1 6.18 6.18zm-100.12 99.33h-260.92v-51.38h254.74a6.18 6.18 0 0 1 6.18 6.18z" fill="#fff"/><path d="m728.53 641.36h-202.82v-57h196.64a6.18 6.18 0 0 1 6.18 6.18z" fill="#187aa2"/><path d="m293.3 312.35h-137.65v-38.7h131.47a6.18 6.18 0 0 1 6.18 6.18z" fill="#c3c4c7"/><path d="m870.17 1036.55-180.71.24-267.61 1.22-267.59 2.09v4l267.59 2.15 267.59 1.22 178.32.24a57.85 57.85 0 0 0 2.41-11.16zm350.14-967.81a76.33 76.33 0 0 0 -72-68.63c-8.93-.2-16.8-.06-25.25-.1h-972.76c-8.45 0-16.32-.1-25.25.1a76.34 76.34 0 0 0 -72 68.63 129.63 129.63 0 0 0 -.38 13.06v62.34l.18 99.8.82 399.1c.3 133 .3 266.06 2.84 399.09h8.06c2-133 1.44-266.06 1.19-399.09l-.82-399.09-.09-49.7h1143.76v680.55c4 .07 8.06.17 12.08.19v-793.19a129.46 129.46 0 0 0 -.38-13.06z" fill="#187aa2"/><path d="m1273.33 189.18c-108.2 4.58-206.39 4.55-314.58 4.81l-324.58.81-324.58-.81c-108.2-.26-201.39-.22-309.58-4.81v-3c108.2-4.59 201.39-4.55 309.58-4.81l324.58-.81 324.58.81c108.2.26 206.39.23 314.58 4.81z" fill="#004e6e"/><path d="m158.17 433.93c17.49-.75 35-1.16 52.46-1.45s35-.31 52.46-.5 35 .17 52.46.3c17.49.38 35 .74 52.46 1.66a4.03 4.03 0 0 1 0 8.06c-17.49.92-35 1.28-52.46 1.66-17.49.13-35 .42-52.46.3s-35-.06-52.46-.5-35-.7-52.46-1.45a4.03 4.03 0 0 1 0-8.06zm0 64.2c17.49-.75 35-1.16 52.46-1.45s35-.31 52.46-.5 35 .17 52.46.3c17.49.38 35 .74 52.46 1.66a4.03 4.03 0 0 1 0 8.06c-17.49.92-35 1.28-52.46 1.66-17.49.13-35 .42-52.46.3s-35-.06-52.46-.5-35-.7-52.46-1.45a4.03 4.03 0 0 1 0-8.06zm0 67.58c17.49-.75 35-1.16 52.46-1.45s35-.31 52.46-.5 35 .17 52.46.3c17.49.38 35 .74 52.46 1.66a4.03 4.03 0 0 1 0 8.06c-17.49.92-35 1.28-52.46 1.66-17.49.13-35 .42-52.46.3s-35-.06-52.46-.5-35-.7-52.46-1.45a4.03 4.03 0 0 1 0-8.06zm0 61.54c17.49-.75 35-1.16 52.46-1.45s35-.31 52.46-.5 35 .17 52.46.3c17.49.38 35 .74 52.46 1.66a4.03 4.03 0 0 1 0 8.06c-17.49.92-35 1.28-52.46 1.66-17.49.13-35 .42-52.46.3s-35-.06-52.46-.5-35-.7-52.46-1.45a4.03 4.03 0 0 1 0-8.06zm0 64.21c17.49-.75 35-1.16 52.46-1.45s35-.31 52.46-.5 35 .17 52.46.3c17.49.38 35 .74 52.46 1.66a4.03 4.03 0 0 1 0 8.06c-17.49.92-35 1.28-52.46 1.66-17.49.13-35 .42-52.46.3s-35-.06-52.46-.5-35-.7-52.46-1.45a4.03 4.03 0 0 1 0-8.06zm0 67.58c17.49-.75 35-1.16 52.46-1.45s35-.31 52.46-.5 35 .17 52.46.3c17.49.38 35 .74 52.46 1.66a4.03 4.03 0 0 1 0 8.06c-17.49.92-35 1.28-52.46 1.66-17.49.13-35 .42-52.46.3s-35-.06-52.46-.5-35-.7-52.46-1.45a4.03 4.03 0 0 1 0-8.06zm60.42 159.52c12.45-.75 24.91-1.16 37.36-1.45s24.91-.31 37.36-.5 24.91 0 37.36.3 24.91.74 37.36 1.66a4.03 4.03 0 0 1 0 8.06c-12.45.92-24.91 1.28-37.36 1.66s-24.91.43-37.36.3-24.91-.06-37.36-.5-24.91-.7-37.36-1.45a4.03 4.03 0 0 1 0-8.06zm603-277.2h328.43s-12.37-75.71-51.5-86.54c-34.33-9.51-48.07 11.53-76.68 11.53-22.89 0-31.88-53.88-75.37-53.88-82.41-.01-124.88 128.89-124.88 128.89z" fill="#c3c4c7"/><circle cx="1059.06" cy="441.54" fill="#fff" r="51.74"/><path d="m527.92 882.27h163.29v153.81h-163.29z" fill="#fff"/><path d="m866.85 1036.08h-108.39v-153.81h128.39z" fill="#dcdcde"/><g fill="#c3c4c7"><path d="m1289.22 1091.25a3 3 0 0 0 -3-3h-411.11a3.16 3.16 0 0 0 -.72.09 3 3 0 0 0 -2.21 3.66l5.27 21.35-5.17 14.07a3 3 0 0 0 0 2.08l5.16 14-5.25 20.15a3.16 3.16 0 0 0 -.1.77 3 3 0 0 0 3 3l206.9-.32 103.1-.75 101.89-1.35h.66c-1.29-5.94-2.69-12.36-4.46-18.58l5.53-17.23a2.54 2.54 0 0 0 0-1.63v-.06l-5-14.16 5.46-21.39a3.32 3.32 0 0 0 .05-.7zm-4.37 72.6-103.08-1.34-102.44-.75-200.28-.32 4.5-17.29a3 3 0 0 0 -.09-1.8l-5.11-13.89 5.11-13.9a3 3 0 0 0 .1-1.77l-4.56-18.5h403.4l-4.42 18.54v.05a2.72 2.72 0 0 0 .1 1.61l5.35 14.08-5 17.14v.06a2.27 2.27 0 0 0 0 1.33c1.72 5.37 3.87 10.46 6.16 16.15z"/><path d="m943.51 1145.04c24.44-1.66 48.89-2 73.33-2.43l73.33-.38c48.89.36 97.78.16 146.67 2.21a1.21 1.21 0 0 1 0 2.42c-48.89 2.05-97.78 1.85-146.67 2.21l-73.33-.38c-24.44-.42-48.89-.77-73.33-2.43a.61.61 0 0 1 0-1.21zm-12.08-17.2c24.44-1.66 48.89-2 73.33-2.43l73.33-.38c48.89.36 97.78.16 146.67 2.21a1.21 1.21 0 0 1 0 2.42c-48.89 2.05-97.78 1.85-146.67 2.21l-73.33-.38c-24.44-.42-48.89-.77-73.33-2.43a.61.61 0 0 1 0-1.21zm0-17.2c24.44-1.66 48.89-2 73.33-2.43l73.33-.38c48.89.36 97.78.16 146.67 2.21a1.21 1.21 0 0 1 0 2.42c-48.89 2.05-97.78 1.85-146.67 2.21l-73.33-.38c-24.44-.42-48.89-.77-73.33-2.43a.61.61 0 0 1 0-1.21zm365.18-221.28-19.24-.41a51.32 51.32 0 0 1 -.38 5.79l16.56.16-7.05 87.51-6.72 90.55a1.004 1.004 0 0 0 2 .18l9.07-90.35 8.49-90.4v-.2a2.77 2.77 0 0 0 -2.73-2.83z"/><path d="m1277.37 871.4c-65.09-.47-130.18-.13-195.27-.24h-195.31a3 3 0 0 0 -3 2.67l-24.17 205v.35a3 3 0 0 0 3 3h292.91c32.55-.05 65.09-.13 97.64-1a2 2 0 0 0 0-4c-32.54-.88-65.09-1-97.64-1h-289.51l23.45-199h192.58c64.08-.1 128.17.22 192.25-.22l-7.05 87.46-6.72 90.55a1.004 1.004 0 0 0 2 .17l9.07-90.35 8.49-90.4v-.24a2.77 2.77 0 0 0 -2.72-2.75z"/><path d="m1084.14 945.71a288.87 288.87 0 0 1 33.32-2.44c11.11-.25 22.22-.43 33.32-.37 22.22.36 44.43.16 66.65 2.21a1.21 1.21 0 0 1 0 2.42c-22.22 2.05-44.43 1.85-66.65 2.21-11.11.05-22.22-.12-33.32-.37a289 289 0 0 1 -33.32-2.44.61.61 0 0 1 0-1.21zm0 30.21a288.87 288.87 0 0 1 33.32-2.44c11.11-.25 22.22-.43 33.32-.37 22.22.36 44.43.16 66.65 2.21a1.21 1.21 0 0 1 0 2.42c-22.22 2.05-44.43 1.85-66.65 2.21-11.11.05-22.22-.12-33.32-.37a289 289 0 0 1 -33.32-2.44.61.61 0 0 1 0-1.21zm0 36.25a288.87 288.87 0 0 1 33.32-2.44c11.11-.25 22.22-.43 33.32-.37 22.22.36 44.43.16 66.65 2.21a1.21 1.21 0 0 1 0 2.42c-22.22 2.05-44.43 1.85-66.65 2.21-11.11.05-22.22-.12-33.32-.37a289 289 0 0 1 -33.32-2.44.61.61 0 0 1 0-1.21zm-36.29 15.86c-3.09 11.38-41.23 15.14-62.72 15.17h-.29c-21.49 0-59.63-3.79-62.72-15.17-3.62-13.33 23.29-41.74 62.72-41.88h.29c39.39.1 66.3 28.55 62.72 41.88zm-62.72-49.15a31.34 31.34 0 1 0 -31.34-31.34 31.34 31.34 0 0 0 31.3 31.34z"/></g><circle cx="189.22" cy="97.29" fill="#fff" r="17.42"/><circle cx="280.52" cy="97.29" fill="#dcdcde" r="17.42"/><circle cx="371.83" cy="97.29" fill="#dcdcde" r="17.42"/><circle cx="173.03" cy="923.14" fill="#c3c4c7" r="17.42"/></svg>
