<svg viewBox="0 0 1457.93 1204.81" xmlns="http://www.w3.org/2000/svg"><path d="m63.09 175.84h-7.06c-2.35 60.91-2.25 121.81-2.35 182.72l-.39 223.56 1.21 223.55c.39 74.52.49 149 5.13 223.55h3c4.37-74.53 4.2-149 4.32-223.56l.4-223.57-1.24-223.56c-.33-60.9-.45-121.8-3.02-182.69zm1162.65 578.73-.26-155.84c-.46-70.33-.44-140.65-1.28-211-.68-70.32-1.53-140.65-3.06-211h-3c-1.53 70.32-2.38 140.65-3.06 211-.84 70.33-.83 140.65-1.28 211l-.23 156.61c4.06.45 8.1-1.08 12.17-.77zm-370.55 259.32-152.32.27-245.39.55c-81.8.6-163.59 1.06-245.39 4.48v3c81.8 3.42 163.59 3.88 245.39 4.48l245.39.55 152 .27c.23-2.79.33-11.84.32-13.6z" fill="#c3c4c7"/><path d="m57.13 176.78v-108.34a68.45 68.45 0 0 1 68.45-68.45h1025.62a68.45 68.45 0 0 1 68.45 68.45v108.34z" fill="#c3c4c7"/><path d="m1276.78 178.27c-105.31 4.5-210.63 4.47-315.94 4.73l-315.94.8-315.94-.8c-105.31-.26-223.63-.22-328.94-4.73v-3c105.31-4.51 223.63-4.47 328.94-4.73l315.94-.8 315.94.8c105.31.26 210.63.22 315.94 4.73z" fill="#004e6e"/><circle cx="197.73" cy="92.14" fill="#fff" r="17.12"/><circle cx="287.44" cy="92.14" fill="#dcdcde" r="17.12"/><circle cx="377.14" cy="92.14" fill="#dcdcde" r="17.12"/><path d="m374.58 1154.77c90.09-3.27 180.17-4 270.26-4.78l270.26-.75c180.17.71 360.34.31 540.52 4.34a2.375 2.375 0 0 1 0 4.75c-180.17 4-360.34 3.63-540.52 4.34l-270.26-.75c-90.09-.82-180.17-1.51-270.26-4.78a1.19 1.19 0 0 1 0-2.37z" fill="#f6f7f7"/><g fill="#c3c4c7"><path d="m796.03 1043.77v.69l1 50.83c.23 16.8.61 33.5.53 50.22l-3-3h604.06l-3 3v-102.45l3 3-300.89-.23-150.73-.65zm-2.8-1.4h.71l150.29-1.39 151.3-.65 303.17-.23a3 3 0 0 1 3 3v102.45a3 3 0 0 1 -3 3h-604.05a3 3 0 0 1 -3-3c-.07-17.44.31-34.88.53-52.23z"/><path d="m858.44 940.43v.69c.78 34.33 1.67 67.62 1.57 101l-3-3h517.91l-3 3v-102.4l3 3-257.82-.23-129.21-.68zm-2.79-1.4h.7l128.77-1.37 129.75-.68 260.09-.23a3 3 0 0 1 3 3v102.45a3 3 0 0 1 -3 3h-517.9a3 3 0 0 1 -3-3c-.07-34.66.81-69.42 1.59-103.17zm88.86 110.16c2.4 7.52 2.2 15 2.42 22.55s.27 15 .34 22.55-.11 15-.34 22.55 0 15-2.42 22.55a.78.78 0 0 1 -1 .5.79.79 0 0 1 -.5-.5c-2.41-7.52-2.2-15-2.42-22.55s-.27-15-.34-22.55.11-15 .34-22.55 0-15 2.42-22.55a.78.78 0 0 1 1.48 0z"/><path d="m1232.94 936.95-24.23.26c-4 0-8.08.09-12.11.23l-6.06.17h-2.7v-2.94h.28l3-.08v3.12c-9.36.31-18.7-3.1-26.22-8.59s-13.58-12.73-18.7-20.3c-10-15.39-16.53-32.51-21.94-49.7a450.89 450.89 0 0 1 -12.64-52.54c-3.22-17.72-5.75-35.48-7.36-53.51a3.27 3.27 0 0 1 3-3.55h.34l107.93-.14 107.93.25a3.17 3.17 0 0 1 3.16 3.18 3.54 3.54 0 0 1 0 .51c-2.94 17.87-6.66 35.44-11 53a498.35 498.35 0 0 1 -15.54 51.81c-6.25 16.93-13.78 33.56-24 48.58a95.59 95.59 0 0 1 -18.08 20.32c-6.99 5.77-15.78 9.97-25.06 9.92zm0-1.48c8.84-.15 17.1-4.3 23.73-10s11.9-13.06 16.53-20.59a178.52 178.52 0 0 0 11.89-23.79q5.3-12.22 9.59-24.89c5.85-16.82 10.79-34 15-51.34s7.83-34.9 10.63-52.45l3.16 3.68-107.93.25-107.93-.14 3.3-3.56c1.5 17.64 3.93 35.37 7 52.87a444.8 444.8 0 0 0 12.25 51.83c5.13 17 11.77 33.5 20.81 48.47a80.55 80.55 0 0 0 16.77 19.64 38.83 38.83 0 0 0 23.42 9.17h.08a1.56 1.56 0 0 1 -.07 3.12l-3-.08h-.28v-2.94h2.7l6.06.17c4 .14 8.08.2 12.11.23zm91.16-124.07c5.93 6 8.41 14 10 22a50.89 50.89 0 0 1 -1.12 24.81 42.38 42.38 0 0 1 -14.23 20.52l-2.37 2c-.84.6-1.74 1.1-2.61 1.65-1.74 1.1-3.53 2.12-5.31 3.13a44.78 44.78 0 0 1 -11.74 3.26.76.76 0 0 1 -.62-1.31l.09-.08a69.87 69.87 0 0 1 9.54-6.73c2.89-2.39 6.42-3.95 8.87-6.74a38.45 38.45 0 0 0 11.7-17.89c2.27-6.81 2.54-14.29 1.56-21.66s-3.57-14.48-5-22.32v-.06a.77.77 0 0 1 1.3-.68z"/><path d="m303.07 333.9 88.85-1.33 88.85-.81c59.24-.65 118.47-.46 177.71-.74s118.47.24 177.71.44c59.24.56 118.47 1.09 177.71 2.44a5.94 5.94 0 0 1 0 11.87c-59.24 1.35-118.47 1.88-177.71 2.44-59.24.19-118.47.62-177.71.44s-118.47-.09-177.71-.74l-88.85-.81-88.85-1.33a5.94 5.94 0 0 1 0-11.87zm82.88 141.68c46.4-.64 92.81-1.19 139.21-1.43l139.19-.49 139.21.29 69.61.6 69.61 1a4 4 0 0 1 0 7.91l-69.61 1-69.61.6-139.21.35-139.21-.49c-46.4-.23-92.81-.79-139.21-1.43a4 4 0 0 1 0-7.91zm.06 68.44c46.39-.64 92.79-1.19 139.18-1.43l139.16-.49 139.18.29 69.59.6 69.59 1a4 4 0 0 1 0 7.91l-69.59 1-69.59.6-139.18.35-139.16-.51c-46.39-.23-92.79-.79-139.18-1.43a4 4 0 0 1 0-7.91zm-71.17 68.44q87.38-1 174.76-1.43l174.75-.48 174.76.29 87.38.6 87.38 1a4 4 0 0 1 0 7.91l-87.38 1-87.38.6-174.76.39-174.76-.49q-87.38-.35-174.76-1.43a4 4 0 0 1 0-7.91zm39.24 68.45q77.57-1 155.14-1.43l155.13-.49 155.14.29 77.57.6 77.57 1a4 4 0 0 1 0 7.91l-77.57 1-77.57.6-155.14.35-155.14-.49q-77.57-.35-155.14-1.43a4 4 0 0 1 0-7.91zm-14.62 68.43q81.23-1 162.45-1.43l162.44-.48 162.45.29 81.23.6 81.23 1a4 4 0 0 1 0 7.91l-81.23 1-81.23.6-162.45.35-162.45-.49q-81.23-.35-162.45-1.43a4 4 0 0 1 0-7.91zm-31.73 68.45q89.16-1 178.32-1.43l178.3-.48 178.32.29 89.16.6 89.16 1a4 4 0 0 1 0 7.91l-89.16 1-89.16.6-178.32.35-178.32-.49q-89.16-.35-178.32-1.43a4 4 0 0 1 0-7.91zm196.45 68.45c26.7-.64 53.39-1.19 80.09-1.43 26.7-.43 53.4-.31 80.09-.49s53.4.16 80.09.29c26.7.37 53.4.73 80.09 1.63a4 4 0 0 1 0 7.91c-26.7.9-53.39 1.26-80.09 1.63-26.7.13-53.4.41-80.09.29s-53.4-.06-80.09-.49c-26.7-.23-53.4-.79-80.09-1.43a4 4 0 0 1 0-7.91z"/></g></svg>
