<svg xmlns="http://www.w3.org/2000/svg" viewBox="0 0 1439.92 1189.93"><path d="M1056.85 1013.85a447.22 447.22 0 0 0-26-42.62 27.56 27.56 0 0 0-4.39-2.53c-1-.46-2-.88-3.09-1.27l-40-1.79a2.89 2.89 0 0 1-2.69-2.26c-13.69-.51-27.36-1.32-41-2.2-14.58-.91-29.14-2.17-43.71-3.24l-43.66-3.73-10.92-.94a40.83 40.83 0 0 1-11.41-2.31c-7.52-2.77-14.26-7.76-18.08-15.7a2.05 2.05 0 0 1-.19-.65v-.19l-10.21-89.67-9.67-89.72a3.25 3.25 0 0 1 2.86-3.59 3.72 3.72 0 0 1 .52 0l8.48.41c18.92-4.33 38.07-7.23 57.19-10.23l66.22-10.4 8.53-1.24c38.51-7 72.29-13 80.64-13.65 15.13-1.2 30.15-2.73 45.26-2.79 2.1-.15 4.16-.29 6.14-.4.67-3.62 1.54-7.16 2.4-10.71 1.2-4.49 2.54-8.93 4-13.33a3.35 3.35 0 0 1 .15-.36c3.57-7.37 7.15-14.74 11.16-21.9a244.37 244.37 0 0 1 13.02-20.95 163.77 163.77 0 0 1 15.75-19.22 87.69 87.69 0 0 1 9.35-8.46c1.15-.85 2.3-1.71 3.5-2.51-4.63-.21-9.27-.53-13.9-1.08a2 2 0 0 1 .06-4c13.6-1.16 27.17-.46 40.74-.39l40.73.53 15.75.23V180.2H39.12v854l294.45-9.44 734.55 11.76q-5.35-11.48-11.27-22.67z" fill="#dcdcde"/><path d="M38.72 180.2V69.77A69.77 69.77 0 0 1 108.49 0h1032.17a69.77 69.77 0 0 1 69.74 69.77V180.2zM1068.63 713.61l-99.93 15.06-161.94 25.47v-49.41h265.18l-3.31 8.88z" fill="#3895ba"/><path fill="#fff" d="M694.34 909.7H147.5V294.04h546.84V909.7"/><circle cx="170.76" cy="91.95" r="17.45" fill="#fff"/><circle cx="262.2" cy="91.95" r="17.45" fill="#c3c4c7"/><circle cx="353.64" cy="91.95" r="17.45" fill="#c3c4c7"/><path fill="#e6f1f5" d="M1259.18 176.98L.01 183.42"/><path d="M1259.19 178.46c-104.91 5-209.84 5.54-314.77 6.33l-314.79 2.41-314.8.81c-104.93.28-209.86.86-314.82-3.11v-3c104.91-5 209.84-5.54 314.77-6.33l314.79-2.41 314.83-.78c104.93-.28 209.86-.85 314.82 3.11z" fill="#004e6e"/><path d="M304.7 613.69l-71.6-34.85c52.47-151.63 165.24-155.81 165.24-155.81l41 27.51 41.59-27.51c94.02 23.35 127.05 139.55 127.05 176.63l-70.36 18.92 6 162.16H295.96z" fill="#c3c4c7"/><path d="M810 601.8h59.46v62.69h-62.7V605a3.24 3.24 0 0 1 3.24-3.2z" fill="#fff"/><path d="M1016.55 601.8H1076v62.69h-62.69V605a3.24 3.24 0 0 1 3.24-3.2z" fill="#c3c4c7"/><path d="M909.24 601.8h59.46v62.69H906V605a3.24 3.24 0 0 1 3.24-3.2z" fill="#3895ba"/><path d="M1127.55 348.46H798.69V308.1h322.71a6.18 6.18 0 0 1 6.18 6.18z" fill="#fff"/><path d="M443.4 1179.32c41.24-2.77 82.47-1.79 123.71-2.1l123.71-.25c82.47-.06 164.95-.58 247.42-.24l247.42.5c82.47 0 164.95.67 247.42 4.07a2 2 0 0 1 0 4c-82.47 3.4-164.95 4-247.42 4.07l-247.42.5c-82.47.33-164.95-.19-247.42-.24l-123.71-.25c-41.24-.31-82.47.67-123.71-2.1a4 4 0 0 1 0-7.9z" fill="#f6f7f7"/><path fill="#fff" d="M795.07 754.67l273.05-40.89 301.13 2.64-390.54 45.05-183.64-6.8z"/><path d="M1095.54 1122.7c1.38 3.91.36 7.92-.5 11.76a39 39 0 0 1-4.68 11.05c-4.15 6.78-11.7 12.86-20.75 12.79s-16.59-6-20.67-12.84a30.58 30.58 0 0 1-4.27-22.76 1 1 0 0 1 1.21-.76 1.06 1.06 0 0 1 .76.76c1.84 7.17 3.75 13.79 7.44 19.45s9.45 9.52 15.53 9.52 11.84-3.95 15.45-9.57a32.89 32.89 0 0 0 4.13-9.22c1.05-3.31 1-6.7 2.39-10.19v-.1a2.09 2.09 0 0 1 3.91.1zM1247.4 1150.58a33.89 33.89 0 0 1 5.29-22.74c4.17-6.77 11.7-12.64 20.64-12.69s16.58 5.78 20.85 12.56a41.8 41.8 0 0 1 6.37 22.88 43 43 0 0 1-6.48 22.81c-4.26 6.75-11.86 12.54-20.74 12.5s-16.43-5.9-20.33-12.76a36.94 36.94 0 0 1-4.6-22.56zm3 0c.95 7.2 3.14 14.11 7.1 19.67s9.63 9.62 15.86 9.59 11.95-4.22 15.45-9.86a36.62 36.62 0 0 0 5.23-19.4 37.88 37.88 0 0 0-5.34-19.33c-3.49-5.62-9.17-9.76-15.34-9.8s-12 4-15.55 9.66a33.37 33.37 0 0 0-4.09 9.26 70.21 70.21 0 0 0-2.33 10.2zM1038.04 1150.58a33.89 33.89 0 0 1-5.28 22.74c-4.17 6.77-11.7 12.64-20.64 12.69s-16.58-5.78-20.85-12.56a41.8 41.8 0 0 1-6.37-22.88 43 43 0 0 1 6.48-22.81c4.26-6.75 11.86-12.54 20.74-12.5s16.43 5.9 20.33 12.76a36.94 36.94 0 0 1 4.61 22.54zm-3 0c-.95-7.2-3.14-14.11-7.1-19.67s-9.63-9.62-15.86-9.59-11.95 4.22-15.45 9.86a36.62 36.62 0 0 0-5.23 19.4 37.88 37.88 0 0 0 5.34 19.33c3.49 5.62 9.17 9.76 15.34 9.8s12-4 15.55-9.66a33.35 33.35 0 0 0 4.09-9.26 70.14 70.14 0 0 0 2.33-10.2zM846.75 1149.31a33.89 33.89 0 0 1 5.28-22.74c4.17-6.77 11.7-12.64 20.64-12.69s16.58 5.78 20.85 12.56a41.8 41.8 0 0 1 6.37 22.88 43 43 0 0 1-6.48 22.81c-4.26 6.75-11.86 12.54-20.74 12.5s-16.43-5.9-20.33-12.76a36.94 36.94 0 0 1-4.61-22.54zm3 0c.95 7.2 3.14 14.11 7.1 19.67s9.55 9.6 15.82 9.6 11.95-4.22 15.45-9.86a36.62 36.62 0 0 0 5.23-19.4 37.88 37.88 0 0 0-5.34-19.33c-3.49-5.62-9.17-9.76-15.34-9.8s-12 4-15.55 9.66a33.35 33.35 0 0 0-4.09 9.26 70.17 70.17 0 0 0-2.33 10.2zM1317.84 800.1c-26.7-1.08-53.3.12-79.91 1.16l-17 .67a146.49 146.49 0 0 0 1.2-22.1.75.75 0 0 0-1.46-.22 149.77 149.77 0 0 0-5.63 22.55l-56.87 2.22-62.77 3.08a108.45 108.45 0 0 0-1.06-17.52.76.76 0 0 0-1.48-.08 109.93 109.93 0 0 0-3.07 17.88l-11.44.56c-26.6 1.3-53.2 2.46-79.7 5.88a.74.74 0 0 0 .07 1.48c26.7 1.07 53.3-.11 79.91-1.16l10.61-.41c-.25 3.23-.46 6.47-.7 9.7l-2.26 34-1.08 22.79-11.83-.22c-24.89-.46-49.77-1.06-74.7.6a.74.74 0 0 0 0 1.48c24.83 2.83 49.71 3.4 74.59 4.12l11.68.34-.23 5c-.42 11.37-1.26 22.71.5 34.2a.76.76 0 0 0 1.48.08c3-11.22 3.47-22.58 4.32-33.92l.34-5.13 56.54 1.63 53.61 1c-1.78 12.22-3.64 24.43-3.24 37a.75.75 0 0 0 1.46.22c4.14-11.91 6-24.18 7.93-36.42l.11-.67 14.78.27c24.89.46 49.77 1.06 74.7-.6a.74.74 0 0 0 0-1.48c-24.83-2.84-49.71-3.4-74.59-4.12l-13.9-.4 4.84-29.72 5.2-36.84c.42-2.87.84-5.74 1.24-8.61l18.15-.89c26.6-1.3 53.2-2.45 79.7-5.88a.74.74 0 0 0-.07-1.48zm-111.14 52.64l-4.32 30.59-54.35-1.57-56.29-1 1.49-22.53 1.57-34.08c.13-3.43.29-6.86.41-10.29l63.2-2.47 55.46-2.72q-.6 3.69-1.18 7.38z" fill="#c3c4c7"/><path d="M962.65 881c-11.08-3.34-22.39-4.1-33.65-5.26l-11.6-1.09.28-21.37-.28-30.7c-.08-4-.09-8.08-.22-12.12l4.23.31c11.6.74 23.16 1.89 34.93.45a.76.76 0 0 0 .12-1.48c-11.38-3.34-23-4.1-34.54-5.26l-5.09-.47a81 81 0 0 0-1.78-12.1.76.76 0 0 0-1.48 0 80.17 80.17 0 0 0-1.8 11.64l-24.55-2.26-34.76-2.52a83.8 83.8 0 0 0-3-13.15.76.76 0 0 0-1.48.12 82.28 82.28 0 0 0-.78 12.67c-9.83-.67-19.66-1.32-29.65-.1a.76.76 0 0 0-.12 1.48c9.88 2.91 19.92 3.85 30 4.82.2 4 .51 8 .76 12l2.23 30.7 2.1 22.08c-8.37-.56-16.76-.91-25.27.15a.76.76 0 0 0-.12 1.48c8.57 2.59 17.26 3.62 26 4.5l.23 2.43c1.08 10.2 1.73 20.44 5 30.47a.76.76 0 0 0 1.48-.12c1.54-10.42.47-20.63-.17-30.87l-.09-1.26 1.25.13 33.83 3.2 16.39 1.22v3.2c.2 10.22 0 20.45 2.35 30.67a.76.76 0 0 0 1.48 0c2.42-10.22 2.24-20.44 2.48-30.66v-2.74l11.12.83c11.3.74 22.57 1.89 34.06.45a.76.76 0 0 0 .12-1.48zm-101.37-11l-2.24-.15-1.64-23.1-3-30.64c-.38-3.63-.71-7.27-1.13-10.9l33.36 3.08 24.77 1.78c-.16 4.17-.19 8.35-.29 12.52l-.41 30.67.19 20.77-15.72-1.45zM1308.19 1089.48c-9.12 1.38-18.25.9-27.37 1l-27.37.13c-18.25 0-36.49.29-54.74.12l-54.74-.25c-18.25 0-36.49-.34-54.74-2a1 1 0 0 1 0-2c18.25-1.7 36.49-2 54.74-2l54.74-.25c18.25-.17 36.49.09 54.74.12l27.37.13c9.12.15 18.25-.33 27.37 1a2 2 0 0 1 0 4z" fill="#f6f7f7"/><path d="M798.69 399.08c17.89-.74 35.77-1.14 53.66-1.43s35.77-.31 53.66-.49 35.77.16 53.66.29c17.89.37 35.77.73 53.66 1.63a4 4 0 0 1 0 7.9c-17.88.9-35.77 1.25-53.66 1.63-17.89.13-35.77.41-53.66.29s-35.77-.06-53.66-.49-35.77-.69-53.66-1.43a4 4 0 0 1 0-7.9zM803 466.97c13.57-.74 27.14-1.14 40.7-1.43s27.14-.31 40.7-.49 27.14.16 40.7.29c13.57.37 27.14.73 40.7 1.63a4 4 0 0 1 0 7.9c-13.57.9-27.14 1.25-40.7 1.63-13.57.13-27.14.41-40.7.29s-27.14-.06-40.7-.49-27.14-.69-40.7-1.43a4 4 0 0 1 0-7.9zM805.4 534.86c13.36-.74 26.72-1.14 40.07-1.43s26.71-.31 40.07-.49 26.72.16 40.07.29c13.36.37 26.72.73 40.07 1.63a4 4 0 0 1 0 7.9c-13.36.9-26.72 1.25-40.07 1.62-13.36.13-26.72.41-40.07.29s-26.72-.06-40.07-.49-26.72-.69-40.07-1.43a4 4 0 0 1 0-7.9z" fill="#c3c4c7"/><path d="M1417.34 624.72c-5.47 8.35-8.47 17.56-11.88 26.63l-9.92 27.31-9.27 27.54c-.74 2.27-1.5 4.53-2.24 6.8 3.31 2 3.76 5.32 3 9 1.88-4.51 3.49-9.11 5.2-13.68l9.92-27.31 9.27-27.54c3-9.21 6.39-18.29 7.32-28.22a.76.76 0 0 0-1.4-.49z" fill="#f6f7f7"/><path d="M1439.01 616.94c-27.12-2.14-54.27-2.9-81.42-3.35l-81.45-1.57-81.46-1.2-40.73-.53c-13.58-.07-27.15-.77-40.74.39a2 2 0 0 0-.06 4c4.63.55 9.26.87 13.9 1.08-1.2.79-2.35 1.65-3.5 2.51a87.67 87.67 0 0 0-9.35 8.46 163.77 163.77 0 0 0-15.8 19.16 244.37 244.37 0 0 0-13 20.93c-4 7.17-7.59 14.54-11.16 21.9a3.33 3.33 0 0 0-.15.36c-1.43 4.41-2.77 8.85-4 13.33-.87 3.55-1.74 7.1-2.4 10.71-22.31 1.22-52.61 5.33-74.23 8.46l-66.34 9.61-66.23 10.39c-19.13 3-38.27 5.89-57.19 10.23l-8.48-.41a3.73 3.73 0 0 0-.52 0 3.25 3.25 0 0 0-2.86 3.59l9.67 89.72 10.16 89.67v.19a2.05 2.05 0 0 0 .19.65c3.82 7.94 10.56 12.93 18.08 15.7a40.83 40.83 0 0 0 11.41 2.31l10.92.94 43.66 3.73c14.57 1.07 29.12 2.33 43.71 3.24s29.17 1.81 43.78 2.31a.743.743 0 0 0 .13-1.48c-14.47-2.08-29-3.79-43.47-5.43s-29-3-43.54-4.5l-43.59-4c-7.21-.88-14.87-.7-20.86-3-6-2.09-11.54-6.68-14.11-11.87l-9.58-89.18-9.69-85.9 68.75 2.92 36.28 1.46c12.1.36 24.19.91 36.3 1.1h-.27c4 .35 7.49.26 11.21.25l10.93-.29c7.27-.39 14.53-.78 21.78-1.44a.74.74 0 0 0 0-1.48l-21.76-.48-10.84-.33c-3.53-.17-7.35-.34-10.53-.78h-.27c-12.08-.91-24.17-1.45-36.25-2.2l-36.27-1.84-43.23-2.09c12.46-1.47 24.87-3.3 37.29-5.1l66.34-9.61 66.22-10.4c21.4-3.35 51.35-7.41 73-12.71-.06.36-.13.72-.18 1.09a1 1 0 0 0 1.87.62c2.25-4.14 4.06-8.42 5.89-12.69s3.26-8.5 4.74-12.8c3.66-7.15 7.42-14.23 11.4-21.17s8.28-13.78 12.74-20.41a157.52 157.52 0 0 1 14.82-18.69 81.64 81.64 0 0 1 8.58-8c3-2.34 6.38-4.53 9.07-6.6l.41-.32c5.71.12 11.43.17 17.14.32l40.72.78 81.45 1.44 81.46 1.07c14.85.23 29.7.36 44.56.24-.77.62-1.5 1.27-2.25 1.91a87.22 87.22 0 0 0-8.14 8.4 184.41 184.41 0 0 0-13.6 18.52c-4.15 6.39-7.9 13-11.51 19.68s-6.84 13.53-10.13 20.34a3.49 3.49 0 0 0-.15.36c-1.43 4.41-2.77 8.85-4 13.33s-2.13 8.69-2.82 13.16h.49l.5-.06a2.55 2.55 0 0 1 1.76-.64c1.81-3.55 3.37-7.19 4.92-10.82 1.7-4.23 3.27-8.5 4.74-12.81 6.77-13.3 13.87-26.42 21.7-39a178.42 178.42 0 0 1 12.83-18.16 81.38 81.38 0 0 1 7.42-7.93c2.53-2.37 5.69-4.56 7.67-6.35l.15-.14c9.11-.15 18.23-.41 27.35-.83a1 1 0 0 0 0-2z" fill="#f6f7f7"/><path d="M1334.58 711.8c-10.66-1.38-21.33-.9-32-1l-32-.12c-21.33 0-42.65-.29-64-.12l-64 .25c-21.33 0-42.65.34-64 2a1 1 0 0 0 0 2c21.33 1.7 42.65 2 64 2l64 .25c21.33.17 42.65-.09 64-.12l32-.12c10.66-.15 21.33.33 32-1a2 2 0 0 0 0-4z" fill="#f6f7f7"/><path d="M1388.96 713.43a3 3 0 0 0-3.29-2.59l-202.18 24.09-101 12.19q-25.31 3-50.31 6.31l-49.16 6.49v.76l-1.62 100.53c-.51 33.72-.59 67.66-.83 101.54a2.9 2.9 0 0 0 2.76 2.89l45 2a444.57 444.57 0 0 1 28.48 46.17 470.78 470.78 0 0 1 20.7 44.36c2.83 7.29 4.7 15.42 2.34 22.18s-9.6 10.56-17 11.27l-49 3.08-196.58 12.88a3.3 3.3 0 0 0 .06 6.58l121 6 30.26 1.44 15.13.68 15.14-.27 60.56-1.09 242.21-4.38h.32a30.93 30.93 0 0 0 8.82-2.49 21.7 21.7 0 0 0 7.55-5.65 23 23 0 0 0 4.56-8.19 27.59 27.59 0 0 0 1.28-8.82 74.54 74.54 0 0 0-6.52-37c-4.94-11.58-12.21-21.86-20.14-31.34a212.28 212.28 0 0 0-26.34-25.95 271 271 0 0 0-26.73-19.62l32.4 1.45h-.33c14.1 1.31 26.82-6 34.92-16.21 8.28-10.13 12.54-22.68 15.67-34.57l20.59-71.13 41.19-142.44a3 3 0 0 0 .09-1.15zM1269.1 999.34a231.69 231.69 0 0 1 25.08 26.31c7.51 9.44 14.12 19.64 18.73 30.62a69.17 69.17 0 0 1 5.68 34.47v.49a22.39 22.39 0 0 1-1.12 7.09 17.28 17.28 0 0 1-3.51 6.15 15.84 15.84 0 0 1-5.66 4.1 25.66 25.66 0 0 1-7 1.93l-241.85 3.65-60.51.91-15.13.23-15.11-.72-30.22-1.45-63.21-2.92 138.88-9.45 49.28-3.48a30.66 30.66 0 0 0 12.75-4.31 20.57 20.57 0 0 0 8.67-10.79c2.92-9.11.34-18-2.7-25.79-13.17-29.91-31.89-62.74-51.92-88.63l211.09 9.47a265.39 265.39 0 0 1 27.79 22.12zm72.87-144.08l-20.6 71.15c-3.11 11.86-7.1 23.27-14.55 32.41a39.69 39.69 0 0 1-13.24 10.84 31 31 0 0 1-16.16 3.26h-.33L986.4 959.98c-.15-32.34-.18-64.63-.61-97.12l-1.39-100.15.73-.08 50.67-5.3q25.29-2.65 50.27-5.58l100.11-11.58 195.7-22.94z" fill="#c3c4c7"/></svg>
