<svg xmlns="http://www.w3.org/2000/svg" viewBox="0 0 1466.56 1211.94"><defs><clipPath id="a" transform="translate(-30.88 -133)"><path d="M592 846.92h128.4v115.81a3.31 3.31 0 0 1-3.31 3.31H592V846.92z" fill="#c3c4c7"/></clipPath></defs><path d="M67.44 181.28h-7.36c-2.3 61.28-2.21 122.55-2.31 183.82l-.4 227.63 1.23 227.62c.4 75.88.5 151.75 5.23 227.62h3c4.45-75.88 4.28-151.76 4.4-227.63l.4-227.63-1.21-227.65c-.3-61.26-.45-122.52-2.98-183.78zM719.12 1033l-247.15.1c-84 .61-198 1.08-282 4.6v3c84 3.52 198 4 282 4.6l248.37.49zM1234.25 591.36l-.16-25.57c-.47-72.23-.45-104.47-1.31-176.7-.7-72.23-1.57-144.47-3.14-216.7h-3c-1.57 72.23-2.45 144.47-3.14 216.7-.87 72.23-.85 157.47-1.32 229.7zM1224.23 1032.51l-63.78.09c-.12 4.57.76 8.83.33 13.38l63.38-.11c-.23-4.43-.04-8.87.07-13.36z" fill="#c3c4c7"/><path d="M58.12 180V69.69A69.69 69.69 0 0 1 127.86 0h1031.06a69.69 69.69 0 0 1 69.69 69.69V180z" fill="#c3c4c7"/><path d="M1286.78 181.51c-107.23 4.59-214.46 4.55-321.7 4.81l-321.69.81-321.7-.81c-107.23-.26-214.46-.22-321.69-4.81v-3c107.23-4.59 214.46-4.55 321.69-4.81l321.7-.81 321.69.81c107.23.26 214.46.23 321.7 4.81z" fill="#004e6e"/><circle cx="178.46" cy="85.45" r="17.58" fill="#fff"/><circle cx="270.6" cy="85.45" r="17.58" fill="#dcdcde"/><circle cx="362.74" cy="85.45" r="17.58" fill="#dcdcde"/><path d="M449.25 1166.89c84.57-3.45 169.14-4.18 253.72-5l253.72-.79c169.14.75 338.29.32 507.43 4.58a2.5 2.5 0 0 1 0 5c-169.14 4.25-338.29 3.82-507.43 4.58l-253.72-.79c-84.57-.86-169.15-1.59-253.72-5a1.25 1.25 0 0 1 0-2.5zM869.92 629.37v234h58.91a2.48 2.48 0 0 1 1.4-.41c3.45 0 6.89-.11 10.34-.24l.2-.06c3.63-1.5 1.41-4.51 1.47-7.39.07-3.5 3.22-7.5 6.83-7.89 6.87-.73 9 8.68 8 14.41 13.47-.92 26.94-2 40.38-2a32.76 32.76 0 0 0 1.12-5.48 2.68 2.68 0 0 1 0-2.72c1.86-3.18 5.16-4.66 8.72-3.34 2.07.77 4.78 2.65 4.18 5.2a2.54 2.54 0 0 1-.16.47 29.59 29.59 0 0 0 1.51 5.05c3.62 1.63 7.32 2.22 11.47 2.94a2.6 2.6 0 0 1 1.92 1.41h104.11v-234z" fill="#f6f7f7"/><path fill="#c3c4c7" d="M175.42 297.31h260.4v234.05h-260.4zM869.91 297.31h260.4v234.05h-260.4z"/><path fill="#187aa2" d="M378.61 357.76v122.93H257.84l120.77-122.93z"/><path fill="#dcdcde" d="M522.67 297.31h260.4v234.05h-260.4z"/><path d="M552.96 477.88h199.83s-7.53-46.06-31.33-52.66c-20.89-5.79-29.25 7-46.65 7-13.93 0-19.4-32.78-45.86-32.78-50.15.02-75.99 78.44-75.99 78.44z" fill="#c3c4c7"/><circle cx="697.44" cy="356.3" r="31.48" fill="#fff"/><circle cx="932.64" cy="742.04" r="26.87" fill="#c3c4c7"/><path d="M1137.67 455.37c-17.17-.35-34.34-.91-51.52-1.13.24-9.79-1-19.43-5.33-29a34.15 34.15 0 0 0-12.54-14.5c-1.45-.8-2.91-1.61-4.39-2.34l-4.66-1.5a59.42 59.42 0 0 0-8.71-1.67 63.15 63.15 0 0 0-17.83.17 51.69 51.69 0 0 0-8.88 2.21 45.25 45.25 0 0 0-4.3 1.73l-2.09 1a4.37 4.37 0 0 1-.72.31 2.07 2.07 0 0 1-1.91-.48 2.31 2.31 0 0 1-.6-.89c-.55-1.39-1.16-2.83-1.84-4.2a43.06 43.06 0 0 0-11.6-14.69 41.15 41.15 0 0 0-17-8 50.74 50.74 0 0 0-18.11-.64c-12.14 1.32-23.51 7.52-31.78 15.86s-14.23 18.41-18.8 28.7a144.56 144.56 0 0 0-9 28.1l-45.8.91a4.07 4.07 0 0 0 0 8.13l50 1a4.93 4.93 0 0 0 4.91-3.87l.08-.35c4.38-19.89 12.68-40.55 26.76-54.35 7-6.87 15.67-11.42 25.08-12.39 9.45-1.31 19.41.68 26.18 6.26a30.94 30.94 0 0 1 8.22 10.64c.51 1.05.95 2.11 1.39 3.23a14.5 14.5 0 0 0 4 5.69 14.22 14.22 0 0 0 13.25 2.94 17.18 17.18 0 0 0 3-1.25l1.54-.77a33 33 0 0 1 3.21-1.32 39.72 39.72 0 0 1 6.82-1.76 51.33 51.33 0 0 1 14.42-.15 48.26 48.26 0 0 1 7.2 1.31l3.07.93 2.77 1.46a23.8 23.8 0 0 1 8.42 9.61c4.15 8.16 5.35 18.95 4.8 28.6v.65a5.23 5.23 0 0 0 5.27 5.18c19-.16 38-.82 57.05-1.21a4.07 4.07 0 0 0 0-8.13z" fill="#3895ba"/><path fill="#dcdcde" d="M175.42 629.37h260.4v234.05h-260.4z"/><path d="M1094.3 737.43c-35.94 0-40.72 15.53-48.42 32.81-6.13 13.76-27.65 23.47-51 28.13-23.84 4.76-31.78 23.29-31.78 37.49h132.37z" fill="#fff"/><path d="M395.79 808.12a.62.62 0 0 0-.81-.35 174.17 174.17 0 0 0-23.24 11.7c-7.45 4.38-14.85 8.82-22.14 13.46-10.9 7.17-22 14.07-32.56 21.73 9.7-11.27 18.61-23.14 27.8-34.81 5.8-7.57 11.41-15.29 17-23a211.72 211.72 0 0 0 15.28-24.35.622.622 0 0 0-1-.74 211.54 211.54 0 0 0-19.22 21.33c-6 7.45-11.85 15-17.56 22.59-9 12.34-18.21 24.47-26.6 37.24 5-14.32 9-28.93 13.29-43.44 2.57-9.12 4.93-18.31 7.2-27.52a209.25 209.25 0 0 0 5.2-28.07.62.62 0 0 0-1.17-.32 209.25 209.25 0 0 0-9.94 26.76c-2.77 9.07-5.46 18.16-7.93 27.32-3.64 14.24-7.59 28.39-10.61 42.8.08-6-.08-11.89-.33-17.83-.48-10.2-1-20.4-1.82-30.58-1.83-20.34-3.09-40.73-6.62-61a1.23 1.23 0 0 0-2.43.17c-.6 20.52 1.07 40.87 2.17 61.27.68 10.19 1.59 20.36 2.57 30.53.7 7 1.55 13.93 2.75 20.86-1.85-5-4-9.77-6.16-14.54-3.58-7.66-7.22-15.28-11.07-22.8-7.93-14.92-15.35-30.11-24.81-44.26a1.23 1.23 0 0 0-2.18 1.1c5.76 16 13.55 31 20.83 46.27 3.75 7.57 7.71 15 11.75 22.46 1.85 3.37 3.76 6.71 5.77 10-4-4.6-8.15-9-12.37-13.43-7.46-7.68-15-15.3-22.64-22.75-15.53-14.73-30.65-29.86-47.37-43.37a1.23 1.23 0 0 0-1.71 1.74c13.82 16.47 29.24 31.31 44.25 46.56 7.6 7.53 15.36 14.9 23.17 22.21 5.36 5 10.81 9.86 16.52 14.48-3.87-2.09-7.83-4-11.82-5.79-7.07-3.16-14.18-6.24-21.37-9.11-14.48-5.5-28.75-11.53-43.87-15.45a1.23 1.23 0 0 0-.92 2.26c13.56 7.76 28 13.4 42.19 19.58 7.15 3 14.39 5.73 21.66 8.41a143.33 143.33 0 0 0 21.61 6.31 1.21 1.21 0 0 0 .64.61 1.21 1.21 0 0 0 1 0c15.73-7.43 30.24-16.8 45.06-25.67 7.34-4.55 14.56-9.29 21.74-14.1a174.09 174.09 0 0 0 20.63-15.86.62.62 0 0 0 .19-.61z" fill="#187aa2"/><path fill="#c3c4c7" d="M519.24 629.37h260.4v234.05h-260.4z"/><path d="M617.74 682c12.85-6.9 27.67-8.68 42-9.21 14.49-.32 28.81 1.67 42.78 3.51a354 354 0 0 0 42 3.42c14 .63 27.74-1.06 41.76-3.48a1.22 1.22 0 0 1 .6 2.36 132.24 132.24 0 0 1-42.37 7.08 334.8 334.8 0 0 1-42.82-2.58c-14.12-1.8-27.93-4.2-41.85-4.13-13.93-.08-27.89.72-41.56 4.16a.61.61 0 0 1-.76-.42.64.64 0 0 1 .22-.71z" fill="#187aa2"/><path d="M561.1 713.92h128.42v115.81a3.31 3.31 0 0 1-3.31 3.31H561.1V713.92z" fill="#c3c4c7"/><g clip-path="url(#a)"><path d="M561.12 747.64c24.78 44.2 68.9 31.56 95.73 37.53 23.3 5.18 37.9 18.66 38.78 47.88H561.12z" fill="#3895ba"/></g><path fill="#fff" d="M1270.04 621.04l-10.26 11.39-11.22-7.97-10.92 12.13-13.46-9.57"/><path d="M1270.51 620.86a.71.71 0 0 0-1-.28 51.87 51.87 0 0 0-10 7.38c-2.89-2.27-5.79-4.52-8.77-6.66a3.88 3.88 0 0 0-5.11.57c-3.06 3.4-6.11 6.82-9 10.41l-11.77-6.37a1.36 1.36 0 0 0-1.56 2.2l12.29 11.22a2.93 2.93 0 0 0 4 0l.51-.47c3.17-3 6.12-6.11 9-9.3q4.27 2.89 8.64 5.65l.34.22a3.15 3.15 0 0 0 4.14-.71 57.37 57.37 0 0 0 8.24-13.22.73.73 0 0 0 .05-.64z" fill="#c3c4c7"/><path d="M1297.33 817l-10.42-99-10.67-99.06a3.74 3.74 0 0 0-.86-2l-31.94-38a3.89 3.89 0 0 0-1.34-1 3.81 3.81 0 0 0-5 1.89l-20 43.72a3.82 3.82 0 0 0-.32 2l22.13 196.71 1.08 9.18c2.25.17 4.5.44 6.74.74l-1.1-10.66-21.21-195.75 10.28-22.42a36.55 36.55 0 0 0 16.54-3.37l17.73 21 10.93 96.55 11.31 97.76 2.11 17.46h5.61zM1387.35 685a25 25 0 0 0-4.55-11 25.58 25.58 0 0 0-18.31-10.46c.58-.22 1.15-.47 1.71-.74a28.46 28.46 0 0 0 11.48-10.8c5.31-9.19 6.88-19.93 6.08-30.13-1.72-20.57-11.46-39.7-25-54.59l-.07-.08a3.74 3.74 0 0 0-6.16 1c-6 13.08-12.63 26.11-17.15 40.2-2.18 7-4.12 14.33-4.19 22a35.86 35.86 0 0 0 1.48 11.37 23.17 23.17 0 0 0 6.06 9.7 1 1 0 0 0 1.47-1.34c-4.21-5.61-5-12.65-4.15-19.43a89.71 89.71 0 0 1 5.36-20.18l.12-.31a49.73 49.73 0 0 1 7.19 2.1c2.92 1.05 5.39 3 9 5.06a21.23 21.23 0 0 0 12.39 2.31 19.37 19.37 0 0 0 6.22-1.64c.25 1.49.46 3 .6 4.49.86 9.2.2 18.81-3.91 26.94a22.5 22.5 0 0 1-21.85 13.52.69.69 0 0 0-.7.53.66.66 0 0 0 0 .17 25 25 0 0 0-10.3 3.51 25.58 25.58 0 0 0-12.25 19.67c-.18 14.34 0 27.58 0 41.43l.32 82.22.22 22.33q3.05.15 6.08.45l.22-22.78.32-82.22.2-40.78a18.11 18.11 0 0 1 8.76-13.87 17.37 17.37 0 0 1 8-2.5c2.9-.13 6.71 0 10 0a18.27 18.27 0 0 1 14.56 7.42 17.41 17.41 0 0 1 3.25 7.74c.42 2.55.21 6.31.28 9.67l.12 41.11.24 82.22.13 13.17a53.56 53.56 0 0 1 6.52-.06l.13-13.12.24-82.22.12-41.11c-.04-3.56.29-6.69-.28-10.97zm-17.42-72.21a20.82 20.82 0 0 1-8.75-2.34c-2.81-1.36-6.41-3.66-10.58-4.57a20.34 20.34 0 0 0-7.32-.28c4-9.75 8.66-19.3 13.42-28.92a104.36 104.36 0 0 1 12.29 19 81.5 81.5 0 0 1 6.35 17.43c-1.89-.11-3.69-.11-5.41-.28z" fill="#c3c4c7"/><path d="M1462 832.08c-3 69.08-7.5 138.07-11.37 207.1l-3.08 51.76-1.78 26a48.46 48.46 0 0 1-10.27 25.49c-11.44 14.71-30.85 21.88-48.58 20.82h-103.7c-17.63 1.07-37.22-5.76-48.69-20.49a47.84 47.84 0 0 1-10.51-25.37c-.66-9-.76-17.38-1.16-26.11l-2-51.81c-2.67-69.08-5.46-138.16-7.56-207.26a2.91 2.91 0 0 1 2.82-3h.11l98.86.57 98.86 1a1.35 1.35 0 0 1 0 2.7l-98.86 1-98.86.57 2.92-3c3.24 69.06 5.78 138.15 8.45 207.23l2 51.81c.39 8.54.54 17.49 1.13 25.69a41.07 41.07 0 0 0 9.06 21.82 47.4 47.4 0 0 0 19.29 14.17c7.61 3.21 15.49 4 24.13 3.8h103.7c8.6.16 16.51-.67 24.07-4a47.93 47.93 0 0 0 19.2-14.3 41.67 41.67 0 0 0 8.85-21.92l1.77-25.78 3.77-51.71c5.28-68.94 10-137.91 16.07-206.79a.68.68 0 0 1 1.35.09z" fill="#c3c4c7"/><path d="M1264.12 886.74a306.2 306.2 0 0 1 5.21 36c1.11 12 2.14 24.06 2.91 36.12 1.26 24.13 3.15 48.21 2.53 72.46a1.36 1.36 0 0 1-2.7.19c-4-23.94-5.38-48.05-7.45-72.12-.89-12-1.53-24.11-2.08-36.18a305.83 305.83 0 0 1 .23-36.33.68.68 0 0 1 1.35-.09zM1064.12 901.51c-4.84-7.41-9.73-14.77-14.78-22-2.61-3.7-4.73-7.17-7.89-11a39 39 0 0 0-11.12-8.93 38 38 0 0 0-13.7-4.25l-1.82-.14c.21-.65.39-1.3.53-2a8.09 8.09 0 0 0 .18-3.3 8.74 8.74 0 0 0-1.5-3.54 9.45 9.45 0 0 0-6.78-3.73l-5.28-.08a9.67 9.67 0 0 0-7.08 3 9.28 9.28 0 0 0-2.46 7.26 8.46 8.46 0 0 0 .5 2.1l-16.37-.14-16.11.11c.16-.54.31-1.09.43-1.63a8.09 8.09 0 0 0 .18-3.3 8.72 8.72 0 0 0-1.5-3.54 9.45 9.45 0 0 0-6.78-3.73l-5.28-.08a9.67 9.67 0 0 0-7.08 3 9.28 9.28 0 0 0-2.46 7.26 8.48 8.48 0 0 0 .6 2.35c-.69 0-1.4.1-2.12.18a39.43 39.43 0 0 0-13.68 4.39 37.78 37.78 0 0 0-11 9.12c-2.92 3.79-5.31 7.19-7.87 10.89-5 7.28-10 14.59-14.65 22.14a.64.64 0 0 0 1 .77c6.06-6.49 11.78-13.23 17.48-20 2.86-3.27 5.64-7 8.33-10.07a34.21 34.21 0 0 1 9.67-7.22 32.93 32.93 0 0 1 11.47-3.47c3.81-.36 8.49-.09 12.85-.12l26.49.18 26.49-.23c4.32 0 9.08-.24 12.89.08a34.31 34.31 0 0 1 11.55 3.29 33 33 0 0 1 9.71 7.19c2.62 2.89 5.37 6.83 8.13 10.13 5.46 6.95 11.07 13.78 16.74 20.57a1.28 1.28 0 0 0 2-1.52zM944.85 855a4.13 4.13 0 0 1-.65-2.53 2.87 2.87 0 0 1 3.3-2.65l5-.06a2.7 2.7 0 0 1 2.12.72 3.5 3.5 0 0 1 .82 1 4.32 4.32 0 0 1 .61 1.78c.12.55.27 1.11.44 1.66l-6.37.08h-5.27zm53.83-2.53a2.87 2.87 0 0 1 3.3-2.65l5-.06a2.7 2.7 0 0 1 2.12.72 3.5 3.5 0 0 1 .82 1 4.32 4.32 0 0 1 .61 1.78c.13.6.3 1.21.48 1.81-2.68 0-5.23 0-7.92-.06h-3.75a4.14 4.14 0 0 1-.66-2.55zM1099.57 1061.27a97.37 97.37 0 0 1-41.5 61.59 99.55 99.55 0 0 1-73.78 14.65 100.31 100.31 0 0 1 34.19-197.61 99.8 99.8 0 0 1 64.55 38.41 98 98 0 0 1 16.71 34.19 102 102 0 0 1 2.36 37.8 1.27 1.27 0 0 1-1.42 1.11 1.29 1.29 0 0 1-1.11-1.4 97.91 97.91 0 0 0-20.31-68.8 94.31 94.31 0 0 0-61.65-35.21c-24-3.27-49.07 2.82-68.49 17.23a94 94 0 0 0 36.43 168 95.61 95.61 0 0 0 36.09.56 97.61 97.61 0 0 0 33.8-13 93.18 93.18 0 0 0 26.78-24.72 97.24 97.24 0 0 0 16.09-33.1.64.64 0 0 1 1.24.29z" fill="#c3c4c7"/><path d="M1066.94 1059.85a65.85 65.85 0 0 1-11.07 22.06 67.14 67.14 0 0 1-18.8 16.47c-14.52 8.69-32.53 11.07-49.1 7.28A68.4 68.4 0 0 1 961.8 985a67.77 67.77 0 0 1 92.27 8.05 66.2 66.2 0 0 1 16.84 46 1.275 1.275 0 0 1-2.55 0 65 65 0 0 0-18-42.62 63.34 63.34 0 0 0-41.2-19.42 62.21 62.21 0 0 0-19.73 122.4 63.31 63.31 0 0 0 45.25-5.29 66.66 66.66 0 0 0 31-34.71.64.64 0 0 1 .83-.36.64.64 0 0 1 .43.8z" fill="#c3c4c7"/><path d="M1162.86 932.86a40.2 40.2 0 0 0-28.24-31.86 42.56 42.56 0 0 0-11.1-1.64l-10.46-.06-20.92-.11-243.81-.09a56.1 56.1 0 0 0-38-22.68c-8.8-1-16.54-.44-24.74-.64-7.85-.18-17 0-25.09 2.64a61.21 61.21 0 0 0-22.38 12.36A61.85 61.85 0 0 0 716.66 936v48.7l.22 97.21.34 48.6.09 12.15c.05 2.12-.05 3.82.14 6.35a18.48 18.48 0 0 0 12.73 15.59 19.84 19.84 0 0 0 6.79.84l6.08-.09 6-.12c-8.76.27-14.74.48-15.78.61l222.9-.68 83.67-.51 83.67-.44a38.91 38.91 0 0 0 34.94-21.73c3.39-6.41 4.2-14.11 4-21l.11-20.92.45-83.67.22-41.83.11-20.92.06-10.46c-.01-3.34.18-7.13-.54-10.82zm-419.74 227.7l-6.08-.09a15.57 15.57 0 0 1-5.19-.73 13.24 13.24 0 0 1-7.51-6.44c-1.72-3-1.5-6.29-1.43-10.6l.09-12.15.34-48.6.23-97.21.19-48.5a55.27 55.27 0 0 1 19.07-40 54 54 0 0 1 19.79-11c7.39-2.35 14.72-2.57 23-2.44 8 .13 16.52-.42 23.81.46a50.78 50.78 0 0 1 21.11 7.92c12.58 8.47 21.26 22.79 22.13 38 .43 15.73.12 32.27.37 48.37l.76 97.21.47 48.6.26 24.25c.05 6.29-4.75 12-10.82 13.62-3 .31-6.93.6-11.55.89q-44.53-1.03-89.04-1.56zm412.67-19.34a36.13 36.13 0 0 1-32.24 20.49l-83.67-.44-83.67-.51-104.65-.6a16.88 16.88 0 0 0 6.13-12.4l.31-24.35.47-48.6.76-97.21c.08-16.3.33-32.18 0-48.83a54.43 54.43 0 0 0-6.84-23.33l239.79-.09 20.92-.11 10.46-.06a36.84 36.84 0 0 1 9.54 1.31 34.75 34.75 0 0 1 24.66 27.26c1 6.2.45 13.58.65 20.44l.11 20.92.22 41.83.45 83.67.11 20.92c.18 6.98-.47 13.59-3.54 19.68z" fill="#c3c4c7"/><path d="M1108.4 1120.78c3.05-1.82 7.7 0 9.38 3.7a9.85 9.85 0 0 1-1.92 11.35 10.05 10.05 0 0 1-11.32 1.84c-3.62-1.69-5.58-6-4.37-9.3a1.35 1.35 0 0 1 2.46-.16l.09.16c2.27 4.3 6.29 4.36 8 2.36a4.25 4.25 0 0 0 1.1-3.79 7.89 7.89 0 0 0-3.46-4.88h-.05a.74.74 0 0 1-.17-1 .76.76 0 0 1 .26-.28zM924.6 952.17a218 218 0 0 1-29.66 2.57l-7.42.17h-1.85a13.64 13.64 0 0 1-2.42-.07 7.89 7.89 0 0 1-5.42-3.49c-1.32-1.74-1.33-4.72-1.28-5.48v-9.27a17.06 17.06 0 0 1 .11-2.36 8 8 0 0 1 6.58-6.7 13.5 13.5 0 0 1 2.45-.1l7.42.11 14.83.27 7.42.26 3.71.13c.88 0 3.46.13 4.93 1.34a6.79 6.79 0 0 1 2.84 4.75 28.48 28.48 0 0 1-.17 4.06c-.24 2.47-.41 4.94-.73 7.42a1.28 1.28 0 0 1-2.55 0c-.31-2.47-.49-4.94-.73-7.42-.13-1.08-.14-2.83-.29-3.35a2 2 0 0 0-1.09-1.28c-.38-.38-3.57.07-5.92 0l-7.42.26-14.83.27-7.42.11c-1.7 0-1.17 0-1.57.21a.87.87 0 0 0-.32.62v6.91c0 2.27-.14 5.81.09 5.37a.92.92 0 0 0 .58.48 8.2 8.2 0 0 0 1.28.06h1.85l7.42.17a217.92 217.92 0 0 1 29.66 2.57.65.65 0 0 1 0 1.27zM733.82 899.28a27.33 27.33 0 0 1 18.13 3.39c5.63 3.32 9.52 8.41 13.26 12.76s7.58 8.23 12.28 10.43 10 3.05 15.54 3a37.92 37.92 0 0 0 15.8-3.09c4.91-2.16 9.1-5.76 13.33-9.73s8.54-8.51 14.24-11.47a31.53 31.53 0 0 1 18.17-3.59 1.28 1.28 0 0 1 0 2.55 33.12 33.12 0 0 0-15.62 5.3c-4.5 3.09-8.33 7.27-12.45 11.63s-9 8.61-14.82 11.42a44.85 44.85 0 0 1-18.56 4.17 39.44 39.44 0 0 1-18.81-3.87c-6-3-10.48-8-14.1-12.72s-6.81-9.44-11-12.8-9.57-5.24-15.38-6.13a.64.64 0 0 1 0-1.27zM1161.5 941.25a62.41 62.41 0 0 1-1.11 20.72c-1.48 6.83-3.94 13.32-6.21 19.66-5 12.52-8.36 25.16-8.29 38.28a84.31 84.31 0 0 0 1.73 19.38 114.74 114.74 0 0 0 6.11 18.76c2.4 6.27 5.23 12.65 6.76 19.52a67.24 67.24 0 0 1 1.65 20.76 1.28 1.28 0 0 1-1.36 1.18 1.29 1.29 0 0 1-1.18-1.18 84.25 84.25 0 0 0-3.9-19.4 190.6 190.6 0 0 0-7.7-18.46 109.3 109.3 0 0 1-7-19.68 91.25 91.25 0 0 1-2.34-21c0-14.13 4.26-28 9.54-40.53 5.59-12.44 10.39-24.5 12-38a.64.64 0 0 1 .71-.56.65.65 0 0 1 .59.55zM720.75 919.88c.32 16-1.25 32.33-6.39 47.79a104.82 104.82 0 0 1-25.84 41.06c-11.54 11.61-25.29 20.44-38.38 29.48s-26 18.66-32.52 32.35c-6.5 13.41-5.69 30.23-1 44.29 5.17 14.24 17.48 24.74 31.42 31.22s29.53 10.16 45.12 12.38a357.71 357.71 0 0 0 47.4 3.05c63.66.06 127.16.1 189.87-11.82s125 29.62 186.63 12.64a1.27 1.27 0 0 1 1.58.86 1.3 1.3 0 0 1-.84 1.57c-30.57 9.7-58.73 7.11-92.48-.73-37.92-9.69-62.28-14.75-93.69-8.27s-63.07 10.83-94.91 15-63.93-2-96.19-2a347.73 347.73 0 0 1-48.36-3.28c-16-2.37-32.11-6.06-47.08-13.21a79.17 79.17 0 0 1-20.7-14 56.16 56.16 0 0 1-14-21.09 73.35 73.35 0 0 1-4-24.73 56 56 0 0 1 5.42-24.64c7.69-15.59 21.94-25.38 35.07-34.27 13.4-8.86 26.77-17.44 38.24-28.22a100.8 100.8 0 0 0 26-38.77c6.06-15.84 7.94-30.7 8.32-46.65a.64.64 0 0 1 1.27 0z" fill="#c3c4c7"/></svg>
