<svg clip-rule="evenodd" fill-rule="evenodd" stroke-linejoin="round" stroke-miterlimit="1.41421" viewBox="0 0 117 111" xmlns="http://www.w3.org/2000/svg"><path d="m91.151 110.715h-90.524v-63.51c0-9.538 7.732-17.271 17.27-17.271h54.613c10.295 0 18.641 8.346 18.641 18.641z" fill="#dcdcde" fill-rule="nonzero"/><path d="m90.706 22.509-39.032 12.07s-3.215-4.383.534-13.102 17.564-17.247 31.608-19.616c5.264-.888 12.525-1.257 18.679-1.4 8.568-.198 15.145 8.037 13.604 17.025-.681 3.966-2.166 8.304-5.006 12.647" fill="#c3c4c7" fill-rule="nonzero"/><path d="m69.104 74.512c0 12.502-10.135 22.638-22.638 22.638-12.502 0-22.637-10.136-22.637-22.638s10.135-22.638 22.637-22.638c12.503 0 22.638 10.136 22.638 22.638" fill="#3895ba" fill-rule="nonzero"/><path d="m23.833 61.294h45.271v13.218h-45.271z" fill="#3895ba"/><g fill-rule="nonzero"><path d="m69.104 61.661c0 12.502-10.135 22.638-22.638 22.638-12.502 0-22.637-10.136-22.637-22.638s10.135-22.638 22.637-22.638c12.503 0 22.638 10.136 22.638 22.638" fill="#c3c4c7"/><path d="m37.675 63.617c2.282 2.07 4.5 4.202 6.719 6.335l-1.408.092 3.292-4.369c1.091-1.462 2.213-2.899 3.338-4.335 1.115-1.442 2.245-2.874 3.401-4.286 1.141-1.423 2.31-2.825 3.499-4.211.24-.279.662-.312.942-.071.26.223.304.606.116.883-1.029 1.508-2.08 3-3.158 4.472-1.063 1.482-2.153 2.945-3.256 4.397-1.095 1.459-2.191 2.916-3.32 4.348l-3.365 4.314-.016.021c-.313.402-.893.473-1.294.16-.034-.026-.069-.058-.098-.088-2.132-2.219-4.265-4.438-6.335-6.719-.247-.273-.227-.695.046-.943.256-.232.646-.227.897 0" fill="#fff"/><path d="m83.518 16.505c-28.541 5.03-43.563 31.834-37.976 33.448 5.483 1.583 16.947-19.821 33.494-21.375 12.767-1.2 10.631 4.567 3.303 7.795-10.851 4.778-12.738 9.053-11.087 12.071s21.755-2.957 33.967-12.071c7.345-5.483 9.435-13.581 9.435-13.581" fill="#c3c4c7"/><path d="m83.643 17.16s-.179.035-.525.103c-.347.067-.865.165-1.514.316-1.308.293-3.237.775-5.618 1.589-2.377.824-5.214 1.988-8.29 3.671-3.078 1.675-6.382 3.883-9.667 6.674-3.269 2.797-6.543 6.196-9.281 10.272-1.334 2.035-2.61 4.269-3.247 6.63-.15.583-.24 1.177-.216 1.695.015.254.058.491.132.65.078.158.15.231.261.288l.099.038c.056.017-.051-.009-.014-.001l.062.013.123.027c.127.014.133.013.273.01.219-.01.467-.067.723-.156.517-.193 1.055-.504 1.578-.87 2.097-1.502 4.041-3.526 6.046-5.481 2.001-1.978 4.051-3.989 6.245-5.897 2.194-1.905 4.533-3.716 7.091-5.252 2.552-1.534 5.346-2.782 8.323-3.447 1.496-.348 3.004-.489 4.497-.57 1.499-.067 3.015-.078 4.577.199.78.149 1.581.352 2.384.825.397.24.803.568 1.113 1.043.309.475.461 1.097.41 1.639-.107 1.102-.651 1.846-1.168 2.479-.539.629-1.138 1.14-1.759 1.599-1.232.911-2.608 1.608-3.922 2.174-1.294.576-2.527 1.174-3.738 1.837-2.377 1.32-4.715 2.857-6.124 4.859-.69.995-1.013 2.094-.749 3.093.065.25.153.498.282.735l.022.045c.015.029-.062-.102-.012-.021l.066.097c-.003-.035-.056-.065-.016-.039.028.03.113.068.2.107.402.152 1.027.195 1.62.188 2.456-.078 4.969-.699 7.333-1.353 4.751-1.364 9.121-3.147 13.015-5.029 3.894-1.894 7.315-3.923 10.155-5.963.647-.485 1.401-1.054 1.969-1.573.292-.266.579-.528.861-.785.27-.278.536-.551.796-.818 1.009-1.099 1.879-2.168 2.563-3.206 1.403-2.055 2.224-3.85 2.735-5.075.247-.617.423-1.095.525-1.418.097-.313.147-.475.147-.475l.016-.051c.109-.351.482-.548.833-.439.348.108.544.475.442.823 0 0-.054.187-.16.549-.106.353-.284.861-.535 1.517-.52 1.3-1.351 3.191-2.794 5.377-.705 1.104-1.604 2.248-2.657 3.428-.272.288-.549.582-.832.881-.305.287-.616.579-.933.876-.654.605-1.27 1.082-2.033 1.674-2.893 2.164-6.384 4.261-10.349 6.209-3.967 1.943-8.395 3.78-13.274 5.209-2.453.684-4.977 1.352-7.792 1.463-.716-.001-1.44.002-2.296-.295-.219-.089-.442-.186-.675-.367-.1-.067-.261-.226-.38-.38l-.075-.109c.027.045-.076-.118-.078-.127l-.034-.067c-.19-.35-.336-.736-.44-1.134-.214-.798-.198-1.67.005-2.455.194-.794.562-1.5.985-2.135 1.769-2.499 4.258-4.061 6.747-5.482 1.252-.696 2.565-1.34 3.867-1.927 1.293-.565 2.478-1.183 3.554-1.984.532-.396 1.028-.832 1.423-1.301.394-.459.683-.993.697-1.351.017-.323-.112-.549-.579-.842-.448-.267-1.073-.448-1.717-.562-1.302-.225-2.717-.244-4.124-.181-1.413.072-2.822.197-4.169.507-5.485 1.204-10.337 4.537-14.606 8.206-2.147 1.85-4.175 3.82-6.184 5.788-2.031 1.954-3.954 3.969-6.314 5.652-.598.413-1.243.797-1.999 1.076-.383.132-.8.235-1.255.255-.196.015-.528-.013-.732-.053l-.123-.027-.062-.014s-.151-.039-.134-.039c-.124-.046-.248-.088-.369-.148-.495-.239-.888-.701-1.083-1.151-.201-.454-.259-.887-.284-1.294-.031-.812.101-1.537.278-2.226.758-2.731 2.113-5.016 3.518-7.156 2.877-4.241 6.261-7.716 9.641-10.585 3.393-2.865 6.838-5.069 10.017-6.758 3.184-1.691 6.115-2.851 8.567-3.666 2.459-.807 4.434-1.274 5.795-1.561.685-.15 1.198-.24 1.545-.303.348-.063.527-.096.527-.096.362-.066.709.174.776.536.065.359-.171.704-.528.774" fill="#004e6e"/><path d="m81.431 10.88s-.548.137-1.506.376c-.482.114-1.069.25-1.702.456-.642.205-1.367.387-2.152.672-.782.285-1.647.537-2.523.916-.886.35-1.814.732-2.75 1.182-.957.404-1.903.911-2.876 1.401-.953.527-1.929 1.053-2.86 1.649-.941.582-1.863 1.189-2.754 1.813-.896.616-1.741 1.275-2.548 1.919-.798.659-1.554 1.311-2.245 1.957-.719.62-1.311 1.287-1.898 1.868-.543.617-1.048 1.179-1.473 1.694-.402.529-.778.979-1.048 1.372-.534.793-.839 1.246-.839 1.246l-.032.049c-.206.304-.619.385-.924.18-.287-.194-.374-.574-.212-.872 0 0 .281-.511.773-1.406.257-.441.615-.942 1.004-1.537.403-.583.909-1.199 1.457-1.876.587-.637 1.185-1.37 1.907-2.052.686-.722 1.48-1.403 2.302-2.107.834-.687 1.706-1.388 2.631-2.043.463-.327.93-.657 1.399-.987l1.467-.907c.977-.608 1.998-1.143 2.994-1.678 1.017-.497 2.006-1.01 3.005-1.418.984-.44 1.964-.794 2.895-1.124.921-.358 1.829-.589 2.648-.852.815-.27 1.614-.403 2.293-.58.689-.176 1.278-.274 1.764-.358.974-.164 1.531-.258 1.531-.258.363-.061.707.183.768.547.059.345-.162.674-.496.758" fill="#004e6e"/><path d="m51.64 21.127s.244-.433.67-1.191c.264-.374.578-.848.96-1.358.402-.473.811-1.06 1.349-1.6.514-.569 1.096-1.154 1.731-1.751.627-.607 1.321-1.205 2.042-1.821.738-.591 1.501-1.204 2.304-1.784.789-.603 1.628-1.156 2.451-1.735.843-.547 1.676-1.112 2.536-1.6.847-.509 1.689-.995 2.516-1.443 1.638-.926 3.231-1.667 4.595-2.299 1.368-.623 2.531-1.089 3.352-1.398.821-.305 1.29-.48 1.29-.48.346-.129.73.047.858.392.12.323-.025.68-.327.83l-.02.01s-.442.218-1.214.599c-.388.188-.86.409-1.39.69-.534.272-1.136.579-1.792.914-.648.35-1.362.707-2.095 1.124-.73.424-1.523.827-2.313 1.297-.801.452-1.615.94-2.433 1.451-.827.498-1.635 1.05-2.469 1.563-.807.551-1.633 1.079-2.404 1.652-.788.552-1.532 1.133-2.253 1.694-.711.57-1.409 1.113-2.03 1.668-.631.545-1.209 1.079-1.715 1.595-.53.498-.953.998-1.36 1.421-.36.439-.674.821-.933 1.136-.491.715-.771 1.124-.771 1.124l-.004.005c-.208.304-.623.381-.927.173-.287-.197-.37-.58-.204-.878" fill="#004e6e"/></g></svg>
