<svg clip-rule="evenodd" fill-rule="evenodd" stroke-linejoin="round" stroke-miterlimit="1.41421" viewBox="0 0 107 126" xmlns="http://www.w3.org/2000/svg"><path d="m48.338 65.94c0 1.1-.9 2-2 2h-43.801c-1.1 0-2-.9-2-2v-27.867c0-1.1.9-2 2-2h43.801c1.1 0 2 .9 2 2z" fill="#c3c4c7" fill-rule="nonzero"/><path d="m.476 43.587h44.068v8.063h-44.068z" fill="#3895ba"/><path d="m44.59 97.074c-3.899 0-7.061-3.161-7.061-7.061v-80.922c0-3.899 3.162-7.06 7.061-7.06h37.314c3.899 0 7.06 3.161 7.06 7.06v80.922c0 3.9-3.161 7.061-7.06 7.061h-30.829" fill="#fff" fill-rule="nonzero"/><path d="m37.529 17.55h51.435v63.797h-51.435z" fill="#dcdcde"/><path d="m38.183 17.55h50.128v11.49h-50.128z" fill="#187aa2"/><g fill-rule="nonzero"><path d="m44.565 97.574s-.27-.013-.793-.04c-.579-.069-1.401-.201-2.387-.649-.977-.445-2.118-1.222-3.037-2.507-.451-.642-.845-1.403-1.102-2.271-.131-.433-.213-.893-.272-1.37-.014-.24-.028-.483-.042-.729-.002-.228-.004-.46-.006-.694-.061-7.501-.149-18.218-.254-31.077-.06-12.86-.13-27.863-.206-43.937-.001-1.005-.003-2.014-.005-3.026l-.002-1.522c.002-.279-.008-.455.005-.818.02-.268.008-.477.054-.795.286-2.423 1.632-4.573 3.648-5.879 1-.648 2.15-1.077 3.339-1.238.599-.084 1.214-.081 1.703-.082l1.566-.002c2.091-.004 4.192-.007 6.302-.011 8.439-.013 17.012-.027 25.585-.042l3.215-.005c.389.016.555.02.873.045.324.05.675.083.975.161.606.144 1.205.335 1.761.618 2.265 1.063 3.936 3.236 4.45 5.671.058.305.102.613.141.92.014.301.037.637.038.91l-.003 1.598-.006 3.191c-.004 2.125-.009 4.243-.013 6.353-.016 8.439-.033 16.744-.049 24.781-.008 16.075-.161 31.078-.218 43.937-.008.421.009.759-.021 1.242-.005.37-.074.844-.155 1.305-.188.862-.517 1.681-.958 2.418-.875 1.488-2.247 2.586-3.743 3.219-.758.303-1.548.481-2.335.554-.824.05-1.47.014-2.179.016-1.387-.011-2.735-.022-4.041-.033-5.224-.044-9.779-.082-13.53-.113-7.501-.063-11.788-.098-11.788-.098-.276-.003-.498-.228-.495-.505.002-.273.223-.493.495-.495 0 0 4.287-.036 11.788-.099 3.751-.031 8.306-.069 13.53-.113 1.306-.01 2.654-.022 4.041-.033.679-.012 1.441.006 2.042-.049.632-.074 1.261-.229 1.861-.483 1.182-.532 2.254-1.43 2.922-2.617.34-.586.59-1.232.731-1.91.045-.315.106-.622.109-1.05.021-.311.002-.773.005-1.156-.058-12.859-.21-27.862-.219-43.937-.016-8.037-.032-16.342-.049-24.781-.004-2.11-.008-4.228-.012-6.353l-.006-3.191-.003-1.598c-.006-.485-.045-.904-.136-1.35-.379-1.741-1.582-3.301-3.204-4.07-.397-.208-.828-.341-1.261-.448-.218-.06-.404-.066-.607-.111-.215-.022-.586-.033-.731-.043l-3.215-.006c-8.573-.014-17.146-.028-25.585-.042-2.11-.003-4.211-.006-6.302-.01-1.014.015-2.18-.046-2.981.055-.871.116-1.711.425-2.448.898-1.483.922-2.485 2.608-2.687 4.236-.038.185-.034.49-.052.729l-.005.709-.003 1.522c-.002 1.012-.003 2.021-.005 3.026-.075 16.074-.146 31.077-.206 43.937-.105 12.859-.192 23.576-.253 31.077-.124 1.842.366 3.295 1.131 4.422.765 1.111 1.732 1.796 2.566 2.194.841.402 1.562.525 2.007.593.513.034.778.052.778.052l.008.001c.275.018.483.257.465.532-.019.273-.252.479-.524.466" fill="#187aa2"/><path d="m12.637 59.144c0 1.934-1.568 3.502-3.502 3.502s-3.502-1.568-3.502-3.502 1.568-3.502 3.502-3.502 3.502 1.568 3.502 3.502" fill="#dcdcde"/><path d="m17.81 59.144c0 1.934-1.568 3.502-3.502 3.502s-3.502-1.568-3.502-3.502 1.568-3.502 3.502-3.502 3.502 1.568 3.502 3.502" fill="#fff"/><path d="m71.336 36.073h-32.563l-.412 31.867h32.975c1.284 0 2.335-1.05 2.335-2.334v-27.198c0-1.284-1.051-2.335-2.335-2.335" fill="#fff"/><path d="m38.195 61.675c1.926-.229 3.852-.246 5.778-.254l5.778-.02 11.555-.039-.753.507c.58-1.435 1.603-2.638 2.813-3.52 1.214-.886 2.619-1.469 4.071-1.762l-.68.826.033-11.307.667.796c-1.512-.278-2.979-.869-4.24-1.786-1.257-.913-2.312-2.173-2.878-3.678l.729.505c-3.758-.032-7.516.012-11.273-.08l-2.819-.049c-.939-.018-1.879-.067-2.818-.099-1.879-.063-3.758-.163-5.637-.302-.138-.011-.241-.131-.231-.269.009-.125.109-.222.231-.231 1.879-.139 3.758-.24 5.637-.303.939-.032 1.879-.081 2.818-.099l2.819-.049c3.757-.092 7.515-.048 11.273-.078l.533-.005.196.508c.45 1.172 1.3 2.191 2.351 2.943 1.052.755 2.299 1.251 3.592 1.48l.665.117.002.679.033 11.307.002.693-.682.132c-1.233.24-2.417.726-3.422 1.45-1.003.72-1.821 1.684-2.278 2.793l-.21.509-.544-.002-11.555-.039-5.778-.02c-1.926-.008-3.852-.025-5.778-.254-.276-.033-.473-.283-.441-.559.028-.236.215-.414.441-.441" fill="#dcdcde"/><path d="m38.66 44.997-.193 13.285c2.928-.02 5.297-2.988 5.297-6.649 0-3.579-2.266-6.489-5.104-6.636" fill="#dcdcde"/><path d="m102.351 77.549c5.822-13.49 2.94-22.464-8.827-32.549" fill="#fff"/><path d="m101.708 77.293s.193-.544.53-1.496c.171-.474.398-1.053.573-1.706.178-.661.442-1.379.615-2.206.185-.82.427-1.702.537-2.653.18-.944.225-1.946.287-2.979-.003-1.029.027-2.101-.15-3.165-.062-.535-.124-1.074-.271-1.6-.143-.526-.206-1.073-.411-1.584-.184-.516-.348-1.037-.544-1.546-.222-.5-.443-.999-.662-1.493-.222-.494-.518-.951-.768-1.421-.244-.474-.537-.916-.835-1.345-.556-.883-1.194-1.673-1.78-2.44-.575-.774-1.22-1.434-1.762-2.084-.568-.629-1.131-1.172-1.597-1.684-.465-.513-.921-.915-1.275-1.266-.713-.7-1.121-1.1-1.121-1.1l-.021-.021c-.273-.268-.277-.705-.01-.978.252-.257.657-.274.931-.052 0 0 .452.369 1.244 1.015.388.332.883.708 1.402 1.2.526.484 1.129 1.02 1.748 1.648.598.652 1.297 1.308 1.943 2.097.666.772 1.339 1.611 1.956 2.549.326.455.647.926.923 1.437.281.507.604.998.858 1.535.249.54.5 1.084.752 1.631.212.564.389 1.146.583 1.72.215.568.287 1.179.435 1.764.153.587.217 1.186.279 1.78.177 1.183.136 2.36.121 3.488-.097 1.125-.199 2.209-.425 3.211-.159 1.017-.447 1.938-.676 2.797-.209.863-.558 1.618-.784 2.302-.236.694-.493 1.243-.693 1.707-.412.923-.647 1.45-.647 1.45-.155.349-.564.507-.913.352-.332-.147-.489-.527-.372-.864" fill="#c3c4c7"/><path d="m67.445 119.019c-14.423-28.768-.769-60.744 6.21-60.022 6.98.722-.36 23.063 4.942 24.965 8.695 3.121 9.995-10.252 9.562-19.702s-9.674-29.217-3.801-31.431c5.872-2.214 21.37 38.892 17.503 53.541-3.867 14.648-15.724 38.345-15.724 38.345" fill="#fff"/><path d="m66.823 119.321s-.108-.22-.318-.646c-.213-.42-.517-1.066-.906-1.921-.762-1.698-1.804-4.228-2.791-7.562-.982-3.331-1.894-7.475-2.309-12.302-.412-4.819-.364-10.327.619-16.215.488-2.942 1.197-5.978 2.21-9.042 1.035-3.053 2.318-6.166 4.263-9.088 1.004-1.434 2.096-2.901 3.868-3.926.455-.24.966-.445 1.549-.518.289-.041.598-.036.903.008.159.018.58.107.827.217 1.15.438 1.874 1.478 2.24 2.403.733 1.905.79 3.775.839 5.622.022 1.849-.071 3.687-.163 5.526-.092 1.837-.199 3.68-.196 5.506.003.911.035 1.819.138 2.695.105.864.291 1.732.638 2.338.175.297.373.493.588.596l.085.036c.017.009-.041-.011.025.01l.086.026.34.105c.241.083.441.124.62.153.765.156 1.595.148 2.297-.098 1.445-.469 2.491-1.963 3.175-3.603.695-1.66 1.087-3.51 1.356-5.377.26-1.874.384-3.787.417-5.708.014-1.912.019-3.886-.199-5.723-.236-1.871-.665-3.762-1.131-5.645-.945-3.77-2.091-7.524-3.064-11.343-.48-1.913-.921-3.842-1.206-5.831-.14-.995-.238-2.007-.232-3.053.023-1.044.106-2.147.649-3.275.281-.554.72-1.108 1.303-1.473.147-.086.292-.177.447-.238.098-.041.106-.052.278-.114.076-.021.069-.028.227-.064.488-.107.856-.063 1.219.028.699.195 1.193.543 1.628.892.434.353.8.733 1.143 1.12 1.346 1.558 2.345 3.234 3.287 4.921 1.852 3.385 3.341 6.858 4.678 10.317 2.642 6.929 4.64 13.825 5.924 20.514.63 3.347 1.078 6.646 1.182 9.887.049 1.619.007 3.226-.192 4.809-.104.797-.241 1.562-.457 2.364-.208.721-.414 1.435-.618 2.142-1.723 5.71-3.744 10.723-5.594 15.153-1.862 4.42-3.59 8.223-5.039 11.343-2.906 6.235-4.701 9.738-4.701 9.738-.171.341-.587.478-.928.306-.339-.17-.475-.586-.309-.925 0 0 1.742-3.504 4.563-9.749 1.407-3.124 3.083-6.933 4.88-11.348 1.768-4.417 3.768-9.435 5.425-15.003.201-.708.404-1.423.609-2.145.171-.649.304-1.38.393-2.1.178-1.456.214-2.977.16-4.527-.112-3.103-.559-6.322-1.19-9.597-1.285-6.55-3.286-13.359-5.914-20.164-1.327-3.394-2.81-6.804-4.606-10.055-.904-1.611-1.887-3.217-3.055-4.553-.563-.642-1.278-1.264-1.778-1.388-.101-.035-.226-.016-.209-.023.038-.019-.081.023-.12.034.06-.019-.041.023-.054.029-.071.025-.127.068-.19.101-.235.151-.421.376-.579.678-.305.621-.416 1.498-.421 2.38-.002.893.088 1.819.224 2.748.271 1.861.712 3.737 1.183 5.614.943 3.758 2.077 7.517 3.028 11.361.469 1.925.906 3.87 1.156 5.889.231 2.058.213 4.013.193 6.005-.04 1.986-.173 3.972-.454 5.949-.293 1.974-.707 3.952-1.509 5.86-.404.949-.909 1.885-1.61 2.728-.692.837-1.626 1.586-2.738 1.947-1.113.375-2.258.376-3.35.148-.29-.055-.553-.12-.762-.194l-.34-.105-.085-.027c.01.004-.106-.032-.142-.049l-.242-.106c-.645-.309-1.114-.847-1.411-1.364-.582-1.056-.744-2.086-.875-3.078-.112-.993-.14-1.961-.141-2.917.005-1.911.12-3.772.218-5.607.098-1.833.195-3.641.179-5.405-.026-1.746-.129-3.527-.682-4.943-.536-1.429-1.713-1.899-2.946-1.204-1.257.703-2.335 2.021-3.237 3.333-1.81 2.693-3.072 5.696-4.077 8.637-.989 2.958-1.69 5.906-2.174 8.767-.958 5.727-1.099 11.091-.731 15.795.358 4.711 1.207 8.761 2.133 12.019.929 3.261 1.923 5.743 2.649 7.404.365.823.654 1.457.867 1.886.206.429.312.65.312.65.165.344.019.758-.325.923-.343.164-.753.021-.92-.319" fill="#c3c4c7"/></g></svg>
