<svg clip-rule="evenodd" fill-rule="evenodd" stroke-miterlimit="10" viewBox="0 0 114 95" xmlns="http://www.w3.org/2000/svg"><g fill-rule="nonzero"><path d="m2.061 94.715v-82.197-4.131c0-3.607 2.924-6.531 6.531-6.531h96.621c3.607 0 6.531 2.924 6.531 6.531v86.328h-109.683z" fill="#dcdcde"/><path d="m2.061 18.964v-5.915-4.904c0-4.282 2.924-7.753 6.531-7.753h96.621c3.607 0 6.531 3.471 6.531 7.753v10.819h-109.683z" fill="#3895ba"/><path d="m113.526 18.974s-.442.038-1.272.108c-.829.055-2.046.135-3.594.237-3.097.174-7.52.343-12.829.393-10.617.053-24.773.123-38.929.193-14.156-.07-28.312-.14-38.928-.192-5.309-.05-9.733-.219-12.829-.394-1.549-.102-2.765-.182-3.595-.236-.829-.071-1.271-.109-1.271-.109v-.5s.442-.038 1.271-.109c.83-.054 2.046-.134 3.595-.236 3.096-.175 7.52-.344 12.829-.394 10.616-.052 24.772-.122 38.928-.192 14.156.07 28.312.14 38.929.193 5.309.05 9.732.218 12.829.393 1.548.102 2.765.182 3.594.237.83.07 1.272.108 1.272.108z" fill="#004e6e"/><path d="m102.08 84.445h-32.754v-55.143h32.754" fill="#fff"/><path d="m89.627 52.497h-12.354v-11.495c0-2.916 2.364-5.281 5.281-5.281h12.558v11.291c0 3.029-2.456 5.485-5.485 5.485" fill="#dcdcde"/><path d="m94.888 78.808h-17.615v-20.226h17.839v20.002c0 .124-.1.224-.224.224" fill="#3895ba"/><path d="m57.913 84.867h-47.473v-39.276h52.281v39.276" fill="#fff"/><path d="m57.913 38.671h-47.473v-3.576c0-3.191 2.587-5.778 5.779-5.778h46.502v9.354" fill="#004e6e"/><path d="m45.524 73.665s-.962-2.618-3.527-3.084c-1.317-.239-2.453.107-3.247.5-.758.376-.972 1.366-.439 2.023.569.7 1.487 1.485 2.856 1.733 2.649.481 4.357-1.172 4.357-1.172z" fill="#fff" stroke="#c3c4c7"/><path d="m52.963 75.92c.706-.492.789-1.498.16-2.086-.679-.634-1.727-1.31-3.111-1.307-2.606.005-4.14 2.069-4.14 2.069s1.394 2.273 4.085 2.267c1.319-.002 2.324-.468 3.006-.943" fill="#fff"/></g><path d="m52.963 75.92c.706-.492.789-1.498.16-2.086-.679-.634-1.727-1.31-3.111-1.307-2.606.005-4.14 2.069-4.14 2.069s1.394 2.273 4.085 2.267c1.319-.002 2.324-.468 3.006-.943z" fill="none" stroke="#c3c4c7"/><path d="m54.045 69.555c.745-.432.909-1.429.331-2.066-.625-.688-1.614-1.448-2.994-1.56-2.598-.209-4.295 1.722-4.295 1.722s1.203 2.38 3.886 2.596c1.314.106 2.354-.275 3.072-.692" fill="#fff" fill-rule="nonzero"/><path d="m54.045 69.555c.745-.432.909-1.429.331-2.066-.625-.688-1.614-1.448-2.994-1.56-2.598-.209-4.295 1.722-4.295 1.722s1.203 2.38 3.886 2.596c1.314.106 2.354-.275 3.072-.692z" fill="none" stroke="#c3c4c7"/><path d="m56.642 64c.826-.243 1.222-1.174.809-1.93-.445-.817-1.228-1.791-2.543-2.226-2.476-.819-4.578.655-4.578.655s.611 2.599 3.168 3.445c1.25.413 2.348.29 3.144.056" fill="#fff" fill-rule="nonzero"/><path d="m56.642 64c.826-.243 1.222-1.174.809-1.93-.445-.817-1.228-1.791-2.543-2.226-2.476-.819-4.578.655-4.578.655s.611 2.599 3.168 3.445c1.25.413 2.348.29 3.144.056z" fill="none" stroke="#c3c4c7"/><path d="m46.977 67.435s-.033-2.791-2.294-4.094c-1.158-.668-2.342-.726-3.22-.624-.842.098-1.377.962-1.093 1.76.302.851.905 1.899 2.111 2.594 2.335 1.346 4.496.364 4.496.364z" fill="#fff" fill-rule="nonzero" stroke="#c3c4c7"/><path d="m50.168 61.3s.383-2.764-1.658-4.393c-.886-.706-1.854-.983-2.666-1.071-1.103-.118-1.966.906-1.667 1.975.223.802.681 1.719 1.6 2.453 2.108 1.682 4.391 1.036 4.391 1.036z" fill="#fff" fill-rule="nonzero" stroke="#c3c4c7"/><path d="m45.524 73.665s-.962-2.618-3.527-3.084c-1.317-.239-2.453.107-3.247.5-.758.376-.972 1.366-.439 2.023.569.7 1.487 1.485 2.856 1.733 2.649.481 4.357-1.172 4.357-1.172z" fill="none" stroke="#c3c4c7" stroke-width="1.14"/><path d="m52.963 75.92c.706-.492.789-1.498.16-2.086-.679-.634-1.727-1.31-3.111-1.307-2.606.005-4.14 2.069-4.14 2.069s1.394 2.273 4.085 2.267c1.319-.002 2.324-.468 3.006-.943z" fill="none" stroke="#c3c4c7" stroke-width="1.14"/><path d="m54.045 69.555c.745-.432.909-1.429.331-2.066-.625-.688-1.614-1.448-2.994-1.56-2.598-.209-4.295 1.722-4.295 1.722s1.203 2.38 3.886 2.596c1.314.106 2.354-.275 3.072-.692z" fill="none" stroke="#c3c4c7" stroke-width="1.14"/><path d="m56.642 64c.826-.243 1.222-1.174.809-1.93-.445-.817-1.228-1.791-2.543-2.226-2.476-.819-4.578.655-4.578.655s.611 2.599 3.168 3.445c1.25.413 2.348.29 3.144.056z" fill="none" stroke="#c3c4c7" stroke-width="1.14"/><path d="m46.977 67.435s-.033-2.791-2.294-4.094c-1.158-.668-2.342-.726-3.22-.624-.842.098-1.377.962-1.093 1.76.302.851.905 1.899 2.111 2.594 2.335 1.346 4.496.364 4.496.364z" fill="none" stroke="#c3c4c7" stroke-width="1.14"/><path d="m50.168 61.3s.383-2.764-1.658-4.393c-.886-.706-1.854-.983-2.666-1.071-1.103-.118-1.966.906-1.667 1.975.223.802.681 1.719 1.6 2.453 2.108 1.682 4.391 1.036 4.391 1.036z" fill="none" stroke="#c3c4c7" stroke-width="1.14"/><path d="m29.358 78.462s-.047-.172-.097-.471c-.061-.3-.115-.723-.114-1.251-.02-.53.048-1.13.13-1.775s.223-1.326.397-1.997c.367-1.337.872-2.634 1.365-3.55.499-.916.968-1.451.968-1.451l.343.204s-.211.636-.528 1.588c-.161.473-.347 1.024-.533 1.618-.184.594-.361 1.233-.518 1.876-.341 1.279-.58 2.587-.78 3.56-.114.483-.202.907-.291 1.199-.079.293-.142.46-.142.46z" fill="#c3c4c7" fill-rule="nonzero"/><path d="m29.075 78.458s-.044-.126-.09-.344c-.029-.11-.056-.237-.052-.408.008-.161-.01-.37.037-.56.059-.396.212-.848.448-1.282.217-.448.53-.872.864-1.263.686-.772 1.473-1.393 2.074-1.814.314-.196.56-.368.75-.469.176-.112.289-.168.289-.168l.286.28s-.268.458-.763 1.002c-.499.54-1.194 1.194-1.775 1.907-.302.347-.572.71-.804 1.058-.122.172-.217.349-.306.517-.106.163-.165.33-.252.478-.086.152-.132.282-.198.408-.071.118-.114.249-.16.352-.083.207-.149.323-.149.323z" fill="#c3c4c7" fill-rule="nonzero"/><path d="m10.441 80.847c13.507-5.6 42.694-1.936 52.28 4.02l-52.281-.17z" fill="#3895ba" fill-rule="nonzero"/><path d="m45.686 79.394s-.05-.376-.106-1.034c-.036-.329-.064-.727-.072-1.19-.005-.461-.052-.987-.024-1.554.018-1.137.105-2.466.317-3.88.089-.708.231-1.436.386-2.172.172-.732.347-1.478.589-2.207.227-.731.506-1.449.797-2.145.153-.345.305-.688.455-1.026.17-.329.338-.654.503-.974.339-.634.7-1.231 1.074-1.774.379-.539.735-1.049 1.108-1.486.359-.449.718-.833 1.046-1.163.315-.341.605-.623.862-.837.501-.437.788-.686.788-.686l.277.289s-.24.285-.66.786c-.217.243-.459.555-.736.911-.286.349-.59.757-.898 1.217-.337.439-.651.949-.986 1.485-.322.543-.652 1.122-.965 1.734-.15.309-.304.624-.459.942-.136.327-.273.658-.412.992-.262.673-.513 1.364-.714 2.072-.219.701-.408 1.413-.577 2.119-.148.71-.318 1.405-.427 2.091-.253 1.364-.38 2.659-.523 3.767-.128 1.115-.235 2.045-.31 2.695-.073.656-.133 1.031-.133 1.031z" fill="#c3c4c7" fill-rule="nonzero"/><path d="m14.227 9.53c0 .891-.722 1.613-1.613 1.613-.892 0-1.614-.722-1.614-1.613s.722-1.613 1.614-1.613c.891 0 1.613.722 1.613 1.613" fill="#dcdcde" fill-rule="nonzero"/><ellipse cx="21.107" cy="9.53" fill="#c3c4c7" rx="1.613" ry="1.614"/><ellipse cx="29.6" cy="9.53" fill="#c3c4c7" rx="1.613" ry="1.614"/></svg>
