<svg viewBox="0 0 1667.79 984.93" xmlns="http://www.w3.org/2000/svg"><path d="m4697.48 2163v-154.59a33.21 33.21 0 0 0 -33.21-33.21h-186.62v187.8z" fill="#c3c4c7" transform="translate(-3623.21 -1975.2)"/><path d="m938.06 59.66 52.59 32.97-52.59 35.49z" fill="#004e6e"/><path d="m4478.43 2667.7v-185.88a39.93 39.93 0 0 0 -39.93-39.93h-415.85v225.81z" fill="#c3c4c7" transform="translate(-3623.21 -1975.2)"/><path d="m3623.21 2589.12c14.53-5 1287.3 0 1287.3 0s81.69-267.89-135.29-324.22c-65-16.88-102.59-10.44-121.93-2.32-7.74 3.25-16.6-1.45-17.27-9.19-4.65-53.54-35.23-201-231.16-201-215.64 0-310.15 202.84-310.15 202.84s-48.1-70.05-133.2-76.88c-251.67-20.2-313.34 258-313.34 258" fill="#fff" transform="translate(-3623.21 -1975.2)"/><circle cx="1301.78" cy="618.92" fill="#fff" r="366.01"/><circle cx="1301.78" cy="629.9" fill="#63d6b6" r="317.87"/><g transform="translate(-3623.21 -1975.2)"><path d="m4813.55 2895.78a351.81 351.81 0 0 1 -107.89-63.92 323.3 323.3 0 0 1 -77.27-100.31c-37.71-77-40.55-169.7-10.79-250.12a327.89 327.89 0 1 1 614.79 228.2c-29.92 80.36-92.54 148.74-171.37 182.52a323.16 323.16 0 0 1 -124 25.6 351.82 351.82 0 0 1 -123.47-21.97zm1.67-4.49c38.79 14.17 80.52 20.39 121.46 17.29a314.49 314.49 0 0 0 117.32-31.79c36.32-17.92 69.53-42 96.89-71.63a309.67 309.67 0 0 0 62.74-102.5c28.14-75.7 24.68-162.14-9.37-235.19-33.54-73.3-97-131.8-172.57-159.35-75.24-28.43-161.5-25.5-234.74 8.16-73.47 33.14-132.49 96.39-160.55 172.12a309.68 309.68 0 0 0 -19.4 118.6c1.36 40.34 10.85 80.22 26.68 117.51a314.26 314.26 0 0 0 68.16 100.63c29.05 29.08 64.73 51.58 103.37 66.15z" fill="#2ebd99"/><path d="m4832.31 2639.69h-13.37v-77.62q0-10.33.61-19.14a45.39 45.39 0 0 1 -4.56 4.25q-7.75 6.46-16.94 14l-7.14-9.19 30.08-23.32h11.32z" fill="#004e6e"/><path d="m4944.3 2554.63q0 10.63-6 17.47t-17.05 9.11v.61q13.29 1.67 19.86 8.51t6.57 17.77q0 15.87-11 24.49t-31.6 8.62a94.65 94.65 0 0 1 -16.21-1.29 52.45 52.45 0 0 1 -14.32-4.71v-12.76a70.31 70.31 0 0 0 15.11 5.39 67.72 67.72 0 0 0 15.57 1.9q28.1 0 28.1-22 0-19.6-31.06-19.6h-10.79v-11.62h10.94q13.06 0 20.43-5.58t7.37-15.46q0-8-5.35-12.46t-14.87-4.42a44.39 44.39 0 0 0 -13.63 2 61.82 61.82 0 0 0 -14.39 7.33l-6.84-9.34a53.19 53.19 0 0 1 15.76-8.47 57.74 57.74 0 0 1 18.95-3.08q16.25 0 25.33 7.41t9.12 20.18z" fill="#004e6e"/><path d="m5021.43 2581.06h38.36v54.46a121.31 121.31 0 0 1 -17.92 4.25 136.62 136.62 0 0 1 -21.11 1.44q-25.37 0-39.27-15t-13.9-42q0-17.39 6.91-30.38a46.87 46.87 0 0 1 19.94-19.86q13-6.87 30.72-6.87a83.65 83.65 0 0 1 33.11 6.53l-5.32 12.15a71.48 71.48 0 0 0 -28.63-6.38q-19.82 0-31 12t-11.17 32.81q0 22 10.71 33.5t31.14 11.47a89.48 89.48 0 0 0 21.8-2.66v-33h-24.38z" fill="#004e6e"/><path d="m4274.69 2569.77c-105.58-.17-211.17.48-316.75 1.41l-158.38 1.47-79.2 1.24-39.62.88-19.83.57-9.94.38-5 .26a37.7 37.7 0 0 0 -6.2.74 4.48 4.48 0 0 0 1.09 8.85l1.91-.06 8.52-.25 9.84-.12 19.76-.07 39.56.13 79.16.48 158.35 1 316.71 2.06 291.21 1.53q0-10.24.6-20.35z" fill="#c3c4c7"/><path d="m4776.07 2250c-26-6.62-53-11.27-80.94-10.2-13.95.59-28.16 2.66-42.15 8l-2.58 1a.67.67 0 0 0 -.24.07 1.69 1.69 0 0 1 -.44 0h-.08l-.42-4.08-1.33-10.16c-4.05-27-11.94-53.49-24.51-78a201.39 201.39 0 0 0 -51.4-64.44 207.59 207.59 0 0 0 -72.88-37.91c-26.2-8-53.35-11.11-80.18-11.64a336.63 336.63 0 0 0 -80.28 8c-52.78 11.73-101.8 37.91-142.44 72.72a442.53 442.53 0 0 0 -55.81 57.5c-13.54 16.67-26.1 33.74-36.93 52.62-13.85-15.6-29.74-28.27-47.3-39.18a204.46 204.46 0 0 0 -35.18-16.81c-12.4-4-25.06-7.5-38.07-8.69-50.73-5-103 1.91-148.9 24.55-46 22.36-83.48 58.7-111.69 100a428.32 428.32 0 0 0 -59.53 136.73 3.09 3.09 0 0 0 6 1.54l.06-.2a420.15 420.15 0 0 1 62.74-131.61c28.3-39.42 65-73.15 108.73-93.19 43.51-20.31 93.15-25.66 140.31-19.87 46.37 5.83 88.35 35.58 115.92 71.72l.2.27a10.75 10.75 0 0 0 18.14-1.79c44.58-90 128.92-165.34 228.18-186.56a316.2 316.2 0 0 1 75.39-6.91c25.34.7 50.6 3.86 74.4 11.35a185.78 185.78 0 0 1 65.05 34.41 178.92 178.92 0 0 1 45.17 57.65c11.11 22.1 18.17 46.38 21.67 71.09l1.14 9.28.48 4.93a21.76 21.76 0 0 0 3.52 9.77 24 24 0 0 0 15.9 10.23 25.18 25.18 0 0 0 9.3-.18 26.61 26.61 0 0 0 4.45-1.36l2-.76c10.48-4 22.49-5.7 34.6-6.18 21.19-.76 43 2.29 64.43 7.1a358.39 358.39 0 0 1 33.9-15.4q-9.17-3-18.4-5.41z" fill="#c3c4c7"/><path d="m3877.52 2482.41v-286.95a61.64 61.64 0 0 1 61.64-61.64h346.44v348.59z" fill="#c3c4c7"/></g><path d="m421.66 277.36 103.08 64.61-103.08 69.56z" fill="#004e6e"/></svg>
