<svg viewBox="0 0 1602.9 937.51" xmlns="http://www.w3.org/2000/svg"><path d="m4698.48 2161.73v-152.13a32.68 32.68 0 0 0 -32.68-32.68h-183.66v184.81z" fill="#c3c4c7" transform="translate(-3636.22 -1968.72)"/><path d="m4365.11 2157.73v-110.93a23.83 23.83 0 0 0 -23.83-23.83h-133.94v134.77z" fill="#c3c4c7" transform="translate(-3636.22 -1968.72)"/><path d="m928.22 66.92 51.75 32.44-51.75 34.93z" fill="#004e6e"/><path d="m4138.61 2083.23v-94.23a20.25 20.25 0 0 0 -20.25-20.25h-113.8v114.51z" fill="#c3c4c7" transform="translate(-3636.22 -1968.72)"/><path d="m419.34 36.38 32.07 20.1-32.07 21.65z" fill="#004e6e"/><g transform="translate(-3636.22 -1968.72)"><path d="m4482.91 2658.45v-182.94a39.3 39.3 0 0 0 -39.3-39.3h-409.26v222.24z" fill="#c3c4c7"/><path d="m3641.24 2581.11c14.3-4.88 1266.9 0 1266.9 0s80.39-263.64-133.14-319.11c-64-16.61-101-10.28-120-2.29-7.61 3.2-16.34-1.43-17-9-4.57-52.69-34.67-197.81-227.5-197.81-212.22 0-305.23 199.62-305.23 199.62s-47.34-68.94-131.09-75.66c-247.68-19.88-308.37 253.94-308.37 253.94" fill="#fff"/><path d="m4394.17 2358.89v-114.81a24.66 24.66 0 0 1 24.66-24.66h138.61v139.47z" fill="#c3c4c7"/></g><path d="m824.91 298.2 41.24 25.86-41.24 27.83z" fill="#004e6e"/><path d="m4274.69 2569.77c-105.58-.17-211.17.48-316.75 1.41l-158.38 1.47-79.2 1.24-39.62.88-19.83.57-9.94.38-5 .26a37.7 37.7 0 0 0 -6.2.74 4.48 4.48 0 0 0 1.09 8.85l1.91-.06 8.52-.25 9.84-.12 19.76-.07 39.56.13 79.16.48 158.35 1 316.71 2.06 291.21 1.53q0-10.24.6-20.35z" fill="#c3c4c7" transform="translate(-3636.22 -1968.72)"/><path d="m4776.07 2250c-26-6.62-53-11.27-80.94-10.2-13.95.59-28.16 2.66-42.15 8l-2.58 1a.67.67 0 0 0 -.24.07 1.69 1.69 0 0 1 -.44 0h-.08l-.42-4.08-1.33-10.16c-4.05-27-11.94-53.49-24.51-78a201.39 201.39 0 0 0 -51.4-64.44 207.59 207.59 0 0 0 -72.88-37.91c-26.2-8-53.35-11.11-80.18-11.64a336.63 336.63 0 0 0 -80.28 8c-52.78 11.73-101.8 37.91-142.44 72.72a442.53 442.53 0 0 0 -55.81 57.5c-13.54 16.67-26.1 33.74-36.93 52.62-13.85-15.6-29.74-28.27-47.3-39.18a204.46 204.46 0 0 0 -35.18-16.81c-12.4-4-25.06-7.5-38.07-8.69-50.73-5-103 1.91-148.9 24.55-46 22.36-83.48 58.7-111.69 100a428.32 428.32 0 0 0 -59.53 136.73 3.09 3.09 0 0 0 6 1.54l.06-.2a420.15 420.15 0 0 1 62.74-131.61c28.3-39.42 65-73.15 108.73-93.19 43.51-20.31 93.15-25.66 140.31-19.87 46.37 5.83 88.35 35.58 115.92 71.72l.2.27a10.75 10.75 0 0 0 18.14-1.79c44.58-90 128.92-165.34 228.18-186.56a316.2 316.2 0 0 1 75.39-6.91c25.34.7 50.6 3.86 74.4 11.35a185.78 185.78 0 0 1 65.05 34.41 178.92 178.92 0 0 1 45.17 57.65c11.11 22.1 18.17 46.38 21.67 71.09l1.14 9.28.48 4.93a21.76 21.76 0 0 0 3.52 9.77 24 24 0 0 0 15.9 10.23 25.18 25.18 0 0 0 9.3-.18 26.61 26.61 0 0 0 4.45-1.36l2-.76c10.48-4 22.49-5.7 34.6-6.18 21.19-.76 43 2.29 64.43 7.1a358.39 358.39 0 0 1 33.9-15.4q-9.17-3-18.4-5.41z" fill="#c3c4c7" transform="translate(-3636.22 -1968.72)"/><circle cx="1284.25" cy="623.32" fill="#63d6b6" r="312.84"/><path d="m4806.47 2884.62a346.12 346.12 0 0 1 -106.18-62.9 318.18 318.18 0 0 1 -76-98.72c-37.11-75.81-39.91-167-10.62-246.16a322.69 322.69 0 1 1 605.05 224.58c-29.49 79.09-91.12 146.38-168.72 179.58a318.08 318.08 0 0 1 -122 25.19 346.22 346.22 0 0 1 -121.53-21.57zm1.64-4.42c38.18 13.94 79.24 20.07 119.53 17a309.46 309.46 0 0 0 115.45-31.29c35.75-17.64 68.43-41.29 95.35-70.5a304.71 304.71 0 0 0 61.75-100.87c27.7-74.5 24.29-159.57-9.22-231.46-33-72.13-95.47-129.71-169.83-156.82-74-28-158.94-25.09-231 8-72.3 32.62-130.39 94.86-158 169.39a304.59 304.59 0 0 0 -19 116.73c1.34 39.7 10.68 79 26.26 115.64a309.35 309.35 0 0 0 67.07 99c28.53 28.7 63.61 50.84 101.64 65.19z" fill="#2ebd99" transform="translate(-3636.22 -1968.72)"/><path d="m4783 2589.2q0-28.4 16.48-45.3t45.52-16.9q19.5 0 34.92 9.44t28.71 30.18q15.24-25.14 31.81-35.72t38.19-10.58q32.26 0 51.49 18.32t19.23 49.71q0 33.23-18.08 51.41t-51.58 18.18q-44.31 0-69.3-43-13.82 19.31-29.78 27.84t-36 8.52q-28.18 0-44.93-17t-16.68-45.1zm197 43.74q20.56 0 32.26-11.72t11.7-32.31q0-20.31-12-32t-32.96-11.59a46 46 0 0 0 -30.31 11.08q-13.29 11.08-25.17 37.21 11 20.59 24.46 30t32.02 9.33zm-171.21-43.46q0 16.76 9.93 26.7t27.47 9.94a45 45 0 0 0 34.92-14.91q6.73-7.24 15.06-23.15-10.1-19.46-22.15-27.62a48.42 48.42 0 0 0 -27.83-8.17q-17.72 0-27.56 10.08t-9.8 27.14z" fill="#004e6e" transform="translate(-3636.22 -1968.72)"/><path d="m3891.52 2476.09v-282.4a60.66 60.66 0 0 1 60.66-60.66h340.95v343.07z" fill="#c3c4c7" transform="translate(-3636.22 -1968.72)"/><path d="m420 281.16 101.45 63.59-101.45 68.46z" fill="#004e6e"/></svg>
