<?xml version="1.0" encoding="utf-8"?>
<!-- Generator: Adobe Illustrator 23.0.3, SVG Export Plug-In . SVG Version: 6.00 Build 0)  -->
<svg version="1.1" id="Layer_1" xmlns="http://www.w3.org/2000/svg" xmlns:xlink="http://www.w3.org/1999/xlink" x="0px" y="0px"
	 viewBox="0 0 1573.8 1224.9" style="enable-background:new 0 0 1573.8 1224.9;" xml:space="preserve">
<style type="text/css">
	.st0{fill:#C3C4C7;}
	.st1{fill:#3895BA;}
	.st2{fill:#004E6E;}
	.st3{fill:#DCDCDE;}
	.st4{fill:none;}
</style>
<path class="st0" d="M303.3,334.4c-83.3,0-150.9-67.6-150.9-150.9S220,32.6,303.3,32.6s150.9,67.6,150.9,150.9
	S386.6,334.4,303.3,334.4z"/>
<path class="st0" d="M1092.7,515.9c20.9,71.2,136.2,73.9,161.6,3.9l1.4-3.9l1,0.2c-8-6.6-16.4-24.4-11.2-71.5l1.2-28.1
	c30.5-22.8,60.6-62.8,75.7-132.2c0,0,21.7-187.8-70.8-213.9c-239.4-67.6-210.8,158.4-210.8,158.4c0,78.5,29.2,147.4,66.6,185.2
	l0.7,64.6c0,0,2.1,15.5-17.1,37.6L1092.7,515.9z"/>
<path class="st1" d="M1552.6,882.7c-16.9-178.2-131.4-332-295.9-366.6l-1-0.2l-1.4,3.9c-25.4,70.1-140.6,67.3-161.6-3.9l-1.9,0.4
	c-146.9,27.5-252.2,180.2-252.2,371.3l-0.3,47h58.9c32.3,0,63.3,13.2,85.6,36.6c7.9,8.2,12,19.4,11.3,30.8l-5.3,87.9l-151.4-16.5
	l-0.2,24.9h721.7C1558.8,1098.2,1576.9,1139.2,1552.6,882.7L1552.6,882.7z"/>
<path class="st2" d="M1044.9,188.8c3,28,3.5,55.9,7.6,83.4c3.9,27.5,10,54.8,20.1,80.3c10,25.4,24.3,49.6,45.3,65.7
	c10.4,7.9,22.4,13.5,35.2,16.2c13,2.5,26.3,2.6,39.3,0.2c13.1-2.4,25.8-6.9,37.4-13.4c11.7-6.7,22.4-15,31.8-24.6
	c19-19.3,33.4-43.3,44.1-68.6c21.2-51.1,29.2-107,33.1-163c0.1-1.2,1.1-2.1,2.3-2c1.1,0.1,1.9,0.9,2,2c1.9,28.4,0.9,57-3,85.2
	c-2.1,14.2-4.9,28.2-8.4,42.1c-3.7,13.9-8.3,27.5-13.8,40.8c-11.1,26.5-26,52-46.5,73.1c-10.3,10.6-22,19.7-34.7,27.2
	c-13,7.4-27.1,12.5-41.7,15.3c-14.6,2.5-29.9,3-44.8-0.1c-14.9-3.3-28.8-9.8-40.9-19.1c-24-18.7-39-45.1-49.4-71.9
	c-10.4-27-16.5-55.2-20.3-83.5c-3.6-28.3-6.1-56.8-3.2-85.2c0.3-2.4,2.4-4.1,4.7-3.8C1043.1,185.2,1044.7,186.7,1044.9,188.8z"/>
<path class="st2" d="M1256.4,165.8c14.8,27.8,14,71.4,11,101.5c-2,20.3,9.5,39.5,28.4,47.3l21.2,11.1c22.2-51.3,41.3-106.6,39-154
	C1322.7,171.6,1289.4,169.6,1256.4,165.8L1256.4,165.8z"/>
<path class="st0" d="M720.8,899.2L703.1,590c-2.2-37.9-33.5-67.5-71.5-67.5H144.2c-39.5,0-71.6,32-71.6,71.6c0,1.4,0,2.7,0.1,4.1
	l17.7,309.2c2.2,37.9,33.5,67.5,71.5,67.5h121.3v-17.1H161.9c-28.9,0-52.8-22.6-54.4-51.4L89.7,597.1C88,567,111,541.3,141,539.5
	c1-0.1,2.1-0.1,3.1-0.1h487.4c28.9,0,52.8,22.6,54.4,51.4L703.6,900c1.7,30.1-21.3,55.8-51.3,57.6c-1,0.1-2.1,0.1-3.1,0.1h-148v17.1
	h148.1c39.5,0,71.6-32,71.6-71.6C720.9,901.9,720.9,900.5,720.8,899.2L720.8,899.2z"/>
<path class="st0" d="M498.7,1106.8H286.3c-4.7,0-8.5-3.8-8.5-8.5V808.9c0-16.4,13.3-29.7,29.7-29.7h191.2c4.7,0,8.5,3.8,8.5,8.5
	v310.5C507.3,1102.9,503.4,1106.8,498.7,1106.8L498.7,1106.8z M294.9,1089.7h195.3V796.3H307.6c-7,0-12.7,5.7-12.7,12.7
	L294.9,1089.7z"/>
<path class="st3" d="M989.6,1111.6H622.1v-26.7c0-22,23.6-39.2,50.7-36.9l316.8,24.8V1111.6z"/>
<g>
	<path class="st0" d="M807.4,1047.3c-9.1-5.5-18-11.4-26.6-17.6s-17.2-12.4-25.7-18.8l2.4,0.9c-16-0.7-32-1.1-47.9-2l-47.9-2.6
		l3-7.4c12.8,11.6,25.7,23.2,38,35.4c1.1,1.1,1.1,2.9,0,4c-1,1-2.6,1.1-3.8,0.2c-13.6-10.7-26.7-22-39.9-33.2c-1.8-1.5-2-4.2-0.5-6
		c0.8-1,2.1-1.5,3.3-1.5h0.1l47.9,1.9c16,0.6,31.9,1.7,47.9,2.5c0.9,0,1.7,0.3,2.4,0.9c8.4,6.4,16.9,12.9,25.1,19.6
		c8.2,6.7,16.3,13.6,24.1,20.9c0.7,0.7,0.8,1.8,0.1,2.6C809,1047.6,808.1,1047.7,807.4,1047.3L807.4,1047.3z"/>
	<path class="st0" d="M712.5,965.3c8-0.9,16-1.2,24.1-1.1c8-0.1,16,0.5,24,0.7c16,0.5,32,1.2,47.9,2.2h0.1c1.7,0.1,3.1,1.1,3.8,2.6
		c9.5,21.9,19.1,43.8,27.4,66.3c0.6,1.5-0.2,3.1-1.7,3.7c-1.4,0.5-2.9-0.1-3.5-1.4c-11-21.3-20.6-43.2-30.4-65l3.9,2.6
		c-16-0.5-32-1.2-47.9-2.2c-8-0.5-16-0.7-23.9-1.6c-8-0.6-16-1.7-23.9-3.3c-1-0.2-1.6-1.1-1.4-2.1
		C711.1,966,711.7,965.4,712.5,965.3L712.5,965.3z"/>
	<path class="st0" d="M870.5,953.3c1.7,7,1.9,14,1.8,21s-0.2,13.9-0.5,20.9l-1.2,20.9c-0.3,7-1,14-2.3,20.8
		c-0.3,1.6-1.8,2.6-3.4,2.3c-1.2-0.2-2.2-1.3-2.3-2.5c-0.7-7-1-14-0.7-20.9l0.4-20.9c0.3-7,0.6-13.9,1.1-20.9s1.1-13.9,3.4-20.8
		c0.3-1,1.4-1.5,2.4-1.2C869.9,952.2,870.3,952.7,870.5,953.3z"/>
	<path class="st0" d="M930,966.5c-1.2,6.8-3.8,12.9-6.6,18.9s-5.7,12-8.6,17.9l-9.2,17.6c-3,6-6.4,11.7-10.3,17.1
		c-1,1.3-2.8,1.6-4,0.6c-1-0.7-1.4-2-1-3.2c2.1-6.3,4.6-12.5,7.6-18.5l8.6-18c3-5.9,6-11.8,9.2-17.6s6.5-11.6,11.2-16.6
		c0.7-0.8,1.9-0.8,2.7-0.1C929.9,965.2,930.1,965.8,930,966.5L930,966.5z"/>
	<path class="st0" d="M909.8,1043.5c4.1-6,9.2-10.9,14.4-15.6s10.5-9.3,15.9-13.8l16.3-13.3c5.4-4.6,11.1-8.7,17.1-12.5
		c1.4-0.8,3.1-0.4,4,1c0.7,1.1,0.5,2.4-0.3,3.4c-4.7,5.3-9.7,10.2-15.1,14.7l-15.9,13.9c-5.4,4.5-10.8,9-16.3,13.3
		s-11.1,8.6-17.8,11.6c-0.9,0.4-2,0-2.5-0.9C909.4,1044.8,909.5,1044.1,909.8,1043.5L909.8,1043.5z"/>
	<path class="st0" d="M1565.3,1224.9c-4.7,0-8.5-3.8-8.5-8.5v-105.1H17.1v105.1c0,4.7-3.8,8.5-8.5,8.5s-8.5-3.8-8.5-8.5v-113.6
		c0-4.7,3.8-8.5,8.5-8.5h1556.8c4.7,0,8.5,3.8,8.5,8.5v113.6C1573.8,1221.1,1570,1224.9,1565.3,1224.9L1565.3,1224.9z"/>
</g>
<g>
	<path class="st2" d="M1157.6,260c1.9,10.2,3,20.5,3.2,30.8c0.1,5.1,0.1,10.3-0.2,15.4c-0.2,5.2-0.7,10.3-1.6,15.4
		c-0.5,2.6-2.9,4.3-5.5,3.8c-1.9-0.3-3.5-1.9-3.8-3.8c-0.8-5.1-1.4-10.3-1.6-15.4c-0.3-5.1-0.3-10.3-0.2-15.4
		c0.2-10.4,1.2-20.7,3.2-30.8c0.4-1.8,2.1-2.9,3.9-2.5C1156.4,257.8,1157.3,258.8,1157.6,260z"/>
	<path class="st2" d="M1086.1,251.2h19.6c0.7,0,1.3,0.6,1.3,1.3v37c0,0.7-0.6,1.3-1.3,1.3h-19.6c-0.7,0-1.3-0.6-1.3-1.3v-37
		C1084.8,251.8,1085.4,251.2,1086.1,251.2z"/>
	<path class="st2" d="M1200.6,251.2h19.6c0.7,0,1.3,0.6,1.3,1.3v37c0,0.7-0.6,1.3-1.3,1.3h-19.6c-0.7,0-1.3-0.6-1.3-1.3v-37
		C1199.3,251.8,1199.9,251.2,1200.6,251.2z"/>
	<path class="st2" d="M1156.9,388.9c-11.7,0-22.6-4.8-28.3-12.6c-2.1-2.8-1.5-6.9,1.4-8.9c2.8-2.1,6.9-1.5,8.9,1.4
		c3.5,4.7,11.2,7.7,19.2,7.3c7.2-0.3,12.9-3.1,15.7-7.7c1.9-3,5.8-3.9,8.8-2.1c3,1.9,3.9,5.8,2.1,8.8c-5.1,8.3-14.6,13.3-26.1,13.7
		C1158,388.8,1157.4,388.9,1156.9,388.9L1156.9,388.9z"/>
	<path class="st2" d="M1201.7,198.7c4.7-3.6,9.4-4.1,13.9-4.5c4.4-0.2,8.8,0.2,13.1,1.3c4.2,1.1,8.4,2.3,12.4,4.5
		c4.2,2.1,7.8,5.2,10.6,9c1.3,2,0.7,4.7-1.3,5.9c-1.4,0.9-3.2,0.9-4.6,0.1l-0.4-0.3c-2.9-1.7-5.9-3.1-9.1-4.2
		c-3.4-1.1-6.8-2-10.3-2.7c-3.5-0.6-7.1-1.3-10.6-1.6c-3.1-0.4-6.2-0.5-9.3-0.2l-1.6,0.1c-2.3,0.2-4.3-1.5-4.4-3.8
		C1200,200.9,1200.6,199.6,1201.7,198.7L1201.7,198.7z"/>
	<path class="st2" d="M1105.7,206c-3.1-0.2-6.2-0.2-9.3,0.2c-3.5,0.3-7,1-10.6,1.6c-3.5,0.7-6.9,1.6-10.3,2.7
		c-3.2,1.1-6.2,2.5-9.1,4.2l-0.4,0.3c-2,1.2-4.7,0.6-5.9-1.4c-0.9-1.4-0.8-3.2,0.1-4.6c2.7-3.8,6.4-6.9,10.6-9
		c3.9-2.2,8.2-3.4,12.4-4.5c4.3-1.1,8.7-1.5,13.1-1.3c4.4,0.4,9.2,0.9,13.9,4.5c1.8,1.4,2.2,4,0.8,5.8c-0.8,1.1-2.2,1.7-3.6,1.6
		L1105.7,206z"/>
</g>
<path class="st1" d="M1015.1,136.2c25.5-173.8,341-167.8,341,33.7"/>
<path class="st0" d="M1369.4,171.1c-35.7-4.2-71.5-7.5-107.3-10.9l-61.4-5.6c-0.1-0.5-0.5-0.9-0.9-1.2c-20.7-10.5-42-19.7-63.8-27.5
	c-21.9-7.8-44.1-14.8-66.9-19.8c-22.9-4.6-46.5-7.5-70.2-4.9c-12,1.2-23.7,4.5-34.5,9.9c-10.8,5.5-20.2,13.5-27.2,23.4
	c-0.9,1.3-0.6,3.1,0.7,4c1.1,0.7,2.5,0.7,3.5-0.1c35,4.9,70.1,8.4,105.2,11.7l107.4,9.8l107.5,9.1c35.8,2.9,71.7,5.9,107.6,8
	c1.6,0.1,2.9-1.2,2.9-2.7C1371.8,172.6,1370.8,171.4,1369.4,171.1L1369.4,171.1z"/>
<path class="st2" d="M1343.2,777.2c4.2,12.7,4.2,25.9,5.8,38.8l3.8,39c2.5,26,5.2,52,7.4,78c2.4,26,4.5,52.1,6.5,78.1
	s4.1,52.1,2.6,78.5c-0.1,1.2-1.1,2.1-2.3,2c-0.9-0.1-1.7-0.7-2-1.6c-6.2-25.7-9-51.7-11.5-77.7s-5.3-52-7.6-78
	c-2.5-26-4.5-52.1-6.7-78.1l-3.3-39.1c-0.8-13-3.1-26-1.3-39.2c0.3-2.4,2.5-4.1,4.9-3.7C1341.3,774.4,1342.7,775.6,1343.2,777.2z"/>
<path class="st2" d="M962.7,804.1c3.5-3.1,7-2,10.5-2.5l10.5-0.5c7-0.2,14-0.6,21.1-0.6c7-0.1,14.1,0,21.1,0.2
	c7,0.2,14.1,0.4,21.2,4.1c1.2,0.6,1.7,2.1,1,3.3c-0.2,0.4-0.6,0.8-1,1c-7,3.9-14,4.5-21,4.8s-14,0.8-21.1,0.9
	c-7,0.3-14.1,0.1-21.1,0.1l-10.6-0.1c-3.5-0.3-7,0.9-10.6-2.1c-2.4-2-2.7-5.6-0.7-7.9C962.3,804.4,962.5,804.2,962.7,804.1
	L962.7,804.1z"/>
<path class="st0" d="M266.8,138.7l41.4,51.9l-80.3,70.9"/>
<path class="st2" d="M315.7,184.8c-6.9-8.8-14.1-17.1-21.2-25.7l-10.6-12.8c-3.8-4.1-6.2-9.2-12.7-11.1c-0.7-0.2-1.5-0.3-2.3-0.3
	c-3.9,0.2-6.8,3.5-6.6,7.4c0.4,6.8,4.9,10.3,8,14.8l10.1,13.2c4.9,6.4,9.7,12.8,14.7,19.2c-11.1,9.9-22,19.8-32.9,29.9
	c-6.6,6.1-13.2,12-19.3,18.6c-6.3,6.5-12,13.7-16.8,21.4c-0.8,1.4-0.3,3.3,1.1,4.1c0.8,0.5,1.8,0.5,2.7,0.2
	c8.2-3.9,16-8.6,23.3-14.1c7.3-5.3,14-11.1,20.8-16.9c13.7-11.4,27.2-23.1,40.6-34.9C318.3,194.5,318.8,188.7,315.7,184.8
	L315.7,184.8z"/>
<path class="st4" d="M173.2,419.5h260.2"/>
<path class="st0" d="M173.2,416.6c10.8-2,21.7-1.3,32.5-1.5l32.5-0.2c21.7,0,43.4-0.4,65-0.2l65,0.4c21.7,0,43.4,0.5,65.1,2.9
	c0.8,0.1,1.3,0.8,1.3,1.6c-0.1,0.7-0.6,1.2-1.3,1.3c-21.7,2.5-43.4,3-65.1,2.9l-65,0.4c-21.7,0.2-43.4-0.1-65-0.2l-32.5-0.2
	c-10.8-0.2-21.7,0.5-32.5-1.5c-1.6-0.3-2.6-1.8-2.3-3.4C171.1,417.7,172,416.8,173.2,416.6L173.2,416.6z"/>
<path class="st2" d="M1249.7,419.5c3,14.9,1.9,29.8,2.3,44.6l0.1,22.3v5.6c0,1.4,0.2,2.8,0.5,4.2c0.6,2.8,1.7,5.4,3.3,7.8
	c3.2,4.8,8.2,8,13.8,9.1c7.4,1.6,14.8,3.4,22.1,5.4c14.7,3.9,29,8.9,43,14.7c28.3,11.4,54.7,27,78.3,46.4
	c23.4,19.4,43.6,43.9,54.4,72.3c0.4,1.1-0.1,2.3-1.2,2.8c-0.9,0.3-2,0-2.5-0.8c-17.3-24.1-36.5-45.7-59-64.1
	c-11.4-9-23.5-17.1-36.1-24.2c-12.6-7.3-25.7-13.7-39.2-19.1c-13.5-5.5-27.3-10.3-41.4-14.4c-7-2-14.1-3.8-21.2-5.5
	c-13.9-2.9-24.7-13.9-27.4-27.9c-0.4-2.3-0.6-4.5-0.6-6.8v-5.6l0.1-22.3c0.4-14.9-0.8-29.8,2.3-44.6c0.5-2.4,2.8-3.9,5.2-3.4
	C1248,416.4,1249.3,417.8,1249.7,419.5L1249.7,419.5z"/>
<path class="st2" d="M303.3,15.5c-92.8,0-168,75.2-168,168s75.2,168,168,168s168-75.2,168-168S396.1,15.5,303.3,15.5z M303.3,334.4
	c-83.3,0-150.9-67.6-150.9-150.9S220,32.6,303.3,32.6s150.9,67.6,150.9,150.9S386.6,334.4,303.3,334.4z"/>
</svg>
