<svg id="wordAds" xmlns="http://www.w3.org/2000/svg" viewBox="0 0 1586.92 796.3"><title>wordAds</title><path d="M3245.57,2372.08c-249.15-5.32-498.3-4.78-747.45-5.73l-238.39.63c0,2-.18,4.06-.23,6.12a2.54,2.54,0,0,1-2.6,2.39c-25.18-1-50.28-1.26-75.48-1.23-91.29.1-182.56-2.09-273.85-2.1a2.23,2.23,0,0,1-2.3-2.37q-77.29,1.31-154.58,3.85a1.57,1.57,0,0,0,0,3.13c124.57,4.31,249.15,5.22,373.72,6.3l373.72,1c249.15-.94,498.3-.41,747.45-5.73a3.13,3.13,0,0,0,0-6.26Z" transform="translate(-1749.16 -1587.77)" style="fill:#F6F6F6"/><path d="M438.93,235.33h715.25a0,0,0,0,1,0,0V509.69a0,0,0,0,1,0,0H426.62a0,0,0,0,1,0,0V247.64A12.31,12.31,0,0,1,438.93,235.33Z" style="fill:#E1E2E2"/><path d="M2834.34,2178.52H2723.42a12.31,12.31,0,0,0-12.31,12.31v176.56h192.22V2197.53c-58.49,23.24-105.16,39.24-105.16,39.24S2819.74,2216.16,2834.34,2178.52Z" transform="translate(-1749.16 -1587.77)" style="fill:#6F93AD"/><path d="M3263.35,1885.75H2791.18a72.73,72.73,0,0,0-72.73,72.73v133.67a72.73,72.73,0,0,0,72.73,72.73h47.88c-1.45,4.77-3,9.32-4.72,13.64-14.6,37.64-36.16,58.25-36.16,58.25s46.66-16,105.16-39.24c24.69-9.81,51.49-20.92,77.78-32.66h282.22a72.73,72.73,0,0,0,72.73-72.73V1958.48A72.73,72.73,0,0,0,3263.35,1885.75Z" transform="translate(-1749.16 -1587.77)" style="fill:#fcd56e"/><polygon points="509.73 590.75 510.32 779.61 882.91 779.61 882.91 590.75 509.73 590.75" style="fill:#E1E2E2"/><path d="M2258.86,2145.34h-.06c-118.67-1-237.34-.66-356-1.06h0a4.41,4.41,0,0,0-4.39,4.44l1.18,226.73v0a3.94,3.94,0,0,0,4,3.91l179.17-1.14,177.38-2.27h.56l1.54-227.29A3.33,3.33,0,0,0,2258.86,2145.34Zm-178.52,227.28-172.87-1.11-.24-218.38c116.08-.37,232.16-.08,348.25-1l2.93,222.23v.55Z" transform="translate(-1749.16 -1587.77)" style="fill:#CCCED0"/><polyline points="167.42 582.79 327.65 679.82 497.19 576.41" style="fill:#fff"/><path d="M1917,2169.89c14,7,27.69,14.54,41.33,22.16s27.12,15.48,40.48,23.56l40.23,24c13.47,7.9,26.64,16.27,40,24.39h-4.38l85.1-51.16q42.58-25.54,85.81-50a1.57,1.57,0,0,1,1.63,2.67q-41.6,27.14-83.72,53.42L2079,2271.19a4.23,4.23,0,0,1-4.38,0c-13.38-8.05-26.9-15.85-40.14-24.12l-39.89-24.54c-13.35-8.09-26.48-16.54-39.64-25s-26.08-17.2-38.79-26.35a.79.79,0,0,1,.81-1.34Z" transform="translate(-1749.16 -1587.77)" style="fill:#CCCED0"/><polygon points="540.57 430.03 611.72 325.15 693.08 430.03 540.57 430.03" style="fill:#6F93AD"/><polygon points="1284.21 368.1 1296.33 361.3 1305.77 371.51 1319.4 368.8 1325.21 381.42 1339.02 383.05 1340.65 396.86 1353.27 402.67 1350.56 416.3 1360.77 425.74 1353.97 437.86 1360.77 449.99 1350.56 459.42 1353.27 473.05 1340.65 478.87 1339.02 492.67 1325.21 494.3 1319.4 506.93 1305.77 504.21 1296.33 514.42 1284.21 507.63 1272.08 514.42 1262.65 504.21 1249.02 506.93 1243.2 494.3 1229.4 492.67 1227.77 478.87 1215.14 473.05 1217.86 459.42 1207.65 449.99 1214.44 437.86 1207.65 425.74 1217.86 416.3 1215.14 402.67 1227.77 396.86 1229.4 383.05 1243.2 381.42 1249.02 368.8 1262.65 371.51 1272.08 361.3 1284.21 368.1" style="fill:#fff"/><polygon points="320.47 560.73 332.22 560.73 337.38 151.56 325.63 151.56 320.47 560.73" style="fill:#CCCED0"/><rect x="1232.96" y="151.56" width="11.75" height="146.42" style="fill:#CCCED0"/><path d="M2982.12,2164.87v196.86H2259.28c-.14,3.92.64,7.84.33,11.75H2988a5.88,5.88,0,0,0,5.87-5.87V2164.87Z" transform="translate(-1749.16 -1587.77)" style="fill:#CCCED0"/><path d="M2075.15,1741.32v-89.45c0-35.4,24.18-64.1,54-64.1H2941c29.82,0,54,28.7,54,64.1v89.45Z" transform="translate(-1749.16 -1587.77)" style="fill:#CCCED0"/><path d="M3012.84,1741.29c-80,6.33-160,5.87-240,6.24l-240,1.05-240-1.05c-80-.37-160,.1-240-6.24v-3.92c80-6.34,160-5.86,240-6.24l240-1.05,240,1.05c80,.37,160-.09,240,6.24Z" transform="translate(-1749.16 -1587.77)" style="fill:#204A69"/></svg>