<svg width="95" height="83" xmlns="http://www.w3.org/2000/svg" xmlns:xlink="http://www.w3.org/1999/xlink"><defs><path id="a" d="M.085.065h43.68v23.919H.085z"/></defs><g fill="none" fill-rule="evenodd"><path d="M50.643 11.346l-24.9.168H.84l.757-.757.084 30.865v30.95l-.252-.673 11.862 9.755-.505-.168 24.312.084 24.312.168c.337 0 .589.253.589.59a.575.575 0 0 1-.589.588L37.1 83H12.787c-.168 0-.337-.084-.505-.168L.336 73.16c-.168-.168-.252-.42-.336-.589V41.622l.084-30.865c0-.42.337-.757.757-.757l24.901.084 24.901.168c.337 0 .589.253.589.589-.084.252-.252.505-.589.505" fill="#CCCED0"/><g transform="translate(51 41)"><mask id="b" fill="#fff"><use xlink:href="#a"/></mask><path d="M25.046.171C20.646-1.286 3.892 12.6.085 16.03 7.277 20.743 18.446 24 26.992 21.6c1.27-.343 5.162.857 8.716 2.057 3.469 1.2 7.192-1.028 7.615-4.714.592-4.457.846-9.686-.93-11.314C39.6 5.143 31.222 2.229 25.045.17" fill="#CCCED0" mask="url(#b)"/></g><path d="M14.142 63.484a23.572 23.572 0 0 1 4.372-3.893c.857-.519 1.714-1.038 2.828-1.384.515-.173 1.115-.26 1.715-.173.6.086 1.2.26 1.8.606.514.346 1.028 1.038 1.114 1.643.172.606.172 1.211.172 1.73-.086 1.039-.258 1.99-.258 2.855 0 .433.086.78.258.952.085.173.343.346.685.433.772.086 1.63.173 2.572.086.343 0 .6.26.6.606 0 .26-.086.432-.343.519-.943.432-2.057.692-3.171.432-.6-.086-1.286-.432-1.715-1.038-.428-.605-.514-1.297-.514-1.816 0-1.125.171-2.077.257-2.942 0-.433 0-.865-.086-1.211-.085-.346-.257-.52-.514-.692-1.114-.779-2.914 0-4.457 1.038-1.543.952-3.086 2.163-4.8 3.114-.172.087-.515.087-.6-.173-.086-.26-.086-.519.085-.692z" fill="#204A69"/><path fill="#E1E2E2" d="M42.418 61.771L31 67V54.771L36.582 46 48 53z"/><path d="M62.166 47.282c1.854-4.354-5.225-8.54-11.883-9.628-6.658-1.088-13.231 13.06-16.434 9.879-5.056-4.94 13.232-28.13 34.554-18C78.094 34.138 92 47.617 92 47.617" fill="#CCCED0"/><path d="M62.199 47.028c.333-.927.25-1.938-.334-2.78-.5-.842-1.335-1.6-2.252-2.274-1.836-1.264-3.921-2.19-6.09-2.78-.584-.168-1.084-.253-1.668-.421-.25-.084-.584-.084-.834-.169-.25-.084-.5-.084-.751-.084-.918 0-1.919.337-2.836.927-1.835 1.095-3.504 2.78-5.089 4.548-.834.843-1.584 1.77-2.502 2.612-.417.42-.918.842-1.418 1.263a5.49 5.49 0 0 1-1.835 1.01c-.417.085-.834.17-1.335.085a2.288 2.288 0 0 1-1.251-.674c-.5-.59-.834-1.432-.918-2.106-.25-1.516.084-2.78.5-3.959.918-2.442 2.336-4.464 3.921-6.317 1.585-1.853 3.42-3.454 5.422-4.885 4.004-2.78 8.676-4.633 13.597-4.97 4.922-.337 9.843.926 14.014 3.285 4.254 2.358 8.008 5.222 11.678 8.255 3.67 3.032 7.174 6.233 10.594 9.518.25.253.25.674 0 .927a.65.65 0 0 1-.917 0c-3.42-3.201-6.924-6.318-10.594-9.266-1.835-1.516-3.67-2.864-5.589-4.212-1.919-1.347-3.837-2.61-5.923-3.706-4.004-2.19-8.591-3.285-13.096-2.948-4.504.337-8.926 2.022-12.68 4.717-1.834 1.348-3.586 2.864-5.088 4.549-1.501 1.684-2.752 3.622-3.503 5.727-.334 1.011-.584 2.106-.417 2.948.083.422.25.759.5 1.011.25.169.334.253.668.085.75-.253 1.668-1.096 2.419-1.854.834-.842 1.585-1.684 2.419-2.527 1.668-1.684 3.336-3.453 5.505-4.8 1.085-.675 2.42-1.18 3.837-1.18.334 0 .751.084 1.001.084.334.084.584.084.918.169.584.168 1.168.252 1.752.42 2.335.675 4.588 1.685 6.59 3.286 1 .758 1.918 1.684 2.586 2.864.333.59.5 1.263.583 2.021.084.674-.083 1.432-.417 2.022-.166.337-.5.505-.834.337-.25-.084-.417-.506-.333-.758" fill="#204A69"/><path fill="#CCCED0" d="M74 11.017L42.333 62 31 54.983 62.75 4z"/><path d="M65.588 14.44c-.882-.507-2.03-.592-2.912-.17l-.352.17-.618.928-3 4.561-.706.93v.252c0 1.014.53 1.943 1.5 2.45.882.506 2.03.59 2.912.169l.353-.17.617-.928 3-4.561.618-.93v-.252c0-1.014-.53-1.943-1.412-2.45" fill="#FFF"/><path fill="#204A69" d="M35 65.308L31 63v4z"/><path d="M78 5.407L70.33.674c-2.131-1.29-4.858-.688-6.222 1.463L63 3.858 74.506 11 78 5.407z" fill="#46799A"/><path d="M62.812 3.03c1.158.568 2.234 1.217 3.31 1.866 1.075.649 2.15 1.297 3.309 1.946 1.076.649 2.151 1.379 3.227 2.028 1.075.73 2.068 1.378 3.144 2.19.248.162.248.486.083.73-.166.243-.414.243-.662.161-1.159-.567-2.234-1.216-3.393-1.784l-3.226-1.946c-1.076-.649-2.152-1.379-3.227-2.028-1.076-.73-2.069-1.378-3.144-2.19-.249-.162-.331-.486-.083-.73.083-.243.414-.324.662-.243M53.757 59c-6.678-3.684-10.47-8.654-9.645-11.225 1.813-5.483 15.58 3.856 17.888-.085" fill="#CCCED0"/><path d="M53.64 58.931c-2.698-1.324-5.227-2.978-7.418-5.047-1.096-1.076-2.108-2.234-2.782-3.724-.337-.745-.59-1.655-.337-2.648.168-.496.337-.91.674-1.324.337-.413.759-.662 1.265-.827.927-.331 1.77-.414 2.528-.331.843 0 1.602.165 2.36.33 1.518.25 2.951.746 4.3 1.16 1.433.413 2.782.827 4.13 1.075a8.461 8.461 0 0 0 2.023.248c.59 0 1.096-.165 1.433-.496.253-.248.59-.331.928-.083.253.166.337.58.168.828-.253.413-.674.827-1.096.992a2.413 2.413 0 0 1-1.264.331c-.843.083-1.602 0-2.36-.082a37.433 37.433 0 0 1-4.384-.993 78.68 78.68 0 0 0-4.214-1.076c-.675-.165-1.35-.248-2.024-.331a4.043 4.043 0 0 0-1.77.166 1.655 1.655 0 0 0-.927.91c-.084.413 0 .993.169 1.572.505 1.158 1.348 2.234 2.36 3.227 1.939 1.986 4.299 3.641 6.828 5.048.337.165.421.579.253.91-.085.165-.506.33-.843.165" fill="#204A69"/><path d="M1 72.927c2.483.409 7.45-.409 10.016-.9a1.46 1.46 0 0 1 1.738 1.309c.166 2.288.414 6.294.083 8.664" fill="#CCCED0"/></g></svg>