<svg width="24" height="24" fill="none" xmlns="http://www.w3.org/2000/svg"><path fill-rule="evenodd" clip-rule="evenodd" d="M8.455 21.207l8-17.5-.91-.416-1.261 2.76A4.979 4.979 0 0012 5.5c-1.062 0-2.046.33-2.855.895L7.19 4.44 6.13 5.5l1.926 1.927A4.975 4.975 0 007.025 10H5v1.5h2V13H5v1.5h2.1a5.001 5.001 0 001.937 3.028L7.545 20.79l.91.416zM9.68 16.12A3.492 3.492 0 018.5 13.5v-3a3.5 3.5 0 015.159-3.083L9.68 16.121zm5.675-6.62l.81-1.77c.44.663.728 1.436.81 2.269H19v1.5h-2V13h2v1.5h-2.1a5.002 5.002 0 01-5.634 3.947l.662-1.448L12 17a3.5 3.5 0 003.5-3.5v-3a3.5 3.5 0 00-.145-.998z" fill="#000"/></svg>