<svg width="24" height="24" fill="none" xmlns="http://www.w3.org/2000/svg"><mask id="a" maskUnits="userSpaceOnUse" x="4" y="5" width="16" height="12"><path fill-rule="evenodd" clip-rule="evenodd" d="M17.333 10.112v-.045c0-2.43-2.149-4.4-4.8-4.4-2.237 0-4.118 1.403-4.65 3.303l-.15-.003C5.671 8.967 4 10.69 4 12.817c0 2.126 1.671 3.85 3.733 3.85H16.8c1.767 0 3.2-1.478 3.2-3.3 0-1.635-1.154-2.993-2.667-3.255z" fill="#fff"/></mask><g mask="url(#a)"><path d="M17.333 10.112l-1.5-.016-.014 1.277 1.258.217.256-1.478zM7.883 8.97l-.06 1.498 1.185.049.32-1.143-1.444-.404zm-.15 7.697v1.5h.005l-.005-1.5zm.023 0v-1.5H7.75l.005 1.5zm9.026 0l.008-1.5h-.008v1.5zm2.051-6.538v-.062h-3v.029l3 .033zm0-.062c0-3.379-2.946-5.9-6.3-5.9v3c1.948 0 3.3 1.418 3.3 2.9h3zm-6.3-5.9c-2.848 0-5.364 1.793-6.094 4.398l2.89.81c.333-1.194 1.577-2.208 3.204-2.208v-3zM7.945 7.47a5.186 5.186 0 00-.212-.004v3c.03 0 .06 0 .09.002l.122-2.998zm-.212-.004C4.8 7.467 2.5 9.906 2.5 12.817h3c0-1.342 1.043-2.35 2.233-2.35v-3zM2.5 12.817c0 2.91 2.3 5.35 5.233 5.35v-3c-1.19 0-2.233-1.009-2.233-2.35h-3zm5.238 5.35h.022l-.009-3h-.022l.009 3zm.018 0h9.026v-3H7.756v3zm9.044-3h-.01l-.017 3h.027v-3zm1.7-1.8c0 1.038-.805 1.8-1.7 1.8v3c2.639 0 4.7-2.193 4.7-4.8h-3zm-1.423-1.777c.774.134 1.423.85 1.423 1.777h3c0-2.344-1.658-4.343-3.911-4.733l-.512 2.956z" fill="#000"/></g></svg>