<svg width="52" height="52" viewBox="0 0 52 52" fill="none" xmlns="http://www.w3.org/2000/svg">
    <path opacity="0.5" d="M0 6.55556C0 2.93502 2.93502 0 6.55556 0H45.4444C49.065 0 52 2.93502 52 6.55556V45.4444C52 49.065 49.065 52 45.4444 52H6.55556C2.93502 52 0 49.065 0 45.4444V6.55556Z" fill="url(#paint0_linear_722_13653)"></path>
    <rect width="52" height="52" rx="4" fill="url(#paint1_linear_722_13653)"></rect>
    <path d="M33.0752 23.1375L33.07 23.9214L33.8424 24.055C35.6565 24.369 37.075 26.0096 37.075 28.0253C37.075 30.2753 35.3134 32.0504 33.1999 32.0504L33.1907 32.0504C33.1897 32.0504 33.1891 32.0504 33.1889 32.0504L33.1812 32.0503H33.1733L19.6335 32.0503L19.6292 32.0503L19.6001 32.0504C19.5995 32.0504 19.5988 32.0504 19.5981 32.0504C17.0436 32.0493 14.925 29.9053 14.925 27.2003C14.925 24.4946 17.0448 22.3501 19.6001 22.3501C19.6631 22.3501 19.7257 22.3514 19.7881 22.354L20.5192 22.3837L20.7165 21.6791C21.3922 19.2653 23.82 17.4001 26.8003 17.4001C30.3434 17.4001 33.0755 20.0151 33.0755 23.0752L33.0752 23.1375Z" stroke="black" stroke-width="1.85"></path>
    <defs>
    <linearGradient id="paint0_linear_722_13653" x1="17.3333" y1="-1.21186" x2="42.427" y2="67.2532" gradientUnits="userSpaceOnUse">
    <stop stop-color="#F6F6F4"></stop>
    <stop offset="0.526042" stop-color="#F7F4EA"></stop>
    <stop offset="1" stop-color="#DDEDD5"></stop>
    </linearGradient>
    <linearGradient id="paint1_linear_722_13653" x1="17.3333" y1="-1.21186" x2="42.427" y2="67.2532" gradientUnits="userSpaceOnUse">
    <stop stop-color="#F6F6F4"></stop>
    <stop offset="0.526042" stop-color="#F7F4EA"></stop>
    <stop offset="1" stop-color="#DDEDD5"></stop>
    </linearGradient>
    </defs>
    </svg>