<svg xmlns="http://www.w3.org/2000/svg" fill="none" viewBox="0 0 64 64"><circle cx="32" cy="32" r="32" fill="#2FB41F"/><path fill="#fff" fill-rule="evenodd" d="M32 17.6665c6.0667 0 11.1167 4.3167 12.25 10.0667 4.3333.3 7.75 3.8666 7.75 8.2666 0 4.6-3.7333 8.3334-8.3333 8.3334H22c-5.5167 0-10-4.4834-10-10 0-5.15 3.9-9.4 8.9167-9.9334 2.0833-4 6.2666-6.7333 11.0833-6.7333zm3.3333 21.6667v-6.6667h5L32 24.3332l-8.3333 8.3333h5v6.6667h6.6666z" clip-rule="evenodd"/><mask id="a" width="40" height="28" x="12" y="17" maskUnits="userSpaceOnUse"><path fill="#fff" fill-rule="evenodd" d="M32 17.6665c6.0667 0 11.1167 4.3167 12.25 10.0667 4.3333.3 7.75 3.8666 7.75 8.2666 0 4.6-3.7333 8.3334-8.3333 8.3334H22c-5.5167 0-10-4.4834-10-10 0-5.15 3.9-9.4 8.9167-9.9334 2.0833-4 6.2666-6.7333 11.0833-6.7333zm3.3333 21.6667v-6.6667h5L32 24.3332l-8.3333 8.3333h5v6.6667h6.6666z" clip-rule="evenodd"/></mask><g mask="url(#a)"><path fill="#fff" d="M12 11h40v40H12z"/></g></svg>
