<?xml version="1.0" encoding="utf-8"?>
<!-- Generator: Adobe Illustrator 16.0.4, SVG Export Plug-In . SVG Version: 6.00 Build 0)  -->
<!DOCTYPE svg PUBLIC "-//W3C//DTD SVG 1.1//EN" "http://www.w3.org/Graphics/SVG/1.1/DTD/svg11.dtd">
<svg version="1.1" xmlns="http://www.w3.org/2000/svg" xmlns:xlink="http://www.w3.org/1999/xlink" x="0px" y="0px" width="16px"
	 height="16px" viewBox="0 0 16 16" style="enable-background:new 0 0 16 16;" xml:space="preserve">
<g id="Layer_1">
</g>
<g id="Layer_2">
	<path d="M12.027,2.621L3.973,2C2.883,2,2,2.883,2,3.973v8.056
		C2,13.117,2.883,14,3.973,14l8.055-0.621c1.089,0,1.973-0.883,1.973-1.972V4.594C14,3.504,13.116,2.621,12.027,2.621z
		 M10.909,5.577c-0.11,0.121-0.241,0.162-0.574,0.162H7.388L7.042,7.326h2.203c0.382,0,0.584,0.161,0.584,0.413
		c0,0.15-0.071,0.483-0.222,0.644c-0.101,0.1-0.231,0.161-0.533,0.161H6.78l-0.355,1.719h2.938c0.413,0,0.624,0.161,0.624,0.433
		c0,0.172-0.08,0.523-0.241,0.694C9.634,11.5,9.493,11.55,9.172,11.55H5.619c-0.614,0-0.885-0.312-0.744-0.946l1.134-5.388
		C6.12,4.691,6.442,4.45,6.935,4.45h3.593c0.412,0,0.634,0.161,0.634,0.443C11.161,5.054,11.07,5.416,10.909,5.577z"/>
</g>
</svg>
