<?xml version="1.0" encoding="utf-8"?>
<!-- Generator: Adobe Illustrator 16.0.4, SVG Export Plug-In . SVG Version: 6.00 Build 0)  -->
<!DOCTYPE svg PUBLIC "-//W3C//DTD SVG 1.1//EN" "http://www.w3.org/Graphics/SVG/1.1/DTD/svg11.dtd">
<svg version="1.1" id="Layer_5" xmlns="http://www.w3.org/2000/svg" xmlns:xlink="http://www.w3.org/1999/xlink" x="0px" y="0px"
	 width="16px" height="16px" viewBox="0 0 16 16" style="enable-background:new 0 0 16 16;" xml:space="preserve">
<path d="M14,7V5h-1v2h-2v1h2v2h1V8h2V7H14z M10.168,1H6.383
	C5.392,1,4.143,1.147,3.095,2.011c-0.79,0.68-1.176,1.617-1.176,2.461c0,1.433,1.103,2.885,3.05,2.885
	c0.184,0,0.385-0.02,0.588-0.036C5.465,7.54,5.373,7.724,5.373,8.038c0,0.568,0.294,0.917,0.551,1.248
	c-0.826,0.055-2.37,0.146-3.509,0.845C1.331,10.774,1,11.711,1,12.372C1,13.732,2.286,15,4.951,15c3.16,0,4.831-1.745,4.831-3.473
	c0-1.268-0.734-1.893-1.542-2.572L7.578,8.441C7.376,8.275,7.1,8.055,7.1,7.651c0-0.404,0.276-0.662,0.515-0.9
	c0.771-0.607,1.543-1.25,1.543-2.609c0-1.397-0.883-2.131-1.305-2.48h1.139L10.168,1z M8.551,12.244
	c0,1.139-0.937,1.984-2.701,1.984c-1.966,0-3.234-0.938-3.234-2.241c0-1.306,1.176-1.746,1.581-1.893
	c0.771-0.258,1.764-0.294,1.929-0.294c0.183,0,0.275,0,0.422,0.018C7.945,10.811,8.551,11.308,8.551,12.244z M7.082,6.328
	c-0.294,0.293-0.791,0.514-1.25,0.514c-1.581,0-2.297-2.039-2.297-3.27c0-0.478,0.092-0.974,0.404-1.36
	c0.294-0.367,0.808-0.606,1.287-0.606c1.524,0,2.314,2.058,2.314,3.381C7.541,5.317,7.504,5.905,7.082,6.328z"/>
</svg>
