<?xml version="1.0" encoding="utf-8"?>
<!-- Generator: Adobe Illustrator 16.0.4, SVG Export Plug-In . SVG Version: 6.00 Build 0)  -->
<!DOCTYPE svg PUBLIC "-//W3C//DTD SVG 1.1//EN" "http://www.w3.org/Graphics/SVG/1.1/DTD/svg11.dtd">
<svg version="1.1" id="Layer_1" xmlns="http://www.w3.org/2000/svg" xmlns:xlink="http://www.w3.org/1999/xlink" x="0px" y="0px"
	 width="16px" height="16px" viewBox="0 0 16 16" style="enable-background:new 0 0 16 16;" xml:space="preserve">
<path d="M11.235,1.682c0,0-5.695-2.289-9.061,1.521
	c-2.592,3.54,0.058,6.809,0.058,6.809l1.76-1.566c0,0-1.315-1.567-0.29-3.308c1.354-2.186,4.082-2.012,4.082-2.012
	s4.35-0.02,4.273,3.694c-0.484,3.346-4.081,2.264-4.081,2.264V4.885H5.541v7.39c-0.347,0.971-1.223,0.59-1.876-0.078v2.186
	c0,0,1.315,0.986,2.747,0.465c1.431-0.523,1.585-1.721,1.585-1.721v-2.168c0,0,4.042,1.605,6.13-2.727
	C15.637,3.474,11.235,1.682,11.235,1.682z"/>
</svg>
