<?xml version="1.0" encoding="utf-8"?>
<!-- Generator: Adobe Illustrator 16.0.4, SVG Export Plug-In . SVG Version: 6.00 Build 0)  -->
<!DOCTYPE svg PUBLIC "-//W3C//DTD SVG 1.1//EN" "http://www.w3.org/Graphics/SVG/1.1/DTD/svg11.dtd">
<svg version="1.1" id="Layer_1" xmlns="http://www.w3.org/2000/svg" xmlns:xlink="http://www.w3.org/1999/xlink" x="0px" y="0px"
	 width="16px" height="16px" viewBox="0 0 16 16" style="enable-background:new 0 0 16 16;" xml:space="preserve">
<g>
	<path d="M8.525,1v3.539h3.322v2.197H8.525v3.59c0,0.812,0.043,1.333,0.13,1.564
		c0.085,0.229,0.246,0.413,0.479,0.551c0.31,0.186,0.663,0.279,1.062,0.279c0.708,0,1.413-0.23,2.115-0.691v2.208
		c-0.599,0.281-1.141,0.479-1.625,0.593C10.202,14.943,9.678,15,9.114,15c-0.64,0-1.206-0.081-1.698-0.242
		c-0.492-0.161-0.911-0.393-1.258-0.691c-0.348-0.299-0.588-0.617-0.722-0.954c-0.134-0.337-0.201-0.825-0.201-1.465V6.736H3.688
		V4.755c0.55-0.179,1.021-0.435,1.413-0.769c0.393-0.333,0.707-0.733,0.944-1.202C6.282,2.317,6.445,1.723,6.535,1H8.525z"/>
</g>
</svg>
