<?xml version="1.0" encoding="utf-8"?>
<!-- Generator: Adobe Illustrator 16.0.4, SVG Export Plug-In . SVG Version: 6.00 Build 0)  -->
<!DOCTYPE svg PUBLIC "-//W3C//DTD SVG 1.1//EN" "http://www.w3.org/Graphics/SVG/1.1/DTD/svg11.dtd">
<svg version="1.1" id="Layer_1" xmlns="http://www.w3.org/2000/svg" xmlns:xlink="http://www.w3.org/1999/xlink" x="0px" y="0px"
	 width="16px" height="16px" viewBox="0 0 16 16" style="enable-background:new 0 0 16 16;" xml:space="preserve">
<path d="M15,3.627c-0.515,0.229-1.068,0.383-1.649,0.452c0.592-0.355,1.048-0.918,1.262-1.589
	c-0.554,0.329-1.169,0.568-1.822,0.697c-0.524-0.558-1.271-0.907-2.098-0.907c-1.586,0-2.872,1.286-2.872,2.872
	c0,0.225,0.026,0.444,0.075,0.654c-2.387-0.12-4.504-1.263-5.921-3.001C1.728,3.229,1.586,3.724,1.586,4.25
	c0,0.996,0.506,1.875,1.277,2.39C2.393,6.625,1.95,6.496,1.562,6.281c0,0.013,0,0.024,0,0.037c0,1.392,0.989,2.552,2.304,2.816
	C3.625,9.199,3.372,9.234,3.11,9.234c-0.186,0-0.365-0.02-0.541-0.051c0.366,1.142,1.427,1.971,2.683,1.993
	c-0.982,0.771-2.222,1.23-3.566,1.23c-0.232,0-0.461-0.014-0.686-0.041c1.271,0.816,2.78,1.291,4.402,1.291
	c5.284,0,8.174-4.377,8.174-8.172c0-0.124-0.004-0.248-0.01-0.371C14.127,4.708,14.615,4.203,15,3.627z"/>
</svg>
