<svg viewBox="0 0 284 98" xmlns="http://www.w3.org/2000/svg" xmlns:xlink="http://www.w3.org/1999/xlink"><mask id="a" fill="#fff"><path d="m0 .41v48.038h53.46v-48.037z" fill="#fff" fill-rule="evenodd"/></mask><mask id="b" fill="#fff"><path d="m17.903.44h-16.944v48.5h16.944z" fill="#fff" fill-rule="evenodd"/></mask><g fill="none" fill-rule="evenodd"><path d="m23.324 93.069-15.77-14.071" fill="#004e6e"/><path d="m22.908 93.537c-2.668.344-3.87-.956-5.304-1.993a54.918 54.918 0 0 1 -4.139-3.298 56.03 56.03 0 0 1 -3.75-3.738c-1.19-1.307-2.62-2.352-2.58-5.042l.836-.936c2.668-.347 3.87.953 5.303 1.987a55.49 55.49 0 0 1 4.14 3.304 55.956 55.956 0 0 1 3.747 3.734c1.192 1.31 2.62 2.357 2.583 5.046z" fill="#c3c4c7"/><path d="m70.645 77.793-6.441 4.465c-1.125.778-.57 2.54.798 2.533l8.017-.035 2.623 7.698c.432 1.262 2.219 1.255 2.638-.013l2.555-7.72 7.789-.036c1.368-.007 1.907-1.772.778-2.542l-6.298-4.28 2.706-8.175c.43-1.298-1.077-2.372-2.164-1.544l-6.772 5.143-6.817-5.08c-1.097-.82-2.59.269-2.148 1.564z" fill="#f0c443"/><path d="m119.918 67.368a7.398 7.398 0 0 1 -7.4-7.4 7.398 7.398 0 1 1 14.797 0c0 4.087-3.31 7.4-7.397 7.4" fill="#dcdcde"/><path d="m235.67 57.277-9.995-21.197" fill="#fff"/><path d="m235.243 57.478c-2.21-1.117-2.929-2.937-3.885-4.646-.966-1.702-1.822-3.46-2.696-5.206-.793-1.785-1.604-3.564-2.301-5.392-.708-1.827-1.66-3.536-1.11-5.953l.849-.402c2.213 1.117 2.929 2.937 3.888 4.644.966 1.704 1.822 3.458 2.695 5.205.793 1.787 1.602 3.564 2.3 5.394.71 1.825 1.659 3.537 1.114 5.954z" fill="#c3c4c7"/><path d="m220.073 51.675 21.197-9.994" fill="#fff"/><path d="m219.875 51.249c1.114-2.211 2.936-2.93 4.646-3.885 1.699-.967 3.459-1.823 5.203-2.696 1.787-.793 3.564-1.604 5.391-2.302 1.828-.708 3.537-1.659 5.954-1.11l.402.85c-1.115 2.213-2.934 2.928-4.644 3.887-1.704.966-3.458 1.822-5.205 2.696-1.785.793-3.565 1.601-5.394 2.299-1.823.71-3.537 1.66-5.954 1.114l-.4-.853z" fill="#c3c4c7"/><path d="m161.012 95.346-7.357-15.597" fill="#fff"/><path d="m160.728 95.48c-1.531-.868-2.069-2.203-2.764-3.463-.703-1.258-1.33-2.55-1.97-3.836-.585-1.315-1.182-2.62-1.707-3.96-.53-1.343-1.222-2.603-.914-4.338l.568-.266c1.533.864 2.068 2.202 2.763 3.462.703 1.26 1.33 2.55 1.97 3.837.585 1.31 1.183 2.618 1.707 3.961.53 1.338 1.22 2.6.914 4.335l-.567.269z" fill="#3895ba"/><path d="m149.536 91.225 15.597-7.354" fill="#fff"/><path d="m149.403 90.941c.866-1.531 2.202-2.068 3.462-2.764 1.257-.702 2.552-1.33 3.837-1.97 1.313-.585 2.618-1.182 3.961-1.707 1.34-.53 2.6-1.222 4.335-.913l.266.567c-.863 1.534-2.201 2.068-3.461 2.763-1.258.703-2.55 1.333-3.838 1.973-1.31.585-2.618 1.18-3.96 1.705-1.339.53-2.601 1.22-4.336.916z" fill="#3895ba"/><path d="m.014.48c3.308-.317 6.684.484 9.724 1.817 3.074 1.318 5.82 3.25 8.34 5.411 2.49 2.21 4.79 4.636 6.524 7.666 1.714 3.037 2.397 6.473 2.942 9.613.562 3.158 1.18 6.052 3.155 8.025 1.967 2.113 4.749 3.26 7.776 3.993 3.007.788 6.373 1.155 9.505 2.86 3.188 1.703 5.148 5.147 5.48 8.4l-.6.183c-1.446-2.891-3.361-5.225-6.01-6.433-2.627-1.277-5.783-1.681-8.998-2.407-3.193-.698-6.681-1.988-9.202-4.586-1.29-1.277-2.276-2.944-2.85-4.608-.588-1.677-.84-3.346-1.108-4.935-.494-3.182-1.064-6.172-2.485-8.8-1.418-2.598-3.551-4.96-5.835-7.04-2.33-2.051-4.887-3.868-7.61-5.347-2.718-1.516-5.624-2.638-8.764-3.185z" fill="#187aa2" mask="url(#a)" transform="translate(0 32.702)"/><path d="m187.453 76.065 8.504-19.352" fill="#2ebd99"/><path d="m186.88 75.812c-1.153-2.432-.29-3.975.253-5.662a54.758 54.758 0 0 1 1.857-4.952 54.41 54.41 0 0 1 2.392-4.722c.879-1.54 1.426-3.223 3.999-4.016l1.15.505c1.154 2.432.288 3.973-.254 5.66a55.866 55.866 0 0 1 -1.857 4.955c-.713 1.611-1.527 3.177-2.393 4.72-.876 1.54-1.43 3.221-3.998 4.014l-1.15-.502z" fill="#63d6b6"/><path d="m100.583 44.673 3.946 2.738c.69.474.349 1.556-.49 1.551l-4.912-.022-1.609 4.718c-.263.773-1.36.768-1.613-.007l-1.567-4.732-4.774-.02c-.838-.005-1.167-1.089-.474-1.56l3.858-2.621-1.66-5.013c-.263-.793.66-1.45 1.326-.944l4.151 3.15 4.18-3.112c.667-.502 1.583.166 1.315.959z" fill="#f2cf75"/><path d="m265.918 89.294a8.671 8.671 0 0 0 -8.67-8.67c-4.787 0-8.667 3.883-8.667 8.67a8.667 8.667 0 0 0 8.667 8.667c4.787 0 8.67-3.88 8.67-8.667" fill="#d48fc8"/><path d="m283.83 33.809c-3.137.547-6.046 1.67-8.762 3.185-2.723 1.479-5.278 3.296-7.608 5.347-2.286 2.08-4.42 4.442-5.835 7.04-1.424 2.628-1.993 5.617-2.488 8.8-.266 1.589-.52 3.258-1.107 4.935-.572 1.664-1.558 3.33-2.851 4.608-2.52 2.598-6.009 3.888-9.2 4.586-3.217.725-6.37 1.13-8.998 2.407-2.65 1.207-4.563 3.542-6.009 6.433l-.6-.183c.332-3.253 2.29-6.697 5.477-8.401 3.135-1.704 6.501-2.07 9.508-2.859 3.025-.733 5.806-1.88 7.776-3.993 1.976-1.973 2.59-4.867 3.153-8.025.547-3.14 1.23-6.576 2.944-9.613 1.735-3.03 4.031-5.457 6.524-7.666 2.517-2.16 5.266-4.094 8.338-5.411 3.042-1.333 6.415-2.134 9.724-1.818l.015.628z" fill="#c475bd"/><path d="m15.314 48.685c.889-4.363.341-8.693-.838-12.85-.645-2.04-1.524-4.078-2.724-5.674-1.214-1.614-2.876-2.85-4.761-4.12-.936-.65-1.94-1.324-2.87-2.233-.928-.894-1.746-2.09-2.198-3.358-.954-2.488-.723-5.221-.173-7.483.532-2.294 1.22-4.392 1.22-6.358.043-1.942-.728-3.785-2.01-5.705l.418-.467c2.106 1.053 3.86 3.411 4.017 6.063.178 2.6-.593 4.892-.962 7.023-.396 2.133-.487 4.129.221 5.913.607 1.707 2.149 2.902 4.011 4.205 1.832 1.285 3.898 2.773 5.356 4.857 1.449 2.093 2.297 4.317 2.957 6.608.615 2.29 1.024 4.651.904 7.044-.078 2.374-.68 4.806-1.993 6.792l-.575-.256z" fill="#dcdcde" mask="url(#b)" transform="translate(120.48 .072)"/></g></svg>
