<svg viewBox="0 0 121 86" xmlns="http://www.w3.org/2000/svg" xmlns:xlink="http://www.w3.org/1999/xlink"><mask id="a" fill="#fff"><path d="m120.465.408v1.592h-120.464v-1.592z" fill="#fff" fill-rule="evenodd"/></mask><g fill="none" fill-rule="evenodd"><path d="m65.393 67.58c0-15.028-8.309-27.05-19.888-29.083-1.679 5.57-10.696 5.746-12.64.266l-.089-.266c-12.905 2.653-21.92 14.763-23.246 28.728-1.945 20.066-.443 16.883-.443 16.883h56.483" fill="#187aa2"/><g fill="#004e6e"><path d="m45.152 33.901c.177.53.177 1.148.177 1.68 0 .53 0 1.148.088 1.591.089.441.353.794.707 1.06.176.088.353.177.619.265.264.09.618.176.884.265 2.21.796 4.066 2.034 5.92 3.36a39.902 39.902 0 0 1 5.04 4.508c1.503 1.68 2.829 3.535 3.712 5.657 0 .088 0 .176-.087.176-.09 0-.177 0-.177-.088-1.237-1.857-2.564-3.536-4.067-5.215-1.503-1.59-3.181-3.094-4.95-4.33-.884-.62-1.767-1.24-2.74-1.77-.972-.53-1.944-1.06-2.917-1.414a6.117 6.117 0 0 1 -.707-.265c-.354-.088-.618-.176-.884-.354a2.992 2.992 0 0 1 -1.15-1.59c-.087-.354-.087-.708-.087-.973v-.795c0-.53-.09-1.15.177-1.68.088-.177.264-.265.44-.088-.087-.177-.087-.089 0 0zm-19.447 25.104c.089 1.06-.088 2.033-.088 3.093l-.266 3.094-.53 6.1-.62 6.098c-.176 2.033-.441 4.067-.883 6.1 0 .088-.088.088-.177.088-.088 0-.088-.089-.088-.177-.088-2.033.088-4.066.265-6.1l.53-6.098.532-6.1.264-3.094c.089-.97.177-2.032.443-3.004.087-.177.176-.266.353-.177.088 0 .177.088.265.177z"/><path d="m47.538 10.212c1.062 2.032 1.68 4.33 2.21 6.54s.884 4.509.973 6.896c0 2.297-.354 4.773-1.591 6.806-.62 1.06-1.503 1.945-2.476 2.652-1.06.707-2.21 1.06-3.358 1.326a11.16 11.16 0 0 1 -6.984-.973c-2.121-.973-4.066-2.475-5.657-4.154-3.27-3.36-5.48-7.514-6.894-11.845 0-.09 0-.177.088-.177s.176 0 .176.088c1.946 4.155 4.156 8.133 7.337 11.403 1.59 1.59 3.36 3.005 5.393 3.889 2.032.885 4.242 1.238 6.364.796 1.06-.266 2.12-.62 3.005-1.237.884-.62 1.68-1.414 2.21-2.3 1.149-1.855 1.503-4.153 1.503-6.363s-.354-4.508-.884-6.718-1.326-4.331-1.945-6.541c-.088-.177 0-.354.176-.354.177.089.266.089.354.266"/><path d="m42.765 18.963c.441.707.795 1.502 1.148 2.209.266.796.62 1.592.796 2.387 0 .176-.089.353-.265.353-.177 0-.265 0-.354-.177-.44-.707-.707-1.501-1.06-2.297-.265-.796-.53-1.591-.707-2.387 0-.088.088-.265.176-.265.09.088.177.088.266.177m-8.663-15.381c7.071-2.828 13.26-1.237 12.817 2.12-.353 2.918-14.585 3.89-16.264 7.957-1.06 2.652.53 6.629 1.856 9.193.796 1.503.441 3.27-.707 4.42l-1.237 1.503c-7.867-7.78-14.939-17.856 3.535-25.193"/><path d="m38.345 23.028c.441-.177.707-.707.53-1.148l-.53-1.327c-.177-.442-.707-.707-1.149-.53s-.707.707-.53 1.15l.53 1.325c.176.53.707.707 1.15.53m8.661-3.358c.442-.177.707-.707.53-1.15l-.53-1.326c-.177-.44-.707-.707-1.148-.53-.443.177-.708.707-.53 1.15l.53 1.325c.176.442.707.707 1.148.531"/></g><path d="m39.383 27.22c1.281 4.712 5.205 2.245 5.56 1.008 0 0-3.362.376-5.295-.904l-.265-.103" stroke="#004e6e" stroke-linecap="round" stroke-linejoin="round"/><path d="m43.206 14.013c.266-.354.62-.53.884-.707.353-.177.707-.266.972-.266.708-.088 1.416-.088 2.123.354.175.089.175.265.087.442-.087.088-.175.177-.352.088-.267-.088-.53-.088-.797-.088-.264 0-.617 0-.883.088-.266.089-.62.089-.885.177-.264.089-.53.177-.706.266l-.089.087c-.177.089-.354 0-.354-.087zm-6.982 3.358c-.177 0-.442.177-.707.266-.266.088-.532.265-.796.44-.265.178-.442.356-.706.533-.178.176-.444.353-.532.618-.088.177-.264.177-.441.089-.09-.09-.178-.177-.09-.354.178-.796.797-1.238 1.327-1.68.265-.176.618-.353.972-.442.354-.088.708-.177 1.15-.088.176 0 .264.177.176.354-.088.088-.176.177-.352.264z" fill="#004e6e"/><path d="m47.626 5.615c-7.07-12.375-30.673-2.563-24.75 12.64" fill="#3895ba"/><path d="m53.46 3.494c-2.476 1.502-5.127 2.828-7.69 4.154l-7.779 3.89-7.867 3.89a315.78 315.78 0 0 1 -7.867 3.8c-.177.088-.354 0-.354-.177-.088-.177 0-.265.09-.354a215.441 215.441 0 0 1 7.778-4.066l7.778-3.889 7.867-3.89c2.652-1.326 5.215-2.563 7.955-3.624.09 0 .177 0 .266.088-.089 0-.089.178-.177.178" fill="#c3c4c7"/><path d="m45.152 83.844h39.953v-3.36h-37.125a2.792 2.792 0 0 0 -2.828 2.829v.53zm-10.962-71.511a42.182 42.182 0 0 1 3.978-3.977 43.412 43.412 0 0 1 4.507-3.448c1.59-1.06 3.27-1.945 5.215-2.475l.708-.177c.265 0 .53-.088.707-.088.265 0 .53-.09.707-.09l.707.09c.53 0 .973.177 1.414.354.443.176.884.44 1.327.618.176.089.176.266.176.354s-.265.177-.353.177c-1.591-.796-3.447-.796-5.127-.354-1.768.442-3.36 1.415-4.861 2.386a38.844 38.844 0 0 0 -4.42 3.36c-1.414 1.237-2.83 2.474-4.331 3.624-.09.089-.177.089-.266 0-.177-.177-.177-.266-.088-.354zm.088.089c5.04-4.773 13.26-12.553 19.006-9.105l-19.005 9.105z" fill="#c3c4c7"/><path d="m66.985 83.844h46.76l4.154-29.966c.354-2.74-1.768-5.215-4.508-5.215h-37.567c-2.298 0-4.243 1.679-4.508 3.978z" fill="#c3c4c7"/><path d="m106.53 1.911-61.755.09c-29.17-.09-15.34 0-44.51-.53-.176-.001-.265-.179-.265-.268 0-.176.089-.263.265-.263 29.17-.53 15.34-.442 44.51-.53l61.755.088c14.585.09 13.932.707 13.932.796-.09-.089.653.441-13.932.618" fill="#8e9196" mask="url(#a)" transform="translate(0 83.08)"/><path d="m32.865 34.166c.177.707.265 1.414.354 2.21 0 .707.088 1.414.088 2.21v-.177c.177.354.354.796.53 1.237.177.354.442.796.708 1.061.264.354.618.619.97.884.355.265.709.531 1.15.708.09.088.09.177.09.264 0 .089-.09.089-.177.089-.531-.089-.973-.176-1.415-.442s-.884-.53-1.237-.973c-.354-.353-.62-.795-.884-1.237-.266-.441-.443-.884-.62-1.414v-.177c0-.707 0-1.414.089-2.21.088-.707.177-1.414.354-2.21-.177.177-.09.089 0 .177" fill="#004e6e"/></g></svg>
