<?xml version="1.0" encoding="UTF-8"?>
<svg id="Layer_2" data-name="Layer 2" xmlns="http://www.w3.org/2000/svg" viewBox="0 0 72.21 72.21">
  <defs>
    <style>
      .cls-1 {
        fill: #000;
        stroke-width: 0px;
      }
    </style>
  </defs>
  <g id="Layer_1-2" data-name="Layer 1">
    <g id="pressable-logomark-v8-dark">
      <path class="cls-1" d="M40.07,24.08c-1.2-.94-3.05-1.4-5.54-1.4h-4.18v12.1h4.18c2.35,0,4.16-.46,5.44-1.37,1.27-.91,1.91-2.45,1.91-4.61s-.6-3.78-1.8-4.72Z"/>
      <path class="cls-1" d="M68.69,0H3.52C1.58,0,0,1.58,0,3.52v65.18c0,1.94,1.58,3.52,3.52,3.52h37.89l30.81-30.81V3.52c0-1.94-1.58-3.52-3.52-3.52ZM49.03,40.64c-3.14,2.81-7.93,4.21-14.36,4.21h-4.32v13.82c0,.56-.45,1.01-1.01,1.01h-9.86c-.56,0-1.01-.45-1.01-1.01V13.53c0-.56.45-1.01,1.01-1.01h15.12c6.77,0,11.65,1.39,14.65,4.18,3,2.79,4.5,6.82,4.5,12.1s-1.57,9.04-4.72,11.84Z"/>
    </g>
  </g>
</svg>