<svg width="521" height="140" viewBox="0 0 521 140" fill="none" xmlns="http://www.w3.org/2000/svg">
<path d="M451.415 0C413.059 0 381.831 31.2282 381.831 69.5845C381.831 107.941 413.059 139.169 451.415 139.169C489.772 139.169 521 107.941 521 69.5845C521 31.2282 489.772 0 451.415 0ZM388.874 69.5845C388.874 60.5045 390.826 51.9338 394.305 44.1267L424.176 125.931C403.215 115.748 388.874 94.3633 388.874 69.5845ZM451.415 132.126C445.306 132.126 439.365 131.192 433.765 129.58L452.519 75.0155L471.782 127.713C471.866 128.052 472.036 128.307 472.206 128.562C465.672 130.853 458.713 132.126 451.415 132.126ZM460.071 40.2232C463.805 40.0535 467.199 39.6292 467.199 39.6292C470.594 39.2049 470.169 34.2831 466.775 34.4528C466.775 34.4528 456.677 35.2165 450.058 35.2165C443.948 35.2165 433.595 34.4528 433.595 34.4528C430.201 34.2831 429.861 39.3746 433.171 39.6292C433.171 39.6292 436.395 40.0535 439.705 40.2232L449.464 66.9538L435.801 108.026L413.059 40.2232C416.793 40.0535 420.187 39.6292 420.187 39.6292C423.582 39.2049 423.157 34.2831 419.763 34.4528C419.763 34.4528 409.665 35.2165 403.131 35.2165C401.943 35.2165 400.585 35.2165 399.142 35.1317C410.344 18.2447 429.522 7.04331 451.415 7.04331C467.708 7.04331 482.559 13.238 493.675 23.506C493.421 23.506 493.166 23.4211 492.827 23.4211C486.717 23.4211 482.304 28.7672 482.304 34.5377C482.304 39.7141 485.274 44.0419 488.414 49.2183C490.79 53.3764 493.59 58.7225 493.59 66.4447C493.59 71.7908 491.978 78.5795 488.838 86.6412L482.559 107.516L460.071 40.2232ZM482.898 123.64L501.991 68.3964C505.556 59.4862 506.744 52.3581 506.744 45.9936C506.744 43.7024 506.574 41.581 506.319 39.5443C511.241 48.4546 513.957 58.6376 513.957 69.5845C513.957 92.6662 501.482 112.778 482.898 123.64Z" fill="#0675C4"/>
<path d="M40.2343 68.8002C48.1343 67.0002 53.1343 61.4002 53.1343 53.8002C53.1343 43.6002 43.8343 36.0002 27.0343 36.0002H2.73428C1.43428 36.0002 0.634277 36.5002 0.634277 37.4002V37.7002C0.634277 39.9002 4.33428 40.4002 4.33428 44.3002V98.7002C4.33428 102.6 0.634277 103.1 0.634277 105.2V105.6C0.634277 106.5 1.43428 107 2.73428 107H31.0343C48.3343 107 59.9343 99.2002 59.9343 87.1002C59.9343 77.5002 52.8343 70.5002 40.2343 68.8002ZM16.4343 45.1002C16.4343 42.1002 18.0343 41.1002 20.0343 41.1002H26.6343C36.2343 41.1002 42.3343 46.5002 42.3343 55.7002C42.3343 62.2002 37.4343 66.9002 29.8343 66.9002H20.8343C18.2343 66.9002 16.4343 65.2002 16.4343 62.6002V45.1002ZM30.0343 101.9H21.8343C18.6343 101.9 16.4343 99.4002 16.4343 95.9002V71.9002H26.1343C40.1343 71.9002 47.5343 80.3002 47.5343 89.0002C47.5343 97.4002 41.9343 101.9 30.0343 101.9Z" fill="#0675C4"/>
<path d="M111.112 97.6002V59.9002C111.112 58.4002 110.012 58.1002 107.912 58.4002L97.2124 60.1002C96.1124 60.3002 95.5124 61.0002 95.5124 61.9002V62.2002C95.5124 64.2002 99.4124 64.8002 99.4124 68.9002V89.7002C99.4124 97.9002 94.7124 103.2 88.7124 103.2C82.2124 103.2 78.7124 97.8002 78.7124 87.3002L78.9124 59.9002C78.9124 58.4002 77.6124 58.1002 75.5124 58.4002L65.0124 60.1002C63.9124 60.3002 63.2124 61.0002 63.2124 61.9002V62.2002C63.2124 64.2002 67.0124 64.8002 67.0124 68.9002V86.2002C67.0124 100.8 74.9124 108 85.6124 108C92.7124 108 97.8124 105.2 100.612 100.2C100.512 105.8 103.412 107.6 108.712 107.6C113.612 107.6 116.212 107.1 116.212 105.1C116.212 101.8 111.112 105.2 111.112 97.6002Z" fill="#0675C4"/>
<path d="M131.632 50.7002C136.532 50.7002 139.732 47.6002 139.732 43.2002C139.732 38.9002 136.532 35.7002 131.632 35.7002C126.632 35.7002 123.332 38.9002 123.332 43.2002C123.332 47.6002 126.632 50.7002 131.632 50.7002ZM124.232 107H139.432C140.732 107 141.632 106.4 141.632 105.5V105.1C141.632 102.9 137.532 102.5 137.532 98.6002V60.1002C137.532 58.5002 136.232 57.3002 133.932 58.4002L123.932 63.4002C122.832 64.0002 122.132 64.4002 122.132 65.2002V65.5002C122.132 67.3002 125.832 68.3002 125.832 72.4002V98.6002C125.832 102.5 122.132 102.9 122.132 105.1V105.5C122.132 106.4 122.932 107 124.232 107Z" fill="#0675C4"/>
<path d="M150.097 107H165.297C166.597 107 167.497 106.4 167.497 105.5V105.2C167.497 102.9 163.397 102.6 163.397 98.7002V33.7002C163.397 32.2002 162.097 31.0002 159.797 32.1002L149.697 37.1002C148.697 37.6002 147.997 38.0002 147.997 38.9002V39.2002C147.997 41.0002 151.697 41.8002 151.697 46.0002V98.7002C151.697 102.6 147.997 102.9 147.997 105.2V105.5C147.997 106.4 148.797 107 150.097 107Z" fill="#0675C4"/>
<path d="M192.68 108C201.68 108 206.78 101.3 206.78 94.6002C206.78 92.8002 204.38 92.5002 203.48 94.1002C202.88 97.0002 200.58 99.3002 196.38 99.3002C193.08 99.3002 190.68 96.7002 190.68 91.9002V63.9002H203.28C204.28 63.9002 205.08 63.2002 205.08 62.2002V60.8002C205.08 59.8002 204.28 59.0002 203.28 59.0002H190.68L190.58 49.3002C190.58 47.9002 189.98 47.1002 188.68 47.1002H187.18C186.18 47.1002 185.38 47.9002 185.18 49.3002C184.38 55.1002 181.28 59.0002 176.08 59.0002H172.98C171.88 59.0002 171.28 59.7002 171.28 60.8002V62.2002C171.28 63.2002 171.98 63.9002 172.98 63.9002H178.68V91.8002C178.68 102.6 184.28 108 192.68 108Z" fill="#0675C4"/>
<path d="M274.172 68.8002C282.072 67.0002 287.072 61.4002 287.072 53.8002C287.072 43.6002 277.772 36.0002 260.972 36.0002H236.672C235.372 36.0002 234.572 36.5002 234.572 37.4002V37.7002C234.572 39.9002 238.272 40.4002 238.272 44.3002V98.7002C238.272 102.6 234.572 103.1 234.572 105.2V105.6C234.572 106.5 235.372 107 236.672 107H264.972C282.272 107 293.872 99.2002 293.872 87.1002C293.872 77.5002 286.772 70.5002 274.172 68.8002ZM250.372 45.1002C250.372 42.1002 251.972 41.1002 253.972 41.1002H260.572C270.172 41.1002 276.272 46.5002 276.272 55.7002C276.272 62.2002 271.372 66.9002 263.772 66.9002H254.772C252.172 66.9002 250.372 65.2002 250.372 62.6002V45.1002ZM263.972 101.9H255.772C252.572 101.9 250.372 99.4002 250.372 95.9002V71.9002H260.072C274.072 71.9002 281.472 80.3002 281.472 89.0002C281.472 97.4002 275.872 101.9 263.972 101.9Z" fill="#0675C4"/>
<path d="M349.15 59.0002H338.05C336.95 59.0002 336.25 59.6002 336.25 60.5002V60.8002C336.25 63.1002 342.75 63.3002 340.35 69.0002L327.95 98.2002L314.75 67.9002C312.65 63.2002 316.35 63.1002 316.35 60.8002V60.5002C316.35 59.6002 315.65 59.0002 314.65 59.0002H298.85C297.85 59.0002 297.05 59.5002 297.05 60.4002V60.8002C297.05 63.1002 300.05 63.4002 302.15 67.8002L321.65 109.3C318.55 117 314.35 124.2 310.45 124.2C304.75 124.2 306.75 113.5 300.05 113.5C296.95 113.5 295.15 115.6 295.15 118.5C295.15 123 300.35 128.3 308.65 128.3C318.65 128.3 323.65 117.1 327.15 109.2L346.05 67.8002C347.95 63.5002 350.85 63.1002 350.85 60.8002V60.4002C350.85 59.5002 350.15 59.0002 349.15 59.0002Z" fill="#0675C4"/>
</svg>
