<svg width="119" height="135" viewBox="0 0 119 135" fill="none" xmlns="http://www.w3.org/2000/svg">
<path d="M15.5795 76.674C14.5673 77.9394 14.7657 79.7979 16.0558 80.8062C25.0463 87.8251 57.2374 112.777 60.9884 112.678C64.6799 112.579 96.3748 87.8845 106.139 80.2131C107.608 79.0664 107.628 76.8519 106.179 75.6657L99.7289 70.3273C89.0117 61.4697 75.5359 56.6257 61.6235 56.6257H57.416C41.122 56.6257 25.7409 64.0005 15.5795 76.674Z" fill="#DCF1FF"/>
<path d="M54.2605 131.243L1.78613 78.9873H117.214L64.7593 131.243C61.8617 134.15 57.1581 134.15 54.2605 131.243Z" stroke="#003C65" stroke-width="1.8" stroke-miterlimit="10" stroke-linecap="round" stroke-linejoin="round"/>
<path d="M27.2297 78.9873L59.5003 133.418L89.6075 78.9873L59.5003 47.2144L27.2297 78.9873Z" stroke="#003C65" stroke-width="1.8" stroke-miterlimit="10" stroke-linecap="round" stroke-linejoin="round"/>
<path d="M117.214 78.9873H1.78613L32.4094 47.1354H83.9311L117.214 78.9873Z" stroke="#003C65" stroke-width="1.8" stroke-miterlimit="10" stroke-linecap="round" stroke-linejoin="round"/>
<path d="M17.5645 10.815L34.5134 29.7364" stroke="#003C65" stroke-width="1.8" stroke-miterlimit="10" stroke-linecap="round" stroke-linejoin="round"/>
<path d="M96.6726 10.815L79.7236 29.7364" stroke="#003C65" stroke-width="1.8" stroke-miterlimit="10" stroke-linecap="round" stroke-linejoin="round"/>
<path d="M58.4084 1.77948V24.0818" stroke="#003C65" stroke-width="1.8" stroke-miterlimit="10" stroke-linecap="round" stroke-linejoin="round"/>
</svg>
