<svg width="190" height="123" viewBox="0 0 190 123" fill="none" xmlns="http://www.w3.org/2000/svg">
<path d="M0.787109 30.9415L152.146 4.25292L181.667 46.097L168.238 95.5145L16.879 122.203L0.787109 30.9415Z" fill="#3858E9"/>
<circle cx="151.369" cy="51.0995" r="16" transform="rotate(-10 151.369 51.0995)" fill="white"/>
<path d="M149.872 43.11L152.727 48.4245L158.746 47.3632L154.491 51.709L157.346 57.0235L151.862 54.3948L147.608 58.7406L148.473 52.7702L142.989 50.1416L149.007 49.0803L149.872 43.11Z" fill="#3858E9"/>
<path d="M23.1836 76.7989C22.808 76.8651 22.5553 76.6516 22.489 76.276L22.3345 75.3998C22.2757 75.066 22.4475 74.8205 22.8231 74.7543L36.0922 72.4146C36.4677 72.3484 36.7132 72.5202 36.772 72.854L36.9265 73.7303C36.9927 74.1059 36.8282 74.393 36.4527 74.4592L23.1836 76.7989Z" fill="white"/>
<path d="M60.1062 76.3979C60.5235 76.3243 60.8671 76.5649 60.8302 77.0877L60.4859 81.9671C60.4073 82.4973 60.1397 82.9317 59.639 83.02L41.5295 86.2131C41.0705 86.2941 40.6852 86.0608 40.6043 85.6018L40.5454 85.268C39.0518 76.7975 53.7183 68.9625 52.3277 61.0761C51.6803 57.4041 48.5928 55.7543 46.0475 56.2031C40.0805 57.2552 42.0333 64.182 39.2793 64.6676C38.1527 64.8662 37.2005 64.3458 36.9871 63.1357C36.5089 60.4235 39.3616 55.618 45.5372 54.5291C50.7947 53.602 55.2297 55.5736 56.1347 60.706C57.6797 69.4686 43.4037 75.858 43.4297 83.0815L56.7406 80.7345C59.2025 80.3004 58.771 76.6333 59.8141 76.4494L60.1062 76.3979Z" fill="white"/>
<path d="M76.2921 80.5138C69.3237 81.7425 63.0705 76.7787 61.3929 67.265C59.7448 57.9182 63.1599 51.4217 70.629 50.1047C77.4305 48.9055 83.6518 54.176 85.2557 63.2725C86.9406 72.8279 83.0101 79.3292 76.2921 80.5138ZM76.5402 78.7491C80.7547 78.006 83.1533 73.0655 81.8363 65.5964C80.3575 57.2093 75.4789 51.0136 70.263 51.9333C65.8817 52.7058 63.5321 57.6807 64.8638 65.2332C66.3868 73.8707 71.2409 79.6835 76.5402 78.7491Z" fill="white"/>
<path d="M94.8318 62.1433C90.7426 62.8643 86.9337 60.051 86.1317 55.5028C85.3224 50.9128 87.5785 47.1161 91.9181 46.3509C95.9239 45.6446 99.7205 48.6322 100.508 53.0969C101.332 57.7703 98.7542 61.4517 94.8318 62.1433ZM98.1336 76.2323C97.7163 76.3059 97.4562 76.0506 97.633 75.5892L108.79 44.1933C108.913 43.9135 109.058 43.7589 109.308 43.7148L110.644 43.4793C111.061 43.4057 111.321 43.661 111.144 44.1225L100.112 75.4963C99.9966 75.8178 99.8026 75.938 99.4688 75.9969L98.1336 76.2323ZM94.994 60.867C97.3307 60.455 98.1558 57.8141 97.626 54.8097C96.9491 50.9709 94.4756 47.1907 91.5964 47.6983C89.1345 48.1324 88.3168 50.815 88.8539 53.8611C89.5603 57.8669 92.0731 61.382 94.994 60.867ZM117.068 73.324C112.978 74.045 109.162 71.1899 108.36 66.6417C107.551 62.0518 109.814 58.2968 114.154 57.5316C118.16 56.8253 121.949 59.7711 122.736 64.2359C123.56 68.9093 120.99 72.6324 117.068 73.324ZM117.222 72.0059C119.559 71.5939 120.392 68.9948 119.862 65.9904C119.178 62.1098 116.704 58.3296 113.825 58.8373C111.363 59.2714 110.553 61.9957 111.082 65.0001C111.789 69.0058 114.302 72.521 117.222 72.0059Z" fill="white"/>
</svg>
