<svg width="221" height="181" viewBox="0 0 221 181" fill="none" xmlns="http://www.w3.org/2000/svg">
<path d="M132.982 77.7701L104.382 75.9701C103.982 75.9701 103.782 75.6701 103.782 75.2701V55.9701C103.782 55.5701 104.082 55.3701 104.382 55.3701L132.982 57.1701C133.382 57.1701 133.582 57.4701 133.582 57.8701V77.1701C133.582 77.5701 133.282 77.8701 132.982 77.7701Z" fill="#8BBECE"/>
<path d="M181.182 80.7701L152.582 78.9701C152.182 78.9701 151.982 78.6701 151.982 78.2701V58.9701C151.982 58.5701 152.282 58.3701 152.582 58.3701L181.182 60.1701C181.582 60.1701 181.782 60.4701 181.782 60.8701V80.1701C181.782 80.5701 181.482 80.8701 181.182 80.7701Z" fill="#8BBECE"/>
<path d="M181.182 120.471L152.582 118.671C152.182 118.671 151.982 118.371 151.982 117.971V98.5707C151.982 98.1707 152.282 97.9707 152.582 97.9707L181.182 99.7707C181.582 99.7707 181.782 100.071 181.782 100.471V119.771C181.782 120.171 181.482 120.471 181.182 120.471Z" fill="#8BBECE"/>
<path d="M134.082 117.47L105.482 115.67C105.082 115.67 104.882 115.37 104.882 114.97V95.6703C104.882 95.2703 105.182 95.0703 105.482 95.0703L134.082 96.8703C134.482 96.8703 134.682 97.1703 134.682 97.5703V116.87C134.682 117.27 134.382 117.47 134.082 117.47Z" fill="#8BBECE"/>
<path d="M81.1826 67.5706L52.3826 65.7706C51.9826 65.7706 51.6826 65.4706 51.6826 65.0706C51.6826 64.6706 51.9826 64.3706 52.3826 64.4706L81.1826 66.2706C81.5826 66.2706 81.8826 66.5706 81.8826 66.9706C81.8826 67.2706 81.5826 67.5706 81.1826 67.5706Z" fill="#8BBECE"/>
<path d="M81.1826 75.9709L52.3826 74.1709C51.9826 74.1709 51.6826 73.8709 51.6826 73.4709C51.6826 73.0709 51.9826 72.7709 52.3826 72.8709L81.1826 74.6709C81.5826 74.6709 81.8826 74.9709 81.8826 75.3709C81.8826 75.6709 81.5826 75.9709 81.1826 75.9709Z" fill="#8BBECE"/>
<path d="M81.582 84.3704L52.782 82.5704C52.382 82.5704 52.082 82.2704 52.082 81.8704C52.082 81.4704 52.382 81.1704 52.782 81.2704L81.582 82.9704C81.982 82.9704 82.282 83.2704 82.282 83.6704C82.182 84.0704 81.882 84.3704 81.582 84.3704Z" fill="#8BBECE"/>
<path d="M66.682 54.7707L55.282 54.0707C54.382 53.9707 53.582 53.1707 53.582 52.1707C53.582 51.1707 54.382 50.4707 55.282 50.4707L66.682 51.1707C67.582 51.2707 68.382 52.0707 68.382 53.0707C68.382 54.0707 67.582 54.8707 66.682 54.7707Z" fill="#8BBECE"/>
<path d="M51.1824 62.9705C50.8824 63.2705 50.6824 63.7705 50.6824 64.2705C50.6824 65.3705 51.4824 66.2705 52.5824 66.2705L79.5824 67.9705V72.4705L52.5824 70.7705C52.0824 70.7705 51.5824 70.9705 51.2824 71.2705C50.9824 71.5705 50.7824 72.0705 50.7824 72.5705C50.7824 73.6705 51.5824 74.5705 52.6824 74.5705L79.6824 76.2705V80.7705L52.6824 79.0705C52.1824 79.0705 51.6824 79.2705 51.3824 79.5705C51.0824 79.8705 50.8824 80.3705 50.8824 80.8705C50.8824 81.9705 51.6824 82.8705 52.7824 82.8705L79.7824 84.5705V130.87C79.7824 131.271 79.4824 131.471 79.1824 131.471L48.5824 129.571C48.1824 129.571 47.9824 129.271 47.9824 128.87V53.8705C47.9824 53.4705 48.2824 53.2705 48.5824 53.2705L79.1824 55.1705C79.5824 55.1705 79.7824 55.4705 79.7824 55.8705V63.8705L52.7824 62.1705C51.9824 62.4705 51.4824 62.5705 51.1824 62.9705Z" fill="url(#paint0_linear_2442_35716)"/>
<path d="M191.882 49.9707L42.7822 40.6707V38.9707L191.882 48.2707V49.9707Z" fill="#003B62"/>
<path d="M190.582 142.47L44.0822 133.37C43.3822 133.37 42.7822 132.67 42.7822 131.97V36.4699C42.7822 35.7699 43.3822 35.1699 44.0822 35.1699L190.582 44.3699C191.282 44.3699 191.882 45.0699 191.882 45.7699V141.27C191.882 141.97 191.282 142.57 190.582 142.47Z" stroke="#003B62" stroke-width="1.8" stroke-miterlimit="10" stroke-linecap="round" stroke-linejoin="round"/>
<path d="M195.382 137.77L191.982 137.57V45.7703C191.982 45.0703 191.382 44.3703 190.682 44.3703L47.582 35.4703V31.8703C47.582 31.1703 48.182 30.5703 48.882 30.5703L195.382 39.7703C196.082 39.7703 196.682 40.4703 196.682 41.1703V136.67C196.582 137.27 196.082 137.87 195.382 137.77Z" fill="#003B62"/>
<path d="M82.1826 66.2703C82.1826 66.7703 81.9826 67.2703 81.6826 67.5703C81.3826 67.8703 80.8826 68.0703 80.3826 68.0703L52.5826 66.3703C51.5826 66.2703 50.6826 65.3703 50.6826 64.3703C50.6826 63.8703 50.8826 63.3703 51.1826 63.0703C51.4826 62.7703 51.9826 62.5703 52.4826 62.5703L80.2826 64.2703C81.3826 64.2703 82.1826 65.1703 82.1826 66.2703Z" stroke="#003B62" stroke-width="1.8" stroke-miterlimit="10" stroke-linecap="round" stroke-linejoin="round"/>
<path d="M82.1826 74.6707C82.1826 75.1707 81.9826 75.6707 81.6826 75.9707C81.3826 76.2707 80.8826 76.4707 80.3826 76.4707L52.5826 74.7707C51.5826 74.6707 50.6826 73.7707 50.6826 72.7707C50.6826 72.2707 50.8826 71.7707 51.1826 71.4707C51.4826 71.1707 51.9826 70.9707 52.4826 70.9707L80.2826 72.6707C81.3826 72.6707 82.1826 73.5707 82.1826 74.6707Z" stroke="#003B62" stroke-width="1.8" stroke-miterlimit="10" stroke-linecap="round" stroke-linejoin="round"/>
<path d="M82.1826 82.9705C82.1826 83.4705 81.9826 83.9705 81.6826 84.2705C81.3826 84.5705 80.8826 84.7705 80.3826 84.7705L52.5826 83.0705C51.5826 82.9705 50.6826 82.0705 50.6826 81.0705C50.6826 80.5705 50.8826 80.0705 51.1826 79.7705C51.4826 79.4705 51.9826 79.2705 52.4826 79.2705L80.3826 80.9705C81.3826 81.0705 82.1826 81.9705 82.1826 82.9705Z" stroke="#003B62" stroke-width="1.8" stroke-miterlimit="10" stroke-linecap="round" stroke-linejoin="round"/>
<path d="M135.083 79.9701L98.2826 77.6701C97.8826 77.6701 97.6826 77.3701 97.6826 76.9701V51.4701C97.6826 51.0701 97.9826 50.8701 98.2826 50.8701L135.083 53.1701C135.483 53.1701 135.683 53.4701 135.683 53.8701V79.2701C135.683 79.6701 135.383 79.9701 135.083 79.9701Z" stroke="#003B62" stroke-width="1.8" stroke-miterlimit="10" stroke-linecap="round" stroke-linejoin="round"/>
<path d="M66.8826 54.6704L52.8826 53.7704C51.6826 53.6704 50.6826 52.5704 50.6826 51.2704C50.6826 49.9704 51.6826 48.9704 52.8826 49.0704L66.8826 49.9704C68.0826 50.0704 69.0826 51.1704 69.0826 52.4704C69.0826 53.7704 68.0826 54.7704 66.8826 54.6704Z" stroke="#003B62" stroke-width="1.8" stroke-miterlimit="10" stroke-linecap="round" stroke-linejoin="round"/>
<path d="M43.582 40.6699L191.882 49.9699" stroke="#003B62" stroke-width="1.8" stroke-miterlimit="10" stroke-linecap="round" stroke-linejoin="round"/>
<path d="M88.082 43.4707V136.071" stroke="#003B62" stroke-width="1.8" stroke-miterlimit="10" stroke-linecap="round" stroke-linejoin="round"/>
<path d="M123.282 75.2705L132.582 75.8705" stroke="#003B62" stroke-width="1.8" stroke-miterlimit="10" stroke-linecap="round" stroke-linejoin="round"/>
<path d="M97.6826 82.0703L120.383 83.4703" stroke="#003B62" stroke-width="1.8" stroke-miterlimit="10" stroke-linecap="round" stroke-linejoin="round"/>
<path d="M183.083 82.9701L146.283 80.6701C145.883 80.6701 145.683 80.3701 145.683 79.9701V54.4701C145.683 54.0701 145.983 53.8701 146.283 53.8701L183.083 56.1701C183.483 56.1701 183.683 56.4701 183.683 56.8701V82.2701C183.783 82.6701 183.483 82.9701 183.083 82.9701Z" stroke="#003B62" stroke-width="1.8" stroke-miterlimit="10" stroke-linecap="round" stroke-linejoin="round"/>
<path d="M171.282 78.2705L180.582 78.8705" stroke="#003B62" stroke-width="1.8" stroke-miterlimit="10" stroke-linecap="round" stroke-linejoin="round"/>
<path d="M145.683 85.0703L168.383 86.4703" stroke="#003B62" stroke-width="1.8" stroke-miterlimit="10" stroke-linecap="round" stroke-linejoin="round"/>
<path d="M136.182 119.571L99.3822 117.271C98.9822 117.271 98.7822 116.971 98.7822 116.571V91.0707C98.7822 90.6707 99.0822 90.4707 99.3822 90.4707L136.182 92.7707C136.582 92.7707 136.782 93.0707 136.782 93.4707V118.871C136.782 119.271 136.482 119.571 136.182 119.571Z" stroke="#003B62" stroke-width="1.8" stroke-miterlimit="10" stroke-linecap="round" stroke-linejoin="round"/>
<path d="M124.282 114.87L133.582 115.47" stroke="#003B62" stroke-width="1.8" stroke-miterlimit="10" stroke-linecap="round" stroke-linejoin="round"/>
<path d="M98.6826 121.67L121.483 123.07" stroke="#003B62" stroke-width="1.8" stroke-miterlimit="10" stroke-linecap="round" stroke-linejoin="round"/>
<path d="M183.083 122.471L146.283 120.171C145.883 120.171 145.683 119.871 145.683 119.471V94.0707C145.683 93.6707 145.983 93.4707 146.283 93.4707L183.083 95.7707C183.483 95.7707 183.683 96.0707 183.683 96.4707V121.871C183.783 122.171 183.483 122.471 183.083 122.471Z" stroke="#003B62" stroke-width="1.8" stroke-miterlimit="10" stroke-linecap="round" stroke-linejoin="round"/>
<path d="M171.282 117.771L180.582 118.371" stroke="#003B62" stroke-width="1.8" stroke-miterlimit="10" stroke-linecap="round" stroke-linejoin="round"/>
<path d="M145.683 124.57L168.383 125.97" stroke="#003B62" stroke-width="1.8" stroke-miterlimit="10" stroke-linecap="round" stroke-linejoin="round"/>
<path d="M102.282 72.5703L122.082 54.5703L130.282 55.0703L115.682 73.8703L102.782 73.7703C102.182 73.7703 101.882 72.9703 102.282 72.5703Z" fill="url(#paint1_linear_2442_35716)"/>
<path d="M150.783 75.5703L170.583 57.5703L178.783 58.0703L164.183 76.8703L151.283 76.7703C150.683 76.7703 150.383 75.9703 150.783 75.5703Z" fill="url(#paint2_linear_2442_35716)"/>
<path d="M100.982 112.771L120.782 94.7705L128.982 95.2705L114.282 113.971H101.382C100.782 113.971 100.482 113.171 100.982 112.771Z" fill="url(#paint3_linear_2442_35716)"/>
<path d="M149.482 115.771L169.282 97.7705L177.482 98.2705L162.882 117.071L149.982 116.971C149.382 116.971 149.082 116.171 149.482 115.771Z" fill="url(#paint4_linear_2442_35716)"/>
<path d="M74.282 98.0703V130.17C74.282 131.07 73.582 131.77 72.682 131.67L26.182 127.57C25.282 127.47 24.582 126.67 24.582 125.77V93.7703C24.582 92.8703 25.282 92.1703 26.182 92.2703L26.982 92.3703L72.782 96.3703C73.582 96.3703 74.282 97.1703 74.282 98.0703Z" fill="white"/>
<path d="M72.882 96.3701L24.582 125.97C24.582 126.77 25.182 127.47 25.982 127.57L72.882 131.67C73.682 131.77 74.282 131.17 74.282 130.27V97.9701C74.282 97.1701 73.682 96.3701 72.882 96.3701ZM68.282 124.27C68.282 124.97 67.782 125.47 67.082 125.37L59.082 124.67C58.482 124.57 57.882 124.07 57.882 123.37V115.07C57.882 114.37 58.382 113.87 59.082 113.97L67.082 114.67C67.682 114.77 68.282 115.27 68.282 115.97V124.27Z" fill="url(#paint5_linear_2442_35716)"/>
<path d="M67.182 125.57L59.182 124.87C58.582 124.77 58.082 124.27 58.082 123.57L67.282 114.87C67.882 114.97 68.382 115.47 68.382 116.17V124.47C68.282 125.17 67.782 125.67 67.182 125.57Z" fill="#7CBFCF"/>
<path d="M74.282 98.0703V130.17C74.282 131.07 73.582 131.77 72.682 131.67L26.182 127.57C25.282 127.47 24.582 126.67 24.582 125.77V93.7703C24.582 92.8703 25.282 92.1703 26.182 92.2703L26.982 92.3703L72.782 96.3703C73.582 96.3703 74.282 97.1703 74.282 98.0703Z" stroke="#003C65" stroke-width="1.8" stroke-miterlimit="10" stroke-linecap="round" stroke-linejoin="round"/>
<path d="M74.282 105.171L24.582 100.771" stroke="#003C65" stroke-width="1.8" stroke-miterlimit="10" stroke-linecap="round" stroke-linejoin="round"/>
<path d="M76.6818 95.1703V127.27C76.6818 128.17 75.9818 128.87 75.0818 128.77L74.2818 128.67V98.0703C74.2818 97.1703 73.5818 96.3703 72.6818 96.2703L26.8818 92.2703V90.7703C26.8818 89.8703 27.5818 89.1703 28.4818 89.2703L75.0818 93.3703C75.9818 93.3703 76.6818 94.1703 76.6818 95.1703Z" fill="#003C65"/>
<path d="M67.4822 125.87L58.7822 125.07C58.1822 125.07 57.7822 124.47 57.7822 123.97V114.87C57.7822 114.27 58.2822 113.87 58.7822 113.87L67.4822 114.67C68.0822 114.67 68.4822 115.27 68.4822 115.77V124.87C68.4822 125.47 68.0822 125.87 67.4822 125.87Z" stroke="#003C65" stroke-width="1.8" stroke-miterlimit="10" stroke-linecap="round" stroke-linejoin="round"/>
<path d="M47.2818 106.77L27.6818 105.07C27.2818 105.07 26.8818 104.67 26.8818 104.27C26.8818 103.87 27.1818 103.57 27.6818 103.57L47.2818 105.27C47.6818 105.27 48.0818 105.67 48.0818 106.07C48.0818 106.57 47.6818 106.87 47.2818 106.77Z" fill="#003C65"/>
<path d="M74.282 98.0703V130.17C74.282 131.07 73.582 131.77 72.682 131.67L26.182 127.57C25.282 127.47 24.582 126.67 24.582 125.77V93.7703C24.582 92.8703 25.282 92.1703 26.182 92.2703L26.982 92.3703L72.782 96.3703C73.582 96.3703 74.282 97.1703 74.282 98.0703Z" stroke="#003C65" stroke-width="1.8" stroke-miterlimit="10" stroke-linecap="round" stroke-linejoin="round"/>
<path d="M74.282 105.171L24.582 100.771" stroke="#003C65" stroke-width="1.8" stroke-miterlimit="10" stroke-linecap="round" stroke-linejoin="round"/>
<path d="M90.182 136.271L67.082 121.271L71.682 148.471L77.582 141.771L83.282 150.37L87.382 147.771L81.682 139.071L90.182 136.271Z" fill="white" stroke="#003C65" stroke-width="1.8" stroke-miterlimit="10" stroke-linecap="round" stroke-linejoin="round"/>
<path d="M87.0824 135.67L68.8824 123.67C68.6824 123.57 68.4824 123.67 68.4824 123.87L72.2824 145.27C72.2824 145.47 72.5824 145.57 72.6824 145.37L77.4824 140.07L83.2824 148.87C83.3824 148.97 83.4824 148.97 83.5824 148.97L85.8824 147.47C85.9824 147.37 85.9824 147.27 85.9824 147.17L80.1824 138.37L86.8824 136.07C87.1824 135.97 87.1824 135.77 87.0824 135.67Z" fill="url(#paint6_linear_2442_35716)"/>
<defs>
<linearGradient id="paint0_linear_2442_35716" x1="47.5577" y1="91.3504" x2="79.4556" y2="91.3504" gradientUnits="userSpaceOnUse">
<stop stop-color="#E9E9E9"/>
<stop offset="1" stop-color="#EFEFEF"/>
</linearGradient>
<linearGradient id="paint1_linear_2442_35716" x1="102.1" y1="63.5191" x2="130.313" y2="63.5191" gradientUnits="userSpaceOnUse">
<stop stop-color="#E9E9E9"/>
<stop offset="1" stop-color="#EFEFEF"/>
</linearGradient>
<linearGradient id="paint2_linear_2442_35716" x1="150.601" y1="66.5191" x2="178.814" y2="66.5191" gradientUnits="userSpaceOnUse">
<stop stop-color="#E9E9E9"/>
<stop offset="1" stop-color="#EFEFEF"/>
</linearGradient>
<linearGradient id="paint3_linear_2442_35716" x1="100.73" y1="103.718" x2="128.943" y2="103.718" gradientUnits="userSpaceOnUse">
<stop stop-color="#E9E9E9"/>
<stop offset="1" stop-color="#EFEFEF"/>
</linearGradient>
<linearGradient id="paint4_linear_2442_35716" x1="149.265" y1="106.717" x2="177.479" y2="106.717" gradientUnits="userSpaceOnUse">
<stop stop-color="#E9E9E9"/>
<stop offset="1" stop-color="#EFEFEF"/>
</linearGradient>
<linearGradient id="paint5_linear_2442_35716" x1="24.582" y1="109.773" x2="74.2821" y2="109.773" gradientUnits="userSpaceOnUse">
<stop stop-color="#EAEAEA"/>
<stop offset="1" stop-color="#F0F0F0"/>
</linearGradient>
<linearGradient id="paint6_linear_2442_35716" x1="69.2973" y1="140.785" x2="84.0444" y2="131.095" gradientUnits="userSpaceOnUse">
<stop stop-color="#E9E9E9"/>
<stop offset="1" stop-color="#EFEFEF"/>
</linearGradient>
</defs>
</svg>
