<svg version="1.2" xmlns="http://www.w3.org/2000/svg" viewBox="0 0 25 24" width="25" height="24"><defs><clipPath clipPathUnits="userSpaceOnUse" id="cp1"><path d="m0.66 0.09h24v24h-24z"/></clipPath></defs><style>.a{fill:none;stroke:#8c8f94;stroke-linecap:round;stroke-linejoin:round;stroke-width:2}</style><g clip-path="url(#cp1)"><circle class="a" cx="12.7" cy="12.1" r="3"/><path class="a" d="m20.1 15.1q-0.2 0.5-0.2 1 0.1 0.4 0.5 0.8l0.1 0.1q0.2 0.3 0.4 0.6 0.1 0.4 0.1 0.8 0 0.4-0.1 0.8-0.2 0.3-0.4 0.6-0.3 0.3-0.7 0.4-0.4 0.2-0.8 0.2-0.4 0-0.7-0.2-0.4-0.1-0.7-0.4v-0.1q-0.4-0.3-0.9-0.4-0.5-0.1-1 0.1-0.4 0.2-0.7 0.6-0.3 0.4-0.3 0.9v0.2c0 0.5-0.2 1-0.5 1.4-0.4 0.4-0.9 0.6-1.5 0.6-0.5 0-1-0.2-1.4-0.6-0.3-0.4-0.6-0.9-0.6-1.4v-0.1q0-0.5-0.3-0.9-0.3-0.4-0.7-0.6-0.5-0.2-1-0.1-0.5 0.1-0.9 0.4v0.1q-0.3 0.3-0.7 0.4-0.3 0.2-0.7 0.2-0.4 0-0.8-0.2-0.4-0.1-0.6-0.4-0.3-0.3-0.5-0.7-0.1-0.3-0.1-0.7 0-0.4 0.1-0.8 0.2-0.4 0.5-0.6v-0.1q0.4-0.4 0.5-0.9 0-0.5-0.2-0.9-0.2-0.5-0.6-0.8-0.4-0.2-0.9-0.2h-0.1c-0.6 0-1.1-0.2-1.5-0.6-0.3-0.4-0.5-0.9-0.5-1.4 0-0.6 0.2-1.1 0.5-1.4 0.4-0.4 0.9-0.6 1.5-0.6h0.1q0.5 0 0.9-0.3 0.4-0.3 0.6-0.8 0.2-0.5 0.1-1-0.1-0.5-0.5-0.8v-0.1q-0.3-0.3-0.5-0.6-0.1-0.4-0.1-0.8 0-0.4 0.1-0.8 0.2-0.3 0.5-0.6 0.3-0.3 0.6-0.5 0.4-0.1 0.8-0.1 0.4 0 0.8 0.1 0.3 0.2 0.6 0.5h0.1q0.3 0.4 0.8 0.5 0.5 0.1 1-0.1h0.1q0.4-0.2 0.7-0.6 0.3-0.4 0.3-0.9v-0.2c0-0.5 0.2-1 0.5-1.4 0.4-0.4 0.9-0.6 1.5-0.6 0.5 0 1 0.2 1.4 0.6 0.3 0.4 0.6 0.9 0.6 1.4v0.1q0 0.5 0.2 0.9 0.3 0.4 0.8 0.6 0.4 0.2 0.9 0.1 0.5-0.1 0.9-0.4v-0.1q0.3-0.3 0.7-0.4 0.4-0.2 0.8-0.2 0.4 0 0.7 0.2 0.4 0.1 0.7 0.4 0.3 0.3 0.4 0.7 0.2 0.3 0.2 0.7 0 0.4-0.2 0.8-0.1 0.4-0.4 0.6l-0.1 0.1q-0.3 0.4-0.4 0.9-0.1 0.4 0.1 0.9v0.1q0.2 0.4 0.6 0.7 0.4 0.3 0.9 0.3h0.2c0.5 0 1 0.2 1.4 0.6 0.3 0.4 0.6 0.9 0.6 1.4 0 0.5-0.3 1-0.6 1.4-0.4 0.4-0.9 0.6-1.4 0.6h-0.1q-0.5 0-0.9 0.3-0.4 0.2-0.6 0.7z"/></g></svg>