<svg width="16" height="16" viewBox="0 0 16 16" fill="none" xmlns="http://www.w3.org/2000/svg">
<path fill-rule="evenodd" clip-rule="evenodd" d="M7.76592 0.709073C7.91684 0.652477 8.08316 0.652477 8.23408 0.709073L13.5674 2.70907C13.8276 2.80665 14 3.0554 14 3.33329V7.99996C14 10.2976 12.4788 12.1335 11.1057 13.335C10.4051 13.948 9.70764 14.4272 9.18667 14.7528C8.92549 14.916 8.70688 15.0418 8.55204 15.1275C8.47458 15.1704 8.41295 15.2033 8.36979 15.226C8.3482 15.2373 8.33122 15.2461 8.31917 15.2522L8.30484 15.2595L8.30052 15.2617L8.29909 15.2624C8.29887 15.2625 8.29814 15.2629 8 14.6666C7.70186 15.2629 7.70166 15.2628 7.70145 15.2627L7.69948 15.2617L7.69516 15.2595L7.68083 15.2522C7.66878 15.2461 7.6518 15.2373 7.63021 15.226C7.58705 15.2033 7.52542 15.1704 7.44796 15.1275C7.29312 15.0418 7.07452 14.916 6.81333 14.7528C6.29236 14.4272 5.59492 13.948 4.89433 13.335C3.52116 12.1335 2 10.2976 2 7.99996V3.33329C2 3.0554 2.17238 2.80665 2.43258 2.70907L7.76592 0.709073ZM8 14.6666L7.70145 15.2627C7.88913 15.3565 8.11046 15.3568 8.29814 15.2629L8 14.6666ZM8 13.9085C8.12776 13.8361 8.29114 13.7402 8.48 13.6221C8.95903 13.3227 9.59492 12.8852 10.2277 12.3316C11.5212 11.1998 12.6667 9.70233 12.6667 7.99996V3.79529L8 2.04529L3.33333 3.79529V7.99996C3.33333 9.70233 4.47884 11.1998 5.77234 12.3316C6.40508 12.8852 7.04097 13.3227 7.52 13.6221C7.70886 13.7402 7.87224 13.8361 8 13.9085Z" fill="#50575E"/>
</svg>
