<svg width="24" height="24" viewBox="0 0 24 24" fill="none" xmlns="http://www.w3.org/2000/svg">
<mask id="mask0_7786_53482" style="mask-type:alpha" maskUnits="userSpaceOnUse" x="2" y="0" width="20" height="24">
<path fill-rule="evenodd" clip-rule="evenodd" d="M11.5 19.695V23.295L12.93 22.605C18.06 20.135 21.5 15.155 21.5 10.205C21.5 4.96499 17.24 0.704987 12 0.704987C6.76 0.704987 2.5 4.96499 2.5 10.205C2.5 15.275 6.49 19.435 11.5 19.695ZM4.5 10.205C4.5 6.06499 7.86 2.70499 12 2.70499C16.14 2.70499 19.5 6.06499 19.5 10.205C19.5 13.925 17.14 17.705 13.5 20.005V17.705H12C7.86 17.705 4.5 14.345 4.5 10.205ZM13 14.205V16.205H11V14.205H13ZM12.7704 9.52666C11.9421 10.1616 11 10.8837 11 12.705H13C13 11.6096 13.711 10.9883 14.4408 10.3505C15.21 9.67831 16 8.9879 16 7.70499C16 5.49499 14.21 3.70499 12 3.70499C9.79 3.70499 8 5.49499 8 7.70499H10C10 6.60499 10.9 5.70499 12 5.70499C13.1 5.70499 14 6.60499 14 7.70499C14 8.5842 13.4202 9.02859 12.7704 9.52666Z" fill="white"/>
</mask>
<g mask="url(#mask0_7786_53482)">
<rect width="24" height="24" fill="black"/>
</g>
</svg>
