<svg width="41" height="41" viewBox="0 0 41 41" fill="none" xmlns="http://www.w3.org/2000/svg">
<path d="M20.5086 0.884766C9.70663 0.884766 0.912109 9.67929 0.912109 20.4812C0.912109 31.2832 9.70663 40.0777 20.5086 40.0777C31.3106 40.0777 40.1051 31.2832 40.1051 20.4812C40.1051 9.67929 31.3106 0.884766 20.5086 0.884766ZM2.89566 20.4812C2.89566 17.9241 3.44531 15.5104 4.42514 13.3118L12.8373 36.3496C6.95834 33.4818 2.89566 27.4595 2.89566 20.4812ZM20.5086 38.0942C18.7879 38.0942 17.1151 37.8313 15.5378 37.3772L20.8193 22.0107L26.2441 36.8515C26.268 36.9471 26.3158 37.0188 26.3636 37.0905C24.5235 37.7357 22.5638 38.0942 20.5086 38.0942ZM22.9462 12.2125C23.9977 12.1647 24.9536 12.0452 24.9536 12.0452C25.9096 11.9257 25.7901 10.5396 24.8342 10.5874C24.8342 10.5874 21.9903 10.8025 20.1262 10.8025C18.4056 10.8025 15.49 10.5874 15.49 10.5874C14.5341 10.5396 14.4385 11.9735 15.3705 12.0452C15.3705 12.0452 16.2786 12.1647 17.2106 12.2125L19.9589 19.7404L16.1352 31.3071L9.73053 12.2125C10.782 12.1647 11.738 12.0452 11.738 12.0452C12.6939 11.9257 12.5744 10.5396 11.6185 10.5874C11.6185 10.5874 8.7746 10.8025 6.93444 10.8025C6.59987 10.8025 6.2175 10.8025 5.81123 10.7786C8.96579 5.99897 14.3668 2.84442 20.5325 2.84442C25.1209 2.84442 29.3031 4.58898 32.4338 7.48066C32.3621 7.48066 32.2904 7.45676 32.1948 7.45676C30.4741 7.45676 29.2314 8.96234 29.2314 10.5874C29.2314 12.0452 30.0679 13.264 30.9521 14.7218C31.6212 15.8928 32.4099 17.3984 32.4099 19.5731C32.4099 21.0787 31.8363 22.8233 31.0716 25.2609L29.3031 31.1398L22.9462 12.2125ZM35.9707 12.0213C37.3568 14.5306 38.1215 17.4223 38.1215 20.4812C38.1215 26.9815 34.6085 32.6454 29.3509 35.7044L34.728 20.1467C35.7317 17.6374 36.0663 15.6299 36.0663 13.8376C36.0902 13.1923 36.0424 12.5949 35.9707 12.0213Z" fill="black"/>
</svg>
