<?xml version="1.0" encoding="utf-8"?>
<!-- Generator: Adobe Illustrator 18.1.0, SVG Export Plug-In . SVG Version: 6.00 Build 0)  -->
<svg version="1.1" id="Layer_1" xmlns="http://www.w3.org/2000/svg" xmlns:xlink="http://www.w3.org/1999/xlink" x="0px" y="0px"
	 viewBox="0 0 150 150" enable-background="new 0 0 150 150" xml:space="preserve">
<g id="Posts">
	<path fill="#D2DDE5" d="M75,4.7C36.2,4.7,4.7,36.2,4.7,75s31.5,70.3,70.3,70.3s70.3-31.5,70.3-70.3C145.3,37.8,113.8,4.7,75,4.7z"
		/>
	<polyline fill="#FFFFFF" points="41.3,55.7 41.3,23.4 74.2,23.4 87.5,36.5 86.9,61.3 91,40 127.4,76.6 127.4,108.8 94.8,108.8 
		41.3,55.7 	"/>
	<polygon fill="#F0F4F5" points="41.3,23.4 41.3,55.7 94.8,108.8 127.6,108.8 	"/>
	<path fill="#91ADC0" d="M79.4,114.7l-3.2-7l-8.5-19.5h1.4c2.4,0,4.4-2.2,4.4-4.7s-2-4.7-4.4-4.7H49.7H29.8c-2.4,0-4.4,2.2-4.4,4.7
		s2,4.7,4.4,4.7h1.4l-11.8,27c-0.4,0.8-0.5,1.3-0.6,2.1c1.7,2.2,3.7,4.6,5.6,6.5c0.4,0.1,0.4,0.1,0.8,0.1h6.5h18.1h19.1h4.9
		C78.9,123.8,81.6,119.4,79.4,114.7z"/>
	<path fill="#B1C5D1" d="M122.8,101.2v2.8h-3.1l12.1,12.4c0.9-1.2,1.8-2.5,2.5-3.8L122.8,101.2z"/>
</g>
<g id="Layer_2">
	<polygon fill="#576977" points="49.7,93.8 36.7,93.8 26.9,116.2 49.7,116.2 49.7,116.2 	"/>
	<path fill="#8AA6B7" enable-background="new    " d="M79.4,114.7l-3.2-7l-8.5-19.5h1.4c2.4,0,4.4-2.2,4.4-4.7s-2-4.7-4.4-4.7H49.7
		v15H51h11.2l9.8,22.5H51h-1.3v7.5h19.1h4.9C78.9,123.8,81.6,119.4,79.4,114.7z"/>
	<polygon fill="#485565" points="72,116.2 62.2,93.8 51,93.8 49.7,93.8 49.7,116.2 51,116.2 	"/>
	<polygon fill="#485565" points="72,116.2 62.2,93.8 51,93.8 49.7,93.8 49.7,116.2 51,116.2 	"/>
</g>
</svg>
