<svg xmlns="http://www.w3.org/2000/svg" viewBox="0 0 142 142" enable-background="new 0 0 142 142"><style type="text/css">.st0{fill:#C8D7E2;}</style><path class="st0" d="M102.6 49.6h-2.5c-.3 0-.5-.2-.5-.5s.2-.5.5-.5h2v-2c0-.3.2-.5.5-.5s.5.2.5.5v2.5c0 .3-.2.5-.5.5zM94.7 49.6h-5.4c-.3 0-.5-.2-.5-.5s.2-.5.5-.5h5.4c.3 0 .5.2.5.5s-.2.5-.5.5zm-10.7 0h-5.4c-.3 0-.5-.2-.5-.5s.2-.5.5-.5h5.4c.3 0 .5.2.5.5s-.2.5-.5.5zm-10.7 0h-5.4c-.3 0-.5-.2-.5-.5s.2-.5.5-.5h5.4c.3 0 .5.2.5.5s-.2.5-.5.5zm-10.7 0h-5.4c-.3 0-.5-.2-.5-.5s.2-.5.5-.5h5.4c.3 0 .5.2.5.5s-.3.5-.5.5zm-10.8 0h-5.4c-.3 0-.5-.2-.5-.5s.2-.5.5-.5h5.4c.3 0 .5.2.5.5s-.2.5-.5.5zM41.1 49.6h-2.5c-.3 0-.5-.2-.5-.5v-2.5c0-.3.2-.5.5-.5s.5.2.5.5v2h2c.3 0 .5.2.5.5s-.2.5-.5.5zM38.6 43.7c-.3 0-.5-.2-.5-.5v-3.5c0-.3.2-.5.5-.5s.5.2.5.5v3.5c0 .2-.2.5-.5.5zM38.6 36.7c-.3 0-.5-.2-.5-.5v-2.5c0-.3.2-.5.5-.5h2.5c.3 0 .5.2.5.5s-.2.5-.5.5h-2v2c0 .3-.2.5-.5.5zM94.7 34.2h-5.4c-.3 0-.5-.2-.5-.5s.2-.5.5-.5h5.4c.3 0 .5.2.5.5s-.2.5-.5.5zm-10.7 0h-5.4c-.3 0-.5-.2-.5-.5s.2-.5.5-.5h5.4c.3 0 .5.2.5.5s-.2.5-.5.5zm-10.7 0h-5.4c-.3 0-.5-.2-.5-.5s.2-.5.5-.5h5.4c.3 0 .5.2.5.5s-.2.5-.5.5zm-10.7 0h-5.4c-.3 0-.5-.2-.5-.5s.2-.5.5-.5h5.4c.3 0 .5.2.5.5s-.3.5-.5.5zm-10.8 0h-5.4c-.3 0-.5-.2-.5-.5s.2-.5.5-.5h5.4c.3 0 .5.2.5.5s-.2.5-.5.5zM102.6 36.7c-.3 0-.5-.2-.5-.5v-2h-2c-.3 0-.5-.2-.5-.5s.2-.5.5-.5h2.5c.3 0 .5.2.5.5v2.5c0 .3-.2.5-.5.5zM102.6 43.7c-.3 0-.5-.2-.5-.5v-3.5c0-.3.2-.5.5-.5s.5.2.5.5v3.5c0 .2-.2.5-.5.5zM60 112.7h-2.5c-.3 0-.5-.2-.5-.5s.2-.5.5-.5h2v-2c0-.3.2-.5.5-.5s.5.2.5.5v2.5c0 .3-.2.5-.5.5zM52.1 112.7h-5.5c-.3 0-.5-.2-.5-.5s.2-.5.5-.5h5.5c.3 0 .5.2.5.5s-.3.5-.5.5zM41.1 112.7h-2.5c-.3 0-.5-.2-.5-.5v-2.5c0-.3.2-.5.5-.5s.5.2.5.5v2h2c.3 0 .5.2.5.5s-.2.5-.5.5zM38.6 105.1c-.3 0-.5-.2-.5-.5v-5.1c0-.3.2-.5.5-.5s.5.2.5.5v5.1c0 .2-.2.5-.5.5zm0-10.3c-.3 0-.5-.2-.5-.5v-5.1c0-.3.2-.5.5-.5s.5.2.5.5v5.1c0 .3-.2.5-.5.5zm0-10.3c-.3 0-.5-.2-.5-.5v-5.1c0-.3.2-.5.5-.5s.5.2.5.5v5.1c0 .3-.2.5-.5.5zm0-10.3c-.3 0-.5-.2-.5-.5v-5.1c0-.3.2-.5.5-.5s.5.2.5.5v5.1c0 .3-.2.5-.5.5zM38.6 63.9c-.3 0-.5-.2-.5-.5v-2.5c0-.3.2-.5.5-.5h2.5c.3 0 .5.2.5.5s-.2.5-.5.5h-2v2c0 .3-.2.5-.5.5zM52.1 61.4h-5.5c-.3 0-.5-.2-.5-.5s.2-.5.5-.5h5.5c.3 0 .5.2.5.5s-.3.5-.5.5zM60 63.9c-.3 0-.5-.2-.5-.5v-2h-2c-.3 0-.5-.2-.5-.5s.2-.5.5-.5h2.5c.3 0 .5.2.5.5v2.5c0 .3-.2.5-.5.5zM60 105.1c-.3 0-.5-.2-.5-.5v-5.1c0-.3.2-.5.5-.5s.5.2.5.5v5.1c0 .2-.2.5-.5.5zm0-10.3c-.3 0-.5-.2-.5-.5v-5.1c0-.3.2-.5.5-.5s.5.2.5.5v5.1c0 .3-.2.5-.5.5zm0-10.3c-.3 0-.5-.2-.5-.5v-5.1c0-.3.2-.5.5-.5s.5.2.5.5v5.1c0 .3-.2.5-.5.5zm0-10.3c-.3 0-.5-.2-.5-.5v-5.1c0-.3.2-.5.5-.5s.5.2.5.5v5.1c0 .3-.2.5-.5.5zM102.6 112.7h-2.5c-.3 0-.5-.2-.5-.5s.2-.5.5-.5h2v-2c0-.3.2-.5.5-.5s.5.2.5.5v2.5c0 .3-.2.5-.5.5zM95.2 112.7h-4.9c-.3 0-.5-.2-.5-.5s.2-.5.5-.5h4.9c.3 0 .5.2.5.5s-.2.5-.5.5zm-9.8 0h-4.9c-.3 0-.5-.2-.5-.5s.2-.5.5-.5h4.9c.3 0 .5.2.5.5s-.2.5-.5.5zM75.7 112.7h-2.5c-.3 0-.5-.2-.5-.5v-2.5c0-.3.2-.5.5-.5s.5.2.5.5v2h2c.3 0 .5.2.5.5s-.3.5-.5.5zM73.2 105.1c-.3 0-.5-.2-.5-.5v-5.1c0-.3.2-.5.5-.5s.5.2.5.5v5.1c0 .2-.3.5-.5.5zm0-10.3c-.3 0-.5-.2-.5-.5v-5.1c0-.3.2-.5.5-.5s.5.2.5.5v5.1c0 .3-.3.5-.5.5zm0-10.3c-.3 0-.5-.2-.5-.5v-5.1c0-.3.2-.5.5-.5s.5.2.5.5v5.1c0 .3-.3.5-.5.5zm0-10.3c-.3 0-.5-.2-.5-.5v-5.1c0-.3.2-.5.5-.5s.5.2.5.5v5.1c0 .3-.3.5-.5.5zM73.2 63.9c-.3 0-.5-.2-.5-.5v-2.5c0-.3.2-.5.5-.5h2.5c.3 0 .5.2.5.5s-.2.5-.5.5h-2v2c0 .3-.3.5-.5.5zM95.2 61.4h-4.9c-.3 0-.5-.2-.5-.5s.2-.5.5-.5h4.9c.3 0 .5.2.5.5s-.2.5-.5.5zm-9.8 0h-4.9c-.3 0-.5-.2-.5-.5s.2-.5.5-.5h4.9c.3 0 .5.2.5.5s-.2.5-.5.5zM102.6 63.9c-.3 0-.5-.2-.5-.5v-2h-2c-.3 0-.5-.2-.5-.5s.2-.5.5-.5h2.5c.3 0 .5.2.5.5v2.5c0 .3-.2.5-.5.5zM102.6 105.1c-.3 0-.5-.2-.5-.5v-5.1c0-.3.2-.5.5-.5s.5.2.5.5v5.1c0 .2-.2.5-.5.5zm0-10.3c-.3 0-.5-.2-.5-.5v-5.1c0-.3.2-.5.5-.5s.5.2.5.5v5.1c0 .3-.2.5-.5.5zm0-10.3c-.3 0-.5-.2-.5-.5v-5.1c0-.3.2-.5.5-.5s.5.2.5.5v5.1c0 .3-.2.5-.5.5zm0-10.3c-.3 0-.5-.2-.5-.5v-5.1c0-.3.2-.5.5-.5s.5.2.5.5v5.1c0 .3-.2.5-.5.5zM29.9 126.8l10.9-.3 10.9-.2 21.8-.2 43.6-.1-1.1 1 .1-110 1 1-93.1-.2.8-.8-.2 55-.3 55c0 .2-.2.4-.4.4s-.4-.2-.4-.4l-.3-55-.2-55c0-.5.4-.8.8-.8l93.1-.2c.6 0 1 .5 1 1l.1 110c0 .6-.5 1.1-1.1 1.1l-43.4-.1-21.8-.2-10.9-.2-10.9-.3c-.1 0-.2-.1-.2-.2 0-.2.1-.3.2-.3zM75.2 109.1c-.1 0-.2 0-.2-.1-.2-.1-.3-.4-.2-.7l2.5-4.3c.1-.2.4-.3.7-.2.2.1.3.4.2.7l-2.5 4.3c-.1.3-.3.3-.5.3zm5-8.6c-.1 0-.2 0-.2-.1-.2-.1-.3-.4-.2-.7l2.5-4.3c.1-.2.4-.3.7-.2.2.1.3.4.2.7l-2.5 4.3c-.2.2-.3.3-.5.3zm5-8.7c-.1 0-.2 0-.2-.1-.2-.1-.3-.4-.2-.7l2.5-4.3c.1-.2.4-.3.7-.2.2.1.3.4.2.7l-2.5 4.3c-.2.2-.3.3-.5.3zm5-8.7c-.1 0-.2 0-.2-.1-.2-.1-.3-.4-.2-.7l2.5-4.3c.1-.2.4-.3.7-.2.2.1.3.4.2.7l-2.5 4.3c-.2.2-.4.3-.5.3zm4.9-8.6c-.1 0-.2 0-.2-.1-.2-.1-.3-.4-.2-.7l2.5-4.3c.1-.2.4-.3.7-.2.2.1.3.4.2.7l-2.5 4.3c-.1.2-.3.3-.5.3zm5-8.7c-.1 0-.2 0-.2-.1-.2-.1-.3-.4-.2-.7l2.5-4.3c.1-.2.4-.3.7-.2.2.1.3.4.2.7l-2.5 4.3c-.1.2-.3.3-.5.3z"/></svg>