<svg height="116" width="149" xmlns="http://www.w3.org/2000/svg" xmlns:xlink="http://www.w3.org/1999/xlink"><defs><path id="a" d="M115.932 51.6V48c-1.348 0-2.44-1.075-2.44-2.4s1.092-2.4 2.44-2.4v-3.6c-1.348 0-2.44-1.075-2.44-2.4s1.092-2.4 2.44-2.4v-3.6c-1.348 0-2.44-1.075-2.44-2.4s1.092-2.4 2.44-2.4v-3.6c-1.348 0-2.44-1.075-2.44-2.4s1.092-2.4 2.44-2.4v-4.94c-.596.092-1.207.14-1.83.14-6.403 0-11.594-5.104-11.594-11.4 0-.612.05-1.214.144-1.8H13.28c.095.586.144 1.188.144 1.8 0 6.296-5.19 11.4-11.593 11.4-.622 0-1.234-.048-1.83-.14V18c1.348 0 2.44 1.075 2.44 2.4S1.35 22.8 0 22.8v3.6c1.348 0 2.44 1.075 2.44 2.4S1.35 31.2 0 31.2v3.6c1.348 0 2.44 1.075 2.44 2.4S1.35 39.6 0 39.6v3.6c1.348 0 2.44 1.075 2.44 2.4S1.35 48 0 48v3.6c1.348 0 2.44 1.075 2.44 2.4S1.35 56.4 0 56.4v4.94c.596-.092 1.208-.14 1.83-.14 6.403 0 11.594 5.104 11.594 11.4 0 .474-.03.94-.087 1.4h89.258c-.057-.46-.087-.926-.087-1.4 0-6.296 5.19-11.4 11.594-11.4.623 0 1.234.048 1.83.14V56.4c-1.348 0-2.44-1.075-2.44-2.4s1.092-2.4 2.44-2.4z"/><path id="b" d="M25.102 6h65v62h-65z"/><path id="c" d="M19.322 2h2.034v70h-2.034z"/><path id="d" d="M94.576 2h2.034v70h-2.034z"/><path id="e" d="M30.285 39.34h9.748l-.01-.02L26.713.04v37.8a4.993 4.993 0 003.572 1.498"/><path id="f" d="M.01 39.32l9.737.02c1.406 0 2.67-.577 3.574-1.5a4.912 4.912 0 001.126-1.75c0-.006 12.25-36.09 12.25-36.09H13.34z"/><mask id="h" fill="#fff" height="74" width="115.932" x="0" y="0"><use xlink:href="#a"/></mask><mask id="i" fill="#fff" height="62" width="65" x="0" y="0"><use xlink:href="#b"/></mask><mask id="j" fill="#fff" height="70" width="2.034" x="0" y="0"><use xlink:href="#c"/></mask><mask id="k" fill="#fff" height="70" width="2.034" x="0" y="0"><use xlink:href="#d"/></mask><mask id="l" fill="#fff" height="39.3" width="13.321" x="0" y="0"><use xlink:href="#e"/></mask><mask id="m" fill="#fff" height="39.341" width="26.696" x="0" y="0"><use xlink:href="#f"/></mask><filter id="g" height="200%" width="200%" x="-50%" y="-50%"><feOffset dx="4" dy="4" in="SourceAlpha" result="shadowOffsetOuter1"/><feComposite in="shadowOffsetOuter1" in2="SourceAlpha" operator="out" result="shadowOffsetOuter1"/><feColorMatrix in="shadowOffsetOuter1" values="0 0 0 0 0.784313725 0 0 0 0 0.843137255 0 0 0 0 0.882352941 0 0 0 0.27 0"/></filter></defs><g fill="none" fill-rule="evenodd"><path d="M2.865 45.232A56.178 56.178 0 001.425 57.9c0 31.535 26.094 57.1 58.282 57.1 32.187 0 58.28-25.565 58.28-57.1C117.988 26.364 91.896.8 59.708.8a60.32 60.32 0 00-4.41.16" opacity=".556" stroke="#c3c4c7"/><g fill="#deb100" transform="translate(1.288)"><path d="M27 7.045V2.62a1 1 0 00-.997-1h-1.725c-.54 0-.996.45-.996 1v4.425h-4.424a1 1 0 00-1 .996v1.726c0 .54.447.996 1 .996h4.424v4.424a1 1 0 00.996 1h1.725c.54 0 .996-.447.996-1v-4.424h4.423a1 1 0 001-.996V8.04c0-.54-.447-.995-1-.995z" opacity=".394"/><ellipse cx="42.797" cy="15.277" opacity=".394" rx="2.788" ry="2.731"/><ellipse cx="16.777" cy="28.023" opacity=".394" rx="4.646" ry="4.552"/></g><g transform="translate(28.898 28)"><use fill="#101517" filter="url(#g)" xlink:href="#a"/><use fill="#fff" mask="url(#h)" stroke="#c3c4c7" stroke-width="4" xlink:href="#a"/><use fill="#f6f7f7" mask="url(#i)" stroke="#c3c4c7" stroke-width="2" xlink:href="#b"/><path d="M62.06 7.016h22.717l-58.643 41.07v-15.95zM26.136 57.9v9.07h3.938L89.1 25.648V13.716zm18.898 9.074h13.912l30.144-21.09v-9.803z" fill="#fff"/><use mask="url(#j)" stroke="#c3c4c7" stroke-dasharray="2" stroke-width="2" xlink:href="#c"/><use mask="url(#k)" stroke="#c3c4c7" stroke-dasharray="2" stroke-width="2" xlink:href="#d"/><g transform="translate(37.83 18)"><use xlink:href="#e" stroke-opacity=".62" stroke="#069e08" stroke-width="2" fill-opacity=".1" fill="#069e08" mask="url(#l)"/><path d="M20.016 19.663L25.58 36.08a4.896 4.896 0 001.128 1.763V.046l-.016-.04-6.676 19.658" fill="#069e08" fill-opacity=".62"/><use xlink:href="#f" stroke-opacity=".62" stroke="#3895ba" stroke-width="2" fill-opacity=".1" fill="#3895ba" mask="url(#m)"/></g></g><g transform="translate(111.27 89)"><ellipse cx="12.203" cy="12" fill="#fff" rx="12.203" ry="12" stroke="#deb100" stroke-width="2"/><path d="M12.712 5l1.707 4.52 4.902.197-3.848 2.99 1.323 4.643-4.085-2.67-4.085 2.67 1.323-4.642-3.848-2.99 4.903-.2z" fill="#deb100"/></g></g></svg>