<svg height="116" viewBox="0 0 149 116" width="149" xmlns="http://www.w3.org/2000/svg" xmlns:xlink="http://www.w3.org/1999/xlink"><defs><path id="a" d="m115.932 51.6v-3.6c-1.348 0-2.44-1.075-2.44-2.4s1.092-2.4 2.44-2.4v-3.6c-1.348 0-2.44-1.075-2.44-2.4s1.092-2.4 2.44-2.4v-3.6c-1.348 0-2.44-1.075-2.44-2.4s1.092-2.4 2.44-2.4v-3.6c-1.348 0-2.44-1.075-2.44-2.4s1.092-2.4 2.44-2.4v-4.94c-.596.092-1.207.14-1.83.14-6.403 0-11.594-5.104-11.594-11.4 0-.612.05-1.214.144-1.8h-89.372c.095.586.144 1.188.144 1.8 0 6.296-5.19 11.4-11.593 11.4-.622 0-1.234-.048-1.83-.14v4.94c1.348 0 2.44 1.075 2.44 2.4s-1.091 2.4-2.441 2.4v3.6c1.348 0 2.44 1.075 2.44 2.4s-1.09 2.4-2.44 2.4v3.6c1.348 0 2.44 1.075 2.44 2.4s-1.09 2.4-2.44 2.4v3.6c1.348 0 2.44 1.075 2.44 2.4s-1.09 2.4-2.44 2.4v3.6c1.348 0 2.44 1.075 2.44 2.4s-1.09 2.4-2.44 2.4v4.94c.596-.092 1.208-.14 1.83-.14 6.403 0 11.594 5.104 11.594 11.4 0 .474-.03.94-.087 1.4h89.258c-.057-.46-.087-.926-.087-1.4 0-6.296 5.19-11.4 11.594-11.4.623 0 1.234.048 1.83.14v-4.94c-1.348 0-2.44-1.075-2.44-2.4s1.092-2.4 2.44-2.4z"/><filter id="b" height="200%" width="200%" x="-50%" y="-50%"><feOffset dx="4" dy="4" in="SourceAlpha" result="shadowOffsetOuter1"/><feComposite in="shadowOffsetOuter1" in2="SourceAlpha" operator="out" result="shadowOffsetOuter1"/><feColorMatrix in="shadowOffsetOuter1" values="0 0 0 0 0.784313725 0 0 0 0 0.843137255 0 0 0 0 0.882352941 0 0 0 0.27 0"/></filter><mask id="c" fill="#fff" height="74" width="115.932" x="0" y="0"><use xlink:href="#a"/></mask><path id="d" d="m25.102 6h65v62h-65z"/><mask id="e" fill="#fff" height="62" width="65" x="0" y="0"><use xlink:href="#d"/></mask><path id="f" d="m19.322 2h2.034v70h-2.034z"/><mask id="g" fill="#fff" height="70" width="2.034" x="0" y="0"><use xlink:href="#f"/></mask><path id="h" d="m94.576 2h2.034v70h-2.034z"/><mask id="i" fill="#fff" height="70" width="2.034" x="0" y="0"><use xlink:href="#h"/></mask><path id="j" d="m30.285 39.34h9.748l-.01-.02-13.31-39.28v37.8a4.993 4.993 0 0 0 3.572 1.498"/><mask id="k" fill="#fff" height="39.3" width="13.321" x="0" y="0"><use xlink:href="#j"/></mask><path id="l" d="m.01 39.32 9.737.02c1.406 0 2.67-.577 3.574-1.5.49-.497.882-1.086 1.126-1.75 0-.006 12.25-36.09 12.25-36.09h-13.357z"/><mask id="m" fill="#fff" height="39.341" width="26.696" x="0" y="0"><use xlink:href="#l"/></mask></defs><g fill="none" fill-rule="evenodd"><g transform="translate(1.288)"><path d="m1.577 45.232a56.178 56.178 0 0 0 -1.44 12.668c0 31.535 26.094 57.1 58.282 57.1 32.187 0 58.28-25.565 58.28-57.1.001-31.536-26.091-57.1-58.279-57.1a60.32 60.32 0 0 0 -4.41.16" opacity=".556" stroke="#c3c4c7"/><g fill="#deb100"><path d="m27 7.045v-4.425a1 1 0 0 0 -.997-1h-1.725c-.54 0-.996.45-.996 1v4.425h-4.424a1 1 0 0 0 -1 .996v1.726c0 .54.447.996 1 .996h4.424v4.424a1 1 0 0 0 .996 1h1.725c.54 0 .996-.447.996-1v-4.424h4.423a1 1 0 0 0 1-.996v-1.727c0-.54-.447-.995-1-.995z" opacity=".394"/><ellipse cx="42.797" cy="15.277" opacity=".394" rx="2.788" ry="2.731"/><ellipse cx="16.777" cy="28.023" opacity=".394" rx="4.646" ry="4.552"/></g></g><g transform="translate(28.898 28)"><use fill="#101517" filter="url(#b)" xlink:href="#a"/><use fill="#fff" mask="url(#c)" stroke="#c3c4c7" stroke-width="4" xlink:href="#a"/><use fill="#f6f7f7" mask="url(#e)" stroke="#c3c4c7" stroke-width="2" xlink:href="#d"/><path d="m62.06 7.016h22.717l-58.643 41.07v-15.95zm-35.924 50.884v9.07h3.938l59.026-41.322v-11.932zm18.898 9.074h13.912l30.144-21.09v-9.803z" fill="#fff"/><use mask="url(#g)" stroke="#c3c4c7" stroke-dasharray="2" stroke-width="2" xlink:href="#f"/><use mask="url(#i)" stroke="#c3c4c7" stroke-dasharray="2" stroke-width="2" xlink:href="#h"/><g transform="translate(37.83 18)"><use style="stroke-opacity:.62;stroke:#069e08;stroke-width:2;fill-opacity:.1;fill:#069e08;mask:url(#k)" xlink:href="#j"/><path d="m20.016 19.663 5.564 16.417a4.896 4.896 0 0 0 1.128 1.763v-37.797l-.016-.04-6.676 19.658" fill="#069e08" fill-opacity=".62"/><use style="stroke-opacity:.62;stroke:#3895ba;stroke-width:2;fill-opacity:.1;fill:#3895ba;mask:url(#m)" xlink:href="#l"/></g></g><g transform="translate(111.27 89)"><ellipse cx="12.203" cy="12" fill="#fff" rx="12.203" ry="12" stroke="#deb100" stroke-width="2"/><path d="m12.712 5 1.707 4.52 4.902.197-3.848 2.99 1.323 4.643-4.085-2.67-4.085 2.67 1.323-4.642-3.848-2.99 4.903-.2z" fill="#deb100"/></g></g></svg>
