<svg width="220" height="180" viewBox="0 0 220 180" fill="none" xmlns="http://www.w3.org/2000/svg">
<path d="M178.98 140.77L218.41 118L198.69 106.62L178.98 140.77Z" fill="#013B62" stroke="#013B62" stroke-width="1.8" stroke-miterlimit="10" stroke-linecap="round" stroke-linejoin="round"/>
<path d="M31.08 48.1899C31.08 48.4499 31.09 48.6999 31.11 48.9599C31.09 48.4599 31.08 48.1899 31.08 48.1899Z" fill="white"/>
<path d="M90.24 48.1899C90.24 48.1899 90.23 48.4599 90.21 48.9599C90.23 48.6999 90.24 48.4499 90.24 48.1899Z" fill="white"/>
<path d="M218.41 95.2299L100.1 26.9199C100.1 26.9199 100.1 49.6899 60.66 72.4599L1.5 106.62L119.82 174.93L178.98 140.77C178.98 140.77 220.64 119.28 218.41 95.2299Z" fill="white"/>
<path d="M202.83 124.16C202.83 124.16 218.41 110.16 218.41 98.92L100 32.02C100 32.02 88.37 53.04 83.35 57.22L202.83 124.16Z" fill="url(#paint0_linear_1_5875)"/>
<path d="M92.63 143.39C92.63 143.39 122.31 152.34 131.44 136.1C140.57 119.86 108.21 115.4 108.21 115.4L92.63 143.39Z" fill="#7BBDCD"/>
<path d="M218.41 95.2299L100.1 26.9199C100.1 26.9199 100.1 49.6899 60.66 72.4599L1.5 106.62L119.82 174.93L178.98 140.77C178.98 140.77 220.64 119.28 218.41 95.2299Z" stroke="#013B62" stroke-width="1.8" stroke-miterlimit="10" stroke-linecap="round" stroke-linejoin="round"/>
<path d="M100.1 163.54L159.26 129.38C159.26 129.38 194.22 109.98 198.7 84.23" stroke="#013B62" stroke-width="1.8" stroke-miterlimit="10" stroke-linecap="round" stroke-linejoin="round"/>
<path d="M80.5 152.09L139.66 117.93C139.66 117.93 174.62 98.53 179.1 72.78" stroke="#013B62" stroke-width="1.8" stroke-miterlimit="10" stroke-linecap="round" stroke-linejoin="round"/>
<path d="M60.78 140.7L119.94 106.54C119.94 106.54 154.9 87.1399 159.38 61.3899" stroke="#013B62" stroke-width="1.8" stroke-miterlimit="10" stroke-linecap="round" stroke-linejoin="round"/>
<path d="M42.49 105.72C42.49 105.72 59.01 120.21 80.01 120.21C94.46 120.21 108.79 112.97 105.47 98.3301C104.01 91.9001 92.72 86.1801 85.21 86.6301C70.61 87.5301 42.49 105.72 42.49 105.72Z" fill="#7BBDCD"/>
<path d="M41.02 129.34L100.18 95.18C100.18 95.18 135.14 75.78 139.62 50.03" stroke="#013B62" stroke-width="1.8" stroke-miterlimit="10" stroke-linecap="round" stroke-linejoin="round"/>
<path d="M21 118.13L80.16 83.9701C80.16 83.9701 115.12 64.5701 119.6 38.8201" stroke="#013B62" stroke-width="1.8" stroke-miterlimit="10" stroke-linecap="round" stroke-linejoin="round"/>
<path d="M21.22 95.23L139.62 163.59" stroke="#013B62" stroke-width="1.8" stroke-miterlimit="10" stroke-linecap="round" stroke-linejoin="round"/>
<path d="M40.94 83.8501L159.38 152.09" stroke="#013B62" stroke-width="1.8" stroke-miterlimit="10" stroke-linecap="round" stroke-linejoin="round"/>
<path d="M60.66 72.46L178.98 140.77" stroke="#013B62" stroke-width="1.8" stroke-miterlimit="10" stroke-linecap="round" stroke-linejoin="round"/>
<path d="M78.63 60.0701L197.47 128.68" stroke="#013B62" stroke-width="1.8" stroke-miterlimit="10" stroke-linecap="round" stroke-linejoin="round"/>
<path d="M92.51 45.3101L211.95 114.27" stroke="#013B62" stroke-width="1.8" stroke-miterlimit="10" stroke-linecap="round" stroke-linejoin="round"/>
<path d="M90.24 48.1899C90.24 48.1899 90.23 48.4599 90.21 48.9599C90.21 48.9999 90.21 49.0399 90.2 49.0799C89.41 58.1999 76.48 65.4499 60.66 65.4499C44.84 65.4499 31.91 58.1999 31.12 49.0799C31.11 49.0399 31.11 48.9999 31.11 48.9599C31.08 48.4599 31.08 48.1899 31.08 48.1899C31.08 38.6599 44.32 30.9399 60.66 30.9399C77 30.9399 90.24 38.6599 90.24 48.1899Z" fill="url(#paint1_linear_1_5875)"/>
<path d="M60.66 65.4499C76.9966 65.4499 90.24 57.7224 90.24 48.1899C90.24 38.6575 76.9966 30.9299 60.66 30.9299C44.3234 30.9299 31.08 38.6575 31.08 48.1899C31.08 57.7224 44.3234 65.4499 60.66 65.4499Z" stroke="#013B62" stroke-width="1.8" stroke-miterlimit="10" stroke-linecap="round" stroke-linejoin="round"/>
<path d="M52.27 94.4401C50.58 94.7101 49 93.5701 48.73 91.8801L38.69 29.5801C38.65 29.3101 38.83 29.0501 39.1 29.0101L44.22 28.1801C44.49 28.1401 44.75 28.3201 44.79 28.5901L54.83 90.8901C55.1 92.5801 53.96 94.1701 52.27 94.4401Z" fill="white"/>
<path d="M52.27 94.4401C50.58 94.7101 49 93.5701 48.73 91.8801L44.22 28.1801C44.49 28.1401 44.75 28.3201 44.79 28.5901L54.83 90.8901C55.1 92.5801 53.96 94.1701 52.27 94.4401Z" fill="#013B62"/>
<path d="M52.27 94.4401C50.58 94.7101 49 93.5701 48.73 91.8801L38.69 29.5801C38.65 29.3101 38.83 29.0501 39.1 29.0101L44.22 28.1801C44.49 28.1401 44.75 28.3201 44.79 28.5901L54.83 90.8901C55.1 92.5801 53.96 94.1701 52.27 94.4401Z" stroke="#013B62" stroke-width="1.8" stroke-miterlimit="10" stroke-linecap="round" stroke-linejoin="round"/>
<path d="M42.2 31.9801C40.28 32.2901 38.56 30.7701 38.63 28.8301L39.53 16.4401C39.55 16.2701 39.78 16.2301 39.86 16.3901L44.61 27.8701C45.27 29.6901 44.12 31.6701 42.2 31.9801Z" fill="white" stroke="#013B62" stroke-width="1.8" stroke-miterlimit="10" stroke-linecap="round" stroke-linejoin="round"/>
<path d="M60.6601 84.2401C58.9501 84.2401 57.5701 82.8601 57.5701 81.1501V18.05C57.5701 17.77 57.7901 17.55 58.0701 17.55H63.2501C63.5301 17.55 63.7501 17.77 63.7501 18.05V81.1501C63.7501 82.8501 62.3701 84.2401 60.6601 84.2401Z" fill="white"/>
<path d="M60.6601 84.2401C58.9501 84.2401 57.5701 82.8601 57.5701 81.1501L63.2501 17.55C63.5301 17.55 63.7501 17.77 63.7501 18.05V81.1501C63.7501 82.8501 62.3701 84.2401 60.6601 84.2401Z" fill="#013B62"/>
<path d="M60.6601 84.2401C58.9501 84.2401 57.5701 82.8601 57.5701 81.1501V18.05C57.5701 17.77 57.7901 17.55 58.0701 17.55H63.2501C63.5301 17.55 63.7501 17.77 63.7501 18.05V81.1501C63.7501 82.8501 62.3701 84.2401 60.6601 84.2401Z" stroke="#013B62" stroke-width="1.8" stroke-miterlimit="10" stroke-linecap="round" stroke-linejoin="round"/>
<path d="M60.66 20.97C58.72 20.97 57.26 19.2 57.64 17.29L60.49 5.20001C60.54 5.03001 60.77 5.03001 60.82 5.20001L63.68 17.29C64.06 19.2 62.6 20.97 60.66 20.97Z" fill="white" stroke="#013B62" stroke-width="1.8" stroke-miterlimit="10" stroke-linecap="round" stroke-linejoin="round"/>
<path d="M72.09 87.2901C73.77 87.5801 75.37 86.4501 75.66 84.7701L86.36 22.5801C86.41 22.3101 86.22 22.0501 85.95 22.0001L80.84 21.1201C80.57 21.0701 80.31 21.2601 80.26 21.5301L69.56 83.7201C69.28 85.4001 70.4 87.0001 72.09 87.2901Z" fill="white"/>
<path d="M72.09 87.29C73.77 87.58 75.37 86.45 75.66 84.77L86.36 22.58C86.41 22.31 86.22 22.05 85.95 22L69.56 83.72C69.28 85.4 70.4 87 72.09 87.29Z" fill="#013B62"/>
<path d="M72.09 87.2901C73.77 87.5801 75.37 86.4501 75.66 84.7701L86.36 22.5801C86.41 22.3101 86.22 22.0501 85.95 22.0001L80.84 21.1201C80.57 21.0701 80.31 21.2601 80.26 21.5301L69.56 83.7201C69.28 85.4001 70.4 87.0001 72.09 87.2901Z" stroke="#013B62" stroke-width="1.8" stroke-miterlimit="10" stroke-linecap="round" stroke-linejoin="round"/>
<path d="M82.81 24.94C84.72 25.27 86.46 23.77 86.41 21.83L85.64 9.43C85.62 9.26 85.39 9.22 85.31 9.37L80.46 20.8C79.76 22.61 80.9 24.61 82.81 24.94Z" fill="white" stroke="#013B62" stroke-width="1.8" stroke-miterlimit="10" stroke-linecap="round" stroke-linejoin="round"/>
<path d="M90.2 49.0801C89.96 54.2501 88.41 80.9801 80.75 102.33C80.65 102.67 80.53 103.01 80.38 103.34C78.09 108.45 70.13 112.22 60.66 112.22C55.93 112.22 51.56 111.28 48.11 109.7C44.65 108.12 42.09 105.89 40.95 103.34C40.8 103 40.68 102.67 40.58 102.33C32.92 80.9801 31.36 54.2501 31.13 49.0801C31.92 58.2001 44.85 65.4501 60.67 65.4501C76.49 65.4501 89.41 58.2001 90.2 49.0801Z" fill="white"/>
<path d="M60.66 112.22C60.66 112.22 78.45 111.76 80.75 102.33C83.35 91.6701 87.25 86.6601 90.2 49.0801C90.2 49.0801 87.74 65.9001 54.48 65.4501C54.48 65.4501 77.03 77.0101 60.66 112.22Z" fill="#7BBDCD"/>
<path d="M90.2 49.0801C89.96 54.2501 88.41 80.9801 80.75 102.33C80.65 102.67 80.53 103.01 80.38 103.34C78.09 108.45 70.13 112.22 60.66 112.22C55.93 112.22 51.56 111.28 48.11 109.7C44.65 108.12 42.09 105.89 40.95 103.34C40.8 103 40.68 102.67 40.58 102.33C32.92 80.9801 31.36 54.2501 31.13 49.0801C31.92 58.2001 44.85 65.4501 60.67 65.4501C76.49 65.4501 89.41 58.2001 90.2 49.0801Z" stroke="#013B62" stroke-width="1.8" stroke-miterlimit="10" stroke-linecap="round" stroke-linejoin="round"/>
<path d="M92.72 142.81L80.02 137.2L81.76 131.18L94.47 136.79L92.72 142.81Z" fill="white"/>
<path d="M92.72 142.81L80.02 137.2L81.76 131.18L94.47 136.79L92.72 142.81Z" stroke="#013B62" stroke-width="1.8" stroke-miterlimit="10" stroke-linecap="round" stroke-linejoin="round"/>
<path d="M116.48 123.16L103.78 117.55L105.52 111.53L118.23 117.14L116.48 123.16Z" stroke="#013B62" stroke-width="1.8" stroke-miterlimit="10" stroke-linecap="round" stroke-linejoin="round"/>
<path d="M94.47 136.79L118.23 117.14L105.52 111.53L81.76 131.18L94.47 136.79Z" fill="#EDEDED"/>
<path d="M94.47 136.79L118.23 117.14L105.52 111.53L81.76 131.18L94.47 136.79Z" stroke="#013B62" stroke-width="1.8" stroke-miterlimit="10" stroke-linecap="round" stroke-linejoin="round"/>
<path d="M92.72 142.81L116.48 123.16L118.23 117.14L94.47 136.79L92.72 142.81Z" fill="#013B62"/>
<path d="M92.72 142.81L116.48 123.16L118.23 117.14L94.47 136.79L92.72 142.81Z" stroke="#013B62" stroke-width="1.8" stroke-miterlimit="10" stroke-linecap="round" stroke-linejoin="round"/>
<defs>
<linearGradient id="paint0_linear_1_5875" x1="83.3444" y1="78.0899" x2="218.414" y2="78.0899" gradientUnits="userSpaceOnUse">
<stop stop-color="#E9E9E9"/>
<stop offset="1" stop-color="#EFEFEF"/>
</linearGradient>
<linearGradient id="paint1_linear_1_5875" x1="31.0792" y1="48.1949" x2="90.2376" y2="48.1949" gradientUnits="userSpaceOnUse">
<stop stop-color="#E9E9E9"/>
<stop offset="1" stop-color="#EFEFEF"/>
</linearGradient>
</defs>
</svg>