<?xml version="1.0" encoding="UTF-8"?><svg width="72px" height="72px" viewBox="0 0 72 72" version="1.1" xmlns="http://www.w3.org/2000/svg" xmlns:xlink="http://www.w3.org/1999/xlink"><defs><circle id="path-1" cx="36" cy="36" r="36"></circle><path d="M2.84217094e-14,-1.56319402e-13 L29,-1.56319402e-13 L32.1532462,1.57662312 C32.5237301,1.76186506 32.6738984,2.21236984 32.4886564,2.58285371 C32.3615154,2.83713586 32.1015296,2.99767165 31.8172336,2.99744327 L2.84217094e-14,2.97188436 L2.84217094e-14,-1.56319402e-13 Z" id="path-3"></path><rect id="path-5" x="0" y="0" width="72" height="72"></rect><path d="M10.8024361,56.4035209 C14.0345542,49.9377935 15.9347682,46.1366199 16.5030781,45 C17.5030781,43 18.0046172,42 18.0046172,40 C18.0046172,38 18.0046172,24.7261512 18.0046172,0.178453606 L0.00461720931,0.178453606 C0.00461720931,24.7261512 0.00461720931,38 0.00461720931,40 C0.00461720931,42 0.571078474,43 1.57107847,45 C2.13918376,46.1362106 4.02251898,49.9350559 7.22108414,56.3965361 L7.22107927,56.3965385 C7.71111171,57.3864621 8.91085309,57.7917038 9.90077663,57.3016714 C10.2911065,57.1084501 10.6076943,56.7930943 10.8024361,56.4035209 Z" id="path-7"></path></defs><g id="Plan/Free" stroke="none" stroke-width="1" fill="none" fill-rule="evenodd"><g id="plan"><mask id="mask-2" fill="white"><use xlink:href="#path-1"></use></mask><use id="bg" fill="#969CA1" fill-rule="nonzero" xlink:href="#path-1"></use><g id="line" mask="url(#mask-2)"><g transform="translate(-4.000000, 53.000000)"><mask id="mask-4" fill="white"><use xlink:href="#path-3"></use></mask><use id="line" stroke="none" fill="#B0B5B8" fill-rule="evenodd" xlink:href="#path-3"></use><rect id="line" stroke="none" fill="#CCCED0" fill-rule="evenodd" mask="url(#mask-4)" x="0" y="0" width="40" height="1"></rect></g></g><g id="icon" mask="url(#mask-2)"><g transform="translate(35.996922, 36.000000) rotate(30.000000) translate(-35.996922, -36.000000) translate(-0.003078, 0.000000)"><mask id="mask-6" fill="white"><use xlink:href="#path-5"></use></mask><g id="bounds" stroke="none" fill="none"></g><g id="pen" stroke="none" stroke-width="1" fill="none" fill-rule="evenodd" mask="url(#mask-6)"><g transform="translate(27.000000, -2.000000)"><mask id="mask-8" fill="white"><use xlink:href="#path-7"></use></mask><use id="bg" stroke="none" fill="#FFFFFF" fill-rule="evenodd" xlink:href="#path-7"></use><rect id="alt" stroke="none" fill="#E1E2E2" fill-rule="nonzero" mask="url(#mask-8)" x="-5" y="-2" width="28" height="44"></rect><rect id="alt" stroke="none" fill="#50575D" fill-rule="nonzero" mask="url(#mask-8)" x="-5" y="0" width="28" height="38"></rect><path d="M9.00307814,22 C5.00307814,22 5.00307814,11.7025492 5.00307814,-1 C5.00307814,-9.46836616 5.00307814,-17.1350328 5.00307814,-24 L13.0030781,-24 C13.0030781,-17.1350328 13.0030781,-9.46836616 13.0030781,-1 C13.0030781,11.7025492 13.0030781,22 9.00307814,22 Z M-2,30 L20,30 L20,34 L-2,34 L-2,30 Z" id="alt" stroke="none" fill="#3D4145" fill-rule="nonzero" mask="url(#mask-8)"></path></g></g></g></g></g></g></svg>