<?xml version="1.0" encoding="UTF-8"?><svg width="72px" height="72px" viewBox="0 0 72 72" version="1.1" xmlns="http://www.w3.org/2000/svg" xmlns:xlink="http://www.w3.org/1999/xlink"><defs><circle id="path-1" cx="36" cy="36" r="36"></circle><rect id="path-3" x="0" y="0" width="72" height="72"></rect><path d="M16.4925365,48 C14.9746957,53.5798437 13.3700355,57.3149822 12,58 C10.6299645,57.3149822 9.02530425,53.5798437 7.50746351,48 L5.8702434,48 C2.77308566,37.3002799 0,22.1301864 0,8 L0,0 L24,0 L24,8 C24,22.1301864 21.2269143,37.3002799 18.1297566,48 L16.4925365,48 Z" id="path-5"></path></defs><g id="Plan/Personal" stroke="none" stroke-width="1" fill="none" fill-rule="evenodd"><g id="plan"><mask id="mask-2" fill="white"><use xlink:href="#path-1"></use></mask><use id="bg" fill="#6795FE" fill-rule="nonzero" xlink:href="#path-1"></use><rect id="line" fill="#3574F8" mask="url(#mask-2)" x="-2" y="54" width="29" height="2" rx="1"></rect><g id="icon" mask="url(#mask-2)"><g transform="translate(36.000000, 36.000000) rotate(30.000000) translate(-36.000000, -36.000000) "><mask id="mask-4" fill="white"><use xlink:href="#path-3"></use></mask><g id="bounds" stroke="none" fill="none"></g><g id="pen" stroke="none" stroke-width="1" fill="none" fill-rule="evenodd" mask="url(#mask-4)"><g transform="translate(24.000000, -4.000000)"><mask id="mask-6" fill="white"><use xlink:href="#path-5"></use></mask><use id="shape" stroke="none" fill="#005FB7" fill-rule="evenodd" xlink:href="#path-5"></use><rect id="alt" stroke="none" fill="#FFFFFF" fill-rule="evenodd" mask="url(#mask-6)" x="-24" y="26" width="72" height="22"></rect></g></g></g></g></g></g></svg>