<?xml version="1.0" encoding="UTF-8"?><svg width="72px" height="72px" viewBox="0 0 72 72" version="1.1" xmlns="http://www.w3.org/2000/svg" xmlns:xlink="http://www.w3.org/1999/xlink"><defs><circle id="path-1" cx="36" cy="36" r="36"></circle><rect id="path-3" x="0" y="0" width="72" height="72"></rect><path d="M4.5,29.8771834 C2.84730696,21.6521414 2.27373675e-13,6.93932335 2.27373675e-13,4 L2.27373675e-13,-9.09494702e-13 L24,-9.09494702e-13 L24,4 C24,6.93932335 21.152693,21.6521414 19.5,29.8771834 C22.1080901,33 22.1080901,36.3514593 21.5,40 C20.5848476,45.4909145 15,55 13,58 L11,58 C9,55 3.5,46 2.5,40 C1.89190989,36.3514593 1.89190989,33 4.5,29.8771834 Z M11.988761,38 C10.4775345,38 10.5000062,39 10.5000062,40 C10.5000062,40.6666667 10.9250972,45.3358287 11.775279,54.007486 C11.7810504,54.1613906 11.8733332,54.2844351 11.988761,54.2921304 C12.1128692,54.3004043 12.2185093,54.1729647 12.2247147,54.007486 C13.0748966,45.3358287 13.4999875,40.6666667 13.4999875,40 C13.4999875,39 13.4999875,38 11.988761,38 Z" id="path-5"></path></defs><g id="Plan/E-commerce" stroke="none" stroke-width="1" fill="none" fill-rule="evenodd"><g id="plan"><mask id="mask-2" fill="white"><use xlink:href="#path-1"></use></mask><use id="bg" fill="#AA5FE6" fill-rule="nonzero" xlink:href="#path-1"></use><polygon id="line" fill="#8051B4" fill-rule="nonzero" mask="url(#mask-2)" points="-1 54 27.5 54 -7.31636973e-14 62"></polygon><g id="icon" mask="url(#mask-2)"><g transform="translate(36.000000, 36.000000) rotate(30.000000) translate(-36.000000, -36.000000) "><mask id="mask-4" fill="white"><use xlink:href="#path-3"></use></mask><g id="bounds" stroke="none" fill="none"></g><g id="pen" stroke="none" stroke-width="1" fill="none" fill-rule="evenodd" mask="url(#mask-4)"><g transform="translate(24.000000, -4.000000)"><mask id="mask-6" fill="white"><use xlink:href="#path-5"></use></mask><use id="shape" stroke="none" fill="#FFFFFF" fill-rule="evenodd" xlink:href="#path-5"></use><rect id="alt" stroke="none" fill="#4B3264" fill-rule="evenodd" mask="url(#mask-6)" x="2.27373675e-13" y="0" width="24" height="26"></rect><rect id="alt" stroke="none" fill="#634581" fill-rule="evenodd" mask="url(#mask-6)" x="2.27373675e-13" y="-5" width="24" height="25"></rect></g></g></g></g></g></g></svg>