<svg width="94" height="26" viewBox="0 0 94 26" fill="none" xmlns="http://www.w3.org/2000/svg">
<path fill-rule="evenodd" clip-rule="evenodd" d="M13.0249 25.3612C20.0191 25.3612 25.6891 19.777 25.6891 12.8886C25.6891 6.00018 20.0191 0.416016 13.0249 0.416016C6.03058 0.416016 0.360596 6.00018 0.360596 12.8886C0.360596 19.777 6.03058 25.3612 13.0249 25.3612ZM12.4916 2.89212V14.9601H6.18363L12.4916 2.89212ZM13.7809 22.8863V10.7946H20.113L13.7809 22.8863ZM32.401 20.1189L32.4011 20.1191C32.6113 20.4503 32.825 20.7871 33.0479 21.1238C35.9705 19.7195 36.7675 18.1961 36.7675 15.4826V4.81901H32.2991V6.60421H34.4005V15.9586C34.4005 17.5772 33.7966 18.4341 32.0093 19.5052C32.1394 19.7067 32.2695 19.9117 32.401 20.1189ZM51.756 14.7457C51.756 15.6502 52.4082 15.7454 52.8429 15.7454C53.2777 15.7454 53.9057 15.6026 54.3888 15.4598V17.126C53.7125 17.3402 53.012 17.5068 52.0459 17.5068C50.8865 17.5068 49.5339 17.0784 49.5339 15.0789V10.1756H48.3021V8.48561H49.5339V5.98633H51.756V8.48561H54.5579V10.1756H51.756V14.7457ZM56.3968 8.46149V21.9338H58.6189V17.2685C59.1986 17.3875 59.7541 17.4827 60.4546 17.4827C63.3289 17.4827 65.0679 15.5309 65.0679 12.5793C65.0679 9.60401 63.4738 8.22346 61.4691 8.22346C60.3097 8.22346 59.3677 8.62811 58.5223 9.27078V8.46149H56.3968ZM58.6431 11.0084C59.416 10.3419 60.2372 10.0325 60.8894 10.0325C62.1212 10.0325 62.7733 10.8656 62.7733 12.746C62.7733 14.793 61.8797 15.7689 60.3097 15.7689C59.6334 15.7689 59.1261 15.6975 58.6431 15.6023V11.0084ZM73.8151 17.2923H71.7379V16.3164H71.6896C70.965 16.8638 70.0713 17.4589 68.7428 17.4589C67.5835 17.4589 66.3275 16.6258 66.3275 14.9358C66.3275 12.6746 68.2839 12.2461 69.6607 12.0557L71.6171 11.7939V11.532C71.6171 10.3419 71.1341 9.96105 69.9988 9.96105C69.4433 9.96105 68.139 10.1277 67.0762 10.5561L66.883 8.79472C67.8492 8.46149 69.1776 8.22346 70.2887 8.22346C72.4625 8.22346 73.8634 9.08035 73.8634 11.6272V17.2923H73.8151ZM71.593 13.1744L69.7573 13.46C69.2018 13.5314 68.6221 13.8647 68.6221 14.674C68.6221 15.3881 69.0327 15.7927 69.6365 15.7927C70.2887 15.7927 70.9891 15.4119 71.593 14.9834V13.1744ZM80.211 17.5065C81.2496 17.5065 82.0708 17.3161 82.9886 17.0066H83.0128V15.1738C81.9742 15.5785 81.2013 15.7213 80.5008 15.7213C79.0274 15.7213 77.8681 15.031 77.8681 12.7698C77.8681 10.7227 79.0274 10.0087 80.38 10.0087C81.2979 10.0087 82.2399 10.2705 82.892 10.5085V8.65191C82.1433 8.41388 81.467 8.22346 80.3559 8.22346C77.385 8.22346 75.5493 10.0087 75.5493 12.8888C75.5493 15.6261 76.8778 17.5065 80.211 17.5065ZM87.5171 11.8772C87.3467 12.0851 87.2767 12.1706 87.2136 12.2422V4.81901H84.9914V17.3154H87.2136V13.1261L90.6675 17.3154H93.566L89.6048 12.6739L93.2278 8.48462H90.3294C88.5576 10.6069 87.8483 11.4728 87.5174 11.8768L87.5171 11.8772ZM43.3295 17.5065C44.4889 17.5065 45.4792 17.3637 46.6386 17.0066H46.6144V15.1738C45.6724 15.5071 44.8512 15.7213 43.9334 15.7213C42.2668 15.7213 41.1557 15.269 41.1074 13.341H46.856C46.8623 13.2468 46.8704 13.1542 46.8788 13.0577C46.9023 12.7882 46.9284 12.4874 46.9284 12.0319C46.9284 10.1753 45.9381 8.22346 43.088 8.22346C40.2137 8.22346 38.7162 10.4133 38.7162 12.8174C38.7162 16.1021 40.4794 17.5065 43.3295 17.5065ZM43.0638 9.88964C44.2474 9.88964 44.6097 10.8179 44.6097 11.8891H41.1315C41.2765 10.6751 41.9528 9.88964 43.0638 9.88964Z" fill="white"/>
</svg>
