<svg width="121" height="20" viewBox="0 0 121 20" fill="none" xmlns="http://www.w3.org/2000/svg">
<path fill-rule="evenodd" clip-rule="evenodd" d="M0.828613 0.698242V19.0257H12.6721L19.3341 12.4278V0.698242H0.828613ZM14.665 7.35251C14.665 10.3413 13.5262 11.1308 10.2807 11.1308H7.49059V15.9805C7.49059 16.2625 7.31977 16.4316 7.03507 16.4316C6.63649 16.4316 5.83933 16.3189 5.83933 16.0933V3.68702C5.83933 3.29228 6.01015 3.23589 6.29485 3.23589H10.2237C13.5262 3.23589 14.6081 4.13816 14.6081 7.01416V7.35251H14.665ZM10.2895 4.70128H7.49941V9.72018H10.2325C12.3962 9.72018 12.9656 9.26904 12.9656 7.35171V7.06975C12.9656 5.15242 12.4532 4.70128 10.2895 4.70128ZM28.1216 1.80553C27.7986 1.80553 27.5294 1.85885 27.5294 2.39198V18.5993C27.5294 18.8659 28.606 19.0258 29.0905 19.0258C29.4674 19.0258 29.6827 18.8126 29.6827 18.4394V12.1484H33.2356C37.5421 12.1484 38.9956 11.0288 38.9956 7.19021V6.7637C38.9956 2.97843 37.5421 1.80553 33.2356 1.80553H28.1216ZM29.6827 10.1758V3.67151H33.2356C36.0887 3.67151 36.7885 4.25796 36.7885 6.71039V7.1369C36.7885 9.58933 36.0887 10.1758 33.2356 10.1758H29.6827ZM43.1406 8.46974C43.1406 8.3098 44.4326 7.77666 45.886 7.77666C46.4499 7.77666 46.8498 7.85792 47.3004 7.94951C47.366 7.96283 47.4326 7.97637 47.501 7.98992C47.7701 7.98992 47.9855 7.61672 47.9855 6.65708C47.9855 6.01731 46.3705 6.01731 45.7784 6.01731C43.0868 6.01731 41.1488 6.87033 41.1488 7.67004V18.6527C41.1488 18.9192 42.1178 19.0258 42.5485 19.0258C42.8714 19.0258 43.1406 18.8659 43.1406 18.4394V8.46974ZM49.2774 13.3213C49.2774 17.4797 50.6232 19.0258 54.4991 19.0258C55.6296 19.0258 57.1907 18.8659 58.375 18.6527C58.6441 18.5993 58.7518 18.4927 58.7518 18.2261C58.7518 17.2132 58.5365 17.0532 58.3211 17.0532C58.0244 17.0532 57.6116 17.1203 57.1361 17.1976C56.4899 17.3026 55.7278 17.4264 54.9836 17.4264C52.1843 17.4264 51.2692 16.4135 51.2692 13.961C57.5675 13.961 58.8056 13.0014 58.8056 10.1758V9.58933C58.8056 7.24353 57.5675 6.01731 54.2838 6.01731H53.9608C50.8385 6.01731 49.2774 7.24353 49.2774 10.2824V13.3213ZM54.1223 7.51009C56.0602 7.51009 56.8677 8.20317 56.8677 9.53601V9.96252C56.8677 11.8818 56.114 12.3083 51.2692 12.3083V10.1758C51.2692 7.98992 52.4535 7.51009 54.1223 7.51009ZM67.4725 15.6671C67.4725 16.84 66.3959 17.2665 64.5656 17.2665C63.6992 17.2665 62.9481 17.2094 62.2701 17.1579C62.0212 17.139 61.7823 17.1209 61.551 17.1066H61.4434C61.2819 17.1066 60.8512 17.3198 60.8512 18.3861C60.8512 18.546 60.9051 18.6527 61.1742 18.7593C62.3585 19.0258 63.812 19.0792 64.8886 19.0792C67.4725 19.0792 69.4643 18.3861 69.4643 15.6671C69.4643 13.0562 67.3736 12.1265 65.6012 11.3384C64.2974 10.7587 63.166 10.2556 63.166 9.21613C63.166 8.14986 64.2426 7.77666 66.0191 7.77666C66.7742 7.77666 67.4092 7.84803 67.9723 7.91131C68.2522 7.94276 68.5143 7.97222 68.7645 7.98992C68.9798 7.98992 69.249 7.51009 69.249 6.71039C69.249 6.44382 69.1413 6.28388 68.8183 6.23057C68.0647 6.07063 67.0957 6.01731 65.4807 6.01731C63.3275 6.01731 61.1742 6.49713 61.1742 9.16282C61.1742 11.5141 63.0884 12.3909 64.8062 13.1778C66.2044 13.8183 67.4725 14.3992 67.4725 15.6671ZM78.0235 15.6671C78.0235 16.84 76.9469 17.2665 75.1166 17.2665C74.1777 17.2665 73.3935 17.2052 72.7172 17.1523C72.5017 17.1354 72.2972 17.1194 72.102 17.1066H71.9944C71.8329 17.1066 71.4022 17.3198 71.4022 18.3861C71.4022 18.546 71.4561 18.6527 71.7252 18.7593C72.9095 19.0258 74.363 19.0792 75.4396 19.0792C78.0235 19.0792 80.0153 18.3861 80.0153 15.6671C80.0153 13.0562 77.9246 12.1265 76.1522 11.3384C74.8484 10.7587 73.717 10.2556 73.717 9.21613C73.717 8.14986 74.7936 7.77666 76.5701 7.77666C77.3252 7.77666 77.9603 7.84803 78.5233 7.91131C78.8032 7.94276 79.0653 7.97222 79.3155 7.98992C79.5308 7.98992 79.8 7.51009 79.8 6.71039C79.8 6.44382 79.6923 6.28388 79.3693 6.23057C78.6157 6.07063 77.6467 6.01731 76.0318 6.01731C73.8785 6.01731 71.7252 6.49713 71.7252 9.16282C71.7252 11.5141 73.6394 12.3909 75.3572 13.1778C76.7554 13.8183 78.0235 14.3992 78.0235 15.6671ZM86.5289 18.9725C88.9514 18.9725 91.2123 18.2261 91.2123 17.693H91.2661V9.8559C91.2661 6.7637 89.8127 5.964 86.7443 5.964C85.0216 5.964 83.3529 6.23057 82.8684 6.39051C82.7069 6.44382 82.6531 6.55045 82.6531 6.81702C82.6531 6.97696 82.7069 7.98992 83.1375 7.98992C83.8912 7.82998 85.1293 7.67004 86.2059 7.67004C88.5207 7.67004 89.2743 8.25648 89.2743 9.90921V11.9884C88.4669 11.7219 87.0672 11.4553 85.8291 11.4553C82.8684 11.4553 81.8994 12.6282 81.8994 15.0806C81.8994 17.7996 83.299 18.9725 86.5289 18.9725ZM86.2598 12.9481C87.3364 12.9481 89.1129 13.3746 89.2743 13.5345V16.8933C89.1129 17.1599 87.5517 17.4264 86.5828 17.4264C84.6448 17.4264 83.8912 16.84 83.8912 15.1873C83.8912 13.3746 84.591 12.9481 86.2598 12.9481ZM99.3947 6.01731C97.9412 6.01731 96.5955 6.44382 95.6265 7.08358V1.75222C95.6265 1.2724 95.465 1.05914 95.0882 1.05914C94.6037 1.05914 93.6347 1.16577 93.6347 1.43234V17.5864C93.6347 18.0129 93.7424 18.2261 94.0654 18.3861C95.3035 18.9725 97.1338 19.0258 98.3719 19.0258C102.248 19.0258 102.948 17.1066 102.948 14.7608V10.3357C102.948 8.14986 102.463 6.01731 99.3947 6.01731ZM98.3181 17.3198C97.0261 17.3198 95.6265 17.0532 95.6265 16.8933H95.5727V8.89625C95.6265 8.52305 97.3491 7.77666 98.8564 7.77666C100.794 7.77666 100.902 9.16282 100.902 10.389V14.7074C100.902 15.987 100.794 17.3198 98.3181 17.3198ZM107.9 18.9725C108.492 18.9725 110 18.9192 110 18.1728C110 17.8529 109.784 16.9999 109.569 16.9466C109.084 17.0532 108.761 17.1066 108.438 17.1066C107.416 17.1066 107.2 16.4668 107.2 15.4538V1.53896C107.2 1.16577 106.931 1.00583 106.608 1.00583C106.231 1.00583 105.155 1.05914 105.155 1.37902V15.7737C105.155 18.0662 106.124 18.9725 107.9 18.9725ZM110.969 13.3213C110.969 17.4797 112.26 19.0258 116.19 19.0258C117.321 19.0258 118.882 18.8659 120.066 18.6527C120.335 18.5993 120.443 18.4927 120.443 18.2261C120.443 17.2132 120.228 17.0532 120.012 17.0532C119.716 17.0532 119.303 17.1203 118.827 17.1976C118.181 17.3026 117.419 17.4264 116.675 17.4264C113.875 17.4264 112.96 16.4135 112.96 13.961C119.259 13.961 120.497 13.0014 120.497 10.1758V9.58933C120.497 7.24353 119.259 6.01731 115.975 6.01731H115.652C112.53 6.01731 110.969 7.24353 110.969 10.2824V13.3213ZM115.76 7.51009C117.697 7.51009 118.505 8.20317 118.505 9.53601V9.96252C118.505 11.8818 117.751 12.3083 112.906 12.3083V10.1758C112.906 7.98992 114.091 7.51009 115.76 7.51009Z" fill="white"/>
</svg>
