<svg width="58" height="26" viewBox="0 0 58 26" fill="none" xmlns="http://www.w3.org/2000/svg">
<path fill-rule="evenodd" clip-rule="evenodd" d="M0.830078 12.8854C0.830078 5.99608 6.39391 0.416016 13.2632 0.416016C20.1325 0.416016 25.6964 5.99608 25.6964 12.8854C25.6964 19.7748 20.1325 25.3548 13.2632 25.3548C6.39391 25.3548 0.830078 19.7748 0.830078 12.8854ZM3.03696 8.33409C2.4153 9.70573 2.07339 11.2644 2.07339 12.8854C2.07339 17.3121 4.65327 21.1464 8.38322 22.9857L3.03696 8.33409ZM10.0928 23.6403C11.1185 23.952 12.1753 24.1079 13.2632 24.1079C14.5687 24.1079 15.812 23.8897 16.9932 23.4533C16.9776 23.4221 16.9621 23.3987 16.9466 23.3753C16.931 23.3519 16.9155 23.3286 16.8999 23.2974L13.4497 13.8518L10.0928 23.6403ZM16.0918 7.52358C16.0918 7.52358 15.5012 7.58593 14.8174 7.6171L18.8581 19.6501L19.9771 15.9093C20.5366 14.4753 20.8164 13.2595 20.8164 12.2931C20.8164 10.9215 20.319 9.95512 19.8839 9.20695C19.8451 9.14435 19.8065 9.08234 19.7683 9.02084C19.2537 8.19423 18.796 7.45882 18.796 6.58838C18.796 5.55965 19.5731 4.59327 20.661 4.59327H20.8164C18.8271 2.7852 16.185 1.66296 13.2632 1.66296C9.34679 1.66296 5.92767 3.68924 3.93837 6.74424H4.65327C5.83442 6.74424 7.63723 6.58838 7.63723 6.58838C8.2278 6.5572 8.28997 7.46123 7.69939 7.52358C7.69939 7.52358 7.10882 7.58593 6.425 7.6171L10.4969 19.7748L12.9524 12.4178L11.2118 7.6171C10.5901 7.58593 10.0306 7.52358 10.0306 7.52358C9.40895 7.46123 9.5022 6.5572 10.0928 6.58838C10.0928 6.58838 11.9577 6.74424 13.0456 6.74424C14.2268 6.74424 16.0296 6.58838 16.0296 6.58838C16.6202 6.5572 16.6823 7.46123 16.0918 7.52358ZM22.3083 12.6672L18.8892 22.5804C22.2151 20.6476 24.4531 17.0315 24.4531 12.8854C24.4531 10.9215 23.9557 9.08226 23.0854 7.49241C23.1165 7.83532 23.1476 8.24057 23.1476 8.64583C23.1476 9.79925 22.9611 11.0774 22.3083 12.6672ZM34.4209 14.5413L36.9386 7.12199H40.2956L35.5088 19.6537H32.1208L27.3651 7.12199H30.7221L33.2398 14.5413C33.5195 15.4765 33.7371 16.3182 33.7993 17.1287H33.8614C33.9236 16.3182 34.1412 15.4453 34.4209 14.5413ZM41.9778 7.12199L41.0142 9.61587V19.6537H44.3711V7.12199H41.9778ZM52.8384 6.87528C54.3303 6.87528 55.4804 7.4364 56.3196 8.58982C57.1589 9.74324 57.594 11.3331 57.563 13.3594C57.563 14.6998 57.3765 15.8532 56.9724 16.8508C56.5683 17.8172 56.0088 18.5653 55.2939 19.0953C54.579 19.6252 53.7087 19.8746 52.7451 19.8746C51.2842 19.8746 50.2585 19.3447 49.4192 18.2848H49.2327C49.3571 19.3135 49.4192 19.937 49.4192 20.0928V25.3612H46.0623V7.12467H48.7976L49.2638 8.74569H49.4192C50.1963 7.49875 51.2842 6.87528 52.8384 6.87528ZM50.0409 16.2585C50.445 16.8508 51.0666 17.1314 51.937 17.1314C53.46 17.1314 54.206 15.8532 54.206 13.3282C54.206 12.0813 54.0195 11.1772 53.6465 10.5538C53.2735 9.93028 52.6829 9.61855 51.8748 9.61855C51.0356 9.61855 50.4139 9.86794 50.0409 10.3979C49.6679 10.9278 49.4503 11.8007 49.4503 12.9853V13.3594C49.4503 14.6998 49.6368 15.6662 50.0409 16.2585Z" fill="white"/>
</svg>
