<svg width="146" height="24" viewBox="0 0 146 24" fill="none" xmlns="http://www.w3.org/2000/svg">
<path fill-rule="evenodd" clip-rule="evenodd" d="M20.9345 11.6891L17.6852 21.0705C20.8482 19.2293 22.9752 15.8073 22.9752 11.8882C22.9752 10.041 22.5026 8.30464 21.6721 6.7916C21.718 7.12994 21.7439 7.49293 21.7439 7.88416C21.7439 8.96173 21.5418 10.1734 20.9345 11.6891ZM15.0198 6.80573C15.0198 6.80573 14.4427 6.87302 13.8022 6.90659L17.6471 18.3265L18.7085 14.7861C19.248 13.4053 19.518 12.2612 19.518 11.3515C19.518 10.0383 19.0455 9.12947 18.641 8.42195C18.5986 8.35309 18.5564 8.28506 18.5146 8.21774C18.0253 7.42895 17.5959 6.73689 17.5959 5.93032C17.5959 4.95376 18.3373 4.04478 19.3826 4.04478C19.4141 4.04478 19.4447 4.04737 19.4752 4.04994C19.4902 4.05121 19.5052 4.05248 19.5203 4.05343C17.6276 2.32165 15.1057 1.26425 12.3359 1.26425C8.61904 1.26425 5.34924 3.16867 3.44664 6.05238C3.69687 6.0603 3.93225 6.06535 4.13169 6.06535C5.24418 6.06535 6.96711 5.93032 6.96711 5.93032C7.54046 5.89675 7.60828 6.73814 7.03508 6.80573C7.03508 6.80573 6.4587 6.87302 5.81767 6.90659L9.69141 18.4138L12.0202 11.4416L10.3627 6.90659C9.78969 6.87302 9.24708 6.80573 9.24708 6.80573C8.67345 6.77187 8.74069 5.89675 9.31433 5.93032C9.31433 5.93032 11.0709 6.06535 12.1164 6.06535C13.2289 6.06535 14.9521 5.93032 14.9521 5.93032C15.5256 5.89675 15.5931 6.73814 15.0198 6.80573ZM9.33156 22.0796C10.2847 22.359 11.2927 22.5122 12.337 22.5122C13.576 22.5122 14.7643 22.298 15.8701 21.9096C15.8417 21.8637 15.8154 21.8155 15.794 21.7633L12.524 12.8171L9.33156 22.0796ZM2.61921 7.56617C2.02868 8.88713 1.69777 10.3495 1.69777 11.8897C1.69777 16.0949 4.14457 19.7289 7.69405 21.4505L2.61921 7.56617ZM0.503174 11.8881C0.503174 5.37292 5.81166 0.0725098 12.3363 0.0725098C18.861 0.0725098 24.1696 5.37292 24.1696 11.8881C24.1696 18.4038 18.861 23.7048 12.3363 23.7048C5.81166 23.7048 0.503174 18.4038 0.503174 11.8881ZM40.0556 15.8802L42.4151 6.82775H44.5689L41.1896 18.6507H38.6937L36.8871 12.3298L34.9585 18.6507H32.4629L29.2433 6.82775H31.5336L33.7923 16.1866L35.8693 8.76775L35.3147 6.82775H37.6964L40.0556 15.8802ZM113.114 18.6509H111.02V16.4983H113.114V18.6509ZM44.3038 14.4704C44.3038 11.9118 45.6649 10.0587 48.5453 10.0587C51.4083 10.0587 52.7867 11.9118 52.7867 14.4704C52.7867 17.0292 51.4083 18.8648 48.5453 18.8648C45.6649 18.8648 44.3038 17.0292 44.3038 14.4704ZM46.4598 14.4683C46.4598 16.3038 47.1841 17.1861 48.545 17.1861C49.9058 17.1861 50.6129 16.2863 50.6129 14.4683C50.6129 12.6333 49.9058 11.7506 48.545 11.7506C47.1841 11.7506 46.4598 12.6508 46.4598 14.4683ZM64.8604 10.0569C65.3729 10.0569 65.8145 10.1278 66.4332 10.2511V6.82794H68.5184V18.6509H66.5392V17.8746C65.8676 18.4392 64.7546 18.863 63.8355 18.863C61.9798 18.863 60.407 17.5744 60.407 14.7864C60.407 11.9805 61.9798 10.0569 64.8604 10.0569ZM64.454 17.1856C65.1254 17.1856 65.7618 16.8501 66.4332 16.2327V11.9798C66.0799 11.8385 65.5672 11.7152 65.0726 11.7152C63.4819 11.7152 62.5629 12.7209 62.5629 14.6444C62.5629 16.4265 63.305 17.1856 64.454 17.1856ZM71.0986 6.82794H74.9609C77.4883 6.82794 79.3264 8.08031 79.3264 10.6395C79.3264 13.1804 77.4883 14.5393 74.9609 14.5393H73.3255V18.6509H71.0986V6.82794ZM73.3256 12.8083H74.9789C76.3754 12.8083 76.994 11.9435 76.994 10.638C76.994 9.31428 76.3222 8.57333 74.9789 8.57333H73.3256V12.8083ZM86.5693 14.4174C86.5693 12.1413 87.9653 10.0587 90.6513 10.0587C93.3203 10.0587 94.2569 11.9118 94.2569 13.6766C94.2569 14.2478 94.223 14.5643 94.1879 14.8923L94.1858 14.9116H88.8135C88.8667 16.747 89.9066 17.1703 91.4611 17.1703C92.3092 17.1703 93.0989 16.9772 93.9743 16.6567V18.3881C92.8874 18.7216 91.956 18.8648 90.8781 18.8648C88.2121 18.8648 86.5693 17.5413 86.5693 14.4174ZM90.6335 11.6261C89.5912 11.6261 88.9551 12.3672 88.8314 13.5319H92.0831C92.0831 12.5086 91.7474 11.6261 90.6335 11.6261ZM99.3107 11.7356C98.569 11.7356 97.8793 11.9824 97.8793 12.6178C97.8793 13.1973 98.582 13.411 99.4106 13.663C100.601 14.0249 102.05 14.4658 102.05 16.1824C102.05 18.2822 100.177 18.8648 98.2152 18.8648C97.3137 18.8648 96.4063 18.6229 95.7589 18.3685V16.6567C96.5365 16.9265 97.6142 17.1882 98.2859 17.1882C99.2401 17.1882 99.8941 16.9941 99.8941 16.2705C99.8941 15.6693 99.191 15.4457 98.3622 15.1822C97.1723 14.8039 95.7234 14.3432 95.7234 12.5645C95.7234 11.0117 97.1371 10.0587 99.1519 10.0587C100.071 10.0587 100.866 10.1471 101.643 10.3763V12.1058C101.643 12.1058 100.508 11.7356 99.3107 11.7356ZM122.578 14.4704C122.578 11.9118 123.939 10.0587 126.819 10.0587C129.682 10.0587 131.062 11.9118 131.062 14.4704C131.062 17.0292 129.682 18.8648 126.819 18.8648C123.939 18.8648 122.578 17.0292 122.578 14.4704ZM124.734 14.4683C124.734 16.3038 125.458 17.1861 126.819 17.1861C128.18 17.1861 128.887 16.2863 128.887 14.4683C128.887 12.6333 128.18 11.7506 126.819 11.7506C125.458 11.7506 124.734 12.6508 124.734 14.4683ZM140.129 11.1706C141.065 10.5529 142.09 10.0587 142.992 10.0587C144.688 10.0587 145.66 11.2411 145.66 12.8649V18.6527H143.575V13.359C143.575 12.1764 143.15 11.8061 142.461 11.8061C141.861 11.8061 141.03 12.1413 140.253 12.653V18.6527H138.167V13.359C138.167 12.1764 137.743 11.8061 137.054 11.8061C136.453 11.8061 135.622 12.1237 134.844 12.6353V18.6527H132.742V10.2708H134.721V11.1355C135.657 10.5178 136.683 10.0587 137.584 10.0587C138.555 10.0587 139.439 10.3943 139.881 11.3296L140.129 11.1706ZM82.5736 11.6463H82.6442C83.2271 10.605 84.005 10.164 85.1357 10.164C85.4011 10.164 85.7013 10.1994 85.7013 10.1994V12.017H85.4893C84.1639 12.017 83.3686 12.4229 82.7148 13.658V18.6519H80.6295V10.2699H82.5736V11.6463ZM56.4116 11.6463H56.4822C57.0654 10.605 57.8428 10.164 58.9742 10.164C59.2388 10.164 59.5396 10.1994 59.5396 10.1994V12.017H59.3273C58.0019 12.017 57.2066 12.4229 56.5529 13.658V18.6519H54.4673V10.2699H56.4116V11.6463ZM118.817 11.7528C117.545 11.7528 116.467 12.4237 116.467 14.3825C116.467 16.5351 117.545 17.1703 118.923 17.1703C119.577 17.1703 120.31 17.0293 121.264 16.6586V18.3881C120.416 18.6706 119.647 18.8648 118.658 18.8648C115.53 18.8648 114.292 17.0822 114.292 14.488C114.292 11.7528 116.008 10.0587 118.783 10.0587C119.825 10.0587 120.451 10.2353 121.159 10.4649V12.2294C120.558 12.0002 119.666 11.7528 118.817 11.7528ZM106.902 11.7356C106.16 11.7356 105.47 11.9822 105.47 12.6177C105.47 13.1972 106.173 13.4109 107.001 13.6629C108.191 14.0248 109.641 14.4657 109.641 16.1823C109.641 18.2822 107.768 18.8648 105.806 18.8648C104.904 18.8648 103.997 18.6228 103.35 18.3684V16.6565C104.127 16.9264 105.205 17.1881 105.877 17.1881C106.831 17.1881 107.484 16.994 107.484 16.2705C107.484 15.6692 106.781 15.4456 105.952 15.1821C104.763 14.8038 103.314 14.3431 103.314 12.5644C103.314 11.0116 104.728 10.0587 106.743 10.0587C107.661 10.0587 108.457 10.1471 109.235 10.3763V12.1057C109.235 12.1057 108.099 11.7356 106.902 11.7356Z" fill="white"/>
</svg>
