<svg width="26" height="26" viewBox="0 0 26 26" fill="none" xmlns="http://www.w3.org/2000/svg">
<path fill-rule="evenodd" clip-rule="evenodd" d="M17.112 5.03258H5.80321C5.51932 5.03258 5.28917 5.26272 5.28917 5.54662V16.8554C5.28917 17.1393 5.51932 17.3694 5.80321 17.3694H17.112C17.3959 17.3694 17.626 17.1393 17.626 16.8554V5.54662C17.626 5.26272 17.3959 5.03258 17.112 5.03258ZM5.80321 3.49048C4.66764 3.49048 3.74707 4.41104 3.74707 5.54662V16.8554C3.74707 17.991 4.66764 18.9115 5.80321 18.9115H17.112C18.2475 18.9115 19.1681 17.991 19.1681 16.8554V5.54662C19.1681 4.41104 18.2475 3.49048 17.112 3.49048H5.80321Z" fill="white"/>
<path fill-rule="evenodd" clip-rule="evenodd" d="M21.224 19.6829V8.6311H22.7661V19.6829C22.7661 21.2443 21.5004 22.51 19.9389 22.51H6.83105V20.9679H19.9389C20.6487 20.9679 21.224 20.3926 21.224 19.6829Z" fill="white"/>
<path d="M8.50195 8.11743L7.47388 9.1455L9.53002 11.2016L7.47388 13.2578L8.50195 14.2858L11.5862 11.2016L8.50195 8.11743Z" fill="white"/>
<path d="M12.3574 8.11743L11.3293 9.1455L13.3855 11.2016L11.3293 13.2578L12.3574 14.2858L15.4416 11.2016L12.3574 8.11743Z" fill="white"/>
</svg>
