<svg width="96" height="96" viewBox="0 0 96 96" fill="none" xmlns="http://www.w3.org/2000/svg">
<path d="M32 47.5L40 62H16L10.2635 51.6025C8.86555 49.0688 8.94489 45.9777 10.471 43.519L17 33H40L32 47.5Z" fill="#2684FC"/>
<path d="M56 33L64 47.5L76 27L70.3034 17.0309C68.879 14.5383 66.2283 13 63.3574 13H51L40 33H56Z" fill="#2684FC"/>
<path d="M40 33L51 13H40.607H33.0741C30.2037 13 27.5532 14.5379 26.1288 17.0299L17 33H40Z" fill="#0066DA"/>
<path d="M56 62H40L51.5 81.9493H63.8347C66.7094 81.9493 69.3631 80.4069 70.786 77.909L77 67L64 47.5L56 62Z" fill="#2684FC"/>
<path d="M51.5 82H31.8221C28.9173 82 26.2407 80.4254 24.8296 77.8864L16 62H40L51.5 82Z" fill="#0066DA"/>
<path d="M64 47.5L76 27L85.6838 43.5432C87.1185 45.9941 87.1463 49.0218 85.7569 51.4986L76.5 68L64 47.5Z" fill="#0066DA"/>
</svg>
