<svg width="96" height="96" viewBox="0 0 96 96" fill="none" xmlns="http://www.w3.org/2000/svg">
<path d="M68 28H28V68H68V28Z" fill="white"/>
<path d="M36.205 59.03C34.71 58.02 33.675 56.545 33.11 54.595L36.58 53.165C36.895 54.365 37.445 55.295 38.23 55.955C39.01 56.615 39.96 56.94 41.07 56.94C42.205 56.94 43.18 56.595 43.995 55.905C44.81 55.215 45.22 54.335 45.22 53.27C45.22 52.18 44.79 51.29 43.93 50.6C43.07 49.91 41.99 49.565 40.7 49.565H38.695V46.13H40.495C41.605 46.13 42.54 45.83 43.3 45.23C44.06 44.63 44.44 43.81 44.44 42.765C44.44 41.835 44.1 41.095 43.42 40.54C42.74 39.985 41.88 39.705 40.835 39.705C39.815 39.705 39.005 39.975 38.405 40.52C37.805 41.065 37.37 41.735 37.095 42.525L33.66 41.095C34.115 39.805 34.95 38.665 36.175 37.68C37.4 36.695 38.965 36.2 40.865 36.2C42.27 36.2 43.535 36.47 44.655 37.015C45.775 37.56 46.655 38.315 47.29 39.275C47.925 40.24 48.24 41.32 48.24 42.52C48.24 43.745 47.945 44.78 47.355 45.63C46.765 46.48 46.04 47.13 45.18 47.585V47.79C46.315 48.265 47.24 48.99 47.97 49.965C48.695 50.94 49.06 52.105 49.06 53.465C49.06 54.825 48.715 56.04 48.025 57.105C47.335 58.17 46.38 59.01 45.17 59.62C43.955 60.23 42.59 60.54 41.075 60.54C39.32 60.545 37.7 60.04 36.205 59.03Z" fill="#4285F4"/>
<path d="M57.52 41.81L53.71 44.565L51.805 41.675L58.64 36.745H61.26V60H57.52V41.81Z" fill="#4285F4"/>
<path d="M68 68H28V86H68V68Z" fill="#34A853"/>
<path d="M68 10H16C12.685 10 10 12.685 10 16V68H28V28H68V10Z" fill="#4285F4"/>
<path d="M10 68V80C10 83.315 12.685 86 16 86H28V68H10Z" fill="#188038"/>
<path d="M86 28H68V68H86V28Z" fill="#FBBC04"/>
<path d="M86 28V16C86 12.685 83.315 10 80 10H68V28H86Z" fill="#1967D2"/>
<path d="M68 86L86 68H68V86Z" fill="#EA4335"/>
</svg>
