<svg width="96" height="96" viewBox="0 0 96 96" fill="none" xmlns="http://www.w3.org/2000/svg">
<path d="M63 38H33H28V43V60V65H33H63H68V60V43V38H63ZM63 60H33V43H63V60Z" fill="white"/>
<path d="M74 92H22C18.685 92 16 89.315 16 86V10C16 6.685 18.685 4 22 4H58L80 26V86C80 89.315 77.315 92 74 92Z" fill="#00AC47"/>
<path d="M58 4L80 26H58V4Z" fill="#00832D"/>
<path d="M63 38H50.5H45.5H33H28V43V50V55V62V67H33H45.5H50.5H63H68V62V55V50V43V38H63ZM33 43H45.5V50H33V43ZM33 62V55H45.5V62H33ZM63 62H50.5V55H63V62ZM63 50H50.5V43H63V50Z" fill="white"/>
</svg>
