<svg width="61" height="61" viewBox="0 0 61 61" fill="none" xmlns="http://www.w3.org/2000/svg">
<rect x="0.25" y="0.5" width="60" height="60" rx="30" fill="#e6f1f5"/>
<mask id="mask0_19_23595" style="mask-type:luminance" maskUnits="userSpaceOnUse" x="18" y="18" width="25" height="26">
<path fill-rule="evenodd" clip-rule="evenodd" d="M18.6699 31.0199C18.6699 24.3371 24.0871 18.9199 30.7699 18.9199C37.4528 18.9199 42.8699 24.3371 42.8699 31.0199C42.8699 37.7028 37.4528 43.1199 30.7699 43.1199C24.0871 43.1199 18.6699 37.7028 18.6699 31.0199ZM35.2506 26.1795H39.1407C38.0953 24.3802 36.4944 22.9427 34.5669 22.1175C34.7424 22.9718 35.0231 24.4564 35.2506 26.1795ZM31.997 21.4271C32.0793 21.853 32.4653 23.8931 32.7775 26.18H28.7627C29.0749 23.8931 29.4609 21.853 29.5431 21.4271C29.9461 21.3751 30.3538 21.34 30.7701 21.34C31.1863 21.34 31.5941 21.3751 31.997 21.4271ZM33.0581 33.44C33.138 32.5761 33.19 31.7436 33.19 31.02C33.19 30.2964 33.138 29.4639 33.0581 28.6H28.4819C28.402 29.4639 28.35 30.2964 28.35 31.02C28.35 31.7436 28.402 32.5761 28.4819 33.44H33.0581ZM26.9731 22.1175C26.7976 22.9718 26.5169 24.4564 26.2894 26.1795H22.3993C23.4447 24.3802 25.0455 22.9427 26.9731 22.1175ZM26.0316 28.6H21.4082C21.2086 29.3756 21.09 30.1827 21.09 31.02C21.09 31.8573 21.2074 32.6644 21.4082 33.44H26.0329C25.9699 32.6317 25.93 31.8138 25.93 31.02C25.93 30.2262 25.9699 29.4083 26.0316 28.6ZM22.3993 35.86H26.2894C26.5169 37.583 26.7976 39.0665 26.9731 39.922C25.0455 39.0968 23.4447 37.6593 22.3993 35.86ZM28.7627 35.86C29.0737 38.1469 29.4609 40.1858 29.5431 40.6129C29.9461 40.6649 30.3538 40.7 30.7701 40.7C31.1863 40.7 31.5941 40.6649 31.997 40.6129C32.0793 40.187 32.4653 38.1469 32.7775 35.86H28.7627ZM34.5669 39.922C34.7424 39.0665 35.0231 37.583 35.2506 35.86H39.1407C38.0953 37.6593 36.4944 39.0968 34.5669 39.922ZM35.5084 33.44H40.1318C40.3327 32.6644 40.45 31.8573 40.45 31.02C40.45 30.1827 40.3315 29.3756 40.1306 28.6H35.5072C35.5701 29.4083 35.61 30.2262 35.61 31.02C35.61 31.8138 35.5701 32.6317 35.5084 33.44Z" fill="white"/>
</mask>
<g mask="url(#mask0_19_23595)">
<rect x="16.25" y="16.5" width="29.04" height="29.04" fill="#006088"/>
</g>
</svg>