<svg width="61" height="61" viewBox="0 0 61 61" fill="none" xmlns="http://www.w3.org/2000/svg">
<rect x="0.5" y="0.5" width="60" height="60" rx="30" fill="#e6f1f5"/>
<path d="M16.5 35.9231C16.5 36.8792 16.8797 37.796 17.5559 38.4722C18.2318 39.1483 19.1489 39.5281 20.105 39.5281H36.1276C37.0837 39.5281 38.0008 39.1484 38.6767 38.4722C39.3529 37.796 39.7326 36.8792 39.7326 35.9231V23.105C39.7326 22.1489 39.3529 21.2321 38.6767 20.5559C38.0008 19.8797 37.0837 19.5 36.1276 19.5H20.105C19.1489 19.5 18.2318 19.8797 17.5559 20.5559C16.8797 21.2321 16.5 22.1489 16.5 23.105V35.9231ZM36.1277 37.1248L20.1051 37.1246C19.7863 37.1246 19.4806 36.998 19.2554 36.7728C19.0299 36.5473 18.9033 36.2416 18.9033 35.9231V27.9118H37.3293V35.9231C37.3293 36.2416 37.2027 36.5473 36.9772 36.7728C36.752 36.998 36.4464 37.1246 36.1275 37.1246L36.1277 37.1248ZM20.1051 21.9034H36.1277C36.4465 21.9034 36.7522 22.03 36.9774 22.2552C37.2029 22.4807 37.3294 22.7863 37.3294 23.1049V25.5084H18.9035V23.1049C18.9035 22.7863 19.03 22.4807 19.2555 22.2552C19.4807 22.03 19.7864 21.9034 20.1052 21.9034H20.1051Z" fill="#006088"/>
<path d="M22.5084 31.9174H27.3151V34.321H22.5084V31.9174Z" fill="#006088"/>
<circle cx="38.365" cy="40.365" r="7.865" fill="#e6f1f5"/>
<path d="M34.1299 39.7744L37.4956 42.6593L42.7846 37.1299" stroke="#6ab3d0" stroke-width="2.4041"/>
</svg>
