<svg width="61" height="61" viewBox="0 0 61 61" fill="none" xmlns="http://www.w3.org/2000/svg">
<rect x="0.75" y="0.5" width="60" height="60" rx="30" fill="#e6f1f5"/>
<path fill-rule="evenodd" clip-rule="evenodd" d="M33.461 19.5859H22.4604C20.9344 19.5859 19.6973 20.823 19.6973 22.3491V38.928C19.6973 40.4541 20.9344 41.6912 22.4604 41.6912H39.0394C40.5654 41.6912 41.8025 40.4541 41.8025 38.928V27.9294H39.7302V38.928C39.7302 39.3096 39.4209 39.6188 39.0394 39.6188H27.9867L27.9867 28.5543L36.9104 28.585L36.9175 26.5126L21.7696 26.4605V22.3491C21.7696 21.9676 22.0789 21.6583 22.4604 21.6583H33.461V19.5859ZM21.7696 28.5329V38.928C21.7696 39.3096 22.0789 39.6188 22.4604 39.6188H25.9143L25.9143 28.5471L21.7696 28.5329Z" fill="#006088"/>
<path d="M40.8272 14.7129L42.232 18.5093L46.0285 19.9141L42.232 21.3189L40.8272 25.1154L39.4224 21.3189L35.626 19.9141L39.4224 18.5093L40.8272 14.7129Z" fill="#6ab3d0"/>
</svg>