<svg width="60" height="61" viewBox="0 0 60 61" fill="none" xmlns="http://www.w3.org/2000/svg">
<rect y="0.5" width="60" height="60" rx="30" fill="#006088" fill-opacity="0.08"/>
<path fill-rule="evenodd" clip-rule="evenodd" d="M32.0455 40.7622V37.1737C32.0455 35.8651 31.5256 34.61 30.6003 33.6847C29.6749 32.7594 28.4199 32.2395 27.1112 32.2395H19.9342C18.6256 32.2395 17.3705 32.7594 16.4452 33.6847C15.5199 34.61 15 35.8651 15 37.1737V40.7622H17.6914V37.1737C17.6914 35.9357 18.6962 34.9309 19.9342 34.9309H27.1112C28.3493 34.9309 29.3541 35.9357 29.3541 37.1737V40.7622H32.0455ZM25.317 25.511C25.317 25.9869 25.1279 26.4433 24.7915 26.7798C24.455 27.1163 23.9986 27.3053 23.5227 27.3053C23.0469 27.3053 22.5905 27.1163 22.254 26.7798C21.9175 26.4433 21.7285 25.9869 21.7285 25.511C21.7285 25.0352 21.9175 24.5788 22.254 24.2423C22.5905 23.9058 23.0469 23.7168 23.5227 23.7168C23.9986 23.7168 24.455 23.9058 24.7915 24.2423C25.1279 24.5788 25.317 25.0352 25.317 25.511ZM28.0084 25.511C28.0084 26.7007 27.5358 27.8416 26.6946 28.6829C25.8533 29.5241 24.7124 29.9967 23.5227 29.9967C22.3331 29.9967 21.1921 29.5241 20.3509 28.6829C19.5097 27.8416 19.0371 26.7007 19.0371 25.511C19.0371 24.3214 19.5097 23.1804 20.3509 22.3392C21.1921 21.498 22.3331 21.0254 23.5227 21.0254C24.7124 21.0254 25.8533 21.498 26.6946 22.3392C27.5358 23.1804 28.0084 24.3214 28.0084 25.511Z" fill="#006088"/>
<path fill-rule="evenodd" clip-rule="evenodd" d="M36.0823 29.9947C37.272 29.9947 38.4129 29.5221 39.2542 28.6809C40.0954 27.8397 40.568 26.6988 40.568 25.5091C40.568 24.3194 40.0954 23.1785 39.2542 22.3373C38.4129 21.496 37.272 21.0234 36.0823 21.0234C34.8927 21.0234 33.7517 21.496 32.9105 22.3373C32.0693 23.1785 31.5967 24.3194 31.5967 25.5091C31.5967 26.6988 32.0693 27.8397 32.9105 28.6809C33.7517 29.5221 34.8927 29.9947 36.0823 29.9947ZM44.6051 37.1718V40.7603H41.9137V37.1718C41.9137 35.9337 40.9089 34.9289 39.6708 34.9289H35.1852V32.2376H39.6708C40.9795 32.2376 42.2345 32.7574 43.1599 33.6827C44.0852 34.6081 44.6051 35.8631 44.6051 37.1718ZM36.0824 27.3042C36.5583 27.3042 37.0146 27.1151 37.3511 26.7787C37.6876 26.4422 37.8767 25.9858 37.8767 25.5099C37.8767 25.0341 37.6876 24.5777 37.3511 24.2412C37.0146 23.9047 36.5583 23.7157 36.0824 23.7157C35.6065 23.7157 35.1502 23.9047 34.8137 24.2412C34.4772 24.5777 34.2881 25.0341 34.2881 25.5099C34.2881 25.9858 34.4772 26.4422 34.8137 26.7787C35.1502 27.1151 35.6065 27.3042 36.0824 27.3042Z" fill="#6ab3d0"/>
</svg>