<svg width="60" height="61" viewBox="0 0 60 61" fill="none" xmlns="http://www.w3.org/2000/svg">
<rect y="0.5" width="60" height="60" rx="30" fill="#e6f1f5"/>
<path d="M34.95 26.9032H33.6056V24.5023C33.6056 22.358 32.4615 20.3765 30.6043 19.3041C28.7474 18.232 26.4593 18.232 24.6025 19.3041C22.7454 20.3763 21.6013 22.3577 21.6013 24.5023V26.9032H20.2569C19.6584 26.9032 19.0842 27.141 18.661 27.5642C18.2378 27.9875 18 28.5616 18 29.1601V40.2521V40.2519C18 40.8506 18.2377 41.4245 18.661 41.8478C19.0842 42.271 19.6584 42.5088 20.2569 42.5088H34.9501C35.5486 42.5088 36.1228 42.271 36.546 41.8478C36.9692 41.4245 37.207 40.8506 37.207 40.2519V29.1599C37.207 28.5614 36.9693 27.9873 36.546 27.564C36.1228 27.1408 35.5486 26.903 34.9501 26.903L34.95 26.9032ZM24.0021 24.5023C24.0021 23.2157 24.6886 22.0268 25.8028 21.3835C26.9169 20.7403 28.2899 20.7403 29.404 21.3835C30.5182 22.0268 31.2047 23.2157 31.2047 24.5023V26.9032H24.0021V24.5023ZM34.806 40.1077L20.4008 40.1079V29.3041H34.806V40.1077Z" fill="#006088"/>
<path d="M27.6036 31.7051C26.9669 31.7051 26.3562 31.9581 25.9058 32.4083C25.4557 32.8586 25.2026 33.4693 25.2026 34.106C25.2079 34.9585 25.6649 35.7445 26.4032 36.1707V37.7073C26.4032 38.1361 26.6319 38.5324 27.0033 38.7469C27.3747 38.9613 27.8325 38.9613 28.2038 38.7469C28.5752 38.5324 28.8039 38.1362 28.8039 37.7073V36.1707C29.5423 35.7445 29.9992 34.9585 30.0045 34.106C30.0045 33.4693 29.7515 32.8586 29.3013 32.4083C28.851 31.9581 28.2402 31.7051 27.6036 31.7051Z" fill="#006088"/>
<circle cx="37.865" cy="41.365" r="7.865" fill="#e6f1f5"/>
<path d="M33.6299 40.7734L36.9956 43.6583L42.2846 38.1289" stroke="#6ab3d0" stroke-width="2.4041"/>
</svg>