<svg width="61" height="61" viewBox="0 0 61 61" fill="none" xmlns="http://www.w3.org/2000/svg">
<rect x="0.75" y="0.5" width="60" height="60" rx="30" fill="#e6f1f5"/>
<path d="M34.5596 30.4834C34.5596 28.3709 32.8469 26.6582 30.7344 26.6582C28.6219 26.6582 26.9092 28.3709 26.9092 30.4834C26.9092 32.5959 28.6219 34.3086 30.7344 34.3086C32.8469 34.3086 34.5596 32.5959 34.5596 30.4834Z" fill="#6ab3d0"/>
<path d="M45.75 31.6538H42.8417C42.3043 37.4389 37.6888 42.0543 31.9038 42.5917V45.5H29.5962V42.5917C23.8111 42.0543 19.1957 37.4388 18.6583 31.6538H15.75V29.3462H18.6583C19.1957 23.5611 23.8112 18.9457 29.5962 18.4083V15.5H31.9038V18.4083C37.6889 18.9457 42.3043 23.5612 42.8417 29.3462H45.75V31.6538ZM31.9038 20.7159V23.5294H29.5962V20.7159C25.1072 21.2533 21.5034 24.8256 20.966 29.3461H23.7795V31.6537H20.966C21.5034 36.1427 25.0757 39.7465 29.5962 40.2839V37.4704H31.9038V40.2839C36.3928 39.7465 39.9966 36.1743 40.534 31.6537H37.7205V29.3461H40.534C39.9651 24.8257 36.3928 21.2533 31.9038 20.7159Z" fill="#006088"/>
</svg>