<svg width="61" height="61" viewBox="0 0 61 61" fill="none" xmlns="http://www.w3.org/2000/svg">
<rect x="0.5" y="0.5" width="60" height="60" rx="30" fill="#e6f1f5"/>
<path d="M26.8211 29.3265L33.0231 39.7571C33.1358 39.9262 33.3051 40.0391 33.5023 40.0391C33.6998 40.0391 33.897 39.9264 33.9815 39.7571L40.1835 29.3265C40.2681 29.1574 40.2962 28.9883 40.2116 28.8192L37.449 22.5608L38.4074 22.5608C39.1967 22.5608 39.8169 21.9406 39.8169 21.1513L39.8169 17.9095C39.8169 17.1201 39.1967 16.4999 38.4074 16.4999L28.5407 16.4999C27.7513 16.4999 27.1311 17.1201 27.1311 17.9095L27.1313 21.123C27.1313 21.9124 27.7515 22.5325 28.5409 22.5325L29.4993 22.5325L26.7366 28.7909C26.7083 28.96 26.7366 29.1574 26.8212 29.3266L26.8211 29.3265ZM33.5023 31.3844C32.7411 31.3844 32.1209 30.7642 32.1209 30.003C32.1209 29.2418 32.7411 28.6216 33.5023 28.6216C34.2635 28.6216 34.8837 29.2418 34.8837 30.003C34.8837 30.7642 34.2635 31.3844 33.5023 31.3844ZM28.2871 21.123L28.2871 17.8811C28.2871 17.712 28.3997 17.5991 28.569 17.5991L38.4358 17.5991C38.6049 17.5991 38.7178 17.7118 38.7178 17.8811L38.7178 21.123C38.7178 21.2921 38.6051 21.4049 38.4358 21.4049L28.569 21.4049C28.3999 21.4049 28.2871 21.2921 28.2871 21.123ZM30.7679 22.5325L36.2369 22.5325L39.0841 28.9882L34.0662 37.4172L34.0662 32.4557C35.1656 32.202 36.0114 31.2152 36.0114 30.0313C36.0114 28.6499 34.8838 27.5223 33.5024 27.5223C32.121 27.5223 30.9934 28.6498 30.9934 30.0313C30.9934 31.2153 31.8109 32.202 32.9386 32.4557L32.9386 37.4172L27.9207 28.9882L30.7679 22.5325Z" fill="#006088" stroke="#006088" stroke-width="0.541936"/>
<rect x="19.5" y="42.6914" width="14.4516" height="2.25806" rx="1.12903" fill="#6ab3d0"/>
<rect x="23.1128" y="39.0801" width="7.22581" height="2.25806" rx="1.12903" fill="#6ab3d0"/>
</svg>