<svg width="61" height="61" viewBox="0 0 61 61" fill="none" xmlns="http://www.w3.org/2000/svg">
<rect x="0.25" y="0.5" width="60" height="60" rx="30" fill="#e6f1f5"/>
<path d="M19.8526 29.1059H26.2533C27.6953 29.1059 28.8559 27.9453 28.8559 26.5033V20.1026C28.8559 18.6606 27.6953 17.5 26.2533 17.5L19.8526 17.5002C18.4106 17.5002 17.25 18.6608 17.25 20.1028V26.5036C17.2502 27.9453 18.4108 29.106 19.8526 29.106V29.1059ZM18.6569 20.1026C18.6569 19.4344 19.1843 18.907 19.8526 18.907H26.2533C26.9216 18.907 27.449 19.4344 27.449 20.1026V26.5034C27.449 27.1717 26.9216 27.6991 26.2533 27.6991H19.8526C19.1843 27.6991 18.6569 27.1717 18.6569 26.5034V20.1026Z" fill="#006088" stroke="#006088" stroke-width="0.5"/>
<path d="M40.6723 17.5004H34.2715C32.8295 17.5004 31.6689 18.661 31.6689 20.103V26.5038C31.6689 27.9458 32.8295 29.1064 34.2715 29.1064H40.6723C42.1143 29.1064 43.2749 27.9458 43.2749 26.5038L43.2746 20.1024C43.2746 18.6606 42.114 17.5 40.6722 17.5L40.6723 17.5004ZM41.868 26.5037C41.868 27.172 41.3405 27.6994 40.6723 27.6994H34.2715C33.6032 27.6994 33.0758 27.172 33.0758 26.5037V20.103C33.0758 19.4347 33.6033 18.9073 34.2715 18.9073H40.6723C41.3406 18.9073 41.868 19.4347 41.868 20.103V26.5037Z" fill="#006088" stroke="#006088" stroke-width="0.5"/>
<path d="M19.8526 43.5278H26.2533C27.6953 43.5278 28.8559 42.3672 28.8559 40.9252V34.5244C28.8559 33.0825 27.6953 31.9219 26.2533 31.9219H19.8526C18.4106 31.9219 17.25 33.0825 17.25 34.5244V40.9252C17.2502 42.367 18.4108 43.5276 19.8526 43.5276V43.5278ZM18.6569 34.5245C18.6569 33.8562 19.1843 33.3288 19.8526 33.3288H26.2533C26.9216 33.3288 27.449 33.8563 27.449 34.5245V40.9253C27.449 41.5936 26.9216 42.121 26.2533 42.121H19.8526C19.1843 42.121 18.6569 41.5935 18.6569 40.9253V34.5245Z" fill="#006088" stroke="#006088" stroke-width="0.5"/>
<circle cx="37.2505" cy="37.5" r="6" fill="#6ab3d0"/>
</svg>