<svg id="Layer_1" data-name="Layer 1" xmlns="http://www.w3.org/2000/svg" viewBox="0 0 272.58 220.66"><defs><style>.cls-1{fill:#e1e2e2;}.cls-2{fill:#7093ac;}.cls-3{fill:#fff;}.cls-4{fill:#bbc9d5;}.cls-5{fill:#224b68;}.cls-6{fill:#ccced0;}.cls-7{fill:#004f84;}.cls-8{fill:#95adc1;}.cls-9{fill:#016087;}.cls-10{fill:#f6f6f6;}</style></defs><title>g-suite-stats-banner-illustration</title><rect class="cls-1" x="120.95" y="95.62" width="23.79" height="69.25"/><path class="cls-2" d="M239.19,79.29a41.54,41.54,0,0,0-41.42-41.42H111A41.54,41.54,0,0,0,69.62,79.29v29.34h58.64V177h15.52V108.63h95.41V79.29Z" transform="translate(-15.6 -12.08)"/><path class="cls-3" d="M33.38,231.56c2.83-1,250.66,0,250.66,0s15.91-52.16-26.34-63.13c-12.66-3.29-20-2-23.74-.45a2.38,2.38,0,0,1-3.36-1.79c-0.9-10.42-6.86-39.14-45-39.14-42,0-60.39,39.49-60.39,39.49s-9.37-13.64-25.94-15c-49-3.93-61,50.24-61,50.24" transform="translate(-15.6 -12.08)"/><path class="cls-4" d="M33.28,231.07c1.45-.18,2.67-0.15,4-0.21l3.92-.09,7.84-.13,15.67-.17L96,230.3l31.33-.12h31.33L284,230.38l-1.13.84a80.78,80.78,0,0,0,2.61-15,67.26,67.26,0,0,0-.41-15.2,42.74,42.74,0,0,0-4.6-14.28,32.41,32.41,0,0,0-9.83-11.08A40.43,40.43,0,0,0,257,169.59a54.15,54.15,0,0,0-15-1.9,23.06,23.06,0,0,0-7.19,1.3l-0.48.19a4.25,4.25,0,0,1-.59.18,3.88,3.88,0,0,1-1.47,0,3.68,3.68,0,0,1-2.44-1.55,3.23,3.23,0,0,1-.53-1.46l-0.1-1c-0.07-.63-0.14-1.24-0.23-1.87a46.62,46.62,0,0,0-4.41-14.38,36.41,36.41,0,0,0-9.22-11.71,34.69,34.69,0,0,0-6.25-4.13,38.2,38.2,0,0,0-7-2.84,55,55,0,0,0-15-2.26A63.44,63.44,0,0,0,172,129.63a58.48,58.48,0,0,0-14.3,5.14,65.56,65.56,0,0,0-12.68,8.45,72.29,72.29,0,0,0-10.61,11A76,76,0,0,0,126.2,167a1.14,1.14,0,0,1-1.53.51,1.18,1.18,0,0,1-.42-0.35A38.65,38.65,0,0,0,119.5,162a39.14,39.14,0,0,0-5.64-4.35,33,33,0,0,0-13.23-4.92c-0.59-.06-1.18-0.14-1.76-0.18L97,152.39c-1.2,0-2.39-.1-3.59-0.08a55.2,55.2,0,0,0-7.19.51,48.32,48.32,0,0,0-13.78,4,50.58,50.58,0,0,0-12,7.93,62.47,62.47,0,0,0-9.63,10.81,80.2,80.2,0,0,0-7.28,12.59q-1.54,3.3-2.8,6.73a68.5,68.5,0,0,0-2.18,6.95h0a0.33,0.33,0,0,1-.65-0.16A69.1,69.1,0,0,1,40,194.67q1.21-3.48,2.7-6.85a81.27,81.27,0,0,1,7.14-12.9,63.73,63.73,0,0,1,9.69-11.16,52.07,52.07,0,0,1,12.27-8.31A50,50,0,0,1,86,151.08a57,57,0,0,1,7.42-.62c1.24,0,2.49,0,3.74,0L99,150.6c0.64,0,1.26.11,1.89,0.17a35,35,0,0,1,14.12,5,41.33,41.33,0,0,1,6,4.51,35.56,35.56,0,0,1,5.1,5.61l-1.94.16a75.18,75.18,0,0,1,8.63-13.17q2.46-3.06,5.21-5.87a73.22,73.22,0,0,1,5.72-5.38,67.63,67.63,0,0,1,13-8.77,60.63,60.63,0,0,1,14.79-5.39A65.7,65.7,0,0,1,187.22,126a57.3,57.3,0,0,1,15.6,2.29,40.1,40.1,0,0,1,14.07,7.34A38.83,38.83,0,0,1,226.78,148a49.1,49.1,0,0,1,4.72,15.13c0.1,0.65.18,1.32,0.25,2l0.1,0.94a0.7,0.7,0,0,0,.13.34,1.15,1.15,0,0,0,.75.45,1.42,1.42,0,0,0,.46,0,1.58,1.58,0,0,0,.33-0.1l0.42-.16a25.29,25.29,0,0,1,8-1.5,55.48,55.48,0,0,1,15.69,2,43,43,0,0,1,14.51,6.5,34.93,34.93,0,0,1,10.55,12,45.2,45.2,0,0,1,4.83,15.11,69.66,69.66,0,0,1,.39,15.75,82.92,82.92,0,0,1-2.74,15.5,1.15,1.15,0,0,1-1.11.84h0l-125.33-.52L96,232l-31.33-.09-15.66,0-7.83,0-3.91,0c-1.27,0-2.68,0-3.82.13H33.39A0.5,0.5,0,0,1,33.28,231.07Z" transform="translate(-15.6 -12.08)"/><path class="cls-5" d="M204.36,37.86h-1.73a41.54,41.54,0,0,0-41.42,41.42v29.34h84.57V79.29A41.54,41.54,0,0,0,204.36,37.86Z" transform="translate(-15.6 -12.08)"/><polygon class="cls-3" points="251.26 87.05 172.91 87.05 172.91 40.76 172.91 39.79 251.26 39.79 251.26 87.05"/><path class="cls-6" d="M266.86,100c-6.53.27-13.06,0.46-19.59,0.44l-19.59,0-39.18.07a1.4,1.4,0,0,1-1.4-1.4h0l0-47.26a1.43,1.43,0,0,1,1.42-1.43h0l78.35,0.14h0a1.28,1.28,0,0,1,1.27,1.28h0L268,63.69c0,3.94,0,7.88-.14,11.82l-0.23,11.82c-0.13,3.94-.21,7.88-0.37,11.82l0,0.45A0.43,0.43,0,0,1,266.86,100Zm-0.46-1.74c-0.14-3.65-.23-7.3-0.35-10.94L265.82,75.5c-0.1-3.94-.1-7.88-0.14-11.82l-0.1-11.82,1.29,1.29-78.35.14,1.43-1.43,0,47.26-1.4-1.4,39.18,0.07,19.59,0C253.65,97.82,260,98,266.4,98.26Z" transform="translate(-15.6 -12.08)"/><polyline class="cls-3" points="172.91 40.76 211.91 66.45 249.34 41.39"/><path class="cls-6" d="M188.58,52.73l2.62,1.32,2.58,1.39,5.15,2.79L204,61.14c1.69,1,3.35,2,5,3,3.36,2,6.63,4.08,10,6.12l4.91,3.16c1.63,1.06,3.28,2.1,4.89,3.18h-2.57l4.71-3.09c1.57-1,3.13-2.08,4.72-3.07l4.76-3c1.58-1,3.19-2,4.8-3s3.2-2,4.83-2.9,3.24-1.91,4.88-2.83L259.87,56c1.64-.93,3.31-1.81,5-2.66h0a0.13,0.13,0,0,1,.13.22L227.65,78.74a0.26,0.26,0,0,1-.28,0l-38.93-25.8a0.13,0.13,0,0,1,.13-0.22h0Z" transform="translate(-15.6 -12.08)"/><path class="cls-6" d="M214.5,68.33a8.84,8.84,0,0,1-.71,1.22c-0.51.73-1.31,1.71-2.24,2.92l-3.19,4.12c-1.17,1.5-2.4,3.12-3.67,4.7-2.54,3.17-5,6.37-7,8.73-1,1.17-1.85,2.1-2.45,2.75s-1,1-1,1a0.22,0.22,0,0,1-.34-0.27s0.25-.45.73-1.2,1.18-1.81,2.09-3c1.83-2.43,4.34-5.63,6.82-8.85,1.23-1.61,2.51-3.19,3.69-4.69l3.24-4.07c1-1.19,1.72-2.2,2.31-2.87a8.84,8.84,0,0,1,1-1A0.45,0.45,0,0,1,214.5,68.33Z" transform="translate(-15.6 -12.08)"/><path class="cls-6" d="M242.66,68.12a9,9,0,0,1,1,1c0.59,0.67,1.37,1.68,2.34,2.87L249.32,76c1.2,1.49,2.5,3.07,3.75,4.69,2.52,3.22,5.07,6.41,6.93,8.85,0.92,1.23,1.63,2.29,2.13,3s0.74,1.21.74,1.21a0.22,0.22,0,0,1-.34.27s-0.38-.35-1-1S260,91.52,259,90.35c-2-2.36-4.51-5.56-7.08-8.73-1.29-1.58-2.55-3.2-3.73-4.7L245,72.8c-0.94-1.21-1.75-2.2-2.27-2.92a9,9,0,0,1-.73-1.22A0.44,0.44,0,0,1,242.66,68.12Z" transform="translate(-15.6 -12.08)"/><path class="cls-4" d="M15.6,64.21V33.81a6.53,6.53,0,0,1,6.53-6.53h36.7V64.21H15.6Z" transform="translate(-15.6 -12.08)"/><polygon class="cls-7" points="17.73 27.78 28.65 34.62 17.73 41.99 17.73 27.78"/><path class="cls-8" d="M24.24,156.88l-0.19-19.34L24,127.88v-1.21a8.44,8.44,0,0,1,.09-1.35,7.61,7.61,0,0,1,.94-2.69,7.72,7.72,0,0,1,4.33-3.49,8.62,8.62,0,0,1,1.39-.3,12.39,12.39,0,0,1,1.34-.06h2.42l4.83,0,9.67,0,19.34,0A1.28,1.28,0,0,1,69.61,120h0l0,36.92h0a1.23,1.23,0,0,1-1.23,1.22h0L46.72,158l-21.61-.24A0.87,0.87,0,0,1,24.24,156.88ZM26,156l20.74-.23,21.61-.13-1.23,1.23,0-36.92,1.28,1.28L49,121.2l-9.67,0-4.83,0H32.08a10.06,10.06,0,0,0-1.07,0,6.33,6.33,0,0,0-1,.2,5.39,5.39,0,0,0-3.72,4.25,15.38,15.38,0,0,0-.09,2.26l-0.06,9.67Z" transform="translate(-15.6 -12.08)"/><path class="cls-6" d="M58.42,174.45v-30.4a6.53,6.53,0,0,1,6.53-6.53h36.7v36.92H58.42Z" transform="translate(-15.6 -12.08)"/><path class="cls-5" d="M53.6,136H78.72a0,0,0,0,1,0,0v5.83a0,0,0,0,1,0,0H50.14a0,0,0,0,1,0,0v-2.38A3.46,3.46,0,0,1,53.6,136Z"/><path class="cls-6" d="M21.21,127.42h6.17a0,0,0,0,1,0,0v8.68a0,0,0,0,1,0,0H18a0,0,0,0,1,0,0v-5.5A3.18,3.18,0,0,1,21.21,127.42Z"/><path class="cls-9" d="M40.86,132.09a2.49,2.49,0,0,1,.5-0.45,3,3,0,0,1,1.33-.51c1.1-.09,2.56-0.25,4-0.25s2.93,0.15,4,.25a3,3,0,0,1,1.33.51,2.49,2.49,0,0,1,.5.45v0.65a2.49,2.49,0,0,1-.5.45,3,3,0,0,1-1.33.51c-1.1.09-2.56,0.25-4,.25s-2.93-.15-4-0.25a3,3,0,0,1-1.33-.51,2.49,2.49,0,0,1-.5-0.45v-0.65Z" transform="translate(-15.6 -12.08)"/><path class="cls-6" d="M209.7,175.23v-30.4a6.53,6.53,0,0,1,6.53-6.53h36.7v36.92H209.7Z" transform="translate(-15.6 -12.08)"/><path class="cls-10" d="M246.35,152.23a13.54,13.54,0,0,1-13.81,7,14,14,0,0,0-14.71,8.92h29.42V152.46A0.48,0.48,0,0,0,246.35,152.23Z" transform="translate(-15.6 -12.08)"/><path class="cls-2" d="M251.24,134.67a3.79,3.79,0,0,0-3.79,3.79v6.38h11V134.67h-7.16Z" transform="translate(-15.6 -12.08)"/><path class="cls-1" d="M119.85,12.08H105.64V93h8.74V30l5.78-2.45a6.36,6.36,0,0,0,3.58-5.4V16A3.89,3.89,0,0,0,119.85,12.08Z" transform="translate(-15.6 -12.08)"/></svg>