<svg width="320" height="264" viewBox="0 0 320 264" fill="none" xmlns="http://www.w3.org/2000/svg">
<rect width="320" height="264" rx="8" fill="white"/>
<path d="M20.3101 29.2285C19.5991 29.2285 18.9813 29.1185 18.4565 28.8984C17.936 28.6784 17.5256 28.3716 17.2251 27.978C16.9246 27.5845 16.7554 27.1253 16.7173 26.6006L16.7109 26.5117H18.2979L18.3042 26.5752C18.3296 26.8333 18.4312 27.0576 18.6089 27.248C18.7909 27.4385 19.0321 27.5887 19.3325 27.6987C19.633 27.8045 19.9757 27.8574 20.3608 27.8574C20.729 27.8574 21.0549 27.8003 21.3384 27.686C21.6219 27.5718 21.8441 27.4152 22.0049 27.2163C22.1657 27.0132 22.2461 26.7804 22.2461 26.5181V26.5117C22.2461 26.1816 22.117 25.9129 21.8589 25.7056C21.6007 25.494 21.1755 25.3247 20.583 25.1978L19.5991 24.9946C18.6597 24.7957 17.9762 24.4784 17.5488 24.0425C17.1257 23.6024 16.9141 23.0417 16.9141 22.3604V22.354C16.9141 21.8081 17.0579 21.3299 17.3457 20.9194C17.6377 20.509 18.0376 20.1895 18.5454 19.9609C19.0575 19.7282 19.6436 19.6118 20.3037 19.6118C20.9808 19.6118 21.5669 19.7261 22.062 19.9546C22.5571 20.1789 22.9465 20.4857 23.23 20.875C23.5135 21.2643 23.6722 21.7044 23.7061 22.1953L23.7124 22.2778H22.1509L22.1382 22.2017C22.1001 21.9604 22.0007 21.751 21.8398 21.5732C21.6833 21.3913 21.4738 21.2474 21.2114 21.1416C20.9491 21.0358 20.6423 20.9829 20.291 20.9829C19.9567 20.9829 19.6584 21.0358 19.396 21.1416C19.1336 21.2432 18.9263 21.387 18.7739 21.5732C18.6258 21.7594 18.5518 21.9837 18.5518 22.2461V22.2524C18.5518 22.5741 18.6766 22.8407 18.9263 23.0522C19.1802 23.2638 19.5928 23.4289 20.1641 23.5474L21.1479 23.7568C21.7912 23.8923 22.3138 24.0721 22.7158 24.2964C23.1178 24.5207 23.4119 24.8 23.5981 25.1343C23.7886 25.4644 23.8838 25.8621 23.8838 26.3276V26.334C23.8838 26.9264 23.7378 27.4385 23.4458 27.8701C23.158 28.3018 22.7454 28.6361 22.208 28.873C21.6748 29.11 21.0422 29.2285 20.3101 29.2285ZM25.623 29V19.377H27.2036V23.1284H27.3115C27.4766 22.7518 27.7262 22.4577 28.0605 22.2461C28.3949 22.0345 28.8117 21.9287 29.311 21.9287C29.8273 21.9287 30.2632 22.0303 30.6187 22.2334C30.9741 22.4323 31.2428 22.7243 31.4248 23.1094C31.611 23.4945 31.7041 23.9621 31.7041 24.5122V29H30.1235V24.8804C30.1235 24.3387 30.0093 23.9325 29.7808 23.6616C29.5565 23.3908 29.2052 23.2554 28.7271 23.2554C28.4139 23.2554 28.1431 23.3252 27.9146 23.4648C27.686 23.6045 27.5104 23.8013 27.3877 24.0552C27.265 24.3091 27.2036 24.6095 27.2036 24.9565V29H25.623ZM33.5894 29V22.062H35.1636V29H33.5894ZM34.3828 20.9004C34.1247 20.9004 33.9025 20.8094 33.7163 20.6274C33.5301 20.4455 33.437 20.2275 33.437 19.9736C33.437 19.7113 33.5301 19.4912 33.7163 19.3135C33.9025 19.1315 34.1247 19.0405 34.3828 19.0405C34.641 19.0405 34.861 19.1315 35.043 19.3135C35.2292 19.4912 35.3223 19.7113 35.3223 19.9736C35.3223 20.2275 35.2292 20.4455 35.043 20.6274C34.861 20.8094 34.641 20.9004 34.3828 20.9004ZM37.1123 31.3042V22.062H38.6929V23.1475H38.8008C38.9277 22.8978 39.0928 22.6841 39.2959 22.5063C39.5033 22.3286 39.7424 22.1911 40.0132 22.0938C40.284 21.9964 40.5824 21.9478 40.9082 21.9478C41.488 21.9478 41.9894 22.0938 42.4126 22.3857C42.84 22.6777 43.1701 23.0924 43.4028 23.6299C43.6398 24.1631 43.7583 24.7957 43.7583 25.5278V25.5405C43.7583 26.2769 43.6419 26.9116 43.4092 27.4448C43.1764 27.978 42.8464 28.3906 42.4189 28.6826C41.9958 28.9704 41.4922 29.1143 40.9082 29.1143C40.5908 29.1143 40.2946 29.0656 40.0195 28.9683C39.7445 28.8667 39.5033 28.7249 39.2959 28.543C39.0885 28.361 38.9235 28.1452 38.8008 27.8955H38.6929V31.3042H37.1123ZM40.4131 27.7812C40.7728 27.7812 41.0817 27.6924 41.3398 27.5146C41.598 27.3327 41.7969 27.0745 41.9365 26.7402C42.0762 26.4017 42.146 26.0018 42.146 25.5405V25.5278C42.146 25.0581 42.0762 24.6561 41.9365 24.3218C41.7969 23.9875 41.598 23.7314 41.3398 23.5537C41.0817 23.3717 40.7728 23.2808 40.4131 23.2808C40.0534 23.2808 39.7424 23.3717 39.48 23.5537C39.2218 23.7314 39.0208 23.9875 38.877 24.3218C38.7373 24.6561 38.6675 25.056 38.6675 25.5215V25.5342C38.6675 25.9997 38.7373 26.4017 38.877 26.7402C39.0208 27.0745 39.224 27.3327 39.4863 27.5146C39.7487 27.6924 40.0576 27.7812 40.4131 27.7812ZM45.3516 31.3042V22.062H46.9321V23.1475H47.04C47.167 22.8978 47.332 22.6841 47.5352 22.5063C47.7425 22.3286 47.9816 22.1911 48.2524 22.0938C48.5233 21.9964 48.8216 21.9478 49.1475 21.9478C49.7272 21.9478 50.2287 22.0938 50.6519 22.3857C51.0793 22.6777 51.4093 23.0924 51.6421 23.6299C51.8791 24.1631 51.9976 24.7957 51.9976 25.5278V25.5405C51.9976 26.2769 51.8812 26.9116 51.6484 27.4448C51.4157 27.978 51.0856 28.3906 50.6582 28.6826C50.235 28.9704 49.7314 29.1143 49.1475 29.1143C48.8301 29.1143 48.5339 29.0656 48.2588 28.9683C47.9837 28.8667 47.7425 28.7249 47.5352 28.543C47.3278 28.361 47.1628 28.1452 47.04 27.8955H46.9321V31.3042H45.3516ZM48.6523 27.7812C49.012 27.7812 49.321 27.6924 49.5791 27.5146C49.8372 27.3327 50.0361 27.0745 50.1758 26.7402C50.3154 26.4017 50.3853 26.0018 50.3853 25.5405V25.5278C50.3853 25.0581 50.3154 24.6561 50.1758 24.3218C50.0361 23.9875 49.8372 23.7314 49.5791 23.5537C49.321 23.3717 49.012 23.2808 48.6523 23.2808C48.2926 23.2808 47.9816 23.3717 47.7192 23.5537C47.4611 23.7314 47.2601 23.9875 47.1162 24.3218C46.9766 24.6561 46.9067 25.056 46.9067 25.5215V25.5342C46.9067 25.9997 46.9766 26.4017 47.1162 26.7402C47.2601 27.0745 47.4632 27.3327 47.7256 27.5146C47.988 27.6924 48.2969 27.7812 48.6523 27.7812ZM53.6099 29V22.062H55.1841V29H53.6099ZM54.4033 20.9004C54.1452 20.9004 53.923 20.8094 53.7368 20.6274C53.5506 20.4455 53.4575 20.2275 53.4575 19.9736C53.4575 19.7113 53.5506 19.4912 53.7368 19.3135C53.923 19.1315 54.1452 19.0405 54.4033 19.0405C54.6615 19.0405 54.8815 19.1315 55.0635 19.3135C55.2497 19.4912 55.3428 19.7113 55.3428 19.9736C55.3428 20.2275 55.2497 20.4455 55.0635 20.6274C54.8815 20.8094 54.6615 20.9004 54.4033 20.9004ZM57.1328 29V22.062H58.7134V23.1284H58.8213C58.9863 22.7518 59.236 22.4577 59.5703 22.2461C59.9046 22.0345 60.3215 21.9287 60.8208 21.9287C61.5952 21.9287 62.1877 22.153 62.5981 22.6016C63.0086 23.0501 63.2139 23.687 63.2139 24.5122V29H61.6333V24.8804C61.6333 24.3387 61.519 23.9325 61.2905 23.6616C61.0662 23.3908 60.715 23.2554 60.2368 23.2554C59.9237 23.2554 59.6528 23.3252 59.4243 23.4648C59.1958 23.6045 59.0202 23.8013 58.8975 24.0552C58.7747 24.3091 58.7134 24.6095 58.7134 24.9565V29H57.1328ZM68.0635 31.4375C67.4541 31.4375 66.9272 31.3571 66.4829 31.1963C66.0428 31.0355 65.6958 30.807 65.4419 30.5107C65.188 30.2188 65.0335 29.8781 64.9785 29.4888L64.9849 29.4697H66.5591L66.5718 29.4888C66.6226 29.7088 66.777 29.8887 67.0352 30.0283C67.2975 30.1722 67.6488 30.2441 68.0889 30.2441C68.6305 30.2441 69.0495 30.1235 69.3457 29.8823C69.6462 29.6411 69.7964 29.2983 69.7964 28.854V27.521H69.6885C69.5573 27.7707 69.3859 27.9823 69.1743 28.1558C68.967 28.3293 68.7279 28.4604 68.457 28.5493C68.1904 28.634 67.8963 28.6763 67.5747 28.6763C66.9907 28.6763 66.485 28.5366 66.0576 28.2573C65.6302 27.9738 65.3001 27.5824 65.0674 27.083C64.8389 26.5837 64.7246 26.006 64.7246 25.3501V25.3374C64.7246 24.6688 64.841 24.0806 65.0737 23.5728C65.3065 23.0649 65.6366 22.6672 66.064 22.3794C66.4956 22.0916 67.0098 21.9478 67.6064 21.9478C67.9281 21.9478 68.2222 21.9985 68.4888 22.1001C68.7596 22.2017 68.9966 22.3455 69.1997 22.5317C69.4071 22.7179 69.5763 22.9422 69.7075 23.2046H69.79V22.062H71.3706V28.8286C71.3706 29.3618 71.2352 29.8231 70.9644 30.2124C70.6978 30.606 70.3169 30.9085 69.8218 31.1201C69.3267 31.3317 68.7406 31.4375 68.0635 31.4375ZM68.0635 27.4194C68.4274 27.4194 68.7406 27.3327 69.0029 27.1592C69.2653 26.9814 69.4663 26.7381 69.606 26.4292C69.7498 26.1203 69.8218 25.7606 69.8218 25.3501V25.3374C69.8218 24.9269 69.7498 24.5672 69.606 24.2583C69.4663 23.9451 69.2653 23.7018 69.0029 23.5283C68.7406 23.3506 68.4274 23.2617 68.0635 23.2617C67.6953 23.2617 67.3822 23.3506 67.124 23.5283C66.8701 23.7018 66.6755 23.9451 66.54 24.2583C66.4089 24.5672 66.3433 24.9269 66.3433 25.3374V25.3501C66.3433 25.7563 66.4089 26.116 66.54 26.4292C66.6755 26.7381 66.8701 26.9814 67.124 27.1592C67.3822 27.3327 67.6953 27.4194 68.0635 27.4194ZM76.7725 29V22.062H78.353V23.1284H78.4609C78.5794 22.756 78.791 22.4661 79.0957 22.2588C79.4046 22.0514 79.7876 21.9478 80.2446 21.9478C80.3631 21.9478 80.4795 21.9562 80.5938 21.9731C80.7122 21.9858 80.8096 22.0028 80.8857 22.0239V23.4395C80.7588 23.4098 80.6297 23.3887 80.4985 23.376C80.3716 23.359 80.2383 23.3506 80.0986 23.3506C79.7474 23.3506 79.4406 23.4162 79.1782 23.5474C78.9159 23.6785 78.7127 23.8669 78.5688 24.1123C78.425 24.3535 78.353 24.6392 78.353 24.9692V29H76.7725ZM83.9834 29.1143C83.5475 29.1143 83.1561 29.0296 82.8091 28.8604C82.4663 28.6911 82.1955 28.452 81.9966 28.1431C81.8019 27.8299 81.7046 27.4618 81.7046 27.0386V27.0259C81.7046 26.6154 81.8062 26.262 82.0093 25.9658C82.2124 25.6654 82.5107 25.4305 82.9043 25.2612C83.2979 25.092 83.776 24.9925 84.3389 24.9629L86.9033 24.8042V25.8452L84.561 25.9976C84.1167 26.0229 83.7887 26.116 83.5771 26.2769C83.3656 26.4377 83.2598 26.6619 83.2598 26.9497V26.9624C83.2598 27.2586 83.3719 27.4893 83.5962 27.6543C83.8247 27.8193 84.1146 27.9019 84.4658 27.9019C84.7832 27.9019 85.0667 27.8384 85.3164 27.7114C85.5661 27.5845 85.7629 27.4131 85.9067 27.1973C86.0506 26.9772 86.1226 26.7297 86.1226 26.4546V24.2583C86.1226 23.9113 86.0125 23.6468 85.7925 23.4648C85.5724 23.2786 85.2466 23.1855 84.8149 23.1855C84.4552 23.1855 84.1611 23.249 83.9326 23.376C83.7041 23.4987 83.5496 23.6743 83.4692 23.9028L83.4629 23.9282H81.9712L81.9775 23.8711C82.0283 23.4818 82.1807 23.1411 82.4346 22.8491C82.6885 22.5571 83.0249 22.3307 83.4438 22.1699C83.8628 22.0091 84.3452 21.9287 84.8911 21.9287C85.492 21.9287 85.9998 22.0218 86.4146 22.208C86.8293 22.39 87.1445 22.6566 87.3604 23.0078C87.5762 23.3548 87.6841 23.7716 87.6841 24.2583V29H86.1226V28.0479H86.0146C85.8877 28.2679 85.7227 28.4583 85.5195 28.6191C85.3206 28.7799 85.0921 28.9027 84.834 28.9873C84.5758 29.0719 84.2923 29.1143 83.9834 29.1143ZM92.3115 29.0317C91.516 29.0317 90.9425 28.8857 90.5913 28.5938C90.2401 28.3018 90.0645 27.8236 90.0645 27.1592V23.2871H88.9854V22.062H90.0645V20.3608H91.6704V22.062H93.1304V23.2871H91.6704V26.7847C91.6704 27.1274 91.7424 27.3792 91.8862 27.54C92.0343 27.6966 92.2713 27.7749 92.5972 27.7749C92.7114 27.7749 92.8045 27.7728 92.8765 27.7686C92.9526 27.7601 93.0373 27.7516 93.1304 27.7432V28.9619C93.0203 28.9831 92.8934 29 92.7495 29.0127C92.6099 29.0254 92.4639 29.0317 92.3115 29.0317ZM97.6182 29.1396C96.9284 29.1396 96.3359 28.9937 95.8408 28.7017C95.3499 28.4097 94.9712 27.995 94.7046 27.4575C94.438 26.9201 94.3047 26.2832 94.3047 25.5469V25.5405C94.3047 24.8127 94.4359 24.1779 94.6982 23.6362C94.9648 23.0946 95.3415 22.6756 95.8281 22.3794C96.3148 22.0789 96.8861 21.9287 97.542 21.9287C98.2021 21.9287 98.7692 22.0747 99.2432 22.3667C99.7214 22.6545 100.09 23.0586 100.348 23.5791C100.606 24.0996 100.735 24.709 100.735 25.4072V25.9277H95.0981V24.8677H99.9604L99.2114 25.8579V25.2295C99.2114 24.7682 99.1416 24.3853 99.002 24.0806C98.8623 23.7759 98.6676 23.5474 98.418 23.395C98.1725 23.2427 97.8869 23.1665 97.561 23.1665C97.2352 23.1665 96.9453 23.2469 96.6914 23.4077C96.4417 23.5643 96.2428 23.797 96.0947 24.106C95.9508 24.4106 95.8789 24.7852 95.8789 25.2295V25.8643C95.8789 26.2917 95.9508 26.6577 96.0947 26.9624C96.2386 27.2629 96.4417 27.4956 96.7041 27.6606C96.9707 27.8215 97.286 27.9019 97.6499 27.9019C97.9334 27.9019 98.1768 27.8617 98.3799 27.7812C98.5872 27.6966 98.7544 27.5972 98.8813 27.4829C99.0083 27.3644 99.0972 27.2523 99.1479 27.1465L99.167 27.1021H100.665L100.652 27.1592C100.597 27.3835 100.496 27.612 100.348 27.8447C100.204 28.0732 100.007 28.2869 99.7573 28.4858C99.5119 28.6805 99.2114 28.8392 98.856 28.9619C98.5005 29.0804 98.0879 29.1396 97.6182 29.1396ZM104.937 29.1396C104.349 29.1396 103.841 29.0571 103.414 28.8921C102.99 28.7228 102.656 28.4901 102.411 28.1938C102.165 27.8934 102.019 27.5464 101.973 27.1528V27.1401H103.541L103.547 27.1528C103.632 27.394 103.79 27.5908 104.023 27.7432C104.256 27.8955 104.569 27.9717 104.962 27.9717C105.225 27.9717 105.455 27.9357 105.654 27.8638C105.853 27.7876 106.01 27.6839 106.124 27.5527C106.238 27.4215 106.295 27.2692 106.295 27.0957V27.083C106.295 26.8799 106.213 26.7106 106.048 26.5752C105.883 26.4355 105.61 26.3234 105.229 26.2388L104.105 25.9849C103.665 25.8875 103.301 25.7521 103.014 25.5786C102.726 25.4051 102.51 25.1914 102.366 24.9375C102.227 24.6836 102.157 24.3874 102.157 24.0488V24.0425C102.157 23.6235 102.273 23.2554 102.506 22.938C102.743 22.6206 103.071 22.373 103.49 22.1953C103.909 22.0176 104.391 21.9287 104.937 21.9287C105.5 21.9287 105.984 22.0133 106.391 22.1826C106.797 22.3519 107.114 22.5846 107.343 22.8809C107.571 23.1771 107.702 23.5135 107.736 23.8901V23.9028H106.251L106.245 23.8838C106.185 23.6637 106.044 23.4775 105.819 23.3252C105.599 23.1686 105.303 23.0903 104.931 23.0903C104.698 23.0903 104.488 23.1263 104.302 23.1982C104.12 23.2702 103.976 23.3717 103.871 23.5029C103.769 23.6299 103.718 23.7801 103.718 23.9536V23.96C103.718 24.0954 103.752 24.2139 103.82 24.3154C103.892 24.417 104.004 24.5059 104.156 24.582C104.309 24.6582 104.51 24.7259 104.759 24.7852L105.883 25.0327C106.564 25.1851 107.068 25.4115 107.394 25.7119C107.719 26.0124 107.882 26.4165 107.882 26.9243V26.937C107.882 27.3771 107.755 27.7622 107.501 28.0923C107.248 28.4224 106.898 28.6805 106.454 28.8667C106.01 29.0487 105.504 29.1396 104.937 29.1396Z" fill="#1D2327"/>
<path d="M30.4297 62.1992C29.7305 62.1992 29.1289 62.0684 28.625 61.8066C28.125 61.5449 27.7402 61.1816 27.4707 60.7168C27.2012 60.248 27.0664 59.707 27.0664 59.0938V53.5449H28.1211V59.0234C28.1211 59.457 28.2109 59.8398 28.3906 60.1719C28.5742 60.5 28.8379 60.7578 29.1816 60.9453C29.5254 61.1328 29.9414 61.2266 30.4297 61.2266C30.918 61.2266 31.332 61.1328 31.6719 60.9453C32.0156 60.7578 32.2773 60.5 32.457 60.1719C32.6367 59.8398 32.7266 59.457 32.7266 59.0234V53.5449H33.7812V59.0938C33.7812 59.707 33.6465 60.248 33.377 60.7168C33.1113 61.1816 32.7285 61.5449 32.2285 61.8066C31.7285 62.0684 31.1289 62.1992 30.4297 62.1992ZM35.7969 64.1094V55.6836H36.8164V56.6914H36.9102C37.0391 56.457 37.2012 56.2578 37.3965 56.0938C37.5918 55.9258 37.8145 55.7969 38.0645 55.707C38.3145 55.6172 38.5859 55.5723 38.8789 55.5723C39.4141 55.5723 39.8789 55.709 40.2734 55.9824C40.6719 56.252 40.9805 56.6309 41.1992 57.1191C41.418 57.6074 41.5273 58.1797 41.5273 58.8359V58.8477C41.5273 59.5078 41.418 60.082 41.1992 60.5703C40.9805 61.0586 40.6719 61.4375 40.2734 61.707C39.8789 61.9766 39.4141 62.1113 38.8789 62.1113C38.5898 62.1113 38.3164 62.0664 38.0586 61.9766C37.8047 61.8828 37.5781 61.7539 37.3789 61.5898C37.1836 61.4258 37.0273 61.2305 36.9102 61.0039H36.8164V64.1094H35.7969ZM38.6445 61.209C39.0312 61.209 39.3613 61.1152 39.6348 60.9277C39.9082 60.7363 40.1172 60.4648 40.2617 60.1133C40.4102 59.7578 40.4844 59.3359 40.4844 58.8477V58.8359C40.4844 58.3438 40.4102 57.9219 40.2617 57.5703C40.1172 57.2188 39.9082 56.9492 39.6348 56.7617C39.3613 56.5703 39.0312 56.4746 38.6445 56.4746C38.2617 56.4746 37.9316 56.5703 37.6543 56.7617C37.377 56.9531 37.1641 57.2246 37.0156 57.5762C36.8672 57.9277 36.793 58.3477 36.793 58.8359V58.8477C36.793 59.332 36.8672 59.752 37.0156 60.1074C37.1641 60.459 37.377 60.7305 37.6543 60.9219C37.9316 61.1133 38.2617 61.209 38.6445 61.209ZM48.7402 62.0469C48.0918 62.0469 47.6211 61.916 47.3281 61.6543C47.0391 61.3926 46.8945 60.9609 46.8945 60.3594V56.5273H45.8984V55.6836H46.8945V54.0488H47.9492V55.6836H49.332V56.5273H47.9492V60.1016C47.9492 60.4727 48.0195 60.7402 48.1602 60.9043C48.3008 61.0645 48.5352 61.1445 48.8633 61.1445C48.9531 61.1445 49.0293 61.1426 49.0918 61.1387C49.1582 61.1348 49.2383 61.1289 49.332 61.1211V61.9883C49.2344 62.0039 49.1367 62.0176 49.0391 62.0293C48.9414 62.041 48.8418 62.0469 48.7402 62.0469ZM53.3691 62.1113C52.7715 62.1113 52.2539 61.9805 51.8164 61.7188C51.3828 61.4531 51.0469 61.0762 50.8086 60.5879C50.5742 60.0996 50.457 59.5195 50.457 58.8477V58.8359C50.457 58.1602 50.5742 57.5781 50.8086 57.0898C51.0469 56.6016 51.3828 56.2266 51.8164 55.9648C52.2539 55.7031 52.7715 55.5723 53.3691 55.5723C53.9707 55.5723 54.4883 55.7031 54.9219 55.9648C55.3555 56.2266 55.6895 56.6016 55.9238 57.0898C56.1621 57.5781 56.2812 58.1602 56.2812 58.8359V58.8477C56.2812 59.5195 56.1621 60.0996 55.9238 60.5879C55.6895 61.0762 55.3555 61.4531 54.9219 61.7188C54.4883 61.9805 53.9707 62.1113 53.3691 62.1113ZM53.3691 61.209C53.7676 61.209 54.1055 61.1152 54.3828 60.9277C54.6602 60.7402 54.8711 60.4707 55.0156 60.1191C55.1641 59.7676 55.2383 59.3438 55.2383 58.8477V58.8359C55.2383 58.3359 55.1641 57.9102 55.0156 57.5586C54.8711 57.207 54.6602 56.9395 54.3828 56.7559C54.1055 56.5684 53.7676 56.4746 53.3691 56.4746C52.9707 56.4746 52.6328 56.5684 52.3555 56.7559C52.0781 56.9395 51.8652 57.207 51.7168 57.5586C51.5723 57.9102 51.5 58.3359 51.5 58.8359V58.8477C51.5 59.3438 51.5723 59.7676 51.7168 60.1191C51.8652 60.4707 52.0781 60.7402 52.3555 60.9277C52.6328 61.1152 52.9707 61.209 53.3691 61.209ZM63.3008 62V54.7168H63.207L61.0566 56.2754V55.1621L63.3066 53.5449H64.3555V62H63.3008ZM70.2383 62V53.1758H71.2578V62H70.2383ZM74.2168 62L71.75 58.9062L72.5 58.2559L75.5 62H74.2168ZM71.1289 59.7266L71.082 58.4434H71.3516L74.082 55.6836H75.3184L72.3184 58.5781L72.0723 58.8184L71.1289 59.7266ZM79.0039 64.2266C78.4961 64.2266 78.0527 64.1543 77.6738 64.0098C77.2949 63.8691 76.9922 63.668 76.7656 63.4062C76.543 63.1484 76.4043 62.8477 76.3496 62.5039L76.3613 62.498H77.416L77.4219 62.5039C77.4766 62.7422 77.6406 62.9375 77.9141 63.0898C78.1875 63.2461 78.5508 63.3242 79.0039 63.3242C79.5703 63.3242 80.0117 63.1953 80.3281 62.9375C80.6484 62.6836 80.8086 62.3242 80.8086 61.8594V60.582H80.7148C80.582 60.8125 80.416 61.0098 80.2168 61.1738C80.0176 61.3379 79.793 61.4629 79.543 61.5488C79.293 61.6309 79.0234 61.6719 78.7344 61.6719C78.1914 61.6719 77.7207 61.543 77.3223 61.2852C76.9277 61.0234 76.623 60.6641 76.4082 60.207C76.1934 59.75 76.0859 59.2266 76.0859 58.6367V58.625C76.0859 58.0352 76.1934 57.5117 76.4082 57.0547C76.627 56.5938 76.9355 56.2324 77.334 55.9707C77.7324 55.7051 78.207 55.5723 78.7578 55.5723C79.0547 55.5723 79.3281 55.6191 79.5781 55.7129C79.8281 55.8066 80.0488 55.9395 80.2402 56.1113C80.4355 56.2832 80.5977 56.4883 80.7266 56.7266H80.7969V55.6836H81.8164V61.9121C81.8164 62.3809 81.7012 62.7891 81.4707 63.1367C81.2441 63.4844 80.9199 63.752 80.498 63.9395C80.0762 64.1309 79.5781 64.2266 79.0039 64.2266ZM78.957 60.7695C79.3477 60.7695 79.6816 60.6797 79.959 60.5C80.2402 60.3164 80.4551 60.0645 80.6035 59.7441C80.7559 59.4238 80.832 59.0547 80.832 58.6367V58.625C80.832 58.207 80.7559 57.8359 80.6035 57.5117C80.4551 57.1875 80.2402 56.9336 79.959 56.75C79.6816 56.5664 79.3477 56.4746 78.957 56.4746C78.5664 56.4746 78.2344 56.5664 77.9609 56.75C77.6914 56.9336 77.4844 57.1875 77.3398 57.5117C77.1992 57.8359 77.1289 58.207 77.1289 58.625V58.6367C77.1289 59.0547 77.1992 59.4238 77.3398 59.7441C77.4844 60.0645 77.6914 60.3164 77.9609 60.5C78.2344 60.6797 78.5664 60.7695 78.957 60.7695Z" fill="#1D2327"/>
<path d="M261.037 61.877C260.436 61.877 259.896 61.7852 259.42 61.6016C258.947 61.4141 258.57 61.1426 258.289 60.7871C258.012 60.4316 257.863 59.998 257.844 59.4863L257.85 59.4805H259.414V59.4863C259.453 59.709 259.537 59.9023 259.666 60.0664C259.799 60.2266 259.98 60.3496 260.211 60.4355C260.441 60.5215 260.725 60.5645 261.061 60.5645C261.412 60.5645 261.703 60.5273 261.934 60.4531C262.164 60.375 262.336 60.2637 262.449 60.1191C262.566 59.9746 262.625 59.8047 262.625 59.6094V59.5977C262.625 59.3242 262.521 59.1113 262.314 58.959C262.111 58.8027 261.744 58.666 261.213 58.5488L260.34 58.3496C259.832 58.2363 259.402 58.0801 259.051 57.8809C258.699 57.6816 258.432 57.4336 258.248 57.1367C258.064 56.8359 257.973 56.4766 257.973 56.0586V56.0469C257.973 55.5508 258.105 55.125 258.371 54.7695C258.637 54.4141 259 54.1426 259.461 53.9551C259.922 53.7637 260.445 53.668 261.031 53.668C261.645 53.668 262.18 53.7676 262.637 53.9668C263.098 54.166 263.459 54.4492 263.721 54.8164C263.986 55.1797 264.129 55.6094 264.148 56.1055L264.143 56.1113L262.59 56.1172L262.584 56.1055C262.557 55.8594 262.475 55.6543 262.338 55.4902C262.201 55.3223 262.023 55.1953 261.805 55.1094C261.586 55.0234 261.336 54.9805 261.055 54.9805C260.738 54.9805 260.473 55.0215 260.258 55.1035C260.043 55.1855 259.881 55.2969 259.771 55.4375C259.662 55.5781 259.607 55.7383 259.607 55.918V55.9297C259.607 56.0898 259.654 56.2324 259.748 56.3574C259.842 56.4824 259.986 56.5918 260.182 56.6855C260.377 56.7793 260.633 56.8633 260.949 56.9375L261.822 57.1309C262.623 57.3105 263.229 57.5762 263.639 57.9277C264.053 58.2793 264.26 58.7773 264.26 59.4219V59.4336C264.26 59.9531 264.119 60.3965 263.838 60.7637C263.561 61.127 263.178 61.4043 262.689 61.5957C262.205 61.7832 261.654 61.877 261.037 61.877ZM260.732 62.832V52.6953H261.406V62.832H260.732ZM269.838 62V60.4473H265.695V59.0586C265.91 58.6758 266.127 58.2969 266.346 57.9219C266.564 57.543 266.785 57.168 267.008 56.7969C267.234 56.4219 267.459 56.0527 267.682 55.6895C267.908 55.3223 268.135 54.9609 268.361 54.6055C268.588 54.2461 268.814 53.8926 269.041 53.5449H271.525V59.0293H272.627V60.4473H271.525V62H269.838ZM267.289 59.0762H269.873V54.8867H269.779C269.615 55.1406 269.447 55.4004 269.275 55.666C269.107 55.9316 268.938 56.2031 268.766 56.4805C268.598 56.7578 268.428 57.0371 268.256 57.3184C268.088 57.5957 267.922 57.875 267.758 58.1562C267.598 58.4336 267.441 58.709 267.289 58.9824V59.0762ZM275.199 62.1465C274.902 62.1465 274.656 62.0488 274.461 61.8535C274.266 61.6582 274.168 61.416 274.168 61.127C274.168 60.8379 274.266 60.5977 274.461 60.4062C274.656 60.2109 274.902 60.1133 275.199 60.1133C275.504 60.1133 275.752 60.2109 275.943 60.4062C276.135 60.5977 276.23 60.8379 276.23 61.127C276.23 61.416 276.135 61.6582 275.943 61.8535C275.752 62.0488 275.504 62.1465 275.199 62.1465ZM280.842 62.2168C280.146 62.2168 279.547 62.0371 279.043 61.6777C278.543 61.3145 278.158 60.8008 277.889 60.1367C277.619 59.4727 277.484 58.6855 277.484 57.7754V57.7637C277.484 56.8496 277.619 56.0625 277.889 55.4023C278.158 54.7383 278.543 54.2266 279.043 53.8672C279.547 53.5078 280.146 53.3281 280.842 53.3281C281.541 53.3281 282.141 53.5078 282.641 53.8672C283.141 54.2266 283.525 54.7383 283.795 55.4023C284.064 56.0625 284.199 56.8496 284.199 57.7637V57.7754C284.199 58.6855 284.064 59.4727 283.795 60.1367C283.525 60.8008 283.141 61.3145 282.641 61.6777C282.141 62.0371 281.541 62.2168 280.842 62.2168ZM280.842 60.8164C281.178 60.8164 281.461 60.6953 281.691 60.4531C281.926 60.2109 282.104 59.8633 282.225 59.4102C282.35 58.957 282.412 58.4121 282.412 57.7754V57.7637C282.412 57.123 282.35 56.5781 282.225 56.1289C282.104 55.6758 281.926 55.3301 281.691 55.0918C281.461 54.8496 281.178 54.7285 280.842 54.7285C280.51 54.7285 280.227 54.8496 279.992 55.0918C279.762 55.3301 279.584 55.6758 279.459 56.1289C279.338 56.5781 279.277 57.123 279.277 57.7637V57.7754C279.277 58.4121 279.338 58.957 279.459 59.4102C279.584 59.8633 279.762 60.2109 279.992 60.4531C280.227 60.6953 280.51 60.8164 280.842 60.8164ZM289.057 62.2168C288.361 62.2168 287.762 62.0371 287.258 61.6777C286.758 61.3145 286.373 60.8008 286.104 60.1367C285.834 59.4727 285.699 58.6855 285.699 57.7754V57.7637C285.699 56.8496 285.834 56.0625 286.104 55.4023C286.373 54.7383 286.758 54.2266 287.258 53.8672C287.762 53.5078 288.361 53.3281 289.057 53.3281C289.756 53.3281 290.355 53.5078 290.855 53.8672C291.355 54.2266 291.74 54.7383 292.01 55.4023C292.279 56.0625 292.414 56.8496 292.414 57.7637V57.7754C292.414 58.6855 292.279 59.4727 292.01 60.1367C291.74 60.8008 291.355 61.3145 290.855 61.6777C290.355 62.0371 289.756 62.2168 289.057 62.2168ZM289.057 60.8164C289.393 60.8164 289.676 60.6953 289.906 60.4531C290.141 60.2109 290.318 59.8633 290.439 59.4102C290.564 58.957 290.627 58.4121 290.627 57.7754V57.7637C290.627 57.123 290.564 56.5781 290.439 56.1289C290.318 55.6758 290.141 55.3301 289.906 55.0918C289.676 54.8496 289.393 54.7285 289.057 54.7285C288.725 54.7285 288.441 54.8496 288.207 55.0918C287.977 55.3301 287.799 55.6758 287.674 56.1289C287.553 56.5781 287.492 57.123 287.492 57.7637V57.7754C287.492 58.4121 287.553 58.957 287.674 59.4102C287.799 59.8633 287.977 60.2109 288.207 60.4531C288.441 60.6953 288.725 60.8164 289.057 60.8164Z" fill="#1D2327"/>
<rect x="16" y="85" width="288" height="32" rx="4" fill="#F6F7F7"/>
<path d="M29.0117 105V97.7168H28.918L26.7676 99.2754V98.1621L29.0176 96.5449H30.0664V105H29.0117ZM38.1348 105.047C37.4863 105.047 37.0156 104.916 36.7227 104.654C36.4336 104.393 36.2891 103.961 36.2891 103.359V99.5273H35.293V98.6836H36.2891V97.0488H37.3438V98.6836H38.7266V99.5273H37.3438V103.102C37.3438 103.473 37.4141 103.74 37.5547 103.904C37.6953 104.064 37.9297 104.145 38.2578 104.145C38.3477 104.145 38.4238 104.143 38.4863 104.139C38.5527 104.135 38.6328 104.129 38.7266 104.121V104.988C38.6289 105.004 38.5312 105.018 38.4336 105.029C38.3359 105.041 38.2363 105.047 38.1348 105.047ZM42.7637 105.111C42.166 105.111 41.6484 104.98 41.2109 104.719C40.7773 104.453 40.4414 104.076 40.2031 103.588C39.9688 103.1 39.8516 102.52 39.8516 101.848V101.836C39.8516 101.16 39.9688 100.578 40.2031 100.09C40.4414 99.6016 40.7773 99.2266 41.2109 98.9648C41.6484 98.7031 42.166 98.5723 42.7637 98.5723C43.3652 98.5723 43.8828 98.7031 44.3164 98.9648C44.75 99.2266 45.084 99.6016 45.3184 100.09C45.5566 100.578 45.6758 101.16 45.6758 101.836V101.848C45.6758 102.52 45.5566 103.1 45.3184 103.588C45.084 104.076 44.75 104.453 44.3164 104.719C43.8828 104.98 43.3652 105.111 42.7637 105.111ZM42.7637 104.209C43.1621 104.209 43.5 104.115 43.7773 103.928C44.0547 103.74 44.2656 103.471 44.4102 103.119C44.5586 102.768 44.6328 102.344 44.6328 101.848V101.836C44.6328 101.336 44.5586 100.91 44.4102 100.559C44.2656 100.207 44.0547 99.9395 43.7773 99.7559C43.5 99.5684 43.1621 99.4746 42.7637 99.4746C42.3652 99.4746 42.0273 99.5684 41.75 99.7559C41.4727 99.9395 41.2598 100.207 41.1113 100.559C40.9668 100.91 40.8945 101.336 40.8945 101.836V101.848C40.8945 102.344 40.9668 102.768 41.1113 103.119C41.2598 103.471 41.4727 103.74 41.75 103.928C42.0273 104.115 42.3652 104.209 42.7637 104.209ZM53.4043 105.199C52.8809 105.199 52.4141 105.096 52.0039 104.889C51.5938 104.682 51.2637 104.4 51.0137 104.045C50.7676 103.686 50.623 103.281 50.5801 102.832L50.5742 102.768H51.5879L51.5938 102.814C51.6289 103.084 51.7266 103.33 51.8867 103.553C52.0508 103.771 52.2637 103.945 52.5254 104.074C52.791 104.203 53.0879 104.268 53.416 104.268C53.791 104.268 54.1211 104.186 54.4062 104.021C54.6914 103.854 54.9141 103.623 55.0742 103.33C55.2344 103.037 55.3145 102.701 55.3145 102.322V102.311C55.3145 101.936 55.2324 101.604 55.0684 101.314C54.9082 101.021 54.6875 100.793 54.4062 100.629C54.125 100.465 53.8008 100.383 53.4336 100.383C53.1523 100.383 52.8926 100.426 52.6543 100.512C52.4199 100.598 52.2109 100.727 52.0273 100.898C51.9531 100.969 51.8828 101.045 51.8164 101.127C51.7539 101.209 51.6953 101.301 51.6406 101.402H50.7266L51.1719 96.5449H55.877V97.4883H52.0039L51.7168 100.348H51.8105C51.9355 100.156 52.0898 99.9961 52.2734 99.8672C52.457 99.7383 52.6621 99.6406 52.8887 99.5742C53.1191 99.5039 53.3613 99.4688 53.6152 99.4688C54.1465 99.4688 54.6172 99.5918 55.0273 99.8379C55.4375 100.08 55.7598 100.414 55.9941 100.84C56.2285 101.262 56.3457 101.746 56.3457 102.293V102.305C56.3457 102.871 56.2188 103.373 55.9648 103.811C55.7148 104.244 55.3691 104.584 54.9277 104.83C54.4863 105.076 53.9785 105.199 53.4043 105.199ZM61.4844 105V96.1758H62.5039V105H61.4844ZM65.4629 105L62.9961 101.906L63.7461 101.256L66.7461 105H65.4629ZM62.375 102.727L62.3281 101.443H62.5977L65.3281 98.6836H66.5645L63.5645 101.578L63.3184 101.818L62.375 102.727ZM70.25 107.227C69.7422 107.227 69.2988 107.154 68.9199 107.01C68.541 106.869 68.2383 106.668 68.0117 106.406C67.7891 106.148 67.6504 105.848 67.5957 105.504L67.6074 105.498H68.6621L68.668 105.504C68.7227 105.742 68.8867 105.938 69.1602 106.09C69.4336 106.246 69.7969 106.324 70.25 106.324C70.8164 106.324 71.2578 106.195 71.5742 105.938C71.8945 105.684 72.0547 105.324 72.0547 104.859V103.582H71.9609C71.8281 103.812 71.6621 104.01 71.4629 104.174C71.2637 104.338 71.0391 104.463 70.7891 104.549C70.5391 104.631 70.2695 104.672 69.9805 104.672C69.4375 104.672 68.9668 104.543 68.5684 104.285C68.1738 104.023 67.8691 103.664 67.6543 103.207C67.4395 102.75 67.332 102.227 67.332 101.637V101.625C67.332 101.035 67.4395 100.512 67.6543 100.055C67.873 99.5938 68.1816 99.2324 68.5801 98.9707C68.9785 98.7051 69.4531 98.5723 70.0039 98.5723C70.3008 98.5723 70.5742 98.6191 70.8242 98.7129C71.0742 98.8066 71.2949 98.9395 71.4863 99.1113C71.6816 99.2832 71.8438 99.4883 71.9727 99.7266H72.043V98.6836H73.0625V104.912C73.0625 105.381 72.9473 105.789 72.7168 106.137C72.4902 106.484 72.166 106.752 71.7441 106.939C71.3223 107.131 70.8242 107.227 70.25 107.227ZM70.2031 103.77C70.5938 103.77 70.9277 103.68 71.2051 103.5C71.4863 103.316 71.7012 103.064 71.8496 102.744C72.002 102.424 72.0781 102.055 72.0781 101.637V101.625C72.0781 101.207 72.002 100.836 71.8496 100.512C71.7012 100.188 71.4863 99.9336 71.2051 99.75C70.9277 99.5664 70.5938 99.4746 70.2031 99.4746C69.8125 99.4746 69.4805 99.5664 69.207 99.75C68.9375 99.9336 68.7305 100.188 68.5859 100.512C68.4453 100.836 68.375 101.207 68.375 101.625V101.637C68.375 102.055 68.4453 102.424 68.5859 102.744C68.7305 103.064 68.9375 103.316 69.207 103.5C69.4805 103.68 69.8125 103.77 70.2031 103.77Z" fill="#1D2327"/>
<path d="M262.037 104.877C261.436 104.877 260.896 104.785 260.42 104.602C259.947 104.414 259.57 104.143 259.289 103.787C259.012 103.432 258.863 102.998 258.844 102.486L258.85 102.48H260.414V102.486C260.453 102.709 260.537 102.902 260.666 103.066C260.799 103.227 260.98 103.35 261.211 103.436C261.441 103.521 261.725 103.564 262.061 103.564C262.412 103.564 262.703 103.527 262.934 103.453C263.164 103.375 263.336 103.264 263.449 103.119C263.566 102.975 263.625 102.805 263.625 102.609V102.598C263.625 102.324 263.521 102.111 263.314 101.959C263.111 101.803 262.744 101.666 262.213 101.549L261.34 101.35C260.832 101.236 260.402 101.08 260.051 100.881C259.699 100.682 259.432 100.434 259.248 100.137C259.064 99.8359 258.973 99.4766 258.973 99.0586V99.0469C258.973 98.5508 259.105 98.125 259.371 97.7695C259.637 97.4141 260 97.1426 260.461 96.9551C260.922 96.7637 261.445 96.668 262.031 96.668C262.645 96.668 263.18 96.7676 263.637 96.9668C264.098 97.166 264.459 97.4492 264.721 97.8164C264.986 98.1797 265.129 98.6094 265.148 99.1055L265.143 99.1113L263.59 99.1172L263.584 99.1055C263.557 98.8594 263.475 98.6543 263.338 98.4902C263.201 98.3223 263.023 98.1953 262.805 98.1094C262.586 98.0234 262.336 97.9805 262.055 97.9805C261.738 97.9805 261.473 98.0215 261.258 98.1035C261.043 98.1855 260.881 98.2969 260.771 98.4375C260.662 98.5781 260.607 98.7383 260.607 98.918V98.9297C260.607 99.0898 260.654 99.2324 260.748 99.3574C260.842 99.4824 260.986 99.5918 261.182 99.6855C261.377 99.7793 261.633 99.8633 261.949 99.9375L262.822 100.131C263.623 100.311 264.229 100.576 264.639 100.928C265.053 101.279 265.26 101.777 265.26 102.422V102.434C265.26 102.953 265.119 103.396 264.838 103.764C264.561 104.127 264.178 104.404 263.689 104.596C263.205 104.783 262.654 104.877 262.037 104.877ZM261.732 105.832V95.6953H262.406V105.832H261.732ZM270.047 96.3223C270.535 96.3223 270.99 96.4121 271.412 96.5918C271.838 96.7676 272.209 97.0352 272.525 97.3945C272.846 97.75 273.094 98.2031 273.27 98.7539C273.449 99.3008 273.539 99.9453 273.539 100.688V100.699C273.539 101.645 273.396 102.453 273.111 103.125C272.83 103.797 272.428 104.312 271.904 104.672C271.381 105.031 270.758 105.211 270.035 105.211C269.492 105.211 269.002 105.113 268.564 104.918C268.127 104.719 267.766 104.447 267.48 104.104C267.199 103.756 267.014 103.361 266.924 102.92L266.912 102.867H268.646L268.664 102.92C268.734 103.092 268.832 103.246 268.957 103.383C269.086 103.516 269.24 103.619 269.42 103.693C269.6 103.768 269.803 103.805 270.029 103.805C270.439 103.805 270.775 103.684 271.037 103.441C271.299 103.195 271.496 102.865 271.629 102.451C271.762 102.037 271.838 101.574 271.857 101.062C271.861 101.004 271.863 100.945 271.863 100.887C271.863 100.828 271.863 100.771 271.863 100.717L271.594 99.2988C271.594 99.002 271.525 98.7363 271.389 98.502C271.252 98.2637 271.068 98.0762 270.838 97.9395C270.607 97.7988 270.348 97.7285 270.059 97.7285C269.773 97.7285 269.514 97.7969 269.279 97.9336C269.049 98.0664 268.863 98.25 268.723 98.4844C268.586 98.7148 268.518 98.9746 268.518 99.2637V99.2754C268.518 99.5723 268.584 99.8359 268.717 100.066C268.85 100.297 269.031 100.479 269.262 100.611C269.492 100.74 269.754 100.805 270.047 100.805C270.34 100.805 270.602 100.742 270.832 100.617C271.066 100.488 271.252 100.311 271.389 100.084C271.525 99.8574 271.594 99.5996 271.594 99.3105V99.2988H271.945V100.875H271.74C271.643 101.09 271.496 101.293 271.301 101.484C271.109 101.672 270.869 101.824 270.58 101.941C270.291 102.055 269.951 102.111 269.561 102.111C269.014 102.111 268.533 101.992 268.119 101.754C267.705 101.512 267.383 101.182 267.152 100.764C266.922 100.346 266.807 99.8711 266.807 99.3398V99.3281C266.807 98.75 266.943 98.2344 267.217 97.7812C267.494 97.3281 267.877 96.9727 268.365 96.7148C268.854 96.4531 269.414 96.3223 270.047 96.3223ZM275.742 105.146C275.445 105.146 275.199 105.049 275.004 104.854C274.809 104.658 274.711 104.416 274.711 104.127C274.711 103.838 274.809 103.598 275.004 103.406C275.199 103.211 275.445 103.113 275.742 103.113C276.047 103.113 276.295 103.211 276.486 103.406C276.678 103.598 276.773 103.838 276.773 104.127C276.773 104.416 276.678 104.658 276.486 104.854C276.295 105.049 276.047 105.146 275.742 105.146ZM281.525 105.217C280.924 105.217 280.396 105.107 279.943 104.889C279.49 104.67 279.131 104.373 278.865 103.998C278.604 103.619 278.455 103.195 278.42 102.727L278.414 102.645H280.02L280.031 102.686C280.074 102.893 280.162 103.082 280.295 103.254C280.432 103.422 280.605 103.557 280.816 103.658C281.027 103.756 281.266 103.805 281.531 103.805C281.836 103.805 282.104 103.738 282.334 103.605C282.564 103.473 282.744 103.291 282.873 103.061C283.006 102.826 283.072 102.559 283.072 102.258V102.246C283.072 101.945 283.006 101.68 282.873 101.449C282.744 101.219 282.564 101.039 282.334 100.91C282.104 100.781 281.838 100.717 281.537 100.717C281.326 100.717 281.131 100.748 280.951 100.811C280.771 100.869 280.609 100.959 280.465 101.08C280.387 101.143 280.312 101.215 280.242 101.297C280.176 101.375 280.119 101.459 280.072 101.549H278.555L278.947 96.5449H284.232V97.9512H280.324L280.113 100.359H280.219C280.332 100.168 280.477 100.004 280.652 99.8672C280.832 99.7305 281.037 99.625 281.268 99.5508C281.502 99.4766 281.754 99.4395 282.023 99.4395C282.551 99.4395 283.018 99.5586 283.424 99.7969C283.834 100.035 284.154 100.363 284.385 100.781C284.619 101.195 284.736 101.672 284.736 102.211V102.223C284.736 102.816 284.6 103.338 284.326 103.787C284.057 104.236 283.68 104.588 283.195 104.842C282.715 105.092 282.158 105.217 281.525 105.217ZM289.541 105.217C288.846 105.217 288.246 105.037 287.742 104.678C287.242 104.314 286.857 103.801 286.588 103.137C286.318 102.473 286.184 101.686 286.184 100.775V100.764C286.184 99.8496 286.318 99.0625 286.588 98.4023C286.857 97.7383 287.242 97.2266 287.742 96.8672C288.246 96.5078 288.846 96.3281 289.541 96.3281C290.24 96.3281 290.84 96.5078 291.34 96.8672C291.84 97.2266 292.225 97.7383 292.494 98.4023C292.764 99.0625 292.898 99.8496 292.898 100.764V100.775C292.898 101.686 292.764 102.473 292.494 103.137C292.225 103.801 291.84 104.314 291.34 104.678C290.84 105.037 290.24 105.217 289.541 105.217ZM289.541 103.816C289.877 103.816 290.16 103.695 290.391 103.453C290.625 103.211 290.803 102.863 290.924 102.41C291.049 101.957 291.111 101.412 291.111 100.775V100.764C291.111 100.123 291.049 99.5781 290.924 99.1289C290.803 98.6758 290.625 98.3301 290.391 98.0918C290.16 97.8496 289.877 97.7285 289.541 97.7285C289.209 97.7285 288.926 97.8496 288.691 98.0918C288.461 98.3301 288.283 98.6758 288.158 99.1289C288.037 99.5781 287.977 100.123 287.977 100.764V100.775C287.977 101.412 288.037 101.957 288.158 102.41C288.283 102.863 288.461 103.211 288.691 103.453C288.926 103.695 289.209 103.816 289.541 103.816Z" fill="#1D2327"/>
<path d="M29.7207 147.199C29.1973 147.199 28.7305 147.096 28.3203 146.889C27.9102 146.682 27.5801 146.4 27.3301 146.045C27.084 145.686 26.9395 145.281 26.8965 144.832L26.8906 144.768H27.9043L27.9102 144.814C27.9453 145.084 28.043 145.33 28.2031 145.553C28.3672 145.771 28.5801 145.945 28.8418 146.074C29.1074 146.203 29.4043 146.268 29.7324 146.268C30.1074 146.268 30.4375 146.186 30.7227 146.021C31.0078 145.854 31.2305 145.623 31.3906 145.33C31.5508 145.037 31.6309 144.701 31.6309 144.322V144.311C31.6309 143.936 31.5488 143.604 31.3848 143.314C31.2246 143.021 31.0039 142.793 30.7227 142.629C30.4414 142.465 30.1172 142.383 29.75 142.383C29.4688 142.383 29.209 142.426 28.9707 142.512C28.7363 142.598 28.5273 142.727 28.3438 142.898C28.2695 142.969 28.1992 143.045 28.1328 143.127C28.0703 143.209 28.0117 143.301 27.957 143.402H27.043L27.4883 138.545H32.1934V139.488H28.3203L28.0332 142.348H28.127C28.252 142.156 28.4062 141.996 28.5898 141.867C28.7734 141.738 28.9785 141.641 29.2051 141.574C29.4355 141.504 29.6777 141.469 29.9316 141.469C30.4629 141.469 30.9336 141.592 31.3438 141.838C31.7539 142.08 32.0762 142.414 32.3105 142.84C32.5449 143.262 32.6621 143.746 32.6621 144.293V144.305C32.6621 144.871 32.5352 145.373 32.2812 145.811C32.0312 146.244 31.6855 146.584 31.2441 146.83C30.8027 147.076 30.2949 147.199 29.7207 147.199ZM39.9863 147.047C39.3379 147.047 38.8672 146.916 38.5742 146.654C38.2852 146.393 38.1406 145.961 38.1406 145.359V141.527H37.1445V140.684H38.1406V139.049H39.1953V140.684H40.5781V141.527H39.1953V145.102C39.1953 145.473 39.2656 145.74 39.4062 145.904C39.5469 146.064 39.7812 146.145 40.1094 146.145C40.1992 146.145 40.2754 146.143 40.3379 146.139C40.4043 146.135 40.4844 146.129 40.5781 146.121V146.988C40.4805 147.004 40.3828 147.018 40.2852 147.029C40.1875 147.041 40.0879 147.047 39.9863 147.047ZM44.6152 147.111C44.0176 147.111 43.5 146.98 43.0625 146.719C42.6289 146.453 42.293 146.076 42.0547 145.588C41.8203 145.1 41.7031 144.52 41.7031 143.848V143.836C41.7031 143.16 41.8203 142.578 42.0547 142.09C42.293 141.602 42.6289 141.227 43.0625 140.965C43.5 140.703 44.0176 140.572 44.6152 140.572C45.2168 140.572 45.7344 140.703 46.168 140.965C46.6016 141.227 46.9355 141.602 47.1699 142.09C47.4082 142.578 47.5273 143.16 47.5273 143.836V143.848C47.5273 144.52 47.4082 145.1 47.1699 145.588C46.9355 146.076 46.6016 146.453 46.168 146.719C45.7344 146.98 45.2168 147.111 44.6152 147.111ZM44.6152 146.209C45.0137 146.209 45.3516 146.115 45.6289 145.928C45.9062 145.74 46.1172 145.471 46.2617 145.119C46.4102 144.768 46.4844 144.344 46.4844 143.848V143.836C46.4844 143.336 46.4102 142.91 46.2617 142.559C46.1172 142.207 45.9062 141.939 45.6289 141.756C45.3516 141.568 45.0137 141.475 44.6152 141.475C44.2168 141.475 43.8789 141.568 43.6016 141.756C43.3242 141.939 43.1113 142.207 42.9629 142.559C42.8184 142.91 42.7461 143.336 42.7461 143.836V143.848C42.7461 144.344 42.8184 144.768 42.9629 145.119C43.1113 145.471 43.3242 145.74 43.6016 145.928C43.8789 146.115 44.2168 146.209 44.6152 146.209ZM54.5469 147V139.717H54.4531L52.3027 141.275V140.162L54.5527 138.545H55.6016V147H54.5469ZM60.875 147.199C60.25 147.199 59.7148 147.02 59.2695 146.66C58.8281 146.301 58.4883 145.791 58.25 145.131C58.0117 144.467 57.8926 143.682 57.8926 142.775V142.764C57.8926 141.857 58.0117 141.074 58.25 140.414C58.4883 139.754 58.8281 139.244 59.2695 138.885C59.7148 138.525 60.25 138.346 60.875 138.346C61.5 138.346 62.0352 138.525 62.4805 138.885C62.9258 139.244 63.2676 139.754 63.5059 140.414C63.748 141.074 63.8691 141.857 63.8691 142.764V142.775C63.8691 143.682 63.748 144.467 63.5059 145.131C63.2676 145.791 62.9258 146.301 62.4805 146.66C62.0352 147.02 61.5 147.199 60.875 147.199ZM60.875 146.279C61.2812 146.279 61.627 146.137 61.9121 145.852C62.2012 145.566 62.4219 145.162 62.5742 144.639C62.7305 144.115 62.8086 143.494 62.8086 142.775V142.764C62.8086 142.045 62.7305 141.426 62.5742 140.906C62.4219 140.383 62.2012 139.98 61.9121 139.699C61.627 139.414 61.2812 139.271 60.875 139.271C60.4727 139.271 60.127 139.414 59.8379 139.699C59.5527 139.98 59.334 140.383 59.1816 140.906C59.0293 141.426 58.9531 142.045 58.9531 142.764V142.775C58.9531 143.494 59.0293 144.115 59.1816 144.639C59.334 145.162 59.5527 145.566 59.8379 145.852C60.127 146.137 60.4727 146.279 60.875 146.279ZM69.043 147V138.176H70.0625V147H69.043ZM73.0215 147L70.5547 143.906L71.3047 143.256L74.3047 147H73.0215ZM69.9336 144.727L69.8867 143.443H70.1562L72.8867 140.684H74.123L71.123 143.578L70.877 143.818L69.9336 144.727ZM77.8086 149.227C77.3008 149.227 76.8574 149.154 76.4785 149.01C76.0996 148.869 75.7969 148.668 75.5703 148.406C75.3477 148.148 75.209 147.848 75.1543 147.504L75.166 147.498H76.2207L76.2266 147.504C76.2812 147.742 76.4453 147.938 76.7188 148.09C76.9922 148.246 77.3555 148.324 77.8086 148.324C78.375 148.324 78.8164 148.195 79.1328 147.938C79.4531 147.684 79.6133 147.324 79.6133 146.859V145.582H79.5195C79.3867 145.812 79.2207 146.01 79.0215 146.174C78.8223 146.338 78.5977 146.463 78.3477 146.549C78.0977 146.631 77.8281 146.672 77.5391 146.672C76.9961 146.672 76.5254 146.543 76.127 146.285C75.7324 146.023 75.4277 145.664 75.2129 145.207C74.998 144.75 74.8906 144.227 74.8906 143.637V143.625C74.8906 143.035 74.998 142.512 75.2129 142.055C75.4316 141.594 75.7402 141.232 76.1387 140.971C76.5371 140.705 77.0117 140.572 77.5625 140.572C77.8594 140.572 78.1328 140.619 78.3828 140.713C78.6328 140.807 78.8535 140.939 79.0449 141.111C79.2402 141.283 79.4023 141.488 79.5312 141.727H79.6016V140.684H80.6211V146.912C80.6211 147.381 80.5059 147.789 80.2754 148.137C80.0488 148.484 79.7246 148.752 79.3027 148.939C78.8809 149.131 78.3828 149.227 77.8086 149.227ZM77.7617 145.77C78.1523 145.77 78.4863 145.68 78.7637 145.5C79.0449 145.316 79.2598 145.064 79.4082 144.744C79.5605 144.424 79.6367 144.055 79.6367 143.637V143.625C79.6367 143.207 79.5605 142.836 79.4082 142.512C79.2598 142.188 79.0449 141.934 78.7637 141.75C78.4863 141.566 78.1523 141.475 77.7617 141.475C77.3711 141.475 77.0391 141.566 76.7656 141.75C76.4961 141.934 76.2891 142.188 76.1445 142.512C76.0039 142.836 75.9336 143.207 75.9336 143.625V143.637C75.9336 144.055 76.0039 144.424 76.1445 144.744C76.2891 145.064 76.4961 145.316 76.7656 145.5C77.0391 145.68 77.3711 145.77 77.7617 145.77Z" fill="#1D2327"/>
<path d="M255.037 146.877C254.436 146.877 253.896 146.785 253.42 146.602C252.947 146.414 252.57 146.143 252.289 145.787C252.012 145.432 251.863 144.998 251.844 144.486L251.85 144.48H253.414V144.486C253.453 144.709 253.537 144.902 253.666 145.066C253.799 145.227 253.98 145.35 254.211 145.436C254.441 145.521 254.725 145.564 255.061 145.564C255.412 145.564 255.703 145.527 255.934 145.453C256.164 145.375 256.336 145.264 256.449 145.119C256.566 144.975 256.625 144.805 256.625 144.609V144.598C256.625 144.324 256.521 144.111 256.314 143.959C256.111 143.803 255.744 143.666 255.213 143.549L254.34 143.35C253.832 143.236 253.402 143.08 253.051 142.881C252.699 142.682 252.432 142.434 252.248 142.137C252.064 141.836 251.973 141.477 251.973 141.059V141.047C251.973 140.551 252.105 140.125 252.371 139.77C252.637 139.414 253 139.143 253.461 138.955C253.922 138.764 254.445 138.668 255.031 138.668C255.645 138.668 256.18 138.768 256.637 138.967C257.098 139.166 257.459 139.449 257.721 139.816C257.986 140.18 258.129 140.609 258.148 141.105L258.143 141.111L256.59 141.117L256.584 141.105C256.557 140.859 256.475 140.654 256.338 140.49C256.201 140.322 256.023 140.195 255.805 140.109C255.586 140.023 255.336 139.98 255.055 139.98C254.738 139.98 254.473 140.021 254.258 140.104C254.043 140.186 253.881 140.297 253.771 140.438C253.662 140.578 253.607 140.738 253.607 140.918V140.93C253.607 141.09 253.654 141.232 253.748 141.357C253.842 141.482 253.986 141.592 254.182 141.686C254.377 141.779 254.633 141.863 254.949 141.938L255.822 142.131C256.623 142.311 257.229 142.576 257.639 142.928C258.053 143.279 258.26 143.777 258.26 144.422V144.434C258.26 144.953 258.119 145.396 257.838 145.764C257.561 146.127 257.178 146.404 256.689 146.596C256.205 146.783 255.654 146.877 255.037 146.877ZM254.732 147.832V137.695H255.406V147.832H254.732ZM261.986 147V140.215H261.881L259.807 141.656V140.062L261.992 138.545H263.756V147H261.986ZM269.979 147V145.447H265.836V144.059C266.051 143.676 266.268 143.297 266.486 142.922C266.705 142.543 266.926 142.168 267.148 141.797C267.375 141.422 267.6 141.053 267.822 140.689C268.049 140.322 268.275 139.961 268.502 139.605C268.729 139.246 268.955 138.893 269.182 138.545H271.666V144.029H272.768V145.447H271.666V147H269.979ZM267.43 144.076H270.014V139.887H269.92C269.756 140.141 269.588 140.4 269.416 140.666C269.248 140.932 269.078 141.203 268.906 141.48C268.738 141.758 268.568 142.037 268.396 142.318C268.229 142.596 268.062 142.875 267.898 143.156C267.738 143.434 267.582 143.709 267.43 143.982V144.076ZM275.34 147.146C275.043 147.146 274.797 147.049 274.602 146.854C274.406 146.658 274.309 146.416 274.309 146.127C274.309 145.838 274.406 145.598 274.602 145.406C274.797 145.211 275.043 145.113 275.34 145.113C275.645 145.113 275.893 145.211 276.084 145.406C276.275 145.598 276.371 145.838 276.371 146.127C276.371 146.416 276.275 146.658 276.084 146.854C275.893 147.049 275.645 147.146 275.34 147.146ZM280.982 147.217C280.287 147.217 279.688 147.037 279.184 146.678C278.684 146.314 278.299 145.801 278.029 145.137C277.76 144.473 277.625 143.686 277.625 142.775V142.764C277.625 141.85 277.76 141.062 278.029 140.402C278.299 139.738 278.684 139.227 279.184 138.867C279.688 138.508 280.287 138.328 280.982 138.328C281.682 138.328 282.281 138.508 282.781 138.867C283.281 139.227 283.666 139.738 283.936 140.402C284.205 141.062 284.34 141.85 284.34 142.764V142.775C284.34 143.686 284.205 144.473 283.936 145.137C283.666 145.801 283.281 146.314 282.781 146.678C282.281 147.037 281.682 147.217 280.982 147.217ZM280.982 145.816C281.318 145.816 281.602 145.695 281.832 145.453C282.066 145.211 282.244 144.863 282.365 144.41C282.49 143.957 282.553 143.412 282.553 142.775V142.764C282.553 142.123 282.49 141.578 282.365 141.129C282.244 140.676 282.066 140.33 281.832 140.092C281.602 139.85 281.318 139.729 280.982 139.729C280.65 139.729 280.367 139.85 280.133 140.092C279.902 140.33 279.725 140.676 279.6 141.129C279.479 141.578 279.418 142.123 279.418 142.764V142.775C279.418 143.412 279.479 143.957 279.6 144.41C279.725 144.863 279.902 145.211 280.133 145.453C280.367 145.695 280.65 145.816 280.982 145.816ZM289.197 147.217C288.502 147.217 287.902 147.037 287.398 146.678C286.898 146.314 286.514 145.801 286.244 145.137C285.975 144.473 285.84 143.686 285.84 142.775V142.764C285.84 141.85 285.975 141.062 286.244 140.402C286.514 139.738 286.898 139.227 287.398 138.867C287.902 138.508 288.502 138.328 289.197 138.328C289.896 138.328 290.496 138.508 290.996 138.867C291.496 139.227 291.881 139.738 292.15 140.402C292.42 141.062 292.555 141.85 292.555 142.764V142.775C292.555 143.686 292.42 144.473 292.15 145.137C291.881 145.801 291.496 146.314 290.996 146.678C290.496 147.037 289.896 147.217 289.197 147.217ZM289.197 145.816C289.533 145.816 289.816 145.695 290.047 145.453C290.281 145.211 290.459 144.863 290.58 144.41C290.705 143.957 290.768 143.412 290.768 142.775V142.764C290.768 142.123 290.705 141.578 290.58 141.129C290.459 140.676 290.281 140.33 290.047 140.092C289.816 139.85 289.533 139.729 289.197 139.729C288.865 139.729 288.582 139.85 288.348 140.092C288.117 140.33 287.939 140.676 287.814 141.129C287.693 141.578 287.633 142.123 287.633 142.764V142.775C287.633 143.412 287.693 143.957 287.814 144.41C287.939 144.863 288.117 145.211 288.348 145.453C288.582 145.695 288.865 145.816 289.197 145.816Z" fill="#1D2327"/>
<path d="M29.0117 190V182.717H28.918L26.7676 184.275V183.162L29.0176 181.545H30.0664V190H29.0117ZM35.3398 190.199C34.7148 190.199 34.1797 190.02 33.7344 189.66C33.293 189.301 32.9531 188.791 32.7148 188.131C32.4766 187.467 32.3574 186.682 32.3574 185.775V185.764C32.3574 184.857 32.4766 184.074 32.7148 183.414C32.9531 182.754 33.293 182.244 33.7344 181.885C34.1797 181.525 34.7148 181.346 35.3398 181.346C35.9648 181.346 36.5 181.525 36.9453 181.885C37.3906 182.244 37.7324 182.754 37.9707 183.414C38.2129 184.074 38.334 184.857 38.334 185.764V185.775C38.334 186.682 38.2129 187.467 37.9707 188.131C37.7324 188.791 37.3906 189.301 36.9453 189.66C36.5 190.02 35.9648 190.199 35.3398 190.199ZM35.3398 189.279C35.7461 189.279 36.0918 189.137 36.377 188.852C36.666 188.566 36.8867 188.162 37.0391 187.639C37.1953 187.115 37.2734 186.494 37.2734 185.775V185.764C37.2734 185.045 37.1953 184.426 37.0391 183.906C36.8867 183.383 36.666 182.98 36.377 182.699C36.0918 182.414 35.7461 182.271 35.3398 182.271C34.9375 182.271 34.5918 182.414 34.3027 182.699C34.0176 182.98 33.7988 183.383 33.6465 183.906C33.4941 184.426 33.418 185.045 33.418 185.764V185.775C33.418 186.494 33.4941 187.115 33.6465 187.639C33.7988 188.162 34.0176 188.566 34.3027 188.852C34.5918 189.137 34.9375 189.279 35.3398 189.279ZM45.6934 190.047C45.0449 190.047 44.5742 189.916 44.2812 189.654C43.9922 189.393 43.8477 188.961 43.8477 188.359V184.527H42.8516V183.684H43.8477V182.049H44.9023V183.684H46.2852V184.527H44.9023V188.102C44.9023 188.473 44.9727 188.74 45.1133 188.904C45.2539 189.064 45.4883 189.145 45.8164 189.145C45.9062 189.145 45.9824 189.143 46.0449 189.139C46.1113 189.135 46.1914 189.129 46.2852 189.121V189.988C46.1875 190.004 46.0898 190.018 45.9922 190.029C45.8945 190.041 45.7949 190.047 45.6934 190.047ZM50.3223 190.111C49.7246 190.111 49.207 189.98 48.7695 189.719C48.3359 189.453 48 189.076 47.7617 188.588C47.5273 188.1 47.4102 187.52 47.4102 186.848V186.836C47.4102 186.16 47.5273 185.578 47.7617 185.09C48 184.602 48.3359 184.227 48.7695 183.965C49.207 183.703 49.7246 183.572 50.3223 183.572C50.9238 183.572 51.4414 183.703 51.875 183.965C52.3086 184.227 52.6426 184.602 52.877 185.09C53.1152 185.578 53.2344 186.16 53.2344 186.836V186.848C53.2344 187.52 53.1152 188.1 52.877 188.588C52.6426 189.076 52.3086 189.453 51.875 189.719C51.4414 189.98 50.9238 190.111 50.3223 190.111ZM50.3223 189.209C50.7207 189.209 51.0586 189.115 51.3359 188.928C51.6133 188.74 51.8242 188.471 51.9688 188.119C52.1172 187.768 52.1914 187.344 52.1914 186.848V186.836C52.1914 186.336 52.1172 185.91 51.9688 185.559C51.8242 185.207 51.6133 184.939 51.3359 184.756C51.0586 184.568 50.7207 184.475 50.3223 184.475C49.9238 184.475 49.5859 184.568 49.3086 184.756C49.0312 184.939 48.8184 185.207 48.6699 185.559C48.5254 185.91 48.4531 186.336 48.4531 186.836V186.848C48.4531 187.344 48.5254 187.768 48.6699 188.119C48.8184 188.471 49.0312 188.74 49.3086 188.928C49.5859 189.115 49.9238 189.209 50.3223 189.209ZM58.1855 190V189.273L61.0449 186.18C61.4043 185.789 61.6855 185.467 61.8887 185.213C62.0918 184.955 62.2344 184.723 62.3164 184.516C62.3984 184.309 62.4395 184.082 62.4395 183.836V183.824C62.4395 183.527 62.375 183.262 62.2461 183.027C62.1172 182.793 61.9336 182.607 61.6953 182.471C61.457 182.334 61.1719 182.266 60.8398 182.266C60.5039 182.266 60.209 182.336 59.9551 182.477C59.7012 182.613 59.5039 182.807 59.3633 183.057C59.2227 183.303 59.1523 183.592 59.1523 183.924L59.1465 183.936L58.1387 183.93L58.127 183.924C58.1309 183.424 58.252 182.98 58.4902 182.594C58.7285 182.203 59.0566 181.898 59.4746 181.68C59.8926 181.457 60.3711 181.346 60.9102 181.346C61.4023 181.346 61.8457 181.449 62.2402 181.656C62.6348 181.859 62.9453 182.139 63.1719 182.494C63.4023 182.85 63.5176 183.256 63.5176 183.713V183.725C63.5176 184.045 63.4609 184.354 63.3477 184.65C63.2383 184.947 63.043 185.277 62.7617 185.641C62.4805 186 62.084 186.443 61.5723 186.971L59.3867 189.227L59.6504 188.74V189.227L59.3926 189.051H63.6582V190H58.1855ZM68.2578 190.199C67.6328 190.199 67.0977 190.02 66.6523 189.66C66.2109 189.301 65.8711 188.791 65.6328 188.131C65.3945 187.467 65.2754 186.682 65.2754 185.775V185.764C65.2754 184.857 65.3945 184.074 65.6328 183.414C65.8711 182.754 66.2109 182.244 66.6523 181.885C67.0977 181.525 67.6328 181.346 68.2578 181.346C68.8828 181.346 69.418 181.525 69.8633 181.885C70.3086 182.244 70.6504 182.754 70.8887 183.414C71.1309 184.074 71.252 184.857 71.252 185.764V185.775C71.252 186.682 71.1309 187.467 70.8887 188.131C70.6504 188.791 70.3086 189.301 69.8633 189.66C69.418 190.02 68.8828 190.199 68.2578 190.199ZM68.2578 189.279C68.6641 189.279 69.0098 189.137 69.2949 188.852C69.584 188.566 69.8047 188.162 69.957 187.639C70.1133 187.115 70.1914 186.494 70.1914 185.775V185.764C70.1914 185.045 70.1133 184.426 69.957 183.906C69.8047 183.383 69.584 182.98 69.2949 182.699C69.0098 182.414 68.6641 182.271 68.2578 182.271C67.8555 182.271 67.5098 182.414 67.2207 182.699C66.9355 182.98 66.7168 183.383 66.5645 183.906C66.4121 184.426 66.3359 185.045 66.3359 185.764V185.775C66.3359 186.494 66.4121 187.115 66.5645 187.639C66.7168 188.162 66.9355 188.566 67.2207 188.852C67.5098 189.137 67.8555 189.279 68.2578 189.279ZM76.4258 190V181.176H77.4453V190H76.4258ZM80.4043 190L77.9375 186.906L78.6875 186.256L81.6875 190H80.4043ZM77.3164 187.727L77.2695 186.443H77.5391L80.2695 183.684H81.5059L78.5059 186.578L78.2598 186.818L77.3164 187.727ZM85.1914 192.227C84.6836 192.227 84.2402 192.154 83.8613 192.01C83.4824 191.869 83.1797 191.668 82.9531 191.406C82.7305 191.148 82.5918 190.848 82.5371 190.504L82.5488 190.498H83.6035L83.6094 190.504C83.6641 190.742 83.8281 190.938 84.1016 191.09C84.375 191.246 84.7383 191.324 85.1914 191.324C85.7578 191.324 86.1992 191.195 86.5156 190.938C86.8359 190.684 86.9961 190.324 86.9961 189.859V188.582H86.9023C86.7695 188.812 86.6035 189.01 86.4043 189.174C86.2051 189.338 85.9805 189.463 85.7305 189.549C85.4805 189.631 85.2109 189.672 84.9219 189.672C84.3789 189.672 83.9082 189.543 83.5098 189.285C83.1152 189.023 82.8105 188.664 82.5957 188.207C82.3809 187.75 82.2734 187.227 82.2734 186.637V186.625C82.2734 186.035 82.3809 185.512 82.5957 185.055C82.8145 184.594 83.123 184.232 83.5215 183.971C83.9199 183.705 84.3945 183.572 84.9453 183.572C85.2422 183.572 85.5156 183.619 85.7656 183.713C86.0156 183.807 86.2363 183.939 86.4277 184.111C86.623 184.283 86.7852 184.488 86.9141 184.727H86.9844V183.684H88.0039V189.912C88.0039 190.381 87.8887 190.789 87.6582 191.137C87.4316 191.484 87.1074 191.752 86.6855 191.939C86.2637 192.131 85.7656 192.227 85.1914 192.227ZM85.1445 188.77C85.5352 188.77 85.8691 188.68 86.1465 188.5C86.4277 188.316 86.6426 188.064 86.791 187.744C86.9434 187.424 87.0195 187.055 87.0195 186.637V186.625C87.0195 186.207 86.9434 185.836 86.791 185.512C86.6426 185.188 86.4277 184.934 86.1465 184.75C85.8691 184.566 85.5352 184.475 85.1445 184.475C84.7539 184.475 84.4219 184.566 84.1484 184.75C83.8789 184.934 83.6719 185.188 83.5273 185.512C83.3867 185.836 83.3164 186.207 83.3164 186.625V186.637C83.3164 187.055 83.3867 187.424 83.5273 187.744C83.6719 188.064 83.8789 188.316 84.1484 188.5C84.4219 188.68 84.7539 188.77 85.1445 188.77Z" fill="#1D2327"/>
<path d="M254.037 189.877C253.436 189.877 252.896 189.785 252.42 189.602C251.947 189.414 251.57 189.143 251.289 188.787C251.012 188.432 250.863 187.998 250.844 187.486L250.85 187.48H252.414V187.486C252.453 187.709 252.537 187.902 252.666 188.066C252.799 188.227 252.98 188.35 253.211 188.436C253.441 188.521 253.725 188.564 254.061 188.564C254.412 188.564 254.703 188.527 254.934 188.453C255.164 188.375 255.336 188.264 255.449 188.119C255.566 187.975 255.625 187.805 255.625 187.609V187.598C255.625 187.324 255.521 187.111 255.314 186.959C255.111 186.803 254.744 186.666 254.213 186.549L253.34 186.35C252.832 186.236 252.402 186.08 252.051 185.881C251.699 185.682 251.432 185.434 251.248 185.137C251.064 184.836 250.973 184.477 250.973 184.059V184.047C250.973 183.551 251.105 183.125 251.371 182.77C251.637 182.414 252 182.143 252.461 181.955C252.922 181.764 253.445 181.668 254.031 181.668C254.645 181.668 255.18 181.768 255.637 181.967C256.098 182.166 256.459 182.449 256.721 182.816C256.986 183.18 257.129 183.609 257.148 184.105L257.143 184.111L255.59 184.117L255.584 184.105C255.557 183.859 255.475 183.654 255.338 183.49C255.201 183.322 255.023 183.195 254.805 183.109C254.586 183.023 254.336 182.98 254.055 182.98C253.738 182.98 253.473 183.021 253.258 183.104C253.043 183.186 252.881 183.297 252.771 183.438C252.662 183.578 252.607 183.738 252.607 183.918V183.93C252.607 184.09 252.654 184.232 252.748 184.357C252.842 184.482 252.986 184.592 253.182 184.686C253.377 184.779 253.633 184.863 253.949 184.938L254.822 185.131C255.623 185.311 256.229 185.576 256.639 185.928C257.053 186.279 257.26 186.777 257.26 187.422V187.434C257.26 187.953 257.119 188.396 256.838 188.764C256.561 189.127 256.178 189.404 255.689 189.596C255.205 189.783 254.654 189.877 254.037 189.877ZM253.732 190.832V180.695H254.406V190.832H253.732ZM258.918 190V188.811L261.643 186.121C262.041 185.738 262.35 185.424 262.568 185.178C262.787 184.928 262.939 184.711 263.025 184.527C263.111 184.34 263.154 184.146 263.154 183.947V183.93C263.154 183.688 263.102 183.475 262.996 183.291C262.895 183.107 262.746 182.965 262.551 182.863C262.355 182.758 262.123 182.705 261.854 182.705C261.58 182.705 261.338 182.764 261.127 182.881C260.916 182.994 260.752 183.152 260.635 183.355C260.518 183.555 260.459 183.789 260.459 184.059V184.088H258.824L258.818 184.059C258.818 183.52 258.949 183.045 259.211 182.635C259.477 182.225 259.842 181.904 260.307 181.674C260.775 181.443 261.318 181.328 261.936 181.328C262.518 181.328 263.029 181.432 263.471 181.639C263.916 181.846 264.264 182.133 264.514 182.5C264.768 182.867 264.895 183.295 264.895 183.783V183.801C264.895 184.121 264.832 184.436 264.707 184.744C264.582 185.049 264.371 185.379 264.074 185.734C263.777 186.09 263.371 186.506 262.855 186.982L260.816 188.887L261.291 188.113V188.887L260.816 188.576H265.018V190H258.918ZM266.641 190V188.811L269.365 186.121C269.764 185.738 270.072 185.424 270.291 185.178C270.51 184.928 270.662 184.711 270.748 184.527C270.834 184.34 270.877 184.146 270.877 183.947V183.93C270.877 183.688 270.824 183.475 270.719 183.291C270.617 183.107 270.469 182.965 270.273 182.863C270.078 182.758 269.846 182.705 269.576 182.705C269.303 182.705 269.061 182.764 268.85 182.881C268.639 182.994 268.475 183.152 268.357 183.355C268.24 183.555 268.182 183.789 268.182 184.059V184.088H266.547L266.541 184.059C266.541 183.52 266.672 183.045 266.934 182.635C267.199 182.225 267.564 181.904 268.029 181.674C268.498 181.443 269.041 181.328 269.658 181.328C270.24 181.328 270.752 181.432 271.193 181.639C271.639 181.846 271.986 182.133 272.236 182.5C272.49 182.867 272.617 183.295 272.617 183.783V183.801C272.617 184.121 272.555 184.436 272.43 184.744C272.305 185.049 272.094 185.379 271.797 185.734C271.5 186.09 271.094 186.506 270.578 186.982L268.539 188.887L269.014 188.113V188.887L268.539 188.576H272.74V190H266.641ZM275.512 190.146C275.215 190.146 274.969 190.049 274.773 189.854C274.578 189.658 274.48 189.416 274.48 189.127C274.48 188.838 274.578 188.598 274.773 188.406C274.969 188.211 275.215 188.113 275.512 188.113C275.816 188.113 276.064 188.211 276.256 188.406C276.447 188.598 276.543 188.838 276.543 189.127C276.543 189.416 276.447 189.658 276.256 189.854C276.064 190.049 275.816 190.146 275.512 190.146ZM281.154 190.217C280.459 190.217 279.859 190.037 279.355 189.678C278.855 189.314 278.471 188.801 278.201 188.137C277.932 187.473 277.797 186.686 277.797 185.775V185.764C277.797 184.85 277.932 184.062 278.201 183.402C278.471 182.738 278.855 182.227 279.355 181.867C279.859 181.508 280.459 181.328 281.154 181.328C281.854 181.328 282.453 181.508 282.953 181.867C283.453 182.227 283.838 182.738 284.107 183.402C284.377 184.062 284.512 184.85 284.512 185.764V185.775C284.512 186.686 284.377 187.473 284.107 188.137C283.838 188.801 283.453 189.314 282.953 189.678C282.453 190.037 281.854 190.217 281.154 190.217ZM281.154 188.816C281.49 188.816 281.773 188.695 282.004 188.453C282.238 188.211 282.416 187.863 282.537 187.41C282.662 186.957 282.725 186.412 282.725 185.775V185.764C282.725 185.123 282.662 184.578 282.537 184.129C282.416 183.676 282.238 183.33 282.004 183.092C281.773 182.85 281.49 182.729 281.154 182.729C280.822 182.729 280.539 182.85 280.305 183.092C280.074 183.33 279.896 183.676 279.771 184.129C279.65 184.578 279.59 185.123 279.59 185.764V185.775C279.59 186.412 279.65 186.957 279.771 187.41C279.896 187.863 280.074 188.211 280.305 188.453C280.539 188.695 280.822 188.816 281.154 188.816ZM289.369 190.217C288.674 190.217 288.074 190.037 287.57 189.678C287.07 189.314 286.686 188.801 286.416 188.137C286.146 187.473 286.012 186.686 286.012 185.775V185.764C286.012 184.85 286.146 184.062 286.416 183.402C286.686 182.738 287.07 182.227 287.57 181.867C288.074 181.508 288.674 181.328 289.369 181.328C290.068 181.328 290.668 181.508 291.168 181.867C291.668 182.227 292.053 182.738 292.322 183.402C292.592 184.062 292.727 184.85 292.727 185.764V185.775C292.727 186.686 292.592 187.473 292.322 188.137C292.053 188.801 291.668 189.314 291.168 189.678C290.668 190.037 290.068 190.217 289.369 190.217ZM289.369 188.816C289.705 188.816 289.988 188.695 290.219 188.453C290.453 188.211 290.631 187.863 290.752 187.41C290.877 186.957 290.939 186.412 290.939 185.775V185.764C290.939 185.123 290.877 184.578 290.752 184.129C290.631 183.676 290.453 183.33 290.219 183.092C289.988 182.85 289.705 182.729 289.369 182.729C289.037 182.729 288.754 182.85 288.52 183.092C288.289 183.33 288.111 183.676 287.986 184.129C287.865 184.578 287.805 185.123 287.805 185.764V185.775C287.805 186.412 287.865 186.957 287.986 187.41C288.111 187.863 288.289 188.211 288.52 188.453C288.754 188.695 289.037 188.816 289.369 188.816Z" fill="#1D2327"/>
<path d="M30.6289 233.199C29.8203 233.199 29.127 233.02 28.5488 232.66C27.9707 232.297 27.5254 231.783 27.2129 231.119C26.9043 230.455 26.75 229.674 26.75 228.775V228.764C26.75 227.857 26.9062 227.074 27.2188 226.414C27.5352 225.754 27.9824 225.244 28.5605 224.885C29.1426 224.525 29.832 224.346 30.6289 224.346C31.4297 224.346 32.1191 224.525 32.6973 224.885C33.2793 225.244 33.7266 225.756 34.0391 226.42C34.3516 227.08 34.5078 227.861 34.5078 228.764V228.775C34.5078 229.674 34.3516 230.455 34.0391 231.119C33.7305 231.779 33.2852 232.291 32.7031 232.654C32.125 233.018 31.4336 233.199 30.6289 233.199ZM30.6289 232.227C31.207 232.227 31.7051 232.084 32.123 231.799C32.541 231.514 32.8633 231.113 33.0898 230.598C33.3164 230.078 33.4297 229.471 33.4297 228.775V228.764C33.4297 228.061 33.3164 227.451 33.0898 226.936C32.8633 226.42 32.541 226.021 32.123 225.74C31.7051 225.459 31.207 225.318 30.6289 225.318C30.0547 225.318 29.5586 225.459 29.1406 225.74C28.7227 226.021 28.3984 226.42 28.168 226.936C27.9414 227.451 27.8281 228.061 27.8281 228.764V228.775C27.8281 229.471 27.9395 230.078 28.1621 230.598C28.3848 231.113 28.7051 231.514 29.123 231.799C29.541 232.084 30.043 232.227 30.6289 232.227ZM37.9941 233L35.6562 226.684H36.7344L38.4629 231.887H38.5566L40.2852 226.684H41.3633L39.0254 233H37.9941ZM45.0547 233.111C44.4531 233.111 43.9355 232.979 43.502 232.713C43.0723 232.447 42.7402 232.072 42.5059 231.588C42.2754 231.1 42.1602 230.525 42.1602 229.865V229.859C42.1602 229.207 42.2754 228.635 42.5059 228.143C42.7402 227.65 43.0703 227.266 43.4961 226.988C43.9219 226.711 44.4199 226.572 44.9902 226.572C45.5645 226.572 46.0566 226.705 46.4668 226.971C46.8809 227.236 47.1973 227.607 47.416 228.084C47.6387 228.557 47.75 229.107 47.75 229.736V230.135H42.6875V229.32H47.2285L46.7246 230.064V229.66C46.7246 229.164 46.6504 228.756 46.502 228.436C46.3535 228.115 46.1484 227.877 45.8867 227.721C45.625 227.561 45.3242 227.48 44.9844 227.48C44.6445 227.48 44.3398 227.564 44.0703 227.732C43.8047 227.896 43.5938 228.141 43.4375 228.465C43.2812 228.789 43.2031 229.188 43.2031 229.66V230.064C43.2031 230.514 43.2793 230.898 43.4316 231.219C43.584 231.535 43.8008 231.779 44.082 231.951C44.3633 232.119 44.6953 232.203 45.0781 232.203C45.3633 232.203 45.6113 232.164 45.8223 232.086C46.0332 232.008 46.207 231.908 46.3438 231.787C46.4805 231.666 46.5762 231.543 46.6309 231.418L46.6543 231.365H47.6738L47.6621 231.412C47.6074 231.627 47.5098 231.836 47.3691 232.039C47.2324 232.238 47.0547 232.42 46.8359 232.584C46.6172 232.744 46.3574 232.873 46.0566 232.971C45.7598 233.064 45.4258 233.111 45.0547 233.111ZM49.332 233V226.684H50.3516V227.621H50.4453C50.5664 227.289 50.7715 227.031 51.0605 226.848C51.3496 226.664 51.707 226.572 52.1328 226.572C52.2305 226.572 52.3262 226.578 52.4199 226.59C52.5176 226.598 52.5918 226.605 52.6426 226.613V227.604C52.5371 227.584 52.4336 227.57 52.332 227.562C52.2344 227.551 52.1289 227.545 52.0156 227.545C51.6914 227.545 51.4043 227.609 51.1543 227.738C50.9043 227.867 50.707 228.047 50.5625 228.277C50.4219 228.508 50.3516 228.777 50.3516 229.086V233H49.332ZM57.2715 233V232.273L60.1309 229.18C60.4902 228.789 60.7715 228.467 60.9746 228.213C61.1777 227.955 61.3203 227.723 61.4023 227.516C61.4844 227.309 61.5254 227.082 61.5254 226.836V226.824C61.5254 226.527 61.4609 226.262 61.332 226.027C61.2031 225.793 61.0195 225.607 60.7812 225.471C60.543 225.334 60.2578 225.266 59.9258 225.266C59.5898 225.266 59.2949 225.336 59.041 225.477C58.7871 225.613 58.5898 225.807 58.4492 226.057C58.3086 226.303 58.2383 226.592 58.2383 226.924L58.2324 226.936L57.2246 226.93L57.2129 226.924C57.2168 226.424 57.3379 225.98 57.5762 225.594C57.8145 225.203 58.1426 224.898 58.5605 224.68C58.9785 224.457 59.457 224.346 59.9961 224.346C60.4883 224.346 60.9316 224.449 61.3262 224.656C61.7207 224.859 62.0312 225.139 62.2578 225.494C62.4883 225.85 62.6035 226.256 62.6035 226.713V226.725C62.6035 227.045 62.5469 227.354 62.4336 227.65C62.3242 227.947 62.1289 228.277 61.8477 228.641C61.5664 229 61.1699 229.443 60.6582 229.971L58.4727 232.227L58.7363 231.74V232.227L58.4785 232.051H62.7441V233H57.2715ZM67.3438 233.199C66.7188 233.199 66.1836 233.02 65.7383 232.66C65.2969 232.301 64.957 231.791 64.7188 231.131C64.4805 230.467 64.3613 229.682 64.3613 228.775V228.764C64.3613 227.857 64.4805 227.074 64.7188 226.414C64.957 225.754 65.2969 225.244 65.7383 224.885C66.1836 224.525 66.7188 224.346 67.3438 224.346C67.9688 224.346 68.5039 224.525 68.9492 224.885C69.3945 225.244 69.7363 225.754 69.9746 226.414C70.2168 227.074 70.3379 227.857 70.3379 228.764V228.775C70.3379 229.682 70.2168 230.467 69.9746 231.131C69.7363 231.791 69.3945 232.301 68.9492 232.66C68.5039 233.02 67.9688 233.199 67.3438 233.199ZM67.3438 232.279C67.75 232.279 68.0957 232.137 68.3809 231.852C68.6699 231.566 68.8906 231.162 69.043 230.639C69.1992 230.115 69.2773 229.494 69.2773 228.775V228.764C69.2773 228.045 69.1992 227.426 69.043 226.906C68.8906 226.383 68.6699 225.98 68.3809 225.699C68.0957 225.414 67.75 225.271 67.3438 225.271C66.9414 225.271 66.5957 225.414 66.3066 225.699C66.0215 225.98 65.8027 226.383 65.6504 226.906C65.498 227.426 65.4219 228.045 65.4219 228.764V228.775C65.4219 229.494 65.498 230.115 65.6504 230.639C65.8027 231.162 66.0215 231.566 66.3066 231.852C66.5957 232.137 66.9414 232.279 67.3438 232.279ZM75.5117 233V224.176H76.5312V233H75.5117ZM79.4902 233L77.0234 229.906L77.7734 229.256L80.7734 233H79.4902ZM76.4023 230.727L76.3555 229.443H76.625L79.3555 226.684H80.5918L77.5918 229.578L77.3457 229.818L76.4023 230.727ZM84.2773 235.227C83.7695 235.227 83.3262 235.154 82.9473 235.01C82.5684 234.869 82.2656 234.668 82.0391 234.406C81.8164 234.148 81.6777 233.848 81.623 233.504L81.6348 233.498H82.6895L82.6953 233.504C82.75 233.742 82.9141 233.938 83.1875 234.09C83.4609 234.246 83.8242 234.324 84.2773 234.324C84.8438 234.324 85.2852 234.195 85.6016 233.938C85.9219 233.684 86.082 233.324 86.082 232.859V231.582H85.9883C85.8555 231.812 85.6895 232.01 85.4902 232.174C85.291 232.338 85.0664 232.463 84.8164 232.549C84.5664 232.631 84.2969 232.672 84.0078 232.672C83.4648 232.672 82.9941 232.543 82.5957 232.285C82.2012 232.023 81.8965 231.664 81.6816 231.207C81.4668 230.75 81.3594 230.227 81.3594 229.637V229.625C81.3594 229.035 81.4668 228.512 81.6816 228.055C81.9004 227.594 82.209 227.232 82.6074 226.971C83.0059 226.705 83.4805 226.572 84.0312 226.572C84.3281 226.572 84.6016 226.619 84.8516 226.713C85.1016 226.807 85.3223 226.939 85.5137 227.111C85.709 227.283 85.8711 227.488 86 227.727H86.0703V226.684H87.0898V232.912C87.0898 233.381 86.9746 233.789 86.7441 234.137C86.5176 234.484 86.1934 234.752 85.7715 234.939C85.3496 235.131 84.8516 235.227 84.2773 235.227ZM84.2305 231.77C84.6211 231.77 84.9551 231.68 85.2324 231.5C85.5137 231.316 85.7285 231.064 85.877 230.744C86.0293 230.424 86.1055 230.055 86.1055 229.637V229.625C86.1055 229.207 86.0293 228.836 85.877 228.512C85.7285 228.188 85.5137 227.934 85.2324 227.75C84.9551 227.566 84.6211 227.475 84.2305 227.475C83.8398 227.475 83.5078 227.566 83.2344 227.75C82.9648 227.934 82.7578 228.188 82.6133 228.512C82.4727 228.836 82.4023 229.207 82.4023 229.625V229.637C82.4023 230.055 82.4727 230.424 82.6133 230.744C82.7578 231.064 82.9648 231.316 83.2344 231.5C83.5078 231.68 83.8398 231.77 84.2305 231.77Z" fill="#1D2327"/>
<path d="M254.037 232.877C253.436 232.877 252.896 232.785 252.42 232.602C251.947 232.414 251.57 232.143 251.289 231.787C251.012 231.432 250.863 230.998 250.844 230.486L250.85 230.48H252.414V230.486C252.453 230.709 252.537 230.902 252.666 231.066C252.799 231.227 252.98 231.35 253.211 231.436C253.441 231.521 253.725 231.564 254.061 231.564C254.412 231.564 254.703 231.527 254.934 231.453C255.164 231.375 255.336 231.264 255.449 231.119C255.566 230.975 255.625 230.805 255.625 230.609V230.598C255.625 230.324 255.521 230.111 255.314 229.959C255.111 229.803 254.744 229.666 254.213 229.549L253.34 229.35C252.832 229.236 252.402 229.08 252.051 228.881C251.699 228.682 251.432 228.434 251.248 228.137C251.064 227.836 250.973 227.477 250.973 227.059V227.047C250.973 226.551 251.105 226.125 251.371 225.77C251.637 225.414 252 225.143 252.461 224.955C252.922 224.764 253.445 224.668 254.031 224.668C254.645 224.668 255.18 224.768 255.637 224.967C256.098 225.166 256.459 225.449 256.721 225.816C256.986 226.18 257.129 226.609 257.148 227.105L257.143 227.111L255.59 227.117L255.584 227.105C255.557 226.859 255.475 226.654 255.338 226.49C255.201 226.322 255.023 226.195 254.805 226.109C254.586 226.023 254.336 225.98 254.055 225.98C253.738 225.98 253.473 226.021 253.258 226.104C253.043 226.186 252.881 226.297 252.771 226.438C252.662 226.578 252.607 226.738 252.607 226.918V226.93C252.607 227.09 252.654 227.232 252.748 227.357C252.842 227.482 252.986 227.592 253.182 227.686C253.377 227.779 253.633 227.863 253.949 227.938L254.822 228.131C255.623 228.311 256.229 228.576 256.639 228.928C257.053 229.279 257.26 229.777 257.26 230.422V230.434C257.26 230.953 257.119 231.396 256.838 231.764C256.561 232.127 256.178 232.404 255.689 232.596C255.205 232.783 254.654 232.877 254.037 232.877ZM253.732 233.832V223.695H254.406V233.832H253.732ZM262.076 233.188C261.439 233.188 260.881 233.082 260.4 232.871C259.924 232.656 259.547 232.359 259.27 231.98C258.992 231.598 258.832 231.154 258.789 230.65L258.783 230.574H260.477L260.482 230.639C260.51 230.857 260.59 231.053 260.723 231.225C260.859 231.393 261.043 231.525 261.273 231.623C261.504 231.717 261.771 231.764 262.076 231.764C262.377 231.764 262.639 231.713 262.861 231.611C263.088 231.506 263.262 231.361 263.383 231.178C263.508 230.994 263.57 230.783 263.57 230.545V230.533C263.57 230.127 263.426 229.816 263.137 229.602C262.852 229.387 262.453 229.279 261.941 229.279H260.975V228.02H261.918C262.215 228.02 262.473 227.971 262.691 227.873C262.91 227.775 263.08 227.641 263.201 227.469C263.322 227.293 263.383 227.092 263.383 226.865V226.854C263.383 226.619 263.33 226.418 263.225 226.25C263.123 226.078 262.973 225.947 262.773 225.857C262.578 225.764 262.342 225.717 262.064 225.717C261.787 225.717 261.543 225.764 261.332 225.857C261.121 225.951 260.953 226.086 260.828 226.262C260.703 226.434 260.629 226.637 260.605 226.871L260.6 226.924H258.971L258.977 226.854C259.02 226.346 259.172 225.906 259.434 225.535C259.699 225.16 260.055 224.871 260.5 224.668C260.949 224.461 261.471 224.357 262.064 224.357C262.67 224.357 263.197 224.453 263.646 224.645C264.096 224.832 264.441 225.096 264.684 225.436C264.93 225.771 265.053 226.166 265.053 226.619V226.631C265.053 226.982 264.975 227.291 264.818 227.557C264.662 227.822 264.451 228.041 264.186 228.213C263.92 228.385 263.621 228.506 263.289 228.576V228.611C263.918 228.67 264.422 228.873 264.801 229.221C265.18 229.568 265.369 230.029 265.369 230.604V230.615C265.369 231.127 265.23 231.576 264.953 231.963C264.68 232.35 264.297 232.65 263.805 232.865C263.312 233.08 262.736 233.188 262.076 233.188ZM270.139 233.217C269.443 233.217 268.844 233.037 268.34 232.678C267.84 232.314 267.455 231.801 267.186 231.137C266.916 230.473 266.781 229.686 266.781 228.775V228.764C266.781 227.85 266.916 227.062 267.186 226.402C267.455 225.738 267.84 225.227 268.34 224.867C268.844 224.508 269.443 224.328 270.139 224.328C270.838 224.328 271.438 224.508 271.938 224.867C272.438 225.227 272.822 225.738 273.092 226.402C273.361 227.062 273.496 227.85 273.496 228.764V228.775C273.496 229.686 273.361 230.473 273.092 231.137C272.822 231.801 272.438 232.314 271.938 232.678C271.438 233.037 270.838 233.217 270.139 233.217ZM270.139 231.816C270.475 231.816 270.758 231.695 270.988 231.453C271.223 231.211 271.4 230.863 271.521 230.41C271.646 229.957 271.709 229.412 271.709 228.775V228.764C271.709 228.123 271.646 227.578 271.521 227.129C271.4 226.676 271.223 226.33 270.988 226.092C270.758 225.85 270.475 225.729 270.139 225.729C269.807 225.729 269.523 225.85 269.289 226.092C269.059 226.33 268.881 226.676 268.756 227.129C268.635 227.578 268.574 228.123 268.574 228.764V228.775C268.574 229.412 268.635 229.957 268.756 230.41C268.881 230.863 269.059 231.211 269.289 231.453C269.523 231.695 269.807 231.816 270.139 231.816ZM275.723 233.146C275.426 233.146 275.18 233.049 274.984 232.854C274.789 232.658 274.691 232.416 274.691 232.127C274.691 231.838 274.789 231.598 274.984 231.406C275.18 231.211 275.426 231.113 275.723 231.113C276.027 231.113 276.275 231.211 276.467 231.406C276.658 231.598 276.754 231.838 276.754 232.127C276.754 232.416 276.658 232.658 276.467 232.854C276.275 233.049 276.027 233.146 275.723 233.146ZM281.365 233.217C280.67 233.217 280.07 233.037 279.566 232.678C279.066 232.314 278.682 231.801 278.412 231.137C278.143 230.473 278.008 229.686 278.008 228.775V228.764C278.008 227.85 278.143 227.062 278.412 226.402C278.682 225.738 279.066 225.227 279.566 224.867C280.07 224.508 280.67 224.328 281.365 224.328C282.064 224.328 282.664 224.508 283.164 224.867C283.664 225.227 284.049 225.738 284.318 226.402C284.588 227.062 284.723 227.85 284.723 228.764V228.775C284.723 229.686 284.588 230.473 284.318 231.137C284.049 231.801 283.664 232.314 283.164 232.678C282.664 233.037 282.064 233.217 281.365 233.217ZM281.365 231.816C281.701 231.816 281.984 231.695 282.215 231.453C282.449 231.211 282.627 230.863 282.748 230.41C282.873 229.957 282.936 229.412 282.936 228.775V228.764C282.936 228.123 282.873 227.578 282.748 227.129C282.627 226.676 282.449 226.33 282.215 226.092C281.984 225.85 281.701 225.729 281.365 225.729C281.033 225.729 280.75 225.85 280.516 226.092C280.285 226.33 280.107 226.676 279.982 227.129C279.861 227.578 279.801 228.123 279.801 228.764V228.775C279.801 229.412 279.861 229.957 279.982 230.41C280.107 230.863 280.285 231.211 280.516 231.453C280.75 231.695 281.033 231.816 281.365 231.816ZM289.58 233.217C288.885 233.217 288.285 233.037 287.781 232.678C287.281 232.314 286.896 231.801 286.627 231.137C286.357 230.473 286.223 229.686 286.223 228.775V228.764C286.223 227.85 286.357 227.062 286.627 226.402C286.896 225.738 287.281 225.227 287.781 224.867C288.285 224.508 288.885 224.328 289.58 224.328C290.279 224.328 290.879 224.508 291.379 224.867C291.879 225.227 292.264 225.738 292.533 226.402C292.803 227.062 292.938 227.85 292.938 228.764V228.775C292.938 229.686 292.803 230.473 292.533 231.137C292.264 231.801 291.879 232.314 291.379 232.678C290.879 233.037 290.279 233.217 289.58 233.217ZM289.58 231.816C289.916 231.816 290.199 231.695 290.43 231.453C290.664 231.211 290.842 230.863 290.963 230.41C291.088 229.957 291.15 229.412 291.15 228.775V228.764C291.15 228.123 291.088 227.578 290.963 227.129C290.842 226.676 290.664 226.33 290.43 226.092C290.199 225.85 289.916 225.729 289.58 225.729C289.248 225.729 288.965 225.85 288.73 226.092C288.5 226.33 288.322 226.676 288.197 227.129C288.076 227.578 288.016 228.123 288.016 228.764V228.775C288.016 229.412 288.076 229.957 288.197 230.41C288.322 230.863 288.5 231.211 288.73 231.453C288.965 231.695 289.248 231.816 289.58 231.816Z" fill="#1D2327"/>
</svg>
