<svg width="320" height="264" viewBox="0 0 320 264" fill="none" xmlns="http://www.w3.org/2000/svg">
<rect width="320" height="264" rx="8" fill="white"/>
<g clip-path="url(#clip0_15972_11928)">
<circle cx="26" cy="26" r="10" fill="#720EEC"/>
<path d="M22 26.5L25 29.5L30.5 23" stroke="white" stroke-width="2" stroke-linecap="round" stroke-linejoin="round"/>
</g>
<path d="M45.1299 31V21.8403H46.5518L51.4648 28.7275L50.335 28.1499H51.1538V21.8403H52.728V31H51.3125L46.3994 24.1064L47.5293 24.6841H46.7104V31H45.1299ZM57.8252 31.1396C57.1354 31.1396 56.5409 30.9958 56.0415 30.708C55.5422 30.416 55.1571 30.0013 54.8862 29.4639C54.6196 28.9264 54.4863 28.2832 54.4863 27.5342V27.5215C54.4863 26.7809 54.6217 26.1419 54.8926 25.6045C55.1634 25.0628 55.5464 24.6481 56.0415 24.3604C56.5409 24.0726 57.1354 23.9287 57.8252 23.9287C58.515 23.9287 59.1074 24.0726 59.6025 24.3604C60.1019 24.6481 60.487 25.0607 60.7578 25.5981C61.0286 26.1356 61.1641 26.7767 61.1641 27.5215V27.5342C61.1641 28.2832 61.0286 28.9264 60.7578 29.4639C60.4912 30.0013 60.1082 30.416 59.6089 30.708C59.1138 30.9958 58.5192 31.1396 57.8252 31.1396ZM57.8252 29.8574C58.1891 29.8574 58.498 29.7664 58.752 29.5845C59.0101 29.3983 59.2069 29.1338 59.3423 28.791C59.4777 28.444 59.5454 28.0272 59.5454 27.5405V27.5278C59.5454 27.0369 59.4777 26.6201 59.3423 26.2773C59.2069 25.9303 59.0101 25.6659 58.752 25.4839C58.498 25.2977 58.1891 25.2046 57.8252 25.2046C57.4613 25.2046 57.1502 25.2977 56.8921 25.4839C56.634 25.6659 56.4372 25.9303 56.3018 26.2773C56.1663 26.6201 56.0986 27.0369 56.0986 27.5278V27.5405C56.0986 28.0272 56.1663 28.444 56.3018 28.791C56.4372 29.138 56.6318 29.4025 56.8857 29.5845C57.1439 29.7664 57.457 29.8574 57.8252 29.8574ZM68.9463 31.0317C68.1507 31.0317 67.5773 30.8857 67.2261 30.5938C66.8748 30.3018 66.6992 29.8236 66.6992 29.1592V25.2871H65.6201V24.062H66.6992V22.3608H68.3052V24.062H69.7651V25.2871H68.3052V28.7847C68.3052 29.1274 68.3771 29.3792 68.521 29.54C68.6691 29.6966 68.9061 29.7749 69.2319 29.7749C69.3462 29.7749 69.4393 29.7728 69.5112 29.7686C69.5874 29.7601 69.672 29.7516 69.7651 29.7432V30.9619C69.6551 30.9831 69.5282 31 69.3843 31.0127C69.2446 31.0254 69.0986 31.0317 68.9463 31.0317ZM71.4092 31V21.377H72.9897V25.1284H73.0977C73.2627 24.7518 73.5124 24.4577 73.8467 24.2461C74.181 24.0345 74.5978 23.9287 75.0972 23.9287C75.6134 23.9287 76.0493 24.0303 76.4048 24.2334C76.7603 24.4323 77.029 24.7243 77.2109 25.1094C77.3971 25.4945 77.4902 25.9621 77.4902 26.5122V31H75.9097V26.8804C75.9097 26.3387 75.7954 25.9325 75.5669 25.6616C75.3426 25.3908 74.9914 25.2554 74.5132 25.2554C74.2 25.2554 73.9292 25.3252 73.7007 25.4648C73.4722 25.6045 73.2965 25.8013 73.1738 26.0552C73.0511 26.3091 72.9897 26.6095 72.9897 26.9565V31H71.4092ZM79.3564 31V24.062H80.937V25.1284H81.0449C81.1634 24.756 81.375 24.4661 81.6797 24.2588C81.9886 24.0514 82.3716 23.9478 82.8286 23.9478C82.9471 23.9478 83.0635 23.9562 83.1777 23.9731C83.2962 23.9858 83.3936 24.0028 83.4697 24.0239V25.4395C83.3428 25.4098 83.2137 25.3887 83.0825 25.376C82.9556 25.359 82.8223 25.3506 82.6826 25.3506C82.3314 25.3506 82.0246 25.4162 81.7622 25.5474C81.4998 25.6785 81.2967 25.8669 81.1528 26.1123C81.009 26.3535 80.937 26.6392 80.937 26.9692V31H79.3564ZM87.5576 31.1396C86.8678 31.1396 86.2754 30.9937 85.7803 30.7017C85.2894 30.4097 84.9106 29.995 84.644 29.4575C84.3774 28.9201 84.2441 28.2832 84.2441 27.5469V27.5405C84.2441 26.8127 84.3753 26.1779 84.6377 25.6362C84.9043 25.0946 85.2809 24.6756 85.7676 24.3794C86.2542 24.0789 86.8255 23.9287 87.4814 23.9287C88.1416 23.9287 88.7087 24.0747 89.1826 24.3667C89.6608 24.6545 90.029 25.0586 90.2871 25.5791C90.5452 26.0996 90.6743 26.709 90.6743 27.4072V27.9277H85.0376V26.8677H89.8999L89.1509 27.8579V27.2295C89.1509 26.7682 89.0811 26.3853 88.9414 26.0806C88.8018 25.7759 88.6071 25.5474 88.3574 25.395C88.112 25.2427 87.8263 25.1665 87.5005 25.1665C87.1746 25.1665 86.8848 25.2469 86.6309 25.4077C86.3812 25.5643 86.1823 25.797 86.0342 26.106C85.8903 26.4106 85.8184 26.7852 85.8184 27.2295V27.8643C85.8184 28.2917 85.8903 28.6577 86.0342 28.9624C86.1781 29.2629 86.3812 29.4956 86.6436 29.6606C86.9102 29.8215 87.2254 29.9019 87.5894 29.9019C87.8729 29.9019 88.1162 29.8617 88.3193 29.7812C88.5267 29.6966 88.6938 29.5972 88.8208 29.4829C88.9478 29.3644 89.0366 29.2523 89.0874 29.1465L89.1064 29.1021H90.6045L90.5918 29.1592C90.5368 29.3835 90.4352 29.612 90.2871 29.8447C90.1432 30.0732 89.9465 30.2869 89.6968 30.4858C89.4513 30.6805 89.1509 30.8392 88.7954 30.9619C88.4399 31.0804 88.0273 31.1396 87.5576 31.1396ZM94.1465 31.1143C93.7106 31.1143 93.3192 31.0296 92.9722 30.8604C92.6294 30.6911 92.3586 30.452 92.1597 30.1431C91.965 29.8299 91.8677 29.4618 91.8677 29.0386V29.0259C91.8677 28.6154 91.9692 28.262 92.1724 27.9658C92.3755 27.6654 92.6738 27.4305 93.0674 27.2612C93.4609 27.092 93.9391 26.9925 94.502 26.9629L97.0664 26.8042V27.8452L94.7241 27.9976C94.2798 28.0229 93.9518 28.116 93.7402 28.2769C93.5286 28.4377 93.4229 28.6619 93.4229 28.9497V28.9624C93.4229 29.2586 93.535 29.4893 93.7593 29.6543C93.9878 29.8193 94.2777 29.9019 94.6289 29.9019C94.9463 29.9019 95.2298 29.8384 95.4795 29.7114C95.7292 29.5845 95.9259 29.4131 96.0698 29.1973C96.2137 28.9772 96.2856 28.7297 96.2856 28.4546V26.2583C96.2856 25.9113 96.1756 25.6468 95.9556 25.4648C95.7355 25.2786 95.4097 25.1855 94.978 25.1855C94.6183 25.1855 94.3242 25.249 94.0957 25.376C93.8672 25.4987 93.7127 25.6743 93.6323 25.9028L93.626 25.9282H92.1343L92.1406 25.8711C92.1914 25.4818 92.3438 25.1411 92.5977 24.8491C92.8516 24.5571 93.188 24.3307 93.6069 24.1699C94.0259 24.0091 94.5083 23.9287 95.0542 23.9287C95.6551 23.9287 96.1629 24.0218 96.5776 24.208C96.9924 24.39 97.3076 24.6566 97.5234 25.0078C97.7393 25.3548 97.8472 25.7716 97.8472 26.2583V31H96.2856V30.0479H96.1777C96.0508 30.2679 95.8857 30.4583 95.6826 30.6191C95.4837 30.7799 95.2552 30.9027 94.9971 30.9873C94.7389 31.0719 94.4554 31.1143 94.1465 31.1143ZM102.475 31.0317C101.679 31.0317 101.106 30.8857 100.754 30.5938C100.403 30.3018 100.228 29.8236 100.228 29.1592V25.2871H99.1484V24.062H100.228V22.3608H101.833V24.062H103.293V25.2871H101.833V28.7847C101.833 29.1274 101.905 29.3792 102.049 29.54C102.197 29.6966 102.434 29.7749 102.76 29.7749C102.875 29.7749 102.968 29.7728 103.04 29.7686C103.116 29.7601 103.2 29.7516 103.293 29.7432V30.9619C103.183 30.9831 103.056 31 102.913 31.0127C102.773 31.0254 102.627 31.0317 102.475 31.0317ZM107.407 31.1396C106.819 31.1396 106.311 31.0571 105.883 30.8921C105.46 30.7228 105.126 30.4901 104.88 30.1938C104.635 29.8934 104.489 29.5464 104.442 29.1528V29.1401H106.01L106.017 29.1528C106.101 29.394 106.26 29.5908 106.493 29.7432C106.725 29.8955 107.039 29.9717 107.432 29.9717C107.694 29.9717 107.925 29.9357 108.124 29.8638C108.323 29.7876 108.479 29.6839 108.594 29.5527C108.708 29.4215 108.765 29.2692 108.765 29.0957V29.083C108.765 28.8799 108.683 28.7106 108.518 28.5752C108.353 28.4355 108.08 28.3234 107.699 28.2388L106.575 27.9849C106.135 27.8875 105.771 27.7521 105.483 27.5786C105.196 27.4051 104.98 27.1914 104.836 26.9375C104.696 26.6836 104.626 26.3874 104.626 26.0488V26.0425C104.626 25.6235 104.743 25.2554 104.976 24.938C105.213 24.6206 105.541 24.373 105.959 24.1953C106.378 24.0176 106.861 23.9287 107.407 23.9287C107.97 23.9287 108.454 24.0133 108.86 24.1826C109.267 24.3519 109.584 24.5846 109.812 24.8809C110.041 25.1771 110.172 25.5135 110.206 25.8901V25.9028H108.721L108.714 25.8838C108.655 25.6637 108.513 25.4775 108.289 25.3252C108.069 25.1686 107.773 25.0903 107.4 25.0903C107.168 25.0903 106.958 25.1263 106.772 25.1982C106.59 25.2702 106.446 25.3717 106.34 25.5029C106.239 25.6299 106.188 25.7801 106.188 25.9536V25.96C106.188 26.0954 106.222 26.2139 106.29 26.3154C106.361 26.417 106.474 26.5059 106.626 26.582C106.778 26.6582 106.979 26.7259 107.229 26.7852L108.353 27.0327C109.034 27.1851 109.537 27.4115 109.863 27.7119C110.189 28.0124 110.352 28.4165 110.352 28.9243V28.937C110.352 29.3771 110.225 29.7622 109.971 30.0923C109.717 30.4224 109.368 30.6805 108.924 30.8667C108.479 31.0487 107.974 31.1396 107.407 31.1396ZM115.919 31V25.2871H114.783V24.062H115.919V23.3765C115.919 22.911 115.997 22.5259 116.154 22.2212C116.315 21.9165 116.562 21.6901 116.896 21.542C117.231 21.3896 117.654 21.3135 118.166 21.3135C118.335 21.3135 118.492 21.3198 118.636 21.3325C118.78 21.341 118.913 21.3558 119.036 21.377V22.4814C118.976 22.473 118.9 22.4666 118.807 22.4624C118.714 22.4539 118.612 22.4497 118.502 22.4497C118.13 22.4497 117.866 22.5365 117.709 22.71C117.552 22.8792 117.474 23.131 117.474 23.4653V24.062H118.979V25.2871H117.5V31H115.919ZM123.244 31.1396C122.554 31.1396 121.96 30.9958 121.46 30.708C120.961 30.416 120.576 30.0013 120.305 29.4639C120.039 28.9264 119.905 28.2832 119.905 27.5342V27.5215C119.905 26.7809 120.041 26.1419 120.312 25.6045C120.582 25.0628 120.965 24.6481 121.46 24.3604C121.96 24.0726 122.554 23.9287 123.244 23.9287C123.934 23.9287 124.526 24.0726 125.021 24.3604C125.521 24.6481 125.906 25.0607 126.177 25.5981C126.448 26.1356 126.583 26.7767 126.583 27.5215V27.5342C126.583 28.2832 126.448 28.9264 126.177 29.4639C125.91 30.0013 125.527 30.416 125.028 30.708C124.533 30.9958 123.938 31.1396 123.244 31.1396ZM123.244 29.8574C123.608 29.8574 123.917 29.7664 124.171 29.5845C124.429 29.3983 124.626 29.1338 124.761 28.791C124.897 28.444 124.964 28.0272 124.964 27.5405V27.5278C124.964 27.0369 124.897 26.6201 124.761 26.2773C124.626 25.9303 124.429 25.6659 124.171 25.4839C123.917 25.2977 123.608 25.2046 123.244 25.2046C122.88 25.2046 122.569 25.2977 122.311 25.4839C122.053 25.6659 121.856 25.9303 121.721 26.2773C121.585 26.6201 121.518 27.0369 121.518 27.5278V27.5405C121.518 28.0272 121.585 28.444 121.721 28.791C121.856 29.138 122.051 29.4025 122.305 29.5845C122.563 29.7664 122.876 29.8574 123.244 29.8574ZM130.468 31.1396C129.951 31.1396 129.518 31.0402 129.167 30.8413C128.815 30.6382 128.551 30.3441 128.373 29.959C128.195 29.5697 128.106 29.0999 128.106 28.5498V24.062H129.687V28.188C129.687 28.7254 129.793 29.1296 130.004 29.4004C130.216 29.6712 130.561 29.8066 131.039 29.8066C131.293 29.8066 131.517 29.7686 131.712 29.6924C131.911 29.612 132.076 29.4977 132.207 29.3496C132.338 29.2015 132.438 29.0238 132.505 28.8164C132.573 28.6048 132.607 28.3678 132.607 28.1055V24.062H134.188V31H132.607V29.9463H132.499C132.393 30.1917 132.245 30.4054 132.055 30.5874C131.864 30.7651 131.636 30.9027 131.369 31C131.103 31.0931 130.802 31.1396 130.468 31.1396ZM136.117 31V24.062H137.698V25.1284H137.806C137.971 24.7518 138.22 24.4577 138.555 24.2461C138.889 24.0345 139.306 23.9287 139.805 23.9287C140.58 23.9287 141.172 24.153 141.583 24.6016C141.993 25.0501 142.198 25.687 142.198 26.5122V31H140.618V26.8804C140.618 26.3387 140.503 25.9325 140.275 25.6616C140.051 25.3908 139.699 25.2554 139.221 25.2554C138.908 25.2554 138.637 25.3252 138.409 25.4648C138.18 25.6045 138.005 25.8013 137.882 26.0552C137.759 26.3091 137.698 26.6095 137.698 26.9565V31H136.117ZM146.565 31.1143C145.99 31.1143 145.488 30.9704 145.061 30.6826C144.634 30.3906 144.304 29.9759 144.071 29.4385C143.838 28.901 143.722 28.2684 143.722 27.5405V27.5278C143.722 26.7915 143.836 26.1567 144.064 25.6235C144.297 25.0861 144.625 24.6735 145.048 24.3857C145.476 24.0938 145.981 23.9478 146.565 23.9478C146.883 23.9478 147.179 23.9985 147.454 24.1001C147.729 24.1974 147.97 24.3371 148.178 24.519C148.389 24.701 148.554 24.9168 148.673 25.1665H148.787V21.377H150.361V31H148.787V29.9146H148.673C148.546 30.1642 148.379 30.38 148.171 30.562C147.968 30.7397 147.731 30.8773 147.46 30.9746C147.19 31.0677 146.891 31.1143 146.565 31.1143ZM147.061 29.7812C147.42 29.7812 147.729 29.6924 147.987 29.5146C148.25 29.3327 148.451 29.0745 148.59 28.7402C148.734 28.4017 148.806 28.0018 148.806 27.5405V27.5278C148.806 27.0623 148.734 26.6624 148.59 26.3281C148.451 25.9938 148.25 25.7357 147.987 25.5537C147.729 25.3717 147.42 25.2808 147.061 25.2808C146.705 25.2808 146.396 25.3717 146.134 25.5537C145.876 25.7314 145.677 25.9896 145.537 26.3281C145.397 26.6624 145.328 27.0623 145.328 27.5278V27.5405C145.328 28.006 145.397 28.4059 145.537 28.7402C145.677 29.0745 145.876 29.3327 146.134 29.5146C146.392 29.6924 146.701 29.7812 147.061 29.7812Z" fill="#1D2327"/>
<path d="M19.8496 58.1992C19.2324 58.1992 18.6934 58.0996 18.2324 57.9004C17.7754 57.6973 17.4121 57.4199 17.1426 57.0684C16.877 56.7129 16.7227 56.3066 16.6797 55.8496L16.6738 55.7852H17.7285L17.7344 55.8496C17.7617 56.1309 17.8691 56.375 18.0566 56.582C18.248 56.7852 18.502 56.9434 18.8184 57.0566C19.1387 57.1699 19.502 57.2266 19.9082 57.2266C20.291 57.2266 20.6309 57.166 20.9277 57.0449C21.2285 56.9199 21.4648 56.748 21.6367 56.5293C21.8086 56.3105 21.8945 56.0586 21.8945 55.7734V55.7676C21.8945 55.416 21.7656 55.1211 21.5078 54.8828C21.25 54.6406 20.8301 54.4551 20.248 54.3262L19.3105 54.1211C18.4629 53.9336 17.8457 53.6445 17.459 53.2539C17.0762 52.8594 16.8848 52.3555 16.8848 51.7422V51.7363C16.8887 51.2676 17.0156 50.8535 17.2656 50.4941C17.5195 50.1348 17.8691 49.8535 18.3145 49.6504C18.7637 49.4473 19.2793 49.3457 19.8613 49.3457C20.4238 49.3457 20.9219 49.4473 21.3555 49.6504C21.7891 49.8496 22.1328 50.1191 22.3867 50.459C22.6445 50.7988 22.7871 51.1797 22.8145 51.6016L22.8203 51.6836H21.7656L21.7539 51.6074C21.7148 51.3574 21.6133 51.1367 21.4492 50.9453C21.2852 50.75 21.0664 50.5957 20.793 50.4824C20.5195 50.3691 20.1992 50.3145 19.832 50.3184C19.4805 50.3184 19.1641 50.373 18.8828 50.4824C18.6016 50.5918 18.377 50.75 18.209 50.957C18.0449 51.1602 17.9629 51.4102 17.9629 51.707V51.7129C17.9629 52.0488 18.0879 52.332 18.3379 52.5625C18.5879 52.793 19 52.9707 19.5742 53.0957L20.5117 53.3066C21.1016 53.4355 21.5762 53.6035 21.9355 53.8105C22.2949 54.0176 22.5566 54.2715 22.7207 54.5723C22.8887 54.8691 22.9727 55.2207 22.9727 55.627V55.6328C22.9727 56.1602 22.8438 56.6152 22.5859 56.998C22.3281 57.3809 21.9648 57.6777 21.4961 57.8887C21.0273 58.0957 20.4785 58.1992 19.8496 58.1992ZM27.1855 58.1113C26.5957 58.1113 26.084 57.9766 25.6504 57.707C25.2168 57.4375 24.8809 57.0566 24.6426 56.5645C24.4043 56.0723 24.2852 55.4922 24.2852 54.8242V54.8125C24.2852 54.1562 24.4023 53.5859 24.6367 53.1016C24.875 52.6172 25.2109 52.2422 25.6445 51.9766C26.0781 51.707 26.5898 51.5723 27.1797 51.5723C27.6914 51.5723 28.1328 51.6621 28.5039 51.8418C28.875 52.0215 29.1719 52.2637 29.3945 52.5684C29.6172 52.8691 29.7598 53.207 29.8223 53.582L29.8281 53.6172H28.8145L28.8086 53.5996C28.7305 53.2871 28.5527 53.0215 28.2754 52.8027C27.998 52.584 27.6328 52.4746 27.1797 52.4746C26.8008 52.4746 26.4727 52.5703 26.1953 52.7617C25.918 52.9531 25.7031 53.2246 25.5508 53.5762C25.4023 53.9238 25.3281 54.3359 25.3281 54.8125V54.8242C25.3281 55.3086 25.4043 55.7305 25.5566 56.0898C25.709 56.4453 25.9238 56.7207 26.2012 56.916C26.4785 57.1113 26.8047 57.209 27.1797 57.209C27.6055 57.209 27.9531 57.1172 28.2227 56.9336C28.4922 56.75 28.6855 56.4824 28.8027 56.1309L28.8145 56.0957L29.8223 56.0898L29.8105 56.1543C29.7246 56.5332 29.5723 56.8711 29.3535 57.168C29.1348 57.4609 28.8457 57.6914 28.4863 57.8594C28.127 58.0273 27.6934 58.1113 27.1855 58.1113ZM33.0508 58.1113C32.6523 58.1113 32.293 58.0352 31.9727 57.8828C31.6562 57.7305 31.4043 57.5137 31.2168 57.2324C31.0332 56.9512 30.9414 56.6191 30.9414 56.2363V56.2246C30.9414 55.8496 31.0312 55.5293 31.2109 55.2637C31.3906 54.9941 31.6523 54.7832 31.9961 54.6309C32.3398 54.4785 32.7559 54.3887 33.2441 54.3613L35.5645 54.2207V55.0352L33.3672 55.1758C32.8867 55.2031 32.5352 55.3027 32.3125 55.4746C32.0938 55.6465 31.9844 55.8887 31.9844 56.2012V56.2129C31.9844 56.5332 32.1055 56.7832 32.3477 56.9629C32.5898 57.1387 32.8945 57.2266 33.2617 57.2266C33.6094 57.2266 33.918 57.1582 34.1875 57.0215C34.457 56.8809 34.668 56.6914 34.8203 56.4531C34.9766 56.2148 35.0547 55.9453 35.0547 55.6445V53.6758C35.0547 53.2852 34.9355 52.9883 34.6973 52.7852C34.4629 52.5781 34.1094 52.4746 33.6367 52.4746C33.2578 52.4746 32.9473 52.543 32.7051 52.6797C32.4629 52.8125 32.3008 53.002 32.2188 53.248L32.2129 53.2656H31.1934L31.1992 53.2305C31.2539 52.8984 31.3906 52.6094 31.6094 52.3633C31.832 52.1133 32.1191 51.9199 32.4707 51.7832C32.8223 51.6426 33.2227 51.5723 33.6719 51.5723C34.1875 51.5723 34.623 51.6562 34.9785 51.8242C35.3379 51.9922 35.6094 52.2344 35.793 52.5508C35.9805 52.8633 36.0742 53.2383 36.0742 53.6758V58H35.0547V57.0684H34.9609C34.8281 57.291 34.666 57.4805 34.4746 57.6367C34.2871 57.793 34.0742 57.9121 33.8359 57.9941C33.5977 58.0723 33.3359 58.1113 33.0508 58.1113ZM37.9375 58V51.6836H38.957V52.6328H39.0508C39.2109 52.2969 39.4414 52.0371 39.7422 51.8535C40.043 51.666 40.4258 51.5723 40.8906 51.5723C41.6016 51.5723 42.1465 51.7754 42.5254 52.1816C42.9082 52.584 43.0996 53.1602 43.0996 53.9102V58H42.0801V54.1562C42.0801 53.5859 41.959 53.1641 41.7168 52.8906C41.4785 52.6133 41.1074 52.4746 40.6035 52.4746C40.2676 52.4746 39.9766 52.5469 39.7305 52.6914C39.4844 52.8359 39.293 53.041 39.1562 53.3066C39.0234 53.5723 38.957 53.8906 38.957 54.2617V58H37.9375ZM44.9453 58V51.6836H45.9648V52.6328H46.0586C46.2188 52.2969 46.4492 52.0371 46.75 51.8535C47.0508 51.666 47.4336 51.5723 47.8984 51.5723C48.6094 51.5723 49.1543 51.7754 49.5332 52.1816C49.916 52.584 50.1074 53.1602 50.1074 53.9102V58H49.0879V54.1562C49.0879 53.5859 48.9668 53.1641 48.7246 52.8906C48.4863 52.6133 48.1152 52.4746 47.6113 52.4746C47.2754 52.4746 46.9844 52.5469 46.7383 52.6914C46.4922 52.8359 46.3008 53.041 46.1641 53.3066C46.0312 53.5723 45.9648 53.8906 45.9648 54.2617V58H44.9453ZM54.5312 58.1113C53.9297 58.1113 53.4121 57.9785 52.9785 57.7129C52.5488 57.4473 52.2168 57.0723 51.9824 56.5879C51.752 56.0996 51.6367 55.5254 51.6367 54.8652V54.8594C51.6367 54.207 51.752 53.6348 51.9824 53.1426C52.2168 52.6504 52.5469 52.2656 52.9727 51.9883C53.3984 51.7109 53.8965 51.5723 54.4668 51.5723C55.041 51.5723 55.5332 51.7051 55.9434 51.9707C56.3574 52.2363 56.6738 52.6074 56.8926 53.084C57.1152 53.5566 57.2266 54.1074 57.2266 54.7363V55.1348H52.1641V54.3203H56.7051L56.2012 55.0645V54.6602C56.2012 54.1641 56.127 53.7559 55.9785 53.4355C55.8301 53.1152 55.625 52.877 55.3633 52.7207C55.1016 52.5605 54.8008 52.4805 54.4609 52.4805C54.1211 52.4805 53.8164 52.5645 53.5469 52.7324C53.2812 52.8965 53.0703 53.1406 52.9141 53.4648C52.7578 53.7891 52.6797 54.1875 52.6797 54.6602V55.0645C52.6797 55.5137 52.7559 55.8984 52.9082 56.2188C53.0605 56.5352 53.2773 56.7793 53.5586 56.9512C53.8398 57.1191 54.1719 57.2031 54.5547 57.2031C54.8398 57.2031 55.0879 57.1641 55.2988 57.0859C55.5098 57.0078 55.6836 56.9082 55.8203 56.7871C55.957 56.666 56.0527 56.543 56.1074 56.418L56.1309 56.3652H57.1504L57.1387 56.4121C57.084 56.627 56.9863 56.8359 56.8457 57.0391C56.709 57.2383 56.5312 57.4199 56.3125 57.584C56.0938 57.7441 55.834 57.873 55.5332 57.9707C55.2363 58.0645 54.9023 58.1113 54.5312 58.1113ZM61.1406 58.1113C60.6094 58.1113 60.1445 57.9766 59.7461 57.707C59.3477 57.4375 59.0391 57.0586 58.8203 56.5703C58.6016 56.0781 58.4922 55.5039 58.4922 54.8477V54.8359C58.4922 54.1758 58.6016 53.6016 58.8203 53.1133C59.0391 52.625 59.3457 52.2461 59.7402 51.9766C60.1387 51.707 60.6055 51.5723 61.1406 51.5723C61.4297 51.5723 61.7012 51.6191 61.9551 51.7129C62.2129 51.8027 62.4414 51.9297 62.6406 52.0938C62.8398 52.2578 62.9961 52.4531 63.1094 52.6797H63.2031V49.1758H64.2227V58H63.2031V56.9922H63.1094C62.9805 57.2266 62.8184 57.4277 62.623 57.5957C62.4277 57.7598 62.2051 57.8867 61.9551 57.9766C61.7051 58.0664 61.4336 58.1113 61.1406 58.1113ZM61.375 57.209C61.7578 57.209 62.0879 57.1133 62.3652 56.9219C62.6426 56.7305 62.8555 56.459 63.0039 56.1074C63.1523 55.752 63.2266 55.332 63.2266 54.8477V54.8359C63.2266 54.3477 63.1523 53.9277 63.0039 53.5762C62.8555 53.2246 62.6426 52.9531 62.3652 52.7617C62.0879 52.5703 61.7578 52.4746 61.375 52.4746C60.9922 52.4746 60.6621 52.5703 60.3848 52.7617C60.1113 52.9492 59.9004 53.2188 59.752 53.5703C59.6074 53.9219 59.5352 54.3438 59.5352 54.8359V54.8477C59.5352 55.3359 59.6074 55.7578 59.752 56.1133C59.9004 56.4648 60.1113 56.7363 60.3848 56.9277C60.6621 57.1152 60.9922 57.209 61.375 57.209ZM69.5488 58V57.2734L72.4082 54.1797C72.7676 53.7891 73.0488 53.4668 73.252 53.2129C73.4551 52.9551 73.5977 52.7227 73.6797 52.5156C73.7617 52.3086 73.8027 52.082 73.8027 51.8359V51.8242C73.8027 51.5273 73.7383 51.2617 73.6094 51.0273C73.4805 50.793 73.2969 50.6074 73.0586 50.4707C72.8203 50.334 72.5352 50.2656 72.2031 50.2656C71.8672 50.2656 71.5723 50.3359 71.3184 50.4766C71.0645 50.6133 70.8672 50.8066 70.7266 51.0566C70.5859 51.3027 70.5156 51.5918 70.5156 51.9238L70.5098 51.9355L69.502 51.9297L69.4902 51.9238C69.4941 51.4238 69.6152 50.9805 69.8535 50.5938C70.0918 50.2031 70.4199 49.8984 70.8379 49.6797C71.2559 49.457 71.7344 49.3457 72.2734 49.3457C72.7656 49.3457 73.209 49.4492 73.6035 49.6562C73.998 49.8594 74.3086 50.1387 74.5352 50.4941C74.7656 50.8496 74.8809 51.2559 74.8809 51.7129V51.7246C74.8809 52.0449 74.8242 52.3535 74.7109 52.6504C74.6016 52.9473 74.4062 53.2773 74.125 53.6406C73.8438 54 73.4473 54.4434 72.9355 54.9707L70.75 57.2266L71.0137 56.7402V57.2266L70.7559 57.0508H75.0215V58H69.5488ZM80.1719 58V51.6836H81.1914V52.6445H81.2852C81.4258 52.3047 81.6406 52.041 81.9297 51.8535C82.2227 51.666 82.5762 51.5723 82.9902 51.5723C83.2754 51.5723 83.5312 51.6191 83.7578 51.7129C83.9844 51.8066 84.1797 51.9375 84.3438 52.1055C84.5078 52.2695 84.6387 52.4609 84.7363 52.6797H84.8301C84.9434 52.457 85.0957 52.2637 85.2871 52.0996C85.4785 51.9316 85.6992 51.8027 85.9492 51.7129C86.2031 51.6191 86.4746 51.5723 86.7637 51.5723C87.1934 51.5723 87.5566 51.6523 87.8535 51.8125C88.1543 51.9727 88.3828 52.207 88.5391 52.5156C88.6953 52.8203 88.7734 53.1934 88.7734 53.6348V58H87.7539V53.8691C87.7539 53.5566 87.7051 53.2988 87.6074 53.0957C87.5137 52.8887 87.3691 52.7344 87.1738 52.6328C86.9785 52.5273 86.7324 52.4746 86.4355 52.4746C86.1426 52.4746 85.8867 52.541 85.668 52.6738C85.4492 52.8066 85.2793 52.9844 85.1582 53.207C85.0371 53.4258 84.9766 53.6699 84.9766 53.9395V58H83.957V53.7109C83.957 53.4609 83.9023 53.2441 83.793 53.0605C83.6875 52.873 83.5352 52.7285 83.3359 52.627C83.1406 52.5254 82.9102 52.4746 82.6445 52.4746C82.3711 52.4746 82.123 52.5469 81.9004 52.6914C81.6816 52.8359 81.5078 53.0312 81.3789 53.2773C81.2539 53.5195 81.1914 53.7891 81.1914 54.0859V58H80.1719ZM90.6367 58V51.6836H91.6562V58H90.6367ZM91.1523 50.4648C90.9609 50.4648 90.7949 50.3965 90.6543 50.2598C90.5176 50.1191 90.4492 49.9531 90.4492 49.7617C90.4492 49.5664 90.5176 49.4004 90.6543 49.2637C90.7949 49.127 90.9609 49.0586 91.1523 49.0586C91.3477 49.0586 91.5137 49.127 91.6504 49.2637C91.7871 49.4004 91.8555 49.5664 91.8555 49.7617C91.8555 49.9531 91.7871 50.1191 91.6504 50.2598C91.5137 50.3965 91.3477 50.4648 91.1523 50.4648ZM93.5781 58V51.6836H94.5977V52.6328H94.6914C94.8516 52.2969 95.082 52.0371 95.3828 51.8535C95.6836 51.666 96.0664 51.5723 96.5312 51.5723C97.2422 51.5723 97.7871 51.7754 98.166 52.1816C98.5488 52.584 98.7402 53.1602 98.7402 53.9102V58H97.7207V54.1562C97.7207 53.5859 97.5996 53.1641 97.3574 52.8906C97.1191 52.6133 96.748 52.4746 96.2441 52.4746C95.9082 52.4746 95.6172 52.5469 95.3711 52.6914C95.125 52.8359 94.9336 53.041 94.7969 53.3066C94.6641 53.5723 94.5977 53.8906 94.5977 54.2617V58H93.5781ZM102.701 58.1113C102.225 58.1113 101.824 58.0215 101.5 57.8418C101.176 57.6582 100.932 57.3926 100.768 57.0449C100.607 56.6934 100.527 56.2695 100.527 55.7734V51.6836H101.547V55.5273C101.547 56.0938 101.656 56.5156 101.875 56.793C102.098 57.0703 102.461 57.209 102.965 57.209C103.242 57.209 103.486 57.168 103.697 57.0859C103.912 57.0039 104.092 56.8867 104.236 56.7344C104.381 56.5781 104.488 56.3906 104.559 56.1719C104.633 55.9492 104.67 55.6992 104.67 55.4219V51.6836H105.689V58H104.67V57.0566H104.576C104.475 57.2793 104.336 57.4707 104.16 57.6309C103.984 57.7871 103.773 57.9062 103.527 57.9883C103.285 58.0703 103.01 58.1113 102.701 58.1113ZM109.838 58.0469C109.189 58.0469 108.719 57.916 108.426 57.6543C108.137 57.3926 107.992 56.9609 107.992 56.3594V52.5273H106.996V51.6836H107.992V50.0488H109.047V51.6836H110.43V52.5273H109.047V56.1016C109.047 56.4727 109.117 56.7402 109.258 56.9043C109.398 57.0645 109.633 57.1445 109.961 57.1445C110.051 57.1445 110.127 57.1426 110.189 57.1387C110.256 57.1348 110.336 57.1289 110.43 57.1211V57.9883C110.332 58.0039 110.234 58.0176 110.137 58.0293C110.039 58.041 109.939 58.0469 109.838 58.0469ZM114.449 58.1113C113.848 58.1113 113.33 57.9785 112.896 57.7129C112.467 57.4473 112.135 57.0723 111.9 56.5879C111.67 56.0996 111.555 55.5254 111.555 54.8652V54.8594C111.555 54.207 111.67 53.6348 111.9 53.1426C112.135 52.6504 112.465 52.2656 112.891 51.9883C113.316 51.7109 113.814 51.5723 114.385 51.5723C114.959 51.5723 115.451 51.7051 115.861 51.9707C116.275 52.2363 116.592 52.6074 116.811 53.084C117.033 53.5566 117.145 54.1074 117.145 54.7363V55.1348H112.082V54.3203H116.623L116.119 55.0645V54.6602C116.119 54.1641 116.045 53.7559 115.896 53.4355C115.748 53.1152 115.543 52.877 115.281 52.7207C115.02 52.5605 114.719 52.4805 114.379 52.4805C114.039 52.4805 113.734 52.5645 113.465 52.7324C113.199 52.8965 112.988 53.1406 112.832 53.4648C112.676 53.7891 112.598 54.1875 112.598 54.6602V55.0645C112.598 55.5137 112.674 55.8984 112.826 56.2188C112.979 56.5352 113.195 56.7793 113.477 56.9512C113.758 57.1191 114.09 57.2031 114.473 57.2031C114.758 57.2031 115.006 57.1641 115.217 57.0859C115.428 57.0078 115.602 56.9082 115.738 56.7871C115.875 56.666 115.971 56.543 116.025 56.418L116.049 56.3652H117.068L117.057 56.4121C117.002 56.627 116.904 56.8359 116.764 57.0391C116.627 57.2383 116.449 57.4199 116.23 57.584C116.012 57.7441 115.752 57.873 115.451 57.9707C115.154 58.0645 114.82 58.1113 114.449 58.1113ZM120.895 58.1113C120.426 58.1113 120.012 58.041 119.652 57.9004C119.293 57.7559 119.004 57.5547 118.785 57.2969C118.57 57.0391 118.443 56.7363 118.404 56.3887H119.447C119.533 56.6504 119.701 56.8613 119.951 57.0215C120.201 57.1816 120.527 57.2617 120.93 57.2617C121.215 57.2617 121.465 57.2207 121.68 57.1387C121.898 57.0527 122.07 56.9375 122.195 56.793C122.32 56.6445 122.383 56.4746 122.383 56.2832V56.2715C122.383 56.0566 122.297 55.875 122.125 55.7266C121.953 55.5742 121.672 55.4512 121.281 55.3574L120.303 55.123C119.908 55.0293 119.584 54.9082 119.33 54.7598C119.076 54.6074 118.889 54.4219 118.768 54.2031C118.646 53.9805 118.586 53.7188 118.586 53.418V53.4121C118.586 53.0605 118.688 52.7461 118.891 52.4688C119.098 52.1914 119.379 51.9727 119.734 51.8125C120.09 51.6523 120.49 51.5723 120.936 51.5723C121.377 51.5723 121.768 51.6426 122.107 51.7832C122.451 51.9199 122.727 52.1152 122.934 52.3691C123.145 52.623 123.273 52.9219 123.32 53.2656H122.318C122.252 53.0156 122.1 52.8125 121.861 52.6562C121.623 52.5 121.312 52.4219 120.93 52.4219C120.68 52.4219 120.457 52.4629 120.262 52.5449C120.066 52.623 119.912 52.7324 119.799 52.873C119.686 53.0137 119.629 53.1777 119.629 53.3652V53.377C119.629 53.5176 119.666 53.6426 119.74 53.752C119.814 53.8613 119.93 53.957 120.086 54.0391C120.242 54.1211 120.443 54.1934 120.689 54.2559L121.662 54.4902C122.256 54.6348 122.697 54.8418 122.986 55.1113C123.279 55.3809 123.426 55.7422 123.426 56.1953V56.207C123.426 56.582 123.314 56.9141 123.092 57.2031C122.869 57.4883 122.566 57.7109 122.184 57.8711C121.805 58.0312 121.375 58.1113 120.895 58.1113ZM130.117 58.1113C129.719 58.1113 129.359 58.0352 129.039 57.8828C128.723 57.7305 128.471 57.5137 128.283 57.2324C128.1 56.9512 128.008 56.6191 128.008 56.2363V56.2246C128.008 55.8496 128.098 55.5293 128.277 55.2637C128.457 54.9941 128.719 54.7832 129.062 54.6309C129.406 54.4785 129.822 54.3887 130.311 54.3613L132.631 54.2207V55.0352L130.434 55.1758C129.953 55.2031 129.602 55.3027 129.379 55.4746C129.16 55.6465 129.051 55.8887 129.051 56.2012V56.2129C129.051 56.5332 129.172 56.7832 129.414 56.9629C129.656 57.1387 129.961 57.2266 130.328 57.2266C130.676 57.2266 130.984 57.1582 131.254 57.0215C131.523 56.8809 131.734 56.6914 131.887 56.4531C132.043 56.2148 132.121 55.9453 132.121 55.6445V53.6758C132.121 53.2852 132.002 52.9883 131.764 52.7852C131.529 52.5781 131.176 52.4746 130.703 52.4746C130.324 52.4746 130.014 52.543 129.771 52.6797C129.529 52.8125 129.367 53.002 129.285 53.248L129.279 53.2656H128.26L128.266 53.2305C128.32 52.8984 128.457 52.6094 128.676 52.3633C128.898 52.1133 129.186 51.9199 129.537 51.7832C129.889 51.6426 130.289 51.5723 130.738 51.5723C131.254 51.5723 131.689 51.6562 132.045 51.8242C132.404 51.9922 132.676 52.2344 132.859 52.5508C133.047 52.8633 133.141 53.2383 133.141 53.6758V58H132.121V57.0684H132.027C131.895 57.291 131.732 57.4805 131.541 57.6367C131.354 57.793 131.141 57.9121 130.902 57.9941C130.664 58.0723 130.402 58.1113 130.117 58.1113ZM137.605 60.2266C137.098 60.2266 136.654 60.1543 136.275 60.0098C135.896 59.8691 135.594 59.668 135.367 59.4062C135.145 59.1484 135.006 58.8477 134.951 58.5039L134.963 58.498H136.018L136.023 58.5039C136.078 58.7422 136.242 58.9375 136.516 59.0898C136.789 59.2461 137.152 59.3242 137.605 59.3242C138.172 59.3242 138.613 59.1953 138.93 58.9375C139.25 58.6836 139.41 58.3242 139.41 57.8594V56.582H139.316C139.184 56.8125 139.018 57.0098 138.818 57.1738C138.619 57.3379 138.395 57.4629 138.145 57.5488C137.895 57.6309 137.625 57.6719 137.336 57.6719C136.793 57.6719 136.322 57.543 135.924 57.2852C135.529 57.0234 135.225 56.6641 135.01 56.207C134.795 55.75 134.688 55.2266 134.688 54.6367V54.625C134.688 54.0352 134.795 53.5117 135.01 53.0547C135.229 52.5938 135.537 52.2324 135.936 51.9707C136.334 51.7051 136.809 51.5723 137.359 51.5723C137.656 51.5723 137.93 51.6191 138.18 51.7129C138.43 51.8066 138.65 51.9395 138.842 52.1113C139.037 52.2832 139.199 52.4883 139.328 52.7266H139.398V51.6836H140.418V57.9121C140.418 58.3809 140.303 58.7891 140.072 59.1367C139.846 59.4844 139.521 59.752 139.1 59.9395C138.678 60.1309 138.18 60.2266 137.605 60.2266ZM137.559 56.7695C137.949 56.7695 138.283 56.6797 138.561 56.5C138.842 56.3164 139.057 56.0645 139.205 55.7441C139.357 55.4238 139.434 55.0547 139.434 54.6367V54.625C139.434 54.207 139.357 53.8359 139.205 53.5117C139.057 53.1875 138.842 52.9336 138.561 52.75C138.283 52.5664 137.949 52.4746 137.559 52.4746C137.168 52.4746 136.836 52.5664 136.562 52.75C136.293 52.9336 136.086 53.1875 135.941 53.5117C135.801 53.8359 135.73 54.207 135.73 54.625V54.6367C135.73 55.0547 135.801 55.4238 135.941 55.7441C136.086 56.0645 136.293 56.3164 136.562 56.5C136.836 56.6797 137.168 56.7695 137.559 56.7695ZM144.912 58.1113C144.314 58.1113 143.797 57.9805 143.359 57.7188C142.926 57.4531 142.59 57.0762 142.352 56.5879C142.117 56.0996 142 55.5195 142 54.8477V54.8359C142 54.1602 142.117 53.5781 142.352 53.0898C142.59 52.6016 142.926 52.2266 143.359 51.9648C143.797 51.7031 144.314 51.5723 144.912 51.5723C145.514 51.5723 146.031 51.7031 146.465 51.9648C146.898 52.2266 147.232 52.6016 147.467 53.0898C147.705 53.5781 147.824 54.1602 147.824 54.8359V54.8477C147.824 55.5195 147.705 56.0996 147.467 56.5879C147.232 57.0762 146.898 57.4531 146.465 57.7188C146.031 57.9805 145.514 58.1113 144.912 58.1113ZM144.912 57.209C145.311 57.209 145.648 57.1152 145.926 56.9277C146.203 56.7402 146.414 56.4707 146.559 56.1191C146.707 55.7676 146.781 55.3438 146.781 54.8477V54.8359C146.781 54.3359 146.707 53.9102 146.559 53.5586C146.414 53.207 146.203 52.9395 145.926 52.7559C145.648 52.5684 145.311 52.4746 144.912 52.4746C144.514 52.4746 144.176 52.5684 143.898 52.7559C143.621 52.9395 143.408 53.207 143.26 53.5586C143.115 53.9102 143.043 54.3359 143.043 54.8359V54.8477C143.043 55.3438 143.115 55.7676 143.26 56.1191C143.408 56.4707 143.621 56.7402 143.898 56.9277C144.176 57.1152 144.514 57.209 144.912 57.209Z" fill="#50575E"/>
<path d="M27.6055 88.9824V88.0449H29.9961C30.6016 88.0449 31.0703 87.8887 31.4023 87.5762C31.7344 87.2598 31.9004 86.8242 31.9004 86.2695V86.2578C31.9004 85.6992 31.7344 85.2637 31.4023 84.9512C31.0703 84.6387 30.6016 84.4824 29.9961 84.4824H27.6055V83.5449H30.2656C30.7969 83.5449 31.2656 83.6582 31.6719 83.8848C32.0781 84.1113 32.3965 84.4277 32.627 84.834C32.8613 85.2402 32.9785 85.7109 32.9785 86.2461V86.2578C32.9785 86.793 32.8613 87.2656 32.627 87.6758C32.3965 88.0859 32.0781 88.4062 31.6719 88.6367C31.2656 88.8672 30.7969 88.9824 30.2656 88.9824H27.6055ZM27.0781 92V83.5449H28.1328V92H27.0781ZM34.6367 92V83.1758H35.6562V92H34.6367ZM39.7285 92.1113C39.252 92.1113 38.8516 92.0215 38.5273 91.8418C38.2031 91.6582 37.959 91.3926 37.7949 91.0449C37.6348 90.6934 37.5547 90.2695 37.5547 89.7734V85.6836H38.5742V89.5273C38.5742 90.0938 38.6836 90.5156 38.9023 90.793C39.125 91.0703 39.4883 91.209 39.9922 91.209C40.2695 91.209 40.5137 91.168 40.7246 91.0859C40.9395 91.0039 41.1191 90.8867 41.2637 90.7344C41.4082 90.5781 41.5156 90.3906 41.5859 90.1719C41.6602 89.9492 41.6973 89.6992 41.6973 89.4219V85.6836H42.7168V92H41.6973V91.0566H41.6035C41.502 91.2793 41.3633 91.4707 41.1875 91.6309C41.0117 91.7871 40.8008 91.9062 40.5547 91.9883C40.3125 92.0703 40.0371 92.1113 39.7285 92.1113ZM47.2227 94.2266C46.7148 94.2266 46.2715 94.1543 45.8926 94.0098C45.5137 93.8691 45.2109 93.668 44.9844 93.4062C44.7617 93.1484 44.623 92.8477 44.5684 92.5039L44.5801 92.498H45.6348L45.6406 92.5039C45.6953 92.7422 45.8594 92.9375 46.1328 93.0898C46.4062 93.2461 46.7695 93.3242 47.2227 93.3242C47.7891 93.3242 48.2305 93.1953 48.5469 92.9375C48.8672 92.6836 49.0273 92.3242 49.0273 91.8594V90.582H48.9336C48.8008 90.8125 48.6348 91.0098 48.4355 91.1738C48.2363 91.3379 48.0117 91.4629 47.7617 91.5488C47.5117 91.6309 47.2422 91.6719 46.9531 91.6719C46.4102 91.6719 45.9395 91.543 45.541 91.2852C45.1465 91.0234 44.8418 90.6641 44.627 90.207C44.4121 89.75 44.3047 89.2266 44.3047 88.6367V88.625C44.3047 88.0352 44.4121 87.5117 44.627 87.0547C44.8457 86.5938 45.1543 86.2324 45.5527 85.9707C45.9512 85.7051 46.4258 85.5723 46.9766 85.5723C47.2734 85.5723 47.5469 85.6191 47.7969 85.7129C48.0469 85.8066 48.2676 85.9395 48.459 86.1113C48.6543 86.2832 48.8164 86.4883 48.9453 86.7266H49.0156V85.6836H50.0352V91.9121C50.0352 92.3809 49.9199 92.7891 49.6895 93.1367C49.4629 93.4844 49.1387 93.752 48.7168 93.9395C48.2949 94.1309 47.7969 94.2266 47.2227 94.2266ZM47.1758 90.7695C47.5664 90.7695 47.9004 90.6797 48.1777 90.5C48.459 90.3164 48.6738 90.0645 48.8223 89.7441C48.9746 89.4238 49.0508 89.0547 49.0508 88.6367V88.625C49.0508 88.207 48.9746 87.8359 48.8223 87.5117C48.6738 87.1875 48.459 86.9336 48.1777 86.75C47.9004 86.5664 47.5664 86.4746 47.1758 86.4746C46.7852 86.4746 46.4531 86.5664 46.1797 86.75C45.9102 86.9336 45.7031 87.1875 45.5586 87.5117C45.418 87.8359 45.3477 88.207 45.3477 88.625V88.6367C45.3477 89.0547 45.418 89.4238 45.5586 89.7441C45.7031 90.0645 45.9102 90.3164 46.1797 90.5C46.4531 90.6797 46.7852 90.7695 47.1758 90.7695ZM51.957 92V85.6836H52.9766V92H51.957ZM52.4727 84.4648C52.2812 84.4648 52.1152 84.3965 51.9746 84.2598C51.8379 84.1191 51.7695 83.9531 51.7695 83.7617C51.7695 83.5664 51.8379 83.4004 51.9746 83.2637C52.1152 83.127 52.2812 83.0586 52.4727 83.0586C52.668 83.0586 52.834 83.127 52.9707 83.2637C53.1074 83.4004 53.1758 83.5664 53.1758 83.7617C53.1758 83.9531 53.1074 84.1191 52.9707 84.2598C52.834 84.3965 52.668 84.4648 52.4727 84.4648ZM54.8984 92V85.6836H55.918V86.6328H56.0117C56.1719 86.2969 56.4023 86.0371 56.7031 85.8535C57.0039 85.666 57.3867 85.5723 57.8516 85.5723C58.5625 85.5723 59.1074 85.7754 59.4863 86.1816C59.8691 86.584 60.0605 87.1602 60.0605 87.9102V92H59.041V88.1562C59.041 87.5859 58.9199 87.1641 58.6777 86.8906C58.4395 86.6133 58.0684 86.4746 57.5645 86.4746C57.2285 86.4746 56.9375 86.5469 56.6914 86.6914C56.4453 86.8359 56.2539 87.041 56.1172 87.3066C55.9844 87.5723 55.918 87.8906 55.918 88.2617V92H54.8984ZM64.0742 92.1113C63.6055 92.1113 63.1914 92.041 62.832 91.9004C62.4727 91.7559 62.1836 91.5547 61.9648 91.2969C61.75 91.0391 61.623 90.7363 61.584 90.3887H62.627C62.7129 90.6504 62.8809 90.8613 63.1309 91.0215C63.3809 91.1816 63.707 91.2617 64.1094 91.2617C64.3945 91.2617 64.6445 91.2207 64.8594 91.1387C65.0781 91.0527 65.25 90.9375 65.375 90.793C65.5 90.6445 65.5625 90.4746 65.5625 90.2832V90.2715C65.5625 90.0566 65.4766 89.875 65.3047 89.7266C65.1328 89.5742 64.8516 89.4512 64.4609 89.3574L63.4824 89.123C63.0879 89.0293 62.7637 88.9082 62.5098 88.7598C62.2559 88.6074 62.0684 88.4219 61.9473 88.2031C61.8262 87.9805 61.7656 87.7188 61.7656 87.418V87.4121C61.7656 87.0605 61.8672 86.7461 62.0703 86.4688C62.2773 86.1914 62.5586 85.9727 62.9141 85.8125C63.2695 85.6523 63.6699 85.5723 64.1152 85.5723C64.5566 85.5723 64.9473 85.6426 65.2871 85.7832C65.6309 85.9199 65.9062 86.1152 66.1133 86.3691C66.3242 86.623 66.4531 86.9219 66.5 87.2656H65.498C65.4316 87.0156 65.2793 86.8125 65.041 86.6562C64.8027 86.5 64.4922 86.4219 64.1094 86.4219C63.8594 86.4219 63.6367 86.4629 63.4414 86.5449C63.2461 86.623 63.0918 86.7324 62.9785 86.873C62.8652 87.0137 62.8086 87.1777 62.8086 87.3652V87.377C62.8086 87.5176 62.8457 87.6426 62.9199 87.752C62.9941 87.8613 63.1094 87.957 63.2656 88.0391C63.4219 88.1211 63.623 88.1934 63.8691 88.2559L64.8418 88.4902C65.4355 88.6348 65.877 88.8418 66.166 89.1113C66.459 89.3809 66.6055 89.7422 66.6055 90.1953V90.207C66.6055 90.582 66.4941 90.9141 66.2715 91.2031C66.0488 91.4883 65.7461 91.7109 65.3633 91.8711C64.9844 92.0312 64.5547 92.1113 64.0742 92.1113Z" fill="#1D2327"/>
<path d="M264.57 92.2109C263.77 92.2109 263.078 92.0312 262.496 91.6719C261.918 91.3125 261.471 90.8027 261.154 90.1426C260.842 89.4785 260.686 88.6914 260.686 87.7812V87.7695C260.686 86.8555 260.842 86.0684 261.154 85.4082C261.471 84.7441 261.918 84.2324 262.496 83.873C263.074 83.5137 263.764 83.334 264.564 83.334C265.205 83.334 265.783 83.4609 266.299 83.7148C266.814 83.9648 267.234 84.3125 267.559 84.7578C267.883 85.1992 268.078 85.707 268.145 86.2812L268.139 86.3281H266.662L266.656 86.2988C266.586 85.9668 266.453 85.6777 266.258 85.4316C266.062 85.1816 265.82 84.9883 265.531 84.8516C265.242 84.7109 264.92 84.6406 264.564 84.6406C264.088 84.6406 263.674 84.7676 263.322 85.0215C262.971 85.2754 262.699 85.6367 262.508 86.1055C262.32 86.5703 262.227 87.123 262.227 87.7637V87.7754C262.227 88.416 262.32 88.9707 262.508 89.4395C262.699 89.9082 262.971 90.2695 263.322 90.5234C263.674 90.7773 264.09 90.9043 264.57 90.9043C264.93 90.9043 265.252 90.8418 265.537 90.7168C265.826 90.5918 266.066 90.416 266.258 90.1895C266.453 89.959 266.586 89.6895 266.656 89.3809L266.668 89.3457H268.145V89.3926C268.07 89.9551 267.873 90.4473 267.553 90.8691C267.232 91.291 266.818 91.6211 266.311 91.8594C265.803 92.0938 265.223 92.2109 264.57 92.2109ZM269.738 92V83.1172H271.197V92H269.738ZM275.773 92.1289C275.137 92.1289 274.59 91.9941 274.133 91.7246C273.68 91.4551 273.33 91.0723 273.084 90.5762C272.838 90.0801 272.715 89.4922 272.715 88.8125V88.8066C272.715 88.1348 272.836 87.5488 273.078 87.0488C273.324 86.5488 273.672 86.1621 274.121 85.8887C274.57 85.6113 275.098 85.4727 275.703 85.4727C276.312 85.4727 276.836 85.6074 277.273 85.877C277.715 86.1426 278.055 86.5156 278.293 86.9961C278.531 87.4766 278.65 88.0391 278.65 88.6836V89.1641H273.447V88.1855H277.936L277.244 89.0996V88.5195C277.244 88.0938 277.18 87.7402 277.051 87.459C276.922 87.1777 276.742 86.9668 276.512 86.8262C276.285 86.6855 276.021 86.6152 275.721 86.6152C275.42 86.6152 275.152 86.6895 274.918 86.8379C274.688 86.9824 274.504 87.1973 274.367 87.4824C274.234 87.7637 274.168 88.1094 274.168 88.5195V89.1055C274.168 89.5 274.234 89.8379 274.367 90.1191C274.5 90.3965 274.688 90.6113 274.93 90.7637C275.176 90.9121 275.467 90.9863 275.803 90.9863C276.064 90.9863 276.289 90.9492 276.477 90.875C276.668 90.7969 276.822 90.7051 276.939 90.5996C277.057 90.4902 277.139 90.3867 277.186 90.2891L277.203 90.248H278.586L278.574 90.3008C278.523 90.5078 278.43 90.7188 278.293 90.9336C278.16 91.1445 277.979 91.3418 277.748 91.5254C277.521 91.7051 277.244 91.8516 276.916 91.9648C276.588 92.0742 276.207 92.1289 275.773 92.1289ZM281.855 92.1055C281.453 92.1055 281.092 92.0273 280.771 91.8711C280.455 91.7148 280.205 91.4941 280.021 91.209C279.842 90.9199 279.752 90.5801 279.752 90.1895V90.1777C279.752 89.7988 279.846 89.4727 280.033 89.1992C280.221 88.9219 280.496 88.7051 280.859 88.5488C281.223 88.3926 281.664 88.3008 282.184 88.2734L284.551 88.127V89.0879L282.389 89.2285C281.979 89.252 281.676 89.3379 281.48 89.4863C281.285 89.6348 281.188 89.8418 281.188 90.1074V90.1191C281.188 90.3926 281.291 90.6055 281.498 90.7578C281.709 90.9102 281.977 90.9863 282.301 90.9863C282.594 90.9863 282.855 90.9277 283.086 90.8105C283.316 90.6934 283.498 90.5352 283.631 90.3359C283.764 90.1328 283.83 89.9043 283.83 89.6504V87.623C283.83 87.3027 283.729 87.0586 283.525 86.8906C283.322 86.7188 283.021 86.6328 282.623 86.6328C282.291 86.6328 282.02 86.6914 281.809 86.8086C281.598 86.9219 281.455 87.084 281.381 87.2949L281.375 87.3184H279.998L280.004 87.2656C280.051 86.9062 280.191 86.5918 280.426 86.3223C280.66 86.0527 280.971 85.8438 281.357 85.6953C281.744 85.5469 282.189 85.4727 282.693 85.4727C283.248 85.4727 283.717 85.5586 284.1 85.7305C284.482 85.8984 284.773 86.1445 284.973 86.4688C285.172 86.7891 285.271 87.1738 285.271 87.623V92H283.83V91.1211H283.73C283.613 91.3242 283.461 91.5 283.273 91.6484C283.09 91.7969 282.879 91.9102 282.641 91.9883C282.402 92.0664 282.141 92.1055 281.855 92.1055ZM287.023 92V85.5957H288.482V86.5801H288.582C288.734 86.2324 288.965 85.9609 289.273 85.7656C289.582 85.5703 289.967 85.4727 290.428 85.4727C291.143 85.4727 291.689 85.6797 292.068 86.0938C292.447 86.5078 292.637 87.0957 292.637 87.8574V92H291.178V88.1973C291.178 87.6973 291.072 87.3223 290.861 87.0723C290.654 86.8223 290.33 86.6973 289.889 86.6973C289.6 86.6973 289.35 86.7617 289.139 86.8906C288.928 87.0195 288.766 87.2012 288.652 87.4355C288.539 87.6699 288.482 87.9473 288.482 88.2676V92H287.023Z" fill="#5007AA"/>
<path d="M29.2754 135V127.494H26.5508V126.545H33.0547V127.494H30.3301V135H29.2754ZM34.6133 135V126.176H35.6328V129.633H35.7266C35.8867 129.297 36.1172 129.037 36.418 128.854C36.7188 128.666 37.1016 128.572 37.5664 128.572C38.0391 128.572 38.4395 128.664 38.7676 128.848C39.0957 129.027 39.3457 129.291 39.5176 129.639C39.6895 129.986 39.7754 130.41 39.7754 130.91V135H38.7559V131.156C38.7559 130.586 38.6348 130.164 38.3926 129.891C38.1543 129.613 37.7832 129.475 37.2793 129.475C36.9434 129.475 36.6523 129.547 36.4062 129.691C36.1602 129.836 35.9688 130.041 35.832 130.307C35.6992 130.572 35.6328 130.891 35.6328 131.262V135H34.6133ZM44.1992 135.111C43.5977 135.111 43.0801 134.979 42.6465 134.713C42.2168 134.447 41.8848 134.072 41.6504 133.588C41.4199 133.1 41.3047 132.525 41.3047 131.865V131.859C41.3047 131.207 41.4199 130.635 41.6504 130.143C41.8848 129.65 42.2148 129.266 42.6406 128.988C43.0664 128.711 43.5645 128.572 44.1348 128.572C44.709 128.572 45.2012 128.705 45.6113 128.971C46.0254 129.236 46.3418 129.607 46.5605 130.084C46.7832 130.557 46.8945 131.107 46.8945 131.736V132.135H41.832V131.32H46.373L45.8691 132.064V131.66C45.8691 131.164 45.7949 130.756 45.6465 130.436C45.498 130.115 45.293 129.877 45.0312 129.721C44.7695 129.561 44.4688 129.48 44.1289 129.48C43.7891 129.48 43.4844 129.564 43.2148 129.732C42.9492 129.896 42.7383 130.141 42.582 130.465C42.4258 130.789 42.3477 131.188 42.3477 131.66V132.064C42.3477 132.514 42.4238 132.898 42.5762 133.219C42.7285 133.535 42.9453 133.779 43.2266 133.951C43.5078 134.119 43.8398 134.203 44.2227 134.203C44.5078 134.203 44.7559 134.164 44.9668 134.086C45.1777 134.008 45.3516 133.908 45.4883 133.787C45.625 133.666 45.7207 133.543 45.7754 133.418L45.7988 133.365H46.8184L46.8066 133.412C46.752 133.627 46.6543 133.836 46.5137 134.039C46.377 134.238 46.1992 134.42 45.9805 134.584C45.7617 134.744 45.502 134.873 45.2012 134.971C44.9043 135.064 44.5703 135.111 44.1992 135.111ZM48.4766 135V128.684H49.4961V129.645H49.5898C49.7305 129.305 49.9453 129.041 50.2344 128.854C50.5273 128.666 50.8809 128.572 51.2949 128.572C51.5801 128.572 51.8359 128.619 52.0625 128.713C52.2891 128.807 52.4844 128.938 52.6484 129.105C52.8125 129.27 52.9434 129.461 53.041 129.68H53.1348C53.248 129.457 53.4004 129.264 53.5918 129.1C53.7832 128.932 54.0039 128.803 54.2539 128.713C54.5078 128.619 54.7793 128.572 55.0684 128.572C55.498 128.572 55.8613 128.652 56.1582 128.812C56.459 128.973 56.6875 129.207 56.8438 129.516C57 129.82 57.0781 130.193 57.0781 130.635V135H56.0586V130.869C56.0586 130.557 56.0098 130.299 55.9121 130.096C55.8184 129.889 55.6738 129.734 55.4785 129.633C55.2832 129.527 55.0371 129.475 54.7402 129.475C54.4473 129.475 54.1914 129.541 53.9727 129.674C53.7539 129.807 53.584 129.984 53.4629 130.207C53.3418 130.426 53.2812 130.67 53.2812 130.939V135H52.2617V130.711C52.2617 130.461 52.207 130.244 52.0977 130.061C51.9922 129.873 51.8398 129.729 51.6406 129.627C51.4453 129.525 51.2148 129.475 50.9492 129.475C50.6758 129.475 50.4277 129.547 50.2051 129.691C49.9863 129.836 49.8125 130.031 49.6836 130.277C49.5586 130.52 49.4961 130.789 49.4961 131.086V135H48.4766ZM61.4961 135.111C60.8945 135.111 60.377 134.979 59.9434 134.713C59.5137 134.447 59.1816 134.072 58.9473 133.588C58.7168 133.1 58.6016 132.525 58.6016 131.865V131.859C58.6016 131.207 58.7168 130.635 58.9473 130.143C59.1816 129.65 59.5117 129.266 59.9375 128.988C60.3633 128.711 60.8613 128.572 61.4316 128.572C62.0059 128.572 62.498 128.705 62.9082 128.971C63.3223 129.236 63.6387 129.607 63.8574 130.084C64.0801 130.557 64.1914 131.107 64.1914 131.736V132.135H59.1289V131.32H63.6699L63.166 132.064V131.66C63.166 131.164 63.0918 130.756 62.9434 130.436C62.7949 130.115 62.5898 129.877 62.3281 129.721C62.0664 129.561 61.7656 129.48 61.4258 129.48C61.0859 129.48 60.7812 129.564 60.5117 129.732C60.2461 129.896 60.0352 130.141 59.8789 130.465C59.7227 130.789 59.6445 131.188 59.6445 131.66V132.064C59.6445 132.514 59.7207 132.898 59.873 133.219C60.0254 133.535 60.2422 133.779 60.5234 133.951C60.8047 134.119 61.1367 134.203 61.5195 134.203C61.8047 134.203 62.0527 134.164 62.2637 134.086C62.4746 134.008 62.6484 133.908 62.7852 133.787C62.9219 133.666 63.0176 133.543 63.0723 133.418L63.0957 133.365H64.1152L64.1035 133.412C64.0488 133.627 63.9512 133.836 63.8105 134.039C63.6738 134.238 63.4961 134.42 63.2773 134.584C63.0586 134.744 62.7988 134.873 62.498 134.971C62.2012 135.064 61.8672 135.111 61.4961 135.111ZM67.9414 135.111C67.4727 135.111 67.0586 135.041 66.6992 134.9C66.3398 134.756 66.0508 134.555 65.832 134.297C65.6172 134.039 65.4902 133.736 65.4512 133.389H66.4941C66.5801 133.65 66.748 133.861 66.998 134.021C67.248 134.182 67.5742 134.262 67.9766 134.262C68.2617 134.262 68.5117 134.221 68.7266 134.139C68.9453 134.053 69.1172 133.938 69.2422 133.793C69.3672 133.645 69.4297 133.475 69.4297 133.283V133.271C69.4297 133.057 69.3438 132.875 69.1719 132.727C69 132.574 68.7188 132.451 68.3281 132.357L67.3496 132.123C66.9551 132.029 66.6309 131.908 66.377 131.76C66.123 131.607 65.9355 131.422 65.8145 131.203C65.6934 130.98 65.6328 130.719 65.6328 130.418V130.412C65.6328 130.061 65.7344 129.746 65.9375 129.469C66.1445 129.191 66.4258 128.973 66.7812 128.812C67.1367 128.652 67.5371 128.572 67.9824 128.572C68.4238 128.572 68.8145 128.643 69.1543 128.783C69.498 128.92 69.7734 129.115 69.9805 129.369C70.1914 129.623 70.3203 129.922 70.3672 130.266H69.3652C69.2988 130.016 69.1465 129.812 68.9082 129.656C68.6699 129.5 68.3594 129.422 67.9766 129.422C67.7266 129.422 67.5039 129.463 67.3086 129.545C67.1133 129.623 66.959 129.732 66.8457 129.873C66.7324 130.014 66.6758 130.178 66.6758 130.365V130.377C66.6758 130.518 66.7129 130.643 66.7871 130.752C66.8613 130.861 66.9766 130.957 67.1328 131.039C67.2891 131.121 67.4902 131.193 67.7363 131.256L68.709 131.49C69.3027 131.635 69.7441 131.842 70.0332 132.111C70.3262 132.381 70.4727 132.742 70.4727 133.195V133.207C70.4727 133.582 70.3613 133.914 70.1387 134.203C69.916 134.488 69.6133 134.711 69.2305 134.871C68.8516 135.031 68.4219 135.111 67.9414 135.111Z" fill="#1D2327"/>
<path d="M264.57 135.211C263.77 135.211 263.078 135.031 262.496 134.672C261.918 134.312 261.471 133.803 261.154 133.143C260.842 132.479 260.686 131.691 260.686 130.781V130.77C260.686 129.855 260.842 129.068 261.154 128.408C261.471 127.744 261.918 127.232 262.496 126.873C263.074 126.514 263.764 126.334 264.564 126.334C265.205 126.334 265.783 126.461 266.299 126.715C266.814 126.965 267.234 127.312 267.559 127.758C267.883 128.199 268.078 128.707 268.145 129.281L268.139 129.328H266.662L266.656 129.299C266.586 128.967 266.453 128.678 266.258 128.432C266.062 128.182 265.82 127.988 265.531 127.852C265.242 127.711 264.92 127.641 264.564 127.641C264.088 127.641 263.674 127.768 263.322 128.021C262.971 128.275 262.699 128.637 262.508 129.105C262.32 129.57 262.227 130.123 262.227 130.764V130.775C262.227 131.416 262.32 131.971 262.508 132.439C262.699 132.908 262.971 133.27 263.322 133.523C263.674 133.777 264.09 133.904 264.57 133.904C264.93 133.904 265.252 133.842 265.537 133.717C265.826 133.592 266.066 133.416 266.258 133.189C266.453 132.959 266.586 132.689 266.656 132.381L266.668 132.346H268.145V132.393C268.07 132.955 267.873 133.447 267.553 133.869C267.232 134.291 266.818 134.621 266.311 134.859C265.803 135.094 265.223 135.211 264.57 135.211ZM269.738 135V126.117H271.197V135H269.738ZM275.773 135.129C275.137 135.129 274.59 134.994 274.133 134.725C273.68 134.455 273.33 134.072 273.084 133.576C272.838 133.08 272.715 132.492 272.715 131.812V131.807C272.715 131.135 272.836 130.549 273.078 130.049C273.324 129.549 273.672 129.162 274.121 128.889C274.57 128.611 275.098 128.473 275.703 128.473C276.312 128.473 276.836 128.607 277.273 128.877C277.715 129.143 278.055 129.516 278.293 129.996C278.531 130.477 278.65 131.039 278.65 131.684V132.164H273.447V131.186H277.936L277.244 132.1V131.52C277.244 131.094 277.18 130.74 277.051 130.459C276.922 130.178 276.742 129.967 276.512 129.826C276.285 129.686 276.021 129.615 275.721 129.615C275.42 129.615 275.152 129.689 274.918 129.838C274.688 129.982 274.504 130.197 274.367 130.482C274.234 130.764 274.168 131.109 274.168 131.52V132.105C274.168 132.5 274.234 132.838 274.367 133.119C274.5 133.396 274.688 133.611 274.93 133.764C275.176 133.912 275.467 133.986 275.803 133.986C276.064 133.986 276.289 133.949 276.477 133.875C276.668 133.797 276.822 133.705 276.939 133.6C277.057 133.49 277.139 133.387 277.186 133.289L277.203 133.248H278.586L278.574 133.301C278.523 133.508 278.43 133.719 278.293 133.934C278.16 134.145 277.979 134.342 277.748 134.525C277.521 134.705 277.244 134.852 276.916 134.965C276.588 135.074 276.207 135.129 275.773 135.129ZM281.855 135.105C281.453 135.105 281.092 135.027 280.771 134.871C280.455 134.715 280.205 134.494 280.021 134.209C279.842 133.92 279.752 133.58 279.752 133.189V133.178C279.752 132.799 279.846 132.473 280.033 132.199C280.221 131.922 280.496 131.705 280.859 131.549C281.223 131.393 281.664 131.301 282.184 131.273L284.551 131.127V132.088L282.389 132.229C281.979 132.252 281.676 132.338 281.48 132.486C281.285 132.635 281.188 132.842 281.188 133.107V133.119C281.188 133.393 281.291 133.605 281.498 133.758C281.709 133.91 281.977 133.986 282.301 133.986C282.594 133.986 282.855 133.928 283.086 133.811C283.316 133.693 283.498 133.535 283.631 133.336C283.764 133.133 283.83 132.904 283.83 132.65V130.623C283.83 130.303 283.729 130.059 283.525 129.891C283.322 129.719 283.021 129.633 282.623 129.633C282.291 129.633 282.02 129.691 281.809 129.809C281.598 129.922 281.455 130.084 281.381 130.295L281.375 130.318H279.998L280.004 130.266C280.051 129.906 280.191 129.592 280.426 129.322C280.66 129.053 280.971 128.844 281.357 128.695C281.744 128.547 282.189 128.473 282.693 128.473C283.248 128.473 283.717 128.559 284.1 128.73C284.482 128.898 284.773 129.145 284.973 129.469C285.172 129.789 285.271 130.174 285.271 130.623V135H283.83V134.121H283.73C283.613 134.324 283.461 134.5 283.273 134.648C283.09 134.797 282.879 134.91 282.641 134.988C282.402 135.066 282.141 135.105 281.855 135.105ZM287.023 135V128.596H288.482V129.58H288.582C288.734 129.232 288.965 128.961 289.273 128.766C289.582 128.57 289.967 128.473 290.428 128.473C291.143 128.473 291.689 128.68 292.068 129.094C292.447 129.508 292.637 130.096 292.637 130.857V135H291.178V131.197C291.178 130.697 291.072 130.322 290.861 130.072C290.654 129.822 290.33 129.697 289.889 129.697C289.6 129.697 289.35 129.762 289.139 129.891C288.928 130.02 288.766 130.201 288.652 130.436C288.539 130.67 288.482 130.947 288.482 131.268V135H287.023Z" fill="#5007AA"/>
<path d="M30.4824 178.199C29.7168 178.199 29.0547 178.02 28.4961 177.66C27.9375 177.301 27.5059 176.791 27.2012 176.131C26.9004 175.471 26.75 174.688 26.75 173.781V173.77C26.75 172.859 26.9004 172.074 27.2012 171.414C27.5059 170.754 27.9355 170.244 28.4902 169.885C29.0488 169.525 29.7109 169.346 30.4766 169.346C31.0703 169.346 31.6094 169.463 32.0938 169.697C32.582 169.928 32.9844 170.25 33.3008 170.664C33.6172 171.074 33.8164 171.549 33.8984 172.088L33.8926 172.1H32.832L32.8262 172.088C32.7324 171.725 32.5742 171.412 32.3516 171.15C32.1289 170.885 31.8574 170.68 31.5371 170.535C31.2207 170.391 30.8672 170.318 30.4766 170.318C29.9375 170.318 29.4688 170.459 29.0703 170.74C28.6758 171.021 28.3711 171.42 28.1562 171.936C27.9414 172.451 27.834 173.062 27.834 173.77V173.781C27.834 174.484 27.9414 175.094 28.1562 175.609C28.3711 176.125 28.6758 176.523 29.0703 176.805C29.4688 177.086 29.9395 177.227 30.4824 177.227C30.877 177.227 31.2344 177.164 31.5547 177.039C31.875 176.91 32.1445 176.729 32.3633 176.494C32.582 176.256 32.7344 175.975 32.8203 175.65L32.832 175.639H33.8984V175.65C33.8047 176.166 33.6016 176.615 33.2891 176.998C32.9766 177.377 32.5801 177.672 32.0996 177.883C31.623 178.094 31.084 178.199 30.4824 178.199ZM38.1348 178.111C37.5371 178.111 37.0195 177.98 36.582 177.719C36.1484 177.453 35.8125 177.076 35.5742 176.588C35.3398 176.1 35.2227 175.52 35.2227 174.848V174.836C35.2227 174.16 35.3398 173.578 35.5742 173.09C35.8125 172.602 36.1484 172.227 36.582 171.965C37.0195 171.703 37.5371 171.572 38.1348 171.572C38.7363 171.572 39.2539 171.703 39.6875 171.965C40.1211 172.227 40.4551 172.602 40.6895 173.09C40.9277 173.578 41.0469 174.16 41.0469 174.836V174.848C41.0469 175.52 40.9277 176.1 40.6895 176.588C40.4551 177.076 40.1211 177.453 39.6875 177.719C39.2539 177.98 38.7363 178.111 38.1348 178.111ZM38.1348 177.209C38.5332 177.209 38.8711 177.115 39.1484 176.928C39.4258 176.74 39.6367 176.471 39.7812 176.119C39.9297 175.768 40.0039 175.344 40.0039 174.848V174.836C40.0039 174.336 39.9297 173.91 39.7812 173.559C39.6367 173.207 39.4258 172.939 39.1484 172.756C38.8711 172.568 38.5332 172.475 38.1348 172.475C37.7363 172.475 37.3984 172.568 37.1211 172.756C36.8438 172.939 36.6309 173.207 36.4824 173.559C36.3379 173.91 36.2656 174.336 36.2656 174.836V174.848C36.2656 175.344 36.3379 175.768 36.4824 176.119C36.6309 176.471 36.8438 176.74 37.1211 176.928C37.3984 177.115 37.7363 177.209 38.1348 177.209ZM42.6289 178V171.684H43.6484V172.621H43.7422C43.8633 172.289 44.0684 172.031 44.3574 171.848C44.6465 171.664 45.0039 171.572 45.4297 171.572C45.5273 171.572 45.623 171.578 45.7168 171.59C45.8145 171.598 45.8887 171.605 45.9395 171.613V172.604C45.834 172.584 45.7305 172.57 45.6289 172.562C45.5312 172.551 45.4258 172.545 45.3125 172.545C44.9883 172.545 44.7012 172.609 44.4512 172.738C44.2012 172.867 44.0039 173.047 43.8594 173.277C43.7188 173.508 43.6484 173.777 43.6484 174.086V178H42.6289ZM49.6016 178.111C49 178.111 48.4824 177.979 48.0488 177.713C47.6191 177.447 47.2871 177.072 47.0527 176.588C46.8223 176.1 46.707 175.525 46.707 174.865V174.859C46.707 174.207 46.8223 173.635 47.0527 173.143C47.2871 172.65 47.6172 172.266 48.043 171.988C48.4688 171.711 48.9668 171.572 49.5371 171.572C50.1113 171.572 50.6035 171.705 51.0137 171.971C51.4277 172.236 51.7441 172.607 51.9629 173.084C52.1855 173.557 52.2969 174.107 52.2969 174.736V175.135H47.2344V174.32H51.7754L51.2715 175.064V174.66C51.2715 174.164 51.1973 173.756 51.0488 173.436C50.9004 173.115 50.6953 172.877 50.4336 172.721C50.1719 172.561 49.8711 172.48 49.5312 172.48C49.1914 172.48 48.8867 172.564 48.6172 172.732C48.3516 172.896 48.1406 173.141 47.9844 173.465C47.8281 173.789 47.75 174.188 47.75 174.66V175.064C47.75 175.514 47.8262 175.898 47.9785 176.219C48.1309 176.535 48.3477 176.779 48.6289 176.951C48.9102 177.119 49.2422 177.203 49.625 177.203C49.9102 177.203 50.1582 177.164 50.3691 177.086C50.5801 177.008 50.7539 176.908 50.8906 176.787C51.0273 176.666 51.123 176.543 51.1777 176.418L51.2012 176.365H52.2207L52.209 176.412C52.1543 176.627 52.0566 176.836 51.916 177.039C51.7793 177.238 51.6016 177.42 51.3828 177.584C51.1641 177.744 50.9043 177.873 50.6035 177.971C50.3066 178.064 49.9727 178.111 49.6016 178.111ZM57.6758 178V172.527H56.627V171.684H57.6758V170.98C57.6758 170.559 57.7441 170.211 57.8809 169.938C58.0215 169.66 58.2285 169.455 58.502 169.322C58.7754 169.186 59.1113 169.117 59.5098 169.117C59.6348 169.117 59.752 169.123 59.8613 169.135C59.9746 169.143 60.084 169.156 60.1895 169.176V169.99C60.127 169.979 60.0547 169.971 59.9727 169.967C59.8906 169.963 59.8047 169.961 59.7148 169.961C59.3516 169.961 59.0898 170.049 58.9297 170.225C58.7734 170.4 58.6953 170.662 58.6953 171.01V171.684H60.1309V172.527H58.6953V178H57.6758ZM61.625 178V171.684H62.6445V178H61.625ZM62.1406 170.465C61.9492 170.465 61.7832 170.396 61.6426 170.26C61.5059 170.119 61.4375 169.953 61.4375 169.762C61.4375 169.566 61.5059 169.4 61.6426 169.264C61.7832 169.127 61.9492 169.059 62.1406 169.059C62.3359 169.059 62.502 169.127 62.6387 169.264C62.7754 169.4 62.8438 169.566 62.8438 169.762C62.8438 169.953 62.7754 170.119 62.6387 170.26C62.502 170.396 62.3359 170.465 62.1406 170.465ZM64.625 178V169.176H65.6445V178H64.625ZM70.1797 178.111C69.5781 178.111 69.0605 177.979 68.627 177.713C68.1973 177.447 67.8652 177.072 67.6309 176.588C67.4004 176.1 67.2852 175.525 67.2852 174.865V174.859C67.2852 174.207 67.4004 173.635 67.6309 173.143C67.8652 172.65 68.1953 172.266 68.6211 171.988C69.0469 171.711 69.5449 171.572 70.1152 171.572C70.6895 171.572 71.1816 171.705 71.5918 171.971C72.0059 172.236 72.3223 172.607 72.541 173.084C72.7637 173.557 72.875 174.107 72.875 174.736V175.135H67.8125V174.32H72.3535L71.8496 175.064V174.66C71.8496 174.164 71.7754 173.756 71.627 173.436C71.4785 173.115 71.2734 172.877 71.0117 172.721C70.75 172.561 70.4492 172.48 70.1094 172.48C69.7695 172.48 69.4648 172.564 69.1953 172.732C68.9297 172.896 68.7188 173.141 68.5625 173.465C68.4062 173.789 68.3281 174.188 68.3281 174.66V175.064C68.3281 175.514 68.4043 175.898 68.5566 176.219C68.709 176.535 68.9258 176.779 69.207 176.951C69.4883 177.119 69.8203 177.203 70.2031 177.203C70.4883 177.203 70.7363 177.164 70.9473 177.086C71.1582 177.008 71.332 176.908 71.4688 176.787C71.6055 176.666 71.7012 176.543 71.7559 176.418L71.7793 176.365H72.7988L72.7871 176.412C72.7324 176.627 72.6348 176.836 72.4941 177.039C72.3574 177.238 72.1797 177.42 71.9609 177.584C71.7422 177.744 71.4824 177.873 71.1816 177.971C70.8848 178.064 70.5508 178.111 70.1797 178.111ZM76.625 178.111C76.1562 178.111 75.7422 178.041 75.3828 177.9C75.0234 177.756 74.7344 177.555 74.5156 177.297C74.3008 177.039 74.1738 176.736 74.1348 176.389H75.1777C75.2637 176.65 75.4316 176.861 75.6816 177.021C75.9316 177.182 76.2578 177.262 76.6602 177.262C76.9453 177.262 77.1953 177.221 77.4102 177.139C77.6289 177.053 77.8008 176.938 77.9258 176.793C78.0508 176.645 78.1133 176.475 78.1133 176.283V176.271C78.1133 176.057 78.0273 175.875 77.8555 175.727C77.6836 175.574 77.4023 175.451 77.0117 175.357L76.0332 175.123C75.6387 175.029 75.3145 174.908 75.0605 174.76C74.8066 174.607 74.6191 174.422 74.498 174.203C74.377 173.98 74.3164 173.719 74.3164 173.418V173.412C74.3164 173.061 74.418 172.746 74.6211 172.469C74.8281 172.191 75.1094 171.973 75.4648 171.812C75.8203 171.652 76.2207 171.572 76.666 171.572C77.1074 171.572 77.498 171.643 77.8379 171.783C78.1816 171.92 78.457 172.115 78.6641 172.369C78.875 172.623 79.0039 172.922 79.0508 173.266H78.0488C77.9824 173.016 77.8301 172.812 77.5918 172.656C77.3535 172.5 77.043 172.422 76.6602 172.422C76.4102 172.422 76.1875 172.463 75.9922 172.545C75.7969 172.623 75.6426 172.732 75.5293 172.873C75.416 173.014 75.3594 173.178 75.3594 173.365V173.377C75.3594 173.518 75.3965 173.643 75.4707 173.752C75.5449 173.861 75.6602 173.957 75.8164 174.039C75.9727 174.121 76.1738 174.193 76.4199 174.256L77.3926 174.49C77.9863 174.635 78.4277 174.842 78.7168 175.111C79.0098 175.381 79.1562 175.742 79.1562 176.195V176.207C79.1562 176.582 79.0449 176.914 78.8223 177.203C78.5996 177.488 78.2969 177.711 77.9141 177.871C77.5352 178.031 77.1055 178.111 76.625 178.111Z" fill="#1D2327"/>
<path d="M264.57 178.211C263.77 178.211 263.078 178.031 262.496 177.672C261.918 177.312 261.471 176.803 261.154 176.143C260.842 175.479 260.686 174.691 260.686 173.781V173.77C260.686 172.855 260.842 172.068 261.154 171.408C261.471 170.744 261.918 170.232 262.496 169.873C263.074 169.514 263.764 169.334 264.564 169.334C265.205 169.334 265.783 169.461 266.299 169.715C266.814 169.965 267.234 170.312 267.559 170.758C267.883 171.199 268.078 171.707 268.145 172.281L268.139 172.328H266.662L266.656 172.299C266.586 171.967 266.453 171.678 266.258 171.432C266.062 171.182 265.82 170.988 265.531 170.852C265.242 170.711 264.92 170.641 264.564 170.641C264.088 170.641 263.674 170.768 263.322 171.021C262.971 171.275 262.699 171.637 262.508 172.105C262.32 172.57 262.227 173.123 262.227 173.764V173.775C262.227 174.416 262.32 174.971 262.508 175.439C262.699 175.908 262.971 176.27 263.322 176.523C263.674 176.777 264.09 176.904 264.57 176.904C264.93 176.904 265.252 176.842 265.537 176.717C265.826 176.592 266.066 176.416 266.258 176.189C266.453 175.959 266.586 175.689 266.656 175.381L266.668 175.346H268.145V175.393C268.07 175.955 267.873 176.447 267.553 176.869C267.232 177.291 266.818 177.621 266.311 177.859C265.803 178.094 265.223 178.211 264.57 178.211ZM269.738 178V169.117H271.197V178H269.738ZM275.773 178.129C275.137 178.129 274.59 177.994 274.133 177.725C273.68 177.455 273.33 177.072 273.084 176.576C272.838 176.08 272.715 175.492 272.715 174.812V174.807C272.715 174.135 272.836 173.549 273.078 173.049C273.324 172.549 273.672 172.162 274.121 171.889C274.57 171.611 275.098 171.473 275.703 171.473C276.312 171.473 276.836 171.607 277.273 171.877C277.715 172.143 278.055 172.516 278.293 172.996C278.531 173.477 278.65 174.039 278.65 174.684V175.164H273.447V174.186H277.936L277.244 175.1V174.52C277.244 174.094 277.18 173.74 277.051 173.459C276.922 173.178 276.742 172.967 276.512 172.826C276.285 172.686 276.021 172.615 275.721 172.615C275.42 172.615 275.152 172.689 274.918 172.838C274.688 172.982 274.504 173.197 274.367 173.482C274.234 173.764 274.168 174.109 274.168 174.52V175.105C274.168 175.5 274.234 175.838 274.367 176.119C274.5 176.396 274.688 176.611 274.93 176.764C275.176 176.912 275.467 176.986 275.803 176.986C276.064 176.986 276.289 176.949 276.477 176.875C276.668 176.797 276.822 176.705 276.939 176.6C277.057 176.49 277.139 176.387 277.186 176.289L277.203 176.248H278.586L278.574 176.301C278.523 176.508 278.43 176.719 278.293 176.934C278.16 177.145 277.979 177.342 277.748 177.525C277.521 177.705 277.244 177.852 276.916 177.965C276.588 178.074 276.207 178.129 275.773 178.129ZM281.855 178.105C281.453 178.105 281.092 178.027 280.771 177.871C280.455 177.715 280.205 177.494 280.021 177.209C279.842 176.92 279.752 176.58 279.752 176.189V176.178C279.752 175.799 279.846 175.473 280.033 175.199C280.221 174.922 280.496 174.705 280.859 174.549C281.223 174.393 281.664 174.301 282.184 174.273L284.551 174.127V175.088L282.389 175.229C281.979 175.252 281.676 175.338 281.48 175.486C281.285 175.635 281.188 175.842 281.188 176.107V176.119C281.188 176.393 281.291 176.605 281.498 176.758C281.709 176.91 281.977 176.986 282.301 176.986C282.594 176.986 282.855 176.928 283.086 176.811C283.316 176.693 283.498 176.535 283.631 176.336C283.764 176.133 283.83 175.904 283.83 175.65V173.623C283.83 173.303 283.729 173.059 283.525 172.891C283.322 172.719 283.021 172.633 282.623 172.633C282.291 172.633 282.02 172.691 281.809 172.809C281.598 172.922 281.455 173.084 281.381 173.295L281.375 173.318H279.998L280.004 173.266C280.051 172.906 280.191 172.592 280.426 172.322C280.66 172.053 280.971 171.844 281.357 171.695C281.744 171.547 282.189 171.473 282.693 171.473C283.248 171.473 283.717 171.559 284.1 171.73C284.482 171.898 284.773 172.145 284.973 172.469C285.172 172.789 285.271 173.174 285.271 173.623V178H283.83V177.121H283.73C283.613 177.324 283.461 177.5 283.273 177.648C283.09 177.797 282.879 177.91 282.641 177.988C282.402 178.066 282.141 178.105 281.855 178.105ZM287.023 178V171.596H288.482V172.58H288.582C288.734 172.232 288.965 171.961 289.273 171.766C289.582 171.57 289.967 171.473 290.428 171.473C291.143 171.473 291.689 171.68 292.068 172.094C292.447 172.508 292.637 173.096 292.637 173.857V178H291.178V174.197C291.178 173.697 291.072 173.322 290.861 173.072C290.654 172.822 290.33 172.697 289.889 172.697C289.6 172.697 289.35 172.762 289.139 172.891C288.928 173.02 288.766 173.201 288.652 173.436C288.539 173.67 288.482 173.947 288.482 174.268V178H287.023Z" fill="#5007AA"/>
<path d="M27.0781 221V212.545H29.9785C30.8145 212.545 31.5293 212.713 32.123 213.049C32.7207 213.381 33.1777 213.861 33.4941 214.49C33.8105 215.119 33.9688 215.877 33.9688 216.764V216.775C33.9688 217.662 33.8105 218.422 33.4941 219.055C33.1777 219.684 32.7227 220.166 32.1289 220.502C31.5352 220.834 30.8184 221 29.9785 221H27.0781ZM28.1328 220.051H29.9082C30.5371 220.051 31.0742 219.922 31.5195 219.664C31.9648 219.406 32.3047 219.033 32.5391 218.545C32.7734 218.057 32.8906 217.471 32.8906 216.787V216.775C32.8906 216.088 32.7715 215.5 32.5332 215.012C32.2988 214.52 31.959 214.145 31.5137 213.887C31.0684 213.625 30.5332 213.494 29.9082 213.494H28.1328V220.051ZM37.4023 221.111C37.0039 221.111 36.6445 221.035 36.3242 220.883C36.0078 220.73 35.7559 220.514 35.5684 220.232C35.3848 219.951 35.293 219.619 35.293 219.236V219.225C35.293 218.85 35.3828 218.529 35.5625 218.264C35.7422 217.994 36.0039 217.783 36.3477 217.631C36.6914 217.479 37.1074 217.389 37.5957 217.361L39.916 217.221V218.035L37.7188 218.176C37.2383 218.203 36.8867 218.303 36.6641 218.475C36.4453 218.646 36.3359 218.889 36.3359 219.201V219.213C36.3359 219.533 36.457 219.783 36.6992 219.963C36.9414 220.139 37.2461 220.227 37.6133 220.227C37.9609 220.227 38.2695 220.158 38.5391 220.021C38.8086 219.881 39.0195 219.691 39.1719 219.453C39.3281 219.215 39.4062 218.945 39.4062 218.645V216.676C39.4062 216.285 39.2871 215.988 39.0488 215.785C38.8145 215.578 38.4609 215.475 37.9883 215.475C37.6094 215.475 37.2988 215.543 37.0566 215.68C36.8145 215.812 36.6523 216.002 36.5703 216.248L36.5645 216.266H35.5449L35.5508 216.23C35.6055 215.898 35.7422 215.609 35.9609 215.363C36.1836 215.113 36.4707 214.92 36.8223 214.783C37.1738 214.643 37.5742 214.572 38.0234 214.572C38.5391 214.572 38.9746 214.656 39.3301 214.824C39.6895 214.992 39.9609 215.234 40.1445 215.551C40.332 215.863 40.4258 216.238 40.4258 216.676V221H39.4062V220.068H39.3125C39.1797 220.291 39.0176 220.48 38.8262 220.637C38.6387 220.793 38.4258 220.912 38.1875 220.994C37.9492 221.072 37.6875 221.111 37.4023 221.111ZM44.5332 221.047C43.8848 221.047 43.4141 220.916 43.1211 220.654C42.832 220.393 42.6875 219.961 42.6875 219.359V215.527H41.6914V214.684H42.6875V213.049H43.7422V214.684H45.125V215.527H43.7422V219.102C43.7422 219.473 43.8125 219.74 43.9531 219.904C44.0938 220.064 44.3281 220.145 44.6562 220.145C44.7461 220.145 44.8223 220.143 44.8848 220.139C44.9512 220.135 45.0312 220.129 45.125 220.121V220.988C45.0273 221.004 44.9297 221.018 44.832 221.029C44.7344 221.041 44.6348 221.047 44.5332 221.047ZM48.3828 221.111C47.9844 221.111 47.625 221.035 47.3047 220.883C46.9883 220.73 46.7363 220.514 46.5488 220.232C46.3652 219.951 46.2734 219.619 46.2734 219.236V219.225C46.2734 218.85 46.3633 218.529 46.543 218.264C46.7227 217.994 46.9844 217.783 47.3281 217.631C47.6719 217.479 48.0879 217.389 48.5762 217.361L50.8965 217.221V218.035L48.6992 218.176C48.2188 218.203 47.8672 218.303 47.6445 218.475C47.4258 218.646 47.3164 218.889 47.3164 219.201V219.213C47.3164 219.533 47.4375 219.783 47.6797 219.963C47.9219 220.139 48.2266 220.227 48.5938 220.227C48.9414 220.227 49.25 220.158 49.5195 220.021C49.7891 219.881 50 219.691 50.1523 219.453C50.3086 219.215 50.3867 218.945 50.3867 218.645V216.676C50.3867 216.285 50.2676 215.988 50.0293 215.785C49.7949 215.578 49.4414 215.475 48.9688 215.475C48.5898 215.475 48.2793 215.543 48.0371 215.68C47.7949 215.812 47.6328 216.002 47.5508 216.248L47.5449 216.266H46.5254L46.5312 216.23C46.5859 215.898 46.7227 215.609 46.9414 215.363C47.1641 215.113 47.4512 214.92 47.8027 214.783C48.1543 214.643 48.5547 214.572 49.0039 214.572C49.5195 214.572 49.9551 214.656 50.3105 214.824C50.6699 214.992 50.9414 215.234 51.125 215.551C51.3125 215.863 51.4062 216.238 51.4062 216.676V221H50.3867V220.068H50.293C50.1602 220.291 49.998 220.48 49.8066 220.637C49.6191 220.793 49.4062 220.912 49.168 220.994C48.9297 221.072 48.668 221.111 48.3828 221.111ZM56.4102 221.111C56.1172 221.111 55.8457 221.066 55.5957 220.977C55.3457 220.887 55.123 220.76 54.9277 220.596C54.7324 220.428 54.5703 220.227 54.4414 219.992H54.3477V221H53.3281V212.176H54.3477V215.68H54.4414C54.5586 215.453 54.7148 215.258 54.9102 215.094C55.1094 214.93 55.3359 214.803 55.5898 214.713C55.8477 214.619 56.1211 214.572 56.4102 214.572C56.9453 214.572 57.4102 214.707 57.8047 214.977C58.2031 215.246 58.5117 215.625 58.7305 216.113C58.9492 216.602 59.0586 217.176 59.0586 217.836V217.848C59.0586 218.504 58.9492 219.078 58.7305 219.57C58.5117 220.059 58.2031 220.438 57.8047 220.707C57.4102 220.977 56.9453 221.111 56.4102 221.111ZM56.1758 220.209C56.5625 220.209 56.8926 220.115 57.166 219.928C57.4395 219.736 57.6484 219.465 57.793 219.113C57.9414 218.758 58.0156 218.336 58.0156 217.848V217.836C58.0156 217.344 57.9414 216.922 57.793 216.57C57.6484 216.219 57.4395 215.949 57.166 215.762C56.8926 215.57 56.5625 215.475 56.1758 215.475C55.793 215.475 55.4629 215.57 55.1855 215.762C54.9082 215.953 54.6953 216.225 54.5469 216.576C54.3984 216.928 54.3242 217.348 54.3242 217.836V217.848C54.3242 218.332 54.3984 218.752 54.5469 219.107C54.6953 219.459 54.9082 219.73 55.1855 219.922C55.4629 220.113 55.793 220.209 56.1758 220.209ZM62.375 221.111C61.9766 221.111 61.6172 221.035 61.2969 220.883C60.9805 220.73 60.7285 220.514 60.541 220.232C60.3574 219.951 60.2656 219.619 60.2656 219.236V219.225C60.2656 218.85 60.3555 218.529 60.5352 218.264C60.7148 217.994 60.9766 217.783 61.3203 217.631C61.6641 217.479 62.0801 217.389 62.5684 217.361L64.8887 217.221V218.035L62.6914 218.176C62.2109 218.203 61.8594 218.303 61.6367 218.475C61.418 218.646 61.3086 218.889 61.3086 219.201V219.213C61.3086 219.533 61.4297 219.783 61.6719 219.963C61.9141 220.139 62.2188 220.227 62.5859 220.227C62.9336 220.227 63.2422 220.158 63.5117 220.021C63.7812 219.881 63.9922 219.691 64.1445 219.453C64.3008 219.215 64.3789 218.945 64.3789 218.645V216.676C64.3789 216.285 64.2598 215.988 64.0215 215.785C63.7871 215.578 63.4336 215.475 62.9609 215.475C62.582 215.475 62.2715 215.543 62.0293 215.68C61.7871 215.812 61.625 216.002 61.543 216.248L61.5371 216.266H60.5176L60.5234 216.23C60.5781 215.898 60.7148 215.609 60.9336 215.363C61.1562 215.113 61.4434 214.92 61.7949 214.783C62.1465 214.643 62.5469 214.572 62.9961 214.572C63.5117 214.572 63.9473 214.656 64.3027 214.824C64.6621 214.992 64.9336 215.234 65.1172 215.551C65.3047 215.863 65.3984 216.238 65.3984 216.676V221H64.3789V220.068H64.2852C64.1523 220.291 63.9902 220.48 63.7988 220.637C63.6113 220.793 63.3984 220.912 63.1602 220.994C62.9219 221.072 62.6602 221.111 62.375 221.111ZM69.4297 221.111C68.9609 221.111 68.5469 221.041 68.1875 220.9C67.8281 220.756 67.5391 220.555 67.3203 220.297C67.1055 220.039 66.9785 219.736 66.9395 219.389H67.9824C68.0684 219.65 68.2363 219.861 68.4863 220.021C68.7363 220.182 69.0625 220.262 69.4648 220.262C69.75 220.262 70 220.221 70.2148 220.139C70.4336 220.053 70.6055 219.938 70.7305 219.793C70.8555 219.645 70.918 219.475 70.918 219.283V219.271C70.918 219.057 70.832 218.875 70.6602 218.727C70.4883 218.574 70.207 218.451 69.8164 218.357L68.8379 218.123C68.4434 218.029 68.1191 217.908 67.8652 217.76C67.6113 217.607 67.4238 217.422 67.3027 217.203C67.1816 216.98 67.1211 216.719 67.1211 216.418V216.412C67.1211 216.061 67.2227 215.746 67.4258 215.469C67.6328 215.191 67.9141 214.973 68.2695 214.812C68.625 214.652 69.0254 214.572 69.4707 214.572C69.9121 214.572 70.3027 214.643 70.6426 214.783C70.9863 214.92 71.2617 215.115 71.4688 215.369C71.6797 215.623 71.8086 215.922 71.8555 216.266H70.8535C70.7871 216.016 70.6348 215.812 70.3965 215.656C70.1582 215.5 69.8477 215.422 69.4648 215.422C69.2148 215.422 68.9922 215.463 68.7969 215.545C68.6016 215.623 68.4473 215.732 68.334 215.873C68.2207 216.014 68.1641 216.178 68.1641 216.365V216.377C68.1641 216.518 68.2012 216.643 68.2754 216.752C68.3496 216.861 68.4648 216.957 68.6211 217.039C68.7773 217.121 68.9785 217.193 69.2246 217.256L70.1973 217.49C70.791 217.635 71.2324 217.842 71.5215 218.111C71.8145 218.381 71.9609 218.742 71.9609 219.195V219.207C71.9609 219.582 71.8496 219.914 71.627 220.203C71.4043 220.488 71.1016 220.711 70.7188 220.871C70.3398 221.031 69.9102 221.111 69.4297 221.111ZM76.1211 221.111C75.5195 221.111 75.002 220.979 74.5684 220.713C74.1387 220.447 73.8066 220.072 73.5723 219.588C73.3418 219.1 73.2266 218.525 73.2266 217.865V217.859C73.2266 217.207 73.3418 216.635 73.5723 216.143C73.8066 215.65 74.1367 215.266 74.5625 214.988C74.9883 214.711 75.4863 214.572 76.0566 214.572C76.6309 214.572 77.123 214.705 77.5332 214.971C77.9473 215.236 78.2637 215.607 78.4824 216.084C78.7051 216.557 78.8164 217.107 78.8164 217.736V218.135H73.7539V217.32H78.2949L77.791 218.064V217.66C77.791 217.164 77.7168 216.756 77.5684 216.436C77.4199 216.115 77.2148 215.877 76.9531 215.721C76.6914 215.561 76.3906 215.48 76.0508 215.48C75.7109 215.48 75.4062 215.564 75.1367 215.732C74.8711 215.896 74.6602 216.141 74.5039 216.465C74.3477 216.789 74.2695 217.188 74.2695 217.66V218.064C74.2695 218.514 74.3457 218.898 74.498 219.219C74.6504 219.535 74.8672 219.779 75.1484 219.951C75.4297 220.119 75.7617 220.203 76.1445 220.203C76.4297 220.203 76.6777 220.164 76.8887 220.086C77.0996 220.008 77.2734 219.908 77.4102 219.787C77.5469 219.666 77.6426 219.543 77.6973 219.418L77.7207 219.365H78.7402L78.7285 219.412C78.6738 219.627 78.5762 219.836 78.4355 220.039C78.2988 220.238 78.1211 220.42 77.9023 220.584C77.6836 220.744 77.4238 220.873 77.123 220.971C76.8262 221.064 76.4922 221.111 76.1211 221.111Z" fill="#1D2327"/>
<path d="M264.57 221.211C263.77 221.211 263.078 221.031 262.496 220.672C261.918 220.312 261.471 219.803 261.154 219.143C260.842 218.479 260.686 217.691 260.686 216.781V216.77C260.686 215.855 260.842 215.068 261.154 214.408C261.471 213.744 261.918 213.232 262.496 212.873C263.074 212.514 263.764 212.334 264.564 212.334C265.205 212.334 265.783 212.461 266.299 212.715C266.814 212.965 267.234 213.312 267.559 213.758C267.883 214.199 268.078 214.707 268.145 215.281L268.139 215.328H266.662L266.656 215.299C266.586 214.967 266.453 214.678 266.258 214.432C266.062 214.182 265.82 213.988 265.531 213.852C265.242 213.711 264.92 213.641 264.564 213.641C264.088 213.641 263.674 213.768 263.322 214.021C262.971 214.275 262.699 214.637 262.508 215.105C262.32 215.57 262.227 216.123 262.227 216.764V216.775C262.227 217.416 262.32 217.971 262.508 218.439C262.699 218.908 262.971 219.27 263.322 219.523C263.674 219.777 264.09 219.904 264.57 219.904C264.93 219.904 265.252 219.842 265.537 219.717C265.826 219.592 266.066 219.416 266.258 219.189C266.453 218.959 266.586 218.689 266.656 218.381L266.668 218.346H268.145V218.393C268.07 218.955 267.873 219.447 267.553 219.869C267.232 220.291 266.818 220.621 266.311 220.859C265.803 221.094 265.223 221.211 264.57 221.211ZM269.738 221V212.117H271.197V221H269.738ZM275.773 221.129C275.137 221.129 274.59 220.994 274.133 220.725C273.68 220.455 273.33 220.072 273.084 219.576C272.838 219.08 272.715 218.492 272.715 217.812V217.807C272.715 217.135 272.836 216.549 273.078 216.049C273.324 215.549 273.672 215.162 274.121 214.889C274.57 214.611 275.098 214.473 275.703 214.473C276.312 214.473 276.836 214.607 277.273 214.877C277.715 215.143 278.055 215.516 278.293 215.996C278.531 216.477 278.65 217.039 278.65 217.684V218.164H273.447V217.186H277.936L277.244 218.1V217.52C277.244 217.094 277.18 216.74 277.051 216.459C276.922 216.178 276.742 215.967 276.512 215.826C276.285 215.686 276.021 215.615 275.721 215.615C275.42 215.615 275.152 215.689 274.918 215.838C274.688 215.982 274.504 216.197 274.367 216.482C274.234 216.764 274.168 217.109 274.168 217.52V218.105C274.168 218.5 274.234 218.838 274.367 219.119C274.5 219.396 274.688 219.611 274.93 219.764C275.176 219.912 275.467 219.986 275.803 219.986C276.064 219.986 276.289 219.949 276.477 219.875C276.668 219.797 276.822 219.705 276.939 219.6C277.057 219.49 277.139 219.387 277.186 219.289L277.203 219.248H278.586L278.574 219.301C278.523 219.508 278.43 219.719 278.293 219.934C278.16 220.145 277.979 220.342 277.748 220.525C277.521 220.705 277.244 220.852 276.916 220.965C276.588 221.074 276.207 221.129 275.773 221.129ZM281.855 221.105C281.453 221.105 281.092 221.027 280.771 220.871C280.455 220.715 280.205 220.494 280.021 220.209C279.842 219.92 279.752 219.58 279.752 219.189V219.178C279.752 218.799 279.846 218.473 280.033 218.199C280.221 217.922 280.496 217.705 280.859 217.549C281.223 217.393 281.664 217.301 282.184 217.273L284.551 217.127V218.088L282.389 218.229C281.979 218.252 281.676 218.338 281.48 218.486C281.285 218.635 281.188 218.842 281.188 219.107V219.119C281.188 219.393 281.291 219.605 281.498 219.758C281.709 219.91 281.977 219.986 282.301 219.986C282.594 219.986 282.855 219.928 283.086 219.811C283.316 219.693 283.498 219.535 283.631 219.336C283.764 219.133 283.83 218.904 283.83 218.65V216.623C283.83 216.303 283.729 216.059 283.525 215.891C283.322 215.719 283.021 215.633 282.623 215.633C282.291 215.633 282.02 215.691 281.809 215.809C281.598 215.922 281.455 216.084 281.381 216.295L281.375 216.318H279.998L280.004 216.266C280.051 215.906 280.191 215.592 280.426 215.322C280.66 215.053 280.971 214.844 281.357 214.695C281.744 214.547 282.189 214.473 282.693 214.473C283.248 214.473 283.717 214.559 284.1 214.73C284.482 214.898 284.773 215.145 284.973 215.469C285.172 215.789 285.271 216.174 285.271 216.623V221H283.83V220.121H283.73C283.613 220.324 283.461 220.5 283.273 220.648C283.09 220.797 282.879 220.91 282.641 220.988C282.402 221.066 282.141 221.105 281.855 221.105ZM287.023 221V214.596H288.482V215.58H288.582C288.734 215.232 288.965 214.961 289.273 214.766C289.582 214.57 289.967 214.473 290.428 214.473C291.143 214.473 291.689 214.68 292.068 215.094C292.447 215.508 292.637 216.096 292.637 216.857V221H291.178V217.197C291.178 216.697 291.072 216.322 290.861 216.072C290.654 215.822 290.33 215.697 289.889 215.697C289.6 215.697 289.35 215.762 289.139 215.891C288.928 216.02 288.766 216.201 288.652 216.436C288.539 216.67 288.482 216.947 288.482 217.268V221H287.023Z" fill="#5007AA"/>
<defs>
<clipPath id="clip0_15972_11928">
<rect width="20" height="20" fill="white" transform="translate(16 16)"/>
</clipPath>
</defs>
</svg>
