<svg width="320" height="264" viewBox="0 0 320 264" fill="none" xmlns="http://www.w3.org/2000/svg"><rect width="320" height="264" rx="8" fill="#fff"/><path d="M17.95 29v-1.27h2.72c.6 0 1.07-.12 1.38-.37.31-.25.47-.6.47-1.07v-.01c0-.31-.07-.57-.22-.78a1.3 1.3 0 0 0-.64-.48c-.29-.1-.64-.16-1.06-.16h-2.65V23.7h2.4c.58 0 1.02-.11 1.32-.33.3-.22.46-.54.46-.95v-.02c0-.4-.14-.72-.42-.95a1.76 1.76 0 0 0-1.15-.34h-2.61v-1.27h3c.59 0 1.08.1 1.5.28.41.18.73.44.96.79.22.34.33.74.33 1.2v.02a2.03 2.03 0 0 1-.8 1.6c-.24.19-.52.3-.83.36v.11c.41.04.77.16 1.08.36a2.12 2.12 0 0 1 1 1.83v.01c0 .54-.13 1-.38 1.39-.25.39-.61.69-1.08.9-.47.2-1.03.31-1.68.31h-3.1Zm-.82 0v-9.16h1.64V29h-1.64Zm10.58.11c-.44 0-.83-.08-1.18-.25a2 2 0 0 1-.81-.72 2 2 0 0 1-.3-1.1v-.01c0-.41.1-.77.31-1.06a2 2 0 0 1 .9-.7c.39-.18.87-.28 1.43-.3l2.57-.17v1.05l-2.35.15a1.8 1.8 0 0 0-.98.28.8.8 0 0 0-.32.67v.01c0 .3.11.53.34.7.23.16.52.24.87.24.31 0 .6-.06.85-.19s.44-.3.59-.51c.14-.22.21-.47.21-.75v-2.2c0-.34-.1-.6-.33-.79-.22-.18-.54-.27-.97-.27-.36 0-.66.06-.89.19a.94.94 0 0 0-.46.52v.03h-1.5v-.06c.06-.39.21-.73.47-1.02.25-.3.59-.52 1-.68.42-.16.9-.24 1.45-.24.6 0 1.11.1 1.53.28a2 2 0 0 1 .94.8c.22.34.33.76.33 1.25V29h-1.57v-.95h-.1a2.14 2.14 0 0 1-1.18.94c-.26.08-.55.12-.85.12Zm8.57.03c-.7 0-1.3-.14-1.79-.43-.5-.29-.87-.7-1.14-1.25a4.42 4.42 0 0 1-.39-1.94v-.01c0-.75.13-1.4.4-1.92a2.8 2.8 0 0 1 1.13-1.23 3.5 3.5 0 0 1 1.78-.43c.6 0 1.11.1 1.54.31.43.2.77.49 1.02.85.26.36.41.78.47 1.26v.03h-1.49v-.02a1.44 1.44 0 0 0-.5-.83c-.25-.22-.6-.33-1.03-.33-.36 0-.67.1-.93.28-.25.18-.44.44-.58.78-.14.35-.2.76-.2 1.25v.01c0 .5.06.91.2 1.26s.34.62.59.8c.25.19.56.28.92.28.41 0 .74-.1 1-.28.24-.19.42-.46.52-.83l.01-.02h1.49l-.01.05a2.9 2.9 0 0 1-.5 1.24c-.25.35-.58.63-1 .83-.42.2-.92.29-1.5.29Zm4.59-.14v-9.62h1.58V29h-1.58Zm4.36 0-2.33-3.15 1.17-.96L47.13 29h-1.9Zm-2.91-2.3-.06-1.79h.3l2.56-2.85h1.82l-3.01 3.17-.72.56-.9.91Zm8.33 2.44c-.52 0-.95-.1-1.3-.3a1.9 1.9 0 0 1-.8-.88 3.38 3.38 0 0 1-.27-1.41v-4.49h1.58v4.13c0 .54.11.94.32 1.21.21.27.56.4 1.04.4.25 0 .48-.03.67-.1.2-.09.36-.2.5-.35.13-.15.23-.33.3-.53.06-.22.1-.45.1-.71v-4.05h1.58V29h-1.59v-1.05h-.1A1.94 1.94 0 0 1 51.55 29c-.27.1-.57.14-.9.14Zm5.64 2.16v-9.24h1.59v1.09h.1a2.12 2.12 0 0 1 1.22-1.06c.27-.1.56-.14.9-.14a2.58 2.58 0 0 1 2.49 1.68c.23.53.35 1.17.35 1.9v.01c0 .74-.12 1.37-.35 1.9a2.6 2.6 0 0 1-2.49 1.67 2.29 2.29 0 0 1-1.61-.57c-.22-.18-.38-.4-.5-.64h-.11v3.4h-1.59Zm3.3-3.52a1.57 1.57 0 0 0 1.53-1.04c.14-.34.2-.74.2-1.2v-.01c0-.47-.06-.87-.2-1.2a1.57 1.57 0 0 0-1.52-1.04 1.6 1.6 0 0 0-1.54 1.03 3.1 3.1 0 0 0-.21 1.2v.01c0 .47.07.87.21 1.21.14.33.35.6.6.77.27.18.58.27.94.27Zm11.03 1.36c-.59 0-1.1-.08-1.52-.25a2.4 2.4 0 0 1-1-.7c-.25-.3-.4-.64-.44-1.04v-.01h1.57v.01c.09.24.24.44.48.6.23.15.54.22.94.22.26 0 .49-.03.69-.1.2-.08.35-.19.47-.32a.67.67 0 0 0 .17-.45v-.02a.6.6 0 0 0-.25-.5 1.95 1.95 0 0 0-.82-.34l-1.12-.26c-.44-.1-.8-.23-1.1-.4-.28-.17-.5-.39-.64-.64-.14-.26-.2-.55-.2-.9 0-.42.1-.78.34-1.1.24-.32.57-.57.98-.74.42-.18.9-.27 1.45-.27.56 0 1.05.08 1.46.25.4.17.72.4.95.7.23.3.36.63.4 1.01v.01h-1.5v-.02a.98.98 0 0 0-.43-.55 1.5 1.5 0 0 0-.88-.24c-.24 0-.45.04-.63.1-.19.08-.33.18-.43.31a.7.7 0 0 0-.16.45v.01c0 .14.04.25.1.36.08.1.19.19.34.26.15.08.35.15.6.2l1.13.25c.68.16 1.18.38 1.5.68.33.3.5.7.5 1.21v.02c0 .44-.13.82-.38 1.15-.26.33-.6.59-1.05.78-.45.18-.95.27-1.52.27Zm7.23-.1c-.8 0-1.37-.15-1.72-.45-.35-.29-.53-.77-.53-1.43v-3.87h-1.07v-1.23h1.07v-1.7h1.61v1.7h1.46v1.23h-1.46v3.5c0 .34.07.59.22.75.14.16.38.23.7.23a4.98 4.98 0 0 0 .54-.03v1.22a3.8 3.8 0 0 1-.82.07Zm5.33.1c-.69 0-1.28-.14-1.78-.43-.5-.3-.88-.7-1.16-1.25a4.3 4.3 0 0 1-.4-1.93c0-.75.14-1.39.41-1.93a2.9 2.9 0 0 1 1.15-1.24 3.5 3.5 0 0 1 1.78-.43c.7 0 1.29.14 1.78.43.5.29.89.7 1.16 1.24.27.54.4 1.18.4 1.92v.01c0 .75-.13 1.4-.4 1.93a2.9 2.9 0 0 1-1.15 1.25 3.5 3.5 0 0 1-1.79.43Zm0-1.28c.37 0 .68-.1.93-.28.26-.18.46-.45.6-.79.13-.35.2-.76.2-1.25v-.01c0-.5-.07-.91-.2-1.25a1.69 1.69 0 0 0-.6-.8 1.52 1.52 0 0 0-.93-.28 1.55 1.55 0 0 0-1.52 1.08c-.14.34-.2.76-.2 1.25v.01c0 .49.06.9.2 1.25s.33.61.58.8c.26.18.58.27.94.27ZM88.11 29v-6.94h1.58v1.07h.1c.13-.37.34-.66.64-.87a2.38 2.38 0 0 1 1.79-.23v1.41a2.94 2.94 0 0 0-.78-.09c-.36 0-.66.07-.92.2-.27.13-.47.32-.61.56a1.6 1.6 0 0 0-.22.86V29h-1.58Zm7.21.11c-.44 0-.83-.08-1.17-.25a2 2 0 0 1-.82-.72c-.2-.31-.29-.68-.29-1.1v-.01c0-.41.1-.77.3-1.06a2 2 0 0 1 .9-.7c.4-.18.87-.28 1.44-.3l2.56-.17v1.05L95.9 26a1.8 1.8 0 0 0-.99.28.8.8 0 0 0-.31.67v.01c0 .3.1.53.33.7.23.16.52.24.87.24.32 0 .6-.06.85-.19s.45-.3.6-.51c.14-.22.21-.47.21-.75v-2.2c0-.34-.11-.6-.33-.79-.22-.18-.55-.27-.98-.27-.36 0-.65.06-.88.19a.94.94 0 0 0-.46.52l-.01.03h-1.5l.01-.06c.06-.39.2-.73.46-1.02.26-.3.6-.52 1.01-.68.42-.16.9-.24 1.45-.24.6 0 1.1.1 1.52.28.42.18.73.45.95.8.21.34.32.76.32 1.25V29h-1.56v-.95h-.1a2.14 2.14 0 0 1-1.18.94c-.27.08-.55.12-.86.12Zm8.58 2.33c-.6 0-1.13-.08-1.58-.24a2.44 2.44 0 0 1-1.04-.69c-.25-.3-.4-.63-.46-1.02v-.02h1.58l.01.02c.05.22.2.4.46.54.27.14.62.21 1.06.21.54 0 .96-.12 1.25-.36.3-.24.45-.58.45-1.03v-1.33h-.1a2.14 2.14 0 0 1-1.23 1.03 2.9 2.9 0 0 1-.89.13c-.58 0-1.09-.14-1.51-.42a2.79 2.79 0 0 1-1-1.18 4.13 4.13 0 0 1-.34-1.73v-.01c0-.67.12-1.26.35-1.77.23-.5.56-.9 1-1.2.42-.28.94-.42 1.53-.42.33 0 .62.05.89.15a2.18 2.18 0 0 1 1.22 1.1h.08v-1.14h1.58v6.77c0 .53-.14 1-.4 1.38-.27.4-.65.7-1.15.91a4.5 4.5 0 0 1-1.76.32Zm0-4.02c.37 0 .68-.09.94-.26.26-.18.47-.42.6-.73.15-.31.22-.67.22-1.08v-.01c0-.41-.07-.77-.22-1.08a1.64 1.64 0 0 0-1.54-1c-.37 0-.68.1-.94.27-.25.17-.45.42-.58.73-.13.3-.2.67-.2 1.08v.01c0 .4.07.77.2 1.08.13.3.33.55.58.73.26.17.57.26.94.26Zm8.22 1.72c-.7 0-1.29-.15-1.78-.44-.5-.29-.87-.7-1.14-1.24a4.25 4.25 0 0 1-.4-1.91c0-.74.13-1.37.4-1.91.26-.55.64-.96 1.13-1.26a3.2 3.2 0 0 1 1.71-.45c.66 0 1.23.14 1.7.44.48.28.85.69 1.1 1.2.26.53.4 1.14.4 1.84v.52h-5.64v-1.06h4.86l-.75.99v-.63c0-.46-.07-.84-.21-1.15a1.5 1.5 0 0 0-.58-.68 1.59 1.59 0 0 0-.86-.23c-.33 0-.62.08-.87.24a1.6 1.6 0 0 0-.6.7c-.14.3-.21.68-.21 1.12v.63c0 .43.07.8.21 1.1.15.3.35.54.61.7.27.16.58.24.95.24.28 0 .52-.04.73-.12.2-.08.37-.18.5-.3s.22-.23.27-.33l.02-.05h1.5l-.02.06a2.6 2.6 0 0 1-.9 1.33c-.24.2-.54.35-.9.47a3.8 3.8 0 0 1-1.23.18Z" fill="#1D2327"/><path d="M25.35 66.34c-1.2 0-2.3-.2-3.3-.63a7.31 7.31 0 0 1-2.6-1.87 8.85 8.85 0 0 1-1.73-3.13c-.4-1.26-.6-2.73-.6-4.4v-.03c0-2.15.33-4 1-5.55a7.86 7.86 0 0 1 2.84-3.56 7.78 7.78 0 0 1 4.43-1.24c1.28 0 2.43.23 3.45.68a6.8 6.8 0 0 1 2.53 1.86c.67.8 1.1 1.7 1.3 2.71l.02.14h-4.07l-.04-.13a3.23 3.23 0 0 0-1.77-1.74c-.41-.17-.9-.25-1.43-.25a3.4 3.4 0 0 0-2.37.83 5.13 5.13 0 0 0-1.38 2.24 11.83 11.83 0 0 0-.57 3.57v.41l.63 3.28a3.44 3.44 0 0 0 1.77 3.07c.55.3 1.16.46 1.84.46a3.65 3.65 0 0 0 3.14-1.7c.33-.54.5-1.13.5-1.77v-.03c0-.68-.17-1.29-.48-1.82a3.21 3.21 0 0 0-1.29-1.23 3.69 3.69 0 0 0-1.83-.45c-.69 0-1.3.15-1.86.45a3.31 3.31 0 0 0-1.8 3v.02h-.83v-3.35h.3a4.9 4.9 0 0 1 1.14-1.62 5.63 5.63 0 0 1 1.83-1.12 6.54 6.54 0 0 1 2.4-.43c1.28 0 2.4.28 3.36.84a5.8 5.8 0 0 1 2.25 2.27c.55.96.82 2.06.82 3.29v.03a6.56 6.56 0 0 1-3.69 6.01c-1.14.6-2.44.9-3.9.9ZM35.66 66v-2.83l6.97-6.52c.86-.8 1.5-1.46 1.94-1.98.44-.53.74-1 .9-1.43.16-.42.24-.85.24-1.3v-.04a2.64 2.64 0 0 0-1.45-2.4 3.25 3.25 0 0 0-1.55-.36 3.7 3.7 0 0 0-1.77.41 3.1 3.1 0 0 0-1.67 2.7l-.01.12h-3.83v-.11c0-1.24.31-2.33.94-3.28a6.4 6.4 0 0 1 2.59-2.24 8.4 8.4 0 0 1 3.73-.81c1.4 0 2.62.25 3.68.74a5.87 5.87 0 0 1 2.47 2.02c.6.87.89 1.86.89 2.98v.03c0 .8-.15 1.53-.44 2.21-.28.68-.75 1.4-1.4 2.16-.66.76-1.56 1.66-2.7 2.71L39.47 64l1.59-2.78V64l-1.57-1.27H50V66H35.66Zm21.23-9.57a4.17 4.17 0 0 1-4.03-2.42 6.4 6.4 0 0 1-.55-2.75v-.01c0-1.06.18-1.97.55-2.74a4.16 4.16 0 0 1 4.03-2.42 4.13 4.13 0 0 1 4.01 2.43c.37.76.56 1.67.56 2.73v.01a6.3 6.3 0 0 1-.56 2.75 4.08 4.08 0 0 1-1.57 1.8c-.68.41-1.49.62-2.44.62Zm0-2.27c.55 0 .97-.25 1.26-.74.3-.5.44-1.22.44-2.16v-.01c0-.93-.15-1.64-.44-2.13-.3-.5-.71-.76-1.26-.76s-.98.25-1.28.76c-.3.49-.44 1.2-.44 2.13v.01c0 .94.15 1.66.44 2.16.3.5.73.74 1.28.74ZM58.93 66h-3.05l12.47-19.73h3.03L58.93 66Zm11.46.18a4.16 4.16 0 0 1-4.03-2.42A6.4 6.4 0 0 1 65.8 61c0-1.06.18-1.97.54-2.74a4.17 4.17 0 0 1 4.04-2.42 4.13 4.13 0 0 1 4 2.43c.38.76.56 1.67.56 2.73a6.2 6.2 0 0 1-.56 2.75 4.08 4.08 0 0 1-1.57 1.79 4.5 4.5 0 0 1-2.43.63Zm0-2.27c.54 0 .96-.25 1.25-.74.3-.5.44-1.22.44-2.16V61a4.2 4.2 0 0 0-.44-2.14c-.29-.5-.7-.75-1.25-.75-.56 0-.99.25-1.29.75-.29.5-.44 1.2-.44 2.14 0 .94.15 1.66.44 2.16.3.5.73.74 1.29.74Z" fill="#1B1B1B"/><path d="M86.06 66.11c-.47 0-.87-.09-1.2-.27a1.75 1.75 0 0 1-.73-.8 3.05 3.05 0 0 1-.24-1.27v-4.09h1.02v3.85c0 .56.1.99.33 1.26.22.28.58.42 1.09.42.28 0 .52-.04.73-.12a1.39 1.39 0 0 0 .86-.92c.08-.22.11-.47.11-.75v-3.74h1.02V66h-1.02v-.94h-.1c-.1.22-.23.41-.4.57a1.8 1.8 0 0 1-.64.36c-.24.08-.52.12-.83.12Zm7.06 0a3.4 3.4 0 0 1-1.24-.21 2.18 2.18 0 0 1-.86-.6 1.68 1.68 0 0 1-.39-.91h1.05c.08.26.25.47.5.63.25.16.58.24.98.24.29 0 .54-.04.75-.12.22-.09.4-.2.52-.35a.77.77 0 0 0 .18-.5v-.02a.7.7 0 0 0-.25-.54 1.99 1.99 0 0 0-.85-.37l-.98-.24a3.6 3.6 0 0 1-.97-.36 1.5 1.5 0 0 1-.56-.56 1.62 1.62 0 0 1-.18-.78c0-.36.1-.67.3-.95.2-.28.49-.5.84-.66a2.9 2.9 0 0 1 1.2-.24c.45 0 .84.07 1.18.21.34.14.62.34.82.59.22.25.34.55.4.9h-1.01a1.03 1.03 0 0 0-.46-.61 1.67 1.67 0 0 0-.93-.24c-.25 0-.47.04-.67.12-.2.08-.35.2-.46.33a.76.76 0 0 0-.17.5c0 .15.04.27.11.38.07.11.19.2.35.29.15.08.35.15.6.22l.97.23c.6.14 1.04.35 1.33.62.29.27.44.63.44 1.09 0 .38-.12.71-.34 1-.22.29-.52.51-.9.67-.38.16-.81.24-1.3.24Zm6.7 0a2.64 2.64 0 0 1-2.55-1.52 4 4 0 0 1-.35-1.72v-.01a4 4 0 0 1 .35-1.72 2.68 2.68 0 0 1 2.48-1.57c.58 0 1.07.14 1.48.4.41.27.73.64.95 1.11.22.48.33 1.03.33 1.66v.4h-5.06v-.82h4.54l-.5.74v-.4c0-.5-.08-.9-.23-1.22a1.57 1.57 0 0 0-1.51-.96c-.34 0-.65.08-.92.25-.26.17-.47.41-.63.73-.16.33-.24.73-.24 1.2v.4c0 .45.08.84.23 1.16a1.7 1.7 0 0 0 1.65.98c.28 0 .53-.04.74-.11.22-.08.39-.18.53-.3.13-.12.23-.25.28-.37l.03-.05h1.02l-.02.04a1.8 1.8 0 0 1-.29.63 2.36 2.36 0 0 1-1.31.93c-.3.1-.63.14-1 .14Zm6.6 0a2.43 2.43 0 0 1-2.31-1.54 4.22 4.22 0 0 1-.33-1.72v-.01c0-.66.1-1.24.33-1.73a2.44 2.44 0 0 1 2.32-1.54 2.33 2.33 0 0 1 1.5.52c.2.17.35.36.46.59h.1v-3.5h1.02V66h-1.02v-1h-.1a2.15 2.15 0 0 1-1.15.98c-.25.09-.52.13-.81.13Zm.24-.9c.38 0 .71-.1.99-.29.28-.19.5-.46.64-.81.15-.36.22-.78.22-1.26v-.01c0-.5-.07-.91-.22-1.26a1.81 1.81 0 0 0-.64-.82 1.7 1.7 0 0 0-.99-.29c-.38 0-.71.1-.99.3a1.8 1.8 0 0 0-.63.8c-.15.35-.22.77-.22 1.27s.07.92.22 1.27.36.63.63.82c.28.19.6.28.99.28Z" fill="#50575E"/><rect x="16" y="80" width="288" height="6" rx="3" fill="#DCDCDE"/><rect x="16" y="80" width="179" height="6" rx="3" fill="#47FF51"/><path d="M19.6 108.18a2.6 2.6 0 0 1-2-.87c-.27-.3-.5-.7-.66-1.2a5.86 5.86 0 0 1-.25-1.84v-.01c0-.89.12-1.64.35-2.26a3.1 3.1 0 0 1 1.02-1.43c.45-.34.98-.5 1.6-.5.44 0 .83.08 1.18.24a2.34 2.34 0 0 1 1.36 1.66l.01.07h-.97l-.02-.06a1.57 1.57 0 0 0-1.56-1.05c-.47 0-.85.14-1.15.41-.29.28-.5.64-.65 1.1a5.8 5.8 0 0 0-.25 1.63v.14l.23 1.3a1.84 1.84 0 0 0 .86 1.59c.27.15.57.23.9.23a1.7 1.7 0 0 0 1.5-.89c.17-.27.24-.57.24-.9v-.02c0-.34-.07-.64-.22-.9a1.6 1.6 0 0 0-.61-.64 1.73 1.73 0 0 0-.9-.23c-.33 0-.63.08-.9.23a1.7 1.7 0 0 0-.87 1.52h-.31v-1.4h.18a2.16 2.16 0 0 1 1.13-1.03c.28-.1.59-.16.94-.16a2.43 2.43 0 0 1 2.2 1.26c.23.4.34.83.34 1.33v.01a2.63 2.63 0 0 1-1.32 2.33c-.4.23-.87.34-1.4.34Zm4.66-.13a.68.68 0 0 1-.5-.2.69.69 0 0 1-.2-.5.68.68 0 0 1 .7-.7.7.7 0 0 1 .7.71.7.7 0 0 1-.2.49c-.14.14-.3.2-.5.2Zm2.28-.05v-.67l2.62-2.83c.33-.36.6-.66.78-.89.18-.23.31-.45.39-.64.08-.19.11-.4.11-.62v-.01c0-.27-.06-.52-.17-.73a1.3 1.3 0 0 0-.5-.51 1.55 1.55 0 0 0-.8-.19c-.3 0-.57.06-.8.2-.24.12-.42.3-.55.53-.13.22-.19.49-.19.79v.01h-.93l-.01-.01a2.31 2.31 0 0 1 1.24-2.06c.38-.2.82-.3 1.31-.3.45 0 .86.1 1.22.28.36.19.65.44.85.77a2 2 0 0 1 .32 1.12c0 .3-.05.58-.15.86-.1.27-.28.57-.54.9-.26.33-.62.74-1.1 1.22l-2 2.07.25-.45v.45l-.24-.16h3.91v.87h-5.02Zm12.12.1a2.43 2.43 0 0 1-2.35-1.4 3.66 3.66 0 0 1-.32-1.59v-.01c0-.62.1-1.15.32-1.6.22-.45.53-.8.93-1.03.4-.24.87-.36 1.42-.36.55 0 1.03.12 1.42.36.4.24.7.58.92 1.03.22.45.33.98.33 1.6v.01c0 .62-.1 1.15-.33 1.6a2.4 2.4 0 0 1-2.34 1.4Zm0-.82c.37 0 .68-.1.93-.26.25-.17.45-.42.58-.74a3 3 0 0 0 .2-1.17v-.01a3 3 0 0 0-.2-1.17 1.56 1.56 0 0 0-.58-.74 1.62 1.62 0 0 0-.93-.25c-.36 0-.67.08-.93.25a1.6 1.6 0 0 0-.58.74c-.14.32-.2.71-.2 1.17v.01c0 .45.06.84.2 1.17.13.32.33.56.58.74.26.17.57.26.93.26Zm4.5.72v-5.02h-.95v-.77h.96v-.64c0-.4.06-.71.18-.96.13-.25.32-.44.57-.56a2 2 0 0 1 .93-.2 3.04 3.04 0 0 1 .62.06v.75a5.91 5.91 0 0 0-.44-.03c-.33 0-.57.08-.71.24-.15.16-.22.4-.22.72v.62h1.32v.77H44.1V108h-.93Zm8.59 0v-6.68h-.09l-1.97 1.43v-1.02l2.07-1.48h.96V108h-.97Zm5.8.18c-.57 0-1.06-.16-1.47-.5a3.1 3.1 0 0 1-.94-1.4 6.4 6.4 0 0 1-.32-2.15v-.01c0-.83.1-1.55.32-2.16.22-.6.53-1.07.94-1.4.4-.33.9-.5 1.47-.5s1.06.17 1.47.5c.41.33.72.8.94 1.4.22.6.34 1.33.34 2.16 0 .84-.12 1.56-.34 2.17a3.1 3.1 0 0 1-.94 1.4c-.4.33-.9.5-1.47.5Zm0-.84c.37 0 .69-.13.95-.4.27-.25.47-.63.6-1.1a6 6 0 0 0 .22-1.71v-.01c0-.66-.07-1.23-.21-1.7a2.47 2.47 0 0 0-.6-1.11 1.3 1.3 0 0 0-.96-.4c-.37 0-.68.14-.95.4a2.5 2.5 0 0 0-.6 1.1 6.1 6.1 0 0 0-.21 1.7v.02c0 .66.07 1.23.2 1.7.15.48.35.86.61 1.12.27.26.58.39.95.39Zm10.76.84c-.53 0-1.02-.1-1.45-.28-.43-.2-.8-.46-1.1-.82a3.54 3.54 0 0 1-.71-1.28 5.31 5.31 0 0 1-.25-1.67v-.01c0-.82.15-1.53.44-2.14a3.28 3.28 0 0 1 3.07-1.91c.58 0 1.09.1 1.54.3a2.9 2.9 0 0 1 1.7 2.13v.06h-.97l-.02-.06c-.15-.5-.42-.88-.8-1.14-.39-.27-.87-.4-1.45-.4a2.3 2.3 0 0 0-2.2 1.49 4.8 4.8 0 0 0-.15 2.99c.12.4.29.73.5 1a2.27 2.27 0 0 0 1.86.85c.46 0 .87-.09 1.21-.27a2.06 2.06 0 0 0 1.11-1.93v-.18h-2.18v-.85h3.15v.94c0 .48-.08.91-.24 1.3a2.85 2.85 0 0 1-1.7 1.66c-.41.15-.86.22-1.36.22Zm5.5-.18v-.85h2.39c.58 0 1.03-.12 1.33-.35.3-.24.45-.57.45-1.02 0-.3-.07-.56-.21-.76-.14-.2-.35-.35-.63-.45-.28-.1-.62-.15-1.03-.15h-2.3v-.83h2.02c.6 0 1.03-.1 1.33-.31.3-.2.44-.52.44-.92v-.02c0-.39-.13-.7-.4-.9a1.71 1.71 0 0 0-1.12-.34H73.8v-.85h2.49c.47 0 .88.08 1.22.24a1.78 1.78 0 0 1 1.07 1.69 1.77 1.77 0 0 1-.66 1.35c-.2.17-.43.28-.68.32v.09c.36.04.66.15.92.32.26.16.46.38.6.65.14.27.21.57.21.9v.02c0 .45-.1.84-.32 1.17-.2.32-.5.57-.9.74a3.5 3.5 0 0 1-1.4.26H73.8Zm-.49 0v-7.75h.97V108h-.97Z" fill="#50575E"/><path d="M27.08 142v-8.46h5.13v.95h-4.08v2.91h3.75v.94h-3.75V142h-1.05Zm6.76 0v-6.32h1.02V142h-1.02Zm.52-7.53a.7.7 0 0 1-.5-.21.7.7 0 0 1-.2-.5.69.69 0 0 1 .7-.7c.2 0 .36.07.5.2.13.14.2.3.2.5a.7.7 0 0 1-.2.5c-.14.14-.3.2-.5.2Zm2.48 7.53v-8.82h1.02V142h-1.02Zm5.55.11a2.64 2.64 0 0 1-2.55-1.52 4 4 0 0 1-.34-1.72v-.01a4 4 0 0 1 .35-1.72 2.68 2.68 0 0 1 2.48-1.57 2.55 2.55 0 0 1 2.43 1.51c.22.48.33 1.03.33 1.66v.4h-5.06v-.82h4.54l-.5.74v-.4c0-.5-.08-.9-.23-1.22a1.57 1.57 0 0 0-.61-.72 1.7 1.7 0 0 0-.9-.24 1.65 1.65 0 0 0-1.55.99c-.16.32-.24.72-.24 1.19v.4c0 .45.08.84.23 1.16a1.7 1.7 0 0 0 1.65.98c.28 0 .53-.04.74-.11.21-.08.39-.18.52-.3.14-.12.24-.25.3-.37l.01-.05h1.02v.04c-.06.22-.16.43-.3.63a2.46 2.46 0 0 1-1.31.94c-.3.08-.63.13-1 .13Zm6.45 0a3.4 3.4 0 0 1-1.24-.21 2.17 2.17 0 0 1-.87-.6 1.68 1.68 0 0 1-.38-.91h1.04c.09.26.26.47.5.63.26.16.58.24.98.24.29 0 .54-.04.76-.12.21-.09.39-.2.51-.35a.77.77 0 0 0 .19-.5v-.02a.7.7 0 0 0-.26-.54 1.98 1.98 0 0 0-.84-.37l-.98-.24a3.6 3.6 0 0 1-.97-.36 1.51 1.51 0 0 1-.57-.56 1.62 1.62 0 0 1-.18-.78c0-.36.1-.67.3-.95.21-.28.5-.5.85-.66a2.9 2.9 0 0 1 1.2-.24c.44 0 .83.07 1.17.21.35.14.62.34.83.59.21.25.34.55.39.9h-1a1.03 1.03 0 0 0-.46-.61 1.67 1.67 0 0 0-.94-.24c-.24 0-.47.04-.66.13-.2.07-.35.18-.47.32a.76.76 0 0 0-.17.5c0 .15.04.27.12.38a1 1 0 0 0 .34.29c.16.08.36.15.6.22l.98.23c.6.14 1.03.35 1.32.62.3.27.44.63.44 1.08v.02c0 .37-.11.7-.33 1-.23.28-.53.5-.91.66a3.3 3.3 0 0 1-1.29.24Zm211.95-.11v-1.62h-4.14v-1.24a202.74 202.74 0 0 0 1.35-2.28 247.88 247.88 0 0 1 1.4-2.24l.7-1.08h2.13v5.59h1.14v1.25h-1.14V142h-1.44Zm-2.73-2.84h2.75v-4.4h-.09a170.64 170.64 0 0 1-1.08 1.67 56.57 56.57 0 0 0-1.58 2.65v.08Zm7.68 2.95a.9.9 0 0 1-.93-.92.9.9 0 0 1 .93-.93c.27 0 .5.1.67.28.18.17.27.39.27.65a.9.9 0 0 1-.94.92Zm4.43-.11v-6.97h-.1l-2.1 1.49v-1.42l2.2-1.56h1.51V142h-1.5Zm10.83.21c-.61 0-1.16-.1-1.65-.3a3.4 3.4 0 0 1-1.25-.9 3.96 3.96 0 0 1-.8-1.39 5.77 5.77 0 0 1-.27-1.84v-.02c0-.9.16-1.68.49-2.34a3.63 3.63 0 0 1 3.46-2.09c.65 0 1.23.12 1.75.36.51.23.93.55 1.26.97.33.41.54.9.63 1.44v.06h-1.5v-.06a1.91 1.91 0 0 0-.77-1.07 2.35 2.35 0 0 0-1.37-.39c-.5 0-.92.13-1.29.38-.35.25-.63.61-.83 1.08-.2.46-.29 1.02-.29 1.65v.01c0 .49.06.92.17 1.31.11.39.28.72.49 1a2.17 2.17 0 0 0 1.8.83c.43 0 .8-.08 1.13-.25.32-.17.58-.4.76-.7.2-.3.29-.65.3-1.05v-.18h-2.03v-1.15h3.5v1.06a4.1 4.1 0 0 1-.25 1.48 3.1 3.1 0 0 1-1.92 1.85c-.45.17-.96.25-1.52.25Zm6.21-.21v-1.17h2.52c.56 0 .98-.12 1.27-.34.29-.23.43-.56.43-1 0-.29-.06-.53-.2-.72a1.1 1.1 0 0 0-.6-.44 2.7 2.7 0 0 0-.97-.15h-2.45v-1.07h2.22c.53 0 .94-.1 1.22-.3.28-.21.42-.5.42-.89 0-.38-.13-.68-.38-.89a1.62 1.62 0 0 0-1.07-.31h-2.4v-1.18h2.76c.54 0 1 .1 1.39.26a1.93 1.93 0 0 1 1.19 1.85v.01a1.86 1.86 0 0 1-.74 1.48c-.22.17-.48.28-.76.32v.11c.38.03.7.15 1 .33.28.18.5.41.67.7.16.3.24.63.24 1a2.17 2.17 0 0 1-1.35 2.11c-.43.2-.95.29-1.55.29h-2.86Zm-.75 0v-8.46h1.5V142h-1.5ZM27.08 185v-8.46h2.9c.83 0 1.55.17 2.14.5.6.34 1.06.82 1.37 1.45.32.63.48 1.39.48 2.27v.02c0 .88-.16 1.64-.48 2.28a3.35 3.35 0 0 1-1.36 1.44c-.6.33-1.31.5-2.15.5h-2.9Zm1.05-.95h1.78c.63 0 1.16-.13 1.61-.39.44-.25.78-.63 1.02-1.12.23-.48.35-1.07.35-1.75v-.01c0-.7-.12-1.28-.36-1.77a2.47 2.47 0 0 0-1.02-1.12c-.44-.26-.98-.4-1.6-.4h-1.78v6.56Zm9.27 1.06c-.4 0-.76-.08-1.08-.23a1.86 1.86 0 0 1-.75-.65 1.78 1.78 0 0 1-.28-1c0-.38.1-.7.27-.97.18-.27.44-.48.79-.63a3.6 3.6 0 0 1 1.25-.27l2.32-.14v.81l-2.2.15c-.48.02-.83.12-1.06.3a.87.87 0 0 0-.32.72v.01c0 .32.12.57.36.75.24.18.55.27.91.27.35 0 .66-.07.93-.2.27-.15.48-.34.63-.58.16-.23.24-.5.24-.8v-1.97c0-.4-.12-.7-.36-.9-.24-.2-.59-.3-1.06-.3-.38 0-.7.06-.93.2a.99.99 0 0 0-.49.57v.02h-1.03l.01-.04c.06-.33.2-.62.41-.87.22-.25.51-.44.86-.58.35-.14.75-.2 1.2-.2.52 0 .95.08 1.31.24.36.17.63.41.81.73.2.31.29.69.29 1.13V185H39.4v-.93h-.1a2.15 2.15 0 0 1-1.12.92c-.24.08-.5.12-.79.12Zm7.13-.06c-.65 0-1.12-.13-1.4-.4-.3-.26-.44-.69-.44-1.3v-3.82h-1v-.85h1v-1.63h1.05v1.63h1.38v.85h-1.38v3.57c0 .37.07.64.21.8.14.16.38.25.7.25a3.67 3.67 0 0 0 .48-.03v.87a5.9 5.9 0 0 1-.6.06Zm3.85.06c-.4 0-.76-.08-1.08-.23a1.86 1.86 0 0 1-.75-.65 1.78 1.78 0 0 1-.28-1c0-.38.1-.7.27-.97.18-.27.44-.48.79-.63a3.6 3.6 0 0 1 1.25-.27l2.32-.14v.81l-2.2.15c-.48.02-.83.12-1.06.3a.87.87 0 0 0-.32.72v.01c0 .32.12.57.36.75.24.18.55.27.91.27.35 0 .66-.07.93-.2.27-.15.48-.34.63-.58.16-.23.24-.5.24-.8v-1.97c0-.4-.12-.7-.36-.9-.24-.2-.59-.3-1.06-.3-.38 0-.7.06-.93.2a.99.99 0 0 0-.49.57v.02h-1.02v-.04c.06-.33.2-.62.41-.87.22-.25.51-.44.86-.58.35-.14.75-.2 1.2-.2.52 0 .96.08 1.31.24.36.17.63.41.81.73.2.31.29.69.29 1.13V185h-1.02v-.93h-.1a2.15 2.15 0 0 1-1.12.92c-.24.08-.5.12-.79.12Zm8.03 0a2.17 2.17 0 0 1-1.48-.51c-.2-.17-.36-.37-.49-.6h-.1v1h-1.01v-8.82h1.02v3.5h.1c.1-.23.26-.42.46-.59a2.38 2.38 0 0 1 1.5-.52c.54 0 1 .14 1.4.4.4.28.7.66.92 1.14.22.5.33 1.07.33 1.73a4.2 4.2 0 0 1-.33 1.73c-.22.49-.53.87-.93 1.14-.39.27-.85.4-1.39.4Zm-.23-.9c.38 0 .71-.1.99-.28.27-.2.48-.47.62-.82.15-.35.23-.77.23-1.26v-.01c0-.5-.08-.92-.23-1.27a1.76 1.76 0 0 0-.62-.8c-.28-.2-.6-.3-1-.3-.38 0-.7.1-.98.3-.28.18-.5.45-.64.8-.15.36-.23.78-.23 1.27 0 .5.08.91.23 1.27.15.35.36.62.64.81.27.2.6.29.99.29Zm6.2.9c-.4 0-.76-.08-1.08-.23a1.86 1.86 0 0 1-.76-.65 1.78 1.78 0 0 1-.27-1c0-.38.09-.7.27-.97.17-.27.44-.48.78-.63a3.6 3.6 0 0 1 1.25-.27l2.32-.14v.81l-2.2.15c-.48.02-.83.12-1.05.3a.87.87 0 0 0-.33.72v.01c0 .32.12.57.36.75.24.18.55.27.92.27.34 0 .65-.07.92-.2.27-.15.48-.34.63-.58.16-.23.24-.5.24-.8v-1.97c0-.4-.12-.7-.36-.9-.23-.2-.59-.3-1.06-.3-.38 0-.69.06-.93.2a.99.99 0 0 0-.49.57v.02h-1.02v-.04c.06-.33.2-.62.41-.87.23-.25.51-.44.86-.58.36-.14.76-.2 1.2-.2.52 0 .96.08 1.31.24.36.17.63.41.82.73.18.31.28.69.28 1.13V185h-1.02v-.93h-.1a2.15 2.15 0 0 1-1.12.92c-.24.08-.5.12-.78.12Zm7.05 0a3.4 3.4 0 0 1-1.24-.21 2.17 2.17 0 0 1-.87-.6 1.68 1.68 0 0 1-.38-.91h1.04c.09.26.26.47.5.63.26.16.58.24.98.24.29 0 .54-.04.75-.12.22-.09.4-.2.52-.35a.77.77 0 0 0 .19-.5v-.02a.7.7 0 0 0-.26-.54 1.98 1.98 0 0 0-.84-.37l-.98-.24a3.6 3.6 0 0 1-.97-.36 1.51 1.51 0 0 1-.57-.56 1.62 1.62 0 0 1-.18-.78c0-.36.1-.67.3-.95.21-.28.5-.5.85-.66a2.9 2.9 0 0 1 1.2-.24c.44 0 .83.07 1.17.21a2 2 0 0 1 .83.59c.21.25.34.55.39.9h-1a1.03 1.03 0 0 0-.46-.61 1.67 1.67 0 0 0-.94-.24c-.25 0-.47.04-.66.13-.2.07-.35.18-.47.32a.76.76 0 0 0-.17.5c0 .15.04.27.12.38.07.11.18.2.34.29.16.08.36.15.6.22l.98.23c.6.14 1.03.35 1.32.62.3.27.44.63.44 1.08v.02c0 .37-.11.7-.33 1-.23.28-.53.5-.91.66a3.3 3.3 0 0 1-1.29.24Zm6.7 0a2.64 2.64 0 0 1-2.55-1.52 4 4 0 0 1-.35-1.72v-.01a4 4 0 0 1 .34-1.72 2.68 2.68 0 0 1 2.48-1.57 2.54 2.54 0 0 1 2.43 1.51c.23.48.34 1.03.34 1.66v.4h-5.07v-.82h4.54l-.5.74v-.4c0-.5-.07-.9-.22-1.22a1.57 1.57 0 0 0-.62-.72 1.7 1.7 0 0 0-.9-.24 1.66 1.66 0 0 0-1.55.99 2.8 2.8 0 0 0-.23 1.19v.4c0 .45.08.84.23 1.16a1.7 1.7 0 0 0 1.64.98c.29 0 .54-.04.75-.11.21-.08.38-.18.52-.3s.23-.25.29-.37l.02-.05h1.02l-.01.04c-.06.22-.15.43-.3.63-.13.2-.3.38-.53.54-.22.16-.48.3-.78.4-.3.08-.63.13-1 .13Zm182.83-.11v-6.97h-.1l-2.11 1.49v-1.42l2.2-1.56h1.51V185h-1.5Zm4.63.11a.9.9 0 0 1-.93-.92.9.9 0 0 1 .93-.93c.27 0 .49.1.67.28.17.17.26.39.26.65a.9.9 0 0 1-.93.92Zm5.56.1a3.02 3.02 0 0 1-2.37-1.02c-.31-.35-.56-.8-.74-1.34a6.34 6.34 0 0 1-.27-1.97v-.01c0-.95.14-1.76.41-2.44a3.4 3.4 0 0 1 1.18-1.56 3.1 3.1 0 0 1 1.82-.54c.52 0 .99.1 1.4.3a2.6 2.6 0 0 1 1.58 1.93l.02.05h-1.49l-.02-.06a1.46 1.46 0 0 0-.82-.85 1.7 1.7 0 0 0-.67-.12c-.45 0-.81.13-1.1.4-.28.26-.49.6-.63 1.05a5.81 5.81 0 0 0-.25 1.65v.17l.27 1.4a1.74 1.74 0 0 0 .82 1.5c.26.15.54.23.85.23a1.66 1.66 0 0 0 1.67-1.69c0-.34-.07-.63-.21-.88a1.54 1.54 0 0 0-.59-.6 1.68 1.68 0 0 0-.86-.21c-.31 0-.6.07-.86.21a1.58 1.58 0 0 0-.82 1.44h-.36v-1.55h.21a2.2 2.2 0 0 1 1.19-1.08c.3-.12.63-.18 1.01-.18a2.61 2.61 0 0 1 2.42 1.36c.23.42.35.9.35 1.43v.01a2.9 2.9 0 0 1-.4 1.53c-.27.44-.65.8-1.12 1.05-.47.26-1 .4-1.62.4Zm11.75 0c-.62 0-1.17-.1-1.66-.3-.48-.21-.9-.5-1.25-.9a4 4 0 0 1-.8-1.39 5.8 5.8 0 0 1-.27-1.84v-.02c0-.9.17-1.68.49-2.34a3.63 3.63 0 0 1 3.46-2.09c.65 0 1.24.12 1.75.36a3.21 3.21 0 0 1 1.89 2.41l.01.06h-1.5l-.01-.06c-.14-.46-.4-.82-.77-1.07a2.35 2.35 0 0 0-1.37-.39 2.19 2.19 0 0 0-2.11 1.46c-.2.46-.3 1.02-.3 1.65v.01c0 .49.06.92.18 1.31.1.39.27.72.48 1a2.18 2.18 0 0 0 1.8.83c.43 0 .8-.08 1.13-.25.33-.17.58-.4.77-.7a2 2 0 0 0 .3-1.05v-.18h-2.04v-1.15h3.5v1.06a4.1 4.1 0 0 1-.25 1.48 3.12 3.12 0 0 1-1.91 1.85c-.45.17-.96.25-1.52.25Zm6.2-.21v-1.17h2.52c.56 0 .98-.12 1.27-.34.3-.23.44-.56.44-1 0-.29-.07-.53-.2-.72a1.2 1.2 0 0 0-.6-.44c-.26-.1-.59-.15-.97-.15h-2.45v-1.07h2.21c.54 0 .94-.1 1.22-.3.28-.21.42-.5.42-.89 0-.38-.12-.68-.38-.89-.25-.2-.6-.31-1.06-.31h-2.41v-1.18h2.77c.54 0 1 .1 1.38.26.38.17.68.41.89.73.2.31.3.69.3 1.12v.01a1.89 1.89 0 0 1-.74 1.48c-.22.17-.47.28-.76.32v.11c.38.03.71.15 1 .33a1.98 1.98 0 0 1 .92 1.7c0 .5-.12.92-.35 1.28-.23.36-.57.64-1 .83-.43.2-.95.29-1.55.29h-2.86Zm-.75 0v-8.46h1.51V185h-1.5ZM27.08 228v-8.46h1.22l2.9 7.06h.1l2.89-7.06h1.22V228h-.98v-6.46h-.52l1.18-1.76-3.4 8.22h-.9l-3.39-8.22 1.18 1.76h-.52V228h-.98Zm12.94.11a2.64 2.64 0 0 1-2.55-1.52 4 4 0 0 1-.35-1.72v-.01a4 4 0 0 1 .35-1.72 2.68 2.68 0 0 1 2.48-1.57 2.55 2.55 0 0 1 2.43 1.51c.22.48.33 1.03.33 1.66v.4h-5.06v-.82h4.54l-.5.74v-.4c0-.5-.08-.9-.23-1.22a1.57 1.57 0 0 0-.61-.72 1.7 1.7 0 0 0-.9-.24c-.34 0-.65.08-.92.25-.26.17-.48.41-.63.74-.16.32-.24.72-.24 1.19v.4c0 .45.08.84.23 1.16a1.7 1.7 0 0 0 1.65.98c.28 0 .53-.04.74-.11.21-.08.39-.18.52-.3.14-.12.24-.25.3-.37l.02-.05h1.01v.04a2.26 2.26 0 0 1-.83 1.17c-.22.16-.48.3-.78.4-.3.08-.63.13-1 .13Zm6.6 0a2.43 2.43 0 0 1-2.32-1.54 4.2 4.2 0 0 1-.32-1.72v-.01c0-.66.1-1.24.32-1.73s.53-.86.92-1.13c.4-.27.87-.4 1.4-.4a2.33 2.33 0 0 1 1.5.51c.2.17.36.36.47.59h.1v-3.5h1.02V228h-1.02v-1h-.1c-.13.23-.29.43-.48.6a2.33 2.33 0 0 1-1.48.51Zm.24-.9c.38 0 .71-.1.99-.29.28-.19.49-.46.64-.81.15-.36.22-.78.22-1.26v-.01c0-.5-.07-.91-.22-1.26a1.82 1.82 0 0 0-.64-.82 1.7 1.7 0 0 0-1-.28c-.37 0-.7.09-.98.28a1.8 1.8 0 0 0-.63.81c-.15.35-.22.77-.22 1.27s.07.92.22 1.27c.14.35.36.63.63.82.28.19.6.28.99.28Zm4.83.79v-6.32h1.02V228h-1.02Zm.51-7.53a.7.7 0 0 1-.5-.21.7.7 0 0 1-.2-.5.69.69 0 0 1 .7-.7c.2 0 .36.07.5.2.14.14.2.3.2.5a.7.7 0 0 1-.2.5c-.14.14-.3.2-.5.2Zm4.16 7.64c-.4 0-.75-.08-1.07-.23a1.86 1.86 0 0 1-.76-.65 1.78 1.78 0 0 1-.28-1c0-.38.1-.7.27-.97.18-.27.44-.48.79-.63a3.6 3.6 0 0 1 1.25-.27l2.32-.14v.81l-2.2.15c-.48.02-.83.12-1.05.3a.87.87 0 0 0-.33.72v.01c0 .32.12.57.36.75.24.18.55.27.91.27.35 0 .66-.07.93-.2.27-.15.48-.34.63-.58.16-.23.24-.5.24-.8v-1.97c0-.4-.12-.7-.36-.9-.23-.2-.59-.3-1.06-.3-.38 0-.69.06-.93.2a.99.99 0 0 0-.49.57v.02H54.5v-.04c.06-.33.2-.62.41-.87.22-.25.51-.44.86-.58.35-.14.76-.2 1.2-.2.52 0 .96.08 1.31.24.36.17.63.41.82.73.18.31.28.69.28 1.13V228h-1.02v-.93h-.1a2.15 2.15 0 0 1-1.12.92c-.24.08-.5.12-.79.12Zm201.62.1a2.8 2.8 0 0 1-1.72-.54 3.41 3.41 0 0 1-1.1-1.53 6.51 6.51 0 0 1-.4-2.36v-.02c0-.9.14-1.7.4-2.35a3.4 3.4 0 0 1 1.1-1.54 2.8 2.8 0 0 1 1.72-.54c.68 0 1.25.18 1.73.54.48.36.85.87 1.11 1.54.26.66.39 1.44.39 2.35v.02c0 .9-.13 1.7-.39 2.36a3.4 3.4 0 0 1-1.1 1.53 2.8 2.8 0 0 1-1.74.54Zm0-1.22c.36 0 .67-.13.92-.39.26-.26.45-.63.58-1.1.14-.48.2-1.06.2-1.72v-.02c0-.66-.06-1.24-.2-1.71a2.44 2.44 0 0 0-.58-1.1 1.25 1.25 0 0 0-.92-.4c-.36 0-.66.14-.92.4-.25.25-.44.62-.58 1.1a6.5 6.5 0 0 0-.2 1.71v.02c0 .66.07 1.24.2 1.72.14.47.33.84.58 1.1.26.26.56.39.92.39Zm5.41 1.12a.9.9 0 0 1-.93-.92.9.9 0 0 1 .93-.93c.27 0 .5.1.67.28.18.17.26.39.26.65a.9.9 0 0 1-.26.66.9.9 0 0 1-.67.26Zm5.54.1a3.4 3.4 0 0 1-1.52-.32 2.52 2.52 0 0 1-1.49-2.12v-.08h1.39v.04c.05.23.14.44.28.63.15.19.34.34.57.45.23.11.49.16.78.16.32 0 .61-.07.86-.21.26-.15.45-.35.6-.6.14-.26.2-.55.2-.88v-.01c0-.33-.07-.62-.21-.87a1.5 1.5 0 0 0-.59-.59 1.66 1.66 0 0 0-.85-.22c-.24 0-.46.04-.66.1-.2.08-.38.19-.54.33a1.69 1.69 0 0 0-.4.48h-1.29l.42-4.96h5.07v1.24h-3.9l-.24 2.58h.1a1.96 1.96 0 0 1 1.06-.8c.24-.07.49-.1.75-.1a2.56 2.56 0 0 1 2.37 1.35c.23.41.35.9.35 1.43v.01c0 .59-.13 1.1-.4 1.55a2.7 2.7 0 0 1-1.1 1.04c-.46.25-1 .37-1.61.37Zm11.69 0a4.3 4.3 0 0 1-1.65-.3c-.5-.21-.9-.5-1.26-.9a4.1 4.1 0 0 1-.79-1.39 5.77 5.77 0 0 1-.27-1.84v-.02c0-.9.16-1.68.48-2.34a3.63 3.63 0 0 1 3.47-2.09c.65 0 1.23.12 1.74.36.52.23.94.55 1.27.97.33.41.53.9.62 1.44l.02.06h-1.5l-.02-.06c-.14-.46-.4-.82-.76-1.07a2.35 2.35 0 0 0-1.37-.39c-.5 0-.92.13-1.29.38-.36.25-.63.61-.83 1.08-.2.46-.3 1.02-.3 1.65v.01c0 .49.06.92.18 1.31a3 3 0 0 0 .48 1 2.18 2.18 0 0 0 1.8.83c.43 0 .8-.08 1.13-.25.33-.17.59-.4.77-.7.19-.3.29-.65.3-1.05v-.18h-2.03v-1.15h3.5v1.06a3.9 3.9 0 0 1-.26 1.48 3.12 3.12 0 0 1-1.9 1.85c-.46.17-.97.25-1.53.25Zm6.21-.21v-1.17h2.51c.56 0 .99-.12 1.28-.34.28-.23.43-.56.43-1 0-.29-.07-.53-.2-.72a1.2 1.2 0 0 0-.6-.44 2.7 2.7 0 0 0-.97-.15h-2.45v-1.07h2.22c.53 0 .94-.1 1.21-.3.29-.21.43-.5.43-.89 0-.38-.13-.68-.38-.89a1.62 1.62 0 0 0-1.07-.31h-2.41v-1.18h2.77c.54 0 1 .1 1.38.26.39.17.68.41.89.73.2.31.31.69.31 1.12v.01a1.89 1.89 0 0 1-.74 1.48c-.23.17-.48.28-.77.32v.11c.38.03.71.15 1 .33a1.98 1.98 0 0 1 .92 1.7 2.17 2.17 0 0 1-1.35 2.11c-.43.2-.95.29-1.55.29h-2.86Zm-.76 0v-8.46h1.52V228h-1.52Z" fill="#1D2327"/></svg>