<svg width="155" height="165" viewBox="0 0 155 165" fill="none" xmlns="http://www.w3.org/2000/svg">
<rect width="155" height="164.291" fill="white"/>
<path fill-rule="evenodd" clip-rule="evenodd" d="M77.5 27.3822C101.008 27.3822 120.577 45.1119 124.969 68.7287C141.76 69.9609 155 84.6101 155 102.682C155 121.576 140.533 136.909 122.708 136.909H38.75C17.3729 136.909 0 118.495 0 95.8367C0 74.6842 15.1125 57.2283 34.5521 55.0378C42.625 38.6087 58.8354 27.3822 77.5 27.3822ZM90.4171 116.373V88.9916H109.792L77.5004 54.7644L45.2088 88.9916H64.5838V116.373H90.4171Z" fill="#A7AAAD"/>
<mask id="mask0" mask-type="alpha" maskUnits="userSpaceOnUse" x="0" y="27" width="155" height="110">
<path d="M124.969 68.7287C120.577 45.1119 101.008 27.3822 77.5 27.3822C58.8354 27.3822 42.625 38.6087 34.5521 55.0378C15.1125 57.2283 0 74.6842 0 95.8367C0 118.495 17.3729 136.909 38.75 136.909H122.708C140.533 136.909 155 121.576 155 102.682C155 84.6101 141.76 69.9609 124.969 68.7287Z" fill="white"/>
</mask>
<g mask="url(#mask0)">
<rect width="155" height="164.291" fill="#D63638"/>
</g>
<path d="M71.2354 47.8109H83.8291V87.675H71.2354V47.8109Z" fill="white"/>
<path d="M71.2354 101.105H83.8291V114.267H71.2354V101.105Z" fill="white"/>
</svg>
