<svg enable-background="new 0 0 160 160" viewBox="0 0 160 160" xmlns="http://www.w3.org/2000/svg"><path d="m56.4 121.6h-5c-.3 0-.5-.2-.5-.5s.2-.5.5-.5h4.5v-4.5c0-.3.2-.5.5-.5s.5.2.5.5v5c0 .2-.3.5-.5.5zm-10 0h-5c-.3 0-.5-.2-.5-.5s.2-.5.5-.5h5c.3 0 .5.2.5.5s-.3.5-.5.5zm-10 0h-3.4c-.3 0-.5-.2-.5-.5v-1.6c0-.3.2-.5.5-.5s.5.2.5.5v1.1h2.9c.3 0 .5.2.5.5s-.3.5-.5.5zm-3.4-6.7c-.3 0-.5-.2-.5-.5v-5c0-.3.2-.5.5-.5s.5.2.5.5v5c0 .3-.2.5-.5.5zm23.4-3.3c-.3 0-.5-.2-.5-.5v-5c0-.3.2-.5.5-.5s.5.2.5.5v5c0 .2-.3.5-.5.5zm-23.4-6.7c-.3 0-.5-.2-.5-.5v-5c0-.3.2-.5.5-.5s.5.2.5.5v5c0 .3-.2.5-.5.5zm23.4-3.3c-.3 0-.5-.2-.5-.5v-5c0-.3.2-.5.5-.5s.5.2.5.5v5c0 .2-.3.5-.5.5zm-23.4-6.7c-.3 0-.5-.2-.5-.5v-5c0-.3.2-.5.5-.5s.5.2.5.5v5c0 .3-.2.5-.5.5zm23.4-3.3c-.3 0-.5-.2-.5-.5v-5c0-.3.2-.5.5-.5s.5.2.5.5v5c0 .2-.3.5-.5.5zm-23.4-6.7c-.3 0-.5-.2-.5-.5v-5c0-.3.2-.5.5-.5s.5.2.5.5v5c0 .3-.2.5-.5.5zm23.4-3.3c-.3 0-.5-.2-.5-.5v-5c0-.3.2-.5.5-.5s.5.2.5.5v5c0 .2-.3.5-.5.5zm-23.4-6.7c-.3 0-.5-.2-.5-.5v-5c0-.3.2-.5.5-.5s.5.2.5.5v5c0 .3-.2.5-.5.5zm23.4-3.3c-.3 0-.5-.2-.5-.5v-5c0-.3.2-.5.5-.5s.5.2.5.5v5c0 .2-.3.5-.5.5zm-23.4-6.7c-.3 0-.5-.2-.5-.5v-2.5c0-.3.2-.5.5-.5h2.5c.3 0 .5.2.5.5s-.2.5-.5.5h-2v2c0 .3-.2.5-.5.5zm22.5-2.5h-5c-.3 0-.5-.2-.5-.5s.2-.5.5-.5h5c.3 0 .5.2.5.5s-.2.5-.5.5zm-10 0h-5c-.3 0-.5-.2-.5-.5s.2-.5.5-.5h5c.3 0 .5.2.5.5s-.2.5-.5.5zm81.6 59.2h-5c-.3 0-.5-.2-.5-.5s.2-.5.5-.5h4.5v-1.5c0-.3.2-.5.5-.5s.5.2.5.5v2c0 .2-.2.5-.5.5zm-10 0h-5c-.3 0-.5-.2-.5-.5s.2-.5.5-.5h5c.3 0 .5.2.5.5s-.2.5-.5.5zm-10 0h-5c-.3 0-.5-.2-.5-.5s.2-.5.5-.5h5c.3 0 .5.2.5.5s-.2.5-.5.5zm-10 0h-5c-.3 0-.5-.2-.5-.5s.2-.5.5-.5h5c.3 0 .5.2.5.5s-.2.5-.5.5zm-10 0h-5c-.3 0-.5-.2-.5-.5s.2-.5.5-.5h5c.3 0 .5.2.5.5s-.2.5-.5.5zm-10 0h-5c-.3 0-.5-.2-.5-.5s.2-.5.5-.5h5c.3 0 .5.2.5.5s-.2.5-.5.5zm-7.2-2.8c-.3 0-.5-.2-.5-.5v-5c0-.3.2-.5.5-.5s.5.2.5.5v5c0 .3-.2.5-.5.5zm57.2-4.2c-.3 0-.5-.2-.5-.5v-5c0-.3.2-.5.5-.5s.5.2.5.5v5c0 .2-.2.5-.5.5zm-57.2-5.8c-.3 0-.5-.2-.5-.5v-5c0-.3.2-.5.5-.5s.5.2.5.5v5c0 .3-.2.5-.5.5zm57.2-4.2c-.3 0-.5-.2-.5-.5v-5c0-.3.2-.5.5-.5s.5.2.5.5v5c0 .2-.2.5-.5.5zm-57.2-5.8c-.3 0-.5-.2-.5-.5v-5c0-.3.2-.5.5-.5s.5.2.5.5v5c0 .3-.2.5-.5.5zm57.2-4.2c-.3 0-.5-.2-.5-.5v-5c0-.3.2-.5.5-.5s.5.2.5.5v5c0 .2-.2.5-.5.5zm-57.2-5.8c-.3 0-.5-.2-.5-.5v-1c0-.3.2-.5.5-.5h4c.3 0 .5.2.5.5s-.2.5-.5.5h-3.5v.5c0 .3-.2.5-.5.5zm54-1h-5c-.3 0-.5-.2-.5-.5s.2-.5.5-.5h5c.3 0 .5.2.5.5s-.2.5-.5.5zm-10 0h-5c-.3 0-.5-.2-.5-.5s.2-.5.5-.5h5c.3 0 .5.2.5.5s-.2.5-.5.5zm-10 0h-5c-.3 0-.5-.2-.5-.5s.2-.5.5-.5h5c.3 0 .5.2.5.5s-.2.5-.5.5zm-10 0h-5c-.3 0-.5-.2-.5-.5s.2-.5.5-.5h5c.3 0 .5.2.5.5s-.2.5-.5.5zm-10 0h-5c-.3 0-.5-.2-.5-.5s.2-.5.5-.5h5c.3 0 .5.2.5.5s-.2.5-.5.5zm43.2-14.9h-5c-.3 0-.5-.2-.5-.5s.2-.5.5-.5h4.5v-4.9c0-.3.2-.5.5-.5s.5.2.5.5v5.4c0 .2-.2.5-.5.5zm-10 0h-5c-.3 0-.5-.2-.5-.5s.2-.5.5-.5h5c.3 0 .5.2.5.5s-.2.5-.5.5zm-10 0h-5c-.3 0-.5-.2-.5-.5s.2-.5.5-.5h5c.3 0 .5.2.5.5s-.2.5-.5.5zm-10 0h-5c-.3 0-.5-.2-.5-.5s.2-.5.5-.5h5c.3 0 .5.2.5.5s-.2.5-.5.5zm-10 0h-5c-.3 0-.5-.2-.5-.5s.2-.5.5-.5h5c.3 0 .5.2.5.5s-.2.5-.5.5zm-10 0h-5c-.3 0-.5-.2-.5-.5s.2-.5.5-.5h5c.3 0 .5.2.5.5s-.2.5-.5.5zm-7.2-2.8c-.3 0-.5-.2-.5-.5v-5c0-.3.2-.5.5-.5s.5.2.5.5v5c0 .3-.2.5-.5.5zm57.2-7.6c-.1 0-.2 0-.3-.1h-4.6c-.3 0-.5-.2-.5-.5s.2-.5.5-.5h4.9c.3 0 .5.2.5.5v.1c0 .3-.2.5-.5.5zm-9.9-.1h-5c-.3 0-.5-.2-.5-.5s.2-.5.5-.5h5c.3 0 .5.2.5.5s-.2.5-.5.5zm-10 0h-5c-.3 0-.5-.2-.5-.5s.2-.5.5-.5h5c.3 0 .5.2.5.5s-.2.5-.5.5zm-10 0h-5c-.3 0-.5-.2-.5-.5s.2-.5.5-.5h5c.3 0 .5.2.5.5s-.2.5-.5.5zm-10 0h-5c-.3 0-.5-.2-.5-.5s.2-.5.5-.5h5c.3 0 .5.2.5.5s-.2.5-.5.5zm-10 0h-5c-.3 0-.5-.2-.5-.5s.2-.5.5-.5h5c.3 0 .5.2.5.5s-.2.5-.5.5zm-60.7 72.5c-.4-28-.7-56.1-.8-84.1l-.1-10.5v-5.3c0-.9.1-1.9.4-2.9.3-.9.8-1.8 1.3-2.6 1.2-1.6 2.9-2.7 4.9-3.2 1-.2 2-.2 2.8-.2h13.1l42.1-.1 42.1-.1h13.1c.8 0 1.9 0 2.9.2 2 .4 3.7 1.6 5 3.2.6.8 1.1 1.7 1.4 2.7.3.9.4 2 .4 2.9v15.8l-.1 84.1c0 .5-.4 1-1 1l-58.7-.2-29.3-.1-29.3-.2c-.2 0-.4-.2-.4-.4s.2-.4.4-.4l29.3-.2 29.3-.1 58.7-.2-1 1-.1-84.1v-15.8c0-.8-.1-1.5-.3-2.3-.2-.7-.6-1.4-1-2-.9-1.2-2.2-2.1-3.7-2.4-.7-.2-1.4-.2-2.4-.2h-13.1l-42.1-.1-42.1-.1h-13.1c-.9 0-1.6 0-2.4.2-1.5.3-2.8 1.2-3.8 2.4-.5.6-.8 1.3-1.1 2-.2.8-.3 1.5-.3 2.3v15.8c0 28-.2 56.1-.5 84.1 0 .1-.1.2-.2.2-.2.1-.3 0-.3-.1zm133.7-88c-11.7.6-23.3.7-35 .8l-17.5.1h-17.5l-35-.2c-11.7-.1-23.3-.2-35-.6-.2 0-.4-.2-.4-.4s.2-.4.4-.4c11.7-.4 23.3-.5 35-.6l35-.2h17.5l17.5.1c11.7.1 23.3.3 35 .8.1 0 .2.1.2.2 0 .3-.1.4-.2.4zm-81 71.6c-.1 0-.2 0-.2-.1-.2-.1-.3-.4-.2-.7.8-1.5 1.8-3 2.8-4.2.2-.2.5-.2.7-.1.2.2.2.5.1.7-1 1.2-1.9 2.6-2.7 4.1-.2.2-.4.3-.5.3zm35-6.5h-.3c-.3 0-.5-.2-.5-.5s.2-.5.5-.5h.4c1.4 0 2.7-.4 4.1-1.2.2-.1.5-.1.7.2.1.2.1.5-.2.7-1.6.9-3.2 1.3-4.7 1.3zm-5.2-.8h-.2c-1.3-.4-2.5-.9-3.7-1.4l-1-.4c-.3-.1-.4-.4-.3-.7s.4-.4.7-.3l1 .4c1.2.5 2.4 1 3.6 1.4.3.1.4.4.3.6 0 .2-.2.4-.4.4zm-23.5-.4c-.1 0-.3-.1-.4-.2-.2-.2-.1-.5.1-.7 1.4-1.1 2.9-2 4.4-2.6.3-.1.5 0 .7.3.1.3 0 .5-.3.7-1.4.6-2.9 1.4-4.2 2.5zm14.1-3.1c-1.7-.4-3.2-.5-4.9-.5-.3 0-.5-.2-.5-.5s.2-.5.5-.5c1.7 0 3.4.2 5 .6.3.1.4.3.4.6-.1.2-.3.3-.5.3zm23 0c-.1 0-.3-.1-.4-.2-.2-.2-.2-.5.1-.7l.5-.5 3.3-2.8c.2-.2.5-.1.7.1s.1.5-.1.7c-1.2.9-2.2 1.8-3.3 2.7l-.5.5c-.1.1-.2.2-.3.2zm8.1-5.8c-.2 0-.4-.1-.5-.3-.1-.3 0-.5.3-.7 1.6-.7 3.2-1.1 5-1.3.3 0 .5.2.5.4 0 .3-.2.5-.4.5-1.6.2-3.1.6-4.7 1.2-.1.2-.1.2-.2.2z" fill="#a7aaad"/></svg>
