<svg width="22" height="22" viewBox="0 0 22 22" fill="none" xmlns="http://www.w3.org/2000/svg">
<g id="Categroy Nav Icon">
<path id="Vector" d="M10.1281 2.68311C10.4031 1.83886 11.5975 1.83886 11.8716 2.68311L13.264 6.96761C13.3239 7.15139 13.4404 7.31153 13.5968 7.42513C13.7532 7.53872 13.9415 7.59997 14.1348 7.60011H18.6403C19.5285 7.60011 19.897 8.73678 19.1793 9.25928L15.5346 11.9066C15.378 12.0204 15.2615 12.1809 15.2017 12.365C15.142 12.5491 15.142 12.7474 15.2018 12.9314L16.5933 17.2159C16.8683 18.0611 15.9013 18.7633 15.1835 18.2408L11.5388 15.5934C11.3822 15.4796 11.1935 15.4182 10.9998 15.4182C10.8062 15.4182 10.6175 15.4796 10.4608 15.5934L6.81618 18.2408C6.09843 18.7633 5.13134 18.0602 5.40634 17.2159L6.79784 12.9314C6.85768 12.7474 6.85772 12.5491 6.79794 12.365C6.73817 12.1809 6.62165 12.0204 6.46509 11.9066L2.82043 9.25928C2.10176 8.73678 2.47209 7.60011 3.35943 7.60011H7.86393C8.05739 7.60017 8.2459 7.53901 8.40249 7.4254C8.55908 7.31178 8.6757 7.15154 8.73568 6.96761L10.1281 2.68311V2.68311Z" stroke="currentColor" stroke-width="1.32" stroke-linecap="round" stroke-linejoin="round"/>
</g>
</svg>
