<?xml version="1.0" encoding="utf-8"?>
<!-- Generator: Adobe Illustrator 18.1.0, SVG Export Plug-In . SVG Version: 6.00 Build 0)  -->
<svg version="1.1" id="Comments" xmlns="http://www.w3.org/2000/svg" xmlns:xlink="http://www.w3.org/1999/xlink" x="0px" y="0px"
	 viewBox="0 0 160 160" enable-background="new 0 0 160 160" xml:space="preserve">
<path fill="#D2DDE5" d="M80,5C38.6,5,5,38.6,5,80c0,41.4,33.6,75,75,75s75-33.6,75-75C155,40.3,121.4,5,80,5z"/>
<path fill="#B2C5D1" d="M63.3,89c-3.9,0-7.3-1.5-10.1-4.2C50.4,82,49,78.6,49,74.6V70H36.7c-3,0-5.5,1.1-7.6,3.2
	C27,75.2,26,77.8,26,80.7v16.5c0,3,1,5.5,3.1,7.6c2.1,2.1,4.6,3.2,7.6,3.2H42v18l19-18h18.3c3,0,5.5-1.1,7.6-3.2s3.1-4.7,3.1-7.6
	v-6.3L87.9,89H63.3z"/>
<path fill="#FFFFFF" d="M130.8,43.2c-2.8-2.8-6.6-4.2-10.5-4.2H63.3c-3.9,0-7.3,1.4-10.1,4.2c-2.8,2.8-4.2,6.1-4.2,10.1V70h30.3
	c3,0,5.5,1.1,7.6,3.2s3.1,4.6,3.1,7.6v10.2l23,22.1V89h7.3c3.9,0,7.7-1.5,10.5-4.2c2.8-2.8,4.2-6.2,4.2-10.1V53.2
	C135,49.3,133.6,45.9,130.8,43.2z"/>
<path fill="#C8D6DF" d="M86.9,73.2c-2.1-2.1-4.6-3.2-7.6-3.2H49v4.6c0,3.9,1.4,7.3,4.2,10.1C56,87.5,59.4,89,63.3,89h24.5l2.1,1.9
	V80.7C90,77.8,88.9,75.2,86.9,73.2z"/>
<g>
</g>
<g>
</g>
<g>
</g>
<g>
</g>
<g>
</g>
<g>
</g>
</svg>
