<svg width="274" height="218" viewBox="0 0 274 218" fill="none" xmlns="http://www.w3.org/2000/svg">
<path d="M344.717 99.6822C360.259 85.4539 350.108 53.1012 322.054 27.4184C293.994 1.72958 258.654 -7.55779 243.112 6.66443C233.335 15.6156 233.728 31.7529 242.358 48.8808C198.769 21.0187 152.761 14.0847 130.071 34.8507C107.388 55.6167 114.962 97.737 145.396 137.648C126.681 129.748 109.06 129.381 99.2828 138.338C83.7411 152.567 93.8924 184.919 121.946 210.602C150 236.285 185.346 245.578 200.881 231.35C210.658 222.399 210.265 206.262 201.635 189.134C245.224 216.996 291.233 223.93 313.922 203.158C336.605 182.392 329.031 140.272 298.597 100.361C317.313 108.261 334.933 108.621 344.711 99.6702L344.717 99.6822Z" fill="#DFD1FB" fill-opacity="0.3"/>
<path d="M63 95H157V139.616C157 140.933 155.831 142 154.387 142H65.6134C64.1695 142 63 140.933 63 139.616V95Z" fill="#BEA0F2"/>
<path d="M65.6134 87H154.387C155.831 87 157 88.2115 157 89.7073V95H63V89.7073C63 88.2115 64.1695 87 65.6134 87Z" fill="#271B3D"/>
<path d="M68.2134 92.2761C68.9212 92.2761 69.4951 91.751 69.4951 91.1034C69.4951 90.4557 68.9212 89.9306 68.2134 89.9306C67.5055 89.9306 66.9316 90.4557 66.9316 91.1034C66.9316 91.751 67.5055 92.2761 68.2134 92.2761Z" fill="white"/>
<path d="M73.8584 92.2761C74.5662 92.2761 75.1401 91.751 75.1401 91.1034C75.1401 90.4557 74.5662 89.9306 73.8584 89.9306C73.1505 89.9306 72.5767 90.4557 72.5767 91.1034C72.5767 91.751 73.1505 92.2761 73.8584 92.2761Z" fill="white"/>
<path d="M79.5014 92.2761C80.2093 92.2761 80.7832 91.751 80.7832 91.1034C80.7832 90.4557 80.2093 89.9306 79.5014 89.9306C78.7936 89.9306 78.2197 90.4557 78.2197 91.1034C78.2197 91.751 78.7936 92.2761 79.5014 92.2761Z" fill="white"/>
<path d="M3.95575 167.229L0 163.61L50.2147 119.349L52.3292 121.284L3.95575 167.229Z" fill="#BEA0F2"/>
<path d="M40.927 132.184L52.3291 121.284L50.2146 119.349L38.3018 129.782L40.927 132.184Z" fill="#271B3D"/>
<path d="M146.801 120.628H98.4961V123.605H146.801V120.628Z" fill="#271B3D"/>
<path d="M130.484 128.743H98.4961V131.719H130.484V128.743Z" fill="#271B3D"/>
<path d="M146.801 112.514H98.4961V115.491H146.801V112.514Z" fill="#271B3D"/>
<path d="M114.602 45H173.113C174.55 45 175.715 46.0656 175.715 47.3812V52.0365H112V47.3812C112 46.0656 113.165 45 114.602 45Z" fill="#271B3D"/>
<path d="M173.389 47.1698L173.142 46.9436L171.668 48.292L170.194 46.9436L169.947 47.1698L171.421 48.5182L169.947 49.8666L170.194 50.0928L171.668 48.7444L173.142 50.0928L173.389 49.8666L171.915 48.5182L173.389 47.1698Z" fill="white"/>
<path d="M112 52.0249V78.4385C112 79.7541 113.165 80.8197 114.602 80.8197H173.077C174.515 80.8197 175.679 79.7541 175.679 78.4385V52.0249H112Z" fill="#BEA0F2"/>
<path d="M57.2829 109.409C57.2829 112.96 54.1534 116.198 54.9342 116.91C55.7117 117.621 59.251 114.761 63.1319 114.761C67.0129 114.761 70.5522 117.624 71.3297 116.91C72.1072 116.195 68.981 112.96 68.981 109.409C68.981 105.858 72.1105 102.619 71.3297 101.908C70.5522 101.197 67.0129 104.057 63.1319 104.057C59.251 104.057 55.7117 101.194 54.9342 101.908C54.1567 102.619 57.2829 105.858 57.2829 109.409Z" fill="#271B3D"/>
<path d="M52.5862 99.7594C54.032 98.4365 54.4583 96.6819 53.5385 95.8404C52.6188 94.9988 50.7011 95.3889 49.2554 96.7117C47.8097 98.0345 47.3833 99.7891 48.3031 100.631C49.2229 101.472 51.1405 101.082 52.5862 99.7594Z" fill="#271B3D"/>
<path d="M46.8364 94.4937C47.8248 93.5894 48.1163 92.3898 47.4874 91.8144C46.8586 91.239 45.5475 91.5057 44.5592 92.4101C43.5708 93.3144 43.2793 94.514 43.9082 95.0894C44.537 95.6648 45.8481 95.3981 46.8364 94.4937Z" fill="#271B3D"/>
<path d="M176.488 137.392C176.488 134.739 174.14 132.588 171.244 132.588C168.347 132.588 165.999 134.739 165.999 137.392C165.999 140.045 168.347 142.195 171.244 142.195C174.14 142.195 176.488 140.045 176.488 137.392Z" fill="white"/>
<path d="M176.488 122.1C176.488 119.447 174.14 117.296 171.244 117.296C168.347 117.296 165.999 119.447 165.999 122.1C165.999 124.753 168.347 126.903 171.244 126.903C174.14 126.903 176.488 124.753 176.488 122.1Z" fill="#BEA0F2"/>
<path d="M176.488 106.804C176.488 104.151 174.14 102 171.244 102C168.347 102 165.999 104.151 165.999 106.804C165.999 109.457 168.347 111.607 171.244 111.607C174.14 111.607 176.488 109.457 176.488 106.804Z" fill="#271B3D"/>
</svg>
