<svg xmlns="http://www.w3.org/2000/svg" width="82" height="58" viewBox="0 0 82 58" fill="none"><style>.a{fill:#A7AAAD;}.b{fill:#8C8F94;}</style><g clip-path="url(#clip0)"><path d="M27.3 57.5C27.8 57.4 28.2 57.4 28.8 57.3L29.2 57.2 29.6 57.1C29.8 57.1 30.1 57 30.3 56.9 31.3 56.6 32.3 56.1 33.1 55.5 34.8 54.3 36 52.6 36.5 50.6 36.8 49.6 36.8 48.5 36.8 47.5V44.1 37.5L37.5 38.3C34.1 38.3 30.6 38.3 27.1 38.3L27.9 37.5C27.9 40.7 27.9 44 27.8 47.3 27.7 50.6 27.6 53.9 27.3 57.5ZM27 57.8C26.7 54.7 26.5 51.3 26.5 47.8 26.4 44.4 26.4 40.9 26.3 37.5V36.7H27.1C30.6 36.7 34.1 36.7 37.6 36.7H38.4V37.5 44.1 47.5C38.4 48.6 38.3 49.8 38 50.9 37.4 53.3 35.9 55.3 33.9 56.6 32.9 57.2 31.8 57.7 30.6 57.9 30.3 58 30 58 29.7 58 29.4 58 29.1 58 28.8 58 28.2 58 27.6 57.9 27 57.8Z" class="a"/><path d="M0 33.7V28.9C0 28 0.3 27.3 0.8 26.6 1.3 26 2 25.6 2.8 25.5L3.3 25.4C21.1 22.3 38.2 15.8 53.6 6.4L63.6 0.2C64 0 64.5 0 64.9 0 65.4 0.1 65.8 0.2 66.2 0.5 66.6 0.7 66.9 1.1 67.1 1.5 67.3 1.9 67.4 2.3 67.4 2.8V49.4C67.4 49.8 67.3 50.2 67.2 50.6 67 51 66.7 51.3 66.4 51.6 66 51.8 65.7 52 65.2 52.1 64.8 52.2 64.4 52.2 64 52.1L55.3 48.4C39.4 41.5 22.3 37.6 5 36.8L3 36.7C2.2 36.7 1.4 36.4 0.9 35.8 0.3 35.2 0 34.5 0 33.7H0Z" class="a"/><path d="M63.6 0.2L53.6 6.3C43.1 12.8 31.8 17.8 20 21.4V38.3C32.1 40.2 44 43.5 55.3 48.4L64 52.1C64.4 52.2 64.8 52.2 65.2 52.1 65.7 52 66 51.8 66.4 51.6 66.7 51.3 67 51 67.2 50.6 67.3 50.2 67.4 49.8 67.4 49.4V2.8C67.4 2.3 67.3 1.9 67.1 1.5 66.9 1.1 66.6 0.7 66.2 0.5 65.8 0.2 65.4 0.1 64.9 0 64.5 0 64 0 63.6 0.2V0.2Z" class="a"/><path d="M5.7 20.3C6.1 22 6.3 23.7 6.2 25.4 6.3 27 6.3 28.7 6.3 30.4 6.3 32.1 6.3 33.7 6.2 35.4 6.3 37.1 6.1 38.8 5.7 40.4H5.3C4.9 38.8 4.7 37.1 4.7 35.4 4.7 33.7 4.7 32.1 4.7 30.4 4.6 28.7 4.7 27 4.7 25.4 4.7 23.7 4.9 22 5.3 20.3H5.7Z" fill="#3C434A"/><path d="M78.9 10.4C78.9 10.7 78.9 11.1 78.7 11.4 78.6 11.7 78.4 11.9 78.1 12.1 77.7 12.5 77.3 12.9 76.9 13.3 76.4 13.7 76 14 75.5 14.4 75.2 14.6 74.9 14.8 74.6 14.9 74.3 14.9 74 15 73.6 14.9L73.3 14.5C73.3 14.2 73.4 13.9 73.5 13.6 73.6 13.3 73.9 13 74.1 12.8 74.5 12.4 74.9 12 75.4 11.6 75.8 11.2 76.3 10.9 76.8 10.6 77 10.3 77.3 10.2 77.6 10.1 77.9 10 78.3 10 78.6 10L78.9 10.4Z" class="b"/><path d="M82 23.4C81.8 23.7 81.5 23.9 81.2 24 80.8 24.1 80.5 24.2 80.1 24.2 79.5 24.2 78.9 24.3 78.3 24.3 77.7 24.3 77 24.2 76.4 24.1 76.1 24.2 75.7 24.1 75.4 23.9 75.1 23.8 74.8 23.6 74.6 23.3V22.8C74.8 22.6 75.1 22.3 75.4 22.2 75.7 22.1 76.1 22 76.4 22.1 77.1 22 77.7 22 78.3 22 78.9 22 79.5 22 80.1 22.1 80.5 22.1 80.8 22.1 81.2 22.3 81.5 22.4 81.8 22.6 82 22.9L82 23.4Z" class="b"/><path d="M78.2 33C78 33.1 77.7 33.2 77.4 33.1 77.1 33.1 76.8 33 76.6 32.8 76.2 32.6 75.8 32.3 75.4 32 75 31.7 74.7 31.4 74.3 31.1 74.1 30.9 73.9 30.7 73.7 30.5 73.6 30.2 73.6 29.9 73.6 29.6L73.9 29.2C74.1 29.1 74.4 29.1 74.7 29.1 75 29.1 75.3 29.3 75.5 29.5 76.4 29.9 77.1 30.5 77.8 31.1 78.1 31.3 78.3 31.5 78.4 31.8 78.5 32 78.6 32.3 78.5 32.6L78.2 33Z" class="b"/><path d="M61.1 1C61.6 5.3 61.7 9.6 61.7 13.8 61.7 18.1 61.7 22.4 61.8 26.7 61.8 31 61.7 35.3 61.7 39.5 61.7 43.8 61.6 48.1 61.1 52.4H60.7C60.3 48.1 60.1 43.8 60.2 39.5 60.1 35.3 60.1 31 60.1 26.7 60.1 22.4 60.1 18.1 60.2 13.8 60.1 9.5 60.3 5.2 60.8 1L61.1 1Z" fill="#674399"/></g><defs><clipPath><rect width="82" height="58" fill="white"/></clipPath></defs></svg>