<svg xmlns="http://www.w3.org/2000/svg" width="82" height="58" fill="none"><style>.a{fill:#a7aaad}.b{fill:#8c8f94}</style><g clip-path="url(#clip0)"><path d="M27.3 57.5c.5-.1.9-.1 1.5-.2l.4-.1.4-.1c.2 0 .5-.1.7-.2 1-.3 2-.8 2.8-1.4 1.7-1.2 2.9-2.9 3.4-4.9.3-1 .3-2.1.3-3.1v-10l.7.8H27.1l.8-.8c0 3.2 0 6.5-.1 9.8-.1 3.3-.2 6.6-.5 10.2zm-.3.3c-.3-3.1-.5-6.5-.5-10-.1-3.4-.1-6.9-.2-10.3v-.8H38.4V47.5c0 1.1-.1 2.3-.4 3.4-.6 2.4-2.1 4.4-4.1 5.7-1 .6-2.1 1.1-3.3 1.3-.3.1-.6.1-.9.1h-.9c-.6 0-1.2-.1-1.8-.2z" class="a"/><path d="M0 33.7v-4.8c0-.9.3-1.6.8-2.3.5-.6 1.2-1 2-1.1l.5-.1c17.8-3.1 34.9-9.6 50.3-19l10-6.2c.4-.2.9-.2 1.3-.2.5.1.9.2 1.3.5.4.2.7.6.9 1 .2.4.3.8.3 1.3v46.6c0 .4-.1.8-.2 1.2-.2.4-.5.7-.8 1-.4.2-.7.4-1.2.5-.4.1-.8.1-1.2 0l-8.7-3.7C39.4 41.5 22.3 37.6 5 36.8l-2-.1c-.8 0-1.6-.3-2.1-.9-.6-.6-.9-1.3-.9-2.1z" class="a"/><path d="M63.6.2l-10 6.1C43.1 12.8 31.8 17.8 20 21.4v16.9c12.1 1.9 24 5.2 35.3 10.1l8.7 3.7c.4.1.8.1 1.2 0 .5-.1.8-.3 1.2-.5.3-.3.6-.6.8-1 .1-.4.2-.8.2-1.2V2.8c0-.5-.1-.9-.3-1.3-.2-.4-.5-.8-.9-1-.4-.3-.8-.4-1.3-.5-.4 0-.9 0-1.3.2z" class="a"/><path d="M5.7 20.3c.4 1.7.6 3.4.5 5.1.1 1.6.1 3.3.1 5 0 1.7 0 3.3-.1 5 .1 1.7-.1 3.4-.5 5h-.4c-.4-1.6-.6-3.3-.6-5v-5c-.1-1.7 0-3.4 0-5 0-1.7.2-3.4.6-5.1h.4z" fill="#3C434A"/><path d="M78.9 10.4c0 .3 0 .7-.2 1-.1.3-.3.5-.6.7l-1.2 1.2c-.5.4-.9.7-1.4 1.1-.3.2-.6.4-.9.5-.3 0-.6.1-1 0l-.3-.4c0-.3.1-.6.2-.9.1-.3.4-.6.6-.8.4-.4.8-.8 1.3-1.2.4-.4.9-.7 1.4-1 .2-.3.5-.4.8-.5.3-.1.7-.1 1-.1l.3.4zM82 23.4c-.2.3-.5.5-.8.6-.4.1-.7.2-1.1.2-.6 0-1.2.1-1.8.1-.6 0-1.3-.1-1.9-.2-.3.1-.7 0-1-.2-.3-.1-.6-.3-.8-.6v-.5c.2-.2.5-.5.8-.6.3-.1.7-.2 1-.1.7-.1 1.3-.1 1.9-.1.6 0 1.2 0 1.8.1.4 0 .7 0 1.1.2.3.1.6.3.8.6v.5zM78.2 33c-.2.1-.5.2-.8.1-.3 0-.6-.1-.8-.3-.4-.2-.8-.5-1.2-.8-.4-.3-.7-.6-1.1-.9l-.6-.6c-.1-.3-.1-.6-.1-.9l.3-.4c.2-.1.5-.1.8-.1.3 0 .6.2.8.4.9.4 1.6 1 2.3 1.6.3.2.5.4.6.7.1.2.2.5.1.8l-.3.4z" class="b"/><path d="M61.1 1c.5 4.3.6 8.6.6 12.8 0 4.3 0 8.6.1 12.9 0 4.3-.1 8.6-.1 12.8 0 4.3-.1 8.6-.6 12.9h-.4c-.4-4.3-.6-8.6-.5-12.9-.1-4.2-.1-8.5-.1-12.8 0-4.3 0-8.6.1-12.9-.1-4.3.1-8.6.6-12.8h.3z" fill="#674399"/></g></svg>