<svg width="216" height="140" viewBox="0 0 216 140" fill="none" xmlns="http://www.w3.org/2000/svg">
<rect width="216" height="140" fill="white"/>
<path d="M148.084 4.2002H83.3193V25.2002H148.084V4.2002Z" fill="#BEA0F2"/>
<path d="M67.9155 4.2002H25.5557V7.7002H67.9155V4.2002Z" fill="#271B3D"/>
<path d="M57.7631 18.2002H25.5557V21.7002H57.7631V18.2002Z" fill="#271B3D"/>
<path d="M79.1186 11.2002H25.9062V14.7002H79.1186V11.2002Z" fill="#271B3D"/>
<path d="M12.9532 21.7002C17.7868 21.7002 21.7052 17.7827 21.7052 12.9502C21.7052 8.1177 17.7868 4.2002 12.9532 4.2002C8.11959 4.2002 4.20117 8.1177 4.20117 12.9502C4.20117 17.7827 8.11959 21.7002 12.9532 21.7002Z" fill="#271B3D"/>
<path d="M38.7822 106.05C38.7822 101.264 42.4791 97.3726 47.0651 97.2998H108.76C113.409 97.2998 117.176 101.216 117.176 106.05C117.176 110.883 113.409 114.8 108.76 114.8H47.0511C42.4721 114.8 38.7822 110.829 38.7822 106.05Z" fill="#BEA0F2"/>
<path d="M47.0511 114.8H85.6616V97.2998H47.0651C42.4791 97.3726 38.7822 101.264 38.7822 106.05C38.7822 110.832 42.4686 114.8 47.0511 114.8Z" fill="#271B3D"/>
<path d="M211.733 67.9004H152.219V71.4004H211.733V67.9004Z" fill="#271B3D"/>
<path d="M181.976 74.9004H152.219V78.4004H181.976V74.9004Z" fill="#271B3D"/>
<path d="M143.851 17.237L144.222 8.09502L129.565 22.851L128.84 22.1265L143.585 7.48602L134.476 7.85702L134.357 6.86302L145.07 6.54102L145.154 6.62502L144.849 17.3525L143.855 17.2335L143.851 17.237Z" fill="black"/>
<path d="M211.799 98.3496H124.278V135.8H211.799V98.3496Z" fill="#BEA0F2"/>
<path d="M211.733 4.2002H152.219V63.7002H211.733V4.2002Z" fill="#271B3D"/>
<path d="M201.241 32.3874V25.8438H198.128V32.3874H194.381V29.1156H191.268V32.3874H179.039C178.289 27.5312 174.095 23.7998 169.048 23.7998C163.474 23.7998 158.937 28.3509 158.937 33.9498C158.937 39.5487 163.471 44.0998 169.048 44.0998C174.095 44.0998 178.289 40.3721 179.039 35.5122H204.797V32.3874H201.245H201.241ZM169.045 40.975C165.188 40.975 162.05 37.8245 162.05 33.9535C162.05 30.0824 165.188 26.9319 169.045 26.9319C172.901 26.9319 176.04 30.0824 176.04 33.9535C176.04 37.8245 172.901 40.975 169.045 40.975Z" fill="white"/>
<path d="M83.0711 76.6992C94.1884 76.6992 103.201 67.689 103.201 56.5742C103.201 45.4595 94.1884 36.4492 83.0711 36.4492C71.9538 36.4492 62.9414 45.4595 62.9414 56.5742C62.9414 67.689 71.9538 76.6992 83.0711 76.6992Z" fill="#BEA0F2"/>
<path fill-rule="evenodd" clip-rule="evenodd" d="M86.1729 56.9742C88.1991 55.7385 90.6082 53.6502 90.6082 50.1974C90.6082 45.6377 87.1233 42.7871 83.0709 42.7871C79.0185 42.7871 75.5336 45.6377 75.5336 50.1974C75.5336 53.6467 77.9393 55.7385 79.969 56.9742L74.5205 69.5636H91.6248L86.1764 56.9742H86.1729Z" fill="#271B3D"/>
<path d="M196.98 121.093C195.415 122.636 190.78 126.423 188.165 125.429C187.854 125.31 187.64 125.1 187.5 124.775C186.835 123.231 187.717 119.521 190.122 113.743L188.883 112.959C188.648 113.218 184.185 118.156 180.691 122.612L183.107 113.862L181.752 113.277C181.731 113.309 179.728 116.599 177.155 119.728C173.938 123.644 171.207 125.632 169.478 125.335C168.995 125.251 168.61 124.988 168.33 124.551C168.074 124.148 167.917 123.62 167.857 123C171.824 121.887 175.272 119.469 176.101 116.76C176.438 115.661 176.315 114.597 175.758 113.848C175.377 113.33 174.617 112.714 173.168 112.714C170.024 112.714 167.682 116.189 166.751 119.637C166.541 120.41 166.415 121.152 166.366 121.842C165.414 122.041 164.454 122.146 163.523 122.16C163.81 121.583 164.066 120.984 164.283 120.389C165.315 117.568 165.694 114.159 163.66 113.046C162.424 112.371 160.267 112.651 157.754 115.139L158.209 113.442L157.036 112.661C155.748 113.659 154.218 114.443 152.653 114.968C152.828 114.331 152.975 113.694 153.084 113.071C153.861 108.633 152.713 105.437 149.936 104.296C147.972 103.491 145.63 103.936 143.828 105.462C141.808 107.173 140.904 109.795 141.471 112.304C141.958 114.457 143.299 115.983 145.35 116.718C146.87 117.264 148.62 117.323 150.381 117.05C148.585 121.485 145.501 125.184 143.078 125.286C142.182 125.321 141.45 124.953 140.88 124.187C139.431 122.241 139.388 118.38 140.778 114.345L139.371 113.858C137.803 118.412 137.922 122.71 139.686 125.072C140.558 126.241 141.748 126.826 143.141 126.766C146.604 126.619 150.262 121.789 152.107 116.672C153.584 116.27 155.016 115.664 156.266 114.947L151.963 130.987L153.402 131.372L155.457 123.718C155.59 124.383 155.807 124.999 156.136 125.506C156.588 126.199 157.208 126.63 157.974 126.784C158.146 126.819 158.314 126.836 158.482 126.836C160.015 126.836 161.51 125.464 162.69 123.623C163.912 123.676 165.168 123.571 166.401 123.333C166.499 124.106 166.723 124.782 167.076 125.338C167.584 126.133 168.326 126.633 169.226 126.791C171.578 127.197 174.638 125.135 178.317 120.652C179.098 119.703 179.819 118.748 180.453 117.873L178.202 126.031L179.532 126.651C181.514 123.774 184.875 119.784 187.252 117.047C185.827 121.131 185.473 123.812 186.138 125.349C186.439 126.052 186.947 126.542 187.644 126.808C188.116 126.987 188.617 127.067 189.128 127.067C192.919 127.067 197.467 122.703 198.034 122.139L196.987 121.079L196.98 121.093ZM168.186 120.022C168.942 117.218 170.822 114.201 173.164 114.201C173.623 114.201 174.236 114.292 174.558 114.73C174.831 115.097 174.873 115.678 174.677 116.322C174.229 117.789 172.552 119.357 170.192 120.522C169.453 120.886 168.683 121.194 167.899 121.439C167.959 120.988 168.053 120.515 168.186 120.022ZM151.617 112.815C151.463 113.687 151.242 114.565 150.969 115.43C149.079 115.832 147.251 115.825 145.854 115.325C144.286 114.761 143.299 113.638 142.924 111.982C142.392 109.63 143.537 107.66 144.79 106.603C145.735 105.805 146.824 105.385 147.885 105.385C148.393 105.385 148.897 105.479 149.373 105.675C152.212 106.837 151.998 110.649 151.617 112.815ZM158.265 125.338C157.894 125.261 157.61 125.062 157.376 124.705C156.378 123.179 156.819 119.623 157.106 118.191C159.217 115.325 161.713 113.676 162.945 114.355C163.891 114.873 163.866 117.197 162.886 119.882C161.685 123.165 159.609 125.618 158.265 125.342V125.338Z" fill="#271B3D"/>
<path d="M126.229 99.9846L167.993 86.6426" stroke="#261B3C" stroke-width="0.99" stroke-miterlimit="10"/>
<path d="M209.408 99.9846L167.993 86.6426" stroke="#261B3C" stroke-width="0.99" stroke-miterlimit="10"/>
<path d="M167.892 88.2942C168.804 88.2942 169.544 87.5546 169.544 86.6422C169.544 85.7299 168.804 84.9902 167.892 84.9902C166.979 84.9902 166.239 85.7299 166.239 86.6422C166.239 87.5546 166.979 88.2942 167.892 88.2942Z" fill="#271B3D"/>
<path d="M201.996 11.4323L207.248 17.5002V4.2002H196.745V17.5002L201.996 11.4323Z" fill="#BEA0F2"/>
<path d="M22.6856 56.8189C12.0956 56.8189 4.32031 65.0649 4.32031 75.1799C4.32031 80.8919 6.69736 85.9599 11.4865 89.5719C15.3339 92.4734 17.4834 93.5969 17.4834 98.6089V131.712L22.6085 135.74V135.8L22.6471 135.768L22.6856 135.8V135.74L27.8108 131.712V125.062L24.1384 121.39L27.3907 118.139L24.1384 114.887L27.3907 111.636L24.1384 108.384L27.8108 104.713V98.6054C27.8108 93.5934 29.9602 92.4699 33.8076 89.5684C38.5932 85.9564 40.9738 80.8884 40.9738 75.1764C40.9738 65.0614 33.2755 56.8154 22.6891 56.8154L22.6856 56.8189ZM22.6471 73.9654C19.6259 73.9654 17.1788 71.5189 17.1788 68.4984C17.1788 65.4779 19.6259 63.0314 22.6471 63.0314C25.6683 63.0314 28.1153 65.4779 28.1153 68.4984C28.1153 71.5189 25.6683 73.9654 22.6471 73.9654Z" fill="#271B3D"/>
<path d="M19.1357 64.3087L19.1392 64.3052V64.3018L19.1357 64.3087Z" fill="#BEA0F2"/>
<path d="M37.8891 36.4453C26.7111 36.4453 17.6475 45.5068 17.6475 56.6823C17.6475 56.9483 17.6545 57.2143 17.665 57.4768C18.9253 57.1373 20.2451 56.9203 21.6174 56.8468C21.6174 56.7908 21.6139 56.7383 21.6139 56.6823C21.6139 47.7118 28.9131 40.4143 37.8856 40.4143C46.8582 40.4143 54.1574 47.7118 54.1574 56.6823C54.1574 65.6528 46.8582 72.9503 37.8856 72.9503C31.1676 72.9503 25.3913 68.8623 22.9092 63.0418C22.8217 63.0383 22.7341 63.0278 22.6431 63.0278C21.3093 63.0278 20.0875 63.5073 19.1388 64.3018C22.1495 71.7008 29.4067 76.9193 37.8891 76.9193C49.0672 76.9193 58.1308 67.8578 58.1308 56.6823C58.1308 45.5068 49.0672 36.4453 37.8891 36.4453Z" fill="#BEA0F2"/>
<g clip-path="url(#clip0_2139_207)">
<path d="M127.879 46.2583C133.734 46.2583 138.5 51.0193 138.5 56.8767C138.5 62.7341 133.738 67.4952 127.879 67.4952C122.02 67.4952 117.258 62.7341 117.258 56.8767C117.258 51.0193 122.02 46.2583 127.879 46.2583ZM127.879 36.75C116.764 36.75 107.751 45.7606 107.751 56.8733C107.751 67.9859 116.764 76.9965 127.879 76.9965C138.994 76.9965 148.007 67.9859 148.007 56.8733C148.007 45.7606 138.998 36.75 127.879 36.75Z" fill="#271B3D"/>
<path d="M117.919 39.3881L122.709 47.6051C124.241 46.749 126.002 46.2548 127.878 46.2548V36.75C124.255 36.75 120.857 37.7141 117.919 39.3881Z" fill="#BEA0F2"/>
</g>
<g clip-path="url(#clip1_2139_207)">
<path d="M38.8594 127.048C38.8594 122.263 42.5562 118.376 47.1423 118.3H108.837C113.486 118.3 117.253 122.215 117.253 127.048C117.253 131.881 113.486 135.796 108.837 135.796H47.1283C42.5457 135.796 38.8594 131.83 38.8594 127.048Z" fill="#BEA0F2"/>
<path d="M38.8594 127.048C38.8594 122.263 42.5562 118.376 47.1423 118.3H108.837C113.486 118.3 117.253 122.215 117.253 127.048C117.253 131.881 113.486 135.796 108.837 135.796H47.1283C42.5457 135.796 38.8594 131.83 38.8594 127.048Z" fill="#BEA0F2"/>
<path d="M57.6445 135.796H63.3859L70.3035 118.3H64.5621L57.6445 135.796Z" fill="#271B3D"/>
<path d="M80.5186 135.796H86.2599L93.1775 118.3H87.4362L80.5186 135.796Z" fill="#271B3D"/>
<path d="M75.9996 118.3L69.082 135.796H74.8234L81.741 118.3H75.9996Z" fill="#271B3D"/>
<path d="M58.8664 118.3H53.1251L46.2285 135.742C46.5226 135.774 46.8237 135.796 47.1282 135.796H51.9488L58.8664 118.3Z" fill="#271B3D"/>
<path d="M41.457 133.402L47.4294 118.3H47.1458C44.0021 118.351 41.2819 120.192 39.8746 122.881L39.1955 124.595C38.9784 125.374 38.8594 126.196 38.8594 127.048C38.8594 129.533 39.8571 131.797 41.457 133.398V133.402Z" fill="#271B3D"/>
</g>
<defs>
<clipPath id="clip0_2139_207">
<rect width="40.2593" height="40.25" fill="white" transform="translate(107.751 36.75)"/>
</clipPath>
<clipPath id="clip1_2139_207">
<rect width="78.3936" height="17.5" fill="white" transform="translate(38.8594 118.3)"/>
</clipPath>
</defs>
</svg>
