<svg width="224" height="144" viewBox="0 0 224 144" fill="none" xmlns="http://www.w3.org/2000/svg">
<rect width="222.12" height="144" transform="translate(0.94043)" fill="white"/>
<path d="M214.223 19.7265V16.0325L211.166 15.6323C210.889 14.3486 210.384 13.1512 209.695 12.0861L211.569 9.64187L208.959 7.03145L206.515 8.90615C205.45 8.21352 204.253 7.70868 202.966 7.43471L202.569 4.37793H198.876L198.476 7.43471C197.192 7.70868 195.995 8.21352 194.93 8.90615L192.486 7.03145L189.876 9.64187L191.75 12.0861C191.058 13.1512 190.553 14.3486 190.279 15.6323L187.223 16.0325V19.7265L190.279 20.1266C190.553 21.4103 191.058 22.6078 191.75 23.6729L189.876 26.1171L192.486 28.7275L194.93 26.8528C195.995 27.5454 197.192 28.0503 198.476 28.3242L198.876 31.3779H202.569L202.97 28.3242C204.253 28.0503 205.45 27.5454 206.515 26.8528L208.959 28.7275L211.569 26.1171L209.695 23.6729C210.388 22.6078 210.892 21.4103 211.166 20.1266L214.223 19.7265Z" fill="#BEA0F2"/>
<path d="M32.3174 4.37778L32.3174 74.2178H39.5174L39.5174 4.37778H32.3174Z" fill="#271B3D"/>
<path d="M30.1757 56.2506C32.4689 56.2506 33.1529 54.5586 35.9141 54.5586C38.6753 54.5586 39.3593 56.2506 41.6525 56.2506C44.1077 56.2506 44.9141 54.1122 44.9141 51.513C44.9141 48.9138 44.1077 46.7754 41.6525 46.7754C39.3593 46.7754 38.6753 48.4674 35.9141 48.4674C33.1529 48.4674 32.4689 46.7754 30.1757 46.7754C27.7205 46.7754 26.9141 48.9138 26.9141 51.513C26.9141 54.1122 27.7205 56.2506 30.1757 56.2506Z" fill="#BEA0F2"/>
<path d="M113.98 108H70.7803V111.6H113.98V108Z" fill="#271B3D"/>
<path d="M130.9 115.2H70.7803V118.8H130.9V115.2Z" fill="#271B3D"/>
<path d="M132.042 130.68H70.8418V139.68H132.042V130.68Z" fill="#BEA0F2"/>
<path d="M104.62 122.4H70.7803V126H104.62V122.4Z" fill="#271B3D"/>
<path d="M218.801 85.0785V69.8145H193.202C193.202 69.8145 195.948 64.2057 195.948 57.9381C195.948 51.6705 191.898 45.3633 184.09 45.3633C176.282 45.3633 172.232 51.8721 172.232 57.9381C172.232 64.0041 174.978 69.8145 174.978 69.8145H156.262V79.4769V85.0785C146.934 79.8009 136.016 81.5865 136.016 92.5485C136.016 103.51 146.934 105.296 156.262 100.018V115.282H174.978C174.978 115.282 172.232 120.891 172.232 127.159C172.232 133.426 176.282 139.734 184.09 139.734C191.898 139.734 195.948 133.225 195.948 127.159C195.948 121.093 193.202 115.282 193.202 115.282H218.801V100.018C209.474 105.296 198.555 103.51 198.555 92.5485C198.555 81.5865 209.474 79.8009 218.801 85.0785Z" fill="#271B3D"/>
<path d="M66.4607 78.4805H5.26074V139.68H66.4607V78.4805Z" fill="#BEA0F2"/>
<path d="M24.6428 83.0518C30.1868 84.9958 31.5332 91.6054 31.5332 91.6054C31.5332 91.6054 34.4456 85.4854 43.3124 85.507C39.2552 95.3494 34.2656 115.607 36.9728 122.972C39.734 130.478 50.516 127.393 50.2784 134.377H34.5752L30.4064 130.212L29.8664 130.219L30.518 134.377H23.9948C22.418 125.229 18.5192 104.245 24.6392 83.0518H24.6428Z" fill="white"/>
<path d="M53.8604 4.37778L53.8604 74.2178H61.0604L61.0604 4.37778H53.8604Z" fill="#271B3D"/>
<path d="M51.7216 33.0055C54.0148 33.0055 54.6988 31.3135 57.46 31.3135C60.2212 31.3135 60.9052 33.0055 63.1984 33.0055C65.6536 33.0055 66.46 30.8671 66.46 28.2679C66.46 25.6687 65.6536 23.5303 63.1984 23.5303C60.9052 23.5303 60.2212 25.2223 57.46 25.2223C54.6988 25.2223 54.0148 23.5303 51.7216 23.5303C49.2664 23.5303 48.46 25.6687 48.46 28.2679C48.46 30.8671 49.2664 33.0055 51.7216 33.0055Z" fill="#BEA0F2"/>
<path d="M92.4988 45.7203C103.931 45.7203 113.199 36.4526 113.199 25.0203C113.199 13.588 103.931 4.32031 92.4988 4.32031C81.0665 4.32031 71.7988 13.588 71.7988 25.0203C71.7988 36.4526 81.0665 45.7203 92.4988 45.7203Z" fill="#271B3D"/>
<path d="M92.4988 45.7207C98.2012 45.7207 103.36 43.4167 107.104 39.6871C105.225 32.3755 99.4 27.0439 92.4988 27.0439C85.5976 27.0439 79.7728 32.3755 77.8936 39.6871C81.6376 43.4167 86.8 45.7207 92.4988 45.7207Z" fill="#BEA0F2"/>
<path d="M92.4988 24.6607C96.6085 24.6607 99.94 21.3292 99.94 17.2195C99.94 13.1099 96.6085 9.77832 92.4988 9.77832C88.3892 9.77832 85.0576 13.1099 85.0576 17.2195C85.0576 21.3292 88.3892 24.6607 92.4988 24.6607Z" fill="#BEA0F2"/>
<path d="M27.4333 89.5684C34.5865 100.134 33.7297 119.92 28.6213 120.118C22.7713 120.345 25.8637 98.8528 37.2937 92.2864" stroke="#261B3C" stroke-width="0.36" stroke-miterlimit="10"/>
<path d="M10.7725 4.37778L10.7725 74.2178H17.9725L17.9725 4.37778H10.7725Z" fill="#271B3D"/>
<path d="M8.63367 43.4059C10.9269 43.4059 11.6109 41.7139 14.3721 41.7139C17.1333 41.7139 17.8173 43.4059 20.1105 43.4059C22.5657 43.4059 23.3721 41.2675 23.3721 38.6683C23.3721 36.0691 22.5657 33.9307 20.1105 33.9307C17.8173 33.9307 17.1333 35.6227 14.3721 35.6227C11.6109 35.6227 10.9269 33.9307 8.63367 33.9307C6.17847 33.9307 5.37207 36.0691 5.37207 38.6683C5.37207 41.2675 6.17847 43.4059 8.63367 43.4059Z" fill="#BEA0F2"/>
<path d="M25.2871 85.5898C21.0787 111.251 23.5159 124.142 25.7299 132.638" stroke="#271B3D" stroke-width="0.36" stroke-miterlimit="10"/>
<path d="M34.2653 113.271C34.2653 113.271 31.8281 123.786 40.1477 129.37" stroke="#271B3D" stroke-width="0.36" stroke-miterlimit="10"/>
<path d="M218.179 32.45C209.557 40.1936 188.961 38.8868 183.101 25.5596" stroke="#271B3D" stroke-width="0.36" stroke-miterlimit="10"/>
<path d="M143.872 39.978L161.27 45.8678L177.071 35.8205L179.379 17.3939L166.452 4.46777L148.029 6.77512L137.979 22.5765L143.872 39.978Z" fill="#BEA0F2"/>
<path d="M167.839 16.0117L148.951 34.8955" stroke="#271B3D" stroke-width="0.36" stroke-miterlimit="10"/>
<path d="M120.1 69.8398H71.5V78.4798H120.1V69.8398Z" fill="#271B3D"/>
<path d="M120.1 78.4805H71.5V100.44H120.1V78.4805Z" fill="#BEA0F2"/>
<path d="M77.1631 75.7588C78.1015 75.7588 78.8623 74.998 78.8623 74.0596C78.8623 73.1211 78.1015 72.3604 77.1631 72.3604C76.2246 72.3604 75.4639 73.1211 75.4639 74.0596C75.4639 74.998 76.2246 75.7588 77.1631 75.7588Z" fill="white"/>
<path d="M83.2295 75.7588C84.1679 75.7588 84.9287 74.998 84.9287 74.0596C84.9287 73.1211 84.1679 72.3604 83.2295 72.3604C82.291 72.3604 81.5303 73.1211 81.5303 74.0596C81.5303 74.998 82.291 75.7588 83.2295 75.7588Z" fill="white"/>
<path d="M71.8604 60.4799C71.8604 58.5115 73.3796 56.9098 75.2696 56.8799H147.302C149.214 56.8799 150.765 58.4928 150.765 60.4799C150.765 62.467 149.214 64.0799 147.302 64.0799H75.2624C73.3796 64.0799 71.8604 62.4483 71.8604 60.4799Z" fill="#BEA0F2"/>
<path d="M75.2624 64.0799H128.265V56.8799H75.2696C73.3832 56.9098 71.8604 58.5115 71.8604 60.4799C71.8604 62.4483 73.376 64.0799 75.2624 64.0799Z" fill="#271B3D"/>
<path d="M200.888 22.2548C203.554 22.2548 205.716 20.0934 205.716 17.4272C205.716 14.761 203.554 12.5996 200.888 12.5996C198.222 12.5996 196.061 14.761 196.061 17.4272C196.061 20.0934 198.222 22.2548 200.888 22.2548Z" fill="white"/>
</svg>
