<svg width="37" height="36" viewBox="0 0 37 36" fill="none" xmlns="http://www.w3.org/2000/svg">
<circle cx="18.6665" cy="18" r="18" fill="#BBE0FA"/>
<path fill-rule="evenodd" clip-rule="evenodd" d="M10.6665 12C10.6665 10.8954 11.5619 10 12.6665 10H24.6665C25.7711 10 26.6665 10.8954 26.6665 12V24C26.6665 25.1046 25.7711 26 24.6665 26H12.6665C11.5619 26 10.6665 25.1046 10.6665 24V12ZM12.6665 11.5H24.6665C24.9426 11.5 25.1665 11.7239 25.1665 12V19H20.6665C20.6665 20.1046 19.7711 21 18.6665 21C17.5619 21 16.6665 20.1046 16.6665 19H12.1665V12C12.1665 11.7239 12.3904 11.5 12.6665 11.5ZM12.1665 20.5V24C12.1665 24.2761 12.3904 24.5 12.6665 24.5H24.6665C24.9426 24.5 25.1665 24.2761 25.1665 24V20.5H21.8297C21.268 21.6825 20.0627 22.5 18.6665 22.5C17.2703 22.5 16.0651 21.6825 15.5033 20.5H12.1665Z" fill="#02395C"/>
</svg>
