<svg width="60" height="60" viewBox="0 0 60 60" fill="none" xmlns="http://www.w3.org/2000/svg">
<circle cx="30" cy="30" r="30" fill="#BBE0FA"/>
<path fill-rule="evenodd" clip-rule="evenodd" d="M16.6666 20.0003C16.6666 18.1594 18.159 16.667 20 16.667H40C41.8409 16.667 43.3333 18.1594 43.3333 20.0003V40.0003C43.3333 41.8413 41.8409 43.3337 40 43.3337H20C18.159 43.3337 16.6666 41.8413 16.6666 40.0003V20.0003ZM20 19.167H40C40.4602 19.167 40.8333 19.5401 40.8333 20.0003V31.667H33.3333C33.3333 33.5079 31.8409 35.0003 30 35.0003C28.159 35.0003 26.6666 33.5079 26.6666 31.667H19.1666V20.0003C19.1666 19.5401 19.5397 19.167 20 19.167ZM19.1666 34.167V40.0003C19.1666 40.4606 19.5397 40.8337 20 40.8337H40C40.4602 40.8337 40.8333 40.4606 40.8333 40.0003V34.167H35.2719C34.3357 36.1378 32.327 37.5003 30 37.5003C27.673 37.5003 25.6642 36.1378 24.728 34.167H19.1666Z" fill="#02395C"/>
</svg>
