<svg viewBox="0 0 274.7 161.7" xmlns="http://www.w3.org/2000/svg"><path d="m143.4 92.6s2.7.5 7.5 1.6 11.6 2.8 19.6 5.2c4 1.2 8.3 2.7 12.8 4.5 2.2.9 4.5 1.9 6.8 3s4.5 2.4 6.7 3.9c4.2 3.2 8.5 6.4 12.9 9.7 4.4 3.2 9.5 5.7 15 6.7 5.4 1 11.2.5 16.1-2 1.2-.6 2.3-1.4 3.3-2.2 1-.9 1.8-1.9 2.4-3.1 1.3-2.3 1.7-5 1.3-7.5-.7-5.1-4.5-9.3-9-10.6-2.2-.6-4.6-.6-6.7 0s-4 1.7-5.1 3.4-1.3 3.7-1 5.5c.4 1.8 1 3.6 2.2 4.7 1.2 1.2 2.7 1.7 4.1 1.7 1.4.1 2.8-.3 3.8-.9s1.8-1.4 2.2-2.2.5-1.7.4-2.3-.2-1.1-.3-1.4-.2-.5-.2-.5h.1s.1.2.2.5.3.8.4 1.5.1 1.5-.4 2.4c-.4.9-1.1 1.8-2.2 2.4-1.1.7-2.5 1-4 1s-3.2-.6-4.5-1.8-2-3-2.4-4.9c-.2-1-.3-2-.1-3 .1-1 .5-2.1 1.1-3 1.2-1.9 3.3-3.2 5.5-3.8s4.7-.6 7.1 0 4.6 2.2 6.3 4.1c1.7 2 2.9 4.5 3.2 7.1.3 2.7-.1 5.5-1.5 8-.7 1.2-1.5 2.3-2.6 3.3-1.1.9-2.2 1.7-3.5 2.3-5 2.5-11 3-16.5 2-5.6-1.1-10.7-3.6-15.2-6.9-4.4-3.3-8.7-6.6-12.9-9.8-2.1-1.5-4.4-2.8-6.6-3.9s-4.5-2.1-6.7-3c-4.4-1.8-8.7-3.3-12.7-4.5-8-2.5-14.8-4.2-19.5-5.3-4.6-1.3-7.4-1.8-7.4-1.9zm27.4-20s-2.9-.5-7.8-1.7c-5-1.2-12-2.9-20.4-5.5-4.2-1.3-8.6-2.8-13.3-4.8-4.6-2-9.4-4.3-13.7-7.7-2.2-1.6-4.4-3.3-6.6-5-2.3-1.7-4.4-3.5-6.9-5-4.8-3-10.3-5.2-16.1-5.5-2.9-.2-5.8.1-8.5.9s-5.4 2-7.4 3.9-3.3 4.5-3.7 7.2.2 5.5 1.5 7.8c.6 1.2 1.4 2.2 2.4 3.1.9.9 2 1.7 3.1 2.2 2.3 1 4.9 1.2 7.3.9s4.7-1.1 6.6-2.4 3.3-3.1 3.6-5.2-.3-4.1-1.3-5.8c-.5-.8-1.1-1.6-1.7-2.2-.7-.6-1.4-1.1-2.2-1.4-1.6-.7-3.3-.7-4.7-.2-1.4.4-2.7 1.2-3.5 2-.9.8-1.5 1.8-1.8 2.7s-.3 1.8-.3 2.4c0 .3.1.6.1.9.1.3.1.5.2.6.1.3.2.5.2.5h-.1s-.1-.2-.2-.5c-.1-.2-.1-.4-.2-.6-.1-.3-.1-.6-.2-.9-.1-.7-.1-1.6.2-2.5.3-1 .8-2 1.7-2.9s2.1-1.8 3.6-2.2c1.5-.5 3.3-.5 5 .2.8.3 1.7.8 2.4 1.5s1.3 1.4 1.9 2.3c1 1.7 1.8 3.9 1.4 6.2-.3 2.3-1.9 4.3-3.8 5.7-2 1.4-4.4 2.3-6.9 2.6s-5.3.2-7.8-.9c-1.3-.6-2.3-1.4-3.3-2.4s-1.9-2.1-2.5-3.3c-1.4-2.5-1.9-5.4-1.5-8.3s1.8-5.6 3.9-7.6c2.2-2 4.9-3.2 7.8-4 2.8-.8 5.8-1 8.7-.8 5.9.4 11.5 2.6 16.3 5.7 2.4 1.5 4.6 3.4 6.9 5.1 2.2 1.7 4.4 3.4 6.6 5 4.2 3.4 9 5.7 13.6 7.7 4.6 1.9 9.1 3.5 13.2 4.8 8.3 2.6 15.4 4.4 20.3 5.6 5 1.2 7.9 1.8 7.9 1.8zm-2.2 49.8c-4.7-1.6-9.5-2.8-14.4-3.7s-9.8-1.5-14.8-1.6-9.9.2-14.8 1.3c-2.4.5-4.8 1.2-7.1 2.1-1.2.5-2.3 1-3.4 1.5l-3.3 1.8c-4.3 2.4-9.1 4.2-14 5s-10.1.4-14.7-1.7c-4.6-2-8.5-5.5-11-10-2.5-4.4-3.5-9.5-3.4-14.5 0-2.5.3-5 1-7.4s1.7-4.8 3.2-6.8c1.5-2.1 3.4-3.8 5.5-5.2s4.5-2.3 6.9-2.9c4.9-1.2 10.1-1.2 14.9.3 2.4.8 4.7 1.9 6.7 3.5s3.7 3.6 4.8 5.8c1.2 2.3 1.9 4.7 2.2 7.2.2 1.3.2 2.5.3 3.8 0 1.3-.1 2.6-.5 3.8-.7 2.5-2.1 4.7-4 6.4s-4.2 2.9-6.6 3.7-5 1.1-7.5 1.1c-2.5-.1-5.1-.6-7.4-1.7s-4.4-2.8-5.7-5-1.9-4.8-1.9-7.3c-.1-.9 0-1.8.1-2.7s.3-1.8.6-2.7c.5-1.7 1.5-3.4 2.8-4.6 1.4-1.2 3.1-2 4.9-2.3.9-.2 1.8-.2 2.7-.2s1.8.1 2.7.3c1.8.4 3.4 1.4 4.5 2.9s1.6 3.3 1.5 5.1c0 1.8-.6 3.6-1.6 5.1s-2.5 2.7-4.3 3.1v-.1c1.7-.4 3.2-1.6 4.2-3.1s1.4-3.3 1.4-5c0-1.8-.5-3.5-1.6-4.9-1-1.4-2.6-2.3-4.3-2.7-.9-.1-1.8-.1-2.6-.1-.9 0-1.8.1-2.6.3-1.7.3-3.4 1-4.6 2.2-1.3 1.2-2.2 2.7-2.7 4.4-.3.8-.4 1.7-.5 2.6s-.1 1.8 0 2.6c0 2.4.6 4.9 1.9 6.9 1.3 2.1 3.2 3.7 5.4 4.7 4.4 2 9.7 2 14.3.5 2.3-.8 4.5-1.9 6.3-3.5s3.2-3.7 3.8-6c.3-1.2.5-2.3.5-3.6 0-1.2-.1-2.5-.2-3.7-.3-2.4-1-4.8-2.1-7s-2.7-4.1-4.6-5.6-4.1-2.6-6.5-3.4c-4.7-1.5-9.8-1.5-14.5-.4-2.4.6-4.7 1.5-6.8 2.8s-3.9 3-5.3 5-2.4 4.3-3.1 6.6c-.6 2.4-.9 4.8-1 7.3-.1 4.9.9 9.9 3.3 14.2 2.3 4.3 6.2 7.8 10.7 9.8s9.6 2.4 14.5 1.7 9.6-2.5 13.9-4.9l3.3-1.8c1.1-.6 2.3-1.1 3.4-1.5 2.3-.9 4.7-1.6 7.2-2.1 4.9-1 9.9-1.3 14.9-1.2s9.9.7 14.8 1.7c4.8.9 9.6 2.1 14.3 3.8z" fill="#bedae6" opacity=".4"/><g opacity=".6"><path d="m41.11 115.13 34.37-12.588 8.184 22.348-34.368 12.587z" fill="#fff"/><path d="m45.602 117.212 27.794-10.18 5.777 15.775-27.794 10.18z" fill="#c3c4c7"/><path d="m60.5 129.7c-.9-2.6.5-5.2 3.2-6.1 2.6-1 5.4-.1 6.4 2.6" fill="#fff"/><path d="m60.5 129.7s0-.1-.1-.2c0-.1-.1-.2-.2-.5-.1-.2-.1-.5-.2-.8v-1c.1-.4.2-.8.4-1.2s.5-.7.8-1.1c.3-.3.7-.6 1.1-.9s.8-.5 1.3-.7c.4-.2.9-.3 1.4-.4s1-.1 1.5 0 .9.2 1.3.4.7.4 1 .7.5.5.7.8.3.5.4.7.1.4.2.5v.2s0-.1-.1-.2-.1-.2-.2-.4-.3-.4-.4-.6l-.7-.7c-.5-.4-1.3-.8-2.1-.9-.4-.1-.9-.1-1.3 0-.5 0-.9.1-1.4.2-.4.1-.9.3-1.3.6s-.7.6-1 .9c-.5.7-.8 1.5-1 2.1-.1.3-.1.7-.1.9v.7c0 .2.1.4.1.5-.1.3-.1.4-.1.4z" fill="#004e6e"/><ellipse cx="63.6" cy="122.3" fill="#f5efe4" rx="2.8" ry="2.2" transform="matrix(.94447391 -.32858643 .32858643 .94447391 -36.66947 27.681302)"/><path d="m61.3 121.1c-.1 0-.1 0-.1.1v.2h-.1s0 .1-.1.1v.1c.1.1 0 0 0 .1h-.1s0 .1-.1.1v.1c.1 0 .1.1 0 .1v.3c-.1 0-.1.1-.1.2 0 0 .1.1 0 .1.1 0 0 .1 0 .1v.1s.1.1 0 .1.1.1 0 .1c0 .1 0 .2.1.3v.1c.1 0 0 .1 0 .2 0 0 0 .1.1.1s0 0 0 .1v.1l.1.1h.1v.1c0 .1.1.1.1.1h.1c0 .1.1.2.2.1 0 .1 0 .1.1 0-.1.1.1.3.2.2h.1v.1h.2v-.1.1h.1s0 .1.1-.1v.1h.2v-.1.1h.7c0-.1.1 0 .1-.1h.1v-.1c.2.1.2-.1.4 0 0-.1 0-.1-.1-.1v.2s.1 0 .1-.1c0 0 0-.1.1-.1 0 .1 0 0 .1 0 0 0 .1 0 0 0l.1-.1c-.1-.1 0-.1 0-.1v.1h.1l.1-.1c.1 0 .1-.1.2-.1v-.1h.1l.1-.1-.1-.1.1.1v-.1l.1.1h.1c.1 0 .1-.2.2-.2 0-.1 0-.1.1-.1 0 0 0-.1.1-.1 0 0 0-.1.1-.1s.1-.1.1-.1v-.1c0-.1.1-.1.2-.2 0 0 0-.1.1-.1v-.1s.1-.1 0-.2v-.1c0-.1.1-.2.1-.3v-.2-.4c0-.1 0-.2.1-.2h-.1c-.1 0-.1 0-.2.1v.3h.1v.4s.1.1-.1.1c-.1.1-.1.1 0 .2v.3s0 .1-.1.1v.1h-.1s0 .1-.1.2c0 .1-.1.1-.2.2-.1 0 0 .1-.1.1 0 0-.1.1-.2.1v.1c-.1 0-.2 0-.2.1h-.1v.1c-.1-.1-.1 0-.1.1h-.1s0 .1-.1.1-.1.1-.1 0c0 0-.1 0-.1.1v.1s0-.1-.1-.1l-.2.2v-.1c-.1 0-.1.1-.1 0v.1-.1.1c-.2-.1-.4.1-.5 0v.2s0-.3-.1-.1h-.1c-.1 0-.1.1-.2 0v.2-.1s0 .1-.1.1h-.1-.1-.1-.1l-.1-.1s-.1.1-.1 0v.1h-.1v-.1h-.2-.1s-.1 0-.1-.1l-.1-.1h-.1s-.1-.1-.1 0c0-.1-.1-.1-.1-.1h-.1c-.1 0-.1-.1-.2-.2v-.1h-.1c0-.1-.1-.1-.1-.2 0 0-.1 0-.1-.1s-.1-.1-.1-.2 0-.1-.1-.2v-.1s-.1-.1-.1-.2.1-.3 0-.4c0 0 .1 0 0-.1h.1s0-.1.1-.1v-.1-.1l-.1-.1c.1 0 0-.1.1-.1s.1-.1.1-.2v-.1c.1 0 .1-.1.1-.1h.1s0-.1.1-.1l.1-.1s.1-.1.2-.1.1 0 .2-.1c.1.1.1 0 .1 0 .1 0 .1-.2.2-.2s.3 0 .3-.1h.1s0-.1.1-.1h.2c.1-.1.2-.1.3-.1v-.2.1h.7s.1-.1.1 0h.3s.1-.1.2 0h.1c0 .1 0 0 .1-.1 0 .1.1.2.2.1v.1h.2s0 .1 0 0c.1-.1.1 0 .1.1 0 0 0 .1.1 0v.1s.1 0 .1.1.1.1.1.1c0 .1.1.1.1.1l.1.1v.1c.1 0 .1.1.1.2h.1c.1 0 .1 0 .3-.1l.1-.1s0-.1 0 0v-.2l-.1-.1h-.2c.2-.1.1-.1 0-.1 0 0 .1 0 .1-.1h-.1v-.1s0-.1-.1 0v-.1-.2s-.1 0-.1-.1c-.1 0 0 0 0 0v-.1c-.1 0-.1-.1-.2-.1v.1c-.1.1-.1-.1-.3 0v-.1s0-.1-.1 0c0-.1 0-.1-.1-.1h-.1s0 .1-.1.1c0-.1-.1 0-.2 0 0 0 0-.2-.1-.2-.1.1 0 .3 0 .4 0-.1 0-.3-.1-.3 0 .1-.1.2-.1.2v.1c0-.1 0-.2-.1-.1 0 0-.1-.1-.1 0 0 0 0 .1 0 0v.1l-.1.1v-.1-.1h-.1-.1s0-.1 0 0h-.1v-.1c0 .1-.1 0-.1.1v-.1c0 .1 0 .1-.1.1 0 0-.1 0 0 .1l-.1.1v-.1c0 .1 0 .1-.1 0 0-.1-.1-.1-.1-.1s-.1 0-.1.1v.1c-.1-.1-.1 0-.1 0h-.1c0 .1-.1.1-.2.1v.1s0 .1-.1 0h-.2c-.1 0-.1.1-.1.1s0 .1.1.1c0-.1-.1-.1-.1-.1v.1h-.1c-.1-.1 0 0 0 0h-.1l-.1.1c0 .1 0 .1-.1.1l-.1-.1s0 .1-.1.2c.1 0 .1 0 0 0zm1.5 3.3v.1h-.1c.1.1.1 0 .1-.1 0 .1 0 .1 0 0z" fill="#f5efe4"/><g fill="#3c434a"><ellipse cx="63" cy="120.8" rx="1.2" ry=".9" transform="matrix(.94447391 -.32858643 .32858643 .94447391 -36.19643 27.424607)"/><path d="m62.1 120.3s-.1 0 0 0c-.1 0-.1 0 0 0-.1.1-.1.1 0 .1-.1 0-.1 0 0-.1l-.1.1s0 .1 0 0v.2c-.1 0 0 0 0 .1v.2c-.1 0 0 0 0 0s0 .1.1.1 0 .1 0 .1 0 .1 0 0l.1.1s0 .1.1 0c0 .1 0 .2.1.1h.1v.1h.2v-.1h.1v.1h.2c0-.1 0 0 .1 0 .1.1.1 0 .2 0v-.1h.1v-.1c0-.1 0 0 0 0v.1h.1v-.1-.1.1l.1.1c.1 0 0-.1.1-.1h.1v-.1l.1-.1v-.1-.1l.1-.1v-.1-.2-.1h-.1v.1h.1v.2h-.1v.2h-.1v.1s0 .1-.1.1v.1h-.1-.1c0-.1 0 0 0 0h-.1l-.1.1v-.1s0 .1-.1 0v.1c-.1-.1-.2 0-.2 0v.1c0-.1 0 0 0 0v-.1s0 .1-.1 0v.2-.1.1h-.1v-.1h-.1-.1v-.1h-.1l-.1-.1v-.1-.1-.1s-.1 0-.1-.1.1-.1 0-.2h.1s-.1-.1 0-.1h.1c.1 0 0 0 .1-.1h.3s.1 0 .1-.1c0 .1 0 0 .1 0 0 0 0-.1.1-.1s.1 0 .1-.1h.1s.1 0 .1-.1v-.1.1h.2s0-.1 0 0h.1s.1-.1.1 0c0 .1 0 .1.1 0v.1h.1v.1h.1s.1 0 0 .1h.3v-.1-.1h-.1c.1-.1.1-.1 0-.1h.1-.1v-.1h-.1v-.1h-.1c-.1.1-.1 0-.1 0s0-.1 0 0v-.1h-.1v.1c0-.1-.1 0-.1 0v-.1.1-.1.1c0 .1 0 .1 0 0l-.1-.1v.1c0-.1 0 0 0 0 0 .1 0 .1-.1 0v.1h-.1s0 .1-.1 0v.1s0-.1-.1-.1c-.1-.1 0 0 0 0-1.2.4-1.3.4-1.3.5 0-.1 0-.1 0 0zm.6 1.3s0 .1 0 0z"/><ellipse cx="60.4" cy="119.2" rx=".5" ry=".7" transform="matrix(.94447391 -.32858643 .32858643 .94447391 -35.814282 26.462045)"/><path d="m60.7 118.6s-.1 0 0 0c-.1 0-.1 0 0 0-.1-.1-.1 0 0 0-.1-.1-.1 0-.1-.1h-.1s-.1 0 0 0h-.1v.1c-.1.1 0 .1-.1.1h.1c-.1 0 0 0 0 0v.1h.1l-.1.1s.1 0 0 .1v.1l.1.1h.1l.1.1v-.1h-.1s0-.1 0 0h-.1.1-.1.1s-.1 0 0 0h-.1c.1-.1 0-.1 0-.1h-.1.1s-.1 0 0 0h-.2.1v-.1s0 .1.1 0v.1s.1-.1 0 0 0 .1 0 0c-.1 0 0 0 0 0h.1v.1s-.1 0 0 .1v.1h.1-.1s.1 0 0 0c0 0 .1 0 0 0h-.1.1c-.1 0-.1 0 0 0h-.1c-.1 0 0 0 0 0 0 .1 0 .1.1.2h.1l-.1-.1c.1.1.1.1 0 0v.1-.1-.1h.1v-.1c-.1-.1 0 0 0-.1h-.1.1c.1 0 0 0 0-.1h.1-.2.2-.1-.1.2-.1.1-.1c-.1 0-.1 0 0 0 0 0 .1 0 .1-.1h-.1c-.1 0 0 0 0 0-.1 0-.1 0 0 0h-.1-.1s.1 0 .1-.1c.1-.1 0 0 0 0l.1-.3c.1.1.1.1 0 0 0 .1 0 .1 0 0zm-.7.4s-.1 0 0 0h-.1.1c-.1 0-.1 0 0 0z"/><ellipse cx="63.8" cy="118" rx=".5" ry=".7" transform="matrix(.94447391 -.32858643 .32858643 .94447391 -35.227756 27.528926)"/><path d="m64.1 117.4s.1 0 0 0c0-.1 0 0 0 0-.1-.1-.1 0-.1-.1h-.1s-.1 0 0 0h-.1v.1c-.1.1 0 .1-.1.1h.1c-.1 0 0 0 0 0v.1h.1l-.1.1s.1 0 0 .1v.1l.1.1h.1l.1.1v-.1h-.1s0-.1 0 0h-.1.1-.1.1s-.1 0 0 0h-.1c.1-.1 0-.1 0-.1h-.1.1s-.1 0 0 0h-.2.1v-.1s0 .1.1 0v.1s.1-.1 0 0 0 .1 0 0c-.1 0 0 0 0 0h.1v.1s-.1 0 0 .1v.1h.1-.1s.1 0 0 0c0 0 .1 0 0 0h-.1.1c-.1 0-.1 0 0 0h-.1c-.1 0 0 0 0 0 0 .1 0 .1.1.2h.1l-.1-.1c.1.1.1.1 0 0v.1-.1-.1h.1v-.1c-.1-.1 0 0 0-.1h-.1.1c.1 0 0 0 0-.1h.1-.2.2-.1-.1.2-.1.1-.1c-.1 0-.1 0 0 0 0 0 .1 0 .1-.1h-.1c-.1 0 0 0 0 0-.1 0-.1 0 0 0h-.1-.1s.1 0 .1-.1c.1-.1 0 0 0 0l.1-.3c.1.1.1.1 0 0 .1 0 .1 0 0 0zm-.7.4h-.1zm.3 5.7c.1-.1 0-.1.1-.1v-.1s0-.1 0 0c.1 0 .1-.1.1-.1v-.1h-.1.1c-.1 0 0 0 0 0 .1-.1 0-.1 0-.1h-.1c-.1 0 0 0 0 0h.1v-.1h-.1-.1.1s-.1 0 0-.1c-.1 0 0 0 0 0v-.1-.1-.1-.1.1s.1 0 0 .1v.4h.1c-.1 0 0 0 0 0l.1.1h-.1s.1 0 0 0h.1c-.1.1 0 .1 0 .2h.1c-.1 0 0 0 0 0s-.2.1-.1 0 .1 0 0 0h.2-.1c-.1 0 0 0 0 .1v.4-.1.1s-.1 0 0 .1h-.1s.1.1 0 .1c-.1-.1 0 0 0 0v.1h-.1-.1-.1v.1-.1s0 .1 0 0c0 0 0 .1 0 0v-.1.1c0-.1 0-.1 0 0v-.1c0-.1 0 0 0 0h-.1c0 .1 0 .1-.1.2v.2l.1-.1v.2-.1s0 .1 0 0v-.1.1h.1c0-.1 0 0 .1-.1v-.1.1c0-.1 0-.1 0 0l.1.1v-.1c0-.1 0-.1 0 0v-.1h.1l-.1-.1s0 .1.1.1c.1.1 0 0 0 0l-.3-.7-.1.1.1-.1c-.1.1 0 .1 0 0 0 .1 0 .1 0 0zm.6-.3c-.1 0-.1 0 0 0-.1-.1-.1-.1 0 0-.1 0-.1 0 0 0-.1-.1-.1 0 0 0h-.1c0-.1 0 0 0 0v-.1s0-.1 0 0c.1 0 .1-.1.1-.1v-.1h-.1.1c-.1 0 0 0 0 0 .1-.1 0-.1 0-.1h-.1c-.1 0 0 0 0 0h.1v-.1h-.1-.1.1s-.1 0 0-.1c-.1 0 0 0 0 0v-.1-.1-.1-.1.1s.1 0 0 .1v.4h.1c-.1 0 0 0 0 0l.1.1h-.1s.1 0 0 0h.1c-.1.1 0 .1 0 .2h.1c-.1 0 0 0 0 0s-.2.1-.1 0 .1 0 0 0h.2-.1c-.1 0 0 0 0 .1v.4l.1.1h.1s0 .1.1.1c0 .1 0 0 .1 0h.1s0 .1.1 0l.1-.1h.2s.1 0 .1-.1v-.1.1s0-.1 0 0h.1v-.1l.1.1h.1c0-.1 0 0 0 0h.1v-.1-.1c-.1 0-.1 0-.2-.1h-.1-.1l.1.1c-.1-.1-.1 0-.1 0h-.1.1-.1c.1.1 0 0 0 .1h-.1l.1.1-.1-.1v.3l-.1-.1c0 .1.1.1.2.2l-.2-.2c0 .1.1.1.1.1l-.1-.1s0 .1.1.1v-.1-.1.1-.1.1c0 .1 0 .1 0 0 0 0 0-.1-.1-.1v.1c0-.1 0 0 0 0 0 .1 0 .1 0 0v.1c0-.1 0 0 0 0zm-.9-.7s.1 0 0 0z"/></g><path d="m64.9 114.9c-1.3-.7-2.9-.8-4.5-.3-1.5.6-2.6 1.7-3.2 3.1 0 0-3 2.4-1 6.2l1.5-1.6c1.3 2.4 4 3.9 6.6 2.9s3.7-4.1 3.1-6.7l2.1.5c-.7-3.9-4-4.2-4.6-4.1z" fill="#fff"/><path d="m64.7 115c-.6-.3-1.3-.4-2-.5-.7 0-1.5.1-2.2.3-.2.1-.4.1-.5.2-.2.1-.3.2-.5.3-.3.2-.6.4-.9.7-.5.5-1 1.1-1.2 1.8-.1.1-.2.2-.3.1-.1 0-.1-.1-.1-.2l.4.2-.6.6c-.2.2-.3.4-.5.7-.3.5-.5 1-.5 1.5-.2 1.1.1 2.2.6 3.1l-.4-.1 1.5-1.6c.1-.1.2-.1.3 0v.1c.6 1.1 1.5 2.1 2.7 2.6l.9.3c.3.1.6.1.9.1s.6 0 .9-.1.6-.1.9-.2.6-.3.8-.4c.3-.2.5-.4.7-.6.4-.5.8-1 1-1.6.5-1.2.6-2.5.3-3.8 0-.1.1-.3.2-.3h.1l2.1.6-.3.3c-.1-.3-.1-.5-.2-.8s-.2-.5-.3-.7-.3-.5-.4-.7c-.2-.2-.3-.4-.5-.6l-.3-.3c-.1-.1-.2-.2-.3-.2-.2-.1-.5-.3-.7-.4s-.5-.2-.8-.3-.5-.1-.8-.1zm.4-.2h.7c.3.1.6.1.8.2.3.1.5.2.8.4.1.1.3.1.4.2l.3.3.6.6c.2.2.4.5.5.7.1.3.3.5.4.8s.2.6.2.8c0 .1 0 .2-.1.3h-.1l-2.1-.5.3-.3c.3 1.4.2 2.8-.4 4.1-.3.6-.6 1.2-1.1 1.8-.2.3-.5.5-.8.7s-.6.4-.9.5c-.7.3-1.4.4-2.1.3-.4 0-.7-.1-1-.2s-.7-.2-1-.4c-1.3-.6-2.3-1.6-2.9-2.9l.4.1-1.5 1.6c-.1.1-.2.1-.3 0v-.1c-.6-1-.9-2.2-.7-3.4.1-.6.3-1.2.6-1.7.1-.3.3-.5.5-.7l.6-.6c.1-.1.3-.1.3 0l.1.1-.5-.1c.3-.7.8-1.4 1.4-1.9.3-.3.6-.5.9-.7.2-.1.3-.2.5-.3s.4-.2.6-.2c.7-.3 1.6-.4 2.4-.3.4 0 .8.1 1.2.2s.8.3 1.1.5z" fill="#004e6e"/><ellipse cx="62.6" cy="120.2" fill="#fff" rx="1.3" ry="1" transform="matrix(.93899825 -.34392193 .34392193 .93899825 -37.538805 28.84988)"/><path d="m63.8 119.8s.1.1 0 .3c0 .2-.1.5-.4.8-.1.1-.3.3-.5.3-.2.1-.4.2-.6.2s-.5 0-.7-.1-.5-.3-.6-.5c-.1-.3-.1-.6 0-.8s.3-.4.5-.6l.6-.3c.2-.1.4 0 .6 0 .4.1.6.3.8.4.3.2.3.3.3.3zm0 0s0-.1-.2-.2c-.1-.1-.4-.2-.7-.1-.1 0-.3.1-.5.1-.2.1-.3.1-.5.2-.3.2-.6.5-.5.9.1.3.5.5.9.5.2 0 .4-.1.6-.1.2-.1.3-.1.5-.2.3-.2.4-.5.4-.7z" fill="#004e6e"/><path d="m63 121.1s.2.2.3.5c.1.1.1.3.1.4v.2c0 .1-.1.2-.2.2s-.1 0-.1-.1l-.1-.1c-.1-.1-.1-.2-.2-.4l-.2-.6c0-.1.1-.2.2-.2s.2 0 .2.1z" fill="#004e6e"/><path d="m61 122.8h1.5c.2 0 .4 0 .6-.2.1-.2.2-.5.1-.7 0-.1 0-.1.1-.1h.1c.4.1.9.1 1.2 0 .1 0 .2-.1.3-.1.1-.1.2-.1.2-.2.2-.1.3-.3.4-.5v.4c0 .1-.1.3-.1.4l-.3.3c-.1.1-.2.2-.4.2-.3.1-.6.1-.8 0-.3-.1-.5-.2-.7-.3l.2-.1c0 .3-.1.5-.2.8s-.4.5-.7.6-.6 0-.8-.1c-.1 0-.3-.1-.4-.2-.1 0-.1-.1-.2-.1s-.1 0-.1-.1c-.1 0-.1 0 0 0z" fill="#004e6e"/><ellipse cx="60" cy="118.8" fill="#004e6e" rx=".5" ry=".7" transform="matrix(.93899825 -.34392193 .34392193 .93899825 -37.198819 27.896691)"/><ellipse cx="63.3" cy="117.6" fill="#004e6e" rx=".5" ry=".7" transform="matrix(.93899825 -.34392193 .34392193 .93899825 -36.581367 28.957821)"/><path d="m57.2 117.8s-.4 1.6.4 3.3" fill="#fff"/><path d="m57.4 117.9s-.1.2-.1.5-.1.7 0 1.1c0 .8.3 1.7.3 1.7s-.4-.8-.6-1.6c-.1-.4-.1-.9-.1-1.2v-.6c0-.1.1-.2.3-.2s.2.1.2.3z" fill="#004e6e"/><path d="m64.9 114.9s1.3 1 1.8 2.8" fill="#fff"/><path d="m65 114.8.4.4c.2.3.5.6.7 1 .4.8.6 1.6.6 1.6s-.3-.8-.8-1.5c-.3-.3-.5-.6-.8-.8-.2-.2-.4-.3-.4-.3-.1-.1-.1-.2-.1-.3s.3-.2.4-.1c0-.1 0-.1 0 0z" fill="#004e6e"/></g><g opacity=".5"><path d="m229.187 59.887 33.557 7.568-4.928 21.85-33.557-7.567z" fill="#fff"/><path d="m231.68 63.832 27.216 6.138-3.476 15.413-27.216-6.138z" fill="#c3c4c7"/><path d="m240.1 74.3-7.6-1.7s-.7-1.8.7-2.5 2.1.7 2.1.7.5-3 2.8-2.4c2.9.7 1.9 3.1 1.9 3.1s2.3-.1 2.1 1.9c0 0 0 .7-.6 1.3z" fill="#fff"/><path d="m240 74.5c-1.3-.2-2.6-.5-3.8-.8l-3.8-.8c-.1 0-.2-.1-.2-.2-.1-.2-.1-.5-.2-.7v-.7c0-.3.1-.5.3-.7.1-.2.3-.4.6-.6.1-.1.2-.1.3-.2.1 0 .2-.1.4-.1.3-.1.5-.1.8 0s.5.2.7.4.3.4.4.6l-.5.1c.1-.4.2-.7.4-1.1.2-.3.4-.7.6-1 .1-.1.3-.3.5-.4s.4-.2.6-.2c.2-.1.4-.1.6-.1s.4 0 .6.1l.5.1c.2.1.4.1.5.2.2.1.3.2.5.3s.3.3.4.4c.1.2.2.4.3.5.1.2.1.4.1.6 0 .4 0 .8-.2 1.1l-.2-.3h.6c.2 0 .4.1.6.2s.4.2.6.4c.2.1.3.3.4.6.1.2.1.4.1.7 0 .2 0 .4-.1.6-.1.4-.3.8-.6 1.1h-.1zm.6-.2 1 .1h-.1c.2-.3.4-.6.5-1v-.5c0-.2-.1-.3-.1-.5-.1-.3-.4-.5-.7-.6s-.7-.2-1.1-.2c-.1 0-.3-.1-.3-.2v-.1c.1-.3.2-.6.1-.9 0-.2 0-.3-.1-.5-.1-.1-.1-.3-.2-.4l-.3-.3c-.1-.1-.3-.2-.4-.3s-.3-.1-.4-.2l-.5-.1c-.1 0-.3-.1-.5 0-.2 0-.3 0-.5.1-.1 0-.3.1-.4.2s-.2.2-.4.3c-.4.5-.7 1.1-.8 1.7 0 .2-.2.2-.3.2s-.2-.1-.2-.2c-.1-.2-.2-.3-.3-.5-.1-.1-.3-.2-.5-.3s-.4 0-.5 0-.2 0-.3.1c-.1 0-.2.1-.3.1-.3.2-.5.5-.6.9s0 .8.1 1.2l-.2-.2 3.8.9c1.3.3 2.5.6 3.8.9z" fill="#004e6e"/><ellipse cx="251.4" cy="75.3" fill="#fff" rx="3.9" ry="3.9" transform="matrix(.22001646 -.97549616 .97549616 .22001646 122.657381 303.976987)"/><path d="m255.2 76.2s0 .1-.1.3c0 .2-.1.4-.3.7s-.4.7-.7 1-.8.7-1.3.9c-.6.2-1.2.3-1.9.3-.2 0-.3-.1-.5-.1-.2-.1-.3-.1-.5-.2-.3-.1-.7-.3-.9-.6-.6-.5-1-1.1-1.3-1.8s-.4-1.5-.2-2.3c.1-.4.2-.8.4-1.1s.4-.7.7-1c.6-.6 1.3-.9 2-1.1s1.5-.1 2.2.2c.7.2 1.2.6 1.6 1.1s.6 1 .8 1.4c.2.5.2.9.2 1.2s0 .6-.1.8c0 .2-.1.3-.1.3zm0-.1v-.3-.8c0-.7-.4-1.6-1.2-2.4-.4-.4-.9-.7-1.5-.9s-1.3-.2-1.9-.1c-.7.1-1.3.4-1.8.9s-.9 1.1-1.1 1.8c-.1.3-.1.7-.1 1.1s.1.7.2 1.1c.3.7.7 1.3 1.3 1.7.3.2.6.3.9.4.1.1.3.1.5.1.1 0 .3.1.5.1.6 0 1.2 0 1.7-.2 1-.3 1.7-1.1 2.1-1.6.2-.3.3-.5.3-.7.1-.1.1-.2.1-.2z" fill="#004e6e"/><path d="m250.9 81.5-10-2.2s-.9-2.4.9-3.3c1.9-.9 2.7 1 2.7 1s.7-3.9 3.7-3.2c3.8.9 2.5 4 2.5 4s3-.2 2.8 2.4c0 0 0 1-.8 1.7z" fill="#fff"/><path d="m250.9 81.5c-.8-.2-1.7-.4-2.5-.5l-2.5-.5c-.8-.2-1.7-.3-2.5-.5s-1.7-.4-2.5-.6c-.1 0-.1-.1-.1-.1-.2-.6-.3-1.2-.2-1.8l.3-.9c.2-.3.4-.5.6-.6.3-.2.5-.3.8-.3.1 0 .3-.1.5-.1s.3 0 .5.1c.3.1.6.3.8.5s.4.5.5.7h-.2c.2-.9.5-1.8 1.2-2.6.2-.2.3-.3.6-.5.2-.1.4-.2.7-.3l.4-.1h.4c.3 0 .5 0 .7.1l.7.2c.2.1.5.2.7.3s.4.2.6.4.4.4.5.6.2.4.3.7c.1.2.1.5.1.7 0 .5-.1 1-.2 1.5l-.2-.3c.3 0 .6 0 .8.1.3 0 .5.1.8.2s.5.3.7.5.4.4.5.7.1.5.2.8c0 .3 0 .5-.1.8-.1.5-.4 1-.8 1.4h-.1zm0-.1 1.9.3h-.1c.3-.4.6-.8.6-1.3.1-.2 0-.5 0-.7s-.1-.5-.2-.7-.2-.4-.4-.5c-.2-.2-.4-.3-.6-.3-.2-.1-.5-.1-.7-.2-.2 0-.5-.1-.7 0-.1 0-.3-.1-.3-.2v-.1c.1-.4.2-.8.2-1.3 0-.2-.1-.4-.1-.6l-.3-.6c-.1-.2-.2-.3-.4-.5-.1-.1-.3-.3-.5-.4l-.6-.3-.7-.2c-.2 0-.4-.1-.6-.1h-.3l-.3.1c-.2.1-.4.1-.6.2s-.3.2-.5.4c-.6.6-1 1.5-1.2 2.4 0 .1-.1.1-.1.1s-.1 0-.1-.1c-.2-.5-.6-1-1.2-1.1-.1 0-.3-.1-.4-.1h-.4c-.3.1-.5.2-.8.3l-.6.6c-.2.2-.2.5-.3.8-.1.6.1 1.1.3 1.7l-.1-.1c.8.2 1.7.3 2.5.5s1.7.4 2.5.6l2.5.7c.9.4 1.7.5 2.6.7z" fill="#004e6e"/></g><g opacity=".35"><path d="m227.2 34.1s-4.4 4.5-9-1.2c-4.4-5.3-7.5-6.4-11.3-6-2.9.2 12-9.8 20-.3-.1 0 3.4 4.1.3 7.5z" fill="#bedae6"/><path d="m226.8 34.7c-.3.3-.8.6-1.6 1-.7.3-1.7.6-2.8.4-1.1-.1-2.3-.7-3.2-1.6-1-.9-1.8-2.1-2.8-3.1-1-1.1-2.2-2.1-3.5-2.9-1.4-.8-3-1.3-4.6-1.3h-1.7c-.1 0-.2 0-.3-.1-.1 0-.1-.1-.1-.2v-.2c.1-.4.3-.5.5-.6.7-.6 1.4-1 2.2-1.4 1.6-.8 3.2-1.4 4.9-1.8s3.4-.6 5-.4c1.6.1 3.2.5 4.6 1.2s2.5 1.6 3.3 2.6c.9 1 1.5 2.1 1.7 3.2.3 1 .3 2 0 2.8-.2.7-.6 1.3-.8 1.6-.3.3-.4.5-.4.5zm.6-1c0-.1 0-.1 0 0 .3-.4.6-.9.8-1.6s.2-1.6-.1-2.6-.8-2-1.7-3c-.9-.9-1.9-1.8-3.2-2.5s-2.8-1.1-4.4-1.2c-3.2-.2-6.6.6-9.6 2.2-.7.4-1.5.8-2.1 1.4-.1.1-.3.3-.3.4v-.1h1.5c1.7 0 3.4.5 4.9 1.4 1.4.9 2.6 1.9 3.6 3s1.8 2.2 2.8 3.1c.9.8 2 1.4 3 1.5s1.9-.1 2.5-.3c.7-.3 1.2-.6 1.5-.8s.5-.4.5-.4z" fill="#187aa2"/><path d="m215 26.1s11.1 2 15.4 9.3" fill="#bedae6"/><path d="m215 26.1s1.1.2 2.8.7c.8.2 1.8.5 2.8.9l1.5.6c.5.2 1 .5 1.6.8l1.5.9c.5.3 1 .6 1.4 1s.9.6 1.2 1 .7.7 1 1 .5.7.7.9c.2.3.4.6.5.8.2.4.4.7.4.7s-.2-.2-.5-.6c-.2-.2-.3-.4-.6-.7-.2-.3-.5-.5-.8-.8s-.7-.6-1-.9-.8-.6-1.2-1c-.4-.3-.9-.6-1.3-1-.5-.3-1-.6-1.4-.9-.5-.3-1-.6-1.5-.8s-1-.5-1.5-.7c-1-.4-1.9-.8-2.8-1-1.7-.6-2.8-.9-2.8-.9z" fill="#187aa2"/><path d="m222 25.3 1.2 3.7" fill="#bedae6"/><path d="m222 25.3.8 1.8c.1.2.2.4.3.7.1.2.1.4.1.6v.6s-.2-.2-.3-.5c-.1-.2-.2-.4-.2-.6-.1-.2-.1-.5-.2-.7-.3-.9-.5-1.9-.5-1.9z" fill="#187aa2"/><path d="m217.5 29.2 2.9-1.4" fill="#bedae6"/><path d="m217.5 29.2s.7-.5 1.4-.9c.2-.1.3-.2.5-.3s.3-.1.5-.2c.3-.1.5-.1.5-.1s-.1.2-.4.4c-.1.1-.3.2-.4.3-.2.1-.4.1-.6.2-.7.4-1.5.6-1.5.6z" fill="#187aa2"/><path d="m221.1 32.4 4.3-2.1" fill="#bedae6"/><path d="m221.1 32.4s1-.6 2.1-1.2c.3-.2.5-.3.8-.4s.5-.2.7-.3l.8-.2s-.2.2-.6.5c-.2.1-.4.3-.7.4s-.5.2-.8.3c-1.1.5-2.3.9-2.3.9z" fill="#187aa2"/></g><g opacity=".35"><path d="m14.9 105.7s.1-4.3-5-3.7c-4.7.5-6.7-.5-8.4-2.5-1.3-1.5 1.1 10.5 9.5 9.7.1-.1 3.8-.4 3.9-3.5z" fill="#bedae6"/><path d="m14.8 106.1v-.4s0-.1-.1-.4c0-.3-.1-.6-.3-1.1-.2-.4-.5-.9-1.1-1.3-.5-.4-1.3-.7-2.1-.7-.8-.1-1.8.1-2.8.1s-2.1 0-3.2-.3-2.2-.8-3.1-1.7l-.6-.6-.1-.1-.1-.1c.1 0 .1 0 .1-.1v.3c0 .5.2 1.1.4 1.7.7 2.2 2 4.2 3.6 5.6.8.7 1.7 1.2 2.7 1.5.9.3 1.9.4 2.7.3.8 0 1.6-.3 2.2-.6s1-.8 1.3-1.2c.3-.3.4-.7.5-.9zm.2-1v1c0 .3-.1.7-.4 1.2-.2.5-.7 1-1.4 1.4-.6.4-1.5.7-2.4.7-.9.1-1.9 0-2.9-.3s-2-.9-2.8-1.6c-1.7-1.5-3-3.6-3.7-5.9-.2-.6-.3-1.1-.4-1.8 0-.2 0-.3.1-.6l.1-.1h.2c.1 0 .2.1.2.1l.1.1.1.1.6.6c.8.8 1.8 1.3 2.8 1.6 1 .2 2.1.3 3.1.3s1.9-.2 2.9-.1c.9.1 1.8.3 2.4.8s1 1.1 1.2 1.6c.1.2.2.6.2.9z" fill="#187aa2"/><path d="m5.2 103.7s6.3 4.3 11.9 2.9" fill="#bedae6"/><path d="m5.2 103.7s.7.4 1.7.9c.5.2 1.2.5 1.8.8.7.3 1.4.5 2.2.7.4.1.8.2 1.1.2.4 0 .7.1 1.1.2.4 0 .7.1 1 .1s.6.1.9 0h.8c.2 0 .4 0 .6-.1h.5s-.2.1-.5.2c-.2 0-.4.1-.6.2-.2 0-.5.1-.8.1h-1c-.3 0-.7 0-1.1-.1-.4 0-.7-.1-1.1-.2s-.8-.2-1.1-.3c-.8-.2-1.5-.5-2.2-.8s-1.3-.6-1.8-.9c-.9-.5-1.5-.9-1.5-1z" fill="#187aa2"/><path d="m8.2 107.5 2.3-1.2" fill="#bedae6"/><path d="m8.2 107.5s.5-.4 1.1-.8c.1-.1.3-.2.4-.3s.3-.1.4-.1c.3-.1.4 0 .4 0s-.1.2-.3.3c-.1.1-.2.2-.3.2-.1.1-.3.1-.5.2-.6.3-1.2.5-1.2.5z" fill="#187aa2"/><path d="m7.9 103.4.7 2.1" fill="#bedae6"/><path d="m7.9 103.4s.3.5.5 1c.1.1.1.2.2.4 0 .1.1.2.1.4v.4l-.3-.3c-.1-.1-.1-.2-.2-.3 0-.1-.1-.3-.1-.4-.2-.6-.3-1.2-.2-1.2z" fill="#187aa2"/><path d="m11.2 103.6 1 3.1" fill="#bedae6"/><path d="m11.2 103.6s.4.7.7 1.5c.1.2.2.4.3.5.1.2.1.4.1.5v.5s-.2-.2-.3-.4c-.1-.1-.2-.3-.2-.5-.1-.2-.1-.4-.1-.6-.4-.7-.6-1.5-.5-1.5z" fill="#187aa2"/></g><g opacity=".35"><path d="m135.7 94s.1-5-5.8-4.4c-5.5.6-7.8-.6-9.7-2.9-1.5-1.8 1.3 12.2 11.1 11.3 0 0 4.2-.3 4.4-4z" fill="#bedae6"/><path d="m135.6 94.4v-.4s0-.2-.1-.5-.2-.8-.4-1.3-.6-1.1-1.2-1.6-1.5-.8-2.5-.8c-1-.1-2.1.1-3.3.1s-2.5 0-3.7-.3c-1.3-.3-2.5-1-3.5-2-.2-.2-.5-.5-.7-.8l-.1-.1-.1-.1s.1 0 .1-.1v.4c0 .6.2 1.3.4 1.9.8 2.6 2.3 5 4.2 6.6 1 .8 2 1.4 3.1 1.8s2.2.5 3.2.4c1 0 1.9-.3 2.6-.7s1.2-.9 1.5-1.4c.3-.3.4-.7.5-1.1zm.2-1-.1.6v.5c0 .3-.1.8-.4 1.4s-.8 1.1-1.6 1.6c-.7.4-1.7.8-2.8.8-1 .1-2.2 0-3.4-.4s-2.3-1-3.3-1.9c-2-1.7-3.5-4.2-4.3-6.8-.2-.7-.4-1.3-.4-2.1 0-.2 0-.3.1-.7l.1-.1h.2c.1 0 .2.1.2.1l.1.1.1.1c.2.3.4.5.7.7.9.9 2.1 1.5 3.3 1.8s2.4.4 3.6.3c1.1 0 2.3-.2 3.3-.1 1.1.1 2 .4 2.7.9s1.1 1.2 1.4 1.8c.4.6.5 1 .5 1.4z" fill="#187aa2"/><path d="m124.4 91.7s7.9 5 14.3 3.3" fill="#bedae6"/><path d="m124.4 91.7s.8.5 2.1 1.1c.6.3 1.4.6 2.2.9.4.2.8.3 1.3.4.4.1.9.3 1.3.4.5.1.9.2 1.4.3s.9.2 1.3.2.8.1 1.2.1.8.1 1.1 0h1c.3 0 .5-.1.7-.1.4 0 .6-.1.6-.1s-.2.1-.6.2c-.2.1-.4.1-.7.2-.3 0-.6.1-1 .1h-1.2c-.4 0-.8-.1-1.3-.1-.9-.1-1.8-.3-2.7-.6-.5-.2-.9-.3-1.3-.4-.4-.2-.9-.3-1.3-.5-.8-.3-1.6-.7-2.2-1-1.1-.6-1.9-1.1-1.9-1.1z" fill="#187aa2"/><path d="m126 94.6 2-1" fill="#bedae6"/><path d="m126 94.5s.4-.3.9-.6c.1-.1.2-.2.3-.2.1-.1.2-.1.3-.1h.4s-.1.2-.2.3-.2.2-.3.2c-.1.1-.3.1-.4.1-.4.2-.9.4-1 .3z" fill="#187aa2"/><path d="m129.8 91.7.6 2.8" fill="#bedae6"/><path d="m129.8 91.7s.3.7.5 1.3c.1.2.1.3.2.5v.5c0 .3-.1.5-.1.5s-.1-.1-.3-.4c-.1-.1-.1-.3-.2-.4 0-.2 0-.3-.1-.5z" fill="#187aa2"/><path d="m130.1 96.7 2.5-1.5" fill="#bedae6"/><path d="m130.1 96.6s.6-.5 1.1-.9c.1-.1.3-.2.4-.3s.3-.1.4-.2c.3-.1.5-.1.5-.1s-.1.2-.3.4c-.1.1-.2.2-.4.3-.1.1-.3.1-.5.2-.5.4-1.2.7-1.2.6z" fill="#187aa2"/></g><g opacity=".35"><path d="m42.3 74.3s-3.9.3-3.6-6.2c0 0 5.7 2.9 3.6 6.2z" fill="#bedae6"/><path d="m42.3 74.3c-.7 0-1.4-.2-1.9-.6-.1-.1-.3-.2-.4-.3l-.3-.4c-.1-.1-.2-.3-.3-.4s-.2-.3-.2-.5c-.2-.3-.2-.6-.3-1l-.1-.5c0-.2-.1-.3-.1-.5 0-.3-.1-.7-.1-1v-1.3l.3.1c.6.3 1.2.7 1.7 1.1.3.2.5.4.8.7.2.2.5.5.7.8.1.1.2.3.3.4.1.2.2.3.3.5l.2.5c.1.2.1.4.1.5v.5c0 .2 0 .3-.1.5s-.1.3-.2.5zm0-.1.2-.5c.1-.1.1-.3.1-.5s.1-.3 0-.5c0-.2 0-.3-.1-.5 0-.2-.1-.3-.1-.5l-.2-.4c-.1-.1-.2-.3-.3-.4s-.2-.3-.3-.4c-.2-.3-.4-.5-.7-.7-.2-.2-.5-.4-.7-.6-.5-.4-1.1-.8-1.6-1.1l.3-.2v2c0 .2 0 .3.1.5l.1.5c.1.3.1.6.3.9.1.1.1.3.2.5.1.1.2.3.2.4l.3.4c.1.1.2.2.4.3.5.6 1.1.8 1.8.8z" fill="#187aa2"/><path d="m42.7 74.1s-2.2-3.3 3.7-6.2c0 .1.2 6.4-3.7 6.2z" fill="#bedae6"/><path d="m42.7 74.1c-.4-.6-.5-1.3-.4-2 0-.2.1-.3.1-.5l.2-.5c.1-.2.2-.3.2-.5.1-.2.2-.3.3-.4.2-.3.5-.5.7-.8l.4-.3c.1-.1.3-.2.4-.3l.9-.6.9-.5.3-.2v.3c0 .7 0 1.4-.1 2-.1.3-.1.7-.2 1s-.2.7-.3 1c-.1.2-.1.3-.2.5-.1.1-.2.3-.3.4l-.3.4c-.1.1-.3.2-.4.3s-.3.2-.5.3-.3.1-.5.2c-.2 0-.3.1-.5.1zm0 0 .5-.1c.2 0 .3-.1.5-.1.2-.1.3-.1.4-.2s.3-.2.4-.3l.3-.3.3-.4c.1-.1.2-.3.2-.4.1-.1.1-.3.2-.4l.3-.9c.1-.3.2-.6.2-1 .1-.6.2-1.3.2-2l.3.2-.9.5c-.3.2-.6.3-.8.5-.1.1-.3.2-.4.3l-.4.2c-.2.2-.5.4-.7.7-.1.1-.2.2-.3.4-.1.1-.2.3-.2.4l-.2.5c0 .2-.1.3-.1.5-.2.6-.1 1.3.2 1.9z" fill="#187aa2"/><path d="m42.1 74.5s-2.2-3.3-7.1 1c0 .1 5.8 2.7 7.1-1z" fill="#bedae6"/><path d="m42.1 74.5c-.4-.5-1-.9-1.6-1-.2 0-.3 0-.5-.1h-.5c-.2 0-.3 0-.5.1-.2 0-.3.1-.5.1-.3.1-.6.2-.9.4l-.4.2c-.1.1-.3.2-.4.3-.3.2-.5.4-.8.6l-.8.6v-.3c.6.2 1.2.4 1.9.6.3.1.6.1 1 .2.3 0 .6.1 1 .1h1l.5-.1c.1 0 .3-.1.4-.2.2 0 .3-.2.4-.2.1-.1.2-.2.4-.3.1-.1.2-.2.3-.4zm0 0-.2.5c0 .2-.2.3-.3.4s-.2.3-.3.4-.3.3-.4.3c-.2.1-.3.2-.5.2l-.5.2c-.2 0-.3.1-.5.1h-.5c-.3 0-.7 0-1-.1-.3 0-.7-.1-1-.2-.7-.2-1.3-.4-1.9-.7l-.3-.1.2-.2.8-.6.9-.6c.1-.1.3-.2.5-.2l.5-.2c.3-.1.6-.3 1-.3.2 0 .3-.1.5-.1h1c.2 0 .3.1.5.1.5.2 1.1.6 1.5 1.1z" fill="#187aa2"/><path d="m42.3 74.3s3.4 2.1-.8 7.1c0 0-2.8-5.7.8-7.1z" fill="#bedae6"/><path d="m42.3 74.2c.6.4 1 1 1.2 1.6.1.2.1.3.1.5v1c0 .2-.1.3-.1.5-.1.3-.2.7-.3 1l-.2.6c-.1.2-.1.3-.2.5-.2.3-.3.6-.5.9l-.6.8-.2.3-.1-.3c-.3-.6-.6-1.2-.8-1.9-.1-.3-.2-.7-.2-1-.1-.3-.1-.7-.1-1v-.5c0-.2 0-.3.1-.5l.1-.5c.1-.2.2-.3.2-.5.1-.2.2-.3.3-.4s.2-.3.4-.4c.1-.1.3-.2.4-.3zm0 .1-.4.3c-.1.1-.3.2-.4.3s-.2.2-.3.4c-.1.1-.2.3-.2.4 0 .2-.1.3-.2.4l-.1.5v1c0 .3.1.6.1 1 .1.3.1.6.2 1 .2.6.4 1.3.6 1.9h-.3l.6-.8c.2-.3.4-.6.6-.8.1-.1.2-.3.2-.4l.2-.4c.1-.3.3-.6.3-.9 0-.2.1-.3.1-.5s0-.3.1-.5v-.5c0-.2 0-.3-.1-.5-.1-.9-.5-1.5-1-1.9z" fill="#187aa2"/><path d="m42.3 74.2s.6 3.9 6.9 2c0 .1-4.2-4.7-6.9-2z" fill="#bedae6"/><path d="m42.3 74.2c.2.6.6 1.2 1.1 1.6.1.1.3.2.4.3l.4.2c.2.1.3.1.5.1.2.1.3.1.5.1.3.1.7 0 1 .1h.5c.2 0 .3 0 .5-.1.3-.1.7-.1 1-.2l1-.3-.2.4c-.4-.5-.9-.9-1.5-1.3-.3-.2-.5-.4-.8-.6s-.6-.3-.8-.5c-.1-.1-.3-.2-.4-.2-.2-.1-.3-.1-.5-.2l-.5-.1h-.5c-.2 0-.3 0-.5.1-.2 0-.3.1-.5.1-.1.1-.3.1-.4.2zm0 0 .4-.4c.1-.1.3-.2.4-.3.2-.1.3-.2.5-.2s.3-.1.5-.1h.5l.5.1c.2 0 .3.1.5.1s.3.1.5.2c.3.1.6.3.9.5s.6.4.8.6c.5.4 1 .9 1.5 1.4l.2.2-.3.1-1 .2c-.3.1-.7.1-1 .2h-1c-.3 0-.7 0-1-.1-.2 0-.3-.1-.5-.1-.2-.1-.3-.1-.5-.2l-.5-.2c-.1-.1-.3-.2-.4-.3-.5-.4-.9-1-1-1.7z" fill="#187aa2"/><ellipse cx="42.1" cy="74" fill="#006088" rx="1.2" ry="1.2" transform="matrix(.3172219 -.94835134 .94835134 .3172219 -41.44423 90.40163)"/></g><g opacity=".35"><path d="m15.6 138.3s1.8-2.7 5.8.7c0 .1-4.7 2.3-5.8-.7z" fill="#bedae6"/><path d="m15.5 138.3c.3-.5.8-.8 1.3-1 .3-.1.6-.1.8-.1h.4c.1 0 .3.1.4.1.3 0 .5.2.8.3s.5.2.8.4c.2.2.5.3.7.5l.7.5.3.2-.3.2c-.5.3-1 .5-1.6.6-.3.1-.6.1-.8.2-.3 0-.6.1-.9.1h-.4c-.1 0-.3 0-.4-.1l-.4-.1c-.1-.1-.3-.1-.4-.2l-.3-.3-.3-.3c-.1-.1-.2-.2-.2-.4zm.1 0 .2.3.3.3c.1.1.2.2.3.2.1.1.2.2.3.2s.2.1.4.1l.4.1h.8c.5 0 1-.1 1.6-.2.5-.1 1-.3 1.5-.5v.3l-.6-.5c-.2-.2-.4-.3-.7-.5-.2-.1-.5-.3-.7-.4-.3-.1-.5-.2-.8-.3-.1 0-.3-.1-.4-.1s-.3 0-.4-.1c-.3 0-.5 0-.8.1-.6.3-1.1.6-1.4 1z" fill="#187aa2"/><path d="m15.5 138.7s3.2.2 2.2 5.5c-.1-.1-4.3-3.1-2.2-5.5z" fill="#bedae6"/><path d="m15.5 138.6c.6.1 1.1.3 1.5.7.2.2.4.4.5.7.1.1.1.3.2.4s.1.3.1.4c.1.3.1.6.2.8v.8c0 .3 0 .6-.1.8l-.1.8v.3l-.3-.2c-.5-.3-.9-.7-1.3-1.1l-.6-.6c-.2-.2-.3-.5-.5-.7-.1-.1-.1-.3-.2-.4s-.1-.3-.2-.4l-.1-.4v-.4c0-.1 0-.3.1-.4 0-.1.1-.3.1-.4.1-.1.1-.3.2-.4zm0 .1-.2.3c-.1.1-.1.2-.1.4 0 .1-.1.2-.1.4v.4c0 .1 0 .3.1.4l.1.4c0 .1.1.2.2.4 0 .1.1.2.2.3.3.4.6.9 1 1.2.4.4.8.8 1.2 1.1l-.3.1.1-.8c0-.3.1-.5.1-.8v-.8c0-.3 0-.5-.1-.8 0-.1 0-.3-.1-.4s-.1-.3-.1-.4c-.1-.2-.3-.5-.4-.7-.6-.3-1.1-.6-1.6-.7z" fill="#187aa2"/><path d="m15.5 138s3.2.2 2.9-5.1c0 0-4.6 2.5-2.9 5.1z" fill="#bedae6"/><path d="m15.5 138c.5 0 1.1-.2 1.5-.6.2-.2.4-.4.5-.6.1-.1.1-.2.2-.3s.1-.2.2-.4.1-.5.2-.8c0-.3.1-.5.1-.8v-1.6l.3.2c-.4.3-.9.6-1.3 1-.4.3-.8.7-1.1 1.1-.1.1-.2.2-.2.3-.1.1-.1.2-.2.3l-.2.3c0 .1-.1.2-.1.4-.1.1 0 .3 0 .4v.4c0 .1 0 .3.1.4zm0 .1-.2-.4c-.1-.1-.1-.3-.2-.4 0-.1-.1-.3-.1-.4v-.4c0-.1 0-.3.1-.4l.1-.4c.1-.1.1-.3.2-.4s.2-.2.2-.4l.6-.6.6-.6c.4-.3.9-.7 1.4-.9l.3-.1v1.1c0 .3 0 .6-.1.8 0 .3-.1.6-.1.8-.1.3-.1.5-.3.8-.1.1-.1.3-.2.4s-.1.2-.2.4l-.6.6c-.4.3-.9.5-1.5.5z" fill="#187aa2"/><path d="m15.6 138.3s-3 1.1-4.3-4.1c0 0 5.1 1 4.3 4.1z" fill="#bedae6"/><path d="m15.6 138.3c-.5.2-1.1.2-1.7 0-.3-.1-.5-.2-.8-.4l-.3-.3-.3-.3c-.2-.2-.3-.5-.5-.7-.1-.2-.3-.5-.4-.8s-.2-.5-.3-.8l-.2-.8-.1-.2h.3c.6.1 1.1.2 1.6.4.3.1.5.2.8.4.2.1.5.3.7.5l.3.3.3.3.3.4c.1.1.1.3.2.4s.1.3.1.4zm0 0v-.4-.4c0-.1 0-.3-.1-.4s-.1-.2-.2-.3-.1-.2-.2-.3l-.3-.3-.3-.3c-.1-.1-.2-.1-.3-.2-.4-.3-.9-.5-1.4-.7s-1-.4-1.5-.5l.2-.2.2.8c.1.3.2.5.3.8s.2.5.3.7.3.5.4.7l.3.3.3.3c.2.2.4.3.7.4.5.1 1 .1 1.6 0z" fill="#187aa2"/><path d="m15.6 138.3s-2.9-1.5-4.7 3.5c-.1 0 5.1-.3 4.7-3.5z" fill="#bedae6"/><path d="m15.6 138.4c-.5-.2-1.1-.2-1.6-.1-.3.1-.5.2-.7.3-.1.1-.2.2-.3.2l-.3.3c-.2.2-.3.4-.5.6-.1.2-.3.5-.4.7s-.2.5-.4.7l-.3.8-.2-.3c.5-.1 1.1-.2 1.6-.3s1-.3 1.5-.5c.1-.1.2-.1.3-.2s.2-.1.3-.2l.3-.3c.1-.1.2-.2.2-.3.1-.1.1-.2.2-.3s.1-.2.1-.4c0-.1.1-.3.1-.4zm0-.1.1.4v.4c0 .1 0 .3-.1.4s-.1.3-.2.4-.2.3-.2.4l-.3.3-.3.3c-.1.1-.2.2-.4.2-.3.1-.5.3-.8.4s-.5.2-.8.3c-.6.1-1.1.2-1.7.2h-.3l.1-.3.3-.7c.1-.3.3-.5.4-.7s.3-.5.5-.7l.6-.6.3-.3c.1-.1.2-.2.4-.2.3-.1.5-.2.8-.3.5-.2 1.1-.1 1.6.1z" fill="#187aa2"/><ellipse cx="15.9" cy="138.3" fill="#004e6e" rx=".9" ry=".9" transform="matrix(.82729634 -.56176576 .56176576 .82729634 -74.942409 32.797376)"/></g><path d="m120 155.3-23.7.1 35.7-37.2s11.7-13.9 23.3-.9z" fill="#187aa2"/><path d="m149.8 17.1s-3.1 14.3 2.5 23.7l6.3-1.2-5.8-17.7z" fill="#004e6e"/><path d="m163.4 131s30.1 8.1 48.4 1.6c0 0-2.5-10.6-2.7-37.7l5.8-.1c-.5-44.7-30.8-45.5-30.8-45.5l-20.1 12.7c-15.3 10.4-14.4 32.7-14.4 32.7l13.7-.3s-.4.7 1.6 3.6c2.1 2.9 2.5 17.8-1.5 33z" fill="#98c6d9"/><path d="m183.3 41c3.5-5.5 3.6-13.3-.3-20.2-5.3-9.2-16-13-23.9-8.5s-9.9 15.7-4.6 24.9c4.1 7.1 11.4 11 18.1 10.3-.4 6.5-3.1 14.4-3.1 14.4l11 6.3 9.9-18.7c-3.3-.8-5.7-5.1-7.1-8.5z" fill="#c3c4c7"/><ellipse cx="154.7" cy="32.8" fill="#004e6e" rx="1" ry="1.6" transform="matrix(.94410053 -.32965769 .32965769 .94410053 -2.158939 52.82202)"/><ellipse cx="163.6" cy="30.9" fill="#004e6e" rx="1" ry="1.6" transform="matrix(.94410053 -.32965769 .32965769 .94410053 -1.034748 55.671751)"/><path d="m169 59.9c1 .7 1.8 1.6 2.6 2.5l2.5 2.6 5 5.3-1.1.1c1.7-3.1 3.4-6.2 5.2-9.2s3.4-6.2 5.5-9c.1-.1.2-.1.3 0s.1.2.1.2c-1.3 3.3-3.1 6.3-4.7 9.4-1.7 3.1-3.4 6.2-5.1 9.2-.2.3-.6.4-.9.3-.1 0-.1-.1-.2-.1l-4.9-5.3-2.5-2.7c-.8-.9-1.7-1.8-2.3-2.8-.1-.2-.1-.5.1-.6 0 0 .2 0 .4.1z" fill="#fff"/><path d="m149.5 26.1s-2.9-18 12.1-23.6c15.1-5.6 25.6 8.5 27 18.2 2.1 14.8 7.8 20.9 14.8 25.3 7.1 4.4 3.2 16.6 3.2 16.6s-3.6-4.6-15-8.9c-.6-.2-3.1-1.3-4.2-2.2-4.9-4.1-6.9-7.4-7-16.6 0 0 3.7-2.4 2.4-7.7 0 0-12.7 8.3-26.7-10.7 0-.1-.8 5.7-6.6 9.6z" fill="#004e6e"/><path d="m155.4 28.6s-.1.1-.2.1h-.5c-.2 0-.4 0-.7.1-.3 0-.5.1-.8.2-.2.1-.5.2-.7.3s-.4.3-.5.4c-.2.1-.3.2-.4.3s-.2.1-.2.1c-.1 0-.2 0-.3-.1v-.3c0-.2.1-.4.2-.6l.3-.3c.1-.1.2-.2.4-.3.3-.2.6-.4.9-.5.6-.3 1.3-.3 1.8-.3.2 0 .5 0 .6.1l.2.2c.1.1.1.4-.1.6zm4 5s.2.3.4.7.5 1 .7 1.5c.2.6.5 1.1.6 1.6.1.4.2.7.2.7 0 .2-.1.4-.3.4-.1 0-.3 0-.3-.1 0 0-.2-.3-.4-.7s-.5-1-.7-1.5c-.2-.6-.4-1.1-.6-1.6-.1-.4-.2-.7-.2-.7 0-.2.1-.4.2-.4.1-.1.3 0 .4.1zm0-6.9s0-.2.1-.3.3-.3.6-.4c.5-.3 1.2-.6 1.9-.6h1.1c.3 0 .6.1.9.2s.4.2.6.3l.2.2c.1.1.1.2 0 .3h-.1s-.1 0-.3.1h-.6c-.2 0-.5-.1-.8-.1h-.9c-.3 0-.6.1-.9.2s-.5.2-.7.3-.3.2-.5.3h-.2c-.1.1-.3.1-.5 0s0-.4.1-.5z" fill="#004e6e"/><path d="m119.1 38.6c-.1-.3 0-.4.3-.4l22.7 5.2c.3.1.7 0 .9-.2l3.8-3.2c.2-.2.6-.4.9-.4l24.8-5.2c.3-.1.6.1.7.4l14.2 35.4c.1.3 0 .5-.3.6l-23.5 3c-.3 0-.7.2-.9.5l-3.1 3.3c-.2.2-.6.4-.9.3l-23.4-3.9c-.3 0-.6-.3-.7-.6z" fill="#8e9196"/><path d="m156.7 74.9c-.8-1.2-1.3-2.5-2-3.8l-1.8-3.9-3.6-7.8-3.6-7.8-1.8-3.9c-.3-.7-.6-1.3-.9-2s-.6-1.3-.9-2c-.1-.2 0-.3.1-.5 1-.8 2-1.6 3.1-2.3.1-.1.2 0 .2 0v.2c-.9.9-1.8 1.8-2.8 2.7l.1-.5c.3.6.6 1.3 1 1.9.3.6.6 1.3.9 1.9l1.8 3.9 3.6 7.8 3.6 7.8 1.8 3.9c.6 1.3 1.2 2.6 1.6 4 .1.2 0 .4-.2.4 0 .2-.1.1-.2 0zm4.9-3.7s-.3-.4-.7-1.1-1-1.7-1.6-3c-.3-.6-.7-1.3-1-2.1-.3-.7-.6-1.5-.9-2.4-.3-.8-.7-1.7-1-2.5-.4-.8-.8-1.7-1.3-2.5s-.9-1.6-1.3-2.5l-1.2-2.4c-.8-1.6-1.4-3.1-2-4.4-.5-1.3-.9-2.4-1.2-3.2s-.4-1.2-.4-1.2v-.1h.1s.3.4.7 1.1 1 1.7 1.7 3c.7 1.2 1.4 2.7 2.1 4.3.4.8.7 1.6 1.1 2.5s.7 1.7 1 2.6.7 1.8 1.1 2.6.8 1.6 1.3 2.4c.4.8.9 1.5 1.2 2.2.4.7.7 1.4 1 2.1.6 1.3 1 2.4 1.3 3.2 0 .9.1 1.4 0 1.4.1 0 .1 0 0 0zm-3.8-23.5c.4.8.9 1.7 1.3 2.5.4.9.9 1.7 1.3 2.6l-.5-.3 3.3-.8 1.6-.4c.5-.1 1.1-.2 1.6-.4l6.6-1.4-.6 1.2c-.2-.5-.4-1-.6-1.4l-.6-1.5-1.2-2.8.9.5c-1.1.2-2.2.5-3.3.7l-3.3.6-3.3.6c-1 0-2.1.2-3.2.3zm-.1 0 13-3.1s.1 0 .1.1l2.4 5.8s0 .1-.1.1l-13.2 2.5h-.1z" fill="#004e6e"/><path d="m142.2 42.5c-.9-.1-1.7-.4-2.6-.7l-2.5-.8-5.1-1.7-5-1.7c-1.7-.6-3.4-1.1-5-1.8l.5-.1c-.4.4-.9.7-1.3 1.1s-.9.7-1.4 1l-.2-.2c.4-.4.7-.9 1.1-1.3l1.2-1.2.2-.2.3.1c1.7.5 3.4 1.1 5.1 1.6l5.1 1.7 5 1.7 2.5.9c.8.3 1.7.5 2.5 1zm1.2-1c-.8-.2-1.5-.6-2.2-1l-2.1-1.1-4.2-2.2-4.2-2.3c-1.4-.8-2.8-1.5-4.2-2.3l.7-.4c0 .6-.1 1.2-.2 1.7-.1.6-.2 1.2-.3 1.7h-.3c-.1-.6-.1-1.2-.1-1.7v-2.4l.7.3c1.4.7 2.8 1.5 4.2 2.2l4.2 2.2 4.2 2.3 2.1 1.1c.7.4 1.4.7 2 1.3zm-12.3-11.6s.3.1.7.3.9.7 1.6 1.1c1.3.9 3.1 2.2 4.8 3.4.9.6 1.7 1.3 2.5 1.9s1.6 1.2 2.2 1.7c1.3 1 2 1.8 2 1.8l-.2.3s-1-.4-2.4-1.3c-.7-.4-1.4-1-2.3-1.6-.8-.6-1.7-1.2-2.6-1.8-1.8-1.3-3.5-2.5-4.8-3.5-.6-.5-1.2-.9-1.6-1.2s-.5-.6-.5-.6z" fill="#787c82"/><path d="m211 127.4s7 20.2-8.6 28.7-50.7-19.9-50.7-19.9l-26.1 19.8-21.4-.4 35.7-35.5s9-10.5 19-4.1c16.4 10.4 52.1 11.4 52.1 11.4z" fill="#187aa2"/><g fill="#004e6e"><path d="m103.8 155.4c3.1-3.3 6.4-6.4 9.6-9.6l9.7-9.5 19.4-18.9-.1.1c1.1-1.2 2.4-2.1 3.8-2.8s3-1.1 4.5-1.2c1.6-.1 3.1.1 4.6.5s2.9 1 4.3 1.7 2.6 1.5 3.9 2.2c1.3.6 2.7 1.2 4 1.7 2.7 1 5.6 1.9 8.4 2.6 2.9.7 5.7 1.4 8.6 1.9l8.7 1.5c2.9.4 5.9.8 8.8 1.1s5.9.6 8.8.7c.1 0 .2.1.2.2s-.1.2-.2.2c-3 .1-6 0-8.9-.2-3-.2-5.9-.5-8.9-.9-2.9-.4-5.9-.8-8.8-1.3s-5.8-1.2-8.7-1.9-5.8-1.6-8.6-2.6c-1.4-.5-2.8-1.1-4.1-1.8-1.4-.7-2.6-1.5-3.9-2.2-2.5-1.3-5.4-2.2-8.2-2-1.4.1-2.8.5-4 1.1s-2.5 1.5-3.3 2.4l-19.4 18.8-9.7 9.4c-3.3 3.1-6.5 6.3-9.9 9.3-.2.1-.4.1-.6 0-.2-.2-.2-.4 0-.5z"/><path d="m126.4 155.2.3-.3.9-.9c.8-.7 2-1.6 3.4-2.8 1.4-1.1 3-2.5 4.8-3.9s3.6-2.9 5.5-4.4 3.8-3 5.5-4.4c1.8-1.4 3.4-2.7 4.8-3.8s2.7-2 3.5-2.6c.9-.6 1.4-.9 1.4-.9.1-.1.2 0 .3.1s0 .2 0 .3l-1.2 1.2c-.8.7-1.9 1.7-3.3 2.9s-3 2.5-4.8 3.9-3.6 2.9-5.5 4.4-3.8 3-5.5 4.4c-1.8 1.4-3.4 2.7-4.8 3.8s-2.6 2.1-3.4 2.7c-.4.3-.8.5-1 .7l-.4.2c-.2.1-.5 0-.6-.2-.1-.1 0-.3.1-.4z"/><path d="m152 135.1s.4.2 1.1.6c.6.4 1.5 1.1 2.6 1.9 2.2 1.6 5.1 3.6 8 5.7 1.5 1 2.9 2 4.3 3 1.4.9 2.7 1.8 3.8 2.5s2 1.4 2.6 1.9 1 .8 1 .8c.1.1.1.2 0 .3s-.2.1-.2.1-.4-.2-1.1-.5-1.7-.8-2.9-1.5-2.5-1.5-3.9-2.4-2.9-1.9-4.4-2.9-2.9-2.1-4.3-3.1c-1.3-1-2.6-1.9-3.7-2.7s-2-1.5-2.6-2-.9-.9-.9-.9c-.1-.2-.1-.5.1-.6.3-.2.4-.2.5-.2zm42.9.9s.1 0 .1.1l.3.3c.2.3.5.7.9 1.2s.9 1 1.5 1.6c.6.5 1.2 1.1 1.9 1.6.3.3.7.5 1 .7s.7.4 1 .6.7.4 1 .5c.3.2.6.3.9.4s.5.3.8.4l.6.3c.3.2.5.3.5.3.1.1.1.2 0 .3 0 .1-.1.1-.2.1h-.6c-.2 0-.4 0-.7-.1-.3 0-.6-.1-.9-.2s-.7-.2-1-.4c-.4-.2-.7-.3-1.1-.5s-.8-.4-1.1-.6c-.4-.2-.8-.5-1.1-.8-.4-.3-.7-.5-1.1-.8l-.9-.9c-.6-.6-1.1-1.2-1.5-1.7s-.7-1-.9-1.4c-.1-.2-.1-.3-.2-.5v-.3c0-.3.3-.4.5-.4.1.1.2.1.3.2z"/></g><path d="m177 29.6s-.2-4.7 3.3-4.5c3.6.3 4.9 10.3-2.2 11.4zm23.3 73.6-.1-8.2 14-.1c0 19.9-8.9 20.1-8.9 20.1-21.8 3.4-29.1-34.9-29.1-34.9-11.7-.8-11.1-13.4-11.1-13.4s-.1-2.6 2-3.4c2.3-.8 2.5 1.2 2.5 1.2.9 4.4 7.4 7.5 9 7.3 1.4-.2 1.6-.2 1.6-.2l2.6-.3s.8 2.2-.1 7.2c0 0 .6 3.4 3.5 5.6 4.3 2.9 13.2 6.3 14.1 19.1z" fill="#c3c4c7"/><path d="m180.8 36.1c.2 1.5.5 3 .8 4.4.4 1.4.9 2.9 1.5 4.2 1.2 2.7 3.1 5.1 5.4 6.9 1.2.9 2.5 1.6 3.8 2.2.7.3 1.4.5 2.1.7s1.5.4 2.2.7c1.5.5 3 1.1 4.3 2 1.4.8 2.6 1.8 3.8 2.8 2.3 2.2 4.1 4.8 5.5 7.6s2.3 5.8 3 8.9c1.4 6.1 1.8 12.3 1.9 18.4 0 .4-.3.6-.6.6-2.5 0-5 0-7.5-.1h-1.9c-.6 0-1.3-.1-1.9-.1-1.3-.1-2.5-.1-3.8-.3-.1 0-.2-.1-.2-.2s.1-.2.2-.2c1.3-.1 2.5-.2 3.8-.3.6 0 1.3-.1 1.9-.1h1.9c2.5-.1 5 0 7.5-.1l-.5.9c-.1-6.1-.6-12.2-2-18.1-.7-2.9-1.6-5.8-2.9-8.6-1.3-2.7-3-5.2-5.2-7.3-1.1-1-2.3-1.9-3.5-2.7-1.3-.8-2.7-1.4-4-1.8-.7-.3-1.5-.4-2.2-.7-.8-.2-1.5-.5-2.2-.8-1.5-.6-2.9-1.4-4.1-2.4-2.5-1.9-4.5-4.6-5.8-7.4-.7-1.4-1.2-2.9-1.5-4.5-.3-1.5-.6-3.1-.5-4.7 0-.2.2-.4.4-.4.1.1.3.2.3.5zm-11.5 27.1s.1.2.3.5c.1.2.1.4.2.6s.2.5.4.8c.1.3.3.6.5.9s.4.6.7.9c.2.3.5.6.8.9s.6.6.9.8.7.5 1 .7c.4.2.7.4 1 .6.4.2.7.4 1 .5s.6.3.9.4.6.3.8.4l.6.3c.3.2.5.3.5.3.1 0 .1.2.1.2 0 .1-.1.1-.1.1h-.6c-.4-.1-1-.1-1.6-.3-.3-.1-.7-.2-1-.4-.4-.2-.7-.3-1.1-.5s-.7-.4-1.1-.6-.7-.5-1.1-.8c-.3-.3-.7-.6-1-.9s-.6-.6-.9-1c-.3-.3-.5-.7-.7-1s-.4-.7-.5-1c-.3-.6-.5-1.2-.6-1.6s0-.7 0-.7c0-.2.1-.4.3-.4.1 0 .3.1.3.3zm13.7 7.6c.5 1.3.7 2.6.7 3.9 0 .7 0 1.3-.1 2-.1.3-.1.7-.2 1s-.2.7-.3 1v-.3c.1.6.4 1.2.6 1.7.3.6.6 1.1 1 1.6s.9.9 1.4 1.3 1.1.8 1.6 1.1c2.3 1.4 4.7 2.8 6.7 4.7s3.6 4.3 4.6 6.9c.5 1.3.9 2.6 1.2 3.9s.5 2.7.5 4.1c0 .1-.1.2-.2.2s-.2-.1-.2-.1l-.5-2c-.2-.7-.3-1.3-.5-1.9-.3-1.3-.8-2.5-1.3-3.8-1-2.4-2.5-4.7-4.4-6.5s-4.3-3.1-6.5-4.6c-.6-.4-1.1-.7-1.7-1.2-.6-.4-1.1-.9-1.5-1.5l-1.2-1.8c-.3-.6-.6-1.3-.7-2.1v-.3l.3-.9c.1-.3.1-.6.2-.9.1-.6.1-1.2.1-1.9 0-1.3-.2-2.5-.4-3.8 0-.2.1-.3.3-.4.3.4.5.5.5.6zm-17-6.9s.1.1.2.4c.1.2.1.6.2 1 .2.8.6 1.9 1.1 2.8.2.5.5 1 .8 1.4.2.2.3.4.4.6.2.2.3.3.4.5l.4.4.3.3.3.3c.1.1 0 .1 0 .2h-.1s-.1 0-.4-.1c-.1 0-.3-.1-.5-.2s-.3-.2-.5-.3c-.4-.3-.7-.7-1.1-1.1-.2-.2-.3-.5-.5-.7-.1-.3-.3-.5-.4-.8-.3-.5-.5-1.1-.7-1.6s-.3-1-.4-1.4-.2-.8-.2-1c0-.3.1-.4.1-.4.1-.2.3-.2.4-.2.1-.2.1-.2.2-.1z" fill="#004e6e"/><path d="m163.8 96.1-.9-1.8h-7.3l.3 1.8c-.5-2.5-1-2.7-4.2-7.2-.2-.3-.8-1.4-1.4-2-1.3-1.2-2-2.6-1.5-6.6.5-3.2-.8-3.9-.8-3.9l-2.6-1.2s-6.9-2.7-7-7.3c0-2.4-3.6-2.4-3.6.7 0 0-.9 8.9 7.7 11.6 0 0-.8 33.2 14.4 33.2 0 0 8.8.7 8.8-9.8z" fill="#c3c4c7"/><path d="m156.3 105.5s0-.2.1-.5c0-.2.1-.4.1-.6s.1-.5.1-.8c.1-.3.1-.6.1-.9.1-.3.1-.7.1-1.1 0-.8 0-1.7-.2-2.6-.4-1.9-1.3-4-2.7-6.1-.7-1-1.5-2.1-2.3-3.1-.8-1.1-1.6-2.2-2.3-3.4s-1.2-2.6-1.2-4.1c0-.7.1-1.4.1-2v-1.8c-.1-.6-.2-1.2-.4-1.6-.1-.1-.1-.2-.2-.2l-.2-.1c-.3-.1-.6-.2-.8-.3-1.1-.5-2.1-1-2.9-1.6-1.8-1.1-3-2.4-3.7-3.4-.4-.5-.6-.9-.7-1.2s-.2-.5-.2-.5c0-.1 0-.2.1-.2s.2 0 .2.1c0 0 .1.1.3.4s.4.6.8 1.1c.4.4.9.9 1.5 1.4s1.4 1 2.2 1.5 1.8 1 2.9 1.4c.3.1.5.2.8.3l.2.1c.2.1.3.1.4.2.2.2.3.3.4.5.4.7.5 1.3.6 2 .2 1.3 0 2.7 0 3.9s.5 2.4 1.1 3.6c1.3 2.3 3.1 4.3 4.5 6.5 1.4 2.1 2.5 4.4 2.8 6.5.2 1 .2 2 .2 2.9s-.1 1.6-.3 2.2c-.1.6-.3 1.1-.4 1.3-.1.3-.2.5-.2.5-.1.2-.3.3-.4.2-.4-.2-.5-.4-.5-.5zm7.9-23.6s-.1.6-.3 1.6-.5 2.5-.6 4.3.1 3.9.7 6c.2.5.3 1.1.6 1.6.1.3.2.5.3.8l.3.8c.2.5.4 1.2.6 1.8s.3 1.2.4 1.8c.2 1.2.4 2.5.5 3.7s.2 2.4.2 3.6v3.4c0 1.1-.1 2.1-.2 3s-.2 1.8-.3 2.5-.2 1.4-.4 1.9c-.2 1.1-.4 1.7-.4 1.7 0 .1-.1.2-.3.1-.1 0-.2-.1-.2-.2v-.4-1.2c.1-1.1.1-2.6.2-4.4s.2-4 .1-6.2c0-1.1-.1-2.3-.2-3.5s-.3-2.4-.5-3.5c-.1-.6-.3-1.2-.4-1.7-.2-.6-.3-1.1-.5-1.7l-.3-.8c-.1-.3-.2-.6-.3-.8-.2-.6-.4-1.1-.6-1.7-.7-2.3-.8-4.5-.7-6.4s.4-3.5.7-4.5c.2-.5.3-.9.5-1.2.1-.3.2-.4.2-.4.1-.2.4-.3.6-.1.2-.2.3-.1.3.1zm-28.9-16.3s.1.1.1.4c0 .2 0 .6.1 1 0 .4.1.9.2 1.4s.2 1.1.4 1.6c.1.3.2.5.3.8s.2.5.4.7c.1.2.3.4.4.6.2.2.3.3.4.5.2.1.3.3.4.4l.3.3.3.3c.1.1.1.1 0 .2h-.1s-.2 0-.4-.1c-.1 0-.3-.1-.5-.2l-.6-.3c-.2-.2-.4-.3-.6-.5s-.3-.4-.5-.7c-.1-.3-.3-.5-.4-.8s-.3-.6-.3-.9c-.2-.6-.3-1.2-.4-1.7-.1-.6-.2-1.1-.2-1.5 0-.5-.1-.8 0-1.1 0-.3.1-.4.1-.4.1-.2.3-.2.4-.1.2 0 .2.1.2.1z" fill="#004e6e"/><path d="m37.9 158.4s11.1-2.6 25.5-5c-.4-.6-1.8-2.4-2.3-3.1 0 0 2.4-.1 5 1.6 0 0-.4-3.8 2.4-7.2 0 0 .7 5.8 1.9 6.9 0 0 1.5-.9 2.7-4 0 0 .5 1.8.4 4.3 14-1.9 22.9-4 35.8-3.7l-.4-2s1.9-.1 2.9 1.5c0 0 .7-3.1 4.6-4.3l-1 4.9c4.7.4 10.4 1.2 16.5 2.4 27.9 5.3 54.3-3 102.3 3.6l.3-2.6 1.9 3.1 3.9-4.6-.9 5c6.3 1 13 2.3 20.1 4" fill="#fff"/><path d="m37.9 158.3c8.5-2 17-3.6 25.5-5.1l-.1.2-2.3-3.1-.1-.2h.2c.9 0 1.8.2 2.6.5s1.7.7 2.4 1.2l-.2.1c0-.7 0-1.3.1-2 .1-.6.2-1.3.5-1.9.2-.6.5-1.2.8-1.8.1-.3.3-.6.5-.8.2-.3.4-.5.6-.8l.2-.3v.4c.2 1.2.4 2.4.6 3.5.1.6.3 1.2.5 1.7.1.3.2.6.3.8.1.1.1.3.2.4s.2.2.2.3h-.2c.1-.1.3-.2.4-.4l.4-.4c.3-.3.5-.6.7-1 .4-.7.8-1.4 1-2.2l.2-.5.1.5c.2.7.3 1.4.4 2.2.1.7.1 1.5 0 2.2l-.2-.2c6-.8 11.9-1.9 17.8-2.7 1.5-.2 3-.4 4.5-.5 1.5-.2 3-.3 4.5-.4s3-.2 4.5-.2h4.5l-.3.3-.4-2-.1-.3h.8c.2 0 .3 0 .5.1l.9.3c.6.3 1 .7 1.3 1.2l-.5.1c.1-.3.2-.6.3-.8.1-.3.3-.5.4-.7.3-.5.7-.9 1.1-1.3s.9-.7 1.4-1 1-.5 1.6-.7l.5-.1-.1.5-1 4.9-.3-.3c5 .4 9.9 1.2 14.8 2.1 1.2.2 2.4.4 3.7.6 1.2.2 2.5.4 3.7.6 2.5.3 4.9.6 7.4.7 2.5.2 4.9.2 7.4.3 2.5 0 5 0 7.4-.1 2.5-.1 5-.1 7.4-.2l7.4-.3 7.4-.2c2.5 0 5-.1 7.5-.1s5-.1 7.5 0c2.5 0 5 0 7.5.2 2.5.1 5 .2 7.4.4 2.5.2 5 .3 7.4.6 2.5.3 5 .4 7.4.8l7.4.9-.3.3.3-2.6.1-.8.4.7 1.8 3.2h-.4l3.9-4.6.5-.6-.1.8-.9 5-.2-.2c6.8 1.1 13.5 2.5 20.1 4.2v.1c-6.7-1.5-13.4-2.8-20.1-3.8h-.2v-.2l.8-5 .4.2-3.9 4.6-.2.3-.2-.3-1.9-3.1.5-.1-.2 2.6v.3h-.3l-7.4-.9c-2.5-.3-4.9-.5-7.4-.7s-4.9-.3-7.4-.5-5-.2-7.4-.3c-2.5-.1-5-.1-7.4-.2-2.5-.1-5 0-7.4 0-2.5 0-5 .1-7.4.1l-7.4.2c-5 .2-9.9.4-14.9.4-2.5.1-5 0-7.5 0-2.5-.1-5-.1-7.5-.3-2.5-.1-5-.4-7.4-.7-1.2-.2-2.5-.4-3.7-.6s-2.5-.4-3.7-.6c-4.9-.9-9.8-1.7-14.7-2.1h-.3l.1-.3 1-4.9.4.3c-.5.2-1 .3-1.5.6-.5.2-.9.6-1.3.9s-.7.8-1 1.2c-.1.2-.3.4-.4.7-.1.2-.2.5-.3.7l-.2.6-.3-.5c-.3-.4-.7-.8-1.1-1.1-.2-.1-.5-.2-.7-.3-.3-.1-.5-.1-.8-.1l.2-.3.4 2 .1.3h-4.8c-1.5 0-3 .1-4.5.2s-3 .2-4.5.4-3 .3-4.5.5c-6 .8-11.9 1.8-17.8 2.6h-.2v-.2-2.1l-.3-2.1h.3c-.3.8-.6 1.5-1.1 2.2-.2.4-.5.7-.7 1-.1.2-.3.3-.4.5-.2.1-.3.3-.5.4l-.1.1-.1-.1c-.1-.1-.2-.3-.3-.4s-.2-.3-.2-.4l-.3-.9c-.2-.6-.3-1.2-.5-1.8-.3-1.2-.5-2.4-.6-3.6l.3.1c-.2.3-.4.5-.6.8s-.4.5-.5.8c-.3.6-.6 1.1-.8 1.8-.4 1.2-.6 2.5-.5 3.8v.3l-.2-.1c-.7-.5-1.5-.9-2.3-1.2s-1.7-.5-2.6-.5l.1-.2 2.3 3.1.1.1h-.2c-8.5.9-17.1 2.5-25.5 4.3z" fill="#bedae6"/><g opacity=".35"><path d="m251.9 135.6s.4-6.3 7.7-4.9c6.8 1.3 9.9.1 12.6-2.6 2.1-2.1-3 15.2-15.2 13-.1 0-5.3-.8-5.1-5.5z" fill="#bedae6"/><path d="m251.8 135c.1-.4.2-1 .6-1.7.3-.7.9-1.5 1.9-2.1.9-.6 2.2-.9 3.5-.9s2.7.4 4.2.6 3 .2 4.6 0c1.6-.3 3.1-.9 4.4-2 .3-.3.6-.5.9-.8l.1-.1.1-.1c.1 0 .1-.1.3-.1.1 0 .1 0 .2.1.1 0 .1.1.1.1.1.4.1.5.1.8-.1.9-.4 1.7-.8 2.5-.7 1.6-1.6 3.1-2.6 4.5s-2.2 2.6-3.6 3.6c-1.3 1-2.8 1.6-4.3 2-1.5.3-2.9.3-4.2.1s-2.5-.7-3.4-1.3-1.5-1.4-1.8-2.1-.4-1.3-.4-1.7v-.6zm.2 1.1v.1c0 .4.1 1 .5 1.6.3.7.9 1.4 1.8 1.9.9.6 1.9 1 3.2 1.2s2.7.2 4.1-.2c1.4-.3 2.8-1 4.1-1.9 2.6-1.9 4.7-4.7 6-7.9.3-.8.6-1.6.7-2.4v-.5s.1.1.1 0l-.1.1-.1.1c-.3.3-.6.6-1 .9-1.3 1.1-3 1.8-4.6 2.1s-3.2.2-4.7 0-2.9-.5-4.1-.6c-1.3 0-2.4.2-3.2.8-.8.5-1.4 1.3-1.7 1.9s-.5 1.2-.6 1.6-.1.6-.1.6z" fill="#187aa2"/><path d="m266.3 134s-9.8 5.6-17.7 2.7" fill="#bedae6"/><path d="m266.3 134s-1 .6-2.6 1.3c-.8.3-1.7.7-2.8 1.1-.5.2-1.1.3-1.6.5s-1.1.3-1.7.4-1.1.2-1.7.3-1.1.2-1.7.2c-.5 0-1.1.1-1.6 0s-1-.1-1.4-.2l-1.2-.3-.9-.3c-.5-.2-.7-.3-.7-.3s.3.1.8.2c.2 0 .5.1.9.2.3 0 .7.1 1.2.1.4.1.9 0 1.4.1h1.5c.5 0 1.1-.1 1.6-.1.6-.1 1.1-.2 1.7-.2.6-.1 1.1-.2 1.7-.4.5-.1 1.1-.3 1.6-.4 1-.3 2-.7 2.8-1 1.7-.7 2.7-1.2 2.7-1.2z" fill="#187aa2"/><path d="m261.5 139.1-3.3-2.1" fill="#bedae6"/><path d="m261.5 139.1s-.9-.4-1.7-.9l-.6-.3c-.2-.1-.4-.3-.5-.4-.3-.3-.4-.5-.4-.5s.3 0 .6.2l.6.3c.2.1.4.3.6.4.6.6 1.4 1.2 1.4 1.2z" fill="#187aa2"/><path d="m262.5 133.2-1.4 3" fill="#bedae6"/><path d="m262.5 133.2s-.2.8-.5 1.6c-.1.2-.1.4-.2.6s-.2.3-.3.5c-.2.3-.4.4-.4.4s0-.2.1-.5c0-.2.1-.3.2-.5s.2-.3.3-.5c.3-.9.7-1.6.8-1.6z" fill="#187aa2"/><path d="m257.6 133.1-2 4.4" fill="#bedae6"/><path d="m257.6 133.1s-.4 1.1-.8 2.3c-.1.3-.2.6-.3.8-.1.3-.3.5-.4.7-.2.4-.5.6-.5.6s0-.3.1-.8c.1-.2.1-.5.3-.7.1-.3.3-.5.4-.8.6-1.1 1.2-2.1 1.2-2.1z" fill="#187aa2"/></g></svg>
