<svg viewBox="0 0 214.8 84.3" xmlns="http://www.w3.org/2000/svg"><g fill="#8e9196" opacity=".25"><path d="m78.2 30.6c.4.4 1 .6 1.4.4.5-.2.9-.7 1-1.2s-.2-1-.6-1.3-1-.5-1.5-.5-1 .1-1.4.5c-.4.3-.7.8-.9 1.3-.4 1-.5 2.1.1 2.9.3.4.7.8 1.2 1 .2.1.5.2.7.3s.5.1.8.1c1.1.1 2.2 0 3-.6s1.2-1.6 1.3-2.7v-.8-.8c0-.5-.1-1.1-.3-1.5-.3-1-1-1.8-1.9-2.3-.9-.4-2-.6-3-.4-2.1.4-3.9 1.8-4.5 3.8-.7 2-.3 4.3.4 6.3.2.5.4 1 .6 1.6.2.5.4 1 .7 1.4.5.9 1.2 1.8 2 2.6 1.6 1.5 3.7 2.4 5.8 2.6 2.2.2 4.4-.1 6.5-.7s4.2-1.4 6.2-2.4 3.9-2.1 5.8-3.3 3.7-2.5 5.5-3.9c1.8-1.3 3.5-2.8 5.4-4s4-2.2 6.1-2.9c2.2-.7 4.4-1.1 6.6-1.3 2-.3 3.9-.3 5.8-.2s3.9.3 5.8.6 3.8.7 5.7 1.1l2.8.7 2.8.9c.9.3 1.8.6 2.7 1 .9.3 1.8.7 2.7 1.1l2.7 1.1c.9.4 1.7.8 2.6 1.3 1.8.8 3.4 1.8 5.1 2.7s3.3 1.9 5.1 2.7c3.4 1.7 7 3.1 10.7 4.1s7.5 1.5 11.3 1.5 7.6-.7 11.2-2c1.8-.6 3.6-1.4 5.3-2.3s3.3-1.9 4.9-3.1h.1v.1c-3 2.4-6.4 4.4-10 5.7-3.6 1.4-7.5 2.1-11.4 2.3-3.9.1-7.8-.4-11.5-1.3-3.8-.9-7.4-2.3-10.9-4-1.8-.8-3.4-1.8-5.1-2.8-1.7-.9-3.3-1.9-5.1-2.7-.9-.4-1.7-.9-2.6-1.2l-2.6-1.1c-.9-.4-1.8-.7-2.7-1.1-.9-.3-1.8-.7-2.7-1l-2.7-.9-2.8-.8c-1.9-.5-3.7-.9-5.6-1.2s-3.8-.5-5.7-.6-3.8-.1-5.7.1c-2.2.1-4.4.5-6.5 1.1s-4.1 1.6-6 2.7-3.6 2.6-5.4 3.9-3.6 2.6-5.5 3.8c-3.8 2.4-7.7 4.6-12.1 5.9-2.2.6-4.4 1-6.7.8s-4.6-1-6.3-2.6-2.9-3.7-3.5-5.8c-.7-2.1-1.1-4.5-.4-6.9.4-1.1 1.1-2.2 2-2.9s2-1.2 3.2-1.5c1.2-.2 2.4-.1 3.5.5 1.1.5 1.9 1.6 2.3 2.8.2.6.3 1.1.3 1.7v1.8c-.1 1.2-.6 2.4-1.6 3.1s-2.3.8-3.5.7c-.3 0-.6-.1-.9-.2s-.6-.2-.8-.4c-.5-.3-1-.7-1.3-1.2s-.5-1.1-.5-1.7.2-1.2.4-1.7.6-1 1.1-1.4 1.1-.5 1.7-.5 1.2.2 1.6.6c.2.2.4.4.6.7.1.3.2.6.1.9-.1.6-.6 1-1.1 1.3-.9.3-1.6.1-1.9-.4-.1 0-.1 0 0 0 0-.1 0-.1 0 0zm37.5 41 .4-.4c.3-.2.7-.5 1.5-.5.7.1 1.5.5 2 1.4.3.4.4 1 .3 1.6s-.5 1.2-1 1.6c-1 .9-2.5 1.2-4.1.8-.8-.2-1.5-.7-2-1.4-.3-.3-.5-.7-.7-1.1s-.4-.8-.5-1.2c-.3-.9-.4-1.8-.2-2.8s.7-1.9 1.5-2.6 1.6-1.3 2.7-1.6c1-.2 2.1-.3 3.2-.3 1.1.1 2.3.4 3.3 1.1s1.7 1.7 2.1 2.9.5 2.4.5 3.6-.2 2.5-.6 3.7-1 2.4-2 3.3-2.3 1.5-3.6 1.7-2.7.2-4-.1c-1.3-.4-2.5-.9-3.6-1.8-2.2-1.6-3.6-4.3-3.9-7-.3-2.8.2-5.6 1-8.2.4-1.3.9-2.7 1.7-3.9s1.8-2.2 3-3c2.4-1.6 5.3-2.3 8.2-2.4s5.7.2 8.5.7c2.8.6 5.5 1.5 8.1 2.4 5.2 2 10.2 4.3 14.9 6.9s9 5.3 13.1 8.1c1 .7 2 1.4 3 2s2 1.2 3 1.6c2 .9 4.1 1.6 6.2 1.9 4.1.6 8-.2 11.1-1.7 3.1-1.4 5.4-3.4 7.2-5 1.8-1.7 3-3.2 3.8-4.3s1.1-1.7 1.1-1.7h.1v.1s-.3.6-1.1 1.7c-.7 1.1-1.9 2.7-3.6 4.5s-4.1 3.8-7.2 5.3-7.2 2.5-11.5 1.9c-2.1-.3-4.3-.9-6.5-1.8-1.1-.5-2.1-1-3.2-1.6-1-.6-2-1.3-3-2-4-2.8-8.4-5.4-13-8s-9.6-5-14.7-7c-2.6-1-5.2-1.9-8-2.6-2.7-.6-5.5-1-8.3-.9s-5.6.6-8 2.2c-2.4 1.5-3.9 4-4.6 6.7-.8 2.6-1.3 5.4-.9 8.1.2 1.3.5 2.6 1.2 3.8.7 1.1 1.6 2.1 2.6 2.9 2.1 1.5 4.8 2.2 7.2 1.6 1.2-.2 2.3-.8 3.2-1.6.8-.8 1.4-1.8 1.8-3 .3-1.1.5-2.3.5-3.4s-.1-2.3-.5-3.3c-.3-1-1-1.9-1.8-2.5s-1.8-.9-2.8-1-2 0-3 .2c-.8.2-1.7.8-2.4 1.4s-1.1 1.4-1.3 2.2-.1 1.7.1 2.5.6 1.6 1 2.1c.5.6 1.1 1 1.7 1.2 1.3.4 2.8.1 3.7-.6 1-.7 1.2-1.9.7-2.7s-1.2-1.3-1.8-1.3c-.6-.1-1.1.2-1.4.4-.2.1-.3.3-.4.2.1.1.1.1 0 0z"/><path d="m38.9 57.9c-.1-1.2-.5-2.4-1.4-3.2s-2.3-.7-3.3-.2c-1 .6-1.7 1.6-2 2.8-.3 1.1-.1 2.4.6 3.2.7.9 1.8 1.4 3 1.6.6.1 1.2.2 1.7.2.6 0 1.2 0 1.7-.1 1.1-.2 2.2-.8 3.1-1.5.8-.8 1.5-1.8 1.8-2.9s.4-2.3.1-3.4-.9-2.1-1.7-2.9-1.9-1.3-3-1.7-2.3-.5-3.5-.6-2.3.1-3.5.4c-1.1.3-2.1.9-3 1.6-.8.8-1.5 1.8-1.9 2.8-.5 1-.8 2.2-1 3.3 0 1.9.5 3.9 1.4 5.6s2.3 3.2 3.8 4.4c3.1 2.4 6.9 3.9 10.7 5s7.8 1.6 11.8 1.8 8 0 11.9-.5c4-.5 7.9-1.3 11.7-2.5s7.5-2.8 10.8-5c1.7-1.1 3.1-2.4 4.6-3.8l4.3-4.1c2.9-2.8 5.9-5.5 9.1-7.9 3.2-2.5 6.6-4.7 10.2-6.5 1.8-.9 3.7-1.7 5.6-2.3 1.9-.7 3.9-1.2 5.9-1.5 2-.4 4-.6 6-.7h1.5c.6 0 1 .1 1.6.1 1 .1 2 .3 3 .5 4 .8 7.8 2 11.5 3.8 3.7 1.7 7 4 10.1 6.6s6.1 5.2 9.3 7.5c1.6 1.1 3.3 2.2 5.2 2.9 1.8.7 3.8 1.2 5.7.8 1.9-.3 3.7-1.5 5-2.9 1.4-1.5 2.4-3.2 3.3-5h.1v.1c-.9 1.8-1.9 3.6-3.2 5.1s-3.1 2.7-5.1 3.1-4.1 0-6-.8-3.6-1.8-5.3-2.9c-3.3-2.3-6.4-4.9-9.5-7.4s-6.4-4.7-10-6.4c-3.6-1.6-7.4-2.9-11.3-3.6-1-.2-2-.3-2.9-.4-.5 0-1-.1-1.4-.1h-1.5c-2 .1-3.9.3-5.9.7-3.9.7-7.7 2-11.2 3.8-3.6 1.7-6.9 3.9-10.1 6.3s-6.1 5.1-9.1 7.8l-4.4 4.1c-1.5 1.3-3 2.7-4.7 3.8-3.4 2.2-7.2 3.7-11 4.9s-7.8 2-11.8 2.4c-4 .5-8 .6-12 .4s-8-.7-11.9-1.7-7.7-2.4-11-4.9c-1.6-1.2-3.1-2.7-4.1-4.5s-1.6-3.9-1.6-5.9c.1-1.3.5-2.5 1-3.6s1.3-2.2 2.2-3.1 2.1-1.5 3.3-1.8 2.5-.4 3.8-.4c1.2.1 2.5.3 3.7.7s2.3 1 3.3 1.9c.9.9 1.6 2 1.9 3.3s.2 2.6-.1 3.8c-.4 1.2-1.1 2.3-2.1 3.2-1 .8-2.2 1.4-3.4 1.6-.6-.1-1.3-.1-1.8-.1-.6 0-1.2-.1-1.9-.3-1.2-.3-2.4-.8-3.2-1.9-.8-1-.9-2.5-.6-3.7.4-1.2 1.2-2.3 2.3-2.9s2.6-.6 3.6.3c.8.9 1.2 2.2 1.2 3.4.1 0 .1 0 0 0zm142.2-36.9s-.7-1.4-2.1-3.6c-.7-1.1-1.6-2.5-2.7-3.9-1.1-1.5-2.4-3.1-4-4.6-1.6-1.6-3.5-3.1-5.7-4.4-2.2-1.2-4.8-2.2-7.6-2.2-1.4 0-2.8.1-4.2.5s-2.8.9-3.9 1.8c-2.4 1.7-4.6 3.9-5.7 6.7s-.7 5.9.8 8.3c.6 1.3 1.7 2.2 2.9 2.9s2.6 1 3.9 1c2.7 0 5.3-1 6.9-2.8.8-.9 1.2-2 1.3-3.1s-.2-2.2-.6-3.2-1-1.8-1.8-2.4c-.8-.5-1.7-.8-2.6-.7-1.8 0-3.2.8-4.1 1.7s-1.3 1.9-1.4 2.6c0 .3-.1.6 0 .8v.4h-.1v-.3-.8c0-.7.3-1.8 1.3-2.8.9-1 2.4-2 4.4-2.1 1 0 2.1.1 3 .7 1 .6 1.7 1.6 2.1 2.7.5 1.1.8 2.3.8 3.6s-.6 2.7-1.5 3.8-2.1 1.8-3.5 2.4c-1.3.5-2.8.8-4.3.8-3 0-6.1-1.6-7.6-4.4-.7-1.3-1.2-2.9-1.3-4.4-.1-1.6.2-3.1.8-4.6.6-1.4 1.5-2.7 2.6-3.8 1-1.1 2.2-2.1 3.4-2.9 1.2-.9 2.6-1.5 4-1.9s2.9-.7 4.3-.7c2.9-.1 5.7.7 8 2s4.2 2.9 5.8 4.6c1.6 1.6 2.9 3.3 3.9 4.8s1.9 2.9 2.5 4.1c1.6 2 2.1 3.4 2 3.4.1 0 .1.1 0 0 .1.1 0 .1 0 0z"/></g><g opacity=".3"><path d="m124.62 55.548 19.436-7.12 4.608 12.584-19.437 7.118z" fill="#fff"/><path d="m127.09 56.772 15.682-5.743 3.267 8.92-15.683 5.743z" fill="#c3c4c7"/><path d="m135.5 63.8c-.5-1.5.3-2.9 1.8-3.5 1.5-.5 3-.1 3.6 1.5" fill="#fff"/><path d="m135.5 63.8s-.1-.1-.2-.3-.2-.6-.1-1.1c0-.2.1-.5.2-.7s.3-.4.5-.6c.4-.3.9-.6 1.4-.9.2-.1.5-.2.8-.3.3 0 .6-.1.9 0 .6.1 1.1.3 1.4.7.3.3.5.7.5.9.1.2.1.4.1.4s-.1-.1-.2-.3-.4-.4-.7-.6-.7-.4-1.1-.4c-.5-.1-.9-.1-1.5 0-.2.1-.5.1-.7.3-.2.1-.4.3-.5.5-.2.4-.4.8-.5 1.2s-.1.7-.1.9c-.2.1-.2.2-.2.3z" fill="#004e6e"/><ellipse cx="137.2" cy="59.6" fill="#f5efe4" rx="1.6" ry="1.3" transform="matrix(.94447391 -.32858643 .32858643 .94447391 -11.964438 48.40812)"/><path d="m135.9 58.8c-.1 0-.1 0 0 0-.1.1-.1.1 0 0-.1.1-.1.1 0 .2h-.1v.1s.1.1 0 .1c.1.1 0 0 0 .1h-.1v.1c.1 0 .1.1 0 .1v.1c-.1 0-.1.1-.1.1s.1.1 0 .1c.1 0 0 0 0 .1 0 0-.1 0 0 .1 0 0 .1 0 0 0s.1 0 0 .1c-.1 0 0 0 0 0 0 .1 0 .1.1.2h-.1v.1c.1 0 0 .1 0 .1s0 .1.1 0l.1.1h.1v.1s0 .1.1.1h.1c-.1.1 0 .1.1 0 0 .1 0 .1.1 0-.1.1 0 .3.1.2h.1v.1h.1v-.1.2h.1v-.1.1h.1v-.1.1h.1s0-.1 0 0h.1c0-.1 0 0 0 0h.1c0-.1.1 0 .1 0v-.1c.1.2.1 0 .2.1 0-.1 0-.1-.1-.2v.2h.1v-.1c.1.1 0 0 0 0-.1-.2 0-.1 0-.1v.1s.1 0 .1-.1v-.1l.1.1v-.1l-.1-.1c0 .1.1.1.1.1s0-.1-.1-.1c.1.2.1.1.1.1h.1c.1 0 0-.1.1-.1-.1-.1 0-.1 0-.1v-.1h.2s-.1-.1 0-.1l.1-.1v-.1-.1-.1-.1l.1-.1v-.1-.2c0-.1.1-.1.1-.1h-.1c-.1 0-.2 0-.2.1v.1h.1v.2s.1.1-.1.1c-.1 0-.1 0 0 .1v.3h-.1v.1s0 .1-.1.1v.1h-.1-.1-.1s0 .1.1.1c-.1-.1-.1 0 0 .1v-.1h-.1s0 .1.1.1c0 0 0-.1-.1-.1l-.1.1c0-.1 0-.1-.1-.1 0 0 0 .1-.1 0v.1-.1.1c-.1-.2-.2 0-.3-.1v.2s-.1-.3 0-.1h-.1v-.1s-.1.1-.1 0v.2-.2.1h-.1-.1s0 .1 0 0v.1h-.1v-.1-.1s0-.1-.1 0v-.1h-.1l-.1-.1h-.1c.1-.1-.1 0-.1-.1v-.1-.1s.1-.1 0-.1c0 0-.1 0-.1-.1s.1-.1 0-.2c0 0 .1 0 0 0h.2l-.1-.1c.1 0 0-.1.1 0 .1 0 0 0 .1-.1.1 0 0-.1.1-.1h.1v-.1h.1s0-.1.1 0c.1 0 .1 0 .1-.1.1.1.1 0 .1 0 .1 0 0-.1.1-.2.1 0 .2 0 .2-.1h.1v-.1l.1.1c.1-.1.1 0 .1-.1v-.3.3h.4s0-.2 0 0h.2s.1-.1.1 0v-.1c0 .1 0 .2.1.1v.1s0 .1 0 0c.1-.1.1 0 .1 0s0 .1.1 0c0 0 .1 0 0 0-.1.1 0 .1 0 .1l.1.1v.2s.1 0 .1.1c.1-.1.2 0 .3-.1 0 0 .1 0 .1-.1 0 0 .1 0 0 0v-.1l-.1-.1-.2.1c.2-.2.1-.1 0-.1 0 0 .1 0 .1-.1h-.1c.1-.1.1-.1 0-.1h-.1v-.1c.1-.1 0-.1 0-.1h-.1c-.1.1 0 0 0 0v-.1l-.1-.1v.1c-.1.1-.1 0-.2 0v-.1s0-.1-.1 0h-.1c0-.1-.1 0-.1.1v-.2c0 .1 0 .3-.1.4v-.4c0 .1-.1.2-.1.2v-.1s0-.1 0 0c0 0 0 .1 0 0v.2s0-.1 0 0v-.1c0 .1 0 0-.1.1v-.1.2c0 .1 0 .1 0 0s-.1-.2-.1-.2v.2c-.1-.1 0 0-.1 0 0 .1 0 .1-.1.1v.1s0 .1 0 0c-.1-.1-.1 0-.1 0s0 .1-.1.1c0 .1.1.1.1.2l-.1-.1v.1c-.1-.1 0 0 0 0h-.1v.1c-.8-.7-.9-.8-1-.7v-.1.1c.1.1.1.1 0 0z" fill="#f5efe4"/><g fill="#3c434a"><ellipse cx="136.9" cy="58.7" rx=".7" ry=".5" transform="matrix(.94447391 -.32858643 .32858643 .94447391 -11.697905 48.263379)"/><path d="m136.3 58.4s0 .1 0 0c0 .1 0 .1 0 0-.1.1 0 .1-.1.1s.1 0 0 0v.1c0 .1 0 .1 0 0-.1.1 0 .2 0 .1v.1h.1v-.1.1c0-.1 0 0 0 0v-.1c.1.1.1 0 .1.1v-.1c-.1-.1 0-.1 0-.1v.1h.1v-.1l-.1-.1s0 .1.1.1v-.1l.1.1c.1 0 0-.1.1 0 0-.1 0 0 0 0h.2l.1-.1v-.1s0-.1.1-.1h-.2-.1-.1v.1s-.1 0 0 0v.1c-.1-.1 0 0 0 0s0 .1 0 0v-.1.1c-.1-.1-.1 0-.1-.1v.1s0 .1 0 0v.2-.1s0 .1 0 0c0-.1 0 0 0 0h-.1s.1 0 0-.1h.1s-.1-.1-.1 0 .1 0 0 0c.1.1 0 0 0 0v-.1h.1s.1.1.1 0h.1v-.2.1s0-.1 0 0v-.1c0 .1 0 .1 0 0v.1c0-.1 0 0 0 0h.1c.1 0 .1 0 .2-.1h.1v-.1l-.1.1c.1-.1.1-.1 0-.1l.1-.1h-.1v-.1h-.1v-.1h-.1c-.1.1 0 0-.1 0v-.1s0-.1 0 0v-.1.1c0-.1 0 0-.1.1v-.1.1s0 .1 0 0v-.1s0-.1 0 0v.1-.1.2c0 .1 0 .1 0 0s-.1-.1-.1-.1v.1c0-.1 0 0 0 0 0 .1 0 .1 0 0v.1h-.1s0 .1 0 0c0 0 0 .1.1.1l-.1-.1c-.1-.1 0 0 0 0l-.2.4.1-.1-.1.1c.1-.1.1-.1 0 0 .1 0 .1 0 0 0 .1 0 .1-.1 0 0 .1-.1.1 0 0 0 .1 0 .1 0 0 0zm.5.7c0 .1 0 .1 0 0v.1c-.1.1-.1 0 0-.1-.1.1-.1.1 0 0z"/><ellipse cx="135.4" cy="57.8" rx=".3" ry=".4" transform="matrix(.94447391 -.32858643 .32858643 .94447391 -11.482069 47.720628)"/><path d="m135.7 57.5c0-.1-.1-.1 0 0-.1-.1-.1 0 0 0-.1 0-.1-.1 0 0-.1-.1-.1 0 0 0-.1-.1-.1-.1 0 0h-.1c-.1-.1 0-.1.1 0l-.1-.1s0 .1 0 0c-.1 0-.1 0 0 0-.1 0 0 0 0 0-.1-.1-.2 0-.1 0h-.1.1l-.1.1h.1c-.1 0 0 0 0 0 .1-.1.1 0 .1 0h-.1.1l.1-.1h-.1.1l-.1.1s.1 0 0 0v.1h.1s0 .1.1.1v-.3h-.1c.1-.1 0 0 0 0h-.1.1-.1.1s-.1 0 0 0c.1 0 0-.1.1-.1h-.1-.1.1s-.1 0 0 0h-.2.1s-.1 0 0 0h-.1.1v-.1s0 .1 0 0v.1s.1-.1 0-.1c-.1.1 0 0 0 0h.1s-.1.1 0 0h-.1.2-.1s.1 0 0 0c0 0 .1 0 0 0h.1c-.1 0-.1 0 0 0h-.1c-.1 0 0 0 0 0v.1c0 .1 0 .1.1.2v.1h.1l-.1-.1c.1.1.1.1 0 0l.1.1v-.1-.1h.1l-.1-.1h.1s.1 0 0 0h-.1.1-.3.3-.1-.1.1s-.1 0 0 0h-.1.2s.1 0 0 0h-.1.1-.1-.1c-.1 0-.1 0 0 0s.1-.1.1-.1h-.1c-.1 0 0 0 0 0-.1 0-.1 0 0 0h-.1s-.1 0-.1.1c.1 0 .1 0 .1-.1v.3c-.1 0 0 0 0 0-.1 0-.1 0 0 0zm-.4.2s-.1 0 0 0h-.1.1c-.1 0 0 0 0 0z"/><ellipse cx="137.4" cy="57.2" rx=".3" ry=".4" transform="matrix(.94447391 -.32858643 .32858643 .94447391 -11.152058 48.321536)"/><path d="m137.6 56.8c0-.1-.1 0 0 0-.1-.1-.1 0 0 0h-.1s0-.1.1 0l-.1-.1s0 .1 0 0c-.1 0-.1 0 0 0-.1 0 0 0 0 0-.1-.1-.2 0-.1 0h-.1.1l-.1.1h.1c-.1 0 0 0 0 0 .1-.1.1 0 .1 0h-.1.1l.1-.1h-.1.1l-.1.1s.1 0 0 0v.1h.1s0 .1.1.1v-.3h-.1c.1-.1 0 0 0 0h-.1.1-.1.1s-.1 0 0 0c.1 0 0-.1.1-.1h-.1-.1.1s-.1 0 0 0h-.2.1s-.1 0 0 0h-.1.1v-.1s0 .1 0 0v.1s.1-.1 0-.1c-.1.1 0 0 0 0h.1s-.1.1 0 0h-.1.2-.1s.1 0 0 0c0 0 .1 0 0 0h.1c-.1 0-.1 0 0 0h-.1c-.1 0 0 0 0 0v.1c0 .1 0 .1.1.2v.1h.1l-.1-.1c.1.1.1.1 0 0l.1.1v-.1-.1h.1l-.1-.1h.1s.1 0 0 0h-.1.1-.3.3-.1-.1.1s-.1 0 0 0h-.1.2s.1 0 0 0h-.1.1-.1-.1c-.1 0-.1 0 0 0s.1-.1.1-.1h-.1c-.1 0 0 0 0 0-.1 0-.1 0 0 0h-.1s-.1 0-.1.1c.1 0 .1 0 .1-.1v.3c.1 0 0 .1 0 0 0 0 .1 0 0 0zm-.4.2h-.1zm.1 3.3c.1 0 .1 0 0 0 .1 0 0-.1 0 0 .1 0 .1 0 0 0v-.1c.1 0 .1 0 0 .1l.1-.1s-.1 0 0 0c-.1 0 0 0 0 0 .1 0 .1 0 0 0 .1 0 .2-.1.1-.1h-.1-.1.1c-.1 0 0 0 0 0h-.1l.1-.1h-.1-.1.1s-.1 0 0 0c-.1 0 0 0 0 0h-.1v-.1-.1l.1-.1h-.1l-.2.1h.1s.1 0 0 0h.1c-.1 0 0 0 0 0s.1 0 0 0h-.1.1c-.1.1 0 .1-.1.1h.1.1s-.2.1-.1 0 .1 0 0 0h.2-.1.1s.1 0 0 0h.1c-.1 0 0 0 0 0v-.1h.1s-.1 0 0 .1h-.1l.1.1c-.1 0 0 0 0 0s-.1 0 0 0c-.1-.1 0 0 0 0v.1s-.1 0 0 0v.2-.1s0 .1 0 0c0 0 0 .1 0 0v.1c0-.1 0-.1 0 0v-.1c0-.1 0 0 0 0 0 .1 0 .1-.1.2v.2l.1-.1c-.1.2 0 .1 0 .1v.1-.1.2c0-.1 0 0 0 0 0-.1 0 0 .1-.1v.1s0 .1 0 0v-.1-.2.2s0-.1 0 0v-.1.2s0 .1 0 0v-.1-.1c0-.1 0-.1 0 0s.1.1.1.1v-.1c0-.1 0 0 0 0 0-.1 0-.1 0 0v-.1s0-.1-.1-.1l.1.1c-.6-.2-.6-.2-.5-.2 0 .2 0 .1 0 0 0 .1 0 .1 0 0 0 0 0 .1 0 0 0 .1.1.1 0 0 .1.1 0 .1 0 0z"/><path d="m137.6 60s0 .1 0 0c-.1.1 0 0 0 0-.1.1-.1 0 0 0h-.1c0 .1 0 .1 0 0-.1 0 0 0 0 0 .1 0 .1 0 0 0 .1 0 .2-.1.1-.1h-.1-.1.1c-.1 0 0 0 0 0h-.1l.1-.1h-.1-.1.1s-.1 0 0 0c-.1 0 0 0 0 0h-.1v-.1-.1l.1-.1h-.1l-.2.1h.1s.1 0 0 0h.1c-.1 0 0 0 0 0s.1 0 0 0h-.1.1c-.1.1 0 .1-.1.1h.1.1s-.2.1-.1 0 .1 0 0 0h.2-.1.1s.1 0 0 0h.1c-.1 0 0 0 0 0s0 .1.1.1h.1s0 .1.1 0 0 .1 0 0v.1s0-.1.1-.1c0 0 .1.1.1 0 0 0 0 .1.1 0h.1s0-.1-.1-.2v.1s-.1-.1 0 0l.1.1v-.1c.1.1.1.1 0 0h.1c-.1-.1 0 0 0 0-.1 0-.1 0-.2-.1h-.1-.1l.1.1c-.2-.1-.1-.1-.1 0h-.1l.1.1h-.1l.1.1h-.1c.1.1 0 0 0 .1 0 0-.1-.1-.1 0l.1.1-.1-.1v.1s0 .1.1.1v-.1.1l-.1-.1c.1.1.1.2.2.2 0 0-.1-.2-.2-.2l.2-.1v.1l-.1-.1s0 .1 0 0c0 0 0 .1.1.1v-.1.1-.1.2c0 .1 0 .1 0 0v-.1.1c0-.1 0 0 0 0 0 .1 0 .1 0 0v.1c0-.1 0-.1 0 0v.1l-.4-.4c.1.1.1.1 0 0 .1 0 .1 0 0 0 .1.1.1.1 0 0 .1 0 .1.1 0 0 .1.1.1.1 0 0 .1-.1.1.1 0 0 .1 0 .1 0 0 0 .1.1.1 0 0 0 .1 0 .1 0 0 0 0 .1 0 .1 0 0z"/></g><path d="m138 55.4c-.8-.4-1.7-.5-2.5-.2-.9.3-1.5 1-1.8 1.7 0 0-1.7 1.3-.6 3.5l.8-.9c.7 1.4 2.2 2.2 3.7 1.7s2.1-2.3 1.8-3.8l1.2.3c-.4-2.1-2.3-2.3-2.6-2.3z" fill="#fff"/><path d="m137.9 55.6c-.4-.2-.8-.3-1.2-.3s-.8 0-1.2.2c-.4.1-.7.4-1 .6-.3.3-.5.6-.7 1-.1.1-.2.2-.3.1-.1 0-.2-.1-.2-.2l.4.2c-.2.2-.4.4-.5.7s-.2.5-.3.8c-.1.6.1 1.2.3 1.7l-.5-.1.8-.9c.1-.1.3-.1.4 0l.1.1c.3.6.8 1.1 1.5 1.4.3.1.6.2 1 .2.3 0 .7 0 1-.2.2-.1.3-.1.5-.2.1-.1.3-.2.4-.3.2-.2.4-.5.6-.9.3-.6.3-1.4.2-2.1 0-.1.1-.3.2-.3h.1l1.2.3-.3.3c-.1-.6-.4-1.1-.8-1.5-.2-.2-.5-.4-.7-.5-.1-.1-.3-.1-.4-.1zm.2-.4h.5c.2 0 .3.1.5.1.3.1.6.3.9.5.5.5.8 1.1 1 1.8 0 .1-.1.3-.2.3h-.1l-1.2-.3.3-.3c.2.8.1 1.6-.2 2.4-.2.4-.4.7-.7 1-.1.2-.3.3-.5.4s-.4.2-.5.3c-.4.2-.8.2-1.2.2s-.8-.1-1.2-.3c-.7-.4-1.3-1-1.7-1.7l.5.1-.8.9c-.1.1-.3.1-.4 0 0 0 0-.1-.1-.1-.2-.3-.3-.6-.4-1-.1-.3-.1-.7 0-1.1s.2-.7.4-1 .4-.6.7-.8c.1-.1.3-.1.4 0 0 0 .1.1.1.2l-.5-.1c.2-.4.5-.8.8-1.1s.7-.6 1.2-.7c.4-.2.9-.2 1.4-.2.1.2.6.3 1 .5z" fill="#004e6e"/><ellipse cx="136.7" cy="58.4" fill="#fff" rx=".8" ry=".5" transform="matrix(.93899825 -.34392193 .34392193 .93899825 -11.758493 50.566766)"/><path d="m137.6 58.1v.2c0 .2-.1.4-.3.5-.1.1-.2.2-.3.2s-.1.1-.2.1-.1 0-.2.1h-.5c-.2-.1-.3-.2-.4-.4s0-.4.1-.6.2-.3.3-.4c.3-.2.5-.2.8-.2.2 0 .4.1.6.2 0 .2.1.3.1.3zm-.4.1s0-.2-.3-.1c-.1 0-.3.1-.4.2s-.1.1-.1.2v.1s0 .1.1.1.1.1.2.1h.2c.1 0 .2-.1.2-.1 0-.2.1-.3.1-.5 0 .1 0 .1 0 0z" fill="#004e6e"/><path d="m137 58.9s.2.1.2.3c0 .1.1.2.1.2v.1c0 .1-.2.2-.3.2l-.1-.1s-.1-.1-.1-.2c-.1-.1 0-.3 0-.3-.1-.2 0-.3.2-.2 0-.1 0-.1 0 0z" fill="#004e6e"/><path d="m135.9 59.8c0-.1 0-.1 0 0h.6c.1 0 .1-.1.2-.1v-.3c0-.2.1-.3.3-.3h.1c.1 0 .2.1.3.1h.3c.1 0 .3-.2.4-.4 0-.1.2-.1.3-.1s.1.1.1.2c0 .2-.1.3-.2.5s-.3.3-.4.3c-.2.1-.4.1-.5 0-.2 0-.3-.1-.5-.1l.4-.3c0 .2 0 .4-.1.6s-.4.3-.6.3h-.5c-.1 0-.2-.1-.2-.1l-.1-.1h-.1c-.1 0-.1-.1-.1-.1-.1-.1-.1-.2 0-.3.1 0 .2.1.3.2z" fill="#004e6e"/><ellipse cx="135.2" cy="57.6" fill="#004e6e" rx=".3" ry=".4" transform="matrix(.93899825 -.34392193 .34392193 .93899825 -11.566477 50.02933)"/><ellipse cx="137.1" cy="56.9" fill="#004e6e" rx=".3" ry=".4" transform="matrix(.93899825 -.34392193 .34392193 .93899825 -11.219208 50.627199)"/><path d="m58.326 51.12 18.924 4.27-2.772 12.29-18.924-4.268z" fill="#fff"/><path d="m59.664 53.37 15.315 3.454-1.96 8.682-15.314-3.454z" fill="#c3c4c7"/><path d="m64.5 59.3-4.3-1s-.4-1 .4-1.4 1.2.4 1.2.4.3-1.7 1.6-1.4c1.7.4 1.1 1.7 1.1 1.7s1.3-.1 1.2 1c0 0 0 .4-.3.7z" fill="#fff"/><path d="m64.4 59.4-4.3-.9c-.1 0-.1-.1-.2-.2-.1-.3-.2-.6-.1-.9 0-.3.2-.6.5-.8.1 0 .2-.1.2-.1s.1-.1.2-.1h.5c.2 0 .3.1.4.3.1.1.2.2.3.4l-.5.1c0-.2.1-.4.2-.6s.2-.4.4-.6.4-.3.6-.4h.8l.3.1c.1 0 .2.1.3.1.2.1.4.3.5.5s.2.5.2.7 0 .5-.1.7l-.2-.3c.3 0 .5 0 .8.1.2.1.5.3.6.6.2.5.1 1.1-.3 1.5-.1.1-.1.1-.2.1zm.1-.3.8.1-.2.1c.2-.2.3-.7.2-1 0-.2-.2-.3-.3-.3-.2-.1-.4-.1-.5-.1s-.3-.1-.3-.2v-.1c0-.1.1-.3.1-.5s-.1-.3-.1-.4c-.1-.1-.2-.2-.4-.3-.1 0-.1-.1-.2-.1l-.3-.1h-.4c-.1 0-.3.1-.4.2-.2.2-.4.6-.4.9 0 .2-.2.3-.3.2-.1 0-.2-.1-.2-.2s-.1-.2-.2-.2c-.1-.1-.1-.1-.2-.1h-.2-.1c-.1 0-.1 0-.1.1-.2.1-.2.2-.3.4 0 .2 0 .4.1.6l-.4-.1z" fill="#004e6e"/><ellipse cx="70.9" cy="59.8" fill="#fff" rx="2.2" ry="2.2" transform="matrix(.22001646 -.97549616 .97549616 .22001646 -3.060548 115.758287)"/><path d="m73 60.3s0 .2-.2.6c-.1.3-.5.9-1.1 1.2-.3.2-.7.2-1.1.2-.1 0-.2 0-.3-.1-.1 0-.2-.1-.3-.1-.2-.1-.4-.2-.5-.4-.6-.6-1-1.5-.9-2.4.1-.5.3-.9.6-1.3.3-.3.8-.6 1.2-.7s.9-.1 1.3.1.7.4 1 .7c.4.6.5 1.2.5 1.6-.1.4-.2.6-.2.6zm0 0s.1-.2 0-.6c0-.4-.3-.9-.7-1.2-.2-.2-.5-.3-.8-.4s-.7-.1-1-.1c-.3.1-.7.2-1 .5-.3.2-.5.6-.6 1s-.1.8 0 1.2.4.7.8.9c.2.1.3.2.5.2.1 0 .2 0 .3.1h.2c.3 0 .6 0 .9-.1.6-.1 1-.5 1.2-.8.1-.5.2-.7.2-.7z" fill="#004e6e"/><path d="m70.5 63.3-5.6-1.3s-.5-1.3.5-1.9c1.1-.5 1.5.6 1.5.6s.4-2.2 2.1-1.8c2.2.5 1.4 2.3 1.4 2.3s1.7-.1 1.6 1.4c0 0 0 .5-.4.9z" fill="#fff"/><path d="m70.5 63.5-5.6-1.2c-.1 0-.1-.1-.2-.2-.1-.4-.2-.7-.1-1.1 0-.4.3-.8.6-1 .1 0 .2-.1.3-.1s.2-.1.3-.1c.2 0 .4-.1.6 0s.4.2.5.3.3.3.4.5l-.5.1c.1-.3.1-.5.3-.8.1-.3.3-.5.5-.7s.5-.4.8-.5c.2 0 .3-.1.5-.1s.3 0 .5.1l.4.1c.1.1.3.1.4.2.3.1.5.3.7.6s.3.6.3.9 0 .6-.1.9l-.2-.3c.3 0 .6 0 1 .2.3.1.6.4.8.7.1.3.1.7.1 1-.1.3-.2.6-.5.9 0 .1-.1.1-.2.1zm.1-.4 1.1.2-.2.1c.2-.2.3-.4.3-.7 0-.2 0-.5-.1-.7s-.3-.3-.5-.4-.5-.1-.7-.1c-.1 0-.3-.1-.3-.2v-.1c.1-.2.1-.4.1-.7 0-.2-.1-.4-.2-.6s-.3-.3-.5-.4c-.1-.1-.2-.1-.3-.1l-.3-.2h-.6c-.2.1-.4.2-.5.3-.3.3-.5.8-.6 1.2 0 .2-.2.3-.3.2-.1 0-.2-.1-.2-.2s-.1-.2-.2-.3-.2-.2-.3-.2h-.3s-.1 0-.2.1c-.1 0-.1.1-.2.1-.2.1-.4.4-.4.6 0 .3 0 .6.1.8h-.3z" fill="#004e6e"/><path d="m6.045 64.38 16.713 6.126-3.993 10.89-16.712-6.126z" fill="#fff"/><path d="m7.056 66.56 13.52 4.957-2.822 7.7-13.52-4.958z" fill="#c3c4c7"/><path d="m9.378 72.198 5.54 2.03-1.24 3.38-5.54-2.03z" fill="#fff"/><ellipse cx="12.3" cy="73" fill="#fff" rx=".8" ry="3" transform="matrix(.34420052 -.93889616 .93889616 .34420052 -60.412577 59.428414)"/><path d="m15.3 74.1s-.1.1-.1.2c-.1.1-.3.1-.5.1-.4 0-.9 0-1.5-.2-.6-.1-1.3-.3-2-.7-.4-.2-.7-.3-1.1-.5-.2-.1-.4-.2-.5-.4-.1-.1-.2-.2-.2-.3-.1-.1-.2-.2-.1-.6v-.1l.1-.1c.1-.1.2-.1.2-.1.1 0 .3-.1.4-.1h.7l1.2.3c.7.2 1.4.5 2 .8.5.3 1 .6 1.3.8.1.1.2.3.3.4-.1.4-.2.5-.2.5zm-.3-.2c0-.1-.1-.2-.2-.3-.2-.2-.6-.5-1.2-.7-.5-.2-1.2-.5-1.9-.7-.4-.1-.7-.2-1.1-.2h-.5c-.2 0-.3 0-.3.1.1-.2 0-.1.1 0 0 .1.1.1.2.2s.3.2.4.3c.3.2.6.4 1 .6.7.3 1.3.6 1.9.7s1.1.2 1.4.2c0-.1.1-.1.2-.2-.1.1 0 0 0 0z" fill="#004e6e"/><path d="m9.7 72s-.2.9-.6 1.8c-.2.5-.3.9-.5 1.2-.1.3-.3.5-.3.5-.1.1-.2.1-.3.1v-.1s.1-.2.2-.6c.1-.3.3-.8.4-1.3.3-.9.8-1.8.8-1.8 0-.1.2-.1.3-.1zm5.6 1.7-.6 2c-.2.5-.4 1-.5 1.4l-.3.6c-.1.1-.2.1-.3.1s-.1-.1-.1-.2l.2-.6c.1-.4.3-.9.5-1.4l.8-2c0-.1.2-.1.3-.1z" fill="#004e6e"/><path d="m8.5 73.9s.1-.1.3-.2c.1 0 .2-.1.4-.1s.4.1.6.2c.2.2.3.4.3.6.1.2.1.4.2.6 0 .1 0 .1 0 0h.2l.6-.3c.2-.1.5-.2.8-.2s.6.2.8.4.2.4.3.6l.3.3c.2.1.4.1.5.1.1-.1.2-.1.2-.1.1-.1.2-.1.3-.1.1.1.1.2.1.3 0 0-.1.2-.3.3s-.6.2-1 0c-.2-.1-.3-.3-.5-.5-.1-.2-.2-.4-.3-.5s-.2-.2-.3-.2-.3.1-.5.1l-.6.3c-.1 0-.3.1-.5.1-.3-.1-.4-.3-.4-.4-.1-.2-.1-.4-.2-.6 0-.2-.1-.3-.2-.4-.1-.2-.4-.1-.5-.1-.2 0-.2.1-.2.1-.1.1-.2 0-.3-.1-.2 0-.2-.1-.1-.2z" fill="#004e6e"/><path d="m12.7 72s-.8-.6.1-1.4c.4-.4.5-.8.5-.8s1.3 1.6-.6 2.2z" fill="#fff"/><path d="m12.7 72.1c-.2-.1-.3-.3-.4-.6-.1-.2 0-.5.1-.7s.3-.4.4-.5c.1-.2.2-.3.3-.5 0-.1.2-.2.3-.2 0 0 .1 0 .1.1.2.2.3.4.4.7.1.2.2.6.1.8 0 .1-.1.3-.2.4l-.3.3c-.2.1-.5.2-.8.2zm0-.1.5-.5c.1-.1.1-.2.2-.2 0-.1.1-.2.1-.2v-.5c0-.2-.1-.4-.2-.5l.4-.1c-.1.2-.2.4-.4.6l-.4.4c-.1.1-.2.3-.2.5-.2.2-.1.4 0 .5z" fill="#004e6e"/></g><g opacity=".25"><path d="m163.1 10.5s-2.2-2-4.3.8c-1.9 2.6-3.4 3.2-5.2 3.1-1.4 0 5.9 4.3 9.5-.3 0 0 1.6-2 0-3.6z" fill="#bedae6"/><path d="m163.3 10.8-.2-.2s-.3-.3-.9-.5c-.3-.1-.7-.2-1.2-.1s-.9.3-1.4.8c-.4.4-.8 1-1.3 1.5s-1 1.1-1.7 1.5-1.5.7-2.3.8h-.6-.2c-.1 0 .1 0 0-.1l.1.1c.3.2.7.4 1 .6 1.5.7 3.1 1 4.6.8s2.7-1 3.5-1.9 1-2 .7-2.6c.2-.3 0-.5-.1-.7zm-.1-.3s.4.3.6 1c.3.7.1 1.9-.7 2.9-.4.5-.9 1-1.5 1.3-.6.4-1.4.6-2.1.7-1.6.2-3.2-.1-4.8-.8-.4-.2-.7-.4-1.1-.6-.1-.1-.2-.1-.2-.3 0 0 0-.2.1-.2s.1-.1.2-.1h.8c.8 0 1.5-.3 2.1-.7s1.1-.9 1.6-1.5c.5-.5.8-1.1 1.3-1.5s1-.7 1.5-.8 1 0 1.3.1c.4.1.6.3.8.4z" fill="#187aa2"/><path d="m157.6 14.6s5.2-1.2 7.1-4.7" fill="#bedae6"/><path d="m157.6 14.6s.5-.1 1.3-.4 1.8-.8 2.7-1.3c.4-.3.9-.6 1.3-1 .4-.3.7-.7 1-1s.5-.6.6-.8.2-.3.2-.3-.1.1-.2.3-.3.5-.5.9c-.1.2-.3.3-.4.5s-.4.3-.5.5c-.4.3-.9.6-1.3.9-1 .6-2 1-2.8 1.2-.9.4-1.4.5-1.4.5z" fill="#187aa2"/><path d="m160.9 14.8.5-1.7" fill="#bedae6"/><path d="m160.9 14.8s.1-.5.1-.9c0-.2.1-.5.2-.6.1-.2.2-.3.2-.3v.3c0 .2-.1.4-.2.6-.1.5-.3 1-.3.9z" fill="#187aa2"/><path d="m158.7 13.1 1.4.6" fill="#bedae6"/><path d="m158.7 13.1.8.2c.2 0 .4.1.5.2l.2.2h-.3c-.2 0-.3-.1-.5-.2-.4-.2-.7-.4-.7-.4z" fill="#187aa2"/><path d="m160.3 11.5 2.1.9" fill="#bedae6"/><path d="m160.3 11.5s.5.2 1.1.4c.3.1.5.2.7.3s.3.2.3.2h-.4c-.2 0-.5-.2-.7-.3z" fill="#187aa2"/></g><g opacity=".25"><path d="m101.4 60.4s.2 3.3-3.7 3.1c-3.7-.2-5.2.7-6.4 2.3-.9 1.2.4-8.2 7-7.9 0 0 2.9 0 3.1 2.5z" fill="#bedae6"/><path d="m101.5 60.8c0 .2 0 .5-.2.9-.1.4-.4.9-.8 1.2-.5.4-1.1.6-1.8.7s-1.5 0-2.2 0c-.8 0-1.6.1-2.4.3s-1.6.7-2.2 1.3c-.1.2-.3.3-.4.5l-.1.1-.1.2s-.1.1-.2.1-.2 0-.2-.1c-.1-.2-.1-.3-.1-.4 0-.5.1-.9.2-1.4.5-1.8 1.4-3.5 2.7-4.7.6-.6 1.4-1.1 2.1-1.4.8-.3 1.5-.4 2.2-.4 1.4 0 2.6.7 3 1.4.2.4.3.7.3.9v.3zm-.2-.7c0-.2-.1-.5-.4-.8-.2-.3-.6-.7-1.1-.9s-1.1-.4-1.8-.4c-1.3 0-2.9.5-4.1 1.7s-2.1 2.8-2.6 4.6c-.1.4-.2.9-.2 1.3v.2c0-.1-.1 0-.1 0l.1-.1v-.1c.1-.2.3-.4.5-.5.6-.7 1.4-1.2 2.3-1.4.8-.3 1.7-.3 2.5-.4.8 0 1.5.1 2.2 0s1.2-.3 1.6-.6.6-.8.8-1.1c.1-.4.2-.7.2-.9v-.3z" fill="#187aa2"/><path d="m93.9 62.3s4.8-3.6 9.1-2.7" fill="#bedae6"/><path d="m93.9 62.3s.5-.4 1.3-.9 1.9-1.1 3-1.5c.6-.2 1.2-.4 1.7-.5.3 0 .6-.1.8-.1h.8c.5 0 .8.1 1.1.1.3.1.4.1.4.1h-1.5c-.2 0-.5 0-.7.1-.3 0-.5.1-.8.1s-.6.1-.9.2-.6.2-.9.2c-1.2.4-2.3.9-3 1.4-.8.4-1.3.8-1.3.8z" fill="#187aa2"/><path d="m96.1 59.3 1.9.8" fill="#bedae6"/><path d="m96.1 59.2s.5.2 1 .3c.2.1.5.2.6.3.2.1.3.2.3.2h-.3c-.2 0-.4-.2-.6-.3-.6-.2-1-.4-1-.5z" fill="#187aa2"/><path d="m96 62.4.5-1.6" fill="#bedae6"/><path d="m96 62.4s.1-.4.1-.9c0-.2.1-.4.2-.6l.2-.2v.3c0 .2-.1.4-.2.6-.1.4-.3.8-.3.8z" fill="#187aa2"/><path d="m98.6 62.2.7-2.5" fill="#bedae6"/><path d="m98.6 62.1s.1-.6.3-1.3c.1-.3.1-.6.2-.8l.2-.4v.4c0 .2-.1.5-.2.8-.3.8-.5 1.4-.5 1.3z" fill="#187aa2"/></g><g opacity=".25"><path d="m167.3 53.5s0-2.7-3.2-2.4c-3 .3-4.3-.3-5.4-1.6-.8-1 .7 6.7 6.1 6.2.1 0 2.4-.2 2.5-2.2z" fill="#bedae6"/><path d="m167.2 53.8v-.3s0-.4-.2-1c-.1-.3-.3-.6-.7-.9-.3-.3-.8-.4-1.4-.5-.5 0-1.1.1-1.8.1s-1.4 0-2.1-.2-1.4-.5-2-1.1l-.4-.4s0-.1 0 0v.2c0 .3.1.7.2 1.1.5 1.4 1.3 2.7 2.3 3.6s2.4 1.3 3.5 1.2c1.1 0 1.9-.6 2.2-1.1.3-.3.4-.5.4-.7zm.2-.3s.1.4-.2 1-1.2 1.2-2.4 1.3c-.6.1-1.2 0-1.9-.2-.6-.2-1.3-.5-1.8-1-1.1-.9-1.9-2.3-2.4-3.7-.1-.4-.2-.7-.2-1.1 0-.1 0-.2.1-.4 0 0 .1-.1.2-.1s.1.1.1.1h.1l.1.1c.1.1.2.3.4.4.5.5 1.2.8 1.8 1 .7.2 1.3.2 2 .2.6 0 1.2-.1 1.8-.1s1.1.2 1.5.5.6.7.8 1c.1.3.2.6.2.8z" fill="#187aa2"/><path d="m161.1 52.3s4.1 2.8 7.6 1.8" fill="#bedae6"/><path d="m161.1 52.2s.4.3 1.1.6 1.6.7 2.6 1c.5.1 1 .2 1.4.3.5.1.9.1 1.3.1h1.2s-.1 0-.3.1-.5.1-.9.2h-.6c-.2 0-.4 0-.7-.1l-1.5-.3c-1-.3-1.9-.7-2.5-1.1-.7-.4-1.1-.7-1.1-.8z" fill="#187aa2"/><path d="m163 54.7 1.5-.8" fill="#bedae6"/><path d="m163 54.6s.3-.3.7-.5c.2-.1.4-.2.5-.3h.3l-.2.2c-.1.1-.3.2-.5.3-.4.2-.8.4-.8.3z" fill="#187aa2"/><path d="m162.8 52.1.5 1.3" fill="#bedae6"/><path d="m162.8 52s.2.3.3.6c.1.2.2.3.2.5v.2l-.2-.2c-.1-.1-.1-.3-.2-.5s-.1-.5-.1-.6z" fill="#187aa2"/><path d="m164.9 52.2.7 2" fill="#bedae6"/><path d="m164.9 52.2.4 1c.1.2.2.5.2.7v.3s-.1-.1-.2-.3-.2-.4-.2-.7z" fill="#187aa2"/></g><g opacity=".25"><path d="m103 49.5s-.6-2.4-3.3-1.4c-2.5.9-3.8.6-5-.2-.9-.7 2.1 5.7 6.7 4.1 0 0 2-.7 1.6-2.5z" fill="#bedae6"/><path d="m103 49.8-.1-.3s-.1-.3-.4-.8c-.2-.2-.4-.5-.8-.6-.4-.2-.8-.2-1.3-.1s-1 .3-1.6.5-1.2.3-1.9.3-1.4-.2-2-.5c-.1-.1-.3-.2-.4-.3h-.1c-.1 0 .1 0 .1-.1v.2c.1.3.3.6.4.9.7 1.1 1.7 2.1 2.8 2.7s2.3.6 3.3.3c.9-.3 1.6-.9 1.7-1.5.3-.3.3-.5.3-.7zm0-.3s.1.3 0 1c-.1.6-.8 1.4-1.8 1.7-.5.2-1.1.3-1.7.2-.6 0-1.2-.2-1.8-.5-1.2-.6-2.2-1.6-2.9-2.8-.2-.3-.4-.6-.5-.9 0-.1-.1-.2 0-.3 0 0 .1-.1.2-.1h.4c.1.1.3.2.4.3.6.3 1.2.5 1.8.5s1.2-.1 1.8-.3c.5-.1 1.1-.4 1.6-.5s1-.1 1.5.1c.4.2.7.5.9.7.2.3.3.5.3.6z" fill="#187aa2"/><path d="m97.3 49.8s4.2 1.5 7.1-.1" fill="#bedae6"/><path d="m97.3 49.8s.4.1 1.1.3c.7.1 1.6.3 2.5.3s1.8-.1 2.4-.3c.3-.1.6-.2.8-.2.2-.1.3-.1.3-.1s-.1.1-.3.2l-.8.4c-.2.1-.3.1-.5.2s-.4.1-.6.1c-.4.1-.9.1-1.4 0-.9-.1-1.8-.2-2.5-.4-.6-.3-1-.4-1-.5z" fill="#187aa2"/><path d="m99.5 51.5 1.1-1" fill="#bedae6"/><path d="m99.5 51.5s.2-.3.5-.6c.1-.2.3-.3.4-.3.1-.1.2-.1.2-.1s0 .1-.1.2l-.4.4z" fill="#187aa2"/><path d="m98.7 49.3.7 1.1" fill="#bedae6"/><path d="m98.7 49.3s.2.2.4.5c.1.1.2.2.2.4v.2s-.1 0-.2-.1c0-.1-.1-.3-.1-.4-.2-.3-.3-.6-.3-.6z" fill="#187aa2"/><path d="m100.6 48.9 1 1.6" fill="#bedae6"/><path d="m100.6 48.9s.3.4.6.7c.2.2.3.4.4.5.1.2.1.3.1.3l-.2-.2c-.1-.1-.3-.3-.4-.5-.3-.3-.5-.8-.5-.8z" fill="#187aa2"/></g><g fill="#fff" opacity=".35"><ellipse cx="15.3" cy="58.1" rx="1.4" ry="1.9" transform="matrix(.16487546 -.98631439 .98631439 .16487546 -44.51001 63.599956)"/><path d="m17.4 58.4v.1c0 .1 0 .3-.1.4-.2.3-.6.6-1.1.7-.3.1-.6.1-.9.1-.2 0-.3 0-.5-.1-.2 0-.3-.1-.5-.2-.3-.1-.6-.3-.9-.6-.2-.3-.4-.7-.3-1.2.1-.4.4-.8.7-1s.7-.3 1-.3.7 0 1 .1.6.2.8.4c.5.3.7.8.7 1.1v.4c0 .1 0 .1.1.1zm-.3 0s0-.2-.1-.4-.3-.5-.7-.7c-.2-.1-.4-.2-.6-.2-.3-.1-.5-.1-.8 0-.3 0-.5.1-.7.2-.2.2-.3.3-.4.6 0 .2.1.4.2.6.2.2.4.4.6.5.1.1.2.1.4.1.1 0 .3.1.4.1h.7c.4-.1.7-.3.8-.5l.2-.2c-.1-.1-.1-.1 0-.1zm-.2.8 3.1-6.8"/><path d="m16.7 59.1s0-.1.1-.3.2-.5.3-.8c.3-.6.7-1.5 1.1-2.3s.8-1.7 1.1-2.3.7-1 .7-1h.1v.1s-.1.5-.3 1.1c-.3.6-.7 1.5-1 2.3-.4.9-.8 1.7-1.1 2.3-.2.3-.3.6-.4.8s-.2.3-.2.3c-.1.1-.2.1-.3 0s-.1-.1-.1-.2z"/><path d="m19.7 52.9 2.4 1.8m-2.3-2h.2c.1 0 .2.1.3.2.2.2.6.4.9.6s.6.5.8.7.3.4.3.4c0 .1 0 .1-.1.2 0 0-.2 0-.5-.1-.2-.2-.6-.4-.9-.6s-.6-.5-.8-.7c-.1-.1-.2-.2-.3-.2 0-.1-.1-.2-.1-.2 0-.1.1-.2.2-.3z"/><path d="m18.9 54.5 2.5 1.8m-2.3-2h.2c.1 0 .2.1.3.2.2.2.6.4.9.6s.6.5.8.7.3.4.3.4c0 .1 0 .1-.1.2 0 0-.2 0-.5-.1-.2-.2-.6-.4-.9-.6s-.6-.5-.8-.7c-.1-.1-.2-.2-.3-.2 0-.1-.1-.2-.1-.2-.1-.1 0-.3.2-.3z"/></g><g fill="#fff" opacity=".35"><ellipse cx="93.8" cy="16.9" rx="1.5" ry="1.1" transform="matrix(.82330481 -.56759949 .56759949 .82330481 6.98381 56.228154)"/><path d="m95.2 16c.1.1.2.2.2.4.1.3 0 .7-.2 1.1-.1.2-.3.4-.5.5-.1.1-.2.2-.3.2-.1.1-.2.1-.4.2-.3.1-.6.1-.9.1s-.7-.2-.9-.5-.2-.7-.2-1c.1-.3.2-.6.4-.8s.4-.4.6-.5.4-.2.7-.2c.4-.1.8.1 1 .2.4.1.4.3.5.3zm-.3.1s-.1-.1-.3-.1c-.2-.1-.4-.1-.7 0-.1 0-.3.1-.5.2s-.3.2-.4.4-.2.3-.3.5c0 .2 0 .3.1.5.2.2.6.3 1 .2.1 0 .2-.1.3-.1.1-.1.2-.1.2-.2.1-.1.3-.2.3-.4.2-.3.2-.5.2-.6v-.2c.1-.1 0-.1.1-.2zm.4.6-1.9-5.5"/><path d="m95.1 16.7-.2-.2c-.1-.1-.1-.4-.2-.6-.2-.5-.5-1.2-.7-1.9s-.5-1.4-.6-1.9-.1-.9-.1-.9c0-.1.1-.1.1-.1h.1s.3.3.5.8.4 1.2.7 1.9.5 1.4.6 1.9c.1.3.2.5.2.6v.3c-.1.1-.2.2-.4.1z"/><ellipse cx="98.6" cy="15.2" rx="1.5" ry="1.1" transform="matrix(.82330481 -.56759949 .56759949 .82330481 8.792769 58.66909)"/><path d="m100 14.3c.1.1.2.2.2.4.1.3 0 .7-.2 1.1-.1.2-.3.4-.5.5-.1.1-.2.2-.3.2-.1.1-.2.1-.4.2-.3.1-.6.1-.9.1s-.6-.2-.9-.5c-.2-.3-.2-.7-.1-1s.2-.6.4-.8.4-.4.6-.5.4-.2.7-.2c.4-.1.8.1 1 .2.3.2.3.3.4.3zm-.2.1s-.1-.1-.3-.1c-.2-.1-.4-.1-.7 0-.1 0-.3.1-.5.2s-.3.2-.4.4-.2.3-.3.5c0 .2 0 .3.1.5.1.1.2.2.4.2s.4 0 .6-.1c.1 0 .2-.1.3-.1.1-.1.2-.1.2-.2.1-.1.3-.2.3-.4.2-.3.2-.5.2-.6v-.2zm.3.6-1.9-5.5"/><path d="m99.9 15-.2-.2c-.1-.1-.1-.4-.2-.6-.2-.5-.5-1.2-.7-1.9s-.5-1.4-.6-1.9-.1-.9-.1-.9c0-.1.1-.1.1-.1h.1s.3.3.5.8.4 1.2.7 1.9.5 1.4.6 1.9c.1.3.2.5.2.6v.3c0 .1-.2.2-.4.1.1.1 0 .1 0 0z"/><path d="m93.1 11.9 5.8-2m-5.9 1.8.2-.2c.2-.1.4-.1.7-.2.5-.2 1.3-.5 2-.7s1.5-.5 2-.7c.6-.1 1-.1 1-.1.1 0 .1 0 .1.1v.1s-.3.3-.8.5-1.3.5-2 .7c-.7.3-1.5.5-2 .7-.3.1-.5.2-.7.2h-.3c-.2 0-.3-.1-.2-.4 0 .1 0 .1 0 0z"/><path d="m93.5 13.2 5.8-2m-5.9 1.8.2-.2c.2-.1.4-.1.7-.2.5-.2 1.3-.5 2-.7s1.5-.5 2-.7c.6-.1 1-.1 1-.1.1 0 .1 0 .1.1v.1s-.3.3-.8.5-1.3.5-2 .7c-.7.3-1.5.5-2 .7-.3.1-.5.2-.7.2h-.3c-.2 0-.2-.1-.2-.4 0 .1 0 .1 0 0z"/></g><g opacity=".25"><path d="m205.8 50.1s-.7-1.6 2.1-2.3c-.1 0-.5 2.7-2.1 2.3z" fill="#bedae6"/><path d="m205.7 50.2c-.1-.3-.1-.6 0-.9s.3-.5.5-.8c.4-.4 1-.6 1.6-.8l.2-.1v.2c-.1.6-.2 1.2-.6 1.7-.2.2-.4.5-.7.6-.1 0-.2 0-.2.1h-.2c-.3.1-.4 0-.6 0zm.1-.1h.4c.1 0 .1 0 .2-.1.1 0 .1 0 .2-.1.2-.1.4-.4.5-.6.3-.5.5-1 .6-1.6l.2.1c-.6.1-1.1.3-1.5.7-.2.2-.4.4-.5.7-.2.4-.2.7-.1.9z" fill="#187aa2"/><path d="m205.9 50.3s1.1-1.4 3 .7c0 0-2.6.9-3-.7z" fill="#bedae6"/><path d="m205.9 50.3c.2-.2.5-.4.8-.5s.6 0 .9.1c.6.2 1.1.6 1.5 1l.1.1-.2.1c-.6.2-1.2.4-1.8.3-.3 0-.6-.1-.9-.3-.1 0-.1-.1-.2-.2s-.1-.1-.1-.2c-.1-.1-.1-.3-.1-.4zm0 0c.1.1.1.3.2.3 0 .1.1.1.1.1.1 0 .1.1.2.1.2.1.5.2.8.2.6 0 1.1-.1 1.7-.2v.2c-.4-.4-.8-.8-1.4-1-.3-.1-.5-.2-.8-.1s-.6.2-.8.4z" fill="#187aa2"/><path d="m205.6 50.1s1-1.4-1.4-2.8c0 0-.3 2.8 1.4 2.8z" fill="#bedae6"/><path d="m205.6 50.1c.1-.2.2-.5.2-.8s-.2-.5-.3-.8c-.3-.5-.8-.8-1.3-1.1l.2-.1c0 .6 0 1.1.2 1.7.1.3.2.5.4.7 0 .1.1.1.1.1s.1.1.2.1c0 .1.2.1.3.2zm0 0h-.4c-.1 0-.2 0-.2-.1-.1 0-.1-.1-.2-.1-.3-.2-.4-.5-.5-.8-.2-.6-.2-1.2-.1-1.8v-.2l.1.1c.5.3 1 .7 1.3 1.2.2.3.3.5.3.8 0 .4-.1.7-.3.9z" fill="#187aa2"/><path d="m205.7 50.1s-.4 1.7-3 .7c0 0 1.9-2 3-.7z" fill="#bedae6"/><path d="m205.8 50.1c-.1.3-.3.5-.5.7s-.5.3-.8.3c-.6.1-1.2-.1-1.8-.3l-.2-.1.1-.1c.4-.5.9-.8 1.5-1 .3-.1.6-.2.9-.1.1 0 .2.1.2.1.1 0 .1.1.2.1zm-.1 0c-.1-.1-.2-.2-.4-.2-.1 0-.1-.1-.2-.1h-.2c-.3 0-.5 0-.8.2-.5.2-1 .6-1.4.9v-.2c.5.2 1.1.4 1.7.3.3 0 .6-.1.8-.2.2-.2.4-.4.5-.7z" fill="#187aa2"/><path d="m205.8 50.1s-1.5.8.1 3.1c0 .1 1.4-2.3-.1-3.1z" fill="#bedae6"/><path d="m205.8 50.2c-.2.2-.4.4-.5.7s-.1.6 0 .8c.1.6.4 1.1.8 1.5h-.2c.2-.5.5-1.1.5-1.6v-.8c0-.1-.1-.1-.1-.2s-.1-.1-.1-.2c-.2-.1-.3-.1-.4-.2zm0-.1c.1.1.3.1.4.2.1 0 .1.1.2.2 0 .1.1.1.1.2.2.3.2.6.2.9-.1.6-.3 1.2-.6 1.7l-.1.2-.1-.2c-.3-.5-.6-1-.7-1.6 0-.3 0-.6.1-.9 0-.3.2-.5.5-.7z" fill="#187aa2"/><ellipse cx="205.596" cy="50.848" fill="#004e6e" rx=".5" ry=".5"/></g><g opacity=".25"><path d="m123.3 42.7s.6-2 3.8-.6c-.1.1-2.6 2.3-3.8.6z" fill="#bedae6"/><path d="m123.3 42.7c.1-.3.4-.6.7-.8s.7-.3 1-.3c.7 0 1.4.2 2.1.5l.2.1-.1.1c-.5.5-1.2.9-1.9 1.1-.4.1-.7.1-1.1 0-.1 0-.2-.1-.3-.1s-.2-.1-.2-.2c-.2 0-.3-.2-.4-.4zm0 0c.1.1.2.2.4.3.1 0 .1.1.2.1s.2.1.2.1c.3.1.7 0 1-.1.6-.2 1.2-.6 1.8-1v.2c-.6-.3-1.3-.6-2-.5-.3 0-.7.1-1 .2-.2.2-.5.4-.6.7z" fill="#187aa2"/><path d="m123.3 43s2.1-.4 2.3 3c0 0-3.2-1.2-2.3-3z" fill="#bedae6"/><path d="m123.3 43c.4-.1.7 0 1.1.2.3.2.6.5.8.8.4.6.5 1.4.6 2.1v.2l-.2-.1c-.7-.2-1.3-.6-1.9-1.1-.3-.3-.5-.6-.6-1v-.3-.3c0-.2.1-.4.2-.5zm0 0c0 .2-.1.3-.1.5v.3c0 .1 0 .2.1.2.1.3.3.6.6.8.5.5 1.1.8 1.8 1.1l-.2.1c0-.7-.2-1.4-.5-2-.2-.3-.4-.6-.7-.8s-.7-.3-1-.2z" fill="#187aa2"/><path d="m123.2 42.6s2-.4.9-3.7c0 0-2.5 2.3-.9 3.7z" fill="#bedae6"/><path d="m123.2 42.6c.3-.1.6-.3.8-.6s.3-.6.3-1c.1-.7-.1-1.4-.4-2h.2c-.4.5-.9 1.1-1.2 1.7-.1.3-.2.6-.2 1v.2c0 .1 0 .2.1.2.2.2.3.3.4.5zm0 0c-.1-.1-.3-.2-.4-.4-.1-.1-.1-.2-.1-.2 0-.1-.1-.2-.1-.3-.1-.4 0-.8.1-1.1.3-.7.7-1.3 1.3-1.8l.1-.1.1.2c.2.7.4 1.4.3 2.1 0 .4-.2.7-.4 1s-.6.5-.9.6z" fill="#187aa2"/><path d="m123.3 42.7s-1.7 1.2-3.4-1.8c0 0 3.4-.2 3.4 1.8z" fill="#bedae6"/><path d="m123.3 42.7c-.3.2-.7.3-1 .3-.4 0-.7-.2-1-.4-.6-.4-1-1-1.4-1.6l-.1-.2h.2c.7-.1 1.5 0 2.2.2.3.1.7.3.9.6.1.1.1.2.2.2.1.1.1.2.1.3-.1.3-.1.4-.1.6zm0 0c0-.2-.1-.3-.1-.5 0-.1-.1-.2-.1-.2l-.2-.2c-.2-.2-.5-.4-.9-.5-.6-.2-1.4-.3-2-.3l.1-.2c.3.6.7 1.2 1.3 1.6.3.2.6.4.9.4.3.2.7.1 1-.1z" fill="#187aa2"/><path d="m123.3 42.7s-2-.4-2.3 3c0 0 3.1-1.1 2.3-3z" fill="#bedae6"/><path d="m123.3 42.8c-.3 0-.7 0-1 .2s-.5.5-.7.8c-.3.6-.5 1.3-.5 2l-.2-.1c.6-.3 1.3-.6 1.8-1.1.3-.2.5-.5.6-.8 0-.1 0-.2.1-.2v-.2c0-.3-.1-.5-.1-.6zm0-.1c.1.2.2.3.2.5v.6c-.1.4-.3.7-.6 1-.5.5-1.2.9-1.9 1.1l-.2.1v-.2c.1-.7.2-1.4.6-2.1.2-.3.5-.6.8-.8.4-.2.7-.2 1.1-.2z" fill="#187aa2"/><ellipse cx="123.5" cy="42.7" fill="#004e6e" rx=".6" ry=".6" transform="matrix(.64362953 -.7653372 .7653372 .64362953 11.343557 109.709295)"/></g><g fill="#fff"><g opacity=".35"><path d="m41.6 72.7s-.7 1.3-1.5 2.5c-.4.6-.8 1.2-1.1 1.7-.3.4-.5.7-.5.7l-.3-.2s.2-.3.4-.8c.3-.5.7-1.1 1.1-1.7.8-1.2 1.7-2.4 1.7-2.4z"/><path d="m44.8 75.3v-.3c0-.1-.1-.2-.2-.2-.1-.1-.1-.1-.2-.1h-.3l-1.4-.2c-.3-.1-.6-.3-.7-.7v-.3-.3c.1-.2.1-.3.3-.4.1-.1.3-.2.5-.2h.5l.8.1-.2.1.1-.1h.1l.6.1h.5c.1 0 .3-.1.3-.3v-.2c0-.1 0-.1-.1-.2l-.3-.3h-.6l-1.3-.1-.8-.1.6-.3c.1 0 .1-.2.2-.3l.2-.3.4-.7.2-.3c.1-.1.1-.1.1-.2 0-.2-.1-.4-.2-.4-.1-.1-.2-.1-.2-.1-.1 0-.2 0-.2.1l-.2.2-.2.3-.4.7-.2.3-.1.2s0 .1-.1.2l-.2.5-.3-.5-.8-1.6-.2-.3c0-.1 0-.1-.1-.1l-.1-.1c-.1-.1-.3-.1-.4 0h-.3.3c-.1.1-.2.3-.2.5v.1l.1.2.2.4.1.2-.1.1v-.3l.4.8.2.4s.1.2.1.3v.3c0 .2-.1.4-.2.6l-.2.2-.1.1c-.1 0-.1 0-.2.1-.4.1-.9-.1-1.1-.4l-.7-1.2s0-.1-.1-.1c0 0 0-.1-.1-.1s-.1-.1-.2-.1h-.2c-.1 0-.2.1-.2.1-.1.1-.2.2-.2.4 0 .1 0 .1.1.2l.2.3.7 1.2.1.1-.1.1v-.2l1.3 2.3-.2-.1 2.8.4 1.4.2h.3c.1 0 .2 0 .2-.1.4-.3.5-.5.5-.6zm.4 0c0 .3-.2.6-.5.7-.1.1-.3.1-.4.1h-.4l-1.4-.2-2.8-.3h-.1l-.1-.1-1.3-2.2-.1-.1.1-.1v.2l-.7-1.3-.2-.3c-.1-.1-.1-.3-.1-.4 0-.3.1-.6.4-.8.1-.1.3-.2.4-.2h.5c.2 0 .3.1.4.2l.2.2c0 .1.1.1.1.2l.7 1.2c.1.2.3.2.5.2h.2l.1-.1c.1-.1.1-.2.1-.2v-.1c0-.1 0-.1-.1-.1l-.2-.4-.4-.8-.1-.2.1-.2v.3l-.4-.5-.1-.2c-.1-.1-.1-.2-.1-.3-.1-.4.1-.9.5-1.1h.3-.3c.3-.2.7-.2 1 0 .1 0 .1.1.2.2s.1.2.2.2l.2.4.7 1.4h-.5c0-.1 0-.1.1-.2l.1-.2.2-.3.5-.7.2-.3c.1-.1.2-.3.4-.4s.3-.1.5-.1.4.1.5.2c.3.2.5.6.5.9 0 .2-.1.4-.2.5l-.2.3-.5.7-.2.3c-.1.1-.1.2-.3.3l-.2-.4 1.3.2h.3c.1 0 .2 0 .3.1.3.1.5.3.6.5.1.1.1.3.1.4s0 .3-.1.4c-.1.3-.4.5-.6.5h-.7l-.6-.1.2-.1v.1h-.1l-.8-.1h-.3c-.1 0-.2.1-.2.1l-.2.2v.2c0 .2.2.3.4.4l1.4.2c.1 0 .2 0 .4.1.2 0 .3.1.4.2s.2.2.3.4c-.1.1-.1.3-.1.4z"/><path d="m41 73.6s-.5 1-1.1 1.9c-.3.5-.6.9-.8 1.3l-.4.6-.3-.2s.1-.3.3-.6c.2-.4.5-.8.8-1.3l1.2-1.8z"/></g><g opacity=".35"><path d="m74.1 78.6s.5.7.9 1.5c.2.4.4.8.5 1.1s.2.5.2.5l-.4.2s-.1-.2-.3-.5-.4-.7-.6-1.1c-.4-.8-.7-1.6-.7-1.6z"/><path d="m76.3 77.9h-.1-.1s-.1 0-.1.1h-.2l-.5.7c-.2.2-.4.3-.6.2-.1 0-.1 0-.2-.1-.1 0-.1-.1-.1-.1-.1-.1-.1-.2-.2-.3v-.4c0-.1.1-.2.2-.3l.3-.4v.2l-.1-.1.1-.1.2-.3h.1v-.1-.2l-.1-.1h-.1c-.1 0-.1 0-.2.1l-.1.3-.5.6-.4-.1s0-.1-.1-.2l-.1-.2-.2-.4-.1-.2c0-.1 0 0-.1-.1h-.2l-.1.1v.2l.1.2.2.4.1.2.1.1.1.1.3.4h-1.8l-.1.1-.2.3.2-.3c0 .1 0 .1.1.1h.6l.1.2-.3-.2h1c.1 0 .1.1.2.1.1.1.2.2.2.3v.4c-.1.3-.4.5-.6.5h-.8-.1-.1v.2s0 .1.1.1h1.2l.1.1-.2-.1h1.5l-.2.1 1-1.3.5-.7c0-.1.1-.1.1-.2v-.1c.2.3.2.2.2.2zm.2-.4c.2.1.3.3.2.5 0 .1 0 .2-.1.3s-.1.1-.1.2l-.5.7-1 1.3-.1.1h-1.7l-.1-.1.2.1h-1c-.1 0-.2 0-.3-.1-.2-.1-.3-.3-.4-.5v-.3c0-.1.1-.2.2-.3s.2-.1.3-.2h1.1c.1 0 .1-.1.1-.1s0-.1-.1-.1h-1l-.1-.2.3.2h-.6c-.3-.1-.5-.4-.5-.7l.2-.3-.2.3c0-.3.2-.5.4-.6.1 0 .1-.1.2-.1h1.3l-.3.4-.1-.1v-.1l-.1-.2-.2-.4-.1-.2c0-.1-.1-.2-.1-.3s0-.3.1-.4l.3-.3c.2-.1.5-.1.7.1.1.1.2.2.2.3l.1.2.2.4.1.2c0 .1.1.1.1.3l-.4-.1.5-.6.1-.1c0-.1.1-.1.1-.2.1-.1.3-.2.5-.2.1 0 .2 0 .3.1.1 0 .2.1.2.2.1.2.1.4.1.6 0 .1-.1.2-.1.2l-.1.1-.3.2v-.2l.1.1-.1.1-.3.4-.1.1v.1c0 .2.2.2.4.1l.5-.7.1-.2c.1-.1.2-.1.3-.2h.3c.1.1.2.2.3.2z"/><path d="m74.4 79.2s.4.5.7 1.1c.1.3.3.6.4.8s.1.4.1.4l-.4.2s-.1-.1-.2-.3-.3-.5-.4-.8c-.4-.6-.6-1.2-.6-1.2z"/></g></g></svg>
