<?xml version="1.0" encoding="UTF-8"?>
<svg width="220px" height="80px" viewBox="0 0 220 80" version="1.1" xmlns="http://www.w3.org/2000/svg" xmlns:xlink="http://www.w3.org/1999/xlink">
    <!-- Generator: Sketch 52.2 (67145) - http://www.bohemiancoding.com/sketch -->
    <title>Badges/pocketcasts_large_light</title>
    <desc>Created with Sketch.</desc>
    <g id="Badges/pocketcasts_large_light" stroke="none" stroke-width="1" fill="none" fill-rule="evenodd">
        <path d="M12.819426,0.5 C8.83082523,0.5 7.12125345,0.830133539 5.35157091,1.77657012 C3.80907552,2.60150568 2.60150568,3.80907552 1.77657012,5.35157091 C0.830133539,7.12125345 0.5,8.83082523 0.5,12.819426 L0.5,67.180574 C0.5,71.1691748 0.830133539,72.8787465 1.77657012,74.6484291 C2.60150568,76.1909245 3.80907552,77.3984943 5.35157091,78.2234299 C7.12125345,79.1698665 8.83082523,79.5 12.819426,79.5 L207.180574,79.5 C211.169175,79.5 212.878747,79.1698665 214.648429,78.2234299 C216.190924,77.3984943 217.398494,76.1909245 218.22343,74.6484291 C219.169866,72.8787465 219.5,71.1691748 219.5,67.180574 L219.5,12.819426 C219.5,8.83082523 219.169866,7.12125345 218.22343,5.35157091 C217.398494,3.80907552 216.190924,2.60150568 214.648429,1.77657012 C212.878747,0.830133539 211.169175,0.5 207.180574,0.5 L12.819426,0.5 Z" id="Rectangle-4" stroke="#B8C3C9" fill="#FFFFFF"></path>
        <g id="Pocket-Casts-Roundel---Red" transform="translate(10.000000, 16.000000)">
            <g id="Group">
                <path d="M48,24 C48,37.2551111 37.2551111,48 24,48 C10.7448889,48 0,37.2551111 0,24 C0,10.7448889 10.7448889,0 24,0 C37.2551111,0 48,10.7448889 48,24" id="Fill-23" fill="#F43E37"></path>
                <g id="Glyph" transform="translate(5.333333, 5.333333)" fill="#FFFFFF">
                    <path d="M0,18.5 C0,8.28273213 8.28273213,0 18.5,0 C28.7172679,0 37,8.28273213 37,18.5 L32.375,18.5 C32.375,10.8370491 26.1629509,4.625 18.5,4.625 C10.8370491,4.625 4.625,10.8370491 4.625,18.5 C4.625,26.1629509 10.8370491,32.375 18.5,32.375 L18.5,37 C8.28273213,37 0,28.7172679 0,18.5 Z M18.5,29.6 C12.3696393,29.6 7.4,24.6303607 7.4,18.5 C7.4,12.3696393 12.3696393,7.4 18.5,7.4 C24.6303607,7.4 29.6,12.3696393 29.6,18.5 L25.5636364,18.5 C25.5636364,14.5988614 22.4011386,11.4363636 18.5,11.4363636 C14.5988614,11.4363636 11.4363636,14.5988614 11.4363636,18.5 C11.4363636,22.4011386 14.5988614,25.5636364 18.5,25.5636364 L18.5,29.6 Z" id="Path"></path>
                </g>
            </g>
        </g>
        <text id="Listen-on" opacity="0.5" font-family="RetinaBook, Retina" font-size="14" font-weight="300" letter-spacing="-0.200000003" fill="#000000">
            <tspan x="69" y="31">Listen o</tspan>
            <tspan x="115.994" y="31">n</tspan>
        </text>
        <g id="Group-29" transform="translate(69.000000, 36.000000)" fill="#000000">
            <path d="M5.75210446,12.0847746 C7.92165625,12.0847746 9.00643214,10.9114413 9.00643214,8.41740952 C9.00643214,5.86471111 7.92165625,4.89671111 5.81074099,4.89671111 L4.75458531,4.89671111 L4.75458531,12.0847746 L5.75210446,12.0847746 Z M0.239572128,21.6781714 L0.239572128,1.14134603 L5.81074099,1.14134603 C10.8248628,1.14134603 13.5228414,3.51804444 13.5228414,8.27074286 C13.5228414,13.5807746 10.3264522,15.781473 5.92801406,15.781473 L4.78390358,15.781473 L4.78390358,21.6781714 L0.239572128,21.6781714 Z" id="Fill-1"></path>
            <path d="M20.1474436,9.76688254 C18.8274235,9.76688254 18.00721,11.175581 18.00721,14.0502476 C18.00721,16.954946 18.8567417,18.3922794 20.2060801,18.3922794 C21.5254021,18.3922794 22.3756319,16.954946 22.3756319,14.079581 C22.3756319,11.175581 21.4960839,9.76688254 20.1474436,9.76688254 M20.1767618,21.9716444 C16.7165082,21.9716444 13.959893,19.3016127 13.959893,14.1089143 C13.959893,8.85754921 16.7458265,6.15818413 20.2060801,6.15818413 C23.6370154,6.15818413 26.4222508,8.85754921 26.4222508,14.0502476 C26.4222508,19.2722794 23.6370154,21.9716444 20.1767618,21.9716444" id="Fill-3"></path>
            <path d="M33.8972223,21.9130476 C29.8212851,21.9130476 27.4164891,19.0670159 27.4164891,14.1089841 C27.4164891,9.26828571 29.8799217,6.21692063 34.1317685,6.21692063 C35.4811068,6.21692063 36.5065481,6.48092063 37.5040673,6.86225397 L36.8583674,10.5589524 C36.1547289,10.2362857 35.3345155,9.97228571 34.4835877,9.97228571 C32.5185657,9.97228571 31.4931244,11.673619 31.4931244,14.0503175 C31.4931244,16.6323492 32.5185657,18.1576825 34.5422242,18.1576825 C35.3051972,18.1576825 36.0960924,17.9230159 36.9463222,17.6003492 L37.5920221,21.150381 C36.5651847,21.590381 35.2172424,21.9130476 33.8972223,21.9130476" id="Fill-5"></path>
            <polygon id="Fill-7" points="43.3659058 14.4023873 43.3659058 21.6784508 39.114059 21.6784508 39.114059 0.524926984 43.3659058 0.524926984 43.3659058 13.053054 46.8261594 6.48099048 51.488462 6.48099048 47.3538883 13.757054 51.6057351 21.6784508 46.884796 21.6784508"></polygon>
            <path d="M59.1396223,13.0529841 C59.0516675,10.7642857 58.3766493,9.41495238 57.0873436,9.41495238 C55.7673235,9.41495238 55.0930034,10.8229524 55.0043505,13.0529841 L59.1396223,13.0529841 Z M51.0456864,14.1383175 C51.0456864,8.91628571 53.7150448,6.15825397 57.0873436,6.15825397 C60.6641723,6.15825397 63.0689682,8.88695238 63.0689682,14.2263175 L63.0689682,15.6056825 L55.0043505,15.6056825 C55.1516399,17.6883492 56.2950524,18.7150159 58.1714215,18.7150159 C59.2862137,18.7150159 60.6055357,18.3630159 61.8075847,17.8056825 L62.5705577,20.798381 C61.1039463,21.5317143 59.3741685,21.9130476 57.7316475,21.9130476 C54.0075294,21.9130476 51.0456864,19.9477143 51.0456864,14.1383175 Z" id="Fill-9"></path>
            <path d="M65.3532801,17.1308762 L65.3532801,9.97214603 L63.7107591,9.97214603 L63.7107591,6.48078095 L65.3532801,6.48078095 L65.3532801,2.49144762 L69.5758087,2.49144762 L69.5758087,6.48078095 L72.8015161,6.48078095 L72.8015161,9.97214603 L69.5758087,9.97214603 L69.5758087,16.5148762 C69.5758087,17.7762095 70.2508269,18.3042095 71.3935412,18.3042095 C71.8926498,18.3042095 72.3324239,18.2162095 72.8015161,18.0988762 L72.8015161,21.5609079 C72.1565142,21.7662413 71.2469499,21.8835746 70.1921903,21.8835746 C66.9664829,21.8835746 65.3532801,20.5635746 65.3532801,17.1308762" id="Fill-11"></path>
            <path d="M87.0788143,21.9130476 C81.7414935,21.9130476 78.398513,18.5096825 78.398513,11.4389524 C78.398513,4.63292063 81.8294483,0.906888889 87.1081326,0.906888889 C88.8679267,0.906888889 90.3338401,1.25888889 91.4772525,1.69888889 L90.7736141,5.86492063 C89.8647478,5.4835873 88.8092901,5.1315873 87.5479066,5.1315873 C84.7333529,5.1315873 83.0615136,7.36161905 83.0615136,11.3802857 C83.0615136,15.5169841 84.6453981,17.6883492 87.6358614,17.6883492 C88.7799719,17.6883492 89.8647478,17.3950159 90.8029323,16.9843492 L91.535889,21.0330476 C90.2752035,21.5610476 88.7213353,21.9130476 87.0788143,21.9130476" id="Fill-13"></path>
            <path d="M99.9198664,18.4513651 L99.9198664,14.8426667 C99.5094107,14.7546667 99.0403184,14.7253333 98.5419078,14.7253333 C97.6623598,14.7253333 97.1639493,14.9013333 96.8121301,15.224 C96.4896291,15.576 96.3130215,16.104 96.3130215,16.8666667 C96.3130215,18.3926984 96.9880397,19.0086984 98.1600723,19.0086984 C98.7471357,19.0086984 99.3628193,18.7740317 99.9198664,18.4513651 M96.4009763,21.8840635 C94.0261966,21.8840635 92.3543573,20.3580317 92.3543573,17.072 C92.3543573,15.6053333 92.7655111,14.3733333 93.5571043,13.6099683 C94.4073341,12.7299683 95.6680196,12.2899683 97.574405,12.2899683 C98.3953165,12.2899683 99.216228,12.4073016 99.9198664,12.5539683 L99.9198664,11.7033016 C99.9198664,10.4126349 99.3335011,9.70793651 97.7503146,9.70793651 C96.5189474,9.70793651 95.1989273,10.0606349 94.0261966,10.5593016 L93.2346034,7.33193651 C94.7591533,6.71593651 96.5482657,6.24660317 98.5125896,6.24660317 C102.353981,6.24660317 104.084456,7.88926984 104.084456,11.3806349 L104.084456,18.9793651 L104.406957,21.6787302 L100.712158,21.6787302 L100.184429,20.3580317 C99.0696367,21.3267302 97.9848608,21.8840635 96.4009763,21.8840635" id="Fill-15"></path>
            <path d="M111.148065,21.942381 C109.095786,21.942381 107.189401,21.414381 105.547578,20.534381 L106.397807,17.1016825 C108.01101,17.9816825 109.622817,18.5096825 111.089428,18.5096825 C112.174902,18.5096825 112.761268,18.0403492 112.761268,17.3950159 C112.761268,16.7496825 112.409448,16.4563492 110.356472,15.6350159 C107.511902,14.4903175 106.104625,13.4049841 106.104625,10.8522857 C106.104625,8.0355873 108.040328,6.21692063 111.441247,6.21692063 C113.171025,6.21692063 114.75491,6.6275873 116.192203,7.33228571 L115.341275,10.7642857 C114.021953,10.089619 112.673313,9.64961905 111.441247,9.64961905 C110.532381,9.64961905 110.033971,10.0309524 110.033971,10.6469524 C110.033971,11.233619 110.356472,11.5269524 112.38013,12.3489841 C115.576519,13.6103175 116.689915,14.7836508 116.689915,17.1896825 C116.689915,20.358381 114.461727,21.942381 111.148065,21.942381" id="Fill-17"></path>
            <path d="M119.121796,17.1308762 L119.121796,9.97214603 L117.479275,9.97214603 L117.479275,6.48078095 L119.121796,6.48078095 L119.121796,2.49144762 L123.344324,2.49144762 L123.344324,6.48078095 L126.570032,6.48078095 L126.570032,9.97214603 L123.344324,9.97214603 L123.344324,16.5148762 C123.344324,17.7762095 124.019343,18.3042095 125.162057,18.3042095 C125.661166,18.3042095 126.10094,18.2162095 126.570032,18.0988762 L126.570032,21.5609079 C125.92503,21.7662413 125.015466,21.8835746 123.960706,21.8835746 C120.734999,21.8835746 119.121796,20.5635746 119.121796,17.1308762" id="Fill-19"></path>
            <path d="M133.458498,21.942381 C131.40622,21.942381 129.499834,21.414381 127.858011,20.534381 L128.708241,17.1016825 C130.321444,17.9816825 131.93325,18.5096825 133.399862,18.5096825 C134.485336,18.5096825 135.071701,18.0403492 135.071701,17.3950159 C135.071701,16.7496825 134.719882,16.4563492 132.666905,15.6350159 C129.822335,14.4903175 128.415058,13.4049841 128.415058,10.8522857 C128.415058,8.0355873 130.350762,6.21692063 133.751681,6.21692063 C135.481459,6.21692063 137.065343,6.6275873 138.502637,7.33228571 L137.651709,10.7642857 C136.332387,10.089619 134.983746,9.64961905 133.751681,9.64961905 C132.842815,9.64961905 132.344404,10.0309524 132.344404,10.6469524 C132.344404,11.233619 132.666905,11.5269524 134.690564,12.3489841 C137.886953,13.6103175 139.000349,14.7836508 139.000349,17.1896825 C139.000349,20.358381 136.772161,21.942381 133.458498,21.942381" id="Fill-21"></path>
        </g>
    </g>
</svg>
