<svg width="318" height="224" viewBox="0 0 318 224" fill="none" xmlns="http://www.w3.org/2000/svg">
<rect x="0.5" width="179.5" height="64" rx="2" fill="white"/>
<path d="M38.6914 38.0117L33.6055 24.0781H31.9297L26.8906 37.7422C26.6484 38.4219 26.4258 38.9336 26.2227 39.2773C26.0273 39.6211 25.793 39.8633 25.5195 40.0039C25.2461 40.1445 24.8672 40.2461 24.3828 40.3086V41H29.4688V40.3086C28.8672 40.2305 28.4297 40.1172 28.1562 39.9688C27.8906 39.8203 27.7578 39.5781 27.7578 39.2422C27.7656 38.9062 27.8789 38.4258 28.0977 37.8008L32.1289 26.0938H31.8242L36.0078 38C36.2109 38.5625 36.3047 39 36.2891 39.3125C36.2812 39.6172 36.1445 39.8438 35.8789 39.9922C35.6133 40.1328 35.1875 40.2383 34.6016 40.3086V41H41.0703V40.3086C40.625 40.2461 40.2656 40.1523 39.9922 40.0273C39.7188 39.8945 39.4883 39.6758 39.3008 39.3711C39.1133 39.0586 38.9102 38.6055 38.6914 38.0117ZM28.5664 35.0586H36.1016L35.7734 34.168H28.8945L28.5664 35.0586ZM45.3297 41.2344C46.1891 41.2344 46.9508 41.0664 47.6148 40.7305C48.2867 40.3945 48.7789 39.9922 49.0914 39.5234C49.1695 39.8828 49.3102 40.1836 49.5133 40.4258C49.7242 40.668 49.982 40.8555 50.2867 40.9883C50.5914 41.1133 50.9391 41.1758 51.3297 41.1758C51.7359 41.1758 52.0992 41.1211 52.4195 41.0117C52.7398 40.9023 52.9937 40.7812 53.1812 40.6484V40.0156C53.0172 40.0859 52.8102 40.1211 52.5602 40.1211C52.2086 40.1211 51.9078 40.0117 51.6578 39.793C51.4156 39.5742 51.2945 39.2031 51.2945 38.6797V32.7852C51.2945 31.5508 50.9 30.6445 50.1109 30.0664C49.3297 29.4805 48.2867 29.1875 46.982 29.1875C46.1148 29.1875 45.3258 29.3008 44.6148 29.5273C43.9117 29.7539 43.3492 30.0664 42.9273 30.4648C42.5055 30.8633 42.2945 31.3242 42.2945 31.8477C42.2945 32.2148 42.4195 32.5195 42.6695 32.7617C42.9273 32.9961 43.232 33.1133 43.5836 33.1133C43.9508 33.1133 44.2594 32.9961 44.5094 32.7617C44.7594 32.5273 44.8844 32.2383 44.8844 31.8945C44.8844 31.5508 44.7672 31.2578 44.5328 31.0156C44.2984 30.7734 44.0211 30.6523 43.7008 30.6523C43.4039 30.6523 43.1422 30.7891 42.9156 31.0625C42.6891 31.3281 42.5719 31.6562 42.5641 32.0469H43.0328C43.1266 31.6484 43.3219 31.3125 43.6187 31.0391C43.9156 30.7578 44.2828 30.5469 44.7203 30.4062C45.1578 30.2578 45.6383 30.1836 46.1617 30.1836C47.0133 30.1836 47.7047 30.3984 48.2359 30.8281C48.7672 31.2578 49.0328 32.0078 49.0328 33.0781V38.8086C48.775 39.1914 48.4273 39.4922 47.9898 39.7109C47.5602 39.9219 47.0719 40.0273 46.525 40.0273C45.8766 40.0273 45.3375 39.8438 44.9078 39.4766C44.4859 39.1016 44.275 38.582 44.275 37.918C44.275 37.2617 44.5094 36.7305 44.9781 36.3242C45.4547 35.9102 46.2789 35.5703 47.4508 35.3047L49.9469 34.7656V33.9219L46.4078 34.6953C45.3531 34.9219 44.4937 35.1992 43.8297 35.5273C43.1734 35.8555 42.693 36.25 42.3883 36.7109C42.0836 37.1641 41.9312 37.6992 41.9312 38.3164C41.9312 39.1758 42.2555 39.8789 42.9039 40.4258C43.5523 40.9648 44.3609 41.2344 45.3297 41.2344Z" fill="black"/>
<circle cx="152" cy="24" r="4" fill="#264447"/>
<circle cx="152" cy="40" r="4" fill="#FAE3CA"/>
<rect x="196" width="179.5" height="64" rx="3" fill="#FAE3CA"/>
<path d="M222.83 41H220.614L227.023 23.5455H229.205L235.614 41H233.398L228.182 26.3068H228.045L222.83 41ZM223.648 34.1818H232.58V36.0568H223.648V34.1818ZM241.812 41.3068C240.982 41.3068 240.23 41.1506 239.553 40.8381C238.877 40.5199 238.34 40.0625 237.943 39.4659C237.545 38.8636 237.346 38.1364 237.346 37.2841C237.346 36.5341 237.494 35.9261 237.789 35.4602C238.085 34.9886 238.48 34.6193 238.974 34.3523C239.468 34.0852 240.014 33.8864 240.61 33.7557C241.212 33.6193 241.818 33.5114 242.426 33.4318C243.221 33.3295 243.866 33.2528 244.36 33.2017C244.86 33.1449 245.224 33.0511 245.451 32.9205C245.684 32.7898 245.801 32.5625 245.801 32.2386V32.1705C245.801 31.3295 245.57 30.6761 245.11 30.2102C244.656 29.7443 243.965 29.5114 243.039 29.5114C242.079 29.5114 241.326 29.7216 240.781 30.142C240.235 30.5625 239.852 31.0114 239.63 31.4886L237.721 30.8068C238.062 30.0114 238.516 29.392 239.085 28.9489C239.659 28.5 240.284 28.1875 240.96 28.0114C241.641 27.8295 242.312 27.7386 242.971 27.7386C243.391 27.7386 243.874 27.7898 244.42 27.892C244.971 27.9886 245.502 28.1903 246.014 28.4972C246.531 28.804 246.96 29.267 247.301 29.8864C247.641 30.5057 247.812 31.3352 247.812 32.375V41H245.801V39.2273H245.698C245.562 39.5114 245.335 39.8153 245.016 40.1392C244.698 40.4631 244.275 40.7386 243.747 40.9659C243.218 41.1932 242.573 41.3068 241.812 41.3068ZM242.119 39.5C242.914 39.5 243.585 39.3438 244.13 39.0312C244.681 38.7188 245.096 38.3153 245.374 37.821C245.659 37.3267 245.801 36.8068 245.801 36.2614V34.4205C245.715 34.5227 245.528 34.6165 245.238 34.7017C244.954 34.7812 244.624 34.8523 244.249 34.9148C243.88 34.9716 243.519 35.0227 243.167 35.0682C242.82 35.108 242.539 35.142 242.323 35.1705C241.801 35.2386 241.312 35.3494 240.857 35.5028C240.409 35.6506 240.045 35.875 239.766 36.1761C239.494 36.4716 239.357 36.875 239.357 37.3864C239.357 38.0852 239.616 38.6136 240.133 38.9716C240.656 39.3239 241.318 39.5 242.119 39.5Z" fill="black"/>
<rect x="0.5" y="80" width="179.5" height="64" rx="3" fill="black"/>
<path d="M27.3295 121H25.1136L31.5227 103.545H33.7045L40.1136 121H37.8977L32.6818 106.307H32.5455L27.3295 121ZM28.1477 114.182H37.0795V116.057H28.1477V114.182ZM46.3119 121.307C45.4824 121.307 44.7295 121.151 44.0534 120.838C43.3773 120.52 42.8403 120.062 42.4426 119.466C42.0449 118.864 41.846 118.136 41.846 117.284C41.846 116.534 41.9937 115.926 42.2892 115.46C42.5847 114.989 42.9795 114.619 43.4739 114.352C43.9682 114.085 44.5136 113.886 45.1102 113.756C45.7125 113.619 46.3176 113.511 46.9256 113.432C47.721 113.33 48.3659 113.253 48.8602 113.202C49.3602 113.145 49.7239 113.051 49.9511 112.92C50.1841 112.79 50.3006 112.562 50.3006 112.239V112.17C50.3006 111.33 50.0705 110.676 49.6102 110.21C49.1557 109.744 48.4653 109.511 47.5392 109.511C46.579 109.511 45.8261 109.722 45.2807 110.142C44.7352 110.562 44.3517 111.011 44.1301 111.489L42.221 110.807C42.5619 110.011 43.0165 109.392 43.5847 108.949C44.1585 108.5 44.7835 108.187 45.4597 108.011C46.1415 107.83 46.8119 107.739 47.471 107.739C47.8915 107.739 48.3744 107.79 48.9199 107.892C49.471 107.989 50.0023 108.19 50.5136 108.497C51.0307 108.804 51.4597 109.267 51.8006 109.886C52.1415 110.506 52.3119 111.335 52.3119 112.375V121H50.3006V119.227H50.1983C50.0619 119.511 49.8347 119.815 49.5165 120.139C49.1983 120.463 48.775 120.739 48.2466 120.966C47.7182 121.193 47.0733 121.307 46.3119 121.307ZM46.6187 119.5C47.4142 119.5 48.0847 119.344 48.6301 119.031C49.1812 118.719 49.596 118.315 49.8744 117.821C50.1585 117.327 50.3006 116.807 50.3006 116.261V114.42C50.2153 114.523 50.0278 114.616 49.7381 114.702C49.454 114.781 49.1244 114.852 48.7494 114.915C48.3801 114.972 48.0193 115.023 47.667 115.068C47.3205 115.108 47.0392 115.142 46.8233 115.17C46.3006 115.239 45.8119 115.349 45.3574 115.503C44.9085 115.651 44.5449 115.875 44.2665 116.176C43.9937 116.472 43.8574 116.875 43.8574 117.386C43.8574 118.085 44.1159 118.614 44.633 118.972C45.1557 119.324 45.8176 119.5 46.6187 119.5Z" fill="white"/>
<circle cx="152" cy="104" r="4" fill="white"/>
<circle cx="152" cy="120" r="4" fill="#DE7700"/>
<rect x="196" y="80" width="179.5" height="64" rx="3" fill="#424CBF"/>
<path d="M234.191 118.012L229.105 104.078H227.43L222.391 117.742C222.148 118.422 221.926 118.934 221.723 119.277C221.527 119.621 221.293 119.863 221.02 120.004C220.746 120.145 220.367 120.246 219.883 120.309V121H224.969V120.309C224.367 120.23 223.93 120.117 223.656 119.969C223.391 119.82 223.258 119.578 223.258 119.242C223.266 118.906 223.379 118.426 223.598 117.801L227.629 106.094H227.324L231.508 118C231.711 118.562 231.805 119 231.789 119.312C231.781 119.617 231.645 119.844 231.379 119.992C231.113 120.133 230.688 120.238 230.102 120.309V121H236.57V120.309C236.125 120.246 235.766 120.152 235.492 120.027C235.219 119.895 234.988 119.676 234.801 119.371C234.613 119.059 234.41 118.605 234.191 118.012ZM224.066 115.059H231.602L231.273 114.168H224.395L224.066 115.059ZM240.83 121.234C241.689 121.234 242.451 121.066 243.115 120.73C243.787 120.395 244.279 119.992 244.591 119.523C244.67 119.883 244.81 120.184 245.013 120.426C245.224 120.668 245.482 120.855 245.787 120.988C246.091 121.113 246.439 121.176 246.83 121.176C247.236 121.176 247.599 121.121 247.92 121.012C248.24 120.902 248.494 120.781 248.681 120.648V120.016C248.517 120.086 248.31 120.121 248.06 120.121C247.709 120.121 247.408 120.012 247.158 119.793C246.916 119.574 246.795 119.203 246.795 118.68V112.785C246.795 111.551 246.4 110.645 245.611 110.066C244.83 109.48 243.787 109.188 242.482 109.188C241.615 109.188 240.826 109.301 240.115 109.527C239.412 109.754 238.849 110.066 238.427 110.465C238.005 110.863 237.795 111.324 237.795 111.848C237.795 112.215 237.92 112.52 238.17 112.762C238.427 112.996 238.732 113.113 239.084 113.113C239.451 113.113 239.759 112.996 240.009 112.762C240.259 112.527 240.384 112.238 240.384 111.895C240.384 111.551 240.267 111.258 240.033 111.016C239.798 110.773 239.521 110.652 239.201 110.652C238.904 110.652 238.642 110.789 238.416 111.062C238.189 111.328 238.072 111.656 238.064 112.047H238.533C238.627 111.648 238.822 111.312 239.119 111.039C239.416 110.758 239.783 110.547 240.22 110.406C240.658 110.258 241.138 110.184 241.662 110.184C242.513 110.184 243.205 110.398 243.736 110.828C244.267 111.258 244.533 112.008 244.533 113.078V118.809C244.275 119.191 243.927 119.492 243.49 119.711C243.06 119.922 242.572 120.027 242.025 120.027C241.377 120.027 240.837 119.844 240.408 119.477C239.986 119.102 239.775 118.582 239.775 117.918C239.775 117.262 240.009 116.73 240.478 116.324C240.955 115.91 241.779 115.57 242.951 115.305L245.447 114.766V113.922L241.908 114.695C240.853 114.922 239.994 115.199 239.33 115.527C238.673 115.855 238.193 116.25 237.888 116.711C237.584 117.164 237.431 117.699 237.431 118.316C237.431 119.176 237.755 119.879 238.404 120.426C239.052 120.965 239.861 121.234 240.83 121.234Z" fill="white"/>
<rect x="0.5" y="160" width="179.5" height="64" rx="3" fill="#64589E"/>
<path d="M27.3295 201H25.1136L31.5227 183.545H33.7045L40.1136 201H37.8977L32.6818 186.307H32.5455L27.3295 201ZM28.1477 194.182H37.0795V196.057H28.1477V194.182ZM46.3119 201.307C45.4824 201.307 44.7295 201.151 44.0534 200.838C43.3773 200.52 42.8403 200.062 42.4426 199.466C42.0449 198.864 41.846 198.136 41.846 197.284C41.846 196.534 41.9937 195.926 42.2892 195.46C42.5847 194.989 42.9795 194.619 43.4739 194.352C43.9682 194.085 44.5136 193.886 45.1102 193.756C45.7125 193.619 46.3176 193.511 46.9256 193.432C47.721 193.33 48.3659 193.253 48.8602 193.202C49.3602 193.145 49.7239 193.051 49.9511 192.92C50.1841 192.79 50.3006 192.562 50.3006 192.239V192.17C50.3006 191.33 50.0705 190.676 49.6102 190.21C49.1557 189.744 48.4653 189.511 47.5392 189.511C46.579 189.511 45.8261 189.722 45.2807 190.142C44.7352 190.562 44.3517 191.011 44.1301 191.489L42.221 190.807C42.5619 190.011 43.0165 189.392 43.5847 188.949C44.1585 188.5 44.7835 188.187 45.4597 188.011C46.1415 187.83 46.8119 187.739 47.471 187.739C47.8915 187.739 48.3744 187.79 48.9199 187.892C49.471 187.989 50.0023 188.19 50.5136 188.497C51.0307 188.804 51.4597 189.267 51.8006 189.886C52.1415 190.506 52.3119 191.335 52.3119 192.375V201H50.3006V199.227H50.1983C50.0619 199.511 49.8347 199.815 49.5165 200.139C49.1983 200.463 48.775 200.739 48.2466 200.966C47.7182 201.193 47.0733 201.307 46.3119 201.307ZM46.6187 199.5C47.4142 199.5 48.0847 199.344 48.6301 199.031C49.1812 198.719 49.596 198.315 49.8744 197.821C50.1585 197.327 50.3006 196.807 50.3006 196.261V194.42C50.2153 194.523 50.0278 194.616 49.7381 194.702C49.454 194.781 49.1244 194.852 48.7494 194.915C48.3801 194.972 48.0193 195.023 47.667 195.068C47.3205 195.108 47.0392 195.142 46.8233 195.17C46.3006 195.239 45.8119 195.349 45.3574 195.503C44.9085 195.651 44.5449 195.875 44.2665 196.176C43.9937 196.472 43.8574 196.875 43.8574 197.386C43.8574 198.085 44.1159 198.614 44.633 198.972C45.1557 199.324 45.8176 199.5 46.6187 199.5Z" fill="white"/>
<circle cx="152" cy="184" r="4" fill="white"/>
<circle cx="152" cy="200" r="4" fill="black"/>
<rect x="196" y="160" width="179.5" height="64" rx="3" fill="#B5AFD0"/>
<path d="M234.191 198.012L229.105 184.078H227.43L222.391 197.742C222.148 198.422 221.926 198.934 221.723 199.277C221.527 199.621 221.293 199.863 221.02 200.004C220.746 200.145 220.367 200.246 219.883 200.309V201H224.969V200.309C224.367 200.23 223.93 200.117 223.656 199.969C223.391 199.82 223.258 199.578 223.258 199.242C223.266 198.906 223.379 198.426 223.598 197.801L227.629 186.094H227.324L231.508 198C231.711 198.562 231.805 199 231.789 199.312C231.781 199.617 231.645 199.844 231.379 199.992C231.113 200.133 230.688 200.238 230.102 200.309V201H236.57V200.309C236.125 200.246 235.766 200.152 235.492 200.027C235.219 199.895 234.988 199.676 234.801 199.371C234.613 199.059 234.41 198.605 234.191 198.012ZM224.066 195.059H231.602L231.273 194.168H224.395L224.066 195.059ZM240.83 201.234C241.689 201.234 242.451 201.066 243.115 200.73C243.787 200.395 244.279 199.992 244.591 199.523C244.67 199.883 244.81 200.184 245.013 200.426C245.224 200.668 245.482 200.855 245.787 200.988C246.091 201.113 246.439 201.176 246.83 201.176C247.236 201.176 247.599 201.121 247.92 201.012C248.24 200.902 248.494 200.781 248.681 200.648V200.016C248.517 200.086 248.31 200.121 248.06 200.121C247.709 200.121 247.408 200.012 247.158 199.793C246.916 199.574 246.795 199.203 246.795 198.68V192.785C246.795 191.551 246.4 190.645 245.611 190.066C244.83 189.48 243.787 189.188 242.482 189.188C241.615 189.188 240.826 189.301 240.115 189.527C239.412 189.754 238.849 190.066 238.427 190.465C238.005 190.863 237.795 191.324 237.795 191.848C237.795 192.215 237.92 192.52 238.17 192.762C238.427 192.996 238.732 193.113 239.084 193.113C239.451 193.113 239.759 192.996 240.009 192.762C240.259 192.527 240.384 192.238 240.384 191.895C240.384 191.551 240.267 191.258 240.033 191.016C239.798 190.773 239.521 190.652 239.201 190.652C238.904 190.652 238.642 190.789 238.416 191.062C238.189 191.328 238.072 191.656 238.064 192.047H238.533C238.627 191.648 238.822 191.312 239.119 191.039C239.416 190.758 239.783 190.547 240.22 190.406C240.658 190.258 241.138 190.184 241.662 190.184C242.513 190.184 243.205 190.398 243.736 190.828C244.267 191.258 244.533 192.008 244.533 193.078V198.809C244.275 199.191 243.927 199.492 243.49 199.711C243.06 199.922 242.572 200.027 242.025 200.027C241.377 200.027 240.837 199.844 240.408 199.477C239.986 199.102 239.775 198.582 239.775 197.918C239.775 197.262 240.009 196.73 240.478 196.324C240.955 195.91 241.779 195.57 242.951 195.305L245.447 194.766V193.922L241.908 194.695C240.853 194.922 239.994 195.199 239.33 195.527C238.673 195.855 238.193 196.25 237.888 196.711C237.584 197.164 237.431 197.699 237.431 198.316C237.431 199.176 237.755 199.879 238.404 200.426C239.052 200.965 239.861 201.234 240.83 201.234Z" fill="#2B2647"/>
</svg>
