<svg version="1.1" xmlns="http://www.w3.org/2000/svg" xmlns:xlink="http://www.w3.org/1999/xlink" x="0px" y="0px" width="751px"
	 height="96px" viewBox="0 0 751 96" enable-background="new 0 0 751 96" xml:space="preserve">
<g id="Product_name">
	<g id="_x28_type_product_name_here_x29_">
		<g>
			<path fill="#5F6368" d="M390.9,7.15h8.83l-17.57,65.87h-8.65L359.34,29.6h-0.37l-14.17,43.42h-8.65L317.85,7.15h8.83l13.89,51.8
				h0.37l14.26-42.96h7.91l14.26,42.96h0.37L390.9,7.15z"/>
			<path fill="#5F6368" d="M398.93,50.48c0-6.93,2.18-12.66,6.53-17.2c4.42-4.54,9.97-6.81,16.65-6.81c6.68,0,12.21,2.27,16.56,6.81
				c4.42,4.54,6.62,10.27,6.62,17.2c0,6.99-2.21,12.73-6.62,17.2c-4.36,4.54-9.88,6.81-16.56,6.81c-6.69,0-12.24-2.27-16.65-6.81
				C401.11,63.15,398.93,57.41,398.93,50.48z M407.39,50.48c0,4.85,1.41,8.77,4.23,11.78c2.82,3.01,6.32,4.51,10.49,4.51
				c4.17,0,7.67-1.5,10.49-4.51c2.82-3,4.23-6.93,4.23-11.78c0-4.78-1.41-8.68-4.23-11.68c-2.88-3.07-6.38-4.6-10.49-4.6
				c-4.11,0-7.61,1.53-10.49,4.6C408.8,41.8,407.39,45.7,407.39,50.48z"/>
			<path fill="#5F6368" d="M459.77,73.02h-8.46V27.94h8.1v7.36h0.37c0.86-2.39,2.62-4.43,5.29-6.12c2.67-1.69,5.29-2.53,7.87-2.53
				c2.45,0,4.54,0.37,6.26,1.1l-2.58,8.19c-1.04-0.43-2.7-0.64-4.97-0.64c-3.19,0-5.97,1.29-8.33,3.86
				c-2.36,2.58-3.54,5.58-3.54,9.02V73.02z"/>
			<path fill="#5F6368" d="M522.75,73.02h-10.21l-14.08-21.25l-6.9,6.81v14.44h-8.46V7.15h8.46v40.57l19.5-19.78h10.86v0.37
				l-17.57,17.48l18.4,26.86V73.02z"/>
			<path fill="#5F6368" d="M559.38,60.51c0,3.93-1.72,7.24-5.15,9.94c-3.44,2.7-7.76,4.05-12.97,4.05c-4.54,0-8.53-1.18-11.96-3.54
				c-3.44-2.36-5.89-5.47-7.36-9.34l7.54-3.22c1.1,2.7,2.71,4.8,4.83,6.3c2.12,1.5,4.43,2.25,6.95,2.25c2.7,0,4.95-0.58,6.76-1.75
				c1.81-1.16,2.71-2.54,2.71-4.14c0-2.88-2.21-5-6.62-6.35l-7.73-1.93c-8.77-2.21-13.16-6.44-13.16-12.7
				c0-4.11,1.67-7.41,5.01-9.89c3.34-2.48,7.62-3.73,12.83-3.73c3.99,0,7.59,0.95,10.81,2.85c3.22,1.9,5.47,4.45,6.76,7.64
				l-7.54,3.13c-0.86-1.9-2.25-3.39-4.19-4.46c-1.93-1.07-4.09-1.61-6.49-1.61c-2.21,0-4.19,0.55-5.93,1.66s-2.62,2.45-2.62,4.05
				c0,2.58,2.42,4.42,7.27,5.52l6.81,1.75C554.9,49.19,559.38,53.7,559.38,60.51z"/>
			<path fill="#5F6368" d="M588.77,74.49c-3.31,0-6.33-0.71-9.06-2.12c-2.73-1.41-4.83-3.28-6.3-5.61h-0.37l0.37,6.26v19.87h-8.46
				V27.94h8.1v6.26h0.37c1.47-2.33,3.57-4.2,6.3-5.61c2.73-1.41,5.75-2.12,9.06-2.12c5.95,0,10.98,2.33,15.09,6.99
				c4.23,4.72,6.35,10.4,6.35,17.02c0,6.69-2.12,12.36-6.35,17.02C599.75,72.16,594.72,74.49,588.77,74.49z M587.39,66.77
				c4.05,0,7.45-1.53,10.21-4.6c2.76-3,4.14-6.9,4.14-11.68c0-4.72-1.38-8.62-4.14-11.68c-2.76-3.07-6.16-4.6-10.21-4.6
				c-4.11,0-7.54,1.53-10.3,4.6c-2.7,3.07-4.05,6.96-4.05,11.68c0,4.78,1.35,8.71,4.05,11.78
				C579.84,65.26,583.28,66.77,587.39,66.77z"/>
			<path fill="#5F6368" d="M633.39,26.47c6.26,0,11.19,1.67,14.81,5.01c3.62,3.34,5.43,7.93,5.43,13.75v27.78h-8.1v-6.26h-0.37
				c-3.5,5.15-8.16,7.73-13.98,7.73c-4.97,0-9.12-1.47-12.47-4.42c-3.34-2.94-5.01-6.62-5.01-11.04c0-4.66,1.76-8.37,5.29-11.13
				c3.53-2.76,8.23-4.14,14.12-4.14c5.03,0,9.17,0.92,12.42,2.76v-1.93c0-2.94-1.17-5.44-3.5-7.5c-2.33-2.05-5.06-3.08-8.19-3.08
				c-4.72,0-8.46,1.99-11.22,5.98l-7.45-4.69C619.28,29.41,625.35,26.47,633.39,26.47z M622.44,59.22c0,2.21,0.93,4.05,2.81,5.52
				c1.87,1.47,4.06,2.21,6.58,2.21c3.56,0,6.73-1.32,9.52-3.96c2.79-2.64,4.19-5.73,4.19-9.29c-2.64-2.08-6.32-3.13-11.04-3.13
				c-3.44,0-6.3,0.83-8.6,2.48C623.59,54.71,622.44,56.77,622.44,59.22z"/>
			<path fill="#5F6368" d="M682.32,74.49c-6.69,0-12.24-2.27-16.65-6.81c-4.36-4.66-6.53-10.4-6.53-17.2
				c0-6.93,2.18-12.66,6.53-17.2c4.42-4.54,9.97-6.81,16.65-6.81c4.6,0,8.62,1.15,12.05,3.45c3.43,2.3,6.01,5.47,7.73,9.52
				l-7.73,3.22c-2.39-5.64-6.59-8.46-12.6-8.46c-3.86,0-7.21,1.56-10.03,4.69c-2.76,3.13-4.14,6.99-4.14,11.59s1.38,8.46,4.14,11.59
				c2.82,3.13,6.16,4.69,10.03,4.69c6.19,0,10.55-2.82,13.06-8.46l7.54,3.22c-1.66,4.05-4.25,7.22-7.77,9.52
				C691.08,73.34,686.98,74.49,682.32,74.49z"/>
			<path fill="#5F6368" d="M727.87,74.49c-6.62,0-12.08-2.27-16.38-6.81c-4.29-4.54-6.44-10.27-6.44-17.2
				c0-6.87,2.08-12.59,6.26-17.16c4.17-4.57,9.51-6.85,16.01-6.85c6.68,0,12.01,2.16,15.96,6.49c3.96,4.32,5.93,10.38,5.93,18.17
				l-0.09,0.92H713.7c0.12,4.42,1.59,7.97,4.42,10.67c2.82,2.7,6.19,4.05,10.12,4.05c5.4,0,9.63-2.7,12.7-8.1l7.54,3.68
				c-2.02,3.8-4.83,6.78-8.42,8.92S732.41,74.49,727.87,74.49z M714.35,45.05h25.85c-0.25-3.13-1.52-5.72-3.82-7.77
				c-2.3-2.05-5.38-3.08-9.25-3.08c-3.19,0-5.93,0.98-8.23,2.94C716.6,39.11,715.08,41.74,714.35,45.05z"/>
		</g>
	</g>
</g>
<g id="Google_logo">
	<g id="_x32_94x96">
		<path fill="#4285F4" d="M37.76,74.48C17.24,74.48,0,57.76,0,37.24S17.24,0,37.76,0c11.35,0,19.42,4.45,25.5,10.26l-7.17,7.17
			c-4.36-4.09-10.26-7.27-18.33-7.27c-14.97,0-26.68,12.08-26.68,27.07c0,14.99,11.71,27.06,26.68,27.06
			c9.71,0,15.25-3.9,18.79-7.45c2.9-2.91,4.81-7.08,5.54-12.81H37.49V33.88h34.48c0.36,1.82,0.54,4,0.54,6.36
			c0,7.63-2.09,17.08-8.8,23.8C57.18,70.84,48.83,74.48,37.76,74.48z"/>
		<path fill="#EA4335" d="M124.16,50.5c0,13.81-10.79,23.98-24.02,23.98S76.11,64.3,76.11,50.5c0-13.9,10.79-23.98,24.02-23.98
			S124.16,36.6,124.16,50.5z M113.64,50.5c0-8.63-6.26-14.53-13.51-14.53c-7.25,0-13.51,5.9-13.51,14.53
			c0,8.54,6.26,14.53,13.51,14.53C107.39,65.03,113.64,59.03,113.64,50.5z"/>
		<path fill="#FBBC04" d="M176.45,50.5c0,13.81-10.79,23.98-24.02,23.98S128.4,64.3,128.4,50.5c0-13.9,10.79-23.98,24.02-23.98
			S176.45,36.6,176.45,50.5z M165.93,50.5c0-8.63-6.26-14.53-13.51-14.53s-13.51,5.9-13.51,14.53c0,8.54,6.26,14.53,13.51,14.53
			S165.93,59.03,165.93,50.5z"/>
		<path fill="#4285F4" d="M226.47,27.97v43.05c0,17.71-10.44,24.98-22.78,24.98c-11.62,0-18.61-7.81-21.24-14.17l9.17-3.81
			c1.63,3.91,5.63,8.54,12.07,8.54c7.9,0,12.8-4.9,12.8-14.08v-3.45h-0.36c-2.36,2.91-6.9,5.45-12.62,5.45
			c-11.98,0-22.96-10.44-22.96-23.89c0-13.53,10.98-24.07,22.96-24.07c5.72,0,10.26,2.54,12.62,5.36h0.36v-3.91H226.47z
			 M217.21,50.59c0-8.45-5.63-14.62-12.8-14.62c-7.26,0-13.34,6.18-13.34,14.62c0,8.36,6.08,14.44,13.34,14.44
			C211.58,65.03,217.21,58.94,217.21,50.59z"/>
		<path fill="#34A853" d="M244.57,2.54v70.48h-10.53V2.54H244.57z"/>
		<path fill="#EA4335" d="M285.38,58.4l8.17,5.45c-2.63,3.91-8.99,10.63-19.97,10.63c-13.61,0-23.78-10.54-23.78-23.98
			c0-14.26,10.26-23.98,22.6-23.98c12.43,0,18.51,9.9,20.51,15.26L294,44.5l-32.04,13.26c2.45,4.81,6.26,7.27,11.62,7.27
			C278.93,65.03,282.66,62.4,285.38,58.4z M260.24,49.77l21.42-8.9c-1.18-3-4.72-5.09-8.89-5.09
			C267.41,35.78,259.97,40.51,260.24,49.77z"/>
	</g>
</g>
</svg>
