<svg width="241" height="239" fill="none" xmlns="http://www.w3.org/2000/svg"><g filter="url(#filter0_d)"><path d="M115.074 22.303a8 8 0 0110.751 0l19.689 17.863a8.003 8.003 0 005.685 2.07l26.566-1.029a8 8 0 018.235 6.91l3.601 26.341a7.995 7.995 0 003.025 5.24l21.011 16.288a8 8 0 011.867 10.587l-14.173 22.492a8 8 0 00-1.051 5.958l5.626 25.983a8 8 0 01-5.376 9.311l-25.315 8.12a7.999 7.999 0 00-4.634 3.888l-12.392 23.521a8 8 0 01-10.103 3.677l-24.611-10.052a8 8 0 00-6.05 0l-24.612 10.052a8 8 0 01-10.102-3.677l-12.392-23.521a8 8 0 00-4.635-3.888l-25.315-8.12a8 8 0 01-5.375-9.311l5.625-25.983a8 8 0 00-1.05-5.958l-14.173-22.492a8 8 0 011.866-10.587l21.012-16.288a8 8 0 003.025-5.24l3.6-26.34a8 8 0 018.236-6.91L89.7 42.235a8 8 0 005.685-2.07l19.689-17.863z" fill="#DCDCDE"/></g><path d="M83.305 81.307l-8.697-4.516-.045.046c.358.305.713.614 1.063.927.343.305.637.577.88.816l4.842 4.73-1.063 1.087-8.17-7.984 1.61-1.648 8.332 4.316.033-.034-4.497-8.242 1.61-1.648 8.172 7.984-1.107 1.133-4.853-4.74c-.251-.247-.53-.534-.836-.862l-.95-1.019-.045.046 4.693 8.612-.972.996zM94.798 65.059c.591.988.986 1.94 1.185 2.852.198.913.16 1.744-.112 2.492-.274.747-.827 1.37-1.66 1.87-.842.503-1.66.694-2.454.573-.793-.122-1.546-.486-2.257-1.092-.701-.612-1.345-1.407-1.932-2.386-.97-1.62-1.414-3.039-1.334-4.255.083-1.231.734-2.21 1.951-2.94.824-.492 1.63-.683 2.418-.57.788.112 1.538.471 2.25 1.078.705.597 1.353 1.39 1.945 2.378zm-5.766 3.451c.74 1.236 1.482 2.072 2.228 2.508.746.436 1.48.438 2.203.005.724-.433 1.067-1.074 1.032-1.922-.033-.864-.421-1.918-1.166-3.163-.745-1.245-1.483-2.083-2.215-2.516-.736-.441-1.466-.446-2.19-.013-.732.438-1.079 1.094-1.041 1.966.032.864.415 1.909 1.149 3.135zM107.891 66.06l-1.876.595-6.87-7.272-.061.02c.169.427.331.851.487 1.272.155.42.293.819.412 1.195l1.929 6.086-1.449.459-3.452-10.89 1.861-.59 6.821 7.17.061-.02-.472-1.276a28.54 28.54 0 01-.407-1.18l-1.9-5.994 1.464-.464 3.452 10.89zM117.725 64.447l-5.208.501-1.094-11.371 5.208-.502.136 1.418-3.583.345.32 3.328 3.36-.323.135 1.401-3.36.324.365 3.79 3.583-.345.138 1.434zM124.427 58.233l2.407-5.042 1.706.136-3.456 6.74-.352 4.417-1.626-.129.347-4.37-2.345-7.249 1.722.137 1.597 5.36zM143.884 57.142l2.583 1.237c1.059.507 1.765 1.093 2.12 1.76.355.667.323 1.438-.097 2.313-.299.626-.685 1.073-1.158 1.344-.463.275-.969.345-1.52.212l-.035.072c.513.411.831.883.954 1.415.134.537.027 1.166-.318 1.887-.438.914-1.048 1.51-1.83 1.785-.783.276-1.65.186-2.603-.27l-3.03-1.452 4.934-10.303zm-.601 5.034l1.198.573c.586.281 1.069.347 1.449.198.393-.155.721-.507.983-1.055.461-.962.119-1.717-1.026-2.265l-1.125-.54-1.479 3.089zm-.581 1.212l-1.679 3.506 1.385.664c.578.276 1.07.323 1.477.14.417-.18.766-.562 1.047-1.15.258-.538.314-1.025.168-1.462-.146-.436-.522-.8-1.128-1.09l-1.27-.608zM152.482 75.362l1.28-3.188-2.521-1.919-2.719 2.093-1.375-1.047 9.501-7.145 1.528 1.162-4.319 11.09-1.375-1.046zm1.904-4.563l1.374-3.258.387-.851c.147-.317.281-.59.402-.82-.202.195-.425.4-.67.616-.244.216-.48.412-.708.587l-2.771 2.214 1.986 1.512zM166.318 74.546c-.406-.452-.892-.697-1.456-.735-.564-.037-1.164.093-1.8.391-.628.307-1.255.741-1.882 1.305-1.032.926-1.677 1.828-1.935 2.706-.259.877-.088 1.65.51 2.316.25.278.52.515.812.712.3.19.611.36.935.514l-1.071.963a4.384 4.384 0 01-.967-.55 5.409 5.409 0 01-.919-.832c-.919-1.023-1.24-2.154-.963-3.393.286-1.246 1.111-2.483 2.476-3.709.833-.748 1.69-1.295 2.569-1.641.88-.346 1.724-.452 2.532-.318.816.142 1.545.57 2.186 1.284.628.698 1.032 1.468 1.214 2.308l-1.375.505a4.759 4.759 0 00-.3-.957 3.216 3.216 0 00-.566-.869zM165.599 91.074l-.951-1.576 3.014-4.977-1.222-.29-3.644 2.2-.843-1.398 9.78-5.904.843 1.397-4.767 2.878c.244-.01.531-.009.862.003.34.006.726.016 1.158.03l4.566.103.927 1.534-6.01-.203-3.713 6.203zM79.44 161.024l2.42 2.422-4.04 4.038c-.512-.242-.999-.525-1.459-.849a9.286 9.286 0 01-1.357-1.132c-.709-.709-1.127-1.474-1.255-2.297-.121-.829.011-1.67.396-2.523.392-.859 1.004-1.704 1.833-2.533.83-.83 1.683-1.426 2.558-1.787.882-.355 1.753-.449 2.613-.283.86.166 1.667.627 2.421 1.381.377.377.694.785.95 1.222.257.438.449.879.577 1.324l-1.347.577a5.583 5.583 0 00-.463-1.143 4.07 4.07 0 00-.724-.973c-.724-.724-1.557-1.007-2.5-.849-.928.158-1.897.742-2.908 1.753-.604.603-1.072 1.214-1.404 1.832-.324.611-.467 1.207-.43 1.788.045.573.317 1.109.814 1.606.234.234.453.43.656.589.22.158.434.29.645.396l2.275-2.274-1.278-1.278 1.007-1.007zM94.564 166.214l-4.077 6.49c-.675 1.075-1.449 1.735-2.321 1.981-.863.251-1.805.056-2.826-.585-.993-.624-1.576-1.381-1.748-2.27-.163-.883.095-1.867.776-2.951l4.086-6.503 1.382.868-4.069 6.476c-.46.732-.654 1.353-.584 1.863.08.516.394.947.945 1.293.57.357 1.097.449 1.584.276.486-.173.956-.62 1.41-1.343l4.06-6.463 1.382.868zM99.584 180.941l.276-3.424-2.978-1.083-1.974 2.806-1.624-.591 6.949-9.646 1.804.657-.829 11.872-1.624-.591zm.463-4.923l.344-3.518c.034-.283.073-.592.116-.928.047-.347.094-.647.141-.902-.135.246-.287.508-.457.787-.169.279-.337.536-.502.771l-1.987 2.937 2.345.853zM110.519 172.075c1.265.193 2.157.605 2.676 1.234.529.632.711 1.485.547 2.561-.118.769-.378 1.377-.781 1.823-.39.436-.902.746-1.534.93l1.777 5.419-1.803-.276-1.476-4.952-1.281-.196-.707 4.619-1.613-.247 1.727-11.293 2.468.378zm-.232 1.405l-.838-.128-.602 3.938.933.143c1.318.201 2.082-.383 2.292-1.754.101-.664.006-1.17-.286-1.517-.293-.347-.792-.574-1.499-.682zM124.265 184.236l-1.071-3.264-3.165.153-.734 3.352-1.726.083 2.675-11.582 1.918-.093 3.829 11.268-1.726.083zm-1.478-4.718l-1.045-3.377c-.077-.274-.161-.574-.251-.901a17.271 17.271 0 01-.219-.887c-.03.28-.069.58-.117.903-.048.323-.103.625-.164.905l-.697 3.478 2.493-.121zM138.991 181.496l-1.897.524-6.594-7.523-.062.017c.153.433.3.863.44 1.289.14.426.262.83.367 1.21l1.701 6.153-1.465.405-3.043-11.011 1.881-.52 6.549 7.42.062-.017-.424-1.294a26.298 26.298 0 01-.363-1.195l-1.675-6.06 1.48-.41 3.043 11.012zM148.601 177.502l-1.438.737-4.553-8.885-2.278 1.167-.657-1.282 5.995-3.071.657 1.281-2.279 1.168 4.553 8.885zM158.645 171.106l-4.201 3.119-6.81-9.172 4.201-3.119.849 1.143-2.89 2.146 1.993 2.685 2.711-2.013.839 1.131-2.711 2.012 2.27 3.058 2.891-2.146.858 1.156zM166.946 163.328l-3.57 3.824-8.351-7.796 3.571-3.824 1.041.972-2.457 2.631 2.444 2.282 2.304-2.468 1.029.961-2.303 2.468 2.783 2.599 2.457-2.632 1.052.983zM112.165 120.377h-6.255v-18.72c0-.96.015-1.965.045-3.015.06-1.05.105-2.04.135-2.97-.45.6-1.095 1.32-1.935 2.16l-3.06 2.925-3.465-3.735 9.135-8.775h5.4v32.13zm25.74-6.57h-3.42v6.57h-6.12v-6.57H116.8v-4.815l11.61-20.79h6.075v20.52h3.42v5.085zm-9.585-5.085v-6.795c0-.42.015-1.02.045-1.8.03-.81.045-1.575.045-2.295.03-.75.06-1.23.09-1.44h-.18c-.21.66-.45 1.275-.72 1.845-.27.54-.555 1.095-.855 1.665l-4.725 8.82h6.3zM115.173 140.648c0 2.745-.629 4.846-1.886 6.302-1.258 1.442-3.052 2.162-5.382 2.162h-4.094V132.69h4.416c2.177 0 3.879.683 5.106 2.047 1.226 1.35 1.84 3.32 1.84 5.911zm-3.358.115c0-1.824-.307-3.166-.92-4.025-.598-.858-1.48-1.288-2.645-1.288h-1.196v10.856h.943c1.303 0 2.261-.452 2.875-1.357.628-.92.943-2.315.943-4.186zm13.12 8.349l-.943-3.933h-4.37l-.943 3.933h-3.496l4.531-16.445h4.117l4.577 16.445h-3.473zm-1.541-6.739l-.989-4.186c-.092-.49-.2-1.012-.322-1.564a19.366 19.366 0 01-.276-1.472 26.83 26.83 0 01-.276 1.495 67.76 67.76 0 01-.345 1.518l-.966 4.209h3.174zm9.404-2.99l2.553-6.693h3.404l-4.347 10.074v6.348h-3.243v-6.256l-4.347-10.166h3.427l2.553 6.693z" fill="#000"/><defs><filter id="filter0_d" x=".163" y=".228" width="240.573" height="237.89" filterUnits="userSpaceOnUse" color-interpolation-filters="sRGB"><feFlood flood-opacity="0" result="BackgroundImageFix"/><feColorMatrix in="SourceAlpha" values="0 0 0 0 0 0 0 0 0 0 0 0 0 0 0 0 0 0 127 0"/><feOffset dy="4"/><feGaussianBlur stdDeviation="12"/><feColorMatrix values="0 0 0 0 0 0 0 0 0 0 0 0 0 0 0 0 0 0 0.05 0"/><feBlend in2="BackgroundImageFix" result="effect1_dropShadow"/><feBlend in="SourceGraphic" in2="effect1_dropShadow" result="shape"/></filter></defs></svg>