<svg width="27" height="25" fill="none" xmlns="http://www.w3.org/2000/svg"><path d="M19.78 8.3a2.49 2.49 0 0 1-2.54 2.44 2.49 2.49 0 0 1-2.53-2.44 2.48 2.48 0 0 1 2.53-2.43 2.5 2.5 0 0 1 2.54 2.43Z" fill="#fff"/><path d="M6.3 18.76s-.2-1.32 0-2.39c-.46.07-.9.26-1.26.6-.86.83-.46 3.44-.46 3.44s2.73.39 3.59-.44c.35-.34.56-.76.62-1.2-1.1.18-2.49-.01-2.49-.01Z" fill="#000"/><path d="M16.35 17.57a1.8 1.8 0 0 0-.04-1.52C24.44 8.89 23.38 2.4 23.38 2.4s-6.78-1-14.24 6.78a2.03 2.03 0 0 0-1.6-.04c-1 .4-5.91 3.66-5.63 4.3.16.36 2.27.15 4.18-.17-.28.96.7 2.3 2.12 3.66 1.42 1.36 2.82 2.3 3.83 2.03-.33 1.83-.56 3.85-.18 4 .67.27 4.07-4.43 4.5-5.39Zm-.17-8.27a1.53 1.53 0 0 1 0-2.22 1.7 1.7 0 0 1 2.32 0c.65.61.65 1.6 0 2.22a1.7 1.7 0 0 1-2.32 0Z" fill="#000"/></svg>