<svg width="127" height="96" viewBox="0 0 127 96" fill="none" xmlns="http://www.w3.org/2000/svg">
<path d="M121.278 94.1155L2.21259 89.4488C1.83895 89.4488 1.52759 89.1377 1.52759 88.7644V4.39102C1.52759 4.01769 1.83895 3.70658 2.21259 3.7688L121.216 8.43547C121.589 8.43547 121.901 8.74658 121.901 9.11991V93.4932C122.025 93.8666 121.714 94.1155 121.278 94.1155Z" fill="white"/>
<path d="M28.8653 55.911C37.7385 55.911 44.9317 48.7237 44.9317 39.8577C44.9317 30.9917 37.7385 23.8044 28.8653 23.8044C19.9921 23.8044 12.799 30.9917 12.799 39.8577C12.799 48.7237 19.9921 55.911 28.8653 55.911Z" fill="url(#paint0_linear_311_5448)"/>
<path d="M117.604 38.7377L103.157 38.1777C103.157 36.1244 104.9 34.4444 107.018 34.5066L117.666 34.8799V38.6755H117.604V38.7377Z" fill="url(#paint1_linear_311_5448)"/>
<path d="M108.574 64.6843L94.1271 64.1244C94.1271 62.071 95.8708 60.391 97.988 60.4532L108.637 60.8266V64.6221H108.574V64.6843Z" fill="url(#paint2_linear_311_5448)"/>
<path d="M122.025 20.2577L35.2172 16.8355C35.2172 13.1643 38.2063 10.4266 41.9426 10.551L121.901 13.7243V20.2577H122.025Z" fill="url(#paint3_linear_311_5448)"/>
<path d="M121.278 94.1155L2.21259 89.4488C1.83895 89.4488 1.52759 89.1377 1.52759 88.7644V4.39102C1.52759 4.01769 1.83895 3.70658 2.21259 3.7688L121.216 8.43547C121.589 8.43547 121.901 8.74658 121.901 9.11991V93.4932C122.025 93.8666 121.714 94.1155 121.278 94.1155Z" stroke="#003C65" stroke-width="1.8" stroke-miterlimit="10" stroke-linecap="round" stroke-linejoin="round"/>
<path d="M125.388 90.5688L122.025 90.3821V8.31103L5.57532 3.7688V0.782137C5.57532 0.408804 5.88668 0.0976927 6.26032 0.159915L125.388 4.82658C125.762 4.82658 126.073 5.13769 126.073 5.51103V89.8844C126.073 90.3199 125.762 90.5688 125.388 90.5688Z" fill="#003C65"/>
<path d="M8.95341 10.0948C9.41557 9.29004 9.08899 8.23561 8.22396 7.73962C7.35894 7.24363 6.28304 7.4939 5.82088 8.29861C5.35872 9.10333 5.68531 10.1578 6.55033 10.6537C7.41536 11.1497 8.49125 10.8995 8.95341 10.0948Z" stroke="#003C65" stroke-width="1.7999" stroke-miterlimit="9.9996" stroke-linecap="round" stroke-linejoin="round"/>
<path d="M15.7372 10.3647C16.1993 9.56003 15.8727 8.5056 15.0077 8.00961C14.1427 7.51362 13.0668 7.76389 12.6046 8.5686C12.1425 9.37332 12.4691 10.4277 13.3341 10.9237C14.1991 11.4197 15.275 11.1695 15.7372 10.3647Z" stroke="#003C65" stroke-width="1.7999" stroke-miterlimit="9.9996" stroke-linecap="round" stroke-linejoin="round"/>
<path d="M22.5777 10.6288C23.0399 9.82413 22.7133 8.7697 21.8483 8.27371C20.9833 7.77772 19.9074 8.02799 19.4452 8.8327C18.9831 9.63741 19.3096 10.6918 20.1747 11.1878C21.0397 11.6838 22.1156 11.4336 22.5777 10.6288Z" stroke="#003C65" stroke-width="1.7999" stroke-miterlimit="9.9996" stroke-linecap="round" stroke-linejoin="round"/>
<path d="M117.425 14.3568C117.887 13.5521 117.561 12.4977 116.696 12.0017C115.831 11.5057 114.755 11.756 114.293 12.5607C113.83 13.3654 114.157 14.4198 115.022 14.9158C115.887 15.4118 116.963 15.1615 117.425 14.3568Z" stroke="#003C65" stroke-width="1.7999" stroke-miterlimit="9.9996" stroke-linecap="round" stroke-linejoin="round"/>
<path d="M1.52759 15.5288L122.025 20.2577" stroke="#003C65" stroke-width="1.8" stroke-miterlimit="10" stroke-linecap="round" stroke-linejoin="round"/>
<path d="M85.4089 19.0132V92.6843" stroke="#003C65" stroke-width="1.8" stroke-miterlimit="10" stroke-linecap="round" stroke-linejoin="round"/>
<path d="M117.604 38.7377L100.915 37.991V31.3333L117.604 32.0799V38.7377Z" stroke="#003C65" stroke-width="1.8" stroke-miterlimit="10" stroke-linecap="round" stroke-linejoin="round"/>
<path d="M108.201 65.3066L91.5117 64.6844V57.9021L108.201 58.6488V65.3066Z" stroke="#003C65" stroke-width="1.8" stroke-miterlimit="10" stroke-linecap="round" stroke-linejoin="round"/>
<path d="M91.5117 44.2755L117.604 45.3332" stroke="#003C65" stroke-width="1.8" stroke-miterlimit="10" stroke-linecap="round" stroke-linejoin="round"/>
<path d="M91.5117 50.871L117.604 51.9288" stroke="#003C65" stroke-width="1.8" stroke-miterlimit="10" stroke-linecap="round" stroke-linejoin="round"/>
<path d="M52.6535 84.6577L37.023 83.9732L52.6535 67.671V84.6577Z" fill="#7CBFCF"/>
<path d="M71.958 85.4666L55.8294 84.8443L71.958 49.751V85.4666Z" fill="#7CBFCF"/>
<path d="M75.8382 32.1478C77.8851 30.2094 77.8566 26.8587 75.7747 24.6638C73.6927 22.4689 70.3457 22.261 68.2988 24.1995C66.2519 26.1379 66.2803 29.4886 68.3623 31.6834C70.4442 33.8783 73.7913 34.0862 75.8382 32.1478Z" fill="white"/>
<path d="M77.3758 28.5954C77.3758 31.5199 75.0094 33.6977 72.1449 33.4488C69.218 33.1999 66.9139 30.6488 66.9139 27.7243C66.9139 24.7999 77.3758 25.7332 77.3758 28.5954Z" fill="url(#paint4_linear_311_5448)"/>
<path d="M75.8382 32.1478C77.8851 30.2094 77.8566 26.8587 75.7747 24.6638C73.6927 22.4689 70.3457 22.261 68.2988 24.1995C66.2519 26.1379 66.2803 29.4886 68.3623 31.6834C70.4442 33.8783 73.7913 34.0862 75.8382 32.1478Z" stroke="#003C65" stroke-width="1.8" stroke-miterlimit="10" stroke-linecap="round" stroke-linejoin="round"/>
<path d="M52.6535 84.6577L33.3489 83.7866V64.3732L52.6535 65.2444V84.6577Z" stroke="#003C65" stroke-width="1.8" stroke-miterlimit="10" stroke-linecap="round" stroke-linejoin="round"/>
<path d="M71.958 85.4666L52.6534 84.6577V42.9066L71.958 43.7777V85.4666Z" stroke="#003C65" stroke-width="1.8" stroke-miterlimit="10" stroke-linecap="round" stroke-linejoin="round"/>
<path d="M13.1103 78.4355C13.1103 78.4355 22.9494 43.6532 31.8544 46.2666C36.6494 47.6977 35.9021 59.7688 35.9021 59.7688C35.9021 59.7688 43.4371 32.951 52.7157 33.3244C55.8916 33.511 57.1371 40.9155 57.1371 40.9155C57.1371 40.9155 60.8112 36.6221 63.8626 34.631" stroke="#003C65" stroke-width="1.8" stroke-miterlimit="10" stroke-linecap="round" stroke-linejoin="round"/>
<defs>
<linearGradient id="paint0_linear_311_5448" x1="12.7709" y1="39.8374" x2="44.8604" y2="39.8374" gradientUnits="userSpaceOnUse">
<stop stop-color="#E8E8E8"/>
<stop offset="1" stop-color="#EEEEEE"/>
</linearGradient>
<linearGradient id="paint1_linear_311_5448" x1="103.118" y1="36.2585" x2="117.598" y2="36.2585" gradientUnits="userSpaceOnUse">
<stop stop-color="#E8E8E8"/>
<stop offset="1" stop-color="#EEEEEE"/>
</linearGradient>
<linearGradient id="paint2_linear_311_5448" x1="94.0963" y1="62.2091" x2="108.576" y2="62.2091" gradientUnits="userSpaceOnUse">
<stop stop-color="#E8E8E8"/>
<stop offset="1" stop-color="#EEEEEE"/>
</linearGradient>
<linearGradient id="paint3_linear_311_5448" x1="35.2058" y1="13.5581" x2="122.022" y2="13.5581" gradientUnits="userSpaceOnUse">
<stop stop-color="#E8E8E8"/>
<stop offset="1" stop-color="#EEEEEE"/>
</linearGradient>
<linearGradient id="paint4_linear_311_5448" x1="66.8285" y1="29.4504" x2="77.3743" y2="29.4504" gradientUnits="userSpaceOnUse">
<stop stop-color="#E8E8E8"/>
<stop offset="1" stop-color="#EEEEEE"/>
</linearGradient>
</defs>
</svg>
