<svg viewBox="0 0 272.58 220.66" xmlns="http://www.w3.org/2000/svg"><path d="m120.95 95.62h23.79v69.25h-23.79z" fill="#dcdcde"/><path d="m239.19 79.29a41.54 41.54 0 0 0 -41.42-41.42h-86.77a41.54 41.54 0 0 0 -41.38 41.42v29.34h58.64v68.37h15.52v-68.37h95.41z" fill="#3895ba" transform="translate(-15.6 -12.08)"/><path d="m33.38 231.56c2.83-1 250.66 0 250.66 0s15.91-52.16-26.34-63.13c-12.66-3.29-20-2-23.74-.45a2.38 2.38 0 0 1 -3.36-1.79c-.9-10.42-6.86-39.14-45-39.14-42 0-60.39 39.49-60.39 39.49s-9.37-13.64-25.94-15c-49-3.93-61 50.24-61 50.24" fill="#fff" transform="translate(-15.6 -12.08)"/><path d="m33.28 231.07c1.45-.18 2.67-.15 4-.21l3.92-.09 7.84-.13 15.67-.17 31.29-.17 31.33-.12h31.33l125.34.2-1.13.84a80.78 80.78 0 0 0 2.61-15 67.26 67.26 0 0 0 -.41-15.2 42.74 42.74 0 0 0 -4.6-14.28 32.41 32.41 0 0 0 -9.83-11.08 40.43 40.43 0 0 0 -13.64-6.07 54.15 54.15 0 0 0 -15-1.9 23.06 23.06 0 0 0 -7.19 1.3l-.48.19a4.25 4.25 0 0 1 -.59.18 3.88 3.88 0 0 1 -1.47 0 3.68 3.68 0 0 1 -2.44-1.55 3.23 3.23 0 0 1 -.53-1.46l-.1-1c-.07-.63-.14-1.24-.23-1.87a46.62 46.62 0 0 0 -4.41-14.38 36.41 36.41 0 0 0 -9.22-11.71 34.69 34.69 0 0 0 -6.25-4.13 38.2 38.2 0 0 0 -7-2.84 55 55 0 0 0 -15-2.26 63.44 63.44 0 0 0 -15.09 1.47 58.48 58.48 0 0 0 -14.3 5.14 65.56 65.56 0 0 0 -12.68 8.45 72.29 72.29 0 0 0 -10.61 11 76 76 0 0 0 -8.21 12.78 1.14 1.14 0 0 1 -1.53.51 1.18 1.18 0 0 1 -.42-.35 38.65 38.65 0 0 0 -4.75-5.16 39.14 39.14 0 0 0 -5.64-4.35 33 33 0 0 0 -13.23-4.92c-.59-.06-1.18-.14-1.76-.18l-1.87-.16c-1.2 0-2.39-.1-3.59-.08a55.2 55.2 0 0 0 -7.19.51 48.32 48.32 0 0 0 -13.78 4 50.58 50.58 0 0 0 -12 7.93 62.47 62.47 0 0 0 -9.63 10.81 80.2 80.2 0 0 0 -7.28 12.59q-1.54 3.3-2.8 6.73a68.5 68.5 0 0 0 -2.18 6.95.33.33 0 0 1 -.65-.16 69.1 69.1 0 0 1 2.1-7q1.21-3.48 2.7-6.85a81.27 81.27 0 0 1 7.14-12.9 63.73 63.73 0 0 1 9.69-11.16 52.07 52.07 0 0 1 12.27-8.31 50 50 0 0 1 14.2-4.37 57 57 0 0 1 7.42-.62h3.74l1.84.14c.64 0 1.26.11 1.89.17a35 35 0 0 1 14.12 5 41.33 41.33 0 0 1 6 4.51 35.56 35.56 0 0 1 5.1 5.61l-1.94.16a75.18 75.18 0 0 1 8.63-13.17q2.46-3.06 5.21-5.87a73.22 73.22 0 0 1 5.72-5.38 67.63 67.63 0 0 1 13-8.77 60.63 60.63 0 0 1 14.79-5.39 65.7 65.7 0 0 1 15.7-1.47 57.3 57.3 0 0 1 15.6 2.29 40.1 40.1 0 0 1 14.07 7.34 38.83 38.83 0 0 1 9.89 12.37 49.1 49.1 0 0 1 4.72 15.13c.1.65.18 1.32.25 2l.1.94a.7.7 0 0 0 .13.34 1.15 1.15 0 0 0 .75.45 1.42 1.42 0 0 0 .46 0 1.58 1.58 0 0 0 .33-.1l.42-.16a25.29 25.29 0 0 1 8-1.5 55.48 55.48 0 0 1 15.69 2 43 43 0 0 1 14.51 6.5 34.93 34.93 0 0 1 10.55 12 45.2 45.2 0 0 1 4.83 15.11 69.66 69.66 0 0 1 .39 15.75 82.92 82.92 0 0 1 -2.74 15.5 1.15 1.15 0 0 1 -1.11.84l-125.33-.52-62.73-.28-31.33-.09h-15.66-7.83-3.91c-1.27 0-2.68 0-3.82.13h-.06a.5.5 0 0 1 -.11-.97z" fill="#98c6d9" transform="translate(-15.6 -12.08)"/><path d="m204.36 37.86h-1.73a41.54 41.54 0 0 0 -41.42 41.42v29.34h84.57v-29.33a41.54 41.54 0 0 0 -41.42-41.43z" fill="#004e6e" transform="translate(-15.6 -12.08)"/><path d="m251.26 87.05h-78.35v-46.29-.97h78.35z" fill="#fff"/><path d="m266.86 100c-6.53.27-13.06.46-19.59.44h-19.59l-39.18.07a1.4 1.4 0 0 1 -1.4-1.4v-47.26a1.43 1.43 0 0 1 1.42-1.43l78.35.14a1.28 1.28 0 0 1 1.27 1.28l-.14 11.85c0 3.94 0 7.88-.14 11.82l-.23 11.82c-.13 3.94-.21 7.88-.37 11.82v.45a.43.43 0 0 1 -.4.4zm-.46-1.74c-.14-3.65-.23-7.3-.35-10.94l-.23-11.82c-.1-3.94-.1-7.88-.14-11.82l-.1-11.82 1.29 1.29-78.35.14 1.43-1.43v47.26l-1.4-1.4 39.18.07h19.59c6.33.03 12.68.21 19.08.47z" fill="#c3c4c7" transform="translate(-15.6 -12.08)"/><path d="m172.91 40.76 39 25.69 37.43-25.06" fill="#fff"/><path d="m188.58 52.73 2.62 1.32 2.58 1.39 5.15 2.79 5.07 2.91c1.69 1 3.35 2 5 3 3.36 2 6.63 4.08 10 6.12l4.91 3.16c1.63 1.06 3.28 2.1 4.89 3.18h-2.57l4.71-3.09c1.57-1 3.13-2.08 4.72-3.07l4.76-3c1.58-1 3.19-2 4.8-3s3.2-2 4.83-2.9 3.24-1.91 4.88-2.83l4.94-2.71c1.64-.93 3.31-1.81 5-2.66a.13.13 0 0 1 .13.22l-37.35 25.18a.26.26 0 0 1 -.28 0l-38.93-25.8a.13.13 0 0 1 .13-.22z" fill="#c3c4c7" transform="translate(-15.6 -12.08)"/><path d="m214.5 68.33a8.84 8.84 0 0 1 -.71 1.22c-.51.73-1.31 1.71-2.24 2.92l-3.19 4.12c-1.17 1.5-2.4 3.12-3.67 4.7-2.54 3.17-5 6.37-7 8.73-1 1.17-1.85 2.1-2.45 2.75s-1 1-1 1a.22.22 0 0 1 -.34-.27s.25-.45.73-1.2 1.18-1.81 2.09-3c1.83-2.43 4.34-5.63 6.82-8.85 1.23-1.61 2.51-3.19 3.69-4.69l3.24-4.07c1-1.19 1.72-2.2 2.31-2.87a8.84 8.84 0 0 1 1-1 .45.45 0 0 1 .72.51z" fill="#c3c4c7" transform="translate(-15.6 -12.08)"/><path d="m242.66 68.12a9 9 0 0 1 1 1c.59.67 1.37 1.68 2.34 2.87l3.32 4.01c1.2 1.49 2.5 3.07 3.75 4.69 2.52 3.22 5.07 6.41 6.93 8.85.92 1.23 1.63 2.29 2.13 3s.74 1.21.74 1.21a.22.22 0 0 1 -.34.27s-.38-.35-1-1-1.53-1.5-2.53-2.67c-2-2.36-4.51-5.56-7.08-8.73-1.29-1.58-2.55-3.2-3.73-4.7l-3.19-4.12c-.94-1.21-1.75-2.2-2.27-2.92a9 9 0 0 1 -.73-1.22.44.44 0 0 1 .66-.54z" fill="#c3c4c7" transform="translate(-15.6 -12.08)"/><path d="m15.6 64.21v-30.4a6.53 6.53 0 0 1 6.53-6.53h36.7v36.93z" fill="#98c6d9" transform="translate(-15.6 -12.08)"/><path d="m17.73 27.78 10.92 6.84-10.92 7.37z" fill="#006088"/><path d="m24.24 156.88-.19-19.34-.05-9.66v-1.21a8.44 8.44 0 0 1 .09-1.35 7.61 7.61 0 0 1 .94-2.69 7.72 7.72 0 0 1 4.33-3.49 8.62 8.62 0 0 1 1.39-.3 12.39 12.39 0 0 1 1.34-.06h2.42 4.83 9.67 19.34a1.28 1.28 0 0 1 1.26 1.22v36.92a1.23 1.23 0 0 1 -1.23 1.22l-21.66-.14-21.61-.24a.87.87 0 0 1 -.87-.88zm1.76-.88 20.74-.23 21.61-.13-1.23 1.23v-36.92l1.28 1.28-19.4-.03h-9.67-4.83-2.42a10.06 10.06 0 0 0 -1.07 0 6.33 6.33 0 0 0 -1 .2 5.39 5.39 0 0 0 -3.72 4.25 15.38 15.38 0 0 0 -.09 2.26l-.06 9.67z" fill="#6ab3d0" transform="translate(-15.6 -12.08)"/><path d="m58.42 174.45v-30.4a6.53 6.53 0 0 1 6.53-6.53h36.7v36.92h-43.23z" fill="#c3c4c7" transform="translate(-15.6 -12.08)"/><path d="m53.6 136h25.12a0 0 0 0 1 0 0v5.83a0 0 0 0 1 0 0h-28.58a0 0 0 0 1 0 0v-2.38a3.46 3.46 0 0 1 3.46-3.45z" fill="#004e6e"/><path d="m21.21 127.42h6.17a0 0 0 0 1 0 0v8.68a0 0 0 0 1 0 0h-9.38a0 0 0 0 1 0 0v-5.5a3.18 3.18 0 0 1 3.21-3.18z" fill="#c3c4c7"/><g transform="translate(-15.6 -12.08)"><path d="m40.86 132.09a2.49 2.49 0 0 1 .5-.45 3 3 0 0 1 1.33-.51c1.1-.09 2.56-.25 4-.25s2.93.15 4 .25a3 3 0 0 1 1.33.51 2.49 2.49 0 0 1 .5.45v.65a2.49 2.49 0 0 1 -.5.45 3 3 0 0 1 -1.33.51c-1.1.09-2.56.25-4 .25s-2.93-.15-4-.25a3 3 0 0 1 -1.33-.51 2.49 2.49 0 0 1 -.5-.45z" fill="#006088"/><path d="m209.7 175.23v-30.4a6.53 6.53 0 0 1 6.53-6.53h36.7v36.92h-43.23z" fill="#c3c4c7"/><path d="m246.35 152.23a13.54 13.54 0 0 1 -13.81 7 14 14 0 0 0 -14.71 8.92h29.42v-15.69a.48.48 0 0 0 -.9-.23z" fill="#f6f7f7"/><path d="m251.24 134.67a3.79 3.79 0 0 0 -3.79 3.79v6.38h11v-10.17h-7.16z" fill="#3895ba"/><path d="m119.85 12.08h-14.21v80.92h8.74v-63l5.78-2.45a6.36 6.36 0 0 0 3.58-5.4v-6.15a3.89 3.89 0 0 0 -3.89-3.92z" fill="#dcdcde"/></g></svg>
