<svg height="265" viewBox="0 0 451 265" width="451" xmlns="http://www.w3.org/2000/svg" xmlns:xlink="http://www.w3.org/1999/xlink"><mask id="a" fill="#fff"><path d="m265.221369.38463607v4.5252h-264.77446797v-4.5252z" fill="#fff" fill-rule="evenodd"/></mask><mask id="b" fill="#fff"><path d="m0 264.586h450.773176v-264.586h-450.773176z" fill="#fff" fill-rule="evenodd"/></mask><g fill="none" fill-rule="evenodd"><path d="m312.115498 194.624h-114.531354v-69.922h71.521243c23.754622 0 43.010111 19.302 43.010111 43.114z" fill="#c3c4c7"/><path d="m245.884875 147.6904 17.926699 11.972-17.926699 11.974z" fill="#fff"/><path d="m.82640386 2.24663607c21.96893494-1.104 43.93587474-1.328 65.90480964-1.614l32.9544-.21 32.9504095-.038 65.906805.31c21.968935.206 43.93787.434 65.906805 1.154.440935.014.784106.382.772135.826-.013967.422-.357138.758-.772135.774-21.968935.716-43.93787.946-65.906805 1.152l-65.906805.31-32.9504095-.038-32.9544-.21c-21.9689349-.286-43.9358747-.512-65.90480964-1.616-.21946988-.01-.38906025-.198-.37908434-.42.0099759-.206.1755759-.368.37908434-.38" fill="#f6f7f7" mask="url(#a)" transform="translate(185.551807 259.676164)"/><path d="m129.817631 246.8428h49.474496v-121.99h-12.396058c-20.478535 0-37.078438 16.64-37.078438 37.168z" fill="#dcdcde"/><path d="m314.139808 238.2216c0 9.448-4.153966 18.066-11.039335 23.466-2.053041 1.61-35.805513 2.278-38.185764.334-6.915296-5.65-11.450342-14.164-11.450342-23.8 0-16.796 13.581195-30.412 30.338718-30.412 16.753533 0 30.336723 13.616 30.336723 30.412" fill="#c3c4c7"/><path d="m199.479366 262.2978v-48.208l47.561118 47.676z" fill="#187aa2"/><path d="m110.366614 121.3886-.253388-33.356-.061851-8.354c.013967-3.066.937735-6.144 2.693494-8.688 1.743788-2.536 4.263702-4.586 7.194622-5.64 1.456482-.528 3.000752-.87 4.554998-.898 1.496385-.058 2.803229-.028 4.213821-.046 44.366834-.216 88.733668-.426 133.098506-.43l33.275624-.044 16.637813-.024 8.317908-.012 4.159952-.004c1.424559-.006 3.178323.104 4.69067.572 3.124453.84 5.909725 2.734 7.95279 5.21 2.017128 2.502 3.278082 5.612 3.537455 8.816.117716 1.704.047885 2.906.069832 4.35l.005985 4.168.011971 8.34.043894 33.356-.135672 133.42c-.001995 1.176-.94372 2.12-2.108906 2.118l-79.489995-.332-39.742005-.372c-13.248-.11-26.496-.412-39.742005-.614-.440935-.008-.794082-.37-.788096-.812.007981-.434.359132-.782.788096-.788 13.246005-.202 26.494005-.504 39.742005-.614l39.742005-.372 77.371113-.334-.135672-131.3.043894-33.356.011971-8.34.005985-4.168c-.011971-1.336.039904-2.918-.045889-3.988-.181561-2.346-1.093359-4.6-2.553831-6.432-1.488405-1.8-3.495557-3.18-5.740135-3.784-1.151219-.348-2.192704-.416-3.53546-.424l-4.159952-.006-8.317908-.012-16.637813-.024-33.275624-.044c-44.364838-.004-88.731672-.214-133.098506-.43-1.360713.004-2.829166-.036-4.102091.004-1.223046.008-2.428135.27-3.573369.672-2.312414.782-4.341513 2.372-5.772058 4.376-1.44052 2.012-2.226621 4.466-2.284482 6.96l-.079807 8.324-.251393 33.356-.742207 66.708c-.618506.394-.794082.216-.796077 0z" fill="#8e9196"/><path d="m109.365033 102.1766v-12.49-10.354c0-9.04 6.159123-16.37 13.756771-16.37h203.5224c7.599644 0 13.758767 7.33 13.758767 16.37v22.844z" fill="#3895ba"/><path d="m346.73308 102.1688c-20.239113 1.618-40.474236 1.498-60.711354 1.594l-60.707364.268-60.711354-.268c-20.237118-.096-40.472241.026-60.709359-1.594v-1c20.237118-1.62 40.472241-1.498 60.709359-1.594l60.711354-.268 60.707364.27c20.237118.094 40.472241-.024 60.711354 1.592z" fill="#646970"/><path d="m375.885265 162.6278c13.551267-10.374 14.231624-32.686 1.590159-57.46-12.641465-24.776-47.804531-49.952-64.055277-24.984-16.248752 24.97 33.267643 96.566 53.694303 85.524" fill="#fff"/><path d="m375.764556 162.4696c4.19387-3.326 7.128781-8.018 8.603219-13.096 1.500376-5.086 1.769726-10.478 1.235017-15.752-1.141243-10.574-4.985956-20.768-10.095614-30.056-5.281244-9.176-12.541706-17.274-21.053147-23.55-4.267692-3.106-8.902497-5.754-13.854535-7.418-4.922111-1.642-10.281166-2.232-15.137436-.694-4.868241 1.454-8.872569 5.146-11.506207 9.538-2.569793 4.382-2.97681 9.82-2.505947 15.004 1.10533 10.502 5.263286 20.576 10.211334 29.978 5.039827 9.398 11.14907 18.288 18.441456 26.074 3.659161 3.866 7.649523 7.46 12.128704 10.276 2.242583 1.384 4.622833 2.578 7.158708 3.204 2.511932.616 5.235354.588 7.533802-.622.195528-.102.436945-.026.538699.168.101754.192.027933.43-.159614.536-2.472029 1.398-5.46081 1.504-8.140338.924-2.71145-.586-5.221388-1.764-7.583682-3.126-4.684684-2.818-8.78079-6.444-12.561657-10.316-7.519837-7.808-13.822612-16.712-19.075923-26.186-2.605706-4.752-4.882208-9.694-6.749697-14.804-1.849532-5.112-3.298033-10.416-3.858679-15.9-.508771-5.43-.171586-11.298 2.723421-16.322 2.835152-4.792 7.230535-8.918 12.729253-10.6 5.478767-1.702 11.318661-.978 16.512116.78 5.233359 1.784 10.021793 4.562 14.413186 7.786 8.734901 6.526 16.141012 14.796 21.498072 24.31 2.571788 4.814 4.754516 9.78 6.470371 14.946 1.707875 5.156 2.952868 10.498 3.355894 15.944.409012 5.424.019952 10.982-1.695904 16.186-1.719845 5.188-4.946053 9.898-9.333455 13.106-.087788.064-.211489.046-.279325-.042-.063846-.088-.045889-.21.037908-.276" fill="#c3c4c7"/><path d="m397.265222 176.1942c-8.798747-14.052-3.116472-37.914 14.032106-53.01l4.754516 16.938 2.547846-19.324c6.532221-2.24 16.803412-2.046 22.330062 3.848 22.832848 24.346-18.259894 62.33-36.918824 54.052" fill="#fff"/><path d="m392.676506 162.1738c-.27733-5 .458892-10.022 1.885446-14.812 2.885031-9.598 8.635142-18.234 16.077166-24.93.407017-.364 1.035499-.332 1.398622.076.105744.116.175576.25.217474.39l3.442052 12.101468 1.843182-14.341468c.055865-.426.345166-.75.714275-.874 4.42132-1.452 9.119971-1.782 13.69492-.946 2.278497.44 4.533051 1.218 6.572126 2.452 2.074988 1.216 3.750939 3.012 5.119633 4.818 2.817196 3.666 4.652762 8.18 4.999923 12.828.38507 4.654-.596559 9.29-2.324385 13.508-3.523489 8.472-9.774391 15.46-17.058795 20.72-3.677118 2.6-7.685437 4.788-12.022959 6.12-4.285649 1.312-9.159875 1.712-13.385668-.22-.201513-.092-.289301-.328-.197523-.53.087788-.194.323219-.282.520742-.2 4.030265 1.646 8.581273 1.012 12.657427-.33 4.126034-1.368 7.964761-3.568 11.470294-6.162 6.953205-5.25 12.797089-12.18 16.105099-20.176 1.604125-3.998 2.468038-8.314 2.084963-12.546-.349156-4.234-2.025108-8.282-4.632809-11.638-1.334776-1.706-2.743374-3.212-4.507113-4.262-1.753764-1.078-3.752935-1.792-5.819943-2.204-4.14399-.792-11.932345.392109-11.963853.627164-.554494 4.13663-1.386234 10.341575-2.495221 18.614836-.073822.564-.590574.962-1.15122.888-.420983-.054-.748192-.362-.857927-.744-2.607548-10.504262-4.042858-15.635152-4.30593-15.392667-6.715243 6.189715-11.907964 14.084835-14.777974 22.800667-1.518332 4.604-2.366284 9.458-2.248569 14.318.073822 4.848 1.223046 9.736 3.705051 13.96.055865.094.025937.218-.067836.274-.091778.056-.211489.026-.271345-.062-2.713445-4.176-4.124038-9.144-4.419325-14.126z" fill="#c3c4c7"/><path d="m391.365473 192.1102c4.668723-20.972 18.48934-34.05 34.019826-47.256" fill="#fff"/><path d="m391.170544 192.0654c.550669-4.974 2.114891-9.816 4.213821-14.382 2.180733-4.534 4.888193-8.81 7.984714-12.754 6.332703-7.798 13.794679-14.488 21.759441-20.38.175575-.132.424973-.094.55865.084.117716.162.097764.39-.043894.526-7.076906 6.92-14.51893 13.428-20.504472 21.176-3.040656 3.816-5.772058 7.88-7.954786 12.238-2.280491 4.316-4.006323 8.888-5.624414 13.58-.035913.106-.149639.162-.255383.124-.089783-.03-.143653-.12-.133677-.212" fill="#c3c4c7"/><path d="m377.457667 192.8192c.706293-54.836-21.075094-85.214-47.233909-101.288" fill="#fff"/><path d="m377.258947 192.8174c-.524733-9.768-1.181147-19.478-2.809215-29.058-1.534294-9.586-4.19786-18.974-7.946805-27.882-3.713031-8.914-8.625166-17.364-14.870082-24.746-6.193041-7.42-13.557253-13.822-21.617783-19.258-.183556-.12-.235431-.368-.113725-.554.113725-.176.349156-.228.530718-.128 8.507451 4.874 16.208848 11.23 22.685205 18.676 6.494313 7.448 11.576038 16.068 15.464646 25.13 3.798824 9.114 6.372607 18.712 7.847045 28.444 1.376675 9.746 1.803644 19.598 1.227036 29.382-.005985.11-.101754.194-.209494.188-.103749-.006-.183556-.094-.187546-.194" fill="#c3c4c7"/><path d="m348.677584 206.413h71.734727" fill="#fff"/><path d="m348.677584 206.2118c5.977561-.55 11.955123-.666 17.932684-.804l17.934679-.128c11.955123.122 23.910246.054 35.867364.732.21947.012.387065.202.377089.422-.011971.208-.177571.368-.377089.378-11.957118.68-23.912241.61-35.867364.732l-17.934679-.126c-5.977561-.138-11.955123-.254-17.932684-.806-.111731-.01-.191538-.108-.181562-.218.007981-.098.085793-.172.181562-.182" fill="#c3c4c7"/><path d="m383.336067 262.3428c5.101678-.084 10.135519-1.444 14.56881-3.874 4.437282-2.426 8.289976-5.858 11.290728-9.904 6.025446-8.106 8.599229-18.552 7.350246-28.512l.049879.248-7.70718-25.882-25.552483.098-25.551582-.074-7.684138 25.866.051875-.254c-.554661 4.986-.285311 10.07.949706 14.94 1.223045 4.87 3.409764 9.502 6.406525 13.548 2.964839 4.064 6.791595 7.532 11.232867 9.978 4.41334 2.494 9.449176 3.906 14.594747 4.12zm0 .898c-5.243334.244-10.574457-.926-15.35491-3.25-4.776463-2.354-8.990285-5.832-12.338198-10.01-6.657918-8.414-9.714535-19.562-8.505455-30.276.009976-.082.025937-.16.047884-.236l.005985-.018 7.843056-27.088c.203508-.706.843961-1.162 1.542275-1.166l.011971.002 26.747392-.076 26.747393.096h.011971c.720261.002 1.328791.49 1.520328 1.15l7.84106 27.09.005986.022c.021947.072.037908.154.045889.226.548675 5.356.123701 10.812-1.306843 15.99-1.414584 5.184-3.892598 10.06-7.204598 14.26-3.310005 4.198-7.50188 7.712-12.280337 10.086-4.762497 2.388-10.09362 3.608-15.380849 3.5z" fill="#c3c4c7"/><path d="m158.632629 262.085h-90.7009153l-.1815614-57.904h90.6989207z" fill="#fff"/><path d="m158.350112 261.9424-.758169-57.76v.858c-30.234969.254-58.480742.17-88.7137155.272v-1.136l.0618506 57.904-1.0075663-1.008 45.0511812.292zm.564636.282-.141658.002-45.190843.58-45.6497352.29c-.5546602.004-1.0055711-.444-1.0095614-1v-.01l-.3032675-57.902c-.0039904-.622.4968-1.13 1.1192964-1.134h.0119711c30.2329735.1 60.4639516.016 90.6989206.268h.015961c.468868.004.845957.39.841967.86z" fill="#c3c4c7"/><path d="m71.2616704 209.7588 40.8233926 24.782 43.191672-26.41" fill="#fff"/><path d="m71.3650207 209.5888c3.5673832 1.792 7.0569542 3.712 10.5285687 5.66 3.4536578 1.982 6.911306 3.954 10.3130892 6.018l10.2492434 6.122c3.431711 2.018 6.787605 4.158 10.183402 6.232l-1.113311.002 21.681629-13.068c7.232531-4.346 14.530902-8.586 21.863191-12.766.191537-.11.434949-.044.544684.148.10375.186.045889.42-.129687.532-7.064935 4.622-14.163788 9.188-21.330477 13.646l-21.512038 13.346c-.349157.216-.784106.198-1.115306.002-3.405774-2.058-6.853446-4.05-10.225302-6.164l-10.1634501-6.266c-3.399788-2.066-6.7457061-4.226-10.0976097-6.372-3.3299566-2.184-6.6439518-4.394-9.8841253-6.73-.0877879-.064-.1077397-.19-.0438939-.282.0578602-.08.1656-.104.2513927-.06" fill="#c3c4c7"/><path d="m40.4822169 262.084h13.0923759v-99.896h-13.0923759z" fill="#fff" mask="url(#b)"/><path d="m53.2934718 261.9384v-.136l-.5586506-50.014c-.2055036-16.588-.1895422-33.068-.2553831-49.6l1.0953542 1.1-13.0943711.03 1.1292723-1.13-.1097349 49.95-.1596145 24.972c-.0458892 8.324-.2174747 16.65-.3451663 24.974l-.5147566-.516zm.5646362.284-.1416579.004-13.2360289.374c-.2753349.008-.5047807-.21-.5127614-.486l-.0019952-.004v-.026c-.1276916-8.324-.3012723-16.65-.3451663-24.974l-.1596144-24.972-.1077398-49.95c-.0019952-.624.5007904-1.128 1.1212916-1.13h.0059855l13.0943711.032c.6025446-.002 1.093359.484 1.0953542 1.09v.008c-.065841 16.768-.0498795 33.588-.2553831 50.296z" fill="#c3c4c7" mask="url(#b)"/><path d="m5.12661687 200.5516 178.17362913-185.146" fill="#fff" mask="url(#b)"/><path d="m4.9823653 200.413c14.4530892-15.812 29.2194217-31.322 43.9658024-46.846l44.4526265-46.374 44.6601258-46.174c14.983807-15.298 29.833937-30.724 44.951421-45.892.157619-.156.411007-.156.566632 0 .151633.154.153628.4.009975.556-14.578785 15.69-29.424925 31.122-44.137388 46.682l-44.4246935 46.4-44.6341879 46.196c-14.947894 15.334-29.8798266 30.682-45.12101209 45.73-.07980723.078-.20550362.076-.28331567-.002-.07382168-.076-.07581686-.198-.00598554-.276" fill="#c3c4c7" mask="url(#b)"/><path d="m59.2438988 159.6064c0 6.576-5.3151615 11.906-11.8753157 11.906-6.558159 0-11.8753156-5.33-11.8753156-11.906 0-6.574 5.3171566-11.904 11.8753156-11.904 6.5601542 0 11.8753157 5.33 11.8753157 11.904" fill="#fff" mask="url(#b)"/><path d="m58.8464588 159.6064c-.1057446-3.026-1.4724434-5.894-3.6032964-7.892-2.1368385-1.998-5.0138891-3.1-7.8749783-3.038-2.859094.048-5.6643181 1.22-7.6495229 3.264-1.9991711 2.024-3.1284434 4.838-3.0985157 7.666-.0019951 2.826 1.1073253 5.636 3.1104868 7.658 1.9812144 2.034 4.7824482 3.226 7.6375518 3.242 2.8570988.072 5.7241735-1.026 7.8630072-3.018 2.1627759-1.966 3.5454362-4.818 3.8147856-7.882zm.5985542 0c.2893012 3.182-.8858602 6.524-3.1424096 8.956-2.2485687 2.438-5.5605687 3.904-8.9344193 3.954-3.3718554.038-6.7496964-1.334-9.1558843-3.73-2.4181591-2.378-3.8666603-5.76-3.8487037-9.18.0099759-3.414 1.4365302-6.792 3.8586796-9.168 2.4041927-2.386 5.7780433-3.78 9.1459084-3.708 3.3698602.04 6.6698892 1.502 8.920453 3.934 2.2904675 2.4 3.4815904 5.726 3.3538988 8.942z" fill="#c3c4c7" mask="url(#b)"/><path d="m92.0279104 262.085h-90.90043377v-.628c0-7.086 5.73015903-12.83 12.79708917-12.83h65.3062554c7.0689253 0 12.7970892 5.744 12.7970892 12.83z" fill="#fff" mask="url(#b)"/><path d="m91.813628 261.9424-.0678362-.14c-.1097349-.232-.1276916-.208-.1396626-.548l-.0518747-.806c-.0399037-.538-.153629-1.066-.2513928-1.594-.265359-1.04-.6085301-2.066-1.1232868-3.006-.9936-1.898-2.5099373-3.504-4.2956241-4.642-1.799653-1.126-3.8746409-1.792-5.9835469-1.862-2.1468145-.046-4.4253109.024-6.6339759.03l-26.6875374.254-26.6895325.076c-2.1946988.024-4.5091085-.02-6.6100338.054-2.0390747.09-4.01829394.78-5.7201831 1.886-3.42373012 2.254-5.49472771 5.128655-5.3091759 9.324655l43.9558265.211345 22.6931855.306zm.5247325.282-.1675952.002-22.4617446.456-22.7570313.306-45.82331567.22c-.60453975.004-1.09734939-.476-1.11929638-1.078l-.00199518-.046c-.07781205-2.31.39903614-4.846 1.52232289-6.98 1.09934458-2.162 2.79125783-4.008 4.8123759-5.33 2.03508434-1.306 4.40336384-2.11 6.81753254-2.206 2.3423422-.07 4.4791807-.008 6.7297446-.018l26.6895325.076 26.6875374.254c2.2405879.038 4.4133397.006 6.7077975.102 2.3443374.116 4.6208386.944 6.5581591 2.23 1.921359 1.304 3.5135132 3.104 4.527065 5.184.5287229 1.032.8698988 2.146 1.1192964 3.27.0897832.568.1895422 1.14.2194699 1.714l.0319229.862c.0239422.188-.0179566.648-.0917783.982z" fill="#c3c4c7" mask="url(#b)"/><path d="m177.004453 29.4756-4.848289-8.7c-3.429716-5.704-2.132848-12.796 2.900993-15.84l4.157956-2.51c5.035836-3.042 11.897263-.884 15.328974 4.822l4.848289 8.698" fill="#fff" mask="url(#b)"/><path d="m176.830872 29.5732c-1.434535-2.086-2.789262-4.21-4.116058-6.352-.674371-1.068-1.336771-2.106-1.985204-3.298-.614516-1.192-1.041485-2.486-1.300858-3.818-.490815-2.67-.077812-5.534 1.209079-8 .642449-1.234 1.538285-2.352 2.627653-3.242 1.15122-.914 2.208665-1.496 3.288058-2.152 1.099345-.624 2.09494-1.31 3.439692-1.896 1.290882-.55 2.695489-.822 4.080144-.816 2.771306.018 5.498718.966 7.603634 2.674 1.059441.84 2.009147 1.812 2.785272 2.908.810044 1.13 1.300858 2.272 1.893427 3.386 1.171171 2.24 2.272511 4.516 3.383826 6.784.097764.198.015962.438-.179566.534-.185552.092-.407017.026-.514757-.144-1.342756-2.136-2.695489-4.264-3.980385-6.428-.648434-1.076-1.294872-2.194-1.99119-3.09-.726246-.93-1.59415-1.734-2.53787-2.416-1.887441-1.36-4.173918-2.142-6.432463-2.094-1.129272.014-2.242583.256-3.25813.716-.961677.43-2.055036 1.174-3.126448 1.82-1.053456.674-2.234603 1.278-3.056617 1.932-.873889.686-1.608116 1.558-2.14881 2.548-1.087373 1.98-1.486409 4.37-1.137253 6.67.147644 1.152.436945 2.302.909803 3.386l1.648019 3.334c1.125282 2.262 2.224626 4.54 3.246159 6.858.041899.102-.001995.22-.103749.264-.089784.042-.193533.01-.245408-.068" fill="#c3c4c7" mask="url(#b)"/><path d="m185.257917 77.9346-8.756848-14.56c-8.517427-14.164-5.420906-31.692 6.915296-39.148l10.191383-6.158c12.336203-7.454 29.243364-2.014 37.760791 12.15l8.756848 14.558" fill="#fff" mask="url(#b)"/><path d="m185.086332 78.038c-3.124453-4.638-6.165109-9.328-9.159875-14.044-3.012723-4.832-4.954034-10.448-5.209417-16.226-.271345-5.752 1.055451-11.666 4.167933-16.618 1.54826-2.472 3.537455-4.676 5.865831-6.45 1.1592-.91 2.436116-1.632 3.597311-2.354l3.581349-2.166c2.442101-1.406 4.662737-2.928 7.34426-4.238 2.651596-1.236 5.522661-1.97 8.423653-2.19 5.817947-.442 11.655846 1.136 16.595914 4.068 4.950043 2.948 9.048144 7.232 11.901253 12.172 2.797243 4.836 5.558573 9.692 8.274014 14.58.10774.19.035913.434-.155624.542-.183557.104-.414998.044-.528723-.13-3.042651-4.688-6.037417-9.404-9.00026-14.142-2.855104-4.654-6.783615-8.63-11.488251-11.308-4.662737-2.7-10.099605-4.116-15.428732-3.66-2.657581.222-5.265282.914-7.665485 2.056-2.32638 1.15-4.730573 2.79-7.106833 4.188-2.328376 1.478-4.91014 2.826-7.00508 4.358-2.124867 1.594-3.952453 3.58-5.388983 5.832-2.883036 4.508-4.179904 9.984-3.966419 15.376.199518 5.408 1.797658 10.762 4.580935 15.47 2.76133 4.856 5.482756 9.742 8.1144 14.676.049879.098.013966.22-.081803.272-.091778.05-.205503.018-.261368-.064" fill="#c3c4c7" mask="url(#b)"/><path d="m179.751617 81.2958 64.021359-38.688" fill="#fff" mask="url(#b)"/><path d="m195.238809 70.764 15.941494-9.78c10.732077-6.344 21.36639-12.852 32.385773-18.718.195528-.102.436945-.028.540694.166.095769.182.035913.404-.129687.52-10.319074 7.03-21.025214 13.418-31.631595 19.968l-16.071181 9.566c-5.404944 3.104-10.799913 6.23-16.418342 8.982-.099759.048-.221465.008-.269349-.092-.043894-.09-.013966-.196.061851-.25 5.051797-3.698 10.327055-7.02 15.590342-10.362z" fill="#c3c4c7" mask="url(#b)"/></g></svg>
