<svg width="208" height="139" viewBox="0 0 208 139" fill="none" xmlns="http://www.w3.org/2000/svg">
<rect y="14" width="65.5856" height="39" rx="2" fill="#E9EFF5"/>
<rect y="56" width="65.5856" height="3" rx="1.5" fill="#E9EFF5"/>
<rect y="62" width="65.5856" height="3" rx="1.5" fill="#E9EFF5"/>
<rect y="68" width="48.7207" height="3" rx="1.5" fill="#E9EFF5"/>
<rect x="71.2073" y="14" width="65.5856" height="39" rx="2" fill="#E9EFF5"/>
<rect x="71.2073" y="56" width="65.5856" height="3" rx="1.5" fill="#E9EFF5"/>
<rect x="71.2073" y="62" width="65.5856" height="3" rx="1.5" fill="#E9EFF5"/>
<rect x="71.2073" y="68" width="48.7207" height="3" rx="1.5" fill="#E9EFF5"/>
<rect x="142.415" y="14" width="65.5856" height="39" rx="2" fill="#E9EFF5"/>
<rect x="142.415" y="56" width="65.5856" height="3" rx="1.5" fill="#E9EFF5"/>
<rect x="142.415" y="62" width="65.5856" height="3" rx="1.5" fill="#E9EFF5"/>
<rect x="142.415" y="68" width="48.7207" height="3" rx="1.5" fill="#E9EFF5"/>
<rect y="82" width="65.5856" height="39" rx="2" fill="#E9EFF5"/>
<rect y="124" width="65.5856" height="3" rx="1.5" fill="#E9EFF5"/>
<rect y="130" width="65.5856" height="3" rx="1.5" fill="#E9EFF5"/>
<rect y="136" width="48.7207" height="3" rx="1.5" fill="#E9EFF5"/>
<rect x="71.2073" y="82" width="65.5856" height="39" rx="2" fill="#E9EFF5"/>
<rect x="71.2073" y="124" width="65.5856" height="3" rx="1.5" fill="#E9EFF5"/>
<rect x="71.2073" y="130" width="65.5856" height="3" rx="1.5" fill="#E9EFF5"/>
<rect x="71.2073" y="136" width="48.7207" height="3" rx="1.5" fill="#E9EFF5"/>
<rect x="142.415" y="82" width="65.5856" height="39" rx="2" fill="#E9EFF5"/>
<rect x="142.415" y="124" width="65.5856" height="3" rx="1.5" fill="#E9EFF5"/>
<rect x="142.415" y="130" width="65.5856" height="3" rx="1.5" fill="#E9EFF5"/>
<rect x="142.415" y="136" width="48.7207" height="3" rx="1.5" fill="#E9EFF5"/>
<rect x="60" width="88" height="5" rx="2" fill="#E9EFF5"/>
</svg>
