<svg width="167" height="147" viewBox="0 0 167 147" fill="none" xmlns="http://www.w3.org/2000/svg">
<rect width="45" height="60" rx="2" fill="#E9EFF5"/>
<rect y="63" width="45" height="3" rx="1.5" fill="#E9EFF5"/>
<rect y="69" width="33" height="3" rx="1.5" fill="#E9EFF5"/>
<rect x="61" width="45" height="60" rx="2" fill="#E9EFF5"/>
<rect x="61" y="63" width="45" height="3" rx="1.5" fill="#E9EFF5"/>
<rect x="61" y="69" width="33" height="3" rx="1.5" fill="#E9EFF5"/>
<rect x="122" width="45" height="60" rx="2" fill="#E9EFF5"/>
<rect x="122" y="63" width="45" height="3" rx="1.5" fill="#E9EFF5"/>
<rect x="122" y="69" width="33" height="3" rx="1.5" fill="#E9EFF5"/>
<rect y="81" width="45" height="60" rx="2" fill="#E9EFF5"/>
<rect y="144" width="45" height="3" rx="1.5" fill="#E9EFF5"/>
<rect x="61" y="81" width="45" height="60" rx="2" fill="#E9EFF5"/>
<rect x="61" y="144" width="45" height="3" rx="1.5" fill="#E9EFF5"/>
<rect x="122" y="81" width="45" height="60" rx="2" fill="#E9EFF5"/>
<rect x="122" y="144" width="45" height="3" rx="1.5" fill="#E9EFF5"/>
</svg>
