<svg width="192" height="115" viewBox="0 0 192 115" fill="none" xmlns="http://www.w3.org/2000/svg">
<rect y="12" width="87" height="3" rx="1.5" fill="#F6F7F7"/>
<rect y="18" width="87" height="3" rx="1.5" fill="#F6F7F7"/>
<rect y="24" width="87" height="3" rx="1.5" fill="#F6F7F7"/>
<rect y="30" width="81" height="3" rx="1.5" fill="#F6F7F7"/>
<rect y="42" width="87" height="3" rx="1.5" fill="#F6F7F7"/>
<rect y="48" width="87" height="3" rx="1.5" fill="#F6F7F7"/>
<rect y="54" width="87" height="3" rx="1.5" fill="#F6F7F7"/>
<rect y="60" width="81" height="3" rx="1.5" fill="#F6F7F7"/>
<rect y="70" width="87" height="3" rx="1.5" fill="#F6F7F7"/>
<rect y="76" width="87" height="3" rx="1.5" fill="#F6F7F7"/>
<rect y="82" width="87" height="3" rx="1.5" fill="#F6F7F7"/>
<rect y="88" width="81" height="3" rx="1.5" fill="#F6F7F7"/>
<rect y="94" width="87" height="3" rx="1.5" fill="#F6F7F7"/>
<rect y="100" width="87" height="3" rx="1.5" fill="#F6F7F7"/>
<rect y="106" width="87" height="3" rx="1.5" fill="#F6F7F7"/>
<rect y="112" width="81" height="3" rx="1.5" fill="#F6F7F7"/>
<rect x="105" y="12" width="87" height="3" rx="1.5" fill="#F6F7F7"/>
<rect x="105" y="18" width="87" height="3" rx="1.5" fill="#F6F7F7"/>
<rect x="105" y="24" width="87" height="3" rx="1.5" fill="#F6F7F7"/>
<rect x="105" y="30" width="81" height="3" rx="1.5" fill="#F6F7F7"/>
<rect x="105" y="42" width="87" height="3" rx="1.5" fill="#F6F7F7"/>
<rect x="105" y="48" width="87" height="3" rx="1.5" fill="#F6F7F7"/>
<rect x="105" y="54" width="87" height="3" rx="1.5" fill="#F6F7F7"/>
<rect x="105" y="60" width="81" height="3" rx="1.5" fill="#F6F7F7"/>
<rect x="105" y="70" width="87" height="3" rx="1.5" fill="#F6F7F7"/>
<rect x="105" y="76" width="87" height="3" rx="1.5" fill="#F6F7F7"/>
<rect x="105" y="82" width="87" height="3" rx="1.5" fill="#F6F7F7"/>
<rect x="105" y="88" width="81" height="3" rx="1.5" fill="#F6F7F7"/>
<rect x="105" y="94" width="87" height="3" rx="1.5" fill="#F6F7F7"/>
<rect x="105" y="100" width="87" height="3" rx="1.5" fill="#F6F7F7"/>
<rect x="105" y="106" width="87" height="3" rx="1.5" fill="#F6F7F7"/>
<rect x="105" y="112" width="81" height="3" rx="1.5" fill="#F6F7F7"/>
<rect width="46" height="5" rx="2" fill="#F6F7F7"/>
<rect x="105" width="46" height="5" rx="2" fill="#F6F7F7"/>
</svg>
