<svg width="185" height="115" viewBox="0 0 185 115" fill="none" xmlns="http://www.w3.org/2000/svg">
<rect y="12" width="87" height="3" rx="1.5" fill="#F6F7F7"/>
<rect y="18" width="87" height="3" rx="1.5" fill="#F6F7F7"/>
<rect y="24" width="87" height="3" rx="1.5" fill="#F6F7F7"/>
<rect y="30" width="81" height="3" rx="1.5" fill="#F6F7F7"/>
<rect y="42" width="87" height="3" rx="1.5" fill="#F6F7F7"/>
<rect y="48" width="87" height="3" rx="1.5" fill="#F6F7F7"/>
<rect y="54" width="87" height="3" rx="1.5" fill="#F6F7F7"/>
<rect y="60" width="81" height="3" rx="1.5" fill="#F6F7F7"/>
<rect y="70" width="87" height="3" rx="1.5" fill="#F6F7F7"/>
<rect y="76" width="87" height="3" rx="1.5" fill="#F6F7F7"/>
<rect y="82" width="87" height="3" rx="1.5" fill="#F6F7F7"/>
<rect y="88" width="81" height="3" rx="1.5" fill="#F6F7F7"/>
<rect y="94" width="87" height="3" rx="1.5" fill="#F6F7F7"/>
<rect y="100" width="87" height="3" rx="1.5" fill="#F6F7F7"/>
<rect y="106" width="87" height="3" rx="1.5" fill="#F6F7F7"/>
<rect y="112" width="81" height="3" rx="1.5" fill="#F6F7F7"/>
<rect x="102" width="83" height="115" rx="2" fill="#F6F7F7"/>
<rect width="46" height="5" rx="2" fill="#F6F7F7"/>
</svg>
