<svg width="186" height="128" viewBox="0 0 186 128" fill="none" xmlns="http://www.w3.org/2000/svg">
<rect width="87" height="40" rx="2" fill="#F6F7F7"/>
<rect y="70" width="87" height="40" rx="2" fill="#F6F7F7"/>
<rect y="43" width="87" height="3" rx="1.5" fill="#F6F7F7"/>
<rect y="113" width="87" height="3" rx="1.5" fill="#F6F7F7"/>
<rect y="49" width="87" height="3" rx="1.5" fill="#F6F7F7"/>
<rect y="119" width="87" height="3" rx="1.5" fill="#F6F7F7"/>
<rect y="55" width="67" height="3" rx="1.5" fill="#F6F7F7"/>
<rect y="125" width="67" height="3" rx="1.5" fill="#F6F7F7"/>
<rect x="99" width="87" height="40" rx="2" fill="#F6F7F7"/>
<rect x="99" y="70" width="87" height="40" rx="2" fill="#F6F7F7"/>
<rect x="99" y="43" width="87" height="3" rx="1.5" fill="#F6F7F7"/>
<rect x="99" y="113" width="87" height="3" rx="1.5" fill="#F6F7F7"/>
<rect x="99" y="49" width="87" height="3" rx="1.5" fill="#F6F7F7"/>
<rect x="99" y="119" width="87" height="3" rx="1.5" fill="#F6F7F7"/>
<rect x="99" y="55" width="81" height="3" rx="1.5" fill="#F6F7F7"/>
<rect x="99" y="125" width="81" height="3" rx="1.5" fill="#F6F7F7"/>
</svg>
