<svg width="178" height="118" viewBox="0 0 178 118" fill="none" xmlns="http://www.w3.org/2000/svg">
<rect x="48" width="82" height="5" rx="2" fill="#E9EFF5"/>
<circle cx="23" cy="35" r="14" fill="#E9EFF5"/>
<rect y="53" width="46" height="3" rx="1.5" fill="#E9EFF5"/>
<rect x="7" y="58" width="32" height="3" rx="1.5" fill="#E9EFF5"/>
<circle cx="23" cy="92" r="14" fill="#E9EFF5"/>
<rect y="110" width="46" height="3" rx="1.5" fill="#E9EFF5"/>
<rect x="7" y="115" width="32" height="3" rx="1.5" fill="#E9EFF5"/>
<circle cx="89" cy="35" r="14" fill="#E9EFF5"/>
<rect x="66" y="53" width="46" height="3" rx="1.5" fill="#E9EFF5"/>
<rect x="73" y="58" width="32" height="3" rx="1.5" fill="#E9EFF5"/>
<circle cx="89" cy="92" r="14" fill="#E9EFF5"/>
<rect x="66" y="110" width="46" height="3" rx="1.5" fill="#E9EFF5"/>
<rect x="73" y="115" width="32" height="3" rx="1.5" fill="#E9EFF5"/>
<circle cx="155" cy="35" r="14" fill="#E9EFF5"/>
<rect x="132" y="53" width="46" height="3" rx="1.5" fill="#E9EFF5"/>
<rect x="139" y="58" width="32" height="3" rx="1.5" fill="#E9EFF5"/>
<circle cx="155" cy="92" r="14" fill="#E9EFF5"/>
<rect x="132" y="110" width="46" height="3" rx="1.5" fill="#E9EFF5"/>
<rect x="139" y="115" width="32" height="3" rx="1.5" fill="#E9EFF5"/>
</svg>
