<svg width="170" height="108" viewBox="0 0 170 108" fill="none" xmlns="http://www.w3.org/2000/svg">
<rect width="56" height="6" rx="2" fill="#E9EFF5"/>
<rect y="8" width="31" height="4" rx="2" fill="#E9EFF5"/>
<rect x="77" width="91" height="3" rx="1.5" fill="#E9EFF5"/>
<rect x="77" y="7" width="91" height="3" rx="1.5" fill="#E9EFF5"/>
<rect x="77" y="14" width="91" height="3" rx="1.5" fill="#E9EFF5"/>
<rect x="77" y="21" width="71" height="3" rx="1.5" fill="#E9EFF5"/>
<rect x="77" y="42" width="91" height="3" rx="1.5" fill="#E9EFF5"/>
<rect x="77" y="49" width="91" height="3" rx="1.5" fill="#E9EFF5"/>
<rect x="77" y="56" width="91" height="3" rx="1.5" fill="#E9EFF5"/>
<rect x="77" y="63" width="71" height="3" rx="1.5" fill="#E9EFF5"/>
<rect x="77" y="83" width="91" height="3" rx="1.5" fill="#E9EFF5"/>
<rect x="77" y="90" width="91" height="3" rx="1.5" fill="#E9EFF5"/>
<rect x="77" y="97" width="91" height="3" rx="1.5" fill="#E9EFF5"/>
<rect x="77" y="104" width="71" height="3" rx="1.5" fill="#E9EFF5"/>
</svg>
