<?xml version="1.0" encoding="UTF-8"?>
<svg width="40px" height="40px" viewBox="0 0 40 40" version="1.1" xmlns="http://www.w3.org/2000/svg" xmlns:xlink="http://www.w3.org/1999/xlink"><link xmlns="" type="text/css" id="dark-mode" rel="stylesheet" href=""/><style xmlns="" type="text/css" id="dark-mode-custom-style"/>
    <!-- Generator: Sketch 41.2 (35397) - http://www.bohemiancoding.com/sketch -->
    <title>wpcom-wmark</title>
    <desc>Created with Sketch.</desc>
    <defs/>
    <g id="Page-1" stroke="none" stroke-width="1" fill="none" fill-rule="evenodd">
        <g id="parked-page-copy" transform="translate(-701.000000, -950.000000)" fill="#FFFFFF">
            <path d="M730.04024,985.542 L735.53216,969.66248 C736.55848,967.09712 736.89992,965.046 736.89992,963.222 C736.89992,962.56 736.85632,961.94544 736.7788,961.3728 C738.18232,963.93376 738.9812,966.87296 738.9812,969.99976 C738.9812,976.63312 735.38624,982.42536 730.04024,985.542 L730.04024,985.542 Z M723.47808,961.56864 C724.56048,961.51192 725.53592,961.39784 725.53592,961.39784 C726.5048,961.28336 726.39072,959.8592 725.4216,959.91616 C725.4216,959.91616 722.50896,960.14464 720.6288,960.14464 C718.86176,960.14464 715.8928,959.91616 715.8928,959.91616 C714.92328,959.8592 714.80944,961.34048 715.77904,961.39784 C715.77904,961.39784 716.69616,961.51192 717.6648,961.56864 L720.466,969.2444 L716.53008,981.0464 L709.98288,961.56864 C711.06624,961.51192 712.04056,961.39784 712.04056,961.39784 C713.0092,961.28336 712.89464,959.8592 711.92552,959.91616 C711.92552,959.91616 709.01352,960.14464 707.13336,960.14464 C706.79616,960.14464 706.39824,960.13608 705.97552,960.12264 C709.19128,955.24152 714.7176,952.01808 720.99976,952.01808 C725.68112,952.01808 729.94352,953.80776 733.1424,956.7392 C733.06536,956.73408 732.98944,956.72448 732.90984,956.72448 C731.14328,956.72448 729.89008,958.26312 729.89008,959.91616 C729.89008,961.39784 730.74488,962.65128 731.6564,964.13336 C732.34008,965.33096 733.13872,966.86944 733.13872,969.09216 C733.13872,970.63208 732.68224,972.5684 731.77048,974.90568 L729.97656,980.89832 L723.47808,961.56864 Z M720.99976,987.98328 C719.23488,987.98328 717.53104,987.72376 715.92024,987.25072 L721.31592,971.57256 L726.84248,986.71584 C726.8788,986.80384 726.92336,986.88536 726.97136,986.96312 C725.1024,987.62072 723.09392,987.98328 720.99976,987.98328 L720.99976,987.98328 Z M703.01856,969.99976 C703.01856,967.3924 703.57776,964.91736 704.57576,962.68128 L713.1532,986.18272 C707.154,983.2684 703.01856,977.11744 703.01856,969.99976 L703.01856,969.99976 Z M720.99976,950 C709.97208,950 701,958.97184 701,969.99976 C701,981.02856 709.97208,990.00112 720.99976,990.00112 C732.02768,990.00112 741,981.02856 741,969.99976 C741,958.97184 732.02768,950 720.99976,950 L720.99976,950 Z" id="wpcom-wmark"/>
        </g>
    </g>
</svg>