<svg id="Layer_1" data-name="Layer 1" xmlns="http://www.w3.org/2000/svg" xmlns:xlink="http://www.w3.org/1999/xlink" viewBox="0 0 239.11 94.12"><defs><style>.cls-1,.cls-2{fill:none;}.cls-2{clip-rule:evenodd;}.cls-3{clip-path:url(#clip-path);}.cls-4{clip-path:url(#clip-path-2);}.cls-5{isolation:isolate;}.cls-6{clip-path:url(#clip-path-3);}.cls-7{clip-path:url(#clip-path-4);}.cls-8{fill:#fff;}.cls-9{clip-path:url(#clip-path-6);}.cls-10{clip-path:url(#clip-path-8);}.cls-11{clip-path:url(#clip-path-10);}.cls-12{clip-path:url(#clip-path-12);}.cls-13{clip-path:url(#clip-path-14);}.cls-14{clip-path:url(#clip-path-16);}.cls-15{clip-path:url(#clip-path-18);}.cls-16{clip-path:url(#clip-path-20);}.cls-17{clip-path:url(#clip-path-22);}.cls-18{clip-path:url(#clip-path-24);}.cls-19{clip-path:url(#clip-path-26);}.cls-20{clip-path:url(#clip-path-28);}.cls-21{clip-path:url(#clip-path-30);}.cls-22{clip-path:url(#clip-path-32);}.cls-23{clip-path:url(#clip-path-34);}.cls-24{clip-path:url(#clip-path-36);}.cls-25{clip-path:url(#clip-path-38);}.cls-26{clip-path:url(#clip-path-40);}.cls-27{clip-path:url(#clip-path-42);}.cls-28{clip-path:url(#clip-path-43);}.cls-29{clip-path:url(#clip-path-45);}.cls-30{clip-path:url(#clip-path-47);}.cls-31{clip-path:url(#clip-path-49);}.cls-32{clip-path:url(#clip-path-50);}.cls-33{clip-path:url(#clip-path-52);}.cls-34{clip-path:url(#clip-path-54);}.cls-35{clip-path:url(#clip-path-56);}.cls-36{clip-path:url(#clip-path-57);}.cls-37{clip-path:url(#clip-path-59);}.cls-38{clip-path:url(#clip-path-61);}.cls-39{clip-path:url(#clip-path-63);}.cls-40{clip-path:url(#clip-path-65);}.cls-41{clip-path:url(#clip-path-67);}.cls-42{clip-path:url(#clip-path-69);}.cls-43{clip-path:url(#clip-path-71);}.cls-44{clip-path:url(#clip-path-73);}.cls-45{clip-path:url(#clip-path-75);}.cls-46{clip-path:url(#clip-path-77);}.cls-47{clip-path:url(#clip-path-79);}.cls-48{clip-path:url(#clip-path-81);}.cls-49{clip-path:url(#clip-path-83);}.cls-50{clip-path:url(#clip-path-85);}</style><clipPath id="clip-path" transform="translate(2 3.52)"><rect class="cls-1" x="3" y="1.48" width="84.07" height="84.12"/></clipPath><clipPath id="clip-path-2" transform="translate(2 3.52)"><rect class="cls-1" x="-717" y="-120" width="1672" height="880"/></clipPath><clipPath id="clip-path-3" transform="translate(2 3.52)"><rect class="cls-1" x="3" y="1" width="85" height="85"/></clipPath><clipPath id="clip-path-4" transform="translate(2 3.52)"><path class="cls-2" d="M45,1.48a42.06,42.06,0,1,0,42,42A42.07,42.07,0,0,0,45,1.48ZM7.24,43.56a37.25,37.25,0,0,1,3.28-15.39l18,49.4A37.78,37.78,0,0,1,7.24,43.56ZM45,81.36a37.31,37.31,0,0,1-10.7-1.56l11.35-33L57.3,78.69a4.57,4.57,0,0,0,.25.5A36.61,36.61,0,0,1,45,81.36Zm5.2-55.56c2.27-.1,4.34-.35,4.34-.35a1.57,1.57,0,0,0-.25-3.13s-6.11.5-10.09.5c-3.73,0-9.94-.5-9.94-.5A1.57,1.57,0,0,0,34,25.45s1.92.25,4,.35L43.93,42,35.65,66.78l-13.78-41c2.27-.1,4.34-.35,4.34-.35A1.57,1.57,0,0,0,26,22.32s-6.11.5-10.09.5c-.71,0-1.56,0-2.42-.05a37.78,37.78,0,0,1,57.12-7.11c-.15,0-.3-.05-.51-.05a6.54,6.54,0,0,0-6.36,6.71c0,3.13,1.82,5.75,3.74,8.88a20.17,20.17,0,0,1,3.13,10.45c0,3.23-1,7.32-2.88,12.21L63.91,66.48ZM64.06,76.21,75.62,42.81a35.39,35.39,0,0,0,2.88-13.52,30.64,30.64,0,0,0-.25-3.89A37.77,37.77,0,0,1,64.06,76.21Z"/></clipPath><clipPath id="clip-path-6" transform="translate(2 3.52)"><path class="cls-2" d="M116.27,9.7c.56,5.78.56,11.57.59,17.35L117,44.4l-.1,17.35c0,5.78,0,11.57-.59,17.35h-.37c-.56-5.78-.56-11.57-.59-17.35l-.1-17.35.1-17.35c0-5.78,0-11.57.59-17.35Z"/></clipPath><clipPath id="clip-path-8" transform="translate(2 3.52)"><path class="cls-2" d="M155.36,33.18h2.34a.18.18,0,0,0,.18-.18V11.91a.18.18,0,0,0-.18-.18h-2.34a.18.18,0,0,0-.18.18l.18,21.27h0"/></clipPath><clipPath id="clip-path-10" transform="translate(2 3.52)"><path class="cls-2" d="M162.94,22.72a2.1,2.1,0,0,0,.36-1.26V13.53c0-1.26-.54-1.8-1.8-1.8h-2.88a.18.18,0,0,0-.18.18v2.16a.18.18,0,0,0,.18.18h1.8a.18.18,0,0,1,.18.18V21.1a.18.18,0,0,1-.18.18h-1.62a.18.18,0,0,0-.18.18V23.8L161,33l.18.18h2.7V33l-2.34-9.55a.18.18,0,0,1,.18-.18h.18c.54-.18.9-.18,1.08-.54"/></clipPath><clipPath id="clip-path-12" transform="translate(2 3.52)"><path class="cls-2" d="M185.29,33.18h2.34a.18.18,0,0,0,.18-.18V11.91a.18.18,0,0,0-.18-.18h-2.34a.18.18,0,0,0-.18.18l.18,21.27h0"/></clipPath><clipPath id="clip-path-14" transform="translate(2 3.52)"><path class="cls-2" d="M192.86,22.72a2.1,2.1,0,0,0,.36-1.26V13.53c0-1.26-.54-1.8-1.8-1.8h-2.88a.18.18,0,0,0-.18.18v2.16a.18.18,0,0,0,.18.18h1.8a.18.18,0,0,1,.18.18V21.1a.18.18,0,0,1-.18.18h-1.62a.18.18,0,0,0-.18.18V23.8L190.88,33l.18.18h2.7V33l-2.34-9.55a.18.18,0,0,1,.18-.18h.54c0-.18.36-.18.72-.54"/></clipPath><clipPath id="clip-path-16" transform="translate(2 3.52)"><path class="cls-2" d="M165.46,13.35v5.59c0,.54,0,.9.18,1.08s.18.36.54.54l1.26.9.18.18.18.18a9.91,9.91,0,0,1,1.62,1.26h.18l1.08-.9.18-.18v-.18a.18.18,0,0,0-.18-.18L168,19.48l-.18-.18V14.43a.18.18,0,0,1,.18-.18h.54a.18.18,0,0,0,.18-.18V11.73a.18.18,0,0,0-.18-.18h-1.26a1.62,1.62,0,0,0-1.8,1.8"/></clipPath><clipPath id="clip-path-18" transform="translate(2 3.52)"><path class="cls-2" d="M165.64,23.62a2.29,2.29,0,0,0-.18,1.08V31c0,1.26.54,1.8,1.8,1.8h1.62a.18.18,0,0,0,.18-.18V30.47a.18.18,0,0,0-.18-.18h-.54a.18.18,0,0,1-.18-.18V24.52a.18.18,0,0,1,.18-.18l.9-.72v-.18l-1.62-1.26h-.18l-1.08.72Z"/></clipPath><clipPath id="clip-path-20" transform="translate(2 3.52)"><path class="cls-2" d="M172.85,31V27a.18.18,0,0,0-.18-.18h-2.34a.18.18,0,0,0-.18.18v3.24a.18.18,0,0,1-.18.18h-.54a.18.18,0,0,0-.18.18v2.16a.18.18,0,0,0,.18.18H171c1.26,0,1.8-.72,1.8-2"/></clipPath><clipPath id="clip-path-22" transform="translate(2 3.52)"><path class="cls-2" d="M171,11.55h-1.62a.18.18,0,0,0-.18.18v2.16a.18.18,0,0,0,.18.18H170a.18.18,0,0,1,.18.18v2.88a.18.18,0,0,0,.18.18h2.34a.18.18,0,0,0,.18-.18V13.35a1.62,1.62,0,0,0-1.8-1.8"/></clipPath><clipPath id="clip-path-24" transform="translate(2 3.52)"><path class="cls-2" d="M199,11.91v7l.9,7.39a.18.18,0,0,1-.18.18h-.54a.18.18,0,0,0-.18.18v2.16a.18.18,0,0,0,.18.18h.72a.18.18,0,0,1,.18.18l.36,3.79a.18.18,0,0,0,.18.18h2.52V33l-3.06-20.91-.18-.18H199"/></clipPath><clipPath id="clip-path-26" transform="translate(2 3.52)"><path class="cls-2" d="M197.73,26.33l.72-7.39.18-1.08V11.91a.18.18,0,0,0-.18-.18h-.9a.18.18,0,0,0-.18.18L194.3,32.82V33h2.52a.18.18,0,0,0,.18-.18l.36-3.79a.18.18,0,0,1,.18-.18h.9a.18.18,0,0,0,.18-.18V26.51a.18.18,0,0,0-.18-.18h-.72c.18.18,0,.18,0,0"/></clipPath><clipPath id="clip-path-28" transform="translate(2 3.52)"><path class="cls-2" d="M177.36,11.73H175a.18.18,0,0,0-.18.18V33a.18.18,0,0,0,.18.18h2.34a.18.18,0,0,0,.18-.18l-.18-21.27h0"/></clipPath><clipPath id="clip-path-30" transform="translate(2 3.52)"><path class="cls-2" d="M182.59,23.44a3.17,3.17,0,0,0-.72-.9L181,22v-.18l.9-.54c.36-.36.72-.54.72-.72.18-.18.18-.72.18-1.26V13.53c0-1.26-.54-1.8-1.8-1.8h-2.88a.18.18,0,0,0-.18.18v2.16a.18.18,0,0,0,.18.18h1.8a.18.18,0,0,1,.18.18v5.23a.18.18,0,0,1-.18.18l-.9.72a.63.63,0,0,1-.36.18h-.72a.18.18,0,0,0-.18.18v2.16a.18.18,0,0,0,.18.18h.72a.56.56,0,0,1,.36.18l.9.72.18.18v6.31a.18.18,0,0,1-.18.18h-1.8a.18.18,0,0,0-.18.18v2.16a.18.18,0,0,0,.18.18H181c1.26,0,1.8-.54,1.8-1.8V24.89c0-.72-.18-1.08-.18-1.44"/></clipPath><clipPath id="clip-path-32" transform="translate(2 3.52)"><path class="cls-2" d="M215.39,33.18h2.34a.18.18,0,0,0,.18-.18V14.43a.18.18,0,0,1,.18-.18h.72a.18.18,0,0,0,.18-.18V11.91a.18.18,0,0,0-.18-.18h-3.43a.18.18,0,0,0-.18.18l.18,21.27c-.18-.18-.18,0,0,0"/></clipPath><clipPath id="clip-path-34" transform="translate(2 3.52)"><path class="cls-2" d="M220.26,11.73h-.9a.18.18,0,0,0-.18.18v2.34a1,1,0,0,1,1.08,1.08V29.57c0,.72-.36,1.08-1.26,1.08h-.9a.18.18,0,0,0-.18.18V33a.18.18,0,0,0,.18.18h1.8a2.63,2.63,0,0,0,2.16-.72,2.87,2.87,0,0,0,.72-2.16V15a2.87,2.87,0,0,0-.72-2.16c0-.72-.72-1.08-1.8-1.08"/></clipPath><clipPath id="clip-path-36" transform="translate(2 3.52)"><path class="cls-2" d="M204.76,32.64h2.34a.18.18,0,0,0,.18-.18V23.8l-2.52-9.37V32.64h0"/></clipPath><clipPath id="clip-path-38" transform="translate(2 3.52)"><path class="cls-2" d="M210.35,11.55v8.83l2.52,9.37v-18a.18.18,0,0,0-.18-.18h-2.34"/></clipPath><clipPath id="clip-path-40" transform="translate(2 3.52)"><rect class="cls-1" x="145.33" y="2.06" width="86.77" height="57.37"/></clipPath><clipPath id="clip-path-42" transform="translate(2 3.52)"><rect class="cls-1" x="145" y="2" width="88" height="58"/></clipPath><clipPath id="clip-path-43" transform="translate(2 3.52)"><path class="cls-2" d="M229,43.89a.47.47,0,0,1-.44.44H219a.47.47,0,0,0-.44.44l-.87,3.5h-.22l-12.7-46-.22-.22H145.77a.47.47,0,0,0-.44.44V26.37a.21.21,0,0,0,.22.22h2.63a.22.22,0,0,0,.22-.22v-21a.47.47,0,0,1,.44-.44h53.5c.22,0,.22,0,.22.22L207.16,22s9.2,33.94,10.07,37.45h.22l3.28-11.82a.22.22,0,0,1,.22-.22h10.71a.47.47,0,0,0,.44-.44V25.49a.21.21,0,0,0-.22-.22h-2.63a.21.21,0,0,0-.22.22Z"/></clipPath><clipPath id="clip-path-45" transform="translate(2 3.52)"><path class="cls-2" d="M145.33,42.34a.21.21,0,0,0,.22.22h63a.21.21,0,0,0,.22-.22l-.66-2.63a.21.21,0,0,0-.22-.22H148.83a.21.21,0,0,1-.22-.22V20.88a.22.22,0,0,0-.22-.22h-2.85a.21.21,0,0,0-.22.22Z"/></clipPath><clipPath id="clip-path-47" transform="translate(2 3.52)"><rect class="cls-1" x="206.88" y="2.09" width="25.23" height="25.18"/></clipPath><clipPath id="clip-path-49" transform="translate(2 3.52)"><rect class="cls-1" x="206" y="2" width="27" height="26"/></clipPath><clipPath id="clip-path-50" transform="translate(2 3.52)"><path class="cls-2" d="M232.1,2.31a.21.21,0,0,0-.22-.22H207.09a.21.21,0,0,0-.22.22l.66,2.63a.21.21,0,0,0,.22.22H228.6a.21.21,0,0,1,.22.22V27.06a.21.21,0,0,0,.22.22s3.07,0,3.07-.22Z"/></clipPath><clipPath id="clip-path-52" transform="translate(2 3.52)"><path class="cls-2" d="M145.33,84.6a.21.21,0,0,0,.22.22h75.11a.21.21,0,0,0,.22-.22L220.22,82a.21.21,0,0,0-.22-.22H148.83a.21.21,0,0,1-.22-.22v-42a.21.21,0,0,0-.22-.22h-2.85a.21.21,0,0,0-.22.22Z"/></clipPath><clipPath id="clip-path-54" transform="translate(2 3.52)"><rect class="cls-1" x="168.64" y="41.46" width="63.46" height="43.36"/></clipPath><clipPath id="clip-path-56" transform="translate(2 3.52)"><rect class="cls-1" x="168" y="41" width="65" height="44"/></clipPath><clipPath id="clip-path-57" transform="translate(2 3.52)"><path class="cls-2" d="M232.1,84.6a.21.21,0,0,1-.22.22h-63a.21.21,0,0,1-.22-.22L169.3,82a.21.21,0,0,1,.22-.22H228.6a.21.21,0,0,0,.22-.22V41.68a.21.21,0,0,1,.22-.22h2.85a.21.21,0,0,1,.22.22Z"/></clipPath><clipPath id="clip-path-59" transform="translate(2 3.52)"><path class="cls-2" d="M165.32,73V67.26a.21.21,0,0,0-.22-.22h-2.85a.21.21,0,0,0-.22.22V72.1a.22.22,0,0,1-.22.22H161a.22.22,0,0,0-.22.22v2.63a.21.21,0,0,0,.22.22h2.08c1.53,0,2.19-.87,2.19-2.41"/></clipPath><clipPath id="clip-path-61" transform="translate(2 3.52)"><path class="cls-2" d="M163.3,49.36H161a.22.22,0,0,0-.22.22V52.2a.21.21,0,0,0,.22.22h1a.21.21,0,0,1,.22.22v5a.21.21,0,0,0,.22.22h2.85a.21.21,0,0,0,.22-.22V51.55a2,2,0,0,0-2.19-2.19"/></clipPath><clipPath id="clip-path-63" transform="translate(2 3.52)"><path class="cls-2" d="M188.41,51.85v6.79c0,.66,0,1.09.22,1.31s.22.44.66.66l1.53,1.09.22.22.22.22a12.21,12.21,0,0,1,2,1.53h.22l1.31-1.09.22-.22v-.22a.21.21,0,0,0-.22-.22l-3.28-2.63-.22-.22V53.16a.21.21,0,0,1,.22-.22h.66a.21.21,0,0,0,.22-.22V49.88a.21.21,0,0,0-.22-.22H190.6a2,2,0,0,0-2.19,2.19"/></clipPath><clipPath id="clip-path-65" transform="translate(2 3.52)"><path class="cls-2" d="M188.63,64.33a2.78,2.78,0,0,0-.22,1.31v7.66c0,1.53.66,2.19,2.19,2.19h2a.22.22,0,0,0,.22-.22V72.65a.22.22,0,0,0-.22-.22h-.66a.21.21,0,0,1-.22-.22V65.43a.21.21,0,0,1,.22-.22l1.09-.88v-.22l-2-1.53h-.22l-1.31.88Z"/></clipPath><clipPath id="clip-path-67" transform="translate(2 3.52)"><path class="cls-2" d="M197.39,73.31V68.49a.22.22,0,0,0-.22-.22h-2.85a.21.21,0,0,0-.22.22v3.94a.22.22,0,0,1-.22.22h-.66a.21.21,0,0,0-.22.22V75.5a.21.21,0,0,0,.22.22h2c1.53,0,2.19-.87,2.19-2.41"/></clipPath><clipPath id="clip-path-69" transform="translate(2 3.52)"><path class="cls-2" d="M195.2,49.66h-2a.21.21,0,0,0-.22.22v2.63a.21.21,0,0,0,.22.22h.66a.21.21,0,0,1,.22.22v3.5a.21.21,0,0,0,.22.22h2.85a.21.21,0,0,0,.22-.22v-4.6a2,2,0,0,0-2.19-2.19"/></clipPath><clipPath id="clip-path-71" transform="translate(2 3.52)"><path class="cls-2" d="M158.59,75.42h1.64a.21.21,0,0,0,.22-.22V72.35h-.54A1.16,1.16,0,0,1,158.59,71V53.74q0-1.31,1.64-1.32h-.11a.21.21,0,0,0,.22-.22V49.58a.22.22,0,0,0-.22-.22H159a3.19,3.19,0,0,0-2.63.88,3.49,3.49,0,0,0-.88,2.63V71.47a3.49,3.49,0,0,0,.88,2.63c0,.88.88,1.31,2.19,1.31"/></clipPath><clipPath id="clip-path-73" transform="translate(2 3.52)"><path class="cls-2" d="M183.09,75.61h2.85a.21.21,0,0,0,.22-.22V49.77a.21.21,0,0,0-.22-.22h-2.85a.21.21,0,0,0-.22.22l.22,25.84c-.22-.22-.22,0,0,0"/></clipPath><clipPath id="clip-path-75" transform="translate(2 3.52)"><path class="cls-2" d="M167.82,75.61h2.85a.21.21,0,0,0,.22-.22V49.77a.22.22,0,0,0-.22-.22h-2.85a.21.21,0,0,0-.22.22l.22,25.84c-.22-.22-.22,0,0,0"/></clipPath><clipPath id="clip-path-77" transform="translate(2 3.52)"><path class="cls-2" d="M172.37,52.72h2.19a.21.21,0,0,0,.22-.22V49.88a.21.21,0,0,0-.22-.22h-2.19a.21.21,0,0,0-.22.22l.22,2.85c-.22-.22-.22,0,0,0"/></clipPath><clipPath id="clip-path-79" transform="translate(2 3.52)"><path class="cls-2" d="M175.21,75.5h2.85a.22.22,0,0,0,.22-.22V52.94a.21.21,0,0,1,.22-.22h2.63a.21.21,0,0,0,.22-.22V49.88a.22.22,0,0,0-.22-.22h-5.69a.21.21,0,0,0-.22.22V75.5h0"/></clipPath><clipPath id="clip-path-81" transform="translate(2 3.52)"><path class="cls-2" d="M205,49.66h2.54a1.85,1.85,0,0,1,2,1.94v6.25h-3.3V52.51H205Z"/></clipPath><clipPath id="clip-path-83" transform="translate(2 3.52)"><path class="cls-2" d="M204.81,75.5H202a1.84,1.84,0,0,1-2-1.94V67.31h3.3v5.34h1.58Z"/></clipPath><clipPath id="clip-path-85" transform="translate(2 3.52)"><path class="cls-2" d="M204.54,49.6v3h-1.27l0,5,4.63,6.29,1.21,1.65s.52.43.52,1.9v5.87s.16,1.77-1.17,2.16a3.19,3.19,0,0,1-1,.11H205l-.06-3h1.41l-.06-5.33-5.64-7.57a3,3,0,0,1-.73-1.93v-5.9s0-2.25,1.86-2.24Z"/></clipPath></defs><title>wp-rebrand-cities-logo</title><g class="cls-3"><g class="cls-4"><g class="cls-5"><g class="cls-6"><g class="cls-7"><g class="cls-6"><rect class="cls-8" width="94.07" height="94.12"/></g></g></g></g></g></g><g class="cls-9"><g class="cls-4"><rect class="cls-8" x="112.22" y="8.22" width="11.75" height="79.4"/></g></g><g class="cls-10"><g class="cls-4"><rect class="cls-8" x="152.18" y="10.25" width="12.7" height="31.45"/></g></g><g class="cls-11"><g class="cls-4"><rect class="cls-8" x="155.43" y="10.25" width="15.41" height="31.45"/></g></g><g class="cls-12"><g class="cls-4"><rect class="cls-8" x="182.11" y="10.25" width="12.7" height="31.45"/></g></g><g class="cls-13"><g class="cls-4"><rect class="cls-8" x="185.35" y="10.25" width="15.41" height="31.45"/></g></g><g class="cls-14"><g class="cls-4"><rect class="cls-8" x="162.46" y="10.07" width="15.41" height="21.54"/></g></g><g class="cls-15"><g class="cls-4"><rect class="cls-8" x="162.46" y="20.7" width="13.79" height="20.64"/></g></g><g class="cls-16"><g class="cls-4"><rect class="cls-8" x="166.25" y="25.39" width="13.61" height="16.13"/></g></g><g class="cls-17"><g class="cls-4"><rect class="cls-8" x="166.25" y="10.07" width="13.61" height="15.77"/></g></g><g class="cls-18"><g class="cls-4"><rect class="cls-8" x="195.99" y="10.35" width="14.15" height="31.35"/></g></g><g class="cls-19"><g class="cls-4"><rect class="cls-8" x="191.3" y="10.25" width="14.33" height="31.27"/></g></g><g class="cls-20"><g class="cls-4"><rect class="cls-8" x="171.83" y="10.25" width="12.7" height="31.45"/></g></g><g class="cls-21"><g class="cls-4"><rect class="cls-8" x="174.72" y="10.25" width="15.05" height="31.63"/></g></g><g class="cls-22"><g class="cls-4"><rect class="cls-8" x="212.21" y="10.25" width="13.79" height="31.45"/></g></g><g class="cls-23"><g class="cls-4"><rect class="cls-8" x="214.92" y="10.25" width="14.87" height="31.45"/></g></g><g class="cls-24"><g class="cls-4"><rect class="cls-8" x="201.68" y="12.95" width="12.6" height="28.21"/></g></g><g class="cls-25"><g class="cls-4"><rect class="cls-8" x="207.35" y="9.99" width="12.52" height="28.29"/></g></g><g class="cls-26"><g class="cls-4"><g class="cls-5"><g class="cls-27"><g class="cls-28"><g class="cls-27"><rect class="cls-8" x="142.33" y="0.58" width="96.77" height="67.37"/></g></g></g></g></g></g><g class="cls-29"><g class="cls-4"><rect class="cls-8" x="142.33" y="19.18" width="73.47" height="31.9"/></g></g><g class="cls-30"><g class="cls-4"><g class="cls-5"><g class="cls-31"><g class="cls-32"><g class="cls-31"><rect class="cls-8" x="203.88" y="0.62" width="35.23" height="35.18"/></g></g></g></g></g></g><g class="cls-33"><g class="cls-4"><rect class="cls-8" x="142.33" y="37.79" width="85.55" height="55.55"/></g></g><g class="cls-34"><g class="cls-4"><g class="cls-5"><g class="cls-35"><g class="cls-36"><g class="cls-35"><rect class="cls-8" x="165.64" y="39.98" width="73.47" height="53.36"/></g></g></g></g></g></g><g class="cls-37"><g class="cls-4"><rect class="cls-8" x="157.83" y="65.56" width="14.49" height="18.35"/></g></g><g class="cls-38"><g class="cls-4"><rect class="cls-8" x="157.8" y="47.88" width="14.68" height="18.52"/></g></g><g class="cls-39"><g class="cls-4"><rect class="cls-8" x="185.41" y="48.18" width="16.57" height="24.01"/></g></g><g class="cls-40"><g class="cls-4"><rect class="cls-8" x="185.41" y="61.1" width="14.6" height="22.92"/></g></g><g class="cls-41"><g class="cls-4"><rect class="cls-8" x="190.01" y="66.79" width="14.38" height="17.45"/></g></g><g class="cls-42"><g class="cls-4"><rect class="cls-8" x="190.01" y="48.18" width="14.38" height="17.01"/></g></g><g class="cls-43"><g class="cls-4"><rect class="cls-8" x="152.52" y="47.88" width="14.92" height="36.06"/></g></g><g class="cls-44"><g class="cls-4"><rect class="cls-8" x="179.88" y="48.07" width="13.28" height="36.06"/></g></g><g class="cls-45"><g class="cls-4"><rect class="cls-8" x="164.6" y="48.07" width="13.28" height="36.06"/></g></g><g class="cls-46"><g class="cls-4"><rect class="cls-8" x="169.15" y="48.18" width="12.63" height="13.07"/></g></g><g class="cls-47"><g class="cls-4"><rect class="cls-8" x="172.21" y="48.18" width="16.13" height="35.84"/></g></g><g class="cls-48"><g class="cls-4"><rect class="cls-8" x="202.01" y="48.18" width="14.58" height="18.19"/></g></g><g class="cls-49"><g class="cls-4"><rect class="cls-8" x="196.92" y="65.83" width="14.88" height="18.19"/></g></g><g class="cls-50"><g class="cls-4"><rect class="cls-8" x="196.92" y="48.12" width="19.68" height="35.99"/></g></g></svg>