<?xml version="1.0" encoding="UTF-8"?><!DOCTYPE svg PUBLIC "-//W3C//DTD SVG 1.1//EN" "http://www.w3.org/Graphics/SVG/1.1/DTD/svg11.dtd"><svg xmlns="http://www.w3.org/2000/svg" xmlns:xlink="http://www.w3.org/1999/xlink"><defs/><symbol id="icon-filled-backup-24px" viewBox="0 0 24 24"><path d="M0 0h24v24H0z" fill="none"/><path d="M19.35 10.04C18.67 6.59 15.64 4 12 4 9.11 4 6.6 5.64 5.35 8.04 2.34 8.36 0 10.91 0 14c0 3.31 2.69 6 6 6h13c2.76 0 5-2.24 5-5 0-2.64-2.05-4.78-4.65-4.96zM14 13v4h-4v-4H7l5-5 5 5h-3z"/></symbol><symbol id="icon-filled-dashboard-24px" viewBox="0 0 24 24"><path d="M0 0h24v24H0z" fill="none"/><path d="M3 13h8V3H3v10zm0 8h8v-6H3v6zm10 0h8V11h-8v10zm0-18v6h8V3h-8z"/></symbol><symbol id="icon-filled-help-24px" viewBox="0 0 24 24"><path d="M0 0h24v24H0z" fill="none"/><path d="M12 2C6.48 2 2 6.48 2 12s4.48 10 10 10 10-4.48 10-10S17.52 2 12 2zm1 17h-2v-2h2v2zm2.07-7.75l-.9.92C13.45 12.9 13 13.5 13 15h-2v-.5c0-1.1.45-2.1 1.17-2.83l1.24-1.26c.37-.36.59-.86.59-1.41 0-1.1-.9-2-2-2s-2 .9-2 2H8c0-2.21 1.79-4 4-4s4 1.79 4 4c0 .88-.36 1.68-.93 2.25z"/></symbol><symbol id="icon-filled-settings-24px" viewBox="0 0 24 24"><g><path d="M0,0h24v24H0V0z" fill="none"/><path d="M19.14,12.94c0.04-0.3,0.06-0.61,0.06-0.94c0-0.32-0.02-0.64-0.07-0.94l2.03-1.58c0.18-0.14,0.23-0.41,0.12-0.61 l-1.92-3.32c-0.12-0.22-0.37-0.29-0.59-0.22l-2.39,0.96c-0.5-0.38-1.03-0.7-1.62-0.94L14.4,2.81c-0.04-0.24-0.24-0.41-0.48-0.41 h-3.84c-0.24,0-0.43,0.17-0.47,0.41L9.25,5.35C8.66,5.59,8.12,5.92,7.63,6.29L5.24,5.33c-0.22-0.08-0.47,0-0.59,0.22L2.74,8.87 C2.62,9.08,2.66,9.34,2.86,9.48l2.03,1.58C4.84,11.36,4.8,11.69,4.8,12s0.02,0.64,0.07,0.94l-2.03,1.58 c-0.18,0.14-0.23,0.41-0.12,0.61l1.92,3.32c0.12,0.22,0.37,0.29,0.59,0.22l2.39-0.96c0.5,0.38,1.03,0.7,1.62,0.94l0.36,2.54 c0.05,0.24,0.24,0.41,0.48,0.41h3.84c0.24,0,0.44-0.17,0.47-0.41l0.36-2.54c0.59-0.24,1.13-0.56,1.62-0.94l2.39,0.96 c0.22,0.08,0.47,0,0.59-0.22l1.92-3.32c0.12-0.22,0.07-0.47-0.12-0.61L19.14,12.94z M12,15.6c-1.98,0-3.6-1.62-3.6-3.6 s1.62-3.6,3.6-3.6s3.6,1.62,3.6,3.6S13.98,15.6,12,15.6z"/></g></symbol><symbol id="icon-outline-build-24px" viewBox="0 0 24 24"><path fill="none" d="M0 0h24v24H0V0z"/><path d="M22.61 18.99l-9.08-9.08c.93-2.34.45-5.1-1.44-7C9.79.61 6.21.4 3.66 2.26L7.5 6.11 6.08 7.52 2.25 3.69C.39 6.23.6 9.82 2.9 12.11c1.86 1.86 4.57 2.35 6.89 1.48l9.11 9.11c.39.39 1.02.39 1.41 0l2.3-2.3c.4-.38.4-1.01 0-1.41zm-3 1.6l-9.46-9.46c-.61.45-1.29.72-2 .82-1.36.2-2.79-.21-3.83-1.25C3.37 9.76 2.93 8.5 3 7.26l3.09 3.09 4.24-4.24-3.09-3.09c1.24-.07 2.49.37 3.44 1.31 1.08 1.08 1.49 2.57 1.24 3.96-.12.71-.42 1.37-.88 1.96l9.45 9.45-.88.89z"/></symbol><symbol id="icon-outline-build-32px" viewBox="0 0 24 24"><path fill="none" d="M0 0h24v24H0V0z"/><path d="M22.61 18.99l-9.08-9.08c.93-2.34.45-5.1-1.44-7C9.79.61 6.21.4 3.66 2.26L7.5 6.11 6.08 7.52 2.25 3.69C.39 6.23.6 9.82 2.9 12.11c1.86 1.86 4.57 2.35 6.89 1.48l9.11 9.11c.39.39 1.02.39 1.41 0l2.3-2.3c.4-.38.4-1.01 0-1.41zm-3 1.6l-9.46-9.46c-.61.45-1.29.72-2 .82-1.36.2-2.79-.21-3.83-1.25C3.37 9.76 2.93 8.5 3 7.26l3.09 3.09 4.24-4.24-3.09-3.09c1.24-.07 2.49.37 3.44 1.31 1.08 1.08 1.49 2.57 1.24 3.96-.12.71-.42 1.37-.88 1.96l9.45 9.45-.88.89z"/></symbol><symbol id="icon-outline-cached-24px" viewBox="0 0 24 24"><path d="M0 0h24v24H0V0z" fill="none"/><path d="M19 8l-4 4h3c0 3.31-2.69 6-6 6-1.01 0-1.97-.25-2.8-.7l-1.46 1.46C8.97 19.54 10.43 20 12 20c4.42 0 8-3.58 8-8h3l-4-4zM6 12c0-3.31 2.69-6 6-6 1.01 0 1.97.25 2.8.7l1.46-1.46C15.03 4.46 13.57 4 12 4c-4.42 0-8 3.58-8 8H1l4 4 4-4H6z"/></symbol><symbol id="icon-outline-check_circle-24px" viewBox="0 0 24 24"><path fill="none" d="M0 0h24v24H0V0z"/><path d="M12 2C6.48 2 2 6.48 2 12s4.48 10 10 10 10-4.48 10-10S17.52 2 12 2zm0 18c-4.41 0-8-3.59-8-8s3.59-8 8-8 8 3.59 8 8-3.59 8-8 8zm4.59-12.42L10 14.17l-2.59-2.58L6 13l4 4 8-8z"/></symbol><symbol id="icon-outline-chrome_reader_mode-24px" viewBox="0 0 24 24"><path d="M0 0h24v24H0V0z" fill="none"/><path d="M21 4H3c-1.1 0-2 .9-2 2v13c0 1.1.9 2 2 2h18c1.1 0 2-.9 2-2V6c0-1.1-.9-2-2-2zM3 19V6h8v13H3zm18 0h-8V6h8v13zm-7-9.5h6V11h-6zm0 2.5h6v1.5h-6zm0 2.5h6V16h-6z"/></symbol><symbol id="icon-outline-credit_card-24px" viewBox="0 0 24 24"><path fill="none" d="M0 0h24v24H0V0z"/><path d="M20 4H4c-1.11 0-1.99.89-1.99 2L2 18c0 1.11.89 2 2 2h16c1.11 0 2-.89 2-2V6c0-1.11-.89-2-2-2zm0 14H4v-6h16v6zm0-10H4V6h16v2z"/></symbol><symbol id="icon-outline-delete-24px" viewBox="0 0 24 24"><path d="M0 0h24v24H0V0z" fill="none"/><path d="M16 9v10H8V9h8m-1.5-6h-5l-1 1H5v2h14V4h-3.5l-1-1zM18 7H6v12c0 1.1.9 2 2 2h8c1.1 0 2-.9 2-2V7z"/></symbol><symbol id="icon-outline-dns-32px" viewBox="0 0 24 24"><path fill="none" d="M0 0h24v24H0V0z"/><path d="M19 15v4H5v-4h14m1-2H4c-.55 0-1 .45-1 1v6c0 .55.45 1 1 1h16c.55 0 1-.45 1-1v-6c0-.55-.45-1-1-1zM7 18.5c-.82 0-1.5-.67-1.5-1.5s.68-1.5 1.5-1.5 1.5.67 1.5 1.5-.67 1.5-1.5 1.5zM19 5v4H5V5h14m1-2H4c-.55 0-1 .45-1 1v6c0 .55.45 1 1 1h16c.55 0 1-.45 1-1V4c0-.55-.45-1-1-1zM7 8.5c-.82 0-1.5-.67-1.5-1.5S6.18 5.5 7 5.5s1.5.68 1.5 1.5S7.83 8.5 7 8.5z"/></symbol><symbol id="icon-outline-home-24px" viewBox="0 0 24 24"><path fill="none" d="M0 0h24v24H0V0z"/><path d="M12 5.69l5 4.5V18h-2v-6H9v6H7v-7.81l5-4.5M12 3L2 12h3v8h6v-6h2v6h6v-8h3L12 3z"/></symbol><symbol id="icon-outline-info-24px" viewBox="0 0 24 24"><path d="M0 0h24v24H0V0z" fill="none"/><path d="M11 7h2v2h-2zm0 4h2v6h-2zm1-9C6.48 2 2 6.48 2 12s4.48 10 10 10 10-4.48 10-10S17.52 2 12 2zm0 18c-4.41 0-8-3.59-8-8s3.59-8 8-8 8 3.59 8 8-3.59 8-8 8z"/></symbol><symbol id="icon-outline-language-24px" viewBox="0 0 24 24"><path d="M0 0h24v24H0V0z" fill="none"/><path d="M11.99 2C6.47 2 2 6.48 2 12s4.47 10 9.99 10C17.52 22 22 17.52 22 12S17.52 2 11.99 2zm6.93 6h-2.95c-.32-1.25-.78-2.45-1.38-3.56 1.84.63 3.37 1.91 4.33 3.56zM12 4.04c.83 1.2 1.48 2.53 1.91 3.96h-3.82c.43-1.43 1.08-2.76 1.91-3.96zM4.26 14C4.1 13.36 4 12.69 4 12s.1-1.36.26-2h3.38c-.08.66-.14 1.32-.14 2s.06 1.34.14 2H4.26zm.82 2h2.95c.32 1.25.78 2.45 1.38 3.56-1.84-.63-3.37-1.9-4.33-3.56zm2.95-8H5.08c.96-1.66 2.49-2.93 4.33-3.56C8.81 5.55 8.35 6.75 8.03 8zM12 19.96c-.83-1.2-1.48-2.53-1.91-3.96h3.82c-.43 1.43-1.08 2.76-1.91 3.96zM14.34 14H9.66c-.09-.66-.16-1.32-.16-2s.07-1.35.16-2h4.68c.09.65.16 1.32.16 2s-.07 1.34-.16 2zm.25 5.56c.6-1.11 1.06-2.31 1.38-3.56h2.95c-.96 1.65-2.49 2.93-4.33 3.56zM16.36 14c.08-.66.14-1.32.14-2s-.06-1.34-.14-2h3.38c.16.64.26 1.31.26 2s-.1 1.36-.26 2h-3.38z"/></symbol><symbol id="icon-outline-launch-16px" viewBox="0 0 24 24"><path fill="none" d="M0 0h24v24H0V0z"/><path d="M19 19H5V5h7V3H5c-1.11 0-2 .9-2 2v14c0 1.1.89 2 2 2h14c1.1 0 2-.9 2-2v-7h-2v7zM14 3v2h3.59l-9.83 9.83 1.41 1.41L19 6.41V10h2V3h-7z"/></symbol><symbol id="icon-outline-list-24px" viewBox="0 0 24 24"><g fill="none"><path d="M0 0h24v24H0V0z"/><path d="M0 0h24v24H0V0z" opacity=".87"/></g><path d="M3 13h2v-2H3v2zm0 4h2v-2H3v2zm0-8h2V7H3v2zm4 4h14v-2H7v2zm0 4h14v-2H7v2zM7 7v2h14V7H7zm-4 6h2v-2H3v2zm0 4h2v-2H3v2zm0-8h2V7H3v2zm4 4h14v-2H7v2zm0 4h14v-2H7v2zM7 7v2h14V7H7z"/></symbol><symbol id="icon-outline-lock-24px" viewBox="0 0 24 24"><g fill="none"><path d="M0 0h24v24H0V0z"/><path opacity=".87" d="M0 0h24v24H0V0z"/></g><path d="M18 8h-1V6c0-2.76-2.24-5-5-5S7 3.24 7 6v2H6c-1.1 0-2 .9-2 2v10c0 1.1.9 2 2 2h12c1.1 0 2-.9 2-2V10c0-1.1-.9-2-2-2zM9 6c0-1.66 1.34-3 3-3s3 1.34 3 3v2H9V6zm9 14H6V10h12v10zm-6-3c1.1 0 2-.9 2-2s-.9-2-2-2-2 .9-2 2 .9 2 2 2z"/></symbol><symbol id="icon-outline-offline_bolt-24px" viewBox="0 0 24 24"><path fill="none" d="M0 0h24v24H0z"/><path d="M12 2.02c-5.51 0-9.98 4.47-9.98 9.98s4.47 9.98 9.98 9.98 9.98-4.47 9.98-9.98S17.51 2.02 12 2.02zm0 17.96c-4.4 0-7.98-3.58-7.98-7.98S7.6 4.02 12 4.02 19.98 7.6 19.98 12 16.4 19.98 12 19.98zM12.75 5l-4.5 8.5h3.14V19l4.36-8.5h-3z"/></symbol><symbol id="icon-outline-question_answer-24px" viewBox="0 0 24 24"><path fill="none" d="M0 0h24v24H0V0z"/><path d="M15 4v7H5.17l-.59.59-.58.58V4h11m1-2H3c-.55 0-1 .45-1 1v14l4-4h10c.55 0 1-.45 1-1V3c0-.55-.45-1-1-1zm5 4h-2v9H6v2c0 .55.45 1 1 1h11l4 4V7c0-.55-.45-1-1-1z"/></symbol><symbol id="icon-outline-search-24px" viewBox="0 0 24 24"><path fill="none" d="M0 0h24v24H0V0z"/><path d="M15.5 14h-.79l-.28-.27C15.41 12.59 16 11.11 16 9.5 16 5.91 13.09 3 9.5 3S3 5.91 3 9.5 5.91 16 9.5 16c1.61 0 3.09-.59 4.23-1.57l.27.28v.79l5 4.99L20.49 19l-4.99-5zm-6 0C7.01 14 5 11.99 5 9.5S7.01 5 9.5 5 14 7.01 14 9.5 11.99 14 9.5 14z"/></symbol><symbol id="icon-outline-settings-24px" viewBox="0 0 24 24"><path fill="none" d="M0 0h24v24H0V0z"/><path d="M19.43 12.98c.04-.32.07-.64.07-.98 0-.34-.03-.66-.07-.98l2.11-1.65c.19-.15.24-.42.12-.64l-2-3.46c-.09-.16-.26-.25-.44-.25-.06 0-.12.01-.17.03l-2.49 1c-.52-.4-1.08-.73-1.69-.98l-.38-2.65C14.46 2.18 14.25 2 14 2h-4c-.25 0-.46.18-.49.42l-.38 2.65c-.61.25-1.17.59-1.69.98l-2.49-1c-.06-.02-.12-.03-.18-.03-.17 0-.34.09-.43.25l-2 3.46c-.13.22-.07.49.12.64l2.11 1.65c-.04.32-.07.65-.07.98 0 .33.03.66.07.98l-2.11 1.65c-.19.15-.24.42-.12.64l2 3.46c.09.16.26.25.44.25.06 0 .12-.01.17-.03l2.49-1c.52.4 1.08.73 1.69.98l.38 2.65c.03.24.24.42.49.42h4c.25 0 .46-.18.49-.42l.38-2.65c.61-.25 1.17-.59 1.69-.98l2.49 1c.06.02.12.03.18.03.17 0 .34-.09.43-.25l2-3.46c.12-.22.07-.49-.12-.64l-2.11-1.65zm-1.98-1.71c.04.31.05.52.05.73 0 .21-.02.43-.05.73l-.14 1.13.89.7 1.08.84-.7 1.21-1.27-.51-1.04-.42-.9.68c-.43.32-.84.56-1.25.73l-1.06.43-.16 1.13-.2 1.35h-1.4l-.19-1.35-.16-1.13-1.06-.43c-.43-.18-.83-.41-1.23-.71l-.91-.7-1.06.43-1.27.51-.7-1.21 1.08-.84.89-.7-.14-1.13c-.03-.31-.05-.54-.05-.74s.02-.43.05-.73l.14-1.13-.89-.7-1.08-.84.7-1.21 1.27.51 1.04.42.9-.68c.43-.32.84-.56 1.25-.73l1.06-.43.16-1.13.2-1.35h1.39l.19 1.35.16 1.13 1.06.43c.43.18.83.41 1.23.71l.91.7 1.06-.43 1.27-.51.7 1.21-1.07.85-.89.7.14 1.13zM12 8c-2.21 0-4 1.79-4 4s1.79 4 4 4 4-1.79 4-4-1.79-4-4-4zm0 6c-1.1 0-2-.9-2-2s.9-2 2-2 2 .9 2 2-.9 2-2 2z"/></symbol><symbol id="icon-outline-settings-32px" viewBox="0 0 24 24"><path fill="none" d="M0 0h24v24H0V0z"/><path d="M19.43 12.98c.04-.32.07-.64.07-.98 0-.34-.03-.66-.07-.98l2.11-1.65c.19-.15.24-.42.12-.64l-2-3.46c-.09-.16-.26-.25-.44-.25-.06 0-.12.01-.17.03l-2.49 1c-.52-.4-1.08-.73-1.69-.98l-.38-2.65C14.46 2.18 14.25 2 14 2h-4c-.25 0-.46.18-.49.42l-.38 2.65c-.61.25-1.17.59-1.69.98l-2.49-1c-.06-.02-.12-.03-.18-.03-.17 0-.34.09-.43.25l-2 3.46c-.13.22-.07.49.12.64l2.11 1.65c-.04.32-.07.65-.07.98 0 .33.03.66.07.98l-2.11 1.65c-.19.15-.24.42-.12.64l2 3.46c.09.16.26.25.44.25.06 0 .12-.01.17-.03l2.49-1c.52.4 1.08.73 1.69.98l.38 2.65c.03.24.24.42.49.42h4c.25 0 .46-.18.49-.42l.38-2.65c.61-.25 1.17-.59 1.69-.98l2.49 1c.06.02.12.03.18.03.17 0 .34-.09.43-.25l2-3.46c.12-.22.07-.49-.12-.64l-2.11-1.65zm-1.98-1.71c.04.31.05.52.05.73 0 .21-.02.43-.05.73l-.14 1.13.89.7 1.08.84-.7 1.21-1.27-.51-1.04-.42-.9.68c-.43.32-.84.56-1.25.73l-1.06.43-.16 1.13-.2 1.35h-1.4l-.19-1.35-.16-1.13-1.06-.43c-.43-.18-.83-.41-1.23-.71l-.91-.7-1.06.43-1.27.51-.7-1.21 1.08-.84.89-.7-.14-1.13c-.03-.31-.05-.54-.05-.74s.02-.43.05-.73l.14-1.13-.89-.7-1.08-.84.7-1.21 1.27.51 1.04.42.9-.68c.43-.32.84-.56 1.25-.73l1.06-.43.16-1.13.2-1.35h1.39l.19 1.35.16 1.13 1.06.43c.43.18.83.41 1.23.71l.91.7 1.06-.43 1.27-.51.7 1.21-1.07.85-.89.7.14 1.13zM12 8c-2.21 0-4 1.79-4 4s1.79 4 4 4 4-1.79 4-4-1.79-4-4-4zm0 6c-1.1 0-2-.9-2-2s.9-2 2-2 2 .9 2 2-.9 2-2 2z"/></symbol><symbol id="icon-outline-shopping_cart-24px" viewBox="0 0 24 24"><path fill="none" d="M0 0h24v24H0V0z"/><path d="M15.55 13c.75 0 1.41-.41 1.75-1.03l3.58-6.49c.37-.66-.11-1.48-.87-1.48H5.21l-.94-2H1v2h2l3.6 7.59-1.35 2.44C4.52 15.37 5.48 17 7 17h12v-2H7l1.1-2h7.45zM6.16 6h12.15l-2.76 5H8.53L6.16 6zM7 18c-1.1 0-1.99.9-1.99 2S5.9 22 7 22s2-.9 2-2-.9-2-2-2zm10 0c-1.1 0-1.99.9-1.99 2s.89 2 1.99 2 2-.9 2-2-.9-2-2-2z"/></symbol><symbol id="icon-outline-sync_alt-24px" viewBox="0 0 24 24"><g><rect fill="none" height="24" width="24"/></g><g><g/><g><path d="M22,8l-4-4v3H3v2h15v3L22,8z"/><path d="M2,16l4,4v-3h15v-2H6v-3L2,16z"/></g></g></symbol><symbol id="icon-outline-view_quilt-24px" viewBox="0 0 24 24"><path d="M0 0h24v24H0V0z" fill="none"/><path d="M4 5v13h17V5H4zm2 11V7h3v9H6zm5 0v-3.5h3V16h-3zm8 0h-3v-3.5h3V16zm-8-5.5V7h8v3.5h-8z"/></symbol><symbol id="icon-outline-visibility-24px" viewBox="0 0 24 24"><path fill="none" d="M0 0h24v24H0V0z"/><path d="M12 6c3.79 0 7.17 2.13 8.82 5.5C19.17 14.87 15.79 17 12 17s-7.17-2.13-8.82-5.5C4.83 8.13 8.21 6 12 6m0-2C7 4 2.73 7.11 1 11.5 2.73 15.89 7 19 12 19s9.27-3.11 11-7.5C21.27 7.11 17 4 12 4zm0 5c1.38 0 2.5 1.12 2.5 2.5S13.38 14 12 14s-2.5-1.12-2.5-2.5S10.62 9 12 9m0-2c-2.48 0-4.5 2.02-4.5 4.5S9.52 16 12 16s4.5-2.02 4.5-4.5S14.48 7 12 7z"/></symbol><symbol id="icon-outline-chat-24px" viewBox="0 0 24 24"><path fill="none" d="M0 0h24v24H0V0z"/><path d="M4 4h16v12H5.17L4 17.17V4m0-2c-1.1 0-1.99.9-1.99 2L2 22l4-4h14c1.1 0 2-.9 2-2V4c0-1.1-.9-2-2-2H4zm2 10h8v2H6v-2zm0-3h12v2H6V9zm0-3h12v2H6V6z"/></symbol><symbol id="icon-outline-email-24px" viewBox="0 0 24 24"><path d="M0 0h24v24H0V0z" fill="none"/><path d="M22 6c0-1.1-.9-2-2-2H4c-1.1 0-2 .9-2 2v12c0 1.1.9 2 2 2h16c1.1 0 2-.9 2-2V6zm-2 0l-8 5-8-5h16zm0 12H4V8l8 5 8-5v10z"/></symbol><symbol id="icon-outline-block-24px" viewBox="0 0 24 24"><path fill="none" d="M0 0h24v24H0V0z"/><path d="M12 2C6.48 2 2 6.48 2 12s4.48 10 10 10 10-4.48 10-10S17.52 2 12 2zM4 12c0-4.42 3.58-8 8-8 1.85 0 3.55.63 4.9 1.69L5.69 16.9C4.63 15.55 4 13.85 4 12zm8 8c-1.85 0-3.55-.63-4.9-1.69L18.31 7.1C19.37 8.45 20 10.15 20 12c0 4.42-3.58 8-8 8z"/></symbol><symbol id="icon-outline-create-24px" viewBox="0 0 24 24"><path d="M0 0h24v24H0V0z" fill="none"/><path d="M3 17.25V21h3.75L17.81 9.94l-3.75-3.75L3 17.25zM5.92 19H5v-.92l9.06-9.06.92.92L5.92 19zM20.71 5.63l-2.34-2.34c-.2-.2-.45-.29-.71-.29s-.51.1-.7.29l-1.83 1.83 3.75 3.75 1.83-1.83c.39-.39.39-1.02 0-1.41z"/></symbol><symbol id="icon-outline-gesture-24px" viewBox="0 0 24 24"><path fill="none" d="M0 0h24v24H0V0z"/><path d="M4.59 6.89c.7-.71 1.4-1.35 1.71-1.22.5.2 0 1.03-.3 1.52-.25.42-2.86 3.89-2.86 6.31 0 1.28.48 2.34 1.34 2.98.75.56 1.74.73 2.64.46 1.07-.31 1.95-1.4 3.06-2.77 1.21-1.49 2.83-3.44 4.08-3.44 1.63 0 1.65 1.01 1.76 1.79-3.78.64-5.38 3.67-5.38 5.37 0 1.7 1.44 3.09 3.21 3.09 1.63 0 4.29-1.33 4.69-6.1H21v-2.5h-2.47c-.15-1.65-1.09-4.2-4.03-4.2-2.25 0-4.18 1.91-4.94 2.84-.58.73-2.06 2.48-2.29 2.72-.25.3-.68.84-1.11.84-.45 0-.72-.83-.36-1.92.35-1.09 1.4-2.86 1.85-3.52.78-1.14 1.3-1.92 1.3-3.28C8.95 3.69 7.31 3 6.44 3 5.12 3 3.97 4 3.72 4.25c-.36.36-.66.66-.88.93l1.75 1.71zm9.29 11.66c-.31 0-.74-.26-.74-.72 0-.6.73-2.2 2.87-2.76-.3 2.69-1.43 3.48-2.13 3.48z"/></symbol><symbol id="icon-outline-bar_chart-24px" viewBox="0 0 24 24"><path fill="none" d="M0 0h24v24H0V0z"/><path d="M5 9.2h3V19H5V9.2zM10.6 5h2.8v14h-2.8V5zm5.6 8H19v6h-2.8v-6z"/></symbol><symbol id="icon-outline-insert_drive_file-24px" viewBox="0 0 24 24"><path d="M0 0h24v24H0V0z" fill="none"/><path d="M14 2H6c-1.1 0-1.99.9-1.99 2L4 20c0 1.1.89 2 1.99 2H18c1.1 0 2-.9 2-2V8l-6-6zM6 20V4h7v5h5v11H6z"/></symbol><symbol id="icon-outline-mode_comment-24px" viewBox="0 0 24 24"><path d="M0 0h24v24H0V0z" fill="none"/><path d="M20 17.17L18.83 16H4V4h16v13.17zM20 2H4c-1.1 0-2 .9-2 2v12c0 1.1.9 2 2 2h14l4 4V4c0-1.1-.9-2-2-2z"/></symbol><symbol id="icon-outline-cloud-32px" viewBox="0 0 24 24"><path fill="none" d="M0 0h24v24H0V0z"/><path d="M12 6c2.62 0 4.88 1.86 5.39 4.43l.3 1.5 1.53.11c1.56.1 2.78 1.41 2.78 2.96 0 1.65-1.35 3-3 3H6c-2.21 0-4-1.79-4-4 0-2.05 1.53-3.76 3.56-3.97l1.07-.11.5-.95C8.08 7.14 9.94 6 12 6m0-2C9.11 4 6.6 5.64 5.35 8.04 2.34 8.36 0 10.91 0 14c0 3.31 2.69 6 6 6h13c2.76 0 5-2.24 5-5 0-2.64-2.05-4.78-4.65-4.96C18.67 6.59 15.64 4 12 4z"/></symbol><symbol id="icon-outline-cloud_upload-24px" viewBox="0 0 24 24"><path d="M0 0h24v24H0V0z" fill="none"/><path d="M19.35 10.04C18.67 6.59 15.64 4 12 4 9.11 4 6.6 5.64 5.35 8.04 2.34 8.36 0 10.91 0 14c0 3.31 2.69 6 6 6h13c2.76 0 5-2.24 5-5 0-2.64-2.05-4.78-4.65-4.96zM19 18H6c-2.21 0-4-1.79-4-4 0-2.05 1.53-3.76 3.56-3.97l1.07-.11.5-.95C8.08 7.14 9.94 6 12 6c2.62 0 4.88 1.86 5.39 4.43l.3 1.5 1.53.11c1.56.1 2.78 1.41 2.78 2.96 0 1.65-1.35 3-3 3zM8 13h2.55v3h2.9v-3H16l-4-4z"/></symbol><symbol id="icon-filled-security-24px" viewBox="0 0 24 24"><path d="M12 1L3 5v6c0 5.55 3.84 10.74 9 12 5.16-1.26 9-6.45 9-12V5l-9-4zm0 10.99h7c-.53 4.12-3.28 7.79-7 8.94V12H5V6.3l7-3.11v8.8z"/><path d="M0 0h24v24H0z" fill="none"/></symbol><symbol id="icon-outline-keyboard_arrow_down-24px" viewBox="0 0 24 24"><path fill="none" d="M0 0h24v24H0V0z"/><path d="M7.41 8.59L12 13.17l4.59-4.58L18 10l-6 6-6-6 1.41-1.41z"/></symbol><symbol id="icon-outline-laptop-24px" viewBox="0 0 24 24"><g><rect fill="none" height="24" width="24" x="0"/></g><g><g><path d="M20,18c1.1,0,2-0.9,2-2V6c0-1.1-0.9-2-2-2H4C2.9,4,2,4.9,2,6v10c0,1.1,0.9,2,2,2H0v2h24v-2H20z M4,6h16v10H4V6z"/></g></g></symbol><symbol id="icon-outline-security-24px" viewBox="0 0 24 24"><path d="M0 0h24v24H0V0z" fill="none"/><path d="M12 1L3 5v6c0 5.55 3.84 10.74 9 12 5.16-1.26 9-6.45 9-12V5l-9-4zm0 10.99h7c-.53 4.12-3.28 7.79-7 8.94V12H5V6.3l7-3.11v8.8z"/></symbol><symbol id="icon-outline-edit-24px" viewBox="0 0 24 24"><path fill="none" d="M0 0h24v24H0V0z"/><path d="M14.06 9.02l.92.92L5.92 19H5v-.92l9.06-9.06M17.66 3c-.25 0-.51.1-.7.29l-1.83 1.83 3.75 3.75 1.83-1.83c.39-.39.39-1.02 0-1.41l-2.34-2.34c-.2-.2-.45-.29-.71-.29zm-3.6 3.19L3 17.25V21h3.75L17.81 9.94l-3.75-3.75z"/></symbol><symbol id="icon-outline-palette-24px" viewBox="0 0 24 24"><path d="M0 0h24v24H0V0z" fill="none"/><path d="M12 22C6.49 22 2 17.51 2 12S6.49 2 12 2s10 4.04 10 9c0 3.31-2.69 6-6 6h-1.77c-.28 0-.5.22-.5.5 0 .12.05.23.13.33.41.47.64 1.06.64 1.67 0 1.38-1.12 2.5-2.5 2.5zm0-18c-4.41 0-8 3.59-8 8s3.59 8 8 8c.28 0 .5-.22.5-.5 0-.16-.08-.28-.14-.35-.41-.46-.63-1.05-.63-1.65 0-1.38 1.12-2.5 2.5-2.5H16c2.21 0 4-1.79 4-4 0-3.86-3.59-7-8-7z"/><circle cx="6.5" cy="11.5" r="1.5"/><circle cx="9.5" cy="7.5" r="1.5"/><circle cx="14.5" cy="7.5" r="1.5"/><circle cx="17.5" cy="11.5" r="1.5"/></symbol><symbol id="icon-outline-local_offer-24px" viewBox="0 0 24 24"><path fill="none" d="M0 0h24v24H0V0z"/><path d="M21.41 11.58l-9-9C12.05 2.22 11.55 2 11 2H4c-1.1 0-2 .9-2 2v7c0 .55.22 1.05.59 1.42l9 9c.36.36.86.58 1.41.58s1.05-.22 1.41-.59l7-7c.37-.36.59-.86.59-1.41s-.23-1.06-.59-1.42zM13 20.01L4 11V4h7v-.01l9 9-7 7.02z"/><circle cx="6.5" cy="6.5" r="1.5"/></symbol><symbol id="icon-filled-arrow_back-24px" viewBox="0 0 24 24"><path d="M0 0h24v24H0z" fill="none"/><path d="M20 11H7.83l5.59-5.59L12 4l-8 8 8 8 1.41-1.41L7.83 13H20v-2z"/></symbol><symbol id="icon-outline-notifications-24px" viewBox="0 0 24 24"><path fill="none" d="M0 0h24v24H0V0z"/><path d="M12 22c1.1 0 2-.9 2-2h-4c0 1.1.9 2 2 2zm6-6v-5c0-3.07-1.63-5.64-4.5-6.32V4c0-.83-.67-1.5-1.5-1.5s-1.5.67-1.5 1.5v.68C7.64 5.36 6 7.92 6 11v5l-2 2v1h16v-1l-2-2zm-2 1H8v-6c0-2.48 1.51-4.5 4-4.5s4 2.02 4 4.5v6z"/></symbol><symbol id="icon-outline-person-24px" viewBox="0 0 24 24"><path fill="none" d="M0 0h24v24H0V0z"/><path d="M12 5.9c1.16 0 2.1.94 2.1 2.1s-.94 2.1-2.1 2.1S9.9 9.16 9.9 8s.94-2.1 2.1-2.1m0 9c2.97 0 6.1 1.46 6.1 2.1v1.1H5.9V17c0-.64 3.13-2.1 6.1-2.1M12 4C9.79 4 8 5.79 8 8s1.79 4 4 4 4-1.79 4-4-1.79-4-4-4zm0 9c-2.67 0-8 1.34-8 4v3h16v-3c0-2.66-5.33-4-8-4z"/></symbol><symbol id="icon-outline-star_border-24px" viewBox="0 0 24 24"><path fill="none" d="M0 0h24v24H0V0z"/><path d="M22 9.24l-7.19-.62L12 2 9.19 8.63 2 9.24l5.46 4.73L5.82 21 12 17.27 18.18 21l-1.63-7.03L22 9.24zM12 15.4l-3.76 2.27 1-4.28-3.32-2.88 4.38-.38L12 6.1l1.71 4.04 4.38.38-3.32 2.88 1 4.28L12 15.4z"/></symbol></svg>