<svg xmlns="http://www.w3.org/2000/svg" viewBox="0 0 96 96"><path fill="#4285F4" d="M95 48H58l-7 3-3 7v15h25l22.7-23.3c.2-.2.3-.4.3-.7 0-.5-.5-1-1-1z"/><title>Group</title><path fill="#FFBC00" d="M48 38V23H23L.3 46.3c-.2.2-.3.4-.3.7 0 .5.5 1 1 1h37l7-3 3-7z"/><path fill="#FF9800" d="M48 38V23H23l22 22"/><path fill="#DB4437" d="M49.7.3c-.2-.2-.4-.3-.7-.3-.5 0-1 .5-1 1v37l3 7 7 3h15V23L49.7.3z"/><path fill="#AD1457" d="M51 45l7 3h15V23"/><path fill="#3367D6" d="M51 51l-3 7v15h25"/><path fill="#8BC34A" d="M38 48H23v25l23.3 22.7c.2.2.4.3.7.3.5 0 1-.5 1-1V58l-3-7-7-3z"/><path fill="#0F9D58" d="M23 48v25l22-22-7-3"/></svg>
